  0
SECTION
  2
HEADER
  9
$ACADVER
  1
AC1014
  9
$HANDSEED
  5
FFFF
  9
$MEASUREMENT
 70
     1
  0
ENDSEC
  0
SECTION
  2
TABLES
  0
TABLE
  2
VPORT
  5
8
330
0
100
AcDbSymbolTable
 70
     4
  0
VPORT
  5
2E
330
8
100
AcDbSymbolTableRecord
100
AcDbViewportTableRecord
  2
*ACTIVE
 70
     0
 10
0.0
 20
0.0
 11
1.0
 21
1.0
 12
210.0
 22
148.5
 13
0.0
 23
0.0
 14
10.0
 24
10.0
 15
10.0
 25
10.0
 16
0.0
 26
0.0
 36
1.0
 17
0.0
 27
0.0
 37
0.0
 40
341.0
 41
1.24
 42
50.0
 43
0.0
 44
0.0
 50
0.0
 51
0.0
 71
     0
 72
   100
 73
     1
 74
     3
 75
     0
 76
     0
 77
     0
 78
     0
  0
ENDTAB
  0
TABLE
  2
LTYPE
  5
5
330
0
100
AcDbSymbolTable
 70
     1
  0
LTYPE
  5
14
330
5
100
AcDbSymbolTableRecord
100
AcDbLinetypeTableRecord
  2
BYBLOCK
 70
     0
  3

 72
    65
 73
     0
 40
0.0
  0
LTYPE
  5
15
330
5
100
AcDbSymbolTableRecord
100
AcDbLinetypeTableRecord
  2
BYLAYER
 70
     0
  3

 72
    65
 73
     0
 40
0.0
  0
LTYPE
  5
16
330
5
100
AcDbSymbolTableRecord
100
AcDbLinetypeTableRecord
  2
CONTINUOUS
 70
     0
  3
Solid line
 72
    65
 73
     0
 40
0.0
  0
ENDTAB
  0
TABLE
  2
LAYER
  5
2
100
AcDbSymbolTable
 70
2
  0
LAYER
  5
50
100
AcDbSymbolTableRecord
100
AcDbLayerTableRecord
  2
0
 70
0
  6
CONTINUOUS
  0
LAYER
  5
51
100
AcDbSymbolTableRecord
100
AcDbLayerTableRecord
  2
Layer_1
 70
0
  6
CONTINUOUS
  0
ENDTAB
  0
TABLE
  2
STYLE
  5
3
330
0
100
AcDbSymbolTable
 70
     1
  0
STYLE
  5
11
330
3
100
AcDbSymbolTableRecord
100
AcDbTextStyleTableRecord
  2
STANDARD
 70
     0
 40
0.0
 41
1.0
 50
0.0
 71
     0
 42
2.5
  3
txt
  4

  0
ENDTAB
  0
TABLE
  2
VIEW
  5
6
330
0
100
AcDbSymbolTable
 70
     0
  0
ENDTAB
  0
TABLE
  2
UCS
  5
7
330
0
100
AcDbSymbolTable
 70
     0
  0
ENDTAB
  0
TABLE
  2
APPID
  5
9
330
0
100
AcDbSymbolTable
 70
     2
  0
APPID
  5
12
330
9
100
AcDbSymbolTableRecord
100
AcDbRegAppTableRecord
  2
ACAD
 70
     0
  0
ENDTAB
  0
TABLE
  2
DIMSTYLE
  5
A
330
0
100
AcDbSymbolTable
 70
     1
  0
DIMSTYLE
105
27
330
A
100
AcDbSymbolTableRecord
100
AcDbDimStyleTableRecord
  2
ISO-25
 70
     0
  3

  4

  5

  6

  7

 40
1.0
 41
2.5
 42
0.625
 43
3.75
 44
1.25
 45
0.0
 46
0.0
 47
0.0
 48
0.0
140
2.5
141
2.5
142
0.0
143
0.03937007874016
144
1.0
145
0.0
146
1.0
147
0.625
 71
     0
 72
     0
 73
     0
 74
     0
 75
     0
 76
     0
 77
     1
 78
     8
170
     0
171
     3
172
     1
173
     0
174
     0
175
     0
176
     0
177
     0
178
     0
270
     2
271
     2
272
     2
273
     2
274
     3
340
11
275
     0
280
     0
281
     0
282
     0
283
     0
284
     8
285
     0
286
     0
287
     3
288
     0
  0
ENDTAB
  0
TABLE
  2
BLOCK_RECORD
  5
1
330
0
100
AcDbSymbolTable
 70
     1
  0
BLOCK_RECORD
  5
1F
330
1
100
AcDbSymbolTableRecord
100
AcDbBlockTableRecord
  2
*MODEL_SPACE
  0
BLOCK_RECORD
  5
1B
330
1
100
AcDbSymbolTableRecord
100
AcDbBlockTableRecord
  2
*PAPER_SPACE
  0
ENDTAB
  0
ENDSEC
  0
SECTION
  2
BLOCKS
  0
BLOCK
  5
20
330
1F
100
AcDbEntity
  8
0
100
AcDbBlockBegin
  2
*MODEL_SPACE
 70
     0
 10
0.0
 20
0.0
 30
0.0
  3
*MODEL_SPACE
  1

  0
ENDBLK
  5
21
330
1F
100
AcDbEntity
  8
0
100
AcDbBlockEnd
  0
BLOCK
  5
1C
330
1B
100
AcDbEntity
 67
     1
  8
0
100
AcDbBlockBegin
  2
*PAPER_SPACE
  1

  0
ENDBLK
  5
1D
330
1B
100
AcDbEntity
 67
     1
  8
0
100
AcDbBlockEnd
  0
ENDSEC
  0
SECTION
  2
ENTITIES
  0
SPLINE
  5
100
100
AcDbEntity
  8
Layer_1
 62
7
100
AcDbSpline
 70
8
 71
3
 72
8
 73
4
 74
0
 40
0
 40
0
 40
0
 40
0
 40
1
 40
1
 40
1
 40
1
 10
113.910291
 20
179.945576
 30
0.0
 10
108.848381
 20
179.966475
 30
0.0
 10
103.373532
 20
179.609695
 30
0.0
 10
100.278737
 20
178.945674
 30
0.0
  0
SPLINE
  5
101
100
AcDbEntity
  8
Layer_1
 62
7
100
AcDbSpline
 70
8
 71
3
 72
8
 73
4
 74
0
 40
0
 40
0
 40
0
 40
0
 40
1
 40
1
 40
1
 40
1
 10
100.278737
 20
178.945674
 30
0.0
 10
88.137340
 20
176.340619
 30
0.0
 10
79.457798
 20
170.955393
 30
0.0
 10
75.967387
 20
163.861667
 30
0.0
  0
SPLINE
  5
102
100
AcDbEntity
  8
Layer_1
 62
7
100
AcDbSpline
 70
8
 71
3
 72
8
 73
4
 74
0
 40
0
 40
0
 40
0
 40
0
 40
1
 40
1
 40
1
 40
1
 10
75.967387
 20
163.861667
 30
0.0
 10
74.873268
 20
161.638069
 30
0.0
 10
74.795343
 20
161.242317
 30
0.0
 10
74.802119
 20
157.944923
 30
0.0
  0
SPLINE
  5
103
100
AcDbEntity
  8
Layer_1
 62
7
100
AcDbSpline
 70
8
 71
3
 72
8
 73
4
 74
0
 40
0
 40
0
 40
0
 40
0
 40
1
 40
1
 40
1
 40
1
 10
74.802119
 20
157.944923
 30
0.0
 10
74.808949
 20
154.653283
 30
0.0
 10
74.891423
 20
154.241208
 30
0.0
 10
76.008176
 20
151.941085
 30
0.0
  0
SPLINE
  5
104
100
AcDbEntity
  8
Layer_1
 62
7
100
AcDbSpline
 70
8
 71
3
 72
8
 73
4
 74
0
 40
0
 40
0
 40
0
 40
0
 40
1
 40
1
 40
1
 40
1
 10
76.008176
 20
151.941085
 30
0.0
 10
79.706445
 20
144.323831
 30
0.0
 10
89.709199
 20
138.603334
 30
0.0
 10
103.168207
 20
136.407840
 30
0.0
  0
SPLINE
  5
105
100
AcDbEntity
  8
Layer_1
 62
7
100
AcDbSpline
 70
8
 71
3
 72
8
 73
4
 74
0
 40
0
 40
0
 40
0
 40
0
 40
1
 40
1
 40
1
 40
1
 10
103.168207
 20
136.407840
 30
0.0
 10
107.844742
 20
135.644982
 30
0.0
 10
120.991822
 20
135.949832
 30
0.0
 10
125.510617
 20
136.925980
 30
0.0
  0
SPLINE
  5
106
100
AcDbEntity
  8
Layer_1
 62
7
100
AcDbSpline
 70
8
 71
3
 72
8
 73
4
 74
0
 40
0
 40
0
 40
0
 40
0
 40
1
 40
1
 40
1
 40
1
 10
125.510617
 20
136.925980
 30
0.0
 10
138.993380
 20
139.838516
 30
0.0
 10
148.255728
 20
146.217232
 30
0.0
 10
150.607449
 20
154.209887
 30
0.0
  0
SPLINE
  5
107
100
AcDbEntity
  8
Layer_1
 62
7
100
AcDbSpline
 70
8
 71
3
 72
8
 73
4
 74
0
 40
0
 40
0
 40
0
 40
0
 40
1
 40
1
 40
1
 40
1
 10
150.607449
 20
154.209887
 30
0.0
 10
152.207471
 20
159.647801
 30
0.0
 10
150.316173
 20
165.102414
 30
0.0
 10
145.185144
 20
169.847312
 30
0.0
  0
SPLINE
  5
108
100
AcDbEntity
  8
Layer_1
 62
7
100
AcDbSpline
 70
8
 71
3
 72
8
 73
4
 74
0
 40
0
 40
0
 40
0
 40
0
 40
1
 40
1
 40
1
 40
1
 10
145.185144
 20
169.847312
 30
0.0
 10
139.969319
 20
174.670628
 30
0.0
 10
131.628546
 20
178.133721
 30
0.0
 10
121.972917
 20
179.485314
 30
0.0
  0
SPLINE
  5
109
100
AcDbEntity
  8
Layer_1
 62
7
100
AcDbSpline
 70
8
 71
3
 72
8
 73
4
 74
0
 40
0
 40
0
 40
0
 40
0
 40
1
 40
1
 40
1
 40
1
 10
121.972917
 20
179.485314
 30
0.0
 10
119.836128
 20
179.784419
 30
0.0
 10
116.947436
 20
179.933040
 30
0.0
 10
113.910291
 20
179.945576
 30
0.0
  0
SPLINE
  5
10a
100
AcDbEntity
  8
Layer_1
 62
7
100
AcDbSpline
 70
8
 71
3
 72
8
 73
4
 74
0
 40
0
 40
0
 40
0
 40
0
 40
1
 40
1
 40
1
 40
1
 10
113.986908
 20
177.837729
 30
0.0
 10
116.942289
 20
177.824986
 30
0.0
 10
119.740220
 20
177.674113
 30
0.0
 10
121.807551
 20
177.370298
 30
0.0
  0
SPLINE
  5
10b
100
AcDbEntity
  8
Layer_1
 62
7
100
AcDbSpline
 70
8
 71
3
 72
8
 73
4
 74
0
 40
0
 40
0
 40
0
 40
0
 40
1
 40
1
 40
1
 40
1
 10
121.807551
 20
177.370298
 30
0.0
 10
134.473027
 20
175.509000
 30
0.0
 10
144.272900
 20
170.130006
 30
0.0
 10
147.706952
 20
163.154457
 30
0.0
  0
SPLINE
  5
10c
100
AcDbEntity
  8
Layer_1
 62
7
100
AcDbSpline
 70
8
 71
3
 72
8
 73
4
 74
0
 40
0
 40
0
 40
0
 40
0
 40
1
 40
1
 40
1
 40
1
 10
147.706952
 20
163.154457
 30
0.0
 10
148.738912
 20
161.058246
 30
0.0
 10
148.877734
 20
160.438370
 30
0.0
 10
148.877734
 20
157.938308
 30
0.0
  0
SPLINE
  5
10d
100
AcDbEntity
  8
Layer_1
 62
7
100
AcDbSpline
 70
8
 71
3
 72
8
 73
4
 74
0
 40
0
 40
0
 40
0
 40
0
 40
1
 40
1
 40
1
 40
1
 10
148.877734
 20
157.938308
 30
0.0
 10
148.877734
 20
155.443463
 30
0.0
 10
148.737884
 20
154.817048
 30
0.0
 10
147.717425
 20
152.744205
 30
0.0
  0
SPLINE
  5
10e
100
AcDbEntity
  8
Layer_1
 62
7
100
AcDbSpline
 70
8
 71
3
 72
8
 73
4
 74
0
 40
0
 40
0
 40
0
 40
0
 40
1
 40
1
 40
1
 40
1
 10
147.717425
 20
152.744205
 30
0.0
 10
144.410690
 20
146.027274
 30
0.0
 10
135.433150
 20
140.864577
 30
0.0
 10
123.301345
 20
138.703099
 30
0.0
  0
SPLINE
  5
10f
100
AcDbEntity
  8
Layer_1
 62
7
100
AcDbSpline
 70
8
 71
3
 72
8
 73
4
 74
0
 40
0
 40
0
 40
0
 40
0
 40
1
 40
1
 40
1
 40
1
 10
123.301345
 20
138.703099
 30
0.0
 10
117.508028
 20
137.670928
 30
0.0
 10
107.601552
 20
137.741797
 30
0.0
 10
101.694810
 20
138.857438
 30
0.0
  0
SPLINE
  5
110
100
AcDbEntity
  8
Layer_1
 62
7
100
AcDbSpline
 70
8
 71
3
 72
8
 73
4
 74
0
 40
0
 40
0
 40
0
 40
0
 40
1
 40
1
 40
1
 40
1
 10
101.694810
 20
138.857438
 30
0.0
 10
87.176537
 20
141.599614
 30
0.0
 10
77.596151
 20
148.596162
 30
0.0
 10
76.832796
 20
157.014470
 30
0.0
  0
SPLINE
  5
111
100
AcDbEntity
  8
Layer_1
 62
7
100
AcDbSpline
 70
8
 71
3
 72
8
 73
4
 74
0
 40
0
 40
0
 40
0
 40
0
 40
1
 40
1
 40
1
 40
1
 10
76.832796
 20
157.014470
 30
0.0
 10
76.042545
 20
165.729444
 30
0.0
 10
85.429352
 20
173.568754
 30
0.0
 10
100.547178
 20
176.819084
 30
0.0
  0
SPLINE
  5
112
100
AcDbEntity
  8
Layer_1
 62
7
100
AcDbSpline
 70
8
 71
3
 72
8
 73
4
 74
0
 40
0
 40
0
 40
0
 40
0
 40
1
 40
1
 40
1
 40
1
 10
100.547178
 20
176.819084
 30
0.0
 10
103.697555
 20
177.496415
 30
0.0
 10
109.061275
 20
177.858969
 30
0.0
 10
113.986908
 20
177.837729
 30
0.0
  0
LWPOLYLINE
  5
113
100
AcDbEntity
  8
Layer_1
 62
7
100
AcDbPolyline
 90
2
 70
0
 10
113.910291
 20
179.945576
 30
0.0
 10
113.910291
 20
179.945576
 30
0.0
  0
SPLINE
  5
114
100
AcDbEntity
  8
Layer_1
 62
7
100
AcDbSpline
 70
8
 71
3
 72
8
 73
4
 74
0
 40
0
 40
0
 40
0
 40
0
 40
1
 40
1
 40
1
 40
1
 10
116.236970
 20
175.057400
 30
0.0
 10
116.176098
 20
175.059838
 30
0.0
 10
115.790461
 20
174.412756
 30
0.0
 10
115.340694
 20
173.548724
 30
0.0
  0
SPLINE
  5
115
100
AcDbEntity
  8
Layer_1
 62
7
100
AcDbSpline
 70
8
 71
3
 72
8
 73
4
 74
0
 40
0
 40
0
 40
0
 40
0
 40
1
 40
1
 40
1
 40
1
 10
115.340694
 20
173.548724
 30
0.0
 10
114.496850
 20
171.927646
 30
0.0
 10
114.417029
 20
171.873030
 30
0.0
 10
112.883377
 20
171.873030
 30
0.0
  0
SPLINE
  5
116
100
AcDbEntity
  8
Layer_1
 62
7
100
AcDbSpline
 70
8
 71
3
 72
8
 73
4
 74
0
 40
0
 40
0
 40
0
 40
0
 40
1
 40
1
 40
1
 40
1
 10
112.883377
 20
171.873030
 30
0.0
 10
111.353930
 20
171.873030
 30
0.0
 10
111.271010
 20
171.928975
 30
0.0
 10
110.526932
 20
173.460530
 30
0.0
  0
SPLINE
  5
117
100
AcDbEntity
  8
Layer_1
 62
7
100
AcDbSpline
 70
8
 71
3
 72
8
 73
4
 74
0
 40
0
 40
0
 40
0
 40
0
 40
1
 40
1
 40
1
 40
1
 10
110.526932
 20
173.460530
 30
0.0
 10
110.102723
 20
174.333655
 30
0.0
 10
109.646585
 20
175.048030
 30
0.0
 10
109.513799
 20
175.048030
 30
0.0
  0
SPLINE
  5
118
100
AcDbEntity
  8
Layer_1
 62
7
100
AcDbSpline
 70
8
 71
3
 72
8
 73
4
 74
0
 40
0
 40
0
 40
0
 40
0
 40
1
 40
1
 40
1
 40
1
 10
109.513799
 20
175.048030
 30
0.0
 10
109.381013
 20
175.048030
 30
0.0
 10
109.210083
 20
173.487522
 30
0.0
 10
109.133459
 20
171.579784
 30
0.0
  0
SPLINE
  5
119
100
AcDbEntity
  8
Layer_1
 62
7
100
AcDbSpline
 70
8
 71
3
 72
8
 73
4
 74
0
 40
0
 40
0
 40
0
 40
0
 40
1
 40
1
 40
1
 40
1
 10
109.133459
 20
171.579784
 30
0.0
 10
109.019837
 20
168.751026
 30
0.0
 10
108.831219
 20
167.795379
 30
0.0
 10
108.113158
 20
166.400013
 30
0.0
  0
SPLINE
  5
11a
100
AcDbEntity
  8
Layer_1
 62
7
100
AcDbSpline
 70
8
 71
3
 72
8
 73
4
 74
0
 40
0
 40
0
 40
0
 40
0
 40
1
 40
1
 40
1
 40
1
 10
108.113158
 20
166.400013
 30
0.0
 10
107.093264
 20
164.418203
 30
0.0
 10
104.943241
 20
163.053585
 30
0.0
 10
102.840234
 20
163.053585
 30
0.0
  0
SPLINE
  5
11b
100
AcDbEntity
  8
Layer_1
 62
7
100
AcDbSpline
 70
8
 71
3
 72
8
 73
4
 74
0
 40
0
 40
0
 40
0
 40
0
 40
1
 40
1
 40
1
 40
1
 10
102.840234
 20
163.053585
 30
0.0
 10
101.119017
 20
163.053585
 30
0.0
 10
98.597336
 20
164.423430
 30
0.0
 10
97.797716
 20
165.792575
 30
0.0
  0
SPLINE
  5
11c
100
AcDbEntity
  8
Layer_1
 62
7
100
AcDbSpline
 70
8
 71
3
 72
8
 73
4
 74
0
 40
0
 40
0
 40
0
 40
0
 40
1
 40
1
 40
1
 40
1
 10
97.797716
 20
165.792575
 30
0.0
 10
96.824783
 20
167.458468
 30
0.0
 10
96.929863
 20
170.094338
 30
0.0
 10
98.049072
 20
172.096824
 30
0.0
  0
SPLINE
  5
11d
100
AcDbEntity
  8
Layer_1
 62
7
100
AcDbSpline
 70
8
 71
3
 72
8
 73
4
 74
0
 40
0
 40
0
 40
0
 40
0
 40
1
 40
1
 40
1
 40
1
 10
98.049072
 20
172.096824
 30
0.0
 10
98.555576
 20
173.003050
 30
0.0
 10
98.912573
 20
173.801971
 30
0.0
 10
98.842271
 20
173.872286
 30
0.0
  0
SPLINE
  5
11e
100
AcDbEntity
  8
Layer_1
 62
7
100
AcDbSpline
 70
8
 71
3
 72
8
 73
4
 74
0
 40
0
 40
0
 40
0
 40
0
 40
1
 40
1
 40
1
 40
1
 10
98.842271
 20
173.872286
 30
0.0
 10
98.771941
 20
173.942602
 30
0.0
 10
97.618900
 20
173.663487
 30
0.0
 10
96.279671
 20
173.252171
 30
0.0
  0
SPLINE
  5
11f
100
AcDbEntity
  8
Layer_1
 62
7
100
AcDbSpline
 70
8
 71
3
 72
8
 73
4
 74
0
 40
0
 40
0
 40
0
 40
0
 40
1
 40
1
 40
1
 40
1
 10
96.279671
 20
173.252171
 30
0.0
 10
76.828633
 20
167.278116
 30
0.0
 10
73.430646
 20
153.893950
 30
0.0
 10
89.170095
 20
145.247127
 30
0.0
  0
SPLINE
  5
120
100
AcDbEntity
  8
Layer_1
 62
7
100
AcDbSpline
 70
8
 71
3
 72
8
 73
4
 74
0
 40
0
 40
0
 40
0
 40
0
 40
1
 40
1
 40
1
 40
1
 10
89.170095
 20
145.247127
 30
0.0
 10
90.479776
 20
144.527621
 30
0.0
 10
91.551345
 20
144.015786
 30
0.0
 10
91.551345
 20
144.109419
 30
0.0
  0
SPLINE
  5
121
100
AcDbEntity
  8
Layer_1
 62
7
100
AcDbSpline
 70
8
 71
3
 72
8
 73
4
 74
0
 40
0
 40
0
 40
0
 40
0
 40
1
 40
1
 40
1
 40
1
 10
91.551345
 20
144.109419
 30
0.0
 10
91.551345
 20
144.203049
 30
0.0
 10
91.237300
 20
144.971275
 30
0.0
 10
90.853508
 20
145.817083
 30
0.0
  0
SPLINE
  5
122
100
AcDbEntity
  8
Layer_1
 62
7
100
AcDbSpline
 70
8
 71
3
 72
8
 73
4
 74
0
 40
0
 40
0
 40
0
 40
0
 40
1
 40
1
 40
1
 40
1
 10
90.853508
 20
145.817083
 30
0.0
 10
90.058768
 20
147.568580
 30
0.0
 10
89.942306
 20
150.239655
 30
0.0
 10
90.621445
 20
151.133555
 30
0.0
  0
SPLINE
  5
123
100
AcDbEntity
  8
Layer_1
 62
7
100
AcDbSpline
 70
8
 71
3
 72
8
 73
4
 74
0
 40
0
 40
0
 40
0
 40
0
 40
1
 40
1
 40
1
 40
1
 10
90.621445
 20
151.133555
 30
0.0
 10
92.190573
 20
153.198876
 30
0.0
 10
95.821644
 20
152.618038
 30
0.0
 10
98.937631
 20
149.802922
 30
0.0
  0
LWPOLYLINE
  5
124
100
AcDbEntity
  8
Layer_1
 62
7
100
AcDbPolyline
 90
2
 70
0
 10
113.986908
 20
177.837729
 30
0.0
 10
113.986908
 20
177.837729
 30
0.0
  0
SPLINE
  5
125
100
AcDbEntity
  8
Layer_1
 62
7
100
AcDbSpline
 70
8
 71
3
 72
8
 73
4
 74
0
 40
0
 40
0
 40
0
 40
0
 40
1
 40
1
 40
1
 40
1
 10
101.227930
 20
149.823315
 30
0.0
 10
103.700140
 20
153.064564
 30
0.0
 10
106.859146
 20
152.804367
 30
0.0
 10
109.488441
 20
149.143117
 30
0.0
  0
SPLINE
  5
126
100
AcDbEntity
  8
Layer_1
 62
7
100
AcDbSpline
 70
8
 71
3
 72
8
 73
4
 74
0
 40
0
 40
0
 40
0
 40
0
 40
1
 40
1
 40
1
 40
1
 10
109.488441
 20
149.143117
 30
0.0
 10
110.514291
 20
147.714644
 30
0.0
 10
111.858541
 20
145.044966
 30
0.0
 10
112.520126
 20
143.123295
 30
0.0
  0
SPLINE
  5
127
100
AcDbEntity
  8
Layer_1
 62
7
100
AcDbSpline
 70
8
 71
3
 72
8
 73
4
 74
0
 40
0
 40
0
 40
0
 40
0
 40
1
 40
1
 40
1
 40
1
 10
112.520126
 20
143.123295
 30
0.0
 10
112.712856
 20
142.563563
 30
0.0
 10
113.045423
 20
143.021054
 30
0.0
 10
114.141800
 20
145.353511
 30
0.0
  0
SPLINE
  5
128
100
AcDbEntity
  8
Layer_1
 62
7
100
AcDbSpline
 70
8
 71
3
 72
8
 73
4
 74
0
 40
0
 40
0
 40
0
 40
0
 40
1
 40
1
 40
1
 40
1
 10
114.141800
 20
145.353511
 30
0.0
 10
116.356680
 20
150.065634
 30
0.0
 10
118.348588
 20
152.117474
 30
0.0
 10
120.707325
 20
152.117474
 30
0.0
  0
SPLINE
  5
129
100
AcDbEntity
  8
Layer_1
 62
7
100
AcDbSpline
 70
8
 71
3
 72
8
 73
4
 74
0
 40
0
 40
0
 40
0
 40
0
 40
1
 40
1
 40
1
 40
1
 10
120.707325
 20
152.117474
 30
0.0
 10
121.870405
 20
152.117474
 30
0.0
 10
124.074744
 20
150.664196
 30
0.0
 10
124.709149
 20
149.478807
 30
0.0
  0
LWPOLYLINE
  5
12a
100
AcDbEntity
  8
Layer_1
 62
7
100
AcDbPolyline
 90
3
 70
0
 10
98.937631
 20
149.802922
 30
0.0
 10
100.284249
 20
148.585839
 30
0.0
 10
101.227930
 20
149.823315
 30
0.0
  0
SPLINE
  5
12b
100
AcDbEntity
  8
Layer_1
 62
7
100
AcDbSpline
 70
8
 71
3
 72
8
 73
4
 74
0
 40
0
 40
0
 40
0
 40
0
 40
1
 40
1
 40
1
 40
1
 10
126.615252
 20
149.797960
 30
0.0
 10
128.776767
 20
151.548037
 30
0.0
 10
130.340667
 20
152.234424
 30
0.0
 10
132.239300
 20
152.265751
 30
0.0
  0
SPLINE
  5
12c
100
AcDbEntity
  8
Layer_1
 62
7
100
AcDbSpline
 70
8
 71
3
 72
8
 73
4
 74
0
 40
0
 40
0
 40
0
 40
0
 40
1
 40
1
 40
1
 40
1
 10
132.239300
 20
152.265751
 30
0.0
 10
133.706266
 20
152.289957
 30
0.0
 10
134.069681
 20
152.149126
 30
0.0
 10
134.835525
 20
151.259231
 30
0.0
  0
SPLINE
  5
12d
100
AcDbEntity
  8
Layer_1
 62
7
100
AcDbSpline
 70
8
 71
3
 72
8
 73
4
 74
0
 40
0
 40
0
 40
0
 40
0
 40
1
 40
1
 40
1
 40
1
 10
134.835525
 20
151.259231
 30
0.0
 10
135.586546
 20
150.386552
 30
0.0
 10
135.701109
 20
149.964201
 30
0.0
 10
135.566438
 20
148.562688
 30
0.0
  0
SPLINE
  5
12e
100
AcDbEntity
  8
Layer_1
 62
7
100
AcDbSpline
 70
8
 71
3
 72
8
 73
4
 74
0
 40
0
 40
0
 40
0
 40
0
 40
1
 40
1
 40
1
 40
1
 10
135.566438
 20
148.562688
 30
0.0
 10
135.478613
 20
147.648675
 30
0.0
 10
135.084177
 20
146.248869
 30
0.0
 10
134.690005
 20
145.452178
 30
0.0
  0
SPLINE
  5
12f
100
AcDbEntity
  8
Layer_1
 62
7
100
AcDbSpline
 70
8
 71
3
 72
8
 73
4
 74
0
 40
0
 40
0
 40
0
 40
0
 40
1
 40
1
 40
1
 40
1
 10
134.690005
 20
145.452178
 30
0.0
 10
134.295834
 20
144.655482
 30
0.0
 10
134.087167
 20
144.003585
 30
0.0
 10
134.225882
 20
144.003585
 30
0.0
  0
SPLINE
  5
130
100
AcDbEntity
  8
Layer_1
 62
7
100
AcDbSpline
 70
8
 71
3
 72
8
 73
4
 74
0
 40
0
 40
0
 40
0
 40
0
 40
1
 40
1
 40
1
 40
1
 10
134.225882
 20
144.003585
 30
0.0
 10
135.016395
 20
144.003585
 30
0.0
 10
140.717707
 20
147.864366
 30
0.0
 10
142.453871
 20
149.575270
 30
0.0
  0
SPLINE
  5
131
100
AcDbEntity
  8
Layer_1
 62
7
100
AcDbSpline
 70
8
 71
3
 72
8
 73
4
 74
0
 40
0
 40
0
 40
0
 40
0
 40
1
 40
1
 40
1
 40
1
 10
142.453871
 20
149.575270
 30
0.0
 10
145.244216
 20
152.325021
 30
0.0
 10
146.383762
 20
154.740984
 30
0.0
 10
146.397816
 20
157.938308
 30
0.0
  0
SPLINE
  5
132
100
AcDbEntity
  8
Layer_1
 62
7
100
AcDbSpline
 70
8
 71
3
 72
8
 73
4
 74
0
 40
0
 40
0
 40
0
 40
0
 40
1
 40
1
 40
1
 40
1
 10
146.397816
 20
157.938308
 30
0.0
 10
146.406582
 20
159.932052
 30
0.0
 10
146.222014
 20
160.788312
 30
0.0
 10
145.439254
 20
162.382204
 30
0.0
  0
SPLINE
  5
133
100
AcDbEntity
  8
Layer_1
 62
7
100
AcDbSpline
 70
8
 71
3
 72
8
 73
4
 74
0
 40
0
 40
0
 40
0
 40
0
 40
1
 40
1
 40
1
 40
1
 10
145.439254
 20
162.382204
 30
0.0
 10
144.238729
 20
164.826754
 30
0.0
 10
141.230835
 20
167.742403
 30
0.0
 10
137.941623
 20
169.650530
 30
0.0
  0
SPLINE
  5
134
100
AcDbEntity
  8
Layer_1
 62
7
100
AcDbSpline
 70
8
 71
3
 72
8
 73
4
 74
0
 40
0
 40
0
 40
0
 40
0
 40
1
 40
1
 40
1
 40
1
 10
137.941623
 20
169.650530
 30
0.0
 10
135.468112
 20
171.085458
 30
0.0
 10
129.852886
 20
173.335107
 30
0.0
 10
127.534678
 20
173.819923
 30
0.0
  0
SPLINE
  5
135
100
AcDbEntity
  8
Layer_1
 62
7
100
AcDbSpline
 70
8
 71
3
 72
8
 73
4
 74
0
 40
0
 40
0
 40
0
 40
0
 40
1
 40
1
 40
1
 40
1
 10
127.534678
 20
173.819923
 30
0.0
 10
126.337655
 20
174.070263
 30
0.0
 10
126.318625
 20
174.057517
 30
0.0
 10
126.904090
 20
173.403755
 30
0.0
  0
SPLINE
  5
136
100
AcDbEntity
  8
Layer_1
 62
7
100
AcDbSpline
 70
8
 71
3
 72
8
 73
4
 74
0
 40
0
 40
0
 40
0
 40
0
 40
1
 40
1
 40
1
 40
1
 10
126.904090
 20
173.403755
 30
0.0
 10
128.515689
 20
171.604174
 30
0.0
 10
129.057885
 20
168.189869
 30
0.0
 10
128.062742
 20
166.105664
 30
0.0
  0
SPLINE
  5
137
100
AcDbEntity
  8
Layer_1
 62
7
100
AcDbSpline
 70
8
 71
3
 72
8
 73
4
 74
0
 40
0
 40
0
 40
0
 40
0
 40
1
 40
1
 40
1
 40
1
 10
128.062742
 20
166.105664
 30
0.0
 10
126.801970
 20
163.465133
 30
0.0
 10
122.963421
 20
162.361142
 30
0.0
 10
120.126345
 20
163.823081
 30
0.0
  0
SPLINE
  5
138
100
AcDbEntity
  8
Layer_1
 62
7
100
AcDbSpline
 70
8
 71
3
 72
8
 73
4
 74
0
 40
0
 40
0
 40
0
 40
0
 40
1
 40
1
 40
1
 40
1
 10
120.126345
 20
163.823081
 30
0.0
 10
117.784750
 20
165.029700
 30
0.0
 10
116.946508
 20
166.789680
 30
0.0
 10
116.574313
 20
171.279923
 30
0.0
  0
SPLINE
  5
139
100
AcDbEntity
  8
Layer_1
 62
7
100
AcDbSpline
 70
8
 71
3
 72
8
 73
4
 74
0
 40
0
 40
0
 40
0
 40
0
 40
1
 40
1
 40
1
 40
1
 10
116.574313
 20
171.279923
 30
0.0
 10
116.410568
 20
173.255515
 30
0.0
 10
116.262737
 20
174.951016
 30
0.0
 10
116.245239
 20
175.048030
 30
0.0
  0
SPLINE
  5
13a
100
AcDbEntity
  8
Layer_1
 62
7
100
AcDbSpline
 70
8
 71
3
 72
8
 73
4
 74
0
 40
0
 40
0
 40
0
 40
0
 40
1
 40
1
 40
1
 40
1
 10
116.245239
 20
175.048030
 30
0.0
 10
116.244144
 20
175.054092
 30
0.0
 10
116.241028
 20
175.057239
 30
0.0
 10
116.236970
 20
175.057400
 30
0.0
  0
LWPOLYLINE
  5
13b
100
AcDbEntity
  8
Layer_1
 62
7
100
AcDbPolyline
 90
3
 70
0
 10
124.709149
 20
149.478807
 30
0.0
 10
125.166106
 20
148.624974
 30
0.0
 10
126.615252
 20
149.797960
 30
0.0
  0
LWPOLYLINE
  5
13c
100
AcDbEntity
  8
Layer_1
 62
7
100
AcDbPolyline
 90
2
 70
0
 10
116.236970
 20
175.057400
 30
0.0
 10
116.236970
 20
175.057400
 30
0.0
  0
ENDSEC
  0
SECTION
  2
OBJECTS
  0
DICTIONARY
  5
C
330
0
100
AcDbDictionary
  3
ACAD_GROUP
350
D
  3
ACAD_MLINESTYLE
350
17
  0
DICTIONARY
  5
D
330
C
100
AcDbDictionary
  0
DICTIONARY
  5
1A
330
C
100
AcDbDictionary
  0
DICTIONARY
  5
17
330
C
100
AcDbDictionary
  3
STANDARD
350
18
  0
DICTIONARY
  5
19
330
C
100
AcDbDictionary
  0
ENDSEC
  0
EOF
