<?xml version="1.0" encoding="UTF-8" standalone="no"?>
<!-- Created with Inkscape (http://www.inkscape.org/) -->

<svg
   xmlns:dc="http://purl.org/dc/elements/1.1/"
   xmlns:cc="http://creativecommons.org/ns#"
   xmlns:rdf="http://www.w3.org/1999/02/22-rdf-syntax-ns#"
   xmlns:svg="http://www.w3.org/2000/svg"
   xmlns="http://www.w3.org/2000/svg"
   xmlns:sodipodi="http://sodipodi.sourceforge.net/DTD/sodipodi-0.dtd"
   xmlns:inkscape="http://www.inkscape.org/namespaces/inkscape"
   width="210mm"
   height="297mm"
   viewBox="0 0 744.09448819 1052.3622047"
   id="svg2"
   version="1.1"
   inkscape:version="0.91 r13725"
   sodipodi:docname="car.svg">
  <sodipodi:namedview
     id="base"
     pagecolor="#ffffff"
     bordercolor="#666666"
     borderopacity="1.0"
     inkscape:pageopacity="0.0"
     inkscape:pageshadow="2"
     inkscape:zoom="3.959798"
     inkscape:cx="355.79977"
     inkscape:cy="407.93134"
     inkscape:document-units="px"
     inkscape:current-layer="layer1"
     showgrid="false"
     inkscape:window-width="1360"
     inkscape:window-height="746"
     inkscape:window-x="1432"
     inkscape:window-y="-8"
     inkscape:window-maximized="1" />
  <defs
     id="defs4" />
  <metadata
     id="metadata7">
    <rdf:RDF>
      <cc:Work
         rdf:about="">
        <dc:format>image/svg+xml</dc:format>
        <dc:type
           rdf:resource="http://purl.org/dc/dcmitype/StillImage" />
        <dc:title></dc:title>
      </cc:Work>
    </rdf:RDF>
  </metadata>
  <g
     id="layer1"
     inkscape:groupmode="layer"
     inkscape:label="Layer 1">
    <path
       id="path4147"
       d="m 292.08611,591.16998 -0.91924,0.65581 -0.59027,0.46607 -0.46619,0.49516 -0.35618,0.57546 -0.2602,0.70697 -0.17828,0.8897 -0.11041,1.12364 -0.0734,3.15398 -0.0263,3.07065 -0.11779,1.72926 -0.11447,0.49905 -0.16286,0.32862 -0.21977,0.21317 -0.28517,0.15269 -0.27032,0.182 -0.24394,0.28665 -0.34735,0.79743 -0.17482,0.563 -0.27578,0.33637 -0.53136,0.21542 -0.94158,0.20013 -1.2265,0.26712 -0.59332,0.19442 0.0286,0.8691 0.26889,1.88972 0.61081,4.22849 0.19727,1.18532 0.23464,0.5873 0.18451,0.30888 0.0767,0.51597 0.0412,0.32874 0.14047,0.23492 0.26519,0.16629 0.41533,0.12288 0.61886,0.208 0.33135,0.31452 0.0659,0.46417 -0.17754,0.65697 -0.10295,0.37009 -0.003,0.28409 0.0854,0.19492 0.16256,0.10256 0.22837,0.007 0.28285,-0.0917 0.68375,-0.49218 0.40848,-0.35907 0.29995,-0.16653 0.2576,0.007 0.28139,0.1618 0.34902,0.41236 0.14874,0.48163 0.17888,0.83311 0.46541,1.05138 0.66846,1.11055 0.78805,1.01064 0.93842,0.92513 0.9944,0.7541 1.06947,0.59556 1.16365,0.44945 1.38396,0.28204 1.58159,0.0876 1.56644,-0.10558 1.33851,-0.29753 0.86208,-0.41125 0.89495,-0.6312 0.88243,-0.79629 0.82452,-0.9065 0.72121,-0.96184 0.57252,-0.96231 0.37842,-0.90791 0.13893,-0.79865 0.0347,-0.15162 0.14275,-0.11695 0.85227,-0.14772 5.67054,-0.0754 9.84679,0.0612 9.85724,0.15254 7.56124,0.19758 2.19883,0.10118 0.75991,0.0951 0.0889,0.0914 0.34967,0.0749 1.25885,0.0692 1.46551,0.0863 0.29343,0.12933 0.0839,0.20584 0.0424,0.18556 0.13313,0.12848 0.57506,0.0843 1.04755,-0.14836 1.59294,-0.38387 1.60074,-0.38861 1.03281,-0.15004 0.55418,0.0848 0.12553,0.12936 0.0394,0.1867 0.22899,0.84219 0.57368,1.1295 0.74845,1.12683 0.75328,0.83418 1.33492,0.94198 1.49326,0.69253 1.68098,0.4537 1.89807,0.22552 1.39184,0.0578 0.91896,-0.0573 0.74591,-0.22287 0.87269,-0.43899 1.1718,-0.77095 1.0223,-0.94361 0.86106,-1.09136 0.68807,-1.21423 0.50335,-1.3122 0.30688,-1.38527 0.0987,-1.43346 -0.12126,-1.45674 -0.30076,-1.3949 -0.41833,-1.14977 -0.54694,-0.92852 -0.6866,-0.73116 -0.74856,-0.63057 0.9132,-0.002 0.47231,-0.0254 0.27729,-0.0989 0.13079,-0.20907 0.0328,-0.35592 -0.0477,-0.2903 -0.14296,-0.30299 -0.57046,-0.64303 -0.94792,-0.69069 -1.32306,-0.73631 -0.79266,-0.50443 -0.54193,-0.60496 -0.3108,-0.73626 -0.0992,-0.89835 -0.0258,-0.39645 -0.1366,-0.19376 -0.3364,-0.0338 -0.62518,0.0834 -1.12395,0.18001 0,-1.07839 -0.0377,-0.53581 -0.12133,-0.4477 -0.21744,-0.39046 -0.32602,-0.36408 -0.50412,-0.68458 -0.14592,-0.37359 -0.0524,-0.34895 -0.0389,-0.54882 -0.12564,-0.32679 -0.22585,-0.12196 -0.33952,0.0657 -0.15952,0.13196 -0.12457,0.2461 -0.10995,0.73765 0,0.96479 -3.30158,-0.16135 -12.46263,-0.74514 -4.03568,-0.33851 -1.58572,-0.24335 -0.16437,-0.0908 -0.32057,-0.0446 -0.94742,0.058 -1.26059,0.18879 -0.19263,-2.97724 -0.0715,-1.97804 0.11171,-1.26 0.13326,-0.39933 0.18951,-0.26613 0.24925,-0.14836 0.31247,-0.046 0.45819,-0.11147 0.37433,-0.26775 0.11339,-0.31785 -0.15915,-0.32719 -0.40883,-0.32702 -0.63567,-0.31731 -1.86038,-0.56737 -2.49344,-0.41419 -6.04118,-0.70466 -2.94968,-0.28331 -3.63057,-0.17829 -13.3697,-0.17061 -15.31369,-0.0873 0,0 m 12.25798,3.28017 2.51059,0.0708 0.67863,0.0796 0.32255,0.11023 0.22454,0.46859 0.1255,0.85837 -0.0111,2.3603 -0.30212,2.34198 -0.23831,0.83547 -0.2848,0.43651 -0.57722,0.10379 -1.21523,0.0725 -3.51217,0.0527 -3.56721,-0.0674 -1.28406,-0.0777 -0.67356,-0.1064 -0.2674,-0.17825 -0.26649,-0.30222 -0.42816,-0.83665 -0.25756,-1.2771 -0.0737,-1.51968 0.10658,-1.4502 0.28344,-1.06868 0.3902,-0.81497 5.72068,-0.0763 2.59637,-0.0154 0,0 m 11.21032,0.20031 3.51118,0.087 1.1993,0.12147 0.53549,0.17456 0.10799,0.43129 0.0618,0.80169 6.9e-4,2.21556 -0.13753,2.20012 -0.11094,0.78238 -0.13389,0.40426 -0.55723,0.18341 -1.18665,0.13386 -3.42217,0.11602 -3.42165,-0.0913 -1.18601,-0.12528 -0.55633,-0.1794 -0.30053,-0.64879 -0.29986,-1.05029 -0.12947,-1.32516 0.0793,-1.53362 0.24814,-1.38705 0.17497,-0.52761 0.20225,-0.35783 0.56849,-0.17898 1.22278,-0.13117 3.52989,-0.11517 0,0 m 13.91315,0.31282 5.14829,0 0.3205,1.54596 0.15283,1.31023 -0.01,1.48653 -0.15912,1.44025 -0.29589,1.17141 -0.2237,0.36169 -0.63592,0.18812 -1.51965,0.0713 -2.87493,0.0112 -3.59899,-0.0552 -1.60638,-0.13248 -0.134,-1.10034 -0.0491,-2.23781 0.0383,-2.30734 0.12829,-1.3089 0.0888,-0.12903 0.18054,-0.10196 0.78198,-0.13486 4.26762,-0.0787 0,0 m -42.08795,22.20221 0.22791,0.0522 0.10482,0.1702 -0.0164,0.29801 -0.13576,0.43561 -0.24075,0.32338 -0.3308,0.10658 -0.33096,-0.10977 -0.24119,-0.32568 -0.0138,-0.33947 0.18839,-0.30355 0.34185,-0.21967 0.44665,-0.0878 0,0"
       style="fill:none;stroke:#ff0000;stroke-width:0.28098515"
       inkscape:connector-curvature="0" />
  </g>
</svg>
