<?xml version="1.0" encoding="UTF-8" standalone="no"?>
<!-- Created with Inkscape (http://www.inkscape.org/) -->

<svg
   xmlns:dc="http://purl.org/dc/elements/1.1/"
   xmlns:cc="http://creativecommons.org/ns#"
   xmlns:rdf="http://www.w3.org/1999/02/22-rdf-syntax-ns#"
   xmlns:svg="http://www.w3.org/2000/svg"
   xmlns="http://www.w3.org/2000/svg"
   xmlns:sodipodi="http://sodipodi.sourceforge.net/DTD/sodipodi-0.dtd"
   xmlns:inkscape="http://www.inkscape.org/namespaces/inkscape"
   width="210mm"
   height="297mm"
   viewBox="0 0 744.09448819 1052.3622047"
   id="svg2"
   version="1.1"
   inkscape:version="0.91 r13725"
   sodipodi:docname="elefant.svg">
  <sodipodi:namedview
     id="base"
     pagecolor="#ffffff"
     bordercolor="#666666"
     borderopacity="1.0"
     inkscape:pageopacity="0.0"
     inkscape:pageshadow="2"
     inkscape:zoom="0.98994949"
     inkscape:cx="385.85173"
     inkscape:cy="694.48904"
     inkscape:document-units="px"
     inkscape:current-layer="layer1"
     showgrid="false"
     inkscape:window-width="1360"
     inkscape:window-height="746"
     inkscape:window-x="1432"
     inkscape:window-y="-8"
     inkscape:window-maximized="1" />
  <defs
     id="defs4" />
  <metadata
     id="metadata7">
    <rdf:RDF>
      <cc:Work
         rdf:about="">
        <dc:format>image/svg+xml</dc:format>
        <dc:type
           rdf:resource="http://purl.org/dc/dcmitype/StillImage" />
        <dc:title></dc:title>
      </cc:Work>
    </rdf:RDF>
  </metadata>
  <g
     id="layer1"
     inkscape:groupmode="layer"
     inkscape:label="Layer 1">
    <path
       inkscape:connector-curvature="0"
       id="path4147"
       d="m 470.71183,263.80886 -0.22955,-4.28989 -0.0955,-9.85759 0,-13.82245 -0.97955,1.2453 -1.76035,1.57087 -2.14062,0.88327 -2.28574,0.14122 -2.19569,-0.65524 -1.20618,-1.07782 -0.93075,-1.68024 -0.53168,-1.97365 -0.009,-1.95811 0.56163,-1.53822 1.04336,-1.39745 1.2916,-1.0154 1.30637,-0.39208 1.59631,0.49201 1.4668,1.26828 1.07351,1.73293 0.41645,1.88594 -0.16048,0.72752 -0.43104,0.64213 -1.37131,0.91101 -1.5462,0.21825 -0.64967,-0.22383 -0.46656,-0.48481 -0.0816,-0.80984 0.99646,-0.825 0.90066,-0.63498 0.38786,-0.55381 -0.0994,-0.57246 -0.56109,-0.69092 -0.96178,-0.65347 -0.87501,-0.0587 -0.73683,0.42449 -0.54726,0.79613 -0.30628,1.05622 -0.0139,1.20473 0.3299,1.2417 0.7251,1.1671 1.08367,0.88069 1.25813,0.37231 1.36692,-0.14185 1.41001,-0.66176 1.25853,-1.30576 1.15585,-2.10287 0.96194,-2.69333 0.67677,-3.07712 0.71436,-3.21552 1.08131,-2.91729 1.44389,-2.61427 1.80207,-2.3065 2.15587,-1.99396 2.50528,-1.67665 2.85032,-1.35458 3.19095,-1.02775 3.77183,-0.5393 5.74361,-0.17858 6.71978,0 -1.20194,1.75899 -1.23847,2.30093 -0.96502,2.78303 -0.62665,3.02801 -0.22331,3.0359 0.34229,3.90372 0.98845,3.62633 1.57693,3.28401 2.10775,2.87673 2.58092,2.40449 2.99642,1.86732 3.35426,1.2652 3.65443,0.59811 2.65728,-0.023 2.62339,-0.3617 2.30569,-0.64253 1.7042,-0.86553 0.2769,-0.30616 -0.37624,-0.12802 -3.41863,0.23918 -5.20472,0.1317 -2.25622,-0.27614 -2.06704,-0.51759 -1.90905,-0.76914 -1.78224,-1.03076 -1.68662,-1.3025 -1.62219,-1.58432 -2.20655,-2.75746 -1.44186,-2.79351 -0.78561,-3.11726 -0.23777,-3.72875 0.23441,-3.64798 0.75602,-3.08648 1.35678,-2.74343 2.0367,-2.61883 2.41357,-2.21628 2.65399,-1.67696 2.82392,-1.13052 2.92334,-0.57695 2.95226,-0.0163 2.91066,0.55152 2.79855,1.12644 2.61595,1.70847 0.9959,0.71698 0.94191,0.39879 3.00049,0.178 2.0697,0.11643 1.93783,0.41634 1.80847,0.71809 1.68162,1.02166 1.5573,1.32705 1.43549,1.63426 1.31619,1.9433 1.1994,2.25416 1.48436,3.13315 0.23453,12.47671 0.32636,10.20867 0.25113,2.18909 0.36064,0.97054 1.38937,1.30709 1.92959,0.28092 1.37094,-0.22308 1.17134,-0.73449 1.05689,-1.32458 1.02757,-1.99337 0.89971,-1.81477 0.80274,-0.90223 0.93494,-0.12519 1.29632,0.51635 2.89497,1.17213 0.82659,0.30877 0.33908,0.32868 -2.25339,4.79735 -2.08532,3.64998 -1.72994,1.86252 -1.84424,0.99452 -1.97511,0.61941 -2.04446,0.25282 -2.05228,-0.10527 -1.99855,-0.45485 -1.8833,-0.79591 -1.70651,-1.12848 -1.46818,-1.45253 -1.28166,-1.89698 -0.93828,-2.21001 -0.63122,-2.63513 -0.36047,-3.17232 -0.33992,-2.98383 -0.23103,-0.58724 -0.29725,-0.0917 -2.30307,0.55026 -1.70042,0.319 0.20929,9.91064 0.53727,11.59678 0.32797,1.68617 -3.88152,0.29932 -4.07278,0.10807 -0.45291,-7.7315 -0.36728,-6.59324 -0.35613,-0.82752 -0.64086,-0.11951 -0.63346,0.0903 -0.32778,0.59771 -0.14136,4.67853 0.13385,3.9179 0.33521,1.73854 0.33128,0.72813 0.13778,1.34352 0,1.78175 -2.88318,0.30135 -6.80141,0.30136 -3.91824,0 0,-7.73954 0,-7.73955 -9.4176,0 -9.41762,0 0.23771,6.21509 0.38815,7.62228 0.15042,1.40719 -3.93763,0 -3.93765,0 -0.17265,-1.64172 -0.43945,-7.62228 -0.37749,-5.21749 -0.36676,-0.66381 -0.65695,-0.0993 -0.65259,0.0805 -0.33713,0.53849 -0.14468,4.23415 0.17065,4.06884 0.56462,2.25815 0.47554,1.42142 0.1108,1.34776 -0.14895,1.2953 -6.59365,0.12959 -4.75224,-0.004 -2.16644,-0.19147 0,0 m 69.56539,-34.1539 -0.35044,-1.93307 -0.4273,-0.4992 -0.58583,-0.16944 -1.15403,0.38165 -0.63537,0.95423 -0.03,1.24073 0.66214,1.24113 0.8137,0.49604 0.81988,-0.0993 0.63329,-0.60169 0.25394,-1.01106 0,0"
       style="fill:none;stroke:#ff0000;stroke-width:0.83662581" />
  </g>
</svg>
