  0
SECTION
  2
HEADER
  9
$ACADVER
  1
AC1014
  9
$HANDSEED
  5
FFFF
  9
$MEASUREMENT
 70
     1
  0
ENDSEC
  0
SECTION
  2
TABLES
  0
TABLE
  2
VPORT
  5
8
330
0
100
AcDbSymbolTable
 70
     4
  0
VPORT
  5
2E
330
8
100
AcDbSymbolTableRecord
100
AcDbViewportTableRecord
  2
*ACTIVE
 70
     0
 10
0.0
 20
0.0
 11
1.0
 21
1.0
 12
210.0
 22
148.5
 13
0.0
 23
0.0
 14
10.0
 24
10.0
 15
10.0
 25
10.0
 16
0.0
 26
0.0
 36
1.0
 17
0.0
 27
0.0
 37
0.0
 40
341.0
 41
1.24
 42
50.0
 43
0.0
 44
0.0
 50
0.0
 51
0.0
 71
     0
 72
   100
 73
     1
 74
     3
 75
     0
 76
     0
 77
     0
 78
     0
  0
ENDTAB
  0
TABLE
  2
LTYPE
  5
5
330
0
100
AcDbSymbolTable
 70
     1
  0
LTYPE
  5
14
330
5
100
AcDbSymbolTableRecord
100
AcDbLinetypeTableRecord
  2
BYBLOCK
 70
     0
  3

 72
    65
 73
     0
 40
0.0
  0
LTYPE
  5
15
330
5
100
AcDbSymbolTableRecord
100
AcDbLinetypeTableRecord
  2
BYLAYER
 70
     0
  3

 72
    65
 73
     0
 40
0.0
  0
LTYPE
  5
16
330
5
100
AcDbSymbolTableRecord
100
AcDbLinetypeTableRecord
  2
CONTINUOUS
 70
     0
  3
Solid line
 72
    65
 73
     0
 40
0.0
  0
ENDTAB
  0
TABLE
  2
LAYER
  5
2
100
AcDbSymbolTable
 70
2
  0
LAYER
  5
50
100
AcDbSymbolTableRecord
100
AcDbLayerTableRecord
  2
0
 70
0
  6
CONTINUOUS
  0
LAYER
  5
51
100
AcDbSymbolTableRecord
100
AcDbLayerTableRecord
  2
Layer_1
 70
0
  6
CONTINUOUS
  0
ENDTAB
  0
TABLE
  2
STYLE
  5
3
330
0
100
AcDbSymbolTable
 70
     1
  0
STYLE
  5
11
330
3
100
AcDbSymbolTableRecord
100
AcDbTextStyleTableRecord
  2
STANDARD
 70
     0
 40
0.0
 41
1.0
 50
0.0
 71
     0
 42
2.5
  3
txt
  4

  0
ENDTAB
  0
TABLE
  2
VIEW
  5
6
330
0
100
AcDbSymbolTable
 70
     0
  0
ENDTAB
  0
TABLE
  2
UCS
  5
7
330
0
100
AcDbSymbolTable
 70
     0
  0
ENDTAB
  0
TABLE
  2
APPID
  5
9
330
0
100
AcDbSymbolTable
 70
     2
  0
APPID
  5
12
330
9
100
AcDbSymbolTableRecord
100
AcDbRegAppTableRecord
  2
ACAD
 70
     0
  0
ENDTAB
  0
TABLE
  2
DIMSTYLE
  5
A
330
0
100
AcDbSymbolTable
 70
     1
  0
DIMSTYLE
105
27
330
A
100
AcDbSymbolTableRecord
100
AcDbDimStyleTableRecord
  2
ISO-25
 70
     0
  3

  4

  5

  6

  7

 40
1.0
 41
2.5
 42
0.625
 43
3.75
 44
1.25
 45
0.0
 46
0.0
 47
0.0
 48
0.0
140
2.5
141
2.5
142
0.0
143
0.03937007874016
144
1.0
145
0.0
146
1.0
147
0.625
 71
     0
 72
     0
 73
     0
 74
     0
 75
     0
 76
     0
 77
     1
 78
     8
170
     0
171
     3
172
     1
173
     0
174
     0
175
     0
176
     0
177
     0
178
     0
270
     2
271
     2
272
     2
273
     2
274
     3
340
11
275
     0
280
     0
281
     0
282
     0
283
     0
284
     8
285
     0
286
     0
287
     3
288
     0
  0
ENDTAB
  0
TABLE
  2
BLOCK_RECORD
  5
1
330
0
100
AcDbSymbolTable
 70
     1
  0
BLOCK_RECORD
  5
1F
330
1
100
AcDbSymbolTableRecord
100
AcDbBlockTableRecord
  2
*MODEL_SPACE
  0
BLOCK_RECORD
  5
1B
330
1
100
AcDbSymbolTableRecord
100
AcDbBlockTableRecord
  2
*PAPER_SPACE
  0
ENDTAB
  0
ENDSEC
  0
SECTION
  2
BLOCKS
  0
BLOCK
  5
20
330
1F
100
AcDbEntity
  8
0
100
AcDbBlockBegin
  2
*MODEL_SPACE
 70
     0
 10
0.0
 20
0.0
 30
0.0
  3
*MODEL_SPACE
  1

  0
ENDBLK
  5
21
330
1F
100
AcDbEntity
  8
0
100
AcDbBlockEnd
  0
BLOCK
  5
1C
330
1B
100
AcDbEntity
 67
     1
  8
0
100
AcDbBlockBegin
  2
*PAPER_SPACE
  1

  0
ENDBLK
  5
1D
330
1B
100
AcDbEntity
 67
     1
  8
0
100
AcDbBlockEnd
  0
ENDSEC
  0
SECTION
  2
ENTITIES
  0
LWPOLYLINE
  5
100
100
AcDbEntity
  8
Layer_1
 62
1
100
AcDbPolyline
 90
198
 70
0
 10
132.845339
 20
222.547277
 30
0.0
 10
132.780555
 20
223.757980
 30
0.0
 10
132.753602
 20
226.540011
 30
0.0
 10
132.753602
 20
230.441013
 30
0.0
 10
132.477152
 20
230.089562
 30
0.0
 10
131.980342
 20
229.646227
 30
0.0
 10
131.376211
 20
229.396949
 30
0.0
 10
130.731125
 20
229.357093
 30
0.0
 10
130.111452
 20
229.542017
 30
0.0
 10
129.771041
 20
229.846202
 30
0.0
 10
129.508363
 20
230.320403
 30
0.0
 10
129.358311
 20
230.877410
 30
0.0
 10
129.355771
 20
231.430033
 30
0.0
 10
129.514275
 20
231.864153
 30
0.0
 10
129.808735
 20
232.258544
 30
0.0
 10
130.173253
 20
232.545112
 30
0.0
 10
130.541940
 20
232.655766
 30
0.0
 10
130.992454
 20
232.516910
 30
0.0
 10
131.406417
 20
232.158973
 30
0.0
 10
131.709386
 20
231.669902
 30
0.0
 10
131.826917
 20
231.137648
 30
0.0
 10
131.781626
 20
230.932325
 30
0.0
 10
131.659977
 20
230.751102
 30
0.0
 10
131.272963
 20
230.493995
 30
0.0
 10
130.836591
 20
230.432400
 30
0.0
 10
130.653240
 20
230.495569
 30
0.0
 10
130.521566
 20
230.632394
 30
0.0
 10
130.498537
 20
230.860948
 30
0.0
 10
130.779760
 20
231.093782
 30
0.0
 10
131.033946
 20
231.272987
 30
0.0
 10
131.143409
 20
231.429285
 30
0.0
 10
131.115356
 20
231.590846
 30
0.0
 10
130.957004
 20
231.785839
 30
0.0
 10
130.685568
 20
231.970262
 30
0.0
 10
130.438621
 20
231.986829
 30
0.0
 10
130.230671
 20
231.867028
 30
0.0
 10
130.076222
 20
231.642343
 30
0.0
 10
129.989783
 20
231.344254
 30
0.0
 10
129.985860
 20
231.004252
 30
0.0
 10
130.078965
 20
230.653817
 30
0.0
 10
130.283605
 20
230.324436
 30
0.0
 10
130.589441
 20
230.075885
 30
0.0
 10
130.944513
 20
229.970811
 30
0.0
 10
131.330288
 20
230.010844
 30
0.0
 10
131.728224
 20
230.197608
 30
0.0
 10
132.083409
 20
230.566122
 30
0.0
 10
132.409616
 20
231.159599
 30
0.0
 10
132.681097
 20
231.919716
 30
0.0
 10
132.872096
 20
232.788148
 30
0.0
 10
133.073704
 20
233.695639
 30
0.0
 10
133.378874
 20
234.518963
 30
0.0
 10
133.786372
 20
235.256768
 30
0.0
 10
134.294956
 20
235.907714
 30
0.0
 10
134.903391
 20
236.470454
 30
0.0
 10
135.610436
 20
236.943642
 30
0.0
 10
136.414860
 20
237.325934
 30
0.0
 10
137.315417
 20
237.615988
 30
0.0
 10
138.379911
 20
237.768191
 30
0.0
 10
140.000886
 20
237.818590
 30
0.0
 10
141.897357
 20
237.818590
 30
0.0
 10
141.558143
 20
237.322164
 30
0.0
 10
141.208619
 20
236.672790
 30
0.0
 10
140.936269
 20
235.887357
 30
0.0
 10
140.759414
 20
235.032786
 30
0.0
 10
140.696391
 20
234.175987
 30
0.0
 10
140.792993
 20
233.074271
 30
0.0
 10
141.071956
 20
232.050840
 30
0.0
 10
141.517000
 20
231.124019
 30
0.0
 10
142.111854
 20
230.312142
 30
0.0
 10
142.840247
 20
229.633541
 30
0.0
 10
143.685903
 20
229.106542
 30
0.0
 10
144.632550
 20
228.749475
 30
0.0
 10
145.663912
 20
228.580675
 30
0.0
 10
146.413855
 20
228.587166
 30
0.0
 10
147.154234
 20
228.689246
 30
0.0
 10
147.804951
 20
228.870582
 30
0.0
 10
148.285914
 20
229.114854
 30
0.0
 10
148.364061
 20
229.201259
 30
0.0
 10
148.257878
 20
229.237389
 30
0.0
 10
147.293065
 20
229.169887
 30
0.0
 10
145.824177
 20
229.132718
 30
0.0
 10
145.187422
 20
229.210651
 30
0.0
 10
144.604057
 20
229.356727
 30
0.0
 10
144.065281
 20
229.573795
 30
0.0
 10
143.562293
 20
229.864698
 30
0.0
 10
143.086291
 20
230.232293
 30
0.0
 10
142.628473
 20
230.679423
 30
0.0
 10
142.005736
 20
231.457640
 30
0.0
 10
141.598811
 20
232.246030
 30
0.0
 10
141.377094
 20
233.125790
 30
0.0
 10
141.309990
 20
234.178126
 30
0.0
 10
141.376146
 20
235.207667
 30
0.0
 10
141.589512
 20
236.078741
 30
0.0
 10
141.972425
 20
236.852998
 30
0.0
 10
142.547227
 20
237.592090
 30
0.0
 10
143.228390
 20
238.217573
 30
0.0
 10
143.977405
 20
238.690848
 30
0.0
 10
144.774378
 20
239.009906
 30
0.0
 10
145.599410
 20
239.172734
 30
0.0
 10
146.432603
 20
239.177335
 30
0.0
 10
147.254056
 20
239.021683
 30
0.0
 10
148.043869
 20
238.703777
 30
0.0
 10
148.782148
 20
238.221609
 30
0.0
 10
149.063213
 20
238.019261
 30
0.0
 10
149.329041
 20
237.906714
 30
0.0
 10
150.175846
 20
237.856478
 30
0.0
 10
150.759962
 20
237.823619
 30
0.0
 10
151.306860
 20
237.706119
 30
0.0
 10
151.817251
 20
237.503458
 30
0.0
 10
152.291841
 20
237.215123
 30
0.0
 10
152.731346
 20
236.840600
 30
0.0
 10
153.136473
 20
236.379375
 30
0.0
 10
153.507931
 20
235.830933
 30
0.0
 10
153.846428
 20
235.194759
 30
0.0
 10
154.265348
 20
234.310514
 30
0.0
 10
154.331537
 20
230.789309
 30
0.0
 10
154.423643
 20
227.908196
 30
0.0
 10
154.494518
 20
227.290386
 30
0.0
 10
154.596298
 20
227.016478
 30
0.0
 10
154.988410
 20
226.647588
 30
0.0
 10
155.532983
 20
226.568306
 30
0.0
 10
155.919892
 20
226.631264
 30
0.0
 10
156.250471
 20
226.838554
 30
0.0
 10
156.548749
 20
227.212380
 30
0.0
 10
156.838752
 20
227.774953
 30
0.0
 10
157.092670
 20
228.287121
 30
0.0
 10
157.319221
 20
228.541751
 30
0.0
 10
157.583082
 20
228.577082
 30
0.0
 10
157.948932
 20
228.431357
 30
0.0
 10
158.765957
 20
228.100555
 30
0.0
 10
158.999239
 20
228.013414
 30
0.0
 10
159.094935
 20
227.920653
 30
0.0
 10
158.458978
 20
226.566734
 30
0.0
 10
157.870454
 20
225.536629
 30
0.0
 10
157.382227
 20
225.010984
 30
0.0
 10
156.861741
 20
224.730309
 30
0.0
 10
156.304321
 20
224.555497
 30
0.0
 10
155.727329
 20
224.484146
 30
0.0
 10
155.148130
 20
224.513855
 30
0.0
 10
154.584095
 20
224.642224
 30
0.0
 10
154.052586
 20
224.866848
 30
0.0
 10
153.570971
 20
225.185330
 30
0.0
 10
153.156618
 20
225.595266
 30
0.0
 10
152.794905
 20
226.130636
 30
0.0
 10
152.530102
 20
226.754350
 30
0.0
 10
152.351957
 20
227.498042
 30
0.0
 10
152.250225
 20
228.393341
 30
0.0
 10
152.154292
 20
229.235444
 30
0.0
 10
152.089090
 20
229.401177
 30
0.0
 10
152.005199
 20
229.427056
 30
0.0
 10
151.355222
 20
229.271761
 30
0.0
 10
150.875325
 20
229.181732
 30
0.0
 10
150.934392
 20
226.384729
 30
0.0
 10
151.086021
 20
223.111860
 30
0.0
 10
151.178582
 20
222.635985
 30
0.0
 10
150.083131
 20
222.551511
 30
0.0
 10
148.933702
 20
222.521011
 30
0.0
 10
148.805880
 20
224.703012
 30
0.0
 10
148.702226
 20
226.563771
 30
0.0
 10
148.601718
 20
226.797315
 30
0.0
 10
148.420853
 20
226.831044
 30
0.0
 10
148.242076
 20
226.805559
 30
0.0
 10
148.149570
 20
226.636872
 30
0.0
 10
148.109675
 20
225.316487
 30
0.0
 10
148.147450
 20
224.210768
 30
0.0
 10
148.242054
 20
223.720114
 30
0.0
 10
148.335548
 20
223.514619
 30
0.0
 10
148.374433
 20
223.135448
 30
0.0
 10
148.374433
 20
222.632599
 30
0.0
 10
147.560736
 20
222.547551
 30
0.0
 10
145.641227
 20
222.462501
 30
0.0
 10
144.535412
 20
222.462501
 30
0.0
 10
144.535412
 20
224.646771
 30
0.0
 10
144.535412
 20
226.831044
 30
0.0
 10
141.877556
 20
226.831044
 30
0.0
 10
139.219694
 20
226.831044
 30
0.0
 10
139.286782
 20
225.077007
 30
0.0
 10
139.396326
 20
222.925830
 30
0.0
 10
139.438778
 20
222.528690
 30
0.0
 10
138.327491
 20
222.528690
 30
0.0
 10
137.216199
 20
222.528690
 30
0.0
 10
137.167473
 20
222.992020
 30
0.0
 10
137.043451
 20
225.143197
 30
0.0
 10
136.936915
 20
226.615688
 30
0.0
 10
136.833407
 20
226.803030
 30
0.0
 10
136.648001
 20
226.831055
 30
0.0
 10
136.463826
 20
226.808336
 30
0.0
 10
136.368680
 20
226.656362
 30
0.0
 10
136.327848
 20
225.461391
 30
0.0
 10
136.376009
 20
224.313074
 30
0.0
 10
136.535358
 20
223.675774
 30
0.0
 10
136.669566
 20
223.274618
 30
0.0
 10
136.700836
 20
222.894250
 30
0.0
 10
136.658799
 20
222.528687
 30
0.0
 10
134.797924
 20
222.492114
 30
0.0
 10
133.456736
 20
222.493243
 30
0.0
 10
132.845319
 20
222.547280
 30
0.0
 10
132.845319
 20
222.547280
 30
0.0
  0
LWPOLYLINE
  5
101
100
AcDbEntity
  8
Layer_1
 62
1
100
AcDbPolyline
 90
13
 70
0
 10
152.478218
 20
232.186270
 30
0.0
 10
152.379316
 20
232.731825
 30
0.0
 10
152.258722
 20
232.872710
 30
0.0
 10
152.093388
 20
232.920530
 30
0.0
 10
151.767695
 20
232.812820
 30
0.0
 10
151.588380
 20
232.543515
 30
0.0
 10
151.579913
 20
232.193353
 30
0.0
 10
151.766784
 20
231.843079
 30
0.0
 10
151.996428
 20
231.703085
 30
0.0
 10
152.227816
 20
231.731110
 30
0.0
 10
152.406545
 20
231.900920
 30
0.0
 10
152.478212
 20
232.186264
 30
0.0
 10
152.478212
 20
232.186264
 30
0.0
  0
ENDSEC
  0
SECTION
  2
OBJECTS
  0
DICTIONARY
  5
C
330
0
100
AcDbDictionary
  3
ACAD_GROUP
350
D
  3
ACAD_MLINESTYLE
350
17
  0
DICTIONARY
  5
D
330
C
100
AcDbDictionary
  0
DICTIONARY
  5
1A
330
C
100
AcDbDictionary
  0
DICTIONARY
  5
17
330
C
100
AcDbDictionary
  3
STANDARD
350
18
  0
DICTIONARY
  5
19
330
C
100
AcDbDictionary
  0
ENDSEC
  0
EOF
