<?xml version="1.0" encoding="UTF-8" standalone="no"?>
<!-- Created with Inkscape (http://www.inkscape.org/) -->

<svg
   xmlns:dc="http://purl.org/dc/elements/1.1/"
   xmlns:cc="http://creativecommons.org/ns#"
   xmlns:rdf="http://www.w3.org/1999/02/22-rdf-syntax-ns#"
   xmlns:svg="http://www.w3.org/2000/svg"
   xmlns="http://www.w3.org/2000/svg"
   xmlns:sodipodi="http://sodipodi.sourceforge.net/DTD/sodipodi-0.dtd"
   xmlns:inkscape="http://www.inkscape.org/namespaces/inkscape"
   id="svg9631"
   version="1.1"
   inkscape:version="0.91 r13725"
   width="453"
   height="800"
   viewBox="0 0 453 800"
   sodipodi:docname="multe_cartoons.svg">
  <sodipodi:namedview
     pagecolor="#ffffff"
     bordercolor="#666666"
     borderopacity="1"
     objecttolerance="10"
     gridtolerance="10"
     guidetolerance="10"
     inkscape:pageopacity="0"
     inkscape:pageshadow="2"
     inkscape:window-width="1360"
     inkscape:window-height="746"
     id="namedview9633"
     showgrid="false"
     inkscape:zoom="0.59"
     inkscape:cx="529.43468"
     inkscape:cy="524.30058"
     inkscape:window-x="1432"
     inkscape:window-y="-8"
     inkscape:window-maximized="1"
     inkscape:current-layer="svg9631" />
  <metadata
     id="metadata9637">
    <rdf:RDF>
      <cc:Work
         rdf:about="">
        <dc:format>image/svg+xml</dc:format>
        <dc:type
           rdf:resource="http://purl.org/dc/dcmitype/StillImage" />
        <dc:title></dc:title>
      </cc:Work>
    </rdf:RDF>
  </metadata>
  <defs
     id="defs9635" />
  <path
     inkscape:connector-curvature="0"
     id="path10249"
     d="M134.10869 305.11149L128.42397 302.76476L126.17694125 301.76587625L123.61696 300.05735L120.83412 297.84347L117.90009 299.33932L115.34114125 300.39577375L113.30891 300.83518L111.15372875 301.18564875L108.29915 302.02826L104.855731875 302.764834844L100.3819705 303.17015625L96.240867875 303.178737031L93.795426 302.72509L88.39451 301.59021L84.808073375 300.86126875L82.675319 300.02606L81.801659625 298.872740938L81.6380185 297.6277925L82.149621125 296.525760312L83.301693 295.80119L86.852869 293.83409L88.731948625 292.819125L90.683812 292.38274L92.3494864844 292.104105313L93.856343125 291.4154475L94.9482714531 290.477110938L95.369161 289.44944L95.9479065 288.8326925L97.339361 288.57617L99.076052875 288.23092875L100.48485 287.40088L101.7568825 286.68185L103.18742 286.71033L104.32734625 286.8155375L104.30157 285.7786L102.49008625 278.03062L101.93153 269.95345L101.912404375 265.405377656L102.286935 262.53300125L103.401010625 260.104664219L105.60052 256.88871L106.38153875 255.699421875L106.5731775 254.83143L106.11613 253.877653125L104.95109 252.43101L103.06454 250.66261625L101.43506 249.86485L100.042301975 249.516821836L98.8051761094 248.697279688L97.7288483457 247.41839582L96.818484625 245.6923425L95.5163130781 240.947416563L94.939989 234.55988L94.686227 227.94509L94.0343383125 227.274111094L92.61768175 227.07147625L90.7778808125 227.331195781L88.856559 228.04728L86.8618865156 228.809440781L85.053158625 229.02097875L83.5777241719 228.687369844L82.582932 227.81409L82.6457567656 227.275444375L83.188892125 226.4108675L85.352573 224.1808L88.625546 221.36191L84.731447 221.73608L81.470416625 221.78329L80.7317340781 221.422570625L80.313068 220.74399L80.211809709 219.91617791L80.4877227969 219.066173906L81.951063875 217.46302875L84.2630927656 216.261431719L86.983811 215.78826L89.1561057812 215.587597813L89.6933673477 215.339613867L89.8647795 214.9957225L89.1102789687 214.027800938L86.893051 212.699L84.482154875 211.0909125L84.0512012969 210.315830938L84.019845 209.42713L84.520406834 208.349160996L85.5629334219 207.756507969L87.0268395176 207.617954395L88.791539875 207.90228375L90.736449248 208.578279512L92.7409823906 209.614725156L94.6845540566 210.98040416L96.446579 212.6441L97.7421645156 213.789754063L98.850727875 214.1852675L99.7329845469 213.829847188L100.34965 212.7227L100.953055117 211.545690801L101.842664687 210.681685781L102.905467539 210.136422559L104.0284525 209.91563875L105.098608398 210.025071973L106.002924062 210.470459844L106.62838832 211.25753998L106.86199 212.39205L106.5523325 213.75370125L105.71271 214.25589L104.951295 214.414838125L104.543805 215.09477L104.49189 219.23611L104.904999863 221.994737129L105.834397656 224.984903906L107.176490684 228.040077168L108.82768625 230.99372375L110.68439166 233.679310488L112.643014219 235.930304219L114.59996123 237.580171777L116.45164 238.46238L118.468521094 238.783029688L118.949908691 238.681620352L119.08104875 238.4146375L118.295949531 237.410699063L116.11995 235.82471L113.10802375 233.4699025L112.434620156 232.48288625L112.22531 231.52233L111.8889975 230.1370475L111.08041 229.30426L109.723515937 228.196792969L108.352835 226.20819125L107.292054062 223.909233906L106.86486 221.8707L107.059512891 220.507769141L107.59522875 219.275438125L108.394018359 218.224596797L109.3778925 217.406135L110.468861953 216.870942578L111.5889375 216.669909375L112.660129922 216.853925234L113.60445 217.47388L114.5543 218.04852L114.88968 213.73546L115.402946094 210.368710938L116.41721875 207.5649925L117.994867031 205.199930313L120.19826 203.14915L123.099818594 201.394307813L125.98556625 200.6837675L129.104340781 201.001240938L132.70498 202.33044L138.27572 205.11533L140.680056719 206.51527375L142.48648875 207.131445L144.255366406 207.04721375L146.54704 206.34595L150.450976875 205.36584875L154.496915 205.0937175L158.370345625 205.523305L161.75676 206.64836L164.212509219 208.256164688L166.25087125 210.37534L167.642255156 212.707882813L168.15707 214.95579L167.610987969 216.723877969L166.19926625 218.51974875L164.261691406 220.010022656L162.13805 220.86132L160.942865625 221.204803281L160.21786 221.80229375L159.799821875 222.895149844L159.52554 224.72473L158.823738281 227.584364375L157.42283625 229.8774075L155.315923594 231.611794375L152.49609 232.79546L150.267162031 233.447999688L149.14010875 234.097215L148.604511094 235.316812813L148.14995 237.6805L147.197615625 241.115424688L145.8268 243.8954025L144.207381875 245.756754063L143.357533984 246.260545195L142.50924 246.4358L141.223417187 246.765904844L140.3546975 247.59553125L140.050499062 248.683647031L140.45824 249.78922L141.215623906 251.373514531L141.55945125 253.55429625L141.479080469 256.139112344L140.96387 258.93551L140.3663625 262.94449L140.80345 267.53406L141.2177325 272.07082125L140.73635 275.628405L140.159104687 277.04224125L139.3571275 278.21396625L138.330146562 279.144474375L137.07789 279.83466L134.44477 281.33818L136.05975 284.9673L138.024523437 288.241184688L140.2290775 290.8406975L142.456795312 292.555011563L144.49106 293.1733L145.629575312 293.37983875L146.94942 294.0030775L150.16996 296.52139L152.11634375 298.416371406L153.1259925 299.75270875L153.4178125 300.957876719L153.21071 302.45935L152.485569687 304.93834L151.962155117 305.733857969L151.221665 306.289825L148.759920312 306.8524075L144.44126 306.96469L138.33773 306.6148475L136.226121875 306.049904687L134.10869 305.11149L134.10869 305.11149"
     style="fill:#000000" />
  <path
     id="path10247"
     d="m 644.08916,733.90299 c -1.69879,-1.0359 -4.01355,-3.05922 -5.14392,-4.49626 -1.13037,-1.43703 -2.54009,-2.61279 -3.13271,-2.61279 -0.59262,0 -1.49977,-1.4625 -2.01589,-3.25 l -0.93841,-3.25 -0.0902,3.95 c -0.0721,3.15756 -0.34096,3.7001 -1.34019,2.70437 -0.79981,-0.79701 -1.43007,-5.61552 -1.75,-13.37912 l -0.5,-12.13349 -10,-8.15708 c -10.78586,-8.79812 -14.49999,-13.26342 -14.49999,-17.43256 0,-3.64514 -1.72666,-5.05212 -6.2,-5.05212 -3.34137,0 -3.8,-0.28882 -3.8,-2.39301 0,-1.31616 0.6944,-2.65948 1.54312,-2.98516 1.09775,-0.42125 1.29039,-1.10152 0.66746,-2.35699 -0.48161,-0.97066 -0.96569,-3.46083 -1.07572,-5.53372 -0.14974,-2.82086 0.24833,-3.93443 1.58254,-4.42705 2.88801,-1.06634 3.25118,-2.35059 3.26728,-11.55407 0.0151,-8.60848 -0.0241,-8.75 -2.41958,-8.75 -1.3392,0 -3.60998,0.44676 -5.04617,0.9928 -2.0163,0.7666 -3.20535,0.60355 -5.2186,-0.71558 -1.68408,-1.10346 -4.4826,-1.68129 -7.90323,-1.63184 l -5.29589,0.0765 2.05397,-4.11097 c 1.12969,-2.26103 3.91112,-6.03418 6.18097,-8.38477 3.99126,-4.13325 6.43946,-5.23217 14.84683,-6.6643 2.27774,-0.388 3.85506,-1.28259 4.134,-2.34463 0.41892,-1.59505 0.45927,-1.59272 0.56701,0.0327 0.073,1.10199 0.94916,1.76312 2.36601,1.78544 1.2375,0.0195 3.375,0.67854 4.75,1.46456 1.375,0.78602 3.5112,1.44508 4.74711,1.46456 3.15327,0.0497 9.9522,6.50856 12.83057,12.18874 1.33227,2.62921 2.42232,4.90776 2.42232,5.06355 0,0.27176 -6.73439,0.51376 -17.63196,0.63358 -3.1613,0.0348 -5.70757,0.63205 -6.63096,1.55543 -0.82444,0.82445 -1.77756,1.22042 -2.11804,0.87994 -0.34047,-0.34047 -0.61904,3.0294 -0.61904,7.48861 0,4.4592 0.45,8.38576 1,8.72568 0.55,0.33992 1,1.46596 1,2.50231 0,1.03636 0.87883,2.49984 1.95297,3.2522 2.09501,1.4674 4.04703,5.69273 4.04703,8.76017 0,2.25114 7.34316,12.44802 7.85716,10.91063 0.19643,-0.58755 -0.59107,-2.07761 -1.75,-3.31124 -2.6395,-2.80962 -2.67109,-6.08509 -0.10716,-11.11407 2.28388,-4.47971 2.49943,-7.30975 0.83497,-10.96284 -1.01292,-2.22312 -0.84972,-2.89475 1.25,-5.14437 3.45035,-3.69667 9.22409,-6.39633 13.62519,-6.37083 5.43267,0.0315 11.89286,3.27841 14.26544,7.1699 2.52331,4.13872 2.5223,5.41489 -0.008,10.3467 l -2.03264,3.96144 2.03264,1.37197 c 2.73327,1.84488 2.56096,4.69061 -0.46737,7.71894 -2.57206,2.57206 -3.27153,5.81422 -1.49169,6.91422 1.20636,0.7456 7.99166,-12.98958 7.99166,-16.17723 0,-1.22569 -0.74453,-2.64517 -1.6545,-3.15442 -2.10261,-1.17668 -1.07146,-4.17348 1.43602,-4.17348 1.01436,0 3.13768,1.35 4.71848,3 2.54374,2.65509 3.538,3 8.64813,3 6.47006,0 9.60187,2.13783 9.60187,6.55439 0,2.09022 -0.47016,2.44561 -3.23543,2.44561 -1.77949,0 -5.24334,0.27521 -7.69744,0.61159 -4.25543,0.58327 -4.51524,0.8106 -5.61173,4.91026 -0.63235,2.36427 -3.41225,7.28788 -6.17756,10.94137 -5.50636,7.27491 -6.02683,9.32273 -3.05337,12.01368 1.08595,0.98278 2.24128,2.62752 2.56738,3.65498 0.77514,2.44224 2.16076,2.38047 2.95815,-0.13188 0.82603,-2.6026 1.72594,-2.5222 5.28449,0.47212 1.61587,1.35966 3.22539,2.18466 3.57672,1.83333 0.35133,-0.35133 0.64568,-3.15128 0.6541,-6.22212 0.0177,-6.4635 0.54448,-7.58527 4.21762,-8.98179 3.61894,-1.37592 8.16096,0.27277 9.62923,3.49529 1.54028,3.38053 1.4936,3.89917 -1.0558,11.73172 -3.71839,11.42402 -8.64033,14.63885 -12.89333,8.42145 -4.3994,-6.43142 -7.3861,-7.42558 -8.40272,-2.79696 -0.35673,1.62417 -1.54858,4.09719 -2.64856,5.49559 -1.77229,2.25309 -1.92186,3.438 -1.31383,10.40828 0.65346,7.49124 0.57474,7.94376 -1.6534,9.50442 -2.89265,2.02609 -2.73701,2.03214 -6.48322,-0.25228 z"
     style="fill:#000000" />
  <path
     id="path10245"
     d="m 752.47364,729.64692 c -5.75356,-2.10449 -4.79274,-7.23069 2.31197,-12.33492 l 5.01029,-3.59954 -2.98498,-5.20926 c -1.99382,-3.47954 -3.94758,-5.54131 -5.88397,-6.20926 -1.59444,-0.55 -3.6849,-1.7875 -4.64547,-2.75 -0.96056,-0.9625 -2.05183,-1.78443 -2.42505,-1.82651 -0.37321,-0.0421 -1.49096,-0.23092 -2.48388,-0.41963 -1.18452,-0.22514 -2.13144,0.51468 -2.75375,2.15148 -0.73012,1.92035 -1.58063,2.44371 -3.69469,2.27351 -3.84504,-0.30955 -7.20253,1.30961 -11.05283,5.33026 l -3.30659,3.45286 3.55401,5.89402 c 1.95471,3.2417 3.55518,6.23151 3.55659,6.64401 10e-4,0.4125 -0.89743,1.65 -1.99743,2.75 -1.65713,1.65713 -3.33333,2 -9.77749,2 -5.42078,0 -8.45096,-0.47171 -10,-1.5567 -6.01883,-4.21575 1.08537,-16.26471 15.50915,-26.30405 1.77741,-1.23712 3.13471,-2.56205 3.01623,-2.94428 -0.11848,-0.38223 1.01024,-1.90748 2.50827,-3.38944 3.12835,-3.09478 2.87458,-6.48105 -0.35612,-4.75203 -1.72081,0.92095 -1.90004,0.63623 -1.90004,-3.01832 0,-2.21935 -0.26803,-4.03518 -0.59563,-4.03518 -0.3276,0 -1.9004,0.92908 -3.49512,2.06462 -1.59473,1.13555 -4.13919,1.96769 -5.65437,1.8492 -5.02761,-0.39314 -6.05014,0.0601 -7.13112,3.161 -0.58954,1.69115 -2.09606,4.33087 -3.34782,5.86603 -1.25177,1.53517 -2.79448,3.63901 -3.42825,4.67519 -1.09171,1.78489 -1.24623,1.79329 -2.93857,0.15968 -1.62793,-1.57145 -1.67305,-2.29385 -0.50905,-8.14991 1.1155,-5.61205 1.07675,-6.73156 -0.30604,-8.84196 -1.32265,-2.01861 -1.36771,-2.7111 -0.27378,-4.20713 1.22888,-1.6806 1.41458,-1.63037 3.01766,0.81624 2.35432,3.59315 5.99301,3.43104 8.82021,-0.39296 1.2199,-1.65 2.7806,-3 3.46822,-3 0.68762,0 2.72828,-1.35 4.5348,-3 l 3.28458,-3 -2.57364,0 c -4.67321,0 -8.76062,-2.07021 -10.34059,-5.23734 -1.01873,-2.04209 -1.20211,-3.45461 -0.55043,-4.23984 0.68297,-0.82292 0.10266,-1.82414 -1.92704,-3.32476 -2.06745,-1.52853 -3.05142,-1.79438 -3.4149,-0.92265 -0.34261,0.82168 -1.18818,0.44984 -2.56996,-1.13014 -2.80763,-3.21033 -2.84409,-15.48908 -0.0518,-17.44487 0.98836,-0.69227 4.33948,-4.50806 7.44695,-8.47954 5.14927,-6.58099 5.96939,-7.22086 9.25496,-7.22086 2.03783,0 5.45322,1.08311 7.85642,2.49149 l 4.2514,2.49148 0.67388,-3.98866 c 0.37064,-2.19376 1.53209,-5.00243 2.581,-6.24149 1.89821,-2.24229 1.90554,-2.21077 1.56931,6.74718 -0.35444,9.44276 1.18817,15.46201 4.7121,18.38661 2.35471,1.95423 2.01669,4.66928 -0.86337,6.93473 -1.375,1.08158 -2.5,2.62855 -2.5,3.43772 0,0.80917 -0.82846,2.54441 -1.84103,3.85608 -1.01256,1.31167 -2.09543,3.39736 -2.40638,4.63486 -0.51464,2.04817 -0.21207,2.25 3.37315,2.25 2.16617,0 5.54685,-0.67201 7.51261,-1.49336 1.96577,-0.82135 3.94926,-1.26151 4.40777,-0.97814 0.4585,0.28337 2.3232,-0.39293 4.14376,-1.5029 1.82057,-1.10997 4.26384,-2.01981 5.42949,-2.02186 3.05888,-0.005 12.0052,-7.48801 13.26147,-11.09177 0.7455,-2.13852 1.60733,-2.96097 2.84437,-2.71439 1.39697,0.27847 1.77479,1.3516 1.77479,5.04102 0,4.61601 0.0836,4.73723 5.5,7.97748 4.88886,2.92464 5.53392,3.69714 5.8053,6.95214 0.39099,4.68962 -1.75175,5.51262 -9.02955,3.46816 -6.76508,-1.90043 -15.1649,-3.34 -16.63313,-2.85059 -0.62844,0.20948 -1.14262,1.21072 -1.14262,2.22496 0,2.58124 -4.57839,5.8982 -9.15041,6.62929 -2.11728,0.33857 -3.84959,0.93583 -3.84959,1.32725 0,0.87606 4.59237,3.03271 6.45785,3.03271 1.44167,0 5.54215,7.54206 5.54215,10.19375 0,0.85927 0.93127,2.18065 2.06949,2.9364 1.78956,1.18822 1.92217,1.7616 0.98033,4.2388 -0.99479,2.61652 -0.75772,3.22428 2.73635,7.01489 2.10402,2.2826 4.6849,5.60503 5.73527,7.38317 1.05038,1.77815 2.2512,3.23299 2.66849,3.23299 1.64497,0 3.81007,6.16089 3.81007,10.84176 0,4.83533 -0.0861,4.97551 -4.02024,6.54966 -4.42959,1.77237 -12.97291,2.00185 -17.18398,0.46156 z"
     style="fill:#000000" />
  <path
     id="path10243"
     d="m 918.68868,615.61726 c 0.006,-0.17782 0.68096,-2.53234 1.5,-5.23225 0.81905,-2.69991 1.48567,-7.64991 1.48138,-11 -0.007,-5.63306 -0.21019,-6.18506 -2.69937,-7.34107 -1.48036,-0.6875 -3.27685,-1.25 -3.99219,-1.25 -0.71535,0 -1.30064,-0.49878 -1.30064,-1.10841 0,-0.68886 -0.96556,-0.86606 -2.55092,-0.46816 -3.56191,0.89398 -8.44908,-2.67074 -8.44908,-6.16278 0,-1.43174 -0.707,-3.3844 -1.57112,-4.33923 -1.42239,-1.57174 -1.42483,-2.16696 -0.0257,-6.288 1.67595,-4.93638 2.73562,-10.93075 5.04147,-28.51874 0.82096,-6.26193 1.71033,-11.603 1.97638,-11.86905 0.26605,-0.26605 -0.13592,-1.10337 -0.89327,-1.86072 -0.83529,-0.8353 -1.65451,-4.92447 -2.08243,-10.39454 -0.62929,-8.04438 -0.93421,-9.07714 -2.82538,-9.56977 -1.16597,-0.30372 -2.95356,-1.68088 -3.97241,-3.06035 -1.52032,-2.05843 -1.70699,-3.34652 -1.04118,-7.18419 0.4462,-2.57183 0.76363,-5.26062 0.7054,-5.97508 -0.13192,-1.61852 1.73868,-1.07314 2.9447,0.85854 0.91528,1.466 -0.10796,4.84094 -2.4687,8.14252 -1.49716,2.09381 -0.35309,3.51203 1.5554,1.92813 1.7664,-1.46599 2.95788,-0.11286 7.65684,8.69568 1.925,3.60855 3.98496,6.71061 4.57769,6.89347 1.37765,0.42501 3.41278,-4.00357 3.45411,-7.51637 0.0175,-1.48662 0.67476,-3.5522 1.46059,-4.59018 1.24022,-1.63816 1.23565,-2.16296 -0.0346,-3.97652 -0.92791,-1.32478 -1.24827,-3.23605 -0.87549,-5.22313 0.43505,-2.31904 0.17578,-3.29198 -0.99719,-3.74209 -0.87182,-0.33454 -1.58511,-1.27187 -1.58511,-2.08294 0,-2.50295 4.18077,-4.58809 9.19925,-4.58809 4.52264,0 4.95024,0.24795 8.7775,5.0898 2.21279,2.79939 4.02519,5.38689 4.02757,5.75 0.002,0.36311 2.05951,2.9102 4.5714,5.6602 3.92228,4.29406 4.4958,5.45573 4.06215,8.22784 -0.33419,2.13632 -0.11274,3.1508 0.65485,3 1.77673,-0.34904 2.00281,3.782 0.28501,5.20765 -1.32463,1.09934 -1.07622,1.72737 1.94306,4.9125 1.90403,2.0086 3.468,4.55201 3.4755,5.65201 0.008,1.1 1.09359,3.35 2.41353,5 1.94205,2.42768 3.18349,3.0119 6.50742,3.06239 2.25915,0.0343 4.55845,0.5133 5.10954,1.06439 0.66933,0.66933 -0.76017,0.9691 -4.30565,0.90292 -3.88634,-0.0726 -6.20896,-0.74088 -8.67345,-2.49575 l -3.36579,-2.39666 0.5811,13.06594 c 0.48783,10.96886 1.01032,14.13882 3.2554,19.75065 2.57789,6.4437 2.60774,6.73516 0.82796,8.08362 -1.01549,0.76939 -2.21417,1.4132 -2.66374,1.4307 -0.44956,0.0175 -0.53103,0.93402 -0.18105,2.03673 0.43126,1.35875 0.10371,2.20931 -1.01629,2.6391 -0.90895,0.34879 -1.98812,1.54108 -2.39816,2.64952 -0.47583,1.28628 -2.88742,2.78058 -6.66632,4.13066 l -5.92079,2.11532 0.0806,6.75368 c 0.0878,7.34917 0.17226,7.25281 -6.95608,7.93258 -2.30319,0.21964 -3.09923,0.96831 -4,3.76203 -0.62252,1.93073 -1.90583,3.6376 -2.87457,3.82332 -0.9625,0.18453 -1.74513,0.19001 -1.73918,0.0122 z"
     style="fill:#000000" />
  <path
     id="path10241"
     d="m 941.67786,543.84045 0,-7.95349 -2.80147,1.60783 -2.80148,1.60782 2.4935,6.34567 c 1.37143,3.49011 2.63209,6.34566 2.80148,6.34566 0.16938,0 0.30797,-3.57907 0.30797,-7.95349 z"
     style="fill:#000000" />
  <path
     id="path10239"
     d="m 916.12757,537.26007 c 1.1743,-2.81051 1.23795,-4.08986 0.31094,-6.25 -1.59205,-3.70982 -1.52003,-3.66071 -3.25582,-2.22014 -1.47285,1.22236 -1.42474,4.51405 0.14988,10.25401 0.68374,2.49244 1.12624,2.21002 2.795,-1.78387 z"
     style="fill:#000000" />
  <path
     id="path10237"
     d="m 856.39246,605.44706 c -5.50036,-1.52117 -9.15829,-3.27163 -12.46304,-5.96404 -3.22245,-2.62537 -5.31132,-3.64067 -6.7146,-3.26366 -1.12033,0.301 -2.78871,0.55342 -3.7075,0.56093 -1.02475,0.008 -1.91664,1.13408 -2.30712,2.91196 -0.7662,3.48847 -2.50235,4.0696 -12.21332,4.08804 -7.60607,0.0144 -10.00029,-1.27649 -6.76075,-3.64531 1.35391,-0.99 3.58357,-1.17833 8.2682,-0.69837 6.33583,0.64912 6.40028,0.63085 5.26376,-1.49275 -1.02279,-1.91112 -2.00753,-2.15251 -8.86541,-2.17328 -6.4918,-0.0197 -8.50261,-0.45561 -12.68421,-2.75 -6.25576,-3.43245 -8.96025,-7.47653 -15.53289,-23.22664 -8.60591,-20.62246 -9.77397,-22.24742 -17.27277,-24.02906 l -3.22495,-0.76622 3.09996,-0.10236 c 1.94313,-0.0642 4.55536,0.95493 7,2.73087 4.03062,2.92809 5.15215,4.96137 13.40832,24.30849 4.53006,10.61553 9.6202,17.38727 14.6489,19.4884 3.46155,1.44633 14.09303,1.85003 15.92131,0.60457 0.59317,-0.40408 1.06082,-2.53469 1.03922,-4.73469 -0.0216,-2.2 0.32645,-5.22589 0.77344,-6.72421 l 0.81272,-2.7242 -3.10552,1.54923 c -1.70803,0.85208 -4.47552,3.54047 -6.14997,5.97421 -3.32406,4.83135 -5.65666,5.50979 -8.42528,2.45049 -1.38047,-1.5254 -1.63955,-2.8958 -1.13913,-6.02529 0.53186,-3.32608 0.33182,-4.16743 -1.11811,-4.70259 -2.10516,-0.77699 -3.32477,-2.39331 -2.64086,-3.49989 0.27117,-0.43876 2.66986,-0.79775 5.33042,-0.79775 4.32655,0 5.18058,-0.39087 8.08716,-3.70128 1.88876,-2.15118 2.76975,-3.86128 2.10359,-4.08333 -2.20183,-0.73394 -1.1154,-3.14587 2.85383,-6.33563 2.2,-1.76797 4,-3.50941 4,-3.86987 0,-0.36046 -2.05525,-1.68182 -4.56722,-2.93636 -3.14023,-1.56831 -5.40544,-2.07342 -7.25,-1.61666 -6.63872,1.64392 -8.15858,1.64845 -11.55985,0.0344 -5.43075,-2.57706 -9.90948,-11.03977 -7.66925,-14.49131 0.66183,-1.01969 2.42616,-1.4444 5.50995,-1.32636 2.495,0.0955 4.53637,-0.0828 4.53637,-0.3963 0,-0.31346 -2.05738,-2.76944 -4.57197,-5.45773 -4.06877,-4.34985 -4.49696,-5.24175 -3.89049,-8.10371 0.72787,-3.43484 4.93857,-9.7159 6.51335,-9.7159 0.52201,0 0.94911,-0.45 0.94911,-1 0,-0.55 -0.59969,-1 -1.33264,-1 -1.79113,0 -7.9203,-7.72564 -6.71845,-8.46842 0.52167,-0.32242 2.88408,-0.0948 5.24979,0.50587 3.15759,0.80169 6.29555,2.97118 11.8013,8.15905 10.83878,10.21297 11.28411,10.44945 14.87006,7.89603 3.30506,-2.35341 6.14897,-2.6735 7.92994,-0.89253 1.49927,1.49927 1.56427,6.03573 0.10736,7.49264 -1.7128,1.7128 0.69588,5.30736 3.5564,5.30736 2.9141,0 5.85704,2.72164 5.09375,4.71073 -0.30663,0.79906 -0.55751,2.52538 -0.55751,3.83626 0,1.31088 -1.24477,3.86158 -2.76616,5.66821 -1.89307,2.24802 -2.66118,4.15278 -2.43357,6.0348 0.30675,2.53648 0.67681,2.75 4.76615,2.75 3.15838,0 4.43358,0.40747 4.43358,1.41667 0,0.77916 -0.55753,1.60251 -1.23895,1.82965 -0.68142,0.22714 1.90608,2.72414 5.75,5.54889 6.99721,5.14199 10.49808,6.10364 12.67428,3.48148 0.58276,-0.70218 1.63131,-1.27669 2.33013,-1.27669 1.86196,0 2.70967,3.02381 1.31786,4.70084 -0.97832,1.17881 -0.51769,2.07351 2.48275,4.82227 4.18708,3.83587 4.54,5.62082 1.67736,8.48346 l -2.00658,2.00658 -5.7085,-3.04623 c -3.13967,-1.67542 -6.50325,-3.76546 -7.47461,-4.64453 -1.63537,-1.47999 -1.83126,-1.42221 -2.64607,0.78042 -0.49789,1.34593 -0.50606,3.68243 -0.0188,5.38136 1.70043,5.92905 1.12062,8.59162 -2.13886,9.82193 -3.30098,1.24598 -3.58852,2.42437 -1.79911,7.3729 1.19867,3.31486 1.21336,3.321 7.95295,3.321 6.20993,0 11.84616,1.40857 11.84616,2.96052 0,1.23746 -2.41747,3.03839 -3.95,2.9426 -0.8525,-0.0533 -5.05343,-1.06578 -9.3354,-2.25 z"
     style="fill:#000000" />
  <path
     id="path10235"
     d="m 647.1324,599.33939 c -1.35,-1.35 -2.45454,-3.6 -2.45454,-5 0,-3.27027 -2.32836,-3.31496 -3.80548,-0.073 -0.63326,1.38987 -2.34549,2.77268 -3.91052,3.15819 -1.5312,0.37718 -3.76633,1.32157 -4.96695,2.09866 -4.17235,2.70051 -9.36168,-3.43101 -7.8846,-9.31616 1.26731,-5.04937 -3.6724,-6.28066 -10.79252,-2.69016 -4.00639,2.02032 -2.33039,-0.26198 2.37253,-3.23081 3.7587,-2.37276 3.82145,-2.50979 2.81623,-6.15038 -2.23471,-8.09345 2.52539,-20.25949 10.42692,-26.64952 5.37189,-4.34429 10.64981,-6.05186 16.86097,-5.45505 6.95159,0.66796 6.41698,-1.65138 -0.86658,-3.75957 -9.95945,-2.88275 -19.71476,-8.00282 -30.23279,-15.86768 -5.59743,-4.18548 -10.60909,-7.60997 -11.13702,-7.60997 -0.52793,0 -2.81281,0.9453 -5.07752,2.10067 -7.80536,3.98199 -19.62378,6.364 -22.56286,4.54754 -3.37815,-2.08781 6.81689,-14.13575 14.90666,-17.61588 7.38852,-3.17845 19.77071,-4.62696 27.75617,-3.24699 9.77906,1.68992 16.31126,3.98548 31.44671,11.05106 0.46715,0.21808 0.0431,-0.83399 -0.94231,-2.33792 -0.98541,-1.50393 -3.73012,-3.56534 -6.09935,-4.58091 -4.65397,-1.99493 -5.14625,-2.93616 -2.77555,-5.30686 3.58983,-3.58983 13.38594,-3.22697 22.11947,0.81934 5.89109,2.72938 7.95283,1.99067 6.05702,-2.17019 -0.98248,-2.1563 -0.82595,-2.74644 1.15361,-4.3494 1.38702,-1.12313 1.9998,-2.35861 1.55371,-3.13252 -0.4099,-0.71114 -0.34832,-0.92381 0.13884,-0.47949 1.27291,1.16096 3.28942,9.70155 2.29062,9.70155 -0.46497,0 -0.84541,0.85122 -0.84541,1.89159 0,1.19163 0.93985,2.12748 2.53986,2.52906 2.26558,0.56862 2.47197,0.99936 1.91118,3.98863 -0.61032,3.25328 -0.51655,3.37046 3.21014,4.01156 6.49947,1.11811 7.55992,0.99377 16.83882,-1.97437 8.17583,-2.6153 10.32783,-2.88203 23.5,-2.9127 16.48071,-0.0384 22.53282,1.28836 30.59733,6.70752 4.80784,3.23076 9.40267,8.80485 9.40267,11.40659 0,3.22912 -6.19165,0.57363 -19.0036,-8.15033 -4.45951,-3.03659 -9.19037,-5.49755 -10.56828,-5.49755 -2.84642,0 -9.8862,3.35323 -19.65498,9.36219 l -6.72686,4.13781 0.59997,4.5 c 0.55334,4.15026 1.51329,6.78446 4.64633,12.75 0.64992,1.2375 1.97497,2.25 2.94455,2.25 2.86384,0 2.00721,-3.30503 -1.49033,-5.75 -3.58798,-2.50819 -2.22709,-2.97394 2.60207,-0.89053 1.73312,0.74771 4.38863,1.86306 5.90113,2.47856 2.09404,0.85215 2.75,1.79822 2.75,3.96622 0,5.23002 -8.00873,10.19575 -16.44371,10.19575 -2.67956,0 -5.78614,0.77731 -7.65935,1.91648 -2.08603,1.26859 -4.21728,1.74352 -6.30427,1.40485 -2.58172,-0.41896 -3.3683,-0.0868 -4.34217,1.83351 -0.65413,1.28984 -1.31559,3.92016 -1.46991,5.84516 -0.25246,3.14906 -0.58686,3.51003 -3.33514,3.6 -1.8738,0.0613 -4.0789,1.12436 -5.70454,2.75 -1.4575,1.4575 -3.06703,2.65 -3.57674,2.65 -0.50971,0 -1.45949,2.1375 -2.11062,4.75 -0.65114,2.6125 -1.93661,5.875 -2.85659,7.25 -0.91998,1.375 -2.13942,3.4 -2.70986,4.5 -1.30649,2.51935 -4.76012,3.08089 -6.44705,1.04826 -2.05203,-2.47254 -3.90264,-1.81291 -5.47561,1.95174 -1.72292,4.12352 -3.73584,4.41951 -7.1099,1.04545 z"
     style="fill:#000000" />
  <path
     inkscape:connector-curvature="0"
     id="path10233"
     d="M307.227 324.52175L307.11044875 311.498065L307.48928 303.77175L307.485317031 297.51585125L306.94452375 289.77787L306.129086094 283.30504125L305.70030873 281.40157L305.30119 280.8446L304.958677656 280.849705156L304.67819125 280.46058875L304.41907 278.77175L304.132595 277.0807675L303.815535625 276.726156875L303.41907 276.77175L302.848174004 276.999153613L302.516945781 276.855105781L302.52469625 275.64800875L303.344728594 273.541164844L304.87945 270.92528L306.348969219 268.507602812L306.551101738 267.671680508L306.32925375 266.98785L304.406928906 265.786907187L300.16862 264.32566L298.446840156 263.640325156L297.16996875 262.82615625L296.302820469 261.853836719L295.81021 260.69405L295.163332813 259.125130625L294.0843975 258.4142825L292.349358437 258.512748125L289.73417 259.37177L285.68975375 260.5329825L279.91907 261.78013L269.41907 263.84876L266.7277275 264.2180225L266.632166563 263.854444062L267.19057 263.06204L267.64641707 262.242064941L267.845030313 261.266517031L267.5575375 259.11573125L266.502055938 257.143739844L264.85255 255.8846L263.7861625 255.270345L263.63725 254.72023L264.159506992 254.539848984L265.003704063 254.6272925L267.27145 255.4282425L269.667550938 256.76825875L271.41907 258.29252L272.401298281 259.350205312L273.63980625 259.6797775L275.892946094 259.262098437L279.91907 258.07803L285.9837625 255.8695475L290.73504 253.55443L294.55101 251.16337L291.98504 249.14498L290.09755375 246.95128625L289.585953594 245.710598281L289.40376 244.44917L289.094025 242.279222812L288.425085 240.28414L287.7531375 239.264717187L287.527347656 239.371126914L287.43438 240.02175L287.14030875 240.9045625L286.45425 241.27175L285.788383262 241.06820543L285.155054219 240.484597187L284.04436625 238.3393425L283.238900156 235.160291562L282.85537 231.27175L281.86619 224.931885L279.60147 217.27175L277.486473906 210.592383281L276.05047625 204.47136625L275.499667969 200.007228594L275.620644512 198.739780059L276.04024 198.2985L277.5070575 199.99859125L279.79955 204.0485L282.86240375 209.648035L286.18136 215.07384L288.187064844 218.032430156L289.36341125 219.34666125L289.76535248 219.467751035L290.109687031 219.274481719L290.82518 218.07384L291.614953281 216.900988906L292.76210625 216.15272125L294.553136094 215.713222969L297.27454 215.46668L301.428042031 215.525949062L302.879964824 215.855987305L303.95974125 216.4201425L304.700675645 217.243800508L305.136072344 218.352347187L305.22347 221.52565L305.23932375 224.605015L305.716460469 225.02645875L306.60019 224.93464L308.231754688 224.986921562L309.4393425 225.744025L309.826186563 226.763785937L309.587840039 227.233986602L308.99552 227.60404L308.02201375 227.6709525L308.08134 226.70948L308.1295875 225.73930875L307.03041 225.8674L305.80025375 226.61325375L305.50786 227.4833075L306.13640625 228.388705L307.66907 229.24059L308.894235 229.89793125L308.98373375 230.112387656L308.68027 230.20836L308.244275527 230.445364844L307.928749219 231.028075625L307.66371875 232.7654425L307.894413906 234.490115625L308.198544629 235.056959219L308.63007 235.27175L310.75975375 233.1420625L314.79212 228.02175L320.56065 221.17647125L326.86453 214.89952L333.07687375 208.9522225L338.62531 202.89952L342.0835975 198.8531875L344.15266 196.84744L344.767481875 196.537187969L345.1564975 196.649965L345.41911 198.02845L344.968466953 202.049186348L343.718065625 207.100185156L341.820197734 212.824044824L339.427155 218.86336375L336.691229141 224.860740332L333.764711875 230.458772969L330.799894922 235.300060059L327.94907 239.0272L323.63679 243.8235L326.02795 246.60339L327.732159688 249.107036094L328.30233 251.38410625L327.738560313 253.505305781L326.04095 255.54134L323.66282 257.6596L328.74148 260.01258L331.500825469 261.165368906L333.83943125 261.78560625L336.193368906 261.945817969L338.99871 261.71853L342.629820938 261.576356875L344.6973975 262.032245L344.999849648 262.399321797L344.737405313 262.813745625L342.28581 263.64841L340.754983438 264.045109219L339.8906725 264.55131125L339.584755313 265.281247656L339.72911 266.34915L339.82816 267.86462375L339.399625625 267.963422344L338.59611 267.6895L330.91908 265.0303L320.64233 261.19154L316.99669625 259.83569L314.23733 259.27175L313.063297813 259.310387344L312.6409475 259.54447375L313.95191 261.30804L316.44666875 263.2740175L319.8569 265.14125L323.222819063 267.211484844L326.662945 270.17650625L329.340590938 273.215224531L330.132019258 274.505629473L330.41907 275.50655L330.15414 276.14957L329.21907 275.47175L327.963761094 274.484665937L327.09212875 274.4396175L326.583967031 275.349262812L326.41907 277.22626L325.66230375 281.3090575L323.84284 286.97626L321.7665925 294.2718275L320.45962 302.33682L319.936014219 306.540722812L319.19022375 310.250025L318.188966406 313.599192187L316.89896 316.72269L314.8670125 322.1373825L313.84857 326.98182L313.257889688 330.501381719L312.1064925 333.46501625L310.587996563 335.509535156L309.751592227 336.073629863L308.89602 336.27175L308.147742188 335.787158281L307.6674525 334.00033875L307.227 324.52175L307.227 324.52175"
     style="fill:#000000" />
  <path
     id="path10231"
     d="m 622.00316,482.79063 c -1.19609,-0.48209 -3.99965,-2.02857 -6.23013,-3.43661 -2.41013,-1.52145 -5.51569,-2.56008 -7.65475,-2.56008 -1.97962,0 -6.37606,-1.08127 -9.76987,-2.40283 -3.3938,-1.32155 -7.79188,-2.90961 -9.7735,-3.52902 -8.68314,-2.71414 -13.02951,-14.0292 -9.96879,-25.95213 2.3602,-9.19409 3.38633,-19.19734 3.96121,-38.61602 0.58441,-19.74047 0.77131,-21.29787 3.11611,-25.96633 5.29511,-10.54247 14.77312,-16.74219 26.54135,-17.36113 16.52562,-0.86915 29.16609,8.15881 31.09145,22.20586 0.78269,5.71036 -1.75242,13.39861 -5.64902,17.13178 l -2.95716,2.83315 -5.28046,-2.67166 c -6.68927,-3.38447 -14.72629,-3.69713 -17.73353,-0.68988 -1.85913,1.85912 -8.01821,14.26955 -8.01821,16.15653 0,0.47392 1.06842,0.86168 2.37427,0.86168 1.30585,0 4.28743,0.675 6.62573,1.5 5.01822,1.77053 9,1.94441 9,0.39301 0,-0.60884 0.69837,-0.839 1.55193,-0.51145 0.88993,0.34149 1.29133,0.17385 0.94099,-0.39301 -1.36457,-2.20793 1.57375,-0.75239 6.14819,3.04559 3.91249,3.24838 5.52555,3.97879 8.28159,3.75 3.53722,-0.29365 5.67154,-2.77222 2.41063,-2.79945 -1.54957,-0.013 -1.60116,-0.16536 -0.33333,-0.98469 1.08996,-0.70439 1.14217,-0.97356 0.19098,-0.98469 -0.71996,-0.008 -1.05088,-0.43298 -0.73538,-0.94347 0.3155,-0.51049 3.93304,-0.89336 8.03897,-0.85083 8.0534,0.0834 9.47658,1.14378 7.95783,5.92896 l -0.68238,2.14997 3.01936,-2.14997 c 1.66065,-1.18248 3.73739,-2.14997 4.61499,-2.14997 1.52258,0 1.76754,0.39893 1.99563,3.25 0.055,0.6875 1.02624,2.00231 2.15832,2.92181 1.58174,1.28472 1.96007,2.51347 1.63396,5.30683 -0.40638,3.48099 -0.48542,3.54787 -1.86503,1.57819 -1.29842,-1.85374 -4.32725,-2.89743 -4.32725,-1.49109 0,2.86847 5.82989,7.43426 9.49255,7.43426 0.87552,0 2.13537,0.45016 2.79966,1.00035 6.00561,4.97413 6.17967,5.15804 4.31635,4.56046 -1.56738,-0.50266 -1.68399,-0.35662 -0.68061,0.85238 1.44537,1.74156 -0.17533,5.58681 -2.35473,5.58681 -1.92097,0 -2.70152,4.06586 -1.5508,8.07817 0.53767,1.87474 0.97758,5.13371 0.97758,7.24215 0,7.39956 -9.24195,12.70093 -16.1414,9.25903 -2.70705,-1.35045 -3.38875,-1.35656 -5.90966,-0.0529 -1.64424,0.85027 -5.57177,1.4736 -9.28498,1.4736 -3.76357,0 -7.62453,0.6202 -9.29966,1.49384 -3.1333,1.63413 -9.61236,1.884 -13.039,0.50285 z"
     style="fill:#000000" />
  <path
     id="path10229"
     d="m 661.23903,460.67775 c 3.82951,-2.55316 8.1515,-9.57113 6.75462,-10.96802 -0.46544,-0.46543 -1.73792,0.48045 -2.82773,2.10197 -3.00006,4.46373 -10.60008,7.36197 -17.25441,6.57988 -13.87959,-1.63127 -24.10064,-12.22292 -22.98633,-23.81977 0.37706,-3.92416 0.21839,-4.57934 -0.88688,-3.66205 -1.95406,1.62172 -3.61995,8.68736 -2.92352,12.39966 0.87829,4.68168 6.28418,12.28337 10.73193,15.09112 8.97089,5.66306 22.7165,6.72803 29.39232,2.27721 z"
     style="fill:#000000" />
  <path
     id="path10227"
     d="m 726.67786,482.94316 c 0,-0.46792 0.47752,-2.22059 1.06116,-3.89481 0.94883,-2.72183 0.57837,-3.95941 -3.5,-11.69209 -2.50864,-4.75642 -4.56116,-9.94195 -4.56116,-11.5234 0,-4.31795 -0.97345,-6.03892 -3.41586,-6.03892 -1.21103,0 -3.07539,-0.66069 -4.14301,-1.4682 -1.06762,-0.8075 -2.97042,-1.4825 -4.22843,-1.5 -1.36887,-0.019 -4.04344,-1.83873 -6.66081,-4.5318 -2.40542,-2.475 -4.87947,-4.5 -5.49788,-4.5 -0.61841,0 -2.20775,-0.70986 -3.53188,-1.57746 l -2.40751,-1.57746 3.31922,-4.67254 c 4.60959,-6.48902 6.56616,-10.6053 6.56616,-13.81401 0,-2.64708 -0.0535,-2.67442 -1.565,-0.79966 -0.90564,1.1233 -1.22163,1.25981 -0.75,0.324 0.44825,-0.88942 2.24099,-3.226 3.98388,-5.1924 3.08102,-3.47616 8.70763,-5.73941 23.33112,-9.38474 2.46508,-0.61449 3.5917,-1.50665 3.81012,-3.01716 0.17057,-1.17958 2.28832,-3.96812 4.70611,-6.19677 2.97749,-2.74455 4.76619,-5.42691 5.54327,-8.31277 0.63101,-2.34338 2.09026,-5.58498 3.24279,-7.20356 1.44583,-2.03048 1.72188,-3.06741 0.89038,-3.34458 -2.21439,-0.73813 -0.1044,-2.24684 2.29876,-1.64368 2.0261,0.50851 2.28974,0.292 1.82208,-1.49633 -0.37913,-1.44981 -0.0767,-2.09088 0.98653,-2.09088 0.84331,0 1.737,0.5625 1.98597,1.25 0.35791,0.98831 0.92094,0.97267 2.68938,-0.0747 1.96329,-1.16277 2.51421,-1.06397 4.50717,0.80831 1.46513,1.37642 2.44968,3.72289 2.7757,6.61528 0.27787,2.46525 1.28689,5.34601 2.24227,6.4017 2.11445,2.33643 1.33851,8.46346 -1.19495,9.43564 -1.24998,0.47966 -1.36242,0.90693 -0.4728,1.79655 0.64197,0.64197 1.16722,2.18378 1.16722,3.42625 0,1.63147 1.93151,3.69983 6.9529,7.44551 6.99677,5.21921 9.0471,8.34624 9.0471,13.79805 0,1.58168 2.35577,5.90633 6,11.01459 3.3,4.62575 6,8.70254 6,9.05954 0,1.12043 -5.36774,5.8285 -8.47397,7.43255 -2.8246,1.45863 -3.10186,1.41323 -5.52043,-0.9039 l -2.54646,-2.43967 -1.27679,2.88448 c -1.5462,3.49311 -7.23311,8.00053 -11.53365,9.14154 -11.81329,3.13426 -15.23614,4.2703 -15.88339,5.27165 -0.40408,0.62515 -0.74158,3.26848 -0.75,5.87409 -0.0145,4.47973 0.2159,4.88774 4.23469,7.5 l 4.25,2.76254 -5.3808,0.3068 c -7.17612,0.40915 -8.1192,-0.0831 -8.1192,-4.2379 0,-6.85972 -5.11863,-17.11694 -7.40223,-14.83333 -1.01719,1.01718 -0.6297,7.44986 0.87712,14.56105 1.74139,8.21821 0.86286,11.70338 -2.95014,11.70338 -1.38861,0 -2.52475,-0.38285 -2.52475,-0.85078 z"
     style="fill:#000000" />
  <path
     id="path10225"
     d="m 772.40745,419.16899 c 1.65404,-0.44336 2.18804,-1.27879 2.06863,-3.23634 -0.22001,-3.60696 -1.33669,-4.83831 -5.62821,-6.20618 -2.01851,-0.64337 -5.05884,-2.48326 -6.7563,-4.08864 -2.57641,-2.43665 -3.48506,-2.76154 -5.5,-1.96654 -1.32754,0.52378 -3.31371,2.33936 -4.41371,4.03462 -1.1,1.69525 -2.3375,3.08357 -2.75,3.08515 -0.4125,0.002 -0.75,0.45288 -0.75,1.00288 0,0.55 0.8449,1 1.87756,1 1.03265,0 2.46307,0.70551 3.1787,1.56779 3.5147,4.23495 12.33613,6.50594 18.67333,4.80726 z"
     style="fill:#000000" />
  <path
     id="path10223"
     d="m 717.23135,413.29394 c 5.05124,-3.45822 7.48432,-4.5 10.50972,-4.5 4.07343,0 4.91919,-0.93979 2.58736,-2.87504 -1.00495,-0.83403 -2.60044,-0.74073 -6.25,0.36551 -2.69531,0.81699 -7.65481,1.77204 -11.0211,2.12232 -5.81525,0.6051 -6.16981,0.79745 -7.10861,3.85634 -0.79818,2.60069 -0.67891,3.43029 0.62053,4.31636 2.6218,1.78778 3.76751,1.43473 10.6621,-3.28549 z"
     style="fill:#000000" />
  <path
     id="path10221"
     d="m 807.26287,476.04562 c -1.16896,-1.16896 -0.54519,-7.53334 1.07244,-10.94224 0.9116,-1.92105 3.88934,-5.93486 6.61721,-8.91958 4.3671,-4.77831 8.72534,-11.51782 8.72534,-13.49272 0,-0.37399 -1.76173,-1.38488 -3.91495,-2.24643 -5.31939,-2.1284 -5.95641,-3.54418 -2.74636,-6.10379 3.09409,-2.46714 3.36366,-3.5293 0.91131,-3.59081 -0.9625,-0.0241 -3.55,-0.74229 -5.75,-1.59589 -2.2,-0.8536 -6.25,-2.39067 -9,-3.41571 -4.7791,-1.78138 -4.84537,-1.85576 -1.5,-1.68349 1.925,0.0991 5.90001,-0.42293 8.83335,-1.16013 3.43078,-0.86221 7.44932,-1.10097 11.26491,-0.66928 l 5.93157,0.67108 4.98508,-5.118 c 2.7418,-2.8149 4.98509,-5.46826 4.98509,-5.89636 0,-0.42809 -0.9,-1.59284 -2,-2.58833 -2.38375,-2.15726 -2.56826,-3.5 -0.48095,-3.5 1.1228,0 1.35464,-0.65508 0.88876,-2.5113 -0.53832,-2.14483 -0.35869,-2.40937 1.23094,-1.81277 1.60039,0.60063 1.68021,0.47569 0.56951,-0.89145 -0.88515,-1.08953 -0.94697,-1.70491 -0.19641,-1.9551 0.60243,-0.20081 -0.6951,-1.70707 -2.88341,-3.34724 -4.06874,-3.0496 -7.79425,-8.14967 -6.73034,-9.21357 0.32613,-0.32613 2.15943,-0.53408 4.07401,-0.4621 l 3.48104,0.13087 -0.6125,-4.46867 c -0.5128,-3.74128 -0.34257,-4.46867 1.04577,-4.46867 2.05502,0 10.3172,7.49083 11.14746,10.10675 0.33556,1.05726 0.99662,1.68342 1.46902,1.39146 0.4724,-0.29196 1.13846,-0.0785 1.48015,0.47436 0.38891,0.62927 1.53671,0.40536 3.0691,-0.5987 1.58202,-1.03658 2.44785,-1.19706 2.44785,-0.4537 0,0.83596 0.54027,0.86106 1.97749,0.0919 1.61947,-0.86671 1.87038,-0.77918 1.38586,0.48347 -0.49434,1.28823 -0.16173,1.37833 2.02251,0.54789 1.68578,-0.64094 2.61414,-0.64756 2.61414,-0.0187 0,0.53639 -0.5625,0.98214 -1.25,0.99056 -0.90249,0.0111 -0.86576,0.25867 0.13213,0.89068 1.08264,0.68568 0.9114,1.02477 -0.79028,1.56486 -2.139,0.67889 -2.12679,0.73614 0.79381,3.7234 1.63141,1.66865 3.49565,4.3121 4.14275,5.87434 1.00928,2.43661 1.58627,2.75847 4.05867,2.26399 3.64951,-0.7299 4.43415,1.01801 2.94294,6.55593 -0.79638,2.95752 -1.94557,4.53358 -4.12895,5.66265 -3.53313,1.82705 -3.57125,4.77941 -0.0681,5.27792 2.49495,0.35504 9.14904,-3.60871 9.16024,-5.45664 0.004,-0.62015 0.62306,-1.63897 1.37622,-2.26405 0.8352,-0.69315 1.55247,-3.9892 1.83871,-8.4493 0.73202,-11.40648 5.22782,-17.78469 14.95494,-21.21661 2.24863,-0.79337 5.13028,-1.44248 6.40367,-1.44248 2.9391,0 4.22723,-1.97619 2.07369,-3.18137 -1.78509,-0.99894 -2.25796,-3.81861 -0.64044,-3.81861 0.55,0 1,-0.85186 1,-1.89301 0,-3.60575 6.29571,-4.23543 10.36257,-1.03644 2.06447,1.62392 2.42471,2.45839 1.67004,3.86852 -0.52923,0.98888 -0.73746,2.02274 -0.46274,2.29747 0.27473,0.27473 0.0867,2.33691 -0.4179,4.58263 -0.76995,3.42679 -0.62436,4.34833 0.90575,5.73306 2.33157,2.11005 4.94228,9.74193 4.94228,14.44777 0,9.32522 -6.72799,19.45231 -14.63425,22.02775 -2.12616,0.69259 -4.93961,2.31968 -6.25211,3.61575 -1.3125,1.29608 -2.86288,2.3565 -3.44528,2.3565 -0.58241,0 -2.31506,1.20346 -3.85034,2.67435 -3.37835,3.23666 -8.91802,5.29028 -14.32543,5.31059 l -4.00742,0.0151 0.3729,8.21144 c 0.22442,4.94166 0.95626,9.10174 1.83788,10.44728 0.80574,1.22971 1.39127,2.52206 1.30118,2.87189 -0.0901,0.34983 0.0524,0.8523 0.31675,1.1166 0.2643,0.2643 1.4888,-2.5857 2.72112,-6.33333 4.17254,-12.68927 8.48641,-18.47898 12.59407,-16.90272 2.37556,0.91158 1.22472,8.95886 -2.32676,16.26984 -3.65237,7.5187 -10.52319,14.8411 -13.00193,13.85649 -0.99021,-0.39333 -6.30038,-0.6598 -11.80038,-0.59216 -12.84225,0.15794 -23.61487,-1.39349 -30.01204,-4.32221 -3.81787,-1.74788 -5.6749,-2.09811 -7.51518,-1.41735 -2.36128,0.8735 -3.70915,0.75278 -7.04466,-0.63095 -1.09041,-0.45236 -1.95214,0.18248 -2.81334,2.07261 -3.07963,6.75905 -11.31319,13.82083 -13.52977,11.60425 z"
     style="fill:#000000" />
  <path
     id="path10219"
     d="m 885.67786,437.91638 c 0,-1.71447 -2.93507,-3.27782 -4.95201,-2.63767 -3.47491,1.10289 -2.47847,3.51523 1.45201,3.51523 1.925,0 3.5,-0.3949 3.5,-0.87756 z"
     style="fill:#000000" />
  <path
     id="path10217"
     d="m 882.81205,433.92086 c 2.39546,0.14602 4.77158,-0.75255 8.24194,-3.11684 l 4.87613,-3.32202 -2.87613,-1.46563 c -1.58187,-0.80609 -3.78823,-2.29503 -4.90303,-3.30875 -1.26992,-1.15478 -2.84,-1.63049 -4.20408,-1.27378 -1.79384,0.4691 -2.07543,1.07805 -1.59932,3.45859 0.48597,2.42984 -0.0779,3.54498 -3.54593,7.01303 -4.69355,4.69355 -5.17225,5.62158 -1.73958,3.37241 1.3113,-0.8592 3.8988,-1.46985 5.75,-1.35701 z"
     style="fill:#000000" />
  <path
     id="path10215"
     d="m 893.45639,432.95836 c 0.21347,-0.64043 -0.25462,-1.16442 -1.04021,-1.16442 -1.77843,0 -4.98491,3.42007 -4.06704,4.33795 0.8077,0.8077 4.55668,-1.52184 5.10725,-3.17353 z"
     style="fill:#000000" />
  <path
     id="path10213"
     d="m 899.13081,429.63342 c 2.16768,-0.98766 3.53339,-2.83948 2.0941,-2.83948 -1.27583,0 -5.54705,2.43359 -5.54705,3.16052 0,1.10122 0.41641,1.0625 3.45295,-0.32104 z"
     style="fill:#000000" />
  <path
     id="path10211"
     d="m 915.67786,383.73492 c 0,-0.51754 -0.66088,-0.94098 -1.46862,-0.94098 -0.89208,0 -1.24351,0.5866 -0.89521,1.49426 0.59029,1.53826 2.36383,1.12315 2.36383,-0.55328 z"
     style="fill:#000000" />
  <path
     id="path10209"
     d="m 951.25634,352.04394 c -0.41517,-0.4125 -1.45792,-2.325 -2.31722,-4.25 -1.2393,-2.77628 -1.65467,-3.11278 -2.00875,-1.62736 -0.38462,1.61349 -1.08138,1.7856 -5.03504,1.24369 -6.35372,-0.87088 -11.79337,-3.66428 -11.42363,-5.86633 0.53706,-3.1986 -2.37144,-1.80704 -3.65768,1.75 -1.31831,3.64573 -3.76431,4.6326 -4.799,1.93623 -0.33005,-0.86007 -0.1115,-2.63609 0.48566,-3.9467 0.96784,-2.12418 0.7378,-2.59985 -2.11854,-4.38065 -1.76236,-1.09874 -4.77928,-3.859 -6.70428,-6.13391 -4.46212,-5.27319 -11.00165,-8.61735 -19.50891,-9.97639 -11.58645,-1.85095 -17.69109,-6.15372 -17.69109,-12.46932 0,-4.40048 2.89124,-16.56693 5.26138,-22.1401 l 1.74824,-4.11084 -2.90481,-2.54893 c -1.59764,-1.40191 -2.90481,-3.21243 -2.90481,-4.02336 0,-3.41759 8.65525,-18.12625 17.98245,-30.55923 8.97424,-11.96247 12.19224,-17.60887 8.86304,-15.55131 -0.63498,0.39244 -0.88951,0.28475 -0.56562,-0.23931 0.32388,-0.52406 2.91815,-2.0438 5.76504,-3.37721 l 5.17616,-2.42439 3.13946,3.96814 c 1.72671,2.18247 4.43698,5.1709 6.02282,6.64095 l 2.88335,2.67282 2.44924,-2.91075 c 1.8276,-2.17198 2.33727,-3.74164 2.00808,-6.18441 -0.53682,-3.98343 0.71986,-7.74133 2.58877,-7.74133 0.75748,0 2.19172,0.9 3.18721,2 1.8612,2.0566 7.88464,2.8047 8.9324,1.10938 0.30273,-0.48983 -0.57071,-1.62521 -1.94099,-2.52305 -1.37027,-0.89784 -2.49141,-2.10883 -2.49141,-2.69109 0,-0.58225 -1.575,-2.98073 -3.5,-5.32994 -1.925,-2.3492 -3.5,-4.74299 -3.5,-5.31952 0,-0.57652 1.54194,-1.958 3.42653,-3.06993 2.45624,-1.44922 3.28833,-2.55022 2.93847,-3.8881 -0.29025,-1.10991 0.36833,-2.64143 1.62482,-3.77854 1.95533,-1.76955 2.41876,-1.8039 6.21406,-0.46068 3.56232,1.26077 4.26897,2.02557 5.37843,5.82102 0.89591,3.06486 0.98128,5.14811 0.28592,6.97703 -1.60039,4.20934 -0.64522,13.23704 1.69236,15.99522 0.15932,0.18799 1.89807,-0.2398 3.86389,-0.95065 5.06989,-1.8333 6.26328,-0.41924 4.61489,5.46822 -1.93972,6.92801 -0.26691,10.59473 7.27418,15.9447 3.40255,2.41391 7.51965,5.0205 9.14912,5.79243 4.97416,2.3564 7.263,6.86309 7.42128,14.61236 0.0763,3.73513 -0.56819,9.49114 -1.43219,12.79114 -2.27852,8.70267 -2.96042,21.21121 -1.49038,27.33903 0.99527,4.14875 2.1917,6.01235 6.13745,9.55991 2.69564,2.42362 4.90117,5.0469 4.90117,5.82951 0,1.70712 -3.2178,4.79059 -8,7.66605 -3.00378,1.80612 -3.5,2.63622 -3.5,5.85499 0,3.43746 -0.37243,3.93832 -4.46189,6.00051 -2.45404,1.2375 -6.18889,2.25 -8.29966,2.25 -2.11077,0 -5.22514,0.71744 -6.92081,1.5943 -2.08559,1.0785 -3.29606,1.24964 -3.74145,0.52897 -0.3931,-0.63604 -2.17874,-0.81861 -4.43134,-0.45306 -3.75392,0.60917 -3.76964,0.6317 -3.12099,4.47102 0.50247,2.97411 0.3261,3.85877 -0.7693,3.85877 -0.78167,0 -1.76091,-0.3375 -2.17608,-0.75 z"
     style="fill:#000000" />
  <path
     id="path10207"
     d="m 979.42786,261.33018 c 2.8875,-1.34433 5.25,-2.68993 5.25,-2.99024 0,-1.81211 -5.01366,-4.92249 -10.79707,-6.6983 -5.21158,-1.60023 -7.65475,-3.04636 -10.98089,-6.49967 l -4.27797,-4.44152 -1.95007,4.29675 c -1.88667,4.15702 -2.64951,7.78559 -1.36722,6.50329 1.09832,-1.09832 5.71812,1.97781 10.83563,7.21499 2.72932,2.79316 5.65432,5.07406 6.5,5.06869 0.84567,-0.005 3.90009,-1.10967 6.78759,-2.45399 z"
     style="fill:#000000" />
  <path
     id="path10205"
     d="m 926.59493,255.5402 c 6.50916,-4.27889 9.59796,-5.65042 12.83293,-5.69823 2.23266,-0.033 3.25,-0.52798 3.25,-1.58127 0,-2.30949 -4.87771,-11.46676 -6.10788,-11.46676 -0.59081,0 -2.93518,1.59294 -5.20972,3.53986 -5.77689,4.94481 -7.39653,4.37853 -12.1824,-4.25932 -4.16409,-7.51562 -4.76158,-8.04918 -6.8397,-6.10793 -1.00305,0.93699 -0.81618,2.81696 0.92999,9.35605 2.26248,8.47261 3.34815,11.05104 6.61959,15.72134 2.32307,3.31641 2.4076,3.32266 6.70719,0.49626 z"
     style="fill:#000000" />
  <path
     id="path10203"
     d="m 614.67786,350.20748 c -8.13508,-1.25997 -8.68573,-1.51272 -12.82595,-5.88718 -2.37927,-2.51388 -4.15678,-5.12322 -3.95003,-5.79853 0.80851,-2.64084 8.87745,-5.51486 19.00336,-6.76869 5.64994,-0.69959 10.36692,-1.3334 10.48218,-1.40846 0.99327,-0.64683 -5.4209,-16.55312 -7.93812,-19.68547 -3.15581,-3.92698 -3.20348,-4.14354 -2.98668,-13.57038 0.2244,-9.7575 1.75165,-17.29483 3.50437,-17.29483 0.55301,0 0.72754,-1.50985 0.40458,-3.5 -0.31239,-1.925 -0.16378,-3.5 0.33024,-3.5 0.49402,0 3.38437,2.025 6.423,4.5 3.03864,2.475 5.75615,4.5 6.03892,4.5 0.28277,0 0.51413,-1.15458 0.51413,-2.56574 0,-4.14564 1.63587,-6.1276 9.35917,-11.33923 6.14213,-4.14467 10.64083,-8.57554 10.64083,-10.48039 0,-0.25065 -1.28676,-0.73835 -2.85946,-1.08377 -3.14456,-0.69066 -6.83103,-4.22768 -9.74901,-9.35379 -1.6729,-2.93885 -2.23829,-3.24658 -4.89153,-2.66245 -5.14961,1.13372 -11.79582,1.05151 -12.2046,-0.15096 -0.45674,-1.34356 4.82514,-3.36367 8.7948,-3.36367 2.98228,0 4.63042,-1.43659 2.88543,-2.51506 -0.58134,-0.35929 -0.78234,-1.51861 -0.44665,-2.57627 0.33569,-1.05766 -0.096,-3.33892 -0.95932,-5.06948 -0.86332,-1.73056 -1.56966,-3.97733 -1.56966,-4.99283 0,-1.37661 -0.74825,-1.84636 -2.94099,-1.84636 -3.46809,0 -3.61689,0.19374 -5.48647,7.14362 -0.79251,2.94601 -1.47743,4.90638 -1.52205,4.35638 -0.0446,-0.55 -0.48993,-1.64606 -0.98959,-2.4357 -0.78739,-1.24434 -1.13778,-1.24539 -2.62893,-0.008 -1.56828,1.30156 -1.65451,1.20742 -0.97485,-1.0643 0.41009,-1.37069 2.05,-4.15327 3.64425,-6.18352 1.59424,-2.03009 2.89863,-4.32924 2.89863,-5.10905 0,-0.77982 1.70605,-3.39371 3.79123,-5.80864 2.08518,-2.41493 5.21933,-7.31579 6.96477,-10.89079 4.98065,-10.20131 12.48513,-13.84978 17.71995,-8.61495 3.23515,3.23514 4.972,9.89119 3.6046,13.8137 -0.90948,2.60895 -0.75258,3.25353 1.18563,4.87079 1.2286,1.02516 2.55976,1.87889 2.95814,1.89719 0.39837,0.0183 1.40855,1.35644 2.24484,2.97364 1.0928,2.11325 1.5923,6.72586 1.77568,16.39741 0.22012,11.60897 0.51677,13.74578 2.16014,15.55962 2.74995,3.03521 4.29385,2.61326 6.53871,-1.78703 1.27411,-2.49745 3.05307,-4.26219 4.97025,-4.93052 2.63093,-0.91715 3.42976,-0.68816 6.7195,1.92619 2.05348,1.6319 4.25547,2.76683 4.89331,2.52207 0.63784,-0.24476 3.67735,-0.75958 6.75446,-1.14404 5.14198,-0.64245 5.80209,-0.49168 8.15677,1.863 3.26215,3.26215 3.31755,7.50937 0.1846,14.15293 -2.71424,5.75565 -5.95987,9.0632 -9.83789,10.02557 -2.23775,0.55532 -3.23525,0.10457 -5.67163,-2.56293 -3.47416,-3.80372 -6.55153,-3.55784 -5.54733,0.44323 0.82307,3.27935 -0.25954,6.36217 -2.48194,7.06754 -1.41697,0.44972 -1.92327,1.93813 -2.31366,6.80151 -0.90104,11.22505 -5.46321,18.62553 -11.56719,18.7636 -0.93662,0.0212 -2.61362,1.48369 -3.72666,3.25 l -2.02371,3.21148 5.02371,2.00095 c 3.01325,1.20019 5.4189,2.90132 6.01118,4.25077 0.82475,1.87911 1.51717,2.15044 4.20235,1.64669 2.54988,-0.47836 4.23679,0.0591 8.15511,2.59804 4.29524,2.78322 5.19286,3.97172 6.87534,9.1033 1.91264,5.83355 1.91267,5.92247 0.002,7.6512 -1.62883,1.47407 -3.9207,1.74563 -14.5777,1.72732 -14.01586,-0.0241 -21.72924,-1.45956 -27.39501,-5.09829 -6.38615,-4.10137 -4.86113,-8.2606 4.5,-12.27296 2.6125,-1.11977 4.75,-2.45086 4.75,-2.95798 0,-1.72684 -6.48514,-1.96925 -11.89291,-0.44455 -2.9661,0.83628 -7.1286,1.28771 -9.25,1.00317 -2.95037,-0.39579 -3.85664,-0.17437 -3.85664,0.94236 0,2.78017 4.05657,10.34998 5.54643,10.34998 2.07201,0 3.84187,4.31673 3.0551,7.45147 -0.80362,3.20189 -6.97858,10.17503 -10.72672,12.11327 -3.2339,1.67231 -6.26686,1.64665 -17.87481,-0.1512 z"
     style="fill:#000000" />
  <path
     inkscape:connector-curvature="0"
     id="path10201"
     d="M219.76556 304.42566L217.431 301.61951L215.76635 299.6387L213.64422 301.94964L212.418667031 303.173313281L211.34509875 303.86508375L210.096058594 304.164729844L208.34409 304.21203L205.87145375 303.94956L204.38932 303.3867L202.75386 302.83809375L199.91261 302.60991L196.27472625 302.2155L192.78169 300.90018L189.6046175 298.86050625L189.302129688 298.224197344L189.99522 297.98802L191.57027125 296.9343175L194.45204 294.40094L198.0619175 291.32115L201.38753 288.95371L203.9616075 287.04311875L204.407814687 286.128842031L204.52381 284.94769L204.29349 283.32234125L203.54651 282.80181L202.8449725 282.416655L202.5561 281.48127L202.22186625 280.48686375L201.20277 280.16073L199.636 279.84477875L197.7695 279.08515L196.12434 278.00474875L196.304308437 277.555750469L197.06518 276.89566L198.06631 275.7002375L197.55064 274.17468L196.897981562 272.036590313L196.6917475 269.23482L196.928309687 266.437872188L197.60404 264.31425L198.57105 262.25117L196.9372225 261.87328875L192.97619 261.54388L189.291782656 261.208691406L187.04809625 260.50128625L185.783911719 259.151132969L185.03801 256.8877L183.90055125 254.90651625L181.70542 252.68147L179.509425 250.4928225L178.966295312 249.557238125L178.78637 248.71837L178.94104375 247.684580781L179.55648 247.26618625L180.85980125 247.433461094L183.07813 248.15668L185.241792187 248.879776875L186.236255 248.963495L186.230427812 248.310585625L185.39322 246.8238L184.4505375 244.88502875L184.18389 243.45946L184.433923145 243.033104727L184.899457656 242.987714063L186.30139625 243.8812025L188.038436719 245.822677188L189.75931 248.49489L190.936077344 250.547488438L191.81564125 251.5071775L192.784599531 251.592512813L194.22955 251.02205L195.72286875 250.62310875L197.01074 250.71304L197.527961875 251.022533906L197.5562925 251.48617625L195.89737 253.49868L193.64245 255.84626L197.60407 255.37592L200.416182656 255.011696094L201.80990375 254.62012625L202.213187969 253.947863281L202.05399 252.74156L202.234104062 251.205741094L203.093105 249.59464375L204.329175938 248.323489531L205.6405 247.8075L207.008745 247.1286575L209.07185 245.49655L211.29128125 243.8644475L213.03537 243.18561L214.078195 242.882715L214.44095 242.01198L214.111 240.539645625L213.2517225 239.2196025L212.05897625 238.268615625L210.72862 237.90345L209.222752812 237.7091175L207.85809 237.2267175L206.946344687 236.60714625L206.79923 236.0013L206.627881094 234.091604688L205.52393625 230.815685L204.030488281 227.542832813L202.69063 225.64234L201.68665375 224.510418594L201.2802775 222.90325875L201.4681825 220.763942031L202.24705 218.03555L202.796385469 215.829682656L202.86990125 213.70444875L202.470476406 211.696370469L201.60099 209.84197L199.942416875 206.345751875L199.61548875 204.830530938L199.6173325 203.5154025L199.943347812 202.433991875L200.588934375 201.619924375L201.549491875 201.106825313L202.82042 200.92832L205.437672344 201.521307969L207.99875625 203.22846125L210.383172031 205.942063906L212.47042 209.5544L213.964515 212.02319375L214.718077187 212.347233594L215.75228 212.29511L216.714798125 212.036832813L217.4527925 211.5137775L218.67965 209.22874L220.736482187 205.29409L223.4829375 202.0219075L226.528541562 199.78367875L228.041501133 199.168386484L229.48282 198.95089L230.797936562 199.261937031L231.3162475 200.32004875L231.052507187 202.301431094L230.02147 205.38229L228.824098281 208.837275781L228.41698375 211.30719375L228.796062344 213.462702344L229.95727 215.97446L231.179810625 218.728482969L231.59717 220.85904875L231.209029375 222.326672656L230.01507 223.09187L229.16898375 223.428175781L228.6321675 224.07303625L228.03549 227.23113L227.64542 233.0944L227.30225625 234.90640625L226.15858 235.98306L224.36501 237.108682813L222.9556575 238.39594L222.03409375 239.728429688L221.70389 240.98975L222.06501 242.22154375L223.51963 242.53341L224.602695937 242.765370156L225.9236525 243.51185375L229.7922 246.90601L232.404677812 249.659764063L233.8438875 251.74374L234.233528437 253.411713438L233.6973 254.91746L233.821015 256.56658625L235.01315 259.53935L236.87531 264.14918L237.006703906 264.64605457L237.358278125 264.919681563L238.5977225 264.8363775L240.345153125 263.977637188L242.35208 262.42183L246.7249675 259.12572125L248.668476875 258.094667969L250.06272 257.71155L250.732804375 258.035688281L250.6847675 258.81847875L250.033014375 259.775484844L248.89195 260.62227L246.31076625 262.495695L245.774911094 263.319792188L245.93675 263.85594L247.4650875 263.72247875L250.39918 262.95289L254.57937 261.97532L254.08009 263.61108L253.67182 264.78322875L253.73542 265.64844L253.52990125 266.10550125L252.47038 266.29506L251.495147656 266.52649L250.20869625 267.208955L246.81482 269.85604L243.49944125 272.4956825L241.13261 273.84153L239.535327051 273.890836934L237.722757656 273.356458594L235.784229746 272.31415002L233.80907125 270.83966625L231.886610098 269.008762324L230.106174219 266.897193281L228.557091543 264.58071416L227.32869 262.13508L226.17756375 260.20563375L225.506753906 259.808502656L224.66628 259.69236L223.515662812 259.921401875L223.0833 260.673925L223.362109687 262.048025625L224.34501 264.1418L225.286492656 266.512824688L225.60547625 268.9216325L225.301826719 271.323544063L224.37541 273.67388L223.47629875 275.7429L223.613001719 276.19123625L224.11963 276.47806L224.7847925 276.9875975L224.36259 277.82868L223.93398125 278.713155L224.01493 279.50046L224.12767875 280.24946375L223.77551 281.04184L223.566119219 281.537432188L223.69781625 282.159675L225.07267 283.98413L226.71561875 285.48069625L227.88468 286.10316L229.122420937 286.713632656L231.0006975 288.36384625L235.57737 293.69627L239.44321 298.25543L240.85182 299.97089L240.596973945 300.422458516L239.894463437 300.908835L237.518615 301.8688675L234.468606562 302.61669875L231.48877 302.91804L228.63981125 303.11600375L227.898868281 303.356102344L227.64642 303.68374L227.33962625 304.34224625L226.60201 304.85022L224.861900781 305.199699375L222.76036375 305.2217025L220.870549844 304.951824375L219.76561 304.42566L219.76556 304.42566"
     style="fill:#000000" />
  <path
     id="path10199"
     d="m 798.27144,323.41067 c 0.29194,-0.76079 -0.1473,-3.00622 -0.97611,-4.98982 -1.072,-2.56567 -1.95579,-3.43432 -3.06219,-3.00975 -0.85541,0.32825 -1.55528,0.99867 -1.55528,1.48983 0,0.49115 -1.15052,0.89301 -2.5567,0.89301 -2.43805,0 -2.48486,0.10258 -1.00862,2.21021 2.84046,4.05532 8.15186,6.03083 9.1589,3.40652 z"
     style="fill:#000000" />
  <path
     sodipodi:nodetypes="ssssssscsssscsssssscssssssssssssssssssssssssssssssssssscsssssssssscssssscssscsss"
     inkscape:connector-curvature="0"
     id="path10197"
     d="M102.03142 196.71259L98.120361 195.58994L96.0577495 194.75380875L93.844766 193.30981L92.546445168 191.986516445L92.0154314063 190.728003438L92.2610936914 189.526864961L93.292801 188.375695L95.1199223086 187.267087539L97.7518265937 186.193636562L105.46746 184.12258L108.094693594 183.456189375L109.90252125 182.5773875L111.503890781 181.054339375L113.51175 178.45521L116.643214063 173.546258125L120.1979125 167.167895L122.999389688 161.541976875L123.87119 158.89036L117.48178 158.16554L111.42136 157.72811L103.48619 166.85863L96.7938066719 174.354639531L94.3626972207 176.673470137L92.190303375 178.24569625L90.0131207324 179.225951582L87.5676448906 179.768869844L80.817796 180.16123L73.4935971406 180.0818075L68.379649875 179.2876425L66.5294050332 178.587453828L65.0851844219 177.66648625L63.9981418184 176.510708672L63.219431 175.10609L62.5952189102 173.23417043L62.5243212188 171.738684063L63.108957793 170.576449414L64.4513485 169.704285L66.653713207 169.079009336L69.8182717813 168.657440937L79.44285 168.2527L84.622759 168.1671L93.718196 160.09889L100.141846375 154.06021375L102.095943453 151.958236719L102.81363 150.87153L102.1016725 149.6614675L100.38995 148.3799L96.3958583281 145.8245175L95.1978182012 144.599723516L94.488970625 143.2825075L94.2367071582 141.777104297L94.4084193594 139.98774875L95.893337 135.17412L97.12094325 130.6150725L97.698022 125.97327L97.6925494531 123.353767969L97.400605875 121.58087625L96.6564428594 120.140573906L95.294312 118.51884L93.37318575 116.7117375L92.299141 116.23509L91.4794102969 118.465667969L90.568546625 122.82258125L89.8193306406 127.873328906L89.484543 132.18541L89.0075746719 138.858440156L88.5153853301 141.146827949L87.879811375 142.69364375L87.1201669355 143.466772207L86.2557661406 143.434097969L85.3059231191 142.563505684L84.289952 140.82288L83.6214356094 139.179492813L83.338278875 137.603555L83.824622 132.8911L85.265800625 127.54571625L87.499754 121.88057L90.298254 115.3327L89.264269 113.82126L86.778305 111.10718L84.23421575 108.033925L83.5143056563 106.742334688L83.258357 105.75975L83.6175044063 103.911025625L84.54482575 102.219205L85.8151397188 100.984186875L87.203265 100.50587L87.9339546875 100.326174531L88.62979825 99.79110675L89.893991 97.678966L90.5918430469 96.1970386406L91.263763375 95.388264125L92.1195775156 95.1022832969L93.369111 95.188737L95.2364658906 95.07597175L95.9077165137 94.5973988906L96.439398875 93.759407L97.1902076719 90.7712895L97.70119 85.643866L98.1805673633 81.2685486172L98.9253145313 77.8545838125L99.9554303711 75.3876193516L101.29091375 73.853303L102.951763535 73.2372825234L104.957978594 73.5252056875L107.329557793 74.7027202578L110.0865 76.755474L113.4529 79.954215L113.847760313 80.8621495313L113.57378 81.571599L112.367762656 82.1679063281L110.29758875 82.321085625L107.642435469 82.0387663594L104.68148 81.328578L103.460222031 81.2196189844L102.58524375 82.122277125L101.810816094 84.5296919531L100.89121 88.935003L100.258582125 93.501487L100.505945172 94.558212L101.15087 95.333966L102.72936875 97.40663525L104.73878 100.77173L106.389975156 103.443285938L107.91227625 104.712805L109.713174219 104.739191563L112.20016 103.68135L114.296144375 102.327064219L116.322975 100.60984425L117.852818125 98.9374311563L118.45784 97.717566L118.78781375 96.7860535L119.58116 95.854106L120.890000781 95.4013571406L122.31618375 95.761970625L123.462892344 96.7308942969L123.93331 98.103076L124.277975 99.26166275L125.10663 100.00653L125.773574238 100.437546602L126.173120156 101.087848438L126.20507625 102.89008L125.272616719 105.100769063L123.44586 107.40746L119.47001 111.98409L117.6486975 113.7060925L114.8731 115.39925L111.41794 117.42523L113.84385 122.43982L116.0633825 126.00865L116.974415625 126.837056875L117.81508 127.10104L119.5957775 127.79036125L121.70703 129.44767L124.40013 131.7943L127.84437 133.74983L129.611511055 134.724176152L131.392190313 135.364764219L133.308138164 135.658592363L135.481085 135.59265875L141.084897188 134.329498906L149.17747 131.47127L153.83856 130.0421025L157.60559 129.44767L159.259382188 129.371555469L160.328465 129.06544125L161.028000313 128.412671406L161.57315 127.29659L162.180202344 123.912942188L161.93790875 119.5662175L160.923120781 114.812749063L159.21269 110.20887L157.59344125 106.3921125L157.14591 104.57865L158.389871094 105.857299063L160.71143875 109.4840575L163.148309531 113.991994688L164.73818 117.91418L165.23282 121.547445L165.11981 125.69491L164.685813125 127.890150625L164.162195 129.5782075L163.870356875 130.891583125L164.1317 131.96278L165.3239275 135.4077375L166.56225 141.18083L168.279860469 150.466614063L169.190041348 153.682110195L170.39343625 156.427575L172.084267871 159.06418293L174.456758906 161.953108438L182.02361 169.93261L187.162822656 175.318554531L189.91030875 178.53920125L190.972235469 180.567582344L191.05477 182.37673L190.821307969 183.886703906L190.32718625 184.97407625L189.426131406 185.844062969L187.97187 186.70188L184.563565 187.971341094L180.234635 188.93417125L175.85958 189.442555781L172.3129 189.34868L168.560355 188.445285L164.6864675 187.035175L161.50982875 185.4644375L159.84903 184.07916L159.44867625 182.35938625L159.711224531 181.580587734L160.29945 180.8393075L162.50451375 179.41968L166.16703 178.00126L171.75528 176.16921L167.71872 172.16816L164.33163625 168.423315L161.85659 165.03826L160.258869375 161.5760825L158.88787 157.302975L157.929175625 152.9093425L157.56837 149.08559L157.31995 146.7929425L157.044696563 146.118306875L156.7001 145.8741L154.065076563 146.746734531L150.317205 148.92344375L146.463485938 151.742436094L143.51092 154.54192L140.29344 158.35766L144.93019 163.34183L149.040139531 168.078056563L150.233948887 169.821941445L150.87797625 171.23156L150.990467832 172.36832668L150.589669844 173.293655938L149.693828496 174.068962227L148.32119 174.75566L145.455635469 175.604480313L141.47348375 176.3773725L137.164847656 176.946448438L133.31984 177.18382L129.7999 177.21412L126.44883 184.42374L122.45532 192.80668L121.31355793 193.87289084L119.247275313 194.873663594L113.383775 196.47950125L106.950072188 197.225405781L104.171036445 197.151262129L102.03142 196.71259L102.03142 196.71259"
     style="fill:#000000" />
  <path
     sodipodi:nodetypes="ssccsssssssssssssscsssscssssssssssssssssscss"
     inkscape:connector-curvature="0"
     id="path10195"
     d="M295.31632 190.25781L292.818989492 189.218186211L290.621027813 187.781611562L288.781785977 186.047538633L287.360615 184.11542L286.416865898 182.084708242L286.009889688 180.054855938L286.199037383 178.125315664L287.04366 176.39554L288.681243594 174.537881406L290.48543125 173.13880375L292.477720781 172.184984219L294.67961 171.6631L297.259627813 171.15698125L298.94432 171.133405L301.82663 171.46171L305.0117475 170.94931625L308.65708 169.57545L310.900643281 168.402184844L312.36952125 167.19068375L313.578548594 165.355143281L315.04256 162.30976L317.382522656 157.149978125L318.30565375 154.58781L318.284096426 153.997283047L317.966157969 153.715901875L316.51824 153.6269L314.03304625 153.223837188L313.286714062 152.632693555L312.851435 151.704195L312.85466625 148.602292813L313.924 143.45245L315.280718594 137.938061563L315.59423875 135.164505L315.297085059 134.382636523L314.663874531 133.778493438L312.28894 132.42674L309.260479687 130.301900781L306.93041 127.76713125L305.348727812 124.891578594L304.56543 121.74439L304.289214688 119.771230937L303.9315775 118.865965L303.334671563 118.881459063L302.34065 119.67058L300.64849125 120.5142725L298.17115 121.10286L295.25935875 121.11786375L292.7444 119.88573L290.484616875 117.882130469L288.757945 115.37567375L287.652880625 112.533507656L287.25792 109.52278L287.387310156 107.366027109L287.787839375 105.478671875L288.454533281 103.866314453L289.3824175 102.534555L290.566517656 101.488993672L292.001859375 100.735230625L293.683468281 100.278866016L295.60637 100.1255L298.851478437 100.650257969L300.241716289 101.322854551L301.4929025 102.28372875L303.625597812 105.114707656L305.34452 109.23199L305.641559531 109.747762813L306.13304875 109.7068575L308.27241 107.64428L310.65634125 105.3555325L312.82785 103.7934L314.84809 102.74869L312.74122 101.46743L310.888828887 99.9406058242L309.558264219 98.0225665313L308.750772754 95.8521877227L308.46760125 93.568345L308.709996465 91.3099139648L309.479205156 89.2157702188L310.776474082 87.4247893633L312.60305 86.075847L314.499756973 85.3320629102L316.430019531 85.0182232813L318.348945137 85.1173659492L320.21164125 85.61252875L321.973215332 86.4867495195L323.588774844 87.7230660938L325.013427246 89.3045163086L326.20228 91.214138L327.172931875 93.7746505781L327.3936475 96.218327875L326.861614375 98.5886782344L325.57402 100.92921L324.23612 102.80811L326.19891 103.8231L328.450969062 105.421061563L330.729535 107.738695L332.664225937 110.343293438L333.88466 112.80215L334.39300625 115.70085125L334.42544 119.06504L334.343215 121.44045625L334.6128075 122.5564725L335.25878375 122.439905L336.30571 121.11757L337.556398594 119.721805469L338.92623125 119.11389625L340.353793281 119.303036406L341.77767 120.29842L342.89518375 121.9188425L342.99713 123.66678L342.327311875 125.241607188L341.0997525 126.96866L339.720786875 128.361565313L338.59675 128.93395L338.17838125 129.20675875L338.00437 129.86266L337.572952031 130.957925938L336.48571625 132.399975L335.053189844 133.834329062L333.5859 134.90651L332.956727969 135.351414219L332.86086875 135.85671125L334.55041 137.93054L336.912843125 140.683239219L338.1633675 143.29152125L338.561288125 146.702177656L338.36591 151.862L337.921413594 156.855762969L337.17954125 159.84492125L336.601774355 160.800424121L335.835285781 161.509956406L333.58364 162.53135L331.617933437 163.753649062L330.151275 165.648565L329.492816562 167.649365938L329.563272305 168.51236957L329.95171 169.18932L330.5494325 169.624165469L331.27647 169.71149375L333.93566 168.75439L336.15238291 167.969460078L338.434168906 167.5654275L340.712392637 167.526901797L342.91842875 167.8384925L344.983651895 168.484809141L346.839436719 169.45046125L348.417157871 170.720058359L349.64819 172.27821L350.62633625 174.215855469L350.9553425 175.91222125L350.6358725 177.603646406L349.66859 179.52647L347.780533613 181.714473809L345.097335781 183.561732344L341.800254746 185.02962002L338.07054875 186.07951125L334.089476035 186.672780449L330.038294844 186.770802031L326.098263418 186.33495041L322.45064 185.3266L318.90201 183.97823L316.65644 186.29507L314.775283867 187.879273984L312.518393437 189.180425625L309.961298164 190.184499453L307.1795275 190.87747L304.248610898 191.245311797L301.244077812 191.273999375L298.241457695 190.949507266L295.31628 190.25781L295.31632 190.25781"
     style="fill:#000000" />
  <path
     id="path10193"
     d="m 765.02054,143.68367 c 2.00808,-0.91494 4.65732,-4.5764 4.65732,-6.43678 0,-0.24912 -1.2596,-0.45295 -2.79911,-0.45295 -2.26251,0 -3.02933,0.63665 -4,3.321 -1.87081,5.17363 -1.76555,5.34903 2.14179,3.56873 z"
     style="fill:#000000" />
  <path
     inkscape:connector-curvature="0"
     id="path10191"
     d="M207.5842 188.26597L203.785771719 187.025687656L201.01776375 185.63801625L199.324473906 184.131689219L198.7502 182.53544L199.22130625 181.136264844L200.73861 180.36753125L203.45808875 180.194569531L207.53572 180.58271L213.00440875 181.02873375L217.8139 180.91894L220.696928437 180.458523437L222.3998 179.9137825L222.705367383 179.664277305L222.591924063 179.459075313L220.94271 179.26876L219.776259219 179.064750156L218.44614625 178.36931125L214.54415 175.00369L212.10327 172.573278594L210.780325 170.92441875L210.2356475 169.497767031L210.12957 167.73398L210.53121375 164.84707125L211.83027 162.22321L217.30465875 155.0012275L223.95687 147.02041L226.0263725 144.3220275L226.91971 142.43081L226.8943775 137.486855L226.567795937 136.130250312L225.97143 135.04619L225.14354875 132.89329L224.85581 129.68895L224.55105875 126.4194025L223.81835 123.84485L223.12071625 121.75748375L223.88145 119.63693L224.55579125 117.88644125L224.509851094 117.369519219L224.21575 117.03506L221.76735875 117.07671875L216.95685 117.84191L207.45204 119.21962L205.712628125 119.236324844L204.795265 118.99723375L204.402204375 118.286563281L204.2357 116.88853L204.389593437 114.867792969L205.5210275 113.14069125L208.053255312 111.294401406L212.40953 108.9161L216.866092031 106.500757812L219.34665625 104.6928425L220.343309844 102.996425937L220.34814 100.91558L220.322623555 99.2997730059L220.629303437 97.8086619844L221.8865975 95.566269625L222.660884336 94.9978591699L223.414712812 94.9198864531L224.059919258 95.423786916L224.50834 96.600996L225.23497 100.07439L225.85148875 101.84916875L226.80127 103.5886L228.179107969 106.157930469L229.21944875 109.13190375L229.740075156 111.846472656L229.55877 113.63759L228.9067975 115.242075L229.024684687 115.578409062L229.43396 115.67818L230.06274875 115.16915125L230.78543 113.94532L232.43630875 111.347111406L234.9081975 108.39405625L237.38513 105.972347969L239.05114 104.96818L240.24934375 104.30195625L241.40563 102.45803L243.8438 98.452946L244.82005 96.6045275L245.10489 94.014008L245.364665 91.47597775L245.848498125 90.8225014062L246.67213 90.335628L247.644173125 89.7845432031L248.18218 89.100204875L248.377421875 88.0690858594L248.32117 86.477659L248.562412344 85.0522694375L249.44569125 83.9110635L250.851189531 83.1534443125L252.65909 82.878815L254.283302656 83.1371010781L255.42352625 83.924526125L256.095856719 85.2599403594L256.31639 87.162194L256.68677375 88.58566925L257.65514 89.572562L258.532223125 90.3801839687L258.94755 91.45237425L258.859896875 92.5199531562L258.22804 93.313741L255.60012 93.734112L254.578045156 93.759418625L254.06600875 94.02598L253.948680469 94.707528375L254.11073 95.977796L254.18948875 97.80407475L253.922811406 98.1698205312L253.42092 98.274436L252.825066406 98.6239893437L252.55766125 99.96969025L252.90845 107.43178L253.39399875 108.05266625L254.47561 108.43584L255.300803906 108.68548625L255.77904125 109.3847575L256.18044 113.60519L256.1225275 117.346695L255.67841 119.26141L255.18722375 120.06109875L254.99036 120.99971L255.146151875 121.164881562L255.56093 120.8476325L256.91486 119.02505L260.2956875 114.71525875L262.0636025 113.161689219L263.82176 112.07085L265.29641625 110.7171325L266.6917 108.50666L267.821441875 106.670543437L268.97485 105.775885L270.068528125 105.853024062L271.01908 106.9323L271.587737031 108.419120469L271.61428375 109.78662625L271.089346094 111.084946406L270.00355 112.36421L268.8756925 113.727012187L268.73482 115.3201675L269.7238525 117.836066562L271.98571 121.9671L274.110386406 125.942342188L275.24492125 128.8447975L275.521060469 131.161941562L275.07055 133.38125L274.604795938 134.650351719L274.1580375 135.24781625L273.526827813 135.295382656L272.50772 134.91479L269.73586125 133.03032L265.59895 129.59284L261.731187031 126.439551875L259.13253375 125.053965L258.259968066 125.011502891L257.645693594 125.395898125L257.270048262 126.202128047L257.11337 127.42517L256.9594525 129.223737813L256.575405 130.396515L255.8312075 131.167502187L254.59684 131.7607L253.193815 132.85868125L252.05266 134.64988L251.16172875 136.39748375L250.36031 137.39064L249.83933 138.38921875L249.62264 140.14985L249.462283906 141.660305L249.06729875 142.3787225L248.566809219 142.22384375L248.08994 141.11441L247.616715469 140.020781719L247.03073125 139.93832875L246.328506406 140.869341406L245.50656 142.81611L244.41322 145.85656L250.53215 150.74508L255.885983281 155.252995625L259.79705375 159.056305L262.195169844 162.079066875L262.804935137 163.274010859L263.01014 164.24534L262.678618281 166.320192344L261.69515625 168.64841625L260.076408594 171.198792031L257.83903 173.9401L254.917175 176.68982375L253.711320625 177.150350781L252.23811 177.26064L250.409619531 177.4391175L249.70655375 177.88992L250.159266094 178.4861025L251.79811 179.10072L253.428535937 179.416152031L255.5439175 179.49112375L264.48937 178.85711L268.199807656 178.77399625L270.87914625 179.24973L272.503941719 180.27612875L272.913559512 180.993270469L273.05075 181.84501L272.660151094 183.017082656L271.59079375 184.29225875L269.996337031 185.525822969L268.03044 186.57306L264.747270156 187.421163594L260.39208875 187.79470375L255.703942969 187.673092031L251.42188 187.03574L244.39345 185.92473L241.96178875 185.66338625L239.58202 185.08801L237.66540125 184.0597125L237.285204531 183.327635312L237.14331 182.28095L237.20718125 181.220099375L237.56008 180.30749L239.42657 178.43204L241.4423075 177.1319925L242.94773 176.59126L243.747812246 176.255952637L244.704502344 175.355716094L246.71802125 172.49456875L248.248917031 169.276044531L248.602328223 167.929086895L248.55782 166.96837L247.92551875 166.317689922L246.65155875 165.81434875L242.588215 165.2688925L237.18689375 165.37042L231.2667 166.15735L228.317418125 166.901370312L226.328125 167.836455L225.208141875 169.024522187L224.86679 170.52749L225.374081094 172.337149062L226.60740125 174.5382275L228.178920781 176.548419687L229.70081 177.78542L231.616674687 179.0206775L233.532875 180.7150175L234.954135312 182.37122375L235.38518 183.49208L234.351840781 184.881301406L232.10674625 186.03034375L228.391953594 187.032301719L222.94952 187.98027L216.838604219 188.853314219L213.14200875 189.17518625L210.507831406 188.971025156L207.58417 188.26597L207.5842 188.26597"
     style="fill:#000000" />
  <path
     id="path10189"
     d="m 620.34014,65.543944 c -0.27742,-0.6875 -0.50439,-0.125 -0.50439,1.25 0,1.375 0.22697,1.9375 0.50439,1.25 0.27741,-0.6875 0.27741,-1.8125 0,-2.5 z"
     style="fill:#000000" />
</svg>
