<?xml version="1.0" encoding="UTF-8" standalone="no"?>
<!-- Created with Inkscape (http://www.inkscape.org/) -->

<svg
   xmlns:dc="http://purl.org/dc/elements/1.1/"
   xmlns:cc="http://creativecommons.org/ns#"
   xmlns:rdf="http://www.w3.org/1999/02/22-rdf-syntax-ns#"
   xmlns:svg="http://www.w3.org/2000/svg"
   xmlns="http://www.w3.org/2000/svg"
   xmlns:sodipodi="http://sodipodi.sourceforge.net/DTD/sodipodi-0.dtd"
   xmlns:inkscape="http://www.inkscape.org/namespaces/inkscape"
   id="svg8506"
   version="1.1"
   inkscape:version="0.91 r13725"
   width="564"
   height="846"
   viewBox="0 0 564 846"
   sodipodi:docname="multe1.svg">
  <metadata
     id="metadata8512">
    <rdf:RDF>
      <cc:Work
         rdf:about="">
        <dc:format>image/svg+xml</dc:format>
        <dc:type
           rdf:resource="http://purl.org/dc/dcmitype/StillImage" />
        <dc:title></dc:title>
      </cc:Work>
    </rdf:RDF>
  </metadata>
  <defs
     id="defs8510" />
  <sodipodi:namedview
     pagecolor="#ffffff"
     bordercolor="#666666"
     borderopacity="1"
     objecttolerance="10"
     gridtolerance="10"
     guidetolerance="10"
     inkscape:pageopacity="0"
     inkscape:pageshadow="2"
     inkscape:window-width="1360"
     inkscape:window-height="746"
     id="namedview8508"
     showgrid="false"
     inkscape:zoom="0.7890175"
     inkscape:cx="765.66094"
     inkscape:cy="736.22781"
     inkscape:window-x="1432"
     inkscape:window-y="-8"
     inkscape:window-maximized="1"
     inkscape:current-layer="svg8506" />
  <path
     style="fill:#000000"
     d="m 567.12897,846.13738 -3.25,-0.4138 0,-19.3153 0,-19.3154 -2.75,-1.1125 c -1.5125,-0.612 -3.875,-1.3081 -5.25,-1.5471 -1.375,-0.2389 -2.725,-0.4815 -3,-0.5391 -0.275,-0.058 0.34149,-0.5936 1.36998,-1.1911 1.50989,-0.8773 1.60617,-1.2536 0.5,-1.9543 -1.06375,-0.6739 -0.96018,-0.8713 0.46335,-0.8832 1.01096,-0.01 1.64777,-0.572 1.41965,-1.2564 -0.22753,-0.6826 0.15282,-1.8076 0.84523,-2.5 1.91963,-1.9196 2.60283,-1.50306 1.35595,0.8267 -1.75926,3.2873 -0.68638,3.1 3.33225,-0.5815 3.79119,-3.47323 4.80605,-6.87091 2.33545,-7.81897 -0.75798,-0.29086 -1.88298,-0.024 -2.5,0.59301 -2.12107,2.12107 -1.12036,-0.65089 1.12814,-3.12494 1.2375,-1.36164 1.6875,-2.15158 1,-1.75543 -0.6875,0.39614 -1.25,0.24371 -1.25,-0.33875 0,-0.58246 0.49303,-1.05902 1.09563,-1.05902 1.66769,0 6.90437,-3.98584 6.90437,-5.25519 0,-0.61544 -1.35691,0.18101 -3.01536,1.76991 l -3.01536,2.8889 0.60189,-3.45181 c 0.97066,-5.56661 1.23859,-5.9725 3.64691,-5.52472 1.25505,0.23336 3.51942,0.45773 5.03192,0.4986 2.05856,0.0556 2.75,0.57717 2.75,2.07431 0,3.40463 3.49658,2.31232 9.16941,-2.86446 l 5.33059,-4.86447 18.5,17.84304 18.5,17.84309 -4.75,0.021 -4.75,0.021 0,20.5314 c 0,15.5526 -0.30312,20.6249 -1.25,20.9172 -1.85934,0.5739 -46.72673,1.3189 -50.5,0.8385 z"
     id="path9351" />
  <path
     style="fill:#000000"
     d="m 589.87897,819.77888 c 0,-2.2802 -1.40668,-4.0055 -4.70489,-5.7707 -3.59414,-1.9235 -4.29511,-1.3781 -4.29511,3.3421 l 0,4.5 4.5,0 c 3.88506,0 4.5,-0.2831 4.5,-2.0714 z"
     id="path9349" />
  <path
     style="fill:#000000"
     d="m 602.87897,819.42288 c 0,-2.7155 -4.18708,-6.5726 -7.13486,-6.5726 -1.54387,0 -1.86514,0.7751 -1.86514,4.5 l 0,4.5 4.5,0 c 4.09745,0 4.5,-0.2171 4.5,-2.4274 z"
     id="path9347" />
  <path
     style="fill:#000000"
     d="m 589.87897,806.43188 c 0,-1.6672 -1.04622,-3.0651 -3.36803,-4.5 -4.87665,-3.014 -5.63197,-2.6896 -5.63197,2.4184 l 0,4.5 4.5,0 c 4.09286,0 4.5,-0.2188 4.5,-2.4184 z"
     id="path9345" />
  <path
     style="fill:#000000"
     d="m 602.87897,806.41788 c 0,-1.543 -1.06166,-3.1879 -2.90437,-4.5 -4.68769,-3.3374 -6.09563,-2.7757 -6.09563,2.4324 l 0,4.5 4.5,0 c 4.09973,0 4.5,-0.2163 4.5,-2.4319 z"
     id="path9343" />
  <path
     style="fill:#000000"
     d="m 798.75141,843.09978 c -1.24387,-1.5861 -1.2085,-1.6214 0.37756,-0.3776 0.9625,0.7549 1.75,1.5424 1.75,1.75 0,0.8231 -0.82119,0.2933 -2.12756,-1.3724 z"
     id="path9341" />
  <path
     style="fill:#000000"
     d="m 1048.4875,838.47328 c -2.8028,-2.3499 -2.8758,-2.6433 -2.3811,-9.5581 l 0.5104,-7.1337 6.4791,-6.7159 c 3.5635,-3.6937 7.2698,-8.2474 8.2362,-10.1194 0.9664,-1.872 2.6142,-9.29704 3.6617,-16.50004 1.0475,-7.203 2.1226,-13.689 2.3892,-14.41333 0.284,-0.77178 1.6254,-1.18576 3.2403,-1 2.2824,0.26253 2.8085,0.86239 3.0635,3.4925 0.4185,4.31794 2.3683,5.84203 5.3783,4.20412 2.9981,-1.63148 14.6388,-1.62646 17.642,0.008 3.5647,1.93954 5.1719,0.7413 5.1719,-3.85588 0,-3.81264 0.1627,-4.03138 3,-4.03138 2.3841,0 3,0.43256 3,2.10699 0,1.57216 -0.4442,1.95229 -1.75,1.49755 -1.6108,-0.56096 -1.6177,-0.50979 -0.087,0.64301 0.9148,0.68885 2.4213,1.70824 3.3476,2.26531 0.9263,0.55708 1.8116,2.35708 1.9673,4 0.1556,1.64293 0.6016,3.75309 0.991,4.68925 0.3893,0.93617 0.4145,2.17684 0.056,2.75707 -0.3586,0.58022 0.077,1.33484 0.9688,1.67693 0.8915,0.34208 1.3841,1.23891 1.0948,1.99293 -0.2894,0.75403 -0.064,1.37096 0.5015,1.37096 0.5652,0 0.7496,0.45 0.4096,1 -0.3399,0.55 -0.1415,1 0.441,1 0.5825,0 1.059,0.45 1.059,1 0,1.8897 -2.6952,0.9983 -3.7795,-1.25 -1.0504,-2.17804 -1.0873,-2.15685 -1.1528,0.6625 -0.075,3.2496 4.2631,10.6141 8.8317,14.991 2.6593,2.5479 2.9212,2.6263 2.4244,0.7265 -0.3064,-1.1715 -0.9811,-2.13 -1.4994,-2.13 -0.5183,0 -0.688,-0.4116 -0.3772,-0.9146 0.3109,-0.503 0,-1.1164 -0.6909,-1.3631 -0.691,-0.2467 -0.9679,-0.761 -0.6154,-1.143 0.3525,-0.3819 1.6979,0.7899 2.9898,2.6042 1.2918,1.8142 3.8159,4.5867 5.6091,6.1611 1.7931,1.5744 3.2602,3.2981 3.2602,3.8304 0,1.4667 2.1538,3.268 5.5834,4.6695 1.6958,0.693 3.0833,1.9134 3.0833,2.7119 0,1.2216 -0.2512,1.2395 -1.5833,0.1132 -0.8709,-0.7363 -3.4011,-2.2566 -5.6228,-3.3783 l -4.0393,-2.0396 0.3186,6.1241 c 0.2654,5.1001 -0.04,6.5423 -1.8233,8.6242 -1.967,2.2958 -2.7047,2.4716 -9.0293,2.1528 -11.7994,-0.5949 -52.0142,-0.427 -59.8873,0.2501 -6.9644,0.5989 -7.7064,0.4718 -10.3915,-1.7794 z"
     id="path9339" />
  <path
     style="fill:#000000"
     d="m 1128.0031,817.58308 c -0.9877,-0.9802 -1.1025,-0.8654 -0.5598,0.5598 0.3755,0.9862 0.9347,1.5412 1.2425,1.2334 0.3079,-0.3079 7e-4,-1.1148 -0.6827,-1.7932 z"
     id="path9337" />
  <path
     style="fill:#000000"
     d="m 1093.2441,800.77718 c 3.0123,-2.3694 3.6399,-7.32777 1.0531,-8.32041 -2.6508,-1.01719 -8.7735,-0.65074 -11.4094,0.68287 -3.4116,1.7261 -3.6248,4.18504 -0.6231,7.18674 3.1061,3.1061 7.3806,3.2816 10.9794,0.4508 z"
     id="path9335" />
  <path
     style="fill:#000000"
     d="m 876.12964,832.30468 c -7.13546,-1.9215 -12.64995,-4.8653 -17.60008,-9.3955 -2.28283,-2.0892 -5.16309,-4.1125 -6.40059,-4.4963 -1.2375,-0.3838 -2.25,-1.162 -2.25,-1.7294 0,-0.5673 -2.02857,0.9685 -4.50793,3.4128 -11.31986,11.16 -27.86824,15.2955 -43.67093,10.9135 -5.6756,-1.5738 -6.55207,-1.6224 -6.05841,-0.3359 0.37575,0.9792 0.16889,1.2517 -0.59279,0.7809 -0.64347,-0.3977 -1.16994,-1.2873 -1.16994,-1.9769 0,-0.6897 -1.40542,-2.5756 -3.12316,-4.191 -5.86323,-5.5139 -7.50849,-13.6647 -4.12529,-20.4371 3.30176,-6.6094 12.60453,-7.0797 15.85119,-0.8013 1.90208,3.6782 1.17007,6.6876 -1.15695,4.7563 -1.90862,-1.584 -3.35662,-0.3032 -3.64883,3.2276 -0.32297,3.9024 -2.59696,2.2814 -2.59696,-1.8512 0,-4.2061 -1.78671,-6.6001 -3.22633,-4.323 -1.40635,2.2244 -1.16757,6.353 0.49453,8.5505 0.8075,1.0676 1.4825,1.5518 1.5,1.0761 0.0175,-0.4758 1.19919,-0.1001 2.62599,0.8348 1.59887,1.0476 3.52006,1.4674 5.00738,1.0941 2.40055,-0.6025 10.06172,-8.026 13.23526,-12.8247 7.73441,-11.69502 8.24147,-12.2177 13.57122,-13.9892 7.31776,-2.43227 10.3549,-2.20853 17.32928,1.2766 l 6.05677,3.02661 4.75189,-2.52661 c 5.4377,-2.89125 12.93501,-3.37442 17.25367,-1.11192 3.65278,1.91365 7.69408,6.41752 15.11985,16.85052 8.43114,11.8456 14.54562,14.7728 19.00791,9.0999 2.68166,-3.4091 2.62532,-6.0834 -0.17742,-8.4215 -3.03819,-2.5346 -4.21486,-2.4093 -6.22809,0.6633 -1.17585,1.7946 -2.03021,2.2848 -2.74179,1.5732 -1.72827,-1.7283 0.0682,-6.0503 3.18471,-7.6619 3.64854,-1.8867 5.38658,-1.905 8.89014,-0.093 8.2693,4.2762 6.28712,19.358 -3.34721,25.4679 -7.57959,4.8069 -20.96802,6.3326 -31.25709,3.562 z"
     id="path9333" />
  <path
     style="fill:#000000"
     d="m 830.87897,794.47272 c 0,-0.20765 -0.7875,-0.99515 -1.75,-1.75 -1.58606,-1.24387 -1.62143,-1.2085 -0.37756,0.37756 1.30637,1.66575 2.12756,2.19548 2.12756,1.37244 z"
     id="path9331" />
  <path
     style="fill:#000000"
     d="m 1141.879,828.79128 c 0,-0.5825 0.45,-0.7809 1,-0.441 0.55,0.3399 1,0.8165 1,1.059 0,0.2426 -0.45,0.441 -1,0.441 -0.55,0 -1,-0.4766 -1,-1.059 z"
     id="path9329" />
  <path
     style="fill:#000000"
     d="m 1154.879,823.85028 c 0,-0.55 0.4765,-1 1.059,-1 0.5825,0 0.7809,0.45 0.441,1 -0.34,0.55 -0.8165,1 -1.059,1 -0.2426,0 -0.441,-0.45 -0.441,-1 z"
     id="path9327" />
  <path
     style="fill:#000000"
     d="m 1118.6915,806.16718 c 0.7218,-0.2889 1.5844,-0.2534 1.9166,0.079 0.3323,0.3323 -0.2583,0.5687 -1.3125,0.5253 -1.1649,-0.048 -1.4019,-0.285 -0.6041,-0.6042 z"
     id="path9325" />
  <path
     style="fill:#000000"
     d="m 1117.4921,803.66728 c 0.2888,-0.4673 0.944,-0.5907 1.456,-0.2743 1.3084,0.8086 1.161,1.124 -0.5251,1.124 -0.8008,0 -1.2197,-0.3824 -0.9309,-0.8497 z"
     id="path9323" />
  <path
     style="fill:#000000"
     d="m 747.16501,761.45544 c -10.33784,-3.36897 -20.43883,-12.32904 -24.91078,-22.09705 -4.8235,-10.53592 -3.95275,-25.73798 2.0611,-35.98386 3.6448,-6.20967 10.41449,-12.3192 17.54261,-15.83187 5.98371,-2.94872 7.245,-3.19237 16.5,-3.18742 8.76516,0.005 10.73764,0.34056 15.7391,2.68005 6.26514,2.93061 14.59046,10.15068 17.92401,15.54448 1.17029,1.89357 2.90808,5.96473 3.86176,9.04701 1.56519,5.05873 2.11169,5.73414 5.61506,6.93961 2.1346,0.73449 4.65859,2.33625 5.60886,3.55946 2.07438,2.6702 2.31543,9.59892 0.42394,12.18568 -1.52441,2.08475 -3.6517,1.31024 -3.6517,-1.32954 0,-0.96242 -0.66069,-2.62336 -1.4682,-3.69098 -1.88637,-2.49401 -1.88919,-1.70552 -0.0129,3.61244 1.21386,3.44045 1.26407,4.46985 0.25,5.12573 -1.00011,0.64685 -0.95729,1.02101 0.20214,1.76633 0.80907,0.52009 1.20014,1.21652 0.86905,1.54762 -0.3311,0.33109 -1.30188,-0.0979 -2.15728,-0.9533 -2.32988,-2.32987 -3.26921,0.13775 -1.03077,2.70782 1.36109,1.56275 0.8831,1.40079 -1.81425,-0.61474 l -3.66221,-2.73649 -3.6958,5.56796 c -4.42288,6.66335 -9.07146,10.68411 -16.47978,14.25409 -4.44724,2.14307 -7.22269,2.70875 -14.5,2.95532 -5.71953,0.19379 -10.53598,-0.19562 -13.21396,-1.06835 z"
     id="path9321" />
  <path
     style="fill:#000000"
     d="m 768.01414,751.13952 c 7.58878,-2.41938 16.08638,-10.92921 18.27593,-18.30224 4.41721,-14.87435 -1.09627,-28.75329 -13.93278,-35.07269 -15.47698,-7.61929 -32.33917,-1.84332 -39.63393,13.5762 -4.72263,9.98262 -3.7606,21.53021 2.47477,29.70532 7.97266,10.45286 20.04326,14.16548 32.81601,10.09341 z"
     id="path9319" />
  <path
     style="fill:#000000"
     d="m 1174.379,746.84988 c 0.3399,-0.55 0.8165,-1 1.059,-1 0.2425,0 0.441,0.45 0.441,1 0,0.55 -0.4766,1 -1.059,1 -0.5825,0 -0.781,-0.45 -0.441,-1 z"
     id="path9317" />
  <path
     style="fill:#000000"
     d="m 514.33164,740.92646 c 0.34394,-0.55651 -12.42342,-0.96822 -32.13211,-1.03617 -34.5802,-0.11923 -34.64285,-0.12771 -36.46989,-4.93319 -1.61792,-4.25545 0.68254,-7.96088 5.73171,-9.23228 4.04868,-1.01947 4.28854,-1.27032 3.75683,-3.92887 -0.74212,-3.71062 2.65997,-9.28888 6.68093,-10.95441 1.6978,-0.70325 4.62705,-0.98739 6.74116,-0.65389 3.73219,0.58875 3.74218,0.58074 5.7387,-4.59276 2.74503,-7.11309 8.74915,-10.92862 17.32441,-11.00939 10.46113,-0.0985 17.57929,6.03288 19.78039,17.03837 0.44456,2.22282 1.21364,3.22601 2.47315,3.22601 5.81382,0 11.42205,6.75779 11.42205,13.76331 0,3.70596 -0.47886,4.78855 -3,6.78232 -1.65,1.30485 -3.94736,3.29089 -5.10524,4.41341 -2.15346,2.08771 -3.96756,2.77678 -2.94209,1.11754 z"
     id="path9315" />
  <path
     style="fill:#000000"
     d="m 516.87897,734.5399 c 0,-0.55 -0.9,-0.18551 -2,0.80998 -1.1,0.99549 -2,2.25998 -2,2.80998 0,0.55 0.9,0.18551 2,-0.80998 1.1,-0.99549 2,-2.25998 2,-2.80998 z"
     id="path9313" />
  <path
     style="fill:#000000"
     d="m 1169.5396,739.98515 c -2.3136,-0.91085 -8.3474,-10.37666 -9.8905,-15.51614 -1.0727,-3.573 -0.982,-4.02914 1.1432,-5.75 1.2695,-1.02802 2.9334,-1.86913 3.6975,-1.86913 2.9717,0 1.0596,-2.13625 -7.1074,-7.94053 -10.5986,-7.53239 -18.5531,-12.05947 -21.1896,-12.05947 -1.4174,0 -2.2982,0.95444 -2.9374,3.18292 -1.1656,4.0643 -4.4384,5.01619 -12.6986,3.69335 -8.9893,-1.4396 -10.6778,-2.83393 -10.6778,-8.81754 0,-6.65903 0.6025,-7.81532 5.3292,-10.2267 3.339,-1.70344 5.1834,-1.97429 10.1267,-1.4871 10.3803,1.02303 21.5448,5.14042 31.1967,11.50508 9.6604,6.3703 15.6758,12.3039 22.1461,21.84512 3.435,5.06521 4.2013,7.03788 4.2013,10.81574 0,5.43352 -0.9825,7.59241 -4.5058,9.90098 -2.4909,1.63206 -2.6618,1.60945 -4.5971,-0.60839 -1.9455,-2.22944 -1.9761,-2.23327 -0.9536,-0.1192 1.9985,4.13184 1.0306,5.14923 -3.2829,3.45101 z"
     id="path9311" />
  <path
     style="fill:#000000"
     d="m 784.87897,581.24378 c 0,-0.33335 1.29012,-2.24585 2.86693,-4.25 3.74201,-4.75615 6.80367,-10.87113 7.61901,-15.21729 1.66151,-8.8566 -8.20816,-11.83149 -19.78096,-5.96232 -3.18726,1.61643 -7.52701,4.31073 -9.6439,5.98733 -2.11689,1.67661 -4.65991,3.04838 -5.65115,3.04838 -1.42946,0 -1.08942,-0.73869 1.6439,-3.57114 1.89539,-1.96413 5.58367,-5.2066 8.19617,-7.20549 2.6125,-1.99889 4.75,-4.18752 4.75,-4.86364 0,-0.75251 -2.94692,-1.72446 -7.59809,-2.50599 -12.6876,-2.1319 -12.02105,-3.35374 1.82957,-3.35374 7.64722,0 13.68107,-0.50006 16.01852,-1.32755 3.55797,-1.25957 3.75,-1.55111 3.75,-5.6933 0,-4.9906 -1.82586,-6.83177 -8.5,-8.57126 -2.2,-0.57339 -5.6875,-1.47958 -7.75,-2.01375 -2.0625,-0.53418 -3.75,-1.4701 -3.75,-2.07982 0,-0.78261 3.45518,-0.93217 11.75,-0.50861 11.5171,0.5881 19.25,2.15949 19.25,3.91176 0,0.49463 0.72016,0.47889 1.63997,-0.0359 1.07778,-0.60316 2.53469,-0.45117 4.25,0.44338 1.43551,0.74863 4.71292,1.64265 7.28312,1.98671 3.2156,0.43045 4.51987,1.02485 4.18183,1.90578 -0.2702,0.70412 -0.0106,1.57729 0.57691,1.94039 0.58749,0.36309 1.06817,1.54944 1.06817,2.63633 0,1.63081 -0.33166,1.79867 -1.89778,0.96051 -3.13821,-1.67952 -5.58199,3.0942 -5.24589,10.24741 0.29459,6.26954 -1.2142,9.7632 -8.65301,20.03634 -5.52074,7.62432 -18.20332,17.41699 -18.20332,14.05548 z"
     id="path9243" />
  <path
     style="fill:#000000"
     d="m 806.87897,530.34988 c 0,-0.825 -0.66088,-1.5 -1.46862,-1.5 -0.89459,0 -1.24363,0.58629 -0.89301,1.5 0.31659,0.825 0.97746,1.5 1.46862,1.5 0.49115,0 0.89301,-0.675 0.89301,-1.5 z"
     id="path9241" />
  <path
     style="fill:#000000"
     d="m 562.5425,570.11448 c -0.28829,-0.46646 0.82601,-4.65432 2.47623,-9.30636 4.344,-12.24596 7.19761,-37.31533 4.88349,-42.90211 -1.52769,-3.68817 -2.29954,-3.79164 -4.77821,-0.64052 -1.34276,1.70705 -2.31735,2.15152 -3.32258,1.51531 -1.14063,-0.72192 -1.05454,-0.90333 0.43453,-0.91561 1.23693,-0.0102 1.66479,-0.51617 1.28138,-1.51531 -0.31658,-0.825 -0.0647,-1.5 0.55968,-1.5 0.62441,0 0.83117,-0.30412 0.45947,-0.67581 -0.3717,-0.3717 0.3408,-1.75877 1.58333,-3.08239 1.24253,-1.32361 1.66118,-2.257 0.93033,-2.07418 -0.79806,0.19962 -2.00601,-1.46501 -3.02424,-4.16762 -1.652,-4.38473 -1.84747,-4.53013 -7.63058,-5.67613 -8.54269,-1.69284 -10.89925,-5.73663 -6.01636,-10.32387 1.375,-1.29175 2.5,-3.21326 2.5,-4.27002 0,-1.05677 0.72645,-3.15118 1.61434,-4.65425 1.48578,-2.51522 1.48578,-2.98145 0,-5.85463 -1.78283,-3.4476 -2.18497,-11.7504 -0.61609,-12.72002 1.60407,-0.99137 5.23437,2.13515 9.01735,7.76603 3.76463,5.60358 4.5714,5.86512 12.84519,4.16426 3.84273,-0.78996 5.0996,0.41089 5.1239,4.89555 0.01,1.82165 -1.05152,3.89375 -2.98469,5.82693 -5.58478,5.58478 -2.75072,11.69992 6.69493,14.44584 4.83955,1.4069 6.75083,1.45577 14.68439,0.3755 11.11263,-1.51314 18.493,-0.2991 24.46039,4.02365 5.23971,3.79563 10.16029,11.0268 10.16029,14.93134 0,2.73056 -0.32503,3.06982 -2.94098,3.06982 -1.61754,0 -3.22589,0.46098 -3.5741,1.0244 -1.13196,1.83155 0.64098,7.04939 3.50275,10.30878 2.73096,3.11038 2.81306,3.55807 3.52216,19.2054 0.63109,13.9257 0.52073,16.19117 -0.84386,17.32368 -0.86344,0.71659 -2.37901,1.14851 -3.36793,0.95982 -1.57296,-0.30013 -1.86854,-1.84393 -2.36124,-12.33258 -0.30976,-6.59422 -0.90482,-12.73639 -1.32236,-13.64925 -0.64969,-1.42044 -5.45249,-3.51292 -6.05702,-2.63892 -0.11362,0.16427 -1.17649,4.31653 -2.36193,9.22725 -2.53907,10.5181 -4.31337,12.39937 -8.68175,9.20513 -1.78722,-1.30685 -1.79408,-1.52316 -0.15766,-4.97166 0.94097,-1.98295 2.22706,-7.14703 2.85797,-11.47573 1.10275,-7.56591 1.05702,-7.9969 -1.18212,-11.14148 -2.54129,-3.56891 -7.38316,-6.05356 -11.74981,-6.02953 -5.07974,0.028 -5.80998,1.21978 -5.49795,8.97316 0.15629,3.88358 0.71879,8.20421 1.25,9.60139 1.27332,3.3491 1.23374,11.04104 -0.0693,13.47588 -1.08674,2.0306 -3.55153,2.48264 -5.79195,1.06226 -1.05714,-0.67021 -1.0988,-1.68937 -0.20475,-5.00962 0.94752,-3.51883 0.78862,-5.3718 -1.0199,-11.89331 -2.14784,-7.74492 -3.94827,-11.30299 -3.94827,-7.80263 0,1.44502 -0.28871,1.58284 -1.39405,0.66549 -2.88976,-2.39829 -4.99133,2.70049 -9.4437,22.91207 -2.08954,9.48549 -3.71622,12.47488 -6.96861,12.80636 -1.65327,0.1685 -3.24182,-0.0753 -3.53011,-0.54176 z"
     id="path9239" />
  <path
     style="fill:#000000"
     d="m 1157.8921,553.16343 c -1.3678,-0.28311 -3.8021,-1.4512 -5.4095,-2.59576 -2.9838,-2.12467 -3.9491,-2.19692 -15.6036,-1.16786 -4.8185,0.42546 -7.0034,0.20098 -8.4459,-0.86777 -1.8537,-1.37348 -1.7472,-1.54301 2.25,-3.58226 2.3078,-1.1773 4.1959,-2.71813 4.1959,-3.42406 0,-0.70593 -1.4839,-2.72178 -3.2976,-4.47967 -3.2493,-3.1493 -6.9937,-4.15187 -8.2024,-2.19617 -0.34,0.55 -1.154,0.99311 -1.809,0.98469 -0.7112,-0.009 -0.5867,-0.39737 0.309,-0.96353 0.825,-0.52152 1.5,-1.51383 1.5,-2.20515 0,-0.69132 0.9,-1.72023 2,-2.28648 1.4331,-0.73771 1.9084,-1.82901 1.6767,-3.85008 -0.1777,-1.55131 0.1303,-4.12136 0.6845,-5.71123 0.9505,-2.72659 0.776,-3.02059 -3.0738,-5.17945 -2.2448,-1.25882 -5.1062,-3.63877 -6.3588,-5.28877 l -2.2774,-3 4.4806,-6 c 5.71,-7.6463 7.926,-9.5 11.3565,-9.5 3.3237,0 4.5558,-1.35241 5.4666,-6 1.4342,-7.31867 3.8723,-13.30311 6.7593,-16.59126 3.623,-4.12633 6.1133,-4.56183 5.1964,-0.90874 -0.8078,3.21865 0.6418,3.21598 5.3891,-0.01 2.0468,-1.39081 3.8483,-2.04594 4.0405,-1.46933 0.9392,2.81743 -3.2116,16.32886 -6.5221,21.23053 -2.9254,4.33157 -3.5843,6.26778 -3.7709,11.08089 -0.1983,5.11703 0.056,6.01718 2.0764,7.34079 1.8934,1.24057 3.2061,1.3148 7.3886,0.41781 7.7673,-1.66578 12.9907,-1.30271 18.5586,1.28998 8.8311,4.11216 13.0333,11.20321 14.1915,23.94768 0.4544,5.00057 0.7865,5.76129 2.3378,5.3556 2.7035,-0.70697 4.7614,3.08007 3.7481,6.89728 -1.7493,6.58964 -6.6493,8.31004 -25.3482,8.89994 -6.05,0.19086 -12.1191,0.11539 -13.4869,-0.16772 z"
     id="path9237" />
  <path
     style="fill:#000000"
     d="m 561.44326,521.14301 c -0.54268,-1.4252 -0.42782,-1.54006 0.5598,-0.5598 0.68342,0.67834 0.99067,1.48524 0.68278,1.79313 -0.30789,0.30789 -0.86705,-0.24711 -1.24258,-1.23333 z"
     id="path9235" />
  <path
     style="fill:#000000"
     d="m 1045.2457,482.4185 c -0.7534,-0.82059 -0.8135,-1.80578 -0.1792,-2.93915 0.5247,-0.93765 0.7327,-2.25037 0.4622,-2.91715 -0.2758,-0.67973 -0.5265,-0.44352 -0.5708,0.53768 -0.1356,3.00604 -1.9627,1.91156 -2.504,-1.5 -0.8321,-5.24365 -2.9249,-29.80903 -3.0031,-35.25 -0.052,-3.59902 -0.5781,-5.3773 -1.8787,-6.34656 -1.0099,-0.75261 -1.6716,-2.2964 -1.5,-3.5 0.2657,-1.86419 0.9354,-2.14559 4.9864,-2.09501 l 4.6795,0.0584 1.0769,-4.27667 c 1.2179,-4.83673 4.2532,-7.258 6.628,-5.28713 1.6443,1.36465 1.9258,5.52625 0.4361,6.44695 -1.8335,1.13315 -1.0311,2.36358 1.75,2.68358 3.3034,0.38011 3.6719,2.91155 0.6188,4.25237 l -2.1311,0.93595 2.1311,1.73028 c 3.6852,2.99203 2.4283,15.78876 -3.4483,35.10739 -1.6245,5.34027 -3.5552,10.06527 -4.2905,10.5 -0.7352,0.43474 -1.5153,1.3086 -1.7334,1.94191 -0.2912,0.8454 -0.6979,0.82338 -1.5299,-0.0829 z"
     id="path9233" />
  <path
     style="fill:#000000"
     d="m 829.10866,473.64772 c 0.68454,-2.07454 4.92578,-3.76715 9.47946,-3.7831 9.12747,-0.032 19.5994,-2.23238 21.98705,-4.62003 3.69245,-3.69245 2.95524,-5.00634 -3.52429,-6.28111 -7.96351,-1.56672 -11.98178,-4.75645 -16.18672,-12.84913 -3.2879,-6.32776 -5.65336,-8.51554 -11.48519,-10.62246 -0.55,-0.1987 0.2375,-1.52796 1.75,-2.9539 1.5125,-1.42593 2.75,-3.07071 2.75,-3.65506 0,-1.89539 6.39925,-5.02547 10.28212,-5.02931 2.08016,-0.002 5.45516,0.72572 7.5,1.61728 2.04483,0.89156 8.00958,1.97951 13.255,2.41766 5.24541,0.43815 12.37207,1.75166 15.83701,2.91892 5.62703,1.89561 7.06497,2.00741 13.46289,1.0468 12.07241,-1.81261 18.3675,-2.29538 21.07377,-1.61615 3.37359,0.84672 3.30022,2.23023 -0.16079,3.03195 -7.79073,1.80466 -14.14595,4.84118 -14.44367,6.90117 -0.22848,1.581 -1.51471,2.45994 -5.06146,3.45871 -5.79748,1.6326 -7.75165,4.77266 -7.72956,12.42026 0.0233,8.06098 0.29752,8.24774 12.6967,8.64728 6.69217,0.21565 11.06693,0.78514 11.52268,1.5 0.40408,0.63381 0.74158,2.66411 0.75,4.51179 0.0152,3.33246 -0.0148,3.3542 -3.73469,2.71064 -2.0625,-0.35682 -12.39505,-0.87786 -22.96122,-1.15788 -14.59587,-0.3868 -20.96229,-0.1564 -26.5,0.95903 -9.67891,1.94958 -31.16058,2.24948 -30.55909,0.42664 z"
     id="path9231" />
  <path
     style="fill:#000000"
     d="m 883.00751,469.59988 c 1.08712,-2.04022 1.04378,-2.12204 -0.46482,-0.87756 -0.91505,0.75485 -1.66372,1.76735 -1.66372,2.25 0,1.52749 0.88863,0.95452 2.12854,-1.37244 z"
     id="path9229" />
  <path
     style="fill:#000000"
     d="m 880.0594,462.59218 c 1.52451,-2.40055 0.7806,-3.24477 -3.09286,-3.50991 -4.12552,-0.28239 -7.08757,1.5878 -7.08757,4.47496 0,1.28859 0.82812,1.45099 4.69574,0.92088 2.58266,-0.354 5.05077,-1.20266 5.48469,-1.88593 z"
     id="path9227" />
  <path
     style="fill:#000000"
     d="m 467.27711,459.45868 c -4.52446,-3.87277 -8.71826,-11.00686 -10.39832,-17.68861 -0.91617,-3.64372 -2.15606,-5.3755 -6.06606,-8.47266 -5.33367,-4.22486 -10.93376,-11.32423 -10.93376,-13.86101 0,-2.6326 1.103,-1.88136 7.50232,5.10977 l 6.12944,6.69628 6.43412,-6.54526 c 5.34949,-5.44191 7.29701,-6.75081 11.55288,-7.76455 4.25493,-1.01351 5.71095,-0.97184 8.62792,0.24695 1.93004,0.80642 3.7804,1.90509 4.11191,2.44148 0.98369,1.59165 -9.93516,11.15426 -15.60856,13.6698 l -5.25003,2.32783 4.33021,1.17573 c 2.38161,0.64665 7.44411,1.3604 11.25,1.58611 6.69024,0.39676 6.91979,0.33337 6.91979,-1.91092 0,-6.81112 4.52666,-11.71549 12.11036,-13.12087 4.64726,-0.86121 5.34942,0.7583 2.79878,6.45534 -1.05003,2.34531 -1.90914,4.4043 -1.90914,4.57554 0,0.17124 1.4625,0.62805 3.25,1.01513 3.61492,0.78282 8.75,4.05415 8.75,5.57424 0,1.48332 -6.46693,3.88088 -10.46788,3.88088 -1.94267,0 -3.53212,0.16842 -3.53212,0.37427 0,0.20585 0.675,2.28743 1.5,4.62573 2.12918,6.03475 1.88863,7.65964 -1.375,9.28776 -2.7669,1.38031 -2.875,1.34389 -2.875,-0.96843 0,-2.97286 -1.08783,-4.19977 -2.17049,-2.44798 -1.0582,1.7122 -4.55006,-3.04381 -5.80597,-7.90789 l -0.89427,-3.46346 -7.18964,-0.29381 c -4.00063,-0.16349 -7.18963,0.12074 -7.18963,0.6408 0,0.51403 0.89012,2.89624 1.97804,5.29381 1.08792,2.39756 1.98792,6.2717 2,8.6092 0.0279,5.40614 -1.99905,5.6358 -7.5799,0.8588 z"
     id="path9225" />
  <path
     style="fill:#000000"
     d="m 870.12897,306.1876 c -1.47212,-0.59401 -1.66805,-4.51967 -0.29415,-5.89357 0.6078,-0.6078 0.19349,-2.15992 -1.13783,-4.26258 l -2.09367,-3.30673 -3.15978,3.06258 c -3.34439,3.24151 -8.21243,4.14382 -9.15163,1.6963 -0.28836,-0.75145 0.37914,-4.04805 1.48332,-7.32578 2.45741,-7.2947 2.0028,-9.33777 -2.74537,-12.33812 l -3.69562,-2.33525 0.36571,-7.06729 c 0.20114,-3.887 0.99642,-8.36934 1.76729,-9.96075 1.25156,-2.58376 1.21481,-3.03526 -0.34334,-4.21819 -0.95971,-0.72861 -2.08243,-1.33904 -2.49493,-1.35654 -0.4125,-0.0175 -0.75495,-1.7193 -0.76101,-3.7818 -0.0212,-7.21269 -1.12908,-11.15421 -3.36541,-11.97274 -1.16797,-0.42749 -6.39858,-0.77726 -11.62358,-0.77726 l -9.5,0 -0.31037,-3.75 c -0.24953,-3.01499 0.0306,-3.75 1.42901,-3.75 0.95665,0 3.12131,-0.41951 4.81036,-0.93224 1.68905,-0.51273 4.98706,-1.48593 7.32891,-2.16267 3.08028,-0.89012 4.67058,-2.05765 5.75,-4.2214 0.82065,-1.64503 1.49209,-3.09805 1.49209,-3.22892 0,-0.4357 -5.43177,-1.63865 -11.05254,-2.44775 -3.20233,-0.46098 -7.14278,-1.87846 -9.3096,-3.3489 -2.06638,-1.40229 -4.34717,-2.32316 -5.06842,-2.04639 -0.72124,0.27676 -1.5803,-0.19765 -1.90901,-1.05426 -0.32871,-0.85661 -0.14297,-1.55747 0.41277,-1.55747 0.55573,0 2.00411,-0.96618 3.21861,-2.14707 1.21451,-1.18088 1.58731,-1.79325 0.82846,-1.3608 -0.92283,0.52589 -1.23329,0.34692 -0.9375,-0.54043 0.75527,-2.26582 2.44984,-2.13172 5.50056,0.43529 2.41453,2.0317 4.57026,2.6236 12.1544,3.33724 9.63992,0.90709 16.16227,0.61053 16.16227,-0.73486 0,-0.4355 -1.62391,-1.74995 -3.60868,-2.92099 -2.93906,-1.73409 -3.48836,-2.54104 -2.96023,-4.34878 0.35665,-1.22078 0.83552,-3.46764 1.06414,-4.99302 0.53588,-3.57539 1.28209,-4.72658 3.06379,-4.72658 0.79254,0 1.45529,-0.7875 1.47278,-1.75 0.0749,-4.12294 4.79878,-7.25 10.95212,-7.25 6.47625,0 13.57045,4.35632 16.61109,10.20034 1.95303,3.75366 1.88631,14.40098 -0.095,15.16129 -0.825,0.31658 -1.5,1.19742 -1.5,1.95742 0,1.1572 -3.46471,4.43306 -7.15247,6.7626 -0.51566,0.32574 -0.0247,2.67208 1.11585,5.33291 1.12014,2.61319 2.03662,6.4833 2.03662,8.60025 0,3.10624 0.55991,4.24769 2.90145,5.91502 2.47928,1.7654 5.98541,8.07017 4.48789,8.07017 -0.27864,0 0.8073,2.5875 2.41322,5.75 1.67668,3.30187 3.77115,10.10175 4.91933,15.97108 1.90423,9.73402 1.91596,10.29669 0.24626,11.80775 -0.96429,0.87266 -3.0391,1.92998 -4.6107,2.34958 -2.57033,0.68626 -2.92766,1.30847 -3.55622,6.19225 -0.38432,2.98614 -0.30014,6.92062 0.18706,8.74329 1.03488,3.87166 -1.67406,11.46775 -4.47265,12.54168 -1.91504,0.73487 -5.42148,0.72622 -7.26564,-0.0179 z"
     id="path9159" />
  <path
     style="fill:#000000"
     d="m 873.87897,283.30436 c 0,-3.46904 -0.59497,-4.8956 -3.07692,-7.37756 -2.91062,-2.91061 -5.76456,-4.24749 -4.41871,-2.06986 0.34231,0.55389 -0.0811,1.27703 -0.94099,1.60699 -2.09352,0.80336 -1.98591,4.56114 0.18662,6.51668 0.9625,0.86636 2.54474,3.04046 3.5161,4.83132 1.46846,2.70739 2.01616,3.04858 3.25,2.02459 0.89093,-0.73941 1.4839,-2.95006 1.4839,-5.53216 z"
     id="path9157" />
  <path
     style="fill:#000000"
     d="m 1184.4688,297.99524 c -0.2905,-0.47005 0.5829,-1.89849 1.941,-3.17431 2.6062,-2.44837 3.351,-7.30804 1.3131,-8.56752 -0.8249,-0.50981 -0.9779,0.1764 -0.5342,2.39526 0.5133,2.56616 0.1674,3.46737 -1.9787,5.15549 -1.4304,1.12515 -3.4135,2.04572 -4.4069,2.04572 -2.7112,0 -3.4901,-2.12352 -1.3269,-3.6176 3.9248,-2.71073 4.0818,-3.08967 3.4193,-8.25359 -0.3598,-2.80493 -0.8483,-5.24458 -1.0854,-5.42145 -6.8629,-5.11892 -10.2784,-7.87419 -14.1535,-11.41768 -2.5973,-2.37501 -5.7473,-4.69631 -7,-5.15845 -2.0654,-0.76197 -15.9712,0.14308 -21.5409,1.40197 -2.2586,0.51052 -2.2619,0.5398 -1.5959,14.49021 0.6036,12.64549 0.4947,14.1693 -1.1418,15.97762 -2.2619,2.49941 -7.6215,2.63039 -11.5947,0.28336 -3.7115,-2.19241 -3.6679,-3.18167 0.1739,-3.95003 4.403,-0.8806 5.4403,-4.12272 4.0371,-12.618 -1.2078,-7.3119 -5.5672,-17.01566 -9.0627,-20.17267 -1.1913,-1.07597 -3.9907,-5.46347 -6.2208,-9.75 -4.0102,-7.70811 -5.346,-8.87949 -7.5793,-6.64618 -0.8634,0.86334 -1.0695,0.5538 -0.8323,-1.25 0.1734,-1.31863 0.6323,-3.14418 1.0197,-4.05677 0.7673,-1.80749 -3.6527,-16.95901 -5.9966,-20.55556 -1.6679,-2.55949 -1.8966,-5.28518 -0.4433,-5.28518 0.55,0 1.0069,-1.0125 1.0153,-2.25 0.03,-4.35519 1.4193,-5.0959 4.5828,-2.44271 1.596,1.33859 4.3187,2.74277 6.0504,3.12042 1.7317,0.37765 4.8817,1.99838 7,3.60164 2.1183,1.60326 5.089,2.92753 6.6015,2.94283 3.1872,0.0322 3.3939,0.65879 1.0659,3.23123 -1.6011,1.76916 -1.4293,2.11886 3.4835,7.09353 4.6084,4.66631 6.0623,5.47693 13.4341,7.48986 5.9032,1.61192 10.9824,2.25372 17.7665,2.24498 12.4687,-0.0161 17.2729,2.11501 25.2281,11.19077 4.9252,5.61891 6.8177,6.97864 13.5,9.69951 7.6984,3.13457 10.056,4.65717 13.6048,8.78614 1.7827,2.07415 1.7781,2.16201 -0.1689,3.20403 -2.7159,1.45351 -15.749,-0.85914 -23.6582,-4.198 -3.2968,-1.39175 -6.3343,-2.32024 -6.75,-2.06332 -0.4157,0.25692 -0.7558,1.72486 -0.7558,3.26208 0,3.20085 3.2625,7.13719 7.9055,9.53818 4.054,2.09638 5.0945,4.93492 5.0945,13.89832 0,6.90809 -0.1252,7.29325 -2.9043,8.9349 -3.1194,1.8427 -6.6489,2.24755 -7.5059,0.86097 z"
     id="path9155" />
  <path
     style="fill:#000000"
     d="m 605.81383,258.19791 c -1.06417,-2.48261 -1.93486,-4.83826 -1.93486,-5.23477 0,-1.64524 -6.76279,-7.11326 -8.79761,-7.11326 -2.59659,0 -2.72403,1.27007 -0.70239,7 1.99468,5.65353 1.97356,5.72312 -1.5784,5.2018 -2.0026,-0.29392 -3.45655,-1.28178 -4.16051,-2.82681 -0.59517,-1.30624 -1.6785,-2.37499 -2.40742,-2.37499 -0.72891,0 -2.48699,-1.75544 -3.90684,-3.90098 -2.61962,-3.95851 -4.72688,-5.06079 -9.72183,-5.08537 -2.27967,-0.0112 -2.8807,0.51487 -3.36719,2.94729 -0.3257,1.62851 -1.10195,2.86601 -1.725,2.75 -0.723,-0.13463 -1.04444,1.24977 -0.88854,3.82679 0.22936,3.79133 0.0693,4.05106 -2.62244,4.25616 -3.40485,0.25944 -4.5556,-0.94291 -6.02379,-6.29389 -2.17773,-7.93698 -3.88826,-8.68724 -19.15505,-8.40168 -6.57492,0.12299 -12.13669,0.0387 -12.35951,-0.18736 -0.22281,-0.22603 -0.72032,-2.09846 -1.10559,-4.16096 l -0.70047,-3.75 12.4645,0 12.46449,0 -0.47257,-4.91818 c -0.65613,-6.82844 1.40401,-14.79842 4.31888,-16.70832 1.28104,-0.83937 2.488,-2.72929 2.68213,-4.19981 l 0.35296,-2.67369 1.33157,2.67308 c 0.73236,1.4702 2.2876,2.91782 3.45609,3.21694 1.29391,0.33123 3.24761,2.70709 4.99712,6.07692 1.57993,3.04318 3.44058,5.53306 4.13478,5.53306 0.77678,0 1.52108,-2.07214 1.93539,-5.38817 0.37026,-2.96349 1.3078,-6.22599 2.08342,-7.25 0.77562,-1.02401 1.42452,-2.94407 1.44202,-4.26682 0.03,-2.26623 0.13731,-2.3095 1.86054,-0.75 1.00581,0.91025 2.81242,1.65499 4.0147,1.65499 2.55073,0 6.32533,5.41108 5.94822,8.52708 -0.13493,1.11489 0.79767,3.49181 2.07243,5.28206 l 2.31776,3.25498 3.40509,-7.10524 c 2.61508,-5.45674 3.17401,-7.53703 2.40908,-8.96632 -1.49751,-2.79811 -1.203,-3.48512 0.75398,-1.75884 0.9625,0.84903 3.20702,1.85333 4.98781,2.23177 3.7369,0.79413 7.26219,4.74807 7.26219,8.1452 0,1.28753 0.89832,3.81435 1.99626,5.61514 1.23313,2.02251 1.99769,5.04279 2,7.90064 l 0.004,4.62647 11.75,0.87353 11.75,0.87353 0,3.5 0,3.5 -12.83275,0.28049 -12.83274,0.2805 0.67064,3.9695 c 0.47522,2.8128 0.31721,3.96951 -0.54225,3.96951 -1.11648,0 -1.06904,1.46772 0.2246,6.94913 0.17452,0.73948 -0.93047,1.67483 -2.50264,2.11843 -2.63759,0.74422 -2.93717,0.50963 -4.75,-3.71953 z"
     id="path9153" />
  <path
     style="fill:#000000"
     d="m 529.87897,240.9089 c 0,-0.51754 -0.45,-1.2191 -1,-1.55902 -0.55,-0.33992 -1,0.0835 -1,0.94098 0,0.85746 0.45,1.55902 1,1.55902 0.55,0 1,-0.42344 1,-0.94098 z"
     id="path9151" />
  <path
     style="fill:#000000"
     d="m 467.87897,201.3877 c 0,-0.80419 2.24491,-5.80539 4.9887,-11.11378 2.74378,-5.30838 4.77911,-9.99071 4.52296,-10.40518 -0.25616,-0.41447 -2.59857,-0.99398 -5.20535,-1.2878 -3.75712,-0.42348 -7.33769,0.2902 -17.27296,3.44286 -6.89334,2.1874 -13.77085,4.3617 -15.28335,4.83178 -5.03158,1.5638 -3.09666,-1.61028 2.4313,-3.98835 2.84972,-1.22591 6.93052,-3.38651 9.06845,-4.80133 l 3.88715,-2.57239 -2.31845,-1.27672 c -1.27515,-0.7022 -4.68627,-1.81981 -7.58027,-2.48359 -4.62906,-1.06174 -8.2694,-3.25154 -7.13068,-4.28938 0.21587,-0.19675 5.5675,0.51053 11.8925,1.57174 11.36621,1.90703 16.01117,1.87292 23.17503,-0.17018 l 3.67503,-1.04811 -0.5075,-5.72369 c -0.49803,-5.6168 -2.37339,-12.73701 -4.94262,-18.76575 -1.82178,-4.27482 -3.3511,-11.33005 -3.35074,-15.45795 l 3.2e-4,-3.5 9.73238,10 c 12.68269,13.03144 17.65133,20.28332 17.69864,25.83172 0.0456,5.34723 0.95264,6.66828 4.57848,6.66828 3.12373,0 6.94098,3.01429 6.94098,5.48095 0,0.81452 -1.2375,1.77767 -2.75,2.14034 -4.88997,1.17251 -8.25,3.36002 -8.25,5.37106 0,2.1304 -3.95768,6.42154 -11.56384,12.53815 -2.71489,2.18323 -5.09377,4.32983 -5.28641,4.77024 -0.57375,1.31173 -7.98724,5.69926 -9.62988,5.69926 -0.83593,0 -1.51987,-0.65798 -1.51987,-1.46218 z"
     id="path9149" />
  <path
     style="fill:#000000"
     d="m 479.47897,192.24988 c -0.35589,-0.92744 -0.87208,-1.46126 -1.14708,-1.18626 -0.275,0.275 -0.20881,1.25882 0.14708,2.18626 0.35589,0.92744 0.87208,1.46126 1.14708,1.18626 0.275,-0.275 0.20881,-1.25882 -0.14708,-2.18626 z"
     id="path9147" />
  <path
     style="fill:#000000"
     d="m 1038.6325,184.33298 c -12.1299,-4.45495 -19.0444,-17.28915 -15.7984,-29.32374 1.4755,-5.47054 8.1075,-12.82924 13.8764,-15.39705 8.2254,-3.66125 19.861,-2.113 26.7412,3.55826 4.3233,3.5636 8.4036,11.68212 8.4175,16.74793 0.017,6.26921 -2.7532,13.44793 -6.7786,17.56527 -4.6945,4.80167 -9.3505,7.42745 -9.9586,5.61623 -0.2308,-0.6875 -0.848,-1.25 -1.3715,-1.25 -0.563,0 -0.5146,0.81712 0.1185,2 1.0191,1.90429 0.7696,1.99663 -5.2148,1.92954 -3.4569,-0.0388 -7.9712,-0.68965 -10.0317,-1.44644 z"
     id="path9145" />
  <path
     style="fill:#000000"
     d="m 772.17738,161.883 c -0.28289,-1.08179 -1.37477,-2.23997 -2.42638,-2.57374 -1.05162,-0.33377 -3.84567,-2.08282 -6.20899,-3.88679 -3.24563,-2.47745 -5.02758,-3.1727 -7.28321,-2.84164 -5.64194,0.82806 -16.35249,-7.56997 -18.40913,-14.4344 -2.39113,-7.98088 1.21501,-16.16412 8.55362,-19.41033 5.77677,-2.55534 10.54412,-1.72262 15.43508,2.69607 3.45067,3.11747 3.882,3.24531 7.68932,2.27891 5.90018,-1.49763 11.32715,0.26281 15.68702,5.08866 3.98652,4.41261 5.22224,8.96254 4.2871,15.78513 -0.69395,5.06295 -4.46191,10.77893 -8.24026,12.50047 -1.70216,0.77555 -2.24022,1.63771 -1.82956,2.9316 0.67245,2.1187 -0.5203,2.38856 -2.57649,0.58294 -0.7829,-0.6875 -0.57816,-0.2375 0.45499,1 l 1.87846,2.25 -3.24861,0 c -2.38937,0 -3.38465,-0.52023 -3.76296,-1.96688 z"
     id="path9143" />
  <path
     style="fill:#000000"
     d="m 577.15179,16.44842 c -2.32495,-0.75573 -5.86128,-2.33821 -7.85851,-3.5166 -6.80983,-4.01789 -27.41431,-20.26462 -27.41431,-21.61631 0,-2.82744 2.31805,-2.53762 7.5644,0.94576 5.68988,3.77787 6.29428,3.71469 3.9356,-0.41139 -1.94506,-3.40252 -1.881,-11.01103 0.11671,-13.86317 0.8892,-1.2695 3.0267,-3.20846 4.75,-4.30879 l 3.13329,-2.00062 -3.75242,0.63206 c -5.03362,0.84786 -9.96582,-1.58184 -12.36848,-6.09294 -1.77602,-3.33457 -7.31648,-6.91307 -10.05369,-6.49353 -2.36659,0.36273 -2.23547,-1.67877 0.1462,-2.27653 1.64732,-0.41345 2.26928,-1.10814 1.8861,-2.10667 -0.996,-2.59555 3.60567,-1.71708 5.96796,1.13929 4.72185,5.70944 6.66687,7.3709 8.62888,7.3709 2.99928,0 2.50026,-1.30026 -1.28042,-3.33629 -1.98633,-1.06971 -4.55639,-3.93349 -6.38107,-7.11033 -2.63213,-4.58263 -2.85799,-5.50854 -1.63102,-6.68631 0.78331,-0.75189 2.42323,-2.94207 3.64427,-4.86707 1.22105,-1.925 3.9456,-4.34556 6.05456,-5.37902 3.24126,-1.58833 4.41747,-1.70436 7.60283,-0.75 2.07258,0.62096 7.57863,1.12902 12.23565,1.12902 9.30686,0 11.30282,0.73613 7.07426,2.60906 l -2.77361,1.2285 2.83333,0.0812 c 3.64958,0.10462 3.0425,2.46 -0.74905,2.90619 -2.578,0.30338 -2.63932,0.41508 -0.92288,1.68108 1.75437,1.29398 1.73418,1.39514 -0.44062,2.20791 l -2.27922,0.8518 3.27922,4.58401 c 3.15765,4.41408 14.77922,17.41579 14.77922,16.53437 0,-0.23644 -0.9731,-2.62459 -2.16244,-5.307 -2.6305,-5.93279 -2.86464,-14.52102 -0.51904,-19.03882 1.52659,-2.94033 6.09298,-7.3383 7.61933,-7.3383 0.36747,0 1.62886,1.9125 2.8031,4.25 l 2.13498,4.25 0.062,-5.09501 c 0.0687,-5.64639 1.59168,-7.75727 6.47645,-8.97676 2.59257,-0.64723 2.82852,-0.51779 2.13655,1.17209 -1.5403,3.76161 -1.76485,5.41139 -1.0981,8.06792 0.67595,2.69322 0.68429,2.68865 3.16417,-1.73396 4.04281,-7.20993 7.14241,-8.56915 11.49813,-5.04211 l 2.33673,1.89217 -3.65953,1.52905 c -3.03139,1.2666 -6.79237,5.74923 -6.79237,8.09568 0,0.27962 2.22853,-0.61093 4.95228,-1.97899 6.72287,-3.37671 11.72205,-3.49921 14.14556,-0.34662 2.82551,3.67551 2.3286,4.60097 -2.84784,5.30391 -6.34322,0.86139 -9.08285,2.57634 -4.14922,2.59732 5.44659,0.0232 9.92052,1.94114 10.97063,4.70313 0.98555,2.59219 1.28836,10.31218 0.40448,10.31218 -0.28826,0 -2.81375,-1.575 -5.61221,-3.5 -3.03679,-2.08895 -6.29594,-3.5 -8.08405,-3.5 l -2.99594,0 5.15795,4.63743 c 4.98098,4.4783 9.0584,10.68134 9.0584,13.78063 0,1.93496 -7.2585,9.58194 -9.09516,9.58194 -1.04823,0 -1.40484,-1.5026 -1.40484,-5.91944 0,-7.49763 -2.76527,-11.08056 -8.55187,-11.08056 -5.35877,0 -6.36122,1.81035 -6.63432,11.98107 -0.28144,10.48136 -2.74094,17.8495 -8.30989,24.89475 -6.54057,8.27445 -17.30454,11.78688 -26.7311,8.72272 z"
     id="path9081" />
  <path
     style="fill:#000000"
     d="m 1137.879,8.29816 c -2.475,-0.77985 -6.6797,-1.42475 -9.3436,-1.4331 -3.8882,-0.0122 -4.9404,-0.3852 -5.3342,-1.89089 -0.4217,-1.61286 -1.0042,-1.75634 -4.1564,-1.02386 -5.4876,1.2752 -9.7778,1.07206 -11.1039,-0.52577 -0.9535,-1.1489 -0.5933,-1.86127 1.8571,-3.67292 3.5656,-2.63616 5.2819,-7.16402 5.4558,-14.39297 0.1105,-4.59641 -0.2839,-5.68008 -3.3748,-9.2712 -1.925,-2.23653 -4.0405,-3.90249 -4.7012,-3.70213 -0.6606,0.20036 -2.2356,-0.49818 -3.5,-1.55231 -2.066,-1.7225 -2.1098,-1.91996 -0.4322,-1.94986 1.3514,-0.0241 1.7261,-0.57079 1.3574,-1.98063 -0.33,-1.26171 0.069,-2.10109 1.1334,-2.384 1.3281,-0.35306 1.2809,-0.45884 -0.2467,-0.55264 -1.6815,-0.10324 -1.8213,-0.69049 -1.2706,-5.33967 0.5771,-4.87328 0.4112,-5.4377 -2.4739,-8.41439 -3.3376,-3.44353 -4.9566,-10.59122 -3.1358,-13.84474 0.5495,-0.98191 0.6369,-3.50423 0.2034,-5.86952 -0.4182,-2.28123 -0.598,-4.31148 -0.3997,-4.51168 0.1983,-0.20021 1.5304,0.55618 2.9602,1.68085 3.0731,2.41736 7.6514,3.58906 10.496,2.68623 1.1193,-0.35527 2.8534,-2.24072 3.8533,-4.18987 l 1.8182,-3.54392 1.2999,3.36536 c 0.715,1.85094 2.1411,5.19493 3.1691,7.43107 1.0281,2.23615 1.8692,5.72365 1.8692,7.75 0,2.02636 0.4465,3.68428 0.9923,3.68428 0.5457,0 2.154,1.3039 3.574,2.89756 1.8736,2.10285 3.8642,3.07695 7.2577,3.55167 9.3813,1.31232 15.2446,3.57288 19.5423,7.5343 9.2871,8.56055 12.1494,20.5696 9.0016,37.76647 -0.5754,3.14334 -0.4845,3.24928 2.7686,3.22804 4.8726,-0.0318 11.1099,-3.19298 16.798,-8.51359 6.5824,-6.15708 8.3895,-10.9955 7.9245,-21.21743 -0.3017,-6.63381 -0.8094,-8.57383 -3.1817,-12.15852 -3.5837,-5.41529 -9.7922,-8.41358 -15.5238,-7.49705 -3.2793,0.52437 -4.1404,0.3015 -4.9934,-1.29223 -1.6351,-3.05528 0.7013,-6.57316 5.0483,-7.60122 8.7909,-2.07898 19.6681,4.42574 24.8381,14.85343 2.1356,4.30739 2.453,6.30903 2.4502,15.44857 0,9.63982 -0.2451,10.97816 -2.9548,16.3368 -1.6961,3.3542 -5.2051,7.89654 -8.25,10.6794 -7.6118,6.95674 -13.7932,9.00539 -30.2919,10.03949 -16.7898,1.05234 -15.6257,1.08602 -21,-0.60741 z"
     id="path9079" />
  <path
     style="fill:#000000"
     d="m 735.18727,-29.15972 c -1.20544,-0.48555 -2.93402,-2.01574 -3.8413,-3.40042 -1.50001,-2.2893 -1.50963,-2.79817 -0.10609,-5.61163 1.19539,-2.39621 1.29676,-3.63558 0.44945,-5.49522 -2.53265,-5.55855 5.10354,-10.40157 10.31981,-6.54501 2.58299,1.90969 4.17002,2.06188 21.5006,2.06188 16.20773,0 18.96313,-0.22749 20.59023,-1.7 2.52408,-2.28426 8.62894,-2.22571 10.32885,0.0991 1.08501,1.48385 1.42242,11.47336 0.56915,16.85094 -0.23789,1.49931 -1.84136,0.6968 -2.99712,-1.5 -0.89947,-1.70967 -1.02899,-1.76971 -0.53936,-0.25 1.67133,5.18738 1.65822,5.5 -0.2307,5.5 -1.03479,0 -3.67477,-1.0125 -5.86663,-2.25 -3.68658,-2.08141 -5.22154,-2.25 -20.48519,-2.25 -16.36797,0 -16.53186,0.022 -20.48213,2.75 -4.19866,2.89953 -5.6507,3.17393 -9.20957,1.7404 z"
     id="path9077" />
  <path
     style="fill:#000000"
     d="m 909.01799,-49.89037 c -0.73476,-1.37289 -0.7227,-2.27607 0.0406,-3.03934 1.51285,-1.51285 0.4043,-3.83446 -2.14984,-4.50238 -1.5963,-0.41744 -2.36001,0.0204 -3.00792,1.72454 -1.25459,3.29984 -10.20915,5.13102 -11.28344,2.30743 -0.78547,-2.06447 0.99296,-5.52996 3.19685,-6.22945 1.13562,-0.36043 2.06476,-1.05461 2.06476,-1.54262 0,-1.92241 -7.60459,-2.12528 -19.7567,-0.52704 -17.67233,2.32424 -17.18772,2.17185 -18.74294,5.894 -2.59584,6.21274 -10.16623,7.48353 -15.00036,2.51802 l -3,-3.08153 2.25,-1.51266 c 2.92826,-1.96866 2.99049,-6.32518 0.11598,-8.12034 -1.60728,-1.00377 -2.31293,-1.04323 -2.85887,-0.15989 -0.43204,0.69907 -0.9853,-0.12943 -1.36961,-2.05099 -0.37046,-1.85229 -0.17756,-3.78676 0.45341,-4.54704 0.60399,-0.72777 0.88196,-1.90085 0.6177,-2.60684 -0.29367,-0.78458 -0.87463,-0.31168 -1.49431,1.21638 -0.99908,2.4636 -1.04411,2.43448 -3.09211,-2 -1.14305,-2.475 -2.08815,-5.18884 -2.10023,-6.03076 -0.0121,-0.84192 -1.40736,-2.0537 -3.10063,-2.69283 -1.69327,-0.63914 -3.32433,-2.1015 -3.62459,-3.24968 -0.40398,-1.54482 -2.08505,-2.51553 -6.46545,-3.73339 -7.28657,-2.02584 -11.08625,-5.24794 -10.64649,-9.0281 0.26653,-2.29108 1.04939,-2.91592 5.07033,-4.0469 3.47305,-0.97687 5.14875,-2.09869 6.21508,-4.16074 1.76846,-3.41981 5.30517,-4.46444 10.43671,-3.08266 5.35177,1.44108 8.74394,4.40256 11.6804,10.19737 1.89761,3.74476 3.43495,5.34813 6.21685,6.48385 2.03271,0.82987 6.16365,2.65973 9.17987,4.06636 4.52265,2.10916 7.76581,2.70428 18.5,3.39472 16.97981,1.09218 19.96376,1.5604 24.41437,3.83093 3.43492,1.75237 3.95661,1.77813 6.92224,0.34183 3.16832,-1.53446 3.4835,-2.17872 4.66705,-9.54 0.67039,-4.16959 2.22521,-4.96405 2.93563,-1.5 2.24273,10.93568 0.92461,15.87102 -4.88734,18.29941 -4.84408,2.02399 -4.71255,5.04073 0.42713,9.79614 2.60664,2.41175 4.33839,5.11938 5.05952,7.91063 0.60302,2.3341 1.30478,4.96779 1.55946,5.85264 0.58504,2.03262 -1.4014,3.70504 -5.3352,4.4918 -2.40349,0.4807 -3.28743,0.19217 -4.10788,-1.34087 z"
     id="path9075" />
  <path
     style="fill:#000000"
     d="m 458.84638,-84.35169 c -5.90811,-4.51615 -8.96741,-10.58901 -8.96741,-17.80073 0,-4.41773 -0.44657,-6.09187 -2,-7.4977 -2.58073,-2.33553 -2.55109,-5.90867 0.0693,-8.3499 2.4004,-2.23631 6.19675,-3.1501 13.08712,-3.1501 5.68419,0 7.52196,-2.13615 3.97508,-4.62047 -1.90015,-1.33092 -3.00125,-4.37953 -1.5818,-4.37953 1.14108,0 6.98195,3.32525 7.71029,4.38953 0.41797,0.61076 0.52958,2.09236 0.24802,3.29245 -0.54432,2.32004 0.0141,2.6412 6.49203,3.73361 4.73779,0.79896 9.58817,3.90159 10.28899,6.58151 1.90489,2.052 1.83625,1.11409 1.3098,4.80996 -0.13841,0.97167 -1.38942,1.80766 -1.74463,1.59334 -1.54518,-0.93232 -4.7231,3.50257 -5.80393,8.0996 -2.05652,8.74682 -7.40965,14.19591 -15.65899,15.93972 -2.55139,0.53933 -3.88241,0.0658 -7.42383,-2.64129 z"
     id="path9073"
     inkscape:connector-curvature="0"
     sodipodi:nodetypes="cssssssssscsssscc" />
  <path
     style="fill:#000000"
     d="m 1026.2532,-101.91363 c -3.0347,-0.4897 -5.841,-3.99625 -7.5857,-9.4787 -1.2943,-4.06675 -1.3128,-5.12086 -0.1301,-7.40051 1.1909,-2.29553 1.1719,-2.88732 -0.1397,-4.33653 -0.8353,-0.92303 -1.5187,-3.09619 -1.5187,-4.82925 0,-1.73307 -0.7418,-5.00483 -1.6484,-7.27058 -1.3979,-3.4938 -1.4359,-4.25404 -0.25,-5.00492 4.6395,-2.93756 13.9009,0.9478 20.6765,8.67418 2.597,2.96152 5.0808,5.39026 5.5195,5.3972 0.4387,0.007 3.1116,-2.30139 5.9399,-5.12963 6.369,-6.36899 14.4571,-10.32522 19.265,-9.42326 4.1243,0.77373 5.4892,3.81221 2.9652,6.60113 -0.9418,1.04077 -2.1084,4.01171 -2.5924,6.60209 -0.4839,2.59039 -1.522,5.41939 -2.3069,6.28667 -0.8714,0.96287 -1.1132,2.1607 -0.6211,3.07625 0.8432,1.56858 0.7003,4.03564 -0.4422,7.6332 -0.4928,1.55178 -1.2678,2.00257 -2.8414,1.65266 -1.8484,-0.41105 -1.7618,-0.20099 0.5943,1.44145 2.8739,2.00338 2.7093,3.27206 -0.4247,3.27206 -1.0083,0 -1.8333,0.39754 -1.8333,0.88342 0,1.90603 -5.3424,1.84713 -8.6344,-0.0952 -1.8511,-1.09218 -3.3673,-2.27883 -3.3694,-2.63701 0,-0.35817 -0.9137,-2.14386 -2.026,-3.9682 l -2.0223,-3.31699 -3.224,2.68792 c -1.7732,1.47835 -3.7758,3.71077 -4.4503,4.96092 -1.3446,2.49216 -5.5695,4.25896 -8.8994,3.72162 z"
     id="path9069" />
</svg>
