  0
SECTION
  2
HEADER
  9
$ACADVER
  1
AC1014
  9
$HANDSEED
  5
FFFF
  9
$MEASUREMENT
 70
     1
  0
ENDSEC
  0
SECTION
  2
TABLES
  0
TABLE
  2
VPORT
  5
8
330
0
100
AcDbSymbolTable
 70
     4
  0
VPORT
  5
2E
330
8
100
AcDbSymbolTableRecord
100
AcDbViewportTableRecord
  2
*ACTIVE
 70
     0
 10
0.0
 20
0.0
 11
1.0
 21
1.0
 12
210.0
 22
148.5
 13
0.0
 23
0.0
 14
10.0
 24
10.0
 15
10.0
 25
10.0
 16
0.0
 26
0.0
 36
1.0
 17
0.0
 27
0.0
 37
0.0
 40
341.0
 41
1.24
 42
50.0
 43
0.0
 44
0.0
 50
0.0
 51
0.0
 71
     0
 72
   100
 73
     1
 74
     3
 75
     0
 76
     0
 77
     0
 78
     0
  0
ENDTAB
  0
TABLE
  2
LTYPE
  5
5
330
0
100
AcDbSymbolTable
 70
     1
  0
LTYPE
  5
14
330
5
100
AcDbSymbolTableRecord
100
AcDbLinetypeTableRecord
  2
BYBLOCK
 70
     0
  3

 72
    65
 73
     0
 40
0.0
  0
LTYPE
  5
15
330
5
100
AcDbSymbolTableRecord
100
AcDbLinetypeTableRecord
  2
BYLAYER
 70
     0
  3

 72
    65
 73
     0
 40
0.0
  0
LTYPE
  5
16
330
5
100
AcDbSymbolTableRecord
100
AcDbLinetypeTableRecord
  2
CONTINUOUS
 70
     0
  3
Solid line
 72
    65
 73
     0
 40
0.0
  0
ENDTAB
  0
TABLE
  2
LAYER
  5
2
100
AcDbSymbolTable
 70
1
  0
LAYER
  5
50
100
AcDbSymbolTableRecord
100
AcDbLayerTableRecord
  2
0
 70
0
  6
CONTINUOUS
  0
ENDTAB
  0
TABLE
  2
STYLE
  5
3
330
0
100
AcDbSymbolTable
 70
     1
  0
STYLE
  5
11
330
3
100
AcDbSymbolTableRecord
100
AcDbTextStyleTableRecord
  2
STANDARD
 70
     0
 40
0.0
 41
1.0
 50
0.0
 71
     0
 42
2.5
  3
txt
  4

  0
ENDTAB
  0
TABLE
  2
VIEW
  5
6
330
0
100
AcDbSymbolTable
 70
     0
  0
ENDTAB
  0
TABLE
  2
UCS
  5
7
330
0
100
AcDbSymbolTable
 70
     0
  0
ENDTAB
  0
TABLE
  2
APPID
  5
9
330
0
100
AcDbSymbolTable
 70
     2
  0
APPID
  5
12
330
9
100
AcDbSymbolTableRecord
100
AcDbRegAppTableRecord
  2
ACAD
 70
     0
  0
ENDTAB
  0
TABLE
  2
DIMSTYLE
  5
A
330
0
100
AcDbSymbolTable
 70
     1
  0
DIMSTYLE
105
27
330
A
100
AcDbSymbolTableRecord
100
AcDbDimStyleTableRecord
  2
ISO-25
 70
     0
  3

  4

  5

  6

  7

 40
1.0
 41
2.5
 42
0.625
 43
3.75
 44
1.25
 45
0.0
 46
0.0
 47
0.0
 48
0.0
140
2.5
141
2.5
142
0.0
143
0.03937007874016
144
1.0
145
0.0
146
1.0
147
0.625
 71
     0
 72
     0
 73
     0
 74
     0
 75
     0
 76
     0
 77
     1
 78
     8
170
     0
171
     3
172
     1
173
     0
174
     0
175
     0
176
     0
177
     0
178
     0
270
     2
271
     2
272
     2
273
     2
274
     3
340
11
275
     0
280
     0
281
     0
282
     0
283
     0
284
     8
285
     0
286
     0
287
     3
288
     0
  0
ENDTAB
  0
TABLE
  2
BLOCK_RECORD
  5
1
330
0
100
AcDbSymbolTable
 70
     1
  0
BLOCK_RECORD
  5
1F
330
1
100
AcDbSymbolTableRecord
100
AcDbBlockTableRecord
  2
*MODEL_SPACE
  0
BLOCK_RECORD
  5
1B
330
1
100
AcDbSymbolTableRecord
100
AcDbBlockTableRecord
  2
*PAPER_SPACE
  0
ENDTAB
  0
ENDSEC
  0
SECTION
  2
BLOCKS
  0
BLOCK
  5
20
330
1F
100
AcDbEntity
  8
0
100
AcDbBlockBegin
  2
*MODEL_SPACE
 70
     0
 10
0.0
 20
0.0
 30
0.0
  3
*MODEL_SPACE
  1

  0
ENDBLK
  5
21
330
1F
100
AcDbEntity
  8
0
100
AcDbBlockEnd
  0
BLOCK
  5
1C
330
1B
100
AcDbEntity
 67
     1
  8
0
100
AcDbBlockBegin
  2
*PAPER_SPACE
  1

  0
ENDBLK
  5
1D
330
1B
100
AcDbEntity
 67
     1
  8
0
100
AcDbBlockEnd
  0
ENDSEC
  0
SECTION
  2
ENTITIES
  0
LWPOLYLINE
  5
100
100
AcDbEntity
  8
0
 62
1
100
AcDbPolyline
 90
151
 70
0
 10
36.776505
 20
43.409580
 30
0.0
 10
36.511710
 20
43.333479
 30
0.0
 10
36.063651
 20
43.086899
 30
0.0
 10
35.329382
 20
42.530789
 30
0.0
 10
34.662926
 20
41.830769
 30
0.0
 10
34.270267
 20
41.371309
 30
0.0
 10
33.836771
 20
41.133429
 30
0.0
 10
33.106157
 20
41.045429
 30
0.0
 10
31.822139
 20
41.035429
 30
0.0
 10
30.660981
 20
41.064530
 30
0.0
 10
29.787720
 20
41.159630
 30
0.0
 10
29.060933
 20
41.345470
 30
0.0
 10
28.339198
 20
41.646810
 30
0.0
 10
26.966649
 20
42.250690
 30
0.0
 10
26.929089
 20
41.988350
 30
0.0
 10
26.998009
 20
41.357630
 30
0.0
 10
27.032279
 20
40.673319
 30
0.0
 10
26.955889
 20
40.514939
 30
0.0
 10
26.814072
 20
40.464539
 30
0.0
 10
23.576724
 20
41.210350
 30
0.0
 10
21.033447
 20
41.833180
 30
0.0
 10
19.378140
 20
42.123460
 30
0.0
 10
18.169429
 20
42.126460
 30
0.0
 10
16.965942
 20
41.887160
 30
0.0
 10
15.681599
 20
41.603280
 30
0.0
 10
14.797610
 20
41.485280
 30
0.0
 10
14.296415
 20
41.381380
 30
0.0
 10
13.846094
 20
41.111020
 30
0.0
 10
13.521217
 20
40.736210
 30
0.0
 10
13.396354
 20
40.318979
 30
0.0
 10
13.507860
 20
40.061469
 30
0.0
 10
13.775904
 20
39.954319
 30
0.0
 10
13.962169
 20
39.881219
 30
0.0
 10
14.054539
 20
39.604549
 30
0.0
 10
13.998639
 20
38.096438
 30
0.0
 10
13.933719
 20
37.054598
 30
0.0
 10
13.977719
 20
36.314937
 30
0.0
 10
14.167598
 20
35.656817
 30
0.0
 10
14.540327
 20
34.859627
 30
0.0
 10
14.895914
 20
34.109926
 30
0.0
 10
15.070219
 20
33.569446
 30
0.0
 10
15.087488
 20
33.111506
 30
0.0
 10
14.971972
 20
32.609425
 30
0.0
 10
14.836763
 20
31.807265
 30
0.0
 10
14.936353
 20
31.127903
 30
0.0
 10
15.056384
 20
30.582974
 30
0.0
 10
15.019284
 20
30.129584
 30
0.0
 10
14.990374
 20
29.762724
 30
0.0
 10
15.129855
 20
29.425773
 30
0.0
 10
15.338691
 20
29.016184
 30
0.0
 10
15.476979
 20
28.474763
 30
0.0
 10
15.621835
 20
28.058093
 30
0.0
 10
15.892120
 20
27.812972
 30
0.0
 10
16.248136
 20
27.758373
 30
0.0
 10
16.650186
 20
27.913372
 30
0.0
 10
16.791404
 20
28.081893
 30
0.0
 10
16.845954
 20
28.381243
 30
0.0
 10
16.701221
 20
29.570322
 30
0.0
 10
16.581173
 20
30.343094
 30
0.0
 10
16.562233
 20
30.917013
 30
0.0
 10
16.651863
 20
31.403795
 30
0.0
 10
16.857511
 20
31.915135
 30
0.0
 10
17.206209
 20
32.532995
 30
0.0
 10
17.476602
 20
32.773746
 30
0.0
 10
17.576993
 20
32.751444
 30
0.0
 10
17.651283
 20
32.633404
 30
0.0
 10
17.712833
 20
32.108084
 30
0.0
 10
17.763803
 20
31.253024
 30
0.0
 10
17.892783
 20
30.403583
 30
0.0
 10
18.061494
 20
29.752544
 30
0.0
 10
18.231657
 20
29.492682
 30
0.0
 10
18.448549
 20
29.305304
 30
0.0
 10
18.708489
 20
28.854784
 30
0.0
 10
18.980410
 20
28.455013
 30
0.0
 10
19.310613
 20
28.246403
 30
0.0
 10
19.639302
 20
28.247532
 30
0.0
 10
19.906679
 20
28.477653
 30
0.0
 10
19.899480
 20
29.026383
 30
0.0
 10
19.655760
 20
29.979372
 30
0.0
 10
19.435413
 20
30.701434
 30
0.0
 10
19.378123
 20
31.207292
 30
0.0
 10
19.496064
 20
31.696444
 30
0.0
 10
19.801415
 20
32.368314
 30
0.0
 10
20.359579
 20
33.517075
 30
0.0
 10
21.598171
 20
32.894584
 30
0.0
 10
22.647121
 20
32.478264
 30
0.0
 10
24.063743
 20
32.040634
 30
0.0
 10
25.458395
 20
31.690824
 30
0.0
 10
26.441435
 20
31.537984
 30
0.0
 10
26.572745
 20
31.381784
 30
0.0
 10
26.727893
 20
30.880013
 30
0.0
 10
27.169173
 20
28.599381
 30
0.0
 10
27.667800
 20
26.595840
 30
0.0
 10
27.976391
 20
26.079202
 30
0.0
 10
28.151526
 20
25.995300
 30
0.0
 10
28.347695
 20
26.021716
 30
0.0
 10
28.961675
 20
26.175346
 30
0.0
 10
29.025195
 20
26.245845
 30
0.0
 10
29.040153
 20
26.437824
 30
0.0
 10
28.928706
 20
27.068935
 30
0.0
 10
28.744099
 20
28.296977
 30
0.0
 10
28.753497
 20
29.637197
 30
0.0
 10
28.929714
 20
30.732137
 30
0.0
 10
29.071866
 20
31.075918
 30
0.0
 10
29.245518
 20
31.224339
 30
0.0
 10
29.453860
 20
31.197951
 30
0.0
 10
29.613327
 20
31.002351
 30
0.0
 10
29.858967
 20
29.951231
 30
0.0
 10
30.010997
 20
28.284181
 30
0.0
 10
30.146216
 20
27.823891
 30
0.0
 10
30.532471
 20
27.205728
 30
0.0
 10
30.997539
 20
26.664310
 30
0.0
 10
31.369195
 20
26.434268
 30
0.0
 10
31.822994
 20
26.517769
 30
0.0
 10
32.050581
 20
26.774561
 30
0.0
 10
32.063337
 20
27.238771
 30
0.0
 10
31.872614
 20
27.944501
 30
0.0
 10
31.623892
 20
29.113150
 30
0.0
 10
31.564823
 20
30.357891
 30
0.0
 10
31.678931
 20
31.239133
 30
0.0
 10
31.827109
 20
31.553132
 30
0.0
 10
32.083993
 20
31.820252
 30
0.0
 10
33.067780
 20
32.326442
 30
0.0
 10
34.918057
 20
32.982852
 30
0.0
 10
36.369365
 20
33.555893
 30
0.0
 10
37.405872
 20
34.102373
 30
0.0
 10
37.762784
 20
34.409113
 30
0.0
 10
37.998485
 20
34.725673
 30
0.0
 10
38.115316
 20
35.040184
 30
0.0
 10
38.115598
 20
35.340724
 30
0.0
 10
38.001744
 20
35.615414
 30
0.0
 10
37.776068
 20
35.852364
 30
0.0
 10
37.440918
 20
36.039674
 30
0.0
 10
36.998645
 20
36.165454
 30
0.0
 10
36.782036
 20
36.247854
 30
0.0
 10
36.603613
 20
36.401574
 30
0.0
 10
36.401144
 20
36.875684
 30
0.0
 10
36.222810
 20
37.489285
 30
0.0
 10
35.916870
 20
38.098335
 30
0.0
 10
35.714141
 20
38.453715
 30
0.0
 10
35.689249
 20
38.734415
 30
0.0
 10
35.871731
 20
39.052576
 30
0.0
 10
36.291108
 20
39.520326
 30
0.0
 10
36.848282
 20
40.336636
 30
0.0
 10
37.197679
 20
41.303417
 30
0.0
 10
37.300575
 20
42.256427
 30
0.0
 10
37.247483
 20
42.676447
 30
0.0
 10
37.118250
 20
43.031437
 30
0.0
 10
36.948626
 20
43.310388
 30
0.0
 10
36.776440
 20
43.409388
 30
0.0
 10
36.776440
 20
43.409388
 30
0.0
  0
LWPOLYLINE
  5
101
100
AcDbEntity
  8
0
 62
1
100
AcDbPolyline
 90
11
 70
0
 10
14.759815
 20
41.163977
 30
0.0
 10
14.842205
 20
41.144876
 30
0.0
 10
14.829336
 20
40.925936
 30
0.0
 10
14.593426
 20
40.604255
 30
0.0
 10
14.098086
 20
40.230845
 30
0.0
 10
13.956956
 20
40.227845
 30
0.0
 10
13.906616
 20
40.354775
 30
0.0
 10
14.004856
 20
40.576645
 30
0.0
 10
14.239688
 20
40.835986
 30
0.0
 10
14.759809
 20
41.163846
 30
0.0
 10
14.759809
 20
41.163846
 30
0.0
  0
ENDSEC
  0
SECTION
  2
OBJECTS
  0
DICTIONARY
  5
C
330
0
100
AcDbDictionary
  3
ACAD_GROUP
350
D
  3
ACAD_MLINESTYLE
350
17
  0
DICTIONARY
  5
D
330
C
100
AcDbDictionary
  0
DICTIONARY
  5
1A
330
C
100
AcDbDictionary
  0
DICTIONARY
  5
17
330
C
100
AcDbDictionary
  3
STANDARD
350
18
  0
DICTIONARY
  5
19
330
C
100
AcDbDictionary
  0
ENDSEC
  0
EOF
