<?xml version="1.0" encoding="UTF-8" standalone="no"?>
<!-- Created with Inkscape (http://www.inkscape.org/) -->

<svg
   xmlns:dc="http://purl.org/dc/elements/1.1/"
   xmlns:cc="http://creativecommons.org/ns#"
   xmlns:rdf="http://www.w3.org/1999/02/22-rdf-syntax-ns#"
   xmlns:svg="http://www.w3.org/2000/svg"
   xmlns="http://www.w3.org/2000/svg"
   xmlns:sodipodi="http://sodipodi.sourceforge.net/DTD/sodipodi-0.dtd"
   xmlns:inkscape="http://www.inkscape.org/namespaces/inkscape"
   id="svg4161"
   version="1.1"
   inkscape:version="0.91 r13725"
   width="210.9375"
   height="210.9375"
   viewBox="0 0 210.9375 210.9375"
   sodipodi:docname="pig.svg">
  <sodipodi:namedview
     pagecolor="#ffffff"
     bordercolor="#666666"
     borderopacity="1"
     objecttolerance="10"
     gridtolerance="10"
     guidetolerance="10"
     inkscape:pageopacity="0"
     inkscape:pageshadow="2"
     inkscape:window-width="1360"
     inkscape:window-height="746"
     id="namedview4163"
     showgrid="false"
     inkscape:zoom="3.1644862"
     inkscape:cx="93.221377"
     inkscape:cy="116.44627"
     inkscape:window-x="1432"
     inkscape:window-y="-8"
     inkscape:window-maximized="1"
     inkscape:current-layer="svg4161" />
  <metadata
     id="metadata4167">
    <rdf:RDF>
      <cc:Work
         rdf:about="">
        <dc:format>image/svg+xml</dc:format>
        <dc:type
           rdf:resource="http://purl.org/dc/dcmitype/StillImage" />
        <dc:title></dc:title>
      </cc:Work>
    </rdf:RDF>
  </metadata>
  <defs
     id="defs4165" />
  <path
     id="path4715"
     d="m 130.31045,57.124029 -0.93825,0.269646 -1.58761,0.873709 -2.60174,1.970469 -2.36146,2.480387 -1.39131,1.628009 -1.53601,0.842882 -2.58879,0.311811 -4.54967,0.03543 -4.11434,-0.103111 -3.09423,-0.336968 -2.57523,-0.658489 -2.55733,-1.067741 -4.863363,-2.139733 -0.133086,0.929552 0.244205,2.234835 0.121429,2.424722 -0.270674,0.561189 -0.502498,0.178583 -11.47092,-2.642635 -9.011612,-2.206879 -5.86526,-1.028552 -4.282833,-0.01063 -4.264326,0.847914 -4.550821,1.005875 -3.132246,0.41811 -1.775885,0.36815 -1.595626,0.957969 -1.15114,1.328067 -0.442428,1.478375 0.3951,0.912438 0.949763,0.379665 0.659994,0.259016 0.327296,0.980327 -0.198071,5.3437 -0.230032,3.691561 0.155906,2.620843 0.6728,2.331923 1.32069,2.82469 1.259955,2.656419 0.617616,1.915087 0.06119,1.622623 -0.409309,1.779025 -0.479087,2.8423 0.352878,2.407188 0.425307,1.93085 -0.131457,1.6065 -0.102437,1.2999 0.494225,1.19392 0.73997,1.4513 0.489997,1.91842 0.51327,1.47639 0.957703,0.86854 1.261474,0.19346 1.424584,-0.54921 0.500379,-0.59712 0.193288,-1.06069 -0.512834,-4.21327 -0.425367,-2.73817 -0.06711,-2.03357 0.317586,-1.724819 0.728675,-1.811835 1.235544,-2.189269 0.958086,-0.853052 0.355717,0.07902 0.263232,0.418252 0.218091,1.861371 0.180602,3.029742 0.457016,3.00983 0.597795,2.30683 0.60294,0.92077 0.768512,0.66394 0.921048,1.59633 0.9635,1.41651 1.170011,0.73917 1.164647,-0.004 0.947399,-0.81539 -0.02551,-1.94432 -0.863575,-3.37673 -0.780757,-2.55849 -0.202997,-1.79241 0.417902,-1.733214 1.081953,-2.380642 1.977747,-4.070412 4.388711,2.205674 3.716753,1.475151 5.019526,1.550658 4.941679,1.239485 3.483215,0.541559 0.465271,0.553465 0.549738,1.777926 1.563591,8.08098 1.766786,7.09916 1.093433,1.83061 0.620557,0.29729 0.695089,-0.0936 2.17552,-0.54436 0.22507,-0.2498 0.053,-0.68024 -0.39489,-2.23622 -0.65412,-4.35133 0.0333,-4.74881 0.62439,-3.87971 0.50369,-1.21812 0.6153,-0.5259 0.73822,0.0935 0.56504,0.69307 0.87038,3.72444 0.53869,5.90687 0.47912,1.63095 1.36862,2.19034 1.64788,1.91841 1.31689,0.81511 1.60795,-0.29587 0.80641,-0.90989 0.0452,-1.64484 -0.67579,-2.50062 -0.8813,-4.14088 -0.2093,-4.4105 0.40432,-3.12251 0.52504,-1.112596 0.91022,-0.946488 3.48586,-1.793588 6.5561,-2.325863 5.14243,-2.030458 3.67266,-1.936347 1.26465,-1.086875 0.83516,-1.12167 0.41397,-1.114406 0.001,-1.064906 -0.40342,-0.973311 -0.79964,-0.839587 -1.18754,-0.663697 -1.56711,-0.445678 -0.76751,-0.291968 -0.63221,-0.544678 -0.71741,-1.679918 -0.63189,-2.174174 -1.08404,-2.158053 -0.71833,-1.259221 -0.0882,-0.994606 0.64659,-1.12734 1.48598,-1.657382 1.97424,-2.892439 1.23802,-3.4256 0.36459,-3.376809 -0.18812,-1.48826 -0.45791,-1.257839 -0.60103,-0.988406 -0.61011,-0.350788 0,0 m -78.011663,7.956181 0.291933,0.06768 -0.0456,0.775772 -0.835899,1.139812 -1.755142,1.323107 -0.500068,0.01063 -0.17837,-0.449752 0.348095,-0.786154 0.832082,-0.918922 1.842949,-1.161709 0,0"
     style="fill:none;stroke:#ff0000;stroke-width:0.96438599"
     inkscape:connector-curvature="0" />
</svg>
