<?xml version="1.0" encoding="UTF-8" standalone="no"?>
<!-- Created with Inkscape (http://www.inkscape.org/) -->

<svg
   xmlns:dc="http://purl.org/dc/elements/1.1/"
   xmlns:cc="http://creativecommons.org/ns#"
   xmlns:rdf="http://www.w3.org/1999/02/22-rdf-syntax-ns#"
   xmlns:svg="http://www.w3.org/2000/svg"
   xmlns="http://www.w3.org/2000/svg"
   xmlns:sodipodi="http://sodipodi.sourceforge.net/DTD/sodipodi-0.dtd"
   xmlns:inkscape="http://www.inkscape.org/namespaces/inkscape"
   id="svg4735"
   version="1.1"
   inkscape:version="0.91 r13725"
   width="88.58268"
   height="83.188835"
   viewBox="0 0 88.58268 83.188835"
   sodipodi:docname="squirrel-silhouette.svg">
  <sodipodi:namedview
     pagecolor="#ffffff"
     bordercolor="#666666"
     borderopacity="1"
     objecttolerance="10"
     gridtolerance="10"
     guidetolerance="10"
     inkscape:pageopacity="0"
     inkscape:pageshadow="2"
     inkscape:window-width="1360"
     inkscape:window-height="746"
     id="namedview4737"
     showgrid="false"
     inkscape:zoom="3.0025446"
     inkscape:cx="30.758024"
     inkscape:cy="29.20846"
     inkscape:window-x="1432"
     inkscape:window-y="-8"
     inkscape:window-maximized="1"
     inkscape:current-layer="svg4735"
     fit-margin-top="0"
     fit-margin-left="0"
     fit-margin-right="0"
     fit-margin-bottom="0" />
  <metadata
     id="metadata4741">
    <rdf:RDF>
      <cc:Work
         rdf:about="">
        <dc:format>image/svg+xml</dc:format>
        <dc:type
           rdf:resource="http://purl.org/dc/dcmitype/StillImage" />
        <dc:title></dc:title>
      </cc:Work>
    </rdf:RDF>
  </metadata>
  <defs
     id="defs4739" />
  <path
     id="path5285"
     d="m 28.031136,0.6979357 -4.531355,0.268033 -3.87659,0.686175 -7.062254,2.775015 -6.04585,3.6945224 -2.704241,2.6253549 -2.028417,2.714418 -1.06545632,2.334633 0.1846396,1.486 3.63962472,0.97602 4.686221,1.318715 4.271967,2.137122 3.461806,2.707484 2.25574,3.0298 0.935555,2.542697 -0.02769,3.449735 -1.537641,8.045345 -2.000602,8.513009 -0.363109,6.48988 0.755035,4.272796 1.494647,4.163468 2.131684,3.827603 2.666149,3.265202 2.886152,2.399819 3.348605,1.667503 4.292066,1.110139 5.716539,0.727729 7.864,0.99514 5.042358,1.172278 9.285816,0.760641 6.629765,0.386703 3.002292,0.570231 2.314988,0.650399 1.654521,-0.505904 1.504924,-0.381684 1.647448,-0.334886 0.836221,-1.289995 -1.676681,-2.546375 -1.676682,-1.676681 -5.212707,0.171758 -5.212707,0.174484 2.096533,-2.216491 1.694021,-2.055674 1.209291,-2.105693 0.768415,-2.252405 0.371394,-2.495813 -0.116382,-3.325924 -0.853589,-2.929125 -1.59817,-2.548359 -2.350125,-2.183627 -1.142908,-1.036808 -0.04776,-0.498031 0.889043,0.113307 1.667509,0.797208 1.957542,1.039194 1.525698,0.284347 1.805639,-0.521919 2.79736,-1.379601 4.307571,-2.227396 2.148334,0.550714 1.969635,0.338263 1.119275,-0.670872 1.436766,-0.883324 0.520726,-0.316253 0.188116,-1.87025 -0.127443,-1.541556 -1.145745,-1.492828 -1.092817,-0.962394 -1.092543,-0.428649 -3.59442,0.537708 -4.318838,0.625365 -1.423679,-0.178662 -0.686124,-0.503955 -0.111289,-0.908184 0.489025,-0.64072 2.89111,-0.550357 4.236672,-0.44622 3.492421,-1.200471 1.120568,-0.726381 0.590486,-0.8956 L 87.210883,37.17606 86.864936,35.570182 86.01978,30.995433 85.311453,27.880865 83.4625,24.416843 81.595477,20.915212 80.929757,17.66377 79.510353,10.462316 78.431953,7.9195117 77.080205,5.9978838 76.095317,5.1203121 75.559485,5.381251 75.428061,10.395424 75.224184,16.647588 74.8035,17.84753 74.214852,17.502918 72.746085,12.575469 71.758445,7.3855767 71.202279,5.2917697 70.499363,4.8793299 l -1.390891,1.23306 -2.183991,2.8086931 -1.321482,3.05109 -0.465702,3.316435 0.383348,3.604729 0.211298,2.125379 -1.116432,1.977719 -3.449994,4.014434 -4.848898,2.82588 -4.544761,1.85662 0.264452,-2.341903 0.442467,-5.662455 -0.442467,-5.736251 -1.946586,-5.349024 -2.37214,-3.8284208 -3.145415,-3.1573 -3.876997,-2.4527745 -4.566887,-1.714843 -3.643263,-0.594155 -4.453881,-0.158307 0,0"
     style="fill:none;stroke:#ff0000;stroke-width:1.3958714"
     inkscape:connector-curvature="0" />
</svg>
