  0
SECTION
  2
HEADER
  9
$ACADVER
  1
AC1014
  9
$HANDSEED
  5
FFFF
  9
$MEASUREMENT
 70
     1
  0
ENDSEC
  0
SECTION
  2
TABLES
  0
TABLE
  2
VPORT
  5
8
330
0
100
AcDbSymbolTable
 70
     4
  0
VPORT
  5
2E
330
8
100
AcDbSymbolTableRecord
100
AcDbViewportTableRecord
  2
*ACTIVE
 70
     0
 10
0.0
 20
0.0
 11
1.0
 21
1.0
 12
210.0
 22
148.5
 13
0.0
 23
0.0
 14
10.0
 24
10.0
 15
10.0
 25
10.0
 16
0.0
 26
0.0
 36
1.0
 17
0.0
 27
0.0
 37
0.0
 40
341.0
 41
1.24
 42
50.0
 43
0.0
 44
0.0
 50
0.0
 51
0.0
 71
     0
 72
   100
 73
     1
 74
     3
 75
     0
 76
     0
 77
     0
 78
     0
  0
ENDTAB
  0
TABLE
  2
LTYPE
  5
5
330
0
100
AcDbSymbolTable
 70
     1
  0
LTYPE
  5
14
330
5
100
AcDbSymbolTableRecord
100
AcDbLinetypeTableRecord
  2
BYBLOCK
 70
     0
  3

 72
    65
 73
     0
 40
0.0
  0
LTYPE
  5
15
330
5
100
AcDbSymbolTableRecord
100
AcDbLinetypeTableRecord
  2
BYLAYER
 70
     0
  3

 72
    65
 73
     0
 40
0.0
  0
LTYPE
  5
16
330
5
100
AcDbSymbolTableRecord
100
AcDbLinetypeTableRecord
  2
CONTINUOUS
 70
     0
  3
Solid line
 72
    65
 73
     0
 40
0.0
  0
ENDTAB
  0
TABLE
  2
LAYER
  5
2
100
AcDbSymbolTable
 70
1
  0
LAYER
  5
50
100
AcDbSymbolTableRecord
100
AcDbLayerTableRecord
  2
0
 70
0
  6
CONTINUOUS
  0
ENDTAB
  0
TABLE
  2
STYLE
  5
3
330
0
100
AcDbSymbolTable
 70
     1
  0
STYLE
  5
11
330
3
100
AcDbSymbolTableRecord
100
AcDbTextStyleTableRecord
  2
STANDARD
 70
     0
 40
0.0
 41
1.0
 50
0.0
 71
     0
 42
2.5
  3
txt
  4

  0
ENDTAB
  0
TABLE
  2
VIEW
  5
6
330
0
100
AcDbSymbolTable
 70
     0
  0
ENDTAB
  0
TABLE
  2
UCS
  5
7
330
0
100
AcDbSymbolTable
 70
     0
  0
ENDTAB
  0
TABLE
  2
APPID
  5
9
330
0
100
AcDbSymbolTable
 70
     2
  0
APPID
  5
12
330
9
100
AcDbSymbolTableRecord
100
AcDbRegAppTableRecord
  2
ACAD
 70
     0
  0
ENDTAB
  0
TABLE
  2
DIMSTYLE
  5
A
330
0
100
AcDbSymbolTable
 70
     1
  0
DIMSTYLE
105
27
330
A
100
AcDbSymbolTableRecord
100
AcDbDimStyleTableRecord
  2
ISO-25
 70
     0
  3

  4

  5

  6

  7

 40
1.0
 41
2.5
 42
0.625
 43
3.75
 44
1.25
 45
0.0
 46
0.0
 47
0.0
 48
0.0
140
2.5
141
2.5
142
0.0
143
0.03937007874016
144
1.0
145
0.0
146
1.0
147
0.625
 71
     0
 72
     0
 73
     0
 74
     0
 75
     0
 76
     0
 77
     1
 78
     8
170
     0
171
     3
172
     1
173
     0
174
     0
175
     0
176
     0
177
     0
178
     0
270
     2
271
     2
272
     2
273
     2
274
     3
340
11
275
     0
280
     0
281
     0
282
     0
283
     0
284
     8
285
     0
286
     0
287
     3
288
     0
  0
ENDTAB
  0
TABLE
  2
BLOCK_RECORD
  5
1
330
0
100
AcDbSymbolTable
 70
     1
  0
BLOCK_RECORD
  5
1F
330
1
100
AcDbSymbolTableRecord
100
AcDbBlockTableRecord
  2
*MODEL_SPACE
  0
BLOCK_RECORD
  5
1B
330
1
100
AcDbSymbolTableRecord
100
AcDbBlockTableRecord
  2
*PAPER_SPACE
  0
ENDTAB
  0
ENDSEC
  0
SECTION
  2
BLOCKS
  0
BLOCK
  5
20
330
1F
100
AcDbEntity
  8
0
100
AcDbBlockBegin
  2
*MODEL_SPACE
 70
     0
 10
0.0
 20
0.0
 30
0.0
  3
*MODEL_SPACE
  1

  0
ENDBLK
  5
21
330
1F
100
AcDbEntity
  8
0
100
AcDbBlockEnd
  0
BLOCK
  5
1C
330
1B
100
AcDbEntity
 67
     1
  8
0
100
AcDbBlockBegin
  2
*PAPER_SPACE
  1

  0
ENDBLK
  5
1D
330
1B
100
AcDbEntity
 67
     1
  8
0
100
AcDbBlockEnd
  0
ENDSEC
  0
SECTION
  2
ENTITIES
  0
LWPOLYLINE
  5
100
100
AcDbEntity
  8
0
 62
1
100
AcDbPolyline
 90
121
 70
0
 10
7.911009
 20
23.280765
 30
0.0
 10
6.632160
 20
23.205120
 30
0.0
 10
5.538101
 20
23.011466
 30
0.0
 10
3.544976
 20
22.228295
 30
0.0
 10
1.838702
 20
21.185619
 30
0.0
 10
1.075505
 20
20.444685
 30
0.0
 10
0.503041
 20
19.678616
 30
0.0
 10
0.202346
 20
19.019731
 30
0.0
 10
0.254455
 20
18.600349
 30
0.0
 10
1.281638
 20
18.324894
 30
0.0
 10
2.604194
 20
17.952724
 30
0.0
 10
3.809838
 20
17.349580
 30
0.0
 10
4.786836
 20
16.585468
 30
0.0
 10
5.423456
 20
15.730391
 30
0.0
 10
5.687491
 20
15.012786
 30
0.0
 10
5.679676
 20
14.039194
 30
0.0
 10
5.245719
 20
11.768619
 30
0.0
 10
4.681105
 20
9.366058
 30
0.0
 10
4.578628
 20
7.534470
 30
0.0
 10
4.791715
 20
6.328592
 30
0.0
 10
5.213538
 20
5.153569
 30
0.0
 10
5.815147
 20
4.073334
 30
0.0
 10
6.567593
 20
3.151822
 30
0.0
 10
7.382129
 20
2.474539
 30
0.0
 10
8.327180
 20
2.003933
 30
0.0
 10
9.538496
 20
1.690627
 30
0.0
 10
11.151831
 20
1.485246
 30
0.0
 10
13.371226
 20
1.204395
 30
0.0
 10
14.794292
 20
0.873552
 30
0.0
 10
17.414955
 20
0.658882
 30
0.0
 10
19.286022
 20
0.549746
 30
0.0
 10
20.133336
 20
0.388814
 30
0.0
 10
20.786677
 20
0.205257
 30
0.0
 10
21.253620
 20
0.348035
 30
0.0
 10
21.678343
 20
0.455754
 30
0.0
 10
22.143289
 20
0.550267
 30
0.0
 10
22.379289
 20
0.914332
 30
0.0
 10
21.906093
 20
1.632976
 30
0.0
 10
21.432896
 20
2.106172
 30
0.0
 10
19.961754
 20
2.057698
 30
0.0
 10
18.490612
 20
2.008455
 30
0.0
 10
19.082300
 20
2.633998
 30
0.0
 10
19.560391
 20
3.214155
 30
0.0
 10
19.901679
 20
3.808428
 30
0.0
 10
20.118543
 20
4.444107
 30
0.0
 10
20.223359
 20
5.148481
 30
0.0
 10
20.190513
 20
6.087131
 30
0.0
 10
19.949612
 20
6.913795
 30
0.0
 10
19.498572
 20
7.632998
 30
0.0
 10
18.835315
 20
8.249266
 30
0.0
 10
18.512761
 20
8.541877
 30
0.0
 10
18.499282
 20
8.682432
 30
0.0
 10
18.750190
 20
8.650454
 30
0.0
 10
19.220798
 20
8.425464
 30
0.0
 10
19.773260
 20
8.132181
 30
0.0
 10
20.203846
 20
8.051932
 30
0.0
 10
20.713437
 20
8.199229
 30
0.0
 10
21.502914
 20
8.588583
 30
0.0
 10
22.718606
 20
9.217204
 30
0.0
 10
23.324914
 20
9.061780
 30
0.0
 10
23.880789
 20
8.966315
 30
0.0
 10
24.196673
 20
9.155650
 30
0.0
 10
24.602160
 20
9.404943
 30
0.0
 10
24.749121
 20
9.494197
 30
0.0
 10
24.802211
 20
10.022023
 30
0.0
 10
24.766244
 20
10.457084
 30
0.0
 10
24.442889
 20
10.878394
 30
0.0
 10
24.134472
 20
11.150003
 30
0.0
 10
23.826132
 20
11.270977
 30
0.0
 10
22.811707
 20
11.119224
 30
0.0
 10
21.592835
 20
10.942732
 30
0.0
 10
21.191041
 20
10.993154
 30
0.0
 10
20.997402
 20
11.135381
 30
0.0
 10
20.965993
 20
11.391691
 30
0.0
 10
21.104007
 20
11.572517
 30
0.0
 10
21.919943
 20
11.727840
 30
0.0
 10
23.115626
 20
11.853773
 30
0.0
 10
24.101264
 20
12.192572
 30
0.0
 10
24.417514
 20
12.397573
 30
0.0
 10
24.584162
 20
12.650331
 30
0.0
 10
24.612849
 20
12.985828
 30
0.0
 10
24.515215
 20
13.439042
 30
0.0
 10
24.276693
 20
14.730138
 30
0.0
 10
24.076788
 20
15.609138
 30
0.0
 10
23.554972
 20
16.586762
 30
0.0
 10
23.028057
 20
17.575000
 30
0.0
 10
22.840176
 20
18.492629
 30
0.0
 10
22.439589
 20
20.525040
 30
0.0
 10
22.135240
 20
21.242676
 30
0.0
 10
21.753747
 20
21.785002
 30
0.0
 10
21.475789
 20
22.032672
 30
0.0
 10
21.324566
 20
21.959029
 30
0.0
 10
21.287475
 20
20.543918
 30
0.0
 10
21.229936
 20
18.779419
 30
0.0
 10
21.111210
 20
18.440768
 30
0.0
 10
20.945080
 20
18.538025
 30
0.0
 10
20.530562
 20
19.928661
 30
0.0
 10
20.251828
 20
21.393364
 30
0.0
 10
20.094865
 20
21.984283
 30
0.0
 10
19.896487
 20
22.100683
 30
0.0
 10
19.503947
 20
21.752686
 30
0.0
 10
18.887576
 20
20.960010
 30
0.0
 10
18.514624
 20
20.098925
 30
0.0
 10
18.383193
 20
19.162953
 30
0.0
 10
18.491382
 20
18.145618
 30
0.0
 10
18.551015
 20
17.545789
 30
0.0
 10
18.235933
 20
16.987633
 30
0.0
 10
17.262268
 20
15.854670
 30
0.0
 10
15.893801
 20
15.057144
 30
0.0
 10
14.611169
 20
14.533165
 30
0.0
 10
14.685803
 20
15.194102
 30
0.0
 10
14.810677
 20
16.792173
 30
0.0
 10
14.685803
 20
18.411070
 30
0.0
 10
14.136433
 20
19.920683
 30
0.0
 10
13.466963
 20
21.001149
 30
0.0
 10
12.579257
 20
21.892209
 30
0.0
 10
11.485082
 20
22.584437
 30
0.0
 10
10.196205
 20
23.068403
 30
0.0
 10
9.167995
 20
23.236087
 30
0.0
 10
7.911011
 20
23.280765
 30
0.0
 10
7.911011
 20
23.280765
 30
0.0
  0
ENDSEC
  0
SECTION
  2
OBJECTS
  0
DICTIONARY
  5
C
330
0
100
AcDbDictionary
  3
ACAD_GROUP
350
D
  3
ACAD_MLINESTYLE
350
17
  0
DICTIONARY
  5
D
330
C
100
AcDbDictionary
  0
DICTIONARY
  5
1A
330
C
100
AcDbDictionary
  0
DICTIONARY
  5
17
330
C
100
AcDbDictionary
  3
STANDARD
350
18
  0
DICTIONARY
  5
19
330
C
100
AcDbDictionary
  0
ENDSEC
  0
EOF
