<?xml version="1.0" encoding="UTF-8" standalone="no"?>
<!-- Created with Inkscape (http://www.inkscape.org/) -->

<svg
   xmlns:dc="http://purl.org/dc/elements/1.1/"
   xmlns:cc="http://creativecommons.org/ns#"
   xmlns:rdf="http://www.w3.org/1999/02/22-rdf-syntax-ns#"
   xmlns:svg="http://www.w3.org/2000/svg"
   xmlns="http://www.w3.org/2000/svg"
   xmlns:sodipodi="http://sodipodi.sourceforge.net/DTD/sodipodi-0.dtd"
   xmlns:inkscape="http://www.inkscape.org/namespaces/inkscape"
   id="svg5299"
   version="1.1"
   inkscape:version="0.91 r13725"
   width="257.39999"
   height="279.29999"
   viewBox="0 0 257.39999 279.29999"
   sodipodi:docname="unicorn.svg">
  <sodipodi:namedview
     pagecolor="#ffffff"
     bordercolor="#666666"
     borderopacity="1"
     objecttolerance="10"
     gridtolerance="10"
     guidetolerance="10"
     inkscape:pageopacity="0"
     inkscape:pageshadow="2"
     inkscape:window-width="1360"
     inkscape:window-height="746"
     id="namedview5301"
     showgrid="false"
     inkscape:zoom="2.3899349"
     inkscape:cx="3.9717893"
     inkscape:cy="87.676528"
     inkscape:window-x="1432"
     inkscape:window-y="-8"
     inkscape:window-maximized="1"
     inkscape:current-layer="svg5299" />
  <metadata
     id="metadata5305">
    <rdf:RDF>
      <cc:Work
         rdf:about="">
        <dc:format>image/svg+xml</dc:format>
        <dc:type
           rdf:resource="http://purl.org/dc/dcmitype/StillImage" />
        <dc:title></dc:title>
      </cc:Work>
    </rdf:RDF>
  </metadata>
  <defs
     id="defs5303" />
  <path
     id="path5849"
     d="M84.236328 179.73242L84.185547 179.75586L81.029297 182.13086L75.035156 186.68359L72.042969 188.95703L71.455078 188.41992L70.358246625 187.65376125L69.310547 187.39062L68.804688 187.39062L69.113281 187.78516L69.621202875 188.84407375L69.496094 189.60352L67.9375 189.71289L65.845703 188.375L63.299990875 186.7654675L61.601562 186.16602L60.970703 186.09961L61.566406 186.71875L62.598559875 188.056775L62.554688 189.0957L62.19922525 189.6114425L61.595703 189.67969L60.478516 189.13086L59.841797 188.63672L59.585938 188.87695L59.154297 189.61523L58.976562 190.11523L57.755859 190.05273L56.093035125 190.07006125L55.263672 190.38086L54.986328 190.61914L55.648438 190.75L56.6572428125 191.059520938L57.0921285 191.47707L56.9526296875 192.000811562L56.238281 192.62891L55.4605057344 192.955706094L54.738084875 192.85469375L54.0860745781 192.332682031L53.519531 191.39648L53.306641 190.92773L52.759766 192.50195L52.046875 194.46484L51.2608495 195.13530875L50.121094 194.92188L49.294922 193.75977L49.283203 194.02344L49.398438 195.60352L49.265625 196.88867L46.742188 197.85156L43.9143155 198.90222625L43.7661256562 199.131738281L44.251953 199.28516L45.802734 199.80859L45.644531 200.29492L45.455835625 200.86069L45.701172 201.60352L45.873490625 202.4554575L45.339844 202.90625L42.884766 202.98438L42.384766 202.95117L43.423828 204.58008L44.892578 205.91406L44.626953 206.48047L43.859375 207.66797L44.380859 207.66992L45.404297 207.85742L44.677734 208.88086L43.478949 210.89917L43.125 212.81836L43.252995125 213.705425L44.029297 213.4707L46.121094 212.76562L46.527344 212.90039L46.292969 213.92578L45.497053 216.04606625L45.378906 217.46289L45.451172 217.75L46.050781 217.16602L47.273438 216.3457L47.439453 217.42578L47.5106565 218.72113875L47.857422 218.97852L48.8174265 219.4881375L49.402344 220.57812L49.572036 221.0247775L49.972656 220.87109L50.69595775 220.58895L51.263672 220.71289L51.426341125 221.75493L51.089844 222.55859L51.164065 222.66128875L52.197266 222.91602L53.283203 223.14844L53.314453 223.70898L53.12404675 224.98461875L52.511719 226.30078L50.6401615 228.2392075L47.732422 229.88086L39.755859 233.67383L38.3801475 234.5041325L37.498047 235.40039L36.117188 237.14844L35.429688 237.96094L34.257812 237.08594L30.112332875 234.2466125L26.554688 232.49414L23.86693725 232.14802375L19.324219 232.40625L13.93970625 232.68717125L10.808594 232.11133L10.173828 231.85547L10.457031 232.22461L13.134766 234.37695L13.951172 234.91211L12.054688 235.51953L6.4257812 235.34766L3.811389275 235.24743125L2.91465645313 235.314271406L2.7265625 235.44727L5.8613281 237.85156L8.229087925 239.65715375L10.847656 240.77148L12.3077935 241.3239L12.722656 241.91016L12.893353875 242.81803125L12.736328 243.49023L12.638672 243.72461L14.070312 242.92773L17.625 241.22852L18.117188 241.43555L17.9803156406 242.08549L17.337564625 242.68527L15.085938 243.38086L14.269531 243.52734L14.708984 243.90625L15.984375 244.23633L18.37495425 243.73689L21.460938 241.91406L22.80637325 241.0595025L24.015625 240.61914L26.5625 240.50195L26.599609 241.27539L26.858519125 243.41913L27.673828 244.83984L28.011719 245.125L28.089844 244.34766L28.576040375 242.49303625L29.583984 241.45703L30.936907 241.24657L32.835938 241.95117L34.04937125 242.73972L34.912109 243.72852L35.498490625 244.979515L35.912109 246.9668L36.5389771875 250.012092813L37.40247075 252.442845L38.6213694375 254.515457187L40.314453 256.48633L41.295879125 257.76064875L41.408203 259.36133L41.276443875 260.4531375L40.763672 261.73828L40.173828 263.34961L40.644909625 264.35057L42.121094 265.50195L43.214844 266.25977L43.466797 266.49023L43.414062 268.69141L43.417969 270.89062L43.720703 270.66211L44.013672 270.48633L44.09375 271.5918L44.121094 272.64648L44.517578 272.33008L44.945312 272.05859L45.171875 272.61914L45.719622625 273.51731125L46.501953 274.16016L47.757812 275.4043L48.57883325 276.31842625L49.162109 276.50977L51.941406 276.57617L54.181641 276.57812L54.113281 276.28711L53.232422 273.78711L52.890625 272.52344L52.597276875 271.3500325L51.642578 270.20703L48.917969 266.95117L48.66619075 266.54797625L48.841797 266.56641L51.939453 268.16602L53.295313125 269.16195375L53.90625 270.5918L54.613281 272.27734L55.230469 273.75781L55.230469 274.10352L55.416016 273.74219L55.775391 273.27539L56.119989625 273.30979625L56.283203 273.72656L56.408203 274.13281L56.724609 273.93945L57.246248875 273.56614625L58.158203 274.52344L60.126953 276.55078L61.970703 276.78906L64.91613025 276.8777275L65.652344 276.68945L65.672195125 275.77198L64.923828 274.3125L64.271484 272.68164L63.979950125 271.7500475L63.478516 271.14844L61.330078 269.46484L55.355469 264.90039L54.493893375 263.71024375L54.236328 262.36133L54.411777625 261.1556225L55.335938 258.78125L57.398438 252.51562L57.70046 249.74312L57.353516 246.22461L57.021484 243.50977L57.0228199063 243.0824725L57.26869875 242.812555L59.945312 241.99219L64.6199965 240.5016025L67.869141 238.88086L70.613229125 237.0664375L72.339844 235.30078L74.132812 232.16211L74.6569385 230.92396125L74.865234 230.88672L75.119141 231.44531L75.148231625 231.90607625L74.796875 232.60352L73.533203 234.64062L72.19896175 237.14330375L71.763672 239.14453L72.291016 241.55078L75.802734 239.65625L77.59375 238.67383L78.4531696875 238.31700375L78.8906585 237.81086L79.132812 234.73047L79.486328 231.25586L81.619019 227.9402375L85.246094 224.11328L87.169922 222.62305L87.318359 223.81055L87.158203 225.32422L86.4466585 226.3342675L85.470703 227.16406L83.460938 227.7168L83.103516 227.71875L83.513672 228.01758L84.138672 228.76562L83.15625 229.41406L81.871094 230.35938L82.476562 230.50977L83.83126925 230.924045L83.7262398437 231.181493438L83.064453 231.41797L82.587689125 231.553515L82.722656 231.72656L82.962891 231.9082L82.416016 232.51953L81.871094 233.20898L82.162109 233.31836L82.42165625 233.4569975L82.527344 234.14258L82.98689 236.62835875L83.791016 238.19922L84.21559925 238.5945825L84.681641 238.66992L85.919847625 238.19260875L86.759766 236.60742L87.22877575 235.47074L87.830078 234.8125L88.970703 234.49219L89.800781 234.46484L90.544922 232.45703L90.765625 230.29883L91.050781 225.98047L91.2668175 221.10700625L91.150391 218.13672L90.7342765 216.88073375L89.855469 216.11719L88.603237125 215.6788375L87.0 216.26953L81.451172 219.55664L78.746094 221.28125L78.3464867656 221.394575938L77.967371125 221.214125L76.865234 219.61133L74.447266 216.45117L73.475632625 215.35706125L72.982422 214.3457L71.65324325 211.651095L69.671875 208.61914L67.587891 206.16016L65.791016 204.13086L65.46875 203.76367L66.646484 203.75977L68.419922 203.61133L69.015625 203.46875L69.607422 203.82617L71.375 205.21484L73.7096215 206.80138L74.6721952812 207.04455125L75.556641 206.94531L78.113281 205.26562L78.868262625 204.09983625L78.738281 203.00195L77.28125 201.10938L74.677734 197.4043L74.329928125 196.312215L74.378906 195.66602L75.023438 196.10547L75.552734 196.61719L75.552734 196.16016L75.396484 195.32422L75.238281 194.89844L76.046875 195.24609L76.436097875 195.47560625L76.5 195.15625L76.16160575 194.1347125L75.291016 193.33789L74.974609 193.16602L75.574219 193.20703L76.109375 193.13672L75.064453 191.875L74.732422 191.65039L79.042969 186.28125L84.236328 179.73242L84.236328 179.73242"
     style="fill:none;stroke:#ff0000" />
</svg>
