<?xml version="1.0" encoding="UTF-8" standalone="no"?>
<!-- Created with Inkscape (http://www.inkscape.org/) -->

<svg
   xmlns:dc="http://purl.org/dc/elements/1.1/"
   xmlns:cc="http://creativecommons.org/ns#"
   xmlns:rdf="http://www.w3.org/1999/02/22-rdf-syntax-ns#"
   xmlns:svg="http://www.w3.org/2000/svg"
   xmlns="http://www.w3.org/2000/svg"
   xmlns:sodipodi="http://sodipodi.sourceforge.net/DTD/sodipodi-0.dtd"
   xmlns:inkscape="http://www.inkscape.org/namespaces/inkscape"
   width="210mm"
   height="297mm"
   viewBox="0 0 744.09448819 1052.3622047"
   id="svg2"
   version="1.1"
   inkscape:version="0.91 r13725"
   sodipodi:docname="mar_muscat.svg">
  <defs
     id="defs4" />
  <sodipodi:namedview
     id="base"
     pagecolor="#ffffff"
     bordercolor="#666666"
     borderopacity="1.0"
     inkscape:pageopacity="0.0"
     inkscape:pageshadow="2"
     inkscape:zoom="3.959798"
     inkscape:cx="125.23641"
     inkscape:cy="953.49357"
     inkscape:document-units="mm"
     inkscape:current-layer="layer1"
     showgrid="false"
     inkscape:window-width="1360"
     inkscape:window-height="746"
     inkscape:window-x="1432"
     inkscape:window-y="-8"
     inkscape:window-maximized="1" />
  <metadata
     id="metadata7">
    <rdf:RDF>
      <cc:Work
         rdf:about="">
        <dc:format>image/svg+xml</dc:format>
        <dc:type
           rdf:resource="http://purl.org/dc/dcmitype/StillImage" />
        <dc:title></dc:title>
      </cc:Work>
    </rdf:RDF>
  </metadata>
  <g
     inkscape:label="Layer 1"
     inkscape:groupmode="layer"
     id="layer1">
    <path
       inkscape:connector-curvature="0"
       style="fill:none;fill-rule:evenodd;stroke:#ff0000;stroke-width:0.32439399px;stroke-linecap:butt;stroke-linejoin:miter;stroke-opacity:1"
       d="m 83.767633,67.726783 c -1.19935,-0.149091 -2.135512,1.429053 -2.869077,2.389477 -1.045493,1.368813 -1.668063,3.042741 -2.25787,4.661026 -0.613429,1.683115 -0.961143,5.287243 -0.961143,5.287243 l -0.641185,-1.442036 c -0.640918,-1.442064 -1.001466,-3.044985 -1.92292,-4.326098 -1.015359,-1.411666 -2.180365,-2.778532 -3.626919,-3.74354 -1.371603,-0.915008 -3.147115,-1.541744 -4.704686,-2.082583 -1.089166,-0.378195 -3.364952,-0.583192 -3.364952,-0.583192 0,0 0.03393,2.43953 0.42226,3.568908 0.411708,1.197354 0.960612,2.396133 1.587993,3.495929 0.653625,1.145802 1.186244,2.134509 2.181128,3.000703 0.367863,0.320281 1.416833,0.845598 1.256157,1.311058 -0.08886,0.257432 -0.529274,0.139927 -0.800847,0.160299 -1.119727,0.08403 -2.243026,-0.206389 -3.364956,-0.160299 -1.237786,0.05085 -2.847439,0.251807 -3.931882,0.850707 -1.759951,0.971959 -2.646669,2.505518 -3.598876,4.276239 -1.216292,2.261824 -2.15322,4.803912 -2.242879,7.370462 -0.116704,3.340662 0.895629,6.715092 2.242879,9.774274 1.857023,4.21669 4.835061,7.89363 7.851351,11.37659 1.954577,2.257 3.690633,5.29697 6.569611,6.08809 0.737376,0.20263 1.521278,-0.22713 2.242882,-0.48025 1.352347,-0.47438 2.556468,-1.29731 3.845841,-1.92292 0.902814,-0.43806 1.721562,-1.33218 2.723771,-1.28174 0.311035,0.0157 0.531581,0.32442 0.800847,0.48089 0.847736,0.49261 1.707649,0.96361 2.563472,1.44203 0.95996,0.53664 1.820087,1.32646 2.884699,1.60233 0.98234,0.25455 2.117356,0.41285 3.044364,0 1.312799,-0.58467 1.951547,-2.11118 2.884063,-3.20466 1.158278,-1.35821 2.326733,-2.71393 3.364323,-4.16643 1.283419,-1.79665 2.548196,-3.62782 3.525248,-5.60784 0.88243,-1.78825 1.56535,-3.68213 2.08322,-5.60783 0.49254,-1.831541 0.86944,-3.713445 0.96114,-5.607837 0.10616,-2.193085 0.10126,-4.452538 -0.48089,-6.569611 -0.53829,-1.957614 -1.3482,-3.954908 -2.723766,-5.448172 -1.185352,-1.286773 -2.850723,-2.102952 -4.486395,-2.723771 -1.674837,-0.635685 -3.495822,-0.96309 -5.287239,-0.961143 -2.063717,0.0023 -4.194895,0.301478 -6.088727,1.121443 -1.156746,0.500831 -2.214855,1.195719 -2.214855,1.195719 0,0 0.347754,-1.066637 0.564462,-2.160607 0.208605,-1.05306 0.583591,-2.204182 0.848245,-3.244572 0.271443,-1.067088 0.823841,-2.012135 1.456367,-2.913392 0.542821,-0.773443 1.733957,-1.748286 1.733957,-1.748286 0,0 -0.732929,-3.300618 -2.068216,-3.466608 z"
       id="path4148-6"
       sodipodi:nodetypes="sssccssscsssscssssssssscsssssssssssscscssscs" />
    <path
       style="fill:none;fill-rule:evenodd;stroke:#ff0000;stroke-width:0.32439399px;stroke-linecap:butt;stroke-linejoin:miter;stroke-opacity:1"
       d="M 137.85938 67.037109 C 136.66002 66.888019 135.7238 68.467304 134.99023 69.427734 C 133.94474 70.796544 133.32223 72.469611 132.73242 74.087891 C 132.11899 75.771011 131.77148 79.375 131.77148 79.375 L 131.13086 77.933594 C 130.48995 76.491534 130.12849 74.888532 129.20703 73.607422 C 128.19167 72.195762 127.02664 70.828291 125.58008 69.863281 C 124.20848 68.948271 122.43452 68.32209 120.87695 67.78125 C 119.78778 67.40305 117.51172 67.197266 117.51172 67.197266 C 117.51172 67.197266 117.54523 69.638208 117.93359 70.767578 C 118.34529 71.964938 118.8941 73.163882 119.52148 74.263672 C 120.1751 75.409482 120.70823 76.397472 121.70312 77.263672 C 122.07098 77.583952 123.11966 78.108759 122.95898 78.574219 C 122.87008 78.831659 122.42977 78.714005 122.1582 78.734375 C 121.03847 78.818375 119.9149 78.528129 118.79297 78.574219 C 117.55519 78.625019 115.94577 78.826881 114.86133 79.425781 C 113.10138 80.397741 112.21393 81.930452 111.26172 83.701172 C 110.04543 85.962992 109.10919 88.505716 109.01953 91.072266 C 108.90283 94.412926 109.91447 97.786514 111.26172 100.8457 C 113.11875 105.06239 116.09699 108.7397 119.11328 112.22266 C 121.06786 114.47966 122.80461 117.51943 125.68359 118.31055 C 126.42096 118.51318 127.20417 118.0832 127.92578 117.83008 C 129.27812 117.3557 130.48211 116.53381 131.77148 115.9082 C 132.67429 115.47014 133.49388 114.57651 134.49609 114.62695 C 134.80712 114.64265 135.02761 114.95095 135.29688 115.10742 C 136.14461 115.60003 137.00356 116.07041 137.85938 116.54883 C 138.81933 117.08547 139.67953 117.87647 140.74414 118.15234 C 141.72648 118.40689 142.86205 118.56519 143.78906 118.15234 C 145.10186 117.56767 145.74132 116.04075 146.67383 114.94727 C 147.83211 113.58906 148.99952 112.23375 150.03711 110.78125 C 151.32053 108.9846 152.58544 107.15189 153.5625 105.17188 C 154.12097 104.04013 154.59066 102.86367 154.99805 101.66602 A 12.329857 12.329857 0 0 1 149.24609 91.253906 A 12.329857 12.329857 0 0 1 153.45117 81.998047 C 153.43412 81.979182 153.41958 81.958161 153.40234 81.939453 C 152.21699 80.652673 150.5517 79.835654 148.91602 79.214844 C 147.24119 78.579154 145.42032 78.251966 143.62891 78.253906 C 141.56519 78.255906 139.43289 78.55503 137.53906 79.375 C 136.38231 79.87583 135.32422 80.570313 135.32422 80.570312 C 135.32422 80.570312 135.67196 79.504126 135.88867 78.410156 C 136.09727 77.357096 136.47363 76.206406 136.73828 75.166016 C 137.00972 74.098926 137.56083 73.153213 138.19336 72.251953 C 138.73618 71.478513 139.92773 70.503906 139.92773 70.503906 C 139.92773 70.503906 139.19467 67.203099 137.85938 67.037109 z "
       id="path4148-6-2" />
  </g>
</svg>
