<?xml version="1.0" encoding="UTF-8" standalone="no"?>
<!-- Created with Inkscape (http://www.inkscape.org/) -->

<svg
   xmlns:dc="http://purl.org/dc/elements/1.1/"
   xmlns:cc="http://creativecommons.org/ns#"
   xmlns:rdf="http://www.w3.org/1999/02/22-rdf-syntax-ns#"
   xmlns:svg="http://www.w3.org/2000/svg"
   xmlns="http://www.w3.org/2000/svg"
   xmlns:sodipodi="http://sodipodi.sourceforge.net/DTD/sodipodi-0.dtd"
   xmlns:inkscape="http://www.inkscape.org/namespaces/inkscape"
   id="svg4207"
   version="1.1"
   inkscape:version="0.91 r13725"
   width="2272"
   height="1704"
   viewBox="0 0 2272 1704"
   sodipodi:docname="samsung.svg">
  <sodipodi:namedview
     pagecolor="#ffffff"
     bordercolor="#666666"
     borderopacity="1"
     objecttolerance="10"
     gridtolerance="10"
     guidetolerance="10"
     inkscape:pageopacity="0"
     inkscape:pageshadow="2"
     inkscape:window-width="1360"
     inkscape:window-height="746"
     id="namedview4209"
     showgrid="false"
     inkscape:zoom="1.5187857"
     inkscape:cx="285.04521"
     inkscape:cy="769.66931"
     inkscape:window-x="1432"
     inkscape:window-y="-8"
     inkscape:window-maximized="1"
     inkscape:current-layer="svg4207" />
  <metadata
     id="metadata4213">
    <rdf:RDF>
      <cc:Work
         rdf:about="">
        <dc:format>image/svg+xml</dc:format>
        <dc:type
           rdf:resource="http://purl.org/dc/dcmitype/StillImage" />
        <dc:title></dc:title>
      </cc:Work>
    </rdf:RDF>
  </metadata>
  <defs
     id="defs4211" />
  <path
     d="M244.65742 953.81875L244.65742 941.28606L249.33067 941.28606L254.00392 941.28606L255.35798 945.91385L258.32391 956.033L259.93579 961.52436L259.95779 960.68294L259.81606 950.63022L259.68854 941.35249L262.81982 941.28609L265.91485 941.28609L265.89245 953.79663L265.87005 966.30718L261.3911 966.33018L256.91216 966.35308L253.82636 956.23313L250.65454 945.77786L250.52809 945.48297L250.67359 957.40588L250.7951 966.28505L247.70792 966.35145L244.65747 966.35145L244.65747 953.81876L244.65742 953.81875M161.54824 966.55072L162.07007 941.39677L167.24426 941.28606L172.38149 941.35246L175.58143 960.88032L175.73708 960.15149L178.68508 941.88388L178.78954 941.28603L183.91243 941.28603L189.04247 941.30813L189.57175 966.55181L186.4169 966.59611L183.32254 966.57281L183.31094 966.21853L183.23174 954.68226L183.10571 943.50027L181.82326 950.07661L178.93647 965.5764L178.74098 966.6171L175.56852 966.6171L172.35056 966.4621L171.67449 962.89715L170.43465 956.21009L168.14575 943.91688L168.02512 943.45169L167.8668 959.74539L167.8085 964.82355L167.7504 966.6171L164.66973 966.6171L161.5483 966.5507L161.54824 966.55072M135.89318 966.44672L137.27086 958.85183L139.57369 946.4398L140.49883 941.36915L146.11676 941.28605L151.73469 941.28605L151.82869 941.75104L152.36081 944.60743L155.84637 963.49714L156.36554 966.57496L153.01397 966.61716L149.66598 966.50644L148.69071 960.01867L146.22112 943.36747L144.39679 954.92589L142.6615 966.37359L142.6104 966.61716L139.25177 966.61716L135.89314 966.44673L135.89318 966.44672M279.35284 966.92377L277.301483125 966.458772344L275.5946125 965.67805375L274.257923125 964.597333281L273.31711 963.23233L272.899760313 962.186569219L272.6722375 960.76046375L272.55931 953.99589L272.61709 948.09459875L272.87971 945.80314L273.674277031 943.911926875L275.00988375 942.439135L276.871501094 941.396588125L279.2441 940.79611L282.41440625 940.68638625L285.35183 941.08046L288.03319 942.36439L289.01754125 943.300355L289.734 944.40927L290.2512025 945.8551875L290.42282 947.81811L290.47052 949.34595L287.32879 949.34595L284.18704 949.34595L284.13204 948.12854L283.82961 946.42737L283.24146875 945.69354L282.45559 945.26598L281.32733 945.19718L280.12793 945.45374L279.45207125 946.00575625L279.00665 946.75755L278.93805 960.7462L279.33359875 961.59710125L280.08779 962.22781L281.28843 962.52603L282.5750975 962.40621125L283.49734 961.80463L284.0509 960.9827L284.15976 958.34774L284.15976 956.07733L282.87549 956.07733L281.59122 956.07733L281.59122 954.26164L281.59122 952.44595L286.06402 952.44595L290.53681 952.44595L290.53674 956.0109L290.40145875 960.91709125L289.78095 963.20723L288.835730156 964.593356406L287.49085125 965.67848625L285.752869219 966.458652969L283.62834 966.92989L279.35285 966.92389L279.35284 966.92377M226.3351 967.18585L223.988484844 966.595934375L222.17127125 965.58093L220.869947031 964.130153125L220.071 962.23292L219.88128 951.44949L219.85278 941.28606L223.04232 941.28606L226.23186 941.28606L226.25546 951.22807L226.27906 961.17008L226.46944 961.52552L227.2858775 962.43228125L228.49332 962.78816L229.978475 962.5406375L230.91745 961.56377L231.19471 961.00893L231.19471 951.14749L231.19471 941.28606L234.38574 941.28606L237.57678 941.28606L237.54828 951.44949L237.45815875 961.18132625L237.276408281 962.599352344L236.91041 963.4729L236.201630937 964.634083594L235.246445 965.59058375L232.61186 966.87765L229.57490875 967.2929L226.33509 967.18585L226.3351 967.18585M202.55977 967.28105L199.69140875 966.4919175L197.67054 965.07589L196.811747813 964.024502188L196.2531975 962.85159L195.85698 959.59799L195.85498 958.29157L199.17636 958.29157L202.49775 958.29157L202.49775 959.5272L202.59445 961.21384L202.99883875 962.0635375L203.782 962.6758L205.11055 962.94151L206.42578 962.68711L207.37428875 961.7204275L207.61449 960.15502L207.339644844 959.143239219L206.56586875 958.17760875L202.89629 955.80887L199.485879375 953.760556562L197.3854825 951.94395L196.324731875 950.040913437L196.03326 947.73331L196.545965781 944.755265938L197.185107246 943.572384648L198.08039375 942.59277L200.642259844 941.240859062L204.23728 940.69457L207.236295313 940.815960625L209.6495025 941.408175L211.461903438 942.465359375L212.6585 943.98166L213.12207875 945.2745375L213.27947 947.15387L213.32527 948.72599L210.21432 948.72599L207.10338 948.72599L207.10338 947.76579L206.8324425 946.01226L205.87287 945.10989L204.84294 944.881135L203.79654 944.99834L202.790635 945.80118375L202.41002 947.15671L202.577979531 948.131987031L203.21731125 949.00748875L206.70481 951.2089L210.97803 953.78985L212.348315156 955.021553594L213.26002875 956.33735375L213.766875469 957.844109531L213.92256 959.64868L213.49057125 962.8552025L212.943473906 964.086352188L212.16732 965.09583L210.384335 966.36723625L207.98908 967.16408L205.2836575 967.38127625L202.5595 967.28105L202.55977 967.28105M121.27909 967.53278L118.341929375 966.979720312L116.1226575 965.94757L114.575749375 964.405209687L113.65568 962.32152L113.42041 959.9512L113.37141 958.28945L116.77167 958.31265L120.17192 958.33585L120.18982 959.83854L120.45753 961.83137L121.4971325 962.80757125L123.09289 963.04017L124.54745375 962.44784125L125.26455 961.08233L125.2133075 959.61861375L124.35499 958.33972L123.01875125 957.28612125L120.34905 955.72703L116.53491375 953.35151875L114.55074 951.32634L113.77205 949.49824625L113.59852 947.28124L114.095504688 944.761655625L115.2886525 942.850325L117.213654063 941.510029375L119.9062 940.70355L122.55948 940.53776L125.22041 940.70155L127.69762875 941.42735L129.4816 942.65163L130.67576375 944.4733525L131.08416 947.19809L131.13756 948.63736L127.99041 948.63736L124.84327 948.63736L124.80487 947.55237L124.621745 946.165425L124.05048 945.34881L123.3353475 944.91421875L122.38617 944.78952L121.45957375 944.905835L120.77909 945.29482L120.23155875 946.02563875L120.08398 947.08738L120.32201 948.29048L121.55632125 949.5147425L124.57984 951.28223L127.10409 952.68301L129.98081625 954.92553L130.875912656 956.108930312L131.43453 957.36152L131.61208375 959.744065L131.43515 962.32146L130.592990938 964.348618437L129.108065 965.88763L126.981559063 966.937641562L124.21466 967.4978L121.27908 967.5327L121.27909 967.53278"
     style="fill:#000000"
     id="path4757" />
</svg>
