<?xml version="1.0" encoding="UTF-8" standalone="no"?>
<!-- Created with Inkscape (http://www.inkscape.org/) -->

<svg
   xmlns:dc="http://purl.org/dc/elements/1.1/"
   xmlns:cc="http://creativecommons.org/ns#"
   xmlns:rdf="http://www.w3.org/1999/02/22-rdf-syntax-ns#"
   xmlns:svg="http://www.w3.org/2000/svg"
   xmlns="http://www.w3.org/2000/svg"
   xmlns:sodipodi="http://sodipodi.sourceforge.net/DTD/sodipodi-0.dtd"
   xmlns:inkscape="http://www.inkscape.org/namespaces/inkscape"
   width="900mm"
   height="599.99994mm"
   id="svg2"
   version="1.1"
   inkscape:version="0.91 r13725"
   sodipodi:docname="tmp.svg"
   viewBox="0 0 900 599.99994">
  <sodipodi:namedview
     id="base"
     pagecolor="#ffffff"
     bordercolor="#666666"
     borderopacity="1.0"
     inkscape:pageopacity="1"
     inkscape:pageshadow="2"
     inkscape:zoom="1.28"
     inkscape:cx="1758.4289"
     inkscape:cy="1322.5242"
     inkscape:document-units="mm"
     inkscape:current-layer="layer1"
     showgrid="false"
     units="mm"
     inkscape:window-width="1360"
     inkscape:window-height="746"
     inkscape:window-x="1432"
     inkscape:window-y="-8"
     inkscape:window-maximized="1"
     height="300mm" />
  <defs
     id="defs4" />
  <metadata
     id="metadata7">
    <rdf:RDF>
      <cc:Work
         rdf:about="">
        <dc:format>image/svg+xml</dc:format>
        <dc:type
           rdf:resource="http://purl.org/dc/dcmitype/StillImage" />
        <dc:title></dc:title>
      </cc:Work>
    </rdf:RDF>
  </metadata>
  <g
     inkscape:label="Layer 1"
     inkscape:groupmode="layer"
     id="layer1"
     transform="translate(0,1073.6223)">
    <g
       id="g5874"
       transform="translate(459.60945,-835.32169)"
       inkscape:label="WireframeSphere"
       style="stroke:#ff0000">
      <g
         id="g5876"
         inkscape:label="Lines of Longitude"
         style="stroke:#ff0000" />
      <g
         id="g5902"
         inkscape:label="Lines of Latitude"
         style="stroke:#ff0000" />
      <path
         id="path5942"
         style="fill:none;stroke:#ff0000;stroke-width:0.28222221"
         d="M 28.222221,0 A 28.222221,28.222221 0 0 1 0,28.222221 28.222221,28.222221 0 0 1 -28.222221,0 28.222221,28.222221 0 0 1 0,-28.222221 28.222221,28.222221 0 0 1 28.222221,0 Z M 4.4149284,-22.833666 A 4.4149284,2.5332987 0 0 1 0,-20.300367 4.4149284,2.5332987 0 0 1 -4.4149284,-22.833666 4.4149284,2.5332987 0 0 1 0,-25.366965 a 4.4149284,2.5332987 0 0 1 4.4149284,2.533299 z m 4.3062182,0.846865 A 8.7211466,5.0032439 0 0 1 0,-16.983557 8.7211466,5.0032439 0 0 1 -8.7211466,-21.986801 8.7211466,5.0032439 0 0 1 0,-26.990045 a 8.7211466,5.0032439 0 0 1 8.7211466,5.003244 z m 4.0914744,1.388252 A 12.812621,7.3500175 0 0 1 0,-13.248531 12.812621,7.3500175 0 0 1 -12.812621,-20.598549 12.812621,7.3500175 0 0 1 0,-27.948566 a 12.812621,7.3500175 0 0 1 12.812621,7.350017 z m 3.775985,1.895458 A 16.588606,9.5158339 0 0 1 0,-9.1872568 16.588606,9.5158339 0 0 1 -16.588606,-18.703091 16.588606,9.5158339 0 0 1 0,-28.218925 a 16.588606,9.5158339 0 0 1 16.588606,9.515834 z m 3.367519,2.35599 A 19.956125,11.447363 0 0 1 0,-4.8997383 19.956125,11.447363 0 0 1 -19.956125,-16.347101 19.956125,11.447363 0 0 1 0,-27.794464 19.956125,11.447363 0 0 1 19.956125,-16.347101 Z m 2.876133,2.75851 A 22.832258,13.097045 0 0 1 0,-0.49154568 22.832258,13.097045 0 0 1 -22.832258,-13.588591 22.832258,13.097045 0 0 1 0,-26.685636 22.832258,13.097045 0 0 1 22.832258,-13.588591 Z m 2.313927,3.093107 A 25.146185,14.424258 0 0 1 0,3.9287739 25.146185,14.424258 0 0 1 -25.146185,-10.495484 25.146185,14.424258 0 0 1 0,-24.919743 25.146185,14.424258 0 0 1 25.146185,-10.495484 Z m 1.694744,3.3515393 A 26.840929,15.396324 0 0 1 0,8.2523794 26.840929,15.396324 0 0 1 -26.840929,-7.1439447 26.840929,15.396324 0 0 1 0,-22.540269 26.840929,15.396324 0 0 1 26.840929,-7.1439447 Z m 1.033831,3.5274472 A 27.87476,15.989305 0 0 1 0,12.372807 27.87476,15.989305 0 0 1 -27.87476,-3.6164975 27.87476,15.989305 0 0 1 0,-19.605802 27.87476,15.989305 0 0 1 27.87476,-3.6164975 Z M 28.222221,0 A 28.222221,16.188602 0 0 1 0,16.188602 28.222221,16.188602 0 0 1 -28.222221,0 28.222221,16.188602 0 0 1 0,-16.188602 28.222221,16.188602 0 0 1 28.222221,0 Z M 27.87476,3.6164975 A 27.87476,15.989305 0 0 1 0,19.605802 27.87476,15.989305 0 0 1 -27.87476,3.6164975 27.87476,15.989305 0 0 1 0,-12.372807 27.87476,15.989305 0 0 1 27.87476,3.6164975 Z M 26.840929,7.1439447 A 26.840929,15.396324 0 0 1 0,22.540269 26.840929,15.396324 0 0 1 -26.840929,7.1439447 26.840929,15.396324 0 0 1 0,-8.2523794 26.840929,15.396324 0 0 1 26.840929,7.1439447 Z M 25.146185,10.495484 A 25.146185,14.424258 0 0 1 0,24.919743 25.146185,14.424258 0 0 1 -25.146185,10.495484 25.146185,14.424258 0 0 1 0,-3.9287739 25.146185,14.424258 0 0 1 25.146185,10.495484 Z m -2.313927,3.093107 A 22.832258,13.097045 0 0 1 0,26.685636 22.832258,13.097045 0 0 1 -22.832258,13.588591 22.832258,13.097045 0 0 1 0,0.49154568 22.832258,13.097045 0 0 1 22.832258,13.588591 Z m -2.876133,2.75851 A 19.956125,11.447363 0 0 1 0,27.794464 19.956125,11.447363 0 0 1 -19.956125,16.347101 19.956125,11.447363 0 0 1 0,4.8997383 19.956125,11.447363 0 0 1 19.956125,16.347101 Z m -3.367519,2.35599 A 16.588606,9.5158339 0 0 1 0,28.218925 16.588606,9.5158339 0 0 1 -16.588606,18.703091 16.588606,9.5158339 0 0 1 0,9.1872568 16.588606,9.5158339 0 0 1 16.588606,18.703091 Z m -3.775985,1.895458 A 12.812621,7.3500175 0 0 1 0,27.948566 12.812621,7.3500175 0 0 1 -12.812621,20.598549 12.812621,7.3500175 0 0 1 0,13.248531 12.812621,7.3500175 0 0 1 12.812621,20.598549 Z M 8.7211466,21.986801 A 8.7211466,5.0032439 0 0 1 0,26.990045 8.7211466,5.0032439 0 0 1 -8.7211466,21.986801 8.7211466,5.0032439 0 0 1 0,16.983557 8.7211466,5.0032439 0 0 1 8.7211466,21.986801 Z M 4.4149284,22.833666 A 4.4149284,2.5332987 0 0 1 0,25.366965 4.4149284,2.5332987 0 0 1 -4.4149284,22.833666 4.4149284,2.5332987 0 0 1 0,20.300367 4.4149284,2.5332987 0 0 1 4.4149284,22.833666 Z M 4.3850083,-0.48889319 A 28.222221,4.412178 83.638254 0 1 3.1271748,28.048432 28.222221,4.412178 83.638254 0 1 -4.3850083,0.48889319 28.222221,4.412178 83.638254 0 1 -3.1271748,-28.048432 28.222221,4.412178 83.638254 0 1 4.3850083,-0.48889319 Z M 9.7606463,-2.7305595 A 28.222221,10.135392 74.370935 0 1 7.6033028,27.178733 28.222221,10.135392 74.370935 0 1 -9.7606463,2.7305595 28.222221,10.135392 74.370935 0 1 -7.6033028,-27.178733 28.222221,10.135392 74.370935 0 1 9.7606463,-2.7305595 Z M 13.57422,-6.7681383 A 28.222221,15.167964 63.499046 0 1 12.593114,25.256826 28.222221,15.167964 63.499046 0 1 -13.57422,6.7681383 28.222221,15.167964 63.499046 0 1 -12.593114,-25.256826 28.222221,15.167964 63.499046 0 1 13.57422,-6.7681383 Z m 1.027209,-5.6483627 a 28.222221,19.166931 49.623423 0 1 3.681166,33.916279 28.222221,19.166931 49.623423 0 1 -32.884024,-9.083277 28.222221,19.166931 49.623423 0 1 -3.681166,-33.916279 28.222221,19.166931 49.623423 0 1 32.884024,9.083277 z m -3.350301,-6.32548 A 28.222221,21.859774 30.977105 0 1 24.196971,14.52585 28.222221,21.859774 30.977105 0 1 -11.251128,18.741981 28.222221,21.859774 30.977105 0 1 -24.196971,-14.52585 28.222221,21.859774 30.977105 0 1 11.251128,-18.741981 Z M 2.7910273,-22.893472 A 28.222221,23.062977 6.9508376 0 1 28.014798,3.4153869 28.222221,23.062977 6.9508376 0 1 -2.7910273,22.893472 28.222221,23.062977 6.9508376 0 1 -28.014798,-3.4153869 28.222221,23.062977 6.9508376 0 1 2.7910273,-22.893472 Z M 7.2840794,21.493825 A 22.694544,28.222221 71.278906 0 1 -26.729045,9.058252 22.694544,28.222221 71.278906 0 1 -7.2840794,-21.493825 22.694544,28.222221 71.278906 0 1 26.729045,-9.058252 22.694544,28.222221 71.278906 0 1 7.2840794,21.493825 Z M 13.46095,15.830158 a 20.779583,28.222221 49.624295 0 1 -34.961007,2.45211 20.779583,28.222221 49.624295 0 1 8.039107,-34.112426 20.779583,28.222221 49.624295 0 1 34.961007,-2.45211 20.779583,28.222221 49.624295 0 1 -8.039107,34.112426 z M 14.563938,9.6096392 A 17.448595,28.222221 33.417795 0 1 -15.543106,23.556435 17.448595,28.222221 33.417795 0 1 -14.563938,-9.6096392 17.448595,28.222221 33.417795 0 1 15.543106,-23.556435 17.448595,28.222221 33.417795 0 1 14.563938,9.6096392 Z M 12.057656,4.6648923 A 12.928584,28.222221 21.150567 0 1 -10.183143,26.321044 12.928584,28.222221 21.150567 0 1 -12.057656,-4.6648923 12.928584,28.222221 21.150567 0 1 10.183143,-26.321044 12.928584,28.222221 21.150567 0 1 12.057656,4.6648923 Z M 7.3849304,1.4585105 A 7.5275793,28.222221 11.172037 0 1 -5.4682128,27.687405 7.5275793,28.222221 11.172037 0 1 -7.3849304,-1.4585105 7.5275793,28.222221 11.172037 0 1 5.4682128,-27.687405 7.5275793,28.222221 11.172037 0 1 7.3849304,1.4585105 Z M 1.612354,0.0646689 A 1.6136504,28.222221 2.2968093 0 1 -1.131038,28.199548 1.6136504,28.222221 2.2968093 0 1 -1.612354,-0.0646689 1.6136504,28.222221 2.2968093 0 1 1.131038,-28.199548 1.6136504,28.222221 2.2968093 0 1 1.612354,0.0646689 Z" />
    </g>
  </g>
</svg>
