  0
SECTION
  2
HEADER
  9
$ACADVER
  1
AC1014
  9
$HANDSEED
  5
FFFF
  9
$MEASUREMENT
 70
     1
  0
ENDSEC
  0
SECTION
  2
TABLES
  0
TABLE
  2
VPORT
  5
8
330
0
100
AcDbSymbolTable
 70
     4
  0
VPORT
  5
2E
330
8
100
AcDbSymbolTableRecord
100
AcDbViewportTableRecord
  2
*ACTIVE
 70
     0
 10
0.0
 20
0.0
 11
1.0
 21
1.0
 12
210.0
 22
148.5
 13
0.0
 23
0.0
 14
10.0
 24
10.0
 15
10.0
 25
10.0
 16
0.0
 26
0.0
 36
1.0
 17
0.0
 27
0.0
 37
0.0
 40
341.0
 41
1.24
 42
50.0
 43
0.0
 44
0.0
 50
0.0
 51
0.0
 71
     0
 72
   100
 73
     1
 74
     3
 75
     0
 76
     0
 77
     0
 78
     0
  0
ENDTAB
  0
TABLE
  2
LTYPE
  5
5
330
0
100
AcDbSymbolTable
 70
     1
  0
LTYPE
  5
14
330
5
100
AcDbSymbolTableRecord
100
AcDbLinetypeTableRecord
  2
BYBLOCK
 70
     0
  3

 72
    65
 73
     0
 40
0.0
  0
LTYPE
  5
15
330
5
100
AcDbSymbolTableRecord
100
AcDbLinetypeTableRecord
  2
BYLAYER
 70
     0
  3

 72
    65
 73
     0
 40
0.0
  0
LTYPE
  5
16
330
5
100
AcDbSymbolTableRecord
100
AcDbLinetypeTableRecord
  2
CONTINUOUS
 70
     0
  3
Solid line
 72
    65
 73
     0
 40
0.0
  0
ENDTAB
  0
TABLE
  2
LAYER
  5
2
100
AcDbSymbolTable
 70
2
  0
LAYER
  5
50
100
AcDbSymbolTableRecord
100
AcDbLayerTableRecord
  2
0
 70
0
  6
CONTINUOUS
  0
LAYER
  5
51
100
AcDbSymbolTableRecord
100
AcDbLayerTableRecord
  2
pi_zero_case_v2
 70
0
  6
CONTINUOUS
  0
ENDTAB
  0
TABLE
  2
STYLE
  5
3
330
0
100
AcDbSymbolTable
 70
     1
  0
STYLE
  5
11
330
3
100
AcDbSymbolTableRecord
100
AcDbTextStyleTableRecord
  2
STANDARD
 70
     0
 40
0.0
 41
1.0
 50
0.0
 71
     0
 42
2.5
  3
txt
  4

  0
ENDTAB
  0
TABLE
  2
VIEW
  5
6
330
0
100
AcDbSymbolTable
 70
     0
  0
ENDTAB
  0
TABLE
  2
UCS
  5
7
330
0
100
AcDbSymbolTable
 70
     0
  0
ENDTAB
  0
TABLE
  2
APPID
  5
9
330
0
100
AcDbSymbolTable
 70
     2
  0
APPID
  5
12
330
9
100
AcDbSymbolTableRecord
100
AcDbRegAppTableRecord
  2
ACAD
 70
     0
  0
ENDTAB
  0
TABLE
  2
DIMSTYLE
  5
A
330
0
100
AcDbSymbolTable
 70
     1
  0
DIMSTYLE
105
27
330
A
100
AcDbSymbolTableRecord
100
AcDbDimStyleTableRecord
  2
ISO-25
 70
     0
  3

  4

  5

  6

  7

 40
1.0
 41
2.5
 42
0.625
 43
3.75
 44
1.25
 45
0.0
 46
0.0
 47
0.0
 48
0.0
140
2.5
141
2.5
142
0.0
143
0.03937007874016
144
1.0
145
0.0
146
1.0
147
0.625
 71
     0
 72
     0
 73
     0
 74
     0
 75
     0
 76
     0
 77
     1
 78
     8
170
     0
171
     3
172
     1
173
     0
174
     0
175
     0
176
     0
177
     0
178
     0
270
     2
271
     2
272
     2
273
     2
274
     3
340
11
275
     0
280
     0
281
     0
282
     0
283
     0
284
     8
285
     0
286
     0
287
     3
288
     0
  0
ENDTAB
  0
TABLE
  2
BLOCK_RECORD
  5
1
330
0
100
AcDbSymbolTable
 70
     1
  0
BLOCK_RECORD
  5
1F
330
1
100
AcDbSymbolTableRecord
100
AcDbBlockTableRecord
  2
*MODEL_SPACE
  0
BLOCK_RECORD
  5
1B
330
1
100
AcDbSymbolTableRecord
100
AcDbBlockTableRecord
  2
*PAPER_SPACE
  0
ENDTAB
  0
ENDSEC
  0
SECTION
  2
BLOCKS
  0
BLOCK
  5
20
330
1F
100
AcDbEntity
  8
0
100
AcDbBlockBegin
  2
*MODEL_SPACE
 70
     0
 10
0.0
 20
0.0
 30
0.0
  3
*MODEL_SPACE
  1

  0
ENDBLK
  5
21
330
1F
100
AcDbEntity
  8
0
100
AcDbBlockEnd
  0
BLOCK
  5
1C
330
1B
100
AcDbEntity
 67
     1
  8
0
100
AcDbBlockBegin
  2
*PAPER_SPACE
  1

  0
ENDBLK
  5
1D
330
1B
100
AcDbEntity
 67
     1
  8
0
100
AcDbBlockEnd
  0
ENDSEC
  0
SECTION
  2
ENTITIES
  0
SPLINE
  5
100
100
AcDbEntity
  8
pi_zero_case_v2
 62
7
100
AcDbSpline
 70
8
 71
3
 72
8
 73
4
 74
0
 40
0
 40
0
 40
0
 40
0
 40
1
 40
1
 40
1
 40
1
 10
24.428208
 20
230.564507
 30
0.0
 10
22.806135
 20
230.564507
 30
0.0
 10
21.501254
 20
229.259824
 30
0.0
 10
21.501254
 20
227.638105
 30
0.0
  0
SPLINE
  5
101
100
AcDbEntity
  8
pi_zero_case_v2
 62
7
100
AcDbSpline
 70
8
 71
3
 72
8
 73
4
 74
0
 40
0
 40
0
 40
0
 40
0
 40
1
 40
1
 40
1
 40
1
 10
21.501254
 20
195.900232
 30
0.0
 10
21.501254
 20
194.278160
 30
0.0
 10
22.806135
 20
192.973277
 30
0.0
 10
24.428208
 20
192.973277
 30
0.0
  0
LWPOLYLINE
  5
102
100
AcDbEntity
  8
pi_zero_case_v2
 62
7
100
AcDbPolyline
 90
2
 70
0
 10
21.501254
 20
227.638105
 30
0.0
 10
21.501254
 20
195.900232
 30
0.0
  0
SPLINE
  5
103
100
AcDbEntity
  8
pi_zero_case_v2
 62
7
100
AcDbSpline
 70
8
 71
3
 72
8
 73
4
 74
0
 40
0
 40
0
 40
0
 40
0
 40
1
 40
1
 40
1
 40
1
 10
28.106467
 20
196.765638
 30
0.0
 10
26.447353
 20
196.765638
 30
0.0
 10
25.112266
 20
198.102381
 30
0.0
 10
25.112266
 20
199.761495
 30
0.0
  0
LWPOLYLINE
  5
104
100
AcDbEntity
  8
pi_zero_case_v2
 62
7
100
AcDbPolyline
 90
6
 70
0
 10
24.428208
 20
192.973277
 30
0.0
 10
30.407791
 20
192.973277
 30
0.0
 10
30.407791
 20
196.760126
 30
0.0
 10
30.427083
 20
196.760126
 30
0.0
 10
30.427083
 20
196.765638
 30
0.0
 10
28.106467
 20
196.765638
 30
0.0
  0
SPLINE
  5
105
100
AcDbEntity
  8
pi_zero_case_v2
 62
7
100
AcDbSpline
 70
8
 71
3
 72
8
 73
4
 74
0
 40
0
 40
0
 40
0
 40
0
 40
1
 40
1
 40
1
 40
1
 10
25.112266
 20
223.670458
 30
0.0
 10
25.112266
 20
225.329925
 30
0.0
 10
26.447353
 20
226.666312
 30
0.0
 10
28.106467
 20
226.666312
 30
0.0
  0
LWPOLYLINE
  5
106
100
AcDbEntity
  8
pi_zero_case_v2
 62
7
100
AcDbPolyline
 90
6
 70
0
 10
25.112266
 20
199.761495
 30
0.0
 10
25.112266
 20
202.440402
 30
0.0
 10
22.659357
 20
202.440402
 30
0.0
 10
22.659357
 20
220.877449
 30
0.0
 10
25.112266
 20
220.877449
 30
0.0
 10
25.112266
 20
223.670458
 30
0.0
  0
SPLINE
  5
107
100
AcDbEntity
  8
pi_zero_case_v2
 62
7
100
AcDbSpline
 70
8
 71
3
 72
8
 73
4
 74
0
 40
0
 40
0
 40
0
 40
0
 40
1
 40
1
 40
1
 40
1
 10
87.015947
 20
226.666312
 30
0.0
 10
88.675060
 20
226.666312
 30
0.0
 10
90.011800
 20
225.329925
 30
0.0
 10
90.011800
 20
223.670458
 30
0.0
  0
LWPOLYLINE
  5
108
100
AcDbEntity
  8
pi_zero_case_v2
 62
7
100
AcDbPolyline
 90
2
 70
0
 10
28.106467
 20
226.666312
 30
0.0
 10
87.015947
 20
226.666312
 30
0.0
  0
SPLINE
  5
109
100
AcDbEntity
  8
pi_zero_case_v2
 62
7
100
AcDbSpline
 70
8
 71
3
 72
8
 73
4
 74
0
 40
0
 40
0
 40
0
 40
0
 40
1
 40
1
 40
1
 40
1
 10
90.011800
 20
199.761495
 30
0.0
 10
90.011800
 20
198.102381
 30
0.0
 10
88.675060
 20
196.765638
 30
0.0
 10
87.015947
 20
196.765638
 30
0.0
  0
LWPOLYLINE
  5
10a
100
AcDbEntity
  8
pi_zero_case_v2
 62
7
100
AcDbPolyline
 90
2
 70
0
 10
90.011800
 20
223.670458
 30
0.0
 10
90.011800
 20
199.761495
 30
0.0
  0
SPLINE
  5
10b
100
AcDbEntity
  8
pi_zero_case_v2
 62
7
100
AcDbSpline
 70
8
 71
3
 72
8
 73
4
 74
0
 40
0
 40
0
 40
0
 40
0
 40
1
 40
1
 40
1
 40
1
 10
90.744918
 20
192.973277
 30
0.0
 10
92.366990
 20
192.973277
 30
0.0
 10
93.671870
 20
194.278160
 30
0.0
 10
93.671870
 20
195.900232
 30
0.0
  0
LWPOLYLINE
  5
10c
100
AcDbEntity
  8
pi_zero_case_v2
 62
7
100
AcDbPolyline
 90
6
 70
0
 10
87.015947
 20
196.765638
 30
0.0
 10
85.010075
 20
196.765638
 30
0.0
 10
85.010075
 20
196.760126
 30
0.0
 10
85.028814
 20
196.760126
 30
0.0
 10
85.028814
 20
192.973277
 30
0.0
 10
90.744918
 20
192.973277
 30
0.0
  0
SPLINE
  5
10d
100
AcDbEntity
  8
pi_zero_case_v2
 62
7
100
AcDbSpline
 70
8
 71
3
 72
8
 73
4
 74
0
 40
0
 40
0
 40
0
 40
0
 40
1
 40
1
 40
1
 40
1
 10
93.671870
 20
227.638105
 30
0.0
 10
93.671870
 20
229.259824
 30
0.0
 10
92.366990
 20
230.564507
 30
0.0
 10
90.744918
 20
230.564507
 30
0.0
  0
LWPOLYLINE
  5
10e
100
AcDbEntity
  8
pi_zero_case_v2
 62
7
100
AcDbPolyline
 90
2
 70
0
 10
93.671870
 20
195.900232
 30
0.0
 10
93.671870
 20
227.638105
 30
0.0
  0
SPLINE
  5
10f
100
AcDbEntity
  8
pi_zero_case_v2
 62
7
100
AcDbSpline
 70
8
 71
3
 72
8
 73
4
 74
0
 40
0
 40
0
 40
0
 40
0
 40
1
 40
1
 40
1
 40
1
 10
24.428208
 20
142.128079
 30
0.0
 10
22.806135
 20
142.128079
 30
0.0
 10
21.501254
 20
140.822646
 30
0.0
 10
21.501254
 20
139.200574
 30
0.0
  0
LWPOLYLINE
  5
110
100
AcDbEntity
  8
pi_zero_case_v2
 62
7
100
AcDbPolyline
 90
3
 70
0
 10
90.744918
 20
230.564507
 30
0.0
 10
24.428208
 20
230.564507
 30
0.0
 10
24.428208
 20
230.564507
 30
0.0
  0
SPLINE
  5
111
100
AcDbEntity
  8
pi_zero_case_v2
 62
7
100
AcDbSpline
 70
8
 71
3
 72
8
 73
4
 74
0
 40
0
 40
0
 40
0
 40
0
 40
1
 40
1
 40
1
 40
1
 10
21.501254
 20
107.463251
 30
0.0
 10
21.501254
 20
105.841532
 30
0.0
 10
22.806135
 20
104.536299
 30
0.0
 10
24.428208
 20
104.536299
 30
0.0
  0
LWPOLYLINE
  5
112
100
AcDbEntity
  8
pi_zero_case_v2
 62
7
100
AcDbPolyline
 90
2
 70
0
 10
21.501254
 20
139.200574
 30
0.0
 10
21.501254
 20
107.463251
 30
0.0
  0
SPLINE
  5
113
100
AcDbEntity
  8
pi_zero_case_v2
 62
7
100
AcDbSpline
 70
8
 71
3
 72
8
 73
4
 74
0
 40
0
 40
0
 40
0
 40
0
 40
1
 40
1
 40
1
 40
1
 10
90.744918
 20
104.536299
 30
0.0
 10
92.366990
 20
104.536299
 30
0.0
 10
93.671870
 20
105.841532
 30
0.0
 10
93.671870
 20
107.463251
 30
0.0
  0
LWPOLYLINE
  5
114
100
AcDbEntity
  8
pi_zero_case_v2
 62
7
100
AcDbPolyline
 90
6
 70
0
 10
24.428208
 20
104.536299
 30
0.0
 10
30.407791
 20
104.536299
 30
0.0
 10
30.407791
 20
108.323149
 30
0.0
 10
85.028814
 20
108.323149
 30
0.0
 10
85.028814
 20
104.536299
 30
0.0
 10
90.744918
 20
104.536299
 30
0.0
  0
SPLINE
  5
115
100
AcDbEntity
  8
pi_zero_case_v2
 62
7
100
AcDbSpline
 70
8
 71
3
 72
8
 73
4
 74
0
 40
0
 40
0
 40
0
 40
0
 40
1
 40
1
 40
1
 40
1
 10
93.671870
 20
139.200574
 30
0.0
 10
93.671870
 20
140.822646
 30
0.0
 10
92.366990
 20
142.128079
 30
0.0
 10
90.744918
 20
142.128079
 30
0.0
  0
LWPOLYLINE
  5
116
100
AcDbEntity
  8
pi_zero_case_v2
 62
7
100
AcDbPolyline
 90
2
 70
0
 10
93.671870
 20
107.463251
 30
0.0
 10
93.671870
 20
139.200574
 30
0.0
  0
SPLINE
  5
117
100
AcDbEntity
  8
pi_zero_case_v2
 62
7
100
AcDbSpline
 70
8
 71
3
 72
8
 73
4
 74
0
 40
0
 40
0
 40
0
 40
0
 40
1
 40
1
 40
1
 40
1
 10
28.061268
 20
136.356855
 30
0.0
 10
28.739307
 20
136.356855
 30
0.0
 10
29.287721
 20
135.806476
 30
0.0
 10
29.287721
 20
135.129849
 30
0.0
  0
SPLINE
  5
118
100
AcDbEntity
  8
pi_zero_case_v2
 62
7
100
AcDbSpline
 70
8
 71
3
 72
8
 73
4
 74
0
 40
0
 40
0
 40
0
 40
0
 40
1
 40
1
 40
1
 40
1
 10
29.287721
 20
135.129849
 30
0.0
 10
29.287721
 20
134.451810
 30
0.0
 10
28.739307
 20
133.902292
 30
0.0
 10
28.061268
 20
133.902292
 30
0.0
  0
SPLINE
  5
119
100
AcDbEntity
  8
pi_zero_case_v2
 62
7
100
AcDbSpline
 70
8
 71
3
 72
8
 73
4
 74
0
 40
0
 40
0
 40
0
 40
0
 40
1
 40
1
 40
1
 40
1
 10
28.061268
 20
133.902292
 30
0.0
 10
27.384639
 20
133.902292
 30
0.0
 10
26.834262
 20
134.451810
 30
0.0
 10
26.834262
 20
135.129849
 30
0.0
  0
SPLINE
  5
11a
100
AcDbEntity
  8
pi_zero_case_v2
 62
7
100
AcDbSpline
 70
8
 71
3
 72
8
 73
4
 74
0
 40
0
 40
0
 40
0
 40
0
 40
1
 40
1
 40
1
 40
1
 10
26.834262
 20
135.129849
 30
0.0
 10
26.834262
 20
135.806476
 30
0.0
 10
27.384639
 20
136.356855
 30
0.0
 10
28.061268
 20
136.356855
 30
0.0
  0
LWPOLYLINE
  5
11b
100
AcDbEntity
  8
pi_zero_case_v2
 62
7
100
AcDbPolyline
 90
15
 70
0
 10
90.744918
 20
142.128079
 30
0.0
 10
84.427991
 20
142.128079
 30
0.0
 10
84.506813
 20
133.418326
 30
0.0
 10
84.504059
 20
133.378640
 30
0.0
 10
84.504059
 20
130.054810
 30
0.0
 10
81.475131
 20
130.095049
 30
0.0
 10
81.475131
 20
132.289437
 30
0.0
 10
30.403382
 20
132.289437
 30
0.0
 10
30.410548
 20
133.419980
 30
0.0
 10
30.412752
 20
133.413365
 30
0.0
 10
30.446376
 20
136.808851
 30
0.0
 10
30.436453
 20
136.808851
 30
0.0
 10
30.436453
 20
142.128079
 30
0.0
 10
24.428208
 20
142.128079
 30
0.0
 10
24.428208
 20
142.128079
 30
0.0
  0
SPLINE
  5
11c
100
AcDbEntity
  8
pi_zero_case_v2
 62
7
100
AcDbSpline
 70
8
 71
3
 72
8
 73
4
 74
0
 40
0
 40
0
 40
0
 40
0
 40
1
 40
1
 40
1
 40
1
 10
87.047917
 20
136.343074
 30
0.0
 10
87.718900
 20
136.343074
 30
0.0
 10
88.261692
 20
135.799421
 30
0.0
 10
88.261692
 20
135.129849
 30
0.0
  0
SPLINE
  5
11d
100
AcDbEntity
  8
pi_zero_case_v2
 62
7
100
AcDbSpline
 70
8
 71
3
 72
8
 73
4
 74
0
 40
0
 40
0
 40
0
 40
0
 40
1
 40
1
 40
1
 40
1
 10
88.261692
 20
135.129849
 30
0.0
 10
88.261692
 20
134.458865
 30
0.0
 10
87.718900
 20
133.916073
 30
0.0
 10
87.047917
 20
133.916073
 30
0.0
  0
SPLINE
  5
11e
100
AcDbEntity
  8
pi_zero_case_v2
 62
7
100
AcDbSpline
 70
8
 71
3
 72
8
 73
4
 74
0
 40
0
 40
0
 40
0
 40
0
 40
1
 40
1
 40
1
 40
1
 10
87.047917
 20
133.916073
 30
0.0
 10
86.378344
 20
133.916073
 30
0.0
 10
85.834141
 20
134.458865
 30
0.0
 10
85.834141
 20
135.129849
 30
0.0
  0
SPLINE
  5
11f
100
AcDbEntity
  8
pi_zero_case_v2
 62
7
100
AcDbSpline
 70
8
 71
3
 72
8
 73
4
 74
0
 40
0
 40
0
 40
0
 40
0
 40
1
 40
1
 40
1
 40
1
 10
85.834141
 20
135.129849
 30
0.0
 10
85.834141
 20
135.799421
 30
0.0
 10
86.378344
 20
136.343074
 30
0.0
 10
87.047917
 20
136.343074
 30
0.0
  0
LWPOLYLINE
  5
120
100
AcDbEntity
  8
pi_zero_case_v2
 62
7
100
AcDbPolyline
 90
2
 70
0
 10
28.061268
 20
136.356855
 30
0.0
 10
28.061268
 20
136.356855
 30
0.0
  0
LWPOLYLINE
  5
121
100
AcDbEntity
  8
pi_zero_case_v2
 62
7
100
AcDbPolyline
 90
2
 70
0
 10
87.047917
 20
136.343074
 30
0.0
 10
87.047917
 20
136.343074
 30
0.0
  0
LWPOLYLINE
  5
122
100
AcDbEntity
  8
pi_zero_case_v2
 62
7
100
AcDbPolyline
 90
6
 70
0
 10
36.833858
 20
128.718112
 30
0.0
 10
84.479254
 20
128.718112
 30
0.0
 10
84.479254
 20
126.710036
 30
0.0
 10
36.833858
 20
126.710036
 30
0.0
 10
36.833858
 20
128.718112
 30
0.0
 10
36.833858
 20
128.718112
 30
0.0
  0
LWPOLYLINE
  5
123
100
AcDbEntity
  8
pi_zero_case_v2
 62
7
100
AcDbPolyline
 90
6
 70
0
 10
30.092495
 20
124.338707
 30
0.0
 10
77.737341
 20
124.338707
 30
0.0
 10
77.737341
 20
122.330631
 30
0.0
 10
30.092495
 20
122.330631
 30
0.0
 10
30.092495
 20
124.338707
 30
0.0
 10
30.092495
 20
124.338707
 30
0.0
  0
LWPOLYLINE
  5
124
100
AcDbEntity
  8
pi_zero_case_v2
 62
7
100
AcDbPolyline
 90
6
 70
0
 10
30.092495
 20
119.689208
 30
0.0
 10
77.737341
 20
119.689208
 30
0.0
 10
77.737341
 20
117.681129
 30
0.0
 10
30.092495
 20
117.681129
 30
0.0
 10
30.092495
 20
119.689208
 30
0.0
 10
30.092495
 20
119.689208
 30
0.0
  0
SPLINE
  5
125
100
AcDbEntity
  8
pi_zero_case_v2
 62
7
100
AcDbSpline
 70
8
 71
3
 72
8
 73
4
 74
0
 40
0
 40
0
 40
0
 40
0
 40
1
 40
1
 40
1
 40
1
 10
87.047917
 20
112.493092
 30
0.0
 10
87.718900
 20
112.493092
 30
0.0
 10
88.261692
 20
111.950300
 30
0.0
 10
88.261692
 20
111.279316
 30
0.0
  0
SPLINE
  5
126
100
AcDbEntity
  8
pi_zero_case_v2
 62
7
100
AcDbSpline
 70
8
 71
3
 72
8
 73
4
 74
0
 40
0
 40
0
 40
0
 40
0
 40
1
 40
1
 40
1
 40
1
 10
88.261692
 20
111.279316
 30
0.0
 10
88.261692
 20
110.609391
 30
0.0
 10
87.718900
 20
110.064987
 30
0.0
 10
87.047917
 20
110.064987
 30
0.0
  0
SPLINE
  5
127
100
AcDbEntity
  8
pi_zero_case_v2
 62
7
100
AcDbSpline
 70
8
 71
3
 72
8
 73
4
 74
0
 40
0
 40
0
 40
0
 40
0
 40
1
 40
1
 40
1
 40
1
 10
87.047917
 20
110.064987
 30
0.0
 10
86.378344
 20
110.064987
 30
0.0
 10
85.834141
 20
110.609391
 30
0.0
 10
85.834141
 20
111.279316
 30
0.0
  0
SPLINE
  5
128
100
AcDbEntity
  8
pi_zero_case_v2
 62
7
100
AcDbSpline
 70
8
 71
3
 72
8
 73
4
 74
0
 40
0
 40
0
 40
0
 40
0
 40
1
 40
1
 40
1
 40
1
 10
85.834141
 20
111.279316
 30
0.0
 10
85.834141
 20
111.950300
 30
0.0
 10
86.378344
 20
112.493092
 30
0.0
 10
87.047917
 20
112.493092
 30
0.0
  0
LWPOLYLINE
  5
129
100
AcDbEntity
  8
pi_zero_case_v2
 62
7
100
AcDbPolyline
 90
6
 70
0
 10
36.758894
 20
115.234836
 30
0.0
 10
84.404287
 20
115.234836
 30
0.0
 10
84.404287
 20
113.226760
 30
0.0
 10
36.758894
 20
113.226760
 30
0.0
 10
36.758894
 20
115.234836
 30
0.0
 10
36.758894
 20
115.234836
 30
0.0
  0
SPLINE
  5
12a
100
AcDbEntity
  8
pi_zero_case_v2
 62
7
100
AcDbSpline
 70
8
 71
3
 72
8
 73
4
 74
0
 40
0
 40
0
 40
0
 40
0
 40
1
 40
1
 40
1
 40
1
 10
28.061268
 20
112.491438
 30
0.0
 10
28.730840
 20
112.491438
 30
0.0
 10
29.273390
 20
111.948889
 30
0.0
 10
29.273390
 20
111.279316
 30
0.0
  0
SPLINE
  5
12b
100
AcDbEntity
  8
pi_zero_case_v2
 62
7
100
AcDbSpline
 70
8
 71
3
 72
8
 73
4
 74
0
 40
0
 40
0
 40
0
 40
0
 40
1
 40
1
 40
1
 40
1
 10
29.273390
 20
111.279316
 30
0.0
 10
29.273390
 20
110.610802
 30
0.0
 10
28.730840
 20
110.067745
 30
0.0
 10
28.061268
 20
110.067745
 30
0.0
  0
SPLINE
  5
12c
100
AcDbEntity
  8
pi_zero_case_v2
 62
7
100
AcDbSpline
 70
8
 71
3
 72
8
 73
4
 74
0
 40
0
 40
0
 40
0
 40
0
 40
1
 40
1
 40
1
 40
1
 10
28.061268
 20
110.067745
 30
0.0
 10
27.391695
 20
110.067745
 30
0.0
 10
26.849696
 20
110.610802
 30
0.0
 10
26.849696
 20
111.279316
 30
0.0
  0
SPLINE
  5
12d
100
AcDbEntity
  8
pi_zero_case_v2
 62
7
100
AcDbSpline
 70
8
 71
3
 72
8
 73
4
 74
0
 40
0
 40
0
 40
0
 40
0
 40
1
 40
1
 40
1
 40
1
 10
26.849696
 20
111.279316
 30
0.0
 10
26.849696
 20
111.948889
 30
0.0
 10
27.391695
 20
112.491438
 30
0.0
 10
28.061268
 20
112.491438
 30
0.0
  0
LWPOLYLINE
  5
12e
100
AcDbEntity
  8
pi_zero_case_v2
 62
7
100
AcDbPolyline
 90
2
 70
0
 10
87.047917
 20
112.493092
 30
0.0
 10
87.047917
 20
112.493092
 30
0.0
  0
SPLINE
  5
12f
100
AcDbEntity
  8
pi_zero_case_v2
 62
7
100
AcDbSpline
 70
8
 71
3
 72
8
 73
4
 74
0
 40
0
 40
0
 40
0
 40
0
 40
1
 40
1
 40
1
 40
1
 10
24.128898
 20
276.657679
 30
0.0
 10
22.506825
 20
276.657679
 30
0.0
 10
21.201944
 20
275.352798
 30
0.0
 10
21.201944
 20
273.730726
 30
0.0
  0
LWPOLYLINE
  5
130
100
AcDbEntity
  8
pi_zero_case_v2
 62
7
100
AcDbPolyline
 90
2
 70
0
 10
28.061268
 20
112.491438
 30
0.0
 10
28.061268
 20
112.491438
 30
0.0
  0
SPLINE
  5
131
100
AcDbEntity
  8
pi_zero_case_v2
 62
7
100
AcDbSpline
 70
8
 71
3
 72
8
 73
4
 74
0
 40
0
 40
0
 40
0
 40
0
 40
1
 40
1
 40
1
 40
1
 10
21.201944
 20
241.993403
 30
0.0
 10
21.201944
 20
240.371684
 30
0.0
 10
22.506825
 20
239.066451
 30
0.0
 10
24.128898
 20
239.066451
 30
0.0
  0
LWPOLYLINE
  5
132
100
AcDbEntity
  8
pi_zero_case_v2
 62
7
100
AcDbPolyline
 90
2
 70
0
 10
21.201944
 20
273.730726
 30
0.0
 10
21.201944
 20
241.993403
 30
0.0
  0
SPLINE
  5
133
100
AcDbEntity
  8
pi_zero_case_v2
 62
7
100
AcDbSpline
 70
8
 71
3
 72
8
 73
4
 74
0
 40
0
 40
0
 40
0
 40
0
 40
1
 40
1
 40
1
 40
1
 10
90.445607
 20
239.066451
 30
0.0
 10
92.067679
 20
239.066451
 30
0.0
 10
93.372562
 20
240.371684
 30
0.0
 10
93.372562
 20
241.993403
 30
0.0
  0
LWPOLYLINE
  5
134
100
AcDbEntity
  8
pi_zero_case_v2
 62
7
100
AcDbPolyline
 90
6
 70
0
 10
24.128898
 20
239.066451
 30
0.0
 10
30.107930
 20
239.066451
 30
0.0
 10
30.107930
 20
242.853300
 30
0.0
 10
84.729506
 20
242.853300
 30
0.0
 10
84.729506
 20
239.066451
 30
0.0
 10
90.445607
 20
239.066451
 30
0.0
  0
SPLINE
  5
135
100
AcDbEntity
  8
pi_zero_case_v2
 62
7
100
AcDbSpline
 70
8
 71
3
 72
8
 73
4
 74
0
 40
0
 40
0
 40
0
 40
0
 40
1
 40
1
 40
1
 40
1
 10
93.372562
 20
273.730726
 30
0.0
 10
93.372562
 20
275.352798
 30
0.0
 10
92.067679
 20
276.657679
 30
0.0
 10
90.445607
 20
276.657679
 30
0.0
  0
LWPOLYLINE
  5
136
100
AcDbEntity
  8
pi_zero_case_v2
 62
7
100
AcDbPolyline
 90
2
 70
0
 10
93.372562
 20
241.993403
 30
0.0
 10
93.372562
 20
273.730726
 30
0.0
  0
SPLINE
  5
137
100
AcDbEntity
  8
pi_zero_case_v2
 62
7
100
AcDbSpline
 70
8
 71
3
 72
8
 73
4
 74
0
 40
0
 40
0
 40
0
 40
0
 40
1
 40
1
 40
1
 40
1
 10
27.761406
 20
270.887007
 30
0.0
 10
28.439446
 20
270.887007
 30
0.0
 10
28.987860
 20
270.336628
 30
0.0
 10
28.987860
 20
269.660000
 30
0.0
  0
SPLINE
  5
138
100
AcDbEntity
  8
pi_zero_case_v2
 62
7
100
AcDbSpline
 70
8
 71
3
 72
8
 73
4
 74
0
 40
0
 40
0
 40
0
 40
0
 40
1
 40
1
 40
1
 40
1
 10
28.987860
 20
269.660000
 30
0.0
 10
28.987860
 20
268.981961
 30
0.0
 10
28.439446
 20
268.432444
 30
0.0
 10
27.761406
 20
268.432444
 30
0.0
  0
SPLINE
  5
139
100
AcDbEntity
  8
pi_zero_case_v2
 62
7
100
AcDbSpline
 70
8
 71
3
 72
8
 73
4
 74
0
 40
0
 40
0
 40
0
 40
0
 40
1
 40
1
 40
1
 40
1
 10
27.761406
 20
268.432444
 30
0.0
 10
27.084778
 20
268.432444
 30
0.0
 10
26.534952
 20
268.981961
 30
0.0
 10
26.534952
 20
269.660000
 30
0.0
  0
SPLINE
  5
13a
100
AcDbEntity
  8
pi_zero_case_v2
 62
7
100
AcDbSpline
 70
8
 71
3
 72
8
 73
4
 74
0
 40
0
 40
0
 40
0
 40
0
 40
1
 40
1
 40
1
 40
1
 10
26.534952
 20
269.660000
 30
0.0
 10
26.534952
 20
270.336628
 30
0.0
 10
27.084778
 20
270.887007
 30
0.0
 10
27.761406
 20
270.887007
 30
0.0
  0
LWPOLYLINE
  5
13b
100
AcDbEntity
  8
pi_zero_case_v2
 62
7
100
AcDbPolyline
 90
15
 70
0
 10
90.445607
 20
276.657679
 30
0.0
 10
84.128681
 20
276.657679
 30
0.0
 10
84.207505
 20
267.948478
 30
0.0
 10
84.204198
 20
267.908792
 30
0.0
 10
84.204198
 20
264.584962
 30
0.0
 10
81.175270
 20
264.625201
 30
0.0
 10
81.175270
 20
266.819589
 30
0.0
 10
30.104072
 20
266.819589
 30
0.0
 10
30.111237
 20
267.950132
 30
0.0
 10
30.112891
 20
267.943516
 30
0.0
 10
30.146515
 20
271.338452
 30
0.0
 10
30.136592
 20
271.338452
 30
0.0
 10
30.136592
 20
276.657679
 30
0.0
 10
24.128898
 20
276.657679
 30
0.0
 10
24.128898
 20
276.657679
 30
0.0
  0
SPLINE
  5
13c
100
AcDbEntity
  8
pi_zero_case_v2
 62
7
100
AcDbSpline
 70
8
 71
3
 72
8
 73
4
 74
0
 40
0
 40
0
 40
0
 40
0
 40
1
 40
1
 40
1
 40
1
 10
86.748056
 20
270.873226
 30
0.0
 10
87.419039
 20
270.873226
 30
0.0
 10
87.962382
 20
270.329573
 30
0.0
 10
87.962382
 20
269.660000
 30
0.0
  0
SPLINE
  5
13d
100
AcDbEntity
  8
pi_zero_case_v2
 62
7
100
AcDbSpline
 70
8
 71
3
 72
8
 73
4
 74
0
 40
0
 40
0
 40
0
 40
0
 40
1
 40
1
 40
1
 40
1
 10
87.962382
 20
269.660000
 30
0.0
 10
87.962382
 20
268.989017
 30
0.0
 10
87.419039
 20
268.446225
 30
0.0
 10
86.748056
 20
268.446225
 30
0.0
  0
SPLINE
  5
13e
100
AcDbEntity
  8
pi_zero_case_v2
 62
7
100
AcDbSpline
 70
8
 71
3
 72
8
 73
4
 74
0
 40
0
 40
0
 40
0
 40
0
 40
1
 40
1
 40
1
 40
1
 10
86.748056
 20
268.446225
 30
0.0
 10
86.078483
 20
268.446225
 30
0.0
 10
85.534280
 20
268.989017
 30
0.0
 10
85.534280
 20
269.660000
 30
0.0
  0
SPLINE
  5
13f
100
AcDbEntity
  8
pi_zero_case_v2
 62
7
100
AcDbSpline
 70
8
 71
3
 72
8
 73
4
 74
0
 40
0
 40
0
 40
0
 40
0
 40
1
 40
1
 40
1
 40
1
 10
85.534280
 20
269.660000
 30
0.0
 10
85.534280
 20
270.329573
 30
0.0
 10
86.078483
 20
270.873226
 30
0.0
 10
86.748056
 20
270.873226
 30
0.0
  0
LWPOLYLINE
  5
140
100
AcDbEntity
  8
pi_zero_case_v2
 62
7
100
AcDbPolyline
 90
2
 70
0
 10
27.761406
 20
270.887007
 30
0.0
 10
27.761406
 20
270.887007
 30
0.0
  0
SPLINE
  5
141
100
AcDbEntity
  8
pi_zero_case_v2
 62
7
100
AcDbSpline
 70
8
 71
3
 72
8
 73
4
 74
0
 40
0
 40
0
 40
0
 40
0
 40
1
 40
1
 40
1
 40
1
 10
86.748056
 20
247.023244
 30
0.0
 10
87.419039
 20
247.023244
 30
0.0
 10
87.962382
 20
246.480451
 30
0.0
 10
87.962382
 20
245.809468
 30
0.0
  0
SPLINE
  5
142
100
AcDbEntity
  8
pi_zero_case_v2
 62
7
100
AcDbSpline
 70
8
 71
3
 72
8
 73
4
 74
0
 40
0
 40
0
 40
0
 40
0
 40
1
 40
1
 40
1
 40
1
 10
87.962382
 20
245.809468
 30
0.0
 10
87.962382
 20
245.139543
 30
0.0
 10
87.419039
 20
244.595139
 30
0.0
 10
86.748056
 20
244.595139
 30
0.0
  0
SPLINE
  5
143
100
AcDbEntity
  8
pi_zero_case_v2
 62
7
100
AcDbSpline
 70
8
 71
3
 72
8
 73
4
 74
0
 40
0
 40
0
 40
0
 40
0
 40
1
 40
1
 40
1
 40
1
 10
86.748056
 20
244.595139
 30
0.0
 10
86.078483
 20
244.595139
 30
0.0
 10
85.534280
 20
245.139543
 30
0.0
 10
85.534280
 20
245.809468
 30
0.0
  0
SPLINE
  5
144
100
AcDbEntity
  8
pi_zero_case_v2
 62
7
100
AcDbSpline
 70
8
 71
3
 72
8
 73
4
 74
0
 40
0
 40
0
 40
0
 40
0
 40
1
 40
1
 40
1
 40
1
 10
85.534280
 20
245.809468
 30
0.0
 10
85.534280
 20
246.480451
 30
0.0
 10
86.078483
 20
247.023244
 30
0.0
 10
86.748056
 20
247.023244
 30
0.0
  0
LWPOLYLINE
  5
145
100
AcDbEntity
  8
pi_zero_case_v2
 62
7
100
AcDbPolyline
 90
2
 70
0
 10
86.748056
 20
270.873226
 30
0.0
 10
86.748056
 20
270.873226
 30
0.0
  0
SPLINE
  5
146
100
AcDbEntity
  8
pi_zero_case_v2
 62
7
100
AcDbSpline
 70
8
 71
3
 72
8
 73
4
 74
0
 40
0
 40
0
 40
0
 40
0
 40
1
 40
1
 40
1
 40
1
 10
27.761406
 20
247.021590
 30
0.0
 10
28.430979
 20
247.021590
 30
0.0
 10
28.974079
 20
246.479040
 30
0.0
 10
28.974079
 20
245.809468
 30
0.0
  0
SPLINE
  5
147
100
AcDbEntity
  8
pi_zero_case_v2
 62
7
100
AcDbSpline
 70
8
 71
3
 72
8
 73
4
 74
0
 40
0
 40
0
 40
0
 40
0
 40
1
 40
1
 40
1
 40
1
 10
28.974079
 20
245.809468
 30
0.0
 10
28.974079
 20
245.140954
 30
0.0
 10
28.430979
 20
244.597896
 30
0.0
 10
27.761406
 20
244.597896
 30
0.0
  0
SPLINE
  5
148
100
AcDbEntity
  8
pi_zero_case_v2
 62
7
100
AcDbSpline
 70
8
 71
3
 72
8
 73
4
 74
0
 40
0
 40
0
 40
0
 40
0
 40
1
 40
1
 40
1
 40
1
 10
27.761406
 20
244.597896
 30
0.0
 10
27.091834
 20
244.597896
 30
0.0
 10
26.549835
 20
245.140954
 30
0.0
 10
26.549835
 20
245.809468
 30
0.0
  0
SPLINE
  5
149
100
AcDbEntity
  8
pi_zero_case_v2
 62
7
100
AcDbSpline
 70
8
 71
3
 72
8
 73
4
 74
0
 40
0
 40
0
 40
0
 40
0
 40
1
 40
1
 40
1
 40
1
 10
26.549835
 20
245.809468
 30
0.0
 10
26.549835
 20
246.479040
 30
0.0
 10
27.091834
 20
247.021590
 30
0.0
 10
27.761406
 20
247.021590
 30
0.0
  0
LWPOLYLINE
  5
14a
100
AcDbEntity
  8
pi_zero_case_v2
 62
7
100
AcDbPolyline
 90
2
 70
0
 10
86.748056
 20
247.023244
 30
0.0
 10
86.748056
 20
247.023244
 30
0.0
  0
SPLINE
  5
14b
100
AcDbEntity
  8
pi_zero_case_v2
 62
7
100
AcDbSpline
 70
8
 71
3
 72
8
 73
4
 74
0
 40
0
 40
0
 40
0
 40
0
 40
1
 40
1
 40
1
 40
1
 10
23.792656
 20
186.708717
 30
0.0
 10
22.170584
 20
186.708717
 30
0.0
 10
20.865703
 20
185.404035
 30
0.0
 10
20.865703
 20
183.782315
 30
0.0
  0
LWPOLYLINE
  5
14c
100
AcDbEntity
  8
pi_zero_case_v2
 62
7
100
AcDbPolyline
 90
2
 70
0
 10
27.761406
 20
247.021590
 30
0.0
 10
27.761406
 20
247.021590
 30
0.0
  0
SPLINE
  5
14d
100
AcDbEntity
  8
pi_zero_case_v2
 62
7
100
AcDbSpline
 70
8
 71
3
 72
8
 73
4
 74
0
 40
0
 40
0
 40
0
 40
0
 40
1
 40
1
 40
1
 40
1
 10
20.865703
 20
152.044442
 30
0.0
 10
20.865703
 20
150.422370
 30
0.0
 10
22.170584
 20
149.117487
 30
0.0
 10
23.792656
 20
149.117487
 30
0.0
  0
LWPOLYLINE
  5
14e
100
AcDbEntity
  8
pi_zero_case_v2
 62
7
100
AcDbPolyline
 90
2
 70
0
 10
20.865703
 20
183.782315
 30
0.0
 10
20.865703
 20
152.044442
 30
0.0
  0
SPLINE
  5
14f
100
AcDbEntity
  8
pi_zero_case_v2
 62
7
100
AcDbSpline
 70
8
 71
3
 72
8
 73
4
 74
0
 40
0
 40
0
 40
0
 40
0
 40
1
 40
1
 40
1
 40
1
 10
27.470916
 20
152.909849
 30
0.0
 10
25.811802
 20
152.909849
 30
0.0
 10
24.476715
 20
154.246591
 30
0.0
 10
24.476715
 20
155.905705
 30
0.0
  0
LWPOLYLINE
  5
150
100
AcDbEntity
  8
pi_zero_case_v2
 62
7
100
AcDbPolyline
 90
6
 70
0
 10
23.792656
 20
149.117487
 30
0.0
 10
29.772240
 20
149.117487
 30
0.0
 10
29.772240
 20
152.904337
 30
0.0
 10
29.791533
 20
152.904337
 30
0.0
 10
29.791533
 20
152.909849
 30
0.0
 10
27.470916
 20
152.909849
 30
0.0
  0
SPLINE
  5
151
100
AcDbEntity
  8
pi_zero_case_v2
 62
7
100
AcDbSpline
 70
8
 71
3
 72
8
 73
4
 74
0
 40
0
 40
0
 40
0
 40
0
 40
1
 40
1
 40
1
 40
1
 10
24.476715
 20
179.814116
 30
0.0
 10
24.476715
 20
181.473582
 30
0.0
 10
25.811802
 20
182.810523
 30
0.0
 10
27.470916
 20
182.810523
 30
0.0
  0
LWPOLYLINE
  5
152
100
AcDbEntity
  8
pi_zero_case_v2
 62
7
100
AcDbPolyline
 90
6
 70
0
 10
24.476715
 20
155.905705
 30
0.0
 10
24.476715
 20
158.584612
 30
0.0
 10
22.023806
 20
158.584612
 30
0.0
 10
22.023806
 20
177.021659
 30
0.0
 10
24.476715
 20
177.021659
 30
0.0
 10
24.476715
 20
179.814116
 30
0.0
  0
SPLINE
  5
153
100
AcDbEntity
  8
pi_zero_case_v2
 62
7
100
AcDbSpline
 70
8
 71
3
 72
8
 73
4
 74
0
 40
0
 40
0
 40
0
 40
0
 40
1
 40
1
 40
1
 40
1
 10
86.380396
 20
182.810523
 30
0.0
 10
88.039510
 20
182.810523
 30
0.0
 10
89.376250
 20
181.473582
 30
0.0
 10
89.376250
 20
179.814116
 30
0.0
  0
LWPOLYLINE
  5
154
100
AcDbEntity
  8
pi_zero_case_v2
 62
7
100
AcDbPolyline
 90
2
 70
0
 10
27.470916
 20
182.810523
 30
0.0
 10
86.380396
 20
182.810523
 30
0.0
  0
SPLINE
  5
155
100
AcDbEntity
  8
pi_zero_case_v2
 62
7
100
AcDbSpline
 70
8
 71
3
 72
8
 73
4
 74
0
 40
0
 40
0
 40
0
 40
0
 40
1
 40
1
 40
1
 40
1
 10
89.376250
 20
155.905705
 30
0.0
 10
89.376250
 20
154.246591
 30
0.0
 10
88.039510
 20
152.909849
 30
0.0
 10
86.380396
 20
152.909849
 30
0.0
  0
LWPOLYLINE
  5
156
100
AcDbEntity
  8
pi_zero_case_v2
 62
7
100
AcDbPolyline
 90
2
 70
0
 10
89.376250
 20
179.814116
 30
0.0
 10
89.376250
 20
155.905705
 30
0.0
  0
SPLINE
  5
157
100
AcDbEntity
  8
pi_zero_case_v2
 62
7
100
AcDbSpline
 70
8
 71
3
 72
8
 73
4
 74
0
 40
0
 40
0
 40
0
 40
0
 40
1
 40
1
 40
1
 40
1
 10
90.109367
 20
149.117487
 30
0.0
 10
91.731440
 20
149.117487
 30
0.0
 10
93.036319
 20
150.422370
 30
0.0
 10
93.036319
 20
152.044442
 30
0.0
  0
LWPOLYLINE
  5
158
100
AcDbEntity
  8
pi_zero_case_v2
 62
7
100
AcDbPolyline
 90
6
 70
0
 10
86.380396
 20
152.909849
 30
0.0
 10
84.374522
 20
152.909849
 30
0.0
 10
84.374522
 20
152.904337
 30
0.0
 10
84.393264
 20
152.904337
 30
0.0
 10
84.393264
 20
149.117487
 30
0.0
 10
90.109367
 20
149.117487
 30
0.0
  0
SPLINE
  5
159
100
AcDbEntity
  8
pi_zero_case_v2
 62
7
100
AcDbSpline
 70
8
 71
3
 72
8
 73
4
 74
0
 40
0
 40
0
 40
0
 40
0
 40
1
 40
1
 40
1
 40
1
 10
93.036319
 20
183.782315
 30
0.0
 10
93.036319
 20
185.404035
 30
0.0
 10
91.731440
 20
186.708717
 30
0.0
 10
90.109367
 20
186.708717
 30
0.0
  0
LWPOLYLINE
  5
15a
100
AcDbEntity
  8
pi_zero_case_v2
 62
7
100
AcDbPolyline
 90
2
 70
0
 10
93.036319
 20
152.044442
 30
0.0
 10
93.036319
 20
183.782315
 30
0.0
  0
LWPOLYLINE
  5
15b
100
AcDbEntity
  8
pi_zero_case_v2
 62
7
100
AcDbPolyline
 90
3
 70
0
 10
90.109367
 20
186.708717
 30
0.0
 10
23.792656
 20
186.708717
 30
0.0
 10
23.792656
 20
186.708717
 30
0.0
  0
ENDSEC
  0
SECTION
  2
OBJECTS
  0
DICTIONARY
  5
C
330
0
100
AcDbDictionary
  3
ACAD_GROUP
350
D
  3
ACAD_MLINESTYLE
350
17
  0
DICTIONARY
  5
D
330
C
100
AcDbDictionary
  0
DICTIONARY
  5
1A
330
C
100
AcDbDictionary
  0
DICTIONARY
  5
17
330
C
100
AcDbDictionary
  3
STANDARD
350
18
  0
DICTIONARY
  5
19
330
C
100
AcDbDictionary
  0
ENDSEC
  0
EOF
