<?xml version="1.0" encoding="UTF-8" standalone="no"?>
<!-- Created with Inkscape (http://www.inkscape.org/) -->

<svg
   xmlns:dc="http://purl.org/dc/elements/1.1/"
   xmlns:cc="http://creativecommons.org/ns#"
   xmlns:rdf="http://www.w3.org/1999/02/22-rdf-syntax-ns#"
   xmlns:svg="http://www.w3.org/2000/svg"
   xmlns="http://www.w3.org/2000/svg"
   xmlns:sodipodi="http://sodipodi.sourceforge.net/DTD/sodipodi-0.dtd"
   xmlns:inkscape="http://www.inkscape.org/namespaces/inkscape"
   id="svg2"
   version="1.1"
   inkscape:version="0.91 r13725"
   xml:space="preserve"
   width="2125.9841"
   height="1062.9921"
   viewBox="0 0 2125.9841 1062.9921"
   sodipodi:docname="pi zero case v3.svg"><metadata
     id="metadata8"><rdf:RDF><cc:Work
         rdf:about=""><dc:format>image/svg+xml</dc:format><dc:type
           rdf:resource="http://purl.org/dc/dcmitype/StillImage" /><dc:title></dc:title></cc:Work></rdf:RDF></metadata><defs
     id="defs6" /><sodipodi:namedview
     pagecolor="#ffffff"
     bordercolor="#666666"
     borderopacity="1"
     objecttolerance="10"
     gridtolerance="10"
     guidetolerance="10"
     inkscape:pageopacity="0"
     inkscape:pageshadow="2"
     inkscape:window-width="1391"
     inkscape:window-height="855"
     id="namedview4"
     showgrid="false"
     inkscape:zoom="0.94192914"
     inkscape:cx="507.09933"
     inkscape:cy="849.31355"
     inkscape:window-x="49"
     inkscape:window-y="1"
     inkscape:window-maximized="1"
     inkscape:current-layer="g12" /><g
     id="g10"
     inkscape:groupmode="layer"
     inkscape:label="pi zero case v2"
     transform="matrix(1.25,0,0,-1.25,0,1062.9921)"><g
       id="g12"><path
         d="m 69.246,653.569 c -4.598,0 -8.297,-3.699 -8.297,-8.296 l 0,-89.965 c 0,-4.598 3.699,-8.297 8.297,-8.297 l 16.949,0 0,10.734 0.055,0 0,0.016 -6.578,0 c -4.703,0 -8.488,3.789 -8.488,8.492 l 0,7.594 -6.952,0 0,52.262 6.952,0 0,7.917 c 0,4.704 3.785,8.493 8.488,8.493 l 166.988,0 c 4.703,0 8.492,-3.789 8.492,-8.493 l 0,-67.773 c 0,-4.703 -3.789,-8.492 -8.492,-8.492 l -5.687,0 0,-0.016 0.054,0 0,-10.734 16.203,0 c 4.598,0 8.297,3.699 8.297,8.297 l 0,89.965 c 0,4.597 -3.699,8.296 -8.297,8.296 z"
         style="fill:none;stroke:#000000;stroke-width:0.27935201;stroke-linecap:butt;stroke-linejoin:miter;stroke-miterlimit:4;stroke-dasharray:none;stroke-opacity:1"
         id="path26"
         inkscape:connector-curvature="0"
         sodipodi:nodetypes="ssssccccssccccssssssccccsssss" /><path
         d="m 83.02,383.046 c 0,-1.922 -1.555,-3.48 -3.477,-3.48 -1.918,0 -3.477,1.558 -3.477,3.48 0,1.918 1.559,3.477 3.477,3.477 1.922,0 3.477,-1.559 3.477,-3.477 z"
         style="fill:none;stroke:#000000;stroke-width:0.283465;stroke-linecap:butt;stroke-linejoin:miter;stroke-miterlimit:4;stroke-dasharray:none;stroke-opacity:1"
         id="path28"
         inkscape:connector-curvature="0" /><path
         d="m 82.98,315.437 c 0,-1.895 -1.539,-3.434 -3.437,-3.434 -1.898,0 -3.434,1.539 -3.434,3.434 0,1.898 1.536,3.437 3.434,3.437 1.898,0 3.437,-1.539 3.437,-3.437 z"
         style="fill:none;stroke:#000000;stroke-width:0.283465;stroke-linecap:butt;stroke-linejoin:miter;stroke-miterlimit:4;stroke-dasharray:none;stroke-opacity:1"
         id="path30"
         inkscape:connector-curvature="0" /><path
         d="m 250.191,315.437 c 0,-1.899 -1.539,-3.442 -3.441,-3.442 -1.898,0 -3.441,1.543 -3.441,3.442 0,1.902 1.543,3.441 3.441,3.441 1.902,0 3.441,-1.539 3.441,-3.441 z"
         style="fill:none;stroke:#000000;stroke-width:0.283465;stroke-linecap:butt;stroke-linejoin:miter;stroke-miterlimit:4;stroke-dasharray:none;stroke-opacity:1"
         id="path32"
         inkscape:connector-curvature="0" /><path
         d="m 250.191,383.046 c 0,-1.902 -1.539,-3.441 -3.441,-3.441 -1.898,0 -3.441,1.539 -3.441,3.441 0,1.898 1.543,3.438 3.441,3.438 1.902,0 3.441,-1.54 3.441,-3.438 z"
         style="fill:none;stroke:#000000;stroke-width:0.283465;stroke-linecap:butt;stroke-linejoin:miter;stroke-miterlimit:4;stroke-dasharray:none;stroke-opacity:1"
         id="path34"
         inkscape:connector-curvature="0" /><path
         d="m 69.246,402.882 c -4.598,0 -8.297,-3.699 -8.297,-8.297 l 0,-89.965 c 0,-4.597 3.699,-8.297 8.297,-8.297 l 16.949,0 0,10.735 154.832,0 0,-10.735 16.203,0 c 4.598,0 8.297,3.7 8.297,8.297 l 0,89.965 c 0,4.598 -3.699,8.297 -8.297,8.297 l -17.906,0 0.223,-24.688 -0.008,-0.113 0,-9.422 -8.586,0.114 0,6.221 -144.769838,0 0.02016,3.204 0.0064,-0.0188 0.09523,9.62477 -0.028,0 0,15.078 z"
         style="fill:none;stroke:#000000;stroke-width:0.27935201;stroke-linecap:butt;stroke-linejoin:miter;stroke-miterlimit:4;stroke-dasharray:none;stroke-opacity:1"
         id="path36"
         inkscape:connector-curvature="0"
         sodipodi:nodetypes="ssssccccssssccccccccccccs" /><path
         d="m 104.41051,364.86949 135.05749,0 0,-5.69198 -135.05749,0 0,5.69198 z"
         style="fill:none;stroke:#000000;stroke-width:0.28249273;stroke-linecap:butt;stroke-linejoin:miter;stroke-miterlimit:4;stroke-dasharray:none;stroke-opacity:1"
         id="path38"
         inkscape:connector-curvature="0" /><path
         inkscape:connector-curvature="0"
         id="path3374"
         style="fill:none;stroke:#000000;stroke-width:0.28249273;stroke-linecap:butt;stroke-linejoin:miter;stroke-miterlimit:4;stroke-dasharray:none;stroke-opacity:1"
         d="m 85.300792,352.4557 135.057488,0 0,-5.69198 -135.057488,0 0,5.69198 z" /><path
         d="m 85.300792,339.27618 135.057488,0 0,-5.69198 -135.057488,0 0,5.69198 z"
         style="fill:none;stroke:#000000;stroke-width:0.28249273;stroke-linecap:butt;stroke-linejoin:miter;stroke-miterlimit:4;stroke-dasharray:none;stroke-opacity:1"
         id="path3376"
         inkscape:connector-curvature="0" /><path
         inkscape:connector-curvature="0"
         id="path3378"
         style="fill:none;stroke:#000000;stroke-width:0.28249273;stroke-linecap:butt;stroke-linejoin:miter;stroke-miterlimit:4;stroke-dasharray:none;stroke-opacity:1"
         d="m 104.19818,326.65006 135.05749,0 0,-5.69198 -135.05749,0 0,5.69198 z" /><path
         inkscape:connector-curvature="0"
         id="path3380"
         style="fill:none;stroke:#000000;stroke-width:0.283465;stroke-linecap:butt;stroke-linejoin:miter;stroke-miterlimit:4;stroke-dasharray:none;stroke-opacity:1"
         d="m 82.170677,764.39103 c 0,-1.922 -1.555,-3.48 -3.477,-3.48 -1.918,0 -3.477,1.558 -3.477,3.48 0,1.918 1.559,3.477 3.477,3.477 1.922,0 3.477,-1.559 3.477,-3.477 z" /><path
         inkscape:connector-curvature="0"
         id="path3382"
         style="fill:none;stroke:#000000;stroke-width:0.283465;stroke-linecap:butt;stroke-linejoin:miter;stroke-miterlimit:4;stroke-dasharray:none;stroke-opacity:1"
         d="m 82.130677,696.78203 c 0,-1.895 -1.539,-3.434 -3.437,-3.434 -1.898,0 -3.434,1.539 -3.434,3.434 0,1.898 1.536,3.437 3.434,3.437 1.898,0 3.437,-1.539 3.437,-3.437 z" /><path
         inkscape:connector-curvature="0"
         id="path3384"
         style="fill:none;stroke:#000000;stroke-width:0.283465;stroke-linecap:butt;stroke-linejoin:miter;stroke-miterlimit:4;stroke-dasharray:none;stroke-opacity:1"
         d="m 249.34168,696.78203 c 0,-1.899 -1.539,-3.442 -3.441,-3.442 -1.898,0 -3.441,1.543 -3.441,3.442 0,1.902 1.543,3.441 3.441,3.441 1.902,0 3.441,-1.539 3.441,-3.441 z" /><path
         inkscape:connector-curvature="0"
         id="path3386"
         style="fill:none;stroke:#000000;stroke-width:0.283465;stroke-linecap:butt;stroke-linejoin:miter;stroke-miterlimit:4;stroke-dasharray:none;stroke-opacity:1"
         d="m 249.34168,764.39103 c 0,-1.902 -1.539,-3.441 -3.441,-3.441 -1.898,0 -3.441,1.539 -3.441,3.441 0,1.898 1.543,3.438 3.441,3.438 1.902,0 3.441,-1.54 3.441,-3.438 z" /><path
         sodipodi:nodetypes="ssssccccssssccccccccccccs"
         inkscape:connector-curvature="0"
         id="path3388"
         style="fill:none;stroke:#000000;stroke-width:0.27935201;stroke-linecap:butt;stroke-linejoin:miter;stroke-miterlimit:4;stroke-dasharray:none;stroke-opacity:1"
         d="m 68.396677,784.22703 c -4.598,0 -8.297,-3.699 -8.297,-8.297 l 0,-89.965 c 0,-4.597 3.699,-8.297 8.297,-8.297 l 16.949,0 0,10.735 154.832003,0 0,-10.735 16.203,0 c 4.598,0 8.297,3.7 8.297,8.297 l 0,89.965 c 0,4.598 -3.699,8.297 -8.297,8.297 l -17.906,0 0.223,-24.688 -0.008,-0.113 0,-9.422 -8.586,0.114 0,6.221 -144.769843,0 0.0202,3.204 0.006,-0.0188 0.0952,9.62477 -0.028,0 0,15.078 z" /><path
         sodipodi:nodetypes="ssssccccssccccssssssccccsssss"
         inkscape:connector-curvature="0"
         id="path3398"
         style="fill:none;stroke:#000000;stroke-width:0.27935201;stroke-linecap:butt;stroke-linejoin:miter;stroke-miterlimit:4;stroke-dasharray:none;stroke-opacity:1"
         d="m 67.444322,529.25298 c -4.598,0 -8.297,-3.699 -8.297,-8.296 l 0,-89.965 c 0,-4.598 3.699,-8.297 8.297,-8.297 l 16.949,0 0,10.734 0.055,0 0,0.016 -6.578,0 c -4.703,0 -8.488,3.789 -8.488,8.492 l 0,7.594 -6.952,0 0,52.262 6.952,0 0,7.917 c 0,4.704 3.785,8.493 8.488,8.493 l 166.987998,0 c 4.703,0 8.492,-3.789 8.492,-8.493 l 0,-67.773 c 0,-4.703 -3.789,-8.492 -8.492,-8.492 l -5.687,0 0,-0.016 0.054,0 0,-10.734 16.203,0 c 4.598,0 8.297,3.699 8.297,8.297 l 0,89.965 c 0,4.597 -3.699,8.296 -8.297,8.296 z" /></g></g></svg>