<?xml version="1.0" encoding="UTF-8" standalone="no"?>
<!-- Created with Inkscape (http://www.inkscape.org/) -->

<svg
   xmlns:dc="http://purl.org/dc/elements/1.1/"
   xmlns:cc="http://creativecommons.org/ns#"
   xmlns:rdf="http://www.w3.org/1999/02/22-rdf-syntax-ns#"
   xmlns:svg="http://www.w3.org/2000/svg"
   xmlns="http://www.w3.org/2000/svg"
   xmlns:sodipodi="http://sodipodi.sourceforge.net/DTD/sodipodi-0.dtd"
   xmlns:inkscape="http://www.inkscape.org/namespaces/inkscape"
   width="210mm"
   height="297mm"
   viewBox="0 0 744.09448819 1052.3622047"
   id="svg2"
   version="1.1"
   inkscape:version="0.91 r13725"
   sodipodi:docname="acolade.svg">
  <defs
     id="defs4" />
  <sodipodi:namedview
     id="base"
     pagecolor="#ffffff"
     bordercolor="#666666"
     borderopacity="1.0"
     inkscape:pageopacity="0.0"
     inkscape:pageshadow="2"
     inkscape:zoom="0.7"
     inkscape:cx="500.49159"
     inkscape:cy="707.09436"
     inkscape:document-units="mm"
     inkscape:current-layer="layer1"
     showgrid="false"
     inkscape:window-width="1440"
     inkscape:window-height="837"
     inkscape:window-x="-4"
     inkscape:window-y="-4"
     inkscape:window-maximized="1" />
  <metadata
     id="metadata7">
    <rdf:RDF>
      <cc:Work
         rdf:about="">
        <dc:format>image/svg+xml</dc:format>
        <dc:type
           rdf:resource="http://purl.org/dc/dcmitype/StillImage" />
        <dc:title></dc:title>
      </cc:Work>
    </rdf:RDF>
  </metadata>
  <g
     inkscape:label="Layer 1"
     inkscape:groupmode="layer"
     id="layer1">
    <path
       style="fill:#000000"
       d="M 386.86914 174.43359 C 386.46842 174.43359 385.86444 177.70312 385.52734 181.69922 C 384.72648 191.19273 381.89825 202.67598 378.77344 209.12109 C 377.35714 212.04229 373.5971 216.96682 370.09961 220.48047 C 360.06012 230.56638 348.4334 235.24542 328.32422 237.29492 C 315.50004 238.60194 302.89137 237.95425 269.73047 234.28516 C 238.21506 230.79814 228.58727 230.91125 220.51758 234.85938 C 211.22228 239.40714 206.90349 248.04419 206.93359 262.02734 C 206.94259 266.18766 207.59113 272.54297 208.375 276.15234 C 209.15888 279.76172 210.04056 283.83632 210.33398 285.20703 L 210.86719 287.69922 L 202.83203 285 C 173.95309 275.29558 153.12974 282.14729 145.97656 303.70898 C 144.34655 308.62229 143.74729 313.51687 143.08398 327.38477 C 141.41563 362.26536 134.77609 382.74137 120.59375 396.72852 C 117.65924 399.62265 113.53216 402.78671 111.42383 403.75977 C 107.55799 405.54398 106.43272 406.93359 108.85547 406.93359 C 111.15886 406.93359 121.21954 415.16769 125.16211 420.2793 C 136.38862 434.83468 141.59773 453.53414 143.08398 484.60742 C 143.74729 498.47532 144.34655 503.37185 145.97656 508.28516 C 153.12974 529.84685 173.95309 536.69856 202.83203 526.99414 L 210.86719 524.29297 L 210.33398 526.78516 C 210.04056 528.15587 209.15888 532.23047 208.375 535.83984 C 207.59113 539.44922 206.94259 545.80647 206.93359 549.9668 C 206.90349 563.96437 211.21938 572.58582 220.54102 577.14648 C 228.58353 581.08131 238.84579 581.19595 270.19922 577.70117 C 303.68383 573.96882 313.84283 573.4388 327.56055 574.71094 C 348.23635 576.62836 359.8487 581.21537 370.09961 591.51367 C 373.60267 595.03293 377.36163 599.9583 378.79102 602.90039 C 381.71064 608.90977 384.74929 621.20069 385.5625 630.29297 C 385.8738 633.77343 386.45981 636.62109 386.86328 636.62109 C 387.26674 636.62109 387.88719 633.35156 388.24219 629.35547 C 389.81188 611.68616 394.64015 599.9944 404.12891 590.88281 C 421.36749 574.32948 446.13253 570.98685 503.16797 577.51367 C 539.88357 581.7152 548.91265 581.15451 558.16211 574.09961 C 562.90532 570.4818 566.05503 563.10951 566.66602 554.19531 C 567.20506 546.33089 565.82454 535.01415 563.53516 528.52539 C 562.806 526.45871 562.32067 524.66399 562.45508 524.53711 C 562.5895 524.41024 566.28516 525.5011 570.66797 526.96289 C 596.08343 535.43963 616.0012 531.26899 624.47852 515.69336 C 628.65268 508.02406 629.7404 502.40629 630.65039 483.80859 C 632.11723 453.83037 636.57981 437.20699 647.17578 422.25195 C 651.84364 415.66378 657.5343 410.47289 662.69531 408.09766 C 664.64674 407.19956 666.24414 406.2539 666.24414 405.99609 C 666.24414 405.73828 664.64674 404.79263 662.69531 403.89453 C 657.5343 401.5193 651.84364 396.33036 647.17578 389.74219 C 636.55442 374.75131 632.09033 358.09003 630.68164 328.18359 C 629.78316 309.10875 628.26514 302.14934 623.29883 294.32227 C 614.4586 280.38975 594.92239 276.94175 570.66797 285.03125 C 566.28516 286.49304 562.5895 287.5839 562.45508 287.45703 C 562.32067 287.33015 562.806 285.53543 563.53516 283.46875 C 567.43046 272.42832 567.81774 254.33027 564.32812 246.44141 C 560.01811 236.6979 550.27783 231.62109 535.89062 231.62109 C 531.82516 231.62109 517.2103 232.86335 503.41211 234.38086 C 470.89012 237.9576 458.25024 238.59321 445.51172 237.29492 C 426.02694 235.30906 414.03924 230.62724 404.16602 221.14648 C 394.5808 211.94229 389.67218 200.01468 388.24805 182.46289 C 387.88973 178.04684 387.26987 174.43359 386.86914 174.43359 z "
       id="path4148" />
  </g>
</svg>
