<?xml version="1.0" encoding="UTF-8" standalone="no"?>
<!-- Created with Inkscape (http://www.inkscape.org/) -->

<svg
   xmlns:dc="http://purl.org/dc/elements/1.1/"
   xmlns:cc="http://creativecommons.org/ns#"
   xmlns:rdf="http://www.w3.org/1999/02/22-rdf-syntax-ns#"
   xmlns:svg="http://www.w3.org/2000/svg"
   xmlns="http://www.w3.org/2000/svg"
   xmlns:sodipodi="http://sodipodi.sourceforge.net/DTD/sodipodi-0.dtd"
   xmlns:inkscape="http://www.inkscape.org/namespaces/inkscape"
   width="210mm"
   height="297mm"
   viewBox="0 0 744.09448819 1052.3622047"
   id="svg2"
   version="1.1"
   inkscape:version="0.91 r13725"
   sodipodi:docname="Batman.svg">
  <defs
     id="defs4" />
  <sodipodi:namedview
     id="base"
     pagecolor="#ffffff"
     bordercolor="#666666"
     borderopacity="1.0"
     inkscape:pageopacity="0.0"
     inkscape:pageshadow="2"
     inkscape:zoom="1.979899"
     inkscape:cx="131.74524"
     inkscape:cy="847.57459"
     inkscape:document-units="mm"
     inkscape:current-layer="layer1"
     showgrid="false"
     inkscape:window-width="1360"
     inkscape:window-height="746"
     inkscape:window-x="1432"
     inkscape:window-y="-8"
     inkscape:window-maximized="1" />
  <metadata
     id="metadata7">
    <rdf:RDF>
      <cc:Work
         rdf:about="">
        <dc:format>image/svg+xml</dc:format>
        <dc:type
           rdf:resource="http://purl.org/dc/dcmitype/StillImage" />
        <dc:title></dc:title>
      </cc:Work>
    </rdf:RDF>
  </metadata>
  <g
     inkscape:label="Layer 1"
     inkscape:groupmode="layer"
     id="layer1">
    <path
       style="fill:none;stroke:#ff0000;stroke-width:0.08577503"
       d="M 100.82812 140.42188 C 100.78812 140.42188 100.77539 140.75709 100.77539 141.72461 C 100.77479 143.8255 100.64028 145.46863 100.33008 147.13281 C 99.691874 150.55909 98.454909 152.57098 96.599609 153.20312 C 96.445409 153.25558 96.023763 153.31498 95.664062 153.33398 C 94.902462 153.37412 94.716272 153.31409 93.951172 152.79102 C 93.360372 152.38717 93.036344 152.07843 92.589844 151.49219 C 92.012144 150.73345 91.655756 149.90436 91.472656 148.89648 C 91.357556 148.25812 91.368994 146.86866 91.496094 146.15234 C 91.705694 144.97762 92.061047 143.79591 92.560547 142.61133 C 92.672847 142.34521 92.764 142.11937 92.75 142.10938 C 92.7419 142.09983 92.382472 142.23803 91.951172 142.41602 C 88.941172 143.65853 85.837466 145.58802 83.572266 147.625 C 80.030066 150.81001 78.02725 154.46309 77.59375 158.5293 C 77.49975 159.40566 77.49975 161.0044 77.59375 161.92969 C 77.81645 164.11914 78.437625 166.04764 79.515625 167.90039 C 81.215825 170.8228 84.190069 173.34794 87.667969 174.82422 C 88.034669 174.97984 88.335609 175.09824 88.349609 175.08594 C 88.358809 175.07349 88.264472 174.83043 88.138672 174.54688 C 87.637572 173.41331 87.233309 172.16093 87.037109 171.13281 C 86.879409 170.30921 86.870425 169.24653 87.015625 168.67969 C 87.144325 168.17736 87.273628 167.90774 87.548828 167.55664 C 87.860128 167.15956 88.084288 167.02159 88.679688 166.85547 C 90.671587 166.29968 92.741103 167.24182 94.408203 169.46289 C 94.614503 169.73784 94.780922 169.95336 94.794922 169.94336 C 94.801222 169.93355 94.882609 169.71956 94.974609 169.4668 C 95.337409 168.47271 95.917206 167.55261 96.441406 167.13867 C 97.611006 166.21521 98.987318 166.79036 100.48242 168.82422 C 101.48572 170.18909 102.57551 172.24932 103.63281 174.7832 C 103.84721 175.29715 104.03483 175.7168 104.04883 175.7168 C 104.06383 175.7168 104.12269 175.60025 104.17969 175.45703 C 104.23729 175.31379 104.45622 174.79531 104.66602 174.30664 C 107.61452 167.43889 110.27978 165.13686 112.23438 167.76953 C 112.56587 168.21591 112.88379 168.82674 113.11719 169.4668 C 113.20829 169.71956 113.28778 169.93692 113.30078 169.94922 C 113.30918 169.96185 113.49499 169.73393 113.71289 169.44141 C 114.76199 168.03279 116.03443 167.09785 117.30273 166.80664 C 118.24893 166.58941 119.62022 166.76358 120.16602 167.16992 C 120.97962 167.7756 121.33683 169.01847 121.14062 170.55664 C 120.99292 171.71505 120.52578 173.28696 119.95508 174.54492 C 119.82798 174.82744 119.72623 175.07038 119.74023 175.08398 C 119.76693 175.12039 120.97814 174.59727 121.58984 174.28516 C 122.78544 173.67511 123.96894 172.90085 124.99414 172.05664 C 127.85314 169.70228 129.68125 166.67566 130.31445 163.24805 C 130.70325 161.13907 130.67522 158.9202 130.23242 156.83008 C 129.98452 155.66008 129.43773 154.17627 128.82812 153.01562 C 126.86533 149.27877 123.18434 145.91892 118.33594 143.43945 C 117.16684 142.84161 115.33594 142.03639 115.33594 142.12109 C 115.33594 142.13826 115.40328 142.30828 115.48828 142.49805 C 115.71548 143.01106 116.11524 144.12452 116.27344 144.68164 C 116.81774 146.59586 116.85787 148.37915 116.38867 149.83008 C 115.91777 151.28645 114.74712 152.61436 113.39062 153.22852 C 113.10793 153.35645 113.02613 153.36408 112.42773 153.33398 C 111.15003 153.2698 110.27338 152.7588 109.42188 151.58008 C 108.54118 150.36078 107.8698 148.30065 107.5625 145.87695 C 107.4073 144.65644 107.35508 143.82983 107.33008 142.1543 C 107.31508 141.20224 107.28663 140.42188 107.26562 140.42188 C 107.24432 140.42188 107.14873 140.52043 107.05273 140.63867 C 106.71043 141.06174 106.19358 142.22309 105.70508 143.66992 C 105.57408 144.05749 105.44302 144.39522 105.41602 144.41992 C 105.38852 144.44472 104.77182 144.46484 104.04492 144.46484 C 103.31812 144.46484 102.70083 144.44462 102.67383 144.41992 C 102.64673 144.39516 102.53935 144.11313 102.43555 143.79297 C 102.18755 143.03085 101.79822 142.03027 101.54102 141.49414 C 101.31812 141.02946 100.91412 140.42188 100.82812 140.42188 z "
       id="path4144" />
    <path
       style="fill:none;stroke:#ff0000;stroke-width:0.19375587"
       d="M 117.95508 183.5957 C 117.92072 183.63007 117.75757 185.39724 117.59375 187.52148 C 117.1968 192.66894 116.56718 196.9043 116.19922 196.9043 C 116.13276 196.9043 115.72273 196.69797 115.28711 196.44531 C 114.01339 195.70657 111.02602 194.58475 109.50586 194.27344 C 107.52851 193.86852 101.76403 193.70197 99.160156 193.97461 C 96.428617 194.26062 94.691658 194.74936 92.15625 195.94531 C 91.034397 196.47448 90.081986 196.87498 90.041016 196.83398 C 89.800266 196.59323 89.181443 191.94264 88.902344 188.2832 C 88.723536 185.93875 88.510998 183.94752 88.429688 183.85742 C 88.273737 183.68459 86.869084 186.13251 86.007812 188.08008 C 85.107799 190.11526 83.599203 194.92454 83.283203 196.76562 C 82.853489 199.26924 82.671336 214.90216 82.998047 221.26953 C 83.254026 226.25838 83.524206 228.06543 84.791016 233.27734 C 85.237141 235.11279 85.633462 236.58533 85.669922 236.54883 C 85.706387 236.51236 85.901524 234.87875 86.103516 232.91992 C 86.473402 229.33295 87.018033 225.68102 87.248047 225.25195 C 87.333749 225.09208 89.680557 226.03904 94.818359 228.30469 C 101.11366 231.08077 102.40934 231.58789 103.20508 231.58789 C 104.00118 231.58789 105.2978 231.07807 111.62305 228.28711 C 115.73578 226.47241 119.12394 225.01327 119.15234 225.04297 C 119.31268 225.21066 120.03715 230.23423 120.32812 233.19531 C 120.51454 235.09247 120.72823 236.53141 120.80273 236.39258 C 121.00849 236.00935 122.32374 230.40251 122.74609 228.10547 C 123.80867 222.32642 123.98231 200.93755 123.00586 196.18555 C 122.64665 194.43737 121.67613 191.34892 120.71484 188.90039 C 120.08254 187.28979 118.09041 183.46038 117.95508 183.5957 z M 117.83594 212.47656 C 118.00139 212.46241 118.07815 212.51792 118.17188 212.5957 C 118.60429 212.95459 118.5564 215.17545 118.08398 216.69727 C 117.02846 220.09747 114.74051 221.91497 110.8125 222.47461 C 108.29213 222.8337 107.24865 222.64545 106.18945 221.64648 C 105.37492 220.87829 105.08907 219.76011 105.51172 219.00391 C 105.71158 218.64632 107.24335 217.75411 111.01562 215.79688 C 116.03579 213.19218 117.33959 212.51903 117.83594 212.47656 z M 88.667969 212.48242 C 88.738775 212.484 88.813033 212.49591 88.890625 212.51953 C 89.685026 212.76134 100.15962 218.26309 100.61133 218.67578 C 100.99814 219.02917 101.05312 219.22903 100.97852 220.01758 C 100.87618 221.09981 100.34958 221.77225 99.1875 222.30859 C 97.742753 222.97538 93.92037 222.4845 91.871094 221.36914 C 89.564825 220.11392 87.853516 216.90787 87.853516 213.8457 C 87.853516 212.98564 88.172328 212.47135 88.667969 212.48242 z "
       id="path4157" />
  </g>
</svg>
