  0
SECTION
  2
HEADER
  9
$ACADVER
  1
AC1014
  9
$HANDSEED
  5
FFFF
  9
$MEASUREMENT
 70
     1
  0
ENDSEC
  0
SECTION
  2
TABLES
  0
TABLE
  2
VPORT
  5
8
330
0
100
AcDbSymbolTable
 70
     4
  0
VPORT
  5
2E
330
8
100
AcDbSymbolTableRecord
100
AcDbViewportTableRecord
  2
*ACTIVE
 70
     0
 10
0.0
 20
0.0
 11
1.0
 21
1.0
 12
210.0
 22
148.5
 13
0.0
 23
0.0
 14
10.0
 24
10.0
 15
10.0
 25
10.0
 16
0.0
 26
0.0
 36
1.0
 17
0.0
 27
0.0
 37
0.0
 40
341.0
 41
1.24
 42
50.0
 43
0.0
 44
0.0
 50
0.0
 51
0.0
 71
     0
 72
   100
 73
     1
 74
     3
 75
     0
 76
     0
 77
     0
 78
     0
  0
ENDTAB
  0
TABLE
  2
LTYPE
  5
5
330
0
100
AcDbSymbolTable
 70
     1
  0
LTYPE
  5
14
330
5
100
AcDbSymbolTableRecord
100
AcDbLinetypeTableRecord
  2
BYBLOCK
 70
     0
  3

 72
    65
 73
     0
 40
0.0
  0
LTYPE
  5
15
330
5
100
AcDbSymbolTableRecord
100
AcDbLinetypeTableRecord
  2
BYLAYER
 70
     0
  3

 72
    65
 73
     0
 40
0.0
  0
LTYPE
  5
16
330
5
100
AcDbSymbolTableRecord
100
AcDbLinetypeTableRecord
  2
CONTINUOUS
 70
     0
  3
Solid line
 72
    65
 73
     0
 40
0.0
  0
ENDTAB
  0
TABLE
  2
LAYER
  5
2
100
AcDbSymbolTable
 70
2
  0
LAYER
  5
50
100
AcDbSymbolTableRecord
100
AcDbLayerTableRecord
  2
0
 70
0
  6
CONTINUOUS
  0
LAYER
  5
51
100
AcDbSymbolTableRecord
100
AcDbLayerTableRecord
  2
Layer_1
 70
0
  6
CONTINUOUS
  0
ENDTAB
  0
TABLE
  2
STYLE
  5
3
330
0
100
AcDbSymbolTable
 70
     1
  0
STYLE
  5
11
330
3
100
AcDbSymbolTableRecord
100
AcDbTextStyleTableRecord
  2
STANDARD
 70
     0
 40
0.0
 41
1.0
 50
0.0
 71
     0
 42
2.5
  3
txt
  4

  0
ENDTAB
  0
TABLE
  2
VIEW
  5
6
330
0
100
AcDbSymbolTable
 70
     0
  0
ENDTAB
  0
TABLE
  2
UCS
  5
7
330
0
100
AcDbSymbolTable
 70
     0
  0
ENDTAB
  0
TABLE
  2
APPID
  5
9
330
0
100
AcDbSymbolTable
 70
     2
  0
APPID
  5
12
330
9
100
AcDbSymbolTableRecord
100
AcDbRegAppTableRecord
  2
ACAD
 70
     0
  0
ENDTAB
  0
TABLE
  2
DIMSTYLE
  5
A
330
0
100
AcDbSymbolTable
 70
     1
  0
DIMSTYLE
105
27
330
A
100
AcDbSymbolTableRecord
100
AcDbDimStyleTableRecord
  2
ISO-25
 70
     0
  3

  4

  5

  6

  7

 40
1.0
 41
2.5
 42
0.625
 43
3.75
 44
1.25
 45
0.0
 46
0.0
 47
0.0
 48
0.0
140
2.5
141
2.5
142
0.0
143
0.03937007874016
144
1.0
145
0.0
146
1.0
147
0.625
 71
     0
 72
     0
 73
     0
 74
     0
 75
     0
 76
     0
 77
     1
 78
     8
170
     0
171
     3
172
     1
173
     0
174
     0
175
     0
176
     0
177
     0
178
     0
270
     2
271
     2
272
     2
273
     2
274
     3
340
11
275
     0
280
     0
281
     0
282
     0
283
     0
284
     8
285
     0
286
     0
287
     3
288
     0
  0
ENDTAB
  0
TABLE
  2
BLOCK_RECORD
  5
1
330
0
100
AcDbSymbolTable
 70
     1
  0
BLOCK_RECORD
  5
1F
330
1
100
AcDbSymbolTableRecord
100
AcDbBlockTableRecord
  2
*MODEL_SPACE
  0
BLOCK_RECORD
  5
1B
330
1
100
AcDbSymbolTableRecord
100
AcDbBlockTableRecord
  2
*PAPER_SPACE
  0
ENDTAB
  0
ENDSEC
  0
SECTION
  2
BLOCKS
  0
BLOCK
  5
20
330
1F
100
AcDbEntity
  8
0
100
AcDbBlockBegin
  2
*MODEL_SPACE
 70
     0
 10
0.0
 20
0.0
 30
0.0
  3
*MODEL_SPACE
  1

  0
ENDBLK
  5
21
330
1F
100
AcDbEntity
  8
0
100
AcDbBlockEnd
  0
BLOCK
  5
1C
330
1B
100
AcDbEntity
 67
     1
  8
0
100
AcDbBlockBegin
  2
*PAPER_SPACE
  1

  0
ENDBLK
  5
1D
330
1B
100
AcDbEntity
 67
     1
  8
0
100
AcDbBlockEnd
  0
ENDSEC
  0
SECTION
  2
ENTITIES
  0
SPLINE
  5
100
100
AcDbEntity
  8
Layer_1
 62
1
100
AcDbSpline
 70
8
 71
3
 72
8
 73
4
 74
0
 40
0
 40
0
 40
0
 40
0
 40
1
 40
1
 40
1
 40
1
 10
28.455936
 20
257.158158
 30
0.0
 10
28.417040
 20
257.154715
 30
0.0
 10
28.441063
 20
257.063555
 30
0.0
 10
28.441063
 20
256.790499
 30
0.0
  0
SPLINE
  5
101
100
AcDbEntity
  8
Layer_1
 62
1
100
AcDbSpline
 70
8
 71
3
 72
8
 73
4
 74
0
 40
0
 40
0
 40
0
 40
0
 40
1
 40
1
 40
1
 40
1
 10
28.441063
 20
256.790499
 30
0.0
 10
28.440894
 20
256.197581
 30
0.0
 10
28.402932
 20
255.945520
 30
0.0
 10
28.315387
 20
255.475851
 30
0.0
  0
SPLINE
  5
102
100
AcDbEntity
  8
Layer_1
 62
1
100
AcDbSpline
 70
8
 71
3
 72
8
 73
4
 74
0
 40
0
 40
0
 40
0
 40
0
 40
1
 40
1
 40
1
 40
1
 10
28.315387
 20
255.475851
 30
0.0
 10
28.135271
 20
254.508879
 30
0.0
 10
27.786172
 20
253.941079
 30
0.0
 10
27.262565
 20
253.762675
 30
0.0
  0
SPLINE
  5
103
100
AcDbEntity
  8
Layer_1
 62
1
100
AcDbSpline
 70
8
 71
3
 72
8
 73
4
 74
0
 40
0
 40
0
 40
0
 40
0
 40
1
 40
1
 40
1
 40
1
 10
27.262565
 20
253.762675
 30
0.0
 10
27.219046
 20
253.747858
 30
0.0
 10
27.100048
 20
253.731106
 30
0.0
 10
26.998533
 20
253.725743
 30
0.0
  0
SPLINE
  5
104
100
AcDbEntity
  8
Layer_1
 62
1
100
AcDbSpline
 70
8
 71
3
 72
8
 73
4
 74
0
 40
0
 40
0
 40
0
 40
0
 40
1
 40
1
 40
1
 40
1
 10
26.998533
 20
253.725743
 30
0.0
 10
26.783592
 20
253.714426
 30
0.0
 10
26.731045
 20
253.731360
 30
0.0
 10
26.515117
 20
253.878979
 30
0.0
  0
SPLINE
  5
105
100
AcDbEntity
  8
Layer_1
 62
1
100
AcDbSpline
 70
8
 71
3
 72
8
 73
4
 74
0
 40
0
 40
0
 40
0
 40
0
 40
1
 40
1
 40
1
 40
1
 10
26.515117
 20
253.878979
 30
0.0
 10
26.348380
 20
253.992954
 30
0.0
 10
26.256932
 20
254.080088
 30
0.0
 10
26.130920
 20
254.245537
 30
0.0
  0
SPLINE
  5
106
100
AcDbEntity
  8
Layer_1
 62
1
100
AcDbSpline
 70
8
 71
3
 72
8
 73
4
 74
0
 40
0
 40
0
 40
0
 40
0
 40
1
 40
1
 40
1
 40
1
 10
26.130920
 20
254.245537
 30
0.0
 10
25.967880
 20
254.459671
 30
0.0
 10
25.867300
 20
254.693658
 30
0.0
 10
25.815625
 20
254.978105
 30
0.0
  0
SPLINE
  5
107
100
AcDbEntity
  8
Layer_1
 62
1
100
AcDbSpline
 70
8
 71
3
 72
8
 73
4
 74
0
 40
0
 40
0
 40
0
 40
0
 40
1
 40
1
 40
1
 40
1
 10
25.815625
 20
254.978105
 30
0.0
 10
25.783141
 20
255.158264
 30
0.0
 10
25.786369
 20
255.550400
 30
0.0
 10
25.822240
 20
255.752562
 30
0.0
  0
SPLINE
  5
108
100
AcDbEntity
  8
Layer_1
 62
1
100
AcDbSpline
 70
8
 71
3
 72
8
 73
4
 74
0
 40
0
 40
0
 40
0
 40
0
 40
1
 40
1
 40
1
 40
1
 10
25.822240
 20
255.752562
 30
0.0
 10
25.881394
 20
256.084094
 30
0.0
 10
25.981682
 20
256.417599
 30
0.0
 10
26.122652
 20
256.751914
 30
0.0
  0
SPLINE
  5
109
100
AcDbEntity
  8
Layer_1
 62
1
100
AcDbSpline
 70
8
 71
3
 72
8
 73
4
 74
0
 40
0
 40
0
 40
0
 40
0
 40
1
 40
1
 40
1
 40
1
 10
26.122652
 20
256.751914
 30
0.0
 10
26.154346
 20
256.827019
 30
0.0
 10
26.180071
 20
256.890756
 30
0.0
 10
26.176120
 20
256.893575
 30
0.0
  0
SPLINE
  5
10a
100
AcDbEntity
  8
Layer_1
 62
1
100
AcDbSpline
 70
8
 71
3
 72
8
 73
4
 74
0
 40
0
 40
0
 40
0
 40
0
 40
1
 40
1
 40
1
 40
1
 10
26.176120
 20
256.893575
 30
0.0
 10
26.173834
 20
256.896397
 30
0.0
 10
26.072396
 20
256.857267
 30
0.0
 10
25.950673
 20
256.807034
 30
0.0
  0
SPLINE
  5
10b
100
AcDbEntity
  8
Layer_1
 62
1
100
AcDbSpline
 70
8
 71
3
 72
8
 73
4
 74
0
 40
0
 40
0
 40
0
 40
0
 40
1
 40
1
 40
1
 40
1
 10
25.950673
 20
256.807034
 30
0.0
 10
25.101184
 20
256.456370
 30
0.0
 10
24.225249
 20
255.911825
 30
0.0
 10
23.585960
 20
255.336944
 30
0.0
  0
SPLINE
  5
10c
100
AcDbEntity
  8
Layer_1
 62
1
100
AcDbSpline
 70
8
 71
3
 72
8
 73
4
 74
0
 40
0
 40
0
 40
0
 40
0
 40
1
 40
1
 40
1
 40
1
 10
23.585960
 20
255.336944
 30
0.0
 10
22.586272
 20
254.438064
 30
0.0
 10
22.021033
 20
253.407083
 30
0.0
 10
21.898690
 20
252.259509
 30
0.0
  0
SPLINE
  5
10d
100
AcDbEntity
  8
Layer_1
 62
1
100
AcDbSpline
 70
8
 71
3
 72
8
 73
4
 74
0
 40
0
 40
0
 40
0
 40
0
 40
1
 40
1
 40
1
 40
1
 10
21.898690
 20
252.259509
 30
0.0
 10
21.872161
 20
252.012180
 30
0.0
 10
21.872161
 20
251.560980
 30
0.0
 10
21.898690
 20
251.299843
 30
0.0
  0
SPLINE
  5
10e
100
AcDbEntity
  8
Layer_1
 62
1
100
AcDbSpline
 70
8
 71
3
 72
8
 73
4
 74
0
 40
0
 40
0
 40
0
 40
0
 40
1
 40
1
 40
1
 40
1
 10
21.898690
 20
251.299843
 30
0.0
 10
21.961540
 20
250.681932
 30
0.0
 10
22.136850
 20
250.137666
 30
0.0
 10
22.441085
 20
249.614779
 30
0.0
  0
SPLINE
  5
10f
100
AcDbEntity
  8
Layer_1
 62
1
100
AcDbSpline
 70
8
 71
3
 72
8
 73
4
 74
0
 40
0
 40
0
 40
0
 40
0
 40
1
 40
1
 40
1
 40
1
 10
22.441085
 20
249.614779
 30
0.0
 10
22.920920
 20
248.790010
 30
0.0
 10
23.760317
 20
248.077359
 30
0.0
 10
24.741858
 20
247.660720
 30
0.0
  0
SPLINE
  5
110
100
AcDbEntity
  8
Layer_1
 62
1
100
AcDbSpline
 70
8
 71
3
 72
8
 73
4
 74
0
 40
0
 40
0
 40
0
 40
0
 40
1
 40
1
 40
1
 40
1
 10
24.741858
 20
247.660720
 30
0.0
 10
24.845349
 20
247.616801
 30
0.0
 10
24.930281
 20
247.583386
 30
0.0
 10
24.934232
 20
247.586857
 30
0.0
  0
SPLINE
  5
111
100
AcDbEntity
  8
Layer_1
 62
1
100
AcDbSpline
 70
8
 71
3
 72
8
 73
4
 74
0
 40
0
 40
0
 40
0
 40
0
 40
1
 40
1
 40
1
 40
1
 10
24.934232
 20
247.586857
 30
0.0
 10
24.936828
 20
247.590385
 30
0.0
 10
24.910204
 20
247.658968
 30
0.0
 10
24.874701
 20
247.738992
 30
0.0
  0
SPLINE
  5
112
100
AcDbEntity
  8
Layer_1
 62
1
100
AcDbSpline
 70
8
 71
3
 72
8
 73
4
 74
0
 40
0
 40
0
 40
0
 40
0
 40
1
 40
1
 40
1
 40
1
 10
24.874701
 20
247.738992
 30
0.0
 10
24.733279
 20
248.058910
 30
0.0
 10
24.619187
 20
248.412360
 30
0.0
 10
24.563815
 20
248.702518
 30
0.0
  0
SPLINE
  5
113
100
AcDbEntity
  8
Layer_1
 62
1
100
AcDbSpline
 70
8
 71
3
 72
8
 73
4
 74
0
 40
0
 40
0
 40
0
 40
0
 40
1
 40
1
 40
1
 40
1
 10
24.563815
 20
248.702518
 30
0.0
 10
24.519309
 20
248.934956
 30
0.0
 10
24.516773
 20
249.234868
 30
0.0
 10
24.557753
 20
249.394843
 30
0.0
  0
SPLINE
  5
114
100
AcDbEntity
  8
Layer_1
 62
1
100
AcDbSpline
 70
8
 71
3
 72
8
 73
4
 74
0
 40
0
 40
0
 40
0
 40
0
 40
1
 40
1
 40
1
 40
1
 10
24.557753
 20
249.394843
 30
0.0
 10
24.594075
 20
249.536612
 30
0.0
 10
24.630567
 20
249.612704
 30
0.0
 10
24.708235
 20
249.711793
 30
0.0
  0
SPLINE
  5
115
100
AcDbEntity
  8
Layer_1
 62
1
100
AcDbSpline
 70
8
 71
3
 72
8
 73
4
 74
0
 40
0
 40
0
 40
0
 40
0
 40
1
 40
1
 40
1
 40
1
 10
24.708235
 20
249.711793
 30
0.0
 10
24.796091
 20
249.823858
 30
0.0
 10
24.859354
 20
249.862796
 30
0.0
 10
25.027389
 20
249.909678
 30
0.0
  0
SPLINE
  5
116
100
AcDbEntity
  8
Layer_1
 62
1
100
AcDbSpline
 70
8
 71
3
 72
8
 73
4
 74
0
 40
0
 40
0
 40
0
 40
0
 40
1
 40
1
 40
1
 40
1
 10
25.027389
 20
249.909678
 30
0.0
 10
25.589547
 20
250.066535
 30
0.0
 10
26.173610
 20
249.800642
 30
0.0
 10
26.644103
 20
249.173807
 30
0.0
  0
SPLINE
  5
117
100
AcDbEntity
  8
Layer_1
 62
1
100
AcDbSpline
 70
8
 71
3
 72
8
 73
4
 74
0
 40
0
 40
0
 40
0
 40
0
 40
1
 40
1
 40
1
 40
1
 10
26.644103
 20
249.173807
 30
0.0
 10
26.702325
 20
249.096210
 30
0.0
 10
26.749293
 20
249.035385
 30
0.0
 10
26.753244
 20
249.038207
 30
0.0
  0
SPLINE
  5
118
100
AcDbEntity
  8
Layer_1
 62
1
100
AcDbSpline
 70
8
 71
3
 72
8
 73
4
 74
0
 40
0
 40
0
 40
0
 40
0
 40
1
 40
1
 40
1
 40
1
 10
26.753244
 20
249.038207
 30
0.0
 10
26.755022
 20
249.041030
 30
0.0
 10
26.777992
 20
249.101369
 30
0.0
 10
26.803955
 20
249.172703
 30
0.0
  0
SPLINE
  5
119
100
AcDbEntity
  8
Layer_1
 62
1
100
AcDbSpline
 70
8
 71
3
 72
8
 73
4
 74
0
 40
0
 40
0
 40
0
 40
0
 40
1
 40
1
 40
1
 40
1
 10
26.803955
 20
249.172703
 30
0.0
 10
26.906346
 20
249.453257
 30
0.0
 10
27.069977
 20
249.712930
 30
0.0
 10
27.217918
 20
249.829753
 30
0.0
  0
SPLINE
  5
11a
100
AcDbEntity
  8
Layer_1
 62
1
100
AcDbSpline
 70
8
 71
3
 72
8
 73
4
 74
0
 40
0
 40
0
 40
0
 40
0
 40
1
 40
1
 40
1
 40
1
 10
27.217918
 20
249.829753
 30
0.0
 10
27.548005
 20
250.090374
 30
0.0
 10
27.936431
 20
249.928054
 30
0.0
 10
28.358383
 20
249.354053
 30
0.0
  0
SPLINE
  5
11b
100
AcDbEntity
  8
Layer_1
 62
1
100
AcDbSpline
 70
8
 71
3
 72
8
 73
4
 74
0
 40
0
 40
0
 40
0
 40
0
 40
1
 40
1
 40
1
 40
1
 10
28.358383
 20
249.354053
 30
0.0
 10
28.641537
 20
248.968857
 30
0.0
 10
28.949100
 20
248.387414
 30
0.0
 10
29.247493
 20
247.672297
 30
0.0
  0
SPLINE
  5
11c
100
AcDbEntity
  8
Layer_1
 62
1
100
AcDbSpline
 70
8
 71
3
 72
8
 73
4
 74
0
 40
0
 40
0
 40
0
 40
0
 40
1
 40
1
 40
1
 40
1
 10
29.247493
 20
247.672297
 30
0.0
 10
29.308002
 20
247.527249
 30
0.0
 10
29.360952
 20
247.408814
 30
0.0
 10
29.364903
 20
247.408814
 30
0.0
  0
SPLINE
  5
11d
100
AcDbEntity
  8
Layer_1
 62
1
100
AcDbSpline
 70
8
 71
3
 72
8
 73
4
 74
0
 40
0
 40
0
 40
0
 40
0
 40
1
 40
1
 40
1
 40
1
 10
29.364903
 20
247.408814
 30
0.0
 10
29.369137
 20
247.408814
 30
0.0
 10
29.385760
 20
247.441707
 30
0.0
 10
29.401835
 20
247.482127
 30
0.0
  0
SPLINE
  5
11e
100
AcDbEntity
  8
Layer_1
 62
1
100
AcDbSpline
 70
8
 71
3
 72
8
 73
4
 74
0
 40
0
 40
0
 40
0
 40
0
 40
1
 40
1
 40
1
 40
1
 10
29.401835
 20
247.482127
 30
0.0
 10
29.418091
 20
247.522553
 30
0.0
 10
29.479878
 20
247.668879
 30
0.0
 10
29.539088
 20
247.806793
 30
0.0
  0
SPLINE
  5
11f
100
AcDbEntity
  8
Layer_1
 62
1
100
AcDbSpline
 70
8
 71
3
 72
8
 73
4
 74
0
 40
0
 40
0
 40
0
 40
0
 40
1
 40
1
 40
1
 40
1
 10
29.539088
 20
247.806793
 30
0.0
 10
30.371220
 20
249.745024
 30
0.0
 10
31.123416
 20
250.394708
 30
0.0
 10
31.675047
 20
249.651710
 30
0.0
  0
SPLINE
  5
120
100
AcDbEntity
  8
Layer_1
 62
1
100
AcDbSpline
 70
8
 71
3
 72
8
 73
4
 74
0
 40
0
 40
0
 40
0
 40
0
 40
1
 40
1
 40
1
 40
1
 10
31.675047
 20
249.651710
 30
0.0
 10
31.768601
 20
249.525732
 30
0.0
 10
31.858325
 20
249.353342
 30
0.0
 10
31.924196
 20
249.172703
 30
0.0
  0
SPLINE
  5
121
100
AcDbEntity
  8
Layer_1
 62
1
100
AcDbSpline
 70
8
 71
3
 72
8
 73
4
 74
0
 40
0
 40
0
 40
0
 40
0
 40
1
 40
1
 40
1
 40
1
 10
31.924196
 20
249.172703
 30
0.0
 10
31.949906
 20
249.101369
 30
0.0
 10
31.972340
 20
249.040025
 30
0.0
 10
31.976009
 20
249.036553
 30
0.0
  0
SPLINE
  5
122
100
AcDbEntity
  8
Layer_1
 62
1
100
AcDbSpline
 70
8
 71
3
 72
8
 73
4
 74
0
 40
0
 40
0
 40
0
 40
0
 40
1
 40
1
 40
1
 40
1
 10
31.976009
 20
249.036553
 30
0.0
 10
31.978267
 20
249.032997
 30
0.0
 10
32.030820
 20
249.097313
 30
0.0
 10
32.092316
 20
249.179869
 30
0.0
  0
SPLINE
  5
123
100
AcDbEntity
  8
Layer_1
 62
1
100
AcDbSpline
 70
8
 71
3
 72
8
 73
4
 74
0
 40
0
 40
0
 40
0
 40
0
 40
1
 40
1
 40
1
 40
1
 10
32.092316
 20
249.179869
 30
0.0
 10
32.388395
 20
249.577413
 30
0.0
 10
32.747506
 20
249.841273
 30
0.0
 10
33.105448
 20
249.923459
 30
0.0
  0
SPLINE
  5
124
100
AcDbEntity
  8
Layer_1
 62
1
100
AcDbSpline
 70
8
 71
3
 72
8
 73
4
 74
0
 40
0
 40
0
 40
0
 40
0
 40
1
 40
1
 40
1
 40
1
 10
33.105448
 20
249.923459
 30
0.0
 10
33.372487
 20
249.984767
 30
0.0
 10
33.759496
 20
249.935623
 30
0.0
 10
33.913532
 20
249.820934
 30
0.0
  0
SPLINE
  5
125
100
AcDbEntity
  8
Layer_1
 62
1
100
AcDbSpline
 70
8
 71
3
 72
8
 73
4
 74
0
 40
0
 40
0
 40
0
 40
0
 40
1
 40
1
 40
1
 40
1
 10
33.913532
 20
249.820934
 30
0.0
 10
34.143148
 20
249.649997
 30
0.0
 10
34.243961
 20
249.299232
 30
0.0
 10
34.188586
 20
248.865126
 30
0.0
  0
SPLINE
  5
126
100
AcDbEntity
  8
Layer_1
 62
1
100
AcDbSpline
 70
8
 71
3
 72
8
 73
4
 74
0
 40
0
 40
0
 40
0
 40
0
 40
1
 40
1
 40
1
 40
1
 10
34.188586
 20
248.865126
 30
0.0
 10
34.146902
 20
248.538197
 30
0.0
 10
34.015065
 20
248.094569
 30
0.0
 10
33.854001
 20
247.739545
 30
0.0
  0
SPLINE
  5
127
100
AcDbEntity
  8
Layer_1
 62
1
100
AcDbSpline
 70
8
 71
3
 72
8
 73
4
 74
0
 40
0
 40
0
 40
0
 40
0
 40
1
 40
1
 40
1
 40
1
 10
33.854001
 20
247.739545
 30
0.0
 10
33.818130
 20
247.659811
 30
0.0
 10
33.789414
 20
247.591248
 30
0.0
 10
33.793365
 20
247.587410
 30
0.0
  0
SPLINE
  5
128
100
AcDbEntity
  8
Layer_1
 62
1
100
AcDbSpline
 70
8
 71
3
 72
8
 73
4
 74
0
 40
0
 40
0
 40
0
 40
0
 40
1
 40
1
 40
1
 40
1
 10
33.793365
 20
247.587410
 30
0.0
 10
33.800900
 20
247.577137
 30
0.0
 10
34.142731
 20
247.724770
 30
0.0
 10
34.315366
 20
247.812855
 30
0.0
  0
SPLINE
  5
129
100
AcDbEntity
  8
Layer_1
 62
1
100
AcDbSpline
 70
8
 71
3
 72
8
 73
4
 74
0
 40
0
 40
0
 40
0
 40
0
 40
1
 40
1
 40
1
 40
1
 10
34.315366
 20
247.812855
 30
0.0
 10
34.652791
 20
247.985025
 30
0.0
 10
34.986801
 20
248.203538
 30
0.0
 10
35.276135
 20
248.441793
 30
0.0
  0
SPLINE
  5
12a
100
AcDbEntity
  8
Layer_1
 62
1
100
AcDbSpline
 70
8
 71
3
 72
8
 73
4
 74
0
 40
0
 40
0
 40
0
 40
0
 40
1
 40
1
 40
1
 40
1
 10
35.276135
 20
248.441793
 30
0.0
 10
36.083009
 20
249.106245
 30
0.0
 10
36.598942
 20
249.960425
 30
0.0
 10
36.777645
 20
250.927773
 30
0.0
  0
SPLINE
  5
12b
100
AcDbEntity
  8
Layer_1
 62
1
100
AcDbSpline
 70
8
 71
3
 72
8
 73
4
 74
0
 40
0
 40
0
 40
0
 40
0
 40
1
 40
1
 40
1
 40
1
 10
36.777645
 20
250.927773
 30
0.0
 10
36.887373
 20
251.522974
 30
0.0
 10
36.879462
 20
252.149188
 30
0.0
 10
36.754503
 20
252.739066
 30
0.0
  0
SPLINE
  5
12c
100
AcDbEntity
  8
Layer_1
 62
1
100
AcDbSpline
 70
8
 71
3
 72
8
 73
4
 74
0
 40
0
 40
0
 40
0
 40
0
 40
1
 40
1
 40
1
 40
1
 10
36.754503
 20
252.739066
 30
0.0
 10
36.684540
 20
253.069266
 30
0.0
 10
36.530224
 20
253.488030
 30
0.0
 10
36.358178
 20
253.815592
 30
0.0
  0
SPLINE
  5
12d
100
AcDbEntity
  8
Layer_1
 62
1
100
AcDbSpline
 70
8
 71
3
 72
8
 73
4
 74
0
 40
0
 40
0
 40
0
 40
0
 40
1
 40
1
 40
1
 40
1
 10
36.358178
 20
253.815592
 30
0.0
 10
35.804235
 20
254.870214
 30
0.0
 10
34.765378
 20
255.818438
 30
0.0
 10
33.397052
 20
256.518200
 30
0.0
  0
SPLINE
  5
12e
100
AcDbEntity
  8
Layer_1
 62
1
100
AcDbSpline
 70
8
 71
3
 72
8
 73
4
 74
0
 40
0
 40
0
 40
0
 40
0
 40
1
 40
1
 40
1
 40
1
 10
33.397052
 20
256.518200
 30
0.0
 10
33.067106
 20
256.686923
 30
0.0
 10
32.550385
 20
256.914174
 30
0.0
 10
32.550385
 20
256.890270
 30
0.0
  0
SPLINE
  5
12f
100
AcDbEntity
  8
Layer_1
 62
1
100
AcDbSpline
 70
8
 71
3
 72
8
 73
4
 74
0
 40
0
 40
0
 40
0
 40
0
 40
1
 40
1
 40
1
 40
1
 10
32.550385
 20
256.890270
 30
0.0
 10
32.550385
 20
256.885416
 30
0.0
 10
32.569379
 20
256.837441
 30
0.0
 10
32.593379
 20
256.783884
 30
0.0
  0
SPLINE
  5
130
100
AcDbEntity
  8
Layer_1
 62
1
100
AcDbSpline
 70
8
 71
3
 72
8
 73
4
 74
0
 40
0
 40
0
 40
0
 40
0
 40
1
 40
1
 40
1
 40
1
 10
32.593379
 20
256.783884
 30
0.0
 10
32.657500
 20
256.639101
 30
0.0
 10
32.770321
 20
256.324858
 30
0.0
 10
32.814968
 20
256.167626
 30
0.0
  0
SPLINE
  5
131
100
AcDbEntity
  8
Layer_1
 62
1
100
AcDbSpline
 70
8
 71
3
 72
8
 73
4
 74
0
 40
0
 40
0
 40
0
 40
0
 40
1
 40
1
 40
1
 40
1
 10
32.814968
 20
256.167626
 30
0.0
 10
32.968582
 20
255.627391
 30
0.0
 10
32.979908
 20
255.124107
 30
0.0
 10
32.847489
 20
254.714622
 30
0.0
  0
SPLINE
  5
132
100
AcDbEntity
  8
Layer_1
 62
1
100
AcDbSpline
 70
8
 71
3
 72
8
 73
4
 74
0
 40
0
 40
0
 40
0
 40
0
 40
1
 40
1
 40
1
 40
1
 10
32.847489
 20
254.714622
 30
0.0
 10
32.714590
 20
254.303602
 30
0.0
 10
32.384207
 20
253.928836
 30
0.0
 10
32.001373
 20
253.755507
 30
0.0
  0
SPLINE
  5
133
100
AcDbEntity
  8
Layer_1
 62
1
100
AcDbSpline
 70
8
 71
3
 72
8
 73
4
 74
0
 40
0
 40
0
 40
0
 40
0
 40
1
 40
1
 40
1
 40
1
 10
32.001373
 20
253.755507
 30
0.0
 10
31.921591
 20
253.719402
 30
0.0
 10
31.898505
 20
253.717249
 30
0.0
 10
31.729624
 20
253.725743
 30
0.0
  0
SPLINE
  5
134
100
AcDbEntity
  8
Layer_1
 62
1
100
AcDbSpline
 70
8
 71
3
 72
8
 73
4
 74
0
 40
0
 40
0
 40
0
 40
0
 40
1
 40
1
 40
1
 40
1
 10
31.729624
 20
253.725743
 30
0.0
 10
31.369028
 20
253.743862
 30
0.0
 10
31.121618
 20
253.888072
 30
0.0
 10
30.881306
 20
254.220733
 30
0.0
  0
SPLINE
  5
135
100
AcDbEntity
  8
Layer_1
 62
1
100
AcDbSpline
 70
8
 71
3
 72
8
 73
4
 74
0
 40
0
 40
0
 40
0
 40
0
 40
1
 40
1
 40
1
 40
1
 10
30.881306
 20
254.220733
 30
0.0
 10
30.632753
 20
254.564847
 30
0.0
 10
30.443274
 20
255.146261
 30
0.0
 10
30.356548
 20
255.830283
 30
0.0
  0
SPLINE
  5
136
100
AcDbEntity
  8
Layer_1
 62
1
100
AcDbSpline
 70
8
 71
3
 72
8
 73
4
 74
0
 40
0
 40
0
 40
0
 40
0
 40
1
 40
1
 40
1
 40
1
 10
30.356548
 20
255.830283
 30
0.0
 10
30.312747
 20
256.174738
 30
0.0
 10
30.298009
 20
256.196359
 30
0.0
 10
30.290953
 20
256.669231
 30
0.0
  0
SPLINE
  5
137
100
AcDbEntity
  8
Layer_1
 62
1
100
AcDbSpline
 70
8
 71
3
 72
8
 73
4
 74
0
 40
0
 40
0
 40
0
 40
0
 40
1
 40
1
 40
1
 40
1
 10
30.290953
 20
256.669231
 30
0.0
 10
30.286720
 20
256.937923
 30
0.0
 10
30.299194
 20
257.139882
 30
0.0
 10
30.272750
 20
257.158158
 30
0.0
  0
SPLINE
  5
138
100
AcDbEntity
  8
Layer_1
 62
1
100
AcDbSpline
 70
8
 71
3
 72
8
 73
4
 74
0
 40
0
 40
0
 40
0
 40
0
 40
1
 40
1
 40
1
 40
1
 10
30.272750
 20
257.158158
 30
0.0
 10
30.242022
 20
257.179410
 30
0.0
 10
29.979660
 20
257.111380
 30
0.0
 10
29.919241
 20
257.031652
 30
0.0
  0
SPLINE
  5
139
100
AcDbEntity
  8
Layer_1
 62
1
100
AcDbSpline
 70
8
 71
3
 72
8
 73
4
 74
0
 40
0
 40
0
 40
0
 40
0
 40
1
 40
1
 40
1
 40
1
 10
29.919241
 20
257.031652
 30
0.0
 10
29.858823
 20
256.951924
 30
0.0
 10
29.789343
 20
256.861483
 30
0.0
 10
29.651477
 20
256.453156
 30
0.0
  0
SPLINE
  5
13a
100
AcDbEntity
  8
Layer_1
 62
1
100
AcDbSpline
 70
8
 71
3
 72
8
 73
4
 74
0
 40
0
 40
0
 40
0
 40
0
 40
1
 40
1
 40
1
 40
1
 10
29.651477
 20
256.453156
 30
0.0
 10
29.614506
 20
256.343775
 30
0.0
 10
29.577518
 20
256.248460
 30
0.0
 10
29.569898
 20
256.241489
 30
0.0
  0
SPLINE
  5
13b
100
AcDbEntity
  8
Layer_1
 62
1
100
AcDbSpline
 70
8
 71
3
 72
8
 73
4
 74
0
 40
0
 40
0
 40
0
 40
0
 40
1
 40
1
 40
1
 40
1
 10
29.569898
 20
256.241489
 30
0.0
 10
29.562137
 20
256.234490
 30
0.0
 10
29.569052
 20
256.228817
 30
0.0
 10
29.363797
 20
256.228817
 30
0.0
  0
SPLINE
  5
13c
100
AcDbEntity
  8
Layer_1
 62
1
100
AcDbSpline
 70
8
 71
3
 72
8
 73
4
 74
0
 40
0
 40
0
 40
0
 40
0
 40
1
 40
1
 40
1
 40
1
 10
29.363797
 20
256.228817
 30
0.0
 10
29.158678
 20
256.228817
 30
0.0
 10
29.134136
 20
256.234518
 30
0.0
 10
29.126516
 20
256.241489
 30
0.0
  0
SPLINE
  5
13d
100
AcDbEntity
  8
Layer_1
 62
1
100
AcDbSpline
 70
8
 71
3
 72
8
 73
4
 74
0
 40
0
 40
0
 40
0
 40
0
 40
1
 40
1
 40
1
 40
1
 10
29.126516
 20
256.241489
 30
0.0
 10
29.118868
 20
256.248488
 30
0.0
 10
29.088563
 20
256.328072
 30
0.0
 10
29.059268
 20
256.418428
 30
0.0
  0
SPLINE
  5
13e
100
AcDbEntity
  8
Layer_1
 62
1
100
AcDbSpline
 70
8
 71
3
 72
8
 73
4
 74
0
 40
0
 40
0
 40
0
 40
0
 40
1
 40
1
 40
1
 40
1
 10
29.059268
 20
256.418428
 30
0.0
 10
28.989277
 20
256.633516
 30
0.0
 10
28.885636
 20
256.835197
 30
0.0
 10
28.813049
 20
256.986505
 30
0.0
  0
SPLINE
  5
13f
100
AcDbEntity
  8
Layer_1
 62
1
100
AcDbSpline
 70
8
 71
3
 72
8
 73
4
 74
0
 40
0
 40
0
 40
0
 40
0
 40
1
 40
1
 40
1
 40
1
 10
28.813049
 20
256.986505
 30
0.0
 10
28.750141
 20
257.117648
 30
0.0
 10
28.488279
 20
257.158158
 30
0.0
 10
28.455945
 20
257.158158
 30
0.0
  0
SPLINE
  5
140
100
AcDbEntity
  8
Layer_1
 62
1
100
AcDbSpline
 70
8
 71
3
 72
8
 73
4
 74
0
 40
0
 40
0
 40
0
 40
0
 40
1
 40
1
 40
1
 40
1
 10
33.289545
 20
245.185214
 30
0.0
 10
33.279836
 20
245.175505
 30
0.0
 10
33.233803
 20
244.676779
 30
0.0
 10
33.187569
 20
244.077271
 30
0.0
  0
SPLINE
  5
141
100
AcDbEntity
  8
Layer_1
 62
1
100
AcDbSpline
 70
8
 71
3
 72
8
 73
4
 74
0
 40
0
 40
0
 40
0
 40
0
 40
1
 40
1
 40
1
 40
1
 10
33.187569
 20
244.077271
 30
0.0
 10
33.075541
 20
242.624544
 30
0.0
 10
32.897849
 20
241.429231
 30
0.0
 10
32.794002
 20
241.429231
 30
0.0
  0
SPLINE
  5
142
100
AcDbEntity
  8
Layer_1
 62
1
100
AcDbSpline
 70
8
 71
3
 72
8
 73
4
 74
0
 40
0
 40
0
 40
0
 40
0
 40
1
 40
1
 40
1
 40
1
 10
32.794002
 20
241.429231
 30
0.0
 10
32.775234
 20
241.429231
 30
0.0
 10
32.659526
 20
241.487462
 30
0.0
 10
32.536584
 20
241.558768
 30
0.0
  0
SPLINE
  5
143
100
AcDbEntity
  8
Layer_1
 62
1
100
AcDbSpline
 70
8
 71
3
 72
8
 73
4
 74
0
 40
0
 40
0
 40
0
 40
0
 40
1
 40
1
 40
1
 40
1
 10
32.536584
 20
241.558768
 30
0.0
 10
32.177112
 20
241.767257
 30
0.0
 10
31.334010
 20
242.083859
 30
0.0
 10
30.904987
 20
242.171718
 30
0.0
  0
SPLINE
  5
144
100
AcDbEntity
  8
Layer_1
 62
1
100
AcDbSpline
 70
8
 71
3
 72
8
 73
4
 74
0
 40
0
 40
0
 40
0
 40
0
 40
1
 40
1
 40
1
 40
1
 10
30.904987
 20
242.171718
 30
0.0
 10
30.346935
 20
242.285995
 30
0.0
 10
28.720071
 20
242.333000
 30
0.0
 10
27.985200
 20
242.256055
 30
0.0
  0
SPLINE
  5
145
100
AcDbEntity
  8
Layer_1
 62
1
100
AcDbSpline
 70
8
 71
3
 72
8
 73
4
 74
0
 40
0
 40
0
 40
0
 40
0
 40
1
 40
1
 40
1
 40
1
 10
27.985200
 20
242.256055
 30
0.0
 10
27.214299
 20
242.175336
 30
0.0
 10
26.724090
 20
242.037403
 30
0.0
 10
26.008542
 20
241.699879
 30
0.0
  0
SPLINE
  5
146
100
AcDbEntity
  8
Layer_1
 62
1
100
AcDbSpline
 70
8
 71
3
 72
8
 73
4
 74
0
 40
0
 40
0
 40
0
 40
0
 40
1
 40
1
 40
1
 40
1
 10
26.008542
 20
241.699879
 30
0.0
 10
25.691930
 20
241.550536
 30
0.0
 10
25.423138
 20
241.437506
 30
0.0
 10
25.411576
 20
241.449077
 30
0.0
  0
SPLINE
  5
147
100
AcDbEntity
  8
Layer_1
 62
1
100
AcDbSpline
 70
8
 71
3
 72
8
 73
4
 74
0
 40
0
 40
0
 40
0
 40
0
 40
1
 40
1
 40
1
 40
1
 10
25.411576
 20
241.449077
 30
0.0
 10
25.343631
 20
241.517022
 30
0.0
 10
25.168985
 20
242.829522
 30
0.0
 10
25.090217
 20
243.862297
 30
0.0
  0
SPLINE
  5
148
100
AcDbEntity
  8
Layer_1
 62
1
100
AcDbSpline
 70
8
 71
3
 72
8
 73
4
 74
0
 40
0
 40
0
 40
0
 40
0
 40
1
 40
1
 40
1
 40
1
 10
25.090217
 20
243.862297
 30
0.0
 10
25.039753
 20
244.523953
 30
0.0
 10
24.979771
 20
245.085922
 30
0.0
 10
24.956823
 20
245.111350
 30
0.0
  0
SPLINE
  5
149
100
AcDbEntity
  8
Layer_1
 62
1
100
AcDbSpline
 70
8
 71
3
 72
8
 73
4
 74
0
 40
0
 40
0
 40
0
 40
0
 40
1
 40
1
 40
1
 40
1
 10
24.956823
 20
245.111350
 30
0.0
 10
24.912810
 20
245.160127
 30
0.0
 10
24.516386
 20
244.469269
 30
0.0
 10
24.273316
 20
243.919622
 30
0.0
  0
SPLINE
  5
14a
100
AcDbEntity
  8
Layer_1
 62
1
100
AcDbSpline
 70
8
 71
3
 72
8
 73
4
 74
0
 40
0
 40
0
 40
0
 40
0
 40
1
 40
1
 40
1
 40
1
 10
24.273316
 20
243.919622
 30
0.0
 10
24.019312
 20
243.345249
 30
0.0
 10
23.593553
 20
241.987963
 30
0.0
 10
23.504371
 20
241.468369
 30
0.0
  0
SPLINE
  5
14b
100
AcDbEntity
  8
Layer_1
 62
1
100
AcDbSpline
 70
8
 71
3
 72
8
 73
4
 74
0
 40
0
 40
0
 40
0
 40
0
 40
1
 40
1
 40
1
 40
1
 10
23.504371
 20
241.468369
 30
0.0
 10
23.383096
 20
240.761792
 30
0.0
 10
23.331688
 20
236.349835
 30
0.0
 10
23.423893
 20
234.552822
 30
0.0
  0
SPLINE
  5
14c
100
AcDbEntity
  8
Layer_1
 62
1
100
AcDbSpline
 70
8
 71
3
 72
8
 73
4
 74
0
 40
0
 40
0
 40
0
 40
0
 40
1
 40
1
 40
1
 40
1
 10
23.423893
 20
234.552822
 30
0.0
 10
23.496136
 20
233.144857
 30
0.0
 10
23.523880
 20
232.630459
 30
0.0
 10
23.881402
 20
231.159542
 30
0.0
  0
SPLINE
  5
14d
100
AcDbEntity
  8
Layer_1
 62
1
100
AcDbSpline
 70
8
 71
3
 72
8
 73
4
 74
0
 40
0
 40
0
 40
0
 40
0
 40
1
 40
1
 40
1
 40
1
 10
23.881402
 20
231.159542
 30
0.0
 10
24.007308
 20
230.641538
 30
0.0
 10
24.077406
 20
230.239664
 30
0.0
 10
24.177956
 20
230.240664
 30
0.0
  0
SPLINE
  5
14e
100
AcDbEntity
  8
Layer_1
 62
1
100
AcDbSpline
 70
8
 71
3
 72
8
 73
4
 74
0
 40
0
 40
0
 40
0
 40
0
 40
1
 40
1
 40
1
 40
1
 10
24.177956
 20
230.240664
 30
0.0
 10
24.279744
 20
230.241792
 30
0.0
 10
24.667387
 20
230.711997
 30
0.0
 10
24.724393
 20
231.264823
 30
0.0
  0
SPLINE
  5
14f
100
AcDbEntity
  8
Layer_1
 62
1
100
AcDbSpline
 70
8
 71
3
 72
8
 73
4
 74
0
 40
0
 40
0
 40
0
 40
0
 40
1
 40
1
 40
1
 40
1
 10
24.724393
 20
231.264823
 30
0.0
 10
24.828783
 20
232.277145
 30
0.0
 10
24.857764
 20
233.183076
 30
0.0
 10
24.922680
 20
233.304169
 30
0.0
  0
SPLINE
  5
150
100
AcDbEntity
  8
Layer_1
 62
1
100
AcDbSpline
 70
8
 71
3
 72
8
 73
4
 74
0
 40
0
 40
0
 40
0
 40
0
 40
1
 40
1
 40
1
 40
1
 10
24.922680
 20
233.304169
 30
0.0
 10
24.946866
 20
233.349288
 30
0.0
 10
25.309846
 20
233.206760
 30
0.0
 10
26.759848
 20
232.567343
 30
0.0
  0
SPLINE
  5
151
100
AcDbEntity
  8
Layer_1
 62
1
100
AcDbSpline
 70
8
 71
3
 72
8
 73
4
 74
0
 40
0
 40
0
 40
0
 40
0
 40
1
 40
1
 40
1
 40
1
 10
26.759848
 20
232.567343
 30
0.0
 10
28.536522
 20
231.783872
 30
0.0
 10
28.902192
 20
231.640751
 30
0.0
 10
29.126767
 20
231.640751
 30
0.0
  0
SPLINE
  5
152
100
AcDbEntity
  8
Layer_1
 62
1
100
AcDbSpline
 70
8
 71
3
 72
8
 73
4
 74
0
 40
0
 40
0
 40
0
 40
0
 40
1
 40
1
 40
1
 40
1
 10
29.126767
 20
231.640751
 30
0.0
 10
29.351444
 20
231.640751
 30
0.0
 10
29.717379
 20
231.784634
 30
0.0
 10
31.502505
 20
232.572305
 30
0.0
  0
SPLINE
  5
153
100
AcDbEntity
  8
Layer_1
 62
1
100
AcDbSpline
 70
8
 71
3
 72
8
 73
4
 74
0
 40
0
 40
0
 40
0
 40
0
 40
1
 40
1
 40
1
 40
1
 10
31.502505
 20
232.572305
 30
0.0
 10
32.663209
 20
233.084453
 30
0.0
 10
33.270190
 20
233.346584
 30
0.0
 10
33.278205
 20
233.338202
 30
0.0
  0
SPLINE
  5
154
100
AcDbEntity
  8
Layer_1
 62
1
100
AcDbSpline
 70
8
 71
3
 72
8
 73
4
 74
0
 40
0
 40
0
 40
0
 40
0
 40
1
 40
1
 40
1
 40
1
 10
33.278205
 20
233.338202
 30
0.0
 10
33.323457
 20
233.290876
 30
0.0
 10
33.458621
 20
232.035131
 30
0.0
 10
33.540740
 20
231.199449
 30
0.0
  0
SPLINE
  5
155
100
AcDbEntity
  8
Layer_1
 62
1
100
AcDbSpline
 70
8
 71
3
 72
8
 73
4
 74
0
 40
0
 40
0
 40
0
 40
0
 40
1
 40
1
 40
1
 40
1
 10
33.540740
 20
231.199449
 30
0.0
 10
33.593351
 20
230.664028
 30
0.0
 10
33.965473
 20
230.242591
 30
0.0
 10
34.093215
 20
230.284761
 30
0.0
  0
SPLINE
  5
156
100
AcDbEntity
  8
Layer_1
 62
1
100
AcDbSpline
 70
8
 71
3
 72
8
 73
4
 74
0
 40
0
 40
0
 40
0
 40
0
 40
1
 40
1
 40
1
 40
1
 10
34.093215
 20
230.284761
 30
0.0
 10
34.172612
 20
230.310979
 30
0.0
 10
34.522478
 20
231.975292
 30
0.0
 10
34.641674
 20
232.623567
 30
0.0
  0
SPLINE
  5
157
100
AcDbEntity
  8
Layer_1
 62
1
100
AcDbSpline
 70
8
 71
3
 72
8
 73
4
 74
0
 40
0
 40
0
 40
0
 40
0
 40
1
 40
1
 40
1
 40
1
 10
34.641674
 20
232.623567
 30
0.0
 10
34.941558
 20
234.254544
 30
0.0
 10
34.990563
 20
240.290958
 30
0.0
 10
34.714987
 20
241.632078
 30
0.0
  0
SPLINE
  5
158
100
AcDbEntity
  8
Layer_1
 62
1
100
AcDbSpline
 70
8
 71
3
 72
8
 73
4
 74
0
 40
0
 40
0
 40
0
 40
0
 40
1
 40
1
 40
1
 40
1
 10
34.714987
 20
241.632078
 30
0.0
 10
34.613610
 20
242.125453
 30
0.0
 10
34.339708
 20
242.997083
 30
0.0
 10
34.068410
 20
243.688112
 30
0.0
  0
SPLINE
  5
159
100
AcDbEntity
  8
Layer_1
 62
1
100
AcDbSpline
 70
8
 71
3
 72
8
 73
4
 74
0
 40
0
 40
0
 40
0
 40
0
 40
1
 40
1
 40
1
 40
1
 10
34.068410
 20
243.688112
 30
0.0
 10
33.889961
 20
244.142659
 30
0.0
 10
33.327738
 20
245.223404
 30
0.0
 10
33.289545
 20
245.185214
 30
0.0
  0
LWPOLYLINE
  5
15a
100
AcDbEntity
  8
Layer_1
 62
1
100
AcDbPolyline
 90
2
 70
1
 10
28.455945
 20
257.158158
 30
0.0
 10
28.455936
 20
257.158158
 30
0.0
  0
SPLINE
  5
15b
100
AcDbEntity
  8
Layer_1
 62
1
100
AcDbSpline
 70
8
 71
3
 72
8
 73
4
 74
0
 40
0
 40
0
 40
0
 40
0
 40
1
 40
1
 40
1
 40
1
 10
33.255921
 20
237.034393
 30
0.0
 10
33.302615
 20
237.038401
 30
0.0
 10
33.324278
 20
237.022709
 30
0.0
 10
33.350731
 20
237.000769
 30
0.0
  0
SPLINE
  5
15c
100
AcDbEntity
  8
Layer_1
 62
1
100
AcDbSpline
 70
8
 71
3
 72
8
 73
4
 74
0
 40
0
 40
0
 40
0
 40
0
 40
1
 40
1
 40
1
 40
1
 10
33.350731
 20
237.000769
 30
0.0
 10
33.472766
 20
236.899482
 30
0.0
 10
33.459251
 20
236.272706
 30
0.0
 10
33.325923
 20
235.843215
 30
0.0
  0
SPLINE
  5
15d
100
AcDbEntity
  8
Layer_1
 62
1
100
AcDbSpline
 70
8
 71
3
 72
8
 73
4
 74
0
 40
0
 40
0
 40
0
 40
0
 40
1
 40
1
 40
1
 40
1
 10
33.325923
 20
235.843215
 30
0.0
 10
33.028032
 20
234.883603
 30
0.0
 10
32.382322
 20
234.370664
 30
0.0
 10
31.273750
 20
234.212721
 30
0.0
  0
SPLINE
  5
15e
100
AcDbEntity
  8
Layer_1
 62
1
100
AcDbSpline
 70
8
 71
3
 72
8
 73
4
 74
0
 40
0
 40
0
 40
0
 40
0
 40
1
 40
1
 40
1
 40
1
 10
31.273750
 20
234.212721
 30
0.0
 10
30.562446
 20
234.111378
 30
0.0
 10
30.267952
 20
234.164506
 30
0.0
 10
29.969023
 20
234.446438
 30
0.0
  0
SPLINE
  5
15f
100
AcDbEntity
  8
Layer_1
 62
1
100
AcDbSpline
 70
8
 71
3
 72
8
 73
4
 74
0
 40
0
 40
0
 40
0
 40
0
 40
1
 40
1
 40
1
 40
1
 10
29.969023
 20
234.446438
 30
0.0
 10
29.739144
 20
234.663238
 30
0.0
 10
29.658471
 20
234.978813
 30
0.0
 10
29.777752
 20
235.192230
 30
0.0
  0
SPLINE
  5
160
100
AcDbEntity
  8
Layer_1
 62
1
100
AcDbSpline
 70
8
 71
3
 72
8
 73
4
 74
0
 40
0
 40
0
 40
0
 40
0
 40
1
 40
1
 40
1
 40
1
 10
29.777752
 20
235.192230
 30
0.0
 10
29.834157
 20
235.293150
 30
0.0
 10
30.266457
 20
235.544951
 30
0.0
 10
31.331075
 20
236.097325
 30
0.0
  0
SPLINE
  5
161
100
AcDbEntity
  8
Layer_1
 62
1
100
AcDbSpline
 70
8
 71
3
 72
8
 73
4
 74
0
 40
0
 40
0
 40
0
 40
0
 40
1
 40
1
 40
1
 40
1
 10
31.331075
 20
236.097325
 30
0.0
 10
32.747879
 20
236.832429
 30
0.0
 10
33.115840
 20
237.022407
 30
0.0
 10
33.255921
 20
237.034393
 30
0.0
  0
LWPOLYLINE
  5
162
100
AcDbEntity
  8
Layer_1
 62
1
100
AcDbPolyline
 90
2
 70
1
 10
33.289545
 20
245.185214
 30
0.0
 10
33.289545
 20
245.185214
 30
0.0
  0
SPLINE
  5
163
100
AcDbEntity
  8
Layer_1
 62
1
100
AcDbSpline
 70
8
 71
3
 72
8
 73
4
 74
0
 40
0
 40
0
 40
0
 40
0
 40
1
 40
1
 40
1
 40
1
 10
25.024071
 20
237.032700
 30
0.0
 10
25.044055
 20
237.032135
 30
0.0
 10
25.065012
 20
237.028890
 30
0.0
 10
25.086910
 20
237.022229
 30
0.0
  0
SPLINE
  5
164
100
AcDbEntity
  8
Layer_1
 62
1
100
AcDbSpline
 70
8
 71
3
 72
8
 73
4
 74
0
 40
0
 40
0
 40
0
 40
0
 40
1
 40
1
 40
1
 40
1
 10
25.086910
 20
237.022229
 30
0.0
 10
25.311107
 20
236.953985
 30
0.0
 10
28.267271
 20
235.401269
 30
0.0
 10
28.394753
 20
235.284799
 30
0.0
  0
SPLINE
  5
165
100
AcDbEntity
  8
Layer_1
 62
1
100
AcDbSpline
 70
8
 71
3
 72
8
 73
4
 74
0
 40
0
 40
0
 40
0
 40
0
 40
1
 40
1
 40
1
 40
1
 10
28.394753
 20
235.284799
 30
0.0
 10
28.503920
 20
235.185064
 30
0.0
 10
28.519436
 20
235.128659
 30
0.0
 10
28.498382
 20
234.906113
 30
0.0
  0
SPLINE
  5
166
100
AcDbEntity
  8
Layer_1
 62
1
100
AcDbSpline
 70
8
 71
3
 72
8
 73
4
 74
0
 40
0
 40
0
 40
0
 40
0
 40
1
 40
1
 40
1
 40
1
 10
28.498382
 20
234.906113
 30
0.0
 10
28.469500
 20
234.600684
 30
0.0
 10
28.320881
 20
234.410906
 30
0.0
 10
27.992917
 20
234.259539
 30
0.0
  0
SPLINE
  5
167
100
AcDbEntity
  8
Layer_1
 62
1
100
AcDbSpline
 70
8
 71
3
 72
8
 73
4
 74
0
 40
0
 40
0
 40
0
 40
0
 40
1
 40
1
 40
1
 40
1
 10
27.992917
 20
234.259539
 30
0.0
 10
27.585177
 20
234.071356
 30
0.0
 10
26.506416
 20
234.209893
 30
0.0
 10
25.928064
 20
234.524673
 30
0.0
  0
SPLINE
  5
168
100
AcDbEntity
  8
Layer_1
 62
1
100
AcDbSpline
 70
8
 71
3
 72
8
 73
4
 74
0
 40
0
 40
0
 40
0
 40
0
 40
1
 40
1
 40
1
 40
1
 10
25.928064
 20
234.524673
 30
0.0
 10
25.277184
 20
234.878924
 30
0.0
 10
24.794215
 20
235.783742
 30
0.0
 10
24.794215
 20
236.647955
 30
0.0
  0
SPLINE
  5
169
100
AcDbEntity
  8
Layer_1
 62
1
100
AcDbSpline
 70
8
 71
3
 72
8
 73
4
 74
0
 40
0
 40
0
 40
0
 40
0
 40
1
 40
1
 40
1
 40
1
 10
24.794215
 20
236.647955
 30
0.0
 10
24.794215
 20
236.890683
 30
0.0
 10
24.884190
 20
237.035827
 30
0.0
 10
25.024071
 20
237.032700
 30
0.0
  0
LWPOLYLINE
  5
16a
100
AcDbEntity
  8
Layer_1
 62
1
100
AcDbPolyline
 90
2
 70
1
 10
33.255921
 20
237.034393
 30
0.0
 10
33.255921
 20
237.034393
 30
0.0
  0
LWPOLYLINE
  5
16b
100
AcDbEntity
  8
Layer_1
 62
1
100
AcDbPolyline
 90
2
 70
1
 10
25.024071
 20
237.032700
 30
0.0
 10
25.024071
 20
237.032700
 30
0.0
  0
ENDSEC
  0
SECTION
  2
OBJECTS
  0
DICTIONARY
  5
C
330
0
100
AcDbDictionary
  3
ACAD_GROUP
350
D
  3
ACAD_MLINESTYLE
350
17
  0
DICTIONARY
  5
D
330
C
100
AcDbDictionary
  0
DICTIONARY
  5
1A
330
C
100
AcDbDictionary
  0
DICTIONARY
  5
17
330
C
100
AcDbDictionary
  3
STANDARD
350
18
  0
DICTIONARY
  5
19
330
C
100
AcDbDictionary
  0
ENDSEC
  0
EOF
