<?xml version="1.0" encoding="UTF-8" standalone="no"?>
<!-- Created with Inkscape (http://www.inkscape.org/) -->

<svg
   xmlns:dc="http://purl.org/dc/elements/1.1/"
   xmlns:cc="http://creativecommons.org/ns#"
   xmlns:rdf="http://www.w3.org/1999/02/22-rdf-syntax-ns#"
   xmlns:svg="http://www.w3.org/2000/svg"
   xmlns="http://www.w3.org/2000/svg"
   xmlns:sodipodi="http://sodipodi.sourceforge.net/DTD/sodipodi-0.dtd"
   xmlns:inkscape="http://www.inkscape.org/namespaces/inkscape"
   id="svg5879"
   version="1.1"
   inkscape:version="0.91 r13725"
   width="1875"
   height="1448.75"
   viewBox="0 0 1875 1448.75"
   sodipodi:docname="bow.svg">
  <metadata
     id="metadata5885">
    <rdf:RDF>
      <cc:Work
         rdf:about="">
        <dc:format>image/svg+xml</dc:format>
        <dc:type
           rdf:resource="http://purl.org/dc/dcmitype/StillImage" />
        <dc:title></dc:title>
      </cc:Work>
    </rdf:RDF>
  </metadata>
  <defs
     id="defs5883" />
  <sodipodi:namedview
     pagecolor="#ffffff"
     bordercolor="#666666"
     borderopacity="1"
     objecttolerance="10"
     gridtolerance="10"
     guidetolerance="10"
     inkscape:pageopacity="0"
     inkscape:pageshadow="2"
     inkscape:window-width="1360"
     inkscape:window-height="746"
     id="namedview5881"
     showgrid="false"
     inkscape:zoom="0.32533333"
     inkscape:cx="540.93218"
     inkscape:cy="1003.243"
     inkscape:window-x="1432"
     inkscape:window-y="-8"
     inkscape:window-maximized="1"
     inkscape:current-layer="svg5879" />
  <path
     style="fill:none;stroke:#ff0000"
     d="M 1209.8398 214.34375 C 1192.0589 214.36245 1162.7355 219.55072 1134.6582 227.99219 C 1057.2437 251.26701 938.43069 314.32615 828.92969 390.25391 C 819.21729 396.98845 810.63256 402.88184 809.85156 403.34961 C 809.07056 403.8174 803.70825 401.98641 797.93555 399.28125 C 736.72314 370.59613 644.24037 370.64006 586.57422 399.38086 L 574.37891 405.45898 L 565.32422 398.99414 C 502.50403 354.13659 409.19849 298.23907 348.14648 268.88867 C 273.48848 232.99727 216.72699 215.39849 174.33984 215 L 158.6582 214.85352 L 149.19141 219.5293 C 127.90432 230.04037 110.89398 256.18157 99.533203 295.84766 C 90.447043 327.5719 85.520593 357.89409 81.720703 405.47852 C 79.725773 430.46026 79.710082 511.35471 81.695312 537.97852 C 92.164822 678.38408 120.4552 773.62211 157.26562 792.37695 L 157.26758 792.37695 C 163.31113 795.45615 164.61338 795.64655 175.64648 795.06445 C 203.30467 793.60515 246.89004 779.40302 305.02148 752.9082 C 370.52096 723.05524 472.98183 666.761 556.36523 614.81641 L 573.01562 604.44531 L 582.14258 607.98633 C 608.56431 618.24035 638.90877 623.01203 683.14648 623.86719 C 730.6788 624.78604 759.09147 621.16197 792.38867 609.93164 L 808.50781 604.49414 L 831.13867 618.51953 C 1006.0337 726.90129 1153.0076 795.5578 1209.9297 795.4668 C 1232.7122 795.4302 1251.2611 772.78879 1267.6328 725.0332 C 1289.804 660.36006 1302.2848 567.47463 1302.3418 466.72852 C 1302.3751 408.08119 1299.0603 368.29402 1290.6719 326.67188 C 1277.1441 259.54827 1253.5045 222.17818 1220.1484 215.18164 C 1217.4317 214.61179 1213.9431 214.33943 1209.8398 214.34375 z "
     id="path6429" />
</svg>
