<?xml version="1.0" encoding="UTF-8" standalone="no"?>
<!-- Created with Inkscape (http://www.inkscape.org/) -->

<svg
   xmlns:dc="http://purl.org/dc/elements/1.1/"
   xmlns:cc="http://creativecommons.org/ns#"
   xmlns:rdf="http://www.w3.org/1999/02/22-rdf-syntax-ns#"
   xmlns:svg="http://www.w3.org/2000/svg"
   xmlns="http://www.w3.org/2000/svg"
   xmlns:sodipodi="http://sodipodi.sourceforge.net/DTD/sodipodi-0.dtd"
   xmlns:inkscape="http://www.inkscape.org/namespaces/inkscape"
   id="svg4151"
   version="1.1"
   inkscape:version="0.91 r13725"
   width="564"
   height="564"
   viewBox="0 0 564 564"
   sodipodi:docname="bunny.svg">
  <metadata
     id="metadata4157">
    <rdf:RDF>
      <cc:Work
         rdf:about="">
        <dc:format>image/svg+xml</dc:format>
        <dc:type
           rdf:resource="http://purl.org/dc/dcmitype/StillImage" />
        <dc:title></dc:title>
      </cc:Work>
    </rdf:RDF>
  </metadata>
  <defs
     id="defs4155" />
  <sodipodi:namedview
     pagecolor="#ffffff"
     bordercolor="#666666"
     borderopacity="1"
     objecttolerance="10"
     gridtolerance="10"
     guidetolerance="10"
     inkscape:pageopacity="0"
     inkscape:pageshadow="2"
     inkscape:window-width="1360"
     inkscape:window-height="746"
     id="namedview4153"
     showgrid="false"
     inkscape:zoom="0.41843972"
     inkscape:cx="-123.33378"
     inkscape:cy="405.90055"
     inkscape:window-x="1432"
     inkscape:window-y="-8"
     inkscape:window-maximized="1"
     inkscape:current-layer="svg4151" />
  <path
     id="path5291"
     style="fill:none;stroke:#ff0000"
     d="m 252.87494,213.8051 c 0.9236,-1.925 2.44183,-7.66726 3.37385,-12.76058 1.39164,-7.6051 1.50132,-10.55474 0.61353,-16.5 -2.11802,-14.18362 -5.83183,-19.95488 -11.46323,-17.81383 -8.13752,3.09388 -11.97907,24.70972 -7.59353,42.72765 1.70191,6.99225 3.34131,8.50227 8.84125,8.14349 4.09395,-0.26706 4.71679,-0.64675 6.22813,-3.79673 z m 41.26286,14.04513 c 6.28407,-4.32356 17.12314,-16.43971 20.02538,-22.38482 3.4271,-7.02027 4.30358,-13.75408 2.07971,-15.97795 -6.80805,-6.80805 -25.15535,9.64203 -32.59667,29.22598 -2.32892,6.12923 -2.00857,7.9679 1.79958,10.32883 3.62903,2.24988 3.70435,2.23955 8.692,-1.19204 z m -88.03298,52.5605 c 6.6059,-2.76012 8.52808,-9.23161 4.14632,-13.95961 -3.40231,-3.67115 -10.51686,-3.76781 -14.0932,-0.19147 -4.18953,4.18952 -2.83463,11.12439 2.70691,13.85489 4.05317,1.99714 3.24787,1.9642 7.23997,0.29619 z m 64.2967,14.19466 c 4.56805,-4.26324 3.75505,-11.48034 -1.60551,-14.25239 -4.41208,-2.28158 -7.50331,-1.90082 -10.98686,1.35331 -5.07742,4.74302 -3.98991,11.9167 2.22298,14.66372 3.76403,1.66427 7.34902,1.05418 10.36939,-1.76464 z m -25.7771,21.93497 c 4.43513,-2.26289 3.69117,-3.73526 -1.88736,-3.73526 -5.08953,0 -9.715,-1.65102 -11.72198,-4.18406 -0.72577,-0.916 -0.70363,-2.61476 0.0728,-5.58953 0.87067,-3.33568 1.86718,-4.65248 4.54059,-6 1.88381,-0.94953 3.90881,-2.54118 4.5,-3.537 1.5578,-2.62402 -2.95067,-6.20747 -9.60544,-7.63466 -4.54422,-0.97456 -5.45165,-0.91095 -6.44828,0.45202 -1.33291,1.82286 -0.73542,5.24434 1.33488,7.64407 1.17674,1.36398 1.21526,2.40657 0.22165,6 -0.66142,2.39204 -1.21578,4.96085 -1.23191,5.70847 -0.0463,2.14454 -7.32594,0.72342 -11.49717,-2.24445 -2.71562,-1.93219 -3.89962,-2.27815 -4.91441,-1.43595 -3.15997,2.62254 5.56152,9.82109 11.89887,9.82109 2.48768,0 5.76525,1.07689 9.10212,2.99062 5.65475,3.24306 11.43476,3.888 15.63561,1.74464 z m 85.07897,75.97683 c -3.33797,-1.68024 -3.82496,-6.105 -1.08047,-9.81713 3.42222,-4.62879 2.78,-5.60933 -5.16953,-7.89283 -11.16193,-3.20627 -14.9228,-4.73716 -20.81337,-8.47226 -10.41058,-6.60114 -8.47374,-7.0655 -20.1949,4.84176 -11.17283,11.35023 -15.87223,14.26431 -24.68696,15.30829 -4.58226,0.5427 -5.17554,0.35316 -8.1242,-2.5955 -2.77135,-2.77135 -3.11374,-3.68209 -2.65898,-7.07261 0.50801,-3.78753 1.8913,-7.19161 4.7694,-11.73685 2.669,-4.21501 -0.18038,-4.53578 -5.92514,-0.66704 -10.70959,7.21226 -17.28924,8.90514 -23.04433,5.92907 -7.62865,-3.94493 -4.28506,-15.58336 6.93516,-24.14001 8.05695,-6.14431 7.63672,-7.11769 -4.60343,-10.66294 -9.32295,-2.70031 -20.07182,-8.46558 -26.03993,-13.96679 -12.7482,-11.75088 -20.18696,-34.67411 -17.37828,-53.55279 2.67283,-17.96552 14.99041,-34.68408 31.74636,-43.0891 6.15794,-3.0889 8.38568,-4.74367 8.84387,-6.56924 0.33686,-1.34214 -0.12698,-8.87882 -1.03075,-16.74819 -2.44092,-21.25371 -1.99909,-31.57255 1.84315,-43.0463 3.73588,-11.15616 8.46511,-18.09866 14.61233,-21.45087 8.04661,-4.38798 19.54402,-1.9811 26.6154,5.5717 7.05233,7.53245 10.22018,19.24425 11.05392,40.86721 0.51111,13.25537 0.86857,16.04881 1.93989,15.15969 0.72234,-0.59948 1.62115,-2.06183 1.99737,-3.24967 1.24341,-3.92579 9.52002,-15.62156 14.74911,-20.84213 10.65365,-10.63627 23.5306,-16.37616 35.08756,-15.64027 11.29034,0.71892 16.05675,6.30639 16.05675,18.82271 0,13.73687 -8.29254,30.0299 -22.40858,44.02798 -4.17528,4.14039 -11.07892,9.9605 -15.34142,12.93357 -4.2625,2.97307 -7.75,5.81765 -7.75,6.32129 0,1.39663 6.96573,12.37617 9.04643,14.25917 1.71797,1.55475 2.33786,1.49425 9.65325,-0.942 25.61936,-8.53202 47.86197,-7.24087 67.77345,3.93417 5.59161,3.13821 12.52687,8.62311 12.52687,9.90713 0,0.30474 1.52826,2.6926 3.39612,5.30638 1.86787,2.61377 4.15846,6.55231 5.09019,8.75231 1.98254,4.68118 6.47366,20.87876 6.79313,24.5 0.21013,2.38179 0.48074,2.48449 5.723,2.17203 4.81097,-0.28675 5.79882,-0.0125 7.86096,2.18257 1.29719,1.38079 2.47245,3.95877 2.6117,5.72883 0.1834,2.3314 0.99226,3.60555 2.9351,4.62351 4.99501,2.61715 6.01195,9.16571 1.96407,12.64755 -2.5983,2.23496 -2.60782,2.29319 -0.9115,5.57352 3.40977,6.59376 -0.17641,13.07199 -7.2363,13.07199 -2.871,0 -3.53348,0.49053 -4.81958,3.56861 -1.0112,2.42014 -2.59357,4.02927 -4.91686,5 -5.00789,2.09243 -7.01373,1.78849 -10.93851,-1.65752 -1.93494,-1.6989 -3.93077,-2.9364 -4.43517,-2.75 -0.5044,0.1864 -3.21193,2.49444 -6.01672,5.12898 -3.82459,3.59243 -5.09963,5.50423 -5.09963,7.64641 0,3.97468 -4.85789,7.97032 -17.25235,14.19016 -16.2846,8.17199 -36.63502,12.16575 -43.74765,8.58545 z" />
</svg>
