<?xml version="1.0" encoding="UTF-8" standalone="no"?>
<!-- Created with Inkscape (http://www.inkscape.org/) -->

<svg
   xmlns:dc="http://purl.org/dc/elements/1.1/"
   xmlns:cc="http://creativecommons.org/ns#"
   xmlns:rdf="http://www.w3.org/1999/02/22-rdf-syntax-ns#"
   xmlns:svg="http://www.w3.org/2000/svg"
   xmlns="http://www.w3.org/2000/svg"
   xmlns:sodipodi="http://sodipodi.sourceforge.net/DTD/sodipodi-0.dtd"
   xmlns:inkscape="http://www.inkscape.org/namespaces/inkscape"
   width="210mm"
   height="297mm"
   viewBox="0 0 744.09448819 1052.3622047"
   id="svg2"
   version="1.1"
   inkscape:version="0.91 r13725"
   sodipodi:docname="caseta.svg">
  <defs
     id="defs4" />
  <sodipodi:namedview
     id="base"
     pagecolor="#ffffff"
     bordercolor="#666666"
     borderopacity="1.0"
     inkscape:pageopacity="0.0"
     inkscape:pageshadow="2"
     inkscape:zoom="0.24748737"
     inkscape:cx="-241.17107"
     inkscape:cy="564.53474"
     inkscape:document-units="mm"
     inkscape:current-layer="layer1"
     showgrid="false"
     inkscape:window-width="1360"
     inkscape:window-height="746"
     inkscape:window-x="1432"
     inkscape:window-y="-8"
     inkscape:window-maximized="1" />
  <metadata
     id="metadata7">
    <rdf:RDF>
      <cc:Work
         rdf:about="">
        <dc:format>image/svg+xml</dc:format>
        <dc:type
           rdf:resource="http://purl.org/dc/dcmitype/StillImage" />
        <dc:title></dc:title>
      </cc:Work>
    </rdf:RDF>
  </metadata>
  <g
     inkscape:label="Layer 1"
     inkscape:groupmode="layer"
     id="layer1">
    <path
       style="fill:#000000"
       d="m 389.84835,243.49881 c -114.8668,-0.0581 -145.304,0.16365 -148.9003,1.08399 -6.7072,1.71652 -12.207,6.25264 -16.6211,13.70508 l -2.4004,4.04882 -0.4805,56.25 c -0.4542,53.13199 -0.5772,56.47529 -2.2305,60.30079 -1.5823,3.66126 -1.7794,6.70319 -2.0527,31.69921 -0.3418,31.26523 0.1899,35.34316 5.6973,43.66407 3.5243,5.32463 8.1778,8.75861 15.0625,11.11328 4.4502,1.52205 12.6384,1.59979 151.8554,1.4414 l 147.1485,-0.16796 4.9511,-2.38086 c 8.2226,-3.95506 13.3726,-9.92831 15.8008,-18.32032 1.3385,-4.62572 1.5515,-9.26456 1.4785,-32.36328 -0.0881,-27.81602 -0.4146,-32.51791 -2.5371,-36.66601 -1.0173,-1.98797 -1.2422,-12.24746 -1.2422,-56.3711 0,-48.09118 -0.1655,-54.45062 -1.5156,-58.63086 -2.0377,-6.30944 -8.2892,-13.15623 -14.6719,-16.06836 l -4.9628,-2.26562 -144.379,-0.0723 z m -35.1718,77.78907 33.75,0 c 18.5625,0 33.7927,0.30257 33.8437,0.67382 0.3285,2.39215 0.4194,26.08631 0.1035,27 -0.3018,0.87301 -7.9273,1.125 -34.0429,1.125 l -33.6543,0 0,-14.40039 0,-14.39843 z m 110.9355,0.18164 c 10.4262,-0.14918 20.6829,5.9135 25.2735,15.88281 2.7157,5.89758 2.6348,16.91238 -0.1661,22.70117 -2.3063,4.76657 -7.1488,9.71557 -12.2929,12.56445 -3.9198,2.17084 -15.9872,3.29516 -20.2559,1.88672 -24.4841,-8.07826 -25.3072,-42.31115 -1.2363,-51.39843 2.8252,-1.06656 5.7584,-1.59495 8.6777,-1.63672 z m -153.9258,0.16406 c 3.5293,0.0756 6.9554,0.74349 9.7364,2.01758 20.5177,9.40025 21.6418,37.14298 1.9726,48.66992 -3.3702,1.97506 -5.4027,2.44994 -11.3847,2.66016 -9.9108,0.34828 -14.4508,-1.28007 -20.5039,-7.35352 -5.4246,-5.44284 -7.4235,-10.5183 -7.4395,-18.89063 -0.0215,-11.56445 4.8236,-19.66449 14.6465,-24.48828 3.7269,-1.83021 8.435,-2.71239 12.9726,-2.61523 z m 34.1856,102.13086 c 6.7438,-0.17087 13.3047,5.07733 13.3047,12.73633 0,3.31765 -2.9338,9.03801 -5.4375,10.60156 -2.9007,1.81153 -8.3304,2.64666 -11.211,1.72461 -9.8405,-3.14979 -12.2426,-15.62252 -4.2734,-22.19141 2.3128,-1.90641 4.9783,-2.80423 7.6172,-2.87109 z m 84.4883,0.13281 c 4.3253,0.0203 8.6969,1.94283 11.1992,5.76172 3.1695,4.83728 1.2253,14.07783 -3.6309,17.25977 -4.8286,3.16382 -12.0003,2.9541 -16.1269,-0.47071 -4.0589,-3.36854 -5.2805,-12.10518 -2.3614,-16.89258 2.3147,-3.79631 6.5946,-5.67847 10.92,-5.6582 z m -122.0332,8.08984 c 3.4293,0 4.6663,0.47688 6.8203,2.63086 1.4469,1.44692 2.6802,3.27021 2.7422,4.05079 0.2508,3.16429 0.2091,3.77713 -0.4336,6.36914 -0.3682,1.485 -1.6724,3.43441 -2.8985,4.33398 -6.4239,4.71298 -14.9016,1.16889 -15.7461,-6.58398 -0.6987,-6.41352 3.1659,-10.80079 9.5157,-10.80079 z m 160.0957,0.0195 c 8.4835,0.0458 12.7665,9.85884 7.08,16.22265 -5.177,5.79361 -14.2936,3.83103 -16.5058,-3.55273 -2.0071,-6.69904 2.4628,-12.70752 9.4258,-12.66992 z"
       id="path4144"
       inkscape:connector-curvature="0" />
  </g>
</svg>
