  0
SECTION
  2
HEADER
  9
$ACADVER
  1
AC1014
  9
$HANDSEED
  5
FFFF
  9
$MEASUREMENT
 70
     1
  0
ENDSEC
  0
SECTION
  2
TABLES
  0
TABLE
  2
VPORT
  5
8
330
0
100
AcDbSymbolTable
 70
     4
  0
VPORT
  5
2E
330
8
100
AcDbSymbolTableRecord
100
AcDbViewportTableRecord
  2
*ACTIVE
 70
     0
 10
0.0
 20
0.0
 11
1.0
 21
1.0
 12
210.0
 22
148.5
 13
0.0
 23
0.0
 14
10.0
 24
10.0
 15
10.0
 25
10.0
 16
0.0
 26
0.0
 36
1.0
 17
0.0
 27
0.0
 37
0.0
 40
341.0
 41
1.24
 42
50.0
 43
0.0
 44
0.0
 50
0.0
 51
0.0
 71
     0
 72
   100
 73
     1
 74
     3
 75
     0
 76
     0
 77
     0
 78
     0
  0
ENDTAB
  0
TABLE
  2
LTYPE
  5
5
330
0
100
AcDbSymbolTable
 70
     1
  0
LTYPE
  5
14
330
5
100
AcDbSymbolTableRecord
100
AcDbLinetypeTableRecord
  2
BYBLOCK
 70
     0
  3

 72
    65
 73
     0
 40
0.0
  0
LTYPE
  5
15
330
5
100
AcDbSymbolTableRecord
100
AcDbLinetypeTableRecord
  2
BYLAYER
 70
     0
  3

 72
    65
 73
     0
 40
0.0
  0
LTYPE
  5
16
330
5
100
AcDbSymbolTableRecord
100
AcDbLinetypeTableRecord
  2
CONTINUOUS
 70
     0
  3
Solid line
 72
    65
 73
     0
 40
0.0
  0
ENDTAB
  0
TABLE
  2
LAYER
  5
2
100
AcDbSymbolTable
 70
2
  0
LAYER
  5
50
100
AcDbSymbolTableRecord
100
AcDbLayerTableRecord
  2
0
 70
0
  6
CONTINUOUS
  0
LAYER
  5
51
100
AcDbSymbolTableRecord
100
AcDbLayerTableRecord
  2
Layer_1
 70
0
  6
CONTINUOUS
  0
ENDTAB
  0
TABLE
  2
STYLE
  5
3
330
0
100
AcDbSymbolTable
 70
     1
  0
STYLE
  5
11
330
3
100
AcDbSymbolTableRecord
100
AcDbTextStyleTableRecord
  2
STANDARD
 70
     0
 40
0.0
 41
1.0
 50
0.0
 71
     0
 42
2.5
  3
txt
  4

  0
ENDTAB
  0
TABLE
  2
VIEW
  5
6
330
0
100
AcDbSymbolTable
 70
     0
  0
ENDTAB
  0
TABLE
  2
UCS
  5
7
330
0
100
AcDbSymbolTable
 70
     0
  0
ENDTAB
  0
TABLE
  2
APPID
  5
9
330
0
100
AcDbSymbolTable
 70
     2
  0
APPID
  5
12
330
9
100
AcDbSymbolTableRecord
100
AcDbRegAppTableRecord
  2
ACAD
 70
     0
  0
ENDTAB
  0
TABLE
  2
DIMSTYLE
  5
A
330
0
100
AcDbSymbolTable
 70
     1
  0
DIMSTYLE
105
27
330
A
100
AcDbSymbolTableRecord
100
AcDbDimStyleTableRecord
  2
ISO-25
 70
     0
  3

  4

  5

  6

  7

 40
1.0
 41
2.5
 42
0.625
 43
3.75
 44
1.25
 45
0.0
 46
0.0
 47
0.0
 48
0.0
140
2.5
141
2.5
142
0.0
143
0.03937007874016
144
1.0
145
0.0
146
1.0
147
0.625
 71
     0
 72
     0
 73
     0
 74
     0
 75
     0
 76
     0
 77
     1
 78
     8
170
     0
171
     3
172
     1
173
     0
174
     0
175
     0
176
     0
177
     0
178
     0
270
     2
271
     2
272
     2
273
     2
274
     3
340
11
275
     0
280
     0
281
     0
282
     0
283
     0
284
     8
285
     0
286
     0
287
     3
288
     0
  0
ENDTAB
  0
TABLE
  2
BLOCK_RECORD
  5
1
330
0
100
AcDbSymbolTable
 70
     1
  0
BLOCK_RECORD
  5
1F
330
1
100
AcDbSymbolTableRecord
100
AcDbBlockTableRecord
  2
*MODEL_SPACE
  0
BLOCK_RECORD
  5
1B
330
1
100
AcDbSymbolTableRecord
100
AcDbBlockTableRecord
  2
*PAPER_SPACE
  0
ENDTAB
  0
ENDSEC
  0
SECTION
  2
BLOCKS
  0
BLOCK
  5
20
330
1F
100
AcDbEntity
  8
0
100
AcDbBlockBegin
  2
*MODEL_SPACE
 70
     0
 10
0.0
 20
0.0
 30
0.0
  3
*MODEL_SPACE
  1

  0
ENDBLK
  5
21
330
1F
100
AcDbEntity
  8
0
100
AcDbBlockEnd
  0
BLOCK
  5
1C
330
1B
100
AcDbEntity
 67
     1
  8
0
100
AcDbBlockBegin
  2
*PAPER_SPACE
  1

  0
ENDBLK
  5
1D
330
1B
100
AcDbEntity
 67
     1
  8
0
100
AcDbBlockEnd
  0
ENDSEC
  0
SECTION
  2
ENTITIES
  0
SPLINE
  5
100
100
AcDbEntity
  8
Layer_1
 62
7
100
AcDbSpline
 70
8
 71
3
 72
8
 73
4
 74
0
 40
0
 40
0
 40
0
 40
0
 40
1
 40
1
 40
1
 40
1
 10
110.023673
 20
228.279439
 30
0.0
 10
77.605709
 20
228.295836
 30
0.0
 10
69.015630
 20
228.233256
 30
0.0
 10
68.000674
 20
227.973516
 30
0.0
  0
SPLINE
  5
101
100
AcDbEntity
  8
Layer_1
 62
7
100
AcDbSpline
 70
8
 71
3
 72
8
 73
4
 74
0
 40
0
 40
0
 40
0
 40
0
 40
1
 40
1
 40
1
 40
1
 10
68.000674
 20
227.973516
 30
0.0
 10
66.107753
 20
227.489076
 30
0.0
 10
64.555587
 20
226.208882
 30
0.0
 10
63.309830
 20
224.105638
 30
0.0
  0
SPLINE
  5
102
100
AcDbEntity
  8
Layer_1
 62
7
100
AcDbSpline
 70
8
 71
3
 72
8
 73
4
 74
0
 40
0
 40
0
 40
0
 40
0
 40
1
 40
1
 40
1
 40
1
 10
62.496787
 20
207.087968
 30
0.0
 10
62.368602
 20
192.092940
 30
0.0
 10
62.333897
 20
191.149389
 30
0.0
 10
61.867299
 20
190.069748
 30
0.0
  0
SPLINE
  5
103
100
AcDbEntity
  8
Layer_1
 62
7
100
AcDbSpline
 70
8
 71
3
 72
8
 73
4
 74
0
 40
0
 40
0
 40
0
 40
0
 40
1
 40
1
 40
1
 40
1
 10
61.867299
 20
190.069748
 30
0.0
 10
61.420739
 20
189.036459
 30
0.0
 10
61.365105
 20
188.177956
 30
0.0
 10
61.287973
 20
181.123524
 30
0.0
  0
SPLINE
  5
104
100
AcDbEntity
  8
Layer_1
 62
7
100
AcDbSpline
 70
8
 71
3
 72
8
 73
4
 74
0
 40
0
 40
0
 40
0
 40
0
 40
1
 40
1
 40
1
 40
1
 10
61.287973
 20
181.123524
 30
0.0
 10
61.191510
 20
172.299781
 30
0.0
 10
61.341559
 20
171.148901
 30
0.0
 10
62.895869
 20
168.800556
 30
0.0
  0
SPLINE
  5
105
100
AcDbEntity
  8
Layer_1
 62
7
100
AcDbSpline
 70
8
 71
3
 72
8
 73
4
 74
0
 40
0
 40
0
 40
0
 40
0
 40
1
 40
1
 40
1
 40
1
 10
62.895869
 20
168.800556
 30
0.0
 10
63.890505
 20
167.297827
 30
0.0
 10
65.203824
 20
166.328681
 30
0.0
 10
67.146842
 20
165.664141
 30
0.0
  0
SPLINE
  5
106
100
AcDbEntity
  8
Layer_1
 62
7
100
AcDbSpline
 70
8
 71
3
 72
8
 73
4
 74
0
 40
0
 40
0
 40
0
 40
0
 40
1
 40
1
 40
1
 40
1
 10
67.146842
 20
165.664141
 30
0.0
 10
68.402784
 20
165.234585
 30
0.0
 10
70.713696
 20
165.212642
 30
0.0
 10
110.003827
 20
165.257343
 30
0.0
  0
LWPOLYLINE
  5
107
100
AcDbEntity
  8
Layer_1
 62
7
100
AcDbPolyline
 90
3
 70
0
 10
63.309830
 20
224.105638
 30
0.0
 10
62.632387
 20
222.962968
 30
0.0
 10
62.496787
 20
207.087968
 30
0.0
  0
SPLINE
  5
108
100
AcDbEntity
  8
Layer_1
 62
7
100
AcDbSpline
 70
8
 71
3
 72
8
 73
4
 74
0
 40
0
 40
0
 40
0
 40
0
 40
1
 40
1
 40
1
 40
1
 10
152.929717
 20
165.976680
 30
0.0
 10
155.250317
 20
167.092885
 30
0.0
 10
156.703756
 20
168.778666
 30
0.0
 10
157.389048
 20
171.147078
 30
0.0
  0
SPLINE
  5
109
100
AcDbEntity
  8
Layer_1
 62
7
100
AcDbSpline
 70
8
 71
3
 72
8
 73
4
 74
0
 40
0
 40
0
 40
0
 40
0
 40
1
 40
1
 40
1
 40
1
 10
157.389048
 20
171.147078
 30
0.0
 10
157.766803
 20
172.452559
 30
0.0
 10
157.826922
 20
173.761743
 30
0.0
 10
157.806319
 20
180.280715
 30
0.0
  0
SPLINE
  5
10a
100
AcDbEntity
  8
Layer_1
 62
7
100
AcDbSpline
 70
8
 71
3
 72
8
 73
4
 74
0
 40
0
 40
0
 40
0
 40
0
 40
1
 40
1
 40
1
 40
1
 10
157.806319
 20
180.280715
 30
0.0
 10
157.781456
 20
188.131014
 30
0.0
 10
157.689307
 20
189.457995
 30
0.0
 10
157.090291
 20
190.628681
 30
0.0
  0
SPLINE
  5
10b
100
AcDbEntity
  8
Layer_1
 62
7
100
AcDbSpline
 70
8
 71
3
 72
8
 73
4
 74
0
 40
0
 40
0
 40
0
 40
0
 40
1
 40
1
 40
1
 40
1
 10
157.090291
 20
190.628681
 30
0.0
 10
156.803186
 20
191.189730
 30
0.0
 10
156.739717
 20
194.085183
 30
0.0
 10
156.739717
 20
206.537855
 30
0.0
  0
SPLINE
  5
10c
100
AcDbEntity
  8
Layer_1
 62
7
100
AcDbSpline
 70
8
 71
3
 72
8
 73
4
 74
0
 40
0
 40
0
 40
0
 40
0
 40
1
 40
1
 40
1
 40
1
 10
156.739717
 20
206.537855
 30
0.0
 10
156.739717
 20
220.110255
 30
0.0
 10
156.693004
 20
221.905030
 30
0.0
 10
156.311975
 20
223.084786
 30
0.0
  0
SPLINE
  5
10d
100
AcDbEntity
  8
Layer_1
 62
7
100
AcDbSpline
 70
8
 71
3
 72
8
 73
4
 74
0
 40
0
 40
0
 40
0
 40
0
 40
1
 40
1
 40
1
 40
1
 10
156.311975
 20
223.084786
 30
0.0
 10
155.736891
 20
224.865451
 30
0.0
 10
153.972585
 20
226.797767
 30
0.0
 10
152.171245
 20
227.619635
 30
0.0
  0
LWPOLYLINE
  5
10e
100
AcDbEntity
  8
Layer_1
 62
7
100
AcDbPolyline
 90
3
 70
0
 10
110.003827
 20
165.257343
 30
0.0
 10
151.532387
 20
165.304748
 30
0.0
 10
152.929717
 20
165.976680
 30
0.0
  0
LWPOLYLINE
  5
10f
100
AcDbEntity
  8
Layer_1
 62
7
100
AcDbPolyline
 90
4
 70
0
 10
152.171245
 20
227.619635
 30
0.0
 10
150.770607
 20
228.259046
 30
0.0
 10
110.023673
 20
228.279439
 30
0.0
 10
110.023673
 20
228.279439
 30
0.0
  0
SPLINE
  5
110
100
AcDbEntity
  8
Layer_1
 62
7
100
AcDbSpline
 70
8
 71
3
 72
8
 73
4
 74
0
 40
0
 40
0
 40
0
 40
0
 40
1
 40
1
 40
1
 40
1
 10
109.622387
 20
206.325638
 30
0.0
 10
114.861137
 20
206.325638
 30
0.0
 10
119.159452
 20
206.240243
 30
0.0
 10
119.173845
 20
206.135468
 30
0.0
  0
SPLINE
  5
111
100
AcDbEntity
  8
Layer_1
 62
7
100
AcDbSpline
 70
8
 71
3
 72
8
 73
4
 74
0
 40
0
 40
0
 40
0
 40
0
 40
1
 40
1
 40
1
 40
1
 10
119.173845
 20
206.135468
 30
0.0
 10
119.266555
 20
205.460350
 30
0.0
 10
119.292215
 20
198.773332
 30
0.0
 10
119.203061
 20
198.515468
 30
0.0
  0
SPLINE
  5
112
100
AcDbEntity
  8
Layer_1
 62
7
100
AcDbSpline
 70
8
 71
3
 72
8
 73
4
 74
0
 40
0
 40
0
 40
0
 40
0
 40
1
 40
1
 40
1
 40
1
 10
119.203061
 20
198.515468
 30
0.0
 10
119.117886
 20
198.269085
 30
0.0
 10
116.965781
 20
198.197968
 30
0.0
 10
109.595378
 20
198.197968
 30
0.0
  0
LWPOLYLINE
  5
113
100
AcDbEntity
  8
Layer_1
 62
7
100
AcDbPolyline
 90
2
 70
0
 10
100.097387
 20
206.325638
 30
0.0
 10
109.622387
 20
206.325638
 30
0.0
  0
SPLINE
  5
114
100
AcDbEntity
  8
Layer_1
 62
7
100
AcDbSpline
 70
8
 71
3
 72
8
 73
4
 74
0
 40
0
 40
0
 40
0
 40
0
 40
1
 40
1
 40
1
 40
1
 10
131.405864
 20
206.274375
 30
0.0
 10
134.348370
 20
206.316477
 30
0.0
 10
137.243021
 20
204.605454
 30
0.0
 10
138.538591
 20
201.791893
 30
0.0
  0
SPLINE
  5
115
100
AcDbEntity
  8
Layer_1
 62
7
100
AcDbSpline
 70
8
 71
3
 72
8
 73
4
 74
0
 40
0
 40
0
 40
0
 40
0
 40
1
 40
1
 40
1
 40
1
 10
138.538591
 20
201.791893
 30
0.0
 10
139.305022
 20
200.127465
 30
0.0
 10
139.282212
 20
197.018844
 30
0.0
 10
138.491736
 20
195.385118
 30
0.0
  0
SPLINE
  5
116
100
AcDbEntity
  8
Layer_1
 62
7
100
AcDbSpline
 70
8
 71
3
 72
8
 73
4
 74
0
 40
0
 40
0
 40
0
 40
0
 40
1
 40
1
 40
1
 40
1
 10
138.491736
 20
195.385118
 30
0.0
 10
137.840847
 20
194.039886
 30
0.0
 10
136.474166
 20
192.643166
 30
0.0
 10
135.022387
 20
191.839149
 30
0.0
  0
SPLINE
  5
117
100
AcDbEntity
  8
Layer_1
 62
7
100
AcDbSpline
 70
8
 71
3
 72
8
 73
4
 74
0
 40
0
 40
0
 40
0
 40
0
 40
1
 40
1
 40
1
 40
1
 10
135.022387
 20
191.839149
 30
0.0
 10
133.916132
 20
191.226489
 30
0.0
 10
130.510455
 20
190.909181
 30
0.0
 10
129.305733
 20
191.306674
 30
0.0
  0
SPLINE
  5
118
100
AcDbEntity
  8
Layer_1
 62
7
100
AcDbSpline
 70
8
 71
3
 72
8
 73
4
 74
0
 40
0
 40
0
 40
0
 40
0
 40
1
 40
1
 40
1
 40
1
 10
129.305733
 20
191.306674
 30
0.0
 10
122.395776
 20
193.586539
 30
0.0
 10
122.163470
 20
203.247824
 30
0.0
 10
128.956813
 20
205.812456
 30
0.0
  0
SPLINE
  5
119
100
AcDbEntity
  8
Layer_1
 62
7
100
AcDbSpline
 70
8
 71
3
 72
8
 73
4
 74
0
 40
0
 40
0
 40
0
 40
0
 40
1
 40
1
 40
1
 40
1
 10
128.956813
 20
205.812456
 30
0.0
 10
129.754147
 20
206.113463
 30
0.0
 10
130.581973
 20
206.262587
 30
0.0
 10
131.405864
 20
206.274375
 30
0.0
  0
LWPOLYLINE
  5
11a
100
AcDbEntity
  8
Layer_1
 62
7
100
AcDbPolyline
 90
5
 70
0
 10
109.595378
 20
198.197968
 30
0.0
 10
100.097387
 20
198.197968
 30
0.0
 10
100.097387
 20
202.262078
 30
0.0
 10
100.097387
 20
206.325638
 30
0.0
 10
100.097387
 20
206.325638
 30
0.0
  0
SPLINE
  5
11b
100
AcDbEntity
  8
Layer_1
 62
7
100
AcDbSpline
 70
8
 71
3
 72
8
 73
4
 74
0
 40
0
 40
0
 40
0
 40
0
 40
1
 40
1
 40
1
 40
1
 10
87.964589
 20
206.228074
 30
0.0
 10
88.960635
 20
206.206738
 30
0.0
 10
89.927534
 20
206.018244
 30
0.0
 10
90.712397
 20
205.658668
 30
0.0
  0
SPLINE
  5
11c
100
AcDbEntity
  8
Layer_1
 62
7
100
AcDbSpline
 70
8
 71
3
 72
8
 73
4
 74
0
 40
0
 40
0
 40
0
 40
0
 40
1
 40
1
 40
1
 40
1
 10
90.712397
 20
205.658668
 30
0.0
 10
96.502945
 20
203.005708
 30
0.0
 10
96.820208
 20
195.176093
 30
0.0
 10
91.269123
 20
191.922935
 30
0.0
  0
SPLINE
  5
11d
100
AcDbEntity
  8
Layer_1
 62
7
100
AcDbSpline
 70
8
 71
3
 72
8
 73
4
 74
0
 40
0
 40
0
 40
0
 40
0
 40
1
 40
1
 40
1
 40
1
 10
91.269123
 20
191.922935
 30
0.0
 10
90.317978
 20
191.365529
 30
0.0
 10
89.744344
 20
191.231507
 30
0.0
 10
88.056091
 20
191.172178
 30
0.0
  0
SPLINE
  5
11e
100
AcDbEntity
  8
Layer_1
 62
7
100
AcDbSpline
 70
8
 71
3
 72
8
 73
4
 74
0
 40
0
 40
0
 40
0
 40
0
 40
1
 40
1
 40
1
 40
1
 10
88.056091
 20
191.172178
 30
0.0
 10
85.259043
 20
191.073886
 30
0.0
 10
83.977751
 20
191.533443
 30
0.0
 10
82.269432
 20
193.247505
 30
0.0
  0
SPLINE
  5
11f
100
AcDbEntity
  8
Layer_1
 62
7
100
AcDbSpline
 70
8
 71
3
 72
8
 73
4
 74
0
 40
0
 40
0
 40
0
 40
0
 40
1
 40
1
 40
1
 40
1
 10
82.269432
 20
193.247505
 30
0.0
 10
80.738489
 20
194.783596
 30
0.0
 10
80.174369
 20
196.216000
 30
0.0
 10
80.169853
 20
198.578858
 30
0.0
  0
SPLINE
  5
120
100
AcDbEntity
  8
Layer_1
 62
7
100
AcDbSpline
 70
8
 71
3
 72
8
 73
4
 74
0
 40
0
 40
0
 40
0
 40
0
 40
1
 40
1
 40
1
 40
1
 10
80.169853
 20
198.578858
 30
0.0
 10
80.163786
 20
201.842603
 30
0.0
 10
81.531175
 20
204.128614
 30
0.0
 10
84.303416
 20
205.489995
 30
0.0
  0
SPLINE
  5
121
100
AcDbEntity
  8
Layer_1
 62
7
100
AcDbSpline
 70
8
 71
3
 72
8
 73
4
 74
0
 40
0
 40
0
 40
0
 40
0
 40
1
 40
1
 40
1
 40
1
 10
84.303416
 20
205.489995
 30
0.0
 10
85.355230
 20
206.006521
 30
0.0
 10
86.683977
 20
206.255494
 30
0.0
 10
87.964589
 20
206.228074
 30
0.0
  0
LWPOLYLINE
  5
122
100
AcDbEntity
  8
Layer_1
 62
7
100
AcDbPolyline
 90
2
 70
0
 10
131.405864
 20
206.274375
 30
0.0
 10
131.405864
 20
206.274375
 30
0.0
  0
SPLINE
  5
123
100
AcDbEntity
  8
Layer_1
 62
7
100
AcDbSpline
 70
8
 71
3
 72
8
 73
4
 74
0
 40
0
 40
0
 40
0
 40
0
 40
1
 40
1
 40
1
 40
1
 10
97.612508
 20
177.404475
 30
0.0
 10
99.515758
 20
177.452699
 30
0.0
 10
101.367387
 20
175.971540
 30
0.0
 10
101.367387
 20
173.810000
 30
0.0
  0
SPLINE
  5
124
100
AcDbEntity
  8
Layer_1
 62
7
100
AcDbSpline
 70
8
 71
3
 72
8
 73
4
 74
0
 40
0
 40
0
 40
0
 40
0
 40
1
 40
1
 40
1
 40
1
 10
101.367387
 20
173.810000
 30
0.0
 10
101.367387
 20
172.873685
 30
0.0
 10
100.539403
 20
171.259273
 30
0.0
 10
99.832803
 20
170.818004
 30
0.0
  0
SPLINE
  5
125
100
AcDbEntity
  8
Layer_1
 62
7
100
AcDbSpline
 70
8
 71
3
 72
8
 73
4
 74
0
 40
0
 40
0
 40
0
 40
0
 40
1
 40
1
 40
1
 40
1
 10
99.832803
 20
170.818004
 30
0.0
 10
99.014161
 20
170.306750
 30
0.0
 10
97.481796
 20
170.071058
 30
0.0
 10
96.668827
 20
170.331281
 30
0.0
  0
SPLINE
  5
126
100
AcDbEntity
  8
Layer_1
 62
7
100
AcDbSpline
 70
8
 71
3
 72
8
 73
4
 74
0
 40
0
 40
0
 40
0
 40
0
 40
1
 40
1
 40
1
 40
1
 10
96.668827
 20
170.331281
 30
0.0
 10
93.891619
 20
171.220222
 30
0.0
 10
93.213685
 20
174.740300
 30
0.0
 10
95.462770
 20
176.594187
 30
0.0
  0
SPLINE
  5
127
100
AcDbEntity
  8
Layer_1
 62
7
100
AcDbSpline
 70
8
 71
3
 72
8
 73
4
 74
0
 40
0
 40
0
 40
0
 40
0
 40
1
 40
1
 40
1
 40
1
 10
95.462770
 20
176.594187
 30
0.0
 10
96.115494
 20
177.132218
 30
0.0
 10
96.867751
 20
177.385606
 30
0.0
 10
97.612508
 20
177.404475
 30
0.0
  0
LWPOLYLINE
  5
128
100
AcDbEntity
  8
Layer_1
 62
7
100
AcDbPolyline
 90
2
 70
0
 10
87.964589
 20
206.228074
 30
0.0
 10
87.964589
 20
206.228074
 30
0.0
  0
SPLINE
  5
129
100
AcDbEntity
  8
Layer_1
 62
7
100
AcDbSpline
 70
8
 71
3
 72
8
 73
4
 74
0
 40
0
 40
0
 40
0
 40
0
 40
1
 40
1
 40
1
 40
1
 10
121.456981
 20
177.366993
 30
0.0
 10
122.677676
 20
177.361264
 30
0.0
 10
123.911442
 20
176.818684
 30
0.0
 10
124.617647
 20
175.740908
 30
0.0
  0
SPLINE
  5
12a
100
AcDbEntity
  8
Layer_1
 62
7
100
AcDbSpline
 70
8
 71
3
 72
8
 73
4
 74
0
 40
0
 40
0
 40
0
 40
0
 40
1
 40
1
 40
1
 40
1
 10
124.617647
 20
175.740908
 30
0.0
 10
125.512150
 20
174.375720
 30
0.0
 10
124.963465
 20
171.767832
 30
0.0
 10
123.592937
 20
170.869817
 30
0.0
  0
SPLINE
  5
12b
100
AcDbEntity
  8
Layer_1
 62
7
100
AcDbSpline
 70
8
 71
3
 72
8
 73
4
 74
0
 40
0
 40
0
 40
0
 40
0
 40
1
 40
1
 40
1
 40
1
 10
123.592937
 20
170.869817
 30
0.0
 10
122.230199
 20
169.976917
 30
0.0
 10
120.206172
 20
170.036102
 30
0.0
 10
119.041553
 20
171.002659
 30
0.0
  0
SPLINE
  5
12c
100
AcDbEntity
  8
Layer_1
 62
7
100
AcDbSpline
 70
8
 71
3
 72
8
 73
4
 74
0
 40
0
 40
0
 40
0
 40
0
 40
1
 40
1
 40
1
 40
1
 10
119.041553
 20
171.002659
 30
0.0
 10
117.896042
 20
171.953336
 30
0.0
 10
117.551299
 20
174.419010
 30
0.0
 10
118.375134
 20
175.770121
 30
0.0
  0
SPLINE
  5
12d
100
AcDbEntity
  8
Layer_1
 62
7
100
AcDbSpline
 70
8
 71
3
 72
8
 73
4
 74
0
 40
0
 40
0
 40
0
 40
0
 40
1
 40
1
 40
1
 40
1
 10
118.375134
 20
175.770121
 30
0.0
 10
119.028393
 20
176.841524
 30
0.0
 10
120.236257
 20
177.372714
 30
0.0
 10
121.456981
 20
177.366993
 30
0.0
  0
LWPOLYLINE
  5
12e
100
AcDbEntity
  8
Layer_1
 62
7
100
AcDbPolyline
 90
2
 70
0
 10
97.612508
 20
177.404475
 30
0.0
 10
97.612508
 20
177.404475
 30
0.0
  0
SPLINE
  5
12f
100
AcDbEntity
  8
Layer_1
 62
7
100
AcDbSpline
 70
8
 71
3
 72
8
 73
4
 74
0
 40
0
 40
0
 40
0
 40
0
 40
1
 40
1
 40
1
 40
1
 10
87.016497
 20
175.083858
 30
0.0
 10
87.984322
 20
175.083858
 30
0.0
 10
88.333433
 20
174.949272
 30
0.0
 10
88.941340
 20
174.341371
 30
0.0
  0
SPLINE
  5
130
100
AcDbEntity
  8
Layer_1
 62
7
100
AcDbSpline
 70
8
 71
3
 72
8
 73
4
 74
0
 40
0
 40
0
 40
0
 40
0
 40
1
 40
1
 40
1
 40
1
 10
88.941340
 20
174.341371
 30
0.0
 10
89.349687
 20
173.933018
 30
0.0
 10
89.697749
 20
173.418448
 30
0.0
 10
89.715247
 20
173.198151
 30
0.0
  0
SPLINE
  5
131
100
AcDbEntity
  8
Layer_1
 62
7
100
AcDbSpline
 70
8
 71
3
 72
8
 73
4
 74
0
 40
0
 40
0
 40
0
 40
0
 40
1
 40
1
 40
1
 40
1
 10
89.715247
 20
173.198151
 30
0.0
 10
89.786028
 20
172.305118
 30
0.0
 10
89.774262
 20
172.132161
 30
0.0
 10
89.592878
 20
171.400638
 30
0.0
  0
SPLINE
  5
132
100
AcDbEntity
  8
Layer_1
 62
7
100
AcDbSpline
 70
8
 71
3
 72
8
 73
4
 74
0
 40
0
 40
0
 40
0
 40
0
 40
1
 40
1
 40
1
 40
1
 10
89.592878
 20
171.400638
 30
0.0
 10
89.488964
 20
170.981538
 30
0.0
 10
89.120907
 20
170.431371
 30
0.0
 10
88.774874
 20
170.177492
 30
0.0
  0
SPLINE
  5
133
100
AcDbEntity
  8
Layer_1
 62
7
100
AcDbSpline
 70
8
 71
3
 72
8
 73
4
 74
0
 40
0
 40
0
 40
0
 40
0
 40
1
 40
1
 40
1
 40
1
 10
88.774874
 20
170.177492
 30
0.0
 10
86.961907
 20
168.847385
 30
0.0
 10
84.569314
 20
169.847606
 30
0.0
 10
84.330977
 20
172.035638
 30
0.0
  0
SPLINE
  5
134
100
AcDbEntity
  8
Layer_1
 62
7
100
AcDbSpline
 70
8
 71
3
 72
8
 73
4
 74
0
 40
0
 40
0
 40
0
 40
0
 40
1
 40
1
 40
1
 40
1
 10
84.330977
 20
172.035638
 30
0.0
 10
84.133789
 20
173.845676
 30
0.0
 10
85.224442
 20
175.083858
 30
0.0
 10
87.016497
 20
175.083858
 30
0.0
  0
LWPOLYLINE
  5
135
100
AcDbEntity
  8
Layer_1
 62
7
100
AcDbPolyline
 90
2
 70
0
 10
121.456981
 20
177.366993
 30
0.0
 10
121.456981
 20
177.366993
 30
0.0
  0
SPLINE
  5
136
100
AcDbEntity
  8
Layer_1
 62
7
100
AcDbSpline
 70
8
 71
3
 72
8
 73
4
 74
0
 40
0
 40
0
 40
0
 40
0
 40
1
 40
1
 40
1
 40
1
 10
132.199064
 20
175.078346
 30
0.0
 10
134.593293
 20
175.065420
 30
0.0
 10
135.802074
 20
172.295960
 30
0.0
 10
134.197217
 20
170.499951
 30
0.0
  0
SPLINE
  5
137
100
AcDbEntity
  8
Layer_1
 62
7
100
AcDbSpline
 70
8
 71
3
 72
8
 73
4
 74
0
 40
0
 40
0
 40
0
 40
0
 40
1
 40
1
 40
1
 40
1
 10
134.197217
 20
170.499951
 30
0.0
 10
132.736153
 20
168.864866
 30
0.0
 10
130.163229
 20
169.418752
 30
0.0
 10
129.538897
 20
171.502613
 30
0.0
  0
SPLINE
  5
138
100
AcDbEntity
  8
Layer_1
 62
7
100
AcDbSpline
 70
8
 71
3
 72
8
 73
4
 74
0
 40
0
 40
0
 40
0
 40
0
 40
1
 40
1
 40
1
 40
1
 10
129.538897
 20
171.502613
 30
0.0
 10
128.972448
 20
173.393231
 30
0.0
 10
130.233951
 20
175.088958
 30
0.0
 10
132.199064
 20
175.078346
 30
0.0
  0
LWPOLYLINE
  5
139
100
AcDbEntity
  8
Layer_1
 62
7
100
AcDbPolyline
 90
2
 70
0
 10
87.016497
 20
175.083858
 30
0.0
 10
87.016497
 20
175.083858
 30
0.0
  0
LWPOLYLINE
  5
13a
100
AcDbEntity
  8
Layer_1
 62
7
100
AcDbPolyline
 90
2
 70
0
 10
132.199064
 20
175.078346
 30
0.0
 10
132.199064
 20
175.078346
 30
0.0
  0
ENDSEC
  0
SECTION
  2
OBJECTS
  0
DICTIONARY
  5
C
330
0
100
AcDbDictionary
  3
ACAD_GROUP
350
D
  3
ACAD_MLINESTYLE
350
17
  0
DICTIONARY
  5
D
330
C
100
AcDbDictionary
  0
DICTIONARY
  5
1A
330
C
100
AcDbDictionary
  0
DICTIONARY
  5
17
330
C
100
AcDbDictionary
  3
STANDARD
350
18
  0
DICTIONARY
  5
19
330
C
100
AcDbDictionary
  0
ENDSEC
  0
EOF
