  0
SECTION
  2
HEADER
  9
$ACADVER
  1
AC1014
  9
$HANDSEED
  5
FFFF
  9
$MEASUREMENT
 70
     1
  0
ENDSEC
  0
SECTION
  2
TABLES
  0
TABLE
  2
VPORT
  5
8
330
0
100
AcDbSymbolTable
 70
     4
  0
VPORT
  5
2E
330
8
100
AcDbSymbolTableRecord
100
AcDbViewportTableRecord
  2
*ACTIVE
 70
     0
 10
0.0
 20
0.0
 11
1.0
 21
1.0
 12
210.0
 22
148.5
 13
0.0
 23
0.0
 14
10.0
 24
10.0
 15
10.0
 25
10.0
 16
0.0
 26
0.0
 36
1.0
 17
0.0
 27
0.0
 37
0.0
 40
341.0
 41
1.24
 42
50.0
 43
0.0
 44
0.0
 50
0.0
 51
0.0
 71
     0
 72
   100
 73
     1
 74
     3
 75
     0
 76
     0
 77
     0
 78
     0
  0
ENDTAB
  0
TABLE
  2
LTYPE
  5
5
330
0
100
AcDbSymbolTable
 70
     1
  0
LTYPE
  5
14
330
5
100
AcDbSymbolTableRecord
100
AcDbLinetypeTableRecord
  2
BYBLOCK
 70
     0
  3

 72
    65
 73
     0
 40
0.0
  0
LTYPE
  5
15
330
5
100
AcDbSymbolTableRecord
100
AcDbLinetypeTableRecord
  2
BYLAYER
 70
     0
  3

 72
    65
 73
     0
 40
0.0
  0
LTYPE
  5
16
330
5
100
AcDbSymbolTableRecord
100
AcDbLinetypeTableRecord
  2
CONTINUOUS
 70
     0
  3
Solid line
 72
    65
 73
     0
 40
0.0
  0
ENDTAB
  0
TABLE
  2
LAYER
  5
2
100
AcDbSymbolTable
 70
2
  0
LAYER
  5
50
100
AcDbSymbolTableRecord
100
AcDbLayerTableRecord
  2
0
 70
0
  6
CONTINUOUS
  0
LAYER
  5
51
100
AcDbSymbolTableRecord
100
AcDbLayerTableRecord
  2
Layer_1
 70
0
  6
CONTINUOUS
  0
ENDTAB
  0
TABLE
  2
STYLE
  5
3
330
0
100
AcDbSymbolTable
 70
     1
  0
STYLE
  5
11
330
3
100
AcDbSymbolTableRecord
100
AcDbTextStyleTableRecord
  2
STANDARD
 70
     0
 40
0.0
 41
1.0
 50
0.0
 71
     0
 42
2.5
  3
txt
  4

  0
ENDTAB
  0
TABLE
  2
VIEW
  5
6
330
0
100
AcDbSymbolTable
 70
     0
  0
ENDTAB
  0
TABLE
  2
UCS
  5
7
330
0
100
AcDbSymbolTable
 70
     0
  0
ENDTAB
  0
TABLE
  2
APPID
  5
9
330
0
100
AcDbSymbolTable
 70
     2
  0
APPID
  5
12
330
9
100
AcDbSymbolTableRecord
100
AcDbRegAppTableRecord
  2
ACAD
 70
     0
  0
ENDTAB
  0
TABLE
  2
DIMSTYLE
  5
A
330
0
100
AcDbSymbolTable
 70
     1
  0
DIMSTYLE
105
27
330
A
100
AcDbSymbolTableRecord
100
AcDbDimStyleTableRecord
  2
ISO-25
 70
     0
  3

  4

  5

  6

  7

 40
1.0
 41
2.5
 42
0.625
 43
3.75
 44
1.25
 45
0.0
 46
0.0
 47
0.0
 48
0.0
140
2.5
141
2.5
142
0.0
143
0.03937007874016
144
1.0
145
0.0
146
1.0
147
0.625
 71
     0
 72
     0
 73
     0
 74
     0
 75
     0
 76
     0
 77
     1
 78
     8
170
     0
171
     3
172
     1
173
     0
174
     0
175
     0
176
     0
177
     0
178
     0
270
     2
271
     2
272
     2
273
     2
274
     3
340
11
275
     0
280
     0
281
     0
282
     0
283
     0
284
     8
285
     0
286
     0
287
     3
288
     0
  0
ENDTAB
  0
TABLE
  2
BLOCK_RECORD
  5
1
330
0
100
AcDbSymbolTable
 70
     1
  0
BLOCK_RECORD
  5
1F
330
1
100
AcDbSymbolTableRecord
100
AcDbBlockTableRecord
  2
*MODEL_SPACE
  0
BLOCK_RECORD
  5
1B
330
1
100
AcDbSymbolTableRecord
100
AcDbBlockTableRecord
  2
*PAPER_SPACE
  0
ENDTAB
  0
ENDSEC
  0
SECTION
  2
BLOCKS
  0
BLOCK
  5
20
330
1F
100
AcDbEntity
  8
0
100
AcDbBlockBegin
  2
*MODEL_SPACE
 70
     0
 10
0.0
 20
0.0
 30
0.0
  3
*MODEL_SPACE
  1

  0
ENDBLK
  5
21
330
1F
100
AcDbEntity
  8
0
100
AcDbBlockEnd
  0
BLOCK
  5
1C
330
1B
100
AcDbEntity
 67
     1
  8
0
100
AcDbBlockBegin
  2
*PAPER_SPACE
  1

  0
ENDBLK
  5
1D
330
1B
100
AcDbEntity
 67
     1
  8
0
100
AcDbBlockEnd
  0
ENDSEC
  0
SECTION
  2
ENTITIES
  0
SPLINE
  5
100
100
AcDbEntity
  8
Layer_1
 62
7
100
AcDbSpline
 70
8
 71
3
 72
8
 73
4
 74
0
 40
0
 40
0
 40
0
 40
0
 40
1
 40
1
 40
1
 40
1
 10
29.817438
 20
90.451919
 30
0.0
 10
29.328867
 20
90.451920
 30
0.0
 10
28.860305
 20
90.257836
 30
0.0
 10
28.514833
 20
89.912363
 30
0.0
  0
SPLINE
  5
101
100
AcDbEntity
  8
Layer_1
 62
7
100
AcDbSpline
 70
8
 71
3
 72
8
 73
4
 74
0
 40
0
 40
0
 40
0
 40
0
 40
1
 40
1
 40
1
 40
1
 10
28.514833
 20
89.912363
 30
0.0
 10
28.169361
 20
89.566891
 30
0.0
 10
27.975277
 20
89.098330
 30
0.0
 10
27.975278
 20
88.609758
 30
0.0
  0
SPLINE
  5
102
100
AcDbEntity
  8
Layer_1
 62
7
100
AcDbSpline
 70
8
 71
3
 72
8
 73
4
 74
0
 40
0
 40
0
 40
0
 40
0
 40
1
 40
1
 40
1
 40
1
 10
27.975278
 20
88.609758
 30
0.0
 10
27.975845
 20
88.189693
 30
0.0
 10
28.119960
 20
87.782438
 30
0.0
 10
28.383730
 20
87.455512
 30
0.0
  0
SPLINE
  5
103
100
AcDbEntity
  8
Layer_1
 62
7
100
AcDbSpline
 70
8
 71
3
 72
8
 73
4
 74
0
 40
0
 40
0
 40
0
 40
0
 40
1
 40
1
 40
1
 40
1
 10
28.383730
 20
87.455512
 30
0.0
 10
25.755121
 20
87.068348
 30
0.0
 10
23.138359
 20
86.606299
 30
0.0
 10
20.517335
 20
86.171181
 30
0.0
  0
SPLINE
  5
104
100
AcDbEntity
  8
Layer_1
 62
7
100
AcDbSpline
 70
8
 71
3
 72
8
 73
4
 74
0
 40
0
 40
0
 40
0
 40
0
 40
1
 40
1
 40
1
 40
1
 10
20.517335
 20
86.171181
 30
0.0
 10
19.364350
 20
86.866539
 30
0.0
 10
18.347408
 20
87.790634
 30
0.0
 10
17.155473
 20
88.412423
 30
0.0
  0
SPLINE
  5
105
100
AcDbEntity
  8
Layer_1
 62
7
100
AcDbSpline
 70
8
 71
3
 72
8
 73
4
 74
0
 40
0
 40
0
 40
0
 40
0
 40
1
 40
1
 40
1
 40
1
 10
17.155473
 20
88.412423
 30
0.0
 10
16.055161
 20
88.487488
 30
0.0
 10
14.991413
 20
88.096549
 30
0.0
 10
13.903854
 20
87.996255
 30
0.0
  0
SPLINE
  5
106
100
AcDbEntity
  8
Layer_1
 62
7
100
AcDbSpline
 70
8
 71
3
 72
8
 73
4
 74
0
 40
0
 40
0
 40
0
 40
0
 40
1
 40
1
 40
1
 40
1
 10
13.903854
 20
87.996255
 30
0.0
 10
13.390873
 20
87.923718
 30
0.0
 10
12.869368
 20
87.855059
 30
0.0
 10
12.385807
 20
87.658909
 30
0.0
  0
SPLINE
  5
107
100
AcDbEntity
  8
Layer_1
 62
7
100
AcDbSpline
 70
8
 71
3
 72
8
 73
4
 74
0
 40
0
 40
0
 40
0
 40
0
 40
1
 40
1
 40
1
 40
1
 10
12.385807
 20
87.658909
 30
0.0
 10
11.879839
 20
85.699503
 30
0.0
 10
11.623728
 20
83.686680
 30
0.0
 10
11.255265
 20
81.699722
 30
0.0
  0
SPLINE
  5
108
100
AcDbEntity
  8
Layer_1
 62
7
100
AcDbSpline
 70
8
 71
3
 72
8
 73
4
 74
0
 40
0
 40
0
 40
0
 40
0
 40
1
 40
1
 40
1
 40
1
 10
11.255265
 20
81.699722
 30
0.0
 10
11.092261
 20
80.887662
 30
0.0
 10
11.656692
 20
80.186385
 30
0.0
 10
11.946489
 20
79.470057
 30
0.0
  0
SPLINE
  5
109
100
AcDbEntity
  8
Layer_1
 62
7
100
AcDbSpline
 70
8
 71
3
 72
8
 73
4
 74
0
 40
0
 40
0
 40
0
 40
0
 40
1
 40
1
 40
1
 40
1
 10
11.946489
 20
79.470057
 30
0.0
 10
12.372454
 20
78.556797
 30
0.0
 10
12.966063
 20
77.690375
 30
0.0
 10
13.308542
 20
76.760283
 30
0.0
  0
SPLINE
  5
10a
100
AcDbEntity
  8
Layer_1
 62
7
100
AcDbSpline
 70
8
 71
3
 72
8
 73
4
 74
0
 40
0
 40
0
 40
0
 40
0
 40
1
 40
1
 40
1
 40
1
 10
13.308542
 20
76.760283
 30
0.0
 10
13.054529
 20
74.387172
 30
0.0
 10
12.658240
 20
72.004864
 30
0.0
 10
12.491641
 20
69.633619
 30
0.0
  0
SPLINE
  5
10b
100
AcDbEntity
  8
Layer_1
 62
7
100
AcDbSpline
 70
8
 71
3
 72
8
 73
4
 74
0
 40
0
 40
0
 40
0
 40
0
 40
1
 40
1
 40
1
 40
1
 10
12.491641
 20
69.633619
 30
0.0
 10
14.097703
 20
66.536732
 30
0.0
 10
15.507568
 20
63.330922
 30
0.0
 10
17.292174
 20
60.330759
 30
0.0
  0
SPLINE
  5
10c
100
AcDbEntity
  8
Layer_1
 62
7
100
AcDbSpline
 70
8
 71
3
 72
8
 73
4
 74
0
 40
0
 40
0
 40
0
 40
0
 40
1
 40
1
 40
1
 40
1
 10
17.292174
 20
60.330759
 30
0.0
 10
18.093027
 20
59.205426
 30
0.0
 10
18.851386
 20
58.021004
 30
0.0
 10
19.794141
 20
57.015751
 30
0.0
  0
SPLINE
  5
10d
100
AcDbEntity
  8
Layer_1
 62
7
100
AcDbSpline
 70
8
 71
3
 72
8
 73
4
 74
0
 40
0
 40
0
 40
0
 40
0
 40
1
 40
1
 40
1
 40
1
 10
19.794141
 20
57.015751
 30
0.0
 10
20.830685
 20
56.413534
 30
0.0
 10
21.963422
 20
55.998484
 30
0.0
 10
23.039696
 20
55.474002
 30
0.0
  0
SPLINE
  5
10e
100
AcDbEntity
  8
Layer_1
 62
7
100
AcDbSpline
 70
8
 71
3
 72
8
 73
4
 74
0
 40
0
 40
0
 40
0
 40
0
 40
1
 40
1
 40
1
 40
1
 10
23.039696
 20
55.474002
 30
0.0
 10
23.934575
 20
55.106272
 30
0.0
 10
24.844811
 20
54.728086
 30
0.0
 10
25.555443
 20
54.050764
 30
0.0
  0
SPLINE
  5
10f
100
AcDbEntity
  8
Layer_1
 62
7
100
AcDbSpline
 70
8
 71
3
 72
8
 73
4
 74
0
 40
0
 40
0
 40
0
 40
0
 40
1
 40
1
 40
1
 40
1
 10
25.555443
 20
54.050764
 30
0.0
 10
25.946445
 20
53.718588
 30
0.0
 10
26.462648
 20
53.601695
 30
0.0
 10
26.953325
 20
53.769645
 30
0.0
  0
SPLINE
  5
110
100
AcDbEntity
  8
Layer_1
 62
7
100
AcDbSpline
 70
8
 71
3
 72
8
 73
4
 74
0
 40
0
 40
0
 40
0
 40
0
 40
1
 40
1
 40
1
 40
1
 10
26.953325
 20
53.769645
 30
0.0
 10
27.833139
 20
53.884600
 30
0.0
 10
28.703352
 20
54.244543
 30
0.0
 10
29.584275
 20
54.163213
 30
0.0
  0
SPLINE
  5
111
100
AcDbEntity
  8
Layer_1
 62
7
100
AcDbSpline
 70
8
 71
3
 72
8
 73
4
 74
0
 40
0
 40
0
 40
0
 40
0
 40
1
 40
1
 40
1
 40
1
 10
29.584275
 20
54.163213
 30
0.0
 10
30.499315
 20
53.978983
 30
0.0
 10
31.424101
 20
53.660882
 30
0.0
 10
32.359645
 20
53.611996
 30
0.0
  0
SPLINE
  5
112
100
AcDbEntity
  8
Layer_1
 62
7
100
AcDbSpline
 70
8
 71
3
 72
8
 73
4
 74
0
 40
0
 40
0
 40
0
 40
0
 40
1
 40
1
 40
1
 40
1
 10
32.359645
 20
53.611996
 30
0.0
 10
33.208344
 20
53.976793
 30
0.0
 10
33.865422
 20
54.679846
 30
0.0
 10
34.749715
 20
54.980113
 30
0.0
  0
SPLINE
  5
113
100
AcDbEntity
  8
Layer_1
 62
7
100
AcDbSpline
 70
8
 71
3
 72
8
 73
4
 74
0
 40
0
 40
0
 40
0
 40
0
 40
1
 40
1
 40
1
 40
1
 10
34.749715
 20
54.980113
 30
0.0
 10
36.159276
 20
55.666695
 30
0.0
 10
37.713917
 20
56.086049
 30
0.0
 10
39.021080
 20
56.966142
 30
0.0
  0
SPLINE
  5
114
100
AcDbEntity
  8
Layer_1
 62
7
100
AcDbSpline
 70
8
 71
3
 72
8
 73
4
 74
0
 40
0
 40
0
 40
0
 40
0
 40
1
 40
1
 40
1
 40
1
 10
39.021080
 20
56.966142
 30
0.0
 10
40.067478
 20
57.858365
 30
0.0
 10
40.731762
 20
59.092035
 30
0.0
 10
41.585334
 20
60.152166
 30
0.0
  0
SPLINE
  5
115
100
AcDbEntity
  8
Layer_1
 62
7
100
AcDbSpline
 70
8
 71
3
 72
8
 73
4
 74
0
 40
0
 40
0
 40
0
 40
0
 40
1
 40
1
 40
1
 40
1
 10
41.585334
 20
60.152166
 30
0.0
 10
43.238866
 20
62.611388
 30
0.0
 10
44.461492
 20
65.324004
 30
0.0
 10
45.927809
 20
67.893434
 30
0.0
  0
SPLINE
  5
116
100
AcDbEntity
  8
Layer_1
 62
7
100
AcDbSpline
 70
8
 71
3
 72
8
 73
4
 74
0
 40
0
 40
0
 40
0
 40
0
 40
1
 40
1
 40
1
 40
1
 10
45.927809
 20
67.893434
 30
0.0
 10
46.208752
 20
68.490940
 30
0.0
 10
46.647509
 20
69.064111
 30
0.0
 10
46.781091
 20
69.700869
 30
0.0
  0
SPLINE
  5
117
100
AcDbEntity
  8
Layer_1
 62
7
100
AcDbSpline
 70
8
 71
3
 72
8
 73
4
 74
0
 40
0
 40
0
 40
0
 40
0
 40
1
 40
1
 40
1
 40
1
 10
46.781091
 20
69.700869
 30
0.0
 10
46.574055
 20
72.075126
 30
0.0
 10
46.188839
 20
74.438712
 30
0.0
 10
46.101993
 20
76.811546
 30
0.0
  0
SPLINE
  5
118
100
AcDbEntity
  8
Layer_1
 62
7
100
AcDbSpline
 70
8
 71
3
 72
8
 73
4
 74
0
 40
0
 40
0
 40
0
 40
0
 40
1
 40
1
 40
1
 40
1
 10
46.101993
 20
76.811546
 30
0.0
 10
46.361519
 20
77.564975
 30
0.0
 10
46.885321
 20
78.196142
 30
0.0
 10
47.222613
 20
78.916636
 30
0.0
  0
SPLINE
  5
119
100
AcDbEntity
  8
Layer_1
 62
7
100
AcDbSpline
 70
8
 71
3
 72
8
 73
4
 74
0
 40
0
 40
0
 40
0
 40
0
 40
1
 40
1
 40
1
 40
1
 10
47.222613
 20
78.916636
 30
0.0
 10
47.646449
 20
79.694107
 30
0.0
 10
48.151584
 20
80.465251
 30
0.0
 10
48.408827
 20
81.308909
 30
0.0
  0
SPLINE
  5
11a
100
AcDbEntity
  8
Layer_1
 62
7
100
AcDbSpline
 70
8
 71
3
 72
8
 73
4
 74
0
 40
0
 40
0
 40
0
 40
0
 40
1
 40
1
 40
1
 40
1
 10
48.408827
 20
81.308909
 30
0.0
 10
48.014472
 20
83.452040
 30
0.0
 10
47.778729
 20
85.642369
 30
0.0
 10
47.256237
 20
87.755373
 30
0.0
  0
SPLINE
  5
11b
100
AcDbEntity
  8
Layer_1
 62
7
100
AcDbSpline
 70
8
 71
3
 72
8
 73
4
 74
0
 40
0
 40
0
 40
0
 40
0
 40
1
 40
1
 40
1
 40
1
 10
47.256237
 20
87.755373
 30
0.0
 10
46.816464
 20
88.265808
 30
0.0
 10
46.063275
 20
88.099396
 30
0.0
 10
45.475260
 20
88.253673
 30
0.0
  0
SPLINE
  5
11c
100
AcDbEntity
  8
Layer_1
 62
7
100
AcDbSpline
 70
8
 71
3
 72
8
 73
4
 74
0
 40
0
 40
0
 40
0
 40
0
 40
1
 40
1
 40
1
 40
1
 10
45.475260
 20
88.253673
 30
0.0
 10
44.406473
 20
88.364789
 30
0.0
 10
43.318230
 20
88.631357
 30
0.0
 10
42.250651
 20
88.610859
 30
0.0
  0
SPLINE
  5
11d
100
AcDbEntity
  8
Layer_1
 62
7
100
AcDbSpline
 70
8
 71
3
 72
8
 73
4
 74
0
 40
0
 40
0
 40
0
 40
0
 40
1
 40
1
 40
1
 40
1
 10
42.250651
 20
88.610859
 30
0.0
 10
41.078940
 20
87.902490
 30
0.0
 10
40.041678
 20
86.982126
 30
0.0
 10
38.813825
 20
86.365208
 30
0.0
  0
SPLINE
  5
11e
100
AcDbEntity
  8
Layer_1
 62
7
100
AcDbSpline
 70
8
 71
3
 72
8
 73
4
 74
0
 40
0
 40
0
 40
0
 40
0
 40
1
 40
1
 40
1
 40
1
 10
38.813825
 20
86.365208
 30
0.0
 10
36.857076
 20
86.534502
 30
0.0
 10
34.925714
 20
86.909003
 30
0.0
 10
32.975352
 20
87.172739
 30
0.0
  0
SPLINE
  5
11f
100
AcDbEntity
  8
Layer_1
 62
7
100
AcDbSpline
 70
8
 71
3
 72
8
 73
4
 74
0
 40
0
 40
0
 40
0
 40
0
 40
1
 40
1
 40
1
 40
1
 10
32.975352
 20
87.172739
 30
0.0
 10
32.396249
 20
87.251146
 30
0.0
 10
31.814570
 20
87.350556
 30
0.0
 10
31.231307
 20
87.431811
 30
0.0
  0
SPLINE
  5
120
100
AcDbEntity
  8
Layer_1
 62
7
100
AcDbSpline
 70
8
 71
3
 72
8
 73
4
 74
0
 40
0
 40
0
 40
0
 40
0
 40
1
 40
1
 40
1
 40
1
 10
31.231307
 20
87.431811
 30
0.0
 10
31.507367
 20
87.762329
 30
0.0
 10
31.658909
 20
88.179118
 30
0.0
 10
31.659601
 20
88.609758
 30
0.0
  0
SPLINE
  5
121
100
AcDbEntity
  8
Layer_1
 62
7
100
AcDbSpline
 70
8
 71
3
 72
8
 73
4
 74
0
 40
0
 40
0
 40
0
 40
0
 40
1
 40
1
 40
1
 40
1
 10
31.659601
 20
88.609758
 30
0.0
 10
31.659602
 20
89.098330
 30
0.0
 10
31.465518
 20
89.566892
 30
0.0
 10
31.120045
 20
89.912364
 30
0.0
  0
SPLINE
  5
122
100
AcDbEntity
  8
Layer_1
 62
7
100
AcDbSpline
 70
8
 71
3
 72
8
 73
4
 74
0
 40
0
 40
0
 40
0
 40
0
 40
1
 40
1
 40
1
 40
1
 10
31.120045
 20
89.912364
 30
0.0
 10
30.774572
 20
90.257837
 30
0.0
 10
30.306010
 20
90.451920
 30
0.0
 10
29.817438
 20
90.451919
 30
0.0
  0
SPLINE
  5
123
100
AcDbEntity
  8
Layer_1
 62
7
100
AcDbSpline
 70
8
 71
3
 72
8
 73
4
 74
0
 40
0
 40
0
 40
0
 40
0
 40
1
 40
1
 40
1
 40
1
 10
29.817438
 20
89.530839
 30
0.0
 10
30.061724
 20
89.530840
 30
0.0
 10
30.296006
 20
89.433798
 30
0.0
 10
30.468743
 20
89.261062
 30
0.0
  0
SPLINE
  5
124
100
AcDbEntity
  8
Layer_1
 62
7
100
AcDbSpline
 70
8
 71
3
 72
8
 73
4
 74
0
 40
0
 40
0
 40
0
 40
0
 40
1
 40
1
 40
1
 40
1
 10
30.468743
 20
89.261062
 30
0.0
 10
30.641479
 20
89.088326
 30
0.0
 10
30.738522
 20
88.854045
 30
0.0
 10
30.738521
 20
88.609758
 30
0.0
  0
SPLINE
  5
125
100
AcDbEntity
  8
Layer_1
 62
7
100
AcDbSpline
 70
8
 71
3
 72
8
 73
4
 74
0
 40
0
 40
0
 40
0
 40
0
 40
1
 40
1
 40
1
 40
1
 10
30.738521
 20
88.609758
 30
0.0
 10
30.738522
 20
88.365472
 30
0.0
 10
30.641480
 20
88.131190
 30
0.0
 10
30.468744
 20
87.958453
 30
0.0
  0
SPLINE
  5
126
100
AcDbEntity
  8
Layer_1
 62
7
100
AcDbSpline
 70
8
 71
3
 72
8
 73
4
 74
0
 40
0
 40
0
 40
0
 40
0
 40
1
 40
1
 40
1
 40
1
 10
30.468744
 20
87.958453
 30
0.0
 10
30.296007
 20
87.785716
 30
0.0
 10
30.061725
 20
87.688674
 30
0.0
 10
29.817438
 20
87.688675
 30
0.0
  0
SPLINE
  5
127
100
AcDbEntity
  8
Layer_1
 62
7
100
AcDbSpline
 70
8
 71
3
 72
8
 73
4
 74
0
 40
0
 40
0
 40
0
 40
0
 40
1
 40
1
 40
1
 40
1
 10
29.817438
 20
87.688675
 30
0.0
 10
29.573152
 20
87.688675
 30
0.0
 10
29.338871
 20
87.785717
 30
0.0
 10
29.166135
 20
87.958454
 30
0.0
  0
SPLINE
  5
128
100
AcDbEntity
  8
Layer_1
 62
7
100
AcDbSpline
 70
8
 71
3
 72
8
 73
4
 74
0
 40
0
 40
0
 40
0
 40
0
 40
1
 40
1
 40
1
 40
1
 10
29.166135
 20
87.958454
 30
0.0
 10
28.993398
 20
88.131191
 30
0.0
 10
28.896357
 20
88.365472
 30
0.0
 10
28.896358
 20
88.609758
 30
0.0
  0
SPLINE
  5
129
100
AcDbEntity
  8
Layer_1
 62
7
100
AcDbSpline
 70
8
 71
3
 72
8
 73
4
 74
0
 40
0
 40
0
 40
0
 40
0
 40
1
 40
1
 40
1
 40
1
 10
28.896358
 20
88.609758
 30
0.0
 10
28.896358
 20
88.854044
 30
0.0
 10
28.993400
 20
89.088325
 30
0.0
 10
29.166136
 20
89.261061
 30
0.0
  0
SPLINE
  5
12a
100
AcDbEntity
  8
Layer_1
 62
7
100
AcDbSpline
 70
8
 71
3
 72
8
 73
4
 74
0
 40
0
 40
0
 40
0
 40
0
 40
1
 40
1
 40
1
 40
1
 10
29.166136
 20
89.261061
 30
0.0
 10
29.338872
 20
89.433797
 30
0.0
 10
29.573152
 20
89.530839
 30
0.0
 10
29.817438
 20
89.530839
 30
0.0
  0
LWPOLYLINE
  5
12b
100
AcDbEntity
  8
Layer_1
 62
7
100
AcDbPolyline
 90
2
 70
0
 10
29.817438
 20
90.451919
 30
0.0
 10
29.817438
 20
90.451919
 30
0.0
  0
LWPOLYLINE
  5
12c
100
AcDbEntity
  8
Layer_1
 62
7
100
AcDbPolyline
 90
2
 70
0
 10
29.817438
 20
89.530839
 30
0.0
 10
29.817438
 20
89.530839
 30
0.0
  0
SPLINE
  5
12d
100
AcDbEntity
  8
Layer_1
 62
7
100
AcDbSpline
 70
8
 71
3
 72
8
 73
4
 74
0
 40
0
 40
0
 40
0
 40
0
 40
1
 40
1
 40
1
 40
1
 10
43.755468
 20
87.305031
 30
0.0
 10
44.012406
 20
87.226201
 30
0.0
 10
44.872882
 20
87.295300
 30
0.0
 10
44.298416
 20
86.990839
 30
0.0
  0
SPLINE
  5
12e
100
AcDbEntity
  8
Layer_1
 62
7
100
AcDbSpline
 70
8
 71
3
 72
8
 73
4
 74
0
 40
0
 40
0
 40
0
 40
0
 40
1
 40
1
 40
1
 40
1
 10
44.298416
 20
86.990839
 30
0.0
 10
43.002781
 20
85.987358
 30
0.0
 10
41.697504
 20
84.993941
 30
0.0
 10
40.358328
 20
84.052310
 30
0.0
  0
SPLINE
  5
12f
100
AcDbEntity
  8
Layer_1
 62
7
100
AcDbSpline
 70
8
 71
3
 72
8
 73
4
 74
0
 40
0
 40
0
 40
0
 40
0
 40
1
 40
1
 40
1
 40
1
 10
40.358328
 20
84.052310
 30
0.0
 10
40.122300
 20
84.494027
 30
0.0
 10
39.883125
 20
84.964545
 30
0.0
 10
39.774591
 20
85.445229
 30
0.0
  0
SPLINE
  5
130
100
AcDbEntity
  8
Layer_1
 62
7
100
AcDbSpline
 70
8
 71
3
 72
8
 73
4
 74
0
 40
0
 40
0
 40
0
 40
0
 40
1
 40
1
 40
1
 40
1
 10
39.774591
 20
85.445229
 30
0.0
 10
40.674917
 20
86.189536
 30
0.0
 10
41.688594
 20
86.766221
 30
0.0
 10
42.635399
 20
87.450000
 30
0.0
  0
LWPOLYLINE
  5
131
100
AcDbEntity
  8
Layer_1
 62
7
100
AcDbPolyline
 90
2
 70
0
 10
42.635399
 20
87.450000
 30
0.0
 10
43.755468
 20
87.305031
 30
0.0
  0
SPLINE
  5
132
100
AcDbEntity
  8
Layer_1
 62
7
100
AcDbSpline
 70
8
 71
3
 72
8
 73
4
 74
0
 40
0
 40
0
 40
0
 40
0
 40
1
 40
1
 40
1
 40
1
 10
16.685287
 20
87.239437
 30
0.0
 10
16.796686
 20
87.233234
 30
0.0
 10
16.903835
 20
87.211613
 30
0.0
 10
17.003889
 20
87.165020
 30
0.0
  0
SPLINE
  5
133
100
AcDbEntity
  8
Layer_1
 62
7
100
AcDbSpline
 70
8
 71
3
 72
8
 73
4
 74
0
 40
0
 40
0
 40
0
 40
0
 40
1
 40
1
 40
1
 40
1
 10
17.003889
 20
87.165020
 30
0.0
 10
17.900369
 20
86.626069
 30
0.0
 10
18.767447
 20
86.034066
 30
0.0
 10
19.565386
 20
85.356484
 30
0.0
  0
SPLINE
  5
134
100
AcDbEntity
  8
Layer_1
 62
7
100
AcDbSpline
 70
8
 71
3
 72
8
 73
4
 74
0
 40
0
 40
0
 40
0
 40
0
 40
1
 40
1
 40
1
 40
1
 10
19.565386
 20
85.356484
 30
0.0
 10
19.406430
 20
84.869625
 30
0.0
 10
19.261697
 20
84.369147
 30
0.0
 10
18.993776
 20
83.928284
 30
0.0
  0
SPLINE
  5
135
100
AcDbEntity
  8
Layer_1
 62
7
100
AcDbSpline
 70
8
 71
3
 72
8
 73
4
 74
0
 40
0
 40
0
 40
0
 40
0
 40
1
 40
1
 40
1
 40
1
 10
18.993776
 20
83.928284
 30
0.0
 10
17.693429
 20
84.818848
 30
0.0
 10
16.505594
 20
85.862274
 30
0.0
 10
15.238346
 20
86.799015
 30
0.0
  0
SPLINE
  5
136
100
AcDbEntity
  8
Layer_1
 62
7
100
AcDbSpline
 70
8
 71
3
 72
8
 73
4
 74
0
 40
0
 40
0
 40
0
 40
0
 40
1
 40
1
 40
1
 40
1
 10
15.238346
 20
86.799015
 30
0.0
 10
14.743441
 20
87.070024
 30
0.0
 10
15.377131
 20
87.059571
 30
0.0
 10
15.652860
 20
87.122577
 30
0.0
  0
SPLINE
  5
137
100
AcDbEntity
  8
Layer_1
 62
7
100
AcDbSpline
 70
8
 71
3
 72
8
 73
4
 74
0
 40
0
 40
0
 40
0
 40
0
 40
1
 40
1
 40
1
 40
1
 10
15.652860
 20
87.122577
 30
0.0
 10
15.979312
 20
87.136378
 30
0.0
 10
16.351087
 20
87.258047
 30
0.0
 10
16.685287
 20
87.239437
 30
0.0
  0
LWPOLYLINE
  5
138
100
AcDbEntity
  8
Layer_1
 62
7
100
AcDbPolyline
 90
2
 70
0
 10
42.635399
 20
87.450000
 30
0.0
 10
42.635399
 20
87.450000
 30
0.0
  0
LWPOLYLINE
  5
139
100
AcDbEntity
  8
Layer_1
 62
7
100
AcDbPolyline
 90
2
 70
0
 10
16.685287
 20
87.239437
 30
0.0
 10
16.685287
 20
87.239437
 30
0.0
  0
SPLINE
  5
13a
100
AcDbEntity
  8
Layer_1
 62
7
100
AcDbSpline
 70
8
 71
3
 72
8
 73
4
 74
0
 40
0
 40
0
 40
0
 40
0
 40
1
 40
1
 40
1
 40
1
 10
46.308145
 20
86.819408
 30
0.0
 10
46.521065
 20
85.687119
 30
0.0
 10
46.688928
 20
84.552162
 30
0.0
 10
46.865424
 20
83.413452
 30
0.0
  0
SPLINE
  5
13b
100
AcDbEntity
  8
Layer_1
 62
7
100
AcDbSpline
 70
8
 71
3
 72
8
 73
4
 74
0
 40
0
 40
0
 40
0
 40
0
 40
1
 40
1
 40
1
 40
1
 10
46.865424
 20
83.413452
 30
0.0
 10
46.425488
 20
84.394750
 30
0.0
 10
45.985791
 20
85.371140
 30
0.0
 10
45.617474
 20
86.384501
 30
0.0
  0
SPLINE
  5
13c
100
AcDbEntity
  8
Layer_1
 62
7
100
AcDbSpline
 70
8
 71
3
 72
8
 73
4
 74
0
 40
0
 40
0
 40
0
 40
0
 40
1
 40
1
 40
1
 40
1
 10
45.617474
 20
86.384501
 30
0.0
 10
45.800337
 20
86.611125
 30
0.0
 10
46.011087
 20
86.831380
 30
0.0
 10
46.283341
 20
86.947842
 30
0.0
  0
LWPOLYLINE
  5
13d
100
AcDbEntity
  8
Layer_1
 62
7
100
AcDbPolyline
 90
3
 70
0
 10
46.283341
 20
86.947842
 30
0.0
 10
46.298776
 20
86.867917
 30
0.0
 10
46.308145
 20
86.819408
 30
0.0
  0
LWPOLYLINE
  5
13e
100
AcDbEntity
  8
Layer_1
 62
7
100
AcDbPolyline
 90
2
 70
0
 10
46.283341
 20
86.947842
 30
0.0
 10
46.283341
 20
86.947842
 30
0.0
  0
SPLINE
  5
13f
100
AcDbEntity
  8
Layer_1
 62
7
100
AcDbSpline
 70
8
 71
3
 72
8
 73
4
 74
0
 40
0
 40
0
 40
0
 40
0
 40
1
 40
1
 40
1
 40
1
 10
13.467843
 20
86.700898
 30
0.0
 10
13.688589
 20
86.546381
 30
0.0
 10
14.055030
 20
86.356815
 30
0.0
 10
13.817865
 20
86.052119
 30
0.0
  0
SPLINE
  5
140
100
AcDbEntity
  8
Layer_1
 62
7
100
AcDbSpline
 70
8
 71
3
 72
8
 73
4
 74
0
 40
0
 40
0
 40
0
 40
0
 40
1
 40
1
 40
1
 40
1
 10
13.817865
 20
86.052119
 30
0.0
 10
13.495074
 20
85.150397
 30
0.0
 10
13.100947
 20
84.277949
 30
0.0
 10
12.707717
 20
83.401325
 30
0.0
  0
SPLINE
  5
141
100
AcDbEntity
  8
Layer_1
 62
7
100
AcDbSpline
 70
8
 71
3
 72
8
 73
4
 74
0
 40
0
 40
0
 40
0
 40
0
 40
1
 40
1
 40
1
 40
1
 10
12.707717
 20
83.401325
 30
0.0
 10
12.895984
 20
84.525032
 30
0.0
 10
13.076173
 20
85.654920
 30
0.0
 10
13.396185
 20
86.746649
 30
0.0
  0
LWPOLYLINE
  5
142
100
AcDbEntity
  8
Layer_1
 62
7
100
AcDbPolyline
 90
3
 70
0
 10
13.396185
 20
86.746649
 30
0.0
 10
13.464535
 20
86.702551
 30
0.0
 10
13.467843
 20
86.700898
 30
0.0
  0
SPLINE
  5
143
100
AcDbEntity
  8
Layer_1
 62
7
100
AcDbSpline
 70
8
 71
3
 72
8
 73
4
 74
0
 40
0
 40
0
 40
0
 40
0
 40
1
 40
1
 40
1
 40
1
 10
29.677431
 20
86.435214
 30
0.0
 10
31.334419
 20
86.257309
 30
0.0
 10
32.986035
 20
86.005022
 30
0.0
 10
34.629547
 20
85.732966
 30
0.0
  0
SPLINE
  5
144
100
AcDbEntity
  8
Layer_1
 62
7
100
AcDbSpline
 70
8
 71
3
 72
8
 73
4
 74
0
 40
0
 40
0
 40
0
 40
0
 40
1
 40
1
 40
1
 40
1
 10
34.629547
 20
85.732966
 30
0.0
 10
32.936008
 20
85.224178
 30
0.0
 10
31.239852
 20
84.717770
 30
0.0
 10
29.514823
 20
84.325159
 30
0.0
  0
SPLINE
  5
145
100
AcDbEntity
  8
Layer_1
 62
7
100
AcDbSpline
 70
8
 71
3
 72
8
 73
4
 74
0
 40
0
 40
0
 40
0
 40
0
 40
1
 40
1
 40
1
 40
1
 10
29.514823
 20
84.325159
 30
0.0
 10
27.882635
 20
84.725184
 30
0.0
 10
26.275563
 20
85.215206
 30
0.0
 10
24.660820
 20
85.677292
 30
0.0
  0
SPLINE
  5
146
100
AcDbEntity
  8
Layer_1
 62
7
100
AcDbSpline
 70
8
 71
3
 72
8
 73
4
 74
0
 40
0
 40
0
 40
0
 40
0
 40
1
 40
1
 40
1
 40
1
 10
24.660820
 20
85.677292
 30
0.0
 10
26.328113
 20
85.958151
 30
0.0
 10
27.992881
 20
86.307931
 30
0.0
 10
29.677431
 20
86.435214
 30
0.0
  0
LWPOLYLINE
  5
147
100
AcDbEntity
  8
Layer_1
 62
7
100
AcDbPolyline
 90
2
 70
0
 10
13.396185
 20
86.746649
 30
0.0
 10
13.396185
 20
86.746649
 30
0.0
  0
LWPOLYLINE
  5
148
100
AcDbEntity
  8
Layer_1
 62
7
100
AcDbPolyline
 90
2
 70
0
 10
29.677431
 20
86.435214
 30
0.0
 10
29.677431
 20
86.435214
 30
0.0
  0
SPLINE
  5
149
100
AcDbEntity
  8
Layer_1
 62
7
100
AcDbSpline
 70
8
 71
3
 72
8
 73
4
 74
0
 40
0
 40
0
 40
0
 40
0
 40
1
 40
1
 40
1
 40
1
 10
44.652297
 20
85.456255
 30
0.0
 10
45.398326
 20
83.855697
 30
0.0
 10
46.167198
 20
82.235530
 30
0.0
 10
46.671950
 20
80.561464
 30
0.0
  0
SPLINE
  5
14a
100
AcDbEntity
  8
Layer_1
 62
7
100
AcDbSpline
 70
8
 71
3
 72
8
 73
4
 74
0
 40
0
 40
0
 40
0
 40
0
 40
1
 40
1
 40
1
 40
1
 10
46.671950
 20
80.561464
 30
0.0
 10
46.336359
 20
79.659769
 30
0.0
 10
45.809143
 20
78.847441
 30
0.0
 10
45.306036
 20
78.035795
 30
0.0
  0
SPLINE
  5
14b
100
AcDbEntity
  8
Layer_1
 62
7
100
AcDbSpline
 70
8
 71
3
 72
8
 73
4
 74
0
 40
0
 40
0
 40
0
 40
0
 40
1
 40
1
 40
1
 40
1
 10
45.306036
 20
78.035795
 30
0.0
 10
43.826309
 20
79.630026
 30
0.0
 10
42.381878
 20
81.258473
 30
0.0
 10
41.013724
 20
82.949879
 30
0.0
  0
SPLINE
  5
14c
100
AcDbEntity
  8
Layer_1
 62
7
100
AcDbSpline
 70
8
 71
3
 72
8
 73
4
 74
0
 40
0
 40
0
 40
0
 40
0
 40
1
 40
1
 40
1
 40
1
 10
41.013724
 20
82.949879
 30
0.0
 10
42.145977
 20
83.919962
 30
0.0
 10
43.363989
 20
84.769657
 30
0.0
 10
44.547014
 20
85.675088
 30
0.0
  0
LWPOLYLINE
  5
14d
100
AcDbEntity
  8
Layer_1
 62
7
100
AcDbPolyline
 90
2
 70
0
 10
44.547014
 20
85.675088
 30
0.0
 10
44.652297
 20
85.456255
 30
0.0
  0
LWPOLYLINE
  5
14e
100
AcDbEntity
  8
Layer_1
 62
7
100
AcDbPolyline
 90
2
 70
0
 10
44.547014
 20
85.675088
 30
0.0
 10
44.547014
 20
85.675088
 30
0.0
  0
SPLINE
  5
14f
100
AcDbEntity
  8
Layer_1
 62
7
100
AcDbSpline
 70
8
 71
3
 72
8
 73
4
 74
0
 40
0
 40
0
 40
0
 40
0
 40
1
 40
1
 40
1
 40
1
 10
15.265907
 20
85.272148
 30
0.0
 10
16.300306
 20
84.514158
 30
0.0
 10
17.381280
 20
83.758497
 30
0.0
 10
18.298143
 20
82.900270
 30
0.0
  0
SPLINE
  5
150
100
AcDbEntity
  8
Layer_1
 62
7
100
AcDbSpline
 70
8
 71
3
 72
8
 73
4
 74
0
 40
0
 40
0
 40
0
 40
0
 40
1
 40
1
 40
1
 40
1
 10
18.298143
 20
82.900270
 30
0.0
 10
16.949110
 20
81.212948
 30
0.0
 10
15.496073
 20
79.579892
 30
0.0
 10
14.058194
 20
77.956420
 30
0.0
  0
SPLINE
  5
151
100
AcDbEntity
  8
Layer_1
 62
7
100
AcDbSpline
 70
8
 71
3
 72
8
 73
4
 74
0
 40
0
 40
0
 40
0
 40
0
 40
1
 40
1
 40
1
 40
1
 10
14.058194
 20
77.956420
 30
0.0
 10
13.595019
 20
78.784386
 30
0.0
 10
13.111845
 20
79.618006
 30
0.0
 10
12.725907
 20
80.479331
 30
0.0
  0
SPLINE
  5
152
100
AcDbEntity
  8
Layer_1
 62
7
100
AcDbSpline
 70
8
 71
3
 72
8
 73
4
 74
0
 40
0
 40
0
 40
0
 40
0
 40
1
 40
1
 40
1
 40
1
 10
12.725907
 20
80.479331
 30
0.0
 10
13.416894
 20
82.175941
 30
0.0
 10
14.153867
 20
83.850236
 30
0.0
 10
14.934627
 20
85.506415
 30
0.0
  0
LWPOLYLINE
  5
153
100
AcDbEntity
  8
Layer_1
 62
7
100
AcDbPolyline
 90
2
 70
0
 10
14.934627
 20
85.506415
 30
0.0
 10
15.265907
 20
85.272148
 30
0.0
  0
SPLINE
  5
154
100
AcDbEntity
  8
Layer_1
 62
7
100
AcDbSpline
 70
8
 71
3
 72
8
 73
4
 74
0
 40
0
 40
0
 40
0
 40
0
 40
1
 40
1
 40
1
 40
1
 10
37.710841
 20
85.243485
 30
0.0
 10
37.753200
 20
85.244543
 30
0.0
 10
37.795683
 20
85.242616
 30
0.0
 10
37.838174
 20
85.237423
 30
0.0
  0
SPLINE
  5
155
100
AcDbEntity
  8
Layer_1
 62
7
100
AcDbSpline
 70
8
 71
3
 72
8
 73
4
 74
0
 40
0
 40
0
 40
0
 40
0
 40
1
 40
1
 40
1
 40
1
 10
37.838174
 20
85.237423
 30
0.0
 10
38.216185
 20
85.240245
 30
0.0
 10
38.683873
 20
85.205227
 30
0.0
 10
38.762562
 20
84.751800
 30
0.0
  0
SPLINE
  5
156
100
AcDbEntity
  8
Layer_1
 62
7
100
AcDbSpline
 70
8
 71
3
 72
8
 73
4
 74
0
 40
0
 40
0
 40
0
 40
0
 40
1
 40
1
 40
1
 40
1
 10
38.762562
 20
84.751800
 30
0.0
 10
39.235208
 20
83.731525
 30
0.0
 10
39.562267
 20
82.588293
 30
0.0
 10
40.420064
 20
81.796736
 30
0.0
  0
SPLINE
  5
157
100
AcDbEntity
  8
Layer_1
 62
7
100
AcDbSpline
 70
8
 71
3
 72
8
 73
4
 74
0
 40
0
 40
0
 40
0
 40
0
 40
1
 40
1
 40
1
 40
1
 10
40.420064
 20
81.796736
 30
0.0
 10
41.786488
 20
80.215104
 30
0.0
 10
43.201150
 20
78.673191
 30
0.0
 10
44.486932
 20
77.023763
 30
0.0
  0
SPLINE
  5
158
100
AcDbEntity
  8
Layer_1
 62
7
100
AcDbSpline
 70
8
 71
3
 72
8
 73
4
 74
0
 40
0
 40
0
 40
0
 40
0
 40
1
 40
1
 40
1
 40
1
 10
44.486932
 20
77.023763
 30
0.0
 10
43.942265
 20
76.277677
 30
0.0
 10
43.322409
 20
75.609993
 30
0.0
 10
42.698789
 20
74.928043
 30
0.0
  0
SPLINE
  5
159
100
AcDbEntity
  8
Layer_1
 62
7
100
AcDbSpline
 70
8
 71
3
 72
8
 73
4
 74
0
 40
0
 40
0
 40
0
 40
0
 40
1
 40
1
 40
1
 40
1
 10
42.698789
 20
74.928043
 30
0.0
 10
42.125827
 20
75.934298
 30
0.0
 10
41.812199
 20
77.132997
 30
0.0
 10
41.037978
 20
78.018156
 30
0.0
  0
SPLINE
  5
15a
100
AcDbEntity
  8
Layer_1
 62
7
100
AcDbSpline
 70
8
 71
3
 72
8
 73
4
 74
0
 40
0
 40
0
 40
0
 40
0
 40
1
 40
1
 40
1
 40
1
 10
41.037978
 20
78.018156
 30
0.0
 10
38.928582
 20
79.632555
 30
0.0
 10
36.572354
 20
80.956050
 30
0.0
 10
34.811451
 20
82.981849
 30
0.0
  0
SPLINE
  5
15b
100
AcDbEntity
  8
Layer_1
 62
7
100
AcDbSpline
 70
8
 71
3
 72
8
 73
4
 74
0
 40
0
 40
0
 40
0
 40
0
 40
1
 40
1
 40
1
 40
1
 10
34.811451
 20
82.981849
 30
0.0
 10
34.410469
 20
83.383680
 30
0.0
 10
33.985194
 20
83.765149
 30
0.0
 10
33.634604
 20
84.213814
 30
0.0
  0
SPLINE
  5
15c
100
AcDbEntity
  8
Layer_1
 62
7
100
AcDbSpline
 70
8
 71
3
 72
8
 73
4
 74
0
 40
0
 40
0
 40
0
 40
0
 40
1
 40
1
 40
1
 40
1
 10
33.634604
 20
84.213814
 30
0.0
 10
34.949212
 20
84.555924
 30
0.0
 10
36.243325
 20
85.004959
 30
0.0
 10
37.584064
 20
85.233012
 30
0.0
  0
SPLINE
  5
15d
100
AcDbEntity
  8
Layer_1
 62
7
100
AcDbSpline
 70
8
 71
3
 72
8
 73
4
 74
0
 40
0
 40
0
 40
0
 40
0
 40
1
 40
1
 40
1
 40
1
 10
37.584064
 20
85.233012
 30
0.0
 10
37.626380
 20
85.238713
 30
0.0
 10
37.668485
 20
85.242427
 30
0.0
 10
37.710841
 20
85.243485
 30
0.0
  0
LWPOLYLINE
  5
15e
100
AcDbEntity
  8
Layer_1
 62
7
100
AcDbPolyline
 90
2
 70
0
 10
14.934627
 20
85.506415
 30
0.0
 10
14.934627
 20
85.506415
 30
0.0
  0
SPLINE
  5
15f
100
AcDbEntity
  8
Layer_1
 62
7
100
AcDbSpline
 70
8
 71
3
 72
8
 73
4
 74
0
 40
0
 40
0
 40
0
 40
0
 40
1
 40
1
 40
1
 40
1
 10
21.710165
 20
85.216476
 30
0.0
 10
21.813554
 20
85.218249
 30
0.0
 10
21.916757
 20
85.205995
 30
0.0
 10
22.018294
 20
85.174583
 30
0.0
  0
SPLINE
  5
160
100
AcDbEntity
  8
Layer_1
 62
7
100
AcDbSpline
 70
8
 71
3
 72
8
 73
4
 74
0
 40
0
 40
0
 40
0
 40
0
 40
1
 40
1
 40
1
 40
1
 10
22.018294
 20
85.174583
 30
0.0
 10
23.203788
 20
84.874245
 30
0.0
 10
24.521997
 20
84.571895
 30
0.0
 10
25.596784
 20
84.147119
 30
0.0
  0
SPLINE
  5
161
100
AcDbEntity
  8
Layer_1
 62
7
100
AcDbSpline
 70
8
 71
3
 72
8
 73
4
 74
0
 40
0
 40
0
 40
0
 40
0
 40
1
 40
1
 40
1
 40
1
 10
25.596784
 20
84.147119
 30
0.0
 10
23.882525
 20
82.351407
 30
0.0
 10
22.061841
 20
80.623078
 30
0.0
 10
19.958954
 20
79.284848
 30
0.0
  0
SPLINE
  5
162
100
AcDbEntity
  8
Layer_1
 62
7
100
AcDbSpline
 70
8
 71
3
 72
8
 73
4
 74
0
 40
0
 40
0
 40
0
 40
0
 40
1
 40
1
 40
1
 40
1
 10
19.958954
 20
79.284848
 30
0.0
 10
19.206020
 20
78.716837
 30
0.0
 10
18.290148
 20
78.277290
 30
0.0
 10
17.739210
 20
77.492847
 30
0.0
  0
SPLINE
  5
163
100
AcDbEntity
  8
Layer_1
 62
7
100
AcDbSpline
 70
8
 71
3
 72
8
 73
4
 74
0
 40
0
 40
0
 40
0
 40
0
 40
1
 40
1
 40
1
 40
1
 10
17.739210
 20
77.492847
 30
0.0
 10
17.294097
 20
76.675151
 30
0.0
 10
16.948290
 20
75.808771
 30
0.0
 10
16.512205
 20
74.986471
 30
0.0
  0
SPLINE
  5
164
100
AcDbEntity
  8
Layer_1
 62
7
100
AcDbSpline
 70
8
 71
3
 72
8
 73
4
 74
0
 40
0
 40
0
 40
0
 40
0
 40
1
 40
1
 40
1
 40
1
 10
16.512205
 20
74.986471
 30
0.0
 10
15.909628
 20
75.618686
 30
0.0
 10
15.335417
 20
76.279001
 30
0.0
 10
14.810603
 20
76.977461
 30
0.0
  0
SPLINE
  5
165
100
AcDbEntity
  8
Layer_1
 62
7
100
AcDbSpline
 70
8
 71
3
 72
8
 73
4
 74
0
 40
0
 40
0
 40
0
 40
0
 40
1
 40
1
 40
1
 40
1
 10
14.810603
 20
76.977461
 30
0.0
 10
16.447891
 20
79.074542
 30
0.0
 10
18.425422
 20
80.913677
 30
0.0
 10
19.914857
 20
83.129576
 30
0.0
  0
SPLINE
  5
166
100
AcDbEntity
  8
Layer_1
 62
7
100
AcDbSpline
 70
8
 71
3
 72
8
 73
4
 74
0
 40
0
 40
0
 40
0
 40
0
 40
1
 40
1
 40
1
 40
1
 10
19.914857
 20
83.129576
 30
0.0
 10
20.254539
 20
83.716175
 30
0.0
 10
20.386311
 20
84.427538
 30
0.0
 10
20.807826
 20
84.959059
 30
0.0
  0
SPLINE
  5
167
100
AcDbEntity
  8
Layer_1
 62
7
100
AcDbSpline
 70
8
 71
3
 72
8
 73
4
 74
0
 40
0
 40
0
 40
0
 40
0
 40
1
 40
1
 40
1
 40
1
 10
20.807826
 20
84.959059
 30
0.0
 10
21.087527
 20
85.079618
 30
0.0
 10
21.399996
 20
85.211157
 30
0.0
 10
21.710165
 20
85.216476
 30
0.0
  0
LWPOLYLINE
  5
168
100
AcDbEntity
  8
Layer_1
 62
7
100
AcDbPolyline
 90
2
 70
0
 10
37.710841
 20
85.243485
 30
0.0
 10
37.710841
 20
85.243485
 30
0.0
  0
SPLINE
  5
169
100
AcDbEntity
  8
Layer_1
 62
7
100
AcDbSpline
 70
8
 71
3
 72
8
 73
4
 74
0
 40
0
 40
0
 40
0
 40
0
 40
1
 40
1
 40
1
 40
1
 10
32.206957
 20
83.760715
 30
0.0
 10
33.054519
 20
83.226274
 30
0.0
 10
33.674013
 20
82.358234
 30
0.0
 10
34.430561
 20
81.692006
 30
0.0
  0
SPLINE
  5
16a
100
AcDbEntity
  8
Layer_1
 62
7
100
AcDbSpline
 70
8
 71
3
 72
8
 73
4
 74
0
 40
0
 40
0
 40
0
 40
0
 40
1
 40
1
 40
1
 40
1
 10
34.430561
 20
81.692006
 30
0.0
 10
34.794817
 20
81.324248
 30
0.0
 10
35.155657
 20
80.952686
 30
0.0
 10
35.501572
 20
80.567526
 30
0.0
  0
SPLINE
  5
16b
100
AcDbEntity
  8
Layer_1
 62
7
100
AcDbSpline
 70
8
 71
3
 72
8
 73
4
 74
0
 40
0
 40
0
 40
0
 40
0
 40
1
 40
1
 40
1
 40
1
 10
35.501572
 20
80.567526
 30
0.0
 10
34.619077
 20
78.942276
 30
0.0
 10
33.587919
 20
77.393465
 30
0.0
 10
32.715731
 20
75.768094
 30
0.0
  0
SPLINE
  5
16c
100
AcDbEntity
  8
Layer_1
 62
7
100
AcDbSpline
 70
8
 71
3
 72
8
 73
4
 74
0
 40
0
 40
0
 40
0
 40
0
 40
1
 40
1
 40
1
 40
1
 10
32.715731
 20
75.768094
 30
0.0
 10
32.662379
 20
75.299868
 30
0.0
 10
32.676437
 20
74.824690
 30
0.0
 10
32.585643
 20
74.360841
 30
0.0
  0
SPLINE
  5
16d
100
AcDbEntity
  8
Layer_1
 62
7
100
AcDbSpline
 70
8
 71
3
 72
8
 73
4
 74
0
 40
0
 40
0
 40
0
 40
0
 40
1
 40
1
 40
1
 40
1
 10
32.585643
 20
74.360841
 30
0.0
 10
31.173372
 20
74.630408
 30
0.0
 10
29.709646
 20
75.187241
 30
0.0
 10
28.256397
 20
74.773701
 30
0.0
  0
SPLINE
  5
16e
100
AcDbEntity
  8
Layer_1
 62
7
100
AcDbSpline
 70
8
 71
3
 72
8
 73
4
 74
0
 40
0
 40
0
 40
0
 40
0
 40
1
 40
1
 40
1
 40
1
 10
28.256397
 20
74.773701
 30
0.0
 10
27.647375
 20
74.652955
 30
0.0
 10
27.043428
 20
74.500659
 30
0.0
 10
26.426914
 20
74.420923
 30
0.0
  0
SPLINE
  5
16f
100
AcDbEntity
  8
Layer_1
 62
7
100
AcDbSpline
 70
8
 71
3
 72
8
 73
4
 74
0
 40
0
 40
0
 40
0
 40
0
 40
1
 40
1
 40
1
 40
1
 10
26.426914
 20
74.420923
 30
0.0
 10
26.457944
 20
75.618223
 30
0.0
 10
25.848799
 20
76.673756
 30
0.0
 10
25.267708
 20
77.671993
 30
0.0
  0
SPLINE
  5
170
100
AcDbEntity
  8
Layer_1
 62
7
100
AcDbSpline
 70
8
 71
3
 72
8
 73
4
 74
0
 40
0
 40
0
 40
0
 40
0
 40
1
 40
1
 40
1
 40
1
 10
25.267708
 20
77.671993
 30
0.0
 10
24.738530
 20
78.616264
 30
0.0
 10
24.184808
 20
79.542794
 30
0.0
 10
23.701706
 20
80.509648
 30
0.0
  0
SPLINE
  5
171
100
AcDbEntity
  8
Layer_1
 62
7
100
AcDbSpline
 70
8
 71
3
 72
8
 73
4
 74
0
 40
0
 40
0
 40
0
 40
0
 40
1
 40
1
 40
1
 40
1
 10
23.701706
 20
80.509648
 30
0.0
 10
24.785095
 20
81.602528
 30
0.0
 10
25.817752
 20
82.798650
 30
0.0
 10
27.033251
 20
83.727091
 30
0.0
  0
SPLINE
  5
172
100
AcDbEntity
  8
Layer_1
 62
7
100
AcDbSpline
 70
8
 71
3
 72
8
 73
4
 74
0
 40
0
 40
0
 40
0
 40
0
 40
1
 40
1
 40
1
 40
1
 10
27.033251
 20
83.727091
 30
0.0
 10
27.964062
 20
83.623247
 30
0.0
 10
28.836462
 20
83.201540
 30
0.0
 10
29.759010
 20
83.093194
 30
0.0
  0
SPLINE
  5
173
100
AcDbEntity
  8
Layer_1
 62
7
100
AcDbSpline
 70
8
 71
3
 72
8
 73
4
 74
0
 40
0
 40
0
 40
0
 40
0
 40
1
 40
1
 40
1
 40
1
 10
29.759010
 20
83.093194
 30
0.0
 10
30.576099
 20
83.318117
 30
0.0
 10
31.370250
 20
83.628954
 30
0.0
 10
32.206957
 20
83.760715
 30
0.0
  0
LWPOLYLINE
  5
174
100
AcDbEntity
  8
Layer_1
 62
7
100
AcDbPolyline
 90
2
 70
0
 10
21.710165
 20
85.216476
 30
0.0
 10
21.710165
 20
85.216476
 30
0.0
  0
LWPOLYLINE
  5
175
100
AcDbEntity
  8
Layer_1
 62
7
100
AcDbPolyline
 90
2
 70
0
 10
32.206957
 20
83.760715
 30
0.0
 10
32.206957
 20
83.760715
 30
0.0
  0
SPLINE
  5
176
100
AcDbEntity
  8
Layer_1
 62
7
100
AcDbSpline
 70
8
 71
3
 72
8
 73
4
 74
0
 40
0
 40
0
 40
0
 40
0
 40
1
 40
1
 40
1
 40
1
 10
22.766293
 20
79.563213
 30
0.0
 10
23.604230
 20
78.260105
 30
0.0
 10
24.456141
 20
76.868213
 30
0.0
 10
25.064861
 20
75.490833
 30
0.0
  0
SPLINE
  5
177
100
AcDbEntity
  8
Layer_1
 62
7
100
AcDbSpline
 70
8
 71
3
 72
8
 73
4
 74
0
 40
0
 40
0
 40
0
 40
0
 40
1
 40
1
 40
1
 40
1
 10
25.064861
 20
75.490833
 30
0.0
 10
24.215894
 20
75.574662
 30
0.0
 10
23.367668
 20
75.739152
 30
0.0
 10
22.543051
 20
75.952752
 30
0.0
  0
SPLINE
  5
178
100
AcDbEntity
  8
Layer_1
 62
7
100
AcDbSpline
 70
8
 71
3
 72
8
 73
4
 74
0
 40
0
 40
0
 40
0
 40
0
 40
1
 40
1
 40
1
 40
1
 10
22.543051
 20
75.952752
 30
0.0
 10
21.499025
 20
76.367980
 30
0.0
 10
20.602858
 20
77.073203
 30
0.0
 10
19.646415
 20
77.648290
 30
0.0
  0
SPLINE
  5
179
100
AcDbEntity
  8
Layer_1
 62
7
100
AcDbSpline
 70
8
 71
3
 72
8
 73
4
 74
0
 40
0
 40
0
 40
0
 40
0
 40
1
 40
1
 40
1
 40
1
 10
19.646415
 20
77.648290
 30
0.0
 10
20.633603
 20
78.364711
 30
0.0
 10
21.620047
 20
79.086692
 30
0.0
 10
22.670382
 20
79.709285
 30
0.0
  0
LWPOLYLINE
  5
17a
100
AcDbEntity
  8
Layer_1
 62
7
100
AcDbPolyline
 90
2
 70
0
 10
22.670382
 20
79.709285
 30
0.0
 10
22.766293
 20
79.563213
 30
0.0
  0
LWPOLYLINE
  5
17b
100
AcDbEntity
  8
Layer_1
 62
7
100
AcDbPolyline
 90
2
 70
0
 10
22.670382
 20
79.709285
 30
0.0
 10
22.670382
 20
79.709285
 30
0.0
  0
SPLINE
  5
17c
100
AcDbEntity
  8
Layer_1
 62
7
100
AcDbSpline
 70
8
 71
3
 72
8
 73
4
 74
0
 40
0
 40
0
 40
0
 40
0
 40
1
 40
1
 40
1
 40
1
 10
36.612822
 20
79.628256
 30
0.0
 10
37.596349
 20
79.009953
 30
0.0
 10
38.614031
 20
78.341041
 30
0.0
 10
39.497881
 20
77.636716
 30
0.0
  0
SPLINE
  5
17d
100
AcDbEntity
  8
Layer_1
 62
7
100
AcDbSpline
 70
8
 71
3
 72
8
 73
4
 74
0
 40
0
 40
0
 40
0
 40
0
 40
1
 40
1
 40
1
 40
1
 10
39.497881
 20
77.636716
 30
0.0
 10
38.467507
 20
76.975108
 30
0.0
 10
37.421445
 20
76.300904
 30
0.0
 10
36.314064
 20
75.789591
 30
0.0
  0
SPLINE
  5
17e
100
AcDbEntity
  8
Layer_1
 62
7
100
AcDbSpline
 70
8
 71
3
 72
8
 73
4
 74
0
 40
0
 40
0
 40
0
 40
0
 40
1
 40
1
 40
1
 40
1
 10
36.314064
 20
75.789591
 30
0.0
 10
35.532413
 20
75.680890
 30
0.0
 10
34.754281
 20
75.569170
 30
0.0
 10
33.971950
 20
75.467132
 30
0.0
  0
SPLINE
  5
17f
100
AcDbEntity
  8
Layer_1
 62
7
100
AcDbSpline
 70
8
 71
3
 72
8
 73
4
 74
0
 40
0
 40
0
 40
0
 40
0
 40
1
 40
1
 40
1
 40
1
 10
33.971950
 20
75.467132
 30
0.0
 10
34.516142
 20
76.654977
 30
0.0
 10
35.254799
 20
77.745665
 30
0.0
 10
35.925455
 20
78.864269
 30
0.0
  0
SPLINE
  5
180
100
AcDbEntity
  8
Layer_1
 62
7
100
AcDbSpline
 70
8
 71
3
 72
8
 73
4
 74
0
 40
0
 40
0
 40
0
 40
0
 40
1
 40
1
 40
1
 40
1
 10
35.925455
 20
78.864269
 30
0.0
 10
36.108790
 20
79.148611
 30
0.0
 10
36.306373
 20
79.437962
 30
0.0
 10
36.500923
 20
79.697158
 30
0.0
  0
LWPOLYLINE
  5
181
100
AcDbEntity
  8
Layer_1
 62
7
100
AcDbPolyline
 90
3
 70
0
 10
36.500923
 20
79.697158
 30
0.0
 10
36.570378
 20
79.654715
 30
0.0
 10
36.612822
 20
79.628256
 30
0.0
  0
LWPOLYLINE
  5
182
100
AcDbEntity
  8
Layer_1
 62
7
100
AcDbPolyline
 90
2
 70
0
 10
36.500923
 20
79.697158
 30
0.0
 10
36.500923
 20
79.697158
 30
0.0
  0
SPLINE
  5
183
100
AcDbEntity
  8
Layer_1
 62
7
100
AcDbSpline
 70
8
 71
3
 72
8
 73
4
 74
0
 40
0
 40
0
 40
0
 40
0
 40
1
 40
1
 40
1
 40
1
 10
40.621258
 20
76.529324
 30
0.0
 10
41.053608
 20
75.663254
 30
0.0
 10
41.480376
 20
74.791820
 30
0.0
 10
41.823459
 20
73.885694
 30
0.0
  0
SPLINE
  5
184
100
AcDbEntity
  8
Layer_1
 62
7
100
AcDbSpline
 70
8
 71
3
 72
8
 73
4
 74
0
 40
0
 40
0
 40
0
 40
0
 40
1
 40
1
 40
1
 40
1
 10
41.823459
 20
73.885694
 30
0.0
 10
40.953317
 20
72.139560
 30
0.0
 10
40.064543
 20
70.402686
 30
0.0
 10
39.156129
 20
68.676160
 30
0.0
  0
SPLINE
  5
185
100
AcDbEntity
  8
Layer_1
 62
7
100
AcDbSpline
 70
8
 71
3
 72
8
 73
4
 74
0
 40
0
 40
0
 40
0
 40
0
 40
1
 40
1
 40
1
 40
1
 10
39.156129
 20
68.676160
 30
0.0
 10
37.840796
 20
68.573522
 30
0.0
 10
36.525739
 20
68.466198
 30
0.0
 10
35.211080
 20
68.409370
 30
0.0
  0
SPLINE
  5
186
100
AcDbEntity
  8
Layer_1
 62
7
100
AcDbSpline
 70
8
 71
3
 72
8
 73
4
 74
0
 40
0
 40
0
 40
0
 40
0
 40
1
 40
1
 40
1
 40
1
 10
35.211080
 20
68.409370
 30
0.0
 10
35.034048
 20
69.664254
 30
0.0
 10
35.199255
 20
70.999439
 30
0.0
 10
34.799874
 20
72.230947
 30
0.0
  0
SPLINE
  5
187
100
AcDbEntity
  8
Layer_1
 62
7
100
AcDbSpline
 70
8
 71
3
 72
8
 73
4
 74
0
 40
0
 40
0
 40
0
 40
0
 40
1
 40
1
 40
1
 40
1
 10
34.799874
 20
72.230947
 30
0.0
 10
34.606397
 20
72.485773
 30
0.0
 10
34.869713
 20
72.308227
 30
0.0
 10
35.024218
 20
72.246932
 30
0.0
  0
SPLINE
  5
188
100
AcDbEntity
  8
Layer_1
 62
7
100
AcDbSpline
 70
8
 71
3
 72
8
 73
4
 74
0
 40
0
 40
0
 40
0
 40
0
 40
1
 40
1
 40
1
 40
1
 10
35.024218
 20
72.246932
 30
0.0
 10
35.514173
 20
71.973777
 30
0.0
 10
36.120705
 20
72.055667
 30
0.0
 10
36.529035
 20
72.438202
 30
0.0
  0
SPLINE
  5
189
100
AcDbEntity
  8
Layer_1
 62
7
100
AcDbSpline
 70
8
 71
3
 72
8
 73
4
 74
0
 40
0
 40
0
 40
0
 40
0
 40
1
 40
1
 40
1
 40
1
 10
36.529035
 20
72.438202
 30
0.0
 10
36.866621
 20
72.665289
 30
0.0
 10
37.194465
 20
72.906406
 30
0.0
 10
37.532248
 20
73.133284
 30
0.0
  0
SPLINE
  5
18a
100
AcDbEntity
  8
Layer_1
 62
7
100
AcDbSpline
 70
8
 71
3
 72
8
 73
4
 74
0
 40
0
 40
0
 40
0
 40
0
 40
1
 40
1
 40
1
 40
1
 10
37.532248
 20
73.133284
 30
0.0
 10
37.493050
 20
73.753262
 30
0.0
 10
37.453931
 20
74.373101
 30
0.0
 10
37.414841
 20
74.993086
 30
0.0
  0
SPLINE
  5
18b
100
AcDbEntity
  8
Layer_1
 62
7
100
AcDbSpline
 70
8
 71
3
 72
8
 73
4
 74
0
 40
0
 40
0
 40
0
 40
0
 40
1
 40
1
 40
1
 40
1
 10
37.414841
 20
74.993086
 30
0.0
 10
38.448223
 20
75.578350
 30
0.0
 10
39.444318
 20
76.227989
 30
0.0
 10
40.485108
 20
76.800519
 30
0.0
  0
LWPOLYLINE
  5
18c
100
AcDbEntity
  8
Layer_1
 62
7
100
AcDbPolyline
 90
2
 70
0
 10
40.485108
 20
76.800519
 30
0.0
 10
40.621258
 20
76.529324
 30
0.0
  0
LWPOLYLINE
  5
18d
100
AcDbEntity
  8
Layer_1
 62
7
100
AcDbPolyline
 90
2
 70
0
 10
40.485108
 20
76.800519
 30
0.0
 10
40.485108
 20
76.800519
 30
0.0
  0
SPLINE
  5
18e
100
AcDbEntity
  8
Layer_1
 62
7
100
AcDbSpline
 70
8
 71
3
 72
8
 73
4
 74
0
 40
0
 40
0
 40
0
 40
0
 40
1
 40
1
 40
1
 40
1
 10
18.792583
 20
76.725005
 30
0.0
 10
19.768943
 20
76.218027
 30
0.0
 10
20.688407
 20
75.611176
 30
0.0
 10
21.632995
 20
75.049311
 30
0.0
  0
SPLINE
  5
18f
100
AcDbEntity
  8
Layer_1
 62
7
100
AcDbSpline
 70
8
 71
3
 72
8
 73
4
 74
0
 40
0
 40
0
 40
0
 40
0
 40
1
 40
1
 40
1
 40
1
 10
21.632995
 20
75.049311
 30
0.0
 10
21.625524
 20
74.439736
 30
0.0
 10
21.574546
 20
73.846957
 30
0.0
 10
21.529917
 20
73.239118
 30
0.0
  0
SPLINE
  5
190
100
AcDbEntity
  8
Layer_1
 62
7
100
AcDbSpline
 70
8
 71
3
 72
8
 73
4
 74
0
 40
0
 40
0
 40
0
 40
0
 40
1
 40
1
 40
1
 40
1
 10
21.529917
 20
73.239118
 30
0.0
 10
22.137616
 20
72.887844
 30
0.0
 10
22.615659
 20
72.238671
 30
0.0
 10
23.322470
 20
72.099205
 30
0.0
  0
SPLINE
  5
191
100
AcDbEntity
  8
Layer_1
 62
7
100
AcDbSpline
 70
8
 71
3
 72
8
 73
4
 74
0
 40
0
 40
0
 40
0
 40
0
 40
1
 40
1
 40
1
 40
1
 10
23.322470
 20
72.099205
 30
0.0
 10
23.630844
 20
72.148933
 30
0.0
 10
24.017997
 20
72.350756
 30
0.0
 10
24.241345
 20
72.390797
 30
0.0
  0
SPLINE
  5
192
100
AcDbEntity
  8
Layer_1
 62
7
100
AcDbSpline
 70
8
 71
3
 72
8
 73
4
 74
0
 40
0
 40
0
 40
0
 40
0
 40
1
 40
1
 40
1
 40
1
 10
24.241345
 20
72.390797
 30
0.0
 10
23.743228
 20
71.309858
 30
0.0
 10
23.931725
 20
70.066903
 30
0.0
 10
23.745252
 20
68.929717
 30
0.0
  0
SPLINE
  5
193
100
AcDbEntity
  8
Layer_1
 62
7
100
AcDbSpline
 70
8
 71
3
 72
8
 73
4
 74
0
 40
0
 40
0
 40
0
 40
0
 40
1
 40
1
 40
1
 40
1
 10
23.745252
 20
68.929717
 30
0.0
 10
23.760610
 20
68.620873
 30
0.0
 10
23.677432
 20
68.403773
 30
0.0
 10
23.322470
 20
68.514102
 30
0.0
  0
SPLINE
  5
194
100
AcDbEntity
  8
Layer_1
 62
7
100
AcDbSpline
 70
8
 71
3
 72
8
 73
4
 74
0
 40
0
 40
0
 40
0
 40
0
 40
1
 40
1
 40
1
 40
1
 10
23.322470
 20
68.514102
 30
0.0
 10
22.174430
 20
68.519747
 30
0.0
 10
21.037153
 20
68.650814
 30
0.0
 10
19.892808
 20
68.778686
 30
0.0
  0
SPLINE
  5
195
100
AcDbEntity
  8
Layer_1
 62
7
100
AcDbSpline
 70
8
 71
3
 72
8
 73
4
 74
0
 40
0
 40
0
 40
0
 40
0
 40
1
 40
1
 40
1
 40
1
 10
19.892808
 20
68.778686
 30
0.0
 10
19.014246
 20
70.468480
 30
0.0
 10
18.097398
 20
72.187394
 30
0.0
 10
17.385881
 20
73.930895
 30
0.0
  0
SPLINE
  5
196
100
AcDbEntity
  8
Layer_1
 62
7
100
AcDbSpline
 70
8
 71
3
 72
8
 73
4
 74
0
 40
0
 40
0
 40
0
 40
0
 40
1
 40
1
 40
1
 40
1
 10
17.385881
 20
73.930895
 30
0.0
 10
17.708230
 20
74.909334
 30
0.0
 10
18.236632
 20
75.836451
 30
0.0
 10
18.706042
 20
76.769102
 30
0.0
  0
LWPOLYLINE
  5
197
100
AcDbEntity
  8
Layer_1
 62
7
100
AcDbPolyline
 90
3
 70
0
 10
18.706042
 20
76.769102
 30
0.0
 10
18.778251
 20
76.732171
 30
0.0
 10
18.792583
 20
76.725005
 30
0.0
  0
LWPOLYLINE
  5
198
100
AcDbEntity
  8
Layer_1
 62
7
100
AcDbPolyline
 90
2
 70
0
 10
18.706042
 20
76.769102
 30
0.0
 10
18.706042
 20
76.769102
 30
0.0
  0
SPLINE
  5
199
100
AcDbEntity
  8
Layer_1
 62
7
100
AcDbSpline
 70
8
 71
3
 72
8
 73
4
 74
0
 40
0
 40
0
 40
0
 40
0
 40
1
 40
1
 40
1
 40
1
 10
14.399397
 20
75.619817
 30
0.0
 10
14.865489
 20
75.055497
 30
0.0
 10
15.456224
 20
74.517003
 30
0.0
 10
15.773025
 20
73.876325
 30
0.0
  0
SPLINE
  5
19a
100
AcDbEntity
  8
Layer_1
 62
7
100
AcDbSpline
 70
8
 71
3
 72
8
 73
4
 74
0
 40
0
 40
0
 40
0
 40
0
 40
1
 40
1
 40
1
 40
1
 10
15.773025
 20
73.876325
 30
0.0
 10
15.145705
 20
73.106072
 30
0.0
 10
14.483428
 20
72.355999
 30
0.0
 10
13.833850
 20
71.599805
 30
0.0
  0
SPLINE
  5
19b
100
AcDbEntity
  8
Layer_1
 62
7
100
AcDbSpline
 70
8
 71
3
 72
8
 73
4
 74
0
 40
0
 40
0
 40
0
 40
0
 40
1
 40
1
 40
1
 40
1
 10
13.833850
 20
71.599805
 30
0.0
 10
13.998618
 20
72.957288
 30
0.0
 10
14.169164
 20
74.310876
 30
0.0
 10
14.360260
 20
75.665018
 30
0.0
  0
LWPOLYLINE
  5
19c
100
AcDbEntity
  8
Layer_1
 62
7
100
AcDbPolyline
 90
2
 70
0
 10
14.360260
 20
75.665018
 30
0.0
 10
14.399397
 20
75.619817
 30
0.0
  0
LWPOLYLINE
  5
19d
100
AcDbEntity
  8
Layer_1
 62
7
100
AcDbPolyline
 90
2
 70
0
 10
14.360260
 20
75.665018
 30
0.0
 10
14.360260
 20
75.665018
 30
0.0
  0
SPLINE
  5
19e
100
AcDbEntity
  8
Layer_1
 62
7
100
AcDbSpline
 70
8
 71
3
 72
8
 73
4
 74
0
 40
0
 40
0
 40
0
 40
0
 40
1
 40
1
 40
1
 40
1
 10
44.946646
 20
75.555327
 30
0.0
 10
45.124630
 20
74.207230
 30
0.0
 10
45.262244
 20
72.847850
 30
0.0
 10
45.397539
 20
71.491214
 30
0.0
  0
SPLINE
  5
19f
100
AcDbEntity
  8
Layer_1
 62
7
100
AcDbSpline
 70
8
 71
3
 72
8
 73
4
 74
0
 40
0
 40
0
 40
0
 40
0
 40
1
 40
1
 40
1
 40
1
 10
45.397539
 20
71.491214
 30
0.0
 10
44.743249
 20
72.272131
 30
0.0
 10
44.045863
 20
73.032190
 30
0.0
 10
43.473246
 20
73.870813
 30
0.0
  0
SPLINE
  5
1a0
100
AcDbEntity
  8
Layer_1
 62
7
100
AcDbSpline
 70
8
 71
3
 72
8
 73
4
 74
0
 40
0
 40
0
 40
0
 40
0
 40
1
 40
1
 40
1
 40
1
 10
43.473246
 20
73.870813
 30
0.0
 10
43.899334
 20
74.493429
 30
0.0
 10
44.410797
 20
75.075950
 30
0.0
 10
44.937827
 20
75.620921
 30
0.0
  0
LWPOLYLINE
  5
1a1
100
AcDbEntity
  8
Layer_1
 62
7
100
AcDbPolyline
 90
2
 70
0
 10
44.937827
 20
75.620921
 30
0.0
 10
44.946646
 20
75.555327
 30
0.0
  0
SPLINE
  5
1a2
100
AcDbEntity
  8
Layer_1
 62
7
100
AcDbSpline
 70
8
 71
3
 72
8
 73
4
 74
0
 40
0
 40
0
 40
0
 40
0
 40
1
 40
1
 40
1
 40
1
 10
22.845117
 20
74.639205
 30
0.0
 10
23.630675
 20
74.515880
 30
0.0
 10
24.475366
 20
74.466087
 30
0.0
 10
25.212035
 20
74.213117
 30
0.0
  0
SPLINE
  5
1a3
100
AcDbEntity
  8
Layer_1
 62
7
100
AcDbSpline
 70
8
 71
3
 72
8
 73
4
 74
0
 40
0
 40
0
 40
0
 40
0
 40
1
 40
1
 40
1
 40
1
 10
25.212035
 20
74.213117
 30
0.0
 10
25.141129
 20
73.843731
 30
0.0
 10
24.610746
 20
73.908851
 30
0.0
 10
24.364266
 20
73.702140
 30
0.0
  0
SPLINE
  5
1a4
100
AcDbEntity
  8
Layer_1
 62
7
100
AcDbSpline
 70
8
 71
3
 72
8
 73
4
 74
0
 40
0
 40
0
 40
0
 40
0
 40
1
 40
1
 40
1
 40
1
 10
24.364266
 20
73.702140
 30
0.0
 10
24.037984
 20
73.562635
 30
0.0
 10
23.706632
 20
73.415323
 30
0.0
 10
23.363811
 20
73.330069
 30
0.0
  0
SPLINE
  5
1a5
100
AcDbEntity
  8
Layer_1
 62
7
100
AcDbSpline
 70
8
 71
3
 72
8
 73
4
 74
0
 40
0
 40
0
 40
0
 40
0
 40
1
 40
1
 40
1
 40
1
 10
23.363811
 20
73.330069
 30
0.0
 10
23.074249
 20
73.509238
 30
0.0
 10
22.573949
 20
73.727512
 30
0.0
 10
22.754718
 20
74.154686
 30
0.0
  0
SPLINE
  5
1a6
100
AcDbEntity
  8
Layer_1
 62
7
100
AcDbSpline
 70
8
 71
3
 72
8
 73
4
 74
0
 40
0
 40
0
 40
0
 40
0
 40
1
 40
1
 40
1
 40
1
 10
22.754718
 20
74.154686
 30
0.0
 10
22.781797
 20
74.315002
 30
0.0
 10
22.760574
 20
74.494600
 30
0.0
 10
22.845117
 20
74.639205
 30
0.0
  0
LWPOLYLINE
  5
1a7
100
AcDbEntity
  8
Layer_1
 62
7
100
AcDbPolyline
 90
2
 70
0
 10
44.937827
 20
75.620921
 30
0.0
 10
44.937827
 20
75.620921
 30
0.0
  0
LWPOLYLINE
  5
1a8
100
AcDbEntity
  8
Layer_1
 62
7
100
AcDbPolyline
 90
2
 70
0
 10
22.845117
 20
74.639205
 30
0.0
 10
22.845117
 20
74.639205
 30
0.0
  0
SPLINE
  5
1a9
100
AcDbEntity
  8
Layer_1
 62
7
100
AcDbSpline
 70
8
 71
3
 72
8
 73
4
 74
0
 40
0
 40
0
 40
0
 40
0
 40
1
 40
1
 40
1
 40
1
 10
36.253428
 20
74.406042
 30
0.0
 10
36.280691
 20
74.109550
 30
0.0
 10
36.450019
 20
73.660662
 30
0.0
 10
36.053339
 20
73.548902
 30
0.0
  0
SPLINE
  5
1aa
100
AcDbEntity
  8
Layer_1
 62
7
100
AcDbSpline
 70
8
 71
3
 72
8
 73
4
 74
0
 40
0
 40
0
 40
0
 40
0
 40
1
 40
1
 40
1
 40
1
 10
36.053339
 20
73.548902
 30
0.0
 10
35.786430
 20
73.278519
 30
0.0
 10
35.422857
 20
73.264822
 30
0.0
 10
35.126193
 20
73.482757
 30
0.0
  0
SPLINE
  5
1ab
100
AcDbEntity
  8
Layer_1
 62
7
100
AcDbSpline
 70
8
 71
3
 72
8
 73
4
 74
0
 40
0
 40
0
 40
0
 40
0
 40
1
 40
1
 40
1
 40
1
 10
35.126193
 20
73.482757
 30
0.0
 10
34.692099
 20
73.698959
 30
0.0
 10
34.110013
 20
73.805207
 30
0.0
 10
33.805481
 20
74.192171
 30
0.0
  0
SPLINE
  5
1ac
100
AcDbEntity
  8
Layer_1
 62
7
100
AcDbSpline
 70
8
 71
3
 72
8
 73
4
 74
0
 40
0
 40
0
 40
0
 40
0
 40
1
 40
1
 40
1
 40
1
 10
33.805481
 20
74.192171
 30
0.0
 10
33.793628
 20
74.363189
 30
0.0
 10
34.116038
 20
74.176651
 30
0.0
 10
34.183616
 20
74.289735
 30
0.0
  0
SPLINE
  5
1ad
100
AcDbEntity
  8
Layer_1
 62
7
100
AcDbSpline
 70
8
 71
3
 72
8
 73
4
 74
0
 40
0
 40
0
 40
0
 40
0
 40
1
 40
1
 40
1
 40
1
 10
34.183616
 20
74.289735
 30
0.0
 10
34.865366
 20
74.396415
 30
0.0
 10
35.547331
 20
74.514723
 30
0.0
 10
36.233035
 20
74.551011
 30
0.0
  0
LWPOLYLINE
  5
1ae
100
AcDbEntity
  8
Layer_1
 62
7
100
AcDbPolyline
 90
3
 70
0
 10
36.233035
 20
74.551011
 30
0.0
 10
36.244609
 20
74.470535
 30
0.0
 10
36.253428
 20
74.406042
 30
0.0
  0
LWPOLYLINE
  5
1af
100
AcDbEntity
  8
Layer_1
 62
7
100
AcDbPolyline
 90
2
 70
0
 10
36.233035
 20
74.551011
 30
0.0
 10
36.233035
 20
74.551011
 30
0.0
  0
SPLINE
  5
1b0
100
AcDbEntity
  8
Layer_1
 62
7
100
AcDbSpline
 70
8
 71
3
 72
8
 73
4
 74
0
 40
0
 40
0
 40
0
 40
0
 40
1
 40
1
 40
1
 40
1
 10
31.056021
 20
73.508662
 30
0.0
 10
31.470738
 20
73.387727
 30
0.0
 10
31.908736
 20
73.353277
 30
0.0
 10
32.311137
 20
73.190062
 30
0.0
  0
SPLINE
  5
1b1
100
AcDbEntity
  8
Layer_1
 62
7
100
AcDbSpline
 70
8
 71
3
 72
8
 73
4
 74
0
 40
0
 40
0
 40
0
 40
0
 40
1
 40
1
 40
1
 40
1
 10
32.311137
 20
73.190062
 30
0.0
 10
31.835979
 20
71.655315
 30
0.0
 10
31.290006
 20
70.144280
 30
0.0
 10
30.772145
 20
68.623794
 30
0.0
  0
SPLINE
  5
1b2
100
AcDbEntity
  8
Layer_1
 62
7
100
AcDbSpline
 70
8
 71
3
 72
8
 73
4
 74
0
 40
0
 40
0
 40
0
 40
0
 40
1
 40
1
 40
1
 40
1
 10
30.772145
 20
68.623794
 30
0.0
 10
29.906476
 20
68.543575
 30
0.0
 10
29.043715
 20
68.571521
 30
0.0
 10
28.174818
 20
68.625448
 30
0.0
  0
SPLINE
  5
1b3
100
AcDbEntity
  8
Layer_1
 62
7
100
AcDbSpline
 70
8
 71
3
 72
8
 73
4
 74
0
 40
0
 40
0
 40
0
 40
0
 40
1
 40
1
 40
1
 40
1
 10
28.174818
 20
68.625448
 30
0.0
 10
27.635136
 20
70.130477
 30
0.0
 10
27.049821
 20
71.685371
 30
0.0
 10
26.725121
 20
73.221479
 30
0.0
  0
SPLINE
  5
1b4
100
AcDbEntity
  8
Layer_1
 62
7
100
AcDbSpline
 70
8
 71
3
 72
8
 73
4
 74
0
 40
0
 40
0
 40
0
 40
0
 40
1
 40
1
 40
1
 40
1
 10
26.725121
 20
73.221479
 30
0.0
 10
27.718875
 20
73.403137
 30
0.0
 10
28.691558
 20
73.750724
 30
0.0
 10
29.706646
 20
73.812935
 30
0.0
  0
LWPOLYLINE
  5
1b5
100
AcDbEntity
  8
Layer_1
 62
7
100
AcDbPolyline
 90
2
 70
0
 10
29.706646
 20
73.812935
 30
0.0
 10
31.056021
 20
73.508662
 30
0.0
  0
LWPOLYLINE
  5
1b6
100
AcDbEntity
  8
Layer_1
 62
7
100
AcDbPolyline
 90
2
 70
0
 10
29.706646
 20
73.812935
 30
0.0
 10
29.706646
 20
73.812935
 30
0.0
  0
SPLINE
  5
1b7
100
AcDbEntity
  8
Layer_1
 62
7
100
AcDbSpline
 70
8
 71
3
 72
8
 73
4
 74
0
 40
0
 40
0
 40
0
 40
0
 40
1
 40
1
 40
1
 40
1
 10
16.571185
 20
72.747986
 30
0.0
 10
17.325067
 20
71.269881
 30
0.0
 10
18.112435
 20
69.789030
 30
0.0
 10
18.684544
 20
68.234084
 30
0.0
  0
SPLINE
  5
1b8
100
AcDbEntity
  8
Layer_1
 62
7
100
AcDbSpline
 70
8
 71
3
 72
8
 73
4
 74
0
 40
0
 40
0
 40
0
 40
0
 40
1
 40
1
 40
1
 40
1
 10
18.684544
 20
68.234084
 30
0.0
 10
18.631158
 20
67.618831
 30
0.0
 10
18.188652
 20
67.118988
 30
0.0
 10
18.002691
 20
66.539648
 30
0.0
  0
SPLINE
  5
1b9
100
AcDbEntity
  8
Layer_1
 62
7
100
AcDbSpline
 70
8
 71
3
 72
8
 73
4
 74
0
 40
0
 40
0
 40
0
 40
0
 40
1
 40
1
 40
1
 40
1
 10
18.002691
 20
66.539648
 30
0.0
 10
17.581622
 20
65.654367
 30
0.0
 10
17.146469
 20
64.775914
 30
0.0
 10
16.680877
 20
63.913107
 30
0.0
  0
SPLINE
  5
1ba
100
AcDbEntity
  8
Layer_1
 62
7
100
AcDbSpline
 70
8
 71
3
 72
8
 73
4
 74
0
 40
0
 40
0
 40
0
 40
0
 40
1
 40
1
 40
1
 40
1
 10
16.680877
 20
63.913107
 30
0.0
 10
15.668738
 20
65.792532
 30
0.0
 10
14.701613
 20
67.691241
 30
0.0
 10
13.847079
 20
69.647400
 30
0.0
  0
SPLINE
  5
1bb
100
AcDbEntity
  8
Layer_1
 62
7
100
AcDbSpline
 70
8
 71
3
 72
8
 73
4
 74
0
 40
0
 40
0
 40
0
 40
0
 40
1
 40
1
 40
1
 40
1
 10
13.847079
 20
69.647400
 30
0.0
 10
14.648863
 20
70.783485
 30
0.0
 10
15.553822
 20
71.844646
 30
0.0
 10
16.521024
 20
72.842796
 30
0.0
  0
LWPOLYLINE
  5
1bc
100
AcDbEntity
  8
Layer_1
 62
7
100
AcDbPolyline
 90
3
 70
0
 10
16.521024
 20
72.842796
 30
0.0
 10
16.559058
 20
72.771137
 30
0.0
 10
16.571185
 20
72.747986
 30
0.0
  0
LWPOLYLINE
  5
1bd
100
AcDbEntity
  8
Layer_1
 62
7
100
AcDbPolyline
 90
2
 70
0
 10
16.521024
 20
72.842796
 30
0.0
 10
16.521024
 20
72.842796
 30
0.0
  0
SPLINE
  5
1be
100
AcDbEntity
  8
Layer_1
 62
7
100
AcDbSpline
 70
8
 71
3
 72
8
 73
4
 74
0
 40
0
 40
0
 40
0
 40
0
 40
1
 40
1
 40
1
 40
1
 10
42.721389
 20
72.732551
 30
0.0
 10
43.680293
 20
71.751934
 30
0.0
 10
44.578812
 20
70.692229
 30
0.0
 10
45.326433
 20
69.547078
 30
0.0
  0
SPLINE
  5
1bf
100
AcDbEntity
  8
Layer_1
 62
7
100
AcDbSpline
 70
8
 71
3
 72
8
 73
4
 74
0
 40
0
 40
0
 40
0
 40
0
 40
1
 40
1
 40
1
 40
1
 10
45.326433
 20
69.547078
 30
0.0
 10
44.982934
 20
68.635153
 30
0.0
 10
44.455944
 20
67.794597
 30
0.0
 10
44.033282
 20
66.914475
 30
0.0
  0
SPLINE
  5
1c0
100
AcDbEntity
  8
Layer_1
 62
7
100
AcDbSpline
 70
8
 71
3
 72
8
 73
4
 74
0
 40
0
 40
0
 40
0
 40
0
 40
1
 40
1
 40
1
 40
1
 10
44.033282
 20
66.914475
 30
0.0
 10
43.464469
 20
65.822134
 30
0.0
 10
42.886969
 20
64.738048
 30
0.0
 10
42.244589
 20
63.689866
 30
0.0
  0
SPLINE
  5
1c1
100
AcDbEntity
  8
Layer_1
 62
7
100
AcDbSpline
 70
8
 71
3
 72
8
 73
4
 74
0
 40
0
 40
0
 40
0
 40
0
 40
1
 40
1
 40
1
 40
1
 10
42.244589
 20
63.689866
 30
0.0
 10
41.499068
 20
65.128965
 30
0.0
 10
40.882784
 20
66.621004
 30
0.0
 10
40.206744
 20
68.093524
 30
0.0
  0
SPLINE
  5
1c2
100
AcDbEntity
  8
Layer_1
 62
7
100
AcDbSpline
 70
8
 71
3
 72
8
 73
4
 74
0
 40
0
 40
0
 40
0
 40
0
 40
1
 40
1
 40
1
 40
1
 10
40.206744
 20
68.093524
 30
0.0
 10
41.018302
 20
69.659755
 30
0.0
 10
41.751902
 20
71.284622
 30
0.0
 10
42.670126
 20
72.783814
 30
0.0
  0
LWPOLYLINE
  5
1c3
100
AcDbEntity
  8
Layer_1
 62
7
100
AcDbPolyline
 90
2
 70
0
 10
42.670126
 20
72.783814
 30
0.0
 10
42.721389
 20
72.732551
 30
0.0
  0
SPLINE
  5
1c4
100
AcDbEntity
  8
Layer_1
 62
7
100
AcDbSpline
 70
8
 71
3
 72
8
 73
4
 74
0
 40
0
 40
0
 40
0
 40
0
 40
1
 40
1
 40
1
 40
1
 10
25.638676
 20
72.381427
 30
0.0
 10
26.134014
 20
71.011874
 30
0.0
 10
26.601976
 20
69.621198
 30
0.0
 10
26.936788
 20
68.213138
 30
0.0
  0
SPLINE
  5
1c5
100
AcDbEntity
  8
Layer_1
 62
7
100
AcDbSpline
 70
8
 71
3
 72
8
 73
4
 74
0
 40
0
 40
0
 40
0
 40
0
 40
1
 40
1
 40
1
 40
1
 10
26.936788
 20
68.213138
 30
0.0
 10
26.519777
 20
67.459523
 30
0.0
 10
25.574954
 20
67.075788
 30
0.0
 10
25.283143
 20
66.261286
 30
0.0
  0
SPLINE
  5
1c6
100
AcDbEntity
  8
Layer_1
 62
7
100
AcDbSpline
 70
8
 71
3
 72
8
 73
4
 74
0
 40
0
 40
0
 40
0
 40
0
 40
1
 40
1
 40
1
 40
1
 10
25.283143
 20
66.261286
 30
0.0
 10
25.253351
 20
65.641142
 30
0.0
 10
25.476224
 20
65.045831
 30
0.0
 10
25.511897
 20
64.431250
 30
0.0
  0
SPLINE
  5
1c7
100
AcDbEntity
  8
Layer_1
 62
7
100
AcDbSpline
 70
8
 71
3
 72
8
 73
4
 74
0
 40
0
 40
0
 40
0
 40
0
 40
1
 40
1
 40
1
 40
1
 10
25.511897
 20
64.431250
 30
0.0
 10
24.845631
 20
64.115012
 30
0.0
 10
24.162490
 20
63.837025
 30
0.0
 10
23.474605
 20
63.562536
 30
0.0
  0
SPLINE
  5
1c8
100
AcDbEntity
  8
Layer_1
 62
7
100
AcDbSpline
 70
8
 71
3
 72
8
 73
4
 74
0
 40
0
 40
0
 40
0
 40
0
 40
1
 40
1
 40
1
 40
1
 10
23.474605
 20
63.562536
 30
0.0
 10
24.124097
 20
65.620783
 30
0.0
 10
24.972253
 20
67.668277
 30
0.0
 10
25.008637
 20
69.858516
 30
0.0
  0
SPLINE
  5
1c9
100
AcDbEntity
  8
Layer_1
 62
7
100
AcDbSpline
 70
8
 71
3
 72
8
 73
4
 74
0
 40
0
 40
0
 40
0
 40
0
 40
1
 40
1
 40
1
 40
1
 10
25.008637
 20
69.858516
 30
0.0
 10
25.067478
 20
70.641316
 30
0.0
 10
24.965036
 20
71.525583
 30
0.0
 10
25.494809
 20
72.166453
 30
0.0
  0
SPLINE
  5
1ca
100
AcDbEntity
  8
Layer_1
 62
7
100
AcDbSpline
 70
8
 71
3
 72
8
 73
4
 74
0
 40
0
 40
0
 40
0
 40
0
 40
1
 40
1
 40
1
 40
1
 10
25.494809
 20
72.166453
 30
0.0
 10
25.537884
 20
72.227769
 30
0.0
 10
25.595096
 20
72.353637
 30
0.0
 10
25.638676
 20
72.381427
 30
0.0
  0
LWPOLYLINE
  5
1cb
100
AcDbEntity
  8
Layer_1
 62
7
100
AcDbPolyline
 90
2
 70
0
 10
42.670126
 20
72.783814
 30
0.0
 10
42.670126
 20
72.783814
 30
0.0
  0
LWPOLYLINE
  5
1cc
100
AcDbEntity
  8
Layer_1
 62
7
100
AcDbPolyline
 90
2
 70
0
 10
25.638676
 20
72.381427
 30
0.0
 10
25.638676
 20
72.381427
 30
0.0
  0
SPLINE
  5
1cd
100
AcDbEntity
  8
Layer_1
 62
7
100
AcDbSpline
 70
8
 71
3
 72
8
 73
4
 74
0
 40
0
 40
0
 40
0
 40
0
 40
1
 40
1
 40
1
 40
1
 10
33.384905
 20
72.292132
 30
0.0
 10
33.754464
 20
71.844500
 30
0.0
 10
33.909155
 20
71.274933
 30
0.0
 10
33.869424
 20
70.704079
 30
0.0
  0
SPLINE
  5
1ce
100
AcDbEntity
  8
Layer_1
 62
7
100
AcDbSpline
 70
8
 71
3
 72
8
 73
4
 74
0
 40
0
 40
0
 40
0
 40
0
 40
1
 40
1
 40
1
 40
1
 10
33.869424
 20
70.704079
 30
0.0
 10
34.003070
 20
69.212447
 30
0.0
 10
33.919487
 20
67.657679
 30
0.0
 10
34.490643
 20
66.238133
 30
0.0
  0
SPLINE
  5
1cf
100
AcDbEntity
  8
Layer_1
 62
7
100
AcDbSpline
 70
8
 71
3
 72
8
 73
4
 74
0
 40
0
 40
0
 40
0
 40
0
 40
1
 40
1
 40
1
 40
1
 10
34.490643
 20
66.238133
 30
0.0
 10
34.777909
 20
65.319968
 30
0.0
 10
35.079201
 20
64.409059
 30
0.0
 10
35.302582
 20
63.471584
 30
0.0
  0
SPLINE
  5
1d0
100
AcDbEntity
  8
Layer_1
 62
7
100
AcDbSpline
 70
8
 71
3
 72
8
 73
4
 74
0
 40
0
 40
0
 40
0
 40
0
 40
1
 40
1
 40
1
 40
1
 10
35.302582
 20
63.471584
 30
0.0
 10
34.631788
 20
63.789516
 30
0.0
 10
33.887560
 20
64.063117
 30
0.0
 10
33.298364
 20
64.476451
 30
0.0
  0
SPLINE
  5
1d1
100
AcDbEntity
  8
Layer_1
 62
7
100
AcDbSpline
 70
8
 71
3
 72
8
 73
4
 74
0
 40
0
 40
0
 40
0
 40
0
 40
1
 40
1
 40
1
 40
1
 10
33.298364
 20
64.476451
 30
0.0
 10
33.342083
 20
65.195511
 30
0.0
 10
33.851932
 20
66.049857
 30
0.0
 10
33.265841
 20
66.686824
 30
0.0
  0
SPLINE
  5
1d2
100
AcDbEntity
  8
Layer_1
 62
7
100
AcDbSpline
 70
8
 71
3
 72
8
 73
4
 74
0
 40
0
 40
0
 40
0
 40
0
 40
1
 40
1
 40
1
 40
1
 10
33.265841
 20
66.686824
 30
0.0
 10
32.871540
 20
67.210097
 30
0.0
 10
32.330204
 20
67.601746
 30
0.0
 10
31.944578
 20
68.132109
 30
0.0
  0
SPLINE
  5
1d3
100
AcDbEntity
  8
Layer_1
 62
7
100
AcDbSpline
 70
8
 71
3
 72
8
 73
4
 74
0
 40
0
 40
0
 40
0
 40
0
 40
1
 40
1
 40
1
 40
1
 10
31.944578
 20
68.132109
 30
0.0
 10
32.297045
 20
69.576345
 30
0.0
 10
32.843659
 20
70.961861
 30
0.0
 10
33.335846
 20
72.361584
 30
0.0
  0
LWPOLYLINE
  5
1d4
100
AcDbEntity
  8
Layer_1
 62
7
100
AcDbPolyline
 90
3
 70
0
 10
33.335846
 20
72.361584
 30
0.0
 10
33.382701
 20
72.295437
 30
0.0
 10
33.384905
 20
72.292132
 30
0.0
  0
SPLINE
  5
1d5
100
AcDbEntity
  8
Layer_1
 62
7
100
AcDbSpline
 70
8
 71
3
 72
8
 73
4
 74
0
 40
0
 40
0
 40
0
 40
0
 40
1
 40
1
 40
1
 40
1
 10
19.810126
 20
67.571523
 30
0.0
 10
20.128101
 20
67.553912
 30
0.0
 10
20.445753
 20
67.536211
 30
0.0
 10
20.763728
 20
67.518606
 30
0.0
  0
SPLINE
  5
1d6
100
AcDbEntity
  8
Layer_1
 62
7
100
AcDbSpline
 70
8
 71
3
 72
8
 73
4
 74
0
 40
0
 40
0
 40
0
 40
0
 40
1
 40
1
 40
1
 40
1
 10
20.763728
 20
67.518606
 30
0.0
 10
21.644919
 20
67.459534
 30
0.0
 10
22.541196
 20
67.426443
 30
0.0
 10
23.402947
 20
67.295365
 30
0.0
  0
SPLINE
  5
1d7
100
AcDbEntity
  8
Layer_1
 62
7
100
AcDbSpline
 70
8
 71
3
 72
8
 73
4
 74
0
 40
0
 40
0
 40
0
 40
0
 40
1
 40
1
 40
1
 40
1
 10
23.402947
 20
67.295365
 30
0.0
 10
22.994948
 20
65.678590
 30
0.0
 10
22.332779
 20
64.125383
 30
0.0
 10
21.953251
 20
62.495934
 30
0.0
  0
SPLINE
  5
1d8
100
AcDbEntity
  8
Layer_1
 62
7
100
AcDbSpline
 70
8
 71
3
 72
8
 73
4
 74
0
 40
0
 40
0
 40
0
 40
0
 40
1
 40
1
 40
1
 40
1
 10
21.953251
 20
62.495934
 30
0.0
 10
22.425749
 20
61.421330
 30
0.0
 10
23.091866
 20
60.448967
 30
0.0
 10
23.680760
 20
59.437791
 30
0.0
  0
SPLINE
  5
1d9
100
AcDbEntity
  8
Layer_1
 62
7
100
AcDbSpline
 70
8
 71
3
 72
8
 73
4
 74
0
 40
0
 40
0
 40
0
 40
0
 40
1
 40
1
 40
1
 40
1
 10
23.680760
 20
59.437791
 30
0.0
 10
21.695692
 20
60.177444
 30
0.0
 10
19.673120
 20
60.872021
 30
0.0
 10
17.748030
 20
61.737461
 30
0.0
  0
SPLINE
  5
1da
100
AcDbEntity
  8
Layer_1
 62
7
100
AcDbSpline
 70
8
 71
3
 72
8
 73
4
 74
0
 40
0
 40
0
 40
0
 40
0
 40
1
 40
1
 40
1
 40
1
 10
17.748030
 20
61.737461
 30
0.0
 10
17.461082
 20
62.076769
 30
0.0
 10
17.326809
 20
62.570223
 30
0.0
 10
17.626762
 20
62.945725
 30
0.0
  0
SPLINE
  5
1db
100
AcDbEntity
  8
Layer_1
 62
7
100
AcDbSpline
 70
8
 71
3
 72
8
 73
4
 74
0
 40
0
 40
0
 40
0
 40
0
 40
1
 40
1
 40
1
 40
1
 10
17.626762
 20
62.945725
 30
0.0
 10
18.305173
 20
64.507368
 30
0.0
 10
19.104971
 20
66.018346
 30
0.0
 10
19.810126
 20
67.571523
 30
0.0
  0
LWPOLYLINE
  5
1dc
100
AcDbEntity
  8
Layer_1
 62
7
100
AcDbPolyline
 90
2
 70
0
 10
33.335846
 20
72.361584
 30
0.0
 10
33.335846
 20
72.361584
 30
0.0
  0
LWPOLYLINE
  5
1dd
100
AcDbEntity
  8
Layer_1
 62
7
100
AcDbPolyline
 90
2
 70
0
 10
19.810126
 20
67.571523
 30
0.0
 10
19.810126
 20
67.571523
 30
0.0
  0
SPLINE
  5
1de
100
AcDbEntity
  8
Layer_1
 62
7
100
AcDbSpline
 70
8
 71
3
 72
8
 73
4
 74
0
 40
0
 40
0
 40
0
 40
0
 40
1
 40
1
 40
1
 40
1
 10
39.130772
 20
67.441988
 30
0.0
 10
40.006521
 20
65.874266
 30
0.0
 10
40.648204
 20
64.190046
 30
0.0
 10
41.440365
 20
62.581371
 30
0.0
  0
SPLINE
  5
1df
100
AcDbEntity
  8
Layer_1
 62
7
100
AcDbSpline
 70
8
 71
3
 72
8
 73
4
 74
0
 40
0
 40
0
 40
0
 40
0
 40
1
 40
1
 40
1
 40
1
 10
41.440365
 20
62.581371
 30
0.0
 10
41.654538
 20
62.178197
 30
0.0
 10
41.302435
 20
61.750559
 30
0.0
 10
41.037425
 20
61.459097
 30
0.0
  0
SPLINE
  5
1e0
100
AcDbEntity
  8
Layer_1
 62
7
100
AcDbSpline
 70
8
 71
3
 72
8
 73
4
 74
0
 40
0
 40
0
 40
0
 40
0
 40
1
 40
1
 40
1
 40
1
 10
41.037425
 20
61.459097
 30
0.0
 10
40.035765
 20
61.019799
 30
0.0
 10
38.959254
 20
60.705719
 30
0.0
 10
37.928019
 20
60.316427
 30
0.0
  0
SPLINE
  5
1e1
100
AcDbEntity
  8
Layer_1
 62
7
100
AcDbSpline
 70
8
 71
3
 72
8
 73
4
 74
0
 40
0
 40
0
 40
0
 40
0
 40
1
 40
1
 40
1
 40
1
 10
37.928019
 20
60.316427
 30
0.0
 10
36.969342
 20
59.978940
 30
0.0
 10
36.009998
 20
59.647400
 30
0.0
 10
35.048472
 20
59.319280
 30
0.0
  0
SPLINE
  5
1e2
100
AcDbEntity
  8
Layer_1
 62
7
100
AcDbSpline
 70
8
 71
3
 72
8
 73
4
 74
0
 40
0
 40
0
 40
0
 40
0
 40
1
 40
1
 40
1
 40
1
 10
35.048472
 20
59.319280
 30
0.0
 10
35.667891
 20
60.340933
 30
0.0
 10
36.317504
 20
61.344783
 30
0.0
 10
36.902760
 20
62.386793
 30
0.0
  0
SPLINE
  5
1e3
100
AcDbEntity
  8
Layer_1
 62
7
100
AcDbSpline
 70
8
 71
3
 72
8
 73
4
 74
0
 40
0
 40
0
 40
0
 40
0
 40
1
 40
1
 40
1
 40
1
 10
36.902760
 20
62.386793
 30
0.0
 10
36.455641
 20
63.999504
 30
0.0
 10
35.885332
 20
65.576336
 30
0.0
 10
35.482829
 20
67.201659
 30
0.0
  0
SPLINE
  5
1e4
100
AcDbEntity
  8
Layer_1
 62
7
100
AcDbSpline
 70
8
 71
3
 72
8
 73
4
 74
0
 40
0
 40
0
 40
0
 40
0
 40
1
 40
1
 40
1
 40
1
 10
35.482829
 20
67.201659
 30
0.0
 10
36.680374
 20
67.408596
 30
0.0
 10
37.910166
 20
67.393979
 30
0.0
 10
39.113686
 20
67.471754
 30
0.0
  0
LWPOLYLINE
  5
1e5
100
AcDbEntity
  8
Layer_1
 62
7
100
AcDbPolyline
 90
2
 70
0
 10
39.113686
 20
67.471754
 30
0.0
 10
39.130772
 20
67.441988
 30
0.0
  0
SPLINE
  5
1e6
100
AcDbEntity
  8
Layer_1
 62
7
100
AcDbSpline
 70
8
 71
3
 72
8
 73
4
 74
0
 40
0
 40
0
 40
0
 40
0
 40
1
 40
1
 40
1
 40
1
 10
30.710409
 20
67.384110
 30
0.0
 10
30.928454
 20
67.365119
 30
0.0
 10
31.122908
 20
67.280165
 30
0.0
 10
31.244534
 20
67.068264
 30
0.0
  0
SPLINE
  5
1e7
100
AcDbEntity
  8
Layer_1
 62
7
100
AcDbSpline
 70
8
 71
3
 72
8
 73
4
 74
0
 40
0
 40
0
 40
0
 40
0
 40
1
 40
1
 40
1
 40
1
 10
31.244534
 20
67.068264
 30
0.0
 10
31.605624
 20
66.660075
 30
0.0
 10
32.186462
 20
66.310497
 30
0.0
 10
32.303421
 20
65.760782
 30
0.0
  0
SPLINE
  5
1e8
100
AcDbEntity
  8
Layer_1
 62
7
100
AcDbSpline
 70
8
 71
3
 72
8
 73
4
 74
0
 40
0
 40
0
 40
0
 40
0
 40
1
 40
1
 40
1
 40
1
 10
32.303421
 20
65.760782
 30
0.0
 10
32.177919
 20
65.134915
 30
0.0
 10
32.191926
 20
64.319456
 30
0.0
 10
31.543295
 20
63.978701
 30
0.0
  0
SPLINE
  5
1e9
100
AcDbEntity
  8
Layer_1
 62
7
100
AcDbSpline
 70
8
 71
3
 72
8
 73
4
 74
0
 40
0
 40
0
 40
0
 40
0
 40
1
 40
1
 40
1
 40
1
 10
31.543295
 20
63.978701
 30
0.0
 10
30.829400
 20
63.416466
 30
0.0
 10
30.141539
 20
62.834042
 30
0.0
 10
29.395208
 20
62.325057
 30
0.0
  0
SPLINE
  5
1ea
100
AcDbEntity
  8
Layer_1
 62
7
100
AcDbSpline
 70
8
 71
3
 72
8
 73
4
 74
0
 40
0
 40
0
 40
0
 40
0
 40
1
 40
1
 40
1
 40
1
 10
29.395208
 20
62.325057
 30
0.0
 10
28.506443
 20
62.960858
 30
0.0
 10
27.623801
 20
63.646861
 30
0.0
 10
26.844735
 20
64.410303
 30
0.0
  0
SPLINE
  5
1eb
100
AcDbEntity
  8
Layer_1
 62
7
100
AcDbSpline
 70
8
 71
3
 72
8
 73
4
 74
0
 40
0
 40
0
 40
0
 40
0
 40
1
 40
1
 40
1
 40
1
 10
26.844735
 20
64.410303
 30
0.0
 10
26.651618
 20
64.906919
 30
0.0
 10
26.408444
 20
65.488861
 30
0.0
 10
26.563064
 20
66.015993
 30
0.0
  0
SPLINE
  5
1ec
100
AcDbEntity
  8
Layer_1
 62
7
100
AcDbSpline
 70
8
 71
3
 72
8
 73
4
 74
0
 40
0
 40
0
 40
0
 40
0
 40
1
 40
1
 40
1
 40
1
 10
26.563064
 20
66.015993
 30
0.0
 10
26.913307
 20
66.570799
 30
0.0
 10
27.468900
 20
66.904033
 30
0.0
 10
27.914093
 20
67.373086
 30
0.0
  0
SPLINE
  5
1ed
100
AcDbEntity
  8
Layer_1
 62
7
100
AcDbSpline
 70
8
 71
3
 72
8
 73
4
 74
0
 40
0
 40
0
 40
0
 40
0
 40
1
 40
1
 40
1
 40
1
 10
27.914093
 20
67.373086
 30
0.0
 10
28.771940
 20
67.383613
 30
0.0
 10
29.635252
 20
67.349383
 30
0.0
 10
30.486615
 20
67.383560
 30
0.0
  0
SPLINE
  5
1ee
100
AcDbEntity
  8
Layer_1
 62
7
100
AcDbSpline
 70
8
 71
3
 72
8
 73
4
 74
0
 40
0
 40
0
 40
0
 40
0
 40
1
 40
1
 40
1
 40
1
 10
30.486615
 20
67.383560
 30
0.0
 10
30.562632
 20
67.389633
 30
0.0
 10
30.637726
 20
67.390440
 30
0.0
 10
30.710409
 20
67.384110
 30
0.0
  0
LWPOLYLINE
  5
1ef
100
AcDbEntity
  8
Layer_1
 62
7
100
AcDbPolyline
 90
2
 70
0
 10
39.113686
 20
67.471754
 30
0.0
 10
39.113686
 20
67.471754
 30
0.0
  0
LWPOLYLINE
  5
1f0
100
AcDbEntity
  8
Layer_1
 62
7
100
AcDbPolyline
 90
2
 70
0
 10
30.710409
 20
67.384110
 30
0.0
 10
30.710409
 20
67.384110
 30
0.0
  0
SPLINE
  5
1f1
100
AcDbEntity
  8
Layer_1
 62
7
100
AcDbSpline
 70
8
 71
3
 72
8
 73
4
 74
0
 40
0
 40
0
 40
0
 40
0
 40
1
 40
1
 40
1
 40
1
 10
26.219106
 20
63.284172
 30
0.0
 10
27.064387
 20
62.664561
 30
0.0
 10
27.903328
 20
62.008017
 30
0.0
 10
28.683591
 20
61.308616
 30
0.0
  0
SPLINE
  5
1f2
100
AcDbEntity
  8
Layer_1
 62
7
100
AcDbSpline
 70
8
 71
3
 72
8
 73
4
 74
0
 40
0
 40
0
 40
0
 40
0
 40
1
 40
1
 40
1
 40
1
 10
28.683591
 20
61.308616
 30
0.0
 10
28.738644
 20
61.023484
 30
0.0
 10
28.708793
 20
60.732372
 30
0.0
 10
28.710599
 20
60.444311
 30
0.0
  0
SPLINE
  5
1f3
100
AcDbEntity
  8
Layer_1
 62
7
100
AcDbSpline
 70
8
 71
3
 72
8
 73
4
 74
0
 40
0
 40
0
 40
0
 40
0
 40
1
 40
1
 40
1
 40
1
 10
28.710599
 20
60.444311
 30
0.0
 10
27.929384
 20
60.521369
 30
0.0
 10
27.164468
 20
60.268314
 30
0.0
 10
26.532747
 20
59.817577
 30
0.0
  0
SPLINE
  5
1f4
100
AcDbEntity
  8
Layer_1
 62
7
100
AcDbSpline
 70
8
 71
3
 72
8
 73
4
 74
0
 40
0
 40
0
 40
0
 40
0
 40
1
 40
1
 40
1
 40
1
 10
26.532747
 20
59.817577
 30
0.0
 10
26.115602
 20
59.581563
 30
0.0
 10
25.702158
 20
59.338177
 30
0.0
 10
25.276528
 20
59.117536
 30
0.0
  0
SPLINE
  5
1f5
100
AcDbEntity
  8
Layer_1
 62
7
100
AcDbSpline
 70
8
 71
3
 72
8
 73
4
 74
0
 40
0
 40
0
 40
0
 40
0
 40
1
 40
1
 40
1
 40
1
 10
25.276528
 20
59.117536
 30
0.0
 10
24.586867
 20
60.099113
 30
0.0
 10
23.957964
 20
61.187266
 30
0.0
 10
23.415074
 20
62.239066
 30
0.0
  0
SPLINE
  5
1f6
100
AcDbEntity
  8
Layer_1
 62
7
100
AcDbSpline
 70
8
 71
3
 72
8
 73
4
 74
0
 40
0
 40
0
 40
0
 40
0
 40
1
 40
1
 40
1
 40
1
 10
23.415074
 20
62.239066
 30
0.0
 10
24.310985
 20
62.612686
 30
0.0
 10
25.166451
 20
63.103346
 30
0.0
 10
26.109414
 20
63.363547
 30
0.0
  0
LWPOLYLINE
  5
1f7
100
AcDbEntity
  8
Layer_1
 62
7
100
AcDbPolyline
 90
3
 70
0
 10
26.109414
 20
63.363547
 30
0.0
 10
26.175009
 20
63.316142
 30
0.0
 10
26.219106
 20
63.284172
 30
0.0
  0
LWPOLYLINE
  5
1f8
100
AcDbEntity
  8
Layer_1
 62
7
100
AcDbPolyline
 90
2
 70
0
 10
26.109414
 20
63.363547
 30
0.0
 10
26.109414
 20
63.363547
 30
0.0
  0
SPLINE
  5
1f9
100
AcDbEntity
  8
Layer_1
 62
7
100
AcDbSpline
 70
8
 71
3
 72
8
 73
4
 74
0
 40
0
 40
0
 40
0
 40
0
 40
1
 40
1
 40
1
 40
1
 10
33.683112
 20
62.907140
 30
0.0
 10
34.227677
 20
62.628849
 30
0.0
 10
34.828627
 20
62.471674
 30
0.0
 10
35.352742
 20
62.151975
 30
0.0
  0
SPLINE
  5
1fa
100
AcDbEntity
  8
Layer_1
 62
7
100
AcDbSpline
 70
8
 71
3
 72
8
 73
4
 74
0
 40
0
 40
0
 40
0
 40
0
 40
1
 40
1
 40
1
 40
1
 10
35.352742
 20
62.151975
 30
0.0
 10
34.795296
 20
61.063650
 30
0.0
 10
34.125521
 20
60.037710
 30
0.0
 10
33.430656
 20
59.033200
 30
0.0
  0
SPLINE
  5
1fb
100
AcDbEntity
  8
Layer_1
 62
7
100
AcDbSpline
 70
8
 71
3
 72
8
 73
4
 74
0
 40
0
 40
0
 40
0
 40
0
 40
1
 40
1
 40
1
 40
1
 10
33.430656
 20
59.033200
 30
0.0
 10
32.451853
 20
59.487394
 30
0.0
 10
31.580991
 20
60.363426
 30
0.0
 10
30.451888
 20
60.449823
 30
0.0
  0
SPLINE
  5
1fc
100
AcDbEntity
  8
Layer_1
 62
7
100
AcDbSpline
 70
8
 71
3
 72
8
 73
4
 74
0
 40
0
 40
0
 40
0
 40
0
 40
1
 40
1
 40
1
 40
1
 10
30.451888
 20
60.449823
 30
0.0
 10
30.259906
 20
60.447847
 30
0.0
 10
29.955101
 20
60.384725
 30
0.0
 10
30.041232
 20
60.680782
 30
0.0
  0
SPLINE
  5
1fd
100
AcDbEntity
  8
Layer_1
 62
7
100
AcDbSpline
 70
8
 71
3
 72
8
 73
4
 74
0
 40
0
 40
0
 40
0
 40
0
 40
1
 40
1
 40
1
 40
1
 10
30.041232
 20
60.680782
 30
0.0
 10
29.976586
 20
61.031717
 30
0.0
 10
29.990610
 20
61.475156
 30
0.0
 10
30.402279
 20
61.593593
 30
0.0
  0
LWPOLYLINE
  5
1fe
100
AcDbEntity
  8
Layer_1
 62
7
100
AcDbPolyline
 90
2
 70
0
 10
32.671631
 20
63.349216
 30
0.0
 10
33.683112
 20
62.907140
 30
0.0
  0
LWPOLYLINE
  5
1ff
100
AcDbEntity
  8
Layer_1
 62
7
100
AcDbPolyline
 90
3
 70
0
 10
30.402279
 20
61.593593
 30
0.0
 10
32.671631
 20
63.349216
 30
0.0
 10
32.671631
 20
63.349216
 30
0.0
  0
SPLINE
  5
200
100
AcDbEntity
  8
Layer_1
 62
7
100
AcDbSpline
 70
8
 71
3
 72
8
 73
4
 74
0
 40
0
 40
0
 40
0
 40
0
 40
1
 40
1
 40
1
 40
1
 10
19.420968
 20
59.773480
 30
0.0
 10
21.221901
 20
59.114350
 30
0.0
 10
23.054846
 20
58.488395
 30
0.0
 10
24.790356
 20
57.689336
 30
0.0
  0
SPLINE
  5
201
100
AcDbEntity
  8
Layer_1
 62
7
100
AcDbSpline
 70
8
 71
3
 72
8
 73
4
 74
0
 40
0
 40
0
 40
0
 40
0
 40
1
 40
1
 40
1
 40
1
 10
24.790356
 20
57.689336
 30
0.0
 10
25.713647
 20
56.845029
 30
0.0
 10
26.600195
 20
55.961583
 30
0.0
 10
27.475326
 20
55.067757
 30
0.0
  0
SPLINE
  5
202
100
AcDbEntity
  8
Layer_1
 62
7
100
AcDbSpline
 70
8
 71
3
 72
8
 73
4
 74
0
 40
0
 40
0
 40
0
 40
0
 40
1
 40
1
 40
1
 40
1
 10
27.475326
 20
55.067757
 30
0.0
 10
27.003684
 20
54.979131
 30
0.0
 10
26.423918
 20
54.721092
 30
0.0
 10
26.037756
 20
55.148786
 30
0.0
  0
SPLINE
  5
203
100
AcDbEntity
  8
Layer_1
 62
7
100
AcDbSpline
 70
8
 71
3
 72
8
 73
4
 74
0
 40
0
 40
0
 40
0
 40
0
 40
1
 40
1
 40
1
 40
1
 10
26.037756
 20
55.148786
 30
0.0
 10
24.278079
 20
56.342434
 30
0.0
 10
22.230675
 20
57.000630
 30
0.0
 10
20.374019
 20
58.000221
 30
0.0
  0
SPLINE
  5
204
100
AcDbEntity
  8
Layer_1
 62
7
100
AcDbSpline
 70
8
 71
3
 72
8
 73
4
 74
0
 40
0
 40
0
 40
0
 40
0
 40
1
 40
1
 40
1
 40
1
 10
20.374019
 20
58.000221
 30
0.0
 10
19.931298
 20
58.636322
 30
0.0
 10
19.472240
 20
59.261526
 30
0.0
 10
19.042834
 20
59.906875
 30
0.0
  0
LWPOLYLINE
  5
205
100
AcDbEntity
  8
Layer_1
 62
7
100
AcDbPolyline
 90
2
 70
0
 10
19.042834
 20
59.906875
 30
0.0
 10
19.420968
 20
59.773480
 30
0.0
  0
LWPOLYLINE
  5
206
100
AcDbEntity
  8
Layer_1
 62
7
100
AcDbPolyline
 90
2
 70
0
 10
19.042834
 20
59.906875
 30
0.0
 10
19.042834
 20
59.906875
 30
0.0
  0
SPLINE
  5
207
100
AcDbEntity
  8
Layer_1
 62
7
100
AcDbSpline
 70
8
 71
3
 72
8
 73
4
 74
0
 40
0
 40
0
 40
0
 40
0
 40
1
 40
1
 40
1
 40
1
 10
39.632930
 20
59.474722
 30
0.0
 10
39.045566
 20
58.732371
 30
0.0
 10
38.580797
 20
57.797289
 30
0.0
 10
37.618789
 20
57.496409
 30
0.0
  0
SPLINE
  5
208
100
AcDbEntity
  8
Layer_1
 62
7
100
AcDbSpline
 70
8
 71
3
 72
8
 73
4
 74
0
 40
0
 40
0
 40
0
 40
0
 40
1
 40
1
 40
1
 40
1
 10
37.618789
 20
57.496409
 30
0.0
 10
35.766352
 20
56.653603
 30
0.0
 10
33.830300
 20
55.934877
 30
0.0
 10
32.108290
 20
54.830733
 30
0.0
  0
SPLINE
  5
209
100
AcDbEntity
  8
Layer_1
 62
7
100
AcDbSpline
 70
8
 71
3
 72
8
 73
4
 74
0
 40
0
 40
0
 40
0
 40
0
 40
1
 40
1
 40
1
 40
1
 10
32.108290
 20
54.830733
 30
0.0
 10
31.755213
 20
54.760446
 30
0.0
 10
31.422518
 20
54.963885
 30
0.0
 10
31.082480
 20
55.012634
 30
0.0
  0
SPLINE
  5
20a
100
AcDbEntity
  8
Layer_1
 62
7
100
AcDbSpline
 70
8
 71
3
 72
8
 73
4
 74
0
 40
0
 40
0
 40
0
 40
0
 40
1
 40
1
 40
1
 40
1
 10
31.082480
 20
55.012634
 30
0.0
 10
32.128889
 20
55.906268
 30
0.0
 10
33.040794
 20
57.003031
 30
0.0
 10
34.184717
 20
57.752726
 30
0.0
  0
SPLINE
  5
20b
100
AcDbEntity
  8
Layer_1
 62
7
100
AcDbSpline
 70
8
 71
3
 72
8
 73
4
 74
0
 40
0
 40
0
 40
0
 40
0
 40
1
 40
1
 40
1
 40
1
 10
34.184717
 20
57.752726
 30
0.0
 10
36.036845
 20
58.431826
 30
0.0
 10
37.909418
 20
59.068331
 30
0.0
 10
39.785617
 20
59.685285
 30
0.0
  0
LWPOLYLINE
  5
20c
100
AcDbEntity
  8
Layer_1
 62
7
100
AcDbPolyline
 90
2
 70
0
 10
39.785617
 20
59.685285
 30
0.0
 10
39.632930
 20
59.474722
 30
0.0
  0
LWPOLYLINE
  5
20d
100
AcDbEntity
  8
Layer_1
 62
7
100
AcDbPolyline
 90
2
 70
0
 10
39.785617
 20
59.685285
 30
0.0
 10
39.785617
 20
59.685285
 30
0.0
  0
SPLINE
  5
20e
100
AcDbEntity
  8
Layer_1
 62
7
100
AcDbSpline
 70
8
 71
3
 72
8
 73
4
 74
0
 40
0
 40
0
 40
0
 40
0
 40
1
 40
1
 40
1
 40
1
 10
32.310036
 20
58.308351
 30
0.0
 10
32.443327
 20
58.196129
 30
0.0
 10
32.831016
 20
58.138959
 30
0.0
 10
32.493037
 20
57.972109
 30
0.0
  0
SPLINE
  5
20f
100
AcDbEntity
  8
Layer_1
 62
7
100
AcDbSpline
 70
8
 71
3
 72
8
 73
4
 74
0
 40
0
 40
0
 40
0
 40
0
 40
1
 40
1
 40
1
 40
1
 10
32.493037
 20
57.972109
 30
0.0
 10
31.566973
 20
57.116775
 30
0.0
 10
30.739543
 20
56.078003
 30
0.0
 10
29.591993
 20
55.509280
 30
0.0
  0
SPLINE
  5
210
100
AcDbEntity
  8
Layer_1
 62
7
100
AcDbSpline
 70
8
 71
3
 72
8
 73
4
 74
0
 40
0
 40
0
 40
0
 40
0
 40
1
 40
1
 40
1
 40
1
 10
29.591993
 20
55.509280
 30
0.0
 10
28.626562
 20
55.339091
 30
0.0
 10
28.006173
 20
56.278965
 30
0.0
 10
27.366736
 20
56.830543
 30
0.0
  0
SPLINE
  5
211
100
AcDbEntity
  8
Layer_1
 62
7
100
AcDbSpline
 70
8
 71
3
 72
8
 73
4
 74
0
 40
0
 40
0
 40
0
 40
0
 40
1
 40
1
 40
1
 40
1
 10
27.366736
 20
56.830543
 30
0.0
 10
26.925558
 20
57.269415
 30
0.0
 10
26.452993
 20
57.731907
 30
0.0
 10
26.066419
 20
58.191492
 30
0.0
  0
SPLINE
  5
212
100
AcDbEntity
  8
Layer_1
 62
7
100
AcDbSpline
 70
8
 71
3
 72
8
 73
4
 74
0
 40
0
 40
0
 40
0
 40
0
 40
1
 40
1
 40
1
 40
1
 10
26.066419
 20
58.191492
 30
0.0
 10
26.456730
 20
58.513976
 30
0.0
 10
26.968409
 20
58.521666
 30
0.0
 10
27.427921
 20
58.377253
 30
0.0
  0
SPLINE
  5
213
100
AcDbEntity
  8
Layer_1
 62
7
100
AcDbSpline
 70
8
 71
3
 72
8
 73
4
 74
0
 40
0
 40
0
 40
0
 40
0
 40
1
 40
1
 40
1
 40
1
 10
27.427921
 20
58.377253
 30
0.0
 10
28.940881
 20
58.165019
 30
0.0
 10
30.497055
 20
58.148848
 30
0.0
 10
31.993637
 20
58.485291
 30
0.0
  0
LWPOLYLINE
  5
214
100
AcDbEntity
  8
Layer_1
 62
7
100
AcDbPolyline
 90
2
 70
0
 10
31.993637
 20
58.485291
 30
0.0
 10
32.310036
 20
58.308351
 30
0.0
  0
LWPOLYLINE
  5
215
100
AcDbEntity
  8
Layer_1
 62
7
100
AcDbPolyline
 90
2
 70
0
 10
31.993637
 20
58.485291
 30
0.0
 10
31.993637
 20
58.485291
 30
0.0
  0
ENDSEC
  0
SECTION
  2
OBJECTS
  0
DICTIONARY
  5
C
330
0
100
AcDbDictionary
  3
ACAD_GROUP
350
D
  3
ACAD_MLINESTYLE
350
17
  0
DICTIONARY
  5
D
330
C
100
AcDbDictionary
  0
DICTIONARY
  5
1A
330
C
100
AcDbDictionary
  0
DICTIONARY
  5
17
330
C
100
AcDbDictionary
  3
STANDARD
350
18
  0
DICTIONARY
  5
19
330
C
100
AcDbDictionary
  0
ENDSEC
  0
EOF
