<?xml version="1.0" encoding="UTF-8" standalone="no"?>
<!-- Created with Inkscape (http://www.inkscape.org/) -->

<svg
   xmlns:dc="http://purl.org/dc/elements/1.1/"
   xmlns:cc="http://creativecommons.org/ns#"
   xmlns:rdf="http://www.w3.org/1999/02/22-rdf-syntax-ns#"
   xmlns:svg="http://www.w3.org/2000/svg"
   xmlns="http://www.w3.org/2000/svg"
   xmlns:sodipodi="http://sodipodi.sourceforge.net/DTD/sodipodi-0.dtd"
   xmlns:inkscape="http://www.inkscape.org/namespaces/inkscape"
   width="210mm"
   height="297mm"
   viewBox="0 0 744.09448819 1052.3622047"
   id="svg2"
   version="1.1"
   inkscape:version="0.91 r13725"
   sodipodi:docname="urs.svg">
  <defs
     id="defs4" />
  <sodipodi:namedview
     id="base"
     pagecolor="#ffffff"
     bordercolor="#666666"
     borderopacity="1.0"
     inkscape:pageopacity="0.0"
     inkscape:pageshadow="2"
     inkscape:zoom="2.8"
     inkscape:cx="85.849002"
     inkscape:cy="279.88308"
     inkscape:document-units="mm"
     inkscape:current-layer="layer1"
     showgrid="false"
     inkscape:window-width="1440"
     inkscape:window-height="837"
     inkscape:window-x="-4"
     inkscape:window-y="-4"
     inkscape:window-maximized="1" />
  <metadata
     id="metadata7">
    <rdf:RDF>
      <cc:Work
         rdf:about="">
        <dc:format>image/svg+xml</dc:format>
        <dc:type
           rdf:resource="http://purl.org/dc/dcmitype/StillImage" />
        <dc:title></dc:title>
      </cc:Work>
    </rdf:RDF>
  </metadata>
  <g
     inkscape:label="Layer 1"
     inkscape:groupmode="layer"
     id="layer1">
    <path
       style="fill:#000000;stroke:none;stroke-width:1.11857021;stroke-linejoin:round;stroke-miterlimit:4;stroke-dasharray:none"
       d="M 105.65234 731.86328 A 6.527329 6.527329 0 0 0 99.125 738.39062 A 6.527329 6.527329 0 0 0 100.57227 742.48047 C 91.258301 743.85231 81.98631 745.48949 72.699219 747.03125 C 68.61384 744.56738 65.010501 741.29303 60.787109 739.08984 C 56.888366 738.82386 53.11918 740.20908 49.265625 740.56445 C 47.447976 740.82147 45.600124 741.06475 43.886719 741.75977 C 42.093918 748.70255 41.186438 755.8346 39.880859 762.875 C 39.303287 765.75238 41.303239 768.23722 42.330078 770.77539 C 43.839405 774.01135 45.942743 777.08135 47.15625 780.37695 C 46.256205 788.78561 44.852033 797.22686 44.261719 805.62891 C 49.952492 816.60213 54.948075 827.9613 61.271484 838.5918 C 64.109151 842.5792 66.79625 846.77597 70.136719 850.33789 C 73.809514 852.47173 77.82315 853.94238 81.636719 855.80078 C 84.807548 857.10376 88.032794 858.44379 90.550781 860.84375 C 91.936222 862.02075 93.765288 862.43494 95.503906 861.83984 C 98.621359 861.43252 101.70479 860.15713 104.82617 860.44531 C 108.06844 861.09809 111.34524 862.22522 114.66016 862.39844 C 117.66736 861.10585 119.99559 858.61472 123.12891 857.55078 C 128.12342 855.11801 133.63199 853.63211 138.26367 850.51367 C 141.97138 847.35225 144.32514 842.98098 147.34961 839.22461 C 153.20858 830.51083 157.54072 820.8992 162.73633 811.79492 C 163.7318 809.67777 165.28645 807.64685 165.75977 805.39062 C 165.02618 796.9779 163.66124 788.60299 163.35352 780.19531 C 164.2731 777.52568 166.12909 775.28926 167.32422 772.73633 C 168.826 769.98151 170.61585 767.24911 171.52734 764.25977 C 170.13002 756.666 169.29471 748.90499 167.44336 741.41797 C 165.88511 739.60934 163.21633 740.19899 161.13281 739.65234 C 157.34577 739.25862 153.48979 738.31409 149.70703 738.38672 C 145.5553 740.89669 141.87996 744.15782 137.5293 746.34375 C 130.59594 745.74389 123.75253 744.41692 116.8418 743.48242 C 114.78986 743.2046 112.72879 742.85236 110.66211 742.56445 A 6.527329 6.527329 0 0 0 112.17969 738.39062 A 6.527329 6.527329 0 0 0 105.65234 731.86328 z M 105.65234 735.12695 A 3.2636645 3.2636645 0 0 1 108.91602 738.39062 A 3.2636645 3.2636645 0 0 1 105.65234 741.6543 A 3.2636645 3.2636645 0 0 1 102.38867 738.39062 A 3.2636645 3.2636645 0 0 1 105.65234 735.12695 z M 151.07031 742.5 L 155.03906 743.01367 C 155.94947 743.29299 158.9984 743.04815 156.96289 744.12695 C 152.37206 747.68259 147.74706 751.20257 143.00195 754.53906 C 142.16563 752.97392 141.31816 751.30673 140.93359 749.60352 C 144.12372 746.96621 147.71549 744.92284 151.07031 742.5 z M 59.121094 743.24609 C 59.515817 743.26807 59.89548 743.34468 60.25 743.50977 C 63.426506 745.41944 66.498828 747.51709 69.326172 749.91797 C 68.762941 751.64306 68.250107 753.41641 67.300781 754.97852 C 62.693253 751.82298 58.484388 748.1258 53.994141 744.80664 C 52.240538 743.84637 54.485898 743.88341 55.462891 743.66016 C 56.619609 743.61126 57.936924 743.18015 59.121094 743.24609 z M 163.99609 744.2793 L 164.05078 744.5625 L 164.08398 744.73438 C 164.83842 748.74643 165.43321 752.76793 166.05859 756.80273 C 164.49976 753.32569 162.94178 749.86604 161.63672 746.27539 C 162.28466 745.47239 163.03141 744.69196 163.99609 744.2793 z M 47.466797 744.99219 L 47.708984 745.14844 L 47.720703 745.1543 C 48.502874 745.7018 49.801288 746.37349 48.960938 747.45312 C 47.817191 750.6482 46.42068 753.73955 45.027344 756.8457 C 45.694432 752.86406 46.332895 748.86052 47.466797 744.99219 z M 105.15625 746.0957 C 111.02747 746.72607 116.87965 747.62 122.70312 748.58398 C 116.70239 750.38677 110.69239 752.18113 104.58008 753.57227 C 98.796737 752.15486 93.102388 750.41856 87.380859 748.78125 C 93.28859 747.78608 99.187374 746.5467 105.15625 746.0957 z M 157.84375 748.78906 L 158.2168 749.56445 C 160.86021 755.23572 163.58456 760.97647 165.37305 766.9082 C 164.18395 770.10318 162.31586 772.98151 160.5332 775.85742 C 155.29007 770.20857 150.17201 764.43848 145.32422 758.44531 C 149.33614 755.00801 153.65193 751.99728 157.84375 748.78906 z M 52.917969 749.38672 L 54.091797 750.2168 C 57.75699 752.90259 61.587212 755.58013 64.835938 758.62109 C 60.055903 764.59979 54.907345 770.38621 49.8125 776.13867 C 48.171328 773.20493 46.459292 770.25116 45.091797 767.19922 C 47.540175 761.18761 50.151496 755.25507 52.917969 749.38672 z M 133.62109 750.31836 C 133.77118 750.31461 133.92171 750.32144 134.07227 750.33984 C 135.41168 750.32984 137.06884 750.45392 137.34766 752.06055 C 139.02239 755.6757 140.18126 759.72652 143.2207 762.53125 C 148.06236 768.13546 153.07494 773.59893 157.63086 779.44336 C 155.70094 782.08697 153.5046 784.45278 151.29492 786.86914 C 149.26474 783.30367 148.15346 779.05631 145.41016 775.91992 C 137.93592 770.19961 129.58708 765.51006 123.34766 758.33203 C 121.92686 756.90822 120.41998 755.55656 119.17773 753.9668 C 123.83579 752.7546 128.42123 751.16353 133.17188 750.35547 C 133.32182 750.33527 133.47101 750.32211 133.62109 750.31836 z M 76.925781 750.41406 C 77.292122 750.40778 77.657801 750.4512 78.017578 750.5625 C 82.218146 751.62669 86.888964 752.69801 90.697266 754.20312 C 84.623119 760.56588 78.171876 766.68988 70.720703 771.43164 C 68.052826 773.44428 64.80761 775.00173 62.855469 777.78125 C 61.278297 780.6786 60.052996 783.74845 58.507812 786.66211 C 56.372698 784.42198 54.338091 782.08228 52.478516 779.60742 C 58.27993 772.17682 65.286927 765.6602 70.564453 757.80859 C 71.768053 755.73009 72.234959 753.20951 73.728516 751.32617 C 74.719584 750.89899 75.826759 750.43291 76.925781 750.41406 z M 114.11914 755.57227 C 117.12231 757.46596 119.31737 760.54169 121.99805 762.90234 C 123.28872 764.20542 124.56729 765.52198 125.79297 766.88672 C 122.66602 772.64548 119.01231 778.13339 115.92188 783.89258 C 115.73284 785.55165 115.78265 787.23535 115.46094 788.87891 C 110.45683 787.92375 105.2704 785.95072 100.12109 787.41602 C 97.96314 787.84386 95.82317 788.38349 93.638672 788.66602 C 93.748619 784.42362 91.590233 780.68354 89.53125 777.14648 C 87.656207 773.80064 85.694203 770.51766 83.982422 767.0918 C 87.821204 763.21939 91.480223 758.98116 95.787109 755.69141 C 99.085259 756.05936 102.17644 757.5536 105.44531 757.9375 C 108.34051 757.14053 111.15443 756.03914 114.11914 755.57227 z M 80.328125 769.92773 L 80.667969 770.44531 C 83.637034 775.06262 86.655617 779.99452 88.8125 784.875 C 85.804349 784.57797 82.798825 783.99513 79.876953 783.23828 C 76.177649 781.767 73.002251 779.26818 69.613281 777.23047 C 73.11119 774.69197 76.606465 772.13377 80.328125 769.92773 z M 129.33398 769.9707 L 129.58008 770.12109 L 129.73047 770.21484 C 133.21541 772.40568 136.82137 774.77584 139.95312 777.27148 C 136.30219 779.61576 132.59567 782.00467 128.67188 783.81641 C 125.90225 784.20157 123.14509 784.59743 120.37305 784.95898 C 122.30129 780.75008 124.91858 776.88544 127.29492 772.92188 C 127.94453 771.91437 128.64463 770.88911 129.33398 769.9707 z M 143.45117 780.23438 L 143.93359 781.19531 C 145.46554 784.26406 146.97771 787.35182 148.19336 790.5625 C 145.11018 796.74959 141.96098 802.90387 138.74219 809.02148 C 134.08156 809.38516 129.42191 809.76544 124.76367 809.9668 C 124.13639 805.52036 124.72177 800.78939 123.30664 796.42578 C 122.62109 795.52285 123.5541 796.15195 124.10156 796.36914 C 125.83762 797.33701 127.98675 797.04685 129.43359 795.69141 C 130.62976 794.88677 131.79141 794.03242 132.98828 793.22852 C 132.84939 791.03175 132.71078 788.83547 132.57227 786.63867 C 136.23386 784.5649 139.76333 782.26303 143.45117 780.23438 z M 66.28125 780.3457 L 66.537109 780.47656 L 66.587891 780.50195 C 70.047436 782.29833 73.30538 784.44859 76.652344 786.43945 C 76.625874 788.59936 76.445241 790.69976 76.287109 792.85352 C 78.440372 794.09819 80.134224 796.39841 82.638672 796.89258 C 83.731336 796.71638 85.103138 796.00126 85.894531 795.85938 C 84.129549 799.68948 84.797452 804.09365 84.136719 808.12305 C 84.191139 809.21738 83.896411 809.98663 82.638672 809.5957 C 78.570814 809.5757 74.541094 809.11129 70.486328 808.6582 C 67.373314 802.67074 64.124639 796.5801 61.603516 790.40234 C 62.745698 786.93543 64.617987 783.65037 66.28125 780.3457 z M 50.882812 784.25781 L 51.021484 784.41797 C 52.672991 786.41753 54.766149 788.32558 55.888672 790.5957 C 53.665883 793.32494 51.319234 795.98268 49.017578 798.66211 C 49.601403 793.85213 50.205699 789.05595 50.882812 784.25781 z M 159.22852 784.41406 L 159.25977 784.64648 C 159.89042 789.4232 160.37803 794.2399 160.85742 799.04688 C 158.53907 796.27985 156.06802 793.58673 154.03906 790.61523 C 155.54882 788.40911 157.36109 786.34506 159.22852 784.41406 z M 80.947266 787.89258 C 83.730737 788.32956 86.723739 788.50599 89.333984 789.40234 C 89.082739 790.71119 87.203431 790.48045 86.330078 791.21289 C 85.173958 791.7072 83.999876 792.22917 82.785156 792.53125 C 81.759151 791.8964 79.986434 791.12299 80.626953 789.60938 C 80.722903 789.04133 80.647702 788.40496 80.947266 787.89258 z M 128.38477 788.20508 L 128.42578 788.49023 L 128.45703 788.71875 C 128.55363 789.76931 129.15361 791.35986 127.74805 791.75586 C 126.80231 792.71391 125.51406 792.76244 124.46289 791.99023 C 122.92476 791.22416 120.86225 790.84769 119.7832 789.47656 C 119.7412 788.87059 120.8836 789.53155 121.12305 789.13086 C 123.5387 788.75286 125.95511 788.33366 128.38477 788.20508 z M 105.25977 790.82031 L 110.04102 791.89844 C 111.51049 792.32695 113.06245 792.44902 114.48828 793.02734 C 112.80465 798.46542 110.8701 803.81948 109.03516 809.20703 C 105.96783 809.49127 102.9108 809.39225 99.832031 809.20117 C 97.919772 803.86839 95.845821 798.35892 94.695312 792.91602 C 98.216486 792.27235 101.663 791.04074 105.25977 790.82031 z M 58.539062 794.25781 L 58.673828 794.51172 L 58.716797 794.59375 C 61.388031 799.83113 64.177919 805.07824 66.205078 810.58789 C 66.015913 812.76792 64.447981 814.53902 63.789062 816.5918 C 62.297086 819.72862 60.755204 822.84125 59.105469 825.89844 C 55.519151 819.23906 52.092328 812.51135 49.064453 805.58008 C 51.90542 801.55458 55.111967 797.79456 58.539062 794.25781 z M 151.19336 794.4668 L 151.375 794.64844 C 154.77269 798.12307 157.95642 801.87793 160.60547 805.93555 C 159.38835 809.16678 157.52106 812.14513 156.02344 815.26367 C 154.00796 819.13417 151.9617 822.97542 149.68555 826.68945 C 147.04394 821.59028 144.86026 816.30353 142.46484 811.08594 C 145.34044 805.5363 147.93981 799.7789 151.19336 794.4668 z M 90.845703 795.89258 C 92.600838 800.74533 94.25897 805.67292 95.445312 810.66211 C 93.967715 813.3324 90.619915 814.69209 89.585938 817.57812 C 89.480379 819.77548 90.270084 821.88485 90.396484 824.0625 C 88.0357 825.18303 85.615121 826.16802 83.177734 827.14062 C 85.479083 819.84762 88.48436 812.59272 88.613281 804.83203 C 88.821771 802.05833 88.45879 798.9251 90.335938 796.6543 C 90.488567 796.43704 90.691285 795.99105 90.845703 795.89258 z M 118.11914 795.96289 L 118.28516 796.19727 L 118.29297 796.20898 C 119.60243 797.79508 120.15055 799.81323 120.00977 801.83594 C 120.48332 807.12125 120.18716 812.63027 122.21094 817.66016 C 123.22881 820.9135 124.29638 824.14113 125.08789 827.46289 C 122.71106 826.33636 120.07403 825.36691 117.98633 823.90234 C 118.14124 821.35449 119.94779 818.32728 117.87109 816.07031 C 116.47396 814.21619 114.55584 812.82846 113.18945 810.94922 C 114.43835 805.83185 116.37517 800.92254 118.11914 795.96289 z M 70.193359 812.93555 C 71.320043 812.99795 72.445582 813.06067 73.572266 813.12305 C 76.694595 813.33236 79.87038 813.44961 82.923828 813.91406 C 81.478161 819.64279 79.131893 825.14628 77.787109 830.91992 C 79.461314 834.72757 81.821574 838.17295 83.908203 841.75586 C 76.8745 839.13504 69.707907 836.67394 62.886719 833.60742 C 61.869976 832.40515 61.394205 830.65669 62.457031 829.32617 C 64.860848 823.79279 67.694778 818.43893 70.193359 812.93555 z M 138.5918 813.28906 L 138.65234 813.39453 C 141.75539 818.94945 144.02907 824.91716 146.83594 830.61719 C 147.59482 832.04576 146.34721 833.56101 145.4082 834.59375 C 141.85901 836.15032 138.0446 837.2632 134.39062 838.64258 C 130.99373 839.8384 127.59448 841.01315 124.1875 842.17578 C 126.38229 838.55575 128.68407 834.9988 130.75781 831.30664 C 129.17353 825.59231 127.15275 820.00511 125.72656 814.24609 C 129.96983 813.51285 134.32736 813.56464 138.5918 813.28906 z M 108.81641 813.59961 C 109.58901 813.6669 110.27802 813.96792 110.70898 814.71875 C 111.98843 816.16509 114.04652 817.40375 114.46094 819.35156 C 114.01625 821.5692 114.06588 824.45862 111.76758 825.66602 C 109.23803 827.65819 106.80073 829.7219 104.15625 831.52539 C 101.00708 829.27255 97.879609 826.84183 95.119141 824.13672 C 94.434867 822.37706 93.573227 820.31506 94.121094 818.44727 C 95.362111 816.48142 97.330747 815.30067 98.908203 813.63867 C 101.94782 813.60137 105.0068 813.72266 108.02344 813.60156 C 108.29279 813.58004 108.55887 813.57718 108.81641 813.59961 z M 92.513672 827.8457 L 92.746094 828.01367 L 92.902344 828.12695 C 95.897436 830.32242 98.87006 832.64876 101.63477 835.12695 C 101.82984 836.13726 101.72407 837.16876 101.73047 838.18945 C 98.962386 837.91641 96.252052 838.81306 94.013672 840.41016 C 92.535597 841.24643 91.070638 842.10882 89.5625 842.89062 C 87.11882 839.41259 84.890423 835.55693 82.966797 831.83008 C 86.141286 830.50623 89.172463 828.76767 92.513672 827.8457 z M 115.76562 827.89648 L 119.34961 829.46289 C 121.27917 830.44896 123.40852 831.00588 125.26562 832.13867 C 123.29042 835.99494 120.9172 839.63016 118.45508 843.18945 C 114.98688 841.5801 111.90115 838.47605 107.90039 838.16992 C 107.22014 838.17692 106.14012 838.40058 106.44531 837.35156 C 106.21625 836.10809 106.26594 834.53685 107.72461 834.11719 L 115.76562 827.89648 z M 67.474609 840.09375 L 68.814453 840.56641 C 75.195712 842.90191 81.690398 845.11986 87.839844 847.95117 C 91.111347 850.94281 94.252661 854.07313 97.353516 857.24023 C 95.682346 857.55426 93.628055 858.46857 92.259766 856.95312 C 86.024688 852.72366 78.77011 850.39147 72.191406 846.84961 C 70.622711 844.59571 68.996126 842.38042 67.474609 840.09375 z M 140.97266 840.87891 L 140.43164 841.625 C 138.35043 844.25538 136.70361 847.56866 133.29492 848.63477 C 126.73117 851.62109 119.87114 854.16776 113.76953 858.08008 C 112.51847 858.32913 111.33963 857.60828 110.13477 857.43555 C 113.84252 854.26913 117.07368 850.38296 121.12695 847.72656 C 127.68961 845.3203 134.32471 843.06497 140.97266 840.87891 z M 113.36328 845.13086 L 114.48438 845.75781 C 114.95667 846.15545 116.33037 846.35802 115.13281 846.94922 C 111.85148 849.97993 108.91964 853.66062 104.85352 855.67578 C 101.4327 856.27881 99.234471 852.94855 96.96875 850.99414 C 95.405521 849.43908 93.731079 847.80033 92.361328 846.17188 C 93.74432 845.02922 95.557353 845.00197 97.185547 845.51367 C 102.54643 846.26568 108.06043 846.32298 113.36328 845.13086 z "
       id="path4154" />
  </g>
</svg>
