<?xml version="1.0" encoding="UTF-8" standalone="no"?>
<!-- Created with Inkscape (http://www.inkscape.org/) -->

<svg
   xmlns:dc="http://purl.org/dc/elements/1.1/"
   xmlns:cc="http://creativecommons.org/ns#"
   xmlns:rdf="http://www.w3.org/1999/02/22-rdf-syntax-ns#"
   xmlns:svg="http://www.w3.org/2000/svg"
   xmlns="http://www.w3.org/2000/svg"
   xmlns:sodipodi="http://sodipodi.sourceforge.net/DTD/sodipodi-0.dtd"
   xmlns:inkscape="http://www.inkscape.org/namespaces/inkscape"
   width="210mm"
   height="297mm"
   viewBox="0 0 744.09448819 1052.3622047"
   id="svg2"
   version="1.1"
   inkscape:version="0.91 r13725"
   sodipodi:docname="urs.svg">
  <defs
     id="defs4">
    <clipPath
       id="clipPath4147"
       clipPathUnits="userSpaceOnUse">
      <path
         inkscape:connector-curvature="0"
         id="path4149"
         d="m 0,172.918 257.948,0 L 257.948,0 0,0 0,172.918 Z" />
    </clipPath>
    <clipPath
       id="clipPath4147-5"
       clipPathUnits="userSpaceOnUse">
      <path
         inkscape:connector-curvature="0"
         id="path4149-0"
         d="m 0,172.918 257.948,0 L 257.948,0 0,0 0,172.918 Z" />
    </clipPath>
  </defs>
  <sodipodi:namedview
     id="base"
     pagecolor="#ffffff"
     bordercolor="#666666"
     borderopacity="1.0"
     inkscape:pageopacity="0.0"
     inkscape:pageshadow="2"
     inkscape:zoom="0.7"
     inkscape:cx="277.40867"
     inkscape:cy="400.38654"
     inkscape:document-units="mm"
     inkscape:current-layer="layer1"
     showgrid="false"
     inkscape:window-width="1440"
     inkscape:window-height="837"
     inkscape:window-x="-4"
     inkscape:window-y="-4"
     inkscape:window-maximized="1" />
  <metadata
     id="metadata7">
    <rdf:RDF>
      <cc:Work
         rdf:about="">
        <dc:format>image/svg+xml</dc:format>
        <dc:type
           rdf:resource="http://purl.org/dc/dcmitype/StillImage" />
        <dc:title></dc:title>
      </cc:Work>
    </rdf:RDF>
  </metadata>
  <g
     inkscape:label="Layer 1"
     inkscape:groupmode="layer"
     id="layer1">
    <path
       style="fill:#ff0000;stroke:#231f20;stroke-width:1.50943351;stroke-linecap:butt;stroke-linejoin:miter;stroke-miterlimit:10;stroke-dasharray:none;stroke-opacity:1"
       d="m 856.89286,359.40374 c -41.5899,-0.0862 -83.13475,11.39607 -118.70117,32.97266 -21.58064,-24.80375 -60.40573,-31.64608 -89.19095,-15.80263 -28.00655,14.27555 -44.19134,47.74383 -38.04148,78.55849 3.52991,19.73963 15.62511,37.70021 32.48829,48.52344 -11.06877,26.23565 -16.49174,54.67024 -16.5625,83.11523 -18.95452,18.07354 -22.46996,47.57131 -14.63353,71.64152 4.86562,25.4381 4.60433,51.97187 -1.42507,77.24325 -3.01038,11.435 -11.36673,20.86234 -12.60742,32.91797 -4.50688,23.78857 7.71923,46.24872 19.79687,65.76171 4.89901,4.79533 1.60675,11.71704 2.4375,17.76368 0.0769,28.15718 8.94675,56.46145 27.01776,78.31173 8.45858,10.70845 19.06436,20.66735 32.72834,23.8992 35.6853,14.66107 71.12307,30.90079 109.18471,38.50615 39.17106,8.25986 79.85673,8.89896 119.4383,3.32145 42.44357,-6.03506 82.31268,-22.56386 121.37369,-39.47659 9.5139,-3.58739 19.9324,-6.36089 27.3284,-14.00041 23.5476,-21.56822 37.2178,-52.87674 38.2726,-84.69044 0.7576,-6.61138 -0.47,-13.67955 0.2675,-20.02344 12.3111,-19.44269 25.4284,-41.34111 22.7267,-65.32316 -0.5997,-10.62182 -5.8636,-20.02746 -10.0837,-29.44362 -9.4055,-29.07725 -11.2084,-60.17375 -4.7741,-90.02825 3.0196,-15.12751 5.8424,-32.51531 -3.7185,-46.01942 -3.6369,-5.53086 -8.3631,-10.25693 -13.4101,-14.50195 0.6555,-31.1624 -5.859,-62.16011 -15.7657,-91.4961 16.2694,-9.67156 27.2268,-26.68221 33.1133,-44.35547 8.1306,-26.83148 -4.6128,-57.11669 -26.4594,-73.64773 -26.1628,-20.70584 -66.4018,-19.93622 -91.7144,1.83523 -3.20777,2.40902 -6.06491,5.95612 -8.8711,8.34571 -35.87485,-22.19972 -78.337,-34.03935 -120.21484,-33.90821 z"
       id="path4350"
       inkscape:connector-curvature="0" />
    <path
       style="fill:none;stroke:#231f20;stroke-width:1.50943351;stroke-linecap:butt;stroke-linejoin:miter;stroke-miterlimit:10;stroke-dasharray:none;stroke-opacity:1"
       d="M 289.92188 364.24219 C 246.25698 364.24219 205.47691 376.51795 170.82031 397.79492 C 157.67013 382.53757 138.21187 372.87109 116.49414 372.87109 C 76.874531 372.87109 44.765625 404.97432 44.765625 444.58789 C 44.765625 470.43543 58.441168 493.07645 78.945312 505.69531 C 75.008945 515.2887 71.729674 525.21893 69.109375 535.41602 L 69.083984 535.39844 L 68.882812 536.26953 C 68.382219 538.26949 67.942658 540.29176 67.494141 542.3125 L 66.494141 546.6582 L 66.375 547.33984 C 65.625436 551.08622 64.960103 554.8644 64.400391 558.67969 C 64.399425 558.68627 64.397449 558.69264 64.396484 558.69922 L 64.357422 558.92188 L 104.65039 584.74414 L 126.47266 598.72852 C 125.59115 605.52097 125.15039 613.29849 125.15039 622.43359 C 125.15039 674.43055 156.89745 686.93359 189.6582 686.93359 C 233.2929 686.93359 268.9082 666.77471 268.9082 622.43359 C 268.9082 614.3551 268.49853 607.21818 267.55664 600.82422 C 273.66683 595.05818 282.37388 592.22656 292.06445 592.22656 C 301.68256 592.22656 310.32181 595.00422 316.41992 600.67969 C 315.45992 607.10988 315.04883 614.29472 315.04883 622.43359 C 315.04883 666.77471 350.66607 686.93359 394.30078 686.93359 C 427.06152 686.93359 458.80859 674.43055 458.80859 622.43359 C 458.80859 613.03283 458.35577 605.04442 457.41992 598.11914 L 478.94727 583.59961 C 479.07407 586.44876 479.28516 589.27318 479.28516 592.14648 C 479.28516 695.66947 395.35538 779.59961 291.82031 779.59961 C 188.28525 779.59961 104.35352 695.66947 104.35352 592.14648 C 104.35352 589.6529 104.55378 587.21357 104.65039 584.74414 L 64.367188 558.93359 C 62.773226 569.80151 61.939453 580.91576 61.939453 592.23047 L 61.939453 592.24414 C 63.962094 591.25395 67.63273 592.30447 72.263672 606.19727 C 79.430462 627.70972 94.531099 664.31059 95.660156 676.01172 C 96.789212 687.70681 108.86413 719.02443 117.16602 723.55273 C 125.47394 728.08103 154.5272 751.10274 160.94531 760.91406 C 167.35738 770.72537 188.48994 792.99267 196.03711 790.72852 C 203.58428 788.46437 245.8477 803.17727 254.9043 808.08594 C 263.9609 812.98858 291.13186 810.35075 298.30469 811.10547 C 305.47148 811.86019 344.34312 811.10609 350.38086 805.06836 C 356.41859 799.03062 391.13366 792.23809 396.79102 784.31055 C 402.45441 776.38904 444.33823 758.86608 448.49219 740.45703 C 452.64012 722.04194 465.47041 694.49934 473.01758 691.48047 C 480.56475 688.46161 485.84785 674.12087 491.13086 662.42578 C 496.41388 650.72465 498.30535 642.42264 498.67969 632.61133 C 499.04799 622.99925 511.37095 595.78771 517.78906 596.62695 C 517.81326 595.15978 517.89648 593.70368 517.89648 592.23047 C 517.89648 580.92849 517.07017 569.82026 515.48242 558.95898 C 515.48233 558.95835 515.48252 558.95767 515.48242 558.95703 L 515.48438 558.95703 L 513.73242 547.29297 L 510.96094 536.26172 L 510.94531 536.27344 C 508.40954 526.22126 505.22612 516.42966 501.39844 506.95703 C 523.09806 494.62797 537.73438 471.32902 537.73438 444.58789 C 537.73438 404.97432 505.62564 372.87109 466 372.87109 C 443.76906 372.87109 423.90463 382.98954 410.73633 398.88086 C 375.71144 376.93369 334.29921 364.24219 289.92188 364.24219 z M 116.32422 399.96875 C 140.92799 399.96875 160.85938 419.91008 160.85938 444.50781 C 160.85938 450.45498 159.69347 456.12591 157.57422 461.31836 C 191.62101 426.39007 239.17927 404.68359 291.82227 404.68359 C 343.24565 404.68359 389.85683 425.40552 423.72852 458.95117 C 422.17078 454.42287 421.31445 449.56743 421.31445 444.50781 C 421.31445 419.91008 441.25597 399.96875 465.84766 399.96875 C 490.45143 399.96875 510.38281 419.91008 510.38281 444.50781 C 510.38281 469.10554 490.45143 489.04883 465.84766 489.04883 C 458.23408 489.04883 451.06244 487.12901 444.7832 483.75391 C 460.69228 506.16547 471.7348 532.23597 476.54102 560.4375 L 451.68945 577.89258 C 443.12794 561.6873 425.81171 557.92578 394.30078 557.92578 C 351.49928 557.92578 331.06852 565.09905 321.87305 582.63867 C 314.32588 575.32698 303.77144 570.76758 292.07031 570.76758 C 280.30277 570.76758 269.69988 575.37402 262.14062 582.74609 C 252.97535 565.13402 232.55026 557.92578 189.6582 557.92578 C 157.80311 557.92578 140.48034 561.80265 132.02148 578.4668 L 106.91211 561.28516 C 111.74229 532.12894 123.28578 505.24275 139.92578 482.28125 C 133.08502 486.562 125.00045 489.04297 116.32422 489.04297 C 91.738571 489.04297 71.789062 469.10554 71.789062 444.50781 C 71.789062 419.91008 91.738571 399.96875 116.32422 399.96875 z M 511.24023 537.36133 L 511.32422 537.70117 C 511.30002 537.59249 511.27043 537.47605 511.24023 537.36133 z M 189.6582 580.28906 C 239.09516 580.28906 251.03711 589.30454 251.03711 622.43359 C 251.03711 654.4215 220.92158 664.57031 189.6582 664.57031 C 169.26877 664.57031 147.51367 662.1015 147.51367 622.43359 C 147.51367 579.89775 151.60236 580.28906 189.6582 580.28906 z M 394.30078 580.28906 C 432.35058 580.28906 436.44336 579.89775 436.44336 622.43359 C 436.44336 662.1015 414.6902 664.57031 394.30078 664.57031 C 363.04343 664.57031 332.9082 654.4215 332.9082 622.43359 C 332.9082 589.30454 344.86381 580.28906 394.30078 580.28906 z M 140.16016 584.02148 L 144.42383 590.39648 L 140.24414 596.77148 L 135.83203 590.33008 L 140.16016 584.02148 z M 444.91602 585.84375 L 449.17773 592.22656 L 445 598.60156 L 440.58594 592.16016 L 444.91602 585.84375 z M 199.40039 593.5957 C 183.47888 593.5957 170.56445 606.50978 170.56445 622.44336 C 170.56445 638.3709 183.47888 651.2793 199.40039 651.2793 C 215.34 651.2793 228.24805 638.3709 228.24805 622.44336 C 228.24805 606.50978 215.34 593.5957 199.40039 593.5957 z M 384.54688 593.5957 C 368.61329 593.5957 355.71094 606.50978 355.71094 622.44336 C 355.71094 638.3709 368.61329 651.2793 384.54688 651.2793 C 400.47442 651.2793 413.39648 638.3709 413.39648 622.44336 C 413.39648 606.50978 400.47442 593.5957 384.54688 593.5957 z M 62.974609 595.98047 C 47.001186 611.3818 40.330072 636.11638 47.904297 657.34375 C 54.277848 682.86104 53.819101 709.87891 49.123047 735.64258 C 47.687499 745.39504 42.718231 753.90277 38.458984 762.58594 C 30.836747 780.57598 34.61872 800.95649 43.525391 817.6875 C 47.533018 826.64603 53.515213 834.80267 57.953125 843.18555 C 55.279917 874.49821 62.741062 906.95135 82.707031 931.60352 C 90.88834 942.22427 101.1685 952.22776 114.61328 955.40234 C 149.8237 969.78525 184.80065 985.95733 222.25586 993.5332 C 261.25733 1001.9112 301.89055 1002.5447 341.25 997.01953 C 383.72873 991.01187 423.52661 974.2563 462.63672 957.41992 C 471.84262 953.91049 481.78735 951.32729 488.71289 943.76758 C 511.26111 922.6383 524.1114 892.14345 524.86914 861.5957 C 525.49418 855.12204 524.46277 848.16383 524.87891 841.85156 C 536.78974 823.21528 549.98853 802.13369 547.92969 778.85742 C 547.57643 767.38736 541.40613 757.61508 536.72852 747.57031 C 529.03228 724.26596 528.91321 699.06277 531.23633 674.85547 C 532.36659 660.0401 540.30143 645.84967 536.61133 630.77344 C 534.12107 618.75451 527.03917 607.52623 517.17773 600.67188 C 509.52012 606.65021 506.33456 616.72347 502.8125 625.45508 C 499.3219 635.64846 500.92966 646.87994 496.36914 656.88477 C 491.05909 668.88012 487.13904 682.05945 478.41992 692.12695 C 474.57826 695.3547 469.62384 697.24534 467.38672 702.18359 C 458.55898 715.64406 453.54295 731.37534 449.07422 746.79297 C 440.72793 761.71834 424.36949 769.46005 410.6582 778.57031 C 405.04824 781.66183 400.03993 785.58288 395.63086 790.14844 C 382.21775 798.93172 365.19543 800.04609 351.72266 808.54492 C 343.34662 814.18053 332.42381 813.57747 322.75391 814.77734 C 305.93782 815.86523 289.11021 814.69694 272.27734 815.06055 C 263.66784 815.1898 255.23349 813.217 247.7168 809.01562 C 231.51417 802.96438 215.17921 796.36765 197.89062 794.49414 C 189.36512 796.33682 182.66469 788.62797 176.69531 783.80469 C 167.77326 776.20708 161.4945 766.25427 153.78906 757.5957 C 141.62211 745.50946 127.95248 734.95948 113.74805 725.44531 C 103.68659 713.6646 98.714646 698.35252 94.613281 683.64844 C 91.011964 660.05884 80.170416 638.27385 72.728516 615.66992 C 69.765369 609.34232 69.143646 599.9641 62.974609 595.98047 z M 228.75391 684.91602 C 228.75391 684.91602 238.03802 713.47983 264.3125 726.57031 C 257.53166 727.09306 249.15026 730.2245 237.76758 734.51172 C 220.57211 741.00228 210.85742 726.42188 210.85742 726.42188 C 210.85742 726.42188 216.84083 754.7263 246.75781 754.00781 C 259.16535 753.69385 273.49248 740.18779 292.65625 740.64062 C 311.85021 740.1878 326.18426 753.69385 338.5918 754.00781 C 368.49066 754.7263 374.48633 726.42187 374.48633 726.42188 C 374.48633 726.42188 364.75956 741.00228 347.57617 734.51172 C 335.79831 730.07707 327.23191 726.88115 320.33203 726.53125 C 345.90097 713.42236 353.77148 684.91602 353.77148 684.91602 L 289.91602 684.91602 L 228.75391 684.91602 z M 298.49023 732.7207 C 298.38365 732.73038 298.27494 732.73692 298.16797 732.74609 C 298.27509 732.73715 298.38349 732.73014 298.49023 732.7207 z M 288.28516 732.86328 C 288.66111 732.88563 289.04168 732.90167 289.42188 732.91797 C 289.04201 732.9012 288.66063 732.88626 288.28516 732.86328 z M 296.55078 732.86523 C 296.26648 732.8825 295.97647 732.89256 295.68945 732.90625 C 295.9767 732.89292 296.26615 732.88204 296.55078 732.86523 z M 290.30273 732.95703 C 291.00844 732.97829 291.72119 732.98828 292.44141 732.98828 C 293.16345 732.98828 293.87562 732.9784 294.58203 732.95703 C 293.87585 732.97901 293.16197 732.99023 292.43945 732.99023 C 291.71928 732.99023 291.0078 732.97891 290.30273 732.95703 z "
       id="path4197" />
  </g>
</svg>
