<?xml version="1.0" encoding="UTF-8" standalone="no"?>
<!-- Created with Inkscape (http://www.inkscape.org/) -->

<svg
   xmlns:dc="http://purl.org/dc/elements/1.1/"
   xmlns:cc="http://creativecommons.org/ns#"
   xmlns:rdf="http://www.w3.org/1999/02/22-rdf-syntax-ns#"
   xmlns:svg="http://www.w3.org/2000/svg"
   xmlns="http://www.w3.org/2000/svg"
   xmlns:sodipodi="http://sodipodi.sourceforge.net/DTD/sodipodi-0.dtd"
   xmlns:inkscape="http://www.inkscape.org/namespaces/inkscape"
   width="300mm"
   height="200mm"
   viewBox="0 0 1062.9921 708.66141"
   id="svg2"
   version="1.1"
   inkscape:version="0.91 r13725"
   sodipodi:docname="dasboard_coasters.svg">
  <defs
     id="defs4" />
  <sodipodi:namedview
     id="base"
     pagecolor="#ffffff"
     bordercolor="#666666"
     borderopacity="1.0"
     inkscape:pageopacity="0.0"
     inkscape:pageshadow="2"
     inkscape:zoom="3.959798"
     inkscape:cx="249.30305"
     inkscape:cy="184.51478"
     inkscape:document-units="mm"
     inkscape:current-layer="layer1"
     showgrid="false"
     inkscape:window-width="1360"
     inkscape:window-height="746"
     inkscape:window-x="1432"
     inkscape:window-y="-8"
     inkscape:window-maximized="1" />
  <metadata
     id="metadata7">
    <rdf:RDF>
      <cc:Work
         rdf:about="">
        <dc:format>image/svg+xml</dc:format>
        <dc:type
           rdf:resource="http://purl.org/dc/dcmitype/StillImage" />
        <dc:title></dc:title>
      </cc:Work>
    </rdf:RDF>
  </metadata>
  <g
     inkscape:label="Layer 1"
     inkscape:groupmode="layer"
     id="layer1"
     transform="translate(0,-343.70079)">
    <path
       style="fill:none;stroke:#ff0000;stroke-width:1.17637789;stroke-linejoin:round;stroke-miterlimit:4;stroke-dasharray:none"
       d="M 55.695312 24.5 C 36.065393 24.5 20.261719 40.303664 20.261719 59.933594 L 20.261719 307.49609 C 20.261719 327.12601 36.065393 342.92773 55.695312 342.92773 L 303.25586 342.92773 C 322.88576 342.92774 338.68945 327.12601 338.68945 307.49609 L 338.68945 59.933594 C 338.68945 40.303664 322.88576 24.5 303.25586 24.5 L 55.695312 24.5 z "
       transform="translate(0,343.70079)"
       id="rect4133" />
    <path
       style="fill:#000000"
       d="M 846.41602 72.123047 C 842.79068 72.123047 839.16639 72.698334 838.23242 73.849609 C 837.44117 74.824949 836.03978 79.296146 835.11914 83.785156 C 833.46745 91.838456 831.02607 94.775391 825.98438 94.775391 C 824.78795 94.775391 821.1581 91.264176 817.91797 86.972656 C 814.67783 82.681126 811.32817 79.169922 810.47266 79.169922 C 807.25303 79.169922 796.91702 83.8141 796.24609 85.5625 C 795.86177 86.56407 796.26077 91.547762 797.13281 96.638672 C 799.63545 111.24905 795.40422 113.87012 781.83984 106.10938 C 777.73393 103.76022 773.38106 102.21932 772.16602 102.68555 C 769.50896 103.70518 762.71484 112.34725 762.71484 114.70703 C 762.71484 115.62989 765.04997 119.56672 767.9043 123.45508 C 772.33188 129.48669 772.89792 131.07694 771.76172 134.28516 C 770.50513 137.83341 769.87244 138.05694 760.54297 138.26562 C 755.10492 138.38727 749.90871 138.54769 748.99609 138.62109 C 746.94627 138.78601 742.29564 152.30894 743.57617 154.38086 C 744.08757 155.20833 747.99721 157.85667 752.26562 160.26562 C 759.60984 164.4107 760.00434 164.91535 759.59766 169.67578 C 759.18474 174.50939 758.8066 174.82553 749.94531 177.76953 L 740.72461 180.83398 L 740.30273 187.99805 C 739.76512 197.10534 741.65857 199.06045 752.22852 200.30273 C 761.78162 201.42552 764.13281 202.97308 764.13281 208.14258 C 764.13281 210.88849 762.38523 213.38713 757.75 217.26172 C 750.31004 223.48076 749.798 226.58475 754.96289 234.18555 C 759.07545 240.23775 758.91349 240.19625 766.9707 237.35352 C 777.40593 233.67174 783.99414 235.09964 783.99414 241.04297 C 783.99414 242.37001 782.43525 246.82178 780.5293 250.93555 C 778.06118 256.26274 777.44311 259.12306 778.38281 260.87891 C 779.83216 263.58706 788.33206 269.27344 790.93164 269.27344 C 791.83234 269.27344 795.34056 266.71877 798.72656 263.59766 C 805.00123 257.81387 810.27491 256.39794 813.50391 259.62695 C 814.44707 260.5701 815.21526 265.15698 815.22656 269.91211 C 815.25258 280.1923 816.20229 281.96968 822.4707 283.48242 C 831.08586 285.56148 832.66473 284.74491 836.79102 276.08789 C 843.36888 262.28751 849.58807 262.10975 855.5332 275.55273 C 857.368 279.7015 859.53934 283.51075 860.35938 284.01758 C 862.63014 285.42099 873.29738 283.33153 875.5957 281.0332 C 876.92518 279.70373 877.62695 275.9431 877.62695 270.16406 C 877.62695 265.18291 878.3704 260.58661 879.33008 259.62695 C 882.55907 256.39794 887.83274 257.81387 894.10742 263.59766 C 897.4934 266.71877 900.9997 269.27344 901.90039 269.27344 C 904.39517 269.27344 912.91111 263.67491 914.36328 261.08008 C 915.24627 259.50217 914.58271 256.37167 912.24414 251.08398 C 910.37148 246.8493 908.83984 242.31326 908.83984 241.00586 C 908.83984 235.09868 915.45335 233.68064 925.86328 237.35352 C 933.92046 240.19625 933.75841 240.23775 937.87109 234.18555 C 943.03624 226.58413 942.52507 223.51349 935.08398 217.41602 C 930.32627 213.51742 928.70117 211.18846 928.70117 208.27344 C 928.70117 202.90775 930.8369 201.55686 941.17969 200.38672 C 951.39743 199.2307 952.81836 197.70816 952.81836 187.91016 C 952.81836 181.60282 952.76303 181.52979 946.08008 179.16797 C 932.43573 174.34581 932.74257 174.57393 933.22266 169.64648 C 933.555 166.23507 934.9122 164.29959 938.63086 161.94141 C 941.36192 160.20955 945.12502 157.59687 946.99219 156.13477 L 950.38672 153.47656 L 947.94141 146.11523 C 946.59669 142.06673 944.75058 138.69449 943.83789 138.62109 C 942.9252 138.54765 937.72893 138.38725 932.29102 138.26562 C 923.04403 138.05879 922.32011 137.80961 921.11328 134.40234 C 920.03187 131.34932 920.65638 129.5971 924.9707 123.5918 C 927.80239 119.65032 930.11914 115.66077 930.11914 114.72656 C 930.11914 112.35055 923.3366 103.70968 920.66797 102.68555 C 919.45282 102.21932 915.02013 103.80499 910.81836 106.20898 C 897.79826 113.65833 892.89315 110.46956 895.79102 96.439453 C 896.7473 91.809353 897.16059 87.057729 896.70898 85.880859 C 895.94013 83.877249 885.84977 79.169922 882.32422 79.169922 C 881.44816 79.169922 878.41846 82.387766 875.5918 86.322266 C 869.73007 94.481356 867.46589 95.771213 862.75977 93.626953 C 860.18126 92.452113 859.03627 90.231304 857.73047 83.865234 C 856.80068 79.332324 855.39281 74.824949 854.60156 73.849609 C 853.66759 72.698334 850.04135 72.123047 846.41602 72.123047 z M 846.41602 108.15234 C 864.67149 108.15234 882.92759 115.24481 896.83594 129.42969 C 933.91244 167.24334 917.88712 231.99972 867.86719 246.48828 C 844.55358 253.24121 822.59789 249.61886 804.04492 235.96094 C 769.4686 210.50729 765.68058 160.34993 795.99805 129.42969 C 809.90641 115.24481 828.16055 108.15234 846.41602 108.15234 z M 846.41602 128.92383 C 843.78128 128.92383 841.14818 129.8362 839.32422 131.66016 C 836.6588 134.32556 836.48633 136.38949 836.48633 165.70898 C 836.48633 195.02846 836.65881 197.0924 839.32422 199.75781 C 840.90053 201.33411 844.05154 202.5957 846.41602 202.5957 C 848.7805 202.5957 851.93346 201.33411 853.50977 199.75781 C 856.17519 197.0924 856.34766 195.02846 856.34766 165.70898 C 856.34766 136.38949 856.17518 134.32556 853.50977 131.66016 C 851.68581 129.8362 849.05075 128.92383 846.41602 128.92383 z M 846.41602 210.63477 C 837.10207 210.63477 832.94836 222.30386 840.22461 228.02734 C 842.28052 229.64454 845.0659 230.96875 846.41602 230.96875 C 847.76613 230.96875 850.55345 229.64454 852.60938 228.02734 C 859.88562 222.30386 855.72997 210.63477 846.41602 210.63477 z "
       transform="translate(0,343.70079)"
       id="path4166" />
    <path
       style="fill:#000000"
       d="M 452.75 104.56836 L 452.75 109.97656 L 452.75 115.38477 L 466.42578 115.38477 L 480.10352 115.38477 L 480.10352 119.05273 L 480.10352 122.7207 L 466.08398 122.72266 C 450.68352 122.72467 451.29133 122.69583 449.73242 123.48242 C 448.73345 123.98648 447.31659 125.39753 446.85742 126.34375 C 446.17226 127.75569 446.13356 128.05642 446.06836 132.57422 L 446.00781 136.77148 L 437.7832 136.77344 C 428.74656 136.77546 428.72672 136.77691 427.22852 137.5332 C 426.23116 138.03667 424.92496 139.33507 424.42969 140.31641 C 423.60204 141.95641 423.6543 140.7691 423.6543 158.42969 L 423.6543 174.44727 L 420.79297 174.44727 L 417.93359 174.44727 L 417.93359 158.9668 L 417.93359 143.48633 L 411.2207 143.48633 L 404.50586 143.48633 L 404.50586 181.16016 L 404.50586 218.83594 L 411.2207 218.83594 L 417.93359 218.83594 L 417.93359 203.35547 L 417.93359 187.875 L 420.79297 187.875 L 423.6543 187.875 L 423.6543 203.89258 C 423.6543 218.26435 423.67362 219.97802 423.85352 220.58398 C 424.50384 222.77462 426.01872 224.38549 428.20117 225.20898 C 428.93869 225.48726 428.93998 225.48858 439.5 225.55078 L 450.06055 225.61133 L 458.98047 237.5957 C 463.88649 244.18669 468.08729 249.77096 468.31445 250.00586 C 469.19964 250.9212 470.66031 251.68477 471.93945 251.89844 C 472.29225 251.95733 492.12482 252.01153 516.01172 252.01953 C 564.05155 252.0356 560.40176 252.09746 562.1582 251.24805 C 563.31079 250.69065 564.48664 249.50214 565.07031 248.30469 C 565.39931 247.62969 566.31448 244.55579 568.38672 237.17578 C 569.9613 231.56809 571.33462 226.68715 571.4375 226.32812 L 571.625 225.67383 L 574.82227 225.67383 L 578.02148 225.67383 L 581.42383 236.64648 C 583.64023 243.79246 584.97742 247.9088 585.25781 248.44922 C 586.15083 250.17033 588.091 251.5813 590.01953 251.91016 C 590.57477 252.00516 593.45469 252.03401 599.2207 252.00391 C 608.44735 251.95573 607.96493 251.99387 609.51562 251.16602 C 610.97606 250.38635 612.07141 249.13472 612.65234 247.58203 C 613.05542 246.50472 614.06633 240.31149 614.81641 234.31641 C 616.49701 220.88401 617.23308 207.15054 617.08594 191.97852 C 616.95496 178.47245 616.26893 167.58927 614.82227 156.06836 C 614.05166 149.9314 612.83759 142.57935 612.38477 141.31055 C 611.6669 139.2991 610.05143 137.76252 607.92383 137.06641 C 607.29892 136.86195 606.52261 136.83893 598.91016 136.79883 C 593.03361 136.76783 590.36023 136.79668 589.83398 136.89648 C 588.17553 137.21091 586.50366 138.34243 585.55859 139.79297 C 584.97896 140.68262 585.2059 140.01891 580.69141 154.08594 L 577.78906 163.13086 L 574.66016 163.13086 L 571.5332 163.13086 L 571.39453 162.66602 C 571.3188 162.40958 569.96576 157.49838 568.38672 151.75391 C 566.55874 145.10383 565.37608 141.02221 565.13281 140.51953 C 564.6037 139.42615 563.38054 138.15993 562.31055 137.59766 C 560.7752 136.79088 560.59497 136.77148 554.74414 136.77148 L 549.48438 136.77148 L 549.48438 132.53516 C 549.48438 128.33729 549.48222 128.28974 549.17188 127.36523 C 548.60108 125.6648 547.47767 124.33027 545.91992 123.5 C 544.42527 122.70334 544.86118 122.72466 530.99023 122.72266 L 518.40039 122.7207 L 518.40039 119.05273 L 518.40039 115.38672 L 530.61719 115.35547 L 542.83203 115.32227 L 542.86523 109.94531 L 542.89844 104.56836 L 497.82422 104.56836 L 452.75 104.56836 z M 459.58789 136.15039 L 497.82227 136.15039 L 536.05664 136.15039 L 536.05859 140.16016 C 536.06063 144.60185 536.1198 145.09309 536.83203 146.55664 C 537.64056 148.2181 539.54331 149.68694 541.37695 150.06445 C 541.7991 150.1514 544.17453 150.20117 547.98828 150.20117 L 553.94141 150.20117 L 554.07031 150.60352 C 476.43561 238.47966 553.94077 150.20023 476.43555 238.48047 L 472.94141 233.78711 C 471.01938 231.20571 467.0564 225.87559 464.13477 221.94336 C 460.95453 217.66306 458.5025 214.48322 458.02539 214.01953 C 457.58708 213.59355 456.89293 213.07636 456.48242 212.86914 C 455.01085 212.12649 454.99915 212.12505 445.63086 212.12305 L 437.08398 212.12109 L 437.08398 181.16406 L 437.08398 150.20898 L 445.69336 150.17188 L 454.30469 150.13672 L 455.05078 149.85352 C 456.64049 149.25142 458.00386 148.0561 458.77539 146.58789 C 459.50524 145.19901 459.58294 144.56719 459.58594 140.09766 L 459.58789 136.15039 z "
       transform="translate(0,343.70079)"
       id="path4179" />
    <path
       style="fill:#000000"
       d="M 179.61719 72.949219 C 173.38709 72.949219 169.97852 73.051434 169.97852 73.240234 C 169.97852 73.414424 168.85998 73.533203 167.20508 73.533203 C 165.55028 73.533203 164.43164 73.650029 164.43164 73.824219 C 164.43164 73.986459 163.65103 74.117188 162.67773 74.117188 C 161.70433 74.117188 160.92578 74.247916 160.92578 74.410156 C 160.92578 74.570766 160.20361 74.701172 159.32031 74.701172 C 158.43681 74.701172 157.71484 74.833521 157.71484 74.994141 C 157.71484 75.154761 157.12309 75.285156 156.40039 75.285156 C 155.67759 75.285156 155.08594 75.417515 155.08594 75.578125 C 155.08594 75.738745 154.56027 75.869141 153.91797 75.869141 C 153.27547 75.869141 152.75 76.001489 152.75 76.162109 C 152.75 76.322729 152.22443 76.453125 151.58203 76.453125 C 150.93963 76.453125 150.41406 76.585474 150.41406 76.746094 C 150.41406 76.906714 150.01901 77.037109 149.53711 77.037109 C 149.05541 77.037109 148.66016 77.169458 148.66016 77.330078 C 148.66016 77.490698 148.13469 77.621094 147.49219 77.621094 C 146.84979 77.621094 146.32422 77.753443 146.32422 77.914062 C 146.32422 78.074673 146.05973 78.205078 145.73633 78.205078 C 145.41303 78.205078 144.88736 78.337427 144.56836 78.498047 C 144.24926 78.658657 143.7273 78.921411 143.4082 79.082031 C 143.0891 79.242641 142.56363 79.373047 142.24023 79.373047 C 141.91673 79.373047 141.65234 79.505396 141.65234 79.666016 C 141.65234 79.826626 141.32337 79.957031 140.92188 79.957031 C 140.52028 79.957031 140.19141 80.08938 140.19141 80.25 C 140.19141 80.41061 139.87062 80.541016 139.47852 80.541016 C 139.08652 80.541016 138.68494 80.673374 138.58594 80.833984 C 138.48664 80.994604 138.14959 81.125 137.83789 81.125 C 137.52619 81.125 137.27148 81.257359 137.27148 81.417969 C 137.27148 81.578589 137.02882 81.710938 136.73242 81.710938 C 136.12522 81.710938 126.95774 86.337953 126.80664 86.720703 C 126.75304 86.856313 126.45819 86.966797 126.15039 86.966797 C 125.84249 86.966797 125.58984 87.076107 125.58984 87.210938 C 125.58984 87.345768 125.25711 87.609222 124.84961 87.794922 C 124.44191 87.980632 123.94871 88.267071 123.75391 88.431641 C 123.24261 88.863801 119.75793 91.054688 119.58203 91.054688 C 119.50033 91.054688 119.27408 91.187779 119.08008 91.349609 C 118.88598 91.511459 117.87398 92.305924 116.83008 93.115234 C 115.78608 93.924544 114.73514 94.745796 114.49414 94.941406 C 114.25324 95.137026 113.5953 95.618669 113.0332 96.011719 C 112.471 96.404769 111.66223 97.093096 111.23633 97.541016 C 110.81043 97.988916 110.34803 98.355469 110.20703 98.355469 C 110.06603 98.355469 109.7608 98.618223 109.5293 98.939453 C 109.2978 99.260683 109.00541 99.523438 108.87891 99.523438 C 108.53761 99.523438 100.18359 107.93942 100.18359 108.2832 C 100.18359 108.44518 100.0532 108.57617 99.892578 108.57617 C 99.731968 108.57617 99.599609 108.71526 99.599609 108.88477 C 99.599609 109.05428 98.811356 109.96619 97.847656 110.91211 C 96.883966 111.85802 96.095703 112.74749 96.095703 112.88672 C 96.095703 113.02594 95.864851 113.39371 95.582031 113.70508 C 95.015951 114.32821 92.228323 118.06231 91.126953 119.67383 C 90.742763 120.23599 90.353619 120.7615 90.261719 120.8418 C 90.169729 120.9221 89.770377 121.61207 89.373047 122.375 C 88.975717 123.13793 88.550417 123.76172 88.429688 123.76172 C 88.308878 123.76172 88.210938 124.02447 88.210938 124.3457 C 88.210938 124.66695 88.096218 124.92969 87.955078 124.92969 C 87.813948 124.92969 87.533554 125.32479 87.333984 125.80664 C 87.134384 126.28849 86.855954 126.68359 86.714844 126.68359 C 86.573704 126.68359 86.458984 126.94635 86.458984 127.26758 C 86.458984 127.58881 86.342302 127.85156 86.201172 127.85156 C 86.060022 127.85156 85.781601 128.24471 85.582031 128.72656 C 85.382421 129.20843 85.104001 129.60352 84.962891 129.60352 C 84.821751 129.60352 84.707031 129.80182 84.707031 130.04492 C 84.707031 130.28802 84.580541 130.71524 84.425781 130.99414 C 83.791531 132.13745 82.955078 134.11822 82.955078 134.47656 C 82.955078 134.68731 82.822729 134.85938 82.662109 134.85938 C 82.501499 134.85938 82.371094 135.12213 82.371094 135.44336 C 82.371094 135.7646 82.238745 136.02734 82.078125 136.02734 C 81.917515 136.02734 81.785156 136.2901 81.785156 136.61133 C 81.785156 136.93256 81.654761 137.19531 81.494141 137.19531 C 81.333531 137.19531 81.201172 137.45806 81.201172 137.7793 C 81.201172 138.10054 81.070776 138.36328 80.910156 138.36328 C 80.749536 138.36328 80.617188 138.75838 80.617188 139.24023 C 80.617187 139.72208 80.486792 140.11523 80.326172 140.11523 C 80.165562 140.11523 80.033203 140.43606 80.033203 140.82812 C 80.033203 141.22019 79.902798 141.62336 79.742188 141.72266 C 79.581568 141.82192 79.449219 142.22317 79.449219 142.61523 C 79.449219 143.0073 79.318813 143.32812 79.158203 143.32812 C 78.997583 143.32812 78.865234 143.72323 78.865234 144.20508 C 78.865234 144.68693 78.734839 145.08008 78.574219 145.08008 C 78.413599 145.08008 78.28125 145.40091 78.28125 145.79297 C 78.28125 146.18503 78.150844 146.5882 77.990234 146.6875 C 77.829614 146.78678 77.697266 147.17991 77.697266 147.5625 C 77.697266 147.94508 77.56687 148.34015 77.40625 148.43945 C 77.24563 148.53872 77.113281 148.99804 77.113281 149.46094 C 77.113281 149.92382 76.982886 150.38312 76.822266 150.48242 C 76.661646 150.58168 76.529297 151.10719 76.529297 151.65039 C 76.529297 152.19359 76.398911 152.72101 76.238281 152.82031 C 76.077671 152.91957 75.945312 153.44507 75.945312 153.98828 C 75.945313 154.53147 75.814917 155.05695 75.654297 155.15625 C 75.493687 155.25551 75.361328 155.78912 75.361328 156.3418 C 75.361328 156.89449 75.230932 157.3457 75.070312 157.3457 C 74.908072 157.3457 74.777344 158.12423 74.777344 159.09766 C 74.777344 160.0711 74.646605 160.84961 74.484375 160.84961 C 74.317495 160.84961 74.193359 161.7264 74.193359 162.89453 C 74.193359 164.06265 74.067271 164.93945 73.900391 164.93945 C 73.733521 164.93945 73.609375 165.8143 73.609375 166.98242 C 73.609375 168.15055 73.483286 169.02734 73.316406 169.02734 C 73.127286 169.02734 73.025391 172.62868 73.025391 179.24805 C 73.025391 185.86741 73.127286 189.46875 73.316406 189.46875 C 73.488186 189.46875 73.609375 190.49102 73.609375 191.95117 C 73.609375 193.41132 73.728611 194.43359 73.900391 194.43359 C 74.065131 194.43359 74.193359 195.26125 74.193359 196.33203 C 74.193359 197.40282 74.319635 198.23047 74.484375 198.23047 C 74.644985 198.23047 74.777344 198.88832 74.777344 199.69141 C 74.777344 200.49449 74.909702 201.15039 75.070312 201.15039 C 75.230933 201.15039 75.361328 201.80824 75.361328 202.61133 C 75.361328 203.41442 75.493687 204.07031 75.654297 204.07031 C 75.814917 204.07031 75.945312 204.59581 75.945312 205.23828 C 75.945313 205.88075 76.077671 206.40625 76.238281 206.40625 C 76.398911 206.40625 76.529297 206.80135 76.529297 207.2832 C 76.529297 207.76506 76.661646 208.16016 76.822266 208.16016 C 76.982886 208.16016 77.113281 208.68565 77.113281 209.32812 C 77.113281 209.97059 77.24563 210.49609 77.40625 210.49609 C 77.56687 210.49609 77.697266 210.88924 77.697266 211.37109 C 77.697266 211.85294 77.829614 212.24805 77.990234 212.24805 C 78.150844 212.24805 78.28125 212.6412 78.28125 213.12305 C 78.28125 213.60489 78.413599 214 78.574219 214 C 78.734839 214 78.865234 214.39509 78.865234 214.87695 C 78.865234 215.3588 78.997583 215.75195 79.158203 215.75195 C 79.318813 215.75195 79.449219 216.08089 79.449219 216.48242 C 79.449219 216.88397 79.581568 217.21289 79.742188 217.21289 C 79.902797 217.21289 80.033203 217.5337 80.033203 217.92578 C 80.033203 218.31783 80.165562 218.71906 80.326172 218.81836 C 80.486792 218.91764 80.617188 219.25466 80.617188 219.56641 C 80.617187 219.87814 80.749536 220.13281 80.910156 220.13281 C 81.070776 220.13281 81.201172 220.45361 81.201172 220.8457 C 81.201172 221.23775 81.333531 221.63898 81.494141 221.73828 C 81.654761 221.83754 81.785156 222.17459 81.785156 222.48633 C 81.785156 222.79808 81.917515 223.05273 82.078125 223.05273 C 82.238745 223.05273 82.371094 223.31548 82.371094 223.63672 C 82.371094 223.95796 82.501499 224.2207 82.662109 224.2207 C 82.822729 224.2207 82.955078 224.48346 82.955078 224.80469 C 82.955078 225.12592 83.085474 225.38867 83.246094 225.38867 C 83.406714 225.38867 83.539062 225.65142 83.539062 225.97266 C 83.539063 226.29389 83.669448 226.55664 83.830078 226.55664 C 83.990688 226.55664 84.123047 226.81939 84.123047 227.14062 C 84.123047 227.46186 84.253443 227.72461 84.414062 227.72461 C 84.574672 227.72461 84.707031 227.98734 84.707031 228.30859 C 84.707031 228.62982 84.837427 228.89258 84.998047 228.89258 C 85.158657 228.89258 85.291016 229.15728 85.291016 229.47852 C 85.291016 229.79975 85.421401 230.0625 85.582031 230.0625 C 85.742641 230.0625 85.875 230.32525 85.875 230.64648 C 85.875 230.96772 85.980365 231.23047 86.109375 231.23047 C 86.238395 231.23047 86.665604 231.88498 87.058594 232.68555 C 87.451584 233.48616 87.871718 234.14348 87.992188 234.14648 C 88.112618 234.149 88.210938 234.28955 88.210938 234.45898 C 88.210937 234.62839 88.736436 235.54023 89.378906 236.48633 C 90.021376 237.43239 90.546875 238.33416 90.546875 238.49023 C 90.546875 238.64626 90.651074 238.81759 90.777344 238.87109 C 90.903614 238.92465 91.322874 239.42807 91.708984 239.99023 C 93.379394 242.42215 95.707328 245.45272 96.455078 246.16797 C 96.900278 246.59381 97.263672 247.07666 97.263672 247.24219 C 97.263672 247.40771 98.314669 248.60525 99.599609 249.90234 C 100.88454 251.19943 101.93555 252.37554 101.93555 252.51562 C 101.93555 252.89917 105.79359 256.63672 106.18945 256.63672 C 106.27475 256.63672 107.22633 257.52512 108.30273 258.61133 C 109.37913 259.69756 111.58874 261.64578 113.21484 262.93945 L 116.17188 265.29102 L 115.73438 266.12695 C 115.49348 266.58668 114.98482 267.29973 114.60352 267.71094 C 114.22222 268.12214 113.91016 268.55122 113.91016 268.66602 C 113.91016 268.78082 113.61089 269.17624 113.24609 269.54492 C 112.88109 269.91362 112.25908 270.67611 111.86328 271.23828 C 111.07858 272.35298 110.46123 273.13539 109.89453 273.73242 C 109.69383 273.94397 109.5293 274.1893 109.5293 274.2793 C 109.5293 274.43558 109.34291 274.6749 107.84961 276.44531 C 107.48841 276.87351 107.19366 277.38908 107.19336 277.58984 C 107.19316 277.79061 107.06094 277.95508 106.90039 277.95508 C 106.7397 277.95508 106.60938 278.21783 106.60938 278.53906 C 106.60937 278.86029 106.477 279.12305 106.31641 279.12305 C 106.15579 279.12305 106.02539 279.77895 106.02539 280.58203 C 106.02539 281.38512 106.15579 282.04297 106.31641 282.04297 C 106.477 282.04297 106.60938 282.30571 106.60938 282.62695 C 106.60938 283.18331 106.80349 283.21094 110.69727 283.21094 C 113.22807 283.21094 114.78516 283.10069 114.78516 282.91992 C 114.78516 282.74021 116.24583 282.62695 118.58203 282.62695 C 120.91833 282.62695 122.37891 282.51566 122.37891 282.33594 C 122.37891 282.15567 123.88671 282.04297 126.32031 282.04297 C 128.75381 282.04297 130.26367 281.93224 130.26367 281.75195 C 130.26367 281.57231 131.71827 281.45898 134.04297 281.45898 C 136.24747 281.45898 137.89665 281.33832 138.00195 281.16797 C 138.10725 280.99775 139.75241 280.875 141.94531 280.875 C 144.13831 280.875 145.78152 280.75227 145.88672 280.58203 C 145.98592 280.42142 146.6986 280.29102 147.4707 280.29102 C 148.7722 280.29102 148.99403 280.17671 150.51953 278.71094 C 151.42453 277.84143 152.16602 276.92081 152.16602 276.66602 C 152.16602 276.41121 152.29643 276.20312 152.45703 276.20312 C 152.61923 276.20312 152.75 275.42459 152.75 274.45117 C 152.75 273.4777 152.61923 272.69727 152.45703 272.69727 C 152.29503 272.69727 152.16602 271.92484 152.16602 270.96289 C 152.16602 270.00867 152.03365 269.14617 151.87305 269.04688 C 151.71255 268.9476 151.58203 268.15936 151.58203 267.29492 C 151.58203 266.43049 151.44966 265.64227 151.28906 265.54297 C 151.12846 265.44372 150.99805 264.65547 150.99805 263.79102 C 150.99805 262.92658 150.86578 262.13836 150.70508 262.03906 C 150.54458 261.93979 150.41406 261.15154 150.41406 260.28711 C 150.41406 259.42267 150.28169 258.63436 150.12109 258.53516 C 149.96049 258.4359 149.83008 257.64763 149.83008 256.7832 C 149.83008 255.91876 149.69781 255.13055 149.53711 255.03125 C 149.37651 254.93199 149.24609 254.20796 149.24609 253.42383 C 149.24609 252.63971 149.11372 251.91766 148.95312 251.81836 C 148.79242 251.71911 148.66016 250.85654 148.66016 249.90234 C 148.66016 248.94039 148.53104 248.16797 148.36914 248.16797 C 148.20694 248.16797 148.07617 247.38944 148.07617 246.41602 C 148.07617 245.44256 147.94736 244.66406 147.78516 244.66406 C 147.62296 244.66406 147.49219 243.88359 147.49219 242.91016 C 147.49219 241.9367 147.36337 241.1582 147.20117 241.1582 C 147.03897 241.1582 146.9082 240.37967 146.9082 239.40625 C 146.9082 238.43279 146.77949 237.6543 146.61719 237.6543 C 146.45659 237.6543 146.32422 236.99644 146.32422 236.19336 C 146.32422 235.39028 146.1939 234.73438 146.0332 234.73438 C 145.8727 234.73438 145.74023 234.47162 145.74023 234.15039 C 145.74023 233.761 145.54565 233.56641 145.15625 233.56641 C 144.83495 233.56641 144.57227 233.43405 144.57227 233.27344 C 144.57227 233.11282 144.11288 232.98242 143.55078 232.98242 C 142.98848 232.98242 142.5293 233.11282 142.5293 233.27344 C 142.5293 233.43405 142.32402 233.56641 142.07422 233.56641 C 141.61502 233.56641 138.14844 236.90018 138.14844 237.3418 C 138.14844 237.47318 137.6872 238.08354 137.125 238.69727 C 136.5628 239.311 136.10352 239.93105 136.10352 240.07617 C 136.10352 240.22125 135.71032 240.70809 135.22852 241.1582 C 134.74662 241.60831 134.35156 242.10124 134.35156 242.25391 C 134.35156 242.40655 133.95641 242.945 133.47461 243.44922 C 132.99271 243.95341 132.59961 244.49808 132.59961 244.66016 C 132.59961 244.82223 132.46724 244.95508 132.30664 244.95508 C 132.14604 244.95508 132.01562 245.15166 132.01562 245.39258 C 132.01563 246.09668 131.2057 245.90006 130.2168 244.95508 C 129.7126 244.47323 129.18332 244.08008 129.04102 244.08008 C 128.89892 244.08008 128.32372 243.6188 127.76172 243.05664 C 127.19952 242.49447 126.61288 242.03516 126.45898 242.03516 C 126.09928 242.03516 117.12109 233.06623 117.12109 232.70703 C 117.12109 232.55839 116.46521 231.762 115.66211 230.9375 C 114.85901 230.11301 114.20117 229.33587 114.20117 229.21094 C 114.20117 229.086 113.87396 228.60343 113.47266 228.13672 C 113.07126 227.67007 112.74239 227.13467 112.74219 226.94727 C 112.74199 226.75987 112.63566 226.56141 112.50586 226.50781 C 112.37606 226.45428 111.84452 225.78638 111.32422 225.02344 L 110.37695 223.63672 L 179.31055 223.63672 C 217.22385 223.63672 248.24414 223.70782 248.24414 223.79492 C 248.24414 223.88195 247.98136 224.23524 247.66016 224.58008 C 247.33886 224.92487 247.07617 225.37923 247.07617 225.58984 C 247.07617 225.80048 246.97416 225.97266 246.85156 225.97266 C 246.72886 225.97266 246.3052 226.49815 245.9082 227.14062 C 245.511 227.78309 245.08559 228.30859 244.96289 228.30859 C 244.84009 228.30859 244.74023 228.48581 244.74023 228.70117 C 244.74023 228.91655 244.14848 229.7192 243.42578 230.48438 C 242.70288 231.24955 242.11133 231.99213 242.11133 232.13477 C 242.11133 232.48465 231.95978 242.61914 231.60938 242.61914 C 231.45718 242.61914 231.03071 242.91833 230.66211 243.2832 C 230.29341 243.64809 229.53105 244.26596 228.96875 244.65625 C 228.40665 245.04658 227.88078 245.44785 227.80078 245.54883 C 227.60608 245.79376 223.19228 248.75195 223.02148 248.75195 C 222.94808 248.75195 222.21954 249.19233 221.40234 249.73047 C 220.58534 250.26862 219.02941 251.15392 217.94531 251.69922 C 216.86111 252.24457 215.93095 252.79095 215.87695 252.91211 C 215.82345 253.03333 215.5286 253.13281 215.2207 253.13281 C 214.913 253.13281 214.66016 253.26322 214.66016 253.42383 C 214.66016 253.58445 214.39747 253.7168 214.07617 253.7168 C 213.75497 253.7168 213.49219 253.8472 213.49219 254.00781 C 213.49219 254.16843 213.2295 254.30078 212.9082 254.30078 C 212.587 254.30078 212.32422 254.40748 212.32422 254.53906 C 212.32422 254.67065 211.66638 254.95708 210.86328 255.17578 C 210.06028 255.39445 209.4043 255.6809 209.4043 255.8125 C 209.4043 255.94405 209.00914 256.05273 208.52734 256.05273 C 208.04544 256.05273 207.65039 256.18313 207.65039 256.34375 C 207.65039 256.50437 207.38771 256.63672 207.06641 256.63672 C 206.74521 256.63672 206.48242 256.76711 206.48242 256.92773 C 206.48242 257.08835 206.08932 257.2207 205.60742 257.2207 C 205.12552 257.2207 204.73047 257.3511 204.73047 257.51172 C 204.73047 257.67234 204.2049 257.80469 203.5625 257.80469 C 202.92 257.80469 202.39453 257.93508 202.39453 258.0957 C 202.39453 258.25631 201.93515 258.38867 201.37305 258.38867 C 200.81085 258.38867 200.35156 258.52102 200.35156 258.68164 C 200.35156 258.84225 199.89022 258.97266 199.32812 258.97266 C 198.76582 258.97266 198.30664 259.10501 198.30664 259.26562 C 198.30664 259.42623 197.94551 259.55643 197.50391 259.55664 C 197.06221 259.55683 196.32559 259.87919 195.86719 260.27344 C 195.12919 260.9077 195.03473 261.17927 195.05273 262.62109 C 195.06343 263.51723 195.15998 264.39248 195.26758 264.56641 C 195.45098 264.86314 195.65002 265.55618 196.26172 268.02539 C 196.40102 268.58755 196.6636 269.57433 196.8457 270.2168 C 197.0277 270.85927 197.29049 271.84409 197.42969 272.40625 C 197.56869 272.96842 197.96384 274.41451 198.30664 275.61914 C 198.64924 276.82376 199.16473 278.6828 199.45312 279.75195 C 200.17933 282.44407 200.98973 283.21094 203.11133 283.21094 C 204.00203 283.21094 204.73047 283.08054 204.73047 282.91992 C 204.73047 282.75931 205.12552 282.62695 205.60742 282.62695 C 206.08932 282.62695 206.48242 282.49656 206.48242 282.33594 C 206.48242 282.17533 207.00789 282.04297 207.65039 282.04297 C 208.29289 282.04297 208.82031 281.91257 208.82031 281.75195 C 208.82031 281.59134 209.21351 281.45898 209.69531 281.45898 C 210.17721 281.45898 210.57227 281.32859 210.57227 281.16797 C 210.57227 281.00736 211.09783 280.875 211.74023 280.875 C 212.38273 280.875 212.9082 280.74265 212.9082 280.58203 C 212.9082 280.42142 213.23707 280.29102 213.63867 280.29102 C 214.04027 280.29102 214.36719 280.15867 214.36719 279.99805 C 214.36719 279.83744 214.69626 279.70703 215.09766 279.70703 C 215.49936 279.70703 215.82812 279.57467 215.82812 279.41406 C 215.82813 279.25344 216.22338 279.12305 216.70508 279.12305 C 217.18698 279.12305 217.58008 278.99069 217.58008 278.83008 C 217.58008 278.66946 217.90905 278.53906 218.31055 278.53906 C 218.71215 278.53906 219.04102 278.40671 219.04102 278.24609 C 219.04102 278.08547 219.43422 277.95508 219.91602 277.95508 C 220.39792 277.95508 220.79297 277.82273 220.79297 277.66211 C 220.79297 277.50148 221.05575 277.37109 221.37695 277.37109 C 221.69815 277.37109 221.96094 277.23874 221.96094 277.07812 C 221.96094 276.91751 222.22372 276.78711 222.54492 276.78711 C 222.86612 276.78711 223.12891 276.65476 223.12891 276.49414 C 223.12891 276.33353 223.39169 276.20312 223.71289 276.20312 C 224.03419 276.20312 224.29688 276.07078 224.29688 275.91016 C 224.29688 275.74955 224.55956 275.61914 224.88086 275.61914 C 225.20206 275.61914 225.46484 275.48678 225.46484 275.32617 C 225.46484 275.16554 225.65171 275.03516 225.87891 275.03516 C 226.38221 275.03516 229.95384 273.24771 230.08984 272.92773 C 230.14334 272.80178 230.43819 272.69727 230.74609 272.69727 C 231.05389 272.69727 231.30664 272.58255 231.30664 272.44141 C 231.30664 272.30028 231.69974 272.02185 232.18164 271.82227 C 232.66354 271.62267 233.05859 271.34423 233.05859 271.20312 C 233.05859 271.06198 233.32138 270.94531 233.64258 270.94531 C 233.96388 270.94531 234.22656 270.81492 234.22656 270.6543 C 234.22656 270.49368 234.48935 270.36133 234.81055 270.36133 C 235.13185 270.36133 235.39453 270.23963 235.39453 270.08984 C 235.39453 269.94003 235.64176 269.73838 235.94336 269.64258 C 236.24496 269.54685 236.86878 269.1448 237.33008 268.74805 C 237.79138 268.35129 238.32237 268.02559 238.50977 268.02539 C 238.69717 268.02517 238.89327 267.91874 238.94727 267.78711 C 239.00087 267.65553 239.89936 266.97495 240.94336 266.27539 C 242.72496 265.08159 244.9991 263.35906 245.8418 262.56445 C 246.0467 262.37115 246.83058 261.71331 247.58398 261.10352 C 248.33738 260.49373 250.29158 258.66396 251.92578 257.03711 C 253.56018 255.4103 255.30519 253.83805 255.80469 253.54297 C 256.30409 253.24794 256.71289 252.83043 256.71289 252.61523 C 256.71289 252.40003 257.47104 251.47518 258.39844 250.56055 C 259.32584 249.6459 260.40753 248.43716 260.80273 247.875 C 261.19803 247.31285 261.89155 246.45842 262.34375 245.97656 C 264.00635 244.20465 269.26953 236.78384 269.26953 236.21094 C 269.26953 236.0415 269.38624 235.90234 269.52734 235.90234 C 269.66844 235.90234 269.94678 235.50724 270.14648 235.02539 C 270.34588 234.54354 270.62462 234.15039 270.76562 234.15039 C 270.90683 234.15039 271.02148 233.88764 271.02148 233.56641 C 271.02148 233.24518 271.1381 232.98242 271.2793 232.98242 C 271.4204 232.98242 271.69884 232.58733 271.89844 232.10547 C 272.09804 231.62362 272.37638 231.23047 272.51758 231.23047 C 272.65868 231.23047 272.77344 230.96772 272.77344 230.64648 C 272.77344 230.32525 272.90581 230.0625 273.06641 230.0625 C 273.22701 230.0625 273.35742 229.79975 273.35742 229.47852 C 273.35742 229.15728 273.48979 228.89258 273.65039 228.89258 C 273.81099 228.89258 273.94141 228.62982 273.94141 228.30859 C 273.94141 227.98734 274.07378 227.72461 274.23438 227.72461 C 274.39487 227.72461 274.52734 227.46186 274.52734 227.14062 C 274.52734 226.81939 274.65776 226.55664 274.81836 226.55664 C 274.97896 226.55664 275.11133 226.29389 275.11133 225.97266 C 275.11133 225.65142 275.24174 225.38867 275.40234 225.38867 C 275.56294 225.38867 275.69531 225.12592 275.69531 224.80469 C 275.69531 224.48346 275.82573 224.2207 275.98633 224.2207 C 276.14703 224.2207 276.2793 223.95796 276.2793 223.63672 C 276.2793 223.31548 276.40961 223.05273 276.57031 223.05273 C 276.73091 223.05273 276.86328 222.7319 276.86328 222.33984 C 276.86328 221.9478 276.9937 221.54657 277.1543 221.44727 C 277.315 221.348 277.44727 221.01096 277.44727 220.69922 C 277.44727 220.38745 277.57758 220.13281 277.73828 220.13281 C 277.89888 220.13281 278.03125 219.80388 278.03125 219.40234 C 278.03125 219.0008 278.16167 218.67188 278.32227 218.67188 C 278.48297 218.67188 278.61523 218.34295 278.61523 217.94141 C 278.61523 217.53986 278.74565 217.21289 278.90625 217.21289 C 279.06685 217.21289 279.19922 216.88397 279.19922 216.48242 C 279.19922 216.08089 279.32963 215.75195 279.49023 215.75195 C 279.65083 215.75195 279.7832 215.3588 279.7832 214.87695 C 279.7832 214.39509 279.91352 214 280.07422 214 C 280.23472 214 280.36719 213.61299 280.36719 213.14062 C 280.36719 212.66826 280.4976 212.20086 280.6582 212.10156 C 280.8188 212.00231 280.95117 211.53485 280.95117 211.0625 C 280.95117 210.5901 281.08149 210.20312 281.24219 210.20312 C 281.40279 210.20312 281.53516 209.7438 281.53516 209.18164 C 281.53516 208.61948 281.66753 208.16016 281.82812 208.16016 C 281.98882 208.16016 282.11914 207.76506 282.11914 207.2832 C 282.11914 206.80135 282.25141 206.40625 282.41211 206.40625 C 282.57271 206.40625 282.70312 205.75036 282.70312 204.94727 C 282.70313 204.14418 282.83549 203.48633 282.99609 203.48633 C 283.15679 203.48633 283.28711 202.96082 283.28711 202.31836 C 283.28711 201.67589 283.41938 201.15039 283.58008 201.15039 C 283.74068 201.15039 283.87109 200.49449 283.87109 199.69141 C 283.87109 198.88832 284.00346 198.23047 284.16406 198.23047 C 284.33096 198.23047 284.45508 197.35368 284.45508 196.18555 C 284.45508 195.01743 284.58125 194.14258 284.74805 194.14258 C 284.91845 194.14258 285.03906 193.16751 285.03906 191.80469 C 285.03906 190.44188 285.16183 189.46875 285.33203 189.46875 C 285.52113 189.46875 285.62305 185.91654 285.62305 179.39453 C 285.62305 172.8725 285.52113 169.31836 285.33203 169.31836 C 285.16343 169.31836 285.03906 168.39437 285.03906 167.12891 C 285.03906 165.86345 284.91685 164.93945 284.74805 164.93945 C 284.58365 164.93945 284.45508 164.11788 284.45508 163.05859 C 284.45508 162.02406 284.32476 161.09539 284.16406 160.99609 C 284.00346 160.89681 283.87109 160.03431 283.87109 159.08008 C 283.87109 158.11814 283.74208 157.3457 283.58008 157.3457 C 283.41938 157.3457 283.28711 156.82019 283.28711 156.17773 C 283.28711 155.53525 283.15679 155.00977 282.99609 155.00977 C 282.83549 155.00977 282.70312 154.48426 282.70312 153.8418 C 282.70312 153.19933 282.58636 152.67383 282.44336 152.67383 C 282.30026 152.67383 282.10386 152.21254 282.00586 151.65039 C 281.90796 151.08823 281.74644 150.16718 281.64844 149.60352 C 281.55044 149.03988 281.35384 148.50822 281.21094 148.41992 C 281.06804 148.33163 280.95117 147.87278 280.95117 147.40039 C 280.95117 146.92803 280.8188 146.54102 280.6582 146.54102 C 280.4976 146.54102 280.36719 146.21209 280.36719 145.81055 C 280.36719 145.409 280.23472 145.08008 280.07422 145.08008 C 279.91352 145.08008 279.7832 144.68693 279.7832 144.20508 C 279.7832 143.72323 279.65083 143.32812 279.49023 143.32812 C 279.32963 143.32812 279.19922 143.0073 279.19922 142.61523 C 279.19922 142.22317 279.06685 141.82196 278.90625 141.72266 C 278.74565 141.6234 278.61523 141.22019 278.61523 140.82812 C 278.61523 140.43606 278.48297 140.11523 278.32227 140.11523 C 278.16167 140.11523 278.03125 139.79439 278.03125 139.40234 C 278.03125 139.01027 277.89888 138.60907 277.73828 138.50977 C 277.57758 138.41049 277.44727 138.07347 277.44727 137.76172 C 277.44727 137.44997 277.315 137.19531 277.1543 137.19531 C 276.9937 137.19531 276.86328 136.93256 276.86328 136.61133 C 276.86328 136.2901 276.73091 136.02734 276.57031 136.02734 C 276.40961 136.02734 276.2793 135.7646 276.2793 135.44336 C 276.2793 135.12213 276.14703 134.85938 275.98633 134.85938 C 275.82573 134.85938 275.69531 134.67498 275.69531 134.44922 C 275.69531 134.22349 275.4379 133.53351 275.125 132.91602 C 274.812 132.29852 274.14177 130.90644 273.63477 129.82227 C 273.12787 128.7381 272.59507 127.85156 272.45117 127.85156 C 272.30737 127.85156 272.18945 127.58881 272.18945 127.26758 C 272.18945 126.94635 272.07469 126.68359 271.93359 126.68359 C 271.79249 126.68359 271.51395 126.28849 271.31445 125.80664 C 271.11485 125.32479 270.83631 124.92969 270.69531 124.92969 C 270.55411 124.92969 270.4375 124.66695 270.4375 124.3457 C 270.4375 124.02447 270.33945 123.76172 270.21875 123.76172 C 270.09805 123.76172 269.67234 123.13793 269.27344 122.375 C 268.87464 121.61207 268.38279 120.81381 268.17969 120.60156 C 267.97649 120.38933 267.81055 120.10446 267.81055 119.9668 C 267.81055 119.82913 267.63989 119.54231 267.43359 119.33008 C 267.22729 119.11782 266.27997 117.89236 265.32617 116.60742 C 264.37257 115.32248 263.51683 114.2053 263.42383 114.125 C 263.33123 114.04469 262.93617 113.51919 262.54688 112.95703 C 262.15747 112.39488 261.21076 111.31891 260.44336 110.56641 C 259.67606 109.8139 259.04883 109.05971 259.04883 108.88867 C 259.04883 108.71762 258.91646 108.57617 258.75586 108.57617 C 258.59526 108.57617 258.46484 108.44332 258.46484 108.28125 C 258.46484 107.8964 250.67592 100.10742 250.29102 100.10742 C 250.12902 100.10742 249.99609 99.977026 249.99609 99.816406 C 249.99609 99.655786 249.85665 99.523438 249.68555 99.523438 C 249.51455 99.523438 248.75846 98.896276 248.00586 98.128906 C 247.25336 97.361546 246.17723 96.414761 245.61523 96.025391 C 245.05293 95.636031 244.52727 95.240937 244.44727 95.148438 C 244.36707 95.055888 243.24974 94.201677 241.96484 93.248047 C 240.67974 92.294397 239.45439 91.344992 239.24219 91.138672 C 239.02989 90.932342 238.74502 90.763672 238.60742 90.763672 C 238.46982 90.763672 238.1829 90.597661 237.9707 90.394531 C 237.7584 90.191391 236.96027 89.697728 236.19727 89.298828 C 235.43437 88.899928 234.81055 88.474266 234.81055 88.353516 C 234.81055 88.232796 234.54786 88.134766 234.22656 88.134766 C 233.90536 88.134766 233.64258 88.020026 233.64258 87.878906 C 233.64258 87.737776 233.24742 87.457393 232.76562 87.257812 C 232.28372 87.058222 231.89062 86.795478 231.89062 86.673828 C 231.89063 86.552178 231.49557 86.289444 231.01367 86.089844 C 230.53177 85.890254 230.13867 85.611843 230.13867 85.470703 C 230.13867 85.329573 229.95226 85.214844 229.72656 85.214844 C 229.50086 85.214844 228.81086 84.958414 228.19336 84.646484 C 225.60656 83.339754 223.25926 82.294922 222.91406 82.294922 C 222.71096 82.294922 222.54492 82.162573 222.54492 82.001953 C 222.54492 81.841343 222.28214 81.710938 221.96094 81.710938 C 221.63974 81.710938 221.37695 81.578589 221.37695 81.417969 C 221.37695 81.257359 221.11417 81.125 220.79297 81.125 C 220.47177 81.125 220.20898 80.994604 220.20898 80.833984 C 220.20898 80.673374 219.81383 80.541016 219.33203 80.541016 C 218.85013 80.541016 218.45703 80.41061 218.45703 80.25 C 218.45703 80.08938 218.13624 79.957031 217.74414 79.957031 C 217.35204 79.957031 216.94861 79.826626 216.84961 79.666016 C 216.75021 79.505396 216.34923 79.373047 215.95703 79.373047 C 215.56503 79.373047 215.24414 79.242641 215.24414 79.082031 C 215.24414 78.921411 214.92325 78.789062 214.53125 78.789062 C 214.13915 78.789062 213.73767 78.658657 213.63867 78.498047 C 213.53937 78.337427 213.13624 78.205078 212.74414 78.205078 C 212.35204 78.205078 212.03125 78.074673 212.03125 77.914062 C 212.03125 77.753443 211.64633 77.621094 211.17383 77.621094 C 210.70163 77.621094 210.23181 77.490698 210.13281 77.330078 C 210.03351 77.169458 209.57423 77.037109 209.11133 77.037109 C 208.64833 77.037109 208.18884 76.906714 208.08984 76.746094 C 207.99064 76.585474 207.4569 76.453125 206.9043 76.453125 C 206.3516 76.453125 205.89844 76.322729 205.89844 76.162109 C 205.89844 76.001489 205.37287 75.869141 204.73047 75.869141 C 204.08807 75.869141 203.5625 75.738745 203.5625 75.578125 C 203.5625 75.417515 203.03703 75.285156 202.39453 75.285156 C 201.75213 75.285156 201.22656 75.154761 201.22656 74.994141 C 201.22656 74.831901 200.44791 74.701172 199.47461 74.701172 C 198.50111 74.701172 197.72266 74.572396 197.72266 74.410156 C 197.72266 74.243276 196.84593 74.117188 195.67773 74.117188 C 194.50963 74.117188 193.63477 73.991099 193.63477 73.824219 C 193.63477 73.655489 192.70886 73.533203 191.44336 73.533203 C 190.17796 73.533203 189.25391 73.408964 189.25391 73.240234 C 189.25391 73.051434 185.84709 72.949219 179.61719 72.949219 z M 175.64648 97.1875 C 175.91448 97.1875 176.0033 97.391884 175.9043 97.771484 C 175.8202 98.092714 175.63604 98.355469 175.49414 98.355469 C 175.35224 98.355469 175.23633 98.618223 175.23633 98.939453 C 175.23633 99.260683 175.11962 99.523438 174.97852 99.523438 C 174.83742 99.523438 174.55491 99.930251 174.34961 100.42578 C 174.14431 100.92131 173.82437 101.47892 173.63867 101.66602 C 173.45277 101.8531 172.85279 102.86029 172.30469 103.9043 C 171.75649 104.94832 171.22881 105.86892 171.13281 105.94922 C 171.03661 106.02954 170.6395 106.68542 170.25 107.4082 C 169.8605 108.13097 169.47453 108.78884 169.39453 108.86914 C 169.26743 108.99627 168.86993 109.70968 167.51953 112.22656 C 167.34703 112.54779 167.13859 112.87673 167.05859 112.95703 C 166.78729 113.22837 165.8761 114.84931 165.375 115.95117 C 165.1011 116.55349 164.777 117.04492 164.6543 117.04492 C 164.5316 117.04492 164.43164 117.24345 164.43164 117.48438 C 164.43164 117.7253 164.29927 117.92188 164.13867 117.92188 C 163.97807 117.92188 163.84766 118.17456 163.84766 118.48242 C 163.84766 118.79026 163.74735 119.08507 163.62695 119.13867 C 163.35275 119.26053 162.40605 120.81677 162.18945 121.5 C 162.10025 121.78109 161.90948 122.00977 161.76758 122.00977 C 161.62568 122.00977 161.50977 122.27251 161.50977 122.59375 C 161.50977 122.91498 161.37945 123.17773 161.21875 123.17773 C 161.05815 123.17773 160.92578 123.44049 160.92578 123.76172 C 160.92578 124.08296 160.81112 124.3457 160.66992 124.3457 C 160.52882 124.3457 160.25038 124.74081 160.05078 125.22266 C 159.85108 125.70451 159.57284 126.09961 159.43164 126.09961 C 159.29054 126.09961 159.17383 126.36235 159.17383 126.68359 C 159.17383 127.00482 159.04341 127.26758 158.88281 127.26758 C 158.72221 127.26758 158.58984 127.50133 158.58984 127.78711 C 158.58984 128.07288 158.32706 128.49504 158.00586 128.72656 C 157.68456 128.9581 157.42188 129.3822 157.42188 129.66797 C 157.42187 129.95374 157.29146 130.1875 157.13086 130.1875 C 156.97016 130.1875 156.83789 130.45025 156.83789 130.77148 C 156.83789 131.09272 156.70757 131.35547 156.54688 131.35547 C 156.38628 131.35547 156.25391 131.58922 156.25391 131.875 C 156.25391 132.16077 155.99112 132.58293 155.66992 132.81445 C 155.34872 133.04599 155.08594 133.47008 155.08594 133.75586 C 155.08594 134.04163 154.95357 134.27539 154.79297 134.27539 C 154.63227 134.27539 154.50195 134.53814 154.50195 134.85938 C 154.50195 135.18061 154.36968 135.44336 154.20898 135.44336 C 154.04838 135.44336 153.91797 135.63993 153.91797 135.88086 C 153.91797 136.12178 153.7855 136.32031 153.625 136.32031 C 153.4643 136.32031 153.33398 136.51688 153.33398 136.75781 C 153.33398 136.99874 153.20152 137.19531 153.04102 137.19531 C 152.88042 137.19531 152.75 137.45806 152.75 137.7793 C 152.75 138.10054 152.61753 138.36328 152.45703 138.36328 C 152.29643 138.36328 152.16602 138.62604 152.16602 138.94727 C 152.16602 139.26851 152.03365 139.53125 151.87305 139.53125 C 151.71255 139.53125 151.58203 139.72978 151.58203 139.9707 C 151.58203 140.21162 151.44966 140.4082 151.28906 140.4082 C 151.12846 140.4082 150.99805 140.60477 150.99805 140.8457 C 150.99805 141.08662 150.86578 141.28516 150.70508 141.28516 C 150.54458 141.28516 150.41406 141.54791 150.41406 141.86914 C 150.41406 142.19037 150.28169 142.45312 150.12109 142.45312 C 149.96049 142.45312 149.83008 142.57384 149.83008 142.72266 C 149.83008 142.87149 149.15849 144.08696 148.33789 145.42383 C 147.51719 146.76072 146.51653 148.50324 146.11523 149.29492 C 145.71393 150.0866 145.23167 150.88753 145.04297 151.07617 C 144.85437 151.26483 144.4545 151.96486 144.1543 152.63086 C 143.854 153.29685 143.49568 153.8418 143.35938 153.8418 C 143.22307 153.8418 143.11328 154.10455 143.11328 154.42578 C 143.11328 154.74701 142.99647 155.00977 142.85547 155.00977 C 142.71427 155.00977 142.43593 155.40487 142.23633 155.88672 C 142.03673 156.36858 141.75819 156.76172 141.61719 156.76172 C 141.47599 156.76172 141.36133 157.01441 141.36133 157.32227 C 141.36133 157.63011 141.26092 157.92492 141.14062 157.97852 C 140.86632 158.10037 139.91983 159.65661 139.70312 160.33984 C 139.61392 160.62093 139.42315 160.84961 139.28125 160.84961 C 139.13935 160.84961 139.02344 161.1023 139.02344 161.41016 C 139.02344 161.718 138.92529 162.01281 138.80469 162.06641 C 138.53059 162.18826 137.58193 163.74451 137.36523 164.42773 C 137.27613 164.70882 137.08721 164.93945 136.94531 164.93945 C 136.80341 164.93945 136.6875 165.20221 136.6875 165.52344 C 136.6875 165.84468 136.58187 166.10742 136.45117 166.10742 C 136.32047 166.10742 136.0331 166.56675 135.8125 167.12891 C 135.592 167.69107 135.30463 168.15039 135.17383 168.15039 C 135.04323 168.15039 134.93555 168.34892 134.93555 168.58984 C 134.93555 168.83077 134.80523 169.02734 134.64453 169.02734 C 134.48393 169.02734 134.35156 169.29009 134.35156 169.61133 C 134.35156 169.93256 134.22115 170.19531 134.06055 170.19531 C 133.89985 170.19531 133.76758 170.39188 133.76758 170.63281 C 133.76758 170.87374 133.63521 171.07227 133.47461 171.07227 C 133.31401 171.07227 133.18359 171.32302 133.18359 171.63086 C 133.18359 171.93871 133.08544 172.23546 132.96484 172.28906 C 132.69064 172.41093 131.74209 173.96521 131.52539 174.64844 C 131.43629 174.92952 131.24747 175.16016 131.10547 175.16016 C 130.96357 175.16016 130.84766 175.4229 130.84766 175.74414 C 130.84766 176.06537 130.71519 176.32812 130.55469 176.32812 C 130.39399 176.32812 130.26367 176.56188 130.26367 176.84766 C 130.26367 177.13343 130.00079 177.55754 129.67969 177.78906 C 129.35839 178.0206 129.0957 178.44274 129.0957 178.72852 C 129.0957 179.01429 128.96343 179.24805 128.80273 179.24805 C 128.64233 179.24805 128.51172 179.5108 128.51172 179.83203 C 128.51172 180.15326 128.37935 180.41602 128.21875 180.41602 C 128.05825 180.41602 127.92773 180.64978 127.92773 180.93555 C 127.92773 181.22133 127.66495 181.64542 127.34375 181.87695 C 127.02255 182.10849 126.75977 182.53063 126.75977 182.81641 C 126.75977 183.10218 126.6275 183.33594 126.4668 183.33594 C 126.3062 183.33594 126.17383 183.59868 126.17383 183.91992 C 126.17383 184.24115 126.04341 184.50391 125.88281 184.50391 C 125.72211 184.50391 125.58984 184.73962 125.58984 185.02539 C 125.58984 185.31117 125.32716 185.73331 125.00586 185.96484 C 124.68466 186.19637 124.42188 186.62048 124.42188 186.90625 C 124.42188 187.19203 124.29146 187.42578 124.13086 187.42578 C 123.97026 187.42578 123.83789 187.68854 123.83789 188.00977 C 123.83789 188.331 123.72313 188.59375 123.58203 188.59375 C 123.44083 188.59375 123.16259 188.98691 122.96289 189.46875 C 122.76339 189.95061 122.48475 190.3457 122.34375 190.3457 C 122.20255 190.3457 122.08594 190.46973 122.08594 190.62109 C 122.08594 190.77243 120.96872 192.81975 119.60352 195.17188 C 118.23832 197.524 117.12109 199.56814 117.12109 199.71484 C 117.12109 199.86154 117.02284 199.98333 116.90234 199.98633 C 116.78194 199.98883 116.36175 200.64667 115.96875 201.44727 C 115.57575 202.24786 115.14863 202.90234 115.01953 202.90234 C 114.89043 202.90234 114.78516 203.16508 114.78516 203.48633 C 114.78516 203.80756 114.65484 204.07031 114.49414 204.07031 C 114.33354 204.07031 114.20117 204.33307 114.20117 204.6543 C 114.20117 204.97554 114.08641 205.23828 113.94531 205.23828 C 113.80411 205.23828 113.52567 205.63339 113.32617 206.11523 C 113.12657 206.59708 112.84618 206.99023 112.70508 206.99023 C 112.56388 206.99023 112.44922 207.25494 112.44922 207.57617 C 112.44922 207.89741 112.3188 208.16016 112.1582 208.16016 C 111.9976 208.16016 111.86523 208.33233 111.86523 208.54297 C 111.86523 208.75361 111.60255 209.20793 111.28125 209.55273 C 110.96005 209.89753 110.69727 210.38126 110.69727 210.62891 C 110.69727 210.87655 110.5649 211.08008 110.4043 211.08008 C 110.2437 211.08008 110.11328 211.34283 110.11328 211.66406 C 110.11328 211.98529 109.99862 212.24805 109.85742 212.24805 C 109.71632 212.24805 109.43583 212.6412 109.23633 213.12305 C 109.03673 213.60489 108.75829 214 108.61719 214 C 108.47599 214 108.36133 214.26274 108.36133 214.58398 C 108.36133 214.90521 108.26212 215.16797 108.14062 215.16797 C 108.01923 215.16797 107.74445 215.56307 107.53125 216.04492 C 107.31795 216.52677 106.98714 216.91992 106.79492 216.91992 C 106.4191 216.91992 104.27344 212.81634 104.27344 212.09766 C 104.27344 211.85939 104.14108 211.66406 103.98047 211.66406 C 103.81985 211.66406 103.6875 211.49199 103.6875 211.28125 C 103.6875 211.07048 103.44467 210.38053 103.14648 209.74805 C 102.84831 209.11556 102.4258 207.97388 102.20703 207.21094 C 101.98832 206.44801 101.70563 205.82227 101.58008 205.82227 C 101.45451 205.82227 101.35156 205.42911 101.35156 204.94727 C 101.35156 204.46541 101.22118 204.07031 101.06055 204.07031 C 100.89994 204.07031 100.76758 203.54481 100.76758 202.90234 C 100.76758 202.25987 100.63718 201.73438 100.47656 201.73438 C 100.31595 201.73438 100.18359 201.34123 100.18359 200.85938 C 100.18359 200.37752 100.0532 199.98242 99.892578 199.98242 C 99.731968 199.98242 99.599609 199.32457 99.599609 198.52148 C 99.599609 197.71839 99.469214 197.0625 99.308594 197.0625 C 99.147984 197.0625 99.015625 196.47083 99.015625 195.74805 C 99.015625 195.02527 98.885219 194.43359 98.724609 194.43359 C 98.559879 194.43359 98.431641 193.60593 98.431641 192.53516 C 98.431641 191.46438 98.305355 190.63672 98.140625 190.63672 C 97.966555 190.63672 97.847656 189.5242 97.847656 187.88086 C 97.847656 186.35783 97.717951 185.04306 97.556641 184.94336 C 97.382411 184.8357 97.263672 182.9492 97.263672 180.26953 C 97.263672 177.58988 97.382411 175.70534 97.556641 175.59766 C 97.723791 175.49436 97.847656 173.98857 97.847656 172.07617 C 97.847656 170.04344 97.962945 168.73438 98.140625 168.73438 C 98.307495 168.73438 98.431641 167.85954 98.431641 166.69141 C 98.431641 165.52329 98.557749 164.64648 98.724609 164.64648 C 98.885219 164.64648 99.015625 163.99058 99.015625 163.1875 C 99.015625 162.38441 99.147984 161.72656 99.308594 161.72656 C 99.469214 161.72656 99.599609 161.20105 99.599609 160.55859 C 99.599609 159.91611 99.731968 159.39062 99.892578 159.39062 C 100.0532 159.39062 100.18359 158.87322 100.18359 158.24023 C 100.18359 157.60725 100.31595 157.0075 100.47656 156.9082 C 100.63718 156.80893 100.76758 156.3415 100.76758 155.86914 C 100.76758 155.39676 100.89994 155.00977 101.06055 155.00977 C 101.22118 155.00977 101.35156 154.61466 101.35156 154.13281 C 101.35156 153.65095 101.48392 153.25781 101.64453 153.25781 C 101.80515 153.25781 101.93555 152.86271 101.93555 152.38086 C 101.93555 151.89901 102.03849 151.50586 102.16406 151.50586 C 102.28961 151.50586 102.57325 150.88207 102.79492 150.11914 C 103.17689 148.80465 107.71505 139.29621 108.31055 138.5625 C 108.46465 138.37278 108.86678 137.72538 109.20508 137.12305 C 110.79408 134.29451 111.04594 133.88368 111.43164 133.49805 C 111.65844 133.27119 112.07427 132.6967 112.35547 132.2207 C 112.63667 131.74469 112.9697 131.35547 113.0957 131.35547 C 113.2217 131.35547 113.32587 131.191 113.32617 130.99023 C 113.32657 130.78946 113.72007 130.16568 114.20117 129.60352 C 114.68227 129.04136 115.07587 128.47942 115.07617 128.35547 C 115.07657 128.23151 115.80019 127.40683 116.68359 126.52344 C 117.56699 125.64005 118.28906 124.79002 118.28906 124.63477 C 118.28906 124.2744 124.33952 118.21289 124.69922 118.21289 C 124.84712 118.21289 125.6423 117.55699 126.4668 116.75391 C 127.2914 115.95083 128.07403 115.29297 128.20703 115.29297 C 128.33993 115.29297 128.87398 114.89655 129.39258 114.41211 C 129.91118 113.92766 130.71358 113.30812 131.17578 113.03516 C 131.63778 112.76221 132.01562 112.43653 132.01562 112.31055 C 132.01563 112.18456 132.15166 112.08203 132.31836 112.08203 C 132.48526 112.08203 133.77193 111.30855 135.17773 110.36328 C 137.85293 108.5644 147.40597 103.61133 148.20117 103.61133 C 148.45427 103.61133 148.66016 103.51031 148.66016 103.38477 C 148.66016 103.25921 149.28593 102.97393 150.04883 102.75195 C 150.81183 102.52998 151.50203 102.27078 151.58203 102.17578 C 151.82633 101.88672 153.77202 101.27539 154.44922 101.27539 C 154.79902 101.27539 155.08594 101.14499 155.08594 100.98438 C 155.08594 100.82376 155.53724 100.69141 156.08984 100.69141 C 156.64254 100.69141 157.17639 100.56101 157.27539 100.40039 C 157.37469 100.23977 157.84215 100.10742 158.31445 100.10742 C 158.78685 100.10742 159.17383 99.977026 159.17383 99.816406 C 159.17383 99.655786 159.76538 99.523438 160.48828 99.523438 C 161.21098 99.523438 161.80273 99.393042 161.80273 99.232422 C 161.80273 99.071802 162.5249 98.939453 163.4082 98.939453 C 164.2917 98.939453 165.01562 98.809057 165.01562 98.648438 C 165.01562 98.487818 165.73769 98.355469 166.62109 98.355469 C 167.50449 98.355469 168.22656 98.225073 168.22656 98.064453 C 168.22656 97.885993 169.59092 97.771484 171.73242 97.771484 C 173.87392 97.771484 175.23633 97.658929 175.23633 97.480469 C 175.23633 97.319839 175.42058 97.1875 175.64648 97.1875 z M 182.80469 97.1875 C 182.97505 97.195508 183.14848 97.287768 183.26758 97.480469 C 183.37168 97.648759 184.92389 97.771484 186.93359 97.771484 C 189.06369 97.771484 190.42188 97.886063 190.42188 98.064453 C 190.42188 98.225073 191.14404 98.355469 192.02734 98.355469 C 192.91084 98.355469 193.63477 98.487818 193.63477 98.648438 C 193.63477 98.809057 194.35683 98.939453 195.24023 98.939453 C 196.12363 98.939453 196.8457 99.071802 196.8457 99.232422 C 196.8457 99.393042 197.43736 99.523438 198.16016 99.523438 C 198.88296 99.523438 199.47461 99.655786 199.47461 99.816406 C 199.47461 99.977026 199.86168 100.10742 200.33398 100.10742 C 200.80628 100.10742 201.27405 100.23977 201.37305 100.40039 C 201.47235 100.56101 202.00589 100.69141 202.55859 100.69141 C 203.11119 100.69141 203.5625 100.82376 203.5625 100.98438 C 203.5625 101.14499 203.84922 101.27539 204.19922 101.27539 C 204.87632 101.27539 206.82221 101.88672 207.06641 102.17578 C 207.14681 102.27081 207.83651 102.52998 208.59961 102.75195 C 209.36251 102.97393 209.98828 103.25921 209.98828 103.38477 C 209.98828 103.51031 210.2035 103.61133 210.4668 103.61133 C 211.1502 103.61133 220.5333 108.37986 222.5625 109.75781 C 223.4984 110.39337 224.40287 110.91211 224.57227 110.91211 C 224.74177 110.91211 224.88086 111.04446 224.88086 111.20508 C 224.88086 111.36569 225.05307 111.49805 225.26367 111.49805 C 225.47447 111.49805 225.90149 111.73017 226.21289 112.01562 C 226.52429 112.30108 227.23868 112.85458 227.80078 113.24414 C 228.36298 113.63369 229.03707 114.18786 229.29688 114.47656 C 229.55667 114.76526 229.89623 115.00195 230.05273 115.00195 C 230.20913 115.00195 230.96352 115.59363 231.72852 116.31641 C 232.49382 117.03919 233.23485 117.62891 233.37695 117.62891 C 233.72955 117.62891 240.35938 124.28103 240.35938 124.63477 C 240.35938 124.79019 241.08134 125.64005 241.96484 126.52344 C 242.84824 127.40683 243.57197 128.23151 243.57227 128.35547 C 243.57257 128.47942 243.96627 129.04136 244.44727 129.60352 C 244.92837 130.16568 245.32227 130.72122 245.32227 130.83984 C 245.32297 131.0477 245.95114 131.88111 246.71094 132.68164 C 246.91184 132.89317 247.07617 133.20682 247.07617 133.37891 C 247.07617 133.55099 247.1817 133.69141 247.3125 133.69141 C 247.4433 133.69141 247.81567 134.1848 248.13867 134.78711 C 249.00047 136.39416 249.53793 137.32307 249.70312 137.48828 C 250.33613 138.12125 255.37262 148.4643 255.85352 150.11914 C 256.07522 150.88207 256.35877 151.50586 256.48438 151.50586 C 256.60997 151.50586 256.71289 151.89901 256.71289 152.38086 C 256.71289 152.86271 256.84321 153.25781 257.00391 153.25781 C 257.16451 153.25781 257.29688 153.65095 257.29688 154.13281 C 257.29687 154.61466 257.42729 155.00977 257.58789 155.00977 C 257.74859 155.00977 257.88086 155.40487 257.88086 155.88672 C 257.88086 156.36858 258.01128 156.76172 258.17188 156.76172 C 258.33247 156.76172 258.46484 157.3615 258.46484 158.09375 C 258.46484 158.90697 258.57746 159.35437 258.75586 159.24414 C 258.93426 159.1339 259.04883 159.58131 259.04883 160.39453 C 259.04883 161.1268 259.1811 161.72656 259.3418 161.72656 C 259.5023 161.72656 259.63281 162.38441 259.63281 163.1875 C 259.63281 163.99058 259.76518 164.64648 259.92578 164.64648 C 260.09268 164.64648 260.2168 165.52329 260.2168 166.69141 C 260.2168 167.85954 260.34297 168.73438 260.50977 168.73438 C 260.68817 168.73438 260.80078 170.09867 260.80078 172.24023 C 260.80078 174.38179 260.91535 175.74414 261.09375 175.74414 C 261.27635 175.74414 261.38477 177.49571 261.38477 180.41602 C 261.38477 183.33634 261.27635 185.08984 261.09375 185.08984 C 260.91965 185.08984 260.80078 186.20844 260.80078 187.86328 C 260.80078 189.51812 260.68397 190.63672 260.50977 190.63672 C 260.34507 190.63672 260.2168 191.46438 260.2168 192.53516 C 260.2168 193.60593 260.09058 194.43359 259.92578 194.43359 C 259.76518 194.43359 259.63281 195.02527 259.63281 195.74805 C 259.63281 196.47083 259.5023 197.0625 259.3418 197.0625 C 259.1811 197.0625 259.04883 197.71839 259.04883 198.52148 C 259.04883 199.32457 258.91646 199.98242 258.75586 199.98242 C 258.59526 199.98242 258.46484 200.37752 258.46484 200.85938 C 258.46484 201.34123 258.33247 201.73438 258.17188 201.73438 C 258.01128 201.73438 257.88086 202.25987 257.88086 202.90234 C 257.88086 203.54481 257.74859 204.07031 257.58789 204.07031 C 257.42729 204.07031 257.29688 204.46541 257.29688 204.94727 C 257.29687 205.42911 257.19602 205.82227 257.07422 205.82227 C 256.95232 205.82227 256.52761 206.87522 256.12891 208.16016 C 255.73031 209.44508 255.30364 210.49609 255.18164 210.49609 C 255.06004 210.49609 254.96094 210.75885 254.96094 211.08008 C 254.96094 211.40131 254.82857 211.66406 254.66797 211.66406 C 254.50737 211.66406 254.37133 211.89276 254.36133 212.17383 C 254.34093 212.88131 251.4897 218.35546 251.4707 217.72266 C 251.4625 217.44158 251.32466 217.21289 251.16406 217.21289 C 251.00346 217.21289 250.87109 217.01437 250.87109 216.77344 C 250.87109 216.53252 250.74068 216.33594 250.58008 216.33594 C 250.41938 216.33594 250.28711 216.07318 250.28711 215.75195 C 250.28711 215.43072 250.15679 215.16797 249.99609 215.16797 C 249.83549 215.16797 249.70312 214.90521 249.70312 214.58398 C 249.70312 214.26274 249.57271 214 249.41211 214 C 249.25141 214 249.11914 213.82783 249.11914 213.61719 C 249.11914 213.40655 248.85646 212.95222 248.53516 212.60742 C 248.21396 212.26259 247.95117 211.77695 247.95117 211.5293 C 247.95117 211.28167 247.82076 211.08008 247.66016 211.08008 C 247.49956 211.08008 247.36719 210.81733 247.36719 210.49609 C 247.36719 210.17486 247.25243 209.91211 247.11133 209.91211 C 246.97013 209.91211 246.69179 209.51701 246.49219 209.03516 C 246.29259 208.55331 246.01219 208.16016 245.87109 208.16016 C 245.72999 208.16016 245.61523 207.89741 245.61523 207.57617 C 245.61523 207.25494 245.48492 206.99023 245.32422 206.99023 C 245.16362 206.99023 245.03125 206.72748 245.03125 206.40625 C 245.03125 206.08502 244.91659 205.82227 244.77539 205.82227 C 244.63429 205.82227 244.3538 205.42911 244.1543 204.94727 C 243.9547 204.46541 243.67626 204.07031 243.53516 204.07031 C 243.39396 204.07031 243.2793 203.80756 243.2793 203.48633 C 243.2793 203.16508 243.18105 202.90121 243.06055 202.90039 C 242.94015 202.89914 242.70441 202.60428 242.53711 202.24414 C 242.02901 201.15033 240.80829 198.96974 240.61719 198.81445 C 240.51829 198.73414 240.16368 198.12899 239.83008 197.4707 C 239.49618 196.81241 238.49406 195.07638 237.60156 193.61133 C 236.70906 192.14626 235.97852 190.82198 235.97852 190.66992 C 235.97852 190.51785 235.88017 190.35047 235.75977 190.29688 C 235.48557 190.17503 234.53691 188.61878 234.32031 187.93555 C 234.23111 187.65447 234.04229 187.42578 233.90039 187.42578 C 233.75849 187.42578 233.64258 187.16303 233.64258 186.8418 C 233.64258 186.52057 233.51011 186.25781 233.34961 186.25781 C 233.18891 186.25781 233.05859 186.05928 233.05859 185.81836 C 233.05859 185.57743 232.92613 185.38086 232.76562 185.38086 C 232.60502 185.38086 232.47461 185.18429 232.47461 184.94336 C 232.47461 184.70244 232.34224 184.50391 232.18164 184.50391 C 232.02104 184.50391 231.89062 184.24115 231.89062 183.91992 C 231.89062 183.59868 231.75826 183.33594 231.59766 183.33594 C 231.43706 183.33594 231.30664 183.07319 231.30664 182.75195 C 231.30664 182.43072 231.17427 182.16797 231.01367 182.16797 C 230.85297 182.16797 230.72266 181.9958 230.72266 181.78516 C 230.72266 181.57452 230.45987 181.12019 230.13867 180.77539 C 229.81737 180.43058 229.55273 179.94686 229.55273 179.69922 C 229.55273 179.45159 229.42242 179.24805 229.26172 179.24805 C 229.10112 179.24805 228.96875 179.04646 228.96875 178.79883 C 228.96875 178.55118 228.70607 178.0655 228.38477 177.7207 C 228.06357 177.3759 227.80078 176.92158 227.80078 176.71094 C 227.80078 176.5003 227.67027 176.32812 227.50977 176.32812 C 227.34907 176.32812 227.2168 176.06537 227.2168 175.74414 C 227.2168 175.4229 227.08638 175.16016 226.92578 175.16016 C 226.76518 175.16016 226.63281 174.8974 226.63281 174.57617 C 226.63281 174.25494 226.5024 173.99219 226.3418 173.99219 C 226.1812 173.99219 226.04883 173.79366 226.04883 173.55273 C 226.04883 173.31181 225.9431 173.11523 225.8125 173.11523 C 225.6819 173.11523 225.39433 172.65591 225.17383 172.09375 C 224.95323 171.53159 224.69054 171.07227 224.58984 171.07227 C 224.48924 171.07227 224.22636 170.61099 224.00586 170.04883 C 223.78526 169.48667 223.52247 169.02734 223.42188 169.02734 C 223.32118 169.02734 223.05839 168.56803 222.83789 168.00586 C 222.61719 167.4437 222.36053 166.98242 222.26953 166.98242 C 222.17803 166.98242 221.91851 166.55521 221.69141 166.0332 C 221.46421 165.5112 221.19852 165.01975 221.10352 164.93945 C 221.00822 164.85914 220.61692 164.16917 220.23242 163.40625 C 219.84792 162.64331 219.42241 162.01758 219.28711 162.01758 C 219.15161 162.01758 219.04102 161.75482 219.04102 161.43359 C 219.04102 161.11236 218.94267 160.8487 218.82227 160.8457 C 218.70177 160.84321 218.28177 160.18535 217.88867 159.38477 C 217.49577 158.58418 217.06835 157.92969 216.93945 157.92969 C 216.81035 157.92969 216.70508 157.66693 216.70508 157.3457 C 216.70508 157.02446 216.59599 156.76172 216.46289 156.76172 C 216.32959 156.76172 215.91331 156.10388 215.53711 155.30078 C 215.16101 154.4977 214.74257 153.8418 214.60938 153.8418 C 214.47627 153.8418 214.36719 153.57904 214.36719 153.25781 C 214.36719 152.93658 214.2581 152.67383 214.125 152.67383 C 213.9918 152.67383 213.57532 152.01599 213.19922 151.21289 C 212.82302 150.40981 212.44066 149.75226 212.34766 149.75195 C 212.25466 149.75158 211.7883 148.99739 211.3125 148.07422 C 210.8368 147.15106 210.36753 146.32835 210.26953 146.24805 C 210.17143 146.16775 210.00539 145.90499 209.90039 145.66406 C 209.79519 145.42313 209.3052 144.56871 208.8125 143.76562 C 208.32 142.96255 207.842 142.07601 207.75 141.79492 C 207.6581 141.51385 207.46807 141.28516 207.32617 141.28516 C 207.18427 141.28516 207.06641 141.0224 207.06641 140.70117 C 207.06641 140.37994 206.93589 140.11523 206.77539 140.11523 C 206.61469 140.11523 206.48242 139.91867 206.48242 139.67773 C 206.48242 139.43681 206.35201 139.24023 206.19141 139.24023 C 206.03081 139.24023 205.89844 139.04365 205.89844 138.80273 C 205.89844 138.5618 205.76802 138.36328 205.60742 138.36328 C 205.44682 138.36328 205.31445 138.10054 205.31445 137.7793 C 205.31445 137.45806 205.18414 137.19531 205.02344 137.19531 C 204.86284 137.19531 204.73047 136.93256 204.73047 136.61133 C 204.73047 136.2901 204.60005 136.02734 204.43945 136.02734 C 204.27875 136.02734 204.14648 135.83078 204.14648 135.58984 C 204.14648 135.34892 204.01617 135.15234 203.85547 135.15234 C 203.69487 135.15234 203.5625 134.95382 203.5625 134.71289 C 203.5625 134.47196 203.43208 134.27539 203.27148 134.27539 C 203.11078 134.27539 202.97852 134.01264 202.97852 133.69141 C 202.97852 133.37017 202.8482 133.10742 202.6875 133.10742 C 202.5269 133.10742 202.39453 132.84467 202.39453 132.52344 C 202.39453 132.20221 202.26412 131.93945 202.10352 131.93945 C 201.94282 131.93945 201.81055 131.74287 201.81055 131.50195 C 201.81055 131.26102 201.68013 131.0625 201.51953 131.0625 C 201.35893 131.0625 201.22656 130.86593 201.22656 130.625 C 201.22656 130.38408 201.09605 130.1875 200.93555 130.1875 C 200.77485 130.1875 200.64258 129.92475 200.64258 129.60352 C 200.64258 129.28228 200.51216 129.01953 200.35156 129.01953 C 200.19096 129.01953 200.05859 128.75678 200.05859 128.43555 C 200.05859 128.11432 199.94383 127.85156 199.80273 127.85156 C 199.66153 127.85156 199.38124 127.45646 199.18164 126.97461 C 198.98204 126.49275 198.7036 126.09961 198.5625 126.09961 C 198.4214 126.09961 198.30664 125.8349 198.30664 125.51367 C 198.30664 125.19244 198.17427 124.92969 198.01367 124.92969 C 197.85307 124.92969 197.72266 124.72811 197.72266 124.48047 C 197.72266 124.23283 197.45977 123.74715 197.13867 123.40234 C 196.81737 123.05754 196.55469 122.60321 196.55469 122.39258 C 196.55469 122.18195 196.42232 122.00977 196.26172 122.00977 C 196.10112 122.00977 195.9707 121.74701 195.9707 121.42578 C 195.9707 121.10455 195.87245 120.84066 195.75195 120.83984 C 195.63155 120.83858 195.38784 120.54373 195.21094 120.18359 C 194.60444 118.94823 193.4882 116.89989 193.3418 116.75391 C 193.2613 116.67361 192.99821 116.21427 192.75781 115.73242 C 192.51741 115.25056 192.25383 114.78928 192.17383 114.70898 C 192.09333 114.62868 191.88714 114.29976 191.71484 113.97852 C 190.36424 111.46164 189.96509 110.74822 189.83789 110.62109 C 189.75759 110.54078 189.37192 109.88294 188.98242 109.16016 C 188.59272 108.43739 188.19561 107.78147 188.09961 107.70117 C 188.00341 107.62087 187.47859 106.70026 186.93359 105.65625 C 186.38869 104.61224 185.8563 103.69163 185.75 103.61133 C 185.6436 103.53102 185.17408 102.74277 184.70508 101.85938 C 184.23588 100.97598 183.69626 100.08845 183.50586 99.886719 C 183.31556 99.684999 183.07621 99.25778 182.97461 98.9375 C 182.87291 98.61722 182.66728 98.355469 182.51758 98.355469 C 182.36778 98.355469 182.24414 98.092714 182.24414 97.771484 C 182.24414 97.393609 182.52075 97.174154 182.80469 97.1875 z M 179.0332 122.69922 C 179.15487 122.69922 179.276 122.79555 179.4707 122.99023 C 179.7117 123.23116 179.9082 123.60533 179.9082 123.82227 C 179.9082 124.03922 180.17109 124.40714 180.49219 124.63867 C 180.81349 124.8702 181.07617 125.29235 181.07617 125.57812 C 181.07617 125.8639 181.20844 126.09961 181.36914 126.09961 C 181.52974 126.09961 181.66016 126.36235 181.66016 126.68359 C 181.66016 127.00482 181.79253 127.26758 181.95312 127.26758 C 182.11383 127.26758 182.24414 127.53033 182.24414 127.85156 C 182.24414 128.17279 182.37641 128.43555 182.53711 128.43555 C 182.69771 128.43555 182.82812 128.63213 182.82812 128.87305 C 182.82812 129.11398 182.96049 129.31055 183.12109 129.31055 C 183.28179 129.31055 183.41211 129.50907 183.41211 129.75 C 183.41211 129.99092 183.54438 130.1875 183.70508 130.1875 C 183.86568 130.1875 183.99609 130.45025 183.99609 130.77148 C 183.99609 131.09272 184.10368 131.35547 184.23438 131.35547 C 184.36497 131.35547 184.65245 131.81478 184.87305 132.37695 C 185.09355 132.93911 185.35633 133.40039 185.45703 133.40039 C 185.55773 133.40039 185.82042 133.85971 186.04102 134.42188 C 186.26152 134.98404 186.5243 135.44336 186.625 135.44336 C 186.7257 135.44336 186.98838 135.90268 187.20898 136.46484 C 187.42948 137.027 187.69227 137.48828 187.79297 137.48828 C 187.89367 137.48828 188.15635 137.9476 188.37695 138.50977 C 188.59745 139.07193 188.88483 139.53125 189.01562 139.53125 C 189.14623 139.53125 189.25391 139.72978 189.25391 139.9707 C 189.25391 140.21162 189.38422 140.4082 189.54492 140.4082 C 189.70552 140.4082 189.83789 140.67095 189.83789 140.99219 C 189.83789 141.31342 189.93604 141.57708 190.05664 141.58008 C 190.17704 141.58258 190.59723 142.24043 190.99023 143.04102 C 191.38323 143.84161 191.81035 144.49609 191.93945 144.49609 C 192.06855 144.49609 192.17383 144.75885 192.17383 145.08008 C 192.17383 145.40131 192.27208 145.66692 192.39258 145.66992 C 192.51298 145.67242 192.93307 146.32832 193.32617 147.12891 C 193.71907 147.9295 194.14639 148.58594 194.27539 148.58594 C 194.40439 148.58594 194.50977 148.84868 194.50977 149.16992 C 194.50977 149.49116 194.61885 149.75391 194.75195 149.75391 C 194.88515 149.75391 195.30163 150.40981 195.67773 151.21289 C 196.05393 152.01599 196.43825 152.67496 196.53125 152.67578 C 196.62435 152.67704 196.83661 152.97189 197.00391 153.33203 C 197.48331 154.3642 198.72811 156.60077 198.91211 156.76172 C 199.00401 156.84202 199.62933 157.89304 200.30273 159.09766 C 200.97603 160.30229 201.92541 161.94496 202.41211 162.74805 C 202.89881 163.55114 203.37089 164.43962 203.46289 164.7207 C 203.55489 165.00179 203.74677 165.23047 203.88867 165.23047 C 204.03047 165.23047 204.14648 165.49322 204.14648 165.81445 C 204.14648 166.13568 204.27875 166.39844 204.43945 166.39844 C 204.60005 166.39844 204.73047 166.59697 204.73047 166.83789 C 204.73047 167.07882 204.86284 167.27539 205.02344 167.27539 C 205.18414 167.27539 205.31445 167.47197 205.31445 167.71289 C 205.31445 167.95381 205.44682 168.15039 205.60742 168.15039 C 205.76802 168.15039 205.89844 168.41314 205.89844 168.73438 C 205.89844 169.05561 206.03081 169.31836 206.19141 169.31836 C 206.35201 169.31836 206.48242 169.55211 206.48242 169.83789 C 206.48242 170.12366 206.74521 170.54777 207.06641 170.7793 C 207.38771 171.01083 207.65039 171.43492 207.65039 171.7207 C 207.65039 172.00647 207.78266 172.24023 207.94336 172.24023 C 208.10396 172.24023 208.23633 172.50299 208.23633 172.82422 C 208.23633 173.14545 208.36674 173.4082 208.52734 173.4082 C 208.68804 173.4082 208.82031 173.64196 208.82031 173.92773 C 208.82031 174.21351 209.083 174.63565 209.4043 174.86719 C 209.7255 175.09871 209.98828 175.52282 209.98828 175.80859 C 209.98828 176.09437 210.1186 176.32812 210.2793 176.32812 C 210.4399 176.32812 210.57227 176.59087 210.57227 176.91211 C 210.57227 177.23334 210.70268 177.49609 210.86328 177.49609 C 211.02398 177.49609 211.15625 177.72986 211.15625 178.01562 C 211.15625 178.30141 211.41893 178.7255 211.74023 178.95703 C 212.06153 179.18856 212.32422 179.61071 212.32422 179.89648 C 212.32422 180.18226 212.45453 180.41602 212.61523 180.41602 C 212.77573 180.41602 212.9082 180.66871 212.9082 180.97656 C 212.9082 181.28441 213.00645 181.57921 213.12695 181.63281 C 213.40115 181.75466 214.34971 183.31091 214.56641 183.99414 C 214.65551 184.27522 214.84453 184.50391 214.98633 184.50391 C 215.12823 184.50391 215.24414 184.76861 215.24414 185.08984 C 215.24414 185.41109 215.37651 185.67383 215.53711 185.67383 C 215.69771 185.67383 215.82812 185.85839 215.82812 186.08594 C 215.82812 186.31348 215.92628 186.54406 216.04688 186.59766 C 216.24368 186.68517 217.12548 188.22093 217.98828 189.97852 C 218.16518 190.33866 218.409 190.63394 218.5293 190.63477 C 218.6493 190.63602 218.74805 190.88942 218.74805 191.19727 C 218.74805 191.50511 218.8464 191.79992 218.9668 191.85352 C 219.241 191.97537 220.18955 193.53161 220.40625 194.21484 C 220.49545 194.49592 220.68437 194.72656 220.82617 194.72656 C 220.96807 194.72656 221.08398 194.98931 221.08398 195.31055 C 221.08398 195.63178 221.18399 195.89453 221.30469 195.89453 C 221.42529 195.89453 221.84869 196.51833 222.24609 197.28125 C 222.64349 198.04418 223.04091 198.73415 223.12891 198.81445 C 223.21691 198.89475 223.7345 199.81537 224.2793 200.85938 C 224.8243 201.90338 225.36376 202.82204 225.47656 202.90234 C 225.58936 202.98265 226.02963 203.70669 226.45703 204.50977 C 226.88443 205.31285 227.62145 206.59254 228.09375 207.35547 L 228.95312 208.74414 L 179.0332 208.74414 L 129.11523 208.74414 L 129.74805 207.64844 C 130.09685 207.04614 130.45592 206.48655 130.54492 206.40625 C 130.63362 206.32594 131.08864 205.5377 131.55664 204.6543 C 132.02474 203.77091 132.49526 202.98264 132.60156 202.90234 C 132.70796 202.82203 133.24026 201.90338 133.78516 200.85938 C 134.33006 199.81536 134.85517 198.89475 134.95117 198.81445 C 135.04727 198.73414 135.44438 198.0763 135.83398 197.35352 C 136.22348 196.63074 136.64142 195.99696 136.76172 195.94336 C 136.88182 195.88983 136.98047 195.593 136.98047 195.28516 C 136.98047 194.9773 137.07852 194.72656 137.19922 194.72656 C 137.32002 194.72656 137.74332 194.10083 138.14062 193.33789 C 138.53792 192.57496 138.93358 191.88499 139.01758 191.80469 C 139.20518 191.62589 139.80172 190.58389 140.60742 189.03125 C 140.94062 188.38879 141.28981 187.7971 141.38281 187.7168 C 141.47591 187.63648 141.7397 187.14309 141.9668 186.62109 C 142.194 186.09908 142.45392 185.67383 142.54492 185.67383 C 142.63622 185.67383 142.89268 185.21255 143.11328 184.65039 C 143.33378 184.08823 143.62125 183.62891 143.75195 183.62891 C 143.88265 183.62891 143.98828 183.43233 143.98828 183.19141 C 143.98828 182.95048 144.12055 182.75195 144.28125 182.75195 C 144.44185 182.75195 144.57227 182.4892 144.57227 182.16797 C 144.57227 181.84674 144.70463 181.58398 144.86523 181.58398 C 145.02593 181.58398 145.15625 181.38241 145.15625 181.13477 C 145.15625 180.88713 145.41893 180.40144 145.74023 180.05664 C 146.06143 179.71183 146.32422 179.25752 146.32422 179.04688 C 146.32422 178.83623 146.45659 178.66406 146.61719 178.66406 C 146.77779 178.66406 146.9082 178.40132 146.9082 178.08008 C 146.9082 177.75885 147.04057 177.49609 147.20117 177.49609 C 147.36177 177.49609 147.49219 177.26233 147.49219 176.97656 C 147.49219 176.69079 147.75507 176.26669 148.07617 176.03516 C 148.39747 175.80363 148.66016 175.38147 148.66016 175.0957 C 148.66016 174.80992 148.79243 174.57617 148.95312 174.57617 C 149.11373 174.57617 149.24609 174.31342 149.24609 173.99219 C 149.24609 173.67095 149.37651 173.4082 149.53711 173.4082 C 149.69781 173.4082 149.83008 173.17445 149.83008 172.88867 C 149.83008 172.6029 150.09286 172.17879 150.41406 171.94727 C 150.73526 171.71573 150.99805 171.29358 150.99805 171.00781 C 150.99805 170.72204 151.12846 170.48828 151.28906 170.48828 C 151.44966 170.48828 151.58203 170.22358 151.58203 169.90234 C 151.58203 169.58111 151.71255 169.31836 151.87305 169.31836 C 152.03365 169.31836 152.16602 169.08461 152.16602 168.79883 C 152.16602 168.51306 152.4287 168.09089 152.75 167.85938 C 153.0711 167.62784 153.33398 167.20375 153.33398 166.91797 C 153.33398 166.6322 153.4643 166.39844 153.625 166.39844 C 153.7855 166.39844 153.91797 166.13568 153.91797 165.81445 C 153.91797 165.49322 154.04838 165.23047 154.20898 165.23047 C 154.36968 165.23047 154.50195 165.0339 154.50195 164.79297 C 154.50195 164.55205 154.63227 164.35547 154.79297 164.35547 C 154.95357 164.35547 155.08594 164.15695 155.08594 163.91602 C 155.08594 163.67509 155.21635 163.47852 155.37695 163.47852 C 155.53765 163.47852 155.66992 163.21577 155.66992 162.89453 C 155.66992 162.57329 155.76827 162.30942 155.88867 162.30859 C 156.00927 162.30734 156.25148 162.01051 156.42578 161.65039 C 156.60008 161.29025 157.617 159.50957 158.6875 157.69336 C 159.758 155.87715 160.63477 154.26856 160.63477 154.11719 C 160.63477 153.96585 160.74375 153.8418 160.87695 153.8418 C 161.01005 153.8418 161.42663 153.18395 161.80273 152.38086 C 162.17883 151.57778 162.59532 150.92188 162.72852 150.92188 C 162.86162 150.92188 162.9707 150.65913 162.9707 150.33789 C 162.9707 150.01666 163.07618 149.75391 163.20508 149.75391 C 163.33418 149.75391 163.7613 149.09746 164.1543 148.29688 C 164.5472 147.49629 164.96729 146.84089 165.08789 146.83789 C 165.20789 146.83539 165.30664 146.56928 165.30664 146.24805 C 165.30664 145.92682 165.42325 145.66406 165.56445 145.66406 C 165.70555 145.66406 165.98409 145.2709 166.18359 144.78906 C 166.38319 144.3072 166.66153 143.91211 166.80273 143.91211 C 166.94383 143.91211 167.05859 143.64936 167.05859 143.32812 C 167.05859 143.00689 167.19096 142.74414 167.35156 142.74414 C 167.51216 142.74414 167.64258 142.54255 167.64258 142.29492 C 167.64258 142.04727 167.90536 141.56161 168.22656 141.2168 C 168.54786 140.872 168.81055 140.41767 168.81055 140.20703 C 168.81055 139.9964 168.94292 139.82422 169.10352 139.82422 C 169.26422 139.82422 169.39453 139.56146 169.39453 139.24023 C 169.39453 138.919 169.50221 138.65625 169.63281 138.65625 C 169.76351 138.65625 170.05098 138.19693 170.27148 137.63477 C 170.49218 137.07262 170.75487 136.61133 170.85547 136.61133 C 170.95617 136.61133 171.21895 136.15201 171.43945 135.58984 C 171.66015 135.02769 171.94753 134.56836 172.07812 134.56836 C 172.20872 134.56836 172.31641 134.36983 172.31641 134.12891 C 172.31641 133.88798 172.44702 133.69141 172.60742 133.69141 C 172.76812 133.69141 172.90039 133.42866 172.90039 133.10742 C 172.90039 132.78619 173.00622 132.52344 173.13672 132.52344 C 173.26742 132.52344 173.55489 132.0641 173.77539 131.50195 C 173.99609 130.93979 174.28346 130.47852 174.41406 130.47852 C 174.54466 130.47852 174.65234 130.28195 174.65234 130.04102 C 174.65234 129.80009 174.78276 129.60352 174.94336 129.60352 C 175.10396 129.60352 175.23633 129.34076 175.23633 129.01953 C 175.23633 128.69829 175.36664 128.43555 175.52734 128.43555 C 175.68784 128.43555 175.82031 128.17279 175.82031 127.85156 C 175.82031 127.53033 175.95073 127.26758 176.11133 127.26758 C 176.27193 127.26758 176.4043 127.09541 176.4043 126.88477 C 176.4043 126.67413 176.66708 126.21785 176.98828 125.87305 C 177.30938 125.52824 177.57227 125.04451 177.57227 124.79688 C 177.57227 124.54923 177.70453 124.3457 177.86523 124.3457 C 178.02583 124.3457 178.15625 124.13912 178.15625 123.88672 C 178.15625 123.63432 178.35275 123.23116 178.59375 122.99023 C 178.7884 122.79555 178.91154 122.69922 179.0332 122.69922 z M 178.66016 135.44141 C 177.48557 135.38849 176.34661 135.77954 174.41211 136.70508 C 172.09261 137.81486 170.66652 139.85069 170.01172 142.98633 C 169.58082 145.0499 169.56183 178.42983 169.99023 180.87305 C 170.33033 182.81235 171.15109 184.64482 172.15039 185.69922 C 173.31539 186.92833 174.35128 187.7168 174.80078 187.7168 C 175.04048 187.7168 175.23633 187.83979 175.23633 187.99023 C 175.23633 188.14067 175.66355 188.32569 176.18555 188.40039 C 177.65305 188.61057 181.50233 188.33222 181.61133 188.00781 C 181.66493 187.84842 181.89479 187.7168 182.12109 187.7168 C 182.85979 187.7168 185.20608 185.48767 185.95508 184.07422 C 187.11398 181.88724 187.18822 180.60213 187.19922 162.25195 C 187.20592 150.87117 187.09754 143.97206 186.89844 142.97852 C 186.16934 139.33945 184.39449 137.23965 180.99219 135.99609 C 180.08251 135.6636 179.36491 135.47315 178.66016 135.44141 z M 178.44922 190.3457 C 176.50232 190.3457 175.23633 190.45974 175.23633 190.63672 C 175.23633 190.79734 174.97344 190.92969 174.65234 190.92969 C 174.33114 190.92969 174.06836 191.03221 174.06836 191.1582 C 174.06836 191.28418 173.6868 191.61334 173.2207 191.88867 C 172.7546 192.16399 171.87282 193.14173 171.26172 194.0625 C 170.22692 195.62176 170.15067 195.88847 170.13867 197.93359 C 170.12437 200.43034 170.32541 201.36651 171.06641 202.23828 C 171.35171 202.57414 171.77943 203.12277 172.01562 203.45898 C 172.25202 203.7952 172.61286 204.07031 172.81836 204.07031 C 173.02386 204.07031 173.19141 204.20267 173.19141 204.36328 C 173.19141 204.5239 173.32869 204.6543 173.49609 204.6543 C 173.66339 204.6543 174.08293 204.91704 174.42773 205.23828 C 174.85383 205.63509 175.457 205.82227 176.3125 205.82227 C 177.0399 205.82227 177.57227 205.95929 177.57227 206.14648 C 177.57227 206.35979 177.94687 206.4058 178.66797 206.28125 C 179.27027 206.1772 180.28819 206.01472 180.92969 205.91992 C 181.57119 205.82515 182.30756 205.50179 182.56836 205.20117 C 182.82906 204.90053 183.22517 204.65148 183.44727 204.64648 C 183.66937 204.64168 184.14802 204.28065 184.51172 203.84375 C 184.87522 203.40686 185.43441 202.73237 185.75391 202.3457 C 186.60211 201.3197 187.00269 199.50446 186.83789 197.42969 C 186.72069 195.95326 186.47895 195.27491 185.56445 193.85547 C 184.94355 192.89174 184.2955 192.10161 184.125 192.09961 C 183.9545 192.0982 183.5322 191.8349 183.1875 191.51367 C 182.8426 191.19243 182.35903 190.92969 182.11133 190.92969 C 181.86373 190.92969 181.66016 190.79734 181.66016 190.63672 C 181.66016 190.45974 180.39602 190.3457 178.44922 190.3457 z "
       transform="translate(0,343.70079)"
       id="path4192" />
    <path
       style="fill:#000000;fill-rule:evenodd;stroke:#000000;stroke-width:0.67464191;stroke-linecap:butt;stroke-linejoin:miter;stroke-miterlimit:4;stroke-dasharray:none;stroke-opacity:1"
       d="m 179.17188,413.74414 c -0.40006,10e-6 -0.80048,0.0114 -1.20118,0.0312 -3.23744,0.16028 -6.8679,0.87814 -9.78515,2.29102 -3.16364,1.53219 -5.77534,4.26716 -7.69336,7.21289 -1.85314,2.84606 -2.87105,6.25742 -3.36719,9.61718 -0.53904,3.65026 -0.0178,7.50156 1.32227,10.93946 1.44588,3.70935 6.85156,9.49609 6.85156,9.49609 0,0 -7.47708,-0.64728 -11.0586,0.24024 -1.63536,0.40525 -3.32707,1.02485 -4.56835,2.16406 -0.82024,0.75278 -1.68165,2.88476 -1.68165,2.88476 L 147.75,528.3418 c 0,0 1.10175,2.21739 1.92188,3.125 1.14982,1.27249 4.08789,1.48437 4.08789,1.48437 l -0.72071,52.12695 c 0,0 0.86534,1.75353 1.68164,2.16407 3.22251,1.62069 10.82032,1.32226 10.82032,1.32226 0,0 -3.84572,2.34434 -5.28907,4.44727 -1.70407,2.48279 -2.25591,5.08681 -2.76562,8.05469 -0.68163,3.96879 -0.24318,8.02228 1.20117,11.78125 1.21304,3.15697 3.05235,5.88753 5.65039,8.05273 2.53303,2.11103 5.44105,3.22666 8.6543,3.9668 3.90467,0.89939 7.63368,1.12802 11.54101,0.24023 4.15942,-0.94509 7.66929,-2.16376 10.69727,-5.16797 2.84957,-2.82721 4.88023,-6.49799 5.53125,-10.45898 0.70772,-4.30591 0.50321,-9.03602 -1.08203,-13.10156 -1.21158,-3.10728 -5.77149,-7.81446 -5.77149,-7.81446 0,0 7.53489,0.88749 10.82032,-0.60156 1.18821,-0.53853 2.00781,-2.88477 2.00781,-2.88477 l 0,-52.12695 c 0,0 1.84649,-1.22383 2.67969,-1.96875 0.84489,-0.75537 1.61328,-2.88867 1.61328,-2.88867 l 0.16992,-65.10937 c 0,-10e-6 -0.39551,-4.77162 -1.86914,-6.46094 -1.334,-1.52925 -3.58934,-2.00475 -5.56446,-2.47071 -3.43542,-0.81055 -10.57812,-0.7207 -10.57812,-0.7207 0,0 3.85864,-3.00664 5.28906,-5.04883 1.52204,-2.17303 2.84898,-4.61094 3.36719,-7.21289 0.72072,-3.61878 0.55191,-7.51668 -0.48242,-11.05859 -0.98637,-3.37772 -2.88075,-6.57119 -5.28906,-9.13672 -2.37307,-2.528 -5.36188,-4.68218 -8.6543,-5.76953 -2.66669,-0.8807 -5.4457,-1.36139 -8.24609,-1.36133 z m 0.0723,10.01563 c 6.90472,-2.1e-4 12.50216,5.59723 12.50195,12.50195 2.1e-4,6.90472 -5.59723,12.50216 -12.50195,12.50195 -6.90472,2.1e-4 -12.50216,-5.59723 -12.50195,-12.50195 -2.1e-4,-6.90472 5.59723,-12.50216 12.50195,-12.50195 z m -23.92187,38.34765 47.12109,0 0,63.70899 -47.12109,0 z m 23.92187,129.94336 c 6.90472,-2.1e-4 12.50216,5.59723 12.50195,12.50195 2.1e-4,6.90473 -5.59722,12.50217 -12.50195,12.50196 -6.90473,2.1e-4 -12.50216,-5.59723 -12.50195,-12.50196 -2.1e-4,-6.90472 5.59723,-12.50216 12.50195,-12.50195 z"
       transform="translate(0,343.70079)"
       id="path4156"
       inkscape:connector-curvature="0"
       sodipodi:nodetypes="scsssscssccsccscssssssssscsccsccsccssssssccccccccccccccc" />
    <path
       style="fill:#000000;fill-rule:evenodd;stroke:#000000;stroke-width:0.56060898px;stroke-linecap:butt;stroke-linejoin:miter;stroke-opacity:1"
       d="M 514.56641 461.23438 C 514.56641 461.23438 502.83761 461.93163 498.94922 464.43945 C 489.05197 470.82268 470.11914 483.66016 470.11914 483.66016 L 455.30273 492.86914 L 444.49023 494.07031 L 429.67383 495.27148 C 429.67383 495.27148 424.04798 498.65519 421.66602 500.87891 C 418.40513 503.92318 415.24511 507.29608 413.25586 511.28906 C 411.78342 514.24466 410.94722 517.59965 410.85352 520.90039 C 410.77255 523.75268 411.35209 526.67695 412.45508 529.30859 C 413.27087 531.25503 414.50516 533.08914 416.06055 534.51562 C 417.64674 535.97036 419.51375 537.31836 421.66602 537.31836 L 432.07812 537.31836 C 432.07812 537.31836 432.08349 541.29868 432.64453 543.32422 C 433.20558 545.34976 433.91764 547.77978 435.68164 550.03906 C 437.44563 552.29834 439.97355 554.88855 442.88867 556.53906 C 445.80378 558.18958 448.96913 559.38506 452.2168 559.64844 C 455.46446 559.91181 459.04744 559.30477 462.10938 558.14062 C 465.1713 556.97649 467.81497 554.5705 470.11914 552.13477 C 472.4233 549.69904 474.20654 546.62381 475.02344 543.92578 C 475.84033 541.22775 475.72461 537.31836 475.72461 537.31836 L 509.96094 537.31836 L 509.96094 525.10547 L 464.51172 525.10547 C 464.51172 525.10547 465.27989 534.28676 464.11133 538.11914 C 463.3768 540.5281 462.09847 542.9832 460.10742 544.52539 C 458.00484 546.15398 455.15576 547.06933 452.5 546.92773 C 450.1722 546.80362 447.78182 545.73057 446.0918 544.125 C 444.79349 542.89156 444.15046 541.05075 443.68945 539.32031 C 442.48483 534.79865 442.88867 525.30469 442.88867 525.30469 L 424.06836 525.70508 C 424.06836 525.70508 423.11933 521.74366 423.45703 519.69922 C 423.84919 517.32508 426.4707 513.69141 426.4707 513.69141 C 426.4707 513.69141 428.07492 510.16067 430.47461 508.48633 C 433.32822 506.49528 440.48633 506.88477 440.48633 506.88477 L 454.50195 505.2832 L 463.71094 502.08008 L 477.72656 493.26953 L 503.35547 475.25 C 504.73661 474.27888 508.16016 473.64844 508.16016 473.64844 L 563.41992 473.24805 L 590.65039 496.47266 L 593.05273 498.07617 L 608.26953 498.47656 L 611.47266 500.87891 L 611.07227 525.10547 L 591.45117 525.30469 C 591.45117 525.30469 591.86581 532.27454 591.45117 535.31641 C 591.11439 537.78714 590.46823 541.73158 588.88281 543.65625 C 587.68041 545.11595 586.28517 546.20125 584.63281 546.6543 C 583.4166 546.98772 581.42678 547.16741 580.03711 547.07031 C 576.92005 546.8526 575.32294 546.05742 573.24414 543.72461 C 571.32717 541.5734 570.40329 538.18453 570.12695 535.31641 C 569.81946 532.12493 570.12695 525.30469 570.12695 525.30469 L 547.40234 525.10547 L 547.40234 537.31836 L 558.21484 537.31836 C 558.21484 537.31836 558.75619 544.94045 560.61719 548.12891 C 562.42764 551.23075 565.59906 554.25286 568.625 556.1875 C 571.19436 557.83023 574.02907 558.42799 577.03516 558.94141 C 580.99112 559.61706 585.26419 559.48131 589.04688 558.14062 C 591.6648 557.21276 594.6991 555.54023 596.70508 553.61914 C 599.38531 551.05233 601.37136 548.00477 602.66211 544.52539 C 603.54542 542.14436 603.0625 537.31836 603.0625 537.31836 L 612.67383 537.31836 C 615.1278 537.31836 617.50899 535.57647 619.48047 534.11523 C 621.00456 532.9856 622.88477 531.60606 622.88477 529.70898 L 622.88477 494.87109 C 622.88477 490.06541 611.47266 486.26172 611.47266 486.26172 L 599.85938 486.26172 L 567.42383 461.63672 L 514.56641 461.23438 z M 528.93164 492.26953 L 509.36133 512.08984 L 519.17188 512.08984 L 519.17188 525.30469 L 538.39258 525.30469 L 538.39258 512.08984 L 549.00391 512.08984 L 528.93164 492.26953 z M 519.17188 537.51758 L 519.17188 557.49023 L 508.46094 557.49023 L 528.93164 578.0625 L 549.60547 557.49023 L 538.39258 557.49023 L 538.39258 537.51758 L 519.17188 537.51758 z "
       transform="translate(0,343.70079)"
       id="path4176" />
    <path
       style="fill:#000000;fill-rule:evenodd;stroke:#000000;stroke-width:0.92647541px;stroke-linecap:butt;stroke-linejoin:miter;stroke-opacity:1"
       d="M 876.58398 421.11914 L 862.6875 463.80273 L 880.22461 454.86914 C 880.22461 454.86914 884.8791 464.24733 886.8418 469.0957 C 888.9883 474.39817 892.4668 485.31055 892.4668 485.31055 L 914.9668 478.69141 C 914.9668 478.69141 911.6173 467.94332 909.3418 462.80859 C 906.7025 456.85328 900.07812 445.60352 900.07812 445.60352 L 918.60742 435.01562 L 876.58398 421.11914 z M 740.33984 486.94336 L 740.33984 503.32227 L 767.01172 505.19336 C 767.01172 505.19336 782.12491 513.65109 789.94141 517.36133 C 798.65631 521.49804 807.61298 525.11955 816.61328 528.5918 C 822.32048 530.79358 827.96673 533.30085 833.92773 534.67383 C 837.90603 535.59011 846.09375 536.07812 846.09375 536.07812 L 848.90234 538.41797 L 850.91016 574.75195 L 825.03711 574.91797 C 825.03711 574.91797 826.16631 583.93313 825.03711 588.95508 C 824.31761 592.15448 823.02662 595.41605 820.82422 597.8457 C 818.99172 599.8673 816.41714 601.26481 813.80664 602.05859 C 810.81824 602.96729 807.49217 603.22133 804.44727 602.52539 C 800.63667 601.65446 797.89119 599.86851 795.08789 597.14453 C 793.53369 595.63443 792.378 592.91802 791.8125 590.82617 C 790.5098 586.00778 790.87695 574.91797 790.87695 574.91797 L 740.33984 574.91797 L 740.33984 590.82617 L 775.90234 590.82617 C 775.90234 590.82617 776.95771 596.6275 778.00781 599.25 C 779.53861 603.07291 781.31137 606.27101 784.32617 609.07617 C 787.87357 612.37687 791.92019 615.42643 796.49219 617.03125 C 800.73239 618.51962 805.42271 618.52474 809.91211 618.32422 C 814.39631 618.12394 819.10278 617.79242 823.14648 615.84375 C 827.02078 613.97665 830.1346 610.69314 832.9082 607.40625 C 834.6954 605.28842 836.19808 602.87115 837.20898 600.29102 C 837.90738 598.50862 838.10029 596.56166 838.36719 594.66602 C 838.56779 593.242 838.69922 590.36523 838.69922 590.36523 C 838.69922 590.36523 846.39536 590.24582 849.88086 589.89648 C 853.36646 589.54715 856.84258 589.66652 859.58398 588.35156 C 862.32548 587.03661 864.34296 585.18061 865.81836 582.69922 C 867.40346 580.03344 867.48633 573.82031 867.48633 573.82031 L 866.32812 556.94531 L 864.3418 539.24414 C 864.0061 536.25043 863.97462 533.51427 862.35742 530.97266 C 860.78392 528.49969 859.17658 525.86544 856.89648 524.02344 C 855.35068 522.77461 852.17867 521.77754 850.19727 521.625 C 844.08457 521.15443 841.82566 520.9294 837.78906 519.88672 C 830.18746 517.92319 815.91211 511.16016 815.91211 511.16016 L 792.04492 499.95117 L 773.79688 490.92188 L 767.59766 489.05078 L 752.62305 487.76367 L 740.33984 486.94336 z M 900.2168 500.00977 C 893.21982 499.95587 886.85709 501.13236 879.90039 502.02734 C 876.95209 502.42025 870.0639 503.88258 867.1543 504.5 C 862.2213 505.54681 857.11609 506.11226 852.42969 507.97461 C 851.30459 508.42173 850.03151 508.84005 849.28711 509.79492 C 848.79341 510.4282 848.41088 511.05787 848.80078 511.75977 C 849.19078 512.46168 849.97053 512.95503 850.76562 513.06641 C 852.29482 513.28058 854.03023 513.718 855.49023 514.2207 C 857.60763 514.94977 859.3955 516.3749 861.0332 517.90234 C 862.6609 519.42049 863.61709 520.83809 864.83789 522.69922 C 866.36739 525.03097 867.56982 526.67997 868.47852 529.31641 C 868.94052 530.65686 868.77558 532.63968 869.80078 533.61914 C 870.85648 534.6278 872.66632 534.70262 874.10352 534.44531 C 876.51472 534.01365 878.34572 531.98929 880.39062 530.64062 C 883.78892 528.39933 886.96801 525.84239 890.31641 523.52734 C 893.75101 521.15273 897.42473 519.11646 900.74023 516.57812 C 903.99853 514.08356 908.02401 512.06505 910.00391 508.4707 C 910.86571 506.90622 912.01734 503.70353 911.18164 502.125 C 910.59224 501.01177 908.4736 500.66951 907.4707 500.53125 C 904.9518 500.184 902.54912 500.02773 900.2168 500.00977 z M 927.75 526.48438 L 905.28906 531.39844 C 905.28906 531.39844 907.76345 543.05113 908.56445 548.94727 C 909.30205 554.37672 909.96875 565.32422 909.96875 565.32422 L 891.25 565.32422 L 922.13477 595.03906 L 951.38086 564.85547 L 932.42969 564.85547 C 932.42969 564.85547 932.57896 551.23741 931.72656 544.50195 C 930.95446 538.40076 927.75 526.48438 927.75 526.48438 z "
       transform="translate(0,343.70079)"
       id="path4199" />
    <path
       style="fill:none;stroke:#ff0000;stroke-width:1.17637789;stroke-linejoin:round;stroke-miterlimit:4;stroke-dasharray:none"
       d="M 387.02539 19.083984 C 367.39547 19.083984 351.5918 34.887648 351.5918 54.517578 L 351.5918 302.08008 C 351.5918 321.71 367.39547 337.51172 387.02539 337.51172 L 634.58594 337.51172 C 654.21584 337.51173 670.01953 321.71 670.01953 302.08008 L 670.01953 54.517578 C 670.01953 34.887648 654.21584 19.083984 634.58594 19.083984 L 387.02539 19.083984 z "
       transform="translate(0,343.70079)"
       id="path4217" />
    <path
       style="fill:none;stroke:#ff0000;stroke-width:1.17637789;stroke-linejoin:round;stroke-miterlimit:4;stroke-dasharray:none"
       d="M 722.73828 19.083984 C 703.10836 19.083984 687.30469 34.887648 687.30469 54.517578 L 687.30469 302.08008 C 687.30469 321.71 703.10836 337.51172 722.73828 337.51172 L 970.29883 337.51172 C 989.92873 337.51173 1005.7324 321.71 1005.7324 302.08008 L 1005.7324 54.517578 C 1005.7324 34.887648 989.92873 19.083984 970.29883 19.083984 L 722.73828 19.083984 z "
       transform="translate(0,343.70079)"
       id="path4219" />
    <path
       style="fill:none;stroke:#ff0000;stroke-width:1.17637789;stroke-linejoin:round;stroke-miterlimit:4;stroke-dasharray:none"
       d="M 55.695312 360.49219 C 36.065393 360.49219 20.261719 376.29585 20.261719 395.92578 L 20.261719 643.48828 C 20.261719 663.11826 36.065393 678.91992 55.695312 678.91992 L 303.25586 678.91992 C 322.88576 678.91992 338.68945 663.11826 338.68945 643.48828 L 338.68945 395.92578 C 338.68945 376.29585 322.88576 360.49219 303.25586 360.49219 L 55.695312 360.49219 z "
       transform="translate(0,343.70079)"
       id="path4227" />
    <path
       style="fill:none;stroke:#ff0000;stroke-width:1.17637789;stroke-linejoin:round;stroke-miterlimit:4;stroke-dasharray:none"
       d="M 393.08594 360.49219 C 373.45602 360.49219 357.65234 376.29585 357.65234 395.92578 L 357.65234 643.48828 C 357.65234 663.11826 373.45602 678.91992 393.08594 678.91992 L 640.64648 678.91992 C 660.27638 678.91992 676.08008 663.11826 676.08008 643.48828 L 676.08008 395.92578 C 676.08008 376.29585 660.27638 360.49219 640.64648 360.49219 L 393.08594 360.49219 z "
       transform="translate(0,343.70079)"
       id="path4229" />
    <path
       style="fill:none;stroke:#ff0000;stroke-width:1.17637789;stroke-linejoin:round;stroke-miterlimit:4;stroke-dasharray:none"
       d="M 722.39453 360.49219 C 702.76461 360.49219 686.96094 376.29585 686.96094 395.92578 L 686.96094 643.48828 C 686.96094 663.11826 702.76461 678.91992 722.39453 678.91992 L 969.95508 678.91992 C 989.58498 678.91992 1005.3887 663.11826 1005.3887 643.48828 L 1005.3887 395.92578 C 1005.3887 376.29585 989.58498 360.49219 969.95508 360.49219 L 722.39453 360.49219 z "
       transform="translate(0,343.70079)"
       id="path4231" />
  </g>
</svg>
