  0
SECTION
  2
HEADER
  9
$ACADVER
  1
AC1015
  9
$ACADMAINTVER
 70
     6
  9
$DWGCODEPAGE
  3
ANSI_1251
  9
$INSBASE
 10
0.0
 20
0.0
 30
0.0
  9
$EXTMIN
 10
0.0
 20
-70.0861913074
 30
0.0
  9
$EXTMAX
 10
151.2278227257
 20
3.0
 30
0.0
  9
$LIMMIN
 10
0.0
 20
0.0
  9
$LIMMAX
 10
420.0
 20
297.0
  9
$ORTHOMODE
 70
     0
  9
$REGENMODE
 70
     1
  9
$FILLMODE
 70
     1
  9
$QTEXTMODE
 70
     0
  9
$MIRRTEXT
 70
     1
  9
$LTSCALE
 40
1.0
  9
$ATTMODE
 70
     1
  9
$TEXTSIZE
 40
3.5
  9
$TRACEWID
 40
1.0
  9
$TEXTSTYLE
  7
Standard
  9
$CLAYER
  8
0
  9
$CELTYPE
  6
ByLayer
  9
$CECOLOR
 62
   256
  9
$CELTSCALE
 40
1.0
  9
$DISPSILH
 70
     0
  9
$DIMSCALE
 40
1.0
  9
$DIMASZ
 40
3.302
  9
$DIMEXO
 40
1.0
  9
$DIMDLI
 40
3.75
  9
$DIMRND
 40
0.0
  9
$DIMDLE
 40
0.0
  9
$DIMEXE
 40
1.0
  9
$DIMTP
 40
0.0
  9
$DIMTM
 40
0.0
  9
$DIMTXT
 40
3.5
  9
$DIMCEN
 40
2.5
  9
$DIMTSZ
 40
0.0
  9
$DIMTOL
 70
     0
  9
$DIMLIM
 70
     0
  9
$DIMTIH
 70
     1
  9
$DIMTOH
 70
     1
  9
$DIMSE1
 70
     0
  9
$DIMSE2
 70
     0
  9
$DIMTAD
 70
     1
  9
$DIMZIN
 70
     0
  9
$DIMBLK
  1

  9
$DIMASO
 70
     1
  9
$DIMSHO
 70
     1
  9
$DIMPOST
  1

  9
$DIMAPOST
  1

  9
$DIMALT
 70
     0
  9
$DIMALTD
 70
     3
  9
$DIMALTF
 40
0.0393700787
  9
$DIMLFAC
 40
1.0
  9
$DIMTOFL
 70
     1
  9
$DIMTVP
 40
0.0
  9
$DIMTIX
 70
     0
  9
$DIMSOXD
 70
     0
  9
$DIMSAH
 70
     0
  9
$DIMBLK1
  1

  9
$DIMBLK2
  1

  9
$DIMSTYLE
  2
ISO-25
  9
$DIMCLRD
 70
     0
  9
$DIMCLRE
 70
     0
  9
$DIMCLRT
 70
     0
  9
$DIMTFAC
 40
1.0
  9
$DIMGAP
 40
1.524
  9
$DIMJUST
 70
     0
  9
$DIMSD1
 70
     0
  9
$DIMSD2
 70
     0
  9
$DIMTOLJ
 70
     0
  9
$DIMTZIN
 70
     0
  9
$DIMALTZ
 70
     0
  9
$DIMALTTZ
 70
     0
  9
$DIMUPT
 70
     0
  9
$DIMDEC
 70
     3
  9
$DIMTDEC
 70
     3
  9
$DIMALTU
 70
     2
  9
$DIMALTTD
 70
     3
  9
$DIMTXSTY
  7
Standard
  9
$DIMAUNIT
 70
     0
  9
$DIMADEC
 70
     2
  9
$DIMALTRND
 40
0.0
  9
$DIMAZIN
 70
     0
  9
$DIMDSEP
 70
    44
  9
$DIMATFIT
 70
     3
  9
$DIMFRAC
 70
     0
  9
$DIMLDRBLK
  1

  9
$DIMLUNIT
 70
     2
  9
$DIMLWD
 70
    -2
  9
$DIMLWE
 70
    -2
  9
$DIMTMOVE
 70
     0
  9
$LUNITS
 70
     2
  9
$LUPREC
 70
     2
  9
$SKETCHINC
 40
1.0
  9
$FILLETRAD
 40
10.0
  9
$AUNITS
 70
     0
  9
$AUPREC
 70
     2
  9
$MENU
  1
.
  9
$ELEVATION
 40
0.0
  9
$PELEVATION
 40
0.0
  9
$THICKNESS
 40
0.0
  9
$LIMCHECK
 70
     0
  9
$CHAMFERA
 40
10.0
  9
$CHAMFERB
 40
10.0
  9
$CHAMFERC
 40
20.0
  9
$CHAMFERD
 40
0.0
  9
$SKPOLY
 70
     0
  9
$TDCREATE
 40
2457591.792386563
  9
$TDUCREATE
 40
2457591.667386563
  9
$TDUPDATE
 40
2457591.792386574
  9
$TDUUPDATE
 40
2457591.667386574
  9
$TDINDWG
 40
0.0000000116
  9
$TDUSRTIMER
 40
0.0000000116
  9
$USRTIMER
 70
     1
  9
$ANGBASE
 50
0.0
  9
$ANGDIR
 70
     0
  9
$PDMODE
 70
     0
  9
$PDSIZE
 40
-1.0
  9
$PLINEWID
 40
0.0
  9
$SPLFRAME
 70
     0
  9
$SPLINETYPE
 70
     6
  9
$SPLINESEGS
 70
     8
  9
$HANDSEED
  5
80
  9
$SURFTAB1
 70
     6
  9
$SURFTAB2
 70
     6
  9
$SURFTYPE
 70
     6
  9
$SURFU
 70
     6
  9
$SURFV
 70
     6
  9
$UCSBASE
  2

  9
$UCSNAME
  2

  9
$UCSORG
 10
0.0
 20
0.0
 30
0.0
  9
$UCSXDIR
 10
1.0
 20
0.0
 30
0.0
  9
$UCSYDIR
 10
0.0
 20
1.0
 30
0.0
  9
$UCSORTHOREF
  2

  9
$UCSORTHOVIEW
 70
     0
  9
$UCSORGTOP
 10
0.0
 20
0.0
 30
0.0
  9
$UCSORGBOTTOM
 10
0.0
 20
0.0
 30
0.0
  9
$UCSORGLEFT
 10
0.0
 20
0.0
 30
0.0
  9
$UCSORGRIGHT
 10
0.0
 20
0.0
 30
0.0
  9
$UCSORGFRONT
 10
0.0
 20
0.0
 30
0.0
  9
$UCSORGBACK
 10
0.0
 20
0.0
 30
0.0
  9
$PUCSBASE
  2

  9
$PUCSNAME
  2

  9
$PUCSORG
 10
0.0
 20
0.0
 30
0.0
  9
$PUCSXDIR
 10
1.0
 20
0.0
 30
0.0
  9
$PUCSYDIR
 10
0.0
 20
1.0
 30
0.0
  9
$PUCSORTHOREF
  2

  9
$PUCSORTHOVIEW
 70
     0
  9
$PUCSORGTOP
 10
0.0
 20
0.0
 30
0.0
  9
$PUCSORGBOTTOM
 10
0.0
 20
0.0
 30
0.0
  9
$PUCSORGLEFT
 10
0.0
 20
0.0
 30
0.0
  9
$PUCSORGRIGHT
 10
0.0
 20
0.0
 30
0.0
  9
$PUCSORGFRONT
 10
0.0
 20
0.0
 30
0.0
  9
$PUCSORGBACK
 10
0.0
 20
0.0
 30
0.0
  9
$USERI1
 70
     0
  9
$USERI2
 70
     0
  9
$USERI3
 70
     0
  9
$USERI4
 70
     0
  9
$USERI5
 70
     0
  9
$USERR1
 40
0.0
  9
$USERR2
 40
0.0
  9
$USERR3
 40
0.0
  9
$USERR4
 40
0.0
  9
$USERR5
 40
0.0
  9
$WORLDVIEW
 70
     1
  9
$SHADEDGE
 70
     3
  9
$SHADEDIF
 70
    70
  9
$TILEMODE
 70
     1
  9
$MAXACTVP
 70
    64
  9
$PINSBASE
 10
0.0
 20
0.0
 30
0.0
  9
$PLIMCHECK
 70
     0
  9
$PEXTMIN
 10
1.0000000000E+20
 20
1.0000000000E+20
 30
1.0000000000E+20
  9
$PEXTMAX
 10
-1.0000000000E+20
 20
-1.0000000000E+20
 30
-1.0000000000E+20
  9
$PLIMMIN
 10
0.0
 20
0.0
  9
$PLIMMAX
 10
420.0
 20
297.0
  9
$UNITMODE
 70
     0
  9
$VISRETAIN
 70
     1
  9
$PLINEGEN
 70
     0
  9
$PSLTSCALE
 70
     1
  9
$TREEDEPTH
 70
  3020
  9
$CMLSTYLE
  2
Standard
  9
$CMLJUST
 70
     0
  9
$CMLSCALE
 40
20.0
  9
$PROXYGRAPHICS
 70
     1
  9
$MEASUREMENT
 70
     1
  9
$CELWEIGHT
370
    -1
  9
$ENDCAPS
280
     0
  9
$JOINSTYLE
280
     0
  9
$LWDISPLAY
290
     1
  9
$INSUNITS
 70
     4
  9
$HYPERLINKBASE
  1

  9
$STYLESHEET
  1

  9
$XEDIT
290
     1
  9
$CEPSNTYPE
380
     0
  9
$PSTYLEMODE
290
     1
  9
$FINGERPRINTGUID
  2
{87721BC0-5DD0-4188-9914-93FCEAABAFB2}
  9
$VERSIONGUID
  2
{FAEB1C32-E019-11D5-929B-00C0DF256EC4}
  9
$EXTNAMES
290
     1
  9
$PSVPSCALE
 40
0.0
  9
$OLESTARTUP
290
     0
  0
ENDSEC
  0
SECTION
  2
CLASSES
  0
CLASS
  1
ACDBDICTIONARYWDFLT
  2
AcDbDictionaryWithDefault
  3
ObjectDBX Classes
 90
        0
280
     0
281
     0
  0
CLASS
  1
VISUALSTYLE
  2
AcDbVisualStyle
  3
ObjectDBX Classes
 90
     4095
280
     0
281
     0
  0
CLASS
  1
DICTIONARYVAR
  2
AcDbDictionaryVar
  3
ObjectDBX Classes
 90
        0
280
     0
281
     0
  0
CLASS
  1
ACDBPLACEHOLDER
  2
AcDbPlaceHolder
  3
ObjectDBX Classes
 90
        0
280
     0
281
     0
  0
CLASS
  1
LAYOUT
  2
AcDbLayout
  3
ObjectDBX Classes
 90
        0
280
     0
281
     0
  0
ENDSEC
  0
SECTION
  2
TABLES
  0
TABLE
  2
VPORT
  5
8
330
0
100
AcDbSymbolTable
 70
     1
  0
VPORT
  5
29
330
8
100
AcDbSymbolTableRecord
100
AcDbViewportTableRecord
  2
*Active
 70
     0
 10
0.0
 20
0.0
 11
1.0
 21
1.0
 12
75.6139113629
 22
-33.5430956537
 13
0.0
 23
0.0
 14
10.0
 24
10.0
 15
10.0
 25
10.0
 16
0.0
 26
0.0
 36
1.0
 17
0.0
 27
0.0
 37
0.0
 40
74.5479151336
 41
2.0691709339
 42
50.0
 43
0.0
 44
0.0
 50
0.0
 51
0.0
 71
     0
 72
   100
 73
     1
 74
     3
 75
     0
 76
     0
 77
     0
 78
     0
281
     0
 65
     1
110
0.0
120
0.0
130
0.0
111
1.0
121
0.0
131
0.0
112
0.0
122
1.0
132
0.0
 79
     0
146
0.0
  0
ENDTAB
  0
TABLE
  2
LTYPE
  5
5
330
0
100
AcDbSymbolTable
 70
     6
  0
LTYPE
  5
14
330
5
100
AcDbSymbolTableRecord
100
AcDbLinetypeTableRecord
  2
ByBlock
 70
     0
  3

 72
    65
 73
     0
 40
0.0
  0
LTYPE
  5
15
330
5
100
AcDbSymbolTableRecord
100
AcDbLinetypeTableRecord
  2
ByLayer
 70
     0
  3

 72
    65
 73
     0
 40
0.0
  0
LTYPE
  5
16
330
5
100
AcDbSymbolTableRecord
100
AcDbLinetypeTableRecord
  2
Continuous
 70
     0
  3
Solid line
 72
    65
 73
     0
 40
0.0
  0
LTYPE
  5
3B
330
5
100
AcDbSymbolTableRecord
100
AcDbLinetypeTableRecord
  2
HIDDEN
 70
     0
  3
Hidden __ __ __ __ __ __ __ __ __ __ __ __ __ __
 72
    65
 73
     2
 40
1.905
 49
1.27
 74
     0
 49
-0.635
 74
     0
  0
LTYPE
  5
3C
330
5
100
AcDbSymbolTableRecord
100
AcDbLinetypeTableRecord
  2
PHANTOM
 70
     0
  3
Phantom ______  __  __  ______  __  __  ______
 72
    65
 73
     6
 40
12.7
 49
6.35
 74
     0
 49
-1.27
 74
     0
 49
1.27
 74
     0
 49
-1.27
 74
     0
 49
1.27
 74
     0
 49
-1.27
 74
     0
  0
LTYPE
  5
3D
330
5
100
AcDbSymbolTableRecord
100
AcDbLinetypeTableRecord
  2
CENTER
 70
     0
  3
Center ____ _ ____ _ ____ _ ____ _ ____ _ ____
 72
    65
 73
     4
 40
10.16
 49
6.35
 74
     0
 49
-1.27
 74
     0
 49
1.27
 74
     0
 49
-1.27
 74
     0
  0
LTYPE
  5
3E
330
5
100
AcDbSymbolTableRecord
100
AcDbLinetypeTableRecord
  2
CENTERX2
 70
     0
  3
Center (2x) ________  __  ________  __  _____
 72
    65
 73
     4
 40
20.32
 49
12.7
 74
     0
 49
-2.54
 74
     0
 49
2.54
 74
     0
 49
-2.54
 74
     0
  0
LTYPE
  5
3F
330
5
100
AcDbSymbolTableRecord
100
AcDbLinetypeTableRecord
  2
DOT2
 70
     0
  3
Dot (.5x) ........................................
 72
    65
 73
     2
 40
0.635
 49
0.0
 74
     0
 49
-0.635
 74
     0
  0
ENDTAB
  0
TABLE
  2
LAYER
  5
2
330
0
100
AcDbSymbolTable
 70
     1
  0
LAYER
  5
10
330
2
100
AcDbSymbolTableRecord
100
AcDbLayerTableRecord
  2
0
 70
     0
 62
     7
  6
Continuous
370
    -3
390
F
  0
ENDTAB
  0
TABLE
  2
STYLE
  5
3
330
0
100
AcDbSymbolTable
 70
     1
  0
STYLE
  5
11
330
3
100
AcDbSymbolTableRecord
100
AcDbTextStyleTableRecord
  2
Standard
 70
     0
 40
0.0
 41
1.0
 50
0.0
 71
     0
 42
2.5
  3
txt
  4

  0
ENDTAB
  0
TABLE
  2
VIEW
  5
6
330
0
100
AcDbSymbolTable
 70
     0
  0
ENDTAB
  0
TABLE
  2
UCS
  5
7
330
0
100
AcDbSymbolTable
 70
     0
  0
ENDTAB
  0
TABLE
  2
APPID
  5
9
330
0
100
AcDbSymbolTable
 70
     1
  0
APPID
  5
12
330
9
100
AcDbSymbolTableRecord
100
AcDbRegAppTableRecord
  2
ACAD
 70
     0
  0
ENDTAB
  0
TABLE
  2
DIMSTYLE
  5
A
330
0
100
AcDbSymbolTable
 70
     1
100
AcDbDimStyleTable
  0
DIMSTYLE
105
27
330
A
100
AcDbSymbolTableRecord
100
AcDbDimStyleTableRecord
  2
ISO-25
 70
     0
 41
2.5
 42
0.625
 43
3.75
 44
1.25
 73
     0
 74
     0
 77
     1
 78
     8
140
2.5
141
2.5
143
0.0393700787
147
0.625
171
     3
172
     1
271
     2
272
     2
274
     3
278
    44
283
     0
284
     8
340
11
  0
ENDTAB
  0
TABLE
  2
BLOCK_RECORD
  5
1
330
0
100
AcDbSymbolTable
 70
     1
  0
BLOCK_RECORD
  5
1F
330
1
100
AcDbSymbolTableRecord
100
AcDbBlockTableRecord
  2
*Model_Space
340
22
  0
BLOCK_RECORD
  5
1B
330
1
100
AcDbSymbolTableRecord
100
AcDbBlockTableRecord
  2
*Paper_Space
340
1E
  0
BLOCK_RECORD
  5
23
330
1
100
AcDbSymbolTableRecord
100
AcDbBlockTableRecord
  2
*Paper_Space0
340
26
  0
ENDTAB
  0
ENDSEC
  0
SECTION
  2
BLOCKS
  0
BLOCK
  5
20
330
1F
100
AcDbEntity
  8
0
100
AcDbBlockBegin
  2
*Model_Space
 70
     0
 10
0.0
 20
0.0
 30
0.0
  3
*Model_Space
  1

  0
ENDBLK
  5
21
330
1F
100
AcDbEntity
  8
0
100
AcDbBlockEnd
  0
BLOCK
  5
1C
330
1B
100
AcDbEntity
 67
     1
  8
0
100
AcDbBlockBegin
  2
*Paper_Space
 70
     0
 10
0.0
 20
0.0
 30
0.0
  3
*Paper_Space
  1

  0
ENDBLK
  5
1D
330
1B
100
AcDbEntity
 67
     1
  8
0
100
AcDbBlockEnd
  0
BLOCK
  5
24
330
23
100
AcDbEntity
  8
0
100
AcDbBlockBegin
  2
*Paper_Space0
 70
     0
 10
0.0
 20
0.0
 30
0.0
  3
*Paper_Space0
  1

  0
ENDBLK
  5
25
330
23
100
AcDbEntity
  8
0
100
AcDbBlockEnd
  0
ENDSEC
  0
SECTION
  2
ENTITIES
  0
SPLINE
  5
40
330
1F
100
AcDbEntity
  8
0
  6
Continuous
 62
     7
370
    15
100
AcDbSpline
210
0.0
220
0.0
230
1.0
 70
     8
 71
     3
 72
     9
 73
     5
 74
     0
 42
0.00000001
 43
0.00000001
 40
0.0
 40
0.0
 40
0.0
 40
0.0
 40
0.4696989310470047
 40
1.0
 40
1.0
 40
1.0
 40
1.0
 10
40.41721168048963
 20
-63.47946730429388
 30
0.0
 10
39.81595171407672
 20
-63.8889844543839
 30
0.0
 10
38.35066340808124
 20
-64.39512864961924
 30
0.0
 10
36.81286736818355
 20
-64.52242378517994
 30
0.0
 10
35.99969799792513
 20
-64.47633986097878
 30
0.0
  0
SPLINE
  5
41
330
1F
100
AcDbEntity
  8
0
  6
Continuous
 62
     7
370
    15
100
AcDbSpline
210
0.0
220
0.0
230
1.0
 70
     8
 71
     3
 72
    21
 73
    17
 74
     0
 42
0.00000001
 43
0.00000001
 40
0.0
 40
0.0
 40
0.0
 40
0.0
 40
0.0995227694480109
 40
0.1579755545666041
 40
0.2243411990187233
 40
0.2956617449097444
 40
0.3678251673103743
 40
0.4405610694858484
 40
0.5146055161096619
 40
0.5885084814068866
 40
0.6597896127903984
 40
0.7286603885936848
 40
0.7960418521077257
 40
0.8577762622396681
 40
0.9112651996635001
 40
1.0
 40
1.0
 40
1.0
 40
1.0
 10
24.05677383842551
 20
-26.28243837544322
 30
0.0
 10
25.5142983365741
 20
-26.55679358387786
 30
0.0
 10
27.67089360491077
 20
-27.57521414905996
 30
0.0
 10
30.20319512201571
 20
-29.74298368109538
 30
0.0
 10
32.15365707181733
 20
-31.90017625903729
 30
0.0
 10
34.0204561105227
 20
-34.38569543089491
 30
0.0
 10
35.78198187672207
 20
-37.05969722700679
 30
0.0
 10
37.37243001433801
 20
-39.88618382535756
 30
0.0
 10
38.76695793337503
 20
-42.84243182569517
 30
0.0
 10
39.96510810125738
 20
-45.85941628506068
 30
0.0
 10
40.95664308053083
 20
-48.87147813409594
 30
0.0
 10
41.67532496986651
 20
-51.85997498833444
 30
0.0
 10
42.17986217818061
 20
-54.75057833616324
 30
0.0
 10
42.34947899785823
 20
-57.45233359219525
 30
0.0
 10
42.14761286345311
 20
-60.48289675721994
 30
0.0
 10
41.27276625177957
 20
-62.47144822113395
 30
0.0
 10
40.41721168048963
 20
-63.47946730429388
 30
0.0
  0
SPLINE
  5
42
330
1F
100
AcDbEntity
  8
0
  6
Continuous
 62
     7
370
    15
100
AcDbSpline
210
0.0
220
0.0
230
1.0
 70
     8
 71
     3
 72
     9
 73
     5
 74
     0
 42
0.00000001
 43
0.00000001
 40
0.0
 40
0.0
 40
0.0
 40
0.0
 40
0.4461539416245828
 40
1.0
 40
1.0
 40
1.0
 40
1.0
 10
19.30696930363271
 20
-28.17845088521648
 30
0.0
 10
19.66541614495787
 20
-27.43543386715728
 30
0.0
 10
21.16489020103752
 20
-26.22815838498085
 30
0.0
 10
23.07779124768611
 20
-26.21157013386692
 30
0.0
 10
24.05677383842551
 20
-26.28243837544322
 30
0.0
  0
SPLINE
  5
43
330
1F
100
AcDbEntity
  8
0
  6
Continuous
 62
     7
370
    15
100
AcDbSpline
210
0.0
220
0.0
230
1.0
 70
     8
 71
     3
 72
    21
 73
    17
 74
     0
 42
0.00000001
 43
0.00000001
 40
0.0
 40
0.0
 40
0.0
 40
0.0
 40
0.0958713248429166
 40
0.150956837624498
 40
0.2115496027359834
 40
0.2770444132293841
 40
0.3474484883349497
 40
0.4236598130863394
 40
0.5038987729989385
 40
0.5837762878049886
 40
0.6578151999838339
 40
0.7254933038467682
 40
0.7879485799750928
 40
0.8464814794666756
 40
0.9005104538453347
 40
1.0
 40
1.0
 40
1.0
 40
1.0
 10
26.36326328330433
 20
-55.1721959985863
 30
0.0
 10
25.90698446775989
 20
-54.3741402444799
 30
0.0
 10
25.30876465370024
 20
-53.05757461854952
 30
0.0
 10
24.41725149231077
 20
-51.23851225939976
 30
0.0
 10
23.70378383106239
 20
-49.65696430966006
 30
0.0
 10
22.93940230707066
 20
-47.93773582568598
 30
0.0
 10
22.1389150036156
 20
-46.07100698165952
 30
0.0
 10
21.28231620444731
 20
-44.07479888010313
 30
0.0
 10
20.41025218736754
 20
-41.98647717178435
 30
0.0
 10
19.61726369520856
 20
-39.88830117725714
 30
0.0
 10
18.98560798761647
 20
-37.86094799126887
 30
0.0
 10
18.54480244755014
 20
-35.95385428670382
 30
0.0
 10
18.3019009624953
 20
-34.1608104433203
 30
0.0
 10
18.25458713432817
 20
-32.48152591322709
 30
0.0
 10
18.45629130558118
 20
-30.4558267067193
 30
0.0
 10
18.87579931144627
 20
-29.03216935498234
 30
0.0
 10
19.30696930363271
 20
-28.17845088521648
 30
0.0
  0
SPLINE
  5
44
330
1F
100
AcDbEntity
  8
0
  6
Continuous
 62
     7
370
    15
100
AcDbSpline
210
0.0
220
0.0
230
1.0
 70
     8
 71
     3
 72
    11
 73
     7
 74
     0
 42
0.00000001
 43
0.00000001
 40
0.0
 40
0.0
 40
0.0
 40
0.0
 40
0.2525896159646091
 40
0.3758110206297543
 40
0.5037703712234423
 40
1.0
 40
1.0
 40
1.0
 40
1.0
 10
35.99969799792513
 20
-64.47633986097878
 30
0.0
 10
34.85499672600039
 20
-64.23565135885066
 30
0.0
 10
33.23695781812755
 20
-63.55812305312131
 30
0.0
 10
31.34857087419465
 20
-62.18055730484778
 30
0.0
 10
29.04066419642208
 20
-59.60249702976736
 30
0.0
 10
27.50696643300737
 20
-57.15091298190168
 30
0.0
 10
26.36326328330433
 20
-55.1721959985863
 30
0.0
  0
SPLINE
  5
45
330
1F
100
AcDbEntity
  8
0
  6
Continuous
 62
     7
370
    15
100
AcDbSpline
210
0.0
220
0.0
230
1.0
 70
     8
 71
     3
 72
    14
 73
    10
 74
     0
 42
0.00000001
 43
0.00000001
 40
0.4834018585402257
 40
0.4834018585402257
 40
0.4834018585402257
 40
0.4834018585402257
 40
0.6316026904313481
 40
0.6952485179130261
 40
0.7537264178522889
 40
0.8089139513019453
 40
0.8640822288077321
 40
0.9211020333599145
 40
0.9530708460664044
 40
0.9530708460664044
 40
0.9530708460664044
 40
0.9530708460664044
 10
7.500870789168281
 20
-32.86961585785136
 30
0.0
 10
7.410528522365492
 20
-31.55508259209996
 30
0.0
 10
7.34089629152626
 20
-29.63537601725332
 30
0.0
 10
7.894520698654544
 20
-27.27053383526027
 30
0.0
 10
8.500002951707879
 20
-25.79900363469664
 30
0.0
 10
9.329876358594014
 20
-24.52173278719294
 30
0.0
 10
10.43983935482107
 20
-23.50267224502399
 30
0.0
 10
11.52779127412457
 20
-22.79491409077042
 30
0.0
 10
12.26177709299945
 20
-22.48722131342382
 30
0.0
 10
12.53000323062451
 20
-22.3874532361326
 30
0.0
  0
ARC
  5
46
330
1F
100
AcDbEntity
  8
0
  6
Continuous
 62
     7
370
    15
100
AcDbCircle
 10
12.4602792001
 20
-22.2000004165
 30
0.0
 40
0.2000000000000025
100
AcDbArc
 50
290.4029406761
 51
90.0
  0
LINE
  5
47
330
1F
100
AcDbEntity
  8
0
  6
Continuous
 62
     7
370
    15
100
AcDbLine
 10
12.4602792001
 20
-22.0000004165
 30
0.0
 11
10.0
 21
-22.0000004165
 31
0.0
  0
ARC
  5
48
330
1F
100
AcDbEntity
  8
0
  6
Continuous
 62
     7
370
    15
100
AcDbCircle
 10
10.0
 20
-12.0000004165
 30
0.0
 40
10.0
100
AcDbArc
 50
180.0
 51
270.0
  0
LINE
  5
49
330
1F
100
AcDbEntity
  8
0
  6
Continuous
 62
     7
370
    15
100
AcDbLine
 10
0.0
 20
-12.0000004165
 30
0.0
 11
0.0
 21
0.0
 31
0.0
  0
LINE
  5
4A
330
1F
100
AcDbEntity
  8
0
  6
Continuous
 62
     7
370
    15
100
AcDbLine
 10
0.0
 20
0.0
 30
0.0
 11
20.0
 21
0.0
 31
0.0
  0
LINE
  5
4B
330
1F
100
AcDbEntity
  8
0
  6
Continuous
 62
     7
370
    15
100
AcDbLine
 10
20.0
 20
0.0
 30
0.0
 11
20.0
 21
3.0
 31
0.0
  0
LINE
  5
4C
330
1F
100
AcDbEntity
  8
0
  6
Continuous
 62
     7
370
    15
100
AcDbLine
 10
20.0
 20
3.0
 30
0.0
 11
130.0
 21
3.0
 31
0.0
  0
LINE
  5
4D
330
1F
100
AcDbEntity
  8
0
  6
Continuous
 62
     7
370
    15
100
AcDbLine
 10
130.0
 20
3.0
 30
0.0
 11
130.0
 21
0.0
 31
0.0
  0
LINE
  5
4E
330
1F
100
AcDbEntity
  8
0
  6
Continuous
 62
     7
370
    15
100
AcDbLine
 10
130.0
 20
0.0
 30
0.0
 11
150.0
 21
0.0
 31
0.0
  0
LINE
  5
4F
330
1F
100
AcDbEntity
  8
0
  6
Continuous
 62
     7
370
    15
100
AcDbLine
 10
150.0
 20
0.0
 30
0.0
 11
150.0
 21
-12.0000010202
 31
0.0
  0
ARC
  5
50
330
1F
100
AcDbEntity
  8
0
  6
Continuous
 62
     7
370
    15
100
AcDbCircle
 10
140.0
 20
-12.0000010202
 30
0.0
 40
10.00000000000003
100
AcDbArc
 50
269.9999966518
 51
0.0
  0
LINE
  5
51
330
1F
100
AcDbEntity
  8
0
  6
Continuous
 62
     7
370
    15
100
AcDbLine
 10
124.5047095294
 20
-22.0000004165
 30
0.0
 11
139.9999994156
 21
-22.0000010202
 31
0.0
  0
ARC
  5
52
330
1F
100
AcDbEntity
  8
0
  6
Continuous
 62
     7
370
    15
100
AcDbCircle
 10
124.5047095177
 20
-22.2000001147
 30
0.0
 40
0.1999999999999948
100
AcDbArc
 50
89.9999966518
 51
253.8563634956
  0
SPLINE
  5
53
330
1F
100
AcDbEntity
  8
0
  6
Continuous
 62
     7
370
    15
100
AcDbSpline
210
0.0
220
0.0
230
1.0
 70
     8
 71
     3
 72
     9
 73
     5
 74
     0
 42
0.00000001
 43
0.00000001
 40
0.0450756114380752
 40
0.0450756114380752
 40
0.0450756114380752
 40
0.0450756114380752
 40
0.089127697642027
 40
0.3160648216997774
 40
0.3160648216997774
 40
0.3160648216997774
 40
0.3160648216997774
 10
124.4491002571252
 20
-22.39211364915946
 30
0.0
 10
124.9061022839728
 20
-22.52439763872177
 30
0.0
 10
127.7092394304392
 20
-23.36638111073766
 30
0.0
 10
130.4556446747349
 20
-24.39809865094374
 30
0.0
 10
132.6572429549228
 20
-25.48103102595143
 30
0.0
  0
SPLINE
  5
54
330
1F
100
AcDbEntity
  8
0
  6
Continuous
 62
     7
370
    15
100
AcDbSpline
210
0.0
220
0.0
230
1.0
 70
     8
 71
     3
 72
    13
 73
     9
 74
     0
 42
0.00000001
 43
0.00000001
 40
0.0
 40
0.0
 40
0.0
 40
0.0
 40
0.1659222452190706
 40
0.2852195597142422
 40
0.4287589254252223
 40
0.5807506487531009
 40
0.7257150261494874
 40
1.0
 40
1.0
 40
1.0
 40
1.0
 10
132.6572429549228
 20
-25.48103102595143
 30
0.0
 10
133.4848371429515
 20
-25.90472314749554
 30
0.0
 10
134.8179176203159
 20
-26.7847948690095
 30
0.0
 10
136.7620720767208
 20
-28.18932504919421
 30
0.0
 10
138.5862429907133
 20
-29.62405517083545
 30
0.0
 10
140.4706583203834
 20
-31.21405906000953
 30
0.0
 10
142.7317788490898
 20
-33.47702333169494
 30
0.0
 10
144.1909611365589
 20
-35.3233374127316
 30
0.0
 10
145.010644049528
 20
-36.62254783595925
 30
0.0
  0
SPLINE
  5
55
330
1F
100
AcDbEntity
  8
0
  6
Continuous
 62
     7
370
    15
100
AcDbSpline
210
0.0
220
0.0
230
1.0
 70
     8
 71
     3
 72
    13
 73
     9
 74
     0
 42
0.00000001
 43
0.00000001
 40
0.0
 40
0.0
 40
0.0
 40
0.0
 40
0.3011526467705263
 40
0.4252077495609512
 40
0.5356407800086289
 40
0.6423314118529038
 40
0.7498558962744877
 40
1.0
 40
1.0
 40
1.0
 40
1.0
 10
145.010644049528
 20
-36.62254783595925
 30
0.0
 10
145.5661076722009
 20
-37.50321702106547
 30
0.0
 10
146.3096384682026
 20
-38.81642535416923
 30
0.0
 10
146.691602689127
 20
-40.65621714666057
 30
0.0
 10
146.6813954423382
 20
-41.85285187293158
 30
0.0
 10
146.3926383853006
 20
-42.96282556801847
 30
0.0
 10
145.5114558652124
 20
-44.34160973037684
 30
0.0
 10
144.5153536512211
 20
-45.13486966888773
 30
0.0
 10
143.7401202027727
 20
-45.53576128396551
 30
0.0
  0
SPLINE
  5
56
330
1F
100
AcDbEntity
  8
0
  6
Continuous
 62
     7
370
    15
100
AcDbSpline
210
0.0
220
0.0
230
1.0
 70
     8
 71
     2
 72
     6
 73
     3
 74
     0
 42
0.00000001
 43
0.00000001
 40
0.0
 40
0.0
 40
0.0
 40
1.0
 40
1.0
 40
1.0
 10
143.7401202027727
 20
-45.53576128396551
 30
0.0
 10
142.2043379006116
 20
-46.74620012664486
 30
0.0
 10
140.378118639051
 20
-47.45132031445807
 30
0.0
  0
SPLINE
  5
57
330
1F
100
AcDbEntity
  8
0
  6
Continuous
 62
     7
370
    15
100
AcDbSpline
210
0.0
220
0.0
230
1.0
 70
     8
 71
     3
 72
     9
 73
     5
 74
     0
 42
0.00000001
 43
0.00000001
 40
0.0
 40
0.0
 40
0.0
 40
0.0
 40
0.4560602422281458
 40
1.0
 40
1.0
 40
1.0
 40
1.0
 10
140.378118639051
 20
-47.45132031445807
 30
0.0
 10
139.641240612086
 20
-47.66286658917235
 30
0.0
 10
138.0140547176936
 20
-48.09655182174024
 30
0.0
 10
136.446057803877
 20
-48.71253212814081
 30
0.0
 10
135.5696745421003
 20
-48.9759489305644
 30
0.0
  0
SPLINE
  5
58
330
1F
100
AcDbEntity
  8
0
  6
Continuous
 62
     7
370
    15
100
AcDbSpline
210
0.0
220
0.0
230
1.0
 70
     8
 71
     3
 72
    13
 73
     9
 74
     0
 42
0.00000001
 43
0.00000001
 40
0.0
 40
0.0
 40
0.0
 40
0.0
 40
0.2315928027584893
 40
0.3614022208756953
 40
0.501690594588734
 40
0.6408705673201898
 40
0.7683120010028508
 40
1.0
 40
1.0
 40
1.0
 40
1.0
 10
135.5696745421003
 20
-48.97594893056439
 30
0.0
 10
137.0333265341224
 20
-49.22755893458915
 30
0.0
 10
139.2552329702408
 20
-49.91462843756004
 30
0.0
 10
142.1699934408312
 20
-51.26998654424209
 30
0.0
 10
144.4763420152934
 20
-52.51486201992223
 30
0.0
 10
146.6581373935193
 20
-53.95320276524792
 30
0.0
 10
148.9940701531455
 20
-56.14910765386022
 30
0.0
 10
150.2442986713788
 20
-58.12335615274974
 30
0.0
 10
150.7377746202863
 20
-59.53107011899287
 30
0.0
  0
SPLINE
  5
59
330
1F
100
AcDbEntity
  8
0
  6
Continuous
 62
     7
370
    15
100
AcDbSpline
210
0.0
220
0.0
230
1.0
 70
     8
 71
     3
 72
    13
 73
     9
 74
     0
 42
0.00000001
 43
0.00000001
 40
0.0
 40
0.0
 40
0.0
 40
0.0
 40
0.2609071866773552
 40
0.3794068835067472
 40
0.5013651205062617
 40
0.6260556230118912
 40
0.7475623430567784
 40
1.0
 40
1.0
 40
1.0
 40
1.0
 10
150.7377746202863
 20
-59.53107011899287
 30
0.0
 10
151.1159401042978
 20
-60.55330238051656
 30
0.0
 10
151.4181265088688
 20
-62.19556547890692
 30
0.0
 10
150.8556047686058
 20
-64.26461297937404
 30
0.0
 10
150.0515455217628
 20
-65.59578237632243
 30
0.0
 10
148.9782957445107
 20
-66.72775906238886
 30
0.0
 10
147.2915885525082
 20
-68.0011102599145
 30
0.0
 10
145.7764491867045
 20
-68.54474233920192
 30
0.0
 10
144.7369927594576
 20
-68.75702789850811
 30
0.0
  0
SPLINE
  5
5A
330
1F
100
AcDbEntity
  8
0
  6
Continuous
 62
     7
370
    15
100
AcDbSpline
210
0.0
220
0.0
230
1.0
 70
     8
 71
     3
 72
    13
 73
     9
 74
     0
 42
0.00000001
 43
0.00000001
 40
0.0
 40
0.0
 40
0.0
 40
0.0
 40
0.229734166338984
 40
0.3601846719822167
 40
0.5010421750135485
 40
0.64029779910847
 40
0.7685667577816797
 40
1.0
 40
1.0
 40
1.0
 40
1.0
 10
144.7369927594576
 20
-68.7570278985081
 30
0.0
 10
142.6266437164477
 20
-69.15879058711253
 30
0.0
 10
139.274908271684
 20
-69.52832822640302
 30
0.0
 10
134.5928038477844
 20
-69.66334946380185
 30
0.0
 10
130.7563716434167
 20
-69.61739309265401
 30
0.0
 10
126.9419430301664
 20
-69.3454870480996
 30
0.0
 10
122.3682537697204
 20
-68.37669173510095
 30
0.0
 10
119.2255369934702
 20
-67.09574524043029
 30
0.0
 10
117.4305033145788
 20
-65.86414283204995
 30
0.0
  0
SPLINE
  5
5B
330
1F
100
AcDbEntity
  8
0
  6
Continuous
 62
     7
370
    15
100
AcDbSpline
210
0.0
220
0.0
230
1.0
 70
     8
 71
     3
 72
    11
 73
     7
 74
     0
 42
0.00000001
 43
0.00000001
 40
0.0
 40
0.0
 40
0.0
 40
0.0
 40
0.2661000295630438
 40
0.3857701176999808
 40
0.5039726431805258
 40
1.0
 40
1.0
 40
1.0
 40
1.0
 10
117.4305033145788
 20
-65.86414283204995
 30
0.0
 10
117.1372675761828
 20
-65.33140519018261
 30
0.0
 10
116.8221967268907
 20
-64.48919663864069
 30
0.0
 10
116.7991097612498
 20
-63.31901559850566
 30
0.0
 10
117.3148422230461
 20
-61.70623214043642
 30
0.0
 10
118.0107145631152
 20
-60.48367777905951
 30
0.0
 10
118.4860154334216
 20
-59.45288403611561
 30
0.0
  0
SPLINE
  5
5C
330
1F
100
AcDbEntity
  8
0
  6
Continuous
 62
     7
370
    15
100
AcDbSpline
210
0.0
220
0.0
230
1.0
 70
     8
 71
     3
 72
    19
 73
    15
 74
     0
 42
0.00000001
 43
0.00000001
 40
0.0
 40
0.0
 40
0.0
 40
0.0
 40
0.0889251960639612
 40
0.151016086546387
 40
0.2241990868024096
 40
0.3815676874694871
 40
0.5350653540218862
 40
0.6091496510855113
 40
0.6767773917307547
 40
0.7400027262452041
 40
0.7979338872724081
 40
0.8488519056305222
 40
0.8941391906757041
 40
1.0
 40
1.0
 40
1.0
 40
1.0
 10
118.4860154334216
 20
-59.45288403611561
 30
0.0
 10
119.0872959077809
 20
-59.82231304590515
 30
0.0
 10
120.1393485307577
 20
-60.40172850416673
 30
0.0
 10
121.7724990061664
 20
-61.11043594983639
 30
0.0
 10
123.9036514597056
 20
-62.03418466396755
 30
0.0
 10
126.7646961695419
 20
-63.09647109252126
 30
0.0
 10
129.7257155185692
 20
-63.88226840165563
 30
0.0
 10
132.0369279253188
 20
-64.26747235008335
 30
0.0
 10
133.6568297488378
 20
-64.45779304851288
 30
0.0
 10
135.1575881077826
 20
-64.39447608939909
 30
0.0
 10
136.5182929351733
 20
-64.26326289673847
 30
0.0
 10
137.7011387382914
 20
-63.86963604474866
 30
0.0
 10
138.9211042211169
 20
-62.73433235671881
 30
0.0
 10
139.017286525986
 20
-61.3864549261823
 30
0.0
 10
138.9316761058219
 20
-60.58658223783571
 30
0.0
  0
SPLINE
  5
5D
330
1F
100
AcDbEntity
  8
0
  6
Continuous
 62
     7
370
    15
100
AcDbSpline
210
0.0
220
0.0
230
1.0
 70
     8
 71
     3
 72
    13
 73
     9
 74
     0
 42
0.00000001
 43
0.00000001
 40
0.0
 40
0.0
 40
0.0
 40
0.0
 40
0.2494656326684364
 40
0.374352252133056
 40
0.5047306490847492
 40
0.6348277874698071
 40
0.7608900405455057
 40
1.0
 40
1.0
 40
1.0
 40
1.0
 10
138.931676105822
 20
-60.58658223783571
 30
0.0
 10
138.800477758063
 20
-59.44046813385981
 30
0.0
 10
138.3114544714972
 20
-57.73791524723334
 30
0.0
 10
137.0026562353777
 20
-55.78211295030385
 30
0.0
 10
135.7519074097973
 20
-54.49941508743728
 30
0.0
 10
134.3495748553368
 20
-53.38268933083303
 30
0.0
 10
132.4310452086541
 20
-52.1199650316774
 30
0.0
 10
130.8801080334007
 20
-51.41964871748029
 30
0.0
 10
129.8229974506226
 20
-51.0869731682501
 30
0.0
  0
SPLINE
  5
5E
330
1F
100
AcDbEntity
  8
0
  6
Continuous
 62
     7
370
    15
100
AcDbSpline
210
0.0
220
0.0
230
1.0
 70
     8
 71
     2
 72
     6
 73
     3
 74
     0
 42
0.00000001
 43
0.00000001
 40
0.0
 40
0.0
 40
0.0
 40
1.0
 40
1.0
 40
1.0
 10
129.8229974506226
 20
-51.0869731682501
 30
0.0
 10
125.7045655103122
 20
-49.68868695522438
 30
0.0
 10
121.3789004998798
 20
-49.23005369991546
 30
0.0
  0
SPLINE
  5
5F
330
1F
100
AcDbEntity
  8
0
  6
Continuous
 62
     7
370
    15
100
AcDbSpline
210
0.0
220
0.0
230
1.0
 70
     8
 71
     3
 72
     9
 73
     5
 74
     0
 42
0.00000001
 43
0.00000001
 40
0.0
 40
0.0
 40
0.0
 40
0.0
 40
0.6269224655894612
 40
1.0
 40
1.0
 40
1.0
 40
1.0
 10
121.3789004998798
 20
-49.23005369991546
 30
0.0
 10
120.2339532541207
 20
-49.01940492813129
 30
0.0
 10
118.3646189695925
 20
-48.73111981123655
 30
0.0
 10
116.7681747786759
 20
-47.61077386065717
 30
0.0
 10
116.5118168407711
 20
-46.92356425503665
 30
0.0
  0
SPLINE
  5
60
330
1F
100
AcDbEntity
  8
0
  6
Continuous
 62
     7
370
    15
100
AcDbSpline
210
0.0
220
0.0
230
1.0
 70
     8
 71
     3
 72
     9
 73
     5
 74
     0
 42
0.00000001
 43
0.00000001
 40
0.0
 40
0.0
 40
0.0
 40
0.0
 40
0.5146096335158334
 40
1.0
 40
1.0
 40
1.0
 40
1.0
 10
116.5118168407711
 20
-46.92356425503666
 30
0.0
 10
116.2963288944839
 20
-46.41340838957669
 30
0.0
 10
116.081494752916
 20
-45.37051922637586
 30
0.0
 10
115.8176822791405
 20
-44.32857147411742
 30
0.0
 10
115.5149442840862
 20
-43.89385354354329
 30
0.0
  0
SPLINE
  5
61
330
1F
100
AcDbEntity
  8
0
  6
Continuous
 62
     7
370
    15
100
AcDbSpline
210
0.0
220
0.0
230
1.0
 70
     8
 71
     3
 72
    11
 73
     7
 74
     0
 42
0.00000001
 43
0.00000001
 40
0.0
 40
0.0
 40
0.0
 40
0.0
 40
0.4947877118306766
 40
0.6207766604181312
 40
0.7446176474041217
 40
1.0
 40
1.0
 40
1.0
 40
1.0
 10
115.5149442840862
 20
-43.8938535435433
 30
0.0
 10
118.1121790232873
 20
-43.81918698164997
 30
0.0
 10
121.3233701938709
 20
-44.23475102038693
 30
0.0
 10
125.2209637508966
 20
-44.43535144639059
 30
0.0
 10
127.8444175272756
 20
-43.9913080543297
 30
0.0
 10
129.6614635118933
 20
-43.12635243431269
 30
0.0
 10
130.7612304451495
 20
-42.36922492743697
 30
0.0
  0
SPLINE
  5
62
330
1F
100
AcDbEntity
  8
0
  6
Continuous
 62
     7
370
    15
100
AcDbSpline
210
0.0
220
0.0
230
1.0
 70
     8
 71
     3
 72
    17
 73
    13
 74
     0
 42
0.00000001
 43
0.00000001
 40
0.0
 40
0.0
 40
0.0
 40
0.0
 40
0.1387516875995765
 40
0.1965996981636348
 40
0.2485703219342694
 40
0.302233016528453
 40
0.3596983036674949
 40
0.4256309236239119
 40
0.5024247093131773
 40
0.6569219172766974
 40
0.7906894974114068
 40
1.0
 40
1.0
 40
1.0
 40
1.0
 10
130.7612304451495
 20
-42.36922492743697
 30
0.0
 10
131.4599958798416
 20
-41.88096077222809
 30
0.0
 10
132.435246265574
 20
-41.09308186506781
 30
0.0
 10
133.2130867933917
 20
-39.74340103665405
 30
0.0
 10
133.4753000823357
 20
-38.7477022015804
 30
0.0
 10
133.3986419463934
 20
-37.72314659816213
 30
0.0
 10
133.045446244363
 20
-36.67382998881868
 30
0.0
 10
132.3939360899021
 20
-35.60575291921769
 30
0.0
 10
131.1715056310114
 20
-34.22115408294396
 30
0.0
 10
129.5750850693458
 20
-32.61474166251342
 30
0.0
 10
127.3194017655517
 20
-30.50814001737121
 30
0.0
 10
125.7079949469293
 20
-29.11358292173171
 30
0.0
 10
124.6236229392856
 20
-28.39346261312891
 30
0.0
  0
SPLINE
  5
63
330
1F
100
AcDbEntity
  8
0
  6
Continuous
 62
     7
370
    15
100
AcDbSpline
210
0.0
220
0.0
230
1.0
 70
     8
 71
     3
 72
    13
 73
     9
 74
     0
 42
0.00000001
 43
0.00000001
 40
0.0
 40
0.0
 40
0.0
 40
0.0
 40
0.2498229564654404
 40
0.3742977750832561
 40
0.5012044063434744
 40
0.6287407388731658
 40
0.7528751411531611
 40
1.0
 40
1.0
 40
1.0
 40
1.0
 10
124.6236229392856
 20
-28.39346261312891
 30
0.0
 10
123.039219962628
 20
-27.54878063045653
 30
0.0
 10
120.4902496555551
 20
-26.5937964051202
 30
0.0
 10
116.9086944013149
 20
-26.10423934558495
 30
0.0
 10
114.1777599958021
 20
-26.09404390230118
 30
0.0
 10
111.4701079937944
 20
-26.39219132828388
 30
0.0
 10
107.9295779464992
 20
-26.97327787726151
 30
0.0
 10
105.365020694209
 20
-27.75318024185233
 30
0.0
 10
103.7088457696218
 20
-28.39346261312891
 30
0.0
  0
SPLINE
  5
64
330
1F
100
AcDbEntity
  8
0
  6
Continuous
 62
     7
370
    15
100
AcDbSpline
210
0.0
220
0.0
230
1.0
 70
     8
 71
     3
 72
    12
 73
     8
 74
     0
 42
0.00000001
 43
0.00000001
 40
0.0704802351149178
 40
0.0704802351149178
 40
0.0704802351149178
 40
0.0704802351149178
 40
0.5775134775099771
 40
0.7224236412959633
 40
0.8460845979810805
 40
0.9570318722990248
 40
0.9646125244581127
 40
0.9646125244581127
 40
0.9646125244581127
 40
0.9646125244581127
 10
103.7088457696218
 20
-28.39346261312891
 30
0.0
 10
103.0034129057658
 20
-27.27938947039573
 30
0.0
 10
101.9922006747082
 20
-25.930353865668
 30
0.0
 10
100.9644581591358
 20
-24.18503167994091
 30
0.0
 10
100.7313371890403
 20
-23.21237830264028
 30
0.0
 10
100.7807628012075
 20
-22.57216222355452
 30
0.0
 10
100.8656655990208
 20
-22.27661787634851
 30
0.0
 10
100.871347319552
 20
-22.25779488541652
 30
0.0
  0
ARC
  5
65
330
1F
100
AcDbEntity
  8
0
  6
Continuous
 62
     7
370
    15
100
AcDbCircle
 10
100.6798798305
 20
-22.2000004165
 30
0.0
 40
0.2000000000000952
100
AcDbArc
 50
343.2035582145
 51
90.0
  0
LINE
  5
66
330
1F
100
AcDbEntity
  8
0
  6
Continuous
 62
     7
370
    15
100
AcDbLine
 10
100.6798798305
 20
-22.0000004165
 30
0.0
 11
76.5508804715
 21
-22.0000004165
 31
0.0
  0
ARC
  5
67
330
1F
100
AcDbEntity
  8
0
  6
Continuous
 62
     7
370
    15
100
AcDbCircle
 10
76.5508804715
 20
-22.2000004165
 30
0.0
 40
0.1999999999999957
100
AcDbArc
 50
90.0
 51
250.1344849587
  0
SPLINE
  5
68
330
1F
100
AcDbEntity
  8
0
  6
Continuous
 62
     7
370
    15
100
AcDbSpline
210
0.0
220
0.0
230
1.0
 70
     8
 71
     3
 72
    13
 73
     9
 74
     0
 42
0.00000001
 43
0.00000001
 40
0.0482708914953492
 40
0.0482708914953492
 40
0.0482708914953492
 40
0.0482708914953492
 40
0.1599224952270658
 40
0.2809127666533304
 40
0.3991521174811666
 40
0.5173759922917258
 40
0.639630008720208
 40
0.8974896061993435
 40
0.8974896061993435
 40
0.8974896061993435
 40
0.8974896061993435
 10
76.48291776120806
 20
-22.38809898113545
 30
0.0
 10
77.35959937216985
 20
-22.70485662630072
 30
0.0
 10
79.15461901211043
 20
-23.45097445212127
 30
0.0
 10
81.71867383262455
 20
-24.88220333529233
 30
0.0
 10
84.10110551014661
 20
-26.68986579170325
 30
0.0
 10
86.2698004070978
 20
-28.75913362487134
 30
0.0
 10
89.01915178648302
 20
-31.88211673490989
 30
0.0
 10
90.88944921943094
 20
-34.45259122116072
 30
0.0
 10
91.98093333803459
 20
-36.30980350445025
 30
0.0
  0
SPLINE
  5
69
330
1F
100
AcDbEntity
  8
0
  6
Continuous
 62
     7
370
    15
100
AcDbSpline
210
0.0
220
0.0
230
1.0
 70
     8
 71
     3
 72
    17
 73
    13
 74
     0
 42
0.00000001
 43
0.00000001
 40
0.0
 40
0.0
 40
0.0
 40
0.0
 40
0.2614847192476468
 40
0.4004192492567996
 40
0.5452187703617886
 40
0.6155485545690562
 40
0.6782340413301844
 40
0.7345836758949138
 40
0.7874072569301813
 40
0.8374178219066573
 40
0.8880943878004184
 40
1.0
 40
1.0
 40
1.0
 40
1.0
 10
91.98093333803459
 20
-36.30980350445025
 30
0.0
 10
93.6475789955813
 20
-39.06220788451056
 30
0.0
 10
95.8444951783428
 20
-43.48848527516903
 30
0.0
 10
98.14567878890549
 20
-49.79206478945901
 30
0.0
 10
99.42419913535396
 20
-53.95849287442501
 30
0.0
 10
100.1735994007507
 20
-57.29790041738571
 30
0.0
 10
100.3667068380227
 20
-59.62866896152566
 30
0.0
 10
100.2013958636827
 20
-61.74571432325521
 30
0.0
 10
99.68611328177782
 20
-63.65063313710495
 30
0.0
 10
98.77659118937295
 20
-65.32410725781476
 30
0.0
 10
97.03727852296352
 20
-67.30701927693846
 30
0.0
 10
95.24222586513926
 20
-68.30036924827603
 30
0.0
 10
93.9746784514044
 20
-68.81566746066605
 30
0.0
  0
SPLINE
  5
6A
330
1F
100
AcDbEntity
  8
0
  6
Continuous
 62
     7
370
    15
100
AcDbSpline
210
0.0
220
0.0
230
1.0
 70
     8
 71
     3
 72
     9
 73
     5
 74
     0
 42
0.00000001
 43
0.00000001
 40
0.0
 40
0.0
 40
0.0
 40
0.0
 40
0.4801146055879751
 40
1.0
 40
1.0
 40
1.0
 40
1.0
 10
93.9746784514044
 20
-68.81566746066605
 30
0.0
 10
92.88343104907659
 20
-69.22236972746886
 30
0.0
 10
90.54327712566123
 20
-69.93222552226975
 30
0.0
 10
88.10043784395391
 20
-70.07574145368616
 30
0.0
 10
86.84019838885554
 20
-70.08619130742132
 30
0.0
  0
SPLINE
  5
6B
330
1F
100
AcDbEntity
  8
0
  6
Continuous
 62
     7
370
    15
100
AcDbSpline
210
0.0
220
0.0
230
1.0
 70
     8
 71
     3
 72
    21
 73
    17
 74
     0
 42
0.00000001
 43
0.00000001
 40
0.0
 40
0.0
 40
0.0
 40
0.0
 40
0.1292754966833688
 40
0.1904410097032204
 40
0.2503159415314827
 40
0.3105464559882136
 40
0.3715204880972677
 40
0.4340424769876516
 40
0.4994653080715644
 40
0.5654212167961318
 40
0.6299894498379472
 40
0.6929682051819819
 40
0.7549491154633158
 40
0.81661855932991
 40
0.8777539331059567
 40
1.0
 40
1.0
 40
1.0
 40
1.0
 10
86.84019838885554
 20
-70.08619130742132
 30
0.0
 10
84.47371538772386
 20
-70.1169727808313
 30
0.0
 10
80.99499653190057
 20
-69.73225850105645
 30
0.0
 10
76.5725888548108
 20
-68.5099297656139
 30
0.0
 10
73.53708885912846
 20
-67.16208807546761
 30
0.0
 10
70.65686860454909
 20
-65.51469728185172
 30
0.0
 10
68.01460417089557
 20
-63.42706559466969
 30
0.0
 10
65.5403493647453
 20
-61.00825179332143
 30
0.0
 10
63.34281092844184
 20
-58.21890309727128
 30
0.0
 10
61.33572585251149
 20
-55.25176907468484
 30
0.0
 10
59.52798932343408
 20
-52.20862013316749
 30
0.0
 10
57.9899910992367
 20
-49.10279090799007
 30
0.0
 10
56.63536765634292
 20
-45.9694533910702
 30
0.0
 10
55.57253526148412
 20
-42.76009000978246
 30
0.0
 10
54.44314878868425
 20
-38.4232858910637
 30
0.0
 10
53.95395591863638
 20
-35.09771226571327
 30
0.0
 10
53.78703185249901
 20
-32.86961585785136
 30
0.0
  0
SPLINE
  5
6C
330
1F
100
AcDbEntity
  8
0
  6
Continuous
 62
     7
370
    15
100
AcDbSpline
210
0.0
220
0.0
230
1.0
 70
     8
 71
     3
 72
    14
 73
    10
 74
     0
 42
0.00000001
 43
0.00000001
 40
0.4834018580218828
 40
0.4834018580218828
 40
0.4834018580218828
 40
0.4834018580218828
 40
0.6316026899130054
 40
0.6952485173946834
 40
0.7537264173339462
 40
0.8089139507836025
 40
0.8640822282893894
 40
0.9211020328415718
 40
0.9530708452955329
 40
0.9530708452955329
 40
0.9530708452955329
 40
0.9530708452955329
 10
53.78703185249901
 20
-32.86961585785136
 30
0.0
 10
53.69668958569803
 20
-31.55508259210595
 30
0.0
 10
53.62705735485391
 20
-29.63537601724305
 30
0.0
 10
54.18068176198906
 20
-27.27053383527296
 30
0.0
 10
54.78616401502597
 20
-25.79900363465421
 30
0.0
 10
55.6160374219691
 20
-24.52173278734186
 30
0.0
 10
56.7260004179836
 20
-23.50267224445937
 30
0.0
 10
57.81395233607947
 20
-22.79491409378939
 30
0.0
 10
58.547938151539
 20
-22.48722131307069
 30
0.0
 10
58.81616428684983
 20
-22.38745323598238
 30
0.0
  0
ARC
  5
6D
330
1F
100
AcDbEntity
  8
0
  6
Continuous
 62
     7
370
    15
100
AcDbCircle
 10
58.746440256
 20
-22.2000004165
 30
0.0
 40
0.2000000000000072
100
AcDbArc
 50
290.4029407995
 51
90.0
  0
LINE
  5
6E
330
1F
100
AcDbEntity
  8
0
  6
Continuous
 62
     7
370
    15
100
AcDbLine
 10
58.746440256
 20
-22.0000004165
 30
0.0
 11
30.2647194077
 21
-22.0000004165
 31
0.0
  0
ARC
  5
6F
330
1F
100
AcDbEntity
  8
0
  6
Continuous
 62
     7
370
    15
100
AcDbCircle
 10
30.2647194077
 20
-22.2000004165
 30
0.0
 40
0.1999999999999993
100
AcDbArc
 50
90.0
 51
250.1344849404
  0
SPLINE
  5
70
330
1F
100
AcDbEntity
  8
0
  6
Continuous
 62
     7
370
    15
100
AcDbSpline
210
0.0
220
0.0
230
1.0
 70
     8
 71
     3
 72
    13
 73
     9
 74
     0
 42
0.00000001
 43
0.00000001
 40
0.0482708914928034
 40
0.0482708914928034
 40
0.0482708914928034
 40
0.0482708914928034
 40
0.1599224952270634
 40
0.2809127666533278
 40
0.3991521174811641
 40
0.5173759922917234
 40
0.6396300087202055
 40
0.8974896061993412
 40
0.8974896061993412
 40
0.8974896061993412
 40
0.8974896061993412
 10
30.19675669732383
 20
-22.38809898111381
 30
0.0
 10
31.07343830742748
 20
-22.70485662628442
 30
0.0
 10
32.86845794945417
 20
-23.45097445211089
 30
0.0
 10
35.4325127691067
 20
-24.88220333529233
 30
0.0
 10
37.81494444686543
 20
-26.68986579170324
 30
0.0
 10
39.98363934375339
 20
-28.75913362487134
 30
0.0
 10
42.73299072316205
 20
-31.88211673490989
 30
0.0
 10
44.60328815609508
 20
-34.45259122116073
 30
0.0
 10
45.69477227470386
 20
-36.30980350445025
 30
0.0
  0
SPLINE
  5
71
330
1F
100
AcDbEntity
  8
0
  6
Continuous
 62
     7
370
    15
100
AcDbSpline
210
0.0
220
0.0
230
1.0
 70
     8
 71
     3
 72
    17
 73
    13
 74
     0
 42
0.00000001
 43
0.00000001
 40
0.0
 40
0.0
 40
0.0
 40
0.0
 40
0.2614847192476467
 40
0.4004192492567996
 40
0.5452187703617886
 40
0.6155485545690562
 40
0.6782340413301844
 40
0.7345836758949139
 40
0.7874072569301813
 40
0.8374178219066575
 40
0.8880943878004183
 40
1.0
 40
1.0
 40
1.0
 40
1.0
 10
45.69477227470386
 20
-36.30980350445025
 30
0.0
 10
47.36141793225053
 20
-39.06220788451053
 30
0.0
 10
49.55833411501209
 20
-43.48848527516906
 30
0.0
 10
51.85951772557475
 20
-49.79206478945899
 30
0.0
 10
53.13803807202324
 20
-53.95849287442502
 30
0.0
 10
53.88743833741992
 20
-57.2979004173857
 30
0.0
 10
54.08054577469193
 20
-59.62866896152567
 30
0.0
 10
53.91523480035198
 20
-61.74571432325521
 30
0.0
 10
53.3999522184471
 20
-63.65063313710498
 30
0.0
 10
52.49043012604219
 20
-65.32410725781473
 30
0.0
 10
50.75111745963283
 20
-67.30701927693848
 30
0.0
 10
48.95606480180853
 20
-68.30036924827603
 30
0.0
 10
47.68851738807368
 20
-68.81566746066605
 30
0.0
  0
SPLINE
  5
72
330
1F
100
AcDbEntity
  8
0
  6
Continuous
 62
     7
370
    15
100
AcDbSpline
210
0.0
220
0.0
230
1.0
 70
     8
 71
     3
 72
     9
 73
     5
 74
     0
 42
0.00000001
 43
0.00000001
 40
0.0
 40
0.0
 40
0.0
 40
0.0
 40
0.4801146055879751
 40
1.0
 40
1.0
 40
1.0
 40
1.0
 10
47.68851738807368
 20
-68.81566746066605
 30
0.0
 10
46.59726998574588
 20
-69.22236972746887
 30
0.0
 10
44.25711606233051
 20
-69.93222552226972
 30
0.0
 10
41.81427678062317
 20
-70.07574145368618
 30
0.0
 10
40.55403732552481
 20
-70.08619130742132
 30
0.0
  0
SPLINE
  5
73
330
1F
100
AcDbEntity
  8
0
  6
Continuous
 62
     7
370
    15
100
AcDbSpline
210
0.0
220
0.0
230
1.0
 70
     8
 71
     3
 72
    21
 73
    17
 74
     0
 42
0.00000001
 43
0.00000001
 40
0.0
 40
0.0
 40
0.0
 40
0.0
 40
0.1292754966833689
 40
0.1904410097032205
 40
0.2503159415314827
 40
0.3105464559882136
 40
0.3715204880972678
 40
0.4340424769876517
 40
0.4994653080715645
 40
0.5654212167961319
 40
0.6299894498379474
 40
0.6929682051819819
 40
0.7549491154633159
 40
0.8166185593299101
 40
0.8777539331059567
 40
1.0
 40
1.0
 40
1.0
 40
1.0
 10
40.55403732552481
 20
-70.08619130742132
 30
0.0
 10
38.1875543243931
 20
-70.11697278083132
 30
0.0
 10
34.70883546856986
 20
-69.73225850105642
 30
0.0
 10
30.28642779148006
 20
-68.5099297656139
 30
0.0
 10
27.25092779579774
 20
-67.16208807546762
 30
0.0
 10
24.37070754121835
 20
-65.5146972818517
 30
0.0
 10
21.72844310756485
 20
-63.42706559466971
 30
0.0
 10
19.25418830141456
 20
-61.00825179332143
 30
0.0
 10
17.05664986511111
 20
-58.21890309727129
 30
0.0
 10
15.04956478918077
 20
-55.25176907468484
 30
0.0
 10
13.24182826010335
 20
-52.20862013316751
 30
0.0
 10
11.70383003590596
 20
-49.10279090799006
 30
0.0
 10
10.34920659301218
 20
-45.9694533910702
 30
0.0
 10
9.28637419815339
 20
-42.76009000978247
 30
0.0
 10
8.156987725353513
 20
-38.42328589106368
 30
0.0
 10
7.667794855305643
 20
-35.09771226571328
 30
0.0
 10
7.500870789168281
 20
-32.86961585785136
 30
0.0
  0
SPLINE
  5
74
330
1F
100
AcDbEntity
  8
0
  6
Continuous
 62
     7
370
    15
100
AcDbSpline
210
0.0
220
0.0
230
1.0
 70
     8
 71
     3
 72
     9
 73
     5
 74
     0
 42
0.00000001
 43
0.00000001
 40
0.0
 40
0.0
 40
0.0
 40
0.0
 40
0.4696989310470039
 40
1.0
 40
1.0
 40
1.0
 40
1.0
 10
86.70337274382035
 20
-63.47946730429388
 30
0.0
 10
86.10211277740748
 20
-63.88898445438392
 30
0.0
 10
84.63682447141191
 20
-64.3951286496192
 30
0.0
 10
83.0990284315143
 20
-64.52242378517997
 30
0.0
 10
82.28585906125585
 20
-64.47633986097878
 30
0.0
  0
SPLINE
  5
75
330
1F
100
AcDbEntity
  8
0
  6
Continuous
 62
     7
370
    15
100
AcDbSpline
210
0.0
220
0.0
230
1.0
 70
     8
 71
     3
 72
    21
 73
    17
 74
     0
 42
0.00000001
 43
0.00000001
 40
0.0
 40
0.0
 40
0.0
 40
0.0
 40
0.0995227694480108
 40
0.1579755545666039
 40
0.2243411990187233
 40
0.2956617449097442
 40
0.3678251673103742
 40
0.4405610694858482
 40
0.5146055161096617
 40
0.5885084814068864
 40
0.6597896127903983
 40
0.7286603885936845
 40
0.7960418521077255
 40
0.857776262239668
 40
0.9112651996635
 40
1.0
 40
1.0
 40
1.0
 40
1.0
 10
70.34293490175625
 20
-26.28243837544322
 30
0.0
 10
71.80045939990478
 20
-26.55679358387786
 30
0.0
 10
73.95705466824153
 20
-27.57521414905996
 30
0.0
 10
76.48935618534644
 20
-29.74298368109538
 30
0.0
 10
78.43981813514806
 20
-31.90017625903729
 30
0.0
 10
80.30661717385343
 20
-34.3856954308949
 30
0.0
 10
82.0681429400528
 20
-37.0596972270068
 30
0.0
 10
83.65859107766875
 20
-39.88618382535756
 30
0.0
 10
85.05311899670578
 20
-42.84243182569517
 30
0.0
 10
86.2512691645881
 20
-45.8594162850607
 30
0.0
 10
87.24280414386156
 20
-48.87147813409592
 30
0.0
 10
87.96148603319723
 20
-51.85997498833444
 30
0.0
 10
88.46602324151137
 20
-54.75057833616325
 30
0.0
 10
88.63564006118895
 20
-57.45233359219525
 30
0.0
 10
88.43377392678384
 20
-60.48289675721991
 30
0.0
 10
87.5589273151103
 20
-62.47144822113398
 30
0.0
 10
86.70337274382035
 20
-63.47946730429388
 30
0.0
  0
SPLINE
  5
76
330
1F
100
AcDbEntity
  8
0
  6
Continuous
 62
     7
370
    15
100
AcDbSpline
210
0.0
220
0.0
230
1.0
 70
     8
 71
     3
 72
     9
 73
     5
 74
     0
 42
0.00000001
 43
0.00000001
 40
0.0
 40
0.0
 40
0.0
 40
0.0
 40
0.4461539416245823
 40
1.0
 40
1.0
 40
1.0
 40
1.0
 10
65.59313036696344
 20
-28.17845088521648
 30
0.0
 10
65.95157720828861
 20
-27.43543386715728
 30
0.0
 10
67.45105126436825
 20
-26.22815838498085
 30
0.0
 10
69.36395231101685
 20
-26.21157013386692
 30
0.0
 10
70.34293490175625
 20
-26.28243837544322
 30
0.0
  0
SPLINE
  5
77
330
1F
100
AcDbEntity
  8
0
  6
Continuous
 62
     7
370
    15
100
AcDbSpline
210
0.0
220
0.0
230
1.0
 70
     8
 71
     3
 72
    21
 73
    17
 74
     0
 42
0.00000001
 43
0.00000001
 40
0.0
 40
0.0
 40
0.0
 40
0.0
 40
0.0958713248429166
 40
0.1509568376244982
 40
0.2115496027359834
 40
0.2770444132293841
 40
0.3474484883349497
 40
0.4236598130863394
 40
0.5038987729989385
 40
0.5837762878049887
 40
0.657815199983834
 40
0.7254933038467682
 40
0.7879485799750928
 40
0.8464814794666756
 40
0.9005104538453347
 40
1.0
 40
1.0
 40
1.0
 40
1.0
 10
72.64942434663506
 20
-55.1721959985863
 30
0.0
 10
72.19314553109062
 20
-54.37414024447993
 30
0.0
 10
71.59492571703099
 20
-53.0575746185495
 30
0.0
 10
70.70341255564149
 20
-51.23851225939976
 30
0.0
 10
69.98994489439313
 20
-49.65696430966005
 30
0.0
 10
69.22556337040139
 20
-47.93773582568598
 30
0.0
 10
68.42507606694632
 20
-46.07100698165952
 30
0.0
 10
67.56847726777805
 20
-44.07479888010313
 30
0.0
 10
66.69641325069827
 20
-41.98647717178434
 30
0.0
 10
65.90342475853927
 20
-39.88830117725715
 30
0.0
 10
65.2717690509472
 20
-37.86094799126887
 30
0.0
 10
64.83096351088088
 20
-35.95385428670381
 30
0.0
 10
64.58806202582603
 20
-34.16081044332031
 30
0.0
 10
64.5407481976589
 20
-32.48152591322709
 30
0.0
 10
64.74245236891194
 20
-30.45582670671931
 30
0.0
 10
65.161960374777
 20
-29.03216935498233
 30
0.0
 10
65.59313036696344
 20
-28.17845088521648
 30
0.0
  0
SPLINE
  5
78
330
1F
100
AcDbEntity
  8
0
  6
Continuous
 62
     7
370
    15
100
AcDbSpline
210
0.0
220
0.0
230
1.0
 70
     8
 71
     3
 72
    11
 73
     7
 74
     0
 42
0.00000001
 43
0.00000001
 40
0.0
 40
0.0
 40
0.0
 40
0.0
 40
0.2525896159646091
 40
0.3758110206297544
 40
0.5037703712234424
 40
1.0
 40
1.0
 40
1.0
 40
1.0
 10
82.28585906125585
 20
-64.47633986097878
 30
0.0
 10
81.14115778933112
 20
-64.23565135885065
 30
0.0
 10
79.52311888145829
 20
-63.55812305312132
 30
0.0
 10
77.63473193752537
 20
-62.18055730484776
 30
0.0
 10
75.32682525975281
 20
-59.60249702976739
 30
0.0
 10
73.79312749633813
 20
-57.15091298190167
 30
0.0
 10
72.64942434663506
 20
-55.17219599858629
 30
0.0
  0
ENDSEC
  0
SECTION
  2
OBJECTS
  0
DICTIONARY
  5
C
330
0
100
AcDbDictionary
281
     1
  3
ACAD_GROUP
350
D
  3
ACAD_LAYOUT
350
1A
  3
ACAD_MLEADERSTYLE
350
7B
  3
ACAD_MLINESTYLE
350
17
  3
ACAD_PLOTSETTINGS
350
19
  3
ACAD_PLOTSTYLENAME
350
E
  3
ACAD_VISUALSTYLE
350
2A
  3
AcDbVariableDictionary
350
79
  0
DICTIONARY
  5
D
102
{ACAD_REACTORS
330
C
102
}
330
C
100
AcDbDictionary
281
     1
  0
DICTIONARY
  5
1A
102
{ACAD_REACTORS
330
C
102
}
330
C
100
AcDbDictionary
281
     1
  3
Layout1
350
1E
  3
Layout2
350
26
  3
Model
350
22
  0
DICTIONARY
  5
7B
102
{ACAD_REACTORS
330
C
102
}
330
C
100
AcDbDictionary
281
     1
  0
DICTIONARY
  5
17
102
{ACAD_REACTORS
330
C
102
}
330
C
100
AcDbDictionary
281
     1
  3
Standard
350
18
  0
DICTIONARY
  5
19
102
{ACAD_REACTORS
330
C
102
}
330
C
100
AcDbDictionary
281
     1
  0
ACDBDICTIONARYWDFLT
  5
E
102
{ACAD_REACTORS
330
C
102
}
330
C
100
AcDbDictionary
281
     1
  3
Normal
350
F
100
AcDbDictionaryWithDefault
340
F
  0
DICTIONARY
  5
2A
102
{ACAD_REACTORS
330
C
102
}
330
C
100
AcDbDictionary
281
     1
  3
2dWireframe
350
2F
  3
3D Hidden
350
31
  3
3dWireframe
350
30
  3
Basic
350
32
  3
Brighten
350
36
  3
ColorChange
350
3A
  3
Conceptual
350
34
  3
Dim
350
35
  3
Facepattern
350
39
  3
Flat
350
2B
  3
FlatWithEdges
350
2C
  3
Gouraud
350
2D
  3
GouraudWithEdges
350
2E
  3
Linepattern
350
38
  3
Realistic
350
33
  3
Thicken
350
37
  0
DICTIONARY
  5
79
102
{ACAD_REACTORS
330
C
102
}
330
C
100
AcDbDictionary
281
     1
  3
DIMASSOC
350
7E
  3
HIDETEXT
350
7F
  3
PSOLHEIGHT
350
7D
  3
PSOLWIDTH
350
7C
  0
LAYOUT
  5
1E
102
{ACAD_REACTORS
330
1A
102
}
330
1A
100
AcDbPlotSettings
  1

  2
none_device
  4

  6

 40
0.0
 41
0.0
 42
0.0
 43
0.0
 44
0.0
 45
0.0
 46
0.0
 47
0.0
 48
0.0
 49
0.0
140
0.0
141
0.0
142
1.0
143
1.0
 70
   688
 72
     0
 73
     0
 74
     5
  7

 75
    16
147
1.0
148
0.0
149
0.0
100
AcDbLayout
  1
Layout1
 70
     1
 71
     1
 10
0.0
 20
0.0
 11
420.0
 21
297.0
 12
0.0
 22
0.0
 32
0.0
 14
1.0000000000E+20
 24
1.0000000000E+20
 34
1.0000000000E+20
 15
-1.0000000000E+20
 25
-1.0000000000E+20
 35
-1.0000000000E+20
146
0.0
 13
0.0
 23
0.0
 33
0.0
 16
1.0
 26
0.0
 36
0.0
 17
0.0
 27
1.0
 37
0.0
 76
     0
330
1B
  0
LAYOUT
  5
26
102
{ACAD_REACTORS
330
1A
102
}
330
1A
100
AcDbPlotSettings
  1

  2
none_device
  4

  6

 40
0.0
 41
0.0
 42
0.0
 43
0.0
 44
0.0
 45
0.0
 46
0.0
 47
0.0
 48
0.0
 49
0.0
140
0.0
141
0.0
142
1.0
143
1.0
 70
   688
 72
     0
 73
     0
 74
     5
  7

 75
    16
147
1.0
148
0.0
149
0.0
100
AcDbLayout
  1
Layout2
 70
     1
 71
     2
 10
0.0
 20
0.0
 11
0.0
 21
0.0
 12
0.0
 22
0.0
 32
0.0
 14
0.0
 24
0.0
 34
0.0
 15
0.0
 25
0.0
 35
0.0
146
0.0
 13
0.0
 23
0.0
 33
0.0
 16
1.0
 26
0.0
 36
0.0
 17
0.0
 27
1.0
 37
0.0
 76
     0
330
23
  0
LAYOUT
  5
22
102
{ACAD_REACTORS
330
1A
102
}
330
1A
100
AcDbPlotSettings
  1

  2
none_device
  4
ANSI_A_(11.00_x_8.50_Inches)
  6

 40
6.35
 41
19.05
 42
6.35000508
 43
19.05000254
 44
279.4
 45
215.9
 46
-4.95300254
 47
150.2526079864
 48
0.0
 49
0.0
140
0.0
141
0.0
142
0.0720105587
143
1.0
 70
  1696
 72
     0
 73
     0
 74
     0
  7

 75
     0
147
0.0179189148
148
0.0
149
0.0
100
AcDbLayout
  1
Model
 70
     1
 71
     0
 10
0.0
 20
0.0
 11
420.0
 21
297.0
 12
0.0
 22
0.0
 32
0.0
 14
0.0
 24
-70.0861913074
 34
0.0
 15
151.2278227257
 25
3.0
 35
0.0
146
0.0
 13
0.0
 23
0.0
 33
0.0
 16
1.0
 26
0.0
 36
0.0
 17
0.0
 27
1.0
 37
0.0
 76
     0
330
1F
331
29
  0
MLINESTYLE
  5
18
102
{ACAD_REACTORS
330
17
102
}
330
17
100
AcDbMlineStyle
  2
Standard
 70
     0
  3

 62
   256
 51
90.0
 52
90.0
 71
     2
 49
0.5
 62
   256
  6
BYLAYER
 49
-0.5
 62
   256
  6
BYLAYER
  0
ACDBPLACEHOLDER
  5
F
102
{ACAD_REACTORS
330
E
102
}
330
E
  0
VISUALSTYLE
  5
2F
102
{ACAD_REACTORS
330
2A
102
}
330
2A
100
AcDbVisualStyle
  2
2dWireframe
 70
     4
 71
     0
 72
     2
 73
     0
 90
        0
 40
-0.6
 41
-30.0
 62
     5
 63
     7
 74
     1
 91
        4
 64
     7
 65
   257
 75
     1
175
     1
 42
1.0
 92
        0
 66
   257
 43
1.0
 76
     1
 77
     6
 78
     2
 67
     7
 79
     5
170
     0
171
     0
290
     0
174
     0
 93
        1
 44
0.0
173
     0
291
     0
 45
0.0
1001
ACAD
1000
AcDbSavedByObjectVersion
1070
     0
  0
VISUALSTYLE
  5
31
102
{ACAD_REACTORS
330
2A
102
}
330
2A
100
AcDbVisualStyle
  2
3D Hidden
 70
     6
 71
     1
 72
     2
 73
     2
 90
        0
 40
-0.6
 41
-30.0
 62
     5
 63
     7
 74
     2
 91
        2
 64
     7
 65
   257
 75
     2
175
     1
 42
40.0
 92
        0
 66
   257
 43
1.0
 76
     1
 77
     6
 78
     2
 67
     7
 79
     3
170
     0
171
     0
290
     0
174
     0
 93
        1
 44
0.0
173
     0
291
     0
 45
0.0
1001
ACAD
1000
AcDbSavedByObjectVersion
1070
     0
  0
VISUALSTYLE
  5
30
102
{ACAD_REACTORS
330
2A
102
}
330
2A
100
AcDbVisualStyle
  2
3dWireframe
 70
     5
 71
     0
 72
     2
 73
     0
 90
        0
 40
-0.6
 41
-30.0
 62
     5
 63
     7
 74
     1
 91
        4
 64
     7
 65
   257
 75
     1
175
     1
 42
1.0
 92
        0
 66
   257
 43
1.0
 76
     1
 77
     6
 78
     2
 67
     7
 79
     5
170
     0
171
     0
290
     0
174
     0
 93
        1
 44
0.0
173
     0
291
     0
 45
0.0
1001
ACAD
1000
AcDbSavedByObjectVersion
1070
     0
  0
VISUALSTYLE
  5
32
102
{ACAD_REACTORS
330
2A
102
}
330
2A
100
AcDbVisualStyle
  2
Basic
 70
     7
 71
     1
 72
     0
 73
     1
 90
        0
 40
-0.6
 41
-30.0
 62
     5
 63
     7
 74
     0
 91
        4
 64
     7
 65
   257
 75
     1
175
     1
 42
1.0
 92
        8
 66
     7
 43
1.0
 76
     1
 77
     6
 78
     2
 67
     7
 79
     5
170
     0
171
     0
290
     0
174
     0
 93
        1
 44
0.0
173
     0
291
     1
 45
0.0
1001
ACAD
1000
AcDbSavedByObjectVersion
1070
     0
  0
VISUALSTYLE
  5
36
102
{ACAD_REACTORS
330
2A
102
}
330
2A
100
AcDbVisualStyle
  2
Brighten
 70
    12
 71
     2
 72
     2
 73
     0
 90
        0
 40
-0.6
 41
-30.0
 62
     5
 63
     7
 74
     1
 91
        4
 64
     7
 65
   257
 75
     1
175
     1
 42
1.0
 92
        8
 66
     7
 43
1.0
 76
     1
 77
     6
 78
     2
 67
     7
 79
     5
170
     0
171
     0
290
     0
174
     0
 93
        1
 44
50.0
173
     0
291
     1
 45
0.0
1001
ACAD
1000
AcDbSavedByObjectVersion
1070
     0
  0
VISUALSTYLE
  5
3A
102
{ACAD_REACTORS
330
2A
102
}
330
2A
100
AcDbVisualStyle
  2
ColorChange
 70
    16
 71
     2
 72
     2
 73
     3
 90
        0
 40
-0.6
 41
-30.0
 62
     5
 63
     8
 74
     1
 91
        4
 64
     7
 65
   257
 75
     1
175
     1
 42
1.0
 92
        8
 66
     8
 43
1.0
 76
     1
 77
     6
 78
     2
 67
     7
 79
     5
170
     0
171
     0
290
     0
174
     0
 93
        1
 44
0.0
173
     0
291
     1
 45
0.0
1001
ACAD
1000
AcDbSavedByObjectVersion
1070
     0
  0
VISUALSTYLE
  5
34
102
{ACAD_REACTORS
330
2A
102
}
330
2A
100
AcDbVisualStyle
  2
Conceptual
 70
     9
 71
     3
 72
     2
 73
     0
 90
        0
 40
-0.6
 41
-30.0
 62
     5
 63
     7
 74
     2
 91
        2
 64
     7
 65
   257
 75
     1
175
     1
 42
40.0
 92
        8
 66
     7
 43
1.0
 76
     1
 77
     6
 78
     2
 67
     7
 79
     3
170
     0
171
     0
290
     0
174
     0
 93
        1
 44
0.0
173
     0
291
     0
 45
0.0
1001
ACAD
1000
AcDbSavedByObjectVersion
1070
     0
  0
VISUALSTYLE
  5
35
102
{ACAD_REACTORS
330
2A
102
}
330
2A
100
AcDbVisualStyle
  2
Dim
 70
    11
 71
     2
 72
     2
 73
     0
 90
        0
 40
-0.6
 41
-30.0
 62
     5
 63
     7
 74
     1
 91
        4
 64
     7
 65
   257
 75
     1
175
     1
 42
1.0
 92
        8
 66
     7
 43
1.0
 76
     1
 77
     6
 78
     2
 67
     7
 79
     5
170
     0
171
     0
290
     0
174
     0
 93
        1
 44
-50.0
173
     0
291
     1
 45
0.0
1001
ACAD
1000
AcDbSavedByObjectVersion
1070
     0
  0
VISUALSTYLE
  5
39
102
{ACAD_REACTORS
330
2A
102
}
330
2A
100
AcDbVisualStyle
  2
Facepattern
 70
    15
 71
     2
 72
     2
 73
     0
 90
        0
 40
-0.6
 41
-30.0
 62
     5
 63
     7
 74
     1
 91
        4
 64
     7
 65
   257
 75
     1
175
     1
 42
1.0
 92
        8
 66
     7
 43
1.0
 76
     1
 77
     6
 78
     2
 67
     7
 79
     5
170
     0
171
     0
290
     0
174
     0
 93
        1
 44
0.0
173
     0
291
     1
 45
0.0
1001
ACAD
1000
AcDbSavedByObjectVersion
1070
     0
  0
VISUALSTYLE
  5
2B
102
{ACAD_REACTORS
330
2A
102
}
330
2A
100
AcDbVisualStyle
  2
Flat
 70
     0
 71
     2
 72
     1
 73
     1
 90
        2
 40
-0.6
 41
30.0
 62
     5
 63
     7
 74
     0
 91
        4
 64
     7
 65
   257
 75
     1
175
     1
 42
1.0
 92
        8
 66
     7
 43
1.0
 76
     1
 77
     6
 78
     2
 67
     7
 79
     5
170
     0
171
     0
290
     0
174
     0
 93
       13
 44
0.0
173
     0
291
     1
 45
0.0
1001
ACAD
1000
AcDbSavedByObjectVersion
1070
     0
  0
VISUALSTYLE
  5
2C
102
{ACAD_REACTORS
330
2A
102
}
330
2A
100
AcDbVisualStyle
  2
FlatWithEdges
 70
     1
 71
     2
 72
     1
 73
     1
 90
        2
 40
-0.6
 41
30.0
 62
     5
 63
     7
 74
     1
 91
        4
 64
     7
 65
   257
 75
     1
175
     1
 42
1.0
 92
        0
 66
   257
 43
1.0
 76
     1
 77
     6
 78
     2
 67
     7
 79
     5
170
     0
171
     0
290
     0
174
     0
 93
       13
 44
0.0
173
     0
291
     1
 45
0.0
1001
ACAD
1000
AcDbSavedByObjectVersion
1070
     0
  0
VISUALSTYLE
  5
2D
102
{ACAD_REACTORS
330
2A
102
}
330
2A
100
AcDbVisualStyle
  2
Gouraud
 70
     2
 71
     2
 72
     2
 73
     1
 90
        2
 40
-0.6
 41
30.0
 62
     5
 63
     7
 74
     0
 91
        4
 64
     7
 65
   257
 75
     1
175
     1
 42
1.0
 92
        0
 66
     7
 43
1.0
 76
     1
 77
     6
 78
     2
 67
     7
 79
     5
170
     0
171
     0
290
     0
174
     0
 93
       13
 44
0.0
173
     0
291
     1
 45
0.0
1001
ACAD
1000
AcDbSavedByObjectVersion
1070
     0
  0
VISUALSTYLE
  5
2E
102
{ACAD_REACTORS
330
2A
102
}
330
2A
100
AcDbVisualStyle
  2
GouraudWithEdges
 70
     3
 71
     2
 72
     2
 73
     1
 90
        2
 40
-0.6
 41
30.0
 62
     5
 63
     7
 74
     1
 91
        4
 64
     7
 65
   257
 75
     1
175
     1
 42
1.0
 92
        0
 66
   257
 43
1.0
 76
     1
 77
     6
 78
     2
 67
     7
 79
     5
170
     0
171
     0
290
     0
174
     0
 93
       13
 44
0.0
173
     0
291
     1
 45
0.0
1001
ACAD
1000
AcDbSavedByObjectVersion
1070
     0
  0
VISUALSTYLE
  5
38
102
{ACAD_REACTORS
330
2A
102
}
330
2A
100
AcDbVisualStyle
  2
Linepattern
 70
    14
 71
     2
 72
     2
 73
     0
 90
        0
 40
-0.6
 41
-30.0
 62
     5
 63
     7
 74
     1
 91
        4
 64
     7
 65
   257
 75
     7
175
     7
 42
1.0
 92
        8
 66
     7
 43
1.0
 76
     1
 77
     6
 78
     2
 67
     7
 79
     5
170
     0
171
     0
290
     0
174
     0
 93
        1
 44
0.0
173
     0
291
     1
 45
0.0
1001
ACAD
1000
AcDbSavedByObjectVersion
1070
     0
  0
VISUALSTYLE
  5
33
102
{ACAD_REACTORS
330
2A
102
}
330
2A
100
AcDbVisualStyle
  2
Realistic
 70
     8
 71
     2
 72
     2
 73
     0
 90
        0
 40
-0.6
 41
-30.0
 62
     5
 63
     7
 74
     1
 91
        0
 64
     7
 65
   257
 75
     1
175
     1
 42
1.0
 92
        8
 66
     8
 43
1.0
 76
     1
 77
     6
 78
     2
 67
     7
 79
     5
170
     0
171
     0
290
     0
174
     0
 93
       13
 44
0.0
173
     0
291
     0
 45
0.0
1001
ACAD
1000
AcDbSavedByObjectVersion
1070
     0
  0
VISUALSTYLE
  5
37
102
{ACAD_REACTORS
330
2A
102
}
330
2A
100
AcDbVisualStyle
  2
Thicken
 70
    13
 71
     2
 72
     2
 73
     0
 90
        0
 40
-0.6
 41
-30.0
 62
     5
 63
     7
 74
     1
 91
        4
 64
     7
 65
   257
 75
     1
175
     1
 42
1.0
 92
       12
 66
     7
 43
1.0
 76
     1
 77
     6
 78
     2
 67
     7
 79
     5
170
     0
171
     0
290
     0
174
     0
 93
        1
 44
0.0
173
     0
291
     1
 45
0.0
1001
ACAD
1000
AcDbSavedByObjectVersion
1070
     0
  0
DICTIONARYVAR
  5
7E
102
{ACAD_REACTORS
330
79
102
}
330
79
100
DictionaryVariables
280
     0
  1
2
  0
DICTIONARYVAR
  5
7F
102
{ACAD_REACTORS
330
79
102
}
330
79
100
DictionaryVariables
280
     0
  1
1
  0
DICTIONARYVAR
  5
7D
102
{ACAD_REACTORS
330
79
102
}
330
79
100
DictionaryVariables
280
     0
  1
80.000000
  0
DICTIONARYVAR
  5
7C
102
{ACAD_REACTORS
330
79
102
}
330
79
100
DictionaryVariables
280
     0
  1
5.000000
  0
ENDSEC
  0
EOF
