  0
SECTION
  2
HEADER
  9
$ACADVER
  1
AC1015
  9
$ACADMAINTVER
 70
     6
  9
$DWGCODEPAGE
  3
ANSI_1251
  9
$INSBASE
 10
0.0
 20
0.0
 30
0.0
  9
$EXTMIN
 10
0.0
 20
-69.8757339841
 30
0.0
  9
$EXTMAX
 10
150.0
 20
3.0
 30
0.0
  9
$LIMMIN
 10
0.0
 20
0.0
  9
$LIMMAX
 10
420.0
 20
297.0
  9
$ORTHOMODE
 70
     0
  9
$REGENMODE
 70
     1
  9
$FILLMODE
 70
     1
  9
$QTEXTMODE
 70
     0
  9
$MIRRTEXT
 70
     1
  9
$LTSCALE
 40
1.0
  9
$ATTMODE
 70
     1
  9
$TEXTSIZE
 40
3.5
  9
$TRACEWID
 40
1.0
  9
$TEXTSTYLE
  7
Standard
  9
$CLAYER
  8
0
  9
$CELTYPE
  6
ByLayer
  9
$CECOLOR
 62
   256
  9
$CELTSCALE
 40
1.0
  9
$DISPSILH
 70
     0
  9
$DIMSCALE
 40
1.0
  9
$DIMASZ
 40
3.302
  9
$DIMEXO
 40
1.0
  9
$DIMDLI
 40
3.75
  9
$DIMRND
 40
0.0
  9
$DIMDLE
 40
0.0
  9
$DIMEXE
 40
1.0
  9
$DIMTP
 40
0.0
  9
$DIMTM
 40
0.0
  9
$DIMTXT
 40
3.5
  9
$DIMCEN
 40
2.5
  9
$DIMTSZ
 40
0.0
  9
$DIMTOL
 70
     0
  9
$DIMLIM
 70
     0
  9
$DIMTIH
 70
     1
  9
$DIMTOH
 70
     1
  9
$DIMSE1
 70
     0
  9
$DIMSE2
 70
     0
  9
$DIMTAD
 70
     1
  9
$DIMZIN
 70
     0
  9
$DIMBLK
  1

  9
$DIMASO
 70
     1
  9
$DIMSHO
 70
     1
  9
$DIMPOST
  1

  9
$DIMAPOST
  1

  9
$DIMALT
 70
     0
  9
$DIMALTD
 70
     3
  9
$DIMALTF
 40
0.0393700787
  9
$DIMLFAC
 40
1.0
  9
$DIMTOFL
 70
     1
  9
$DIMTVP
 40
0.0
  9
$DIMTIX
 70
     0
  9
$DIMSOXD
 70
     0
  9
$DIMSAH
 70
     0
  9
$DIMBLK1
  1

  9
$DIMBLK2
  1

  9
$DIMSTYLE
  2
ISO-25
  9
$DIMCLRD
 70
     0
  9
$DIMCLRE
 70
     0
  9
$DIMCLRT
 70
     0
  9
$DIMTFAC
 40
1.0
  9
$DIMGAP
 40
1.524
  9
$DIMJUST
 70
     0
  9
$DIMSD1
 70
     0
  9
$DIMSD2
 70
     0
  9
$DIMTOLJ
 70
     0
  9
$DIMTZIN
 70
     0
  9
$DIMALTZ
 70
     0
  9
$DIMALTTZ
 70
     0
  9
$DIMUPT
 70
     0
  9
$DIMDEC
 70
     3
  9
$DIMTDEC
 70
     3
  9
$DIMALTU
 70
     2
  9
$DIMALTTD
 70
     3
  9
$DIMTXSTY
  7
Standard
  9
$DIMAUNIT
 70
     0
  9
$DIMADEC
 70
     2
  9
$DIMALTRND
 40
0.0
  9
$DIMAZIN
 70
     0
  9
$DIMDSEP
 70
    44
  9
$DIMATFIT
 70
     3
  9
$DIMFRAC
 70
     0
  9
$DIMLDRBLK
  1

  9
$DIMLUNIT
 70
     2
  9
$DIMLWD
 70
    -2
  9
$DIMLWE
 70
    -2
  9
$DIMTMOVE
 70
     0
  9
$LUNITS
 70
     2
  9
$LUPREC
 70
     2
  9
$SKETCHINC
 40
1.0
  9
$FILLETRAD
 40
10.0
  9
$AUNITS
 70
     0
  9
$AUPREC
 70
     2
  9
$MENU
  1
.
  9
$ELEVATION
 40
0.0
  9
$PELEVATION
 40
0.0
  9
$THICKNESS
 40
0.0
  9
$LIMCHECK
 70
     0
  9
$CHAMFERA
 40
10.0
  9
$CHAMFERB
 40
10.0
  9
$CHAMFERC
 40
20.0
  9
$CHAMFERD
 40
0.0
  9
$SKPOLY
 70
     0
  9
$TDCREATE
 40
2457591.790836759
  9
$TDUCREATE
 40
2457591.665836759
  9
$TDUPDATE
 40
2457591.790836771
  9
$TDUUPDATE
 40
2457591.665836771
  9
$TDINDWG
 40
0.0000000116
  9
$TDUSRTIMER
 40
0.0000000116
  9
$USRTIMER
 70
     1
  9
$ANGBASE
 50
0.0
  9
$ANGDIR
 70
     0
  9
$PDMODE
 70
     0
  9
$PDSIZE
 40
-1.0
  9
$PLINEWID
 40
0.0
  9
$SPLFRAME
 70
     0
  9
$SPLINETYPE
 70
     6
  9
$SPLINESEGS
 70
     8
  9
$HANDSEED
  5
7D
  9
$SURFTAB1
 70
     6
  9
$SURFTAB2
 70
     6
  9
$SURFTYPE
 70
     6
  9
$SURFU
 70
     6
  9
$SURFV
 70
     6
  9
$UCSBASE
  2

  9
$UCSNAME
  2

  9
$UCSORG
 10
0.0
 20
0.0
 30
0.0
  9
$UCSXDIR
 10
1.0
 20
0.0
 30
0.0
  9
$UCSYDIR
 10
0.0
 20
1.0
 30
0.0
  9
$UCSORTHOREF
  2

  9
$UCSORTHOVIEW
 70
     0
  9
$UCSORGTOP
 10
0.0
 20
0.0
 30
0.0
  9
$UCSORGBOTTOM
 10
0.0
 20
0.0
 30
0.0
  9
$UCSORGLEFT
 10
0.0
 20
0.0
 30
0.0
  9
$UCSORGRIGHT
 10
0.0
 20
0.0
 30
0.0
  9
$UCSORGFRONT
 10
0.0
 20
0.0
 30
0.0
  9
$UCSORGBACK
 10
0.0
 20
0.0
 30
0.0
  9
$PUCSBASE
  2

  9
$PUCSNAME
  2

  9
$PUCSORG
 10
0.0
 20
0.0
 30
0.0
  9
$PUCSXDIR
 10
1.0
 20
0.0
 30
0.0
  9
$PUCSYDIR
 10
0.0
 20
1.0
 30
0.0
  9
$PUCSORTHOREF
  2

  9
$PUCSORTHOVIEW
 70
     0
  9
$PUCSORGTOP
 10
0.0
 20
0.0
 30
0.0
  9
$PUCSORGBOTTOM
 10
0.0
 20
0.0
 30
0.0
  9
$PUCSORGLEFT
 10
0.0
 20
0.0
 30
0.0
  9
$PUCSORGRIGHT
 10
0.0
 20
0.0
 30
0.0
  9
$PUCSORGFRONT
 10
0.0
 20
0.0
 30
0.0
  9
$PUCSORGBACK
 10
0.0
 20
0.0
 30
0.0
  9
$USERI1
 70
     0
  9
$USERI2
 70
     0
  9
$USERI3
 70
     0
  9
$USERI4
 70
     0
  9
$USERI5
 70
     0
  9
$USERR1
 40
0.0
  9
$USERR2
 40
0.0
  9
$USERR3
 40
0.0
  9
$USERR4
 40
0.0
  9
$USERR5
 40
0.0
  9
$WORLDVIEW
 70
     1
  9
$SHADEDGE
 70
     3
  9
$SHADEDIF
 70
    70
  9
$TILEMODE
 70
     1
  9
$MAXACTVP
 70
    64
  9
$PINSBASE
 10
0.0
 20
0.0
 30
0.0
  9
$PLIMCHECK
 70
     0
  9
$PEXTMIN
 10
1.0000000000E+20
 20
1.0000000000E+20
 30
1.0000000000E+20
  9
$PEXTMAX
 10
-1.0000000000E+20
 20
-1.0000000000E+20
 30
-1.0000000000E+20
  9
$PLIMMIN
 10
0.0
 20
0.0
  9
$PLIMMAX
 10
420.0
 20
297.0
  9
$UNITMODE
 70
     0
  9
$VISRETAIN
 70
     1
  9
$PLINEGEN
 70
     0
  9
$PSLTSCALE
 70
     1
  9
$TREEDEPTH
 70
  3020
  9
$CMLSTYLE
  2
Standard
  9
$CMLJUST
 70
     0
  9
$CMLSCALE
 40
20.0
  9
$PROXYGRAPHICS
 70
     1
  9
$MEASUREMENT
 70
     1
  9
$CELWEIGHT
370
    -1
  9
$ENDCAPS
280
     0
  9
$JOINSTYLE
280
     0
  9
$LWDISPLAY
290
     1
  9
$INSUNITS
 70
     4
  9
$HYPERLINKBASE
  1

  9
$STYLESHEET
  1

  9
$XEDIT
290
     1
  9
$CEPSNTYPE
380
     0
  9
$PSTYLEMODE
290
     1
  9
$FINGERPRINTGUID
  2
{B17BA051-2570-4CE6-9E7D-542341A05773}
  9
$VERSIONGUID
  2
{FAEB1C32-E019-11D5-929B-00C0DF256EC4}
  9
$EXTNAMES
290
     1
  9
$PSVPSCALE
 40
0.0
  9
$OLESTARTUP
290
     0
  0
ENDSEC
  0
SECTION
  2
CLASSES
  0
CLASS
  1
ACDBDICTIONARYWDFLT
  2
AcDbDictionaryWithDefault
  3
ObjectDBX Classes
 90
        0
280
     0
281
     0
  0
CLASS
  1
VISUALSTYLE
  2
AcDbVisualStyle
  3
ObjectDBX Classes
 90
     4095
280
     0
281
     0
  0
CLASS
  1
DICTIONARYVAR
  2
AcDbDictionaryVar
  3
ObjectDBX Classes
 90
        0
280
     0
281
     0
  0
CLASS
  1
ACDBPLACEHOLDER
  2
AcDbPlaceHolder
  3
ObjectDBX Classes
 90
        0
280
     0
281
     0
  0
CLASS
  1
LAYOUT
  2
AcDbLayout
  3
ObjectDBX Classes
 90
        0
280
     0
281
     0
  0
ENDSEC
  0
SECTION
  2
TABLES
  0
TABLE
  2
VPORT
  5
8
330
0
100
AcDbSymbolTable
 70
     1
  0
VPORT
  5
29
330
8
100
AcDbSymbolTableRecord
100
AcDbViewportTableRecord
  2
*Active
 70
     0
 10
0.0
 20
0.0
 11
1.0
 21
1.0
 12
75.0
 22
-33.4378669921
 13
0.0
 23
0.0
 14
10.0
 24
10.0
 15
10.0
 25
10.0
 16
0.0
 26
0.0
 36
1.0
 17
0.0
 27
0.0
 37
0.0
 40
74.3332486638
 41
2.0582983086
 42
50.0
 43
0.0
 44
0.0
 50
0.0
 51
0.0
 71
     0
 72
   100
 73
     1
 74
     3
 75
     0
 76
     0
 77
     0
 78
     0
281
     0
 65
     1
110
0.0
120
0.0
130
0.0
111
1.0
121
0.0
131
0.0
112
0.0
122
1.0
132
0.0
 79
     0
146
0.0
  0
ENDTAB
  0
TABLE
  2
LTYPE
  5
5
330
0
100
AcDbSymbolTable
 70
     6
  0
LTYPE
  5
14
330
5
100
AcDbSymbolTableRecord
100
AcDbLinetypeTableRecord
  2
ByBlock
 70
     0
  3

 72
    65
 73
     0
 40
0.0
  0
LTYPE
  5
15
330
5
100
AcDbSymbolTableRecord
100
AcDbLinetypeTableRecord
  2
ByLayer
 70
     0
  3

 72
    65
 73
     0
 40
0.0
  0
LTYPE
  5
16
330
5
100
AcDbSymbolTableRecord
100
AcDbLinetypeTableRecord
  2
Continuous
 70
     0
  3
Solid line
 72
    65
 73
     0
 40
0.0
  0
LTYPE
  5
3B
330
5
100
AcDbSymbolTableRecord
100
AcDbLinetypeTableRecord
  2
HIDDEN
 70
     0
  3
Hidden __ __ __ __ __ __ __ __ __ __ __ __ __ __
 72
    65
 73
     2
 40
1.905
 49
1.27
 74
     0
 49
-0.635
 74
     0
  0
LTYPE
  5
3C
330
5
100
AcDbSymbolTableRecord
100
AcDbLinetypeTableRecord
  2
PHANTOM
 70
     0
  3
Phantom ______  __  __  ______  __  __  ______
 72
    65
 73
     6
 40
12.7
 49
6.35
 74
     0
 49
-1.27
 74
     0
 49
1.27
 74
     0
 49
-1.27
 74
     0
 49
1.27
 74
     0
 49
-1.27
 74
     0
  0
LTYPE
  5
3D
330
5
100
AcDbSymbolTableRecord
100
AcDbLinetypeTableRecord
  2
CENTER
 70
     0
  3
Center ____ _ ____ _ ____ _ ____ _ ____ _ ____
 72
    65
 73
     4
 40
10.16
 49
6.35
 74
     0
 49
-1.27
 74
     0
 49
1.27
 74
     0
 49
-1.27
 74
     0
  0
LTYPE
  5
3E
330
5
100
AcDbSymbolTableRecord
100
AcDbLinetypeTableRecord
  2
CENTERX2
 70
     0
  3
Center (2x) ________  __  ________  __  _____
 72
    65
 73
     4
 40
20.32
 49
12.7
 74
     0
 49
-2.54
 74
     0
 49
2.54
 74
     0
 49
-2.54
 74
     0
  0
LTYPE
  5
3F
330
5
100
AcDbSymbolTableRecord
100
AcDbLinetypeTableRecord
  2
DOT2
 70
     0
  3
Dot (.5x) ........................................
 72
    65
 73
     2
 40
0.635
 49
0.0
 74
     0
 49
-0.635
 74
     0
  0
ENDTAB
  0
TABLE
  2
LAYER
  5
2
330
0
100
AcDbSymbolTable
 70
     1
  0
LAYER
  5
10
330
2
100
AcDbSymbolTableRecord
100
AcDbLayerTableRecord
  2
0
 70
     0
 62
     7
  6
Continuous
370
    -3
390
F
  0
ENDTAB
  0
TABLE
  2
STYLE
  5
3
330
0
100
AcDbSymbolTable
 70
     1
  0
STYLE
  5
11
330
3
100
AcDbSymbolTableRecord
100
AcDbTextStyleTableRecord
  2
Standard
 70
     0
 40
0.0
 41
1.0
 50
0.0
 71
     0
 42
2.5
  3
txt
  4

  0
ENDTAB
  0
TABLE
  2
VIEW
  5
6
330
0
100
AcDbSymbolTable
 70
     0
  0
ENDTAB
  0
TABLE
  2
UCS
  5
7
330
0
100
AcDbSymbolTable
 70
     0
  0
ENDTAB
  0
TABLE
  2
APPID
  5
9
330
0
100
AcDbSymbolTable
 70
     1
  0
APPID
  5
12
330
9
100
AcDbSymbolTableRecord
100
AcDbRegAppTableRecord
  2
ACAD
 70
     0
  0
ENDTAB
  0
TABLE
  2
DIMSTYLE
  5
A
330
0
100
AcDbSymbolTable
 70
     1
100
AcDbDimStyleTable
  0
DIMSTYLE
105
27
330
A
100
AcDbSymbolTableRecord
100
AcDbDimStyleTableRecord
  2
ISO-25
 70
     0
 41
2.5
 42
0.625
 43
3.75
 44
1.25
 73
     0
 74
     0
 77
     1
 78
     8
140
2.5
141
2.5
143
0.0393700787
147
0.625
171
     3
172
     1
271
     2
272
     2
274
     3
278
    44
283
     0
284
     8
340
11
  0
ENDTAB
  0
TABLE
  2
BLOCK_RECORD
  5
1
330
0
100
AcDbSymbolTable
 70
     1
  0
BLOCK_RECORD
  5
1F
330
1
100
AcDbSymbolTableRecord
100
AcDbBlockTableRecord
  2
*Model_Space
340
22
  0
BLOCK_RECORD
  5
1B
330
1
100
AcDbSymbolTableRecord
100
AcDbBlockTableRecord
  2
*Paper_Space
340
1E
  0
BLOCK_RECORD
  5
23
330
1
100
AcDbSymbolTableRecord
100
AcDbBlockTableRecord
  2
*Paper_Space0
340
26
  0
ENDTAB
  0
ENDSEC
  0
SECTION
  2
BLOCKS
  0
BLOCK
  5
20
330
1F
100
AcDbEntity
  8
0
100
AcDbBlockBegin
  2
*Model_Space
 70
     0
 10
0.0
 20
0.0
 30
0.0
  3
*Model_Space
  1

  0
ENDBLK
  5
21
330
1F
100
AcDbEntity
  8
0
100
AcDbBlockEnd
  0
BLOCK
  5
1C
330
1B
100
AcDbEntity
 67
     1
  8
0
100
AcDbBlockBegin
  2
*Paper_Space
 70
     0
 10
0.0
 20
0.0
 30
0.0
  3
*Paper_Space
  1

  0
ENDBLK
  5
1D
330
1B
100
AcDbEntity
 67
     1
  8
0
100
AcDbBlockEnd
  0
BLOCK
  5
24
330
23
100
AcDbEntity
  8
0
100
AcDbBlockBegin
  2
*Paper_Space0
 70
     0
 10
0.0
 20
0.0
 30
0.0
  3
*Paper_Space0
  1

  0
ENDBLK
  5
25
330
23
100
AcDbEntity
  8
0
100
AcDbBlockEnd
  0
ENDSEC
  0
SECTION
  2
ENTITIES
  0
SPLINE
  5
40
330
1F
100
AcDbEntity
  8
0
  6
Continuous
 62
     7
370
    15
100
AcDbSpline
210
0.0
220
0.0
230
1.0
 70
     8
 71
     3
 72
     9
 73
     5
 74
     0
 42
0.00000001
 43
0.00000001
 40
0.0
 40
0.0
 40
0.0
 40
0.0
 40
0.4696989310470039
 40
1.0
 40
1.0
 40
1.0
 40
1.0
 10
86.47060981111349
 20
-63.26900998097509
 30
0.0
 10
85.86934984470057
 20
-63.67852713106513
 30
0.0
 10
84.4040615387051
 20
-64.18467132630045
 30
0.0
 10
82.8662654988074
 20
-64.31196646186115
 30
0.0
 10
82.05309612854899
 20
-64.26588253765999
 30
0.0
  0
SPLINE
  5
41
330
1F
100
AcDbEntity
  8
0
  6
Continuous
 62
     7
370
    15
100
AcDbSpline
210
0.0
220
0.0
230
1.0
 70
     8
 71
     3
 72
    21
 73
    17
 74
     0
 42
0.00000001
 43
0.00000001
 40
0.0
 40
0.0
 40
0.0
 40
0.0
 40
0.0995227694480108
 40
0.1579755545666039
 40
0.2243411990187233
 40
0.2956617449097442
 40
0.3678251673103742
 40
0.4405610694858482
 40
0.5146055161096617
 40
0.5885084814068864
 40
0.6597896127903983
 40
0.7286603885936845
 40
0.7960418521077255
 40
0.857776262239668
 40
0.9112651996635
 40
1.0
 40
1.0
 40
1.0
 40
1.0
 10
70.11017196904938
 20
-26.07198105212444
 30
0.0
 10
71.56769646719795
 20
-26.34633626055907
 30
0.0
 10
73.72429173553463
 20
-27.36475682574117
 30
0.0
 10
76.25659325263958
 20
-29.5325263577766
 30
0.0
 10
78.20705520244117
 20
-31.6897189357185
 30
0.0
 10
80.07385424114656
 20
-34.17523810757612
 30
0.0
 10
81.83538000734595
 20
-36.84923990368802
 30
0.0
 10
83.42582814496187
 20
-39.67572650203876
 30
0.0
 10
84.82035606399889
 20
-42.63197450237637
 30
0.0
 10
86.01850623188125
 20
-45.6489589617419
 30
0.0
 10
87.01004121115469
 20
-48.66102081077714
 30
0.0
 10
87.72872310049037
 20
-51.64951766501566
 30
0.0
 10
88.23326030880449
 20
-54.54012101284446
 30
0.0
 10
88.40287712848207
 20
-57.24187626887646
 30
0.0
 10
88.20101099407698
 20
-60.27243943390113
 30
0.0
 10
87.3261643824034
 20
-62.2609908978152
 30
0.0
 10
86.47060981111349
 20
-63.26900998097509
 30
0.0
  0
SPLINE
  5
42
330
1F
100
AcDbEntity
  8
0
  6
Continuous
 62
     7
370
    15
100
AcDbSpline
210
0.0
220
0.0
230
1.0
 70
     8
 71
     3
 72
     9
 73
     5
 74
     0
 42
0.00000001
 43
0.00000001
 40
0.0
 40
0.0
 40
0.0
 40
0.0
 40
0.4461539416245818
 40
1.0
 40
1.0
 40
1.0
 40
1.0
 10
65.36036743425657
 20
-27.9679935618977
 30
0.0
 10
65.71881427558174
 20
-27.22497654383847
 30
0.0
 10
67.2182883316614
 20
-26.01770106166209
 30
0.0
 10
69.13118937830997
 20
-26.00111281054813
 30
0.0
 10
70.11017196904938
 20
-26.07198105212443
 30
0.0
  0
SPLINE
  5
43
330
1F
100
AcDbEntity
  8
0
  6
Continuous
 62
     7
370
    15
100
AcDbSpline
210
0.0
220
0.0
230
1.0
 70
     8
 71
     3
 72
    21
 73
    17
 74
     0
 42
0.00000001
 43
0.00000001
 40
0.0
 40
0.0
 40
0.0
 40
0.0
 40
0.0958713248429165
 40
0.1509568376244981
 40
0.2115496027359834
 40
0.277044413229384
 40
0.3474484883349497
 40
0.4236598130863393
 40
0.5038987729989384
 40
0.5837762878049884
 40
0.6578151999838336
 40
0.725493303846768
 40
0.7879485799750927
 40
0.8464814794666755
 40
0.9005104538453345
 40
1.0
 40
1.0
 40
1.0
 40
1.0
 10
72.4166614139282
 20
-54.96173867526751
 30
0.0
 10
71.96038259838373
 20
-54.16368292116113
 30
0.0
 10
71.36216278432411
 20
-52.84711729523073
 30
0.0
 10
70.47064962293463
 20
-51.02805493608098
 30
0.0
 10
69.75718196168624
 20
-49.44650698634128
 30
0.0
 10
68.99280043769453
 20
-47.72727850236718
 30
0.0
 10
68.19231313423946
 20
-45.86054965834074
 30
0.0
 10
67.33571433507117
 20
-43.86434155678434
 30
0.0
 10
66.46365031799141
 20
-41.77601984846557
 30
0.0
 10
65.67066182583244
 20
-39.67784385393837
 30
0.0
 10
65.03900611824034
 20
-37.65049066795007
 30
0.0
 10
64.598200578174
 20
-35.74339696338503
 30
0.0
 10
64.35529909311916
 20
-33.95035312000152
 30
0.0
 10
64.30798526495204
 20
-32.27106858990831
 30
0.0
 10
64.50968943620506
 20
-30.24536938340051
 30
0.0
 10
64.9291974420701
 20
-28.82171203166354
 30
0.0
 10
65.36036743425657
 20
-27.9679935618977
 30
0.0
  0
SPLINE
  5
44
330
1F
100
AcDbEntity
  8
0
  6
Continuous
 62
     7
370
    15
100
AcDbSpline
210
0.0
220
0.0
230
1.0
 70
     8
 71
     3
 72
    11
 73
     7
 74
     0
 42
0.00000001
 43
0.00000001
 40
0.0
 40
0.0
 40
0.0
 40
0.0
 40
0.2525896159646091
 40
0.3758110206297544
 40
0.5037703712234424
 40
1.0
 40
1.0
 40
1.0
 40
1.0
 10
82.05309612854899
 20
-64.26588253765999
 30
0.0
 10
80.90839485662427
 20
-64.02519403553188
 30
0.0
 10
79.29035594875141
 20
-63.34766572980252
 30
0.0
 10
77.4019690048185
 20
-61.97009998152899
 30
0.0
 10
75.09406232704593
 20
-59.39203970644857
 30
0.0
 10
73.56036456363128
 20
-56.94045565858291
 30
0.0
 10
72.4166614139282
 20
-54.9617386752675
 30
0.0
  0
SPLINE
  5
45
330
1F
100
AcDbEntity
  8
0
  6
Continuous
 62
     7
370
    15
100
AcDbSpline
210
0.0
220
0.0
230
1.0
 70
     8
 71
     3
 72
    14
 73
    10
 74
     0
 42
0.00000001
 43
0.00000001
 40
0.5102170753386274
 40
0.5102170753386274
 40
0.5102170753386274
 40
0.5102170753386274
 40
0.6584179072297498
 40
0.7220637347114278
 40
0.7805416346506906
 40
0.835729168100347
 40
0.8908974456061338
 40
0.9479172501583162
 40
0.95947669470681
 40
0.95947669470681
 40
0.95947669470681
 40
0.95947669470681
 10
7.268107856461413
 20
-32.65915853453258
 30
0.0
 10
7.177765589658565
 20
-31.34462526877804
 30
0.0
 10
7.108133358819496
 20
-29.4249186939399
 30
0.0
 10
7.661757765947549
 20
-27.06007651193486
 30
0.0
 10
8.267240019001441
 20
-25.58854631140004
 30
0.0
 10
9.097113425885633
 20
-24.31127546379625
 30
0.0
 10
10.20707642211994
 20
-23.29221492200063
 30
0.0
 10
11.14099886334339
 20
-22.68465937414217
 30
0.0
 10
11.69561937546219
 20
-22.42469795240759
 30
0.0
 10
11.78999091225746
 20
-22.38278089153161
 30
0.0
  0
ARC
  5
46
330
1F
100
AcDbEntity
  8
0
  6
Continuous
 62
     7
370
    15
100
AcDbCircle
 10
11.7088050205
 20
-22.2000000091
 30
0.0
 40
0.2000000000000135
100
AcDbArc
 50
293.9493849435
 51
90.0
  0
LINE
  5
47
330
1F
100
AcDbEntity
  8
0
  6
Continuous
 62
     7
370
    15
100
AcDbLine
 10
11.7088050205
 20
-22.0000000091
 30
0.0
 11
10.0
 21
-22.0000000091
 31
0.0
  0
ARC
  5
48
330
1F
100
AcDbEntity
  8
0
  6
Continuous
 62
     7
370
    15
100
AcDbCircle
 10
10.0
 20
-12.0000000091
 30
0.0
 40
10.0
100
AcDbArc
 50
180.0
 51
270.0
  0
LINE
  5
49
330
1F
100
AcDbEntity
  8
0
  6
Continuous
 62
     7
370
    15
100
AcDbLine
 10
0.0
 20
-12.0000000091
 30
0.0
 11
0.0
 21
0.0
 31
0.0
  0
LINE
  5
4A
330
1F
100
AcDbEntity
  8
0
  6
Continuous
 62
     7
370
    15
100
AcDbLine
 10
0.0
 20
0.0
 30
0.0
 11
20.0
 21
0.0
 31
0.0
  0
LINE
  5
4B
330
1F
100
AcDbEntity
  8
0
  6
Continuous
 62
     7
370
    15
100
AcDbLine
 10
20.0
 20
0.0
 30
0.0
 11
20.0
 21
3.0
 31
0.0
  0
LINE
  5
4C
330
1F
100
AcDbEntity
  8
0
  6
Continuous
 62
     7
370
    15
100
AcDbLine
 10
20.0
 20
3.0
 30
0.0
 11
130.0
 21
3.0
 31
0.0
  0
LINE
  5
4D
330
1F
100
AcDbEntity
  8
0
  6
Continuous
 62
     7
370
    15
100
AcDbLine
 10
130.0
 20
3.0
 30
0.0
 11
130.0
 21
0.0
 31
0.0
  0
LINE
  5
4E
330
1F
100
AcDbEntity
  8
0
  6
Continuous
 62
     7
370
    15
100
AcDbLine
 10
130.0
 20
0.0
 30
0.0
 11
150.0
 21
0.0
 31
0.0
  0
LINE
  5
4F
330
1F
100
AcDbEntity
  8
0
  6
Continuous
 62
     7
370
    15
100
AcDbLine
 10
150.0
 20
0.0
 30
0.0
 11
150.0
 21
-12.000001024
 31
0.0
  0
ARC
  5
50
330
1F
100
AcDbEntity
  8
0
  6
Continuous
 62
     7
370
    15
100
AcDbCircle
 10
140.0
 20
-12.000001024
 30
0.0
 40
10.00000000000003
100
AcDbArc
 50
269.9999966518
 51
0.0
  0
LINE
  5
51
330
1F
100
AcDbEntity
  8
0
  6
Continuous
 62
     7
370
    15
100
AcDbLine
 10
139.9999994156
 20
-22.000001024
 30
0.0
 11
129.9533724809
 21
-22.0000004369
 31
0.0
  0
ARC
  5
52
330
1F
100
AcDbEntity
  8
0
  6
Continuous
 62
     7
370
    15
100
AcDbCircle
 10
129.9533724692
 20
-22.2000004369
 30
0.0
 40
0.2000000000000357
100
AcDbArc
 50
89.9999966518
 51
199.5202631504
  0
SPLINE
  5
53
330
1F
100
AcDbEntity
  8
0
  6
Continuous
 62
     7
370
    15
100
AcDbSpline
210
0.0
220
0.0
230
1.0
 70
     8
 71
     3
 72
    10
 73
     6
 74
     0
 42
0.00000001
 43
0.00000001
 40
0.0220762473805397
 40
0.0220762473805397
 40
0.0220762473805397
 40
0.0220762473805397
 40
0.2290459123737475
 40
0.4789175041528714
 40
0.9811268007502763
 40
0.9811268007502763
 40
0.9811268007502763
 40
0.9811268007502763
 10
129.7648677934989
 20
-22.26682847925709
 30
0.0
 10
130.0603910215273
 20
-23.10042330421706
 30
0.0
 10
130.7265659450315
 20
-24.93512697248342
 30
0.0
 10
132.1382425028965
 20
-28.78196969121626
 30
0.0
 10
133.1826230993966
 20
-31.82318029282157
 30
0.0
 10
133.6950038689712
 20
-33.91013586056853
 30
0.0
  0
SPLINE
  5
54
330
1F
100
AcDbEntity
  8
0
  6
Continuous
 62
     7
370
    15
100
AcDbSpline
210
0.0
220
0.0
230
1.0
 70
     8
 71
     3
 72
     9
 73
     5
 74
     0
 42
0.00000001
 43
0.00000001
 40
0.0
 40
0.0
 40
0.0
 40
0.0
 40
0.5797937014190768
 40
1.0
 40
1.0
 40
1.0
 40
1.0
 10
133.6950038689712
 20
-33.91013586056853
 30
0.0
 10
135.1197952527103
 20
-34.03938156429794
 30
0.0
 10
137.5819971505801
 20
-34.18921830530268
 30
0.0
 10
140.0464549626437
 20
-34.30991217137879
 30
0.0
 10
141.0835887008711
 20
-34.30106627495476
 30
0.0
  0
LINE
  5
55
330
1F
100
AcDbEntity
  8
0
  6
Continuous
 62
     7
370
    15
100
AcDbLine
 10
141.0835887009
 20
-34.301066275
 30
0.0
 11
143.7810085601
 21
-40.3800342187
 31
0.0
  0
LINE
  5
56
330
1F
100
AcDbEntity
  8
0
  6
Continuous
 62
     7
370
    15
100
AcDbLine
 10
143.7810085601
 20
-40.3800342187
 30
0.0
 11
136.060132876
 21
-40.634138988
 31
0.0
  0
LINE
  5
57
330
1F
100
AcDbEntity
  8
0
  6
Continuous
 62
     7
370
    15
100
AcDbLine
 10
136.060132876
 20
-40.634138988
 30
0.0
 11
138.4448084038
 21
-47.3776886362
 31
0.0
  0
LINE
  5
58
330
1F
100
AcDbEntity
  8
0
  6
Continuous
 62
     7
370
    15
100
AcDbLine
 10
138.4448084038
 20
-47.3776886362
 30
0.0
 11
145.6183815078
 21
-68.4097449302
 31
0.0
  0
LINE
  5
59
330
1F
100
AcDbEntity
  8
0
  6
Continuous
 62
     7
370
    15
100
AcDbLine
 10
145.6183815078
 20
-68.4097449302
 30
0.0
 11
136.196958521
 21
-68.4097449302
 31
0.0
  0
SPLINE
  5
5A
330
1F
100
AcDbEntity
  8
0
  6
Continuous
 62
     7
370
    15
100
AcDbSpline
210
0.0
220
0.0
230
1.0
 70
     8
 71
     3
 72
    13
 73
     9
 74
     0
 42
0.00000001
 43
0.00000001
 40
0.0
 40
0.0
 40
0.0
 40
0.0
 40
0.219455938175447
 40
0.3442693092085309
 40
0.4794969750914362
 40
0.617068471149097
 40
0.7493876520667837
 40
1.0
 40
1.0
 40
1.0
 40
1.0
 10
136.1969585210432
 20
-68.40974493015416
 30
0.0
 10
134.0651551546827
 20
-66.8105102750047
 30
0.0
 10
130.6955317111625
 20
-64.33606398189606
 30
0.0
 10
125.9919121543033
 20
-60.90379591113735
 30
0.0
 10
122.0738574417706
 20
-58.08238485282508
 30
0.0
 10
118.1239261814105
 20
-55.14827853156716
 30
0.0
 10
113.2283497269409
 20
-51.14675290157517
 30
0.0
 10
109.8154934746362
 20
-47.98168453629216
 30
0.0
 10
107.6981313122863
 20
-45.79442045791021
 30
0.0
  0
SPLINE
  5
5B
330
1F
100
AcDbEntity
  8
0
  6
Continuous
 62
     7
370
    15
100
AcDbSpline
210
0.0
220
0.0
230
1.0
 70
     8
 71
     3
 72
    11
 73
     7
 74
     0
 42
0.00000001
 43
0.00000001
 40
0.0
 40
0.0
 40
0.0
 40
0.0
 40
0.5390491653074815
 40
0.6611416528343645
 40
0.7755565889040831
 40
1.0
 40
1.0
 40
1.0
 40
1.0
 10
107.6981313122863
 20
-45.79442045791021
 30
0.0
 10
106.3367729519454
 20
-44.30244977226958
 30
0.0
 10
104.4710286340343
 20
-42.68666384153915
 30
0.0
 10
102.396096661335
 20
-40.65761877225118
 30
0.0
 10
101.3491237085068
 20
-39.28388910231875
 30
0.0
 10
100.7560179112277
 20
-38.15452256472741
 30
0.0
 10
100.5050116875795
 20
-37.35032350716745
 30
0.0
  0
SPLINE
  5
5C
330
1F
100
AcDbEntity
  8
0
  6
Continuous
 62
     7
370
    15
100
AcDbSpline
210
0.0
220
0.0
230
1.0
 70
     8
 71
     2
 72
     6
 73
     3
 74
     0
 42
0.00000001
 43
0.00000001
 40
0.0
 40
0.0
 40
0.0
 40
1.0
 40
1.0
 40
1.0
 10
100.5050116875795
 20
-37.35032350716745
 30
0.0
 10
99.83040447630222
 20
-35.69232246643936
 30
0.0
 10
99.7036043380877
 20
-33.91013586056853
 30
0.0
  0
LINE
  5
5D
330
1F
100
AcDbEntity
  8
0
  6
Continuous
 62
     7
370
    15
100
AcDbLine
 10
99.7036043381
 20
-33.9101358606
 30
0.0
 11
121.8693588338
 21
-33.9101358606
 31
0.0
  0
LINE
  5
5E
330
1F
100
AcDbEntity
  8
0
  6
Continuous
 62
     7
370
    15
100
AcDbLine
 10
121.8693588338
 20
-33.9101358606
 30
0.0
 11
118.2322883496
 21
-22.1409488066
 31
0.0
  0
ARC
  5
5F
330
1F
100
AcDbEntity
  8
0
  6
Continuous
 62
     7
370
    15
100
AcDbCircle
 10
118.0412047148
 20
-22.2000000091
 30
0.0
 40
0.2000000000000019
100
AcDbArc
 50
17.1728896347
 51
90.0
  0
LINE
  5
60
330
1F
100
AcDbEntity
  8
0
  6
Continuous
 62
     7
370
    15
100
AcDbLine
 10
118.0412047148
 20
-22.0000000091
 30
0.0
 11
76.8824668063
 21
-22.0000000091
 31
0.0
  0
ARC
  5
61
330
1F
100
AcDbEntity
  8
0
  6
Continuous
 62
     7
370
    15
100
AcDbCircle
 10
76.8824668063
 20
-22.2000000091
 30
0.0
 40
0.2000000000000031
100
AcDbArc
 50
90.0
 51
248.9556220849
  0
SPLINE
  5
62
330
1F
100
AcDbEntity
  8
0
  6
Continuous
 62
     7
370
    15
100
AcDbSpline
210
0.0
220
0.0
230
1.0
 70
     8
 71
     3
 72
    13
 73
     9
 74
     0
 42
0.00000001
 43
0.00000001
 40
0.0452883265911457
 40
0.0452883265911457
 40
0.0452883265911457
 40
0.0452883265911457
 40
0.1330542783248519
 40
0.2540445497511166
 40
0.3722839005789527
 40
0.490507775389512
 40
0.6127617918179942
 40
0.8706213892971296
 40
0.8706213892971296
 40
0.8706213892971296
 40
0.8706213892971296
 10
76.81064861868857
 20
-22.38666052430812
 30
0.0
 10
77.49442917885074
 20
-22.64974712569867
 30
0.0
 10
79.09639981900763
 20
-23.33794563286824
 30
0.0
 10
81.48591089975444
 20
-24.67174601372568
 30
0.0
 10
83.86834257748298
 20
-26.47940846792034
 30
0.0
 10
86.03703747437899
 20
-28.54867630168087
 30
0.0
 10
88.7863888537847
 20
-31.67165941149933
 30
0.0
 10
90.65668628671955
 20
-34.24213389789045
 30
0.0
 10
91.74817040532771
 20
-36.09934618113147
 30
0.0
  0
SPLINE
  5
63
330
1F
100
AcDbEntity
  8
0
  6
Continuous
 62
     7
370
    15
100
AcDbSpline
210
0.0
220
0.0
230
1.0
 70
     8
 71
     3
 72
    17
 73
    13
 74
     0
 42
0.00000001
 43
0.00000001
 40
0.0
 40
0.0
 40
0.0
 40
0.0
 40
0.2614847192476468
 40
0.4004192492567996
 40
0.5452187703617886
 40
0.6155485545690562
 40
0.6782340413301844
 40
0.7345836758949138
 40
0.7874072569301813
 40
0.8374178219066573
 40
0.8880943878004184
 40
1.0
 40
1.0
 40
1.0
 40
1.0
 10
91.74817040532771
 20
-36.09934618113147
 30
0.0
 10
93.41481606287444
 20
-38.85175056119179
 30
0.0
 10
95.61173224563592
 20
-43.27802795185026
 30
0.0
 10
97.91291585619861
 20
-49.58160746614022
 30
0.0
 10
99.19143620264708
 20
-53.74803555110623
 30
0.0
 10
99.94083646804378
 20
-57.08744309406692
 30
0.0
 10
100.1339439053158
 20
-59.41821163820688
 30
0.0
 10
99.96863293097586
 20
-61.53525699993642
 30
0.0
 10
99.45335034907094
 20
-63.44017581378619
 30
0.0
 10
98.54382825666606
 20
-65.11364993449598
 30
0.0
 10
96.80451559025668
 20
-67.09656195361966
 30
0.0
 10
95.00946293243238
 20
-68.08991192495726
 30
0.0
 10
93.74191551869754
 20
-68.60521013734726
 30
0.0
  0
SPLINE
  5
64
330
1F
100
AcDbEntity
  8
0
  6
Continuous
 62
     7
370
    15
100
AcDbSpline
210
0.0
220
0.0
230
1.0
 70
     8
 71
     3
 72
     9
 73
     5
 74
     0
 42
0.00000001
 43
0.00000001
 40
0.0
 40
0.0
 40
0.0
 40
0.0
 40
0.4801146055879751
 40
1.0
 40
1.0
 40
1.0
 40
1.0
 10
93.74191551869754
 20
-68.60521013734726
 30
0.0
 10
92.65066811636973
 20
-69.01191240415008
 30
0.0
 10
90.31051419295436
 20
-69.72176819895093
 30
0.0
 10
87.86767491124704
 20
-69.8652841303674
 30
0.0
 10
86.60743545614866
 20
-69.87573398410252
 30
0.0
  0
SPLINE
  5
65
330
1F
100
AcDbEntity
  8
0
  6
Continuous
 62
     7
370
    15
100
AcDbSpline
210
0.0
220
0.0
230
1.0
 70
     8
 71
     3
 72
    21
 73
    17
 74
     0
 42
0.00000001
 43
0.00000001
 40
0.0
 40
0.0
 40
0.0
 40
0.0
 40
0.1292754966833688
 40
0.1904410097032204
 40
0.2503159415314827
 40
0.3105464559882136
 40
0.3715204880972677
 40
0.4340424769876516
 40
0.4994653080715644
 40
0.5654212167961318
 40
0.6299894498379472
 40
0.6929682051819819
 40
0.7549491154633158
 40
0.81661855932991
 40
0.8777539331059567
 40
1.0
 40
1.0
 40
1.0
 40
1.0
 10
86.60743545614866
 20
-69.87573398410252
 30
0.0
 10
84.24095245501695
 20
-69.90651545751254
 30
0.0
 10
80.76223359919372
 20
-69.52180117773764
 30
0.0
 10
76.33982592210393
 20
-68.29947244229513
 30
0.0
 10
73.3043259264216
 20
-66.95163075214884
 30
0.0
 10
70.42410567184223
 20
-65.30423995853293
 30
0.0
 10
67.78184123818872
 20
-63.21660827135092
 30
0.0
 10
65.30758643203842
 20
-60.79779447000265
 30
0.0
 10
63.11004799573498
 20
-58.00844577395249
 30
0.0
 10
61.10296291980463
 20
-55.04131175136605
 30
0.0
 10
59.29522639072722
 20
-51.99816280984871
 30
0.0
 10
57.75722816652982
 20
-48.89233358467129
 30
0.0
 10
56.40260472363606
 20
-45.75899606775142
 30
0.0
 10
55.33977232877724
 20
-42.54963268646367
 30
0.0
 10
54.21038585597739
 20
-38.21282856774491
 30
0.0
 10
53.72119298592949
 20
-34.88725494239448
 30
0.0
 10
53.55426891979215
 20
-32.65915853453257
 30
0.0
  0
SPLINE
  5
66
330
1F
100
AcDbEntity
  8
0
  6
Continuous
 62
     7
370
    15
100
AcDbSpline
210
0.0
220
0.0
230
1.0
 70
     8
 71
     3
 72
    14
 73
    10
 74
     0
 42
0.00000001
 43
0.00000001
 40
0.5102170753386265
 40
0.5102170753386265
 40
0.5102170753386265
 40
0.5102170753386265
 40
0.6584179072297491
 40
0.722063734711427
 40
0.7805416346506898
 40
0.8357291681003463
 40
0.890897445606133
 40
0.9479172501583155
 40
0.9594766947068091
 40
0.9594766947068091
 40
0.9594766947068091
 40
0.9594766947068091
 10
53.55426891979215
 20
-32.65915853453257
 30
0.0
 10
53.46392665298931
 20
-31.34462526877803
 30
0.0
 10
53.39429442215021
 20
-29.42491869393992
 30
0.0
 10
53.94791882927829
 20
-27.06007651193486
 30
0.0
 10
54.55340108233218
 20
-25.58854631140004
 30
0.0
 10
55.38327448921635
 20
-24.31127546379625
 30
0.0
 10
56.49323748545068
 20
-23.29221492200064
 30
0.0
 10
57.42715992667411
 20
-22.68465937414217
 30
0.0
 10
57.98178043879291
 20
-22.42469795240759
 30
0.0
 10
58.07615197558818
 20
-22.38278089153161
 30
0.0
  0
ARC
  5
67
330
1F
100
AcDbEntity
  8
0
  6
Continuous
 62
     7
370
    15
100
AcDbCircle
 10
57.9949660838
 20
-22.2000000091
 30
0.0
 40
0.2000000000000206
100
AcDbArc
 50
293.9493849435
 51
90.0
  0
LINE
  5
68
330
1F
100
AcDbEntity
  8
0
  6
Continuous
 62
     7
370
    15
100
AcDbLine
 10
57.9949660838
 20
-22.0000000091
 30
0.0
 11
30.5963057562
 21
-22.0000000091
 31
0.0
  0
ARC
  5
69
330
1F
100
AcDbEntity
  8
0
  6
Continuous
 62
     7
370
    15
100
AcDbCircle
 10
30.5963057562
 20
-22.2000000091
 30
0.0
 40
0.1999999999999987
100
AcDbArc
 50
90.0
 51
248.9556221242
  0
SPLINE
  5
6A
330
1F
100
AcDbEntity
  8
0
  6
Continuous
 62
     7
370
    15
100
AcDbSpline
210
0.0
220
0.0
230
1.0
 70
     8
 71
     3
 72
    13
 73
     9
 74
     0
 42
0.00000001
 43
0.00000001
 40
0.0452883272780531
 40
0.0452883272780531
 40
0.0452883272780531
 40
0.0452883272780531
 40
0.1330542784401572
 40
0.2540445498664216
 40
0.3722839006942579
 40
0.4905077755048172
 40
0.6127617919332993
 40
0.8706213894124349
 40
0.8706213894124349
 40
0.8706213894124349
 40
0.8706213894124349
 10
30.52448756871779
 20
-22.38666052435739
 30
0.0
 10
31.20826812429282
 20
-22.64974712344432
 30
0.0
 10
32.8102387598539
 20
-23.33794563910635
 30
0.0
 10
35.19974983642371
 20
-24.67174601257122
 30
0.0
 10
37.58218151415223
 20
-26.47940846822613
 30
0.0
 10
39.75087641104827
 20
-28.54867630159632
 30
0.0
 10
42.50022779045393
 20
-31.67165941155979
 30
0.0
 10
44.37052522338887
 20
-34.24213389785849
 30
0.0
 10
45.46200934199699
 20
-36.09934618113147
 30
0.0
  0
SPLINE
  5
6B
330
1F
100
AcDbEntity
  8
0
  6
Continuous
 62
     7
370
    15
100
AcDbSpline
210
0.0
220
0.0
230
1.0
 70
     8
 71
     3
 72
    17
 73
    13
 74
     0
 42
0.00000001
 43
0.00000001
 40
0.0
 40
0.0
 40
0.0
 40
0.0
 40
0.2614847192476467
 40
0.4004192492567996
 40
0.5452187703617886
 40
0.6155485545690562
 40
0.6782340413301844
 40
0.7345836758949139
 40
0.7874072569301813
 40
0.8374178219066575
 40
0.8880943878004183
 40
1.0
 40
1.0
 40
1.0
 40
1.0
 10
45.46200934199699
 20
-36.09934618113147
 30
0.0
 10
47.12865499954366
 20
-38.85175056119176
 30
0.0
 10
49.32557118230522
 20
-43.27802795185028
 30
0.0
 10
51.62675479286788
 20
-49.58160746614021
 30
0.0
 10
52.90527513931637
 20
-53.74803555110623
 30
0.0
 10
53.65467540471304
 20
-57.08744309406693
 30
0.0
 10
53.84778284198507
 20
-59.41821163820689
 30
0.0
 10
53.68247186764512
 20
-61.53525699993643
 30
0.0
 10
53.16718928574024
 20
-63.44017581378618
 30
0.0
 10
52.25766719333532
 20
-65.11364993449597
 30
0.0
 10
50.51835452692598
 20
-67.09656195361968
 30
0.0
 10
48.72330186910165
 20
-68.08991192495724
 30
0.0
 10
47.45575445536681
 20
-68.60521013734726
 30
0.0
  0
SPLINE
  5
6C
330
1F
100
AcDbEntity
  8
0
  6
Continuous
 62
     7
370
    15
100
AcDbSpline
210
0.0
220
0.0
230
1.0
 70
     8
 71
     3
 72
     9
 73
     5
 74
     0
 42
0.00000001
 43
0.00000001
 40
0.0
 40
0.0
 40
0.0
 40
0.0
 40
0.4801146055879751
 40
1.0
 40
1.0
 40
1.0
 40
1.0
 10
47.45575445536682
 20
-68.60521013734726
 30
0.0
 10
46.36450705303901
 20
-69.01191240415008
 30
0.0
 10
44.02435312962366
 20
-69.72176819895093
 30
0.0
 10
41.58151384791629
 20
-69.8652841303674
 30
0.0
 10
40.32127439281794
 20
-69.87573398410252
 30
0.0
  0
SPLINE
  5
6D
330
1F
100
AcDbEntity
  8
0
  6
Continuous
 62
     7
370
    15
100
AcDbSpline
210
0.0
220
0.0
230
1.0
 70
     8
 71
     3
 72
    21
 73
    17
 74
     0
 42
0.00000001
 43
0.00000001
 40
0.0
 40
0.0
 40
0.0
 40
0.0
 40
0.1292754966833689
 40
0.1904410097032205
 40
0.2503159415314827
 40
0.3105464559882136
 40
0.3715204880972678
 40
0.4340424769876517
 40
0.4994653080715645
 40
0.5654212167961319
 40
0.6299894498379474
 40
0.6929682051819819
 40
0.7549491154633159
 40
0.8166185593299101
 40
0.8777539331059567
 40
1.0
 40
1.0
 40
1.0
 40
1.0
 10
40.32127439281794
 20
-69.87573398410252
 30
0.0
 10
37.95479139168626
 20
-69.90651545751254
 30
0.0
 10
34.47607253586298
 20
-69.52180117773767
 30
0.0
 10
30.0536648587732
 20
-68.2994724422951
 30
0.0
 10
27.01816486309087
 20
-66.95163075214884
 30
0.0
 10
24.13794460851149
 20
-65.30423995853292
 30
0.0
 10
21.49568017485798
 20
-63.21660827135092
 30
0.0
 10
19.02142536870769
 20
-60.79779447000264
 30
0.0
 10
16.82388693240425
 20
-58.0084457739525
 30
0.0
 10
14.8168018564739
 20
-55.04131175136605
 30
0.0
 10
13.00906532739648
 20
-51.99816280984871
 30
0.0
 10
11.4710671031991
 20
-48.89233358467128
 30
0.0
 10
10.11644366030532
 20
-45.75899606775142
 30
0.0
 10
9.053611265446525
 20
-42.54963268646367
 30
0.0
 10
7.924224792646645
 20
-38.21282856774491
 30
0.0
 10
7.43503192259878
 20
-34.88725494239448
 30
0.0
 10
7.268107856461413
 20
-32.65915853453257
 30
0.0
  0
SPLINE
  5
6E
330
1F
100
AcDbEntity
  8
0
  6
Continuous
 62
     7
370
    15
100
AcDbSpline
210
0.0
220
0.0
230
1.0
 70
     8
 71
     3
 72
     9
 73
     5
 74
     0
 42
0.00000001
 43
0.00000001
 40
0.0
 40
0.0
 40
0.0
 40
0.0
 40
0.4696989310470047
 40
1.0
 40
1.0
 40
1.0
 40
1.0
 10
40.18444874778277
 20
-63.26900998097509
 30
0.0
 10
39.58318878136985
 20
-63.67852713106512
 30
0.0
 10
38.11790047537437
 20
-64.18467132630045
 30
0.0
 10
36.58010443547668
 20
-64.31196646186118
 30
0.0
 10
35.76693506521826
 20
-64.26588253765999
 30
0.0
  0
SPLINE
  5
6F
330
1F
100
AcDbEntity
  8
0
  6
Continuous
 62
     7
370
    15
100
AcDbSpline
210
0.0
220
0.0
230
1.0
 70
     8
 71
     3
 72
    21
 73
    17
 74
     0
 42
0.00000001
 43
0.00000001
 40
0.0
 40
0.0
 40
0.0
 40
0.0
 40
0.0995227694480109
 40
0.1579755545666041
 40
0.2243411990187233
 40
0.2956617449097444
 40
0.3678251673103743
 40
0.4405610694858484
 40
0.5146055161096619
 40
0.5885084814068866
 40
0.6597896127903984
 40
0.7286603885936848
 40
0.7960418521077257
 40
0.8577762622396681
 40
0.9112651996635001
 40
1.0
 40
1.0
 40
1.0
 40
1.0
 10
23.82401090571864
 20
-26.07198105212444
 30
0.0
 10
25.28153540386722
 20
-26.34633626055907
 30
0.0
 10
27.4381306722039
 20
-27.36475682574117
 30
0.0
 10
29.97043218930884
 20
-29.53252635777659
 30
0.0
 10
31.92089413911045
 20
-31.68971893571851
 30
0.0
 10
33.78769317781584
 20
-34.17523810757612
 30
0.0
 10
35.5492189440152
 20
-36.84923990368802
 30
0.0
 10
37.13966708163116
 20
-39.67572650203876
 30
0.0
 10
38.53419500066816
 20
-42.63197450237638
 30
0.0
 10
39.73234516855051
 20
-45.6489589617419
 30
0.0
 10
40.72388014782396
 20
-48.66102081077715
 30
0.0
 10
41.44256203715964
 20
-51.64951766501567
 30
0.0
 10
41.94709924547374
 20
-54.54012101284445
 30
0.0
 10
42.11671606515137
 20
-57.24187626887647
 30
0.0
 10
41.91484993074624
 20
-60.27243943390113
 30
0.0
 10
41.0400033190727
 20
-62.26099089781518
 30
0.0
 10
40.18444874778277
 20
-63.26900998097509
 30
0.0
  0
SPLINE
  5
70
330
1F
100
AcDbEntity
  8
0
  6
Continuous
 62
     7
370
    15
100
AcDbSpline
210
0.0
220
0.0
230
1.0
 70
     8
 71
     3
 72
     9
 73
     5
 74
     0
 42
0.00000001
 43
0.00000001
 40
0.0
 40
0.0
 40
0.0
 40
0.0
 40
0.4461539416245828
 40
1.0
 40
1.0
 40
1.0
 40
1.0
 10
19.07420637092584
 20
-27.9679935618977
 30
0.0
 10
19.432653212251
 20
-27.22497654383849
 30
0.0
 10
20.93212726833065
 20
-26.01770106166207
 30
0.0
 10
22.84502831497924
 20
-26.00111281054813
 30
0.0
 10
23.82401090571864
 20
-26.07198105212443
 30
0.0
  0
SPLINE
  5
71
330
1F
100
AcDbEntity
  8
0
  6
Continuous
 62
     7
370
    15
100
AcDbSpline
210
0.0
220
0.0
230
1.0
 70
     8
 71
     3
 72
    21
 73
    17
 74
     0
 42
0.00000001
 43
0.00000001
 40
0.0
 40
0.0
 40
0.0
 40
0.0
 40
0.0958713248429166
 40
0.150956837624498
 40
0.2115496027359834
 40
0.2770444132293841
 40
0.3474484883349497
 40
0.4236598130863394
 40
0.5038987729989385
 40
0.5837762878049886
 40
0.6578151999838339
 40
0.7254933038467682
 40
0.7879485799750928
 40
0.8464814794666756
 40
0.9005104538453347
 40
1.0
 40
1.0
 40
1.0
 40
1.0
 10
26.13050035059746
 20
-54.96173867526751
 30
0.0
 10
25.67422153505302
 20
-54.16368292116115
 30
0.0
 10
25.07600172099339
 20
-52.84711729523073
 30
0.0
 10
24.1844885596039
 20
-51.02805493608097
 30
0.0
 10
23.47102089835553
 20
-49.44650698634127
 30
0.0
 10
22.70663937436379
 20
-47.72727850236719
 30
0.0
 10
21.90615207090873
 20
-45.86054965834072
 30
0.0
 10
21.04955327174044
 20
-43.86434155678435
 30
0.0
 10
20.17748925466068
 20
-41.77601984846557
 30
0.0
 10
19.38450076250169
 20
-39.67784385393836
 30
0.0
 10
18.7528450549096
 20
-37.65049066795008
 30
0.0
 10
18.31203951484327
 20
-35.74339696338504
 30
0.0
 10
18.06913802978843
 20
-33.95035312000152
 30
0.0
 10
18.02182420162131
 20
-32.27106858990831
 30
0.0
 10
18.22352837287431
 20
-30.24536938340052
 30
0.0
 10
18.6430363787394
 20
-28.82171203166355
 30
0.0
 10
19.07420637092584
 20
-27.9679935618977
 30
0.0
  0
SPLINE
  5
72
330
1F
100
AcDbEntity
  8
0
  6
Continuous
 62
     7
370
    15
100
AcDbSpline
210
0.0
220
0.0
230
1.0
 70
     8
 71
     3
 72
    11
 73
     7
 74
     0
 42
0.00000001
 43
0.00000001
 40
0.0
 40
0.0
 40
0.0
 40
0.0
 40
0.2525896159646091
 40
0.3758110206297543
 40
0.5037703712234423
 40
1.0
 40
1.0
 40
1.0
 40
1.0
 10
35.76693506521826
 20
-64.26588253765999
 30
0.0
 10
34.62223379329352
 20
-64.02519403553187
 30
0.0
 10
33.00419488542069
 20
-63.34766572980254
 30
0.0
 10
31.11580794148778
 20
-61.97009998152898
 30
0.0
 10
28.80790126371521
 20
-59.39203970644859
 30
0.0
 10
27.2742035003005
 20
-56.94045565858289
 30
0.0
 10
26.13050035059746
 20
-54.96173867526751
 30
0.0
  0
SPLINE
  5
73
330
1F
100
AcDbEntity
  8
0
  6
Continuous
 62
     7
370
    15
100
AcDbSpline
210
0.0
220
0.0
230
1.0
 70
     8
 71
     3
 72
     9
 73
     5
 74
     0
 42
0.00000001
 43
0.00000001
 40
0.0
 40
0.0
 40
0.0
 40
0.0
 40
0.5245874276170106
 40
1.0
 40
1.0
 40
1.0
 40
1.0
 10
130.7239327196358
 20
-58.57784500834023
 30
0.0
 10
126.7670817156551
 20
-55.65109615375768
 30
0.0
 10
119.3969935755964
 20
-49.83546250778654
 30
0.0
 10
112.4550498174129
 20
-43.51489852331078
 30
0.0
 10
109.2813994905506
 20
-40.3800342186608
 30
0.0
  0
SPLINE
  5
74
330
1F
100
AcDbEntity
  8
0
  6
Continuous
 62
     7
370
    15
100
AcDbSpline
210
0.0
220
0.0
230
1.0
 70
     8
 71
     3
 72
     9
 73
     5
 74
     0
 42
0.00000001
 43
0.00000001
 40
0.0
 40
0.0
 40
0.0
 40
0.0
 40
0.5017544869764027
 40
1.0
 40
1.0
 40
1.0
 40
1.0
 10
124.2540343615435
 20
-40.63413898801185
 30
0.0
 10
125.3599288665543
 20
-43.62675881713923
 30
0.0
 10
127.4481743109544
 20
-49.63246955810295
 30
0.0
 10
129.6305911872445
 20
-55.60458289340514
 30
0.0
 10
130.7239327196358
 20
-58.57784500834023
 30
0.0
  0
SPLINE
  5
75
330
1F
100
AcDbEntity
  8
0
  6
Continuous
 62
     7
370
    15
100
AcDbSpline
210
0.0
220
0.0
230
1.0
 70
     8
 71
     3
 72
     9
 73
     5
 74
     0
 42
0.00000001
 43
0.00000001
 40
0.0
 40
0.0
 40
0.0
 40
0.0
 40
0.4996657425409833
 40
1.0
 40
1.0
 40
1.0
 40
1.0
 10
109.2813994905506
 20
-40.38003421866079
 30
0.0
 10
111.7777501107244
 20
-40.41640056194018
 30
0.0
 10
116.7693664624633
 20
-40.21586984783493
 30
0.0
 10
121.7677415821761
 20
-40.35917562040522
 30
0.0
 10
124.2540343615435
 20
-40.63413898801185
 30
0.0
  0
ENDSEC
  0
SECTION
  2
OBJECTS
  0
DICTIONARY
  5
C
330
0
100
AcDbDictionary
281
     1
  3
ACAD_GROUP
350
D
  3
ACAD_LAYOUT
350
1A
  3
ACAD_MLEADERSTYLE
350
78
  3
ACAD_MLINESTYLE
350
17
  3
ACAD_PLOTSETTINGS
350
19
  3
ACAD_PLOTSTYLENAME
350
E
  3
ACAD_VISUALSTYLE
350
2A
  3
AcDbVariableDictionary
350
76
  0
DICTIONARY
  5
D
102
{ACAD_REACTORS
330
C
102
}
330
C
100
AcDbDictionary
281
     1
  0
DICTIONARY
  5
1A
102
{ACAD_REACTORS
330
C
102
}
330
C
100
AcDbDictionary
281
     1
  3
Layout1
350
1E
  3
Layout2
350
26
  3
Model
350
22
  0
DICTIONARY
  5
78
102
{ACAD_REACTORS
330
C
102
}
330
C
100
AcDbDictionary
281
     1
  0
DICTIONARY
  5
17
102
{ACAD_REACTORS
330
C
102
}
330
C
100
AcDbDictionary
281
     1
  3
Standard
350
18
  0
DICTIONARY
  5
19
102
{ACAD_REACTORS
330
C
102
}
330
C
100
AcDbDictionary
281
     1
  0
ACDBDICTIONARYWDFLT
  5
E
102
{ACAD_REACTORS
330
C
102
}
330
C
100
AcDbDictionary
281
     1
  3
Normal
350
F
100
AcDbDictionaryWithDefault
340
F
  0
DICTIONARY
  5
2A
102
{ACAD_REACTORS
330
C
102
}
330
C
100
AcDbDictionary
281
     1
  3
2dWireframe
350
2F
  3
3D Hidden
350
31
  3
3dWireframe
350
30
  3
Basic
350
32
  3
Brighten
350
36
  3
ColorChange
350
3A
  3
Conceptual
350
34
  3
Dim
350
35
  3
Facepattern
350
39
  3
Flat
350
2B
  3
FlatWithEdges
350
2C
  3
Gouraud
350
2D
  3
GouraudWithEdges
350
2E
  3
Linepattern
350
38
  3
Realistic
350
33
  3
Thicken
350
37
  0
DICTIONARY
  5
76
102
{ACAD_REACTORS
330
C
102
}
330
C
100
AcDbDictionary
281
     1
  3
DIMASSOC
350
7B
  3
HIDETEXT
350
7C
  3
PSOLHEIGHT
350
7A
  3
PSOLWIDTH
350
79
  0
LAYOUT
  5
1E
102
{ACAD_REACTORS
330
1A
102
}
330
1A
100
AcDbPlotSettings
  1

  2
none_device
  4

  6

 40
0.0
 41
0.0
 42
0.0
 43
0.0
 44
0.0
 45
0.0
 46
0.0
 47
0.0
 48
0.0
 49
0.0
140
0.0
141
0.0
142
1.0
143
1.0
 70
   688
 72
     0
 73
     0
 74
     5
  7

 75
    16
147
1.0
148
0.0
149
0.0
100
AcDbLayout
  1
Layout1
 70
     1
 71
     1
 10
0.0
 20
0.0
 11
420.0
 21
297.0
 12
0.0
 22
0.0
 32
0.0
 14
1.0000000000E+20
 24
1.0000000000E+20
 34
1.0000000000E+20
 15
-1.0000000000E+20
 25
-1.0000000000E+20
 35
-1.0000000000E+20
146
0.0
 13
0.0
 23
0.0
 33
0.0
 16
1.0
 26
0.0
 36
0.0
 17
0.0
 27
1.0
 37
0.0
 76
     0
330
1B
  0
LAYOUT
  5
26
102
{ACAD_REACTORS
330
1A
102
}
330
1A
100
AcDbPlotSettings
  1

  2
none_device
  4

  6

 40
0.0
 41
0.0
 42
0.0
 43
0.0
 44
0.0
 45
0.0
 46
0.0
 47
0.0
 48
0.0
 49
0.0
140
0.0
141
0.0
142
1.0
143
1.0
 70
   688
 72
     0
 73
     0
 74
     5
  7

 75
    16
147
1.0
148
0.0
149
0.0
100
AcDbLayout
  1
Layout2
 70
     1
 71
     2
 10
0.0
 20
0.0
 11
0.0
 21
0.0
 12
0.0
 22
0.0
 32
0.0
 14
0.0
 24
0.0
 34
0.0
 15
0.0
 25
0.0
 35
0.0
146
0.0
 13
0.0
 23
0.0
 33
0.0
 16
1.0
 26
0.0
 36
0.0
 17
0.0
 27
1.0
 37
0.0
 76
     0
330
23
  0
LAYOUT
  5
22
102
{ACAD_REACTORS
330
1A
102
}
330
1A
100
AcDbPlotSettings
  1

  2
none_device
  4
ANSI_A_(11.00_x_8.50_Inches)
  6

 40
6.35
 41
19.05
 42
6.35000508
 43
19.05000254
 44
279.4
 45
215.9
 46
-4.95300254
 47
150.560762978
 48
0.0
 49
0.0
140
0.0
141
0.0
142
0.0726
143
1.0
 70
  1696
 72
     0
 73
     0
 74
     0
  7

 75
     0
147
0.0179189148
148
0.0
149
0.0
100
AcDbLayout
  1
Model
 70
     1
 71
     0
 10
0.0
 20
0.0
 11
420.0
 21
297.0
 12
0.0
 22
0.0
 32
0.0
 14
0.0
 24
-69.8757339841
 34
0.0
 15
150.0
 25
3.0
 35
0.0
146
0.0
 13
0.0
 23
0.0
 33
0.0
 16
1.0
 26
0.0
 36
0.0
 17
0.0
 27
1.0
 37
0.0
 76
     0
330
1F
331
29
  0
MLINESTYLE
  5
18
102
{ACAD_REACTORS
330
17
102
}
330
17
100
AcDbMlineStyle
  2
Standard
 70
     0
  3

 62
   256
 51
90.0
 52
90.0
 71
     2
 49
0.5
 62
   256
  6
BYLAYER
 49
-0.5
 62
   256
  6
BYLAYER
  0
ACDBPLACEHOLDER
  5
F
102
{ACAD_REACTORS
330
E
102
}
330
E
  0
VISUALSTYLE
  5
2F
102
{ACAD_REACTORS
330
2A
102
}
330
2A
100
AcDbVisualStyle
  2
2dWireframe
 70
     4
 71
     0
 72
     2
 73
     0
 90
        0
 40
-0.6
 41
-30.0
 62
     5
 63
     7
 74
     1
 91
        4
 64
     7
 65
   257
 75
     1
175
     1
 42
1.0
 92
        0
 66
   257
 43
1.0
 76
     1
 77
     6
 78
     2
 67
     7
 79
     5
170
     0
171
     0
290
     0
174
     0
 93
        1
 44
0.0
173
     0
291
     0
 45
0.0
1001
ACAD
1000
AcDbSavedByObjectVersion
1070
     0
  0
VISUALSTYLE
  5
31
102
{ACAD_REACTORS
330
2A
102
}
330
2A
100
AcDbVisualStyle
  2
3D Hidden
 70
     6
 71
     1
 72
     2
 73
     2
 90
        0
 40
-0.6
 41
-30.0
 62
     5
 63
     7
 74
     2
 91
        2
 64
     7
 65
   257
 75
     2
175
     1
 42
40.0
 92
        0
 66
   257
 43
1.0
 76
     1
 77
     6
 78
     2
 67
     7
 79
     3
170
     0
171
     0
290
     0
174
     0
 93
        1
 44
0.0
173
     0
291
     0
 45
0.0
1001
ACAD
1000
AcDbSavedByObjectVersion
1070
     0
  0
VISUALSTYLE
  5
30
102
{ACAD_REACTORS
330
2A
102
}
330
2A
100
AcDbVisualStyle
  2
3dWireframe
 70
     5
 71
     0
 72
     2
 73
     0
 90
        0
 40
-0.6
 41
-30.0
 62
     5
 63
     7
 74
     1
 91
        4
 64
     7
 65
   257
 75
     1
175
     1
 42
1.0
 92
        0
 66
   257
 43
1.0
 76
     1
 77
     6
 78
     2
 67
     7
 79
     5
170
     0
171
     0
290
     0
174
     0
 93
        1
 44
0.0
173
     0
291
     0
 45
0.0
1001
ACAD
1000
AcDbSavedByObjectVersion
1070
     0
  0
VISUALSTYLE
  5
32
102
{ACAD_REACTORS
330
2A
102
}
330
2A
100
AcDbVisualStyle
  2
Basic
 70
     7
 71
     1
 72
     0
 73
     1
 90
        0
 40
-0.6
 41
-30.0
 62
     5
 63
     7
 74
     0
 91
        4
 64
     7
 65
   257
 75
     1
175
     1
 42
1.0
 92
        8
 66
     7
 43
1.0
 76
     1
 77
     6
 78
     2
 67
     7
 79
     5
170
     0
171
     0
290
     0
174
     0
 93
        1
 44
0.0
173
     0
291
     1
 45
0.0
1001
ACAD
1000
AcDbSavedByObjectVersion
1070
     0
  0
VISUALSTYLE
  5
36
102
{ACAD_REACTORS
330
2A
102
}
330
2A
100
AcDbVisualStyle
  2
Brighten
 70
    12
 71
     2
 72
     2
 73
     0
 90
        0
 40
-0.6
 41
-30.0
 62
     5
 63
     7
 74
     1
 91
        4
 64
     7
 65
   257
 75
     1
175
     1
 42
1.0
 92
        8
 66
     7
 43
1.0
 76
     1
 77
     6
 78
     2
 67
     7
 79
     5
170
     0
171
     0
290
     0
174
     0
 93
        1
 44
50.0
173
     0
291
     1
 45
0.0
1001
ACAD
1000
AcDbSavedByObjectVersion
1070
     0
  0
VISUALSTYLE
  5
3A
102
{ACAD_REACTORS
330
2A
102
}
330
2A
100
AcDbVisualStyle
  2
ColorChange
 70
    16
 71
     2
 72
     2
 73
     3
 90
        0
 40
-0.6
 41
-30.0
 62
     5
 63
     8
 74
     1
 91
        4
 64
     7
 65
   257
 75
     1
175
     1
 42
1.0
 92
        8
 66
     8
 43
1.0
 76
     1
 77
     6
 78
     2
 67
     7
 79
     5
170
     0
171
     0
290
     0
174
     0
 93
        1
 44
0.0
173
     0
291
     1
 45
0.0
1001
ACAD
1000
AcDbSavedByObjectVersion
1070
     0
  0
VISUALSTYLE
  5
34
102
{ACAD_REACTORS
330
2A
102
}
330
2A
100
AcDbVisualStyle
  2
Conceptual
 70
     9
 71
     3
 72
     2
 73
     0
 90
        0
 40
-0.6
 41
-30.0
 62
     5
 63
     7
 74
     2
 91
        2
 64
     7
 65
   257
 75
     1
175
     1
 42
40.0
 92
        8
 66
     7
 43
1.0
 76
     1
 77
     6
 78
     2
 67
     7
 79
     3
170
     0
171
     0
290
     0
174
     0
 93
        1
 44
0.0
173
     0
291
     0
 45
0.0
1001
ACAD
1000
AcDbSavedByObjectVersion
1070
     0
  0
VISUALSTYLE
  5
35
102
{ACAD_REACTORS
330
2A
102
}
330
2A
100
AcDbVisualStyle
  2
Dim
 70
    11
 71
     2
 72
     2
 73
     0
 90
        0
 40
-0.6
 41
-30.0
 62
     5
 63
     7
 74
     1
 91
        4
 64
     7
 65
   257
 75
     1
175
     1
 42
1.0
 92
        8
 66
     7
 43
1.0
 76
     1
 77
     6
 78
     2
 67
     7
 79
     5
170
     0
171
     0
290
     0
174
     0
 93
        1
 44
-50.0
173
     0
291
     1
 45
0.0
1001
ACAD
1000
AcDbSavedByObjectVersion
1070
     0
  0
VISUALSTYLE
  5
39
102
{ACAD_REACTORS
330
2A
102
}
330
2A
100
AcDbVisualStyle
  2
Facepattern
 70
    15
 71
     2
 72
     2
 73
     0
 90
        0
 40
-0.6
 41
-30.0
 62
     5
 63
     7
 74
     1
 91
        4
 64
     7
 65
   257
 75
     1
175
     1
 42
1.0
 92
        8
 66
     7
 43
1.0
 76
     1
 77
     6
 78
     2
 67
     7
 79
     5
170
     0
171
     0
290
     0
174
     0
 93
        1
 44
0.0
173
     0
291
     1
 45
0.0
1001
ACAD
1000
AcDbSavedByObjectVersion
1070
     0
  0
VISUALSTYLE
  5
2B
102
{ACAD_REACTORS
330
2A
102
}
330
2A
100
AcDbVisualStyle
  2
Flat
 70
     0
 71
     2
 72
     1
 73
     1
 90
        2
 40
-0.6
 41
30.0
 62
     5
 63
     7
 74
     0
 91
        4
 64
     7
 65
   257
 75
     1
175
     1
 42
1.0
 92
        8
 66
     7
 43
1.0
 76
     1
 77
     6
 78
     2
 67
     7
 79
     5
170
     0
171
     0
290
     0
174
     0
 93
       13
 44
0.0
173
     0
291
     1
 45
0.0
1001
ACAD
1000
AcDbSavedByObjectVersion
1070
     0
  0
VISUALSTYLE
  5
2C
102
{ACAD_REACTORS
330
2A
102
}
330
2A
100
AcDbVisualStyle
  2
FlatWithEdges
 70
     1
 71
     2
 72
     1
 73
     1
 90
        2
 40
-0.6
 41
30.0
 62
     5
 63
     7
 74
     1
 91
        4
 64
     7
 65
   257
 75
     1
175
     1
 42
1.0
 92
        0
 66
   257
 43
1.0
 76
     1
 77
     6
 78
     2
 67
     7
 79
     5
170
     0
171
     0
290
     0
174
     0
 93
       13
 44
0.0
173
     0
291
     1
 45
0.0
1001
ACAD
1000
AcDbSavedByObjectVersion
1070
     0
  0
VISUALSTYLE
  5
2D
102
{ACAD_REACTORS
330
2A
102
}
330
2A
100
AcDbVisualStyle
  2
Gouraud
 70
     2
 71
     2
 72
     2
 73
     1
 90
        2
 40
-0.6
 41
30.0
 62
     5
 63
     7
 74
     0
 91
        4
 64
     7
 65
   257
 75
     1
175
     1
 42
1.0
 92
        0
 66
     7
 43
1.0
 76
     1
 77
     6
 78
     2
 67
     7
 79
     5
170
     0
171
     0
290
     0
174
     0
 93
       13
 44
0.0
173
     0
291
     1
 45
0.0
1001
ACAD
1000
AcDbSavedByObjectVersion
1070
     0
  0
VISUALSTYLE
  5
2E
102
{ACAD_REACTORS
330
2A
102
}
330
2A
100
AcDbVisualStyle
  2
GouraudWithEdges
 70
     3
 71
     2
 72
     2
 73
     1
 90
        2
 40
-0.6
 41
30.0
 62
     5
 63
     7
 74
     1
 91
        4
 64
     7
 65
   257
 75
     1
175
     1
 42
1.0
 92
        0
 66
   257
 43
1.0
 76
     1
 77
     6
 78
     2
 67
     7
 79
     5
170
     0
171
     0
290
     0
174
     0
 93
       13
 44
0.0
173
     0
291
     1
 45
0.0
1001
ACAD
1000
AcDbSavedByObjectVersion
1070
     0
  0
VISUALSTYLE
  5
38
102
{ACAD_REACTORS
330
2A
102
}
330
2A
100
AcDbVisualStyle
  2
Linepattern
 70
    14
 71
     2
 72
     2
 73
     0
 90
        0
 40
-0.6
 41
-30.0
 62
     5
 63
     7
 74
     1
 91
        4
 64
     7
 65
   257
 75
     7
175
     7
 42
1.0
 92
        8
 66
     7
 43
1.0
 76
     1
 77
     6
 78
     2
 67
     7
 79
     5
170
     0
171
     0
290
     0
174
     0
 93
        1
 44
0.0
173
     0
291
     1
 45
0.0
1001
ACAD
1000
AcDbSavedByObjectVersion
1070
     0
  0
VISUALSTYLE
  5
33
102
{ACAD_REACTORS
330
2A
102
}
330
2A
100
AcDbVisualStyle
  2
Realistic
 70
     8
 71
     2
 72
     2
 73
     0
 90
        0
 40
-0.6
 41
-30.0
 62
     5
 63
     7
 74
     1
 91
        0
 64
     7
 65
   257
 75
     1
175
     1
 42
1.0
 92
        8
 66
     8
 43
1.0
 76
     1
 77
     6
 78
     2
 67
     7
 79
     5
170
     0
171
     0
290
     0
174
     0
 93
       13
 44
0.0
173
     0
291
     0
 45
0.0
1001
ACAD
1000
AcDbSavedByObjectVersion
1070
     0
  0
VISUALSTYLE
  5
37
102
{ACAD_REACTORS
330
2A
102
}
330
2A
100
AcDbVisualStyle
  2
Thicken
 70
    13
 71
     2
 72
     2
 73
     0
 90
        0
 40
-0.6
 41
-30.0
 62
     5
 63
     7
 74
     1
 91
        4
 64
     7
 65
   257
 75
     1
175
     1
 42
1.0
 92
       12
 66
     7
 43
1.0
 76
     1
 77
     6
 78
     2
 67
     7
 79
     5
170
     0
171
     0
290
     0
174
     0
 93
        1
 44
0.0
173
     0
291
     1
 45
0.0
1001
ACAD
1000
AcDbSavedByObjectVersion
1070
     0
  0
DICTIONARYVAR
  5
7B
102
{ACAD_REACTORS
330
76
102
}
330
76
100
DictionaryVariables
280
     0
  1
2
  0
DICTIONARYVAR
  5
7C
102
{ACAD_REACTORS
330
76
102
}
330
76
100
DictionaryVariables
280
     0
  1
1
  0
DICTIONARYVAR
  5
7A
102
{ACAD_REACTORS
330
76
102
}
330
76
100
DictionaryVariables
280
     0
  1
80.000000
  0
DICTIONARYVAR
  5
79
102
{ACAD_REACTORS
330
76
102
}
330
76
100
DictionaryVariables
280
     0
  1
5.000000
  0
ENDSEC
  0
EOF
