  0
SECTION
  2
HEADER
  9
$ACADVER
  1
AC1015
  9
$ACADMAINTVER
 70
     6
  9
$DWGCODEPAGE
  3
ANSI_1251
  9
$INSBASE
 10
0.0
 20
0.0
 30
0.0
  9
$EXTMIN
 10
0.0
 20
-70.6594618486
 30
0.0
  9
$EXTMAX
 10
150.0
 20
3.0
 30
0.0
  9
$LIMMIN
 10
0.0
 20
0.0
  9
$LIMMAX
 10
420.0
 20
297.0
  9
$ORTHOMODE
 70
     0
  9
$REGENMODE
 70
     1
  9
$FILLMODE
 70
     1
  9
$QTEXTMODE
 70
     0
  9
$MIRRTEXT
 70
     1
  9
$LTSCALE
 40
1.0
  9
$ATTMODE
 70
     1
  9
$TEXTSIZE
 40
3.5
  9
$TRACEWID
 40
1.0
  9
$TEXTSTYLE
  7
Standard
  9
$CLAYER
  8
0
  9
$CELTYPE
  6
ByLayer
  9
$CECOLOR
 62
   256
  9
$CELTSCALE
 40
1.0
  9
$DISPSILH
 70
     0
  9
$DIMSCALE
 40
1.0
  9
$DIMASZ
 40
3.302
  9
$DIMEXO
 40
1.0
  9
$DIMDLI
 40
3.75
  9
$DIMRND
 40
0.0
  9
$DIMDLE
 40
0.0
  9
$DIMEXE
 40
1.0
  9
$DIMTP
 40
0.0
  9
$DIMTM
 40
0.0
  9
$DIMTXT
 40
3.5
  9
$DIMCEN
 40
2.5
  9
$DIMTSZ
 40
0.0
  9
$DIMTOL
 70
     0
  9
$DIMLIM
 70
     0
  9
$DIMTIH
 70
     1
  9
$DIMTOH
 70
     1
  9
$DIMSE1
 70
     0
  9
$DIMSE2
 70
     0
  9
$DIMTAD
 70
     1
  9
$DIMZIN
 70
     0
  9
$DIMBLK
  1

  9
$DIMASO
 70
     1
  9
$DIMSHO
 70
     1
  9
$DIMPOST
  1

  9
$DIMAPOST
  1

  9
$DIMALT
 70
     0
  9
$DIMALTD
 70
     3
  9
$DIMALTF
 40
0.0393700787
  9
$DIMLFAC
 40
1.0
  9
$DIMTOFL
 70
     1
  9
$DIMTVP
 40
0.0
  9
$DIMTIX
 70
     0
  9
$DIMSOXD
 70
     0
  9
$DIMSAH
 70
     0
  9
$DIMBLK1
  1

  9
$DIMBLK2
  1

  9
$DIMSTYLE
  2
ISO-25
  9
$DIMCLRD
 70
     0
  9
$DIMCLRE
 70
     0
  9
$DIMCLRT
 70
     0
  9
$DIMTFAC
 40
1.0
  9
$DIMGAP
 40
1.524
  9
$DIMJUST
 70
     0
  9
$DIMSD1
 70
     0
  9
$DIMSD2
 70
     0
  9
$DIMTOLJ
 70
     0
  9
$DIMTZIN
 70
     0
  9
$DIMALTZ
 70
     0
  9
$DIMALTTZ
 70
     0
  9
$DIMUPT
 70
     0
  9
$DIMDEC
 70
     3
  9
$DIMTDEC
 70
     3
  9
$DIMALTU
 70
     2
  9
$DIMALTTD
 70
     3
  9
$DIMTXSTY
  7
Standard
  9
$DIMAUNIT
 70
     0
  9
$DIMADEC
 70
     2
  9
$DIMALTRND
 40
0.0
  9
$DIMAZIN
 70
     0
  9
$DIMDSEP
 70
    44
  9
$DIMATFIT
 70
     3
  9
$DIMFRAC
 70
     0
  9
$DIMLDRBLK
  1

  9
$DIMLUNIT
 70
     2
  9
$DIMLWD
 70
    -2
  9
$DIMLWE
 70
    -2
  9
$DIMTMOVE
 70
     0
  9
$LUNITS
 70
     2
  9
$LUPREC
 70
     2
  9
$SKETCHINC
 40
1.0
  9
$FILLETRAD
 40
10.0
  9
$AUNITS
 70
     0
  9
$AUPREC
 70
     2
  9
$MENU
  1
.
  9
$ELEVATION
 40
0.0
  9
$PELEVATION
 40
0.0
  9
$THICKNESS
 40
0.0
  9
$LIMCHECK
 70
     0
  9
$CHAMFERA
 40
10.0
  9
$CHAMFERB
 40
10.0
  9
$CHAMFERC
 40
20.0
  9
$CHAMFERD
 40
0.0
  9
$SKPOLY
 70
     0
  9
$TDCREATE
 40
2457591.784540393
  9
$TDUCREATE
 40
2457591.659540393
  9
$TDUPDATE
 40
2457591.784540405
  9
$TDUUPDATE
 40
2457591.659540405
  9
$TDINDWG
 40
0.0000000116
  9
$TDUSRTIMER
 40
0.0000000116
  9
$USRTIMER
 70
     1
  9
$ANGBASE
 50
0.0
  9
$ANGDIR
 70
     0
  9
$PDMODE
 70
     0
  9
$PDSIZE
 40
-1.0
  9
$PLINEWID
 40
0.0
  9
$SPLFRAME
 70
     0
  9
$SPLINETYPE
 70
     6
  9
$SPLINESEGS
 70
     8
  9
$HANDSEED
  5
7E
  9
$SURFTAB1
 70
     6
  9
$SURFTAB2
 70
     6
  9
$SURFTYPE
 70
     6
  9
$SURFU
 70
     6
  9
$SURFV
 70
     6
  9
$UCSBASE
  2

  9
$UCSNAME
  2

  9
$UCSORG
 10
0.0
 20
0.0
 30
0.0
  9
$UCSXDIR
 10
1.0
 20
0.0
 30
0.0
  9
$UCSYDIR
 10
0.0
 20
1.0
 30
0.0
  9
$UCSORTHOREF
  2

  9
$UCSORTHOVIEW
 70
     0
  9
$UCSORGTOP
 10
0.0
 20
0.0
 30
0.0
  9
$UCSORGBOTTOM
 10
0.0
 20
0.0
 30
0.0
  9
$UCSORGLEFT
 10
0.0
 20
0.0
 30
0.0
  9
$UCSORGRIGHT
 10
0.0
 20
0.0
 30
0.0
  9
$UCSORGFRONT
 10
0.0
 20
0.0
 30
0.0
  9
$UCSORGBACK
 10
0.0
 20
0.0
 30
0.0
  9
$PUCSBASE
  2

  9
$PUCSNAME
  2

  9
$PUCSORG
 10
0.0
 20
0.0
 30
0.0
  9
$PUCSXDIR
 10
1.0
 20
0.0
 30
0.0
  9
$PUCSYDIR
 10
0.0
 20
1.0
 30
0.0
  9
$PUCSORTHOREF
  2

  9
$PUCSORTHOVIEW
 70
     0
  9
$PUCSORGTOP
 10
0.0
 20
0.0
 30
0.0
  9
$PUCSORGBOTTOM
 10
0.0
 20
0.0
 30
0.0
  9
$PUCSORGLEFT
 10
0.0
 20
0.0
 30
0.0
  9
$PUCSORGRIGHT
 10
0.0
 20
0.0
 30
0.0
  9
$PUCSORGFRONT
 10
0.0
 20
0.0
 30
0.0
  9
$PUCSORGBACK
 10
0.0
 20
0.0
 30
0.0
  9
$USERI1
 70
     0
  9
$USERI2
 70
     0
  9
$USERI3
 70
     0
  9
$USERI4
 70
     0
  9
$USERI5
 70
     0
  9
$USERR1
 40
0.0
  9
$USERR2
 40
0.0
  9
$USERR3
 40
0.0
  9
$USERR4
 40
0.0
  9
$USERR5
 40
0.0
  9
$WORLDVIEW
 70
     1
  9
$SHADEDGE
 70
     3
  9
$SHADEDIF
 70
    70
  9
$TILEMODE
 70
     1
  9
$MAXACTVP
 70
    64
  9
$PINSBASE
 10
0.0
 20
0.0
 30
0.0
  9
$PLIMCHECK
 70
     0
  9
$PEXTMIN
 10
1.0000000000E+20
 20
1.0000000000E+20
 30
1.0000000000E+20
  9
$PEXTMAX
 10
-1.0000000000E+20
 20
-1.0000000000E+20
 30
-1.0000000000E+20
  9
$PLIMMIN
 10
0.0
 20
0.0
  9
$PLIMMAX
 10
420.0
 20
297.0
  9
$UNITMODE
 70
     0
  9
$VISRETAIN
 70
     1
  9
$PLINEGEN
 70
     0
  9
$PSLTSCALE
 70
     1
  9
$TREEDEPTH
 70
  3020
  9
$CMLSTYLE
  2
Standard
  9
$CMLJUST
 70
     0
  9
$CMLSCALE
 40
20.0
  9
$PROXYGRAPHICS
 70
     1
  9
$MEASUREMENT
 70
     1
  9
$CELWEIGHT
370
    -1
  9
$ENDCAPS
280
     0
  9
$JOINSTYLE
280
     0
  9
$LWDISPLAY
290
     1
  9
$INSUNITS
 70
     4
  9
$HYPERLINKBASE
  1

  9
$STYLESHEET
  1

  9
$XEDIT
290
     1
  9
$CEPSNTYPE
380
     0
  9
$PSTYLEMODE
290
     1
  9
$FINGERPRINTGUID
  2
{B6495468-3958-4A2B-894C-CB8DB68C7BC8}
  9
$VERSIONGUID
  2
{FAEB1C32-E019-11D5-929B-00C0DF256EC4}
  9
$EXTNAMES
290
     1
  9
$PSVPSCALE
 40
0.0
  9
$OLESTARTUP
290
     0
  0
ENDSEC
  0
SECTION
  2
CLASSES
  0
CLASS
  1
ACDBDICTIONARYWDFLT
  2
AcDbDictionaryWithDefault
  3
ObjectDBX Classes
 90
        0
280
     0
281
     0
  0
CLASS
  1
VISUALSTYLE
  2
AcDbVisualStyle
  3
ObjectDBX Classes
 90
     4095
280
     0
281
     0
  0
CLASS
  1
DICTIONARYVAR
  2
AcDbDictionaryVar
  3
ObjectDBX Classes
 90
        0
280
     0
281
     0
  0
CLASS
  1
ACDBPLACEHOLDER
  2
AcDbPlaceHolder
  3
ObjectDBX Classes
 90
        0
280
     0
281
     0
  0
CLASS
  1
LAYOUT
  2
AcDbLayout
  3
ObjectDBX Classes
 90
        0
280
     0
281
     0
  0
ENDSEC
  0
SECTION
  2
TABLES
  0
TABLE
  2
VPORT
  5
8
330
0
100
AcDbSymbolTable
 70
     1
  0
VPORT
  5
29
330
8
100
AcDbSymbolTableRecord
100
AcDbViewportTableRecord
  2
*Active
 70
     0
 10
0.0
 20
0.0
 11
1.0
 21
1.0
 12
75.0
 22
-33.8297309243
 13
0.0
 23
0.0
 14
10.0
 24
10.0
 15
10.0
 25
10.0
 16
0.0
 26
0.0
 36
1.0
 17
0.0
 27
0.0
 37
0.0
 40
75.1326510855
 41
2.0363982608
 42
50.0
 43
0.0
 44
0.0
 50
0.0
 51
0.0
 71
     0
 72
   100
 73
     1
 74
     3
 75
     0
 76
     0
 77
     0
 78
     0
281
     0
 65
     1
110
0.0
120
0.0
130
0.0
111
1.0
121
0.0
131
0.0
112
0.0
122
1.0
132
0.0
 79
     0
146
0.0
  0
ENDTAB
  0
TABLE
  2
LTYPE
  5
5
330
0
100
AcDbSymbolTable
 70
     6
  0
LTYPE
  5
14
330
5
100
AcDbSymbolTableRecord
100
AcDbLinetypeTableRecord
  2
ByBlock
 70
     0
  3

 72
    65
 73
     0
 40
0.0
  0
LTYPE
  5
15
330
5
100
AcDbSymbolTableRecord
100
AcDbLinetypeTableRecord
  2
ByLayer
 70
     0
  3

 72
    65
 73
     0
 40
0.0
  0
LTYPE
  5
16
330
5
100
AcDbSymbolTableRecord
100
AcDbLinetypeTableRecord
  2
Continuous
 70
     0
  3
Solid line
 72
    65
 73
     0
 40
0.0
  0
LTYPE
  5
3B
330
5
100
AcDbSymbolTableRecord
100
AcDbLinetypeTableRecord
  2
HIDDEN
 70
     0
  3
Hidden __ __ __ __ __ __ __ __ __ __ __ __ __ __
 72
    65
 73
     2
 40
1.905
 49
1.27
 74
     0
 49
-0.635
 74
     0
  0
LTYPE
  5
3C
330
5
100
AcDbSymbolTableRecord
100
AcDbLinetypeTableRecord
  2
PHANTOM
 70
     0
  3
Phantom ______  __  __  ______  __  __  ______
 72
    65
 73
     6
 40
12.7
 49
6.35
 74
     0
 49
-1.27
 74
     0
 49
1.27
 74
     0
 49
-1.27
 74
     0
 49
1.27
 74
     0
 49
-1.27
 74
     0
  0
LTYPE
  5
3D
330
5
100
AcDbSymbolTableRecord
100
AcDbLinetypeTableRecord
  2
CENTER
 70
     0
  3
Center ____ _ ____ _ ____ _ ____ _ ____ _ ____
 72
    65
 73
     4
 40
10.16
 49
6.35
 74
     0
 49
-1.27
 74
     0
 49
1.27
 74
     0
 49
-1.27
 74
     0
  0
LTYPE
  5
3E
330
5
100
AcDbSymbolTableRecord
100
AcDbLinetypeTableRecord
  2
CENTERX2
 70
     0
  3
Center (2x) ________  __  ________  __  _____
 72
    65
 73
     4
 40
20.32
 49
12.7
 74
     0
 49
-2.54
 74
     0
 49
2.54
 74
     0
 49
-2.54
 74
     0
  0
LTYPE
  5
3F
330
5
100
AcDbSymbolTableRecord
100
AcDbLinetypeTableRecord
  2
DOT2
 70
     0
  3
Dot (.5x) ........................................
 72
    65
 73
     2
 40
0.635
 49
0.0
 74
     0
 49
-0.635
 74
     0
  0
ENDTAB
  0
TABLE
  2
LAYER
  5
2
330
0
100
AcDbSymbolTable
 70
     1
  0
LAYER
  5
10
330
2
100
AcDbSymbolTableRecord
100
AcDbLayerTableRecord
  2
0
 70
     0
 62
     7
  6
Continuous
370
    -3
390
F
  0
ENDTAB
  0
TABLE
  2
STYLE
  5
3
330
0
100
AcDbSymbolTable
 70
     1
  0
STYLE
  5
11
330
3
100
AcDbSymbolTableRecord
100
AcDbTextStyleTableRecord
  2
Standard
 70
     0
 40
0.0
 41
1.0
 50
0.0
 71
     0
 42
2.5
  3
txt
  4

  0
ENDTAB
  0
TABLE
  2
VIEW
  5
6
330
0
100
AcDbSymbolTable
 70
     0
  0
ENDTAB
  0
TABLE
  2
UCS
  5
7
330
0
100
AcDbSymbolTable
 70
     0
  0
ENDTAB
  0
TABLE
  2
APPID
  5
9
330
0
100
AcDbSymbolTable
 70
     1
  0
APPID
  5
12
330
9
100
AcDbSymbolTableRecord
100
AcDbRegAppTableRecord
  2
ACAD
 70
     0
  0
ENDTAB
  0
TABLE
  2
DIMSTYLE
  5
A
330
0
100
AcDbSymbolTable
 70
     1
100
AcDbDimStyleTable
  0
DIMSTYLE
105
27
330
A
100
AcDbSymbolTableRecord
100
AcDbDimStyleTableRecord
  2
ISO-25
 70
     0
 41
2.5
 42
0.625
 43
3.75
 44
1.25
 73
     0
 74
     0
 77
     1
 78
     8
140
2.5
141
2.5
143
0.0393700787
147
0.625
171
     3
172
     1
271
     2
272
     2
274
     3
278
    44
283
     0
284
     8
340
11
  0
ENDTAB
  0
TABLE
  2
BLOCK_RECORD
  5
1
330
0
100
AcDbSymbolTable
 70
     1
  0
BLOCK_RECORD
  5
1F
330
1
100
AcDbSymbolTableRecord
100
AcDbBlockTableRecord
  2
*Model_Space
340
22
  0
BLOCK_RECORD
  5
1B
330
1
100
AcDbSymbolTableRecord
100
AcDbBlockTableRecord
  2
*Paper_Space
340
1E
  0
BLOCK_RECORD
  5
23
330
1
100
AcDbSymbolTableRecord
100
AcDbBlockTableRecord
  2
*Paper_Space0
340
26
  0
ENDTAB
  0
ENDSEC
  0
SECTION
  2
BLOCKS
  0
BLOCK
  5
20
330
1F
100
AcDbEntity
  8
0
100
AcDbBlockBegin
  2
*Model_Space
 70
     0
 10
0.0
 20
0.0
 30
0.0
  3
*Model_Space
  1

  0
ENDBLK
  5
21
330
1F
100
AcDbEntity
  8
0
100
AcDbBlockEnd
  0
BLOCK
  5
1C
330
1B
100
AcDbEntity
 67
     1
  8
0
100
AcDbBlockBegin
  2
*Paper_Space
 70
     0
 10
0.0
 20
0.0
 30
0.0
  3
*Paper_Space
  1

  0
ENDBLK
  5
1D
330
1B
100
AcDbEntity
 67
     1
  8
0
100
AcDbBlockEnd
  0
BLOCK
  5
24
330
23
100
AcDbEntity
  8
0
100
AcDbBlockBegin
  2
*Paper_Space0
 70
     0
 10
0.0
 20
0.0
 30
0.0
  3
*Paper_Space0
  1

  0
ENDBLK
  5
25
330
23
100
AcDbEntity
  8
0
100
AcDbBlockEnd
  0
ENDSEC
  0
SECTION
  2
ENTITIES
  0
SPLINE
  5
40
330
1F
100
AcDbEntity
  8
0
  6
Continuous
 62
     7
370
    15
100
AcDbSpline
210
0.0
220
0.0
230
1.0
 70
     8
 71
     3
 72
    15
 73
    11
 74
     0
 42
0.00000001
 43
0.00000001
 40
0.0
 40
0.0
 40
0.0
 40
0.0
 40
0.1467915321041238
 40
0.208761461307374
 40
0.2661582125613292
 40
0.3190441962631831
 40
0.3734887977638305
 40
0.4308855490177853
 40
0.492033069404086
 40
1.0
 40
1.0
 40
1.0
 40
1.0
 10
126.3710365498377
 20
-33.65789812597359
 30
0.0
 10
126.7030708648349
 20
-34.3778960277741
 30
0.0
 10
127.0069629150972
 20
-35.46643031775751
 30
0.0
 10
127.1499051153983
 20
-36.89700751518383
 30
0.0
 10
127.0359772216696
 20
-37.82595134044465
 30
0.0
 10
126.7259240529581
 20
-38.66234418263497
 30
0.0
 10
126.254485521233
 20
-39.42180975755199
 30
0.0
 10
125.5719260960147
 20
-40.0681327123963
 30
0.0
 10
122.7144897424292
 20
-41.86660640772693
 30
0.0
 10
119.7983383547916
 20
-42.92923766861053
 30
0.0
 10
117.2037183324804
 20
-43.74390281713856
 30
0.0
  0
SPLINE
  5
41
330
1F
100
AcDbEntity
  8
0
  6
Continuous
 62
     7
370
    15
100
AcDbSpline
210
0.0
220
0.0
230
1.0
 70
     8
 71
     3
 72
     9
 73
     5
 74
     0
 42
0.00000001
 43
0.00000001
 40
0.0
 40
0.0
 40
0.0
 40
0.0
 40
0.5059312638333747
 40
1.0
 40
1.0
 40
1.0
 40
1.0
 10
119.6470334223944
 20
-27.26618585075857
 30
0.0
 10
121.1514740325618
 20
-27.83157196432402
 30
0.0
 10
123.9411495869538
 20
-29.50936294923348
 30
0.0
 10
125.7854436524763
 20
-32.19674420925509
 30
0.0
 10
126.3710365498377
 20
-33.65789812597359
 30
0.0
  0
SPLINE
  5
42
330
1F
100
AcDbEntity
  8
0
  6
Continuous
 62
     7
370
    15
100
AcDbSpline
210
0.0
220
0.0
230
1.0
 70
     8
 71
     3
 72
    13
 73
     9
 74
     0
 42
0.00000001
 43
0.00000001
 40
0.0
 40
0.0
 40
0.0
 40
0.0
 40
0.2362443554885896
 40
0.3597500189288309
 40
0.4969041891650535
 40
0.6375878986157396
 40
0.7684603978362995
 40
1.0
 40
1.0
 40
1.0
 40
1.0
 10
107.6454697007368
 20
-29.16219836053184
 30
0.0
 10
108.1723815656374
 20
-28.27843011941689
 30
0.0
 10
109.3641833432169
 20
-27.14900221529209
 30
0.0
 10
111.4462865175964
 20
-26.47190532972192
 30
0.0
 10
113.1917889987592
 20
-26.28481833768911
 30
0.0
 10
114.9735357255375
 20
-26.34474918435596
 30
0.0
 10
117.1543312434811
 20
-26.56249831574673
 30
0.0
 10
118.7029901057565
 20
-26.90368271006897
 30
0.0
 10
119.6470334223944
 20
-27.26618585075857
 30
0.0
  0
SPLINE
  5
43
330
1F
100
AcDbEntity
  8
0
  6
Continuous
 62
     7
370
    15
100
AcDbSpline
210
0.0
220
0.0
230
1.0
 70
     8
 71
     3
 72
    17
 73
    13
 74
     0
 42
0.00000001
 43
0.00000001
 40
0.0
 40
0.0
 40
0.0
 40
0.0
 40
0.2260266748344634
 40
0.3585147382413049
 40
0.502651097660263
 40
0.5742604591600616
 40
0.6391547787631626
 40
0.7002543535492859
 40
0.7572311064157022
 40
0.8133280214708869
 40
0.8710123779219617
 40
1.0
 40
1.0
 40
1.0
 40
1.0
 10
117.2037183324804
 20
-43.74390281713856
 30
0.0
 10
115.8328884154043
 20
-43.13784868732402
 30
0.0
 10
113.7551612386116
 20
-41.95700964118942
 30
0.0
 10
111.129043231912
 20
-39.90009675326916
 30
0.0
 10
109.3812260871759
 20
-38.39039083990168
 30
0.0
 10
108.0764567843416
 20
-37.05818800435701
 30
0.0
 10
107.3169006103259
 20
-35.98361671170721
 30
0.0
 10
106.7800655318999
 20
-34.88931800390129
 30
0.0
 10
106.4728733704412
 20
-33.76816992132769
 30
0.0
 10
106.4122876097612
 20
-32.62811106368455
 30
0.0
 10
106.6797315971143
 20
-31.03158474131213
 30
0.0
 10
107.1772355636668
 20
-29.88023848705752
 30
0.0
 10
107.6454697007368
 20
-29.16219836053184
 30
0.0
  0
SPLINE
  5
44
330
1F
100
AcDbEntity
  8
0
  6
Continuous
 62
     7
370
    15
100
AcDbSpline
210
0.0
220
0.0
230
1.0
 70
     8
 71
     3
 72
     9
 73
     5
 74
     0
 42
0.00000001
 43
0.00000001
 40
0.0
 40
0.0
 40
0.0
 40
0.0
 40
0.4696989310470047
 40
1.0
 40
1.0
 40
1.0
 40
1.0
 10
39.27174022458357
 20
-63.93545872018781
 30
0.0
 10
38.67048025817064
 20
-64.34497587027785
 30
0.0
 10
37.20519195217518
 20
-64.85112006551314
 30
0.0
 10
35.66739591227748
 20
-64.97841520107389
 30
0.0
 10
34.85422654201906
 20
-64.93233127687272
 30
0.0
  0
SPLINE
  5
45
330
1F
100
AcDbEntity
  8
0
  6
Continuous
 62
     7
370
    15
100
AcDbSpline
210
0.0
220
0.0
230
1.0
 70
     8
 71
     3
 72
    21
 73
    17
 74
     0
 42
0.00000001
 43
0.00000001
 40
0.0
 40
0.0
 40
0.0
 40
0.0
 40
0.0995227694480109
 40
0.1579755545666041
 40
0.2243411990187233
 40
0.2956617449097444
 40
0.3678251673103743
 40
0.4405610694858484
 40
0.5146055161096619
 40
0.5885084814068866
 40
0.6597896127903984
 40
0.7286603885936848
 40
0.7960418521077257
 40
0.8577762622396681
 40
0.9112651996635001
 40
1.0
 40
1.0
 40
1.0
 40
1.0
 10
22.91130238251946
 20
-26.73842979133715
 30
0.0
 10
24.36882688066803
 20
-27.0127849997718
 30
0.0
 10
26.52542214900471
 20
-28.03120556495389
 30
0.0
 10
29.05772366610966
 20
-30.19897509698932
 30
0.0
 10
31.00818561591126
 20
-32.35616767493124
 30
0.0
 10
32.87498465461665
 20
-34.84168684678883
 30
0.0
 10
34.636510420816
 20
-37.51568864290074
 30
0.0
 10
36.22695855843197
 20
-40.34217524125148
 30
0.0
 10
37.62148647746898
 20
-43.29842324158911
 30
0.0
 10
38.81963664535132
 20
-46.31540770095461
 30
0.0
 10
39.81117162462477
 20
-49.32746954998986
 30
0.0
 10
40.52985351396045
 20
-52.31596640422837
 30
0.0
 10
41.03439072227456
 20
-55.20656975205717
 30
0.0
 10
41.20400754195217
 20
-57.90832500808919
 30
0.0
 10
41.00214140754704
 20
-60.93888817311387
 30
0.0
 10
40.12729479587352
 20
-62.92743963702787
 30
0.0
 10
39.27174022458357
 20
-63.93545872018781
 30
0.0
  0
SPLINE
  5
46
330
1F
100
AcDbEntity
  8
0
  6
Continuous
 62
     7
370
    15
100
AcDbSpline
210
0.0
220
0.0
230
1.0
 70
     8
 71
     3
 72
     9
 73
     5
 74
     0
 42
0.00000001
 43
0.00000001
 40
0.0
 40
0.0
 40
0.0
 40
0.0
 40
0.4461539416245828
 40
1.0
 40
1.0
 40
1.0
 40
1.0
 10
18.16149784772665
 20
-28.63444230111041
 30
0.0
 10
18.5199446890518
 20
-27.89142528305121
 30
0.0
 10
20.01941874513147
 20
-26.68414980087477
 30
0.0
 10
21.93231979178005
 20
-26.66756154976086
 30
0.0
 10
22.91130238251945
 20
-26.73842979133715
 30
0.0
  0
SPLINE
  5
47
330
1F
100
AcDbEntity
  8
0
  6
Continuous
 62
     7
370
    15
100
AcDbSpline
210
0.0
220
0.0
230
1.0
 70
     8
 71
     3
 72
    21
 73
    17
 74
     0
 42
0.00000001
 43
0.00000001
 40
0.0
 40
0.0
 40
0.0
 40
0.0
 40
0.0958713248429166
 40
0.150956837624498
 40
0.2115496027359834
 40
0.2770444132293841
 40
0.3474484883349497
 40
0.4236598130863394
 40
0.5038987729989385
 40
0.5837762878049886
 40
0.6578151999838339
 40
0.7254933038467682
 40
0.7879485799750928
 40
0.8464814794666756
 40
0.9005104538453346
 40
1.0
 40
1.0
 40
1.0
 40
1.0
 10
25.21779182739827
 20
-55.62818741448023
 30
0.0
 10
24.76151301185382
 20
-54.83013166037386
 30
0.0
 10
24.1632931977942
 20
-53.51356603444345
 30
0.0
 10
23.27178003640471
 20
-51.69450367529369
 30
0.0
 10
22.55831237515633
 20
-50.11295572555399
 30
0.0
 10
21.79393085116461
 20
-48.3937272415799
 30
0.0
 10
20.99344354770954
 20
-46.52699839755345
 30
0.0
 10
20.13684474854125
 20
-44.53079029599706
 30
0.0
 10
19.26478073146149
 20
-42.44246858767828
 30
0.0
 10
18.4717922393025
 20
-40.3442925931511
 30
0.0
 10
17.84013653171041
 20
-38.31693940716279
 30
0.0
 10
17.39933099164409
 20
-36.40984570259776
 30
0.0
 10
17.15642950658924
 20
-34.61680185921422
 30
0.0
 10
17.10911567842212
 20
-32.93751732912103
 30
0.0
 10
17.31081984967513
 20
-30.91181812261324
 30
0.0
 10
17.73032785554021
 20
-29.48816077087627
 30
0.0
 10
18.16149784772665
 20
-28.63444230111041
 30
0.0
  0
SPLINE
  5
48
330
1F
100
AcDbEntity
  8
0
  6
Continuous
 62
     7
370
    15
100
AcDbSpline
210
0.0
220
0.0
230
1.0
 70
     8
 71
     3
 72
    11
 73
     7
 74
     0
 42
0.00000001
 43
0.00000001
 40
0.0
 40
0.0
 40
0.0
 40
0.0
 40
0.2525896159646091
 40
0.3758110206297543
 40
0.5037703712234423
 40
1.0
 40
1.0
 40
1.0
 40
1.0
 10
34.85422654201906
 20
-64.93233127687272
 30
0.0
 10
33.70952527009432
 20
-64.69164277474458
 30
0.0
 10
32.0914863622215
 20
-64.01411446901525
 30
0.0
 10
30.20309941828859
 20
-62.63654872074169
 30
0.0
 10
27.89519274051602
 20
-60.05848844566129
 30
0.0
 10
26.36149497710132
 20
-57.60690439779561
 30
0.0
 10
25.21779182739827
 20
-55.62818741448023
 30
0.0
  0
SPLINE
  5
49
330
1F
100
AcDbEntity
  8
0
  6
Continuous
 62
     7
370
    15
100
AcDbSpline
210
0.0
220
0.0
230
1.0
 70
     8
 71
     3
 72
    15
 73
    11
 74
     0
 42
0.00000001
 43
0.00000001
 40
0.4122384864227826
 40
0.4122384864227826
 40
0.4122384864227826
 40
0.4122384864227826
 40
0.5604393183139051
 40
0.624085145795583
 40
0.6825630457348459
 40
0.7377505791845024
 40
0.7929188566902892
 40
0.8499386612424716
 40
0.9108505587361083
 40
0.9375056646544262
 40
0.9375056646544262
 40
0.9375056646544262
 40
0.9375056646544262
 10
6.355399333262222
 20
-33.32560727374529
 30
0.0
 10
6.265057066459518
 20
-32.0110740079942
 30
0.0
 10
6.19542483562006
 20
-30.09136743314674
 30
0.0
 10
6.749049242748661
 20
-27.72652525115484
 30
0.0
 10
7.354531495801239
 20
-26.25499505058844
 30
0.0
 10
8.184404902690005
 20
-24.97772420309435
 30
0.0
 10
9.294367898907232
 20
-23.9586636608896
 30
0.0
 10
10.6007532459131
 20
-23.10880544072883
 30
0.0
 10
11.82628718079416
 20
-22.67715343555433
 30
0.0
 10
12.57878920207672
 20
-22.45641185361927
 30
0.0
 10
12.80869932805488
 20
-22.39274643462227
 30
0.0
  0
ARC
  5
4A
330
1F
100
AcDbEntity
  8
0
  6
Continuous
 62
     7
370
    15
100
AcDbCircle
 10
12.7553250691
 20
-22.1999999989
 30
0.0
 40
0.2000000000000024
100
AcDbArc
 50
285.4781751283
 51
90.0
  0
LINE
  5
4B
330
1F
100
AcDbEntity
  8
0
  6
Continuous
 62
     7
370
    15
100
AcDbLine
 10
12.7553250691
 20
-21.9999999989
 30
0.0
 11
10.0
 21
-21.9999999989
 31
0.0
  0
ARC
  5
4C
330
1F
100
AcDbEntity
  8
0
  6
Continuous
 62
     7
370
    15
100
AcDbCircle
 10
10.0
 20
-11.9999999989
 30
0.0
 40
10.0
100
AcDbArc
 50
180.0
 51
270.0
  0
LINE
  5
4D
330
1F
100
AcDbEntity
  8
0
  6
Continuous
 62
     7
370
    15
100
AcDbLine
 10
0.0
 20
-11.9999999989
 30
0.0
 11
0.0
 21
0.0
 31
0.0
  0
LINE
  5
4E
330
1F
100
AcDbEntity
  8
0
  6
Continuous
 62
     7
370
    15
100
AcDbLine
 10
0.0
 20
0.0
 30
0.0
 11
20.0
 21
0.0
 31
0.0
  0
LINE
  5
4F
330
1F
100
AcDbEntity
  8
0
  6
Continuous
 62
     7
370
    15
100
AcDbLine
 10
20.0
 20
0.0
 30
0.0
 11
20.0
 21
3.0
 31
0.0
  0
LINE
  5
50
330
1F
100
AcDbEntity
  8
0
  6
Continuous
 62
     7
370
    15
100
AcDbLine
 10
20.0
 20
3.0
 30
0.0
 11
130.0
 21
3.0
 31
0.0
  0
LINE
  5
51
330
1F
100
AcDbEntity
  8
0
  6
Continuous
 62
     7
370
    15
100
AcDbLine
 10
130.0
 20
3.0
 30
0.0
 11
130.0
 21
0.0
 31
0.0
  0
LINE
  5
52
330
1F
100
AcDbEntity
  8
0
  6
Continuous
 62
     7
370
    15
100
AcDbLine
 10
130.0
 20
0.0
 30
0.0
 11
150.0
 21
0.0
 31
0.0
  0
LINE
  5
53
330
1F
100
AcDbEntity
  8
0
  6
Continuous
 62
     7
370
    15
100
AcDbLine
 10
150.0
 20
0.0
 30
0.0
 11
150.0
 21
-11.9999999989
 31
0.0
  0
ARC
  5
54
330
1F
100
AcDbEntity
  8
0
  6
Continuous
 62
     7
370
    15
100
AcDbCircle
 10
140.0
 20
-11.9999999989
 30
0.0
 40
10.00000000000003
100
AcDbArc
 50
270.0
 51
0.0
  0
LINE
  5
55
330
1F
100
AcDbEntity
  8
0
  6
Continuous
 62
     7
370
    15
100
AcDbLine
 10
140.0
 20
-21.9999999989
 30
0.0
 11
123.3775145912
 21
-21.9999999989
 31
0.0
  0
ARC
  5
56
330
1F
100
AcDbEntity
  8
0
  6
Continuous
 62
     7
370
    15
100
AcDbCircle
 10
123.3775145912
 20
-22.1999999989
 30
0.0
 40
0.2000000000000006
100
AcDbArc
 50
90.0
 51
251.0602746946
  0
SPLINE
  5
57
330
1F
100
AcDbEntity
  8
0
  6
Continuous
 62
     7
370
    15
100
AcDbSpline
210
0.0
220
0.0
230
1.0
 70
     8
 71
     3
 72
     8
 73
     4
 74
     0
 42
0.00000001
 43
0.00000001
 40
0.0475923217361868
 40
0.0475923217361868
 40
0.0475923217361868
 40
0.0475923217361868
 40
0.2586517076668557
 40
0.2586517076668557
 40
0.2586517076668557
 40
0.2586517076668557
 10
123.3125999318456
 20
-22.3891721083587
 30
0.0
 10
125.0821434403856
 20
-22.99639330146081
 30
0.0
 10
126.8021452054454
 20
-23.74826663972355
 30
0.0
 10
128.4234212253654
 20
-24.6860451158094
 30
0.0
  0
SPLINE
  5
58
330
1F
100
AcDbEntity
  8
0
  6
Continuous
 62
     7
370
    15
100
AcDbSpline
210
0.0
220
0.0
230
1.0
 70
     8
 71
     3
 72
    21
 73
    17
 74
     0
 42
0.00000001
 43
0.00000001
 40
0.0
 40
0.0
 40
0.0
 40
0.0
 40
0.1413098695148534
 40
0.2070053803543773
 40
0.2702894172729926
 40
0.3312197734717309
 40
0.3908286588577039
 40
0.4491848906350666
 40
0.5068839521049249
 40
0.5632914825813387
 40
0.6162672079226656
 40
0.669426324998452
 40
0.7249036656540264
 40
0.783494267571788
 40
0.8487133988865808
 40
1.0
 40
1.0
 40
1.0
 40
1.0
 10
128.4234212253654
 20
-24.68604511580939
 30
0.0
 10
129.6705148452953
 20
-25.4411090989435
 30
0.0
 10
131.4899494128703
 20
-26.58883736974352
 30
0.0
 10
133.5980920383643
 20
-28.42727526999178
 30
0.0
 10
135.0018319445283
 20
-29.80325059277441
 30
0.0
 10
136.1999311849407
 20
-31.2834919896185
 30
0.0
 10
137.219806002165
 20
-32.82966413795581
 30
0.0
 10
138.0629898121628
 20
-34.44122061503444
 30
0.0
 10
138.7389655245508
 20
-36.09426526112139
 30
0.0
 10
139.1697288194928
 20
-37.77657170967257
 30
0.0
 10
139.2355892067092
 20
-39.47005872559595
 30
0.0
 10
138.9251446201757
 20
-41.12370275608844
 30
0.0
 10
138.2902687538151
 20
-42.74218473212117
 30
0.0
 10
137.2988497496133
 20
-44.32015337075042
 30
0.0
 10
135.4009760626028
 20
-46.45118957386918
 30
0.0
 10
133.6166876421787
 20
-47.82780301360435
 30
0.0
 10
132.3131788485085
 20
-48.68917255912449
 30
0.0
  0
SPLINE
  5
59
330
1F
100
AcDbEntity
  8
0
  6
Continuous
 62
     7
370
    15
100
AcDbSpline
210
0.0
220
0.0
230
1.0
 70
     8
 71
     3
 72
    17
 73
    13
 74
     0
 42
0.00000001
 43
0.00000001
 40
0.0
 40
0.0
 40
0.0
 40
0.0
 40
0.2388229397647829
 40
0.3660879317196203
 40
0.4999036465963447
 40
0.5676123366001083
 40
0.6312017454519608
 40
0.6935360005853635
 40
0.7538818952068149
 40
0.8138785717555006
 40
0.8741563002991446
 40
1.0
 40
1.0
 40
1.0
 40
1.0
 10
132.3131788485085
 20
-48.68917255912449
 30
0.0
 10
133.8395048638268
 20
-49.25325019100168
 30
0.0
 10
136.1161102741536
 20
-50.30655723328169
 30
0.0
 10
138.9708613943375
 20
-52.17346266420261
 30
0.0
 10
140.776632390264
 20
-53.50444504719897
 30
0.0
 10
142.1414131785458
 20
-54.69195173286588
 30
0.0
 10
143.0409441583402
 20
-55.66267100229891
 30
0.0
 10
143.7780590422659
 20
-56.70010041447695
 30
0.0
 10
144.394325926751
 20
-57.78452931315643
 30
0.0
 10
144.8716128612062
 20
-58.92389253494832
 30
0.0
 10
145.2886604015464
 20
-60.55396642905477
 30
0.0
 10
145.3912828206772
 20
-61.82646130474026
 30
0.0
 10
145.3702546890089
 20
-62.68448139415185
 30
0.0
  0
SPLINE
  5
5A
330
1F
100
AcDbEntity
  8
0
  6
Continuous
 62
     7
370
    15
100
AcDbSpline
210
0.0
220
0.0
230
1.0
 70
     8
 71
     3
 72
    17
 73
    13
 74
     0
 42
0.00000001
 43
0.00000001
 40
0.0
 40
0.0
 40
0.0
 40
0.0
 40
0.1258170771382835
 40
0.1851074014202245
 40
0.2421760013959202
 40
0.3003926325447619
 40
0.3615620688520041
 40
0.4262690480267797
 40
0.4956617807760638
 40
0.6360643565267599
 40
0.7661076062355356
 40
1.0
 40
1.0
 40
1.0
 40
1.0
 10
145.3702546890089
 20
-62.68448139415185
 30
0.0
 10
145.3564700156316
 20
-63.4236529414038
 30
0.0
 10
145.1529741169061
 20
-64.50076083197206
 30
0.0
 10
144.6020953122602
 20
-65.81444053366951
 30
0.0
 10
144.0420671770347
 20
-66.67724418940143
 30
0.0
 10
143.3248214440655
 20
-67.42975129540311
 30
0.0
 10
142.4536153801259
 20
-68.07238840401563
 30
0.0
 10
141.4471853557999
 20
-68.62389547105772
 30
0.0
 10
139.9410766610579
 20
-69.1958270318578
 30
0.0
 10
138.0256552200704
 20
-69.74434018483437
 30
0.0
 10
135.1474778628121
 20
-70.4180064555313
 30
0.0
 10
133.0211487614775
 20
-70.66677568588545
 30
0.0
 10
131.6485971440519
 20
-70.65946184763112
 30
0.0
  0
SPLINE
  5
5B
330
1F
100
AcDbEntity
  8
0
  6
Continuous
 62
     7
370
    15
100
AcDbSpline
210
0.0
220
0.0
230
1.0
 70
     8
 71
     3
 72
    25
 73
    21
 74
     0
 42
0.00000001
 43
0.00000001
 40
0.0
 40
0.0
 40
0.0
 40
0.0
 40
0.0980341719366447
 40
0.1595818199604787
 40
0.2293424752361096
 40
0.3024142199423328
 40
0.3747099194180018
 40
0.4457339487684776
 40
0.5163140917594357
 40
0.5840282405599171
 40
0.6484264873625661
 40
0.7095804268299999
 40
0.7684753929522548
 40
0.7968294931278763
 40
0.8240021636943028
 40
0.8506186170871286
 40
0.8773379960511211
 40
0.9053463312781069
 40
0.934506960460196
 40
1.0
 40
1.0
 40
1.0
 40
1.0
 10
131.6485971440519
 20
-70.65946184763112
 30
0.0
 10
130.4282353329376
 20
-70.64182684372564
 30
0.0
 10
128.4511151916975
 20
-70.41242913158648
 30
0.0
 10
125.6625400011194
 20
-69.80893783741388
 30
0.0
 10
123.1965575658324
 20
-69.18903720900695
 30
0.0
 10
120.6456281464089
 20
-68.37771692046054
 30
0.0
 10
118.1237844042397
 20
-67.43309770112133
 30
0.0
 10
115.7098110836056
 20
-66.30959121417897
 30
0.0
 10
113.4261690756171
 20
-65.0560925921596
 30
0.0
 10
111.3093019937388
 20
-63.68239640923333
 30
0.0
 10
109.4356475609812
 20
-62.16538230198622
 30
0.0
 10
107.8683662608578
 20
-60.48400810485403
 30
0.0
 10
106.7543528514617
 20
-59.00360847334281
 30
0.0
 10
106.0821172611203
 20
-57.74404570470032
 30
0.0
 10
105.7476992907864
 20
-56.77527060163671
 30
0.0
 10
105.5581690730865
 20
-55.78574536518651
 30
0.0
 10
105.5790178482055
 20
-54.77093975425744
 30
0.0
 10
105.6931045335555
 20
-53.72868333557942
 30
0.0
 10
106.2029464937034
 20
-52.28265388476802
 30
0.0
 10
106.7045774677518
 20
-51.2172637174369
 30
0.0
 10
107.1763532034733
 20
-50.54609202745912
 30
0.0
  0
SPLINE
  5
5C
330
1F
100
AcDbEntity
  8
0
  6
Continuous
 62
     7
370
    15
100
AcDbSpline
210
0.0
220
0.0
230
1.0
 70
     8
 71
     3
 72
     9
 73
     5
 74
     0
 42
0.00000001
 43
0.00000001
 40
0.0
 40
0.0
 40
0.0
 40
0.0
 40
0.4661934966476403
 40
1.0
 40
1.0
 40
1.0
 40
1.0
 10
107.1763532034733
 20
-50.54609202745912
 30
0.0
 10
107.789017108145
 20
-49.62616972129314
 30
0.0
 10
109.4236665338742
 20
-47.85604208137877
 30
0.0
 10
111.5693216034078
 20
-46.76043440625124
 30
0.0
 10
112.7275650877579
 20
-46.26540398992981
 30
0.0
  0
SPLINE
  5
5D
330
1F
100
AcDbEntity
  8
0
  6
Continuous
 62
     7
370
    15
100
AcDbSpline
210
0.0
220
0.0
230
1.0
 70
     8
 71
     3
 72
     9
 73
     5
 74
     0
 42
0.00000001
 43
0.00000001
 40
0.0
 40
0.0
 40
0.0
 40
0.0
 40
0.5254489696744421
 40
1.0
 40
1.0
 40
1.0
 40
1.0
 10
112.7275650877579
 20
-46.26540398992981
 30
0.0
 10
110.7341581707661
 20
-45.71549829679967
 30
0.0
 10
107.0398651360314
 20
-44.31284612687507
 30
0.0
 10
103.6714063028036
 20
-42.24083815920637
 30
0.0
 10
102.2310834614874
 20
-41.04648295787351
 30
0.0
  0
SPLINE
  5
5E
330
1F
100
AcDbEntity
  8
0
  6
Continuous
 62
     7
370
    15
100
AcDbSpline
210
0.0
220
0.0
230
1.0
 70
     8
 71
     3
 72
    17
 73
    13
 74
     0
 42
0.00000001
 43
0.00000001
 40
0.0
 40
0.0
 40
0.0
 40
0.0
 40
0.2531818800957302
 40
0.3750909335550833
 40
0.499882128542511
 40
0.5617560473917962
 40
0.6190253867147626
 40
0.6760568777990964
 40
0.7324986262870867
 40
0.7918304978822599
 40
0.8545881349094934
 40
0.9703722007358312
 40
0.9703722007358312
 40
0.9703722007358312
 40
0.9703722007358312
 10
102.2310834614874
 20
-41.04648295787351
 30
0.0
 10
100.7090675195918
 20
-39.78067178856494
 30
0.0
 10
98.81370311711333
 20
-37.47942189767947
 30
0.0
 10
97.24654545267909
 20
-33.88049385676911
 30
0.0
 10
96.73437035945388
 20
-31.51376434602017
 30
0.0
 10
96.58978908299972
 20
-29.60749886299116
 30
0.0
 10
96.7798946948275
 20
-28.2371107791264
 30
0.0
 10
97.18160150437839
 20
-26.95807541137498
 30
0.0
 10
97.85453804054804
 20
-25.78012593389598
 30
0.0
 10
98.73745041501824
 20
-24.69236505230477
 30
0.0
 10
100.172009572438
 20
-23.50247600394661
 30
0.0
 10
101.3599166434589
 20
-22.76461990221369
 30
0.0
 10
102.1790466352794
 20
-22.38113254104813
 30
0.0
  0
ARC
  5
5F
330
1F
100
AcDbEntity
  8
0
  6
Continuous
 62
     7
370
    15
100
AcDbCircle
 10
102.0942468583
 20
-22.1999999989
 30
0.0
 40
0.200000000000006
100
AcDbArc
 50
295.0873125258
 51
90.0
  0
LINE
  5
60
330
1F
100
AcDbEntity
  8
0
  6
Continuous
 62
     7
370
    15
100
AcDbLine
 10
102.0942468583
 20
-21.9999999989
 30
0.0
 11
74.0445257949
 21
-21.9999999989
 31
0.0
  0
ARC
  5
61
330
1F
100
AcDbEntity
  8
0
  6
Continuous
 62
     7
370
    15
100
AcDbCircle
 10
74.0445257949
 20
-22.1999999989
 30
0.0
 40
0.2000000000000029
100
AcDbArc
 50
90.0
 51
252.7781269635
  0
SPLINE
  5
62
330
1F
100
AcDbEntity
  8
0
  6
Continuous
 62
     7
370
    15
100
AcDbSpline
210
0.0
220
0.0
230
1.0
 70
     8
 71
     3
 72
    14
 73
    10
 74
     0
 42
0.00000001
 43
0.00000001
 40
0.0566489336930976
 40
0.0566489336930976
 40
0.0566489336930976
 40
0.0566489336930976
 40
0.0977556299699373
 40
0.2252360966980799
 40
0.3462263681243445
 40
0.4644657189521806
 40
0.5826895937627399
 40
0.7049436101912223
 40
0.9628032076703575
 40
0.9628032076703575
 40
0.9628032076703575
 40
0.9628032076703575
 10
73.98531125245047
 20
-22.39103307970399
 30
0.0
 10
74.31314612174819
 20
-22.49265208569044
 30
0.0
 10
75.65110989414838
 20
-22.93085875153723
 30
0.0
 10
77.89347857985553
 20
-23.84240063917466
 30
0.0
 10
80.57320237654423
 20
-25.33819475172724
 30
0.0
 10
82.9556340542867
 20
-27.14585720745388
 30
0.0
 10
85.12432895117901
 20
-29.21512504080489
 30
0.0
 10
87.87368033058605
 20
-32.33810815077548
 30
0.0
 10
89.74397776352009
 20
-34.90858263706964
 30
0.0
 10
90.83546188212853
 20
-36.76579492034418
 30
0.0
  0
SPLINE
  5
63
330
1F
100
AcDbEntity
  8
0
  6
Continuous
 62
     7
370
    15
100
AcDbSpline
210
0.0
220
0.0
230
1.0
 70
     8
 71
     3
 72
    17
 73
    13
 74
     0
 42
0.00000001
 43
0.00000001
 40
0.0
 40
0.0
 40
0.0
 40
0.0
 40
0.2614847192476468
 40
0.4004192492567996
 40
0.5452187703617886
 40
0.6155485545690562
 40
0.6782340413301844
 40
0.7345836758949138
 40
0.7874072569301813
 40
0.8374178219066573
 40
0.8880943878004184
 40
1.0
 40
1.0
 40
1.0
 40
1.0
 10
90.83546188212853
 20
-36.76579492034418
 30
0.0
 10
92.50210753967522
 20
-39.51819930040449
 30
0.0
 10
94.69902372243673
 20
-43.94447669106299
 30
0.0
 10
97.00020733299945
 20
-50.24805620535293
 30
0.0
 10
98.27872767944788
 20
-54.41448429031895
 30
0.0
 10
99.0281279448446
 20
-57.75389183327964
 30
0.0
 10
99.22123538211657
 20
-60.0846603774196
 30
0.0
 10
99.05592440777667
 20
-62.20170573914915
 30
0.0
 10
98.54064182587176
 20
-64.10662455299888
 30
0.0
 10
97.63111973346689
 20
-65.7800986737087
 30
0.0
 10
95.89180706705748
 20
-67.76301069283238
 30
0.0
 10
94.09675440923323
 20
-68.75636066417
 30
0.0
 10
92.82920699549835
 20
-69.27165887655998
 30
0.0
  0
SPLINE
  5
64
330
1F
100
AcDbEntity
  8
0
  6
Continuous
 62
     7
370
    15
100
AcDbSpline
210
0.0
220
0.0
230
1.0
 70
     8
 71
     3
 72
     9
 73
     5
 74
     0
 42
0.00000001
 43
0.00000001
 40
0.0
 40
0.0
 40
0.0
 40
0.0
 40
0.4801146055879751
 40
1.0
 40
1.0
 40
1.0
 40
1.0
 10
92.82920699549835
 20
-69.27165887655998
 30
0.0
 10
91.73795959317053
 20
-69.6783611433628
 30
0.0
 10
89.39780566975519
 20
-70.38821693816364
 30
0.0
 10
86.95496638804782
 20
-70.53173286958011
 30
0.0
 10
85.69472693294948
 20
-70.54218272331525
 30
0.0
  0
SPLINE
  5
65
330
1F
100
AcDbEntity
  8
0
  6
Continuous
 62
     7
370
    15
100
AcDbSpline
210
0.0
220
0.0
230
1.0
 70
     8
 71
     3
 72
    21
 73
    17
 74
     0
 42
0.00000001
 43
0.00000001
 40
0.0
 40
0.0
 40
0.0
 40
0.0
 40
0.1292754966833688
 40
0.1904410097032204
 40
0.2503159415314827
 40
0.3105464559882136
 40
0.3715204880972677
 40
0.4340424769876516
 40
0.4994653080715644
 40
0.5654212167961318
 40
0.6299894498379472
 40
0.6929682051819819
 40
0.7549491154633158
 40
0.81661855932991
 40
0.8777539331059567
 40
1.0
 40
1.0
 40
1.0
 40
1.0
 10
85.69472693294948
 20
-70.54218272331525
 30
0.0
 10
83.3282439318178
 20
-70.57296419672524
 30
0.0
 10
79.8495250759945
 20
-70.18824991695038
 30
0.0
 10
75.42711739890474
 20
-68.96592118150784
 30
0.0
 10
72.39161740322241
 20
-67.61807949136154
 30
0.0
 10
69.51139714864303
 20
-65.97068869774564
 30
0.0
 10
66.86913271498952
 20
-63.88305701056364
 30
0.0
 10
64.39487790883923
 20
-61.46424320921537
 30
0.0
 10
62.1973394725358
 20
-58.67489451316523
 30
0.0
 10
60.19025439660542
 20
-55.70776049057876
 30
0.0
 10
58.38251786752802
 20
-52.66461154906143
 30
0.0
 10
56.84451964333066
 20
-49.55878232388402
 30
0.0
 10
55.48989620043686
 20
-46.42544480696413
 30
0.0
 10
54.42706380557807
 20
-43.21608142567639
 30
0.0
 10
53.29767733277817
 20
-38.87927730695763
 30
0.0
 10
52.80848446273032
 20
-35.55370368160719
 30
0.0
 10
52.64156039659296
 20
-33.32560727374529
 30
0.0
  0
SPLINE
  5
66
330
1F
100
AcDbEntity
  8
0
  6
Continuous
 62
     7
370
    15
100
AcDbSpline
210
0.0
220
0.0
230
1.0
 70
     8
 71
     3
 72
    15
 73
    11
 74
     0
 42
0.00000001
 43
0.00000001
 40
0.4122384862202133
 40
0.4122384862202133
 40
0.4122384862202133
 40
0.4122384862202133
 40
0.5604393181113358
 40
0.6240851455930139
 40
0.6825630455322766
 40
0.737750578981933
 40
0.7929188564877199
 40
0.8499386610399022
 40
0.9108505585335391
 40
0.9375056644959556
 40
0.9375056644959556
 40
0.9375056644959556
 40
0.9375056644959556
 10
52.64156039659296
 20
-33.3256072737453
 30
0.0
 10
52.55121812979015
 20
-32.01107400799437
 30
0.0
 10
52.48158589895097
 20
-30.09136743314642
 30
0.0
 10
53.03521030607916
 20
-27.72652525115525
 30
0.0
 10
53.64069255913282
 20
-26.25499505058709
 30
0.0
 10
54.47056596601777
 20
-24.97772420309911
 30
0.0
 10
55.58052896224923
 20
-23.95866366087153
 30
0.0
 10
56.88691430919888
 20
-23.10880544080083
 30
0.0
 10
58.11244824463589
 20
-22.67715343520291
 30
0.0
 10
58.86495026604013
 20
-22.45641185359753
 30
0.0
 10
59.09486039231176
 20
-22.39274643465058
 30
0.0
  0
ARC
  5
67
330
1F
100
AcDbEntity
  8
0
  6
Continuous
 62
     7
370
    15
100
AcDbCircle
 10
59.0414861335
 20
-22.1999999989
 30
0.0
 40
0.1999999999999992
100
AcDbArc
 50
285.4781750979
 51
90.0
  0
LINE
  5
68
330
1F
100
AcDbEntity
  8
0
  6
Continuous
 62
     7
370
    15
100
AcDbLine
 10
59.0414861335
 20
-21.9999999989
 30
0.0
 11
27.7583647335
 21
-21.9999999989
 31
0.0
  0
ARC
  5
69
330
1F
100
AcDbEntity
  8
0
  6
Continuous
 62
     7
370
    15
100
AcDbCircle
 10
27.7583647335
 20
-22.1999999989
 30
0.0
 40
0.2000000000000028
100
AcDbArc
 50
90.0
 51
252.778126925
  0
SPLINE
  5
6A
330
1F
100
AcDbEntity
  8
0
  6
Continuous
 62
     7
370
    15
100
AcDbSpline
210
0.0
220
0.0
230
1.0
 70
     8
 71
     3
 72
    14
 73
    10
 74
     0
 42
0.00000001
 43
0.00000001
 40
0.0566489335909606
 40
0.0566489335909606
 40
0.0566489335909606
 40
0.0566489335909606
 40
0.0977556297973735
 40
0.2252360965255165
 40
0.3462263679517809
 40
0.4644657187796173
 40
0.5826895935901766
 40
0.7049436100186587
 40
0.9628032074977942
 40
0.9628032074977942
 40
0.9628032074977942
 40
0.9628032074977942
 10
27.69915019095354
 20
-22.39103307966416
 30
0.0
 10
28.02698505962978
 20
-22.49265208569971
 30
0.0
 10
29.36494883122135
 20
-22.93085875229406
 30
0.0
 10
31.60731751657514
 20
-23.84240063898454
 30
0.0
 10
34.28704131320065
 20
-25.33819475177579
 30
0.0
 10
36.66947299095936
 20
-27.14585720744101
 30
0.0
 10
38.83816788784733
 20
-29.21512504080844
 30
0.0
 10
41.58751926725601
 20
-32.33810815077296
 30
0.0
 10
43.45781670018901
 20
-34.90858263707096
 30
0.0
 10
44.5493008187978
 20
-36.76579492034418
 30
0.0
  0
SPLINE
  5
6B
330
1F
100
AcDbEntity
  8
0
  6
Continuous
 62
     7
370
    15
100
AcDbSpline
210
0.0
220
0.0
230
1.0
 70
     8
 71
     3
 72
    17
 73
    13
 74
     0
 42
0.00000001
 43
0.00000001
 40
0.0
 40
0.0
 40
0.0
 40
0.0
 40
0.2614847192476467
 40
0.4004192492567996
 40
0.5452187703617886
 40
0.6155485545690562
 40
0.6782340413301844
 40
0.7345836758949139
 40
0.7874072569301813
 40
0.8374178219066575
 40
0.8880943878004183
 40
1.0
 40
1.0
 40
1.0
 40
1.0
 10
44.5493008187978
 20
-36.76579492034418
 30
0.0
 10
46.21594647634448
 20
-39.51819930040448
 30
0.0
 10
48.41286265910602
 20
-43.94447669106299
 30
0.0
 10
50.71404626966869
 20
-50.24805620535293
 30
0.0
 10
51.99256661611718
 20
-54.41448429031895
 30
0.0
 10
52.74196688151385
 20
-57.75389183327964
 30
0.0
 10
52.93507431878587
 20
-60.0846603774196
 30
0.0
 10
52.76976334444593
 20
-62.20170573914915
 30
0.0
 10
52.25448076254105
 20
-64.1066245529989
 30
0.0
 10
51.34495867013612
 20
-65.78009867370868
 30
0.0
 10
49.60564600372679
 20
-67.76301069283241
 30
0.0
 10
47.81059334590246
 20
-68.75636066416996
 30
0.0
 10
46.54304593216762
 20
-69.27165887655998
 30
0.0
  0
SPLINE
  5
6C
330
1F
100
AcDbEntity
  8
0
  6
Continuous
 62
     7
370
    15
100
AcDbSpline
210
0.0
220
0.0
230
1.0
 70
     8
 71
     3
 72
     9
 73
     5
 74
     0
 42
0.00000001
 43
0.00000001
 40
0.0
 40
0.0
 40
0.0
 40
0.0
 40
0.4801146055879751
 40
1.0
 40
1.0
 40
1.0
 40
1.0
 10
46.54304593216762
 20
-69.27165887655998
 30
0.0
 10
45.45179852983983
 20
-69.6783611433628
 30
0.0
 10
43.11164460642445
 20
-70.38821693816364
 30
0.0
 10
40.66880532471711
 20
-70.53173286958011
 30
0.0
 10
39.40856586961876
 20
-70.54218272331525
 30
0.0
  0
SPLINE
  5
6D
330
1F
100
AcDbEntity
  8
0
  6
Continuous
 62
     7
370
    15
100
AcDbSpline
210
0.0
220
0.0
230
1.0
 70
     8
 71
     3
 72
    21
 73
    17
 74
     0
 42
0.00000001
 43
0.00000001
 40
0.0
 40
0.0
 40
0.0
 40
0.0
 40
0.1292754966833689
 40
0.1904410097032205
 40
0.2503159415314827
 40
0.3105464559882136
 40
0.3715204880972678
 40
0.4340424769876517
 40
0.4994653080715645
 40
0.5654212167961319
 40
0.6299894498379474
 40
0.6929682051819819
 40
0.7549491154633159
 40
0.8166185593299101
 40
0.8777539331059567
 40
1.0
 40
1.0
 40
1.0
 40
1.0
 10
39.40856586961876
 20
-70.54218272331525
 30
0.0
 10
37.04208286848706
 20
-70.57296419672525
 30
0.0
 10
33.56336401266379
 20
-70.1882499169504
 30
0.0
 10
29.14095633557401
 20
-68.96592118150782
 30
0.0
 10
26.10545633989168
 20
-67.61807949136157
 30
0.0
 10
23.22523608531229
 20
-65.97068869774563
 30
0.0
 10
20.58297165165879
 20
-63.88305701056364
 30
0.0
 10
18.1087168455085
 20
-61.46424320921536
 30
0.0
 10
15.91117840920506
 20
-58.67489451316521
 30
0.0
 10
13.90409333327471
 20
-55.70776049057876
 30
0.0
 10
12.09635680419729
 20
-52.66461154906143
 30
0.0
 10
10.55835857999991
 20
-49.558782323884
 30
0.0
 10
9.203735137106126
 20
-46.42544480696414
 30
0.0
 10
8.140902742247333
 20
-43.21608142567639
 30
0.0
 10
7.011516269447458
 20
-38.87927730695762
 30
0.0
 10
6.522323399399585
 20
-35.5537036816072
 30
0.0
 10
6.355399333262223
 20
-33.32560727374529
 30
0.0
  0
SPLINE
  5
6E
330
1F
100
AcDbEntity
  8
0
  6
Continuous
 62
     7
370
    15
100
AcDbSpline
210
0.0
220
0.0
230
1.0
 70
     8
 71
     3
 72
     9
 73
     5
 74
     0
 42
0.00000001
 43
0.00000001
 40
0.0
 40
0.0
 40
0.0
 40
0.0
 40
0.4696989310470039
 40
1.0
 40
1.0
 40
1.0
 40
1.0
 10
85.55790128791429
 20
-63.93545872018781
 30
0.0
 10
84.95664132150138
 20
-64.34497587027784
 30
0.0
 10
83.4913530155059
 20
-64.85112006551317
 30
0.0
 10
81.95355697560822
 20
-64.97841520107386
 30
0.0
 10
81.14038760534979
 20
-64.93233127687272
 30
0.0
  0
SPLINE
  5
6F
330
1F
100
AcDbEntity
  8
0
  6
Continuous
 62
     7
370
    15
100
AcDbSpline
210
0.0
220
0.0
230
1.0
 70
     8
 71
     3
 72
    21
 73
    17
 74
     0
 42
0.00000001
 43
0.00000001
 40
0.0
 40
0.0
 40
0.0
 40
0.0
 40
0.0995227694480108
 40
0.1579755545666039
 40
0.2243411990187233
 40
0.2956617449097442
 40
0.3678251673103742
 40
0.4405610694858482
 40
0.5146055161096617
 40
0.5885084814068864
 40
0.6597896127903983
 40
0.7286603885936845
 40
0.7960418521077255
 40
0.857776262239668
 40
0.9112651996635
 40
1.0
 40
1.0
 40
1.0
 40
1.0
 10
69.19746344585019
 20
-26.73842979133715
 30
0.0
 10
70.65498794399876
 20
-27.01278499977178
 30
0.0
 10
72.81158321233546
 20
-28.0312055649539
 30
0.0
 10
75.34388472944038
 20
-30.19897509698932
 30
0.0
 10
77.294346679242
 20
-32.35616767493123
 30
0.0
 10
79.16114571794738
 20
-34.84168684678885
 30
0.0
 10
80.92267148414675
 20
-37.51568864290074
 30
0.0
 10
82.5131196217627
 20
-40.34217524125147
 30
0.0
 10
83.90764754079969
 20
-43.2984232415891
 30
0.0
 10
85.10579770868205
 20
-46.31540770095462
 30
0.0
 10
86.0973326879555
 20
-49.32746954998986
 30
0.0
 10
86.81601457729118
 20
-52.31596640422839
 30
0.0
 10
87.3205517856053
 20
-55.20656975205717
 30
0.0
 10
87.4901686052829
 20
-57.90832500808917
 30
0.0
 10
87.2883024708778
 20
-60.93888817311387
 30
0.0
 10
86.41345585920422
 20
-62.92743963702789
 30
0.0
 10
85.55790128791429
 20
-63.93545872018781
 30
0.0
  0
SPLINE
  5
70
330
1F
100
AcDbEntity
  8
0
  6
Continuous
 62
     7
370
    15
100
AcDbSpline
210
0.0
220
0.0
230
1.0
 70
     8
 71
     3
 72
     9
 73
     5
 74
     0
 42
0.00000001
 43
0.00000001
 40
0.0
 40
0.0
 40
0.0
 40
0.0
 40
0.4461539416245818
 40
1.0
 40
1.0
 40
1.0
 40
1.0
 10
64.44765891105739
 20
-28.63444230111041
 30
0.0
 10
64.80610575238255
 20
-27.8914252830512
 30
0.0
 10
66.30557980846218
 20
-26.68414980087479
 30
0.0
 10
68.2184808551108
 20
-26.66756154976085
 30
0.0
 10
69.19746344585019
 20
-26.73842979133715
 30
0.0
  0
SPLINE
  5
71
330
1F
100
AcDbEntity
  8
0
  6
Continuous
 62
     7
370
    15
100
AcDbSpline
210
0.0
220
0.0
230
1.0
 70
     8
 71
     3
 72
    21
 73
    17
 74
     0
 42
0.00000001
 43
0.00000001
 40
0.0
 40
0.0
 40
0.0
 40
0.0
 40
0.0958713248429165
 40
0.1509568376244981
 40
0.2115496027359834
 40
0.277044413229384
 40
0.3474484883349497
 40
0.4236598130863393
 40
0.5038987729989384
 40
0.5837762878049884
 40
0.6578151999838336
 40
0.725493303846768
 40
0.7879485799750927
 40
0.8464814794666755
 40
0.9005104538453343
 40
1.0
 40
1.0
 40
1.0
 40
1.0
 10
71.503952890729
 20
-55.62818741448023
 30
0.0
 10
71.04767407518453
 20
-54.83013166037386
 30
0.0
 10
70.44945426112493
 20
-53.51356603444344
 30
0.0
 10
69.55794109973544
 20
-51.6945036752937
 30
0.0
 10
68.84447343848707
 20
-50.11295572555399
 30
0.0
 10
68.08009191449536
 20
-48.39372724157991
 30
0.0
 10
67.27960461104026
 20
-46.52699839755346
 30
0.0
 10
66.42300581187199
 20
-44.53079029599705
 30
0.0
 10
65.55094179479221
 20
-42.44246858767829
 30
0.0
 10
64.75795330263324
 20
-40.34429259315108
 30
0.0
 10
64.12629759504115
 20
-38.31693940716279
 30
0.0
 10
63.68549205497479
 20
-36.40984570259775
 30
0.0
 10
63.44259056991998
 20
-34.61680185921423
 30
0.0
 10
63.39527674175285
 20
-32.93751732912103
 30
0.0
 10
63.59698091300585
 20
-30.91181812261323
 30
0.0
 10
64.01648891887095
 20
-29.48816077087626
 30
0.0
 10
64.44765891105739
 20
-28.63444230111042
 30
0.0
  0
SPLINE
  5
72
330
1F
100
AcDbEntity
  8
0
  6
Continuous
 62
     7
370
    15
100
AcDbSpline
210
0.0
220
0.0
230
1.0
 70
     8
 71
     3
 72
    11
 73
     7
 74
     0
 42
0.00000001
 43
0.00000001
 40
0.0
 40
0.0
 40
0.0
 40
0.0
 40
0.2525896159646091
 40
0.3758110206297544
 40
0.5037703712234424
 40
1.0
 40
1.0
 40
1.0
 40
1.0
 10
81.14038760534979
 20
-64.93233127687272
 30
0.0
 10
79.99568633342506
 20
-64.69164277474458
 30
0.0
 10
78.37764742555223
 20
-64.01411446901525
 30
0.0
 10
76.48926048161931
 20
-62.63654872074169
 30
0.0
 10
74.18135380384675
 20
-60.05848844566132
 30
0.0
 10
72.64765604043208
 20
-57.60690439779561
 30
0.0
 10
71.503952890729
 20
-55.62818741448022
 30
0.0
  0
SPLINE
  5
73
330
1F
100
AcDbEntity
  8
0
  6
Continuous
 62
     7
370
    15
100
AcDbSpline
210
0.0
220
0.0
230
1.0
 70
     8
 71
     3
 72
    13
 73
     9
 74
     0
 42
0.00000001
 43
0.00000001
 40
0.0
 40
0.0
 40
0.0
 40
0.0
 40
0.2484391881701979
 40
0.3708493432924054
 40
0.5074889239808645
 40
0.6475307087902101
 40
0.775535548523529
 40
1.0
 40
1.0
 40
1.0
 40
1.0
 10
134.6196682933873
 20
-61.88307404466006
 30
0.0
 10
134.1440995849357
 20
-62.8534600818664
 30
0.0
 10
133.0165802137711
 20
-64.17875161306006
 30
0.0
 10
130.854801898903
 20
-64.89040921955416
 30
0.0
 10
129.0886280554972
 20
-64.93294208298536
 30
0.0
 10
127.3208739537143
 20
-64.74013556145711
 30
0.0
 10
125.1821540869446
 20
-64.39050437235194
 30
0.0
 10
123.7099008100095
 20
-63.87598479098155
 30
0.0
 10
122.8135697789229
 20
-63.46634222292433
 30
0.0
  0
SPLINE
  5
74
330
1F
100
AcDbEntity
  8
0
  6
Continuous
 62
     7
370
    15
100
AcDbSpline
210
0.0
220
0.0
230
1.0
 70
     8
 71
     3
 72
    17
 73
    13
 74
     0
 42
0.00000001
 43
0.00000001
 40
0.0
 40
0.0
 40
0.0
 40
0.0
 40
0.2153632123782238
 40
0.3475093795723163
 40
0.4979921743864381
 40
0.5736152581322285
 40
0.6421466882584029
 40
0.7041900456017929
 40
0.7627404960621336
 40
0.8189119125027967
 40
0.8754891060644456
 40
1.0
 40
1.0
 40
1.0
 40
1.0
 10
126.3123969876798
 20
-50.60473158961705
 30
0.0
 10
127.2787396630611
 20
-51.16573839129087
 30
0.0
 10
128.7890554792179
 20
-52.15343878863408
 30
0.0
 10
130.8652177125535
 20
-53.69047258290212
 30
0.0
 10
132.3575134736421
 20
-54.79947992541428
 30
0.0
 10
133.5145961161265
 20
-55.80017712058527
 30
0.0
 10
134.2340148898871
 20
-56.59892398975018
 30
0.0
 10
134.74709444536
 20
-57.43958928665168
 30
0.0
 10
135.1179758513005
 20
-58.28315581508114
 30
0.0
 10
135.2814378525345
 20
-59.1668555792658
 30
0.0
 10
135.2035284447367
 20
-60.40223961120184
 30
0.0
 10
134.9415063712642
 20
-61.31630414914515
 30
0.0
 10
134.6196682933873
 20
-61.88307404466006
 30
0.0
  0
SPLINE
  5
75
330
1F
100
AcDbEntity
  8
0
  6
Continuous
 62
     7
370
    15
100
AcDbSpline
210
0.0
220
0.0
230
1.0
 70
     8
 71
     3
 72
     9
 73
     5
 74
     0
 42
0.00000001
 43
0.00000001
 40
0.0
 40
0.0
 40
0.0
 40
0.0
 40
0.4397608533071841
 40
1.0
 40
1.0
 40
1.0
 40
1.0
 10
120.4288942511669
 20
-52.98940711737312
 30
0.0
 10
121.2124225180699
 20
-52.47550078232304
 30
0.0
 10
123.1492621350043
 20
-51.59204862978023
 30
0.0
 10
125.1633235840269
 20
-50.91514508304331
 30
0.0
 10
126.3123969876798
 20
-50.60473158961705
 30
0.0
  0
SPLINE
  5
76
330
1F
100
AcDbEntity
  8
0
  6
Continuous
 62
     7
370
    15
100
AcDbSpline
210
0.0
220
0.0
230
1.0
 70
     8
 71
     3
 72
    17
 73
    13
 74
     0
 42
0.00000001
 43
0.00000001
 40
0.0
 40
0.0
 40
0.0
 40
0.0
 40
0.2412854711372256
 40
0.3673475548915983
 40
0.5024415320242254
 40
0.5688883137996752
 40
0.6295748887179008
 40
0.686496462851601
 40
0.742418176769098
 40
0.7991899570269759
 40
0.8595952485078256
 40
1.0
 40
1.0
 40
1.0
 40
1.0
 10
122.8135697789229
 20
-63.46634222292433
 30
0.0
 10
121.8418236905756
 20
-63.00509915415783
 30
0.0
 10
120.4732198316358
 20
-62.02972802443937
 30
0.0
 10
119.1400759129759
 20
-60.20914378504447
 30
0.0
 10
118.4507751481173
 20
-58.91305920101365
 30
0.0
 10
118.0456342668549
 20
-57.80997725797732
 30
0.0
 10
117.9045256942748
 20
-56.9962945012982
 30
0.0
 10
117.9116881939719
 20
-56.21388829471425
 30
0.0
 10
118.1240058443911
 20
-55.47986778571074
 30
0.0
 10
118.4592622608819
 20
-54.77952137096149
 30
0.0
 10
119.164329468395
 20
-53.85920800016233
 30
0.0
 10
119.9080031455175
 20
-53.33138364682301
 30
0.0
 10
120.4288942511669
 20
-52.98940711737312
 30
0.0
  0
ENDSEC
  0
SECTION
  2
OBJECTS
  0
DICTIONARY
  5
C
330
0
100
AcDbDictionary
281
     1
  3
ACAD_GROUP
350
D
  3
ACAD_LAYOUT
350
1A
  3
ACAD_MLEADERSTYLE
350
79
  3
ACAD_MLINESTYLE
350
17
  3
ACAD_PLOTSETTINGS
350
19
  3
ACAD_PLOTSTYLENAME
350
E
  3
ACAD_VISUALSTYLE
350
2A
  3
AcDbVariableDictionary
350
77
  0
DICTIONARY
  5
D
102
{ACAD_REACTORS
330
C
102
}
330
C
100
AcDbDictionary
281
     1
  0
DICTIONARY
  5
1A
102
{ACAD_REACTORS
330
C
102
}
330
C
100
AcDbDictionary
281
     1
  3
Layout1
350
1E
  3
Layout2
350
26
  3
Model
350
22
  0
DICTIONARY
  5
79
102
{ACAD_REACTORS
330
C
102
}
330
C
100
AcDbDictionary
281
     1
  0
DICTIONARY
  5
17
102
{ACAD_REACTORS
330
C
102
}
330
C
100
AcDbDictionary
281
     1
  3
Standard
350
18
  0
DICTIONARY
  5
19
102
{ACAD_REACTORS
330
C
102
}
330
C
100
AcDbDictionary
281
     1
  0
ACDBDICTIONARYWDFLT
  5
E
102
{ACAD_REACTORS
330
C
102
}
330
C
100
AcDbDictionary
281
     1
  3
Normal
350
F
100
AcDbDictionaryWithDefault
340
F
  0
DICTIONARY
  5
2A
102
{ACAD_REACTORS
330
C
102
}
330
C
100
AcDbDictionary
281
     1
  3
2dWireframe
350
2F
  3
3D Hidden
350
31
  3
3dWireframe
350
30
  3
Basic
350
32
  3
Brighten
350
36
  3
ColorChange
350
3A
  3
Conceptual
350
34
  3
Dim
350
35
  3
Facepattern
350
39
  3
Flat
350
2B
  3
FlatWithEdges
350
2C
  3
Gouraud
350
2D
  3
GouraudWithEdges
350
2E
  3
Linepattern
350
38
  3
Realistic
350
33
  3
Thicken
350
37
  0
DICTIONARY
  5
77
102
{ACAD_REACTORS
330
C
102
}
330
C
100
AcDbDictionary
281
     1
  3
DIMASSOC
350
7C
  3
HIDETEXT
350
7D
  3
PSOLHEIGHT
350
7B
  3
PSOLWIDTH
350
7A
  0
LAYOUT
  5
1E
102
{ACAD_REACTORS
330
1A
102
}
330
1A
100
AcDbPlotSettings
  1

  2
none_device
  4

  6

 40
0.0
 41
0.0
 42
0.0
 43
0.0
 44
0.0
 45
0.0
 46
0.0
 47
0.0
 48
0.0
 49
0.0
140
0.0
141
0.0
142
1.0
143
1.0
 70
   688
 72
     0
 73
     0
 74
     5
  7

 75
    16
147
1.0
148
0.0
149
0.0
100
AcDbLayout
  1
Layout1
 70
     1
 71
     1
 10
0.0
 20
0.0
 11
420.0
 21
297.0
 12
0.0
 22
0.0
 32
0.0
 14
1.0000000000E+20
 24
1.0000000000E+20
 34
1.0000000000E+20
 15
-1.0000000000E+20
 25
-1.0000000000E+20
 35
-1.0000000000E+20
146
0.0
 13
0.0
 23
0.0
 33
0.0
 16
1.0
 26
0.0
 36
0.0
 17
0.0
 27
1.0
 37
0.0
 76
     0
330
1B
  0
LAYOUT
  5
26
102
{ACAD_REACTORS
330
1A
102
}
330
1A
100
AcDbPlotSettings
  1

  2
none_device
  4

  6

 40
0.0
 41
0.0
 42
0.0
 43
0.0
 44
0.0
 45
0.0
 46
0.0
 47
0.0
 48
0.0
 49
0.0
140
0.0
141
0.0
142
1.0
143
1.0
 70
   688
 72
     0
 73
     0
 74
     5
  7

 75
    16
147
1.0
148
0.0
149
0.0
100
AcDbLayout
  1
Layout2
 70
     1
 71
     2
 10
0.0
 20
0.0
 11
0.0
 21
0.0
 12
0.0
 22
0.0
 32
0.0
 14
0.0
 24
0.0
 34
0.0
 15
0.0
 25
0.0
 35
0.0
146
0.0
 13
0.0
 23
0.0
 33
0.0
 16
1.0
 26
0.0
 36
0.0
 17
0.0
 27
1.0
 37
0.0
 76
     0
330
23
  0
LAYOUT
  5
22
102
{ACAD_REACTORS
330
1A
102
}
330
1A
100
AcDbPlotSettings
  1

  2
none_device
  4
ANSI_A_(11.00_x_8.50_Inches)
  6

 40
6.35
 41
19.05
 42
6.35000508
 43
19.05000254
 44
279.4
 45
215.9
 46
-4.95300254
 47
151.2833757436
 48
0.0
 49
0.0
140
0.0
141
0.0
142
0.0726
143
1.0
 70
  1696
 72
     0
 73
     0
 74
     0
  7

 75
     0
147
0.0179189148
148
0.0
149
0.0
100
AcDbLayout
  1
Model
 70
     1
 71
     0
 10
0.0
 20
0.0
 11
420.0
 21
297.0
 12
0.0
 22
0.0
 32
0.0
 14
0.0
 24
-70.6594618486
 34
0.0
 15
150.0
 25
3.0
 35
0.0
146
0.0
 13
0.0
 23
0.0
 33
0.0
 16
1.0
 26
0.0
 36
0.0
 17
0.0
 27
1.0
 37
0.0
 76
     0
330
1F
331
29
  0
MLINESTYLE
  5
18
102
{ACAD_REACTORS
330
17
102
}
330
17
100
AcDbMlineStyle
  2
Standard
 70
     0
  3

 62
   256
 51
90.0
 52
90.0
 71
     2
 49
0.5
 62
   256
  6
BYLAYER
 49
-0.5
 62
   256
  6
BYLAYER
  0
ACDBPLACEHOLDER
  5
F
102
{ACAD_REACTORS
330
E
102
}
330
E
  0
VISUALSTYLE
  5
2F
102
{ACAD_REACTORS
330
2A
102
}
330
2A
100
AcDbVisualStyle
  2
2dWireframe
 70
     4
 71
     0
 72
     2
 73
     0
 90
        0
 40
-0.6
 41
-30.0
 62
     5
 63
     7
 74
     1
 91
        4
 64
     7
 65
   257
 75
     1
175
     1
 42
1.0
 92
        0
 66
   257
 43
1.0
 76
     1
 77
     6
 78
     2
 67
     7
 79
     5
170
     0
171
     0
290
     0
174
     0
 93
        1
 44
0.0
173
     0
291
     0
 45
0.0
1001
ACAD
1000
AcDbSavedByObjectVersion
1070
     0
  0
VISUALSTYLE
  5
31
102
{ACAD_REACTORS
330
2A
102
}
330
2A
100
AcDbVisualStyle
  2
3D Hidden
 70
     6
 71
     1
 72
     2
 73
     2
 90
        0
 40
-0.6
 41
-30.0
 62
     5
 63
     7
 74
     2
 91
        2
 64
     7
 65
   257
 75
     2
175
     1
 42
40.0
 92
        0
 66
   257
 43
1.0
 76
     1
 77
     6
 78
     2
 67
     7
 79
     3
170
     0
171
     0
290
     0
174
     0
 93
        1
 44
0.0
173
     0
291
     0
 45
0.0
1001
ACAD
1000
AcDbSavedByObjectVersion
1070
     0
  0
VISUALSTYLE
  5
30
102
{ACAD_REACTORS
330
2A
102
}
330
2A
100
AcDbVisualStyle
  2
3dWireframe
 70
     5
 71
     0
 72
     2
 73
     0
 90
        0
 40
-0.6
 41
-30.0
 62
     5
 63
     7
 74
     1
 91
        4
 64
     7
 65
   257
 75
     1
175
     1
 42
1.0
 92
        0
 66
   257
 43
1.0
 76
     1
 77
     6
 78
     2
 67
     7
 79
     5
170
     0
171
     0
290
     0
174
     0
 93
        1
 44
0.0
173
     0
291
     0
 45
0.0
1001
ACAD
1000
AcDbSavedByObjectVersion
1070
     0
  0
VISUALSTYLE
  5
32
102
{ACAD_REACTORS
330
2A
102
}
330
2A
100
AcDbVisualStyle
  2
Basic
 70
     7
 71
     1
 72
     0
 73
     1
 90
        0
 40
-0.6
 41
-30.0
 62
     5
 63
     7
 74
     0
 91
        4
 64
     7
 65
   257
 75
     1
175
     1
 42
1.0
 92
        8
 66
     7
 43
1.0
 76
     1
 77
     6
 78
     2
 67
     7
 79
     5
170
     0
171
     0
290
     0
174
     0
 93
        1
 44
0.0
173
     0
291
     1
 45
0.0
1001
ACAD
1000
AcDbSavedByObjectVersion
1070
     0
  0
VISUALSTYLE
  5
36
102
{ACAD_REACTORS
330
2A
102
}
330
2A
100
AcDbVisualStyle
  2
Brighten
 70
    12
 71
     2
 72
     2
 73
     0
 90
        0
 40
-0.6
 41
-30.0
 62
     5
 63
     7
 74
     1
 91
        4
 64
     7
 65
   257
 75
     1
175
     1
 42
1.0
 92
        8
 66
     7
 43
1.0
 76
     1
 77
     6
 78
     2
 67
     7
 79
     5
170
     0
171
     0
290
     0
174
     0
 93
        1
 44
50.0
173
     0
291
     1
 45
0.0
1001
ACAD
1000
AcDbSavedByObjectVersion
1070
     0
  0
VISUALSTYLE
  5
3A
102
{ACAD_REACTORS
330
2A
102
}
330
2A
100
AcDbVisualStyle
  2
ColorChange
 70
    16
 71
     2
 72
     2
 73
     3
 90
        0
 40
-0.6
 41
-30.0
 62
     5
 63
     8
 74
     1
 91
        4
 64
     7
 65
   257
 75
     1
175
     1
 42
1.0
 92
        8
 66
     8
 43
1.0
 76
     1
 77
     6
 78
     2
 67
     7
 79
     5
170
     0
171
     0
290
     0
174
     0
 93
        1
 44
0.0
173
     0
291
     1
 45
0.0
1001
ACAD
1000
AcDbSavedByObjectVersion
1070
     0
  0
VISUALSTYLE
  5
34
102
{ACAD_REACTORS
330
2A
102
}
330
2A
100
AcDbVisualStyle
  2
Conceptual
 70
     9
 71
     3
 72
     2
 73
     0
 90
        0
 40
-0.6
 41
-30.0
 62
     5
 63
     7
 74
     2
 91
        2
 64
     7
 65
   257
 75
     1
175
     1
 42
40.0
 92
        8
 66
     7
 43
1.0
 76
     1
 77
     6
 78
     2
 67
     7
 79
     3
170
     0
171
     0
290
     0
174
     0
 93
        1
 44
0.0
173
     0
291
     0
 45
0.0
1001
ACAD
1000
AcDbSavedByObjectVersion
1070
     0
  0
VISUALSTYLE
  5
35
102
{ACAD_REACTORS
330
2A
102
}
330
2A
100
AcDbVisualStyle
  2
Dim
 70
    11
 71
     2
 72
     2
 73
     0
 90
        0
 40
-0.6
 41
-30.0
 62
     5
 63
     7
 74
     1
 91
        4
 64
     7
 65
   257
 75
     1
175
     1
 42
1.0
 92
        8
 66
     7
 43
1.0
 76
     1
 77
     6
 78
     2
 67
     7
 79
     5
170
     0
171
     0
290
     0
174
     0
 93
        1
 44
-50.0
173
     0
291
     1
 45
0.0
1001
ACAD
1000
AcDbSavedByObjectVersion
1070
     0
  0
VISUALSTYLE
  5
39
102
{ACAD_REACTORS
330
2A
102
}
330
2A
100
AcDbVisualStyle
  2
Facepattern
 70
    15
 71
     2
 72
     2
 73
     0
 90
        0
 40
-0.6
 41
-30.0
 62
     5
 63
     7
 74
     1
 91
        4
 64
     7
 65
   257
 75
     1
175
     1
 42
1.0
 92
        8
 66
     7
 43
1.0
 76
     1
 77
     6
 78
     2
 67
     7
 79
     5
170
     0
171
     0
290
     0
174
     0
 93
        1
 44
0.0
173
     0
291
     1
 45
0.0
1001
ACAD
1000
AcDbSavedByObjectVersion
1070
     0
  0
VISUALSTYLE
  5
2B
102
{ACAD_REACTORS
330
2A
102
}
330
2A
100
AcDbVisualStyle
  2
Flat
 70
     0
 71
     2
 72
     1
 73
     1
 90
        2
 40
-0.6
 41
30.0
 62
     5
 63
     7
 74
     0
 91
        4
 64
     7
 65
   257
 75
     1
175
     1
 42
1.0
 92
        8
 66
     7
 43
1.0
 76
     1
 77
     6
 78
     2
 67
     7
 79
     5
170
     0
171
     0
290
     0
174
     0
 93
       13
 44
0.0
173
     0
291
     1
 45
0.0
1001
ACAD
1000
AcDbSavedByObjectVersion
1070
     0
  0
VISUALSTYLE
  5
2C
102
{ACAD_REACTORS
330
2A
102
}
330
2A
100
AcDbVisualStyle
  2
FlatWithEdges
 70
     1
 71
     2
 72
     1
 73
     1
 90
        2
 40
-0.6
 41
30.0
 62
     5
 63
     7
 74
     1
 91
        4
 64
     7
 65
   257
 75
     1
175
     1
 42
1.0
 92
        0
 66
   257
 43
1.0
 76
     1
 77
     6
 78
     2
 67
     7
 79
     5
170
     0
171
     0
290
     0
174
     0
 93
       13
 44
0.0
173
     0
291
     1
 45
0.0
1001
ACAD
1000
AcDbSavedByObjectVersion
1070
     0
  0
VISUALSTYLE
  5
2D
102
{ACAD_REACTORS
330
2A
102
}
330
2A
100
AcDbVisualStyle
  2
Gouraud
 70
     2
 71
     2
 72
     2
 73
     1
 90
        2
 40
-0.6
 41
30.0
 62
     5
 63
     7
 74
     0
 91
        4
 64
     7
 65
   257
 75
     1
175
     1
 42
1.0
 92
        0
 66
     7
 43
1.0
 76
     1
 77
     6
 78
     2
 67
     7
 79
     5
170
     0
171
     0
290
     0
174
     0
 93
       13
 44
0.0
173
     0
291
     1
 45
0.0
1001
ACAD
1000
AcDbSavedByObjectVersion
1070
     0
  0
VISUALSTYLE
  5
2E
102
{ACAD_REACTORS
330
2A
102
}
330
2A
100
AcDbVisualStyle
  2
GouraudWithEdges
 70
     3
 71
     2
 72
     2
 73
     1
 90
        2
 40
-0.6
 41
30.0
 62
     5
 63
     7
 74
     1
 91
        4
 64
     7
 65
   257
 75
     1
175
     1
 42
1.0
 92
        0
 66
   257
 43
1.0
 76
     1
 77
     6
 78
     2
 67
     7
 79
     5
170
     0
171
     0
290
     0
174
     0
 93
       13
 44
0.0
173
     0
291
     1
 45
0.0
1001
ACAD
1000
AcDbSavedByObjectVersion
1070
     0
  0
VISUALSTYLE
  5
38
102
{ACAD_REACTORS
330
2A
102
}
330
2A
100
AcDbVisualStyle
  2
Linepattern
 70
    14
 71
     2
 72
     2
 73
     0
 90
        0
 40
-0.6
 41
-30.0
 62
     5
 63
     7
 74
     1
 91
        4
 64
     7
 65
   257
 75
     7
175
     7
 42
1.0
 92
        8
 66
     7
 43
1.0
 76
     1
 77
     6
 78
     2
 67
     7
 79
     5
170
     0
171
     0
290
     0
174
     0
 93
        1
 44
0.0
173
     0
291
     1
 45
0.0
1001
ACAD
1000
AcDbSavedByObjectVersion
1070
     0
  0
VISUALSTYLE
  5
33
102
{ACAD_REACTORS
330
2A
102
}
330
2A
100
AcDbVisualStyle
  2
Realistic
 70
     8
 71
     2
 72
     2
 73
     0
 90
        0
 40
-0.6
 41
-30.0
 62
     5
 63
     7
 74
     1
 91
        0
 64
     7
 65
   257
 75
     1
175
     1
 42
1.0
 92
        8
 66
     8
 43
1.0
 76
     1
 77
     6
 78
     2
 67
     7
 79
     5
170
     0
171
     0
290
     0
174
     0
 93
       13
 44
0.0
173
     0
291
     0
 45
0.0
1001
ACAD
1000
AcDbSavedByObjectVersion
1070
     0
  0
VISUALSTYLE
  5
37
102
{ACAD_REACTORS
330
2A
102
}
330
2A
100
AcDbVisualStyle
  2
Thicken
 70
    13
 71
     2
 72
     2
 73
     0
 90
        0
 40
-0.6
 41
-30.0
 62
     5
 63
     7
 74
     1
 91
        4
 64
     7
 65
   257
 75
     1
175
     1
 42
1.0
 92
       12
 66
     7
 43
1.0
 76
     1
 77
     6
 78
     2
 67
     7
 79
     5
170
     0
171
     0
290
     0
174
     0
 93
        1
 44
0.0
173
     0
291
     1
 45
0.0
1001
ACAD
1000
AcDbSavedByObjectVersion
1070
     0
  0
DICTIONARYVAR
  5
7C
102
{ACAD_REACTORS
330
77
102
}
330
77
100
DictionaryVariables
280
     0
  1
2
  0
DICTIONARYVAR
  5
7D
102
{ACAD_REACTORS
330
77
102
}
330
77
100
DictionaryVariables
280
     0
  1
1
  0
DICTIONARYVAR
  5
7B
102
{ACAD_REACTORS
330
77
102
}
330
77
100
DictionaryVariables
280
     0
  1
80.000000
  0
DICTIONARYVAR
  5
7A
102
{ACAD_REACTORS
330
77
102
}
330
77
100
DictionaryVariables
280
     0
  1
5.000000
  0
ENDSEC
  0
EOF
