  0
SECTION
  2
HEADER
  9
$ACADVER
  1
AC1015
  9
$ACADMAINTVER
 70
     6
  9
$DWGCODEPAGE
  3
ANSI_1251
  9
$INSBASE
 10
0.0
 20
0.0
 30
0.0
  9
$EXTMIN
 10
0.0
 20
-71.2842209008
 30
0.0
  9
$EXTMAX
 10
150.0
 20
3.0
 30
0.0
  9
$LIMMIN
 10
0.0
 20
0.0
  9
$LIMMAX
 10
420.0
 20
297.0
  9
$ORTHOMODE
 70
     0
  9
$REGENMODE
 70
     1
  9
$FILLMODE
 70
     1
  9
$QTEXTMODE
 70
     0
  9
$MIRRTEXT
 70
     1
  9
$LTSCALE
 40
1.0
  9
$ATTMODE
 70
     1
  9
$TEXTSIZE
 40
3.5
  9
$TRACEWID
 40
1.0
  9
$TEXTSTYLE
  7
Standard
  9
$CLAYER
  8
0
  9
$CELTYPE
  6
ByLayer
  9
$CECOLOR
 62
   256
  9
$CELTSCALE
 40
1.0
  9
$DISPSILH
 70
     0
  9
$DIMSCALE
 40
1.0
  9
$DIMASZ
 40
3.302
  9
$DIMEXO
 40
1.0
  9
$DIMDLI
 40
3.75
  9
$DIMRND
 40
0.0
  9
$DIMDLE
 40
0.0
  9
$DIMEXE
 40
1.0
  9
$DIMTP
 40
0.0
  9
$DIMTM
 40
0.0
  9
$DIMTXT
 40
3.5
  9
$DIMCEN
 40
2.5
  9
$DIMTSZ
 40
0.0
  9
$DIMTOL
 70
     0
  9
$DIMLIM
 70
     0
  9
$DIMTIH
 70
     1
  9
$DIMTOH
 70
     1
  9
$DIMSE1
 70
     0
  9
$DIMSE2
 70
     0
  9
$DIMTAD
 70
     1
  9
$DIMZIN
 70
     0
  9
$DIMBLK
  1

  9
$DIMASO
 70
     1
  9
$DIMSHO
 70
     1
  9
$DIMPOST
  1

  9
$DIMAPOST
  1

  9
$DIMALT
 70
     0
  9
$DIMALTD
 70
     3
  9
$DIMALTF
 40
0.0393700787
  9
$DIMLFAC
 40
1.0
  9
$DIMTOFL
 70
     1
  9
$DIMTVP
 40
0.0
  9
$DIMTIX
 70
     0
  9
$DIMSOXD
 70
     0
  9
$DIMSAH
 70
     0
  9
$DIMBLK1
  1

  9
$DIMBLK2
  1

  9
$DIMSTYLE
  2
ISO-25
  9
$DIMCLRD
 70
     0
  9
$DIMCLRE
 70
     0
  9
$DIMCLRT
 70
     0
  9
$DIMTFAC
 40
1.0
  9
$DIMGAP
 40
1.524
  9
$DIMJUST
 70
     0
  9
$DIMSD1
 70
     0
  9
$DIMSD2
 70
     0
  9
$DIMTOLJ
 70
     0
  9
$DIMTZIN
 70
     0
  9
$DIMALTZ
 70
     0
  9
$DIMALTTZ
 70
     0
  9
$DIMUPT
 70
     0
  9
$DIMDEC
 70
     3
  9
$DIMTDEC
 70
     3
  9
$DIMALTU
 70
     2
  9
$DIMALTTD
 70
     3
  9
$DIMTXSTY
  7
Standard
  9
$DIMAUNIT
 70
     0
  9
$DIMADEC
 70
     2
  9
$DIMALTRND
 40
0.0
  9
$DIMAZIN
 70
     0
  9
$DIMDSEP
 70
    44
  9
$DIMATFIT
 70
     3
  9
$DIMFRAC
 70
     0
  9
$DIMLDRBLK
  1

  9
$DIMLUNIT
 70
     2
  9
$DIMLWD
 70
    -2
  9
$DIMLWE
 70
    -2
  9
$DIMTMOVE
 70
     0
  9
$LUNITS
 70
     2
  9
$LUPREC
 70
     2
  9
$SKETCHINC
 40
1.0
  9
$FILLETRAD
 40
10.0
  9
$AUNITS
 70
     0
  9
$AUPREC
 70
     2
  9
$MENU
  1
.
  9
$ELEVATION
 40
0.0
  9
$PELEVATION
 40
0.0
  9
$THICKNESS
 40
0.0
  9
$LIMCHECK
 70
     0
  9
$CHAMFERA
 40
10.0
  9
$CHAMFERB
 40
10.0
  9
$CHAMFERC
 40
20.0
  9
$CHAMFERD
 40
0.0
  9
$SKPOLY
 70
     0
  9
$TDCREATE
 40
2457591.786606412
  9
$TDUCREATE
 40
2457591.661606412
  9
$TDUPDATE
 40
2457591.786606424
  9
$TDUUPDATE
 40
2457591.661606424
  9
$TDINDWG
 40
0.0000000116
  9
$TDUSRTIMER
 40
0.0000000116
  9
$USRTIMER
 70
     1
  9
$ANGBASE
 50
0.0
  9
$ANGDIR
 70
     0
  9
$PDMODE
 70
     0
  9
$PDSIZE
 40
-1.0
  9
$PLINEWID
 40
0.0
  9
$SPLFRAME
 70
     0
  9
$SPLINETYPE
 70
     6
  9
$SPLINESEGS
 70
     8
  9
$HANDSEED
  5
7B
  9
$SURFTAB1
 70
     6
  9
$SURFTAB2
 70
     6
  9
$SURFTYPE
 70
     6
  9
$SURFU
 70
     6
  9
$SURFV
 70
     6
  9
$UCSBASE
  2

  9
$UCSNAME
  2

  9
$UCSORG
 10
0.0
 20
0.0
 30
0.0
  9
$UCSXDIR
 10
1.0
 20
0.0
 30
0.0
  9
$UCSYDIR
 10
0.0
 20
1.0
 30
0.0
  9
$UCSORTHOREF
  2

  9
$UCSORTHOVIEW
 70
     0
  9
$UCSORGTOP
 10
0.0
 20
0.0
 30
0.0
  9
$UCSORGBOTTOM
 10
0.0
 20
0.0
 30
0.0
  9
$UCSORGLEFT
 10
0.0
 20
0.0
 30
0.0
  9
$UCSORGRIGHT
 10
0.0
 20
0.0
 30
0.0
  9
$UCSORGFRONT
 10
0.0
 20
0.0
 30
0.0
  9
$UCSORGBACK
 10
0.0
 20
0.0
 30
0.0
  9
$PUCSBASE
  2

  9
$PUCSNAME
  2

  9
$PUCSORG
 10
0.0
 20
0.0
 30
0.0
  9
$PUCSXDIR
 10
1.0
 20
0.0
 30
0.0
  9
$PUCSYDIR
 10
0.0
 20
1.0
 30
0.0
  9
$PUCSORTHOREF
  2

  9
$PUCSORTHOVIEW
 70
     0
  9
$PUCSORGTOP
 10
0.0
 20
0.0
 30
0.0
  9
$PUCSORGBOTTOM
 10
0.0
 20
0.0
 30
0.0
  9
$PUCSORGLEFT
 10
0.0
 20
0.0
 30
0.0
  9
$PUCSORGRIGHT
 10
0.0
 20
0.0
 30
0.0
  9
$PUCSORGFRONT
 10
0.0
 20
0.0
 30
0.0
  9
$PUCSORGBACK
 10
0.0
 20
0.0
 30
0.0
  9
$USERI1
 70
     0
  9
$USERI2
 70
     0
  9
$USERI3
 70
     0
  9
$USERI4
 70
     0
  9
$USERI5
 70
     0
  9
$USERR1
 40
0.0
  9
$USERR2
 40
0.0
  9
$USERR3
 40
0.0
  9
$USERR4
 40
0.0
  9
$USERR5
 40
0.0
  9
$WORLDVIEW
 70
     1
  9
$SHADEDGE
 70
     3
  9
$SHADEDIF
 70
    70
  9
$TILEMODE
 70
     1
  9
$MAXACTVP
 70
    64
  9
$PINSBASE
 10
0.0
 20
0.0
 30
0.0
  9
$PLIMCHECK
 70
     0
  9
$PEXTMIN
 10
1.0000000000E+20
 20
1.0000000000E+20
 30
1.0000000000E+20
  9
$PEXTMAX
 10
-1.0000000000E+20
 20
-1.0000000000E+20
 30
-1.0000000000E+20
  9
$PLIMMIN
 10
0.0
 20
0.0
  9
$PLIMMAX
 10
420.0
 20
297.0
  9
$UNITMODE
 70
     0
  9
$VISRETAIN
 70
     1
  9
$PLINEGEN
 70
     0
  9
$PSLTSCALE
 70
     1
  9
$TREEDEPTH
 70
  3020
  9
$CMLSTYLE
  2
Standard
  9
$CMLJUST
 70
     0
  9
$CMLSCALE
 40
20.0
  9
$PROXYGRAPHICS
 70
     1
  9
$MEASUREMENT
 70
     1
  9
$CELWEIGHT
370
    -1
  9
$ENDCAPS
280
     0
  9
$JOINSTYLE
280
     0
  9
$LWDISPLAY
290
     1
  9
$INSUNITS
 70
     4
  9
$HYPERLINKBASE
  1

  9
$STYLESHEET
  1

  9
$XEDIT
290
     1
  9
$CEPSNTYPE
380
     0
  9
$PSTYLEMODE
290
     1
  9
$FINGERPRINTGUID
  2
{1289ACA3-826F-48B1-BFD8-6408843B48DA}
  9
$VERSIONGUID
  2
{FAEB1C32-E019-11D5-929B-00C0DF256EC4}
  9
$EXTNAMES
290
     1
  9
$PSVPSCALE
 40
0.0
  9
$OLESTARTUP
290
     0
  0
ENDSEC
  0
SECTION
  2
CLASSES
  0
CLASS
  1
ACDBDICTIONARYWDFLT
  2
AcDbDictionaryWithDefault
  3
ObjectDBX Classes
 90
        0
280
     0
281
     0
  0
CLASS
  1
VISUALSTYLE
  2
AcDbVisualStyle
  3
ObjectDBX Classes
 90
     4095
280
     0
281
     0
  0
CLASS
  1
DICTIONARYVAR
  2
AcDbDictionaryVar
  3
ObjectDBX Classes
 90
        0
280
     0
281
     0
  0
CLASS
  1
ACDBPLACEHOLDER
  2
AcDbPlaceHolder
  3
ObjectDBX Classes
 90
        0
280
     0
281
     0
  0
CLASS
  1
LAYOUT
  2
AcDbLayout
  3
ObjectDBX Classes
 90
        0
280
     0
281
     0
  0
ENDSEC
  0
SECTION
  2
TABLES
  0
TABLE
  2
VPORT
  5
8
330
0
100
AcDbSymbolTable
 70
     1
  0
VPORT
  5
29
330
8
100
AcDbSymbolTableRecord
100
AcDbViewportTableRecord
  2
*Active
 70
     0
 10
0.0
 20
0.0
 11
1.0
 21
1.0
 12
75.0
 22
-34.1421104504
 13
0.0
 23
0.0
 14
10.0
 24
10.0
 15
10.0
 25
10.0
 16
0.0
 26
0.0
 36
1.0
 17
0.0
 27
0.0
 37
0.0
 40
75.7699053188
 41
2.0192713632
 42
50.0
 43
0.0
 44
0.0
 50
0.0
 51
0.0
 71
     0
 72
   100
 73
     1
 74
     3
 75
     0
 76
     0
 77
     0
 78
     0
281
     0
 65
     1
110
0.0
120
0.0
130
0.0
111
1.0
121
0.0
131
0.0
112
0.0
122
1.0
132
0.0
 79
     0
146
0.0
  0
ENDTAB
  0
TABLE
  2
LTYPE
  5
5
330
0
100
AcDbSymbolTable
 70
     6
  0
LTYPE
  5
14
330
5
100
AcDbSymbolTableRecord
100
AcDbLinetypeTableRecord
  2
ByBlock
 70
     0
  3

 72
    65
 73
     0
 40
0.0
  0
LTYPE
  5
15
330
5
100
AcDbSymbolTableRecord
100
AcDbLinetypeTableRecord
  2
ByLayer
 70
     0
  3

 72
    65
 73
     0
 40
0.0
  0
LTYPE
  5
16
330
5
100
AcDbSymbolTableRecord
100
AcDbLinetypeTableRecord
  2
Continuous
 70
     0
  3
Solid line
 72
    65
 73
     0
 40
0.0
  0
LTYPE
  5
3B
330
5
100
AcDbSymbolTableRecord
100
AcDbLinetypeTableRecord
  2
HIDDEN
 70
     0
  3
Hidden __ __ __ __ __ __ __ __ __ __ __ __ __ __
 72
    65
 73
     2
 40
1.905
 49
1.27
 74
     0
 49
-0.635
 74
     0
  0
LTYPE
  5
3C
330
5
100
AcDbSymbolTableRecord
100
AcDbLinetypeTableRecord
  2
PHANTOM
 70
     0
  3
Phantom ______  __  __  ______  __  __  ______
 72
    65
 73
     6
 40
12.7
 49
6.35
 74
     0
 49
-1.27
 74
     0
 49
1.27
 74
     0
 49
-1.27
 74
     0
 49
1.27
 74
     0
 49
-1.27
 74
     0
  0
LTYPE
  5
3D
330
5
100
AcDbSymbolTableRecord
100
AcDbLinetypeTableRecord
  2
CENTER
 70
     0
  3
Center ____ _ ____ _ ____ _ ____ _ ____ _ ____
 72
    65
 73
     4
 40
10.16
 49
6.35
 74
     0
 49
-1.27
 74
     0
 49
1.27
 74
     0
 49
-1.27
 74
     0
  0
LTYPE
  5
3E
330
5
100
AcDbSymbolTableRecord
100
AcDbLinetypeTableRecord
  2
CENTERX2
 70
     0
  3
Center (2x) ________  __  ________  __  _____
 72
    65
 73
     4
 40
20.32
 49
12.7
 74
     0
 49
-2.54
 74
     0
 49
2.54
 74
     0
 49
-2.54
 74
     0
  0
LTYPE
  5
3F
330
5
100
AcDbSymbolTableRecord
100
AcDbLinetypeTableRecord
  2
DOT2
 70
     0
  3
Dot (.5x) ........................................
 72
    65
 73
     2
 40
0.635
 49
0.0
 74
     0
 49
-0.635
 74
     0
  0
ENDTAB
  0
TABLE
  2
LAYER
  5
2
330
0
100
AcDbSymbolTable
 70
     1
  0
LAYER
  5
10
330
2
100
AcDbSymbolTableRecord
100
AcDbLayerTableRecord
  2
0
 70
     0
 62
     7
  6
Continuous
370
    -3
390
F
  0
ENDTAB
  0
TABLE
  2
STYLE
  5
3
330
0
100
AcDbSymbolTable
 70
     1
  0
STYLE
  5
11
330
3
100
AcDbSymbolTableRecord
100
AcDbTextStyleTableRecord
  2
Standard
 70
     0
 40
0.0
 41
1.0
 50
0.0
 71
     0
 42
2.5
  3
txt
  4

  0
ENDTAB
  0
TABLE
  2
VIEW
  5
6
330
0
100
AcDbSymbolTable
 70
     0
  0
ENDTAB
  0
TABLE
  2
UCS
  5
7
330
0
100
AcDbSymbolTable
 70
     0
  0
ENDTAB
  0
TABLE
  2
APPID
  5
9
330
0
100
AcDbSymbolTable
 70
     1
  0
APPID
  5
12
330
9
100
AcDbSymbolTableRecord
100
AcDbRegAppTableRecord
  2
ACAD
 70
     0
  0
ENDTAB
  0
TABLE
  2
DIMSTYLE
  5
A
330
0
100
AcDbSymbolTable
 70
     1
100
AcDbDimStyleTable
  0
DIMSTYLE
105
27
330
A
100
AcDbSymbolTableRecord
100
AcDbDimStyleTableRecord
  2
ISO-25
 70
     0
 41
2.5
 42
0.625
 43
3.75
 44
1.25
 73
     0
 74
     0
 77
     1
 78
     8
140
2.5
141
2.5
143
0.0393700787
147
0.625
171
     3
172
     1
271
     2
272
     2
274
     3
278
    44
283
     0
284
     8
340
11
  0
ENDTAB
  0
TABLE
  2
BLOCK_RECORD
  5
1
330
0
100
AcDbSymbolTable
 70
     1
  0
BLOCK_RECORD
  5
1F
330
1
100
AcDbSymbolTableRecord
100
AcDbBlockTableRecord
  2
*Model_Space
340
22
  0
BLOCK_RECORD
  5
1B
330
1
100
AcDbSymbolTableRecord
100
AcDbBlockTableRecord
  2
*Paper_Space
340
1E
  0
BLOCK_RECORD
  5
23
330
1
100
AcDbSymbolTableRecord
100
AcDbBlockTableRecord
  2
*Paper_Space0
340
26
  0
ENDTAB
  0
ENDSEC
  0
SECTION
  2
BLOCKS
  0
BLOCK
  5
20
330
1F
100
AcDbEntity
  8
0
100
AcDbBlockBegin
  2
*Model_Space
 70
     0
 10
0.0
 20
0.0
 30
0.0
  3
*Model_Space
  1

  0
ENDBLK
  5
21
330
1F
100
AcDbEntity
  8
0
100
AcDbBlockEnd
  0
BLOCK
  5
1C
330
1B
100
AcDbEntity
 67
     1
  8
0
100
AcDbBlockBegin
  2
*Paper_Space
 70
     0
 10
0.0
 20
0.0
 30
0.0
  3
*Paper_Space
  1

  0
ENDBLK
  5
1D
330
1B
100
AcDbEntity
 67
     1
  8
0
100
AcDbBlockEnd
  0
BLOCK
  5
24
330
23
100
AcDbEntity
  8
0
100
AcDbBlockBegin
  2
*Paper_Space0
 70
     0
 10
0.0
 20
0.0
 30
0.0
  3
*Paper_Space0
  1

  0
ENDBLK
  5
25
330
23
100
AcDbEntity
  8
0
100
AcDbBlockEnd
  0
ENDSEC
  0
SECTION
  2
ENTITIES
  0
SPLINE
  5
40
330
1F
100
AcDbEntity
  8
0
  6
Continuous
 62
     7
370
    15
100
AcDbSpline
210
0.0
220
0.0
230
1.0
 70
     8
 71
     3
 72
     9
 73
     5
 74
     0
 42
0.00000001
 43
0.00000001
 40
0.0
 40
0.0
 40
0.0
 40
0.0
 40
0.4696989310470039
 40
1.0
 40
1.0
 40
1.0
 40
1.0
 10
85.27175377237205
 20
-64.07155475538339
 30
0.0
 10
84.67049380595913
 20
-64.48107190547341
 30
0.0
 10
83.20520549996365
 20
-64.98721610070872
 30
0.0
 10
81.66740946006595
 20
-65.11451123626946
 30
0.0
 10
80.85424008980755
 20
-65.06842731206828
 30
0.0
  0
SPLINE
  5
41
330
1F
100
AcDbEntity
  8
0
  6
Continuous
 62
     7
370
    15
100
AcDbSpline
210
0.0
220
0.0
230
1.0
 70
     8
 71
     3
 72
    21
 73
    17
 74
     0
 42
0.00000001
 43
0.00000001
 40
0.0
 40
0.0
 40
0.0
 40
0.0
 40
0.0995227694480108
 40
0.1579755545666039
 40
0.2243411990187233
 40
0.2956617449097441
 40
0.3678251673103742
 40
0.4405610694858481
 40
0.5146055161096617
 40
0.5885084814068865
 40
0.6597896127903983
 40
0.7286603885936845
 40
0.7960418521077256
 40
0.857776262239668
 40
0.9112651996635
 40
1.0
 40
1.0
 40
1.0
 40
1.0
 10
68.91131593030794
 20
-26.87452582653272
 30
0.0
 10
70.36884042845652
 20
-27.14888103496736
 30
0.0
 10
72.5254356967932
 20
-28.16730160014946
 30
0.0
 10
75.05773721389814
 20
-30.33507113218488
 30
0.0
 10
77.00819916369974
 20
-32.49226371012679
 30
0.0
 10
78.87499820240512
 20
-34.9777828819844
 30
0.0
 10
80.63652396860451
 20
-37.65178467809631
 30
0.0
 10
82.22697210622043
 20
-40.47827127644705
 30
0.0
 10
83.62150002525748
 20
-43.43451927678468
 30
0.0
 10
84.81965019313978
 20
-46.45150373615018
 30
0.0
 10
85.81118517241325
 20
-49.46356558518543
 30
0.0
 10
86.52986706174893
 20
-52.45206243942396
 30
0.0
 10
87.03440427006304
 20
-55.34266578725274
 30
0.0
 10
87.20402108974065
 20
-58.04442104328475
 30
0.0
 10
87.00215495533553
 20
-61.07498420830943
 30
0.0
 10
86.12730834366201
 20
-63.06353567222346
 30
0.0
 10
85.27175377237205
 20
-64.07155475538339
 30
0.0
  0
SPLINE
  5
42
330
1F
100
AcDbEntity
  8
0
  6
Continuous
 62
     7
370
    15
100
AcDbSpline
210
0.0
220
0.0
230
1.0
 70
     8
 71
     3
 72
     9
 73
     5
 74
     0
 42
0.00000001
 43
0.00000001
 40
0.0
 40
0.0
 40
0.0
 40
0.0
 40
0.4461539416245823
 40
1.0
 40
1.0
 40
1.0
 40
1.0
 10
64.16151139551512
 20
-28.77053833630598
 30
0.0
 10
64.51995823684028
 20
-28.02752131824677
 30
0.0
 10
66.01943229291996
 20
-26.82024583607037
 30
0.0
 10
67.93233333956854
 20
-26.80365758495641
 30
0.0
 10
68.91131593030794
 20
-26.87452582653272
 30
0.0
  0
SPLINE
  5
43
330
1F
100
AcDbEntity
  8
0
  6
Continuous
 62
     7
370
    15
100
AcDbSpline
210
0.0
220
0.0
230
1.0
 70
     8
 71
     3
 72
    21
 73
    17
 74
     0
 42
0.00000001
 43
0.00000001
 40
0.0
 40
0.0
 40
0.0
 40
0.0
 40
0.0958713248429165
 40
0.1509568376244981
 40
0.2115496027359834
 40
0.277044413229384
 40
0.3474484883349497
 40
0.4236598130863393
 40
0.5038987729989386
 40
0.5837762878049886
 40
0.6578151999838339
 40
0.7254933038467682
 40
0.7879485799750929
 40
0.8464814794666757
 40
0.9005104538453347
 40
1.0
 40
1.0
 40
1.0
 40
1.0
 10
71.21780537518676
 20
-55.7642834496758
 30
0.0
 10
70.76152655964228
 20
-54.96622769556942
 30
0.0
 10
70.16330674558272
 20
-53.64966206963902
 30
0.0
 10
69.27179358419318
 20
-51.83059971048926
 30
0.0
 10
68.5583259229448
 20
-50.24905176074956
 30
0.0
 10
67.7939443989531
 20
-48.52982327677548
 30
0.0
 10
66.99345709549802
 20
-46.66309443274903
 30
0.0
 10
66.13685829632972
 20
-44.66688633119262
 30
0.0
 10
65.26479427924998
 20
-42.57856462287386
 30
0.0
 10
64.47180578709097
 20
-40.48038862834665
 30
0.0
 10
63.84015007949886
 20
-38.45303544235837
 30
0.0
 10
63.39934453943258
 20
-36.54594173779331
 30
0.0
 10
63.1564430543777
 20
-34.75289789440979
 30
0.0
 10
63.10912922621062
 20
-33.07361336431659
 30
0.0
 10
63.3108333974636
 20
-31.04791415780879
 30
0.0
 10
63.73034140332869
 20
-29.62425680607183
 30
0.0
 10
64.16151139551512
 20
-28.77053833630598
 30
0.0
  0
SPLINE
  5
44
330
1F
100
AcDbEntity
  8
0
  6
Continuous
 62
     7
370
    15
100
AcDbSpline
210
0.0
220
0.0
230
1.0
 70
     8
 71
     3
 72
    11
 73
     7
 74
     0
 42
0.00000001
 43
0.00000001
 40
0.0
 40
0.0
 40
0.0
 40
0.0
 40
0.2525896159646091
 40
0.3758110206297544
 40
0.5037703712234424
 40
1.0
 40
1.0
 40
1.0
 40
1.0
 10
80.85424008980755
 20
-65.06842731206828
 30
0.0
 10
79.70953881788284
 20
-64.82773880994016
 30
0.0
 10
78.09149991000996
 20
-64.15021050421082
 30
0.0
 10
76.20311296607709
 20
-62.77264475593726
 30
0.0
 10
73.89520628830451
 20
-60.1945844808569
 30
0.0
 10
72.36150852488981
 20
-57.74300043299118
 30
0.0
 10
71.21780537518676
 20
-55.76428344967579
 30
0.0
  0
SPLINE
  5
45
330
1F
100
AcDbEntity
  8
0
  6
Continuous
 62
     7
370
    15
100
AcDbSpline
210
0.0
220
0.0
230
1.0
 70
     8
 71
     3
 72
    15
 73
    11
 74
     0
 42
0.00000001
 43
0.00000001
 40
0.3857136355086871
 40
0.3857136355086871
 40
0.3857136355086871
 40
0.3857136355086871
 40
0.5339144673998095
 40
0.5975602948814874
 40
0.6560381948207503
 40
0.7112257282704068
 40
0.7663940057761935
 40
0.823413810328376
 40
0.8843257078220128
 40
0.9306051694904459
 40
0.9306051694904459
 40
0.9306051694904459
 40
0.9306051694904459
 10
6.069251817719975
 20
-33.46170330894086
 30
0.0
 10
5.978909550917125
 20
-32.14717004318946
 30
0.0
 10
5.90927732007806
 20
-30.2274634683428
 30
0.0
 10
6.462901727206106
 20
-27.86262128634981
 30
0.0
 10
7.068383980260015
 20
-26.39109108578602
 30
0.0
 10
7.898257387144154
 20
-25.11382023828288
 30
0.0
 10
9.00822038337865
 20
-24.09475969611185
 30
0.0
 10
10.3146057303164
 20
-23.24490147581808
 30
0.0
 10
11.70647789685783
 20
-22.75466257355161
 30
0.0
 10
12.6304392529897
 20
-22.49561176585173
 30
0.0
 10
13.03169727091959
 20
-22.39386452501402
 30
0.0
  0
ARC
  5
46
330
1F
100
AcDbEntity
  8
0
  6
Continuous
 62
     7
370
    15
100
AcDbCircle
 10
12.982538923
 20
-22.1999999928
 30
0.0
 40
0.2000000000000419
100
AcDbArc
 50
284.2286278897
 51
90.0
  0
LINE
  5
47
330
1F
100
AcDbEntity
  8
0
  6
Continuous
 62
     7
370
    15
100
AcDbLine
 10
12.982538923
 20
-21.9999999928
 30
0.0
 11
10.0
 21
-21.9999999928
 31
0.0
  0
ARC
  5
48
330
1F
100
AcDbEntity
  8
0
  6
Continuous
 62
     7
370
    15
100
AcDbCircle
 10
10.0
 20
-11.9999999928
 30
0.0
 40
10.0
100
AcDbArc
 50
180.0
 51
270.0
  0
LINE
  5
49
330
1F
100
AcDbEntity
  8
0
  6
Continuous
 62
     7
370
    15
100
AcDbLine
 10
0.0
 20
-11.9999999928
 30
0.0
 11
0.0
 21
0.0
 31
0.0
  0
LINE
  5
4A
330
1F
100
AcDbEntity
  8
0
  6
Continuous
 62
     7
370
    15
100
AcDbLine
 10
0.0
 20
0.0
 30
0.0
 11
20.0
 21
0.0
 31
0.0
  0
LINE
  5
4B
330
1F
100
AcDbEntity
  8
0
  6
Continuous
 62
     7
370
    15
100
AcDbLine
 10
20.0
 20
0.0
 30
0.0
 11
20.0
 21
3.0
 31
0.0
  0
LINE
  5
4C
330
1F
100
AcDbEntity
  8
0
  6
Continuous
 62
     7
370
    15
100
AcDbLine
 10
20.0
 20
3.0
 30
0.0
 11
130.0
 21
3.0
 31
0.0
  0
LINE
  5
4D
330
1F
100
AcDbEntity
  8
0
  6
Continuous
 62
     7
370
    15
100
AcDbLine
 10
130.0
 20
3.0
 30
0.0
 11
130.0
 21
0.0
 31
0.0
  0
LINE
  5
4E
330
1F
100
AcDbEntity
  8
0
  6
Continuous
 62
     7
370
    15
100
AcDbLine
 10
130.0
 20
0.0
 30
0.0
 11
150.0
 21
0.0
 31
0.0
  0
LINE
  5
4F
330
1F
100
AcDbEntity
  8
0
  6
Continuous
 62
     7
370
    15
100
AcDbLine
 10
150.0
 20
0.0
 30
0.0
 11
150.0
 21
-11.9999999928
 31
0.0
  0
ARC
  5
50
330
1F
100
AcDbEntity
  8
0
  6
Continuous
 62
     7
370
    15
100
AcDbCircle
 10
140.0
 20
-11.9999999928
 30
0.0
 40
10.00000000000003
100
AcDbArc
 50
270.0
 51
0.0
  0
LINE
  5
51
330
1F
100
AcDbEntity
  8
0
  6
Continuous
 62
     7
370
    15
100
AcDbLine
 10
140.0
 20
-21.9999999928
 30
0.0
 11
112.5835922361
 21
-21.9999999928
 31
0.0
  0
ARC
  5
52
330
1F
100
AcDbEntity
  8
0
  6
Continuous
 62
     7
370
    15
100
AcDbCircle
 10
112.5835922361
 20
-22.1999999928
 30
0.0
 40
0.2000000000000064
100
AcDbArc
 50
90.0
 51
255.885740671
  0
SPLINE
  5
53
330
1F
100
AcDbEntity
  8
0
  6
Continuous
 62
     7
370
    15
100
AcDbSpline
210
0.0
220
0.0
230
1.0
 70
     8
 71
     3
 72
     8
 73
     4
 74
     0
 42
0.00000001
 43
0.00000001
 40
0.092317930552376
 40
0.092317930552376
 40
0.092317930552376
 40
0.092317930552376
 40
0.5017987906643989
 40
0.5017987906643989
 40
0.5017987906643989
 40
0.5017987906643989
 10
112.5348209604343
 20
-22.39396226409523
 30
0.0
 10
115.022618360211
 20
-23.01951202724386
 30
0.0
 10
117.4624011795795
 20
-23.83477668582704
 30
0.0
 10
119.8300024041156
 20
-24.82214115100496
 30
0.0
  0
SPLINE
  5
54
330
1F
100
AcDbEntity
  8
0
  6
Continuous
 62
     7
370
    15
100
AcDbSpline
210
0.0
220
0.0
230
1.0
 70
     8
 71
     3
 72
    21
 73
    17
 74
     0
 42
0.00000001
 43
0.00000001
 40
0.0
 40
0.0
 40
0.0
 40
0.0
 40
0.114315190732169
 40
0.1735990740430022
 40
0.2347936205305524
 40
0.2982285044806849
 40
0.3641998222351603
 40
0.4327153796019716
 40
0.504518792772159
 40
0.575797126187105
 40
0.6425697346098422
 40
0.7061912144001636
 40
0.7670616134029282
 40
0.8256455764859055
 40
0.88328540873246
 40
1.0
 40
1.0
 40
1.0
 40
1.0
 10
119.8300024041156
 20
-24.82214115100496
 30
0.0
 10
121.5487897730545
 20
-25.53824558889876
 30
0.0
 10
124.0584600701845
 20
-26.85950539105233
 30
0.0
 10
127.2071459061372
 20
-29.03307561627063
 30
0.0
 10
129.5374827890753
 20
-30.91720808147085
 30
0.0
 10
131.8059460710933
 20
-33.0373100972016
 30
0.0
 10
134.0191056834744
 20
-35.38258551933161
 30
0.0
 10
136.1440459859866
 20
-37.98527044359754
 30
0.0
 10
138.2131512910859
 20
-40.74101953293716
 30
0.0
 10
140.0666165409266
 20
-43.61526395462866
 30
0.0
 10
141.5970561740502
 20
-46.52597267483488
 30
0.0
 10
142.7395426208477
 20
-49.42917482218347
 30
0.0
 10
143.5147311511452
 20
-52.31459717868664
 30
0.0
 10
143.9068006503677
 20
-55.17742948873164
 30
0.0
 10
143.9790718972879
 20
-58.98042544426849
 30
0.0
 10
143.4020555936135
 20
-61.79195639826009
 30
0.0
 10
142.8362572907458
 20
-63.6024382581199
 30
0.0
  0
SPLINE
  5
55
330
1F
100
AcDbEntity
  8
0
  6
Continuous
 62
     7
370
    15
100
AcDbSpline
210
0.0
220
0.0
230
1.0
 70
     8
 71
     3
 72
    29
 73
    25
 74
     0
 42
0.00000001
 43
0.00000001
 40
0.0
 40
0.0
 40
0.0
 40
0.0
 40
0.0569114820722624
 40
0.0834345356757082
 40
0.1092548668762071
 40
0.1353538311582692
 40
0.1620181508820507
 40
0.1899879350562759
 40
0.2198821940408998
 40
0.2818924164527042
 40
0.3445037503834065
 40
0.4094880942647494
 40
0.4772956059686322
 40
0.5461860063391721
 40
0.6141760219516831
 40
0.6829075241827077
 40
0.7522982975510228
 40
0.786398292642276
 40
0.8189141841756651
 40
0.8500649860844463
 40
0.8799348515448245
 40
0.9097558700952324
 40
0.9393466070638702
 40
1.0
 40
1.0
 40
1.0
 40
1.0
 10
142.8362572907458
 20
-63.6024382581199
 30
0.0
 10
142.5087851892721
 20
-64.66305256276544
 30
0.0
 10
141.7912378854921
 20
-66.13560031897877
 30
0.0
 10
140.512405432427
 20
-67.84187118000646
 30
0.0
 10
139.4013224110259
 20
-68.901409533267
 30
0.0
 10
138.1123190830323
 20
-69.73523837447428
 30
0.0
 10
136.690542598608
 20
-70.41497728558736
 30
0.0
 10
135.1052560855599
 20
-70.87691420903147
 30
0.0
 10
132.8001471432907
 20
-71.25053097839235
 30
0.0
 10
129.7830870905936
 20
-71.37322958814468
 30
0.0
 10
126.1048492847288
 20
-70.97977183683115
 30
0.0
 10
122.3916825721138
 20
-70.11725494788995
 30
0.0
 10
118.7079323319597
 20
-68.73915982631678
 30
0.0
 10
115.1350064167984
 20
-66.96306845844701
 30
0.0
 10
111.777789645992
 20
-64.76976111229327
 30
0.0
 10
108.6902549813832
 20
-62.19876304951664
 30
0.0
 10
106.3470278413904
 20
-59.79373736671778
 30
0.0
 10
104.6881852986034
 20
-57.7268065498385
 30
0.0
 10
103.6757106416033
 20
-56.1128138268498
 30
0.0
 10
102.8366055698192
 20
-54.49402214797928
 30
0.0
 10
102.2416513959865
 20
-52.82368891323381
 30
0.0
 10
101.8713228149295
 20
-51.12211882254733
 30
0.0
 10
101.6578656859352
 20
-48.78959669950859
 30
0.0
 10
101.8357980590949
 20
-47.02769210233252
 30
0.0
 10
102.0817615909803
 20
-45.87374396570395
 30
0.0
  0
SPLINE
  5
56
330
1F
100
AcDbEntity
  8
0
  6
Continuous
 62
     7
370
    15
100
AcDbSpline
210
0.0
220
0.0
230
1.0
 70
     8
 71
     3
 72
    21
 73
    17
 74
     0
 42
0.00000001
 43
0.00000001
 40
0.0
 40
0.0
 40
0.0
 40
0.0
 40
0.1253955592266888
 40
0.1817722221121127
 40
0.2377527911259072
 40
0.2950268382730403
 40
0.3566069698333093
 40
0.4234363266765188
 40
0.4983443639765024
 40
0.5747505571686022
 40
0.6472431910304479
 40
0.715227946487365
 40
0.7795980393598336
 40
0.8398732704285374
 40
0.8967411711444278
 40
1.0
 40
1.0
 40
1.0
 40
1.0
 10
102.0817615909803
 20
-45.87374396570395
 30
0.0
 10
102.3289032568314
 20
-44.70760395977962
 30
0.0
 10
102.8812567221841
 20
-43.01226951013759
 30
0.0
 10
104.2681683088469
 20
-41.18837608069041
 30
0.0
 10
105.4950821000511
 20
-40.10495436757408
 30
0.0
 10
106.9885018402816
 20
-39.3228226549403
 30
0.0
 10
108.6867566930897
 20
-38.77615804991242
 30
0.0
 10
110.6195805387709
 20
-38.4900398166297
 30
0.0
 10
112.71151271934
 20
-38.47652343189078
 30
0.0
 10
114.8479557430487
 20
-38.63218308883341
 30
0.0
 10
116.9150923135302
 20
-38.81968240760246
 30
0.0
 10
118.8598815084926
 20
-39.07024524102457
 30
0.0
 10
120.6752810620066
 20
-39.39652139623858
 30
0.0
 10
122.3625621825603
 20
-39.81281810101545
 30
0.0
 10
124.3854793243352
 20
-40.41236895140077
 30
0.0
 10
125.8125891399483
 20
-40.98125039368585
 30
0.0
 10
126.6908311765941
 20
-41.43668376242014
 30
0.0
  0
SPLINE
  5
57
330
1F
100
AcDbEntity
  8
0
  6
Continuous
 62
     7
370
    15
100
AcDbSpline
210
0.0
220
0.0
230
1.0
 70
     8
 71
     3
 72
    13
 73
     9
 74
     0
 42
0.00000001
 43
0.00000001
 40
0.0
 40
0.0
 40
0.0
 40
0.0
 40
0.2588355503868192
 40
0.3820684600236369
 40
0.5020610738488156
 40
0.6221658793719376
 40
0.7430243561211303
 40
1.0
 40
1.0
 40
1.0
 40
1.0
 10
126.6908311765941
 20
-41.43668376242014
 30
0.0
 10
126.0501439408596
 20
-39.75015949112254
 30
0.0
 10
124.9280461514704
 20
-37.29665178564413
 30
0.0
 10
122.8132218658543
 20
-34.48414952491532
 30
0.0
 10
121.0640168309623
 20
-32.63310353087158
 30
0.0
 10
119.0721354622325
 20
-31.07204116274884
 30
0.0
 10
116.0901646054593
 20
-29.25808678503084
 30
0.0
 10
113.5651189045076
 20
-28.39528435505325
 30
0.0
 10
111.835475429917
 20
-27.93003794537557
 30
0.0
  0
SPLINE
  5
58
330
1F
100
AcDbEntity
  8
0
  6
Continuous
 62
     7
370
    15
100
AcDbSpline
210
0.0
220
0.0
230
1.0
 70
     8
 71
     3
 72
     9
 73
     5
 74
     0
 42
0.00000001
 43
0.00000001
 40
0.0
 40
0.0
 40
0.0
 40
0.0
 40
0.4913758823913059
 40
1.0
 40
1.0
 40
1.0
 40
1.0
 10
111.835475429917
 20
-27.93003794537556
 30
0.0
 10
109.6872890014312
 20
-27.34864176792456
 30
0.0
 10
105.1765268839223
 20
-26.74376236566434
 30
0.0
 10
100.6407839588511
 20
-27.12297585750589
 30
0.0
 10
98.38746917503039
 20
-27.59774709314727
 30
0.0
  0
SPLINE
  5
59
330
1F
100
AcDbEntity
  8
0
  6
Continuous
 62
     7
370
    15
100
AcDbSpline
210
0.0
220
0.0
230
1.0
 70
     8
 71
     2
 72
     6
 73
     3
 74
     0
 42
0.00000001
 43
0.00000001
 40
0.0
 40
0.0
 40
0.0
 40
1.0
 40
1.0
 40
1.0
 10
98.38746917503039
 20
-27.59774709314727
 30
0.0
 10
97.89423940914702
 20
-26.16681574939244
 30
0.0
 10
97.5860618255386
 20
-24.68531550596978
 30
0.0
  0
SPLINE
  5
5A
330
1F
100
AcDbEntity
  8
0
  6
Continuous
 62
     7
370
    15
100
AcDbSpline
210
0.0
220
0.0
230
1.0
 70
     8
 71
     2
 72
     6
 73
     3
 74
     0
 42
0.00000001
 43
0.00000001
 40
0.0
 40
0.0
 40
0.0
 40
1.0
 40
1.0
 40
1.0
 10
97.5860618255386
 20
-24.68531550596978
 30
0.0
 10
97.26720561445143
 20
-23.51653708152684
 30
0.0
 10
97.66424790841585
 20
-22.37882606109097
 30
0.0
  0
SPLINE
  5
5B
330
1F
100
AcDbEntity
  8
0
  6
Continuous
 62
     7
370
    15
100
AcDbSpline
210
0.0
220
0.0
230
1.0
 70
     8
 71
     2
 72
     6
 73
     3
 74
     0
 42
0.00000001
 43
0.00000001
 40
0.7841222255257418
 40
0.7841222255257418
 40
0.7841222255257418
 40
0.8372716726879051
 40
0.8372716726879051
 40
0.8372716726879051
 10
97.66424790841585
 20
-22.37882606109097
 30
0.0
 10
97.68332409906661
 20
-22.3275049569771
 30
0.0
 10
97.70423764976806
 20
-22.27849190277245
 30
0.0
  0
ARC
  5
5C
330
1F
100
AcDbEntity
  8
0
  6
Continuous
 62
     7
370
    15
100
AcDbCircle
 10
97.5202837967
 20
-22.1999999928
 30
0.0
 40
0.2000000000000215
100
AcDbArc
 50
336.8923734224
 51
90.0
  0
LINE
  5
5D
330
1F
100
AcDbEntity
  8
0
  6
Continuous
 62
     7
370
    15
100
AcDbLine
 10
97.5202837967
 20
-21.9999999928
 30
0.0
 11
73.307927657
 21
-21.9999999928
 31
0.0
  0
ARC
  5
5E
330
1F
100
AcDbEntity
  8
0
  6
Continuous
 62
     7
370
    15
100
AcDbCircle
 10
73.307927657
 20
-22.1999999928
 30
0.0
 40
0.1999999999999993
100
AcDbArc
 50
90.0
 51
253.5952664762
  0
SPLINE
  5
5F
330
1F
100
AcDbEntity
  8
0
  6
Continuous
 62
     7
370
    15
100
AcDbSpline
210
0.0
220
0.0
230
1.0
 70
     8
 71
     3
 72
    14
 73
    10
 74
     0
 42
0.00000001
 43
0.00000001
 40
0.0598752878887895
 40
0.0598752878887895
 40
0.0598752878887895
 40
0.0598752878887895
 40
0.1196549095742997
 40
0.2471353763024423
 40
0.3681256477287069
 40
0.4863649985565431
 40
0.6045888733671023
 40
0.7268428897955845
 40
0.98470248727472
 40
0.98470248727472
 40
0.98470248727472
 40
0.98470248727472
 10
73.25144351496762
 20
-22.39185812194204
 30
0.0
 10
73.73021088081278
 20
-22.53281000143777
 30
0.0
 10
75.22036691455834
 20
-23.00817550891554
 30
0.0
 10
77.60733106465449
 20
-23.97849667300873
 30
0.0
 10
80.28705486091486
 20
-25.47429078727046
 30
0.0
 10
82.66948653876753
 20
-27.28195324255735
 30
0.0
 10
84.83818143563036
 20
-29.35122107602592
 30
0.0
 10
87.58753281504839
 20
-32.47420418595284
 30
0.0
 10
89.4578302479754
 20
-35.04467867227483
 30
0.0
 10
90.54931436658629
 20
-36.90189095553976
 30
0.0
  0
SPLINE
  5
60
330
1F
100
AcDbEntity
  8
0
  6
Continuous
 62
     7
370
    15
100
AcDbSpline
210
0.0
220
0.0
230
1.0
 70
     8
 71
     3
 72
    17
 73
    13
 74
     0
 42
0.00000001
 43
0.00000001
 40
0.0
 40
0.0
 40
0.0
 40
0.0
 40
0.2614847192476468
 40
0.4004192492567996
 40
0.5452187703617886
 40
0.6155485545690562
 40
0.6782340413301844
 40
0.7345836758949138
 40
0.7874072569301813
 40
0.8374178219066573
 40
0.8880943878004184
 40
1.0
 40
1.0
 40
1.0
 40
1.0
 10
90.54931436658629
 20
-36.90189095553976
 30
0.0
 10
92.21596002413297
 20
-39.65429533560005
 30
0.0
 10
94.41287620689451
 20
-44.08057272625856
 30
0.0
 10
96.71405981745718
 20
-50.3841522405485
 30
0.0
 10
97.99258016390564
 20
-54.55058032551452
 30
0.0
 10
98.74198042930236
 20
-57.8899878684752
 30
0.0
 10
98.93508786657434
 20
-60.22075641261517
 30
0.0
 10
98.76977689223442
 20
-62.33780177434472
 30
0.0
 10
98.25449431032952
 20
-64.24272058819446
 30
0.0
 10
97.34497221792462
 20
-65.91619470890427
 30
0.0
 10
95.60565955151523
 20
-67.89910672802795
 30
0.0
 10
93.81060689369097
 20
-68.89245669936555
 30
0.0
 10
92.5430594799561
 20
-69.40775491175555
 30
0.0
  0
SPLINE
  5
61
330
1F
100
AcDbEntity
  8
0
  6
Continuous
 62
     7
370
    15
100
AcDbSpline
210
0.0
220
0.0
230
1.0
 70
     8
 71
     3
 72
     9
 73
     5
 74
     0
 42
0.00000001
 43
0.00000001
 40
0.0
 40
0.0
 40
0.0
 40
0.0
 40
0.4801146055879751
 40
1.0
 40
1.0
 40
1.0
 40
1.0
 10
92.5430594799561
 20
-69.40775491175555
 30
0.0
 10
91.45181207762829
 20
-69.81445717855836
 30
0.0
 10
89.11165815421295
 20
-70.52431297335923
 30
0.0
 10
86.6688188725056
 20
-70.66782890477569
 30
0.0
 10
85.40857941740724
 20
-70.67827875851081
 30
0.0
  0
SPLINE
  5
62
330
1F
100
AcDbEntity
  8
0
  6
Continuous
 62
     7
370
    15
100
AcDbSpline
210
0.0
220
0.0
230
1.0
 70
     8
 71
     3
 72
    21
 73
    17
 74
     0
 42
0.00000001
 43
0.00000001
 40
0.0
 40
0.0
 40
0.0
 40
0.0
 40
0.1292754966833689
 40
0.1904410097032205
 40
0.2503159415314827
 40
0.3105464559882136
 40
0.3715204880972677
 40
0.4340424769876516
 40
0.4994653080715644
 40
0.5654212167961317
 40
0.6299894498379472
 40
0.6929682051819819
 40
0.7549491154633157
 40
0.81661855932991
 40
0.8777539331059566
 40
1.0
 40
1.0
 40
1.0
 40
1.0
 10
85.40857941740724
 20
-70.67827875851081
 30
0.0
 10
83.04209641627554
 20
-70.70906023192083
 30
0.0
 10
79.56337756045227
 20
-70.32434595214595
 30
0.0
 10
75.1409698833625
 20
-69.1020172167034
 30
0.0
 10
72.10546988768017
 20
-67.75417552655712
 30
0.0
 10
69.22524963310079
 20
-66.10678473294121
 30
0.0
 10
66.58298519944728
 20
-64.0191530457592
 30
0.0
 10
64.10873039329698
 20
-61.60033924441093
 30
0.0
 10
61.91119195699356
 20
-58.81099054836079
 30
0.0
 10
59.90410688106317
 20
-55.84385652577433
 30
0.0
 10
58.09637035198578
 20
-52.800707584257
 30
0.0
 10
56.55837212778838
 20
-49.69487835907958
 30
0.0
 10
55.20374868489461
 20
-46.56154084215969
 30
0.0
 10
54.14091629003582
 20
-43.35217746087197
 30
0.0
 10
53.01152981723594
 20
-39.01537334215319
 30
0.0
 10
52.52233694718806
 20
-35.68979971680279
 30
0.0
 10
52.35541288105071
 20
-33.46170330894086
 30
0.0
  0
SPLINE
  5
63
330
1F
100
AcDbEntity
  8
0
  6
Continuous
 62
     7
370
    15
100
AcDbSpline
210
0.0
220
0.0
230
1.0
 70
     8
 71
     3
 72
    15
 73
    11
 74
     0
 42
0.00000001
 43
0.00000001
 40
0.3857136342567584
 40
0.3857136342567584
 40
0.3857136342567584
 40
0.3857136342567584
 40
0.5339144661478807
 40
0.5975602936295588
 40
0.6560381935688215
 40
0.7112257270184781
 40
0.7663940045242648
 40
0.8234138090764473
 40
0.8843257065700842
 40
0.9306051686126634
 40
0.9306051686126634
 40
0.9306051686126634
 40
0.9306051686126634
 10
52.35541288105071
 20
-33.46170330894086
 30
0.0
 10
52.26507061424787
 20
-32.14717004319016
 30
0.0
 10
52.19543838340877
 20
-30.22746346834161
 30
0.0
 10
52.74906279053685
 20
-27.86262128635127
 30
0.0
 10
53.35454504359074
 20
-26.39109108578112
 30
0.0
 10
54.18441845047488
 20
-25.11382023830006
 30
0.0
 10
55.29438144670938
 20
-24.09475969604668
 30
0.0
 10
56.60076679364713
 20
-23.24490147607775
 30
0.0
 10
57.99263896335987
 20
-22.75466257149923
 30
0.0
 10
58.91660032277052
 20
-22.49561176555436
 30
0.0
 10
59.31785834398223
 20
-22.39386452516096
 30
0.0
  0
ARC
  5
64
330
1F
100
AcDbEntity
  8
0
  6
Continuous
 62
     7
370
    15
100
AcDbCircle
 10
59.2686999967
 20
-22.1999999928
 30
0.0
 40
0.200000000000049
100
AcDbArc
 50
284.2286277185
 51
90.0
  0
LINE
  5
65
330
1F
100
AcDbEntity
  8
0
  6
Continuous
 62
     7
370
    15
100
AcDbLine
 10
59.2686999967
 20
-21.9999999928
 30
0.0
 11
27.0217665937
 21
-21.9999999928
 31
0.0
  0
ARC
  5
66
330
1F
100
AcDbEntity
  8
0
  6
Continuous
 62
     7
370
    15
100
AcDbCircle
 10
27.0217665937
 20
-22.1999999928
 30
0.0
 40
0.2000000000000028
100
AcDbArc
 50
90.0
 51
253.5952664762
  0
SPLINE
  5
67
330
1F
100
AcDbEntity
  8
0
  6
Continuous
 62
     7
370
    15
100
AcDbSpline
210
0.0
220
0.0
230
1.0
 70
     8
 71
     3
 72
    14
 73
    10
 74
     0
 42
0.00000001
 43
0.00000001
 40
0.0598752878887909
 40
0.0598752878887909
 40
0.0598752878887909
 40
0.0598752878887909
 40
0.1196549095742994
 40
0.2471353763024423
 40
0.3681256477287067
 40
0.4863649985565431
 40
0.6045888733671023
 40
0.7268428897955843
 40
0.9847024872747201
 40
0.9847024872747201
 40
0.9847024872747201
 40
0.9847024872747201
 10
26.96528245163695
 20
-22.39185812194205
 30
0.0
 10
27.44404981748207
 20
-22.53281000143778
 30
0.0
 10
28.9342058512276
 20
-23.00817550891554
 30
0.0
 10
31.32117000132377
 20
-23.97849667300873
 30
0.0
 10
34.00089379758413
 20
-25.47429078727047
 30
0.0
 10
36.3833254754368
 20
-27.28195324255735
 30
0.0
 10
38.55202037229964
 20
-29.35122107602591
 30
0.0
 10
41.30137175171765
 20
-32.47420418595286
 30
0.0
 10
43.17166918464469
 20
-35.04467867227483
 30
0.0
 10
44.26315330325555
 20
-36.90189095553976
 30
0.0
  0
SPLINE
  5
68
330
1F
100
AcDbEntity
  8
0
  6
Continuous
 62
     7
370
    15
100
AcDbSpline
210
0.0
220
0.0
230
1.0
 70
     8
 71
     3
 72
    17
 73
    13
 74
     0
 42
0.00000001
 43
0.00000001
 40
0.0
 40
0.0
 40
0.0
 40
0.0
 40
0.2614847192476467
 40
0.4004192492567996
 40
0.5452187703617886
 40
0.6155485545690562
 40
0.6782340413301844
 40
0.7345836758949139
 40
0.7874072569301813
 40
0.8374178219066575
 40
0.8880943878004183
 40
1.0
 40
1.0
 40
1.0
 40
1.0
 10
44.26315330325555
 20
-36.90189095553976
 30
0.0
 10
45.92979896080224
 20
-39.65429533560003
 30
0.0
 10
48.12671514356376
 20
-44.08057272625857
 30
0.0
 10
50.42789875412645
 20
-50.3841522405485
 30
0.0
 10
51.70641910057492
 20
-54.55058032551451
 30
0.0
 10
52.45581936597161
 20
-57.88998786847522
 30
0.0
 10
52.64892680324363
 20
-60.22075641261517
 30
0.0
 10
52.48361582890367
 20
-62.33780177434473
 30
0.0
 10
51.96833324699881
 20
-64.24272058819447
 30
0.0
 10
51.05881115459387
 20
-65.91619470890424
 30
0.0
 10
49.31949848818453
 20
-67.89910672802799
 30
0.0
 10
47.52444583036022
 20
-68.89245669936552
 30
0.0
 10
46.25689841662537
 20
-69.40775491175555
 30
0.0
  0
SPLINE
  5
69
330
1F
100
AcDbEntity
  8
0
  6
Continuous
 62
     7
370
    15
100
AcDbSpline
210
0.0
220
0.0
230
1.0
 70
     8
 71
     3
 72
     9
 73
     5
 74
     0
 42
0.00000001
 43
0.00000001
 40
0.0
 40
0.0
 40
0.0
 40
0.0
 40
0.4801146055879751
 40
1.0
 40
1.0
 40
1.0
 40
1.0
 10
46.25689841662537
 20
-69.40775491175555
 30
0.0
 10
45.16565101429756
 20
-69.81445717855837
 30
0.0
 10
42.82549709088222
 20
-70.52431297335923
 30
0.0
 10
40.38265780917484
 20
-70.66782890477567
 30
0.0
 10
39.1224183540765
 20
-70.67827875851081
 30
0.0
  0
SPLINE
  5
6A
330
1F
100
AcDbEntity
  8
0
  6
Continuous
 62
     7
370
    15
100
AcDbSpline
210
0.0
220
0.0
230
1.0
 70
     8
 71
     3
 72
    21
 73
    17
 74
     0
 42
0.00000001
 43
0.00000001
 40
0.0
 40
0.0
 40
0.0
 40
0.0
 40
0.1292754966833689
 40
0.1904410097032205
 40
0.2503159415314827
 40
0.3105464559882136
 40
0.3715204880972678
 40
0.4340424769876517
 40
0.4994653080715644
 40
0.5654212167961318
 40
0.6299894498379472
 40
0.6929682051819819
 40
0.7549491154633158
 40
0.81661855932991
 40
0.8777539331059566
 40
1.0
 40
1.0
 40
1.0
 40
1.0
 10
39.1224183540765
 20
-70.67827875851081
 30
0.0
 10
36.75593535294482
 20
-70.70906023192082
 30
0.0
 10
33.27721649712154
 20
-70.32434595214596
 30
0.0
 10
28.85480882003176
 20
-69.1020172167034
 30
0.0
 10
25.81930882434943
 20
-67.75417552655713
 30
0.0
 10
22.93908856977005
 20
-66.1067847329412
 30
0.0
 10
20.29682413611654
 20
-64.01915304575921
 30
0.0
 10
17.82256932996625
 20
-61.60033924441093
 30
0.0
 10
15.62503089366281
 20
-58.81099054836079
 30
0.0
 10
13.61794581773246
 20
-55.84385652577433
 30
0.0
 10
11.81020928865504
 20
-52.800707584257
 30
0.0
 10
10.27221106445766
 20
-49.69487835907957
 30
0.0
 10
8.917587621563879
 20
-46.5615408421597
 30
0.0
 10
7.854755226705083
 20
-43.35217746087196
 30
0.0
 10
6.725368753905211
 20
-39.01537334215319
 30
0.0
 10
6.236175883857337
 20
-35.68979971680277
 30
0.0
 10
6.069251817719975
 20
-33.46170330894086
 30
0.0
  0
SPLINE
  5
6B
330
1F
100
AcDbEntity
  8
0
  6
Continuous
 62
     7
370
    15
100
AcDbSpline
210
0.0
220
0.0
230
1.0
 70
     8
 71
     3
 72
     9
 73
     5
 74
     0
 42
0.00000001
 43
0.00000001
 40
0.0
 40
0.0
 40
0.0
 40
0.0
 40
0.4696989310470047
 40
1.0
 40
1.0
 40
1.0
 40
1.0
 10
38.98559270904133
 20
-64.07155475538339
 30
0.0
 10
38.3843327426284
 20
-64.4810719054734
 30
0.0
 10
36.91904443663293
 20
-64.98721610070876
 30
0.0
 10
35.38124839673524
 20
-65.11451123626944
 30
0.0
 10
34.56807902647682
 20
-65.06842731206828
 30
0.0
  0
SPLINE
  5
6C
330
1F
100
AcDbEntity
  8
0
  6
Continuous
 62
     7
370
    15
100
AcDbSpline
210
0.0
220
0.0
230
1.0
 70
     8
 71
     3
 72
    21
 73
    17
 74
     0
 42
0.00000001
 43
0.00000001
 40
0.0
 40
0.0
 40
0.0
 40
0.0
 40
0.0995227694480109
 40
0.1579755545666041
 40
0.2243411990187233
 40
0.2956617449097443
 40
0.3678251673103744
 40
0.4405610694858483
 40
0.514605516109662
 40
0.5885084814068867
 40
0.6597896127903985
 40
0.7286603885936848
 40
0.7960418521077257
 40
0.8577762622396681
 40
0.9112651996635001
 40
1.0
 40
1.0
 40
1.0
 40
1.0
 10
22.62515486697721
 20
-26.87452582653272
 30
0.0
 10
24.08267936512579
 20
-27.14888103496736
 30
0.0
 10
26.23927463346246
 20
-28.16730160014945
 30
0.0
 10
28.7715761505674
 20
-30.33507113218488
 30
0.0
 10
30.72203810036901
 20
-32.49226371012681
 30
0.0
 10
32.5888371390744
 20
-34.9777828819844
 30
0.0
 10
34.35036290527376
 20
-37.65178467809631
 30
0.0
 10
35.94081104288971
 20
-40.47827127644705
 30
0.0
 10
37.33533896192672
 20
-43.43451927678467
 30
0.0
 10
38.53348912980908
 20
-46.45150373615019
 30
0.0
 10
39.52502410908252
 20
-49.46356558518543
 30
0.0
 10
40.24370599841821
 20
-52.45206243942397
 30
0.0
 10
40.74824320673231
 20
-55.34266578725273
 30
0.0
 10
40.91786002640993
 20
-58.04442104328476
 30
0.0
 10
40.7159938920048
 20
-61.07498420830942
 30
0.0
 10
39.84114728033127
 20
-63.06353567222346
 30
0.0
 10
38.98559270904132
 20
-64.07155475538339
 30
0.0
  0
SPLINE
  5
6D
330
1F
100
AcDbEntity
  8
0
  6
Continuous
 62
     7
370
    15
100
AcDbSpline
210
0.0
220
0.0
230
1.0
 70
     8
 71
     3
 72
     9
 73
     5
 74
     0
 42
0.00000001
 43
0.00000001
 40
0.0
 40
0.0
 40
0.0
 40
0.0
 40
0.4461539416245828
 40
1.0
 40
1.0
 40
1.0
 40
1.0
 10
17.8753503321844
 20
-28.77053833630598
 30
0.0
 10
18.23379717350956
 20
-28.02752131824678
 30
0.0
 10
19.73327122958922
 20
-26.82024583607036
 30
0.0
 10
21.6461722762378
 20
-26.80365758495642
 30
0.0
 10
22.6251548669772
 20
-26.87452582653272
 30
0.0
  0
SPLINE
  5
6E
330
1F
100
AcDbEntity
  8
0
  6
Continuous
 62
     7
370
    15
100
AcDbSpline
210
0.0
220
0.0
230
1.0
 70
     8
 71
     3
 72
    21
 73
    17
 74
     0
 42
0.00000001
 43
0.00000001
 40
0.0
 40
0.0
 40
0.0
 40
0.0
 40
0.0958713248429165
 40
0.150956837624498
 40
0.2115496027359834
 40
0.2770444132293841
 40
0.3474484883349496
 40
0.4236598130863393
 40
0.5038987729989386
 40
0.5837762878049885
 40
0.6578151999838338
 40
0.7254933038467682
 40
0.7879485799750929
 40
0.8464814794666757
 40
0.9005104538453347
 40
1.0
 40
1.0
 40
1.0
 40
1.0
 10
24.93164431185602
 20
-55.7642834496758
 30
0.0
 10
24.47536549631158
 20
-54.96622769556944
 30
0.0
 10
23.87714568225195
 20
-53.64966206963901
 30
0.0
 10
22.98563252086246
 20
-51.83059971048926
 30
0.0
 10
22.27216485961409
 20
-50.24905176074957
 30
0.0
 10
21.50778333562236
 20
-48.52982327677547
 30
0.0
 10
20.70729603216729
 20
-46.66309443274902
 30
0.0
 10
19.850697232999
 20
-44.66688633119263
 30
0.0
 10
18.97863321591924
 20
-42.57856462287385
 30
0.0
 10
18.18564472376026
 20
-40.48038862834665
 30
0.0
 10
17.55398901616816
 20
-38.45303544235837
 30
0.0
 10
17.11318347610183
 20
-36.54594173779331
 30
0.0
 10
16.87028199104699
 20
-34.7528978944098
 30
0.0
 10
16.82296816287987
 20
-33.07361336431659
 30
0.0
 10
17.02467233413288
 20
-31.0479141578088
 30
0.0
 10
17.44418033999796
 20
-29.62425680607183
 30
0.0
 10
17.8753503321844
 20
-28.77053833630598
 30
0.0
  0
SPLINE
  5
6F
330
1F
100
AcDbEntity
  8
0
  6
Continuous
 62
     7
370
    15
100
AcDbSpline
210
0.0
220
0.0
230
1.0
 70
     8
 71
     3
 72
    11
 73
     7
 74
     0
 42
0.00000001
 43
0.00000001
 40
0.0
 40
0.0
 40
0.0
 40
0.0
 40
0.2525896159646091
 40
0.3758110206297543
 40
0.5037703712234423
 40
1.0
 40
1.0
 40
1.0
 40
1.0
 10
34.56807902647682
 20
-65.06842731206828
 30
0.0
 10
33.42337775455209
 20
-64.82773880994016
 30
0.0
 10
31.80533884667925
 20
-64.15021050421082
 30
0.0
 10
29.91695190274634
 20
-62.77264475593727
 30
0.0
 10
27.60904522497378
 20
-60.19458448085687
 30
0.0
 10
26.07534746155906
 20
-57.74300043299118
 30
0.0
 10
24.93164431185602
 20
-55.7642834496758
 30
0.0
  0
SPLINE
  5
70
330
1F
100
AcDbEntity
  8
0
  6
Continuous
 62
     7
370
    15
100
AcDbSpline
210
0.0
220
0.0
230
1.0
 70
     8
 71
     3
 72
    11
 73
     7
 74
     0
 42
0.00000001
 43
0.00000001
 40
0.0
 40
0.0
 40
0.0
 40
0.0
 40
0.2484107024279293
 40
0.3620752840173559
 40
0.4947207096631319
 40
1.0
 40
1.0
 40
1.0
 40
1.0
 10
131.4992752735448
 20
-62.15599572489081
 30
0.0
 10
131.347153696433
 20
-62.98742128915928
 30
0.0
 10
130.735298832927
 20
-64.21958251621797
 30
0.0
 10
129.14659583316
 20
-64.99346658029148
 30
0.0
 10
126.5214639074307
 20
-65.14799679872873
 30
0.0
 10
124.3289416315109
 20
-64.7587398086984
 30
0.0
 10
122.6642479084158
 20
-64.20838040041856
 30
0.0
  0
SPLINE
  5
71
330
1F
100
AcDbEntity
  8
0
  6
Continuous
 62
     7
370
    15
100
AcDbSpline
210
0.0
220
0.0
230
1.0
 70
     8
 71
     3
 72
    13
 73
     9
 74
     0
 42
0.00000001
 43
0.00000001
 40
0.0
 40
0.0
 40
0.0
 40
0.0
 40
0.2736163220526751
 40
0.4001527755839522
 40
0.5238266254847158
 40
0.6431492780105712
 40
0.761819062655146
 40
1.0
 40
1.0
 40
1.0
 40
1.0
 10
128.1959132719811
 20
-48.76662903216212
 30
0.0
 10
128.9342767930104
 20
-49.82872178144832
 30
0.0
 10
129.9323634332281
 20
-51.45062076910406
 30
0.0
 10
130.8774479002491
 20
-53.74827698920764
 30
0.0
 10
131.3803149865056
 20
-55.42520014139475
 30
0.0
 10
131.7358036732706
 20
-57.10430950976423
 30
0.0
 10
131.8718958753154
 20
-59.3600344413458
 30
0.0
 10
131.7413141361564
 20
-61.05147304852343
 30
0.0
 10
131.4992752735448
 20
-62.15599572489081
 30
0.0
  0
SPLINE
  5
72
330
1F
100
AcDbEntity
  8
0
  6
Continuous
 62
     7
370
    15
100
AcDbSpline
210
0.0
220
0.0
230
1.0
 70
     8
 71
     3
 72
    13
 73
     9
 74
     0
 42
0.00000001
 43
0.00000001
 40
0.0
 40
0.0
 40
0.0
 40
0.0
 40
0.2526384621963769
 40
0.3726653405976058
 40
0.4920155659841598
 40
0.6139988337783373
 40
0.7372143512284747
 40
1.0
 40
1.0
 40
1.0
 40
1.0
 10
118.7744902852728
 20
-43.8213592901762
 30
0.0
 10
119.7054873959716
 20
-43.82358714619552
 30
0.0
 10
121.0893096706992
 20
-43.9578529359692
 30
0.0
 10
122.825418141045
 20
-44.5041897045835
 30
0.0
 10
124.0573560297875
 20
-45.02609150123113
 30
0.0
 10
125.2021148931002
 20
-45.74098387211956
 30
0.0
 10
126.6926862056293
 20
-46.88697413827548
 30
0.0
 10
127.6060799769778
 20
-48.00170370524797
 30
0.0
 10
128.1959132719811
 20
-48.76662903216212
 30
0.0
  0
SPLINE
  5
73
330
1F
100
AcDbEntity
  8
0
  6
Continuous
 62
     7
370
    15
100
AcDbSpline
210
0.0
220
0.0
230
1.0
 70
     8
 71
     3
 72
    21
 73
    17
 74
     0
 42
0.00000001
 43
0.00000001
 40
0.0
 40
0.0
 40
0.0
 40
0.0
 40
0.103918203449569
 40
0.1671029876998107
 40
0.2389191163393447
 40
0.3136733020054579
 40
0.3875611960086836
 40
0.4590532629333473
 40
0.5298815837398793
 40
0.5975471643057749
 40
0.6591888190890032
 40
0.7173096687160448
 40
0.7727348140214451
 40
0.8237420159499803
 40
0.874176961910757
 40
1.0
 40
1.0
 40
1.0
 40
1.0
 10
122.6642479084158
 20
-64.20838040041856
 30
0.0
 10
121.8033614803935
 20
-63.84440878456613
 30
0.0
 10
120.5395848848263
 20
-63.0029278344386
 30
0.0
 10
119.054837596081
 20
-61.45040367468312
 30
0.0
 10
117.8779446197693
 20
-59.98045000335619
 30
0.0
 10
116.7663879592626
 20
-58.34334329247795
 30
0.0
 10
115.7661084634052
 20
-56.63818704194124
 30
0.0
 10
114.9486228246058
 20
-54.87797022364796
 30
0.0
 10
114.2529278150574
 20
-53.12500817237235
 30
0.0
 10
113.7906560213361
 20
-51.38689573273702
 30
0.0
 10
113.5320530894433
 20
-49.72020305753697
 30
0.0
 10
113.5549432540675
 20
-48.1425953477402
 30
0.0
 10
113.7941870833454
 20
-46.67886230817444
 30
0.0
 10
114.3902174835644
 20
-45.37067807476092
 30
0.0
 10
115.9791360362776
 20
-43.99173658441633
 30
0.0
 10
117.6830282396518
 20
-43.84899389888031
 30
0.0
 10
118.7744902852728
 20
-43.8213592901762
 30
0.0
  0
ENDSEC
  0
SECTION
  2
OBJECTS
  0
DICTIONARY
  5
C
330
0
100
AcDbDictionary
281
     1
  3
ACAD_GROUP
350
D
  3
ACAD_LAYOUT
350
1A
  3
ACAD_MLEADERSTYLE
350
76
  3
ACAD_MLINESTYLE
350
17
  3
ACAD_PLOTSETTINGS
350
19
  3
ACAD_PLOTSTYLENAME
350
E
  3
ACAD_VISUALSTYLE
350
2A
  3
AcDbVariableDictionary
350
74
  0
DICTIONARY
  5
D
102
{ACAD_REACTORS
330
C
102
}
330
C
100
AcDbDictionary
281
     1
  0
DICTIONARY
  5
1A
102
{ACAD_REACTORS
330
C
102
}
330
C
100
AcDbDictionary
281
     1
  3
Layout1
350
1E
  3
Layout2
350
26
  3
Model
350
22
  0
DICTIONARY
  5
76
102
{ACAD_REACTORS
330
C
102
}
330
C
100
AcDbDictionary
281
     1
  0
DICTIONARY
  5
17
102
{ACAD_REACTORS
330
C
102
}
330
C
100
AcDbDictionary
281
     1
  3
Standard
350
18
  0
DICTIONARY
  5
19
102
{ACAD_REACTORS
330
C
102
}
330
C
100
AcDbDictionary
281
     1
  0
ACDBDICTIONARYWDFLT
  5
E
102
{ACAD_REACTORS
330
C
102
}
330
C
100
AcDbDictionary
281
     1
  3
Normal
350
F
100
AcDbDictionaryWithDefault
340
F
  0
DICTIONARY
  5
2A
102
{ACAD_REACTORS
330
C
102
}
330
C
100
AcDbDictionary
281
     1
  3
2dWireframe
350
2F
  3
3D Hidden
350
31
  3
3dWireframe
350
30
  3
Basic
350
32
  3
Brighten
350
36
  3
ColorChange
350
3A
  3
Conceptual
350
34
  3
Dim
350
35
  3
Facepattern
350
39
  3
Flat
350
2B
  3
FlatWithEdges
350
2C
  3
Gouraud
350
2D
  3
GouraudWithEdges
350
2E
  3
Linepattern
350
38
  3
Realistic
350
33
  3
Thicken
350
37
  0
DICTIONARY
  5
74
102
{ACAD_REACTORS
330
C
102
}
330
C
100
AcDbDictionary
281
     1
  3
DIMASSOC
350
79
  3
HIDETEXT
350
7A
  3
PSOLHEIGHT
350
78
  3
PSOLWIDTH
350
77
  0
LAYOUT
  5
1E
102
{ACAD_REACTORS
330
1A
102
}
330
1A
100
AcDbPlotSettings
  1

  2
none_device
  4

  6

 40
0.0
 41
0.0
 42
0.0
 43
0.0
 44
0.0
 45
0.0
 46
0.0
 47
0.0
 48
0.0
 49
0.0
140
0.0
141
0.0
142
1.0
143
1.0
 70
   688
 72
     0
 73
     0
 74
     5
  7

 75
    16
147
1.0
148
0.0
149
0.0
100
AcDbLayout
  1
Layout1
 70
     1
 71
     1
 10
0.0
 20
0.0
 11
420.0
 21
297.0
 12
0.0
 22
0.0
 32
0.0
 14
1.0000000000E+20
 24
1.0000000000E+20
 34
1.0000000000E+20
 15
-1.0000000000E+20
 25
-1.0000000000E+20
 35
-1.0000000000E+20
146
0.0
 13
0.0
 23
0.0
 33
0.0
 16
1.0
 26
0.0
 36
0.0
 17
0.0
 27
1.0
 37
0.0
 76
     0
330
1B
  0
LAYOUT
  5
26
102
{ACAD_REACTORS
330
1A
102
}
330
1A
100
AcDbPlotSettings
  1

  2
none_device
  4

  6

 40
0.0
 41
0.0
 42
0.0
 43
0.0
 44
0.0
 45
0.0
 46
0.0
 47
0.0
 48
0.0
 49
0.0
140
0.0
141
0.0
142
1.0
143
1.0
 70
   688
 72
     0
 73
     0
 74
     5
  7

 75
    16
147
1.0
148
0.0
149
0.0
100
AcDbLayout
  1
Layout2
 70
     1
 71
     2
 10
0.0
 20
0.0
 11
0.0
 21
0.0
 12
0.0
 22
0.0
 32
0.0
 14
0.0
 24
0.0
 34
0.0
 15
0.0
 25
0.0
 35
0.0
146
0.0
 13
0.0
 23
0.0
 33
0.0
 16
1.0
 26
0.0
 36
0.0
 17
0.0
 27
1.0
 37
0.0
 76
     0
330
23
  0
LAYOUT
  5
22
102
{ACAD_REACTORS
330
1A
102
}
330
1A
100
AcDbPlotSettings
  1

  2
none_device
  4
ANSI_A_(11.00_x_8.50_Inches)
  6

 40
6.35
 41
19.05
 42
6.35000508
 43
19.05000254
 44
279.4
 45
215.9
 46
-4.95300254
 47
151.859416085
 48
0.0
 49
0.0
140
0.0
141
0.0
142
0.0726
143
1.0
 70
  1696
 72
     0
 73
     0
 74
     0
  7

 75
     0
147
0.0179189148
148
0.0
149
0.0
100
AcDbLayout
  1
Model
 70
     1
 71
     0
 10
0.0
 20
0.0
 11
420.0
 21
297.0
 12
0.0
 22
0.0
 32
0.0
 14
0.0
 24
-71.2842209008
 34
0.0
 15
150.0
 25
3.0
 35
0.0
146
0.0
 13
0.0
 23
0.0
 33
0.0
 16
1.0
 26
0.0
 36
0.0
 17
0.0
 27
1.0
 37
0.0
 76
     0
330
1F
331
29
  0
MLINESTYLE
  5
18
102
{ACAD_REACTORS
330
17
102
}
330
17
100
AcDbMlineStyle
  2
Standard
 70
     0
  3

 62
   256
 51
90.0
 52
90.0
 71
     2
 49
0.5
 62
   256
  6
BYLAYER
 49
-0.5
 62
   256
  6
BYLAYER
  0
ACDBPLACEHOLDER
  5
F
102
{ACAD_REACTORS
330
E
102
}
330
E
  0
VISUALSTYLE
  5
2F
102
{ACAD_REACTORS
330
2A
102
}
330
2A
100
AcDbVisualStyle
  2
2dWireframe
 70
     4
 71
     0
 72
     2
 73
     0
 90
        0
 40
-0.6
 41
-30.0
 62
     5
 63
     7
 74
     1
 91
        4
 64
     7
 65
   257
 75
     1
175
     1
 42
1.0
 92
        0
 66
   257
 43
1.0
 76
     1
 77
     6
 78
     2
 67
     7
 79
     5
170
     0
171
     0
290
     0
174
     0
 93
        1
 44
0.0
173
     0
291
     0
 45
0.0
1001
ACAD
1000
AcDbSavedByObjectVersion
1070
     0
  0
VISUALSTYLE
  5
31
102
{ACAD_REACTORS
330
2A
102
}
330
2A
100
AcDbVisualStyle
  2
3D Hidden
 70
     6
 71
     1
 72
     2
 73
     2
 90
        0
 40
-0.6
 41
-30.0
 62
     5
 63
     7
 74
     2
 91
        2
 64
     7
 65
   257
 75
     2
175
     1
 42
40.0
 92
        0
 66
   257
 43
1.0
 76
     1
 77
     6
 78
     2
 67
     7
 79
     3
170
     0
171
     0
290
     0
174
     0
 93
        1
 44
0.0
173
     0
291
     0
 45
0.0
1001
ACAD
1000
AcDbSavedByObjectVersion
1070
     0
  0
VISUALSTYLE
  5
30
102
{ACAD_REACTORS
330
2A
102
}
330
2A
100
AcDbVisualStyle
  2
3dWireframe
 70
     5
 71
     0
 72
     2
 73
     0
 90
        0
 40
-0.6
 41
-30.0
 62
     5
 63
     7
 74
     1
 91
        4
 64
     7
 65
   257
 75
     1
175
     1
 42
1.0
 92
        0
 66
   257
 43
1.0
 76
     1
 77
     6
 78
     2
 67
     7
 79
     5
170
     0
171
     0
290
     0
174
     0
 93
        1
 44
0.0
173
     0
291
     0
 45
0.0
1001
ACAD
1000
AcDbSavedByObjectVersion
1070
     0
  0
VISUALSTYLE
  5
32
102
{ACAD_REACTORS
330
2A
102
}
330
2A
100
AcDbVisualStyle
  2
Basic
 70
     7
 71
     1
 72
     0
 73
     1
 90
        0
 40
-0.6
 41
-30.0
 62
     5
 63
     7
 74
     0
 91
        4
 64
     7
 65
   257
 75
     1
175
     1
 42
1.0
 92
        8
 66
     7
 43
1.0
 76
     1
 77
     6
 78
     2
 67
     7
 79
     5
170
     0
171
     0
290
     0
174
     0
 93
        1
 44
0.0
173
     0
291
     1
 45
0.0
1001
ACAD
1000
AcDbSavedByObjectVersion
1070
     0
  0
VISUALSTYLE
  5
36
102
{ACAD_REACTORS
330
2A
102
}
330
2A
100
AcDbVisualStyle
  2
Brighten
 70
    12
 71
     2
 72
     2
 73
     0
 90
        0
 40
-0.6
 41
-30.0
 62
     5
 63
     7
 74
     1
 91
        4
 64
     7
 65
   257
 75
     1
175
     1
 42
1.0
 92
        8
 66
     7
 43
1.0
 76
     1
 77
     6
 78
     2
 67
     7
 79
     5
170
     0
171
     0
290
     0
174
     0
 93
        1
 44
50.0
173
     0
291
     1
 45
0.0
1001
ACAD
1000
AcDbSavedByObjectVersion
1070
     0
  0
VISUALSTYLE
  5
3A
102
{ACAD_REACTORS
330
2A
102
}
330
2A
100
AcDbVisualStyle
  2
ColorChange
 70
    16
 71
     2
 72
     2
 73
     3
 90
        0
 40
-0.6
 41
-30.0
 62
     5
 63
     8
 74
     1
 91
        4
 64
     7
 65
   257
 75
     1
175
     1
 42
1.0
 92
        8
 66
     8
 43
1.0
 76
     1
 77
     6
 78
     2
 67
     7
 79
     5
170
     0
171
     0
290
     0
174
     0
 93
        1
 44
0.0
173
     0
291
     1
 45
0.0
1001
ACAD
1000
AcDbSavedByObjectVersion
1070
     0
  0
VISUALSTYLE
  5
34
102
{ACAD_REACTORS
330
2A
102
}
330
2A
100
AcDbVisualStyle
  2
Conceptual
 70
     9
 71
     3
 72
     2
 73
     0
 90
        0
 40
-0.6
 41
-30.0
 62
     5
 63
     7
 74
     2
 91
        2
 64
     7
 65
   257
 75
     1
175
     1
 42
40.0
 92
        8
 66
     7
 43
1.0
 76
     1
 77
     6
 78
     2
 67
     7
 79
     3
170
     0
171
     0
290
     0
174
     0
 93
        1
 44
0.0
173
     0
291
     0
 45
0.0
1001
ACAD
1000
AcDbSavedByObjectVersion
1070
     0
  0
VISUALSTYLE
  5
35
102
{ACAD_REACTORS
330
2A
102
}
330
2A
100
AcDbVisualStyle
  2
Dim
 70
    11
 71
     2
 72
     2
 73
     0
 90
        0
 40
-0.6
 41
-30.0
 62
     5
 63
     7
 74
     1
 91
        4
 64
     7
 65
   257
 75
     1
175
     1
 42
1.0
 92
        8
 66
     7
 43
1.0
 76
     1
 77
     6
 78
     2
 67
     7
 79
     5
170
     0
171
     0
290
     0
174
     0
 93
        1
 44
-50.0
173
     0
291
     1
 45
0.0
1001
ACAD
1000
AcDbSavedByObjectVersion
1070
     0
  0
VISUALSTYLE
  5
39
102
{ACAD_REACTORS
330
2A
102
}
330
2A
100
AcDbVisualStyle
  2
Facepattern
 70
    15
 71
     2
 72
     2
 73
     0
 90
        0
 40
-0.6
 41
-30.0
 62
     5
 63
     7
 74
     1
 91
        4
 64
     7
 65
   257
 75
     1
175
     1
 42
1.0
 92
        8
 66
     7
 43
1.0
 76
     1
 77
     6
 78
     2
 67
     7
 79
     5
170
     0
171
     0
290
     0
174
     0
 93
        1
 44
0.0
173
     0
291
     1
 45
0.0
1001
ACAD
1000
AcDbSavedByObjectVersion
1070
     0
  0
VISUALSTYLE
  5
2B
102
{ACAD_REACTORS
330
2A
102
}
330
2A
100
AcDbVisualStyle
  2
Flat
 70
     0
 71
     2
 72
     1
 73
     1
 90
        2
 40
-0.6
 41
30.0
 62
     5
 63
     7
 74
     0
 91
        4
 64
     7
 65
   257
 75
     1
175
     1
 42
1.0
 92
        8
 66
     7
 43
1.0
 76
     1
 77
     6
 78
     2
 67
     7
 79
     5
170
     0
171
     0
290
     0
174
     0
 93
       13
 44
0.0
173
     0
291
     1
 45
0.0
1001
ACAD
1000
AcDbSavedByObjectVersion
1070
     0
  0
VISUALSTYLE
  5
2C
102
{ACAD_REACTORS
330
2A
102
}
330
2A
100
AcDbVisualStyle
  2
FlatWithEdges
 70
     1
 71
     2
 72
     1
 73
     1
 90
        2
 40
-0.6
 41
30.0
 62
     5
 63
     7
 74
     1
 91
        4
 64
     7
 65
   257
 75
     1
175
     1
 42
1.0
 92
        0
 66
   257
 43
1.0
 76
     1
 77
     6
 78
     2
 67
     7
 79
     5
170
     0
171
     0
290
     0
174
     0
 93
       13
 44
0.0
173
     0
291
     1
 45
0.0
1001
ACAD
1000
AcDbSavedByObjectVersion
1070
     0
  0
VISUALSTYLE
  5
2D
102
{ACAD_REACTORS
330
2A
102
}
330
2A
100
AcDbVisualStyle
  2
Gouraud
 70
     2
 71
     2
 72
     2
 73
     1
 90
        2
 40
-0.6
 41
30.0
 62
     5
 63
     7
 74
     0
 91
        4
 64
     7
 65
   257
 75
     1
175
     1
 42
1.0
 92
        0
 66
     7
 43
1.0
 76
     1
 77
     6
 78
     2
 67
     7
 79
     5
170
     0
171
     0
290
     0
174
     0
 93
       13
 44
0.0
173
     0
291
     1
 45
0.0
1001
ACAD
1000
AcDbSavedByObjectVersion
1070
     0
  0
VISUALSTYLE
  5
2E
102
{ACAD_REACTORS
330
2A
102
}
330
2A
100
AcDbVisualStyle
  2
GouraudWithEdges
 70
     3
 71
     2
 72
     2
 73
     1
 90
        2
 40
-0.6
 41
30.0
 62
     5
 63
     7
 74
     1
 91
        4
 64
     7
 65
   257
 75
     1
175
     1
 42
1.0
 92
        0
 66
   257
 43
1.0
 76
     1
 77
     6
 78
     2
 67
     7
 79
     5
170
     0
171
     0
290
     0
174
     0
 93
       13
 44
0.0
173
     0
291
     1
 45
0.0
1001
ACAD
1000
AcDbSavedByObjectVersion
1070
     0
  0
VISUALSTYLE
  5
38
102
{ACAD_REACTORS
330
2A
102
}
330
2A
100
AcDbVisualStyle
  2
Linepattern
 70
    14
 71
     2
 72
     2
 73
     0
 90
        0
 40
-0.6
 41
-30.0
 62
     5
 63
     7
 74
     1
 91
        4
 64
     7
 65
   257
 75
     7
175
     7
 42
1.0
 92
        8
 66
     7
 43
1.0
 76
     1
 77
     6
 78
     2
 67
     7
 79
     5
170
     0
171
     0
290
     0
174
     0
 93
        1
 44
0.0
173
     0
291
     1
 45
0.0
1001
ACAD
1000
AcDbSavedByObjectVersion
1070
     0
  0
VISUALSTYLE
  5
33
102
{ACAD_REACTORS
330
2A
102
}
330
2A
100
AcDbVisualStyle
  2
Realistic
 70
     8
 71
     2
 72
     2
 73
     0
 90
        0
 40
-0.6
 41
-30.0
 62
     5
 63
     7
 74
     1
 91
        0
 64
     7
 65
   257
 75
     1
175
     1
 42
1.0
 92
        8
 66
     8
 43
1.0
 76
     1
 77
     6
 78
     2
 67
     7
 79
     5
170
     0
171
     0
290
     0
174
     0
 93
       13
 44
0.0
173
     0
291
     0
 45
0.0
1001
ACAD
1000
AcDbSavedByObjectVersion
1070
     0
  0
VISUALSTYLE
  5
37
102
{ACAD_REACTORS
330
2A
102
}
330
2A
100
AcDbVisualStyle
  2
Thicken
 70
    13
 71
     2
 72
     2
 73
     0
 90
        0
 40
-0.6
 41
-30.0
 62
     5
 63
     7
 74
     1
 91
        4
 64
     7
 65
   257
 75
     1
175
     1
 42
1.0
 92
       12
 66
     7
 43
1.0
 76
     1
 77
     6
 78
     2
 67
     7
 79
     5
170
     0
171
     0
290
     0
174
     0
 93
        1
 44
0.0
173
     0
291
     1
 45
0.0
1001
ACAD
1000
AcDbSavedByObjectVersion
1070
     0
  0
DICTIONARYVAR
  5
79
102
{ACAD_REACTORS
330
74
102
}
330
74
100
DictionaryVariables
280
     0
  1
2
  0
DICTIONARYVAR
  5
7A
102
{ACAD_REACTORS
330
74
102
}
330
74
100
DictionaryVariables
280
     0
  1
1
  0
DICTIONARYVAR
  5
78
102
{ACAD_REACTORS
330
74
102
}
330
74
100
DictionaryVariables
280
     0
  1
80.000000
  0
DICTIONARYVAR
  5
77
102
{ACAD_REACTORS
330
74
102
}
330
74
100
DictionaryVariables
280
     0
  1
5.000000
  0
ENDSEC
  0
EOF
