  0
SECTION
  2
HEADER
  9
$ACADVER
  1
AC1014
  9
$HANDSEED
  5
FFFF
  9
$MEASUREMENT
 70
     1
  0
ENDSEC
  0
SECTION
  2
TABLES
  0
TABLE
  2
VPORT
  5
8
330
0
100
AcDbSymbolTable
 70
     4
  0
VPORT
  5
2E
330
8
100
AcDbSymbolTableRecord
100
AcDbViewportTableRecord
  2
*ACTIVE
 70
     0
 10
0.0
 20
0.0
 11
1.0
 21
1.0
 12
210.0
 22
148.5
 13
0.0
 23
0.0
 14
10.0
 24
10.0
 15
10.0
 25
10.0
 16
0.0
 26
0.0
 36
1.0
 17
0.0
 27
0.0
 37
0.0
 40
341.0
 41
1.24
 42
50.0
 43
0.0
 44
0.0
 50
0.0
 51
0.0
 71
     0
 72
   100
 73
     1
 74
     3
 75
     0
 76
     0
 77
     0
 78
     0
  0
ENDTAB
  0
TABLE
  2
LTYPE
  5
5
330
0
100
AcDbSymbolTable
 70
     1
  0
LTYPE
  5
14
330
5
100
AcDbSymbolTableRecord
100
AcDbLinetypeTableRecord
  2
BYBLOCK
 70
     0
  3

 72
    65
 73
     0
 40
0.0
  0
LTYPE
  5
15
330
5
100
AcDbSymbolTableRecord
100
AcDbLinetypeTableRecord
  2
BYLAYER
 70
     0
  3

 72
    65
 73
     0
 40
0.0
  0
LTYPE
  5
16
330
5
100
AcDbSymbolTableRecord
100
AcDbLinetypeTableRecord
  2
CONTINUOUS
 70
     0
  3
Solid line
 72
    65
 73
     0
 40
0.0
  0
ENDTAB
  0
TABLE
  2
LAYER
  5
2
100
AcDbSymbolTable
 70
2
  0
LAYER
  5
50
100
AcDbSymbolTableRecord
100
AcDbLayerTableRecord
  2
0
 70
0
  6
CONTINUOUS
  0
LAYER
  5
51
100
AcDbSymbolTableRecord
100
AcDbLayerTableRecord
  2
sit_gravat
 70
0
  6
CONTINUOUS
  0
ENDTAB
  0
TABLE
  2
STYLE
  5
3
330
0
100
AcDbSymbolTable
 70
     1
  0
STYLE
  5
11
330
3
100
AcDbSymbolTableRecord
100
AcDbTextStyleTableRecord
  2
STANDARD
 70
     0
 40
0.0
 41
1.0
 50
0.0
 71
     0
 42
2.5
  3
txt
  4

  0
ENDTAB
  0
TABLE
  2
VIEW
  5
6
330
0
100
AcDbSymbolTable
 70
     0
  0
ENDTAB
  0
TABLE
  2
UCS
  5
7
330
0
100
AcDbSymbolTable
 70
     0
  0
ENDTAB
  0
TABLE
  2
APPID
  5
9
330
0
100
AcDbSymbolTable
 70
     2
  0
APPID
  5
12
330
9
100
AcDbSymbolTableRecord
100
AcDbRegAppTableRecord
  2
ACAD
 70
     0
  0
ENDTAB
  0
TABLE
  2
DIMSTYLE
  5
A
330
0
100
AcDbSymbolTable
 70
     1
  0
DIMSTYLE
105
27
330
A
100
AcDbSymbolTableRecord
100
AcDbDimStyleTableRecord
  2
ISO-25
 70
     0
  3

  4

  5

  6

  7

 40
1.0
 41
2.5
 42
0.625
 43
3.75
 44
1.25
 45
0.0
 46
0.0
 47
0.0
 48
0.0
140
2.5
141
2.5
142
0.0
143
0.03937007874016
144
1.0
145
0.0
146
1.0
147
0.625
 71
     0
 72
     0
 73
     0
 74
     0
 75
     0
 76
     0
 77
     1
 78
     8
170
     0
171
     3
172
     1
173
     0
174
     0
175
     0
176
     0
177
     0
178
     0
270
     2
271
     2
272
     2
273
     2
274
     3
340
11
275
     0
280
     0
281
     0
282
     0
283
     0
284
     8
285
     0
286
     0
287
     3
288
     0
  0
ENDTAB
  0
TABLE
  2
BLOCK_RECORD
  5
1
330
0
100
AcDbSymbolTable
 70
     1
  0
BLOCK_RECORD
  5
1F
330
1
100
AcDbSymbolTableRecord
100
AcDbBlockTableRecord
  2
*MODEL_SPACE
  0
BLOCK_RECORD
  5
1B
330
1
100
AcDbSymbolTableRecord
100
AcDbBlockTableRecord
  2
*PAPER_SPACE
  0
ENDTAB
  0
ENDSEC
  0
SECTION
  2
BLOCKS
  0
BLOCK
  5
20
330
1F
100
AcDbEntity
  8
0
100
AcDbBlockBegin
  2
*MODEL_SPACE
 70
     0
 10
0.0
 20
0.0
 30
0.0
  3
*MODEL_SPACE
  1

  0
ENDBLK
  5
21
330
1F
100
AcDbEntity
  8
0
100
AcDbBlockEnd
  0
BLOCK
  5
1C
330
1B
100
AcDbEntity
 67
     1
  8
0
100
AcDbBlockBegin
  2
*PAPER_SPACE
  1

  0
ENDBLK
  5
1D
330
1B
100
AcDbEntity
 67
     1
  8
0
100
AcDbBlockEnd
  0
ENDSEC
  0
SECTION
  2
ENTITIES
  0
LWPOLYLINE
  5
100
100
AcDbEntity
  8
sit_gravat
 62
7
100
AcDbPolyline
 90
2
 70
0
 10
200.113306
 20
212.569561
 30
0.0
 10
206.204315
 20
198.862540
 30
0.0
  0
LWPOLYLINE
  5
101
100
AcDbEntity
  8
sit_gravat
 62
7
100
AcDbPolyline
 90
2
 70
0
 10
459.536702
 20
196.237536
 30
0.0
 10
405.249619
 20
186.322521
 30
0.0
  0
LWPOLYLINE
  5
102
100
AcDbEntity
  8
sit_gravat
 62
7
100
AcDbPolyline
 90
2
 70
0
 10
459.489702
 20
206.264551
 30
0.0
 10
240.833368
 20
170.132496
 30
0.0
  0
LWPOLYLINE
  5
103
100
AcDbEntity
  8
sit_gravat
 62
7
100
AcDbPolyline
 90
2
 70
0
 10
81.287224
 20
167.165492
 30
0.0
 10
96.147247
 20
176.748506
 30
0.0
  0
LWPOLYLINE
  5
104
100
AcDbEntity
  8
sit_gravat
 62
7
100
AcDbPolyline
 90
3
 70
0
 10
174.757267
 20
43.059302
 30
0.0
 10
178.606273
 20
31.693285
 30
0.0
 10
201.338308
 20
39.391296
 30
0.0
  0
LWPOLYLINE
  5
105
100
AcDbEntity
  8
sit_gravat
 62
7
100
AcDbPolyline
 90
2
 70
0
 10
208.073318
 20
19.500266
 30
0.0
 10
196.707301
 20
15.651260
 30
0.0
  0
LWPOLYLINE
  5
106
100
AcDbEntity
  8
sit_gravat
 62
7
100
AcDbPolyline
 90
2
 70
0
 10
208.073318
 20
19.500266
 30
0.0
 10
201.338308
 20
39.391296
 30
0.0
  0
LWPOLYLINE
  5
107
100
AcDbEntity
  8
sit_gravat
 62
7
100
AcDbPolyline
 90
2
 70
0
 10
174.757267
 20
43.059302
 30
0.0
 10
197.489302
 20
50.757314
 30
0.0
  0
LWPOLYLINE
  5
108
100
AcDbEntity
  8
sit_gravat
 62
7
100
AcDbPolyline
 90
2
 70
0
 10
196.707301
 20
15.651260
 30
0.0
 10
189.972290
 20
35.542290
 30
0.0
  0
LWPOLYLINE
  5
109
100
AcDbEntity
  8
sit_gravat
 62
7
100
AcDbPolyline
 90
2
 70
0
 10
197.489302
 20
50.757314
 30
0.0
 10
201.338308
 20
39.391296
 30
0.0
  0
LWPOLYLINE
  5
10a
100
AcDbEntity
  8
sit_gravat
 62
7
100
AcDbPolyline
 90
2
 70
0
 10
459.475702
 20
206.896552
 30
0.0
 10
459.039701
 20
257.684630
 30
0.0
  0
LWPOLYLINE
  5
10b
100
AcDbEntity
  8
sit_gravat
 62
7
100
AcDbPolyline
 90
2
 70
0
 10
75.376015
 20
129.958435
 30
0.0
 10
72.015710
 20
135.724443
 30
0.0
  0
LWPOLYLINE
  5
10c
100
AcDbEntity
  8
sit_gravat
 62
7
100
AcDbPolyline
 90
2
 70
0
 10
48.017773
 20
247.659614
 30
0.0
 10
36.912956
 20
264.844641
 30
0.0
  0
LWPOLYLINE
  5
10d
100
AcDbEntity
  8
sit_gravat
 62
7
100
AcDbPolyline
 90
2
 70
0
 10
230.980353
 20
187.463523
 30
0.0
 10
240.833368
 20
170.132496
 30
0.0
  0
LWPOLYLINE
  5
10e
100
AcDbEntity
  8
sit_gravat
 62
7
100
AcDbPolyline
 90
2
 70
0
 10
458.997701
 20
262.555637
 30
0.0
 10
362.306554
 20
262.541637
 30
0.0
  0
LWPOLYLINE
  5
10f
100
AcDbEntity
  8
sit_gravat
 62
7
100
AcDbPolyline
 90
2
 70
0
 10
66.991402
 20
92.746378
 30
0.0
 10
359.806550
 20
261.871636
 30
0.0
  0
LWPOLYLINE
  5
110
100
AcDbEntity
  8
sit_gravat
 62
7
100
AcDbPolyline
 90
2
 70
0
 10
58.990290
 20
106.599399
 30
0.0
 10
73.598812
 20
115.036412
 30
0.0
  0
LWPOLYLINE
  5
111
100
AcDbEntity
  8
sit_gravat
 62
7
100
AcDbPolyline
 90
6
 70
0
 10
451.750690
 20
13.856257
 30
0.0
 10
455.029695
 20
46.714307
 30
0.0
 10
457.745699
 20
75.589352
 30
0.0
 10
461.115704
 20
136.569445
 30
0.0
 10
459.489702
 20
206.264551
 30
0.0
 10
458.997701
 20
262.555637
 30
0.0
  0
LWPOLYLINE
  5
112
100
AcDbEntity
  8
sit_gravat
 62
7
100
AcDbPolyline
 90
3
 70
0
 10
453.459693
 20
463.019944
 30
0.0
 10
443.733678
 20
581.854125
 30
0.0
 10
435.219665
 20
685.877384
 30
0.0
  0
LWPOLYLINE
  5
113
100
AcDbEntity
  8
sit_gravat
 62
7
100
AcDbPolyline
 90
2
 70
0
 10
458.015700
 20
46.425307
 30
0.0
 10
460.737704
 20
75.366351
 30
0.0
  0
LWPOLYLINE
  5
114
100
AcDbEntity
  8
sit_gravat
 62
7
100
AcDbPolyline
 90
2
 70
0
 10
446.723682
 20
582.099125
 30
0.0
 10
438.229670
 20
685.877384
 30
0.0
  0
LWPOLYLINE
  5
115
100
AcDbEntity
  8
sit_gravat
 62
7
100
AcDbPolyline
 90
2
 70
0
 10
459.011701
 20
46.328307
 30
0.0
 10
461.734705
 20
75.292351
 30
0.0
  0
LWPOLYLINE
  5
116
100
AcDbEntity
  8
sit_gravat
 62
7
100
AcDbPolyline
 90
2
 70
0
 10
461.001704
 20
46.135307
 30
0.0
 10
463.729708
 20
75.143351
 30
0.0
  0
LWPOLYLINE
  5
117
100
AcDbEntity
  8
sit_gravat
 62
7
100
AcDbPolyline
 90
2
 70
0
 10
463.394708
 20
360.157786
 30
0.0
 10
463.388708
 20
360.322787
 30
0.0
  0
LWPOLYLINE
  5
118
100
AcDbEntity
  8
sit_gravat
 62
7
100
AcDbPolyline
 90
2
 70
0
 10
467.969715
 20
45.460306
 30
0.0
 10
470.711719
 20
74.622350
 30
0.0
  0
LWPOLYLINE
  5
119
100
AcDbEntity
  8
sit_gravat
 62
7
100
AcDbPolyline
 90
2
 70
0
 10
469.959718
 20
45.267305
 30
0.0
 10
472.706722
 20
74.473350
 30
0.0
  0
LWPOLYLINE
  5
11a
100
AcDbEntity
  8
sit_gravat
 62
7
100
AcDbPolyline
 90
6
 70
0
 10
470.844719
 20
13.856257
 30
0.0
 10
473.941724
 20
44.881305
 30
0.0
 10
476.695728
 20
74.175349
 30
0.0
 10
480.127734
 20
136.266444
 30
0.0
 10
478.487731
 20
206.568552
 30
0.0
 10
477.347729
 20
336.902751
 30
0.0
  0
LWPOLYLINE
  5
11b
100
AcDbEntity
  8
sit_gravat
 62
1
100
AcDbPolyline
 90
2
 70
0
 10
169.652259
 20
207.241553
 30
0.0
 10
201.636308
 20
221.454574
 30
0.0
  0
LWPOLYLINE
  5
11c
100
AcDbEntity
  8
sit_gravat
 62
7
100
AcDbPolyline
 90
3
 70
0
 10
169.652259
 20
207.241553
 30
0.0
 10
163.561250
 20
220.948574
 30
0.0
 10
195.545299
 20
235.161595
 30
0.0
  0
LWPOLYLINE
  5
11d
100
AcDbEntity
  8
sit_gravat
 62
7
100
AcDbPolyline
 90
2
 70
0
 10
201.636308
 20
221.454574
 30
0.0
 10
169.652259
 20
207.241553
 30
0.0
  0
LWPOLYLINE
  5
11e
100
AcDbEntity
  8
sit_gravat
 62
7
100
AcDbPolyline
 90
3
 70
0
 10
163.561250
 20
220.948574
 30
0.0
 10
157.469241
 20
234.656595
 30
0.0
 10
189.454289
 20
248.869616
 30
0.0
  0
LWPOLYLINE
  5
11f
100
AcDbEntity
  8
sit_gravat
 62
7
100
AcDbPolyline
 90
2
 70
0
 10
195.545299
 20
235.161595
 30
0.0
 10
163.561250
 20
220.948574
 30
0.0
  0
LWPOLYLINE
  5
120
100
AcDbEntity
  8
sit_gravat
 62
7
100
AcDbPolyline
 90
3
 70
0
 10
157.469241
 20
234.656595
 30
0.0
 10
151.378231
 20
248.363616
 30
0.0
 10
183.363280
 20
262.576637
 30
0.0
  0
LWPOLYLINE
  5
121
100
AcDbEntity
  8
sit_gravat
 62
7
100
AcDbPolyline
 90
2
 70
0
 10
189.454289
 20
248.869616
 30
0.0
 10
157.469241
 20
234.656595
 30
0.0
  0
LWPOLYLINE
  5
122
100
AcDbEntity
  8
sit_gravat
 62
7
100
AcDbPolyline
 90
3
 70
0
 10
151.378231
 20
248.363616
 30
0.0
 10
145.287222
 20
262.071637
 30
0.0
 10
177.271271
 20
276.284658
 30
0.0
  0
LWPOLYLINE
  5
123
100
AcDbEntity
  8
sit_gravat
 62
7
100
AcDbPolyline
 90
2
 70
0
 10
183.363280
 20
262.576637
 30
0.0
 10
151.378231
 20
248.363616
 30
0.0
  0
LWPOLYLINE
  5
124
100
AcDbEntity
  8
sit_gravat
 62
7
100
AcDbPolyline
 90
2
 70
0
 10
177.271271
 20
276.284658
 30
0.0
 10
145.287222
 20
262.071637
 30
0.0
  0
LWPOLYLINE
  5
125
100
AcDbEntity
  8
sit_gravat
 62
1
100
AcDbPolyline
 90
2
 70
0
 10
139.877214
 20
292.496683
 30
0.0
 10
165.089252
 20
303.699700
 30
0.0
  0
LWPOLYLINE
  5
126
100
AcDbEntity
  8
sit_gravat
 62
7
100
AcDbPolyline
 90
2
 70
0
 10
171.180262
 20
289.991679
 30
0.0
 10
140.984215
 20
276.573659
 30
0.0
  0
LWPOLYLINE
  5
127
100
AcDbEntity
  8
sit_gravat
 62
7
100
AcDbPolyline
 90
2
 70
0
 10
165.089252
 20
303.699700
 30
0.0
 10
139.877214
 20
292.496683
 30
0.0
  0
LWPOLYLINE
  5
128
100
AcDbEntity
  8
sit_gravat
 62
7
100
AcDbPolyline
 90
2
 70
0
 10
140.984215
 20
276.573659
 30
0.0
 10
171.180262
 20
289.991679
 30
0.0
  0
LWPOLYLINE
  5
129
100
AcDbEntity
  8
sit_gravat
 62
7
100
AcDbPolyline
 90
5
 70
0
 10
169.249259
 20
252.474622
 30
0.0
 10
172.497264
 20
245.164611
 30
0.0
 10
183.463280
 20
250.037618
 30
0.0
 10
180.215275
 20
257.347629
 30
0.0
 10
169.249259
 20
252.474622
 30
0.0
  0
LWPOLYLINE
  5
12a
100
AcDbEntity
  8
sit_gravat
 62
7
100
AcDbPolyline
 90
5
 70
0
 10
163.157249
 20
266.182643
 30
0.0
 10
166.406254
 20
258.871632
 30
0.0
 10
177.372271
 20
263.744639
 30
0.0
 10
174.123266
 20
271.055650
 30
0.0
 10
163.157249
 20
266.182643
 30
0.0
  0
LWPOLYLINE
  5
12b
100
AcDbEntity
  8
sit_gravat
 62
7
100
AcDbPolyline
 90
5
 70
0
 10
181.431277
 20
225.059580
 30
0.0
 10
184.680282
 20
217.749569
 30
0.0
 10
195.646299
 20
222.622576
 30
0.0
 10
192.397294
 20
229.932587
 30
0.0
 10
181.431277
 20
225.059580
 30
0.0
  0
LWPOLYLINE
  5
12c
100
AcDbEntity
  8
sit_gravat
 62
7
100
AcDbPolyline
 90
5
 70
0
 10
175.340268
 20
238.767601
 30
0.0
 10
178.588273
 20
231.456590
 30
0.0
 10
189.555290
 20
236.329597
 30
0.0
 10
186.306285
 20
243.640608
 30
0.0
 10
175.340268
 20
238.767601
 30
0.0
  0
LWPOLYLINE
  5
12d
100
AcDbEntity
  8
sit_gravat
 62
7
100
AcDbPolyline
 90
5
 70
0
 10
157.066240
 20
279.890664
 30
0.0
 10
160.315245
 20
272.579653
 30
0.0
 10
171.281262
 20
277.452660
 30
0.0
 10
168.032257
 20
284.763671
 30
0.0
 10
157.066240
 20
279.890664
 30
0.0
  0
LWPOLYLINE
  5
12e
100
AcDbEntity
  8
sit_gravat
 62
7
100
AcDbPolyline
 90
5
 70
0
 10
150.975231
 20
293.597685
 30
0.0
 10
154.224236
 20
286.286673
 30
0.0
 10
165.190252
 20
291.159681
 30
0.0
 10
161.941247
 20
298.470692
 30
0.0
 10
150.975231
 20
293.597685
 30
0.0
  0
LWPOLYLINE
  5
12f
100
AcDbEntity
  8
sit_gravat
 62
7
100
AcDbPolyline
 90
5
 70
0
 10
149.791229
 20
306.111704
 30
0.0
 10
157.102240
 20
309.359709
 30
0.0
 10
152.229233
 20
320.326726
 30
0.0
 10
144.918221
 20
317.077721
 30
0.0
 10
149.791229
 20
306.111704
 30
0.0
  0
LWPOLYLINE
  5
130
100
AcDbEntity
  8
sit_gravat
 62
7
100
AcDbPolyline
 90
3
 70
0
 10
168.375257
 20
171.614498
 30
0.0
 10
182.212278
 20
179.466510
 30
0.0
 10
208.683319
 20
194.489533
 30
0.0
  0
LWPOLYLINE
  5
131
100
AcDbEntity
  8
sit_gravat
 62
7
100
AcDbPolyline
 90
2
 70
0
 10
210.784322
 20
200.868543
 30
0.0
 10
156.035238
 20
324.073731
 30
0.0
  0
LWPOLYLINE
  5
132
100
AcDbEntity
  8
sit_gravat
 62
7
100
AcDbPolyline
 90
2
 70
0
 10
181.836278
 20
204.448548
 30
0.0
 10
200.113306
 20
212.569561
 30
0.0
  0
LWPOLYLINE
  5
133
100
AcDbEntity
  8
sit_gravat
 62
7
100
AcDbPolyline
 90
2
 70
0
 10
187.927287
 20
190.740528
 30
0.0
 10
181.836278
 20
204.448548
 30
0.0
  0
LWPOLYLINE
  5
134
100
AcDbEntity
  8
sit_gravat
 62
7
100
AcDbPolyline
 90
2
 70
0
 10
206.204315
 20
198.862540
 30
0.0
 10
187.927287
 20
190.740528
 30
0.0
  0
LWPOLYLINE
  5
135
100
AcDbEntity
  8
sit_gravat
 62
1
100
AcDbPolyline
 90
2
 70
0
 10
134.536206
 20
471.066956
 30
0.0
 10
137.849211
 20
334.023746
 30
0.0
  0
LWPOLYLINE
  5
136
100
AcDbEntity
  8
sit_gravat
 62
7
100
AcDbPolyline
 90
2
 70
0
 10
470.509719
 20
357.302782
 30
0.0
 10
470.506719
 20
357.372782
 30
0.0
  0
SPLINE
  5
137
100
AcDbEntity
  8
sit_gravat
 62
7
100
AcDbSpline
 70
8
 71
3
 72
8
 73
4
 74
0
 40
0
 40
0
 40
0
 40
0
 40
1
 40
1
 40
1
 40
1
 10
210.784322
 20
200.868543
 30
0.0
 10
211.068322
 20
200.228542
 30
0.0
 10
211.215323
 20
199.537541
 30
0.0
 10
211.215323
 20
198.837540
 30
0.0
  0
SPLINE
  5
138
100
AcDbEntity
  8
sit_gravat
 62
7
100
AcDbSpline
 70
8
 71
3
 72
8
 73
4
 74
0
 40
0
 40
0
 40
0
 40
0
 40
1
 40
1
 40
1
 40
1
 10
211.215323
 20
198.837540
 30
0.0
 10
211.215323
 20
197.038537
 30
0.0
 10
210.248321
 20
195.377535
 30
0.0
 10
208.683319
 20
194.489533
 30
0.0
  0
SPLINE
  5
139
100
AcDbEntity
  8
sit_gravat
 62
7
100
AcDbSpline
 70
8
 71
3
 72
8
 73
4
 74
0
 40
0
 40
0
 40
0
 40
0
 40
1
 40
1
 40
1
 40
1
 10
359.806550
 20
261.871636
 30
0.0
 10
360.566551
 20
262.310637
 30
0.0
 10
361.428552
 20
262.541637
 30
0.0
 10
362.306554
 20
262.541637
 30
0.0
  0
SPLINE
  5
13a
100
AcDbEntity
  8
sit_gravat
 62
7
100
AcDbSpline
 70
8
 71
3
 72
8
 73
4
 74
0
 40
0
 40
0
 40
0
 40
0
 40
1
 40
1
 40
1
 40
1
 10
147.655226
 20
326.890736
 30
0.0
 10
148.543227
 20
327.379736
 30
0.0
 10
149.539228
 20
327.636737
 30
0.0
 10
150.552230
 20
327.636737
 30
0.0
  0
SPLINE
  5
13b
100
AcDbEntity
  8
sit_gravat
 62
7
100
AcDbSpline
 70
8
 71
3
 72
8
 73
4
 74
0
 40
0
 40
0
 40
0
 40
0
 40
1
 40
1
 40
1
 40
1
 10
150.552230
 20
327.636737
 30
0.0
 10
152.924234
 20
327.636737
 30
0.0
 10
155.073237
 20
326.239735
 30
0.0
 10
156.035238
 20
324.073731
 30
0.0
  0
LWPOLYLINE
  5
13c
100
AcDbEntity
  8
sit_gravat
 62
7
100
AcDbPolyline
 90
2
 70
0
 10
460.735704
 20
429.748893
 30
0.0
 10
459.450702
 20
463.378944
 30
0.0
  0
LWPOLYLINE
  5
13d
100
AcDbEntity
  8
sit_gravat
 62
7
100
AcDbPolyline
 90
11
 70
0
 10
38.074158
 20
107.973401
 30
0.0
 10
32.205749
 20
104.612396
 30
0.0
 10
32.205949
 20
104.610396
 30
0.0
 10
33.291951
 20
102.726393
 30
0.0
 10
34.894953
 20
99.919389
 30
0.0
 10
35.546454
 20
98.789387
 30
0.0
 10
38.182858
 20
94.195380
 30
0.0
 10
42.658765
 20
96.640384
 30
0.0
 10
40.330362
 20
100.704390
 30
0.0
 10
41.722164
 20
101.609391
 30
0.0
 10
38.074158
 20
107.973401
 30
0.0
  0
LWPOLYLINE
  5
13e
100
AcDbEntity
  8
sit_gravat
 62
7
100
AcDbPolyline
 90
2
 70
0
 10
14.934423
 20
113.505410
 30
0.0
 10
14.109422
 20
114.895412
 30
0.0
  0
LWPOLYLINE
  5
13f
100
AcDbEntity
  8
sit_gravat
 62
7
100
AcDbPolyline
 90
2
 70
0
 10
14.109422
 20
113.015409
 30
0.0
 10
14.934423
 20
113.505410
 30
0.0
  0
LWPOLYLINE
  5
140
100
AcDbEntity
  8
sit_gravat
 62
7
100
AcDbPolyline
 90
2
 70
0
 10
182.212278
 20
179.466510
 30
0.0
 10
169.652259
 20
207.241553
 30
0.0
  0
LWPOLYLINE
  5
141
100
AcDbEntity
  8
sit_gravat
 62
7
100
AcDbPolyline
 90
2
 70
0
 10
69.095806
 20
283.576669
 30
0.0
 10
107.747165
 20
215.627566
 30
0.0
  0
LWPOLYLINE
  5
142
100
AcDbEntity
  8
sit_gravat
 62
7
100
AcDbPolyline
 90
2
 70
0
 10
69.702506
 20
282.475668
 30
0.0
 10
86.298432
 20
253.291623
 30
0.0
  0
LWPOLYLINE
  5
143
100
AcDbEntity
  8
sit_gravat
 62
7
100
AcDbPolyline
 90
2
 70
0
 10
87.301933
 20
292.480683
 30
0.0
 10
131.834201
 20
220.227573
 30
0.0
  0
LWPOLYLINE
  5
144
100
AcDbEntity
  8
sit_gravat
 62
7
100
AcDbPolyline
 90
2
 70
0
 10
105.564161
 20
303.683700
 30
0.0
 10
142.257217
 20
240.631604
 30
0.0
  0
LWPOLYLINE
  5
145
100
AcDbEntity
  8
sit_gravat
 62
7
100
AcDbPolyline
 90
24
 70
0
 10
400.304612
 20
526.045040
 30
0.0
 10
409.698626
 20
534.667053
 30
0.0
 10
410.165627
 20
535.711055
 30
0.0
 10
446.032681
 20
539.111060
 30
0.0
 10
445.680681
 20
542.618065
 30
0.0
 10
445.333680
 20
546.784071
 30
0.0
 10
444.673679
 20
553.810082
 30
0.0
 10
420.648643
 20
550.781078
 30
0.0
 10
405.163619
 20
548.849075
 30
0.0
 10
399.889611
 20
548.248074
 30
0.0
 10
396.374606
 20
547.847073
 30
0.0
 10
387.614592
 20
546.339071
 30
0.0
 10
386.430590
 20
546.259071
 30
0.0
 10
354.506542
 20
542.762065
 30
0.0
 10
352.309538
 20
546.545071
 30
0.0
 10
344.371526
 20
545.281069
 30
0.0
 10
339.480519
 20
504.750007
 30
0.0
 10
359.249549
 20
488.459982
 30
0.0
 10
370.976567
 20
478.959968
 30
0.0
 10
379.128579
 20
473.073959
 30
0.0
 10
382.405584
 20
470.905956
 30
0.0
 10
387.664592
 20
467.426950
 30
0.0
 10
404.898619
 20
457.412935
 30
0.0
 10
400.304612
 20
526.045040
 30
0.0
  0
LWPOLYLINE
  5
146
100
AcDbEntity
  8
sit_gravat
 62
7
100
AcDbPolyline
 90
16
 70
0
 10
447.638684
 20
523.128035
 30
0.0
 10
446.032681
 20
539.111060
 30
0.0
 10
410.165627
 20
535.711055
 30
0.0
 10
409.698626
 20
534.667053
 30
0.0
 10
400.304612
 20
526.045040
 30
0.0
 10
404.898619
 20
457.412935
 30
0.0
 10
426.439652
 20
446.464918
 30
0.0
 10
434.133663
 20
442.554912
 30
0.0
 10
443.365677
 20
437.863905
 30
0.0
 10
447.328683
 20
446.756919
 30
0.0
 10
449.736687
 20
452.216927
 30
0.0
 10
451.349690
 20
451.899927
 30
0.0
 10
453.418693
 20
460.511940
 30
0.0
 10
453.459693
 20
463.019944
 30
0.0
 10
451.976691
 20
478.329967
 30
0.0
 10
447.638684
 20
523.128035
 30
0.0
  0
LWPOLYLINE
  5
147
100
AcDbEntity
  8
sit_gravat
 62
7
100
AcDbPolyline
 90
13
 70
0
 10
450.308688
 20
15.698260
 30
0.0
 10
452.038691
 20
15.567260
 30
0.0
 10
452.429691
 20
20.735268
 30
0.0
 10
447.650684
 20
21.098268
 30
0.0
 10
447.773684
 20
22.737271
 30
0.0
 10
443.158677
 20
23.079271
 30
0.0
 10
443.006677
 20
21.023268
 30
0.0
 10
441.023674
 20
21.166268
 30
0.0
 10
440.876674
 20
19.211265
 30
0.0
 10
440.673673
 20
16.434261
 30
0.0
 10
440.667673
 20
16.435261
 30
0.0
 10
440.667673
 20
16.433261
 30
0.0
 10
450.308688
 20
15.698260
 30
0.0
  0
LWPOLYLINE
  5
148
100
AcDbEntity
  8
sit_gravat
 62
7
100
AcDbPolyline
 90
5
 70
0
 10
450.420688
 20
13.856257
 30
0.0
 10
450.557688
 20
15.698260
 30
0.0
 10
440.917674
 20
16.433261
 30
0.0
 10
436.429667
 20
16.777262
 30
0.0
 10
436.203666
 20
13.856257
 30
0.0
  0
LWPOLYLINE
  5
149
100
AcDbEntity
  8
sit_gravat
 62
7
100
AcDbPolyline
 90
7
 70
0
 10
434.124663
 20
42.689301
 30
0.0
 10
434.529664
 20
48.205310
 30
0.0
 10
426.503652
 20
48.781311
 30
0.0
 10
426.161651
 20
43.481303
 30
0.0
 10
426.015651
 20
41.387299
 30
0.0
 10
433.998663
 20
40.841299
 30
0.0
 10
434.124663
 20
42.689301
 30
0.0
  0
LWPOLYLINE
  5
14a
100
AcDbEntity
  8
sit_gravat
 62
7
100
AcDbPolyline
 90
6
 70
0
 10
434.532664
 20
32.758286
 30
0.0
 10
439.393671
 20
32.464286
 30
0.0
 10
439.592672
 20
36.195291
 30
0.0
 10
425.688650
 20
37.082293
 30
0.0
 10
425.425650
 20
33.343287
 30
0.0
 10
434.532664
 20
32.758286
 30
0.0
  0
LWPOLYLINE
  5
14b
100
AcDbEntity
  8
sit_gravat
 62
7
100
AcDbPolyline
 90
16
 70
0
 10
439.696672
 20
47.835309
 30
0.0
 10
434.529664
 20
48.205310
 30
0.0
 10
434.124663
 20
42.689301
 30
0.0
 10
435.262665
 20
42.625301
 30
0.0
 10
435.183665
 20
41.529300
 30
0.0
 10
437.499668
 20
41.378299
 30
0.0
 10
437.562668
 20
42.271301
 30
0.0
 10
439.289671
 20
42.150301
 30
0.0
 10
439.696672
 20
47.835309
 30
0.0
 10
439.289671
 20
42.150301
 30
0.0
 10
439.216671
 20
41.082299
 30
0.0
 10
448.610685
 20
40.407298
 30
0.0
 10
448.692686
 20
41.544300
 30
0.0
 10
454.128694
 20
41.079299
 30
0.0
 10
455.029695
 20
46.714307
 30
0.0
 10
439.696672
 20
47.835309
 30
0.0
  0
LWPOLYLINE
  5
14c
100
AcDbEntity
  8
sit_gravat
 62
7
100
AcDbPolyline
 90
5
 70
0
 10
432.153660
 20
72.719347
 30
0.0
 10
439.097671
 20
72.051346
 30
0.0
 10
439.583672
 20
77.292354
 30
0.0
 10
432.644661
 20
77.939355
 30
0.0
 10
432.153660
 20
72.719347
 30
0.0
  0
LWPOLYLINE
  5
14d
100
AcDbEntity
  8
sit_gravat
 62
7
100
AcDbPolyline
 90
6
 70
0
 10
443.254677
 20
100.215389
 30
0.0
 10
442.792676
 20
95.831383
 30
0.0
 10
458.324700
 20
94.208380
 30
0.0
 10
458.689701
 20
97.668385
 30
0.0
 10
458.734701
 20
98.600387
 30
0.0
 10
443.254677
 20
100.215389
 30
0.0
  0
LWPOLYLINE
  5
14e
100
AcDbEntity
  8
sit_gravat
 62
7
100
AcDbPolyline
 90
4
 70
0
 10
359.874550
 20
13.856257
 30
0.0
 10
359.940550
 20
18.977265
 30
0.0
 10
350.382535
 20
19.102265
 30
0.0
 10
350.314535
 20
13.856257
 30
0.0
  0
LWPOLYLINE
  5
14f
100
AcDbEntity
  8
sit_gravat
 62
7
100
AcDbPolyline
 90
2
 70
0
 10
375.468574
 20
25.828276
 30
0.0
 10
375.003573
 20
13.856257
 30
0.0
  0
LWPOLYLINE
  5
150
100
AcDbEntity
  8
sit_gravat
 62
7
100
AcDbPolyline
 90
4
 70
0
 10
393.892602
 20
13.856257
 30
0.0
 10
394.330602
 20
25.119274
 30
0.0
 10
377.958577
 20
25.757275
 30
0.0
 10
375.468574
 20
25.828276
 30
0.0
  0
LWPOLYLINE
  5
151
100
AcDbEntity
  8
sit_gravat
 62
7
100
AcDbPolyline
 90
5
 70
0
 10
442.050675
 20
111.535407
 30
0.0
 10
437.989669
 20
111.944407
 30
0.0
 10
437.607669
 20
108.742402
 30
0.0
 10
441.715675
 20
108.301402
 30
0.0
 10
442.050675
 20
111.535407
 30
0.0
  0
LWPOLYLINE
  5
152
100
AcDbEntity
  8
sit_gravat
 62
7
100
AcDbPolyline
 90
7
 70
0
 10
445.572681
 20
107.814401
 30
0.0
 10
445.911681
 20
111.144406
 30
0.0
 10
442.050675
 20
111.535407
 30
0.0
 10
441.715675
 20
108.301402
 30
0.0
 10
441.666675
 20
107.803401
 30
0.0
 10
445.532681
 20
107.405400
 30
0.0
 10
445.572681
 20
107.814401
 30
0.0
  0
LWPOLYLINE
  5
153
100
AcDbEntity
  8
sit_gravat
 62
7
100
AcDbPolyline
 90
12
 70
0
 10
449.546687
 20
110.758405
 30
0.0
 10
448.942686
 20
110.824405
 30
0.0
 10
446.720682
 20
111.060406
 30
0.0
 10
445.915681
 20
111.143406
 30
0.0
 10
445.572681
 20
107.814401
 30
0.0
 10
445.237680
 20
104.491396
 30
0.0
 10
454.738695
 20
103.534394
 30
0.0
 10
454.895695
 20
105.134397
 30
0.0
 10
459.045701
 20
104.702396
 30
0.0
 10
459.553702
 20
109.742404
 30
0.0
 10
450.687689
 20
110.644405
 30
0.0
 10
449.546687
 20
110.758405
 30
0.0
  0
LWPOLYLINE
  5
154
100
AcDbEntity
  8
sit_gravat
 62
7
100
AcDbPolyline
 90
9
 70
0
 10
437.046668
 20
112.041407
 30
0.0
 10
437.992669
 20
111.979407
 30
0.0
 10
442.050675
 20
111.551407
 30
0.0
 10
445.911681
 20
111.144406
 30
0.0
 10
445.913681
 20
111.163406
 30
0.0
 10
445.915681
 20
111.163406
 30
0.0
 10
446.088682
 20
121.228421
 30
0.0
 10
437.654669
 20
121.515422
 30
0.0
 10
437.046668
 20
112.041407
 30
0.0
  0
LWPOLYLINE
  5
155
100
AcDbEntity
  8
sit_gravat
 62
7
100
AcDbPolyline
 90
8
 70
0
 10
449.546687
 20
110.758405
 30
0.0
 10
450.687689
 20
110.644405
 30
0.0
 10
459.553702
 20
109.742404
 30
0.0
 10
459.880703
 20
115.437412
 30
0.0
 10
446.001681
 20
116.237414
 30
0.0
 10
445.915681
 20
111.163406
 30
0.0
 10
448.942686
 20
110.824405
 30
0.0
 10
449.546687
 20
110.758405
 30
0.0
  0
LWPOLYLINE
  5
156
100
AcDbEntity
  8
sit_gravat
 62
7
100
AcDbPolyline
 90
7
 70
0
 10
450.732689
 20
126.995430
 30
0.0
 10
460.171703
 20
126.034429
 30
0.0
 10
460.864704
 20
132.848439
 30
0.0
 10
454.890695
 20
133.192440
 30
0.0
 10
454.889695
 20
133.184440
 30
0.0
 10
451.383690
 20
133.391440
 30
0.0
 10
450.732689
 20
126.995430
 30
0.0
  0
LWPOLYLINE
  5
157
100
AcDbEntity
  8
sit_gravat
 62
7
100
AcDbPolyline
 90
8
 70
0
 10
460.761704
 20
130.703436
 30
0.0
 10
461.037704
 20
135.320443
 30
0.0
 10
457.098698
 20
135.555443
 30
0.0
 10
452.126691
 20
135.837444
 30
0.0
 10
451.985691
 20
133.535440
 30
0.0
 10
451.855690
 20
131.231437
 30
0.0
 10
453.538693
 20
131.127436
 30
0.0
 10
460.761704
 20
130.703436
 30
0.0
  0
LWPOLYLINE
  5
158
100
AcDbEntity
  8
sit_gravat
 62
7
100
AcDbPolyline
 90
8
 70
0
 10
451.162689
 20
143.062455
 30
0.0
 10
451.150689
 20
141.628452
 30
0.0
 10
456.112697
 20
141.587452
 30
0.0
 10
456.123697
 20
143.123455
 30
0.0
 10
460.410703
 20
143.083455
 30
0.0
 10
460.462703
 20
147.703462
 30
0.0
 10
451.213689
 20
147.804462
 30
0.0
 10
451.162689
 20
143.062455
 30
0.0
  0
LWPOLYLINE
  5
159
100
AcDbEntity
  8
sit_gravat
 62
7
100
AcDbPolyline
 90
7
 70
0
 10
440.579673
 20
143.165455
 30
0.0
 10
451.162689
 20
143.062455
 30
0.0
 10
451.213689
 20
147.804462
 30
0.0
 10
448.204685
 20
147.839462
 30
0.0
 10
446.299682
 20
147.859462
 30
0.0
 10
440.637673
 20
147.920462
 30
0.0
 10
440.579673
 20
143.165455
 30
0.0
  0
LWPOLYLINE
  5
15a
100
AcDbEntity
  8
sit_gravat
 62
7
100
AcDbPolyline
 90
8
 70
0
 10
435.287665
 20
152.173469
 30
0.0
 10
435.232665
 20
147.981462
 30
0.0
 10
435.878666
 20
147.976462
 30
0.0
 10
436.533667
 20
147.967462
 30
0.0
 10
439.629672
 20
147.936462
 30
0.0
 10
445.402680
 20
147.876462
 30
0.0
 10
445.459681
 20
152.057468
 30
0.0
 10
435.287665
 20
152.173469
 30
0.0
  0
LWPOLYLINE
  5
15b
100
AcDbEntity
  8
sit_gravat
 62
7
100
AcDbPolyline
 90
7
 70
0
 10
460.336703
 20
157.157476
 30
0.0
 10
460.072703
 20
163.531486
 30
0.0
 10
456.022697
 20
163.368486
 30
0.0
 10
449.365687
 20
163.102485
 30
0.0
 10
449.550687
 20
158.526478
 30
0.0
 10
449.622687
 20
156.695476
 30
0.0
 10
460.336703
 20
157.157476
 30
0.0
  0
LWPOLYLINE
  5
15c
100
AcDbEntity
  8
sit_gravat
 62
7
100
AcDbPolyline
 90
7
 70
0
 10
457.689699
 20
147.735462
 30
0.0
 10
460.462703
 20
147.703462
 30
0.0
 10
460.491704
 20
150.516466
 30
0.0
 10
445.451681
 20
150.683466
 30
0.0
 10
445.431681
 20
147.871462
 30
0.0
 10
448.440685
 20
147.836462
 30
0.0
 10
457.689699
 20
147.735462
 30
0.0
  0
LWPOLYLINE
  5
15d
100
AcDbEntity
  8
sit_gravat
 62
7
100
AcDbPolyline
 90
8
 70
0
 10
447.219683
 20
163.010485
 30
0.0
 10
449.365687
 20
163.102485
 30
0.0
 10
449.228686
 20
166.539491
 30
0.0
 10
439.714672
 20
166.156490
 30
0.0
 10
439.851672
 20
162.707485
 30
0.0
 10
440.804673
 20
162.746485
 30
0.0
 10
443.391677
 20
162.855485
 30
0.0
 10
447.219683
 20
163.010485
 30
0.0
  0
LWPOLYLINE
  5
15e
100
AcDbEntity
  8
sit_gravat
 62
7
100
AcDbPolyline
 90
5
 70
0
 10
455.873696
 20
166.824491
 30
0.0
 10
449.228686
 20
166.539491
 30
0.0
 10
449.365687
 20
163.102485
 30
0.0
 10
456.022697
 20
163.368486
 30
0.0
 10
455.873696
 20
166.824491
 30
0.0
  0
LWPOLYLINE
  5
15f
100
AcDbEntity
  8
sit_gravat
 62
7
100
AcDbPolyline
 90
5
 70
0
 10
460.072703
 20
163.531486
 30
0.0
 10
459.929703
 20
166.999491
 30
0.0
 10
455.873696
 20
166.824491
 30
0.0
 10
456.022697
 20
163.368486
 30
0.0
 10
460.072703
 20
163.531486
 30
0.0
  0
LWPOLYLINE
  5
160
100
AcDbEntity
  8
sit_gravat
 62
7
100
AcDbPolyline
 90
10
 70
0
 10
447.514684
 20
171.926499
 30
0.0
 10
455.372696
 20
172.650500
 30
0.0
 10
455.252696
 20
174.055502
 30
0.0
 10
460.105703
 20
174.494503
 30
0.0
 10
459.632702
 20
179.525510
 30
0.0
 10
459.214702
 20
179.484510
 30
0.0
 10
450.209688
 20
178.638509
 30
0.0
 10
448.726686
 20
178.497509
 30
0.0
 10
446.916683
 20
178.324509
 30
0.0
 10
447.514684
 20
171.926499
 30
0.0
  0
LWPOLYLINE
  5
161
100
AcDbEntity
  8
sit_gravat
 62
7
100
AcDbPolyline
 90
9
 70
0
 10
447.400684
 20
173.151501
 30
0.0
 10
446.916683
 20
178.324509
 30
0.0
 10
443.457678
 20
177.996508
 30
0.0
 10
442.052675
 20
177.874508
 30
0.0
 10
438.953671
 20
177.585507
 30
0.0
 10
438.605670
 20
177.554507
 30
0.0
 10
436.351667
 20
177.338507
 30
0.0
 10
436.845667
 20
172.145499
 30
0.0
 10
447.400684
 20
173.151501
 30
0.0
  0
LWPOLYLINE
  5
162
100
AcDbEntity
  8
sit_gravat
 62
7
100
AcDbPolyline
 90
5
 70
0
 10
434.298664
 20
173.635501
 30
0.0
 10
436.638667
 20
173.859502
 30
0.0
 10
436.305667
 20
177.335507
 30
0.0
 10
433.935663
 20
177.016507
 30
0.0
 10
434.298664
 20
173.635501
 30
0.0
  0
LWPOLYLINE
  5
163
100
AcDbEntity
  8
sit_gravat
 62
7
100
AcDbPolyline
 90
8
 70
0
 10
436.348667
 20
177.382507
 30
0.0
 10
442.052675
 20
177.874508
 30
0.0
 10
443.457678
 20
177.996508
 30
0.0
 10
443.158677
 20
181.192513
 30
0.0
 10
434.445664
 20
180.365512
 30
0.0
 10
434.741664
 20
177.194507
 30
0.0
 10
436.350667
 20
177.344507
 30
0.0
 10
436.348667
 20
177.382507
 30
0.0
  0
LWPOLYLINE
  5
164
100
AcDbEntity
  8
sit_gravat
 62
7
100
AcDbPolyline
 90
10
 70
0
 10
443.457678
 20
177.996508
 30
0.0
 10
446.916683
 20
178.324509
 30
0.0
 10
448.726686
 20
178.497509
 30
0.0
 10
450.209688
 20
178.638509
 30
0.0
 10
449.695687
 20
184.096517
 30
0.0
 10
446.201682
 20
183.759517
 30
0.0
 10
446.301682
 20
182.593515
 30
0.0
 10
443.057677
 20
182.277515
 30
0.0
 10
443.158677
 20
181.192513
 30
0.0
 10
443.457678
 20
177.996508
 30
0.0
  0
LWPOLYLINE
  5
165
100
AcDbEntity
  8
sit_gravat
 62
7
100
AcDbPolyline
 90
8
 70
0
 10
450.209688
 20
178.638509
 30
0.0
 10
459.214702
 20
179.484510
 30
0.0
 10
458.848701
 20
183.289516
 30
0.0
 10
454.679695
 20
182.890516
 30
0.0
 10
454.519694
 20
184.844519
 30
0.0
 10
449.666687
 20
184.405518
 30
0.0
 10
449.695687
 20
184.096517
 30
0.0
 10
450.209688
 20
178.638509
 30
0.0
  0
LWPOLYLINE
  5
166
100
AcDbEntity
  8
sit_gravat
 62
7
100
AcDbPolyline
 90
9
 70
0
 10
451.065689
 20
189.220525
 30
0.0
 10
450.173688
 20
194.120533
 30
0.0
 10
450.087688
 20
194.590533
 30
0.0
 10
444.458679
 20
193.553532
 30
0.0
 10
443.354677
 20
193.361532
 30
0.0
 10
442.000675
 20
193.114531
 30
0.0
 10
442.064675
 20
192.779531
 30
0.0
 10
442.966677
 20
187.760523
 30
0.0
 10
451.065689
 20
189.220525
 30
0.0
  0
LWPOLYLINE
  5
167
100
AcDbEntity
  8
sit_gravat
 62
7
100
AcDbPolyline
 90
6
 70
0
 10
426.575652
 20
190.322527
 30
0.0
 10
450.087688
 20
194.590533
 30
0.0
 10
449.790687
 20
196.137536
 30
0.0
 10
448.500685
 20
202.931546
 30
0.0
 10
425.073649
 20
198.482539
 30
0.0
 10
426.575652
 20
190.322527
 30
0.0
  0
LWPOLYLINE
  5
168
100
AcDbEntity
  8
sit_gravat
 62
7
100
AcDbPolyline
 90
5
 70
0
 10
340.228520
 20
169.666495
 30
0.0
 10
362.839554
 20
176.780506
 30
0.0
 10
361.065552
 20
182.414515
 30
0.0
 10
338.456517
 20
175.300504
 30
0.0
 10
340.228520
 20
169.666495
 30
0.0
  0
LWPOLYLINE
  5
169
100
AcDbEntity
  8
sit_gravat
 62
7
100
AcDbPolyline
 90
7
 70
0
 10
48.097873
 20
145.885459
 30
0.0
 10
45.519670
 20
151.009467
 30
0.0
 10
41.619764
 20
148.651463
 30
0.0
 10
41.039763
 20
148.300463
 30
0.0
 10
39.265260
 20
147.229461
 30
0.0
 10
42.219365
 20
142.335454
 30
0.0
 10
48.097873
 20
145.885459
 30
0.0
  0
LWPOLYLINE
  5
16a
100
AcDbEntity
  8
sit_gravat
 62
7
100
AcDbPolyline
 90
7
 70
0
 10
70.265407
 20
121.964422
 30
0.0
 10
73.623212
 20
116.321414
 30
0.0
 10
75.618416
 20
117.471416
 30
0.0
 10
74.637214
 20
119.164418
 30
0.0
 10
79.884322
 20
122.222423
 30
0.0
 10
77.552218
 20
126.228429
 30
0.0
 10
70.265407
 20
121.964422
 30
0.0
  0
LWPOLYLINE
  5
16b
100
AcDbEntity
  8
sit_gravat
 62
7
100
AcDbPolyline
 90
11
 70
0
 10
444.958680
 20
213.898563
 30
0.0
 10
448.426685
 20
214.368564
 30
0.0
 10
448.559685
 20
213.379562
 30
0.0
 10
450.542688
 20
213.649563
 30
0.0
 10
450.406688
 20
214.638564
 30
0.0
 10
454.369694
 20
215.177565
 30
0.0
 10
453.830693
 20
219.141571
 30
0.0
 10
454.325694
 20
219.208571
 30
0.0
 10
453.551693
 20
224.916580
 30
0.0
 10
443.623678
 20
223.697578
 30
0.0
 10
444.958680
 20
213.898563
 30
0.0
  0
LWPOLYLINE
  5
16c
100
AcDbEntity
  8
sit_gravat
 62
7
100
AcDbPolyline
 90
5
 70
0
 10
454.356694
 20
248.453616
 30
0.0
 10
454.369694
 20
257.758630
 30
0.0
 10
440.190673
 20
257.825630
 30
0.0
 10
440.192673
 20
248.546616
 30
0.0
 10
454.356694
 20
248.453616
 30
0.0
  0
LWPOLYLINE
  5
16d
100
AcDbEntity
  8
sit_gravat
 62
7
100
AcDbPolyline
 90
3
 70
0
 10
19.164629
 20
13.856257
 30
0.0
 10
19.144029
 20
17.459263
 30
0.0
 10
14.109422
 20
17.489263
 30
0.0
  0
LWPOLYLINE
  5
16e
100
AcDbEntity
  8
sit_gravat
 62
7
100
AcDbPolyline
 90
4
 70
0
 10
25.422539
 20
13.856257
 30
0.0
 10
25.232639
 20
20.153267
 30
0.0
 10
19.128329
 20
19.944267
 30
0.0
 10
19.163829
 20
13.856257
 30
0.0
  0
LWPOLYLINE
  5
16f
100
AcDbEntity
  8
sit_gravat
 62
7
100
AcDbPolyline
 90
6
 70
0
 10
31.959349
 20
67.415339
 30
0.0
 10
35.966355
 20
56.330322
 30
0.0
 10
37.536957
 20
56.898323
 30
0.0
 10
41.752864
 20
58.424325
 30
0.0
 10
37.737758
 20
69.510342
 30
0.0
 10
31.959349
 20
67.415339
 30
0.0
  0
LWPOLYLINE
  5
170
100
AcDbEntity
  8
sit_gravat
 62
7
100
AcDbPolyline
 90
5
 70
0
 10
56.822787
 20
13.856257
 30
0.0
 10
55.712485
 20
17.140262
 30
0.0
 10
54.572683
 20
16.757262
 30
0.0
 10
48.948575
 20
14.876259
 30
0.0
 10
49.289375
 20
13.856257
 30
0.0
  0
LWPOLYLINE
  5
171
100
AcDbEntity
  8
sit_gravat
 62
7
100
AcDbPolyline
 90
2
 70
0
 10
53.804682
 20
29.966282
 30
0.0
 10
58.739390
 20
13.856257
 30
0.0
  0
LWPOLYLINE
  5
172
100
AcDbEntity
  8
sit_gravat
 62
7
100
AcDbPolyline
 90
4
 70
0
 10
70.661208
 20
13.856257
 30
0.0
 10
65.916901
 20
28.479280
 30
0.0
 10
64.380598
 20
33.207287
 30
0.0
 10
53.804682
 20
29.966282
 30
0.0
  0
LWPOLYLINE
  5
173
100
AcDbEntity
  8
sit_gravat
 62
7
100
AcDbPolyline
 90
9
 70
0
 10
52.095880
 20
35.193290
 30
0.0
 10
74.392414
 20
42.482301
 30
0.0
 10
70.454708
 20
55.218320
 30
0.0
 10
62.148495
 20
52.554316
 30
0.0
 10
61.660594
 20
53.262317
 30
0.0
 10
53.390082
 20
50.489313
 30
0.0
 10
53.667882
 20
49.658312
 30
0.0
 10
47.420872
 20
47.563309
 30
0.0
 10
52.095880
 20
35.193290
 30
0.0
  0
LWPOLYLINE
  5
174
100
AcDbEntity
  8
sit_gravat
 62
7
100
AcDbPolyline
 90
4
 70
0
 10
46.003270
 20
13.856257
 30
0.0
 10
45.044869
 20
20.433267
 30
0.0
 10
39.207360
 20
19.721266
 30
0.0
 10
40.031261
 20
13.856257
 30
0.0
  0
LWPOLYLINE
  5
175
100
AcDbEntity
  8
sit_gravat
 62
7
100
AcDbPolyline
 90
7
 70
0
 10
47.744373
 20
81.289360
 30
0.0
 10
50.063176
 20
74.338350
 30
0.0
 10
58.536889
 20
77.147354
 30
0.0
 10
64.425298
 20
59.585327
 30
0.0
 10
70.282007
 20
61.402330
 30
0.0
 10
61.558894
 20
89.521373
 30
0.0
 10
47.744373
 20
81.289360
 30
0.0
  0
LWPOLYLINE
  5
176
100
AcDbEntity
  8
sit_gravat
 62
7
100
AcDbPolyline
 90
7
 70
0
 10
432.615661
 20
29.156281
 30
0.0
 10
452.974692
 20
27.902279
 30
0.0
 10
453.205692
 20
31.557284
 30
0.0
 10
426.155651
 20
33.284287
 30
0.0
 10
424.955649
 20
17.637263
 30
0.0
 10
431.678660
 20
17.119262
 30
0.0
 10
432.615661
 20
29.156281
 30
0.0
  0
LWPOLYLINE
  5
177
100
AcDbEntity
  8
sit_gravat
 62
7
100
AcDbPolyline
 90
7
 70
0
 10
439.585672
 20
77.294354
 30
0.0
 10
438.943671
 20
70.457344
 30
0.0
 10
452.808692
 20
69.077342
 30
0.0
 10
453.218692
 20
70.550344
 30
0.0
 10
457.238699
 20
70.161343
 30
0.0
 10
457.745699
 20
75.589352
 30
0.0
 10
439.585672
 20
77.294354
 30
0.0
  0
LWPOLYLINE
  5
178
100
AcDbEntity
  8
sit_gravat
 62
7
100
AcDbPolyline
 90
5
 70
0
 10
435.232665
 20
147.981462
 30
0.0
 10
435.171665
 20
143.288455
 30
0.0
 10
440.574673
 20
143.231455
 30
0.0
 10
440.637673
 20
147.920462
 30
0.0
 10
435.232665
 20
147.981462
 30
0.0
  0
LWPOLYLINE
  5
179
100
AcDbEntity
  8
sit_gravat
 62
7
100
AcDbPolyline
 90
5
 70
0
 10
440.374673
 20
136.512445
 30
0.0
 10
440.108672
 20
131.912438
 30
0.0
 10
451.844690
 20
131.225437
 30
0.0
 10
452.126691
 20
135.837444
 30
0.0
 10
440.374673
 20
136.512445
 30
0.0
  0
LWPOLYLINE
  5
17a
100
AcDbEntity
  8
sit_gravat
 62
7
100
AcDbPolyline
 90
8
 70
0
 10
452.934692
 20
31.576284
 30
0.0
 10
453.161692
 20
35.048290
 30
0.0
 10
449.454687
 20
35.290290
 30
0.0
 10
449.573687
 20
37.139293
 30
0.0
 10
439.692672
 20
37.786294
 30
0.0
 10
439.592672
 20
36.195291
 30
0.0
 10
439.393671
 20
32.464286
 30
0.0
 10
452.934692
 20
31.576284
 30
0.0
  0
LWPOLYLINE
  5
17b
100
AcDbEntity
  8
sit_gravat
 62
7
100
AcDbPolyline
 90
2
 70
0
 10
14.916923
 20
205.986551
 30
0.0
 10
14.109422
 20
207.305553
 30
0.0
  0
LWPOLYLINE
  5
17c
100
AcDbEntity
  8
sit_gravat
 62
7
100
AcDbPolyline
 90
3
 70
0
 10
14.109422
 20
200.207542
 30
0.0
 10
17.282826
 20
202.117545
 30
0.0
 10
14.916923
 20
205.986551
 30
0.0
  0
LWPOLYLINE
  5
17d
100
AcDbEntity
  8
sit_gravat
 62
7
100
AcDbPolyline
 90
10
 70
0
 10
72.043310
 20
55.697321
 30
0.0
 10
75.392615
 20
45.177305
 30
0.0
 10
83.444727
 20
47.923309
 30
0.0
 10
88.969436
 20
49.812312
 30
0.0
 10
85.325130
 20
59.667327
 30
0.0
 10
80.667323
 20
57.947325
 30
0.0
 10
78.533020
 20
63.717333
 30
0.0
 10
75.175515
 20
62.874332
 30
0.0
 10
70.282007
 20
61.402330
 30
0.0
 10
72.043310
 20
55.697321
 30
0.0
  0
LWPOLYLINE
  5
17e
100
AcDbEntity
  8
sit_gravat
 62
7
100
AcDbPolyline
 90
7
 70
0
 10
70.282007
 20
61.402330
 30
0.0
 10
75.175515
 20
62.874332
 30
0.0
 10
71.039609
 20
76.053352
 30
0.0
 10
72.123510
 20
76.394353
 30
0.0
 10
66.991402
 20
92.746378
 30
0.0
 10
61.558894
 20
89.521373
 30
0.0
 10
70.282007
 20
61.402330
 30
0.0
  0
LWPOLYLINE
  5
17f
100
AcDbEntity
  8
sit_gravat
 62
7
100
AcDbPolyline
 90
3
 70
0
 10
170.189260
 20
14.917259
 30
0.0
 10
151.816232
 20
14.079258
 30
0.0
 10
151.826232
 20
13.856257
 30
0.0
  0
LWPOLYLINE
  5
180
100
AcDbEntity
  8
sit_gravat
 62
7
100
AcDbPolyline
 90
2
 70
0
 10
170.237260
 20
13.856257
 30
0.0
 10
170.189260
 20
14.917259
 30
0.0
  0
LWPOLYLINE
  5
181
100
AcDbEntity
  8
sit_gravat
 62
7
100
AcDbPolyline
 90
8
 70
0
 10
15.134423
 20
86.263368
 30
0.0
 10
17.659827
 20
82.105362
 30
0.0
 10
18.897429
 20
82.873363
 30
0.0
 10
22.827435
 20
85.305366
 30
0.0
 10
17.441227
 20
94.576381
 30
0.0
 10
17.338826
 20
94.744381
 30
0.0
 10
14.526422
 20
93.034378
 30
0.0
 10
14.109422
 20
92.779378
 30
0.0
  0
LWPOLYLINE
  5
182
100
AcDbEntity
  8
sit_gravat
 62
7
100
AcDbPolyline
 90
2
 70
0
 10
14.109422
 20
87.949370
 30
0.0
 10
15.134423
 20
86.263368
 30
0.0
  0
LWPOLYLINE
  5
183
100
AcDbEntity
  8
sit_gravat
 62
7
100
AcDbPolyline
 90
11
 70
0
 10
16.712526
 20
95.788382
 30
0.0
 10
17.342626
 20
94.747381
 30
0.0
 10
22.827435
 20
85.305366
 30
0.0
 10
28.577144
 20
88.648372
 30
0.0
 10
26.233740
 20
92.514377
 30
0.0
 10
23.458436
 20
97.091384
 30
0.0
 10
25.870640
 20
98.555387
 30
0.0
 10
21.799833
 20
105.263397
 30
0.0
 10
19.389630
 20
103.799395
 30
0.0
 10
15.759824
 20
109.786404
 30
0.0
 10
14.109422
 20
108.780402
 30
0.0
  0
LWPOLYLINE
  5
184
100
AcDbEntity
  8
sit_gravat
 62
7
100
AcDbPolyline
 90
3
 70
0
 10
14.109422
 20
100.076389
 30
0.0
 10
15.045723
 20
98.534387
 30
0.0
 10
16.712526
 20
95.788382
 30
0.0
  0
LWPOLYLINE
  5
185
100
AcDbEntity
  8
sit_gravat
 62
7
100
AcDbPolyline
 90
5
 70
0
 10
60.428892
 20
108.478402
 30
0.0
 10
73.623212
 20
116.321414
 30
0.0
 10
70.265407
 20
121.964422
 30
0.0
 10
57.024687
 20
114.218411
 30
0.0
 10
60.428892
 20
108.478402
 30
0.0
  0
LWPOLYLINE
  5
186
100
AcDbEntity
  8
sit_gravat
 62
7
100
AcDbPolyline
 90
5
 70
0
 10
27.984643
 20
208.663555
 30
0.0
 10
25.616539
 20
212.534561
 30
0.0
 10
14.916923
 20
205.986551
 30
0.0
 10
17.282826
 20
202.117545
 30
0.0
 10
27.984643
 20
208.663555
 30
0.0
  0
LWPOLYLINE
  5
187
100
AcDbEntity
  8
sit_gravat
 62
7
100
AcDbPolyline
 90
7
 70
0
 10
77.964019
 20
131.509437
 30
0.0
 10
74.483414
 20
137.192446
 30
0.0
 10
72.049310
 20
135.743443
 30
0.0
 10
59.641091
 20
128.319432
 30
0.0
 10
56.351186
 20
126.353429
 30
0.0
 10
59.660791
 20
120.539420
 30
0.0
 10
75.376015
 20
129.958435
 30
0.0
  0
LWPOLYLINE
  5
188
100
AcDbEntity
  8
sit_gravat
 62
7
100
AcDbPolyline
 90
5
 70
0
 10
56.351186
 20
126.353429
 30
0.0
 10
48.615274
 20
121.718422
 30
0.0
 10
52.053380
 20
115.982413
 30
0.0
 10
59.660791
 20
120.539420
 30
0.0
 10
56.351186
 20
126.353429
 30
0.0
  0
LWPOLYLINE
  5
189
100
AcDbEntity
  8
sit_gravat
 62
7
100
AcDbPolyline
 90
7
 70
0
 10
29.867546
 20
190.623527
 30
0.0
 10
37.160157
 20
195.171534
 30
0.0
 10
34.228752
 20
199.872541
 30
0.0
 10
30.141846
 20
197.326538
 30
0.0
 10
29.214645
 20
198.814540
 30
0.0
 10
26.248340
 20
196.850537
 30
0.0
 10
29.867546
 20
190.623527
 30
0.0
  0
LWPOLYLINE
  5
18a
100
AcDbEntity
  8
sit_gravat
 62
7
100
AcDbPolyline
 90
5
 70
0
 10
23.876036
 20
195.785535
 30
0.0
 10
23.191935
 20
197.049537
 30
0.0
 10
25.788039
 20
198.638540
 30
0.0
 10
22.759235
 20
203.592547
 30
0.0
 10
14.109422
 20
198.301539
 30
0.0
  0
LWPOLYLINE
  5
18b
100
AcDbEntity
  8
sit_gravat
 62
7
100
AcDbPolyline
 90
2
 70
0
 10
14.109422
 20
189.809526
 30
0.0
 10
23.876036
 20
195.785535
 30
0.0
  0
LWPOLYLINE
  5
18c
100
AcDbEntity
  8
sit_gravat
 62
7
100
AcDbPolyline
 90
8
 70
0
 10
29.867546
 20
190.623527
 30
0.0
 10
28.232443
 20
189.604526
 30
0.0
 10
32.435650
 20
182.862515
 30
0.0
 10
37.001357
 20
185.709520
 30
0.0
 10
36.186055
 20
187.015522
 30
0.0
 10
40.547862
 20
189.738526
 30
0.0
 10
37.160157
 20
195.171534
 30
0.0
 10
29.867546
 20
190.623527
 30
0.0
  0
LWPOLYLINE
  5
18d
100
AcDbEntity
  8
sit_gravat
 62
7
100
AcDbPolyline
 90
6
 70
0
 10
32.435650
 20
182.862515
 30
0.0
 10
28.232443
 20
189.604526
 30
0.0
 10
26.220240
 20
188.349524
 30
0.0
 10
22.319834
 20
185.978520
 30
0.0
 10
26.209640
 20
178.837509
 30
0.0
 10
32.435650
 20
182.862515
 30
0.0
  0
LWPOLYLINE
  5
18e
100
AcDbEntity
  8
sit_gravat
 62
7
100
AcDbPolyline
 90
7
 70
0
 10
49.333475
 20
175.037504
 30
0.0
 10
45.472469
 20
181.230513
 30
0.0
 10
42.045464
 20
179.096510
 30
0.0
 10
38.320859
 20
176.774506
 30
0.0
 10
21.979834
 20
166.585491
 30
0.0
 10
25.841039
 20
160.389481
 30
0.0
 10
49.333475
 20
175.037504
 30
0.0
  0
LWPOLYLINE
  5
18f
100
AcDbEntity
  8
sit_gravat
 62
7
100
AcDbPolyline
 90
6
 70
0
 10
53.496482
 20
166.277490
 30
0.0
 10
53.785482
 20
166.453490
 30
0.0
 10
51.737079
 20
169.740495
 30
0.0
 10
37.720658
 20
161.233482
 30
0.0
 10
39.574560
 20
157.826477
 30
0.0
 10
53.496482
 20
166.277490
 30
0.0
  0
LWPOLYLINE
  5
190
100
AcDbEntity
  8
sit_gravat
 62
7
100
AcDbPolyline
 90
9
 70
0
 10
39.211360
 20
157.592477
 30
0.0
 10
41.997164
 20
153.012470
 30
0.0
 10
47.217872
 20
156.186475
 30
0.0
 10
48.296574
 20
154.408472
 30
0.0
 10
58.246789
 20
160.458481
 30
0.0
 10
54.380283
 20
166.816491
 30
0.0
 10
53.785482
 20
166.453490
 30
0.0
 10
53.496482
 20
166.277490
 30
0.0
 10
39.211360
 20
157.592477
 30
0.0
  0
LWPOLYLINE
  5
191
100
AcDbEntity
  8
sit_gravat
 62
7
100
AcDbPolyline
 90
7
 70
0
 10
33.950152
 20
143.961456
 30
0.0
 10
41.084363
 20
132.125438
 30
0.0
 10
46.534671
 20
135.579443
 30
0.0
 10
42.291065
 20
142.379454
 30
0.0
 10
42.219365
 20
142.335454
 30
0.0
 10
39.265260
 20
147.229461
 30
0.0
 10
33.950152
 20
143.961456
 30
0.0
  0
LWPOLYLINE
  5
192
100
AcDbEntity
  8
sit_gravat
 62
7
100
AcDbPolyline
 90
7
 70
0
 10
49.520076
 20
137.346446
 30
0.0
 10
49.611676
 20
137.185446
 30
0.0
 10
51.152778
 20
134.579442
 30
0.0
 10
51.310178
 20
134.311441
 30
0.0
 10
67.082802
 20
143.589455
 30
0.0
 10
65.291500
 20
146.616460
 30
0.0
 10
49.520076
 20
137.346446
 30
0.0
  0
LWPOLYLINE
  5
193
100
AcDbEntity
  8
sit_gravat
 62
7
100
AcDbPolyline
 90
8
 70
0
 10
63.319097
 20
152.244469
 30
0.0
 10
59.102290
 20
159.264479
 30
0.0
 10
48.617474
 20
152.890470
 30
0.0
 10
48.443374
 20
152.769470
 30
0.0
 10
45.519670
 20
151.009467
 30
0.0
 10
48.097873
 20
145.885459
 30
0.0
 10
49.197775
 20
143.702456
 30
0.0
 10
63.319097
 20
152.244469
 30
0.0
  0
LWPOLYLINE
  5
194
100
AcDbEntity
  8
sit_gravat
 62
7
100
AcDbPolyline
 90
7
 70
0
 10
311.359476
 20
168.782494
 30
0.0
 10
320.494490
 20
140.443451
 30
0.0
 10
337.422516
 20
145.901459
 30
0.0
 10
328.801502
 20
172.627500
 30
0.0
 10
324.391496
 20
171.205498
 30
0.0
 10
324.051495
 20
172.263499
 30
0.0
 10
311.359476
 20
168.782494
 30
0.0
  0
LWPOLYLINE
  5
195
100
AcDbEntity
  8
sit_gravat
 62
7
100
AcDbPolyline
 90
5
 70
0
 10
282.618432
 20
144.682457
 30
0.0
 10
301.618461
 20
150.008465
 30
0.0
 10
296.670453
 20
167.665492
 30
0.0
 10
277.668424
 20
162.339484
 30
0.0
 10
282.618432
 20
144.682457
 30
0.0
  0
LWPOLYLINE
  5
196
100
AcDbEntity
  8
sit_gravat
 62
7
100
AcDbPolyline
 90
9
 70
0
 10
319.006487
 20
93.106378
 30
0.0
 10
316.233483
 20
102.117392
 30
0.0
 10
322.606493
 20
104.080395
 30
0.0
 10
307.734470
 20
152.411469
 30
0.0
 10
301.441461
 20
150.647466
 30
0.0
 10
301.618461
 20
150.008465
 30
0.0
 10
282.618432
 20
144.682457
 30
0.0
 10
300.264459
 20
87.339370
 30
0.0
 10
319.006487
 20
93.106378
 30
0.0
  0
LWPOLYLINE
  5
197
100
AcDbEntity
  8
sit_gravat
 62
7
100
AcDbPolyline
 90
5
 70
0
 10
364.517557
 20
77.015354
 30
0.0
 10
361.152552
 20
89.319373
 30
0.0
 10
331.522506
 20
81.205360
 30
0.0
 10
335.029512
 20
68.956341
 30
0.0
 10
364.517557
 20
77.015354
 30
0.0
  0
LWPOLYLINE
  5
198
100
AcDbEntity
  8
sit_gravat
 62
7
100
AcDbPolyline
 90
19
 70
0
 10
351.829538
 20
66.087337
 30
0.0
 10
351.380537
 20
67.561339
 30
0.0
 10
350.449535
 20
68.797341
 30
0.0
 10
349.157533
 20
69.639343
 30
0.0
 10
347.654531
 20
69.985343
 30
0.0
 10
346.121529
 20
69.800343
 30
0.0
 10
344.745527
 20
69.100342
 30
0.0
 10
343.691525
 20
67.972340
 30
0.0
 10
343.088524
 20
66.550338
 30
0.0
 10
343.005524
 20
65.010335
 30
0.0
 10
343.455525
 20
63.531333
 30
0.0
 10
344.383526
 20
62.299331
 30
0.0
 10
345.678528
 20
61.456330
 30
0.0
 10
347.181530
 20
61.109329
 30
0.0
 10
348.714533
 20
61.295330
 30
0.0
 10
350.089535
 20
61.995331
 30
0.0
 10
351.143536
 20
63.123333
 30
0.0
 10
351.748537
 20
64.545335
 30
0.0
 10
351.829538
 20
66.087337
 30
0.0
  0
LWPOLYLINE
  5
199
100
AcDbEntity
  8
sit_gravat
 62
7
100
AcDbPolyline
 90
5
 70
0
 10
379.414580
 20
76.682353
 30
0.0
 10
377.958577
 20
25.757275
 30
0.0
 10
394.330602
 20
25.119274
 30
0.0
 10
396.319605
 20
76.199353
 30
0.0
 10
379.414580
 20
76.682353
 30
0.0
  0
LWPOLYLINE
  5
19a
100
AcDbEntity
  8
sit_gravat
 62
7
100
AcDbPolyline
 90
2
 70
0
 10
51.077078
 20
174.756503
 30
0.0
 10
30.319046
 20
161.815483
 30
0.0
  0
LWPOLYLINE
  5
19b
100
AcDbEntity
  8
sit_gravat
 62
7
100
AcDbPolyline
 90
2
 70
0
 10
125.345191
 20
168.568494
 30
0.0
 10
120.958185
 20
176.049505
 30
0.0
  0
LWPOLYLINE
  5
19c
100
AcDbEntity
  8
sit_gravat
 62
7
100
AcDbPolyline
 90
2
 70
0
 10
111.002170
 20
159.638480
 30
0.0
 10
120.864185
 20
165.837489
 30
0.0
  0
LWPOLYLINE
  5
19d
100
AcDbEntity
  8
sit_gravat
 62
7
100
AcDbPolyline
 90
2
 70
0
 10
104.124159
 20
155.332473
 30
0.0
 10
104.242159
 20
155.427474
 30
0.0
  0
LWPOLYLINE
  5
19e
100
AcDbEntity
  8
sit_gravat
 62
7
100
AcDbPolyline
 90
2
 70
0
 10
98.677551
 20
151.916468
 30
0.0
 10
100.566154
 20
153.104470
 30
0.0
  0
LWPOLYLINE
  5
19f
100
AcDbEntity
  8
sit_gravat
 62
7
100
AcDbPolyline
 90
2
 70
0
 10
87.644234
 20
144.991458
 30
0.0
 10
97.863250
 20
151.405467
 30
0.0
  0
LWPOLYLINE
  5
1a0
100
AcDbEntity
  8
sit_gravat
 62
7
100
AcDbPolyline
 90
2
 70
0
 10
82.398426
 20
144.069456
 30
0.0
 10
92.786642
 20
127.316431
 30
0.0
  0
LWPOLYLINE
  5
1a1
100
AcDbEntity
  8
sit_gravat
 62
7
100
AcDbPolyline
 90
2
 70
0
 10
81.707225
 20
152.958470
 30
0.0
 10
78.279620
 20
150.812467
 30
0.0
  0
LWPOLYLINE
  5
1a2
100
AcDbEntity
  8
sit_gravat
 62
7
100
AcDbPolyline
 90
2
 70
0
 10
90.428038
 20
158.428478
 30
0.0
 10
83.428527
 20
154.036471
 30
0.0
  0
LWPOLYLINE
  5
1a3
100
AcDbEntity
  8
sit_gravat
 62
7
100
AcDbPolyline
 90
2
 70
0
 10
102.905157
 20
166.316490
 30
0.0
 10
92.300141
 20
159.601480
 30
0.0
  0
LWPOLYLINE
  5
1a4
100
AcDbEntity
  8
sit_gravat
 62
7
100
AcDbPolyline
 90
2
 70
0
 10
119.696183
 20
175.309504
 30
0.0
 10
104.440160
 20
165.412489
 30
0.0
  0
LWPOLYLINE
  5
1a5
100
AcDbEntity
  8
sit_gravat
 62
7
100
AcDbPolyline
 90
2
 70
0
 10
133.457204
 20
150.811467
 30
0.0
 10
135.307207
 20
151.907468
 30
0.0
  0
LWPOLYLINE
  5
1a6
100
AcDbEntity
  8
sit_gravat
 62
7
100
AcDbPolyline
 90
2
 70
0
 10
126.626193
 20
146.693460
 30
0.0
 10
131.441201
 20
149.578465
 30
0.0
  0
LWPOLYLINE
  5
1a7
100
AcDbEntity
  8
sit_gravat
 62
7
100
AcDbPolyline
 90
2
 70
0
 10
114.684175
 20
153.739471
 30
0.0
 10
121.209185
 20
143.490455
 30
0.0
  0
LWPOLYLINE
  5
1a8
100
AcDbEntity
  8
sit_gravat
 62
7
100
AcDbPolyline
 90
8
 70
0
 10
328.801502
 20
172.627500
 30
0.0
 10
337.422516
 20
145.901459
 30
0.0
 10
345.567528
 20
120.019419
 30
0.0
 10
378.141578
 20
130.267435
 30
0.0
 10
362.839554
 20
176.780506
 30
0.0
 10
340.228520
 20
169.666495
 30
0.0
 10
338.456517
 20
175.300504
 30
0.0
 10
328.801502
 20
172.627500
 30
0.0
  0
LWPOLYLINE
  5
1a9
100
AcDbEntity
  8
sit_gravat
 62
7
100
AcDbPolyline
 90
5
 70
0
 10
328.341502
 20
40.198298
 30
0.0
 10
321.647491
 20
46.948308
 30
0.0
 10
307.809470
 20
33.224287
 30
0.0
 10
314.501480
 20
26.476277
 30
0.0
 10
328.341502
 20
40.198298
 30
0.0
  0
LWPOLYLINE
  5
1aa
100
AcDbEntity
  8
sit_gravat
 62
7
100
AcDbPolyline
 90
2
 70
0
 10
228.306349
 20
27.779279
 30
0.0
 10
229.078350
 20
13.856257
 30
0.0
  0
LWPOLYLINE
  5
1ab
100
AcDbEntity
  8
sit_gravat
 62
7
100
AcDbPolyline
 90
3
 70
0
 10
240.843368
 20
13.856257
 30
0.0
 10
240.125367
 20
28.435280
 30
0.0
 10
228.306349
 20
27.779279
 30
0.0
  0
LWPOLYLINE
  5
1ac
100
AcDbEntity
  8
sit_gravat
 62
7
100
AcDbPolyline
 90
9
 70
0
 10
320.394489
 20
30.246282
 30
0.0
 10
318.436486
 20
28.304279
 30
0.0
 10
329.856504
 20
16.786262
 30
0.0
 10
333.789510
 20
20.686268
 30
0.0
 10
327.908501
 20
26.615277
 30
0.0
 10
332.043507
 20
31.103284
 30
0.0
 10
326.695499
 20
36.494292
 30
0.0
 10
324.760496
 20
34.860289
 30
0.0
 10
320.394489
 20
30.246282
 30
0.0
  0
LWPOLYLINE
  5
1ad
100
AcDbEntity
  8
sit_gravat
 62
7
100
AcDbPolyline
 90
2
 70
0
 10
111.002170
 20
159.638480
 30
0.0
 10
112.769172
 20
156.813476
 30
0.0
  0
LWPOLYLINE
  5
1ae
100
AcDbEntity
  8
sit_gravat
 62
7
100
AcDbPolyline
 90
2
 70
0
 10
120.864185
 20
165.837489
 30
0.0
 10
116.338178
 20
162.977485
 30
0.0
  0
LWPOLYLINE
  5
1af
100
AcDbEntity
  8
sit_gravat
 62
7
100
AcDbPolyline
 90
2
 70
0
 10
135.307207
 20
151.907468
 30
0.0
 10
145.527222
 20
157.994477
 30
0.0
  0
LWPOLYLINE
  5
1b0
100
AcDbEntity
  8
sit_gravat
 62
7
100
AcDbPolyline
 90
2
 70
0
 10
155.336237
 20
163.858486
 30
0.0
 10
168.375257
 20
171.614498
 30
0.0
  0
LWPOLYLINE
  5
1b1
100
AcDbEntity
  8
sit_gravat
 62
7
100
AcDbPolyline
 90
2
 70
0
 10
146.249223
 20
158.427478
 30
0.0
 10
149.997229
 20
160.668482
 30
0.0
  0
LWPOLYLINE
  5
1b2
100
AcDbEntity
  8
sit_gravat
 62
7
100
AcDbPolyline
 90
2
 70
0
 10
19.162829
 20
13.856257
 30
0.0
 10
19.087929
 20
26.863277
 30
0.0
  0
LWPOLYLINE
  5
1b3
100
AcDbEntity
  8
sit_gravat
 62
7
100
AcDbPolyline
 90
2
 70
0
 10
32.740250
 20
30.224282
 30
0.0
 10
32.906050
 20
13.856257
 30
0.0
  0
LWPOLYLINE
  5
1b4
100
AcDbEntity
  8
sit_gravat
 62
7
100
AcDbPolyline
 90
2
 70
0
 10
45.044869
 20
20.433267
 30
0.0
 10
37.710058
 20
31.113284
 30
0.0
  0
LWPOLYLINE
  5
1b5
100
AcDbEntity
  8
sit_gravat
 62
7
100
AcDbPolyline
 90
2
 70
0
 10
45.044869
 20
20.433267
 30
0.0
 10
45.970370
 20
13.856257
 30
0.0
  0
LWPOLYLINE
  5
1b6
100
AcDbEntity
  8
sit_gravat
 62
7
100
AcDbPolyline
 90
2
 70
0
 10
49.576576
 20
34.529289
 30
0.0
 10
37.710058
 20
31.113284
 30
0.0
  0
LWPOLYLINE
  5
1b7
100
AcDbEntity
  8
sit_gravat
 62
7
100
AcDbPolyline
 90
2
 70
0
 10
54.414283
 20
21.012268
 30
0.0
 10
52.467880
 20
25.813276
 30
0.0
  0
LWPOLYLINE
  5
1b8
100
AcDbEntity
  8
sit_gravat
 62
7
100
AcDbPolyline
 90
2
 70
0
 10
56.822687
 20
13.856257
 30
0.0
 10
55.712485
 20
17.140262
 30
0.0
  0
LWPOLYLINE
  5
1b9
100
AcDbEntity
  8
sit_gravat
 62
7
100
AcDbPolyline
 90
5
 70
0
 10
109.337167
 20
351.668773
 30
0.0
 10
108.108165
 20
368.617799
 30
0.0
 10
100.723154
 20
368.400799
 30
0.0
 10
101.230155
 20
351.078772
 30
0.0
 10
109.337167
 20
351.668773
 30
0.0
  0
LWPOLYLINE
  5
1ba
100
AcDbEntity
  8
sit_gravat
 62
7
100
AcDbPolyline
 90
5
 70
0
 10
105.913162
 20
323.652731
 30
0.0
 10
110.930169
 20
324.188731
 30
0.0
 10
110.634169
 20
330.220741
 30
0.0
 10
105.273161
 20
329.648740
 30
0.0
 10
105.913162
 20
323.652731
 30
0.0
  0
LWPOLYLINE
  5
1bb
100
AcDbEntity
  8
sit_gravat
 62
7
100
AcDbPolyline
 90
11
 70
0
 10
95.115245
 20
335.401749
 30
0.0
 10
97.513749
 20
332.979745
 30
0.0
 10
97.671949
 20
328.575738
 30
0.0
 10
98.819251
 20
328.644738
 30
0.0
 10
100.202153
 20
328.723738
 30
0.0
 10
100.137153
 20
333.088745
 30
0.0
 10
99.589752
 20
341.552758
 30
0.0
 10
99.188652
 20
347.743767
 30
0.0
 10
94.670245
 20
347.449767
 30
0.0
 10
95.071345
 20
341.259757
 30
0.0
 10
95.115245
 20
335.401749
 30
0.0
  0
LWPOLYLINE
  5
1bc
100
AcDbEntity
  8
sit_gravat
 62
7
100
AcDbPolyline
 90
6
 70
0
 10
90.996139
 20
333.326745
 30
0.0
 10
85.697631
 20
332.917745
 30
0.0
 10
86.327532
 20
324.734732
 30
0.0
 10
91.626340
 20
325.140733
 30
0.0
 10
91.559340
 20
325.994734
 30
0.0
 10
90.996139
 20
333.326745
 30
0.0
  0
LWPOLYLINE
  5
1bd
100
AcDbEntity
  8
sit_gravat
 62
7
100
AcDbPolyline
 90
10
 70
0
 10
86.327532
 20
324.734732
 30
0.0
 10
86.417932
 20
323.490730
 30
0.0
 10
87.190633
 20
312.971714
 30
0.0
 10
94.034044
 20
313.472715
 30
0.0
 10
93.723743
 20
317.681721
 30
0.0
 10
93.658143
 20
318.597723
 30
0.0
 10
94.949245
 20
318.693723
 30
0.0
 10
94.435144
 20
325.358733
 30
0.0
 10
91.626340
 20
325.140733
 30
0.0
 10
86.327532
 20
324.734732
 30
0.0
  0
LWPOLYLINE
  5
1be
100
AcDbEntity
  8
sit_gravat
 62
7
100
AcDbPolyline
 90
9
 70
0
 10
72.034010
 20
325.815734
 30
0.0
 10
69.344406
 20
325.385733
 30
0.0
 10
70.079307
 20
320.761726
 30
0.0
 10
70.558308
 20
317.761722
 30
0.0
 10
71.388009
 20
312.550714
 30
0.0
 10
72.334111
 20
306.625705
 30
0.0
 10
75.023915
 20
307.053705
 30
0.0
 10
74.079613
 20
312.980714
 30
0.0
 10
72.034010
 20
325.815734
 30
0.0
  0
LWPOLYLINE
  5
1bf
100
AcDbEntity
  8
sit_gravat
 62
7
100
AcDbPolyline
 90
5
 70
0
 10
68.817905
 20
295.885688
 30
0.0
 10
66.612202
 20
313.971716
 30
0.0
 10
60.157292
 20
313.184715
 30
0.0
 10
63.044296
 20
295.253687
 30
0.0
 10
68.817905
 20
295.885688
 30
0.0
  0
LWPOLYLINE
  5
1c0
100
AcDbEntity
  8
sit_gravat
 62
7
100
AcDbPolyline
 90
5
 70
0
 10
59.025590
 20
320.698726
 30
0.0
 10
56.686887
 20
335.564749
 30
0.0
 10
47.940773
 20
334.496747
 30
0.0
 10
49.793076
 20
319.306724
 30
0.0
 10
59.025590
 20
320.698726
 30
0.0
  0
LWPOLYLINE
  5
1c1
100
AcDbEntity
  8
sit_gravat
 62
7
100
AcDbPolyline
 90
8
 70
0
 10
63.206097
 20
294.246686
 30
0.0
 10
60.233092
 20
312.681714
 30
0.0
 10
60.157292
 20
313.184715
 30
0.0
 10
52.199480
 20
312.212713
 30
0.0
 10
53.073981
 20
305.054702
 30
0.0
 10
55.144784
 20
305.307703
 30
0.0
 10
56.594486
 20
293.438684
 30
0.0
 10
63.206097
 20
294.246686
 30
0.0
  0
LWPOLYLINE
  5
1c2
100
AcDbEntity
  8
sit_gravat
 62
7
100
AcDbPolyline
 90
5
 70
0
 10
14.109422
 20
326.352735
 30
0.0
 10
17.484627
 20
314.425716
 30
0.0
 10
26.025040
 20
316.665720
 30
0.0
 10
21.876833
 20
334.031746
 30
0.0
 10
14.109422
 20
332.134744
 30
0.0
  0
LWPOLYLINE
  5
1c3
100
AcDbEntity
  8
sit_gravat
 62
7
100
AcDbPolyline
 90
9
 70
0
 10
33.773552
 20
317.506721
 30
0.0
 10
42.948266
 20
319.006723
 30
0.0
 10
39.815761
 20
334.017746
 30
0.0
 10
35.524154
 20
332.823745
 30
0.0
 10
32.603050
 20
343.308761
 30
0.0
 10
24.773338
 20
341.682758
 30
0.0
 10
27.395142
 20
329.045739
 30
0.0
 10
30.677547
 20
329.725740
 30
0.0
 10
33.773552
 20
317.506721
 30
0.0
  0
LWPOLYLINE
  5
1c4
100
AcDbEntity
  8
sit_gravat
 62
7
100
AcDbPolyline
 90
5
 70
0
 10
52.315780
 20
286.252673
 30
0.0
 10
50.996278
 20
292.312683
 30
0.0
 10
36.877756
 20
287.638676
 30
0.0
 10
38.802559
 20
281.825667
 30
0.0
 10
52.315780
 20
286.252673
 30
0.0
  0
LWPOLYLINE
  5
1c5
100
AcDbEntity
  8
sit_gravat
 62
7
100
AcDbPolyline
 90
6
 70
0
 10
18.228828
 20
275.576657
 30
0.0
 10
27.724742
 20
278.197661
 30
0.0
 10
27.603342
 20
278.636662
 30
0.0
 10
23.844336
 20
291.922682
 30
0.0
 10
14.366022
 20
289.241678
 30
0.0
 10
18.228828
 20
275.576657
 30
0.0
  0
LWPOLYLINE
  5
1c6
100
AcDbEntity
  8
sit_gravat
 62
7
100
AcDbPolyline
 90
3
 70
0
 10
14.109422
 20
272.609653
 30
0.0
 10
14.204322
 20
272.636653
 30
0.0
 10
14.109422
 20
272.966653
 30
0.0
  0
LWPOLYLINE
  5
1c7
100
AcDbEntity
  8
sit_gravat
 62
7
100
AcDbPolyline
 90
7
 70
0
 10
78.938121
 20
322.940729
 30
0.0
 10
79.379321
 20
316.959720
 30
0.0
 10
80.874224
 20
317.068721
 30
0.0
 10
81.313724
 20
311.083711
 30
0.0
 10
87.631234
 20
311.594712
 30
0.0
 10
86.417932
 20
323.490730
 30
0.0
 10
78.938121
 20
322.940729
 30
0.0
  0
LWPOLYLINE
  5
1c8
100
AcDbEntity
  8
sit_gravat
 62
7
100
AcDbPolyline
 90
5
 70
0
 10
113.440173
 20
467.435950
 30
0.0
 10
120.011183
 20
338.271753
 30
0.0
 10
133.333204
 20
338.948754
 30
0.0
 10
126.761194
 20
468.112951
 30
0.0
 10
113.440173
 20
467.435950
 30
0.0
  0
LWPOLYLINE
  5
1c9
100
AcDbEntity
  8
sit_gravat
 62
7
100
AcDbPolyline
 90
2
 70
0
 10
37.737758
 20
69.510342
 30
0.0
 10
41.752864
 20
58.424325
 30
0.0
  0
LWPOLYLINE
  5
1ca
100
AcDbEntity
  8
sit_gravat
 62
7
100
AcDbPolyline
 90
2
 70
0
 10
37.230357
 20
75.000351
 30
0.0
 10
37.371257
 20
74.735350
 30
0.0
  0
LWPOLYLINE
  5
1cb
100
AcDbEntity
  8
sit_gravat
 62
7
100
AcDbPolyline
 90
2
 70
0
 10
47.744373
 20
81.289360
 30
0.0
 10
44.154167
 20
79.178357
 30
0.0
  0
LWPOLYLINE
  5
1cc
100
AcDbEntity
  8
sit_gravat
 62
7
100
AcDbPolyline
 90
2
 70
0
 10
65.699500
 20
76.165352
 30
0.0
 10
61.558894
 20
89.521373
 30
0.0
  0
LWPOLYLINE
  5
1cd
100
AcDbEntity
  8
sit_gravat
 62
7
100
AcDbPolyline
 90
2
 70
0
 10
70.282007
 20
61.402330
 30
0.0
 10
69.395406
 20
64.244334
 30
0.0
  0
LWPOLYLINE
  5
1ce
100
AcDbEntity
  8
sit_gravat
 62
7
100
AcDbPolyline
 90
2
 70
0
 10
75.303215
 20
45.147305
 30
0.0
 10
74.627414
 20
47.334308
 30
0.0
  0
LWPOLYLINE
  5
1cf
100
AcDbEntity
  8
sit_gravat
 62
7
100
AcDbPolyline
 90
2
 70
0
 10
76.229416
 20
43.084302
 30
0.0
 10
75.587415
 20
45.236305
 30
0.0
  0
LWPOLYLINE
  5
1d0
100
AcDbEntity
  8
sit_gravat
 62
7
100
AcDbPolyline
 90
2
 70
0
 10
67.862904
 20
40.268298
 30
0.0
 10
69.864907
 20
40.940299
 30
0.0
  0
LWPOLYLINE
  5
1d1
100
AcDbEntity
  8
sit_gravat
 62
7
100
AcDbPolyline
 90
2
 70
0
 10
61.967995
 20
38.285295
 30
0.0
 10
64.175698
 20
39.028296
 30
0.0
  0
LWPOLYLINE
  5
1d2
100
AcDbEntity
  8
sit_gravat
 62
7
100
AcDbPolyline
 90
2
 70
0
 10
57.226787
 20
36.687292
 30
0.0
 10
59.908292
 20
37.589294
 30
0.0
  0
LWPOLYLINE
  5
1d3
100
AcDbEntity
  8
sit_gravat
 62
7
100
AcDbPolyline
 90
2
 70
0
 10
49.576576
 20
34.529289
 30
0.0
 10
56.900187
 20
36.638292
 30
0.0
  0
LWPOLYLINE
  5
1d4
100
AcDbEntity
  8
sit_gravat
 62
7
100
AcDbPolyline
 90
2
 70
0
 10
19.087929
 20
26.863277
 30
0.0
 10
14.805723
 20
34.534289
 30
0.0
  0
LWPOLYLINE
  5
1d5
100
AcDbEntity
  8
sit_gravat
 62
7
100
AcDbPolyline
 90
2
 70
0
 10
14.109422
 20
142.433454
 30
0.0
 10
22.425734
 20
147.460461
 30
0.0
  0
LWPOLYLINE
  5
1d6
100
AcDbEntity
  8
sit_gravat
 62
7
100
AcDbPolyline
 90
2
 70
0
 10
30.319046
 20
161.815483
 30
0.0
 10
14.109422
 20
152.059468
 30
0.0
  0
LWPOLYLINE
  5
1d7
100
AcDbEntity
  8
sit_gravat
 62
7
100
AcDbPolyline
 90
2
 70
0
 10
120.958185
 20
176.049505
 30
0.0
 10
119.696183
 20
175.309504
 30
0.0
  0
LWPOLYLINE
  5
1d8
100
AcDbEntity
  8
sit_gravat
 62
7
100
AcDbPolyline
 90
2
 70
0
 10
120.864185
 20
165.837489
 30
0.0
 10
125.345191
 20
168.568494
 30
0.0
  0
LWPOLYLINE
  5
1d9
100
AcDbEntity
  8
sit_gravat
 62
7
100
AcDbPolyline
 90
2
 70
0
 10
104.242159
 20
155.427474
 30
0.0
 10
111.002170
 20
159.638480
 30
0.0
  0
LWPOLYLINE
  5
1da
100
AcDbEntity
  8
sit_gravat
 62
7
100
AcDbPolyline
 90
2
 70
0
 10
100.566154
 20
153.104470
 30
0.0
 10
104.124159
 20
155.332473
 30
0.0
  0
LWPOLYLINE
  5
1db
100
AcDbEntity
  8
sit_gravat
 62
7
100
AcDbPolyline
 90
2
 70
0
 10
97.863250
 20
151.405467
 30
0.0
 10
98.677551
 20
151.916468
 30
0.0
  0
LWPOLYLINE
  5
1dc
100
AcDbEntity
  8
sit_gravat
 62
7
100
AcDbPolyline
 90
2
 70
0
 10
83.439327
 20
142.382454
 30
0.0
 10
87.644234
 20
144.991458
 30
0.0
  0
LWPOLYLINE
  5
1dd
100
AcDbEntity
  8
sit_gravat
 62
7
100
AcDbPolyline
 90
2
 70
0
 10
78.279620
 20
150.812467
 30
0.0
 10
82.398426
 20
144.069456
 30
0.0
  0
LWPOLYLINE
  5
1de
100
AcDbEntity
  8
sit_gravat
 62
7
100
AcDbPolyline
 90
2
 70
0
 10
83.428527
 20
154.036471
 30
0.0
 10
81.707225
 20
152.958470
 30
0.0
  0
LWPOLYLINE
  5
1df
100
AcDbEntity
  8
sit_gravat
 62
7
100
AcDbPolyline
 90
2
 70
0
 10
92.300141
 20
159.601480
 30
0.0
 10
90.428038
 20
158.428478
 30
0.0
  0
LWPOLYLINE
  5
1e0
100
AcDbEntity
  8
sit_gravat
 62
7
100
AcDbPolyline
 90
2
 70
0
 10
104.440160
 20
165.412489
 30
0.0
 10
102.905157
 20
166.316490
 30
0.0
  0
LWPOLYLINE
  5
1e1
100
AcDbEntity
  8
sit_gravat
 62
7
100
AcDbPolyline
 90
2
 70
0
 10
135.307207
 20
151.907468
 30
0.0
 10
125.345191
 20
168.568494
 30
0.0
  0
LWPOLYLINE
  5
1e2
100
AcDbEntity
  8
sit_gravat
 62
7
100
AcDbPolyline
 90
2
 70
0
 10
131.441201
 20
149.578465
 30
0.0
 10
133.457204
 20
150.811467
 30
0.0
  0
LWPOLYLINE
  5
1e3
100
AcDbEntity
  8
sit_gravat
 62
7
100
AcDbPolyline
 90
2
 70
0
 10
92.786642
 20
127.316431
 30
0.0
 10
126.626193
 20
146.693460
 30
0.0
  0
LWPOLYLINE
  5
1e4
100
AcDbEntity
  8
sit_gravat
 62
7
100
AcDbPolyline
 90
2
 70
0
 10
112.769172
 20
156.813476
 30
0.0
 10
114.684175
 20
153.739471
 30
0.0
  0
LWPOLYLINE
  5
1e5
100
AcDbEntity
  8
sit_gravat
 62
7
100
AcDbPolyline
 90
2
 70
0
 10
116.338178
 20
162.977485
 30
0.0
 10
111.002170
 20
159.638480
 30
0.0
  0
LWPOLYLINE
  5
1e6
100
AcDbEntity
  8
sit_gravat
 62
7
100
AcDbPolyline
 90
2
 70
0
 10
145.527222
 20
157.994477
 30
0.0
 10
146.249223
 20
158.427478
 30
0.0
  0
LWPOLYLINE
  5
1e7
100
AcDbEntity
  8
sit_gravat
 62
7
100
AcDbPolyline
 90
2
 70
0
 10
125.345191
 20
168.568494
 30
0.0
 10
135.307207
 20
151.907468
 30
0.0
  0
LWPOLYLINE
  5
1e8
100
AcDbEntity
  8
sit_gravat
 62
7
100
AcDbPolyline
 90
2
 70
0
 10
149.997229
 20
160.668482
 30
0.0
 10
155.336237
 20
163.858486
 30
0.0
  0
LWPOLYLINE
  5
1e9
100
AcDbEntity
  8
sit_gravat
 62
7
100
AcDbPolyline
 90
2
 70
0
 10
19.087929
 20
26.863277
 30
0.0
 10
14.109422
 20
25.655275
 30
0.0
  0
LWPOLYLINE
  5
1ea
100
AcDbEntity
  8
sit_gravat
 62
7
100
AcDbPolyline
 90
2
 70
0
 10
37.710058
 20
31.113284
 30
0.0
 10
32.740250
 20
30.224282
 30
0.0
  0
LWPOLYLINE
  5
1eb
100
AcDbEntity
  8
sit_gravat
 62
7
100
AcDbPolyline
 90
2
 70
0
 10
45.970370
 20
13.856257
 30
0.0
 10
45.044869
 20
20.433267
 30
0.0
  0
LWPOLYLINE
  5
1ec
100
AcDbEntity
  8
sit_gravat
 62
7
100
AcDbPolyline
 90
2
 70
0
 10
37.710058
 20
31.113284
 30
0.0
 10
45.044869
 20
20.433267
 30
0.0
  0
LWPOLYLINE
  5
1ed
100
AcDbEntity
  8
sit_gravat
 62
7
100
AcDbPolyline
 90
2
 70
0
 10
52.467880
 20
25.813276
 30
0.0
 10
49.576576
 20
34.529289
 30
0.0
  0
LWPOLYLINE
  5
1ee
100
AcDbEntity
  8
sit_gravat
 62
7
100
AcDbPolyline
 90
2
 70
0
 10
55.712485
 20
17.140262
 30
0.0
 10
54.414283
 20
21.012268
 30
0.0
  0
LWPOLYLINE
  5
1ef
100
AcDbEntity
  8
sit_gravat
 62
7
100
AcDbPolyline
 90
2
 70
0
 10
41.752864
 20
58.424325
 30
0.0
 10
42.782565
 20
55.579321
 30
0.0
  0
LWPOLYLINE
  5
1f0
100
AcDbEntity
  8
sit_gravat
 62
7
100
AcDbPolyline
 90
2
 70
0
 10
37.371257
 20
74.735350
 30
0.0
 10
37.737758
 20
69.510342
 30
0.0
  0
LWPOLYLINE
  5
1f1
100
AcDbEntity
  8
sit_gravat
 62
7
100
AcDbPolyline
 90
2
 70
0
 10
44.154167
 20
79.178357
 30
0.0
 10
37.230357
 20
75.000351
 30
0.0
  0
LWPOLYLINE
  5
1f2
100
AcDbEntity
  8
sit_gravat
 62
7
100
AcDbPolyline
 90
2
 70
0
 10
61.558894
 20
89.521373
 30
0.0
 10
47.744373
 20
81.289360
 30
0.0
  0
LWPOLYLINE
  5
1f3
100
AcDbEntity
  8
sit_gravat
 62
7
100
AcDbPolyline
 90
2
 70
0
 10
69.395406
 20
64.244334
 30
0.0
 10
65.699500
 20
76.165352
 30
0.0
  0
LWPOLYLINE
  5
1f4
100
AcDbEntity
  8
sit_gravat
 62
7
100
AcDbPolyline
 90
2
 70
0
 10
74.627414
 20
47.334308
 30
0.0
 10
70.282007
 20
61.402330
 30
0.0
  0
LWPOLYLINE
  5
1f5
100
AcDbEntity
  8
sit_gravat
 62
7
100
AcDbPolyline
 90
2
 70
0
 10
75.587415
 20
45.236305
 30
0.0
 10
75.303215
 20
45.147305
 30
0.0
  0
LWPOLYLINE
  5
1f6
100
AcDbEntity
  8
sit_gravat
 62
7
100
AcDbPolyline
 90
2
 70
0
 10
69.864907
 20
40.940299
 30
0.0
 10
76.229416
 20
43.084302
 30
0.0
  0
LWPOLYLINE
  5
1f7
100
AcDbEntity
  8
sit_gravat
 62
7
100
AcDbPolyline
 90
2
 70
0
 10
64.175698
 20
39.028296
 30
0.0
 10
67.862904
 20
40.268298
 30
0.0
  0
LWPOLYLINE
  5
1f8
100
AcDbEntity
  8
sit_gravat
 62
7
100
AcDbPolyline
 90
2
 70
0
 10
59.908292
 20
37.589294
 30
0.0
 10
61.967995
 20
38.285295
 30
0.0
  0
LWPOLYLINE
  5
1f9
100
AcDbEntity
  8
sit_gravat
 62
7
100
AcDbPolyline
 90
2
 70
0
 10
56.900187
 20
36.638292
 30
0.0
 10
57.226787
 20
36.687292
 30
0.0
  0
LWPOLYLINE
  5
1fa
100
AcDbEntity
  8
sit_gravat
 62
7
100
AcDbPolyline
 90
2
 70
0
 10
42.782565
 20
55.579321
 30
0.0
 10
49.576576
 20
34.529289
 30
0.0
  0
LWPOLYLINE
  5
1fb
100
AcDbEntity
  8
sit_gravat
 62
7
100
AcDbPolyline
 90
2
 70
0
 10
14.805723
 20
34.534289
 30
0.0
 10
14.109422
 20
35.931291
 30
0.0
  0
LWPOLYLINE
  5
1fc
100
AcDbEntity
  8
sit_gravat
 62
7
100
AcDbPolyline
 90
2
 70
0
 10
14.109422
 20
25.655275
 30
0.0
 10
19.087929
 20
26.863277
 30
0.0
  0
LWPOLYLINE
  5
1fd
100
AcDbEntity
  8
sit_gravat
 62
7
100
AcDbPolyline
 90
7
 70
0
 10
332.043507
 20
31.103284
 30
0.0
 10
327.908501
 20
26.615277
 30
0.0
 10
333.789510
 20
20.686268
 30
0.0
 10
334.807512
 20
19.847266
 30
0.0
 10
341.797522
 20
26.778277
 30
0.0
 10
334.799511
 20
33.835288
 30
0.0
 10
332.043507
 20
31.103284
 30
0.0
  0
LWPOLYLINE
  5
1fe
100
AcDbEntity
  8
sit_gravat
 62
7
100
AcDbPolyline
 90
5
 70
0
 10
320.394489
 20
30.246282
 30
0.0
 10
324.760496
 20
34.860289
 30
0.0
 10
323.750495
 20
35.647291
 30
0.0
 10
319.358488
 20
31.292284
 30
0.0
 10
320.394489
 20
30.246282
 30
0.0
  0
LWPOLYLINE
  5
1ff
100
AcDbEntity
  8
sit_gravat
 62
7
100
AcDbPolyline
 90
4
 70
0
 10
300.025458
 20
13.856257
 30
0.0
 10
300.023458
 20
14.291258
 30
0.0
 10
271.334415
 20
14.085258
 30
0.0
 10
271.340415
 20
13.856257
 30
0.0
  0
LWPOLYLINE
  5
200
100
AcDbEntity
  8
sit_gravat
 62
7
100
AcDbPolyline
 90
10
 70
0
 10
390.130596
 20
548.621074
 30
0.0
 10
387.951593
 20
550.492077
 30
0.0
 10
379.908580
 20
540.287062
 30
0.0
 10
380.556581
 20
539.610061
 30
0.0
 10
387.626592
 20
534.274052
 30
0.0
 10
390.961597
 20
531.750049
 30
0.0
 10
394.570603
 20
529.025044
 30
0.0
 10
395.260604
 20
529.517045
 30
0.0
 10
402.967616
 20
539.417060
 30
0.0
 10
390.130596
 20
548.621074
 30
0.0
  0
LWPOLYLINE
  5
201
100
AcDbEntity
  8
sit_gravat
 62
7
100
AcDbPolyline
 90
10
 70
0
 10
428.276654
 20
473.202959
 30
0.0
 10
440.342673
 20
474.727961
 30
0.0
 10
447.027683
 20
475.571963
 30
0.0
 10
446.123682
 20
482.583973
 30
0.0
 10
445.508681
 20
487.354981
 30
0.0
 10
444.588679
 20
487.324981
 30
0.0
 10
426.891652
 20
485.205977
 30
0.0
 10
427.409653
 20
480.728971
 30
0.0
 10
427.458653
 20
480.305970
 30
0.0
 10
428.276654
 20
473.202959
 30
0.0
  0
LWPOLYLINE
  5
202
100
AcDbEntity
  8
sit_gravat
 62
7
100
AcDbPolyline
 90
29
 70
0
 10
435.041665
 20
526.343040
 30
0.0
 10
438.206669
 20
526.562041
 30
0.0
 10
440.127672
 20
527.805042
 30
0.0
 10
440.696673
 20
528.658044
 30
0.0
 10
438.561670
 20
541.558063
 30
0.0
 10
438.100669
 20
543.201066
 30
0.0
 10
438.087669
 20
543.225066
 30
0.0
 10
410.663627
 20
540.206061
 30
0.0
 10
411.935629
 20
540.344062
 30
0.0
 10
411.937629
 20
540.344062
 30
0.0
 10
412.381630
 20
540.392062
 30
0.0
 10
414.099633
 20
540.577062
 30
0.0
 10
415.817635
 20
540.764062
 30
0.0
 10
417.535638
 20
540.950063
 30
0.0
 10
419.253641
 20
541.135063
 30
0.0
 10
420.970643
 20
541.322063
 30
0.0
 10
422.690646
 20
541.508063
 30
0.0
 10
423.168647
 20
541.559063
 30
0.0
 10
421.892645
 20
534.461053
 30
0.0
 10
416.842637
 20
529.180045
 30
0.0
 10
413.796632
 20
527.994043
 30
0.0
 10
415.763635
 20
514.858023
 30
0.0
 10
416.228636
 20
513.347020
 30
0.0
 10
417.399638
 20
511.966018
 30
0.0
 10
418.930640
 20
510.946017
 30
0.0
 10
420.044642
 20
510.721016
 30
0.0
 10
436.918668
 20
512.980020
 30
0.0
 10
435.540665
 20
522.975035
 30
0.0
 10
435.041665
 20
526.343040
 30
0.0
  0
LWPOLYLINE
  5
203
100
AcDbEntity
  8
sit_gravat
 62
7
100
AcDbPolyline
 90
5
 70
0
 10
410.718627
 20
497.598996
 30
0.0
 10
404.468618
 20
496.946995
 30
0.0
 10
405.812620
 20
484.564976
 30
0.0
 10
412.106630
 20
485.306978
 30
0.0
 10
410.718627
 20
497.598996
 30
0.0
  0
LWPOLYLINE
  5
204
100
AcDbEntity
  8
sit_gravat
 62
7
100
AcDbPolyline
 90
8
 70
0
 10
403.625617
 20
497.755997
 30
0.0
 10
411.408629
 20
498.312997
 30
0.0
 10
411.806629
 20
495.056992
 30
0.0
 10
414.890634
 20
495.487993
 30
0.0
 10
411.612629
 20
519.017029
 30
0.0
 10
407.884623
 20
523.477036
 30
0.0
 10
401.787614
 20
522.677035
 30
0.0
 10
403.625617
 20
497.755997
 30
0.0
  0
LWPOLYLINE
  5
205
100
AcDbEntity
  8
sit_gravat
 62
7
100
AcDbPolyline
 90
5
 70
0
 10
411.935629
 20
540.344062
 30
0.0
 10
409.447626
 20
526.319040
 30
0.0
 10
413.796632
 20
527.994043
 30
0.0
 10
416.842637
 20
529.180045
 30
0.0
 10
411.935629
 20
540.344062
 30
0.0
  0
LWPOLYLINE
  5
206
100
AcDbEntity
  8
sit_gravat
 62
7
100
AcDbPolyline
 90
5
 70
0
 10
421.892645
 20
534.461053
 30
0.0
 10
411.937629
 20
540.344062
 30
0.0
 10
411.935629
 20
540.344062
 30
0.0
 10
416.842637
 20
529.180045
 30
0.0
 10
421.892645
 20
534.461053
 30
0.0
  0
LWPOLYLINE
  5
207
100
AcDbEntity
  8
sit_gravat
 62
7
100
AcDbPolyline
 90
11
 70
0
 10
411.937629
 20
540.344062
 30
0.0
 10
421.892645
 20
534.461053
 30
0.0
 10
423.168647
 20
541.559063
 30
0.0
 10
422.690646
 20
541.508063
 30
0.0
 10
420.970643
 20
541.322063
 30
0.0
 10
419.253641
 20
541.135063
 30
0.0
 10
417.535638
 20
540.950063
 30
0.0
 10
415.817635
 20
540.764062
 30
0.0
 10
414.099633
 20
540.577062
 30
0.0
 10
412.381630
 20
540.392062
 30
0.0
 10
411.937629
 20
540.344062
 30
0.0
  0
LWPOLYLINE
  5
208
100
AcDbEntity
  8
sit_gravat
 62
7
100
AcDbPolyline
 90
6
 70
0
 10
395.260604
 20
529.517045
 30
0.0
 10
398.975610
 20
526.573041
 30
0.0
 10
400.552612
 20
530.776047
 30
0.0
 10
406.744621
 20
536.550056
 30
0.0
 10
402.967616
 20
539.417060
 30
0.0
 10
395.260604
 20
529.517045
 30
0.0
  0
LWPOLYLINE
  5
209
100
AcDbEntity
  8
sit_gravat
 62
7
100
AcDbPolyline
 90
33
 70
0
 10
354.901542
 20
546.416071
 30
0.0
 10
354.795542
 20
545.787070
 30
0.0
 10
355.146543
 20
544.461068
 30
0.0
 10
356.131544
 20
542.883066
 30
0.0
 10
356.788545
 20
541.834064
 30
0.0
 10
357.147546
 20
541.257063
 30
0.0
 10
357.609546
 20
540.522062
 30
0.0
 10
355.697543
 20
538.894059
 30
0.0
 10
355.227543
 20
538.492059
 30
0.0
 10
354.844542
 20
538.164058
 30
0.0
 10
354.442542
 20
537.823058
 30
0.0
 10
355.243543
 20
536.937056
 30
0.0
 10
355.503543
 20
536.649056
 30
0.0
 10
355.801544
 20
536.321055
 30
0.0
 10
356.079544
 20
536.012055
 30
0.0
 10
358.185547
 20
534.469053
 30
0.0
 10
357.751547
 20
533.580051
 30
0.0
 10
362.185553
 20
531.722048
 30
0.0
 10
362.682554
 20
532.630050
 30
0.0
 10
364.827557
 20
532.352049
 30
0.0
 10
365.001558
 20
531.234048
 30
0.0
 10
370.147566
 20
531.751049
 30
0.0
 10
369.923565
 20
532.737050
 30
0.0
 10
372.188569
 20
533.433051
 30
0.0
 10
374.097572
 20
534.484053
 30
0.0
 10
374.818573
 20
533.784052
 30
0.0
 10
378.623578
 20
537.119057
 30
0.0
 10
377.911577
 20
537.739058
 30
0.0
 10
378.865579
 20
539.033060
 30
0.0
 10
379.908580
 20
540.287062
 30
0.0
 10
387.951593
 20
550.492077
 30
0.0
 10
386.769591
 20
550.394077
 30
0.0
 10
354.901542
 20
546.416071
 30
0.0
  0
LWPOLYLINE
  5
20a
100
AcDbEntity
  8
sit_gravat
 62
7
100
AcDbPolyline
 90
7
 70
0
 10
226.066345
 20
617.882780
 30
0.0
 10
233.559357
 20
563.215097
 30
0.0
 10
254.974390
 20
565.080099
 30
0.0
 10
248.650380
 20
616.915779
 30
0.0
 10
248.200379
 20
620.582784
 30
0.0
 10
227.465348
 20
618.054280
 30
0.0
 10
226.066345
 20
617.882780
 30
0.0
  0
LWPOLYLINE
  5
20b
100
AcDbEntity
  8
sit_gravat
 62
7
100
AcDbPolyline
 90
7
 70
0
 10
283.197433
 20
620.984685
 30
0.0
 10
279.325427
 20
651.689332
 30
0.0
 10
278.740426
 20
655.931138
 30
0.0
 10
266.426407
 20
654.617036
 30
0.0
 10
268.487410
 20
639.598913
 30
0.0
 10
270.792414
 20
619.524083
 30
0.0
 10
283.197433
 20
620.984685
 30
0.0
  0
LWPOLYLINE
  5
20c
100
AcDbEntity
  8
sit_gravat
 62
7
100
AcDbPolyline
 90
6
 70
0
 10
276.476422
 20
570.068107
 30
0.0
 10
277.126423
 20
564.167098
 30
0.0
 10
290.187443
 20
565.547100
 30
0.0
 10
283.197433
 20
620.984685
 30
0.0
 10
270.792414
 20
619.524083
 30
0.0
 10
276.476422
 20
570.068107
 30
0.0
  0
LWPOLYLINE
  5
20d
100
AcDbEntity
  8
sit_gravat
 62
7
100
AcDbPolyline
 90
17
 70
0
 10
104.384159
 20
637.322410
 30
0.0
 10
112.621172
 20
570.744108
 30
0.0
 10
131.109200
 20
573.051112
 30
0.0
 10
126.399193
 20
610.788769
 30
0.0
 10
125.877192
 20
614.946876
 30
0.0
 10
132.368202
 20
615.758177
 30
0.0
 10
137.574210
 20
616.406278
 30
0.0
 10
149.220228
 20
617.860280
 30
0.0
 10
197.777302
 20
623.917089
 30
0.0
 10
207.966318
 20
625.189391
 30
0.0
 10
210.662322
 20
625.525392
 30
0.0
 10
211.599323
 20
625.641492
 30
0.0
 10
214.921328
 20
626.056393
 30
0.0
 10
214.923328
 20
626.056593
 30
0.0
 10
216.174330
 20
626.214193
 30
0.0
 10
213.337326
 20
648.951628
 30
0.0
 10
104.384159
 20
637.322410
 30
0.0
  0
LWPOLYLINE
  5
20e
100
AcDbEntity
  8
sit_gravat
 62
7
100
AcDbPolyline
 90
6
 70
0
 10
242.091370
 20
646.225323
 30
0.0
 10
227.479348
 20
644.271820
 30
0.0
 10
229.333350
 20
629.895398
 30
0.0
 10
244.056373
 20
631.633501
 30
0.0
 10
243.952373
 20
632.475202
 30
0.0
 10
242.091370
 20
646.225323
 30
0.0
  0
LWPOLYLINE
  5
20f
100
AcDbEntity
  8
sit_gravat
 62
7
100
AcDbPolyline
 90
7
 70
0
 10
226.701346
 20
650.377730
 30
0.0
 10
227.479348
 20
644.271820
 30
0.0
 10
242.091370
 20
646.225323
 30
0.0
 10
244.914374
 20
646.623224
 30
0.0
 10
244.577374
 20
648.936528
 30
0.0
 10
244.096373
 20
652.234133
 30
0.0
 10
226.701346
 20
650.377730
 30
0.0
  0
LWPOLYLINE
  5
210
100
AcDbEntity
  8
sit_gravat
 62
7
100
AcDbPolyline
 90
6
 70
0
 10
242.091370
 20
646.225323
 30
0.0
 10
243.952373
 20
632.475202
 30
0.0
 10
250.517383
 20
633.216004
 30
0.0
 10
248.453380
 20
647.125525
 30
0.0
 10
244.914374
 20
646.623224
 30
0.0
 10
242.091370
 20
646.225323
 30
0.0
  0
LWPOLYLINE
  5
211
100
AcDbEntity
  8
sit_gravat
 62
7
100
AcDbPolyline
 90
15
 70
0
 10
14.109422
 20
594.253144
 30
0.0
 10
50.210177
 20
597.963150
 30
0.0
 10
50.238077
 20
597.966150
 30
0.0
 10
71.245609
 20
600.125953
 30
0.0
 10
68.169104
 20
628.652597
 30
0.0
 10
61.641094
 20
627.853395
 30
0.0
 10
62.264495
 20
622.746688
 30
0.0
 10
54.922084
 20
621.850486
 30
0.0
 10
53.693182
 20
631.915002
 30
0.0
 10
31.179148
 20
629.510298
 30
0.0
 10
31.840049
 20
624.089890
 30
0.0
 10
14.109422
 20
621.925886
 30
0.0
 10
31.840049
 20
624.089890
 30
0.0
 10
31.179148
 20
629.510298
 30
0.0
 10
14.109422
 20
627.689795
 30
0.0
  0
LWPOLYLINE
  5
212
100
AcDbEntity
  8
sit_gravat
 62
7
100
AcDbPolyline
 90
6
 70
0
 10
53.693182
 20
631.915002
 30
0.0
 10
54.922084
 20
621.850486
 30
0.0
 10
62.264495
 20
622.746688
 30
0.0
 10
61.641094
 20
627.853395
 30
0.0
 10
61.049393
 20
632.700003
 30
0.0
 10
53.693182
 20
631.915002
 30
0.0
  0
LWPOLYLINE
  5
213
100
AcDbEntity
  8
sit_gravat
 62
7
100
AcDbPolyline
 90
5
 70
0
 10
61.049393
 20
632.700003
 30
0.0
 10
61.641094
 20
627.853395
 30
0.0
 10
68.169104
 20
628.652597
 30
0.0
 10
67.657903
 20
633.405204
 30
0.0
 10
61.049393
 20
632.700003
 30
0.0
  0
LWPOLYLINE
  5
214
100
AcDbEntity
  8
sit_gravat
 62
7
100
AcDbPolyline
 90
6
 70
0
 10
14.109422
 20
591.507140
 30
0.0
 10
51.429079
 20
594.251144
 30
0.0
 10
103.743158
 20
598.688151
 30
0.0
 10
99.180952
 20
640.332314
 30
0.0
 10
98.109150
 20
650.338030
 30
0.0
 10
94.284044
 20
685.877384
 30
0.0
  0
LWPOLYLINE
  5
215
100
AcDbEntity
  8
sit_gravat
 62
7
100
AcDbPolyline
 90
6
 70
0
 10
38.579759
 20
255.394626
 30
0.0
 10
38.822159
 20
255.534627
 30
0.0
 10
35.160554
 20
261.141635
 30
0.0
 10
19.080129
 20
251.563620
 30
0.0
 10
22.501534
 20
245.813612
 30
0.0
 10
38.579759
 20
255.394626
 30
0.0
  0
LWPOLYLINE
  5
216
100
AcDbEntity
  8
sit_gravat
 62
7
100
AcDbPolyline
 90
7
 70
0
 10
37.690458
 20
240.978604
 30
0.0
 10
48.017773
 20
247.659614
 30
0.0
 10
46.328871
 20
250.273618
 30
0.0
 10
44.109967
 20
253.707624
 30
0.0
 10
33.780052
 20
247.031614
 30
0.0
 10
36.001355
 20
243.593608
 30
0.0
 10
37.690458
 20
240.978604
 30
0.0
  0
LWPOLYLINE
  5
217
100
AcDbEntity
  8
sit_gravat
 62
7
100
AcDbPolyline
 90
5
 70
0
 10
67.196303
 20
267.372645
 30
0.0
 10
61.582494
 20
276.797659
 30
0.0
 10
50.278277
 20
270.016649
 30
0.0
 10
55.922485
 20
260.607634
 30
0.0
 10
67.196303
 20
267.372645
 30
0.0
  0
LWPOLYLINE
  5
218
100
AcDbEntity
  8
sit_gravat
 62
7
100
AcDbPolyline
 90
5
 70
0
 10
52.052980
 20
240.739604
 30
0.0
 10
58.964590
 20
244.767610
 30
0.0
 10
55.452785
 20
250.816619
 30
0.0
 10
48.524374
 20
246.794613
 30
0.0
 10
52.052980
 20
240.739604
 30
0.0
  0
LWPOLYLINE
  5
219
100
AcDbEntity
  8
sit_gravat
 62
7
100
AcDbPolyline
 90
8
 70
0
 10
52.125080
 20
229.169586
 30
0.0
 10
49.000975
 20
234.431594
 30
0.0
 10
44.697868
 20
231.932590
 30
0.0
 10
36.303055
 20
227.008583
 30
0.0
 10
38.575159
 20
222.867577
 30
0.0
 10
47.060472
 20
227.906584
 30
0.0
 10
47.825673
 20
226.616582
 30
0.0
 10
52.125080
 20
229.169586
 30
0.0
  0
LWPOLYLINE
  5
21a
100
AcDbEntity
  8
sit_gravat
 62
7
100
AcDbPolyline
 90
5
 70
0
 10
56.024986
 20
223.704578
 30
0.0
 10
53.805982
 20
227.421584
 30
0.0
 10
40.786662
 20
219.503571
 30
0.0
 10
43.008866
 20
215.699566
 30
0.0
 10
56.024986
 20
223.704578
 30
0.0
  0
LWPOLYLINE
  5
21b
100
AcDbEntity
  8
sit_gravat
 62
7
100
AcDbPolyline
 90
5
 70
0
 10
92.163341
 20
284.580671
 30
0.0
 10
87.190733
 20
292.652683
 30
0.0
 10
75.781716
 20
286.099673
 30
0.0
 10
80.507123
 20
277.874661
 30
0.0
 10
92.163341
 20
284.580671
 30
0.0
  0
LWPOLYLINE
  5
21c
100
AcDbEntity
  8
sit_gravat
 62
7
100
AcDbPolyline
 90
10
 70
0
 10
61.338794
 20
212.623561
 30
0.0
 10
60.484992
 20
213.990563
 30
0.0
 10
64.307498
 20
216.375567
 30
0.0
 10
61.308494
 20
221.088574
 30
0.0
 10
59.406191
 20
219.877572
 30
0.0
 10
55.187284
 20
217.192568
 30
0.0
 10
46.902572
 20
212.008560
 30
0.0
 10
44.567568
 20
210.479558
 30
0.0
 10
48.314774
 20
204.485549
 30
0.0
 10
61.338794
 20
212.623561
 30
0.0
  0
LWPOLYLINE
  5
21d
100
AcDbEntity
  8
sit_gravat
 62
7
100
AcDbPolyline
 90
7
 70
0
 10
72.366211
 20
203.426547
 30
0.0
 10
66.862102
 20
212.283560
 30
0.0
 10
49.173075
 20
201.230544
 30
0.0
 10
53.742382
 20
193.036531
 30
0.0
 10
57.442988
 20
195.394535
 30
0.0
 10
57.960389
 20
194.542533
 30
0.0
 10
72.366211
 20
203.426547
 30
0.0
  0
LWPOLYLINE
  5
21e
100
AcDbEntity
  8
sit_gravat
 62
7
100
AcDbPolyline
 90
6
 70
0
 10
83.529128
 20
190.620527
 30
0.0
 10
78.862920
 20
197.648538
 30
0.0
 10
68.955505
 20
191.196528
 30
0.0
 10
58.778490
 20
184.633518
 30
0.0
 10
63.321797
 20
177.588507
 30
0.0
 10
83.529128
 20
190.620527
 30
0.0
  0
LWPOLYLINE
  5
21f
100
AcDbEntity
  8
sit_gravat
 62
7
100
AcDbPolyline
 90
5
 70
0
 10
67.657303
 20
167.288492
 30
0.0
 10
79.407421
 20
175.036504
 30
0.0
 10
77.288018
 20
178.253508
 30
0.0
 10
65.250800
 20
171.367498
 30
0.0
 10
67.657303
 20
167.288492
 30
0.0
  0
LWPOLYLINE
  5
220
100
AcDbEntity
  8
sit_gravat
 62
7
100
AcDbPolyline
 90
6
 70
0
 10
74.147213
 20
200.560543
 30
0.0
 10
64.196998
 20
194.699534
 30
0.0
 10
66.990202
 20
189.955526
 30
0.0
 10
78.862920
 20
197.648538
 30
0.0
 10
76.204316
 20
201.771544
 30
0.0
 10
74.147213
 20
200.560543
 30
0.0
  0
LWPOLYLINE
  5
221
100
AcDbEntity
  8
sit_gravat
 62
7
100
AcDbPolyline
 90
6
 70
0
 10
90.840139
 20
182.574515
 30
0.0
 10
95.917547
 20
185.922520
 30
0.0
 10
93.203542
 20
190.037526
 30
0.0
 10
86.758133
 20
185.787520
 30
0.0
 10
89.470137
 20
181.671514
 30
0.0
 10
90.840139
 20
182.574515
 30
0.0
  0
LWPOLYLINE
  5
222
100
AcDbEntity
  8
sit_gravat
 62
7
100
AcDbPolyline
 90
9
 70
0
 10
80.361323
 20
168.567494
 30
0.0
 10
77.090518
 20
173.508501
 30
0.0
 10
69.605806
 20
168.574494
 30
0.0
 10
69.143506
 20
168.269493
 30
0.0
 10
72.843611
 20
162.660485
 30
0.0
 10
76.991918
 20
165.403489
 30
0.0
 10
77.488518
 20
164.652488
 30
0.0
 10
81.287224
 20
167.165492
 30
0.0
 10
80.361323
 20
168.567494
 30
0.0
  0
LWPOLYLINE
  5
223
100
AcDbEntity
  8
sit_gravat
 62
7
100
AcDbPolyline
 90
6
 70
0
 10
106.075162
 20
180.451512
 30
0.0
 10
100.484154
 20
188.931525
 30
0.0
 10
91.879440
 20
183.258516
 30
0.0
 10
95.126645
 20
178.331509
 30
0.0
 10
97.375349
 20
174.844503
 30
0.0
 10
106.075162
 20
180.451512
 30
0.0
  0
LWPOLYLINE
  5
224
100
AcDbEntity
  8
sit_gravat
 62
7
100
AcDbPolyline
 90
12
 70
0
 10
109.117167
 20
148.254463
 30
0.0
 10
106.284162
 20
152.634469
 30
0.0
 10
112.703172
 20
156.772476
 30
0.0
 10
112.769172
 20
156.813476
 30
0.0
 10
111.002170
 20
159.638480
 30
0.0
 10
104.242159
 20
155.427474
 30
0.0
 10
104.124159
 20
155.332473
 30
0.0
 10
100.566154
 20
153.104470
 30
0.0
 10
103.445158
 20
148.519463
 30
0.0
 10
105.193161
 20
145.731459
 30
0.0
 10
105.435161
 20
145.912459
 30
0.0
 10
109.117167
 20
148.254463
 30
0.0
  0
LWPOLYLINE
  5
225
100
AcDbEntity
  8
sit_gravat
 62
7
100
AcDbPolyline
 90
8
 70
0
 10
114.684175
 20
153.739471
 30
0.0
 10
122.342187
 20
158.603478
 30
0.0
 10
119.012182
 20
163.848486
 30
0.0
 10
118.612181
 20
164.414487
 30
0.0
 10
116.338178
 20
162.977485
 30
0.0
 10
111.002170
 20
159.638480
 30
0.0
 10
112.769172
 20
156.813476
 30
0.0
 10
114.684175
 20
153.739471
 30
0.0
  0
LWPOLYLINE
  5
226
100
AcDbEntity
  8
sit_gravat
 62
7
100
AcDbPolyline
 90
6
 70
0
 10
128.317196
 20
166.765491
 30
0.0
 10
128.843197
 20
166.830491
 30
0.0
 10
134.102205
 20
169.571495
 30
0.0
 10
128.741197
 20
179.814511
 30
0.0
 10
122.474187
 20
176.535506
 30
0.0
 10
128.317196
 20
166.765491
 30
0.0
  0
LWPOLYLINE
  5
227
100
AcDbEntity
  8
sit_gravat
 62
7
100
AcDbPolyline
 90
9
 70
0
 10
118.542181
 20
180.168511
 30
0.0
 10
127.013194
 20
185.565520
 30
0.0
 10
124.153190
 20
190.373527
 30
0.0
 10
121.204185
 20
188.620524
 30
0.0
 10
119.535183
 20
190.912528
 30
0.0
 10
115.195176
 20
188.200524
 30
0.0
 10
116.260178
 20
186.037520
 30
0.0
 10
115.421176
 20
185.551520
 30
0.0
 10
118.542181
 20
180.168511
 30
0.0
  0
LWPOLYLINE
  5
228
100
AcDbEntity
  8
sit_gravat
 62
7
100
AcDbPolyline
 90
5
 70
0
 10
139.369213
 20
188.185524
 30
0.0
 10
136.636209
 20
193.755532
 30
0.0
 10
130.118199
 20
191.017528
 30
0.0
 10
133.048203
 20
185.085519
 30
0.0
 10
139.369213
 20
188.185524
 30
0.0
  0
LWPOLYLINE
  5
229
100
AcDbEntity
  8
sit_gravat
 62
7
100
AcDbPolyline
 90
5
 70
0
 10
137.088209
 20
177.438507
 30
0.0
 10
142.679218
 20
180.044511
 30
0.0
 10
140.679215
 20
184.330518
 30
0.0
 10
135.088206
 20
181.724514
 30
0.0
 10
137.088209
 20
177.438507
 30
0.0
  0
LWPOLYLINE
  5
22a
100
AcDbEntity
  8
sit_gravat
 62
7
100
AcDbPolyline
 90
5
 70
0
 10
181.063277
 20
179.748511
 30
0.0
 10
179.995275
 20
182.536515
 30
0.0
 10
171.395262
 20
178.275508
 30
0.0
 10
173.172265
 20
174.690503
 30
0.0
 10
181.063277
 20
179.748511
 30
0.0
  0
LWPOLYLINE
  5
22b
100
AcDbEntity
  8
sit_gravat
 62
7
100
AcDbPolyline
 90
5
 70
0
 10
174.905267
 20
195.487535
 30
0.0
 10
170.971261
 20
194.016533
 30
0.0
 10
176.221269
 20
180.666512
 30
0.0
 10
179.995275
 20
182.536515
 30
0.0
 10
174.905267
 20
195.487535
 30
0.0
  0
LWPOLYLINE
  5
22c
100
AcDbEntity
  8
sit_gravat
 62
7
100
AcDbPolyline
 90
7
 70
0
 10
98.349750
 20
296.629689
 30
0.0
 10
107.053164
 20
282.720668
 30
0.0
 10
112.340172
 20
286.026673
 30
0.0
 10
108.552166
 20
291.517681
 30
0.0
 10
107.729165
 20
290.950681
 30
0.0
 10
102.056156
 20
299.183693
 30
0.0
 10
98.349750
 20
296.629689
 30
0.0
  0
LWPOLYLINE
  5
22d
100
AcDbEntity
  8
sit_gravat
 62
7
100
AcDbPolyline
 90
12
 70
0
 10
131.237201
 20
299.988694
 30
0.0
 10
130.281199
 20
299.445694
 30
0.0
 10
131.051200
 20
298.037691
 30
0.0
 10
138.940212
 20
302.521698
 30
0.0
 10
137.951211
 20
304.260701
 30
0.0
 10
137.568210
 20
304.042701
 30
0.0
 10
134.493205
 20
309.449709
 30
0.0
 10
131.251201
 20
307.604706
 30
0.0
 10
130.318199
 20
309.242709
 30
0.0
 10
129.912198
 20
309.012708
 30
0.0
 10
127.035194
 20
307.376706
 30
0.0
 10
131.237201
 20
299.988694
 30
0.0
  0
LWPOLYLINE
  5
22e
100
AcDbEntity
  8
sit_gravat
 62
7
100
AcDbPolyline
 90
7
 70
0
 10
49.161875
 20
241.255605
 30
0.0
 10
45.923570
 20
246.306612
 30
0.0
 10
37.690458
 20
240.978604
 30
0.0
 10
33.572951
 20
238.322600
 30
0.0
 10
36.826556
 20
233.279593
 30
0.0
 10
40.935763
 20
235.936597
 30
0.0
 10
49.161875
 20
241.255605
 30
0.0
  0
LWPOLYLINE
  5
22f
100
AcDbEntity
  8
sit_gravat
 62
7
100
AcDbPolyline
 90
12
 70
0
 10
90.428038
 20
158.428478
 30
0.0
 10
88.204235
 20
161.964484
 30
0.0
 10
85.863731
 20
160.487481
 30
0.0
 10
84.295829
 20
162.985485
 30
0.0
 10
81.806025
 20
161.418483
 30
0.0
 10
82.716226
 20
159.882480
 30
0.0
 10
82.793526
 20
159.741480
 30
0.0
 10
82.735326
 20
159.703480
 30
0.0
 10
78.973621
 20
157.350477
 30
0.0
 10
81.707025
 20
152.959470
 30
0.0
 10
83.428527
 20
154.036471
 30
0.0
 10
90.428038
 20
158.428478
 30
0.0
  0
LWPOLYLINE
  5
230
100
AcDbEntity
  8
sit_gravat
 62
7
100
AcDbPolyline
 90
13
 70
0
 10
90.131038
 20
150.864467
 30
0.0
 10
89.289036
 20
152.232469
 30
0.0
 10
90.704839
 20
153.101470
 30
0.0
 10
90.542338
 20
153.361470
 30
0.0
 10
94.637645
 20
155.866474
 30
0.0
 10
94.004644
 20
156.879476
 30
0.0
 10
92.300141
 20
159.601480
 30
0.0
 10
90.428038
 20
158.428478
 30
0.0
 10
83.428527
 20
154.036471
 30
0.0
 10
81.707025
 20
152.959470
 30
0.0
 10
84.013528
 20
149.251464
 30
0.0
 10
85.001030
 20
147.669462
 30
0.0
 10
90.131038
 20
150.864467
 30
0.0
  0
LWPOLYLINE
  5
231
100
AcDbEntity
  8
sit_gravat
 62
7
100
AcDbPolyline
 90
5
 70
0
 10
118.396181
 20
250.363619
 30
0.0
 10
124.822191
 20
254.361625
 30
0.0
 10
114.156174
 20
271.382651
 30
0.0
 10
107.397164
 20
267.259644
 30
0.0
 10
118.396181
 20
250.363619
 30
0.0
  0
LWPOLYLINE
  5
232
100
AcDbEntity
  8
sit_gravat
 62
7
100
AcDbPolyline
 90
5
 70
0
 10
129.188197
 20
247.397614
 30
0.0
 10
122.429187
 20
243.275608
 30
0.0
 10
133.430204
 20
226.379582
 30
0.0
 10
139.856214
 20
230.377588
 30
0.0
 10
129.188197
 20
247.397614
 30
0.0
  0
LWPOLYLINE
  5
233
100
AcDbEntity
  8
sit_gravat
 62
7
100
AcDbPolyline
 90
5
 70
0
 10
102.412156
 20
273.813654
 30
0.0
 10
109.732168
 20
278.438662
 30
0.0
 10
98.338450
 20
296.622689
 30
0.0
 10
91.169939
 20
291.609682
 30
0.0
 10
102.412156
 20
273.813654
 30
0.0
  0
LWPOLYLINE
  5
234
100
AcDbEntity
  8
sit_gravat
 62
7
100
AcDbPolyline
 90
5
 70
0
 10
85.577631
 20
334.475747
 30
0.0
 10
81.164624
 20
334.138747
 30
0.0
 10
82.005025
 20
323.153730
 30
0.0
 10
86.417932
 20
323.490730
 30
0.0
 10
85.577631
 20
334.475747
 30
0.0
  0
LWPOLYLINE
  5
235
100
AcDbEntity
  8
sit_gravat
 62
7
100
AcDbPolyline
 90
6
 70
0
 10
91.168439
 20
339.382755
 30
0.0
 10
85.235330
 20
338.926754
 30
0.0
 10
85.697631
 20
332.917745
 30
0.0
 10
90.996139
 20
333.326745
 30
0.0
 10
91.632440
 20
333.376745
 30
0.0
 10
91.168439
 20
339.382755
 30
0.0
  0
LWPOLYLINE
  5
236
100
AcDbEntity
  8
sit_gravat
 62
7
100
AcDbPolyline
 90
5
 70
0
 10
102.414156
 20
593.013142
 30
0.0
 10
91.708040
 20
591.655140
 30
0.0
 10
96.489147
 20
555.146084
 30
0.0
 10
107.314164
 20
556.563086
 30
0.0
 10
102.414156
 20
593.013142
 30
0.0
  0
LWPOLYLINE
  5
237
100
AcDbEntity
  8
sit_gravat
 62
7
100
AcDbPolyline
 90
5
 70
0
 10
57.820888
 20
587.355133
 30
0.0
 10
63.038996
 20
550.766078
 30
0.0
 10
96.489147
 20
555.146084
 30
0.0
 10
91.708040
 20
591.655140
 30
0.0
 10
57.820888
 20
587.355133
 30
0.0
  0
LWPOLYLINE
  5
238
100
AcDbEntity
  8
sit_gravat
 62
7
100
AcDbPolyline
 90
15
 70
0
 10
380.854582
 20
666.828455
 30
0.0
 10
392.203599
 20
575.839116
 30
0.0
 10
403.895617
 20
577.312118
 30
0.0
 10
406.960622
 20
577.729119
 30
0.0
 10
415.926635
 20
578.958121
 30
0.0
 10
417.407638
 20
579.160121
 30
0.0
 10
420.894643
 20
579.639122
 30
0.0
 10
433.808663
 20
581.405124
 30
0.0
 10
433.034662
 20
587.521134
 30
0.0
 10
431.006658
 20
603.550758
 30
0.0
 10
428.732655
 20
621.522986
 30
0.0
 10
426.918652
 20
635.861508
 30
0.0
 10
424.154648
 20
657.727741
 30
0.0
 10
422.478645
 20
671.270362
 30
0.0
 10
380.854582
 20
666.828455
 30
0.0
  0
LWPOLYLINE
  5
239
100
AcDbEntity
  8
sit_gravat
 62
7
100
AcDbPolyline
 90
13
 70
0
 10
291.113445
 20
613.510473
 30
0.0
 10
297.554455
 20
565.181100
 30
0.0
 10
319.908489
 20
567.494103
 30
0.0
 10
326.424499
 20
568.169104
 30
0.0
 10
350.225535
 20
570.633108
 30
0.0
 10
356.134544
 20
571.382109
 30
0.0
 10
367.857562
 20
572.683111
 30
0.0
 10
374.795573
 20
573.649113
 30
0.0
 10
379.406580
 20
574.228113
 30
0.0
 10
392.203599
 20
575.839116
 30
0.0
 10
380.854582
 20
666.828455
 30
0.0
 10
285.364436
 20
656.638039
 30
0.0
 10
291.113445
 20
613.510473
 30
0.0
  0
LWPOLYLINE
  5
23a
100
AcDbEntity
  8
sit_gravat
 62
7
100
AcDbPolyline
 90
6
 70
0
 10
371.072567
 20
492.135988
 30
0.0
 10
390.887597
 20
475.920963
 30
0.0
 10
397.411607
 20
476.541964
 30
0.0
 10
394.399603
 20
508.147012
 30
0.0
 10
369.768565
 20
505.802009
 30
0.0
 10
371.072567
 20
492.135988
 30
0.0
  0
LWPOLYLINE
  5
23b
100
AcDbEntity
  8
sit_gravat
 62
7
100
AcDbPolyline
 90
5
 70
0
 10
394.399603
 20
508.147012
 30
0.0
 10
393.435601
 20
518.274028
 30
0.0
 10
368.804563
 20
515.929024
 30
0.0
 10
369.768565
 20
505.802009
 30
0.0
 10
394.399603
 20
508.147012
 30
0.0
  0
LWPOLYLINE
  5
23c
100
AcDbEntity
  8
sit_gravat
 62
7
100
AcDbPolyline
 90
10
 70
0
 10
405.602620
 20
473.693960
 30
0.0
 10
413.629632
 20
474.352961
 30
0.0
 10
412.233630
 20
487.904982
 30
0.0
 10
411.817629
 20
487.862981
 30
0.0
 10
412.106630
 20
485.306978
 30
0.0
 10
405.812620
 20
484.564976
 30
0.0
 10
405.523620
 20
487.214980
 30
0.0
 10
404.757618
 20
487.137980
 30
0.0
 10
403.698617
 20
496.908995
 30
0.0
 10
405.602620
 20
473.693960
 30
0.0
  0
LWPOLYLINE
  5
23d
100
AcDbEntity
  8
sit_gravat
 62
7
100
AcDbPolyline
 90
6
 70
0
 10
14.109422
 20
549.971076
 30
0.0
 10
20.851632
 20
550.832078
 30
0.0
 10
29.644445
 20
551.933079
 30
0.0
 10
36.186755
 20
552.750081
 30
0.0
 10
31.161848
 20
588.547135
 30
0.0
 10
14.109422
 20
586.305132
 30
0.0
  0
LWPOLYLINE
  5
23e
100
AcDbEntity
  8
sit_gravat
 62
7
100
AcDbPolyline
 90
2
 70
0
 10
58.388389
 20
324.934733
 30
0.0
 10
35.590154
 20
467.305950
 30
0.0
  0
LWPOLYLINE
  5
23f
100
AcDbEntity
  8
sit_gravat
 62
7
100
AcDbPolyline
 90
2
 70
0
 10
78.862920
 20
197.648538
 30
0.0
 10
89.470137
 20
181.671514
 30
0.0
  0
LWPOLYLINE
  5
240
100
AcDbEntity
  8
sit_gravat
 62
7
100
AcDbPolyline
 90
2
 70
0
 10
99.435052
 20
210.842558
 30
0.0
 10
78.862920
 20
197.648538
 30
0.0
  0
LWPOLYLINE
  5
241
100
AcDbEntity
  8
sit_gravat
 62
7
100
AcDbPolyline
 90
2
 70
0
 10
94.538444
 20
219.426571
 30
0.0
 10
99.435052
 20
210.842558
 30
0.0
  0
LWPOLYLINE
  5
242
100
AcDbEntity
  8
sit_gravat
 62
7
100
AcDbPolyline
 90
2
 70
0
 10
73.547812
 20
205.895551
 30
0.0
 10
94.538444
 20
219.426571
 30
0.0
  0
LWPOLYLINE
  5
243
100
AcDbEntity
  8
sit_gravat
 62
7
100
AcDbPolyline
 90
2
 70
0
 10
78.862920
 20
197.648538
 30
0.0
 10
73.547812
 20
205.895551
 30
0.0
  0
LWPOLYLINE
  5
244
100
AcDbEntity
  8
sit_gravat
 62
7
100
AcDbPolyline
 90
2
 70
0
 10
14.355722
 20
79.932358
 30
0.0
 10
14.109422
 20
80.340359
 30
0.0
  0
LWPOLYLINE
  5
245
100
AcDbEntity
  8
sit_gravat
 62
7
100
AcDbPolyline
 90
2
 70
0
 10
14.109422
 20
79.777358
 30
0.0
 10
14.355722
 20
79.932358
 30
0.0
  0
LWPOLYLINE
  5
246
100
AcDbEntity
  8
sit_gravat
 62
7
100
AcDbPolyline
 90
2
 70
0
 10
15.305823
 20
132.737439
 30
0.0
 10
14.109422
 20
134.671442
 30
0.0
  0
LWPOLYLINE
  5
247
100
AcDbEntity
  8
sit_gravat
 62
7
100
AcDbPolyline
 90
2
 70
0
 10
24.853538
 20
116.907415
 30
0.0
 10
15.305823
 20
132.737439
 30
0.0
  0
LWPOLYLINE
  5
248
100
AcDbEntity
  8
sit_gravat
 62
7
100
AcDbPolyline
 90
2
 70
0
 10
25.600139
 20
115.659413
 30
0.0
 10
24.853538
 20
116.907415
 30
0.0
  0
LWPOLYLINE
  5
249
100
AcDbEntity
  8
sit_gravat
 62
7
100
AcDbPolyline
 90
2
 70
0
 10
29.020944
 20
110.028404
 30
0.0
 10
25.600139
 20
115.659413
 30
0.0
  0
LWPOLYLINE
  5
24a
100
AcDbEntity
  8
sit_gravat
 62
7
100
AcDbPolyline
 90
2
 70
0
 10
30.966347
 20
106.764399
 30
0.0
 10
29.020944
 20
110.028404
 30
0.0
  0
LWPOLYLINE
  5
24b
100
AcDbEntity
  8
sit_gravat
 62
7
100
AcDbPolyline
 90
2
 70
0
 10
31.489148
 20
105.861398
 30
0.0
 10
30.966347
 20
106.764399
 30
0.0
  0
LWPOLYLINE
  5
24c
100
AcDbEntity
  8
sit_gravat
 62
7
100
AcDbPolyline
 90
2
 70
0
 10
32.205949
 20
104.610396
 30
0.0
 10
31.489148
 20
105.861398
 30
0.0
  0
LWPOLYLINE
  5
24d
100
AcDbEntity
  8
sit_gravat
 62
7
100
AcDbPolyline
 90
2
 70
0
 10
33.291951
 20
102.726393
 30
0.0
 10
32.205949
 20
104.610396
 30
0.0
  0
LWPOLYLINE
  5
24e
100
AcDbEntity
  8
sit_gravat
 62
7
100
AcDbPolyline
 90
2
 70
0
 10
34.894953
 20
99.919389
 30
0.0
 10
33.291951
 20
102.726393
 30
0.0
  0
LWPOLYLINE
  5
24f
100
AcDbEntity
  8
sit_gravat
 62
7
100
AcDbPolyline
 90
2
 70
0
 10
35.546454
 20
98.789387
 30
0.0
 10
34.894953
 20
99.919389
 30
0.0
  0
LWPOLYLINE
  5
250
100
AcDbEntity
  8
sit_gravat
 62
7
100
AcDbPolyline
 90
2
 70
0
 10
38.182858
 20
94.195380
 30
0.0
 10
35.546454
 20
98.789387
 30
0.0
  0
LWPOLYLINE
  5
251
100
AcDbEntity
  8
sit_gravat
 62
7
100
AcDbPolyline
 90
2
 70
0
 10
33.053250
 20
91.242376
 30
0.0
 10
38.182858
 20
94.195380
 30
0.0
  0
LWPOLYLINE
  5
252
100
AcDbEntity
  8
sit_gravat
 62
7
100
AcDbPolyline
 90
2
 70
0
 10
28.577144
 20
88.648372
 30
0.0
 10
33.053250
 20
91.242376
 30
0.0
  0
LWPOLYLINE
  5
253
100
AcDbEntity
  8
sit_gravat
 62
7
100
AcDbPolyline
 90
2
 70
0
 10
22.827435
 20
85.305366
 30
0.0
 10
28.577144
 20
88.648372
 30
0.0
  0
LWPOLYLINE
  5
254
100
AcDbEntity
  8
sit_gravat
 62
7
100
AcDbPolyline
 90
2
 70
0
 10
17.342626
 20
94.747381
 30
0.0
 10
22.827435
 20
85.305366
 30
0.0
  0
LWPOLYLINE
  5
255
100
AcDbEntity
  8
sit_gravat
 62
7
100
AcDbPolyline
 90
2
 70
0
 10
16.712526
 20
95.788382
 30
0.0
 10
17.342626
 20
94.747381
 30
0.0
  0
LWPOLYLINE
  5
256
100
AcDbEntity
  8
sit_gravat
 62
7
100
AcDbPolyline
 90
2
 70
0
 10
15.045723
 20
98.534387
 30
0.0
 10
16.712526
 20
95.788382
 30
0.0
  0
LWPOLYLINE
  5
257
100
AcDbEntity
  8
sit_gravat
 62
7
100
AcDbPolyline
 90
2
 70
0
 10
14.109422
 20
100.076389
 30
0.0
 10
15.045723
 20
98.534387
 30
0.0
  0
LWPOLYLINE
  5
258
100
AcDbEntity
  8
sit_gravat
 62
7
100
AcDbPolyline
 90
2
 70
0
 10
42.600165
 20
112.908409
 30
0.0
 10
40.277162
 20
116.827415
 30
0.0
  0
LWPOLYLINE
  5
259
100
AcDbEntity
  8
sit_gravat
 62
7
100
AcDbPolyline
 90
2
 70
0
 10
49.905776
 20
100.861390
 30
0.0
 10
42.600165
 20
112.908409
 30
0.0
  0
LWPOLYLINE
  5
25a
100
AcDbEntity
  8
sit_gravat
 62
7
100
AcDbPolyline
 90
2
 70
0
 10
44.812168
 20
97.815386
 30
0.0
 10
49.905776
 20
100.861390
 30
0.0
  0
LWPOLYLINE
  5
25b
100
AcDbEntity
  8
sit_gravat
 62
7
100
AcDbPolyline
 90
2
 70
0
 10
44.471668
 20
97.632385
 30
0.0
 10
44.812168
 20
97.815386
 30
0.0
  0
LWPOLYLINE
  5
25c
100
AcDbEntity
  8
sit_gravat
 62
7
100
AcDbPolyline
 90
2
 70
0
 10
38.182858
 20
94.195380
 30
0.0
 10
44.471668
 20
97.632385
 30
0.0
  0
LWPOLYLINE
  5
25d
100
AcDbEntity
  8
sit_gravat
 62
7
100
AcDbPolyline
 90
2
 70
0
 10
35.546454
 20
98.789387
 30
0.0
 10
38.182858
 20
94.195380
 30
0.0
  0
LWPOLYLINE
  5
25e
100
AcDbEntity
  8
sit_gravat
 62
7
100
AcDbPolyline
 90
2
 70
0
 10
34.894953
 20
99.919389
 30
0.0
 10
35.546454
 20
98.789387
 30
0.0
  0
LWPOLYLINE
  5
25f
100
AcDbEntity
  8
sit_gravat
 62
7
100
AcDbPolyline
 90
2
 70
0
 10
33.291951
 20
102.726393
 30
0.0
 10
34.894953
 20
99.919389
 30
0.0
  0
LWPOLYLINE
  5
260
100
AcDbEntity
  8
sit_gravat
 62
7
100
AcDbPolyline
 90
2
 70
0
 10
32.205949
 20
104.610396
 30
0.0
 10
33.291951
 20
102.726393
 30
0.0
  0
LWPOLYLINE
  5
261
100
AcDbEntity
  8
sit_gravat
 62
7
100
AcDbPolyline
 90
2
 70
0
 10
31.489148
 20
105.861398
 30
0.0
 10
32.205949
 20
104.610396
 30
0.0
  0
LWPOLYLINE
  5
262
100
AcDbEntity
  8
sit_gravat
 62
7
100
AcDbPolyline
 90
2
 70
0
 10
30.966347
 20
106.764399
 30
0.0
 10
31.489148
 20
105.861398
 30
0.0
  0
LWPOLYLINE
  5
263
100
AcDbEntity
  8
sit_gravat
 62
7
100
AcDbPolyline
 90
2
 70
0
 10
29.020944
 20
110.028404
 30
0.0
 10
30.966347
 20
106.764399
 30
0.0
  0
LWPOLYLINE
  5
264
100
AcDbEntity
  8
sit_gravat
 62
7
100
AcDbPolyline
 90
2
 70
0
 10
30.752547
 20
111.086406
 30
0.0
 10
29.020944
 20
110.028404
 30
0.0
  0
LWPOLYLINE
  5
265
100
AcDbEntity
  8
sit_gravat
 62
7
100
AcDbPolyline
 90
2
 70
0
 10
32.135749
 20
111.883407
 30
0.0
 10
30.752547
 20
111.086406
 30
0.0
  0
LWPOLYLINE
  5
266
100
AcDbEntity
  8
sit_gravat
 62
7
100
AcDbPolyline
 90
2
 70
0
 10
33.659451
 20
112.796408
 30
0.0
 10
32.135749
 20
111.883407
 30
0.0
  0
LWPOLYLINE
  5
267
100
AcDbEntity
  8
sit_gravat
 62
7
100
AcDbPolyline
 90
2
 70
0
 10
34.150052
 20
113.458409
 30
0.0
 10
33.659451
 20
112.796408
 30
0.0
  0
LWPOLYLINE
  5
268
100
AcDbEntity
  8
sit_gravat
 62
7
100
AcDbPolyline
 90
2
 70
0
 10
40.277162
 20
116.827415
 30
0.0
 10
34.150052
 20
113.458409
 30
0.0
  0
LWPOLYLINE
  5
269
100
AcDbEntity
  8
sit_gravat
 62
7
100
AcDbPolyline
 90
2
 70
0
 10
61.287594
 20
158.727479
 30
0.0
 10
60.429192
 20
160.062481
 30
0.0
  0
LWPOLYLINE
  5
26a
100
AcDbEntity
  8
sit_gravat
 62
7
100
AcDbPolyline
 90
2
 70
0
 10
74.483414
 20
137.192446
 30
0.0
 10
61.287594
 20
158.727479
 30
0.0
  0
LWPOLYLINE
  5
26b
100
AcDbEntity
  8
sit_gravat
 62
7
100
AcDbPolyline
 90
2
 70
0
 10
72.049310
 20
135.743443
 30
0.0
 10
74.483414
 20
137.192446
 30
0.0
  0
LWPOLYLINE
  5
26c
100
AcDbEntity
  8
sit_gravat
 62
7
100
AcDbPolyline
 90
2
 70
0
 10
59.641091
 20
128.319432
 30
0.0
 10
72.049310
 20
135.743443
 30
0.0
  0
LWPOLYLINE
  5
26d
100
AcDbEntity
  8
sit_gravat
 62
7
100
AcDbPolyline
 90
2
 70
0
 10
56.351186
 20
126.353429
 30
0.0
 10
59.641091
 20
128.319432
 30
0.0
  0
LWPOLYLINE
  5
26e
100
AcDbEntity
  8
sit_gravat
 62
7
100
AcDbPolyline
 90
2
 70
0
 10
42.753065
 20
118.204417
 30
0.0
 10
56.351186
 20
126.353429
 30
0.0
  0
LWPOLYLINE
  5
26f
100
AcDbEntity
  8
sit_gravat
 62
7
100
AcDbPolyline
 90
2
 70
0
 10
40.277162
 20
116.827415
 30
0.0
 10
42.753065
 20
118.204417
 30
0.0
  0
LWPOLYLINE
  5
270
100
AcDbEntity
  8
sit_gravat
 62
7
100
AcDbPolyline
 90
2
 70
0
 10
34.150052
 20
113.458409
 30
0.0
 10
40.277162
 20
116.827415
 30
0.0
  0
LWPOLYLINE
  5
271
100
AcDbEntity
  8
sit_gravat
 62
7
100
AcDbPolyline
 90
2
 70
0
 10
33.659451
 20
112.796408
 30
0.0
 10
34.150052
 20
113.458409
 30
0.0
  0
LWPOLYLINE
  5
272
100
AcDbEntity
  8
sit_gravat
 62
7
100
AcDbPolyline
 90
2
 70
0
 10
32.135749
 20
111.883407
 30
0.0
 10
33.659451
 20
112.796408
 30
0.0
  0
LWPOLYLINE
  5
273
100
AcDbEntity
  8
sit_gravat
 62
7
100
AcDbPolyline
 90
2
 70
0
 10
30.752547
 20
111.086406
 30
0.0
 10
32.135749
 20
111.883407
 30
0.0
  0
LWPOLYLINE
  5
274
100
AcDbEntity
  8
sit_gravat
 62
7
100
AcDbPolyline
 90
2
 70
0
 10
29.020944
 20
110.028404
 30
0.0
 10
30.752547
 20
111.086406
 30
0.0
  0
LWPOLYLINE
  5
275
100
AcDbEntity
  8
sit_gravat
 62
7
100
AcDbPolyline
 90
2
 70
0
 10
25.600139
 20
115.659413
 30
0.0
 10
29.020944
 20
110.028404
 30
0.0
  0
LWPOLYLINE
  5
276
100
AcDbEntity
  8
sit_gravat
 62
7
100
AcDbPolyline
 90
2
 70
0
 10
24.853538
 20
116.907415
 30
0.0
 10
25.600139
 20
115.659413
 30
0.0
  0
LWPOLYLINE
  5
277
100
AcDbEntity
  8
sit_gravat
 62
7
100
AcDbPolyline
 90
2
 70
0
 10
15.305823
 20
132.737439
 30
0.0
 10
24.853538
 20
116.907415
 30
0.0
  0
LWPOLYLINE
  5
278
100
AcDbEntity
  8
sit_gravat
 62
7
100
AcDbPolyline
 90
2
 70
0
 10
36.929256
 20
145.824459
 30
0.0
 10
15.305823
 20
132.737439
 30
0.0
  0
LWPOLYLINE
  5
279
100
AcDbEntity
  8
sit_gravat
 62
7
100
AcDbPolyline
 90
2
 70
0
 10
38.573959
 20
146.810460
 30
0.0
 10
36.929256
 20
145.824459
 30
0.0
  0
LWPOLYLINE
  5
27a
100
AcDbEntity
  8
sit_gravat
 62
7
100
AcDbPolyline
 90
2
 70
0
 10
41.039763
 20
148.300463
 30
0.0
 10
38.573959
 20
146.810460
 30
0.0
  0
LWPOLYLINE
  5
27b
100
AcDbEntity
  8
sit_gravat
 62
7
100
AcDbPolyline
 90
2
 70
0
 10
42.277165
 20
149.049464
 30
0.0
 10
41.039763
 20
148.300463
 30
0.0
  0
LWPOLYLINE
  5
27c
100
AcDbEntity
  8
sit_gravat
 62
7
100
AcDbPolyline
 90
2
 70
0
 10
44.962269
 20
150.671466
 30
0.0
 10
42.277165
 20
149.049464
 30
0.0
  0
LWPOLYLINE
  5
27d
100
AcDbEntity
  8
sit_gravat
 62
7
100
AcDbPolyline
 90
2
 70
0
 10
48.443374
 20
152.769470
 30
0.0
 10
44.962269
 20
150.671466
 30
0.0
  0
LWPOLYLINE
  5
27e
100
AcDbEntity
  8
sit_gravat
 62
7
100
AcDbPolyline
 90
2
 70
0
 10
49.401575
 20
153.440471
 30
0.0
 10
48.443374
 20
152.769470
 30
0.0
  0
LWPOLYLINE
  5
27f
100
AcDbEntity
  8
sit_gravat
 62
7
100
AcDbPolyline
 90
2
 70
0
 10
60.429192
 20
160.062481
 30
0.0
 10
49.401575
 20
153.440471
 30
0.0
  0
LWPOLYLINE
  5
280
100
AcDbEntity
  8
sit_gravat
 62
7
100
AcDbPolyline
 90
2
 70
0
 10
55.623285
 20
167.570492
 30
0.0
 10
51.077078
 20
174.756503
 30
0.0
  0
LWPOLYLINE
  5
281
100
AcDbEntity
  8
sit_gravat
 62
7
100
AcDbPolyline
 90
2
 70
0
 10
33.433451
 20
154.079472
 30
0.0
 10
55.623285
 20
167.570492
 30
0.0
  0
LWPOLYLINE
  5
282
100
AcDbEntity
  8
sit_gravat
 62
7
100
AcDbPolyline
 90
2
 70
0
 10
30.394946
 20
152.321469
 30
0.0
 10
33.433451
 20
154.079472
 30
0.0
  0
LWPOLYLINE
  5
283
100
AcDbEntity
  8
sit_gravat
 62
7
100
AcDbPolyline
 90
2
 70
0
 10
28.790244
 20
151.337467
 30
0.0
 10
30.394946
 20
152.321469
 30
0.0
  0
LWPOLYLINE
  5
284
100
AcDbEntity
  8
sit_gravat
 62
7
100
AcDbPolyline
 90
2
 70
0
 10
27.893743
 20
150.785466
 30
0.0
 10
28.790244
 20
151.337467
 30
0.0
  0
LWPOLYLINE
  5
285
100
AcDbEntity
  8
sit_gravat
 62
7
100
AcDbPolyline
 90
2
 70
0
 10
22.425734
 20
147.460461
 30
0.0
 10
27.893743
 20
150.785466
 30
0.0
  0
LWPOLYLINE
  5
286
100
AcDbEntity
  8
sit_gravat
 62
7
100
AcDbPolyline
 90
5
 70
0
 10
159.323243
 20
168.460493
 30
0.0
 10
164.672252
 20
171.535498
 30
0.0
 10
154.404236
 20
189.399525
 30
0.0
 10
150.660230
 20
187.715523
 30
0.0
 10
159.323243
 20
168.460493
 30
0.0
  0
LWPOLYLINE
  5
287
100
AcDbEntity
  8
sit_gravat
 62
7
100
AcDbPolyline
 90
2
 70
0
 10
58.139189
 20
378.215814
 30
0.0
 10
70.666808
 20
295.976688
 30
0.0
  0
LWPOLYLINE
  5
288
100
AcDbEntity
  8
sit_gravat
 62
7
100
AcDbPolyline
 90
2
 70
0
 10
44.683468
 20
467.871951
 30
0.0
 10
58.139189
 20
378.215814
 30
0.0
  0
LWPOLYLINE
  5
289
100
AcDbEntity
  8
sit_gravat
 62
7
100
AcDbPolyline
 90
2
 70
0
 10
86.327532
 20
324.734732
 30
0.0
 10
87.190833
 20
312.969714
 30
0.0
  0
LWPOLYLINE
  5
28a
100
AcDbEntity
  8
sit_gravat
 62
7
100
AcDbPolyline
 90
7
 70
0
 10
112.644172
 20
306.268704
 30
0.0
 10
108.258165
 20
303.868700
 30
0.0
 10
110.358169
 20
299.889694
 30
0.0
 10
109.473167
 20
299.423694
 30
0.0
 10
111.744171
 20
295.115687
 30
0.0
 10
117.066179
 20
297.922691
 30
0.0
 10
112.644172
 20
306.268704
 30
0.0
  0
LWPOLYLINE
  5
28b
100
AcDbEntity
  8
sit_gravat
 62
7
100
AcDbPolyline
 90
12
 70
0
 10
134.493205
 20
309.449709
 30
0.0
 10
131.222200
 20
307.653706
 30
0.0
 10
130.315199
 20
309.306709
 30
0.0
 10
129.905198
 20
309.082708
 30
0.0
 10
127.004194
 20
307.489706
 30
0.0
 10
131.094200
 20
300.039695
 30
0.0
 10
130.129199
 20
299.509694
 30
0.0
 10
130.879200
 20
298.090692
 30
0.0
 10
138.834212
 20
302.456698
 30
0.0
 10
137.872211
 20
304.209701
 30
0.0
 10
137.486210
 20
303.997701
 30
0.0
 10
134.493205
 20
309.449709
 30
0.0
  0
LWPOLYLINE
  5
28c
100
AcDbEntity
  8
sit_gravat
 62
7
100
AcDbPolyline
 90
7
 70
0
 10
120.087183
 20
302.908699
 30
0.0
 10
118.894182
 20
302.278698
 30
0.0
 10
116.561178
 20
306.699705
 30
0.0
 10
113.263173
 20
305.136702
 30
0.0
 10
119.400182
 20
293.500685
 30
0.0
 10
123.821189
 20
295.834688
 30
0.0
 10
120.087183
 20
302.908699
 30
0.0
  0
LWPOLYLINE
  5
28d
100
AcDbEntity
  8
sit_gravat
 62
7
100
AcDbPolyline
 90
5
 70
0
 10
153.302234
 20
87.310370
 30
0.0
 10
158.756243
 20
89.603373
 30
0.0
 10
155.421237
 20
99.038387
 30
0.0
 10
149.419228
 20
96.550384
 30
0.0
 10
153.302234
 20
87.310370
 30
0.0
  0
LWPOLYLINE
  5
28e
100
AcDbEntity
  8
sit_gravat
 62
7
100
AcDbPolyline
 90
6
 70
0
 10
160.418245
 20
71.988346
 30
0.0
 10
164.494251
 20
73.369348
 30
0.0
 10
162.490248
 20
79.040357
 30
0.0
 10
158.472242
 20
77.684355
 30
0.0
 10
160.388245
 20
71.985346
 30
0.0
 10
160.418245
 20
71.988346
 30
0.0
  0
LWPOLYLINE
  5
28f
100
AcDbEntity
  8
sit_gravat
 62
7
100
AcDbPolyline
 90
2
 70
0
 10
456.022697
 20
163.368486
 30
0.0
 10
460.072703
 20
163.531486
 30
0.0
  0
LWPOLYLINE
  5
290
100
AcDbEntity
  8
sit_gravat
 62
7
100
AcDbPolyline
 90
2
 70
0
 10
455.873696
 20
166.824491
 30
0.0
 10
456.022697
 20
163.368486
 30
0.0
  0
LWPOLYLINE
  5
291
100
AcDbEntity
  8
sit_gravat
 62
7
100
AcDbPolyline
 90
2
 70
0
 10
459.929703
 20
166.999491
 30
0.0
 10
455.873696
 20
166.824491
 30
0.0
  0
LWPOLYLINE
  5
292
100
AcDbEntity
  8
sit_gravat
 62
7
100
AcDbPolyline
 90
2
 70
0
 10
460.072703
 20
163.531486
 30
0.0
 10
459.929703
 20
166.999491
 30
0.0
  0
LWPOLYLINE
  5
293
100
AcDbEntity
  8
sit_gravat
 62
7
100
AcDbPolyline
 90
2
 70
0
 10
107.725165
 20
215.614566
 30
0.0
 10
127.682195
 20
226.964583
 30
0.0
  0
LWPOLYLINE
  5
294
100
AcDbEntity
  8
sit_gravat
 62
7
100
AcDbPolyline
 90
2
 70
0
 10
81.819025
 20
24.311273
 30
0.0
 10
84.810330
 20
14.374258
 30
0.0
  0
LWPOLYLINE
  5
295
100
AcDbEntity
  8
sit_gravat
 62
7
100
AcDbPolyline
 90
3
 70
0
 10
72.158010
 20
41.712300
 30
0.0
 10
62.657496
 20
38.516295
 30
0.0
 10
65.224900
 20
30.610283
 30
0.0
  0
LWPOLYLINE
  5
296
100
AcDbEntity
  8
sit_gravat
 62
7
100
AcDbPolyline
 90
2
 70
0
 10
100.566154
 20
153.104470
 30
0.0
 10
103.445158
 20
148.519463
 30
0.0
  0
LWPOLYLINE
  5
297
100
AcDbEntity
  8
sit_gravat
 62
7
100
AcDbPolyline
 90
6
 70
0
 10
35.590154
 20
467.305950
 30
0.0
 10
34.538953
 20
473.951960
 30
0.0
 10
16.121025
 20
472.141957
 30
0.0
 10
16.428625
 20
470.635955
 30
0.0
 10
41.315063
 20
336.779751
 30
0.0
 10
52.606080
 20
284.918671
 30
0.0
  0
LWPOLYLINE
  5
298
100
AcDbEntity
  8
sit_gravat
 62
7
100
AcDbPolyline
 90
11
 70
0
 10
90.218138
 20
227.003583
 30
0.0
 10
84.994830
 20
236.160597
 30
0.0
 10
61.863895
 20
221.443574
 30
0.0
 10
59.406191
 20
219.877572
 30
0.0
 10
55.187284
 20
217.192568
 30
0.0
 10
46.902572
 20
212.008560
 30
0.0
 10
42.232765
 20
208.949555
 30
0.0
 10
44.797568
 20
204.894549
 30
0.0
 10
46.856772
 20
201.298544
 30
0.0
 10
47.553673
 20
200.214542
 30
0.0
 10
90.218138
 20
227.003583
 30
0.0
  0
LWPOLYLINE
  5
299
100
AcDbEntity
  8
sit_gravat
 62
7
100
AcDbPolyline
 90
8
 70
0
 10
80.605023
 20
243.860609
 30
0.0
 10
76.779217
 20
250.572619
 30
0.0
 10
52.324580
 20
236.365597
 30
0.0
 10
32.455350
 20
224.821580
 30
0.0
 10
37.111957
 20
217.184568
 30
0.0
 10
40.786662
 20
219.503571
 30
0.0
 10
53.805982
 20
227.421584
 30
0.0
 10
80.605023
 20
243.860609
 30
0.0
  0
LWPOLYLINE
  5
29a
100
AcDbEntity
  8
sit_gravat
 62
7
100
AcDbPolyline
 90
6
 70
0
 10
51.077078
 20
174.756503
 30
0.0
 10
49.491776
 20
177.379507
 30
0.0
 10
46.677471
 20
181.982514
 30
0.0
 10
42.045464
 20
179.096510
 30
0.0
 10
38.320859
 20
176.774506
 30
0.0
 10
14.109422
 20
161.678483
 30
0.0
  0
LWPOLYLINE
  5
29b
100
AcDbEntity
  8
sit_gravat
 62
7
100
AcDbPolyline
 90
3
 70
0
 10
14.109422
 20
152.059468
 30
0.0
 10
30.319046
 20
161.815483
 30
0.0
 10
51.077078
 20
174.756503
 30
0.0
  0
LWPOLYLINE
  5
29c
100
AcDbEntity
  8
sit_gravat
 62
7
100
AcDbPolyline
 90
11
 70
0
 10
42.045464
 20
179.096510
 30
0.0
 10
46.677471
 20
181.982514
 30
0.0
 10
44.945869
 20
184.977519
 30
0.0
 10
43.706267
 20
187.056522
 30
0.0
 10
41.533363
 20
190.700527
 30
0.0
 10
38.389959
 20
195.936535
 30
0.0
 10
37.160157
 20
195.171534
 30
0.0
 10
29.867346
 20
190.625527
 30
0.0
 10
28.232443
 20
189.604526
 30
0.0
 10
26.220240
 20
188.349524
 30
0.0
 10
14.109422
 20
180.989513
 30
0.0
  0
LWPOLYLINE
  5
29d
100
AcDbEntity
  8
sit_gravat
 62
7
100
AcDbPolyline
 90
3
 70
0
 10
14.109422
 20
161.678483
 30
0.0
 10
38.320859
 20
176.774506
 30
0.0
 10
42.045464
 20
179.096510
 30
0.0
  0
LWPOLYLINE
  5
29e
100
AcDbEntity
  8
sit_gravat
 62
7
100
AcDbPolyline
 90
7
 70
0
 10
14.744323
 20
198.688540
 30
0.0
 10
30.773847
 20
208.498555
 30
0.0
 10
27.570642
 20
213.730563
 30
0.0
 10
23.663536
 20
220.186573
 30
0.0
 10
21.798233
 20
222.964577
 30
0.0
 10
16.747026
 20
219.709572
 30
0.0
 10
14.109422
 20
218.102569
 30
0.0
  0
LWPOLYLINE
  5
29f
100
AcDbEntity
  8
sit_gravat
 62
7
100
AcDbPolyline
 90
2
 70
0
 10
14.109422
 20
198.300539
 30
0.0
 10
14.744323
 20
198.688540
 30
0.0
  0
LWPOLYLINE
  5
2a0
100
AcDbEntity
  8
sit_gravat
 62
7
100
AcDbPolyline
 90
2
 70
0
 10
18.906529
 20
346.466765
 30
0.0
 10
34.670653
 20
280.472665
 30
0.0
  0
LWPOLYLINE
  5
2a1
100
AcDbEntity
  8
sit_gravat
 62
7
100
AcDbPolyline
 90
2
 70
0
 10
52.315780
 20
286.252673
 30
0.0
 10
27.724742
 20
278.197661
 30
0.0
  0
LWPOLYLINE
  5
2a2
100
AcDbEntity
  8
sit_gravat
 62
7
100
AcDbPolyline
 90
2
 70
0
 10
138.945212
 20
315.682718
 30
0.0
 10
138.744212
 20
320.677726
 30
0.0
  0
LWPOLYLINE
  5
2a3
100
AcDbEntity
  8
sit_gravat
 62
7
100
AcDbPolyline
 90
24
 70
0
 10
119.861183
 20
310.990711
 30
0.0
 10
120.787185
 20
309.348709
 30
0.0
 10
123.244188
 20
304.996702
 30
0.0
 10
125.702192
 20
300.640695
 30
0.0
 10
128.160196
 20
296.286689
 30
0.0
 10
130.616200
 20
291.930682
 30
0.0
 10
133.073203
 20
287.574675
 30
0.0
 10
135.530207
 20
283.221669
 30
0.0
 10
137.988211
 20
278.867662
 30
0.0
 10
140.444215
 20
274.513656
 30
0.0
 10
141.250216
 20
273.086653
 30
0.0
 10
140.869215
 20
278.070661
 30
0.0
 10
140.488215
 20
283.056669
 30
0.0
 10
140.105214
 20
288.041676
 30
0.0
 10
140.004214
 20
289.362678
 30
0.0
 10
139.949214
 20
290.702680
 30
0.0
 10
139.748214
 20
295.699688
 30
0.0
 10
139.649213
 20
298.196692
 30
0.0
 10
139.547213
 20
300.693696
 30
0.0
 10
139.348213
 20
305.691703
 30
0.0
 10
139.248213
 20
308.188707
 30
0.0
 10
139.248213
 20
308.190707
 30
0.0
 10
139.146213
 20
310.685711
 30
0.0
 10
138.945212
 20
315.682718
 30
0.0
  0
LWPOLYLINE
  5
2a4
100
AcDbEntity
  8
sit_gravat
 62
7
100
AcDbPolyline
 90
3
 70
0
 10
486.129743
 20
333.635746
 30
0.0
 10
485.410742
 20
334.018746
 30
0.0
 10
480.997735
 20
336.373750
 30
0.0
  0
LWPOLYLINE
  5
2a5
100
AcDbEntity
  8
sit_gravat
 62
7
100
AcDbPolyline
 90
2
 70
0
 10
458.782701
 20
225.704581
 30
0.0
 10
394.519603
 20
220.477573
 30
0.0
  0
LWPOLYLINE
  5
2a6
100
AcDbEntity
  8
sit_gravat
 62
7
100
AcDbPolyline
 90
2
 70
0
 10
394.699603
 20
262.541637
 30
0.0
 10
394.450603
 20
195.516535
 30
0.0
  0
LWPOLYLINE
  5
2a7
100
AcDbEntity
  8
sit_gravat
 62
7
100
AcDbPolyline
 90
13
 70
0
 10
72.034010
 20
325.815734
 30
0.0
 10
72.768811
 20
321.191727
 30
0.0
 10
75.130315
 20
306.376704
 30
0.0
 10
75.526415
 20
303.908700
 30
0.0
 10
76.312617
 20
298.972693
 30
0.0
 10
79.770022
 20
301.084696
 30
0.0
 10
84.187529
 20
303.774700
 30
0.0
 10
85.997731
 20
304.887702
 30
0.0
 10
87.577334
 20
305.860703
 30
0.0
 10
89.159236
 20
306.831705
 30
0.0
 10
88.394135
 20
309.214709
 30
0.0
 10
87.631234
 20
311.594712
 30
0.0
 10
87.190833
 20
312.969714
 30
0.0
  0
LWPOLYLINE
  5
2a8
100
AcDbEntity
  8
sit_gravat
 62
7
100
AcDbPolyline
 90
41
 70
0
 10
86.327532
 20
324.734732
 30
0.0
 10
85.697631
 20
332.917745
 30
0.0
 10
85.235330
 20
338.926754
 30
0.0
 10
84.860130
 20
343.912762
 30
0.0
 10
84.484829
 20
348.899769
 30
0.0
 10
84.109829
 20
353.883777
 30
0.0
 10
83.734628
 20
358.870784
 30
0.0
 10
83.359327
 20
363.856792
 30
0.0
 10
83.173827
 20
366.348796
 30
0.0
 10
82.986127
 20
368.842800
 30
0.0
 10
82.611126
 20
373.827807
 30
0.0
 10
82.235826
 20
378.813815
 30
0.0
 10
82.050125
 20
381.308819
 30
0.0
 10
81.862625
 20
383.800822
 30
0.0
 10
81.487324
 20
388.786830
 30
0.0
 10
81.301824
 20
391.278834
 30
0.0
 10
81.112324
 20
393.770838
 30
0.0
 10
80.739123
 20
398.757845
 30
0.0
 10
80.363823
 20
403.743853
 30
0.0
 10
80.178122
 20
406.238857
 30
0.0
 10
79.988622
 20
408.730861
 30
0.0
 10
79.615622
 20
413.714868
 30
0.0
 10
79.240121
 20
418.703876
 30
0.0
 10
78.865120
 20
423.687883
 30
0.0
 10
78.492020
 20
428.671891
 30
0.0
 10
78.302320
 20
431.165895
 30
0.0
 10
78.116619
 20
433.660899
 30
0.0
 10
77.929119
 20
436.152902
 30
0.0
 10
77.816119
 20
437.644905
 30
0.0
 10
77.628619
 20
440.137909
 30
0.0
 10
77.442818
 20
442.631912
 30
0.0
 10
77.067818
 20
447.615920
 30
0.0
 10
76.692617
 20
452.602928
 30
0.0
 10
76.319317
 20
457.588935
 30
0.0
 10
76.129616
 20
460.082939
 30
0.0
 10
76.082816
 20
460.709940
 30
0.0
 10
75.678116
 20
464.690946
 30
0.0
 10
75.169615
 20
469.662954
 30
0.0
 10
74.023113
 20
469.663954
 30
0.0
 10
65.951401
 20
469.173953
 30
0.0
 10
64.652199
 20
469.097953
 30
0.0
  0
LWPOLYLINE
  5
2a9
100
AcDbEntity
  8
sit_gravat
 62
7
100
AcDbPolyline
 90
10
 70
0
 10
107.725165
 20
215.614566
 30
0.0
 10
99.415152
 20
210.878558
 30
0.0
 10
90.218138
 20
227.003583
 30
0.0
 10
84.994830
 20
236.160597
 30
0.0
 10
80.605023
 20
243.860609
 30
0.0
 10
76.779217
 20
250.572619
 30
0.0
 10
70.871108
 20
260.925635
 30
0.0
 10
66.414501
 20
268.743647
 30
0.0
 10
61.582494
 20
276.797659
 30
0.0
 10
60.389792
 20
278.776662
 30
0.0
  0
LWPOLYLINE
  5
2aa
100
AcDbEntity
  8
sit_gravat
 62
7
100
AcDbPolyline
 90
20
 70
0
 10
433.172662
 20
185.263519
 30
0.0
 10
405.060619
 20
182.034514
 30
0.0
 10
404.721618
 20
174.357502
 30
0.0
 10
433.935663
 20
177.016507
 30
0.0
 10
436.305667
 20
177.335507
 30
0.0
 10
438.605670
 20
177.554507
 30
0.0
 10
438.953671
 20
177.585507
 30
0.0
 10
442.052675
 20
177.874508
 30
0.0
 10
443.457678
 20
177.996508
 30
0.0
 10
448.726686
 20
178.497509
 30
0.0
 10
450.209688
 20
178.638509
 30
0.0
 10
459.214702
 20
179.484510
 30
0.0
 10
459.632702
 20
179.525510
 30
0.0
 10
459.583702
 20
187.792523
 30
0.0
 10
442.680676
 20
186.181521
 30
0.0
 10
438.062669
 20
185.731520
 30
0.0
 10
437.833669
 20
185.710520
 30
0.0
 10
436.907667
 20
185.620520
 30
0.0
 10
433.321662
 20
185.277519
 30
0.0
 10
433.172662
 20
185.263519
 30
0.0
  0
LWPOLYLINE
  5
2ab
100
AcDbEntity
  8
sit_gravat
 62
7
100
AcDbPolyline
 90
7
 70
0
 10
433.321662
 20
185.277519
 30
0.0
 10
436.907667
 20
185.620520
 30
0.0
 10
437.833669
 20
185.710520
 30
0.0
 10
438.062669
 20
185.731520
 30
0.0
 10
442.680676
 20
186.181521
 30
0.0
 10
459.583702
 20
187.792523
 30
0.0
 10
459.532702
 20
196.938537
 30
0.0
  0
LWPOLYLINE
  5
2ac
100
AcDbEntity
  8
sit_gravat
 62
7
100
AcDbPolyline
 90
4
 70
0
 10
405.389619
 20
189.471526
 30
0.0
 10
405.060619
 20
182.034514
 30
0.0
 10
433.172662
 20
185.263519
 30
0.0
 10
433.321662
 20
185.277519
 30
0.0
  0
LWPOLYLINE
  5
2ad
100
AcDbEntity
  8
sit_gravat
 62
7
100
AcDbPolyline
 90
26
 70
0
 10
447.219683
 20
163.010485
 30
0.0
 10
449.365687
 20
163.102485
 30
0.0
 10
456.022697
 20
163.368486
 30
0.0
 10
460.072703
 20
163.531486
 30
0.0
 10
459.929703
 20
166.999491
 30
0.0
 10
460.105703
 20
174.494503
 30
0.0
 10
459.632702
 20
179.525510
 30
0.0
 10
459.214702
 20
179.484510
 30
0.0
 10
450.209688
 20
178.638509
 30
0.0
 10
448.726686
 20
178.497509
 30
0.0
 10
443.457678
 20
177.996508
 30
0.0
 10
442.052675
 20
177.874508
 30
0.0
 10
438.953671
 20
177.585507
 30
0.0
 10
438.605670
 20
177.554507
 30
0.0
 10
436.305667
 20
177.335507
 30
0.0
 10
433.935663
 20
177.016507
 30
0.0
 10
404.721618
 20
174.357502
 30
0.0
 10
404.141617
 20
161.261482
 30
0.0
 10
430.378658
 20
162.327484
 30
0.0
 10
431.431659
 20
162.371484
 30
0.0
 10
434.769664
 20
162.510484
 30
0.0
 10
434.890664
 20
162.515484
 30
0.0
 10
439.851672
 20
162.707485
 30
0.0
 10
440.804673
 20
162.746485
 30
0.0
 10
443.391677
 20
162.855485
 30
0.0
 10
447.219683
 20
163.010485
 30
0.0
  0
LWPOLYLINE
  5
2ae
100
AcDbEntity
  8
sit_gravat
 62
7
100
AcDbPolyline
 90
23
 70
0
 10
460.336703
 20
157.157476
 30
0.0
 10
460.072703
 20
163.531486
 30
0.0
 10
456.022697
 20
163.368486
 30
0.0
 10
449.365687
 20
163.102485
 30
0.0
 10
447.219683
 20
163.010485
 30
0.0
 10
443.391677
 20
162.855485
 30
0.0
 10
440.804673
 20
162.746485
 30
0.0
 10
439.851672
 20
162.707485
 30
0.0
 10
434.890664
 20
162.515484
 30
0.0
 10
431.431659
 20
162.371484
 30
0.0
 10
430.378658
 20
162.327484
 30
0.0
 10
404.141617
 20
161.261482
 30
0.0
 10
403.567617
 20
148.315463
 30
0.0
 10
437.965669
 20
147.949462
 30
0.0
 10
439.306671
 20
147.935462
 30
0.0
 10
442.402676
 20
147.904462
 30
0.0
 10
443.190677
 20
147.891462
 30
0.0
 10
446.299682
 20
147.859462
 30
0.0
 10
448.204685
 20
147.839462
 30
0.0
 10
451.213689
 20
147.804462
 30
0.0
 10
460.462703
 20
147.703462
 30
0.0
 10
460.491704
 20
150.516466
 30
0.0
 10
460.336703
 20
157.157476
 30
0.0
  0
LWPOLYLINE
  5
2af
100
AcDbEntity
  8
sit_gravat
 62
7
100
AcDbPolyline
 90
19
 70
0
 10
403.567617
 20
148.315463
 30
0.0
 10
402.985616
 20
134.079441
 30
0.0
 10
441.778675
 20
131.813437
 30
0.0
 10
447.827684
 20
131.452437
 30
0.0
 10
451.600690
 20
131.248437
 30
0.0
 10
453.538693
 20
131.127436
 30
0.0
 10
460.761704
 20
130.703436
 30
0.0
 10
461.037704
 20
135.320443
 30
0.0
 10
461.115704
 20
136.569445
 30
0.0
 10
460.410703
 20
143.083455
 30
0.0
 10
460.462703
 20
147.703462
 30
0.0
 10
451.213689
 20
147.804462
 30
0.0
 10
448.204685
 20
147.839462
 30
0.0
 10
446.299682
 20
147.859462
 30
0.0
 10
443.190677
 20
147.891462
 30
0.0
 10
442.402676
 20
147.904462
 30
0.0
 10
439.306671
 20
147.935462
 30
0.0
 10
437.965669
 20
147.949462
 30
0.0
 10
403.567617
 20
148.315463
 30
0.0
  0
LWPOLYLINE
  5
2b0
100
AcDbEntity
  8
sit_gravat
 62
7
100
AcDbPolyline
 90
16
 70
0
 10
460.761704
 20
130.703436
 30
0.0
 10
453.538693
 20
131.127436
 30
0.0
 10
451.600690
 20
131.248437
 30
0.0
 10
447.827684
 20
131.452437
 30
0.0
 10
441.778675
 20
131.813437
 30
0.0
 10
402.985616
 20
134.079441
 30
0.0
 10
402.177614
 20
114.283411
 30
0.0
 10
437.992669
 20
111.979407
 30
0.0
 10
442.050675
 20
111.551407
 30
0.0
 10
445.915681
 20
111.143406
 30
0.0
 10
446.720682
 20
111.060406
 30
0.0
 10
448.942686
 20
110.824405
 30
0.0
 10
449.546687
 20
110.758405
 30
0.0
 10
450.687689
 20
110.644405
 30
0.0
 10
459.553702
 20
109.742404
 30
0.0
 10
460.761704
 20
130.703436
 30
0.0
  0
LWPOLYLINE
  5
2b1
100
AcDbEntity
  8
sit_gravat
 62
7
100
AcDbPolyline
 90
16
 70
0
 10
459.045701
 20
104.702396
 30
0.0
 10
459.553702
 20
109.742404
 30
0.0
 10
450.687689
 20
110.644405
 30
0.0
 10
449.546687
 20
110.758405
 30
0.0
 10
448.942686
 20
110.824405
 30
0.0
 10
446.720682
 20
111.060406
 30
0.0
 10
445.915681
 20
111.143406
 30
0.0
 10
442.050675
 20
111.551407
 30
0.0
 10
437.992669
 20
111.979407
 30
0.0
 10
402.177614
 20
114.283411
 30
0.0
 10
401.601614
 20
100.207389
 30
0.0
 10
432.040660
 20
96.936384
 30
0.0
 10
442.794676
 20
95.831383
 30
0.0
 10
458.324700
 20
94.208380
 30
0.0
 10
458.689701
 20
97.668385
 30
0.0
 10
459.045701
 20
104.702396
 30
0.0
  0
LWPOLYLINE
  5
2b2
100
AcDbEntity
  8
sit_gravat
 62
7
100
AcDbPolyline
 90
15
 70
0
 10
426.503652
 20
48.781311
 30
0.0
 10
453.616693
 20
46.841308
 30
0.0
 10
455.029695
 20
46.714307
 30
0.0
 10
456.447697
 20
61.208330
 30
0.0
 10
457.240699
 20
70.161343
 30
0.0
 10
457.745699
 20
75.589352
 30
0.0
 10
449.043686
 20
76.405353
 30
0.0
 10
445.148680
 20
76.771353
 30
0.0
 10
441.725675
 20
77.092354
 30
0.0
 10
435.498665
 20
77.672355
 30
0.0
 10
400.825612
 20
81.283360
 30
0.0
 10
400.140611
 20
64.464335
 30
0.0
 10
399.524610
 20
51.161314
 30
0.0
 10
422.054645
 20
49.100311
 30
0.0
 10
426.503652
 20
48.781311
 30
0.0
  0
LWPOLYLINE
  5
2b3
100
AcDbEntity
  8
sit_gravat
 62
7
100
AcDbPolyline
 90
2
 70
0
 10
459.489702
 20
206.264551
 30
0.0
 10
406.211621
 20
197.460538
 30
0.0
  0
LWPOLYLINE
  5
2b4
100
AcDbEntity
  8
sit_gravat
 62
7
100
AcDbPolyline
 90
2
 70
0
 10
405.740620
 20
197.382538
 30
0.0
 10
405.389619
 20
189.471526
 30
0.0
  0
LWPOLYLINE
  5
2b5
100
AcDbEntity
  8
sit_gravat
 62
7
100
AcDbPolyline
 90
2
 70
0
 10
459.532702
 20
196.938537
 30
0.0
 10
459.475702
 20
206.896552
 30
0.0
  0
LWPOLYLINE
  5
2b6
100
AcDbEntity
  8
sit_gravat
 62
7
100
AcDbPolyline
 90
3
 70
0
 10
92.357041
 20
48.733311
 30
0.0
 10
164.494251
 20
73.369348
 30
0.0
 10
142.275217
 20
136.229444
 30
0.0
  0
LWPOLYLINE
  5
2b7
100
AcDbEntity
  8
sit_gravat
 62
7
100
AcDbPolyline
 90
12
 70
0
 10
72.411111
 20
95.883383
 30
0.0
 10
66.086201
 20
92.219377
 30
0.0
 10
61.558894
 20
89.521373
 30
0.0
 10
65.699500
 20
76.165352
 30
0.0
 10
69.395406
 20
64.244334
 30
0.0
 10
70.282007
 20
61.402330
 30
0.0
 10
74.627414
 20
47.334308
 30
0.0
 10
75.303215
 20
45.147305
 30
0.0
 10
75.587415
 20
45.236305
 30
0.0
 10
83.444727
 20
47.923309
 30
0.0
 10
90.190038
 20
50.229313
 30
0.0
 10
92.357041
 20
48.733311
 30
0.0
  0
LWPOLYLINE
  5
2b8
100
AcDbEntity
  8
sit_gravat
 62
7
100
AcDbPolyline
 90
12
 70
0
 10
28.108643
 20
29.127281
 30
0.0
 10
32.740250
 20
30.224282
 30
0.0
 10
37.710058
 20
31.113284
 30
0.0
 10
32.939250
 20
47.246308
 30
0.0
 10
32.470350
 20
48.416310
 30
0.0
 10
31.490848
 20
50.866314
 30
0.0
 10
30.769247
 20
52.652317
 30
0.0
 10
29.913046
 20
54.795320
 30
0.0
 10
29.212345
 20
56.744323
 30
0.0
 10
25.364239
 20
68.301340
 30
0.0
 10
25.221139
 20
68.567341
 30
0.0
 10
14.109422
 20
61.488330
 30
0.0
  0
LWPOLYLINE
  5
2b9
100
AcDbEntity
  8
sit_gravat
 62
7
100
AcDbPolyline
 90
5
 70
0
 10
14.109422
 20
35.931291
 30
0.0
 10
14.805723
 20
34.534289
 30
0.0
 10
19.087929
 20
26.863277
 30
0.0
 10
20.357831
 20
27.213278
 30
0.0
 10
28.108643
 20
29.127281
 30
0.0
  0
LWPOLYLINE
  5
2ba
100
AcDbEntity
  8
sit_gravat
 62
7
100
AcDbPolyline
 90
16
 70
0
 10
42.782565
 20
55.579321
 30
0.0
 10
41.752864
 20
58.424325
 30
0.0
 10
37.737758
 20
69.510342
 30
0.0
 10
37.371257
 20
74.735350
 30
0.0
 10
37.230357
 20
75.000351
 30
0.0
 10
25.221139
 20
68.567341
 30
0.0
 10
25.364239
 20
68.301340
 30
0.0
 10
29.212345
 20
56.744323
 30
0.0
 10
29.913046
 20
54.795320
 30
0.0
 10
30.769247
 20
52.652317
 30
0.0
 10
31.490848
 20
50.866314
 30
0.0
 10
32.470350
 20
48.416310
 30
0.0
 10
32.939250
 20
47.246308
 30
0.0
 10
37.710058
 20
31.113284
 30
0.0
 10
49.576576
 20
34.529289
 30
0.0
 10
42.782565
 20
55.579321
 30
0.0
  0
LWPOLYLINE
  5
2bb
100
AcDbEntity
  8
sit_gravat
 62
7
100
AcDbPolyline
 90
2
 70
0
 10
65.916901
 20
28.479280
 30
0.0
 10
70.661008
 20
13.856257
 30
0.0
  0
LWPOLYLINE
  5
2bc
100
AcDbEntity
  8
sit_gravat
 62
7
100
AcDbPolyline
 90
7
 70
0
 10
84.968430
 20
13.856257
 30
0.0
 10
83.488128
 20
18.716265
 30
0.0
 10
76.229416
 20
43.084302
 30
0.0
 10
69.864907
 20
40.940299
 30
0.0
 10
67.862904
 20
40.268298
 30
0.0
 10
62.692796
 20
38.411295
 30
0.0
 10
65.916901
 20
28.479280
 30
0.0
  0
LWPOLYLINE
  5
2bd
100
AcDbEntity
  8
sit_gravat
 62
7
100
AcDbPolyline
 90
12
 70
0
 10
70.661008
 20
13.856257
 30
0.0
 10
65.916901
 20
28.479280
 30
0.0
 10
62.657496
 20
38.516295
 30
0.0
 10
61.967995
 20
38.285295
 30
0.0
 10
59.908292
 20
37.589294
 30
0.0
 10
57.226787
 20
36.687292
 30
0.0
 10
56.900187
 20
36.638292
 30
0.0
 10
49.576576
 20
34.529289
 30
0.0
 10
52.467880
 20
25.813276
 30
0.0
 10
54.414283
 20
21.012268
 30
0.0
 10
55.712485
 20
17.140262
 30
0.0
 10
56.822687
 20
13.856257
 30
0.0
  0
LWPOLYLINE
  5
2be
100
AcDbEntity
  8
sit_gravat
 62
7
100
AcDbPolyline
 90
6
 70
0
 10
32.906050
 20
13.856257
 30
0.0
 10
32.740250
 20
30.224282
 30
0.0
 10
28.108643
 20
29.127281
 30
0.0
 10
20.357831
 20
27.213278
 30
0.0
 10
19.087929
 20
26.863277
 30
0.0
 10
19.162829
 20
13.856257
 30
0.0
  0
LWPOLYLINE
  5
2bf
100
AcDbEntity
  8
sit_gravat
 62
7
100
AcDbPolyline
 90
8
 70
0
 10
142.275217
 20
136.229444
 30
0.0
 10
164.494251
 20
73.369348
 30
0.0
 10
92.357041
 20
48.733311
 30
0.0
 10
90.190038
 20
50.229313
 30
0.0
 10
83.444727
 20
47.923309
 30
0.0
 10
75.587415
 20
45.236305
 30
0.0
 10
83.488128
 20
18.716265
 30
0.0
 10
84.968430
 20
13.856257
 30
0.0
  0
LWPOLYLINE
  5
2c0
100
AcDbEntity
  8
sit_gravat
 62
7
100
AcDbPolyline
 90
6
 70
0
 10
397.802608
 20
13.856257
 30
0.0
 10
400.140611
 20
64.464335
 30
0.0
 10
403.567617
 20
148.315463
 30
0.0
 10
404.141617
 20
161.261482
 30
0.0
 10
404.721618
 20
174.357502
 30
0.0
 10
405.060619
 20
182.034514
 30
0.0
  0
LWPOLYLINE
  5
2c1
100
AcDbEntity
  8
sit_gravat
 62
7
100
AcDbPolyline
 90
7
 70
0
 10
55.623285
 20
167.570492
 30
0.0
 10
33.433451
 20
154.079472
 30
0.0
 10
30.394946
 20
152.321469
 30
0.0
 10
28.790244
 20
151.337467
 30
0.0
 10
27.893743
 20
150.785466
 30
0.0
 10
22.425734
 20
147.460461
 30
0.0
 10
14.109422
 20
142.433454
 30
0.0
  0
LWPOLYLINE
  5
2c2
100
AcDbEntity
  8
sit_gravat
 62
7
100
AcDbPolyline
 90
11
 70
0
 10
14.109422
 20
134.671442
 30
0.0
 10
15.305823
 20
132.737439
 30
0.0
 10
36.929256
 20
145.824459
 30
0.0
 10
38.573959
 20
146.810460
 30
0.0
 10
41.039763
 20
148.300463
 30
0.0
 10
42.277165
 20
149.049464
 30
0.0
 10
44.962269
 20
150.671466
 30
0.0
 10
48.443374
 20
152.769470
 30
0.0
 10
49.401575
 20
153.440471
 30
0.0
 10
60.429192
 20
160.062481
 30
0.0
 10
55.623285
 20
167.570492
 30
0.0
  0
LWPOLYLINE
  5
2c3
100
AcDbEntity
  8
sit_gravat
 62
7
100
AcDbPolyline
 90
9
 70
0
 10
14.109422
 20
80.282359
 30
0.0
 10
14.111622
 20
80.278359
 30
0.0
 10
14.355722
 20
79.932358
 30
0.0
 10
14.778623
 20
80.323359
 30
0.0
 10
22.827435
 20
85.305366
 30
0.0
 10
17.342626
 20
94.747381
 30
0.0
 10
16.712526
 20
95.788382
 30
0.0
 10
15.045723
 20
98.534387
 30
0.0
 10
14.109422
 20
100.076389
 30
0.0
  0
LWPOLYLINE
  5
2c4
100
AcDbEntity
  8
sit_gravat
 62
7
100
AcDbPolyline
 90
12
 70
0
 10
14.109422
 20
541.622064
 30
0.0
 10
56.279986
 20
546.213071
 30
0.0
 10
90.197738
 20
549.905076
 30
0.0
 10
110.200168
 20
552.083080
 30
0.0
 10
109.775168
 20
555.760085
 30
0.0
 10
109.646168
 20
556.877087
 30
0.0
 10
107.099164
 20
556.646087
 30
0.0
 10
102.752157
 20
593.166142
 30
0.0
 10
103.743158
 20
598.688151
 30
0.0
 10
51.428179
 20
594.251144
 30
0.0
 10
51.155778
 20
594.231144
 30
0.0
 10
14.109422
 20
591.507140
 30
0.0
  0
LWPOLYLINE
  5
2c5
100
AcDbEntity
  8
sit_gravat
 62
7
100
AcDbPolyline
 90
9
 70
0
 10
440.265673
 20
612.563272
 30
0.0
 10
442.423676
 20
617.841080
 30
0.0
 10
441.497675
 20
635.177607
 30
0.0
 10
435.445665
 20
634.525706
 30
0.0
 10
431.058659
 20
677.929372
 30
0.0
 10
428.317654
 20
677.676071
 30
0.0
 10
427.939654
 20
681.350777
 30
0.0
 10
415.158634
 20
679.986775
 30
0.0
 10
414.550633
 20
685.877384
 30
0.0
  0
LWPOLYLINE
  5
2c6
100
AcDbEntity
  8
sit_gravat
 62
7
100
AcDbPolyline
 90
36
 70
0
 10
223.818342
 20
685.877384
 30
0.0
 10
224.393343
 20
680.800476
 30
0.0
 10
226.550346
 20
660.593345
 30
0.0
 10
243.691372
 20
662.653849
 30
0.0
 10
245.741375
 20
646.935624
 30
0.0
 10
246.043376
 20
644.618621
 30
0.0
 10
249.589381
 20
645.065322
 30
0.0
 10
251.442384
 20
631.127300
 30
0.0
 10
256.518392
 20
616.680378
 30
0.0
 10
258.037394
 20
601.304755
 30
0.0
 10
261.721400
 20
562.215095
 30
0.0
 10
263.072402
 20
549.619076
 30
0.0
 10
313.952480
 20
516.632025
 30
0.0
 10
330.230505
 20
505.721009
 30
0.0
 10
334.286511
 20
508.805013
 30
0.0
 10
339.502519
 20
504.928008
 30
0.0
 10
344.371526
 20
545.281069
 30
0.0
 10
352.309538
 20
546.545071
 30
0.0
 10
351.402537
 20
554.234083
 30
0.0
 10
351.255537
 20
555.481085
 30
0.0
 10
351.931538
 20
555.606085
 30
0.0
 10
354.375541
 20
555.852085
 30
0.0
 10
374.958573
 20
557.833088
 30
0.0
 10
375.810574
 20
557.931089
 30
0.0
 10
380.675582
 20
558.492089
 30
0.0
 10
381.378583
 20
558.563089
 30
0.0
 10
402.476615
 20
560.682093
 30
0.0
 10
404.949619
 20
561.114093
 30
0.0
 10
410.058626
 20
561.722094
 30
0.0
 10
426.372651
 20
563.496097
 30
0.0
 10
445.517681
 20
565.624100
 30
0.0
 10
445.230680
 20
568.171104
 30
0.0
 10
444.422679
 20
575.084115
 30
0.0
 10
441.875675
 20
600.116753
 30
0.0
 10
440.737673
 20
610.097268
 30
0.0
 10
440.265673
 20
612.563272
 30
0.0
  0
LWPOLYLINE
  5
2c7
100
AcDbEntity
  8
sit_gravat
 62
7
100
AcDbPolyline
 90
3
 70
0
 10
381.170582
 20
394.397839
 30
0.0
 10
475.819727
 20
355.170779
 30
0.0
 10
486.129743
 20
349.223770
 30
0.0
  0
LWPOLYLINE
  5
2c8
100
AcDbEntity
  8
sit_gravat
 62
7
100
AcDbPolyline
 90
2
 70
0
 10
131.834201
 20
220.227573
 30
0.0
 10
142.470218
 20
226.207582
 30
0.0
  0
LWPOLYLINE
  5
2c9
100
AcDbEntity
  8
sit_gravat
 62
7
100
AcDbPolyline
 90
2
 70
0
 10
111.149170
 20
319.685725
 30
0.0
 10
137.849211
 20
334.023746
 30
0.0
  0
LWPOLYLINE
  5
2ca
100
AcDbEntity
  8
sit_gravat
 62
7
100
AcDbPolyline
 90
2
 70
0
 10
243.133371
 20
436.309903
 30
0.0
 10
152.853234
 20
465.203947
 30
0.0
  0
LWPOLYLINE
  5
2cb
100
AcDbEntity
  8
sit_gravat
 62
7
100
AcDbPolyline
 90
8
 70
0
 10
134.536206
 20
471.066956
 30
0.0
 10
131.666201
 20
470.969956
 30
0.0
 10
129.169197
 20
470.881956
 30
0.0
 10
124.171190
 20
470.710955
 30
0.0
 10
121.674186
 20
470.627955
 30
0.0
 10
121.672186
 20
470.626955
 30
0.0
 10
119.175182
 20
470.541955
 30
0.0
 10
118.759181
 20
470.537955
 30
0.0
  0
LWPOLYLINE
  5
2cc
100
AcDbEntity
  8
sit_gravat
 62
7
100
AcDbPolyline
 90
2
 70
0
 10
103.759159
 20
470.412955
 30
0.0
 10
111.149170
 20
319.685725
 30
0.0
  0
LWPOLYLINE
  5
2cd
100
AcDbEntity
  8
sit_gravat
 62
7
100
AcDbPolyline
 90
2
 70
0
 10
88.379735
 20
469.535953
 30
0.0
 10
99.188652
 20
347.743767
 30
0.0
  0
LWPOLYLINE
  5
2ce
100
AcDbEntity
  8
sit_gravat
 62
7
100
AcDbPolyline
 90
2
 70
0
 10
16.428625
 20
470.635955
 30
0.0
 10
14.109422
 20
470.272955
 30
0.0
  0
LWPOLYLINE
  5
2cf
100
AcDbEntity
  8
sit_gravat
 62
7
100
AcDbPolyline
 90
2
 70
0
 10
14.109422
 20
364.948794
 30
0.0
 10
18.906529
 20
346.466765
 30
0.0
  0
LWPOLYLINE
  5
2d0
100
AcDbEntity
  8
sit_gravat
 62
7
100
AcDbPolyline
 90
2
 70
0
 10
44.683468
 20
467.871951
 30
0.0
 10
35.590154
 20
467.305950
 30
0.0
  0
LWPOLYLINE
  5
2d1
100
AcDbEntity
  8
sit_gravat
 62
7
100
AcDbPolyline
 90
2
 70
0
 10
53.774482
 20
468.439952
 30
0.0
 10
66.898502
 20
469.232953
 30
0.0
  0
LWPOLYLINE
  5
2d2
100
AcDbEntity
  8
sit_gravat
 62
7
100
AcDbPolyline
 90
3
 70
0
 10
160.116245
 20
166.699491
 30
0.0
 10
156.027238
 20
175.785505
 30
0.0
 10
160.116245
 20
166.699491
 30
0.0
  0
LWPOLYLINE
  5
2d3
100
AcDbEntity
  8
sit_gravat
 62
7
100
AcDbPolyline
 90
55
 70
0
 10
118.759181
 20
470.537955
 30
0.0
 10
113.759174
 20
470.496955
 30
0.0
 10
111.257170
 20
470.474955
 30
0.0
 10
111.257170
 20
470.472955
 30
0.0
 10
111.257170
 20
470.474955
 30
0.0
 10
108.759166
 20
470.453955
 30
0.0
 10
103.759159
 20
470.412955
 30
0.0
 10
98.757851
 20
470.369955
 30
0.0
 10
93.758343
 20
470.325955
 30
0.0
 10
92.658242
 20
470.286955
 30
0.0
 10
90.161438
 20
470.198954
 30
0.0
 10
85.162030
 20
470.021954
 30
0.0
 10
82.665626
 20
469.929954
 30
0.0
 10
80.166822
 20
469.842954
 30
0.0
 10
75.169615
 20
469.662954
 30
0.0
 10
75.678116
 20
464.690946
 30
0.0
 10
76.082816
 20
460.709940
 30
0.0
 10
76.129616
 20
460.082939
 30
0.0
 10
76.319317
 20
457.588935
 30
0.0
 10
76.692617
 20
452.602928
 30
0.0
 10
77.067818
 20
447.615920
 30
0.0
 10
77.442818
 20
442.631912
 30
0.0
 10
77.628619
 20
440.137909
 30
0.0
 10
77.816119
 20
437.644905
 30
0.0
 10
77.929119
 20
436.152902
 30
0.0
 10
78.116619
 20
433.660899
 30
0.0
 10
78.302320
 20
431.165895
 30
0.0
 10
78.492020
 20
428.671891
 30
0.0
 10
78.865120
 20
423.687883
 30
0.0
 10
79.240121
 20
418.703876
 30
0.0
 10
79.615622
 20
413.714868
 30
0.0
 10
79.988622
 20
408.730861
 30
0.0
 10
80.178122
 20
406.238857
 30
0.0
 10
80.363823
 20
403.743853
 30
0.0
 10
80.739123
 20
398.757845
 30
0.0
 10
81.112324
 20
393.770838
 30
0.0
 10
81.301824
 20
391.278834
 30
0.0
 10
81.487324
 20
388.786830
 30
0.0
 10
81.862625
 20
383.800822
 30
0.0
 10
82.050125
 20
381.308819
 30
0.0
 10
82.235826
 20
378.813815
 30
0.0
 10
82.611126
 20
373.827807
 30
0.0
 10
82.986127
 20
368.842800
 30
0.0
 10
83.173827
 20
366.348796
 30
0.0
 10
83.359327
 20
363.856792
 30
0.0
 10
83.734628
 20
358.870784
 30
0.0
 10
84.109829
 20
353.883777
 30
0.0
 10
84.484829
 20
348.899769
 30
0.0
 10
84.860130
 20
343.912762
 30
0.0
 10
85.045830
 20
341.418758
 30
0.0
 10
85.047830
 20
341.418758
 30
0.0
 10
85.045830
 20
341.418758
 30
0.0
 10
85.235330
 20
338.926754
 30
0.0
 10
85.697631
 20
332.917745
 30
0.0
 10
86.327532
 20
324.734732
 30
0.0
  0
LWPOLYLINE
  5
2d4
100
AcDbEntity
  8
sit_gravat
 62
7
100
AcDbPolyline
 90
14
 70
0
 10
87.190833
 20
312.969714
 30
0.0
 10
87.631234
 20
311.594712
 30
0.0
 10
88.394135
 20
309.214709
 30
0.0
 10
89.159236
 20
306.831705
 30
0.0
 10
91.331740
 20
307.978707
 30
0.0
 10
93.542443
 20
309.145708
 30
0.0
 10
95.755046
 20
310.313710
 30
0.0
 10
99.555652
 20
312.281713
 30
0.0
 10
101.663155
 20
313.626715
 30
0.0
 10
103.770159
 20
314.974717
 30
0.0
 10
105.877162
 20
316.319719
 30
0.0
 10
107.984165
 20
317.664721
 30
0.0
 10
110.091168
 20
319.009723
 30
0.0
 10
111.149170
 20
319.685725
 30
0.0
  0
LWPOLYLINE
  5
2d5
100
AcDbEntity
  8
sit_gravat
 62
7
100
AcDbPolyline
 90
3
 70
0
 10
283.204433
 20
419.364877
 30
0.0
 10
246.488377
 20
435.237901
 30
0.0
 10
243.133371
 20
436.309903
 30
0.0
  0
LWPOLYLINE
  5
2d6
100
AcDbEntity
  8
sit_gravat
 62
7
100
AcDbPolyline
 90
2
 70
0
 10
152.853234
 20
465.203947
 30
0.0
 10
134.536206
 20
471.066956
 30
0.0
  0
LWPOLYLINE
  5
2d7
100
AcDbEntity
  8
sit_gravat
 62
7
100
AcDbPolyline
 90
2
 70
0
 10
134.538206
 20
471.066956
 30
0.0
 10
134.536206
 20
471.066956
 30
0.0
  0
LWPOLYLINE
  5
2d8
100
AcDbEntity
  8
sit_gravat
 62
7
100
AcDbPolyline
 90
16
 70
0
 10
138.693212
 20
321.949728
 30
0.0
 10
138.945212
 20
315.682718
 30
0.0
 10
139.146213
 20
310.685711
 30
0.0
 10
139.248213
 20
308.190707
 30
0.0
 10
139.348213
 20
305.691703
 30
0.0
 10
139.547213
 20
300.693696
 30
0.0
 10
139.649213
 20
298.196692
 30
0.0
 10
139.748214
 20
295.699688
 30
0.0
 10
139.949214
 20
290.702680
 30
0.0
 10
140.004214
 20
289.362678
 30
0.0
 10
140.105214
 20
288.041676
 30
0.0
 10
140.488215
 20
283.056669
 30
0.0
 10
140.869215
 20
278.070661
 30
0.0
 10
141.250216
 20
273.086653
 30
0.0
 10
142.613218
 20
269.497648
 30
0.0
 10
144.385221
 20
264.818641
 30
0.0
  0
LWPOLYLINE
  5
2d9
100
AcDbEntity
  8
sit_gravat
 62
7
100
AcDbPolyline
 90
5
 70
0
 10
174.888267
 20
195.532535
 30
0.0
 10
175.601268
 20
193.733532
 30
0.0
 10
177.442271
 20
189.086525
 30
0.0
 10
179.288274
 20
184.436518
 30
0.0
 10
181.129277
 20
179.791511
 30
0.0
  0
LWPOLYLINE
  5
2da
100
AcDbEntity
  8
sit_gravat
 62
7
100
AcDbPolyline
 90
6
 70
0
 10
14.109422
 20
224.507579
 30
0.0
 10
20.541831
 20
228.498585
 30
0.0
 10
21.188732
 20
228.901586
 30
0.0
 10
21.648133
 20
229.553587
 30
0.0
 10
21.504233
 20
230.336588
 30
0.0
 10
14.109422
 20
241.569605
 30
0.0
  0
LWPOLYLINE
  5
2db
100
AcDbEntity
  8
sit_gravat
 62
7
100
AcDbPolyline
 90
2
 70
0
 10
100.202153
 20
328.723738
 30
0.0
 10
101.096154
 20
313.264715
 30
0.0
  0
LWPOLYLINE
  5
2dc
100
AcDbEntity
  8
sit_gravat
 62
7
100
AcDbPolyline
 90
8
 70
0
 10
156.027238
 20
175.785505
 30
0.0
 10
150.660230
 20
187.715523
 30
0.0
 10
150.794230
 20
187.783523
 30
0.0
 10
146.013223
 20
197.203537
 30
0.0
 10
142.470218
 20
226.207582
 30
0.0
 10
98.154650
 20
296.912690
 30
0.0
 10
98.349750
 20
296.629689
 30
0.0
 10
96.906748
 20
298.910693
 30
0.0
  0
LWPOLYLINE
  5
2dd
100
AcDbEntity
  8
sit_gravat
 62
7
100
AcDbPolyline
 90
6
 70
0
 10
181.144277
 20
179.539510
 30
0.0
 10
181.129277
 20
179.789511
 30
0.0
 10
179.288274
 20
184.436518
 30
0.0
 10
177.442271
 20
189.086525
 30
0.0
 10
175.601268
 20
193.733532
 30
0.0
 10
174.888267
 20
195.532535
 30
0.0
  0
LWPOLYLINE
  5
2de
100
AcDbEntity
  8
sit_gravat
 62
7
100
AcDbPolyline
 90
9
 70
0
 10
145.287222
 20
262.071637
 30
0.0
 10
144.385221
 20
264.818641
 30
0.0
 10
142.613218
 20
269.497648
 30
0.0
 10
141.250216
 20
273.086653
 30
0.0
 10
141.563216
 20
268.095646
 30
0.0
 10
141.877217
 20
263.104638
 30
0.0
 10
141.940217
 20
262.075637
 30
0.0
 10
142.470218
 20
226.207582
 30
0.0
 10
146.013223
 20
197.203537
 30
0.0
  0
LWPOLYLINE
  5
2df
100
AcDbEntity
  8
sit_gravat
 62
7
100
AcDbPolyline
 90
2
 70
0
 10
168.375257
 20
171.614498
 30
0.0
 10
142.470218
 20
226.207582
 30
0.0
  0
LWPOLYLINE
  5
2e0
100
AcDbEntity
  8
sit_gravat
 62
7
100
AcDbPolyline
 90
32
 70
0
 10
94.284044
 20
685.877384
 30
0.0
 10
98.109150
 20
650.338030
 30
0.0
 10
99.180952
 20
640.332314
 30
0.0
 10
103.743158
 20
598.688151
 30
0.0
 10
102.752157
 20
593.166142
 30
0.0
 10
107.099164
 20
556.646087
 30
0.0
 10
109.646168
 20
556.877087
 30
0.0
 10
109.775168
 20
555.760085
 30
0.0
 10
110.200168
 20
552.083080
 30
0.0
 10
136.666209
 20
554.968084
 30
0.0
 10
182.158278
 20
557.947089
 30
0.0
 10
221.995339
 20
549.162075
 30
0.0
 10
223.659342
 20
548.486074
 30
0.0
 10
235.527360
 20
544.289068
 30
0.0
 10
237.427363
 20
543.590067
 30
0.0
 10
254.697389
 20
536.708056
 30
0.0
 10
255.529390
 20
538.042058
 30
0.0
 10
259.003396
 20
543.874067
 30
0.0
 10
259.724397
 20
544.945069
 30
0.0
 10
262.832402
 20
549.184075
 30
0.0
 10
263.072402
 20
549.619076
 30
0.0
 10
261.721400
 20
562.215095
 30
0.0
 10
258.037394
 20
601.304755
 30
0.0
 10
256.518392
 20
616.680378
 30
0.0
 10
251.442384
 20
631.127300
 30
0.0
 10
249.589381
 20
645.065322
 30
0.0
 10
246.043376
 20
644.618621
 30
0.0
 10
245.741375
 20
646.935624
 30
0.0
 10
243.691372
 20
662.653849
 30
0.0
 10
226.550346
 20
660.593345
 30
0.0
 10
224.393343
 20
680.800476
 30
0.0
 10
223.818342
 20
685.877384
 30
0.0
  0
LWPOLYLINE
  5
2e1
100
AcDbEntity
  8
sit_gravat
 62
7
100
AcDbPolyline
 90
4
 70
0
 10
486.129743
 20
416.028872
 30
0.0
 10
478.409731
 20
420.498879
 30
0.0
 10
474.554725
 20
422.733882
 30
0.0
 10
454.913695
 20
432.704897
 30
0.0
  0
LWPOLYLINE
  5
2e2
100
AcDbEntity
  8
sit_gravat
 62
7
100
AcDbPolyline
 90
10
 70
0
 10
84.181329
 20
121.368422
 30
0.0
 10
74.483414
 20
137.192446
 30
0.0
 10
72.049310
 20
135.743443
 30
0.0
 10
59.641091
 20
128.319432
 30
0.0
 10
56.351186
 20
126.353429
 30
0.0
 10
42.753065
 20
118.204417
 30
0.0
 10
40.277162
 20
116.827415
 30
0.0
 10
42.600165
 20
112.908409
 30
0.0
 10
49.905776
 20
100.861390
 30
0.0
 10
84.181329
 20
121.368422
 30
0.0
  0
LWPOLYLINE
  5
2e3
100
AcDbEntity
  8
sit_gravat
 62
7
100
AcDbPolyline
 90
18
 70
0
 10
70.871108
 20
260.925635
 30
0.0
 10
66.414501
 20
268.743647
 30
0.0
 10
61.582494
 20
276.797659
 30
0.0
 10
60.389792
 20
278.776662
 30
0.0
 10
50.452877
 20
272.790653
 30
0.0
 10
48.187174
 20
271.516651
 30
0.0
 10
33.570451
 20
262.866638
 30
0.0
 10
15.561124
 20
252.139621
 30
0.0
 10
20.576431
 20
244.138609
 30
0.0
 10
23.003135
 20
240.189603
 30
0.0
 10
25.234639
 20
236.638598
 30
0.0
 10
26.860941
 20
234.158594
 30
0.0
 10
29.455545
 20
235.666596
 30
0.0
 10
33.572951
 20
238.322600
 30
0.0
 10
37.690458
 20
240.978604
 30
0.0
 10
45.923570
 20
246.306612
 30
0.0
 10
48.017773
 20
247.659614
 30
0.0
 10
70.871108
 20
260.925635
 30
0.0
  0
LWPOLYLINE
  5
2e4
100
AcDbEntity
  8
sit_gravat
 62
7
100
AcDbPolyline
 90
7
 70
0
 10
14.109422
 20
261.967636
 30
0.0
 10
14.675622
 20
262.302637
 30
0.0
 10
15.557324
 20
262.823638
 30
0.0
 10
19.960330
 20
265.422642
 30
0.0
 10
29.725745
 20
270.962650
 30
0.0
 10
27.603342
 20
278.636662
 30
0.0
 10
14.109422
 20
326.355735
 30
0.0
  0
LWPOLYLINE
  5
2e5
100
AcDbEntity
  8
sit_gravat
 62
7
100
AcDbPolyline
 90
11
 70
0
 10
84.994830
 20
236.160597
 30
0.0
 10
80.605023
 20
243.860609
 30
0.0
 10
53.805982
 20
227.421584
 30
0.0
 10
40.786662
 20
219.503571
 30
0.0
 10
37.111957
 20
217.184568
 30
0.0
 10
42.232765
 20
208.949555
 30
0.0
 10
46.902572
 20
212.008560
 30
0.0
 10
55.187284
 20
217.192568
 30
0.0
 10
59.406191
 20
219.877572
 30
0.0
 10
61.863895
 20
221.443574
 30
0.0
 10
84.994830
 20
236.160597
 30
0.0
  0
LWPOLYLINE
  5
2e6
100
AcDbEntity
  8
sit_gravat
 62
7
100
AcDbPolyline
 90
11
 70
0
 10
70.871108
 20
260.925635
 30
0.0
 10
48.017773
 20
247.659614
 30
0.0
 10
45.923570
 20
246.306612
 30
0.0
 10
37.690458
 20
240.978604
 30
0.0
 10
33.572951
 20
238.322600
 30
0.0
 10
29.455545
 20
235.666596
 30
0.0
 10
26.860941
 20
234.158594
 30
0.0
 10
32.455350
 20
224.821580
 30
0.0
 10
52.324580
 20
236.365597
 30
0.0
 10
76.779217
 20
250.572619
 30
0.0
 10
70.871108
 20
260.925635
 30
0.0
  0
LWPOLYLINE
  5
2e7
100
AcDbEntity
  8
sit_gravat
 62
7
100
AcDbPolyline
 90
10
 70
0
 10
26.220240
 20
188.349524
 30
0.0
 10
28.232443
 20
189.604526
 30
0.0
 10
29.867346
 20
190.625527
 30
0.0
 10
37.160157
 20
195.171534
 30
0.0
 10
38.389959
 20
195.936535
 30
0.0
 10
35.082154
 20
201.337544
 30
0.0
 10
32.516250
 20
205.591550
 30
0.0
 10
30.773847
 20
208.498555
 30
0.0
 10
14.744323
 20
198.688540
 30
0.0
 10
14.109422
 20
198.300539
 30
0.0
  0
LWPOLYLINE
  5
2e8
100
AcDbEntity
  8
sit_gravat
 62
7
100
AcDbPolyline
 90
2
 70
0
 10
14.109422
 20
180.989513
 30
0.0
 10
26.220240
 20
188.349524
 30
0.0
  0
LWPOLYLINE
  5
2e9
100
AcDbEntity
  8
sit_gravat
 62
7
100
AcDbPolyline
 90
3
 70
0
 10
123.244188
 20
304.996702
 30
0.0
 10
120.787185
 20
309.348709
 30
0.0
 10
119.617183
 20
311.431712
 30
0.0
  0
LWPOLYLINE
  5
2ea
100
AcDbEntity
  8
sit_gravat
 62
7
100
AcDbPolyline
 90
5
 70
0
 10
112.052171
 20
307.260706
 30
0.0
 10
112.810172
 20
306.012704
 30
0.0
 10
120.725184
 20
290.985681
 30
0.0
 10
122.885188
 20
286.881674
 30
0.0
 10
141.951217
 20
262.083637
 30
0.0
  0
LWPOLYLINE
  5
2eb
100
AcDbEntity
  8
sit_gravat
 62
7
100
AcDbPolyline
 90
6
 70
0
 10
141.940217
 20
262.075637
 30
0.0
 10
141.877217
 20
263.104638
 30
0.0
 10
141.719217
 20
265.600642
 30
0.0
 10
141.563216
 20
268.095646
 30
0.0
 10
141.250216
 20
273.086653
 30
0.0
 10
140.444215
 20
274.513656
 30
0.0
  0
LWPOLYLINE
  5
2ec
100
AcDbEntity
  8
sit_gravat
 62
7
100
AcDbPolyline
 90
9
 70
0
 10
137.988211
 20
278.867662
 30
0.0
 10
135.530207
 20
283.221669
 30
0.0
 10
133.073203
 20
287.574675
 30
0.0
 10
131.844201
 20
289.752679
 30
0.0
 10
131.844201
 20
289.754679
 30
0.0
 10
130.616200
 20
291.930682
 30
0.0
 10
128.160196
 20
296.286689
 30
0.0
 10
125.702192
 20
300.640695
 30
0.0
 10
123.244188
 20
304.996702
 30
0.0
  0
LWPOLYLINE
  5
2ed
100
AcDbEntity
  8
sit_gravat
 62
7
100
AcDbPolyline
 90
7
 70
0
 10
90.218138
 20
227.003583
 30
0.0
 10
47.553673
 20
200.214542
 30
0.0
 10
57.797988
 20
184.002517
 30
0.0
 10
68.955505
 20
191.196528
 30
0.0
 10
78.862920
 20
197.648538
 30
0.0
 10
99.415152
 20
210.878558
 30
0.0
 10
90.218138
 20
227.003583
 30
0.0
  0
LWPOLYLINE
  5
2ee
100
AcDbEntity
  8
sit_gravat
 62
7
100
AcDbPolyline
 90
7
 70
0
 10
99.415152
 20
210.878558
 30
0.0
 10
78.862920
 20
197.648538
 30
0.0
 10
68.955505
 20
191.196528
 30
0.0
 10
57.797988
 20
184.002517
 30
0.0
 10
67.657303
 20
167.288492
 30
0.0
 10
108.803166
 20
194.415533
 30
0.0
 10
99.415152
 20
210.878558
 30
0.0
  0
LWPOLYLINE
  5
2ef
100
AcDbEntity
  8
sit_gravat
 62
7
100
AcDbPolyline
 90
6
 70
0
 10
108.803166
 20
194.415533
 30
0.0
 10
67.657303
 20
167.288492
 30
0.0
 10
72.683311
 20
159.978481
 30
0.0
 10
73.137112
 20
159.232479
 30
0.0
 10
115.040176
 20
186.138520
 30
0.0
 10
108.803166
 20
194.415533
 30
0.0
  0
LWPOLYLINE
  5
2f0
100
AcDbEntity
  8
sit_gravat
 62
7
100
AcDbPolyline
 90
14
 70
0
 10
120.958185
 20
176.049505
 30
0.0
 10
117.025179
 20
173.576501
 30
0.0
 10
114.927176
 20
172.213499
 30
0.0
 10
112.830172
 20
170.853497
 30
0.0
 10
108.635166
 20
168.135493
 30
0.0
 10
106.537163
 20
166.772491
 30
0.0
 10
104.440160
 20
165.412489
 30
0.0
 10
102.905157
 20
166.316490
 30
0.0
 10
99.805252
 20
164.306487
 30
0.0
 10
78.279620
 20
150.812467
 30
0.0
 10
73.137112
 20
159.232479
 30
0.0
 10
115.040176
 20
186.138520
 30
0.0
 10
118.542181
 20
180.168511
 30
0.0
 10
120.958185
 20
176.049505
 30
0.0
  0
LWPOLYLINE
  5
2f1
100
AcDbEntity
  8
sit_gravat
 62
7
100
AcDbPolyline
 90
2
 70
0
 10
53.774482
 20
468.439952
 30
0.0
 10
44.683468
 20
467.871951
 30
0.0
  0
LWPOLYLINE
  5
2f2
100
AcDbEntity
  8
sit_gravat
 62
7
100
AcDbPolyline
 90
4
 70
0
 10
58.388389
 20
324.934733
 30
0.0
 10
60.233092
 20
312.681714
 30
0.0
 10
63.206097
 20
294.246686
 30
0.0
 10
64.070698
 20
291.742682
 30
0.0
  0
LWPOLYLINE
  5
2f3
100
AcDbEntity
  8
sit_gravat
 62
7
100
AcDbPolyline
 90
8
 70
0
 10
52.606080
 20
284.918671
 30
0.0
 10
71.363309
 20
296.082688
 30
0.0
 10
76.312617
 20
298.972693
 30
0.0
 10
75.526415
 20
303.908700
 30
0.0
 10
75.130315
 20
306.376704
 30
0.0
 10
72.768811
 20
321.191727
 30
0.0
 10
72.034010
 20
325.815734
 30
0.0
 10
53.774482
 20
468.439952
 30
0.0
  0
LWPOLYLINE
  5
2f4
100
AcDbEntity
  8
sit_gravat
 62
7
100
AcDbPolyline
 90
11
 70
0
 10
457.745699
 20
75.589352
 30
0.0
 10
458.324700
 20
94.208380
 30
0.0
 10
442.794676
 20
95.831383
 30
0.0
 10
432.040660
 20
96.936384
 30
0.0
 10
401.601614
 20
100.207389
 30
0.0
 10
400.825612
 20
81.283360
 30
0.0
 10
435.498665
 20
77.672355
 30
0.0
 10
441.725675
 20
77.092354
 30
0.0
 10
445.148680
 20
76.771353
 30
0.0
 10
449.043686
 20
76.405353
 30
0.0
 10
457.745699
 20
75.589352
 30
0.0
  0
LWPOLYLINE
  5
2f5
100
AcDbEntity
  8
sit_gravat
 62
7
100
AcDbPolyline
 90
16
 70
0
 10
439.393671
 20
32.464286
 30
0.0
 10
452.934692
 20
31.576284
 30
0.0
 10
453.161692
 20
35.048290
 30
0.0
 10
455.029695
 20
46.714307
 30
0.0
 10
453.616693
 20
46.841308
 30
0.0
 10
426.503652
 20
48.781311
 30
0.0
 10
422.054645
 20
49.100311
 30
0.0
 10
399.524610
 20
51.161314
 30
0.0
 10
398.792609
 20
35.288290
 30
0.0
 10
422.286645
 20
33.547287
 30
0.0
 10
422.923646
 20
33.515287
 30
0.0
 10
425.424650
 20
33.335287
 30
0.0
 10
426.155651
 20
33.284287
 30
0.0
 10
428.785655
 20
33.122287
 30
0.0
 10
432.846661
 20
32.862286
 30
0.0
 10
439.393671
 20
32.464286
 30
0.0
  0
LWPOLYLINE
  5
2f6
100
AcDbEntity
  8
sit_gravat
 62
7
100
AcDbPolyline
 90
22
 70
0
 10
431.195659
 20
17.156262
 30
0.0
 10
436.180666
 20
16.777262
 30
0.0
 10
440.667673
 20
16.433261
 30
0.0
 10
450.308688
 20
15.698260
 30
0.0
 10
452.038691
 20
15.567260
 30
0.0
 10
452.429691
 20
20.735268
 30
0.0
 10
452.974692
 20
27.902279
 30
0.0
 10
453.205692
 20
31.557284
 30
0.0
 10
452.934692
 20
31.576284
 30
0.0
 10
439.393671
 20
32.462286
 30
0.0
 10
432.846661
 20
32.862286
 30
0.0
 10
428.785655
 20
33.122287
 30
0.0
 10
426.155651
 20
33.284287
 30
0.0
 10
425.424650
 20
33.335287
 30
0.0
 10
422.923646
 20
33.515287
 30
0.0
 10
422.286645
 20
33.547287
 30
0.0
 10
398.792609
 20
35.288290
 30
0.0
 10
398.073608
 20
19.714266
 30
0.0
 10
422.257645
 20
17.850263
 30
0.0
 10
423.753647
 20
17.727263
 30
0.0
 10
424.955649
 20
17.637263
 30
0.0
 10
431.195659
 20
17.156262
 30
0.0
  0
LWPOLYLINE
  5
2f7
100
AcDbEntity
  8
sit_gravat
 62
7
100
AcDbPolyline
 90
12
 70
0
 10
451.855690
 20
13.856257
 30
0.0
 10
452.038691
 20
15.567260
 30
0.0
 10
450.308688
 20
15.698260
 30
0.0
 10
440.667673
 20
16.433261
 30
0.0
 10
436.180666
 20
16.777262
 30
0.0
 10
432.980661
 20
17.021262
 30
0.0
 10
431.195659
 20
17.156262
 30
0.0
 10
424.955649
 20
17.637263
 30
0.0
 10
423.753647
 20
17.727263
 30
0.0
 10
422.257645
 20
17.850263
 30
0.0
 10
398.073608
 20
19.714266
 30
0.0
 10
397.802608
 20
13.856257
 30
0.0
  0
LWPOLYLINE
  5
2f8
100
AcDbEntity
  8
sit_gravat
 62
7
100
AcDbPolyline
 90
7
 70
0
 10
440.115672
 20
156.333475
 30
0.0
 10
439.851672
 20
162.707485
 30
0.0
 10
435.802666
 20
162.544484
 30
0.0
 10
429.144656
 20
162.278484
 30
0.0
 10
429.329656
 20
157.702477
 30
0.0
 10
429.402656
 20
155.871474
 30
0.0
 10
440.115672
 20
156.333475
 30
0.0
  0
LWPOLYLINE
  5
2f9
100
AcDbEntity
  8
sit_gravat
 62
7
100
AcDbPolyline
 90
3
 70
0
 10
14.109422
 20
488.378982
 30
0.0
 10
15.275923
 20
488.503982
 30
0.0
 10
52.625880
 20
491.328987
 30
0.0
  0
LWPOLYLINE
  5
2fa
100
AcDbEntity
  8
sit_gravat
 62
7
100
AcDbPolyline
 90
4
 70
0
 10
480.997735
 20
336.373750
 30
0.0
 10
283.204433
 20
419.364877
 30
0.0
 10
246.488377
 20
435.237901
 30
0.0
 10
243.133371
 20
436.309903
 30
0.0
  0
LWPOLYLINE
  5
2fb
100
AcDbEntity
  8
sit_gravat
 62
7
100
AcDbPolyline
 90
2
 70
0
 10
152.853234
 20
465.203947
 30
0.0
 10
134.536206
 20
471.066956
 30
0.0
  0
LWPOLYLINE
  5
2fc
100
AcDbEntity
  8
sit_gravat
 62
7
100
AcDbPolyline
 90
2
 70
0
 10
243.133371
 20
436.309903
 30
0.0
 10
152.853234
 20
465.203947
 30
0.0
  0
LWPOLYLINE
  5
2fd
100
AcDbEntity
  8
sit_gravat
 62
7
100
AcDbPolyline
 90
3
 70
0
 10
382.148584
 20
393.991838
 30
0.0
 10
288.826441
 20
432.763897
 30
0.0
 10
252.110385
 20
448.636922
 30
0.0
  0
LWPOLYLINE
  5
2fe
100
AcDbEntity
  8
sit_gravat
 62
7
100
AcDbPolyline
 90
4
 70
0
 10
160.962246
 20
481.088971
 30
0.0
 10
130.468199
 20
487.567981
 30
0.0
 10
107.310164
 20
489.655984
 30
0.0
 10
52.625880
 20
491.328987
 30
0.0
  0
LWPOLYLINE
  5
2ff
100
AcDbEntity
  8
sit_gravat
 62
7
100
AcDbPolyline
 90
3
 70
0
 10
252.558386
 20
448.443921
 30
0.0
 10
198.804304
 20
469.599954
 30
0.0
 10
160.962246
 20
481.088971
 30
0.0
  0
LWPOLYLINE
  5
300
100
AcDbEntity
  8
sit_gravat
 62
7
100
AcDbPolyline
 90
15
 70
0
 10
486.129743
 20
386.618827
 30
0.0
 10
454.913695
 20
403.611853
 30
0.0
 10
405.108619
 20
426.393888
 30
0.0
 10
351.782537
 20
453.769929
 30
0.0
 10
324.777496
 20
467.777951
 30
0.0
 10
306.530468
 20
477.238965
 30
0.0
 10
244.435373
 20
517.614027
 30
0.0
 10
215.185329
 20
531.273048
 30
0.0
 10
180.458276
 20
538.308059
 30
0.0
 10
162.350248
 20
540.022061
 30
0.0
 10
133.500204
 20
543.313066
 30
0.0
 10
112.010171
 20
541.579064
 30
0.0
 10
64.187398
 20
534.896053
 30
0.0
 10
58.029189
 20
534.119052
 30
0.0
 10
14.109422
 20
528.570044
 30
0.0
  0
LWPOLYLINE
  5
301
100
AcDbEntity
  8
sit_gravat
 62
7
100
AcDbPolyline
 90
2
 70
0
 10
60.389792
 20
278.776662
 30
0.0
 10
147.655226
 20
326.890736
 30
0.0
  0
LWPOLYLINE
  5
302
100
AcDbEntity
  8
sit_gravat
 62
7
100
AcDbPolyline
 90
9
 70
0
 10
419.903642
 20
680.240975
 30
0.0
 10
419.253641
 20
680.240975
 30
0.0
 10
419.003640
 20
680.915976
 30
0.0
 10
417.828638
 20
680.915976
 30
0.0
 10
417.578638
 20
680.240975
 30
0.0
 10
416.953637
 20
680.240975
 30
0.0
 10
418.103639
 20
683.190980
 30
0.0
 10
418.728640
 20
683.190980
 30
0.0
 10
419.903642
 20
680.240975
 30
0.0
  0
LWPOLYLINE
  5
303
100
AcDbEntity
  8
sit_gravat
 62
7
100
AcDbPolyline
 90
4
 70
0
 10
418.803640
 20
681.415977
 30
0.0
 10
418.403639
 20
682.490979
 30
0.0
 10
418.003639
 20
681.415977
 30
0.0
 10
418.803640
 20
681.415977
 30
0.0
  0
LWPOLYLINE
  5
304
100
AcDbEntity
  8
sit_gravat
 62
7
100
AcDbPolyline
 90
37
 70
0
 10
420.103642
 20
680.240975
 30
0.0
 10
420.103642
 20
683.190980
 30
0.0
 10
421.353644
 20
683.190980
 30
0.0
 10
421.628644
 20
683.165980
 30
0.0
 10
421.853644
 20
683.140980
 30
0.0
 10
422.028645
 20
683.115980
 30
0.0
 10
422.178645
 20
683.040980
 30
0.0
 10
422.278645
 20
682.940979
 30
0.0
 10
422.378645
 20
682.815979
 30
0.0
 10
422.453645
 20
682.690979
 30
0.0
 10
422.503645
 20
682.515979
 30
0.0
 10
422.503645
 20
682.365979
 30
0.0
 10
422.478645
 20
682.140978
 30
0.0
 10
422.428645
 20
681.965978
 30
0.0
 10
422.303645
 20
681.815978
 30
0.0
 10
422.153645
 20
681.690978
 30
0.0
 10
421.978645
 20
681.590977
 30
0.0
 10
421.728644
 20
681.540977
 30
0.0
 10
421.853644
 20
681.465977
 30
0.0
 10
421.953645
 20
681.365977
 30
0.0
 10
422.053645
 20
681.290977
 30
0.0
 10
422.153645
 20
681.165977
 30
0.0
 10
422.253645
 20
681.015977
 30
0.0
 10
422.378645
 20
680.815976
 30
0.0
 10
422.753646
 20
680.240975
 30
0.0
 10
422.028645
 20
680.240975
 30
0.0
 10
421.603644
 20
680.890976
 30
0.0
 10
421.478644
 20
681.090977
 30
0.0
 10
421.353644
 20
681.215977
 30
0.0
 10
421.303644
 20
681.315977
 30
0.0
 10
421.203644
 20
681.390977
 30
0.0
 10
421.103643
 20
681.440977
 30
0.0
 10
421.003643
 20
681.465977
 30
0.0
 10
420.803643
 20
681.465977
 30
0.0
 10
420.703643
 20
681.465977
 30
0.0
 10
420.703643
 20
680.240975
 30
0.0
 10
420.103642
 20
680.240975
 30
0.0
  0
LWPOLYLINE
  5
305
100
AcDbEntity
  8
sit_gravat
 62
7
100
AcDbPolyline
 90
18
 70
0
 10
420.703643
 20
681.940978
 30
0.0
 10
421.128643
 20
681.940978
 30
0.0
 10
421.378644
 20
681.940978
 30
0.0
 10
421.553644
 20
681.965978
 30
0.0
 10
421.678644
 20
681.965978
 30
0.0
 10
421.753644
 20
682.015978
 30
0.0
 10
421.828644
 20
682.090978
 30
0.0
 10
421.878645
 20
682.190978
 30
0.0
 10
421.903645
 20
682.315979
 30
0.0
 10
421.878645
 20
682.465979
 30
0.0
 10
421.803644
 20
682.565979
 30
0.0
 10
421.728644
 20
682.640979
 30
0.0
 10
421.603644
 20
682.665979
 30
0.0
 10
421.503644
 20
682.690979
 30
0.0
 10
421.378644
 20
682.690979
 30
0.0
 10
421.153643
 20
682.690979
 30
0.0
 10
420.703643
 20
682.690979
 30
0.0
 10
420.703643
 20
681.940978
 30
0.0
  0
LWPOLYLINE
  5
306
100
AcDbEntity
  8
sit_gravat
 62
7
100
AcDbPolyline
 90
61
 70
0
 10
424.953649
 20
681.315977
 30
0.0
 10
425.528650
 20
681.140977
 30
0.0
 10
425.453650
 20
680.915976
 30
0.0
 10
425.353650
 20
680.715976
 30
0.0
 10
425.228650
 20
680.565976
 30
0.0
 10
425.078649
 20
680.415976
 30
0.0
 10
424.903649
 20
680.315975
 30
0.0
 10
424.728649
 20
680.240975
 30
0.0
 10
424.528649
 20
680.190975
 30
0.0
 10
424.303648
 20
680.190975
 30
0.0
 10
424.028648
 20
680.215975
 30
0.0
 10
423.753647
 20
680.290975
 30
0.0
 10
423.528647
 20
680.415976
 30
0.0
 10
423.328647
 20
680.590976
 30
0.0
 10
423.178647
 20
680.815976
 30
0.0
 10
423.053646
 20
681.065977
 30
0.0
 10
422.978646
 20
681.365977
 30
0.0
 10
422.953646
 20
681.690978
 30
0.0
 10
422.978646
 20
681.965978
 30
0.0
 10
423.028646
 20
682.215978
 30
0.0
 10
423.103646
 20
682.440979
 30
0.0
 10
423.203647
 20
682.640979
 30
0.0
 10
423.328647
 20
682.815979
 30
0.0
 10
423.528647
 20
683.015980
 30
0.0
 10
423.778647
 20
683.140980
 30
0.0
 10
424.028648
 20
683.215980
 30
0.0
 10
424.328648
 20
683.240980
 30
0.0
 10
424.578649
 20
683.215980
 30
0.0
 10
424.828649
 20
683.140980
 30
0.0
 10
425.028649
 20
683.040980
 30
0.0
 10
425.203650
 20
682.915979
 30
0.0
 10
425.328650
 20
682.765979
 30
0.0
 10
425.428650
 20
682.590979
 30
0.0
 10
425.503650
 20
682.365979
 30
0.0
 10
424.928649
 20
682.240978
 30
0.0
 10
424.878649
 20
682.365979
 30
0.0
 10
424.803649
 20
682.490979
 30
0.0
 10
424.703649
 20
682.590979
 30
0.0
 10
424.578649
 20
682.665979
 30
0.0
 10
424.453648
 20
682.715979
 30
0.0
 10
424.303648
 20
682.715979
 30
0.0
 10
424.103648
 20
682.690979
 30
0.0
 10
423.928648
 20
682.615979
 30
0.0
 10
423.778647
 20
682.490979
 30
0.0
 10
423.678647
 20
682.365979
 30
0.0
 10
423.628647
 20
682.190978
 30
0.0
 10
423.578647
 20
681.965978
 30
0.0
 10
423.578647
 20
681.715978
 30
0.0
 10
423.578647
 20
681.465977
 30
0.0
 10
423.628647
 20
681.240977
 30
0.0
 10
423.678647
 20
681.065977
 30
0.0
 10
423.778647
 20
680.940976
 30
0.0
 10
423.928648
 20
680.790976
 30
0.0
 10
424.103648
 20
680.715976
 30
0.0
 10
424.303648
 20
680.690976
 30
0.0
 10
424.453648
 20
680.715976
 30
0.0
 10
424.578649
 20
680.765976
 30
0.0
 10
424.703649
 20
680.840976
 30
0.0
 10
424.803649
 20
680.965976
 30
0.0
 10
424.878649
 20
681.115977
 30
0.0
 10
424.953649
 20
681.315977
 30
0.0
  0
LWPOLYLINE
  5
307
100
AcDbEntity
  8
sit_gravat
 62
7
100
AcDbPolyline
 90
13
 70
0
 10
426.028651
 20
680.240975
 30
0.0
 10
426.028651
 20
683.190980
 30
0.0
 10
426.628652
 20
683.190980
 30
0.0
 10
426.628652
 20
682.015978
 30
0.0
 10
427.778654
 20
682.015978
 30
0.0
 10
427.778654
 20
683.190980
 30
0.0
 10
428.378654
 20
683.190980
 30
0.0
 10
428.378654
 20
680.240975
 30
0.0
 10
427.778654
 20
680.240975
 30
0.0
 10
427.778654
 20
681.515977
 30
0.0
 10
426.628652
 20
681.515977
 30
0.0
 10
426.628652
 20
680.240975
 30
0.0
 10
426.028651
 20
680.240975
 30
0.0
  0
LWPOLYLINE
  5
308
100
AcDbEntity
  8
sit_gravat
 62
7
100
AcDbPolyline
 90
5
 70
0
 10
428.978655
 20
680.240975
 30
0.0
 10
428.978655
 20
683.190980
 30
0.0
 10
429.553656
 20
683.190980
 30
0.0
 10
429.553656
 20
680.240975
 30
0.0
 10
428.978655
 20
680.240975
 30
0.0
  0
LWPOLYLINE
  5
309
100
AcDbEntity
  8
sit_gravat
 62
7
100
AcDbPolyline
 90
61
 70
0
 10
432.028660
 20
681.315977
 30
0.0
 10
432.603661
 20
681.140977
 30
0.0
 10
432.528661
 20
680.915976
 30
0.0
 10
432.428661
 20
680.715976
 30
0.0
 10
432.303660
 20
680.565976
 30
0.0
 10
432.153660
 20
680.415976
 30
0.0
 10
432.003660
 20
680.315975
 30
0.0
 10
431.803660
 20
680.240975
 30
0.0
 10
431.603659
 20
680.190975
 30
0.0
 10
431.378659
 20
680.190975
 30
0.0
 10
431.103659
 20
680.215975
 30
0.0
 10
430.828658
 20
680.290975
 30
0.0
 10
430.603658
 20
680.415976
 30
0.0
 10
430.403658
 20
680.590976
 30
0.0
 10
430.253657
 20
680.815976
 30
0.0
 10
430.128657
 20
681.065977
 30
0.0
 10
430.053657
 20
681.365977
 30
0.0
 10
430.028657
 20
681.690978
 30
0.0
 10
430.053657
 20
681.965978
 30
0.0
 10
430.103657
 20
682.215978
 30
0.0
 10
430.178657
 20
682.440979
 30
0.0
 10
430.278657
 20
682.640979
 30
0.0
 10
430.403658
 20
682.815979
 30
0.0
 10
430.628658
 20
683.015980
 30
0.0
 10
430.853658
 20
683.140980
 30
0.0
 10
431.103659
 20
683.215980
 30
0.0
 10
431.403659
 20
683.240980
 30
0.0
 10
431.678660
 20
683.215980
 30
0.0
 10
431.903660
 20
683.140980
 30
0.0
 10
432.103660
 20
683.040980
 30
0.0
 10
432.278660
 20
682.915979
 30
0.0
 10
432.403661
 20
682.765979
 30
0.0
 10
432.503661
 20
682.590979
 30
0.0
 10
432.578661
 20
682.365979
 30
0.0
 10
432.003660
 20
682.240978
 30
0.0
 10
431.953660
 20
682.365979
 30
0.0
 10
431.878660
 20
682.490979
 30
0.0
 10
431.778660
 20
682.590979
 30
0.0
 10
431.653659
 20
682.665979
 30
0.0
 10
431.528659
 20
682.715979
 30
0.0
 10
431.378659
 20
682.715979
 30
0.0
 10
431.178659
 20
682.690979
 30
0.0
 10
431.003658
 20
682.615979
 30
0.0
 10
430.853658
 20
682.490979
 30
0.0
 10
430.753658
 20
682.365979
 30
0.0
 10
430.703658
 20
682.190978
 30
0.0
 10
430.653658
 20
681.965978
 30
0.0
 10
430.653658
 20
681.715978
 30
0.0
 10
430.653658
 20
681.465977
 30
0.0
 10
430.703658
 20
681.240977
 30
0.0
 10
430.753658
 20
681.065977
 30
0.0
 10
430.853658
 20
680.940976
 30
0.0
 10
431.003658
 20
680.790976
 30
0.0
 10
431.178659
 20
680.715976
 30
0.0
 10
431.378659
 20
680.690976
 30
0.0
 10
431.528659
 20
680.715976
 30
0.0
 10
431.653659
 20
680.765976
 30
0.0
 10
431.778660
 20
680.840976
 30
0.0
 10
431.878660
 20
680.965976
 30
0.0
 10
431.953660
 20
681.115977
 30
0.0
 10
432.028660
 20
681.315977
 30
0.0
  0
LWPOLYLINE
  5
30a
100
AcDbEntity
  8
sit_gravat
 62
7
100
AcDbPolyline
 90
9
 70
0
 10
435.753666
 20
680.240975
 30
0.0
 10
435.103665
 20
680.240975
 30
0.0
 10
434.853664
 20
680.915976
 30
0.0
 10
433.678663
 20
680.915976
 30
0.0
 10
433.428662
 20
680.240975
 30
0.0
 10
432.803661
 20
680.240975
 30
0.0
 10
433.953663
 20
683.190980
 30
0.0
 10
434.578664
 20
683.190980
 30
0.0
 10
435.753666
 20
680.240975
 30
0.0
  0
LWPOLYLINE
  5
30b
100
AcDbEntity
  8
sit_gravat
 62
7
100
AcDbPolyline
 90
4
 70
0
 10
434.653664
 20
681.415977
 30
0.0
 10
434.253663
 20
682.490979
 30
0.0
 10
433.853663
 20
681.415977
 30
0.0
 10
434.653664
 20
681.415977
 30
0.0
  0
LWPOLYLINE
  5
30c
100
AcDbEntity
  8
sit_gravat
 62
7
100
AcDbPolyline
 90
28
 70
0
 10
435.953666
 20
683.190980
 30
0.0
 10
437.028668
 20
683.190980
 30
0.0
 10
437.253668
 20
683.165980
 30
0.0
 10
437.453668
 20
683.165980
 30
0.0
 10
437.603669
 20
683.115980
 30
0.0
 10
437.753669
 20
683.065980
 30
0.0
 10
437.903669
 20
682.965980
 30
0.0
 10
438.028669
 20
682.865979
 30
0.0
 10
438.153669
 20
682.715979
 30
0.0
 10
438.253670
 20
682.565979
 30
0.0
 10
438.328670
 20
682.365979
 30
0.0
 10
438.378670
 20
682.165978
 30
0.0
 10
438.403670
 20
681.940978
 30
0.0
 10
438.428670
 20
681.690978
 30
0.0
 10
438.403670
 20
681.440977
 30
0.0
 10
438.378670
 20
681.240977
 30
0.0
 10
438.328670
 20
681.065977
 30
0.0
 10
438.253670
 20
680.865976
 30
0.0
 10
438.128669
 20
680.690976
 30
0.0
 10
438.003669
 20
680.540976
 30
0.0
 10
437.903669
 20
680.440976
 30
0.0
 10
437.753669
 20
680.365976
 30
0.0
 10
437.603669
 20
680.290975
 30
0.0
 10
437.453668
 20
680.265975
 30
0.0
 10
437.278668
 20
680.240975
 30
0.0
 10
437.078668
 20
680.240975
 30
0.0
 10
435.953666
 20
680.240975
 30
0.0
 10
435.953666
 20
683.190980
 30
0.0
  0
LWPOLYLINE
  5
30d
100
AcDbEntity
  8
sit_gravat
 62
7
100
AcDbPolyline
 90
23
 70
0
 10
436.553667
 20
682.690979
 30
0.0
 10
436.553667
 20
680.740976
 30
0.0
 10
436.978668
 20
680.740976
 30
0.0
 10
437.203668
 20
680.740976
 30
0.0
 10
437.353668
 20
680.765976
 30
0.0
 10
437.478668
 20
680.815976
 30
0.0
 10
437.578669
 20
680.890976
 30
0.0
 10
437.678669
 20
680.990977
 30
0.0
 10
437.753669
 20
681.165977
 30
0.0
 10
437.778669
 20
681.315977
 30
0.0
 10
437.803669
 20
681.490977
 30
0.0
 10
437.803669
 20
681.715978
 30
0.0
 10
437.803669
 20
681.915978
 30
0.0
 10
437.778669
 20
682.090978
 30
0.0
 10
437.753669
 20
682.240978
 30
0.0
 10
437.678669
 20
682.390979
 30
0.0
 10
437.578669
 20
682.515979
 30
0.0
 10
437.453668
 20
682.615979
 30
0.0
 10
437.303668
 20
682.665979
 30
0.0
 10
437.178668
 20
682.665979
 30
0.0
 10
437.028668
 20
682.690979
 30
0.0
 10
436.803667
 20
682.690979
 30
0.0
 10
436.553667
 20
682.690979
 30
0.0
  0
LWPOLYLINE
  5
30e
100
AcDbEntity
  8
sit_gravat
 62
7
100
AcDbPolyline
 90
13
 70
0
 10
440.078672
 20
680.240975
 30
0.0
 10
440.078672
 20
683.190980
 30
0.0
 10
442.253676
 20
683.190980
 30
0.0
 10
442.253676
 20
682.690979
 30
0.0
 10
440.653673
 20
682.690979
 30
0.0
 10
440.653673
 20
682.040978
 30
0.0
 10
442.128675
 20
682.040978
 30
0.0
 10
442.128675
 20
681.540977
 30
0.0
 10
440.653673
 20
681.540977
 30
0.0
 10
440.653673
 20
680.740976
 30
0.0
 10
442.303676
 20
680.740976
 30
0.0
 10
442.303676
 20
680.240975
 30
0.0
 10
440.078672
 20
680.240975
 30
0.0
  0
LWPOLYLINE
  5
30f
100
AcDbEntity
  8
sit_gravat
 62
7
100
AcDbPolyline
 90
28
 70
0
 10
442.803677
 20
683.190980
 30
0.0
 10
443.903678
 20
683.190980
 30
0.0
 10
444.128679
 20
683.165980
 30
0.0
 10
444.303679
 20
683.165980
 30
0.0
 10
444.453679
 20
683.115980
 30
0.0
 10
444.628679
 20
683.065980
 30
0.0
 10
444.753679
 20
682.965980
 30
0.0
 10
444.903680
 20
682.865979
 30
0.0
 10
445.003680
 20
682.715979
 30
0.0
 10
445.103680
 20
682.565979
 30
0.0
 10
445.178680
 20
682.365979
 30
0.0
 10
445.228680
 20
682.165978
 30
0.0
 10
445.253680
 20
681.940978
 30
0.0
 10
445.278680
 20
681.690978
 30
0.0
 10
445.253680
 20
681.440977
 30
0.0
 10
445.228680
 20
681.240977
 30
0.0
 10
445.178680
 20
681.065977
 30
0.0
 10
445.103680
 20
680.865976
 30
0.0
 10
445.003680
 20
680.690976
 30
0.0
 10
444.878680
 20
680.540976
 30
0.0
 10
444.753679
 20
680.440976
 30
0.0
 10
444.603679
 20
680.365976
 30
0.0
 10
444.453679
 20
680.290975
 30
0.0
 10
444.303679
 20
680.265975
 30
0.0
 10
444.128679
 20
680.240975
 30
0.0
 10
443.928678
 20
680.240975
 30
0.0
 10
442.803677
 20
680.240975
 30
0.0
 10
442.803677
 20
683.190980
 30
0.0
  0
LWPOLYLINE
  5
310
100
AcDbEntity
  8
sit_gravat
 62
7
100
AcDbPolyline
 90
23
 70
0
 10
443.403677
 20
682.690979
 30
0.0
 10
443.403677
 20
680.740976
 30
0.0
 10
443.853678
 20
680.740976
 30
0.0
 10
444.053678
 20
680.740976
 30
0.0
 10
444.203679
 20
680.765976
 30
0.0
 10
444.328679
 20
680.815976
 30
0.0
 10
444.453679
 20
680.890976
 30
0.0
 10
444.528679
 20
680.990977
 30
0.0
 10
444.603679
 20
681.165977
 30
0.0
 10
444.628679
 20
681.315977
 30
0.0
 10
444.653679
 20
681.490977
 30
0.0
 10
444.653679
 20
681.715978
 30
0.0
 10
444.653679
 20
681.915978
 30
0.0
 10
444.628679
 20
682.090978
 30
0.0
 10
444.603679
 20
682.240978
 30
0.0
 10
444.528679
 20
682.390979
 30
0.0
 10
444.428679
 20
682.515979
 30
0.0
 10
444.303679
 20
682.615979
 30
0.0
 10
444.153679
 20
682.665979
 30
0.0
 10
444.053678
 20
682.665979
 30
0.0
 10
443.878678
 20
682.690979
 30
0.0
 10
443.678678
 20
682.690979
 30
0.0
 10
443.403677
 20
682.690979
 30
0.0
  0
LWPOLYLINE
  5
311
100
AcDbEntity
  8
sit_gravat
 62
7
100
AcDbPolyline
 90
46
 70
0
 10
445.778681
 20
683.190980
 30
0.0
 10
446.353682
 20
683.190980
 30
0.0
 10
446.353682
 20
681.590977
 30
0.0
 10
446.353682
 20
681.365977
 30
0.0
 10
446.378682
 20
681.190977
 30
0.0
 10
446.378682
 20
681.090977
 30
0.0
 10
446.453682
 20
680.940976
 30
0.0
 10
446.578682
 20
680.815976
 30
0.0
 10
446.678682
 20
680.740976
 30
0.0
 10
446.803683
 20
680.715976
 30
0.0
 10
446.953683
 20
680.690976
 30
0.0
 10
447.103683
 20
680.715976
 30
0.0
 10
447.228683
 20
680.740976
 30
0.0
 10
447.328683
 20
680.790976
 30
0.0
 10
447.453684
 20
680.915976
 30
0.0
 10
447.503684
 20
681.065977
 30
0.0
 10
447.503684
 20
681.165977
 30
0.0
 10
447.528684
 20
681.340977
 30
0.0
 10
447.528684
 20
681.565977
 30
0.0
 10
447.528684
 20
683.190980
 30
0.0
 10
448.103685
 20
683.190980
 30
0.0
 10
448.103685
 20
681.640978
 30
0.0
 10
448.103685
 20
681.315977
 30
0.0
 10
448.103685
 20
681.065977
 30
0.0
 10
448.078685
 20
680.890976
 30
0.0
 10
448.028684
 20
680.740976
 30
0.0
 10
447.978684
 20
680.615976
 30
0.0
 10
447.878684
 20
680.515976
 30
0.0
 10
447.803684
 20
680.415976
 30
0.0
 10
447.678684
 20
680.340976
 30
0.0
 10
447.553684
 20
680.265975
 30
0.0
 10
447.378683
 20
680.215975
 30
0.0
 10
447.203683
 20
680.190975
 30
0.0
 10
446.978683
 20
680.190975
 30
0.0
 10
446.728683
 20
680.190975
 30
0.0
 10
446.503682
 20
680.240975
 30
0.0
 10
446.328682
 20
680.290975
 30
0.0
 10
446.203682
 20
680.365976
 30
0.0
 10
446.078682
 20
680.440976
 30
0.0
 10
446.003681
 20
680.540976
 30
0.0
 10
445.878681
 20
680.690976
 30
0.0
 10
445.828681
 20
680.865976
 30
0.0
 10
445.803681
 20
681.065977
 30
0.0
 10
445.778681
 20
681.315977
 30
0.0
 10
445.778681
 20
681.615977
 30
0.0
 10
445.778681
 20
683.190980
 30
0.0
  0
LWPOLYLINE
  5
312
100
AcDbEntity
  8
sit_gravat
 62
7
100
AcDbPolyline
 90
61
 70
0
 10
450.628688
 20
681.315977
 30
0.0
 10
451.203689
 20
681.140977
 30
0.0
 10
451.103689
 20
680.915976
 30
0.0
 10
451.028689
 20
680.715976
 30
0.0
 10
450.903689
 20
680.565976
 30
0.0
 10
450.753689
 20
680.415976
 30
0.0
 10
450.578688
 20
680.315975
 30
0.0
 10
450.403688
 20
680.240975
 30
0.0
 10
450.203688
 20
680.190975
 30
0.0
 10
449.978687
 20
680.190975
 30
0.0
 10
449.678687
 20
680.215975
 30
0.0
 10
449.428687
 20
680.290975
 30
0.0
 10
449.203686
 20
680.415976
 30
0.0
 10
449.003686
 20
680.590976
 30
0.0
 10
448.853686
 20
680.815976
 30
0.0
 10
448.728686
 20
681.065977
 30
0.0
 10
448.653685
 20
681.365977
 30
0.0
 10
448.628685
 20
681.690978
 30
0.0
 10
448.653685
 20
681.965978
 30
0.0
 10
448.678685
 20
682.215978
 30
0.0
 10
448.778686
 20
682.440979
 30
0.0
 10
448.878686
 20
682.640979
 30
0.0
 10
449.003686
 20
682.815979
 30
0.0
 10
449.203686
 20
683.015980
 30
0.0
 10
449.453687
 20
683.140980
 30
0.0
 10
449.703687
 20
683.215980
 30
0.0
 10
450.003688
 20
683.240980
 30
0.0
 10
450.253688
 20
683.215980
 30
0.0
 10
450.503688
 20
683.140980
 30
0.0
 10
450.703689
 20
683.040980
 30
0.0
 10
450.878689
 20
682.915979
 30
0.0
 10
451.003689
 20
682.765979
 30
0.0
 10
451.103689
 20
682.590979
 30
0.0
 10
451.178689
 20
682.365979
 30
0.0
 10
450.603688
 20
682.240978
 30
0.0
 10
450.553688
 20
682.365979
 30
0.0
 10
450.478688
 20
682.490979
 30
0.0
 10
450.378688
 20
682.590979
 30
0.0
 10
450.253688
 20
682.665979
 30
0.0
 10
450.128688
 20
682.715979
 30
0.0
 10
449.978687
 20
682.715979
 30
0.0
 10
449.778687
 20
682.690979
 30
0.0
 10
449.603687
 20
682.615979
 30
0.0
 10
449.453687
 20
682.490979
 30
0.0
 10
449.353687
 20
682.365979
 30
0.0
 10
449.303686
 20
682.190978
 30
0.0
 10
449.253686
 20
681.965978
 30
0.0
 10
449.253686
 20
681.715978
 30
0.0
 10
449.253686
 20
681.465977
 30
0.0
 10
449.303686
 20
681.240977
 30
0.0
 10
449.353687
 20
681.065977
 30
0.0
 10
449.453687
 20
680.940976
 30
0.0
 10
449.578687
 20
680.790976
 30
0.0
 10
449.753687
 20
680.715976
 30
0.0
 10
449.953687
 20
680.690976
 30
0.0
 10
450.103688
 20
680.715976
 30
0.0
 10
450.253688
 20
680.765976
 30
0.0
 10
450.378688
 20
680.840976
 30
0.0
 10
450.478688
 20
680.965976
 30
0.0
 10
450.553688
 20
681.115977
 30
0.0
 10
450.628688
 20
681.315977
 30
0.0
  0
LWPOLYLINE
  5
313
100
AcDbEntity
  8
sit_gravat
 62
7
100
AcDbPolyline
 90
9
 70
0
 10
454.353694
 20
680.240975
 30
0.0
 10
453.703693
 20
680.240975
 30
0.0
 10
453.453693
 20
680.915976
 30
0.0
 10
452.278691
 20
680.915976
 30
0.0
 10
452.028691
 20
680.240975
 30
0.0
 10
451.403690
 20
680.240975
 30
0.0
 10
452.553691
 20
683.190980
 30
0.0
 10
453.178692
 20
683.190980
 30
0.0
 10
454.353694
 20
680.240975
 30
0.0
  0
LWPOLYLINE
  5
314
100
AcDbEntity
  8
sit_gravat
 62
7
100
AcDbPolyline
 90
4
 70
0
 10
453.253692
 20
681.415977
 30
0.0
 10
452.853692
 20
682.490979
 30
0.0
 10
452.453691
 20
681.415977
 30
0.0
 10
453.253692
 20
681.415977
 30
0.0
  0
LWPOLYLINE
  5
315
100
AcDbEntity
  8
sit_gravat
 62
7
100
AcDbPolyline
 90
9
 70
0
 10
454.903695
 20
680.240975
 30
0.0
 10
454.903695
 20
682.690979
 30
0.0
 10
454.028694
 20
682.690979
 30
0.0
 10
454.028694
 20
683.190980
 30
0.0
 10
456.378697
 20
683.190980
 30
0.0
 10
456.378697
 20
682.690979
 30
0.0
 10
455.503696
 20
682.690979
 30
0.0
 10
455.503696
 20
680.240975
 30
0.0
 10
454.903695
 20
680.240975
 30
0.0
  0
LWPOLYLINE
  5
316
100
AcDbEntity
  8
sit_gravat
 62
7
100
AcDbPolyline
 90
5
 70
0
 10
456.753698
 20
680.240975
 30
0.0
 10
456.753698
 20
683.190980
 30
0.0
 10
457.353699
 20
683.190980
 30
0.0
 10
457.353699
 20
680.240975
 30
0.0
 10
456.753698
 20
680.240975
 30
0.0
  0
LWPOLYLINE
  5
317
100
AcDbEntity
  8
sit_gravat
 62
7
100
AcDbPolyline
 90
40
 70
0
 10
457.803699
 20
681.690978
 30
0.0
 10
457.803699
 20
681.915978
 30
0.0
 10
457.828699
 20
682.115978
 30
0.0
 10
457.878700
 20
682.290979
 30
0.0
 10
457.928700
 20
682.440979
 30
0.0
 10
458.003700
 20
682.590979
 30
0.0
 10
458.103700
 20
682.715979
 30
0.0
 10
458.203700
 20
682.840979
 30
0.0
 10
458.328700
 20
682.965980
 30
0.0
 10
458.453700
 20
683.040980
 30
0.0
 10
458.603701
 20
683.115980
 30
0.0
 10
458.778701
 20
683.190980
 30
0.0
 10
459.003701
 20
683.215980
 30
0.0
 10
459.228702
 20
683.240980
 30
0.0
 10
459.528702
 20
683.215980
 30
0.0
 10
459.803702
 20
683.140980
 30
0.0
 10
460.053703
 20
683.015980
 30
0.0
 10
460.278703
 20
682.840979
 30
0.0
 10
460.403703
 20
682.665979
 30
0.0
 10
460.528704
 20
682.465979
 30
0.0
 10
460.603704
 20
682.240978
 30
0.0
 10
460.653704
 20
681.990978
 30
0.0
 10
460.653704
 20
681.715978
 30
0.0
 10
460.653704
 20
681.440977
 30
0.0
 10
460.603704
 20
681.190977
 30
0.0
 10
460.528704
 20
680.965976
 30
0.0
 10
460.403703
 20
680.765976
 30
0.0
 10
460.278703
 20
680.590976
 30
0.0
 10
460.053703
 20
680.415976
 30
0.0
 10
459.828703
 20
680.290975
 30
0.0
 10
459.553702
 20
680.215975
 30
0.0
 10
459.228702
 20
680.190975
 30
0.0
 10
458.928701
 20
680.215975
 30
0.0
 10
458.653701
 20
680.290975
 30
0.0
 10
458.403700
 20
680.415976
 30
0.0
 10
458.178700
 20
680.590976
 30
0.0
 10
458.028700
 20
680.815976
 30
0.0
 10
457.903700
 20
681.065977
 30
0.0
 10
457.828699
 20
681.365977
 30
0.0
 10
457.803699
 20
681.690978
 30
0.0
  0
LWPOLYLINE
  5
318
100
AcDbEntity
  8
sit_gravat
 62
7
100
AcDbPolyline
 90
29
 70
0
 10
458.403700
 20
681.715978
 30
0.0
 10
458.428700
 20
681.465977
 30
0.0
 10
458.478700
 20
681.265977
 30
0.0
 10
458.553701
 20
681.090977
 30
0.0
 10
458.653701
 20
680.965976
 30
0.0
 10
458.803701
 20
680.815976
 30
0.0
 10
459.003701
 20
680.715976
 30
0.0
 10
459.228702
 20
680.690976
 30
0.0
 10
459.453702
 20
680.715976
 30
0.0
 10
459.653702
 20
680.815976
 30
0.0
 10
459.828703
 20
680.940976
 30
0.0
 10
459.928703
 20
681.090977
 30
0.0
 10
459.978703
 20
681.265977
 30
0.0
 10
460.028703
 20
681.490977
 30
0.0
 10
460.053703
 20
681.715978
 30
0.0
 10
460.028703
 20
681.965978
 30
0.0
 10
459.978703
 20
682.165978
 30
0.0
 10
459.928703
 20
682.340979
 30
0.0
 10
459.828703
 20
682.465979
 30
0.0
 10
459.653702
 20
682.615979
 30
0.0
 10
459.453702
 20
682.690979
 30
0.0
 10
459.228702
 20
682.715979
 30
0.0
 10
459.003701
 20
682.690979
 30
0.0
 10
458.803701
 20
682.615979
 30
0.0
 10
458.628701
 20
682.465979
 30
0.0
 10
458.553701
 20
682.340979
 30
0.0
 10
458.478700
 20
682.165978
 30
0.0
 10
458.428700
 20
681.940978
 30
0.0
 10
458.403700
 20
681.715978
 30
0.0
  0
LWPOLYLINE
  5
319
100
AcDbEntity
  8
sit_gravat
 62
7
100
AcDbPolyline
 90
11
 70
0
 10
461.128705
 20
680.240975
 30
0.0
 10
461.128705
 20
683.190980
 30
0.0
 10
461.703705
 20
683.190980
 30
0.0
 10
462.928707
 20
681.215977
 30
0.0
 10
462.928707
 20
683.190980
 30
0.0
 10
463.478708
 20
683.190980
 30
0.0
 10
463.478708
 20
680.240975
 30
0.0
 10
462.878707
 20
680.240975
 30
0.0
 10
461.678705
 20
682.165978
 30
0.0
 10
461.678705
 20
680.240975
 30
0.0
 10
461.128705
 20
680.240975
 30
0.0
  0
LWPOLYLINE
  5
31a
100
AcDbEntity
  8
sit_gravat
 62
7
100
AcDbPolyline
 90
8
 70
0
 10
466.003712
 20
680.240975
 30
0.0
 10
464.953710
 20
683.190980
 30
0.0
 10
465.603711
 20
683.190980
 30
0.0
 10
466.328712
 20
680.990977
 30
0.0
 10
467.053714
 20
683.190980
 30
0.0
 10
467.678715
 20
683.190980
 30
0.0
 10
466.628713
 20
680.240975
 30
0.0
 10
466.003712
 20
680.240975
 30
0.0
  0
LWPOLYLINE
  5
31b
100
AcDbEntity
  8
sit_gravat
 62
7
100
AcDbPolyline
 90
13
 70
0
 10
467.978715
 20
680.240975
 30
0.0
 10
467.978715
 20
683.190980
 30
0.0
 10
470.178718
 20
683.190980
 30
0.0
 10
470.178718
 20
682.690979
 30
0.0
 10
468.578716
 20
682.690979
 30
0.0
 10
468.578716
 20
682.040978
 30
0.0
 10
470.053718
 20
682.040978
 30
0.0
 10
470.053718
 20
681.540977
 30
0.0
 10
468.578716
 20
681.540977
 30
0.0
 10
468.578716
 20
680.740976
 30
0.0
 10
470.228718
 20
680.740976
 30
0.0
 10
470.228718
 20
680.240975
 30
0.0
 10
467.978715
 20
680.240975
 30
0.0
  0
LWPOLYLINE
  5
31c
100
AcDbEntity
  8
sit_gravat
 62
7
100
AcDbPolyline
 90
37
 70
0
 10
470.728719
 20
680.240975
 30
0.0
 10
470.728719
 20
683.190980
 30
0.0
 10
471.978721
 20
683.190980
 30
0.0
 10
472.278722
 20
683.165980
 30
0.0
 10
472.503722
 20
683.140980
 30
0.0
 10
472.678722
 20
683.115980
 30
0.0
 10
472.803722
 20
683.040980
 30
0.0
 10
472.928723
 20
682.940979
 30
0.0
 10
473.003723
 20
682.815979
 30
0.0
 10
473.078723
 20
682.690979
 30
0.0
 10
473.128723
 20
682.515979
 30
0.0
 10
473.153723
 20
682.365979
 30
0.0
 10
473.128723
 20
682.140978
 30
0.0
 10
473.053723
 20
681.965978
 30
0.0
 10
472.953723
 20
681.815978
 30
0.0
 10
472.803722
 20
681.690978
 30
0.0
 10
472.603722
 20
681.590977
 30
0.0
 10
472.353722
 20
681.540977
 30
0.0
 10
472.478722
 20
681.465977
 30
0.0
 10
472.603722
 20
681.365977
 30
0.0
 10
472.678722
 20
681.290977
 30
0.0
 10
472.778722
 20
681.165977
 30
0.0
 10
472.878722
 20
681.015977
 30
0.0
 10
473.028723
 20
680.815976
 30
0.0
 10
473.378723
 20
680.240975
 30
0.0
 10
472.678722
 20
680.240975
 30
0.0
 10
472.228721
 20
680.890976
 30
0.0
 10
472.103721
 20
681.090977
 30
0.0
 10
472.003721
 20
681.215977
 30
0.0
 10
471.928721
 20
681.315977
 30
0.0
 10
471.828721
 20
681.390977
 30
0.0
 10
471.753721
 20
681.440977
 30
0.0
 10
471.628721
 20
681.465977
 30
0.0
 10
471.453720
 20
681.465977
 30
0.0
 10
471.328720
 20
681.465977
 30
0.0
 10
471.328720
 20
680.240975
 30
0.0
 10
470.728719
 20
680.240975
 30
0.0
  0
LWPOLYLINE
  5
31d
100
AcDbEntity
  8
sit_gravat
 62
7
100
AcDbPolyline
 90
18
 70
0
 10
471.328720
 20
681.940978
 30
0.0
 10
471.778721
 20
681.940978
 30
0.0
 10
472.028721
 20
681.940978
 30
0.0
 10
472.203721
 20
681.965978
 30
0.0
 10
472.303722
 20
681.965978
 30
0.0
 10
472.403722
 20
682.015978
 30
0.0
 10
472.478722
 20
682.090978
 30
0.0
 10
472.503722
 20
682.190978
 30
0.0
 10
472.528722
 20
682.315979
 30
0.0
 10
472.503722
 20
682.465979
 30
0.0
 10
472.453722
 20
682.565979
 30
0.0
 10
472.353722
 20
682.640979
 30
0.0
 10
472.228721
 20
682.665979
 30
0.0
 10
472.153721
 20
682.690979
 30
0.0
 10
472.003721
 20
682.690979
 30
0.0
 10
471.803721
 20
682.690979
 30
0.0
 10
471.328720
 20
682.690979
 30
0.0
 10
471.328720
 20
681.940978
 30
0.0
  0
LWPOLYLINE
  5
31e
100
AcDbEntity
  8
sit_gravat
 62
7
100
AcDbPolyline
 90
85
 70
0
 10
473.553723
 20
681.190977
 30
0.0
 10
474.128724
 20
681.240977
 30
0.0
 10
474.178724
 20
681.065977
 30
0.0
 10
474.228725
 20
680.940976
 30
0.0
 10
474.328725
 20
680.815976
 30
0.0
 10
474.453725
 20
680.740976
 30
0.0
 10
474.603725
 20
680.690976
 30
0.0
 10
474.753725
 20
680.690976
 30
0.0
 10
474.928726
 20
680.690976
 30
0.0
 10
475.078726
 20
680.740976
 30
0.0
 10
475.203726
 20
680.815976
 30
0.0
 10
475.303726
 20
680.940976
 30
0.0
 10
475.353726
 20
681.090977
 30
0.0
 10
475.328726
 20
681.190977
 30
0.0
 10
475.278726
 20
681.265977
 30
0.0
 10
475.203726
 20
681.340977
 30
0.0
 10
475.078726
 20
681.390977
 30
0.0
 10
474.978726
 20
681.440977
 30
0.0
 10
474.803725
 20
681.465977
 30
0.0
 10
474.603725
 20
681.515977
 30
0.0
 10
474.303725
 20
681.615977
 30
0.0
 10
474.078724
 20
681.715978
 30
0.0
 10
473.928724
 20
681.815978
 30
0.0
 10
473.778724
 20
681.990978
 30
0.0
 10
473.678724
 20
682.190978
 30
0.0
 10
473.653724
 20
682.415979
 30
0.0
 10
473.653724
 20
682.565979
 30
0.0
 10
473.703724
 20
682.690979
 30
0.0
 10
473.778724
 20
682.840979
 30
0.0
 10
473.878724
 20
682.940979
 30
0.0
 10
474.003724
 20
683.040980
 30
0.0
 10
474.153724
 20
683.140980
 30
0.0
 10
474.303725
 20
683.190980
 30
0.0
 10
474.503725
 20
683.215980
 30
0.0
 10
474.728725
 20
683.240980
 30
0.0
 10
474.978726
 20
683.215980
 30
0.0
 10
475.203726
 20
683.165980
 30
0.0
 10
475.403726
 20
683.090980
 30
0.0
 10
475.553727
 20
682.990980
 30
0.0
 10
475.678727
 20
682.865979
 30
0.0
 10
475.778727
 20
682.715979
 30
0.0
 10
475.828727
 20
682.540979
 30
0.0
 10
475.853727
 20
682.340979
 30
0.0
 10
475.253726
 20
682.315979
 30
0.0
 10
475.203726
 20
682.515979
 30
0.0
 10
475.103726
 20
682.640979
 30
0.0
 10
475.003726
 20
682.690979
 30
0.0
 10
474.878726
 20
682.740979
 30
0.0
 10
474.728725
 20
682.740979
 30
0.0
 10
474.553725
 20
682.740979
 30
0.0
 10
474.428725
 20
682.690979
 30
0.0
 10
474.303725
 20
682.640979
 30
0.0
 10
474.228725
 20
682.565979
 30
0.0
 10
474.228725
 20
682.440979
 30
0.0
 10
474.228725
 20
682.365979
 30
0.0
 10
474.303725
 20
682.265978
 30
0.0
 10
474.428725
 20
682.215978
 30
0.0
 10
474.603725
 20
682.140978
 30
0.0
 10
474.853725
 20
682.065978
 30
0.0
 10
475.128726
 20
682.015978
 30
0.0
 10
475.328726
 20
681.940978
 30
0.0
 10
475.503726
 20
681.865978
 30
0.0
 10
475.628727
 20
681.790978
 30
0.0
 10
475.728727
 20
681.690978
 30
0.0
 10
475.828727
 20
681.565977
 30
0.0
 10
475.878727
 20
681.415977
 30
0.0
 10
475.928727
 20
681.265977
 30
0.0
 10
475.928727
 20
681.090977
 30
0.0
 10
475.928727
 20
680.940976
 30
0.0
 10
475.878727
 20
680.765976
 30
0.0
 10
475.803727
 20
680.615976
 30
0.0
 10
475.678727
 20
680.490976
 30
0.0
 10
475.553727
 20
680.365976
 30
0.0
 10
475.403726
 20
680.290975
 30
0.0
 10
475.203726
 20
680.240975
 30
0.0
 10
475.003726
 20
680.190975
 30
0.0
 10
474.753725
 20
680.190975
 30
0.0
 10
474.503725
 20
680.190975
 30
0.0
 10
474.253725
 20
680.240975
 30
0.0
 10
474.053724
 20
680.340976
 30
0.0
 10
473.903724
 20
680.440976
 30
0.0
 10
473.753724
 20
680.590976
 30
0.0
 10
473.653724
 20
680.765976
 30
0.0
 10
473.578724
 20
680.965976
 30
0.0
 10
473.553723
 20
681.190977
 30
0.0
  0
LWPOLYLINE
  5
31f
100
AcDbEntity
  8
sit_gravat
 62
7
100
AcDbPolyline
 90
5
 70
0
 10
476.428728
 20
680.240975
 30
0.0
 10
476.428728
 20
683.190980
 30
0.0
 10
477.003729
 20
683.190980
 30
0.0
 10
477.003729
 20
680.240975
 30
0.0
 10
476.428728
 20
680.240975
 30
0.0
  0
LWPOLYLINE
  5
320
100
AcDbEntity
  8
sit_gravat
 62
7
100
AcDbPolyline
 90
40
 70
0
 10
477.478729
 20
681.690978
 30
0.0
 10
477.478729
 20
681.915978
 30
0.0
 10
477.503730
 20
682.115978
 30
0.0
 10
477.553730
 20
682.290979
 30
0.0
 10
477.603730
 20
682.440979
 30
0.0
 10
477.678730
 20
682.590979
 30
0.0
 10
477.778730
 20
682.715979
 30
0.0
 10
477.878730
 20
682.840979
 30
0.0
 10
478.003730
 20
682.965980
 30
0.0
 10
478.128730
 20
683.040980
 30
0.0
 10
478.253731
 20
683.115980
 30
0.0
 10
478.453731
 20
683.190980
 30
0.0
 10
478.653731
 20
683.215980
 30
0.0
 10
478.903732
 20
683.240980
 30
0.0
 10
479.203732
 20
683.215980
 30
0.0
 10
479.478733
 20
683.140980
 30
0.0
 10
479.728733
 20
683.015980
 30
0.0
 10
479.928733
 20
682.840979
 30
0.0
 10
480.078733
 20
682.665979
 30
0.0
 10
480.178734
 20
682.465979
 30
0.0
 10
480.253734
 20
682.240978
 30
0.0
 10
480.303734
 20
681.990978
 30
0.0
 10
480.328734
 20
681.715978
 30
0.0
 10
480.303734
 20
681.440977
 30
0.0
 10
480.253734
 20
681.190977
 30
0.0
 10
480.178734
 20
680.965976
 30
0.0
 10
480.078733
 20
680.765976
 30
0.0
 10
479.928733
 20
680.590976
 30
0.0
 10
479.728733
 20
680.415976
 30
0.0
 10
479.478733
 20
680.290975
 30
0.0
 10
479.203732
 20
680.215975
 30
0.0
 10
478.903732
 20
680.190975
 30
0.0
 10
478.578731
 20
680.215975
 30
0.0
 10
478.303731
 20
680.290975
 30
0.0
 10
478.078730
 20
680.415976
 30
0.0
 10
477.853730
 20
680.590976
 30
0.0
 10
477.678730
 20
680.815976
 30
0.0
 10
477.553730
 20
681.065977
 30
0.0
 10
477.503730
 20
681.365977
 30
0.0
 10
477.478729
 20
681.690978
 30
0.0
  0
LWPOLYLINE
  5
321
100
AcDbEntity
  8
sit_gravat
 62
7
100
AcDbPolyline
 90
29
 70
0
 10
478.078730
 20
681.715978
 30
0.0
 10
478.103730
 20
681.465977
 30
0.0
 10
478.128730
 20
681.265977
 30
0.0
 10
478.203731
 20
681.090977
 30
0.0
 10
478.303731
 20
680.965976
 30
0.0
 10
478.478731
 20
680.815976
 30
0.0
 10
478.678731
 20
680.715976
 30
0.0
 10
478.903732
 20
680.690976
 30
0.0
 10
479.128732
 20
680.715976
 30
0.0
 10
479.328732
 20
680.815976
 30
0.0
 10
479.478733
 20
680.940976
 30
0.0
 10
479.578733
 20
681.090977
 30
0.0
 10
479.653733
 20
681.265977
 30
0.0
 10
479.703733
 20
681.490977
 30
0.0
 10
479.703733
 20
681.715978
 30
0.0
 10
479.703733
 20
681.965978
 30
0.0
 10
479.653733
 20
682.165978
 30
0.0
 10
479.578733
 20
682.340979
 30
0.0
 10
479.478733
 20
682.465979
 30
0.0
 10
479.328732
 20
682.615979
 30
0.0
 10
479.128732
 20
682.690979
 30
0.0
 10
478.903732
 20
682.715979
 30
0.0
 10
478.678731
 20
682.690979
 30
0.0
 10
478.478731
 20
682.615979
 30
0.0
 10
478.303731
 20
682.465979
 30
0.0
 10
478.203731
 20
682.340979
 30
0.0
 10
478.128730
 20
682.165978
 30
0.0
 10
478.103730
 20
681.940978
 30
0.0
 10
478.078730
 20
681.715978
 30
0.0
  0
LWPOLYLINE
  5
322
100
AcDbEntity
  8
sit_gravat
 62
7
100
AcDbPolyline
 90
11
 70
0
 10
480.803735
 20
680.240975
 30
0.0
 10
480.803735
 20
683.190980
 30
0.0
 10
481.378735
 20
683.190980
 30
0.0
 10
482.578737
 20
681.215977
 30
0.0
 10
482.578737
 20
683.190980
 30
0.0
 10
483.128738
 20
683.190980
 30
0.0
 10
483.128738
 20
680.240975
 30
0.0
 10
482.553737
 20
680.240975
 30
0.0
 10
481.353735
 20
682.165978
 30
0.0
 10
481.353735
 20
680.240975
 30
0.0
 10
480.803735
 20
680.240975
 30
0.0
  0
ENDSEC
  0
SECTION
  2
OBJECTS
  0
DICTIONARY
  5
C
330
0
100
AcDbDictionary
  3
ACAD_GROUP
350
D
  3
ACAD_MLINESTYLE
350
17
  0
DICTIONARY
  5
D
330
C
100
AcDbDictionary
  0
DICTIONARY
  5
1A
330
C
100
AcDbDictionary
  0
DICTIONARY
  5
17
330
C
100
AcDbDictionary
  3
STANDARD
350
18
  0
DICTIONARY
  5
19
330
C
100
AcDbDictionary
  0
ENDSEC
  0
EOF
