<?xml version="1.0" encoding="UTF-8" standalone="no"?>
<!-- Created with Inkscape (http://www.inkscape.org/) -->

<svg
   xmlns:dc="http://purl.org/dc/elements/1.1/"
   xmlns:cc="http://creativecommons.org/ns#"
   xmlns:rdf="http://www.w3.org/1999/02/22-rdf-syntax-ns#"
   xmlns:svg="http://www.w3.org/2000/svg"
   xmlns="http://www.w3.org/2000/svg"
   xmlns:sodipodi="http://sodipodi.sourceforge.net/DTD/sodipodi-0.dtd"
   xmlns:inkscape="http://www.inkscape.org/namespaces/inkscape"
   id="svg4184"
   version="1.1"
   inkscape:version="0.91 r13725"
   xml:space="preserve"
   width="1771.65"
   height="2480.3125"
   viewBox="0 0 1771.65 2480.3125"
   sodipodi:docname="sit_gravat_tot.svg"><metadata
     id="metadata4190"><rdf:RDF><cc:Work
         rdf:about=""><dc:format>image/svg+xml</dc:format><dc:type
           rdf:resource="http://purl.org/dc/dcmitype/StillImage" /><dc:title></dc:title></cc:Work></rdf:RDF></metadata><defs
     id="defs4188"><clipPath
       clipPathUnits="userSpaceOnUse"
       id="clipPath4218"><path
         d="m 13.4056,13.4056 473.0754,0 0,673.1004 -473.0754,0 0,-673.1004"
         id="path4220"
         inkscape:connector-curvature="0"
         style="clip-rule:evenodd" /></clipPath><clipPath
       clipPathUnits="userSpaceOnUse"
       id="clipPath4600"><path
         d="m 14.1094,686.142 0,-672.0201 472.0196,0 0,672.0201 -472.0196,0"
         id="path4602"
         inkscape:connector-curvature="0"
         style="clip-rule:evenodd" /></clipPath><clipPath
       clipPathUnits="userSpaceOnUse"
       id="clipPath4612"><path
         d="m 14.1094,686.142 0,-672.0201 472.0196,0 0,672.0201 -472.0196,0"
         id="path4614"
         inkscape:connector-curvature="0"
         style="clip-rule:evenodd" /></clipPath><clipPath
       clipPathUnits="userSpaceOnUse"
       id="clipPath4624"><path
         d="m 14.1094,686.142 0,-672.0201 472.0196,0 0,672.0201 -472.0196,0"
         id="path4626"
         inkscape:connector-curvature="0"
         style="clip-rule:evenodd" /></clipPath><clipPath
       clipPathUnits="userSpaceOnUse"
       id="clipPath13052"><path
         d="m 13.7583,13.7583 472.3697,0 0,672.3947 -472.3697,0 0,-672.3947"
         id="path13054"
         inkscape:connector-curvature="0"
         style="clip-rule:evenodd" /></clipPath></defs><sodipodi:namedview
     pagecolor="#ffffff"
     bordercolor="#666666"
     borderopacity="1"
     objecttolerance="10"
     gridtolerance="10"
     guidetolerance="10"
     inkscape:pageopacity="0"
     inkscape:pageshadow="2"
     inkscape:window-width="1360"
     inkscape:window-height="749"
     id="namedview4186"
     showgrid="false"
     inkscape:zoom="0.1902986"
     inkscape:cx="1049.7012"
     inkscape:cy="861.10584"
     inkscape:window-x="1436"
     inkscape:window-y="-4"
     inkscape:window-maximized="1"
     inkscape:current-layer="g4192" /><g
     id="g4192"
     inkscape:groupmode="layer"
     inkscape:label="sit_gravat"
     transform="scale(1.25,1.25)"><g
       style="font-variant:normal;font-weight:normal;font-size:4px;font-family:Arial;-inkscape-font-specification:ArialMT;writing-mode:lr-tb;fill:#ffffff;fill-opacity:1;fill-rule:nonzero;stroke:none"
       id="text4204" /><g
       id="g4604"
       transform="scale(2.83465,2.83465)" /><g
       id="g4616"
       transform="scale(2.83465,2.83465)" /><g
       id="g4628"
       transform="scale(2.83465,2.83465)" /><path
       id="path13046"
       style="fill:none;stroke:#000000;stroke-width:0.36850449;stroke-linecap:round;stroke-linejoin:round;stroke-miterlimit:10;stroke-dasharray:none;stroke-opacity:1"
       d="M 171.18366,1194.0169 418.55025,1057.6306 M 164.49219,470.21174 39.995211,485.94121 m 141.953319,-17.93199 -17.45634,2.20252 m 153.01696,-21.14649 -135.56062,18.94397 m 196.47724,-23.85925 -60.91662,4.91528 m 142.69628,4.41355 -81.77966,-9.32883 m 133.1095,14.18742 -51.32984,-4.85859 m 149.76873,24.80036 -98.43889,-19.94177 m 181.3524,58.66025 -82.91351,-38.71848 M 868.90526,631.44663 692.88767,516.99764 m 227.74145,141.26762 -51.72386,-26.81863 m 128.27359,66.5264 -76.54973,-39.70777 M 1148.3394,775.57441 997.17885,697.97303 m 292.34025,142.18038 -141.1797,-64.579 m 229.6662,112.74821 -88.4865,-48.16921 M 563.53976,653.10053 456.27093,620.53323 m 259.6426,92.53715 -152.37377,-59.96985 M 304.18629,596.24878 149.17572,591.50642 m 220.6554,10.66111 -65.64483,-5.91875 m 152.08464,24.28445 -86.43981,-18.3657 m 448.8895,155.35016 -104.07701,-44.9944 M 1083.2558,867.42274 818.72062,757.51769 M 689.19696,747.46602 433.28476,665.56165 m 0,0 -51.92229,-16.61956 m 317.34474,101.56268 -9.51025,-3.03875 m 113.58726,48.03315 -104.07701,-44.9944 M 1363.4581,1030.7496 802.78422,795.49917 M 43.30183,599.5143 149.17572,591.50642 m -109.180509,8.36221 3.306619,-0.35433 m 1173.90257,942.8953 30.3676,-1.3096 m -30.5746,-3.8806 0.207,5.1902 m -0.7314,-18.1616 0.5244,12.9714 m 18.3487,-13.7254 -18.8731,0.754 m 30.3506,-1.2161 -11.4775,0.4621 m 12.2259,17.606 -0.7484,-18.0681 m -118.426,405.3351 -0.7682,16.6054 m 69.3214,-11.3216 -68.5532,-5.2838 m 72.7938,5.6325 -4.2406,-0.3487 m 7.6479,0.6038 -3.4073,-0.2551 m 21.0955,1.6186 -17.6882,-1.3635 m 22.7481,1.7462 -5.0599,-0.3827 m 14.1307,1.0743 -9.0708,-0.6916 m 21.7899,1.6667 -12.7191,-0.9751 m 40.048,3.0586 -27.3289,-2.0835 m 32.2328,2.4548 -4.9039,-0.3713 m 4.3852,5.2214 0.5187,-4.8501 m -76.7708,-5.8677 17.6882,1.3635 m -21.0955,-1.6186 3.4073,0.2551 m -7.6479,-0.6038 4.2406,0.3487 m -72.7938,-5.6325 68.5532,5.2838 m -66.5151,-49.4306 -2.0381,44.1468 m 68.6354,-39.2117 -66.5973,-4.9351 m 68.403,5.0258 -1.8057,-0.091 m 8.8951,0.6013 -7.0894,-0.5103 m 9.1616,0.6548 -2.0722,-0.1445 m 9.5273,0.6038 -7.4551,-0.4593 m 18.9666,1.1963 -11.5115,-0.737 m 30.07,1.8708 -18.5585,-1.1338 m 56.9425,3.6453 -38.384,-2.5115 m 39.1522,2.5654 -0.7682,-0.054 m 0.1133,10.4146 0.6549,-10.3606 m -2.1997,30.6766 1.5448,-20.316 m -2.6532,34.9654 1.1084,-14.6494 m -6.0123,14.2781 4.9039,0.3713 m -32.2328,-2.4548 27.3289,2.0835 m -40.048,-3.0586 12.7191,0.9751 m -26.8498,-2.0494 14.1307,1.0743 m -9.4507,-45.5953 18.5585,1.1282 m -30.07,-1.8652 11.5115,0.737 m -18.9666,-1.1963 7.4551,0.4593 m -9.5273,-0.6038 2.0722,0.1445 m -9.1616,-0.6548 7.0894,0.5103 m -8.8951,-0.601 1.8057,0.091 m -68.403,-5.0261 66.5973,4.9351 m -64.5223,-49.9295 -2.075,44.9944 m 65.9397,-39.1522 -63.8647,-5.8422 m 76.476,6.7465 -12.6113,-0.9043 m 89.4672,6.4035 -76.8559,-5.4992 m 80.8613,5.8592 -4.0054,-0.36 m -1.2898,33.429 5.2952,-33.069 m -5.9386,42.9109 0.6434,-9.8419 m -39.0274,7.3248 38.384,2.5171 m -11.0297,-127.0745 24.6672,2.3131 m -35.7081,-3.3506 11.0409,1.0375 m -20.7439,-1.9474 9.703,0.9099 m -27.3544,-2.554 17.6514,1.6441 m -115.9372,-11.88 98.2858,10.2359 m -96.0861,-63.8788 -2.1997,53.6429 m 88.4836,-44.3708 -86.2839,-9.2721 m 116.7677,12.4044 -30.4838,-3.1323 m 74.5059,7.7329 -44.0221,-4.6006 m 42.3809,57.379 1.6412,-52.7784 M 204.19089,1060.6778 152.4316,656.38872 m 53.8422,417.39658 -2.08291,-13.1075 m 8.77693,55.1028 -6.69402,-41.9953 m 7.81683,48.9912 -1.12281,-6.9959 m 3.35141,20.9878 -2.2286,-13.9919 m -11.80094,22.184 14.02954,-8.1921 m -67.19963,39.8381 53.17009,-31.646 m -23.1228,5.2044 2.45084,7.098 m -10.87826,-59.3548 8.42742,52.2568 m -13.6565,-86.9897 5.22908,34.7329 M 152.4316,656.38872 126.6618,657.9988 m 209.36328,815.5373 6.84851,11.6759 m -16.77545,-28.5988 9.92694,16.9229 m -128.70728,59.3462 118.78034,-76.2691 m -104.20316,100.1369 -14.57718,-23.8678 m 75.59473,-14.383 -61.01755,38.2508 m 69.80468,-43.9484 -8.78713,5.6976 m 13.13832,-3.1351 -4.35119,-2.5625 m 10.29545,-1.2926 -5.94426,3.8551 m 11.89135,-7.7187 -5.94709,3.8636 m 17.83845,-11.5682 -11.89136,7.7046 m 17.83562,-11.5597 -5.94426,3.8551 m 11.89136,-7.7188 -5.9471,3.8637 m 17.09577,-10.8738 -11.14867,7.0101 m -5.62678,-35.6089 -17.67972,-23.4623 m -101.10062,99.7314 118.78034,-76.2691 m -120.06671,74.1545 1.28637,2.1146 m -15.53332,-22.8359 14.24695,20.7213 m 102.38699,-97.6168 -116.63394,76.8955 m 116.63394,-76.8955 -26.61169,-46.6669 m -90.02225,123.5624 116.63394,-76.8955 m -144.5816,29.5172 27.94766,47.3783 m 3.67994,-67.7708 -31.6276,20.3925 m 59.71162,-38.6817 -28.08402,18.2892 m 86.34231,-55.7916 -58.25829,37.5024 m 58.25829,-37.5024 -26.07028,-45.7087 m -32.18801,83.2111 58.25829,-37.5024 m -86.34231,55.7916 28.08402,-18.2892 m -59.71162,38.6817 31.6276,-20.3925 m -60.66661,-25.5629 29.03901,45.9554 m 91.89963,-121.8928 -120.93864,75.9374 m 221.52336,-284.6725 -6.96757,-12.3478 m 13.93514,24.6898 -6.96757,-12.342 m 13.92947,24.6898 -6.9619,-12.3478 m 10.44285,18.516 -3.48095,-6.1682 m 3.48095,6.1738 0,-0.01 m 3.48379,6.1839 -3.48379,-6.1739 m 10.44852,18.5131 -6.96473,-12.3392 m 13.9323,24.6813 -6.96757,-12.3421 m 16.2142,28.7292 -2.28473,-4.045 m 3.17198,18.1927 -0.88725,-14.1477 m 1.32945,21.2202 -0.4422,-7.0725 m 0.89008,14.1478 -0.44788,-7.0753 m 0.62646,9.9921 -0.17858,-2.9168 m -53.83567,-67.3995 54.04543,70.2937 m -60.16828,-81.9271 6.12285,11.6334 m -28.5591,-54.2297 22.43625,42.5963 m -24.58492,-46.1339 2.14867,3.5376 m 22.612,-9.4564 -3.31654,-5.9046 m 10.28127,18.241 -6.96473,-12.3364 M 39.995211,1471.2089 74.32509,1450.3458 m -32.53016,-29.3074 -1.799719,1.0998 m 47.237741,-28.9077 -45.438022,27.8079 m 50.377116,-19.5676 -4.939094,-8.2403 m 12.212523,20.2989 -7.273429,-12.0586 m 16.649884,27.3685 -9.376455,-15.3099 m 5.890405,17.4785 3.48605,-2.1686 m -24.158588,15.0549 20.672538,-12.8863 m -25.306907,15.7805 4.634369,-2.8942 m -10.338252,6.4516 5.703883,-3.5574 m 137.612907,-172.823 -16.7474,-29.3471 m -52.57284,69.619 69.32024,-40.2719 m -125.642464,72.9951 56.322224,-32.7232 m -72.18039,6.2561 15.858166,26.4671 m -8.503383,-30.7418 -7.354783,4.2747 m 19.026171,-11.8035 -11.671388,7.5288 m 23.343057,-15.0577 -11.671669,7.5289 m 35.009629,-22.6319 -23.33796,15.103 m 29.27428,-18.9383 -5.93632,3.8353 m 70.71743,-41.4397 -64.78111,37.6044 m 39.24885,74.3132 65.56801,-41.7175 m -72.53473,46.1566 6.96672,-4.4391 m -18.92582,12.0501 11.9591,-7.611 m -35.44333,22.3059 23.48423,-14.6949 m -36.72148,23.366 13.23725,-8.6711 m -27.75292,-14.6722 14.51567,23.3433 m -4.09918,-29.9168 -10.41649,6.5735 m 47.32164,-29.0183 -36.90515,22.4448 m 112.87094,-69.0436 -75.96579,46.5988 m 88.40934,-24.772 -12.44355,-21.8268 M 78.245694,1194.4138 39.995211,1059.1471 m 44.266745,157.0198 -6.016262,-21.7531 m -21.66523,37.4571 27.681492,-15.704 m -40.162456,23.0712 12.480964,-7.3672 m -14.980274,8.8441 2.49931,-1.4769 m -4.104289,2.4265 1.604979,-0.9496 m 94.51318,41.5077 64.78111,-37.6044 m -70.71743,41.4397 5.93632,-3.8353 m -29.27428,18.9383 23.33796,-15.103 m -35.009629,22.6319 11.671669,-7.5289 m -23.343057,15.0577 11.671388,-7.5288 m -19.026171,11.8035 7.354783,-4.2747 m -11.964774,-2.7553 4.609991,7.03 m -10.935513,-17.0958 6.325522,10.0658 m -13.204367,-21.2599 6.878845,11.1941 m -21.095465,-33.8741 14.21662,22.68 m 36.833442,-53.0873 -51.050062,30.4073 m 92.483288,-54.927 -41.433226,24.5197 m 47.855696,-28.131 -6.42247,3.6113 m 34.5901,-20.5796 -28.16763,16.9683 m 31.54852,-11.3585 -3.38089,-5.6098 m 17.07792,28.4401 -13.69703,-22.8303 m 26.32993,44.9916 -12.6329,-22.1613 m -46.79639,475.8867 97.15905,-58.1302 m -117.86787,23.9812 20.70882,34.149 m -27.29371,-45.258 6.58489,11.109 m 0.43342,-15.0123 -7.01831,3.9033 m 45.56417,-27.0029 -38.54586,23.0996 m 47.87157,-28.6725 -9.32571,5.5729 m 44.49861,-26.6174 -35.1729,21.0445 m 42.07273,-25.1519 -6.89983,4.1074 m 34.38998,40.7481 -27.49015,-44.8555 M 1345.1945,785.94923 1289.5191,757.68494 m 66.603,34.59973 -10.9276,-6.33544 m 32.8111,19.00633 -21.8835,-12.67089 M 636.07562,54.421878 634.44569,40.030644 m 7.74427,71.671286 -6.11434,-57.280052 m 54.70307,51.439262 -48.58873,5.84079 m 54.39977,38.7148 -5.81104,-44.55559 m 6.6671,51.12348 -0.85606,-6.56789 m 10.90773,5.30165 -10.05167,1.26624 m 15.30428,38.24311 -5.25261,-39.50935 m 19.64129,80.46126 -14.38868,-40.95191 m 18.69451,84.53635 -4.30583,-43.58444 m 14.74868,154.38978 -10.44285,-110.80534 m 14.27246,146.51059 -3.82961,-35.70525 m 3.1493,36.93832 0.68031,-1.23307 m -9.4904,13.24915 8.81009,-12.01608 m -10.85388,15.05199 2.04379,-3.03591 m -11.89136,19.56759 9.84757,-16.53168 m -12.206,20.3131 2.35843,-3.78142 m -51.31283,-15.72664 48.9544,19.50806 m -54.34024,-21.48948 5.38584,1.98142 m -39.02747,-13.87844 33.64163,11.89702 m -38.35848,-13.81325 4.71685,1.91623 M 516.35417,402.6677 629.27813,427.5701 M 387.40028,411.11212 516.35417,402.6677 m -203.97574,16.62239 75.02185,-8.17797 m -76.22658,-2.24504 1.20473,10.42301 m -1.5704,-13.58931 0.36567,3.1663 m -7.58552,-2.5115 7.21985,-0.6548 m -19.54207,-102.86662 12.32222,103.52142 m -9.51309,-119.17435 -2.80913,15.65293 m -10.12311,-133.69938 12.93224,118.04645 m -15.97041,-146.40911 3.03817,28.36266 M 267.26186,40.030644 278.10468,140.77212 m 199.17951,1357.01158 -73.4316,-154.752 m 0,0 10.04316,82.2161 m -11.54553,-183.8894 1.50237,101.6733 m -1.68095,-104.5901 0.17858,2.9168 m -1.06866,-17.0646 0.89008,14.1478 m -1.77733,-28.2955 0.88725,14.1477 m 2.97638,-3.9741 -3.86363,-10.1736 m 8.88663,23.4369 -5.023,-13.2633 m 7.57985,21.0501 -2.55685,-7.7868 m 88.48643,201.5011 -2.0211,-5.0996 m 7.2397,18.2722 -5.2186,-13.1726 m 10.45136,26.3537 -5.23276,-13.1811 m 10.45135,26.3537 -5.21859,-13.1726 m 5.26111,13.8813 -0.0425,-0.7087 m -234.65065,-331.2005 -4.0904,-6.4658 m 3.53736,5.6636 0.55304,0.8022 m 125.0659,199.6218 -125.61894,-200.424 m 135.6621,282.6401 -10.04316,-82.2161 m 23.59562,108.9185 -13.55246,-26.7024 m 13.17262,26.8952 0.37984,-0.1928 m 14.83373,34.0102 -15.21357,-33.8174 m -143.03077,-399.7083 2.53418,43.8208 m -225.614899,235.0719 -20.96167,-31.8416 m 21.369576,34.0611 -0.407906,-2.2195 m -0.894333,4.0677 1.302239,-1.8482 m -3.135974,2.9906 1.833735,-1.1424 m -20.067337,12.4555 18.233602,-11.3131 m 449.989917,124.9003 5.21859,13.167 m -10.45135,-26.3481 5.23276,13.1811 m -10.45136,-26.3537 5.2186,13.1726 m -7.2397,-18.2722 2.0211,5.0996 m -93.50943,-214.7644 5.023,13.2633 m -8.88663,-23.4369 3.86363,10.1736 m -4.94363,-24.3015 1.08,14.1279 m -2.16,-28.2615 1.08,14.1336 m -2.16567,-28.2643 1.08567,14.1307 m -1.37197,-17.8753 0.2863,3.7446 m -0.44221,-7.543 0.15591,3.7984 m -0.72567,-17.9631 0.56976,14.1647 m -0.85039,-21.2429 0.28063,7.0782 m -0.56977,-14.1563 0.28914,7.0781 m -0.85323,-21.2457 0.56409,14.1676 m -0.84756,-21.2514 0.28347,7.0838 m -0.5726,-14.1562 0.28913,7.0724 m -0.8589,-21.2372 0.56977,14.1648 m -1.2841,-31.9295 0.71433,17.7647 m -12.4923,-440.45921 -0.006,0 m 51.92262,16.61956 -51.92229,-16.61956 m 317.34474,101.56268 -9.51025,-3.03875 m 113.58726,48.03315 -104.07701,-44.9944 m -386.63776,329.46573 2.99906,-1.9163 m -8.97166,5.7289 5.9726,-3.8126 m -11.94521,7.6252 5.97261,-3.8126 m -11.94522,7.6252 5.97261,-3.8126 m -11.94522,7.6337 5.97261,-3.8211 m -11.94663,7.6337 5.97402,-3.8126 m -16.74739,9.3912 10.77337,-5.5786 m -17.04532,8.8895 6.27195,-3.3109 m -12.53851,6.6189 6.26656,-3.308 m -12.42484,6.5593 6.15828,-3.2513 m -8.32707,-3.5036 2.16879,6.7549 m -4.33134,-13.5014 2.16255,6.7465 m -3.41093,-10.6441 1.24838,3.8976 m -5.48108,-60.4432 1.78554,23.1959 m -3.096,-40.2294 1.31046,17.0335 m -1.84763,-24.0974 0.53717,7.0639 m -0.5315,-7.0639 -0.006,0 m 3.3e-4,0 0.006,0 m -0.53239,-7.0696 0.52639,7.0696 m -1.59024,-21.20602 1.06385,14.13642 m -2.12684,-28.26432 1.06299,14.1279 m -2.12655,-28.26429 1.06356,14.13639 m -2.1274,-28.26996 1.06384,14.13357 m -1.58967,-21.19752 0.52583,7.06395 m -1.0579,-14.13356 0.53207,7.06961 m -1.59506,-21.20034 1.06299,14.13073 m -2.12683,-28.2643 1.06384,14.13357 m -1.59024,-21.20602 0.5264,7.07245 m -1.05789,-14.1364 0.53149,7.06395 m -1.59534,-21.19751 1.06385,14.13356 m -1.58968,-21.19751 0.52583,7.06395 m -1.06299,-14.1279 0.53716,7.06395 m -1.59505,-21.20035 1.05789,14.1364 m -2.12174,-28.26996 1.06385,14.13356 m -1.59024,-21.20602 0.52639,7.07246 m -1.06356,-14.1364 0.53717,7.06394 m -1.59449,-21.19184 1.05732,14.1279 m -2.12173,-28.26997 1.06441,14.14207 m -2.12741,-28.26996 1.063,14.12789 m -2.12061,-28.25579 1.05761,14.1279 m -1.59534,-21.19752 0.53773,7.06962 m -1.06412,-14.14207 0.52639,7.07245 m -1.05789,-14.1364 0.5315,7.06395 m -0.85182,-11.29324 0.32032,4.22929 m -0.85181,-11.29608 0.53149,7.06679 m -1.05817,-14.1364 0.52668,7.06961 m -1.58967,-21.19751 1.06299,14.1279 m -2.12655,-28.2643 1.06356,14.1364 m -2.12174,-28.26996 1.05818,14.13356 m -1.59591,-21.20318 0.53773,7.06962 m -0.67039,-8.84695 0.13266,1.77733 m -1.27985,-13.06207 1.14719,11.28474 m -2.58861,-25.37862 1.44142,14.09388 m 12.7239,-14.60411 -14.16532,0.51023 m 21.24854,-0.75685 -7.08322,0.24662 m 14.15964,-0.50741 -7.07642,0.26079 m 21.24797,-0.76252 -14.17155,0.50173 m 21.2491,-0.75118 -7.07755,0.24945 m 10.19595,-0.36 -3.1184,0.11055 m 17.29023,-0.23528 -14.17183,0.12473 m 28.34877,-0.24662 -14.17694,0.12189 m 28.35019,-0.23811 -14.17325,0.11622 m 21.25421,-0.17574 -7.08096,0.0595 m 7.08096,-0.0538 0,-0.006 m 0,3.3e-4 0,0.006 m 7.09229,-0.0684 -7.09229,0.0624 m 21.26554,-0.17862 -14.17325,0.11622 m 119.81499,835.40256 11.59088,25.7556 m 0,0 -11.59088,-25.7556 M 152.4316,656.38872 l 37.20195,-2.24788 m -62.97175,3.85796 -25.77632,1.60441 M 39.995211,949.74948 53.59331,1002.1395 m -7.023979,-351.97567 -6.57412,1.02898 m 210.530019,2.08913 30.63945,345.2377 m 12.95577,-347.72369 20.94806,427.25825 m 22.7509,-427.62391 -1.17921,0.0113 m 8.25733,-0.25225 -7.07812,0.24095 m 7.08379,-0.24378 -0.006,0.003 m 7.08413,-0.23828 -7.07813,0.23528 m 21.24571,-0.72001 -14.16758,0.48473 m 21.2457,-0.73418 -7.07812,0.24945 m 15.21356,-0.52441 -8.13544,0.27496 m 315.96993,98.24897 -255.9122,-81.90437 m -118.21625,412.49255 75.68516,-40.6432 m -17.05042,322.5719 30.14934,-16.9512 m 944.92771,-365.56501 29.2253,16.85766 m -297.5221,-128.05248 268.2968,111.19482 m -99.4452,-722.62627 -1.3379,-6.99025 m 4.5638,35.28148 -3.2259,-28.29123 m 10.4457,99.24988 -7.2198,-70.95865 m 9.5102,90.55459 -2.2904,-19.59594 m 3.104,26.81579 -0.8136,-7.21985 m -53.4558,13.25199 54.2694,-6.03214 m -100.5139,11.06081 46.2445,-5.02867 m -60.7267,6.75214 14.4822,-1.72347 m -21.4923,2.94803 7.0101,-1.22456 m -66.8156,7.23119 59.8055,-6.00663 m -61.7982,6.20789 1.9927,-0.20126 m -15.7833,1.7915 13.7906,-1.59024 m -16.2057,1.86803 2.4151,-0.27779 m -60.7607,5.89323 58.3456,-5.61544 m -65.27349,6.31277 6.92789,-0.69733 m -8.84411,1.05166 1.91622,-0.35433 m -1.49953,3.88914 -0.41669,-3.53481 m 2.98772,25.33043 -2.57103,-21.79562 m -19.93042,25.37862 22.50145,-3.583 m -36.30337,117.96963 13.80192,-114.38663 m -28.58745,103.39669 14.78553,10.98994 m -26.28287,-2.24788 11.49734,-8.74206 m -57.63977,-22.1868 46.14243,30.92886 m -190.36943,-124.43546 144.227,93.5066 m -148.05661,-129.21185 3.82961,35.70525 m -14.27246,-146.51059 10.44285,110.80534 m -14.74868,-154.38978 4.30583,43.58444 m -18.69451,-84.53635 14.38868,40.95191 m -19.64129,-80.46126 5.25261,39.50935 m -15.30428,-38.24311 10.05167,-1.26624 m -10.90773,-5.30165 0.85606,6.56789 m -6.6671,-51.12348 5.81104,44.55559 m -54.39977,-38.7148 48.58873,-5.84079 m -54.70307,-51.439262 6.11434,57.280052 m -7.74427,-71.671286 1.62993,14.391234 M 1234.3342,185.59446 1221.8986,62.560442 m 29.5909,121.186108 -17.1553,1.84791 m 19.7802,47.295 -2.6249,-49.14291 m -3.4923,64.10362 6.1172,-14.96071 m -1109.10589,66.9258 -105.013299,7.72159 m 105.785449,-7.77828 -0.77215,0.0567 m 149.06658,-12.63404 -148.29443,12.57734 m 145.4853,3.07559 2.80913,-15.65293 m 9.51309,119.17435 -12.32222,-103.52142 m 19.54207,102.86662 -7.21985,0.6548 m 7.58552,2.5115 -0.36567,-3.1663 m 1.5704,13.58931 -1.20473,-10.42301 m -55.49507,16.59688 56.6998,-6.17387 m -152.84461,16.63939 96.14481,-10.46552 M 39.995211,448.94336 159.53382,435.92948 M 42.649294,1704.9399 l -2.654083,-4.371 m 7.378877,12.155 -4.724794,-7.784 m 6.510907,10.7348 -1.786113,-2.9508 m 17.333601,29.7156 -15.547488,-26.7648 m -7.268043,40.887 22.815531,-14.1222 m -24.014304,15.2306 1.198773,-1.1084 m -1.890711,0.1276 0.691938,0.9808 m -0.698174,-0.9921 0.0062,0.011 M 171.29535,1530.5296 157.6723,1509.247 m -17.63634,40.0536 31.25939,-18.771 m -33.97555,20.6731 2.71616,-1.9021 m -12.58386,7.8492 9.8677,-5.9471 m -17.47902,10.5449 7.61132,-4.5978 m -11.11891,6.7209 3.50759,-2.1231 m -10.49727,6.3468 6.98968,-4.2237 m -11.65183,7.0186 4.66215,-2.7949 m -65.956924,39.892 61.294774,-37.0971 m -64.686149,31.6149 3.391375,5.4822 m 20.182425,-41.7346 -23.5738,14.2498 m 39.073666,-23.675 -15.499866,9.4252 m 18.041129,-10.9899 -2.541263,1.5647 m 7.090026,-4.354 -4.548763,2.7893 m 13.161847,-7.7726 -8.613084,4.9833 m 71.513397,-43.2256 -62.900313,38.2423 m 1052.470413,-57.481 0.9609,-21.7616 m -2.605,58.8841 1.6441,-37.1225 m -3.2712,73.8199 1.6271,-36.6974 m -11.3414,274.3857 9.7143,-237.6883 m -16.3418,381.1442 6.6275,-143.4559 m -897.59764,129.6795 4.19613,13.7764 m -26.59185,-88.9513 22.39572,75.1749 m -0.12302,-82.7916 -22.2727,7.6167 m 41.39326,-14.1534 -19.12056,6.5367 m 25.26325,-2.2961 -6.14269,-4.2406 m 210.62612,-65.5938 -204.48343,69.8344 m 141.50034,-248.0205 62.98309,178.1861 m -412.175404,131.8282 0.212315,36.8703 m 3.387407,-37.8624 -3.599722,0.9921 m 25.570527,-6.4176 -21.970805,5.4255 m 35.09977,-8.5351 -13.128965,3.1096 m 13.59895,43.2879 -0.469985,-46.3975 m 65.118142,37.0885 3.14703,9.309 m -6.82697,-20.2847 3.67994,10.9757 m -9.1973,-24.5849 5.51736,13.6092 m -13.71318,-38.316 8.19582,24.7068 m 12.56402,-30.6851 -20.75984,5.9783 m 21.68564,-6.1172 -0.9258,0.1389 m 8.52691,-2.6957 -7.60111,2.5568 m 13.43964,-4.5297 -5.83853,1.9729 m 7.79302,-2.6277 -1.95449,0.6548 m 11.19375,27.7965 -9.23926,-28.4513 m 22.68712,69.9024 -13.44786,-41.4511 m -9.1392,-28.1537 9.1392,28.1537 m 5.51623,-33.4177 -14.65543,5.264 m 20.3304,-7.1688 -5.67497,1.9048 m 23.7161,-7.9823 -18.04113,6.0775 m 38.617,62.9972 -20.57587,-69.0747 m 24.772,82.8511 -4.19613,-13.7764 m -49.8082,-27.6747 13.44786,41.4511 m -59.76689,-58.6007 -19.25862,-59.6694 m -14.37876,69.3526 33.63738,-9.6832 m -47.160927,-36.0482 13.523547,45.7314 m -14.852714,-49.048 1.329167,3.3166 m -4.105707,-10.2615 2.77654,6.9449 m -4.822023,-12.0076 2.045483,5.0627 m -4.472511,-11.1373 2.427028,6.0746 m -4.413267,-11.5993 1.986239,5.5247 M 71.89863,1790.6399 82.806646,1823.4 m -11.313655,-33.5141 0.405639,0.754 m 33.63624,-18.9893 -34.041879,18.2353 m 34.441279,-17.4841 -0.3994,-0.7512 m 1.4383,15.5622 -1.0389,-14.811 m 12.4203,46.2359 -11.3814,-31.4249 m 14.30024,39.4895 -2.91884,-8.0646 m -60.647332,88.4723 21.970805,-5.4255 m -25.570527,6.4176 3.599722,-0.9921 m -15.73826,-20.7525 12.138538,21.7446 m -14.112305,-25.7046 1.973767,3.96 m 29.524013,-96.4716 -31.49778,20.0665 m 31.903419,-19.3125 -0.405639,-0.754 M 82.806646,1823.4 71.89863,1790.6399 m 12.894255,38.2848 -1.986239,-5.5247 m 4.413267,11.5993 -2.427028,-6.0746 m 4.472511,11.1373 -2.045483,-5.0627 m 4.822023,12.0076 -2.77654,-6.9449 m 4.105707,10.2615 -1.329167,-3.3166 m 14.852714,49.048 -13.523547,-45.7314 m -0.564095,48.2514 14.087642,-2.52 m -27.216607,5.6296 13.128965,-3.1096 m 162.849792,-56.7072 6.14269,4.2406 m -25.26325,2.2961 19.12056,-6.5367 m -41.39326,14.1534 22.2727,-7.6167 m -23.07831,7.869 0.80561,-0.2523 m -2.72126,-5.9471 1.91565,6.1994 m -14.23334,-46.0772 12.31769,39.8778 m -14.83089,-47.9339 2.5132,8.0561 m -12.98979,-41.848 10.47659,33.7919 m -22.21374,-71.6515 11.73715,37.8596 m 1.09616,-45.5075 -12.83331,7.6479 m 30.76219,-18.034 -17.92888,10.3861 m 278.95196,53.4332 -62.98309,-178.1861 m -141.50034,248.0205 204.48343,-69.8344 m 836.32948,-350.2749 -0.1616,-28.2274 m -152.3199,26.9688 -0.995,22.425 m 153.3546,-47.6023 -151.0245,24.9562 m 44.9094,420.5487 12.6113,0.9043 m -76.476,-6.7465 63.8647,5.8422 m -62.1185,-43.5515 -1.7462,37.7093 m 3.6879,-85.3853 -1.9417,47.676 m 100.2275,-37.4401 -98.2858,-10.2359 m 115.9372,11.88 -17.6514,-1.6441 m 27.3544,2.554 -9.703,-0.9099 m 20.7439,1.9474 -11.0409,-1.0375 m 35.7081,3.3506 -24.6672,-2.3131 m 23.2357,17.6996 1.4315,-15.3865 m -3.6794,40.7651 2.2479,-25.3786 m -6.2674,66.464 4.0195,-41.0854 m -8.0249,40.7254 4.0054,0.36 m -80.8613,-5.8592 76.8559,5.4992 m 14.3802,-144.0768 1.0091,-19.9389 m -2.0438,29.7468 1.0347,-9.8079 m -45.0568,5.2073 44.0221,4.6006 m -74.5059,-7.7329 30.4838,3.1323 m -116.7677,-12.4044 86.2839,9.2721 m -84.6512,-49.1727 -1.6327,39.9006 m 103.1557,-33.3695 -101.523,-6.5311 m 113.026,7.7443 -11.503,-1.2132 m 22.459,2.3697 -10.956,-1.1565 m 13.2378,1.3918 -2.2818,-0.2353 m 8.5804,0.9043 -6.2986,-0.669 m 8.0108,0.8561 -1.7122,-0.1871 m 4.9465,0.5102 -3.2343,-0.3231 m 28.3663,2.88 -25.132,-2.5569 m 23.692,16.8435 1.44,-14.2866 m 0,0 3.4243,-59.4171 m -28.5563,56.8602 25.132,2.5569 m -28.3663,-2.88 3.2343,0.3231 m -4.9465,-0.5102 1.7122,0.1871 m -8.0108,-0.8561 6.2986,0.669 m -8.5804,-0.9043 2.2818,0.2353 m -13.2378,-1.3918 10.956,1.1565 m -22.459,-2.3697 11.503,1.2132 m -113.026,-7.7443 101.523,6.5311 m -99.2326,-62.6458 -2.2904,56.1147 m 112.255,-49.6914 -109.9646,-6.4233 m 127.1114,7.4466 -17.1468,-1.0233 m 27.8419,1.6016 -10.6951,-0.5783 m 16.1887,0.9213 -5.4936,-0.343 m 25.9683,1.5449 -20.4747,-1.2019 m -44.144,-47.6845 -97.5063,-1.0375 m 101.3076,1.0772 -3.8013,-0.04 m 12.5773,0.1279 -8.776,-0.088 m 11.0097,0.1248 -2.2337,-0.037 m 11.0467,0.1277 -8.813,-0.091 m 14.213,0.1477 -5.4,-0.057 m 13.9294,0.1562 -8.5294,-0.099 m 34.7471,0.3853 -26.2177,-0.2863 m 26.0703,13.3824 0.1474,-13.0961 m 1.851,31.561 -1.9984,-18.4649 m 1.7773,22.0054 0.2211,-3.5405 m -1.0034,16.6281 0.7823,-13.0876 m -21.257,11.8857 20.4747,1.2019 m -25.9683,-1.5449 5.4936,0.343 m -16.1887,-0.9213 10.6951,0.5783 m -27.8419,-1.6016 17.1468,1.0233 m -127.1114,-7.4466 109.9646,6.4233 m -108.3148,-46.7774 -1.6498,40.3541 m 163.0094,-46.5931 -0.4394,-18.825 m 0.3572,26.7988 0.082,-7.9738 m -26.2997,7.6875 26.2177,0.2863 m -34.7471,-0.3855 8.5294,0.099 m -13.9294,-0.1557 5.4,0.057 m -14.213,-0.1477 8.813,0.091 m -11.0467,-0.1278 2.2337,0.037 m -11.0097,-0.1249 8.776,0.088 m -12.5773,-0.1277 3.8013,0.04 m -101.3076,-1.0775 97.5063,1.0375 m -95.8792,-37.7349 -1.6271,36.6974 m 75.9998,-39.7191 -74.3727,3.0217 m 77.3576,-3.1464 -2.9849,0.1247 m 12.7899,-0.5329 -9.805,0.4082 m 23.8677,-0.9525 -14.0627,0.5443 m 16.7642,-0.6548 -2.7015,0.1105 m 10.0347,-0.4195 -7.3332,0.309 m 18.1842,-0.7484 -10.851,0.4394 m 16.9342,-0.7002 -6.0832,0.2608 m 24.9535,-1.0148 -18.8703,0.754 m 30.3506,-1.216 -11.4803,0.462 m 12.2286,17.606 -0.7483,-18.068 m -47.2848,1.9162 10.851,-0.4394 m -18.1842,0.7484 7.3332,-0.309 m -10.0347,0.4195 2.7015,-0.1105 m -16.7642,0.6548 14.0627,-0.5443 m -14.4057,0.5585 0.343,-0.014 m -9.805,0.408 9.462,-0.394 m -12.4469,0.5187 2.9849,-0.1247 m -77.3576,3.1464 74.3727,-3.0217 m -72.7286,-34.1008 -1.6441,37.1225 m 84.4555,-44.6599 -82.8114,7.5374 m 89.5296,-8.4416 -6.7182,0.9042 m 13.2379,-1.525 -6.5197,0.6208 m 7.5061,-0.7087 -0.9864,0.088 m 9.771,-0.9072 -8.7846,0.8192 m 12.7673,-1.165 -3.9827,0.3458 m 18.9185,-1.766 -14.9358,1.4202 m 19.1395,-1.8199 -4.2037,0.3997 m 29.7298,-2.7978 -25.5261,2.3981 m 26.7109,-2.5143 -1.1848,0.1162 m 2.5256,14.1449 -1.3408,-14.2611 m 0.8419,35.5068 0.4989,-21.2457 m -0.093,31.0763 -0.4054,-9.8306 m -11.0749,10.2926 11.4803,-0.462 m -30.3506,1.216 18.8703,-0.754 m -24.9535,1.0148 6.0832,-0.2608 m -45.9015,-62.8186 0.4224,-0.04 m -80.1101,9.1931 79.6877,-9.1531 m -78.7551,-11.9282 -0.9326,21.0813 m 154.5537,-16.322 -0.1446,-25.9257 m -47.7695,30.4924 47.9141,-4.5667 m -61.0046,5.8423 13.0905,-1.2756 m -13.7396,1.3351 0.6491,-0.059 m -3.274,0.3141 2.6249,-0.2551 m -12.7899,1.2274 10.165,-0.9723 m -10.165,0.9723 -0.4224,0.04 m 10.5874,-1.0123 -10.165,0.9723 m 12.7899,-1.2274 -2.6249,0.2551 m 3.274,-0.3146 -0.6491,0.059 m 13.7396,-1.3346 -13.0905,1.2756 m 61.0046,-5.8423 -47.9141,4.5667 m 48.0529,18.8674 -0.1388,-23.4341 m -1.046,23.5503 1.1848,-0.1162 m -26.7109,2.5143 25.5261,-2.3981 m -29.7298,2.7978 4.2037,-0.3997 m -19.1395,1.8199 14.9358,-1.4202 m -18.9185,1.766 3.9827,-0.3458 m -12.7673,1.165 8.7846,-0.8192 m -9.771,0.9071 0.9864,-0.088 m -7.5061,0.7088 6.5197,-0.6208 m -13.2379,1.525 6.7182,-0.9042 m -89.5296,8.4416 82.8114,-7.5374 m -81.8505,-14.2242 -0.9609,21.7616 m 80.6486,-30.9147 -79.6877,9.1531 m -973.63875,-268.62 -3.38089,-5.6098 m 17.07792,28.4401 -13.69703,-22.8303 m 26.32993,44.9916 -12.6329,-22.1613 m 29.3803,51.5084 -16.7474,-29.3471 m 27.5922,48.3733 -10.8448,-19.0262 m 23.28835,40.853 -12.44355,-21.8268 m 27.24977,47.7837 -14.80622,-25.9569 m 40.8765,71.6656 -26.07028,-45.7087 m 49.62622,32.2838 -23.55594,13.4249 m -94.85788,-732.17591 -3.68277,0.21543 m 26.56322,-1.60441 -22.88045,1.38898 m 26.13037,-1.38615 -3.24992,-0.003 m 4.69134,14.09688 -1.44142,-14.09388 m 2.58861,25.37862 -1.14719,-11.28474 m 1.27985,13.06207 -0.13266,-1.77733 m 0.67039,8.84695 -0.53773,-7.06962 m 1.59591,21.20318 -1.05818,-14.13356 m 2.12174,28.26996 -1.06356,-14.1364 m 2.12655,28.2643 -1.06299,-14.1279 m 1.58967,21.19751 -0.52668,-7.06961 m 1.05817,14.1364 -0.53149,-7.06679 m 0.85181,11.29608 -0.32032,-4.22929 m 0.85182,11.29324 -0.5315,-7.06395 m 1.05789,14.1364 -0.52639,-7.07245 m 1.06412,14.14207 -0.53773,-7.06962 m 1.59534,21.19752 -1.05761,-14.1279 m 2.12061,28.25579 -1.063,-14.12789 m 2.12741,28.26996 -1.06441,-14.14207 m 2.12173,28.26997 -1.05732,-14.1279 m 1.59449,21.19184 -0.53717,-7.06394 m 1.06356,14.1364 -0.52639,-7.07246 m 1.59024,21.20602 -1.06385,-14.13356 m 2.12174,28.26996 -1.05789,-14.1364 m 1.59505,21.20035 -0.53716,-7.06395 m 1.06299,14.1279 -0.52583,-7.06395 m 1.58968,21.19751 -1.06385,-14.13356 m 1.59534,21.19751 -0.53149,-7.06395 m 1.05789,14.1364 -0.5264,-7.07245 m 1.59024,21.20602 -1.06384,-14.13357 m 2.12683,28.2643 -1.06299,-14.13073 m 1.59506,21.20034 -0.53207,-7.06961 m 1.0579,14.13356 -0.52583,-7.06395 m 1.58967,21.19752 -1.06384,-14.13357 m 2.1274,28.26996 -1.06356,-14.13639 m 2.12655,28.26429 -1.06299,-14.1279 m 2.12684,28.26432 -1.06385,-14.13642 m 2.12741,28.26992 -1.06356,-14.1335 m 2.37402,31.167 -1.31046,-17.0335 m 3.096,40.2294 -1.78554,-23.1959 m 5.48108,60.4432 -1.24838,-3.8976 m 3.41093,10.6441 -2.16255,-6.7465 m 4.33134,13.5014 -2.16879,-6.7549 m -2.31534,9.5074 4.48413,-2.7525 m -8.96174,5.5106 4.47761,-2.7581 m -9.6089,5.9131 5.13129,-3.155 m -17.65335,10.7802 12.52206,-7.6252 m -22.32258,13.612 9.80052,-5.9868 m -12.02912,-8.0051 2.2286,13.9919 m -3.35141,-20.9878 1.12281,6.9959 m -7.81683,-48.9912 6.69402,41.9953 m -8.77693,-55.1028 2.08291,13.1075 m 912.5597,166.2522 -0.7058,189.9924 m 182.3587,-85.5724 -182.1631,14.8167 m 257.6442,-321.849 -12.5094,-6.6756 m 14.5475,7.7613 -2.0381,-1.0857 m -981.53729,66.1409 -0.56977,-14.1648 m 0.8589,21.2372 -0.28913,-7.0724 m 0.28913,7.0781 0,-0.01 m 0.28347,7.0881 -0.28347,-7.0781 m 0.84756,21.2457 -0.56409,-14.1676 m 0.85323,21.2457 -0.28914,-7.0781 m 0.56977,14.1563 -0.28063,-7.0782 m 0.85039,21.2429 -0.56976,-14.1647 m 0.72567,17.9631 -0.15591,-3.7984 m 0.44221,7.543 -0.2863,-3.7446 m 1.37197,17.8753 -1.08567,-14.1307 m 2.16567,28.2643 -1.08,-14.1336 m 2.16,28.2615 -1.08,-14.1279 m -1.20473,10.0829 2.28473,4.045 m -9.24663,-16.3871 6.9619,12.3421 m -13.92947,-24.6842 6.96757,12.3421 m -13.9323,-24.6813 6.96473,12.3392 m -13.92947,-24.6869 6.96474,12.3477 m -13.92664,-24.6955 6.9619,12.3478 m -13.92947,-24.6898 6.96757,12.342 m -13.93514,-24.6898 6.96757,12.3478 m -13.9323,-24.6842 6.96473,12.3364 m -9.58962,-16.9909 2.62489,4.6545 m 51.47157,-17.9547 -0.56976,-14.159 m -244.99398,97.5828 -69.706879,22.8331 M 53.59331,1002.1395 98.279016,1189.2094 m -58.283805,232.9288 1.799719,-1.0998 m 5.676954,-59.5872 -7.476673,4.5553 m 21.795057,-13.7821 -14.318384,9.2268 m 19.605856,-1.3521 -5.287472,-7.8747 m 16.362733,26.1752 -11.075261,-18.3005 m 20.155212,33.1314 -9.079951,-14.8309 m -36.358071,42.6388 45.438022,-27.8079 m 21.393108,89.9264 10.55793,-6.582 m -79.188779,49.3739 68.630849,-42.7919 m -34.30097,-32.8111 -34.329879,20.8631 m 40.033762,-24.4205 -5.703883,3.5574 m 10.338252,-6.4516 -4.634369,2.8942 m 25.306907,-15.7805 -20.672538,12.8863 m 24.158588,-15.0549 -3.48605,2.1686 m 12.39649,12.6737 -8.91044,-14.8423 m 15.06985,25.1717 -6.15941,-10.3294 m 9.67324,16.2227 -3.51383,-5.8933 m 8.42231,14.3831 -4.90848,-8.4898 m -8.22162,16.6706 13.1301,-8.1808 m -46.370337,57.1663 58.841667,-36.6832 m -104.790209,64.3381 45.948542,-27.6549 m 22.682307,-42.4035 -68.630849,42.7919 m 79.188779,-49.3739 -10.55793,6.582 m 23.68803,-14.7628 -13.1301,8.1808 m 21.10766,4.867 -7.97756,-13.0478 m 12.47133,20.4831 -4.49377,-7.4353 m 12.22924,-141.8515 75.96579,-46.5988 m -112.87094,69.0436 36.90515,-22.4448 m -47.32164,29.0183 10.41649,-6.5735 m -23.616324,-15.0747 13.199834,21.6482 m 43.12239,-54.3714 -56.322224,32.7232 m 125.642464,-72.9951 -69.32024,40.2719 m 80.16504,-21.2457 -10.8448,-19.0262 m -82.84407,142.7473 120.93864,-75.9374 m -122.91411,72.8647 1.97547,3.0727 m -7.81258,-13.2661 5.83711,10.1934 m -13.10742,-21.688 7.27031,11.4946 m 5.96694,-20.1657 -13.23725,8.6711 m 36.72148,-23.366 -23.48423,14.6949 m 35.44333,-22.3059 -11.9591,7.611 m 18.92582,-12.0501 -6.96672,4.4391 m 72.53473,-46.1566 -65.56801,41.7175 m 80.37423,-15.7606 -14.80622,-25.9569 M 117.11356,1029.5987 149.1196,1176.6065 M 46.569331,650.16383 117.11356,1029.5987 m -71.416167,-383.70385 0.871938,4.26898 m 51.336362,-9.3997 -52.2083,5.13072 m 55.188087,13.70836 -2.979787,-18.83908 m 187.163717,909.48897 8.16096,12.9968 M 177.6118,1875.07 l 7.27768,22.4107 m 19.65291,-31.4703 -26.93059,9.0596 m 54.31614,40.2662 8.47929,28.1679 m 64.95544,-570.445 56.57111,-32.1733 m 942.20932,179.8104 -0.4054,-9.8306 m 0,0 -11.4973,0.4961 m 0,0 0.4224,9.7965 m 0,0 11.4803,-0.462 m -849.49926,259.5009 0.085,-0.01 m -5.51619,-16.1447 5.43119,16.1547 m 5.95844,-19.9985 -11.38963,3.8438 m 17.07027,12.2315 -5.68064,-16.0753 m -5.8734,19.9899 11.55404,-3.9146 m -42.73235,-65.71 11.00694,26.1921 m 6.00663,-33.2447 -17.01357,7.0526 m 26.46713,19.6923 -9.45356,-26.7449 m -6.00663,33.2447 15.46019,-6.4998 m -99.0285,-584.5927 -10.58459,-20.0523 m -1.9474,26.6684 12.53199,-6.6161 m -29.92824,-26.3679 17.39625,32.984 m -8.04757,-37.4146 -9.34868,4.4306 m 15.96192,8.1014 -6.61324,-12.532 m 9.99497,10.7462 -3.38173,1.7858 m 52.70181,-4.8728 -8.48411,-15.4545 m 9.57828,14.8536 -1.09417,0.6009 m 3.82111,4.3682 -2.72694,-4.9691 m -19.8227,17.3452 22.54964,-12.3761 m -24.67563,8.3537 2.12599,4.0224 m 0.60945,-5.5247 -2.73544,1.5023 m -8.85828,-22.6205 11.59372,21.1182 m -3.3704,-25.6338 -8.22332,4.5156 m 9.38552,-5.1505 -1.1622,0.6349 m 3.73323,4.0508 -2.57103,-4.6857 m 11.84317,-0.4054 -9.27214,5.0911 m -40.1273,27.5839 -12.53483,-23.658 m -2.55118,31.6149 15.08601,-7.9569 m -21.5235,-4.2548 6.43749,12.2117 m -3.92883,-13.5326 -2.50866,1.3209 m -3.4441,-12.6 5.95276,11.2791 m 6.48001,-18.0823 -12.43277,6.8032 m -62.16558,-59.1478 2.44716,33.3497 M 126.6618,657.9988 164.804,912.14218 m 0,0 35.51136,233.11882 m 226.75301,306.882 24.55657,54.5812 m -13.94364,-59.3547 -10.61293,4.7735 m 39.71911,45.8646 -29.10618,-50.6381 m 13.94364,59.3547 15.16254,-8.7166 m -403.218469,68.2442 15.499866,-9.4252 m 0,0 2.541263,-1.5647 m 0,0 4.548763,-2.7893 m 0,0 8.613084,-4.9833 m 0,0 62.900313,-38.2423 m 0,0 -12.88688,-20.3698 m 26.50993,41.6524 -31.25939,18.771 m 0,0 -2.71616,1.9021 m 0,0 -9.8677,5.9471 m 0,0 -7.61132,4.5978 m 0,0 -3.50759,2.1231 m 0,0 -6.98968,4.2237 m 0,0 -4.66215,2.7949 m 0,0 -61.294774,37.0971 m 0,0 27.064388,44.8725 m 0,0 2.116349,3.5376 m 0,0 9.696771,15.962 m 0,0 4.90848,-2.9991 m 0,0 3.920888,-2.2592 m 0,0 4.319156,-2.5881 m 0,0 1.390679,-1.8765 m 0,0 17.368183,-9.5499 m 0,0 7.01831,-3.9033 m 0,0 38.54586,-23.0996 m 0,0 9.32571,-5.5729 m 0,0 35.1729,-21.0445 m 0,0 6.89983,-4.1074 m 0,0 -37.40548,-61.0442 m 0,0 -2.43326,-3.7842 m -57.12387,122.5561 -17.368183,9.5499 m 0,0 -1.390679,1.8765 m 0,0 -4.319156,2.5881 m 0,0 -3.920888,2.2592 m 0,0 -4.90848,2.9991 m 0,0 5.514528,9.2523 m 0,0 1.481955,2.5596 m 0,0 2.031877,3.5462 m 0,0 3.07843,5.3405 m 0,0 4.543944,7.9568 m 0,0 1.846772,3.2032 m 0,0 7.47327,13.0224 m 0,0 17.82655,-9.7427 m 0,0 0.9652,-0.5188 m 0,0 14.43857,-8.6343 m 0,0 -20.70882,-34.149 m 0,0 -6.58489,-11.109 m -74.176269,47.4832 2.654083,4.371 m 0,0 4.724794,7.784 m 0,0 1.786113,2.9508 m 0,0 15.547488,26.7648 m 0,0 16.298388,-9.4762 m 0,0 12.688176,-7.3531 m 0,0 14.540617,-8.3707 m 0,0 -7.47327,-13.0224 m 0,0 -1.846772,-3.2032 m 0,0 -4.543944,-7.9568 m 0,0 -3.07843,-5.3405 m 0,0 -2.031877,-3.5462 m 0,0 -1.481955,-2.5596 m 0,0 -5.514528,-9.2523 m 0,0 -9.696771,-15.962 m 0,0 -2.116349,-3.5376 m 0,0 -27.064388,-44.8725 m 0,0 -3.391375,-5.4822 m 0,155.6053 0.698174,-0.4394 m 0,0 -0.698174,-1.1566 m 183.553229,-332.5271 -15.06645,-23.3773 m 0,0 59.501,-38.3557 m 0,0 13.88015,24.3327 m 0,0 -58.3147,37.4003 m 0,0 30.0677,45.2892 M 165.51039,1063.1752 100.88548,659.60321 M 88.332796,315.92741 39.995211,322.2827 M 102.57663,417.39938 88.332796,315.92741 m -4.301298,103.78788 18.545132,-2.31591 m -43.469642,5.43686 24.92451,-3.12095 m -44.036287,5.56158 19.111777,-2.44063 m 1085.235512,152.85283 5.3972,65.8064 m -2.3953,-38.10904 -3.0019,-27.69736 m 5.1733,27.4791 -2.1714,0.21826 m 2.9906,7.29356 -0.8192,-7.51182 m 18.6605,5.40851 -17.8413,2.10331 m 17.0221,-9.34868 0.8192,7.24537 m 0.36,-7.36442 -1.1792,0.11905 m 5.1363,38.29612 -3.9571,-38.41517 m -18.7966,40.28321 22.7537,-1.86804 m -124.3305,-89.1469 69.8202,-6.64726 m -72.5528,-22.05924 2.7326,28.7065 m 67.0876,-35.35376 -69.8202,6.64726 m 72.5528,22.05924 -2.7326,-28.7065 m -67.0876,35.35376 3.6963,38.73832 m 66.1239,-45.38558 -69.8202,6.64726 m 78.3582,82.94186 -8.538,-89.58912 m -9.9553,91.34943 18.4933,-1.76031 m -74.6619,-44.20354 56.1686,45.96385 M 808.90706,122.91383 825.20347,245.16519 M 1079.5878,94.027608 808.90706,122.91383 M 1111.7582,351.95014 1079.5878,94.027608 m -4.1046,262.489162 36.275,-4.56663 m -49.3456,6.20789 13.0706,-1.64126 m -32.7374,4.37953 19.6668,-2.73827 m -52.8974,6.42615 33.2306,-3.68788 m -49.9805,5.81103 16.7499,-2.12315 m -84.21741,9.10773 67.46751,-6.98458 m -85.93809,8.89797 18.47058,-1.91339 m -81.83634,8.46993 63.36576,-6.55654 M 825.20347,245.16519 843.46145,382.16184 M 1197.5773,81.436376 1079.5878,94.027608 m 122.7403,25.797302 -4.7508,-38.388534 m 12.5858,100.371554 -7.835,-61.98302 m 12.9771,102.62765 -5.1421,-40.64463 m 11.5881,91.58953 -6.446,-50.9449 m 12.1946,96.3832 -5.7486,-45.4383 m 7.9426,62.77502 -2.194,-17.33672 m -34.4126,22.34271 36.6066,-5.00599 m -46.491,6.36379 9.8844,-1.3578 m -14.0826,1.9304 4.1982,-0.5726 m -29.6136,4.05639 25.4154,-3.48379 m -34.1036,4.66583 8.6882,-1.18204 m -41.831,5.35748 33.1428,-4.17544 M 1079.5878,94.027608 1111.7582,351.95014 M 259.9598,307.11732 163.90173,319.30631 M 273.51254,410.60756 259.9598,307.11732 m -81.26658,115.906 94.81932,-12.41576 m -109.61081,-91.30125 14.79149,103.71701 m 125.50441,-16.43246 -13.88978,-103.323 m -16.79531,107.3397 30.68509,-4.0167 m -44.23783,-99.47354 13.55274,103.49024 m 16.79531,-107.3397 -30.34805,3.84946 m -0.2143,732.12778 -1.31528,-17.025 m -0.48841,17.1667 1.80369,-0.1417 m -16.82308,1.3011 15.01939,-1.1594 m -16.32985,-15.8741 1.31046,17.0335 m 15.5078,-18.3261 -16.81826,1.2926 m 3.35226,43.7557 -2.38196,-31.1386 m -10.12707,32.0939 12.50903,-0.9553 m -14.89127,-30.1834 2.38224,31.1387 m 10.12707,-32.0939 -12.50931,0.9552 m 28.36152,120.5549 31.86771,50.4454 m -11.54752,-64.6555 -20.32019,14.2101 m 52.61734,37.3352 -32.29715,-51.5453 m 11.54752,64.6555 20.74963,-13.1102 m 85.391,136.2361 -30.24005,-48.2458 m 12.02459,59.5787 18.21546,-11.3329 m -49.39945,-36.5613 31.18399,47.8942 m -12.02459,-59.5787 -19.1594,11.6845 m -42.61045,-67.9863 31.17831,47.8943 m -12.01891,-59.5816 -19.1594,11.6873 m 49.39377,36.5613 -30.23437,-48.2486 m 12.01891,59.5816 18.21546,-11.333 m -112.87888,302.4345 14.54176,-9.0567 m -17.34098,4.5723 2.79922,4.4844 m -9.33734,-14.9953 6.53812,10.5109 m -1.65827,-13.5638 -4.87985,3.0529 m 24.72099,-15.5027 -19.84114,12.4498 m 25.14788,-15.7748 -5.30674,3.325 m 10.13841,4.3909 -4.83167,-7.7159 m 6.626,10.5874 -1.79433,-2.8715 m -9.81441,9.9723 11.60874,-7.1008 m -11.14811,7.8378 -0.46063,-0.737 m -3.55267,3.2003 4.0133,-2.4633 m -1.62652,6.3411 -2.38678,-3.8778 m -16.61247,-5.1137 19.84114,-12.4498 m -24.72099,15.5027 4.87985,-3.0529 m -12.62808,-9.394 7.74823,12.4469 m 2.91487,-19.1169 -10.6631,6.67 m 10.82808,-6.7777 -0.16498,0.1077 m -0.0541,-0.5074 0.21912,0.3997 m -2.79922,-4.7537 2.5801,4.354 m 4.47762,-8.7959 -7.05772,4.4419 m 11.50216,2.6391 -4.44444,-7.081 m 11.07894,2.8942 -6.6345,4.1868 m 12.9382,5.8365 -6.3037,-10.0233 m -133.98937,-209.6848 23.31812,-15.0775 m -34.96626,22.6092 11.64814,-7.5317 m -20.870959,-6.7634 9.222819,14.2951 m 2.44885,-21.824 -11.671669,7.5289 m 35.009629,-22.6319 -23.33796,15.103 m 32.51741,-0.7852 -9.17945,-14.3178 m 229.92271,-173.112 11.9112,20.9423 m -3.75591,-25.5798 -8.15529,4.6375 m 9.30616,-5.2895 -1.15087,0.652 m 3.7956,3.9912 -2.64473,-4.6432 m 11.83466,-0.5868 -9.18993,5.23 m 17.90648,10.097 -8.71655,-15.327 m 9.80222,14.709 -1.08567,0.618 m 3.88914,4.3115 -2.80347,-4.9295 m -19.55908,17.64 22.36255,-12.7105 m -24.54523,8.7194 2.18268,3.9911 m 0.52724,-5.5304 -2.70992,1.5393 m -80.008,0.7426 -10.50635,7.2397 m 26.58732,16.098 -16.08097,-23.3377 m 18.41389,21.7305 -2.33292,1.6072 m 13.07057,13.9578 -10.73765,-15.565 m -4.24914,24.9364 14.98679,-9.3714 m -39.65789,-30.0558 24.6711,39.4272 m 206.76504,283.9866 -14.42837,-36.7116 m 3.7304,42.0124 10.69797,-5.3008 m -25.57988,-32.5418 14.88191,37.8426 m -3.7304,-42.0124 -11.15151,4.1698 m 6.23906,54.7824 22.36822,-14.3376 m -27.40539,4.1754 5.03717,10.1622 m 19.34082,-22.2406 -24.37799,12.0784 m 27.40539,-4.1754 -3.0274,-7.903 m -127.29563,2.3017 5.6693,12.1493 m 10.17923,-19.5364 -15.84853,7.3871 m 21.51783,4.7622 -5.6693,-12.1493 m -10.17923,19.5364 15.84853,-7.3871 m -27.30052,-14.2895 17.91783,-8.7874 m -26.22335,-8.0277 8.30552,16.8151 m 10.17073,-24.5764 -18.47625,7.7613 m 26.22335,8.0277 -7.7471,-15.789 m -60.1371,23.2555 8.84694,15.2589 m -6.46867,-16.6366 -2.37827,1.3777 m -0.64063,-7.509 3.0189,6.1313 m 9.28348,-13.8189 -12.30238,7.6876 m 17.03341,-1.1906 -4.73103,-6.497 m 13.09041,1.5279 -8.35938,4.9691 m 16.46648,8.6599 -8.1071,-13.629 m -15.90522,28.9276 24.01232,-15.2986 m -12.86648,25.5969 16.56286,27.6945 m 1.2019,-36.9893 -17.76476,9.2948 m 32.96131,19.7405 -15.19655,-29.0353 m 0.28913,36.8051 14.90742,-7.7698 m -16.39845,7.954 1.49103,-0.1842 m -45.56416,28.3947 5.42835,8.7137 m -10.43718,-16.7216 5.00883,8.0079 m 10.11686,-17.4728 -15.12569,9.4649 m 21.57169,-13.5383 -6.446,4.0734 m 7.57986,-2.469 -1.13386,-1.6044 m 10.57324,16.4721 -9.43938,-14.8677 m -12.26837,28.6555 21.70775,-13.7878 m -47.92543,35.9746 10.43718,-6.6388 m -11.12316,7.1519 0.68598,-0.5131 m -5.64095,-7.39 4.95497,7.9031 m -13.11593,-20.8999 8.16096,12.9968 m 1.92473,-19.3124 -10.08569,6.3156 m 10.42018,-6.5849 -0.33449,0.2693 m 19.49672,-12.206 -19.16223,11.9367 m 24.17106,-3.9288 -5.00883,-8.0079 m 4.82174,8.1241 0.18709,-0.1162 m -18.38271,11.846 18.19562,-11.7298 m -10.16506,24.1455 -8.03056,-12.4157 m -25.25333,-62.9576 24.66089,-15.8939 m -31.03517,6.0095 6.37428,9.8844 m -15.57895,-23.8508 9.20467,13.9664 m 15.18664,-30.0473 -24.39131,16.0809 m 40.23984,7.9569 -15.84853,-24.0378 m -54.41649,61.699 -2.6246,-3.9742 m -8.14339,11.0976 10.76799,-7.1234 m -12.17567,4.9946 1.40768,2.1288 m -13.16666,5.6467 11.75898,-7.7755 m -22.24747,-8.1241 10.48849,15.8996 m -9.17803,-16.7642 -1.31046,0.8646 m 22.52696,-14.8507 -21.2165,13.9861 m 30.48808,0.02 -9.27158,-14.006 m 35.09184,-23.1393 3.88347,-2.5597 m -11.57105,-9.1077 7.68758,11.6674 m 10.58288,-23.7147 -18.27046,12.0473 m 25.9637,-0.3827 -7.69324,-11.6646 m -6.69941,21.155 14.39265,-9.4904 m -55.88002,-44.9263 -5.83116,3.4327 m 13.36736,8.2545 -7.5362,-11.6872 m -26.11875,33.4942 33.65495,-21.807 m -41.5727,8.3594 7.91775,13.4476 m 20.28759,-30.0615 -28.20534,16.6139 m 2.98716,66.1381 6.82158,11.5625 m 27.29967,-31.0819 -34.12125,19.5194 m 40.129,-10.4004 -6.00775,-9.119 m -27.29967,31.0819 33.30742,-21.9629 m -45.59704,-7.234 57.28062,-36.9412 m -70.15929,16.9711 12.87867,19.9701 m 15.96956,-38.5739 -28.84823,18.6038 m 56.93225,-36.893 -28.08402,18.2892 m 41.31106,1.6327 -13.22704,-19.9219 m -59.25128,8.8045 40.83541,-25.1831 m -42.30205,22.7679 1.46664,2.4152 m -11.95655,4.2689 10.48991,-6.6841 m -23.44228,-16.543 12.95237,23.2271 m 37.18976,-54.5585 -50.14213,31.3314 m 65.74433,-6.2249 -15.6022,-25.1065 m -52.57511,22.1046 36.91849,-23.0684 m -47.54049,6.0775 10.622,16.9909 m -4.00309,-21.325 -6.61891,4.3341 m 30.10314,-19.029 -23.48423,14.6949 m 35.44333,-22.3059 -11.9591,7.611 m 17.35146,-11.0438 -5.39236,3.4328 m 13.89347,9.9269 -8.50111,-13.3597 m -2.33434,20.1204 10.83545,-6.7607 m -8.41522,10.6356 -2.42023,-3.8749 m 56.75565,-181.0888 33.04124,-19.0092 m -46.4361,-4.3058 13.39486,23.315 m 18.94566,-41.8905 -32.34052,18.5755 m 46.4361,4.3058 -14.09558,-22.8813 m -125.23994,218.1349 36.89609,-22.6914 m -43.19524,11.9084 6.29915,10.783 m 30.606,-33.2278 -36.90515,22.4448 m 43.19524,-11.9084 -6.29009,-10.5364 m -16.95205,2.2819 12.18729,-7.2369 m -14.35637,3.5802 2.16908,3.6567 m -26.22193,10.6271 24.05285,-14.2838 m -30.49346,2.5455 6.44061,11.7383 m 17.35571,-25.6961 -23.79632,13.9578 m 35.9941,-21.0416 -12.19778,7.0838 m 21.05351,7.8321 -8.85573,-14.9159 m -1.35099,-35.0448 10.00234,17.1638 m 9.63725,-28.5647 -19.63959,11.4009 m 29.59431,5.7459 -9.95472,-17.1468 m -9.63725,28.5647 19.59197,-11.4179 m -8.62329,-44.9009 31.95728,-19.1764 m -47.95661,-7.4948 15.99933,26.6712 m 16.04412,-45.893 -32.04345,19.2218 m 47.95661,7.4948 -15.91316,-26.7166 m -72.51346,94.1217 4.788,7.4126 m -11.084613,-17.1581 6.296613,9.7455 m 22.98504,-28.6696 -29.281653,18.9241 m 35.571453,-9.1899 -6.2898,-9.7342 m 11.07724,17.1439 -4.78744,-7.4097 m -24.48684,26.348 29.27428,-18.9383 m -72.329493,5.2328 45.576073,-27.1588 m -55.274545,10.8596 9.698472,16.2992 m 35.883834,-43.4495 -45.582306,27.1503 m 55.961665,-11.2564 -10.379359,-15.8939 m 9.692239,16.2907 0.68712,-0.3968 M 278.10468,140.77212 267.26186,40.030644 m 13.88099,129.104136 -3.03817,-28.36266 M 294.07509,287.18123 281.14285,169.13478 M 145.78321,299.75857 294.07509,287.18123 M 39.995211,307.53685 145.78321,299.75857 m 46.00297,-110.98789 -18.73278,1.999 m 20.18186,11.47296 -1.44908,-13.47196 m -17.05552,15.73741 18.5046,-2.26545 m -20.18186,-11.47296 1.67726,13.73841 m -1.67726,-13.73841 -20.85225,2.2252 m 22.52951,11.51321 -1.67726,-13.73841 m 3.44438,28.21412 -1.76712,-14.47571 m -19.04601,17.01612 20.81313,-2.54041 m -24.29663,-25.98892 3.4835,28.52933 m -67.302814,-21.71285 -48.386625,5.16048 m 50.260045,10.20446 -1.87342,-15.36494 m -48.386625,21.49912 50.260045,-6.13418 m 0,0 -50.260045,6.13418 m 48.386625,-21.49912 1.87342,15.36494 m 61.945894,-22.18142 -63.819314,6.81648 m 67.302814,21.71285 -3.4835,-28.52933 m 24.29663,25.98892 -20.81313,2.54041 m 19.04601,-17.01612 1.76712,14.47571 m 16.73748,-16.74116 -18.5046,2.26545 m 27.2254,78.59748 -8.7208,-80.86293 m -50.82811,86.9852 59.54891,-6.12227 m -59.628,6.13078 0.0791,-0.009 M 39.995211,299.7529 142.32806,289.23635 m 551.91741,-137.93407 -8.00222,1.12791 m 18.03405,-2.55176 -10.03183,1.42385 m 15.88254,38.00472 -5.85071,-39.42857 m -12.75876,41.52848 18.60947,-2.09991 m -23.88476,-36.87681 5.27529,38.97672 m 0.40819,-56.00957 -49.30874,5.26224 m 50.6722,4.0853 -1.36346,-9.34754 m 2.31874,15.90494 -0.95528,-6.5574 m -7.04694,7.68531 8.00222,-1.12791 m -49.42212,6.66539 41.4199,-5.53748 m -43.62526,-11.77061 2.20536,17.30809 m 46.69519,33.43924 -5.27529,-38.97672 m 5.57009,41.36264 -0.2948,-2.38592 m -41.43975,7.31283 41.73455,-4.92691 m -46.98999,-35.82516 5.25544,40.75207 m 36.16446,-46.28955 -41.4199,5.53748 m -40.08762,-13.26559 -308.84362,32.96471 m 316.88552,31.48786 -8.0419,-64.45257 m 4.49575,64.89931 3.54615,-0.44674 m -3.55182,0.44731 0.006,-5.7e-4 m -9.4227,1.17666 9.4167,-1.17609 m -12.07277,1.5052 2.65607,-0.32911 m -10.29829,1.28155 7.64222,-0.95244 m -36.52447,4.55896 28.88225,-3.60652 m -166.52435,20.77543 137.6421,-17.16891 m -170.65443,21.29049 33.01233,-4.12158 m -47.76952,5.95872 14.75719,-1.83714 m -33.1569,4.13689 18.39971,-2.29975 m -16.92002,14.08651 -1.47969,-11.78676 m 14.83089,118.75965 -13.3512,-106.97289 m -39.05581,113.51243 52.40701,-6.53954 m -75.75602,-182.18636 23.34901,188.7259 m 448.35942,-138.27395 16.11215,140.19017 m 19.05169,-144.33046 -35.16384,4.14029 m 54.97804,153.00562 -19.8142,-157.14591 m -17.20916,161.05773 37.02336,-3.91182 m -38.86589,-12.81545 1.84253,16.72727 m -17.95468,-156.91744 35.16384,-4.14029 m -41.69771,-52.76474 6.53387,56.90503 m -12.37608,-99.47609 5.84221,42.57106 m 29.06367,-46.29607 -34.90588,3.72501 m 36.56415,8.29901 -1.65827,-12.02402 m 12.63404,99.06081 -10.97577,-87.03679 m -147.00495,95.34345 -3.96567,0.48614 m 62.74214,-7.65355 -58.77647,7.16741 m 60.05206,3.22725 -1.27559,-10.39466 m 19.20192,157.33044 -17.92633,-146.93578 m -42.7777,152.22241 60.70403,-5.28663 m -81.94406,-149.67689 21.24003,154.96352 m 434.29668,36.34304 -90.3346,11.27624 m 93.6852,-11.55403 -3.3506,0.27779 m -19.4485,28.64981 22.7991,-28.9276 m -25.7556,32.48225 2.9565,-3.55465 m -5.6608,7.22269 2.7043,-3.66804 m -0.686,5.42552 -2.0183,-1.75748 m -8.7676,11.21104 10.7859,-9.45356 m -12.8296,7.4693 2.0437,1.98426 m -7.4551,0.99496 5.4114,-2.97922 m -11.8319,4.95214 6.4205,-1.97292 m -5.7855,4.76788 -0.635,-2.79496 m -13.9521,4.26048 14.5871,-1.46552 m -15.0803,-1.70362 0.4932,3.16914 m -6.5736,-3.95717 6.0804,0.78803 m -7.4892,1.78583 1.4088,-2.57386 m -13.9776,-2.69292 12.5688,5.26678 m -11.3386,-7.78679 -1.2302,2.52001 m -4.7396,-6.89387 5.9698,4.37386 m -6.7578,-5.24977 0.788,0.87591 m -1.6327,-1.80567 0.8447,0.92976 m -1.5817,-1.74614 0.737,0.81638 m -3.0076,-3.32788 2.2706,2.5115 m -1.1311,-3.47812 -1.1395,0.96662 m 2.2252,-1.89638 -1.0857,0.92976 m 2.418,-2.06929 -1.3323,1.13953 m 6.7522,-5.75434 -5.4199,4.61481 m 4.1102,-6.69828 1.3097,2.08347 m -2.3273,-3.71906 1.0176,1.63559 m -2.88,-4.60914 1.8624,2.97355 m -4.6545,-7.44663 2.7921,4.47308 m -3.7871,-8.23182 0.995,3.75874 m -0.6945,-5.54174 -0.3005,1.783 m 136.5508,18.05672 -21.8466,28.06303 m 32.5531,-19.93609 -10.7065,-8.12694 m -6.8457,24.49421 17.5522,-16.36727 m -22.0224,28.2813 4.4702,-11.91403 m -15.0009,3.56882 10.5307,8.34521 m 38.0013,-39.17203 -1.2586,0.13607 m 6.1285,-0.66048 -4.8699,0.52441 m 9.7399,-1.05449 -4.87,0.53008 m 9.7399,-1.05732 -4.8699,0.52724 m 9.7398,-1.05165 -4.8699,0.52441 m 9.737,-1.05449 -4.8671,0.53008 m 9.7427,-1.05733 -4.8756,0.52725 m 6.2306,-0.67181 -1.355,0.14456 m -2.262,19.97578 3.617,-20.12034 m -31.836,3.4441 28.219,16.67624 m -14.315,14.96979 14.315,-14.96979 m -28.2247,-16.67624 13.9097,31.64603 m -13.904,-31.64603 -0.01,0 m 28.229,16.67624 -28.219,-16.67624 m 13.904,31.64603 -13.9097,-31.64603 m 5.2753,35.00792 8.6344,-3.36189 m -20.9623,8.10993 12.3279,-4.74804 m -5.2753,-35.00792 -7.0526,39.75596 m -21.7134,10.3238 5.2101,70.64231 m 12.0728,-72.91003 -17.2829,2.26772 m 27.8505,10.37482 -10.5676,-12.64254 m 19.8595,79.33902 -9.2919,-66.69648 m 0.5499,67.91821 8.742,-1.22173 m -9.8702,-8.00789 1.1282,9.22962 m -23.1903,-7.65072 22.0621,-1.5789 m 1.9786,36.86746 -3.9345,-34.84352 m -13.9068,36.94683 17.8413,-2.10331 m -21.6511,-32.99533 3.8098,35.09864 m 13.9068,-36.94683 -17.7166,1.84819 m 88.0783,-73.78027 -1.4145,-9.5471 m 5.3206,37.87943 -3.9061,-28.33233 m -43.9258,34.7358 47.8319,-6.40347 m -50.9897,5.76568 3.1578,0.63779 m -7.4976,-3.52914 4.3398,2.89135 m -7.6592,-6.806 3.3194,3.91465 m -4.6375,-8.1978 1.3181,4.28315 m -6.8939,-41.51912 5.5758,37.23597 m 3.0586,-40.59786 -8.6344,3.36189 m 22.9494,-18.33168 -14.315,14.96979 m 17.932,-35.09013 -3.617,20.12034 m 2.262,-19.97578 1.355,-0.14456 m -6.2306,0.67181 4.8756,-0.52725 m -9.7427,1.05733 4.8671,-0.53008 m -9.737,1.05449 4.8699,-0.52441 m -9.7398,1.05165 4.8699,-0.52724 m -9.7399,1.05732 4.87,-0.53008 m -9.7399,1.05449 4.8699,-0.52441 m -6.1285,0.66048 1.2586,-0.13607 m -1.2643,0.13607 0.01,0 m -3.6156,0.39118 3.6056,-0.39118 m 74.1318,-8.16663 -77.7374,8.55781 m 77.7743,-8.48978 -0.037,-0.068 m 1.3437,4.72533 -1.3067,-4.65733 m 7.3587,41.22432 -6.052,-36.56699 m 4.4391,38.98494 1.6129,-2.41795 m -7.0583,5.94142 5.4454,-3.52347 m -14.417,4.14426 8.9716,-0.62079 m -30.4668,131.11957 2.3188,20.13452 m -2.4577,-21.33357 0.1389,1.19905 m -1.6072,-13.88978 1.4683,12.69073 m 48.6965,-18.69736 -50.1648,6.00663 m 52.7727,-6.09167 -2.6079,0.085 m 4.3512,13.43912 -1.7433,-13.52412 m 4.3058,33.40069 -2.5625,-19.87657 m -16.3871,22.26901 18.9496,-2.39244 m -53.1525,6.71528 34.2029,-4.32284 M 1142.2704,455.19377 1105.882,429.10365 m 14.5418,54.15315 21.8466,-28.06303 m -23.8025,29.45768 1.9559,-1.39465 m -12.1862,-6.32977 10.2303,7.72442 m -19.6839,-14.87908 9.4536,7.15466 m -29.4945,-22.28035 20.0409,15.12569 m -21.8778,-17.04475 1.8369,1.91906 m 20.9622,-30.84666 -22.7991,28.9276 m 28.9758,-23.62397 -6.1767,-5.30363 m -330.56838,1520.52328 0.017,0.6491 m 81.30628,-1.2331 -81.32328,0.584 m 81.32895,0.6491 -0.006,-1.2331 m 54.80828,-48.1918 2.9367,2.965 m 9.51309,-15.3099 -12.44979,12.3449 m 15.31278,-10.1141 -2.86299,-2.2308 m -9.51309,15.3099 12.37608,-13.0791 m 28.45706,2.9055 -7.8123,7.7443 m 27.64918,12.2599 -19.83688,-20.0042 m 0.0227,39.6511 19.81421,-19.6469 m -22.69988,17.2687 2.88567,2.3782 m -19.55625,-19.1849 16.67058,16.8067 m -4.9493,-29.5286 -11.72128,12.7219 m -889.509199,2.7213 14.112305,-3.4243 m -12.138538,-21.7446 -1.973767,-3.96 m 81.278199,-55.6952 19.25862,59.6694 m 20.75984,-5.9783 0.9258,-0.1389 m 7.60111,-2.5568 5.83853,-1.9729 m 6.25805,-2.1062 10.45193,-3.515 m 5.67497,-1.9048 18.04113,-6.0775 m -1.81985,-6.1002 -0.80561,0.2523 m -1.91565,-6.1994 -12.31769,-39.8778 m -2.5132,-8.0561 -10.47659,-33.7919 m -11.73715,-37.8596 -39.15927,23.3349 m -10.17696,5.9839 -19.62655,11.8432 m 0.3994,0.7512 1.0389,14.811 m 11.3814,31.4249 2.91884,8.0646 m 36.65174,108.9611 -3.67994,-10.9757 m -5.51736,-13.6092 -8.19582,-24.7068 m -33.63738,9.6832 20.79159,30.274 m 2.62347,18.6435 -2.62347,-18.6435 m -20.79159,-30.274 -14.087642,2.52 m -38.699492,9.5272 -14.112305,3.4243 M 425.189,1528.8118 l 15.13419,-9.0425 m -85.01399,-13.3513 28.23879,47.2282 m 28.97012,-17.2546 2.04662,-1.2274 m -84.78722,-12.8976 -15.12569,9.4649 m 5.00883,8.0079 5.42835,8.7137 m -62.07175,74.8999 95.92314,-54.927 m 13.64884,-8.1779 5.71466,-3.4952 m 5.2441,-3.1067 -28.23879,-47.2282 m -59.25835,8.9462 -4.35119,-2.5625 m -30.06147,19.0347 -5.30674,3.325 m -19.84114,12.4498 -4.87928,3.0557 m -9.71605,6.0832 11.67536,19.114 m 2.95059,4.7821 11.91942,-7.3956 m 28.96729,-18.1815 2.30825,-1.4485 m 5.35352,-3.3675 10.08569,-6.3156 m 0.33449,-0.2693 19.16223,-11.9367 m 27.95532,-17.572 12.70206,-7.7415 m -12.43561,-21.206 -3.57732,2.0977 m -253.352517,38.2507 -45.948542,27.6549 m 0,27.2863 23.5738,-14.2498 m -9.461495,341.8503 -12.138538,-21.7446 m 98.563052,0.014 20.75984,-5.9783 m 0.9258,-0.1389 7.60111,-2.5568 m 5.83853,-1.9729 6.25805,-2.1062 m 10.45193,-3.515 5.67497,-1.9048 m 18.04113,-6.0775 -1.81985,-6.1002 m -0.80561,0.2523 -1.91565,-6.1994 m -12.31769,-39.8778 -2.5132,-8.0561 m -10.47659,-33.7919 -11.73715,-37.8596 m -39.15927,23.3349 -10.17696,5.9839 m -19.62655,11.8432 0.3994,0.7512 m 1.0389,14.811 11.3814,31.4249 m 240.9685,-1161.32205 -37.76037,1.91906 m 56.38969,364.21569 -18.62932,-366.13475 m -19.13389,368.05375 37.76321,-1.919 M 321.5627,659.23471 340.18918,1025.3694 m -95.22496,41.899 -21.20262,1.5591 m 24.6419,32.1619 -3.43928,-33.721 m -14.46862,35.1695 17.9079,-1.4485 m -19.15373,-15.5169 1.24583,16.9654 m -5.48335,-16.6564 4.23752,-0.309 m -5.48817,-16.645 1.25065,16.954 m -184.748031,125.6402 -0.269008,-0.9354 m 0,1.0119 0.269008,-0.076 m 0.458363,-47.0699 10.949686,38.7355 m 15.917977,-46.3352 -26.867663,7.5997 m 37.523112,30.0615 -10.655449,-37.6612 m 10.999576,38.9056 -0.344127,-1.2444 m -26.573426,8.674 26.917553,-7.4296 m 31.401689,-10.2841 38.30519,-12.549 m -43.76133,-3.9288 5.45614,16.4778 m 34.56487,-29.727 -40.02101,13.2492 m 43.76133,3.9288 -3.74032,-17.178 m -57.596405,-106.0527 8.776077,34.6365 m -18.080532,-32.709 9.304455,-1.9275 m -16.73634,-33.894 7.431885,35.8215 m 14.762574,-40.4306 -22.194459,4.6091 m 30.474755,25.1122 -8.280296,-29.7213 m 20.445476,26.3367 -12.16518,3.3846 m 21.04473,39.1664 -8.87955,-42.551 m -17.127518,46.8029 26.007068,-4.2519 m -59.730049,-42.5906 -22.01786,5.3773 m 33.776555,43.8492 -11.758695,-49.2265 m -12.45035,55.5761 24.209045,-6.3496 m -33.776555,-27.4593 9.56751,33.8089 m 110.862599,59.4908 18.74157,-2.2904 m -22.85097,-31.3541 4.1094,33.6445 m -9.97939,-32.9273 5.86999,-0.7172 m -8.34889,-19.5732 2.4789,20.2904 m 20.07868,-23.0457 -22.55758,2.7553 m 22.77244,-1.3295 -0.21486,-1.4258 m 8.64228,53.6826 -8.42742,-52.2568 m -29.59374,-18.7795 26.1709,-3.9459 m -31.42152,-39.1125 5.25062,43.0584 m 19.54151,-46.0858 -24.79213,3.0274 m 31.42152,39.1125 -6.62939,-42.1399 m 18.021,114.2676 16.36614,-1.7915 m -24.54977,-49.0366 8.18363,50.8281 m 10.11375,-53.059 -18.29738,2.2309 m 24.54977,49.0366 -6.25239,-51.2675 m 21.16746,2.8092 -5.79856,-36.3828 m 8.47532,53.1837 -2.67676,-16.8009 m -4.94788,18.0142 7.62464,-1.2133 m -10.3065,-15.582 2.68186,16.7953 m -5.03377,-31.5667 2.35191,14.7714 m -3.70971,-23.2753 1.3578,8.5039 m -3.44098,-21.6114 2.08318,13.1075 m 5.54089,-14.3264 -7.62407,1.2189 m 63.16139,0.6945 -15.02025,1.1509 m 22.98221,-1.7688 -7.96196,0.6179 m 9.41926,18.275 -1.4573,-18.8929 m -2.20252,19.165 3.65982,-0.2721 m -3.47387,2.8687 -0.18595,-2.5966 m 1.06554,14.5276 -0.87959,-11.931 m -18.51905,13.3512 19.39864,-1.4202 m -21.58897,-28.3975 2.19033,29.8177 m -2.44659,-33.344 0.25626,3.5263 m 14.57407,-7.098 -1.59648,-20.7836 m 1.7864,23.2044 -0.18992,-2.4208 m -14.83033,3.5717 15.02025,-1.1509 m -16.80579,-22.045 1.78554,23.1959 m 13.23385,-24.3553 -15.01939,1.1594 m 26.57116,-23.6467 0.12444,16.6054 m -1.26142,-34.15188 1.13698,17.54648 m 11.6711,-18.37986 -12.80808,0.83338 m 13.94506,16.71598 -1.13698,-17.54936 m 2.68867,41.54176 -1.55169,-23.9924 m 1.73594,36.3657 -0.18425,-12.3733 m -3.73579,12.5972 3.92004,-0.2239 m -7.17223,0.4195 3.25219,-0.1956 m -3.70063,-12.2882 0.44844,12.4838 m -7.24735,-19.3493 6.79891,6.8655 m 21.99518,9.4422 1.81418,16.9966 m 13.38238,-18.618 -15.19656,1.6214 m 16.03561,15.4772 -0.83905,-17.0986 m -13.38238,18.618 14.22143,-1.5194 m -27.4961,-76.22372 22.98051,-1.67245 m -24.41768,-47.42936 1.43717,49.10181 m 19.49672,-49.71693 -20.93389,0.61512 m 24.41768,47.42936 -3.48379,-48.04448 m -145.37616,1005.62325 -3.14703,-9.309 m -3.67994,-10.9757 -5.51736,-13.6092 m -8.19582,-24.7068 -33.63738,9.6832 m 20.79159,30.274 2.62347,18.6435 m -2.62347,-18.6435 -20.79159,-30.274 m -14.087642,2.52 0.469985,46.3975 m -38.957162,0 -0.212315,-36.8703 m 360.457214,-372.9379 10.62427,-6.3524 m 15.13419,-9.0425 36.961,-21.9856 m -93.7362,55.8625 28.97012,-17.2546 m -69.91097,-22.2321 -12.82963,8.1071 m -15.12569,9.4649 5.00883,8.0079 m 600.92028,345.694 -12.37608,13.0791 m 17.86113,-17.7109 -5.48505,4.6318 m 20.64476,10.6498 -15.15971,-15.2816 m 3.43843,28.0035 11.72128,-12.7219 m 4.9493,29.5286 -16.67058,-16.8067 m 5.5219,27.8618 11.14868,-11.0551 m -43.52038,-21.5944 32.3717,32.6495 m -26.82146,-38.1544 -5.55024,5.5049 m -221.98428,-0.3713 -33.50273,1.8595 m 35.53801,39.4668 -2.03528,-41.3263 m -33.50273,1.8595 2.18835,39.4668 m 242.14431,-35.7733 39.23156,-38.897 m -58.20104,19.7688 18.96948,19.1282 m 20.25641,-58.0309 -39.22589,38.9027 m 58.20104,-19.7688 -18.97515,-19.1339 m 47.64763,-363.833 -27.36855,7.577 m 32.39155,8.3934 -5.023,-15.9704 m 69.1173,-4.1953 -64.0943,20.1657 m 107.4701,111.6824 -43.3758,-131.8481 m -48.9601,160.8976 92.3359,-29.0495 m -115.42413,-44.3169 23.08823,73.3664 m -47.52575,-149.1253 24.43752,75.7589 m -631.38427,-22.218 18.49609,29.0523 m 15.3553,-9.0794 13.64884,-8.1779 m 5.71466,-3.4952 5.2441,-3.1067 m -44.25172,-66.3365 -43.24542,28.0545 m -4.35119,-2.5625 -30.06147,19.0347 m -5.30674,3.325 -19.84114,12.4498 m -4.87928,3.0557 -9.71605,6.0832 m 11.67536,19.114 29.44691,47.4889 m -14.5769,-50.1024 28.96729,-18.1815 m 2.30825,-1.4485 5.35352,-3.3675 m 10.08569,-6.3156 0.33449,-0.2693 m 19.16223,-11.9367 27.95532,-17.572 m 12.70206,-7.7415 -12.43561,-21.206 m -198.08817,3.6652 -58.841667,36.6832 m 1037.481947,242.6914 -47.9198,-1.3691 m 42.2816,146.1631 5.6382,-144.794 m -52.0471,142.9855 46.4089,1.8085 m -42.2816,-146.1631 -4.1273,144.3546 m -74.29613,-109.9505 0.2296,-4.371 m -1.94457,8.4019 1.71497,-4.0309 m -4.70269,7.2284 2.98772,-3.1975 m -6.88536,5.1818 3.89764,-1.9843 m -8.24316,2.5115 4.34552,-0.5272 m -8.606,-0.4564 4.26048,0.9836 m -7.93135,-3.3732 3.67087,2.3896 m -6.30142,-5.8819 2.63055,3.4923 m -3.90615,-7.6848 1.2756,4.1925 m -1.04032,-8.5578 -0.23528,4.3653 m 1.94457,-8.3962 -1.70929,4.0309 m 4.69701,-7.2284 -2.98772,3.1975 m 6.8882,-5.1817 -3.90048,1.9842 m 8.246,-2.5086 -4.34552,0.5244 m 8.606,0.4563 -4.26048,-0.9807 m 7.92285,3.3675 -3.66237,-2.3868 m 6.30143,5.8904 -2.63906,-3.5036 m 3.91181,7.6819 -1.27275,-4.1783 m -46.34937,-3.9543 83.58815,-22.8444 m -93.52926,-11.8772 9.94111,34.7216 m 74.04955,-57.722 -83.99066,23.0004 m 93.52926,11.8772 -9.5386,-34.8776 m -172.59615,5.6126 53.12701,-16.3474 m -103.14725,-146.1999 50.02024,162.5473 m 3.83811,-177.6446 -53.85835,15.0973 m 53.35662,-16.9087 0.50173,1.8114 m 17.33672,-6.8117 -17.83845,5.0003 m 59.99537,132.0012 -42.15692,-137.0015 m 24.09169,142.5659 18.06523,-5.5644 m -10.20474,31.1074 -7.86049,-25.543 m -109.31827,-170.7083 14.03151,50.0514 m 39.83251,-65.1488 -53.86402,15.0974 m 67.88986,34.9541 -14.02584,-50.0515 m -39.83251,65.1488 53.85835,-15.0973 m 63.58971,-63.0852 -35.97738,9.8674 m 36.94116,-6.8683 -0.96378,-2.9991 m 13.46458,-1.0318 -12.5008,4.0309 m 36.93832,71.728 -24.43752,-75.7589 m -23.54743,91.2304 47.98495,-15.4715 m -73.87948,-64.8597 25.89453,80.3312 m -769.03006,-9.2381 40.02894,-24.2136 m -43.14677,18.0255 3.11783,6.1881 m -10.42613,-20.7128 7.3083,14.5247 m 0.97937,-19.5137 -8.28767,4.989 m 8.78118,-5.332 -0.49351,0.343 m 30.21425,-18.4111 -29.72074,18.0681 m 41.67389,1.8312 -11.95315,-19.8993 m 17.54422,35.8527 -44.7064,26.2772 m 49.78411,-17.6967 -5.07771,-8.5805 m -39.6321,34.8804 44.70981,-26.2999 M 145,1602.765 l 0.44617,0.7597 m -4.81465,-8.1468 4.36848,7.3871 m -4.62813,-7.8435 0.25965,0.4564 m -29.32842,-28.4713 -15.066449,9.2637 m 23.440289,4.6091 -8.37384,-13.8728 m 8.57708,13.7481 -0.20324,0.1247 m 12.23236,19.1509 -12.02912,-19.2756 m -3.42057,29.0665 15.44969,-9.7909 m -35.672649,-23.76 20.222959,33.5509 m 35.18396,-96.809 -40.49326,24.619 m 41.31247,-25.1179 -0.81921,0.4989 m 2.50526,-1.5278 -1.68605,1.0289 m 12.64623,16.9938 -10.96018,-18.0227 m -17.24516,35.1723 28.20534,-17.1496 m -31.26307,12.1096 3.05773,5.04 m -17.85659,3.9572 14.79886,-8.9972 m -22.69563,-3.9855 7.89677,12.9827 m -6.86722,-13.646 39.46371,-23.9557 m -44.71887,14.298 5.25516,9.6577 m 34.47643,-33.7721 -39.73159,24.1144 m 45.53808,-14.7969 -5.80649,-9.3175 m 4.98728,9.8164 0.81921,-0.4989 m -79.212589,17.1894 66.592729,-41.522 m -77.53788,23.9585 10.945151,17.5635 m 35.375869,-46.4458 -46.32102,28.8823 m 56.87895,-35.4643 -10.55793,6.582 m 20.27228,-12.6312 -9.71435,6.0492 m 20.65893,11.5058 -10.94458,-17.555 m -54.603297,6.7833 17.648531,-11.4094 m -28.674753,-8.8328 11.026222,20.2422 m 0.03005,-26.9632 -11.056269,6.721 m 16.760152,-10.2784 -5.703883,3.5574 m 17.618484,15.5538 -11.914601,-19.1112 m 25.306907,-15.7805 -20.671971,12.8919 m 30.274911,2.5087 -9.60294,-15.4006 m -2.76124,23.1194 12.36418,-7.7188 m -10.05308,11.4208 -2.3111,-3.702 m -10.631066,11.7723 12.942166,-8.0703 m -24.856767,-11.0409 11.914601,19.1112 m -7.279665,-21.9998 -4.634936,2.8886 m -40.033762,-0.5812 27.684892,-16.9398 m -3.165737,-22.1301 -24.519155,14.9981 m 33.104743,-0.9553 -8.585588,-14.0428 m 1.226553,18.5471 7.359035,-4.5043 m -5.419851,8.0873 -1.939184,-3.583 m 8.663825,0.5641 10.259165,17.6513 m -1.850743,-23.2186 -8.408422,5.5673 m 11.036709,-1.3493 -2.628287,-4.218 m 14.213218,-2.999 -11.584931,7.217 m 19.894427,6.1087 -8.309496,-13.3257 m -12.362475,26.2176 20.671971,-12.8919 m 63.78132,211.5556 -9.38155,-16.4807 m -12.18276,29.3982 21.56431,-12.9175 m -31.31012,-3.3421 9.74581,16.2596 m 12.18276,-29.3982 -21.92857,13.1386 m 31.31012,3.3421 44.54709,-26.6996 m -53.92864,10.2189 9.38155,16.4807 m -0.0558,-22.0536 -9.32571,5.5729 m 44.49861,-26.6174 -35.1729,21.0445 m 42.07273,-25.1519 -6.89983,4.1074 m 16.76611,12.0019 -9.86628,-16.1093 M 48.990689,1411.3184 79.326546,1392.7628 m -37.042355,7.5883 6.706498,10.9673 m 23.623123,-29.5286 -30.329621,18.5613 m 37.042355,-7.5883 -6.712734,-10.973 m 89.030968,278.6915 9.64972,16.2709 m 27.88303,-38.2281 -37.53275,21.9572 m 47.05094,-5.9613 -9.51819,-15.9959 m -27.88303,38.2281 37.40122,-22.2322 m -166.046426,50.4199 4.724794,7.784 m -7.378877,-12.155 2.654083,4.371 m 2.024223,-31.8955 -4.678306,2.8517 m 14.967519,14.1194 -10.289213,-16.9711 m 17.121286,12.8212 -6.832073,4.1499 m 18.371366,14.8649 -11.539293,-19.0148 m 4.701551,23.1647 6.837742,-4.1499 m 1.029262,17.1241 -7.867004,-12.9742 m 14.509723,23.933 -6.642719,-10.9588 m -9.655669,20.435 16.298388,-9.4762 m -31.845876,-17.2886 15.547488,26.7648 m -17.333601,-29.7156 1.786113,2.9508 m -9.16499,19.27 2.905516,4.7792 m -1.723467,-19.1934 -1.182049,0.7228 m 9.154218,-5.57 -7.972169,4.8472 m 8.262438,-4.371 -0.290269,-0.4762 m 15.55826,26.7562 -15.267991,-26.28 m 4.127817,33.1739 11.140174,-6.8939 m -14.648337,9.0709 3.508163,-2.177 m -10.666788,-9.6095 7.158625,11.7865 m 432.502958,193.462 -0.13606,-3.0075 m -52.08103,2.3754 0.0283,0.6321 m 52.05273,-3.0075 -52.08103,2.3754 m -255.84757,-213.8517 24.72694,79.7076 m -9.3277,-88.8493 -15.39924,9.1417 m 29.94695,37.2105 -14.54771,-46.3522 m 11.47523,47.3188 3.07248,-0.9666 m 8.65135,38.3244 -11.72383,-37.3578 m -2.14753,41.5305 13.87136,-4.1727 m -13.87136,4.1727 4.99267,16.1716 m 8.87869,-20.3443 -13.87136,4.1727 m 23.38869,-6.5623 -9.51733,2.3896 m 15.56733,13.9664 -6.05,-16.356 m 19.25323,11.4804 -13.20323,4.8756 m 23.53355,23.0598 -10.33032,-27.9354 m -5.33027,33.2901 15.66059,-5.3547 m -38.48548,13.1386 22.82489,-7.7839 m -32.31898,-22.0366 9.49409,29.8205 M 48.990689,1411.3184 42.284191,1400.3511 m -2.28898,16.3815 8.995478,-5.4142 m -6.706498,-10.9673 -2.28898,-3.7389 m 1205.530189,495.6131 38.384,2.5171 m -37.8199,-13.0932 -0.5641,10.5761 m 0.8475,-15.0861 -0.2834,4.51 m 28.2926,-2.6759 -28.0092,-1.8341 m 27.6719,7.0753 0.3373,-5.2412 m 10.1707,5.9272 -10.508,-0.686 m 9.8646,10.5279 0.6434,-9.8419 m -2.9338,-285.7015 -33.3128,-1.9134 m 32.5134,14.9868 0.7994,-13.0734 m -34.0669,11.126 33.2675,1.9474 m -32.5134,-14.9868 -0.7541,13.0394 m 1.4996,-45.3771 -15.3213,-0.1729 m 15.1427,13.4646 0.1786,-13.2917 m -15.4942,13.1301 15.3156,0.1616 m -15.1427,-13.4646 -0.1729,13.303 m 63.9894,191.903 -51.4773,-4.8331 m 50.0401,20.2196 1.4372,-15.3865 m -12.8325,14.2838 11.3953,1.1027 m -12.5575,3.0727 1.1622,-4.1754 m -40.4646,0.2636 39.3024,3.9118 m -37.4826,-23.2923 -1.8198,19.3805 m -20.5938,151.1946 2.6561,-34.1207 m -21.7134,32.6523 19.0573,1.4684 m -15.6557,-45.8222 -3.4016,44.3538 m 80.0789,-39.4583 -76.6773,-4.8955 m 76.0224,15.2561 0.6549,-10.3606 m -58.3655,6.806 57.7106,3.5546 m -1109.52505,-174.6683 -39.15927,23.3349 m 63.88621,56.3727 -24.72694,-79.7076 m 8.12524,84.8581 16.6017,-5.1505 m -33.29325,-44.6316 16.69155,49.7821 m -40.71152,-41.8196 24.01997,-7.9625 m -30.59296,-11.7411 6.57299,19.7036 m -30.7724,154.8201 2.33547,16.6252 m 14.2118,-18.6435 -16.54727,2.0183 m 19.264,16.6252 -2.71673,-18.6435 m 6.73513,-76.904 13.25199,35.0646 m 4.45607,-41.0032 -17.70806,5.9386 m 16.92059,-8.2942 0.78747,2.3556 m 22.65651,-10.2161 -23.44398,7.8605 m 24.827,-5.8536 -1.38302,-2.0069 m 24.92819,-5.5446 -23.54517,7.5515 m 34.70717,28.5506 -11.162,-36.1021 m -52.04077,56.7639 63.20277,-20.6618 m -28.37995,26.2914 -29.97897,9.1871 m 34.33385,4.2151 -4.35488,-13.4022 m 17.80331,54.8533 -13.44843,-41.4511 m -34.33385,-4.2151 13.98815,45.6662 m -27.75349,-2.8913 0.96604,2.8913 m 14.97631,-8.2233 -15.94235,5.332 m 19.17328,-6.4177 -3.23093,1.0857 m 6.37825,8.2233 -3.14732,-9.309 m -50.95198,-148.4506 -16.37974,5.9386 m 27.76114,25.4863 -11.3814,-31.4249 m -0.5692,35.7506 11.9506,-4.3257 m -16.4027,5.9358 4.4521,-1.6101 m -15.81054,-29.812 11.35844,31.4221 m -47.729834,103.1416 0.10063,17.2573 m 17.202924,-17.8498 -17.303554,0.5925 m 17.841854,17.2573 -0.5383,-17.8498 m -17.25905,7.6366 -14.271329,-0.085 m 14.329722,10.2982 -0.05839,-10.2132 m 1193.523757,-655.0508 40.1499,0.2636 m -40.1556,-26.5663 0.01,26.3027 m 40.1825,-26.1128 -40.1925,-0.1899 m 40.1556,26.5663 0.037,-26.3764 m -30.4613,96.551 3.7843,27.7768 m 24.3581,-31.2322 -28.1424,3.4554 m 30.3365,12.7248 -2.1941,-16.1802 m 0.7909,16.3701 1.4032,-0.1899 m 0.1247,11.4264 -1.5279,-11.2365 m -9.7058,12.7644 11.2337,-1.5279 m -10.8482,4.3314 -0.3855,-2.8035 m -5.2356,3.5688 5.6211,-0.7653 m -5.9981,-2.0381 0.377,2.8034 m -10.2076,-1.4711 9.8306,-1.3323 m -1051.29774,249.846 -20.65553,12.087 m 27.26622,-0.7314 -6.61069,-11.3556 m -8.263,20.024 14.87369,-8.6684 m -12.09234,13.4675 -2.78135,-4.7991 m -2.87434,8.0589 5.65569,-3.2598 m -15.17388,-12.7361 9.51819,15.9959 m -89.01878,-73.7406 16.66349,-10.063 m -25.03733,-3.8098 8.37384,13.8728 m -3.34375,-16.9087 -5.03009,3.0359 m 6.67418,-4.0308 -1.64409,0.9949 m 12.69894,-7.679 -11.05485,6.6841 m 18.36315,7.8406 -7.3083,-14.5247 m 830.37217,-68.8565 5.023,15.9704 m 59.0656,-36.1361 -64.0886,20.1657 m 69.1173,-4.1953 -5.0287,-15.9704 m -59.0656,36.1361 64.0943,-20.1657 m 176.4116,-61.5176 4.2576,23.1308 m 62.1497,-35.7421 -66.4073,12.6113 m 70.064,6.6473 -3.6567,-19.2586 m 4.4986,23.6438 -0.8419,-4.3852 m -65.8064,16.4835 66.6483,-12.0983 m -20.1855,19.3606 22.9578,-4.1385 m -25.5147,-10.0886 2.5569,14.2271 m -2.7383,-15.1767 0.1814,0.9496 m 3.6567,-1.6497 -3.8381,0.7001 m 6.9676,-1.2444 -3.1295,0.5443 m 19.0857,-3.4838 -15.9562,2.9395 m 16.2,-1.6072 -0.2438,-1.3323 m 2.7723,15.2221 -2.5285,-13.8898 m -1.355,28.4145 1.457,15.4715 m -1.5392,-16.3474 0.082,0.8759 m 13.6746,-2.1203 -13.7566,1.2444 m 14.2101,4.2945 -0.4535,-5.5389 m 12.2712,4.4079 -11.8177,1.131 m 12.8552,9.6548 -1.0375,-10.7858 m -24.4886,13.1839 25.5261,-2.3981 m -45.5132,-4.8416 0.8476,9.0596 m -1.1339,-12.1352 0.2863,3.0756 m 8.9093,-3.9713 -9.1956,0.8957 m 8.9122,-4.2009 0.2834,3.3052 m 9.6208,-4.2605 -9.9042,0.9553 m 11.3612,14.5162 -1.457,-15.4715 m -2.7467,15.8712 4.2037,-0.3997 m -9.3345,0.8901 5.1308,-0.4904 m -14.9358,1.4202 9.805,-0.9298 m -29.9509,2.778 -0.01,-0.1078 m -4.5509,0.533 4.5609,-0.4252 m -5.4,-8.5635 0.8391,8.9887 m 23.8592,-11.333 -24.6983,2.3443 m 25.5459,6.7153 -0.8476,-9.0596 m -3.1351,9.4054 3.9827,-0.3458 m -20.1515,1.7404 16.1688,-1.3946 m -23.0089,2.4321 1.029,9.584 m 5.6892,-10.4882 -6.7182,0.9042 m 7.6621,8.949 -0.9439,-9.8532 m -5.6892,10.4882 6.6331,-0.635 m 0.5868,4.8586 29.9197,-2.8517 m -31.32,-11.8686 1.4003,14.7203 m 4.989,-15.3326 -6.3893,0.6123 m 7.3757,-0.7002 -0.9864,0.088 m 9.771,-0.9072 -8.7846,0.8192 m 12.7673,-1.165 -3.9827,0.3458 m 13.7877,-1.2756 -9.805,0.9298 m 11.177,13.7338 -1.372,-14.6636 m 0,0 1.6952,18.1361 m 3.4356,-18.6265 -5.1308,0.4904 m 9.3345,-0.8901 -4.2037,0.3997 m 29.7298,-2.7978 -25.5261,2.3981 m 26.7109,-2.5143 -1.1848,0.1162 m 2.5256,14.1449 -1.3408,-14.2611 m -12.4157,15.5055 13.7565,-1.2444 m -13.4164,5.2271 -0.3401,-3.9827 m -21.9345,6.035 22.2746,-2.0523 m 1.8426,26.3112 11.4803,-0.462 m -11.9027,-9.3345 0.4224,9.7965 m 11.0749,-10.2926 -11.4973,0.4961 m 11.9027,9.3345 -0.4054,-9.8306 m -11.0749,10.2926 -0.4224,-9.7965 m -18.4479,10.5505 18.8703,-0.754 m -19.2586,-8.9886 0.3883,9.7426 m 18.4479,-10.5505 -18.8362,0.8079 m -16.5459,10.4428 10.851,-0.4394 m -18.1842,0.7484 7.3332,-0.309 m -10.0347,0.4195 2.7015,-0.1105 m -3.0898,-9.6662 0.3883,9.7767 m 26.5806,-10.8623 -26.9689,1.0856 m 27.3572,8.657 -0.3883,-9.7426 m -5.6949,10.0034 6.0832,-0.2608 m -2.6221,43.2738 26.2177,0.2863 m -34.7471,-0.3855 8.5294,0.099 m -8.4727,-8.07 -0.057,7.971 m 42.6901,-7.4976 -42.6331,-0.4734 m 42.5509,8.4472 0.082,-7.9738 m -7.9425,7.8831 7.8605,0.091 m -30.7276,-25.4895 30.3704,-1.3096 m -30.5745,-3.8806 0.2041,5.1902 m -0.7285,-18.1616 0.5244,12.9714 m 18.3459,-13.7254 -18.8703,0.754 m 30.3506,-1.216 -11.4803,0.462 m 12.2286,17.606 -0.7483,-18.068 m -41.4227,32.5248 -28.8341,-0.3289 m 28.6725,12.1805 0.1616,-11.8516 m -16.5261,11.6815 16.3645,0.1701 m -25.1405,-0.2579 8.776,0.088 m -10.6327,-0.1135 1.8567,0.025 m -3.6879,-0.039 1.8312,0.014 m -1.6753,-11.8969 -0.1559,11.8829 m 15.3213,0.1729 -0.1644,13.4788 m 16.2142,-13.3059 -16.0498,-0.1729 m 21.4498,0.2296 -5.4,-0.057 m 13.9294,0.1562 -8.5294,-0.099 m 8.3849,13.5409 0.1445,-13.4419 m -30.1436,13.15 29.9991,0.2919 m 0.1445,-13.4419 -0.1445,13.4419 m 26.3622,-13.1556 -26.2177,-0.2863 m 26.0703,13.3824 0.1474,-13.0961 m -12.2995,12.9827 12.1521,0.1134 m -12.1833,4.2406 0.031,-4.354 m -14.0966,4.2378 14.0656,0.1162 m -14.0315,-4.1811 -0.034,4.0649 m 6.7691,29.7667 20.4747,1.2019 m -25.2454,-1.4967 4.7707,0.2948 m -4.4022,-6.8259 -0.3685,6.5311 m 0.7682,-13.0564 -0.3997,6.5253 m 14.4935,-5.726 -14.0938,-0.7993 m 25.2595,1.4655 -11.1657,-0.6662 m 10.3834,13.7538 0.7823,-13.0876 m -27.3657,5.468 -1.8453,18.1305 m 11.7836,-17.5437 -9.9383,-0.5868 m 9.9411,0.5641 0,0.023 m 16.9342,0.9521 -16.9342,-0.9751 m 14.9698,20.2905 1.9644,-19.3154 m -28.7206,16.5913 26.7562,2.7241 m -31.8303,43.115 1.7122,0.1871 m -10.2926,-1.1481 8.5804,0.961 m -8.3367,-15.344 -0.2437,14.383 m 39.5858,-12.1153 -39.3421,-2.2677 m 38.4152,18.4111 0.9269,-16.1434 m -26.0589,13.5865 25.132,2.5569 m -28.3663,-2.88 3.2343,0.3231 m -36.944,-30.8155 -1.7235,26.8555 m 25.6309,-26.0419 -23.9074,-0.8136 m 23.4171,29.3443 0.4903,-28.5307 m -0.496,28.5307 0.01,0 m -0.016,0.054 0.01,-0.054 m -10.9546,-1.0997 10.9446,1.1537 m -22.4476,-2.3669 11.503,1.2132 m -14.1846,-1.389 2.6816,0.1758 m 35.9859,3.7842 -3.2343,-0.3231 m 28.3663,2.88 -25.132,-2.5569 m 23.692,16.8435 1.44,-14.2866 m -13.2038,13.062 11.7638,1.2246 m -12.2088,3.3109 0.445,-4.5355 m -27.377,1.8227 26.932,2.7128 m -25.9824,-12.1323 -0.9496,9.4195 m 1.9219,-18.8561 -0.9723,9.4366 m 3.2541,-9.2013 -2.2818,-0.2353 m 8.5804,0.9043 -6.2986,-0.669 m 8.0108,0.8561 -1.7122,-0.1871 m -9.6661,9.6916 0.1134,-1.1593 m -11.0722,0.031 10.9588,1.1281 m -10.8199,-2.5398 -0.1389,1.4117 m 1.0885,-10.579 -0.9496,9.1673 m 11.8942,-8.0589 -10.9446,-1.1084 m 9.9837,10.5478 0.9609,-9.4394 m -11.8942,8.0589 0.9496,-9.1673 m -12.5943,7.9172 11.6447,1.2501 m -10.5619,-10.3266 -1.0828,9.0765 m 12.5943,-7.9172 -11.5115,-1.1593 m -170.1669,244.31 -7.0582,-0.2013 m 53.4671,2.0098 -46.4089,-1.8085 m 45.1674,33.7351 1.2415,-31.9266 m -53.4671,-2.0098 -1.3181,33.9364 m -69.79196,-14.8706 -0.19276,14.8706 m 27.28632,-14.5162 -27.09356,-0.3544 m 26.90646,14.8706 0.1871,-14.5162 m 280.0464,-225.7034 -43.8803,-4.5779 m 43.7528,7.2198 0.1275,-2.6419 m -1.1622,12.4498 1.0347,-9.8079 m -45.0625,5.2073 44.0278,4.6006 m -42.7181,-17.0277 -1.3097,12.4271 m -28.766,50.7175 -1.3918,14.7969 m 21.0615,-12.9628 -19.6697,-1.8341 m 18.292,16.6905 1.3777,-14.8564 m -21.0615,12.9628 19.6838,1.8936 m 45.1617,71.8215 -43.4637,-3.1777 m 40.9096,19.1509 2.5541,-15.9732 m -17.9632,14.6551 15.4091,1.3181 m -15.6416,1.9049 0.2325,-3.223 m -26.8612,1.3096 26.6287,1.9134 m -26.4217,-4.9408 -0.207,3.0274 m 1.3607,-19.1424 -1.1537,16.115 m 0,0 1.1537,-16.115 m -6.0492,15.772 4.8955,0.343 m -5.0741,2.1884 0.1786,-2.5314 m -6.7436,2.1034 6.565,0.428 m -6.3411,-3.5348 -0.2239,3.1068 m -3.0019,-3.2882 3.2258,0.1814 m -2.0778,-15.8174 -1.148,15.636 m 15.7947,-14.5872 -14.6467,-1.0488 m -25.8066,42.1286 25.8151,1.6583 m -25.0696,-12.2571 -0.7455,10.5988 m 40.1585,-8.0844 -39.413,-2.5144 m 38.8489,13.0905 0.5641,-10.5761 m -14.3434,9.7427 13.7793,0.8334 m -15.293,-23.7459 0.3572,-5.2384 m -22.9862,3.6907 22.629,1.5477 m -22.2151,-7.4835 -0.4139,5.9358 m 1.3833,-20.9594 -0.9694,15.0236 m 23.7203,-13.3909 -22.7509,-1.6327 m 21.6029,17.2687 1.148,-15.636 m 5.3859,89.0874 -0.6407,8.28 m 13.3626,-7.3049 -12.7219,-0.9751 m 40.0479,3.0586 -27.326,-2.0835 m 26.9377,7.3049 0.3883,-5.2214 m -28.0347,-2.0835 27.3289,2.0835 m -27.3289,-2.0891 0,0.01 m 0.017,-0.01 -0.017,0 m 0.5925,-7.8718 -0.5755,7.8718 m 0.9921,-13.4136 -0.4166,5.5418 m 6.0378,-5.1364 -5.6212,-0.4054 m 6.052,-5.4227 -0.4308,5.8281 m 13.5127,-4.8586 -13.0819,-0.9695 m 12.7333,5.6155 0.3486,-4.646 m 13.1982,5.675 -13.5468,-1.029 m 12.4384,15.6784 1.1084,-14.6494 m -6.0123,14.2781 4.9039,0.3713 m -0.1757,-1311.76827 -12.2967,-126.98665 m 16.5005,170.38514 -4.2038,-43.39849 m 4.0875,50.50779 0.1163,-7.1093 m -5.9812,31.52131 5.8649,-24.41201 m -10.4371,23.51343 4.5722,0.89858 m -11.3981,14.57861 6.8259,-15.47719 m -18.0596,40.68573 11.2337,-25.20854 m -37.4032,11.91119 26.1695,13.29735 m -47.9793,-24.38083 21.8098,11.08348 m -82.871,-42.11723 61.0612,31.03375 m -74.0836,-225.58144 13.0224,194.54769 m 13.6063,-218.98805 -26.6287,24.44036 m 27.9525,-27.39973 -1.3238,2.95937 m 102.9942,-12.59718 -101.6704,9.63781 m 106.2229,35.6684 -4.5525,-45.30621 M 1147.7441,687.6464 1134.7217,493.09871 m -35.8299,166.16151 48.8523,28.38618 m -63.7598,-38.24793 14.9075,9.86175 m -24.1966,-16.00727 9.2891,6.14552 m -32.3972,-22.83027 23.1081,16.68475 m -56.35,-43.61392 33.2419,26.92917 m -89.28012,-73.10562 56.03822,46.17645 m -42.17394,-161.06765 -13.86428,114.8912 m 36.36573,-118.4742 -22.50145,3.583 m 28.72914,7.14048 -6.22769,-10.72348 m 96.72109,0.81071 -90.4934,9.91277 m 93.8496,-10.13954 -3.3562,0.22677 m 28.1878,-4.50142 -24.8316,4.27465 m 34.7954,-5.41135 -9.9638,1.1367 m 24.9137,-2.84032 -14.9499,1.70362 m 58.8445,-7.18017 -43.8946,5.47655 m 111.997,-14.0627 -68.1024,8.58615 m 69.9733,11.3301 -1.8709,-19.91625 m 2.8545,31.7254 -0.9836,-11.80915 m 1.9814,21.75027 -0.9978,-9.94112 m -100.6726,19.57893 101.6704,-9.63781 m -102.9942,12.59718 1.3238,-2.95937 m -27.9525,27.39973 26.6287,-24.44036 m -862.11341,654.75595 104.01182,178.7304 m -155.77876,-146.9738 126.2332,204.812 m -176.12134,-176.4513 47.04357,82.7264 m -48.76335,-85.8474 109.5629,192.6117 m 211.08222,102.5037 -35.60321,-78.7324 m -440.908829,267.0978 2.338586,-1.389 m 0,0 -2.338586,-3.9402 m 78.272339,37.6612 -10.3408,-18.0397 m 6.39553,20.605 3.94527,-2.5653 m 2.65493,14.0854 -6.6002,-11.5201 m -6.08741,18.4508 12.68761,-6.9307 m -20.16088,-6.0917 7.47327,13.0224 m -9.320042,-16.2256 1.846772,3.2032 m -6.390716,-11.16 4.543944,7.9568 m -7.622374,-13.2973 3.07843,5.3405 m -3.078996,-5.3462 5.66e-4,0.01 m 16.634296,-9.5372 -16.634862,9.5272 M 418.55025,1057.6306 c 2.51716,-1.3862 5.34048,-2.1147 8.21198,-2.1147 6.72379,0 12.81545,3.96 15.54238,10.0999 m 577.61949,176.3209 c 2.1543,-1.2444 4.5978,-1.8992 7.0866,-1.8992 m -429.51183,174.8214 c 0.80504,1.8141 1.22173,3.7729 1.22173,5.7571 0,5.0996 -2.74111,9.8079 -7.17733,12.3251 m 714.47923,-666.87694 -3.6426,-95.32928 m 31.3484,300.68834 -0.01,-0.19843 m -952.35583,-322.2827 9.3912,388.46891 m 193.7625,383.1342 -51.8089,23.023 m 0,0 -17.26585,-38.8574 m 0,0 51.8089,-23.0202 m 30.24855,33.1683 -155.19426,-349.2431 m 74.20264,409.9102 75.03602,-42.5849 m -114.25908,64.8426 39.22306,-22.2577 m -105.71544,-390.079 13.81325,31.0848 m 6.91087,-40.2946 -20.72412,9.2098 m 34.53737,21.8778 -13.81325,-31.0876 m -6.91087,40.2946 20.72412,-9.207 m 13.71688,30.8665 -31.08478,13.8133 m 40.29455,6.9109 -9.20977,-20.7242 m -21.875,34.5374 31.08477,-13.8132 m -40.29455,-6.9109 9.20978,20.7241 m 39.14085,4.3172 -31.08477,13.8132 m 40.29455,6.9109 -9.20978,-20.7241 m -21.875,34.5374 31.08478,-13.8133 m -40.29455,-6.9109 9.20977,20.7242 m 73.67539,82.0319 -31.08477,13.8133 m 40.29455,6.9108 -9.20978,-20.7241 m -21.87783,34.5374 31.08761,-13.8133 m -40.29455,-6.9108 9.20694,20.7241 m 39.14369,4.32 -31.08478,13.8132 m 40.29455,6.9081 -9.20977,-20.7213 m -21.875,34.5345 31.08477,-13.8132 m -40.29455,-6.9081 9.20978,20.7213 m -29.9254,-151.1038 -31.08477,13.8132 m 40.29455,6.9109 -9.20978,-20.7241 m -21.87499,34.5374 31.08477,-13.8133 m -40.29455,-6.9109 9.20978,20.7242 m 39.14368,4.32 -31.08477,13.8132 m 40.29171,6.908 -9.20694,-20.7212 m -21.87783,34.5345 31.08477,-13.8133 m -40.29171,-6.908 9.20694,20.7213 m -89.32832,-89.0335 85.59509,-38.0354 m -17.26586,-38.8573 -71.46719,31.7565 m 88.73305,7.1008 -85.59509,38.0354 m -3.13796,-45.1362 71.46719,-31.7565 m 34.53171,77.7119 -90.66345,40.2889 m 107.93214,-1.4315 -90.66628,40.2889 m -17.26586,-38.8574 90.66345,-40.2889 m -73.39759,79.1463 -17.26586,-38.8574 m 125.19799,37.423 -90.66628,40.2889 m -17.26585,-38.8545 90.66628,-40.2889 m -73.40043,79.1434 -17.26585,-38.8545 m 125.19798,37.423 -90.66344,40.2889 m -17.26869,-38.8574 90.66628,-40.2889 m -73.39759,79.1463 -17.26869,-38.8574 m 125.19799,37.423 -90.66345,40.2889 m -17.26585,-38.8545 90.66344,-40.2889 m -73.39759,79.1434 -17.26585,-38.8545 m 17.26585,38.8545 90.66345,-40.2889 m 784.77571,42.1966 -3.2315,-369.4512 m 7.8803,568.7328 -4.6488,-199.2816 m -5.0797,375.2879 9.7285,-176.0063 m -17.5351,259.0445 7.8066,-83.0382 m -16.5856,170.9832 8.779,-87.945 m -11.2876,-1.0942 7.7868,-82.7888 m -13.4278,82.2417 7.7726,-82.664 m -20.7411,-809.39181 -0.017,-0.46772 m -6.7663,890.61023 7.7329,-82.2276 m -13.3739,81.6805 7.7188,-82.1028 M 1266.3034,334.20524 1242.2258,40.030644 m 56.0864,1812.620056 7.7159,-82.0376 M 1257.8277,334.89972 1233.6935,40.030644 m 51.7041,631.721876 -27.5699,-336.8528 m 44.6628,1064.66338 -1.3947,-159.5653 m 6.0038,357.1262 -4.6091,-197.5609 m -4.9436,370.4179 9.5527,-172.857 m -17.2516,254.7075 7.6989,-81.8505 m -16.9938,174.9914 9.2949,-93.1409 m -1122.63143,-169.753 41.40998,-23.916 m -18.72966,63.1844 830.02721,-479.4102 m 281.1717,-1.9389 -274.0851,0.04 m -372.26324,212.8195 27.9298,49.1274 m -546.56389,-219.762 -31.47822,-48.7134 m 109.02914,382.3546 -9.52527,-16.3446 m 1098.31178,-201.7477 -1.2359,-143.9662 m -741.40271,586.5656 10.91057,32.2186 m -13.12726,67.2946 -19.09137,-56.384 m -43.1292,-21.3081 64.43726,-21.8211 m 30.00194,88.6027 -19.09137,-56.3841 m 19.09137,56.3841 -32.21863,10.9105 m -51.31,-45.4734 64.43726,-21.8212 m -75.34783,-10.3975 10.91057,32.2187 m -275.86502,-384.0157 42.1229,-27.1645 m 1029.94712,-83.6675 -619.81324,102.4216 m 619.94644,-73.9986 -153.8846,28.1056 m -581.48878,-74.4011 17.26585,38.8546 m -507.540325,520.2091 0,-2.0742 0.316407,0 0,0.2949 q 0.228515,-0.3418 0.660156,-0.3418 0.1875,0 0.34375,0.068 0.158203,0.066 0.236328,0.1758 0.07813,0.1094 0.109375,0.2598 0.01953,0.098 0.01953,0.3418 l 0,1.2754 -0.351562,0 0,-1.2617 q 0,-0.2149 -0.04102,-0.3204 -0.04102,-0.1074 -0.146484,-0.1699 -0.103516,-0.064 -0.244141,-0.064 -0.224609,0 -0.388672,0.1425 -0.162109,0.1426 -0.162109,0.5411 l 0,1.1328 -0.351563,0 z m -2.338867,-1.0371 q 0,-0.5762 0.320313,-0.8536 0.267578,-0.2304 0.652343,-0.2304 0.427735,0 0.699219,0.2812 0.271485,0.2793 0.271485,0.7735 0,0.4004 -0.121094,0.6308 -0.119141,0.2285 -0.34961,0.3555 -0.228515,0.1269 -0.5,0.1269 -0.435546,0 -0.705078,-0.2792 -0.267578,-0.2793 -0.267578,-0.8047 z m 0.361328,0 q 0,0.3984 0.173828,0.5976 0.173829,0.1973 0.4375,0.1973 0.261719,0 0.435547,-0.1992 0.173828,-0.1993 0.173828,-0.6075 0,-0.3847 -0.175781,-0.582 -0.173828,-0.1992 -0.433594,-0.1992 -0.263671,0 -0.4375,0.1973 -0.173828,0.1972 -0.173828,0.5957 z m -1.100517,-1.4219 0,-0.4043 0.351563,0 0,0.4043 -0.351563,0 z m 0,2.459 0,-2.0742 0.351563,0 0,2.0742 -0.351563,0 z m -2.126587,-0.6192 0.347656,-0.055 q 0.0293,0.209 0.16211,0.3204 0.134765,0.1113 0.375,0.1113 0.242187,0 0.359375,-0.098 0.117187,-0.1 0.117187,-0.2324 0,-0.1191 -0.103515,-0.1875 -0.07227,-0.047 -0.359375,-0.1191 -0.386719,-0.098 -0.53711,-0.168 -0.148437,-0.072 -0.226562,-0.1973 -0.07617,-0.1269 -0.07617,-0.2793 0,-0.1386 0.0625,-0.2558 0.06445,-0.1192 0.173828,-0.1973 0.08203,-0.061 0.222656,-0.1016 0.142578,-0.043 0.304688,-0.043 0.24414,0 0.427734,0.07 0.185547,0.07 0.273438,0.1914 0.08789,0.1191 0.121093,0.3203 l -0.34375,0.047 q -0.02344,-0.1602 -0.136718,-0.25 -0.111329,-0.09 -0.316407,-0.09 -0.242187,0 -0.345703,0.08 -0.103515,0.08 -0.103515,0.1875 0,0.068 0.04297,0.1231 0.04297,0.057 0.134766,0.094 0.05273,0.019 0.310547,0.09 0.373047,0.1 0.519531,0.164 0.148438,0.062 0.232422,0.1836 0.08398,0.1211 0.08398,0.3008 0,0.1758 -0.103515,0.332 -0.101563,0.1543 -0.294922,0.2403 -0.19336,0.084 -0.4375,0.084 -0.404297,0 -0.617188,-0.1679 -0.210937,-0.168 -0.269531,-0.4981 z m -1.179283,0.6192 0,-2.0742 0.316406,0 0,0.3144 q 0.121094,-0.2207 0.222656,-0.291 0.103516,-0.07 0.226563,-0.07 0.177734,0 0.361328,0.1133 l -0.121094,0.3261 q -0.128906,-0.076 -0.257812,-0.076 -0.115235,0 -0.207031,0.07 -0.0918,0.068 -0.13086,0.1914 -0.05859,0.1875 -0.05859,0.4101 l 0,1.086 -0.351562,0 z m -0.784172,-0.668 0.363281,0.045 q -0.08594,0.3184 -0.318359,0.4942 -0.232422,0.1757 -0.59375,0.1757 -0.455078,0 -0.722656,-0.2792 -0.265625,-0.2813 -0.265625,-0.7872 0,-0.5234 0.269531,-0.8125 0.269531,-0.289 0.699219,-0.289 0.416015,0 0.679687,0.2832 0.263672,0.2832 0.263672,0.7969 0,0.031 -0.002,0.094 l -1.546875,0 q 0.01953,0.3418 0.193359,0.5234 0.173828,0.1817 0.433594,0.1817 0.193359,0 0.330078,-0.1016 0.136719,-0.1015 0.216797,-0.3242 z m -1.154297,-0.5684 1.158203,0 q -0.02344,-0.2617 -0.132812,-0.3925 -0.167969,-0.2032 -0.435547,-0.2032 -0.242188,0 -0.408203,0.1622 -0.164063,0.1621 -0.181641,0.4335 z m -2.054352,1.2364 -1.109375,-2.8633 0.410156,0 0.744141,2.0801 q 0.08984,0.25 0.150391,0.4687 0.06641,-0.2344 0.154297,-0.4687 l 0.773437,-2.0801 0.386719,0 -1.121094,2.8633 -0.388672,0 z m -1.743095,0 0,-2.8633 0.351562,0 0,2.8633 -0.351562,0 z m -0.846676,-0.2559 q -0.195313,0.166 -0.376953,0.2344 -0.179688,0.068 -0.386719,0.068 -0.341797,0 -0.525391,-0.166 -0.183593,-0.1679 -0.183593,-0.4277 0,-0.1523 0.06836,-0.2773 0.07031,-0.127 0.181641,-0.2032 0.113281,-0.076 0.253906,-0.1152 0.103516,-0.027 0.3125,-0.053 0.425781,-0.051 0.626953,-0.1211 0.002,-0.072 0.002,-0.092 0,-0.2149 -0.09961,-0.3028 -0.134766,-0.1191 -0.400391,-0.1191 -0.248047,0 -0.367187,0.088 -0.117188,0.086 -0.173828,0.3066 l -0.34375,-0.047 q 0.04687,-0.2208 0.154296,-0.3555 0.107422,-0.1367 0.310547,-0.209 0.203125,-0.074 0.470703,-0.074 0.265625,0 0.431641,0.062 0.166016,0.062 0.244141,0.1582 0.07813,0.094 0.109375,0.2383 0.01758,0.09 0.01758,0.3242 l 0,0.4687 q 0,0.4903 0.02148,0.6211 0.02344,0.1289 0.08984,0.2481 l -0.367188,0 q -0.05469,-0.1094 -0.07031,-0.2559 z m -0.0293,-0.7851 q -0.191406,0.078 -0.574219,0.1328 -0.216797,0.031 -0.30664,0.07 -0.08984,0.039 -0.138672,0.1152 -0.04883,0.074 -0.04883,0.166 0,0.1407 0.105468,0.2344 0.107422,0.094 0.3125,0.094 0.203125,0 0.361329,-0.088 0.158203,-0.09 0.232421,-0.2442 0.05664,-0.1191 0.05664,-0.3515 l 0,-0.1289 z m -3.532224,1.041 0,-2.0742 0.316407,0 0,0.2949 q 0.228515,-0.3418 0.660156,-0.3418 0.1875,0 0.34375,0.068 0.158203,0.066 0.236328,0.1758 0.07813,0.1094 0.109375,0.2598 0.01953,0.098 0.01953,0.3418 l 0,1.2754 -0.351562,0 0,-1.2617 q 0,-0.2149 -0.04102,-0.3204 -0.04102,-0.1074 -0.146484,-0.1699 -0.103516,-0.064 -0.244141,-0.064 -0.224609,0 -0.388672,0.1425 -0.162109,0.1426 -0.162109,0.5411 l 0,1.1328 -0.351563,0 z m -2.338863,-1.0371 q 0,-0.5762 0.320313,-0.8536 0.267578,-0.2304 0.652343,-0.2304 0.427735,0 0.699219,0.2812 0.271484,0.2793 0.271484,0.7735 0,0.4004 -0.121093,0.6308 -0.119141,0.2285 -0.34961,0.3555 -0.228515,0.1269 -0.5,0.1269 -0.435547,0 -0.705078,-0.2792 -0.267578,-0.2793 -0.267578,-0.8047 z m 0.361328,0 q 0,0.3984 0.173828,0.5976 0.173828,0.1973 0.4375,0.1973 0.261719,0 0.435547,-0.1992 0.173828,-0.1993 0.173828,-0.6075 0,-0.3847 -0.175781,-0.582 -0.173828,-0.1992 -0.433594,-0.1992 -0.263672,0 -0.4375,0.1973 -0.173828,0.1972 -0.173828,0.5957 z m -1.100517,-1.4219 0,-0.4043 0.351562,0 0,0.4043 -0.351562,0 z m 0,2.459 0,-2.0742 0.351562,0 0,2.0742 -0.351562,0 z m -0.33038,-0.3145 0.05078,0.3106 q -0.148438,0.031 -0.265625,0.031 -0.191407,0 -0.296875,-0.061 -0.105469,-0.061 -0.148438,-0.1582 -0.04297,-0.1 -0.04297,-0.416 l 0,-1.1934 -0.257812,0 0,-0.2734 0.257812,0 0,-0.5137 0.34961,-0.211 0,0.7247 0.353515,0 0,0.2734 -0.353515,0 0,1.2129 q 0,0.1504 0.01758,0.1933 0.01953,0.043 0.06055,0.068 0.04297,0.025 0.121094,0.025 0.05859,0 0.154296,-0.014 z m -1.622066,0.059 q -0.195313,0.166 -0.376953,0.2344 -0.179688,0.068 -0.386719,0.068 -0.341797,0 -0.525391,-0.166 -0.183593,-0.1679 -0.183593,-0.4277 0,-0.1523 0.06836,-0.2773 0.07031,-0.127 0.181641,-0.2032 0.113281,-0.076 0.253906,-0.1152 0.103516,-0.027 0.3125,-0.053 0.425781,-0.051 0.626953,-0.1211 0.002,-0.072 0.002,-0.092 0,-0.2149 -0.09961,-0.3028 -0.134766,-0.1191 -0.400391,-0.1191 -0.248047,0 -0.367187,0.088 -0.117188,0.086 -0.173828,0.3066 l -0.34375,-0.047 q 0.04687,-0.2208 0.154296,-0.3555 0.107422,-0.1367 0.310547,-0.209 0.203125,-0.074 0.470703,-0.074 0.265625,0 0.431641,0.062 0.166016,0.062 0.244141,0.1582 0.07813,0.094 0.109375,0.2383 0.01758,0.09 0.01758,0.3242 l 0,0.4687 q 0,0.4903 0.02148,0.6211 0.02344,0.1289 0.08984,0.2481 l -0.367188,0 q -0.05469,-0.1094 -0.07031,-0.2559 z m -0.0293,-0.7851 q -0.191406,0.078 -0.574219,0.1328 -0.216797,0.031 -0.30664,0.07 -0.08984,0.039 -0.138672,0.1152 -0.04883,0.074 -0.04883,0.166 0,0.1407 0.105468,0.2344 0.107422,0.094 0.3125,0.094 0.203125,0 0.361329,-0.088 0.158203,-0.09 0.232421,-0.2442 0.05664,-0.1191 0.05664,-0.3515 l 0,-0.1289 z m -1.954705,0.2812 0.345703,0.045 q -0.05664,0.3575 -0.291015,0.5606 -0.232422,0.2011 -0.572266,0.2011 -0.425781,0 -0.685547,-0.2773 -0.257812,-0.2793 -0.257812,-0.7988 0,-0.336 0.111328,-0.5879 0.111328,-0.252 0.33789,-0.377 0.228516,-0.1269 0.496094,-0.1269 0.337891,0 0.552734,0.1719 0.214844,0.1699 0.275391,0.4843 l -0.341797,0.053 q -0.04883,-0.209 -0.173828,-0.3145 -0.123047,-0.1055 -0.298828,-0.1055 -0.265625,0 -0.431641,0.1914 -0.166015,0.1895 -0.166015,0.6016 0,0.418 0.160156,0.6074 0.160156,0.1895 0.417969,0.1895 0.207031,0 0.345703,-0.127 0.138672,-0.1269 0.175781,-0.3906 z m -2.202145,0.7598 0,-0.3047 q -0.242187,0.3515 -0.658203,0.3515 -0.183593,0 -0.34375,-0.07 -0.158203,-0.07 -0.236328,-0.1757 -0.07617,-0.1075 -0.107422,-0.2618 -0.02148,-0.1035 -0.02148,-0.3281 l 0,-1.2851 0.351562,0 0,1.1503 q 0,0.2754 0.02148,0.3711 0.0332,0.1387 0.140625,0.2188 0.107422,0.078 0.265625,0.078 0.158203,0 0.296875,-0.08 0.138672,-0.082 0.195312,-0.2207 0.05859,-0.1406 0.05859,-0.4062 l 0,-1.1113 0.351563,0 0,2.0742 -0.314454,0 z m -2.221675,0 0,-0.2617 q -0.197266,0.3085 -0.580079,0.3085 -0.248046,0 -0.457031,-0.1367 -0.207031,-0.1367 -0.322265,-0.3808 -0.113282,-0.2461 -0.113282,-0.5645 0,-0.3105 0.103516,-0.5625 0.103516,-0.2539 0.310547,-0.3887 0.207031,-0.1347 0.46289,-0.1347 0.1875,0 0.333985,0.08 0.146484,0.078 0.238281,0.205 l 0,-1.0273 0.349609,0 0,2.8633 -0.326171,0 z m -1.111329,-1.0352 q 0,0.3985 0.167969,0.5957 0.167969,0.1973 0.396485,0.1973 0.230468,0 0.390625,-0.1875 0.162109,-0.1895 0.162109,-0.5762 0,-0.4258 -0.164063,-0.625 -0.164062,-0.1992 -0.404296,-0.1992 -0.234375,0 -0.392579,0.1914 -0.15625,0.1914 -0.15625,0.6035 z m -2.833644,1.0352 0,-2.8633 2.070312,0 0,0.3379 -1.691406,0 0,0.8769 1.583984,0 0,0.336 -1.583984,0 0,0.9746 1.757812,0 0,0.3379 -2.136718,0 z m -2.788727,-0.9199 0.357422,-0.031 q 0.02539,0.2148 0.117187,0.3535 0.09375,0.1367 0.289063,0.2227 0.195312,0.084 0.439453,0.084 0.216797,0 0.382812,-0.064 0.166016,-0.064 0.246094,-0.1758 0.08203,-0.1133 0.08203,-0.2461 0,-0.1347 -0.07813,-0.2343 -0.07813,-0.1016 -0.257812,-0.17 -0.115235,-0.045 -0.509766,-0.1386 -0.394531,-0.096 -0.552734,-0.1797 -0.205078,-0.1074 -0.306641,-0.2657 -0.09961,-0.1601 -0.09961,-0.3574 0,-0.2168 0.123047,-0.4043 0.123046,-0.1894 0.359375,-0.2871 0.236328,-0.098 0.52539,-0.098 0.31836,0 0.560547,0.1035 0.244141,0.1015 0.375,0.3008 0.130859,0.1992 0.140625,0.4511 l -0.363281,0.027 q -0.0293,-0.2715 -0.199219,-0.4102 -0.167969,-0.1387 -0.498047,-0.1387 -0.34375,0 -0.501953,0.127 -0.15625,0.125 -0.15625,0.3027 0,0.1543 0.111328,0.2539 0.109375,0.1 0.570313,0.2051 0.46289,0.1035 0.634765,0.1817 0.25,0.1152 0.369141,0.2929 0.119141,0.1758 0.119141,0.4063 0,0.2285 -0.13086,0.4316 -0.130859,0.2012 -0.376953,0.3145 -0.244141,0.1113 -0.550781,0.1113 -0.388672,0 -0.652344,-0.1133 -0.261719,-0.1133 -0.412109,-0.3398 -0.148438,-0.2285 -0.15625,-0.5156 z m -1.627255,-0.2032 0,-0.3359 1.212891,0 0,1.0625 q -0.279297,0.2227 -0.576172,0.336 -0.296875,0.1113 -0.609375,0.1113 -0.421875,0 -0.767578,-0.1797 -0.34375,-0.1816 -0.519531,-0.5234 -0.175782,-0.3418 -0.175782,-0.7637 0,-0.418 0.173828,-0.7793 0.175782,-0.3633 0.503907,-0.5391 0.328125,-0.1757 0.755859,-0.1757 0.310547,0 0.560547,0.1015 0.251953,0.1 0.394531,0.2793 0.142578,0.1797 0.216797,0.4688 l -0.341797,0.094 q -0.06445,-0.2187 -0.160156,-0.3437 -0.0957,-0.125 -0.273438,-0.1992 -0.177734,-0.076 -0.394531,-0.076 -0.259765,0 -0.449219,0.08 -0.189453,0.078 -0.30664,0.207 -0.115235,0.1289 -0.179688,0.2832 -0.109375,0.2656 -0.109375,0.5762 0,0.3828 0.13086,0.6406 0.132812,0.2578 0.384765,0.3828 0.251953,0.125 0.535157,0.125 0.246093,0 0.480468,-0.094 0.234375,-0.096 0.355469,-0.2032 l 0,-0.5332 -0.841797,0 z" /><rect
       style="fill:none;stroke:#ff0000;stroke-width:0.36301294;stroke-linejoin:round;stroke-miterlimit:4;stroke-dasharray:none"
       id="rect51652"
       width="1133.4952"
       height="1700.4244"
       x="197.62402"
       y="134.26434" /></g></svg>