<?xml version="1.0" encoding="UTF-8" standalone="no"?>
<!-- Created with Inkscape (http://www.inkscape.org/) -->

<svg
   xmlns:dc="http://purl.org/dc/elements/1.1/"
   xmlns:cc="http://creativecommons.org/ns#"
   xmlns:rdf="http://www.w3.org/1999/02/22-rdf-syntax-ns#"
   xmlns:svg="http://www.w3.org/2000/svg"
   xmlns="http://www.w3.org/2000/svg"
   xmlns:sodipodi="http://sodipodi.sourceforge.net/DTD/sodipodi-0.dtd"
   xmlns:inkscape="http://www.inkscape.org/namespaces/inkscape"
   width="210mm"
   height="297mm"
   viewBox="0 0 744.09448819 1052.3622047"
   id="svg2"
   version="1.1"
   inkscape:version="0.91 r13725"
   sodipodi:docname="stormtrooper_flake.svg">
  <defs
     id="defs4" />
  <sodipodi:namedview
     id="base"
     pagecolor="#ffffff"
     bordercolor="#666666"
     borderopacity="1.0"
     inkscape:pageopacity="0.0"
     inkscape:pageshadow="2"
     inkscape:zoom="1.979899"
     inkscape:cx="371.6397"
     inkscape:cy="472.78233"
     inkscape:document-units="mm"
     inkscape:current-layer="layer1"
     showgrid="false"
     inkscape:window-width="1440"
     inkscape:window-height="837"
     inkscape:window-x="-4"
     inkscape:window-y="-4"
     inkscape:window-maximized="1" />
  <metadata
     id="metadata7">
    <rdf:RDF>
      <cc:Work
         rdf:about="">
        <dc:format>image/svg+xml</dc:format>
        <dc:type
           rdf:resource="http://purl.org/dc/dcmitype/StillImage" />
        <dc:title></dc:title>
      </cc:Work>
    </rdf:RDF>
  </metadata>
  <g
     inkscape:label="Layer 1"
     inkscape:groupmode="layer"
     id="layer1">
    <path
       style="fill:#000000"
       d="M 302.72852 473.74805 C 301.86363 473.73415 300.99724 473.735 300.13281 473.75 C 291.24154 473.90335 282.61498 475.57047 279.17383 478.47852 C 276.81903 480.46853 275.12026 485.88082 274.41016 493.6543 L 273.99805 498.14844 L 271.83203 498.39258 C 270.64044 498.52779 269.46655 498.80078 269.22266 498.99805 C 268.93793 499.22835 268.7793 500.32683 268.7793 502.06641 C 268.7793 504.39142 268.67724 504.8385 268.06836 505.21875 C 266.98829 505.89326 267.16508 508.84766 268.28516 508.84766 C 268.65946 508.84766 268.7793 509.43676 268.7793 511.27734 L 268.7793 513.70703 L 266.64062 515.56641 C 265.46481 516.58911 264.18779 518.04404 263.80273 518.79883 C 262.53622 521.28137 263.03024 524.49739 265.06445 527.01953 C 265.73721 527.85367 266.88713 529.47904 267.62109 530.63086 C 268.35506 531.78267 269.69294 533.70169 270.5918 534.89648 C 271.94416 536.69408 272.26925 537.43611 272.48633 539.18945 C 273.56458 547.89897 278.40358 552.34512 287.22656 552.74023 C 291.52608 552.93277 291.83789 553.13478 291.83789 555.7168 L 291.83789 557.39844 L 289.79688 557.82031 C 286.43093 558.51849 280.90173 560.58707 276.81641 562.67383 C 272.07087 565.09783 268.10159 567.99411 264.1875 571.89258 L 261.19141 574.87695 L 259.85156 574.27344 C 259.11462 573.94112 258.26488 573.39423 257.96289 573.06055 C 257.46228 572.50738 257.52447 572.27204 258.66211 570.38281 C 261.51972 565.63727 262.37655 560.77713 261.02734 556.9668 C 260.05273 554.2144 257.9653 551.51361 255.33398 549.60352 C 253.80883 548.49639 253.07262 547.69001 252.78516 546.80664 C 252.56294 546.12375 251.60239 544.06342 250.64844 542.23047 C 249.69449 540.39751 248.74918 538.29092 248.54883 537.54688 C 248.05688 535.71992 246.1725 533.32575 244.46289 532.35742 C 242.57735 531.28944 240.33944 531.32658 237.24219 532.47461 L 234.75586 533.39648 L 232.78906 532.26953 C 231.27273 531.40197 230.82031 530.95276 230.82031 530.30469 C 230.82031 528.89409 228.38594 527.74296 227.42773 528.70117 C 227.20704 528.92186 226.45424 528.61327 225.31641 527.83203 C 222.6026 525.96867 221.87585 525.91244 220.66016 527.47852 C 218.39335 530.39868 219.01274 530.30203 215.03516 528.36328 C 207.42907 524.65589 201.35723 523.53197 197.99805 525.20898 C 192.66377 527.87202 184.76358 538.30728 180.42188 548.42578 C 178.10353 553.82873 177.15132 557.34323 177.11328 560.64062 C 177.08638 562.97357 177.21168 563.51893 178.12305 565.07422 C 179.64673 567.67435 183.7186 571.51267 187.92773 574.31445 C 189.95947 575.66686 191.67247 576.80032 191.73438 576.83203 C 191.79628 576.86373 191.43645 577.69709 190.93555 578.68555 C 190.43466 579.67402 190.02539 580.80072 190.02539 581.1875 C 190.02539 581.98618 191.70415 583.37077 193.63672 584.16797 C 194.64843 584.58532 194.89969 584.86142 194.75977 585.39648 C 194.63796 585.86227 194.89257 586.33215 195.54297 586.84375 C 196.61047 587.68345 197.48298 587.80805 198.08594 587.20508 C 198.3795 586.91153 199.02807 587.13778 200.56641 588.07227 L 202.64844 589.33789 L 203.03711 592.02734 C 203.50688 595.28822 204.64188 597.18838 206.78711 598.30469 C 208.54768 599.22083 210.22031 599.267 218.05078 598.61719 C 224.92152 598.04703 224.55484 598.02324 227.98242 599.28711 C 230.66246 600.27529 231.33363 600.38551 234.01367 600.27344 C 236.45816 600.17121 237.42043 599.95436 239.09375 599.12695 C 241.55182 597.9115 244.63615 594.73425 246.42969 591.57227 C 247.11258 590.36837 247.89633 589.38072 248.17188 589.37891 C 248.71248 589.37491 251.75 591.05938 251.75 591.36328 C 251.75 591.46467 251.35361 592.93375 250.86719 594.62891 C 249.04536 600.97795 248.41294 609.50062 249.29492 615.8418 C 249.61538 618.14579 250.6386 622.57975 251.58984 625.79102 C 251.77655 626.42134 251.54024 626.717 250.24414 627.47656 C 249.37991 627.98303 248.44738 628.39634 248.17188 628.39453 C 247.89633 628.39253 247.11258 627.40508 246.42969 626.20117 C 244.63435 623.03605 241.55168 619.86112 239.09375 618.64844 C 237.49149 617.85794 236.38875 617.59589 234.16992 617.47461 C 231.61278 617.33484 230.97862 617.44041 228.14062 618.4707 C 224.54396 619.77641 224.94188 619.74951 218.05078 619.16211 C 210.29372 618.50092 208.55632 618.54616 206.78711 619.4668 C 204.65008 620.57884 203.53509 622.44876 203.01953 625.7832 L 202.59375 628.54297 L 200.53125 629.74805 C 199.02953 630.62554 198.36281 630.84717 198.07812 630.5625 C 197.48164 629.966 196.60674 630.09292 195.54297 630.92969 C 194.891 631.44252 194.63727 631.9105 194.75977 632.37891 C 194.90239 632.92434 194.62161 633.21385 193.43164 633.74023 C 191.34538 634.66309 190.02539 635.76796 190.02539 636.59375 C 190.02539 636.9763 190.43466 638.09943 190.93555 639.08789 C 191.43645 640.07636 191.79626 640.9097 191.73438 640.94141 C 191.67247 640.97311 189.95947 642.10462 187.92773 643.45703 C 183.7186 646.2588 179.64673 650.09714 178.12305 652.69727 C 177.21165 654.25256 177.08633 654.79792 177.11328 657.13086 C 177.15088 660.39072 178.0799 663.8579 180.35547 669.22461 C 184.59671 679.22716 192.81587 690.0929 198.05859 692.63086 C 199.4576 693.30811 200.07107 693.38739 202.74023 693.22852 C 206.39269 693.01113 210.21506 691.82406 215.15625 689.37305 C 218.99866 687.46708 218.38537 687.36447 220.66016 690.29492 C 221.87585 691.86099 222.6026 691.80477 225.31641 689.94141 C 226.45424 689.16015 227.20704 688.84962 227.42773 689.07031 C 228.38594 690.02852 230.82031 688.87935 230.82031 687.46875 C 230.82031 686.82068 231.27273 686.37146 232.78906 685.50391 L 234.75586 684.37695 L 237.24219 685.29883 C 240.33944 686.44687 242.57735 686.48204 244.46289 685.41406 C 246.0457 684.51755 248.09499 682.03018 248.42383 680.60547 C 248.54414 680.08426 249.48118 677.98224 250.50586 675.93359 C 251.53054 673.88493 252.5572 671.64968 252.78906 670.9668 C 253.08344 670.09983 253.85301 669.25687 255.33984 668.17383 C 257.96038 666.265 260.05535 663.55162 261.02734 660.80664 C 262.36568 657.027 261.51695 652.13318 258.71875 647.48633 C 257.34033 645.19721 257.44751 644.72679 259.5957 643.63086 L 261.01758 642.90625 L 264.85742 646.58398 C 272.15021 653.57223 280.37588 658.0695 289.97461 660.31445 L 291.83789 660.75 L 291.83789 662.24414 C 291.83789 664.62195 291.47375 664.84104 287.22656 665.03125 C 278.40358 665.42635 273.56458 669.87447 272.48633 678.58398 C 272.26925 680.33733 271.94416 681.07935 270.5918 682.87695 C 269.69294 684.07174 268.35506 685.99077 267.62109 687.14258 C 266.88713 688.29439 265.73721 689.91976 265.06445 690.75391 C 263.09968 693.18996 262.54301 696.46335 263.68555 698.87109 C 264.0062 699.5468 265.2832 700.99616 266.52344 702.0918 L 268.7793 704.08398 L 268.7793 706.50586 C 268.7793 708.33806 268.65926 708.92383 268.28516 708.92383 C 267.16508 708.92383 266.98829 711.88018 268.06836 712.55469 C 268.67724 712.93494 268.7793 713.38203 268.7793 715.70703 C 268.7793 717.44661 268.93793 718.54509 269.22266 718.77539 C 269.46655 718.97266 270.64045 719.2437 271.83203 719.37891 L 273.99805 719.625 L 274.41016 724.11914 C 275.13851 732.09246 276.83069 737.35259 279.33398 739.41602 C 281.69933 741.36572 286.78132 742.93082 293.14062 743.66992 C 301.4706 744.63801 313.31623 743.64842 319.04297 741.50586 C 324.55455 739.44372 326.76192 735.08106 327.73242 724.33594 L 328.16016 719.62109 L 330.30664 719.37695 C 331.48829 719.24288 332.6565 718.97266 332.90039 718.77539 C 333.18512 718.54509 333.3418 717.44661 333.3418 715.70703 C 333.3418 713.38202 333.44385 712.93494 334.05273 712.55469 C 335.13279 711.88018 334.95797 708.92383 333.83789 708.92383 C 333.46429 708.92383 333.34165 708.34159 333.3418 706.53125 L 333.34375 704.13672 L 335.69336 702.03516 C 336.98546 700.87969 338.26063 699.40671 338.5293 698.76367 C 339.6548 696.06998 338.84194 692.59345 336.45703 689.89648 C 335.79053 689.14277 334.72054 687.64928 334.07812 686.57617 C 333.43572 685.50307 332.24935 683.74693 331.44141 682.67383 C 330.20295 681.02891 329.91009 680.30556 329.57227 678.0625 C 328.26456 669.37979 322.97559 664.9375 313.94727 664.9375 C 310.62095 664.9375 310.14952 664.57848 310.35156 662.20312 L 310.46094 660.91992 L 314.25195 659.93359 C 323.57186 657.50813 331.06149 653.31601 337.85742 646.72266 C 341.42818 643.25833 341.50048 643.20975 342.53125 643.63672 C 343.10718 643.87527 343.83664 644.35448 344.15039 644.70117 C 344.67938 645.2857 344.62752 645.48565 343.45898 647.44727 C 338.62393 655.56391 339.80972 662.94762 346.77734 668.12891 C 348.27995 669.24628 349.04626 670.09773 349.33203 670.9668 C 349.55658 671.64968 350.50673 673.68234 351.44336 675.48242 C 352.38001 677.28249 353.39951 679.52133 353.71094 680.45898 C 354.4339 682.63559 356.07109 684.62122 357.92383 685.56641 C 359.73317 686.48947 362.75471 686.32373 365.51367 685.15234 L 367.35547 684.37109 L 369.32812 685.5 C 370.8494 686.37039 371.30078 686.82039 371.30078 687.46875 C 371.30078 688.87935 373.73516 690.02852 374.69336 689.07031 C 374.91405 688.84962 375.66687 689.16021 376.80469 689.94141 C 379.51851 691.80478 380.24525 691.86099 381.46094 690.29492 C 383.72775 687.37475 383.10837 687.4714 387.08594 689.41016 C 394.64957 693.09684 400.72521 694.23029 404.17188 692.59766 C 406.84238 691.33268 412.14224 685.75725 415.63086 680.54492 C 422.00881 671.01569 426.19117 659.39706 424.91016 654.76953 C 424.00603 651.50343 419.88279 647.22335 413.51172 642.93945 L 410.4043 640.85156 L 411.23828 639.14648 C 411.69736 638.20955 412.07985 637.09118 412.08594 636.66211 C 412.09844 635.78334 410.5207 634.44467 408.48633 633.60547 C 407.47462 633.18812 407.2214 632.91202 407.36133 632.37695 C 407.48314 631.91117 407.22851 631.44129 406.57812 630.92969 C 405.50892 630.08865 404.63915 629.96632 404.0332 630.57227 C 403.73555 630.86992 403.14848 630.67662 401.74609 629.82031 C 400.70795 629.18642 399.80133 628.61653 399.73242 628.55469 C 399.66352 628.49289 399.39447 627.21816 399.13477 625.72266 C 398.56342 622.4325 397.42171 620.55319 395.33398 619.4668 C 393.56478 618.54616 391.82737 618.50091 384.07031 619.16211 C 377.28096 619.74083 377.59839 619.76015 374.13867 618.48828 C 371.53788 617.53215 370.7324 617.39368 368.27734 617.47852 C 365.89905 617.56072 365.04282 617.76776 363.07617 618.73633 C 360.27114 620.11781 357.4812 622.96369 355.75977 626.19531 C 355.09194 627.44904 354.34908 628.39648 354.03516 628.39648 C 353.73173 628.39648 352.87773 628.05796 352.13867 627.64258 L 350.79492 626.88672 L 351.48047 624.89258 C 353.1548 620.02607 353.70635 616.12612 353.7207 609.06445 C 353.7351 601.97393 353.19718 598.22038 351.41992 593.05469 C 350.6656 590.86222 350.63625 590.94267 352.57031 589.89453 C 354.12724 589.05078 354.52561 589.26261 355.75977 591.58398 C 357.39306 594.65603 360.50086 597.87697 363.02734 599.11719 C 366.65592 600.89841 371.2463 600.75316 375.91016 598.70703 C 377.04172 598.21059 378.15713 597.94501 378.57031 598.07227 C 379.46501 598.34785 388.44434 599.03852 391.52148 599.06836 C 395.94841 599.11126 398.28235 596.95955 399.13477 592.05078 C 399.39447 590.55528 399.66349 589.28059 399.73242 589.21875 C 399.80132 589.15695 400.70796 588.58702 401.74609 587.95312 C 403.14849 587.09681 403.73555 586.90353 404.0332 587.20117 C 404.63915 587.80712 405.50891 587.68479 406.57812 586.84375 C 407.22517 586.33479 407.48363 585.86063 407.36328 585.40039 C 407.22073 584.85529 407.52284 584.57003 408.8418 584.00586 C 410.89129 583.12922 412.10053 582.03461 412.08594 581.06641 C 412.07994 580.66143 411.6986 579.56437 411.24023 578.62891 L 410.4082 576.92773 L 413.36523 574.96094 C 419.64474 570.78247 424.00603 566.27075 424.90234 563.03125 C 425.78182 559.85249 424.00933 552.90125 420.44727 545.56445 C 416.09858 536.60741 408.72926 527.40076 404.125 525.17188 C 402.65142 524.45853 402.08789 524.38445 399.38086 524.55273 C 395.75061 524.77841 392.18765 525.88951 387.08594 528.38867 C 383.10233 530.34011 383.76642 530.44849 381.46094 527.47852 C 380.24525 525.91244 379.51851 525.96867 376.80469 527.83203 C 375.66687 528.61329 374.91405 528.92187 374.69336 528.70117 C 373.72488 527.73268 371.41698 528.84204 371.23438 530.36328 C 371.14958 531.06962 370.66394 531.55247 369.22852 532.36133 L 367.33398 533.42969 L 365.32617 532.5957 C 362.4878 531.41789 359.75042 531.27705 357.91602 532.21289 C 356.07188 533.1537 354.43275 535.13935 353.71094 537.3125 C 353.39951 538.25014 352.38001 540.49094 351.44336 542.29102 C 350.50673 544.0911 349.55658 546.12375 349.33203 546.80664 C 349.04831 547.66948 348.28167 548.52759 346.81836 549.61914 C 344.26914 551.52077 342.82956 553.25414 341.56641 555.94922 C 340.76158 557.66642 340.61673 558.44712 340.62891 560.99609 C 340.64521 564.41036 341.37939 566.83398 343.44922 570.30859 C 344.13671 571.46271 344.6056 572.55943 344.49023 572.74609 C 344.37487 572.93276 343.63604 573.49182 342.84961 573.98828 L 341.41992 574.89062 L 338.35742 571.87305 C 334.70504 568.27398 333.97108 567.6647 330.50391 565.34766 C 325.51549 562.01399 318.28308 558.90647 312.94531 557.80469 C 310.56654 557.31368 310.29684 557.06864 310.28906 555.38477 C 310.27856 553.11374 310.67772 552.83594 313.94727 552.83594 C 322.99656 552.83594 328.24696 548.42651 329.57617 539.71094 C 329.92732 537.4085 330.20704 536.74933 331.64648 534.81641 C 332.56132 533.58794 333.78771 531.74815 334.37109 530.72852 C 334.95445 529.7089 335.86005 528.47953 336.38477 527.99609 C 338.62769 525.92954 339.64274 521.67461 338.5293 519.00977 C 338.26076 518.36706 336.9857 516.90533 335.69336 515.76367 L 333.3418 513.6875 L 333.3418 511.26758 C 333.3418 509.43538 333.46184 508.84766 333.83594 508.84766 C 334.95602 508.84766 335.13279 505.89326 334.05273 505.21875 C 333.44385 504.8385 333.3418 504.39142 333.3418 502.06641 C 333.3418 500.32683 333.18512 499.22835 332.90039 498.99805 C 332.6565 498.80078 331.48829 498.52859 330.30664 498.39453 L 328.16016 498.15234 L 327.73242 493.4375 C 326.76192 482.69238 324.55455 478.32973 319.04297 476.26758 C 314.73836 474.65702 308.78271 473.84567 302.72852 473.74805 z M 301.125 477.32617 A 6.3107834 6.3107834 0 0 1 307.43555 483.63672 A 6.3107834 6.3107834 0 0 1 301.125 489.94922 A 6.3107834 6.3107834 0 0 1 294.81445 483.63672 A 6.3107834 6.3107834 0 0 1 301.125 477.32617 z M 301.06055 492.6582 C 308.0418 492.6582 321.63773 493.75128 324.20703 494.51953 C 324.67988 494.66091 324.82814 495.08942 324.82812 496.31641 C 324.82812 497.80901 324.76892 497.91351 324.0293 497.73047 C 319.55279 496.62256 309.38697 495.73078 301.1875 495.72656 C 293.63357 495.72256 289.46509 496.00795 282.61328 497 C 280.56462 497.29662 278.5308 497.62762 278.0918 497.73438 C 277.35276 497.91409 277.29297 497.80798 277.29297 496.31641 C 277.29297 495.08942 277.4412 494.66091 277.91406 494.51953 C 280.48336 493.75128 294.07929 492.6582 301.06055 492.6582 z M 296.46875 498.45703 C 297.9764 498.45903 298.63481 498.86354 298.51367 499.6875 C 298.43067 500.25234 297.31082 501.08197 294.32031 502.79883 C 292.07654 504.08699 288.76308 506.13081 286.95703 507.3418 C 283.44563 509.69626 282.51945 510.06356 281.32227 509.56836 C 280.27025 509.1332 278.75687 505.87211 278.28516 503.02539 C 277.71266 499.57049 277.58452 499.63666 285.67188 499.22266 C 289.35571 499.03408 293.40756 498.74805 294.67578 498.58789 C 295.36968 498.50029 295.96621 498.45631 296.46875 498.45703 z M 305.64648 498.45703 C 306.14971 498.45643 306.74743 498.49973 307.44531 498.58789 C 308.71353 498.74805 312.75164 499.03307 316.41797 499.2207 C 320.9326 499.45175 323.26313 499.71209 323.64062 500.02539 C 324.07596 500.3867 324.14993 500.89514 323.97852 502.35352 C 323.72402 504.51899 322.57314 507.79403 321.70508 508.81836 C 320.4062 510.35107 319.64626 510.13939 314.36328 506.77539 C 311.63173 505.03605 308.11947 502.91138 306.55859 502.05273 C 304.50327 500.92208 303.69142 500.27336 303.60938 499.70312 C 303.48885 498.86534 304.13679 498.4593 305.64648 498.45703 z M 275.62891 506.54102 L 276.04297 508.31445 C 276.57675 510.60525 277.45758 512.26045 278.78906 513.47656 C 279.81165 514.41056 279.82361 514.46072 279.11523 514.68555 C 278.70884 514.81452 277.81332 515.57673 277.125 516.38086 C 276.13353 517.53918 275.875 517.69711 275.875 517.14062 C 275.875 516.75432 275.71938 516.28579 275.53125 516.09766 C 275.0173 515.58371 274.95909 514.01492 275.31055 510.08984 L 275.62891 506.54102 z M 326.4668 506.91211 L 326.88867 510.75781 C 327.24082 513.98302 327.22487 514.78356 326.80078 515.7168 C 326.52271 516.32881 326.24562 517.11936 326.18359 517.47266 C 326.09769 517.96203 325.91467 517.82138 325.41406 516.88672 C 325.05266 516.21195 324.21636 515.37091 323.55664 515.01562 L 322.35742 514.36914 L 323.37891 513.43555 C 324.60458 512.31607 325.50917 510.65269 326.06055 508.50195 L 326.4668 506.91211 z M 300.9375 512.04102 C 302.81701 512.04102 307.43029 515.4085 309.54102 518.32227 C 310.7096 519.93545 313.98943 522.78345 316.92188 524.73047 C 317.95965 525.41953 318.74125 526.04976 318.66016 526.13086 C 318.15907 526.63194 312.1943 522.86332 308.1875 519.51562 C 305.31323 517.11416 304.39686 516.56088 302.38281 516.00781 C 300.47837 515.48485 297.45686 516.56431 295.03125 518.63477 C 291.60566 521.55881 289.10204 523.36044 286.4668 524.79688 C 285.03104 525.57948 283.70294 526.2216 283.51758 526.22461 C 283.06683 526.23161 283.31452 526.03215 286.79688 523.56641 C 288.41462 522.42094 290.46649 520.67661 291.35547 519.68945 C 295.74548 514.81455 299.21908 512.04102 300.9375 512.04102 z M 388.08789 531.07031 L 389.26562 532.46289 C 394.13826 538.22386 401.15601 549.23795 405.88867 558.55273 C 408.5216 563.73484 411.74219 571.17227 411.74219 572.07227 C 411.74219 572.33462 411.2776 572.82347 410.71094 573.1582 C 410.14428 573.49293 409.54586 573.76339 409.38086 573.75977 C 409.21585 573.75577 408.45807 572.11919 407.69727 570.12305 C 405.99876 565.66654 403.30375 559.73812 401.50391 556.50195 C 396.61643 547.71405 393.07411 542.30743 388.36133 536.43359 C 387.03318 534.77823 385.84361 533.25597 385.7168 533.05078 C 385.58999 532.8456 386.0718 532.31514 386.78711 531.87305 L 388.08789 531.07031 z M 214.03906 531.07227 L 215.33594 531.87109 C 216.04878 532.31164 216.63086 532.73118 216.63086 532.80078 C 216.63086 532.87038 215.20755 534.70427 213.4668 536.87695 C 206.01148 546.18214 198.98089 558.43064 194.58594 569.77344 C 193.73584 571.96745 192.88066 573.7493 192.68555 573.73242 C 192.02753 573.67562 190.38147 572.52906 190.38086 572.12695 C 190.37886 570.83764 196.11933 558.26936 198.73633 553.83398 C 199.46336 552.60178 200.93745 550.07817 202.01172 548.22461 C 205.14611 542.81651 209.3304 536.78034 213.18359 532.10938 L 214.03906 531.07227 z M 298.86914 531.60938 C 299.19518 531.62328 299.50136 531.90303 299.85156 532.4375 C 300.17116 532.92527 300.73046 533.32422 301.09375 533.32422 C 301.45703 533.32422 302.01438 532.92527 302.33398 532.4375 C 303.10748 531.25699 303.53584 531.31783 304.69727 532.77344 C 305.55778 533.85191 305.67188 534.29799 305.67188 536.54883 C 305.67188 538.44729 305.81438 539.20394 306.22461 539.50391 C 306.71692 539.86389 306.67695 540.21399 305.86719 542.77734 C 304.97377 545.60553 304.94247 545.65267 303.63281 545.86914 C 302.23332 546.10048 299.7587 546.08832 298.16016 545.84375 C 297.35247 545.72021 297.09938 545.37347 296.47461 543.52344 C 295.68626 541.18903 295.51839 539.35547 296.09375 539.35547 C 296.29739 539.35547 296.44922 538.26812 296.44922 536.80273 C 296.44922 534.62233 296.58609 534.05289 297.38477 532.90039 C 297.99928 532.01365 298.44995 531.5915 298.86914 531.60938 z M 383.64844 534.79688 C 383.93067 534.79287 384.17477 534.93501 384.49023 535.1875 C 384.92132 535.53253 391.08455 544.59961 394.71484 550.23047 C 395.11091 550.8448 395.14813 551.20956 394.86523 551.6582 C 394.16027 552.77613 394.03946 552.73959 389.7207 550.08203 C 388.43802 549.29273 385.40489 547.65768 382.98047 546.44727 C 380.55605 545.23685 378.29261 543.99914 377.95117 543.69727 C 376.40537 542.33067 377.89407 539.10085 381.4043 536.20312 C 382.60055 535.21564 383.17807 534.80322 383.64844 534.79688 z M 218.41016 534.86914 C 220.00204 534.96654 223.80663 538.66693 224.74219 541.16406 C 225.39403 542.90391 224.62962 543.59443 218.60938 546.70508 C 215.50643 548.30837 212.15637 550.15485 211.16406 550.80859 C 208.86841 552.32096 208.39542 552.48693 207.62305 552.05469 C 206.78465 551.5855 207.09502 550.41534 208.57031 548.48047 C 209.19951 547.65527 211.45596 544.30885 213.58398 541.04492 C 215.71199 537.78099 217.75369 535.01567 218.12305 534.89844 C 218.20805 534.87154 218.30404 534.86264 218.41016 534.86914 z M 225.94336 536.16406 C 226.04136 536.16406 227.62054 536.85956 229.45508 537.71094 C 231.87097 538.83223 233.06282 539.61461 233.77539 540.54883 L 234.75977 541.83984 L 233.41016 541.83984 C 232.66857 541.84044 231.54427 542.1583 230.91016 542.54492 C 229.75784 543.24733 229.75586 543.24835 229.75586 542.5332 C 229.75586 541.28108 228.7931 539.44896 227.25586 537.78125 C 226.43569 536.89147 225.84533 536.16406 225.94336 536.16406 z M 375.74219 536.45117 C 376.09173 536.43507 375.64409 536.92836 374.75781 537.91406 C 373.72093 539.06732 373.0012 540.29589 372.67383 541.47266 C 372.20818 543.14652 372.13342 543.23108 371.58594 542.68359 C 371.25427 542.35193 370.18901 542.01675 369.14062 541.91602 C 367.67341 541.77504 367.39403 541.65375 367.81445 541.34375 C 368.10737 541.12777 368.5471 540.57695 368.79102 540.11914 C 369.06118 539.61207 370.29514 538.80111 371.95117 538.04297 C 374.24604 536.99238 375.39265 536.46727 375.74219 536.45117 z M 317.8457 537.9375 C 319.80681 537.9375 320.32643 538.07524 321.23047 538.83594 C 324.42807 541.52654 322.76561 546.81414 318.23633 548.35742 C 315.81307 549.18311 310.86376 549.11447 309.19531 548.23242 C 307.23904 547.1982 306.96718 546.69603 307.19141 544.52344 C 307.48361 541.6923 307.89125 541.13086 309.65234 541.13086 C 311.38917 541.13086 313.90899 539.99869 314.85742 538.79297 C 315.44624 538.04441 315.8199 537.9375 317.8457 537.9375 z M 284.50391 537.94141 C 286.35196 537.93641 286.68877 538.05595 287.68555 539.05273 C 289.07885 540.44603 290.68178 541.13086 292.55273 541.13086 C 293.87027 541.13087 294.04808 541.24036 294.51562 542.35938 C 295.20875 544.01833 295.18156 546.60351 294.46289 547.32227 C 294.15078 547.63438 293.33375 548.12495 292.64648 548.41211 C 291.87195 548.73573 290.30083 548.92487 288.51367 548.91016 C 283.86685 548.87196 281.3547 547.78414 280.05469 545.24414 C 279.05917 543.29907 279.03322 541.11263 279.98828 539.82617 C 281.04342 538.40487 282.13665 537.94743 284.50391 537.94141 z M 238.5957 551.7832 C 238.6583 551.7842 238.5374 551.94304 238.28906 552.25586 C 238.00641 552.61186 236.56904 553.60899 235.0957 554.47266 C 232.69041 555.88263 230.9714 556.62531 225.42188 558.6582 C 224.50059 558.99569 222.95907 559.9797 221.99805 560.84375 C 220.40091 562.27971 220.21677 562.61235 219.84961 564.7207 C 219.50438 566.7032 219.55026 567.56549 220.17969 570.85547 C 220.71719 573.66488 220.88467 575.76501 220.81055 578.74805 C 220.70615 582.94971 220.48521 582.6658 219.97266 577.67969 C 219.74145 575.43041 219.00374 572.53863 217.92578 569.6543 C 217.62751 568.85619 217.19444 566.85998 216.96484 565.21875 C 216.60533 562.64879 216.62636 562.04935 217.11133 560.88867 C 217.59628 559.72803 218.0485 559.36712 220.36914 558.29492 C 221.89936 557.58792 224.77836 556.69073 227.03125 556.21875 C 230.78022 555.43336 235.59168 553.65989 237.80469 552.24609 C 238.28738 551.93774 238.53306 551.78201 238.5957 551.7832 z M 364 552.22656 C 364.11197 552.16566 365.01053 552.56838 367.09375 553.55273 C 369.39555 554.64037 371.95564 555.55097 373.65625 555.88477 C 380.28825 557.18653 384.08589 558.83907 385.03906 560.83789 C 385.56307 561.93675 385.58018 562.42255 385.18945 565.125 C 384.947 566.80184 384.50017 568.83457 384.19531 569.64062 C 383.09858 572.54048 382.28698 576.10692 382.06445 579.00195 C 381.93979 580.62363 381.67999 582.04753 381.48828 582.16602 C 380.91905 582.51781 381.42298 572.87352 382.13672 569.75586 C 382.67112 567.42177 382.70745 566.64606 382.36719 564.81641 C 381.72959 561.38788 379.80954 559.71489 374.29883 557.78516 C 370.63098 556.50076 366.35104 554.31561 364.56055 552.8125 C 364.14937 552.46732 363.9328 552.26311 364 552.22656 z M 252.23633 556.07227 C 253.88314 556.09237 255.51823 557.15382 256.64453 559.25 C 257.34489 560.55338 257.45835 561.16824 257.31055 562.89453 C 257.07021 565.70164 255.38049 569.06405 253.2832 570.91016 C 251.01442 572.90721 249.79066 572.87921 247.57227 570.7832 L 245.91602 569.2207 L 246.70508 567.64062 C 247.56308 565.92264 247.77292 562.88736 247.11719 561.66211 C 246.81428 561.09612 246.94163 560.5976 247.76367 559.14258 C 248.93207 557.07447 250.58952 556.05212 252.23633 556.07227 z M 350.14453 556.10547 C 350.30764 556.10947 350.47092 556.12409 350.63281 556.15039 C 352.44908 556.44513 353.45196 557.25066 354.44531 559.21094 C 355.15977 560.62086 355.26418 561.14244 354.98047 561.88867 C 354.41098 563.38653 354.57161 565.52462 355.40039 567.45117 L 356.17383 569.24805 L 354.53516 570.79883 C 352.48834 572.73272 351.15169 572.85728 349.25391 571.29297 C 346.59235 569.09909 344.40963 564.18966 344.80078 561.27344 C 345.1851 558.40815 347.69783 556.04353 350.14453 556.10547 z M 397.21484 556.17383 C 397.42842 556.16983 397.68487 556.27576 397.98828 556.48633 C 398.32843 556.72239 400.48011 560.71435 402.76953 565.35547 C 406.12215 572.1519 406.8585 573.91061 406.55078 574.39844 C 406.34065 574.73158 405.14802 575.34671 403.90039 575.76562 C 399.5967 577.21069 396.98306 577.08645 396.21484 575.40039 C 395.95709 574.83471 395.93722 572.58563 396.1543 568.22852 C 396.32815 564.73762 396.43493 560.71944 396.39062 559.29883 C 396.32452 557.18119 396.5741 556.1847 397.21484 556.17383 z M 204.76758 556.27344 C 205.0118 556.29364 205.24921 556.4035 205.46094 556.61523 C 205.91269 557.06671 206.01425 557.69544 205.91016 559.36328 C 205.83596 560.55295 205.89296 564.45574 206.03711 568.0332 C 206.32709 575.22841 206.18985 575.98597 204.46875 576.58594 C 203.8812 576.79077 203.22454 576.93674 203.00977 576.91016 C 199.85345 576.51967 196.02679 575.15686 195.62695 574.2793 C 195.3472 573.66531 195.95926 572.19458 199.02344 566.10938 C 201.07847 562.02828 202.91933 558.26103 203.11523 557.73633 C 203.43105 556.89044 203.97474 556.37043 204.52148 556.2832 C 204.60348 556.2701 204.68617 556.26694 204.76758 556.27344 z M 296.44922 563.0918 L 296.44922 564.86523 C 296.44922 566.63874 296.44907 566.63836 295.11914 566.86133 C 293.47273 567.13733 289.61275 568.0689 289.45312 568.22852 C 289.38842 568.29322 289.49862 568.7791 289.69922 569.30664 C 290.31444 570.92478 290.14899 571.13907 287.49219 572.16211 C 283.06129 573.86829 279.56347 575.93737 275.07617 579.51172 L 274.10352 580.28906 L 273.00195 579.24414 L 271.89844 578.20117 L 269.51172 580.77148 C 268.19855 582.18604 267.05794 583.34007 266.97656 583.33398 C 266.89516 583.32798 266.22173 582.95059 265.48242 582.49609 L 264.14062 581.66992 L 265.52539 579.93555 C 267.44465 577.53238 271.69984 573.50341 274.45508 571.48047 C 279.73876 567.60114 287.12988 564.68091 295.11914 563.31836 L 296.44922 563.0918 z M 306.38086 563.11523 L 307.89062 563.33594 C 317.74579 564.7703 326.69673 569.2446 333.71484 576.24219 C 335.57857 578.10047 337.43644 580.09826 337.8418 580.68359 L 338.57812 581.74805 L 337.06836 582.68359 L 335.55664 583.61914 L 334.29883 581.97461 C 333.60739 581.06985 332.54779 579.85652 331.94336 579.2793 L 330.84375 578.23047 L 329.73633 579.33789 L 328.62891 580.44531 L 326.59766 578.75781 C 323.54806 576.21991 319.52809 573.83868 315.85156 572.39258 L 312.56055 571.09766 L 312.99414 569.60156 L 313.42773 568.10352 L 312.12109 567.76562 C 311.02756 567.48149 306.86263 566.67188 306.49414 566.67188 C 306.43244 566.67188 306.38086 565.87043 306.38086 564.89258 L 306.38086 563.11523 z M 237.76562 567.74219 C 239.25868 567.73819 239.86318 567.94809 241.3125 568.97852 C 242.27351 569.66177 243.11258 570.06069 243.17773 569.86523 C 243.43707 569.08721 244.31511 569.60727 246.22656 571.67188 C 248.53474 574.16499 248.53513 574.1137 246.30859 577.8457 C 244.66266 580.6046 244.48193 580.68404 241.43555 580.00586 C 238.64491 579.38462 238.26953 579.19959 238.26953 578.43359 C 238.26953 577.99885 237.85689 577.59237 237.11719 577.30078 C 235.09493 576.50361 233.81711 575.32016 233.30664 573.77344 C 232.76236 572.12423 233.05838 571.6552 234.64648 571.64453 C 235.69728 571.63753 235.98072 570.83401 235.41602 569.4707 C 234.83839 568.07621 235.28402 567.74966 237.76562 567.74219 z M 364.34766 567.74219 C 366.8386 567.74919 367.28314 568.07515 366.70508 569.4707 C 366.14037 570.83401 366.42574 571.63748 367.47656 571.64453 C 369.07157 571.65523 369.3611 572.12271 368.80859 573.79688 C 368.20885 575.6141 367.40808 576.40542 365.40625 577.16992 C 364.36166 577.56885 363.85563 577.98631 363.78125 578.50781 C 363.69425 579.11777 363.22426 579.37957 361.36719 579.85156 C 357.76948 580.76595 357.69393 580.74574 356.24219 578.55859 C 355.53118 577.48741 354.71082 576.0419 354.41992 575.3457 C 353.90662 574.11718 353.92162 574.04053 354.93555 572.76953 C 356.84072 570.38134 358.04749 569.42153 358.83008 569.66992 C 359.32632 569.82742 360.01871 569.56175 361.04492 568.81836 C 362.24879 567.94629 362.88885 567.73797 364.34766 567.74219 z M 301.40625 577.47266 C 304.28982 577.46866 307.17401 577.60971 307.4668 577.90234 C 307.77883 578.21421 307.4784 580.14291 306.22656 585.88477 C 305.31874 590.0486 304.54418 593.67391 304.50391 593.94141 C 304.46001 594.23324 305.02881 594.6062 305.92578 594.875 C 307.81745 595.44189 310.20974 596.84031 311.32227 598.03125 C 311.79529 598.53759 312.33593 598.95313 312.52344 598.95312 C 312.86914 598.95312 316.48926 595.7581 321.94531 590.63867 L 324.94727 587.82227 L 326.16211 589.21875 C 327.74057 591.03521 330.0109 594.85755 330.89844 597.19336 C 331.28449 598.20936 331.55016 599.09053 331.49023 599.15039 C 331.43033 599.21029 327.87173 600.37372 323.58203 601.73633 C 316.94587 603.84431 315.7972 604.31121 315.87695 604.86523 C 316.26251 607.54398 316.32297 610.73724 316.01367 612.07031 C 315.81119 612.94302 315.6961 613.70781 315.75781 613.76953 C 315.81951 613.83123 319.33803 614.98021 323.57617 616.32422 C 327.81431 617.66821 331.35909 618.84541 331.45312 618.93945 C 332.03395 619.52028 327.42213 627.93286 325.63867 629.54688 C 325.02134 630.10555 324.92361 630.08449 323.93164 629.17188 C 316.12754 621.99198 312.92886 619.17383 312.58398 619.17383 C 312.35549 619.17383 311.88043 619.49092 311.5293 619.87891 C 310.54223 620.96962 307.78503 622.61134 306.11523 623.10156 C 304.95222 623.44298 304.61222 623.71278 304.625 624.28516 C 304.634 624.69328 305.39899 628.41081 306.32422 632.54492 C 307.9719 639.90704 307.99165 640.06557 307.2832 640.28516 C 306.35539 640.57245 298.46655 640.78942 296.69531 640.57617 C 295.95276 640.48677 295.27057 640.21462 295.17773 639.97266 C 295.08483 639.7307 295.78721 635.97677 296.74023 631.62891 C 297.8859 626.4021 298.34069 623.68448 298.08203 623.60742 C 295.776 622.9205 294.01575 622.00727 292.24219 620.57812 L 290.12305 618.86914 L 283.97461 624.48438 C 279.11082 628.92584 277.72191 630.01539 277.33789 629.70117 C 275.65798 628.32662 270.81309 619.50332 271.41016 618.90625 C 271.52158 618.79482 275.07868 617.60728 279.31445 616.26562 C 283.55023 614.92399 287.0549 613.78885 287.10156 613.74219 C 287.14826 613.69549 287.02186 612.94302 286.82031 612.07031 C 286.50786 610.71702 286.56466 607.27208 286.94141 604.82422 C 287.03501 604.21634 286.10065 603.83522 279.15625 601.64648 C 274.81504 600.27821 271.26172 599.01034 271.26172 598.83008 C 271.26172 598.64982 271.95834 597.0481 272.80859 595.26953 C 274.42651 591.88514 277.11957 587.95508 277.82227 587.95508 C 278.04816 587.95508 278.62074 588.37223 279.09375 588.88086 C 279.56676 589.3895 282.22513 591.87669 285.00195 594.4082 L 290.05078 599.01172 L 291.5918 597.74805 C 293.13185 596.4861 296.71537 594.69727 297.70117 594.69727 C 298.45715 594.69727 298.3962 594.22685 296.57227 585.90039 C 295.27966 579.99945 295.01106 578.25463 295.3457 577.91992 C 295.63911 577.62645 298.52269 577.47676 301.40625 577.47266 z M 200.3125 579.97461 C 200.3125 579.92261 200.99109 580.11646 201.82031 580.4043 C 203.3208 580.92515 206.56153 580.88983 207.85156 580.33984 C 208.37238 580.11781 208.47266 580.26994 208.47266 581.27344 C 208.47266 581.93131 208.79104 583.06419 209.18164 583.79297 C 209.57224 584.52174 209.85186 585.09914 209.80273 585.07617 C 209.75363 585.05317 208.96177 584.90876 208.04297 584.75391 C 206.82037 584.54787 205.56115 583.88058 203.34375 582.26953 C 201.67734 581.0588 200.3125 580.02658 200.3125 579.97461 z M 393.94922 580.25195 C 394.03222 580.24995 394.13726 580.28219 394.26953 580.33789 C 395.41901 580.82234 398.45449 580.94044 399.85156 580.55469 C 400.61401 580.34417 401.28497 580.21856 401.34375 580.27734 C 401.40255 580.33614 400.17201 581.30114 398.60938 582.41992 C 396.50858 583.92401 395.31831 584.52464 394.04102 584.72656 L 392.3125 585 L 392.98047 583.90625 C 393.34718 583.30488 393.64787 582.19785 393.64844 581.44531 C 393.64904 580.57077 393.70004 580.25853 393.94922 580.25195 z M 239.26562 581.19531 C 240.44177 581.13161 242.91343 581.92319 243.86133 582.87109 C 244.63951 583.64926 244.72317 583.96961 244.54492 585.47461 C 244.14115 588.88381 240.98161 593.4231 238.09375 594.74219 C 236.03141 595.68421 233.26167 595.37959 231.74805 594.04492 C 230.71201 593.13137 230.04 591.22639 230.30664 589.95898 C 230.63632 588.39191 232.30529 585.82869 232.99609 585.82812 C 234.18666 585.82713 236.06583 584.75617 237.32422 583.36328 C 238.03979 582.57124 238.625 581.7629 238.625 581.56836 C 238.625 581.33095 238.8736 581.21654 239.26562 581.19531 z M 362.65625 581.24219 C 363.21702 581.25989 363.53074 581.47841 363.66406 581.89844 C 364.02007 583.02015 366.53721 585.04561 368.17383 585.52734 C 369.91766 586.04064 370.34489 586.45459 371.35352 588.61328 C 372.66728 591.425 371.32372 594.24909 368.31055 595.00781 C 366.20734 595.53741 365.70143 595.50597 364.0293 594.74219 C 361.18455 593.44278 358.16835 589.166 357.66406 585.71484 C 357.34053 583.50073 357.95241 582.54336 360.17188 581.78711 C 361.28863 581.4066 362.09549 581.22446 362.65625 581.24219 z M 259.39062 590.62891 C 259.57065 590.62291 259.80182 590.74605 260.16992 590.94531 C 262.22007 592.05507 262.18264 591.8567 261.00391 595.375 C 260.40269 597.16953 259.91016 598.70738 259.91016 598.79102 C 259.91016 598.87472 260.63225 599.12523 261.51562 599.34766 C 262.7366 599.65511 263.0793 599.89007 262.94727 600.32812 C 261.99446 603.48928 261.77658 611.31105 262.52148 615.55664 C 262.77165 616.98129 262.88481 618.19916 262.77344 618.26367 C 262.66207 618.32817 262.05374 618.49145 261.42188 618.62695 C 260.79001 618.76246 260.20101 618.98891 260.11328 619.13086 C 260.02558 619.27282 260.42282 620.78622 260.99609 622.49219 C 261.56936 624.19817 262.03906 625.66677 262.03906 625.75781 C 262.03906 625.84881 261.51888 626.24032 260.88477 626.62695 C 260.25066 627.01357 259.54076 627.33143 259.30664 627.33203 C 258.69946 627.33403 256.47294 620.19707 255.79883 616.08789 C 255.15718 612.17657 255.26623 603.77323 256.00195 600.37109 C 256.61757 597.52436 257.72273 593.82634 258.50391 592.00391 C 258.9296 591.01081 259.09059 590.63917 259.39062 590.62891 z M 343.375 590.72461 C 343.9506 590.68421 344.20789 591.54171 345.17773 594.45117 C 346.91506 599.66308 347.35547 602.58297 347.35547 608.88477 C 347.35547 615.46387 346.99083 617.87156 345.14453 623.51953 C 344.45889 625.61697 343.71824 627.32303 343.49805 627.31055 C 342.86461 627.27465 340.79297 626.1692 340.79297 625.86719 C 340.79297 625.71687 341.26071 624.19817 341.83398 622.49219 C 342.40725 620.78622 342.80526 619.27476 342.71875 619.13477 C 342.63225 618.99478 341.91954 618.77159 341.13281 618.63867 C 340.0233 618.45122 339.74144 618.26419 339.87891 617.80859 C 341.04625 613.93978 341.04793 604.19562 339.88281 600.32812 C 339.7509 599.89049 340.09197 599.65643 341.30273 599.35156 C 342.2858 599.10401 342.8446 598.77996 342.75977 598.50781 C 342.68407 598.26507 342.19512 596.73923 341.67188 595.11719 C 341.14862 593.49515 340.77483 592.12805 340.84375 592.07812 C 340.91265 592.02823 341.56775 591.64591 342.29688 591.22852 C 342.78733 590.94776 343.11337 590.74296 343.375 590.72461 z M 301.50391 596.94336 C 299.72901 596.92036 297.96617 597.20815 296.6543 597.81055 C 293.99591 599.03124 292.09422 600.79022 290.75 603.26953 C 289.59324 605.40312 289.53125 605.6959 289.53125 609.06445 C 289.53125 612.43302 289.59325 612.72383 290.75 614.85742 C 292.35657 617.82065 294.66726 619.71427 298.04492 620.83203 C 298.92266 621.12247 300.5019 621.24759 302.18555 621.16016 C 304.41011 621.04464 305.30297 620.80721 307.07031 619.86523 C 308.25965 619.23132 309.80611 618.0775 310.50781 617.30078 C 313.8878 613.55954 314.67102 608.27526 312.49805 603.86133 C 311.15225 601.12762 309.23019 599.25246 306.42578 597.9375 C 305.06738 597.30056 303.2788 596.96633 301.50391 596.94336 z M 236.05859 622.44336 C 236.55449 622.46906 237.0167 622.60365 237.69141 622.86133 C 240.71437 624.0158 244.11928 628.70489 244.54492 632.29883 C 244.72317 633.80383 244.63952 634.12221 243.86133 634.90039 C 243.37323 635.38849 242.35424 635.95985 241.59766 636.16992 C 239.57176 636.73244 238.70353 636.65168 238.45703 635.875 C 238.09258 634.72671 235.51282 632.67267 233.88867 632.23828 C 230.49226 631.32988 229.14616 626.5003 231.57031 623.91992 C 232.01191 623.44986 233.1373 622.92736 234.22656 622.68359 C 235.03486 622.5027 235.56269 622.41768 236.05859 622.44336 z M 366.70898 622.49609 C 369.2418 622.53759 371.41725 624.11337 371.86133 626.48047 C 372.04735 627.4721 371.88364 628.14702 371.07812 629.69531 C 370.15281 631.47388 369.88395 631.71268 368.17188 632.28516 C 366.27382 632.91983 364.03093 634.72121 363.65234 635.91406 C 363.27 637.11871 359.32858 636.28117 358.0625 634.72656 C 355.93878 632.11884 360.64765 623.87005 364.91602 622.7207 C 365.52161 622.55763 366.12447 622.48652 366.70898 622.49609 z M 209.83008 632.76953 L 209.15039 634.03711 C 208.77681 634.73412 208.47266 635.83619 208.47266 636.48633 C 208.47266 637.56162 208.39996 637.64267 207.67383 637.37891 C 207.23483 637.21942 205.75836 637.10158 204.39258 637.11719 C 203.02681 637.13279 201.55033 637.33711 201.11133 637.57227 C 199.57228 638.39668 200.33898 637.68349 203.32812 635.51172 C 205.62466 633.84317 206.76095 633.25468 208.08789 633.04492 L 209.83008 632.76953 z M 392.3125 632.77344 L 394.04492 633.04688 C 395.35879 633.25458 396.50442 633.85094 398.79297 635.51367 C 400.45181 636.71891 401.80859 637.76503 401.80859 637.83984 C 401.80859 637.91464 401.76755 637.95826 401.71875 637.93555 C 399.52073 636.9107 396.0453 636.67464 394.26953 637.43164 C 393.73995 637.65739 393.64965 637.49524 393.64844 636.32812 C 393.64784 635.5756 393.34718 634.46857 392.98047 633.86719 L 392.3125 632.77344 z M 335.64844 634.47852 L 337.1543 635.37695 L 338.66211 636.27344 L 337.99023 637.21289 C 336.46041 639.35449 332.70652 643.12282 330.01172 645.22266 C 324.4813 649.53208 318.44349 652.43263 311.88086 653.93164 C 310.31998 654.28817 308.44456 654.66517 307.71289 654.76953 L 306.38086 654.95898 L 306.38086 653.21484 C 306.38086 651.69075 306.48242 651.4502 307.17969 651.30664 C 313.70403 649.96338 313.52262 650.02468 313.24805 649.21094 C 312.60276 647.29848 312.85188 646.77596 314.71875 646.13477 C 318.6565 644.78231 323.37917 642.06847 326.81055 639.18359 L 328.61328 637.66797 L 329.75195 638.79688 L 330.89062 639.92773 L 332.39062 638.33008 C 333.21555 637.45208 334.28602 636.22756 334.76953 635.60742 L 335.64844 634.47852 z M 267.18164 634.49414 L 269.42383 637.12109 C 270.65563 638.56643 271.78154 639.75 271.92773 639.75 C 272.07392 639.75 272.64023 639.28402 273.18555 638.71484 L 274.17578 637.67969 L 276.99219 639.90625 C 279.96362 642.25587 285.45616 645.29818 288.51562 646.28711 L 290.33984 646.875 L 289.87109 648.43164 L 289.40234 649.98828 L 292.12695 650.58008 C 293.62566 650.90545 295.21139 651.23828 295.65039 651.32031 C 296.35134 651.45131 296.44922 651.6846 296.44922 653.23633 C 296.44922 654.20816 296.32797 654.99014 296.18164 654.97266 C 287.22294 653.90076 278.71973 650.13523 271.43945 644.01758 C 268.86171 641.85149 264.25491 636.8041 264.40625 636.3125 C 264.44035 636.20182 265.07973 635.74785 265.82617 635.30273 L 267.18164 634.49414 z M 381.4375 635.60547 C 381.4528 635.59747 381.47098 635.59837 381.48828 635.60938 C 381.67983 635.72776 381.93411 637.14536 382.05273 638.76172 C 382.26275 641.62362 383.07159 645.16162 384.19531 648.13281 C 384.50016 648.93888 384.947 650.96964 385.18945 652.64648 C 385.58018 655.34892 385.56307 655.83863 385.03906 656.9375 C 384.15489 658.79162 379.44598 660.97398 375.04688 661.57031 C 374.08328 661.70093 372.16875 662.21222 370.79102 662.70703 C 369.4133 663.20184 367.16851 664.15252 365.80273 664.82031 L 363.31836 666.03516 L 364.56055 664.97656 C 366.31461 663.48137 370.58759 661.28634 374.22266 660.01367 C 378.2277 658.61147 379.00515 658.18719 380.62305 656.51562 C 382.52732 654.54823 382.97803 652.01316 382.125 648.08789 C 381.44547 644.96097 380.96346 635.86001 381.4375 635.60547 z M 220.64844 636.01367 C 220.77147 636.06287 220.83384 637.10463 220.85156 639.11133 C 220.87666 641.95414 220.66084 644.43432 220.16797 646.98828 C 218.67518 654.72378 220.20287 657.31818 227.82227 659.98633 C 231.45483 661.25837 236.00478 663.57566 237.66797 665 C 238.9904 666.13253 238.88509 666.26348 237.38281 665.35547 C 234.97234 663.89855 230.09424 662.0984 227.17578 661.58984 C 223.6977 660.98377 218.99976 659.17749 217.8125 657.99023 C 217.38404 657.56177 216.92903 656.65956 216.80273 655.98633 C 216.49536 654.3479 217.47466 648.95347 218.56055 646.29883 C 219.05283 645.0954 219.61149 642.68768 219.83789 640.80078 C 220.23072 637.52696 220.49026 635.95045 220.64844 636.01367 z M 244.41797 637.19141 L 245.07422 638.02734 C 245.97674 639.17936 247.72096 642.24727 248 643.17383 C 248.18063 643.77358 247.79864 644.40157 246.22656 646.09961 C 244.31511 648.1642 243.43708 648.68623 243.17773 647.9082 C 243.11263 647.71274 242.27351 648.11167 241.3125 648.79492 C 239.86318 649.82536 239.25867 650.03547 237.76562 650.03125 C 235.28403 650.02425 234.83839 649.69722 235.41602 648.30273 C 235.98072 646.93941 235.69728 646.13597 234.64648 646.12891 C 233.07521 646.11841 232.73641 645.62484 233.26953 644.11523 C 233.90947 642.30316 234.40983 641.79252 236.49805 640.81445 C 237.64544 640.27704 238.26953 639.7617 238.26953 639.35547 C 238.26953 638.51567 238.47537 638.42001 241.66797 637.75977 L 244.41797 637.19141 z M 357.72656 637.19531 L 360.4668 637.76172 C 363.65715 638.4215 363.85156 638.51439 363.85156 639.37305 C 363.85156 639.7716 364.29207 640.19206 365.00391 640.47266 C 366.99278 641.25667 368.30493 642.45679 368.79297 643.93555 C 369.35582 645.641 369.11511 646.13672 367.7207 646.13672 C 366.43453 646.13672 366.09787 646.83889 366.69531 648.28125 C 366.93891 648.86933 367.03991 649.45033 366.91797 649.57227 C 366.49503 649.99521 363.58637 650.26425 362.75586 649.95703 C 362.29674 649.78718 361.39487 649.24819 360.75195 648.75781 C 359.95468 648.14967 359.34862 647.94 358.8457 648.09961 C 358.0443 648.35397 356.8566 647.41127 354.92383 644.98828 L 353.86719 643.66406 L 354.97461 641.43945 C 355.58331 640.21676 356.45189 638.76319 356.9043 638.20703 L 357.72656 637.19531 z M 202.90625 641.02539 C 203.51031 641.00589 204.0327 641.05119 204.41016 641.17578 C 206.19199 641.76384 206.33128 642.49689 206.0293 649.74023 C 205.88015 653.3177 205.82676 657.00811 205.91016 657.93945 C 205.99356 658.87077 205.96746 660.009 205.85156 660.4707 C 205.59536 661.49146 204.83023 661.84311 204.0918 661.27734 C 203.79097 661.04685 201.68745 657.11534 199.41797 652.54297 C 196.06431 645.78626 195.35443 644.0935 195.62891 643.49805 C 196.13946 642.39044 200.28866 641.11003 202.90625 641.02539 z M 399.10547 641.03516 C 401.66593 641.11326 405.90388 642.34679 406.58203 643.42188 C 406.84916 643.84536 405.93381 646.00333 402.76953 652.41797 C 400.48011 657.05909 398.32843 661.0491 397.98828 661.28516 C 396.77394 662.12791 396.30209 661.29836 396.39258 658.47461 C 396.43808 657.054 396.32668 653.0458 396.14453 649.57031 C 395.77625 642.54099 395.91117 641.7927 397.66406 641.18164 C 398.01204 641.06034 398.5146 641.01714 399.10547 641.03516 z M 409.35156 643.97852 C 409.95302 644.05252 411.74219 645.26052 411.74219 645.67969 C 411.74219 646.59791 408.54748 653.98765 405.88867 659.2207 C 401.21754 668.41439 395.40609 677.64007 390.16602 684.18164 C 389.11105 685.49864 388.1478 686.57333 388.02344 686.57031 C 387.89909 686.56731 387.27081 686.22745 386.62891 685.81641 C 385.29025 684.95924 385.08599 685.44509 388.72852 680.84961 C 392.14124 676.54408 394.80095 672.75796 396.875 669.25586 C 397.87763 667.56288 399.24488 665.26607 399.91211 664.15234 C 401.94568 660.75789 405.16356 654.02174 407.16406 648.97266 C 408.20767 646.33867 409.11196 644.11048 409.17383 644.02148 C 409.20263 643.98008 409.26563 643.96802 409.35156 643.97852 z M 192.91992 644.00586 C 192.94952 644.00986 192.97058 644.02196 192.98438 644.03906 C 193.04927 644.11916 193.78623 645.93973 194.62109 648.08594 C 199.0514 659.47521 205.87529 671.37704 213.40234 680.83984 C 216.99536 685.35689 216.85976 685.02796 215.49609 685.85938 C 214.85232 686.25189 214.22772 686.57366 214.10742 686.57422 C 213.33702 686.57922 205.39968 675.40886 202.00781 669.54688 C 200.93531 667.69331 199.46336 665.1697 198.73633 663.9375 C 196.1115 659.48885 190.38086 646.93841 190.38086 645.63867 C 190.38086 645.25563 192.47596 643.94346 192.91992 644.00586 z M 351.61719 645.41797 C 352.52095 645.41597 353.42552 645.92619 354.53516 646.97461 L 356.17383 648.52344 L 355.40039 650.32031 C 354.56621 652.2594 354.41023 654.38661 354.99023 655.91211 C 355.29422 656.71168 355.1896 657.16103 354.34375 658.6582 C 353.73435 659.73686 352.85219 660.70466 352.12305 661.0957 C 350.84177 661.78286 349.59317 661.88663 348.4082 661.40625 C 347.14293 660.89332 345.10343 658.31458 344.83398 656.88672 C 344.27275 653.91271 346.64296 648.45392 349.41211 646.3418 C 350.21244 645.73135 350.91427 645.41998 351.61719 645.41797 z M 250.43945 645.42578 C 253.22228 645.42578 256.9466 650.55087 257.30664 654.87695 C 257.44845 656.5809 257.33014 657.23883 256.6543 658.53125 C 256.20113 659.39782 255.41873 660.40629 254.91406 660.77344 C 253.56856 661.75232 251.46424 661.91121 250.00781 661.14258 C 248.38682 660.2871 246.57262 657.12886 247.11719 656.11133 C 247.76712 654.89692 247.56095 651.96697 246.70117 650.19727 L 245.90625 648.5625 L 247.56641 646.99414 C 248.86284 645.76922 249.49264 645.42578 250.43945 645.42578 z M 393.9043 665.50781 C 394.08837 665.51581 394.23961 665.58121 394.41992 665.67773 C 395.3075 666.15275 395.23263 667.1678 394.22461 668.36719 C 393.76109 668.91871 391.37111 672.44529 388.91016 676.20117 C 385.87372 680.83538 384.23114 683.02734 383.80273 683.02734 C 382.67224 683.02734 378.79216 679.46902 377.73828 677.46484 C 377.13963 676.32637 377.24133 674.70373 377.95117 674.07617 C 378.29261 673.77432 380.55605 672.53659 382.98047 671.32617 C 385.40489 670.11576 388.43802 668.48072 389.7207 667.69141 C 392.50657 665.97713 393.35209 665.48372 393.9043 665.50781 z M 208.23633 665.52539 C 208.83781 665.50009 209.6452 665.94494 211.53711 667.19922 C 212.34535 667.73506 215.53698 669.48052 218.62891 671.07812 C 224.89138 674.31399 225.454 674.86337 224.59961 676.9082 C 223.90899 678.56111 222.93197 679.75823 220.83594 681.52148 C 219.85021 682.3507 218.85124 683.02734 218.61523 683.02734 C 217.79113 683.02734 217.06092 682.09686 212.92188 675.75586 C 210.62946 672.24386 208.46339 669.05234 208.10742 668.66211 C 207.0696 667.52443 206.86494 666.12716 207.67188 665.69531 C 207.85888 665.59523 208.03583 665.53382 208.23633 665.52539 z M 313.42773 668.85156 C 315.04104 668.83016 316.74895 669.00513 318.02734 669.38477 C 322.69281 670.77027 324.50673 676.18071 321.23047 678.9375 C 320.31489 679.70791 319.82483 679.83301 317.79492 679.81836 C 315.62303 679.80266 315.3424 679.71246 314.38477 678.70898 C 313.09011 677.35233 311.44738 676.64258 309.59766 676.64258 C 307.89636 676.64258 307.48109 676.0568 307.19141 673.25 C 306.9609 671.01653 307.28721 670.45948 309.39648 669.5 C 310.29448 669.09151 311.81442 668.87294 313.42773 668.85156 z M 289.80273 668.85352 C 291.29598 668.85752 291.89408 669.03248 292.92773 669.55664 C 293.79097 669.9944 294.61644 670.53037 294.75977 670.74805 C 295.19992 671.41643 295.05803 674.11399 294.51562 675.41211 C 294.04807 676.53112 293.87027 676.64258 292.55273 676.64258 C 290.6825 676.64258 289.08479 677.34238 287.78125 678.72852 C 286.81451 679.75649 286.56485 679.83594 284.34766 679.83594 C 282.30804 679.83594 281.80201 679.70438 280.89062 678.9375 C 279.46175 677.73517 278.91554 676.02929 279.39648 674.27148 C 280.42191 670.52362 282.66583 669.11666 287.96094 668.90039 C 288.70664 668.86999 289.30498 668.85222 289.80273 668.85352 z M 301.06445 671.73633 C 301.7658 671.73668 302.46946 671.77113 303.00391 671.83789 L 304.94727 672.08008 L 305.86133 674.97266 C 306.67709 677.555 306.71685 677.9096 306.22461 678.26953 C 305.81438 678.5695 305.67186 679.32615 305.67188 681.22461 C 305.67188 683.47545 305.55778 683.92154 304.69727 685 C 303.53584 686.45561 303.10748 686.51449 302.33398 685.33398 C 302.01438 684.8462 301.45703 684.44727 301.09375 684.44727 C 300.73046 684.44727 300.17116 684.8462 299.85156 685.33398 C 299.05111 686.55562 298.47724 686.44752 297.38477 684.87109 C 296.58609 683.71859 296.44922 683.15109 296.44922 680.9707 C 296.44922 679.50529 296.29739 678.41797 296.09375 678.41797 C 295.5185 678.41797 295.68666 676.58518 296.47461 674.25195 L 297.20898 672.07617 L 299.13477 671.83594 C 299.66445 671.76964 300.36309 671.73603 301.06445 671.73633 z M 372.21484 674.64648 C 372.32414 674.62478 372.36658 674.71168 372.36719 674.90234 C 372.37219 676.33118 373.26494 678.19812 374.71289 679.80859 C 375.60414 680.79988 376.19762 681.59617 376.0332 681.58008 C 375.86878 681.56398 374.26906 680.85791 372.47852 680.00977 C 370.46613 679.05653 369.05627 678.15341 368.78516 677.64453 C 368.54393 677.19175 368.10737 676.64371 367.81445 676.42773 C 367.39377 676.11754 367.66712 675.9987 369.11719 675.85938 C 370.17449 675.75778 371.25164 675.4109 371.6582 675.04297 C 371.92826 674.79857 372.10554 674.66815 372.21484 674.64648 z M 229.90039 674.70312 C 230.04461 674.70113 230.33414 674.87535 230.91016 675.22656 C 231.54427 675.61318 232.66857 675.93302 233.41016 675.93359 L 234.75977 675.93359 L 233.76562 677.23633 C 233.04336 678.18361 231.86833 678.95854 229.46484 680.07422 C 227.64629 680.91838 226.06958 681.60936 225.96094 681.60938 C 225.85231 681.60938 226.43569 680.88198 227.25586 679.99219 C 228.7931 678.32448 229.75586 676.49234 229.75586 675.24023 C 229.75586 674.88267 229.75616 674.70471 229.90039 674.70312 z M 318.50195 691.60156 C 318.57675 691.59756 318.62982 691.61052 318.66016 691.64062 C 318.74176 691.72222 317.95966 692.35392 316.92188 693.04297 C 313.98944 694.98999 310.7096 697.838 309.54102 699.45117 C 308.27063 701.20489 304.94591 704.10013 303.11523 705.04883 C 301.23221 706.02466 300.37539 705.90881 298.01172 704.35352 C 295.94858 702.99599 294.53165 701.66316 291.29883 698.04102 C 290.39715 697.03075 288.24093 695.20314 286.50586 693.97852 C 284.77078 692.75391 283.40774 691.69383 283.47852 691.62305 C 283.68433 691.41724 287.22751 693.2955 289.35547 694.73828 C 290.42935 695.46638 292.50619 697.06209 293.96875 698.28516 C 299.69822 703.07647 302.67328 703.06526 308.27148 698.22852 C 311.50543 695.4344 317.38036 691.6621 318.50195 691.60156 z M 326.15234 699.91797 C 326.21334 699.92857 326.23783 700.04822 326.24023 700.26758 C 326.24423 700.6766 326.4893 701.4968 326.78516 702.08984 C 327.25486 703.03139 327.26443 703.65605 326.85938 707.02148 C 326.44315 710.47961 326.36738 710.73108 326.11523 709.47266 C 325.73232 707.56161 324.61703 705.46713 323.38281 704.33984 L 322.35742 703.4043 L 323.53711 702.76758 C 324.18676 702.41772 325.06078 701.54524 325.47656 700.82812 C 325.8482 700.18714 326.05074 699.90032 326.15234 699.91797 z M 276.00781 700.32031 C 276.17112 700.33251 276.50533 700.66667 277.125 701.39062 C 277.81332 702.19476 278.70884 702.95696 279.11523 703.08594 C 279.82361 703.31077 279.81165 703.36288 278.78906 704.29688 C 278.20242 704.83268 277.43776 705.81294 277.08984 706.47656 C 276.74192 707.14019 276.27028 708.48147 276.04297 709.45703 L 275.62891 711.23047 L 275.31055 707.68359 C 274.95909 703.75851 275.0173 702.18974 275.53125 701.67578 C 275.71938 701.48765 275.875 701.01718 275.875 700.63086 C 275.875 700.42218 275.9098 700.313 276.00781 700.32031 z M 282.10742 708.01367 C 283.03224 707.97397 284.40109 708.78481 289.44336 712.01172 C 291.63845 713.41652 294.55024 715.17499 295.91602 715.91992 C 298.73922 717.45979 299.34523 718.58215 297.69141 719.21094 C 297.17741 719.40636 296.72746 719.54756 296.69141 719.52344 C 296.33679 719.28672 291.11956 718.83296 285.6875 718.56641 C 277.59546 718.16932 277.70847 718.22629 278.28516 714.74609 C 278.79959 711.64154 280.2632 708.64035 281.49805 708.1582 C 281.70396 708.0778 281.894 708.02283 282.10742 708.01367 z M 320.15039 708.10938 C 320.80535 708.07677 321.24579 708.3527 321.67188 708.87891 C 322.58076 710.00133 323.7227 713.24126 323.97852 715.41797 C 324.26127 717.82368 323.86984 718.1559 320.50391 718.35156 C 319.07762 718.43446 315.22702 718.67001 311.94531 718.87695 C 308.6636 719.0839 305.79083 719.31466 305.56055 719.38867 C 304.66865 719.67532 303.49096 718.88203 303.60742 718.07227 C 303.68992 717.49841 304.49749 716.85529 306.55859 715.72266 C 308.11947 714.86492 311.53708 712.79891 314.15234 711.13086 C 317.3698 709.07871 319.05878 708.1636 320.15039 708.10938 z M 277.73633 720.01758 C 277.78933 720.02358 277.8482 720.03734 277.91406 720.05664 C 278.2555 720.15644 280.29129 720.48362 282.4375 720.7832 C 291.926 722.10765 304.09415 722.47909 312.10938 721.68945 C 316.21934 721.28455 323.2558 720.33478 324.20703 720.05664 C 324.73262 719.90296 324.82814 720.11734 324.82812 721.45703 C 324.82812 722.56672 324.66352 723.10226 324.27344 723.25195 C 323.0637 723.71617 315.10325 724.57285 309.2207 724.87109 C 298.73349 725.4028 288.51206 725.01409 281.01758 723.79883 C 277.09411 723.16262 277.29297 723.28604 277.29297 721.48828 C 277.29297 720.29013 277.36537 719.97458 277.73633 720.01758 z "
       id="path5069" />
  </g>
</svg>
