<?xml version="1.0" encoding="UTF-8" standalone="no"?>
<!-- Created with Inkscape (http://www.inkscape.org/) -->

<svg
   xmlns:dc="http://purl.org/dc/elements/1.1/"
   xmlns:cc="http://creativecommons.org/ns#"
   xmlns:rdf="http://www.w3.org/1999/02/22-rdf-syntax-ns#"
   xmlns:svg="http://www.w3.org/2000/svg"
   xmlns="http://www.w3.org/2000/svg"
   xmlns:sodipodi="http://sodipodi.sourceforge.net/DTD/sodipodi-0.dtd"
   xmlns:inkscape="http://www.inkscape.org/namespaces/inkscape"
   width="210mm"
   height="297mm"
   viewBox="0 0 744.09448819 1052.3622047"
   id="svg2"
   version="1.1"
   inkscape:version="0.91 r13725"
   sodipodi:docname="pavel.svg">
  <defs
     id="defs4">
    <clipPath
       id="clipPath4149"
       clipPathUnits="userSpaceOnUse">
      <path
         inkscape:connector-curvature="0"
         id="path4151"
         d="m 0,0 9647,0 0,4353 L 0,4353 0,0" />
    </clipPath>
  </defs>
  <sodipodi:namedview
     id="base"
     pagecolor="#ffffff"
     bordercolor="#666666"
     borderopacity="1.0"
     inkscape:pageopacity="0.0"
     inkscape:pageshadow="2"
     inkscape:zoom="1.979899"
     inkscape:cx="355.68552"
     inkscape:cy="417.83708"
     inkscape:document-units="mm"
     inkscape:current-layer="layer1"
     showgrid="false"
     inkscape:window-width="1440"
     inkscape:window-height="837"
     inkscape:window-x="-4"
     inkscape:window-y="-4"
     inkscape:window-maximized="1" />
  <metadata
     id="metadata7">
    <rdf:RDF>
      <cc:Work
         rdf:about="">
        <dc:format>image/svg+xml</dc:format>
        <dc:type
           rdf:resource="http://purl.org/dc/dcmitype/StillImage" />
        <dc:title></dc:title>
      </cc:Work>
    </rdf:RDF>
  </metadata>
  <g
     inkscape:label="Layer 1"
     inkscape:groupmode="layer"
     id="layer1">
    <path
       id="path4251"
       style="fill:none;stroke:#000000;stroke-width:0.60000002;stroke-linecap:round;stroke-linejoin:round;stroke-miterlimit:10;stroke-dasharray:none;stroke-opacity:1"
       d="m 279.01053,663.80955 21.45,0 0.3,9 -2.25,0 -0.6,-2.4 -0.3,-1.2 -0.6,-1.05 -0.3,-0.6 -0.45,-0.45 -0.45,-0.45 -0.6,-0.3 -0.45,-0.3 -0.6,-0.15 -1.35,-0.15 -4.8,0 -0.3,0.15 -0.15,0.15 -0.15,0.6 0,8.55 1.5,0 0.75,-0.15 0.9,-0.45 0.6,-0.45 0.45,-0.75 0.3,-0.9 0.3,-0.75 0.15,-1.8 2.25,0 0,12.3 -2.25,0 -0.15,-1.8 -0.3,-0.9 -0.3,-0.75 -0.45,-0.75 -0.75,-0.6 -0.9,-0.3 -0.9,0 -1.2,0 0,9.45 0,0.45 0.3,0.3 0.3,0.15 0.3,0 3.9,0 1.5,-0.15 0.75,-0.3 0.6,-0.15 0.75,-0.45 0.45,-0.45 0.6,-0.45 0.45,-0.6 0.75,-1.35 0.45,-1.35 0.45,-1.5 0.15,-1.35 2.25,0 -0.3,10.05 -22.05,0 0,-1.95 2.25,0 0.6,-0.15 0.45,0 0.3,-0.15 0.15,-0.3 0.15,-0.15 0,-0.3 0,-19.8 -0.15,-0.45 -0.3,-0.3 -0.45,-0.15 -0.45,0 -2.55,0 0,-1.95 m 41.85,5.1 -3.9,10.5 7.65,0 -3.75,-10.5 m -8.25,16.05 8.4,-21.45 2.25,0 8.7,22.8 0.3,0.45 0.3,0.45 0.45,0.15 0.45,0.15 1.35,0 0,1.95 -10.95,0 0,-1.95 1.05,0 1.05,-0.15 0.6,0 0.45,-0.15 0.15,-0.15 0.15,-0.3 -0.15,-0.45 -1.95,-4.95 -9,0 -1.05,2.7 -0.3,0.9 -0.15,0.9 0.15,0.3 0.15,0.45 0.3,0.3 0.3,0.3 0.75,0.15 0.75,0.15 1.5,0 0,1.95 -10.05,0 0,-1.95 1.35,-0.15 0.6,-0.15 0.45,-0.3 0.6,-0.45 0.3,-0.45 0.75,-1.05 m 29.7,-21.15 20.85,0 0.6,10.05 -2.25,0 -0.45,-2.7 -0.45,-1.2 -0.45,-1.2 -0.75,-1.2 -0.45,-0.45 -0.45,-0.45 -0.6,-0.45 -0.6,-0.3 -0.6,-0.15 -0.75,0 -0.45,0 -0.15,0.15 -0.15,0.15 -0.15,0.3 0,0.45 0,19.8 0,0.3 0.15,0.45 0.3,0 0.3,0.15 3.15,0 0,1.95 -12.45,0 0,-1.95 3.15,0 m 0,0 0.3,-0.15 0.3,0 0.15,-0.3 0,-0.3 0,-20.1 0,-0.45 -0.3,-0.3 -0.45,-0.15 -0.45,0 -1.05,0.15 -0.9,0.45 -0.9,0.75 -0.6,0.75 -0.45,0.75 -0.3,0.6 -0.45,1.5 -0.3,1.65 -0.3,1.5 -2.25,0 0.6,-10.05 m -2.4,-33.3 0.45,0 0.3,-0.45 0,-0.45 0.15,-0.45 -0.15,-0.6 -0.15,-0.75 -0.3,-0.6 -0.45,-0.6 -0.45,-0.45 -0.6,-0.45 -0.6,-0.3 -0.75,0 -0.9,0.15 -0.75,0.45 -0.6,0.6 -0.45,0.6 -0.3,0.9 -0.3,0.75 -0.15,0.9 0,0.75 6,0 m 5.1,1.95 -11.1,0 0.15,1.2 0.15,1.2 0.3,1.05 0.3,0.45 0.3,0.45 0.6,0.6 0.75,0.6 0.75,0.3 0.9,0 0.9,0 0.75,-0.3 0.75,-0.3 0.6,-0.45 0.6,-0.45 0.45,-0.75 0.9,-1.2 1.95,0.6 -0.6,1.05 -0.75,1.05 -0.75,0.9 -0.9,0.75 -1.05,0.6 -1.2,0.45 -1.2,0.3 -1.2,0 -0.75,0 -0.75,-0.15 -0.9,-0.15 -0.6,-0.3 -0.75,-0.3 -0.75,-0.45 -0.6,-0.6 -0.45,-0.45 -0.6,-0.75 -0.3,-0.6 -0.45,-0.75 -0.3,-0.75 -0.3,-1.5 -0.15,-1.5 0.15,-1.65 0.3,-1.65 0.6,-1.5 0.45,-0.75 0.45,-0.6 0.6,-0.6 0.6,-0.6 0.6,-0.45 0.75,-0.3 0.75,-0.3 0.75,-0.3 0.75,-0.15 0.9,0 1.05,0 1.2,0.3 1.05,0.3 0.9,0.6 0.9,0.75 0.75,0.75 0.6,1.05 0.45,1.05 0.3,1.05 0.3,1.05 0.15,2.1 m -85.65,-5.4 1.05,-0.15 1.2,-0.15 0.9,-0.3 0.6,-0.3 0.3,-0.3 0.45,-0.45 0.3,-0.45 0.3,-1.05 0.15,-1.05 0,-1.05 0,-1.2 -0.15,-1.05 -0.15,-0.6 -0.3,-0.45 -0.3,-0.45 -0.45,-0.45 -0.45,-0.3 -0.6,-0.3 -1.05,-0.15 -1.05,-0.15 -1.2,0 -1.35,0 -0.45,0.15 -0.15,0.3 0,0.75 0,9.15 2.4,0 m -10.95,-12.3 12.45,0 1.65,0 1.5,0.3 1.65,0.45 0.6,0.3 0.75,0.45 0.6,0.6 0.6,0.45 0.45,0.75 0.45,0.6 0.3,0.75 0.3,0.75 0.15,0.9 0,0.75 -0.15,1.35 -0.15,0.75 -0.15,0.6 -0.45,0.6 -0.3,0.6 -0.45,0.45 -0.6,0.6 -0.75,0.45 -0.75,0.45 -0.9,0.45 -0.9,0.3 -1.8,0.45 -1.95,0.15 -3.6,0 0,8.25 0,0.3 0.15,0.45 0.3,0.3 0.45,0 3.6,0 0,1.95 -13.05,0 0,-1.95 2.85,0 0.45,0 0.3,-0.15 0.3,-0.15 0,-0.45 0,-19.8 0,-0.6 -0.3,-0.3 -0.15,0 -0.6,-0.15 -0.6,0 -2.25,0 0,-1.95 m 40.95,17.4 -1.35,0.3 -1.5,0.3 -1.35,0.45 -1.2,0.75 -0.45,0.45 -0.3,0.6 -0.3,0.75 0,0.6 0.15,0.9 0,0.3 0.3,0.45 0.3,0.3 0.3,0.15 0.45,0.15 0.3,0 0.9,0 0.9,-0.3 0.9,-0.45 0.6,-0.6 0.6,-0.6 0.45,-0.9 0.3,-0.9 0,-0.9 0,-1.8 m 6.15,5.85 1.05,1.2 -0.75,0.6 -0.9,0.45 -0.9,0.3 -0.9,0 -0.6,0 -0.6,-0.15 -0.45,-0.15 -0.45,-0.3 -0.45,-0.45 -0.3,-0.45 -0.45,-1.2 -0.6,0.75 -0.6,0.6 -0.6,0.45 -0.75,0.3 -0.75,0.3 -0.9,0.3 -1.65,0 -0.9,0 -0.9,-0.15 -0.9,-0.15 -0.75,-0.45 -0.75,-0.6 -0.6,-0.75 -0.3,-0.9 -0.15,-0.9 0,-0.9 0.3,-0.75 0.45,-0.75 0.6,-0.6 0.6,-0.6 0.75,-0.45 1.5,-0.75 1.5,-0.6 1.65,-0.45 1.65,-0.3 1.65,-0.15 0,-2.25 0,-0.45 -0.3,-0.6 -0.3,-0.6 -0.45,-0.3 -0.45,-0.3 -0.6,-0.3 -0.6,-0.15 -0.45,0 -1.2,0.15 -1.05,0.3 -0.3,0.3 -0.15,0.3 0.3,0.6 0.3,0.6 0.15,0.6 -0.15,0.45 -0.15,0.45 -0.15,0.3 -0.3,0.3 -0.45,0.3 -0.3,0.15 -0.9,0 -0.45,0 -0.45,-0.15 -0.3,-0.15 -0.45,-0.3 -0.15,-0.3 -0.3,-0.45 -0.15,-0.9 0.15,-0.6 0.15,-0.45 0.3,-0.6 0.3,-0.45 0.9,-0.75 0.9,-0.6 1.05,-0.6 1.2,-0.3 1.05,-0.15 1.2,0 1.2,0 1.35,0.3 1.05,0.3 0.6,0.3 0.6,0.3 0.6,0.75 0.6,0.75 0.3,0.9 0.15,0.9 0,8.55 0,0.75 0.15,0.3 0.15,0.45 0.15,0.15 0.15,0.15 0.9,0 0.75,-0.3 m 7.95,-14.25 8.7,0 0,1.95 -1.35,0 -0.6,0.15 -0.3,0 -0.15,0.45 0,0.3 0.15,0.3 3.6,8.85 3.3,-8.4 0,-0.45 0,-0.3 -0.3,-0.3 -0.6,-0.3 -0.75,-0.15 -0.75,-0.15 0,-1.95 7.5,0 0,1.95 m 0,0 -0.75,0 -0.75,0.15 -0.3,0.3 -0.3,0.15 -0.45,0.6 -6,13.65 -1.65,0 -6,-13.8 -0.3,-0.6 -0.3,-0.15 -0.3,-0.15 -1.35,-0.15 0,-1.95 m 57.15,-9 0,22.8 0,0.6 0.45,0.15 0.3,0 2.4,0 0,1.95 -10.35,0 0,-1.95 1.95,0 0.6,0 0.45,-0.15 0.15,-0.45 0.15,-0.45 0,-18.9 0,-0.45 -0.3,-0.45 -0.6,-0.45 -0.6,0 -1.8,0 0,-1.95 7.2,-0.3 m 89.4,60.45 1.05,-0.15 1.05,-0.15 1.05,-0.3 0.9,-0.45 0.45,-0.3 0.45,-0.45 0.45,-0.9 0.15,-1.05 0.15,-1.05 0,-1.05 -0.3,-1.05 -0.45,-1.05 -0.3,-0.45 -0.45,-0.3 -0.45,-0.3 -0.45,-0.15 -1.05,-0.15 -2.25,-0.15 -1.35,0 -0.3,0.15 -0.3,0.15 -0.15,0.3 0,0.3 0,8.55 2.1,0 m -10.5,-11.4 13.05,0 1.35,0 1.5,0.3 1.5,0.45 1.2,0.75 1.2,0.9 0.45,0.6 0.45,0.6 0.3,0.6 0.15,0.75 0.15,0.75 0,0.75 0,0.75 -0.15,0.6 -0.15,0.75 -0.3,0.6 -0.45,0.6 -0.45,0.6 -0.45,0.45 -0.6,0.45 -1.2,0.6 -1.35,0.45 -1.5,0.3 -1.35,0 m 6.75,10.05 0.3,0.45 0.3,0.15 0.15,0 0.3,-0.15 0.3,-0.45 0.15,-0.45 0.15,-0.45 0.3,-1.95 1.95,0 -0.15,1.05 -0.15,1.05 -0.3,1.05 -0.45,1.05 -0.75,0.75 -0.45,0.45 -0.45,0.3 -1.05,0.3 -1.05,0.15 -0.6,0 -0.6,-0.15 -0.6,-0.3 -0.6,-0.3 -0.45,-0.45 -0.3,-0.45 -0.3,-0.45 -0.3,-0.6 m 0,0 -0.3,-1.2 -0.15,-1.2 -0.3,-2.55 -0.3,-1.95 -0.45,-0.9 -0.15,-0.45 -0.3,-0.45 -0.9,-0.6 -0.9,-0.45 -0.9,-0.15 -1.05,0 -1.35,0 0,9.45 0.15,0.6 0.3,0.15 0.45,0.15 3,0 0,1.95 -12.3,0 0,-1.95 2.7,0 0.45,-0.15 0.3,0 0.3,-0.3 0.15,-0.45 0,-19.95 -0.15,-0.45 -0.15,-0.3 -0.45,-0.15 -0.45,0 -2.7,0 0,-1.95 m 13.35,12.6 1.2,0.3 1.2,0.3 0.6,0.3 0.45,0.45 0.45,0.45 0.45,0.45 0.3,0.45 0.3,0.6 0.45,1.2 0.45,2.55 0.3,1.5 0.3,0.75 0.3,0.75 m -51.3,-22.65 21.3,0 0.45,9 -2.25,0 m -5.7,-7.05 -4.8,0 -0.3,0.15 -0.15,0.15 -0.15,0.6 0,8.55 1.35,0 0.9,-0.15 0.9,-0.45 0.6,-0.45 0.45,-0.75 0.3,-0.9 0.3,-0.75 0.15,-1.8 2.25,0 0,12.3 -2.25,0 m -3.75,-5.1 -1.2,0 0,9.45 0,0.45 0.3,0.3 0.3,0.15 0.3,0 3.9,0 1.5,-0.15 0.75,-0.3 0.6,-0.15 0.6,-0.45 0.6,-0.45 0.6,-0.45 0.45,-0.6 0.75,-1.35 0.45,-1.35 0.45,-1.5 0.15,-1.35 2.25,0 -0.3,10.05 -22.05,0 0,-1.95 2.25,0 0.45,-0.15 0.6,0 0.3,-0.15 0.15,-0.3 0.15,-0.15 0,-0.3 0,-19.8 -0.15,-0.45 -0.3,-0.3 -0.45,-0.15 -0.45,0 -2.55,0 0,-1.95 m 19.5,9 -0.6,-2.4 -0.3,-1.2 -0.6,-1.05 -0.3,-0.6 -0.45,-0.45 -0.45,-0.45 -0.6,-0.3 -0.45,-0.3 -0.6,-0.15 -1.35,-0.15 m -0.45,16.5 -0.15,-1.8 -0.3,-0.9 -0.3,-0.75 -0.45,-0.75 -0.75,-0.6 -0.9,-0.3 -0.9,0 m -46.05,-13.35 12.45,0 0,1.95 -2.85,0 -0.6,0 -0.3,0.15 -0.15,0.3 0,1.35 0,7.2 10.35,0 0,-7.2 m -1.65,-1.8 -2.25,0 0,-1.95 12.3,0 0,1.95 -2.85,0 -0.6,0 -0.3,0.3 -0.15,0.3 0,1.35 0,18 0.15,1.35 m 1.2,0.45 2.55,0 0,1.95 -12.3,0 0,-1.95 2.25,0 0.75,-0.15 0.45,-0.15 0.3,-0.15 0,-0.45 0.15,-0.3 0,-0.75 0,-8.4 -10.35,0 0,8.4 0,1.5 m 0,0 0.3,0.15 0.15,0.15 0.6,0.15 2.85,0 0,1.95 -12.45,0 0,-1.95 2.7,0 0.75,-0.15 0.3,-0.3 0.15,-0.3 0,-1.2 0,-18 0,-0.75 -0.15,-0.75 -0.3,-0.15 -0.3,-0.15 -0.75,0 -2.4,0 0,-1.95 m 23.55,23.25 0.15,0.15 0.3,0.15 0.75,0.15 m -5.85,-19.95 0,-0.75 -0.15,-0.75 -0.3,-0.15 -0.45,-0.15 -0.75,0 m -140.7,-1.95 12.45,0 0,1.95 -3.3,0 m -0.6,1.05 0,19.65 0,0.45 0,0.3 0.3,0.15 0.9,0.15 3.45,0 m 6.75,-8.1 2.1,0 -0.3,10.05 -21.75,0 0,-1.95 2.4,0 0.6,-0.15 0.6,-0.15 0.15,-0.15 0.15,-0.3 0,-0.6 0,-19.5 m 0,0 0,-0.3 -0.3,-0.45 -0.3,-0.15 -0.45,0 -2.85,0 0,-1.95 m 13.2,23.7 0.75,-0.15 0.75,0 0.6,-0.3 0.75,-0.3 0.6,-0.3 0.6,-0.45 0.45,-0.6 0.45,-0.6 0.6,-1.2 0.45,-1.35 0.45,-1.5 0.3,-1.35 m -10.8,-13.65 -0.45,0.15 -0.15,0.3 0,0.6 m 223.95,-56.55001 -4.2,1.50001 -3.15,1.05 0,2.85 0,0.75 -0.15,0.75 -0.15,0.6 -0.3,0.6 -0.6,1.35 -0.3,0.6 -0.3,0.6 -1.05,1.05 -0.45,0.6 -0.6,0.45 -0.6,0.3 -0.75,0.15 -1.35,0.45 -1.35,0.15 -1.5,0 -0.6,0.15 -0.75,0.3 -0.15,0.3 -0.3,0.3 -0.15,0.6 -0.6,2.85 -0.3,1.35 -0.45,1.35 0,0.45 0.15,0.3 0.15,0.3 0.3,0.3 0.6,0.3 0.6,0.3 1.2,0.75 1.2,0.75 1.2,0.75 1.2,0.75 1.05,1.05 0.75,1.2 0.45,0.45 0.45,0.6 1.05,1.05 1.5,2.25 0.3,0.75 0.3,0.6 0.3,1.35 0.6,1.35 0.15,0.6 0.15,0.75 0.3,2.85 0.3,2.85 0,1.35 -0.15,1.5 -0.3,1.35 -0.6,1.35 -0.45,1.2 -0.3,1.35 -0.15,0.75 -0.3,0.75 -0.15,0.45 0,0.3 0.15,0.15 0.3,0.3 0.3,0.3 0.3,0.15 0.15,0.3 0.3,0.15 0.3,0.15 0.3,0.15 0.6,0.6 0.3,0.15 0.3,0 0.75,0.15 0.75,0 0.6,0.3 0.75,0.3 0.3,0 0.3,0 0.6,-0.3 0.6,-0.45 0.6,-0.45 0.6,-0.3 1.35,-0.6 0.6,-0.45 0.6,-0.15 0.75,-0.15 0.6,-0.15 0.75,-0.45 0.6,-0.15 1.35,-0.15 1.5,-0.15 1.35,0.3 1.35,0.3 1.5,0.3 1.35,0.3 0.75,0 0.6,-0.15 0.3,-0.15 0.15,-0.3 0.3,-0.75 0.3,-0.6 0.6,-0.45 0.3,-0.6 0.3,-0.6 0.3,-0.6 0.6,-0.6 1.2,-0.75 1.05,-1.05 0.45,-0.3 0.75,-0.3 1.35,-0.45 1.2,-0.6 0.75,-0.15 0.75,0 2.85,0.15 0.75,0 0.3,0 0.15,-0.3 0.3,-0.6 0.45,-0.6 0.3,-0.6 0.15,-0.75 0.3,-0.6 0.3,-0.75 0.6,-1.2 0.45,-1.35 0,-0.75 -0.15,-0.3 -0.15,-0.3 -1.35,-0.6 -1.2,-0.75 -1.2,-0.6 -0.75,-0.3 -0.45,-0.45 -1.05,-1.05 -1.2,-0.6 -1.05,-1.05 -1.8,-2.1 -0.9,-1.2 -0.75,-1.2 -0.6,-1.35 -0.45,-1.35 -0.6,-2.7 -0.3,-1.35 -0.15,-1.5 0.15,-2.85 0.45,-2.7 0.15,-1.5 0.15,-0.6 0.15,-0.75 0.45,-1.35 0.45,-1.35 0.6,-1.35 0,-0.3 0,-0.3 -0.45,-0.6 -1.05,-0.9 -1.2,-0.9 -1.2,-0.6 -1.2,-0.9 -0.6,-0.3 -0.75,-0.15 -0.3,0 -0.3,0.15 -0.6,0.45 -1.05,0.9 -0.6,0.45 -0.75,0.3 -1.35,0.45 -0.6,0.15 -0.75,0.15 -1.35,-0.15 -1.5,-0.3 -1.35,-0.45 -1.2,-0.6 -1.35,-0.6 -0.6,-0.45 -0.45,-0.45 -0.45,-0.6 -0.3,-0.75 -0.3,-0.60001 -0.3,-0.6" />
  </g>
</svg>
