  0
SECTION
  2
HEADER
  9
$ACADVER
  1
AC1014
  9
$HANDSEED
  5
FFFF
  9
$MEASUREMENT
 70
     1
  0
ENDSEC
  0
SECTION
  2
TABLES
  0
TABLE
  2
VPORT
  5
8
330
0
100
AcDbSymbolTable
 70
     4
  0
VPORT
  5
2E
330
8
100
AcDbSymbolTableRecord
100
AcDbViewportTableRecord
  2
*ACTIVE
 70
     0
 10
0.0
 20
0.0
 11
1.0
 21
1.0
 12
210.0
 22
148.5
 13
0.0
 23
0.0
 14
10.0
 24
10.0
 15
10.0
 25
10.0
 16
0.0
 26
0.0
 36
1.0
 17
0.0
 27
0.0
 37
0.0
 40
341.0
 41
1.24
 42
50.0
 43
0.0
 44
0.0
 50
0.0
 51
0.0
 71
     0
 72
   100
 73
     1
 74
     3
 75
     0
 76
     0
 77
     0
 78
     0
  0
ENDTAB
  0
TABLE
  2
LTYPE
  5
5
330
0
100
AcDbSymbolTable
 70
     1
  0
LTYPE
  5
14
330
5
100
AcDbSymbolTableRecord
100
AcDbLinetypeTableRecord
  2
BYBLOCK
 70
     0
  3

 72
    65
 73
     0
 40
0.0
  0
LTYPE
  5
15
330
5
100
AcDbSymbolTableRecord
100
AcDbLinetypeTableRecord
  2
BYLAYER
 70
     0
  3

 72
    65
 73
     0
 40
0.0
  0
LTYPE
  5
16
330
5
100
AcDbSymbolTableRecord
100
AcDbLinetypeTableRecord
  2
CONTINUOUS
 70
     0
  3
Solid line
 72
    65
 73
     0
 40
0.0
  0
ENDTAB
  0
TABLE
  2
LAYER
  5
2
100
AcDbSymbolTable
 70
1
  0
LAYER
  5
50
100
AcDbSymbolTableRecord
100
AcDbLayerTableRecord
  2
0
 70
0
  6
CONTINUOUS
  0
ENDTAB
  0
TABLE
  2
STYLE
  5
3
330
0
100
AcDbSymbolTable
 70
     1
  0
STYLE
  5
11
330
3
100
AcDbSymbolTableRecord
100
AcDbTextStyleTableRecord
  2
STANDARD
 70
     0
 40
0.0
 41
1.0
 50
0.0
 71
     0
 42
2.5
  3
txt
  4

  0
ENDTAB
  0
TABLE
  2
VIEW
  5
6
330
0
100
AcDbSymbolTable
 70
     0
  0
ENDTAB
  0
TABLE
  2
UCS
  5
7
330
0
100
AcDbSymbolTable
 70
     0
  0
ENDTAB
  0
TABLE
  2
APPID
  5
9
330
0
100
AcDbSymbolTable
 70
     2
  0
APPID
  5
12
330
9
100
AcDbSymbolTableRecord
100
AcDbRegAppTableRecord
  2
ACAD
 70
     0
  0
ENDTAB
  0
TABLE
  2
DIMSTYLE
  5
A
330
0
100
AcDbSymbolTable
 70
     1
  0
DIMSTYLE
105
27
330
A
100
AcDbSymbolTableRecord
100
AcDbDimStyleTableRecord
  2
ISO-25
 70
     0
  3

  4

  5

  6

  7

 40
1.0
 41
2.5
 42
0.625
 43
3.75
 44
1.25
 45
0.0
 46
0.0
 47
0.0
 48
0.0
140
2.5
141
2.5
142
0.0
143
0.03937007874016
144
1.0
145
0.0
146
1.0
147
0.625
 71
     0
 72
     0
 73
     0
 74
     0
 75
     0
 76
     0
 77
     1
 78
     8
170
     0
171
     3
172
     1
173
     0
174
     0
175
     0
176
     0
177
     0
178
     0
270
     2
271
     2
272
     2
273
     2
274
     3
340
11
275
     0
280
     0
281
     0
282
     0
283
     0
284
     8
285
     0
286
     0
287
     3
288
     0
  0
ENDTAB
  0
TABLE
  2
BLOCK_RECORD
  5
1
330
0
100
AcDbSymbolTable
 70
     1
  0
BLOCK_RECORD
  5
1F
330
1
100
AcDbSymbolTableRecord
100
AcDbBlockTableRecord
  2
*MODEL_SPACE
  0
BLOCK_RECORD
  5
1B
330
1
100
AcDbSymbolTableRecord
100
AcDbBlockTableRecord
  2
*PAPER_SPACE
  0
ENDTAB
  0
ENDSEC
  0
SECTION
  2
BLOCKS
  0
BLOCK
  5
20
330
1F
100
AcDbEntity
  8
0
100
AcDbBlockBegin
  2
*MODEL_SPACE
 70
     0
 10
0.0
 20
0.0
 30
0.0
  3
*MODEL_SPACE
  1

  0
ENDBLK
  5
21
330
1F
100
AcDbEntity
  8
0
100
AcDbBlockEnd
  0
BLOCK
  5
1C
330
1B
100
AcDbEntity
 67
     1
  8
0
100
AcDbBlockBegin
  2
*PAPER_SPACE
  1

  0
ENDBLK
  5
1D
330
1B
100
AcDbEntity
 67
     1
  8
0
100
AcDbBlockEnd
  0
ENDSEC
  0
SECTION
  2
ENTITIES
  0
SPLINE
  5
100
100
AcDbEntity
  8
0
 62
7
100
AcDbSpline
 70
8
 71
3
 72
8
 73
4
 74
0
 40
0
 40
0
 40
0
 40
0
 40
1
 40
1
 40
1
 40
1
 10
142.797279
 20
161.677504
 30
0.0
 10
132.146799
 20
161.625769
 30
0.0
 10
121.652752
 20
160.969979
 30
0.0
 10
112.299090
 20
159.727856
 30
0.0
  0
SPLINE
  5
101
100
AcDbEntity
  8
0
 62
7
100
AcDbSpline
 70
8
 71
3
 72
8
 73
4
 74
0
 40
0
 40
0
 40
0
 40
0
 40
1
 40
1
 40
1
 40
1
 10
112.299090
 20
159.727856
 30
0.0
 10
96.163342
 20
157.585101
 30
0.0
 10
82.525881
 20
154.420685
 30
0.0
 10
68.691895
 20
149.609197
 30
0.0
  0
SPLINE
  5
102
100
AcDbEntity
  8
0
 62
7
100
AcDbSpline
 70
8
 71
3
 72
8
 73
4
 74
0
 40
0
 40
0
 40
0
 40
0
 40
1
 40
1
 40
1
 40
1
 10
68.691895
 20
149.609197
 30
0.0
 10
59.957513
 20
146.571363
 30
0.0
 10
48.007818
 20
141.044216
 30
0.0
 10
41.034118
 20
136.816592
 30
0.0
  0
SPLINE
  5
103
100
AcDbEntity
  8
0
 62
7
100
AcDbSpline
 70
8
 71
3
 72
8
 73
4
 74
0
 40
0
 40
0
 40
0
 40
0
 40
1
 40
1
 40
1
 40
1
 10
41.034118
 20
136.816592
 30
0.0
 10
21.258055
 20
124.827871
 30
0.0
 10
9.349804
 20
110.441167
 30
0.0
 10
5.837921
 20
94.295846
 30
0.0
  0
SPLINE
  5
104
100
AcDbEntity
  8
0
 62
7
100
AcDbSpline
 70
8
 71
3
 72
8
 73
4
 74
0
 40
0
 40
0
 40
0
 40
0
 40
1
 40
1
 40
1
 40
1
 10
5.837921
 20
94.295846
 30
0.0
 10
5.315951
 20
91.896167
 30
0.0
 10
5.215890
 20
90.563062
 30
0.0
 10
5.221111
 20
86.070062
 30
0.0
  0
SPLINE
  5
105
100
AcDbEntity
  8
0
 62
7
100
AcDbSpline
 70
8
 71
3
 72
8
 73
4
 74
0
 40
0
 40
0
 40
0
 40
0
 40
1
 40
1
 40
1
 40
1
 10
5.221111
 20
86.070062
 30
0.0
 10
5.228141
 20
80.005953
 30
0.0
 10
5.662271
 20
77.296481
 30
0.0
 10
7.467313
 20
72.058169
 30
0.0
  0
SPLINE
  5
106
100
AcDbEntity
  8
0
 62
7
100
AcDbSpline
 70
8
 71
3
 72
8
 73
4
 74
0
 40
0
 40
0
 40
0
 40
0
 40
1
 40
1
 40
1
 40
1
 10
7.467313
 20
72.058169
 30
0.0
 10
19.287082
 20
37.756660
 30
0.0
 10
73.424006
 20
12.132225
 30
0.0
 10
137.554118
 20
10.484115
 30
0.0
  0
SPLINE
  5
107
100
AcDbEntity
  8
0
 62
7
100
AcDbSpline
 70
8
 71
3
 72
8
 73
4
 74
0
 40
0
 40
0
 40
0
 40
0
 40
1
 40
1
 40
1
 40
1
 10
137.554118
 20
10.484115
 30
0.0
 10
144.321818
 20
10.310190
 30
0.0
 10
146.136699
 20
10.320624
 30
0.0
 10
153.106106
 20
10.575617
 30
0.0
  0
SPLINE
  5
108
100
AcDbEntity
  8
0
 62
7
100
AcDbSpline
 70
8
 71
3
 72
8
 73
4
 74
0
 40
0
 40
0
 40
0
 40
0
 40
1
 40
1
 40
1
 40
1
 10
153.106106
 20
10.575617
 30
0.0
 10
170.283742
 20
11.204107
 30
0.0
 10
185.237007
 20
13.177729
 30
0.0
 10
200.348562
 20
16.810411
 30
0.0
  0
SPLINE
  5
109
100
AcDbEntity
  8
0
 62
7
100
AcDbSpline
 70
8
 71
3
 72
8
 73
4
 74
0
 40
0
 40
0
 40
0
 40
0
 40
1
 40
1
 40
1
 40
1
 10
200.348562
 20
16.810411
 30
0.0
 10
228.036433
 20
23.466326
 30
0.0
 10
250.875250
 20
34.695991
 30
0.0
 10
265.572215
 20
48.880669
 30
0.0
  0
SPLINE
  5
10a
100
AcDbEntity
  8
0
 62
7
100
AcDbSpline
 70
8
 71
3
 72
8
 73
4
 74
0
 40
0
 40
0
 40
0
 40
0
 40
1
 40
1
 40
1
 40
1
 10
265.572215
 20
48.880669
 30
0.0
 10
275.046547
 20
58.024759
 30
0.0
 10
280.497331
 20
67.179475
 30
0.0
 10
282.816977
 20
77.843724
 30
0.0
  0
SPLINE
  5
10b
100
AcDbEntity
  8
0
 62
7
100
AcDbSpline
 70
8
 71
3
 72
8
 73
4
 74
0
 40
0
 40
0
 40
0
 40
0
 40
1
 40
1
 40
1
 40
1
 10
282.816977
 20
77.843724
 30
0.0
 10
283.710973
 20
81.953662
 30
0.0
 10
283.707473
 20
90.129972
 30
0.0
 10
282.810373
 20
94.295846
 30
0.0
  0
SPLINE
  5
10c
100
AcDbEntity
  8
0
 62
7
100
AcDbSpline
 70
8
 71
3
 72
8
 73
4
 74
0
 40
0
 40
0
 40
0
 40
0
 40
1
 40
1
 40
1
 40
1
 10
282.810373
 20
94.295846
 30
0.0
 10
280.642071
 20
104.364638
 30
0.0
 10
275.865181
 20
112.744586
 30
0.0
 10
267.252868
 20
121.585965
 30
0.0
  0
SPLINE
  5
10d
100
AcDbEntity
  8
0
 62
7
100
AcDbSpline
 70
8
 71
3
 72
8
 73
4
 74
0
 40
0
 40
0
 40
0
 40
0
 40
1
 40
1
 40
1
 40
1
 10
267.252868
 20
121.585965
 30
0.0
 10
247.143727
 20
142.229955
 30
0.0
 10
209.350099
 20
157.042542
 30
0.0
 10
167.469673
 20
160.694136
 30
0.0
  0
SPLINE
  5
10e
100
AcDbEntity
  8
0
 62
7
100
AcDbSpline
 70
8
 71
3
 72
8
 73
4
 74
0
 40
0
 40
0
 40
0
 40
0
 40
1
 40
1
 40
1
 40
1
 10
167.469673
 20
160.694136
 30
0.0
 10
159.459617
 20
161.392541
 30
0.0
 10
151.080984
 20
161.717742
 30
0.0
 10
142.797279
 20
161.677504
 30
0.0
  0
SPLINE
  5
10f
100
AcDbEntity
  8
0
 62
7
100
AcDbSpline
 70
8
 71
3
 72
8
 73
4
 74
0
 40
0
 40
0
 40
0
 40
0
 40
1
 40
1
 40
1
 40
1
 10
143.226124
 20
156.314731
 30
0.0
 10
155.762181
 20
156.333718
 30
0.0
 10
168.664114
 20
155.481948
 30
0.0
 10
180.028562
 20
153.808906
 30
0.0
  0
SPLINE
  5
110
100
AcDbEntity
  8
0
 62
7
100
AcDbSpline
 70
8
 71
3
 72
8
 73
4
 74
0
 40
0
 40
0
 40
0
 40
0
 40
1
 40
1
 40
1
 40
1
 10
180.028562
 20
153.808906
 30
0.0
 10
204.018509
 20
150.277172
 30
0.0
 10
225.877758
 20
143.191648
 30
0.0
 10
242.654336
 20
133.508750
 30
0.0
  0
SPLINE
  5
111
100
AcDbEntity
  8
0
 62
7
100
AcDbSpline
 70
8
 71
3
 72
8
 73
4
 74
0
 40
0
 40
0
 40
0
 40
0
 40
1
 40
1
 40
1
 40
1
 10
242.654336
 20
133.508750
 30
0.0
 10
270.601189
 20
117.378726
 30
0.0
 10
282.698077
 20
95.574259
 30
0.0
 10
275.676541
 20
73.986319
 30
0.0
  0
SPLINE
  5
112
100
AcDbEntity
  8
0
 62
7
100
AcDbSpline
 70
8
 71
3
 72
8
 73
4
 74
0
 40
0
 40
0
 40
0
 40
0
 40
1
 40
1
 40
1
 40
1
 10
275.676541
 20
73.986319
 30
0.0
 10
272.748491
 20
64.983936
 30
0.0
 10
265.516668
 20
55.322445
 30
0.0
 10
255.946340
 20
47.627757
 30
0.0
  0
SPLINE
  5
113
100
AcDbEntity
  8
0
 62
7
100
AcDbSpline
 70
8
 71
3
 72
8
 73
4
 74
0
 40
0
 40
0
 40
0
 40
0
 40
1
 40
1
 40
1
 40
1
 10
255.946340
 20
47.627757
 30
0.0
 10
234.071389
 20
30.039973
 30
0.0
 10
198.907592
 20
18.621406
 30
0.0
 10
159.285229
 20
16.239355
 30
0.0
  0
SPLINE
  5
114
100
AcDbEntity
  8
0
 62
7
100
AcDbSpline
 70
8
 71
3
 72
8
 73
4
 74
0
 40
0
 40
0
 40
0
 40
0
 40
1
 40
1
 40
1
 40
1
 10
159.285229
 20
16.239355
 30
0.0
 10
97.588459
 20
12.530212
 30
0.0
 10
39.209531
 20
31.862516
 30
0.0
 10
18.507053
 20
62.858938
 30
0.0
  0
SPLINE
  5
115
100
AcDbEntity
  8
0
 62
7
100
AcDbSpline
 70
8
 71
3
 72
8
 73
4
 74
0
 40
0
 40
0
 40
0
 40
0
 40
1
 40
1
 40
1
 40
1
 10
18.507053
 20
62.858938
 30
0.0
 10
15.081615
 20
67.987613
 30
0.0
 10
12.747460
 20
73.495721
 30
0.0
 10
11.632296
 20
79.079547
 30
0.0
  0
SPLINE
  5
116
100
AcDbEntity
  8
0
 62
7
100
AcDbSpline
 70
8
 71
3
 72
8
 73
4
 74
0
 40
0
 40
0
 40
0
 40
0
 40
1
 40
1
 40
1
 40
1
 10
11.632296
 20
79.079547
 30
0.0
 10
10.881094
 20
82.840965
 30
0.0
 10
10.963075
 20
89.942365
 30
0.0
 10
11.802621
 20
93.831173
 30
0.0
  0
SPLINE
  5
117
100
AcDbEntity
  8
0
 62
7
100
AcDbSpline
 70
8
 71
3
 72
8
 73
4
 74
0
 40
0
 40
0
 40
0
 40
0
 40
1
 40
1
 40
1
 40
1
 10
11.802621
 20
93.831173
 30
0.0
 10
15.504206
 20
110.977076
 30
0.0
 10
30.594232
 20
126.508095
 30
0.0
 10
54.863007
 20
138.150535
 30
0.0
  0
SPLINE
  5
118
100
AcDbEntity
  8
0
 62
7
100
AcDbSpline
 70
8
 71
3
 72
8
 73
4
 74
0
 40
0
 40
0
 40
0
 40
0
 40
1
 40
1
 40
1
 40
1
 10
54.863007
 20
138.150535
 30
0.0
 10
73.535365
 20
147.108214
 30
0.0
 10
96.081379
 20
152.923570
 30
0.0
 10
121.467451
 20
155.329709
 30
0.0
  0
SPLINE
  5
119
100
AcDbEntity
  8
0
 62
7
100
AcDbSpline
 70
8
 71
3
 72
8
 73
4
 74
0
 40
0
 40
0
 40
0
 40
0
 40
1
 40
1
 40
1
 40
1
 10
121.467451
 20
155.329709
 30
0.0
 10
128.314622
 20
155.978696
 30
0.0
 10
135.704490
 20
156.303339
 30
0.0
 10
143.226124
 20
156.314731
 30
0.0
  0
LWPOLYLINE
  5
11a
100
AcDbEntity
  8
0
 62
7
100
AcDbPolyline
 90
2
 70
0
 10
142.797279
 20
161.677504
 30
0.0
 10
142.797279
 20
161.677504
 30
0.0
  0
LWPOLYLINE
  5
11b
100
AcDbEntity
  8
0
 62
7
100
AcDbPolyline
 90
2
 70
0
 10
143.226124
 20
156.314731
 30
0.0
 10
143.226124
 20
156.314731
 30
0.0
  0
SPLINE
  5
11c
100
AcDbEntity
  8
0
 62
7
100
AcDbSpline
 70
8
 71
3
 72
8
 73
4
 74
0
 40
0
 40
0
 40
0
 40
0
 40
1
 40
1
 40
1
 40
1
 10
129.820568
 20
150.666979
 30
0.0
 10
129.104763
 20
145.906308
 30
0.0
 10
128.635009
 20
140.250731
 30
0.0
 10
128.394023
 20
133.483395
 30
0.0
  0
SPLINE
  5
11d
100
AcDbEntity
  8
0
 62
7
100
AcDbSpline
 70
8
 71
3
 72
8
 73
4
 74
0
 40
0
 40
0
 40
0
 40
0
 40
1
 40
1
 40
1
 40
1
 10
128.394023
 20
133.483395
 30
0.0
 10
128.105716
 20
125.387210
 30
0.0
 10
127.932857
 20
124.568390
 30
0.0
 10
125.415257
 20
119.372284
 30
0.0
  0
SPLINE
  5
11e
100
AcDbEntity
  8
0
 62
7
100
AcDbSpline
 70
8
 71
3
 72
8
 73
4
 74
0
 40
0
 40
0
 40
0
 40
0
 40
1
 40
1
 40
1
 40
1
 10
125.415257
 20
119.372284
 30
0.0
 10
122.861310
 20
114.101163
 30
0.0
 10
119.661497
 20
110.677923
 30
0.0
 10
115.436605
 20
108.697449
 30
0.0
  0
SPLINE
  5
11f
100
AcDbEntity
  8
0
 62
7
100
AcDbSpline
 70
8
 71
3
 72
8
 73
4
 74
0
 40
0
 40
0
 40
0
 40
0
 40
1
 40
1
 40
1
 40
1
 10
115.436605
 20
108.697449
 30
0.0
 10
113.720220
 20
107.892873
 30
0.0
 10
113.272965
 20
107.810670
 30
0.0
 10
110.037451
 20
107.709118
 30
0.0
  0
SPLINE
  5
120
100
AcDbEntity
  8
0
 62
7
100
AcDbSpline
 70
8
 71
3
 72
8
 73
4
 74
0
 40
0
 40
0
 40
0
 40
0
 40
1
 40
1
 40
1
 40
1
 10
110.037451
 20
107.709118
 30
0.0
 10
103.178971
 20
107.493853
 30
0.0
 10
96.652469
 20
109.544846
 30
0.0
 10
91.706787
 20
113.469869
 30
0.0
  0
SPLINE
  5
121
100
AcDbEntity
  8
0
 62
7
100
AcDbSpline
 70
8
 71
3
 72
8
 73
4
 74
0
 40
0
 40
0
 40
0
 40
0
 40
1
 40
1
 40
1
 40
1
 10
91.706787
 20
113.469869
 30
0.0
 10
85.284220
 20
118.566980
 30
0.0
 10
83.912095
 20
125.911071
 30
0.0
 10
87.881906
 20
133.943660
 30
0.0
  0
SPLINE
  5
122
100
AcDbEntity
  8
0
 62
7
100
AcDbSpline
 70
8
 71
3
 72
8
 73
4
 74
0
 40
0
 40
0
 40
0
 40
0
 40
1
 40
1
 40
1
 40
1
 10
87.881906
 20
133.943660
 30
0.0
 10
89.559043
 20
137.337213
 30
0.0
 10
91.765738
 20
140.327033
 30
0.0
 10
95.607739
 20
144.412340
 30
0.0
  0
SPLINE
  5
123
100
AcDbEntity
  8
0
 62
7
100
AcDbSpline
 70
8
 71
3
 72
8
 73
4
 74
0
 40
0
 40
0
 40
0
 40
0
 40
1
 40
1
 40
1
 40
1
 10
95.607739
 20
144.412340
 30
0.0
 10
96.909628
 20
145.796668
 30
0.0
 10
97.263387
 20
146.324505
 30
0.0
 10
96.889866
 20
146.324505
 30
0.0
  0
SPLINE
  5
124
100
AcDbEntity
  8
0
 62
7
100
AcDbSpline
 70
8
 71
3
 72
8
 73
4
 74
0
 40
0
 40
0
 40
0
 40
0
 40
1
 40
1
 40
1
 40
1
 10
96.889866
 20
146.324505
 30
0.0
 10
96.158871
 20
146.324505
 30
0.0
 10
88.099440
 20
144.262571
 30
0.0
 10
83.074758
 20
142.790113
 30
0.0
  0
SPLINE
  5
125
100
AcDbEntity
  8
0
 62
7
100
AcDbSpline
 70
8
 71
3
 72
8
 73
4
 74
0
 40
0
 40
0
 40
0
 40
0
 40
1
 40
1
 40
1
 40
1
 10
83.074758
 20
142.790113
 30
0.0
 10
76.248443
 20
140.789697
 30
0.0
 10
69.114388
 20
138.240070
 30
0.0
 10
63.188562
 20
135.682742
 30
0.0
  0
SPLINE
  5
126
100
AcDbEntity
  8
0
 62
7
100
AcDbSpline
 70
8
 71
3
 72
8
 73
4
 74
0
 40
0
 40
0
 40
0
 40
0
 40
1
 40
1
 40
1
 40
1
 10
63.188562
 20
135.682742
 30
0.0
 10
59.717675
 20
134.184861
 30
0.0
 10
51.848597
 20
130.286687
 30
0.0
 10
50.219570
 20
129.258328
 30
0.0
  0
SPLINE
  5
127
100
AcDbEntity
  8
0
 62
7
100
AcDbSpline
 70
8
 71
3
 72
8
 73
4
 74
0
 40
0
 40
0
 40
0
 40
0
 40
1
 40
1
 40
1
 40
1
 10
50.219570
 20
129.258328
 30
0.0
 10
49.597400
 20
128.865571
 30
0.0
 10
49.021616
 20
128.544506
 30
0.0
 10
48.940201
 20
128.544506
 30
0.0
  0
SPLINE
  5
128
100
AcDbEntity
  8
0
 62
7
100
AcDbSpline
 70
8
 71
3
 72
8
 73
4
 74
0
 40
0
 40
0
 40
0
 40
0
 40
1
 40
1
 40
1
 40
1
 10
48.940201
 20
128.544506
 30
0.0
 10
48.858785
 20
128.544506
 30
0.0
 10
47.046605
 20
127.430042
 30
0.0
 10
44.913019
 20
126.067896
 30
0.0
  0
SPLINE
  5
129
100
AcDbEntity
  8
0
 62
7
100
AcDbSpline
 70
8
 71
3
 72
8
 73
4
 74
0
 40
0
 40
0
 40
0
 40
0
 40
1
 40
1
 40
1
 40
1
 10
44.913019
 20
126.067896
 30
0.0
 10
26.120846
 20
114.070401
 30
0.0
 10
15.875688
 20
99.441553
 30
0.0
 10
16.717808
 20
85.808786
 30
0.0
  0
SPLINE
  5
12a
100
AcDbEntity
  8
0
 62
7
100
AcDbSpline
 70
8
 71
3
 72
8
 73
4
 74
0
 40
0
 40
0
 40
0
 40
0
 40
1
 40
1
 40
1
 40
1
 10
16.717808
 20
85.808786
 30
0.0
 10
17.351369
 20
75.552300
 30
0.0
 10
22.679621
 20
65.171450
 30
0.0
 10
32.155694
 20
55.731723
 30
0.0
  0
SPLINE
  5
12b
100
AcDbEntity
  8
0
 62
7
100
AcDbSpline
 70
8
 71
3
 72
8
 73
4
 74
0
 40
0
 40
0
 40
0
 40
0
 40
1
 40
1
 40
1
 40
1
 10
32.155694
 20
55.731723
 30
0.0
 10
42.274380
 20
45.651855
 30
0.0
 10
57.263685
 20
37.240512
 30
0.0
 10
74.618562
 20
31.903238
 30
0.0
  0
SPLINE
  5
12c
100
AcDbEntity
  8
0
 62
7
100
AcDbSpline
 70
8
 71
3
 72
8
 73
4
 74
0
 40
0
 40
0
 40
0
 40
0
 40
1
 40
1
 40
1
 40
1
 10
74.618562
 20
31.903238
 30
0.0
 10
76.481229
 20
31.330400
 30
0.0
 10
78.373210
 20
30.742247
 30
0.0
 10
78.823233
 20
30.596307
 30
0.0
  0
SPLINE
  5
12d
100
AcDbEntity
  8
0
 62
7
100
AcDbSpline
 70
8
 71
3
 72
8
 73
4
 74
0
 40
0
 40
0
 40
0
 40
0
 40
1
 40
1
 40
1
 40
1
 10
78.823233
 20
30.596307
 30
0.0
 10
79.273259
 20
30.450367
 30
0.0
 10
79.709179
 20
30.331173
 30
0.0
 10
79.791718
 20
30.331173
 30
0.0
  0
SPLINE
  5
12e
100
AcDbEntity
  8
0
 62
7
100
AcDbSpline
 70
8
 71
3
 72
8
 73
4
 74
0
 40
0
 40
0
 40
0
 40
0
 40
1
 40
1
 40
1
 40
1
 10
79.791718
 20
30.331173
 30
0.0
 10
79.874257
 20
30.331173
 30
0.0
 10
78.865899
 20
31.442423
 30
0.0
 10
77.551029
 20
32.800617
 30
0.0
  0
SPLINE
  5
12f
100
AcDbEntity
  8
0
 62
7
100
AcDbSpline
 70
8
 71
3
 72
8
 73
4
 74
0
 40
0
 40
0
 40
0
 40
0
 40
1
 40
1
 40
1
 40
1
 10
77.551029
 20
32.800617
 30
0.0
 10
72.531137
 20
37.985917
 30
0.0
 10
70.002022
 20
41.420319
 30
0.0
 10
67.419691
 20
46.558951
 30
0.0
  0
SPLINE
  5
130
100
AcDbEntity
  8
0
 62
7
100
AcDbSpline
 70
8
 71
3
 72
8
 73
4
 74
0
 40
0
 40
0
 40
0
 40
0
 40
1
 40
1
 40
1
 40
1
 10
67.419691
 20
46.558951
 30
0.0
 10
63.534708
 20
54.289751
 30
0.0
 10
62.808894
 20
60.872031
 30
0.0
 10
65.272158
 20
66.032284
 30
0.0
  0
SPLINE
  5
131
100
AcDbEntity
  8
0
 62
7
100
AcDbSpline
 70
8
 71
3
 72
8
 73
4
 74
0
 40
0
 40
0
 40
0
 40
0
 40
1
 40
1
 40
1
 40
1
 10
65.272158
 20
66.032284
 30
0.0
 10
65.790829
 20
67.118840
 30
0.0
 10
66.735926
 20
68.532722
 30
0.0
 10
67.372286
 20
69.174210
 30
0.0
  0
SPLINE
  5
132
100
AcDbEntity
  8
0
 62
7
100
AcDbSpline
 70
8
 71
3
 72
8
 73
4
 74
0
 40
0
 40
0
 40
0
 40
0
 40
1
 40
1
 40
1
 40
1
 10
67.372286
 20
69.174210
 30
0.0
 10
74.513525
 20
76.373030
 30
0.0
 10
88.865591
 20
72.556957
 30
0.0
 10
103.315381
 20
59.617791
 30
0.0
  0
LWPOLYLINE
  5
133
100
AcDbEntity
  8
0
 62
7
100
AcDbPolyline
 90
2
 70
0
 10
130.155157
 20
152.892787
 30
0.0
 10
129.820568
 20
150.666979
 30
0.0
  0
SPLINE
  5
134
100
AcDbEntity
  8
0
 62
7
100
AcDbSpline
 70
8
 71
3
 72
8
 73
4
 74
0
 40
0
 40
0
 40
0
 40
0
 40
1
 40
1
 40
1
 40
1
 10
107.251610
 20
59.884028
 30
0.0
 10
108.068937
 20
61.237154
 30
0.0
 10
109.519833
 20
63.126247
 30
0.0
 10
110.475669
 20
64.082083
 30
0.0
  0
SPLINE
  5
135
100
AcDbEntity
  8
0
 62
7
100
AcDbSpline
 70
8
 71
3
 72
8
 73
4
 74
0
 40
0
 40
0
 40
0
 40
0
 40
1
 40
1
 40
1
 40
1
 10
110.475669
 20
64.082083
 30
0.0
 10
114.540403
 20
68.146814
 30
0.0
 10
118.606638
 20
67.905370
 30
0.0
 10
123.448521
 20
63.311484
 30
0.0
  0
SPLINE
  5
136
100
AcDbEntity
  8
0
 62
7
100
AcDbSpline
 70
8
 71
3
 72
8
 73
4
 74
0
 40
0
 40
0
 40
0
 40
0
 40
1
 40
1
 40
1
 40
1
 10
123.448521
 20
63.311484
 30
0.0
 10
128.529949
 20
58.490321
 30
0.0
 10
133.720095
 20
50.050356
 30
0.0
 10
143.187539
 20
31.212014
 30
0.0
  0
LWPOLYLINE
  5
137
100
AcDbEntity
  8
0
 62
7
100
AcDbPolyline
 90
3
 70
0
 10
103.315381
 20
59.617791
 30
0.0
 10
105.765535
 20
57.423953
 30
0.0
 10
107.251610
 20
59.884028
 30
0.0
  0
SPLINE
  5
138
100
AcDbEntity
  8
0
 62
7
100
AcDbSpline
 70
8
 71
3
 72
8
 73
4
 74
0
 40
0
 40
0
 40
0
 40
0
 40
1
 40
1
 40
1
 40
1
 10
144.438799
 20
30.506458
 30
0.0
 10
144.707367
 20
30.953374
 30
0.0
 10
146.154007
 20
33.690577
 30
0.0
 10
147.653485
 20
36.589671
 30
0.0
  0
SPLINE
  5
139
100
AcDbEntity
  8
0
 62
7
100
AcDbSpline
 70
8
 71
3
 72
8
 73
4
 74
0
 40
0
 40
0
 40
0
 40
0
 40
1
 40
1
 40
1
 40
1
 10
147.653485
 20
36.589671
 30
0.0
 10
154.558949
 20
49.940707
 30
0.0
 10
158.132374
 20
55.937387
 30
0.0
 10
161.919488
 20
60.528951
 30
0.0
  0
SPLINE
  5
13a
100
AcDbEntity
  8
0
 62
7
100
AcDbSpline
 70
8
 71
3
 72
8
 73
4
 74
0
 40
0
 40
0
 40
0
 40
0
 40
1
 40
1
 40
1
 40
1
 10
161.919488
 20
60.528951
 30
0.0
 10
165.572530
 20
64.957960
 30
0.0
 10
169.269805
 20
67.257035
 30
0.0
 10
172.196345
 20
66.919187
 30
0.0
  0
SPLINE
  5
13b
100
AcDbEntity
  8
0
 62
7
100
AcDbSpline
 70
8
 71
3
 72
8
 73
4
 74
0
 40
0
 40
0
 40
0
 40
0
 40
1
 40
1
 40
1
 40
1
 10
172.196345
 20
66.919187
 30
0.0
 10
175.303998
 20
66.560429
 30
0.0
 10
178.190971
 20
64.258591
 30
0.0
 10
180.574267
 20
60.240113
 30
0.0
  0
SPLINE
  5
13c
100
AcDbEntity
  8
0
 62
7
100
AcDbSpline
 70
8
 71
3
 72
8
 73
4
 74
0
 40
0
 40
0
 40
0
 40
0
 40
1
 40
1
 40
1
 40
1
 10
180.574267
 20
60.240113
 30
0.0
 10
181.262675
 20
59.079384
 30
0.0
 10
181.942077
 20
57.974758
 30
0.0
 10
182.084046
 20
57.785000
 30
0.0
  0
SPLINE
  5
13d
100
AcDbEntity
  8
0
 62
7
100
AcDbSpline
 70
8
 71
3
 72
8
 73
4
 74
0
 40
0
 40
0
 40
0
 40
0
 40
1
 40
1
 40
1
 40
1
 10
182.084046
 20
57.785000
 30
0.0
 10
182.271447
 20
57.534522
 30
0.0
 10
183.011527
 20
58.038986
 30
0.0
 10
184.783897
 20
59.626060
 30
0.0
  0
SPLINE
  5
13e
100
AcDbEntity
  8
0
 62
7
100
AcDbSpline
 70
8
 71
3
 72
8
 73
4
 74
0
 40
0
 40
0
 40
0
 40
0
 40
1
 40
1
 40
1
 40
1
 10
184.783897
 20
59.626060
 30
0.0
 10
190.515864
 20
64.758765
 30
0.0
 10
196.346050
 20
68.551092
 30
0.0
 10
201.955355
 20
70.795334
 30
0.0
  0
SPLINE
  5
13f
100
AcDbEntity
  8
0
 62
7
100
AcDbSpline
 70
8
 71
3
 72
8
 73
4
 74
0
 40
0
 40
0
 40
0
 40
0
 40
1
 40
1
 40
1
 40
1
 10
201.955355
 20
70.795334
 30
0.0
 10
212.837858
 20
75.149346
 30
0.0
 10
221.658454
 20
72.142268
 30
0.0
 10
223.789545
 20
63.351173
 30
0.0
  0
SPLINE
  5
140
100
AcDbEntity
  8
0
 62
7
100
AcDbSpline
 70
8
 71
3
 72
8
 73
4
 74
0
 40
0
 40
0
 40
0
 40
0
 40
1
 40
1
 40
1
 40
1
 10
223.789545
 20
63.351173
 30
0.0
 10
224.259493
 20
61.412608
 30
0.0
 10
224.255053
 20
57.260586
 30
0.0
 10
223.780725
 20
55.025617
 30
0.0
  0
SPLINE
  5
141
100
AcDbEntity
  8
0
 62
7
100
AcDbSpline
 70
8
 71
3
 72
8
 73
4
 74
0
 40
0
 40
0
 40
0
 40
0
 40
1
 40
1
 40
1
 40
1
 10
223.780725
 20
55.025617
 30
0.0
 10
222.223014
 20
47.685904
 30
0.0
 10
217.972259
 20
40.522449
 30
0.0
 10
210.653534
 20
32.904244
 30
0.0
  0
SPLINE
  5
142
100
AcDbEntity
  8
0
 62
7
100
AcDbSpline
 70
8
 71
3
 72
8
 73
4
 74
0
 40
0
 40
0
 40
0
 40
0
 40
1
 40
1
 40
1
 40
1
 10
210.653534
 20
32.904244
 30
0.0
 10
209.254372
 20
31.447830
 30
0.0
 10
208.363673
 20
30.334269
 30
0.0
 10
208.674118
 20
30.429841
 30
0.0
  0
SPLINE
  5
143
100
AcDbEntity
  8
0
 62
7
100
AcDbSpline
 70
8
 71
3
 72
8
 73
4
 74
0
 40
0
 40
0
 40
0
 40
0
 40
1
 40
1
 40
1
 40
1
 10
208.674118
 20
30.429841
 30
0.0
 10
208.984562
 20
30.525415
 30
0.0
 10
210.294127
 20
30.919166
 30
0.0
 10
211.584534
 20
31.304619
 30
0.0
  0
SPLINE
  5
144
100
AcDbEntity
  8
0
 62
7
100
AcDbSpline
 70
8
 71
3
 72
8
 73
4
 74
0
 40
0
 40
0
 40
0
 40
0
 40
1
 40
1
 40
1
 40
1
 10
211.584534
 20
31.304619
 30
0.0
 10
241.924865
 20
40.367506
 30
0.0
 10
263.390482
 20
57.327185
 30
0.0
 10
269.743259
 20
77.254475
 30
0.0
  0
SPLINE
  5
145
100
AcDbEntity
  8
0
 62
7
100
AcDbSpline
 70
8
 71
3
 72
8
 73
4
 74
0
 40
0
 40
0
 40
0
 40
0
 40
1
 40
1
 40
1
 40
1
 10
269.743259
 20
77.254475
 30
0.0
 10
273.198590
 20
88.093113
 30
0.0
 10
271.316856
 20
97.583549
 30
0.0
 10
263.681546
 20
107.824874
 30
0.0
  0
SPLINE
  5
146
100
AcDbEntity
  8
0
 62
7
100
AcDbSpline
 70
8
 71
3
 72
8
 73
4
 74
0
 40
0
 40
0
 40
0
 40
0
 40
1
 40
1
 40
1
 40
1
 10
263.681546
 20
107.824874
 30
0.0
 10
252.545421
 20
122.761880
 30
0.0
 10
230.803044
 20
135.498084
 30
0.0
 10
203.055581
 20
143.338021
 30
0.0
  0
SPLINE
  5
147
100
AcDbEntity
  8
0
 62
7
100
AcDbSpline
 70
8
 71
3
 72
8
 73
4
 74
0
 40
0
 40
0
 40
0
 40
0
 40
1
 40
1
 40
1
 40
1
 10
203.055581
 20
143.338021
 30
0.0
 10
197.191624
 20
144.994860
 30
0.0
 10
191.886470
 20
146.324505
 30
0.0
 10
191.139408
 20
146.324505
 30
0.0
  0
SPLINE
  5
148
100
AcDbEntity
  8
0
 62
7
100
AcDbSpline
 70
8
 71
3
 72
8
 73
4
 74
0
 40
0
 40
0
 40
0
 40
0
 40
1
 40
1
 40
1
 40
1
 10
191.139408
 20
146.324505
 30
0.0
 10
190.820159
 20
146.324505
 30
0.0
 10
191.162297
 20
145.798553
 30
0.0
 10
192.194987
 20
144.701727
 30
0.0
  0
SPLINE
  5
149
100
AcDbEntity
  8
0
 62
7
100
AcDbSpline
 70
8
 71
3
 72
8
 73
4
 74
0
 40
0
 40
0
 40
0
 40
0
 40
1
 40
1
 40
1
 40
1
 10
192.194987
 20
144.701727
 30
0.0
 10
196.460339
 20
140.171489
 30
0.0
 10
198.585204
 20
137.267002
 30
0.0
 10
200.361242
 20
133.541270
 30
0.0
  0
SPLINE
  5
14a
100
AcDbEntity
  8
0
 62
7
100
AcDbSpline
 70
8
 71
3
 72
8
 73
4
 74
0
 40
0
 40
0
 40
0
 40
0
 40
1
 40
1
 40
1
 40
1
 10
200.361242
 20
133.541270
 30
0.0
 10
204.933457
 20
123.949779
 30
0.0
 10
201.810414
 20
115.621257
 30
0.0
 10
191.740784
 20
110.553940
 30
0.0
  0
SPLINE
  5
14b
100
AcDbEntity
  8
0
 62
7
100
AcDbSpline
 70
8
 71
3
 72
8
 73
4
 74
0
 40
0
 40
0
 40
0
 40
0
 40
1
 40
1
 40
1
 40
1
 10
191.740784
 20
110.553940
 30
0.0
 10
187.651960
 20
108.496331
 30
0.0
 10
182.908465
 20
107.527889
 30
0.0
 10
177.809923
 20
107.709671
 30
0.0
  0
SPLINE
  5
14c
100
AcDbEntity
  8
0
 62
7
100
AcDbSpline
 70
8
 71
3
 72
8
 73
4
 74
0
 40
0
 40
0
 40
0
 40
0
 40
1
 40
1
 40
1
 40
1
 10
177.809923
 20
107.709671
 30
0.0
 10
174.500125
 20
107.827676
 30
0.0
 10
174.367817
 20
107.857931
 30
0.0
 10
172.008382
 20
109.027076
 30
0.0
  0
SPLINE
  5
14d
100
AcDbEntity
  8
0
 62
7
100
AcDbSpline
 70
8
 71
3
 72
8
 73
4
 74
0
 40
0
 40
0
 40
0
 40
0
 40
1
 40
1
 40
1
 40
1
 10
172.008382
 20
109.027076
 30
0.0
 10
167.141415
 20
111.438755
 30
0.0
 10
163.245526
 20
116.575654
 30
0.0
 10
160.782881
 20
123.828308
 30
0.0
  0
SPLINE
  5
14e
100
AcDbEntity
  8
0
 62
7
100
AcDbSpline
 70
8
 71
3
 72
8
 73
4
 74
0
 40
0
 40
0
 40
0
 40
0
 40
1
 40
1
 40
1
 40
1
 10
160.782881
 20
123.828308
 30
0.0
 10
159.925286
 20
126.353996
 30
0.0
 10
159.894151
 20
126.624664
 30
0.0
 10
159.677145
 20
133.342284
 30
0.0
  0
SPLINE
  5
14f
100
AcDbEntity
  8
0
 62
7
100
AcDbSpline
 70
8
 71
3
 72
8
 73
4
 74
0
 40
0
 40
0
 40
0
 40
0
 40
1
 40
1
 40
1
 40
1
 10
159.677145
 20
133.342284
 30
0.0
 10
159.554297
 20
137.145228
 30
0.0
 10
159.315218
 20
141.653727
 30
0.0
 10
159.145772
 20
143.361172
 30
0.0
  0
SPLINE
  5
150
100
AcDbEntity
  8
0
 62
7
100
AcDbSpline
 70
8
 71
3
 72
8
 73
4
 74
0
 40
0
 40
0
 40
0
 40
0
 40
1
 40
1
 40
1
 40
1
 10
159.145772
 20
143.361172
 30
0.0
 10
158.816099
 20
146.683181
 30
0.0
 10
158.017080
 20
152.619049
 30
0.0
 10
157.880733
 20
152.759393
 30
0.0
  0
SPLINE
  5
151
100
AcDbEntity
  8
0
 62
7
100
AcDbSpline
 70
8
 71
3
 72
8
 73
4
 74
0
 40
0
 40
0
 40
0
 40
0
 40
1
 40
1
 40
1
 40
1
 10
157.880733
 20
152.759393
 30
0.0
 10
157.518856
 20
153.131878
 30
0.0
 10
152.370784
 20
142.388692
 30
0.0
 10
152.370784
 20
141.261042
 30
0.0
  0
SPLINE
  5
152
100
AcDbEntity
  8
0
 62
7
100
AcDbSpline
 70
8
 71
3
 72
8
 73
4
 74
0
 40
0
 40
0
 40
0
 40
0
 40
1
 40
1
 40
1
 40
1
 10
152.370784
 20
141.261042
 30
0.0
 10
152.370784
 20
141.071338
 30
0.0
 10
152.154961
 20
140.989380
 30
0.0
 10
151.876895
 20
141.073629
 30
0.0
  0
SPLINE
  5
153
100
AcDbEntity
  8
0
 62
7
100
AcDbSpline
 70
8
 71
3
 72
8
 73
4
 74
0
 40
0
 40
0
 40
0
 40
0
 40
1
 40
1
 40
1
 40
1
 10
151.876895
 20
141.073629
 30
0.0
 10
148.655721
 20
142.049604
 30
0.0
 10
142.836525
 20
142.341715
 30
0.0
 10
139.218789
 20
141.708629
 30
0.0
  0
SPLINE
  5
154
100
AcDbEntity
  8
0
 62
7
100
AcDbSpline
 70
8
 71
3
 72
8
 73
4
 74
0
 40
0
 40
0
 40
0
 40
0
 40
1
 40
1
 40
1
 40
1
 10
139.218789
 20
141.708629
 30
0.0
 10
137.806111
 20
141.461419
 30
0.0
 10
136.465474
 20
141.187912
 30
0.0
 10
136.239470
 20
141.101188
 30
0.0
  0
SPLINE
  5
155
100
AcDbEntity
  8
0
 62
7
100
AcDbSpline
 70
8
 71
3
 72
8
 73
4
 74
0
 40
0
 40
0
 40
0
 40
0
 40
1
 40
1
 40
1
 40
1
 10
136.239470
 20
141.101188
 30
0.0
 10
135.940018
 20
140.986279
 30
0.0
 10
135.697090
 20
141.360045
 30
0.0
 10
135.344298
 20
142.479227
 30
0.0
  0
SPLINE
  5
156
100
AcDbEntity
  8
0
 62
7
100
AcDbSpline
 70
8
 71
3
 72
8
 73
4
 74
0
 40
0
 40
0
 40
0
 40
0
 40
1
 40
1
 40
1
 40
1
 10
135.344298
 20
142.479227
 30
0.0
 10
134.839256
 20
144.081403
 30
0.0
 10
132.027701
 20
149.898878
 30
0.0
 10
130.841420
 20
151.795868
 30
0.0
  0
LWPOLYLINE
  5
157
100
AcDbEntity
  8
0
 62
7
100
AcDbPolyline
 90
3
 70
0
 10
143.187539
 20
31.212014
 30
0.0
 10
143.950422
 20
29.693966
 30
0.0
 10
144.438799
 20
30.506458
 30
0.0
  0
LWPOLYLINE
  5
158
100
AcDbEntity
  8
0
 62
7
100
AcDbPolyline
 90
3
 70
0
 10
130.841420
 20
151.795868
 30
0.0
 10
130.155157
 20
152.892787
 30
0.0
 10
130.155157
 20
152.892787
 30
0.0
  0
ENDSEC
  0
SECTION
  2
OBJECTS
  0
DICTIONARY
  5
C
330
0
100
AcDbDictionary
  3
ACAD_GROUP
350
D
  3
ACAD_MLINESTYLE
350
17
  0
DICTIONARY
  5
D
330
C
100
AcDbDictionary
  0
DICTIONARY
  5
1A
330
C
100
AcDbDictionary
  0
DICTIONARY
  5
17
330
C
100
AcDbDictionary
  3
STANDARD
350
18
  0
DICTIONARY
  5
19
330
C
100
AcDbDictionary
  0
ENDSEC
  0
EOF
