<?xml version="1.0" encoding="UTF-8" standalone="no"?>
<!-- Created with Inkscape (http://www.inkscape.org/) -->

<svg
   xmlns:dc="http://purl.org/dc/elements/1.1/"
   xmlns:cc="http://creativecommons.org/ns#"
   xmlns:rdf="http://www.w3.org/1999/02/22-rdf-syntax-ns#"
   xmlns:svg="http://www.w3.org/2000/svg"
   xmlns="http://www.w3.org/2000/svg"
   xmlns:sodipodi="http://sodipodi.sourceforge.net/DTD/sodipodi-0.dtd"
   xmlns:inkscape="http://www.inkscape.org/namespaces/inkscape"
   width="210mm"
   height="297mm"
   viewBox="0 0 744.09448819 1052.3622047"
   id="svg2"
   version="1.1"
   inkscape:version="0.91 r13725"
   sodipodi:docname="fish.svg">
  <defs
     id="defs4" />
  <sodipodi:namedview
     id="base"
     pagecolor="#ffffff"
     bordercolor="#666666"
     borderopacity="1.0"
     inkscape:pageopacity="0.0"
     inkscape:pageshadow="2"
     inkscape:zoom="0.49497475"
     inkscape:cx="741.59081"
     inkscape:cy="445.09616"
     inkscape:document-units="mm"
     inkscape:current-layer="layer1"
     showgrid="false"
     inkscape:window-width="1440"
     inkscape:window-height="837"
     inkscape:window-x="-4"
     inkscape:window-y="-4"
     inkscape:window-maximized="1" />
  <metadata
     id="metadata7">
    <rdf:RDF>
      <cc:Work
         rdf:about="">
        <dc:format>image/svg+xml</dc:format>
        <dc:type
           rdf:resource="http://purl.org/dc/dcmitype/StillImage" />
        <dc:title></dc:title>
      </cc:Work>
    </rdf:RDF>
  </metadata>
  <g
     inkscape:label="Layer 1"
     inkscape:groupmode="layer"
     id="layer1">
    <path
       id="path4238"
       style="fill:#000000"
       d="m 340.34464,440.8659 c -5.49933,-0.10847 -20.94844,8.09102 -29.32227,16.46485 -10.34983,10.26644 -11.22019,14.53148 -18.48828,27.94726 -7.10831,17.5984 -9.95689,33.42848 -10.02539,55.70117 -0.0643,20.88395 1.5957,32.51047 5.95508,41.69727 4.20225,8.85553 5.48674,6.04736 4.40625,-9.64063 -1.7422,-25.29555 3.32163,-53.09193 14.03711,-77.05664 l 4.61914,-10.33398 c 8.32737,-15.00043 5.90725,-10.64792 10.68945,-17.22071 1.47622,-2.74116 6.61063,-9.40763 11.41016,-14.81445 4.79953,-5.40681 8.72656,-10.46615 8.72656,-11.24219 0,-1.00965 -0.73874,-1.47692 -2.00781,-1.50195 z m -36.1836,31.02539 a 2.2946444,2.2946441 0 0 1 2.29493,2.29297 2.2946444,2.2946441 0 0 1 -2.29493,2.29492 2.2946444,2.2946441 0 0 1 -2.29296,-2.29492 2.2946444,2.2946441 0 0 1 2.29296,-2.29297 z m 6.31446,2.52539 a 2.2946444,2.2946441 0 0 1 2.29492,2.29297 2.2946444,2.2946441 0 0 1 -2.29492,2.29492 2.2946444,2.2946441 0 0 1 -2.29492,-2.29492 2.2946444,2.2946441 0 0 1 2.29492,-2.29297 z"
       inkscape:connector-curvature="0" />
    <path
       id="path4236"
       style="fill:#000000"
       d="m 311.26261,423.17645 c -6.87763,0 -21.1454,4.44485 -30.90821,9.6289 -16.7258,8.76744 -18.37795,10.71142 -29.5664,23.8418 -14.83234,16.51243 -28.98924,44.70785 -33.76953,67.25586 -2.40152,11.32763 -2.74787,33.70348 -0.60938,39.32813 2.03042,5.34039 4.92549,3.93091 6.375,-3.10157 4.40731,-21.38256 8.99736,-37.45011 14.0332,-49.13086 6.69388,-15.52661 18.66084,-36.3318 27.47071,-44.86718 13.54728,-12.74534 12.11149,-12.93425 23.17187,-19.58789 3.18128,-2.72304 11.93633,-8.19391 19.45508,-12.15821 12.44788,-6.56324 13.42677,-7.38735 10.93555,-9.20898 -1.50472,-1.10028 -4.46992,-2 -6.58789,-2 z m -40.1836,17.65234 a 2.2946444,2.2946441 0 0 1 2.29493,2.29492 2.2946444,2.2946441 0 0 1 -2.29493,2.29297 2.2946444,2.2946441 0 0 1 -2.29492,-2.29297 2.2946444,2.2946441 0 0 1 2.29492,-2.29492 z m 4.04102,5.30274 a 2.2946444,2.2946441 0 0 1 2.29492,2.29492 2.2946444,2.2946441 0 0 1 -2.29492,2.29492 2.2946444,2.2946441 0 0 1 -2.29492,-2.29492 2.2946444,2.2946441 0 0 1 2.29492,-2.29492 z"
       inkscape:connector-curvature="0" />
    <path
       id="path4234"
       style="fill:#000000"
       d="m 362.61417,444.13348 c -0.67741,0.0561 -1.52042,0.22405 -2.36523,0.49219 -4.57072,1.45068 -12.23811,13.56607 -15.00586,23.70898 -2.57442,13.43323 -2.55897,14.46691 0.10156,30.66992 4.44687,18.86531 15.58569,38.99216 28.01172,50.61524 6.27459,5.86917 11.96875,8.82257 11.96875,6.20703 0,-0.39167 -2.40793,-4.47564 -5.34961,-9.07422 -9.5688,-14.95843 -15.63776,-36.6292 -18.90821,-50.56836 -3.46762,-12.78773 -1.76384,-17.39313 -0.93359,-28.28125 0,-3.0678 1.01743,-9.48035 2.25977,-14.25 1.24234,-4.76965 1.95968,-8.97197 1.59375,-9.33789 -0.18297,-0.18297 -0.69564,-0.23777 -1.37305,-0.18164 z m -15.26758,36.34375 a 2.2946444,2.2946441 0 0 1 2.29492,2.29492 2.2946444,2.2946441 0 0 1 -2.29492,2.29297 2.2946444,2.2946441 0 0 1 -2.29492,-2.29297 2.2946444,2.2946441 0 0 1 2.29492,-2.29492 z m 6.81836,0 a 2.2946444,2.2946441 0 0 1 2.29492,2.29492 2.2946444,2.2946441 0 0 1 -2.29492,2.29297 2.2946444,2.2946441 0 0 1 -2.29492,-2.29297 2.2946444,2.2946441 0 0 1 2.29492,-2.29492 z"
       inkscape:connector-curvature="0" />
    <path
       id="path4232"
       style="fill:#000000"
       d="m 386.77823,432.06707 c -4.54496,0 -7.8637,23.40424 -4.51758,31.85938 3.32356,9.62409 5.38071,12.39635 12.7461,21.14258 7.08369,8.27569 22.36969,17.76195 36.50976,22.6582 11.25242,3.89635 14.5676,4.27749 14.5586,1.67578 -0.002,-0.56314 -3.51622,-2.85892 -7.8086,-5.10156 -9.47829,-4.95211 -21.6487,-15.39975 -29.47656,-25.30274 -9.9549,-9.0248 -14.77689,-25.07125 -16.88281,-33.5664 -3.45943,-13.62795 -3.35753,-13.36524 -5.12891,-13.36524 z m 7.03516,31.74219 a 2.2946444,2.2946441 0 0 1 2.29492,2.29492 2.2946444,2.2946441 0 0 1 -2.29492,2.29492 2.2946444,2.2946441 0 0 1 -2.29492,-2.29492 2.2946444,2.2946441 0 0 1 2.29492,-2.29492 z m -5.05078,3.2832 a 2.2946444,2.2946441 0 0 1 2.29492,2.29493 2.2946444,2.2946441 0 0 1 -2.29492,2.29492 2.2946444,2.2946441 0 0 1 -2.29493,-2.29492 2.2946444,2.2946441 0 0 1 2.29493,-2.29493 z"
       inkscape:connector-curvature="0" />
    <path
       id="path4230"
       style="fill:#000000"
       d="m 259.11808,397.69403 c -5.67168,-0.10479 -10.38026,1.2988 -23.45508,4.67382 -22.95964,7.16345 -42.39292,18.80479 -60.5293,36.25977 -9.07306,8.73218 -16.52344,18.77728 -16.52344,22.27539 0,2.21277 3.60021,0.0911 11.33985,-6.68164 18.57719,-16.25648 41.03956,-28.26659 63.70898,-34.06445 28.70562,-7.2725 27.02368,-6.97424 52.75781,-5.17188 15.22759,0.98694 16.16529,0.88628 15.67188,-1.67578 -0.76329,-3.96346 -17.65148,-11.86304 -29.70703,-13.89648 -6.11147,-1.04918 -9.86067,-1.65588 -13.26367,-1.71875 z m -4.04688,2.59179 a 2.2946444,2.2946441 0 0 1 2.29492,2.29493 2.2946444,2.2946441 0 0 1 -2.29492,2.29296 2.2946444,2.2946441 0 0 1 -2.29297,-2.29296 2.2946444,2.2946441 0 0 1 2.29297,-2.29493 z m 2.32227,7.41016 a 2.2946444,2.2946441 0 0 1 2.29492,2.29492 2.2946444,2.2946441 0 0 1 -2.29492,2.29492 2.2946444,2.2946441 0 0 1 -2.29493,-2.29492 2.2946444,2.2946441 0 0 1 2.29493,-2.29492 z"
       inkscape:connector-curvature="0" />
    <path
       id="path4228"
       style="fill:#000000"
       d="m 410.41886,411.70575 c -0.46546,0.0147 -0.86706,0.39975 -1.33399,1.09765 -2.73121,4.08229 -1.68381,14.09154 2.24805,21.48633 5.71567,10.01198 10.53908,12.99874 19.78125,16.41406 2.93944,1.17613 8.34361,2.76454 12.00781,3.5293 7.77376,1.62247 22.52693,0.79399 26.82422,-1.50586 5.02155,-2.68745 2.33462,-4.93169 -8.97852,-7.5 -5.94758,-1.35023 -14.08942,-3.98775 -18.09374,-5.86328 -12.13847,-5.72147 -18.43131,-10.06532 -28.9961,-24.36524 -1.73012,-2.31247 -2.68323,-3.31747 -3.45898,-3.29296 z m 16.22461,22.30468 a 2.2946444,2.2946441 0 0 1 2.29492,2.29297 2.2946444,2.2946441 0 0 1 -2.29492,2.29492 2.2946444,2.2946441 0 0 1 -2.29493,-2.29492 2.2946444,2.2946441 0 0 1 2.29493,-2.29297 z m -4.29297,4.79688 a 2.2946444,2.2946441 0 0 1 2.29492,2.29492 2.2946444,2.2946441 0 0 1 -2.29492,2.29492 2.2946444,2.2946441 0 0 1 -2.29492,-2.29492 2.2946444,2.2946441 0 0 1 2.29492,-2.29492 z"
       inkscape:connector-curvature="0" />
    <path
       id="path4226"
       style="fill:#000000"
       d="m 437.82706,380.71942 c -0.17344,-0.004 -0.32237,0.0287 -0.44336,0.10351 -2.63376,1.62776 -1.97315,9.25977 1.50195,17.33789 5.56571,9.50666 6.79853,13.74152 24.44922,14.87696 6.95714,0 14.01515,-0.87918 16.96289,-2.11133 5.36222,-2.24139 9.77054,-6.49116 8.2793,-7.98242 -0.68832,-0.68831 -15.72137,-2.72311 -25.08789,-3.39649 -9.32377,-3.23231 -12.08442,-4.87791 -19.58984,-13.99805 -2.44252,-2.9093 -4.85817,-4.80272 -6.07227,-4.83007 z m 16.13672,17.93359 a 2.2946444,2.2946441 0 0 1 2.29492,2.29492 2.2946444,2.2946441 0 0 1 -2.29492,2.29492 2.2946444,2.2946441 0 0 1 -2.29492,-2.29492 2.2946444,2.2946441 0 0 1 2.29492,-2.29492 z m -3.21289,4.82031 a 2.2946444,2.2946441 0 0 1 2.29297,2.29493 2.2946444,2.2946441 0 0 1 -2.29297,2.29492 2.2946444,2.2946441 0 0 1 -2.29492,-2.29492 2.2946444,2.2946441 0 0 1 2.29492,-2.29493 z"
       inkscape:connector-curvature="0" />
    <path
       id="path4222"
       style="fill:#000000"
       d="m 237.8544,273.49676 c -1.98997,-0.0568 -3.46188,1.23665 -5.42578,2.62109 -4.91161,4.60591 -11.23736,9.28308 -21.48047,20.06641 -21.68258,22.82612 -35.97968,53.34653 -36.02148,76.89649 -0.0152,8.58035 0.42628,10.229 3.27539,12.2246 5.85283,4.09948 11.59486,2.98583 62.15039,-12.05664 13.81844,-3.62783 2e-5,9e-5 27.01172,-7.52929 13.28283,-3.90787 20.16211,-9.14134 20.16211,-15.33789 0,-8.11951 -25.088,-53.39114 -37.28711,-67.28516 -6.41176,-7.2197 -9.82622,-9.52654 -12.38477,-9.59961 z m -0.5332,7.12891 a 2.2946444,2.2946441 0 0 1 2.29492,2.29492 2.2946444,2.2946441 0 0 1 -2.29492,2.29492 2.2946444,2.2946441 0 0 1 -2.29492,-2.29492 2.2946444,2.2946441 0 0 1 2.29492,-2.29492 z m 18.23047,41.66211 c 2.91712,-0.11599 5.75364,1.01029 7.44141,3.41992 3.25077,4.64113 2.87303,8.12697 -1.33204,12.33203 -4.44337,4.44338 -8.07585,4.59953 -13.20312,0.56641 -4.70334,-3.69964 -4.93117,-7.07786 -0.83203,-12.28907 2.01109,-2.55669 5.00866,-3.9133 7.92578,-4.02929 z m -13.97656,40.07226 a 2.2946444,2.2946441 0 0 1 2.29492,2.29492 2.2946444,2.2946441 0 0 1 -2.29492,2.29493 2.2946444,2.2946441 0 0 1 -2.29493,-2.29493 2.2946444,2.2946441 0 0 1 2.29493,-2.29492 z"
       inkscape:connector-curvature="0" />
    <path
       id="path4144"
       style="fill:#000000"
       d="m 513.55558,270.24285 c -1.03206,-0.007 -2.21986,0.53956 -3.72071,1.78907 -4.68535,2.51377 -37.3222,71.92759 -39.5957,88.67383 -0.73681,14.11289 1.91616,16.29228 10.98437,20.25195 4.30972,2.14998 19.08269,4.41213 37.4629,5.73633 13.39206,0.96481 57.39076,-0.48413 61.43945,-2.02344 8.04283,-3.05789 3.14631,-12.96589 -17.10352,-34.60938 -10.62414,-11.35532 -12.59423,-12.83007 -17.15234,-12.83007 -6.28549,0 -10.88281,-2.27453 -10.88281,-5.38477 0,-1.27439 1.0452,-4.52148 2.32422,-7.2168 2.21226,-4.662 2.13077,-5.39537 -1.69141,-15.04297 -4.442,-11.21215 -13.43237,-29.79526 -15.88672,-32.83789 -2.39566,-3.7906 -3.90722,-6.48954 -6.17773,-6.50586 z m -0.24414,5.42383 a 2.2946444,2.2946441 0 0 1 2.29492,2.29492 2.2946444,2.2946441 0 0 1 -2.29492,2.29493 2.2946444,2.2946441 0 0 1 -2.29493,-2.29493 2.2946444,2.2946441 0 0 1 2.29493,-2.29492 z m -37.62891,92.68164 a 2.2946444,2.2946441 0 0 1 2.29492,2.29493 2.2946444,2.2946441 0 0 1 -2.29492,2.29492 2.2946444,2.2946441 0 0 1 -2.29492,-2.29492 2.2946444,2.2946441 0 0 1 2.29492,-2.29493 z"
       inkscape:connector-curvature="0" />
  </g>
</svg>
