  0
SECTION
  2
HEADER
  9
$ACADVER
  1
AC1014
  9
$HANDSEED
  5
FFFF
  9
$MEASUREMENT
 70
     1
  0
ENDSEC
  0
SECTION
  2
TABLES
  0
TABLE
  2
VPORT
  5
8
330
0
100
AcDbSymbolTable
 70
     4
  0
VPORT
  5
2E
330
8
100
AcDbSymbolTableRecord
100
AcDbViewportTableRecord
  2
*ACTIVE
 70
     0
 10
0.0
 20
0.0
 11
1.0
 21
1.0
 12
210.0
 22
148.5
 13
0.0
 23
0.0
 14
10.0
 24
10.0
 15
10.0
 25
10.0
 16
0.0
 26
0.0
 36
1.0
 17
0.0
 27
0.0
 37
0.0
 40
341.0
 41
1.24
 42
50.0
 43
0.0
 44
0.0
 50
0.0
 51
0.0
 71
     0
 72
   100
 73
     1
 74
     3
 75
     0
 76
     0
 77
     0
 78
     0
  0
ENDTAB
  0
TABLE
  2
LTYPE
  5
5
330
0
100
AcDbSymbolTable
 70
     1
  0
LTYPE
  5
14
330
5
100
AcDbSymbolTableRecord
100
AcDbLinetypeTableRecord
  2
BYBLOCK
 70
     0
  3

 72
    65
 73
     0
 40
0.0
  0
LTYPE
  5
15
330
5
100
AcDbSymbolTableRecord
100
AcDbLinetypeTableRecord
  2
BYLAYER
 70
     0
  3

 72
    65
 73
     0
 40
0.0
  0
LTYPE
  5
16
330
5
100
AcDbSymbolTableRecord
100
AcDbLinetypeTableRecord
  2
CONTINUOUS
 70
     0
  3
Solid line
 72
    65
 73
     0
 40
0.0
  0
ENDTAB
  0
TABLE
  2
LAYER
  5
2
100
AcDbSymbolTable
 70
2
  0
LAYER
  5
50
100
AcDbSymbolTableRecord
100
AcDbLayerTableRecord
  2
0
 70
0
  6
CONTINUOUS
  0
LAYER
  5
51
100
AcDbSymbolTableRecord
100
AcDbLayerTableRecord
  2
Layer_1
 70
0
  6
CONTINUOUS
  0
ENDTAB
  0
TABLE
  2
STYLE
  5
3
330
0
100
AcDbSymbolTable
 70
     1
  0
STYLE
  5
11
330
3
100
AcDbSymbolTableRecord
100
AcDbTextStyleTableRecord
  2
STANDARD
 70
     0
 40
0.0
 41
1.0
 50
0.0
 71
     0
 42
2.5
  3
txt
  4

  0
ENDTAB
  0
TABLE
  2
VIEW
  5
6
330
0
100
AcDbSymbolTable
 70
     0
  0
ENDTAB
  0
TABLE
  2
UCS
  5
7
330
0
100
AcDbSymbolTable
 70
     0
  0
ENDTAB
  0
TABLE
  2
APPID
  5
9
330
0
100
AcDbSymbolTable
 70
     2
  0
APPID
  5
12
330
9
100
AcDbSymbolTableRecord
100
AcDbRegAppTableRecord
  2
ACAD
 70
     0
  0
ENDTAB
  0
TABLE
  2
DIMSTYLE
  5
A
330
0
100
AcDbSymbolTable
 70
     1
  0
DIMSTYLE
105
27
330
A
100
AcDbSymbolTableRecord
100
AcDbDimStyleTableRecord
  2
ISO-25
 70
     0
  3

  4

  5

  6

  7

 40
1.0
 41
2.5
 42
0.625
 43
3.75
 44
1.25
 45
0.0
 46
0.0
 47
0.0
 48
0.0
140
2.5
141
2.5
142
0.0
143
0.03937007874016
144
1.0
145
0.0
146
1.0
147
0.625
 71
     0
 72
     0
 73
     0
 74
     0
 75
     0
 76
     0
 77
     1
 78
     8
170
     0
171
     3
172
     1
173
     0
174
     0
175
     0
176
     0
177
     0
178
     0
270
     2
271
     2
272
     2
273
     2
274
     3
340
11
275
     0
280
     0
281
     0
282
     0
283
     0
284
     8
285
     0
286
     0
287
     3
288
     0
  0
ENDTAB
  0
TABLE
  2
BLOCK_RECORD
  5
1
330
0
100
AcDbSymbolTable
 70
     1
  0
BLOCK_RECORD
  5
1F
330
1
100
AcDbSymbolTableRecord
100
AcDbBlockTableRecord
  2
*MODEL_SPACE
  0
BLOCK_RECORD
  5
1B
330
1
100
AcDbSymbolTableRecord
100
AcDbBlockTableRecord
  2
*PAPER_SPACE
  0
ENDTAB
  0
ENDSEC
  0
SECTION
  2
BLOCKS
  0
BLOCK
  5
20
330
1F
100
AcDbEntity
  8
0
100
AcDbBlockBegin
  2
*MODEL_SPACE
 70
     0
 10
0.0
 20
0.0
 30
0.0
  3
*MODEL_SPACE
  1

  0
ENDBLK
  5
21
330
1F
100
AcDbEntity
  8
0
100
AcDbBlockEnd
  0
BLOCK
  5
1C
330
1B
100
AcDbEntity
 67
     1
  8
0
100
AcDbBlockBegin
  2
*PAPER_SPACE
  1

  0
ENDBLK
  5
1D
330
1B
100
AcDbEntity
 67
     1
  8
0
100
AcDbBlockEnd
  0
ENDSEC
  0
SECTION
  2
ENTITIES
  0
LWPOLYLINE
  5
100
100
AcDbEntity
  8
Layer_1
 62
1
100
AcDbPolyline
 90
7
 70
1
 10
30.078026
 20
214.295854
 30
0.0
 10
27.600904
 20
214.292289
 30
0.0
 10
26.359255
 20
216.435757
 30
0.0
 10
27.594728
 20
218.582790
 30
0.0
 10
30.071851
 20
218.586355
 30
0.0
 10
31.313499
 20
216.442888
 30
0.0
 10
30.078026
 20
214.295854
 30
0.0
  0
LWPOLYLINE
  5
101
100
AcDbEntity
  8
Layer_1
 62
3
100
AcDbPolyline
 90
7
 70
1
 10
30.326356
 20
213.867160
 30
0.0
 10
27.353809
 20
213.862882
 30
0.0
 10
25.863831
 20
216.435043
 30
0.0
 10
27.346399
 20
219.011483
 30
0.0
 10
30.318945
 20
219.015761
 30
0.0
 10
31.808923
 20
216.443600
 30
0.0
 10
30.326356
 20
213.867160
 30
0.0
  0
LWPOLYLINE
  5
102
100
AcDbEntity
  8
Layer_1
 62
1
100
AcDbPolyline
 90
7
 70
1
 10
34.540551
 20
211.727971
 30
0.0
 10
32.063429
 20
211.724406
 30
0.0
 10
30.821780
 20
213.867874
 30
0.0
 10
32.057253
 20
216.014907
 30
0.0
 10
34.534375
 20
216.018472
 30
0.0
 10
35.776024
 20
213.875005
 30
0.0
 10
34.540551
 20
211.727971
 30
0.0
  0
LWPOLYLINE
  5
103
100
AcDbEntity
  8
Layer_1
 62
3
100
AcDbPolyline
 90
7
 70
1
 10
34.788881
 20
211.299277
 30
0.0
 10
31.816334
 20
211.294999
 30
0.0
 10
30.326356
 20
213.867160
 30
0.0
 10
31.808924
 20
216.443600
 30
0.0
 10
34.781470
 20
216.447878
 30
0.0
 10
36.271448
 20
213.875717
 30
0.0
 10
34.788881
 20
211.299277
 30
0.0
  0
LWPOLYLINE
  5
104
100
AcDbEntity
  8
Layer_1
 62
1
100
AcDbPolyline
 90
7
 70
1
 10
30.085436
 20
209.147253
 30
0.0
 10
27.608314
 20
209.143688
 30
0.0
 10
26.366666
 20
211.287156
 30
0.0
 10
27.602139
 20
213.434189
 30
0.0
 10
30.079261
 20
213.437754
 30
0.0
 10
31.320909
 20
211.294286
 30
0.0
 10
30.085436
 20
209.147253
 30
0.0
  0
LWPOLYLINE
  5
105
100
AcDbEntity
  8
Layer_1
 62
3
100
AcDbPolyline
 90
7
 70
1
 10
30.333766
 20
208.718559
 30
0.0
 10
27.361220
 20
208.714280
 30
0.0
 10
25.871241
 20
211.286442
 30
0.0
 10
27.353809
 20
213.862882
 30
0.0
 10
30.326356
 20
213.867160
 30
0.0
 10
31.816334
 20
211.294999
 30
0.0
 10
30.333766
 20
208.718559
 30
0.0
  0
LWPOLYLINE
  5
106
100
AcDbEntity
  8
Layer_1
 62
1
100
AcDbPolyline
 90
7
 70
1
 10
34.547961
 20
206.579370
 30
0.0
 10
32.070839
 20
206.575805
 30
0.0
 10
30.829190
 20
208.719273
 30
0.0
 10
32.064664
 20
210.866306
 30
0.0
 10
34.541786
 20
210.869871
 30
0.0
 10
35.783434
 20
208.726403
 30
0.0
 10
34.547961
 20
206.579370
 30
0.0
  0
LWPOLYLINE
  5
107
100
AcDbEntity
  8
Layer_1
 62
3
100
AcDbPolyline
 90
7
 70
1
 10
34.796291
 20
206.150676
 30
0.0
 10
31.823744
 20
206.146397
 30
0.0
 10
30.333766
 20
208.718559
 30
0.0
 10
31.816334
 20
211.294999
 30
0.0
 10
34.788880
 20
211.299277
 30
0.0
 10
36.278859
 20
208.727116
 30
0.0
 10
34.796291
 20
206.150676
 30
0.0
  0
LWPOLYLINE
  5
108
100
AcDbEntity
  8
Layer_1
 62
1
100
AcDbPolyline
 90
7
 70
1
 10
39.003075
 20
209.160088
 30
0.0
 10
36.525953
 20
209.156523
 30
0.0
 10
35.284305
 20
211.299991
 30
0.0
 10
36.519778
 20
213.447024
 30
0.0
 10
38.996900
 20
213.450589
 30
0.0
 10
40.238548
 20
211.307122
 30
0.0
 10
39.003075
 20
209.160088
 30
0.0
  0
LWPOLYLINE
  5
109
100
AcDbEntity
  8
Layer_1
 62
3
100
AcDbPolyline
 90
7
 70
1
 10
39.251405
 20
208.731394
 30
0.0
 10
36.278859
 20
208.727116
 30
0.0
 10
34.788880
 20
211.299277
 30
0.0
 10
36.271448
 20
213.875717
 30
0.0
 10
39.243995
 20
213.879995
 30
0.0
 10
40.733973
 20
211.307834
 30
0.0
 10
39.251405
 20
208.731394
 30
0.0
  0
LWPOLYLINE
  5
10a
100
AcDbEntity
  8
Layer_1
 62
1
100
AcDbPolyline
 90
7
 70
1
 10
43.458190
 20
211.740807
 30
0.0
 10
40.981067
 20
211.737241
 30
0.0
 10
39.739419
 20
213.880709
 30
0.0
 10
40.974892
 20
216.027742
 30
0.0
 10
43.452014
 20
216.031308
 30
0.0
 10
44.693663
 20
213.887840
 30
0.0
 10
43.458190
 20
211.740807
 30
0.0
  0
LWPOLYLINE
  5
10b
100
AcDbEntity
  8
Layer_1
 62
3
100
AcDbPolyline
 90
7
 70
1
 10
43.706520
 20
211.312112
 30
0.0
 10
40.733973
 20
211.307834
 30
0.0
 10
39.243995
 20
213.879995
 30
0.0
 10
40.726562
 20
216.456435
 30
0.0
 10
43.699109
 20
216.460713
 30
0.0
 10
45.189087
 20
213.888552
 30
0.0
 10
43.706520
 20
211.312112
 30
0.0
  0
LWPOLYLINE
  5
10c
100
AcDbEntity
  8
Layer_1
 62
1
100
AcDbPolyline
 90
7
 70
1
 10
43.465600
 20
206.592205
 30
0.0
 10
40.988478
 20
206.588640
 30
0.0
 10
39.746829
 20
208.732108
 30
0.0
 10
40.982303
 20
210.879141
 30
0.0
 10
43.459425
 20
210.882706
 30
0.0
 10
44.701073
 20
208.739239
 30
0.0
 10
43.465600
 20
206.592205
 30
0.0
  0
LWPOLYLINE
  5
10d
100
AcDbEntity
  8
Layer_1
 62
3
100
AcDbPolyline
 90
7
 70
1
 10
43.713930
 20
206.163511
 30
0.0
 10
40.741383
 20
206.159233
 30
0.0
 10
39.251405
 20
208.731394
 30
0.0
 10
40.733973
 20
211.307834
 30
0.0
 10
43.706519
 20
211.312112
 30
0.0
 10
45.196497
 20
208.739951
 30
0.0
 10
43.713930
 20
206.163511
 30
0.0
  0
LWPOLYLINE
  5
10e
100
AcDbEntity
  8
Layer_1
 62
1
100
AcDbPolyline
 90
7
 70
1
 10
47.920714
 20
209.172923
 30
0.0
 10
45.443592
 20
209.169358
 30
0.0
 10
44.201943
 20
211.312826
 30
0.0
 10
45.437417
 20
213.459859
 30
0.0
 10
47.914539
 20
213.463424
 30
0.0
 10
49.156187
 20
211.319957
 30
0.0
 10
47.920714
 20
209.172923
 30
0.0
  0
LWPOLYLINE
  5
10f
100
AcDbEntity
  8
Layer_1
 62
3
100
AcDbPolyline
 90
7
 70
1
 10
48.169044
 20
208.744229
 30
0.0
 10
45.196497
 20
208.739951
 30
0.0
 10
43.706519
 20
211.312112
 30
0.0
 10
45.189087
 20
213.888552
 30
0.0
 10
48.161634
 20
213.892830
 30
0.0
 10
49.651612
 20
211.320669
 30
0.0
 10
48.169044
 20
208.744229
 30
0.0
  0
LWPOLYLINE
  5
110
100
AcDbEntity
  8
Layer_1
 62
1
100
AcDbPolyline
 90
7
 70
1
 10
52.383239
 20
206.605040
 30
0.0
 10
49.906117
 20
206.601475
 30
0.0
 10
48.664468
 20
208.744943
 30
0.0
 10
49.899942
 20
210.891976
 30
0.0
 10
52.377064
 20
210.895541
 30
0.0
 10
53.618712
 20
208.752074
 30
0.0
 10
52.383239
 20
206.605040
 30
0.0
  0
LWPOLYLINE
  5
111
100
AcDbEntity
  8
Layer_1
 62
3
100
AcDbPolyline
 90
7
 70
1
 10
52.631569
 20
206.176346
 30
0.0
 10
49.659022
 20
206.172068
 30
0.0
 10
48.169044
 20
208.744229
 30
0.0
 10
49.651612
 20
211.320669
 30
0.0
 10
52.624158
 20
211.324947
 30
0.0
 10
54.114137
 20
208.752786
 30
0.0
 10
52.631569
 20
206.176346
 30
0.0
  0
LWPOLYLINE
  5
112
100
AcDbEntity
  8
Layer_1
 62
1
100
AcDbPolyline
 90
7
 70
1
 10
56.838353
 20
209.185759
 30
0.0
 10
54.361231
 20
209.182193
 30
0.0
 10
53.119583
 20
211.325661
 30
0.0
 10
54.355056
 20
213.472694
 30
0.0
 10
56.832178
 20
213.476260
 30
0.0
 10
58.073826
 20
211.332792
 30
0.0
 10
56.838353
 20
209.185759
 30
0.0
  0
LWPOLYLINE
  5
113
100
AcDbEntity
  8
Layer_1
 62
3
100
AcDbPolyline
 90
7
 70
1
 10
57.086683
 20
208.757064
 30
0.0
 10
54.114137
 20
208.752786
 30
0.0
 10
52.624158
 20
211.324947
 30
0.0
 10
54.106726
 20
213.901387
 30
0.0
 10
57.079273
 20
213.905666
 30
0.0
 10
58.569251
 20
211.333504
 30
0.0
 10
57.086683
 20
208.757064
 30
0.0
  0
LWPOLYLINE
  5
114
100
AcDbEntity
  8
Layer_1
 62
1
100
AcDbPolyline
 90
7
 70
1
 10
65.748581
 20
214.347195
 30
0.0
 10
63.271459
 20
214.343630
 30
0.0
 10
62.029810
 20
216.487098
 30
0.0
 10
63.265283
 20
218.634131
 30
0.0
 10
65.742405
 20
218.637696
 30
0.0
 10
66.984054
 20
216.494228
 30
0.0
 10
65.748581
 20
214.347195
 30
0.0
  0
LWPOLYLINE
  5
115
100
AcDbEntity
  8
Layer_1
 62
3
100
AcDbPolyline
 90
7
 70
1
 10
65.996911
 20
213.918501
 30
0.0
 10
63.024364
 20
213.914223
 30
0.0
 10
61.534386
 20
216.486384
 30
0.0
 10
63.016954
 20
219.062824
 30
0.0
 10
65.989500
 20
219.067102
 30
0.0
 10
67.479478
 20
216.494941
 30
0.0
 10
65.996911
 20
213.918501
 30
0.0
  0
LWPOLYLINE
  5
116
100
AcDbEntity
  8
Layer_1
 62
1
100
AcDbPolyline
 90
7
 70
1
 10
56.845763
 20
204.037157
 30
0.0
 10
54.368641
 20
204.033592
 30
0.0
 10
53.126992
 20
206.177060
 30
0.0
 10
54.362465
 20
208.324093
 30
0.0
 10
56.839587
 20
208.327658
 30
0.0
 10
58.081236
 20
206.184191
 30
0.0
 10
56.845763
 20
204.037157
 30
0.0
  0
LWPOLYLINE
  5
117
100
AcDbEntity
  8
Layer_1
 62
3
100
AcDbPolyline
 90
7
 70
1
 10
57.094093
 20
203.608463
 30
0.0
 10
54.121546
 20
203.604185
 30
0.0
 10
52.631568
 20
206.176346
 30
0.0
 10
54.114136
 20
208.752786
 30
0.0
 10
57.086682
 20
208.757064
 30
0.0
 10
58.576660
 20
206.184903
 30
0.0
 10
57.094093
 20
203.608463
 30
0.0
  0
LWPOLYLINE
  5
118
100
AcDbEntity
  8
Layer_1
 62
1
100
AcDbPolyline
 90
7
 70
1
 10
52.390649
 20
201.456439
 30
0.0
 10
49.913527
 20
201.452874
 30
0.0
 10
48.671879
 20
203.596341
 30
0.0
 10
49.907352
 20
205.743375
 30
0.0
 10
52.384474
 20
205.746940
 30
0.0
 10
53.626122
 20
203.603472
 30
0.0
 10
52.390649
 20
201.456439
 30
0.0
  0
LWPOLYLINE
  5
119
100
AcDbEntity
  8
Layer_1
 62
3
100
AcDbPolyline
 90
7
 70
1
 10
52.638979
 20
201.027745
 30
0.0
 10
49.666433
 20
201.023466
 30
0.0
 10
48.176454
 20
203.595628
 30
0.0
 10
49.659022
 20
206.172068
 30
0.0
 10
52.631569
 20
206.176346
 30
0.0
 10
54.121547
 20
203.604185
 30
0.0
 10
52.638979
 20
201.027745
 30
0.0
  0
LWPOLYLINE
  5
11a
100
AcDbEntity
  8
Layer_1
 62
1
100
AcDbPolyline
 90
7
 70
1
 10
47.928125
 20
204.024322
 30
0.0
 10
45.451002
 20
204.020757
 30
0.0
 10
44.209354
 20
206.164224
 30
0.0
 10
45.444827
 20
208.311258
 30
0.0
 10
47.921949
 20
208.314823
 30
0.0
 10
49.163598
 20
206.171355
 30
0.0
 10
47.928125
 20
204.024322
 30
0.0
  0
LWPOLYLINE
  5
11b
100
AcDbEntity
  8
Layer_1
 62
3
100
AcDbPolyline
 90
7
 70
1
 10
48.176454
 20
203.595628
 30
0.0
 10
45.203908
 20
203.591349
 30
0.0
 10
43.713929
 20
206.163511
 30
0.0
 10
45.196497
 20
208.739951
 30
0.0
 10
48.169044
 20
208.744229
 30
0.0
 10
49.659022
 20
206.172068
 30
0.0
 10
48.176454
 20
203.595628
 30
0.0
  0
LWPOLYLINE
  5
11c
100
AcDbEntity
  8
Layer_1
 62
1
100
AcDbPolyline
 90
7
 70
1
 10
43.473010
 20
201.443604
 30
0.0
 10
40.995888
 20
201.440039
 30
0.0
 10
39.754240
 20
203.583506
 30
0.0
 10
40.989713
 20
205.730540
 30
0.0
 10
43.466835
 20
205.734105
 30
0.0
 10
44.708483
 20
203.590637
 30
0.0
 10
43.473010
 20
201.443604
 30
0.0
  0
LWPOLYLINE
  5
11d
100
AcDbEntity
  8
Layer_1
 62
3
100
AcDbPolyline
 90
7
 70
1
 10
43.721340
 20
201.014909
 30
0.0
 10
40.748794
 20
201.010631
 30
0.0
 10
39.258815
 20
203.582792
 30
0.0
 10
40.741383
 20
206.159233
 30
0.0
 10
43.713930
 20
206.163511
 30
0.0
 10
45.203908
 20
203.591349
 30
0.0
 10
43.721340
 20
201.014909
 30
0.0
  0
LWPOLYLINE
  5
11e
100
AcDbEntity
  8
Layer_1
 62
1
100
AcDbPolyline
 90
7
 70
1
 10
61.308288
 20
201.469274
 30
0.0
 10
58.831166
 20
201.465709
 30
0.0
 10
57.589518
 20
203.609177
 30
0.0
 10
58.824991
 20
205.756210
 30
0.0
 10
61.302113
 20
205.759775
 30
0.0
 10
62.543761
 20
203.616307
 30
0.0
 10
61.308288
 20
201.469274
 30
0.0
  0
LWPOLYLINE
  5
11f
100
AcDbEntity
  8
Layer_1
 62
3
100
AcDbPolyline
 90
7
 70
1
 10
61.556618
 20
201.040580
 30
0.0
 10
58.584072
 20
201.036302
 30
0.0
 10
57.094093
 20
203.608463
 30
0.0
 10
58.576661
 20
206.184903
 30
0.0
 10
61.549208
 20
206.189181
 30
0.0
 10
63.039186
 20
203.617020
 30
0.0
 10
61.556618
 20
201.040580
 30
0.0
  0
LWPOLYLINE
  5
120
100
AcDbEntity
  8
Layer_1
 62
1
100
AcDbPolyline
 90
7
 70
1
 10
56.853174
 20
198.888556
 30
0.0
 10
54.376052
 20
198.884991
 30
0.0
 10
53.134403
 20
201.028458
 30
0.0
 10
54.369877
 20
203.175492
 30
0.0
 10
56.846999
 20
203.179057
 30
0.0
 10
58.088647
 20
201.035589
 30
0.0
 10
56.853174
 20
198.888556
 30
0.0
  0
LWPOLYLINE
  5
121
100
AcDbEntity
  8
Layer_1
 62
3
100
AcDbPolyline
 90
7
 70
1
 10
57.101504
 20
198.459862
 30
0.0
 10
54.128957
 20
198.455583
 30
0.0
 10
52.638979
 20
201.027745
 30
0.0
 10
54.121547
 20
203.604185
 30
0.0
 10
57.094093
 20
203.608463
 30
0.0
 10
58.584072
 20
201.036302
 30
0.0
 10
57.101504
 20
198.459862
 30
0.0
  0
LWPOLYLINE
  5
122
100
AcDbEntity
  8
Layer_1
 62
1
100
AcDbPolyline
 90
7
 70
1
 10
52.398060
 20
196.307838
 30
0.0
 10
49.920938
 20
196.304273
 30
0.0
 10
48.679289
 20
198.447740
 30
0.0
 10
49.914762
 20
200.594774
 30
0.0
 10
52.391884
 20
200.598339
 30
0.0
 10
53.633533
 20
198.454871
 30
0.0
 10
52.398060
 20
196.307838
 30
0.0
  0
LWPOLYLINE
  5
123
100
AcDbEntity
  8
Layer_1
 62
3
100
AcDbPolyline
 90
7
 70
1
 10
52.646390
 20
195.879143
 30
0.0
 10
49.673843
 20
195.874865
 30
0.0
 10
48.183865
 20
198.447026
 30
0.0
 10
49.666433
 20
201.023467
 30
0.0
 10
52.638979
 20
201.027745
 30
0.0
 10
54.128957
 20
198.455584
 30
0.0
 10
52.646390
 20
195.879143
 30
0.0
  0
LWPOLYLINE
  5
124
100
AcDbEntity
  8
Layer_1
 62
1
100
AcDbPolyline
 90
7
 70
1
 10
56.860585
 20
193.739955
 30
0.0
 10
54.383462
 20
193.736390
 30
0.0
 10
53.141814
 20
195.879857
 30
0.0
 10
54.377287
 20
198.026891
 30
0.0
 10
56.854409
 20
198.030456
 30
0.0
 10
58.096058
 20
195.886988
 30
0.0
 10
56.860585
 20
193.739955
 30
0.0
  0
LWPOLYLINE
  5
125
100
AcDbEntity
  8
Layer_1
 62
3
100
AcDbPolyline
 90
7
 70
1
 10
57.108915
 20
193.311260
 30
0.0
 10
54.136368
 20
193.306982
 30
0.0
 10
52.646389
 20
195.879143
 30
0.0
 10
54.128957
 20
198.455584
 30
0.0
 10
57.101504
 20
198.459862
 30
0.0
 10
58.591482
 20
195.887701
 30
0.0
 10
57.108915
 20
193.311260
 30
0.0
  0
LWPOLYLINE
  5
126
100
AcDbEntity
  8
Layer_1
 62
1
100
AcDbPolyline
 90
7
 70
1
 10
61.323111
 20
191.172072
 30
0.0
 10
58.845988
 20
191.168507
 30
0.0
 10
57.604340
 20
193.311974
 30
0.0
 10
58.839813
 20
195.459008
 30
0.0
 10
61.316935
 20
195.462573
 30
0.0
 10
62.558584
 20
193.319105
 30
0.0
 10
61.323111
 20
191.172072
 30
0.0
  0
LWPOLYLINE
  5
127
100
AcDbEntity
  8
Layer_1
 62
3
100
AcDbPolyline
 90
7
 70
1
 10
61.571441
 20
190.743377
 30
0.0
 10
58.598894
 20
190.739099
 30
0.0
 10
57.108915
 20
193.311260
 30
0.0
 10
58.591483
 20
195.887701
 30
0.0
 10
61.564030
 20
195.891979
 30
0.0
 10
63.054008
 20
193.319818
 30
0.0
 10
61.571441
 20
190.743377
 30
0.0
  0
LWPOLYLINE
  5
128
100
AcDbEntity
  8
Layer_1
 62
1
100
AcDbPolyline
 90
7
 70
1
 10
39.017896
 20
198.862886
 30
0.0
 10
36.540774
 20
198.859320
 30
0.0
 10
35.299125
 20
201.002788
 30
0.0
 10
36.534599
 20
203.149821
 30
0.0
 10
39.011721
 20
203.153387
 30
0.0
 10
40.253369
 20
201.009919
 30
0.0
 10
39.017896
 20
198.862886
 30
0.0
  0
LWPOLYLINE
  5
129
100
AcDbEntity
  8
Layer_1
 62
3
100
AcDbPolyline
 90
7
 70
1
 10
39.266226
 20
198.434191
 30
0.0
 10
36.293679
 20
198.429913
 30
0.0
 10
34.803701
 20
201.002074
 30
0.0
 10
36.286269
 20
203.578514
 30
0.0
 10
39.258815
 20
203.582793
 30
0.0
 10
40.748794
 20
201.010631
 30
0.0
 10
39.266226
 20
198.434191
 30
0.0
  0
LWPOLYLINE
  5
12a
100
AcDbEntity
  8
Layer_1
 62
1
100
AcDbPolyline
 90
7
 70
1
 10
43.480421
 20
196.295002
 30
0.0
 10
41.003298
 20
196.291437
 30
0.0
 10
39.761650
 20
198.434905
 30
0.0
 10
40.997123
 20
200.581938
 30
0.0
 10
43.474245
 20
200.585503
 30
0.0
 10
44.715894
 20
198.442036
 30
0.0
 10
43.480421
 20
196.295002
 30
0.0
  0
LWPOLYLINE
  5
12b
100
AcDbEntity
  8
Layer_1
 62
3
100
AcDbPolyline
 90
7
 70
1
 10
43.728751
 20
195.866308
 30
0.0
 10
40.756204
 20
195.862030
 30
0.0
 10
39.266225
 20
198.434191
 30
0.0
 10
40.748793
 20
201.010631
 30
0.0
 10
43.721340
 20
201.014909
 30
0.0
 10
45.211318
 20
198.442748
 30
0.0
 10
43.728751
 20
195.866308
 30
0.0
  0
LWPOLYLINE
  5
12c
100
AcDbEntity
  8
Layer_1
 62
1
100
AcDbPolyline
 90
7
 70
1
 10
70.211107
 20
211.779312
 30
0.0
 10
67.733985
 20
211.775747
 30
0.0
 10
66.492336
 20
213.919215
 30
0.0
 10
67.727809
 20
216.066248
 30
0.0
 10
70.204931
 20
216.069813
 30
0.0
 10
71.446580
 20
213.926345
 30
0.0
 10
70.211107
 20
211.779312
 30
0.0
  0
LWPOLYLINE
  5
12d
100
AcDbEntity
  8
Layer_1
 62
3
100
AcDbPolyline
 90
7
 70
1
 10
70.459437
 20
211.350618
 30
0.0
 10
67.486890
 20
211.346340
 30
0.0
 10
65.996912
 20
213.918501
 30
0.0
 10
67.479480
 20
216.494941
 30
0.0
 10
70.452026
 20
216.499219
 30
0.0
 10
71.942004
 20
213.927058
 30
0.0
 10
70.459437
 20
211.350618
 30
0.0
  0
LWPOLYLINE
  5
12e
100
AcDbEntity
  8
Layer_1
 62
1
100
AcDbPolyline
 90
7
 70
1
 10
70.203696
 20
216.927913
 30
0.0
 10
67.726573
 20
216.924348
 30
0.0
 10
66.484925
 20
219.067816
 30
0.0
 10
67.720398
 20
221.214849
 30
0.0
 10
70.197520
 20
221.218414
 30
0.0
 10
71.439169
 20
219.074947
 30
0.0
 10
70.203696
 20
216.927913
 30
0.0
  0
LWPOLYLINE
  5
12f
100
AcDbEntity
  8
Layer_1
 62
3
100
AcDbPolyline
 90
7
 70
1
 10
70.452026
 20
216.499219
 30
0.0
 10
67.479479
 20
216.494941
 30
0.0
 10
65.989501
 20
219.067102
 30
0.0
 10
67.472069
 20
221.643542
 30
0.0
 10
70.444615
 20
221.647820
 30
0.0
 10
71.934593
 20
219.075659
 30
0.0
 10
70.452026
 20
216.499219
 30
0.0
  0
LWPOLYLINE
  5
130
100
AcDbEntity
  8
Layer_1
 62
1
100
AcDbPolyline
 90
7
 70
1
 10
74.666222
 20
214.360030
 30
0.0
 10
72.189099
 20
214.356465
 30
0.0
 10
70.947451
 20
216.499933
 30
0.0
 10
72.182924
 20
218.646966
 30
0.0
 10
74.660046
 20
218.650531
 30
0.0
 10
75.901695
 20
216.507064
 30
0.0
 10
74.666222
 20
214.360030
 30
0.0
  0
LWPOLYLINE
  5
131
100
AcDbEntity
  8
Layer_1
 62
3
100
AcDbPolyline
 90
7
 70
1
 10
74.914552
 20
213.931336
 30
0.0
 10
71.942005
 20
213.927058
 30
0.0
 10
70.452027
 20
216.499219
 30
0.0
 10
71.934595
 20
219.075659
 30
0.0
 10
74.907141
 20
219.079937
 30
0.0
 10
76.397119
 20
216.507776
 30
0.0
 10
74.914552
 20
213.931336
 30
0.0
  0
LWPOLYLINE
  5
132
100
AcDbEntity
  8
Layer_1
 62
1
100
AcDbPolyline
 90
7
 70
1
 10
65.755992
 20
209.198594
 30
0.0
 10
63.278870
 20
209.195029
 30
0.0
 10
62.037221
 20
211.338496
 30
0.0
 10
63.272695
 20
213.485530
 30
0.0
 10
65.749817
 20
213.489095
 30
0.0
 10
66.991465
 20
211.345627
 30
0.0
 10
65.755992
 20
209.198594
 30
0.0
  0
LWPOLYLINE
  5
133
100
AcDbEntity
  8
Layer_1
 62
3
100
AcDbPolyline
 90
7
 70
1
 10
66.004322
 20
208.769899
 30
0.0
 10
63.031775
 20
208.765621
 30
0.0
 10
61.541797
 20
211.337782
 30
0.0
 10
63.024365
 20
213.914223
 30
0.0
 10
65.996911
 20
213.918501
 30
0.0
 10
67.486889
 20
211.346339
 30
0.0
 10
66.004322
 20
208.769899
 30
0.0
  0
LWPOLYLINE
  5
134
100
AcDbEntity
  8
Layer_1
 62
1
100
AcDbPolyline
 90
7
 70
1
 10
61.300877
 20
206.617876
 30
0.0
 10
58.823755
 20
206.614310
 30
0.0
 10
57.582106
 20
208.757778
 30
0.0
 10
58.817580
 20
210.904811
 30
0.0
 10
61.294702
 20
210.908377
 30
0.0
 10
62.536350
 20
208.764909
 30
0.0
 10
61.300877
 20
206.617876
 30
0.0
  0
LWPOLYLINE
  5
135
100
AcDbEntity
  8
Layer_1
 62
3
100
AcDbPolyline
 90
7
 70
1
 10
61.549207
 20
206.189181
 30
0.0
 10
58.576660
 20
206.184903
 30
0.0
 10
57.086682
 20
208.757064
 30
0.0
 10
58.569250
 20
211.333504
 30
0.0
 10
61.541797
 20
211.337783
 30
0.0
 10
63.031775
 20
208.765621
 30
0.0
 10
61.549207
 20
206.189181
 30
0.0
  0
LWPOLYLINE
  5
136
100
AcDbEntity
  8
Layer_1
 62
1
100
AcDbPolyline
 90
7
 70
1
 10
65.763403
 20
204.049992
 30
0.0
 10
63.286281
 20
204.046427
 30
0.0
 10
62.044632
 20
206.189895
 30
0.0
 10
63.280106
 20
208.336928
 30
0.0
 10
65.757228
 20
208.340493
 30
0.0
 10
66.998876
 20
206.197026
 30
0.0
 10
65.763403
 20
204.049992
 30
0.0
  0
LWPOLYLINE
  5
137
100
AcDbEntity
  8
Layer_1
 62
3
100
AcDbPolyline
 90
7
 70
1
 10
66.011733
 20
203.621298
 30
0.0
 10
63.039186
 20
203.617020
 30
0.0
 10
61.549208
 20
206.189181
 30
0.0
 10
63.031776
 20
208.765621
 30
0.0
 10
66.004323
 20
208.769899
 30
0.0
 10
67.494301
 20
206.197738
 30
0.0
 10
66.011733
 20
203.621298
 30
0.0
  0
LWPOLYLINE
  5
138
100
AcDbEntity
  8
Layer_1
 62
1
100
AcDbPolyline
 90
7
 70
1
 10
70.225929
 20
201.482109
 30
0.0
 10
67.748807
 20
201.478544
 30
0.0
 10
66.507158
 20
203.622012
 30
0.0
 10
67.742632
 20
205.769045
 30
0.0
 10
70.219754
 20
205.772610
 30
0.0
 10
71.461402
 20
203.629143
 30
0.0
 10
70.225929
 20
201.482109
 30
0.0
  0
LWPOLYLINE
  5
139
100
AcDbEntity
  8
Layer_1
 62
3
100
AcDbPolyline
 90
7
 70
1
 10
70.474259
 20
201.053415
 30
0.0
 10
67.501712
 20
201.049137
 30
0.0
 10
66.011734
 20
203.621298
 30
0.0
 10
67.494302
 20
206.197738
 30
0.0
 10
70.466849
 20
206.202016
 30
0.0
 10
71.956827
 20
203.629855
 30
0.0
 10
70.474259
 20
201.053415
 30
0.0
  0
LWPOLYLINE
  5
13a
100
AcDbEntity
  8
Layer_1
 62
1
100
AcDbPolyline
 90
7
 70
1
 10
39.010486
 20
204.011487
 30
0.0
 10
36.533364
 20
204.007922
 30
0.0
 10
35.291715
 20
206.151390
 30
0.0
 10
36.527189
 20
208.298423
 30
0.0
 10
39.004311
 20
208.301988
 30
0.0
 10
40.245959
 20
206.158520
 30
0.0
 10
39.010486
 20
204.011487
 30
0.0
  0
LWPOLYLINE
  5
13b
100
AcDbEntity
  8
Layer_1
 62
3
100
AcDbPolyline
 90
7
 70
1
 10
39.258816
 20
203.582793
 30
0.0
 10
36.286269
 20
203.578514
 30
0.0
 10
34.796291
 20
206.150676
 30
0.0
 10
36.278859
 20
208.727116
 30
0.0
 10
39.251405
 20
208.731394
 30
0.0
 10
40.741383
 20
206.159233
 30
0.0
 10
39.258816
 20
203.582793
 30
0.0
  0
LWPOLYLINE
  5
13c
100
AcDbEntity
  8
Layer_1
 62
1
100
AcDbPolyline
 90
7
 70
1
 10
70.218518
 20
206.630711
 30
0.0
 10
67.741396
 20
206.627146
 30
0.0
 10
66.499747
 20
208.770613
 30
0.0
 10
67.735221
 20
210.917647
 30
0.0
 10
70.212343
 20
210.921212
 30
0.0
 10
71.453991
 20
208.777744
 30
0.0
 10
70.218518
 20
206.630711
 30
0.0
  0
LWPOLYLINE
  5
13d
100
AcDbEntity
  8
Layer_1
 62
3
100
AcDbPolyline
 90
7
 70
1
 10
70.466848
 20
206.202016
 30
0.0
 10
67.494301
 20
206.197738
 30
0.0
 10
66.004323
 20
208.769899
 30
0.0
 10
67.486891
 20
211.346340
 30
0.0
 10
70.459437
 20
211.350618
 30
0.0
 10
71.949415
 20
208.778456
 30
0.0
 10
70.466848
 20
206.202016
 30
0.0
  0
LWPOLYLINE
  5
13e
100
AcDbEntity
  8
Layer_1
 62
1
100
AcDbPolyline
 90
7
 70
1
 10
28.489969
 20
182.270274
 30
0.0
 10
26.012847
 20
182.266718
 30
0.0
 10
24.771198
 20
184.410188
 30
0.0
 10
26.006671
 20
186.557221
 30
0.0
 10
28.483794
 20
186.560777
 30
0.0
 10
29.725442
 20
184.417308
 30
0.0
 10
28.489969
 20
182.270274
 30
0.0
  0
LWPOLYLINE
  5
13f
100
AcDbEntity
  8
Layer_1
 62
1
100
AcDbPolyline
 90
7
 70
1
 10
32.952492
 20
179.702391
 30
0.0
 10
30.475372
 20
179.698835
 30
0.0
 10
29.233724
 20
181.842304
 30
0.0
 10
30.469197
 20
183.989338
 30
0.0
 10
32.946317
 20
183.992894
 30
0.0
 10
34.187965
 20
181.849425
 30
0.0
 10
32.952492
 20
179.702391
 30
0.0
  0
LWPOLYLINE
  5
140
100
AcDbEntity
  8
Layer_1
 62
1
100
AcDbPolyline
 90
7
 70
1
 10
28.497380
 20
177.121672
 30
0.0
 10
26.020257
 20
177.118116
 30
0.0
 10
24.778608
 20
179.261585
 30
0.0
 10
26.014082
 20
181.408619
 30
0.0
 10
28.491203
 20
181.412175
 30
0.0
 10
29.732853
 20
179.268706
 30
0.0
 10
28.497380
 20
177.121672
 30
0.0
  0
LWPOLYLINE
  5
141
100
AcDbEntity
  8
Layer_1
 62
1
100
AcDbPolyline
 90
7
 70
1
 10
32.959904
 20
174.553791
 30
0.0
 10
30.482783
 20
174.550235
 30
0.0
 10
29.241132
 20
176.693704
 30
0.0
 10
30.476608
 20
178.840738
 30
0.0
 10
32.953729
 20
178.844294
 30
0.0
 10
34.195377
 20
176.700825
 30
0.0
 10
32.959904
 20
174.553791
 30
0.0
  0
LWPOLYLINE
  5
142
100
AcDbEntity
  8
Layer_1
 62
1
100
AcDbPolyline
 90
7
 70
1
 10
37.415018
 20
177.134507
 30
0.0
 10
34.937898
 20
177.130951
 30
0.0
 10
33.696247
 20
179.274421
 30
0.0
 10
34.931723
 20
181.421454
 30
0.0
 10
37.408843
 20
181.425010
 30
0.0
 10
38.650491
 20
179.281541
 30
0.0
 10
37.415018
 20
177.134507
 30
0.0
  0
LWPOLYLINE
  5
143
100
AcDbEntity
  8
Layer_1
 62
1
100
AcDbPolyline
 90
7
 70
1
 10
41.870133
 20
179.715226
 30
0.0
 10
39.393012
 20
179.711670
 30
0.0
 10
38.151362
 20
181.855140
 30
0.0
 10
39.386837
 20
184.002173
 30
0.0
 10
41.863958
 20
184.005729
 30
0.0
 10
43.105606
 20
181.862260
 30
0.0
 10
41.870133
 20
179.715226
 30
0.0
  0
LWPOLYLINE
  5
144
100
AcDbEntity
  8
Layer_1
 62
1
100
AcDbPolyline
 90
7
 70
1
 10
41.877542
 20
174.566626
 30
0.0
 10
39.400421
 20
174.563070
 30
0.0
 10
38.158770
 20
176.706540
 30
0.0
 10
39.394246
 20
178.853574
 30
0.0
 10
41.871367
 20
178.857130
 30
0.0
 10
43.113015
 20
176.713660
 30
0.0
 10
41.877542
 20
174.566626
 30
0.0
  0
LWPOLYLINE
  5
145
100
AcDbEntity
  8
Layer_1
 62
1
100
AcDbPolyline
 90
7
 70
1
 10
46.332656
 20
177.147343
 30
0.0
 10
43.855536
 20
177.143787
 30
0.0
 10
42.613885
 20
179.287256
 30
0.0
 10
43.849361
 20
181.434290
 30
0.0
 10
46.326481
 20
181.437846
 30
0.0
 10
47.568129
 20
179.294376
 30
0.0
 10
46.332656
 20
177.147343
 30
0.0
  0
LWPOLYLINE
  5
146
100
AcDbEntity
  8
Layer_1
 62
1
100
AcDbPolyline
 90
7
 70
1
 10
50.795182
 20
174.579459
 30
0.0
 10
48.318062
 20
174.575903
 30
0.0
 10
47.076411
 20
176.719372
 30
0.0
 10
48.311887
 20
178.866406
 30
0.0
 10
50.789007
 20
178.869962
 30
0.0
 10
52.030655
 20
176.726493
 30
0.0
 10
50.795182
 20
174.579459
 30
0.0
  0
LWPOLYLINE
  5
147
100
AcDbEntity
  8
Layer_1
 62
1
100
AcDbPolyline
 90
7
 70
1
 10
55.250294
 20
177.160178
 30
0.0
 10
52.773174
 20
177.156622
 30
0.0
 10
51.531523
 20
179.300091
 30
0.0
 10
52.766999
 20
181.447125
 30
0.0
 10
55.244119
 20
181.450681
 30
0.0
 10
56.485767
 20
179.307212
 30
0.0
 10
55.250294
 20
177.160178
 30
0.0
  0
LWPOLYLINE
  5
148
100
AcDbEntity
  8
Layer_1
 62
1
100
AcDbPolyline
 90
7
 70
1
 10
64.160524
 20
182.321616
 30
0.0
 10
61.683403
 20
182.318060
 30
0.0
 10
60.441753
 20
184.461530
 30
0.0
 10
61.677228
 20
186.608563
 30
0.0
 10
64.154349
 20
186.612119
 30
0.0
 10
65.395997
 20
184.468650
 30
0.0
 10
64.160524
 20
182.321616
 30
0.0
  0
LWPOLYLINE
  5
149
100
AcDbEntity
  8
Layer_1
 62
1
100
AcDbPolyline
 90
7
 70
1
 10
55.257706
 20
172.011578
 30
0.0
 10
52.780585
 20
172.008022
 30
0.0
 10
51.538934
 20
174.151492
 30
0.0
 10
52.774410
 20
176.298525
 30
0.0
 10
55.251531
 20
176.302081
 30
0.0
 10
56.493179
 20
174.158612
 30
0.0
 10
55.257706
 20
172.011578
 30
0.0
  0
LWPOLYLINE
  5
14a
100
AcDbEntity
  8
Layer_1
 62
1
100
AcDbPolyline
 90
7
 70
1
 10
50.802591
 20
169.430859
 30
0.0
 10
48.325470
 20
169.427303
 30
0.0
 10
47.083819
 20
171.570773
 30
0.0
 10
48.319295
 20
173.717806
 30
0.0
 10
50.796416
 20
173.721362
 30
0.0
 10
52.038064
 20
171.577893
 30
0.0
 10
50.802591
 20
169.430859
 30
0.0
  0
LWPOLYLINE
  5
14b
100
AcDbEntity
  8
Layer_1
 62
1
100
AcDbPolyline
 90
7
 70
1
 10
46.340068
 20
171.998743
 30
0.0
 10
43.862947
 20
171.995187
 30
0.0
 10
42.621296
 20
174.138656
 30
0.0
 10
43.856772
 20
176.285690
 30
0.0
 10
46.333893
 20
176.289246
 30
0.0
 10
47.575541
 20
174.145777
 30
0.0
 10
46.340068
 20
171.998743
 30
0.0
  0
LWPOLYLINE
  5
14c
100
AcDbEntity
  8
Layer_1
 62
1
100
AcDbPolyline
 90
7
 70
1
 10
41.884953
 20
169.418024
 30
0.0
 10
39.407832
 20
169.414468
 30
0.0
 10
38.166181
 20
171.557937
 30
0.0
 10
39.401657
 20
173.704971
 30
0.0
 10
41.878778
 20
173.708527
 30
0.0
 10
43.120426
 20
171.565058
 30
0.0
 10
41.884953
 20
169.418024
 30
0.0
  0
LWPOLYLINE
  5
14d
100
AcDbEntity
  8
Layer_1
 62
1
100
AcDbPolyline
 90
7
 70
1
 10
59.720232
 20
169.443695
 30
0.0
 10
57.243111
 20
169.440139
 30
0.0
 10
56.001460
 20
171.583608
 30
0.0
 10
57.236936
 20
173.730642
 30
0.0
 10
59.714057
 20
173.734198
 30
0.0
 10
60.955705
 20
171.590729
 30
0.0
 10
59.720232
 20
169.443695
 30
0.0
  0
LWPOLYLINE
  5
14e
100
AcDbEntity
  8
Layer_1
 62
1
100
AcDbPolyline
 90
7
 70
1
 10
55.265117
 20
166.862976
 30
0.0
 10
52.787996
 20
166.859420
 30
0.0
 10
51.546345
 20
169.002889
 30
0.0
 10
52.781821
 20
171.149923
 30
0.0
 10
55.258942
 20
171.153479
 30
0.0
 10
56.500590
 20
169.010010
 30
0.0
 10
55.265117
 20
166.862976
 30
0.0
  0
LWPOLYLINE
  5
14f
100
AcDbEntity
  8
Layer_1
 62
1
100
AcDbPolyline
 90
7
 70
1
 10
50.810002
 20
164.282257
 30
0.0
 10
48.332881
 20
164.278701
 30
0.0
 10
47.091230
 20
166.422170
 30
0.0
 10
48.326706
 20
168.569204
 30
0.0
 10
50.803827
 20
168.572760
 30
0.0
 10
52.045475
 20
166.429291
 30
0.0
 10
50.810002
 20
164.282257
 30
0.0
  0
LWPOLYLINE
  5
150
100
AcDbEntity
  8
Layer_1
 62
1
100
AcDbPolyline
 90
7
 70
1
 10
55.272528
 20
161.714373
 30
0.0
 10
52.795407
 20
161.710817
 30
0.0
 10
51.553756
 20
163.854287
 30
0.0
 10
52.789232
 20
166.001320
 30
0.0
 10
55.266353
 20
166.004876
 30
0.0
 10
56.508001
 20
163.861407
 30
0.0
 10
55.272528
 20
161.714373
 30
0.0
  0
LWPOLYLINE
  5
151
100
AcDbEntity
  8
Layer_1
 62
1
100
AcDbPolyline
 90
7
 70
1
 10
59.735054
 20
159.146493
 30
0.0
 10
57.257933
 20
159.142937
 30
0.0
 10
56.016282
 20
161.286406
 30
0.0
 10
57.251758
 20
163.433440
 30
0.0
 10
59.728879
 20
163.436996
 30
0.0
 10
60.970527
 20
161.293526
 30
0.0
 10
59.735054
 20
159.146493
 30
0.0
  0
LWPOLYLINE
  5
152
100
AcDbEntity
  8
Layer_1
 62
1
100
AcDbPolyline
 90
7
 70
1
 10
37.429838
 20
166.837305
 30
0.0
 10
34.952717
 20
166.833749
 30
0.0
 10
33.711066
 20
168.977218
 30
0.0
 10
34.946542
 20
171.124252
 30
0.0
 10
37.423663
 20
171.127808
 30
0.0
 10
38.665311
 20
168.984339
 30
0.0
 10
37.429838
 20
166.837305
 30
0.0
  0
LWPOLYLINE
  5
153
100
AcDbEntity
  8
Layer_1
 62
1
100
AcDbPolyline
 90
7
 70
1
 10
41.892364
 20
164.269421
 30
0.0
 10
39.415243
 20
164.265865
 30
0.0
 10
38.173592
 20
166.409335
 30
0.0
 10
39.409068
 20
168.556368
 30
0.0
 10
41.886189
 20
168.559924
 30
0.0
 10
43.127837
 20
166.416455
 30
0.0
 10
41.892364
 20
164.269421
 30
0.0
  0
LWPOLYLINE
  5
154
100
AcDbEntity
  8
Layer_1
 62
1
100
AcDbPolyline
 90
7
 70
1
 10
68.623050
 20
179.753733
 30
0.0
 10
66.145929
 20
179.750177
 30
0.0
 10
64.904279
 20
181.893646
 30
0.0
 10
66.139754
 20
184.040680
 30
0.0
 10
68.616875
 20
184.044236
 30
0.0
 10
69.858523
 20
181.900766
 30
0.0
 10
68.623050
 20
179.753733
 30
0.0
  0
LWPOLYLINE
  5
155
100
AcDbEntity
  8
Layer_1
 62
1
100
AcDbPolyline
 90
7
 70
1
 10
68.615639
 20
184.902332
 30
0.0
 10
66.138518
 20
184.898776
 30
0.0
 10
64.896867
 20
187.042246
 30
0.0
 10
66.132343
 20
189.189279
 30
0.0
 10
68.609464
 20
189.192835
 30
0.0
 10
69.851112
 20
187.049366
 30
0.0
 10
68.615639
 20
184.902332
 30
0.0
  0
LWPOLYLINE
  5
156
100
AcDbEntity
  8
Layer_1
 62
1
100
AcDbPolyline
 90
7
 70
1
 10
73.078165
 20
182.334449
 30
0.0
 10
70.601044
 20
182.330893
 30
0.0
 10
69.359393
 20
184.474362
 30
0.0
 10
70.594869
 20
186.621396
 30
0.0
 10
73.071990
 20
186.624952
 30
0.0
 10
74.313638
 20
184.481483
 30
0.0
 10
73.078165
 20
182.334449
 30
0.0
  0
LWPOLYLINE
  5
157
100
AcDbEntity
  8
Layer_1
 62
1
100
AcDbPolyline
 90
7
 70
1
 10
64.167935
 20
177.173014
 30
0.0
 10
61.690814
 20
177.169458
 30
0.0
 10
60.449164
 20
179.312927
 30
0.0
 10
61.684639
 20
181.459961
 30
0.0
 10
64.161760
 20
181.463517
 30
0.0
 10
65.403408
 20
179.320047
 30
0.0
 10
64.167935
 20
177.173014
 30
0.0
  0
LWPOLYLINE
  5
158
100
AcDbEntity
  8
Layer_1
 62
1
100
AcDbPolyline
 90
7
 70
1
 10
59.712820
 20
174.592295
 30
0.0
 10
57.235700
 20
174.588739
 30
0.0
 10
55.994049
 20
176.732208
 30
0.0
 10
57.229525
 20
178.879242
 30
0.0
 10
59.706645
 20
178.882798
 30
0.0
 10
60.948293
 20
176.739328
 30
0.0
 10
59.712820
 20
174.592295
 30
0.0
  0
LWPOLYLINE
  5
159
100
AcDbEntity
  8
Layer_1
 62
1
100
AcDbPolyline
 90
7
 70
1
 10
64.175346
 20
172.024411
 30
0.0
 10
61.698226
 20
172.020855
 30
0.0
 10
60.456575
 20
174.164324
 30
0.0
 10
61.692051
 20
176.311358
 30
0.0
 10
64.169171
 20
176.314914
 30
0.0
 10
65.410819
 20
174.171445
 30
0.0
 10
64.175346
 20
172.024411
 30
0.0
  0
LWPOLYLINE
  5
15a
100
AcDbEntity
  8
Layer_1
 62
1
100
AcDbPolyline
 90
7
 70
1
 10
68.637872
 20
169.456530
 30
0.0
 10
66.160752
 20
169.452974
 30
0.0
 10
64.919101
 20
171.596444
 30
0.0
 10
66.154577
 20
173.743477
 30
0.0
 10
68.631697
 20
173.747033
 30
0.0
 10
69.873345
 20
171.603564
 30
0.0
 10
68.637872
 20
169.456530
 30
0.0
  0
LWPOLYLINE
  5
15b
100
AcDbEntity
  8
Layer_1
 62
1
100
AcDbPolyline
 90
7
 70
1
 10
37.422430
 20
171.985907
 30
0.0
 10
34.945309
 20
171.982351
 30
0.0
 10
33.703658
 20
174.125821
 30
0.0
 10
34.939134
 20
176.272855
 30
0.0
 10
37.416255
 20
176.276411
 30
0.0
 10
38.657903
 20
174.132941
 30
0.0
 10
37.422430
 20
171.985907
 30
0.0
  0
LWPOLYLINE
  5
15c
100
AcDbEntity
  8
Layer_1
 62
1
100
AcDbPolyline
 90
7
 70
1
 10
68.630461
 20
174.605130
 30
0.0
 10
66.153340
 20
174.601574
 30
0.0
 10
64.911690
 20
176.745043
 30
0.0
 10
66.147165
 20
178.892077
 30
0.0
 10
68.624286
 20
178.895633
 30
0.0
 10
69.865934
 20
176.752164
 30
0.0
 10
68.630461
 20
174.605130
 30
0.0
  0
LWPOLYLINE
  5
15d
100
AcDbEntity
  8
Layer_1
 62
3
100
AcDbPolyline
 90
68
 70
0
 10
68.856710
 20
189.622160
 30
0.0
 10
65.884007
 20
189.617752
 30
0.0
 10
64.401237
 20
187.041371
 30
0.0
 10
61.429084
 20
187.036963
 30
0.0
 10
59.946314
 20
184.460581
 30
0.0
 10
61.436250
 20
181.888611
 30
0.0
 10
59.953480
 20
179.312230
 30
0.0
 10
56.981327
 20
179.307822
 30
0.0
 10
55.491394
 20
181.880342
 30
0.0
 10
52.518688
 20
181.875934
 30
0.0
 10
51.035921
 20
179.299552
 30
0.0
 10
48.063768
 20
179.295144
 30
0.0
 10
46.573832
 20
181.867114
 30
0.0
 10
43.601129
 20
181.862703
 30
0.0
 10
42.111193
 20
184.435226
 30
0.0
 10
39.138490
 20
184.430815
 30
0.0
 10
37.655720
 20
181.854437
 30
0.0
 10
34.683567
 20
181.850026
 30
0.0
 10
33.193632
 20
184.422549
 30
0.0
 10
30.220928
 20
184.418138
 30
0.0
 10
28.730993
 20
186.990108
 30
0.0
 10
25.758290
 20
186.985700
 30
0.0
 10
24.275521
 20
184.409318
 30
0.0
 10
25.766007
 20
181.837348
 30
0.0
 10
24.283238
 20
179.260967
 30
0.0
 10
25.773173
 20
176.688447
 30
0.0
 10
28.745877
 20
176.692855
 30
0.0
 10
30.235813
 20
174.120885
 30
0.0
 10
33.207966
 20
174.125296
 30
0.0
 10
34.698452
 20
171.552773
 30
0.0
 10
33.215682
 20
168.976394
 30
0.0
 10
34.705617
 20
166.404424
 30
0.0
 10
37.678320
 20
166.408832
 30
0.0
 10
39.168256
 20
163.836312
 30
0.0
 10
42.140959
 20
163.840720
 30
0.0
 10
43.623176
 20
166.417101
 30
0.0
 10
42.133243
 20
168.989072
 30
0.0
 10
43.616011
 20
171.566003
 30
0.0
 10
46.588164
 20
171.569861
 30
0.0
 10
48.078650
 20
168.997891
 30
0.0
 10
46.595882
 20
166.421510
 30
0.0
 10
48.085815
 20
163.849540
 30
0.0
 10
51.058521
 20
163.853398
 30
0.0
 10
52.548454
 20
161.281427
 30
0.0
 10
55.520607
 20
161.285839
 30
0.0
 10
57.011093
 20
158.713315
 30
0.0
 10
59.983246
 20
158.717726
 30
0.0
 10
61.466016
 20
161.294105
 30
0.0
 10
59.976080
 20
163.866628
 30
0.0
 10
57.003377
 20
163.862217
 30
0.0
 10
55.513441
 20
166.434187
 30
0.0
 10
56.996211
 20
169.010568
 30
0.0
 10
59.968364
 20
169.014980
 30
0.0
 10
61.451132
 20
171.591358
 30
0.0
 10
64.423838
 20
171.595769
 30
0.0
 10
65.913770
 20
169.023799
 30
0.0
 10
68.886476
 20
169.027657
 30
0.0
 10
70.368693
 20
171.604035
 30
0.0
 10
68.878758
 20
174.176559
 30
0.0
 10
70.361528
 20
176.752937
 30
0.0
 10
68.871592
 20
179.324910
 30
0.0
 10
70.353812
 20
181.901289
 30
0.0
 10
73.326515
 20
181.905700
 30
0.0
 10
74.809285
 20
184.482078
 30
0.0
 10
73.319349
 20
187.054601
 30
0.0
 10
70.346646
 20
187.050190
 30
0.0
 10
68.856710
 20
189.622160
 30
0.0
 10
68.856710
 20
189.622160
 30
0.0
  0
LWPOLYLINE
  5
15e
100
AcDbEntity
  8
Layer_1
 62
3
100
AcDbPolyline
 90
68
 70
0
 10
124.383933
 20
191.395973
 30
0.0
 10
121.411230
 20
191.391564
 30
0.0
 10
119.929010
 20
188.815183
 30
0.0
 10
116.956307
 20
188.810772
 30
0.0
 10
115.473536
 20
186.234394
 30
0.0
 10
116.963472
 20
183.662423
 30
0.0
 10
115.481255
 20
181.086042
 30
0.0
 10
112.508549
 20
181.081631
 30
0.0
 10
111.018616
 20
183.653604
 30
0.0
 10
108.045910
 20
183.649193
 30
0.0
 10
106.563143
 20
181.072814
 30
0.0
 10
103.590990
 20
181.068954
 30
0.0
 10
102.101055
 20
183.640924
 30
0.0
 10
99.128351
 20
183.636515
 30
0.0
 10
97.638416
 20
186.209036
 30
0.0
 10
94.665713
 20
186.204628
 30
0.0
 10
93.183493
 20
183.628246
 30
0.0
 10
90.210790
 20
183.623838
 30
0.0
 10
88.720854
 20
186.195808
 30
0.0
 10
85.748151
 20
186.191397
 30
0.0
 10
84.258215
 20
188.763920
 30
0.0
 10
81.285512
 20
188.759509
 30
0.0
 10
79.803295
 20
186.183131
 30
0.0
 10
81.293231
 20
183.611161
 30
0.0
 10
79.810460
 20
181.034229
 30
0.0
 10
81.300396
 20
178.462259
 30
0.0
 10
84.273099
 20
178.466667
 30
0.0
 10
85.763035
 20
175.894697
 30
0.0
 10
88.735738
 20
175.898555
 30
0.0
 10
90.225674
 20
173.326585
 30
0.0
 10
88.742904
 20
170.750204
 30
0.0
 10
90.232840
 20
168.178234
 30
0.0
 10
93.205543
 20
168.182092
 30
0.0
 10
94.695478
 20
165.610121
 30
0.0
 10
97.668182
 20
165.614533
 30
0.0
 10
99.150399
 20
168.190911
 30
0.0
 10
97.660466
 20
170.762881
 30
0.0
 10
99.143233
 20
173.339262
 30
0.0
 10
102.115936
 20
173.343673
 30
0.0
 10
103.605872
 20
170.771703
 30
0.0
 10
102.123105
 20
168.195322
 30
0.0
 10
103.613037
 20
165.622799
 30
0.0
 10
106.585743
 20
165.627210
 30
0.0
 10
108.075676
 20
163.055240
 30
0.0
 10
111.048382
 20
163.059098
 30
0.0
 10
112.538315
 20
160.487128
 30
0.0
 10
115.510468
 20
160.491536
 30
0.0
 10
116.993238
 20
163.067917
 30
0.0
 10
115.503302
 20
165.639887
 30
0.0
 10
112.530599
 20
165.636029
 30
0.0
 10
111.040664
 20
168.208000
 30
0.0
 10
112.523434
 20
170.784381
 30
0.0
 10
115.496137
 20
170.788789
 30
0.0
 10
116.978354
 20
173.365170
 30
0.0
 10
119.951060
 20
173.369579
 30
0.0
 10
121.440993
 20
170.797058
 30
0.0
 10
124.413699
 20
170.801467
 30
0.0
 10
125.895916
 20
173.377848
 30
0.0
 10
124.405980
 20
175.949818
 30
0.0
 10
125.888750
 20
178.526750
 30
0.0
 10
124.398814
 20
181.098720
 30
0.0
 10
125.881034
 20
183.675101
 30
0.0
 10
128.853737
 20
183.679509
 30
0.0
 10
130.336507
 20
186.255890
 30
0.0
 10
128.846572
 20
188.827861
 30
0.0
 10
125.873868
 20
188.823452
 30
0.0
 10
124.383933
 20
191.395973
 30
0.0
 10
124.383933
 20
191.395973
 30
0.0
  0
LWPOLYLINE
  5
15f
100
AcDbEntity
  8
Layer_1
 62
3
100
AcDbPolyline
 90
7
 70
1
 10
28.489969
 20
182.270274
 30
0.0
 10
26.012847
 20
182.266718
 30
0.0
 10
24.771198
 20
184.410188
 30
0.0
 10
26.006671
 20
186.557221
 30
0.0
 10
28.483794
 20
186.560777
 30
0.0
 10
29.725442
 20
184.417308
 30
0.0
 10
28.489969
 20
182.270274
 30
0.0
  0
LWPOLYLINE
  5
160
100
AcDbEntity
  8
Layer_1
 62
3
100
AcDbPolyline
 90
7
 70
1
 10
32.952492
 20
179.702391
 30
0.0
 10
30.475372
 20
179.698835
 30
0.0
 10
29.233724
 20
181.842304
 30
0.0
 10
30.469197
 20
183.989338
 30
0.0
 10
32.946317
 20
183.992894
 30
0.0
 10
34.187965
 20
181.849425
 30
0.0
 10
32.952492
 20
179.702391
 30
0.0
  0
LWPOLYLINE
  5
161
100
AcDbEntity
  8
Layer_1
 62
3
100
AcDbPolyline
 90
7
 70
1
 10
28.497380
 20
177.121672
 30
0.0
 10
26.020257
 20
177.118116
 30
0.0
 10
24.778608
 20
179.261585
 30
0.0
 10
26.014082
 20
181.408619
 30
0.0
 10
28.491203
 20
181.412175
 30
0.0
 10
29.732853
 20
179.268706
 30
0.0
 10
28.497380
 20
177.121672
 30
0.0
  0
LWPOLYLINE
  5
162
100
AcDbEntity
  8
Layer_1
 62
3
100
AcDbPolyline
 90
7
 70
1
 10
32.959904
 20
174.553791
 30
0.0
 10
30.482783
 20
174.550235
 30
0.0
 10
29.241132
 20
176.693704
 30
0.0
 10
30.476608
 20
178.840738
 30
0.0
 10
32.953729
 20
178.844294
 30
0.0
 10
34.195377
 20
176.700825
 30
0.0
 10
32.959904
 20
174.553791
 30
0.0
  0
LWPOLYLINE
  5
163
100
AcDbEntity
  8
Layer_1
 62
3
100
AcDbPolyline
 90
7
 70
1
 10
37.415018
 20
177.134507
 30
0.0
 10
34.937898
 20
177.130951
 30
0.0
 10
33.696247
 20
179.274421
 30
0.0
 10
34.931723
 20
181.421454
 30
0.0
 10
37.408843
 20
181.425010
 30
0.0
 10
38.650491
 20
179.281541
 30
0.0
 10
37.415018
 20
177.134507
 30
0.0
  0
LWPOLYLINE
  5
164
100
AcDbEntity
  8
Layer_1
 62
3
100
AcDbPolyline
 90
7
 70
1
 10
41.870133
 20
179.715226
 30
0.0
 10
39.393012
 20
179.711670
 30
0.0
 10
38.151362
 20
181.855140
 30
0.0
 10
39.386837
 20
184.002173
 30
0.0
 10
41.863958
 20
184.005729
 30
0.0
 10
43.105606
 20
181.862260
 30
0.0
 10
41.870133
 20
179.715226
 30
0.0
  0
LWPOLYLINE
  5
165
100
AcDbEntity
  8
Layer_1
 62
3
100
AcDbPolyline
 90
7
 70
1
 10
41.877542
 20
174.566626
 30
0.0
 10
39.400421
 20
174.563070
 30
0.0
 10
38.158770
 20
176.706540
 30
0.0
 10
39.394246
 20
178.853574
 30
0.0
 10
41.871367
 20
178.857130
 30
0.0
 10
43.113015
 20
176.713660
 30
0.0
 10
41.877542
 20
174.566626
 30
0.0
  0
LWPOLYLINE
  5
166
100
AcDbEntity
  8
Layer_1
 62
3
100
AcDbPolyline
 90
7
 70
1
 10
46.332656
 20
177.147343
 30
0.0
 10
43.855536
 20
177.143787
 30
0.0
 10
42.613885
 20
179.287256
 30
0.0
 10
43.849361
 20
181.434290
 30
0.0
 10
46.326481
 20
181.437846
 30
0.0
 10
47.568129
 20
179.294376
 30
0.0
 10
46.332656
 20
177.147343
 30
0.0
  0
LWPOLYLINE
  5
167
100
AcDbEntity
  8
Layer_1
 62
3
100
AcDbPolyline
 90
7
 70
1
 10
50.795182
 20
174.579459
 30
0.0
 10
48.318062
 20
174.575903
 30
0.0
 10
47.076411
 20
176.719372
 30
0.0
 10
48.311887
 20
178.866406
 30
0.0
 10
50.789007
 20
178.869962
 30
0.0
 10
52.030655
 20
176.726493
 30
0.0
 10
50.795182
 20
174.579459
 30
0.0
  0
LWPOLYLINE
  5
168
100
AcDbEntity
  8
Layer_1
 62
3
100
AcDbPolyline
 90
7
 70
1
 10
55.250294
 20
177.160178
 30
0.0
 10
52.773174
 20
177.156622
 30
0.0
 10
51.531523
 20
179.300091
 30
0.0
 10
52.766999
 20
181.447125
 30
0.0
 10
55.244119
 20
181.450681
 30
0.0
 10
56.485767
 20
179.307212
 30
0.0
 10
55.250294
 20
177.160178
 30
0.0
  0
LWPOLYLINE
  5
169
100
AcDbEntity
  8
Layer_1
 62
3
100
AcDbPolyline
 90
7
 70
1
 10
64.160524
 20
182.321616
 30
0.0
 10
61.683403
 20
182.318060
 30
0.0
 10
60.441753
 20
184.461530
 30
0.0
 10
61.677228
 20
186.608563
 30
0.0
 10
64.154349
 20
186.612119
 30
0.0
 10
65.395997
 20
184.468650
 30
0.0
 10
64.160524
 20
182.321616
 30
0.0
  0
LWPOLYLINE
  5
16a
100
AcDbEntity
  8
Layer_1
 62
3
100
AcDbPolyline
 90
7
 70
1
 10
55.257706
 20
172.011578
 30
0.0
 10
52.780585
 20
172.008022
 30
0.0
 10
51.538934
 20
174.151492
 30
0.0
 10
52.774410
 20
176.298525
 30
0.0
 10
55.251531
 20
176.302081
 30
0.0
 10
56.493179
 20
174.158612
 30
0.0
 10
55.257706
 20
172.011578
 30
0.0
  0
LWPOLYLINE
  5
16b
100
AcDbEntity
  8
Layer_1
 62
3
100
AcDbPolyline
 90
7
 70
1
 10
50.802591
 20
169.430859
 30
0.0
 10
48.325470
 20
169.427303
 30
0.0
 10
47.083819
 20
171.570773
 30
0.0
 10
48.319295
 20
173.717806
 30
0.0
 10
50.796416
 20
173.721362
 30
0.0
 10
52.038064
 20
171.577893
 30
0.0
 10
50.802591
 20
169.430859
 30
0.0
  0
LWPOLYLINE
  5
16c
100
AcDbEntity
  8
Layer_1
 62
3
100
AcDbPolyline
 90
7
 70
1
 10
46.340068
 20
171.998743
 30
0.0
 10
43.862947
 20
171.995187
 30
0.0
 10
42.621296
 20
174.138656
 30
0.0
 10
43.856772
 20
176.285690
 30
0.0
 10
46.333893
 20
176.289246
 30
0.0
 10
47.575541
 20
174.145777
 30
0.0
 10
46.340068
 20
171.998743
 30
0.0
  0
LWPOLYLINE
  5
16d
100
AcDbEntity
  8
Layer_1
 62
3
100
AcDbPolyline
 90
7
 70
1
 10
41.884953
 20
169.418024
 30
0.0
 10
39.407832
 20
169.414468
 30
0.0
 10
38.166181
 20
171.557937
 30
0.0
 10
39.401657
 20
173.704971
 30
0.0
 10
41.878778
 20
173.708527
 30
0.0
 10
43.120426
 20
171.565058
 30
0.0
 10
41.884953
 20
169.418024
 30
0.0
  0
LWPOLYLINE
  5
16e
100
AcDbEntity
  8
Layer_1
 62
3
100
AcDbPolyline
 90
7
 70
1
 10
59.720232
 20
169.443695
 30
0.0
 10
57.243111
 20
169.440139
 30
0.0
 10
56.001460
 20
171.583608
 30
0.0
 10
57.236936
 20
173.730642
 30
0.0
 10
59.714057
 20
173.734198
 30
0.0
 10
60.955705
 20
171.590729
 30
0.0
 10
59.720232
 20
169.443695
 30
0.0
  0
LWPOLYLINE
  5
16f
100
AcDbEntity
  8
Layer_1
 62
3
100
AcDbPolyline
 90
7
 70
1
 10
55.265117
 20
166.862976
 30
0.0
 10
52.787996
 20
166.859420
 30
0.0
 10
51.546345
 20
169.002889
 30
0.0
 10
52.781821
 20
171.149923
 30
0.0
 10
55.258942
 20
171.153479
 30
0.0
 10
56.500590
 20
169.010010
 30
0.0
 10
55.265117
 20
166.862976
 30
0.0
  0
LWPOLYLINE
  5
170
100
AcDbEntity
  8
Layer_1
 62
3
100
AcDbPolyline
 90
7
 70
1
 10
50.810002
 20
164.282257
 30
0.0
 10
48.332881
 20
164.278701
 30
0.0
 10
47.091230
 20
166.422170
 30
0.0
 10
48.326706
 20
168.569204
 30
0.0
 10
50.803827
 20
168.572760
 30
0.0
 10
52.045475
 20
166.429291
 30
0.0
 10
50.810002
 20
164.282257
 30
0.0
  0
LWPOLYLINE
  5
171
100
AcDbEntity
  8
Layer_1
 62
3
100
AcDbPolyline
 90
7
 70
1
 10
55.272528
 20
161.714373
 30
0.0
 10
52.795407
 20
161.710817
 30
0.0
 10
51.553756
 20
163.854287
 30
0.0
 10
52.789232
 20
166.001320
 30
0.0
 10
55.266353
 20
166.004876
 30
0.0
 10
56.508001
 20
163.861407
 30
0.0
 10
55.272528
 20
161.714373
 30
0.0
  0
LWPOLYLINE
  5
172
100
AcDbEntity
  8
Layer_1
 62
3
100
AcDbPolyline
 90
7
 70
1
 10
59.735054
 20
159.146493
 30
0.0
 10
57.257933
 20
159.142937
 30
0.0
 10
56.016282
 20
161.286406
 30
0.0
 10
57.251758
 20
163.433440
 30
0.0
 10
59.728879
 20
163.436996
 30
0.0
 10
60.970527
 20
161.293526
 30
0.0
 10
59.735054
 20
159.146493
 30
0.0
  0
LWPOLYLINE
  5
173
100
AcDbEntity
  8
Layer_1
 62
3
100
AcDbPolyline
 90
7
 70
1
 10
37.429838
 20
166.837305
 30
0.0
 10
34.952717
 20
166.833749
 30
0.0
 10
33.711066
 20
168.977218
 30
0.0
 10
34.946542
 20
171.124252
 30
0.0
 10
37.423663
 20
171.127808
 30
0.0
 10
38.665311
 20
168.984339
 30
0.0
 10
37.429838
 20
166.837305
 30
0.0
  0
LWPOLYLINE
  5
174
100
AcDbEntity
  8
Layer_1
 62
3
100
AcDbPolyline
 90
7
 70
1
 10
41.892364
 20
164.269421
 30
0.0
 10
39.415243
 20
164.265865
 30
0.0
 10
38.173592
 20
166.409335
 30
0.0
 10
39.409068
 20
168.556368
 30
0.0
 10
41.886189
 20
168.559924
 30
0.0
 10
43.127837
 20
166.416455
 30
0.0
 10
41.892364
 20
164.269421
 30
0.0
  0
LWPOLYLINE
  5
175
100
AcDbEntity
  8
Layer_1
 62
3
100
AcDbPolyline
 90
7
 70
1
 10
68.623050
 20
179.753733
 30
0.0
 10
66.145929
 20
179.750177
 30
0.0
 10
64.904279
 20
181.893646
 30
0.0
 10
66.139754
 20
184.040680
 30
0.0
 10
68.616875
 20
184.044236
 30
0.0
 10
69.858523
 20
181.900766
 30
0.0
 10
68.623050
 20
179.753733
 30
0.0
  0
LWPOLYLINE
  5
176
100
AcDbEntity
  8
Layer_1
 62
3
100
AcDbPolyline
 90
7
 70
1
 10
68.615639
 20
184.902332
 30
0.0
 10
66.138518
 20
184.898776
 30
0.0
 10
64.896867
 20
187.042246
 30
0.0
 10
66.132343
 20
189.189279
 30
0.0
 10
68.609464
 20
189.192835
 30
0.0
 10
69.851112
 20
187.049366
 30
0.0
 10
68.615639
 20
184.902332
 30
0.0
  0
LWPOLYLINE
  5
177
100
AcDbEntity
  8
Layer_1
 62
3
100
AcDbPolyline
 90
7
 70
1
 10
73.078165
 20
182.334449
 30
0.0
 10
70.601044
 20
182.330893
 30
0.0
 10
69.359393
 20
184.474362
 30
0.0
 10
70.594869
 20
186.621396
 30
0.0
 10
73.071990
 20
186.624952
 30
0.0
 10
74.313638
 20
184.481483
 30
0.0
 10
73.078165
 20
182.334449
 30
0.0
  0
LWPOLYLINE
  5
178
100
AcDbEntity
  8
Layer_1
 62
3
100
AcDbPolyline
 90
7
 70
1
 10
64.167935
 20
177.173014
 30
0.0
 10
61.690814
 20
177.169458
 30
0.0
 10
60.449164
 20
179.312927
 30
0.0
 10
61.684639
 20
181.459961
 30
0.0
 10
64.161760
 20
181.463517
 30
0.0
 10
65.403408
 20
179.320047
 30
0.0
 10
64.167935
 20
177.173014
 30
0.0
  0
LWPOLYLINE
  5
179
100
AcDbEntity
  8
Layer_1
 62
3
100
AcDbPolyline
 90
7
 70
1
 10
59.712820
 20
174.592295
 30
0.0
 10
57.235700
 20
174.588739
 30
0.0
 10
55.994049
 20
176.732208
 30
0.0
 10
57.229525
 20
178.879242
 30
0.0
 10
59.706645
 20
178.882798
 30
0.0
 10
60.948293
 20
176.739328
 30
0.0
 10
59.712820
 20
174.592295
 30
0.0
  0
LWPOLYLINE
  5
17a
100
AcDbEntity
  8
Layer_1
 62
3
100
AcDbPolyline
 90
7
 70
1
 10
64.175346
 20
172.024411
 30
0.0
 10
61.698226
 20
172.020855
 30
0.0
 10
60.456575
 20
174.164324
 30
0.0
 10
61.692051
 20
176.311358
 30
0.0
 10
64.169171
 20
176.314914
 30
0.0
 10
65.410819
 20
174.171445
 30
0.0
 10
64.175346
 20
172.024411
 30
0.0
  0
LWPOLYLINE
  5
17b
100
AcDbEntity
  8
Layer_1
 62
3
100
AcDbPolyline
 90
7
 70
1
 10
68.637872
 20
169.456530
 30
0.0
 10
66.160752
 20
169.452974
 30
0.0
 10
64.919101
 20
171.596444
 30
0.0
 10
66.154577
 20
173.743477
 30
0.0
 10
68.631697
 20
173.747033
 30
0.0
 10
69.873345
 20
171.603564
 30
0.0
 10
68.637872
 20
169.456530
 30
0.0
  0
LWPOLYLINE
  5
17c
100
AcDbEntity
  8
Layer_1
 62
3
100
AcDbPolyline
 90
7
 70
1
 10
37.422430
 20
171.985907
 30
0.0
 10
34.945309
 20
171.982351
 30
0.0
 10
33.703658
 20
174.125821
 30
0.0
 10
34.939134
 20
176.272855
 30
0.0
 10
37.416255
 20
176.276411
 30
0.0
 10
38.657903
 20
174.132941
 30
0.0
 10
37.422430
 20
171.985907
 30
0.0
  0
LWPOLYLINE
  5
17d
100
AcDbEntity
  8
Layer_1
 62
3
100
AcDbPolyline
 90
7
 70
1
 10
68.630461
 20
174.605130
 30
0.0
 10
66.153340
 20
174.601574
 30
0.0
 10
64.911690
 20
176.745043
 30
0.0
 10
66.147165
 20
178.892077
 30
0.0
 10
68.624286
 20
178.895633
 30
0.0
 10
69.865934
 20
176.752164
 30
0.0
 10
68.630461
 20
174.605130
 30
0.0
  0
ENDSEC
  0
SECTION
  2
OBJECTS
  0
DICTIONARY
  5
C
330
0
100
AcDbDictionary
  3
ACAD_GROUP
350
D
  3
ACAD_MLINESTYLE
350
17
  0
DICTIONARY
  5
D
330
C
100
AcDbDictionary
  0
DICTIONARY
  5
1A
330
C
100
AcDbDictionary
  0
DICTIONARY
  5
17
330
C
100
AcDbDictionary
  3
STANDARD
350
18
  0
DICTIONARY
  5
19
330
C
100
AcDbDictionary
  0
ENDSEC
  0
EOF
