<?xml version="1.0" encoding="UTF-8" standalone="no"?>
<!-- Created with Inkscape (http://www.inkscape.org/) -->

<svg
   xmlns:dc="http://purl.org/dc/elements/1.1/"
   xmlns:cc="http://creativecommons.org/ns#"
   xmlns:rdf="http://www.w3.org/1999/02/22-rdf-syntax-ns#"
   xmlns:svg="http://www.w3.org/2000/svg"
   xmlns="http://www.w3.org/2000/svg"
   xmlns:sodipodi="http://sodipodi.sourceforge.net/DTD/sodipodi-0.dtd"
   xmlns:inkscape="http://www.inkscape.org/namespaces/inkscape"
   width="210mm"
   height="297mm"
   viewBox="0 0 744.09448819 1052.3622047"
   id="svg2"
   version="1.1"
   inkscape:version="0.91 r13725"
   sodipodi:docname="suport.svg">
  <defs
     id="defs4" />
  <sodipodi:namedview
     id="base"
     pagecolor="#ffffff"
     bordercolor="#666666"
     borderopacity="1.0"
     inkscape:pageopacity="0.0"
     inkscape:pageshadow="2"
     inkscape:zoom="0.7"
     inkscape:cx="494.95401"
     inkscape:cy="620.79472"
     inkscape:document-units="mm"
     inkscape:current-layer="layer1"
     showgrid="false"
     inkscape:window-width="1440"
     inkscape:window-height="837"
     inkscape:window-x="-4"
     inkscape:window-y="-4"
     inkscape:window-maximized="1" />
  <metadata
     id="metadata7">
    <rdf:RDF>
      <cc:Work
         rdf:about="">
        <dc:format>image/svg+xml</dc:format>
        <dc:type
           rdf:resource="http://purl.org/dc/dcmitype/StillImage" />
        <dc:title></dc:title>
      </cc:Work>
    </rdf:RDF>
  </metadata>
  <g
     inkscape:label="Layer 1"
     inkscape:groupmode="layer"
     id="layer1">
    <path
       style="fill:#000000"
       d="M 359.92773 122.80273 C 333.45901 122.75616 304.24553 123.40822 295.01367 124.66602 C 268.54167 128.27268 248.07541 135.57211 236.69141 145.4707 C 221.24001 158.90605 213.24273 180.44721 210.95703 214.78711 C 209.98793 229.34581 210.96683 261.88268 212.61523 270.14648 C 213.16133 272.87738 212.88847 273.21753 208.85938 274.80273 C 201.87207 277.55173 181.29406 289.13704 171.16016 296.02734 C 166.01606 299.52504 161.62856 302.38672 161.41016 302.38672 C 161.19186 302.38672 161.01367 298.86856 161.01367 294.56836 C 161.01367 276.65146 152.77356 265.14673 145.53516 272.95703 C 140.04856 278.87723 137.66049 293.57135 140.42969 304.37305 C 141.34419 307.94055 142.73122 311.83409 143.51172 313.02539 C 144.85812 315.08019 144.35582 315.77346 133.70312 326.53906 C 95.254922 365.39486 77.166934 410.90292 80.990234 459.16602 C 84.041634 497.68392 95.246528 547.30301 113.58203 603.50391 C 145.19133 700.39101 188.06691 785.4552 234.84961 844.0918 C 244.95381 856.7562 268.4731 880.70767 278.625 888.67188 C 306.0235 910.16607 333.73571 921.35481 359.63281 921.37891 C 406.04611 921.42191 455.08352 886.87777 501.66602 821.32227 C 566.01002 730.77107 626.97167 571.54192 638.32227 464.38672 C 639.16447 456.43512 638.94001 433.99788 637.94531 426.70898 C 635.76921 410.76158 629.40363 390.16218 622.24023 375.89258 C 614.20253 359.88178 602.40615 343.89688 586.65625 327.67188 L 574.80078 315.45703 L 577.02148 310.87109 C 580.19938 304.30639 580.88404 291.50195 578.52344 282.78125 C 573.65174 264.78375 562.81657 266.65179 558.98047 286.15039 C 558.30787 289.56889 557.97358 294.62155 558.23828 297.37695 C 558.50308 300.13235 558.54137 302.38672 558.32227 302.38672 C 558.10317 302.38672 554.60433 300.14676 550.54883 297.41016 C 540.03623 290.31626 520.74803 279.40816 510.76953 274.91406 L 502.23633 271.07031 L 501.74219 243.47852 C 501.21739 214.15272 500.18556 205.10607 495.53906 189.07227 C 484.10156 149.60364 459.41597 131.72153 406.01367 124.2207 C 399.44098 123.29751 380.51452 122.83896 359.92773 122.80273 z "
       id="path4868" />
  </g>
</svg>
