<?xml version="1.0" encoding="UTF-8" standalone="no"?>
<!-- Created with Inkscape (http://www.inkscape.org/) -->

<svg
   xmlns:dc="http://purl.org/dc/elements/1.1/"
   xmlns:cc="http://creativecommons.org/ns#"
   xmlns:rdf="http://www.w3.org/1999/02/22-rdf-syntax-ns#"
   xmlns:svg="http://www.w3.org/2000/svg"
   xmlns="http://www.w3.org/2000/svg"
   xmlns:sodipodi="http://sodipodi.sourceforge.net/DTD/sodipodi-0.dtd"
   xmlns:inkscape="http://www.inkscape.org/namespaces/inkscape"
   id="svg11192"
   version="1.1"
   inkscape:version="0.91 r13725"
   width="945"
   height="315"
   viewBox="0 0 945 315"
   sodipodi:docname="8bitheart.svg">
  <metadata
     id="metadata11198">
    <rdf:RDF>
      <cc:Work
         rdf:about="">
        <dc:format>image/svg+xml</dc:format>
        <dc:type
           rdf:resource="http://purl.org/dc/dcmitype/StillImage" />
        <dc:title></dc:title>
      </cc:Work>
    </rdf:RDF>
  </metadata>
  <defs
     id="defs11196" />
  <sodipodi:namedview
     pagecolor="#ffffff"
     bordercolor="#666666"
     borderopacity="1"
     objecttolerance="10"
     gridtolerance="10"
     guidetolerance="10"
     inkscape:pageopacity="0"
     inkscape:pageshadow="2"
     inkscape:window-width="1360"
     inkscape:window-height="746"
     id="namedview11194"
     showgrid="false"
     inkscape:document-units="mm"
     inkscape:zoom="2.5820106"
     inkscape:cx="170.72511"
     inkscape:cy="98.479429"
     inkscape:window-x="1432"
     inkscape:window-y="-8"
     inkscape:window-maximized="1"
     inkscape:current-layer="svg11192" />
  <path
     style="fill:none;stroke:#ff0000"
     d="M 186.92773 164.73242 L 174.10547 164.89258 L 161.2832 165.05078 L 161.11523 171.39844 L 160.94727 177.74609 L 154.76758 177.74609 L 148.58789 177.74609 L 148.58789 183.94727 L 148.58789 190.14648 L 141.79688 190.14648 L 135.00586 190.14648 L 135.00586 183.94727 L 135.00586 177.74609 L 129.39648 177.74609 L 123.78711 177.74609 L 123.78711 171.54688 L 123.78711 165.3457 L 109.91016 165.3457 L 96.033203 165.3457 L 96.033203 171.52734 L 96.033203 177.70703 L 89.685547 177.875 L 83.337891 178.04102 L 83.171875 184.38867 L 83.003906 190.73633 L 77.119141 190.73633 L 71.234375 190.73633 L 71.234375 211.10938 L 71.234375 231.48047 L 77.433594 231.48047 L 83.634766 231.48047 L 83.634766 237.68164 L 83.634766 243.88086 L 90.128906 243.88086 L 96.625 243.88086 L 96.625 250.37695 L 96.625 256.87109 L 103.11914 256.87109 L 109.61523 256.87109 L 109.61523 263.36719 L 109.61523 269.86133 L 116.70117 269.86133 L 123.78711 269.86133 L 123.78711 276.35742 L 123.78711 282.85352 L 129.69141 282.85352 L 135.5957 282.85352 L 135.5957 288.95508 C 135.5957 292.31102 135.78261 295.24159 136.00977 295.46875 C 136.23692 295.69588 139.09332 295.80664 142.35742 295.71484 L 148.29102 295.54883 L 148.45898 288.90625 L 148.625 282.26172 L 155.10156 282.26172 L 161.57812 282.26172 L 161.57617 275.91406 L 161.57617 269.56641 L 168.07227 269.75195 L 174.56836 269.93555 L 174.56836 263.4043 L 174.56836 256.87109 L 180.70508 256.87109 L 186.83984 256.87109 L 187.26367 250.39648 L 187.68555 243.91992 L 193.9707 243.75195 L 200.25391 243.58594 L 200.42188 237.25781 L 200.58984 230.93164 L 206.62305 230.76367 L 212.6543 230.5957 L 212.81055 210.68555 L 212.9668 190.77734 L 206.60938 190.60938 L 200.25391 190.44141 L 200.08789 184.11328 L 199.91992 177.78516 L 193.5918 177.61914 L 187.26367 177.45117 L 187.0957 171.0918 L 186.92773 164.73242 z M 102.9043 192.46484 L 109.02539 192.4668 L 109.02539 197.80273 L 109.02539 203.13672 L 102.80078 203.13672 L 96.578125 203.13672 L 96.474609 197.93555 L 96.371094 192.5293 L 102.9043 192.46484 z M 84.224609 205.5 L 90.128906 205.5 L 96.033203 205.5 L 96.033203 210.81445 L 96.033203 216.12891 L 90.128906 216.12891 L 84.224609 216.12891 L 84.224609 210.81445 L 84.224609 205.5 z M 96.625 218.49023 L 102.82422 218.49023 L 109.02539 218.49023 L 109.02539 223.80469 L 109.02539 229.11914 L 102.82422 229.11914 L 96.625 229.11914 L 96.625 223.80469 L 96.625 218.49023 z "
     id="path11744" />
</svg>
