<?xml version="1.0" encoding="UTF-8" standalone="no"?>
<!-- Created with Inkscape (http://www.inkscape.org/) -->

<svg
   xmlns:dc="http://purl.org/dc/elements/1.1/"
   xmlns:cc="http://creativecommons.org/ns#"
   xmlns:rdf="http://www.w3.org/1999/02/22-rdf-syntax-ns#"
   xmlns:svg="http://www.w3.org/2000/svg"
   xmlns="http://www.w3.org/2000/svg"
   xmlns:sodipodi="http://sodipodi.sourceforge.net/DTD/sodipodi-0.dtd"
   xmlns:inkscape="http://www.inkscape.org/namespaces/inkscape"
   id="svg6753"
   version="1.1"
   inkscape:version="0.91 r13725"
   width="163.97112mm"
   height="225.77777mm"
   viewBox="0 0 581 800"
   sodipodi:docname="banksy_girl.svg">
  <metadata
     id="metadata6759">
    <rdf:RDF>
      <cc:Work
         rdf:about="">
        <dc:format>image/svg+xml</dc:format>
        <dc:type
           rdf:resource="http://purl.org/dc/dcmitype/StillImage" />
        <dc:title></dc:title>
      </cc:Work>
    </rdf:RDF>
  </metadata>
  <defs
     id="defs6757" />
  <sodipodi:namedview
     pagecolor="#ffffff"
     bordercolor="#666666"
     borderopacity="1"
     objecttolerance="10"
     gridtolerance="10"
     guidetolerance="10"
     inkscape:pageopacity="0"
     inkscape:pageshadow="2"
     inkscape:window-width="1360"
     inkscape:window-height="746"
     id="namedview6755"
     showgrid="false"
     inkscape:zoom="1.668772"
     inkscape:cx="60.97274"
     inkscape:cy="145.88597"
     inkscape:window-x="1432"
     inkscape:window-y="-8"
     inkscape:window-maximized="1"
     inkscape:current-layer="svg6753"
     units="mm"
     inkscape:document-units="mm" />
  <path
     style="fill:none;stroke:#ff0000;stroke-width:0.35433072;stroke-miterlimit:4;stroke-dasharray:none"
     d="m 61.533203,542.73828 c -1.530623,7e-5 -2.77142,1.24087 -2.771484,2.77149 -10e-4,1.53138 1.240103,2.77336 2.771484,2.77343 1.531381,-7e-5 2.772485,-1.24205 2.771485,-2.77343 -6.4e-5,-1.53062 -1.240862,-2.77142 -2.771485,-2.77149 z"
     id="path8109" />
  <path
     style="fill:none;stroke:#ff0000;stroke-width:0.35433072;stroke-miterlimit:4;stroke-dasharray:none"
     d="M 70.464844 560.98828 C 70.369564 561.01338 70.242936 561.12566 70.074219 561.27734 C 69.700843 561.61293 68.759504 562.29833 67.982422 562.79883 L 66.568359 563.70898 L 67.568359 565.82812 C 69.476158 569.87171 69.517807 573.61415 67.693359 577.32617 C 66.618622 579.51282 64.126513 581.9588 61.841797 583.07031 C 60.632589 583.65857 60.802734 583.61095 60.802734 584.04102 C 60.802734 584.87524 60.270644 585.37138 61.501953 584.34375 C 65.253451 581.21287 69.684218 579.60292 73.908203 581.74023 C 74.632304 582.10662 74.036643 581.83344 74.441406 581.87891 C 74.626401 581.69544 76.013441 575.40739 75.886719 575.30859 C 74.915902 574.7948 76.02214 575.37849 75.210938 574.97266 C 73.129065 573.93109 72.72 572.36778 71.658203 570.12109 C 70.845213 568.40083 70.751953 567.81489 70.751953 564.43555 C 70.751953 561.62578 70.750653 560.91288 70.464844 560.98828 z "
     id="path8107" />
  <path
     style="fill:none;stroke:#ff0000;stroke-width:0.35433072;stroke-miterlimit:4;stroke-dasharray:none"
     d="M 46.496094 580.36328 C 46.276079 580.40278 46.143225 580.6506 46.140625 581.09961 C 46.132625 582.42038 45.756919 584.71024 43.824219 586.58594 L 43.28125 587.66797 L 44.533203 590.38867 C 45.63146 592.77165 45.874028 593.07849 46.492188 592.88281 C 46.880145 592.76 47.024113 593.47846 48.642578 593.38086 C 51.866908 593.18649 53.0661 594.44258 55.087891 595.79883 L 56.15625 596.51367 L 56.378906 594.1875 C 56.501618 592.90792 56.871384 591.15939 57.199219 590.30078 C 57.527054 589.44217 57.037088 588.38386 57.484375 587.67578 C 57.955693 586.92968 57.672168 586.27601 57.611328 585.75391 C 57.507187 584.86015 57.615494 584.43702 56.326172 584.31641 C 52.54668 583.96286 49.296373 583.014 47.371094 580.87891 C 47.022938 580.49281 46.716108 580.32378 46.496094 580.36328 z "
     id="path8105" />
  <path
     style="fill:none;stroke:#ff0000;stroke-width:0.35433072;stroke-miterlimit:4;stroke-dasharray:none"
     d="M 61.865234 539.14062 C 56.578618 538.99632 51.204781 541.97477 49.162109 547.72266 C 48.098673 550.7151 48.401561 554.58135 49.933594 557.56055 L 51.078125 559.78711 L 49.390625 560.79688 C 46.677023 562.42097 44.64859 565.26652 43.564453 568.97461 C 43.479943 569.26368 42.827322 568.95211 41.621094 568.04883 C 38.920772 566.02671 36.412276 565.26094 33.021484 565.42188 C 30.758209 565.52922 29.851787 565.75156 28.042969 566.63477 C 25.264636 567.99136 22.720486 570.66494 21.667969 573.33789 C 20.611792 576.02008 20.629502 579.8863 21.710938 582.67773 C 22.715863 585.2717 25.512341 588.23619 28.119141 589.4707 C 30.590329 590.641 34.625758 590.92503 37.400391 590.125 C 38.438857 589.82558 39.358059 589.58008 39.443359 589.58008 C 39.637322 589.58008 42.151991 595.00804 42.005859 595.11133 C 41.947159 595.15283 41.34542 595.51813 40.667969 595.92188 C 38.985323 596.92461 36.853736 599.28489 35.84375 601.26172 C 32.359107 608.08216 35.367454 616.59478 42.408203 619.83203 C 44.902902 620.97907 49.636854 621.24826 52.240234 620.39062 C 53.205099 620.07277 52.869321 620.18285 52.919922 620.24805 C 53.169244 620.56888 63.808594 642.06234 63.808594 642.26758 C 63.808594 642.39833 63.996564 642.32818 63.414062 642.62695 C 62.418976 643.13732 62.365328 643.2595 62.525391 644.66797 C 62.619081 645.49248 62.965097 646.46274 63.294922 646.82422 C 63.80961 647.38829 63.866136 647.89941 63.689453 650.42969 C 63.576221 652.05122 63.093759 654.89443 62.619141 656.74609 C 61.617476 660.65388 61.499105 662.55626 62.109375 664.91797 C 62.532871 666.55687 62.504663 666.72972 61.335938 669.76172 C 60.669367 671.49098 59.93876 673.84787 59.710938 675 C 59.413792 676.5026 59.120558 677.15101 58.675781 677.29102 C 58.334746 677.39837 57.518829 678.34923 56.861328 679.4043 C 55.68477 681.29239 55.173616 681.35652 56.144531 679.49414 C 56.640989 678.54195 56.520443 677.46186 55.744141 675.91211 C 55.564968 675.55444 55.197769 674.81242 54.929688 674.26172 C 54.57933 673.54203 53.943078 673.06867 52.667969 672.58008 C 51.692283 672.20623 50.894531 671.70562 50.894531 671.46875 C 50.894531 671.23188 50.291126 670.38828 49.552734 669.59375 C 48.65135 668.62386 48.265311 667.93583 48.376953 667.49805 C 48.560616 666.77784 47.291072 666.00391 45.925781 666.00391 C 45.507295 666.00391 45.074063 665.8581 44.962891 665.67969 C 44.710898 665.27529 43.427734 666.50277 43.427734 667.14844 C 43.427734 667.40807 42.968272 667.77902 42.408203 667.97266 C 41.848134 668.16631 41.390625 668.46635 41.390625 668.63867 C 41.390625 668.81101 40.91677 669.14694 40.337891 669.38477 C 38.675795 670.0676 35.958984 672.87498 35.958984 673.91016 C 35.958984 674.39429 35.720841 675.2482 35.429688 675.80664 C 34.949939 676.72706 34.950176 677.06298 35.435547 679.4082 C 35.849904 681.411 36.162043 682.13543 36.814453 682.61328 C 37.296831 682.96657 37.65625 683.56793 37.65625 684.02148 C 37.65625 684.9986 39.824355 687.10709 40.886719 687.19531 C 40.897019 687.24661 40.919514 687.31151 40.964844 687.39844 C 41.444432 688.31823 41.44127 688.48335 40.925781 689.26367 C 40.470214 689.95326 40.436349 690.28275 40.746094 690.95703 C 41.036628 691.58951 41.030741 691.95217 40.722656 692.44141 C 40.429062 692.90766 40.410482 693.35293 40.660156 694.03125 C 40.918 694.73176 40.891289 695.15679 40.552734 695.6875 C 40.30228 696.08009 39.987938 697.02937 39.853516 697.79688 L 39.607422 699.19336 L 38.353516 698.3457 C 37.663335 697.87999 38.210265 698.32422 38.013672 698.32422 C 37.381662 698.32422 37.6324 699.37379 38.419922 700.02539 L 39.183594 700.6582 L 37.939453 700.66797 C 37.254632 700.67397 36.454391 700.77082 36.160156 700.88281 C 35.338554 701.19551 35.876276 701.68945 37.039062 701.68945 L 38.078125 701.68945 L 36.679688 703.03711 C 35.910204 703.77777 35.051308 704.38281 34.771484 704.38281 C 34.49166 704.38281 34.263625 704.49785 34.265625 704.63672 C 34.267225 704.7756 35.166075 704.9252 36.263672 704.9707 C 38.04727 705.0447 38.317751 704.9687 38.798828 704.24023 C 40.125649 702.23178 42.034694 703.06833 42.121094 705.69727 C 42.151284 706.61588 42.226694 706.88359 42.308594 706.35547 C 42.419186 705.64202 42.588217 705.50204 43.160156 705.65039 C 43.796805 705.81552 43.850532 705.72769 43.667969 704.82227 C 43.550798 704.24122 43.628699 703.64488 43.849609 703.42578 C 44.137304 703.14043 44.034225 702.68874 43.441406 701.64258 C 42.740865 700.40631 42.707529 700.1958 43.166016 699.86328 C 43.661283 699.50409 44.114094 697.27017 44.121094 695.14844 C 44.122894 694.60606 44.281696 693.97469 44.474609 693.74414 C 44.672191 693.50803 44.729048 692.81018 44.603516 692.14648 C 44.400783 691.07467 44.474766 690.91942 45.425781 690.43164 C 46.000809 690.13671 46.717487 689.42113 47.019531 688.8418 C 47.699952 687.53677 48.179361 688.08384 47.935547 689.88672 C 47.678293 691.78903 48.455912 695.96786 49.347656 697.47852 C 50.319001 699.12401 51.846586 704.05645 51.955078 705.89844 C 51.998698 706.63911 51.79786 707.70037 51.509766 708.25586 C 51.221661 708.81136 50.794944 709.87067 50.5625 710.61133 C 49.553154 713.82751 47.912753 716.04281 43.408203 720.26367 C 38.215643 725.12921 36.328955 726.3808 34.636719 726.08398 C 33.260678 725.84263 32.820322 726.33507 33.292969 727.58594 C 33.709835 728.68916 35.888919 730.64258 36.701172 730.64258 C 37.124758 730.64258 37.318359 730.89401 37.318359 731.44336 C 37.318359 732.48609 37.884917 732.9211 39.601562 733.19336 C 41.38279 733.47587 43.01864 734.45715 43.410156 735.47852 C 43.65356 736.1135 44.031915 736.3078 45.296875 736.44922 C 47.650511 736.71234 47.804205 737.05815 46.484375 739.13281 C 43.817754 743.32449 43.6133 743.82437 43.625 746.12891 C 43.6311 747.33248 43.759674 750.36356 43.910156 752.86328 C 44.361313 760.35779 42.957377 768.39724 40.638672 771.59961 C 39.88047 772.64649 39.687751 773.19484 39.871094 773.78711 C 40.24898 775.00789 40.714671 775.42968 42.59375 776.25391 C 44.044202 776.89013 44.510372 777.32885 45.410156 778.91016 C 46.769787 781.29963 48.798757 782.82617 50.617188 782.82617 C 52.231752 782.82617 52.569865 782.19696 51.650391 780.90234 C 50.996441 779.98157 50.37317 778.44922 50.652344 778.44922 C 50.730404 778.44922 51.254218 778.60835 51.816406 778.80273 C 52.803092 779.14388 53.611328 780.29107 53.611328 781.34961 C 53.611328 782.60328 55.128072 785.26572 56.287109 786.04688 C 57.662381 786.97375 58.44301 787.07695 59.005859 786.4043 C 59.426205 785.90195 59.344497 785.57355 58.142578 782.90039 C 57.666091 781.84065 57.345656 780.48068 57.347656 779.5332 C 57.349456 778.65916 57.170452 776.49344 56.949219 774.7207 C 56.459811 770.79902 56.865339 767.85696 59.410156 756.90234 C 60.33497 752.92128 61.25957 748.9063 61.464844 747.98047 C 61.670127 747.05465 62.333804 744.93406 62.939453 743.26758 C 63.545113 741.60109 64.406168 739.10164 64.851562 737.71289 C 65.623345 735.30647 65.710138 735.1863 66.708984 735.1543 C 67.285403 735.1358 68.217098 734.78334 68.779297 734.37109 L 69.800781 733.62109 L 69.921875 727.50391 C 70.170929 714.89502 70.119635 713.8719 69.125 711.46484 C 68.238766 709.3201 68.236167 709.27806 68.873047 708.60352 C 70.420081 706.96503 70.684346 703.34951 69.574219 699.03711 C 68.887568 696.36973 65.26133 687.45945 64.320312 686.12695 C 63.49583 684.95944 63.670846 684.59215 65.490234 683.67773 C 66.423688 683.20858 67.1875 682.73605 67.1875 682.62695 C 67.1875 682.51785 66.801032 682.12676 66.328125 681.75781 C 65.855207 681.38885 65.100608 680.36559 64.650391 679.48438 L 64.728516 679.23047 L 66.427734 672.5332 L 68.125 665.83594 L 67.904297 659.43945 C 67.688504 653.19728 67.79112 651.83581 68.804688 647.39648 C 69.151651 645.87695 69.159491 645.22301 68.845703 644.39844 C 68.452557 643.36538 68.673235 642.3901 71.921875 638.40039 C 73.745633 636.1606 76.883863 632.24524 78.896484 629.69922 C 80.909115 627.1532 82.407691 625.1875 82.462891 625.1875 C 82.518111 625.1875 82.372291 624.96756 83.195312 625.42383 C 88.490584 628.35924 95.437749 627.29211 99.570312 622.91016 C 104.60113 617.57577 104.70861 609.85188 99.826172 604.36133 L 98.449219 602.8125 L 100.55469 602.23438 C 103.293 601.48361 105.0743 600.42919 106.86719 598.5 C 112.81188 592.10347 110.66073 581.95995 102.5625 578.19531 C 100.87773 577.4121 100.19751 577.29278 97.398438 577.30078 C 94.472831 577.30878 93.966671 577.40968 91.9375 578.38672 C 89.244258 579.68349 86.856995 582.08672 85.578125 584.79297 C 84.793152 586.45409 84.673415 587.13351 84.695312 589.74805 C 84.726033 593.41041 85.560605 595.83756 87.566406 598.09766 C 88.306947 598.93208 88.912109 599.70596 88.912109 599.81641 C 88.912109 599.92685 88.554681 600.01758 88.117188 600.01758 C 87.09021 600.01758 83.802564 601.14031 82.666016 601.87891 C 81.60934 602.56561 81.579089 602.40867 82.445312 600.72461 C 82.809287 600.01698 83.295084 598.43236 83.523438 597.20312 C 84.288188 593.08655 82.938128 588.77994 79.863281 585.51953 L 78.341797 583.9043 L 78.960938 580.60352 L 79.582031 577.30273 L 82.992188 577.29883 C 86.247799 577.29383 86.518826 577.23583 88.996094 576.02148 C 91.790217 574.65186 93.495824 573.00652 94.851562 570.37695 C 98.033942 564.20442 95.312195 556.2379 88.960938 553.13672 C 86.884743 552.1229 86.469988 552.04297 83.318359 552.04297 C 80.363584 552.04297 79.670331 552.15728 78.035156 552.91797 C 76.99984 553.39961 75.557289 554.31009 74.830078 554.93945 C 73.943354 555.70687 73.584623 555.87917 73.742188 555.46484 C 74.704143 552.93523 74.0817 548.1018 72.433594 545.3125 C 70.036109 541.25491 65.977047 539.2529 61.865234 539.14062 z "
     id="path8086" />
  <path
     style="fill:none;stroke:#ff0000;stroke-width:0.35433072;stroke-miterlimit:4;stroke-dasharray:none"
     d="m 51.525391,752.86523 c 0.120592,8.2e-4 0.24645,2.1591 0.28125,4.79688 0.03477,2.63778 0.251849,5.96179 0.482421,7.38672 0.52077,3.21832 0.04117,5.82772 -1.36914,7.44531 -0.514508,0.59014 -1.102448,1.37576 -1.306641,1.74609 -0.335635,0.60876 -0.45342,0.49658 -1.232422,-1.1875 -1.116327,-2.41336 -1.292495,-7.45534 -0.36914,-10.5957 0.967955,-3.29203 3.276908,-9.5938 3.513672,-9.5918 z"
     id="path7307" />
</svg>
