<?xml version="1.0" encoding="UTF-8" standalone="no"?>
<!-- Created with Inkscape (http://www.inkscape.org/) -->

<svg
   xmlns:dc="http://purl.org/dc/elements/1.1/"
   xmlns:cc="http://creativecommons.org/ns#"
   xmlns:rdf="http://www.w3.org/1999/02/22-rdf-syntax-ns#"
   xmlns:svg="http://www.w3.org/2000/svg"
   xmlns="http://www.w3.org/2000/svg"
   xmlns:sodipodi="http://sodipodi.sourceforge.net/DTD/sodipodi-0.dtd"
   xmlns:inkscape="http://www.inkscape.org/namespaces/inkscape"
   id="svg4150"
   version="1.1"
   inkscape:version="0.91 r13725"
   width="100mm"
   height="100mm"
   viewBox="0 0 354.33069 354.3307"
   sodipodi:docname="cupid-clip-art-cupid-hi.svg">
  <metadata
     id="metadata4156">
    <rdf:RDF>
      <cc:Work
         rdf:about="">
        <dc:format>image/svg+xml</dc:format>
        <dc:type
           rdf:resource="http://purl.org/dc/dcmitype/StillImage" />
        <dc:title></dc:title>
      </cc:Work>
    </rdf:RDF>
  </metadata>
  <defs
     id="defs4154" />
  <sodipodi:namedview
     pagecolor="#ffffff"
     bordercolor="#666666"
     borderopacity="1"
     objecttolerance="10"
     gridtolerance="10"
     guidetolerance="10"
     inkscape:pageopacity="0"
     inkscape:pageshadow="2"
     inkscape:window-width="1360"
     inkscape:window-height="746"
     id="namedview4152"
     showgrid="false"
     units="mm"
     inkscape:zoom="2.4034827"
     inkscape:cx="88.908306"
     inkscape:cy="109.22601"
     inkscape:window-x="1432"
     inkscape:window-y="-8"
     inkscape:window-maximized="1"
     inkscape:current-layer="svg4150" />
  <path
     style="fill:none;stroke:#ff0000"
     d="M 102.9375 180.48828 C 102.43355 180.5096 100.17137 181.35029 97.912109 182.35547 C 92.151916 184.91828 91.454785 184.99501 81.287109 184.17383 C 71.568073 183.3889 66.722464 183.33768 64.251953 183.99609 C 63.174942 184.28312 61.20304 185.26167 59.228516 186.48633 C 54.953436 189.13788 54.256871 189.3543 52.160156 188.69336 C 50.827091 188.27316 50.330761 188.24176 49.410156 188.51758 C 47.59318 189.06196 45.937735 190.5016 43.724609 193.45898 C 41.284292 196.71997 40.119868 197.51145 36.365234 198.4668 C 34.934296 198.8309 32.950444 199.56231 31.957031 200.0918 C 27.907622 202.25011 23.656338 206.7493 20.357422 212.36719 C 14.97434 221.53433 12.585728 224.03367 5.9824219 227.41602 C 4.4924157 228.17923 2.9126669 229.13924 2.4707031 229.54883 C 1.7439674 230.22236 1.7115549 230.33656 2.1269531 230.75195 C 2.7549341 231.37993 5.1294998 231.29618 7.28125 230.56836 C 8.2196762 230.25094 11.847143 228.44662 15.341797 226.55859 C 22.347165 222.77383 45.029533 211.41416 47.474609 210.4668 L 49.021484 209.86914 L 49.615234 210.50586 C 49.941931 210.85653 50.826898 212.34984 51.582031 213.82422 C 54.285886 219.10339 56.143055 221.16822 63.078125 226.60352 C 70.657744 232.54397 73.559685 236.15266 73.044922 239.00195 C 72.695826 240.93422 71.52557 241.07497 68.376953 239.56055 C 65.519405 238.18613 63.94059 236.41685 62.806641 233.32031 C 61.168924 228.84808 58.935446 226.70117 55.919922 226.70117 C 55.057766 226.70117 54.351562 226.79314 54.351562 226.90625 C 54.351562 227.01937 54.983785 227.68709 55.755859 228.39062 L 57.160156 229.66992 L 54.794922 229.45117 C 50.613839 229.06181 48.968532 229.34652 48.59375 230.52734 C 48.355982 231.27648 49.094906 232.68557 50.054688 233.31445 C 51.177811 234.05034 52.72449 236.57054 53.794922 239.4082 C 54.649048 241.67244 54.977945 242.15595 57.132812 244.29883 C 58.447676 245.60638 60.98743 247.65662 62.775391 248.85547 C 68.730621 252.84851 69.104848 253.29064 69.677734 256.99609 C 69.853968 258.13597 70.271463 259.86317 70.605469 260.83398 C 71.35777 263.02058 72.013121 268.23792 72.304688 274.36133 L 72.527344 279.02148 L 69.867188 280.54297 C 66.459837 282.49257 60.059131 286.65673 57.759766 288.41992 C 54.514742 290.90826 50.944582 294.28134 49.847656 295.89258 C 48.901914 297.28175 48.561568 298.33167 47.138672 304.27734 C 45.258381 312.13424 43.854105 318.97842 43.464844 322.17773 C 43.165986 324.63399 42.705678 325.74354 41.480469 326.96875 C 39.386478 329.06275 36.633526 330.02613 31.175781 330.57812 C 26.548928 331.04608 26.124405 331.25839 25.832031 333.24023 C 25.338008 336.58905 29.259076 338.3928 37.0625 338.4082 C 42.094176 338.41809 45.464093 338.82449 48.068359 339.73438 C 49.94821 340.39116 50.30987 340.43273 51.28125 340.10742 C 53.058717 339.51218 53.606544 338.48295 53.652344 335.65625 C 53.675293 334.23932 53.892747 332.69533 54.177734 331.92383 C 55.212642 329.12208 57.658899 325.34608 60.978516 321.42969 C 63.114836 318.90932 63.774352 317.18967 64.121094 313.23828 C 64.694077 306.7089 66.06689 305.47213 73.230469 305.01758 C 77.800621 304.72758 81.460613 304.00211 85.033203 302.67773 C 88.425258 301.42027 89.025882 301.46012 90.105469 303.02148 C 99.532329 316.65526 105.68891 324.74743 107.25 325.55469 C 107.77615 325.82678 109.23467 326.03111 111.14453 326.09961 C 113.16725 326.17213 115.19531 326.46886 117.15625 326.97852 C 121.22871 328.03697 124.90044 328.59429 129.34375 328.83008 C 131.41586 328.94006 133.53022 329.20001 134.04297 329.4082 C 135.22676 329.88887 136.06309 331.31244 138.00391 336.15039 C 139.23413 339.21698 139.55473 340.38375 139.68359 342.26367 L 139.8418 344.58789 L 140.91016 345.03125 C 143.40711 346.06847 146.46958 345.35543 147.54883 343.48633 C 148.48937 341.85746 148.79556 336.06346 148.39453 327.49023 C 148.03198 319.73929 147.78226 318.22113 146.78516 317.6875 C 146.43728 317.50133 144.65013 317.17467 142.8125 316.96094 C 139.03898 316.52204 137.87213 316.08668 134.09766 313.70508 C 130.78454 311.61457 128.56579 310.78856 124.6875 310.20312 C 122.77763 309.91484 121.30043 309.52802 120.8457 309.19531 C 118.36126 307.37754 115.46912 299.86529 115.44922 295.18164 C 115.442 293.48743 115.54469 293.06485 116.12305 292.44922 C 118.39547 290.03034 115.69576 280.92991 111.27734 276.11523 C 107.14585 271.61323 104.50632 266.45354 105.58203 264.98242 C 105.9559 264.47113 106.11868 264.44988 107.18555 264.76953 C 108.34552 265.11706 109.7184 266.2911 112.55859 269.36133 C 113.73035 270.62798 113.97514 270.76355 114.77539 270.59375 C 115.2701 270.48879 116.58333 270.30964 117.69336 270.19531 C 119.15011 270.04528 119.79105 269.8445 119.99805 269.47461 C 120.4912 268.5934 121.21661 268.90125 122.96094 270.73438 C 124.57896 272.43476 124.70897 272.50781 126.10938 272.50781 C 126.91258 272.50781 128.13513 272.70735 128.82617 272.95117 C 130.53903 273.5555 131.58621 273.50878 132.23047 272.79688 C 132.68916 272.29006 133.07673 272.20894 134.75781 272.27734 C 136.37444 272.34313 136.86164 272.25403 137.37109 271.79297 C 138.23752 271.00886 140.05664 267.28458 140.05664 266.29492 C 140.05664 265.79779 139.55128 264.7952 138.76172 263.72266 C 137.09775 261.46231 136.72124 260.74006 136.92578 260.20703 C 137.14658 259.63162 138.02367 260.09364 138.53906 261.05664 C 138.74854 261.44806 139.3419 262.02398 139.85742 262.33594 C 140.72868 262.86317 141.43936 262.90344 149.95508 262.89844 C 159.83528 262.89285 160.83278 262.76222 160.73047 261.49805 C 160.70137 261.13271 160.69294 260.74437 160.71094 260.63281 C 160.72894 260.52126 161.70635 260.69965 162.88477 261.0293 C 165.47267 261.75323 167.17095 261.62419 169.30078 260.54492 C 170.95697 259.70567 171.70514 258.61341 171.19141 257.7832 C 171.02319 257.51138 169.9128 256.95519 168.72266 256.54883 C 167.53252 256.14248 166.42149 255.58918 166.25391 255.31836 C 165.82863 254.63107 166.50274 253.89062 167.55273 253.89062 C 168.82537 253.89062 169.3125 253.59603 169.3125 252.83008 C 169.3125 252.30482 168.9975 251.96485 168.05664 251.47461 L 166.80078 250.82031 L 169.27539 250.45703 C 171.99976 250.05762 172.38284 249.83516 172.40234 248.65039 C 172.41756 247.72552 172.91486 247.50708 175.63281 247.22266 C 177.70329 247.006 178.76953 246.15947 178.76953 244.73438 C 178.76953 243.54839 177.98998 243.25 174.88281 243.25 L 172.51172 243.25 L 175.15234 240.66406 C 178.70217 237.1877 179.80998 234.85358 178.48047 233.65039 C 177.73727 232.9778 176.04053 233.17013 173.74414 234.18555 C 171.08844 235.35986 167.76225 235.9677 163.99414 235.9707 C 160.49959 235.97316 159.53299 235.73342 158.99414 234.72656 C 158.45381 233.71695 159.23673 231.86521 161.20312 229.5 C 164.28288 225.79562 164.51991 223.66394 161.64648 225.50781 C 159.19557 227.08055 158.61841 226.1512 160.00391 222.85938 C 160.85775 220.83073 160.93275 219.839 160.2793 219.18555 C 159.54603 218.45228 158.41139 218.63203 155.80859 219.89453 C 152.92534 221.29306 150.00982 222.09603 145.55859 222.7168 C 143.75087 222.96891 140.91455 223.36412 139.25586 223.5957 C 134.78739 224.21956 132.16686 225.21483 128.30859 227.75195 C 124.2316 230.43291 122.7669 231.19637 121.93164 231.07617 C 121.44303 231.00586 121.30803 230.80744 121.36523 230.24609 C 121.47241 229.19374 122.74101 228.17773 123.94922 228.17773 C 125.31846 228.17773 126.74909 226.96696 126.28125 226.20312 C 126.10118 225.90911 125.48389 225.53392 124.9082 225.37109 C 123.31035 224.91915 122.61914 224.14113 122.61914 222.79297 C 122.61914 221.36285 122.94833 220.71992 124.57031 218.96875 C 127.2339 216.09303 126.66658 214.37187 122.32422 212.15234 C 120.36604 211.15145 119.96791 210.66424 119.0332 208.10742 C 118.44838 206.50769 115.43245 203.50078 113.38672 202.47852 C 112.39822 201.98456 111.30261 201.58008 110.95117 201.58008 C 109.70753 201.58008 107.56459 200.63539 106.30859 199.5332 C 104.41962 197.87555 103.21929 197.36416 100.85742 197.21094 C 99.048216 197.09357 98.513541 197.18137 97.109375 197.82422 C 95.434441 198.59103 94.544922 199.69139 94.544922 200.99414 C 94.544922 201.82781 94.021829 202.76367 93.556641 202.76367 C 93.013102 202.76367 91.587351 204.37862 90.035156 206.75195 C 88.66996 208.83935 87.441983 209.85547 86.287109 209.85547 C 85.941247 209.85547 85.204767 210.04571 84.650391 210.27734 C 83.68307 210.68152 83.589376 210.86897 82.296875 214.92383 C 80.401459 220.87018 80.404876 220.89477 83.367188 223.92969 C 84.726505 225.32232 85.58172 226.40625 85.324219 226.40625 C 84.033446 226.40625 75.17842 219.80904 72.970703 217.20312 C 72.094678 216.1691 68.99301 212.91489 66.078125 209.97266 C 63.163235 207.03043 60.643131 204.38399 60.478516 204.08984 C 60.085971 203.38839 60.390398 203.17014 64.990234 200.85352 C 76.706217 194.95301 89.788298 189.04179 92.78125 188.29688 C 96.510314 187.36876 101.20264 185.00153 103.35352 182.96289 C 103.84282 182.49912 104.00836 182.05479 103.94336 181.38477 C 103.86209 180.54744 103.75948 180.45348 102.9375 180.48828 z M 73.470703 188.74219 C 77.270393 188.6872 82.705539 188.86524 83.230469 189.14062 C 83.615642 189.3427 64.751977 199.13939 61.482422 200.43555 C 57.732881 201.92199 57.099249 201.82275 57.423828 199.79297 C 57.662393 198.30102 59.351982 194.82294 60.539062 193.38281 C 62.618254 190.8604 65.826251 189.40517 70.458984 188.88086 C 71.119723 188.80608 72.20414 188.76052 73.470703 188.74219 z M 43.208984 203.63672 C 44.198222 203.65682 45.098256 203.77489 45.849609 204 C 47.01562 204.34935 48.736328 205.69126 48.736328 206.25 C 48.736328 206.41165 48.106058 206.94818 47.333984 207.44336 C 45.044529 208.91173 32.182296 215.55294 26.072266 218.42188 C 22.952549 219.88673 20.259632 221.08594 20.087891 221.08594 C 19.916149 221.08594 19.775391 220.91724 19.775391 220.71094 C 19.775391 219.97936 24.60667 213.91478 27.964844 210.43164 C 30.784013 207.50754 31.735668 206.71786 33.478516 205.86328 C 36.466936 204.39796 40.241272 203.57642 43.208984 203.63672 z M 116.17578 234.99023 C 116.4983 235.00523 116.7951 235.15063 116.89844 235.41992 C 117.40996 236.7529 115.40026 239.3726 113.01367 240.48633 C 111.89821 241.00688 111.0304 241.17497 109.46875 241.16797 C 106.60917 241.15561 105.18359 240.28671 105.18359 238.55859 C 105.18359 237.58587 105.73975 237.53111 106.96875 238.38281 C 108.39436 239.37077 109.27512 239.39697 110.55273 238.48633 C 111.26873 237.976 111.93467 237.78349 112.99609 237.7832 C 114.41535 237.78275 114.46283 237.75433 114.72266 236.74805 C 114.86955 236.17916 115.12518 235.54887 115.29297 235.3457 C 115.50332 235.09102 115.85327 234.97524 116.17578 234.99023 z "
     id="path4700" />
</svg>
