  0
SECTION
  2
HEADER
  9
$ACADVER
  1
AC1014
  9
$HANDSEED
  5
FFFF
  9
$MEASUREMENT
 70
     1
  0
ENDSEC
  0
SECTION
  2
TABLES
  0
TABLE
  2
VPORT
  5
8
330
0
100
AcDbSymbolTable
 70
     4
  0
VPORT
  5
2E
330
8
100
AcDbSymbolTableRecord
100
AcDbViewportTableRecord
  2
*ACTIVE
 70
     0
 10
0.0
 20
0.0
 11
1.0
 21
1.0
 12
210.0
 22
148.5
 13
0.0
 23
0.0
 14
10.0
 24
10.0
 15
10.0
 25
10.0
 16
0.0
 26
0.0
 36
1.0
 17
0.0
 27
0.0
 37
0.0
 40
341.0
 41
1.24
 42
50.0
 43
0.0
 44
0.0
 50
0.0
 51
0.0
 71
     0
 72
   100
 73
     1
 74
     3
 75
     0
 76
     0
 77
     0
 78
     0
  0
ENDTAB
  0
TABLE
  2
LTYPE
  5
5
330
0
100
AcDbSymbolTable
 70
     1
  0
LTYPE
  5
14
330
5
100
AcDbSymbolTableRecord
100
AcDbLinetypeTableRecord
  2
BYBLOCK
 70
     0
  3

 72
    65
 73
     0
 40
0.0
  0
LTYPE
  5
15
330
5
100
AcDbSymbolTableRecord
100
AcDbLinetypeTableRecord
  2
BYLAYER
 70
     0
  3

 72
    65
 73
     0
 40
0.0
  0
LTYPE
  5
16
330
5
100
AcDbSymbolTableRecord
100
AcDbLinetypeTableRecord
  2
CONTINUOUS
 70
     0
  3
Solid line
 72
    65
 73
     0
 40
0.0
  0
ENDTAB
  0
TABLE
  2
LAYER
  5
2
100
AcDbSymbolTable
 70
1
  0
LAYER
  5
50
100
AcDbSymbolTableRecord
100
AcDbLayerTableRecord
  2
0
 70
0
  6
CONTINUOUS
  0
ENDTAB
  0
TABLE
  2
STYLE
  5
3
330
0
100
AcDbSymbolTable
 70
     1
  0
STYLE
  5
11
330
3
100
AcDbSymbolTableRecord
100
AcDbTextStyleTableRecord
  2
STANDARD
 70
     0
 40
0.0
 41
1.0
 50
0.0
 71
     0
 42
2.5
  3
txt
  4

  0
ENDTAB
  0
TABLE
  2
VIEW
  5
6
330
0
100
AcDbSymbolTable
 70
     0
  0
ENDTAB
  0
TABLE
  2
UCS
  5
7
330
0
100
AcDbSymbolTable
 70
     0
  0
ENDTAB
  0
TABLE
  2
APPID
  5
9
330
0
100
AcDbSymbolTable
 70
     2
  0
APPID
  5
12
330
9
100
AcDbSymbolTableRecord
100
AcDbRegAppTableRecord
  2
ACAD
 70
     0
  0
ENDTAB
  0
TABLE
  2
DIMSTYLE
  5
A
330
0
100
AcDbSymbolTable
 70
     1
  0
DIMSTYLE
105
27
330
A
100
AcDbSymbolTableRecord
100
AcDbDimStyleTableRecord
  2
ISO-25
 70
     0
  3

  4

  5

  6

  7

 40
1.0
 41
2.5
 42
0.625
 43
3.75
 44
1.25
 45
0.0
 46
0.0
 47
0.0
 48
0.0
140
2.5
141
2.5
142
0.0
143
0.03937007874016
144
1.0
145
0.0
146
1.0
147
0.625
 71
     0
 72
     0
 73
     0
 74
     0
 75
     0
 76
     0
 77
     1
 78
     8
170
     0
171
     3
172
     1
173
     0
174
     0
175
     0
176
     0
177
     0
178
     0
270
     2
271
     2
272
     2
273
     2
274
     3
340
11
275
     0
280
     0
281
     0
282
     0
283
     0
284
     8
285
     0
286
     0
287
     3
288
     0
  0
ENDTAB
  0
TABLE
  2
BLOCK_RECORD
  5
1
330
0
100
AcDbSymbolTable
 70
     1
  0
BLOCK_RECORD
  5
1F
330
1
100
AcDbSymbolTableRecord
100
AcDbBlockTableRecord
  2
*MODEL_SPACE
  0
BLOCK_RECORD
  5
1B
330
1
100
AcDbSymbolTableRecord
100
AcDbBlockTableRecord
  2
*PAPER_SPACE
  0
ENDTAB
  0
ENDSEC
  0
SECTION
  2
BLOCKS
  0
BLOCK
  5
20
330
1F
100
AcDbEntity
  8
0
100
AcDbBlockBegin
  2
*MODEL_SPACE
 70
     0
 10
0.0
 20
0.0
 30
0.0
  3
*MODEL_SPACE
  1

  0
ENDBLK
  5
21
330
1F
100
AcDbEntity
  8
0
100
AcDbBlockEnd
  0
BLOCK
  5
1C
330
1B
100
AcDbEntity
 67
     1
  8
0
100
AcDbBlockBegin
  2
*PAPER_SPACE
  1

  0
ENDBLK
  5
1D
330
1B
100
AcDbEntity
 67
     1
  8
0
100
AcDbBlockEnd
  0
ENDSEC
  0
SECTION
  2
ENTITIES
  0
SPLINE
  5
100
100
AcDbEntity
  8
0
 62
1
100
AcDbSpline
 70
8
 71
3
 72
8
 73
4
 74
0
 40
0
 40
0
 40
0
 40
0
 40
1
 40
1
 40
1
 40
1
 10
30.641691
 20
36.843420
 30
0.0
 10
30.641691
 20
36.604837
 30
0.0
 10
30.546915
 20
36.376026
 30
0.0
 10
30.378212
 20
36.207322
 30
0.0
  0
SPLINE
  5
101
100
AcDbEntity
  8
0
 62
1
100
AcDbSpline
 70
8
 71
3
 72
8
 73
4
 74
0
 40
0
 40
0
 40
0
 40
0
 40
1
 40
1
 40
1
 40
1
 10
30.378212
 20
36.207322
 30
0.0
 10
30.209509
 20
36.038619
 30
0.0
 10
29.980698
 20
35.943842
 30
0.0
 10
29.742116
 20
35.943842
 30
0.0
  0
SPLINE
  5
102
100
AcDbEntity
  8
0
 62
1
100
AcDbSpline
 70
8
 71
3
 72
8
 73
4
 74
0
 40
0
 40
0
 40
0
 40
0
 40
1
 40
1
 40
1
 40
1
 10
29.742116
 20
35.943842
 30
0.0
 10
29.503533
 20
35.943842
 30
0.0
 10
29.274723
 20
36.038619
 30
0.0
 10
29.106020
 20
36.207322
 30
0.0
  0
SPLINE
  5
103
100
AcDbEntity
  8
0
 62
1
100
AcDbSpline
 70
8
 71
3
 72
8
 73
4
 74
0
 40
0
 40
0
 40
0
 40
0
 40
1
 40
1
 40
1
 40
1
 10
29.106020
 20
36.207322
 30
0.0
 10
28.937316
 20
36.376026
 30
0.0
 10
28.842540
 20
36.604837
 30
0.0
 10
28.842541
 20
36.843420
 30
0.0
  0
SPLINE
  5
104
100
AcDbEntity
  8
0
 62
1
100
AcDbSpline
 70
8
 71
3
 72
8
 73
4
 74
0
 40
0
 40
0
 40
0
 40
0
 40
1
 40
1
 40
1
 40
1
 10
28.842541
 20
36.843420
 30
0.0
 10
28.842541
 20
37.340241
 30
0.0
 10
29.245295
 20
37.742994
 30
0.0
 10
29.742116
 20
37.742995
 30
0.0
  0
SPLINE
  5
105
100
AcDbEntity
  8
0
 62
1
100
AcDbSpline
 70
8
 71
3
 72
8
 73
4
 74
0
 40
0
 40
0
 40
0
 40
0
 40
1
 40
1
 40
1
 40
1
 10
29.742116
 20
37.742995
 30
0.0
 10
30.238937
 20
37.742994
 30
0.0
 10
30.641691
 20
37.340241
 30
0.0
 10
30.641691
 20
36.843420
 30
0.0
  0
LWPOLYLINE
  5
106
100
AcDbEntity
  8
0
 62
1
100
AcDbPolyline
 90
2
 70
0
 10
30.641691
 20
36.843420
 30
0.0
 10
30.641691
 20
36.843420
 30
0.0
  0
LWPOLYLINE
  5
107
100
AcDbEntity
  8
0
 62
1
100
AcDbPolyline
 90
261
 70
0
 10
14.911476
 20
51.636193
 30
0.0
 10
14.015268
 20
51.593030
 30
0.0
 10
13.270508
 20
51.435000
 30
0.0
 10
12.813293
 20
51.336036
 30
0.0
 10
12.263989
 20
51.349554
 30
0.0
 10
11.661740
 20
51.371624
 30
0.0
 10
11.193934
 20
51.263971
 30
0.0
 10
10.742049
 20
50.975460
 30
0.0
 10
10.187561
 20
50.454944
 30
0.0
 10
9.374938
 20
49.482558
 30
0.0
 10
8.807318
 20
48.187796
 30
0.0
 10
8.450089
 20
47.345318
 30
0.0
 10
8.018216
 20
46.810594
 30
0.0
 10
7.325362
 20
46.432411
 30
0.0
 10
6.185187
 20
46.059553
 30
0.0
 10
5.283844
 20
45.696274
 30
0.0
 10
5.021143
 20
45.479140
 30
0.0
 10
4.836363
 20
45.208478
 30
0.0
 10
4.750709
 20
44.955293
 30
0.0
 10
4.757406
 20
44.690451
 30
0.0
 10
5.060707
 20
44.059746
 30
0.0
 10
5.272614
 20
43.651514
 30
0.0
 10
5.370490
 20
43.172840
 30
0.0
 10
5.467553
 20
42.443809
 30
0.0
 10
5.641250
 20
41.963518
 30
0.0
 10
5.980806
 20
41.582010
 30
0.0
 10
6.575446
 20
41.149329
 30
0.0
 10
7.736306
 20
40.119108
 30
0.0
 10
8.222335
 20
39.636288
 30
0.0
 10
8.701681
 20
39.353981
 30
0.0
 10
9.301093
 20
39.223693
 30
0.0
 10
10.147321
 20
39.196910
 30
0.0
 10
11.103129
 20
39.254100
 30
0.0
 10
12.058936
 20
39.439997
 30
0.0
 10
13.342588
 20
39.667197
 30
0.0
 10
13.762282
 20
39.649586
 30
0.0
 10
14.080794
 20
39.546917
 30
0.0
 10
14.344774
 20
39.316922
 30
0.0
 10
14.573810
 20
38.951459
 30
0.0
 10
14.735207
 20
38.517582
 30
0.0
 10
14.796271
 20
38.082339
 30
0.0
 10
14.926439
 20
37.380782
 30
0.0
 10
15.358511
 20
36.798558
 30
0.0
 10
15.699900
 20
36.423072
 30
0.0
 10
15.910812
 20
36.000941
 30
0.0
 10
16.036293
 20
35.394293
 30
0.0
 10
16.121393
 20
34.465263
 30
0.0
 10
16.201319
 20
31.865734
 30
0.0
 10
16.217013
 20
30.838033
 30
0.0
 10
16.309908
 20
30.328393
 30
0.0
 10
16.495149
 20
29.565030
 30
0.0
 10
16.699066
 20
28.021557
 30
0.0
 10
16.929969
 20
26.874507
 30
0.0
 10
17.420607
 20
25.865204
 30
0.0
 10
17.897408
 20
24.940263
 30
0.0
 10
18.410038
 20
21.895350
 30
0.0
 10
18.931064
 20
18.135371
 30
0.0
 10
19.193394
 20
15.766711
 30
0.0
 10
19.235887
 20
14.300781
 30
0.0
 10
19.097404
 20
13.248987
 30
0.0
 10
18.970611
 20
12.495886
 30
0.0
 10
18.939127
 20
11.829488
 30
0.0
 10
19.004143
 20
11.203666
 30
0.0
 10
19.166857
 20
10.572287
 30
0.0
 10
19.393574
 20
9.410141
 30
0.0
 10
19.277100
 20
8.195999
 30
0.0
 10
19.059523
 20
7.449416
 30
0.0
 10
18.758093
 20
6.884041
 30
0.0
 10
18.365180
 20
6.489302
 30
0.0
 10
17.873154
 20
6.254617
 30
0.0
 10
17.443422
 20
6.090974
 30
0.0
 10
17.130059
 20
5.867837
 30
0.0
 10
16.898993
 20
5.551458
 30
0.0
 10
16.716154
 20
5.108090
 30
0.0
 10
16.597911
 20
4.718383
 30
0.0
 10
16.610834
 20
4.486842
 30
0.0
 10
16.809810
 20
4.307129
 30
0.0
 10
17.249732
 20
4.072907
 30
0.0
 10
18.118612
 20
3.732025
 30
0.0
 10
18.932348
 20
3.616288
 30
0.0
 10
19.652638
 20
3.725827
 30
0.0
 10
20.241177
 20
4.060771
 30
0.0
 10
20.676117
 20
4.644492
 30
0.0
 10
21.045951
 20
5.724339
 30
0.0
 10
21.500153
 20
6.915517
 30
0.0
 10
21.660788
 20
7.245601
 30
0.0
 10
21.725592
 20
7.523968
 30
0.0
 10
21.609293
 20
8.542703
 30
0.0
 10
21.598162
 20
8.893020
 30
0.0
 10
21.801116
 20
9.122032
 30
0.0
 10
22.052470
 20
9.323225
 30
0.0
 10
22.017193
 20
10.221155
 30
0.0
 10
22.030497
 20
13.868279
 30
0.0
 10
22.360599
 20
17.882495
 30
0.0
 10
22.443281
 20
19.910967
 30
0.0
 10
22.500376
 20
21.328561
 30
0.0
 10
22.537983
 20
21.386583
 30
0.0
 10
22.587743
 20
21.336020
 30
0.0
 10
22.729362
 20
20.929061
 30
0.0
 10
22.870111
 20
19.970459
 30
0.0
 10
22.871579
 20
17.376479
 30
0.0
 10
22.882602
 20
9.294560
 30
0.0
 10
22.887753
 20
7.723790
 30
0.0
 10
22.712827
 20
7.035128
 30
0.0
 10
22.251771
 20
6.124075
 30
0.0
 10
21.432905
 20
5.057369
 30
0.0
 10
20.697748
 20
4.080019
 30
0.0
 10
20.552093
 20
3.753558
 30
0.0
 10
20.505761
 20
3.451129
 30
0.0
 10
20.554288
 20
3.149998
 30
0.0
 10
20.745369
 20
2.956453
 30
0.0
 10
21.116507
 20
2.850532
 30
0.0
 10
21.705205
 20
2.812268
 30
0.0
 10
22.748105
 20
2.728485
 30
0.0
 10
23.554874
 20
2.693980
 30
0.0
 10
24.453565
 20
2.818884
 30
0.0
 10
24.989468
 20
3.140433
 30
0.0
 10
25.318422
 20
3.678781
 30
0.0
 10
25.482684
 20
5.601420
 30
0.0
 10
25.639780
 20
7.426492
 30
0.0
 10
26.037758
 20
8.153544
 30
0.0
 10
26.288415
 20
8.638495
 30
0.0
 10
26.393887
 20
9.121910
 30
0.0
 10
26.365253
 20
9.764962
 30
0.0
 10
26.213595
 20
10.728822
 30
0.0
 10
26.013430
 20
12.175405
 30
0.0
 10
25.974368
 20
14.030602
 30
0.0
 10
26.095680
 20
17.114873
 30
0.0
 10
26.409277
 20
19.716389
 30
0.0
 10
26.858872
 20
21.389554
 30
0.0
 10
27.119115
 20
22.070407
 30
0.0
 10
27.332562
 20
22.439943
 30
0.0
 10
27.965774
 20
22.796415
 30
0.0
 10
29.384737
 20
23.199516
 30
0.0
 10
31.321287
 20
23.815974
 30
0.0
 10
33.242142
 20
24.643151
 30
0.0
 10
34.508366
 20
25.401970
 30
0.0
 10
35.783245
 20
26.447829
 30
0.0
 10
36.651959
 20
27.243783
 30
0.0
 10
36.707633
 20
26.071901
 30
0.0
 10
36.833366
 20
24.774587
 30
0.0
 10
37.130275
 20
23.793001
 30
0.0
 10
37.695561
 20
22.918025
 30
0.0
 10
38.626411
 20
21.940543
 30
0.0
 10
39.969174
 20
20.509588
 30
0.0
 10
40.726297
 20
19.212837
 30
0.0
 10
41.270041
 20
17.810838
 30
0.0
 10
41.390383
 20
17.050710
 30
0.0
 10
41.429818
 20
16.124781
 30
0.0
 10
41.388537
 20
15.205549
 30
0.0
 10
41.266739
 20
14.465512
 30
0.0
 10
40.912434
 20
13.543853
 30
0.0
 10
40.381323
 20
12.578320
 30
0.0
 10
39.780150
 20
11.739064
 30
0.0
 10
39.215666
 20
11.196255
 30
0.0
 10
38.806077
 20
11.003551
 30
0.0
 10
38.163948
 20
10.976316
 30
0.0
 10
37.529614
 20
10.951509
 30
0.0
 10
37.214756
 20
10.739842
 30
0.0
 10
36.957761
 20
10.380624
 30
0.0
 10
36.876859
 20
10.017450
 30
0.0
 10
36.971381
 20
9.686256
 30
0.0
 10
37.240664
 20
9.422988
 30
0.0
 10
37.759907
 20
9.251561
 30
0.0
 10
38.172767
 20
9.077376
 30
0.0
 10
38.386858
 20
8.953221
 30
0.0
 10
38.711837
 20
8.906789
 30
0.0
 10
39.748140
 20
9.045956
 30
0.0
 10
40.369004
 20
9.203806
 30
0.0
 10
40.763940
 20
9.447220
 30
0.0
 10
41.113997
 20
9.960051
 30
0.0
 10
41.600224
 20
10.926151
 30
0.0
 10
42.684406
 20
12.920427
 30
0.0
 10
43.936276
 20
14.711347
 30
0.0
 10
44.703844
 20
15.864583
 30
0.0
 10
44.905791
 20
16.357687
 30
0.0
 10
44.988056
 20
16.826634
 30
0.0
 10
44.951802
 20
17.295063
 30
0.0
 10
44.798188
 20
17.786618
 30
0.0
 10
44.143531
 20
18.933657
 30
0.0
 10
43.301561
 20
20.494447
 30
0.0
 10
42.560442
 20
22.237090
 30
0.0
 10
42.397168
 20
22.869119
 30
0.0
 10
42.346018
 20
23.474567
 30
0.0
 10
42.361456
 20
23.869520
 30
0.0
 10
42.462909
 20
24.248028
 30
0.0
 10
43.272619
 20
25.849755
 30
0.0
 10
43.711387
 20
26.676025
 30
0.0
 10
43.899353
 20
26.349706
 30
0.0
 10
44.806102
 20
25.132623
 30
0.0
 10
45.794430
 20
23.850498
 30
0.0
 10
47.650371
 20
21.634611
 30
0.0
 10
49.096523
 20
19.942948
 30
0.0
 10
49.960117
 20
18.776422
 30
0.0
 10
50.542240
 20
17.659435
 30
0.0
 10
51.143974
 20
16.116396
 30
0.0
 10
51.704874
 20
14.472347
 30
0.0
 10
52.070552
 20
13.097947
 30
0.0
 10
52.228704
 20
12.049862
 30
0.0
 10
52.167030
 20
11.384763
 30
0.0
 10
51.581089
 20
10.360053
 30
0.0
 10
51.188481
 20
9.667463
 30
0.0
 10
51.085546
 20
9.206360
 30
0.0
 10
51.176890
 20
8.743682
 30
0.0
 10
51.502041
 20
8.438097
 30
0.0
 10
52.102497
 20
8.268180
 30
0.0
 10
53.019759
 20
8.212520
 30
0.0
 10
53.765483
 20
8.262547
 30
0.0
 10
54.227128
 20
8.484083
 30
0.0
 10
54.501256
 20
8.969877
 30
0.0
 10
54.684430
 20
9.812697
 30
0.0
 10
54.719501
 20
10.810342
 30
0.0
 10
54.377403
 20
12.683978
 30
0.0
 10
53.996725
 20
14.927165
 30
0.0
 10
53.736341
 20
17.444824
 30
0.0
 10
53.646549
 20
18.220018
 30
0.0
 10
53.478613
 20
18.817107
 30
0.0
 10
53.176612
 20
19.373525
 30
0.0
 10
52.684620
 20
20.026717
 30
0.0
 10
52.005438
 20
21.034144
 30
0.0
 10
51.400390
 20
22.276427
 30
0.0
 10
50.885143
 20
23.715946
 30
0.0
 10
50.475350
 20
25.315077
 30
0.0
 10
49.987131
 20
28.091491
 30
0.0
 10
49.811688
 20
31.193788
 30
0.0
 10
49.644104
 20
34.637385
 30
0.0
 10
49.464964
 20
35.368032
 30
0.0
 10
49.135898
 20
36.059914
 30
0.0
 10
48.408459
 20
37.067431
 30
0.0
 10
47.294935
 20
38.162755
 30
0.0
 10
46.007728
 20
39.160676
 30
0.0
 10
44.759247
 20
39.875979
 30
0.0
 10
43.903278
 20
40.184434
 30
0.0
 10
43.007169
 20
40.367958
 30
0.0
 10
42.058852
 20
40.428136
 30
0.0
 10
41.046261
 20
40.366561
 30
0.0
 10
38.789141
 20
39.922930
 30
0.0
 10
36.516374
 20
39.322008
 30
0.0
 10
34.031201
 20
38.775490
 30
0.0
 10
31.390623
 20
38.389351
 30
0.0
 10
30.049020
 20
38.422007
 30
0.0
 10
28.830780
 20
38.682597
 30
0.0
 10
26.866555
 20
39.537934
 30
0.0
 10
25.077555
 20
40.468536
 30
0.0
 10
23.991109
 20
41.534585
 30
0.0
 10
23.563947
 20
42.038541
 30
0.0
 10
23.210376
 20
42.577631
 30
0.0
 10
21.938384
 20
45.141188
 30
0.0
 10
21.431954
 20
46.089751
 30
0.0
 10
20.968245
 20
46.673567
 30
0.0
 10
20.520658
 20
47.120051
 30
0.0
 10
20.613262
 20
47.630475
 30
0.0
 10
20.633523
 20
48.360957
 30
0.0
 10
20.348129
 20
48.985915
 30
0.0
 10
19.536354
 20
49.962325
 30
0.0
 10
18.734170
 20
50.713973
 30
0.0
 10
17.994308
 20
51.088231
 30
0.0
 10
17.043293
 20
51.375587
 30
0.0
 10
15.982048
 20
51.562683
 30
0.0
 10
14.911493
 20
51.636157
 30
0.0
 10
14.911488
 20
51.636165
 30
0.0
  0
ENDSEC
  0
SECTION
  2
OBJECTS
  0
DICTIONARY
  5
C
330
0
100
AcDbDictionary
  3
ACAD_GROUP
350
D
  3
ACAD_MLINESTYLE
350
17
  0
DICTIONARY
  5
D
330
C
100
AcDbDictionary
  0
DICTIONARY
  5
1A
330
C
100
AcDbDictionary
  0
DICTIONARY
  5
17
330
C
100
AcDbDictionary
  3
STANDARD
350
18
  0
DICTIONARY
  5
19
330
C
100
AcDbDictionary
  0
ENDSEC
  0
EOF
