<?xml version="1.0" encoding="UTF-8" standalone="no"?>
<!-- Created with Inkscape (http://www.inkscape.org/) -->

<svg
   xmlns:dc="http://purl.org/dc/elements/1.1/"
   xmlns:cc="http://creativecommons.org/ns#"
   xmlns:rdf="http://www.w3.org/1999/02/22-rdf-syntax-ns#"
   xmlns:svg="http://www.w3.org/2000/svg"
   xmlns="http://www.w3.org/2000/svg"
   xmlns:sodipodi="http://sodipodi.sourceforge.net/DTD/sodipodi-0.dtd"
   xmlns:inkscape="http://www.inkscape.org/namespaces/inkscape"
   id="svg9309"
   version="1.1"
   inkscape:version="0.91 r13725"
   width="720"
   height="705"
   viewBox="0 0 720 705"
   sodipodi:docname="dog-silhouette.svg">
  <metadata
     id="metadata9315">
    <rdf:RDF>
      <cc:Work
         rdf:about="">
        <dc:format>image/svg+xml</dc:format>
        <dc:type
           rdf:resource="http://purl.org/dc/dcmitype/StillImage" />
        <dc:title></dc:title>
      </cc:Work>
    </rdf:RDF>
  </metadata>
  <defs
     id="defs9313" />
  <sodipodi:namedview
     pagecolor="#ffffff"
     bordercolor="#666666"
     borderopacity="1"
     objecttolerance="10"
     gridtolerance="10"
     guidetolerance="10"
     inkscape:pageopacity="0"
     inkscape:pageshadow="2"
     inkscape:window-width="1360"
     inkscape:window-height="746"
     id="namedview9311"
     showgrid="false"
     inkscape:zoom="1.3390071"
     inkscape:cx="133.74276"
     inkscape:cy="125.51144"
     inkscape:window-x="1432"
     inkscape:window-y="-8"
     inkscape:window-maximized="1"
     inkscape:current-layer="svg9309" />
  <path
     id="path9861"
     style="fill:none;stroke:#ff0000;stroke-width:0.7116707;stroke-linejoin:round;stroke-miterlimit:4;stroke-dasharray:none"
     d="m 108.57292,574.45245 a 3.1874716,3.1874716 0 0 1 -3.18747,3.18748 3.1874716,3.1874716 0 0 1 -3.18747,-3.18748 3.1874716,3.1874716 0 0 1 3.18747,-3.18747 3.1874716,3.1874716 0 0 1 3.18747,3.18747 z M 52.835938,522.03711 c -2.236729,-0.0262 -4.293229,0.19642 -5.814454,0.71289 -1.115365,0.37869 -2.015975,0.4555 -3.566406,0.30273 -3.349505,-0.33005 -4.30877,0.0822 -7.357422,3.16993 -2.717987,2.75281 -3.330131,3.75735 -4.890625,8.0332 -1.804821,4.94533 -2.554248,5.55394 -9.291015,7.54102 -2.88911,0.85217 -4.034413,1.57518 -4.779297,3.01562 -0.617761,1.19462 -0.393258,2.34335 0.794922,4.07031 0.666174,0.96825 0.970216,1.84153 1.097656,3.14258 0.418059,4.26797 0.717128,4.76872 4.269531,7.16992 1.203025,0.81316 3.053814,2.45616 4.113281,3.65039 2.5116,2.83107 3.762399,3.30928 8.542969,3.26758 2.564399,-0.0224 4.20904,-0.23086 6.773438,-0.86133 3.898085,-0.95837 5.842892,-1.0621 7.164062,-0.3789 1.278215,0.66099 2.535156,3.23556 2.535156,5.18945 0,1.91049 0.565871,3.20212 1.992188,4.54883 1.992023,1.88086 2.325528,2.89982 2.703125,8.26758 0.186391,2.64977 0.313933,6.79534 0.283203,9.21093 -0.04101,3.2223 0.06105,4.67251 0.384766,5.44727 0.446804,1.06935 0.843864,3.41891 1.378906,8.17383 0.366128,3.25378 0.963419,5.0376 2.55664,7.64062 0.684826,1.11887 1.444753,2.59362 1.689454,3.27735 0.244703,0.68373 1.062385,5.53912 1.816406,10.78906 3.133834,21.8197 3.456104,25.87646 2.435547,30.63672 -0.822272,3.83541 -0.755291,6.41571 0.246093,9.48437 0.951373,2.91541 1.060631,5.25885 0.390626,8.41992 -0.84186,3.97187 -2.403943,6.1316 -4.97461,6.87891 -2.358779,0.68572 -3.296063,1.61473 -4.099609,4.0625 -0.782022,2.3822 -0.843346,2.26519 1.890625,3.66797 4.174883,2.14211 8.190655,2.15806 10.599609,0.043 1.252286,-1.09953 1.906867,-2.45108 2.851563,-5.89453 0.35947,-1.31028 1.083088,-3.20948 1.609375,-4.22071 1.001649,-1.9246 0.999579,-1.90266 0.386718,-5.76562 -0.194605,-1.22665 -0.137133,-1.39918 0.679688,-2.05274 l 0.890625,-0.71289 -0.125,-3.18164 c -0.333311,-8.38256 0.05343,-17.02963 1.216797,-27.14648 0.159214,-1.38454 0.291769,-4.61872 0.292969,-7.1875 0.0029,-5.74585 0.19869,-6.44625 1.013671,-3.60742 0.562491,1.95935 0.599457,2.90234 0.503907,12.58789 -0.138359,14.02549 -0.127449,21.26371 0.03906,28.63672 0.134452,5.95348 0.114745,6.21982 -0.601562,8.00586 -0.990419,2.46951 -1.854295,3.80292 -4.535157,7.00781 -2.607871,3.11763 -3.243446,4.22003 -3.285156,5.6914 -0.04842,1.70826 0.895766,2.21128 4.25,2.26368 1.524178,0.0238 3.187254,0.15704 3.695313,0.29687 1.11223,0.30612 4.496461,0.12668 6.042968,-0.32031 1.415771,-0.40921 2.626397,-1.61344 3.064454,-3.04688 0.187684,-0.61417 0.449699,-3.67947 0.582031,-6.8125 0.132329,-3.13303 0.38344,-6.04341 0.55664,-6.46679 0.173204,-0.42339 0.80775,-1.58224 1.410157,-2.57617 1.544618,-2.54855 1.612699,-3.55971 0.623046,-9.125 -0.760132,-4.27458 -0.848641,-5.49419 -0.847656,-11.69922 0.0011,-7.09227 0.631486,-15.33495 1.541016,-20.14649 0.700853,-3.70762 2.456794,-8.88503 3.271484,-9.65039 1.012765,-0.95145 2.54651,-1.51967 7.271484,-2.6914 4.05404,-1.00535 9.68808,-3.11438 13.66797,-5.11524 3.19539,-1.60646 5.76762,-3.43197 9.00391,-6.39453 l 3.07812,-2.82031 0.19727,4.15234 c 0.34271,7.20416 1.38449,9.44918 6.79882,14.63867 1.85921,1.782 4.00034,4.06321 4.75782,5.07031 1.73643,2.30865 3.88103,6.75662 4.60937,9.5625 0.75997,2.92787 0.75363,9.05221 -0.0117,11.85352 -1.08811,3.98267 -4.85549,9.98775 -7.26758,11.58398 -1.11761,0.73965 -1.51033,0.8214 -3.72656,0.7793 -2.34751,-0.0446 -2.52509,-3.1e-4 -3.36328,0.83789 -1.63117,1.63116 -1.59216,3.63927 0.0918,4.66602 0.54585,0.33282 1.37412,0.60693 1.83984,0.60742 0.46572,6.3e-4 1.12418,0.27848 1.46289,0.61719 0.77063,0.77063 2.46228,0.80409 5.58203,0.11133 3.75203,-0.83316 3.65858,-0.73761 6.5625,-6.66211 2.67008,-5.44744 4.81504,-8.9254 8.27735,-13.41211 4.78273,-6.19781 4.91055,-8.80217 0.73437,-14.96094 -1.51474,-2.23385 -4.57109,-8.61209 -5.60937,-11.70508 -0.52471,-1.56308 -0.76477,-2.94726 -0.75977,-4.38476 0.007,-2.25675 0.003,-2.24621 3.2832,-8.41602 l 1.55469,-2.92773 0.66602,1.15625 c 0.36593,0.63582 1.81104,2.57641 3.21289,4.3125 1.40184,1.7361 2.97817,3.78087 3.50195,4.54296 0.52379,0.76209 3.48262,4.29515 6.57617,7.85157 8.68249,9.98156 9.01559,10.50738 12.37891,19.55273 3.09171,8.31488 4.45503,14.61736 3.625,16.76563 -0.19303,0.49959 -1.12715,2.13385 -2.07617,3.63086 -1.39212,2.19598 -1.73226,2.98556 -1.75586,4.08789 -0.0554,2.59068 1.70629,3.49468 6.85351,3.52148 4.34622,0.0227 5.09585,-0.69866 5.89844,-5.66992 0.40271,-2.49443 0.29131,-3.54086 -1.08789,-10.17383 -1.05322,-5.06521 -1.78659,-10.5072 -2.27148,-16.86914 -0.3277,-4.29949 -0.86533,-5.61747 -3.72657,-9.14844 -3.35919,-4.14546 -6.16588,-10.86554 -7.82812,-18.73828 -1.77433,-8.40369 -2.05492,-10.88679 -2.35156,-20.83008 -0.40156,-13.46014 -0.38374,-13.33038 -2.39453,-17.24218 -2.1902,-4.26084 -10.03546,-11.10136 -15.50782,-13.52149 -3.96813,-1.75489 -8.20153,-2.31429 -13.15625,-1.73828 -3.17566,0.36919 -12.80121,2.58888 -16.05078,3.70117 -2.7798,0.9515 -14.64812,3.11089 -18.16211,3.30469 -3.37091,0.1859 -6.28222,-0.1481 -9.07031,-1.03906 -2.39785,-0.76625 -11.728806,-5.20629 -13.298828,-6.32813 -0.775492,-0.55411 -2.507812,-2.25316 -3.84961,-3.77734 -2.501221,-2.84119 -2.451307,-2.7546 -7.273437,-12.7793 -1.407206,-2.92544 -2.23212,-4.22746 -3.4375,-5.42969 l -1.585937,-1.58203 0.328124,-1.80859 c 0.370776,-2.04469 0.133802,-3.25658 -0.939453,-4.80274 -1.369451,-1.97289 -4.394617,-5.21201 -5.71875,-6.12304 -2.837698,-1.95239 -8.624119,-3.20989 -13.544921,-3.26758 z" />
</svg>
