  0
SECTION
  2
HEADER
  9
$ACADVER
  1
AC1014
  9
$HANDSEED
  5
FFFF
  9
$MEASUREMENT
 70
     1
  0
ENDSEC
  0
SECTION
  2
TABLES
  0
TABLE
  2
VPORT
  5
8
330
0
100
AcDbSymbolTable
 70
     4
  0
VPORT
  5
2E
330
8
100
AcDbSymbolTableRecord
100
AcDbViewportTableRecord
  2
*ACTIVE
 70
     0
 10
0.0
 20
0.0
 11
1.0
 21
1.0
 12
210.0
 22
148.5
 13
0.0
 23
0.0
 14
10.0
 24
10.0
 15
10.0
 25
10.0
 16
0.0
 26
0.0
 36
1.0
 17
0.0
 27
0.0
 37
0.0
 40
341.0
 41
1.24
 42
50.0
 43
0.0
 44
0.0
 50
0.0
 51
0.0
 71
     0
 72
   100
 73
     1
 74
     3
 75
     0
 76
     0
 77
     0
 78
     0
  0
ENDTAB
  0
TABLE
  2
LTYPE
  5
5
330
0
100
AcDbSymbolTable
 70
     1
  0
LTYPE
  5
14
330
5
100
AcDbSymbolTableRecord
100
AcDbLinetypeTableRecord
  2
BYBLOCK
 70
     0
  3

 72
    65
 73
     0
 40
0.0
  0
LTYPE
  5
15
330
5
100
AcDbSymbolTableRecord
100
AcDbLinetypeTableRecord
  2
BYLAYER
 70
     0
  3

 72
    65
 73
     0
 40
0.0
  0
LTYPE
  5
16
330
5
100
AcDbSymbolTableRecord
100
AcDbLinetypeTableRecord
  2
CONTINUOUS
 70
     0
  3
Solid line
 72
    65
 73
     0
 40
0.0
  0
ENDTAB
  0
TABLE
  2
LAYER
  5
2
100
AcDbSymbolTable
 70
2
  0
LAYER
  5
50
100
AcDbSymbolTableRecord
100
AcDbLayerTableRecord
  2
0
 70
0
  6
CONTINUOUS
  0
LAYER
  5
51
100
AcDbSymbolTableRecord
100
AcDbLayerTableRecord
  2
Layer_1
 70
0
  6
CONTINUOUS
  0
ENDTAB
  0
TABLE
  2
STYLE
  5
3
330
0
100
AcDbSymbolTable
 70
     1
  0
STYLE
  5
11
330
3
100
AcDbSymbolTableRecord
100
AcDbTextStyleTableRecord
  2
STANDARD
 70
     0
 40
0.0
 41
1.0
 50
0.0
 71
     0
 42
2.5
  3
txt
  4

  0
ENDTAB
  0
TABLE
  2
VIEW
  5
6
330
0
100
AcDbSymbolTable
 70
     0
  0
ENDTAB
  0
TABLE
  2
UCS
  5
7
330
0
100
AcDbSymbolTable
 70
     0
  0
ENDTAB
  0
TABLE
  2
APPID
  5
9
330
0
100
AcDbSymbolTable
 70
     2
  0
APPID
  5
12
330
9
100
AcDbSymbolTableRecord
100
AcDbRegAppTableRecord
  2
ACAD
 70
     0
  0
ENDTAB
  0
TABLE
  2
DIMSTYLE
  5
A
330
0
100
AcDbSymbolTable
 70
     1
  0
DIMSTYLE
105
27
330
A
100
AcDbSymbolTableRecord
100
AcDbDimStyleTableRecord
  2
ISO-25
 70
     0
  3

  4

  5

  6

  7

 40
1.0
 41
2.5
 42
0.625
 43
3.75
 44
1.25
 45
0.0
 46
0.0
 47
0.0
 48
0.0
140
2.5
141
2.5
142
0.0
143
0.03937007874016
144
1.0
145
0.0
146
1.0
147
0.625
 71
     0
 72
     0
 73
     0
 74
     0
 75
     0
 76
     0
 77
     1
 78
     8
170
     0
171
     3
172
     1
173
     0
174
     0
175
     0
176
     0
177
     0
178
     0
270
     2
271
     2
272
     2
273
     2
274
     3
340
11
275
     0
280
     0
281
     0
282
     0
283
     0
284
     8
285
     0
286
     0
287
     3
288
     0
  0
ENDTAB
  0
TABLE
  2
BLOCK_RECORD
  5
1
330
0
100
AcDbSymbolTable
 70
     1
  0
BLOCK_RECORD
  5
1F
330
1
100
AcDbSymbolTableRecord
100
AcDbBlockTableRecord
  2
*MODEL_SPACE
  0
BLOCK_RECORD
  5
1B
330
1
100
AcDbSymbolTableRecord
100
AcDbBlockTableRecord
  2
*PAPER_SPACE
  0
ENDTAB
  0
ENDSEC
  0
SECTION
  2
BLOCKS
  0
BLOCK
  5
20
330
1F
100
AcDbEntity
  8
0
100
AcDbBlockBegin
  2
*MODEL_SPACE
 70
     0
 10
0.0
 20
0.0
 30
0.0
  3
*MODEL_SPACE
  1

  0
ENDBLK
  5
21
330
1F
100
AcDbEntity
  8
0
100
AcDbBlockEnd
  0
BLOCK
  5
1C
330
1B
100
AcDbEntity
 67
     1
  8
0
100
AcDbBlockBegin
  2
*PAPER_SPACE
  1

  0
ENDBLK
  5
1D
330
1B
100
AcDbEntity
 67
     1
  8
0
100
AcDbBlockEnd
  0
ENDSEC
  0
SECTION
  2
ENTITIES
  0
SPLINE
  5
100
100
AcDbEntity
  8
Layer_1
 62
1
100
AcDbSpline
 70
0
 71
3
 72
34
 73
30
 74
28
 40
0.000000
 40
0.000000
 40
0.000000
 40
0.000000
 40
3.541078
 40
6.520711
 40
9.999728
 40
14.300069
 40
18.771824
 40
23.223570
 40
29.110505
 40
34.864869
 40
40.877328
 40
44.926002
 40
48.504261
 40
52.661523
 40
56.679272
 40
60.998513
 40
64.957629
 40
68.974984
 40
72.126040
 40
76.288538
 40
80.293779
 40
84.616752
 40
88.601397
 40
92.866264
 40
96.708086
 40
100.683196
 40
103.162899
 40
106.273911
 40
108.744272
 40
108.744272
 40
108.744272
 40
108.744272
 10
55.546423
 20
112.823235
 30
0.0
 10
55.576562
 20
114.003033
 30
0.0
 10
55.632062
 20
116.175569
 30
0.0
 10
56.078032
 20
119.497227
 30
0.0
 10
57.467624
 20
122.854808
 30
0.0
 10
60.154188
 20
126.048576
 30
0.0
 10
64.024539
 20
128.269257
 30
0.0
 10
68.656805
 20
130.005110
 30
0.0
 10
74.096020
 20
130.642947
 30
0.0
 10
79.898855
 20
129.169505
 30
0.0
 10
84.568211
 20
126.698965
 30
0.0
 10
88.184196
 20
123.781237
 30
0.0
 10
89.858022
 20
120.112227
 30
0.0
 10
90.429201
 20
116.215380
 30
0.0
 10
90.442652
 20
112.040438
 30
0.0
 10
89.750524
 20
107.961620
 30
0.0
 10
88.118934
 20
104.178976
 30
0.0
 10
85.771059
 20
101.161419
 30
0.0
 10
82.327841
 20
99.468256
 30
0.0
 10
78.754549
 20
98.284155
 30
0.0
 10
74.693136
 20
97.291208
 30
0.0
 10
70.547170
 20
97.202656
 30
0.0
 10
66.418480
 20
98.081186
 30
0.0
 10
62.666508
 20
99.531952
 30
0.0
 10
59.020669
 20
101.408106
 30
0.0
 10
57.015186
 20
104.402278
 30
0.0
 10
56.281405
 20
107.509029
 30
0.0
 10
55.708140
 20
110.140551
 30
0.0
 10
55.596039
 20
112.000158
 30
0.0
 10
55.546423
 20
112.823235
 30
0.0
 11
55.546423
 21
112.823235
 31
0.0
 11
55.706235
 21
116.360706
 31
0.0
 11
56.171996
 21
119.303711
 31
0.0
 11
57.501782
 21
122.518556
 31
0.0
 11
60.271312
 21
125.808333
 31
0.0
 11
64.075416
 21
128.158947
 31
0.0
 11
68.256255
 21
129.688206
 31
0.0
 11
74.113192
 21
130.281741
 31
0.0
 11
79.719851
 21
128.986332
 31
0.0
 11
85.039755
 21
126.184853
 31
0.0
 11
88.044400
 21
123.471209
 31
0.0
 11
89.621113
 21
120.259057
 31
0.0
 11
90.335517
 21
116.163639
 31
0.0
 11
90.331256
 21
112.145892
 31
0.0
 11
89.558064
 21
107.896419
 31
0.0
 11
87.972792
 21
104.268540
 31
0.0
 11
85.379157
 21
101.200609
 31
0.0
 11
82.619153
 21
99.680237
 31
0.0
 11
78.684838
 21
98.320989
 31
0.0
 11
74.774173
 21
97.455738
 31
0.0
 11
70.451981
 21
97.373591
 31
0.0
 11
66.545316
 21
98.158043
 31
0.0
 11
62.554396
 21
99.661922
 31
0.0
 11
59.262909
 21
101.643260
 31
0.0
 11
57.012943
 21
104.920325
 31
0.0
 11
56.335984
 21
107.305834
 31
0.0
 11
55.751069
 21
110.361365
 31
0.0
 11
55.546423
 21
112.823235
 31
0.0
  0
SPLINE
  5
101
100
AcDbEntity
  8
Layer_1
 62
1
100
AcDbSpline
 70
0
 71
3
 72
10
 73
6
 74
4
 40
0.000000
 40
0.000000
 40
0.000000
 40
0.000000
 40
1.085172
 40
2.155441
 40
3.240622
 40
3.240622
 40
3.240622
 40
3.240622
 10
72.705735
 20
113.496103
 30
0.0
 10
73.050195
 20
113.614343
 30
0.0
 10
73.734384
 20
113.849200
 30
0.0
 10
74.561606
 20
114.606096
 30
0.0
 10
74.856195
 20
115.266771
 30
0.0
 10
75.004508
 20
115.599393
 30
0.0
 11
72.705735
 21
113.496103
 31
0.0
 11
73.705155
 21
113.918900
 31
0.0
 11
74.494774
 21
114.641380
 31
0.0
 11
75.004508
 21
115.599393
 31
0.0
  0
SPLINE
  5
102
100
AcDbEntity
  8
Layer_1
 62
1
100
AcDbSpline
 70
0
 71
3
 72
16
 73
12
 74
10
 40
0.000000
 40
0.000000
 40
0.000000
 40
0.000000
 40
0.156209
 40
0.312304
 40
0.468512
 40
1.536747
 40
2.573297
 40
3.641533
 40
4.509246
 40
5.359117
 40
6.226833
 40
6.226833
 40
6.226833
 40
6.226833
 10
75.004508
 20
115.599393
 30
0.0
 10
75.056594
 20
115.600218
 30
0.0
 10
75.160729
 20
115.601868
 30
0.0
 10
75.316171
 20
115.619458
 30
0.0
 10
75.768634
 20
115.703031
 30
0.0
 10
76.469727
 20
116.079294
 30
0.0
 10
77.053200
 20
117.014408
 30
0.0
 10
77.091022
 20
118.055567
 30
0.0
 10
76.680907
 20
118.913843
 30
0.0
 10
76.007176
 20
119.510616
 30
0.0
 10
75.436570
 20
119.622003
 30
0.0
 10
75.148302
 20
119.678276
 30
0.0
 11
75.004508
 21
115.599393
 31
0.0
 11
75.160637
 21
115.604389
 31
0.0
 11
75.315819
 21
115.621248
 31
0.0
 11
75.469371
 21
115.649930
 31
0.0
 11
76.411133
 21
116.154122
 31
0.0
 11
76.960000
 21
117.033430
 31
0.0
 11
76.999299
 21
118.100942
 31
0.0
 11
76.628576
 21
118.885475
 31
0.0
 11
75.981712
 21
119.436698
 31
0.0
 11
75.148302
 21
119.678276
 31
0.0
  0
SPLINE
  5
103
100
AcDbEntity
  8
Layer_1
 62
1
100
AcDbSpline
 70
0
 71
3
 72
13
 73
9
 74
7
 40
0.000000
 40
0.000000
 40
0.000000
 40
0.000000
 40
0.583117
 40
1.164259
 40
1.747376
 40
3.587139
 40
5.372332
 40
7.212095
 40
7.212095
 40
7.212095
 40
7.212095
 10
75.148302
 20
119.678276
 30
0.0
 10
75.191229
 20
119.868305
 30
0.0
 10
75.276938
 20
120.247720
 30
0.0
 10
75.284074
 20
120.834219
 30
0.0
 10
75.142965
 20
121.828692
 30
0.0
 10
74.450211
 20
123.120035
 30
0.0
 10
72.824012
 20
124.179116
 30
0.0
 10
71.590285
 20
124.089494
 30
0.0
 10
70.964136
 20
124.044009
 30
0.0
 11
75.148302
 21
119.678276
 31
0.0
 11
75.256776
 21
120.251214
 31
0.0
 11
75.269255
 21
120.832222
 31
0.0
 11
75.185483
 21
121.409290
 31
0.0
 11
74.317082
 21
123.031205
 31
0.0
 11
72.802657
 21
123.976420
 31
0.0
 11
70.964136
 21
124.044009
 31
0.0
  0
SPLINE
  5
104
100
AcDbEntity
  8
Layer_1
 62
1
100
AcDbSpline
 70
0
 71
3
 72
10
 73
6
 74
4
 40
0.000000
 40
0.000000
 40
0.000000
 40
0.000000
 40
1.067120
 40
2.122526
 40
3.189646
 40
3.189646
 40
3.189646
 40
3.189646
 10
70.964136
 20
124.044009
 30
0.0
 10
70.624657
 20
123.931668
 30
0.0
 10
69.949427
 20
123.708220
 30
0.0
 10
69.100521
 20
123.016210
 30
0.0
 10
68.745567
 20
122.399872
 30
0.0
 10
68.567110
 20
122.090002
 30
0.0
 11
70.964136
 21
124.044009
 31
0.0
 11
69.973589
 21
123.647070
 31
0.0
 11
69.155547
 21
122.980219
 31
0.0
 11
68.567110
 21
122.090002
 31
0.0
  0
SPLINE
  5
105
100
AcDbEntity
  8
Layer_1
 62
1
100
AcDbSpline
 70
0
 71
3
 72
10
 73
6
 74
4
 40
0.000000
 40
0.000000
 40
0.000000
 40
0.000000
 40
1.244287
 40
2.467227
 40
3.711514
 40
3.711514
 40
3.711514
 40
3.711514
 10
68.567110
 20
122.090002
 30
0.0
 10
68.279724
 20
122.394126
 30
0.0
 10
67.709883
 20
122.997156
 30
0.0
 10
66.492563
 20
123.443229
 30
0.0
 10
65.668010
 20
123.351159
 30
0.0
 10
65.252166
 20
123.304725
 30
0.0
 11
68.567110
 21
122.090002
 31
0.0
 11
67.644070
 21
122.924416
 31
0.0
 11
66.495795
 21
123.345188
 31
0.0
 11
65.252166
 21
123.304725
 31
0.0
  0
SPLINE
  5
106
100
AcDbEntity
  8
Layer_1
 62
1
100
AcDbSpline
 70
0
 71
3
 72
10
 73
6
 74
4
 40
0.000000
 40
0.000000
 40
0.000000
 40
0.000000
 40
1.128153
 40
2.240188
 40
3.368354
 40
3.368354
 40
3.368354
 40
3.368354
 10
65.252166
 20
123.304725
 30
0.0
 10
64.894177
 20
123.181102
 30
0.0
 10
64.183313
 20
122.935620
 30
0.0
 10
63.330603
 20
122.138538
 30
0.0
 10
63.037753
 20
121.445840
 30
0.0
 10
62.890273
 20
121.096997
 30
0.0
 11
65.252166
 21
123.304725
 31
0.0
 11
64.214656
 21
122.861668
 31
0.0
 11
63.402269
 21
122.102293
 31
0.0
 11
62.890273
 21
121.096997
 31
0.0
  0
SPLINE
  5
107
100
AcDbEntity
  8
Layer_1
 62
1
100
AcDbSpline
 70
0
 71
3
 72
13
 73
9
 74
7
 40
0.000000
 40
0.000000
 40
0.000000
 40
0.000000
 40
0.403756
 40
0.804129
 40
1.207886
 40
1.854229
 40
2.487450
 40
3.133800
 40
3.133800
 40
3.133800
 40
3.133800
 10
62.890273
 20
121.096997
 30
0.0
 10
62.770665
 20
121.160412
 30
0.0
 10
62.532452
 20
121.286711
 30
0.0
 10
62.127803
 20
121.349873
 30
0.0
 10
61.641636
 20
121.305917
 30
0.0
 10
61.120788
 20
121.058457
 30
0.0
 10
60.674981
 20
120.558855
 30
0.0
 10
60.588639
 20
120.134492
 30
0.0
 10
60.545025
 20
119.920134
 30
0.0
 11
62.890273
 21
121.096997
 31
0.0
 11
62.523590
 21
121.266002
 31
0.0
 11
62.128902
 21
121.333231
 31
0.0
 11
61.726945
 21
121.295151
 31
0.0
 11
61.142174
 21
121.019830
 31
0.0
 11
60.729412
 21
120.539626
 31
0.0
 11
60.545025
 21
119.920134
 31
0.0
  0
SPLINE
  5
108
100
AcDbEntity
  8
Layer_1
 62
1
100
AcDbSpline
 70
0
 71
3
 72
19
 73
15
 74
13
 40
0.000000
 40
0.000000
 40
0.000000
 40
0.000000
 40
0.373379
 40
0.743637
 40
1.117015
 40
1.858943
 40
2.578860
 40
3.320788
 40
4.062614
 40
4.782436
 40
5.524261
 40
5.569148
 40
5.614028
 40
5.658914
 40
5.658914
 40
5.658914
 40
5.658914
 10
60.545025
 20
119.920134
 30
0.0
 10
60.434376
 20
119.978677
 30
0.0
 10
60.214003
 20
120.095274
 30
0.0
 10
59.839589
 20
120.153441
 30
0.0
 10
59.342667
 20
120.108571
 30
0.0
 10
58.774420
 20
119.805290
 30
0.0
 10
58.369102
 20
119.154539
 30
0.0
 10
58.340384
 20
118.385367
 30
0.0
 10
58.704343
 20
117.706645
 30
0.0
 10
59.353419
 20
117.301425
 30
0.0
 10
59.884011
 20
117.279509
 30
0.0
 10
60.152191
 20
117.349350
 30
0.0
 10
60.195306
 20
117.361885
 30
0.0
 10
60.223680
 20
117.371389
 30
0.0
 10
60.237869
 20
117.376141
 30
0.0
 11
60.545025
 21
119.920134
 31
0.0
 11
60.205795
 21
120.076132
 31
0.0
 11
59.840762
 21
120.138111
 31
0.0
 11
59.469055
 21
120.102822
 31
0.0
 11
58.814942
 21
119.752688
 31
0.0
 11
58.433737
 21
119.141981
 31
0.0
 11
58.406493
 21
118.400554
 31
0.0
 11
58.756697
 21
117.746594
 31
0.0
 11
59.367365
 21
117.365506
 31
0.0
 11
60.108691
 21
117.338294
 31
0.0
 11
60.152141
 21
117.349555
 31
0.0
 11
60.195212
 21
117.362171
 31
0.0
 11
60.237869
 21
117.376141
 31
0.0
  0
SPLINE
  5
109
100
AcDbEntity
  8
Layer_1
 62
1
100
AcDbSpline
 70
0
 71
3
 72
13
 73
9
 74
7
 40
0.000000
 40
0.000000
 40
0.000000
 40
0.000000
 40
0.658860
 40
1.311932
 40
1.970792
 40
3.246632
 40
4.484635
 40
5.760476
 40
5.760476
 40
5.760476
 40
5.760476
 10
60.237869
 20
117.376141
 30
0.0
 10
60.130985
 20
117.182734
 30
0.0
 10
59.918157
 20
116.797619
 30
0.0
 10
59.808947
 20
116.137733
 30
0.0
 10
59.884586
 20
115.270151
 30
0.0
 10
60.406911
 20
114.297266
 30
0.0
 10
61.534666
 20
113.562632
 30
0.0
 10
62.390231
 20
113.624776
 30
0.0
 10
62.824452
 20
113.656316
 30
0.0
 11
60.237869
 21
117.376141
 31
0.0
 11
59.952560
 21
116.782259
 31
0.0
 11
59.836785
 21
116.139531
 31
0.0
 11
59.896932
 21
115.483423
 31
0.0
 11
60.499231
 21
114.358698
 31
0.0
 11
61.549474
 21
113.703227
 31
0.0
 11
62.824452
 21
113.656316
 31
0.0
  0
SPLINE
  5
10a
100
AcDbEntity
  8
Layer_1
 62
1
100
AcDbSpline
 70
0
 71
3
 72
10
 73
6
 74
4
 40
0.000000
 40
0.000000
 40
0.000000
 40
0.000000
 40
0.521601
 40
1.040283
 40
1.561874
 40
1.561874
 40
1.561874
 40
1.561874
 10
62.824452
 20
113.656316
 30
0.0
 10
62.991322
 20
113.706683
 30
0.0
 10
63.324130
 20
113.807134
 30
0.0
 10
63.774768
 20
114.083203
 30
0.0
 10
64.015388
 20
114.334106
 30
0.0
 10
64.136034
 20
114.459908
 30
0.0
 11
62.824452
 21
113.656316
 31
0.0
 11
63.316852
 21
113.828389
 31
0.0
 11
63.759131
 21
114.099353
 31
0.0
 11
64.136034
 21
114.459908
 31
0.0
  0
SPLINE
  5
10b
100
AcDbEntity
  8
Layer_1
 62
1
100
AcDbSpline
 70
0
 71
3
 72
10
 73
6
 74
4
 40
0.000000
 40
0.000000
 40
0.000000
 40
0.000000
 40
1.576474
 40
3.120161
 40
4.696634
 40
4.696634
 40
4.696634
 40
4.696634
 10
64.136034
 20
114.459908
 30
0.0
 10
64.454212
 20
114.034341
 30
0.0
 10
65.083949
 20
113.192058
 30
0.0
 10
66.601023
 20
112.524076
 30
0.0
 10
67.647516
 20
112.628300
 30
0.0
 10
68.176260
 20
112.680960
 30
0.0
 11
64.136034
 21
114.459908
 31
0.0
 11
65.187092
 21
113.284941
 31
0.0
 11
66.599891
 21
112.662873
 31
0.0
 11
68.176260
 21
112.680960
 31
0.0
  0
SPLINE
  5
10c
100
AcDbEntity
  8
Layer_1
 62
1
100
AcDbSpline
 70
0
 71
3
 72
10
 73
6
 74
4
 40
0.000000
 40
0.000000
 40
0.000000
 40
0.000000
 40
0.816835
 40
1.628789
 40
2.445629
 40
2.445629
 40
2.445629
 40
2.445629
 10
68.176260
 20
112.680960
 30
0.0
 10
68.437560
 20
112.760094
 30
0.0
 10
68.958599
 20
112.917889
 30
0.0
 10
69.660472
 20
113.357920
 30
0.0
 10
70.029539
 20
113.758133
 30
0.0
 10
70.214626
 20
113.958839
 30
0.0
 11
68.176260
 21
112.680960
 31
0.0
 11
68.946682
 21
112.952381
 31
0.0
 11
69.634621
 21
113.383668
 31
0.0
 11
70.214626
 21
113.958839
 31
0.0
  0
LWPOLYLINE
  5
10d
100
AcDbEntity
  8
Layer_1
 62
1
100
AcDbPolyline
 90
2
 70
1
 10
55.546423
 20
112.823235
 30
0.0
 10
55.546423
 20
112.823235
 30
0.0
  0
SPLINE
  5
10e
100
AcDbEntity
  8
Layer_1
 62
1
100
AcDbSpline
 70
0
 71
3
 72
10
 73
6
 74
4
 40
0.000000
 40
0.000000
 40
0.000000
 40
0.000000
 40
0.868615
 40
1.729419
 40
2.598035
 40
2.598035
 40
2.598035
 40
2.598035
 10
70.214626
 20
113.958839
 30
0.0
 10
70.468112
 20
113.816402
 30
0.0
 10
70.972804
 20
113.532810
 30
0.0
 10
71.845138
 20
113.370768
 30
0.0
 10
72.418007
 20
113.454196
 30
0.0
 10
72.705735
 20
113.496099
 30
0.0
 11
70.214626
 21
113.958839
 31
0.0
 11
70.994253
 21
113.575858
 31
0.0
 11
71.840579
 21
113.418648
 31
0.0
 11
72.705735
 21
113.496099
 31
0.0
  0
SPLINE
  5
10f
100
AcDbEntity
  8
Layer_1
 62
3
100
AcDbSpline
 70
0
 71
3
 72
46
 73
42
 74
40
 40
0.000000
 40
0.000000
 40
0.000000
 40
0.000000
 40
0.139827
 40
0.442251
 40
0.737821
 40
0.982974
 40
1.232019
 40
1.480265
 40
1.700446
 40
1.921963
 40
2.142144
 40
2.387021
 40
2.633961
 40
2.880587
 40
3.035821
 40
3.191505
 40
3.346739
 40
3.593365
 40
3.840305
 40
4.085182
 40
4.305363
 40
4.526880
 40
4.747061
 40
4.995308
 40
5.244352
 40
5.489505
 40
5.734659
 40
5.983703
 40
6.231950
 40
6.452131
 40
6.673648
 40
6.893829
 40
7.142075
 40
7.391120
 40
7.636273
 40
7.878620
 40
8.126661
 40
8.375183
 40
10.912021
 40
13.451708
 40
14.607112
 40
14.607112
 40
14.607112
 40
14.607112
 10
63.225333
 20
105.965272
 30
0.0
 10
63.210080
 20
106.009343
 30
0.0
 10
63.161836
 20
106.148732
 30
0.0
 10
63.066088
 20
106.374513
 30
0.0
 10
62.922573
 20
106.622707
 30
0.0
 10
62.704894
 20
106.779257
 30
0.0
 10
62.480381
 20
106.884206
 30
0.0
 10
62.250508
 20
106.953416
 30
0.0
 10
62.022650
 20
106.989884
 30
0.0
 10
61.801132
 20
106.989311
 30
0.0
 10
61.573843
 20
106.955387
 30
0.0
 10
61.348088
 20
106.877715
 30
0.0
 10
61.130422
 20
106.761559
 30
0.0
 10
60.949584
 20
106.642418
 30
0.0
 10
60.803838
 20
106.526696
 30
0.0
 10
60.693680
 20
106.416537
 30
0.0
 10
60.577957
 20
106.270791
 30
0.0
 10
60.458816
 20
106.089954
 30
0.0
 10
60.342660
 20
105.872287
 30
0.0
 10
60.264989
 20
105.646534
 30
0.0
 10
60.231061
 20
105.419240
 30
0.0
 10
60.230502
 20
105.197741
 30
0.0
 10
60.266917
 20
104.969808
 30
0.0
 10
60.336350
 20
104.740251
 30
0.0
 10
60.440450
 20
104.514532
 30
0.0
 10
60.590124
 20
104.315179
 30
0.0
 10
60.789479
 20
104.165500
 30
0.0
 10
61.015195
 20
104.061413
 30
0.0
 10
61.244763
 20
103.991934
 30
0.0
 10
61.472658
 20
103.955675
 30
0.0
 10
61.694297
 20
103.955667
 30
0.0
 10
61.922161
 20
103.991960
 30
0.0
 10
62.151870
 20
104.061306
 30
0.0
 10
62.377048
 20
104.165896
 30
0.0
 10
62.577615
 20
104.313167
 30
0.0
 10
62.719501
 20
104.518027
 30
0.0
 10
62.809133
 20
104.747943
 30
0.0
 10
63.166929
 20
105.693220
 30
0.0
 10
63.781599
 20
107.359470
 30
0.0
 10
64.401244
 20
109.342635
 30
0.0
 10
64.756200
 20
110.522056
 30
0.0
 10
64.867190
 20
110.890844
 30
0.0
 11
63.225333
 21
105.965272
 31
0.0
 11
63.178659
 21
106.097079
 31
0.0
 11
63.059013
 21
106.374829
 31
0.0
 11
62.896961
 21
106.622015
 31
0.0
 11
62.702711
 21
106.771570
 31
0.0
 11
62.477895
 21
106.878720
 31
0.0
 11
62.240218
 21
106.950386
 31
0.0
 11
62.022605
 21
106.983917
 31
0.0
 11
61.801088
 21
106.983917
 31
0.0
 11
61.583475
 21
106.950386
 31
0.0
 11
61.351462
 21
106.872063
 31
0.0
 11
61.132311
 21
106.758256
 31
0.0
 11
60.926732
 21
106.622015
 31
0.0
 11
60.805900
 21
106.524560
 31
0.0
 11
60.695815
 21
106.414475
 31
0.0
 11
60.598361
 21
106.293643
 31
0.0
 11
60.462119
 21
106.088065
 31
0.0
 11
60.348313
 21
105.868913
 31
0.0
 11
60.269989
 21
105.636900
 31
0.0
 11
60.236458
 21
105.419287
 31
0.0
 11
60.236458
 21
105.197770
 31
0.0
 11
60.269989
 21
104.980157
 31
0.0
 11
60.341656
 21
104.742480
 31
0.0
 11
60.448805
 21
104.517665
 31
0.0
 11
60.598361
 21
104.323414
 31
0.0
 11
60.792611
 21
104.173858
 31
0.0
 11
61.017427
 21
104.066709
 31
0.0
 11
61.255104
 21
103.995043
 31
0.0
 11
61.472717
 21
103.961512
 31
0.0
 11
61.694234
 21
103.961512
 31
0.0
 11
61.911847
 21
103.995043
 31
0.0
 11
62.149524
 21
104.066709
 31
0.0
 11
62.374339
 21
104.173858
 31
0.0
 11
62.568590
 21
104.323414
 31
0.0
 11
62.709828
 21
104.520350
 31
0.0
 11
62.808659
 21
104.747851
 31
0.0
 11
62.896961
 21
104.980157
 31
0.0
 11
63.760987
 21
107.365320
 31
0.0
 11
64.533003
 21
109.784825
 31
0.0
 11
64.867190
 21
110.890844
 31
0.0
  0
SPLINE
  5
110
100
AcDbEntity
  8
Layer_1
 62
3
100
AcDbSpline
 70
0
 71
3
 72
67
 73
63
 74
61
 40
0.000000
 40
0.000000
 40
0.000000
 40
0.000000
 40
0.310913
 40
0.993778
 40
1.675161
 40
2.011052
 40
2.345975
 40
2.669788
 40
2.827007
 40
2.987039
 40
3.144257
 40
3.253381
 40
3.365402
 40
3.477300
 40
3.722177
 40
3.969117
 40
4.215743
 40
4.370490
 40
4.525912
 40
4.681304
 40
5.163114
 40
5.645973
 40
5.865821
 40
6.085310
 40
6.567865
 40
7.050003
 40
7.340138
 40
7.632368
 40
7.823282
 40
7.992602
 40
8.275312
 40
8.504208
 40
8.804960
 40
9.169050
 40
9.507711
 40
9.664930
 40
9.824962
 40
9.982180
 40
10.199043
 40
10.422550
 40
10.646538
 40
10.991899
 40
11.340890
 40
11.686251
 40
11.798245
 40
11.909998
 40
12.018429
 40
12.175648
 40
12.335680
 40
12.492899
 40
12.602022
 40
12.714043
 40
12.825941
 40
13.070818
 40
13.317758
 40
13.564384
 40
13.719131
 40
13.874553
 40
14.029945
 40
14.511755
 40
14.994614
 40
15.214462
 40
15.214462
 40
15.214462
 40
15.214462
 10
63.553704
 20
106.950386
 30
0.0
 10
63.529235
 20
106.849683
 30
0.0
 10
63.451022
 20
106.527802
 30
0.0
 10
63.327738
 20
105.982946
 30
0.0
 10
63.238827
 20
105.422900
 30
0.0
 10
63.181663
 20
104.975805
 30
0.0
 10
63.147923
 20
104.645918
 30
0.0
 10
63.190904
 20
104.369535
 30
0.0
 10
63.300117
 20
104.182708
 30
0.0
 10
63.413688
 20
104.070953
 30
0.0
 10
63.535882
 20
103.993942
 30
0.0
 10
63.660783
 20
103.965507
 30
0.0
 10
63.772470
 20
103.972102
 30
0.0
 10
63.925975
 20
104.001908
 30
0.0
 10
64.117525
 20
104.067639
 30
0.0
 10
64.334974
 20
104.184085
 30
0.0
 10
64.516299
 20
104.302260
 30
0.0
 10
64.660352
 20
104.419944
 30
0.0
 10
64.767401
 20
104.532642
 30
0.0
 10
64.938820
 20
104.733814
 30
0.0
 10
65.150441
 20
105.042282
 30
0.0
 10
65.366446
 20
105.372625
 30
0.0
 10
65.520329
 20
105.639119
 30
0.0
 10
65.703860
 20
105.886064
 30
0.0
 10
65.917036
 20
106.217931
 30
0.0
 10
66.170274
 20
106.553277
 30
0.0
 10
66.284857
 20
106.899387
 30
0.0
 10
66.276308
 20
107.151645
 30
0.0
 10
66.528068
 20
107.349098
 30
0.0
 10
66.602343
 20
107.055168
 30
0.0
 10
66.467331
 20
106.889143
 30
0.0
 10
66.467122
 20
106.555252
 30
0.0
 10
66.845519
 20
106.524269
 30
0.0
 10
67.134119
 20
106.639049
 30
0.0
 10
67.445699
 20
106.665876
 30
0.0
 10
67.634353
 20
106.545900
 30
0.0
 10
67.747373
 20
106.434261
 30
0.0
 10
67.840260
 20
106.279312
 30
0.0
 10
67.877682
 20
106.079070
 30
0.0
 10
67.858906
 20
105.857760
 30
0.0
 10
67.820987
 20
105.596071
 30
0.0
 10
67.732695
 20
105.300981
 30
0.0
 10
67.584528
 20
104.987632
 30
0.0
 10
67.504583
 20
104.728864
 30
0.0
 10
67.475910
 20
104.541455
 30
0.0
 10
67.466071
 20
104.430462
 30
0.0
 10
67.492664
 20
104.305226
 30
0.0
 10
67.570131
 20
104.183193
 30
0.0
 10
67.682200
 20
104.070823
 30
0.0
 10
67.804767
 20
103.993965
 30
0.0
 10
67.929600
 20
103.965501
 30
0.0
 10
68.041303
 20
103.972103
 30
0.0
 10
68.194803
 20
104.001907
 30
0.0
 10
68.386355
 20
104.067640
 30
0.0
 10
68.603803
 20
104.184085
 30
0.0
 10
68.785130
 20
104.302259
 30
0.0
 10
68.929179
 20
104.419945
 30
0.0
 10
69.036239
 20
104.532636
 30
0.0
 10
69.207586
 20
104.733855
 30
0.0
 10
69.420088
 20
105.041747
 30
0.0
 10
69.633005
 20
105.374112
 30
0.0
 10
69.754692
 20
105.574277
 30
0.0
 10
69.792763
 20
105.636900
 30
0.0
 11
63.553704
 21
106.950386
 31
0.0
 11
63.480792
 21
106.648143
 31
0.0
 11
63.334909
 21
105.981043
 31
0.0
 11
63.225333
 21
105.308529
 31
0.0
 11
63.183027
 21
104.975313
 31
0.0
 11
63.162292
 21
104.641032
 31
0.0
 11
63.225333
 21
104.323414
 31
0.0
 11
63.305013
 21
104.187884
 31
0.0
 11
63.418174
 21
104.074723
 31
0.0
 11
63.553704
 21
103.995043
 31
0.0
 11
63.660109
 21
103.970838
 31
0.0
 11
63.772068
 21
103.974557
 31
0.0
 11
63.882076
 21
103.995043
 31
0.0
 11
64.114089
 21
104.073366
 31
0.0
 11
64.333240
 21
104.187173
 31
0.0
 11
64.538819
 21
104.323414
 31
0.0
 11
64.657955
 21
104.422172
 31
0.0
 11
64.766346
 21
104.533561
 31
0.0
 11
64.867190
 21
104.651786
 31
0.0
 11
65.148660
 21
105.042831
 31
0.0
 11
65.409268
 21
105.449323
 31
0.0
 11
65.523933
 21
105.636900
 31
0.0
 11
65.650181
 21
105.816447
 31
0.0
 11
65.922371
 21
106.214908
 31
0.0
 11
66.180676
 21
106.622015
 31
0.0
 11
66.267474
 21
106.898862
 31
0.0
 11
66.345345
 21
107.180526
 31
0.0
 11
66.509048
 21
107.278758
 31
0.0
 11
66.569341
 21
107.120536
 31
0.0
 11
66.487596
 21
106.849903
 31
0.0
 11
66.509048
 21
106.622015
 31
0.0
 11
66.800228
 21
106.546742
 31
0.0
 11
67.155527
 21
106.626266
 31
0.0
 11
67.494162
 21
106.622015
 31
0.0
 11
67.629693
 21
106.542334
 31
0.0
 11
67.742853
 21
106.429174
 31
0.0
 11
67.822534
 21
106.293643
 31
0.0
 11
67.867560
 21
106.081507
 31
0.0
 11
67.856735
 21
105.858261
 31
0.0
 11
67.822534
 21
105.636900
 31
0.0
 11
67.725079
 21
105.305575
 31
0.0
 11
67.591617
 21
104.983111
 31
0.0
 11
67.494162
 21
104.651786
 31
0.0
 11
67.477061
 21
104.541105
 31
0.0
 11
67.471649
 21
104.429482
 31
0.0
 11
67.494162
 21
104.323414
 31
0.0
 11
67.573843
 21
104.187884
 31
0.0
 11
67.687003
 21
104.074723
 31
0.0
 11
67.822534
 21
103.995043
 31
0.0
 11
67.928939
 21
103.970838
 31
0.0
 11
68.040898
 21
103.974557
 31
0.0
 11
68.150905
 21
103.995043
 31
0.0
 11
68.382918
 21
104.073366
 31
0.0
 11
68.602070
 21
104.187173
 31
0.0
 11
68.807648
 21
104.323414
 31
0.0
 11
68.926785
 21
104.422172
 31
0.0
 11
69.035175
 21
104.533561
 31
0.0
 11
69.136020
 21
104.651786
 31
0.0
 11
69.417489
 21
105.042831
 31
0.0
 11
69.678097
 21
105.449323
 31
0.0
 11
69.792763
 21
105.636900
 31
0.0
  0
SPLINE
  5
111
100
AcDbEntity
  8
Layer_1
 62
3
100
AcDbSpline
 70
0
 71
3
 72
52
 73
48
 74
46
 40
0.000000
 40
0.000000
 40
0.000000
 40
0.000000
 40
0.136954
 40
0.436926
 40
0.735174
 40
0.890409
 40
1.046093
 40
1.201327
 40
1.447953
 40
1.694893
 40
1.939769
 40
2.163566
 40
2.387609
 40
2.605855
 40
2.763073
 40
2.923106
 40
3.080324
 40
3.189447
 40
3.301468
 40
3.413367
 40
3.661613
 40
3.910658
 40
4.155811
 40
4.400965
 40
4.650009
 40
4.898255
 40
5.228527
 40
5.560803
 40
5.891074
 40
6.139321
 40
6.388365
 40
6.633518
 40
6.878672
 40
7.127716
 40
7.375963
 40
7.596144
 40
7.817661
 40
8.037842
 40
8.282719
 40
8.529659
 40
8.776284
 40
8.931032
 40
9.086453
 40
9.241845
 40
9.723656
 40
10.206514
 40
10.426363
 40
10.426363
 40
10.426363
 40
10.426363
 10
70.121134
 20
104.651786
 30
0.0
 10
70.163261
 20
104.669397
 30
0.0
 10
70.297658
 20
104.725584
 30
0.0
 10
70.519745
 20
104.828624
 30
0.0
 10
70.742837
 20
104.947017
 30
0.0
 10
70.900520
 20
105.075867
 30
0.0
 10
71.010991
 20
105.185533
 30
0.0
 10
71.126646
 20
105.331421
 30
0.0
 10
71.245657
 20
105.512237
 30
0.0
 10
71.362481
 20
105.729765
 30
0.0
 10
71.438116
 20
105.957225
 30
0.0
 10
71.480342
 20
106.184698
 30
0.0
 10
71.492735
 20
106.407412
 30
0.0
 10
71.452055
 20
106.607100
 30
0.0
 10
71.359603
 20
106.762618
 30
0.0
 10
71.246329
 20
106.874499
 30
0.0
 10
71.124057
 20
106.951497
 30
0.0
 10
70.999181
 20
106.979886
 30
0.0
 10
70.887448
 20
106.973473
 30
0.0
 10
70.733067
 20
106.942480
 30
0.0
 10
70.537905
 20
106.884201
 30
0.0
 10
70.312275
 20
106.779878
 30
0.0
 10
70.112873
 20
106.630268
 30
0.0
 10
69.963302
 20
106.430875
 30
0.0
 10
69.858830
 20
106.205250
 30
0.0
 10
69.780279
 20
105.940097
 30
0.0
 10
69.733999
 20
105.638820
 30
0.0
 10
69.733999
 20
105.306609
 30
0.0
 10
69.780279
 20
105.005332
 30
0.0
 10
69.858830
 20
104.740180
 30
0.0
 10
69.963300
 20
104.514551
 30
0.0
 10
70.112877
 20
104.315173
 30
0.0
 10
70.312258
 20
104.165504
 30
0.0
 10
70.537970
 20
104.061403
 30
0.0
 10
70.767528
 20
103.991971
 30
0.0
 10
70.995460
 20
103.955556
 30
0.0
 10
71.216962
 20
103.956111
 30
0.0
 10
71.444244
 20
103.990056
 30
0.0
 10
71.670047
 20
104.067657
 30
0.0
 10
71.887525
 20
104.184080
 30
0.0
 10
72.068844
 20
104.302260
 30
0.0
 10
72.212895
 20
104.419945
 30
0.0
 10
72.319954
 20
104.532636
 30
0.0
 10
72.491302
 20
104.733855
 30
0.0
 10
72.703803
 20
105.041747
 30
0.0
 10
72.916720
 20
105.374112
 30
0.0
 10
73.038407
 20
105.574277
 30
0.0
 10
73.076478
 20
105.636900
 30
0.0
 11
70.121134
 21
104.651786
 31
0.0
 11
70.247278
 21
104.705117
 31
0.0
 11
70.519364
 21
104.831419
 31
0.0
 11
70.777877
 21
104.980157
 31
0.0
 11
70.898709
 21
105.077611
 31
0.0
 11
71.008794
 21
105.187697
 31
0.0
 11
71.106249
 21
105.308529
 31
0.0
 11
71.242490
 21
105.514107
 31
0.0
 11
71.356297
 21
105.733259
 31
0.0
 11
71.434620
 21
105.965272
 31
0.0
 11
71.475591
 21
106.185286
 31
0.0
 11
71.483031
 21
106.409205
 31
0.0
 11
71.434620
 21
106.622015
 31
0.0
 11
71.354940
 21
106.757545
 31
0.0
 11
71.241779
 21
106.870705
 31
0.0
 11
71.106249
 21
106.950386
 31
0.0
 11
70.999844
 21
106.974591
 31
0.0
 11
70.887885
 21
106.970871
 31
0.0
 11
70.777877
 21
106.950386
 31
0.0
 11
70.540200
 21
106.878720
 31
0.0
 11
70.315385
 21
106.771570
 31
0.0
 11
70.121134
 21
106.622015
 31
0.0
 11
69.971578
 21
106.427764
 31
0.0
 11
69.864429
 21
106.202948
 31
0.0
 11
69.792763
 21
105.965272
 31
0.0
 11
69.742467
 21
105.638852
 31
0.0
 11
69.742467
 21
105.306577
 31
0.0
 11
69.792763
 21
104.980157
 31
0.0
 11
69.864429
 21
104.742480
 31
0.0
 11
69.971578
 21
104.517665
 31
0.0
 11
70.121134
 21
104.323414
 31
0.0
 11
70.315385
 21
104.173858
 31
0.0
 11
70.540200
 21
104.066709
 31
0.0
 11
70.777877
 21
103.995043
 31
0.0
 11
70.995490
 21
103.961512
 31
0.0
 11
71.217007
 21
103.961512
 31
0.0
 11
71.434620
 21
103.995043
 31
0.0
 11
71.666633
 21
104.073366
 31
0.0
 11
71.885785
 21
104.187173
 31
0.0
 11
72.091363
 21
104.323414
 31
0.0
 11
72.210500
 21
104.422172
 31
0.0
 11
72.318890
 21
104.533561
 31
0.0
 11
72.419735
 21
104.651786
 31
0.0
 11
72.701204
 21
105.042831
 31
0.0
 11
72.961812
 21
105.449323
 31
0.0
 11
73.076478
 21
105.636900
 31
0.0
  0
SPLINE
  5
112
100
AcDbEntity
  8
Layer_1
 62
3
100
AcDbSpline
 70
0
 71
3
 72
85
 73
81
 74
79
 40
0.000000
 40
0.000000
 40
0.000000
 40
0.000000
 40
0.139827
 40
0.442251
 40
0.737821
 40
0.985594
 40
1.237445
 40
1.479960
 40
1.703210
 40
1.919138
 40
2.142388
 40
2.391124
 40
2.650738
 40
2.880089
 40
3.045687
 40
3.181639
 40
3.347236
 40
3.576587
 40
3.836202
 40
4.084938
 40
4.308187
 40
4.524116
 40
4.747365
 40
4.989881
 40
5.241732
 40
5.489505
 40
5.737277
 40
5.989128
 40
6.231644
 40
6.454893
 40
6.670822
 40
6.894071
 40
7.136587
 40
7.388438
 40
7.636210
 40
7.830466
 40
8.028792
 40
8.376732
 40
9.123012
 40
10.019133
 40
10.453775
 40
10.789991
 40
11.498217
 40
12.128653
 40
12.532476
 40
12.859351
 40
13.120908
 40
13.320362
 40
13.467525
 40
13.599768
 40
13.705649
 40
13.798350
 40
13.936121
 40
14.160689
 40
14.432104
 40
14.672933
 40
14.821603
 40
14.940628
 40
15.139632
 40
15.568259
 40
16.077597
 40
16.323870
 40
16.547197
 40
17.033011
 40
17.511612
 40
17.769985
 40
18.027446
 40
18.266426
 40
18.420407
 40
18.584462
 40
18.747278
 40
18.855391
 40
18.967062
 40
19.079050
 40
19.529817
 40
19.982024
 40
20.434371
 40
20.857352
 40
21.280472
 40
21.472847
 40
21.472847
 40
21.472847
 40
21.472847
 10
76.031821
 20
105.965272
 30
0.0
 10
76.016570
 20
106.009345
 30
0.0
 10
75.968331
 20
106.148741
 30
0.0
 10
75.872512
 20
106.374423
 30
0.0
 10
75.728830
 20
106.623775
 30
0.0
 10
75.508375
 20
106.779818
 30
0.0
 10
75.283902
 20
106.884456
 30
0.0
 10
75.054076
 20
106.953569
 30
0.0
 10
74.829282
 20
106.992023
 30
0.0
 10
74.607526
 20
106.991215
 30
0.0
 10
74.379794
 20
106.955850
 30
0.0
 10
74.149602
 20
106.871308
 30
0.0
 10
73.932075
 20
106.755588
 30
0.0
 10
73.749630
 20
106.635750
 30
0.0
 10
73.607077
 20
106.530328
 30
0.0
 10
73.496536
 20
106.419787
 30
0.0
 10
73.391114
 20
106.277234
 30
0.0
 10
73.271276
 20
106.094789
 30
0.0
 10
73.155556
 20
105.877262
 30
0.0
 10
73.071015
 20
105.647071
 30
0.0
 10
73.035646
 20
105.419334
 30
0.0
 10
73.034851
 20
105.197596
 30
0.0
 10
73.073256
 20
104.972732
 30
0.0
 10
73.142569
 20
104.743193
 30
0.0
 10
73.246426
 20
104.517598
 30
0.0
 10
73.395982
 20
104.314548
 30
0.0
 10
73.599034
 20
104.164986
 30
0.0
 10
73.824624
 20
104.061148
 30
0.0
 10
74.054181
 20
103.991771
 30
0.0
 10
74.278986
 20
103.953585
 30
0.0
 10
74.500935
 20
103.953591
 30
0.0
 10
74.725783
 20
103.991750
 30
0.0
 10
74.955149
 20
104.061232
 30
0.0
 10
75.181491
 20
104.164663
 30
0.0
 10
75.367419
 20
104.304915
 30
0.0
 10
75.508202
 20
104.469767
 30
0.0
 10
75.593820
 20
104.704260
 30
0.0
 10
75.753478
 20
105.097215
 30
0.0
 10
75.984501
 20
105.775059
 30
0.0
 10
76.141630
 20
106.233170
 30
0.0
 10
76.414777
 20
107.155599
 30
0.0
 10
76.230364
 20
106.406806
 30
0.0
 10
76.145636
 20
105.986028
 30
0.0
 10
76.032681
 20
105.379689
 30
0.0
 10
75.993434
 20
104.933306
 30
0.0
 10
75.967713
 20
104.601744
 30
0.0
 10
76.012404
 20
104.338792
 30
0.0
 10
76.112043
 20
104.157740
 30
0.0
 10
76.233500
 20
104.049174
 30
0.0
 10
76.351437
 20
103.997903
 30
0.0
 10
76.455796
 20
103.956797
 30
0.0
 10
76.569770
 20
103.964865
 30
0.0
 10
76.717271
 20
103.999433
 30
0.0
 10
76.915792
 20
104.074234
 30
0.0
 10
77.134324
 20
104.187271
 30
0.0
 10
77.320785
 20
104.304491
 30
0.0
 10
77.459206
 20
104.403485
 30
0.0
 10
77.566401
 20
104.516914
 30
0.0
 10
77.723142
 20
104.710273
 30
0.0
 10
77.939121
 20
105.022312
 30
0.0
 10
78.149367
 20
105.356085
 30
0.0
 10
78.331119
 20
105.627671
 30
0.0
 10
78.471831
 20
105.913909
 30
0.0
 10
78.676631
 20
106.252697
 30
0.0
 10
78.925092
 20
106.580388
 30
0.0
 10
79.182583
 20
106.791239
 30
0.0
 10
79.392462
 20
106.930394
 30
0.0
 10
79.619302
 20
106.976610
 30
0.0
 10
79.794256
 20
106.892537
 30
0.0
 10
79.898173
 20
106.768076
 30
0.0
 10
79.972801
 20
106.641982
 30
0.0
 10
79.999703
 20
106.515002
 30
0.0
 10
79.988189
 20
106.404241
 30
0.0
 10
79.956699
 20
106.181997
 30
0.0
 10
79.898476
 20
105.847902
 30
0.0
 10
79.773265
 20
105.413501
 30
0.0
 10
79.648209
 20
104.989101
 30
0.0
 10
79.517368
 20
104.576468
 30
0.0
 10
79.404775
 20
104.249116
 30
0.0
 10
79.336787
 20
104.055544
 30
0.0
 10
79.315536
 20
103.995043
 30
0.0
 11
76.031821
 21
105.965272
 31
0.0
 11
75.985147
 21
106.097079
 31
0.0
 11
75.865502
 21
106.374829
 31
0.0
 11
75.703450
 21
106.622015
 31
0.0
 11
75.506405
 21
106.772230
 31
0.0
 11
75.278795
 21
106.880039
 31
0.0
 11
75.046707
 21
106.950386
 31
0.0
 11
74.826300
 21
106.985896
 31
0.0
 11
74.610371
 21
106.985896
 31
0.0
 11
74.389964
 21
106.950386
 31
0.0
 11
74.155431
 21
106.867538
 31
0.0
 11
73.925376
 21
106.747227
 31
0.0
 11
73.733221
 21
106.622015
 31
0.0
 11
73.602016
 21
106.520980
 31
0.0
 11
73.505884
 21
106.424848
 31
0.0
 11
73.404849
 21
106.293643
 31
0.0
 11
73.279637
 21
106.101488
 31
0.0
 11
73.159326
 21
105.871433
 31
0.0
 11
73.076478
 21
105.636900
 31
0.0
 11
73.040968
 21
105.416493
 31
0.0
 11
73.040968
 21
105.200564
 31
0.0
 11
73.076478
 21
104.980157
 31
0.0
 11
73.146825
 21
104.748069
 31
0.0
 11
73.254634
 21
104.520459
 31
0.0
 11
73.404849
 21
104.323414
 31
0.0
 11
73.601894
 21
104.173199
 31
0.0
 11
73.829504
 21
104.065390
 31
0.0
 11
74.061592
 21
103.995043
 31
0.0
 11
74.282000
 21
103.959533
 31
0.0
 11
74.497928
 21
103.959533
 31
0.0
 11
74.718335
 21
103.995043
 31
0.0
 11
74.950424
 21
104.065390
 31
0.0
 11
75.178034
 21
104.173199
 31
0.0
 11
75.375078
 21
104.323414
 31
0.0
 11
75.497288
 21
104.474411
 31
0.0
 11
75.577091
 21
104.655973
 31
0.0
 11
75.703450
 21
104.980157
 31
0.0
 11
75.953402
 21
105.683334
 31
0.0
 11
76.229769
 21
106.535774
 31
0.0
 11
76.360193
 21
106.950386
 31
0.0
 11
76.284765
 21
106.622740
 31
0.0
 11
76.136367
 21
105.930236
 31
0.0
 11
76.031821
 21
105.308529
 31
0.0
 11
75.991865
 21
104.906687
 31
0.0
 11
75.981027
 21
104.579991
 31
0.0
 11
76.031821
 21
104.323414
 31
0.0
 11
76.130917
 21
104.150319
 31
0.0
 11
76.241351
 21
104.053050
 31
0.0
 11
76.360193
 21
103.995043
 31
0.0
 11
76.461275
 21
103.963528
 31
0.0
 11
76.553950
 21
103.965722
 31
0.0
 11
76.688564
 21
103.995043
 31
0.0
 11
76.899424
 21
104.072303
 31
0.0
 11
77.141315
 21
104.195407
 31
0.0
 11
77.345307
 21
104.323414
 31
0.0
 11
77.463765
 21
104.413251
 31
0.0
 11
77.547150
 21
104.498185
 31
0.0
 11
77.673679
 21
104.651786
 31
0.0
 11
77.921356
 21
105.001611
 31
0.0
 11
78.198860
 21
105.428713
 31
0.0
 11
78.330422
 21
105.636900
 31
0.0
 11
78.434941
 21
105.834260
 31
0.0
 11
78.685404
 21
106.250533
 31
0.0
 11
78.987165
 21
106.622015
 31
0.0
 11
79.185294
 21
106.787851
 31
0.0
 11
79.407041
 21
106.918673
 31
0.0
 11
79.643908
 21
106.950386
 31
0.0
 11
79.783787
 21
106.886013
 31
0.0
 11
79.894773
 21
106.765199
 31
0.0
 11
79.972279
 21
106.622015
 31
0.0
 11
79.993868
 21
106.516078
 31
0.0
 11
79.987532
 21
106.404587
 31
0.0
 11
79.972279
 21
106.293643
 31
0.0
 11
79.890678
 21
105.850323
 31
0.0
 11
79.772867
 21
105.413733
 31
0.0
 11
79.643908
 21
104.980157
 31
0.0
 11
79.515764
 21
104.577055
 31
0.0
 11
79.379164
 21
104.176592
 31
0.0
 11
79.315536
 21
103.995043
 31
0.0
  0
SPLINE
  5
113
100
AcDbEntity
  8
Layer_1
 62
3
100
AcDbSpline
 70
0
 71
3
 72
31
 73
27
 74
25
 40
0.000000
 40
0.000000
 40
0.000000
 40
0.000000
 40
0.136121
 40
0.435389
 40
0.734398
 40
1.133053
 40
1.531180
 40
1.923388
 40
2.169296
 40
2.417331
 40
2.664091
 40
2.887888
 40
3.111930
 40
3.330176
 40
3.487395
 40
3.647427
 40
3.804645
 40
3.912759
 40
4.024430
 40
4.136418
 40
4.587185
 40
5.039392
 40
5.491739
 40
5.914720
 40
6.337839
 40
6.530215
 40
6.530215
 40
6.530215
 40
6.530215
 10
79.643908
 20
104.980157
 30
0.0
 10
79.663147
 20
105.021249
 30
0.0
 10
79.724683
 20
105.152684
 30
0.0
 10
79.830501
 20
105.373491
 30
0.0
 10
79.987521
 20
105.666445
 30
0.0
 10
80.163980
 20
105.986198
 30
0.0
 10
80.360049
 20
106.330845
 30
0.0
 10
80.583917
 20
106.599317
 30
0.0
 10
80.824983
 20
106.773007
 30
0.0
 10
81.047653
 20
106.882202
 30
0.0
 10
81.277358
 20
106.952685
 30
0.0
 10
81.505123
 20
106.996386
 30
0.0
 10
81.727932
 20
107.008431
 30
0.0
 10
81.927564
 20
106.967824
 30
0.0
 10
82.083183
 20
106.875393
 30
0.0
 10
82.194722
 20
106.761992
 30
0.0
 10
82.272668
 20
106.640440
 30
0.0
 10
82.298101
 20
106.514929
 30
0.0
 10
82.286843
 20
106.404260
 30
0.0
 10
82.255234
 20
106.181973
 30
0.0
 10
82.197103
 20
105.847911
 30
0.0
 10
82.071858
 20
105.413499
 30
0.0
 10
81.946812
 20
104.989102
 30
0.0
 10
81.815968
 20
104.576468
 30
0.0
 10
81.703376
 20
104.249116
 30
0.0
 10
81.635387
 20
104.055544
 30
0.0
 10
81.614137
 20
103.995043
 30
0.0
 11
79.643908
 21
104.980157
 31
0.0
 11
79.701742
 21
105.103382
 31
0.0
 11
79.832547
 21
105.372549
 31
0.0
 11
79.972279
 21
105.636900
 31
0.0
 11
80.164838
 21
105.985966
 31
0.0
 11
80.371280
 21
106.326387
 31
0.0
 11
80.629022
 21
106.622015
 31
0.0
 11
80.827904
 21
106.766642
 31
0.0
 11
81.050404
 21
106.876256
 31
0.0
 11
81.285765
 21
106.950386
 31
0.0
 11
81.505780
 21
106.991357
 31
0.0
 11
81.729699
 21
106.998796
 31
0.0
 11
81.942508
 21
106.950386
 31
0.0
 11
82.078039
 21
106.870705
 31
0.0
 11
82.191199
 21
106.757545
 31
0.0
 11
82.270880
 21
106.622015
 31
0.0
 11
82.292469
 21
106.516078
 31
0.0
 11
82.286132
 21
106.404587
 31
0.0
 11
82.270880
 21
106.293643
 31
0.0
 11
82.189279
 21
105.850323
 31
0.0
 11
82.071468
 21
105.413733
 31
0.0
 11
81.942508
 21
104.980157
 31
0.0
 11
81.814364
 21
104.577055
 31
0.0
 11
81.677765
 21
104.176592
 31
0.0
 11
81.614137
 21
103.995043
 31
0.0
  0
SPLINE
  5
114
100
AcDbEntity
  8
Layer_1
 62
3
100
AcDbSpline
 70
0
 71
3
 72
46
 73
42
 74
40
 40
0.000000
 40
0.000000
 40
0.000000
 40
0.000000
 40
0.136121
 40
0.435389
 40
0.734398
 40
1.133053
 40
1.531180
 40
1.923388
 40
2.169296
 40
2.417331
 40
2.664091
 40
2.887888
 40
3.111930
 40
3.330176
 40
3.487395
 40
3.647427
 40
3.804645
 40
4.021507
 40
4.245015
 40
4.469003
 40
4.814364
 40
5.163355
 40
5.508716
 40
5.732703
 40
5.956211
 40
6.173073
 40
6.330291
 40
6.490324
 40
6.647542
 40
6.756665
 40
6.868687
 40
6.980585
 40
7.225462
 40
7.472402
 40
7.719027
 40
7.873775
 40
8.029196
 40
8.184588
 40
8.666399
 40
9.149257
 40
9.369106
 40
9.369106
 40
9.369106
 40
9.369106
 10
81.942508
 20
104.980157
 30
0.0
 10
81.961747
 20
105.021249
 30
0.0
 10
82.023283
 20
105.152684
 30
0.0
 10
82.129102
 20
105.373491
 30
0.0
 10
82.286122
 20
105.666445
 30
0.0
 10
82.462581
 20
105.986198
 30
0.0
 10
82.658650
 20
106.330845
 30
0.0
 10
82.882517
 20
106.599317
 30
0.0
 10
83.123584
 20
106.773007
 30
0.0
 10
83.346255
 20
106.882202
 30
0.0
 10
83.575956
 20
106.952684
 30
0.0
 10
83.803731
 20
106.996389
 30
0.0
 10
84.026503
 20
107.008419
 30
0.0
 10
84.226258
 20
106.967862
 30
0.0
 10
84.381539
 20
106.875295
 30
0.0
 10
84.494257
 20
106.762364
 30
0.0
 10
84.587231
 20
106.607786
 30
0.0
 10
84.624619
 20
106.407410
 30
0.0
 10
84.605862
 20
106.186139
 30
0.0
 10
84.567900
 20
105.924443
 30
0.0
 10
84.479836
 20
105.629327
 30
0.0
 10
84.330753
 20
105.316102
 30
0.0
 10
84.242688
 20
105.020983
 30
0.0
 10
84.204730
 20
104.759297
 30
0.0
 10
84.185961
 20
104.537995
 30
0.0
 10
84.223391
 20
104.337721
 30
0.0
 10
84.316249
 20
104.182861
 30
0.0
 10
84.429368
 20
104.070912
 30
0.0
 10
84.551675
 20
103.993949
 30
0.0
 10
84.676556
 20
103.965505
 30
0.0
 10
84.788248
 20
103.972102
 30
0.0
 10
84.941751
 20
104.001907
 30
0.0
 10
85.133302
 20
104.067639
 30
0.0
 10
85.350750
 20
104.184085
 30
0.0
 10
85.532076
 20
104.302259
 30
0.0
 10
85.676126
 20
104.419945
 30
0.0
 10
85.783186
 20
104.532636
 30
0.0
 10
85.954533
 20
104.733855
 30
0.0
 10
86.167035
 20
105.041747
 30
0.0
 10
86.379952
 20
105.374112
 30
0.0
 10
86.501639
 20
105.574277
 30
0.0
 10
86.539710
 20
105.636900
 30
0.0
 11
81.942508
 21
104.980157
 31
0.0
 11
82.000342
 21
105.103382
 31
0.0
 11
82.131147
 21
105.372549
 31
0.0
 11
82.270880
 21
105.636900
 31
0.0
 11
82.463438
 21
105.985966
 31
0.0
 11
82.669881
 21
106.326387
 31
0.0
 11
82.927623
 21
106.622015
 31
0.0
 11
83.126504
 21
106.766642
 31
0.0
 11
83.349005
 21
106.876256
 31
0.0
 11
83.584366
 21
106.950386
 31
0.0
 11
83.804381
 21
106.991357
 31
0.0
 11
84.028299
 21
106.998796
 31
0.0
 11
84.241109
 21
106.950386
 31
0.0
 11
84.376640
 21
106.870705
 31
0.0
 11
84.489800
 21
106.757545
 31
0.0
 11
84.569480
 21
106.622015
 31
0.0
 11
84.614506
 21
106.409878
 31
0.0
 11
84.603682
 21
106.186633
 31
0.0
 11
84.569480
 21
105.965272
 31
0.0
 11
84.472026
 21
105.633946
 31
0.0
 11
84.338563
 21
105.311483
 31
0.0
 11
84.241109
 21
104.980157
 31
0.0
 11
84.206907
 21
104.758796
 31
0.0
 11
84.196083
 21
104.535550
 31
0.0
 11
84.241109
 21
104.323414
 31
0.0
 11
84.320790
 21
104.187884
 31
0.0
 11
84.433950
 21
104.074723
 31
0.0
 11
84.569480
 21
103.995043
 31
0.0
 11
84.675885
 21
103.970838
 31
0.0
 11
84.787845
 21
103.974557
 31
0.0
 11
84.897852
 21
103.995043
 31
0.0
 11
85.129865
 21
104.073366
 31
0.0
 11
85.349017
 21
104.187173
 31
0.0
 11
85.554595
 21
104.323414
 31
0.0
 11
85.673732
 21
104.422172
 31
0.0
 11
85.782122
 21
104.533561
 31
0.0
 11
85.882967
 21
104.651786
 31
0.0
 11
86.164436
 21
105.042831
 31
0.0
 11
86.425044
 21
105.449323
 31
0.0
 11
86.539710
 21
105.636900
 31
0.0
  0
LWPOLYLINE
  5
115
100
AcDbEntity
  8
Layer_1
 62
1
100
AcDbPolyline
 90
2
 70
1
 10
72.705735
 20
113.496099
 30
0.0
 10
72.705735
 20
113.496103
 30
0.0
  0
ENDSEC
  0
SECTION
  2
OBJECTS
  0
DICTIONARY
  5
C
330
0
100
AcDbDictionary
  3
ACAD_GROUP
350
D
  3
ACAD_MLINESTYLE
350
17
  0
DICTIONARY
  5
D
330
C
100
AcDbDictionary
  0
DICTIONARY
  5
1A
330
C
100
AcDbDictionary
  0
DICTIONARY
  5
17
330
C
100
AcDbDictionary
  3
STANDARD
350
18
  0
DICTIONARY
  5
19
330
C
100
AcDbDictionary
  0
ENDSEC
  0
EOF
