<?xml version="1.0" encoding="UTF-8" standalone="no"?>
<!-- Created with Inkscape (http://www.inkscape.org/) -->

<svg
   xmlns:dc="http://purl.org/dc/elements/1.1/"
   xmlns:cc="http://creativecommons.org/ns#"
   xmlns:rdf="http://www.w3.org/1999/02/22-rdf-syntax-ns#"
   xmlns:svg="http://www.w3.org/2000/svg"
   xmlns="http://www.w3.org/2000/svg"
   xmlns:sodipodi="http://sodipodi.sourceforge.net/DTD/sodipodi-0.dtd"
   xmlns:inkscape="http://www.inkscape.org/namespaces/inkscape"
   id="svg6174"
   version="1.1"
   inkscape:version="0.91 r13725"
   width="712.5"
   height="712.5"
   viewBox="0 0 712.5 712.5"
   sodipodi:docname="hanging_cat.svg">
  <metadata
     id="metadata6180">
    <rdf:RDF>
      <cc:Work
         rdf:about="">
        <dc:format>image/svg+xml</dc:format>
        <dc:type
           rdf:resource="http://purl.org/dc/dcmitype/StillImage" />
        <dc:title></dc:title>
      </cc:Work>
    </rdf:RDF>
  </metadata>
  <defs
     id="defs6178" />
  <sodipodi:namedview
     pagecolor="#ffffff"
     bordercolor="#666666"
     borderopacity="1"
     objecttolerance="10"
     gridtolerance="10"
     guidetolerance="10"
     inkscape:pageopacity="0"
     inkscape:pageshadow="2"
     inkscape:window-width="1360"
     inkscape:window-height="746"
     id="namedview6176"
     showgrid="false"
     inkscape:zoom="1.8737089"
     inkscape:cx="108.35527"
     inkscape:cy="43.386595"
     inkscape:window-x="1432"
     inkscape:window-y="-8"
     inkscape:window-maximized="1"
     inkscape:current-layer="svg6174" />
  <path
     style="fill:none;stroke:#ff0000;stroke-width:0.78362691;stroke-miterlimit:4;stroke-dasharray:none"
     d="m 116.88247,568.77757 a 1.982198,1.982198 0 0 1 -1.98219,1.98219 1.982198,1.982198 0 0 1 -1.9822,-1.98219 1.982198,1.982198 0 0 1 1.9822,-1.9822 1.982198,1.982198 0 0 1 1.98219,1.9822 z"
     id="path5256" />
  <path
     style="fill:none;stroke:#ff0000;stroke-width:0.78362691;stroke-miterlimit:4;stroke-dasharray:none"
     d="M 51.884766 525.62109 C 49.433907 525.54664 47.169335 525.93494 45.990234 526.81445 C 44.221668 528.13366 43.907453 529.11461 44.40625 531.77344 C 44.707616 533.37986 45.203598 533.8598 47.914062 535.17383 C 51.719191 537.01856 54.271363 540.16191 55.558594 544.58984 C 56.864879 549.08331 56.343439 558.7388 54.416016 565.73047 C 51.164235 577.52619 50.741119 579.48451 50.421875 584.26562 C 49.967627 591.06851 51.208831 597.07283 54.455078 603.79297 C 57.516921 610.13135 63.422911 616.59146 70.40625 621.23828 C 74.339195 623.85531 75.398921 624.91172 77.53125 628.33398 C 82.714036 636.65204 87.300489 648.03467 89.226562 657.35938 C 89.708614 659.69313 90.465312 665.34542 90.90625 669.92188 C 91.665659 677.80372 94.240071 691.96177 95.507812 695.22852 C 96.124209 696.81686 97.027821 697.18304 101.10547 697.49023 C 102.47388 697.59332 105.73204 697.72034 108.3457 697.77344 C 113.70759 697.88243 114.08588 697.66611 115.67188 693.57422 C 116.96254 690.24428 116.81729 688.74756 115.00977 686.72461 C 113.63493 685.18589 113.00288 684.92907 110.06836 684.7168 C 107.88096 684.55858 106.60049 684.20424 106.4082 683.70312 C 106.2455 683.27913 105.94816 680.01146 105.74805 676.44141 C 105.35184 669.3731 105.75451 664.69595 108.35352 646.17578 C 111.3401 624.89392 113.55825 618.80664 118.32617 618.80664 C 122.31809 618.80664 128.15809 627.26193 134.89258 642.78906 L 137.06836 647.80273 L 136.48047 663.57617 C 136.15809 672.25159 135.68797 681.24803 135.43359 683.56836 C 135.17922 685.8887 135.04151 688.43858 135.12891 689.23438 C 135.5576 693.13956 136.12725 695.19679 137.13086 696.47266 C 138.194 697.82427 138.44467 697.87109 144.60352 697.87109 L 150.97656 697.87109 L 152.53906 696.19727 C 155.73726 692.77359 154.99931 688.69795 150.62305 685.61328 C 149.23636 684.63585 148.11375 683.44823 148.12695 682.97461 C 148.14017 682.50099 149.33655 675.06569 150.78711 666.45117 L 153.42578 650.78711 L 155.18359 649.41211 C 159.26715 646.21625 165.78429 635.90158 168.60742 628.16602 C 171.30589 620.77204 171.87417 616.95788 171.88867 606.19336 C 171.90213 596.21137 172.32052 592.69315 173.65039 591.36328 C 174.06282 590.95085 176.3187 590.36938 178.66211 590.07227 C 184.47784 589.33491 188.9207 586.91382 191.70117 582.96484 C 193.77486 580.01967 193.70207 579.23651 191.08594 576.38477 C 189.75475 574.93371 187.99018 572.33711 187.16406 570.61328 C 183.63148 563.24208 176.24007 559.54774 167.45312 560.76367 C 165.392 561.04889 164.20818 560.98204 163.7793 560.55469 C 163.43128 560.20791 162.47943 557.56074 161.66406 554.67188 C 160.8487 551.78301 159.98048 549.21098 159.73438 548.95703 C 158.93276 548.12991 155.87866 550.22155 154.80273 552.33398 C 153.35842 555.16967 151.97266 560.0253 151.97266 562.24805 C 151.97266 563.3042 151.36498 565.0119 150.55469 566.23633 C 148.33513 569.59031 147.51481 573.57937 147.16211 582.73047 L 146.83789 591.16211 L 145.30469 591.16211 C 143.89121 591.16211 143.48501 590.59329 140.10938 583.85938 C 136.52616 576.71137 134.06233 572.97031 130.33008 569.01367 C 128.22559 566.78265 123.81848 564.1948 122.00391 563.36328 C 121.31792 563.15411 119.77276 562.50343 116.5625 562.19727 C 114.95278 561.90507 111.57158 562.40113 108.13672 564.14844 C 105.03084 565.72841 100.15426 569.51284 97.642578 572.29297 C 91.994823 578.54436 84.596017 590.15786 79.632812 600.5625 C 77.964661 604.05954 76.505653 607.03317 76.390625 607.17188 C 75.865563 607.80506 71.989703 605.01052 69.083984 601.9043 C 65.083149 597.62739 63.663377 594.72465 62.859375 589.17383 C 62.172802 584.43379 62.733072 580.88275 65.992188 569.32422 C 71.740984 548.93598 68.937723 532.29435 58.894531 527.20508 C 56.973011 526.23137 54.335625 525.69555 51.884766 525.62109 z "
     id="path6726" />
</svg>
