<?xml version="1.0" encoding="UTF-8" standalone="no"?>
<!-- Created with Inkscape (http://www.inkscape.org/) -->

<svg
   xmlns:dc="http://purl.org/dc/elements/1.1/"
   xmlns:cc="http://creativecommons.org/ns#"
   xmlns:rdf="http://www.w3.org/1999/02/22-rdf-syntax-ns#"
   xmlns:svg="http://www.w3.org/2000/svg"
   xmlns="http://www.w3.org/2000/svg"
   xmlns:sodipodi="http://sodipodi.sourceforge.net/DTD/sodipodi-0.dtd"
   xmlns:inkscape="http://www.inkscape.org/namespaces/inkscape"
   id="svg11750"
   version="1.1"
   inkscape:version="0.91 r13725"
   width="512"
   height="512"
   viewBox="0 0 512 512"
   sodipodi:docname="joystick.svg">
  <metadata
     id="metadata11756">
    <rdf:RDF>
      <cc:Work
         rdf:about="">
        <dc:format>image/svg+xml</dc:format>
        <dc:type
           rdf:resource="http://purl.org/dc/dcmitype/StillImage" />
        <dc:title />
      </cc:Work>
    </rdf:RDF>
  </metadata>
  <defs
     id="defs11754" />
  <sodipodi:namedview
     pagecolor="#ffffff"
     bordercolor="#666666"
     borderopacity="1"
     objecttolerance="10"
     gridtolerance="10"
     guidetolerance="10"
     inkscape:pageopacity="0"
     inkscape:pageshadow="2"
     inkscape:window-width="1360"
     inkscape:window-height="746"
     id="namedview11752"
     showgrid="false"
     inkscape:document-units="mm"
     inkscape:zoom="3.6875"
     inkscape:cx="39.846796"
     inkscape:cy="51.170688"
     inkscape:window-x="1432"
     inkscape:window-y="-8"
     inkscape:window-maximized="1"
     inkscape:current-layer="svg11750" />
  <path
     style="fill:none;stroke:#ff0000"
     d="M 98.660156 401.32422 C 96.30524 401.32922 93.920169 401.62145 91.548828 402.22461 C 85.831861 403.67876 79.585266 407.62042 76.068359 411.99219 C 75.149619 413.13424 74.311516 414.06836 74.205078 414.06836 C 74.098643 414.06836 73.527191 413.45551 72.935547 412.70703 C 66.244918 404.24274 55.456213 400.00669 44.935547 401.71289 C 33.84523 403.51147 24.569922 411.59637 21.173828 422.42188 C 20.143925 425.70484 18.191048 438.4309 15.240234 461.10547 C 11.805662 487.49731 12.005847 485.65326 12.351562 487.7168 C 13.17771 492.648 16.971811 496.66249 21.785156 497.69922 C 23.715954 498.11507 24.580468 498.12876 26.492188 497.77539 C 28.573873 497.39057 30.525216 496.49059 32.050781 495.21289 C 32.737499 494.63775 37.283158 489.81227 42.152344 484.49023 C 50.932929 474.89302 52.56664 473.27042 55.929688 470.80273 C 64.93554 464.19455 80.593437 463.3958 89.953125 469.06836 C 94.336041 471.72469 97.125179 474.39459 107.9043 486.23828 C 116.02005 495.15557 117.50184 496.48782 120.30859 497.39453 C 123.44058 498.40631 127.58778 497.9255 130.38867 496.22461 C 132.0397 495.222 134.15268 492.89743 134.96875 491.1875 C 136.38906 488.21151 136.49248 486.61955 135.67188 480.32227 C 135.27708 477.29282 134.16656 468.76672 133.20508 461.375 C 130.15244 437.90658 128.29044 425.72621 127.24609 422.41602 C 123.21358 409.63452 111.37671 401.29836 98.660156 401.32422 z "
     id="path5816" />
  <path
     style="fill:none;stroke:#ff0000"
     d="M 46.527344 417.1582 L 46.527344 422.80273 L 46.527344 428.44727 L 40.882812 428.44727 L 35.238281 428.44727 L 35.238281 431.67383 L 35.238281 434.89844 L 40.882812 434.89844 L 46.527344 434.89844 L 46.527344 440.41016 L 46.527344 445.91992 L 49.617188 445.91992 L 52.708984 445.91992 L 52.708984 440.41016 L 52.708984 434.89844 L 58.353516 434.89844 L 63.998047 434.89844 L 63.998047 431.67383 L 63.998047 428.44727 L 58.353516 428.44727 L 52.708984 428.44727 L 52.708984 422.80273 L 52.708984 417.1582 L 49.617188 417.1582 L 46.527344 417.1582 z "
     id="path5812" />
  <path
     style="fill:none;stroke:#ff0000"
     d="M 98.994141 416.16602 C 98.820367 416.15804 98.647286 416.15907 98.474609 416.16797 C 96.172259 416.28671 94.014809 417.88587 93.316406 420.54883 C 92.850819 422.32408 93.552301 424.64245 94.951172 425.94727 C 96.744037 427.61959 99.935041 427.82931 101.95703 426.4082 C 103.55915 425.28218 104.3065 423.8587 104.3125 421.92188 C 104.3185 419.94199 103.86965 418.88748 102.49219 417.64453 C 101.44061 416.69565 100.21056 416.22183 98.994141 416.16602 z M 88.683594 426.0332 C 85.030399 426.2458 82.118149 430.19389 83.861328 433.95898 C 85.097116 436.62815 87.846108 437.84428 90.710938 436.98828 C 92.778105 436.37063 94.643772 433.83157 94.638672 431.64258 C 94.633872 429.57894 93.206848 427.40319 91.283203 426.5293 C 90.409404 426.1323 89.526639 425.9841 88.683594 426.0332 z M 108.30664 426.04492 C 106.95073 426.12 105.60097 426.69333 104.5332 427.81836 C 102.41583 430.04929 102.47634 433.34158 104.67578 435.54102 C 106.29721 437.16245 108.13091 437.64661 110.25 437.01172 C 113.35577 436.08121 115.07444 432.52821 113.84375 429.58203 C 112.84039 427.18005 110.56648 425.9198 108.30664 426.04492 z M 98.490234 435.85352 C 97.150486 435.92221 95.803711 436.4893 94.722656 437.66211 C 91.348459 441.32268 93.778055 446.94452 98.75 446.98242 C 99.770955 446.99042 100.64849 446.81793 101.30273 446.48242 C 103.25542 445.48102 104.35547 443.68357 104.35547 441.48828 C 104.35547 437.96349 101.43768 435.70238 98.490234 435.85352 z "
     id="path12300" />
  <circle
     style="fill:none;stroke:#ff0000;stroke-width:0.43759614;stroke-miterlimit:4;stroke-dasharray:none"
     id="path12302"
     cx="74.183525"
     cy="421.67288"
     r="3.3245089" />
</svg>
