  0
SECTION
  2
HEADER
  9
$ACADVER
  1
AC1014
  9
$HANDSEED
  5
FFFF
  9
$MEASUREMENT
 70
     1
  0
ENDSEC
  0
SECTION
  2
TABLES
  0
TABLE
  2
VPORT
  5
8
330
0
100
AcDbSymbolTable
 70
     4
  0
VPORT
  5
2E
330
8
100
AcDbSymbolTableRecord
100
AcDbViewportTableRecord
  2
*ACTIVE
 70
     0
 10
0.0
 20
0.0
 11
1.0
 21
1.0
 12
210.0
 22
148.5
 13
0.0
 23
0.0
 14
10.0
 24
10.0
 15
10.0
 25
10.0
 16
0.0
 26
0.0
 36
1.0
 17
0.0
 27
0.0
 37
0.0
 40
341.0
 41
1.24
 42
50.0
 43
0.0
 44
0.0
 50
0.0
 51
0.0
 71
     0
 72
   100
 73
     1
 74
     3
 75
     0
 76
     0
 77
     0
 78
     0
  0
ENDTAB
  0
TABLE
  2
LTYPE
  5
5
330
0
100
AcDbSymbolTable
 70
     1
  0
LTYPE
  5
14
330
5
100
AcDbSymbolTableRecord
100
AcDbLinetypeTableRecord
  2
BYBLOCK
 70
     0
  3

 72
    65
 73
     0
 40
0.0
  0
LTYPE
  5
15
330
5
100
AcDbSymbolTableRecord
100
AcDbLinetypeTableRecord
  2
BYLAYER
 70
     0
  3

 72
    65
 73
     0
 40
0.0
  0
LTYPE
  5
16
330
5
100
AcDbSymbolTableRecord
100
AcDbLinetypeTableRecord
  2
CONTINUOUS
 70
     0
  3
Solid line
 72
    65
 73
     0
 40
0.0
  0
ENDTAB
  0
TABLE
  2
LAYER
  5
2
100
AcDbSymbolTable
 70
1
  0
LAYER
  5
50
100
AcDbSymbolTableRecord
100
AcDbLayerTableRecord
  2
0
 70
0
  6
CONTINUOUS
  0
ENDTAB
  0
TABLE
  2
STYLE
  5
3
330
0
100
AcDbSymbolTable
 70
     1
  0
STYLE
  5
11
330
3
100
AcDbSymbolTableRecord
100
AcDbTextStyleTableRecord
  2
STANDARD
 70
     0
 40
0.0
 41
1.0
 50
0.0
 71
     0
 42
2.5
  3
txt
  4

  0
ENDTAB
  0
TABLE
  2
VIEW
  5
6
330
0
100
AcDbSymbolTable
 70
     0
  0
ENDTAB
  0
TABLE
  2
UCS
  5
7
330
0
100
AcDbSymbolTable
 70
     0
  0
ENDTAB
  0
TABLE
  2
APPID
  5
9
330
0
100
AcDbSymbolTable
 70
     2
  0
APPID
  5
12
330
9
100
AcDbSymbolTableRecord
100
AcDbRegAppTableRecord
  2
ACAD
 70
     0
  0
ENDTAB
  0
TABLE
  2
DIMSTYLE
  5
A
330
0
100
AcDbSymbolTable
 70
     1
  0
DIMSTYLE
105
27
330
A
100
AcDbSymbolTableRecord
100
AcDbDimStyleTableRecord
  2
ISO-25
 70
     0
  3

  4

  5

  6

  7

 40
1.0
 41
2.5
 42
0.625
 43
3.75
 44
1.25
 45
0.0
 46
0.0
 47
0.0
 48
0.0
140
2.5
141
2.5
142
0.0
143
0.03937007874016
144
1.0
145
0.0
146
1.0
147
0.625
 71
     0
 72
     0
 73
     0
 74
     0
 75
     0
 76
     0
 77
     1
 78
     8
170
     0
171
     3
172
     1
173
     0
174
     0
175
     0
176
     0
177
     0
178
     0
270
     2
271
     2
272
     2
273
     2
274
     3
340
11
275
     0
280
     0
281
     0
282
     0
283
     0
284
     8
285
     0
286
     0
287
     3
288
     0
  0
ENDTAB
  0
TABLE
  2
BLOCK_RECORD
  5
1
330
0
100
AcDbSymbolTable
 70
     1
  0
BLOCK_RECORD
  5
1F
330
1
100
AcDbSymbolTableRecord
100
AcDbBlockTableRecord
  2
*MODEL_SPACE
  0
BLOCK_RECORD
  5
1B
330
1
100
AcDbSymbolTableRecord
100
AcDbBlockTableRecord
  2
*PAPER_SPACE
  0
ENDTAB
  0
ENDSEC
  0
SECTION
  2
BLOCKS
  0
BLOCK
  5
20
330
1F
100
AcDbEntity
  8
0
100
AcDbBlockBegin
  2
*MODEL_SPACE
 70
     0
 10
0.0
 20
0.0
 30
0.0
  3
*MODEL_SPACE
  1

  0
ENDBLK
  5
21
330
1F
100
AcDbEntity
  8
0
100
AcDbBlockEnd
  0
BLOCK
  5
1C
330
1B
100
AcDbEntity
 67
     1
  8
0
100
AcDbBlockBegin
  2
*PAPER_SPACE
  1

  0
ENDBLK
  5
1D
330
1B
100
AcDbEntity
 67
     1
  8
0
100
AcDbBlockEnd
  0
ENDSEC
  0
SECTION
  2
ENTITIES
  0
SPLINE
  5
100
100
AcDbEntity
  8
0
 62
1
100
AcDbSpline
 70
8
 71
3
 72
8
 73
4
 74
0
 40
0
 40
0
 40
0
 40
0
 40
1
 40
1
 40
1
 40
1
 10
21.874490
 20
25.492321
 30
0.0
 10
21.874490
 20
25.243481
 30
0.0
 10
21.775639
 20
25.004833
 30
0.0
 10
21.599683
 20
24.828877
 30
0.0
  0
SPLINE
  5
101
100
AcDbEntity
  8
0
 62
1
100
AcDbSpline
 70
8
 71
3
 72
8
 73
4
 74
0
 40
0
 40
0
 40
0
 40
0
 40
1
 40
1
 40
1
 40
1
 10
21.599683
 20
24.828877
 30
0.0
 10
21.423726
 20
24.652921
 30
0.0
 10
21.185079
 20
24.554070
 30
0.0
 10
20.936239
 20
24.554070
 30
0.0
  0
SPLINE
  5
102
100
AcDbEntity
  8
0
 62
1
100
AcDbSpline
 70
8
 71
3
 72
8
 73
4
 74
0
 40
0
 40
0
 40
0
 40
0
 40
1
 40
1
 40
1
 40
1
 10
20.936239
 20
24.554070
 30
0.0
 10
20.687400
 20
24.554070
 30
0.0
 10
20.448752
 20
24.652921
 30
0.0
 10
20.272796
 20
24.828877
 30
0.0
  0
SPLINE
  5
103
100
AcDbEntity
  8
0
 62
1
100
AcDbSpline
 70
8
 71
3
 72
8
 73
4
 74
0
 40
0
 40
0
 40
0
 40
0
 40
1
 40
1
 40
1
 40
1
 10
20.272796
 20
24.828877
 30
0.0
 10
20.096840
 20
25.004833
 30
0.0
 10
19.997989
 20
25.243481
 30
0.0
 10
19.997989
 20
25.492321
 30
0.0
  0
SPLINE
  5
104
100
AcDbEntity
  8
0
 62
1
100
AcDbSpline
 70
8
 71
3
 72
8
 73
4
 74
0
 40
0
 40
0
 40
0
 40
0
 40
1
 40
1
 40
1
 40
1
 10
19.997989
 20
25.492321
 30
0.0
 10
19.997989
 20
25.741160
 30
0.0
 10
20.096840
 20
25.979808
 30
0.0
 10
20.272796
 20
26.155764
 30
0.0
  0
SPLINE
  5
105
100
AcDbEntity
  8
0
 62
1
100
AcDbSpline
 70
8
 71
3
 72
8
 73
4
 74
0
 40
0
 40
0
 40
0
 40
0
 40
1
 40
1
 40
1
 40
1
 10
20.272796
 20
26.155764
 30
0.0
 10
20.448752
 20
26.331720
 30
0.0
 10
20.687400
 20
26.430571
 30
0.0
 10
20.936239
 20
26.430571
 30
0.0
  0
SPLINE
  5
106
100
AcDbEntity
  8
0
 62
1
100
AcDbSpline
 70
8
 71
3
 72
8
 73
4
 74
0
 40
0
 40
0
 40
0
 40
0
 40
1
 40
1
 40
1
 40
1
 10
20.936239
 20
26.430571
 30
0.0
 10
21.185079
 20
26.430571
 30
0.0
 10
21.423726
 20
26.331720
 30
0.0
 10
21.599683
 20
26.155764
 30
0.0
  0
SPLINE
  5
107
100
AcDbEntity
  8
0
 62
1
100
AcDbSpline
 70
8
 71
3
 72
8
 73
4
 74
0
 40
0
 40
0
 40
0
 40
0
 40
1
 40
1
 40
1
 40
1
 10
21.599683
 20
26.155764
 30
0.0
 10
21.775639
 20
25.979808
 30
0.0
 10
21.874490
 20
25.741160
 30
0.0
 10
21.874490
 20
25.492321
 30
0.0
  0
SPLINE
  5
108
100
AcDbEntity
  8
0
 62
1
100
AcDbSpline
 70
8
 71
3
 72
8
 73
4
 74
0
 40
0
 40
0
 40
0
 40
0
 40
1
 40
1
 40
1
 40
1
 10
27.938346
 20
27.046479
 30
0.0
 10
27.889304
 20
27.048737
 30
0.0
 10
27.840456
 20
27.048454
 30
0.0
 10
27.791723
 20
27.045914
 30
0.0
  0
SPLINE
  5
109
100
AcDbEntity
  8
0
 62
1
100
AcDbSpline
 70
8
 71
3
 72
8
 73
4
 74
0
 40
0
 40
0
 40
0
 40
0
 40
1
 40
1
 40
1
 40
1
 10
27.791723
 20
27.045914
 30
0.0
 10
27.141949
 20
27.012403
 30
0.0
 10
26.533068
 20
26.561085
 30
0.0
 10
26.335963
 20
25.809538
 30
0.0
  0
SPLINE
  5
10a
100
AcDbEntity
  8
0
 62
1
100
AcDbSpline
 70
8
 71
3
 72
8
 73
4
 74
0
 40
0
 40
0
 40
0
 40
0
 40
1
 40
1
 40
1
 40
1
 10
26.335963
 20
25.809538
 30
0.0
 10
26.204564
 20
25.308523
 30
0.0
 10
26.402538
 20
24.654228
 30
0.0
 10
26.797331
 20
24.285979
 30
0.0
  0
SPLINE
  5
10b
100
AcDbEntity
  8
0
 62
1
100
AcDbSpline
 70
8
 71
3
 72
8
 73
4
 74
0
 40
0
 40
0
 40
0
 40
0
 40
1
 40
1
 40
1
 40
1
 10
26.797331
 20
24.285979
 30
0.0
 10
27.303317
 20
23.814013
 30
0.0
 10
28.203889
 20
23.754825
 30
0.0
 10
28.774540
 20
24.155894
 30
0.0
  0
SPLINE
  5
10c
100
AcDbEntity
  8
0
 62
1
100
AcDbSpline
 70
8
 71
3
 72
8
 73
4
 74
0
 40
0
 40
0
 40
0
 40
0
 40
1
 40
1
 40
1
 40
1
 10
28.774540
 20
24.155894
 30
0.0
 10
29.226693
 20
24.473682
 30
0.0
 10
29.437612
 20
24.875419
 30
0.0
 10
29.439306
 20
25.422033
 30
0.0
  0
SPLINE
  5
10d
100
AcDbEntity
  8
0
 62
1
100
AcDbSpline
 70
8
 71
3
 72
8
 73
4
 74
0
 40
0
 40
0
 40
0
 40
0
 40
1
 40
1
 40
1
 40
1
 10
29.439306
 20
25.422033
 30
0.0
 10
29.440999
 20
25.980802
 30
0.0
 10
29.314323
 20
26.278408
 30
0.0
 10
28.925574
 20
26.629196
 30
0.0
  0
SPLINE
  5
10e
100
AcDbEntity
  8
0
 62
1
100
AcDbSpline
 70
8
 71
3
 72
8
 73
4
 74
0
 40
0
 40
0
 40
0
 40
0
 40
1
 40
1
 40
1
 40
1
 10
28.925574
 20
26.629196
 30
0.0
 10
28.628794
 20
26.896991
 30
0.0
 10
28.281647
 20
27.030714
 30
0.0
 10
27.938346
 20
27.046465
 30
0.0
  0
LWPOLYLINE
  5
10f
100
AcDbEntity
  8
0
 62
1
100
AcDbPolyline
 90
2
 70
1
 10
21.874490
 20
25.492321
 30
0.0
 10
21.874490
 20
25.492321
 30
0.0
  0
SPLINE
  5
110
100
AcDbEntity
  8
0
 62
1
100
AcDbSpline
 70
8
 71
3
 72
8
 73
4
 74
0
 40
0
 40
0
 40
0
 40
0
 40
1
 40
1
 40
1
 40
1
 10
25.028481
 20
24.261741
 30
0.0
 10
23.997468
 20
24.201741
 30
0.0
 10
23.175566
 20
23.087502
 30
0.0
 10
23.667530
 20
22.024910
 30
0.0
  0
SPLINE
  5
111
100
AcDbEntity
  8
0
 62
1
100
AcDbSpline
 70
8
 71
3
 72
8
 73
4
 74
0
 40
0
 40
0
 40
0
 40
0
 40
1
 40
1
 40
1
 40
1
 10
23.667530
 20
22.024910
 30
0.0
 10
24.016297
 20
21.271611
 30
0.0
 10
24.792124
 20
20.928392
 30
0.0
 10
25.600643
 20
21.169974
 30
0.0
  0
SPLINE
  5
112
100
AcDbEntity
  8
0
 62
1
100
AcDbSpline
 70
8
 71
3
 72
8
 73
4
 74
0
 40
0
 40
0
 40
0
 40
0
 40
1
 40
1
 40
1
 40
1
 10
25.600643
 20
21.169974
 30
0.0
 10
26.184043
 20
21.344289
 30
0.0
 10
26.710576
 20
22.060868
 30
0.0
 10
26.709136
 20
22.678650
 30
0.0
  0
SPLINE
  5
113
100
AcDbEntity
  8
0
 62
1
100
AcDbSpline
 70
8
 71
3
 72
8
 73
4
 74
0
 40
0
 40
0
 40
0
 40
0
 40
1
 40
1
 40
1
 40
1
 10
26.709136
 20
22.678650
 30
0.0
 10
26.707782
 20
23.261055
 30
0.0
 10
26.305044
 20
23.875100
 30
0.0
 10
25.762148
 20
24.121731
 30
0.0
  0
SPLINE
  5
114
100
AcDbEntity
  8
0
 62
1
100
AcDbSpline
 70
8
 71
3
 72
8
 73
4
 74
0
 40
0
 40
0
 40
0
 40
0
 40
1
 40
1
 40
1
 40
1
 10
25.762148
 20
24.121731
 30
0.0
 10
25.515543
 20
24.233773
 30
0.0
 10
25.266407
 20
24.275598
 30
0.0
 10
25.028481
 20
24.261741
 30
0.0
  0
LWPOLYLINE
  5
115
100
AcDbEntity
  8
0
 62
1
100
AcDbPolyline
 90
2
 70
1
 10
27.938346
 20
27.046465
 30
0.0
 10
27.938346
 20
27.046479
 30
0.0
  0
SPLINE
  5
116
100
AcDbEntity
  8
0
 62
1
100
AcDbSpline
 70
8
 71
3
 72
8
 73
4
 74
0
 40
0
 40
0
 40
0
 40
0
 40
1
 40
1
 40
1
 40
1
 10
30.566541
 20
24.258439
 30
0.0
 10
30.183873
 20
24.237244
 30
0.0
 10
29.802940
 20
24.075444
 30
0.0
 10
29.501592
 20
23.757935
 30
0.0
  0
SPLINE
  5
117
100
AcDbEntity
  8
0
 62
1
100
AcDbSpline
 70
8
 71
3
 72
8
 73
4
 74
0
 40
0
 40
0
 40
0
 40
0
 40
1
 40
1
 40
1
 40
1
 10
29.501592
 20
23.757935
 30
0.0
 10
28.904023
 20
23.128317
 30
0.0
 10
28.921100
 20
22.199160
 30
0.0
 10
29.541831
 20
21.578429
 30
0.0
  0
SPLINE
  5
118
100
AcDbEntity
  8
0
 62
1
100
AcDbSpline
 70
8
 71
3
 72
8
 73
4
 74
0
 40
0
 40
0
 40
0
 40
0
 40
1
 40
1
 40
1
 40
1
 10
29.541831
 20
21.578429
 30
0.0
 10
29.999435
 20
21.120825
 30
0.0
 10
30.516946
 20
20.984185
 30
0.0
 10
31.115000
 20
21.163365
 30
0.0
  0
SPLINE
  5
119
100
AcDbEntity
  8
0
 62
1
100
AcDbSpline
 70
8
 71
3
 72
8
 73
4
 74
0
 40
0
 40
0
 40
0
 40
0
 40
1
 40
1
 40
1
 40
1
 10
31.115000
 20
21.163365
 30
0.0
 10
31.991517
 20
21.425975
 30
0.0
 10
32.476564
 20
22.428711
 30
0.0
 10
32.129236
 20
23.260188
 30
0.0
  0
SPLINE
  5
11a
100
AcDbEntity
  8
0
 62
1
100
AcDbSpline
 70
8
 71
3
 72
8
 73
4
 74
0
 40
0
 40
0
 40
0
 40
0
 40
1
 40
1
 40
1
 40
1
 10
32.129236
 20
23.260188
 30
0.0
 10
31.846066
 20
23.938080
 30
0.0
 10
31.204318
 20
24.293751
 30
0.0
 10
30.566541
 20
24.258439
 30
0.0
  0
LWPOLYLINE
  5
11b
100
AcDbEntity
  8
0
 62
1
100
AcDbPolyline
 90
2
 70
1
 10
25.028481
 20
24.261741
 30
0.0
 10
25.028481
 20
24.261741
 30
0.0
  0
SPLINE
  5
11c
100
AcDbEntity
  8
0
 62
1
100
AcDbSpline
 70
8
 71
3
 72
8
 73
4
 74
0
 40
0
 40
0
 40
0
 40
0
 40
1
 40
1
 40
1
 40
1
 10
27.796133
 20
21.490234
 30
0.0
 10
27.418026
 20
21.470846
 30
0.0
 10
27.037936
 20
21.310803
 30
0.0
 10
26.732838
 20
20.979810
 30
0.0
  0
SPLINE
  5
11d
100
AcDbEntity
  8
0
 62
1
100
AcDbSpline
 70
8
 71
3
 72
8
 73
4
 74
0
 40
0
 40
0
 40
0
 40
0
 40
1
 40
1
 40
1
 40
1
 10
26.732838
 20
20.979810
 30
0.0
 10
25.780565
 20
19.946716
 30
0.0
 10
26.466251
 20
18.360108
 30
0.0
 10
27.869444
 20
18.349412
 30
0.0
  0
SPLINE
  5
11e
100
AcDbEntity
  8
0
 62
1
100
AcDbSpline
 70
8
 71
3
 72
8
 73
4
 74
0
 40
0
 40
0
 40
0
 40
0
 40
1
 40
1
 40
1
 40
1
 10
27.869444
 20
18.349412
 30
0.0
 10
28.157581
 20
18.347154
 30
0.0
 10
28.405241
 20
18.395834
 30
0.0
 10
28.589882
 20
18.490523
 30
0.0
  0
SPLINE
  5
11f
100
AcDbEntity
  8
0
 62
1
100
AcDbSpline
 70
8
 71
3
 72
8
 73
4
 74
0
 40
0
 40
0
 40
0
 40
0
 40
1
 40
1
 40
1
 40
1
 10
28.589882
 20
18.490523
 30
0.0
 10
29.140974
 20
18.773140
 30
0.0
 10
29.451433
 20
19.280420
 30
0.0
 10
29.451433
 20
19.899980
 30
0.0
  0
SPLINE
  5
120
100
AcDbEntity
  8
0
 62
1
100
AcDbSpline
 70
8
 71
3
 72
8
 73
4
 74
0
 40
0
 40
0
 40
0
 40
0
 40
1
 40
1
 40
1
 40
1
 10
29.451433
 20
19.899980
 30
0.0
 10
29.451433
 20
20.894754
 30
0.0
 10
28.627967
 20
21.532890
 30
0.0
 10
27.796133
 20
21.490234
 30
0.0
  0
LWPOLYLINE
  5
121
100
AcDbEntity
  8
0
 62
1
100
AcDbPolyline
 90
2
 70
1
 10
30.566541
 20
24.258439
 30
0.0
 10
30.566541
 20
24.258439
 30
0.0
  0
LWPOLYLINE
  5
122
100
AcDbEntity
  8
0
 62
1
100
AcDbPolyline
 90
2
 70
1
 10
27.796133
 20
21.490234
 30
0.0
 10
27.796133
 20
21.490234
 30
0.0
  0
SPLINE
  5
123
100
AcDbEntity
  8
0
 62
1
100
AcDbSpline
 70
8
 71
3
 72
8
 73
4
 74
0
 40
0
 40
0
 40
0
 40
0
 40
1
 40
1
 40
1
 40
1
 10
27.844088
 20
31.235170
 30
0.0
 10
27.179479
 20
31.233759
 30
0.0
 10
26.506359
 20
31.151285
 30
0.0
 10
25.837114
 20
30.981060
 30
0.0
  0
SPLINE
  5
124
100
AcDbEntity
  8
0
 62
1
100
AcDbSpline
 70
8
 71
3
 72
8
 73
4
 74
0
 40
0
 40
0
 40
0
 40
0
 40
1
 40
1
 40
1
 40
1
 10
25.837114
 20
30.981060
 30
0.0
 10
24.223659
 20
30.570667
 30
0.0
 10
22.460731
 20
29.458243
 30
0.0
 10
21.468181
 20
28.224432
 30
0.0
  0
SPLINE
  5
125
100
AcDbEntity
  8
0
 62
1
100
AcDbSpline
 70
8
 71
3
 72
8
 73
4
 74
0
 40
0
 40
0
 40
0
 40
0
 40
1
 40
1
 40
1
 40
1
 10
21.468181
 20
28.224432
 30
0.0
 10
21.208892
 20
27.902120
 30
0.0
 10
20.972361
 20
27.638491
 30
0.0
 10
20.942322
 20
27.638491
 30
0.0
  0
SPLINE
  5
126
100
AcDbEntity
  8
0
 62
1
100
AcDbSpline
 70
8
 71
3
 72
8
 73
4
 74
0
 40
0
 40
0
 40
0
 40
0
 40
1
 40
1
 40
1
 40
1
 10
20.942322
 20
27.638491
 30
0.0
 10
20.912284
 20
27.638491
 30
0.0
 10
20.751007
 20
27.811451
 30
0.0
 10
20.584032
 20
28.022688
 30
0.0
  0
SPLINE
  5
127
100
AcDbEntity
  8
0
 62
1
100
AcDbSpline
 70
8
 71
3
 72
8
 73
4
 74
0
 40
0
 40
0
 40
0
 40
0
 40
1
 40
1
 40
1
 40
1
 10
20.584032
 20
28.022688
 30
0.0
 10
18.695788
 20
30.411499
 30
0.0
 10
15.650976
 20
31.607006
 30
0.0
 10
12.681810
 20
31.125479
 30
0.0
  0
SPLINE
  5
128
100
AcDbEntity
  8
0
 62
1
100
AcDbSpline
 70
8
 71
3
 72
8
 73
4
 74
0
 40
0
 40
0
 40
0
 40
0
 40
1
 40
1
 40
1
 40
1
 10
12.681810
 20
31.125479
 30
0.0
 10
9.551876
 20
30.617880
 30
0.0
 10
6.934178
 20
28.336141
 30
0.0
 10
5.975725
 20
25.280942
 30
0.0
  0
SPLINE
  5
129
100
AcDbEntity
  8
0
 62
1
100
AcDbSpline
 70
8
 71
3
 72
8
 73
4
 74
0
 40
0
 40
0
 40
0
 40
0
 40
1
 40
1
 40
1
 40
1
 10
5.975725
 20
25.280942
 30
0.0
 10
5.685063
 20
24.354417
 30
0.0
 10
5.133918
 20
20.762841
 30
0.0
 10
4.301133
 20
14.363573
 30
0.0
  0
SPLINE
  5
12a
100
AcDbEntity
  8
0
 62
1
100
AcDbSpline
 70
8
 71
3
 72
8
 73
4
 74
0
 40
0
 40
0
 40
0
 40
0
 40
1
 40
1
 40
1
 40
1
 10
4.301133
 20
14.363573
 30
0.0
 10
3.331820
 20
6.915209
 30
0.0
 10
3.388317
 20
7.435641
 30
0.0
 10
3.485885
 20
6.853264
 30
0.0
  0
SPLINE
  5
12b
100
AcDbEntity
  8
0
 62
1
100
AcDbSpline
 70
8
 71
3
 72
8
 73
4
 74
0
 40
0
 40
0
 40
0
 40
0
 40
1
 40
1
 40
1
 40
1
 10
3.485885
 20
6.853264
 30
0.0
 10
3.719043
 20
5.461570
 30
0.0
 10
4.789822
 20
4.328592
 30
0.0
 10
6.148255
 20
4.036004
 30
0.0
  0
SPLINE
  5
12c
100
AcDbEntity
  8
0
 62
1
100
AcDbSpline
 70
8
 71
3
 72
8
 73
4
 74
0
 40
0
 40
0
 40
0
 40
0
 40
1
 40
1
 40
1
 40
1
 10
6.148255
 20
4.036004
 30
0.0
 10
6.693169
 20
3.918641
 30
0.0
 10
6.937154
 20
3.914778
 30
0.0
 10
7.476684
 20
4.014498
 30
0.0
  0
SPLINE
  5
12d
100
AcDbEntity
  8
0
 62
1
100
AcDbSpline
 70
8
 71
3
 72
8
 73
4
 74
0
 40
0
 40
0
 40
0
 40
0
 40
1
 40
1
 40
1
 40
1
 10
7.476684
 20
4.014498
 30
0.0
 10
8.064182
 20
4.123103
 30
0.0
 10
8.614894
 20
4.377097
 30
0.0
 10
9.045443
 20
4.737693
 30
0.0
  0
SPLINE
  5
12e
100
AcDbEntity
  8
0
 62
1
100
AcDbSpline
 70
8
 71
3
 72
8
 73
4
 74
0
 40
0
 40
0
 40
0
 40
0
 40
1
 40
1
 40
1
 40
1
 10
9.045443
 20
4.737693
 30
0.0
 10
9.239250
 20
4.900010
 30
0.0
 10
10.522136
 20
6.261868
 30
0.0
 10
11.896328
 20
7.763866
 30
0.0
  0
SPLINE
  5
12f
100
AcDbEntity
  8
0
 62
1
100
AcDbSpline
 70
8
 71
3
 72
8
 73
4
 74
0
 40
0
 40
0
 40
0
 40
0
 40
1
 40
1
 40
1
 40
1
 10
11.896328
 20
7.763866
 30
0.0
 10
14.374404
 20
10.472412
 30
0.0
 10
14.835474
 20
10.930345
 30
0.0
 10
15.784601
 20
11.626782
 30
0.0
  0
SPLINE
  5
130
100
AcDbEntity
  8
0
 62
1
100
AcDbSpline
 70
8
 71
3
 72
8
 73
4
 74
0
 40
0
 40
0
 40
0
 40
0
 40
1
 40
1
 40
1
 40
1
 10
15.784601
 20
11.626782
 30
0.0
 10
18.326252
 20
13.491758
 30
0.0
 10
22.745259
 20
13.717183
 30
0.0
 10
25.386771
 20
12.116260
 30
0.0
  0
SPLINE
  5
131
100
AcDbEntity
  8
0
 62
1
100
AcDbSpline
 70
8
 71
3
 72
8
 73
4
 74
0
 40
0
 40
0
 40
0
 40
0
 40
1
 40
1
 40
1
 40
1
 10
25.386771
 20
12.116260
 30
0.0
 10
26.623727
 20
11.366585
 30
0.0
 10
27.410884
 20
10.613080
 30
0.0
 10
30.452991
 20
7.270527
 30
0.0
  0
SPLINE
  5
132
100
AcDbEntity
  8
0
 62
1
100
AcDbSpline
 70
8
 71
3
 72
8
 73
4
 74
0
 40
0
 40
0
 40
0
 40
0
 40
1
 40
1
 40
1
 40
1
 10
30.452991
 20
7.270527
 30
0.0
 10
32.743436
 20
4.753870
 30
0.0
 10
33.161630
 20
4.377879
 30
0.0
 10
33.953758
 20
4.121985
 30
0.0
  0
SPLINE
  5
133
100
AcDbEntity
  8
0
 62
1
100
AcDbSpline
 70
8
 71
3
 72
8
 73
4
 74
0
 40
0
 40
0
 40
0
 40
0
 40
1
 40
1
 40
1
 40
1
 10
33.953758
 20
4.121985
 30
0.0
 10
34.837675
 20
3.836439
 30
0.0
 10
36.008107
 20
3.972134
 30
0.0
 10
36.798580
 20
4.452163
 30
0.0
  0
SPLINE
  5
134
100
AcDbEntity
  8
0
 62
1
100
AcDbSpline
 70
8
 71
3
 72
8
 73
4
 74
0
 40
0
 40
0
 40
0
 40
0
 40
1
 40
1
 40
1
 40
1
 10
36.798580
 20
4.452163
 30
0.0
 10
37.264538
 20
4.735122
 30
0.0
 10
37.860867
 20
5.391167
 30
0.0
 10
38.091181
 20
5.873747
 30
0.0
  0
SPLINE
  5
135
100
AcDbEntity
  8
0
 62
1
100
AcDbSpline
 70
8
 71
3
 72
8
 73
4
 74
0
 40
0
 40
0
 40
0
 40
0
 40
1
 40
1
 40
1
 40
1
 10
38.091181
 20
5.873747
 30
0.0
 10
38.492024
 20
6.713638
 30
0.0
 10
38.521211
 20
7.162924
 30
0.0
 10
38.289619
 20
8.940157
 30
0.0
  0
SPLINE
  5
136
100
AcDbEntity
  8
0
 62
1
100
AcDbSpline
 70
8
 71
3
 72
8
 73
4
 74
0
 40
0
 40
0
 40
0
 40
0
 40
1
 40
1
 40
1
 40
1
 10
38.289619
 20
8.940157
 30
0.0
 10
38.178198
 20
9.795135
 30
0.0
 10
37.864785
 20
12.201390
 30
0.0
 10
37.593434
 20
14.287497
 30
0.0
  0
SPLINE
  5
137
100
AcDbEntity
  8
0
 62
1
100
AcDbSpline
 70
8
 71
3
 72
8
 73
4
 74
0
 40
0
 40
0
 40
0
 40
0
 40
1
 40
1
 40
1
 40
1
 10
37.593434
 20
14.287497
 30
0.0
 10
36.731911
 20
20.910807
 30
0.0
 10
36.206413
 20
24.348378
 30
0.0
 10
35.911674
 20
25.282587
 30
0.0
  0
SPLINE
  5
138
100
AcDbEntity
  8
0
 62
1
100
AcDbSpline
 70
8
 71
3
 72
8
 73
4
 74
0
 40
0
 40
0
 40
0
 40
0
 40
1
 40
1
 40
1
 40
1
 10
35.911674
 20
25.282587
 30
0.0
 10
34.773610
 20
28.889810
 30
0.0
 10
31.432983
 20
31.242460
 30
0.0
 10
27.844088
 20
31.235162
 30
0.0
  0
LWPOLYLINE
  5
139
100
AcDbEntity
  8
0
 62
1
100
AcDbPolyline
 90
26
 70
1
 10
13.131050
 20
26.766469
 30
0.0
 10
13.131050
 20
25.173457
 30
0.0
 10
13.131050
 20
23.580443
 30
0.0
 10
11.538038
 20
23.580443
 30
0.0
 10
9.945026
 20
23.580443
 30
0.0
 10
9.945026
 20
22.669836
 30
0.0
 10
9.945026
 20
21.759779
 30
0.0
 10
11.538038
 20
21.759779
 30
0.0
 10
13.131050
 20
21.759779
 30
0.0
 10
13.131050
 20
20.204249
 30
0.0
 10
13.131050
 20
18.649273
 30
0.0
 10
14.003073
 20
18.649273
 30
0.0
 10
14.875647
 20
18.649273
 30
0.0
 10
14.875647
 20
20.204249
 30
0.0
 10
14.875647
 20
21.759779
 30
0.0
 10
16.468659
 20
21.759779
 30
0.0
 10
18.061671
 20
21.759779
 30
0.0
 10
18.061671
 20
22.669836
 30
0.0
 10
18.061671
 20
23.580443
 30
0.0
 10
16.468659
 20
23.580443
 30
0.0
 10
14.875647
 20
23.580443
 30
0.0
 10
14.875647
 20
25.173457
 30
0.0
 10
14.875647
 20
26.766469
 30
0.0
 10
14.003073
 20
26.766469
 30
0.0
 10
13.131050
 20
26.766469
 30
0.0
 10
13.131050
 20
26.766469
 30
0.0
  0
LWPOLYLINE
  5
13a
100
AcDbEntity
  8
0
 62
1
100
AcDbPolyline
 90
2
 70
1
 10
27.844088
 20
31.235162
 30
0.0
 10
27.844088
 20
31.235170
 30
0.0
  0
ENDSEC
  0
SECTION
  2
OBJECTS
  0
DICTIONARY
  5
C
330
0
100
AcDbDictionary
  3
ACAD_GROUP
350
D
  3
ACAD_MLINESTYLE
350
17
  0
DICTIONARY
  5
D
330
C
100
AcDbDictionary
  0
DICTIONARY
  5
1A
330
C
100
AcDbDictionary
  0
DICTIONARY
  5
17
330
C
100
AcDbDictionary
  3
STANDARD
350
18
  0
DICTIONARY
  5
19
330
C
100
AcDbDictionary
  0
ENDSEC
  0
EOF
