<?xml version="1.0" encoding="UTF-8" standalone="no"?>
<!-- Created with Inkscape (http://www.inkscape.org/) -->

<svg
   xmlns:dc="http://purl.org/dc/elements/1.1/"
   xmlns:cc="http://creativecommons.org/ns#"
   xmlns:rdf="http://www.w3.org/1999/02/22-rdf-syntax-ns#"
   xmlns:svg="http://www.w3.org/2000/svg"
   xmlns="http://www.w3.org/2000/svg"
   xmlns:sodipodi="http://sodipodi.sourceforge.net/DTD/sodipodi-0.dtd"
   xmlns:inkscape="http://www.inkscape.org/namespaces/inkscape"
   id="svg10080"
   version="1.1"
   inkscape:version="0.91 r13725"
   width="372.5"
   height="426.25"
   viewBox="0 0 372.5 426.25"
   sodipodi:docname="poppinsilhouette.svg">
  <metadata
     id="metadata10086">
    <rdf:RDF>
      <cc:Work
         rdf:about="">
        <dc:format>image/svg+xml</dc:format>
        <dc:type
           rdf:resource="http://purl.org/dc/dcmitype/StillImage" />
        <dc:title></dc:title>
      </cc:Work>
    </rdf:RDF>
  </metadata>
  <defs
     id="defs10084" />
  <sodipodi:namedview
     pagecolor="#ffffff"
     bordercolor="#666666"
     borderopacity="1"
     objecttolerance="10"
     gridtolerance="10"
     guidetolerance="10"
     inkscape:pageopacity="0"
     inkscape:pageshadow="2"
     inkscape:window-width="1366"
     inkscape:window-height="716"
     id="namedview10082"
     showgrid="false"
     inkscape:document-units="mm"
     inkscape:zoom="1.5660031"
     inkscape:cx="217.3135"
     inkscape:cy="83.407459"
     inkscape:window-x="-8"
     inkscape:window-y="-8"
     inkscape:window-maximized="1"
     inkscape:current-layer="svg10080" />
  <path
     id="path10632"
     style="fill:none;stroke:#ff0000;stroke-width:0.4707098;stroke-miterlimit:4;stroke-dasharray:none"
     d="m 97.8525,214.59567 a 3.3079522,3.3079522 0 0 1 -3.307952,3.30795 3.3079522,3.3079522 0 0 1 -3.307952,-3.30795 3.3079522,3.3079522 0 0 1 3.307952,-3.30795 3.3079522,3.3079522 0 0 1 3.307952,3.30795 z m 26.49516,-25.16598 c -0.30118,-0.11396 -0.4836,1.10586 -0.4043,2.71093 0.0793,1.60507 -0.0862,3.02368 -0.36719,3.1504 -0.28102,0.12673 -2.69221,0.54825 -5.35937,0.9375 -18.12778,2.64567 -34.664941,16.08434 -40.888675,33.22851 -1.051063,2.89529 -2.02742,6.3931 -2.167969,7.77149 l -0.253906,2.50586 1.394531,-3.04493 c 1.700613,-3.71155 4.614763,-7.12734 7.027344,-8.23633 4.929161,-2.26581 11.333423,0.1997 14.763672,5.68555 l 1.673828,2.67774 0.898435,-2.14844 c 4.06489,-9.73259 14.89424,-11.55972 20.96485,-3.4707 2.07106,2.75963 1.28666,3.0301 1.22656,8.17578 -0.0341,2.92694 -0.0357,9.60212 -0.004,14.83398 0.0319,5.23184 0.0761,10.87825 -0.41015,12.54688 -0.4863,1.66861 0.19329,3.73026 0.4414,4.58203 0.5325,1.82802 -1.58414,3.59962 -2.82812,2.36718 -0.42621,-0.42228 -0.94745,-0.51157 -1.15821,-0.19921 -0.52504,0.77812 0.78099,3.52942 1.51758,3.19726 1.14682,-0.51712 1.44074,1.6824 1.09571,8.17383 -0.31296,5.8879 -0.57268,6.83219 -2.56446,9.30469 -2.38983,2.96661 -7.18475,5.62761 -8.9414,4.96289 -0.74473,-0.28183 -1.24889,0.0336 -2.04102,1.27734 -1.38804,2.17934 -1.7483,2.29154 -4.70312,1.45508 -2.02801,-0.5741 -2.49277,-0.97476 -2.41797,-2.07812 0.0536,-0.78978 0.85533,-1.8057 1.90039,-2.40626 1.77538,-1.02024 1.78313,-1.09598 0.4414,-4.17187 -0.75166,-1.72315 -1.56219,-3.04508 -1.80078,-2.9375 -0.23858,0.10759 -1.479959,-0.68035 -2.759763,-1.75195 l -2.326172,-1.94922 1.011719,-2.9082 1.011718,-2.91016 -1.408203,1.08398 c -0.774911,0.59595 -1.761438,1.43906 -2.191406,1.87305 -0.429955,0.43397 -0.915186,0.49217 -1.078125,0.13086 -0.162939,-0.36131 -0.607931,-0.51421 -0.990234,-0.3418 -0.382309,0.1724 -1.406968,0.0834 -2.277344,-0.19726 -1.500694,-0.48389 -1.689412,-0.37346 -3.636719,2.13867 -1.129405,1.45703 -2.82606,4.40601 -3.771484,6.55273 -1.681434,3.81794 -1.68561,3.92913 -0.119141,5.16993 1.49403,1.18342 1.545652,1.40571 0.761719,3.29687 -1.091387,2.63284 -0.846413,3.0288 1.099609,1.7832 1.208973,-0.7739 2.220208,-0.78652 4.222657,-0.0547 1.448445,0.52939 3.260112,0.88822 4.02539,0.79882 1.964624,-0.22954 2.521951,1.55898 1.458985,4.68555 -0.789878,2.32333 -1.255825,2.80509 -3.501954,3.61914 -2.568016,0.93072 -2.587249,0.96253 -2.195312,3.78711 0.448822,3.23441 -1.084431,10.49699 -3.273438,15.5 -2.130705,4.86977 -6.252221,11.01514 -8.380859,12.5 -1.010022,0.70454 -1.73748,1.50082 -1.617187,1.76758 0.535733,1.18801 -0.982991,3.27074 -3.072266,4.21289 -1.468507,0.66222 -2.247724,1.39027 -2.208984,2.06641 0.03291,0.57433 -0.423247,1.26303 -1.013672,1.52929 -0.590431,0.26625 -1.481083,1.17129 -1.980469,2.01172 -0.820159,1.38027 -1.126237,1.52091 -3.158203,1.44141 -1.591098,-0.0623 -2.490727,0.22457 -3.072266,0.98047 -0.452202,0.58779 -2.412349,1.78498 -4.357422,2.66211 -4.51035,2.03393 -15.907142,11.01048 -16.296875,12.83593 -0.352415,1.65066 0.222291,2.89652 5.910157,12.82227 3.057931,5.33633 4.845866,7.92137 5.550781,8.02148 0.571925,0.0812 4.247573,-1.2923 8.167969,-3.05078 3.920398,-1.75846 8.595648,-3.65801 10.388672,-4.2207 l 3.259765,-1.02149 3.771485,-10.36718 c 2.073917,-5.7015 4.094267,-10.51286 4.490234,-10.69141 1.109415,-0.50029 0.168921,-1.92783 -2.900391,-4.40039 -2.424162,-1.95285 -2.799368,-2.51125 -2.792969,-4.16406 0.01198,-3.08477 1.594938,-7.06931 2.650391,-6.66992 0.6372,0.24113 1.695536,-0.53257 3.542969,-2.59375 3.476617,-3.87885 5.349923,-7.06392 9.146484,-15.53907 3.586564,-8.00638 5.37868,-11.32232 6.066406,-11.23242 0.261459,0.0342 2.630888,2.12493 5.267578,4.64649 4.77456,4.56612 4.79444,4.59579 4.74414,7.18554 -0.0309,1.58887 -1.08189,4.44557 -2.70117,7.34571 -2.94609,5.27652 -5.137841,11.22148 -6.853516,18.58593 -0.627528,2.69361 -1.654291,5.96951 -2.283203,7.2793 -1.390725,2.8964 -4.065983,4.30018 -5.88086,3.08789 -1.738519,-1.16129 -2.516602,-0.6651 -3.966797,2.52539 -2.035358,4.47785 -0.249723,12.89884 3.535157,16.67188 1.042297,1.03905 1.243233,1.62759 0.882812,2.58007 -0.405528,1.07166 -0.236406,1.40026 1.273438,2.49219 1.617923,1.17012 1.700606,1.35891 1.1875,2.71485 -0.49189,1.2999 -0.380241,1.59379 1.044921,2.72265 2.685507,2.1272 4.642286,2.1233 9.398438,-0.0215 5.19802,-2.34402 5.8346,-1.80124 3.51172,2.99414 -0.86451,1.78471 -2.37851,4.90868 -3.36328,6.9414 -0.98478,2.03274 -2.59377,4.69949 -3.576174,5.92579 -0.982401,1.22632 -1.667635,2.49076 -1.523438,2.81054 0.472987,1.04887 6.927612,-2.30099 7.658202,-3.97461 0.57453,-1.31615 0.79664,-1.44069 1.65625,-0.92578 0.82727,0.49553 0.98637,0.43486 0.95117,-0.36719 -0.0437,-0.99619 0.55187,-2.66035 1.9375,-5.4082 0.44158,-0.87565 0.4816,-1.91072 0.0879,-2.30078 -0.72655,-0.71983 1.36625,-6.73592 2.51758,-7.23633 0.3284,-0.14277 1.86964,0.11273 3.42578,0.56641 l 2.83008,0.82422 -0.73047,2.12695 c -0.40145,1.16996 -1.16632,2.32521 -1.70117,2.56641 -0.53484,0.24118 -1.37843,1.586 -1.875,2.98828 -0.49658,1.40228 -1.25505,2.70714 -1.68359,2.90039 -0.89151,0.40203 -0.61586,1.42324 0.41992,1.55859 0.38173,0.0499 0.65683,-0.2734 0.61133,-0.71875 -0.0464,-0.45342 0.43496,-0.83915 1.09375,-0.87695 1.31692,-0.0755 2.7651,2.47109 2.02734,3.56445 -0.69293,1.02694 1.32564,3.5162 4.52149,5.57422 l 2.79101,1.79688 -1.53906,-4.30469 c -1.00145,-2.79852 -1.51013,-5.69209 -1.45313,-8.27149 0.11114,-5.02603 1.59998,-9.57446 3.16407,-9.66406 0.72981,-0.0418 1.29086,-0.69454 1.53906,-1.79101 0.37572,-1.65988 0.55544,-1.7653 4.85937,-2.84961 2.71818,-0.68478 7.31647,-2.53314 11.73242,-4.7168 7.76268,-3.83859 10.81078,-6.53302 11.82813,-10.45117 0.79148,-3.04823 -0.29223,-4.20642 -4.10352,-4.38477 -3.11319,-0.14568 -3.58782,-0.38241 -4.66796,-2.33203 -0.66126,-1.19358 -1.6945,-4.37685 -2.29688,-7.07422 -1.7763,-7.95415 -3.43308,-10.92004 -10.67773,-19.10742 -10.89691,-12.31489 -13.6856,-17.50156 -13.5918,-25.28711 0.0322,-2.66847 -0.41681,-4.87936 -1.4668,-7.21875 -1.72424,-3.84124 -1.5031,-5.0803 1.36914,-7.6543 1.05157,-0.94238 3.17751,-3.39613 4.72266,-5.45312 2.43678,-3.24394 2.8047,-4.22958 2.7832,-7.42578 -0.0137,-2.02671 0.20533,-6.1698 0.48633,-9.20703 0.35369,-3.82296 0.23519,-5.62674 -0.38477,-5.86133 -1.65282,-0.62545 -1.8317,-2.33415 -0.38867,-3.70313 1.68921,-1.60252 1.87752,-5.57617 0.29297,-6.17578 -0.54197,-0.20508 -1.14091,-0.7207 -1.33203,-1.14453 -0.19111,-0.4238 0.20136,-7.38698 0.16016,-15.47461 -0.072,-14.13698 -0.002,-14.81595 1.83007,-17.59961 2.19602,-3.33741 4.01255,-5.19245 7.11329,-5.94531 5.23929,-1.27214 11.264,1.83781 13.60156,7.02148 1.17407,2.60355 1.18527,2.61067 2.08203,1.05469 2.04951,-3.55607 5.2945,-7.11753 7.31641,-8.0293 4.80675,-2.16759 10.62897,-0.18089 13.67968,4.66993 1.32743,2.11063 1.48209,2.20102 1.26758,0.73047 -0.4639,-3.18028 -5.12052,-12.85865 -7.88867,-16.39454 -8.47973,-10.83154 -21.66397,-17.93885 -34.74609,-18.73242 -2.44897,-0.14855 -4.55903,-0.29547 -4.6875,-0.32617 -0.12849,-0.0307 -0.29028,-1.36933 -0.35938,-2.97461 -0.0691,-1.60529 -0.37069,-3.01297 -0.67187,-3.12695 z" />
</svg>
