  0
SECTION
  2
HEADER
  9
$ACADVER
  1
AC1009
  9
$EXTMIN
 10
0.0
 20
0.0
 30
0.0
  9
$EXTMAX
 10
1000.0
 20
1000.0
 30
0.0
  9
$FILLMODE
 70
 0
  9
$SPLFRAME
 70
 1
  0
ENDSEC
  0
SECTION
  2
TABLES
  0
TABLE
  2
LAYER
 70
1
  0
LAYER
  2
0
 70
     0
 62
     7
  6
CONTINUOUS
  0
ENDTAB
  0
ENDSEC
  0
SECTION
  2
ENTITIES
  0
POLYLINE
  8
0
 62
     0
 66
     1
 10
0
 20
0
 30
0.0
 70
     1
 40
0
 41
0
  0
VERTEX
  8
0
 10
3.06435
 20
4.58333
 30
0.0
 40
0
 41
0
  0
VERTEX
  8
0
 10
3.09864
 20
4.29167
 30
0.0
 40
0
 41
0
  0
VERTEX
  8
0
 10
3.19467
 20
4.29167
 30
0.0
 40
0
 41
0
  0
VERTEX
  8
0
 10
3.16331
 20
4.58333
 30
0.0
 40
0
 41
0
  0
VERTEX
  8
0
 10
3.06435
 20
4.58333
 30
0.0
 40
0
 41
0
  0
SEQEND
 8
0
  0
POLYLINE
  8
0
 62
     0
 66
     1
 10
0
 20
0
 30
0.0
 70
     1
 40
1
 41
1
  0
VERTEX
  8
0
 10
3.06435
 20
4.58333
 30
0.0
 40
0.0138889
 41
0.0138889
  0
VERTEX
  8
0
 10
3.09864
 20
4.29167
 30
0.0
 40
0.0138889
 41
0.0138889
  0
VERTEX
  8
0
 10
3.19467
 20
4.29167
 30
0.0
 40
0.0138889
 41
0.0138889
  0
VERTEX
  8
0
 10
3.16331
 20
4.58333
 30
0.0
 40
0.0138889
 41
0.0138889
  0
VERTEX
  8
0
 10
3.06435
 20
4.58333
 30
0.0
 40
0.0138889
 41
0.0138889
  0
SEQEND
 8
0
  0
POLYLINE
  8
0
 62
     0
 66
     1
 10
0
 20
0
 30
0.0
 70
     1
 40
0
 41
0
  0
VERTEX
  8
0
 10
3.56358
 20
5.27778
 30
0.0
 40
0
 41
0
  0
VERTEX
  8
0
 10
3.5771
 20
5.06944
 30
0.0
 40
0
 41
0
  0
VERTEX
  8
0
 10
3.65349
 20
5.06944
 30
0.0
 40
0
 41
0
  0
VERTEX
  8
0
 10
3.6416
 20
5.27778
 30
0.0
 40
0
 41
0
  0
VERTEX
  8
0
 10
3.56358
 20
5.27778
 30
0.0
 40
0
 41
0
  0
SEQEND
 8
0
  0
POLYLINE
  8
0
 62
     0
 66
     1
 10
0
 20
0
 30
0.0
 70
     1
 40
1
 41
1
  0
VERTEX
  8
0
 10
3.56358
 20
5.27778
 30
0.0
 40
0.0138889
 41
0.0138889
  0
VERTEX
  8
0
 10
3.5771
 20
5.06944
 30
0.0
 40
0.0138889
 41
0.0138889
  0
VERTEX
  8
0
 10
3.65349
 20
5.06944
 30
0.0
 40
0.0138889
 41
0.0138889
  0
VERTEX
  8
0
 10
3.6416
 20
5.27778
 30
0.0
 40
0.0138889
 41
0.0138889
  0
VERTEX
  8
0
 10
3.56358
 20
5.27778
 30
0.0
 40
0.0138889
 41
0.0138889
  0
SEQEND
 8
0
  0
POLYLINE
  8
0
 62
     0
 66
     1
 10
0
 20
0
 30
0.0
 70
     1
 40
0
 41
0
  0
VERTEX
  8
0
 10
3.01753
 20
5.27778
 30
0.0
 40
0
 41
0
  0
VERTEX
  8
0
 10
2.93956
 20
5.27778
 30
0.0
 40
0
 41
0
  0
VERTEX
  8
0
 10
2.9656
 20
5.06944
 30
0.0
 40
0
 41
0
  0
VERTEX
  8
0
 10
3.04204
 20
5.06944
 30
0.0
 40
0
 41
0
  0
VERTEX
  8
0
 10
3.01753
 20
5.27778
 30
0.0
 40
0
 41
0
  0
SEQEND
 8
0
  0
POLYLINE
  8
0
 62
     0
 66
     1
 10
0
 20
0
 30
0.0
 70
     1
 40
1
 41
1
  0
VERTEX
  8
0
 10
3.01753
 20
5.27778
 30
0.0
 40
0.0138889
 41
0.0138889
  0
VERTEX
  8
0
 10
2.93956
 20
5.27778
 30
0.0
 40
0.0138889
 41
0.0138889
  0
VERTEX
  8
0
 10
2.9656
 20
5.06944
 30
0.0
 40
0.0138889
 41
0.0138889
  0
VERTEX
  8
0
 10
3.04204
 20
5.06944
 30
0.0
 40
0.0138889
 41
0.0138889
  0
VERTEX
  8
0
 10
3.01753
 20
5.27778
 30
0.0
 40
0.0138889
 41
0.0138889
  0
SEQEND
 8
0
  0
POLYLINE
  8
0
 62
     0
 66
     1
 10
0
 20
0
 30
0.0
 70
     1
 40
0
 41
0
  0
VERTEX
  8
0
 10
3.37142
 20
4.79167
 30
0.0
 40
0
 41
0
  0
VERTEX
  8
0
 10
3.32954
 20
5.27778
 30
0.0
 40
0
 41
0
  0
VERTEX
  8
0
 10
3.25157
 20
5.27778
 30
0.0
 40
0
 41
0
  0
VERTEX
  8
0
 10
3.29704
 20
4.79167
 30
0.0
 40
0
 41
0
  0
VERTEX
  8
0
 10
3.37142
 20
4.79167
 30
0.0
 40
0
 41
0
  0
SEQEND
 8
0
  0
POLYLINE
  8
0
 62
     0
 66
     1
 10
0
 20
0
 30
0.0
 70
     1
 40
1
 41
1
  0
VERTEX
  8
0
 10
3.37142
 20
4.79167
 30
0.0
 40
0.0138889
 41
0.0138889
  0
VERTEX
  8
0
 10
3.32954
 20
5.27778
 30
0.0
 40
0.0138889
 41
0.0138889
  0
VERTEX
  8
0
 10
3.25157
 20
5.27778
 30
0.0
 40
0.0138889
 41
0.0138889
  0
VERTEX
  8
0
 10
3.29704
 20
4.79167
 30
0.0
 40
0.0138889
 41
0.0138889
  0
VERTEX
  8
0
 10
3.37142
 20
4.79167
 30
0.0
 40
0.0138889
 41
0.0138889
  0
SEQEND
 8
0
  0
POLYLINE
  8
0
 62
     0
 66
     1
 10
0
 20
0
 30
0.0
 70
     1
 40
0
 41
0
  0
VERTEX
  8
0
 10
3.96658
 20
4.79167
 30
0.0
 40
0
 41
0
  0
VERTEX
  8
0
 10
3.95361
 20
5.27778
 30
0.0
 40
0
 41
0
  0
VERTEX
  8
0
 10
3.8756
 20
5.27778
 30
0.0
 40
0
 41
0
  0
VERTEX
  8
0
 10
3.89219
 20
4.79167
 30
0.0
 40
0
 41
0
  0
VERTEX
  8
0
 10
3.96658
 20
4.79167
 30
0.0
 40
0
 41
0
  0
SEQEND
 8
0
  0
POLYLINE
  8
0
 62
     0
 66
     1
 10
0
 20
0
 30
0.0
 70
     1
 40
1
 41
1
  0
VERTEX
  8
0
 10
3.96658
 20
4.79167
 30
0.0
 40
0.0138889
 41
0.0138889
  0
VERTEX
  8
0
 10
3.95361
 20
5.27778
 30
0.0
 40
0.0138889
 41
0.0138889
  0
VERTEX
  8
0
 10
3.8756
 20
5.27778
 30
0.0
 40
0.0138889
 41
0.0138889
  0
VERTEX
  8
0
 10
3.89219
 20
4.79167
 30
0.0
 40
0.0138889
 41
0.0138889
  0
VERTEX
  8
0
 10
3.96658
 20
4.79167
 30
0.0
 40
0.0138889
 41
0.0138889
  0
SEQEND
 8
0
  0
POLYLINE
  8
0
 62
     0
 66
     1
 10
0
 20
0
 30
0.0
 70
     1
 40
0
 41
0
  0
VERTEX
  8
0
 10
5.35092
 20
4.58263
 30
0.0
 40
0
 41
0
  0
VERTEX
  8
0
 10
5.32075
 20
4.31717
 30
0.0
 40
0
 41
0
  0
VERTEX
  8
0
 10
5.31446
 20
4.29156
 30
0.0
 40
0
 41
0
  0
VERTEX
  8
0
 10
5.30311
 20
4.27306
 30
0.0
 40
0
 41
0
  0
VERTEX
  8
0
 10
5.28808
 20
4.25993
 30
0.0
 40
0
 41
0
  0
VERTEX
  8
0
 10
5.27051
 20
4.25006
 30
0.0
 40
0
 41
0
  0
VERTEX
  8
0
 10
5.28603
 20
4.24169
 30
0.0
 40
0
 41
0
  0
VERTEX
  8
0
 10
5.29801
 20
4.22743
 30
0.0
 40
0
 41
0
  0
VERTEX
  8
0
 10
5.30469
 20
4.20497
 30
0.0
 40
0
 41
0
  0
VERTEX
  8
0
 10
5.30436
 20
4.17215
 30
0.0
 40
0
 41
0
  0
VERTEX
  8
0
 10
5.27257
 20
3.89199
 30
0.0
 40
0
 41
0
  0
VERTEX
  8
0
 10
5.27544
 20
3.86117
 30
0.0
 40
0
 41
0
  0
VERTEX
  8
0
 10
5.28776
 20
3.82796
 30
0.0
 40
0
 41
0
  0
VERTEX
  8
0
 10
5.1939
 20
3.82796
 30
0.0
 40
0
 41
0
  0
VERTEX
  8
0
 10
5.18338
 20
3.85915
 30
0.0
 40
0
 41
0
  0
VERTEX
  8
0
 10
5.18056
 20
3.8929
 30
0.0
 40
0
 41
0
  0
VERTEX
  8
0
 10
5.21306
 20
4.20899
 30
0.0
 40
0
 41
0
  0
VERTEX
  8
0
 10
5.11789
 20
4.20899
 30
0.0
 40
0
 41
0
  0
VERTEX
  8
0
 10
5.08274
 20
3.82796
 30
0.0
 40
0
 41
0
  0
VERTEX
  8
0
 10
4.99132
 20
3.82796
 30
0.0
 40
0
 41
0
  0
VERTEX
  8
0
 10
5.06131
 20
4.66971
 30
0.0
 40
0
 41
0
  0
VERTEX
  8
0
 10
5.26096
 20
4.66971
 30
0.0
 40
0
 41
0
  0
VERTEX
  8
0
 10
5.2991
 20
4.66287
 30
0.0
 40
0
 41
0
  0
VERTEX
  8
0
 10
5.32872
 20
4.64421
 30
0.0
 40
0
 41
0
  0
VERTEX
  8
0
 10
5.3469
 20
4.61654
 30
0.0
 40
0
 41
0
  0
VERTEX
  8
0
 10
5.35092
 20
4.58263
 30
0.0
 40
0
 41
0
  0
SEQEND
 8
0
  0
POLYLINE
  8
0
 62
     0
 66
     1
 10
0
 20
0
 30
0.0
 70
     1
 40
0
 41
0
  0
VERTEX
  8
0
 10
5.18528
 20
3.588
 30
0.0
 40
0
 41
0
  0
VERTEX
  8
0
 10
5.17171
 20
3.55778
 30
0.0
 40
0
 41
0
  0
VERTEX
  8
0
 10
5.14219
 20
3.53646
 30
0.0
 40
0
 41
0
  0
VERTEX
  8
0
 10
5.12576
 20
3.37608
 30
0.0
 40
0
 41
0
  0
VERTEX
  8
0
 10
5.08897
 20
3.37608
 30
0.0
 40
0
 41
0
  0
VERTEX
  8
0
 10
5.10471
 20
3.53597
 30
0.0
 40
0
 41
0
  0
VERTEX
  8
0
 10
5.07932
 20
3.55767
 30
0.0
 40
0
 41
0
  0
VERTEX
  8
0
 10
5.07221
 20
3.58843
 30
0.0
 40
0
 41
0
  0
VERTEX
  8
0
 10
5.08594
 20
3.73047
 30
0.0
 40
0
 41
0
  0
VERTEX
  8
0
 10
5.12424
 20
3.73047
 30
0.0
 40
0
 41
0
  0
VERTEX
  8
0
 10
5.10835
 20
3.57096
 30
0.0
 40
0
 41
0
  0
VERTEX
  8
0
 10
5.146
 20
3.57096
 30
0.0
 40
0
 41
0
  0
VERTEX
  8
0
 10
5.16254
 20
3.73047
 30
0.0
 40
0
 41
0
  0
VERTEX
  8
0
 10
5.20079
 20
3.73047
 30
0.0
 40
0
 41
0
  0
VERTEX
  8
0
 10
5.18528
 20
3.588
 30
0.0
 40
0
 41
0
  0
SEQEND
 8
0
  0
POLYLINE
  8
0
 62
     0
 66
     1
 10
0
 20
0
 30
0.0
 70
     1
 40
0
 41
0
  0
VERTEX
  8
0
 10
4.95242
 20
4.58111
 30
0.0
 40
0
 41
0
  0
VERTEX
  8
0
 10
4.75456
 20
4.58111
 30
0.0
 40
0
 41
0
  0
VERTEX
  8
0
 10
4.73921
 20
4.29758
 30
0.0
 40
0
 41
0
  0
VERTEX
  8
0
 10
4.88331
 20
4.29758
 30
0.0
 40
0
 41
0
  0
VERTEX
  8
0
 10
4.87733
 20
4.20899
 30
0.0
 40
0
 41
0
  0
VERTEX
  8
0
 10
4.7346
 20
4.20899
 30
0.0
 40
0
 41
0
  0
VERTEX
  8
0
 10
4.71929
 20
3.91656
 30
0.0
 40
0
 41
0
  0
VERTEX
  8
0
 10
4.90381
 20
3.91656
 30
0.0
 40
0
 41
0
  0
VERTEX
  8
0
 10
4.89746
 20
3.82796
 30
0.0
 40
0
 41
0
  0
VERTEX
  8
0
 10
4.71468
 20
3.82796
 30
0.0
 40
0
 41
0
  0
VERTEX
  8
0
 10
4.67931
 20
3.83507
 30
0.0
 40
0
 41
0
  0
VERTEX
  8
0
 10
4.65104
 20
3.85433
 30
0.0
 40
0
 41
0
  0
VERTEX
  8
0
 10
4.63271
 20
3.8826
 30
0.0
 40
0
 41
0
  0
VERTEX
  8
0
 10
4.62701
 20
3.91672
 30
0.0
 40
0
 41
0
  0
VERTEX
  8
0
 10
4.6556
 20
4.58274
 30
0.0
 40
0
 41
0
  0
VERTEX
  8
0
 10
4.66482
 20
4.61664
 30
0.0
 40
0
 41
0
  0
VERTEX
  8
0
 10
4.68739
 20
4.64426
 30
0.0
 40
0
 41
0
  0
VERTEX
  8
0
 10
4.71989
 20
4.66292
 30
0.0
 40
0
 41
0
  0
VERTEX
  8
0
 10
4.75917
 20
4.66971
 30
0.0
 40
0
 41
0
  0
VERTEX
  8
0
 10
4.95882
 20
4.66971
 30
0.0
 40
0
 41
0
  0
VERTEX
  8
0
 10
4.95242
 20
4.58111
 30
0.0
 40
0
 41
0
  0
SEQEND
 8
0
  0
POLYLINE
  8
0
 62
     0
 66
     1
 10
0
 20
0
 30
0.0
 70
     1
 40
0
 41
0
  0
VERTEX
  8
0
 10
4.85249
 20
3.69504
 30
0.0
 40
0
 41
0
  0
VERTEX
  8
0
 10
4.81435
 20
3.69504
 30
0.0
 40
0
 41
0
  0
VERTEX
  8
0
 10
4.79368
 20
3.37608
 30
0.0
 40
0
 41
0
  0
VERTEX
  8
0
 10
4.75689
 20
3.37608
 30
0.0
 40
0
 41
0
  0
VERTEX
  8
0
 10
4.77621
 20
3.69504
 30
0.0
 40
0
 41
0
  0
VERTEX
  8
0
 10
4.73807
 20
3.69504
 30
0.0
 40
0
 41
0
  0
VERTEX
  8
0
 10
4.74013
 20
3.73047
 30
0.0
 40
0
 41
0
  0
VERTEX
  8
0
 10
4.85503
 20
3.73047
 30
0.0
 40
0
 41
0
  0
VERTEX
  8
0
 10
4.85249
 20
3.69504
 30
0.0
 40
0
 41
0
  0
SEQEND
 8
0
  0
POLYLINE
  8
0
 62
     0
 66
     1
 10
0
 20
0
 30
0.0
 70
     1
 40
0
 41
0
  0
VERTEX
  8
0
 10
4.50717
 20
3.82796
 30
0.0
 40
0
 41
0
  0
VERTEX
  8
0
 10
4.42068
 20
3.82796
 30
0.0
 40
0
 41
0
  0
VERTEX
  8
0
 10
4.36903
 20
4.09489
 30
0.0
 40
0
 41
0
  0
VERTEX
  8
0
 10
4.31933
 20
4.36843
 30
0.0
 40
0
 41
0
  0
VERTEX
  8
0
 10
4.31674
 20
4.36843
 30
0.0
 40
0
 41
0
  0
VERTEX
  8
0
 10
4.32031
 20
4.30279
 30
0.0
 40
0
 41
0
  0
VERTEX
  8
0
 10
4.32374
 20
4.2219
 30
0.0
 40
0
 41
0
  0
VERTEX
  8
0
 10
4.32617
 20
4.1404
 30
0.0
 40
0
 41
0
  0
VERTEX
  8
0
 10
4.32682
 20
4.07297
 30
0.0
 40
0
 41
0
  0
VERTEX
  8
0
 10
4.32438
 20
3.82796
 30
0.0
 40
0
 41
0
  0
VERTEX
  8
0
 10
4.23296
 20
3.82796
 30
0.0
 40
0
 41
0
  0
VERTEX
  8
0
 10
4.23307
 20
4.66971
 30
0.0
 40
0
 41
0
  0
VERTEX
  8
0
 10
4.32747
 20
4.66971
 30
0.0
 40
0
 41
0
  0
VERTEX
  8
0
 10
4.38276
 20
4.40614
 30
0.0
 40
0
 41
0
  0
VERTEX
  8
0
 10
4.43207
 20
4.12918
 30
0.0
 40
0
 41
0
  0
VERTEX
  8
0
 10
4.43463
 20
4.12918
 30
0.0
 40
0
 41
0
  0
VERTEX
  8
0
 10
4.43181
 20
4.19488
 30
0.0
 40
0
 41
0
  0
VERTEX
  8
0
 10
4.42925
 20
4.27582
 30
0.0
 40
0
 41
0
  0
VERTEX
  8
0
 10
4.42768
 20
4.35732
 30
0.0
 40
0
 41
0
  0
VERTEX
  8
0
 10
4.42779
 20
4.42469
 30
0.0
 40
0
 41
0
  0
VERTEX
  8
0
 10
4.43267
 20
4.66971
 30
0.0
 40
0
 41
0
  0
VERTEX
  8
0
 10
4.5325
 20
4.66971
 30
0.0
 40
0
 41
0
  0
VERTEX
  8
0
 10
4.50717
 20
3.82796
 30
0.0
 40
0
 41
0
  0
SEQEND
 8
0
  0
POLYLINE
  8
0
 62
     0
 66
     1
 10
0
 20
0
 30
0.0
 70
     1
 40
0
 41
0
  0
VERTEX
  8
0
 10
4.51742
 20
3.69504
 30
0.0
 40
0
 41
0
  0
VERTEX
  8
0
 10
4.44114
 20
3.69504
 30
0.0
 40
0
 41
0
  0
VERTEX
  8
0
 10
4.43826
 20
3.57986
 30
0.0
 40
0
 41
0
  0
VERTEX
  8
0
 10
4.49468
 20
3.57986
 30
0.0
 40
0
 41
0
  0
VERTEX
  8
0
 10
4.4936
 20
3.53554
 30
0.0
 40
0
 41
0
  0
VERTEX
  8
0
 10
4.43739
 20
3.53554
 30
0.0
 40
0
 41
0
  0
VERTEX
  8
0
 10
4.43457
 20
3.42036
 30
0.0
 40
0
 41
0
  0
VERTEX
  8
0
 10
4.50846
 20
3.42036
 30
0.0
 40
0
 41
0
  0
VERTEX
  8
0
 10
4.50726
 20
3.37608
 30
0.0
 40
0
 41
0
  0
VERTEX
  8
0
 10
4.43371
 20
3.37608
 30
0.0
 40
0
 41
0
  0
VERTEX
  8
0
 10
4.40782
 20
3.38726
 30
0.0
 40
0
 41
0
  0
VERTEX
  8
0
 10
4.39757
 20
3.41363
 30
0.0
 40
0
 41
0
  0
VERTEX
  8
0
 10
4.40294
 20
3.69581
 30
0.0
 40
0
 41
0
  0
VERTEX
  8
0
 10
4.41465
 20
3.72081
 30
0.0
 40
0
 41
0
  0
VERTEX
  8
0
 10
4.442
 20
3.73047
 30
0.0
 40
0
 41
0
  0
VERTEX
  8
0
 10
4.51856
 20
3.73047
 30
0.0
 40
0
 41
0
  0
VERTEX
  8
0
 10
4.51742
 20
3.69504
 30
0.0
 40
0
 41
0
  0
SEQEND
 8
0
  0
POLYLINE
  8
0
 62
     0
 66
     1
 10
0
 20
0
 30
0.0
 70
     1
 40
0
 41
0
  0
VERTEX
  8
0
 10
4.1244
 20
3.37608
 30
0.0
 40
0
 41
0
  0
VERTEX
  8
0
 10
4.12001
 20
3.73047
 30
0.0
 40
0
 41
0
  0
VERTEX
  8
0
 10
4.15831
 20
3.73047
 30
0.0
 40
0
 41
0
  0
VERTEX
  8
0
 10
4.16124
 20
3.37608
 30
0.0
 40
0
 41
0
  0
VERTEX
  8
0
 10
4.1244
 20
3.37608
 30
0.0
 40
0
 41
0
  0
SEQEND
 8
0
  0
POLYLINE
  8
0
 62
     0
 66
     1
 10
0
 20
0
 30
0.0
 70
     1
 40
0
 41
0
  0
VERTEX
  8
0
 10
4.03043
 20
3.82796
 30
0.0
 40
0
 41
0
  0
VERTEX
  8
0
 10
3.96739
 20
4.09489
 30
0.0
 40
0
 41
0
  0
VERTEX
  8
0
 10
3.90603
 20
4.36843
 30
0.0
 40
0
 41
0
  0
VERTEX
  8
0
 10
3.90338
 20
4.36843
 30
0.0
 40
0
 41
0
  0
VERTEX
  8
0
 10
3.90978
 20
4.30279
 30
0.0
 40
0
 41
0
  0
VERTEX
  8
0
 10
3.91667
 20
4.2219
 30
0.0
 40
0
 41
0
  0
VERTEX
  8
0
 10
3.92258
 20
4.1404
 30
0.0
 40
0
 41
0
  0
VERTEX
  8
0
 10
3.92611
 20
4.07297
 30
0.0
 40
0
 41
0
  0
VERTEX
  8
0
 10
3.93408
 20
3.82796
 30
0.0
 40
0
 41
0
  0
VERTEX
  8
0
 10
3.84267
 20
3.82796
 30
0.0
 40
0
 41
0
  0
VERTEX
  8
0
 10
3.80675
 20
4.66971
 30
0.0
 40
0
 41
0
  0
VERTEX
  8
0
 10
3.90121
 20
4.66971
 30
0.0
 40
0
 41
0
  0
VERTEX
  8
0
 10
3.96783
 20
4.40614
 30
0.0
 40
0
 41
0
  0
VERTEX
  8
0
 10
4.02881
 20
4.12918
 30
0.0
 40
0
 41
0
  0
VERTEX
  8
0
 10
4.03136
 20
4.12918
 30
0.0
 40
0
 41
0
  0
VERTEX
  8
0
 10
4.02572
 20
4.19488
 30
0.0
 40
0
 41
0
  0
VERTEX
  8
0
 10
4.01975
 20
4.27582
 30
0.0
 40
0
 41
0
  0
VERTEX
  8
0
 10
4.01471
 20
4.35732
 30
0.0
 40
0
 41
0
  0
VERTEX
  8
0
 10
4.01193
 20
4.42469
 30
0.0
 40
0
 41
0
  0
VERTEX
  8
0
 10
4.0064
 20
4.66971
 30
0.0
 40
0
 41
0
  0
VERTEX
  8
0
 10
4.10622
 20
4.66971
 30
0.0
 40
0
 41
0
  0
VERTEX
  8
0
 10
4.11686
 20
3.82796
 30
0.0
 40
0
 41
0
  0
VERTEX
  8
0
 10
4.03043
 20
3.82796
 30
0.0
 40
0
 41
0
  0
SEQEND
 8
0
  0
POLYLINE
  8
0
 62
     0
 66
     1
 10
0
 20
0
 30
0.0
 70
     1
 40
0
 41
0
  0
VERTEX
  8
0
 10
3.84267
 20
3.37679
 30
0.0
 40
0
 41
0
  0
VERTEX
  8
0
 10
3.82101
 20
3.38118
 30
0.0
 40
0
 41
0
  0
VERTEX
  8
0
 10
3.80285
 20
3.39301
 30
0.0
 40
0
 41
0
  0
VERTEX
  8
0
 10
3.7901
 20
3.41058
 30
0.0
 40
0
 41
0
  0
VERTEX
  8
0
 10
3.78467
 20
3.43197
 30
0.0
 40
0
 41
0
  0
VERTEX
  8
0
 10
3.77175
 20
3.6824
 30
0.0
 40
0
 41
0
  0
VERTEX
  8
0
 10
3.77517
 20
3.70383
 30
0.0
 40
0
 41
0
  0
VERTEX
  8
0
 10
3.78662
 20
3.72136
 30
0.0
 40
0
 41
0
  0
VERTEX
  8
0
 10
3.80425
 20
3.73318
 30
0.0
 40
0
 41
0
  0
VERTEX
  8
0
 10
3.82639
 20
3.73753
 30
0.0
 40
0
 41
0
  0
VERTEX
  8
0
 10
3.84885
 20
3.73318
 30
0.0
 40
0
 41
0
  0
VERTEX
  8
0
 10
3.86757
 20
3.72131
 30
0.0
 40
0
 41
0
  0
VERTEX
  8
0
 10
3.88058
 20
3.70372
 30
0.0
 40
0
 41
0
  0
VERTEX
  8
0
 10
3.88596
 20
3.68229
 30
0.0
 40
0
 41
0
  0
VERTEX
  8
0
 10
3.88753
 20
3.64187
 30
0.0
 40
0
 41
0
  0
VERTEX
  8
0
 10
3.84961
 20
3.64187
 30
0.0
 40
0
 41
0
  0
VERTEX
  8
0
 10
3.84722
 20
3.69504
 30
0.0
 40
0
 41
0
  0
VERTEX
  8
0
 10
3.80908
 20
3.69504
 30
0.0
 40
0
 41
0
  0
VERTEX
  8
0
 10
3.82238
 20
3.42036
 30
0.0
 40
0
 41
0
  0
VERTEX
  8
0
 10
3.85932
 20
3.42036
 30
0.0
 40
0
 41
0
  0
VERTEX
  8
0
 10
3.85693
 20
3.47353
 30
0.0
 40
0
 41
0
  0
VERTEX
  8
0
 10
3.8941
 20
3.47353
 30
0.0
 40
0
 41
0
  0
VERTEX
  8
0
 10
3.89567
 20
3.43261
 30
0.0
 40
0
 41
0
  0
VERTEX
  8
0
 10
3.89214
 20
3.41114
 30
0.0
 40
0
 41
0
  0
VERTEX
  8
0
 10
3.88097
 20
3.39333
 30
0.0
 40
0
 41
0
  0
VERTEX
  8
0
 10
3.86388
 20
3.38129
 30
0.0
 40
0
 41
0
  0
VERTEX
  8
0
 10
3.84267
 20
3.37679
 30
0.0
 40
0
 41
0
  0
SEQEND
 8
0
  0
POLYLINE
  8
0
 62
     0
 66
     1
 10
0
 20
0
 30
0.0
 70
     1
 40
0
 41
0
  0
VERTEX
  8
0
 10
3.67258
 20
4.73172
 30
0.0
 40
0
 41
0
  0
VERTEX
  8
0
 10
3.65711
 20
5.0064
 30
0.0
 40
0
 41
0
  0
VERTEX
  8
0
 10
3.58111
 20
5.0064
 30
0.0
 40
0
 41
0
  0
VERTEX
  8
0
 10
3.59868
 20
4.73172
 30
0.0
 40
0
 41
0
  0
VERTEX
  8
0
 10
3.52474
 20
4.73172
 30
0.0
 40
0
 41
0
  0
VERTEX
  8
0
 10
3.48747
 20
5.25581
 30
0.0
 40
0
 41
0
  0
VERTEX
  8
0
 10
3.49408
 20
5.29275
 30
0.0
 40
0
 41
0
  0
VERTEX
  8
0
 10
3.51725
 20
5.3226
 30
0.0
 40
0
 41
0
  0
VERTEX
  8
0
 10
3.55328
 20
5.3425
 30
0.0
 40
0
 41
0
  0
VERTEX
  8
0
 10
3.59847
 20
5.34978
 30
0.0
 40
0
 41
0
  0
VERTEX
  8
0
 10
3.64453
 20
5.3425
 30
0.0
 40
0
 41
0
  0
VERTEX
  8
0
 10
3.68294
 20
5.3226
 30
0.0
 40
0
 41
0
  0
VERTEX
  8
0
 10
3.70975
 20
5.29275
 30
0.0
 40
0
 41
0
  0
VERTEX
  8
0
 10
3.72092
 20
5.25581
 30
0.0
 40
0
 41
0
  0
VERTEX
  8
0
 10
3.74647
 20
4.73172
 30
0.0
 40
0
 41
0
  0
VERTEX
  8
0
 10
3.67258
 20
4.73172
 30
0.0
 40
0
 41
0
  0
SEQEND
 8
0
  0
POLYLINE
  8
0
 62
     0
 66
     1
 10
0
 20
0
 30
0.0
 70
     1
 40
0
 41
0
  0
VERTEX
  8
0
 10
3.59
 20
3.82471
 30
0.0
 40
0
 41
0
  0
VERTEX
  8
0
 10
3.53592
 20
3.83501
 30
0.0
 40
0
 41
0
  0
VERTEX
  8
0
 10
3.4899
 20
3.86307
 30
0.0
 40
0
 41
0
  0
VERTEX
  8
0
 10
3.45692
 20
3.90451
 30
0.0
 40
0
 41
0
  0
VERTEX
  8
0
 10
3.44179
 20
3.95503
 30
0.0
 40
0
 41
0
  0
VERTEX
  8
0
 10
3.38049
 20
4.66971
 30
0.0
 40
0
 41
0
  0
VERTEX
  8
0
 10
3.48031
 20
4.66971
 30
0.0
 40
0
 41
0
  0
VERTEX
  8
0
 10
3.53722
 20
3.91656
 30
0.0
 40
0
 41
0
  0
VERTEX
  8
0
 10
3.6295
 20
3.91656
 30
0.0
 40
0
 41
0
  0
VERTEX
  8
0
 10
3.58014
 20
4.66971
 30
0.0
 40
0
 41
0
  0
VERTEX
  8
0
 10
3.67996
 20
4.66971
 30
0.0
 40
0
 41
0
  0
VERTEX
  8
0
 10
3.71972
 20
3.95508
 30
0.0
 40
0
 41
0
  0
VERTEX
  8
0
 10
3.71169
 20
3.90451
 30
0.0
 40
0
 41
0
  0
VERTEX
  8
0
 10
3.68457
 20
3.86307
 30
0.0
 40
0
 41
0
  0
VERTEX
  8
0
 10
3.64258
 20
3.83501
 30
0.0
 40
0
 41
0
  0
VERTEX
  8
0
 10
3.59
 20
3.82471
 30
0.0
 40
0
 41
0
  0
SEQEND
 8
0
  0
POLYLINE
  8
0
 62
     0
 66
     1
 10
0
 20
0
 30
0.0
 70
     1
 40
0
 41
0
  0
VERTEX
  8
0
 10
3.49675
 20
3.37679
 30
0.0
 40
0
 41
0
  0
VERTEX
  8
0
 10
3.47487
 20
3.38118
 30
0.0
 40
0
 41
0
  0
VERTEX
  8
0
 10
3.45628
 20
3.39301
 30
0.0
 40
0
 41
0
  0
VERTEX
  8
0
 10
3.44282
 20
3.41058
 30
0.0
 40
0
 41
0
  0
VERTEX
  8
0
 10
3.43653
 20
3.43197
 30
0.0
 40
0
 41
0
  0
VERTEX
  8
0
 10
3.41357
 20
3.68246
 30
0.0
 40
0
 41
0
  0
VERTEX
  8
0
 10
3.41613
 20
3.70389
 30
0.0
 40
0
 41
0
  0
VERTEX
  8
0
 10
3.42686
 20
3.72146
 30
0.0
 40
0
 41
0
  0
VERTEX
  8
0
 10
3.44407
 20
3.73329
 30
0.0
 40
0
 41
0
  0
VERTEX
  8
0
 10
3.46599
 20
3.73763
 30
0.0
 40
0
 41
0
  0
VERTEX
  8
0
 10
3.48861
 20
3.73329
 30
0.0
 40
0
 41
0
  0
VERTEX
  8
0
 10
3.50781
 20
3.72146
 30
0.0
 40
0
 41
0
  0
VERTEX
  8
0
 10
3.52154
 20
3.70389
 30
0.0
 40
0
 41
0
  0
VERTEX
  8
0
 10
3.52778
 20
3.68246
 30
0.0
 40
0
 41
0
  0
VERTEX
  8
0
 10
3.54753
 20
3.43197
 30
0.0
 40
0
 41
0
  0
VERTEX
  8
0
 10
3.54482
 20
3.41058
 30
0.0
 40
0
 41
0
  0
VERTEX
  8
0
 10
3.5344
 20
3.39301
 30
0.0
 40
0
 41
0
  0
VERTEX
  8
0
 10
3.51779
 20
3.38118
 30
0.0
 40
0
 41
0
  0
VERTEX
  8
0
 10
3.49675
 20
3.37679
 30
0.0
 40
0
 41
0
  0
SEQEND
 8
0
  0
POLYLINE
  8
0
 62
     0
 66
     1
 10
0
 20
0
 30
0.0
 70
     1
 40
0
 41
0
  0
VERTEX
  8
0
 10
3.26465
 20
3.82796
 30
0.0
 40
0
 41
0
  0
VERTEX
  8
0
 10
3.24783
 20
3.85915
 30
0.0
 40
0
 41
0
  0
VERTEX
  8
0
 10
3.23813
 20
3.8929
 30
0.0
 40
0
 41
0
  0
VERTEX
  8
0
 10
3.2041
 20
4.20899
 30
0.0
 40
0
 41
0
  0
VERTEX
  8
0
 10
3.10894
 20
4.20899
 30
0.0
 40
0
 41
0
  0
VERTEX
  8
0
 10
3.15349
 20
3.82796
 30
0.0
 40
0
 41
0
  0
VERTEX
  8
0
 10
3.06207
 20
3.82796
 30
0.0
 40
0
 41
0
  0
VERTEX
  8
0
 10
2.95421
 20
4.66971
 30
0.0
 40
0
 41
0
  0
VERTEX
  8
0
 10
3.15386
 20
4.66971
 30
0.0
 40
0
 41
0
  0
VERTEX
  8
0
 10
3.19347
 20
4.66292
 30
0.0
 40
0
 41
0
  0
VERTEX
  8
0
 10
3.227
 20
4.64426
 30
0.0
 40
0
 41
0
  0
VERTEX
  8
0
 10
3.25108
 20
4.61664
 30
0.0
 40
0
 41
0
  0
VERTEX
  8
0
 10
3.26226
 20
4.58274
 30
0.0
 40
0
 41
0
  0
VERTEX
  8
0
 10
3.28842
 20
4.31739
 30
0.0
 40
0
 41
0
  0
VERTEX
  8
0
 10
3.28749
 20
4.29178
 30
0.0
 40
0
 41
0
  0
VERTEX
  8
0
 10
3.28011
 20
4.27344
 30
0.0
 40
0
 41
0
  0
VERTEX
  8
0
 10
3.26779
 20
4.26036
 30
0.0
 40
0
 41
0
  0
VERTEX
  8
0
 10
3.25233
 20
4.25054
 30
0.0
 40
0
 41
0
  0
VERTEX
  8
0
 10
3.26958
 20
4.24224
 30
0.0
 40
0
 41
0
  0
VERTEX
  8
0
 10
3.28456
 20
4.22814
 30
0.0
 40
0
 41
0
  0
VERTEX
  8
0
 10
3.29596
 20
4.20583
 30
0.0
 40
0
 41
0
  0
VERTEX
  8
0
 10
3.30263
 20
4.17312
 30
0.0
 40
0
 41
0
  0
VERTEX
  8
0
 10
3.33018
 20
3.89199
 30
0.0
 40
0
 41
0
  0
VERTEX
  8
0
 10
3.33979
 20
3.86117
 30
0.0
 40
0
 41
0
  0
VERTEX
  8
0
 10
3.3585
 20
3.82796
 30
0.0
 40
0
 41
0
  0
VERTEX
  8
0
 10
3.26465
 20
3.82796
 30
0.0
 40
0
 41
0
  0
SEQEND
 8
0
  0
POLYLINE
  8
0
 62
     0
 66
     1
 10
0
 20
0
 30
0.0
 70
     1
 40
0
 41
0
  0
VERTEX
  8
0
 10
3.15082
 20
3.37711
 30
0.0
 40
0
 41
0
  0
VERTEX
  8
0
 10
3.12879
 20
3.38157
 30
0.0
 40
0
 41
0
  0
VERTEX
  8
0
 10
3.10969
 20
3.3935
 30
0.0
 40
0
 41
0
  0
VERTEX
  8
0
 10
3.09554
 20
3.41118
 30
0.0
 40
0
 41
0
  0
VERTEX
  8
0
 10
3.08838
 20
3.43261
 30
0.0
 40
0
 41
0
  0
VERTEX
  8
0
 10
3.08306
 20
3.47353
 30
0.0
 40
0
 41
0
  0
VERTEX
  8
0
 10
3.12028
 20
3.47353
 30
0.0
 40
0
 41
0
  0
VERTEX
  8
0
 10
3.12733
 20
3.42036
 30
0.0
 40
0
 41
0
  0
VERTEX
  8
0
 10
3.16428
 20
3.42036
 30
0.0
 40
0
 41
0
  0
VERTEX
  8
0
 10
3.14925
 20
3.53554
 30
0.0
 40
0
 41
0
  0
VERTEX
  8
0
 10
3.11176
 20
3.53554
 30
0.0
 40
0
 41
0
  0
VERTEX
  8
0
 10
3.08382
 20
3.5471
 30
0.0
 40
0
 41
0
  0
VERTEX
  8
0
 10
3.06944
 20
3.57394
 30
0.0
 40
0
 41
0
  0
VERTEX
  8
0
 10
3.05539
 20
3.6824
 30
0.0
 40
0
 41
0
  0
VERTEX
  8
0
 10
3.05707
 20
3.70383
 30
0.0
 40
0
 41
0
  0
VERTEX
  8
0
 10
3.06717
 20
3.72136
 30
0.0
 40
0
 41
0
  0
VERTEX
  8
0
 10
3.08388
 20
3.73318
 30
0.0
 40
0
 41
0
  0
VERTEX
  8
0
 10
3.10562
 20
3.73753
 30
0.0
 40
0
 41
0
  0
VERTEX
  8
0
 10
3.12842
 20
3.73318
 30
0.0
 40
0
 41
0
  0
VERTEX
  8
0
 10
3.14806
 20
3.72131
 30
0.0
 40
0
 41
0
  0
VERTEX
  8
0
 10
3.16254
 20
3.70372
 30
0.0
 40
0
 41
0
  0
VERTEX
  8
0
 10
3.16965
 20
3.68229
 30
0.0
 40
0
 41
0
  0
VERTEX
  8
0
 10
3.17443
 20
3.64187
 30
0.0
 40
0
 41
0
  0
VERTEX
  8
0
 10
3.1365
 20
3.64187
 30
0.0
 40
0
 41
0
  0
VERTEX
  8
0
 10
3.12967
 20
3.69504
 30
0.0
 40
0
 41
0
  0
VERTEX
  8
0
 10
3.09153
 20
3.69504
 30
0.0
 40
0
 41
0
  0
VERTEX
  8
0
 10
3.1071
 20
3.57986
 30
0.0
 40
0
 41
0
  0
VERTEX
  8
0
 10
3.14469
 20
3.57986
 30
0.0
 40
0
 41
0
  0
VERTEX
  8
0
 10
3.17264
 20
3.56808
 30
0.0
 40
0
 41
0
  0
VERTEX
  8
0
 10
3.18674
 20
3.54096
 30
0.0
 40
0
 41
0
  0
VERTEX
  8
0
 10
3.19943
 20
3.43321
 30
0.0
 40
0
 41
0
  0
VERTEX
  8
0
 10
3.1976
 20
3.41168
 30
0.0
 40
0
 41
0
  0
VERTEX
  8
0
 10
3.18782
 20
3.39382
 30
0.0
 40
0
 41
0
  0
VERTEX
  8
0
 10
3.17165
 20
3.38163
 30
0.0
 40
0
 41
0
  0
VERTEX
  8
0
 10
3.15082
 20
3.37711
 30
0.0
 40
0
 41
0
  0
SEQEND
 8
0
  0
POLYLINE
  8
0
 62
     0
 66
     1
 10
0
 20
0
 30
0.0
 70
     1
 40
0
 41
0
  0
VERTEX
  8
0
 10
2.93343
 20
4.73172
 30
0.0
 40
0
 41
0
  0
VERTEX
  8
0
 10
2.85319
 20
5.3431
 30
0.0
 40
0
 41
0
  0
VERTEX
  8
0
 10
3.01019
 20
5.3431
 30
0.0
 40
0
 41
0
  0
VERTEX
  8
0
 10
3.04129
 20
5.33826
 30
0.0
 40
0
 41
0
  0
VERTEX
  8
0
 10
3.06771
 20
5.32487
 30
0.0
 40
0
 41
0
  0
VERTEX
  8
0
 10
3.08669
 20
5.3049
 30
0.0
 40
0
 41
0
  0
VERTEX
  8
0
 10
3.09554
 20
5.28006
 30
0.0
 40
0
 41
0
  0
VERTEX
  8
0
 10
3.1166
 20
5.08572
 30
0.0
 40
0
 41
0
  0
VERTEX
  8
0
 10
3.11003
 20
5.0535
 30
0.0
 40
0
 41
0
  0
VERTEX
  8
0
 10
3.08794
 20
5.03674
 30
0.0
 40
0
 41
0
  0
VERTEX
  8
0
 10
3.10172
 20
5.03071
 30
0.0
 40
0
 41
0
  0
VERTEX
  8
0
 10
3.11367
 20
5.02051
 30
0.0
 40
0
 41
0
  0
VERTEX
  8
0
 10
3.12272
 20
5.00424
 30
0.0
 40
0
 41
0
  0
VERTEX
  8
0
 10
3.12804
 20
4.98019
 30
0.0
 40
0
 41
0
  0
VERTEX
  8
0
 10
3.15022
 20
4.77561
 30
0.0
 40
0
 41
0
  0
VERTEX
  8
0
 10
3.15804
 20
4.75054
 30
0.0
 40
0
 41
0
  0
VERTEX
  8
0
 10
3.17318
 20
4.73172
 30
0.0
 40
0
 41
0
  0
VERTEX
  8
0
 10
3.09722
 20
4.73172
 30
0.0
 40
0
 41
0
  0
VERTEX
  8
0
 10
3.08371
 20
4.75168
 30
0.0
 40
0
 41
0
  0
VERTEX
  8
0
 10
3.07596
 20
4.77664
 30
0.0
 40
0
 41
0
  0
VERTEX
  8
0
 10
3.04937
 20
5.0064
 30
0.0
 40
0
 41
0
  0
VERTEX
  8
0
 10
2.97342
 20
5.0064
 30
0.0
 40
0
 41
0
  0
VERTEX
  8
0
 10
3.00738
 20
4.73172
 30
0.0
 40
0
 41
0
  0
VERTEX
  8
0
 10
2.93343
 20
4.73172
 30
0.0
 40
0
 41
0
  0
SEQEND
 8
0
  0
POLYLINE
  8
0
 62
     0
 66
     1
 10
0
 20
0
 30
0.0
 70
     1
 40
0
 41
0
  0
VERTEX
  8
0
 10
3.2844
 20
5.34978
 30
0.0
 40
0
 41
0
  0
VERTEX
  8
0
 10
3.33068
 20
5.34224
 30
0.0
 40
0
 41
0
  0
VERTEX
  8
0
 10
3.36974
 20
5.32161
 30
0.0
 40
0
 41
0
  0
VERTEX
  8
0
 10
3.3974
 20
5.29113
 30
0.0
 40
0
 41
0
  0
VERTEX
  8
0
 10
3.40967
 20
5.2539
 30
0.0
 40
0
 41
0
  0
VERTEX
  8
0
 10
3.44374
 20
4.81863
 30
0.0
 40
0
 41
0
  0
VERTEX
  8
0
 10
3.43787
 20
4.78147
 30
0.0
 40
0
 41
0
  0
VERTEX
  8
0
 10
3.41644
 20
4.75097
 30
0.0
 40
0
 41
0
  0
VERTEX
  8
0
 10
3.38281
 20
4.73036
 30
0.0
 40
0
 41
0
  0
VERTEX
  8
0
 10
3.34044
 20
4.72276
 30
0.0
 40
0
 41
0
  0
VERTEX
  8
0
 10
3.29665
 20
4.73036
 30
0.0
 40
0
 41
0
  0
VERTEX
  8
0
 10
3.25933
 20
4.75097
 30
0.0
 40
0
 41
0
  0
VERTEX
  8
0
 10
3.23242
 20
4.78147
 30
0.0
 40
0
 41
0
  0
VERTEX
  8
0
 10
3.22
 20
4.81863
 30
0.0
 40
0
 41
0
  0
VERTEX
  8
0
 10
3.17626
 20
5.2539
 30
0.0
 40
0
 41
0
  0
VERTEX
  8
0
 10
3.18181
 20
5.29113
 30
0.0
 40
0
 41
0
  0
VERTEX
  8
0
 10
3.20404
 20
5.32161
 30
0.0
 40
0
 41
0
  0
VERTEX
  8
0
 10
3.23942
 20
5.34224
 30
0.0
 40
0
 41
0
  0
VERTEX
  8
0
 10
3.2844
 20
5.34978
 30
0.0
 40
0
 41
0
  0
SEQEND
 8
0
  0
POLYLINE
  8
0
 62
     0
 66
     1
 10
0
 20
0
 30
0.0
 70
     1
 40
0
 41
0
  0
VERTEX
  8
0
 10
3.95193
 20
5.3431
 30
0.0
 40
0
 41
0
  0
VERTEX
  8
0
 10
3.98264
 20
5.33838
 30
0.0
 40
0
 41
0
  0
VERTEX
  8
0
 10
4.00781
 20
5.32531
 30
0.0
 40
0
 41
0
  0
VERTEX
  8
0
 10
4.02501
 20
5.30556
 30
0.0
 40
0
 41
0
  0
VERTEX
  8
0
 10
4.03163
 20
5.28087
 30
0.0
 40
0
 41
0
  0
VERTEX
  8
0
 10
4.04096
 20
4.79372
 30
0.0
 40
0
 41
0
  0
VERTEX
  8
0
 10
4.03558
 20
4.76915
 30
0.0
 40
0
 41
0
  0
VERTEX
  8
0
 10
4.02018
 20
4.74946
 30
0.0
 40
0
 41
0
  0
VERTEX
  8
0
 10
3.99696
 20
4.73643
 30
0.0
 40
0
 41
0
  0
VERTEX
  8
0
 10
3.96826
 20
4.73172
 30
0.0
 40
0
 41
0
  0
VERTEX
  8
0
 10
3.82042
 20
4.73172
 30
0.0
 40
0
 41
0
  0
VERTEX
  8
0
 10
3.79497
 20
5.3431
 30
0.0
 40
0
 41
0
  0
VERTEX
  8
0
 10
3.95193
 20
5.3431
 30
0.0
 40
0
 41
0
  0
SEQEND
 8
0
  0
POLYLINE
  8
0
 62
     0
 66
     1
 10
0
 20
0
 30
0.0
 70
     1
 40
0
 41
0
  0
VERTEX
  8
0
 10
5.68251
 20
5.68431
 30
0.0
 40
0
 41
0
  0
VERTEX
  8
0
 10
5.60781
 20
5.61426
 30
0.0
 40
0
 41
0
  0
VERTEX
  8
0
 10
5.51503
 20
5.56153
 30
0.0
 40
0
 41
0
  0
VERTEX
  8
0
 10
5.40744
 20
5.5275
 30
0.0
 40
0
 41
0
  0
VERTEX
  8
0
 10
5.28831
 20
5.51351
 30
0.0
 40
0
 41
0
  0
VERTEX
  8
0
 10
5.28847
 20
5.51303
 30
0.0
 40
0
 41
0
  0
VERTEX
  8
0
 10
2.5816
 20
5.51303
 30
0.0
 40
0
 41
0
  0
VERTEX
  8
0
 10
2.94319
 20
3.28017
 30
0.0
 40
0
 41
0
  0
VERTEX
  8
0
 10
5.34065
 20
3.28017
 30
0.0
 40
0
 41
0
  0
VERTEX
  8
0
 10
5.75168
 20
5.81879
 30
0.0
 40
0
 41
0
  0
VERTEX
  8
0
 10
5.72499
 20
5.74881
 30
0.0
 40
0
 41
0
  0
VERTEX
  8
0
 10
5.68251
 20
5.68431
 30
0.0
 40
0
 41
0
  0
SEQEND
 8
0
  0
POLYLINE
  8
0
 62
     0
 66
     1
 10
0
 20
0
 30
0.0
 70
     1
 40
1
 41
1
  0
VERTEX
  8
0
 10
5.35092
 20
4.58263
 30
0.0
 40
0.0138889
 41
0.0138889
  0
VERTEX
  8
0
 10
5.32075
 20
4.31717
 30
0.0
 40
0.0138889
 41
0.0138889
  0
VERTEX
  8
0
 10
5.31446
 20
4.29156
 30
0.0
 40
0.0138889
 41
0.0138889
  0
VERTEX
  8
0
 10
5.30311
 20
4.27306
 30
0.0
 40
0.0138889
 41
0.0138889
  0
VERTEX
  8
0
 10
5.28808
 20
4.25993
 30
0.0
 40
0.0138889
 41
0.0138889
  0
VERTEX
  8
0
 10
5.27051
 20
4.25006
 30
0.0
 40
0.0138889
 41
0.0138889
  0
VERTEX
  8
0
 10
5.28603
 20
4.24169
 30
0.0
 40
0.0138889
 41
0.0138889
  0
VERTEX
  8
0
 10
5.29801
 20
4.22743
 30
0.0
 40
0.0138889
 41
0.0138889
  0
VERTEX
  8
0
 10
5.30469
 20
4.20497
 30
0.0
 40
0.0138889
 41
0.0138889
  0
VERTEX
  8
0
 10
5.30436
 20
4.17215
 30
0.0
 40
0.0138889
 41
0.0138889
  0
VERTEX
  8
0
 10
5.27257
 20
3.89199
 30
0.0
 40
0.0138889
 41
0.0138889
  0
VERTEX
  8
0
 10
5.27544
 20
3.86117
 30
0.0
 40
0.0138889
 41
0.0138889
  0
VERTEX
  8
0
 10
5.28776
 20
3.82796
 30
0.0
 40
0.0138889
 41
0.0138889
  0
VERTEX
  8
0
 10
5.1939
 20
3.82796
 30
0.0
 40
0.0138889
 41
0.0138889
  0
VERTEX
  8
0
 10
5.18338
 20
3.85915
 30
0.0
 40
0.0138889
 41
0.0138889
  0
VERTEX
  8
0
 10
5.18056
 20
3.8929
 30
0.0
 40
0.0138889
 41
0.0138889
  0
VERTEX
  8
0
 10
5.21306
 20
4.20899
 30
0.0
 40
0.0138889
 41
0.0138889
  0
VERTEX
  8
0
 10
5.11789
 20
4.20899
 30
0.0
 40
0.0138889
 41
0.0138889
  0
VERTEX
  8
0
 10
5.08274
 20
3.82796
 30
0.0
 40
0.0138889
 41
0.0138889
  0
VERTEX
  8
0
 10
4.99132
 20
3.82796
 30
0.0
 40
0.0138889
 41
0.0138889
  0
VERTEX
  8
0
 10
5.06131
 20
4.66971
 30
0.0
 40
0.0138889
 41
0.0138889
  0
VERTEX
  8
0
 10
5.26096
 20
4.66971
 30
0.0
 40
0.0138889
 41
0.0138889
  0
VERTEX
  8
0
 10
5.2991
 20
4.66287
 30
0.0
 40
0.0138889
 41
0.0138889
  0
VERTEX
  8
0
 10
5.32872
 20
4.64421
 30
0.0
 40
0.0138889
 41
0.0138889
  0
VERTEX
  8
0
 10
5.3469
 20
4.61654
 30
0.0
 40
0.0138889
 41
0.0138889
  0
VERTEX
  8
0
 10
5.35092
 20
4.58263
 30
0.0
 40
0.0138889
 41
0.0138889
  0
SEQEND
 8
0
  0
POLYLINE
  8
0
 62
     0
 66
     1
 10
0
 20
0
 30
0.0
 70
     1
 40
1
 41
1
  0
VERTEX
  8
0
 10
5.18528
 20
3.588
 30
0.0
 40
0.0138889
 41
0.0138889
  0
VERTEX
  8
0
 10
5.17171
 20
3.55778
 30
0.0
 40
0.0138889
 41
0.0138889
  0
VERTEX
  8
0
 10
5.14219
 20
3.53646
 30
0.0
 40
0.0138889
 41
0.0138889
  0
VERTEX
  8
0
 10
5.12576
 20
3.37608
 30
0.0
 40
0.0138889
 41
0.0138889
  0
VERTEX
  8
0
 10
5.08897
 20
3.37608
 30
0.0
 40
0.0138889
 41
0.0138889
  0
VERTEX
  8
0
 10
5.10471
 20
3.53597
 30
0.0
 40
0.0138889
 41
0.0138889
  0
VERTEX
  8
0
 10
5.07932
 20
3.55767
 30
0.0
 40
0.0138889
 41
0.0138889
  0
VERTEX
  8
0
 10
5.07221
 20
3.58843
 30
0.0
 40
0.0138889
 41
0.0138889
  0
VERTEX
  8
0
 10
5.08594
 20
3.73047
 30
0.0
 40
0.0138889
 41
0.0138889
  0
VERTEX
  8
0
 10
5.12424
 20
3.73047
 30
0.0
 40
0.0138889
 41
0.0138889
  0
VERTEX
  8
0
 10
5.10835
 20
3.57096
 30
0.0
 40
0.0138889
 41
0.0138889
  0
VERTEX
  8
0
 10
5.146
 20
3.57096
 30
0.0
 40
0.0138889
 41
0.0138889
  0
VERTEX
  8
0
 10
5.16254
 20
3.73047
 30
0.0
 40
0.0138889
 41
0.0138889
  0
VERTEX
  8
0
 10
5.20079
 20
3.73047
 30
0.0
 40
0.0138889
 41
0.0138889
  0
VERTEX
  8
0
 10
5.18528
 20
3.588
 30
0.0
 40
0.0138889
 41
0.0138889
  0
SEQEND
 8
0
  0
POLYLINE
  8
0
 62
     0
 66
     1
 10
0
 20
0
 30
0.0
 70
     1
 40
1
 41
1
  0
VERTEX
  8
0
 10
4.95242
 20
4.58111
 30
0.0
 40
0.0138889
 41
0.0138889
  0
VERTEX
  8
0
 10
4.75456
 20
4.58111
 30
0.0
 40
0.0138889
 41
0.0138889
  0
VERTEX
  8
0
 10
4.73921
 20
4.29758
 30
0.0
 40
0.0138889
 41
0.0138889
  0
VERTEX
  8
0
 10
4.88331
 20
4.29758
 30
0.0
 40
0.0138889
 41
0.0138889
  0
VERTEX
  8
0
 10
4.87733
 20
4.20899
 30
0.0
 40
0.0138889
 41
0.0138889
  0
VERTEX
  8
0
 10
4.7346
 20
4.20899
 30
0.0
 40
0.0138889
 41
0.0138889
  0
VERTEX
  8
0
 10
4.71929
 20
3.91656
 30
0.0
 40
0.0138889
 41
0.0138889
  0
VERTEX
  8
0
 10
4.90381
 20
3.91656
 30
0.0
 40
0.0138889
 41
0.0138889
  0
VERTEX
  8
0
 10
4.89746
 20
3.82796
 30
0.0
 40
0.0138889
 41
0.0138889
  0
VERTEX
  8
0
 10
4.71468
 20
3.82796
 30
0.0
 40
0.0138889
 41
0.0138889
  0
VERTEX
  8
0
 10
4.67931
 20
3.83507
 30
0.0
 40
0.0138889
 41
0.0138889
  0
VERTEX
  8
0
 10
4.65104
 20
3.85433
 30
0.0
 40
0.0138889
 41
0.0138889
  0
VERTEX
  8
0
 10
4.63271
 20
3.8826
 30
0.0
 40
0.0138889
 41
0.0138889
  0
VERTEX
  8
0
 10
4.62701
 20
3.91672
 30
0.0
 40
0.0138889
 41
0.0138889
  0
VERTEX
  8
0
 10
4.6556
 20
4.58274
 30
0.0
 40
0.0138889
 41
0.0138889
  0
VERTEX
  8
0
 10
4.66482
 20
4.61664
 30
0.0
 40
0.0138889
 41
0.0138889
  0
VERTEX
  8
0
 10
4.68739
 20
4.64426
 30
0.0
 40
0.0138889
 41
0.0138889
  0
VERTEX
  8
0
 10
4.71989
 20
4.66292
 30
0.0
 40
0.0138889
 41
0.0138889
  0
VERTEX
  8
0
 10
4.75917
 20
4.66971
 30
0.0
 40
0.0138889
 41
0.0138889
  0
VERTEX
  8
0
 10
4.95882
 20
4.66971
 30
0.0
 40
0.0138889
 41
0.0138889
  0
VERTEX
  8
0
 10
4.95242
 20
4.58111
 30
0.0
 40
0.0138889
 41
0.0138889
  0
SEQEND
 8
0
  0
POLYLINE
  8
0
 62
     0
 66
     1
 10
0
 20
0
 30
0.0
 70
     1
 40
1
 41
1
  0
VERTEX
  8
0
 10
4.85249
 20
3.69504
 30
0.0
 40
0.0138889
 41
0.0138889
  0
VERTEX
  8
0
 10
4.81435
 20
3.69504
 30
0.0
 40
0.0138889
 41
0.0138889
  0
VERTEX
  8
0
 10
4.79368
 20
3.37608
 30
0.0
 40
0.0138889
 41
0.0138889
  0
VERTEX
  8
0
 10
4.75689
 20
3.37608
 30
0.0
 40
0.0138889
 41
0.0138889
  0
VERTEX
  8
0
 10
4.77621
 20
3.69504
 30
0.0
 40
0.0138889
 41
0.0138889
  0
VERTEX
  8
0
 10
4.73807
 20
3.69504
 30
0.0
 40
0.0138889
 41
0.0138889
  0
VERTEX
  8
0
 10
4.74013
 20
3.73047
 30
0.0
 40
0.0138889
 41
0.0138889
  0
VERTEX
  8
0
 10
4.85503
 20
3.73047
 30
0.0
 40
0.0138889
 41
0.0138889
  0
VERTEX
  8
0
 10
4.85249
 20
3.69504
 30
0.0
 40
0.0138889
 41
0.0138889
  0
SEQEND
 8
0
  0
POLYLINE
  8
0
 62
     0
 66
     1
 10
0
 20
0
 30
0.0
 70
     1
 40
1
 41
1
  0
VERTEX
  8
0
 10
4.50717
 20
3.82796
 30
0.0
 40
0.0138889
 41
0.0138889
  0
VERTEX
  8
0
 10
4.42068
 20
3.82796
 30
0.0
 40
0.0138889
 41
0.0138889
  0
VERTEX
  8
0
 10
4.36903
 20
4.09489
 30
0.0
 40
0.0138889
 41
0.0138889
  0
VERTEX
  8
0
 10
4.31933
 20
4.36843
 30
0.0
 40
0.0138889
 41
0.0138889
  0
VERTEX
  8
0
 10
4.31674
 20
4.36843
 30
0.0
 40
0.0138889
 41
0.0138889
  0
VERTEX
  8
0
 10
4.32031
 20
4.30279
 30
0.0
 40
0.0138889
 41
0.0138889
  0
VERTEX
  8
0
 10
4.32374
 20
4.2219
 30
0.0
 40
0.0138889
 41
0.0138889
  0
VERTEX
  8
0
 10
4.32617
 20
4.1404
 30
0.0
 40
0.0138889
 41
0.0138889
  0
VERTEX
  8
0
 10
4.32682
 20
4.07297
 30
0.0
 40
0.0138889
 41
0.0138889
  0
VERTEX
  8
0
 10
4.32438
 20
3.82796
 30
0.0
 40
0.0138889
 41
0.0138889
  0
VERTEX
  8
0
 10
4.23296
 20
3.82796
 30
0.0
 40
0.0138889
 41
0.0138889
  0
VERTEX
  8
0
 10
4.23307
 20
4.66971
 30
0.0
 40
0.0138889
 41
0.0138889
  0
VERTEX
  8
0
 10
4.32747
 20
4.66971
 30
0.0
 40
0.0138889
 41
0.0138889
  0
VERTEX
  8
0
 10
4.38276
 20
4.40614
 30
0.0
 40
0.0138889
 41
0.0138889
  0
VERTEX
  8
0
 10
4.43207
 20
4.12918
 30
0.0
 40
0.0138889
 41
0.0138889
  0
VERTEX
  8
0
 10
4.43463
 20
4.12918
 30
0.0
 40
0.0138889
 41
0.0138889
  0
VERTEX
  8
0
 10
4.43181
 20
4.19488
 30
0.0
 40
0.0138889
 41
0.0138889
  0
VERTEX
  8
0
 10
4.42925
 20
4.27582
 30
0.0
 40
0.0138889
 41
0.0138889
  0
VERTEX
  8
0
 10
4.42768
 20
4.35732
 30
0.0
 40
0.0138889
 41
0.0138889
  0
VERTEX
  8
0
 10
4.42779
 20
4.42469
 30
0.0
 40
0.0138889
 41
0.0138889
  0
VERTEX
  8
0
 10
4.43267
 20
4.66971
 30
0.0
 40
0.0138889
 41
0.0138889
  0
VERTEX
  8
0
 10
4.5325
 20
4.66971
 30
0.0
 40
0.0138889
 41
0.0138889
  0
VERTEX
  8
0
 10
4.50717
 20
3.82796
 30
0.0
 40
0.0138889
 41
0.0138889
  0
SEQEND
 8
0
  0
POLYLINE
  8
0
 62
     0
 66
     1
 10
0
 20
0
 30
0.0
 70
     1
 40
1
 41
1
  0
VERTEX
  8
0
 10
4.51742
 20
3.69504
 30
0.0
 40
0.0138889
 41
0.0138889
  0
VERTEX
  8
0
 10
4.44114
 20
3.69504
 30
0.0
 40
0.0138889
 41
0.0138889
  0
VERTEX
  8
0
 10
4.43826
 20
3.57986
 30
0.0
 40
0.0138889
 41
0.0138889
  0
VERTEX
  8
0
 10
4.49468
 20
3.57986
 30
0.0
 40
0.0138889
 41
0.0138889
  0
VERTEX
  8
0
 10
4.4936
 20
3.53554
 30
0.0
 40
0.0138889
 41
0.0138889
  0
VERTEX
  8
0
 10
4.43739
 20
3.53554
 30
0.0
 40
0.0138889
 41
0.0138889
  0
VERTEX
  8
0
 10
4.43457
 20
3.42036
 30
0.0
 40
0.0138889
 41
0.0138889
  0
VERTEX
  8
0
 10
4.50846
 20
3.42036
 30
0.0
 40
0.0138889
 41
0.0138889
  0
VERTEX
  8
0
 10
4.50726
 20
3.37608
 30
0.0
 40
0.0138889
 41
0.0138889
  0
VERTEX
  8
0
 10
4.43371
 20
3.37608
 30
0.0
 40
0.0138889
 41
0.0138889
  0
VERTEX
  8
0
 10
4.40782
 20
3.38726
 30
0.0
 40
0.0138889
 41
0.0138889
  0
VERTEX
  8
0
 10
4.39757
 20
3.41363
 30
0.0
 40
0.0138889
 41
0.0138889
  0
VERTEX
  8
0
 10
4.40294
 20
3.69581
 30
0.0
 40
0.0138889
 41
0.0138889
  0
VERTEX
  8
0
 10
4.41465
 20
3.72081
 30
0.0
 40
0.0138889
 41
0.0138889
  0
VERTEX
  8
0
 10
4.442
 20
3.73047
 30
0.0
 40
0.0138889
 41
0.0138889
  0
VERTEX
  8
0
 10
4.51856
 20
3.73047
 30
0.0
 40
0.0138889
 41
0.0138889
  0
VERTEX
  8
0
 10
4.51742
 20
3.69504
 30
0.0
 40
0.0138889
 41
0.0138889
  0
SEQEND
 8
0
  0
POLYLINE
  8
0
 62
     0
 66
     1
 10
0
 20
0
 30
0.0
 70
     1
 40
1
 41
1
  0
VERTEX
  8
0
 10
4.1244
 20
3.37608
 30
0.0
 40
0.0138889
 41
0.0138889
  0
VERTEX
  8
0
 10
4.12001
 20
3.73047
 30
0.0
 40
0.0138889
 41
0.0138889
  0
VERTEX
  8
0
 10
4.15831
 20
3.73047
 30
0.0
 40
0.0138889
 41
0.0138889
  0
VERTEX
  8
0
 10
4.16124
 20
3.37608
 30
0.0
 40
0.0138889
 41
0.0138889
  0
VERTEX
  8
0
 10
4.1244
 20
3.37608
 30
0.0
 40
0.0138889
 41
0.0138889
  0
SEQEND
 8
0
  0
POLYLINE
  8
0
 62
     0
 66
     1
 10
0
 20
0
 30
0.0
 70
     1
 40
1
 41
1
  0
VERTEX
  8
0
 10
4.03043
 20
3.82796
 30
0.0
 40
0.0138889
 41
0.0138889
  0
VERTEX
  8
0
 10
3.96739
 20
4.09489
 30
0.0
 40
0.0138889
 41
0.0138889
  0
VERTEX
  8
0
 10
3.90603
 20
4.36843
 30
0.0
 40
0.0138889
 41
0.0138889
  0
VERTEX
  8
0
 10
3.90338
 20
4.36843
 30
0.0
 40
0.0138889
 41
0.0138889
  0
VERTEX
  8
0
 10
3.90978
 20
4.30279
 30
0.0
 40
0.0138889
 41
0.0138889
  0
VERTEX
  8
0
 10
3.91667
 20
4.2219
 30
0.0
 40
0.0138889
 41
0.0138889
  0
VERTEX
  8
0
 10
3.92258
 20
4.1404
 30
0.0
 40
0.0138889
 41
0.0138889
  0
VERTEX
  8
0
 10
3.92611
 20
4.07297
 30
0.0
 40
0.0138889
 41
0.0138889
  0
VERTEX
  8
0
 10
3.93408
 20
3.82796
 30
0.0
 40
0.0138889
 41
0.0138889
  0
VERTEX
  8
0
 10
3.84267
 20
3.82796
 30
0.0
 40
0.0138889
 41
0.0138889
  0
VERTEX
  8
0
 10
3.80675
 20
4.66971
 30
0.0
 40
0.0138889
 41
0.0138889
  0
VERTEX
  8
0
 10
3.90121
 20
4.66971
 30
0.0
 40
0.0138889
 41
0.0138889
  0
VERTEX
  8
0
 10
3.96783
 20
4.40614
 30
0.0
 40
0.0138889
 41
0.0138889
  0
VERTEX
  8
0
 10
4.02881
 20
4.12918
 30
0.0
 40
0.0138889
 41
0.0138889
  0
VERTEX
  8
0
 10
4.03136
 20
4.12918
 30
0.0
 40
0.0138889
 41
0.0138889
  0
VERTEX
  8
0
 10
4.02572
 20
4.19488
 30
0.0
 40
0.0138889
 41
0.0138889
  0
VERTEX
  8
0
 10
4.01975
 20
4.27582
 30
0.0
 40
0.0138889
 41
0.0138889
  0
VERTEX
  8
0
 10
4.01471
 20
4.35732
 30
0.0
 40
0.0138889
 41
0.0138889
  0
VERTEX
  8
0
 10
4.01193
 20
4.42469
 30
0.0
 40
0.0138889
 41
0.0138889
  0
VERTEX
  8
0
 10
4.0064
 20
4.66971
 30
0.0
 40
0.0138889
 41
0.0138889
  0
VERTEX
  8
0
 10
4.10622
 20
4.66971
 30
0.0
 40
0.0138889
 41
0.0138889
  0
VERTEX
  8
0
 10
4.11686
 20
3.82796
 30
0.0
 40
0.0138889
 41
0.0138889
  0
VERTEX
  8
0
 10
4.03043
 20
3.82796
 30
0.0
 40
0.0138889
 41
0.0138889
  0
SEQEND
 8
0
  0
POLYLINE
  8
0
 62
     0
 66
     1
 10
0
 20
0
 30
0.0
 70
     1
 40
1
 41
1
  0
VERTEX
  8
0
 10
3.84267
 20
3.37679
 30
0.0
 40
0.0138889
 41
0.0138889
  0
VERTEX
  8
0
 10
3.82101
 20
3.38118
 30
0.0
 40
0.0138889
 41
0.0138889
  0
VERTEX
  8
0
 10
3.80285
 20
3.39301
 30
0.0
 40
0.0138889
 41
0.0138889
  0
VERTEX
  8
0
 10
3.7901
 20
3.41058
 30
0.0
 40
0.0138889
 41
0.0138889
  0
VERTEX
  8
0
 10
3.78467
 20
3.43197
 30
0.0
 40
0.0138889
 41
0.0138889
  0
VERTEX
  8
0
 10
3.77175
 20
3.6824
 30
0.0
 40
0.0138889
 41
0.0138889
  0
VERTEX
  8
0
 10
3.77517
 20
3.70383
 30
0.0
 40
0.0138889
 41
0.0138889
  0
VERTEX
  8
0
 10
3.78662
 20
3.72136
 30
0.0
 40
0.0138889
 41
0.0138889
  0
VERTEX
  8
0
 10
3.80425
 20
3.73318
 30
0.0
 40
0.0138889
 41
0.0138889
  0
VERTEX
  8
0
 10
3.82639
 20
3.73753
 30
0.0
 40
0.0138889
 41
0.0138889
  0
VERTEX
  8
0
 10
3.84885
 20
3.73318
 30
0.0
 40
0.0138889
 41
0.0138889
  0
VERTEX
  8
0
 10
3.86757
 20
3.72131
 30
0.0
 40
0.0138889
 41
0.0138889
  0
VERTEX
  8
0
 10
3.88058
 20
3.70372
 30
0.0
 40
0.0138889
 41
0.0138889
  0
VERTEX
  8
0
 10
3.88596
 20
3.68229
 30
0.0
 40
0.0138889
 41
0.0138889
  0
VERTEX
  8
0
 10
3.88753
 20
3.64187
 30
0.0
 40
0.0138889
 41
0.0138889
  0
VERTEX
  8
0
 10
3.84961
 20
3.64187
 30
0.0
 40
0.0138889
 41
0.0138889
  0
VERTEX
  8
0
 10
3.84722
 20
3.69504
 30
0.0
 40
0.0138889
 41
0.0138889
  0
VERTEX
  8
0
 10
3.80908
 20
3.69504
 30
0.0
 40
0.0138889
 41
0.0138889
  0
VERTEX
  8
0
 10
3.82238
 20
3.42036
 30
0.0
 40
0.0138889
 41
0.0138889
  0
VERTEX
  8
0
 10
3.85932
 20
3.42036
 30
0.0
 40
0.0138889
 41
0.0138889
  0
VERTEX
  8
0
 10
3.85693
 20
3.47353
 30
0.0
 40
0.0138889
 41
0.0138889
  0
VERTEX
  8
0
 10
3.8941
 20
3.47353
 30
0.0
 40
0.0138889
 41
0.0138889
  0
VERTEX
  8
0
 10
3.89567
 20
3.43261
 30
0.0
 40
0.0138889
 41
0.0138889
  0
VERTEX
  8
0
 10
3.89214
 20
3.41114
 30
0.0
 40
0.0138889
 41
0.0138889
  0
VERTEX
  8
0
 10
3.88097
 20
3.39333
 30
0.0
 40
0.0138889
 41
0.0138889
  0
VERTEX
  8
0
 10
3.86388
 20
3.38129
 30
0.0
 40
0.0138889
 41
0.0138889
  0
VERTEX
  8
0
 10
3.84267
 20
3.37679
 30
0.0
 40
0.0138889
 41
0.0138889
  0
SEQEND
 8
0
  0
POLYLINE
  8
0
 62
     0
 66
     1
 10
0
 20
0
 30
0.0
 70
     1
 40
1
 41
1
  0
VERTEX
  8
0
 10
3.67258
 20
4.73172
 30
0.0
 40
0.0138889
 41
0.0138889
  0
VERTEX
  8
0
 10
3.65711
 20
5.0064
 30
0.0
 40
0.0138889
 41
0.0138889
  0
VERTEX
  8
0
 10
3.58111
 20
5.0064
 30
0.0
 40
0.0138889
 41
0.0138889
  0
VERTEX
  8
0
 10
3.59868
 20
4.73172
 30
0.0
 40
0.0138889
 41
0.0138889
  0
VERTEX
  8
0
 10
3.52474
 20
4.73172
 30
0.0
 40
0.0138889
 41
0.0138889
  0
VERTEX
  8
0
 10
3.48747
 20
5.25581
 30
0.0
 40
0.0138889
 41
0.0138889
  0
VERTEX
  8
0
 10
3.49408
 20
5.29275
 30
0.0
 40
0.0138889
 41
0.0138889
  0
VERTEX
  8
0
 10
3.51725
 20
5.3226
 30
0.0
 40
0.0138889
 41
0.0138889
  0
VERTEX
  8
0
 10
3.55328
 20
5.3425
 30
0.0
 40
0.0138889
 41
0.0138889
  0
VERTEX
  8
0
 10
3.59847
 20
5.34978
 30
0.0
 40
0.0138889
 41
0.0138889
  0
VERTEX
  8
0
 10
3.64453
 20
5.3425
 30
0.0
 40
0.0138889
 41
0.0138889
  0
VERTEX
  8
0
 10
3.68294
 20
5.3226
 30
0.0
 40
0.0138889
 41
0.0138889
  0
VERTEX
  8
0
 10
3.70975
 20
5.29275
 30
0.0
 40
0.0138889
 41
0.0138889
  0
VERTEX
  8
0
 10
3.72092
 20
5.25581
 30
0.0
 40
0.0138889
 41
0.0138889
  0
VERTEX
  8
0
 10
3.74647
 20
4.73172
 30
0.0
 40
0.0138889
 41
0.0138889
  0
VERTEX
  8
0
 10
3.67258
 20
4.73172
 30
0.0
 40
0.0138889
 41
0.0138889
  0
SEQEND
 8
0
  0
POLYLINE
  8
0
 62
     0
 66
     1
 10
0
 20
0
 30
0.0
 70
     1
 40
1
 41
1
  0
VERTEX
  8
0
 10
3.59
 20
3.82471
 30
0.0
 40
0.0138889
 41
0.0138889
  0
VERTEX
  8
0
 10
3.53592
 20
3.83501
 30
0.0
 40
0.0138889
 41
0.0138889
  0
VERTEX
  8
0
 10
3.4899
 20
3.86307
 30
0.0
 40
0.0138889
 41
0.0138889
  0
VERTEX
  8
0
 10
3.45692
 20
3.90451
 30
0.0
 40
0.0138889
 41
0.0138889
  0
VERTEX
  8
0
 10
3.44179
 20
3.95503
 30
0.0
 40
0.0138889
 41
0.0138889
  0
VERTEX
  8
0
 10
3.38049
 20
4.66971
 30
0.0
 40
0.0138889
 41
0.0138889
  0
VERTEX
  8
0
 10
3.48031
 20
4.66971
 30
0.0
 40
0.0138889
 41
0.0138889
  0
VERTEX
  8
0
 10
3.53722
 20
3.91656
 30
0.0
 40
0.0138889
 41
0.0138889
  0
VERTEX
  8
0
 10
3.6295
 20
3.91656
 30
0.0
 40
0.0138889
 41
0.0138889
  0
VERTEX
  8
0
 10
3.58014
 20
4.66971
 30
0.0
 40
0.0138889
 41
0.0138889
  0
VERTEX
  8
0
 10
3.67996
 20
4.66971
 30
0.0
 40
0.0138889
 41
0.0138889
  0
VERTEX
  8
0
 10
3.71972
 20
3.95508
 30
0.0
 40
0.0138889
 41
0.0138889
  0
VERTEX
  8
0
 10
3.71169
 20
3.90451
 30
0.0
 40
0.0138889
 41
0.0138889
  0
VERTEX
  8
0
 10
3.68457
 20
3.86307
 30
0.0
 40
0.0138889
 41
0.0138889
  0
VERTEX
  8
0
 10
3.64258
 20
3.83501
 30
0.0
 40
0.0138889
 41
0.0138889
  0
VERTEX
  8
0
 10
3.59
 20
3.82471
 30
0.0
 40
0.0138889
 41
0.0138889
  0
SEQEND
 8
0
  0
POLYLINE
  8
0
 62
     0
 66
     1
 10
0
 20
0
 30
0.0
 70
     1
 40
1
 41
1
  0
VERTEX
  8
0
 10
3.49675
 20
3.37679
 30
0.0
 40
0.0138889
 41
0.0138889
  0
VERTEX
  8
0
 10
3.47487
 20
3.38118
 30
0.0
 40
0.0138889
 41
0.0138889
  0
VERTEX
  8
0
 10
3.45628
 20
3.39301
 30
0.0
 40
0.0138889
 41
0.0138889
  0
VERTEX
  8
0
 10
3.44282
 20
3.41058
 30
0.0
 40
0.0138889
 41
0.0138889
  0
VERTEX
  8
0
 10
3.43653
 20
3.43197
 30
0.0
 40
0.0138889
 41
0.0138889
  0
VERTEX
  8
0
 10
3.41357
 20
3.68246
 30
0.0
 40
0.0138889
 41
0.0138889
  0
VERTEX
  8
0
 10
3.41613
 20
3.70389
 30
0.0
 40
0.0138889
 41
0.0138889
  0
VERTEX
  8
0
 10
3.42686
 20
3.72146
 30
0.0
 40
0.0138889
 41
0.0138889
  0
VERTEX
  8
0
 10
3.44407
 20
3.73329
 30
0.0
 40
0.0138889
 41
0.0138889
  0
VERTEX
  8
0
 10
3.46599
 20
3.73763
 30
0.0
 40
0.0138889
 41
0.0138889
  0
VERTEX
  8
0
 10
3.48861
 20
3.73329
 30
0.0
 40
0.0138889
 41
0.0138889
  0
VERTEX
  8
0
 10
3.50781
 20
3.72146
 30
0.0
 40
0.0138889
 41
0.0138889
  0
VERTEX
  8
0
 10
3.52154
 20
3.70389
 30
0.0
 40
0.0138889
 41
0.0138889
  0
VERTEX
  8
0
 10
3.52778
 20
3.68246
 30
0.0
 40
0.0138889
 41
0.0138889
  0
VERTEX
  8
0
 10
3.54753
 20
3.43197
 30
0.0
 40
0.0138889
 41
0.0138889
  0
VERTEX
  8
0
 10
3.54482
 20
3.41058
 30
0.0
 40
0.0138889
 41
0.0138889
  0
VERTEX
  8
0
 10
3.5344
 20
3.39301
 30
0.0
 40
0.0138889
 41
0.0138889
  0
VERTEX
  8
0
 10
3.51779
 20
3.38118
 30
0.0
 40
0.0138889
 41
0.0138889
  0
VERTEX
  8
0
 10
3.49675
 20
3.37679
 30
0.0
 40
0.0138889
 41
0.0138889
  0
SEQEND
 8
0
  0
POLYLINE
  8
0
 62
     0
 66
     1
 10
0
 20
0
 30
0.0
 70
     1
 40
1
 41
1
  0
VERTEX
  8
0
 10
3.26465
 20
3.82796
 30
0.0
 40
0.0138889
 41
0.0138889
  0
VERTEX
  8
0
 10
3.24783
 20
3.85915
 30
0.0
 40
0.0138889
 41
0.0138889
  0
VERTEX
  8
0
 10
3.23813
 20
3.8929
 30
0.0
 40
0.0138889
 41
0.0138889
  0
VERTEX
  8
0
 10
3.2041
 20
4.20899
 30
0.0
 40
0.0138889
 41
0.0138889
  0
VERTEX
  8
0
 10
3.10894
 20
4.20899
 30
0.0
 40
0.0138889
 41
0.0138889
  0
VERTEX
  8
0
 10
3.15349
 20
3.82796
 30
0.0
 40
0.0138889
 41
0.0138889
  0
VERTEX
  8
0
 10
3.06207
 20
3.82796
 30
0.0
 40
0.0138889
 41
0.0138889
  0
VERTEX
  8
0
 10
2.95421
 20
4.66971
 30
0.0
 40
0.0138889
 41
0.0138889
  0
VERTEX
  8
0
 10
3.15386
 20
4.66971
 30
0.0
 40
0.0138889
 41
0.0138889
  0
VERTEX
  8
0
 10
3.19347
 20
4.66292
 30
0.0
 40
0.0138889
 41
0.0138889
  0
VERTEX
  8
0
 10
3.227
 20
4.64426
 30
0.0
 40
0.0138889
 41
0.0138889
  0
VERTEX
  8
0
 10
3.25108
 20
4.61664
 30
0.0
 40
0.0138889
 41
0.0138889
  0
VERTEX
  8
0
 10
3.26226
 20
4.58274
 30
0.0
 40
0.0138889
 41
0.0138889
  0
VERTEX
  8
0
 10
3.28842
 20
4.31739
 30
0.0
 40
0.0138889
 41
0.0138889
  0
VERTEX
  8
0
 10
3.28749
 20
4.29178
 30
0.0
 40
0.0138889
 41
0.0138889
  0
VERTEX
  8
0
 10
3.28011
 20
4.27344
 30
0.0
 40
0.0138889
 41
0.0138889
  0
VERTEX
  8
0
 10
3.26779
 20
4.26036
 30
0.0
 40
0.0138889
 41
0.0138889
  0
VERTEX
  8
0
 10
3.25233
 20
4.25054
 30
0.0
 40
0.0138889
 41
0.0138889
  0
VERTEX
  8
0
 10
3.26958
 20
4.24224
 30
0.0
 40
0.0138889
 41
0.0138889
  0
VERTEX
  8
0
 10
3.28456
 20
4.22814
 30
0.0
 40
0.0138889
 41
0.0138889
  0
VERTEX
  8
0
 10
3.29596
 20
4.20583
 30
0.0
 40
0.0138889
 41
0.0138889
  0
VERTEX
  8
0
 10
3.30263
 20
4.17312
 30
0.0
 40
0.0138889
 41
0.0138889
  0
VERTEX
  8
0
 10
3.33018
 20
3.89199
 30
0.0
 40
0.0138889
 41
0.0138889
  0
VERTEX
  8
0
 10
3.33979
 20
3.86117
 30
0.0
 40
0.0138889
 41
0.0138889
  0
VERTEX
  8
0
 10
3.3585
 20
3.82796
 30
0.0
 40
0.0138889
 41
0.0138889
  0
VERTEX
  8
0
 10
3.26465
 20
3.82796
 30
0.0
 40
0.0138889
 41
0.0138889
  0
SEQEND
 8
0
  0
POLYLINE
  8
0
 62
     0
 66
     1
 10
0
 20
0
 30
0.0
 70
     1
 40
1
 41
1
  0
VERTEX
  8
0
 10
3.15082
 20
3.37711
 30
0.0
 40
0.0138889
 41
0.0138889
  0
VERTEX
  8
0
 10
3.12879
 20
3.38157
 30
0.0
 40
0.0138889
 41
0.0138889
  0
VERTEX
  8
0
 10
3.10969
 20
3.3935
 30
0.0
 40
0.0138889
 41
0.0138889
  0
VERTEX
  8
0
 10
3.09554
 20
3.41118
 30
0.0
 40
0.0138889
 41
0.0138889
  0
VERTEX
  8
0
 10
3.08838
 20
3.43261
 30
0.0
 40
0.0138889
 41
0.0138889
  0
VERTEX
  8
0
 10
3.08306
 20
3.47353
 30
0.0
 40
0.0138889
 41
0.0138889
  0
VERTEX
  8
0
 10
3.12028
 20
3.47353
 30
0.0
 40
0.0138889
 41
0.0138889
  0
VERTEX
  8
0
 10
3.12733
 20
3.42036
 30
0.0
 40
0.0138889
 41
0.0138889
  0
VERTEX
  8
0
 10
3.16428
 20
3.42036
 30
0.0
 40
0.0138889
 41
0.0138889
  0
VERTEX
  8
0
 10
3.14925
 20
3.53554
 30
0.0
 40
0.0138889
 41
0.0138889
  0
VERTEX
  8
0
 10
3.11176
 20
3.53554
 30
0.0
 40
0.0138889
 41
0.0138889
  0
VERTEX
  8
0
 10
3.08382
 20
3.5471
 30
0.0
 40
0.0138889
 41
0.0138889
  0
VERTEX
  8
0
 10
3.06944
 20
3.57394
 30
0.0
 40
0.0138889
 41
0.0138889
  0
VERTEX
  8
0
 10
3.05539
 20
3.6824
 30
0.0
 40
0.0138889
 41
0.0138889
  0
VERTEX
  8
0
 10
3.05707
 20
3.70383
 30
0.0
 40
0.0138889
 41
0.0138889
  0
VERTEX
  8
0
 10
3.06717
 20
3.72136
 30
0.0
 40
0.0138889
 41
0.0138889
  0
VERTEX
  8
0
 10
3.08388
 20
3.73318
 30
0.0
 40
0.0138889
 41
0.0138889
  0
VERTEX
  8
0
 10
3.10562
 20
3.73753
 30
0.0
 40
0.0138889
 41
0.0138889
  0
VERTEX
  8
0
 10
3.12842
 20
3.73318
 30
0.0
 40
0.0138889
 41
0.0138889
  0
VERTEX
  8
0
 10
3.14806
 20
3.72131
 30
0.0
 40
0.0138889
 41
0.0138889
  0
VERTEX
  8
0
 10
3.16254
 20
3.70372
 30
0.0
 40
0.0138889
 41
0.0138889
  0
VERTEX
  8
0
 10
3.16965
 20
3.68229
 30
0.0
 40
0.0138889
 41
0.0138889
  0
VERTEX
  8
0
 10
3.17443
 20
3.64187
 30
0.0
 40
0.0138889
 41
0.0138889
  0
VERTEX
  8
0
 10
3.1365
 20
3.64187
 30
0.0
 40
0.0138889
 41
0.0138889
  0
VERTEX
  8
0
 10
3.12967
 20
3.69504
 30
0.0
 40
0.0138889
 41
0.0138889
  0
VERTEX
  8
0
 10
3.09153
 20
3.69504
 30
0.0
 40
0.0138889
 41
0.0138889
  0
VERTEX
  8
0
 10
3.1071
 20
3.57986
 30
0.0
 40
0.0138889
 41
0.0138889
  0
VERTEX
  8
0
 10
3.14469
 20
3.57986
 30
0.0
 40
0.0138889
 41
0.0138889
  0
VERTEX
  8
0
 10
3.17264
 20
3.56808
 30
0.0
 40
0.0138889
 41
0.0138889
  0
VERTEX
  8
0
 10
3.18674
 20
3.54096
 30
0.0
 40
0.0138889
 41
0.0138889
  0
VERTEX
  8
0
 10
3.19943
 20
3.43321
 30
0.0
 40
0.0138889
 41
0.0138889
  0
VERTEX
  8
0
 10
3.1976
 20
3.41168
 30
0.0
 40
0.0138889
 41
0.0138889
  0
VERTEX
  8
0
 10
3.18782
 20
3.39382
 30
0.0
 40
0.0138889
 41
0.0138889
  0
VERTEX
  8
0
 10
3.17165
 20
3.38163
 30
0.0
 40
0.0138889
 41
0.0138889
  0
VERTEX
  8
0
 10
3.15082
 20
3.37711
 30
0.0
 40
0.0138889
 41
0.0138889
  0
SEQEND
 8
0
  0
POLYLINE
  8
0
 62
     0
 66
     1
 10
0
 20
0
 30
0.0
 70
     1
 40
1
 41
1
  0
VERTEX
  8
0
 10
2.93343
 20
4.73172
 30
0.0
 40
0.0138889
 41
0.0138889
  0
VERTEX
  8
0
 10
2.85319
 20
5.3431
 30
0.0
 40
0.0138889
 41
0.0138889
  0
VERTEX
  8
0
 10
3.01019
 20
5.3431
 30
0.0
 40
0.0138889
 41
0.0138889
  0
VERTEX
  8
0
 10
3.04129
 20
5.33826
 30
0.0
 40
0.0138889
 41
0.0138889
  0
VERTEX
  8
0
 10
3.06771
 20
5.32487
 30
0.0
 40
0.0138889
 41
0.0138889
  0
VERTEX
  8
0
 10
3.08669
 20
5.3049
 30
0.0
 40
0.0138889
 41
0.0138889
  0
VERTEX
  8
0
 10
3.09554
 20
5.28006
 30
0.0
 40
0.0138889
 41
0.0138889
  0
VERTEX
  8
0
 10
3.1166
 20
5.08572
 30
0.0
 40
0.0138889
 41
0.0138889
  0
VERTEX
  8
0
 10
3.11003
 20
5.0535
 30
0.0
 40
0.0138889
 41
0.0138889
  0
VERTEX
  8
0
 10
3.08794
 20
5.03674
 30
0.0
 40
0.0138889
 41
0.0138889
  0
VERTEX
  8
0
 10
3.10172
 20
5.03071
 30
0.0
 40
0.0138889
 41
0.0138889
  0
VERTEX
  8
0
 10
3.11367
 20
5.02051
 30
0.0
 40
0.0138889
 41
0.0138889
  0
VERTEX
  8
0
 10
3.12272
 20
5.00424
 30
0.0
 40
0.0138889
 41
0.0138889
  0
VERTEX
  8
0
 10
3.12804
 20
4.98019
 30
0.0
 40
0.0138889
 41
0.0138889
  0
VERTEX
  8
0
 10
3.15022
 20
4.77561
 30
0.0
 40
0.0138889
 41
0.0138889
  0
VERTEX
  8
0
 10
3.15804
 20
4.75054
 30
0.0
 40
0.0138889
 41
0.0138889
  0
VERTEX
  8
0
 10
3.17318
 20
4.73172
 30
0.0
 40
0.0138889
 41
0.0138889
  0
VERTEX
  8
0
 10
3.09722
 20
4.73172
 30
0.0
 40
0.0138889
 41
0.0138889
  0
VERTEX
  8
0
 10
3.08371
 20
4.75168
 30
0.0
 40
0.0138889
 41
0.0138889
  0
VERTEX
  8
0
 10
3.07596
 20
4.77664
 30
0.0
 40
0.0138889
 41
0.0138889
  0
VERTEX
  8
0
 10
3.04937
 20
5.0064
 30
0.0
 40
0.0138889
 41
0.0138889
  0
VERTEX
  8
0
 10
2.97342
 20
5.0064
 30
0.0
 40
0.0138889
 41
0.0138889
  0
VERTEX
  8
0
 10
3.00738
 20
4.73172
 30
0.0
 40
0.0138889
 41
0.0138889
  0
VERTEX
  8
0
 10
2.93343
 20
4.73172
 30
0.0
 40
0.0138889
 41
0.0138889
  0
SEQEND
 8
0
  0
POLYLINE
  8
0
 62
     0
 66
     1
 10
0
 20
0
 30
0.0
 70
     1
 40
1
 41
1
  0
VERTEX
  8
0
 10
3.2844
 20
5.34978
 30
0.0
 40
0.0138889
 41
0.0138889
  0
VERTEX
  8
0
 10
3.33068
 20
5.34224
 30
0.0
 40
0.0138889
 41
0.0138889
  0
VERTEX
  8
0
 10
3.36974
 20
5.32161
 30
0.0
 40
0.0138889
 41
0.0138889
  0
VERTEX
  8
0
 10
3.3974
 20
5.29113
 30
0.0
 40
0.0138889
 41
0.0138889
  0
VERTEX
  8
0
 10
3.40967
 20
5.2539
 30
0.0
 40
0.0138889
 41
0.0138889
  0
VERTEX
  8
0
 10
3.44374
 20
4.81863
 30
0.0
 40
0.0138889
 41
0.0138889
  0
VERTEX
  8
0
 10
3.43787
 20
4.78147
 30
0.0
 40
0.0138889
 41
0.0138889
  0
VERTEX
  8
0
 10
3.41644
 20
4.75097
 30
0.0
 40
0.0138889
 41
0.0138889
  0
VERTEX
  8
0
 10
3.38281
 20
4.73036
 30
0.0
 40
0.0138889
 41
0.0138889
  0
VERTEX
  8
0
 10
3.34044
 20
4.72276
 30
0.0
 40
0.0138889
 41
0.0138889
  0
VERTEX
  8
0
 10
3.29665
 20
4.73036
 30
0.0
 40
0.0138889
 41
0.0138889
  0
VERTEX
  8
0
 10
3.25933
 20
4.75097
 30
0.0
 40
0.0138889
 41
0.0138889
  0
VERTEX
  8
0
 10
3.23242
 20
4.78147
 30
0.0
 40
0.0138889
 41
0.0138889
  0
VERTEX
  8
0
 10
3.22
 20
4.81863
 30
0.0
 40
0.0138889
 41
0.0138889
  0
VERTEX
  8
0
 10
3.17626
 20
5.2539
 30
0.0
 40
0.0138889
 41
0.0138889
  0
VERTEX
  8
0
 10
3.18181
 20
5.29113
 30
0.0
 40
0.0138889
 41
0.0138889
  0
VERTEX
  8
0
 10
3.20404
 20
5.32161
 30
0.0
 40
0.0138889
 41
0.0138889
  0
VERTEX
  8
0
 10
3.23942
 20
5.34224
 30
0.0
 40
0.0138889
 41
0.0138889
  0
VERTEX
  8
0
 10
3.2844
 20
5.34978
 30
0.0
 40
0.0138889
 41
0.0138889
  0
SEQEND
 8
0
  0
POLYLINE
  8
0
 62
     0
 66
     1
 10
0
 20
0
 30
0.0
 70
     1
 40
1
 41
1
  0
VERTEX
  8
0
 10
3.95193
 20
5.3431
 30
0.0
 40
0.0138889
 41
0.0138889
  0
VERTEX
  8
0
 10
3.98264
 20
5.33838
 30
0.0
 40
0.0138889
 41
0.0138889
  0
VERTEX
  8
0
 10
4.00781
 20
5.32531
 30
0.0
 40
0.0138889
 41
0.0138889
  0
VERTEX
  8
0
 10
4.02501
 20
5.30556
 30
0.0
 40
0.0138889
 41
0.0138889
  0
VERTEX
  8
0
 10
4.03163
 20
5.28087
 30
0.0
 40
0.0138889
 41
0.0138889
  0
VERTEX
  8
0
 10
4.04096
 20
4.79372
 30
0.0
 40
0.0138889
 41
0.0138889
  0
VERTEX
  8
0
 10
4.03558
 20
4.76915
 30
0.0
 40
0.0138889
 41
0.0138889
  0
VERTEX
  8
0
 10
4.02018
 20
4.74946
 30
0.0
 40
0.0138889
 41
0.0138889
  0
VERTEX
  8
0
 10
3.99696
 20
4.73643
 30
0.0
 40
0.0138889
 41
0.0138889
  0
VERTEX
  8
0
 10
3.96826
 20
4.73172
 30
0.0
 40
0.0138889
 41
0.0138889
  0
VERTEX
  8
0
 10
3.82042
 20
4.73172
 30
0.0
 40
0.0138889
 41
0.0138889
  0
VERTEX
  8
0
 10
3.79497
 20
5.3431
 30
0.0
 40
0.0138889
 41
0.0138889
  0
VERTEX
  8
0
 10
3.95193
 20
5.3431
 30
0.0
 40
0.0138889
 41
0.0138889
  0
SEQEND
 8
0
  0
POLYLINE
  8
0
 62
     0
 66
     1
 10
0
 20
0
 30
0.0
 70
     1
 40
1
 41
1
  0
VERTEX
  8
0
 10
5.68251
 20
5.68431
 30
0.0
 40
0.0138889
 41
0.0138889
  0
VERTEX
  8
0
 10
5.60781
 20
5.61426
 30
0.0
 40
0.0138889
 41
0.0138889
  0
VERTEX
  8
0
 10
5.51503
 20
5.56153
 30
0.0
 40
0.0138889
 41
0.0138889
  0
VERTEX
  8
0
 10
5.40744
 20
5.5275
 30
0.0
 40
0.0138889
 41
0.0138889
  0
VERTEX
  8
0
 10
5.28831
 20
5.51351
 30
0.0
 40
0.0138889
 41
0.0138889
  0
VERTEX
  8
0
 10
5.28847
 20
5.51303
 30
0.0
 40
0.0138889
 41
0.0138889
  0
VERTEX
  8
0
 10
2.5816
 20
5.51303
 30
0.0
 40
0.0138889
 41
0.0138889
  0
VERTEX
  8
0
 10
2.94319
 20
3.28017
 30
0.0
 40
0.0138889
 41
0.0138889
  0
VERTEX
  8
0
 10
5.34065
 20
3.28017
 30
0.0
 40
0.0138889
 41
0.0138889
  0
VERTEX
  8
0
 10
5.75168
 20
5.81879
 30
0.0
 40
0.0138889
 41
0.0138889
  0
VERTEX
  8
0
 10
5.72499
 20
5.74881
 30
0.0
 40
0.0138889
 41
0.0138889
  0
VERTEX
  8
0
 10
5.68251
 20
5.68431
 30
0.0
 40
0.0138889
 41
0.0138889
  0
SEQEND
 8
0
  0
POLYLINE
  8
0
 62
     0
 66
     1
 10
0
 20
0
 30
0.0
 70
     1
 40
0
 41
0
  0
VERTEX
  8
0
 10
3.45031
 20
3.69444
 30
0.0
 40
0
 41
0
  0
VERTEX
  8
0
 10
3.47487
 20
3.41667
 30
0.0
 40
0
 41
0
  0
VERTEX
  8
0
 10
3.51183
 20
3.41667
 30
0.0
 40
0
 41
0
  0
VERTEX
  8
0
 10
3.48844
 20
3.69444
 30
0.0
 40
0
 41
0
  0
VERTEX
  8
0
 10
3.45031
 20
3.69444
 30
0.0
 40
0
 41
0
  0
SEQEND
 8
0
  0
POLYLINE
  8
0
 62
     0
 66
     1
 10
0
 20
0
 30
0.0
 70
     1
 40
1
 41
1
  0
VERTEX
  8
0
 10
3.45031
 20
3.69444
 30
0.0
 40
0.0138889
 41
0.0138889
  0
VERTEX
  8
0
 10
3.47487
 20
3.41667
 30
0.0
 40
0.0138889
 41
0.0138889
  0
VERTEX
  8
0
 10
3.51183
 20
3.41667
 30
0.0
 40
0.0138889
 41
0.0138889
  0
VERTEX
  8
0
 10
3.48844
 20
3.69444
 30
0.0
 40
0.0138889
 41
0.0138889
  0
VERTEX
  8
0
 10
3.45031
 20
3.69444
 30
0.0
 40
0.0138889
 41
0.0138889
  0
SEQEND
 8
0
  0
POLYLINE
  8
0
 62
     0
 66
     1
 10
0
 20
0
 30
0.0
 70
     1
 40
0
 41
0
  0
VERTEX
  8
0
 10
5.12603
 20
4.29167
 30
0.0
 40
0
 41
0
  0
VERTEX
  8
0
 10
5.22206
 20
4.29167
 30
0.0
 40
0
 41
0
  0
VERTEX
  8
0
 10
5.25196
 20
4.58333
 30
0.0
 40
0
 41
0
  0
VERTEX
  8
0
 10
5.153
 20
4.58333
 30
0.0
 40
0
 41
0
  0
VERTEX
  8
0
 10
5.12603
 20
4.29167
 30
0.0
 40
0
 41
0
  0
SEQEND
 8
0
  0
POLYLINE
  8
0
 62
     0
 66
     1
 10
0
 20
0
 30
0.0
 70
     1
 40
1
 41
1
  0
VERTEX
  8
0
 10
5.12603
 20
4.29167
 30
0.0
 40
0.0138889
 41
0.0138889
  0
VERTEX
  8
0
 10
5.22206
 20
4.29167
 30
0.0
 40
0.0138889
 41
0.0138889
  0
VERTEX
  8
0
 10
5.25196
 20
4.58333
 30
0.0
 40
0.0138889
 41
0.0138889
  0
VERTEX
  8
0
 10
5.153
 20
4.58333
 30
0.0
 40
0.0138889
 41
0.0138889
  0
VERTEX
  8
0
 10
5.12603
 20
4.29167
 30
0.0
 40
0.0138889
 41
0.0138889
  0
SEQEND
 8
0
  0
POLYLINE
  8
0
 62
     0
 66
     1
 10
0
 20
0
 30
0.0
 70
     1
 40
0
 41
0
  0
VERTEX
  8
0
 10
5.66
 20
5.94997
 30
0.0
 40
0
 41
0
  0
VERTEX
  8
0
 10
5.53179
 20
6.60758
 30
0.0
 40
0
 41
0
  0
VERTEX
  8
0
 10
5.49403
 20
6.69586
 30
0.0
 40
0
 41
0
  0
VERTEX
  8
0
 10
5.42399
 20
6.76779
 30
0.0
 40
0
 41
0
  0
VERTEX
  8
0
 10
5.33132
 20
6.81625
 30
0.0
 40
0
 41
0
  0
VERTEX
  8
0
 10
5.22575
 20
6.83393
 30
0.0
 40
0
 41
0
  0
VERTEX
  8
0
 10
4.96386
 20
6.83393
 30
0.0
 40
0
 41
0
  0
VERTEX
  8
0
 10
4.87088
 20
7.58626
 30
0.0
 40
0
 41
0
  0
VERTEX
  8
0
 10
5.1059
 20
7.58626
 30
0.0
 40
0
 41
0
  0
VERTEX
  8
0
 10
5.16049
 20
7.24376
 30
0.0
 40
0
 41
0
  0
VERTEX
  8
0
 10
5.19792
 20
7.00896
 30
0.0
 40
0
 41
0
  0
VERTEX
  8
0
 10
5.45356
 20
7.00896
 30
0.0
 40
0
 41
0
  0
VERTEX
  8
0
 10
5.40776
 20
7.24376
 30
0.0
 40
0
 41
0
  0
VERTEX
  8
0
 10
5.35943
 20
7.49149
 30
0.0
 40
0
 41
0
  0
VERTEX
  8
0
 10
5.33919
 20
7.55968
 30
0.0
 40
0
 41
0
  0
VERTEX
  8
0
 10
5.30692
 20
7.62326
 30
0.0
 40
0
 41
0
  0
VERTEX
  8
0
 10
5.26426
 20
7.68093
 30
0.0
 40
0
 41
0
  0
VERTEX
  8
0
 10
5.21289
 20
7.73122
 30
0.0
 40
0
 41
0
  0
VERTEX
  8
0
 10
5.15451
 20
7.77279
 30
0.0
 40
0
 41
0
  0
VERTEX
  8
0
 10
5.09071
 20
7.80419
 30
0.0
 40
0
 41
0
  0
VERTEX
  8
0
 10
5.02328
 20
7.82411
 30
0.0
 40
0
 41
0
  0
VERTEX
  8
0
 10
4.95378
 20
7.831
 30
0.0
 40
0
 41
0
  0
VERTEX
  8
0
 10
4.88618
 20
7.82411
 30
0.0
 40
0
 41
0
  0
VERTEX
  8
0
 10
4.82433
 20
7.80419
 30
0.0
 40
0
 41
0
  0
VERTEX
  8
0
 10
4.76947
 20
7.77279
 30
0.0
 40
0
 41
0
  0
VERTEX
  8
0
 10
4.72282
 20
7.73122
 30
0.0
 40
0
 41
0
  0
VERTEX
  8
0
 10
4.68565
 20
7.68093
 30
0.0
 40
0
 41
0
  0
VERTEX
  8
0
 10
4.65929
 20
7.62326
 30
0.0
 40
0
 41
0
  0
VERTEX
  8
0
 10
4.64501
 20
7.55968
 30
0.0
 40
0
 41
0
  0
VERTEX
  8
0
 10
4.6441
 20
7.49149
 30
0.0
 40
0
 41
0
  0
VERTEX
  8
0
 10
4.70199
 20
6.83393
 30
0.0
 40
0
 41
0
  0
VERTEX
  8
0
 10
4.73085
 20
6.74567
 30
0.0
 40
0
 41
0
  0
VERTEX
  8
0
 10
4.79492
 20
6.67372
 30
0.0
 40
0
 41
0
  0
VERTEX
  8
0
 10
4.88499
 20
6.62532
 30
0.0
 40
0
 41
0
  0
VERTEX
  8
0
 10
4.99186
 20
6.60758
 30
0.0
 40
0
 41
0
  0
VERTEX
  8
0
 10
5.26183
 20
6.60758
 30
0.0
 40
0
 41
0
  0
VERTEX
  8
0
 10
5.38167
 20
5.85519
 30
0.0
 40
0
 41
0
  0
VERTEX
  8
0
 10
5.08485
 20
5.85519
 30
0.0
 40
0
 41
0
  0
VERTEX
  8
0
 10
5.04249
 20
6.19775
 30
0.0
 40
0
 41
0
  0
VERTEX
  8
0
 10
5.01313
 20
6.43533
 30
0.0
 40
0
 41
0
  0
VERTEX
  8
0
 10
4.74208
 20
6.43533
 30
0.0
 40
0
 41
0
  0
VERTEX
  8
0
 10
4.75792
 20
6.19775
 30
0.0
 40
0
 41
0
  0
VERTEX
  8
0
 10
4.77968
 20
5.94997
 30
0.0
 40
0
 41
0
  0
VERTEX
  8
0
 10
4.79503
 20
5.88183
 30
0.0
 40
0
 41
0
  0
VERTEX
  8
0
 10
4.82747
 20
5.81825
 30
0.0
 40
0
 41
0
  0
VERTEX
  8
0
 10
4.87494
 20
5.76058
 30
0.0
 40
0
 41
0
  0
VERTEX
  8
0
 10
4.93549
 20
5.71029
 30
0.0
 40
0
 41
0
  0
VERTEX
  8
0
 10
5.00706
 20
5.66872
 30
0.0
 40
0
 41
0
  0
VERTEX
  8
0
 10
5.08762
 20
5.63737
 30
0.0
 40
0
 41
0
  0
VERTEX
  8
0
 10
5.17524
 20
5.61746
 30
0.0
 40
0
 41
0
  0
VERTEX
  8
0
 10
5.2679
 20
5.61051
 30
0.0
 40
0
 41
0
  0
VERTEX
  8
0
 10
5.3585
 20
5.61746
 30
0.0
 40
0
 41
0
  0
VERTEX
  8
0
 10
5.44049
 20
5.63737
 30
0.0
 40
0
 41
0
  0
VERTEX
  8
0
 10
5.51221
 20
5.66872
 30
0.0
 40
0
 41
0
  0
VERTEX
  8
0
 10
5.572
 20
5.71029
 30
0.0
 40
0
 41
0
  0
VERTEX
  8
0
 10
5.61833
 20
5.76058
 30
0.0
 40
0
 41
0
  0
VERTEX
  8
0
 10
5.64947
 20
5.81825
 30
0.0
 40
0
 41
0
  0
VERTEX
  8
0
 10
5.6639
 20
5.88183
 30
0.0
 40
0
 41
0
  0
VERTEX
  8
0
 10
5.66
 20
5.94997
 30
0.0
 40
0
 41
0
  0
SEQEND
 8
0
  0
POLYLINE
  8
0
 62
     0
 66
     1
 10
0
 20
0
 30
0.0
 70
     1
 40
0
 41
0
  0
VERTEX
  8
0
 10
4.05789
 20
6.83388
 30
0.0
 40
0
 41
0
  0
VERTEX
  8
0
 10
4.31976
 20
6.83388
 30
0.0
 40
0
 41
0
  0
VERTEX
  8
0
 10
4.29275
 20
7.58632
 30
0.0
 40
0
 41
0
  0
VERTEX
  8
0
 10
4.05772
 20
7.58632
 30
0.0
 40
0
 41
0
  0
VERTEX
  8
0
 10
4.05789
 20
6.83388
 30
0.0
 40
0
 41
0
  0
SEQEND
 8
0
  0
POLYLINE
  8
0
 62
     0
 66
     1
 10
0
 20
0
 30
0.0
 70
     1
 40
0
 41
0
  0
VERTEX
  8
0
 10
3.83068
 20
7.81261
 30
0.0
 40
0
 41
0
  0
VERTEX
  8
0
 10
4.28467
 20
7.81261
 30
0.0
 40
0
 41
0
  0
VERTEX
  8
0
 10
4.37446
 20
7.79492
 30
0.0
 40
0
 41
0
  0
VERTEX
  8
0
 10
4.45003
 20
7.74653
 30
0.0
 40
0
 41
0
  0
VERTEX
  8
0
 10
4.50375
 20
7.67458
 30
0.0
 40
0
 41
0
  0
VERTEX
  8
0
 10
4.52783
 20
7.58632
 30
0.0
 40
0
 41
0
  0
VERTEX
  8
0
 10
4.57731
 20
6.89507
 30
0.0
 40
0
 41
0
  0
VERTEX
  8
0
 10
4.57264
 20
6.82829
 30
0.0
 40
0
 41
0
  0
VERTEX
  8
0
 10
4.55051
 20
6.78039
 30
0.0
 40
0
 41
0
  0
VERTEX
  8
0
 10
4.51525
 20
6.74625
 30
0.0
 40
0
 41
0
  0
VERTEX
  8
0
 10
4.47119
 20
6.72076
 30
0.0
 40
0
 41
0
  0
VERTEX
  8
0
 10
4.5185
 20
6.69911
 30
0.0
 40
0
 41
0
  0
VERTEX
  8
0
 10
4.55886
 20
6.66228
 30
0.0
 40
0
 41
0
  0
VERTEX
  8
0
 10
4.58865
 20
6.60422
 30
0.0
 40
0
 41
0
  0
VERTEX
  8
0
 10
4.60422
 20
6.51888
 30
0.0
 40
0
 41
0
  0
VERTEX
  8
0
 10
4.65631
 20
5.79096
 30
0.0
 40
0
 41
0
  0
VERTEX
  8
0
 10
4.66515
 20
5.74756
 30
0.0
 40
0
 41
0
  0
VERTEX
  8
0
 10
4.68381
 20
5.70763
 30
0.0
 40
0
 41
0
  0
VERTEX
  8
0
 10
4.71013
 20
5.66883
 30
0.0
 40
0
 41
0
  0
VERTEX
  8
0
 10
4.74208
 20
5.62885
 30
0.0
 40
0
 41
0
  0
VERTEX
  8
0
 10
4.42899
 20
5.62885
 30
0.0
 40
0
 41
0
  0
VERTEX
  8
0
 10
4.40332
 20
5.66581
 30
0.0
 40
0
 41
0
  0
VERTEX
  8
0
 10
4.38075
 20
5.70649
 30
0.0
 40
0
 41
0
  0
VERTEX
  8
0
 10
4.36431
 20
5.74886
 30
0.0
 40
0
 41
0
  0
VERTEX
  8
0
 10
4.35721
 20
5.79096
 30
0.0
 40
0
 41
0
  0
VERTEX
  8
0
 10
4.3279
 20
6.60758
 30
0.0
 40
0
 41
0
  0
VERTEX
  8
0
 10
4.05794
 20
6.60758
 30
0.0
 40
0
 41
0
  0
VERTEX
  8
0
 10
4.05817
 20
5.62885
 30
0.0
 40
0
 41
0
  0
VERTEX
  8
0
 10
3.75325
 20
5.62885
 30
0.0
 40
0
 41
0
  0
VERTEX
  8
0
 10
3.83068
 20
7.81261
 30
0.0
 40
0
 41
0
  0
SEQEND
 8
0
  0
POLYLINE
  8
0
 62
     0
 66
     1
 10
0
 20
0
 30
0.0
 70
     1
 40
0
 41
0
  0
VERTEX
  8
0
 10
3.15192
 20
6.83388
 30
0.0
 40
0
 41
0
  0
VERTEX
  8
0
 10
3.41379
 20
6.83388
 30
0.0
 40
0
 41
0
  0
VERTEX
  8
0
 10
3.47965
 20
7.58632
 30
0.0
 40
0
 41
0
  0
VERTEX
  8
0
 10
3.24457
 20
7.58632
 30
0.0
 40
0
 41
0
  0
VERTEX
  8
0
 10
3.15192
 20
6.83388
 30
0.0
 40
0
 41
0
  0
SEQEND
 8
0
  0
POLYLINE
  8
0
 62
     0
 66
     1
 10
0
 20
0
 30
0.0
 70
     1
 40
0
 41
0
  0
VERTEX
  8
0
 10
3.04546
 20
7.81261
 30
0.0
 40
0
 41
0
  0
VERTEX
  8
0
 10
3.49946
 20
7.81261
 30
0.0
 40
0
 41
0
  0
VERTEX
  8
0
 10
3.58703
 20
7.79492
 30
0.0
 40
0
 41
0
  0
VERTEX
  8
0
 10
3.65663
 20
7.74653
 30
0.0
 40
0
 41
0
  0
VERTEX
  8
0
 10
3.70144
 20
7.67458
 30
0.0
 40
0
 41
0
  0
VERTEX
  8
0
 10
3.71468
 20
7.58632
 30
0.0
 40
0
 41
0
  0
VERTEX
  8
0
 10
3.67887
 20
6.89507
 30
0.0
 40
0
 41
0
  0
VERTEX
  8
0
 10
3.66601
 20
6.82829
 30
0.0
 40
0
 41
0
  0
VERTEX
  8
0
 10
3.63797
 20
6.78039
 30
0.0
 40
0
 41
0
  0
VERTEX
  8
0
 10
3.59847
 20
6.74625
 30
0.0
 40
0
 41
0
  0
VERTEX
  8
0
 10
3.55126
 20
6.72076
 30
0.0
 40
0
 41
0
  0
VERTEX
  8
0
 10
3.59586
 20
6.69911
 30
0.0
 40
0
 41
0
  0
VERTEX
  8
0
 10
3.63167
 20
6.66228
 30
0.0
 40
0
 41
0
  0
VERTEX
  8
0
 10
3.65429
 20
6.60422
 30
0.0
 40
0
 41
0
  0
VERTEX
  8
0
 10
3.65935
 20
6.51888
 30
0.0
 40
0
 41
0
  0
VERTEX
  8
0
 10
3.62164
 20
5.79096
 30
0.0
 40
0
 41
0
  0
VERTEX
  8
0
 10
3.62511
 20
5.74756
 30
0.0
 40
0
 41
0
  0
VERTEX
  8
0
 10
3.63883
 20
5.70763
 30
0.0
 40
0
 41
0
  0
VERTEX
  8
0
 10
3.66037
 20
5.66883
 30
0.0
 40
0
 41
0
  0
VERTEX
  8
0
 10
3.68739
 20
5.62885
 30
0.0
 40
0
 41
0
  0
VERTEX
  8
0
 10
3.37424
 20
5.62885
 30
0.0
 40
0
 41
0
  0
VERTEX
  8
0
 10
3.35319
 20
5.66581
 30
0.0
 40
0
 41
0
  0
VERTEX
  8
0
 10
3.33561
 20
5.70649
 30
0.0
 40
0
 41
0
  0
VERTEX
  8
0
 10
3.32443
 20
5.74886
 30
0.0
 40
0
 41
0
  0
VERTEX
  8
0
 10
3.32249
 20
5.79096
 30
0.0
 40
0
 41
0
  0
VERTEX
  8
0
 10
3.39399
 20
6.60758
 30
0.0
 40
0
 41
0
  0
VERTEX
  8
0
 10
3.12403
 20
6.60758
 30
0.0
 40
0
 41
0
  0
VERTEX
  8
0
 10
3.00347
 20
5.62885
 30
0.0
 40
0
 41
0
  0
VERTEX
  8
0
 10
2.69857
 20
5.62885
 30
0.0
 40
0
 41
0
  0
VERTEX
  8
0
 10
3.04546
 20
7.81261
 30
0.0
 40
0
 41
0
  0
SEQEND
 8
0
  0
POLYLINE
  8
0
 62
     0
 66
     1
 10
0
 20
0
 30
0.0
 70
     1
 40
1
 41
1
  0
VERTEX
  8
0
 10
5.66
 20
5.94997
 30
0.0
 40
0.0138889
 41
0.0138889
  0
VERTEX
  8
0
 10
5.53179
 20
6.60758
 30
0.0
 40
0.0138889
 41
0.0138889
  0
VERTEX
  8
0
 10
5.49403
 20
6.69586
 30
0.0
 40
0.0138889
 41
0.0138889
  0
VERTEX
  8
0
 10
5.42399
 20
6.76779
 30
0.0
 40
0.0138889
 41
0.0138889
  0
VERTEX
  8
0
 10
5.33132
 20
6.81625
 30
0.0
 40
0.0138889
 41
0.0138889
  0
VERTEX
  8
0
 10
5.22575
 20
6.83393
 30
0.0
 40
0.0138889
 41
0.0138889
  0
VERTEX
  8
0
 10
4.96386
 20
6.83393
 30
0.0
 40
0.0138889
 41
0.0138889
  0
VERTEX
  8
0
 10
4.87088
 20
7.58626
 30
0.0
 40
0.0138889
 41
0.0138889
  0
VERTEX
  8
0
 10
5.1059
 20
7.58626
 30
0.0
 40
0.0138889
 41
0.0138889
  0
VERTEX
  8
0
 10
5.16049
 20
7.24376
 30
0.0
 40
0.0138889
 41
0.0138889
  0
VERTEX
  8
0
 10
5.19792
 20
7.00896
 30
0.0
 40
0.0138889
 41
0.0138889
  0
VERTEX
  8
0
 10
5.45356
 20
7.00896
 30
0.0
 40
0.0138889
 41
0.0138889
  0
VERTEX
  8
0
 10
5.40776
 20
7.24376
 30
0.0
 40
0.0138889
 41
0.0138889
  0
VERTEX
  8
0
 10
5.35943
 20
7.49149
 30
0.0
 40
0.0138889
 41
0.0138889
  0
VERTEX
  8
0
 10
5.33919
 20
7.55968
 30
0.0
 40
0.0138889
 41
0.0138889
  0
VERTEX
  8
0
 10
5.30692
 20
7.62326
 30
0.0
 40
0.0138889
 41
0.0138889
  0
VERTEX
  8
0
 10
5.26426
 20
7.68093
 30
0.0
 40
0.0138889
 41
0.0138889
  0
VERTEX
  8
0
 10
5.21289
 20
7.73122
 30
0.0
 40
0.0138889
 41
0.0138889
  0
VERTEX
  8
0
 10
5.15451
 20
7.77279
 30
0.0
 40
0.0138889
 41
0.0138889
  0
VERTEX
  8
0
 10
5.09071
 20
7.80419
 30
0.0
 40
0.0138889
 41
0.0138889
  0
VERTEX
  8
0
 10
5.02328
 20
7.82411
 30
0.0
 40
0.0138889
 41
0.0138889
  0
VERTEX
  8
0
 10
4.95378
 20
7.831
 30
0.0
 40
0.0138889
 41
0.0138889
  0
VERTEX
  8
0
 10
4.88618
 20
7.82411
 30
0.0
 40
0.0138889
 41
0.0138889
  0
VERTEX
  8
0
 10
4.82433
 20
7.80419
 30
0.0
 40
0.0138889
 41
0.0138889
  0
VERTEX
  8
0
 10
4.76947
 20
7.77279
 30
0.0
 40
0.0138889
 41
0.0138889
  0
VERTEX
  8
0
 10
4.72282
 20
7.73122
 30
0.0
 40
0.0138889
 41
0.0138889
  0
VERTEX
  8
0
 10
4.68565
 20
7.68093
 30
0.0
 40
0.0138889
 41
0.0138889
  0
VERTEX
  8
0
 10
4.65929
 20
7.62326
 30
0.0
 40
0.0138889
 41
0.0138889
  0
VERTEX
  8
0
 10
4.64501
 20
7.55968
 30
0.0
 40
0.0138889
 41
0.0138889
  0
VERTEX
  8
0
 10
4.6441
 20
7.49149
 30
0.0
 40
0.0138889
 41
0.0138889
  0
VERTEX
  8
0
 10
4.70199
 20
6.83393
 30
0.0
 40
0.0138889
 41
0.0138889
  0
VERTEX
  8
0
 10
4.73085
 20
6.74567
 30
0.0
 40
0.0138889
 41
0.0138889
  0
VERTEX
  8
0
 10
4.79492
 20
6.67372
 30
0.0
 40
0.0138889
 41
0.0138889
  0
VERTEX
  8
0
 10
4.88499
 20
6.62532
 30
0.0
 40
0.0138889
 41
0.0138889
  0
VERTEX
  8
0
 10
4.99186
 20
6.60758
 30
0.0
 40
0.0138889
 41
0.0138889
  0
VERTEX
  8
0
 10
5.26183
 20
6.60758
 30
0.0
 40
0.0138889
 41
0.0138889
  0
VERTEX
  8
0
 10
5.38167
 20
5.85519
 30
0.0
 40
0.0138889
 41
0.0138889
  0
VERTEX
  8
0
 10
5.08485
 20
5.85519
 30
0.0
 40
0.0138889
 41
0.0138889
  0
VERTEX
  8
0
 10
5.04249
 20
6.19775
 30
0.0
 40
0.0138889
 41
0.0138889
  0
VERTEX
  8
0
 10
5.01313
 20
6.43533
 30
0.0
 40
0.0138889
 41
0.0138889
  0
VERTEX
  8
0
 10
4.74208
 20
6.43533
 30
0.0
 40
0.0138889
 41
0.0138889
  0
VERTEX
  8
0
 10
4.75792
 20
6.19775
 30
0.0
 40
0.0138889
 41
0.0138889
  0
VERTEX
  8
0
 10
4.77968
 20
5.94997
 30
0.0
 40
0.0138889
 41
0.0138889
  0
VERTEX
  8
0
 10
4.79503
 20
5.88183
 30
0.0
 40
0.0138889
 41
0.0138889
  0
VERTEX
  8
0
 10
4.82747
 20
5.81825
 30
0.0
 40
0.0138889
 41
0.0138889
  0
VERTEX
  8
0
 10
4.87494
 20
5.76058
 30
0.0
 40
0.0138889
 41
0.0138889
  0
VERTEX
  8
0
 10
4.93549
 20
5.71029
 30
0.0
 40
0.0138889
 41
0.0138889
  0
VERTEX
  8
0
 10
5.00706
 20
5.66872
 30
0.0
 40
0.0138889
 41
0.0138889
  0
VERTEX
  8
0
 10
5.08762
 20
5.63737
 30
0.0
 40
0.0138889
 41
0.0138889
  0
VERTEX
  8
0
 10
5.17524
 20
5.61746
 30
0.0
 40
0.0138889
 41
0.0138889
  0
VERTEX
  8
0
 10
5.2679
 20
5.61051
 30
0.0
 40
0.0138889
 41
0.0138889
  0
VERTEX
  8
0
 10
5.3585
 20
5.61746
 30
0.0
 40
0.0138889
 41
0.0138889
  0
VERTEX
  8
0
 10
5.44049
 20
5.63737
 30
0.0
 40
0.0138889
 41
0.0138889
  0
VERTEX
  8
0
 10
5.51221
 20
5.66872
 30
0.0
 40
0.0138889
 41
0.0138889
  0
VERTEX
  8
0
 10
5.572
 20
5.71029
 30
0.0
 40
0.0138889
 41
0.0138889
  0
VERTEX
  8
0
 10
5.61833
 20
5.76058
 30
0.0
 40
0.0138889
 41
0.0138889
  0
VERTEX
  8
0
 10
5.64947
 20
5.81825
 30
0.0
 40
0.0138889
 41
0.0138889
  0
VERTEX
  8
0
 10
5.6639
 20
5.88183
 30
0.0
 40
0.0138889
 41
0.0138889
  0
VERTEX
  8
0
 10
5.66
 20
5.94997
 30
0.0
 40
0.0138889
 41
0.0138889
  0
SEQEND
 8
0
  0
POLYLINE
  8
0
 62
     0
 66
     1
 10
0
 20
0
 30
0.0
 70
     1
 40
1
 41
1
  0
VERTEX
  8
0
 10
4.05789
 20
6.83388
 30
0.0
 40
0.0138889
 41
0.0138889
  0
VERTEX
  8
0
 10
4.31976
 20
6.83388
 30
0.0
 40
0.0138889
 41
0.0138889
  0
VERTEX
  8
0
 10
4.29275
 20
7.58632
 30
0.0
 40
0.0138889
 41
0.0138889
  0
VERTEX
  8
0
 10
4.05772
 20
7.58632
 30
0.0
 40
0.0138889
 41
0.0138889
  0
VERTEX
  8
0
 10
4.05789
 20
6.83388
 30
0.0
 40
0.0138889
 41
0.0138889
  0
SEQEND
 8
0
  0
POLYLINE
  8
0
 62
     0
 66
     1
 10
0
 20
0
 30
0.0
 70
     1
 40
1
 41
1
  0
VERTEX
  8
0
 10
3.83068
 20
7.81261
 30
0.0
 40
0.0138889
 41
0.0138889
  0
VERTEX
  8
0
 10
4.28467
 20
7.81261
 30
0.0
 40
0.0138889
 41
0.0138889
  0
VERTEX
  8
0
 10
4.37446
 20
7.79492
 30
0.0
 40
0.0138889
 41
0.0138889
  0
VERTEX
  8
0
 10
4.45003
 20
7.74653
 30
0.0
 40
0.0138889
 41
0.0138889
  0
VERTEX
  8
0
 10
4.50375
 20
7.67458
 30
0.0
 40
0.0138889
 41
0.0138889
  0
VERTEX
  8
0
 10
4.52783
 20
7.58632
 30
0.0
 40
0.0138889
 41
0.0138889
  0
VERTEX
  8
0
 10
4.57731
 20
6.89507
 30
0.0
 40
0.0138889
 41
0.0138889
  0
VERTEX
  8
0
 10
4.57264
 20
6.82829
 30
0.0
 40
0.0138889
 41
0.0138889
  0
VERTEX
  8
0
 10
4.55051
 20
6.78039
 30
0.0
 40
0.0138889
 41
0.0138889
  0
VERTEX
  8
0
 10
4.51525
 20
6.74625
 30
0.0
 40
0.0138889
 41
0.0138889
  0
VERTEX
  8
0
 10
4.47119
 20
6.72076
 30
0.0
 40
0.0138889
 41
0.0138889
  0
VERTEX
  8
0
 10
4.5185
 20
6.69911
 30
0.0
 40
0.0138889
 41
0.0138889
  0
VERTEX
  8
0
 10
4.55886
 20
6.66228
 30
0.0
 40
0.0138889
 41
0.0138889
  0
VERTEX
  8
0
 10
4.58865
 20
6.60422
 30
0.0
 40
0.0138889
 41
0.0138889
  0
VERTEX
  8
0
 10
4.60422
 20
6.51888
 30
0.0
 40
0.0138889
 41
0.0138889
  0
VERTEX
  8
0
 10
4.65631
 20
5.79096
 30
0.0
 40
0.0138889
 41
0.0138889
  0
VERTEX
  8
0
 10
4.66515
 20
5.74756
 30
0.0
 40
0.0138889
 41
0.0138889
  0
VERTEX
  8
0
 10
4.68381
 20
5.70763
 30
0.0
 40
0.0138889
 41
0.0138889
  0
VERTEX
  8
0
 10
4.71013
 20
5.66883
 30
0.0
 40
0.0138889
 41
0.0138889
  0
VERTEX
  8
0
 10
4.74208
 20
5.62885
 30
0.0
 40
0.0138889
 41
0.0138889
  0
VERTEX
  8
0
 10
4.42899
 20
5.62885
 30
0.0
 40
0.0138889
 41
0.0138889
  0
VERTEX
  8
0
 10
4.40332
 20
5.66581
 30
0.0
 40
0.0138889
 41
0.0138889
  0
VERTEX
  8
0
 10
4.38075
 20
5.70649
 30
0.0
 40
0.0138889
 41
0.0138889
  0
VERTEX
  8
0
 10
4.36431
 20
5.74886
 30
0.0
 40
0.0138889
 41
0.0138889
  0
VERTEX
  8
0
 10
4.35721
 20
5.79096
 30
0.0
 40
0.0138889
 41
0.0138889
  0
VERTEX
  8
0
 10
4.3279
 20
6.60758
 30
0.0
 40
0.0138889
 41
0.0138889
  0
VERTEX
  8
0
 10
4.05794
 20
6.60758
 30
0.0
 40
0.0138889
 41
0.0138889
  0
VERTEX
  8
0
 10
4.05817
 20
5.62885
 30
0.0
 40
0.0138889
 41
0.0138889
  0
VERTEX
  8
0
 10
3.75325
 20
5.62885
 30
0.0
 40
0.0138889
 41
0.0138889
  0
VERTEX
  8
0
 10
3.83068
 20
7.81261
 30
0.0
 40
0.0138889
 41
0.0138889
  0
SEQEND
 8
0
  0
POLYLINE
  8
0
 62
     0
 66
     1
 10
0
 20
0
 30
0.0
 70
     1
 40
1
 41
1
  0
VERTEX
  8
0
 10
3.15192
 20
6.83388
 30
0.0
 40
0.0138889
 41
0.0138889
  0
VERTEX
  8
0
 10
3.41379
 20
6.83388
 30
0.0
 40
0.0138889
 41
0.0138889
  0
VERTEX
  8
0
 10
3.47965
 20
7.58632
 30
0.0
 40
0.0138889
 41
0.0138889
  0
VERTEX
  8
0
 10
3.24457
 20
7.58632
 30
0.0
 40
0.0138889
 41
0.0138889
  0
VERTEX
  8
0
 10
3.15192
 20
6.83388
 30
0.0
 40
0.0138889
 41
0.0138889
  0
SEQEND
 8
0
  0
POLYLINE
  8
0
 62
     0
 66
     1
 10
0
 20
0
 30
0.0
 70
     1
 40
1
 41
1
  0
VERTEX
  8
0
 10
3.04546
 20
7.81261
 30
0.0
 40
0.0138889
 41
0.0138889
  0
VERTEX
  8
0
 10
3.49946
 20
7.81261
 30
0.0
 40
0.0138889
 41
0.0138889
  0
VERTEX
  8
0
 10
3.58703
 20
7.79492
 30
0.0
 40
0.0138889
 41
0.0138889
  0
VERTEX
  8
0
 10
3.65663
 20
7.74653
 30
0.0
 40
0.0138889
 41
0.0138889
  0
VERTEX
  8
0
 10
3.70144
 20
7.67458
 30
0.0
 40
0.0138889
 41
0.0138889
  0
VERTEX
  8
0
 10
3.71468
 20
7.58632
 30
0.0
 40
0.0138889
 41
0.0138889
  0
VERTEX
  8
0
 10
3.67887
 20
6.89507
 30
0.0
 40
0.0138889
 41
0.0138889
  0
VERTEX
  8
0
 10
3.66601
 20
6.82829
 30
0.0
 40
0.0138889
 41
0.0138889
  0
VERTEX
  8
0
 10
3.63797
 20
6.78039
 30
0.0
 40
0.0138889
 41
0.0138889
  0
VERTEX
  8
0
 10
3.59847
 20
6.74625
 30
0.0
 40
0.0138889
 41
0.0138889
  0
VERTEX
  8
0
 10
3.55126
 20
6.72076
 30
0.0
 40
0.0138889
 41
0.0138889
  0
VERTEX
  8
0
 10
3.59586
 20
6.69911
 30
0.0
 40
0.0138889
 41
0.0138889
  0
VERTEX
  8
0
 10
3.63167
 20
6.66228
 30
0.0
 40
0.0138889
 41
0.0138889
  0
VERTEX
  8
0
 10
3.65429
 20
6.60422
 30
0.0
 40
0.0138889
 41
0.0138889
  0
VERTEX
  8
0
 10
3.65935
 20
6.51888
 30
0.0
 40
0.0138889
 41
0.0138889
  0
VERTEX
  8
0
 10
3.62164
 20
5.79096
 30
0.0
 40
0.0138889
 41
0.0138889
  0
VERTEX
  8
0
 10
3.62511
 20
5.74756
 30
0.0
 40
0.0138889
 41
0.0138889
  0
VERTEX
  8
0
 10
3.63883
 20
5.70763
 30
0.0
 40
0.0138889
 41
0.0138889
  0
VERTEX
  8
0
 10
3.66037
 20
5.66883
 30
0.0
 40
0.0138889
 41
0.0138889
  0
VERTEX
  8
0
 10
3.68739
 20
5.62885
 30
0.0
 40
0.0138889
 41
0.0138889
  0
VERTEX
  8
0
 10
3.37424
 20
5.62885
 30
0.0
 40
0.0138889
 41
0.0138889
  0
VERTEX
  8
0
 10
3.35319
 20
5.66581
 30
0.0
 40
0.0138889
 41
0.0138889
  0
VERTEX
  8
0
 10
3.33561
 20
5.70649
 30
0.0
 40
0.0138889
 41
0.0138889
  0
VERTEX
  8
0
 10
3.32443
 20
5.74886
 30
0.0
 40
0.0138889
 41
0.0138889
  0
VERTEX
  8
0
 10
3.32249
 20
5.79096
 30
0.0
 40
0.0138889
 41
0.0138889
  0
VERTEX
  8
0
 10
3.39399
 20
6.60758
 30
0.0
 40
0.0138889
 41
0.0138889
  0
VERTEX
  8
0
 10
3.12403
 20
6.60758
 30
0.0
 40
0.0138889
 41
0.0138889
  0
VERTEX
  8
0
 10
3.00347
 20
5.62885
 30
0.0
 40
0.0138889
 41
0.0138889
  0
VERTEX
  8
0
 10
2.69857
 20
5.62885
 30
0.0
 40
0.0138889
 41
0.0138889
  0
VERTEX
  8
0
 10
3.04546
 20
7.81261
 30
0.0
 40
0.0138889
 41
0.0138889
  0
SEQEND
 8
0
  0
POLYLINE
  8
0
 62
     1
 66
     1
 10
0
 20
0
 30
0.0
 70
     1
 40
0.8
 41
0.8
  0
VERTEX
  8
0
 10
2.99621
 20
7.93164
 30
0.0
 40
0.0111111
 41
0.0111111
  0
VERTEX
  8
0
 10
2.53011
 20
5.50971
 30
0.0
 40
0.0111111
 41
0.0111111
  0
VERTEX
  8
0
 10
2.91297
 20
3.22928
 30
0.0
 40
0.0111111
 41
0.0111111
  0
VERTEX
  8
0
 10
5.37651
 20
3.22928
 30
0.0
 40
0.0111111
 41
0.0111111
  0
VERTEX
  8
0
 10
5.84261
 20
5.80935
 30
0.0
 40
0.0111111
 41
0.0111111
  0
VERTEX
  8
0
 10
5.32661
 20
7.93164
 30
0.0
 40
0.0111111
 41
0.0111111
  0
VERTEX
  8
0
 10
2.99621
 20
7.93164
 30
0.0
 40
0.0111111
 41
0.0111111
  0
SEQEND
 8
0
  0
POLYLINE
  8
0
 62
     1
 66
     1
 10
0
 20
0
 30
0.0
 70
     1
 40
0.8
 41
0.8
  0
VERTEX
  8
0
 10
3.24588
 20
7.59039
 30
0.0
 40
0.0111111
 41
0.0111111
  0
VERTEX
  8
0
 10
3.15533
 20
6.8399
 30
0.0
 40
0.0111111
 41
0.0111111
  0
VERTEX
  8
0
 10
3.41336
 20
6.84136
 30
0.0
 40
0.0111111
 41
0.0111111
  0
VERTEX
  8
0
 10
3.47894
 20
7.59039
 30
0.0
 40
0.0111111
 41
0.0111111
  0
VERTEX
  8
0
 10
3.24588
 20
7.59039
 30
0.0
 40
0.0111111
 41
0.0111111
  0
SEQEND
 8
0
  0
ENDSEC
  0
EOF
