<?xml version="1.0" encoding="UTF-8" standalone="no"?>
<!-- Created with Inkscape (http://www.inkscape.org/) -->

<svg
   xmlns:dc="http://purl.org/dc/elements/1.1/"
   xmlns:cc="http://creativecommons.org/ns#"
   xmlns:rdf="http://www.w3.org/1999/02/22-rdf-syntax-ns#"
   xmlns:svg="http://www.w3.org/2000/svg"
   xmlns="http://www.w3.org/2000/svg"
   xmlns:sodipodi="http://sodipodi.sourceforge.net/DTD/sodipodi-0.dtd"
   xmlns:inkscape="http://www.inkscape.org/namespaces/inkscape"
   id="svg7029"
   version="1.1"
   inkscape:version="0.91 r13725"
   xml:space="preserve"
   width="1500"
   height="1000"
   viewBox="0 0 1500 1000"
   sodipodi:docname="rrunner.svg"><sodipodi:namedview
     pagecolor="#ffffff"
     bordercolor="#666666"
     borderopacity="1"
     objecttolerance="10"
     gridtolerance="10"
     guidetolerance="10"
     inkscape:pageopacity="0"
     inkscape:pageshadow="2"
     inkscape:window-width="1360"
     inkscape:window-height="746"
     id="namedview7031"
     showgrid="false"
     inkscape:zoom="0.6675088"
     inkscape:cx="798.04392"
     inkscape:cy="387.04964"
     inkscape:window-x="1432"
     inkscape:window-y="-8"
     inkscape:window-maximized="1"
     inkscape:current-layer="g7037" /><metadata
     id="metadata7035"><rdf:RDF><cc:Work
         rdf:about=""><dc:format>image/svg+xml</dc:format><dc:type
           rdf:resource="http://purl.org/dc/dcmitype/StillImage" /><dc:title></dc:title></cc:Work></rdf:RDF></metadata><defs
     id="defs7033"><clipPath
       clipPathUnits="userSpaceOnUse"
       id="clipPath7063"><path
         d="M 0,800 1200,800 1200,0 0,0 0,800 Z"
         id="path7065"
         inkscape:connector-curvature="0" /></clipPath></defs><g
     id="g7037"
     inkscape:groupmode="layer"
     inkscape:label="RoadRunnerSociety-logo"
     transform="matrix(1.25,0,0,-1.25,0,1000)"><g
       style="stroke:#000000"
       id="g7678"><g
         style="stroke:#000000"
         transform="translate(220.6338,330)"
         id="g7039"><path
           inkscape:connector-curvature="0"
           id="path7041"
           style="fill:#000000;fill-opacity:1;fill-rule:nonzero;stroke:#000000"
           d="M 0,0 2.467,-21 9.382,-21 7.124,0 0,0 Z" /></g><g
         style="stroke:#000000"
         transform="translate(256.5781,380)"
         id="g7043"><path
           inkscape:connector-curvature="0"
           id="path7045"
           style="fill:#000000;fill-opacity:1;fill-rule:nonzero;stroke:#000000"
           d="M 0,0 0.971,-15 6.474,-15 5.616,0 0,0 Z" /></g><g
         style="stroke:#000000"
         transform="translate(217.2627,380)"
         id="g7047"><path
           inkscape:connector-curvature="0"
           id="path7049"
           style="fill:#000000;fill-opacity:1;fill-rule:nonzero;stroke:#000000"
           d="m 0,0 -5.616,0 1.877,-15 5.503,0 L 0,0 Z" /></g><g
         style="stroke:#000000"
         transform="translate(242.7441,345)"
         id="g7051"><path
           inkscape:connector-curvature="0"
           id="path7053"
           style="fill:#000000;fill-opacity:1;fill-rule:nonzero;stroke:#000000"
           d="M 0,0 -3.016,35 -8.632,35 -5.356,0 0,0 Z" /></g><g
         style="stroke:#000000"
         transform="translate(285.5918,345)"
         id="g7055"><path
           inkscape:connector-curvature="0"
           id="path7057"
           style="fill:#000000;fill-opacity:1;fill-rule:nonzero;stroke:#000000"
           d="M 0,0 -0.931,35 -6.547,35 -5.355,0 0,0 Z" /></g><g
         style="stroke:#000000"
         id="g7059"><g
           style="stroke:#000000"
           clip-path="url(#clipPath7063)"
           id="g7061"><g
             style="stroke:#000000"
             transform="translate(385.2666,329.9482)"
             id="g7067"><path
               d="m 0,0 -2.171,-19.111 c -0.327,-2.872 -1.85,-3.988 -3.618,-4.832 1.608,-0.592 2.858,-1.893 2.436,-5.61 L -5.64,-49.725 c -0.192,-1.689 0.377,-2.697 1.091,-4.611 l -6.758,0 c -0.578,1.276 -1.116,3.157 -0.958,4.677 l 2.338,22.756 -6.852,0 -2.531,-27.433 -6.581,0 5.039,60.607 14.375,0 C -2.494,6.271 0.394,3.463 0,0 m -11.927,-71.614 c -0.089,-0.824 -0.429,-1.494 -0.976,-2.175 -0.544,-0.644 -1.253,-1.211 -2.125,-1.533 l -1.182,-11.55 -2.649,0 1.132,11.513 c -0.807,0.321 -1.415,0.919 -1.827,1.563 -0.41,0.68 -0.592,1.392 -0.513,2.216 l 0.986,10.226 2.758,0 -1.141,-11.483 2.709,0 1.19,11.483 2.756,0 -1.118,-10.26 z m -16.764,71.505 -14.249,0 -1.103,-20.415 10.373,0 -0.427,-6.379 -10.279,0 -1.103,-21.053 13.287,0 -0.457,-6.38 -13.162,0 c -3.646,0 -6.461,2.928 -6.312,6.391 l 2.058,47.953 c 0.149,3.463 3.475,6.263 7.457,6.263 l 14.375,0 -0.458,-6.38 z m -7.196,-63.796 -2.746,0 -1.49,-22.967 -2.648,0 1.391,22.967 -2.746,0 0.149,2.551 8.274,0 -0.184,-2.551 z m -24.864,9.569 -6.226,0 c -2.093,12.76 -5.387,25.519 -7.297,38.916 l -0.189,0 c 0.329,-5.104 0.781,-15.952 0.728,-21.274 l -0.178,-17.642 -6.58,0 0.006,60.607 6.799,0 c 2.358,-12.76 5.754,-24.881 7.53,-38.917 l 0.183,0 c -0.26,5.105 -0.599,15.953 -0.492,21.275 l 0.354,17.642 7.187,0 -1.825,-60.607 z m 0.737,-9.569 -5.492,0 -0.206,-8.293 4.064,0 -0.079,-3.191 -4.046,0 -0.206,-8.293 5.32,0 -0.084,-3.19 -5.298,0 c -1.468,0 -2.626,1.24 -2.599,2.707 l 0.387,20.313 c 0.028,1.467 1.281,2.498 2.809,2.498 l 5.515,0 -0.085,-2.551 z m -28.294,-22.967 -0.318,25.518 2.759,0 0.209,-25.518 -2.65,0 z m -6.769,32.536 c -2.638,12.76 -6.47,25.519 -8.956,38.916 l -0.189,0 c 0.547,-5.104 1.46,-15.952 1.635,-21.274 l 0.573,-17.642 -6.58,0 -2.585,60.607 6.799,0 c 2.902,-12.76 6.836,-24.881 9.189,-38.917 l 0.183,0 c -0.478,5.105 -1.278,15.953 -1.398,21.275 l -0.399,17.642 7.188,0 0.764,-60.607 -6.224,0 z m -13.518,-32.483 c -2.183,0 -4.065,1.789 -4.177,3.971 l -0.929,18.034 c -0.112,2.182 1.659,3.969 3.933,3.969 2.274,0 4.207,-1.796 4.292,-3.978 l 0.113,-2.909 -2.73,0 -0.172,3.827 -2.746,0 0.956,-19.777 2.66,0 -0.171,3.828 2.676,0 0.113,-2.946 c 0.085,-2.182 -1.636,-4.019 -3.818,-4.019 m -12.246,97.555 -1.115,19.777 -5.47,0 1.263,-19.777 -5.321,0 -2.684,37.735 c -0.269,3.792 3.331,6.765 7.99,6.765 4.661,0 8.632,-2.973 8.817,-6.765 l 1.841,-37.735 -5.321,0 z m -5.947,-65.305 c -5.421,0 -10.227,4.229 -10.669,9.382 l -4.414,51.458 7.187,0 4.096,-54.227 6.644,0 -3.552,54.227 7.187,0 2.862,-51.455 c 0.287,-5.153 -3.921,-9.385 -9.341,-9.385 m -6.714,-32.249 c -2.183,0 -4.136,1.789 -4.336,3.971 l -1.651,18.035 c -0.2,2.183 1.5,3.972 3.774,3.972 2.274,0 4.278,-1.789 4.45,-3.972 l 1.422,-18.035 c 0.172,-2.182 -1.476,-3.971 -3.659,-3.971 m -16.71,32.482 c -0.848,1.276 -1.744,3.157 -1.909,4.677 l -2.45,22.756 -6.853,0 3.209,-27.433 -6.581,0 -7.766,60.607 14.375,0 c 3.981,0 7.461,-2.8 7.803,-6.263 l 1.882,-19.103 c 0.283,-2.872 -1.006,-3.97 -2.596,-4.815 1.735,-0.591 3.254,-1.859 3.62,-5.575 l 1.983,-20.24 c 0.166,-1.689 1.005,-2.697 2.041,-4.611 l -6.758,0 z m -8.196,-32.459 c -2.183,0 -4.208,1.813 -4.495,3.995 l -0.382,2.946 2.678,0 0.51,-3.828 2.66,0 -1.084,8.293 -2.698,0 c -1.494,0 -2.853,1.297 -3.047,2.765 l -1.012,7.81 c -0.287,2.182 1.341,3.969 3.615,3.969 2.273,0 4.351,-1.796 4.61,-3.978 l 0.345,-2.909 -2.729,0 -0.494,3.827 -2.746,0 1.121,-8.293 2.709,0 c 1.501,0 2.849,-1.334 3.024,-2.802 l 0.914,-7.758 c 0.26,-2.183 -1.317,-4.037 -3.499,-4.037 m -15.652,97.531 -5.775,44.019 11.301,0 c 3.132,0 5.872,-1.989 6.147,-4.539 l 1.516,-13.991 c 0.228,-2.115 -0.798,-2.906 -2.064,-3.528 1.382,-0.435 2.594,-1.334 2.889,-4.07 l 1.597,-14.731 c 0.134,-1.244 0.811,-2.522 1.65,-3.16 l -5.466,0 c -0.681,0.638 -1.401,2.116 -1.531,3.235 l -1.914,16.542 -5.469,0 2.442,-19.777 -5.323,0 z m 25.269,44.5 c 4.661,0 8.724,-3.109 9.02,-6.902 l 2.454,-31.341 c 0.296,-3.793 -3.054,-6.902 -7.439,-6.902 -4.384,0 -8.291,3.109 -8.672,6.902 l -3.149,31.341 c -0.381,3.793 3.127,6.902 7.786,6.902 m 48.064,-0.481 c 3.131,0 5.69,-1.93 5.739,-4.48 l 0.669,-35.073 c 0.048,-2.55 -2.285,-4.466 -5.234,-4.466 l -10.644,0 -1.831,44.019 11.301,0 z M 23.875,79.322 C 17.674,71.8 7.385,67.364 -4.508,67.024 l 0.012,-0.033 -60.367,0 -134.527,0 26.032,-160.769 148.649,0 23.97,0 29.595,182.781 C 27.964,85.536 26.29,82.254 23.875,79.322"
               style="fill:#000000;fill-opacity:1;fill-rule:nonzero;stroke:#000000"
               id="path7069" /></g><g
             style="stroke:#000000"
             transform="translate(248.4229,266)"
             id="g7071"><path
               inkscape:connector-curvature="0"
               id="path7073"
               style="fill:#000000;fill-opacity:1;fill-rule:nonzero;stroke:#000000"
               d="m 0,0 1.769,-20 2.66,0 L 2.746,0 0,0 Z" /></g><g
             style="stroke:#000000"
             transform="translate(369.0723,309)"
             id="g7075"><path
               inkscape:connector-curvature="0"
               id="path7077"
               style="fill:#000000;fill-opacity:1;fill-rule:nonzero;stroke:#000000"
               d="M 0,0 6.915,0 9.069,21 1.945,21 0,0 Z" /></g><g
             style="stroke:#000000"
             transform="translate(226.9365,492.041)"
             id="g7079" /><g
             style="stroke:#000000"
             transform="translate(292.167,492.041)"
             id="g7083" /><g
             style="stroke:#000000"
             transform="translate(407.5205,428.3994)"
             id="g7087"><path
               d="m 0,0 -9.231,47.346 c -1.761,9.028 -11.586,16.296 -22.034,16.296 l -18.857,0 -6.697,54.171 16.924,0 3.929,-24.663 2.694,-16.904 18.407,0 -3.297,16.904 -3.478,17.837 c -2.619,13.433 -15.776,24.444 -29.21,24.444 -13.432,0 -23.475,-11.011 -22.294,-24.444 l 4.165,-47.345 c 0.794,-9.03 10.102,-16.296 20.872,-16.296 l 19.438,0 8.63,-54.173 -21.371,0 -3.05,24.664 -2.115,17.108 -19.515,0 1.14,-17.108 L -63.382,0 c 1.182,-13.433 17.015,-24.444 35.15,-24.444 C -10.099,-24.444 2.619,-13.433 0,0 m -115.3535,63.6416 18.857,0 -1.944,54.172 -16.925,0 0.012,-54.172 z m -16.357,70.468 32.685,0 c 9.055,0 16.863,-7.267 17.509,-16.296 l 3.562,-49.768 c 0.536,-7.487 -3.125,-10.35 -7.64,-12.552 4.756,-1.541 8.885,-4.845 9.578,-14.535 l 3.751,-52.41 c 0.315,-4.404 2.91,-7.708 6.176,-11.672 l -22.546,0 c -2.505,3.304 -5.024,7.708 -5.165,11.672 l -2.111,58.797 -19.438,0 0.016,-70.469 -21.953,0 5.576,157.233 z m -48.8735,-70.468 18.856,0 4.742,54.172 -16.925,0 -6.673,-54.172 z m -7.662,70.468 32.685,0 c 9.056,0 15.967,-7.267 15.499,-16.296 l -2.58,-49.768 c -0.387,-7.487 -4.402,-10.35 -9.189,-12.552 4.566,-1.541 8.287,-4.845 7.785,-14.535 l -2.717,-52.41 c -0.228,-4.404 1.958,-7.708 4.734,-11.672 l -22.545,0 c -2.097,3.304 -4.072,7.708 -3.726,11.672 l 5.146,58.797 -19.438,0 -8.68,-70.469 -21.953,0 24.979,157.233 z"
               style="fill:#000000;fill-opacity:1;fill-rule:nonzero;stroke:#000000"
               id="path7089" /></g><g
             style="stroke:#000000"
             transform="translate(820.6338,330)"
             id="g7093" /><g
             style="stroke:#000000"
             transform="translate(856.5781,380)"
             id="g7097" /><g
             style="stroke:#000000"
             transform="translate(817.2627,380)"
             id="g7101" /><g
             style="stroke:#000000"
             transform="translate(842.7441,345)"
             id="g7105" /><g
             style="stroke:#000000"
             transform="translate(885.5918,345)"
             id="g7109" /><g
             style="stroke:#000000"
             transform="translate(985.2666,329.9482)"
             id="g7113" /><g
             style="stroke:#000000"
             transform="translate(848.4229,266)"
             id="g7117" /><g
             style="stroke:#000000"
             transform="translate(969.0723,309)"
             id="g7121" /><g
             style="stroke:#000000"
             transform="translate(826.9365,492.041)"
             id="g7125" /><g
             style="stroke:#000000"
             transform="translate(892.167,492.041)"
             id="g7129" /><g
             style="stroke:#000000"
             transform="translate(1007.5205,428.3994)"
             id="g7133" /></g></g></g><path
       d="M215.7275 571.07862L182.16988 396.69889L209.73506 232.5063L387.111 232.5063L420.66861 418.27164L383.51554 571.07862L215.7275 571.07862M233.70478 546.50965L227.18269 492.47185L245.76235 492.57778L250.48359 546.50965L233.70478 546.50965"
       style="fill:none;fill-rule:evenodd;stroke:#ff0000;stroke-width:0.80000001px;stroke-linecap:butt;stroke-linejoin:miter;stroke-opacity:1"
       id="path7728" /></g></svg>