<?xml version="1.0" encoding="UTF-8" standalone="no"?>
<!-- Created with Inkscape (http://www.inkscape.org/) -->

<svg
   xmlns:dc="http://purl.org/dc/elements/1.1/"
   xmlns:cc="http://creativecommons.org/ns#"
   xmlns:rdf="http://www.w3.org/1999/02/22-rdf-syntax-ns#"
   xmlns:svg="http://www.w3.org/2000/svg"
   xmlns="http://www.w3.org/2000/svg"
   xmlns:sodipodi="http://sodipodi.sourceforge.net/DTD/sodipodi-0.dtd"
   xmlns:inkscape="http://www.inkscape.org/namespaces/inkscape"
   width="744.09448819"
   height="1052.3622047"
   id="svg2"
   version="1.1"
   inkscape:version="0.91 r13725"
   sodipodi:docname="bunny.svg">
  <defs
     id="defs4">
    <inkscape:perspective
       sodipodi:type="inkscape:persp3d"
       inkscape:vp_x="0 : 526.18109 : 1"
       inkscape:vp_y="0 : 1000 : 0"
       inkscape:vp_z="744.09448 : 526.18109 : 1"
       inkscape:persp3d-origin="372.04724 : 350.78739 : 1"
       id="perspective10" />
    <inkscape:perspective
       id="perspective2902"
       inkscape:persp3d-origin="0.5 : 0.33333333 : 1"
       inkscape:vp_z="1 : 0.5 : 1"
       inkscape:vp_y="0 : 1000 : 0"
       inkscape:vp_x="0 : 0.5 : 1"
       sodipodi:type="inkscape:persp3d" />
    <inkscape:perspective
       id="perspective2928"
       inkscape:persp3d-origin="0.5 : 0.33333333 : 1"
       inkscape:vp_z="1 : 0.5 : 1"
       inkscape:vp_y="0 : 1000 : 0"
       inkscape:vp_x="0 : 0.5 : 1"
       sodipodi:type="inkscape:persp3d" />
  </defs>
  <sodipodi:namedview
     id="base"
     pagecolor="#ffffff"
     bordercolor="#666666"
     borderopacity="1.0"
     inkscape:pageopacity="0.0"
     inkscape:pageshadow="2"
     inkscape:zoom="1.979899"
     inkscape:cx="293.5262"
     inkscape:cy="680.08639"
     inkscape:document-units="px"
     inkscape:current-layer="layer1"
     showgrid="false"
     inkscape:window-width="1440"
     inkscape:window-height="837"
     inkscape:window-x="-4"
     inkscape:window-y="-4"
     inkscape:window-maximized="1" />
  <metadata
     id="metadata7">
    <rdf:RDF>
      <cc:Work
         rdf:about="">
        <dc:format>image/svg+xml</dc:format>
        <dc:type
           rdf:resource="http://purl.org/dc/dcmitype/StillImage" />
        <dc:title />
      </cc:Work>
    </rdf:RDF>
  </metadata>
  <g
     inkscape:label="Layer 1"
     inkscape:groupmode="layer"
     id="layer1">
    <path
       style="fill:none;stroke:#000000;stroke-width:1px;stroke-linecap:butt;stroke-linejoin:miter;stroke-opacity:1"
       d="M 359.48633 223.31445 C 358.33518 223.29534 357.18934 223.38204 356.07227 223.61133 C 352.94312 224.25361 350.02992 225.94816 347.5 227.89844 C 345.42896 229.49498 343.63147 231.52737 342.32227 233.79102 C 340.74846 236.51219 339.28516 242.71875 339.28516 242.71875 L 333.75 287.00586 C 333.75 287.00586 323.42473 285.38891 318.21484 285.21875 C 314.58144 285.10008 310.9446 285.44859 307.32227 285.75586 C 303.85728 286.04979 296.96484 287.00586 296.96484 287.00586 L 292.14258 249.32617 C 292.14258 249.32617 291.90812 239.98662 290.17773 235.75586 C 289.33943 233.70625 287.86316 231.91546 286.25 230.39844 C 284.08494 228.36241 281.59515 226.43526 278.75 225.57617 C 274.9887 224.44045 270.69819 224.17399 266.96484 225.39844 C 262.84725 226.74892 259.04397 229.67235 256.60742 233.25586 C 254.24438 236.73125 253.46806 241.20342 253.21484 245.39844 C 252.85927 251.28899 254.3358 257.20622 255.89258 262.89844 C 257.78792 269.82858 261.07244 276.30553 263.92773 282.89844 C 266.17141 288.07912 271.07227 298.25586 271.07227 298.25586 C 271.07227 298.25586 269.5447 301.14107 268.44727 302.32422 C 265.79103 305.18794 261.96176 306.7324 259.10352 309.39453 C 255.82946 312.44395 252.68321 315.73129 250.26562 319.49609 C 247.27289 324.15652 244.93877 329.31445 243.44727 334.64844 C 241.96268 339.95773 241.33448 345.55226 241.42578 351.06445 C 241.49777 355.4095 242.17063 359.78947 243.44727 363.94336 C 244.89644 368.65863 247.12593 373.15717 249.75977 377.32812 C 252.95377 382.38614 256.58938 387.31638 261.125 391.2168 C 265.50342 394.98203 276.02344 400.05664 276.02344 400.05664 L 276.27734 402.07617 C 276.27734 402.07617 265.80992 411.64392 260.87109 416.72461 C 256.21759 421.51177 251.53718 426.31471 247.48828 431.62305 C 245.78894 433.85099 243.81721 436.03365 242.94141 438.69531 C 242.12408 441.17928 241.57976 444.05313 242.4375 446.52344 C 243.18045 448.66316 244.8547 450.79757 246.98242 451.57422 C 249.85649 452.6233 253.20182 451.3642 256.07422 450.31055 C 259.91105 448.90313 266.42773 443.74609 266.42773 443.74609 L 277.79102 431.11914 L 278.80273 466.72656 L 280.06445 499.55664 C 280.06445 499.55664 282.41004 504.52529 284.35742 506.375 C 286.10626 508.03612 288.34544 509.27344 290.67188 509.91016 C 294.08297 510.84374 297.83909 510.99007 301.27734 510.16211 C 303.51113 509.62419 305.7535 508.54105 307.33984 506.87891 C 309.21142 504.9179 310.875 499.55664 310.875 499.55664 L 310.875 484.15234 L 331.07812 484.65625 L 331.58203 499.30273 C 331.58203 499.30273 332.7102 502.75232 333.85547 504.10156 C 335.57812 506.131 337.90107 507.79304 340.42188 508.64844 C 343.69407 509.75881 347.35208 509.62256 350.77539 509.15234 C 353.67634 508.75387 356.77576 508.14376 359.10938 506.375 C 361.62133 504.47108 364.41211 498.54688 364.41211 498.54688 L 362.67773 431.11133 C 362.67773 431.11133 365.35447 432.94308 366.60742 433.96875 C 368.92187 435.86337 370.95662 438.07971 373.21484 440.04102 C 375.48199 442.01008 377.53118 444.33709 380.17773 445.75586 C 382.86607 447.19703 385.87756 448.45779 388.92773 448.43359 C 391.05476 448.41675 393.26241 447.69566 395 446.46875 C 396.83809 445.17087 398.48751 443.27438 399.10742 441.11133 C 399.9641 438.12215 399.54107 434.63867 398.21484 431.82617 C 396.52739 428.24764 392.63023 426.22083 389.82227 423.43359 C 385.78945 419.43053 377.67773 411.46875 377.67773 411.46875 L 363.21484 399.32617 L 363.92773 397.54102 C 363.92773 397.54102 371.87097 391.46671 375.53516 388.07617 C 378.13092 385.67427 380.70224 383.20242 382.85742 380.39844 C 386.47193 375.69582 390.12779 370.79728 392.14258 365.21875 C 394.67611 358.20394 395.89359 350.51518 395.35742 343.07617 C 394.87542 336.38869 392.61657 329.80018 389.64258 323.79102 C 387.09191 318.63722 383.53566 313.92286 379.46484 309.86133 C 374.30663 304.71488 361.78516 297.00586 361.78516 297.00586 L 378.92773 249.68359 C 378.92773 249.68359 380.37098 243.22208 379.82227 240.04102 C 379.36505 237.39037 377.83878 235.00871 376.42773 232.71875 C 375.27195 230.84306 374.04662 228.91238 372.32227 227.54102 C 370.25924 225.90032 367.73097 224.80339 365.17773 224.14844 C 363.33674 223.67619 361.40491 223.3463 359.48633 223.31445 z "
       id="path2914" />
    <path
       style="fill:none;stroke:#ff0000;stroke-width:1px;stroke-linecap:butt;stroke-linejoin:miter;stroke-opacity:1"
       d="M 254.55859 314.32031 L 251.14844 318.86523 C 251.14844 318.86523 261.60147 322.09394 266.93359 323.28516 C 276.34733 325.38824 285.89503 326.90506 295.46875 328.08203 C 305.37876 329.30035 325.33203 330.41797 325.33203 330.41797 C 325.33203 330.41797 324.93095 336.86035 325.83789 339.88867 C 327.25035 344.60494 329.93166 349.03992 333.28711 352.64258 C 337.02279 356.65349 341.64175 360.2509 346.86133 361.92383 C 352.6944 363.79339 359.23623 363.55202 365.23242 362.30078 C 369.31586 361.44868 373.56311 359.92468 376.59766 357.0625 C 379.9126 353.93586 381.73244 349.36802 383.03711 345.00195 C 384.3742 340.52754 384.30078 331.05078 384.30078 331.05078 L 392.38086 330.79688 L 390.04492 325.68359 C 390.04492 325.68359 347.62628 326.76831 326.46875 325.55664 C 315.98137 324.95604 305.55277 323.51066 295.1543 322.02148 C 288.2189 321.02825 281.32832 319.73171 274.44531 318.42383 C 267.79551 317.16026 254.55859 314.32031 254.55859 314.32031 z "
       id="path2916" />
    <path
       style="fill:none;stroke:#ff0000;stroke-width:0.70866144;stroke-miterlimit:4;stroke-dasharray:none"
       d="M 287.76758 339.12109 A 7.5231137 7.5231137 0 0 0 280.24414 346.64453 A 7.5231137 7.5231137 0 0 0 287.76758 354.16797 A 7.5231137 7.5231137 0 0 0 295.29102 346.64453 A 7.5231137 7.5231137 0 0 0 287.76758 339.12109 z M 316.99805 360.92383 A 4.6604079 4.6604079 0 0 0 312.33789 365.58398 A 4.6604079 4.6604079 0 0 0 314.57227 369.55664 C 314.35919 369.65034 314.15449 369.75313 313.96875 369.87695 C 312.7837 370.66694 313.49131 372.82503 312.57812 373.91797 C 311.1404 375.63872 308.89116 376.69358 306.70703 377.20117 C 304.77744 377.64961 302.61047 377.62816 300.77344 376.88672 C 298.83661 376.10499 297.92579 373.67305 296.03711 372.78125 C 295.01408 372.29819 293.67125 371.64734 292.69141 372.21289 C 292.0109 372.60567 291.79726 373.64157 291.87109 374.42383 C 291.97049 375.47664 292.81447 376.3436 293.51172 377.13867 C 294.4002 378.1518 295.51118 378.9762 296.66992 379.66406 C 298.12181 380.52595 299.68646 381.28837 301.3418 381.62109 C 303.26059 382.00676 305.27843 381.9184 307.21289 381.62109 C 308.39047 381.44011 309.57193 381.11141 310.62109 380.54688 C 311.76725 379.93014 312.6403 378.90436 313.65234 378.08594 C 314.51358 377.38948 315.13391 375.94856 316.24023 376.00195 C 317.56318 376.06585 318.12283 377.86595 319.08203 378.7793 C 320.22518 379.86782 321.14022 381.29932 322.55469 382 C 324.31566 382.87233 326.39949 383.08381 328.36328 383.00977 C 330.33718 382.93537 332.32645 382.41298 334.10742 381.55859 C 335.17758 381.0452 336.12852 380.26959 336.94922 379.41211 C 337.74437 378.58133 338.27392 377.53084 338.90625 376.57031 C 339.38463 375.84364 340.02632 375.18882 340.29492 374.36133 C 340.49027 373.75949 340.68894 373.04042 340.42188 372.4668 C 340.09143 371.75704 339.30347 371.18096 338.52734 371.07812 C 337.83384 370.98622 337.1095 371.39023 336.57031 371.83594 C 335.80519 372.46841 335.544 373.53615 334.99219 374.36133 C 334.18712 375.56522 333.62371 377.02524 332.4668 377.89648 C 331.61076 378.54114 330.50046 378.84885 329.43555 378.96875 C 328.17228 379.11099 326.85342 378.93245 325.64844 378.52734 C 324.35184 378.09143 323.13448 377.35349 322.11328 376.44336 C 321.30574 375.72365 320.53407 374.86833 320.1543 373.85547 C 319.73212 372.72951 320.75532 371.10347 319.90234 370.25586 C 319.68634 370.04122 319.42808 369.86981 319.15234 369.7168 A 4.6604079 4.6604079 0 0 0 321.6582 365.58398 A 4.6604079 4.6604079 0 0 0 316.99805 360.92383 z "
       id="path2918-0" />
    <path
       style="fill:none;stroke:#ff0000;stroke-width:0.60723931;stroke-miterlimit:4;stroke-dasharray:none"
       d="M 278.11914 400.76367 L 278.11914 407.42969 L 363.83203 407.42969 L 363.83203 400.76367 L 278.11914 400.76367 z M 278.11914 414.9043 L 278.11914 421.57227 L 363.83203 421.57227 L 363.83203 414.9043 L 278.11914 414.9043 z M 278.11914 430.81445 L 278.11914 437.48242 L 363.83203 437.48242 L 363.83203 430.81445 L 278.11914 430.81445 z M 278.11914 444.95703 L 278.11914 451.625 L 363.83203 451.625 L 363.83203 444.95703 L 278.11914 444.95703 z M 278.11914 458.21484 L 278.11914 464.88281 L 363.83203 464.88281 L 363.83203 458.21484 L 278.11914 458.21484 z M 278.11914 472.35742 L 278.11914 479.02539 L 363.83203 479.02539 L 363.83203 472.35742 L 278.11914 472.35742 z "
       id="rect2944-6-3" />
  </g>
</svg>
