  0
SECTION
  2
HEADER
  9
$ACADVER
  1
AC1014
  9
$HANDSEED
  5
FFFF
  9
$MEASUREMENT
 70
     1
  0
ENDSEC
  0
SECTION
  2
TABLES
  0
TABLE
  2
VPORT
  5
8
330
0
100
AcDbSymbolTable
 70
     4
  0
VPORT
  5
2E
330
8
100
AcDbSymbolTableRecord
100
AcDbViewportTableRecord
  2
*ACTIVE
 70
     0
 10
0.0
 20
0.0
 11
1.0
 21
1.0
 12
210.0
 22
148.5
 13
0.0
 23
0.0
 14
10.0
 24
10.0
 15
10.0
 25
10.0
 16
0.0
 26
0.0
 36
1.0
 17
0.0
 27
0.0
 37
0.0
 40
341.0
 41
1.24
 42
50.0
 43
0.0
 44
0.0
 50
0.0
 51
0.0
 71
     0
 72
   100
 73
     1
 74
     3
 75
     0
 76
     0
 77
     0
 78
     0
  0
ENDTAB
  0
TABLE
  2
LTYPE
  5
5
330
0
100
AcDbSymbolTable
 70
     1
  0
LTYPE
  5
14
330
5
100
AcDbSymbolTableRecord
100
AcDbLinetypeTableRecord
  2
BYBLOCK
 70
     0
  3

 72
    65
 73
     0
 40
0.0
  0
LTYPE
  5
15
330
5
100
AcDbSymbolTableRecord
100
AcDbLinetypeTableRecord
  2
BYLAYER
 70
     0
  3

 72
    65
 73
     0
 40
0.0
  0
LTYPE
  5
16
330
5
100
AcDbSymbolTableRecord
100
AcDbLinetypeTableRecord
  2
CONTINUOUS
 70
     0
  3
Solid line
 72
    65
 73
     0
 40
0.0
  0
ENDTAB
  0
TABLE
  2
LAYER
  5
2
100
AcDbSymbolTable
 70
2
  0
LAYER
  5
50
100
AcDbSymbolTableRecord
100
AcDbLayerTableRecord
  2
0
 70
0
  6
CONTINUOUS
  0
LAYER
  5
51
100
AcDbSymbolTableRecord
100
AcDbLayerTableRecord
  2
template_polygon_Hexagon_(6_sides)_D180_x_60_mm
 70
0
  6
CONTINUOUS
  0
ENDTAB
  0
TABLE
  2
STYLE
  5
3
330
0
100
AcDbSymbolTable
 70
     1
  0
STYLE
  5
11
330
3
100
AcDbSymbolTableRecord
100
AcDbTextStyleTableRecord
  2
STANDARD
 70
     0
 40
0.0
 41
1.0
 50
0.0
 71
     0
 42
2.5
  3
txt
  4

  0
ENDTAB
  0
TABLE
  2
VIEW
  5
6
330
0
100
AcDbSymbolTable
 70
     0
  0
ENDTAB
  0
TABLE
  2
UCS
  5
7
330
0
100
AcDbSymbolTable
 70
     0
  0
ENDTAB
  0
TABLE
  2
APPID
  5
9
330
0
100
AcDbSymbolTable
 70
     2
  0
APPID
  5
12
330
9
100
AcDbSymbolTableRecord
100
AcDbRegAppTableRecord
  2
ACAD
 70
     0
  0
ENDTAB
  0
TABLE
  2
DIMSTYLE
  5
A
330
0
100
AcDbSymbolTable
 70
     1
  0
DIMSTYLE
105
27
330
A
100
AcDbSymbolTableRecord
100
AcDbDimStyleTableRecord
  2
ISO-25
 70
     0
  3

  4

  5

  6

  7

 40
1.0
 41
2.5
 42
0.625
 43
3.75
 44
1.25
 45
0.0
 46
0.0
 47
0.0
 48
0.0
140
2.5
141
2.5
142
0.0
143
0.03937007874016
144
1.0
145
0.0
146
1.0
147
0.625
 71
     0
 72
     0
 73
     0
 74
     0
 75
     0
 76
     0
 77
     1
 78
     8
170
     0
171
     3
172
     1
173
     0
174
     0
175
     0
176
     0
177
     0
178
     0
270
     2
271
     2
272
     2
273
     2
274
     3
340
11
275
     0
280
     0
281
     0
282
     0
283
     0
284
     8
285
     0
286
     0
287
     3
288
     0
  0
ENDTAB
  0
TABLE
  2
BLOCK_RECORD
  5
1
330
0
100
AcDbSymbolTable
 70
     1
  0
BLOCK_RECORD
  5
1F
330
1
100
AcDbSymbolTableRecord
100
AcDbBlockTableRecord
  2
*MODEL_SPACE
  0
BLOCK_RECORD
  5
1B
330
1
100
AcDbSymbolTableRecord
100
AcDbBlockTableRecord
  2
*PAPER_SPACE
  0
ENDTAB
  0
ENDSEC
  0
SECTION
  2
BLOCKS
  0
BLOCK
  5
20
330
1F
100
AcDbEntity
  8
0
100
AcDbBlockBegin
  2
*MODEL_SPACE
 70
     0
 10
0.0
 20
0.0
 30
0.0
  3
*MODEL_SPACE
  1

  0
ENDBLK
  5
21
330
1F
100
AcDbEntity
  8
0
100
AcDbBlockEnd
  0
BLOCK
  5
1C
330
1B
100
AcDbEntity
 67
     1
  8
0
100
AcDbBlockBegin
  2
*PAPER_SPACE
  1

  0
ENDBLK
  5
1D
330
1B
100
AcDbEntity
 67
     1
  8
0
100
AcDbBlockEnd
  0
ENDSEC
  0
SECTION
  2
ENTITIES
  0
LWPOLYLINE
  5
100
100
AcDbEntity
  8
template_polygon_Hexagon_(6_sides)_D180_x_60_mm
 62
1
100
AcDbPolyline
 90
4
 70
0
 10
61.219673
 20
205.305006
 30
0.0
 10
54.220562
 20
207.404034
 30
0.0
 10
54.220562
 20
263.202895
 30
0.0
 10
61.219673
 20
265.305450
 30
0.0
  0
LWPOLYLINE
  5
101
100
AcDbEntity
  8
template_polygon_Hexagon_(6_sides)_D180_x_60_mm
 62
1
100
AcDbPolyline
 90
4
 70
0
 10
61.219673
 20
307.804589
 30
0.0
 10
54.220562
 20
309.903617
 30
0.0
 10
54.220562
 20
348.204700
 30
0.0
 10
61.219673
 20
350.303728
 30
0.0
  0
LWPOLYLINE
  5
102
100
AcDbEntity
  8
template_polygon_Hexagon_(6_sides)_D180_x_60_mm
 62
1
100
AcDbPolyline
 90
3
 70
0
 10
650.118673
 20
350.303728
 30
0.0
 10
650.118673
 20
265.305450
 30
0.0
 10
650.118673
 20
205.305006
 30
0.0
  0
LWPOLYLINE
  5
103
100
AcDbEntity
  8
template_polygon_Hexagon_(6_sides)_D180_x_60_mm
 62
1
100
AcDbPolyline
 90
38
 70
0
 10
61.219673
 20
350.303728
 30
0.0
 10
110.294589
 20
350.303728
 30
0.0
 10
110.389839
 20
352.441562
 30
0.0
 10
110.668534
 20
354.565284
 30
0.0
 10
111.130673
 20
356.653728
 30
0.0
 10
111.776256
 20
358.696312
 30
0.0
 10
112.594700
 20
360.675395
 30
0.0
 10
113.582478
 20
362.573339
 30
0.0
 10
114.732534
 20
364.379562
 30
0.0
 10
116.034284
 20
366.076423
 30
0.0
 10
117.480673
 20
367.653339
 30
0.0
 10
119.061117
 20
369.099728
 30
0.0
 10
120.757978
 20
370.405006
 30
0.0
 10
122.564200
 20
371.555062
 30
0.0
 10
124.462145
 20
372.542839
 30
0.0
 10
126.441228
 20
373.361284
 30
0.0
 10
128.480284
 20
374.006867
 30
0.0
 10
130.572256
 20
374.469006
 30
0.0
 10
132.692450
 20
374.747700
 30
0.0
 10
134.833812
 20
374.842950
 30
0.0
 10
136.971645
 20
374.747700
 30
0.0
 10
139.091839
 20
374.469006
 30
0.0
 10
141.183812
 20
374.006867
 30
0.0
 10
143.226395
 20
373.361284
 30
0.0
 10
145.201950
 20
372.542839
 30
0.0
 10
147.099895
 20
371.555062
 30
0.0
 10
148.906117
 20
370.405006
 30
0.0
 10
150.606506
 20
369.099728
 30
0.0
 10
152.183423
 20
367.653339
 30
0.0
 10
153.629812
 20
366.076423
 30
0.0
 10
154.931562
 20
364.379562
 30
0.0
 10
156.081617
 20
362.573339
 30
0.0
 10
157.069395
 20
360.675395
 30
0.0
 10
157.891367
 20
358.696312
 30
0.0
 10
158.533423
 20
356.653728
 30
0.0
 10
158.995562
 20
354.565284
 30
0.0
 10
159.277784
 20
352.441562
 30
0.0
 10
159.369506
 20
350.303728
 30
0.0
  0
LWPOLYLINE
  5
104
100
AcDbEntity
  8
template_polygon_Hexagon_(6_sides)_D180_x_60_mm
 62
1
100
AcDbPolyline
 90
3
 70
0
 10
61.219673
 20
265.305450
 30
0.0
 10
85.758895
 20
307.804589
 30
0.0
 10
61.219673
 20
307.804589
 30
0.0
  0
LWPOLYLINE
  5
105
100
AcDbEntity
  8
template_polygon_Hexagon_(6_sides)_D180_x_60_mm
 62
1
100
AcDbPolyline
 90
2
 70
0
 10
61.219673
 20
205.305006
 30
0.0
 10
159.369506
 20
205.305006
 30
0.0
  0
LWPOLYLINE
  5
106
100
AcDbEntity
  8
template_polygon_Hexagon_(6_sides)_D180_x_60_mm
 62
1
100
AcDbPolyline
 90
38
 70
0
 10
159.369506
 20
350.303728
 30
0.0
 10
208.444423
 20
350.303728
 30
0.0
 10
208.539673
 20
352.441562
 30
0.0
 10
208.818367
 20
354.565284
 30
0.0
 10
209.280506
 20
356.653728
 30
0.0
 10
209.926089
 20
358.696312
 30
0.0
 10
210.744534
 20
360.675395
 30
0.0
 10
211.732312
 20
362.573339
 30
0.0
 10
212.882367
 20
364.379562
 30
0.0
 10
214.184117
 20
366.076423
 30
0.0
 10
215.630506
 20
367.653339
 30
0.0
 10
217.210950
 20
369.099728
 30
0.0
 10
218.907812
 20
370.405006
 30
0.0
 10
220.714034
 20
371.555062
 30
0.0
 10
222.611978
 20
372.542839
 30
0.0
 10
224.591062
 20
373.361284
 30
0.0
 10
226.630117
 20
374.006867
 30
0.0
 10
228.722089
 20
374.469006
 30
0.0
 10
230.842284
 20
374.747700
 30
0.0
 10
232.983645
 20
374.842950
 30
0.0
 10
235.121478
 20
374.747700
 30
0.0
 10
237.241673
 20
374.469006
 30
0.0
 10
239.333645
 20
374.006867
 30
0.0
 10
241.372700
 20
373.361284
 30
0.0
 10
243.351784
 20
372.542839
 30
0.0
 10
245.249728
 20
371.555062
 30
0.0
 10
247.055950
 20
370.405006
 30
0.0
 10
248.752812
 20
369.099728
 30
0.0
 10
250.333256
 20
367.653339
 30
0.0
 10
251.779645
 20
366.076423
 30
0.0
 10
253.081395
 20
364.379562
 30
0.0
 10
254.231450
 20
362.573339
 30
0.0
 10
255.219228
 20
360.675395
 30
0.0
 10
256.041200
 20
358.696312
 30
0.0
 10
256.683256
 20
356.653728
 30
0.0
 10
257.145395
 20
354.565284
 30
0.0
 10
257.427617
 20
352.441562
 30
0.0
 10
257.519339
 20
350.303728
 30
0.0
  0
LWPOLYLINE
  5
107
100
AcDbEntity
  8
template_polygon_Hexagon_(6_sides)_D180_x_60_mm
 62
1
100
AcDbPolyline
 90
4
 70
0
 10
159.369506
 20
265.305450
 30
0.0
 10
183.908728
 20
307.804589
 30
0.0
 10
159.369506
 20
307.804589
 30
0.0
 10
159.369506
 20
265.305450
 30
0.0
  0
LWPOLYLINE
  5
108
100
AcDbEntity
  8
template_polygon_Hexagon_(6_sides)_D180_x_60_mm
 62
1
100
AcDbPolyline
 90
2
 70
0
 10
159.369506
 20
205.305006
 30
0.0
 10
257.519339
 20
205.305006
 30
0.0
  0
LWPOLYLINE
  5
109
100
AcDbEntity
  8
template_polygon_Hexagon_(6_sides)_D180_x_60_mm
 62
1
100
AcDbPolyline
 90
38
 70
0
 10
257.519339
 20
350.303728
 30
0.0
 10
306.594256
 20
350.303728
 30
0.0
 10
306.685978
 20
352.441562
 30
0.0
 10
306.968200
 20
354.565284
 30
0.0
 10
307.430339
 20
356.653728
 30
0.0
 10
308.072395
 20
358.696312
 30
0.0
 10
308.894367
 20
360.675395
 30
0.0
 10
309.882145
 20
362.573339
 30
0.0
 10
311.032200
 20
364.379562
 30
0.0
 10
312.333950
 20
366.076423
 30
0.0
 10
313.780339
 20
367.653339
 30
0.0
 10
315.360784
 20
369.099728
 30
0.0
 10
317.057645
 20
370.405006
 30
0.0
 10
318.863867
 20
371.555062
 30
0.0
 10
320.761812
 20
372.542839
 30
0.0
 10
322.740895
 20
373.361284
 30
0.0
 10
324.779950
 20
374.006867
 30
0.0
 10
326.871923
 20
374.469006
 30
0.0
 10
328.992117
 20
374.747700
 30
0.0
 10
331.129950
 20
374.842950
 30
0.0
 10
333.271312
 20
374.747700
 30
0.0
 10
335.391506
 20
374.469006
 30
0.0
 10
337.483478
 20
374.006867
 30
0.0
 10
339.522534
 20
373.361284
 30
0.0
 10
341.501617
 20
372.542839
 30
0.0
 10
343.399562
 20
371.555062
 30
0.0
 10
345.205784
 20
370.405006
 30
0.0
 10
346.902645
 20
369.099728
 30
0.0
 10
348.483089
 20
367.653339
 30
0.0
 10
349.929478
 20
366.076423
 30
0.0
 10
351.231228
 20
364.379562
 30
0.0
 10
352.381284
 20
362.573339
 30
0.0
 10
353.369062
 20
360.675395
 30
0.0
 10
354.191034
 20
358.696312
 30
0.0
 10
354.833089
 20
356.653728
 30
0.0
 10
355.295228
 20
354.565284
 30
0.0
 10
355.577450
 20
352.441562
 30
0.0
 10
355.669173
 20
350.303728
 30
0.0
  0
LWPOLYLINE
  5
10a
100
AcDbEntity
  8
template_polygon_Hexagon_(6_sides)_D180_x_60_mm
 62
1
100
AcDbPolyline
 90
4
 70
0
 10
257.519339
 20
265.305450
 30
0.0
 10
282.058562
 20
307.804589
 30
0.0
 10
257.519339
 20
307.804589
 30
0.0
 10
257.519339
 20
265.305450
 30
0.0
  0
LWPOLYLINE
  5
10b
100
AcDbEntity
  8
template_polygon_Hexagon_(6_sides)_D180_x_60_mm
 62
1
100
AcDbPolyline
 90
2
 70
0
 10
257.519339
 20
205.305006
 30
0.0
 10
355.669173
 20
205.305006
 30
0.0
  0
LWPOLYLINE
  5
10c
100
AcDbEntity
  8
template_polygon_Hexagon_(6_sides)_D180_x_60_mm
 62
1
100
AcDbPolyline
 90
38
 70
0
 10
355.669173
 20
350.303728
 30
0.0
 10
404.744089
 20
350.303728
 30
0.0
 10
404.835812
 20
352.441562
 30
0.0
 10
405.118034
 20
354.565284
 30
0.0
 10
405.580173
 20
356.653728
 30
0.0
 10
406.222228
 20
358.696312
 30
0.0
 10
407.044200
 20
360.675395
 30
0.0
 10
408.031978
 20
362.573339
 30
0.0
 10
409.182034
 20
364.379562
 30
0.0
 10
410.483784
 20
366.076423
 30
0.0
 10
411.930173
 20
367.653339
 30
0.0
 10
413.510617
 20
369.099728
 30
0.0
 10
415.207478
 20
370.405006
 30
0.0
 10
417.013700
 20
371.555062
 30
0.0
 10
418.911645
 20
372.542839
 30
0.0
 10
420.890728
 20
373.361284
 30
0.0
 10
422.929784
 20
374.006867
 30
0.0
 10
425.021756
 20
374.469006
 30
0.0
 10
427.141950
 20
374.747700
 30
0.0
 10
429.279784
 20
374.842950
 30
0.0
 10
431.421145
 20
374.747700
 30
0.0
 10
433.541339
 20
374.469006
 30
0.0
 10
435.633312
 20
374.006867
 30
0.0
 10
437.672367
 20
373.361284
 30
0.0
 10
439.651450
 20
372.542839
 30
0.0
 10
441.549395
 20
371.555062
 30
0.0
 10
443.355617
 20
370.405006
 30
0.0
 10
445.052478
 20
369.099728
 30
0.0
 10
446.632923
 20
367.653339
 30
0.0
 10
448.079312
 20
366.076423
 30
0.0
 10
449.381062
 20
364.379562
 30
0.0
 10
450.531117
 20
362.573339
 30
0.0
 10
451.518895
 20
360.675395
 30
0.0
 10
452.337339
 20
358.696312
 30
0.0
 10
452.982923
 20
356.653728
 30
0.0
 10
453.445062
 20
354.565284
 30
0.0
 10
453.723756
 20
352.441562
 30
0.0
 10
453.819006
 20
350.303728
 30
0.0
  0
LWPOLYLINE
  5
10d
100
AcDbEntity
  8
template_polygon_Hexagon_(6_sides)_D180_x_60_mm
 62
1
100
AcDbPolyline
 90
4
 70
0
 10
355.669173
 20
265.305450
 30
0.0
 10
380.204867
 20
307.804589
 30
0.0
 10
355.669173
 20
307.804589
 30
0.0
 10
355.669173
 20
265.305450
 30
0.0
  0
LWPOLYLINE
  5
10e
100
AcDbEntity
  8
template_polygon_Hexagon_(6_sides)_D180_x_60_mm
 62
1
100
AcDbPolyline
 90
38
 70
0
 10
453.819006
 20
350.303728
 30
0.0
 10
502.893923
 20
350.303728
 30
0.0
 10
502.985645
 20
352.441562
 30
0.0
 10
503.267867
 20
354.565284
 30
0.0
 10
503.730006
 20
356.653728
 30
0.0
 10
504.372062
 20
358.696312
 30
0.0
 10
505.194034
 20
360.675395
 30
0.0
 10
506.181812
 20
362.573339
 30
0.0
 10
507.331867
 20
364.379562
 30
0.0
 10
508.633617
 20
366.076423
 30
0.0
 10
510.080006
 20
367.653339
 30
0.0
 10
511.656923
 20
369.099728
 30
0.0
 10
513.357312
 20
370.405006
 30
0.0
 10
515.163534
 20
371.555062
 30
0.0
 10
517.061478
 20
372.542839
 30
0.0
 10
519.037034
 20
373.361284
 30
0.0
 10
521.079617
 20
374.006867
 30
0.0
 10
523.171589
 20
374.469006
 30
0.0
 10
525.291784
 20
374.747700
 30
0.0
 10
527.429617
 20
374.842950
 30
0.0
 10
529.570978
 20
374.747700
 30
0.0
 10
531.691173
 20
374.469006
 30
0.0
 10
533.783145
 20
374.006867
 30
0.0
 10
535.822200
 20
373.361284
 30
0.0
 10
537.801284
 20
372.542839
 30
0.0
 10
539.699228
 20
371.555062
 30
0.0
 10
541.505450
 20
370.405006
 30
0.0
 10
543.202312
 20
369.099728
 30
0.0
 10
544.782756
 20
367.653339
 30
0.0
 10
546.229145
 20
366.076423
 30
0.0
 10
547.530895
 20
364.379562
 30
0.0
 10
548.680950
 20
362.573339
 30
0.0
 10
549.668728
 20
360.675395
 30
0.0
 10
550.487173
 20
358.696312
 30
0.0
 10
551.132756
 20
356.653728
 30
0.0
 10
551.594895
 20
354.565284
 30
0.0
 10
551.873589
 20
352.441562
 30
0.0
 10
551.968839
 20
350.303728
 30
0.0
  0
LWPOLYLINE
  5
10f
100
AcDbEntity
  8
template_polygon_Hexagon_(6_sides)_D180_x_60_mm
 62
1
100
AcDbPolyline
 90
4
 70
0
 10
453.819006
 20
265.305450
 30
0.0
 10
478.354700
 20
307.804589
 30
0.0
 10
453.819006
 20
307.804589
 30
0.0
 10
453.819006
 20
265.305450
 30
0.0
  0
LWPOLYLINE
  5
110
100
AcDbEntity
  8
template_polygon_Hexagon_(6_sides)_D180_x_60_mm
 62
1
100
AcDbPolyline
 90
2
 70
0
 10
453.819006
 20
205.305006
 30
0.0
 10
551.968839
 20
205.305006
 30
0.0
  0
LWPOLYLINE
  5
111
100
AcDbEntity
  8
template_polygon_Hexagon_(6_sides)_D180_x_60_mm
 62
1
100
AcDbPolyline
 90
38
 70
0
 10
551.968839
 20
350.303728
 30
0.0
 10
601.043756
 20
350.303728
 30
0.0
 10
601.135478
 20
352.441562
 30
0.0
 10
601.414173
 20
354.565284
 30
0.0
 10
601.879839
 20
356.653728
 30
0.0
 10
602.521895
 20
358.696312
 30
0.0
 10
603.340339
 20
360.675395
 30
0.0
 10
604.331645
 20
362.573339
 30
0.0
 10
605.481700
 20
364.379562
 30
0.0
 10
606.783450
 20
366.076423
 30
0.0
 10
608.229839
 20
367.653339
 30
0.0
 10
609.806756
 20
369.099728
 30
0.0
 10
611.507145
 20
370.405006
 30
0.0
 10
613.313367
 20
371.555062
 30
0.0
 10
615.211312
 20
372.542839
 30
0.0
 10
617.186867
 20
373.361284
 30
0.0
 10
619.229450
 20
374.006867
 30
0.0
 10
621.317895
 20
374.469006
 30
0.0
 10
623.441617
 20
374.747700
 30
0.0
 10
625.579450
 20
374.842950
 30
0.0
 10
627.717284
 20
374.747700
 30
0.0
 10
629.841006
 20
374.469006
 30
0.0
 10
631.929450
 20
374.006867
 30
0.0
 10
633.972034
 20
373.361284
 30
0.0
 10
635.951117
 20
372.542839
 30
0.0
 10
637.849062
 20
371.555062
 30
0.0
 10
639.655284
 20
370.405006
 30
0.0
 10
641.352145
 20
369.099728
 30
0.0
 10
642.932589
 20
367.653339
 30
0.0
 10
644.375450
 20
366.076423
 30
0.0
 10
645.680728
 20
364.379562
 30
0.0
 10
646.830784
 20
362.573339
 30
0.0
 10
647.818562
 20
360.675395
 30
0.0
 10
648.637006
 20
358.696312
 30
0.0
 10
649.282589
 20
356.653728
 30
0.0
 10
649.744728
 20
354.565284
 30
0.0
 10
650.023423
 20
352.441562
 30
0.0
 10
650.118673
 20
350.303728
 30
0.0
  0
LWPOLYLINE
  5
112
100
AcDbEntity
  8
template_polygon_Hexagon_(6_sides)_D180_x_60_mm
 62
1
100
AcDbPolyline
 90
4
 70
0
 10
551.968839
 20
265.305450
 30
0.0
 10
576.504534
 20
307.804589
 30
0.0
 10
551.968839
 20
307.804589
 30
0.0
 10
551.968839
 20
265.305450
 30
0.0
  0
LWPOLYLINE
  5
113
100
AcDbEntity
  8
template_polygon_Hexagon_(6_sides)_D180_x_60_mm
 62
1
100
AcDbPolyline
 90
2
 70
0
 10
551.968839
 20
205.305006
 30
0.0
 10
650.118673
 20
205.305006
 30
0.0
  0
LWPOLYLINE
  5
114
100
AcDbEntity
  8
template_polygon_Hexagon_(6_sides)_D180_x_60_mm
 62
1
100
AcDbPolyline
 90
16
 70
0
 10
453.819006
 20
205.305006
 30
0.0
 10
463.379284
 20
202.743839
 30
0.0
 10
505.455089
 20
129.867006
 30
0.0
 10
502.893923
 20
120.303200
 30
0.0
 10
506.933228
 20
113.304089
 30
0.0
 10
461.901145
 20
35.304923
 30
0.0
 10
453.819006
 20
35.304923
 30
0.0
 10
449.776173
 20
28.305812
 30
0.0
 10
359.712006
 20
28.305812
 30
0.0
 10
355.669173
 20
35.304923
 30
0.0
 10
347.587034
 20
35.304923
 30
0.0
 10
302.551423
 20
113.304089
 30
0.0
 10
306.594256
 20
120.303200
 30
0.0
 10
304.033089
 20
129.867006
 30
0.0
 10
346.105367
 20
202.743839
 30
0.0
 10
355.669173
 20
205.305006
 30
0.0
  0
LWPOLYLINE
  5
115
100
AcDbEntity
  8
template_polygon_Hexagon_(6_sides)_D180_x_60_mm
 62
3
100
AcDbPolyline
 90
2
 70
0
 10
61.219673
 20
265.305450
 30
0.0
 10
61.219673
 20
205.305006
 30
0.0
  0
LWPOLYLINE
  5
116
100
AcDbEntity
  8
template_polygon_Hexagon_(6_sides)_D180_x_60_mm
 62
3
100
AcDbPolyline
 90
2
 70
0
 10
110.294589
 20
350.303728
 30
0.0
 10
85.758895
 20
307.804589
 30
0.0
  0
LWPOLYLINE
  5
117
100
AcDbEntity
  8
template_polygon_Hexagon_(6_sides)_D180_x_60_mm
 62
3
100
AcDbPolyline
 90
2
 70
0
 10
61.219673
 20
265.305450
 30
0.0
 10
159.369506
 20
265.305450
 30
0.0
  0
LWPOLYLINE
  5
118
100
AcDbEntity
  8
template_polygon_Hexagon_(6_sides)_D180_x_60_mm
 62
3
100
AcDbPolyline
 90
2
 70
0
 10
61.219673
 20
265.305450
 30
0.0
 10
61.219673
 20
205.305006
 30
0.0
  0
LWPOLYLINE
  5
119
100
AcDbEntity
  8
template_polygon_Hexagon_(6_sides)_D180_x_60_mm
 62
3
100
AcDbPolyline
 90
2
 70
0
 10
208.444423
 20
350.303728
 30
0.0
 10
183.908728
 20
307.804589
 30
0.0
  0
LWPOLYLINE
  5
11a
100
AcDbEntity
  8
template_polygon_Hexagon_(6_sides)_D180_x_60_mm
 62
3
100
AcDbPolyline
 90
2
 70
0
 10
159.369506
 20
265.305450
 30
0.0
 10
257.519339
 20
265.305450
 30
0.0
  0
LWPOLYLINE
  5
11b
100
AcDbEntity
  8
template_polygon_Hexagon_(6_sides)_D180_x_60_mm
 62
3
100
AcDbPolyline
 90
2
 70
0
 10
159.369506
 20
265.305450
 30
0.0
 10
159.369506
 20
205.305006
 30
0.0
  0
LWPOLYLINE
  5
11c
100
AcDbEntity
  8
template_polygon_Hexagon_(6_sides)_D180_x_60_mm
 62
3
100
AcDbPolyline
 90
2
 70
0
 10
306.594256
 20
350.303728
 30
0.0
 10
282.058562
 20
307.804589
 30
0.0
  0
LWPOLYLINE
  5
11d
100
AcDbEntity
  8
template_polygon_Hexagon_(6_sides)_D180_x_60_mm
 62
3
100
AcDbPolyline
 90
2
 70
0
 10
257.519339
 20
265.305450
 30
0.0
 10
355.669173
 20
265.305450
 30
0.0
  0
LWPOLYLINE
  5
11e
100
AcDbEntity
  8
template_polygon_Hexagon_(6_sides)_D180_x_60_mm
 62
3
100
AcDbPolyline
 90
2
 70
0
 10
257.519339
 20
265.305450
 30
0.0
 10
257.519339
 20
205.305006
 30
0.0
  0
LWPOLYLINE
  5
11f
100
AcDbEntity
  8
template_polygon_Hexagon_(6_sides)_D180_x_60_mm
 62
3
100
AcDbPolyline
 90
2
 70
0
 10
404.744089
 20
350.303728
 30
0.0
 10
380.204867
 20
307.804589
 30
0.0
  0
LWPOLYLINE
  5
120
100
AcDbEntity
  8
template_polygon_Hexagon_(6_sides)_D180_x_60_mm
 62
3
100
AcDbPolyline
 90
2
 70
0
 10
355.669173
 20
265.305450
 30
0.0
 10
453.819006
 20
265.305450
 30
0.0
  0
LWPOLYLINE
  5
121
100
AcDbEntity
  8
template_polygon_Hexagon_(6_sides)_D180_x_60_mm
 62
3
100
AcDbPolyline
 90
2
 70
0
 10
355.669173
 20
265.305450
 30
0.0
 10
355.669173
 20
205.305006
 30
0.0
  0
LWPOLYLINE
  5
122
100
AcDbEntity
  8
template_polygon_Hexagon_(6_sides)_D180_x_60_mm
 62
3
100
AcDbPolyline
 90
7
 70
0
 10
453.819006
 20
205.305006
 30
0.0
 10
502.893923
 20
120.303200
 30
0.0
 10
453.819006
 20
35.304923
 30
0.0
 10
355.669173
 20
35.304923
 30
0.0
 10
306.594256
 20
120.303200
 30
0.0
 10
355.669173
 20
205.305006
 30
0.0
 10
453.819006
 20
205.305006
 30
0.0
  0
LWPOLYLINE
  5
123
100
AcDbEntity
  8
template_polygon_Hexagon_(6_sides)_D180_x_60_mm
 62
3
100
AcDbPolyline
 90
2
 70
0
 10
502.893923
 20
350.303728
 30
0.0
 10
478.354700
 20
307.804589
 30
0.0
  0
LWPOLYLINE
  5
124
100
AcDbEntity
  8
template_polygon_Hexagon_(6_sides)_D180_x_60_mm
 62
3
100
AcDbPolyline
 90
2
 70
0
 10
453.819006
 20
265.305450
 30
0.0
 10
551.968839
 20
265.305450
 30
0.0
  0
LWPOLYLINE
  5
125
100
AcDbEntity
  8
template_polygon_Hexagon_(6_sides)_D180_x_60_mm
 62
3
100
AcDbPolyline
 90
2
 70
0
 10
453.819006
 20
265.305450
 30
0.0
 10
453.819006
 20
205.305006
 30
0.0
  0
LWPOLYLINE
  5
126
100
AcDbEntity
  8
template_polygon_Hexagon_(6_sides)_D180_x_60_mm
 62
3
100
AcDbPolyline
 90
2
 70
0
 10
601.043756
 20
350.303728
 30
0.0
 10
576.504534
 20
307.804589
 30
0.0
  0
LWPOLYLINE
  5
127
100
AcDbEntity
  8
template_polygon_Hexagon_(6_sides)_D180_x_60_mm
 62
3
100
AcDbPolyline
 90
2
 70
0
 10
551.968839
 20
265.305450
 30
0.0
 10
650.118673
 20
265.305450
 30
0.0
  0
LWPOLYLINE
  5
128
100
AcDbEntity
  8
template_polygon_Hexagon_(6_sides)_D180_x_60_mm
 62
3
100
AcDbPolyline
 90
2
 70
0
 10
551.968839
 20
265.305450
 30
0.0
 10
551.968839
 20
205.305006
 30
0.0
  0
LWPOLYLINE
  5
129
100
AcDbEntity
  8
template_polygon_Hexagon_(6_sides)_D180_x_60_mm
 62
4
100
AcDbPolyline
 90
2
 70
0
 10
61.219673
 20
350.303728
 30
0.0
 10
61.219673
 20
307.804589
 30
0.0
  0
LWPOLYLINE
  5
12a
100
AcDbEntity
  8
template_polygon_Hexagon_(6_sides)_D180_x_60_mm
 62
4
100
AcDbPolyline
 90
2
 70
0
 10
159.369506
 20
350.303728
 30
0.0
 10
159.369506
 20
307.804589
 30
0.0
  0
LWPOLYLINE
  5
12b
100
AcDbEntity
  8
template_polygon_Hexagon_(6_sides)_D180_x_60_mm
 62
4
100
AcDbPolyline
 90
2
 70
0
 10
257.519339
 20
350.303728
 30
0.0
 10
257.519339
 20
307.804589
 30
0.0
  0
LWPOLYLINE
  5
12c
100
AcDbEntity
  8
template_polygon_Hexagon_(6_sides)_D180_x_60_mm
 62
4
100
AcDbPolyline
 90
2
 70
0
 10
355.669173
 20
350.303728
 30
0.0
 10
355.669173
 20
307.804589
 30
0.0
  0
LWPOLYLINE
  5
12d
100
AcDbEntity
  8
template_polygon_Hexagon_(6_sides)_D180_x_60_mm
 62
4
100
AcDbPolyline
 90
2
 70
0
 10
453.819006
 20
350.303728
 30
0.0
 10
453.819006
 20
307.804589
 30
0.0
  0
LWPOLYLINE
  5
12e
100
AcDbEntity
  8
template_polygon_Hexagon_(6_sides)_D180_x_60_mm
 62
4
100
AcDbPolyline
 90
2
 70
0
 10
551.968839
 20
350.303728
 30
0.0
 10
551.968839
 20
307.804589
 30
0.0
  0
ENDSEC
  0
SECTION
  2
OBJECTS
  0
DICTIONARY
  5
C
330
0
100
AcDbDictionary
  3
ACAD_GROUP
350
D
  3
ACAD_MLINESTYLE
350
17
  0
DICTIONARY
  5
D
330
C
100
AcDbDictionary
  0
DICTIONARY
  5
1A
330
C
100
AcDbDictionary
  0
DICTIONARY
  5
17
330
C
100
AcDbDictionary
  3
STANDARD
350
18
  0
DICTIONARY
  5
19
330
C
100
AcDbDictionary
  0
ENDSEC
  0
EOF
