<?xml version="1.0" encoding="UTF-8" standalone="no"?>
<svg
   xmlns:dc="http://purl.org/dc/elements/1.1/"
   xmlns:cc="http://creativecommons.org/ns#"
   xmlns:rdf="http://www.w3.org/1999/02/22-rdf-syntax-ns#"
   xmlns:svg="http://www.w3.org/2000/svg"
   xmlns="http://www.w3.org/2000/svg"
   xmlns:sodipodi="http://sodipodi.sourceforge.net/DTD/sodipodi-0.dtd"
   xmlns:inkscape="http://www.inkscape.org/namespaces/inkscape"
   version="1.1"
   width="382.7mm"
   height="142.7mm"
   viewBox=" 0 0 1356.024737 505.63033699999994"
   id="svg2"
   inkscape:version="0.91 r13725"
   sodipodi:docname="caseplans.svg">
  <metadata
     id="metadata32">
    <rdf:RDF>
      <cc:Work
         rdf:about="">
        <dc:format>image/svg+xml</dc:format>
        <dc:type
           rdf:resource="http://purl.org/dc/dcmitype/StillImage" />
        <dc:title></dc:title>
      </cc:Work>
    </rdf:RDF>
  </metadata>
  <defs
     id="defs30" />
  <sodipodi:namedview
     pagecolor="#ffffff"
     bordercolor="#666666"
     borderopacity="1"
     objecttolerance="10"
     gridtolerance="10"
     guidetolerance="10"
     inkscape:pageopacity="0"
     inkscape:pageshadow="2"
     inkscape:window-width="1360"
     inkscape:window-height="749"
     id="namedview28"
     showgrid="false"
     inkscape:zoom="0.45279446"
     inkscape:cx="625.78899"
     inkscape:cy="12.290813"
     inkscape:window-x="1436"
     inkscape:window-y="-4"
     inkscape:window-maximized="1"
     inkscape:current-layer="svg2" />
  <!-- Front-->
  <path
     inkscape:connector-curvature="0"
     id="polygon6"
     d="m 36.673766,22.5 0,28.345703 -14.173828,0 0,28.347656 14.173828,0 0,8.679688 3.896484,0 0,-4.427735 8.859376,0 0,4.427735 8.857421,0 0,10.984375 -8.857421,0 0,4.429688 -8.859376,0 0,-4.429688 -3.896484,0 0,8.681638 -14.173828,0 0,28.34766 14.173828,0 0,28.3457 31.888672,0 0,-14.17383 17.539062,0 0,-3.89648 -4.427734,0 0,-8.85938 4.427734,0 0,-8.85742 10.984376,0 0,8.85742 4.429684,0 0,8.85938 -4.429684,0 0,3.89648 17.541014,0 0,14.17383 28.34571,0 0,-14.17383 28.3457,0 0,14.17383 28.34766,0 0,-14.17383 28.3457,0 0,14.17383 28.3457,0 0,-14.17383 28.34766,0 0,14.17383 28.3457,0 0,-14.17383 28.34766,0 0,14.17383 28.3457,0 0,-14.17383 28.3457,0 0,14.17383 28.34766,0 0,-14.17383 17.53906,0 0,-3.89648 -4.42968,0 0,-8.85938 4.42968,0 0,-8.85742 10.98438,0 0,8.85742 4.42968,0 0,8.85938 -4.42968,0 0,3.89648 17.53906,0 0,14.17383 31.89062,0 0,-28.3457 14.17188,0 0,-28.34766 -14.17188,0 0,-8.681638 -3.89843,0 0,4.429688 -8.85742,0 0,-4.429688 -8.85938,0 0,-10.984375 8.85938,0 0,-4.427735 8.85742,0 0,4.427735 3.89843,0 0,-8.679688 14.17188,0 0,-28.347656 -14.17188,0 0,-28.345703 -31.89062,0 0,14.173828 -17.53906,0 0,3.896484 4.42968,0 0,8.859376 -4.42968,0 0,8.857421 -10.98438,0 0,-8.857421 -4.42968,0 0,-8.859376 4.42968,0 0,-3.896484 -17.53906,0 0,-14.173828 -28.34766,0 0,14.173828 -28.3457,0 0,-14.173828 -28.3457,0 0,14.173828 -28.34766,0 0,-14.173828 -28.3457,0 0,14.173828 -28.34766,0 0,-14.173828 -28.3457,0 0,14.173828 -28.3457,0 0,-14.173828 -28.34766,0 0,14.173828 -28.3457,0 0,-14.173828 -28.34571,0 0,14.173828 -17.541013,0 0,3.896484 4.429683,0 0,8.859376 -4.429683,0 0,8.857421 -10.984376,0 0,-8.857421 -4.427734,0 0,-8.859376 4.427734,0 0,-3.896484 -17.539062,0 0,-14.173828 -31.888672,0 z"
     style="fill:none;stroke:#000000;stroke-width:0.90000075" />
  <!-- Back-->
  <path
     inkscape:connector-curvature="0"
     id="polygon10"
     d="m 532.73627,22.5 0,28.345703 -14.17383,0 0,28.347656 14.17383,0 0,8.679688 3.89844,0 0,-4.427735 8.85742,0 0,4.427735 8.85742,0 0,10.984375 -8.85742,0 0,4.429688 -8.85742,0 0,-4.429688 -3.89844,0 0,8.681638 -14.17383,0 0,28.34766 14.17383,0 0,28.3457 31.89062,0 0,-14.17383 17.53907,0 0,-3.89648 -4.42969,0 0,-8.85938 4.42969,0 0,-8.85742 10.98437,0 0,8.85742 4.42773,0 0,8.85938 -4.42773,0 0,3.89648 17.53906,0 0,14.17383 28.34571,0 0,-14.17383 28.34765,0 0,14.17383 28.34571,0 0,-14.17383 28.3457,0 0,14.17383 28.34766,0 0,-14.17383 28.3457,0 0,14.17383 28.3457,0 0,-14.17383 28.34766,0 0,14.17383 28.3457,0 0,-14.17383 28.34766,0 0,14.17383 28.3457,0 0,-14.17383 17.53906,0 0,-3.89648 -4.42968,0 0,-8.85938 4.42968,0 0,-8.85742 10.98438,0 0,8.85742 4.42968,0 0,8.85938 -4.42968,0 0,3.89648 17.53906,0 0,14.17383 31.89056,0 0,-28.3457 14.1719,0 0,-28.34766 -14.1719,0 0,-8.681638 -3.89837,0 0,4.429688 -8.85742,0 0,-4.429688 -8.85938,0 0,-10.984375 8.85938,0 0,-4.427735 8.85742,0 0,4.427735 3.89837,0 0,-8.679688 14.1719,0 0,-28.347656 -14.1719,0 0,-28.345703 -31.89056,0 0,14.173828 -17.53906,0 0,3.896484 4.42968,0 0,8.859376 -4.42968,0 0,8.857421 -10.98438,0 0,-8.857421 -4.42968,0 0,-8.859376 4.42968,0 0,-3.896484 -17.53906,0 0,-14.173828 -28.3457,0 0,14.173828 -28.34766,0 0,-14.173828 -28.3457,0 0,14.173828 -28.34766,0 0,-14.173828 -28.3457,0 0,14.173828 -28.3457,0 0,-14.173828 -28.34766,0 0,14.173828 -28.3457,0 0,-14.173828 -28.34571,0 0,14.173828 -28.34765,0 0,-14.173828 -28.34571,0 0,14.173828 -17.53906,0 0,3.896484 4.42773,0 0,8.859376 -4.42773,0 0,8.857421 -10.98437,0 0,-8.857421 -4.42969,0 0,-8.859376 4.42969,0 0,-3.896484 -17.53907,0 0,-14.173828 -31.89062,0 z"
     style="fill:none;stroke:#000000;stroke-width:0.90000075" />
  <!-- Left-->
  <path
     inkscape:connector-curvature="0"
     id="polygon14"
     d="m 1058.9179,22.5 0,14.173828 -44.293,0 0,14.171875 14.1738,0 0,28.347656 -14.1738,0 0,7.617188 13.1113,0 0,13.111328 -13.1113,0 0,7.617185 14.1738,0 0,28.34766 -14.1738,0 0,14.17187 44.293,0 0,14.17383 15.5898,0 0,-13.11133 13.1094,0 0,13.11133 15.5918,0 0,-14.17383 28.3457,0 0,14.17383 28.3476,0 0,-14.17383 28.3457,0 0,14.17383 28.3458,0 0,-14.17383 28.3476,0 0,14.17383 15.5898,0 0,-13.11133 13.1114,0 0,13.11133 15.5898,0 0,-14.17383 44.291,0 0,-14.17187 -14.1738,0 0,-28.34766 14.1738,0 0,-7.617185 -13.1093,0 0,-13.111328 13.1093,0 0,-7.617188 -14.1738,0 0,-28.347656 14.1738,0 0,-14.171875 -44.291,0 0,-14.173828 -15.5898,0 0,13.109375 -13.1114,0 0,-13.109375 -15.5898,0 0,14.173828 -28.3476,0 0,-14.173828 -28.3458,0 0,14.173828 -28.3457,0 0,-14.173828 -28.3476,0 0,14.173828 -28.3457,0 0,-14.173828 -15.5918,0 0,13.109375 -13.1094,0 0,-13.109375 -15.5898,0 z"
     style="fill:none;stroke:#000000;stroke-width:0.90000075" />
  <!-- Right-->
  <path
     inkscape:connector-curvature="0"
     id="polygon18"
     d="m 1058.9179,164.23242 0,14.17383 -44.293,0 0,14.17187 14.1738,0 0,28.34766 -14.1738,0 0,7.61719 13.1113,0 0,13.11133 -13.1113,0 0,7.61718 14.1738,0 0,28.34571 -14.1738,0 0,14.17383 44.293,0 0,14.17382 15.5898,0 0,-13.11132 13.1094,0 0,13.11132 15.5918,0 0,-14.17382 28.3457,0 0,14.17382 28.3476,0 0,-14.17382 28.3457,0 0,14.17382 28.3458,0 0,-14.17382 28.3476,0 0,14.17382 15.5898,0 0,-13.11132 13.1114,0 0,13.11132 15.5898,0 0,-14.17382 44.291,0 0,-14.17383 -14.1738,0 0,-28.34571 14.1738,0 0,-7.61718 -13.1093,0 0,-13.11133 13.1093,0 0,-7.61719 -14.1738,0 0,-28.34766 14.1738,0 0,-14.17187 -44.291,0 0,-14.17383 -15.5898,0 0,13.10938 -13.1114,0 0,-13.10938 -15.5898,0 0,14.17383 -28.3476,0 0,-14.17383 -28.3458,0 0,14.17383 -28.3457,0 0,-14.17383 -28.3476,0 0,14.17383 -28.3457,0 0,-14.17383 -15.5918,0 0,13.10938 -13.1094,0 0,-13.10938 -15.5898,0 z"
     style="fill:none;stroke:#000000;stroke-width:0.90000075" />
  <!-- Top-->
  <path
     inkscape:connector-curvature="0"
     id="polygon22"
     d="m 68.562438,164.23242 0,14.17383 -46.0625,0 0,30.11719 14.173828,0 0,16.65429 3.896484,0 0,-4.42968 8.859376,0 0,4.42968 8.857421,0 0,10.98438 -8.857421,0 0,4.42773 -8.859376,0 0,-4.42773 -3.896484,0 0,16.65234 -14.173828,0 0,28.34766 14.173828,0 0,28.3457 -14.173828,0 0,28.34571 14.173828,0 0,28.34765 -14.173828,0 0,28.34571 14.173828,0 0,16.65429 3.896484,0 0,-4.42969 8.859376,0 0,4.42969 8.857421,0 0,10.98438 -8.857421,0 0,4.42773 -8.859376,0 0,-4.42773 -3.896484,0 0,16.65234 -14.173828,0 0,30.11914 46.0625,0 0,14.17383 16.476562,0 0,-13.11133 13.111329,0 0,13.11133 16.476561,0 0,-14.17383 28.34571,0 0,14.17383 28.3457,0 0,-14.17383 28.34766,0 0,14.17383 28.3457,0 0,-14.17383 28.3457,0 0,14.17383 28.34766,0 0,-14.17383 28.3457,0 0,14.17383 28.34766,0 0,-14.17383 28.3457,0 0,14.17383 28.3457,0 0,-14.17383 28.34766,0 0,14.17383 16.47656,0 0,-13.11133 13.10938,0 0,13.11133 16.47656,0 0,-14.17383 46.0625,0 0,-30.11914 -14.17188,0 0,-16.65234 -3.89843,0 0,4.42773 -8.85742,0 0,-4.42773 -8.85938,0 0,-10.98438 8.85938,0 0,-4.42969 8.85742,0 0,4.42969 3.89843,0 0,-16.65429 14.17188,0 0,-28.34571 -14.17188,0 0,-28.34765 14.17188,0 0,-28.34571 -14.17188,0 0,-28.3457 14.17188,0 0,-28.34766 -14.17188,0 0,-16.65234 -3.89843,0 0,4.42773 -8.85742,0 0,-4.42773 -8.85938,0 0,-10.98438 8.85938,0 0,-4.42968 8.85742,0 0,4.42968 3.89843,0 0,-16.65429 14.17188,0 0,-30.11719 -46.0625,0 0,-14.17383 -16.47656,0 0,13.10938 -13.10938,0 0,-13.10938 -16.47656,0 0,14.17383 -28.34766,0 0,-14.17383 -28.3457,0 0,14.17383 -28.3457,0 0,-14.17383 -28.34766,0 0,14.17383 -28.3457,0 0,-14.17383 -28.34766,0 0,14.17383 -28.3457,0 0,-14.17383 -28.3457,0 0,14.17383 -28.34766,0 0,-14.17383 -28.3457,0 0,14.17383 -28.34571,0 0,-14.17383 -16.47656,0 0,13.10938 -13.111329,0 0,-13.10938 -16.476562,0 z"
     style="fill:none;stroke:#000000;stroke-width:0.90000075" />
  <!-- Bottom-->
  <path
     inkscape:connector-curvature="0"
     id="polygon26"
     d="m 564.62689,164.23242 0,14.17383 -46.06445,0 0,30.11719 14.17383,0 0,16.65429 3.89844,0 0,-4.42968 8.85742,0 0,4.42968 8.85742,0 0,10.98438 -8.85742,0 0,4.42773 -8.85742,0 0,-4.42773 -3.89844,0 0,16.65234 -14.17383,0 0,28.34766 14.17383,0 0,28.3457 -14.17383,0 0,28.34571 14.17383,0 0,28.34765 -14.17383,0 0,28.34571 14.17383,0 0,16.65429 3.89844,0 0,-4.42969 8.85742,0 0,4.42969 8.85742,0 0,10.98438 -8.85742,0 0,4.42773 -8.85742,0 0,-4.42773 -3.89844,0 0,16.65234 -14.17383,0 0,30.11914 46.06445,0 0,14.17383 16.47461,0 0,-13.11133 13.11133,0 0,13.11133 16.47656,0 0,-14.17383 28.34571,0 0,14.17383 28.34765,0 0,-14.17383 28.34571,0 0,14.17383 28.3457,0 0,-14.17383 28.34766,0 0,14.17383 28.3457,0 0,-14.17383 28.3457,0 0,14.17383 28.34766,0 0,-14.17383 28.3457,0 0,14.17383 28.34766,0 0,-14.17383 28.3457,0 0,14.17383 16.47656,0 0,-13.11133 13.10938,0 0,13.11133 16.47656,0 0,-14.17383 46.06246,0 0,-30.11914 -14.1719,0 0,-16.65234 -3.89837,0 0,4.42773 -8.85742,0 0,-4.42773 -8.85938,0 0,-10.98438 8.85938,0 0,-4.42969 8.85742,0 0,4.42969 3.89837,0 0,-16.65429 14.1719,0 0,-28.34571 -14.1719,0 0,-28.34765 14.1719,0 0,-28.34571 -14.1719,0 0,-28.3457 14.1719,0 0,-28.34766 -14.1719,0 0,-16.65234 -3.89837,0 0,4.42773 -8.85742,0 0,-4.42773 -8.85938,0 0,-10.98438 8.85938,0 0,-4.42968 8.85742,0 0,4.42968 3.89837,0 0,-16.65429 14.1719,0 0,-30.11719 -46.06246,0 0,-14.17383 -16.47656,0 0,13.10938 -13.10938,0 0,-13.10938 -16.47656,0 0,14.17383 -28.3457,0 0,-14.17383 -28.34766,0 0,14.17383 -28.3457,0 0,-14.17383 -28.34766,0 0,14.17383 -28.3457,0 0,-14.17383 -28.3457,0 0,14.17383 -28.34766,0 0,-14.17383 -28.3457,0 0,14.17383 -28.34571,0 0,-14.17383 -28.34765,0 0,14.17383 -28.34571,0 0,-14.17383 -16.47656,0 0,13.10938 -13.11133,0 0,-13.10938 -16.47461,0 z"
     style="fill:none;stroke:#000000;stroke-width:0.90000075" />
</svg>
