  0
SECTION
  2
HEADER
  9
$ACADVER
  1
AC1014
  9
$HANDSEED
  5
FFFF
  9
$MEASUREMENT
 70
     1
  0
ENDSEC
  0
SECTION
  2
TABLES
  0
TABLE
  2
VPORT
  5
8
330
0
100
AcDbSymbolTable
 70
     4
  0
VPORT
  5
2E
330
8
100
AcDbSymbolTableRecord
100
AcDbViewportTableRecord
  2
*ACTIVE
 70
     0
 10
0.0
 20
0.0
 11
1.0
 21
1.0
 12
210.0
 22
148.5
 13
0.0
 23
0.0
 14
10.0
 24
10.0
 15
10.0
 25
10.0
 16
0.0
 26
0.0
 36
1.0
 17
0.0
 27
0.0
 37
0.0
 40
341.0
 41
1.24
 42
50.0
 43
0.0
 44
0.0
 50
0.0
 51
0.0
 71
     0
 72
   100
 73
     1
 74
     3
 75
     0
 76
     0
 77
     0
 78
     0
  0
ENDTAB
  0
TABLE
  2
LTYPE
  5
5
330
0
100
AcDbSymbolTable
 70
     1
  0
LTYPE
  5
14
330
5
100
AcDbSymbolTableRecord
100
AcDbLinetypeTableRecord
  2
BYBLOCK
 70
     0
  3

 72
    65
 73
     0
 40
0.0
  0
LTYPE
  5
15
330
5
100
AcDbSymbolTableRecord
100
AcDbLinetypeTableRecord
  2
BYLAYER
 70
     0
  3

 72
    65
 73
     0
 40
0.0
  0
LTYPE
  5
16
330
5
100
AcDbSymbolTableRecord
100
AcDbLinetypeTableRecord
  2
CONTINUOUS
 70
     0
  3
Solid line
 72
    65
 73
     0
 40
0.0
  0
ENDTAB
  0
TABLE
  2
LAYER
  5
2
100
AcDbSymbolTable
 70
2
  0
LAYER
  5
50
100
AcDbSymbolTableRecord
100
AcDbLayerTableRecord
  2
0
 70
0
  6
CONTINUOUS
  0
LAYER
  5
51
100
AcDbSymbolTableRecord
100
AcDbLayerTableRecord
  2
Layer_1
 70
0
  6
CONTINUOUS
  0
ENDTAB
  0
TABLE
  2
STYLE
  5
3
330
0
100
AcDbSymbolTable
 70
     1
  0
STYLE
  5
11
330
3
100
AcDbSymbolTableRecord
100
AcDbTextStyleTableRecord
  2
STANDARD
 70
     0
 40
0.0
 41
1.0
 50
0.0
 71
     0
 42
2.5
  3
txt
  4

  0
ENDTAB
  0
TABLE
  2
VIEW
  5
6
330
0
100
AcDbSymbolTable
 70
     0
  0
ENDTAB
  0
TABLE
  2
UCS
  5
7
330
0
100
AcDbSymbolTable
 70
     0
  0
ENDTAB
  0
TABLE
  2
APPID
  5
9
330
0
100
AcDbSymbolTable
 70
     2
  0
APPID
  5
12
330
9
100
AcDbSymbolTableRecord
100
AcDbRegAppTableRecord
  2
ACAD
 70
     0
  0
ENDTAB
  0
TABLE
  2
DIMSTYLE
  5
A
330
0
100
AcDbSymbolTable
 70
     1
  0
DIMSTYLE
105
27
330
A
100
AcDbSymbolTableRecord
100
AcDbDimStyleTableRecord
  2
ISO-25
 70
     0
  3

  4

  5

  6

  7

 40
1.0
 41
2.5
 42
0.625
 43
3.75
 44
1.25
 45
0.0
 46
0.0
 47
0.0
 48
0.0
140
2.5
141
2.5
142
0.0
143
0.03937007874016
144
1.0
145
0.0
146
1.0
147
0.625
 71
     0
 72
     0
 73
     0
 74
     0
 75
     0
 76
     0
 77
     1
 78
     8
170
     0
171
     3
172
     1
173
     0
174
     0
175
     0
176
     0
177
     0
178
     0
270
     2
271
     2
272
     2
273
     2
274
     3
340
11
275
     0
280
     0
281
     0
282
     0
283
     0
284
     8
285
     0
286
     0
287
     3
288
     0
  0
ENDTAB
  0
TABLE
  2
BLOCK_RECORD
  5
1
330
0
100
AcDbSymbolTable
 70
     1
  0
BLOCK_RECORD
  5
1F
330
1
100
AcDbSymbolTableRecord
100
AcDbBlockTableRecord
  2
*MODEL_SPACE
  0
BLOCK_RECORD
  5
1B
330
1
100
AcDbSymbolTableRecord
100
AcDbBlockTableRecord
  2
*PAPER_SPACE
  0
ENDTAB
  0
ENDSEC
  0
SECTION
  2
BLOCKS
  0
BLOCK
  5
20
330
1F
100
AcDbEntity
  8
0
100
AcDbBlockBegin
  2
*MODEL_SPACE
 70
     0
 10
0.0
 20
0.0
 30
0.0
  3
*MODEL_SPACE
  1

  0
ENDBLK
  5
21
330
1F
100
AcDbEntity
  8
0
100
AcDbBlockEnd
  0
BLOCK
  5
1C
330
1B
100
AcDbEntity
 67
     1
  8
0
100
AcDbBlockBegin
  2
*PAPER_SPACE
  1

  0
ENDBLK
  5
1D
330
1B
100
AcDbEntity
 67
     1
  8
0
100
AcDbBlockEnd
  0
ENDSEC
  0
SECTION
  2
ENTITIES
  0
SPLINE
  5
100
100
AcDbEntity
  8
Layer_1
 62
7
100
AcDbSpline
 70
8
 71
3
 72
8
 73
4
 74
0
 40
0
 40
0
 40
0
 40
0
 40
1
 40
1
 40
1
 40
1
 10
99.586409
 20
221.136242
 30
0.0
 10
99.382614
 20
221.113010
 30
0.0
 10
99.167267
 20
220.844216
 30
0.0
 10
98.875342
 20
220.322096
 30
0.0
  0
SPLINE
  5
101
100
AcDbEntity
  8
Layer_1
 62
7
100
AcDbSpline
 70
8
 71
3
 72
8
 73
4
 74
0
 40
0
 40
0
 40
0
 40
0
 40
1
 40
1
 40
1
 40
1
 10
98.875342
 20
220.322096
 30
0.0
 10
98.610922
 20
219.849168
 30
0.0
 10
97.854934
 20
218.614491
 30
0.0
 10
97.195239
 20
217.578699
 30
0.0
  0
SPLINE
  5
102
100
AcDbEntity
  8
Layer_1
 62
7
100
AcDbSpline
 70
8
 71
3
 72
8
 73
4
 74
0
 40
0
 40
0
 40
0
 40
0
 40
1
 40
1
 40
1
 40
1
 10
97.195239
 20
217.578699
 30
0.0
 10
96.535545
 20
216.542904
 30
0.0
 10
95.995795
 20
215.469370
 30
0.0
 10
95.995795
 20
215.193037
 30
0.0
  0
SPLINE
  5
103
100
AcDbEntity
  8
Layer_1
 62
7
100
AcDbSpline
 70
8
 71
3
 72
8
 73
4
 74
0
 40
0
 40
0
 40
0
 40
0
 40
1
 40
1
 40
1
 40
1
 10
95.995795
 20
215.193037
 30
0.0
 10
95.995795
 20
214.916702
 30
0.0
 10
95.802072
 20
214.690882
 30
0.0
 10
95.565296
 20
214.690882
 30
0.0
  0
SPLINE
  5
104
100
AcDbEntity
  8
Layer_1
 62
7
100
AcDbSpline
 70
8
 71
3
 72
8
 73
4
 74
0
 40
0
 40
0
 40
0
 40
0
 40
1
 40
1
 40
1
 40
1
 10
95.565296
 20
214.690882
 30
0.0
 10
94.993186
 20
214.690882
 30
0.0
 10
92.846076
 20
211.305378
 30
0.0
 10
93.004900
 20
210.653781
 30
0.0
  0
SPLINE
  5
105
100
AcDbEntity
  8
Layer_1
 62
7
100
AcDbSpline
 70
8
 71
3
 72
8
 73
4
 74
0
 40
0
 40
0
 40
0
 40
0
 40
1
 40
1
 40
1
 40
1
 10
93.004900
 20
210.653781
 30
0.0
 10
93.087856
 20
210.313443
 30
0.0
 10
92.911569
 20
210.061303
 30
0.0
 10
92.473529
 20
209.894758
 30
0.0
  0
SPLINE
  5
106
100
AcDbEntity
  8
Layer_1
 62
7
100
AcDbSpline
 70
8
 71
3
 72
8
 73
4
 74
0
 40
0
 40
0
 40
0
 40
0
 40
1
 40
1
 40
1
 40
1
 10
92.473529
 20
209.894758
 30
0.0
 10
91.689600
 20
209.596709
 30
0.0
 10
88.544852
 20
203.460806
 30
0.0
 10
88.815113
 20
202.756520
 30
0.0
  0
SPLINE
  5
107
100
AcDbEntity
  8
Layer_1
 62
7
100
AcDbSpline
 70
8
 71
3
 72
8
 73
4
 74
0
 40
0
 40
0
 40
0
 40
0
 40
1
 40
1
 40
1
 40
1
 10
88.815113
 20
202.756520
 30
0.0
 10
88.921226
 20
202.479990
 30
0.0
 10
88.762109
 20
202.197497
 30
0.0
 10
88.387369
 20
201.996944
 30
0.0
  0
SPLINE
  5
108
100
AcDbEntity
  8
Layer_1
 62
7
100
AcDbSpline
 70
8
 71
3
 72
8
 73
4
 74
0
 40
0
 40
0
 40
0
 40
0
 40
1
 40
1
 40
1
 40
1
 10
88.387369
 20
201.996944
 30
0.0
 10
88.059158
 20
201.821289
 30
0.0
 10
87.476068
 20
201.017947
 30
0.0
 10
87.091464
 20
200.211559
 30
0.0
  0
SPLINE
  5
109
100
AcDbEntity
  8
Layer_1
 62
7
100
AcDbSpline
 70
8
 71
3
 72
8
 73
4
 74
0
 40
0
 40
0
 40
0
 40
0
 40
1
 40
1
 40
1
 40
1
 10
87.091464
 20
200.211559
 30
0.0
 10
86.413332
 20
198.789734
 30
0.0
 10
84.475478
 20
195.937616
 30
0.0
 10
82.992626
 20
194.178508
 30
0.0
  0
SPLINE
  5
10a
100
AcDbEntity
  8
Layer_1
 62
7
100
AcDbSpline
 70
8
 71
3
 72
8
 73
4
 74
0
 40
0
 40
0
 40
0
 40
0
 40
1
 40
1
 40
1
 40
1
 10
82.992626
 20
194.178508
 30
0.0
 10
82.593138
 20
193.704598
 30
0.0
 10
82.094347
 20
192.887347
 30
0.0
 10
81.883580
 20
192.362253
 30
0.0
  0
SPLINE
  5
10b
100
AcDbEntity
  8
Layer_1
 62
7
100
AcDbSpline
 70
8
 71
3
 72
8
 73
4
 74
0
 40
0
 40
0
 40
0
 40
0
 40
1
 40
1
 40
1
 40
1
 10
81.883580
 20
192.362253
 30
0.0
 10
81.672814
 20
191.837159
 30
0.0
 10
81.144192
 20
190.992132
 30
0.0
 10
80.708940
 20
190.484812
 30
0.0
  0
SPLINE
  5
10c
100
AcDbEntity
  8
Layer_1
 62
7
100
AcDbSpline
 70
8
 71
3
 72
8
 73
4
 74
0
 40
0
 40
0
 40
0
 40
0
 40
1
 40
1
 40
1
 40
1
 10
80.708940
 20
190.484812
 30
0.0
 10
80.273689
 20
189.977492
 30
0.0
 10
79.830896
 20
189.215492
 30
0.0
 10
79.725020
 20
188.791479
 30
0.0
  0
SPLINE
  5
10d
100
AcDbEntity
  8
Layer_1
 62
7
100
AcDbSpline
 70
8
 71
3
 72
8
 73
4
 74
0
 40
0
 40
0
 40
0
 40
0
 40
1
 40
1
 40
1
 40
1
 10
79.725020
 20
188.791479
 30
0.0
 10
79.521956
 20
187.978227
 30
0.0
 10
78.166801
 20
185.587746
 30
0.0
 10
77.368575
 20
184.634216
 30
0.0
  0
SPLINE
  5
10e
100
AcDbEntity
  8
Layer_1
 62
7
100
AcDbSpline
 70
8
 71
3
 72
8
 73
4
 74
0
 40
0
 40
0
 40
0
 40
0
 40
1
 40
1
 40
1
 40
1
 10
77.368575
 20
184.634216
 30
0.0
 10
77.108696
 20
184.323771
 30
0.0
 10
76.736555
 20
183.665200
 30
0.0
 10
76.541754
 20
183.171289
 30
0.0
  0
SPLINE
  5
10f
100
AcDbEntity
  8
Layer_1
 62
7
100
AcDbSpline
 70
8
 71
3
 72
8
 73
4
 74
0
 40
0
 40
0
 40
0
 40
0
 40
1
 40
1
 40
1
 40
1
 10
76.541754
 20
183.171289
 30
0.0
 10
76.346953
 20
182.677377
 30
0.0
 10
75.881825
 20
181.859212
 30
0.0
 10
75.508225
 20
181.352829
 30
0.0
  0
SPLINE
  5
110
100
AcDbEntity
  8
Layer_1
 62
7
100
AcDbSpline
 70
8
 71
3
 72
8
 73
4
 74
0
 40
0
 40
0
 40
0
 40
0
 40
1
 40
1
 40
1
 40
1
 10
75.508225
 20
181.352829
 30
0.0
 10
75.134628
 20
180.846443
 30
0.0
 10
74.829128
 20
180.272559
 30
0.0
 10
74.829128
 20
180.077317
 30
0.0
  0
SPLINE
  5
111
100
AcDbEntity
  8
Layer_1
 62
7
100
AcDbSpline
 70
8
 71
3
 72
8
 73
4
 74
0
 40
0
 40
0
 40
0
 40
0
 40
1
 40
1
 40
1
 40
1
 10
74.829128
 20
180.077317
 30
0.0
 10
74.829128
 20
179.882079
 30
0.0
 10
74.273043
 20
178.922241
 30
0.0
 10
73.593302
 20
177.944666
 30
0.0
  0
SPLINE
  5
112
100
AcDbEntity
  8
Layer_1
 62
7
100
AcDbSpline
 70
8
 71
3
 72
8
 73
4
 74
0
 40
0
 40
0
 40
0
 40
0
 40
1
 40
1
 40
1
 40
1
 10
73.593302
 20
177.944666
 30
0.0
 10
72.913562
 20
176.967090
 30
0.0
 10
71.955680
 20
175.366196
 30
0.0
 10
71.464509
 20
174.387122
 30
0.0
  0
SPLINE
  5
113
100
AcDbEntity
  8
Layer_1
 62
7
100
AcDbSpline
 70
8
 71
3
 72
8
 73
4
 74
0
 40
0
 40
0
 40
0
 40
0
 40
1
 40
1
 40
1
 40
1
 10
71.464509
 20
174.387122
 30
0.0
 10
70.973338
 20
173.408048
 30
0.0
 10
69.989957
 20
171.700397
 30
0.0
 10
69.279493
 20
170.592006
 30
0.0
  0
SPLINE
  5
114
100
AcDbEntity
  8
Layer_1
 62
7
100
AcDbSpline
 70
8
 71
3
 72
8
 73
4
 74
0
 40
0
 40
0
 40
0
 40
0
 40
1
 40
1
 40
1
 40
1
 10
69.279493
 20
170.592006
 30
0.0
 10
67.867815
 20
168.389640
 30
0.0
 10
66.926906
 20
166.389308
 30
0.0
 10
66.926906
 20
165.590828
 30
0.0
  0
SPLINE
  5
115
100
AcDbEntity
  8
Layer_1
 62
7
100
AcDbSpline
 70
8
 71
3
 72
8
 73
4
 74
0
 40
0
 40
0
 40
0
 40
0
 40
1
 40
1
 40
1
 40
1
 10
66.926906
 20
165.590828
 30
0.0
 10
66.926906
 20
165.309862
 30
0.0
 10
66.764707
 20
165.017590
 30
0.0
 10
66.566409
 20
164.941497
 30
0.0
  0
SPLINE
  5
116
100
AcDbEntity
  8
Layer_1
 62
7
100
AcDbSpline
 70
8
 71
3
 72
8
 73
4
 74
0
 40
0
 40
0
 40
0
 40
0
 40
1
 40
1
 40
1
 40
1
 10
66.566409
 20
164.941497
 30
0.0
 10
66.368109
 20
164.865401
 30
0.0
 10
65.837937
 20
164.126823
 30
0.0
 10
65.387911
 20
163.299980
 30
0.0
  0
SPLINE
  5
117
100
AcDbEntity
  8
Layer_1
 62
7
100
AcDbSpline
 70
8
 71
3
 72
8
 73
4
 74
0
 40
0
 40
0
 40
0
 40
0
 40
1
 40
1
 40
1
 40
1
 10
65.387911
 20
163.299980
 30
0.0
 10
64.937886
 20
162.473133
 30
0.0
 10
64.158535
 20
161.385440
 30
0.0
 10
63.655993
 20
160.882899
 30
0.0
  0
SPLINE
  5
118
100
AcDbEntity
  8
Layer_1
 62
7
100
AcDbSpline
 70
8
 71
3
 72
8
 73
4
 74
0
 40
0
 40
0
 40
0
 40
0
 40
1
 40
1
 40
1
 40
1
 10
63.655993
 20
160.882899
 30
0.0
 10
62.849133
 20
160.076039
 30
0.0
 10
59.589128
 20
154.677998
 30
0.0
 10
59.589128
 20
154.148701
 30
0.0
  0
SPLINE
  5
119
100
AcDbEntity
  8
Layer_1
 62
7
100
AcDbSpline
 70
8
 71
3
 72
8
 73
4
 74
0
 40
0
 40
0
 40
0
 40
0
 40
1
 40
1
 40
1
 40
1
 10
59.589128
 20
154.148701
 30
0.0
 10
59.589128
 20
153.854577
 30
0.0
 10
57.559967
 20
150.536875
 30
0.0
 10
57.175908
 20
150.203105
 30
0.0
  0
SPLINE
  5
11a
100
AcDbEntity
  8
Layer_1
 62
7
100
AcDbSpline
 70
8
 71
3
 72
8
 73
4
 74
0
 40
0
 40
0
 40
0
 40
0
 40
1
 40
1
 40
1
 40
1
 10
57.175908
 20
150.203105
 30
0.0
 10
56.997301
 20
150.047882
 30
0.0
 10
56.534236
 20
149.349382
 30
0.0
 10
56.146787
 20
148.650882
 30
0.0
  0
SPLINE
  5
11b
100
AcDbEntity
  8
Layer_1
 62
7
100
AcDbSpline
 70
8
 71
3
 72
8
 73
4
 74
0
 40
0
 40
0
 40
0
 40
0
 40
1
 40
1
 40
1
 40
1
 10
56.146787
 20
148.650882
 30
0.0
 10
55.759339
 20
147.952382
 30
0.0
 10
54.653538
 20
146.138887
 30
0.0
 10
53.690020
 20
144.620947
 30
0.0
  0
SPLINE
  5
11c
100
AcDbEntity
  8
Layer_1
 62
7
100
AcDbSpline
 70
8
 71
3
 72
8
 73
4
 74
0
 40
0
 40
0
 40
0
 40
0
 40
1
 40
1
 40
1
 40
1
 10
53.690020
 20
144.620947
 30
0.0
 10
52.726503
 20
143.103006
 30
0.0
 10
51.759722
 20
141.354820
 30
0.0
 10
51.541384
 20
140.735980
 30
0.0
  0
SPLINE
  5
11d
100
AcDbEntity
  8
Layer_1
 62
7
100
AcDbSpline
 70
8
 71
3
 72
8
 73
4
 74
0
 40
0
 40
0
 40
0
 40
0
 40
1
 40
1
 40
1
 40
1
 10
51.541384
 20
140.735980
 30
0.0
 10
51.323042
 20
140.117143
 30
0.0
 10
50.821996
 20
139.187779
 30
0.0
 10
50.427930
 20
138.671129
 30
0.0
  0
SPLINE
  5
11e
100
AcDbEntity
  8
Layer_1
 62
7
100
AcDbSpline
 70
8
 71
3
 72
8
 73
4
 74
0
 40
0
 40
0
 40
0
 40
0
 40
1
 40
1
 40
1
 40
1
 10
50.427930
 20
138.671129
 30
0.0
 10
50.033860
 20
138.154479
 30
0.0
 10
49.711350
 20
137.618076
 30
0.0
 10
49.711350
 20
137.478850
 30
0.0
  0
SPLINE
  5
11f
100
AcDbEntity
  8
Layer_1
 62
7
100
AcDbSpline
 70
8
 71
3
 72
8
 73
4
 74
0
 40
0
 40
0
 40
0
 40
0
 40
1
 40
1
 40
1
 40
1
 10
49.711350
 20
137.478850
 30
0.0
 10
49.711350
 20
137.339624
 30
0.0
 10
49.282663
 20
136.589421
 30
0.0
 10
48.758850
 20
135.811975
 30
0.0
  0
SPLINE
  5
120
100
AcDbEntity
  8
Layer_1
 62
7
100
AcDbSpline
 70
8
 71
3
 72
8
 73
4
 74
0
 40
0
 40
0
 40
0
 40
0
 40
1
 40
1
 40
1
 40
1
 10
48.758850
 20
135.811975
 30
0.0
 10
46.052043
 20
131.794477
 30
0.0
 10
45.154985
 20
130.234245
 30
0.0
 10
45.406908
 20
129.982323
 30
0.0
  0
SPLINE
  5
121
100
AcDbEntity
  8
Layer_1
 62
7
100
AcDbSpline
 70
8
 71
3
 72
8
 73
4
 74
0
 40
0
 40
0
 40
0
 40
0
 40
1
 40
1
 40
1
 40
1
 10
45.406908
 20
129.982323
 30
0.0
 10
45.710229
 20
129.679001
 30
0.0
 10
54.406797
 20
129.826307
 30
0.0
 10
55.852438
 20
130.159262
 30
0.0
  0
SPLINE
  5
122
100
AcDbEntity
  8
Layer_1
 62
7
100
AcDbSpline
 70
8
 71
3
 72
8
 73
4
 74
0
 40
0
 40
0
 40
0
 40
0
 40
1
 40
1
 40
1
 40
1
 10
55.852438
 20
130.159262
 30
0.0
 10
56.421833
 20
130.290402
 30
0.0
 10
56.915947
 20
130.251534
 30
0.0
 10
57.150000
 20
130.057286
 30
0.0
  0
SPLINE
  5
123
100
AcDbEntity
  8
Layer_1
 62
7
100
AcDbSpline
 70
8
 71
3
 72
8
 73
4
 74
0
 40
0
 40
0
 40
0
 40
0
 40
1
 40
1
 40
1
 40
1
 10
57.150000
 20
130.057286
 30
0.0
 10
57.359863
 20
129.883116
 30
0.0
 10
58.520635
 20
129.748191
 30
0.0
 10
59.758351
 20
129.754118
 30
0.0
  0
SPLINE
  5
124
100
AcDbEntity
  8
Layer_1
 62
7
100
AcDbSpline
 70
8
 71
3
 72
8
 73
4
 74
0
 40
0
 40
0
 40
0
 40
0
 40
1
 40
1
 40
1
 40
1
 10
59.758351
 20
129.754118
 30
0.0
 10
60.984785
 20
129.759988
 30
0.0
 10
63.229149
 20
129.764628
 30
0.0
 10
64.746299
 20
129.764591
 30
0.0
  0
SPLINE
  5
125
100
AcDbEntity
  8
Layer_1
 62
7
100
AcDbSpline
 70
8
 71
3
 72
8
 73
4
 74
0
 40
0
 40
0
 40
0
 40
0
 40
1
 40
1
 40
1
 40
1
 10
64.746299
 20
129.764591
 30
0.0
 10
66.263449
 20
129.764551
 30
0.0
 10
67.705196
 20
129.841544
 30
0.0
 10
67.949961
 20
129.935468
 30
0.0
  0
SPLINE
  5
126
100
AcDbEntity
  8
Layer_1
 62
7
100
AcDbSpline
 70
8
 71
3
 72
8
 73
4
 74
0
 40
0
 40
0
 40
0
 40
0
 40
1
 40
1
 40
1
 40
1
 10
67.949961
 20
129.935468
 30
0.0
 10
68.194727
 20
130.029394
 30
0.0
 10
68.499790
 20
129.936693
 30
0.0
 10
68.627955
 20
129.729313
 30
0.0
  0
SPLINE
  5
127
100
AcDbEntity
  8
Layer_1
 62
7
100
AcDbSpline
 70
8
 71
3
 72
8
 73
4
 74
0
 40
0
 40
0
 40
0
 40
0
 40
1
 40
1
 40
1
 40
1
 10
68.627955
 20
129.729313
 30
0.0
 10
68.807149
 20
129.439372
 30
0.0
 10
69.078054
 20
129.418409
 30
0.0
 10
69.799287
 20
129.638915
 30
0.0
  0
SPLINE
  5
128
100
AcDbEntity
  8
Layer_1
 62
7
100
AcDbSpline
 70
8
 71
3
 72
8
 73
4
 74
0
 40
0
 40
0
 40
0
 40
0
 40
1
 40
1
 40
1
 40
1
 10
69.799287
 20
129.638915
 30
0.0
 10
70.315147
 20
129.796632
 30
0.0
 10
71.074243
 20
129.835217
 30
0.0
 10
71.486559
 20
129.724355
 30
0.0
  0
SPLINE
  5
129
100
AcDbEntity
  8
Layer_1
 62
7
100
AcDbSpline
 70
8
 71
3
 72
8
 73
4
 74
0
 40
0
 40
0
 40
0
 40
0
 40
1
 40
1
 40
1
 40
1
 10
71.486559
 20
129.724355
 30
0.0
 10
72.955232
 20
129.329458
 30
0.0
 10
84.434513
 20
129.480958
 30
0.0
 10
87.346124
 20
129.933814
 30
0.0
  0
SPLINE
  5
12a
100
AcDbEntity
  8
Layer_1
 62
7
100
AcDbSpline
 70
8
 71
3
 72
8
 73
4
 74
0
 40
0
 40
0
 40
0
 40
0
 40
1
 40
1
 40
1
 40
1
 10
87.346124
 20
129.933814
 30
0.0
 10
89.936653
 20
130.336732
 30
0.0
 10
90.200632
 20
130.332634
 30
0.0
 10
91.219514
 20
129.873182
 30
0.0
  0
SPLINE
  5
12b
100
AcDbEntity
  8
Layer_1
 62
7
100
AcDbSpline
 70
8
 71
3
 72
8
 73
4
 74
0
 40
0
 40
0
 40
0
 40
0
 40
1
 40
1
 40
1
 40
1
 10
91.219514
 20
129.873182
 30
0.0
 10
92.150373
 20
129.453421
 30
0.0
 10
92.806771
 20
129.407823
 30
0.0
 10
95.635851
 20
129.567258
 30
0.0
  0
SPLINE
  5
12c
100
AcDbEntity
  8
Layer_1
 62
7
100
AcDbSpline
 70
8
 71
3
 72
8
 73
4
 74
0
 40
0
 40
0
 40
0
 40
0
 40
1
 40
1
 40
1
 40
1
 10
95.635851
 20
129.567258
 30
0.0
 10
97.463599
 20
129.670258
 30
0.0
 10
99.086128
 20
129.757787
 30
0.0
 10
99.241350
 20
129.761286
 30
0.0
  0
SPLINE
  5
12d
100
AcDbEntity
  8
Layer_1
 62
7
100
AcDbSpline
 70
8
 71
3
 72
8
 73
4
 74
0
 40
0
 40
0
 40
0
 40
0
 40
1
 40
1
 40
1
 40
1
 10
99.241350
 20
129.761286
 30
0.0
 10
99.396573
 20
129.764786
 30
0.0
 10
100.937701
 20
129.681606
 30
0.0
 10
102.666049
 20
129.576628
 30
0.0
  0
SPLINE
  5
12e
100
AcDbEntity
  8
Layer_1
 62
7
100
AcDbSpline
 70
8
 71
3
 72
8
 73
4
 74
0
 40
0
 40
0
 40
0
 40
0
 40
1
 40
1
 40
1
 40
1
 10
102.666049
 20
129.576628
 30
0.0
 10
105.276388
 20
129.418081
 30
0.0
 10
105.964908
 20
129.463863
 30
0.0
 10
106.731263
 20
129.846173
 30
0.0
  0
SPLINE
  5
12f
100
AcDbEntity
  8
Layer_1
 62
7
100
AcDbSpline
 70
8
 71
3
 72
8
 73
4
 74
0
 40
0
 40
0
 40
0
 40
0
 40
1
 40
1
 40
1
 40
1
 10
106.731263
 20
129.846173
 30
0.0
 10
107.832833
 20
130.395708
 30
0.0
 10
110.345149
 20
130.466576
 30
0.0
 10
110.542366
 20
129.953660
 30
0.0
  0
SPLINE
  5
130
100
AcDbEntity
  8
Layer_1
 62
7
100
AcDbSpline
 70
8
 71
3
 72
8
 73
4
 74
0
 40
0
 40
0
 40
0
 40
0
 40
1
 40
1
 40
1
 40
1
 10
110.542366
 20
129.953660
 30
0.0
 10
110.641793
 20
129.695077
 30
0.0
 10
111.675590
 20
129.604373
 30
0.0
 10
114.414102
 20
129.614110
 30
0.0
  0
SPLINE
  5
131
100
AcDbEntity
  8
Layer_1
 62
7
100
AcDbSpline
 70
8
 71
3
 72
8
 73
4
 74
0
 40
0
 40
0
 40
0
 40
0
 40
1
 40
1
 40
1
 40
1
 10
114.414102
 20
129.614110
 30
0.0
 10
116.468931
 20
129.621422
 30
0.0
 10
118.277239
 20
129.673176
 30
0.0
 10
118.432461
 20
129.729313
 30
0.0
  0
SPLINE
  5
132
100
AcDbEntity
  8
Layer_1
 62
7
100
AcDbSpline
 70
8
 71
3
 72
8
 73
4
 74
0
 40
0
 40
0
 40
0
 40
0
 40
1
 40
1
 40
1
 40
1
 10
118.432461
 20
129.729313
 30
0.0
 10
118.587684
 20
129.785447
 30
0.0
 10
118.927014
 20
129.737684
 30
0.0
 10
119.186523
 20
129.623480
 30
0.0
  0
SPLINE
  5
133
100
AcDbEntity
  8
Layer_1
 62
7
100
AcDbSpline
 70
8
 71
3
 72
8
 73
4
 74
0
 40
0
 40
0
 40
0
 40
0
 40
1
 40
1
 40
1
 40
1
 10
119.186523
 20
129.623480
 30
0.0
 10
119.446032
 20
129.509273
 30
0.0
 10
119.925138
 20
129.558820
 30
0.0
 10
120.250921
 20
129.733174
 30
0.0
  0
SPLINE
  5
134
100
AcDbEntity
  8
Layer_1
 62
7
100
AcDbSpline
 70
8
 71
3
 72
8
 73
4
 74
0
 40
0
 40
0
 40
0
 40
0
 40
1
 40
1
 40
1
 40
1
 10
120.250921
 20
129.733174
 30
0.0
 10
120.576701
 20
129.907528
 30
0.0
 10
120.989827
 20
129.959262
 30
0.0
 10
121.169244
 20
129.848377
 30
0.0
  0
SPLINE
  5
135
100
AcDbEntity
  8
Layer_1
 62
7
100
AcDbSpline
 70
8
 71
3
 72
8
 73
4
 74
0
 40
0
 40
0
 40
0
 40
0
 40
1
 40
1
 40
1
 40
1
 10
121.169244
 20
129.848377
 30
0.0
 10
121.348658
 20
129.737492
 30
0.0
 10
123.283105
 20
129.563124
 30
0.0
 10
125.467621
 20
129.460872
 30
0.0
  0
SPLINE
  5
136
100
AcDbEntity
  8
Layer_1
 62
7
100
AcDbSpline
 70
8
 71
3
 72
8
 73
4
 74
0
 40
0
 40
0
 40
0
 40
0
 40
1
 40
1
 40
1
 40
1
 10
125.467621
 20
129.460872
 30
0.0
 10
127.652137
 20
129.358620
 30
0.0
 10
129.693128
 20
129.339420
 30
0.0
 10
130.003573
 20
129.417878
 30
0.0
  0
SPLINE
  5
137
100
AcDbEntity
  8
Layer_1
 62
7
100
AcDbSpline
 70
8
 71
3
 72
8
 73
4
 74
0
 40
0
 40
0
 40
0
 40
0
 40
1
 40
1
 40
1
 40
1
 10
130.003573
 20
129.417878
 30
0.0
 10
130.454945
 20
129.531950
 30
0.0
 10
134.231013
 20
129.684776
 30
0.0
 10
138.188017
 20
129.749159
 30
0.0
  0
SPLINE
  5
138
100
AcDbEntity
  8
Layer_1
 62
7
100
AcDbSpline
 70
8
 71
3
 72
8
 73
4
 74
0
 40
0
 40
0
 40
0
 40
0
 40
1
 40
1
 40
1
 40
1
 10
138.188017
 20
129.749159
 30
0.0
 10
138.498461
 20
129.754211
 30
0.0
 10
142.560751
 20
129.700256
 30
0.0
 10
147.215270
 20
129.629545
 30
0.0
  0
SPLINE
  5
139
100
AcDbEntity
  8
Layer_1
 62
7
100
AcDbSpline
 70
8
 71
3
 72
8
 73
4
 74
0
 40
0
 40
0
 40
0
 40
0
 40
1
 40
1
 40
1
 40
1
 10
147.215270
 20
129.629545
 30
0.0
 10
152.771644
 20
129.545132
 30
0.0
 10
155.798004
 20
129.600451
 30
0.0
 10
156.026996
 20
129.790499
 30
0.0
  0
SPLINE
  5
13a
100
AcDbEntity
  8
Layer_1
 62
7
100
AcDbSpline
 70
8
 71
3
 72
8
 73
4
 74
0
 40
0
 40
0
 40
0
 40
0
 40
1
 40
1
 40
1
 40
1
 10
156.026996
 20
129.790499
 30
0.0
 10
156.481190
 20
130.167446
 30
0.0
 10
155.992124
 20
131.370955
 30
0.0
 10
154.475877
 20
133.607665
 30
0.0
  0
SPLINE
  5
13b
100
AcDbEntity
  8
Layer_1
 62
7
100
AcDbSpline
 70
8
 71
3
 72
8
 73
4
 74
0
 40
0
 40
0
 40
0
 40
0
 40
1
 40
1
 40
1
 40
1
 10
154.475877
 20
133.607665
 30
0.0
 10
153.865295
 20
134.508371
 30
0.0
 10
152.510942
 20
136.752072
 30
0.0
 10
151.466242
 20
138.593958
 30
0.0
  0
SPLINE
  5
13c
100
AcDbEntity
  8
Layer_1
 62
7
100
AcDbSpline
 70
8
 71
3
 72
8
 73
4
 74
0
 40
0
 40
0
 40
0
 40
0
 40
1
 40
1
 40
1
 40
1
 10
151.466242
 20
138.593958
 30
0.0
 10
150.421543
 20
140.435842
 30
0.0
 10
148.838756
 20
143.166342
 30
0.0
 10
147.948938
 20
144.661736
 30
0.0
  0
SPLINE
  5
13d
100
AcDbEntity
  8
Layer_1
 62
7
100
AcDbSpline
 70
8
 71
3
 72
8
 73
4
 74
0
 40
0
 40
0
 40
0
 40
0
 40
1
 40
1
 40
1
 40
1
 10
147.948938
 20
144.661736
 30
0.0
 10
147.059119
 20
146.157127
 30
0.0
 10
144.902722
 20
149.874962
 30
0.0
 10
143.156672
 20
152.923351
 30
0.0
  0
SPLINE
  5
13e
100
AcDbEntity
  8
Layer_1
 62
7
100
AcDbSpline
 70
8
 71
3
 72
8
 73
4
 74
0
 40
0
 40
0
 40
0
 40
0
 40
1
 40
1
 40
1
 40
1
 10
143.156672
 20
152.923351
 30
0.0
 10
141.410622
 20
155.971744
 30
0.0
 10
139.768614
 20
158.702244
 30
0.0
 10
139.508176
 20
158.991129
 30
0.0
  0
SPLINE
  5
13f
100
AcDbEntity
  8
Layer_1
 62
7
100
AcDbSpline
 70
8
 71
3
 72
8
 73
4
 74
0
 40
0
 40
0
 40
0
 40
0
 40
1
 40
1
 40
1
 40
1
 10
139.508176
 20
158.991129
 30
0.0
 10
139.247736
 20
159.280017
 30
0.0
 10
138.746594
 20
160.127226
 30
0.0
 10
138.394722
 20
160.874079
 30
0.0
  0
SPLINE
  5
140
100
AcDbEntity
  8
Layer_1
 62
7
100
AcDbSpline
 70
8
 71
3
 72
8
 73
4
 74
0
 40
0
 40
0
 40
0
 40
0
 40
1
 40
1
 40
1
 40
1
 10
138.394722
 20
160.874079
 30
0.0
 10
138.042853
 20
161.620932
 30
0.0
 10
137.016922
 20
163.462432
 30
0.0
 10
136.114344
 20
164.966301
 30
0.0
  0
SPLINE
  5
141
100
AcDbEntity
  8
Layer_1
 62
7
100
AcDbSpline
 70
8
 71
3
 72
8
 73
4
 74
0
 40
0
 40
0
 40
0
 40
0
 40
1
 40
1
 40
1
 40
1
 10
136.114344
 20
164.966301
 30
0.0
 10
135.211764
 20
166.470170
 30
0.0
 10
133.749313
 20
168.939132
 30
0.0
 10
132.864380
 20
170.452549
 30
0.0
  0
SPLINE
  5
142
100
AcDbEntity
  8
Layer_1
 62
7
100
AcDbSpline
 70
8
 71
3
 72
8
 73
4
 74
0
 40
0
 40
0
 40
0
 40
0
 40
1
 40
1
 40
1
 40
1
 10
132.864380
 20
170.452549
 30
0.0
 10
131.401888
 20
172.953707
 30
0.0
 10
130.426906
 20
173.884859
 30
0.0
 10
130.426906
 20
172.780882
 30
0.0
  0
SPLINE
  5
143
100
AcDbEntity
  8
Layer_1
 62
7
100
AcDbSpline
 70
8
 71
3
 72
8
 73
4
 74
0
 40
0
 40
0
 40
0
 40
0
 40
1
 40
1
 40
1
 40
1
 10
130.426906
 20
172.780882
 30
0.0
 10
130.426906
 20
172.126674
 30
0.0
 10
129.999918
 20
172.279009
 30
0.0
 10
129.567009
 20
173.087909
 30
0.0
  0
SPLINE
  5
144
100
AcDbEntity
  8
Layer_1
 62
7
100
AcDbSpline
 70
8
 71
3
 72
8
 73
4
 74
0
 40
0
 40
0
 40
0
 40
0
 40
1
 40
1
 40
1
 40
1
 10
129.567009
 20
173.087909
 30
0.0
 10
129.219178
 20
173.737833
 30
0.0
 10
129.231017
 20
173.849791
 30
0.0
 10
129.675049
 20
174.098284
 30
0.0
  0
SPLINE
  5
145
100
AcDbEntity
  8
Layer_1
 62
7
100
AcDbSpline
 70
8
 71
3
 72
8
 73
4
 74
0
 40
0
 40
0
 40
0
 40
0
 40
1
 40
1
 40
1
 40
1
 10
129.675049
 20
174.098284
 30
0.0
 10
130.147435
 20
174.362645
 30
0.0
 10
130.143182
 20
174.430017
 30
0.0
 10
129.595121
 20
175.358915
 30
0.0
  0
SPLINE
  5
146
100
AcDbEntity
  8
Layer_1
 62
7
100
AcDbSpline
 70
8
 71
3
 72
8
 73
4
 74
0
 40
0
 40
0
 40
0
 40
0
 40
1
 40
1
 40
1
 40
1
 10
129.595121
 20
175.358915
 30
0.0
 10
129.276571
 20
175.898817
 30
0.0
 10
129.013656
 20
176.492268
 30
0.0
 10
129.010833
 20
176.677423
 30
0.0
  0
SPLINE
  5
147
100
AcDbEntity
  8
Layer_1
 62
7
100
AcDbSpline
 70
8
 71
3
 72
8
 73
4
 74
0
 40
0
 40
0
 40
0
 40
0
 40
1
 40
1
 40
1
 40
1
 10
129.010833
 20
176.677423
 30
0.0
 10
129.008008
 20
176.862578
 30
0.0
 10
128.629122
 20
177.585716
 30
0.0
 10
128.169128
 20
178.284216
 30
0.0
  0
SPLINE
  5
148
100
AcDbEntity
  8
Layer_1
 62
7
100
AcDbSpline
 70
8
 71
3
 72
8
 73
4
 74
0
 40
0
 40
0
 40
0
 40
0
 40
1
 40
1
 40
1
 40
1
 10
128.169128
 20
178.284216
 30
0.0
 10
126.938459
 20
180.152975
 30
0.0
 10
126.736526
 20
180.351279
 30
0.0
 10
126.404136
 20
180.018889
 30
0.0
  0
SPLINE
  5
149
100
AcDbEntity
  8
Layer_1
 62
7
100
AcDbSpline
 70
8
 71
3
 72
8
 73
4
 74
0
 40
0
 40
0
 40
0
 40
0
 40
1
 40
1
 40
1
 40
1
 10
126.404136
 20
180.018889
 30
0.0
 10
126.208705
 20
179.823458
 30
0.0
 10
126.306947
 20
179.408417
 30
0.0
 10
126.710062
 20
178.725188
 30
0.0
  0
SPLINE
  5
14a
100
AcDbEntity
  8
Layer_1
 62
7
100
AcDbSpline
 70
8
 71
3
 72
8
 73
4
 74
0
 40
0
 40
0
 40
0
 40
0
 40
1
 40
1
 40
1
 40
1
 10
126.710062
 20
178.725188
 30
0.0
 10
127.036432
 20
178.172029
 30
0.0
 10
127.212319
 20
177.719771
 30
0.0
 10
127.100872
 20
177.719771
 30
0.0
  0
SPLINE
  5
14b
100
AcDbEntity
  8
Layer_1
 62
7
100
AcDbSpline
 70
8
 71
3
 72
8
 73
4
 74
0
 40
0
 40
0
 40
0
 40
0
 40
1
 40
1
 40
1
 40
1
 10
127.100872
 20
177.719771
 30
0.0
 10
126.989422
 20
177.719771
 30
0.0
 10
126.600100
 20
178.323021
 30
0.0
 10
126.235466
 20
179.060327
 30
0.0
  0
SPLINE
  5
14c
100
AcDbEntity
  8
Layer_1
 62
7
100
AcDbSpline
 70
8
 71
3
 72
8
 73
4
 74
0
 40
0
 40
0
 40
0
 40
0
 40
1
 40
1
 40
1
 40
1
 10
126.235466
 20
179.060327
 30
0.0
 10
125.870835
 20
179.797632
 30
0.0
 10
125.444679
 20
180.642490
 30
0.0
 10
125.289028
 20
180.937765
 30
0.0
  0
SPLINE
  5
14d
100
AcDbEntity
  8
Layer_1
 62
7
100
AcDbSpline
 70
8
 71
3
 72
8
 73
4
 74
0
 40
0
 40
0
 40
0
 40
0
 40
1
 40
1
 40
1
 40
1
 10
125.289028
 20
180.937765
 30
0.0
 10
125.075064
 20
181.343668
 30
0.0
 10
125.114211
 20
181.534854
 30
0.0
 10
125.448881
 20
181.722145
 30
0.0
  0
SPLINE
  5
14e
100
AcDbEntity
  8
Layer_1
 62
7
100
AcDbSpline
 70
8
 71
3
 72
8
 73
4
 74
0
 40
0
 40
0
 40
0
 40
0
 40
1
 40
1
 40
1
 40
1
 10
125.448881
 20
181.722145
 30
0.0
 10
125.808994
 20
181.923674
 30
0.0
 10
125.832396
 20
182.099832
 30
0.0
 10
125.574007
 20
182.666926
 30
0.0
  0
SPLINE
  5
14f
100
AcDbEntity
  8
Layer_1
 62
7
100
AcDbSpline
 70
8
 71
3
 72
8
 73
4
 74
0
 40
0
 40
0
 40
0
 40
0
 40
1
 40
1
 40
1
 40
1
 10
125.574007
 20
182.666926
 30
0.0
 10
125.208552
 20
183.469019
 30
0.0
 10
124.504670
 20
183.601418
 30
0.0
 10
124.491970
 20
182.870327
 30
0.0
  0
SPLINE
  5
150
100
AcDbEntity
  8
Layer_1
 62
7
100
AcDbSpline
 70
8
 71
3
 72
8
 73
4
 74
0
 40
0
 40
0
 40
0
 40
0
 40
1
 40
1
 40
1
 40
1
 10
124.491970
 20
182.870327
 30
0.0
 10
124.484102
 20
182.417524
 30
0.0
 10
124.457895
 20
182.419979
 30
0.0
 10
124.178881
 20
182.900090
 30
0.0
  0
SPLINE
  5
151
100
AcDbEntity
  8
Layer_1
 62
7
100
AcDbSpline
 70
8
 71
3
 72
8
 73
4
 74
0
 40
0
 40
0
 40
0
 40
0
 40
1
 40
1
 40
1
 40
1
 10
124.178881
 20
182.900090
 30
0.0
 10
123.945114
 20
183.302341
 30
0.0
 10
123.978664
 20
183.527800
 30
0.0
 10
124.324401
 20
183.873536
 30
0.0
  0
SPLINE
  5
152
100
AcDbEntity
  8
Layer_1
 62
7
100
AcDbSpline
 70
8
 71
3
 72
8
 73
4
 74
0
 40
0
 40
0
 40
0
 40
0
 40
1
 40
1
 40
1
 40
1
 10
124.324401
 20
183.873536
 30
0.0
 10
124.736380
 20
184.285519
 30
0.0
 10
124.729587
 20
184.372635
 30
0.0
 10
124.244475
 20
184.902104
 30
0.0
  0
SPLINE
  5
153
100
AcDbEntity
  8
Layer_1
 62
7
100
AcDbSpline
 70
8
 71
3
 72
8
 73
4
 74
0
 40
0
 40
0
 40
0
 40
0
 40
1
 40
1
 40
1
 40
1
 10
124.244475
 20
184.902104
 30
0.0
 10
123.952979
 20
185.220250
 30
0.0
 10
123.373253
 20
186.115882
 30
0.0
 10
122.955733
 20
186.891993
 30
0.0
  0
SPLINE
  5
154
100
AcDbEntity
  8
Layer_1
 62
7
100
AcDbSpline
 70
8
 71
3
 72
8
 73
4
 74
0
 40
0
 40
0
 40
0
 40
0
 40
1
 40
1
 40
1
 40
1
 10
122.955733
 20
186.891993
 30
0.0
 10
122.538216
 20
187.668105
 30
0.0
 10
121.508035
 20
189.446105
 30
0.0
 10
120.666535
 20
190.843105
 30
0.0
  0
SPLINE
  5
155
100
AcDbEntity
  8
Layer_1
 62
7
100
AcDbSpline
 70
8
 71
3
 72
8
 73
4
 74
0
 40
0
 40
0
 40
0
 40
0
 40
1
 40
1
 40
1
 40
1
 10
120.666535
 20
190.843105
 30
0.0
 10
119.825036
 20
192.240105
 30
0.0
 10
118.665492
 20
194.176855
 30
0.0
 10
118.089604
 20
195.146993
 30
0.0
  0
SPLINE
  5
156
100
AcDbEntity
  8
Layer_1
 62
7
100
AcDbSpline
 70
8
 71
3
 72
8
 73
4
 74
0
 40
0
 40
0
 40
0
 40
0
 40
1
 40
1
 40
1
 40
1
 10
118.089604
 20
195.146993
 30
0.0
 10
117.513715
 20
196.117132
 30
0.0
 10
116.878817
 20
196.910882
 30
0.0
 10
116.679046
 20
196.910882
 30
0.0
  0
SPLINE
  5
157
100
AcDbEntity
  8
Layer_1
 62
7
100
AcDbSpline
 70
8
 71
3
 72
8
 73
4
 74
0
 40
0
 40
0
 40
0
 40
0
 40
1
 40
1
 40
1
 40
1
 10
116.679046
 20
196.910882
 30
0.0
 10
116.135579
 20
196.910882
 30
0.0
 10
116.231924
 20
196.495214
 30
0.0
 10
117.119465
 20
195.009740
 30
0.0
  0
SPLINE
  5
158
100
AcDbEntity
  8
Layer_1
 62
7
100
AcDbSpline
 70
8
 71
3
 72
8
 73
4
 74
0
 40
0
 40
0
 40
0
 40
0
 40
1
 40
1
 40
1
 40
1
 10
117.119465
 20
195.009740
 30
0.0
 10
120.087430
 20
190.042274
 30
0.0
 10
120.861565
 20
188.662393
 30
0.0
 10
120.745910
 20
188.546741
 30
0.0
  0
SPLINE
  5
159
100
AcDbEntity
  8
Layer_1
 62
7
100
AcDbSpline
 70
8
 71
3
 72
8
 73
4
 74
0
 40
0
 40
0
 40
0
 40
0
 40
1
 40
1
 40
1
 40
1
 10
120.745910
 20
188.546741
 30
0.0
 10
120.627970
 20
188.428801
 30
0.0
 10
120.168670
 20
189.087318
 30
0.0
 10
118.073619
 20
192.376584
 30
0.0
  0
SPLINE
  5
15a
100
AcDbEntity
  8
Layer_1
 62
7
100
AcDbSpline
 70
8
 71
3
 72
8
 73
4
 74
0
 40
0
 40
0
 40
0
 40
0
 40
1
 40
1
 40
1
 40
1
 10
118.073619
 20
192.376584
 30
0.0
 10
117.721030
 20
192.930155
 30
0.0
 10
117.228668
 20
193.827605
 30
0.0
 10
116.979457
 20
194.370882
 30
0.0
  0
SPLINE
  5
15b
100
AcDbEntity
  8
Layer_1
 62
7
100
AcDbSpline
 70
8
 71
3
 72
8
 73
4
 74
0
 40
0
 40
0
 40
0
 40
0
 40
1
 40
1
 40
1
 40
1
 10
116.979457
 20
194.370882
 30
0.0
 10
116.105632
 20
196.275803
 30
0.0
 10
115.659600
 20
197.070634
 30
0.0
 10
114.207397
 20
199.309771
 30
0.0
  0
SPLINE
  5
15c
100
AcDbEntity
  8
Layer_1
 62
7
100
AcDbSpline
 70
8
 71
3
 72
8
 73
4
 74
0
 40
0
 40
0
 40
0
 40
0
 40
1
 40
1
 40
1
 40
1
 10
114.207397
 20
199.309771
 30
0.0
 10
113.402034
 20
200.551549
 30
0.0
 10
112.582554
 20
201.971124
 30
0.0
 10
112.386731
 20
202.464375
 30
0.0
  0
SPLINE
  5
15d
100
AcDbEntity
  8
Layer_1
 62
7
100
AcDbSpline
 70
8
 71
3
 72
8
 73
4
 74
0
 40
0
 40
0
 40
0
 40
0
 40
1
 40
1
 40
1
 40
1
 10
112.386731
 20
202.464375
 30
0.0
 10
112.190908
 20
202.957623
 30
0.0
 10
111.774374
 20
203.592623
 30
0.0
 10
111.460689
 20
203.875486
 30
0.0
  0
SPLINE
  5
15e
100
AcDbEntity
  8
Layer_1
 62
7
100
AcDbSpline
 70
8
 71
3
 72
8
 73
4
 74
0
 40
0
 40
0
 40
0
 40
0
 40
1
 40
1
 40
1
 40
1
 10
111.460689
 20
203.875486
 30
0.0
 10
111.147005
 20
204.158346
 30
0.0
 10
110.281164
 20
205.602906
 30
0.0
 10
109.536397
 20
207.085764
 30
0.0
  0
SPLINE
  5
15f
100
AcDbEntity
  8
Layer_1
 62
7
100
AcDbSpline
 70
8
 71
3
 72
8
 73
4
 74
0
 40
0
 40
0
 40
0
 40
0
 40
1
 40
1
 40
1
 40
1
 10
109.536397
 20
207.085764
 30
0.0
 10
108.791629
 20
208.568622
 30
0.0
 10
107.980124
 20
209.949591
 30
0.0
 10
107.733372
 20
210.154380
 30
0.0
  0
SPLINE
  5
160
100
AcDbEntity
  8
Layer_1
 62
7
100
AcDbSpline
 70
8
 71
3
 72
8
 73
4
 74
0
 40
0
 40
0
 40
0
 40
0
 40
1
 40
1
 40
1
 40
1
 10
107.733372
 20
210.154380
 30
0.0
 10
107.486617
 20
210.359166
 30
0.0
 10
107.284684
 20
210.627975
 30
0.0
 10
107.284684
 20
210.751895
 30
0.0
  0
SPLINE
  5
161
100
AcDbEntity
  8
Layer_1
 62
7
100
AcDbSpline
 70
8
 71
3
 72
8
 73
4
 74
0
 40
0
 40
0
 40
0
 40
0
 40
1
 40
1
 40
1
 40
1
 10
107.284684
 20
210.751895
 30
0.0
 10
107.284684
 20
211.005585
 30
0.0
 10
104.866590
 20
215.010860
 30
0.0
 10
103.543585
 20
216.948660
 30
0.0
  0
SPLINE
  5
162
100
AcDbEntity
  8
Layer_1
 62
7
100
AcDbSpline
 70
8
 71
3
 72
8
 73
4
 74
0
 40
0
 40
0
 40
0
 40
0
 40
1
 40
1
 40
1
 40
1
 10
103.543585
 20
216.948660
 30
0.0
 10
102.637923
 20
218.275184
 30
0.0
 10
101.196654
 20
219.770882
 30
0.0
 10
100.823889
 20
219.770882
 30
0.0
  0
SPLINE
  5
163
100
AcDbEntity
  8
Layer_1
 62
7
100
AcDbSpline
 70
8
 71
3
 72
8
 73
4
 74
0
 40
0
 40
0
 40
0
 40
0
 40
1
 40
1
 40
1
 40
1
 10
100.823889
 20
219.770882
 30
0.0
 10
100.704478
 20
219.770882
 30
0.0
 10
100.436810
 20
220.088382
 30
0.0
 10
100.229128
 20
220.476438
 30
0.0
  0
SPLINE
  5
164
100
AcDbEntity
  8
Layer_1
 62
7
100
AcDbSpline
 70
8
 71
3
 72
8
 73
4
 74
0
 40
0
 40
0
 40
0
 40
0
 40
1
 40
1
 40
1
 40
1
 10
100.229128
 20
220.476438
 30
0.0
 10
99.982551
 20
220.937171
 30
0.0
 10
99.790205
 20
221.159472
 30
0.0
 10
99.586409
 20
221.136242
 30
0.0
  0
SPLINE
  5
165
100
AcDbEntity
  8
Layer_1
 62
7
100
AcDbSpline
 70
8
 71
3
 72
8
 73
4
 74
0
 40
0
 40
0
 40
0
 40
0
 40
1
 40
1
 40
1
 40
1
 10
99.210481
 20
218.513560
 30
0.0
 10
99.285072
 20
218.513193
 30
0.0
 10
99.364622
 20
218.396954
 30
0.0
 10
99.490499
 20
218.182829
 30
0.0
  0
SPLINE
  5
166
100
AcDbEntity
  8
Layer_1
 62
7
100
AcDbSpline
 70
8
 71
3
 72
8
 73
4
 74
0
 40
0
 40
0
 40
0
 40
0
 40
1
 40
1
 40
1
 40
1
 10
99.490499
 20
218.182829
 30
0.0
 10
99.863405
 20
217.548492
 30
0.0
 10
99.986414
 20
195.839124
 30
0.0
 10
99.618382
 20
195.611667
 30
0.0
  0
SPLINE
  5
167
100
AcDbEntity
  8
Layer_1
 62
7
100
AcDbSpline
 70
8
 71
3
 72
8
 73
4
 74
0
 40
0
 40
0
 40
0
 40
0
 40
1
 40
1
 40
1
 40
1
 10
99.618382
 20
195.611667
 30
0.0
 10
99.488642
 20
195.531482
 30
0.0
 10
99.382461
 20
195.717065
 30
0.0
 10
99.382461
 20
196.023976
 30
0.0
  0
SPLINE
  5
168
100
AcDbEntity
  8
Layer_1
 62
7
100
AcDbSpline
 70
8
 71
3
 72
8
 73
4
 74
0
 40
0
 40
0
 40
0
 40
0
 40
1
 40
1
 40
1
 40
1
 10
99.382461
 20
196.023976
 30
0.0
 10
99.382461
 20
197.068134
 30
0.0
 10
99.057435
 20
197.474774
 30
0.0
 10
98.223256
 20
197.474774
 30
0.0
  0
SPLINE
  5
169
100
AcDbEntity
  8
Layer_1
 62
7
100
AcDbSpline
 70
8
 71
3
 72
8
 73
4
 74
0
 40
0
 40
0
 40
0
 40
0
 40
1
 40
1
 40
1
 40
1
 10
98.223256
 20
197.474774
 30
0.0
 10
97.313217
 20
197.474774
 30
0.0
 10
97.223699
 20
197.122820
 30
0.0
 10
97.378243
 20
194.158662
 30
0.0
  0
LWPOLYLINE
  5
16a
100
AcDbEntity
  8
Layer_1
 62
7
100
AcDbPolyline
 90
2
 70
0
 10
99.586409
 20
221.136242
 30
0.0
 10
99.586409
 20
221.136242
 30
0.0
  0
SPLINE
  5
16b
100
AcDbEntity
  8
Layer_1
 62
7
100
AcDbSpline
 70
8
 71
3
 72
8
 73
4
 74
0
 40
0
 40
0
 40
0
 40
0
 40
1
 40
1
 40
1
 40
1
 10
96.513938
 20
192.667076
 30
0.0
 10
94.514382
 20
192.646166
 30
0.0
 10
91.248430
 20
191.854081
 30
0.0
 10
89.204823
 20
190.894367
 30
0.0
  0
SPLINE
  5
16c
100
AcDbEntity
  8
Layer_1
 62
7
100
AcDbSpline
 70
8
 71
3
 72
8
 73
4
 74
0
 40
0
 40
0
 40
0
 40
0
 40
1
 40
1
 40
1
 40
1
 10
89.204823
 20
190.894367
 30
0.0
 10
86.612363
 20
189.676903
 30
0.0
 10
85.259206
 20
189.282069
 30
0.0
 10
85.723346
 20
189.878477
 30
0.0
  0
SPLINE
  5
16d
100
AcDbEntity
  8
Layer_1
 62
7
100
AcDbSpline
 70
8
 71
3
 72
8
 73
4
 74
0
 40
0
 40
0
 40
0
 40
0
 40
1
 40
1
 40
1
 40
1
 10
85.723346
 20
189.878477
 30
0.0
 10
85.894378
 20
190.098252
 30
0.0
 10
86.274379
 20
190.960834
 30
0.0
 10
86.567809
 20
191.795051
 30
0.0
  0
SPLINE
  5
16e
100
AcDbEntity
  8
Layer_1
 62
7
100
AcDbSpline
 70
8
 71
3
 72
8
 73
4
 74
0
 40
0
 40
0
 40
0
 40
0
 40
1
 40
1
 40
1
 40
1
 10
86.567809
 20
191.795051
 30
0.0
 10
86.861241
 20
192.629269
 30
0.0
 10
87.256036
 20
193.371302
 30
0.0
 10
87.444792
 20
193.443737
 30
0.0
  0
SPLINE
  5
16f
100
AcDbEntity
  8
Layer_1
 62
7
100
AcDbSpline
 70
8
 71
3
 72
8
 73
4
 74
0
 40
0
 40
0
 40
0
 40
0
 40
1
 40
1
 40
1
 40
1
 10
87.444792
 20
193.443737
 30
0.0
 10
87.921406
 20
193.626631
 30
0.0
 10
89.286224
 20
196.014381
 30
0.0
 10
89.092924
 20
196.327145
 30
0.0
  0
SPLINE
  5
170
100
AcDbEntity
  8
Layer_1
 62
7
100
AcDbSpline
 70
8
 71
3
 72
8
 73
4
 74
0
 40
0
 40
0
 40
0
 40
0
 40
1
 40
1
 40
1
 40
1
 10
89.092924
 20
196.327145
 30
0.0
 10
89.006070
 20
196.467678
 30
0.0
 10
89.146987
 20
196.794615
 30
0.0
 10
89.406016
 20
197.053647
 30
0.0
  0
SPLINE
  5
171
100
AcDbEntity
  8
Layer_1
 62
7
100
AcDbSpline
 70
8
 71
3
 72
8
 73
4
 74
0
 40
0
 40
0
 40
0
 40
0
 40
1
 40
1
 40
1
 40
1
 10
89.406016
 20
197.053647
 30
0.0
 10
89.665048
 20
197.312676
 30
0.0
 10
90.491460
 20
198.815010
 30
0.0
 10
91.242114
 20
200.392356
 30
0.0
  0
SPLINE
  5
172
100
AcDbEntity
  8
Layer_1
 62
7
100
AcDbSpline
 70
8
 71
3
 72
8
 73
4
 74
0
 40
0
 40
0
 40
0
 40
0
 40
1
 40
1
 40
1
 40
1
 10
91.242114
 20
200.392356
 30
0.0
 10
91.992769
 20
201.969699
 30
0.0
 10
92.769363
 20
203.387329
 30
0.0
 10
92.967968
 20
203.542551
 30
0.0
  0
SPLINE
  5
173
100
AcDbEntity
  8
Layer_1
 62
7
100
AcDbSpline
 70
8
 71
3
 72
8
 73
4
 74
0
 40
0
 40
0
 40
0
 40
0
 40
1
 40
1
 40
1
 40
1
 10
92.967968
 20
203.542551
 30
0.0
 10
93.329407
 20
203.825039
 30
0.0
 10
95.431350
 20
208.300369
 30
0.0
 10
95.431350
 20
208.787366
 30
0.0
  0
SPLINE
  5
174
100
AcDbEntity
  8
Layer_1
 62
7
100
AcDbSpline
 70
8
 71
3
 72
8
 73
4
 74
0
 40
0
 40
0
 40
0
 40
0
 40
1
 40
1
 40
1
 40
1
 10
95.431350
 20
208.787366
 30
0.0
 10
95.431350
 20
209.560390
 30
0.0
 10
94.522228
 20
208.808431
 30
0.0
 10
93.307518
 20
207.030643
 30
0.0
  0
SPLINE
  5
175
100
AcDbEntity
  8
Layer_1
 62
7
100
AcDbSpline
 70
8
 71
3
 72
8
 73
4
 74
0
 40
0
 40
0
 40
0
 40
0
 40
1
 40
1
 40
1
 40
1
 10
93.307518
 20
207.030643
 30
0.0
 10
92.550124
 20
205.922159
 30
0.0
 10
91.877586
 20
205.173285
 30
0.0
 10
91.813174
 20
205.366523
 30
0.0
  0
SPLINE
  5
176
100
AcDbEntity
  8
Layer_1
 62
7
100
AcDbSpline
 70
8
 71
3
 72
8
 73
4
 74
0
 40
0
 40
0
 40
0
 40
0
 40
1
 40
1
 40
1
 40
1
 10
91.813174
 20
205.366523
 30
0.0
 10
91.748760
 20
205.559763
 30
0.0
 10
91.964400
 20
206.053770
 30
0.0
 10
92.292729
 20
206.464545
 30
0.0
  0
SPLINE
  5
177
100
AcDbEntity
  8
Layer_1
 62
7
100
AcDbSpline
 70
8
 71
3
 72
8
 73
4
 74
0
 40
0
 40
0
 40
0
 40
0
 40
1
 40
1
 40
1
 40
1
 10
92.292729
 20
206.464545
 30
0.0
 10
92.621058
 20
206.875319
 30
0.0
 10
93.212023
 20
207.818898
 30
0.0
 10
93.605725
 20
208.561368
 30
0.0
  0
SPLINE
  5
178
100
AcDbEntity
  8
Layer_1
 62
7
100
AcDbSpline
 70
8
 71
3
 72
8
 73
4
 74
0
 40
0
 40
0
 40
0
 40
0
 40
1
 40
1
 40
1
 40
1
 10
93.605725
 20
208.561368
 30
0.0
 10
93.999425
 20
209.303839
 30
0.0
 10
94.735328
 20
210.573839
 30
0.0
 10
95.241181
 20
211.383591
 30
0.0
  0
SPLINE
  5
179
100
AcDbEntity
  8
Layer_1
 62
7
100
AcDbSpline
 70
8
 71
3
 72
8
 73
4
 74
0
 40
0
 40
0
 40
0
 40
0
 40
1
 40
1
 40
1
 40
1
 10
95.241181
 20
211.383591
 30
0.0
 10
95.747030
 20
212.193343
 30
0.0
 10
96.319727
 20
213.173385
 30
0.0
 10
96.513385
 20
213.561440
 30
0.0
  0
SPLINE
  5
17a
100
AcDbEntity
  8
Layer_1
 62
7
100
AcDbSpline
 70
8
 71
3
 72
8
 73
4
 74
0
 40
0
 40
0
 40
0
 40
0
 40
1
 40
1
 40
1
 40
1
 10
96.513385
 20
213.561440
 30
0.0
 10
96.707046
 20
213.949496
 30
0.0
 10
97.242551
 20
214.901996
 30
0.0
 10
97.704010
 20
215.678107
 30
0.0
  0
SPLINE
  5
17b
100
AcDbEntity
  8
Layer_1
 62
7
100
AcDbSpline
 70
8
 71
3
 72
8
 73
4
 74
0
 40
0
 40
0
 40
0
 40
0
 40
1
 40
1
 40
1
 40
1
 10
97.704010
 20
215.678107
 30
0.0
 10
98.165471
 20
216.454218
 30
0.0
 10
98.686496
 20
217.454532
 30
0.0
 10
98.861564
 20
217.900607
 30
0.0
  0
SPLINE
  5
17c
100
AcDbEntity
  8
Layer_1
 62
7
100
AcDbSpline
 70
8
 71
3
 72
8
 73
4
 74
0
 40
0
 40
0
 40
0
 40
0
 40
1
 40
1
 40
1
 40
1
 10
98.861564
 20
217.900607
 30
0.0
 10
99.027271
 20
218.322834
 30
0.0
 10
99.114579
 20
218.514028
 30
0.0
 10
99.210481
 20
218.513560
 30
0.0
  0
LWPOLYLINE
  5
17d
100
AcDbEntity
  8
Layer_1
 62
7
100
AcDbPolyline
 90
3
 70
0
 10
97.378243
 20
194.158662
 30
0.0
 10
97.455411
 20
192.676996
 30
0.0
 10
96.513938
 20
192.667076
 30
0.0
  0
SPLINE
  5
17e
100
AcDbEntity
  8
Layer_1
 62
7
100
AcDbSpline
 70
8
 71
3
 72
8
 73
4
 74
0
 40
0
 40
0
 40
0
 40
0
 40
1
 40
1
 40
1
 40
1
 10
101.877261
 20
215.237135
 30
0.0
 10
101.978847
 20
215.246098
 30
0.0
 10
102.087528
 20
215.147176
 30
0.0
 10
102.149010
 20
214.972551
 30
0.0
  0
SPLINE
  5
17f
100
AcDbEntity
  8
Layer_1
 62
7
100
AcDbSpline
 70
8
 71
3
 72
8
 73
4
 74
0
 40
0
 40
0
 40
0
 40
0
 40
1
 40
1
 40
1
 40
1
 10
102.149010
 20
214.972551
 30
0.0
 10
102.230984
 20
214.739718
 30
0.0
 10
102.658153
 20
214.212747
 30
0.0
 10
103.098202
 20
213.801219
 30
0.0
  0
SPLINE
  5
180
100
AcDbEntity
  8
Layer_1
 62
7
100
AcDbSpline
 70
8
 71
3
 72
8
 73
4
 74
0
 40
0
 40
0
 40
0
 40
0
 40
1
 40
1
 40
1
 40
1
 10
103.098202
 20
213.801219
 30
0.0
 10
103.538251
 20
213.389691
 30
0.0
 10
103.898017
 20
212.857318
 30
0.0
 10
103.898017
 20
212.618313
 30
0.0
  0
SPLINE
  5
181
100
AcDbEntity
  8
Layer_1
 62
7
100
AcDbSpline
 70
8
 71
3
 72
8
 73
4
 74
0
 40
0
 40
0
 40
0
 40
0
 40
1
 40
1
 40
1
 40
1
 10
103.898017
 20
212.618313
 30
0.0
 10
103.898017
 20
212.379305
 30
0.0
 10
104.010519
 20
212.114405
 30
0.0
 10
104.147716
 20
212.029614
 30
0.0
  0
SPLINE
  5
182
100
AcDbEntity
  8
Layer_1
 62
7
100
AcDbSpline
 70
8
 71
3
 72
8
 73
4
 74
0
 40
0
 40
0
 40
0
 40
0
 40
1
 40
1
 40
1
 40
1
 10
104.147716
 20
212.029614
 30
0.0
 10
104.284913
 20
211.944821
 30
0.0
 10
104.679917
 20
211.270693
 30
0.0
 10
105.025802
 20
210.531409
 30
0.0
  0
SPLINE
  5
183
100
AcDbEntity
  8
Layer_1
 62
7
100
AcDbSpline
 70
8
 71
3
 72
8
 73
4
 74
0
 40
0
 40
0
 40
0
 40
0
 40
1
 40
1
 40
1
 40
1
 10
105.025802
 20
210.531409
 30
0.0
 10
105.371688
 20
209.792125
 30
0.0
 10
106.953863
 20
207.091496
 30
0.0
 10
108.541453
 20
204.530329
 30
0.0
  0
SPLINE
  5
184
100
AcDbEntity
  8
Layer_1
 62
7
100
AcDbSpline
 70
8
 71
3
 72
8
 73
4
 74
0
 40
0
 40
0
 40
0
 40
0
 40
1
 40
1
 40
1
 40
1
 10
108.541453
 20
204.530329
 30
0.0
 10
111.093989
 20
200.412473
 30
0.0
 10
112.081214
 20
198.740360
 30
0.0
 10
114.625216
 20
194.229218
 30
0.0
  0
SPLINE
  5
185
100
AcDbEntity
  8
Layer_1
 62
7
100
AcDbSpline
 70
8
 71
3
 72
8
 73
4
 74
0
 40
0
 40
0
 40
0
 40
0
 40
1
 40
1
 40
1
 40
1
 10
114.625216
 20
194.229218
 30
0.0
 10
114.975358
 20
193.608329
 30
0.0
 10
115.649225
 20
192.338329
 30
0.0
 10
116.122317
 20
191.406996
 30
0.0
  0
SPLINE
  5
186
100
AcDbEntity
  8
Layer_1
 62
7
100
AcDbSpline
 70
8
 71
3
 72
8
 73
4
 74
0
 40
0
 40
0
 40
0
 40
0
 40
1
 40
1
 40
1
 40
1
 10
116.122317
 20
191.406996
 30
0.0
 10
116.595412
 20
190.475662
 30
0.0
 10
117.379290
 20
189.142162
 30
0.0
 10
117.864709
 20
188.443662
 30
0.0
  0
SPLINE
  5
187
100
AcDbEntity
  8
Layer_1
 62
7
100
AcDbSpline
 70
8
 71
3
 72
8
 73
4
 74
0
 40
0
 40
0
 40
0
 40
0
 40
1
 40
1
 40
1
 40
1
 10
117.864709
 20
188.443662
 30
0.0
 10
118.350132
 20
187.745162
 30
0.0
 10
118.842866
 20
187.014912
 30
0.0
 10
118.959424
 20
186.820885
 30
0.0
  0
SPLINE
  5
188
100
AcDbEntity
  8
Layer_1
 62
7
100
AcDbSpline
 70
8
 71
3
 72
8
 73
4
 74
0
 40
0
 40
0
 40
0
 40
0
 40
1
 40
1
 40
1
 40
1
 10
118.959424
 20
186.820885
 30
0.0
 10
119.250271
 20
186.336732
 30
0.0
 10
119.001532
 20
186.376049
 30
0.0
 10
118.582942
 20
186.880417
 30
0.0
  0
SPLINE
  5
189
100
AcDbEntity
  8
Layer_1
 62
7
100
AcDbSpline
 70
8
 71
3
 72
8
 73
4
 74
0
 40
0
 40
0
 40
0
 40
0
 40
1
 40
1
 40
1
 40
1
 10
118.582942
 20
186.880417
 30
0.0
 10
118.394697
 20
187.107239
 30
0.0
 10
117.977113
 20
187.376879
 30
0.0
 10
117.655247
 20
187.479035
 30
0.0
  0
SPLINE
  5
18a
100
AcDbEntity
  8
Layer_1
 62
7
100
AcDbSpline
 70
8
 71
3
 72
8
 73
4
 74
0
 40
0
 40
0
 40
0
 40
0
 40
1
 40
1
 40
1
 40
1
 10
117.655247
 20
187.479035
 30
0.0
 10
117.333381
 20
187.581191
 30
0.0
 10
116.487473
 20
188.068417
 30
0.0
 10
115.775605
 20
188.562173
 30
0.0
  0
SPLINE
  5
18b
100
AcDbEntity
  8
Layer_1
 62
7
100
AcDbSpline
 70
8
 71
3
 72
8
 73
4
 74
0
 40
0
 40
0
 40
0
 40
0
 40
1
 40
1
 40
1
 40
1
 10
115.775605
 20
188.562173
 30
0.0
 10
115.063738
 20
189.055927
 30
0.0
 10
113.719350
 20
189.750563
 30
0.0
 10
112.788017
 20
190.105576
 30
0.0
  0
SPLINE
  5
18c
100
AcDbEntity
  8
Layer_1
 62
7
100
AcDbSpline
 70
8
 71
3
 72
8
 73
4
 74
0
 40
0
 40
0
 40
0
 40
0
 40
1
 40
1
 40
1
 40
1
 10
112.788017
 20
190.105576
 30
0.0
 10
111.856684
 20
190.460592
 30
0.0
 10
110.840684
 20
190.859640
 30
0.0
 10
110.530239
 20
190.992482
 30
0.0
  0
SPLINE
  5
18d
100
AcDbEntity
  8
Layer_1
 62
7
100
AcDbSpline
 70
8
 71
3
 72
8
 73
4
 74
0
 40
0
 40
0
 40
0
 40
0
 40
1
 40
1
 40
1
 40
1
 10
110.530239
 20
190.992482
 30
0.0
 10
110.219795
 20
191.125327
 30
0.0
 10
109.394295
 20
191.315293
 30
0.0
 10
108.695795
 20
191.414715
 30
0.0
  0
SPLINE
  5
18e
100
AcDbEntity
  8
Layer_1
 62
7
100
AcDbSpline
 70
8
 71
3
 72
8
 73
4
 74
0
 40
0
 40
0
 40
0
 40
0
 40
1
 40
1
 40
1
 40
1
 10
108.695795
 20
191.414715
 30
0.0
 10
107.115469
 20
191.639651
 30
0.0
 10
105.362019
 20
192.084081
 30
0.0
 10
104.549002
 20
192.465329
 30
0.0
  0
SPLINE
  5
18f
100
AcDbEntity
  8
Layer_1
 62
7
100
AcDbSpline
 70
8
 71
3
 72
8
 73
4
 74
0
 40
0
 40
0
 40
0
 40
0
 40
1
 40
1
 40
1
 40
1
 10
104.549002
 20
192.465329
 30
0.0
 10
103.948168
 20
192.747077
 30
0.0
 10
103.927216
 20
192.916856
 30
0.0
 10
103.829666
 20
198.290020
 30
0.0
  0
SPLINE
  5
190
100
AcDbEntity
  8
Layer_1
 62
7
100
AcDbSpline
 70
8
 71
3
 72
8
 73
4
 74
0
 40
0
 40
0
 40
0
 40
0
 40
1
 40
1
 40
1
 40
1
 10
103.829666
 20
198.290020
 30
0.0
 10
103.712916
 20
204.720866
 30
0.0
 10
103.379369
 20
211.565872
 30
0.0
 10
103.166003
 20
211.911103
 30
0.0
  0
SPLINE
  5
191
100
AcDbEntity
  8
Layer_1
 62
7
100
AcDbSpline
 70
8
 71
3
 72
8
 73
4
 74
0
 40
0
 40
0
 40
0
 40
0
 40
1
 40
1
 40
1
 40
1
 10
103.166003
 20
211.911103
 30
0.0
 10
102.781309
 20
212.533556
 30
0.0
 10
102.486906
 20
212.018046
 30
0.0
 10
102.486906
 20
210.722683
 30
0.0
  0
SPLINE
  5
192
100
AcDbEntity
  8
Layer_1
 62
7
100
AcDbSpline
 70
8
 71
3
 72
8
 73
4
 74
0
 40
0
 40
0
 40
0
 40
0
 40
1
 40
1
 40
1
 40
1
 10
102.486906
 20
210.722683
 30
0.0
 10
102.486906
 20
209.873699
 30
0.0
 10
102.376026
 20
209.363261
 30
0.0
 10
102.213503
 20
209.463706
 30
0.0
  0
SPLINE
  5
193
100
AcDbEntity
  8
Layer_1
 62
7
100
AcDbSpline
 70
8
 71
3
 72
8
 73
4
 74
0
 40
0
 40
0
 40
0
 40
0
 40
1
 40
1
 40
1
 40
1
 10
102.213503
 20
209.463706
 30
0.0
 10
102.056763
 20
209.560585
 30
0.0
 10
101.992046
 20
210.614625
 30
0.0
 10
102.061368
 20
211.934805
 30
0.0
  0
SPLINE
  5
194
100
AcDbEntity
  8
Layer_1
 62
7
100
AcDbSpline
 70
8
 71
3
 72
8
 73
4
 74
0
 40
0
 40
0
 40
0
 40
0
 40
1
 40
1
 40
1
 40
1
 10
102.061368
 20
211.934805
 30
0.0
 10
102.136902
 20
213.373300
 30
0.0
 10
102.065610
 20
214.377257
 30
0.0
 10
101.871199
 20
214.611507
 30
0.0
  0
SPLINE
  5
195
100
AcDbEntity
  8
Layer_1
 62
7
100
AcDbSpline
 70
8
 71
3
 72
8
 73
4
 74
0
 40
0
 40
0
 40
0
 40
0
 40
1
 40
1
 40
1
 40
1
 10
101.871199
 20
214.611507
 30
0.0
 10
101.700096
 20
214.817676
 30
0.0
 10
101.658716
 20
215.078718
 30
0.0
 10
101.779697
 20
215.191384
 30
0.0
  0
SPLINE
  5
196
100
AcDbEntity
  8
Layer_1
 62
7
100
AcDbSpline
 70
8
 71
3
 72
8
 73
4
 74
0
 40
0
 40
0
 40
0
 40
0
 40
1
 40
1
 40
1
 40
1
 10
101.779697
 20
215.191384
 30
0.0
 10
101.809942
 20
215.219549
 30
0.0
 10
101.843400
 20
215.234149
 30
0.0
 10
101.877261
 20
215.237135
 30
0.0
  0
LWPOLYLINE
  5
197
100
AcDbEntity
  8
Layer_1
 62
7
100
AcDbPolyline
 90
2
 70
0
 10
99.210481
 20
218.513560
 30
0.0
 10
99.210481
 20
218.513560
 30
0.0
  0
SPLINE
  5
198
100
AcDbEntity
  8
Layer_1
 62
7
100
AcDbSpline
 70
8
 71
3
 72
8
 73
4
 74
0
 40
0
 40
0
 40
0
 40
0
 40
1
 40
1
 40
1
 40
1
 10
110.500473
 20
207.311762
 30
0.0
 10
110.025451
 20
207.330482
 30
0.0
 10
109.971916
 20
206.754427
 30
0.0
 10
110.445903
 20
206.280437
 30
0.0
  0
SPLINE
  5
199
100
AcDbEntity
  8
Layer_1
 62
7
100
AcDbSpline
 70
8
 71
3
 72
8
 73
4
 74
0
 40
0
 40
0
 40
0
 40
0
 40
1
 40
1
 40
1
 40
1
 10
110.445903
 20
206.280437
 30
0.0
 10
110.971446
 20
205.754894
 30
0.0
 10
111.284210
 20
205.878886
 30
0.0
 10
111.185082
 20
206.573686
 30
0.0
  0
SPLINE
  5
19a
100
AcDbEntity
  8
Layer_1
 62
7
100
AcDbSpline
 70
8
 71
3
 72
8
 73
4
 74
0
 40
0
 40
0
 40
0
 40
0
 40
1
 40
1
 40
1
 40
1
 10
111.185082
 20
206.573686
 30
0.0
 10
111.135482
 20
206.921353
 30
0.0
 10
110.872434
 20
207.248414
 30
0.0
 10
110.600795
 20
207.300188
 30
0.0
  0
SPLINE
  5
19b
100
AcDbEntity
  8
Layer_1
 62
7
100
AcDbSpline
 70
8
 71
3
 72
8
 73
4
 74
0
 40
0
 40
0
 40
0
 40
0
 40
1
 40
1
 40
1
 40
1
 10
110.600795
 20
207.300188
 30
0.0
 10
110.565413
 20
207.306930
 30
0.0
 10
110.532141
 20
207.310514
 30
0.0
 10
110.500473
 20
207.311762
 30
0.0
  0
LWPOLYLINE
  5
19c
100
AcDbEntity
  8
Layer_1
 62
7
100
AcDbPolyline
 90
2
 70
0
 10
101.877261
 20
215.237135
 30
0.0
 10
101.877261
 20
215.237135
 30
0.0
  0
SPLINE
  5
19d
100
AcDbEntity
  8
Layer_1
 62
7
100
AcDbSpline
 70
8
 71
3
 72
8
 73
4
 74
0
 40
0
 40
0
 40
0
 40
0
 40
1
 40
1
 40
1
 40
1
 10
102.307760
 20
204.432765
 30
0.0
 10
102.333428
 20
204.428879
 30
0.0
 10
102.363823
 20
204.385450
 30
0.0
 10
102.397608
 20
204.301024
 30
0.0
  0
SPLINE
  5
19e
100
AcDbEntity
  8
Layer_1
 62
7
100
AcDbSpline
 70
8
 71
3
 72
8
 73
4
 74
0
 40
0
 40
0
 40
0
 40
0
 40
1
 40
1
 40
1
 40
1
 10
102.397608
 20
204.301024
 30
0.0
 10
102.479145
 20
204.097296
 30
0.0
 10
102.468787
 20
203.854063
 30
0.0
 10
102.375008
 20
203.760283
 30
0.0
  0
SPLINE
  5
19f
100
AcDbEntity
  8
Layer_1
 62
7
100
AcDbSpline
 70
8
 71
3
 72
8
 73
4
 74
0
 40
0
 40
0
 40
0
 40
0
 40
1
 40
1
 40
1
 40
1
 10
102.375008
 20
203.760283
 30
0.0
 10
102.281228
 20
203.666503
 30
0.0
 10
102.215036
 20
203.833192
 30
0.0
 10
102.227284
 20
204.130700
 30
0.0
  0
SPLINE
  5
1a0
100
AcDbEntity
  8
Layer_1
 62
7
100
AcDbSpline
 70
8
 71
3
 72
8
 73
4
 74
0
 40
0
 40
0
 40
0
 40
0
 40
1
 40
1
 40
1
 40
1
 10
102.227284
 20
204.130700
 30
0.0
 10
102.235745
 20
204.336183
 30
0.0
 10
102.264983
 20
204.439242
 30
0.0
 10
102.307760
 20
204.432765
 30
0.0
  0
LWPOLYLINE
  5
1a1
100
AcDbEntity
  8
Layer_1
 62
7
100
AcDbPolyline
 90
2
 70
0
 10
110.500473
 20
207.311762
 30
0.0
 10
110.500473
 20
207.311762
 30
0.0
  0
LWPOLYLINE
  5
1a2
100
AcDbEntity
  8
Layer_1
 62
7
100
AcDbPolyline
 90
2
 70
0
 10
102.307760
 20
204.432765
 30
0.0
 10
102.307760
 20
204.432765
 30
0.0
  0
SPLINE
  5
1a3
100
AcDbEntity
  8
Layer_1
 62
7
100
AcDbSpline
 70
8
 71
3
 72
8
 73
4
 74
0
 40
0
 40
0
 40
0
 40
0
 40
1
 40
1
 40
1
 40
1
 10
105.026906
 20
187.875910
 30
0.0
 10
106.769676
 20
187.871099
 30
0.0
 10
108.131350
 20
187.544085
 30
0.0
 10
108.131350
 20
187.130118
 30
0.0
  0
SPLINE
  5
1a4
100
AcDbEntity
  8
Layer_1
 62
7
100
AcDbSpline
 70
8
 71
3
 72
8
 73
4
 74
0
 40
0
 40
0
 40
0
 40
0
 40
1
 40
1
 40
1
 40
1
 10
108.131350
 20
187.130118
 30
0.0
 10
108.131350
 20
186.913753
 30
0.0
 10
108.480600
 20
186.606026
 30
0.0
 10
108.907461
 20
186.446610
 30
0.0
  0
SPLINE
  5
1a5
100
AcDbEntity
  8
Layer_1
 62
7
100
AcDbSpline
 70
8
 71
3
 72
8
 73
4
 74
0
 40
0
 40
0
 40
0
 40
0
 40
1
 40
1
 40
1
 40
1
 10
108.907461
 20
186.446610
 30
0.0
 10
109.334323
 20
186.287191
 30
0.0
 10
110.191573
 20
185.921606
 30
0.0
 10
110.812461
 20
185.633567
 30
0.0
  0
SPLINE
  5
1a6
100
AcDbEntity
  8
Layer_1
 62
7
100
AcDbSpline
 70
8
 71
3
 72
8
 73
4
 74
0
 40
0
 40
0
 40
0
 40
0
 40
1
 40
1
 40
1
 40
1
 10
110.812461
 20
185.633567
 30
0.0
 10
111.433350
 20
185.345529
 30
0.0
 10
112.215594
 20
185.029736
 30
0.0
 10
112.550442
 20
184.931870
 30
0.0
  0
SPLINE
  5
1a7
100
AcDbEntity
  8
Layer_1
 62
7
100
AcDbSpline
 70
8
 71
3
 72
8
 73
4
 74
0
 40
0
 40
0
 40
0
 40
0
 40
1
 40
1
 40
1
 40
1
 10
112.550442
 20
184.931870
 30
0.0
 10
112.885291
 20
184.834001
 30
0.0
 10
113.710791
 20
184.315161
 30
0.0
 10
114.384887
 20
183.779280
 30
0.0
  0
SPLINE
  5
1a8
100
AcDbEntity
  8
Layer_1
 62
7
100
AcDbSpline
 70
8
 71
3
 72
8
 73
4
 74
0
 40
0
 40
0
 40
0
 40
0
 40
1
 40
1
 40
1
 40
1
 10
114.384887
 20
183.779280
 30
0.0
 10
115.058983
 20
183.243396
 30
0.0
 10
115.832489
 20
182.803937
 30
0.0
 10
116.104128
 20
182.802526
 30
0.0
  0
SPLINE
  5
1a9
100
AcDbEntity
  8
Layer_1
 62
7
100
AcDbSpline
 70
8
 71
3
 72
8
 73
4
 74
0
 40
0
 40
0
 40
0
 40
0
 40
1
 40
1
 40
1
 40
1
 10
116.104128
 20
182.802526
 30
0.0
 10
116.375767
 20
182.801019
 30
0.0
 10
116.598017
 20
182.609271
 30
0.0
 10
116.598017
 20
182.376438
 30
0.0
  0
SPLINE
  5
1aa
100
AcDbEntity
  8
Layer_1
 62
7
100
AcDbSpline
 70
8
 71
3
 72
8
 73
4
 74
0
 40
0
 40
0
 40
0
 40
0
 40
1
 40
1
 40
1
 40
1
 10
116.598017
 20
182.376438
 30
0.0
 10
116.598017
 20
182.143605
 30
0.0
 10
116.722167
 20
181.953105
 30
0.0
 10
116.873624
 20
181.953105
 30
0.0
  0
SPLINE
  5
1ab
100
AcDbEntity
  8
Layer_1
 62
7
100
AcDbSpline
 70
8
 71
3
 72
8
 73
4
 74
0
 40
0
 40
0
 40
0
 40
0
 40
1
 40
1
 40
1
 40
1
 10
116.873624
 20
181.953105
 30
0.0
 10
117.025081
 20
181.953105
 30
0.0
 10
117.543205
 20
181.519713
 30
0.0
 10
118.025113
 20
180.990131
 30
0.0
  0
SPLINE
  5
1ac
100
AcDbEntity
  8
Layer_1
 62
7
100
AcDbSpline
 70
8
 71
3
 72
8
 73
4
 74
0
 40
0
 40
0
 40
0
 40
0
 40
1
 40
1
 40
1
 40
1
 10
118.025113
 20
180.990131
 30
0.0
 10
118.507022
 20
180.460550
 30
0.0
 10
119.206326
 20
179.950504
 30
0.0
 10
119.579540
 20
179.856831
 30
0.0
  0
SPLINE
  5
1ad
100
AcDbEntity
  8
Layer_1
 62
7
100
AcDbSpline
 70
8
 71
3
 72
8
 73
4
 74
0
 40
0
 40
0
 40
0
 40
0
 40
1
 40
1
 40
1
 40
1
 10
119.579540
 20
179.856831
 30
0.0
 10
119.976818
 20
179.757122
 30
0.0
 10
120.327372
 20
179.410570
 30
0.0
 10
120.425103
 20
179.021188
 30
0.0
  0
SPLINE
  5
1ae
100
AcDbEntity
  8
Layer_1
 62
7
100
AcDbSpline
 70
8
 71
3
 72
8
 73
4
 74
0
 40
0
 40
0
 40
0
 40
0
 40
1
 40
1
 40
1
 40
1
 10
120.425103
 20
179.021188
 30
0.0
 10
120.516910
 20
178.655391
 30
0.0
 10
120.899959
 20
178.191765
 30
0.0
 10
121.276181
 20
177.990417
 30
0.0
  0
SPLINE
  5
1af
100
AcDbEntity
  8
Layer_1
 62
7
100
AcDbSpline
 70
8
 71
3
 72
8
 73
4
 74
0
 40
0
 40
0
 40
0
 40
0
 40
1
 40
1
 40
1
 40
1
 10
121.276181
 20
177.990417
 30
0.0
 10
121.652403
 20
177.789068
 30
0.0
 10
121.960239
 20
177.407303
 30
0.0
 10
121.960239
 20
177.142096
 30
0.0
  0
SPLINE
  5
1b0
100
AcDbEntity
  8
Layer_1
 62
7
100
AcDbSpline
 70
8
 71
3
 72
8
 73
4
 74
0
 40
0
 40
0
 40
0
 40
0
 40
1
 40
1
 40
1
 40
1
 10
121.960239
 20
177.142096
 30
0.0
 10
121.960239
 20
176.876886
 30
0.0
 10
122.172617
 20
176.485314
 30
0.0
 10
122.432078
 20
176.272279
 30
0.0
  0
SPLINE
  5
1b1
100
AcDbEntity
  8
Layer_1
 62
7
100
AcDbSpline
 70
8
 71
3
 72
8
 73
4
 74
0
 40
0
 40
0
 40
0
 40
0
 40
1
 40
1
 40
1
 40
1
 10
122.432078
 20
176.272279
 30
0.0
 10
123.059086
 20
175.757472
 30
0.0
 10
125.377030
 20
172.168717
 30
0.0
 10
125.281312
 20
171.860903
 30
0.0
  0
SPLINE
  5
1b2
100
AcDbEntity
  8
Layer_1
 62
7
100
AcDbSpline
 70
8
 71
3
 72
8
 73
4
 74
0
 40
0
 40
0
 40
0
 40
0
 40
1
 40
1
 40
1
 40
1
 10
125.281312
 20
171.860903
 30
0.0
 10
125.136058
 20
171.393794
 30
0.0
 10
126.798157
 20
168.688660
 30
0.0
 10
127.230409
 20
168.688660
 30
0.0
  0
SPLINE
  5
1b3
100
AcDbEntity
  8
Layer_1
 62
7
100
AcDbSpline
 70
8
 71
3
 72
8
 73
4
 74
0
 40
0
 40
0
 40
0
 40
0
 40
1
 40
1
 40
1
 40
1
 10
127.230409
 20
168.688660
 30
0.0
 10
127.580731
 20
168.688660
 30
0.0
 10
127.630428
 20
168.898825
 30
0.0
 10
127.480108
 20
169.746993
 30
0.0
  0
SPLINE
  5
1b4
100
AcDbEntity
  8
Layer_1
 62
7
100
AcDbSpline
 70
8
 71
3
 72
8
 73
4
 74
0
 40
0
 40
0
 40
0
 40
0
 40
1
 40
1
 40
1
 40
1
 10
127.480108
 20
169.746993
 30
0.0
 10
127.376947
 20
170.329077
 30
0.0
 10
127.222329
 20
171.042283
 30
0.0
 10
127.136703
 20
171.332286
 30
0.0
  0
SPLINE
  5
1b5
100
AcDbEntity
  8
Layer_1
 62
7
100
AcDbSpline
 70
8
 71
3
 72
8
 73
4
 74
0
 40
0
 40
0
 40
0
 40
0
 40
1
 40
1
 40
1
 40
1
 10
127.136703
 20
171.332286
 30
0.0
 10
127.030093
 20
171.693370
 30
0.0
 10
127.101386
 20
171.819659
 30
0.0
 10
127.363251
 20
171.732469
 30
0.0
  0
SPLINE
  5
1b6
100
AcDbEntity
  8
Layer_1
 62
7
100
AcDbSpline
 70
8
 71
3
 72
8
 73
4
 74
0
 40
0
 40
0
 40
0
 40
0
 40
1
 40
1
 40
1
 40
1
 10
127.363251
 20
171.732469
 30
0.0
 10
127.573569
 20
171.662441
 30
0.0
 10
127.759914
 20
171.334810
 30
0.0
 10
127.777215
 20
171.004866
 30
0.0
  0
SPLINE
  5
1b7
100
AcDbEntity
  8
Layer_1
 62
7
100
AcDbSpline
 70
8
 71
3
 72
8
 73
4
 74
0
 40
0
 40
0
 40
0
 40
0
 40
1
 40
1
 40
1
 40
1
 10
127.777215
 20
171.004866
 30
0.0
 10
127.794518
 20
170.674920
 30
0.0
 10
127.943012
 20
170.050766
 30
0.0
 10
128.106842
 20
169.617456
 30
0.0
  0
SPLINE
  5
1b8
100
AcDbEntity
  8
Layer_1
 62
7
100
AcDbSpline
 70
8
 71
3
 72
8
 73
4
 74
0
 40
0
 40
0
 40
0
 40
0
 40
1
 40
1
 40
1
 40
1
 10
128.106842
 20
169.617456
 30
0.0
 10
128.435295
 20
168.748734
 30
0.0
 10
128.681074
 20
167.350704
 30
0.0
 10
128.905550
 20
165.078750
 30
0.0
  0
SPLINE
  5
1b9
100
AcDbEntity
  8
Layer_1
 62
7
100
AcDbSpline
 70
8
 71
3
 72
8
 73
4
 74
0
 40
0
 40
0
 40
0
 40
0
 40
1
 40
1
 40
1
 40
1
 10
128.905550
 20
165.078750
 30
0.0
 10
129.084112
 20
163.271492
 30
0.0
 10
129.643672
 20
161.558025
 30
0.0
 10
130.014596
 20
161.682714
 30
0.0
  0
SPLINE
  5
1ba
100
AcDbEntity
  8
Layer_1
 62
7
100
AcDbSpline
 70
8
 71
3
 72
8
 73
4
 74
0
 40
0
 40
0
 40
0
 40
0
 40
1
 40
1
 40
1
 40
1
 10
130.014596
 20
161.682714
 30
0.0
 10
130.163714
 20
161.732842
 30
0.0
 10
130.287409
 20
162.843443
 30
0.0
 10
130.289102
 20
164.150504
 30
0.0
  0
SPLINE
  5
1bb
100
AcDbEntity
  8
Layer_1
 62
7
100
AcDbSpline
 70
8
 71
3
 72
8
 73
4
 74
0
 40
0
 40
0
 40
0
 40
0
 40
1
 40
1
 40
1
 40
1
 10
130.289102
 20
164.150504
 30
0.0
 10
130.291383
 20
165.786315
 30
0.0
 10
130.401331
 20
166.563467
 30
0.0
 10
130.641880
 20
166.643650
 30
0.0
  0
SPLINE
  5
1bc
100
AcDbEntity
  8
Layer_1
 62
7
100
AcDbSpline
 70
8
 71
3
 72
8
 73
4
 74
0
 40
0
 40
0
 40
0
 40
0
 40
1
 40
1
 40
1
 40
1
 10
130.641880
 20
166.643650
 30
0.0
 10
130.834088
 20
166.707720
 30
0.0
 10
130.991350
 20
166.578730
 30
0.0
 10
130.991350
 20
166.357019
 30
0.0
  0
SPLINE
  5
1bd
100
AcDbEntity
  8
Layer_1
 62
7
100
AcDbSpline
 70
8
 71
3
 72
8
 73
4
 74
0
 40
0
 40
0
 40
0
 40
0
 40
1
 40
1
 40
1
 40
1
 10
130.991350
 20
166.357019
 30
0.0
 10
130.991350
 20
166.135308
 30
0.0
 10
131.229662
 20
165.738295
 30
0.0
 10
131.520517
 20
165.475075
 30
0.0
  0
SPLINE
  5
1be
100
AcDbEntity
  8
Layer_1
 62
7
100
AcDbSpline
 70
8
 71
3
 72
8
 73
4
 74
0
 40
0
 40
0
 40
0
 40
0
 40
1
 40
1
 40
1
 40
1
 10
131.520517
 20
165.475075
 30
0.0
 10
131.811372
 20
165.211854
 30
0.0
 10
132.118247
 20
164.480289
 30
0.0
 10
132.202922
 20
163.848989
 30
0.0
  0
SPLINE
  5
1bf
100
AcDbEntity
  8
Layer_1
 62
7
100
AcDbSpline
 70
8
 71
3
 72
8
 73
4
 74
0
 40
0
 40
0
 40
0
 40
0
 40
1
 40
1
 40
1
 40
1
 10
132.202922
 20
163.848989
 30
0.0
 10
132.294924
 20
163.163068
 30
0.0
 10
132.707281
 20
162.264628
 30
0.0
 10
133.227631
 20
161.617119
 30
0.0
  0
SPLINE
  5
1c0
100
AcDbEntity
  8
Layer_1
 62
7
100
AcDbSpline
 70
8
 71
3
 72
8
 73
4
 74
0
 40
0
 40
0
 40
0
 40
0
 40
1
 40
1
 40
1
 40
1
 10
133.227631
 20
161.617119
 30
0.0
 10
133.706548
 20
161.021171
 30
0.0
 10
134.218330
 20
160.218593
 30
0.0
 10
134.364786
 20
159.833385
 30
0.0
  0
SPLINE
  5
1c1
100
AcDbEntity
  8
Layer_1
 62
7
100
AcDbSpline
 70
8
 71
3
 72
8
 73
4
 74
0
 40
0
 40
0
 40
0
 40
0
 40
1
 40
1
 40
1
 40
1
 10
134.364786
 20
159.833385
 30
0.0
 10
134.511243
 20
159.448177
 30
0.0
 10
135.350868
 20
158.017197
 30
0.0
 10
136.230651
 20
156.653423
 30
0.0
  0
SPLINE
  5
1c2
100
AcDbEntity
  8
Layer_1
 62
7
100
AcDbSpline
 70
8
 71
3
 72
8
 73
4
 74
0
 40
0
 40
0
 40
0
 40
0
 40
1
 40
1
 40
1
 40
1
 10
136.230651
 20
156.653423
 30
0.0
 10
137.110433
 20
155.289649
 30
0.0
 10
138.339728
 20
153.217102
 30
0.0
 10
138.962474
 20
152.047469
 30
0.0
  0
SPLINE
  5
1c3
100
AcDbEntity
  8
Layer_1
 62
7
100
AcDbSpline
 70
8
 71
3
 72
8
 73
4
 74
0
 40
0
 40
0
 40
0
 40
0
 40
1
 40
1
 40
1
 40
1
 10
138.962474
 20
152.047469
 30
0.0
 10
139.585220
 20
150.877833
 30
0.0
 10
140.442400
 20
149.412882
 30
0.0
 10
140.866924
 20
148.791993
 30
0.0
  0
SPLINE
  5
1c4
100
AcDbEntity
  8
Layer_1
 62
7
100
AcDbSpline
 70
8
 71
3
 72
8
 73
4
 74
0
 40
0
 40
0
 40
0
 40
0
 40
1
 40
1
 40
1
 40
1
 10
140.866924
 20
148.791993
 30
0.0
 10
141.291451
 20
148.171105
 30
0.0
 10
141.735175
 20
147.345605
 30
0.0
 10
141.853048
 20
146.957549
 30
0.0
  0
SPLINE
  5
1c5
100
AcDbEntity
  8
Layer_1
 62
7
100
AcDbSpline
 70
8
 71
3
 72
8
 73
4
 74
0
 40
0
 40
0
 40
0
 40
0
 40
1
 40
1
 40
1
 40
1
 10
141.853048
 20
146.957549
 30
0.0
 10
141.970921
 20
146.569493
 30
0.0
 10
142.193910
 20
146.093243
 30
0.0
 10
142.349141
 20
145.899216
 30
0.0
  0
SPLINE
  5
1c6
100
AcDbEntity
  8
Layer_1
 62
7
100
AcDbSpline
 70
8
 71
3
 72
8
 73
4
 74
0
 40
0
 40
0
 40
0
 40
0
 40
1
 40
1
 40
1
 40
1
 10
142.349141
 20
145.899216
 30
0.0
 10
142.520766
 20
145.684704
 30
0.0
 10
142.525996
 20
145.546438
 30
0.0
 10
142.362369
 20
145.546438
 30
0.0
  0
SPLINE
  5
1c7
100
AcDbEntity
  8
Layer_1
 62
7
100
AcDbSpline
 70
8
 71
3
 72
8
 73
4
 74
0
 40
0
 40
0
 40
0
 40
0
 40
1
 40
1
 40
1
 40
1
 10
142.362369
 20
145.546438
 30
0.0
 10
142.214371
 20
145.546438
 30
0.0
 10
141.914886
 20
145.895688
 30
0.0
 10
141.696502
 20
146.322549
 30
0.0
  0
SPLINE
  5
1c8
100
AcDbEntity
  8
Layer_1
 62
7
100
AcDbSpline
 70
8
 71
3
 72
8
 73
4
 74
0
 40
0
 40
0
 40
0
 40
0
 40
1
 40
1
 40
1
 40
1
 10
141.696502
 20
146.322549
 30
0.0
 10
140.495934
 20
148.669232
 30
0.0
 10
138.859401
 20
150.908660
 30
0.0
 10
138.345113
 20
150.908660
 30
0.0
  0
SPLINE
  5
1c9
100
AcDbEntity
  8
Layer_1
 62
7
100
AcDbSpline
 70
8
 71
3
 72
8
 73
4
 74
0
 40
0
 40
0
 40
0
 40
0
 40
1
 40
1
 40
1
 40
1
 10
138.345113
 20
150.908660
 30
0.0
 10
136.911828
 20
150.908660
 30
0.0
 10
137.333634
 20
149.113165
 30
0.0
 10
139.250208
 20
147.056214
 30
0.0
  0
SPLINE
  5
1ca
100
AcDbEntity
  8
Layer_1
 62
7
100
AcDbSpline
 70
8
 71
3
 72
8
 73
4
 74
0
 40
0
 40
0
 40
0
 40
0
 40
1
 40
1
 40
1
 40
1
 10
139.250208
 20
147.056214
 30
0.0
 10
139.819301
 20
146.445440
 30
0.0
 10
140.024076
 20
145.995391
 30
0.0
 10
139.904501
 20
145.618647
 30
0.0
  0
SPLINE
  5
1cb
100
AcDbEntity
  8
Layer_1
 62
7
100
AcDbSpline
 70
8
 71
3
 72
8
 73
4
 74
0
 40
0
 40
0
 40
0
 40
0
 40
1
 40
1
 40
1
 40
1
 10
139.904501
 20
145.618647
 30
0.0
 10
139.797059
 20
145.280127
 30
0.0
 10
139.948214
 20
144.793311
 30
0.0
 10
140.299722
 20
144.346440
 30
0.0
  0
SPLINE
  5
1cc
100
AcDbEntity
  8
Layer_1
 62
7
100
AcDbSpline
 70
8
 71
3
 72
8
 73
4
 74
0
 40
0
 40
0
 40
0
 40
0
 40
1
 40
1
 40
1
 40
1
 10
140.299722
 20
144.346440
 30
0.0
 10
140.612887
 20
143.948318
 30
0.0
 10
140.869128
 20
143.502788
 30
0.0
 10
140.869128
 20
143.355908
 30
0.0
  0
SPLINE
  5
1cd
100
AcDbEntity
  8
Layer_1
 62
7
100
AcDbSpline
 70
8
 71
3
 72
8
 73
4
 74
0
 40
0
 40
0
 40
0
 40
0
 40
1
 40
1
 40
1
 40
1
 10
140.869128
 20
143.355908
 30
0.0
 10
140.869128
 20
143.209031
 30
0.0
 10
141.168247
 20
142.765976
 30
0.0
 10
141.533894
 20
142.371438
 30
0.0
  0
SPLINE
  5
1ce
100
AcDbEntity
  8
Layer_1
 62
7
100
AcDbSpline
 70
8
 71
3
 72
8
 73
4
 74
0
 40
0
 40
0
 40
0
 40
0
 40
1
 40
1
 40
1
 40
1
 10
141.533894
 20
142.371438
 30
0.0
 10
141.899541
 20
141.976897
 30
0.0
 10
142.679575
 20
140.783472
 30
0.0
 10
143.266914
 20
139.719540
 30
0.0
  0
SPLINE
  5
1cf
100
AcDbEntity
  8
Layer_1
 62
7
100
AcDbSpline
 70
8
 71
3
 72
8
 73
4
 74
0
 40
0
 40
0
 40
0
 40
0
 40
1
 40
1
 40
1
 40
1
 10
143.266914
 20
139.719540
 30
0.0
 10
143.854255
 20
138.655607
 30
0.0
 10
144.519991
 20
137.570937
 30
0.0
 10
144.746376
 20
137.309077
 30
0.0
  0
SPLINE
  5
1d0
100
AcDbEntity
  8
Layer_1
 62
7
100
AcDbSpline
 70
8
 71
3
 72
8
 73
4
 74
0
 40
0
 40
0
 40
0
 40
0
 40
1
 40
1
 40
1
 40
1
 10
144.746376
 20
137.309077
 30
0.0
 10
145.139049
 20
136.854877
 30
0.0
 10
145.003845
 20
136.086039
 30
0.0
 10
144.577703
 20
136.349408
 30
0.0
  0
SPLINE
  5
1d1
100
AcDbEntity
  8
Layer_1
 62
7
100
AcDbSpline
 70
8
 71
3
 72
8
 73
4
 74
0
 40
0
 40
0
 40
0
 40
0
 40
1
 40
1
 40
1
 40
1
 10
144.577703
 20
136.349408
 30
0.0
 10
144.331919
 20
136.501314
 30
0.0
 10
141.457844
 20
136.114216
 30
0.0
 10
138.752461
 20
135.565031
 30
0.0
  0
SPLINE
  5
1d2
100
AcDbEntity
  8
Layer_1
 62
7
100
AcDbSpline
 70
8
 71
3
 72
8
 73
4
 74
0
 40
0
 40
0
 40
0
 40
0
 40
1
 40
1
 40
1
 40
1
 10
138.752461
 20
135.565031
 30
0.0
 10
137.311172
 20
135.272454
 30
0.0
 10
136.723504
 20
135.249535
 30
0.0
 10
136.579570
 20
135.480144
 30
0.0
  0
SPLINE
  5
1d3
100
AcDbEntity
  8
Layer_1
 62
7
100
AcDbSpline
 70
8
 71
3
 72
8
 73
4
 74
0
 40
0
 40
0
 40
0
 40
0
 40
1
 40
1
 40
1
 40
1
 10
136.579570
 20
135.480144
 30
0.0
 10
136.440553
 20
135.702871
 30
0.0
 10
133.627345
 20
135.798499
 30
0.0
 10
127.055121
 20
135.803156
 30
0.0
  0
SPLINE
  5
1d4
100
AcDbEntity
  8
Layer_1
 62
7
100
AcDbSpline
 70
8
 71
3
 72
8
 73
4
 74
0
 40
0
 40
0
 40
0
 40
0
 40
1
 40
1
 40
1
 40
1
 10
127.055121
 20
135.803156
 30
0.0
 10
119.785421
 20
135.808306
 30
0.0
 10
117.728021
 20
135.887588
 30
0.0
 10
117.727456
 20
136.162549
 30
0.0
  0
SPLINE
  5
1d5
100
AcDbEntity
  8
Layer_1
 62
7
100
AcDbSpline
 70
8
 71
3
 72
8
 73
4
 74
0
 40
0
 40
0
 40
0
 40
0
 40
1
 40
1
 40
1
 40
1
 10
117.727456
 20
136.162549
 30
0.0
 10
117.727132
 20
136.356577
 30
0.0
 10
117.504656
 20
136.517946
 30
0.0
 10
117.233017
 20
136.521389
 30
0.0
  0
SPLINE
  5
1d6
100
AcDbEntity
  8
Layer_1
 62
7
100
AcDbSpline
 70
8
 71
3
 72
8
 73
4
 74
0
 40
0
 40
0
 40
0
 40
0
 40
1
 40
1
 40
1
 40
1
 10
117.233017
 20
136.521389
 30
0.0
 10
116.833955
 20
136.526458
 30
0.0
 10
116.874764
 20
136.631450
 30
0.0
 10
117.444684
 20
137.069298
 30
0.0
  0
SPLINE
  5
1d7
100
AcDbEntity
  8
Layer_1
 62
7
100
AcDbSpline
 70
8
 71
3
 72
8
 73
4
 74
0
 40
0
 40
0
 40
0
 40
0
 40
1
 40
1
 40
1
 40
1
 10
117.444684
 20
137.069298
 30
0.0
 10
118.142656
 20
137.605520
 30
0.0
 10
118.152105
 20
137.605571
 30
0.0
 10
118.361906
 20
137.038428
 30
0.0
  0
SPLINE
  5
1d8
100
AcDbEntity
  8
Layer_1
 62
7
100
AcDbSpline
 70
8
 71
3
 72
8
 73
4
 74
0
 40
0
 40
0
 40
0
 40
0
 40
1
 40
1
 40
1
 40
1
 10
118.361906
 20
137.038428
 30
0.0
 10
118.571058
 20
136.473036
 30
0.0
 10
118.584195
 20
136.474077
 30
0.0
 10
119.349684
 20
137.129931
 30
0.0
  0
SPLINE
  5
1d9
100
AcDbEntity
  8
Layer_1
 62
7
100
AcDbSpline
 70
8
 71
3
 72
8
 73
4
 74
0
 40
0
 40
0
 40
0
 40
0
 40
1
 40
1
 40
1
 40
1
 10
119.349684
 20
137.129931
 30
0.0
 10
122.842793
 20
140.122756
 30
0.0
 10
125.373709
 20
143.092631
 30
0.0
 10
124.864591
 20
143.601749
 30
0.0
  0
SPLINE
  5
1da
100
AcDbEntity
  8
Layer_1
 62
7
100
AcDbSpline
 70
8
 71
3
 72
8
 73
4
 74
0
 40
0
 40
0
 40
0
 40
0
 40
1
 40
1
 40
1
 40
1
 10
124.864591
 20
143.601749
 30
0.0
 10
124.632297
 20
143.834043
 30
0.0
 10
123.781052
 20
142.977942
 30
0.0
 10
122.331206
 20
141.054033
 30
0.0
  0
SPLINE
  5
1db
100
AcDbEntity
  8
Layer_1
 62
7
100
AcDbSpline
 70
8
 71
3
 72
8
 73
4
 74
0
 40
0
 40
0
 40
0
 40
0
 40
1
 40
1
 40
1
 40
1
 10
122.331206
 20
141.054033
 30
0.0
 10
122.282466
 20
140.989359
 30
0.0
 10
122.161196
 20
141.017889
 30
0.0
 10
122.061661
 20
141.117423
 30
0.0
  0
SPLINE
  5
1dc
100
AcDbEntity
  8
Layer_1
 62
7
100
AcDbSpline
 70
8
 71
3
 72
8
 73
4
 74
0
 40
0
 40
0
 40
0
 40
0
 40
1
 40
1
 40
1
 40
1
 10
122.061661
 20
141.117423
 30
0.0
 10
121.876453
 20
141.302631
 30
0.0
 10
123.972280
 20
144.214609
 30
0.0
 10
124.841993
 20
144.980340
 30
0.0
  0
SPLINE
  5
1dd
100
AcDbEntity
  8
Layer_1
 62
7
100
AcDbSpline
 70
8
 71
3
 72
8
 73
4
 74
0
 40
0
 40
0
 40
0
 40
0
 40
1
 40
1
 40
1
 40
1
 10
124.841993
 20
144.980340
 30
0.0
 10
125.337547
 20
145.416650
 30
0.0
 10
126.758017
 20
148.090025
 30
0.0
 10
126.758017
 20
148.586389
 30
0.0
  0
SPLINE
  5
1de
100
AcDbEntity
  8
Layer_1
 62
7
100
AcDbSpline
 70
8
 71
3
 72
8
 73
4
 74
0
 40
0
 40
0
 40
0
 40
0
 40
1
 40
1
 40
1
 40
1
 10
126.758017
 20
148.586389
 30
0.0
 10
126.758017
 20
148.738868
 30
0.0
 10
126.948517
 20
149.022092
 30
0.0
 10
127.181350
 20
149.215327
 30
0.0
  0
SPLINE
  5
1df
100
AcDbEntity
  8
Layer_1
 62
7
100
AcDbSpline
 70
8
 71
3
 72
8
 73
4
 74
0
 40
0
 40
0
 40
0
 40
0
 40
1
 40
1
 40
1
 40
1
 10
127.181350
 20
149.215327
 30
0.0
 10
127.414184
 20
149.408561
 30
0.0
 10
127.604684
 20
149.852133
 30
0.0
 10
127.604684
 20
150.201451
 30
0.0
  0
SPLINE
  5
1e0
100
AcDbEntity
  8
Layer_1
 62
7
100
AcDbSpline
 70
8
 71
3
 72
8
 73
4
 74
0
 40
0
 40
0
 40
0
 40
0
 40
1
 40
1
 40
1
 40
1
 10
127.604684
 20
150.201451
 30
0.0
 10
127.604684
 20
150.550768
 30
0.0
 10
127.865418
 20
151.425909
 30
0.0
 10
128.184010
 20
152.146137
 30
0.0
  0
SPLINE
  5
1e1
100
AcDbEntity
  8
Layer_1
 62
7
100
AcDbSpline
 70
8
 71
3
 72
8
 73
4
 74
0
 40
0
 40
0
 40
0
 40
0
 40
1
 40
1
 40
1
 40
1
 10
128.184010
 20
152.146137
 30
0.0
 10
128.940097
 20
153.855402
 30
0.0
 10
129.553606
 20
157.128417
 30
0.0
 10
129.485430
 20
159.088143
 30
0.0
  0
SPLINE
  5
1e2
100
AcDbEntity
  8
Layer_1
 62
7
100
AcDbSpline
 70
8
 71
3
 72
8
 73
4
 74
0
 40
0
 40
0
 40
0
 40
0
 40
1
 40
1
 40
1
 40
1
 10
129.485430
 20
159.088143
 30
0.0
 10
129.445405
 20
160.238673
 30
0.0
 10
129.252224
 20
160.885103
 30
0.0
 10
128.745700
 20
161.564203
 30
0.0
  0
SPLINE
  5
1e3
100
AcDbEntity
  8
Layer_1
 62
7
100
AcDbSpline
 70
8
 71
3
 72
8
 73
4
 74
0
 40
0
 40
0
 40
0
 40
0
 40
1
 40
1
 40
1
 40
1
 10
128.745700
 20
161.564203
 30
0.0
 10
128.368625
 20
162.069736
 30
0.0
 10
127.959903
 20
162.382992
 30
0.0
 10
127.837297
 20
162.260386
 30
0.0
  0
SPLINE
  5
1e4
100
AcDbEntity
  8
Layer_1
 62
7
100
AcDbSpline
 70
8
 71
3
 72
8
 73
4
 74
0
 40
0
 40
0
 40
0
 40
0
 40
1
 40
1
 40
1
 40
1
 10
127.837297
 20
162.260386
 30
0.0
 10
127.714691
 20
162.137780
 30
0.0
 10
127.499271
 20
160.708440
 30
0.0
 10
127.358290
 20
159.083732
 30
0.0
  0
SPLINE
  5
1e5
100
AcDbEntity
  8
Layer_1
 62
7
100
AcDbSpline
 70
8
 71
3
 72
8
 73
4
 74
0
 40
0
 40
0
 40
0
 40
0
 40
1
 40
1
 40
1
 40
1
 10
127.358290
 20
159.083732
 30
0.0
 10
126.817140
 20
152.847417
 30
0.0
 10
125.361172
 20
149.062486
 30
0.0
 10
122.007644
 20
145.174367
 30
0.0
  0
SPLINE
  5
1e6
100
AcDbEntity
  8
Layer_1
 62
7
100
AcDbSpline
 70
8
 71
3
 72
8
 73
4
 74
0
 40
0
 40
0
 40
0
 40
0
 40
1
 40
1
 40
1
 40
1
 10
122.007644
 20
145.174367
 30
0.0
 10
121.179861
 20
144.214628
 30
0.0
 10
120.365825
 20
143.144021
 30
0.0
 10
120.198555
 20
142.794771
 30
0.0
  0
SPLINE
  5
1e7
100
AcDbEntity
  8
Layer_1
 62
7
100
AcDbSpline
 70
8
 71
3
 72
8
 73
4
 74
0
 40
0
 40
0
 40
0
 40
0
 40
1
 40
1
 40
1
 40
1
 10
120.198555
 20
142.794771
 30
0.0
 10
120.031284
 20
142.445521
 30
0.0
 10
119.805501
 20
142.159771
 30
0.0
 10
119.696950
 20
142.159771
 30
0.0
  0
SPLINE
  5
1e8
100
AcDbEntity
  8
Layer_1
 62
7
100
AcDbSpline
 70
8
 71
3
 72
8
 73
4
 74
0
 40
0
 40
0
 40
0
 40
0
 40
1
 40
1
 40
1
 40
1
 10
119.696950
 20
142.159771
 30
0.0
 10
119.588401
 20
142.159771
 30
0.0
 10
118.497432
 20
141.319576
 30
0.0
 10
117.272703
 20
140.292803
 30
0.0
  0
SPLINE
  5
1e9
100
AcDbEntity
  8
Layer_1
 62
7
100
AcDbSpline
 70
8
 71
3
 72
8
 73
4
 74
0
 40
0
 40
0
 40
0
 40
0
 40
1
 40
1
 40
1
 40
1
 10
117.272703
 20
140.292803
 30
0.0
 10
115.321831
 20
138.657261
 30
0.0
 10
112.066287
 20
136.797549
 30
0.0
 10
111.154216
 20
136.797549
 30
0.0
  0
SPLINE
  5
1ea
100
AcDbEntity
  8
Layer_1
 62
7
100
AcDbSpline
 70
8
 71
3
 72
8
 73
4
 74
0
 40
0
 40
0
 40
0
 40
0
 40
1
 40
1
 40
1
 40
1
 10
111.154216
 20
136.797549
 30
0.0
 10
110.983003
 20
136.797549
 30
0.0
 10
110.391739
 20
136.486334
 30
0.0
 10
109.840118
 20
136.106325
 30
0.0
  0
SPLINE
  5
1eb
100
AcDbEntity
  8
Layer_1
 62
7
100
AcDbSpline
 70
8
 71
3
 72
8
 73
4
 74
0
 40
0
 40
0
 40
0
 40
0
 40
1
 40
1
 40
1
 40
1
 10
109.840118
 20
136.106325
 30
0.0
 10
109.015855
 20
135.538494
 30
0.0
 10
108.409523
 20
135.395966
 30
0.0
 10
106.438017
 20
135.304856
 30
0.0
  0
SPLINE
  5
1ec
100
AcDbEntity
  8
Layer_1
 62
7
100
AcDbSpline
 70
8
 71
3
 72
8
 73
4
 74
0
 40
0
 40
0
 40
0
 40
0
 40
1
 40
1
 40
1
 40
1
 10
106.438017
 20
135.304856
 30
0.0
 10
105.118628
 20
135.243879
 30
0.0
 10
103.816878
 20
135.096336
 30
0.0
 10
103.545239
 20
134.977436
 30
0.0
  0
SPLINE
  5
1ed
100
AcDbEntity
  8
Layer_1
 62
7
100
AcDbSpline
 70
8
 71
3
 72
8
 73
4
 74
0
 40
0
 40
0
 40
0
 40
0
 40
1
 40
1
 40
1
 40
1
 10
103.545239
 20
134.977436
 30
0.0
 10
102.978514
 20
134.729374
 30
0.0
 10
102.979505
 20
134.727122
 30
0.0
 10
102.893701
 20
136.797549
 30
0.0
  0
SPLINE
  5
1ee
100
AcDbEntity
  8
Layer_1
 62
7
100
AcDbSpline
 70
8
 71
3
 72
8
 73
4
 74
0
 40
0
 40
0
 40
0
 40
0
 40
1
 40
1
 40
1
 40
1
 10
102.893701
 20
136.797549
 30
0.0
 10
102.858322
 20
137.651271
 30
0.0
 10
102.763817
 20
138.730771
 30
0.0
 10
102.683688
 20
139.196438
 30
0.0
  0
SPLINE
  5
1ef
100
AcDbEntity
  8
Layer_1
 62
7
100
AcDbSpline
 70
8
 71
3
 72
8
 73
4
 74
0
 40
0
 40
0
 40
0
 40
0
 40
1
 40
1
 40
1
 40
1
 10
102.683688
 20
139.196438
 30
0.0
 10
102.603560
 20
139.662105
 30
0.0
 10
102.690171
 20
140.741605
 30
0.0
 10
102.876062
 20
141.595327
 30
0.0
  0
SPLINE
  5
1f0
100
AcDbEntity
  8
Layer_1
 62
7
100
AcDbSpline
 70
8
 71
3
 72
8
 73
4
 74
0
 40
0
 40
0
 40
0
 40
0
 40
1
 40
1
 40
1
 40
1
 10
102.876062
 20
141.595327
 30
0.0
 10
103.236248
 20
143.249459
 30
0.0
 10
103.247661
 20
150.401318
 30
0.0
 10
102.891497
 20
151.298369
 30
0.0
  0
SPLINE
  5
1f1
100
AcDbEntity
  8
Layer_1
 62
7
100
AcDbSpline
 70
8
 71
3
 72
8
 73
4
 74
0
 40
0
 40
0
 40
0
 40
0
 40
1
 40
1
 40
1
 40
1
 10
102.891497
 20
151.298369
 30
0.0
 10
102.762922
 20
151.622205
 30
0.0
 10
102.862973
 20
152.172307
 30
0.0
 10
103.148915
 20
152.709481
 30
0.0
  0
SPLINE
  5
1f2
100
AcDbEntity
  8
Layer_1
 62
7
100
AcDbSpline
 70
8
 71
3
 72
8
 73
4
 74
0
 40
0
 40
0
 40
0
 40
0
 40
1
 40
1
 40
1
 40
1
 10
103.148915
 20
152.709481
 30
0.0
 10
103.444119
 20
153.264059
 30
0.0
 10
103.602226
 20
154.164195
 30
0.0
 10
103.575556
 20
155.141993
 30
0.0
  0
SPLINE
  5
1f3
100
AcDbEntity
  8
Layer_1
 62
7
100
AcDbSpline
 70
8
 71
3
 72
8
 73
4
 74
0
 40
0
 40
0
 40
0
 40
0
 40
1
 40
1
 40
1
 40
1
 10
103.575556
 20
155.141993
 30
0.0
 10
103.552258
 20
155.995716
 30
0.0
 10
103.604661
 20
158.408716
 30
0.0
 10
103.692412
 20
160.504216
 30
0.0
  0
SPLINE
  5
1f4
100
AcDbEntity
  8
Layer_1
 62
7
100
AcDbSpline
 70
8
 71
3
 72
8
 73
4
 74
0
 40
0
 40
0
 40
0
 40
0
 40
1
 40
1
 40
1
 40
1
 10
103.692412
 20
160.504216
 30
0.0
 10
103.780161
 20
162.599716
 30
0.0
 10
103.854970
 20
166.155716
 30
0.0
 10
103.858328
 20
168.406438
 30
0.0
  0
SPLINE
  5
1f5
100
AcDbEntity
  8
Layer_1
 62
7
100
AcDbSpline
 70
8
 71
3
 72
8
 73
4
 74
0
 40
0
 40
0
 40
0
 40
0
 40
1
 40
1
 40
1
 40
1
 10
103.858328
 20
168.406438
 30
0.0
 10
103.861687
 20
170.657160
 30
0.0
 10
103.893558
 20
173.451160
 30
0.0
 10
103.928884
 20
174.615327
 30
0.0
  0
SPLINE
  5
1f6
100
AcDbEntity
  8
Layer_1
 62
7
100
AcDbSpline
 70
8
 71
3
 72
8
 73
4
 74
0
 40
0
 40
0
 40
0
 40
0
 40
1
 40
1
 40
1
 40
1
 10
103.928884
 20
174.615327
 30
0.0
 10
103.964190
 20
175.779493
 30
0.0
 10
103.971471
 20
177.017743
 30
0.0
 10
103.945422
 20
177.366993
 30
0.0
  0
SPLINE
  5
1f7
100
AcDbEntity
  8
Layer_1
 62
7
100
AcDbSpline
 70
8
 71
3
 72
8
 73
4
 74
0
 40
0
 40
0
 40
0
 40
0
 40
1
 40
1
 40
1
 40
1
 10
103.945422
 20
177.366993
 30
0.0
 10
103.863546
 20
178.464502
 30
0.0
 10
103.864619
 20
179.159440
 30
0.0
 10
103.953138
 20
183.575329
 30
0.0
  0
LWPOLYLINE
  5
1f8
100
AcDbEntity
  8
Layer_1
 62
7
100
AcDbPolyline
 90
2
 70
0
 10
104.039128
 20
187.878668
 30
0.0
 10
105.026906
 20
187.875910
 30
0.0
  0
LWPOLYLINE
  5
1f9
100
AcDbEntity
  8
Layer_1
 62
7
100
AcDbPolyline
 90
3
 70
0
 10
103.953138
 20
183.575329
 30
0.0
 10
104.039128
 20
187.878668
 30
0.0
 10
104.039128
 20
187.878668
 30
0.0
  0
SPLINE
  5
1fa
100
AcDbEntity
  8
Layer_1
 62
7
100
AcDbSpline
 70
8
 71
3
 72
8
 73
4
 74
0
 40
0
 40
0
 40
0
 40
0
 40
1
 40
1
 40
1
 40
1
 10
97.726610
 20
184.477119
 30
0.0
 10
97.654694
 20
181.760646
 30
0.0
 10
97.715499
 20
181.153366
 30
0.0
 10
98.091515
 20
180.841301
 30
0.0
  0
SPLINE
  5
1fb
100
AcDbEntity
  8
Layer_1
 62
7
100
AcDbSpline
 70
8
 71
3
 72
8
 73
4
 74
0
 40
0
 40
0
 40
0
 40
0
 40
1
 40
1
 40
1
 40
1
 10
98.091515
 20
180.841301
 30
0.0
 10
98.383384
 20
180.599070
 30
0.0
 10
98.450250
 20
180.355072
 30
0.0
 10
98.280581
 20
180.150630
 30
0.0
  0
SPLINE
  5
1fc
100
AcDbEntity
  8
Layer_1
 62
7
100
AcDbSpline
 70
8
 71
3
 72
8
 73
4
 74
0
 40
0
 40
0
 40
0
 40
0
 40
1
 40
1
 40
1
 40
1
 10
98.280581
 20
180.150630
 30
0.0
 10
98.136270
 20
179.976728
 30
0.0
 10
98.069849
 20
179.390363
 30
0.0
 10
98.133408
 20
178.847557
 30
0.0
  0
SPLINE
  5
1fd
100
AcDbEntity
  8
Layer_1
 62
7
100
AcDbSpline
 70
8
 71
3
 72
8
 73
4
 74
0
 40
0
 40
0
 40
0
 40
0
 40
1
 40
1
 40
1
 40
1
 10
98.133408
 20
178.847557
 30
0.0
 10
98.221690
 20
178.093617
 30
0.0
 10
98.430867
 20
171.814144
 30
0.0
 10
98.561150
 20
166.007549
 30
0.0
  0
SPLINE
  5
1fe
100
AcDbEntity
  8
Layer_1
 62
7
100
AcDbSpline
 70
8
 71
3
 72
8
 73
4
 74
0
 40
0
 40
0
 40
0
 40
0
 40
1
 40
1
 40
1
 40
1
 10
98.561150
 20
166.007549
 30
0.0
 10
98.564632
 20
165.852327
 30
0.0
 10
98.519485
 20
164.607151
 30
0.0
 10
98.460828
 20
163.240998
 30
0.0
  0
SPLINE
  5
1ff
100
AcDbEntity
  8
Layer_1
 62
7
100
AcDbSpline
 70
8
 71
3
 72
8
 73
4
 74
0
 40
0
 40
0
 40
0
 40
0
 40
1
 40
1
 40
1
 40
1
 10
98.460828
 20
163.240998
 30
0.0
 10
98.402171
 20
161.874845
 30
0.0
 10
98.467141
 20
160.687683
 30
0.0
 10
98.605247
 20
160.602330
 30
0.0
  0
SPLINE
  5
200
100
AcDbEntity
  8
Layer_1
 62
7
100
AcDbSpline
 70
8
 71
3
 72
8
 73
4
 74
0
 40
0
 40
0
 40
0
 40
0
 40
1
 40
1
 40
1
 40
1
 10
98.605247
 20
160.602330
 30
0.0
 10
98.743349
 20
160.516975
 30
0.0
 10
98.769884
 20
160.237600
 30
0.0
 10
98.663675
 20
159.981661
 30
0.0
  0
SPLINE
  5
201
100
AcDbEntity
  8
Layer_1
 62
7
100
AcDbSpline
 70
8
 71
3
 72
8
 73
4
 74
0
 40
0
 40
0
 40
0
 40
0
 40
1
 40
1
 40
1
 40
1
 10
98.663675
 20
159.981661
 30
0.0
 10
98.389367
 20
159.320626
 30
0.0
 10
98.577854
 20
154.446479
 30
0.0
 10
98.972356
 20
152.003925
 30
0.0
  0
SPLINE
  5
202
100
AcDbEntity
  8
Layer_1
 62
7
100
AcDbSpline
 70
8
 71
3
 72
8
 73
4
 74
0
 40
0
 40
0
 40
0
 40
0
 40
1
 40
1
 40
1
 40
1
 10
98.972356
 20
152.003925
 30
0.0
 10
99.099576
 20
151.216254
 30
0.0
 10
99.031933
 20
150.942792
 30
0.0
 10
98.675802
 20
150.806132
 30
0.0
  0
SPLINE
  5
203
100
AcDbEntity
  8
Layer_1
 62
7
100
AcDbSpline
 70
8
 71
3
 72
8
 73
4
 74
0
 40
0
 40
0
 40
0
 40
0
 40
1
 40
1
 40
1
 40
1
 10
98.675802
 20
150.806132
 30
0.0
 10
98.270543
 20
150.650619
 30
0.0
 10
98.233806
 20
150.206384
 30
0.0
 10
98.376492
 20
147.170316
 30
0.0
  0
SPLINE
  5
204
100
AcDbEntity
  8
Layer_1
 62
7
100
AcDbSpline
 70
8
 71
3
 72
8
 73
4
 74
0
 40
0
 40
0
 40
0
 40
0
 40
1
 40
1
 40
1
 40
1
 10
98.376492
 20
147.170316
 30
0.0
 10
98.465894
 20
145.268153
 30
0.0
 10
98.583826
 20
143.330993
 30
0.0
 10
98.638320
 20
142.865327
 30
0.0
  0
SPLINE
  5
205
100
AcDbEntity
  8
Layer_1
 62
7
100
AcDbSpline
 70
8
 71
3
 72
8
 73
4
 74
0
 40
0
 40
0
 40
0
 40
0
 40
1
 40
1
 40
1
 40
1
 10
98.638320
 20
142.865327
 30
0.0
 10
98.692815
 20
142.399660
 30
0.0
 10
98.833646
 20
140.911635
 30
0.0
 10
98.951409
 20
139.558585
 30
0.0
  0
SPLINE
  5
206
100
AcDbEntity
  8
Layer_1
 62
7
100
AcDbSpline
 70
8
 71
3
 72
8
 73
4
 74
0
 40
0
 40
0
 40
0
 40
0
 40
1
 40
1
 40
1
 40
1
 10
98.951409
 20
139.558585
 30
0.0
 10
99.167501
 20
137.075851
 30
0.0
 10
99.589181
 20
135.978822
 30
0.0
 10
100.186132
 20
136.347757
 30
0.0
  0
SPLINE
  5
207
100
AcDbEntity
  8
Layer_1
 62
7
100
AcDbSpline
 70
8
 71
3
 72
8
 73
4
 74
0
 40
0
 40
0
 40
0
 40
0
 40
1
 40
1
 40
1
 40
1
 10
100.186132
 20
136.347757
 30
0.0
 10
100.364900
 20
136.458244
 30
0.0
 10
100.511350
 20
136.795023
 30
0.0
 10
100.511350
 20
137.096307
 30
0.0
  0
SPLINE
  5
208
100
AcDbEntity
  8
Layer_1
 62
7
100
AcDbSpline
 70
8
 71
3
 72
8
 73
4
 74
0
 40
0
 40
0
 40
0
 40
0
 40
1
 40
1
 40
1
 40
1
 10
100.511350
 20
137.096307
 30
0.0
 10
100.511350
 20
137.397590
 30
0.0
 10
100.638350
 20
137.644216
 30
0.0
 10
100.793573
 20
137.644216
 30
0.0
  0
SPLINE
  5
209
100
AcDbEntity
  8
Layer_1
 62
7
100
AcDbSpline
 70
8
 71
3
 72
8
 73
4
 74
0
 40
0
 40
0
 40
0
 40
0
 40
1
 40
1
 40
1
 40
1
 10
100.793573
 20
137.644216
 30
0.0
 10
100.948795
 20
137.644216
 30
0.0
 10
101.075795
 20
137.101378
 30
0.0
 10
101.075795
 20
136.438156
 30
0.0
  0
SPLINE
  5
20a
100
AcDbEntity
  8
Layer_1
 62
7
100
AcDbSpline
 70
8
 71
3
 72
8
 73
4
 74
0
 40
0
 40
0
 40
0
 40
0
 40
1
 40
1
 40
1
 40
1
 10
101.075795
 20
136.438156
 30
0.0
 10
101.075795
 20
135.232796
 30
0.0
 10
101.075284
 20
135.232164
 30
0.0
 10
100.017461
 20
135.232096
 30
0.0
  0
SPLINE
  5
20b
100
AcDbEntity
  8
Layer_1
 62
7
100
AcDbSpline
 70
8
 71
3
 72
8
 73
4
 74
0
 40
0
 40
0
 40
0
 40
0
 40
1
 40
1
 40
1
 40
1
 10
100.017461
 20
135.232096
 30
0.0
 10
99.027883
 20
135.232037
 30
0.0
 10
98.959128
 20
135.287657
 30
0.0
 10
98.959128
 20
136.085378
 30
0.0
  0
SPLINE
  5
20c
100
AcDbEntity
  8
Layer_1
 62
7
100
AcDbSpline
 70
8
 71
3
 72
8
 73
4
 74
0
 40
0
 40
0
 40
0
 40
0
 40
1
 40
1
 40
1
 40
1
 10
98.959128
 20
136.085378
 30
0.0
 10
98.959128
 20
136.876803
 30
0.0
 10
98.877995
 20
136.945202
 30
0.0
 10
97.834097
 20
137.030159
 30
0.0
  0
SPLINE
  5
20d
100
AcDbEntity
  8
Layer_1
 62
7
100
AcDbSpline
 70
8
 71
3
 72
8
 73
4
 74
0
 40
0
 40
0
 40
0
 40
0
 40
1
 40
1
 40
1
 40
1
 10
97.834097
 20
137.030159
 30
0.0
 10
97.215175
 20
137.080533
 30
0.0
 10
96.580175
 20
137.227165
 30
0.0
 10
96.422986
 20
137.356479
 30
0.0
  0
SPLINE
  5
20e
100
AcDbEntity
  8
Layer_1
 62
7
100
AcDbSpline
 70
8
 71
3
 72
8
 73
4
 74
0
 40
0
 40
0
 40
0
 40
0
 40
1
 40
1
 40
1
 40
1
 10
96.422986
 20
137.356479
 30
0.0
 10
96.265797
 20
137.485793
 30
0.0
 10
95.380948
 20
137.730943
 30
0.0
 10
94.456800
 20
137.901080
 30
0.0
  0
SPLINE
  5
20f
100
AcDbEntity
  8
Layer_1
 62
7
100
AcDbSpline
 70
8
 71
3
 72
8
 73
4
 74
0
 40
0
 40
0
 40
0
 40
0
 40
1
 40
1
 40
1
 40
1
 10
94.456800
 20
137.901080
 30
0.0
 10
93.532655
 20
138.071221
 30
0.0
 10
92.649675
 20
138.337334
 30
0.0
 10
92.495026
 20
138.491983
 30
0.0
  0
SPLINE
  5
210
100
AcDbEntity
  8
Layer_1
 62
7
100
AcDbSpline
 70
8
 71
3
 72
8
 73
4
 74
0
 40
0
 40
0
 40
0
 40
0
 40
1
 40
1
 40
1
 40
1
 10
92.495026
 20
138.491983
 30
0.0
 10
92.340379
 20
138.646629
 30
0.0
 10
91.953887
 20
138.775752
 30
0.0
 10
91.635682
 20
138.779167
 30
0.0
  0
SPLINE
  5
211
100
AcDbEntity
  8
Layer_1
 62
7
100
AcDbSpline
 70
8
 71
3
 72
8
 73
4
 74
0
 40
0
 40
0
 40
0
 40
0
 40
1
 40
1
 40
1
 40
1
 10
91.635682
 20
138.779167
 30
0.0
 10
90.667476
 20
138.789541
 30
0.0
 10
88.895261
 20
139.748685
 30
0.0
 10
86.964684
 20
141.307040
 30
0.0
  0
SPLINE
  5
212
100
AcDbEntity
  8
Layer_1
 62
7
100
AcDbSpline
 70
8
 71
3
 72
8
 73
4
 74
0
 40
0
 40
0
 40
0
 40
0
 40
1
 40
1
 40
1
 40
1
 10
86.964684
 20
141.307040
 30
0.0
 10
85.955739
 20
142.121457
 30
0.0
 10
84.463489
 20
143.083710
 30
0.0
 10
83.648573
 20
143.445756
 30
0.0
  0
SPLINE
  5
213
100
AcDbEntity
  8
Layer_1
 62
7
100
AcDbSpline
 70
8
 71
3
 72
8
 73
4
 74
0
 40
0
 40
0
 40
0
 40
0
 40
1
 40
1
 40
1
 40
1
 10
83.648573
 20
143.445756
 30
0.0
 10
82.833656
 20
143.807802
 30
0.0
 10
82.165560
 20
144.269552
 30
0.0
 10
82.164149
 20
144.472119
 30
0.0
  0
SPLINE
  5
214
100
AcDbEntity
  8
Layer_1
 62
7
100
AcDbSpline
 70
8
 71
3
 72
8
 73
4
 74
0
 40
0
 40
0
 40
0
 40
0
 40
1
 40
1
 40
1
 40
1
 10
82.164149
 20
144.472119
 30
0.0
 10
82.162656
 20
144.674687
 30
0.0
 10
81.495906
 20
145.726030
 30
0.0
 10
80.682482
 20
146.808169
 30
0.0
  0
SPLINE
  5
215
100
AcDbEntity
  8
Layer_1
 62
7
100
AcDbSpline
 70
8
 71
3
 72
8
 73
4
 74
0
 40
0
 40
0
 40
0
 40
0
 40
1
 40
1
 40
1
 40
1
 10
80.682482
 20
146.808169
 30
0.0
 10
79.869055
 20
147.890308
 30
0.0
 10
78.801378
 20
149.657273
 30
0.0
 10
78.309501
 20
150.734475
 30
0.0
  0
SPLINE
  5
216
100
AcDbEntity
  8
Layer_1
 62
7
100
AcDbSpline
 70
8
 71
3
 72
8
 73
4
 74
0
 40
0
 40
0
 40
0
 40
0
 40
1
 40
1
 40
1
 40
1
 10
78.309501
 20
150.734475
 30
0.0
 10
77.817624
 20
151.811678
 30
0.0
 10
77.072038
 20
153.083673
 30
0.0
 10
76.653099
 20
153.561106
 30
0.0
  0
SPLINE
  5
217
100
AcDbEntity
  8
Layer_1
 62
7
100
AcDbSpline
 70
8
 71
3
 72
8
 73
4
 74
0
 40
0
 40
0
 40
0
 40
0
 40
1
 40
1
 40
1
 40
1
 10
76.653099
 20
153.561106
 30
0.0
 10
76.054808
 20
154.242929
 30
0.0
 10
75.874203
 20
154.766302
 30
0.0
 10
75.810841
 20
156.000784
 30
0.0
  0
SPLINE
  5
218
100
AcDbEntity
  8
Layer_1
 62
7
100
AcDbSpline
 70
8
 71
3
 72
8
 73
4
 74
0
 40
0
 40
0
 40
0
 40
0
 40
1
 40
1
 40
1
 40
1
 10
75.810841
 20
156.000784
 30
0.0
 10
75.766473
 20
156.865203
 30
0.0
 10
75.528780
 20
158.249847
 30
0.0
 10
75.282778
 20
159.078220
 30
0.0
  0
SPLINE
  5
219
100
AcDbEntity
  8
Layer_1
 62
7
100
AcDbSpline
 70
8
 71
3
 72
8
 73
4
 74
0
 40
0
 40
0
 40
0
 40
0
 40
1
 40
1
 40
1
 40
1
 10
75.282778
 20
159.078220
 30
0.0
 10
74.902833
 20
160.357635
 30
0.0
 10
74.880188
 20
161.099064
 30
0.0
 10
75.131193
 20
164.001674
 30
0.0
  0
SPLINE
  5
21a
100
AcDbEntity
  8
Layer_1
 62
7
100
AcDbSpline
 70
8
 71
3
 72
8
 73
4
 74
0
 40
0
 40
0
 40
0
 40
0
 40
1
 40
1
 40
1
 40
1
 10
75.131193
 20
164.001674
 30
0.0
 10
75.293711
 20
165.880998
 30
0.0
 10
75.546190
 20
167.539087
 30
0.0
 10
75.692330
 20
167.686548
 30
0.0
  0
SPLINE
  5
21b
100
AcDbEntity
  8
Layer_1
 62
7
100
AcDbSpline
 70
8
 71
3
 72
8
 73
4
 74
0
 40
0
 40
0
 40
0
 40
0
 40
1
 40
1
 40
1
 40
1
 10
75.692330
 20
167.686548
 30
0.0
 10
75.838468
 20
167.834009
 30
0.0
 10
75.958017
 20
168.291531
 30
0.0
 10
75.958017
 20
168.702991
 30
0.0
  0
SPLINE
  5
21c
100
AcDbEntity
  8
Layer_1
 62
7
100
AcDbSpline
 70
8
 71
3
 72
8
 73
4
 74
0
 40
0
 40
0
 40
0
 40
0
 40
1
 40
1
 40
1
 40
1
 10
75.958017
 20
168.702991
 30
0.0
 10
75.958017
 20
170.378525
 30
0.0
 10
78.195884
 20
175.217459
 30
0.0
 10
79.801641
 20
177.014216
 30
0.0
  0
SPLINE
  5
21d
100
AcDbEntity
  8
Layer_1
 62
7
100
AcDbSpline
 70
8
 71
3
 72
8
 73
4
 74
0
 40
0
 40
0
 40
0
 40
0
 40
1
 40
1
 40
1
 40
1
 10
79.801641
 20
177.014216
 30
0.0
 10
80.356527
 20
177.635105
 30
0.0
 10
80.996257
 20
178.569246
 30
0.0
 10
81.223225
 20
179.090643
 30
0.0
  0
SPLINE
  5
21e
100
AcDbEntity
  8
Layer_1
 62
7
100
AcDbSpline
 70
8
 71
3
 72
8
 73
4
 74
0
 40
0
 40
0
 40
0
 40
0
 40
1
 40
1
 40
1
 40
1
 10
81.223225
 20
179.090643
 30
0.0
 10
81.450194
 20
179.612043
 30
0.0
 10
81.875438
 20
180.101682
 30
0.0
 10
82.168007
 20
180.178189
 30
0.0
  0
SPLINE
  5
21f
100
AcDbEntity
  8
Layer_1
 62
7
100
AcDbSpline
 70
8
 71
3
 72
8
 73
4
 74
0
 40
0
 40
0
 40
0
 40
0
 40
1
 40
1
 40
1
 40
1
 10
82.168007
 20
180.178189
 30
0.0
 10
82.460572
 20
180.254697
 30
0.0
 10
82.738392
 20
180.581163
 30
0.0
 10
82.785921
 20
180.904141
 30
0.0
  0
SPLINE
  5
220
100
AcDbEntity
  8
Layer_1
 62
7
100
AcDbSpline
 70
8
 71
3
 72
8
 73
4
 74
0
 40
0
 40
0
 40
0
 40
0
 40
1
 40
1
 40
1
 40
1
 10
82.785921
 20
180.904141
 30
0.0
 10
82.838332
 20
181.260303
 30
0.0
 10
83.162490
 20
181.568676
 30
0.0
 10
83.609437
 20
181.687418
 30
0.0
  0
SPLINE
  5
221
100
AcDbEntity
  8
Layer_1
 62
7
100
AcDbSpline
 70
8
 71
3
 72
8
 73
4
 74
0
 40
0
 40
0
 40
0
 40
0
 40
1
 40
1
 40
1
 40
1
 10
83.609437
 20
181.687418
 30
0.0
 10
84.014739
 20
181.795094
 30
0.0
 10
85.094239
 20
182.470234
 30
0.0
 10
86.008326
 20
183.187827
 30
0.0
  0
SPLINE
  5
222
100
AcDbEntity
  8
Layer_1
 62
7
100
AcDbSpline
 70
8
 71
3
 72
8
 73
4
 74
0
 40
0
 40
0
 40
0
 40
0
 40
1
 40
1
 40
1
 40
1
 10
86.008326
 20
183.187827
 30
0.0
 10
86.922410
 20
183.905416
 30
0.0
 10
87.811745
 20
184.492455
 30
0.0
 10
87.984432
 20
184.492551
 30
0.0
  0
SPLINE
  5
223
100
AcDbEntity
  8
Layer_1
 62
7
100
AcDbSpline
 70
8
 71
3
 72
8
 73
4
 74
0
 40
0
 40
0
 40
0
 40
0
 40
1
 40
1
 40
1
 40
1
 10
87.984432
 20
184.492551
 30
0.0
 10
88.157115
 20
184.492650
 30
0.0
 10
88.764432
 20
184.863699
 30
0.0
 10
89.334357
 20
185.316618
 30
0.0
  0
SPLINE
  5
224
100
AcDbEntity
  8
Layer_1
 62
7
100
AcDbSpline
 70
8
 71
3
 72
8
 73
4
 74
0
 40
0
 40
0
 40
0
 40
0
 40
1
 40
1
 40
1
 40
1
 10
89.334357
 20
185.316618
 30
0.0
 10
89.904279
 20
185.769536
 30
0.0
 10
90.906323
 20
186.227459
 30
0.0
 10
91.560715
 20
186.334715
 30
0.0
  0
SPLINE
  5
225
100
AcDbEntity
  8
Layer_1
 62
7
100
AcDbSpline
 70
8
 71
3
 72
8
 73
4
 74
0
 40
0
 40
0
 40
0
 40
0
 40
1
 40
1
 40
1
 40
1
 10
91.560715
 20
186.334715
 30
0.0
 10
92.215106
 20
186.441973
 30
0.0
 10
92.940739
 20
186.689242
 30
0.0
 10
93.173573
 20
186.884275
 30
0.0
  0
SPLINE
  5
226
100
AcDbEntity
  8
Layer_1
 62
7
100
AcDbSpline
 70
8
 71
3
 72
8
 73
4
 74
0
 40
0
 40
0
 40
0
 40
0
 40
1
 40
1
 40
1
 40
1
 10
93.173573
 20
186.884275
 30
0.0
 10
93.568901
 20
187.215417
 30
0.0
 10
95.521058
 20
187.620945
 30
0.0
 10
97.115864
 20
187.702829
 30
0.0
  0
LWPOLYLINE
  5
227
100
AcDbEntity
  8
Layer_1
 62
7
100
AcDbPolyline
 90
2
 70
0
 10
97.812600
 20
187.738660
 30
0.0
 10
97.726610
 20
184.477119
 30
0.0
  0
SPLINE
  5
228
100
AcDbEntity
  8
Layer_1
 62
7
100
AcDbSpline
 70
8
 71
3
 72
8
 73
4
 74
0
 40
0
 40
0
 40
0
 40
0
 40
1
 40
1
 40
1
 40
1
 10
99.585309
 20
182.707716
 30
0.0
 10
99.787318
 20
182.686267
 30
0.0
 10
99.861446
 20
182.391782
 30
0.0
 10
99.742405
 20
181.936566
 30
0.0
  0
SPLINE
  5
229
100
AcDbEntity
  8
Layer_1
 62
7
100
AcDbSpline
 70
8
 71
3
 72
8
 73
4
 74
0
 40
0
 40
0
 40
0
 40
0
 40
1
 40
1
 40
1
 40
1
 10
99.742405
 20
181.936566
 30
0.0
 10
99.663572
 20
181.635108
 30
0.0
 10
99.486506
 20
181.388107
 30
0.0
 10
99.349388
 20
181.388107
 30
0.0
  0
SPLINE
  5
22a
100
AcDbEntity
  8
Layer_1
 62
7
100
AcDbSpline
 70
8
 71
3
 72
8
 73
4
 74
0
 40
0
 40
0
 40
0
 40
0
 40
1
 40
1
 40
1
 40
1
 10
99.349388
 20
181.388107
 30
0.0
 10
99.028589
 20
181.388107
 30
0.0
 10
99.023565
 20
182.436229
 30
0.0
 10
99.343326
 20
182.633853
 30
0.0
  0
SPLINE
  5
22b
100
AcDbEntity
  8
Layer_1
 62
7
100
AcDbSpline
 70
8
 71
3
 72
8
 73
4
 74
0
 40
0
 40
0
 40
0
 40
0
 40
1
 40
1
 40
1
 40
1
 10
99.343326
 20
182.633853
 30
0.0
 10
99.436775
 20
182.691610
 30
0.0
 10
99.517970
 20
182.714867
 30
0.0
 10
99.585309
 20
182.707716
 30
0.0
  0
LWPOLYLINE
  5
22c
100
AcDbEntity
  8
Layer_1
 62
7
100
AcDbPolyline
 90
3
 70
0
 10
97.115864
 20
187.702829
 30
0.0
 10
97.812600
 20
187.738660
 30
0.0
 10
97.812600
 20
187.738660
 30
0.0
  0
SPLINE
  5
22d
100
AcDbEntity
  8
Layer_1
 62
7
100
AcDbSpline
 70
8
 71
3
 72
8
 73
4
 74
0
 40
0
 40
0
 40
0
 40
0
 40
1
 40
1
 40
1
 40
1
 10
69.187438
 20
161.821067
 30
0.0
 10
69.308627
 20
161.818290
 30
0.0
 10
69.340976
 20
161.414123
 30
0.0
 10
69.363277
 20
160.365859
 30
0.0
  0
SPLINE
  5
22e
100
AcDbEntity
  8
Layer_1
 62
7
100
AcDbSpline
 70
8
 71
3
 72
8
 73
4
 74
0
 40
0
 40
0
 40
0
 40
0
 40
1
 40
1
 40
1
 40
1
 10
69.363277
 20
160.365859
 30
0.0
 10
69.384751
 20
159.356570
 30
0.0
 10
69.580393
 20
158.322917
 30
0.0
 10
69.823542
 20
157.934450
 30
0.0
  0
SPLINE
  5
22f
100
AcDbEntity
  8
Layer_1
 62
7
100
AcDbSpline
 70
8
 71
3
 72
8
 73
4
 74
0
 40
0
 40
0
 40
0
 40
0
 40
1
 40
1
 40
1
 40
1
 10
69.823542
 20
157.934450
 30
0.0
 10
70.418771
 20
156.983482
 30
0.0
 10
70.683797
 20
155.706438
 30
0.0
 10
70.286011
 20
155.706438
 30
0.0
  0
SPLINE
  5
230
100
AcDbEntity
  8
Layer_1
 62
7
100
AcDbSpline
 70
8
 71
3
 72
8
 73
4
 74
0
 40
0
 40
0
 40
0
 40
0
 40
1
 40
1
 40
1
 40
1
 10
70.286011
 20
155.706438
 30
0.0
 10
70.083926
 20
155.706438
 30
0.0
 10
70.037791
 20
155.471807
 30
0.0
 10
70.160885
 20
155.071438
 30
0.0
  0
SPLINE
  5
231
100
AcDbEntity
  8
Layer_1
 62
7
100
AcDbSpline
 70
8
 71
3
 72
8
 73
4
 74
0
 40
0
 40
0
 40
0
 40
0
 40
1
 40
1
 40
1
 40
1
 10
70.160885
 20
155.071438
 30
0.0
 10
70.268265
 20
154.722188
 30
0.0
 10
70.515299
 20
153.737938
 30
0.0
 10
70.709897
 20
152.884216
 30
0.0
  0
SPLINE
  5
232
100
AcDbEntity
  8
Layer_1
 62
7
100
AcDbSpline
 70
8
 71
3
 72
8
 73
4
 74
0
 40
0
 40
0
 40
0
 40
0
 40
1
 40
1
 40
1
 40
1
 10
70.709897
 20
152.884216
 30
0.0
 10
70.904495
 20
152.030493
 30
0.0
 10
71.203436
 20
151.077993
 30
0.0
 10
71.374110
 20
150.767549
 30
0.0
  0
SPLINE
  5
233
100
AcDbEntity
  8
Layer_1
 62
7
100
AcDbSpline
 70
8
 71
3
 72
8
 73
4
 74
0
 40
0
 40
0
 40
0
 40
0
 40
1
 40
1
 40
1
 40
1
 10
71.374110
 20
150.767549
 30
0.0
 10
72.001944
 20
149.625559
 30
0.0
 10
72.853573
 20
147.615880
 30
0.0
 10
72.853573
 20
147.276703
 30
0.0
  0
SPLINE
  5
234
100
AcDbEntity
  8
Layer_1
 62
7
100
AcDbSpline
 70
8
 71
3
 72
8
 73
4
 74
0
 40
0
 40
0
 40
0
 40
0
 40
1
 40
1
 40
1
 40
1
 10
72.853573
 20
147.276703
 30
0.0
 10
72.853573
 20
147.084639
 30
0.0
 10
73.171073
 20
146.460369
 30
0.0
 10
73.559128
 20
145.889293
 30
0.0
  0
SPLINE
  5
235
100
AcDbEntity
  8
Layer_1
 62
7
100
AcDbSpline
 70
8
 71
3
 72
8
 73
4
 74
0
 40
0
 40
0
 40
0
 40
0
 40
1
 40
1
 40
1
 40
1
 10
73.559128
 20
145.889293
 30
0.0
 10
73.947184
 20
145.318219
 30
0.0
 10
74.264684
 20
144.692902
 30
0.0
 10
74.264684
 20
144.499678
 30
0.0
  0
SPLINE
  5
236
100
AcDbEntity
  8
Layer_1
 62
7
100
AcDbSpline
 70
8
 71
3
 72
8
 73
4
 74
0
 40
0
 40
0
 40
0
 40
0
 40
1
 40
1
 40
1
 40
1
 10
74.264684
 20
144.499678
 30
0.0
 10
74.264684
 20
144.306455
 30
0.0
 10
74.572851
 20
143.946520
 30
0.0
 10
74.949293
 20
143.699866
 30
0.0
  0
SPLINE
  5
237
100
AcDbEntity
  8
Layer_1
 62
7
100
AcDbSpline
 70
8
 71
3
 72
8
 73
4
 74
0
 40
0
 40
0
 40
0
 40
0
 40
1
 40
1
 40
1
 40
1
 10
74.949293
 20
143.699866
 30
0.0
 10
75.325732
 20
143.453213
 30
0.0
 10
75.757930
 20
142.895556
 30
0.0
 10
75.909509
 20
142.460733
 30
0.0
  0
SPLINE
  5
238
100
AcDbEntity
  8
Layer_1
 62
7
100
AcDbSpline
 70
8
 71
3
 72
8
 73
4
 74
0
 40
0
 40
0
 40
0
 40
0
 40
1
 40
1
 40
1
 40
1
 10
75.909509
 20
142.460733
 30
0.0
 10
76.061090
 20
142.025908
 30
0.0
 10
76.768923
 20
141.250767
 30
0.0
 10
77.482677
 20
140.738187
 30
0.0
  0
SPLINE
  5
239
100
AcDbEntity
  8
Layer_1
 62
7
100
AcDbSpline
 70
8
 71
3
 72
8
 73
4
 74
0
 40
0
 40
0
 40
0
 40
0
 40
1
 40
1
 40
1
 40
1
 10
77.482677
 20
140.738187
 30
0.0
 10
78.196434
 20
140.225606
 30
0.0
 10
78.780239
 20
139.719596
 30
0.0
 10
78.780239
 20
139.613706
 30
0.0
  0
SPLINE
  5
23a
100
AcDbEntity
  8
Layer_1
 62
7
100
AcDbSpline
 70
8
 71
3
 72
8
 73
4
 74
0
 40
0
 40
0
 40
0
 40
0
 40
1
 40
1
 40
1
 40
1
 10
78.780239
 20
139.613706
 30
0.0
 10
78.780239
 20
139.120591
 30
0.0
 10
82.696654
 20
135.668660
 30
0.0
 10
83.256106
 20
135.668660
 30
0.0
  0
SPLINE
  5
23b
100
AcDbEntity
  8
Layer_1
 62
7
100
AcDbSpline
 70
8
 71
3
 72
8
 73
4
 74
0
 40
0
 40
0
 40
0
 40
0
 40
1
 40
1
 40
1
 40
1
 10
83.256106
 20
135.668660
 30
0.0
 10
83.414850
 20
135.668660
 30
0.0
 10
83.622871
 20
135.541844
 30
0.0
 10
83.718575
 20
135.386988
 30
0.0
  0
SPLINE
  5
23c
100
AcDbEntity
  8
Layer_1
 62
7
100
AcDbSpline
 70
8
 71
3
 72
8
 73
4
 74
0
 40
0
 40
0
 40
0
 40
0
 40
1
 40
1
 40
1
 40
1
 10
83.718575
 20
135.386988
 30
0.0
 10
83.865714
 20
135.148920
 30
0.0
 10
71.142945
 20
134.965430
 30
0.0
 10
63.492284
 20
135.095396
 30
0.0
  0
SPLINE
  5
23d
100
AcDbEntity
  8
Layer_1
 62
7
100
AcDbSpline
 70
8
 71
3
 72
8
 73
4
 74
0
 40
0
 40
0
 40
0
 40
0
 40
1
 40
1
 40
1
 40
1
 10
63.492284
 20
135.095396
 30
0.0
 10
62.612089
 20
135.110348
 30
0.0
 10
61.810962
 20
134.991719
 30
0.0
 10
61.711857
 20
134.831363
 30
0.0
  0
SPLINE
  5
23e
100
AcDbEntity
  8
Layer_1
 62
7
100
AcDbSpline
 70
8
 71
3
 72
8
 73
4
 74
0
 40
0
 40
0
 40
0
 40
0
 40
1
 40
1
 40
1
 40
1
 10
61.711857
 20
134.831363
 30
0.0
 10
61.477446
 20
134.452079
 30
0.0
 10
60.865458
 20
134.487538
 30
0.0
 10
59.314072
 20
134.970820
 30
0.0
  0
SPLINE
  5
23f
100
AcDbEntity
  8
Layer_1
 62
7
100
AcDbSpline
 70
8
 71
3
 72
8
 73
4
 74
0
 40
0
 40
0
 40
0
 40
0
 40
1
 40
1
 40
1
 40
1
 10
59.314072
 20
134.970820
 30
0.0
 10
58.567117
 20
135.203510
 30
0.0
 10
57.385269
 20
135.312561
 30
0.0
 10
56.421294
 20
135.237608
 30
0.0
  0
SPLINE
  5
240
100
AcDbEntity
  8
Layer_1
 62
7
100
AcDbSpline
 70
8
 71
3
 72
8
 73
4
 74
0
 40
0
 40
0
 40
0
 40
0
 40
1
 40
1
 40
1
 40
1
 10
56.421294
 20
135.237608
 30
0.0
 10
54.859665
 20
135.116185
 30
0.0
 10
54.791350
 20
135.138856
 30
0.0
 10
54.791350
 20
135.778902
 30
0.0
  0
SPLINE
  5
241
100
AcDbEntity
  8
Layer_1
 62
7
100
AcDbSpline
 70
8
 71
3
 72
8
 73
4
 74
0
 40
0
 40
0
 40
0
 40
0
 40
1
 40
1
 40
1
 40
1
 10
54.791350
 20
135.778902
 30
0.0
 10
54.791350
 20
136.535506
 30
0.0
 10
56.557937
 20
139.621433
 30
0.0
 10
57.195201
 20
139.978061
 30
0.0
  0
SPLINE
  5
242
100
AcDbEntity
  8
Layer_1
 62
7
100
AcDbSpline
 70
8
 71
3
 72
8
 73
4
 74
0
 40
0
 40
0
 40
0
 40
0
 40
1
 40
1
 40
1
 40
1
 10
57.195201
 20
139.978061
 30
0.0
 10
57.437449
 20
140.113632
 30
0.0
 10
57.613573
 20
140.617325
 30
0.0
 10
57.613573
 20
141.174748
 30
0.0
  0
SPLINE
  5
243
100
AcDbEntity
  8
Layer_1
 62
7
100
AcDbSpline
 70
8
 71
3
 72
8
 73
4
 74
0
 40
0
 40
0
 40
0
 40
0
 40
1
 40
1
 40
1
 40
1
 10
57.613573
 20
141.174748
 30
0.0
 10
57.613573
 20
141.923644
 30
0.0
 10
57.864417
 20
142.386274
 30
0.0
 10
58.742461
 20
143.255586
 30
0.0
  0
SPLINE
  5
244
100
AcDbEntity
  8
Layer_1
 62
7
100
AcDbSpline
 70
8
 71
3
 72
8
 73
4
 74
0
 40
0
 40
0
 40
0
 40
0
 40
1
 40
1
 40
1
 40
1
 10
58.742461
 20
143.255586
 30
0.0
 10
59.363350
 20
143.870300
 30
0.0
 10
59.871350
 20
144.512045
 30
0.0
 10
59.871350
 20
144.682132
 30
0.0
  0
SPLINE
  5
245
100
AcDbEntity
  8
Layer_1
 62
7
100
AcDbSpline
 70
8
 71
3
 72
8
 73
4
 74
0
 40
0
 40
0
 40
0
 40
0
 40
1
 40
1
 40
1
 40
1
 10
59.871350
 20
144.682132
 30
0.0
 10
59.871350
 20
144.852219
 30
0.0
 10
60.506350
 20
146.118214
 30
0.0
 10
61.282461
 20
147.494982
 30
0.0
  0
SPLINE
  5
246
100
AcDbEntity
  8
Layer_1
 62
7
100
AcDbSpline
 70
8
 71
3
 72
8
 73
4
 74
0
 40
0
 40
0
 40
0
 40
0
 40
1
 40
1
 40
1
 40
1
 10
61.282461
 20
147.494982
 30
0.0
 10
62.058573
 20
148.871749
 30
0.0
 10
62.693573
 20
150.182943
 30
0.0
 10
62.693573
 20
150.409257
 30
0.0
  0
SPLINE
  5
247
100
AcDbEntity
  8
Layer_1
 62
7
100
AcDbSpline
 70
8
 71
3
 72
8
 73
4
 74
0
 40
0
 40
0
 40
0
 40
0
 40
1
 40
1
 40
1
 40
1
 10
62.693573
 20
150.409257
 30
0.0
 10
62.693573
 20
150.635573
 30
0.0
 10
62.947573
 20
151.051044
 30
0.0
 10
63.258017
 20
151.331993
 30
0.0
  0
SPLINE
  5
248
100
AcDbEntity
  8
Layer_1
 62
7
100
AcDbSpline
 70
8
 71
3
 72
8
 73
4
 74
0
 40
0
 40
0
 40
0
 40
0
 40
1
 40
1
 40
1
 40
1
 10
63.258017
 20
151.331993
 30
0.0
 10
63.568461
 20
151.612943
 30
0.0
 10
63.822461
 20
152.007360
 30
0.0
 10
63.822461
 20
152.208423
 30
0.0
  0
SPLINE
  5
249
100
AcDbEntity
  8
Layer_1
 62
7
100
AcDbSpline
 70
8
 71
3
 72
8
 73
4
 74
0
 40
0
 40
0
 40
0
 40
0
 40
1
 40
1
 40
1
 40
1
 10
63.822461
 20
152.208423
 30
0.0
 10
63.822461
 20
152.409484
 30
0.0
 10
63.991764
 20
152.675196
 30
0.0
 10
64.198390
 20
152.799326
 30
0.0
  0
SPLINE
  5
24a
100
AcDbEntity
  8
Layer_1
 62
7
100
AcDbSpline
 70
8
 71
3
 72
8
 73
4
 74
0
 40
0
 40
0
 40
0
 40
0
 40
1
 40
1
 40
1
 40
1
 10
64.198390
 20
152.799326
 30
0.0
 10
64.405016
 20
152.923456
 30
0.0
 10
64.764505
 20
153.406327
 30
0.0
 10
64.997652
 20
153.871993
 30
0.0
  0
SPLINE
  5
24b
100
AcDbEntity
  8
Layer_1
 62
7
100
AcDbSpline
 70
8
 71
3
 72
8
 73
4
 74
0
 40
0
 40
0
 40
0
 40
0
 40
1
 40
1
 40
1
 40
1
 10
64.997652
 20
153.871993
 30
0.0
 10
65.230796
 20
154.337660
 30
0.0
 10
65.995358
 20
155.747117
 30
0.0
 10
66.696497
 20
157.004547
 30
0.0
  0
SPLINE
  5
24c
100
AcDbEntity
  8
Layer_1
 62
7
100
AcDbSpline
 70
8
 71
3
 72
8
 73
4
 74
0
 40
0
 40
0
 40
0
 40
0
 40
1
 40
1
 40
1
 40
1
 10
66.696497
 20
157.004547
 30
0.0
 10
67.397636
 20
158.261980
 30
0.0
 10
68.111218
 20
159.692519
 30
0.0
 10
68.282343
 20
160.183408
 30
0.0
  0
SPLINE
  5
24d
100
AcDbEntity
  8
Layer_1
 62
7
100
AcDbSpline
 70
8
 71
3
 72
8
 73
4
 74
0
 40
0
 40
0
 40
0
 40
0
 40
1
 40
1
 40
1
 40
1
 10
68.282343
 20
160.183408
 30
0.0
 10
68.453466
 20
160.674294
 30
0.0
 10
68.758404
 20
161.310914
 30
0.0
 10
68.959786
 20
161.598377
 30
0.0
  0
SPLINE
  5
24e
100
AcDbEntity
  8
Layer_1
 62
7
100
AcDbSpline
 70
8
 71
3
 72
8
 73
4
 74
0
 40
0
 40
0
 40
0
 40
0
 40
1
 40
1
 40
1
 40
1
 10
68.959786
 20
161.598377
 30
0.0
 10
69.059160
 20
161.740225
 30
0.0
 10
69.132354
 20
161.822332
 30
0.0
 10
69.187438
 20
161.821067
 30
0.0
  0
LWPOLYLINE
  5
24f
100
AcDbEntity
  8
Layer_1
 62
7
100
AcDbPolyline
 90
2
 70
0
 10
99.585309
 20
182.707716
 30
0.0
 10
99.585309
 20
182.707716
 30
0.0
  0
SPLINE
  5
250
100
AcDbEntity
  8
Layer_1
 62
7
100
AcDbSpline
 70
8
 71
3
 72
8
 73
4
 74
0
 40
0
 40
0
 40
0
 40
0
 40
1
 40
1
 40
1
 40
1
 10
75.519799
 20
152.847284
 30
0.0
 10
75.748670
 20
152.809193
 30
0.0
 10
76.246315
 20
151.970913
 30
0.0
 10
76.489938
 20
151.065203
 30
0.0
  0
SPLINE
  5
251
100
AcDbEntity
  8
Layer_1
 62
7
100
AcDbSpline
 70
8
 71
3
 72
8
 73
4
 74
0
 40
0
 40
0
 40
0
 40
0
 40
1
 40
1
 40
1
 40
1
 10
76.489938
 20
151.065203
 30
0.0
 10
76.654618
 20
150.453041
 30
0.0
 10
76.731458
 20
149.894514
 30
0.0
 10
76.660815
 20
149.823868
 30
0.0
  0
SPLINE
  5
252
100
AcDbEntity
  8
Layer_1
 62
7
100
AcDbSpline
 70
8
 71
3
 72
8
 73
4
 74
0
 40
0
 40
0
 40
0
 40
0
 40
1
 40
1
 40
1
 40
1
 10
76.660815
 20
149.823868
 30
0.0
 10
76.495701
 20
149.658757
 30
0.0
 10
75.407819
 20
152.046100
 30
0.0
 10
75.399635
 20
152.591520
 30
0.0
  0
SPLINE
  5
253
100
AcDbEntity
  8
Layer_1
 62
7
100
AcDbSpline
 70
8
 71
3
 72
8
 73
4
 74
0
 40
0
 40
0
 40
0
 40
0
 40
1
 40
1
 40
1
 40
1
 10
75.399635
 20
152.591520
 30
0.0
 10
75.396750
 20
152.783770
 30
0.0
 10
75.443509
 20
152.859978
 30
0.0
 10
75.519799
 20
152.847284
 30
0.0
  0
LWPOLYLINE
  5
254
100
AcDbEntity
  8
Layer_1
 62
7
100
AcDbPolyline
 90
2
 70
0
 10
69.187438
 20
161.821067
 30
0.0
 10
69.187438
 20
161.821067
 30
0.0
  0
SPLINE
  5
255
100
AcDbEntity
  8
Layer_1
 62
7
100
AcDbSpline
 70
8
 71
3
 72
8
 73
4
 74
0
 40
0
 40
0
 40
0
 40
0
 40
1
 40
1
 40
1
 40
1
 10
78.896546
 20
146.866597
 30
0.0
 10
78.998081
 20
146.883508
 30
0.0
 10
79.180405
 20
146.700075
 30
0.0
 10
79.332006
 20
146.416806
 30
0.0
  0
SPLINE
  5
256
100
AcDbEntity
  8
Layer_1
 62
7
100
AcDbSpline
 70
8
 71
3
 72
8
 73
4
 74
0
 40
0
 40
0
 40
0
 40
0
 40
1
 40
1
 40
1
 40
1
 10
79.332006
 20
146.416806
 30
0.0
 10
79.701675
 20
145.726075
 30
0.0
 10
79.564334
 20
145.647245
 30
0.0
 10
79.056950
 20
146.258606
 30
0.0
  0
SPLINE
  5
257
100
AcDbEntity
  8
Layer_1
 62
7
100
AcDbSpline
 70
8
 71
3
 72
8
 73
4
 74
0
 40
0
 40
0
 40
0
 40
0
 40
1
 40
1
 40
1
 40
1
 10
79.056950
 20
146.258606
 30
0.0
 10
78.860675
 20
146.495190
 30
0.0
 10
78.771355
 20
146.759601
 30
0.0
 10
78.858511
 20
146.846754
 30
0.0
  0
SPLINE
  5
258
100
AcDbEntity
  8
Layer_1
 62
7
100
AcDbSpline
 70
8
 71
3
 72
8
 73
4
 74
0
 40
0
 40
0
 40
0
 40
0
 40
1
 40
1
 40
1
 40
1
 10
78.858511
 20
146.846754
 30
0.0
 10
78.869405
 20
146.857648
 30
0.0
 10
78.882040
 20
146.864181
 30
0.0
 10
78.896546
 20
146.866597
 30
0.0
  0
LWPOLYLINE
  5
259
100
AcDbEntity
  8
Layer_1
 62
7
100
AcDbPolyline
 90
2
 70
0
 10
75.519799
 20
152.847284
 30
0.0
 10
75.519799
 20
152.847284
 30
0.0
  0
SPLINE
  5
25a
100
AcDbEntity
  8
Layer_1
 62
7
100
AcDbSpline
 70
8
 71
3
 72
8
 73
4
 74
0
 40
0
 40
0
 40
0
 40
0
 40
1
 40
1
 40
1
 40
1
 10
143.302742
 20
143.288660
 30
0.0
 10
143.677761
 20
143.288660
 30
0.0
 10
143.696873
 20
143.212040
 30
0.0
 10
143.409128
 20
142.865327
 30
0.0
  0
SPLINE
  5
25b
100
AcDbEntity
  8
Layer_1
 62
7
100
AcDbSpline
 70
8
 71
3
 72
8
 73
4
 74
0
 40
0
 40
0
 40
0
 40
0
 40
1
 40
1
 40
1
 40
1
 10
143.409128
 20
142.865327
 30
0.0
 10
143.215893
 20
142.632493
 30
0.0
 10
143.009671
 20
142.441993
 30
0.0
 10
142.951067
 20
142.441993
 30
0.0
  0
SPLINE
  5
25c
100
AcDbEntity
  8
Layer_1
 62
7
100
AcDbSpline
 70
8
 71
3
 72
8
 73
4
 74
0
 40
0
 40
0
 40
0
 40
0
 40
1
 40
1
 40
1
 40
1
 10
142.951067
 20
142.441993
 30
0.0
 10
142.892461
 20
142.441993
 30
0.0
 10
142.844684
 20
142.632493
 30
0.0
 10
142.844684
 20
142.865327
 30
0.0
  0
SPLINE
  5
25d
100
AcDbEntity
  8
Layer_1
 62
7
100
AcDbSpline
 70
8
 71
3
 72
8
 73
4
 74
0
 40
0
 40
0
 40
0
 40
0
 40
1
 40
1
 40
1
 40
1
 10
142.844684
 20
142.865327
 30
0.0
 10
142.844684
 20
143.098160
 30
0.0
 10
143.050906
 20
143.288660
 30
0.0
 10
143.302742
 20
143.288660
 30
0.0
  0
LWPOLYLINE
  5
25e
100
AcDbEntity
  8
Layer_1
 62
7
100
AcDbPolyline
 90
2
 70
0
 10
78.896546
 20
146.866597
 30
0.0
 10
78.896546
 20
146.866597
 30
0.0
  0
SPLINE
  5
25f
100
AcDbEntity
  8
Layer_1
 62
7
100
AcDbSpline
 70
8
 71
3
 72
8
 73
4
 74
0
 40
0
 40
0
 40
0
 40
0
 40
1
 40
1
 40
1
 40
1
 10
119.091716
 20
134.548591
 30
0.0
 10
119.942356
 20
134.543347
 30
0.0
 10
120.967692
 20
134.450755
 30
0.0
 10
121.960239
 20
134.272981
 30
0.0
  0
SPLINE
  5
260
100
AcDbEntity
  8
Layer_1
 62
7
100
AcDbSpline
 70
8
 71
3
 72
8
 73
4
 74
0
 40
0
 40
0
 40
0
 40
0
 40
1
 40
1
 40
1
 40
1
 10
121.960239
 20
134.272981
 30
0.0
 10
122.963615
 20
134.093267
 30
0.0
 10
122.548870
 20
134.040009
 30
0.0
 10
119.984684
 20
134.018871
 30
0.0
  0
SPLINE
  5
261
100
AcDbEntity
  8
Layer_1
 62
7
100
AcDbSpline
 70
8
 71
3
 72
8
 73
4
 74
0
 40
0
 40
0
 40
0
 40
0
 40
1
 40
1
 40
1
 40
1
 10
119.984684
 20
134.018871
 30
0.0
 10
117.502178
 20
133.998415
 30
0.0
 10
116.864610
 20
134.065198
 30
0.0
 10
117.272703
 20
134.302197
 30
0.0
  0
SPLINE
  5
262
100
AcDbEntity
  8
Layer_1
 62
7
100
AcDbSpline
 70
8
 71
3
 72
8
 73
4
 74
0
 40
0
 40
0
 40
0
 40
0
 40
1
 40
1
 40
1
 40
1
 10
117.272703
 20
134.302197
 30
0.0
 10
117.565173
 20
134.472049
 30
0.0
 10
118.241072
 20
134.553832
 30
0.0
 10
119.091716
 20
134.548591
 30
0.0
  0
LWPOLYLINE
  5
263
100
AcDbEntity
  8
Layer_1
 62
7
100
AcDbPolyline
 90
2
 70
0
 10
143.302742
 20
143.288660
 30
0.0
 10
143.302742
 20
143.288660
 30
0.0
  0
SPLINE
  5
264
100
AcDbEntity
  8
Layer_1
 62
7
100
AcDbSpline
 70
8
 71
3
 72
8
 73
4
 74
0
 40
0
 40
0
 40
0
 40
0
 40
1
 40
1
 40
1
 40
1
 10
130.673297
 20
134.507248
 30
0.0
 10
130.929064
 20
134.506551
 30
0.0
 10
131.174428
 20
134.489479
 30
0.0
 10
131.347986
 20
134.455985
 30
0.0
  0
SPLINE
  5
265
100
AcDbEntity
  8
Layer_1
 62
7
100
AcDbSpline
 70
8
 71
3
 72
8
 73
4
 74
0
 40
0
 40
0
 40
0
 40
0
 40
1
 40
1
 40
1
 40
1
 10
131.347986
 20
134.455985
 30
0.0
 10
131.695103
 20
134.388997
 30
0.0
 10
131.344128
 20
134.336049
 30
0.0
 10
130.568017
 20
134.338025
 30
0.0
  0
SPLINE
  5
266
100
AcDbEntity
  8
Layer_1
 62
7
100
AcDbSpline
 70
8
 71
3
 72
8
 73
4
 74
0
 40
0
 40
0
 40
0
 40
0
 40
1
 40
1
 40
1
 40
1
 10
130.568017
 20
134.338025
 30
0.0
 10
129.791906
 20
134.340144
 30
0.0
 10
129.507880
 20
134.394974
 30
0.0
 10
129.936875
 20
134.459843
 30
0.0
  0
SPLINE
  5
267
100
AcDbEntity
  8
Layer_1
 62
7
100
AcDbSpline
 70
8
 71
3
 72
8
 73
4
 74
0
 40
0
 40
0
 40
0
 40
0
 40
1
 40
1
 40
1
 40
1
 10
129.936875
 20
134.459843
 30
0.0
 10
130.151372
 20
134.492287
 30
0.0
 10
130.417536
 20
134.507945
 30
0.0
 10
130.673297
 20
134.507248
 30
0.0
  0
LWPOLYLINE
  5
268
100
AcDbEntity
  8
Layer_1
 62
7
100
AcDbPolyline
 90
2
 70
0
 10
119.091716
 20
134.548591
 30
0.0
 10
119.091716
 20
134.548591
 30
0.0
  0
SPLINE
  5
269
100
AcDbEntity
  8
Layer_1
 62
7
100
AcDbSpline
 70
8
 71
3
 72
8
 73
4
 74
0
 40
0
 40
0
 40
0
 40
0
 40
1
 40
1
 40
1
 40
1
 10
127.040239
 20
134.505044
 30
0.0
 10
127.219273
 20
134.505044
 30
0.0
 10
127.398309
 20
134.487619
 30
0.0
 10
127.534128
 20
134.452127
 30
0.0
  0
SPLINE
  5
26a
100
AcDbEntity
  8
Layer_1
 62
7
100
AcDbSpline
 70
8
 71
3
 72
8
 73
4
 74
0
 40
0
 40
0
 40
0
 40
0
 40
1
 40
1
 40
1
 40
1
 10
127.534128
 20
134.452127
 30
0.0
 10
127.805767
 20
134.381140
 30
0.0
 10
127.583517
 20
134.322590
 30
0.0
 10
127.040239
 20
134.322590
 30
0.0
  0
SPLINE
  5
26b
100
AcDbEntity
  8
Layer_1
 62
7
100
AcDbSpline
 70
8
 71
3
 72
8
 73
4
 74
0
 40
0
 40
0
 40
0
 40
0
 40
1
 40
1
 40
1
 40
1
 10
127.040239
 20
134.322590
 30
0.0
 10
126.496961
 20
134.322590
 30
0.0
 10
126.274711
 20
134.381140
 30
0.0
 10
126.546350
 20
134.452127
 30
0.0
  0
SPLINE
  5
26c
100
AcDbEntity
  8
Layer_1
 62
7
100
AcDbSpline
 70
8
 71
3
 72
8
 73
4
 74
0
 40
0
 40
0
 40
0
 40
0
 40
1
 40
1
 40
1
 40
1
 10
126.546350
 20
134.452127
 30
0.0
 10
126.682170
 20
134.487619
 30
0.0
 10
126.861203
 20
134.505044
 30
0.0
 10
127.040239
 20
134.505044
 30
0.0
  0
LWPOLYLINE
  5
26d
100
AcDbEntity
  8
Layer_1
 62
7
100
AcDbPolyline
 90
2
 70
0
 10
130.673297
 20
134.507248
 30
0.0
 10
130.673297
 20
134.507248
 30
0.0
  0
SPLINE
  5
26e
100
AcDbEntity
  8
Layer_1
 62
7
100
AcDbSpline
 70
8
 71
3
 72
8
 73
4
 74
0
 40
0
 40
0
 40
0
 40
0
 40
1
 40
1
 40
1
 40
1
 10
144.562271
 20
134.184236
 30
0.0
 10
144.573600
 20
134.201285
 30
0.0
 10
144.727016
 20
134.128588
 30
0.0
 10
145.031906
 20
133.980839
 30
0.0
  0
SPLINE
  5
26f
100
AcDbEntity
  8
Layer_1
 62
7
100
AcDbSpline
 70
8
 71
3
 72
8
 73
4
 74
0
 40
0
 40
0
 40
0
 40
0
 40
1
 40
1
 40
1
 40
1
 10
145.031906
 20
133.980839
 30
0.0
 10
145.381156
 20
133.811593
 30
0.0
 10
145.666906
 20
133.614221
 30
0.0
 10
145.666906
 20
133.542070
 30
0.0
  0
SPLINE
  5
270
100
AcDbEntity
  8
Layer_1
 62
7
100
AcDbSpline
 70
8
 71
3
 72
8
 73
4
 74
0
 40
0
 40
0
 40
0
 40
0
 40
1
 40
1
 40
1
 40
1
 10
145.666906
 20
133.542070
 30
0.0
 10
145.666906
 20
133.326108
 30
0.0
 10
145.520619
 20
133.388330
 30
0.0
 10
144.944812
 20
133.849648
 30
0.0
  0
SPLINE
  5
271
100
AcDbEntity
  8
Layer_1
 62
7
100
AcDbSpline
 70
8
 71
3
 72
8
 73
4
 74
0
 40
0
 40
0
 40
0
 40
0
 40
1
 40
1
 40
1
 40
1
 10
144.944812
 20
133.849648
 30
0.0
 10
144.681778
 20
134.060383
 30
0.0
 10
144.550940
 20
134.167187
 30
0.0
 10
144.562271
 20
134.184236
 30
0.0
  0
LWPOLYLINE
  5
272
100
AcDbEntity
  8
Layer_1
 62
7
100
AcDbPolyline
 90
2
 70
0
 10
127.040239
 20
134.505044
 30
0.0
 10
127.040239
 20
134.505044
 30
0.0
  0
LWPOLYLINE
  5
273
100
AcDbEntity
  8
Layer_1
 62
7
100
AcDbPolyline
 90
2
 70
0
 10
144.562271
 20
134.184236
 30
0.0
 10
144.562271
 20
134.184236
 30
0.0
  0
ENDSEC
  0
SECTION
  2
OBJECTS
  0
DICTIONARY
  5
C
330
0
100
AcDbDictionary
  3
ACAD_GROUP
350
D
  3
ACAD_MLINESTYLE
350
17
  0
DICTIONARY
  5
D
330
C
100
AcDbDictionary
  0
DICTIONARY
  5
1A
330
C
100
AcDbDictionary
  0
DICTIONARY
  5
17
330
C
100
AcDbDictionary
  3
STANDARD
350
18
  0
DICTIONARY
  5
19
330
C
100
AcDbDictionary
  0
ENDSEC
  0
EOF
