<?xml version="1.0" encoding="UTF-8" standalone="no"?>
<!-- Created with Inkscape (http://www.inkscape.org/) -->

<svg
   xmlns:dc="http://purl.org/dc/elements/1.1/"
   xmlns:cc="http://creativecommons.org/ns#"
   xmlns:rdf="http://www.w3.org/1999/02/22-rdf-syntax-ns#"
   xmlns:svg="http://www.w3.org/2000/svg"
   xmlns="http://www.w3.org/2000/svg"
   xmlns:sodipodi="http://sodipodi.sourceforge.net/DTD/sodipodi-0.dtd"
   xmlns:inkscape="http://www.inkscape.org/namespaces/inkscape"
   width="210mm"
   height="297mm"
   viewBox="0 0 744.09448819 1052.3622047"
   id="svg2"
   version="1.1"
   inkscape:version="0.91 r13725"
   sodipodi:docname="deathly.svg">
  <defs
     id="defs4" />
  <sodipodi:namedview
     id="base"
     pagecolor="#ffffff"
     bordercolor="#666666"
     borderopacity="1.0"
     inkscape:pageopacity="0.0"
     inkscape:pageshadow="2"
     inkscape:zoom="0.49497475"
     inkscape:cx="405.10647"
     inkscape:cy="453.26572"
     inkscape:document-units="mm"
     inkscape:current-layer="layer1"
     showgrid="false"
     inkscape:window-width="1360"
     inkscape:window-height="705"
     inkscape:window-x="-4"
     inkscape:window-y="-4"
     inkscape:window-maximized="1" />
  <metadata
     id="metadata7">
    <rdf:RDF>
      <cc:Work
         rdf:about="">
        <dc:format>image/svg+xml</dc:format>
        <dc:type
           rdf:resource="http://purl.org/dc/dcmitype/StillImage" />
        <dc:title></dc:title>
      </cc:Work>
    </rdf:RDF>
  </metadata>
  <g
     inkscape:label="Layer 1"
     inkscape:groupmode="layer"
     id="layer1">
    <path
       style="fill:#000000"
       d="M 352.86523 268.80859 C 352.14312 268.89091 351.38008 269.84333 350.3457 271.69336 C 349.40878 273.36909 346.73008 277.74393 344.39258 281.41406 C 342.05508 285.0842 340.14258 288.88806 340.14258 289.86719 C 340.14258 290.84633 339.45616 291.64648 338.61719 291.64648 C 336.59003 291.64648 328.98216 303.64236 329.54492 305.95117 C 329.83886 307.15709 329.21422 308.0505 327.66211 308.64062 C 324.88441 309.6967 313.7416 331.43809 314.69922 333.93359 C 315.07521 334.91342 314.51141 335.91438 313.18359 336.625 C 312.02064 337.2474 309.95457 340.09389 308.5918 342.95117 C 306.18897 347.98913 299.32256 358.09506 294.06836 364.32812 C 292.65285 366.00733 290.88548 368.9031 290.13867 370.76367 C 289.39186 372.62424 287.51879 375.61843 285.97656 377.41602 C 284.43433 379.21361 282.86538 381.91361 282.49023 383.41602 C 281.77071 386.29762 276.96898 394.76783 274.14062 398.14648 C 273.21979 399.24648 271.90118 401.58 271.21094 403.33008 C 270.5207 405.08016 268.87261 407.97917 267.54883 409.77344 C 266.22506 411.56772 265.14258 413.60117 265.14258 414.29297 C 265.14258 414.98476 263.1722 418.38576 260.76367 421.84961 C 258.35514 425.31346 254.96107 430.98592 253.2207 434.45508 C 251.48033 437.92424 247.99591 443.97497 245.47852 447.90234 C 240.47651 455.706 237.14258 462.79379 237.14258 465.62305 C 237.14258 466.6186 236.56786 467.65421 235.86523 467.92383 C 235.16259 468.19346 233.28403 470.81047 231.68945 473.74023 C 230.09487 476.67 227.33339 480.52403 225.55273 482.30469 C 222.69378 485.16364 211.14258 504.29056 211.14258 506.16602 C 211.14258 507.20819 203.95264 518.96383 202.5918 520.14648 C 201.95894 520.69648 200.31816 523.17148 198.94531 525.64648 C 197.57246 528.12148 193.65427 534.54725 190.24023 539.92578 C 186.82619 545.30431 183.40059 551.49867 182.62695 553.69141 C 181.8533 555.88414 180.07794 559.17716 178.68164 561.00781 C 177.28533 562.83846 176.14258 564.7391 176.14258 565.23242 C 176.14258 565.72574 174.62361 568.38394 172.76758 571.13867 C 163.17653 585.3739 159.99798 590.90228 160.89062 591.79492 C 161.96538 592.86968 192.77999 592.34773 197.90234 591.16797 C 199.91988 590.7033 201.67068 590.84102 202.5 591.5293 C 203.24361 592.14644 207.35658 592.62452 211.74219 592.60352 C 216.08782 592.58272 224.04029 592.56628 229.41602 592.56641 C 234.79175 592.56655 239.9003 592.29374 240.76758 591.96094 C 241.63486 591.62813 242.71579 591.9566 243.16992 592.69141 C 243.80486 593.71876 244.76476 593.79304 247.32031 593.01172 C 249.14816 592.45288 251.83787 592.31616 253.29883 592.70898 C 258.50279 594.10822 299.17741 593.57141 309.49414 591.9668 C 318.67318 590.53914 319.60854 590.55366 323.21875 592.18164 C 326.51707 593.66898 328.84289 593.83055 338.86719 593.26562 C 345.34346 592.90066 351.09258 592.59052 351.64258 592.57812 C 352.19258 592.56572 357.65327 592.86045 363.77734 593.23242 C 373.02657 593.7942 375.46621 593.63198 378.18164 592.27734 C 382.08484 590.33017 390.98675 590.07906 391.68555 591.89648 C 392.03785 592.81272 395.70091 593.13411 405.4043 593.09961 C 412.68519 593.0737 419.09258 592.89032 419.64258 592.69141 C 420.19258 592.49251 421.39493 592.66175 422.31445 593.06641 C 423.23397 593.47108 424.93159 593.29552 426.08594 592.67773 C 427.24028 592.05994 428.70411 591.87663 429.33984 592.26953 C 429.97556 592.66243 436.8299 593.28027 444.57031 593.64258 C 452.31072 594.00489 459.54258 594.07292 460.64258 593.79492 C 462.24193 593.39073 475.6217 592.84922 489.64258 592.62109 C 490.74258 592.60319 505.13652 592.79437 521.62891 593.04492 C 541.31685 593.34402 552.04017 593.14801 552.85156 592.47461 C 554.46091 591.13897 552.728 586.87457 547.35547 578.94922 C 545.19199 575.75774 540.3931 567.80762 536.69141 561.28125 C 532.98972 554.75489 527.38142 545.07989 524.22852 539.78125 C 521.07562 534.48262 513.43484 521.30919 507.24805 510.50781 C 501.06126 499.70642 495.24312 490.03142 494.32031 489.00781 C 493.39749 487.98419 491.62179 484.98227 490.375 482.33594 C 489.12822 479.68961 485.49303 473.16461 482.29492 467.83594 C 479.0968 462.50727 473.91489 453.75898 470.7793 448.39648 C 465.59724 439.53411 462.14258 436.23475 462.14258 440.14648 C 462.14258 442.46454 460.62963 441.92477 459.0957 439.05859 C 457.86323 436.75571 457.90518 436.35901 459.47852 435.47852 C 461.15233 434.54181 461.13726 434.30309 459.19531 431.01172 C 458.06659 429.09868 457.135 426.9959 457.125 426.33984 C 457.11499 425.68378 455.77248 423.12148 454.14258 420.64648 C 449.78194 414.02489 449.06643 413.32224 447.88867 414.5 C 447.1962 415.19247 447.5443 416.66309 448.97266 419.08398 C 450.12909 421.04399 450.75231 422.64648 450.35742 422.64648 C 449.96252 422.64648 448.58303 420.50898 447.29102 417.89648 C 445.99902 415.28398 444.48902 412.29039 443.9375 411.24414 C 443.17936 409.8059 443.31807 409.12847 444.50391 408.46484 C 445.7799 407.75076 445.86282 407.12658 444.94727 405.11719 C 443.65235 402.27513 441.15828 401.806 441.11328 404.39648 C 441.0854 406.0009 440.99254 405.9922 440.00391 404.29102 C 439.1756 402.86572 439.29448 402.06685 440.51953 400.8418 C 441.9793 399.38202 441.95523 399.07334 440.23633 397.19727 C 439.20347 396.06998 437.14932 392.89648 435.66992 390.14648 C 434.19053 387.39648 430.54028 381.09648 427.55859 376.14648 C 424.5769 371.19648 420.46828 364.33398 418.42773 360.89648 C 416.38718 357.45898 414.13754 354.64648 413.42969 354.64648 C 411.50402 354.64648 411.8454 356.11932 414.99023 361.38281 C 425.50664 378.98407 428.24964 383.87341 427.83984 384.2832 C 427.42194 384.7011 425.7945 382.36777 418.37109 370.71289 C 417.12176 368.75142 415.37717 365.57148 414.49414 363.64648 C 411.39791 356.89676 409.81748 354.08043 404.67188 346.14648 C 401.81823 341.74648 398.91456 336.71649 398.2207 334.96875 C 397.52684 333.22102 396.05093 330.97102 394.93945 329.96875 C 393.82797 328.96649 390.76003 323.84797 388.12109 318.59375 C 385.48215 313.33953 382.60674 308.44633 381.73242 307.7207 C 380.85809 306.99508 380.14258 306.04261 380.14258 305.60352 C 380.14258 304.70462 371.57453 290.5127 366.88672 283.64648 C 363.67768 278.9462 358.57082 273.64648 357.25 273.64648 C 356.82689 273.64648 355.87846 272.52148 355.14258 271.14648 C 354.26888 269.51396 353.58734 268.72628 352.86523 268.80859 z M 351.5332 278.10156 C 351.7975 278.10286 352.07937 278.51473 352.52539 279.27344 C 353.84671 281.52109 354.28257 358.44405 352.97852 359.25 C 352.51881 359.53412 352.14258 358.87654 352.14258 357.78906 C 352.14258 354.08929 350.99091 352.64844 348.03516 352.64844 C 344.81061 352.64844 344.49342 353.89552 345.04102 364.39844 L 345.31445 369.64844 L 341.97852 369.68359 C 334.89348 369.75768 323.32121 372.56428 316.08008 375.96484 C 306.8942 380.27869 302.09955 381.67771 303.74414 379.56445 C 304.35016 378.78572 305.69662 375.72933 306.73633 372.77344 C 307.77605 369.81755 309.17493 367.1883 309.84375 366.93164 C 311.53254 366.28359 316.36851 357.82306 315.68359 356.71484 C 315.37584 356.21689 315.87515 355.05845 316.79297 354.14062 C 317.7108 353.2228 320.63903 347.89957 323.29883 342.31055 C 325.95863 336.72154 328.71034 331.69844 329.41406 331.14844 C 330.69475 330.1475 338.14258 314.29003 338.14258 312.56445 C 338.14258 309.82539 334.92128 312.48981 330.61719 318.78906 C 327.93351 322.71676 325.5505 325.37025 325.32227 324.68555 C 325.09403 324.00084 325.85811 322.25042 327.02148 320.79492 C 328.18485 319.33942 330.27882 315.99603 331.67383 313.36523 C 333.06883 310.73443 335.67636 306.23443 337.46875 303.36523 C 339.26113 300.49603 341.29037 297.02344 341.97656 295.64844 C 342.66276 294.27344 344.56022 290.89844 346.19531 288.14844 C 347.83041 285.39844 349.67656 281.85402 350.29688 280.27344 C 350.88403 278.77736 351.19339 278.0999 351.5332 278.10156 z M 360.98242 289.71094 C 361.34237 289.67918 361.72746 290.02969 361.94531 290.64844 C 362.23577 291.47344 363.74936 293.34066 365.30859 294.79883 C 366.86782 296.257 368.14258 298.14336 368.14258 298.99023 C 368.14258 299.83711 368.54121 300.77573 369.02734 301.07617 C 369.51347 301.37662 370.91309 303.76526 372.13867 306.38477 C 373.36425 309.00428 378.97038 318.57344 384.5957 327.64844 C 393.64012 342.23927 397.13816 348.16408 406.15234 364.14844 C 407.393 366.34844 409.78072 370.84844 411.45703 374.14844 C 413.13335 377.44844 415.91087 382.17344 417.63086 384.64844 C 419.35086 387.12344 421.09677 389.71094 421.50977 390.39844 C 422.54033 392.11394 421.65897 391.97463 420.17578 390.1875 C 419.50877 389.3838 418.02914 388.42838 416.88867 388.06641 C 415.7482 387.70444 412.75089 385.97805 410.22852 384.22852 C 407.70616 382.479 402.94258 380.01769 399.64258 378.75977 C 396.34258 377.50184 392.74258 376.08789 391.64258 375.61719 C 390.54258 375.14648 387.61758 374.47337 385.14258 374.12109 C 379.543 373.32407 373.32999 371.74932 370.44922 370.39844 C 368.32028 369.40012 368.24604 368.79854 367.90039 349.75977 C 367.48671 326.97331 366.30485 302.71935 365.54883 301.49609 C 364.18574 299.29055 363.14258 301.11716 363.14258 305.70703 C 363.14258 308.71524 362.7497 310.52388 362.17383 310.16797 C 361.61845 309.8247 361.38914 306.08991 361.63477 301.41211 C 361.90241 296.31508 361.6498 292.75775 360.96094 291.92773 C 360.35467 291.19721 360.20805 290.27226 360.63672 289.87305 C 360.74389 289.77325 360.86244 289.72152 360.98242 289.71094 z M 391.53711 317.79297 C 389.85396 317.72664 389.66427 319.76778 391.34375 321.44727 C 393.20591 323.30943 394.31413 322.87009 393.96289 320.4082 C 393.78714 319.17631 392.85508 318.01743 391.89258 317.83398 C 391.76721 317.81009 391.64932 317.79739 391.53711 317.79297 z M 362.50781 327.99414 C 362.59876 328.00791 362.70646 328.16179 362.82617 328.46094 C 363.11508 329.18281 363.07838 330.04466 362.74609 330.37695 C 362.4138 330.70924 362.17926 330.11861 362.22266 329.06445 C 362.25264 328.33636 362.35624 327.97119 362.50781 327.99414 z M 368.64258 386.65039 L 372.14258 386.66016 C 378.31775 386.67721 383.14258 387.83592 383.14258 389.30273 C 383.14258 390.06938 384.38008 391.15975 385.89258 391.72461 C 387.40508 392.28948 390.44258 393.58486 392.64258 394.60547 C 394.84258 395.62608 397.61431 396.74503 398.80078 397.0918 C 399.98725 397.43858 402.91225 399.27699 405.30078 401.17578 C 407.68931 403.07458 410.43008 404.63172 411.39258 404.63672 C 412.35508 404.64206 413.14258 405.32148 413.14258 406.14648 C 413.14258 406.97148 413.58248 407.64648 414.11914 407.64648 C 414.6558 407.64648 416.49167 409.18212 418.19922 411.05859 C 419.90677 412.93506 422.38462 414.74231 423.70703 415.07422 C 425.11471 415.42752 426.35683 416.65546 426.70312 418.03516 C 427.02842 419.33129 428.38568 420.97406 429.71875 421.6875 C 431.05182 422.40094 432.14258 423.75365 432.14258 424.69336 C 432.14258 425.63308 432.8951 427.02054 433.81445 427.77539 C 436.03613 429.59951 444.24932 442.31557 443.91016 443.40625 C 443.39548 445.06136 449.28481 454.64648 450.81641 454.64648 C 452.05771 454.64648 452.2338 453.9018 451.70117 450.89648 C 451.33564 448.83398 450.78778 446.30687 450.48438 445.2793 C 450.10663 443.99987 450.35924 443.55239 451.28711 443.86133 C 452.03233 444.10946 452.69261 445.27036 452.75391 446.43945 C 452.81522 447.60855 453.34138 449.82012 453.92188 451.35547 C 455.08569 454.43362 455.95656 459.38727 456.75195 467.4375 C 457.38465 473.84117 459.36734 479.91251 460.68164 479.4707 C 461.21001 479.29308 461.6483 475.35788 461.6543 470.72656 C 461.66238 464.93038 462.05196 462.17669 462.9043 461.89258 C 463.58535 461.66556 464.14258 462.12261 464.14258 462.9082 C 464.14258 463.69379 464.98699 465.10053 466.01758 466.0332 C 467.04817 466.96587 468.13552 469.55803 468.43555 471.79492 C 468.76154 474.22535 470.22265 477.4088 472.06641 479.70312 C 473.76336 481.81475 475.57676 484.65853 476.0957 486.02344 C 476.61464 487.38835 479.58969 492.45875 482.70703 497.29102 C 485.82437 502.12329 490.18014 509.46696 492.38672 513.61133 C 494.5933 517.75571 497.63055 522.94648 499.13477 525.14648 C 500.639 527.34648 502.21125 530.27148 502.62891 531.64648 C 503.04657 533.02148 503.83669 534.70898 504.38672 535.39648 C 504.99484 536.15656 505.01337 536.64648 504.43359 536.64648 C 503.90919 536.64648 502.84802 535.40898 502.07422 533.89648 C 497.82024 525.58146 492.0215 517.64648 490.19922 517.64648 C 485.12065 517.64648 486.61524 524.00847 493.40625 531.29688 C 495.42272 533.46104 496.1483 535.0557 495.72461 536.39062 C 495.34391 537.5901 495.8795 539.31504 497.125 540.89844 C 498.23464 542.30911 499.14258 543.88776 499.14258 544.4082 C 499.14258 544.92863 500.20245 546.49851 501.49805 547.89648 C 502.79365 549.29446 505.55755 553.52313 507.63867 557.29297 C 509.7198 561.06281 512.07871 564.90613 512.88086 565.83398 C 514.27222 567.44335 513.79315 570.16758 512.2832 569.23438 C 511.41231 568.69613 501.22858 570.06774 491.64258 572.01367 C 486.53565 573.05036 484.45336 573.13157 483.94336 572.31445 C 483.45078 571.52526 473.48272 571.18642 450.19531 571.16992 C 424.43653 571.15167 417.14653 570.87075 417.14453 569.89648 C 417.14338 569.20898 416.35508 568.6372 415.39258 568.625 C 413.97858 568.60704 414.12318 568.23502 416.14258 566.68359 C 418.61571 564.78359 418.64919 564.78341 419.39258 566.79297 C 420.13367 568.79633 420.18022 568.79264 422.89258 566.46875 C 435.26974 555.86425 444.23755 545.34107 442.43359 543.53711 C 441.6105 542.71402 438.59428 545.74745 433.45703 552.56445 C 433.28433 552.79361 432.85463 552.69252 432.50195 552.33984 C 431.8457 551.68359 439.27186 541.36556 442.35352 538.65234 C 444.10942 537.10636 449.14258 527.63377 449.14258 525.875 C 449.14258 525.33472 449.81758 524.33117 450.64258 523.64648 C 451.46758 522.96179 452.14258 521.39008 452.14258 520.15234 C 452.14258 518.9146 453.06644 515.81371 454.19531 513.26172 C 456.87436 507.20527 459.04821 495.60797 458.80664 488.66406 C 458.66482 484.58738 457.98032 482.29688 456.18555 479.89062 C 454.84946 478.09936 453.40123 476.9894 452.9668 477.42383 C 452.53237 477.85826 451.76907 482.92285 451.26953 488.67969 C 449.35207 510.77687 444.19313 524.18804 432.31055 537.96484 C 429.37746 541.36549 426.49308 545.15898 425.90039 546.39648 C 425.3077 547.63398 424.50768 548.64648 424.12305 548.64648 C 423.73843 548.64648 419.87279 551.62355 415.5332 555.26172 C 408.62066 561.05695 397.08527 567.64648 393.85352 567.64648 C 393.24686 567.64648 391.15183 568.74921 389.19727 570.0957 C 386.27665 572.1077 384.12823 572.61272 377.14258 572.93555 C 372.46758 573.15161 367.85508 573.6744 366.89258 574.0957 C 364.8845 574.97466 364.88801 574.98264 364.58398 567.64648 C 364.45862 564.62148 364.12376 560.79648 363.83984 559.14648 C 363.55592 557.49648 363.86281 553.67148 364.52148 550.64648 C 365.79773 544.78538 365.83817 519.44415 364.57617 516.26562 C 364.12059 515.11817 364.4751 513.16899 365.48828 511.26562 C 366.53428 509.30058 367.0945 506.11112 367 502.64648 C 366.91745 499.62148 367.10313 491.07148 367.41406 483.64648 C 367.72498 476.22148 367.99005 463.62148 368.00195 455.64648 C 368.01385 447.67148 368.12678 437.77148 368.25195 433.64648 C 368.37705 429.52148 368.40285 425.13398 368.31055 423.89648 C 368.02044 420.00767 368.02424 417.54529 368.33789 401.89844 L 368.64258 386.65039 z M 346.58008 387.14648 L 346.27539 398.70312 C 346.02057 408.32842 346.23602 410.4802 347.56836 411.58594 C 348.60254 412.44424 348.83947 413.3088 348.23828 414.0332 C 347.72694 414.64939 347.49159 416.72706 347.7168 418.65039 C 348.02961 421.32183 348.77079 443.57193 349.23242 464.14648 C 349.24476 464.69648 349.08479 469.10852 348.87695 473.94922 C 348.66911 478.78992 348.89932 482.9964 349.38867 483.29883 C 349.87801 483.60127 349.97203 484.59118 349.5957 485.49805 C 348.62374 487.8403 349.29161 505.1109 350.68945 513.76562 C 351.14023 516.55658 350.90055 517.52554 349.63867 518.00977 C 348.20271 518.5608 348.07254 520.13486 348.57812 530.89258 C 348.8949 537.63253 349.31277 544.49648 349.50586 546.14648 C 349.69895 547.79648 350.19796 553.06901 350.61523 557.86328 C 351.38091 566.66037 352.87505 570.54748 354.99023 569.24023 C 355.62366 568.84874 356.14258 567.65543 356.14258 566.58789 C 356.14258 565.52035 356.59258 564.64648 357.14258 564.64648 C 357.69258 564.64648 358.14258 566.56992 358.14258 568.91992 C 358.14258 573.19088 358.14077 573.19312 354.39258 573.19336 C 350.8862 573.19357 350.64258 572.99649 350.64258 570.16992 C 350.64258 567.36566 350.3551 567.1233 346.65625 566.82227 C 344.46322 566.64378 342.21322 566.12422 341.65625 565.66602 C 341.09928 565.20782 337.96399 564.33918 334.68945 563.73633 C 331.41492 563.13347 328.28625 562.19055 327.73828 561.64258 C 327.19032 561.09462 325.82086 560.6371 324.69336 560.625 C 321.26271 560.58824 314.98321 557.1897 308.14258 551.66797 C 304.56758 548.78224 299.28008 545.37268 296.39258 544.08984 C 293.50508 542.807 291.13781 541.17088 291.13281 540.45312 C 291.12752 539.73536 288.76502 536.01013 285.88281 532.17578 C 283.00059 528.34143 279.21748 522.08053 277.47461 518.26367 C 275.73174 514.44681 273.0899 509.93974 271.60547 508.24805 C 269.48554 505.83214 268.8456 503.97767 268.62109 499.60352 C 268.46388 496.54062 267.62166 491.6344 266.75 488.69922 C 265.40374 484.16586 265.3235 481.53875 266.21289 471.25391 C 266.78874 464.59489 267.68335 458.71977 268.20117 458.19727 C 268.71898 457.67477 269.14258 456.05363 269.14258 454.5957 C 269.14258 448.65877 277.07203 431.51294 282.76172 425.14648 C 284.72785 422.94648 286.99461 419.63653 287.79883 417.78906 C 288.60305 415.94158 290.10982 414.20664 291.14648 413.93555 C 292.18313 413.66446 293.16753 412.50769 293.33594 411.36328 C 293.52165 410.10129 294.67024 409.00863 296.25391 408.58789 C 297.69002 408.20636 301.51502 405.81413 304.75391 403.27148 C 307.99279 400.72884 311.14398 398.64878 311.75586 398.64844 C 312.36773 398.64809 314.51964 397.33335 316.53906 395.72852 C 318.55847 394.12369 322.10902 392.50113 324.42773 392.12109 C 326.74644 391.74104 329.31758 390.86489 330.14258 390.17383 C 331.54335 389.00049 338.46044 387.56358 344.11133 387.27344 L 346.58008 387.14648 z M 352.86133 404.97266 C 353.57711 405.04866 353.83977 406.09211 353.41797 407.70508 C 353.13864 408.77324 352.51124 409.64844 352.02539 409.64844 C 350.8887 409.64844 350.8709 405.93462 352.00391 405.23438 C 352.33503 405.02973 352.62273 404.94732 352.86133 404.97266 z M 245.15234 478.98047 C 245.58175 478.99031 245.69637 480.4224 245.77539 484.13672 C 245.85148 487.71294 246.5447 491.37549 247.40625 492.75195 C 249.51533 496.12152 250.4544 500.64648 249.04492 500.64648 C 248.32887 500.64648 248.1654 501.47785 248.60156 502.89648 C 248.98204 504.13398 249.85736 507.62148 250.54688 510.64648 C 251.2364 513.67148 252.29564 517.04648 252.90039 518.14648 C 255.125 522.1929 258.14258 529.31381 258.14258 530.51562 C 258.14258 531.19616 259.26758 533.40814 260.64258 535.43164 C 262.01758 537.45513 263.14258 539.67082 263.14258 540.35547 C 263.14258 541.04012 264.23451 542.31548 265.56836 543.18945 C 266.9022 544.06342 268.43361 546.03937 268.9707 547.58008 C 269.5078 549.1208 272.01587 551.86736 274.54492 553.68359 C 277.07398 555.49982 279.14258 557.29277 279.14258 557.66797 C 279.14258 559.41523 293.01964 571.64648 295.00195 571.64648 C 295.56443 571.64648 296.30151 572.09583 296.64062 572.64453 C 297.16198 573.48808 252.0813 574.13824 224.97266 573.67773 C 221.85386 573.62475 219.01522 574.04509 218.66406 574.61328 C 217.83347 575.9572 215.66501 575.83156 210.16797 574.11914 C 207.52128 573.29465 203.33363 572.90825 199.91797 573.17383 C 194.38464 573.60407 194.14258 573.52374 194.14258 571.25586 C 194.14258 568.57498 200.40214 557.64059 202.66016 556.37695 C 203.51852 555.89658 204.14258 554.11184 204.14258 552.13672 C 204.14258 549.48315 205.0314 547.84391 208.14258 544.76367 C 210.34258 542.58555 212.14258 540.31165 212.14258 539.70898 C 212.14258 539.10631 214.39258 534.6205 217.14258 529.74219 C 219.89258 524.86388 222.14258 520.21792 222.14258 519.41602 C 222.14258 518.61411 223.04258 517.14197 224.14258 516.14648 C 225.24258 515.15099 226.14258 513.75345 226.14258 513.04102 C 226.14258 512.3286 226.74247 511.3871 227.47461 510.94727 C 228.20675 510.50744 229.48053 508.79648 230.30664 507.14648 C 231.13274 505.49648 233.84182 500.50234 236.32617 496.04688 C 238.81052 491.59141 241.33896 486.52257 241.94531 484.7832 C 242.55165 483.04384 243.63214 480.7881 244.3457 479.76953 C 244.69781 479.26692 244.95716 478.97599 245.15234 478.98047 z M 267.58984 510.77734 C 268.4008 510.91231 270.16411 513.88259 271.02734 517.0918 C 271.61085 519.26088 271.88312 521.23991 271.63281 521.49023 C 271.04776 522.07527 267.19306 513.61618 267.16406 511.68359 C 267.15384 511.00239 267.31952 510.73236 267.58984 510.77734 z M 279.55469 531.96875 C 279.91446 531.90883 280.56049 532.55879 281.09766 533.5625 C 282.40751 536.00997 281.92087 536.28929 280.12305 534.12305 C 279.42759 533.28476 279.1111 532.34787 279.41992 532.03906 C 279.45852 532.00046 279.50329 531.97731 279.55469 531.96875 z M 507.76562 544.64648 C 509.09443 544.64648 509.16215 544.91797 508.14258 546.14648 C 507.45789 546.97148 506.72718 547.64648 506.51953 547.64648 C 506.31187 547.64648 506.14258 546.97148 506.14258 546.14648 C 506.14258 545.32148 506.87329 544.64648 507.76562 544.64648 z M 421.97852 575.61523 C 424.9926 575.63381 428.62568 575.96189 432.14258 576.5918 C 435.69785 577.22858 434.22828 577.41729 425.14258 577.49219 C 416.3463 577.56467 414.0872 577.32804 415.5332 576.48828 C 416.56951 575.88644 418.96443 575.59666 421.97852 575.61523 z M 463.01562 575.76172 C 463.92188 575.76419 464.79128 575.82468 465.40625 575.94336 C 466.63619 576.18072 465.39258 576.36833 462.64258 576.36133 C 459.89258 576.35382 458.88619 576.15954 460.40625 575.92969 C 461.16628 575.81473 462.10938 575.75925 463.01562 575.76172 z M 450.14258 575.76953 C 450.77695 575.76953 451.41133 575.83127 451.89258 575.95703 C 452.85508 576.20856 452.06758 576.41602 450.14258 576.41602 C 448.21758 576.41602 447.43008 576.20856 448.39258 575.95703 C 448.87383 575.83127 449.5082 575.76953 450.14258 575.76953 z M 512.22852 576.90625 C 512.26866 576.84584 512.81226 577.10343 513.89258 577.62695 C 515.13008 578.22664 516.14258 578.92599 516.14258 579.18164 C 516.14258 579.94686 515.62424 579.72639 513.58398 578.0918 C 512.65197 577.3451 512.18837 576.96666 512.22852 576.90625 z "
       id="path4214" />
  </g>
</svg>
