<?xml version="1.0" encoding="UTF-8" standalone="no"?>
<!-- Created with Inkscape (http://www.inkscape.org/) -->

<svg
   xmlns:dc="http://purl.org/dc/elements/1.1/"
   xmlns:cc="http://creativecommons.org/ns#"
   xmlns:rdf="http://www.w3.org/1999/02/22-rdf-syntax-ns#"
   xmlns:svg="http://www.w3.org/2000/svg"
   xmlns="http://www.w3.org/2000/svg"
   xmlns:sodipodi="http://sodipodi.sourceforge.net/DTD/sodipodi-0.dtd"
   xmlns:inkscape="http://www.inkscape.org/namespaces/inkscape"
   width="210mm"
   height="297mm"
   viewBox="0 0 744.09448819 1052.3622047"
   id="svg2"
   version="1.1"
   inkscape:version="0.91 r13725"
   sodipodi:docname="Semnedecarte.svg">
  <defs
     id="defs4" />
  <sodipodi:namedview
     id="base"
     pagecolor="#ffffff"
     bordercolor="#666666"
     borderopacity="1.0"
     inkscape:pageopacity="0.0"
     inkscape:pageshadow="2"
     inkscape:zoom="0.49497475"
     inkscape:cx="-292.97805"
     inkscape:cy="414.29273"
     inkscape:document-units="mm"
     inkscape:current-layer="layer1"
     showgrid="false"
     inkscape:window-width="1360"
     inkscape:window-height="705"
     inkscape:window-x="-4"
     inkscape:window-y="-4"
     inkscape:window-maximized="1" />
  <metadata
     id="metadata7">
    <rdf:RDF>
      <cc:Work
         rdf:about="">
        <dc:format>image/svg+xml</dc:format>
        <dc:type
           rdf:resource="http://purl.org/dc/dcmitype/StillImage" />
        <dc:title></dc:title>
      </cc:Work>
    </rdf:RDF>
  </metadata>
  <g
     inkscape:label="Layer 1"
     inkscape:groupmode="layer"
     id="layer1">
    <path
       style="fill:#000000"
       d="M 168.08984 768.41602 L 166.82031 768.94922 L 157.92969 773.54688 C 142.39935 781.57947 89.720932 807.81746 86.757812 808.99609 C 85.191053 809.61928 83.137573 810.77391 82.195312 811.56055 L 80.482422 812.99023 L 85.042969 815.91211 C 98.837907 824.74602 103.49206 827.98193 103.73633 828.91602 C 103.88249 829.47494 104.6406 833.92153 105.42188 838.79688 C 106.25859 844.01818 107.07065 847.66211 107.39844 847.66211 C 107.7045 847.66211 111.25696 845.96898 115.29102 843.90039 C 119.32508 841.8318 123.57269 839.85918 124.73047 839.51758 C 126.81973 838.90117 126.87253 838.91974 131.8418 841.90234 C 138.70717 846.02299 141.16602 846.99774 141.16602 845.59961 C 141.16602 844.92511 147.89423 826.75317 155.59961 806.61523 C 162.94224 787.42532 168.08984 772.39135 168.08984 770.13672 L 168.08984 768.41602 z M 159.19922 775.58789 L 154.62695 779.93359 C 140.9488 792.93966 122.25486 809.76321 109.92578 820.16016 C 106.57306 822.98747 103.71587 825.29797 103.57617 825.29297 C 103.43647 825.2881 101.21577 823.83944 98.642578 822.07422 C 96.06938 820.309 91.901505 817.62958 89.380859 816.11914 C 86.860211 814.60869 84.870061 813.14722 84.957031 812.87109 C 85.12996 812.32206 104.06109 802.7395 137.61133 786.21875 L 159.19922 775.58789 z M 164.00195 776.28906 L 163.19727 779.08398 C 161.87501 783.66799 157.90856 794.60871 151.32031 811.84766 C 147.90347 820.78824 143.90595 831.52368 142.4375 835.70312 C 140.96905 839.88256 139.56811 843.3633 139.32422 843.4375 C 138.95138 843.5509 118.66346 831.933 117.89844 831.16797 C 117.4175 830.68703 124.82406 821.51842 135.34961 809.5625 C 146.27135 797.15654 159.5266 781.82423 162.36328 778.31641 L 164.00195 776.28906 z M 154.87891 783.5293 C 154.9697 783.7629 151.44288 787.85458 141.48438 799.11133 C 117.88601 825.78611 114.95672 829.45038 111.41992 836.7207 C 110.17876 839.27204 109.16211 841.63434 109.16211 841.9707 C 109.16211 842.30706 108.96107 842.58203 108.71484 842.58203 C 108.20009 842.58203 107.35458 839.41969 106.88086 835.72461 C 106.70176 834.32764 106.32194 831.96609 106.03711 830.47852 L 105.51953 827.77539 L 109.5 824.08594 C 120.99355 813.43529 152.19492 785.48005 154.62695 783.6543 C 154.77942 783.53984 154.86594 783.49593 154.87891 783.5293 z M 115.99219 832.94531 C 116.25532 832.93663 118.0465 833.86546 119.97266 835.00977 C 123.14288 836.89315 123.38526 837.15202 122.54102 837.73242 C 120.43989 839.17689 111.19531 843.40549 111.19531 842.92188 C 111.19531 841.94053 115.51273 832.96111 115.99219 832.94531 z "
       id="path4144" />
    <path
       style="fill:#000000"
       d="M 229.65039 739.33203 C 224.1981 739.33203 219.61747 741.42964 217.62695 744.83789 C 216.90894 746.06728 216.44013 747.07227 216.58594 747.07227 C 216.73175 747.07227 218.74185 746.39479 221.05078 745.56641 C 227.01461 743.42671 234.78607 743.39328 238.79492 745.48828 C 242.18843 747.26171 242.34999 747.0969 240.36719 743.88867 C 238.41897 740.73637 235.1164 739.33203 229.65039 739.33203 z M 242.17188 741.74609 C 242.10943 741.74577 242.05347 741.79749 242.01172 741.91016 C 241.84471 742.36084 242.38393 744.95169 243.20898 747.66797 L 244.70898 752.60742 L 243.24414 755.91992 C 242.13242 758.43314 241.96998 759.46569 242.57227 760.19141 C 243.52904 761.34424 243.61338 761.35028 245.41016 760.38867 C 246.65358 759.72321 246.77242 759.1774 246.37891 755.99023 C 245.62286 749.86666 244.53153 744.96094 243.92383 744.96094 C 243.60617 744.96094 243.11329 744.09175 242.83008 743.02734 C 242.61767 742.22899 242.35921 741.74707 242.17188 741.74609 z M 213.00977 746.68945 C 212.90714 746.67087 212.80304 746.6756 212.69922 746.70703 C 212.24743 746.84379 211.00745 747.14625 209.94531 747.37891 C 208.88317 747.61158 208.09105 748.16811 208.18555 748.61719 C 208.28005 749.06628 207.46805 749.7631 206.38086 750.16406 C 204.8299 750.73604 204.25342 750.6715 203.70117 749.86328 C 202.78903 748.52835 203.48995 753.77036 204.9043 758.85547 L 205.93164 762.54492 L 208.35156 760.9668 C 210.59164 759.50669 210.74618 759.17885 210.40039 756.57422 C 210.03821 753.84608 210.07929 753.88315 211.75977 757.82227 C 212.71345 760.05773 213.88182 762.35507 214.35547 762.92578 C 215.0528 763.76602 215.00413 763.96289 214.09961 763.96289 C 212.56839 763.96289 211.32795 766.52019 211.68359 768.94336 C 211.87269 770.23178 211.62387 771.08227 210.98828 771.32617 C 210.44472 771.53475 210.12378 772.0725 210.27344 772.52148 C 210.42311 772.97046 209.81542 774.1239 208.92383 775.08594 C 205.97223 778.27076 207.00598 784.05843 211.21094 787.89062 C 213.07305 789.58768 213.1287 789.59574 212.76758 788.12695 C 212.49487 787.01775 212.769 786.50443 213.7793 786.24023 C 215.62643 785.75719 215.15864 783.3837 213.16016 783.09766 C 212.17612 782.95682 211.51888 783.32857 211.28711 784.1543 C 211.09065 784.85428 210.98378 783.14781 211.05078 780.36328 C 211.15294 776.11535 211.37919 775.2475 212.45703 774.96289 C 213.33152 774.73198 213.66954 774.10159 213.51367 772.98828 C 213.20562 770.78817 215.57358 770.4601 217.99805 772.36719 C 219.74026 773.73763 219.80764 774.05927 219.64844 780.23047 C 219.50715 785.7076 219.27187 786.83396 218.06836 787.80469 C 216.32912 789.20756 215.58095 791.18339 216.13086 792.91602 C 216.70964 794.73956 217.9881 794.56024 222.47266 792.0293 C 225.16512 790.50978 226.78053 789.01258 227.72656 787.1582 C 228.72999 785.19133 228.86094 784.40145 228.22461 784.1875 C 227.74813 784.02729 229.02264 783.49661 231.05469 783.00781 C 234.32617 782.22089 234.75616 781.90539 234.81836 780.25391 L 234.88867 778.38867 L 235.37695 780.14453 C 236.41047 783.85888 240.72977 782.07056 243.23828 776.88867 C 244.26528 774.76718 244.87919 771.84435 245.125 767.9043 C 245.47825 762.24219 245.43912 762.05044 243.84961 761.63477 C 242.08682 761.17379 240.37891 762.16049 240.37891 763.63867 C 240.37891 765.24977 234.09314 767.08984 228.5918 767.08984 C 224.44708 767.08984 223.5324 767.28357 223.8418 768.08984 C 224.17026 768.94583 224.04827 768.94857 222.99023 768.10938 C 219.09476 765.01963 217.15013 762.8768 217.47461 762.03125 C 217.68954 761.47114 217.00312 760.59177 215.82227 759.91406 C 214.71117 759.27638 213.76314 758.10581 213.71484 757.3125 C 213.66646 756.51919 213.47462 753.96882 213.28906 751.64648 C 213.05919 748.76962 213.15658 747.87306 213.5957 748.83203 C 213.95019 749.60614 214.26382 749.87013 214.29102 749.41797 C 214.37055 748.096 213.72812 746.81951 213.00977 746.68945 z M 215.71289 749.18359 C 214.87637 749.18359 214.07249 752.40368 214.66797 753.36719 C 215.33981 754.45424 216.23749 754.27539 216.74414 752.95508 C 217.27324 751.57625 216.61866 749.18359 215.71289 749.18359 z M 201.13672 749.30469 C 201.0112 749.34135 201.02572 749.65381 201.17969 750.24023 C 201.38292 751.01434 201.75779 752.91466 202.01172 754.46289 C 202.26565 756.01112 202.95763 759.43626 203.54883 762.07617 C 204.14004 764.71609 204.7847 766.71531 204.98242 766.51758 C 205.5205 765.9795 202.32795 750.3495 201.51367 749.53516 C 201.33776 749.35923 201.21203 749.28269 201.13672 749.30469 z M 207.04297 751.35938 C 207.38579 751.33075 207.71573 751.42667 207.97461 751.68555 C 208.36506 752.076 208.88755 753.41432 209.13672 754.66016 C 209.55597 756.75643 209.45072 756.92578 207.7207 756.92578 C 205.87888 756.92578 205.4622 756.44611 205.04883 753.85156 C 204.85618 752.64231 206.01451 751.44526 207.04297 751.35938 z M 199.74023 752.09766 C 199.12026 752.18845 197.74655 753.85067 196.68945 755.86914 C 196.28404 756.64326 196.94457 756.21871 198.1582 754.92383 C 199.37182 753.62894 200.18211 752.38524 199.95703 752.16016 C 199.90233 752.10546 199.8288 752.08469 199.74023 752.09766 z M 200.54102 755.68359 C 199.08525 755.55234 195.87837 759.7614 196.36523 761.4043 C 196.61033 762.23137 197.66599 766.15386 198.71094 770.12109 C 200.60311 777.30494 200.61613 777.32679 201.89258 775.75 L 203.17578 774.16602 L 202.39844 775.75 C 201.48219 777.62024 201.5058 777.62574 204.63477 776.31836 C 208.35502 774.76393 209.12732 773.48235 207.16992 772.11133 C 205.65731 771.05186 205.48734 771.07993 204.33398 772.57617 C 203.11949 774.15171 203.11571 774.14623 203.92969 771.93945 C 204.55475 770.24435 204.55565 769.06406 203.93359 767.01172 C 203.48383 765.52788 202.7707 762.50008 202.34766 760.28125 C 201.92462 758.06242 201.23066 756.03159 200.80664 755.76953 C 200.72676 755.72016 200.63807 755.69234 200.54102 755.68359 z M 210.14453 761.22656 C 209.60285 761.19598 208.92638 761.63416 208.02344 762.53711 C 206.19479 764.36576 205.5856 766.99522 206.56445 768.82422 C 207.65994 770.87117 210.11719 770.78031 210.11719 768.69336 C 210.11719 767.81184 210.55297 766.46659 211.08398 765.70312 C 211.72607 764.77996 211.85002 763.78351 211.45703 762.73047 C 211.09337 761.75602 210.68622 761.25714 210.14453 761.22656 z M 238.26758 763.59961 C 238.22442 763.58904 238.10955 763.61664 237.91602 763.6875 C 235.50518 764.57021 225.27171 764.83561 222.55664 764.08594 C 219.3563 763.20228 219.19963 763.69618 222.25781 765.02539 C 225.78112 766.55676 233.87225 766.31726 236.85938 764.59375 C 237.8754 764.00752 238.39706 763.63132 238.26758 763.59961 z M 247.3418 766.11328 C 247.26304 766.10109 247.20568 766.11241 247.17773 766.15039 C 246.92318 766.49636 244.5796 776.79172 244.5918 777.50977 C 244.61232 778.71032 246.71027 777.91013 248.06836 776.18359 C 249.86506 773.89947 250.10219 768.13064 248.45508 766.76367 C 248.01262 766.39646 247.57808 766.14985 247.3418 766.11328 z M 254.91406 766.25977 C 254.54722 766.23962 254.10223 766.31277 253.55078 766.45117 C 251.18975 767.04375 250.44583 768.89404 252.36719 769.39648 C 253.80034 769.77126 253.8005 769.77631 252.29883 770.82812 C 251.10733 771.66269 250.99044 772.00995 251.74219 772.48633 C 252.87296 773.20288 253.57033 773.23497 255.70117 772.66406 C 257.10923 772.2868 257.24648 771.92945 256.84766 769.68164 C 256.41005 767.21533 256.0146 766.32019 254.91406 766.25977 z M 258.11133 766.77344 C 257.0155 766.78622 257.17973 767.16708 258.37891 772.43945 C 259.36059 776.75557 259.61114 777.20331 260.5332 776.28125 C 263.27519 773.53926 261.94287 766.77734 258.66016 766.77734 C 258.45155 766.77734 258.26788 766.77161 258.11133 766.77344 z M 217.47852 767.11133 C 217.64569 767.07266 218.73713 767.84132 220.83398 769.45898 C 223.43832 771.46813 226.05174 773.11133 226.64062 773.11133 C 228.22418 773.11133 227.93861 771.3241 226.16797 770.14844 L 224.62695 769.12305 L 226.12305 768.73242 C 229.91341 767.74123 232.216 773.25659 228.96289 775.53516 C 228.10265 776.13769 227.22262 776.63086 227.00781 776.63086 C 225.88292 776.63086 223.59383 774.33229 223.21484 772.82227 C 222.97618 771.8714 222.20507 770.91128 221.5 770.6875 C 220.79493 770.46373 219.29076 769.27356 218.1582 768.04297 C 217.61108 767.44849 217.37821 767.13453 217.47852 767.11133 z M 237.5625 768.18555 C 238.72367 768.18555 239.67383 768.53582 239.67383 768.96484 C 239.67383 769.44546 240.34954 769.5748 241.43359 769.30273 C 242.94237 768.92405 243.19336 769.10166 243.19336 770.54297 C 243.19336 771.93838 242.74579 772.298 240.55469 772.66016 C 236.74682 773.28957 236.35293 773.23331 235.87891 771.99805 C 234.87 769.36888 235.39239 768.18555 237.5625 768.18555 z M 233.66406 769.8125 C 233.87062 769.94504 234.18488 771.09797 234.41211 772.61328 C 234.67186 774.34506 234.75442 776.35338 234.59766 777.07617 C 234.44089 777.79897 234.06888 776.54136 233.76953 774.2832 C 233.47018 772.02503 233.38561 770.01672 233.58203 769.82031 C 233.60658 769.79576 233.63455 769.79357 233.66406 769.8125 z M 228.91992 769.85352 C 228.57132 769.78603 228.43722 770.35833 228.55469 771.46289 C 228.73801 773.18679 228.49913 773.49452 226.82031 773.6875 C 225.74934 773.81061 225.05441 774.20569 225.27734 774.56641 C 226.36026 776.3186 229.82227 774.13176 229.82227 771.69531 C 229.82227 770.97169 229.48927 770.17357 229.08203 769.92188 C 229.02359 769.88576 228.96972 769.86316 228.91992 769.85352 z M 239.83789 770.29688 C 237.45774 770.29688 236.98317 770.50538 237.32812 771.4043 C 237.6341 772.20164 238.26967 772.38532 239.59375 772.05859 C 242.83452 771.25889 242.96819 770.29688 239.83789 770.29688 z M 263.60156 773.11133 C 262.8188 773.11133 262.63047 776.12852 263.36719 776.86523 C 264.16225 777.66029 264.30469 777.40908 264.30469 775.22266 C 264.30469 774.06149 263.98862 773.11133 263.60156 773.11133 z M 215.68359 773.39844 C 214.95246 773.32324 214.33984 773.73987 214.33984 774.56055 C 214.33984 774.92477 215.19941 775.22266 216.25 775.22266 C 218.00998 775.22266 218.07083 775.13332 217.02148 774.08398 C 216.6034 773.66589 216.12228 773.44356 215.68359 773.39844 z M 256.39258 773.49609 C 255.94816 773.47742 255.42045 773.53847 254.83398 773.69531 C 252.25196 774.38586 251.79096 775.61291 253.89648 776.18945 C 255.25188 776.56059 255.3406 776.74784 254.45312 777.36523 C 253.61356 777.94925 253.75699 778.05684 255.15625 777.89258 C 256.12389 777.77899 256.86458 777.36948 256.80078 776.98242 C 256.73693 776.59536 257.0243 775.86937 257.43945 775.36914 C 258.30588 774.32516 257.72585 773.55211 256.39258 773.49609 z M 250.66211 775.35742 C 250.41162 775.29595 249.68677 775.88707 248.19141 777.26758 C 246.60416 778.73291 245.30469 780.1567 245.30469 780.43164 C 245.30469 780.70657 246.0089 780.43847 246.86914 779.83594 C 248.64189 778.59426 249.82527 778.39443 249.17578 779.44531 C 248.93657 779.83237 249.07643 780.14844 249.48633 780.14844 C 249.89623 780.14844 250.23423 779.59532 250.24023 778.91797 C 250.24551 778.24062 250.4368 776.99197 250.66406 776.14453 C 250.79252 775.6655 250.8124 775.3943 250.66211 775.35742 z M 214.50195 777.33398 C 212.86067 777.33398 211.52539 778.65995 211.52539 780.28906 C 211.52539 781.8718 214.48123 782.02677 215.74023 780.50977 C 216.86444 779.15517 216.15388 777.33398 214.50195 777.33398 z M 261.55273 777.55078 C 261.38761 777.54147 261.19171 777.57784 260.96289 777.66797 C 260.28554 777.93479 258.04603 778.33213 255.98633 778.55078 C 252.37515 778.93414 252.25671 779.01307 252.68164 780.7793 C 252.924 781.78669 253.66025 783.02236 254.31641 783.52344 C 255.92023 784.7482 258.67175 784.01249 260.61133 781.8418 C 262.32116 779.92822 262.70863 777.61598 261.55273 777.55078 z M 203.13281 778.03711 C 202.13314 778.03711 200.26562 782.27976 200.26562 784.55078 C 200.26562 785.67847 200.69944 786.21576 201.67188 786.28906 C 202.77091 786.37184 203.08008 785.96171 203.08008 784.41602 C 203.08008 783.32728 203.27762 781.44589 203.51953 780.23633 C 203.81268 778.77058 203.68442 778.03711 203.13281 778.03711 z M 205.57227 778.33984 C 205.45214 778.37867 205.31887 778.64145 205.14062 779.09375 C 204.22199 781.42477 204.42152 784.66653 205.58398 786.32617 C 206.6935 787.91028 206.34767 788.25354 203.95898 787.94336 C 203.47516 787.88053 203.08008 788.17666 203.08008 788.60352 C 203.08008 789.03713 202.69262 789.14681 202.20117 788.85156 C 201.60347 788.49245 201.63083 788.70461 202.28711 789.51367 C 202.84906 790.20645 204.24595 790.70508 205.62891 790.70508 C 207.69513 790.70508 208.00586 790.47469 208.00586 788.94531 C 208.00586 787.97767 208.31154 787.18555 208.68555 787.18555 C 209.05955 787.18555 208.77433 786.15638 208.05078 784.89844 C 207.32723 783.64051 206.50066 781.50315 206.21484 780.14844 C 205.93651 778.82923 205.77248 778.27513 205.57227 778.33984 z M 243.03906 781.59961 C 242.72213 781.57691 242.40057 781.83477 242.07031 782.36914 C 241.7592 782.87253 241.87748 782.9908 242.38086 782.67969 C 242.9073 782.35433 243.19336 782.76223 243.19336 783.83789 C 243.19336 784.75097 243.56738 785.87206 244.02539 786.33008 C 245.31431 787.619 245.52494 786.81692 244.61719 784.06641 C 244.08498 782.45381 243.56728 781.63745 243.03906 781.59961 z M 240.40039 782.42969 C 240.24561 782.42145 240.06356 782.4473 239.85156 782.50586 C 239.17421 782.69293 237.08321 783.05483 235.20508 783.31055 L 231.78906 783.77539 L 233.26953 785.34961 C 234.08325 786.21578 234.74805 787.3009 234.74805 787.75977 C 234.74805 788.85197 235.08802 788.81518 237.77344 787.43945 C 240.34293 786.12309 241.05697 785.25956 241.07227 783.44336 C 241.07783 782.78289 240.86472 782.4544 240.40039 782.42969 z M 217.57031 785.33008 C 217.00647 785.3286 216.47345 785.9479 216.83398 786.53125 C 217.05667 786.89156 217.53618 787.18555 217.90039 787.18555 C 218.65698 787.18555 218.78239 786.23161 218.11328 785.5625 C 217.95082 785.40004 217.75826 785.33057 217.57031 785.33008 z M 215.02539 786.48242 C 213.99439 786.48242 212.78394 790.03515 213.36523 791.35352 C 213.77414 792.28092 213.906 792.2324 214.16602 791.05664 C 214.33722 790.28253 214.76183 789.34817 215.11133 788.98047 C 215.97147 788.07552 215.91655 786.48242 215.02539 786.48242 z M 231.48633 787.14258 C 230.35734 787.21047 228.66341 787.93442 227.6582 789.00781 C 226.71985 790.00981 223.1007 792.5819 219.61719 794.72266 C 210.67624 800.21723 208.69092 801.8021 209.17383 803.06055 C 209.53853 804.01101 209.76396 804.00838 211.23438 803.04492 C 212.14166 802.45045 213.26039 801.96484 213.72266 801.96484 C 214.18493 801.96484 216.18778 800.73823 218.17188 799.24023 C 220.15598 797.74222 223.59101 795.49542 225.80469 794.24609 C 229.55009 792.13232 232.63672 789.21686 232.63672 787.79492 C 232.63672 787.29781 232.16372 787.10184 231.48633 787.14258 z M 243.36133 787.69727 C 242.0178 787.52594 239.37565 788.941 234.39648 792.44531 C 231.74407 794.31206 229.0212 795.59784 227.07227 795.90234 C 222.85514 796.56125 219.80168 798.42743 220.23438 800.08203 C 220.47067 800.98563 220.27005 801.25635 219.56641 800.98633 C 219.01407 800.77438 218.5625 800.87318 218.5625 801.20508 C 218.5625 801.53699 218.00743 801.76474 217.33008 801.71094 C 216.30555 801.62962 216.06224 802.32327 215.875 805.83594 C 215.75122 808.15828 215.99174 811.21481 216.41016 812.62891 C 217.04566 814.77664 217.43 815.14408 218.74609 814.86328 C 220.20763 814.55144 220.23228 814.60066 219.08984 815.53711 C 217.7568 816.6298 217.38117 817.82549 218.60938 817.06641 C 219.02295 816.8108 219.53519 817.26607 219.74805 818.08008 C 219.96067 818.89314 220.47474 819.55859 220.89062 819.55859 C 221.30652 819.55859 221.03258 820.01861 220.28125 820.58008 L 220.28125 820.57812 C 219.31484 821.30033 220.25221 821.1812 223.48828 820.16797 C 226.83371 819.12025 229.12748 818.84062 232.02344 819.12695 L 235.98242 819.51758 L 236.42773 816.73047 C 236.67284 815.19747 236.66443 812.16062 236.4082 809.98047 C 235.83606 805.11245 232.58791 800.32961 229.61719 799.98242 C 228.56924 799.85994 227.71094 799.44474 227.71094 799.06055 C 227.71094 798.67636 228.06381 798.57974 228.49414 798.8457 C 228.92448 799.11166 229.55662 798.89278 229.90039 798.35938 C 230.42465 797.54598 230.63618 797.55995 231.20508 798.44531 C 231.80381 799.37707 232.01399 799.36855 233.00977 798.37305 C 233.63022 797.75277 234.22404 796.66618 234.32812 795.95703 C 234.53306 794.56072 242.23776 788.10885 242.9043 788.77539 C 243.12739 788.99849 242.72914 789.76481 242.01953 790.47852 C 241.30993 791.19222 240.01736 792.68632 239.14648 793.79883 C 238.2416 794.95477 237.5625 795.38761 237.5625 794.81055 C 237.5625 794.25518 237.95954 793.35702 238.44336 792.81445 C 239.19172 791.9752 239.13951 791.96697 238.0918 792.75977 C 237.41445 793.27232 236.85938 793.99207 236.85938 794.35938 C 236.85938 794.72669 236.3713 795.51737 235.77344 796.11523 C 234.58953 797.29914 234.78743 798.90749 236.08203 798.61719 C 236.81808 798.45214 236.70458 800.1381 235.77539 803.17383 C 235.33986 804.5967 236.71811 804.89892 237.54688 803.5625 C 238.25864 802.41478 238.30087 802.42851 238.08594 803.72461 C 237.8219 805.31685 240.1756 807.80384 241.29297 807.11328 C 241.75289 806.82903 241.84595 807.12567 241.54492 807.91016 C 241.1886 808.83873 241.33846 809.05332 242.12891 808.75 C 242.80323 808.49124 243.19336 808.75299 243.19336 809.46289 C 243.19336 810.425 243.35723 810.44515 244.36328 809.61523 C 245.43053 808.73484 245.45543 808.79882 244.64453 810.32031 C 243.87385 811.76634 243.94706 812.17949 245.18164 813.41406 C 246.55843 814.79085 246.64845 814.79491 247.88281 813.56055 C 249.11716 812.32619 249.09541 812.3 247.23242 812.76758 C 244.62667 813.42158 244.70989 812.08157 247.4668 808.97461 L 249.62891 806.53906 L 247.82422 809.06055 C 246.09896 811.47197 246.08395 811.5765 247.4668 811.47461 C 248.35628 811.40909 249.59797 810.21712 250.69531 808.37695 C 252.79245 804.86021 253.50725 804.91206 252.01953 808.47266 C 251.04639 810.80172 251.07237 811.09953 252.41211 812.80273 C 253.60308 814.31681 254.43156 814.63281 257.2168 814.63281 C 262.44298 814.63281 265.49968 811.09071 264.88867 805.74414 C 264.66262 803.76614 264.56953 803.72545 260.43555 803.75195 C 258.11321 803.76681 255.5788 804.06226 254.80469 804.41016 C 253.56388 804.9678 253.50886 804.90761 254.33398 803.89258 C 254.84877 803.25933 256.35205 802.38219 257.67578 801.94531 C 260.50221 801.01251 260.66574 800.39655 258.46875 798.95703 C 257.08466 798.05018 256.66485 798.03947 255.51953 798.87695 C 253.76445 800.1603 250.62643 800.12196 249.5332 798.80469 C 249.05488 798.22838 248.3495 797.95171 247.96484 798.18945 C 247.22317 798.64782 247.8083 796.12883 248.88672 794.22266 C 249.34174 793.41838 249.48956 793.57285 249.50586 794.87109 C 249.53207 796.95792 251.40036 799.15039 253.1543 799.15039 C 255.00217 799.15039 254.76707 797.88478 252.86914 797.61523 C 251.62815 797.43898 251.23569 796.8579 251.05273 794.92969 C 250.75825 791.82599 250.05243 790.98588 247.27148 790.42969 C 245.46264 790.06792 244.67651 790.34033 243.06445 791.88477 C 240.55715 794.28692 240.45628 793.12527 242.93945 790.44727 C 244.37974 788.89399 244.58499 788.31564 243.85938 787.86719 C 243.71739 787.77943 243.55326 787.72174 243.36133 787.69727 z M 209.92383 790.04492 C 209.22737 790.10079 208.09754 790.76182 206.58398 792.02539 C 204.27905 793.94963 204.20761 794.1427 205.15039 795.9043 C 205.88162 797.2706 206.5023 797.64522 207.51367 797.32422 C 208.53982 796.99853 208.74565 797.12957 208.32617 797.84375 C 208.01764 798.36904 208.49463 798.16473 209.38672 797.39062 L 211.00781 795.98242 L 210.51562 797.56641 C 209.87316 799.63068 211.2466 799.65536 213.41406 797.61914 C 215.50003 795.65947 215.69877 793.11968 213.68164 794.19922 C 211.77287 795.22076 211.20479 795.10567 212.20508 793.90039 C 212.90813 793.05329 212.81943 792.91866 211.69727 793.13477 C 210.59205 793.34761 210.39655 793.07821 210.66016 791.69922 C 210.88189 790.53928 210.62029 789.98905 209.92383 790.04492 z M 231.0625 792.58789 C 230.74087 792.50425 229.99002 792.71762 229.11914 793.16797 C 227.95796 793.76843 227.00781 794.41016 227.00781 794.59375 C 227.00781 795.16101 228.44113 794.96346 229.86914 794.19922 C 230.61781 793.79854 231.23047 793.15681 231.23047 792.77344 C 231.23047 792.67759 231.16971 792.61577 231.0625 792.58789 z M 220.47656 803.24609 C 221.00265 803.28194 221.37695 803.47549 221.37695 803.85547 C 221.37695 804.0315 220.90285 804.65184 220.32227 805.23242 C 219.68154 805.87314 219.26562 805.97278 219.26562 805.48633 C 219.26562 804.99258 218.69898 804.86551 217.78906 805.1543 C 216.34955 805.61119 216.34524 805.58803 217.61328 804.2793 C 218.30191 803.56858 219.59975 803.18635 220.47656 803.24609 z M 213.125 804.56445 C 212.93746 804.55909 212.73377 804.57744 212.51562 804.61914 C 210.15905 805.06963 209.79796 805.94528 211.12891 807.97656 C 212.45039 809.99339 215.0476 810.32516 215.0332 808.47461 C 215.01244 805.81308 214.43778 804.60198 213.125 804.56445 z M 265.13867 814.29883 C 264.86516 814.31448 264.46823 814.43645 263.90039 814.65234 C 262.90359 815.03133 261.61561 815.81408 261.03711 816.39258 C 259.45464 817.97506 256.68937 818.4349 254.57812 817.46484 C 251.45669 816.03062 249.52734 815.88431 249.52734 817.08203 C 249.52734 817.67019 249.05129 818.15039 248.4707 818.15039 C 247.89012 818.15039 247.41602 818.42791 247.41602 818.76758 C 247.41602 820.0779 249.47547 820.95447 255.54492 822.22461 C 260.13795 823.18578 262.11014 823.33602 262.83203 822.78125 C 263.62389 822.17271 263.41381 821.94356 261.77734 821.63477 L 259.73047 821.25 L 262.29688 820.37305 C 264.77958 819.52538 265.67953 818.15228 265.70312 815.17773 C 265.70814 814.54372 265.59453 814.27274 265.13867 814.29883 z M 229.64258 820.44922 C 227.58254 820.39816 225.27753 820.82118 223.20898 821.76367 C 219.90327 823.27005 219.90684 828.00449 223.2168 831.31445 C 225.25625 833.3539 228.28054 833.26754 231.625 831.07617 C 234.14146 829.42732 236.31048 824.68148 235.35938 822.9043 C 234.53612 821.36603 232.2912 820.51487 229.64258 820.44922 z M 249.94727 822.07617 C 249.04176 822.03898 248.76247 822.40964 249.24805 823.19531 C 249.49435 823.59384 250.68697 824.35169 251.89844 824.87891 L 254.10156 825.83594 L 251.99023 825.875 C 248.76162 825.93361 251.20909 827.14554 255.6875 827.70508 C 257.728 827.96003 259.57986 828.4636 259.80273 828.82422 C 260.40259 829.79481 262.19531 828.06082 262.19531 826.50977 C 262.19531 825.56533 261.68675 825.1875 260.41406 825.1875 C 259.43475 825.1875 256.72833 824.38607 254.40039 823.40625 C 252.38438 822.55773 250.85277 822.11336 249.94727 822.07617 z M 237.87305 828.27148 C 236.84476 828.26153 234.97295 829.80126 233.8418 832.18164 C 233.17607 833.58256 232.04097 834.22361 228.76367 835.05273 C 225.29285 835.93082 224.51482 836.39915 224.37695 837.69141 C 224.22211 839.1428 224.49758 839.26367 227.98242 839.26367 C 233.05056 839.26367 240.2562 836.09019 238.70703 834.54102 C 238.4841 834.31808 237.81846 834.53774 237.22852 835.02734 C 236.57559 835.56923 236.15625 835.62748 236.15625 835.17773 C 236.15625 834.77138 236.98993 833.78267 238.00977 832.98047 C 239.0296 832.17826 239.46877 831.52148 238.98438 831.52148 C 238.45023 831.52148 238.2476 830.96835 238.4707 830.11523 C 238.80386 828.84122 238.49002 828.27746 237.87305 828.27148 z M 255.45117 830.81836 C 253.60314 830.81836 253.41181 832.26616 255.15625 833.05664 C 257.25385 834.00715 259.39624 833.06537 259.36914 831.20508 C 259.36321 830.79867 259.02193 830.94089 258.61133 831.52148 C 258.04953 832.31587 257.77642 832.35927 257.50781 831.69727 C 257.31149 831.21345 256.38655 830.81836 255.45117 830.81836 z M 250.87695 831.16406 C 250.49842 831.12265 250.23047 831.26179 250.23047 831.54297 C 250.23047 831.91788 250.70653 832.22656 251.28711 832.22656 C 251.8677 832.22656 252.3418 832.10133 252.3418 831.94922 C 252.3418 831.7971 251.8677 831.49038 251.28711 831.26758 C 251.14196 831.21188 251.00313 831.17787 250.87695 831.16406 z M 258.66992 834.39844 C 258.23559 834.37782 257.97266 834.83851 257.97266 835.78516 C 257.97266 836.58211 257.65464 837.04 257.26758 836.80078 C 256.88052 836.56157 256.56445 836.85946 256.56445 837.46289 C 256.56445 838.24761 257.26565 838.55859 259.02734 838.55859 C 261.77886 838.55859 261.98091 838.16526 260.39453 835.90039 C 259.70867 834.92118 259.10425 834.41906 258.66992 834.39844 z M 254.17773 836.10352 C 253.83678 836.10026 253.43955 836.32604 253.03906 836.80859 C 251.97891 838.08599 250.47329 838.16886 249.99219 836.97656 C 249.79696 836.49274 249.61253 836.75613 249.58203 837.5625 C 249.50865 839.49876 250.23228 840.13775 251.39844 839.16992 C 252.10368 838.58463 252.3418 838.61209 252.3418 839.27539 C 252.3418 839.76393 251.83865 840.532 251.22266 840.98242 C 250.2814 841.67069 250.2255 842.25731 250.87305 844.66211 C 251.84554 848.27367 254.06645 851.1227 256.85742 852.33789 C 261.94661 854.55373 265.00977 852.74099 265.00977 847.51562 C 265.00977 842.38256 261.90921 839.26367 256.81055 839.26367 C 255.64213 839.26367 255.15625 838.86121 255.15625 837.89648 C 255.15625 836.74885 254.746 836.10894 254.17773 836.10352 z M 239.69141 838.0332 C 239.63064 838.0391 239.56517 838.05579 239.49805 838.08203 C 239.01423 838.27115 236.24473 838.96887 233.3418 839.63281 C 230.43887 840.29674 227.67261 840.94789 227.19531 841.08008 C 226.68398 841.22171 226.52043 841.82258 226.79688 842.54297 C 227.08659 843.29798 227.37312 843.44313 227.54688 842.92188 C 227.70162 842.45763 228.67294 842.10231 229.70508 842.13281 C 230.73725 842.16336 231.18499 842.3497 230.70117 842.54492 C 230.21735 842.74014 229.82227 843.19012 229.82227 843.54492 C 229.82227 844.36062 229.62853 844.37917 233.83203 843.13086 C 235.7912 842.54906 237.78443 841.60244 238.26172 841.02734 C 238.73902 840.45226 239.41071 840.15507 239.75391 840.36719 C 240.09711 840.5793 240.37891 840.07531 240.37891 839.24609 C 240.37891 838.44078 240.11675 837.99193 239.69141 838.0332 z M 238.4668 844.24805 C 238.12702 844.19043 238.28073 844.33634 238.91602 844.7793 C 239.70483 845.3293 239.39432 845.69428 237.44727 846.50781 C 236.08928 847.07521 234.2881 847.75985 233.44531 848.02734 C 232.60253 848.29483 232.09549 848.80736 232.31836 849.16797 C 233.26205 850.69489 240.02734 847.54643 240.02734 845.58008 C 240.02734 845.07353 239.55128 844.52958 238.9707 844.37109 C 238.74724 844.31009 238.58006 844.26725 238.4668 844.24805 z M 242.58594 850.09766 C 242.25625 850.11347 241.90203 850.16491 241.52344 850.25195 C 240.31339 850.53016 238.6981 850.78411 237.93555 850.81641 C 237.173 850.84874 235.68096 851.85267 234.61914 853.04883 C 232.8847 855.0027 232.75908 855.48081 233.38672 857.75391 C 233.77095 859.1455 235.05093 861.09732 236.23047 862.08984 L 238.375 863.89453 C 238.375 863.89453 238.65809 864.36489 241.25586 863.9082 C 241.89032 863.79667 242.39669 863.18634 243.37891 863.01367 C 244.99038 861.78997 246.00781 858.72745 246.00781 855.10156 C 246.00781 851.62661 244.89376 849.98698 242.58594 850.09766 z "
       id="path4170" />
    <path
       style="font-style:normal;font-variant:normal;font-weight:bold;font-stretch:normal;font-size:33.37101364px;line-height:125%;font-family:Aharoni;-inkscape-font-specification:'Aharoni Bold';letter-spacing:0px;word-spacing:0px;fill:#000000;fill-opacity:1;stroke:none;stroke-width:1px;stroke-linecap:butt;stroke-linejoin:miter;stroke-opacity:1"
       d="M 337.70117 399.06055 C 334.68127 399.06055 332.03122 400.06653 329.75 402.07617 C 327.15375 404.36826 325.85547 407.46348 325.85547 411.36328 C 325.85547 415.27395 327.15375 418.37588 329.75 420.66797 C 332.03122 422.67762 334.68127 423.68164 337.70117 423.68164 C 340.73194 423.68164 343.3887 422.67762 345.66992 420.66797 C 348.26617 418.37588 349.56445 415.27395 349.56445 411.36328 C 349.56445 407.45261 348.26617 404.35067 345.66992 402.05859 C 344.63794 401.1461 343.39314 400.41815 341.9375 399.875 C 340.49273 399.33185 339.08077 399.06055 337.70117 399.06055 z M 337.70117 405.07422 C 338.42899 405.07422 339.14548 405.20414 339.85156 405.46484 C 341.08994 405.92109 342.07968 406.68629 342.81836 407.76172 C 343.56791 408.83715 343.94141 410.038 343.94141 411.36328 C 343.94141 413.28603 343.21345 414.8881 341.75781 416.16992 C 340.61721 417.16932 339.26544 417.66992 337.70117 417.66992 C 336.16949 417.66992 334.82249 417.16932 333.66016 416.16992 C 332.20452 414.92068 331.47656 413.31861 331.47656 411.36328 C 331.47656 409.40795 332.20928 407.81064 333.67578 406.57227 C 334.85985 405.57287 336.20209 405.07422 337.70117 405.07422 z M 326.6543 427.36523 L 326.6543 433.14844 L 340.27539 433.14844 L 326.6543 443.78906 L 326.6543 449.57422 L 348.89648 449.57422 L 348.89648 443.78906 L 335.28906 443.78906 L 348.89648 433.14844 L 348.89648 427.36523 L 326.6543 427.36523 z M 326.6543 454.2168 L 326.6543 466.87891 L 331.49414 466.87891 L 331.49414 460.00195 L 335.45312 460.00195 L 335.45312 466.50391 L 340.29297 466.50391 L 340.29297 460.00195 L 344.05664 460.00195 L 344.05664 466.87891 L 348.89648 466.87891 L 348.89648 454.2168 L 326.6543 454.2168 z M 326.6543 478.83789 L 326.6543 484.58984 L 339.46094 486.48047 L 326.6543 491.61328 L 326.6543 493.91016 L 339.46094 499.28906 L 326.6543 500.93359 L 326.6543 506.71875 L 348.89648 503.36133 L 348.89648 497.60938 L 337.0332 492.83594 L 348.89648 488.32227 L 348.89648 482.61914 L 326.6543 478.83789 z M 337.70117 509.40625 C 334.68127 509.40625 332.03122 510.41223 329.75 512.42188 C 327.15375 514.71396 325.85547 517.80918 325.85547 521.70898 C 325.85547 525.61965 327.15375 528.72159 329.75 531.01367 C 332.03122 533.02333 334.68127 534.02734 337.70117 534.02734 C 340.73194 534.02734 343.3887 533.02333 345.66992 531.01367 C 348.26617 528.72159 349.56445 525.61965 349.56445 521.70898 C 349.56445 517.79832 348.26617 514.69638 345.66992 512.4043 C 344.63794 511.49181 343.39314 510.7658 341.9375 510.22266 C 340.49273 509.67951 339.08077 509.40625 337.70117 509.40625 z M 337.70117 515.41992 C 338.42899 515.41992 339.14548 515.54983 339.85156 515.81055 C 341.08994 516.26679 342.07968 517.03199 342.81836 518.10742 C 343.56791 519.18286 343.94141 520.3837 343.94141 521.70898 C 343.94141 523.63172 343.21345 525.23379 341.75781 526.51562 C 340.61721 527.51502 339.26544 528.01562 337.70117 528.01562 C 336.16949 528.01562 334.82249 527.51502 333.66016 526.51562 C 332.20452 525.26639 331.47656 523.66432 331.47656 521.70898 C 331.47656 519.75365 332.20928 518.15635 333.67578 516.91797 C 334.85985 515.91858 336.20209 515.41992 337.70117 515.41992 z M 326.6543 537.71094 L 326.6543 543.49414 L 335.19141 543.49414 L 326.6543 549.00195 L 326.6543 556.20508 L 335.7793 549.21484 C 336.0726 550.52926 336.5942 551.56101 337.34375 552.31055 C 338.51695 553.48375 340.08654 554.07031 342.05273 554.07031 C 343.76909 554.07031 345.26224 553.56018 346.5332 552.53906 C 348.10833 551.27896 348.89648 549.33391 348.89648 546.70508 L 348.89648 537.71094 L 326.6543 537.71094 z M 338.93945 543.49414 L 344.49609 543.49414 L 344.49609 544.57031 C 344.49609 545.77611 344.24103 546.65021 343.73047 547.19336 C 343.18732 547.7691 342.51956 548.05664 341.72656 548.05664 C 340.93356 548.05664 340.25909 547.7691 339.70508 547.19336 C 339.19452 546.66107 338.93945 545.78697 338.93945 544.57031 L 338.93945 543.49414 z M 326.6543 558.63281 L 326.6543 571.29297 L 331.49414 571.29297 L 331.49414 564.41797 L 335.45312 564.41797 L 335.45312 570.91797 L 340.29297 570.91797 L 340.29297 564.41797 L 344.05664 564.41797 L 344.05664 571.29297 L 348.89648 571.29297 L 348.89648 558.63281 L 326.6543 558.63281 z M 326.6543 584.24805 L 326.6543 590.03125 L 334.01953 590.03125 L 334.01953 593.64844 C 334.01953 596.49454 334.87069 598.53225 336.57617 599.75977 C 337.89059 600.70485 339.55285 601.17773 341.5625 601.17773 C 343.60474 601.17773 345.28324 600.59117 346.59766 599.41797 C 348.12934 598.0601 348.89648 596.0711 348.89648 593.45312 L 348.89648 584.24805 L 326.6543 584.24805 z M 338.69531 590.03125 L 344.21875 590.03125 L 344.21875 591.9707 C 344.21875 593.13304 343.96844 593.95367 343.46875 594.43164 C 342.97992 594.92047 342.32363 595.16406 341.49805 595.16406 C 340.6616 595.16406 339.9986 594.95296 339.50977 594.5293 C 338.96662 594.06219 338.69531 593.20432 338.69531 591.95508 L 338.69531 590.03125 z M 326.6543 602.1543 L 326.6543 608.26562 L 330.53125 609.79688 L 330.53125 617.78125 L 326.6543 619.21484 L 326.6543 625.39062 L 348.89648 617.01562 L 348.89648 610.70898 L 326.6543 602.1543 z M 334.93164 611.39453 L 342.01953 613.82227 L 334.93164 616.2168 L 334.93164 611.39453 z M 337.68555 626.9707 C 334.76341 626.9707 332.24804 627.7961 330.14062 629.44727 C 327.35971 631.63073 325.96875 634.76514 325.96875 638.84961 C 325.96875 641.35895 326.56679 643.53135 327.76172 645.36719 C 329.01096 647.26821 330.79166 648.63144 333.10547 649.45703 C 334.62628 650.00018 336.59429 650.27148 339.00586 650.27148 L 339.00586 638.80078 L 334.60547 638.80078 L 334.60547 643.54297 C 333.49745 643.36916 332.66058 643.00042 332.0957 642.43555 C 331.23753 641.57737 330.80859 640.41377 330.80859 638.94727 C 330.80859 637.2961 331.33497 635.97681 332.38867 634.98828 C 333.80086 633.65214 335.56727 632.98438 337.68555 632.98438 C 338.70667 632.98438 339.69445 633.16777 340.65039 633.53711 C 343.24664 634.52564 344.54492 636.27581 344.54492 638.78516 C 344.54492 640.01267 344.17618 641.07213 343.4375 641.96289 C 342.91608 642.58208 342.13269 643.12469 341.08984 643.5918 L 343.35547 649.08203 C 345.2239 648.15868 346.63586 647.04574 347.5918 645.74219 C 348.9388 643.91721 349.61328 641.69134 349.61328 639.0625 C 349.61328 635.13011 348.357 632.06541 345.84766 629.87109 C 343.64248 627.93749 340.92271 626.9707 337.68555 626.9707 z M 326.6543 653.92188 L 326.6543 666.58398 L 331.49414 666.58398 L 331.49414 659.70703 L 335.45312 659.70703 L 335.45312 666.20898 L 340.29297 666.20898 L 340.29297 659.70703 L 344.05664 659.70703 L 344.05664 666.58398 L 348.89648 666.58398 L 348.89648 653.92188 L 326.6543 653.92188 z "
       id="path4203" />
    <path
       style="fill:none;fill-opacity:1;stroke:#ff0000;stroke-width:0.85866064;stroke-linejoin:round;stroke-miterlimit:4;stroke-dasharray:none"
       d="M 85.640625 178.91992 C 77.725241 178.91992 71.353516 185.29359 71.353516 193.20898 L 71.353516 872.43555 C 71.353516 880.35093 77.725241 886.72266 85.640625 886.72266 L 162.93164 886.72266 C 170.84703 886.72266 177.21875 880.35093 177.21875 872.43555 L 177.21875 193.20898 C 177.21875 185.29359 170.84703 178.91992 162.93164 178.91992 L 85.640625 178.91992 z "
       id="rect4176" />
    <path
       style="fill:none;fill-opacity:1;stroke:#ff0000;stroke-width:0.85866064;stroke-linejoin:round;stroke-miterlimit:4;stroke-dasharray:none"
       d="M 192.36523 178.91992 C 184.44984 178.91992 178.07617 185.29359 178.07617 193.20898 L 178.07617 872.43555 C 178.07617 880.35093 184.44984 886.72266 192.36523 886.72266 L 269.6543 886.72266 C 277.56968 886.72266 283.94336 880.35093 283.94336 872.43555 L 283.94336 193.20898 C 283.94336 185.29359 277.56968 178.91992 269.6543 178.91992 L 192.36523 178.91992 z "
       id="rect4178" />
    <path
       style="fill:none;fill-opacity:1;stroke:#ff0000;stroke-width:0.85866064;stroke-linejoin:round;stroke-miterlimit:4;stroke-dasharray:none"
       d="M 299.08984 178.91992 C 291.17445 178.91992 284.80078 185.29359 284.80078 193.20898 L 284.80078 872.43555 C 284.80078 880.35093 291.17445 886.72266 299.08984 886.72266 L 376.37891 886.72266 C 384.29429 886.72266 390.66602 880.35093 390.66602 872.43555 L 390.66602 193.20898 C 390.66602 185.29359 384.29429 178.91992 376.37891 178.91992 L 299.08984 178.91992 z "
       id="rect4180" />
  </g>
</svg>
