<?xml version="1.0" encoding="UTF-8" standalone="no"?>
<!-- Created with Inkscape (http://www.inkscape.org/) -->

<svg
   xmlns:dc="http://purl.org/dc/elements/1.1/"
   xmlns:cc="http://creativecommons.org/ns#"
   xmlns:rdf="http://www.w3.org/1999/02/22-rdf-syntax-ns#"
   xmlns:svg="http://www.w3.org/2000/svg"
   xmlns="http://www.w3.org/2000/svg"
   xmlns:sodipodi="http://sodipodi.sourceforge.net/DTD/sodipodi-0.dtd"
   xmlns:inkscape="http://www.inkscape.org/namespaces/inkscape"
   width="210mm"
   height="297mm"
   viewBox="0 0 744.09448819 1052.3622047"
   id="svg2"
   version="1.1"
   inkscape:version="0.91 r13725"
   sodipodi:docname="cerb.svg">
  <defs
     id="defs4" />
  <sodipodi:namedview
     id="base"
     pagecolor="#ffffff"
     bordercolor="#666666"
     borderopacity="1.0"
     inkscape:pageopacity="0.0"
     inkscape:pageshadow="2"
     inkscape:zoom="0.49497475"
     inkscape:cx="290.67077"
     inkscape:cy="514.42321"
     inkscape:document-units="mm"
     inkscape:current-layer="layer1"
     showgrid="false"
     inkscape:window-width="1360"
     inkscape:window-height="749"
     inkscape:window-x="1436"
     inkscape:window-y="-4"
     inkscape:window-maximized="1" />
  <metadata
     id="metadata7">
    <rdf:RDF>
      <cc:Work
         rdf:about="">
        <dc:format>image/svg+xml</dc:format>
        <dc:type
           rdf:resource="http://purl.org/dc/dcmitype/StillImage" />
        <dc:title></dc:title>
      </cc:Work>
    </rdf:RDF>
  </metadata>
  <g
     inkscape:label="Layer 1"
     inkscape:groupmode="layer"
     id="layer1">
    <path
       style="fill:#000000"
       d="M 483.39453 186.84766 C 482.97175 186.958 481.96628 190.83125 481.07031 195.875 C 478.49651 210.36352 475.18923 219.1128 467.29883 232.30859 C 461.02773 242.79626 458.4707 245.99407 458.4707 243.34766 C 458.4707 242.90166 457.57858 236.03916 456.48828 228.09766 C 454.14278 211.01239 451.68206 199.04663 450.22656 197.6582 C 449.77617 197.23287 448.05201 191.77898 447.26562 197.5293 C 447.15303 200.1316 446.81552 205.90417 446.51562 220.87305 C 445.86383 253.40393 446.0249 252.9308 437.0293 248.8125 C 427.8611 244.61516 417.98876 237.42303 410.22656 229.28516 C 402.50466 221.18958 389.68058 203.70229 386.17578 196.48828 L 379.49414 191.4043 C 376.50344 189.53659 381.70597 203.23686 388.00977 213.82812 C 391.10797 219.03362 393.21737 223.65334 392.88867 224.50977 C 391.86337 227.18164 400.19911 242.63709 406.31641 249.4082 C 410.49691 254.03551 418.45707 259.61731 427.07227 263.96094 C 434.28037 267.59518 439.02414 271.39243 440.89844 275.02734 C 441.64754 276.48003 442.78841 284.37565 443.44531 292.6582 C 445.67471 320.77213 447.29691 332.38412 449.88281 338.74805 C 452.29081 344.67412 452.32027 345.07652 451.32227 358.72656 C 449.81237 379.37704 451.0514 387.45985 457.9082 401.64648 C 459.6422 405.23396 460.02644 406.98918 459.27344 407.89648 C 457.27474 410.30486 455.80524 409.11735 451.52734 401.64062 C 449.16194 397.50651 446.7874 393.85359 446.25 393.52148 C 445.7127 393.18938 442.72899 395.428 439.62109 398.49805 L 433.9707 404.08008 L 428.9707 400.97266 C 418.3274 394.35452 404.4707 380.29271 404.4707 376.11133 C 404.4707 375.14443 405.75833 373.52237 407.33203 372.50586 C 413.33093 368.63102 420.68019 358.74874 426.55469 346.6582 C 429.76149 340.0582 433.06493 332.26602 433.89453 329.3418 C 435.27013 324.49369 435.26187 324.05296 433.79688 324.3418 C 432.91328 324.51602 430.44736 327.52423 428.31836 331.02734 C 426.18946 334.53045 423.32758 338.72693 421.95898 340.35352 C 420.59028 341.98011 419.4707 343.87122 419.4707 344.55469 C 419.4707 346.71811 411.83937 356.12585 407.07227 359.83984 C 400.81267 364.71666 396.80065 364.72978 389.34375 359.89844 C 376.62085 351.65522 366.11032 336.26412 362.89062 321.1582 C 361.36643 314.00742 361.08617 296.93737 362.38867 290.6582 C 363.91367 283.30667 367.4853 269.77097 370.9668 258.1582 C 372.8631 251.8332 375.27848 242.6082 376.33398 237.6582 C 378.44208 227.77186 381.04333 206.39685 380.23633 205.58984 C 379.40023 204.75378 375.89398 213.16511 373.95508 220.6582 C 372.95898 224.5082 369.03136 234.8582 365.22656 243.6582 C 361.42186 252.4582 357.49756 261.9082 356.50586 264.6582 C 355.51426 267.4082 353.56157 272.1332 352.16797 275.1582 L 349.63477 280.6582 L 349.57031 277.1582 C 349.53471 275.2332 349.96645 269.3832 350.53125 264.1582 C 351.97465 250.80532 351.77438 232.46966 350.05078 220.29688 C 349.24398 214.59886 348.3625 209.716 348.0918 209.44531 C 347.3565 208.70998 346.75665 213.69775 345.06055 234.6582 C 343.54865 253.34325 341.64569 263.2689 337.40039 274.61523 C 336.27659 277.61901 334.59546 280.95073 333.66406 282.01953 C 332.00576 283.92238 331.7836 283.84968 322.9707 278.58594 C 311.4651 271.7139 304.9416 264.78326 299.125 253.25 C 292.1991 239.51728 291.36329 235.89554 290.74219 216.9082 C 290.44079 207.6957 289.86032 200.1582 289.45312 200.1582 C 287.42253 200.1582 284.83216 210.75895 283.35156 225.125 C 282.22216 236.08333 282.28573 237.42509 284.36523 246.42383 C 286.05933 253.75533 287.76225 257.9964 291.56445 264.34375 C 297.75695 274.68173 301.94011 278.89818 316.44141 289.43164 C 329.41121 298.85259 329.70194 299.27619 339.89844 323.41406 C 346.12394 338.15147 352.80192 349.98066 358.63672 356.60938 C 360.88672 359.16547 367.3931 365.093 373.0957 369.7832 C 378.7982 374.4734 387.4601 382.90352 392.3457 388.51562 C 403.3465 401.15226 411.77808 409.01568 420.64258 414.91016 C 427.32938 419.35659 429.16482 422.29397 426.01172 423.50391 C 424.16062 424.21426 415.88088 430.39328 409.42188 435.88672 C 403.31518 441.08047 400.63793 442.49298 391.23633 445.47852 C 386.42833 447.00537 380.23407 450.2237 373.41797 454.73438 C 361.39597 462.69009 360.00232 463.18283 348.35352 463.61914 C 340.39652 463.91717 317.2761 468.44646 314.9707 470.1582 C 314.4207 470.56657 311.4957 471.50907 308.4707 472.25391 C 305.4457 472.99875 302.47549 474.25171 301.87109 475.03711 C 301.26679 475.82251 299.27581 477.18242 297.44531 478.06055 C 295.61491 478.93868 293.35036 481.04 292.41406 482.72852 C 291.47786 484.41705 288.84871 488.24205 286.57031 491.22852 C 284.29201 494.215 282.19872 497.7832 281.91992 499.1582 C 281.64112 500.5332 280.93612 503.0082 280.35352 504.6582 C 278.42412 510.12319 277.54823 514.65414 278.36523 514.94141 C 279.37663 515.29707 278.65741 524.49764 277.25391 529.1582 C 276.67411 531.0832 274.45938 536.36043 272.33398 540.88672 C 270.20858 545.41301 268.4707 549.93629 268.4707 550.9375 C 268.4707 551.93871 267.97986 553.24858 267.38086 553.84766 C 266.01636 555.21212 265.41608 559.73534 264.76758 573.54102 C 263.93398 591.28572 266.92199 609.24268 272.55469 620.34766 C 274.26779 623.72494 282.29113 634.15189 285.49023 637.1582 C 285.78283 637.4332 287.5741 639.6832 289.4707 642.1582 C 291.3673 644.6332 293.19691 646.8832 293.53711 647.1582 C 296.15201 649.27228 301.39412 658.68948 302.45312 663.17578 C 304.50472 671.86653 309.49675 685.47198 311.43555 687.6582 C 313.15125 689.59278 314.69746 694.06618 318.00586 706.6582 C 321.46636 719.82931 322.72368 725.88078 322.98828 730.6582 C 323.14068 733.4082 323.55496 741.01902 323.91016 747.57227 C 324.26546 754.12553 324.78019 759.8508 325.05469 760.29492 C 325.77259 761.45652 329.4707 781.22864 329.4707 783.90625 C 329.4707 785.37274 328.8603 786.1677 327.7207 786.1875 C 326.054 786.21646 326.054 786.26753 327.7207 787.23828 C 329.0032 787.98526 329.46245 789.51242 329.43945 792.95703 L 329.40625 797.6582 L 326.81445 794.70898 L 324.22461 791.75977 L 324.92578 794.95898 C 325.49478 797.54956 325.31552 798.1582 323.97852 798.1582 C 322.76612 798.1582 322.41234 797.42762 322.64844 795.4082 C 322.90074 793.25102 322.5934 792.72067 321.2207 792.95117 C 319.9839 793.15883 319.4605 792.57227 319.4375 790.95117 C 319.4083 788.8463 319.2992 788.80012 318.0957 790.38477 C 316.875 791.99209 316.70672 791.95747 315.66992 789.88477 C 314.23592 787.01778 313.82027 782.99622 314.79688 781.42773 C 315.81227 779.79684 313.80001 776.1582 311.88281 776.1582 C 311.04851 776.1582 309.89476 777.51072 309.31836 779.16406 C 308.62336 781.15784 307.37684 782.38382 305.61914 782.80469 C 302.54754 783.54019 296.44265 789.70521 295.87695 792.64258 C 295.66425 793.74707 295.03587 794.80313 294.48047 794.98828 C 293.92497 795.17343 293.4707 796.13945 293.4707 797.13477 C 293.4707 800.01519 290.25592 800.61107 288.22852 798.10742 C 286.57622 796.06693 285.94765 793.03078 286.31055 788.84961 C 286.51625 786.48018 284.60112 787.68254 283.48242 790.625 C 282.19782 794.00362 273.53456 794.87707 269.84766 792 C 269.22986 791.51791 268.02558 791.39113 267.17188 791.71875 C 266.18147 792.09877 265.00749 791.38128 263.92969 789.73633 C 262.23219 787.14565 258.83953 786.07114 259.73633 788.4082 C 260.04173 789.20423 259.26385 789.68166 257.59375 789.72266 C 256.15125 789.75804 254.29947 789.98304 253.48047 790.22266 C 252.37107 790.54735 252.07123 789.95768 252.30273 787.9082 C 252.70883 784.31284 251.08 784.41491 248.3125 788.1582 C 245.887 791.43883 244.4707 791.99184 244.4707 789.6582 C 244.4707 787.85001 243.30312 787.72421 241.66992 789.35742 C 240.73652 790.29075 240.4707 790.21534 240.4707 789.01367 C 240.4707 788.16391 239.65756 786.73115 238.66406 785.83203 C 237.03136 784.35445 236.64676 784.34564 234.66406 785.73438 C 232.61886 787.16685 232.4707 787.13234 232.4707 785.21484 C 232.4707 784.05333 231.8178 783.1582 230.9707 783.1582 C 230.0884 783.1582 229.46027 784.08475 229.44727 785.4082 L 229.42578 787.6582 L 227.45508 785.1582 C 225.50358 782.68343 225.47723 782.67873 224.89062 784.79102 C 224.47383 786.29166 223.73057 786.77774 222.38477 786.42578 C 221.33217 786.15053 220.4707 785.62566 220.4707 785.25977 C 220.4707 784.89387 219.2332 784.49189 217.7207 784.36719 C 216.2082 784.24249 214.82002 783.6937 214.63672 783.14844 C 214.06112 781.43664 210.63253 782.07045 210.01953 784.00195 C 209.56403 785.43687 208.60573 785.78481 205.70312 785.5625 C 203.65052 785.4053 201.48006 785.2493 200.88086 785.2168 C 200.28166 785.18434 199.34578 784.1457 198.80078 782.9082 C 198.01118 781.11557 198.37877 779.64182 200.60938 775.6582 C 202.14928 772.9082 203.69367 769.9832 204.04297 769.1582 C 205.95537 764.64098 211.14452 755.20017 213.38672 752.1582 C 215.26082 749.61557 215.43735 749.0685 214.03125 750.1582 C 212.27175 751.52174 212.15575 751.49899 212.75195 749.9082 C 213.98365 746.62171 211.9293 748.1493 210.0625 751.9082 C 204.8057 762.493 202.85145 766.11256 199.74805 771.01562 C 197.88265 773.96281 195.53108 776.59144 194.52148 776.85547 C 193.50288 777.12183 192.43605 778.57377 192.12695 780.11914 C 191.61705 782.66894 188.87231 784.89188 187.69141 783.71094 C 187.42021 783.4398 187.7413 780.46208 188.4043 777.0918 C 189.0678 773.72153 189.34584 770.69931 189.02344 770.37695 C 187.87314 769.22662 186.37143 771.91392 186.01953 775.75391 C 185.57693 780.5834 183.61934 788.39226 182.58984 789.43164 C 182.16844 789.85713 181.0177 789.31447 180.0332 788.22656 C 178.5119 786.5456 178.41547 785.75462 179.38867 782.96289 C 180.16007 780.74989 180.19675 779.56559 179.50195 779.33398 C 177.78955 778.76318 178.31495 776.15474 181.56055 769.11328 C 184.13595 763.52597 185.05583 762.4082 187.08203 762.4082 C 189.32183 762.4082 189.46172 762.68563 188.85352 765.92773 C 188.40352 768.32627 188.53508 769.23588 189.26758 768.7832 C 189.85868 768.41786 190.3162 767.34034 190.2832 766.38867 C 190.2506 765.437 191.2056 760.8332 192.4043 756.1582 C 196.6171 739.72899 197.11475 735.57701 194.06445 742.29883 C 193.22635 744.14578 191.4103 747.4582 190.0293 749.6582 C 187.7587 753.27541 185.10983 757.71626 181.76562 763.51758 C 180.60952 765.52306 180.50382 765.46896 179.10352 762.13867 C 177.84782 759.15343 177.84002 758.32089 179.04492 756.16406 C 181.52202 751.72967 192.4707 725.9208 192.4707 724.51562 C 192.4707 723.76837 192.9207 723.1582 193.4707 723.1582 C 194.0207 723.1582 194.4707 721.67242 194.4707 719.85742 C 194.4707 718.04242 195.00154 716.02583 195.65234 715.375 C 196.30314 714.72416 196.56176 713.9173 196.22656 713.58203 C 195.89126 713.24675 194.89718 714.36334 194.01758 716.06445 C 193.13788 717.76556 192.68723 719.1582 193.01562 719.1582 C 193.34412 719.1582 192.93828 719.8332 192.11328 720.6582 C 191.28828 721.4832 190.16268 722.1582 189.61328 722.1582 C 188.44508 722.1582 183.4707 732.27813 183.4707 734.6543 C 183.4707 735.54582 183.04404 736.01314 182.52344 735.69141 C 181.61554 735.1303 183.03931 729.84271 185.25781 725.53906 C 185.79141 724.50392 187.02008 721.1832 187.98828 718.1582 C 188.95658 715.1332 190.12975 712.23794 190.59375 711.72461 C 191.83545 710.35039 192.92508 711.88898 191.76758 713.38281 C 190.23628 715.3592 189.4376 718.1582 190.4043 718.1582 C 191.2169 718.1582 193.4707 712.90246 193.4707 711.00781 C 193.4707 710.53988 192.77995 710.1582 191.93555 710.1582 C 190.68925 710.1582 190.60952 709.76553 191.51562 708.07227 C 192.12993 706.92517 192.3754 705.73086 192.0625 705.41797 C 191.7496 705.10508 190.57467 706.83142 189.45117 709.25391 C 188.32767 711.67641 187.00672 714.3332 186.51562 715.1582 C 186.02453 715.9832 184.66409 719.81971 183.49219 723.68555 C 181.12759 731.48547 179.51038 734.82898 179.48438 731.97266 C 179.47598 731.04596 179.89145 729.18042 180.40625 727.82617 C 180.92115 726.47192 181.06296 725.08449 180.72266 724.74414 C 180.38226 724.40379 178.68803 728.52128 176.95703 733.89258 C 175.22603 739.26388 173.28412 744.92435 172.64062 746.47266 C 171.99702 748.02096 171.4707 749.68233 171.4707 750.16406 C 171.4707 750.6458 170.97218 751.34828 170.36328 751.72461 C 169.60728 752.19184 169.48512 751.68534 169.97852 750.13086 C 170.56162 748.2936 170.38964 747.97433 169.08594 748.47461 C 167.34624 749.14221 167.10785 748.11367 168.12305 744.32227 C 168.46685 743.03831 169.02353 742.43579 169.36133 742.98242 C 169.69913 743.52905 170.05534 741.93338 170.15234 739.4375 C 170.24894 736.94162 169.97246 735.29606 169.53906 735.7793 C 168.82206 736.57856 165.66565 746.90419 161.78125 761.1582 C 159.88775 768.10655 158.22262 771.04659 158.94922 766.1582 C 160.12422 758.25282 160.35279 757.24417 161.43359 755.22461 C 162.05419 754.065 162.27713 752.65324 161.92773 752.08789 C 160.77163 750.21721 158.69113 753.06658 157.45703 758.21094 C 156.18293 763.522 154.75401 765.23578 153.41211 763.06445 C 152.06561 760.88588 151.1477 762.80806 151.2207 767.65039 C 151.2582 770.12988 150.86214 772.1582 150.33984 772.1582 C 149.81744 772.1582 149.42766 774.2957 149.47266 776.9082 C 149.60966 784.78043 149.52181 785.49541 147.88281 789.9082 C 146.09251 794.72833 143.44749 795.81806 144.24219 791.4082 C 144.51469 789.8957 145.14944 788.13462 145.65234 787.49609 C 146.15894 786.85258 146.18067 786.09712 145.70117 785.80078 C 145.22537 785.50672 144.00513 786.67241 142.99023 788.39062 L 141.14648 791.51367 L 140.13867 789.08594 C 139.58487 787.75032 139.0314 785.5332 138.9082 784.1582 C 138.785 782.7832 138.63517 781.33469 138.57617 780.93945 C 138.51727 780.54422 137.85567 780.45625 137.10547 780.74414 C 136.20057 781.09138 135.46799 780.15528 134.92969 777.96289 L 134.11914 774.6582 L 133.72656 777.97266 C 133.40126 780.71821 133.08589 781.08545 131.90039 780.10156 C 129.71889 778.29107 130.05935 781.02007 132.46875 784.6582 C 134.58195 787.849 135.14707 792.1582 133.45117 792.1582 C 132.86357 792.1582 132.69669 793.21655 133.05859 794.6582 C 133.44519 796.1986 133.26112 797.1582 132.57812 797.1582 C 131.96853 797.1582 131.46875 796.58363 131.46875 795.88086 C 131.46875 795.17809 130.61948 793.87434 129.58008 792.98438 C 127.83788 791.49274 127.5527 791.49445 125.9375 793.01172 C 124.3095 794.54098 124.22728 794.53862 124.77148 792.97266 C 125.09368 792.04569 124.82066 791.06749 124.16406 790.79883 C 122.44546 790.09563 125.5199 788.02464 127.5625 788.50977 C 129.7016 789.01782 131.36691 786.14956 130.37891 783.6582 C 129.60231 781.70027 129.57265 781.70228 128.93555 783.81445 C 128.57765 785.0011 127.31365 786.23244 126.12695 786.55078 C 121.91525 787.68065 121.68061 787.41144 122.59961 782.49219 C 123.07901 779.92596 123.2461 777.59966 122.9707 777.32422 C 122.6952 777.04879 122.46875 777.34857 122.46875 777.99023 C 122.46875 778.6319 121.79375 779.1582 120.96875 779.1582 C 120.14375 779.1582 119.46875 778.4832 119.46875 777.6582 C 119.46875 776.8332 119.01875 776.1582 118.46875 776.1582 C 117.91875 776.1582 117.46875 776.62623 117.46875 777.19922 C 117.46875 777.77222 116.56875 779.20796 115.46875 780.38867 L 113.46875 782.53516 L 113.46875 780.3457 C 113.46875 779.12677 112.84364 778.1582 112.05664 778.1582 C 110.90294 778.1582 110.84943 778.7068 111.76953 781.14453 C 112.61963 783.39626 112.6076 784.41984 111.7168 785.31055 C 110.8086 786.2188 110.38764 786.04842 109.89844 784.57422 C 109.54864 783.51975 108.61161 781.3082 107.81641 779.6582 L 106.37109 776.6582 L 107.03516 780.1582 C 107.40076 782.0832 108.13607 784.1983 108.66797 784.85938 C 109.20037 785.52045 109.46416 786.87045 109.25586 787.85938 C 108.98036 789.16756 108.35886 788.56843 106.97656 785.6582 C 105.93166 783.4582 104.49054 781.29725 103.77344 780.85742 C 103.05624 780.41759 102.46875 779.15396 102.46875 778.04883 C 102.46875 776.9437 102.01875 776.31828 101.46875 776.6582 C 100.91875 776.99812 100.46875 776.34926 100.46875 775.2168 C 100.46875 774.08434 100.91875 773.1582 101.46875 773.1582 C 102.01875 773.1582 102.46875 772.0332 102.46875 770.6582 C 102.46875 769.2832 102.01875 768.1582 101.46875 768.1582 C 100.91875 768.1582 100.46875 768.6082 100.46875 769.1582 C 100.46875 769.7082 99.79375 770.1582 98.96875 770.1582 C 97.02765 770.1582 97.0731 769.25364 99.125 766.98633 C 100.6651 765.2841 100.66442 765.1582 99.111328 765.1582 C 98.193628 765.1582 96.535081 765.7207 95.425781 766.4082 C 93.764681 767.4377 93.224381 767.3936 92.363281 766.1582 C 91.612181 765.08083 91.178372 764.99565 90.826172 765.85742 C 88.727072 770.99214 82.46875 774.37357 82.46875 770.37305 C 82.46875 769.39163 81.161853 767.81663 79.564453 766.87305 C 76.271253 764.92773 75.062663 764.6913 75.976562 766.16992 C 76.323762 766.73175 75.244481 767.45228 73.550781 767.79102 C 71.873281 768.12652 70.729912 768.769 71.007812 769.21875 C 71.285813 769.6685 70.602134 769.96857 69.490234 769.88477 C 68.378334 769.80102 67.46875 769.15326 67.46875 768.44531 C 67.46875 766.69477 65.990828 766.82475 64.423828 768.71289 C 63.714228 769.56791 62.354091 770.68488 61.400391 771.19531 C 59.973391 771.95901 59.7575 771.76937 60.1875 770.125 C 60.4749 769.02597 61.087275 767.89342 61.546875 767.60938 C 63.403675 766.46181 61.238075 764.17839 58.859375 764.77539 C 56.597375 765.34313 56.795138 764.68683 62.273438 753.51758 C 70.563538 736.61576 71.399303 734.75477 70.908203 734.26367 C 70.260503 733.61597 70.295134 733.55352 63.177734 748.1582 C 59.559234 755.5832 55.909106 762.5582 55.066406 763.6582 C 53.615506 765.55205 53.577881 765.49897 54.363281 762.6582 C 54.819581 761.0082 57.503978 755.05329 60.330078 749.42578 C 63.156178 743.79827 65.458313 738.84827 65.445312 738.42578 C 65.411512 737.313 60.101006 746.61279 56.566406 753.97461 C 52.980706 761.44283 49.001831 766.45388 46.332031 766.86133 C 44.684531 767.11274 44.913553 766.36693 47.939453 761.63672 C 49.880753 758.602 51.46875 755.90299 51.46875 755.63867 C 51.46875 754.07657 49.460656 755.71512 46.847656 759.4082 C 43.005956 764.83786 39.797166 766.61248 36.259766 765.26758 C 34.269866 764.51102 33.759816 763.76625 34.166016 762.21289 C 34.461516 761.0827 35.04705 760.1582 35.46875 760.1582 C 35.89045 760.1582 36.514016 759.3707 36.853516 758.4082 C 37.193016 757.4457 37.744378 756.05743 38.080078 755.32422 C 38.522478 754.35792 37.782572 754.46129 35.388672 755.69922 C 30.579572 758.18609 26.044594 759.38989 27.246094 757.86133 C 27.766894 757.19886 28.477772 755.46141 28.826172 754 C 29.174672 752.5386 29.771944 750.5136 30.152344 749.5 C 30.753644 747.89736 30.629831 747.83168 29.207031 748.98828 C 28.307131 749.71978 27.040425 751.96978 26.390625 753.98828 C 25.740825 756.00679 24.762497 758.2207 24.216797 758.9082 C 23.078297 760.34272 20.055281 760.63507 20.925781 759.22656 C 21.242181 758.71456 21.045328 758.01343 20.486328 757.66797 C 19.927328 757.32251 19.46875 756.21378 19.46875 755.20508 C 19.46875 753.27719 21.336481 752.1582 24.550781 752.1582 C 25.605781 752.1582 26.46875 751.67183 26.46875 751.07812 C 26.46875 750.39768 25.354525 750.24448 23.453125 750.66211 C 20.475725 751.31606 20.451925 751.28664 21.578125 748.49023 C 22.205625 746.93205 23.077478 744.7582 23.517578 743.6582 C 24.626678 740.88602 25.374291 735.82501 24.525391 736.83203 C 24.142591 737.28623 22.569097 740.7037 21.029297 744.42578 C 19.489497 748.14786 17.580209 751.55615 16.787109 752 C 15.755009 752.57782 15.4427 754.20566 15.6875 757.73242 C 15.9958 762.17361 16.132384 762.41922 17.083984 760.23633 C 17.826484 758.53296 18.368756 758.18458 18.910156 759.06055 C 19.366856 759.79953 18.823519 761.21705 17.574219 762.54688 L 15.46875 764.78711 L 15.46875 905.47266 L 15.470703 905.46875 L 15.470703 1046.1543 L 375.4707 1046.1543 L 735.4707 1046.1543 L 735.4707 926.6543 L 735.4707 807.1543 L 732.7207 807.08398 C 730.4127 807.025 730.2814 806.89332 731.9043 806.25781 C 733.0563 805.80668 733.41 805.23549 732.7793 804.8457 C 731.0897 803.80146 731.4901 798.94065 733.5625 795.34766 C 735.7467 791.5606 735.96033 788.93636 734.32812 785.88672 C 733.47033 784.28378 733.47033 783.65509 734.32812 783.36914 C 734.95703 783.15951 735.45359 781.11393 735.43359 778.82227 L 735.39844 774.6543 L 733.36133 779.00195 C 731.28413 783.43478 730.919 783.56113 725.9707 781.58008 C 724.1958 780.86954 724.12408 780.96952 725.33398 782.45703 C 726.08378 783.37895 727.05579 783.91228 727.49219 783.64258 C 727.92859 783.37288 728.04952 784.05158 727.76172 785.15234 C 727.45242 786.33497 726.39769 787.1543 725.18359 787.1543 C 722.64079 787.1543 719.4707 789.90363 719.4707 792.10938 C 719.4707 793.01413 718.91337 794.31319 718.23047 794.99609 C 717.24167 795.98495 717.27852 796.41811 718.41602 797.12109 C 719.54302 797.81764 719.60956 798.49289 718.72656 800.32812 L 717.60742 802.6543 L 717.53906 799.96289 C 717.50186 798.48285 716.95823 796.95532 716.33203 796.56836 C 715.51583 796.06392 715.38102 796.96749 715.85352 799.75977 C 716.37192 802.82361 716.27786 803.27123 715.41406 801.85547 C 712.76796 797.51854 706.76197 770.11125 708.01367 768.08594 C 708.33047 767.57335 708.1117 767.1543 707.5293 767.1543 C 706.9468 767.1543 706.4707 766.46044 706.4707 765.61133 C 706.4707 764.76222 707.0332 764.15673 707.7207 764.26758 C 709.305 764.52304 712.4707 763.16683 712.4707 762.23242 C 712.4707 761.46216 705.3672 757.70554 704.3418 757.93359 C 703.4827 758.12466 700.50857 750.1543 699.79297 745.74414 C 699.47247 743.76947 698.81784 742.1543 698.33984 742.1543 C 697.06344 742.1543 697.27158 744.2121 699.08398 749.53125 C 699.97088 752.13403 700.4536 754.50537 700.1582 754.80078 C 699.008 755.95094 695.31085 753.86037 694.43945 751.56836 C 693.92075 750.20396 692.70699 749.1543 691.65039 749.1543 C 690.62199 749.1543 688.9662 748.2543 687.9707 747.1543 C 686.9752 746.0543 685.70328 745.1543 685.14258 745.1543 C 684.58198 745.1543 685.10087 746.19601 686.29688 747.46875 C 688.49977 749.8136 689.24682 751.75149 687.54102 750.69727 C 686.01062 749.75141 685.09915 752.29596 686.59375 753.3418 C 687.65955 754.08757 687.6874 754.42221 686.7207 754.81445 C 683.5423 756.10413 685.9486 757.23722 691.1582 756.9043 C 696.4394 756.56681 697.04311 756.75839 699.62891 759.59766 C 702.86201 763.14762 703.1732 764.82393 700.7207 765.46484 C 699.3623 765.81984 699.45899 765.94896 701.15039 766.03906 C 703.60169 766.16955 703.69756 766.45095 709.85156 791.6543 C 713.97246 808.53142 714.04834 809.1543 711.99414 809.1543 C 711.18174 809.1543 709.80419 810.24149 708.93359 811.57031 C 708.06289 812.89913 706.70216 814.23514 705.91016 814.53906 C 703.90546 815.30833 701.4707 814.21537 701.4707 812.54688 C 701.4707 811.78072 701.0207 811.1543 700.4707 811.1543 C 699.9207 811.1543 699.4707 812.0543 699.4707 813.1543 C 699.4707 815.73199 698.6442 815.63422 694.9707 812.62305 C 692.5257 810.61892 692.31775 810.16416 693.84375 810.16016 C 695.39185 810.15605 695.50041 809.89619 694.47461 808.66016 C 693.47351 807.45398 693.56269 806.66436 694.92969 804.57812 C 695.86159 803.15593 696.35504 801.29354 696.02734 800.43945 C 695.69954 799.58537 696.25693 797.48546 697.26562 795.77148 C 699.31733 792.28511 702.10768 780.45732 701.11328 779.46289 C 700.76028 779.10984 700.4707 779.57162 700.4707 780.48828 C 700.4707 782.43132 698.8324 782.73353 698.2168 780.9043 C 697.8815 779.908 697.48992 779.90547 696.29102 780.89453 C 695.46352 781.57727 694.49081 781.84041 694.12891 781.47852 C 693.76701 781.11662 693.4707 781.33067 693.4707 781.95508 C 693.4707 782.57943 692.84107 782.84973 692.07227 782.55469 C 691.18117 782.21274 689.84607 783.49282 688.38867 786.08594 C 687.13117 788.32324 685.37503 790.1543 684.48633 790.1543 C 681.94383 790.1543 680.30709 792.25141 681.61719 793.83008 C 682.24639 794.58822 682.30465 795.1543 681.75195 795.1543 C 681.22125 795.1543 679.93709 793.5793 678.90039 791.6543 C 676.17019 786.58462 673.81105 787.07065 671.25195 793.22852 C 669.60315 797.1959 668.74349 798.1975 667.30859 797.82227 C 666.29939 797.55834 665.21057 797.76832 664.88867 798.28906 C 664.56687 798.8098 663.42893 798.95796 662.36133 798.61914 C 661.05243 798.20369 660.50971 798.43431 660.69531 799.32812 C 660.85421 800.09375 660.06944 800.66695 658.83594 800.68555 C 657.66154 800.70332 655.9639 801.33002 655.0625 802.07812 C 652.9111 803.86366 652.01858 802.86812 653.42188 800.24609 C 654.46838 798.29068 654.29491 798.17567 650.50391 798.32422 C 648.28631 798.41111 646.4707 798.79023 646.4707 799.16602 C 646.4707 799.54181 645.55419 800.25776 644.43359 800.75781 C 642.41339 801.65923 642.41789 801.70911 644.92969 806.66016 C 647.58809 811.90026 648.07935 814.1543 646.56445 814.1543 C 646.06635 814.1543 645.88616 815.0232 646.16406 816.08594 C 646.57236 817.64729 646.26631 817.91227 644.57031 817.46875 C 643.14541 817.09613 642.4707 817.39057 642.4707 818.38281 C 642.4707 819.18671 641.5707 820.6589 640.4707 821.6543 C 637.9054 823.9759 637.94262 823.16504 640.60742 818.64844 C 642.20252 815.94499 642.45592 814.73907 641.60742 813.89062 C 640.75902 813.04218 640.4707 813.07222 640.4707 814.00781 C 640.4707 814.69699 639.41389 816.81622 638.12109 818.71875 L 635.76953 822.17773 L 632.66211 819.41602 C 630.09521 817.13506 629.50004 815.78327 629.24414 811.6543 L 628.93359 806.6543 L 628.11719 811.6543 C 627.66859 814.4043 626.66532 818.07155 625.88672 819.80469 C 625.10822 821.53779 624.4707 823.67529 624.4707 824.55469 C 624.4707 826.57809 621.60043 826.6567 620.83203 824.6543 C 620.51543 823.8293 619.15329 823.1543 617.80469 823.1543 C 616.21519 823.1543 615.603 822.75131 616.0625 822.00781 C 616.5798 821.17081 615.44709 821.04869 611.87109 821.55859 C 609.17619 821.94289 605.88273 822.23312 604.55273 822.20312 C 603.22263 822.17313 601.35399 822.85575 600.40039 823.71875 C 599.44679 824.58175 597.8458 825.1447 596.8418 824.9707 C 595.8378 824.7967 595.00614 825.13726 594.99414 825.72656 C 594.98184 826.31586 594.10347 827.66586 593.04297 828.72656 C 590.70447 831.06566 583.4707 831.56131 583.4707 829.38281 C 583.4707 828.61521 582.9082 828.18343 582.2207 828.42383 C 581.5332 828.66423 581.10402 829.60241 581.26562 830.50781 C 581.43422 831.45221 580.90122 832.1543 580.01562 832.1543 C 579.16653 832.1543 578.4707 832.56195 578.4707 833.06055 C 578.4707 834.84815 574.64199 832.9248 573.99609 830.8125 C 573.58619 829.4721 573.14026 829.12966 572.81836 829.91016 C 572.53336 830.60106 571.88777 830.91246 571.38477 830.60156 C 570.88177 830.29066 570.4707 830.9632 570.4707 832.0957 C 570.4707 833.2281 570.1332 834.10016 569.7207 834.03516 C 566.0375 833.45356 561.08592 836.53237 563.32812 838.00977 C 564.22442 838.60037 564.32691 839.12524 563.62891 839.55664 C 563.04781 839.91574 562.08323 839.29704 561.48633 838.18164 C 560.75563 836.81594 560.73845 836.1543 561.43555 836.1543 C 563.92495 836.1543 562.12505 834.53295 558.31445 833.34375 C 554.90105 832.28185 554.00722 832.28282 553.32812 833.35352 C 552.87323 834.07122 552.49633 834.38855 552.48633 834.06055 C 552.46203 833.11385 555.64286 826.8081 556.97656 825.1582 C 558.59186 823.1601 559.48511 819.28476 558.47461 818.66016 C 558.02981 818.38526 557.18661 819.3964 556.59961 820.9082 C 554.00501 827.5909 548.45116 835.3959 546.03906 835.75 C 544.19076 836.0212 544.30238 828.00184 546.17578 825.93164 C 547.06458 824.94934 547.49416 823.84767 547.13086 823.48438 C 546.76756 823.12107 546.4707 823.37668 546.4707 824.05078 C 546.4707 824.72508 546.03877 825.00854 545.50977 824.68164 C 544.89407 824.30104 544.89407 823.17604 545.50977 821.55664 C 546.03877 820.16524 546.44602 817.8185 546.41602 816.3418 C 546.38572 814.86511 545.482 817.01358 544.4082 821.11523 C 543.3343 825.21683 541.94883 829.04183 541.32812 829.61523 C 540.50712 830.37363 540.34759 830.045 540.74219 828.4082 C 541.10959 826.8843 540.82945 826.1582 539.87695 826.1582 C 539.10335 826.1582 538.4707 826.88093 538.4707 827.76562 C 538.4707 829.02623 537.8761 829.22051 535.7207 828.66211 C 534.2082 828.27041 532.4216 827.8603 531.75 827.75 C 529.6733 827.4091 529.13352 826.26883 530.35352 824.79883 C 531.26432 823.70133 531.18569 823.26314 529.99609 822.80664 C 529.15709 822.48474 527.89922 822.44038 527.19922 822.70898 C 525.70592 823.28198 522.69601 818.53385 520.88281 812.74219 C 519.78081 809.22199 519.59706 809.038 519.53906 811.4082 C 519.50226 812.9207 519.08649 814.1582 518.61719 814.1582 C 517.61919 814.1582 516.4707 802.03595 516.4707 791.50586 C 516.4707 787.03316 516.05982 784.1582 515.41992 784.1582 C 514.72492 784.1582 514.47062 788.35617 514.66992 796.54102 C 514.93832 807.56587 514.76231 809.15727 513.06641 811.04102 C 511.19311 813.12185 511.19311 813.15934 513.06641 813.21094 C 514.80261 813.25875 514.7713 813.40156 512.7207 814.83203 C 511.4832 815.69527 510.4707 817.04751 510.4707 817.83789 C 510.4707 818.63783 509.97807 818.97029 509.35938 818.58789 C 508.74788 818.20989 507.8551 818.5214 507.375 819.2793 C 506.8949 820.0373 506.49633 820.1647 506.48633 819.5625 C 506.47793 818.9602 507.3707 817.65369 508.4707 816.6582 C 511.0042 814.36538 511.07037 812.76672 508.57617 814.10156 C 506.01177 815.47398 504.02647 813.06796 504.88867 809.63281 C 505.55257 806.98761 503.84435 799.40863 502.18945 797.6582 C 501.28955 796.70629 501.73463 803.47651 503.14453 812.1582 C 503.53713 814.5755 503.39132 815.34885 502.66992 814.6582 C 500.98182 813.04192 497.12415 792.52785 498.18555 790.81055 C 498.51245 790.28158 498.29447 790.14891 497.70117 790.51562 C 497.10777 790.88235 496.37848 790.38916 496.08008 789.41992 C 495.78118 788.45069 495.74043 789.50104 495.99023 791.75391 C 496.23993 794.00678 496.16447 796.13049 495.82227 796.47266 C 495.48007 796.81484 495.04426 798.8435 494.85156 800.98242 C 494.48176 805.08828 491.93482 811.04872 491.32812 809.22852 C 491.13182 808.63957 490.96312 811.1957 490.95312 814.9082 C 490.94062 819.79183 490.42469 822.4185 489.08789 824.4082 C 487.23779 827.1617 484.80588 828.2604 485.76758 825.9082 C 487.71098 821.1549 487.57345 820.90697 484.75195 824.07227 C 481.26745 827.98147 481.93471 829.00742 478.44141 814.36328 C 477.22201 809.25163 476.02299 805.27196 475.77539 805.51953 C 475.52779 805.76711 475.78611 807.64083 476.34961 809.68164 C 477.40581 813.50694 476.8764 818.78978 475.3418 819.73828 C 474.8628 820.03428 474.43558 819.23671 474.39258 817.9668 C 474.34918 816.69684 474.07992 816.23876 473.79492 816.94922 C 473.39692 817.94114 472.95025 817.97015 471.87305 817.07617 C 470.76745 816.15857 470.4707 816.25635 470.4707 817.53516 C 470.4707 818.49603 469.64697 819.1582 468.45117 819.1582 C 466.91337 819.1582 466.52234 818.62183 466.80664 816.9082 C 467.01224 815.6707 466.98705 815.2207 466.75195 815.9082 C 466.51685 816.5957 465.68314 817.1582 464.89844 817.1582 C 464.11374 817.1582 463.41375 816.5957 463.34375 815.9082 C 463.27425 815.2207 463.11859 813.7582 462.99609 812.6582 C 462.87359 811.5582 462.70409 809.8707 462.62109 808.9082 C 462.53799 807.9457 462.09647 807.1582 461.63867 807.1582 C 461.18067 807.1582 460.9366 809.7457 461.0957 812.9082 C 461.2548 816.0707 461.15264 817.7582 460.86914 816.6582 C 459.67204 812.01352 459.29879 811.55398 458.43359 813.6582 C 457.82709 815.13321 457.6058 814.47698 457.5918 811.1582 C 457.5569 802.87409 459.06575 792.79253 460.40625 792.3457 C 461.36555 792.02592 461.39529 791.72904 460.52539 791.19141 C 459.80339 790.74518 459.6137 789.43895 460.0293 787.7832 C 460.5459 785.72494 461.14409 785.23707 462.58789 785.69531 C 463.62989 786.02604 464.4707 785.815 464.4707 785.22461 C 464.4707 784.63754 463.5707 784.1582 462.4707 784.1582 C 460.9593 784.1582 460.46708 783.48643 460.45508 781.4082 C 460.44668 779.8957 459.95473 777.9832 459.36133 777.1582 C 458.48283 775.93696 458.40218 776.02233 458.92578 777.61719 C 459.37088 778.97306 458.86063 780.15334 457.26953 781.45312 C 456.00523 782.48595 455.58353 783.01005 456.33203 782.61719 C 457.42573 782.0431 457.57968 782.85918 457.11328 786.7793 C 456.79408 789.46194 456.49903 794.1332 456.45703 797.1582 L 456.38086 802.6582 L 454.50391 797.6582 C 452.35531 791.9354 452.0352 789.77098 453.4707 790.6582 C 454.0207 790.99812 454.4707 790.81506 454.4707 790.25195 C 454.4707 789.68884 453.54516 788.73229 452.41406 788.12695 C 450.47406 787.08868 450.38739 787.24254 450.86719 790.8418 C 451.33439 794.34592 452.00778 797.58173 454.26758 807.1582 C 454.80058 809.41695 454.68596 811.45411 453.94336 812.90234 C 452.57676 815.56758 451.47608 814.83212 451.45508 811.24023 C 451.44148 808.94603 449.52433 804.35876 449.48633 806.5293 C 449.47793 807.00915 448.88437 806.91689 448.16797 806.32227 C 447.22067 805.53614 446.09723 805.63856 444.05273 806.69922 C 440.42513 808.58128 436.84028 808.56291 436.10938 806.6582 C 435.79278 805.8332 434.55653 805.1582 433.36133 805.1582 C 432.16613 805.1582 429.89797 803.80895 428.32227 802.16016 C 426.74657 800.51137 425.12374 799.2154 424.71484 799.2793 C 422.40394 799.64059 421.4707 798.88671 421.4707 796.6582 C 421.4707 795.2832 420.96772 794.1582 420.35352 794.1582 C 419.73952 794.1582 419.45957 793.30959 419.73047 792.27344 C 420.01737 791.1766 419.43986 789.71841 418.34766 788.7832 C 416.05706 786.822 415.72394 777.56164 417.83984 774.66797 C 419.16134 772.86069 419.24727 772.87251 420.38477 774.99805 C 421.03217 776.20853 421.2966 777.63093 420.9707 778.1582 C 420.1497 779.48661 422.35408 783.34841 423.52148 782.62695 C 424.38788 782.09146 424.90537 783.47464 424.57617 785.44727 C 424.36327 786.72323 426.57926 790.38174 427.19336 789.76758 C 427.50216 789.45877 427.22582 788.5675 426.57812 787.78711 C 425.93043 787.00671 425.47069 785.98406 425.55469 785.51367 C 426.05969 782.70027 425.34985 780.99094 423.90625 781.54492 C 422.75415 781.98702 422.48814 781.68152 422.89844 780.38867 C 423.20514 779.42252 422.12816 775.82493 420.50586 772.39453 C 418.88356 768.96413 417.77783 766.1582 418.04883 766.1582 C 418.31983 766.1582 418.13106 765.3707 417.63086 764.4082 C 417.13066 763.4457 416.3971 759.5082 416 755.6582 C 415.603 751.8082 415.07878 747.0832 414.83398 745.1582 C 413.78848 736.93759 414.31356 716.03902 415.78906 707.1582 C 416.65716 701.9332 417.58476 694.5082 417.85156 690.6582 C 419.08126 672.91159 419.70018 667.49601 420.73438 665.37305 C 421.56028 663.67737 421.54287 662.24577 420.66797 659.82617 C 420.01937 658.03243 419.20743 654.52188 418.86523 652.02539 C 418.29853 647.89059 418.53827 647.15121 421.54688 643.72461 C 423.94867 640.98915 424.90172 638.8841 425.04102 636.01172 C 425.28852 630.90971 426.13022 630.15622 427.54492 633.76953 C 428.67502 636.65621 428.67725 636.65631 429.56445 634.3457 C 430.65955 631.49357 433.01697 629.03848 433.85547 629.87695 C 434.19837 630.21979 434.2202 628.28466 433.9043 625.57812 C 433.3687 620.98951 433.43629 620.78958 434.90039 622.59961 C 435.76399 623.66723 436.4707 624.82843 436.4707 625.18164 C 436.4707 625.53486 437.10431 625.82422 437.87891 625.82422 C 439.57641 625.82422 440.60325 621.37479 439.93555 616.9082 L 439.44922 613.6582 L 441.43359 617.6582 C 442.52519 619.8582 443.43131 620.8707 443.44531 619.9082 C 443.45971 618.9457 443.9207 618.1582 444.4707 618.1582 C 445.0207 618.1582 445.53242 616.6957 445.60742 614.9082 C 445.70592 612.55794 445.86238 612.2811 446.17578 613.9082 C 446.41408 615.1457 447.09129 616.1582 447.67969 616.1582 C 448.37569 616.1582 448.54155 614.41122 448.15625 611.1582 C 447.47875 605.43705 448.26757 604.85097 450.82227 609.17578 C 453.19727 613.19633 454.77312 612.01351 453.98242 606.80469 C 453.52262 603.77603 453.63428 603.06281 454.39648 604.1582 C 455.25038 605.38535 455.44208 605.22605 455.45508 603.28516 C 455.46798 601.29025 455.7094 601.11141 456.9707 602.1582 C 458.2129 603.18913 458.47333 603.07993 458.48633 601.5293 C 458.49943 599.93499 458.65658 599.88101 459.55078 601.1582 C 460.40778 602.38231 460.51309 602.29034 460.11719 600.6582 C 459.85039 599.5582 459.38032 595.5082 459.07422 591.6582 C 458.52352 584.73325 458.94683 585.02695 461.23633 593.1582 C 462.13463 596.34946 462.2114 596.10688 462.0918 590.4082 C 461.9616 584.20196 462.87482 582.09641 463.82812 586.4082 C 464.10172 587.6457 464.23771 586.77637 464.12891 584.47656 C 463.96691 581.0506 464.17602 580.49849 465.29102 581.42383 C 466.67002 582.56829 466.59708 580.47773 464.86328 569.30859 C 464.57738 567.46695 464.74302 566.20921 465.23242 566.51172 C 465.72192 566.81423 466.70968 564.04525 467.42578 560.35938 C 468.80548 553.25806 470.29416 549.33437 470.53906 552.1582 C 470.61066 552.9832 470.98007 552.5332 471.35938 551.1582 C 471.88977 549.23554 472.81488 548.58283 475.36328 548.33594 C 477.76658 548.10309 478.46933 548.34981 477.92383 549.23242 C 477.36403 550.13824 477.91417 550.26142 480.07227 549.71289 C 481.66677 549.3076 488.5656 548.81815 495.4043 548.625 C 506.8076 548.30291 508.2583 548.46974 512.9043 550.64453 C 522.6808 555.22087 528.08512 555.13991 533.70312 550.33203 C 535.50072 548.79366 538.84958 546.99175 541.14648 546.32812 C 546.05158 544.911 550.4717 540.17158 550.4707 536.33008 C 550.4695 531.98548 544.70392 521.06558 540.23242 516.9375 C 537.95982 514.83953 534.27066 510.70556 532.03516 507.75195 C 529.79966 504.79834 524.78683 498.61877 520.89453 494.01953 C 517.00223 489.4203 512.05223 482.5612 509.89453 478.77539 C 505.20083 470.54013 502.93618 466.83168 499.05078 461.02344 C 494.77408 454.63021 489.4707 442.49507 489.4707 439.10156 C 489.4707 436.97555 489.9572 436.14915 491.2207 436.12695 C 504.6087 435.89189 516.5984 434.8031 524.8457 433.07227 C 534.7976 430.9837 545.67021 426.97203 548.31641 424.41211 C 549.05601 423.69662 550.94738 422.44484 552.52148 421.63086 C 556.58758 419.52816 562.22205 411.73543 563.99805 405.75586 C 564.83085 402.95213 565.7444 396.3832 566.0293 391.1582 C 566.3141 385.9332 566.73941 380.43926 566.97461 378.95117 C 567.30171 376.88113 567.05809 376.37905 565.93359 376.81055 C 564.55639 377.33904 562.50946 383.17182 560.91406 391.11719 C 559.08406 400.23087 552.824 409.69432 545.9668 413.71289 C 543.4438 415.19149 541.1677 416.18917 540.9082 415.92969 C 540.6487 415.67021 540.97366 413.12664 541.63086 410.2793 C 542.78486 405.28006 542.53673 402.28635 539.89453 389.4082 C 539.42313 387.11094 537.19773 386.13623 537.61133 388.4082 C 538.20253 391.65609 536.03403 405.05268 534.39453 408.28516 C 531.39313 414.20279 522.48099 417.63022 503.27539 420.25586 C 493.57449 421.58208 490.45771 420.90205 486.38281 416.56445 C 483.68211 413.68972 484.21423 413.00472 490.86133 410.80273 C 501.58983 407.24866 508.10524 401.23916 517.89844 385.86328 C 521.08804 380.85537 528.4707 362.86987 528.4707 360.10742 C 528.4707 357.16241 525.77472 360.46706 519.51172 371.08789 C 507.75272 391.0286 495.80636 401.12534 483.94336 401.14844 C 478.68546 401.15866 474.4707 399.14195 474.4707 396.61523 C 474.4707 395.82871 477.3957 389.5643 480.9707 382.69531 C 487.0199 371.07245 488.80913 366.21194 486.51953 367.62695 C 484.82353 368.67513 473.68797 382.83836 472.01367 386.07617 C 470.00097 389.96823 469.03495 389.45624 467.59375 383.73242 C 466.08285 377.73234 466.17791 374.09405 468.03711 366.80273 C 470.44231 357.37051 472.98905 354.3673 485.84375 345.80664 C 500.12605 336.29535 506.59096 328.96992 515.78906 311.87305 C 522.48646 299.42419 524.68153 293.10708 523.49023 289.71094 C 522.95313 288.17984 521.73546 289.47922 517.22656 296.39648 C 504.10646 316.52451 491.9653 330.26484 483.375 334.70703 C 472.931 340.10786 464.21074 332.40782 461.58594 315.4668 C 460.24834 306.83384 460.15801 284.96141 461.41211 273.04688 C 462.24431 265.14017 462.94853 263.17708 470.01953 249.04688 C 474.25513 240.58295 479.127 231.67679 480.8457 229.25586 C 482.9577 226.28092 483.56792 224.71572 482.72852 224.42578 C 481.90422 224.14108 481.78193 223.43403 482.36523 222.32617 C 483.79093 219.6183 486.4707 205.31754 486.4707 200.41602 C 486.4707 195.99671 484.7961 188.4374 483.4707 186.875 C 483.4479 186.84813 483.42272 186.8403 483.39453 186.84766 z M 362.93945 682.5293 C 367.29591 682.47164 371.9915 683.47164 371.85352 685.32422 C 371.78612 686.22917 373.15562 687.44664 375.10352 688.21094 C 376.95512 688.93744 378.46875 689.8964 378.46875 690.34375 C 378.46875 690.79109 379.07159 691.1582 379.80859 691.1582 C 383.05159 691.1582 385.78891 709.17146 386.03711 732.1582 C 386.14301 741.96946 386.81642 751.69854 387.69922 756.1582 C 389.04772 762.97055 389.03607 763.7646 387.57617 764.82617 C 383.20007 768.0082 382.06726 769.0959 383.09766 769.125 C 383.71776 769.14249 384.78405 768.4832 385.46875 767.6582 C 386.15345 766.8332 387.5591 766.1582 388.5918 766.1582 C 389.6244 766.1582 390.46875 766.8332 390.46875 767.6582 C 390.46875 768.4832 390.91875 769.1582 391.46875 769.1582 C 392.01875 769.1582 392.46875 769.85932 392.46875 770.7168 C 392.46875 771.57428 392.01875 771.99812 391.46875 771.6582 C 390.91875 771.31828 390.46875 771.69989 390.46875 772.50586 C 390.46875 773.45266 391.14099 773.79526 392.36719 773.47461 C 393.96289 773.05731 394.44523 773.81584 395.39453 778.24219 C 396.67923 784.23263 396.09043 785.11698 390.80273 785.14258 C 389.06103 785.151 387.43962 785.7207 387.19922 786.4082 C 386.88582 787.30405 386.14338 787.10883 384.58008 785.7207 C 383.38028 784.6554 382.61651 783.21568 382.88281 782.52148 C 383.18271 781.74008 382.81517 781.47213 381.91797 781.81641 C 381.12097 782.12224 380.46875 781.93687 380.46875 781.4043 C 380.46875 780.87169 379.40783 780.63694 378.11133 780.88477 C 376.48353 781.19595 375.16853 780.61154 373.86133 778.99609 C 372.82033 777.70949 370.61875 776.04269 368.96875 775.29102 C 367.31875 774.53935 365.18742 773.52685 364.23242 773.04102 C 361.95412 771.88204 360.46875 771.92061 360.46875 773.13867 C 360.46875 773.67819 361.70625 774.42671 363.21875 774.80273 C 365.99425 775.49275 376.46875 781.96832 376.46875 782.99414 C 376.46875 783.8832 371.17375 789.1582 370.28125 789.1582 C 369.83415 789.1582 369.46875 788.47193 369.46875 787.63281 C 369.46875 786.26524 369.16413 786.26524 366.51953 787.63281 C 364.89683 788.47193 362.53433 789.15534 361.26953 789.15234 C 359.11633 789.14657 359.15192 789.04996 361.82422 787.65625 C 363.39392 786.83757 365.19392 786.47781 365.82422 786.85547 C 366.45442 787.23312 366.35246 786.78019 365.59766 785.84961 C 364.84276 784.91903 363.38026 784.1582 362.34766 784.1582 C 359.29326 784.1582 360.12815 780.57292 363.71875 778.27344 C 365.56935 777.0883 366.2973 776.18383 365.4082 776.17383 C 363.6039 776.15436 359.46875 779.72497 359.46875 781.30273 C 359.46875 781.89015 358.76128 782.09946 357.89648 781.76758 C 355.47658 780.83901 352.46875 782.95533 352.46875 785.58594 C 352.46875 786.88275 351.75672 788.21698 350.88672 788.55078 C 347.65272 789.79176 347.45896 789.08751 347.94336 777.9082 C 348.58386 763.12851 348.71834 762.09594 350.40234 759.1582 C 352.15754 756.09621 352.89598 750.1582 351.52148 750.1582 C 350.85778 750.1582 350.84894 749.28882 351.49414 747.5918 C 352.03054 746.181 352.46875 742.15907 352.46875 738.65234 C 352.46875 735.1456 352.84443 732.04496 353.30273 731.76172 C 353.76083 731.47847 353.934 729.87261 353.6875 728.19336 C 353.4411 726.51411 353.7921 724.47506 354.4668 723.66211 C 355.1415 722.84915 355.38642 721.38943 355.01172 720.41992 C 354.63702 719.45042 354.15235 714.51341 353.93555 709.44727 C 353.62075 702.08808 353.03246 699.22964 351.00586 695.23047 C 349.61076 692.47739 348.46875 689.85038 348.46875 689.39258 C 348.46875 688.93479 350.00055 688.00524 351.87305 687.32812 C 353.74555 686.651 355.52367 685.46161 355.82227 684.68359 C 356.3684 683.26029 359.5511 682.57414 362.93945 682.5293 z "
       id="path4328" />
    <path
       style="fill:#000000"
       d="m 448.11174,217.889 c -0.31922,-0.79773 -0.55618,-0.56078 -0.60416,0.60417 -0.0434,1.05416 0.19293,1.64479 0.52522,1.3125 0.33229,-0.3323 0.36781,-1.1948 0.0789,-1.91667 z"
       id="path4290" />
  </g>
</svg>
