  0
SECTION
  2
HEADER
  9
$ACADVER
  1
AC1014
  9
$HANDSEED
  5
FFFF
  9
$MEASUREMENT
 70
     1
  0
ENDSEC
  0
SECTION
  2
TABLES
  0
TABLE
  2
VPORT
  5
8
330
0
100
AcDbSymbolTable
 70
     4
  0
VPORT
  5
2E
330
8
100
AcDbSymbolTableRecord
100
AcDbViewportTableRecord
  2
*ACTIVE
 70
     0
 10
0.0
 20
0.0
 11
1.0
 21
1.0
 12
210.0
 22
148.5
 13
0.0
 23
0.0
 14
10.0
 24
10.0
 15
10.0
 25
10.0
 16
0.0
 26
0.0
 36
1.0
 17
0.0
 27
0.0
 37
0.0
 40
341.0
 41
1.24
 42
50.0
 43
0.0
 44
0.0
 50
0.0
 51
0.0
 71
     0
 72
   100
 73
     1
 74
     3
 75
     0
 76
     0
 77
     0
 78
     0
  0
ENDTAB
  0
TABLE
  2
LTYPE
  5
5
330
0
100
AcDbSymbolTable
 70
     1
  0
LTYPE
  5
14
330
5
100
AcDbSymbolTableRecord
100
AcDbLinetypeTableRecord
  2
BYBLOCK
 70
     0
  3

 72
    65
 73
     0
 40
0.0
  0
LTYPE
  5
15
330
5
100
AcDbSymbolTableRecord
100
AcDbLinetypeTableRecord
  2
BYLAYER
 70
     0
  3

 72
    65
 73
     0
 40
0.0
  0
LTYPE
  5
16
330
5
100
AcDbSymbolTableRecord
100
AcDbLinetypeTableRecord
  2
CONTINUOUS
 70
     0
  3
Solid line
 72
    65
 73
     0
 40
0.0
  0
ENDTAB
  0
TABLE
  2
LAYER
  5
2
100
AcDbSymbolTable
 70
2
  0
LAYER
  5
50
100
AcDbSymbolTableRecord
100
AcDbLayerTableRecord
  2
0
 70
0
  6
CONTINUOUS
  0
LAYER
  5
51
100
AcDbSymbolTableRecord
100
AcDbLayerTableRecord
  2
Layer_1
 70
0
  6
CONTINUOUS
  0
ENDTAB
  0
TABLE
  2
STYLE
  5
3
330
0
100
AcDbSymbolTable
 70
     1
  0
STYLE
  5
11
330
3
100
AcDbSymbolTableRecord
100
AcDbTextStyleTableRecord
  2
STANDARD
 70
     0
 40
0.0
 41
1.0
 50
0.0
 71
     0
 42
2.5
  3
txt
  4

  0
ENDTAB
  0
TABLE
  2
VIEW
  5
6
330
0
100
AcDbSymbolTable
 70
     0
  0
ENDTAB
  0
TABLE
  2
UCS
  5
7
330
0
100
AcDbSymbolTable
 70
     0
  0
ENDTAB
  0
TABLE
  2
APPID
  5
9
330
0
100
AcDbSymbolTable
 70
     2
  0
APPID
  5
12
330
9
100
AcDbSymbolTableRecord
100
AcDbRegAppTableRecord
  2
ACAD
 70
     0
  0
ENDTAB
  0
TABLE
  2
DIMSTYLE
  5
A
330
0
100
AcDbSymbolTable
 70
     1
  0
DIMSTYLE
105
27
330
A
100
AcDbSymbolTableRecord
100
AcDbDimStyleTableRecord
  2
ISO-25
 70
     0
  3

  4

  5

  6

  7

 40
1.0
 41
2.5
 42
0.625
 43
3.75
 44
1.25
 45
0.0
 46
0.0
 47
0.0
 48
0.0
140
2.5
141
2.5
142
0.0
143
0.03937007874016
144
1.0
145
0.0
146
1.0
147
0.625
 71
     0
 72
     0
 73
     0
 74
     0
 75
     0
 76
     0
 77
     1
 78
     8
170
     0
171
     3
172
     1
173
     0
174
     0
175
     0
176
     0
177
     0
178
     0
270
     2
271
     2
272
     2
273
     2
274
     3
340
11
275
     0
280
     0
281
     0
282
     0
283
     0
284
     8
285
     0
286
     0
287
     3
288
     0
  0
ENDTAB
  0
TABLE
  2
BLOCK_RECORD
  5
1
330
0
100
AcDbSymbolTable
 70
     1
  0
BLOCK_RECORD
  5
1F
330
1
100
AcDbSymbolTableRecord
100
AcDbBlockTableRecord
  2
*MODEL_SPACE
  0
BLOCK_RECORD
  5
1B
330
1
100
AcDbSymbolTableRecord
100
AcDbBlockTableRecord
  2
*PAPER_SPACE
  0
ENDTAB
  0
ENDSEC
  0
SECTION
  2
BLOCKS
  0
BLOCK
  5
20
330
1F
100
AcDbEntity
  8
0
100
AcDbBlockBegin
  2
*MODEL_SPACE
 70
     0
 10
0.0
 20
0.0
 30
0.0
  3
*MODEL_SPACE
  1

  0
ENDBLK
  5
21
330
1F
100
AcDbEntity
  8
0
100
AcDbBlockEnd
  0
BLOCK
  5
1C
330
1B
100
AcDbEntity
 67
     1
  8
0
100
AcDbBlockBegin
  2
*PAPER_SPACE
  1

  0
ENDBLK
  5
1D
330
1B
100
AcDbEntity
 67
     1
  8
0
100
AcDbBlockEnd
  0
ENDSEC
  0
SECTION
  2
ENTITIES
  0
SPLINE
  5
100
100
AcDbEntity
  8
Layer_1
 62
7
100
AcDbSpline
 70
8
 71
3
 72
8
 73
4
 74
0
 40
0
 40
0
 40
0
 40
0
 40
1
 40
1
 40
1
 40
1
 10
34.132904
 20
140.982924
 30
0.0
 10
34.115652
 20
140.982927
 30
0.0
 10
34.099106
 20
140.976075
 30
0.0
 10
34.086908
 20
140.963877
 30
0.0
  0
SPLINE
  5
101
100
AcDbEntity
  8
Layer_1
 62
7
100
AcDbSpline
 70
8
 71
3
 72
8
 73
4
 74
0
 40
0
 40
0
 40
0
 40
0
 40
1
 40
1
 40
1
 40
1
 10
34.086908
 20
140.963877
 30
0.0
 10
34.074709
 20
140.951678
 30
0.0
 10
34.067857
 20
140.935132
 30
0.0
 10
34.067860
 20
140.917881
 30
0.0
  0
SPLINE
  5
102
100
AcDbEntity
  8
Layer_1
 62
7
100
AcDbSpline
 70
8
 71
3
 72
8
 73
4
 74
0
 40
0
 40
0
 40
0
 40
0
 40
1
 40
1
 40
1
 40
1
 10
34.067860
 20
140.917881
 30
0.0
 10
34.067860
 20
140.917881
 30
0.0
 10
34.067860
 20
106.048004
 30
0.0
 10
34.067860
 20
106.048004
 30
0.0
  0
SPLINE
  5
103
100
AcDbEntity
  8
Layer_1
 62
7
100
AcDbSpline
 70
8
 71
3
 72
8
 73
4
 74
0
 40
0
 40
0
 40
0
 40
0
 40
1
 40
1
 40
1
 40
1
 10
34.067860
 20
106.048004
 30
0.0
 10
34.067857
 20
106.030753
 30
0.0
 10
34.074709
 20
106.014207
 30
0.0
 10
34.086908
 20
106.002008
 30
0.0
  0
SPLINE
  5
104
100
AcDbEntity
  8
Layer_1
 62
7
100
AcDbSpline
 70
8
 71
3
 72
8
 73
4
 74
0
 40
0
 40
0
 40
0
 40
0
 40
1
 40
1
 40
1
 40
1
 10
34.086908
 20
106.002008
 30
0.0
 10
34.099106
 20
105.989809
 30
0.0
 10
34.115652
 20
105.982957
 30
0.0
 10
34.132904
 20
105.982960
 30
0.0
  0
SPLINE
  5
105
100
AcDbEntity
  8
Layer_1
 62
7
100
AcDbSpline
 70
8
 71
3
 72
8
 73
4
 74
0
 40
0
 40
0
 40
0
 40
0
 40
1
 40
1
 40
1
 40
1
 10
34.132904
 20
105.982960
 30
0.0
 10
34.132904
 20
105.982960
 30
0.0
 10
84.003004
 20
105.982960
 30
0.0
 10
84.003004
 20
105.982960
 30
0.0
  0
SPLINE
  5
106
100
AcDbEntity
  8
Layer_1
 62
7
100
AcDbSpline
 70
8
 71
3
 72
8
 73
4
 74
0
 40
0
 40
0
 40
0
 40
0
 40
1
 40
1
 40
1
 40
1
 10
84.003004
 20
105.982960
 30
0.0
 10
84.020256
 20
105.982957
 30
0.0
 10
84.036802
 20
105.989809
 30
0.0
 10
84.049000
 20
106.002008
 30
0.0
  0
SPLINE
  5
107
100
AcDbEntity
  8
Layer_1
 62
7
100
AcDbSpline
 70
8
 71
3
 72
8
 73
4
 74
0
 40
0
 40
0
 40
0
 40
0
 40
1
 40
1
 40
1
 40
1
 10
84.049000
 20
106.002008
 30
0.0
 10
84.061199
 20
106.014207
 30
0.0
 10
84.068051
 20
106.030753
 30
0.0
 10
84.068048
 20
106.048004
 30
0.0
  0
SPLINE
  5
108
100
AcDbEntity
  8
Layer_1
 62
7
100
AcDbSpline
 70
8
 71
3
 72
8
 73
4
 74
0
 40
0
 40
0
 40
0
 40
0
 40
1
 40
1
 40
1
 40
1
 10
84.068048
 20
106.048004
 30
0.0
 10
84.068048
 20
106.048004
 30
0.0
 10
84.068048
 20
140.917881
 30
0.0
 10
84.068048
 20
140.917881
 30
0.0
  0
SPLINE
  5
109
100
AcDbEntity
  8
Layer_1
 62
7
100
AcDbSpline
 70
8
 71
3
 72
8
 73
4
 74
0
 40
0
 40
0
 40
0
 40
0
 40
1
 40
1
 40
1
 40
1
 10
84.068048
 20
140.917881
 30
0.0
 10
84.068051
 20
140.935132
 30
0.0
 10
84.061199
 20
140.951678
 30
0.0
 10
84.049000
 20
140.963877
 30
0.0
  0
SPLINE
  5
10a
100
AcDbEntity
  8
Layer_1
 62
7
100
AcDbSpline
 70
8
 71
3
 72
8
 73
4
 74
0
 40
0
 40
0
 40
0
 40
0
 40
1
 40
1
 40
1
 40
1
 10
84.049000
 20
140.963877
 30
0.0
 10
84.036802
 20
140.976075
 30
0.0
 10
84.020256
 20
140.982927
 30
0.0
 10
84.003004
 20
140.982924
 30
0.0
  0
LWPOLYLINE
  5
10b
100
AcDbEntity
  8
Layer_1
 62
7
100
AcDbPolyline
 90
3
 70
0
 10
84.003004
 20
140.982924
 30
0.0
 10
34.132904
 20
140.982924
 30
0.0
 10
34.132904
 20
140.982924
 30
0.0
  0
LWPOLYLINE
  5
10c
100
AcDbEntity
  8
Layer_1
 62
7
100
AcDbPolyline
 90
6
 70
0
 10
34.197948
 20
140.852840
 30
0.0
 10
83.937960
 20
140.852840
 30
0.0
 10
83.937960
 20
106.113048
 30
0.0
 10
34.197948
 20
106.113048
 30
0.0
 10
34.197948
 20
140.852840
 30
0.0
 10
34.197948
 20
140.852840
 30
0.0
  0
LWPOLYLINE
  5
10d
100
AcDbEntity
  8
Layer_1
 62
7
100
AcDbPolyline
 90
12
 70
0
 10
57.588215
 20
133.097240
 30
0.0
 10
57.421199
 20
133.064717
 30
0.0
 10
57.379856
 20
132.955026
 30
0.0
 10
57.379856
 20
132.670049
 30
0.0
 10
57.421199
 20
132.560355
 30
0.0
 10
57.588215
 20
132.527284
 30
0.0
 10
57.754684
 20
132.560355
 30
0.0
 10
57.796577
 20
132.670049
 30
0.0
 10
57.796577
 20
132.955026
 30
0.0
 10
57.754684
 20
133.064717
 30
0.0
 10
57.588215
 20
133.097240
 30
0.0
 10
57.588215
 20
133.097240
 30
0.0
  0
LWPOLYLINE
  5
10e
100
AcDbEntity
  8
Layer_1
 62
7
100
AcDbPolyline
 90
12
 70
0
 10
65.665175
 20
133.097240
 30
0.0
 10
65.498706
 20
133.064717
 30
0.0
 10
65.456813
 20
132.955026
 30
0.0
 10
65.456813
 20
132.670049
 30
0.0
 10
65.498706
 20
132.560355
 30
0.0
 10
65.665175
 20
132.527284
 30
0.0
 10
65.831641
 20
132.560355
 30
0.0
 10
65.873534
 20
132.670049
 30
0.0
 10
65.873534
 20
132.955026
 30
0.0
 10
65.831641
 20
133.064717
 30
0.0
 10
65.665175
 20
133.097240
 30
0.0
 10
65.665175
 20
133.097240
 30
0.0
  0
LWPOLYLINE
  5
10f
100
AcDbEntity
  8
Layer_1
 62
7
100
AcDbPolyline
 90
12
 70
0
 10
79.127505
 20
133.097240
 30
0.0
 10
78.960486
 20
133.064717
 30
0.0
 10
78.919146
 20
132.955026
 30
0.0
 10
78.919146
 20
132.670049
 30
0.0
 10
78.960486
 20
132.560355
 30
0.0
 10
79.127505
 20
132.527284
 30
0.0
 10
79.293971
 20
132.560355
 30
0.0
 10
79.335864
 20
132.670049
 30
0.0
 10
79.335864
 20
132.955026
 30
0.0
 10
79.293971
 20
133.064717
 30
0.0
 10
79.127505
 20
133.097240
 30
0.0
 10
79.127505
 20
133.097240
 30
0.0
  0
LWPOLYLINE
  5
110
100
AcDbEntity
  8
Layer_1
 62
7
100
AcDbPolyline
 90
40
 70
0
 10
41.082626
 20
132.759897
 30
0.0
 10
40.953642
 20
132.726824
 30
0.0
 10
40.918364
 20
132.617132
 30
0.0
 10
40.918364
 20
131.959532
 30
0.0
 10
40.473534
 20
131.959532
 30
0.0
 10
40.366047
 20
131.926458
 30
0.0
 10
40.335177
 20
131.810702
 30
0.0
 10
40.366047
 20
131.694395
 30
0.0
 10
40.473534
 20
131.661325
 30
0.0
 10
40.918364
 20
131.661325
 30
0.0
 10
40.918364
 20
130.834501
 30
0.0
 10
40.958050
 20
130.501566
 30
0.0
 10
41.084830
 20
130.257930
 30
0.0
 10
41.308624
 20
130.111307
 30
0.0
 10
41.635494
 20
130.060594
 30
0.0
 10
41.830625
 20
130.080437
 30
0.0
 10
42.034576
 20
130.131150
 30
0.0
 10
42.229704
 20
130.207770
 30
0.0
 10
42.409401
 20
130.306438
 30
0.0
 10
42.479406
 20
130.389671
 30
0.0
 10
42.452948
 20
130.519205
 30
0.0
 10
42.358688
 20
130.613465
 30
0.0
 10
42.257816
 20
130.598030
 30
0.0
 10
41.950790
 20
130.442034
 30
0.0
 10
41.635494
 20
130.380851
 30
0.0
 10
41.451389
 20
130.409514
 30
0.0
 10
41.330674
 20
130.499362
 30
0.0
 10
41.266731
 20
130.650396
 30
0.0
 10
41.247438
 20
130.863164
 30
0.0
 10
41.247438
 20
131.661325
 30
0.0
 10
42.148125
 20
131.661325
 30
0.0
 10
42.253408
 20
131.694395
 30
0.0
 10
42.286479
 20
131.810152
 30
0.0
 10
42.253408
 20
131.926458
 30
0.0
 10
42.148125
 20
131.959532
 30
0.0
 10
41.247438
 20
131.959532
 30
0.0
 10
41.247438
 20
132.617132
 30
0.0
 10
41.209956
 20
132.726824
 30
0.0
 10
41.082626
 20
132.759897
 30
0.0
 10
41.082626
 20
132.759897
 30
0.0
  0
LWPOLYLINE
  5
111
100
AcDbEntity
  8
Layer_1
 62
7
100
AcDbPolyline
 90
40
 70
0
 10
70.699424
 20
132.759897
 30
0.0
 10
70.569887
 20
132.726824
 30
0.0
 10
70.534609
 20
132.617132
 30
0.0
 10
70.534609
 20
131.959532
 30
0.0
 10
70.089779
 20
131.959532
 30
0.0
 10
69.982292
 20
131.926458
 30
0.0
 10
69.951425
 20
131.810702
 30
0.0
 10
69.982292
 20
131.694395
 30
0.0
 10
70.089779
 20
131.661325
 30
0.0
 10
70.534609
 20
131.661325
 30
0.0
 10
70.534609
 20
130.834501
 30
0.0
 10
70.574298
 20
130.501566
 30
0.0
 10
70.701628
 20
130.257930
 30
0.0
 10
70.924869
 20
130.111307
 30
0.0
 10
71.251741
 20
130.060594
 30
0.0
 10
71.446870
 20
130.080437
 30
0.0
 10
71.650820
 20
130.131150
 30
0.0
 10
71.845952
 20
130.207770
 30
0.0
 10
72.025645
 20
130.306438
 30
0.0
 10
72.095651
 20
130.389671
 30
0.0
 10
72.069743
 20
130.519205
 30
0.0
 10
71.975486
 20
130.613465
 30
0.0
 10
71.874614
 20
130.598030
 30
0.0
 10
71.567588
 20
130.442034
 30
0.0
 10
71.251741
 20
130.380851
 30
0.0
 10
71.067634
 20
130.409514
 30
0.0
 10
70.946919
 20
130.499362
 30
0.0
 10
70.883529
 20
130.650396
 30
0.0
 10
70.863686
 20
130.863164
 30
0.0
 10
70.863686
 20
131.661325
 30
0.0
 10
71.764923
 20
131.661325
 30
0.0
 10
71.870203
 20
131.694395
 30
0.0
 10
71.902726
 20
131.810152
 30
0.0
 10
71.870203
 20
131.926458
 30
0.0
 10
71.764923
 20
131.959532
 30
0.0
 10
70.863686
 20
131.959532
 30
0.0
 10
70.863686
 20
132.617132
 30
0.0
 10
70.826201
 20
132.726824
 30
0.0
 10
70.699424
 20
132.759897
 30
0.0
 10
70.699424
 20
132.759897
 30
0.0
  0
LWPOLYLINE
  5
112
100
AcDbEntity
  8
Layer_1
 62
7
100
AcDbPolyline
 90
26
 70
0
 10
35.314159
 20
132.711389
 30
0.0
 10
35.206672
 20
132.678868
 30
0.0
 10
35.176353
 20
132.562562
 30
0.0
 10
35.206672
 20
132.446255
 30
0.0
 10
35.314159
 20
132.413182
 30
0.0
 10
35.875296
 20
132.413182
 30
0.0
 10
35.875296
 20
130.407310
 30
0.0
 10
35.270612
 20
130.407310
 30
0.0
 10
35.163125
 20
130.374236
 30
0.0
 10
35.132258
 20
130.257930
 30
0.0
 10
35.163125
 20
130.142173
 30
0.0
 10
35.270612
 20
130.109102
 30
0.0
 10
36.809604
 20
130.109102
 30
0.0
 10
36.914887
 20
130.142173
 30
0.0
 10
36.947960
 20
130.257930
 30
0.0
 10
36.914887
 20
130.374236
 30
0.0
 10
36.809604
 20
130.407310
 30
0.0
 10
36.204370
 20
130.407310
 30
0.0
 10
36.204370
 20
132.413182
 30
0.0
 10
36.765507
 20
132.413182
 30
0.0
 10
36.870790
 20
132.446255
 30
0.0
 10
36.903863
 20
132.562562
 30
0.0
 10
36.870790
 20
132.678868
 30
0.0
 10
36.765507
 20
132.711389
 30
0.0
 10
35.314159
 20
132.711389
 30
0.0
 10
35.314159
 20
132.711389
 30
0.0
  0
LWPOLYLINE
  5
113
100
AcDbEntity
  8
Layer_1
 62
7
100
AcDbPolyline
 90
32
 70
0
 10
61.778004
 20
132.711389
 30
0.0
 10
61.670517
 20
132.678868
 30
0.0
 10
61.639648
 20
132.562562
 30
0.0
 10
61.670517
 20
132.446255
 30
0.0
 10
61.778004
 20
132.413182
 30
0.0
 10
61.944470
 20
132.413182
 30
0.0
 10
62.724992
 20
130.203359
 30
0.0
 10
62.806021
 20
130.093668
 30
0.0
 10
62.957603
 20
130.060594
 30
0.0
 10
63.108637
 20
130.093668
 30
0.0
 10
63.194077
 20
130.203359
 30
0.0
 10
63.981211
 20
132.413182
 30
0.0
 10
64.150435
 20
132.413182
 30
0.0
 10
64.255715
 20
132.446255
 30
0.0
 10
64.288238
 20
132.562562
 30
0.0
 10
64.255715
 20
132.678868
 30
0.0
 10
64.150435
 20
132.711389
 30
0.0
 10
63.417868
 20
132.711389
 30
0.0
 10
63.310381
 20
132.678868
 30
0.0
 10
63.280064
 20
132.562562
 30
0.0
 10
63.310381
 20
132.446255
 30
0.0
 10
63.417868
 20
132.413182
 30
0.0
 10
63.637253
 20
132.413182
 30
0.0
 10
62.959810
 20
130.475108
 30
0.0
 10
62.288979
 20
132.413182
 30
0.0
 10
62.598213
 20
132.413182
 30
0.0
 10
62.702942
 20
132.446255
 30
0.0
 10
62.736016
 20
132.562562
 30
0.0
 10
62.702942
 20
132.678868
 30
0.0
 10
62.598213
 20
132.711389
 30
0.0
 10
61.778004
 20
132.711389
 30
0.0
 10
61.778004
 20
132.711389
 30
0.0
  0
LWPOLYLINE
  5
114
100
AcDbEntity
  8
Layer_1
 62
7
100
AcDbPolyline
 90
63
 70
0
 10
38.565777
 20
132.183326
 30
0.0
 10
38.256546
 20
132.143637
 30
0.0
 10
38.011255
 20
132.027330
 30
0.0
 10
37.848647
 20
131.836610
 30
0.0
 10
37.789666
 20
131.578092
 30
0.0
 10
37.813920
 20
131.407215
 30
0.0
 10
37.883925
 20
131.275473
 30
0.0
 10
37.991409
 20
131.176806
 30
0.0
 10
38.127009
 20
131.106800
 30
0.0
 10
38.383876
 20
131.036245
 30
0.0
 10
38.664444
 20
130.997109
 30
0.0
 10
38.931785
 20
130.966242
 30
0.0
 10
39.155576
 20
130.918284
 30
0.0
 10
39.291728
 20
130.841116
 30
0.0
 10
39.341888
 20
130.716541
 30
0.0
 10
39.210147
 20
130.470700
 30
0.0
 10
38.815478
 20
130.378647
 30
0.0
 10
38.326548
 20
130.472904
 30
0.0
 10
38.061415
 20
130.782135
 30
0.0
 10
38.017868
 20
130.849936
 30
0.0
 10
37.942904
 20
130.871983
 30
0.0
 10
37.813920
 20
130.838909
 30
0.0
 10
37.778642
 20
130.729771
 30
0.0
 10
37.778642
 20
130.203359
 30
0.0
 10
37.813920
 20
130.093668
 30
0.0
 10
37.942904
 20
130.060594
 30
0.0
 10
38.070234
 20
130.093668
 30
0.0
 10
38.107716
 20
130.203359
 30
0.0
 10
38.107716
 20
130.326281
 30
0.0
 10
38.419154
 20
130.126741
 30
0.0
 10
38.837526
 20
130.060594
 30
0.0
 10
39.199673
 20
130.109102
 30
0.0
 10
39.467014
 20
130.240841
 30
0.0
 10
39.631276
 20
130.448650
 30
0.0
 10
39.688603
 20
130.716541
 30
0.0
 10
39.659938
 20
130.900645
 30
0.0
 10
39.583320
 20
131.040656
 30
0.0
 10
39.467014
 20
131.143732
 30
0.0
 10
39.317634
 20
131.218699
 30
0.0
 10
39.061319
 20
131.282089
 30
0.0
 10
38.787366
 20
131.317366
 30
0.0
 10
38.528295
 20
131.345478
 30
0.0
 10
38.313871
 20
131.391780
 30
0.0
 10
38.182132
 20
131.461785
 30
0.0
 10
38.135828
 20
131.578092
 30
0.0
 10
38.254342
 20
131.790859
 30
0.0
 10
38.587827
 20
131.865273
 30
0.0
 10
38.826502
 20
131.849841
 30
0.0
 10
39.030453
 20
131.797474
 30
0.0
 10
39.195265
 20
131.696602
 30
0.0
 10
39.317634
 20
131.538403
 30
0.0
 10
39.422917
 20
131.481628
 30
0.0
 10
39.550247
 20
131.514702
 30
0.0
 10
39.587729
 20
131.623840
 30
0.0
 10
39.587729
 20
132.040561
 30
0.0
 10
39.550247
 20
132.150252
 30
0.0
 10
39.422917
 20
132.183326
 30
0.0
 10
39.293933
 20
132.150252
 30
0.0
 10
39.258655
 20
132.040561
 30
0.0
 10
39.258655
 20
131.941893
 30
0.0
 10
38.958243
 20
132.117178
 30
0.0
 10
38.565777
 20
132.183326
 30
0.0
 10
38.565777
 20
132.183326
 30
0.0
  0
LWPOLYLINE
  5
115
100
AcDbEntity
  8
Layer_1
 62
7
100
AcDbPolyline
 90
44
 70
0
 10
46.862119
 20
132.183326
 30
0.0
 10
46.634465
 20
132.167891
 30
0.0
 10
46.408467
 20
132.123794
 30
0.0
 10
46.195700
 20
132.047173
 30
0.0
 10
46.007184
 20
131.937482
 30
0.0
 10
45.945998
 20
131.845430
 30
0.0
 10
45.985134
 20
131.724715
 30
0.0
 10
46.086008
 20
131.645890
 30
0.0
 10
46.189084
 20
131.672348
 30
0.0
 10
46.504931
 20
131.816767
 30
0.0
 10
46.862119
 20
131.865273
 30
0.0
 10
47.211036
 20
131.764401
 30
0.0
 10
47.314115
 20
131.452966
 30
0.0
 10
47.314115
 20
131.266654
 30
0.0
 10
46.991654
 20
131.349887
 30
0.0
 10
46.647145
 20
131.378549
 30
0.0
 10
46.305391
 20
131.341067
 30
0.0
 10
46.022618
 20
131.223107
 30
0.0
 10
45.829691
 20
131.014748
 30
0.0
 10
45.759686
 20
130.701106
 30
0.0
 10
45.814257
 20
130.429357
 30
0.0
 10
45.971906
 20
130.227613
 30
0.0
 10
46.211132
 20
130.104691
 30
0.0
 10
46.513750
 20
130.060594
 30
0.0
 10
46.965195
 20
130.148238
 30
0.0
 10
47.346636
 20
130.389671
 30
0.0
 10
47.397348
 20
130.264545
 30
0.0
 10
47.482785
 20
130.176901
 30
0.0
 10
47.594684
 20
130.124534
 30
0.0
 10
47.723668
 20
130.109102
 30
0.0
 10
47.864228
 20
130.109102
 30
0.0
 10
47.969509
 20
130.142173
 30
0.0
 10
48.002582
 20
130.257930
 30
0.0
 10
47.969509
 20
130.374236
 30
0.0
 10
47.864228
 20
130.407310
 30
0.0
 10
47.787608
 20
130.407310
 30
0.0
 10
47.679020
 20
130.450303
 30
0.0
 10
47.642639
 20
130.580391
 30
0.0
 10
47.642639
 20
131.452966
 30
0.0
 10
47.593580
 20
131.770466
 30
0.0
 10
47.447508
 20
131.999218
 30
0.0
 10
47.204424
 20
132.137022
 30
0.0
 10
46.862119
 20
132.183326
 30
0.0
 10
46.862119
 20
132.183326
 30
0.0
  0
LWPOLYLINE
  5
116
100
AcDbEntity
  8
Layer_1
 62
7
100
AcDbPolyline
 90
51
 70
0
 10
49.749936
 20
132.183326
 30
0.0
 10
49.331011
 20
132.064812
 30
0.0
 10
48.993117
 20
131.722508
 30
0.0
 10
48.993117
 20
131.985990
 30
0.0
 10
48.960594
 20
132.102297
 30
0.0
 10
48.855314
 20
132.134817
 30
0.0
 10
48.462847
 20
132.134817
 30
0.0
 10
48.355360
 20
132.102297
 30
0.0
 10
48.324493
 20
131.985990
 30
0.0
 10
48.355360
 20
131.869684
 30
0.0
 10
48.462847
 20
131.836610
 30
0.0
 10
48.686641
 20
131.836610
 30
0.0
 10
48.686641
 20
130.407310
 30
0.0
 10
48.506394
 20
130.407310
 30
0.0
 10
48.399457
 20
130.374236
 30
0.0
 10
48.368591
 20
130.257930
 30
0.0
 10
48.399457
 20
130.142173
 30
0.0
 10
48.506394
 20
130.109102
 30
0.0
 10
49.216908
 20
130.109102
 30
0.0
 10
49.322191
 20
130.142173
 30
0.0
 10
49.355265
 20
130.257930
 30
0.0
 10
49.322191
 20
130.374236
 30
0.0
 10
49.216908
 20
130.407310
 30
0.0
 10
49.015165
 20
130.407310
 30
0.0
 10
49.015165
 20
131.034041
 30
0.0
 10
49.072492
 20
131.365322
 30
0.0
 10
49.225731
 20
131.626047
 30
0.0
 10
49.449522
 20
131.797474
 30
0.0
 10
49.716862
 20
131.858660
 30
0.0
 10
49.872855
 20
131.827791
 30
0.0
 10
49.984203
 20
131.740147
 30
0.0
 10
50.050347
 20
131.606754
 30
0.0
 10
50.071844
 20
131.435327
 30
0.0
 10
50.071844
 20
130.407310
 30
0.0
 10
49.870651
 20
130.407310
 30
0.0
 10
49.763164
 20
130.374236
 30
0.0
 10
49.732297
 20
130.257930
 30
0.0
 10
49.763164
 20
130.142173
 30
0.0
 10
49.870651
 20
130.109102
 30
0.0
 10
50.580617
 20
130.109102
 30
0.0
 10
50.685898
 20
130.142173
 30
0.0
 10
50.718971
 20
130.257930
 30
0.0
 10
50.685898
 20
130.374236
 30
0.0
 10
50.580617
 20
130.407310
 30
0.0
 10
50.400921
 20
130.407310
 30
0.0
 10
50.400921
 20
131.468398
 30
0.0
 10
50.355170
 20
131.764401
 30
0.0
 10
50.225633
 20
131.990399
 30
0.0
 10
50.021685
 20
132.132613
 30
0.0
 10
49.749936
 20
132.183326
 30
0.0
 10
49.749936
 20
132.183326
 30
0.0
  0
LWPOLYLINE
  5
117
100
AcDbEntity
  8
Layer_1
 62
7
100
AcDbPolyline
 90
63
 70
0
 10
54.720242
 20
132.183326
 30
0.0
 10
54.411011
 20
132.143637
 30
0.0
 10
54.165720
 20
132.027330
 30
0.0
 10
54.003112
 20
131.836610
 30
0.0
 10
53.944131
 20
131.578092
 30
0.0
 10
53.968385
 20
131.407215
 30
0.0
 10
54.038390
 20
131.275473
 30
0.0
 10
54.145877
 20
131.176806
 30
0.0
 10
54.281476
 20
131.106800
 30
0.0
 10
54.538341
 20
131.036245
 30
0.0
 10
54.818909
 20
130.997109
 30
0.0
 10
55.086250
 20
130.966242
 30
0.0
 10
55.310044
 20
130.918284
 30
0.0
 10
55.446193
 20
130.841116
 30
0.0
 10
55.496353
 20
130.716541
 30
0.0
 10
55.364614
 20
130.470700
 30
0.0
 10
54.969943
 20
130.378647
 30
0.0
 10
54.481016
 20
130.472904
 30
0.0
 10
54.215882
 20
130.782135
 30
0.0
 10
54.172335
 20
130.849936
 30
0.0
 10
54.097369
 20
130.871983
 30
0.0
 10
53.968385
 20
130.838909
 30
0.0
 10
53.933107
 20
130.729771
 30
0.0
 10
53.933107
 20
130.203359
 30
0.0
 10
53.968385
 20
130.093668
 30
0.0
 10
54.097369
 20
130.060594
 30
0.0
 10
54.224702
 20
130.093668
 30
0.0
 10
54.262184
 20
130.203359
 30
0.0
 10
54.262184
 20
130.326281
 30
0.0
 10
54.573068
 20
130.126741
 30
0.0
 10
54.991993
 20
130.060594
 30
0.0
 10
55.354141
 20
130.109102
 30
0.0
 10
55.621479
 20
130.240841
 30
0.0
 10
55.785743
 20
130.448650
 30
0.0
 10
55.843068
 20
130.716541
 30
0.0
 10
55.814406
 20
130.900645
 30
0.0
 10
55.737785
 20
131.040656
 30
0.0
 10
55.621479
 20
131.143732
 30
0.0
 10
55.472101
 20
131.218699
 30
0.0
 10
55.215784
 20
131.282089
 30
0.0
 10
54.941831
 20
131.317366
 30
0.0
 10
54.682760
 20
131.345478
 30
0.0
 10
54.468339
 20
131.391780
 30
0.0
 10
54.336597
 20
131.461785
 30
0.0
 10
54.290296
 20
131.578092
 30
0.0
 10
54.408807
 20
131.790859
 30
0.0
 10
54.742292
 20
131.865273
 30
0.0
 10
54.980967
 20
131.849841
 30
0.0
 10
55.184918
 20
131.797474
 30
0.0
 10
55.349730
 20
131.696602
 30
0.0
 10
55.472101
 20
131.538403
 30
0.0
 10
55.577382
 20
131.481628
 30
0.0
 10
55.704715
 20
131.514702
 30
0.0
 10
55.742197
 20
131.623840
 30
0.0
 10
55.742197
 20
132.040561
 30
0.0
 10
55.704715
 20
132.150252
 30
0.0
 10
55.577382
 20
132.183326
 30
0.0
 10
55.448398
 20
132.150252
 30
0.0
 10
55.413120
 20
132.040561
 30
0.0
 10
55.413120
 20
131.941893
 30
0.0
 10
55.112708
 20
132.117178
 30
0.0
 10
54.720242
 20
132.183326
 30
0.0
 10
54.720242
 20
132.183326
 30
0.0
  0
LWPOLYLINE
  5
118
100
AcDbEntity
  8
Layer_1
 62
7
100
AcDbPolyline
 90
42
 70
0
 10
68.338017
 20
132.183326
 30
0.0
 10
67.905864
 20
132.102297
 30
0.0
 10
67.572930
 20
131.880707
 30
0.0
 10
67.357955
 20
131.542814
 30
0.0
 10
67.281338
 20
131.122235
 30
0.0
 10
67.355751
 20
130.698902
 30
0.0
 10
67.568521
 20
130.363213
 30
0.0
 10
67.901453
 20
130.139969
 30
0.0
 10
68.338017
 20
130.060594
 30
0.0
 10
68.826944
 20
130.135561
 30
0.0
 10
69.241458
 20
130.341716
 30
0.0
 10
69.309257
 20
130.450854
 30
0.0
 10
69.278390
 20
130.573776
 30
0.0
 10
69.181926
 20
130.661420
 30
0.0
 10
69.074439
 20
130.628897
 30
0.0
 10
68.728277
 20
130.446445
 30
0.0
 10
68.338017
 20
130.385260
 30
0.0
 10
68.046425
 20
130.439830
 30
0.0
 10
67.820424
 20
130.593619
 30
0.0
 10
67.678213
 20
130.826232
 30
0.0
 10
67.627500
 20
131.122235
 30
0.0
 10
67.682621
 20
131.416034
 30
0.0
 10
67.833655
 20
131.650298
 30
0.0
 10
68.064064
 20
131.804090
 30
0.0
 10
68.360064
 20
131.858660
 30
0.0
 10
68.625201
 20
131.823382
 30
0.0
 10
68.815921
 20
131.729123
 30
0.0
 10
68.934432
 20
131.586908
 30
0.0
 10
68.973567
 20
131.405008
 30
0.0
 10
69.008845
 20
131.295316
 30
0.0
 10
69.138382
 20
131.262243
 30
0.0
 10
69.265159
 20
131.295316
 30
0.0
 10
69.302644
 20
131.405008
 30
0.0
 10
69.302644
 20
132.040561
 30
0.0
 10
69.265159
 20
132.150252
 30
0.0
 10
69.138382
 20
132.183326
 30
0.0
 10
69.008845
 20
132.150252
 30
0.0
 10
68.973567
 20
132.040561
 30
0.0
 10
68.973567
 20
131.908819
 30
0.0
 10
68.699614
 20
132.110563
 30
0.0
 10
68.338017
 20
132.183326
 30
0.0
 10
68.338017
 20
132.183326
 30
0.0
  0
LWPOLYLINE
  5
119
100
AcDbEntity
  8
Layer_1
 62
7
100
AcDbPolyline
 90
18
 70
0
 10
73.733863
 20
132.183326
 30
0.0
 10
73.301710
 20
132.103951
 30
0.0
 10
72.959956
 20
131.882911
 30
0.0
 10
72.731754
 20
131.547222
 30
0.0
 10
72.650725
 20
131.122235
 30
0.0
 10
72.731754
 20
130.694493
 30
0.0
 10
72.959956
 20
130.358801
 30
0.0
 10
73.301710
 20
130.139969
 30
0.0
 10
73.733863
 20
130.060594
 30
0.0
 10
74.163259
 20
130.139969
 30
0.0
 10
74.507770
 20
130.358801
 30
0.0
 10
74.733768
 20
130.694493
 30
0.0
 10
74.817001
 20
131.122235
 30
0.0
 10
74.733768
 20
131.547222
 30
0.0
 10
74.507770
 20
131.882911
 30
0.0
 10
74.163259
 20
132.103951
 30
0.0
 10
73.733863
 20
132.183326
 30
0.0
 10
73.733863
 20
132.183326
 30
0.0
  0
LWPOLYLINE
  5
11a
100
AcDbEntity
  8
Layer_1
 62
7
100
AcDbPolyline
 90
40
 70
0
 10
77.096826
 20
132.183326
 30
0.0
 10
76.844923
 20
132.137022
 30
0.0
 10
76.599632
 20
132.009691
 30
0.0
 10
76.375839
 20
131.808498
 30
0.0
 10
76.191731
 20
131.542814
 30
0.0
 10
76.191731
 20
131.985990
 30
0.0
 10
76.158660
 20
132.102297
 30
0.0
 10
76.053377
 20
132.134817
 30
0.0
 10
75.606340
 20
132.134817
 30
0.0
 10
75.498853
 20
132.102297
 30
0.0
 10
75.467986
 20
131.985990
 30
0.0
 10
75.498853
 20
131.869684
 30
0.0
 10
75.606340
 20
131.836610
 30
0.0
 10
75.884704
 20
131.836610
 30
0.0
 10
75.884704
 20
130.407310
 30
0.0
 10
75.540195
 20
130.407310
 30
0.0
 10
75.432708
 20
130.374236
 30
0.0
 10
75.402392
 20
130.257930
 30
0.0
 10
75.432708
 20
130.142173
 30
0.0
 10
75.540195
 20
130.109102
 30
0.0
 10
76.952410
 20
130.109102
 30
0.0
 10
77.057690
 20
130.142173
 30
0.0
 10
77.090214
 20
130.257930
 30
0.0
 10
77.057690
 20
130.374236
 30
0.0
 10
76.952410
 20
130.407310
 30
0.0
 10
76.213231
 20
130.407310
 30
0.0
 10
76.213231
 20
130.832297
 30
0.0
 10
76.248508
 20
131.091368
 30
0.0
 10
76.344969
 20
131.325633
 30
0.0
 10
76.489938
 20
131.525175
 30
0.0
 10
76.667431
 20
131.681168
 30
0.0
 10
76.864766
 20
131.782040
 30
0.0
 10
77.066510
 20
131.818971
 30
0.0
 10
77.296368
 20
131.759992
 30
0.0
 10
77.406060
 20
131.755581
 30
0.0
 10
77.484882
 20
131.867480
 30
0.0
 10
77.498112
 20
132.003629
 30
0.0
 10
77.417083
 20
132.095682
 30
0.0
 10
77.096826
 20
132.183326
 30
0.0
 10
77.096826
 20
132.183326
 30
0.0
  0
LWPOLYLINE
  5
11b
100
AcDbEntity
  8
Layer_1
 62
7
100
AcDbPolyline
 90
44
 70
0
 10
81.863737
 20
132.183326
 30
0.0
 10
81.635535
 20
132.167891
 30
0.0
 10
81.409534
 20
132.123794
 30
0.0
 10
81.197317
 20
132.047173
 30
0.0
 10
81.008251
 20
131.937482
 30
0.0
 10
80.947065
 20
131.845430
 30
0.0
 10
80.986754
 20
131.724715
 30
0.0
 10
81.087626
 20
131.645890
 30
0.0
 10
81.190702
 20
131.672348
 30
0.0
 10
81.505998
 20
131.816767
 30
0.0
 10
81.863737
 20
131.865273
 30
0.0
 10
82.212104
 20
131.764401
 30
0.0
 10
82.315183
 20
131.452966
 30
0.0
 10
82.315183
 20
131.266654
 30
0.0
 10
81.992721
 20
131.349887
 30
0.0
 10
81.648763
 20
131.378549
 30
0.0
 10
81.306458
 20
131.341067
 30
0.0
 10
81.023686
 20
131.223107
 30
0.0
 10
80.830759
 20
131.014748
 30
0.0
 10
80.760756
 20
130.701106
 30
0.0
 10
80.815327
 20
130.429357
 30
0.0
 10
80.973524
 20
130.227613
 30
0.0
 10
81.212202
 20
130.104691
 30
0.0
 10
81.514817
 20
130.060594
 30
0.0
 10
81.966813
 20
130.148238
 30
0.0
 10
82.348256
 20
130.389671
 30
0.0
 10
82.398416
 20
130.264545
 30
0.0
 10
82.483853
 20
130.176901
 30
0.0
 10
82.595751
 20
130.124534
 30
0.0
 10
82.725285
 20
130.109102
 30
0.0
 10
82.865296
 20
130.109102
 30
0.0
 10
82.970576
 20
130.142173
 30
0.0
 10
83.003650
 20
130.257930
 30
0.0
 10
82.970576
 20
130.374236
 30
0.0
 10
82.865296
 20
130.407310
 30
0.0
 10
82.788675
 20
130.407310
 30
0.0
 10
82.680088
 20
130.450303
 30
0.0
 10
82.644257
 20
130.580391
 30
0.0
 10
82.644257
 20
131.452966
 30
0.0
 10
82.595201
 20
131.770466
 30
0.0
 10
82.449128
 20
131.999218
 30
0.0
 10
82.206042
 20
132.137022
 30
0.0
 10
81.863737
 20
132.183326
 30
0.0
 10
81.863737
 20
132.183326
 30
0.0
  0
LWPOLYLINE
  5
11c
100
AcDbEntity
  8
Layer_1
 62
7
100
AcDbPolyline
 90
32
 70
0
 10
43.019046
 20
132.134817
 30
0.0
 10
42.911559
 20
132.102297
 30
0.0
 10
42.880689
 20
131.985990
 30
0.0
 10
42.911559
 20
131.869684
 30
0.0
 10
43.019046
 20
131.836610
 30
0.0
 10
43.154645
 20
131.836610
 30
0.0
 10
43.856340
 20
130.203359
 30
0.0
 10
43.943984
 20
130.095872
 30
0.0
 10
44.110453
 20
130.060594
 30
0.0
 10
44.279673
 20
130.095872
 30
0.0
 10
44.369522
 20
130.203359
 30
0.0
 10
45.077284
 20
131.836610
 30
0.0
 10
45.215638
 20
131.836610
 30
0.0
 10
45.320921
 20
131.869684
 30
0.0
 10
45.353992
 20
131.985990
 30
0.0
 10
45.320921
 20
132.102297
 30
0.0
 10
45.215638
 20
132.134817
 30
0.0
 10
44.527171
 20
132.134817
 30
0.0
 10
44.419684
 20
132.102297
 30
0.0
 10
44.389367
 20
131.985990
 30
0.0
 10
44.419684
 20
131.869684
 30
0.0
 10
44.527171
 20
131.836610
 30
0.0
 10
44.717891
 20
131.836610
 30
0.0
 10
44.112657
 20
130.407310
 30
0.0
 10
43.514035
 20
131.836610
 30
0.0
 10
43.795157
 20
131.836610
 30
0.0
 10
43.900437
 20
131.869684
 30
0.0
 10
43.932960
 20
131.985990
 30
0.0
 10
43.900437
 20
132.102297
 30
0.0
 10
43.795157
 20
132.134817
 30
0.0
 10
43.019046
 20
132.134817
 30
0.0
 10
43.019046
 20
132.134817
 30
0.0
  0
LWPOLYLINE
  5
11d
100
AcDbEntity
  8
Layer_1
 62
7
100
AcDbPolyline
 90
23
 70
0
 10
56.912978
 20
132.134817
 30
0.0
 10
56.805491
 20
132.102297
 30
0.0
 10
56.774622
 20
131.985990
 30
0.0
 10
56.805491
 20
131.869684
 30
0.0
 10
56.912978
 20
131.836610
 30
0.0
 10
57.467500
 20
131.836610
 30
0.0
 10
57.467500
 20
130.407310
 30
0.0
 10
56.781237
 20
130.407310
 30
0.0
 10
56.673750
 20
130.374236
 30
0.0
 10
56.642881
 20
130.257930
 30
0.0
 10
56.673750
 20
130.142173
 30
0.0
 10
56.781237
 20
130.109102
 30
0.0
 10
58.499925
 20
130.109102
 30
0.0
 10
58.605208
 20
130.142173
 30
0.0
 10
58.638282
 20
130.257930
 30
0.0
 10
58.605208
 20
130.374236
 30
0.0
 10
58.499925
 20
130.407310
 30
0.0
 10
57.796577
 20
130.407310
 30
0.0
 10
57.796577
 20
131.985990
 30
0.0
 10
57.763503
 20
132.102297
 30
0.0
 10
57.658220
 20
132.134817
 30
0.0
 10
56.912978
 20
132.134817
 30
0.0
 10
56.912978
 20
132.134817
 30
0.0
  0
LWPOLYLINE
  5
11e
100
AcDbEntity
  8
Layer_1
 62
7
100
AcDbPolyline
 90
23
 70
0
 10
64.989936
 20
132.134817
 30
0.0
 10
64.882449
 20
132.102297
 30
0.0
 10
64.852132
 20
131.985990
 30
0.0
 10
64.882449
 20
131.869684
 30
0.0
 10
64.989936
 20
131.836610
 30
0.0
 10
65.544457
 20
131.836610
 30
0.0
 10
65.544457
 20
130.407310
 30
0.0
 10
64.858194
 20
130.407310
 30
0.0
 10
64.751258
 20
130.374236
 30
0.0
 10
64.720391
 20
130.257930
 30
0.0
 10
64.751258
 20
130.142173
 30
0.0
 10
64.858194
 20
130.109102
 30
0.0
 10
66.577436
 20
130.109102
 30
0.0
 10
66.682716
 20
130.142173
 30
0.0
 10
66.715239
 20
130.257930
 30
0.0
 10
66.682716
 20
130.374236
 30
0.0
 10
66.577436
 20
130.407310
 30
0.0
 10
65.873534
 20
130.407310
 30
0.0
 10
65.873534
 20
131.985990
 30
0.0
 10
65.840460
 20
132.102297
 30
0.0
 10
65.735177
 20
132.134817
 30
0.0
 10
64.989936
 20
132.134817
 30
0.0
 10
64.989936
 20
132.134817
 30
0.0
  0
LWPOLYLINE
  5
11f
100
AcDbEntity
  8
Layer_1
 62
7
100
AcDbPolyline
 90
23
 70
0
 10
78.452266
 20
132.134817
 30
0.0
 10
78.344779
 20
132.102297
 30
0.0
 10
78.313909
 20
131.985990
 30
0.0
 10
78.344779
 20
131.869684
 30
0.0
 10
78.452266
 20
131.836610
 30
0.0
 10
79.006787
 20
131.836610
 30
0.0
 10
79.006787
 20
130.407310
 30
0.0
 10
78.320525
 20
130.407310
 30
0.0
 10
78.213037
 20
130.374236
 30
0.0
 10
78.182171
 20
130.257930
 30
0.0
 10
78.213037
 20
130.142173
 30
0.0
 10
78.320525
 20
130.109102
 30
0.0
 10
80.039216
 20
130.109102
 30
0.0
 10
80.144496
 20
130.142173
 30
0.0
 10
80.177569
 20
130.257930
 30
0.0
 10
80.144496
 20
130.374236
 30
0.0
 10
80.039216
 20
130.407310
 30
0.0
 10
79.335864
 20
130.407310
 30
0.0
 10
79.335864
 20
131.985990
 30
0.0
 10
79.302791
 20
132.102297
 30
0.0
 10
79.197508
 20
132.134817
 30
0.0
 10
78.452266
 20
132.134817
 30
0.0
 10
78.452266
 20
132.134817
 30
0.0
  0
LWPOLYLINE
  5
120
100
AcDbEntity
  8
Layer_1
 62
7
100
AcDbPolyline
 90
18
 70
0
 10
73.733863
 20
131.858660
 30
0.0
 10
74.034275
 20
131.804090
 30
0.0
 10
74.266338
 20
131.650298
 30
0.0
 10
74.415715
 20
131.416034
 30
0.0
 10
74.470285
 20
131.122235
 30
0.0
 10
74.415715
 20
130.826232
 30
0.0
 10
74.266338
 20
130.593619
 30
0.0
 10
74.034275
 20
130.439830
 30
0.0
 10
73.733863
 20
130.385260
 30
0.0
 10
73.433452
 20
130.439830
 30
0.0
 10
73.200839
 20
130.593619
 30
0.0
 10
73.049805
 20
130.826232
 30
0.0
 10
72.996888
 20
131.122235
 30
0.0
 10
73.049805
 20
131.416034
 30
0.0
 10
73.200839
 20
131.650298
 30
0.0
 10
73.433452
 20
131.804090
 30
0.0
 10
73.733863
 20
131.858660
 30
0.0
 10
73.733863
 20
131.858660
 30
0.0
  0
LWPOLYLINE
  5
121
100
AcDbEntity
  8
Layer_1
 62
7
100
AcDbPolyline
 90
13
 70
0
 10
46.649349
 20
131.069318
 30
0.0
 10
46.991654
 20
131.045064
 30
0.0
 10
47.314115
 20
130.970651
 30
0.0
 10
47.314115
 20
130.731975
 30
0.0
 10
46.956376
 20
130.466289
 30
0.0
 10
46.526981
 20
130.369825
 30
0.0
 10
46.215543
 20
130.457469
 30
0.0
 10
46.105851
 20
130.707721
 30
0.0
 10
46.145537
 20
130.874187
 30
0.0
 10
46.259090
 20
130.986085
 30
0.0
 10
46.430517
 20
131.049475
 30
0.0
 10
46.649349
 20
131.069318
 30
0.0
 10
46.649349
 20
131.069318
 30
0.0
  0
LWPOLYLINE
  5
122
100
AcDbEntity
  8
Layer_1
 62
7
100
AcDbPolyline
 90
13
 70
0
 10
81.650967
 20
131.069318
 30
0.0
 10
81.992721
 20
131.045064
 30
0.0
 10
82.315183
 20
130.970651
 30
0.0
 10
82.315183
 20
130.731975
 30
0.0
 10
81.957994
 20
130.466289
 30
0.0
 10
81.528048
 20
130.369825
 30
0.0
 10
81.216610
 20
130.457469
 30
0.0
 10
81.106919
 20
130.707721
 30
0.0
 10
81.146605
 20
130.874187
 30
0.0
 10
81.260707
 20
130.986085
 30
0.0
 10
81.431584
 20
131.049475
 30
0.0
 10
81.650967
 20
131.069318
 30
0.0
 10
81.650967
 20
131.069318
 30
0.0
  0
LWPOLYLINE
  5
123
100
AcDbEntity
  8
Layer_1
 62
7
100
AcDbPolyline
 90
13
 70
0
 10
54.777019
 20
129.788845
 30
0.0
 10
54.715833
 20
129.771206
 30
0.0
 10
54.684964
 20
129.718840
 30
0.0
 10
54.549367
 20
129.080535
 30
0.0
 10
54.567006
 20
128.990687
 30
0.0
 10
54.656855
 20
128.958164
 30
0.0
 10
54.740088
 20
128.979660
 30
0.0
 10
54.799066
 20
129.039192
 30
0.0
 10
55.136963
 20
129.676950
 30
0.0
 10
55.145782
 20
129.755772
 30
0.0
 10
55.088454
 20
129.788845
 30
0.0
 10
54.777019
 20
129.788845
 30
0.0
 10
54.777019
 20
129.788845
 30
0.0
  0
LWPOLYLINE
  5
124
100
AcDbEntity
  8
Layer_1
 62
7
100
AcDbPolyline
 90
12
 70
0
 10
63.770095
 20
125.475036
 30
0.0
 10
63.625126
 20
125.446371
 30
0.0
 10
63.588745
 20
125.351011
 30
0.0
 10
63.588745
 20
125.102412
 30
0.0
 10
63.625126
 20
125.007052
 30
0.0
 10
63.770095
 20
124.978390
 30
0.0
 10
63.915617
 20
125.007052
 30
0.0
 10
63.951996
 20
125.102412
 30
0.0
 10
63.951996
 20
125.351011
 30
0.0
 10
63.915617
 20
125.446371
 30
0.0
 10
63.770095
 20
125.475036
 30
0.0
 10
63.770095
 20
125.475036
 30
0.0
  0
LWPOLYLINE
  5
125
100
AcDbEntity
  8
Layer_1
 62
7
100
AcDbPolyline
 90
33
 70
0
 10
58.086515
 20
125.377469
 30
0.0
 10
57.992809
 20
125.348807
 30
0.0
 10
57.966350
 20
125.247935
 30
0.0
 10
57.992809
 20
125.146510
 30
0.0
 10
58.086515
 20
125.117847
 30
0.0
 10
58.281646
 20
125.117847
 30
0.0
 10
58.281646
 20
123.130165
 30
0.0
 10
58.124547
 20
123.130165
 30
0.0
 10
58.031394
 20
123.101502
 30
0.0
 10
58.004383
 20
123.000077
 30
0.0
 10
58.031394
 20
122.898655
 30
0.0
 10
58.124547
 20
122.869992
 30
0.0
 10
58.428819
 20
122.869992
 30
0.0
 10
58.520322
 20
122.898655
 30
0.0
 10
58.548984
 20
123.000077
 30
0.0
 10
58.548984
 20
123.153315
 30
0.0
 10
58.824041
 20
122.912436
 30
0.0
 10
59.174064
 20
122.828099
 30
0.0
 10
59.502588
 20
122.891489
 30
0.0
 10
59.762760
 20
123.072840
 30
0.0
 10
59.936394
 20
123.364982
 30
0.0
 10
59.999784
 20
123.753037
 30
0.0
 10
59.936394
 20
124.141093
 30
0.0
 10
59.762760
 20
124.431584
 30
0.0
 10
59.502588
 20
124.615139
 30
0.0
 10
59.174064
 20
124.677978
 30
0.0
 10
58.831757
 20
124.594192
 30
0.0
 10
58.568277
 20
124.362683
 30
0.0
 10
58.568277
 20
125.247935
 30
0.0
 10
58.539614
 20
125.348807
 30
0.0
 10
58.447562
 20
125.377469
 30
0.0
 10
58.086515
 20
125.377469
 30
0.0
 10
58.086515
 20
125.377469
 30
0.0
  0
LWPOLYLINE
  5
126
100
AcDbEntity
  8
Layer_1
 62
7
100
AcDbPolyline
 90
24
 70
0
 10
75.609097
 20
125.186199
 30
0.0
 10
75.552323
 20
125.179033
 30
0.0
 10
74.855036
 20
124.928781
 30
0.0
 10
74.792197
 20
124.873107
 30
0.0
 10
74.797708
 20
124.762312
 30
0.0
 10
74.856687
 20
124.672464
 30
0.0
 10
74.937166
 20
124.670260
 30
0.0
 10
75.411211
 20
124.842240
 30
0.0
 10
75.411211
 20
123.130165
 30
0.0
 10
74.896926
 20
123.130165
 30
0.0
 10
74.803220
 20
123.101502
 30
0.0
 10
74.776762
 20
123.000077
 30
0.0
 10
74.803220
 20
122.898655
 30
0.0
 10
74.896926
 20
122.869992
 30
0.0
 10
76.185118
 20
122.869992
 30
0.0
 10
76.277171
 20
122.898655
 30
0.0
 10
76.305833
 20
123.000077
 30
0.0
 10
76.277171
 20
123.101502
 30
0.0
 10
76.185118
 20
123.130165
 30
0.0
 10
75.697842
 20
123.130165
 30
0.0
 10
75.697842
 20
125.060519
 30
0.0
 10
75.655952
 20
125.165802
 30
0.0
 10
75.609097
 20
125.186199
 30
0.0
 10
75.609097
 20
125.186199
 30
0.0
  0
LWPOLYLINE
  5
127
100
AcDbEntity
  8
Layer_1
 62
7
100
AcDbPolyline
 90
49
 70
0
 10
40.248086
 20
125.180687
 30
0.0
 10
39.919010
 20
125.136590
 30
0.0
 10
39.638441
 20
125.012564
 30
0.0
 10
39.598202
 20
124.970674
 30
0.0
 10
39.586628
 20
124.903423
 30
0.0
 10
39.586628
 20
124.695064
 30
0.0
 10
39.617495
 20
124.599704
 30
0.0
 10
39.729943
 20
124.571042
 30
0.0
 10
39.840738
 20
124.599704
 30
0.0
 10
39.873259
 20
124.695064
 30
0.0
 10
39.873259
 20
124.823498
 30
0.0
 10
40.249740
 20
124.897911
 30
0.0
 10
40.568894
 20
124.804205
 30
0.0
 10
40.681893
 20
124.550095
 30
0.0
 10
40.568894
 20
124.282757
 30
0.0
 10
40.238164
 20
124.190702
 30
0.0
 10
40.133434
 20
124.190702
 30
0.0
 10
40.039727
 20
124.162040
 30
0.0
 10
40.012716
 20
124.060617
 30
0.0
 10
40.039727
 20
123.959743
 30
0.0
 10
40.133434
 20
123.931080
 30
0.0
 10
40.272891
 20
123.931080
 30
0.0
 10
40.622361
 20
123.829658
 30
0.0
 10
40.748591
 20
123.529797
 30
0.0
 10
40.626219
 20
123.225525
 30
0.0
 10
40.262968
 20
123.110872
 30
0.0
 10
39.963107
 20
123.166546
 30
0.0
 10
39.693562
 20
123.313719
 30
0.0
 10
39.605921
 20
123.334666
 30
0.0
 10
39.517726
 20
123.258048
 30
0.0
 10
39.487410
 20
123.145599
 30
0.0
 10
39.542531
 20
123.068979
 30
0.0
 10
39.703485
 20
122.969761
 30
0.0
 10
39.880977
 20
122.893143
 30
0.0
 10
40.070044
 20
122.845188
 30
0.0
 10
40.262968
 20
122.828099
 30
0.0
 10
40.597557
 20
122.879912
 30
0.0
 10
40.843951
 20
123.023231
 30
0.0
 10
40.997186
 20
123.244817
 30
0.0
 10
41.050656
 20
123.529797
 30
0.0
 10
40.951438
 20
123.867690
 30
0.0
 10
40.683547
 20
124.076049
 30
0.0
 10
40.895764
 20
124.261258
 30
0.0
 10
40.976242
 20
124.550095
 30
0.0
 10
40.924426
 20
124.810270
 30
0.0
 10
40.777253
 20
125.008706
 30
0.0
 10
40.547948
 20
125.134936
 30
0.0
 10
40.248086
 20
125.180687
 30
0.0
 10
40.248086
 20
125.180687
 30
0.0
  0
LWPOLYLINE
  5
128
100
AcDbEntity
  8
Layer_1
 62
7
100
AcDbPolyline
 90
62
 70
0
 10
44.880499
 20
125.180687
 30
0.0
 10
44.580638
 20
125.136590
 30
0.0
 10
44.345270
 20
125.008706
 30
0.0
 10
44.192582
 20
124.806409
 30
0.0
 10
44.136908
 20
124.538521
 30
0.0
 10
44.160062
 20
124.358825
 30
0.0
 10
44.226757
 20
124.221572
 30
0.0
 10
44.330386
 20
124.117942
 30
0.0
 10
44.459923
 20
124.043529
 30
0.0
 10
44.670486
 20
123.972973
 30
0.0
 10
44.895934
 20
123.923364
 30
0.0
 10
45.117520
 20
123.875409
 30
0.0
 10
45.312652
 20
123.816427
 30
0.0
 10
45.482425
 20
123.695713
 30
0.0
 10
45.547469
 20
123.495069
 30
0.0
 10
45.514949
 20
123.340177
 30
0.0
 10
45.419589
 20
123.217809
 30
0.0
 10
45.260839
 20
123.139534
 30
0.0
 10
45.040903
 20
123.110872
 30
0.0
 10
44.618673
 20
123.229383
 30
0.0
 10
44.370075
 20
123.569483
 30
0.0
 10
44.259280
 20
123.649961
 30
0.0
 10
44.146831
 20
123.621299
 30
0.0
 10
44.115965
 20
123.525936
 30
0.0
 10
44.115965
 20
122.952122
 30
0.0
 10
44.146831
 20
122.856762
 30
0.0
 10
44.259280
 20
122.828099
 30
0.0
 10
44.370075
 20
122.856762
 30
0.0
 10
44.402595
 20
122.952122
 30
0.0
 10
44.402595
 20
123.101502
 30
0.0
 10
44.685368
 20
122.897001
 30
0.0
 10
45.040903
 20
122.828099
 30
0.0
 10
45.388719
 20
122.876055
 30
0.0
 10
45.641175
 20
123.013308
 30
0.0
 10
45.796067
 20
123.223871
 30
0.0
 10
45.849534
 20
123.495069
 30
0.0
 10
45.817014
 20
123.718863
 30
0.0
 10
45.731024
 20
123.886983
 30
0.0
 10
45.603143
 20
124.009355
 30
0.0
 10
45.442186
 20
124.093138
 30
0.0
 10
45.216741
 20
124.160386
 30
0.0
 10
44.987436
 20
124.207791
 30
0.0
 10
44.771358
 20
124.254092
 30
0.0
 10
44.593868
 20
124.315278
 30
0.0
 10
44.480869
 20
124.402922
 30
0.0
 10
44.438976
 20
124.538521
 30
0.0
 10
44.551975
 20
124.798693
 30
0.0
 10
44.880499
 20
124.897911
 30
0.0
 10
45.256981
 20
124.808063
 30
0.0
 10
45.517153
 20
124.542379
 30
0.0
 10
45.616371
 20
124.492770
 30
0.0
 10
45.727166
 20
124.521433
 30
0.0
 10
45.759686
 20
124.616793
 30
0.0
 10
45.759686
 20
125.056661
 30
0.0
 10
45.727166
 20
125.152022
 30
0.0
 10
45.616371
 20
125.180687
 30
0.0
 10
45.503372
 20
125.152022
 30
0.0
 10
45.473056
 20
125.056661
 30
0.0
 10
45.473056
 20
124.939805
 30
0.0
 10
45.209023
 20
125.113989
 30
0.0
 10
44.880499
 20
125.180687
 30
0.0
 10
44.880499
 20
125.180687
 30
0.0
  0
LWPOLYLINE
  5
129
100
AcDbEntity
  8
Layer_1
 62
7
100
AcDbPolyline
 90
40
 70
0
 10
51.729900
 20
125.180687
 30
0.0
 10
51.617451
 20
125.152022
 30
0.0
 10
51.586584
 20
125.056661
 30
0.0
 10
51.586584
 20
124.483398
 30
0.0
 10
51.199079
 20
124.483398
 30
0.0
 10
51.105373
 20
124.454735
 30
0.0
 10
51.078364
 20
124.353313
 30
0.0
 10
51.105373
 20
124.251888
 30
0.0
 10
51.199079
 20
124.223225
 30
0.0
 10
51.586584
 20
124.223225
 30
0.0
 10
51.586584
 20
123.502785
 30
0.0
 10
51.621312
 20
123.212297
 30
0.0
 10
51.732104
 20
123.000077
 30
0.0
 10
51.926685
 20
122.872197
 30
0.0
 10
52.211661
 20
122.828099
 30
0.0
 10
52.381988
 20
122.845188
 30
0.0
 10
52.559481
 20
122.889285
 30
0.0
 10
52.729805
 20
122.955980
 30
0.0
 10
52.886350
 20
123.041970
 30
0.0
 10
52.947536
 20
123.114730
 30
0.0
 10
52.924383
 20
123.227729
 30
0.0
 10
52.842253
 20
123.309861
 30
0.0
 10
52.754609
 20
123.296631
 30
0.0
 10
52.486718
 20
123.160481
 30
0.0
 10
52.211661
 20
123.107014
 30
0.0
 10
52.051258
 20
123.131818
 30
0.0
 10
51.945977
 20
123.210643
 30
0.0
 10
51.890854
 20
123.342382
 30
0.0
 10
51.873215
 20
123.527590
 30
0.0
 10
51.873215
 20
124.223225
 30
0.0
 10
52.658699
 20
124.223225
 30
0.0
 10
52.750751
 20
124.251888
 30
0.0
 10
52.779414
 20
124.353313
 30
0.0
 10
52.750751
 20
124.454735
 30
0.0
 10
52.658699
 20
124.483398
 30
0.0
 10
51.873215
 20
124.483398
 30
0.0
 10
51.873215
 20
125.056661
 30
0.0
 10
51.840694
 20
125.152022
 30
0.0
 10
51.729900
 20
125.180687
 30
0.0
 10
51.729900
 20
125.180687
 30
0.0
  0
LWPOLYLINE
  5
12a
100
AcDbEntity
  8
Layer_1
 62
7
100
AcDbPolyline
 90
42
 70
0
 10
70.738560
 20
125.180687
 30
0.0
 10
70.400113
 20
125.123359
 30
0.0
 10
70.101906
 20
124.966813
 30
0.0
 10
70.057809
 20
124.861533
 30
0.0
 10
70.057809
 20
124.580411
 30
0.0
 10
70.088675
 20
124.485051
 30
0.0
 10
70.201124
 20
124.456389
 30
0.0
 10
70.312469
 20
124.485051
 30
0.0
 10
70.344439
 20
124.580411
 30
0.0
 10
70.344439
 20
124.790977
 30
0.0
 10
70.524136
 20
124.867595
 30
0.0
 10
70.740214
 20
124.897911
 30
0.0
 10
71.065430
 20
124.792631
 30
0.0
 10
71.176224
 20
124.512063
 30
0.0
 10
71.156932
 20
124.375910
 30
0.0
 10
71.099604
 20
124.248030
 30
0.0
 10
71.000386
 20
124.112431
 30
0.0
 10
70.857070
 20
123.955885
 30
0.0
 10
70.015916
 20
123.103156
 30
0.0
 10
69.987253
 20
123.000077
 30
0.0
 10
70.014262
 20
122.898655
 30
0.0
 10
70.107968
 20
122.869992
 30
0.0
 10
71.434192
 20
122.869992
 30
0.0
 10
71.525694
 20
122.898655
 30
0.0
 10
71.554357
 20
123.000077
 30
0.0
 10
71.554357
 20
123.409079
 30
0.0
 10
71.521836
 20
123.504439
 30
0.0
 10
71.411042
 20
123.533105
 30
0.0
 10
71.298593
 20
123.504439
 30
0.0
 10
71.267726
 20
123.409079
 30
0.0
 10
71.267726
 20
123.130165
 30
0.0
 10
70.438145
 20
123.130165
 30
0.0
 10
71.080314
 20
123.781703
 30
0.0
 10
71.244576
 20
123.961397
 30
0.0
 10
71.370802
 20
124.135581
 30
0.0
 10
71.449077
 20
124.315278
 30
0.0
 10
71.477739
 20
124.512063
 30
0.0
 10
71.424269
 20
124.794835
 30
0.0
 10
71.275442
 20
125.004848
 30
0.0
 10
71.040625
 20
125.134936
 30
0.0
 10
70.738560
 20
125.180687
 30
0.0
 10
70.738560
 20
125.180687
 30
0.0
  0
LWPOLYLINE
  5
12b
100
AcDbEntity
  8
Layer_1
 62
7
100
AcDbPolyline
 90
18
 70
0
 10
73.150126
 20
125.180687
 30
0.0
 10
72.812230
 20
125.096901
 30
0.0
 10
72.555916
 20
124.857675
 30
0.0
 10
72.393308
 20
124.485051
 30
0.0
 10
72.335980
 20
124.003290
 30
0.0
 10
72.393308
 20
123.519874
 30
0.0
 10
72.555916
 20
123.149457
 30
0.0
 10
72.812230
 20
122.912436
 30
0.0
 10
73.150126
 20
122.828099
 30
0.0
 10
73.486368
 20
122.912436
 30
0.0
 10
73.742683
 20
123.149457
 30
0.0
 10
73.906944
 20
123.519874
 30
0.0
 10
73.964269
 20
124.003290
 30
0.0
 10
73.906944
 20
124.485051
 30
0.0
 10
73.742683
 20
124.857675
 30
0.0
 10
73.486368
 20
125.096901
 30
0.0
 10
73.150126
 20
125.180687
 30
0.0
 10
73.150126
 20
125.180687
 30
0.0
  0
LWPOLYLINE
  5
12c
100
AcDbEntity
  8
Layer_1
 62
7
100
AcDbPolyline
 90
33
 70
0
 10
78.423050
 20
125.180687
 30
0.0
 10
77.973812
 20
125.107924
 30
0.0
 10
77.622135
 20
124.951381
 30
0.0
 10
77.362513
 20
124.727588
 30
0.0
 10
77.186674
 20
124.456389
 30
0.0
 10
77.085252
 20
124.156528
 30
0.0
 10
77.054936
 20
123.848951
 30
0.0
 10
77.091314
 20
123.481842
 30
0.0
 10
77.202109
 20
123.200720
 30
0.0
 10
77.327785
 20
123.036458
 30
0.0
 10
77.486535
 20
122.920152
 30
0.0
 10
77.668436
 20
122.851250
 30
0.0
 10
77.866875
 20
122.828099
 30
0.0
 10
78.188233
 20
122.881566
 30
0.0
 10
78.434627
 20
123.030947
 30
0.0
 10
78.593377
 20
123.258048
 30
0.0
 10
78.650702
 20
123.544678
 30
0.0
 10
78.593377
 20
123.841232
 30
0.0
 10
78.438485
 20
124.068333
 30
0.0
 10
78.203117
 20
124.215507
 30
0.0
 10
77.908768
 20
124.267323
 30
0.0
 10
77.599534
 20
124.196767
 30
0.0
 10
77.354797
 20
123.996124
 30
0.0
 10
77.457873
 20
124.351106
 30
0.0
 10
77.672297
 20
124.628369
 30
0.0
 10
78.002474
 20
124.815782
 30
0.0
 10
78.463290
 20
124.899565
 30
0.0
 10
78.463290
 20
124.900118
 30
0.0
 10
78.520617
 20
124.934293
 30
0.0
 10
78.532191
 20
125.052803
 30
0.0
 10
78.493606
 20
125.155882
 30
0.0
 10
78.423050
 20
125.180687
 30
0.0
 10
78.423050
 20
125.180687
 30
0.0
  0
LWPOLYLINE
  5
12d
100
AcDbEntity
  8
Layer_1
 62
7
100
AcDbPolyline
 90
18
 70
0
 10
73.150126
 20
124.897911
 30
0.0
 10
73.356831
 20
124.838933
 30
0.0
 10
73.517235
 20
124.664748
 30
0.0
 10
73.624172
 20
124.383629
 30
0.0
 10
73.662204
 20
124.003290
 30
0.0
 10
73.624172
 20
123.622953
 30
0.0
 10
73.517235
 20
123.342382
 30
0.0
 10
73.356831
 20
123.170404
 30
0.0
 10
73.150126
 20
123.110872
 30
0.0
 10
72.943971
 20
123.170404
 30
0.0
 10
72.781363
 20
123.342382
 30
0.0
 10
72.676080
 20
123.622953
 30
0.0
 10
72.638048
 20
124.003290
 30
0.0
 10
72.676080
 20
124.383629
 30
0.0
 10
72.781363
 20
124.664748
 30
0.0
 10
72.943971
 20
124.838933
 30
0.0
 10
73.150126
 20
124.897911
 30
0.0
 10
73.150126
 20
124.897911
 30
0.0
  0
LWPOLYLINE
  5
12e
100
AcDbEntity
  8
Layer_1
 62
7
100
AcDbPolyline
 90
31
 70
0
 10
47.351597
 20
124.677978
 30
0.0
 10
46.982834
 20
124.611281
 30
0.0
 10
46.696201
 20
124.423868
 30
0.0
 10
46.507135
 20
124.131723
 30
0.0
 10
46.439887
 20
123.753037
 30
0.0
 10
46.497215
 20
123.364982
 30
0.0
 10
46.667539
 20
123.074493
 30
0.0
 10
46.940941
 20
122.890936
 30
0.0
 10
47.313562
 20
122.828099
 30
0.0
 10
47.532948
 20
122.841327
 30
0.0
 10
47.743511
 20
122.873850
 30
0.0
 10
47.936438
 20
122.927317
 30
0.0
 10
48.102904
 20
122.994565
 30
0.0
 10
48.181175
 20
123.074493
 30
0.0
 10
48.169601
 20
123.185285
 30
0.0
 10
48.102904
 20
123.275134
 30
0.0
 10
48.001479
 20
123.269622
 30
0.0
 10
47.687840
 20
123.149457
 30
0.0
 10
47.313562
 20
123.105360
 30
0.0
 10
47.076541
 20
123.141188
 30
0.0
 10
46.900702
 20
123.248675
 30
0.0
 10
46.789357
 20
123.429475
 30
0.0
 10
46.741952
 20
123.682482
 30
0.0
 10
48.125504
 20
123.682482
 30
0.0
 10
48.217557
 20
123.708940
 30
0.0
 10
48.246219
 20
123.800993
 30
0.0
 10
48.173459
 20
124.152670
 30
0.0
 10
47.999275
 20
124.429931
 30
0.0
 10
47.726425
 20
124.611281
 30
0.0
 10
47.351597
 20
124.677978
 30
0.0
 10
47.351597
 20
124.677978
 30
0.0
  0
LWPOLYLINE
  5
12f
100
AcDbEntity
  8
Layer_1
 62
7
100
AcDbPolyline
 90
36
 70
0
 10
49.786314
 20
124.677978
 30
0.0
 10
49.436844
 20
124.591988
 30
0.0
 10
49.161787
 20
124.353313
 30
0.0
 10
49.161787
 20
124.505998
 30
0.0
 10
49.133125
 20
124.607423
 30
0.0
 10
49.041073
 20
124.636085
 30
0.0
 10
48.737353
 20
124.636085
 30
0.0
 10
48.643647
 20
124.607423
 30
0.0
 10
48.616636
 20
124.505998
 30
0.0
 10
48.643647
 20
124.404576
 30
0.0
 10
48.737353
 20
124.375910
 30
0.0
 10
48.893897
 20
124.375910
 30
0.0
 10
48.893897
 20
122.378858
 30
0.0
 10
48.680026
 20
122.378858
 30
0.0
 10
48.586319
 20
122.350195
 30
0.0
 10
48.559311
 20
122.249324
 30
0.0
 10
48.586319
 20
122.147899
 30
0.0
 10
48.680026
 20
122.119236
 30
0.0
 10
49.604964
 20
122.119236
 30
0.0
 10
49.696466
 20
122.147899
 30
0.0
 10
49.725131
 20
122.249324
 30
0.0
 10
49.696466
 20
122.350195
 30
0.0
 10
49.604964
 20
122.378858
 30
0.0
 10
49.180530
 20
122.378858
 30
0.0
 10
49.180530
 20
123.221667
 30
0.0
 10
49.444563
 20
123.000077
 30
0.0
 10
49.786314
 20
122.923459
 30
0.0
 10
50.115391
 20
122.982991
 30
0.0
 10
50.375013
 20
123.156623
 30
0.0
 10
50.549198
 20
123.432230
 30
0.0
 10
50.612034
 20
123.800993
 30
0.0
 10
50.549198
 20
124.169758
 30
0.0
 10
50.375013
 20
124.444812
 30
0.0
 10
50.115391
 20
124.616793
 30
0.0
 10
49.786314
 20
124.677978
 30
0.0
 10
49.786314
 20
124.677978
 30
0.0
  0
LWPOLYLINE
  5
130
100
AcDbEntity
  8
Layer_1
 62
7
100
AcDbPolyline
 90
31
 70
0
 10
54.392271
 20
124.677978
 30
0.0
 10
54.023508
 20
124.611281
 30
0.0
 10
53.736875
 20
124.423868
 30
0.0
 10
53.547809
 20
124.131723
 30
0.0
 10
53.480561
 20
123.753037
 30
0.0
 10
53.537886
 20
123.364982
 30
0.0
 10
53.708213
 20
123.074493
 30
0.0
 10
53.981615
 20
122.891489
 30
0.0
 10
54.354236
 20
122.828099
 30
0.0
 10
54.573619
 20
122.841327
 30
0.0
 10
54.784185
 20
122.873850
 30
0.0
 10
54.977109
 20
122.927317
 30
0.0
 10
55.143575
 20
122.994565
 30
0.0
 10
55.221849
 20
123.074493
 30
0.0
 10
55.210273
 20
123.185285
 30
0.0
 10
55.143575
 20
123.275134
 30
0.0
 10
55.042153
 20
123.269622
 30
0.0
 10
54.728511
 20
123.149457
 30
0.0
 10
54.354236
 20
123.105360
 30
0.0
 10
54.117215
 20
123.141188
 30
0.0
 10
53.941376
 20
123.248675
 30
0.0
 10
53.830031
 20
123.429475
 30
0.0
 10
53.782626
 20
123.682482
 30
0.0
 10
55.166175
 20
123.682482
 30
0.0
 10
55.258231
 20
123.708940
 30
0.0
 10
55.286893
 20
123.800993
 30
0.0
 10
55.214131
 20
124.152670
 30
0.0
 10
55.039949
 20
124.429931
 30
0.0
 10
54.767096
 20
124.611281
 30
0.0
 10
54.392271
 20
124.677978
 30
0.0
 10
54.392271
 20
124.677978
 30
0.0
  0
LWPOLYLINE
  5
131
100
AcDbEntity
  8
Layer_1
 62
7
100
AcDbPolyline
 90
68
 70
0
 10
56.511692
 20
124.677978
 30
0.0
 10
56.265298
 20
124.590334
 30
0.0
 10
56.066312
 20
124.316932
 30
0.0
 10
56.066312
 20
124.505998
 30
0.0
 10
56.037647
 20
124.607423
 30
0.0
 10
55.946147
 20
124.636085
 30
0.0
 10
55.661168
 20
124.636085
 30
0.0
 10
55.567461
 20
124.607423
 30
0.0
 10
55.541003
 20
124.505998
 30
0.0
 10
55.567461
 20
124.404576
 30
0.0
 10
55.661168
 20
124.375910
 30
0.0
 10
55.818264
 20
124.375910
 30
0.0
 10
55.818264
 20
123.130165
 30
0.0
 10
55.661168
 20
123.130165
 30
0.0
 10
55.567461
 20
123.101502
 30
0.0
 10
55.541003
 20
123.000077
 30
0.0
 10
55.567461
 20
122.898655
 30
0.0
 10
55.661168
 20
122.869992
 30
0.0
 10
56.204115
 20
122.869992
 30
0.0
 10
56.295617
 20
122.898655
 30
0.0
 10
56.324280
 20
123.000077
 30
0.0
 10
56.295617
 20
123.101502
 30
0.0
 10
56.204115
 20
123.130165
 30
0.0
 10
56.104897
 20
123.130165
 30
0.0
 10
56.104897
 20
123.743668
 30
0.0
 10
56.131353
 20
124.007148
 30
0.0
 10
56.202461
 20
124.213853
 30
0.0
 10
56.307191
 20
124.347248
 30
0.0
 10
56.437279
 20
124.395203
 30
0.0
 10
56.576736
 20
124.326301
 30
0.0
 10
56.618629
 20
124.131723
 30
0.0
 10
56.618629
 20
123.000077
 30
0.0
 10
56.645638
 20
122.898655
 30
0.0
 10
56.739344
 20
122.869992
 30
0.0
 10
57.014401
 20
122.869992
 30
0.0
 10
57.105903
 20
122.898655
 30
0.0
 10
57.135118
 20
123.000077
 30
0.0
 10
57.105903
 20
123.101502
 30
0.0
 10
57.014401
 20
123.130165
 30
0.0
 10
56.905260
 20
123.130165
 30
0.0
 10
56.905260
 20
123.743668
 30
0.0
 10
56.932271
 20
124.007148
 30
0.0
 10
57.002827
 20
124.213853
 30
0.0
 10
57.108107
 20
124.347248
 30
0.0
 10
57.238194
 20
124.395203
 30
0.0
 10
57.377652
 20
124.326301
 30
0.0
 10
57.419545
 20
124.131723
 30
0.0
 10
57.419545
 20
123.000077
 30
0.0
 10
57.446553
 20
122.898655
 30
0.0
 10
57.540260
 20
122.869992
 30
0.0
 10
57.824686
 20
122.869992
 30
0.0
 10
57.916741
 20
122.898655
 30
0.0
 10
57.945404
 20
123.000077
 30
0.0
 10
57.916741
 20
123.101502
 30
0.0
 10
57.824686
 20
123.130165
 30
0.0
 10
57.706175
 20
123.130165
 30
0.0
 10
57.706175
 20
124.165898
 30
0.0
 10
57.673655
 20
124.393549
 30
0.0
 10
57.589869
 20
124.553953
 30
0.0
 10
57.463642
 20
124.647659
 30
0.0
 10
57.310404
 20
124.677978
 30
0.0
 10
57.067868
 20
124.591988
 30
0.0
 10
56.871085
 20
124.332366
 30
0.0
 10
56.817618
 20
124.485051
 30
0.0
 10
56.735486
 20
124.591988
 30
0.0
 10
56.630203
 20
124.657032
 30
0.0
 10
56.511692
 20
124.677978
 30
0.0
 10
56.511692
 20
124.677978
 30
0.0
  0
LWPOLYLINE
  5
132
100
AcDbEntity
  8
Layer_1
 62
7
100
AcDbPolyline
 90
40
 70
0
 10
62.000694
 20
124.677978
 30
0.0
 10
61.780759
 20
124.637739
 30
0.0
 10
61.566888
 20
124.526944
 30
0.0
 10
61.371757
 20
124.351106
 30
0.0
 10
61.211353
 20
124.120147
 30
0.0
 10
61.211353
 20
124.505998
 30
0.0
 10
61.182690
 20
124.607423
 30
0.0
 10
61.091188
 20
124.636085
 30
0.0
 10
60.700928
 20
124.636085
 30
0.0
 10
60.607222
 20
124.607423
 30
0.0
 10
60.580764
 20
124.505998
 30
0.0
 10
60.607222
 20
124.404576
 30
0.0
 10
60.700928
 20
124.375910
 30
0.0
 10
60.944015
 20
124.375910
 30
0.0
 10
60.944015
 20
123.130165
 30
0.0
 10
60.643603
 20
123.130165
 30
0.0
 10
60.549897
 20
123.101502
 30
0.0
 10
60.523436
 20
123.000077
 30
0.0
 10
60.549897
 20
122.898655
 30
0.0
 10
60.643603
 20
122.869992
 30
0.0
 10
61.874465
 20
122.869992
 30
0.0
 10
61.965967
 20
122.898655
 30
0.0
 10
61.994632
 20
123.000077
 30
0.0
 10
61.965967
 20
123.101502
 30
0.0
 10
61.874465
 20
123.130165
 30
0.0
 10
61.230645
 20
123.130165
 30
0.0
 10
61.230645
 20
123.501132
 30
0.0
 10
61.260965
 20
123.726579
 30
0.0
 10
61.345298
 20
123.931080
 30
0.0
 10
61.470977
 20
124.104715
 30
0.0
 10
61.625869
 20
124.240314
 30
0.0
 10
61.797847
 20
124.328508
 30
0.0
 10
61.973686
 20
124.361029
 30
0.0
 10
62.174326
 20
124.309216
 30
0.0
 10
62.270239
 20
124.305355
 30
0.0
 10
62.339141
 20
124.402922
 30
0.0
 10
62.350165
 20
124.521433
 30
0.0
 10
62.279609
 20
124.601908
 30
0.0
 10
62.000694
 20
124.677978
 30
0.0
 10
62.000694
 20
124.677978
 30
0.0
  0
LWPOLYLINE
  5
133
100
AcDbEntity
  8
Layer_1
 62
7
100
AcDbPolyline
 90
31
 70
0
 10
66.126541
 20
124.677978
 30
0.0
 10
65.757778
 20
124.611281
 30
0.0
 10
65.471147
 20
124.423868
 30
0.0
 10
65.282078
 20
124.131723
 30
0.0
 10
65.215381
 20
123.753037
 30
0.0
 10
65.272708
 20
123.364982
 30
0.0
 10
65.442482
 20
123.074493
 30
0.0
 10
65.715885
 20
122.891489
 30
0.0
 10
66.088508
 20
122.828099
 30
0.0
 10
66.308441
 20
122.841327
 30
0.0
 10
66.518454
 20
122.873850
 30
0.0
 10
66.711381
 20
122.927317
 30
0.0
 10
66.877847
 20
122.994565
 30
0.0
 10
66.956119
 20
123.074493
 30
0.0
 10
66.944545
 20
123.185285
 30
0.0
 10
66.877847
 20
123.275134
 30
0.0
 10
66.776425
 20
123.269622
 30
0.0
 10
66.463333
 20
123.149457
 30
0.0
 10
66.088508
 20
123.105360
 30
0.0
 10
65.851484
 20
123.141188
 30
0.0
 10
65.675645
 20
123.248675
 30
0.0
 10
65.564300
 20
123.429475
 30
0.0
 10
65.516895
 20
123.682482
 30
0.0
 10
66.900998
 20
123.682482
 30
0.0
 10
66.992500
 20
123.708940
 30
0.0
 10
67.021162
 20
123.800993
 30
0.0
 10
66.948403
 20
124.152670
 30
0.0
 10
66.774771
 20
124.429931
 30
0.0
 10
66.501368
 20
124.611281
 30
0.0
 10
66.126541
 20
124.677978
 30
0.0
 10
66.126541
 20
124.677978
 30
0.0
  0
LWPOLYLINE
  5
134
100
AcDbEntity
  8
Layer_1
 62
7
100
AcDbPolyline
 90
23
 70
0
 10
63.181950
 20
124.636085
 30
0.0
 10
63.088243
 20
124.607423
 30
0.0
 10
63.061232
 20
124.505998
 30
0.0
 10
63.088243
 20
124.404576
 30
0.0
 10
63.181950
 20
124.375910
 30
0.0
 10
63.665365
 20
124.375910
 30
0.0
 10
63.665365
 20
123.130165
 30
0.0
 10
63.067297
 20
123.130165
 30
0.0
 10
62.973591
 20
123.101502
 30
0.0
 10
62.946579
 20
123.000077
 30
0.0
 10
62.973591
 20
122.898655
 30
0.0
 10
63.067297
 20
122.869992
 30
0.0
 10
64.565499
 20
122.869992
 30
0.0
 10
64.657001
 20
122.898655
 30
0.0
 10
64.685664
 20
123.000077
 30
0.0
 10
64.657001
 20
123.101502
 30
0.0
 10
64.565499
 20
123.130165
 30
0.0
 10
63.951996
 20
123.130165
 30
0.0
 10
63.951996
 20
124.505998
 30
0.0
 10
63.923333
 20
124.607423
 30
0.0
 10
63.831281
 20
124.636085
 30
0.0
 10
63.181950
 20
124.636085
 30
0.0
 10
63.181950
 20
124.636085
 30
0.0
  0
LWPOLYLINE
  5
135
100
AcDbEntity
  8
Layer_1
 62
7
100
AcDbPolyline
 90
7
 70
0
 10
47.351597
 20
124.401268
 30
0.0
 10
47.747369
 20
124.282757
 30
0.0
 10
47.928719
 20
123.949823
 30
0.0
 10
46.761245
 20
123.949823
 30
0.0
 10
46.959684
 20
124.280550
 30
0.0
 10
47.351597
 20
124.401268
 30
0.0
 10
47.351597
 20
124.401268
 30
0.0
  0
LWPOLYLINE
  5
136
100
AcDbEntity
  8
Layer_1
 62
7
100
AcDbPolyline
 90
7
 70
0
 10
54.392271
 20
124.401268
 30
0.0
 10
54.788043
 20
124.282757
 30
0.0
 10
54.969393
 20
123.949823
 30
0.0
 10
53.801919
 20
123.949823
 30
0.0
 10
54.000355
 20
124.280550
 30
0.0
 10
54.392271
 20
124.401268
 30
0.0
 10
54.392271
 20
124.401268
 30
0.0
  0
LWPOLYLINE
  5
137
100
AcDbEntity
  8
Layer_1
 62
7
100
AcDbPolyline
 90
7
 70
0
 10
66.126541
 20
124.401268
 30
0.0
 10
66.522312
 20
124.282757
 30
0.0
 10
66.704216
 20
123.949823
 30
0.0
 10
65.536188
 20
123.949823
 30
0.0
 10
65.735177
 20
124.280550
 30
0.0
 10
66.126541
 20
124.401268
 30
0.0
 10
66.126541
 20
124.401268
 30
0.0
  0
LWPOLYLINE
  5
138
100
AcDbEntity
  8
Layer_1
 62
7
100
AcDbPolyline
 90
18
 70
0
 10
49.767575
 20
124.395203
 30
0.0
 10
49.998534
 20
124.351106
 30
0.0
 10
50.168858
 20
124.227083
 30
0.0
 10
50.273591
 20
124.039671
 30
0.0
 10
50.309969
 20
123.800993
 30
0.0
 10
50.273591
 20
123.561767
 30
0.0
 10
50.168858
 20
123.372701
 30
0.0
 10
49.998534
 20
123.250329
 30
0.0
 10
49.767575
 20
123.206785
 30
0.0
 10
49.532204
 20
123.246471
 30
0.0
 10
49.346996
 20
123.361124
 30
0.0
 10
49.224627
 20
123.548536
 30
0.0
 10
49.180530
 20
123.800993
 30
0.0
 10
49.224627
 20
124.053452
 30
0.0
 10
49.346996
 20
124.238660
 30
0.0
 10
49.532204
 20
124.354964
 30
0.0
 10
49.767575
 20
124.395203
 30
0.0
 10
49.767575
 20
124.395203
 30
0.0
  0
LWPOLYLINE
  5
139
100
AcDbEntity
  8
Layer_1
 62
7
100
AcDbPolyline
 90
18
 70
0
 10
59.154771
 20
124.395203
 30
0.0
 10
59.386281
 20
124.347248
 30
0.0
 10
59.556055
 20
124.213853
 30
0.0
 10
59.661338
 20
124.011008
 30
0.0
 10
59.697716
 20
123.753037
 30
0.0
 10
59.661338
 20
123.493416
 30
0.0
 10
59.556055
 20
123.290568
 30
0.0
 10
59.386281
 20
123.158827
 30
0.0
 10
59.154771
 20
123.110872
 30
0.0
 10
58.919951
 20
123.153315
 30
0.0
 10
58.734743
 20
123.278992
 30
0.0
 10
58.612374
 20
123.481842
 30
0.0
 10
58.568277
 20
123.753037
 30
0.0
 10
58.612374
 20
124.022582
 30
0.0
 10
58.734743
 20
124.225430
 30
0.0
 10
58.919951
 20
124.351106
 30
0.0
 10
59.154771
 20
124.395203
 30
0.0
 10
59.154771
 20
124.395203
 30
0.0
  0
LWPOLYLINE
  5
13a
100
AcDbEntity
  8
Layer_1
 62
7
100
AcDbPolyline
 90
18
 70
0
 10
77.866875
 20
123.984547
 30
0.0
 10
78.067518
 20
123.952027
 30
0.0
 10
78.218549
 20
123.863832
 30
0.0
 10
78.314463
 20
123.724375
 30
0.0
 10
78.348637
 20
123.544678
 30
0.0
 10
78.314463
 20
123.367186
 30
0.0
 10
78.216895
 20
123.229383
 30
0.0
 10
78.063660
 20
123.141741
 30
0.0
 10
77.866875
 20
123.110872
 30
0.0
 10
77.666232
 20
123.145599
 30
0.0
 10
77.513547
 20
123.240959
 30
0.0
 10
77.415980
 20
123.386479
 30
0.0
 10
77.381806
 20
123.573341
 30
0.0
 10
77.417634
 20
123.739810
 30
0.0
 10
77.517405
 20
123.869897
 30
0.0
 10
77.670090
 20
123.953681
 30
0.0
 10
77.866875
 20
123.984547
 30
0.0
 10
77.866875
 20
123.984547
 30
0.0
  0
LWPOLYLINE
  5
13b
100
AcDbEntity
  8
Layer_1
 62
7
100
AcDbPolyline
 90
27
 70
0
 10
60.877317
 20
119.264493
 30
0.0
 10
60.877317
 20
118.334041
 30
0.0
 10
60.509105
 20
118.334041
 30
0.0
 10
60.509105
 20
117.875980
 30
0.0
 10
60.877317
 20
117.875980
 30
0.0
 10
60.877317
 20
116.153434
 30
0.0
 10
60.941811
 20
115.645214
 30
0.0
 10
61.135285
 20
115.297948
 30
0.0
 10
61.452785
 20
115.097855
 30
0.0
 10
61.889349
 20
115.031160
 30
0.0
 10
62.211258
 20
115.057065
 30
0.0
 10
62.547500
 20
115.123763
 30
0.0
 10
62.547500
 20
115.613794
 30
0.0
 10
62.518838
 20
115.613794
 30
0.0
 10
62.309925
 20
115.547096
 30
0.0
 10
62.031564
 20
115.509614
 30
0.0
 10
61.689257
 20
115.561981
 30
0.0
 10
61.515625
 20
115.732855
 30
0.0
 10
61.434046
 20
115.999645
 30
0.0
 10
61.422469
 20
116.399825
 30
0.0
 10
61.422469
 20
117.875980
 30
0.0
 10
62.547500
 20
117.875980
 30
0.0
 10
62.547500
 20
118.334041
 30
0.0
 10
61.422469
 20
118.334041
 30
0.0
 10
61.422469
 20
119.264493
 30
0.0
 10
60.877317
 20
119.264493
 30
0.0
 10
60.877317
 20
119.264493
 30
0.0
  0
LWPOLYLINE
  5
13c
100
AcDbEntity
  8
Layer_1
 62
7
100
AcDbPolyline
 90
12
 70
0
 10
71.586327
 20
119.047312
 30
0.0
 10
71.365841
 20
119.003768
 30
0.0
 10
71.310720
 20
118.858799
 30
0.0
 10
71.310720
 20
118.481767
 30
0.0
 10
71.365841
 20
118.336798
 30
0.0
 10
71.586327
 20
118.293251
 30
0.0
 10
71.806813
 20
118.336798
 30
0.0
 10
71.861384
 20
118.481767
 30
0.0
 10
71.861384
 20
118.858799
 30
0.0
 10
71.806813
 20
119.003768
 30
0.0
 10
71.586327
 20
119.047312
 30
0.0
 10
71.586327
 20
119.047312
 30
0.0
  0
LWPOLYLINE
  5
13d
100
AcDbEntity
  8
Layer_1
 62
7
100
AcDbPolyline
 90
26
 70
0
 10
43.420882
 20
119.032981
 30
0.0
 10
43.342608
 20
119.018099
 30
0.0
 10
43.273156
 20
118.983372
 30
0.0
 10
43.226855
 20
118.928251
 30
0.0
 10
43.220790
 20
118.858799
 30
0.0
 10
43.345365
 20
118.585947
 30
0.0
 10
43.577425
 20
118.377588
 30
0.0
 10
43.902644
 20
118.246950
 30
0.0
 10
44.314401
 20
118.200645
 30
0.0
 10
44.726160
 20
118.246950
 30
0.0
 10
45.050826
 20
118.377588
 30
0.0
 10
45.279578
 20
118.585947
 30
0.0
 10
45.407461
 20
118.858799
 30
0.0
 10
45.398642
 20
118.928251
 30
0.0
 10
45.352341
 20
118.983372
 30
0.0
 10
45.282886
 20
119.018099
 30
0.0
 10
45.207369
 20
119.032981
 30
0.0
 10
45.137917
 20
119.018099
 30
0.0
 10
45.094370
 20
118.974552
 30
0.0
 10
44.801124
 20
118.696188
 30
0.0
 10
44.314401
 20
118.617917
 30
0.0
 10
43.823819
 20
118.696188
 30
0.0
 10
43.533881
 20
118.974552
 30
0.0
 10
43.487577
 20
119.018099
 30
0.0
 10
43.420882
 20
119.032981
 30
0.0
 10
43.420882
 20
119.032981
 30
0.0
  0
LWPOLYLINE
  5
13e
100
AcDbEntity
  8
Layer_1
 62
7
100
AcDbPolyline
 90
23
 70
0
 10
57.580499
 20
118.899589
 30
0.0
 10
57.438284
 20
118.856042
 30
0.0
 10
57.397495
 20
118.702253
 30
0.0
 10
57.438284
 20
118.548465
 30
0.0
 10
57.580499
 20
118.504918
 30
0.0
 10
58.372045
 20
118.504918
 30
0.0
 10
58.372045
 20
115.489218
 30
0.0
 10
57.464192
 20
115.489218
 30
0.0
 10
57.322531
 20
115.445674
 30
0.0
 10
57.281741
 20
115.291883
 30
0.0
 10
57.322531
 20
115.138647
 30
0.0
 10
57.464192
 20
115.095100
 30
0.0
 10
59.737955
 20
115.095100
 30
0.0
 10
59.876862
 20
115.138647
 30
0.0
 10
59.920409
 20
115.291883
 30
0.0
 10
59.876862
 20
115.445674
 30
0.0
 10
59.737955
 20
115.489218
 30
0.0
 10
58.806952
 20
115.489218
 30
0.0
 10
58.806952
 20
118.702253
 30
0.0
 10
58.763408
 20
118.856042
 30
0.0
 10
58.624501
 20
118.899589
 30
0.0
 10
57.580499
 20
118.899589
 30
0.0
 10
57.580499
 20
118.899589
 30
0.0
  0
LWPOLYLINE
  5
13f
100
AcDbEntity
  8
Layer_1
 62
7
100
AcDbPolyline
 90
13
 70
0
 10
78.507937
 20
118.600828
 30
0.0
 10
78.413130
 20
118.564450
 30
0.0
 10
78.388876
 20
118.455859
 30
0.0
 10
78.528333
 20
116.579522
 30
0.0
 10
78.577392
 20
116.475342
 30
0.0
 10
78.696453
 20
116.440617
 30
0.0
 10
78.816067
 20
116.475342
 30
0.0
 10
78.861818
 20
116.579522
 30
0.0
 10
79.003480
 20
118.455859
 30
0.0
 10
78.979779
 20
118.564450
 30
0.0
 10
78.884969
 20
118.600828
 30
0.0
 10
78.507937
 20
118.600828
 30
0.0
 10
78.507937
 20
118.600828
 30
0.0
  0
LWPOLYLINE
  5
140
100
AcDbEntity
  8
Layer_1
 62
7
100
AcDbPolyline
 90
32
 70
0
 10
39.175972
 20
118.536888
 30
0.0
 10
39.033758
 20
118.493341
 30
0.0
 10
38.992968
 20
118.339552
 30
0.0
 10
39.033758
 20
118.185764
 30
0.0
 10
39.175972
 20
118.142770
 30
0.0
 10
39.396458
 20
118.142770
 30
0.0
 10
40.428333
 20
115.219673
 30
0.0
 10
40.535820
 20
115.074704
 30
0.0
 10
40.735910
 20
115.031160
 30
0.0
 10
40.936003
 20
115.074704
 30
0.0
 10
41.049002
 20
115.219673
 30
0.0
 10
42.090247
 20
118.142770
 30
0.0
 10
42.313490
 20
118.142770
 30
0.0
 10
42.452397
 20
118.185764
 30
0.0
 10
42.495941
 20
118.339552
 30
0.0
 10
42.452397
 20
118.493341
 30
0.0
 10
42.313490
 20
118.536888
 30
0.0
 10
41.345005
 20
118.536888
 30
0.0
 10
41.202791
 20
118.493341
 30
0.0
 10
41.162001
 20
118.339552
 30
0.0
 10
41.202791
 20
118.185764
 30
0.0
 10
41.345005
 20
118.142770
 30
0.0
 10
41.634943
 20
118.142770
 30
0.0
 10
40.738668
 20
115.579066
 30
0.0
 10
39.851211
 20
118.142770
 30
0.0
 10
40.260214
 20
118.142770
 30
0.0
 10
40.399671
 20
118.185764
 30
0.0
 10
40.443215
 20
118.339552
 30
0.0
 10
40.399671
 20
118.493341
 30
0.0
 10
40.260214
 20
118.536888
 30
0.0
 10
39.175972
 20
118.536888
 30
0.0
 10
39.175972
 20
118.536888
 30
0.0
  0
LWPOLYLINE
  5
141
100
AcDbEntity
  8
Layer_1
 62
7
100
AcDbPolyline
 90
50
 70
0
 10
50.003493
 20
118.536888
 30
0.0
 10
49.861281
 20
118.493341
 30
0.0
 10
49.820491
 20
118.339552
 30
0.0
 10
49.861281
 20
118.185764
 30
0.0
 10
50.003493
 20
118.142770
 30
0.0
 10
50.145707
 20
118.142770
 30
0.0
 10
50.072948
 20
115.489218
 30
0.0
 10
49.916402
 20
115.489218
 30
0.0
 10
49.774187
 20
115.445674
 30
0.0
 10
49.733951
 20
115.291883
 30
0.0
 10
49.774187
 20
115.138647
 30
0.0
 10
49.916402
 20
115.095100
 30
0.0
 10
50.827009
 20
115.095100
 30
0.0
 10
50.965916
 20
115.138647
 30
0.0
 10
51.009463
 20
115.291883
 30
0.0
 10
50.965916
 20
115.445674
 30
0.0
 10
50.827009
 20
115.489218
 30
0.0
 10
50.505100
 20
115.489218
 30
0.0
 10
50.565733
 20
117.864406
 30
0.0
 10
51.160494
 20
116.211312
 30
0.0
 10
51.261919
 20
116.066340
 30
0.0
 10
51.427284
 20
116.022796
 30
0.0
 10
51.592647
 20
116.066340
 30
0.0
 10
51.694072
 20
116.211312
 30
0.0
 10
52.285525
 20
117.864406
 30
0.0
 10
52.349465
 20
115.489218
 30
0.0
 10
52.027557
 20
115.489218
 30
0.0
 10
51.885342
 20
115.445674
 30
0.0
 10
51.844552
 20
115.291883
 30
0.0
 10
51.885342
 20
115.138647
 30
0.0
 10
52.027557
 20
115.095100
 30
0.0
 10
52.938164
 20
115.095100
 30
0.0
 10
53.077070
 20
115.138647
 30
0.0
 10
53.120617
 20
115.291883
 30
0.0
 10
53.077070
 20
115.445674
 30
0.0
 10
52.938164
 20
115.489218
 30
0.0
 10
52.781618
 20
115.489218
 30
0.0
 10
52.706103
 20
118.142770
 30
0.0
 10
52.851073
 20
118.142770
 30
0.0
 10
52.989980
 20
118.185764
 30
0.0
 10
53.033524
 20
118.339552
 30
0.0
 10
52.989980
 20
118.493341
 30
0.0
 10
52.851073
 20
118.536888
 30
0.0
 10
52.239223
 20
118.536888
 30
0.0
 10
52.067796
 20
118.440977
 30
0.0
 10
51.427284
 20
116.675435
 30
0.0
 10
50.783465
 20
118.440977
 30
0.0
 10
50.615342
 20
118.536888
 30
0.0
 10
50.003493
 20
118.536888
 30
0.0
 10
50.003493
 20
118.536888
 30
0.0
  0
LWPOLYLINE
  5
142
100
AcDbEntity
  8
Layer_1
 62
7
100
AcDbPolyline
 90
46
 70
0
 10
44.375036
 20
117.837948
 30
0.0
 10
44.073521
 20
117.817551
 30
0.0
 10
43.774761
 20
117.759673
 30
0.0
 10
43.493642
 20
117.658251
 30
0.0
 10
43.243940
 20
117.513282
 30
0.0
 10
43.162911
 20
117.391464
 30
0.0
 10
43.215278
 20
117.232160
 30
0.0
 10
43.348673
 20
117.127431
 30
0.0
 10
43.484823
 20
117.162158
 30
0.0
 10
43.902644
 20
117.353979
 30
0.0
 10
44.375036
 20
117.417369
 30
0.0
 10
44.653951
 20
117.383745
 30
0.0
 10
44.835851
 20
117.283976
 30
0.0
 10
44.938377
 20
117.115854
 30
0.0
 10
44.972551
 20
116.872217
 30
0.0
 10
44.972551
 20
116.625826
 30
0.0
 10
44.545910
 20
116.736067
 30
0.0
 10
44.090607
 20
116.774102
 30
0.0
 10
43.638611
 20
116.724493
 30
0.0
 10
43.264336
 20
116.567948
 30
0.0
 10
43.009123
 20
116.292341
 30
0.0
 10
42.916520
 20
115.877827
 30
0.0
 10
42.988730
 20
115.518434
 30
0.0
 10
43.197639
 20
115.251646
 30
0.0
 10
43.514035
 20
115.089035
 30
0.0
 10
43.914218
 20
115.031160
 30
0.0
 10
44.511186
 20
115.146914
 30
0.0
 10
45.016098
 20
115.466067
 30
0.0
 10
45.082796
 20
115.300702
 30
0.0
 10
45.195795
 20
115.184949
 30
0.0
 10
45.343521
 20
115.114943
 30
0.0
 10
45.514395
 20
115.095100
 30
0.0
 10
45.700157
 20
115.095100
 30
0.0
 10
45.839614
 20
115.138647
 30
0.0
 10
45.883158
 20
115.291883
 30
0.0
 10
45.839614
 20
115.445674
 30
0.0
 10
45.700157
 20
115.489218
 30
0.0
 10
45.598732
 20
115.489218
 30
0.0
 10
45.455417
 20
115.546546
 30
0.0
 10
45.407461
 20
115.718524
 30
0.0
 10
45.407461
 20
116.872217
 30
0.0
 10
45.342968
 20
117.292243
 30
0.0
 10
45.149493
 20
117.594311
 30
0.0
 10
44.828133
 20
117.776762
 30
0.0
 10
44.375036
 20
117.837948
 30
0.0
 10
44.375036
 20
117.837948
 30
0.0
  0
LWPOLYLINE
  5
143
100
AcDbEntity
  8
Layer_1
 62
7
100
AcDbPolyline
 90
68
 70
0
 10
67.694748
 20
117.837948
 30
0.0
 10
67.320473
 20
117.704552
 30
0.0
 10
67.018958
 20
117.290039
 30
0.0
 10
67.018958
 20
117.577222
 30
0.0
 10
66.975411
 20
117.731011
 30
0.0
 10
66.836507
 20
117.774007
 30
0.0
 10
66.404355
 20
117.774007
 30
0.0
 10
66.262140
 20
117.731011
 30
0.0
 10
66.221901
 20
117.577222
 30
0.0
 10
66.262140
 20
117.423434
 30
0.0
 10
66.404355
 20
117.379887
 30
0.0
 10
66.641926
 20
117.379887
 30
0.0
 10
66.641926
 20
115.489218
 30
0.0
 10
66.404355
 20
115.489218
 30
0.0
 10
66.262140
 20
115.445674
 30
0.0
 10
66.221901
 20
115.291883
 30
0.0
 10
66.262140
 20
115.138647
 30
0.0
 10
66.404355
 20
115.095100
 30
0.0
 10
67.227868
 20
115.095100
 30
0.0
 10
67.366775
 20
115.138647
 30
0.0
 10
67.410322
 20
115.291883
 30
0.0
 10
67.366775
 20
115.445674
 30
0.0
 10
67.227868
 20
115.489218
 30
0.0
 10
67.076836
 20
115.489218
 30
0.0
 10
67.076836
 20
116.420221
 30
0.0
 10
67.117626
 20
116.820404
 30
0.0
 10
67.225113
 20
117.133493
 30
0.0
 10
67.384414
 20
117.336340
 30
0.0
 10
67.581749
 20
117.409102
 30
0.0
 10
67.793416
 20
117.304370
 30
0.0
 10
67.857356
 20
117.008920
 30
0.0
 10
67.857356
 20
115.291883
 30
0.0
 10
67.897595
 20
115.138647
 30
0.0
 10
68.039810
 20
115.095100
 30
0.0
 10
68.457078
 20
115.095100
 30
0.0
 10
68.596535
 20
115.138647
 30
0.0
 10
68.640082
 20
115.291883
 30
0.0
 10
68.596535
 20
115.445674
 30
0.0
 10
68.457078
 20
115.489218
 30
0.0
 10
68.292266
 20
115.489218
 30
0.0
 10
68.292266
 20
116.420221
 30
0.0
 10
68.332505
 20
116.820404
 30
0.0
 10
68.439992
 20
117.133493
 30
0.0
 10
68.599293
 20
117.336340
 30
0.0
 10
68.796628
 20
117.409102
 30
0.0
 10
69.008295
 20
117.304370
 30
0.0
 10
69.072235
 20
117.008920
 30
0.0
 10
69.072235
 20
115.291883
 30
0.0
 10
69.112474
 20
115.138647
 30
0.0
 10
69.254686
 20
115.095100
 30
0.0
 10
69.686842
 20
115.095100
 30
0.0
 10
69.825746
 20
115.138647
 30
0.0
 10
69.869293
 20
115.291883
 30
0.0
 10
69.825746
 20
115.445674
 30
0.0
 10
69.686842
 20
115.489218
 30
0.0
 10
69.507145
 20
115.489218
 30
0.0
 10
69.507145
 20
117.060733
 30
0.0
 10
69.457536
 20
117.405795
 30
0.0
 10
69.330203
 20
117.649432
 30
0.0
 10
69.138933
 20
117.791646
 30
0.0
 10
68.906870
 20
117.837948
 30
0.0
 10
68.538660
 20
117.707310
 30
0.0
 10
68.239900
 20
117.313189
 30
0.0
 10
68.158871
 20
117.545252
 30
0.0
 10
68.033745
 20
117.707310
 30
0.0
 10
67.874444
 20
117.805977
 30
0.0
 10
67.694748
 20
117.837948
 30
0.0
 10
67.694748
 20
117.837948
 30
0.0
  0
LWPOLYLINE
  5
144
100
AcDbEntity
  8
Layer_1
 62
7
100
AcDbPolyline
 90
68
 70
0
 10
74.816451
 20
117.837948
 30
0.0
 10
74.442173
 20
117.704552
 30
0.0
 10
74.140658
 20
117.290039
 30
0.0
 10
74.140658
 20
117.577222
 30
0.0
 10
74.097114
 20
117.731011
 30
0.0
 10
73.958207
 20
117.774007
 30
0.0
 10
73.526055
 20
117.774007
 30
0.0
 10
73.383840
 20
117.731011
 30
0.0
 10
73.343603
 20
117.577222
 30
0.0
 10
73.383840
 20
117.423434
 30
0.0
 10
73.526055
 20
117.379887
 30
0.0
 10
73.763629
 20
117.379887
 30
0.0
 10
73.763629
 20
115.489218
 30
0.0
 10
73.526055
 20
115.489218
 30
0.0
 10
73.383840
 20
115.445674
 30
0.0
 10
73.343603
 20
115.291883
 30
0.0
 10
73.383840
 20
115.138647
 30
0.0
 10
73.526055
 20
115.095100
 30
0.0
 10
74.349570
 20
115.095100
 30
0.0
 10
74.489028
 20
115.138647
 30
0.0
 10
74.532022
 20
115.291883
 30
0.0
 10
74.489028
 20
115.445674
 30
0.0
 10
74.349570
 20
115.489218
 30
0.0
 10
74.199090
 20
115.489218
 30
0.0
 10
74.199090
 20
116.420221
 30
0.0
 10
74.239326
 20
116.820404
 30
0.0
 10
74.346813
 20
117.133493
 30
0.0
 10
74.506116
 20
117.336340
 30
0.0
 10
74.703452
 20
117.409102
 30
0.0
 10
74.915118
 20
117.304370
 30
0.0
 10
74.979059
 20
117.008920
 30
0.0
 10
74.979059
 20
115.291883
 30
0.0
 10
75.019298
 20
115.138647
 30
0.0
 10
75.161510
 20
115.095100
 30
0.0
 10
75.579331
 20
115.095100
 30
0.0
 10
75.718238
 20
115.138647
 30
0.0
 10
75.761785
 20
115.291883
 30
0.0
 10
75.718238
 20
115.445674
 30
0.0
 10
75.579331
 20
115.489218
 30
0.0
 10
75.413966
 20
115.489218
 30
0.0
 10
75.413966
 20
116.420221
 30
0.0
 10
75.454205
 20
116.820404
 30
0.0
 10
75.561692
 20
117.133493
 30
0.0
 10
75.720993
 20
117.336340
 30
0.0
 10
75.918328
 20
117.409102
 30
0.0
 10
76.129995
 20
117.304370
 30
0.0
 10
76.193938
 20
117.008920
 30
0.0
 10
76.193938
 20
115.291883
 30
0.0
 10
76.234174
 20
115.138647
 30
0.0
 10
76.376389
 20
115.095100
 30
0.0
 10
76.808542
 20
115.095100
 30
0.0
 10
76.947999
 20
115.138647
 30
0.0
 10
76.990993
 20
115.291883
 30
0.0
 10
76.947999
 20
115.445674
 30
0.0
 10
76.808542
 20
115.489218
 30
0.0
 10
76.628845
 20
115.489218
 30
0.0
 10
76.628845
 20
117.060733
 30
0.0
 10
76.579236
 20
117.405795
 30
0.0
 10
76.451906
 20
117.649432
 30
0.0
 10
76.260633
 20
117.791646
 30
0.0
 10
76.028573
 20
117.837948
 30
0.0
 10
75.660360
 20
117.707310
 30
0.0
 10
75.361602
 20
117.313189
 30
0.0
 10
75.280574
 20
117.545252
 30
0.0
 10
75.155998
 20
117.707310
 30
0.0
 10
74.996147
 20
117.805977
 30
0.0
 10
74.816451
 20
117.837948
 30
0.0
 10
74.816451
 20
117.837948
 30
0.0
  0
LWPOLYLINE
  5
145
100
AcDbEntity
  8
Layer_1
 62
7
100
AcDbPolyline
 90
45
 70
0
 10
53.599072
 20
117.774007
 30
0.0
 10
53.456857
 20
117.731011
 30
0.0
 10
53.416618
 20
117.577222
 30
0.0
 10
53.456857
 20
117.423434
 30
0.0
 10
53.599072
 20
117.379887
 30
0.0
 10
53.836646
 20
117.379887
 30
0.0
 10
53.836646
 20
115.976492
 30
0.0
 10
53.895075
 20
115.581824
 30
0.0
 10
54.065952
 20
115.286371
 30
0.0
 10
54.338801
 20
115.097855
 30
0.0
 10
54.698194
 20
115.031160
 30
0.0
 10
55.252166
 20
115.184949
 30
0.0
 10
55.698650
 20
115.640252
 30
0.0
 10
55.698650
 20
115.289128
 30
0.0
 10
55.738889
 20
115.135340
 30
0.0
 10
55.881103
 20
115.095100
 30
0.0
 10
56.342469
 20
115.095100
 30
0.0
 10
56.481376
 20
115.138647
 30
0.0
 10
56.524923
 20
115.291883
 30
0.0
 10
56.481376
 20
115.445674
 30
0.0
 10
56.342469
 20
115.489218
 30
0.0
 10
56.104344
 20
115.489218
 30
0.0
 10
56.104344
 20
117.577222
 30
0.0
 10
56.060797
 20
117.731011
 30
0.0
 10
55.921893
 20
117.774007
 30
0.0
 10
55.257677
 20
117.774007
 30
0.0
 10
55.115466
 20
117.731011
 30
0.0
 10
55.075226
 20
117.577222
 30
0.0
 10
55.115466
 20
117.423434
 30
0.0
 10
55.257677
 20
117.379887
 30
0.0
 10
55.669437
 20
117.379887
 30
0.0
 10
55.669437
 20
116.550309
 30
0.0
 10
55.593920
 20
116.112644
 30
0.0
 10
55.391073
 20
115.767582
 30
0.0
 10
55.095620
 20
115.541584
 30
0.0
 10
54.741741
 20
115.460005
 30
0.0
 10
54.532829
 20
115.500795
 30
0.0
 10
54.387860
 20
115.613794
 30
0.0
 10
54.300769
 20
115.790733
 30
0.0
 10
54.272104
 20
116.020039
 30
0.0
 10
54.272104
 20
117.577222
 30
0.0
 10
54.228560
 20
117.731011
 30
0.0
 10
54.089102
 20
117.774007
 30
0.0
 10
53.599072
 20
117.774007
 30
0.0
 10
53.599072
 20
117.774007
 30
0.0
  0
LWPOLYLINE
  5
146
100
AcDbEntity
  8
Layer_1
 62
7
100
AcDbPolyline
 90
45
 70
0
 10
63.063989
 20
117.774007
 30
0.0
 10
62.921775
 20
117.731011
 30
0.0
 10
62.880985
 20
117.577222
 30
0.0
 10
62.921775
 20
117.423434
 30
0.0
 10
63.063989
 20
117.379887
 30
0.0
 10
63.301564
 20
117.379887
 30
0.0
 10
63.301564
 20
115.976492
 30
0.0
 10
63.359439
 20
115.581824
 30
0.0
 10
63.530869
 20
115.286371
 30
0.0
 10
63.803169
 20
115.097855
 30
0.0
 10
64.162562
 20
115.031160
 30
0.0
 10
64.716533
 20
115.184949
 30
0.0
 10
65.163017
 20
115.640252
 30
0.0
 10
65.163017
 20
115.289128
 30
0.0
 10
65.203807
 20
115.135340
 30
0.0
 10
65.346021
 20
115.095100
 30
0.0
 10
65.806836
 20
115.095100
 30
0.0
 10
65.946294
 20
115.138647
 30
0.0
 10
65.989841
 20
115.291883
 30
0.0
 10
65.946294
 20
115.445674
 30
0.0
 10
65.806836
 20
115.489218
 30
0.0
 10
65.569262
 20
115.489218
 30
0.0
 10
65.569262
 20
117.577222
 30
0.0
 10
65.525715
 20
117.731011
 30
0.0
 10
65.386258
 20
117.774007
 30
0.0
 10
64.722595
 20
117.774007
 30
0.0
 10
64.580381
 20
117.731011
 30
0.0
 10
64.539591
 20
117.577222
 30
0.0
 10
64.580381
 20
117.423434
 30
0.0
 10
64.722595
 20
117.379887
 30
0.0
 10
65.134355
 20
117.379887
 30
0.0
 10
65.134355
 20
116.550309
 30
0.0
 10
65.058838
 20
116.112644
 30
0.0
 10
64.855990
 20
115.767582
 30
0.0
 10
64.559987
 20
115.541584
 30
0.0
 10
64.206106
 20
115.460005
 30
0.0
 10
63.997747
 20
115.500795
 30
0.0
 10
63.852778
 20
115.613794
 30
0.0
 10
63.765687
 20
115.790733
 30
0.0
 10
63.736471
 20
116.020039
 30
0.0
 10
63.736471
 20
117.577222
 30
0.0
 10
63.692924
 20
117.731011
 30
0.0
 10
63.554020
 20
117.774007
 30
0.0
 10
63.063989
 20
117.774007
 30
0.0
 10
63.063989
 20
117.774007
 30
0.0
  0
LWPOLYLINE
  5
147
100
AcDbEntity
  8
Layer_1
 62
7
100
AcDbPolyline
 90
23
 70
0
 10
70.692809
 20
117.774007
 30
0.0
 10
70.551147
 20
117.731011
 30
0.0
 10
70.510355
 20
117.577222
 30
0.0
 10
70.551147
 20
117.423434
 30
0.0
 10
70.692809
 20
117.379887
 30
0.0
 10
71.426476
 20
117.379887
 30
0.0
 10
71.426476
 20
115.489218
 30
0.0
 10
70.519174
 20
115.489218
 30
0.0
 10
70.376963
 20
115.445674
 30
0.0
 10
70.336173
 20
115.291883
 30
0.0
 10
70.376963
 20
115.138647
 30
0.0
 10
70.519174
 20
115.095100
 30
0.0
 10
72.792387
 20
115.095100
 30
0.0
 10
72.931844
 20
115.138647
 30
0.0
 10
72.975391
 20
115.291883
 30
0.0
 10
72.931844
 20
115.445674
 30
0.0
 10
72.792387
 20
115.489218
 30
0.0
 10
71.861384
 20
115.489218
 30
0.0
 10
71.861384
 20
117.577222
 30
0.0
 10
71.818390
 20
117.731011
 30
0.0
 10
71.678933
 20
117.774007
 30
0.0
 10
70.692809
 20
117.774007
 30
0.0
 10
70.692809
 20
117.774007
 30
0.0
  0
LWPOLYLINE
  5
148
100
AcDbEntity
  8
Layer_1
 62
7
100
AcDbPolyline
 90
14
 70
0
 10
44.093915
 20
116.365100
 30
0.0
 10
44.545910
 20
116.333130
 30
0.0
 10
44.972551
 20
116.234463
 30
0.0
 10
44.972551
 20
115.918616
 30
0.0
 10
44.499609
 20
115.567492
 30
0.0
 10
43.931307
 20
115.440159
 30
0.0
 10
43.519547
 20
115.555916
 30
0.0
 10
43.410959
 20
115.698130
 30
0.0
 10
43.374578
 20
115.886646
 30
0.0
 10
43.426944
 20
116.107132
 30
0.0
 10
43.577425
 20
116.254856
 30
0.0
 10
43.803976
 20
116.338642
 30
0.0
 10
44.093915
 20
116.365100
 30
0.0
 10
44.093915
 20
116.365100
 30
0.0
  0
LWPOLYLINE
  5
149
100
AcDbEntity
  8
Layer_1
 62
7
100
AcDbPolyline
 90
18
 70
0
 10
78.696453
 20
115.924128
 30
0.0
 10
78.522271
 20
115.889401
 30
0.0
 10
78.380057
 20
115.793490
 30
0.0
 10
78.284697
 20
115.651826
 30
0.0
 10
78.249969
 20
115.477644
 30
0.0
 10
78.284697
 20
115.303459
 30
0.0
 10
78.380057
 20
115.161798
 30
0.0
 10
78.522271
 20
115.065885
 30
0.0
 10
78.696453
 20
115.031160
 30
0.0
 10
78.870088
 20
115.065885
 30
0.0
 10
79.012299
 20
115.161798
 30
0.0
 10
79.108213
 20
115.303459
 30
0.0
 10
79.142937
 20
115.477644
 30
0.0
 10
79.108213
 20
115.651826
 30
0.0
 10
79.012299
 20
115.793490
 30
0.0
 10
78.870088
 20
115.889401
 30
0.0
 10
78.696453
 20
115.924128
 30
0.0
 10
78.696453
 20
115.924128
 30
0.0
  0
SPLINE
  5
14a
100
AcDbEntity
  8
Layer_1
 62
7
100
AcDbSpline
 70
8
 71
3
 72
8
 73
4
 74
0
 40
0
 40
0
 40
0
 40
0
 40
1
 40
1
 40
1
 40
1
 10
34.132904
 20
140.982924
 30
0.0
 10
34.115652
 20
140.982927
 30
0.0
 10
34.099106
 20
140.976075
 30
0.0
 10
34.086908
 20
140.963877
 30
0.0
  0
SPLINE
  5
14b
100
AcDbEntity
  8
Layer_1
 62
7
100
AcDbSpline
 70
8
 71
3
 72
8
 73
4
 74
0
 40
0
 40
0
 40
0
 40
0
 40
1
 40
1
 40
1
 40
1
 10
34.086908
 20
140.963877
 30
0.0
 10
34.074709
 20
140.951678
 30
0.0
 10
34.067857
 20
140.935132
 30
0.0
 10
34.067860
 20
140.917881
 30
0.0
  0
SPLINE
  5
14c
100
AcDbEntity
  8
Layer_1
 62
7
100
AcDbSpline
 70
8
 71
3
 72
8
 73
4
 74
0
 40
0
 40
0
 40
0
 40
0
 40
1
 40
1
 40
1
 40
1
 10
34.067860
 20
140.917881
 30
0.0
 10
34.067860
 20
140.917881
 30
0.0
 10
34.067860
 20
106.048004
 30
0.0
 10
34.067860
 20
106.048004
 30
0.0
  0
SPLINE
  5
14d
100
AcDbEntity
  8
Layer_1
 62
7
100
AcDbSpline
 70
8
 71
3
 72
8
 73
4
 74
0
 40
0
 40
0
 40
0
 40
0
 40
1
 40
1
 40
1
 40
1
 10
34.067860
 20
106.048004
 30
0.0
 10
34.067857
 20
106.030753
 30
0.0
 10
34.074709
 20
106.014207
 30
0.0
 10
34.086908
 20
106.002008
 30
0.0
  0
SPLINE
  5
14e
100
AcDbEntity
  8
Layer_1
 62
7
100
AcDbSpline
 70
8
 71
3
 72
8
 73
4
 74
0
 40
0
 40
0
 40
0
 40
0
 40
1
 40
1
 40
1
 40
1
 10
34.086908
 20
106.002008
 30
0.0
 10
34.099106
 20
105.989809
 30
0.0
 10
34.115652
 20
105.982957
 30
0.0
 10
34.132904
 20
105.982960
 30
0.0
  0
SPLINE
  5
14f
100
AcDbEntity
  8
Layer_1
 62
7
100
AcDbSpline
 70
8
 71
3
 72
8
 73
4
 74
0
 40
0
 40
0
 40
0
 40
0
 40
1
 40
1
 40
1
 40
1
 10
34.132904
 20
105.982960
 30
0.0
 10
34.132904
 20
105.982960
 30
0.0
 10
84.003004
 20
105.982960
 30
0.0
 10
84.003004
 20
105.982960
 30
0.0
  0
SPLINE
  5
150
100
AcDbEntity
  8
Layer_1
 62
7
100
AcDbSpline
 70
8
 71
3
 72
8
 73
4
 74
0
 40
0
 40
0
 40
0
 40
0
 40
1
 40
1
 40
1
 40
1
 10
84.003004
 20
105.982960
 30
0.0
 10
84.020256
 20
105.982957
 30
0.0
 10
84.036802
 20
105.989809
 30
0.0
 10
84.049000
 20
106.002008
 30
0.0
  0
SPLINE
  5
151
100
AcDbEntity
  8
Layer_1
 62
7
100
AcDbSpline
 70
8
 71
3
 72
8
 73
4
 74
0
 40
0
 40
0
 40
0
 40
0
 40
1
 40
1
 40
1
 40
1
 10
84.049000
 20
106.002008
 30
0.0
 10
84.061199
 20
106.014207
 30
0.0
 10
84.068051
 20
106.030753
 30
0.0
 10
84.068048
 20
106.048004
 30
0.0
  0
SPLINE
  5
152
100
AcDbEntity
  8
Layer_1
 62
7
100
AcDbSpline
 70
8
 71
3
 72
8
 73
4
 74
0
 40
0
 40
0
 40
0
 40
0
 40
1
 40
1
 40
1
 40
1
 10
84.068048
 20
106.048004
 30
0.0
 10
84.068048
 20
106.048004
 30
0.0
 10
84.068048
 20
140.917881
 30
0.0
 10
84.068048
 20
140.917881
 30
0.0
  0
SPLINE
  5
153
100
AcDbEntity
  8
Layer_1
 62
7
100
AcDbSpline
 70
8
 71
3
 72
8
 73
4
 74
0
 40
0
 40
0
 40
0
 40
0
 40
1
 40
1
 40
1
 40
1
 10
84.068048
 20
140.917881
 30
0.0
 10
84.068051
 20
140.935132
 30
0.0
 10
84.061199
 20
140.951678
 30
0.0
 10
84.049000
 20
140.963877
 30
0.0
  0
SPLINE
  5
154
100
AcDbEntity
  8
Layer_1
 62
7
100
AcDbSpline
 70
8
 71
3
 72
8
 73
4
 74
0
 40
0
 40
0
 40
0
 40
0
 40
1
 40
1
 40
1
 40
1
 10
84.049000
 20
140.963877
 30
0.0
 10
84.036802
 20
140.976075
 30
0.0
 10
84.020256
 20
140.982927
 30
0.0
 10
84.003004
 20
140.982924
 30
0.0
  0
LWPOLYLINE
  5
155
100
AcDbEntity
  8
Layer_1
 62
7
100
AcDbPolyline
 90
6
 70
0
 10
61.280257
 20
114.761615
 30
0.0
 10
60.990316
 20
113.868094
 30
0.0
 10
61.413650
 20
113.868094
 30
0.0
 10
61.921319
 20
114.761615
 30
0.0
 10
61.280257
 20
114.761615
 30
0.0
 10
61.280257
 20
114.761615
 30
0.0
  0
LWPOLYLINE
  5
156
100
AcDbEntity
  8
Layer_1
 62
7
100
AcDbPolyline
 90
3
 70
1
 10
84.003004
 20
140.982924
 30
0.0
 10
34.132904
 20
140.982924
 30
0.0
 10
34.132904
 20
140.982924
 30
0.0
  0
LWPOLYLINE
  5
157
100
AcDbEntity
  8
Layer_1
 62
7
100
AcDbPolyline
 90
6
 70
1
 10
34.197948
 20
140.852840
 30
0.0
 10
83.937960
 20
140.852840
 30
0.0
 10
83.937960
 20
106.113048
 30
0.0
 10
34.197948
 20
106.113048
 30
0.0
 10
34.197948
 20
140.852840
 30
0.0
 10
34.197948
 20
140.852840
 30
0.0
  0
ENDSEC
  0
SECTION
  2
OBJECTS
  0
DICTIONARY
  5
C
330
0
100
AcDbDictionary
  3
ACAD_GROUP
350
D
  3
ACAD_MLINESTYLE
350
17
  0
DICTIONARY
  5
D
330
C
100
AcDbDictionary
  0
DICTIONARY
  5
1A
330
C
100
AcDbDictionary
  0
DICTIONARY
  5
17
330
C
100
AcDbDictionary
  3
STANDARD
350
18
  0
DICTIONARY
  5
19
330
C
100
AcDbDictionary
  0
ENDSEC
  0
EOF
