<?xml version="1.0" encoding="UTF-8" standalone="no"?>
<!-- Created with Inkscape (http://www.inkscape.org/) -->

<svg
   xmlns:dc="http://purl.org/dc/elements/1.1/"
   xmlns:cc="http://creativecommons.org/ns#"
   xmlns:rdf="http://www.w3.org/1999/02/22-rdf-syntax-ns#"
   xmlns:svg="http://www.w3.org/2000/svg"
   xmlns="http://www.w3.org/2000/svg"
   xmlns:sodipodi="http://sodipodi.sourceforge.net/DTD/sodipodi-0.dtd"
   xmlns:inkscape="http://www.inkscape.org/namespaces/inkscape"
   id="svg4346"
   version="1.1"
   inkscape:version="0.91 r13725"
   width="389"
   height="525"
   viewBox="0 0 389 525"
   sodipodi:docname="caine.svg">
  <metadata
     id="metadata4352">
    <rdf:RDF>
      <cc:Work
         rdf:about="">
        <dc:format>image/svg+xml</dc:format>
        <dc:type
           rdf:resource="http://purl.org/dc/dcmitype/StillImage" />
        <dc:title></dc:title>
      </cc:Work>
    </rdf:RDF>
  </metadata>
  <defs
     id="defs4350" />
  <sodipodi:namedview
     pagecolor="#ffffff"
     bordercolor="#666666"
     borderopacity="1"
     objecttolerance="10"
     gridtolerance="10"
     guidetolerance="10"
     inkscape:pageopacity="0"
     inkscape:pageshadow="2"
     inkscape:window-width="1440"
     inkscape:window-height="837"
     id="namedview4348"
     showgrid="false"
     inkscape:zoom="1.7980952"
     inkscape:cx="160.10486"
     inkscape:cy="272.27473"
     inkscape:window-x="-4"
     inkscape:window-y="-4"
     inkscape:window-maximized="1"
     inkscape:current-layer="svg4346" />
  <path
     style="fill:#000000"
     d="m 124.31595,118.63364 c -0.40041,0.0189 -0.7566,0.13082 -1.07287,0.33486 -1.39513,0.90008 -0.93043,7.8806 0.88979,13.36399 2.25985,6.80778 10.77925,23.73244 12.87072,25.56877 l 1.70085,1.49406 -0.72663,2.78986 c -0.39967,1.53439 -0.72664,3.62544 -0.72664,4.64723 0,1.02179 -0.31527,2.3424 -0.70102,2.93404 -0.63589,0.9753 -1.38094,3.40972 -2.0395,6.66113 -0.13527,0.66781 -0.42891,1.65133 -0.6517,2.18559 -1.06191,2.54654 -1.01812,2.77642 0.83383,4.39205 1.4681,1.28076 1.71086,1.7192 1.22655,2.2169 -0.48287,0.49621 -0.40133,0.8358 0.406,1.69516 0.96466,1.02683 0.97228,1.13006 0.18308,2.33453 -0.4772,0.7283 -0.60189,1.26069 -0.29596,1.26069 0.33543,0 0.41599,0.56287 0.22102,1.5377 -0.25988,1.29943 -0.18232,1.49141 0.49802,1.23034 0.63879,-0.24512 0.80537,-0.0107 0.80537,1.13264 0,0.95783 0.24456,1.44188 0.72853,1.44188 0.40906,0 0.76243,0.47922 0.80537,1.0928 0.11138,1.59085 0.0707,1.96981 -0.31683,2.91412 -0.25216,0.61454 -0.11905,0.84996 0.48284,0.84996 0.59429,0 0.73846,0.24317 0.50371,0.84995 -0.18085,0.46747 -0.45749,1.48679 -0.6147,2.26622 -0.23809,1.18038 -0.15112,1.36639 0.51983,1.10893 1.1288,-0.43316 1.05733,1.16565 -0.14039,3.13515 -1.05045,1.72733 -0.92007,2.35349 0.48948,2.35349 1.0847,0 1.20696,0.50905 0.33486,1.38971 -0.48626,0.49104 -0.4383,0.70859 0.24095,1.09185 0.8003,0.45157 0.7945,0.5844 -0.11383,2.36488 -0.5294,1.0377 -1.20705,2.03817 -1.50544,2.22259 -0.62096,0.38377 -2.85956,5.00897 -2.8667,5.9231 -0.003,0.33391 0.33321,0.60711 0.74561,0.60711 0.44469,0 0.69174,0.34588 0.60711,0.84996 -0.0785,0.46747 0.0806,0.8111 0.35383,0.76457 0.2732,-0.0465 0.49707,0.79671 0.49707,1.8735 0,1.48595 0.28372,2.18776 1.17722,2.91128 0.95696,0.7749 1.04731,1.03313 0.48569,1.38023 -0.54454,0.33654 -0.43553,0.5228 0.51225,0.8803 0.66139,0.24947 1.3658,0.35702 1.56615,0.23905 0.6478,-0.38143 0.39037,0.24689 -0.84995,2.07461 -1.40006,2.0631 -1.50404,2.62575 -0.48569,2.62575 0.88823,0 0.88769,-0.0874 0.0218,2.36677 -0.38885,1.1021 -0.55276,2.02959 -0.36427,2.06038 0.1885,0.0308 0.67029,0.0854 1.07098,0.12142 0.40069,0.036 0.64869,0.39329 0.55019,0.79398 -0.0985,0.4007 -0.29484,1.69234 -0.43636,2.87144 -0.21877,1.82269 -0.14166,2.09969 0.51699,1.84694 0.61932,-0.23766 0.83564,0.16033 1.07952,1.98449 0.16778,1.25499 0.59158,3.17402 0.94102,4.26494 0.34942,1.09092 0.46814,2.293 0.26466,2.67128 -0.20349,0.37828 -0.51999,1.18045 -0.70387,1.78148 -0.27187,0.88869 -0.14684,1.0928 0.66972,1.0928 0.56874,0 1.00363,0.31588 1.00363,0.72853 0,0.40069 0.33132,0.72853 0.73517,0.72853 0.58951,0 0.66958,0.39881 0.4098,2.02338 -0.28527,1.78395 -0.22382,1.98557 0.51319,1.70275 0.72289,-0.27739 0.81512,-0.0427 0.68205,1.73975 -0.13255,1.77564 -0.0308,2.0409 0.73802,1.90955 0.68359,-0.1168 0.82341,0.0645 0.59762,0.77596 -0.16214,0.51087 0.036,1.56324 0.44016,2.33832 0.4042,0.77507 0.73656,1.68283 0.73801,2.01674 0.002,0.33391 0.46515,0.60711 1.03019,0.60711 0.96331,0 1.00708,0.16758 0.69059,2.70068 -0.301,2.40908 -0.24597,2.68506 0.51224,2.54986 0.69738,-0.12434 0.96479,0.46039 1.48553,3.24898 0.34918,1.8699 1.1772,5.47613 1.84029,8.01384 1.04674,4.00592 3.18638,14.86093 3.18638,16.16428 0,0.24899 -0.34127,0.32151 -0.75889,0.16126 -1.76226,-0.67624 -4.92952,2.01441 -9.40449,7.98823 -2.86097,3.81922 -4.78333,7.6652 -5.24106,10.48591 -0.22893,1.41072 -0.14801,1.60027 0.56632,1.32615 0.74075,-0.28424 0.79553,-0.07 0.49612,1.92663 -0.42248,2.81728 0.0357,4.87659 1.00173,4.50588 0.71466,-0.27424 0.84362,0.051 1.42101,3.58195 0.15288,0.93495 0.47975,2.01845 0.72664,2.40852 0.38581,0.60956 0.58309,0.58823 1.40393,-0.15463 0.92748,-0.83935 0.96448,-0.82143 1.28157,0.62229 0.19276,0.87763 1.49694,2.67528 3.18353,4.38826 1.5713,1.59589 2.65894,3.02359 2.41705,3.17309 -0.24189,0.1495 -2.75622,0.69787 -5.58729,1.21801 -6.25962,1.15006 -8.7444,2.19531 -10.81224,4.55048 -2.68902,3.06266 -2.13525,7.03519 0.98845,7.09084 0.47687,0.009 1.38044,0.35197 2.00726,0.76268 0.88742,0.58146 2.06158,0.69249 5.30651,0.50181 3.25636,-0.19135 4.32257,-0.0894 4.87774,0.46577 1.7961,1.7961 6.02511,2.20273 9.74979,0.93817 1.6032,-0.5443 2.45541,-0.61018 3.14179,-0.24284 0.51806,0.27726 1.60052,0.50466 2.40567,0.50466 2.29163,0 9.02816,-2.3104 10.05714,-3.44914 1.33116,-1.47316 5.38205,-1.0061 6.67535,0.76932 0.4899,0.67251 1.13135,1.22276 1.42576,1.22276 0.29441,0 1.02403,0.45877 1.62117,1.01975 0.62918,0.59108 1.86771,1.07377 2.94543,1.14781 1.02284,0.0703 2.40567,0.36209 3.07349,0.64885 1.93232,0.82973 4.7303,0.66506 7.27298,-0.42877 1.83383,-0.78889 2.56953,-0.89602 3.33625,-0.48568 2.5965,1.3896 9.93109,-0.0182 11.11483,-2.13342 0.42222,-0.75448 0.66272,-0.75523 3.55159,-0.007 2.04422,0.52971 3.8422,0.69113 5.28185,0.47525 1.20041,-0.18002 4.65911,-0.33385 7.68562,-0.34245 4.26071,-0.0121 5.6905,0.15109 6.33576,0.72474 1.42634,1.26806 4.79004,2.04248 6.16025,1.41816 0.72243,-0.32916 1.30641,-0.36458 1.47604,-0.0901 0.15438,0.2498 1.20007,0.70358 2.32409,1.00837 2.15684,0.58486 4.08035,0.18648 9.79437,-2.02623 2.10992,-0.81704 2.45966,-0.84218 2.81737,-0.20299 1.38836,2.48086 6.26524,2.73604 12.74455,0.66686 2.68714,-0.85814 4.72332,-1.10748 9.71374,-1.18955 4.47927,-0.0737 7.51352,-0.39969 10.44227,-1.1222 2.27059,-0.56014 4.84641,-1.01971 5.72296,-1.02165 0.96614,-0.002 1.70307,-0.28974 1.87255,-0.73138 0.15376,-0.40069 0.59088,-0.72853 0.97137,-0.72853 1.08946,0 1.2712,-1.19149 0.47336,-3.101 -0.80227,-1.92011 -0.95168,-1.77214 1.96741,-1.93895 0.57795,-0.033 1.19368,-0.20227 1.36789,-0.37565 0.50147,-0.4991 -0.62191,-4.04554 -1.72646,-5.44975 l -1.00553,-1.27683 1.00648,0 c 2.18656,0 0.72777,-2.8424 -3.74985,-7.30523 -5.26713,-5.24971 -8.11037,-7.30544 -9.98789,-7.2208 -0.83929,0.0378 -2.93283,-0.30788 -4.65293,-0.76837 -4.96493,-1.32919 -8.67386,-0.3985 -8.06601,2.02337 0.26016,1.03654 0.1294,1.12885 -1.60694,1.12885 -1.04002,0 -2.7734,0.31026 -3.85135,0.69059 -2.27336,0.80209 -2.53373,0.65751 -2.53373,-1.40869 0,-0.83967 -0.7458,-3.04285 -1.65817,-4.89671 -0.91236,-1.85387 -2.10324,-5.15963 -2.64661,-7.34602 -2.15005,-8.65129 -5.46477,-14.85642 -11.23626,-21.03728 -5.5842,-5.98028 -8.54492,-11.85814 -9.10948,-18.08426 -0.21246,-2.34297 -0.12767,-2.80029 0.51889,-2.80029 0.69634,0 0.70386,-0.22812 0.073,-2.30702 -0.88604,-2.91996 -0.88427,-3.2979 0.0171,-2.54985 0.61529,0.51063 0.72853,0.41153 0.72853,-0.63747 0,-0.68314 -0.23542,-1.85763 -0.52363,-2.60962 -0.2882,-0.75199 -0.5898,-2.56902 -0.67066,-4.03822 -0.17833,-3.24001 -1.51365,-7.31691 -4.61213,-14.08493 -1.28409,-2.80484 -2.5945,-6.52035 -2.91223,-8.25668 -0.61681,-3.3708 -2.84589,-7.92831 -5.82066,-11.89934 -1.00055,-1.33564 -2.08464,-3.23302 -2.40851,-4.21561 -0.72056,-2.18609 -3.71125,-6.85463 -5.83489,-9.10854 -1.38101,-1.46571 -1.59197,-2.05163 -1.74923,-4.85687 -0.28293,-5.0466 -0.921,-7.52235 -2.70449,-10.4916 -1.92582,-3.20622 -9.61429,-11.07992 -12.55102,-12.85364 -1.69876,-1.02601 -1.97492,-1.4109 -1.77959,-2.47966 0.12713,-0.69564 -0.0119,-1.50787 -0.30925,-1.8052 -0.39701,-0.397 -0.32526,-0.62271 0.2694,-0.8509 1.08993,-0.41824 1.02215,-1.04593 -0.15367,-1.41912 -0.91427,-0.29018 -0.8967,-0.36768 0.34529,-1.51872 1.07814,-0.99918 1.18394,-1.29056 0.60142,-1.65058 -0.59501,-0.36773 -0.55331,-0.55365 0.26182,-1.16963 0.53295,-0.40275 1.29637,-0.75063 1.69706,-0.77311 0.51243,-0.0288 0.40438,-0.2673 -0.36427,-0.80348 -1.432,-0.99891 -1.38567,-1.61453 0.12142,-1.61453 1.53785,0 1.52565,-0.35104 -0.0702,-2.01674 l -1.28442,-1.34038 1.28442,-0.58529 c 1.54442,-0.70369 1.633,-1.2249 0.27984,-1.65438 -0.55288,-0.17547 -1.75236,-1.48651 -2.66559,-2.91412 -0.91323,-1.42761 -1.88216,-2.73288 -2.15239,-2.89989 -0.80412,-0.49698 -0.55877,-1.21707 0.41454,-1.21707 1.63728,0 3.30142,-1.84929 4.41672,-4.90809 0.6035,-1.65517 1.86805,-4.21517 2.81072,-5.6888 2.26482,-3.54049 7.08724,-13.622 8.37621,-17.51131 1.22777,-3.70462 2.19765,-10.65446 1.74069,-12.47513 -0.29477,-1.17448 -0.49516,-1.27849 -1.99018,-1.03588 -1.80497,0.29291 -5.04259,2.32597 -8.48909,5.33117 -2.74013,2.38928 -6.47921,4.29473 -11.16511,5.6888 -2.70969,0.80614 -4.04091,1.51005 -5.22019,2.76045 l -1.58323,1.67904 -1.3973,-0.99509 c -2.50256,-1.78198 -8.49617,-4.41482 -10.0505,-4.41482 -0.83466,0 -2.22148,-0.35093 -3.08107,-0.77976 -1.17534,-0.58634 -2.00619,-0.67435 -3.35238,-0.35288 -2.104,0.50243 -8.49268,0.46238 -10.41762,-0.0654 -0.76153,-0.20882 -1.6018,-0.15885 -1.94274,0.11573 -0.33045,0.26611 -1.29605,0.63232 -2.14576,0.8139 -0.8497,0.18158 -1.80071,0.63908 -2.11349,1.01596 -0.31278,0.37687 -2.03494,1.15699 -3.82669,1.73406 l -3.25752,1.04915 -2.39998,-1.71128 c -1.31981,-0.94106 -4.58556,-2.80324 -7.25684,-4.13878 -3.97892,-1.98932 -5.62653,-3.18158 -9.11518,-6.59472 -3.65617,-3.57704 -6.21326,-5.24997 -7.94839,-5.16802 z"
     id="path5006"
     inkscape:connector-curvature="0" />
</svg>
