  0
SECTION
  2
HEADER
  9
$ACADVER
  1
AC1014
  9
$HANDSEED
  5
FFFF
  9
$MEASUREMENT
 70
     1
  0
ENDSEC
  0
SECTION
  2
TABLES
  0
TABLE
  2
VPORT
  5
8
330
0
100
AcDbSymbolTable
 70
     4
  0
VPORT
  5
2E
330
8
100
AcDbSymbolTableRecord
100
AcDbViewportTableRecord
  2
*ACTIVE
 70
     0
 10
0.0
 20
0.0
 11
1.0
 21
1.0
 12
210.0
 22
148.5
 13
0.0
 23
0.0
 14
10.0
 24
10.0
 15
10.0
 25
10.0
 16
0.0
 26
0.0
 36
1.0
 17
0.0
 27
0.0
 37
0.0
 40
341.0
 41
1.24
 42
50.0
 43
0.0
 44
0.0
 50
0.0
 51
0.0
 71
     0
 72
   100
 73
     1
 74
     3
 75
     0
 76
     0
 77
     0
 78
     0
  0
ENDTAB
  0
TABLE
  2
LTYPE
  5
5
330
0
100
AcDbSymbolTable
 70
     1
  0
LTYPE
  5
14
330
5
100
AcDbSymbolTableRecord
100
AcDbLinetypeTableRecord
  2
BYBLOCK
 70
     0
  3

 72
    65
 73
     0
 40
0.0
  0
LTYPE
  5
15
330
5
100
AcDbSymbolTableRecord
100
AcDbLinetypeTableRecord
  2
BYLAYER
 70
     0
  3

 72
    65
 73
     0
 40
0.0
  0
LTYPE
  5
16
330
5
100
AcDbSymbolTableRecord
100
AcDbLinetypeTableRecord
  2
CONTINUOUS
 70
     0
  3
Solid line
 72
    65
 73
     0
 40
0.0
  0
ENDTAB
  0
TABLE
  2
LAYER
  5
2
100
AcDbSymbolTable
 70
1
  0
LAYER
  5
50
100
AcDbSymbolTableRecord
100
AcDbLayerTableRecord
  2
0
 70
0
  6
CONTINUOUS
  0
ENDTAB
  0
TABLE
  2
STYLE
  5
3
330
0
100
AcDbSymbolTable
 70
     1
  0
STYLE
  5
11
330
3
100
AcDbSymbolTableRecord
100
AcDbTextStyleTableRecord
  2
STANDARD
 70
     0
 40
0.0
 41
1.0
 50
0.0
 71
     0
 42
2.5
  3
txt
  4

  0
ENDTAB
  0
TABLE
  2
VIEW
  5
6
330
0
100
AcDbSymbolTable
 70
     0
  0
ENDTAB
  0
TABLE
  2
UCS
  5
7
330
0
100
AcDbSymbolTable
 70
     0
  0
ENDTAB
  0
TABLE
  2
APPID
  5
9
330
0
100
AcDbSymbolTable
 70
     2
  0
APPID
  5
12
330
9
100
AcDbSymbolTableRecord
100
AcDbRegAppTableRecord
  2
ACAD
 70
     0
  0
ENDTAB
  0
TABLE
  2
DIMSTYLE
  5
A
330
0
100
AcDbSymbolTable
 70
     1
  0
DIMSTYLE
105
27
330
A
100
AcDbSymbolTableRecord
100
AcDbDimStyleTableRecord
  2
ISO-25
 70
     0
  3

  4

  5

  6

  7

 40
1.0
 41
2.5
 42
0.625
 43
3.75
 44
1.25
 45
0.0
 46
0.0
 47
0.0
 48
0.0
140
2.5
141
2.5
142
0.0
143
0.03937007874016
144
1.0
145
0.0
146
1.0
147
0.625
 71
     0
 72
     0
 73
     0
 74
     0
 75
     0
 76
     0
 77
     1
 78
     8
170
     0
171
     3
172
     1
173
     0
174
     0
175
     0
176
     0
177
     0
178
     0
270
     2
271
     2
272
     2
273
     2
274
     3
340
11
275
     0
280
     0
281
     0
282
     0
283
     0
284
     8
285
     0
286
     0
287
     3
288
     0
  0
ENDTAB
  0
TABLE
  2
BLOCK_RECORD
  5
1
330
0
100
AcDbSymbolTable
 70
     1
  0
BLOCK_RECORD
  5
1F
330
1
100
AcDbSymbolTableRecord
100
AcDbBlockTableRecord
  2
*MODEL_SPACE
  0
BLOCK_RECORD
  5
1B
330
1
100
AcDbSymbolTableRecord
100
AcDbBlockTableRecord
  2
*PAPER_SPACE
  0
ENDTAB
  0
ENDSEC
  0
SECTION
  2
BLOCKS
  0
BLOCK
  5
20
330
1F
100
AcDbEntity
  8
0
100
AcDbBlockBegin
  2
*MODEL_SPACE
 70
     0
 10
0.0
 20
0.0
 30
0.0
  3
*MODEL_SPACE
  1

  0
ENDBLK
  5
21
330
1F
100
AcDbEntity
  8
0
100
AcDbBlockEnd
  0
BLOCK
  5
1C
330
1B
100
AcDbEntity
 67
     1
  8
0
100
AcDbBlockBegin
  2
*PAPER_SPACE
  1

  0
ENDBLK
  5
1D
330
1B
100
AcDbEntity
 67
     1
  8
0
100
AcDbBlockEnd
  0
ENDSEC
  0
SECTION
  2
ENTITIES
  0
SPLINE
  5
100
100
AcDbEntity
  8
0
 62
7
100
AcDbSpline
 70
8
 71
3
 72
8
 73
4
 74
0
 40
0
 40
0
 40
0
 40
0
 40
1
 40
1
 40
1
 40
1
 10
35.084853
 20
114.685851
 30
0.0
 10
34.971849
 20
114.680517
 30
0.0
 10
34.870943
 20
114.648626
 30
0.0
 10
34.781685
 20
114.591042
 30
0.0
  0
SPLINE
  5
101
100
AcDbEntity
  8
0
 62
7
100
AcDbSpline
 70
8
 71
3
 72
8
 73
4
 74
0
 40
0
 40
0
 40
0
 40
0
 40
1
 40
1
 40
1
 40
1
 10
34.781685
 20
114.591042
 30
0.0
 10
34.387948
 20
114.337019
 30
0.0
 10
34.519331
 20
112.367162
 30
0.0
 10
35.033037
 20
110.819627
 30
0.0
  0
SPLINE
  5
102
100
AcDbEntity
  8
0
 62
7
100
AcDbSpline
 70
8
 71
3
 72
8
 73
4
 74
0
 40
0
 40
0
 40
0
 40
0
 40
1
 40
1
 40
1
 40
1
 10
35.033037
 20
110.819627
 30
0.0
 10
35.670817
 20
108.898320
 30
0.0
 10
38.075289
 20
104.121921
 30
0.0
 10
38.665548
 20
103.603668
 30
0.0
  0
SPLINE
  5
103
100
AcDbEntity
  8
0
 62
7
100
AcDbSpline
 70
8
 71
3
 72
8
 73
4
 74
0
 40
0
 40
0
 40
0
 40
0
 40
1
 40
1
 40
1
 40
1
 10
38.940605
 20
102.394300
 30
0.0
 10
38.827809
 20
101.961261
 30
0.0
 10
38.735550
 20
101.371332
 30
0.0
 10
38.735550
 20
101.082960
 30
0.0
  0
SPLINE
  5
104
100
AcDbEntity
  8
0
 62
7
100
AcDbSpline
 70
8
 71
3
 72
8
 73
4
 74
0
 40
0
 40
0
 40
0
 40
0
 40
1
 40
1
 40
1
 40
1
 10
38.735550
 20
101.082960
 30
0.0
 10
38.735550
 20
100.794589
 30
0.0
 10
38.646532
 20
100.422010
 30
0.0
 10
38.537665
 20
100.255036
 30
0.0
  0
SPLINE
  5
105
100
AcDbEntity
  8
0
 62
7
100
AcDbSpline
 70
8
 71
3
 72
8
 73
4
 74
0
 40
0
 40
0
 40
0
 40
0
 40
1
 40
1
 40
1
 40
1
 10
38.537665
 20
100.255036
 30
0.0
 10
38.358202
 20
99.979782
 30
0.0
 10
38.147506
 20
99.292461
 30
0.0
 10
37.961646
 20
98.374841
 30
0.0
  0
SPLINE
  5
106
100
AcDbEntity
  8
0
 62
7
100
AcDbSpline
 70
8
 71
3
 72
8
 73
4
 74
0
 40
0
 40
0
 40
0
 40
0
 40
1
 40
1
 40
1
 40
1
 10
37.961646
 20
98.374841
 30
0.0
 10
37.923470
 20
98.186370
 30
0.0
 10
37.840965
 20
97.908810
 30
0.0
 10
37.778092
 20
97.758030
 30
0.0
  0
SPLINE
  5
107
100
AcDbEntity
  8
0
 62
7
100
AcDbSpline
 70
8
 71
3
 72
8
 73
4
 74
0
 40
0
 40
0
 40
0
 40
0
 40
1
 40
1
 40
1
 40
1
 10
37.778092
 20
97.758030
 30
0.0
 10
37.478394
 20
97.039340
 30
0.0
 10
37.490798
 20
96.974313
 30
0.0
 10
38.013459
 20
96.518346
 30
0.0
  0
SPLINE
  5
108
100
AcDbEntity
  8
0
 62
7
100
AcDbSpline
 70
8
 71
3
 72
8
 73
4
 74
0
 40
0
 40
0
 40
0
 40
0
 40
1
 40
1
 40
1
 40
1
 10
38.013459
 20
96.518346
 30
0.0
 10
38.427790
 20
96.156887
 30
0.0
 10
38.496305
 20
96.033178
 30
0.0
 10
38.359622
 20
95.892716
 30
0.0
  0
SPLINE
  5
109
100
AcDbEntity
  8
0
 62
7
100
AcDbSpline
 70
8
 71
3
 72
8
 73
4
 74
0
 40
0
 40
0
 40
0
 40
0
 40
1
 40
1
 40
1
 40
1
 10
38.359622
 20
95.892716
 30
0.0
 10
38.223345
 20
95.752674
 30
0.0
 10
38.246428
 20
95.656792
 30
0.0
 10
38.474275
 20
95.414262
 30
0.0
  0
SPLINE
  5
10a
100
AcDbEntity
  8
0
 62
7
100
AcDbSpline
 70
8
 71
3
 72
8
 73
4
 74
0
 40
0
 40
0
 40
0
 40
0
 40
1
 40
1
 40
1
 40
1
 10
38.474275
 20
95.414262
 30
0.0
 10
38.746523
 20
95.124468
 30
0.0
 10
38.748267
 20
95.095489
 30
0.0
 10
38.525537
 20
94.755561
 30
0.0
  0
SPLINE
  5
10b
100
AcDbEntity
  8
0
 62
7
100
AcDbSpline
 70
8
 71
3
 72
8
 73
4
 74
0
 40
0
 40
0
 40
0
 40
0
 40
1
 40
1
 40
1
 40
1
 10
38.525537
 20
94.755561
 30
0.0
 10
38.390861
 20
94.550018
 30
0.0
 10
38.355964
 20
94.400026
 30
0.0
 10
38.442305
 20
94.400026
 30
0.0
  0
SPLINE
  5
10c
100
AcDbEntity
  8
0
 62
7
100
AcDbSpline
 70
8
 71
3
 72
8
 73
4
 74
0
 40
0
 40
0
 40
0
 40
0
 40
1
 40
1
 40
1
 40
1
 10
38.442305
 20
94.400026
 30
0.0
 10
38.536970
 20
94.400026
 30
0.0
 10
38.559616
 20
94.240787
 30
0.0
 10
38.504591
 20
93.965669
 30
0.0
  0
SPLINE
  5
10d
100
AcDbEntity
  8
0
 62
7
100
AcDbSpline
 70
8
 71
3
 72
8
 73
4
 74
0
 40
0
 40
0
 40
0
 40
0
 40
1
 40
1
 40
1
 40
1
 10
38.504591
 20
93.965669
 30
0.0
 10
38.431247
 20
93.598941
 30
0.0
 10
38.453145
 20
93.544723
 30
0.0
 10
38.645152
 20
93.618403
 30
0.0
  0
SPLINE
  5
10e
100
AcDbEntity
  8
0
 62
7
100
AcDbSpline
 70
8
 71
3
 72
8
 73
4
 74
0
 40
0
 40
0
 40
0
 40
0
 40
1
 40
1
 40
1
 40
1
 10
38.645152
 20
93.618403
 30
0.0
 10
38.825432
 20
93.687581
 30
0.0
 10
38.872253
 20
93.621375
 30
0.0
 10
38.872253
 20
93.298699
 30
0.0
  0
SPLINE
  5
10f
100
AcDbEntity
  8
0
 62
7
100
AcDbSpline
 70
8
 71
3
 72
8
 73
4
 74
0
 40
0
 40
0
 40
0
 40
0
 40
1
 40
1
 40
1
 40
1
 10
38.872253
 20
93.298699
 30
0.0
 10
38.872253
 20
93.028378
 30
0.0
 10
38.941268
 20
92.891901
 30
0.0
 10
39.077855
 20
92.891901
 30
0.0
  0
SPLINE
  5
110
100
AcDbEntity
  8
0
 62
7
100
AcDbSpline
 70
8
 71
3
 72
8
 73
4
 74
0
 40
0
 40
0
 40
0
 40
0
 40
1
 40
1
 40
1
 40
1
 10
39.077855
 20
92.891901
 30
0.0
 10
39.193301
 20
92.891901
 30
0.0
 10
39.293388
 20
92.756936
 30
0.0
 10
39.305507
 20
92.583770
 30
0.0
  0
SPLINE
  5
111
100
AcDbEntity
  8
0
 62
7
100
AcDbSpline
 70
8
 71
3
 72
8
 73
4
 74
0
 40
0
 40
0
 40
0
 40
0
 40
1
 40
1
 40
1
 40
1
 10
39.305507
 20
92.583770
 30
0.0
 10
39.336940
 20
92.134797
 30
0.0
 10
39.325031
 20
92.027863
 30
0.0
 10
39.215658
 20
91.761358
 30
0.0
  0
SPLINE
  5
112
100
AcDbEntity
  8
0
 62
7
100
AcDbSpline
 70
8
 71
3
 72
8
 73
4
 74
0
 40
0
 40
0
 40
0
 40
0
 40
1
 40
1
 40
1
 40
1
 10
39.215658
 20
91.761358
 30
0.0
 10
39.144493
 20
91.587921
 30
0.0
 10
39.182494
 20
91.521029
 30
0.0
 10
39.352361
 20
91.521029
 30
0.0
  0
SPLINE
  5
113
100
AcDbEntity
  8
0
 62
7
100
AcDbSpline
 70
8
 71
3
 72
8
 73
4
 74
0
 40
0
 40
0
 40
0
 40
0
 40
1
 40
1
 40
1
 40
1
 10
39.352361
 20
91.521029
 30
0.0
 10
39.520083
 20
91.521029
 30
0.0
 10
39.560827
 20
91.452497
 30
0.0
 10
39.494576
 20
91.281250
 30
0.0
  0
SPLINE
  5
114
100
AcDbEntity
  8
0
 62
7
100
AcDbSpline
 70
8
 71
3
 72
8
 73
4
 74
0
 40
0
 40
0
 40
0
 40
0
 40
1
 40
1
 40
1
 40
1
 10
39.494576
 20
91.281250
 30
0.0
 10
39.443536
 20
91.149320
 30
0.0
 10
39.365309
 20
90.861811
 30
0.0
 10
39.320941
 20
90.641842
 30
0.0
  0
SPLINE
  5
115
100
AcDbEntity
  8
0
 62
7
100
AcDbSpline
 70
8
 71
3
 72
8
 73
4
 74
0
 40
0
 40
0
 40
0
 40
0
 40
1
 40
1
 40
1
 40
1
 10
39.320941
 20
90.641842
 30
0.0
 10
39.253747
 20
90.308709
 30
0.0
 10
39.278207
 20
90.256089
 30
0.0
 10
39.467564
 20
90.328750
 30
0.0
  0
SPLINE
  5
116
100
AcDbEntity
  8
0
 62
7
100
AcDbSpline
 70
8
 71
3
 72
8
 73
4
 74
0
 40
0
 40
0
 40
0
 40
0
 40
1
 40
1
 40
1
 40
1
 10
39.467564
 20
90.328750
 30
0.0
 10
39.786137
 20
90.450997
 30
0.0
 10
39.765901
 20
89.999885
 30
0.0
 10
39.427878
 20
89.444048
 30
0.0
  0
SPLINE
  5
117
100
AcDbEntity
  8
0
 62
7
100
AcDbSpline
 70
8
 71
3
 72
8
 73
4
 74
0
 40
0
 40
0
 40
0
 40
0
 40
1
 40
1
 40
1
 40
1
 10
39.427878
 20
89.444048
 30
0.0
 10
39.131418
 20
88.956557
 30
0.0
 10
39.168426
 20
88.779835
 30
0.0
 10
39.566232
 20
88.779835
 30
0.0
  0
SPLINE
  5
118
100
AcDbEntity
  8
0
 62
7
100
AcDbSpline
 70
8
 71
3
 72
8
 73
4
 74
0
 40
0
 40
0
 40
0
 40
0
 40
1
 40
1
 40
1
 40
1
 10
39.566232
 20
88.779835
 30
0.0
 10
39.872358
 20
88.779835
 30
0.0
 10
39.906617
 20
88.636464
 30
0.0
 10
39.660491
 20
88.387922
 30
0.0
  0
SPLINE
  5
119
100
AcDbEntity
  8
0
 62
7
100
AcDbSpline
 70
8
 71
3
 72
8
 73
4
 74
0
 40
0
 40
0
 40
0
 40
0
 40
1
 40
1
 40
1
 40
1
 10
39.660491
 20
88.387922
 30
0.0
 10
39.523258
 20
88.249339
 30
0.0
 10
39.537140
 20
88.187406
 30
0.0
 10
39.728840
 20
88.079241
 30
0.0
  0
SPLINE
  5
11a
100
AcDbEntity
  8
0
 62
7
100
AcDbSpline
 70
8
 71
3
 72
8
 73
4
 74
0
 40
0
 40
0
 40
0
 40
0
 40
1
 40
1
 40
1
 40
1
 10
39.728840
 20
88.079241
 30
0.0
 10
39.954702
 20
87.951798
 30
0.0
 10
39.952670
 20
87.914762
 30
0.0
 10
39.696319
 20
87.412271
 30
0.0
  0
SPLINE
  5
11b
100
AcDbEntity
  8
0
 62
7
100
AcDbSpline
 70
8
 71
3
 72
8
 73
4
 74
0
 40
0
 40
0
 40
0
 40
0
 40
1
 40
1
 40
1
 40
1
 10
39.696319
 20
87.412271
 30
0.0
 10
39.546911
 20
87.119409
 30
0.0
 10
39.355545
 20
86.837035
 30
0.0
 10
39.271332
 20
86.784987
 30
0.0
  0
SPLINE
  5
11c
100
AcDbEntity
  8
0
 62
7
100
AcDbSpline
 70
8
 71
3
 72
8
 73
4
 74
0
 40
0
 40
0
 40
0
 40
0
 40
1
 40
1
 40
1
 40
1
 10
39.271332
 20
86.784987
 30
0.0
 10
39.096084
 20
86.676679
 30
0.0
 10
38.464716
 20
85.371138
 30
0.0
 10
38.462701
 20
85.113151
 30
0.0
  0
SPLINE
  5
11d
100
AcDbEntity
  8
0
 62
7
100
AcDbSpline
 70
8
 71
3
 72
8
 73
4
 74
0
 40
0
 40
0
 40
0
 40
0
 40
1
 40
1
 40
1
 40
1
 10
38.462701
 20
85.113151
 30
0.0
 10
38.461854
 20
85.018914
 30
0.0
 10
38.556325
 20
84.941723
 30
0.0
 10
38.672714
 20
84.941723
 30
0.0
  0
SPLINE
  5
11e
100
AcDbEntity
  8
0
 62
7
100
AcDbSpline
 70
8
 71
3
 72
8
 73
4
 74
0
 40
0
 40
0
 40
0
 40
0
 40
1
 40
1
 40
1
 40
1
 10
38.672714
 20
84.941723
 30
0.0
 10
38.798215
 20
84.941723
 30
0.0
 10
38.868025
 20
84.844207
 30
0.0
 10
38.844141
 20
84.701944
 30
0.0
  0
SPLINE
  5
11f
100
AcDbEntity
  8
0
 62
7
100
AcDbSpline
 70
8
 71
3
 72
8
 73
4
 74
0
 40
0
 40
0
 40
0
 40
0
 40
1
 40
1
 40
1
 40
1
 10
38.844141
 20
84.701944
 30
0.0
 10
38.821987
 20
84.570014
 30
0.0
 10
38.866798
 20
84.473288
 30
0.0
 10
38.943909
 20
84.486420
 30
0.0
  0
SPLINE
  5
120
100
AcDbEntity
  8
0
 62
7
100
AcDbSpline
 70
8
 71
3
 72
8
 73
4
 74
0
 40
0
 40
0
 40
0
 40
0
 40
1
 40
1
 40
1
 40
1
 10
38.943909
 20
84.486420
 30
0.0
 10
39.021012
 20
84.499543
 30
0.0
 10
39.084470
 20
84.261147
 30
0.0
 10
39.084470
 20
83.957253
 30
0.0
  0
SPLINE
  5
121
100
AcDbEntity
  8
0
 62
7
100
AcDbSpline
 70
8
 71
3
 72
8
 73
4
 74
0
 40
0
 40
0
 40
0
 40
0
 40
1
 40
1
 40
1
 40
1
 10
39.084470
 20
83.957253
 30
0.0
 10
39.084470
 20
83.537885
 30
0.0
 10
39.164689
 20
83.340135
 30
0.0
 10
39.416855
 20
83.135941
 30
0.0
  0
SPLINE
  5
122
100
AcDbEntity
  8
0
 62
7
100
AcDbSpline
 70
8
 71
3
 72
8
 73
4
 74
0
 40
0
 40
0
 40
0
 40
0
 40
1
 40
1
 40
1
 40
1
 10
39.416855
 20
83.135941
 30
0.0
 10
39.686930
 20
82.917247
 30
0.0
 10
39.712056
 20
82.844191
 30
0.0
 10
39.553555
 20
82.746232
 30
0.0
  0
SPLINE
  5
123
100
AcDbEntity
  8
0
 62
7
100
AcDbSpline
 70
8
 71
3
 72
8
 73
4
 74
0
 40
0
 40
0
 40
0
 40
0
 40
1
 40
1
 40
1
 40
1
 10
39.553555
 20
82.746232
 30
0.0
 10
39.399873
 20
82.651253
 30
0.0
 10
39.431039
 20
82.598528
 30
0.0
 10
39.698524
 20
82.497634
 30
0.0
  0
SPLINE
  5
124
100
AcDbEntity
  8
0
 62
7
100
AcDbSpline
 70
8
 71
3
 72
8
 73
4
 74
0
 40
0
 40
0
 40
0
 40
0
 40
1
 40
1
 40
1
 40
1
 10
39.698524
 20
82.497634
 30
0.0
 10
39.885183
 20
82.427228
 30
0.0
 10
40.083506
 20
82.397092
 30
0.0
 10
40.140049
 20
82.430386
 30
0.0
  0
SPLINE
  5
125
100
AcDbEntity
  8
0
 62
7
100
AcDbSpline
 70
8
 71
3
 72
8
 73
4
 74
0
 40
0
 40
0
 40
0
 40
0
 40
1
 40
1
 40
1
 40
1
 10
40.140049
 20
82.430386
 30
0.0
 10
40.322873
 20
82.538034
 30
0.0
 10
40.250316
 20
82.360818
 30
0.0
 10
39.900270
 20
81.844995
 30
0.0
  0
SPLINE
  5
126
100
AcDbEntity
  8
0
 62
7
100
AcDbSpline
 70
8
 71
3
 72
8
 73
4
 74
0
 40
0
 40
0
 40
0
 40
0
 40
1
 40
1
 40
1
 40
1
 10
39.900270
 20
81.844995
 30
0.0
 10
39.505142
 20
81.262742
 30
0.0
 10
39.476166
 20
81.103611
 30
0.0
 10
39.763567
 20
81.103611
 30
0.0
  0
SPLINE
  5
127
100
AcDbEntity
  8
0
 62
7
100
AcDbSpline
 70
8
 71
3
 72
8
 73
4
 74
0
 40
0
 40
0
 40
0
 40
0
 40
1
 40
1
 40
1
 40
1
 10
39.763567
 20
81.103611
 30
0.0
 10
40.014246
 20
81.103611
 30
0.0
 10
40.014006
 20
81.128712
 30
0.0
 10
39.769632
 20
80.436091
 30
0.0
  0
SPLINE
  5
128
100
AcDbEntity
  8
0
 62
7
100
AcDbSpline
 70
8
 71
3
 72
8
 73
4
 74
0
 40
0
 40
0
 40
0
 40
0
 40
1
 40
1
 40
1
 40
1
 10
39.769632
 20
80.436091
 30
0.0
 10
39.659890
 20
80.125054
 30
0.0
 10
39.613357
 20
79.863247
 30
0.0
 10
39.666553
 20
79.854558
 30
0.0
  0
SPLINE
  5
129
100
AcDbEntity
  8
0
 62
7
100
AcDbSpline
 70
8
 71
3
 72
8
 73
4
 74
0
 40
0
 40
0
 40
0
 40
0
 40
1
 40
1
 40
1
 40
1
 10
39.666553
 20
79.854558
 30
0.0
 10
39.719752
 20
79.845865
 30
0.0
 10
39.856088
 20
79.830546
 30
0.0
 10
39.969172
 20
79.820381
 30
0.0
  0
SPLINE
  5
12a
100
AcDbEntity
  8
0
 62
7
100
AcDbSpline
 70
8
 71
3
 72
8
 73
4
 74
0
 40
0
 40
0
 40
0
 40
0
 40
1
 40
1
 40
1
 40
1
 10
39.969172
 20
79.820381
 30
0.0
 10
40.082256
 20
79.810221
 30
0.0
 10
40.151863
 20
79.709120
 30
0.0
 10
40.124064
 20
79.596036
 30
0.0
  0
SPLINE
  5
12b
100
AcDbEntity
  8
0
 62
7
100
AcDbSpline
 70
8
 71
3
 72
8
 73
4
 74
0
 40
0
 40
0
 40
0
 40
0
 40
1
 40
1
 40
1
 40
1
 10
40.124064
 20
79.596036
 30
0.0
 10
40.096262
 20
79.482950
 30
0.0
 10
40.041082
 20
79.118519
 30
0.0
 10
40.001142
 20
78.785751
 30
0.0
  0
SPLINE
  5
12c
100
AcDbEntity
  8
0
 62
7
100
AcDbSpline
 70
8
 71
3
 72
8
 73
4
 74
0
 40
0
 40
0
 40
0
 40
0
 40
1
 40
1
 40
1
 40
1
 10
40.001142
 20
78.785751
 30
0.0
 10
39.939400
 20
78.271347
 30
0.0
 10
39.961329
 20
78.192969
 30
0.0
 10
40.147215
 20
78.264300
 30
0.0
  0
SPLINE
  5
12d
100
AcDbEntity
  8
0
 62
7
100
AcDbSpline
 70
8
 71
3
 72
8
 73
4
 74
0
 40
0
 40
0
 40
0
 40
0
 40
1
 40
1
 40
1
 40
1
 10
40.147215
 20
78.264300
 30
0.0
 10
40.322000
 20
78.331373
 30
0.0
 10
40.382656
 20
78.219086
 30
0.0
 10
40.451484
 20
77.704267
 30
0.0
  0
SPLINE
  5
12e
100
AcDbEntity
  8
0
 62
7
100
AcDbSpline
 70
8
 71
3
 72
8
 73
4
 74
0
 40
0
 40
0
 40
0
 40
0
 40
1
 40
1
 40
1
 40
1
 10
40.451484
 20
77.704267
 30
0.0
 10
40.498835
 20
77.350081
 30
0.0
 10
40.618551
 20
76.808846
 30
0.0
 10
40.717171
 20
76.500965
 30
0.0
  0
SPLINE
  5
12f
100
AcDbEntity
  8
0
 62
7
100
AcDbSpline
 70
8
 71
3
 72
8
 73
4
 74
0
 40
0
 40
0
 40
0
 40
0
 40
1
 40
1
 40
1
 40
1
 10
40.717171
 20
76.500965
 30
0.0
 10
40.815785
 20
76.193083
 30
0.0
 10
40.849561
 20
75.853660
 30
0.0
 10
40.792135
 20
75.746901
 30
0.0
  0
SPLINE
  5
130
100
AcDbEntity
  8
0
 62
7
100
AcDbSpline
 70
8
 71
3
 72
8
 73
4
 74
0
 40
0
 40
0
 40
0
 40
0
 40
1
 40
1
 40
1
 40
1
 10
40.792135
 20
75.746901
 30
0.0
 10
40.734705
 20
75.640142
 30
0.0
 10
40.645040
 20
75.413816
 30
0.0
 10
40.593145
 20
75.244192
 30
0.0
  0
SPLINE
  5
131
100
AcDbEntity
  8
0
 62
7
100
AcDbSpline
 70
8
 71
3
 72
8
 73
4
 74
0
 40
0
 40
0
 40
0
 40
0
 40
1
 40
1
 40
1
 40
1
 10
40.593145
 20
75.244192
 30
0.0
 10
40.516418
 20
74.993384
 30
0.0
 10
40.551763
 20
74.935512
 30
0.0
 10
40.782215
 20
74.935512
 30
0.0
  0
SPLINE
  5
132
100
AcDbEntity
  8
0
 62
7
100
AcDbSpline
 70
8
 71
3
 72
8
 73
4
 74
0
 40
0
 40
0
 40
0
 40
0
 40
1
 40
1
 40
1
 40
1
 10
40.782215
 20
74.935512
 30
0.0
 10
40.942726
 20
74.935512
 30
0.0
 10
41.065537
 20
74.846369
 30
0.0
 10
41.065537
 20
74.729910
 30
0.0
  0
SPLINE
  5
133
100
AcDbEntity
  8
0
 62
7
100
AcDbSpline
 70
8
 71
3
 72
8
 73
4
 74
0
 40
0
 40
0
 40
0
 40
0
 40
1
 40
1
 40
1
 40
1
 10
41.065537
 20
74.729910
 30
0.0
 10
41.065537
 20
74.616826
 30
0.0
 10
41.158820
 20
74.524306
 30
0.0
 10
41.272796
 20
74.524306
 30
0.0
  0
SPLINE
  5
134
100
AcDbEntity
  8
0
 62
7
100
AcDbSpline
 70
8
 71
3
 72
8
 73
4
 74
0
 40
0
 40
0
 40
0
 40
0
 40
1
 40
1
 40
1
 40
1
 10
41.272796
 20
74.524306
 30
0.0
 10
41.439169
 20
74.524306
 30
0.0
 10
41.461865
 20
74.411736
 30
0.0
 10
41.388549
 20
73.953246
 30
0.0
  0
SPLINE
  5
135
100
AcDbEntity
  8
0
 62
7
100
AcDbSpline
 70
8
 71
3
 72
8
 73
4
 74
0
 40
0
 40
0
 40
0
 40
0
 40
1
 40
1
 40
1
 40
1
 10
41.388549
 20
73.953246
 30
0.0
 10
41.308040
 20
73.449775
 30
0.0
 10
41.325521
 20
73.392769
 30
0.0
 10
41.533521
 20
73.472588
 30
0.0
  0
SPLINE
  5
136
100
AcDbEntity
  8
0
 62
7
100
AcDbSpline
 70
8
 71
3
 72
8
 73
4
 74
0
 40
0
 40
0
 40
0
 40
0
 40
1
 40
1
 40
1
 40
1
 10
41.533521
 20
73.472588
 30
0.0
 10
41.737537
 20
73.550873
 30
0.0
 10
41.763450
 20
73.485053
 30
0.0
 10
41.725895
 20
72.982006
 30
0.0
  0
SPLINE
  5
137
100
AcDbEntity
  8
0
 62
7
100
AcDbSpline
 70
8
 71
3
 72
8
 73
4
 74
0
 40
0
 40
0
 40
0
 40
0
 40
1
 40
1
 40
1
 40
1
 10
41.725895
 20
72.982006
 30
0.0
 10
41.688487
 20
72.480881
 30
0.0
 10
41.717276
 20
72.405847
 30
0.0
 10
41.934254
 20
72.442917
 30
0.0
  0
SPLINE
  5
138
100
AcDbEntity
  8
0
 62
7
100
AcDbSpline
 70
8
 71
3
 72
8
 73
4
 74
0
 40
0
 40
0
 40
0
 40
0
 40
1
 40
1
 40
1
 40
1
 10
41.934254
 20
72.442917
 30
0.0
 10
42.127178
 20
72.475880
 30
0.0
 10
42.166647
 20
72.424874
 30
0.0
 10
42.102924
 20
72.224084
 30
0.0
  0
SPLINE
  5
139
100
AcDbEntity
  8
0
 62
7
100
AcDbSpline
 70
8
 71
3
 72
8
 73
4
 74
0
 40
0
 40
0
 40
0
 40
0
 40
1
 40
1
 40
1
 40
1
 10
42.102924
 20
72.224084
 30
0.0
 10
42.057165
 20
72.079906
 30
0.0
 10
42.112887
 20
71.782474
 30
0.0
 10
42.226950
 20
71.563730
 30
0.0
  0
SPLINE
  5
13a
100
AcDbEntity
  8
0
 62
7
100
AcDbSpline
 70
8
 71
3
 72
8
 73
4
 74
0
 40
0
 40
0
 40
0
 40
0
 40
1
 40
1
 40
1
 40
1
 10
42.226950
 20
71.563730
 30
0.0
 10
42.341024
 20
71.344988
 30
0.0
 10
42.434899
 20
71.089111
 30
0.0
 10
42.435309
 20
70.994874
 30
0.0
  0
SPLINE
  5
13b
100
AcDbEntity
  8
0
 62
7
100
AcDbSpline
 70
8
 71
3
 72
8
 73
4
 74
0
 40
0
 40
0
 40
0
 40
0
 40
1
 40
1
 40
1
 40
1
 10
42.435309
 20
70.994874
 30
0.0
 10
42.435873
 20
70.900637
 30
0.0
 10
42.566884
 20
70.823447
 30
0.0
 10
42.726350
 20
70.823447
 30
0.0
  0
SPLINE
  5
13c
100
AcDbEntity
  8
0
 62
7
100
AcDbSpline
 70
8
 71
3
 72
8
 73
4
 74
0
 40
0
 40
0
 40
0
 40
0
 40
1
 40
1
 40
1
 40
1
 10
42.726350
 20
70.823447
 30
0.0
 10
42.998218
 20
70.823447
 30
0.0
 10
43.010249
 20
70.776013
 30
0.0
 10
42.920928
 20
70.061116
 30
0.0
  0
SPLINE
  5
13d
100
AcDbEntity
  8
0
 62
7
100
AcDbSpline
 70
8
 71
3
 72
8
 73
4
 74
0
 40
0
 40
0
 40
0
 40
0
 40
1
 40
1
 40
1
 40
1
 10
42.920928
 20
70.061116
 30
0.0
 10
42.835980
 20
69.381220
 30
0.0
 10
42.851914
 20
69.303623
 30
0.0
 10
43.065898
 20
69.341780
 30
0.0
  0
SPLINE
  5
13e
100
AcDbEntity
  8
0
 62
7
100
AcDbSpline
 70
8
 71
3
 72
8
 73
4
 74
0
 40
0
 40
0
 40
0
 40
0
 40
1
 40
1
 40
1
 40
1
 10
43.065898
 20
69.341780
 30
0.0
 10
43.262714
 20
69.376871
 30
0.0
 10
43.337858
 20
69.211560
 30
0.0
 10
43.484823
 20
68.424558
 30
0.0
  0
SPLINE
  5
13f
100
AcDbEntity
  8
0
 62
7
100
AcDbSpline
 70
8
 71
3
 72
8
 73
4
 74
0
 40
0
 40
0
 40
0
 40
0
 40
1
 40
1
 40
1
 40
1
 10
43.484823
 20
68.424558
 30
0.0
 10
43.583369
 20
67.896830
 30
0.0
 10
43.816928
 20
66.879120
 30
0.0
 10
44.004066
 20
66.162922
 30
0.0
  0
SPLINE
  5
140
100
AcDbEntity
  8
0
 62
7
100
AcDbSpline
 70
8
 71
3
 72
8
 73
4
 74
0
 40
0
 40
0
 40
0
 40
0
 40
1
 40
1
 40
1
 40
1
 10
44.004066
 20
66.162922
 30
0.0
 10
44.299480
 20
65.032362
 30
0.0
 10
44.903650
 20
61.968896
 30
0.0
 10
44.903650
 20
61.601062
 30
0.0
  0
SPLINE
  5
141
100
AcDbEntity
  8
0
 62
7
100
AcDbSpline
 70
8
 71
3
 72
8
 73
4
 74
0
 40
0
 40
0
 40
0
 40
0
 40
1
 40
1
 40
1
 40
1
 10
44.903650
 20
61.601062
 30
0.0
 10
44.903650
 20
61.530792
 30
0.0
 10
44.807090
 20
61.510638
 30
0.0
 10
44.689228
 20
61.555864
 30
0.0
  0
SPLINE
  5
142
100
AcDbEntity
  8
0
 62
7
100
AcDbSpline
 70
8
 71
3
 72
8
 73
4
 74
0
 40
0
 40
0
 40
0
 40
0
 40
1
 40
1
 40
1
 40
1
 10
44.689228
 20
61.555864
 30
0.0
 10
44.191880
 20
61.746714
 30
0.0
 10
43.298062
 20
60.987339
 30
0.0
 10
42.035126
 20
59.301394
 30
0.0
  0
SPLINE
  5
143
100
AcDbEntity
  8
0
 62
7
100
AcDbSpline
 70
8
 71
3
 72
8
 73
4
 74
0
 40
0
 40
0
 40
0
 40
0
 40
1
 40
1
 40
1
 40
1
 10
42.035126
 20
59.301394
 30
0.0
 10
41.227697
 20
58.223525
 30
0.0
 10
40.685395
 20
57.137986
 30
0.0
 10
40.556214
 20
56.341919
 30
0.0
  0
SPLINE
  5
144
100
AcDbEntity
  8
0
 62
7
100
AcDbSpline
 70
8
 71
3
 72
8
 73
4
 74
0
 40
0
 40
0
 40
0
 40
0
 40
1
 40
1
 40
1
 40
1
 10
40.556214
 20
56.341919
 30
0.0
 10
40.491608
 20
55.943782
 30
0.0
 10
40.514468
 20
55.890281
 30
0.0
 10
40.716067
 20
55.967644
 30
0.0
  0
SPLINE
  5
145
100
AcDbEntity
  8
0
 62
7
100
AcDbSpline
 70
8
 71
3
 72
8
 73
4
 74
0
 40
0
 40
0
 40
0
 40
0
 40
1
 40
1
 40
1
 40
1
 10
40.716067
 20
55.967644
 30
0.0
 10
40.925123
 20
56.047863
 30
0.0
 10
40.940578
 20
55.987086
 30
0.0
 10
40.856075
 20
55.423593
 30
0.0
  0
SPLINE
  5
146
100
AcDbEntity
  8
0
 62
7
100
AcDbSpline
 70
8
 71
3
 72
8
 73
4
 74
0
 40
0
 40
0
 40
0
 40
0
 40
1
 40
1
 40
1
 40
1
 10
40.856075
 20
55.423593
 30
0.0
 10
40.736842
 20
54.628494
 30
0.0
 10
40.866215
 20
54.047317
 30
0.0
 10
41.138850
 20
54.151939
 30
0.0
  0
SPLINE
  5
147
100
AcDbEntity
  8
0
 62
7
100
AcDbSpline
 70
8
 71
3
 72
8
 73
4
 74
0
 40
0
 40
0
 40
0
 40
0
 40
1
 40
1
 40
1
 40
1
 10
41.138850
 20
54.151939
 30
0.0
 10
41.340543
 20
54.229336
 30
0.0
 10
41.376631
 20
54.137523
 30
0.0
 10
41.539583
 20
53.141011
 30
0.0
  0
SPLINE
  5
148
100
AcDbEntity
  8
0
 62
7
100
AcDbSpline
 70
8
 71
3
 72
8
 73
4
 74
0
 40
0
 40
0
 40
0
 40
0
 40
1
 40
1
 40
1
 40
1
 10
41.539583
 20
53.141011
 30
0.0
 10
41.582729
 20
52.877147
 30
0.0
 10
41.674957
 20
52.571450
 30
0.0
 10
41.744635
 20
52.461363
 30
0.0
  0
SPLINE
  5
149
100
AcDbEntity
  8
0
 62
7
100
AcDbSpline
 70
8
 71
3
 72
8
 73
4
 74
0
 40
0
 40
0
 40
0
 40
0
 40
1
 40
1
 40
1
 40
1
 10
41.744635
 20
52.461363
 30
0.0
 10
41.853519
 20
52.289332
 30
0.0
 10
41.909300
 20
52.295258
 30
0.0
 10
42.140959
 20
52.504910
 30
0.0
  0
SPLINE
  5
14a
100
AcDbEntity
  8
0
 62
7
100
AcDbSpline
 70
8
 71
3
 72
8
 73
4
 74
0
 40
0
 40
0
 40
0
 40
0
 40
1
 40
1
 40
1
 40
1
 10
42.140959
 20
52.504910
 30
0.0
 10
42.402715
 20
52.741793
 30
0.0
 10
42.413067
 20
52.737072
 30
0.0
 10
42.502557
 20
52.329622
 30
0.0
  0
SPLINE
  5
14b
100
AcDbEntity
  8
0
 62
7
100
AcDbSpline
 70
8
 71
3
 72
8
 73
4
 74
0
 40
0
 40
0
 40
0
 40
0
 40
1
 40
1
 40
1
 40
1
 10
42.502557
 20
52.329622
 30
0.0
 10
42.556958
 20
52.081935
 30
0.0
 10
42.925043
 20
51.574483
 30
0.0
 10
43.401036
 20
51.091042
 30
0.0
  0
SPLINE
  5
14c
100
AcDbEntity
  8
0
 62
7
100
AcDbSpline
 70
8
 71
3
 72
8
 73
4
 74
0
 40
0
 40
0
 40
0
 40
0
 40
1
 40
1
 40
1
 40
1
 10
43.401036
 20
51.091042
 30
0.0
 10
43.844492
 20
50.640646
 30
0.0
 10
44.151708
 20
50.237509
 30
0.0
 10
44.083441
 20
50.195316
 30
0.0
  0
SPLINE
  5
14d
100
AcDbEntity
  8
0
 62
7
100
AcDbSpline
 70
8
 71
3
 72
8
 73
4
 74
0
 40
0
 40
0
 40
0
 40
0
 40
1
 40
1
 40
1
 40
1
 10
44.083441
 20
50.195316
 30
0.0
 10
44.015175
 20
50.153124
 30
0.0
 10
43.305405
 20
49.998703
 30
0.0
 10
42.506415
 20
49.851908
 30
0.0
  0
SPLINE
  5
14e
100
AcDbEntity
  8
0
 62
7
100
AcDbSpline
 70
8
 71
3
 72
8
 73
4
 74
0
 40
0
 40
0
 40
0
 40
0
 40
1
 40
1
 40
1
 40
1
 10
42.506415
 20
49.851908
 30
0.0
 10
40.739811
 20
49.527339
 30
0.0
 10
40.038477
 20
49.232258
 30
0.0
 10
39.454887
 20
48.567577
 30
0.0
  0
SPLINE
  5
14f
100
AcDbEntity
  8
0
 62
7
100
AcDbSpline
 70
8
 71
3
 72
8
 73
4
 74
0
 40
0
 40
0
 40
0
 40
0
 40
1
 40
1
 40
1
 40
1
 10
39.454887
 20
48.567577
 30
0.0
 10
38.695986
 20
47.703226
 30
0.0
 10
38.852224
 20
46.581822
 30
0.0
 10
39.733801
 20
46.566116
 30
0.0
  0
SPLINE
  5
150
100
AcDbEntity
  8
0
 62
7
100
AcDbSpline
 70
8
 71
3
 72
8
 73
4
 74
0
 40
0
 40
0
 40
0
 40
0
 40
1
 40
1
 40
1
 40
1
 10
39.733801
 20
46.566116
 30
0.0
 10
39.868385
 20
46.563576
 30
0.0
 10
40.123547
 20
46.467054
 30
0.0
 10
40.300453
 20
46.351142
 30
0.0
  0
SPLINE
  5
151
100
AcDbEntity
  8
0
 62
7
100
AcDbSpline
 70
8
 71
3
 72
8
 73
4
 74
0
 40
0
 40
0
 40
0
 40
0
 40
1
 40
1
 40
1
 40
1
 10
40.300453
 20
46.351142
 30
0.0
 10
40.550900
 20
46.187041
 30
0.0
 10
40.882313
 20
46.155664
 30
0.0
 10
41.798105
 20
46.209481
 30
0.0
  0
SPLINE
  5
152
100
AcDbEntity
  8
0
 62
7
100
AcDbSpline
 70
8
 71
3
 72
8
 73
4
 74
0
 40
0
 40
0
 40
0
 40
0
 40
1
 40
1
 40
1
 40
1
 10
41.798105
 20
46.209481
 30
0.0
 10
42.717122
 20
46.263481
 30
0.0
 10
43.017807
 20
46.234421
 30
0.0
 10
43.174488
 20
46.077739
 30
0.0
  0
SPLINE
  5
153
100
AcDbEntity
  8
0
 62
7
100
AcDbSpline
 70
8
 71
3
 72
8
 73
4
 74
0
 40
0
 40
0
 40
0
 40
0
 40
1
 40
1
 40
1
 40
1
 10
43.174488
 20
46.077739
 30
0.0
 10
43.681388
 20
45.570840
 30
0.0
 10
44.874967
 20
45.456269
 30
0.0
 10
45.926155
 20
45.813156
 30
0.0
  0
SPLINE
  5
154
100
AcDbEntity
  8
0
 62
7
100
AcDbSpline
 70
8
 71
3
 72
8
 73
4
 74
0
 40
0
 40
0
 40
0
 40
0
 40
1
 40
1
 40
1
 40
1
 10
45.926155
 20
45.813156
 30
0.0
 10
46.378614
 20
45.966769
 30
0.0
 10
46.619349
 20
45.985179
 30
0.0
 10
46.813061
 20
45.881507
 30
0.0
  0
SPLINE
  5
155
100
AcDbEntity
  8
0
 62
7
100
AcDbSpline
 70
8
 71
3
 72
8
 73
4
 74
0
 40
0
 40
0
 40
0
 40
0
 40
1
 40
1
 40
1
 40
1
 10
46.813061
 20
45.881507
 30
0.0
 10
46.959269
 20
45.803258
 30
0.0
 10
47.264374
 20
45.739293
 30
0.0
 10
47.491605
 20
45.739293
 30
0.0
  0
SPLINE
  5
156
100
AcDbEntity
  8
0
 62
7
100
AcDbSpline
 70
8
 71
3
 72
8
 73
4
 74
0
 40
0
 40
0
 40
0
 40
0
 40
1
 40
1
 40
1
 40
1
 10
47.491605
 20
45.739293
 30
0.0
 10
48.138354
 20
45.739293
 30
0.0
 10
50.039964
 20
46.391362
 30
0.0
 10
50.330365
 20
46.712739
 30
0.0
  0
SPLINE
  5
157
100
AcDbEntity
  8
0
 62
7
100
AcDbSpline
 70
8
 71
3
 72
8
 73
4
 74
0
 40
0
 40
0
 40
0
 40
0
 40
1
 40
1
 40
1
 40
1
 10
50.330365
 20
46.712739
 30
0.0
 10
50.706048
 20
47.128498
 30
0.0
 10
51.848870
 20
46.996624
 30
0.0
 10
52.213868
 20
46.495561
 30
0.0
  0
SPLINE
  5
158
100
AcDbEntity
  8
0
 62
7
100
AcDbSpline
 70
8
 71
3
 72
8
 73
4
 74
0
 40
0
 40
0
 40
0
 40
0
 40
1
 40
1
 40
1
 40
1
 10
52.213868
 20
46.495561
 30
0.0
 10
52.352129
 20
46.305764
 30
0.0
 10
52.533166
 20
46.150499
 30
0.0
 10
52.616255
 20
46.150499
 30
0.0
  0
SPLINE
  5
159
100
AcDbEntity
  8
0
 62
7
100
AcDbSpline
 70
8
 71
3
 72
8
 73
4
 74
0
 40
0
 40
0
 40
0
 40
0
 40
1
 40
1
 40
1
 40
1
 10
52.616255
 20
46.150499
 30
0.0
 10
52.699344
 20
46.150499
 30
0.0
 10
52.905787
 20
46.021086
 30
0.0
 10
53.074313
 20
45.862765
 30
0.0
  0
SPLINE
  5
15a
100
AcDbEntity
  8
0
 62
7
100
AcDbSpline
 70
8
 71
3
 72
8
 73
4
 74
0
 40
0
 40
0
 40
0
 40
0
 40
1
 40
1
 40
1
 40
1
 10
53.074313
 20
45.862765
 30
0.0
 10
53.251882
 20
45.695949
 30
0.0
 10
53.601391
 20
45.559545
 30
0.0
 10
53.905548
 20
45.538650
 30
0.0
  0
SPLINE
  5
15b
100
AcDbEntity
  8
0
 62
7
100
AcDbSpline
 70
8
 71
3
 72
8
 73
4
 74
0
 40
0
 40
0
 40
0
 40
0
 40
1
 40
1
 40
1
 40
1
 10
53.905548
 20
45.538650
 30
0.0
 10
54.194216
 20
45.518809
 30
0.0
 10
54.584134
 20
45.436576
 30
0.0
 10
54.772608
 20
45.355645
 30
0.0
  0
SPLINE
  5
15c
100
AcDbEntity
  8
0
 62
7
100
AcDbSpline
 70
8
 71
3
 72
8
 73
4
 74
0
 40
0
 40
0
 40
0
 40
0
 40
1
 40
1
 40
1
 40
1
 10
54.772608
 20
45.355645
 30
0.0
 10
55.317952
 20
45.121477
 30
0.0
 10
56.107734
 20
45.168210
 30
0.0
 10
56.825334
 20
45.476914
 30
0.0
  0
SPLINE
  5
15d
100
AcDbEntity
  8
0
 62
7
100
AcDbSpline
 70
8
 71
3
 72
8
 73
4
 74
0
 40
0
 40
0
 40
0
 40
0
 40
1
 40
1
 40
1
 40
1
 10
56.825334
 20
45.476914
 30
0.0
 10
57.342882
 20
45.699556
 30
0.0
 10
57.550425
 20
45.729423
 30
0.0
 10
57.766811
 20
45.613616
 30
0.0
  0
SPLINE
  5
15e
100
AcDbEntity
  8
0
 62
7
100
AcDbSpline
 70
8
 71
3
 72
8
 73
4
 74
0
 40
0
 40
0
 40
0
 40
0
 40
1
 40
1
 40
1
 40
1
 10
57.766811
 20
45.613616
 30
0.0
 10
58.499601
 20
45.221440
 30
0.0
 10
60.569698
 20
45.619131
 30
0.0
 10
60.903776
 20
46.216093
 30
0.0
  0
SPLINE
  5
15f
100
AcDbEntity
  8
0
 62
7
100
AcDbSpline
 70
8
 71
3
 72
8
 73
4
 74
0
 40
0
 40
0
 40
0
 40
0
 40
1
 40
1
 40
1
 40
1
 10
60.903776
 20
46.216093
 30
0.0
 10
61.022936
 20
46.429024
 30
0.0
 10
61.090581
 20
46.428914
 30
0.0
 10
61.905885
 20
46.217747
 30
0.0
  0
SPLINE
  5
160
100
AcDbEntity
  8
0
 62
7
100
AcDbSpline
 70
8
 71
3
 72
8
 73
4
 74
0
 40
0
 40
0
 40
0
 40
0
 40
1
 40
1
 40
1
 40
1
 10
61.905885
 20
46.217747
 30
0.0
 10
62.482809
 20
46.068251
 30
0.0
 10
62.990623
 20
46.022875
 30
0.0
 10
63.396924
 20
46.083801
 30
0.0
  0
SPLINE
  5
161
100
AcDbEntity
  8
0
 62
7
100
AcDbSpline
 70
8
 71
3
 72
8
 73
4
 74
0
 40
0
 40
0
 40
0
 40
0
 40
1
 40
1
 40
1
 40
1
 10
63.396924
 20
46.083801
 30
0.0
 10
63.735706
 20
46.134607
 30
0.0
 10
64.711806
 20
46.177838
 30
0.0
 10
65.565954
 20
46.180265
 30
0.0
  0
SPLINE
  5
162
100
AcDbEntity
  8
0
 62
7
100
AcDbSpline
 70
8
 71
3
 72
8
 73
4
 74
0
 40
0
 40
0
 40
0
 40
0
 40
1
 40
1
 40
1
 40
1
 10
65.565954
 20
46.180265
 30
0.0
 10
66.768421
 20
46.183680
 30
0.0
 10
67.171991
 20
46.137661
 30
0.0
 10
67.354097
 20
45.975764
 30
0.0
  0
SPLINE
  5
163
100
AcDbEntity
  8
0
 62
7
100
AcDbSpline
 70
8
 71
3
 72
8
 73
4
 74
0
 40
0
 40
0
 40
0
 40
0
 40
1
 40
1
 40
1
 40
1
 10
67.354097
 20
45.975764
 30
0.0
 10
67.756642
 20
45.617889
 30
0.0
 10
68.705928
 20
45.399384
 30
0.0
 10
69.092631
 20
45.575581
 30
0.0
  0
SPLINE
  5
164
100
AcDbEntity
  8
0
 62
7
100
AcDbSpline
 70
8
 71
3
 72
8
 73
4
 74
0
 40
0
 40
0
 40
0
 40
0
 40
1
 40
1
 40
1
 40
1
 10
69.092631
 20
45.575581
 30
0.0
 10
69.296517
 20
45.668478
 30
0.0
 10
69.460926
 20
45.678403
 30
0.0
 10
69.508799
 20
45.600936
 30
0.0
  0
SPLINE
  5
165
100
AcDbEntity
  8
0
 62
7
100
AcDbSpline
 70
8
 71
3
 72
8
 73
4
 74
0
 40
0
 40
0
 40
0
 40
0
 40
1
 40
1
 40
1
 40
1
 10
69.508799
 20
45.600936
 30
0.0
 10
69.552368
 20
45.530440
 30
0.0
 10
69.847519
 20
45.402528
 30
0.0
 10
70.164743
 20
45.316510
 30
0.0
  0
SPLINE
  5
166
100
AcDbEntity
  8
0
 62
7
100
AcDbSpline
 70
8
 71
3
 72
8
 73
4
 74
0
 40
0
 40
0
 40
0
 40
0
 40
1
 40
1
 40
1
 40
1
 10
70.164743
 20
45.316510
 30
0.0
 10
70.773451
 20
45.151449
 30
0.0
 10
71.316466
 20
45.263644
 30
0.0
 10
72.929090
 20
45.888120
 30
0.0
  0
SPLINE
  5
167
100
AcDbEntity
  8
0
 62
7
100
AcDbSpline
 70
8
 71
3
 72
8
 73
4
 74
0
 40
0
 40
0
 40
0
 40
0
 40
1
 40
1
 40
1
 40
1
 10
72.929090
 20
45.888120
 30
0.0
 10
73.524556
 20
46.118707
 30
0.0
 10
73.623540
 20
46.125841
 30
0.0
 10
73.724493
 20
45.945448
 30
0.0
  0
SPLINE
  5
168
100
AcDbEntity
  8
0
 62
7
100
AcDbSpline
 70
8
 71
3
 72
8
 73
4
 74
0
 40
0
 40
0
 40
0
 40
0
 40
1
 40
1
 40
1
 40
1
 10
73.724493
 20
45.945448
 30
0.0
 10
74.116319
 20
45.245294
 30
0.0
 10
75.492568
 20
45.173513
 30
0.0
 10
77.321173
 20
45.757482
 30
0.0
  0
SPLINE
  5
169
100
AcDbEntity
  8
0
 62
7
100
AcDbSpline
 70
8
 71
3
 72
8
 73
4
 74
0
 40
0
 40
0
 40
0
 40
0
 40
1
 40
1
 40
1
 40
1
 10
77.321173
 20
45.757482
 30
0.0
 10
78.079544
 20
45.999668
 30
0.0
 10
78.653959
 20
46.070012
 30
0.0
 10
80.062366
 20
46.093174
 30
0.0
  0
SPLINE
  5
16a
100
AcDbEntity
  8
0
 62
7
100
AcDbSpline
 70
8
 71
3
 72
8
 73
4
 74
0
 40
0
 40
0
 40
0
 40
0
 40
1
 40
1
 40
1
 40
1
 10
80.062366
 20
46.093174
 30
0.0
 10
81.326516
 20
46.113974
 30
0.0
 10
82.183156
 20
46.205662
 30
0.0
 10
83.009715
 20
46.409570
 30
0.0
  0
SPLINE
  5
16b
100
AcDbEntity
  8
0
 62
7
100
AcDbSpline
 70
8
 71
3
 72
8
 73
4
 74
0
 40
0
 40
0
 40
0
 40
0
 40
1
 40
1
 40
1
 40
1
 10
83.009715
 20
46.409570
 30
0.0
 10
83.650526
 20
46.567654
 30
0.0
 10
84.377392
 20
46.697860
 30
0.0
 10
84.624774
 20
46.698408
 30
0.0
  0
SPLINE
  5
16c
100
AcDbEntity
  8
0
 62
7
100
AcDbSpline
 70
8
 71
3
 72
8
 73
4
 74
0
 40
0
 40
0
 40
0
 40
0
 40
1
 40
1
 40
1
 40
1
 10
84.624774
 20
46.698408
 30
0.0
 10
84.897440
 20
46.698972
 30
0.0
 10
85.105009
 20
46.779922
 30
0.0
 10
85.152840
 20
46.904563
 30
0.0
  0
SPLINE
  5
16d
100
AcDbEntity
  8
0
 62
7
100
AcDbSpline
 70
8
 71
3
 72
8
 73
4
 74
0
 40
0
 40
0
 40
0
 40
0
 40
1
 40
1
 40
1
 40
1
 10
85.152840
 20
46.904563
 30
0.0
 10
85.196234
 20
47.017646
 30
0.0
 10
85.319960
 20
47.110165
 30
0.0
 10
85.427343
 20
47.110165
 30
0.0
  0
SPLINE
  5
16e
100
AcDbEntity
  8
0
 62
7
100
AcDbSpline
 70
8
 71
3
 72
8
 73
4
 74
0
 40
0
 40
0
 40
0
 40
0
 40
1
 40
1
 40
1
 40
1
 10
85.427343
 20
47.110165
 30
0.0
 10
85.734813
 20
47.110165
 30
0.0
 10
85.785906
 20
47.446588
 30
0.0
 10
85.560738
 20
47.985494
 30
0.0
  0
SPLINE
  5
16f
100
AcDbEntity
  8
0
 62
7
100
AcDbSpline
 70
8
 71
3
 72
8
 73
4
 74
0
 40
0
 40
0
 40
0
 40
0
 40
1
 40
1
 40
1
 40
1
 10
85.560738
 20
47.985494
 30
0.0
 10
85.334320
 20
48.527391
 30
0.0
 10
85.292531
 20
48.485222
 30
0.0
 10
86.116363
 20
48.532299
 30
0.0
  0
SPLINE
  5
170
100
AcDbEntity
  8
0
 62
7
100
AcDbSpline
 70
8
 71
3
 72
8
 73
4
 74
0
 40
0
 40
0
 40
0
 40
0
 40
1
 40
1
 40
1
 40
1
 10
86.116363
 20
48.532299
 30
0.0
 10
86.279474
 20
48.541613
 30
0.0
 10
86.453049
 20
48.589754
 30
0.0
 10
86.502215
 20
48.638686
 30
0.0
  0
SPLINE
  5
171
100
AcDbEntity
  8
0
 62
7
100
AcDbSpline
 70
8
 71
3
 72
8
 73
4
 74
0
 40
0
 40
0
 40
0
 40
0
 40
1
 40
1
 40
1
 40
1
 10
86.502215
 20
48.638686
 30
0.0
 10
86.643741
 20
48.779543
 30
0.0
 10
86.326667
 20
49.780277
 30
0.0
 10
86.014938
 20
50.176577
 30
0.0
  0
LWPOLYLINE
  5
172
100
AcDbEntity
  8
0
 62
7
100
AcDbPolyline
 90
3
 70
0
 10
38.665548
 20
103.603668
 30
0.0
 10
39.145656
 20
103.181988
 30
0.0
 10
38.940605
 20
102.394300
 30
0.0
  0
SPLINE
  5
173
100
AcDbEntity
  8
0
 62
7
100
AcDbSpline
 70
8
 71
3
 72
8
 73
4
 74
0
 40
0
 40
0
 40
0
 40
0
 40
1
 40
1
 40
1
 40
1
 10
86.014938
 20
50.537070
 30
0.0
 10
86.632034
 20
50.537070
 30
0.0
 10
86.220289
 20
51.339107
 30
0.0
 10
84.956605
 20
52.598616
 30
0.0
  0
SPLINE
  5
174
100
AcDbEntity
  8
0
 62
7
100
AcDbSpline
 70
8
 71
3
 72
8
 73
4
 74
0
 40
0
 40
0
 40
0
 40
0
 40
1
 40
1
 40
1
 40
1
 10
84.956605
 20
52.598616
 30
0.0
 10
83.470104
 20
54.080201
 30
0.0
 10
82.668121
 20
54.660346
 30
0.0
 10
82.138243
 20
54.636458
 30
0.0
  0
SPLINE
  5
175
100
AcDbEntity
  8
0
 62
7
100
AcDbSpline
 70
8
 71
3
 72
8
 73
4
 74
0
 40
0
 40
0
 40
0
 40
0
 40
1
 40
1
 40
1
 40
1
 10
82.138243
 20
54.636458
 30
0.0
 10
81.901377
 20
54.625790
 30
0.0
 10
81.310147
 20
54.723676
 30
0.0
 10
80.824697
 20
54.853637
 30
0.0
  0
SPLINE
  5
176
100
AcDbEntity
  8
0
 62
7
100
AcDbSpline
 70
8
 71
3
 72
8
 73
4
 74
0
 40
0
 40
0
 40
0
 40
0
 40
1
 40
1
 40
1
 40
1
 10
80.824697
 20
54.853637
 30
0.0
 10
79.423483
 20
55.228764
 30
0.0
 10
78.377181
 20
54.966083
 30
0.0
 10
78.548730
 20
54.282577
 30
0.0
  0
SPLINE
  5
177
100
AcDbEntity
  8
0
 62
7
100
AcDbSpline
 70
8
 71
3
 72
8
 73
4
 74
0
 40
0
 40
0
 40
0
 40
0
 40
1
 40
1
 40
1
 40
1
 10
78.548730
 20
54.282577
 30
0.0
 10
78.622152
 20
53.990042
 30
0.0
 10
78.585111
 20
53.963976
 30
0.0
 10
78.095077
 20
53.963976
 30
0.0
  0
SPLINE
  5
178
100
AcDbEntity
  8
0
 62
7
100
AcDbSpline
 70
8
 71
3
 72
8
 73
4
 74
0
 40
0
 40
0
 40
0
 40
0
 40
1
 40
1
 40
1
 40
1
 10
78.095077
 20
53.963976
 30
0.0
 10
77.801560
 20
53.963976
 30
0.0
 10
77.312303
 20
53.876183
 30
0.0
 10
77.008081
 20
53.768845
 30
0.0
  0
SPLINE
  5
179
100
AcDbEntity
  8
0
 62
7
100
AcDbSpline
 70
8
 71
3
 72
8
 73
4
 74
0
 40
0
 40
0
 40
0
 40
0
 40
1
 40
1
 40
1
 40
1
 10
77.008081
 20
53.768845
 30
0.0
 10
76.366489
 20
53.542478
 30
0.0
 10
76.293156
 20
53.583143
 30
0.0
 10
76.293156
 20
54.166270
 30
0.0
  0
SPLINE
  5
17a
100
AcDbEntity
  8
0
 62
7
100
AcDbSpline
 70
8
 71
3
 72
8
 73
4
 74
0
 40
0
 40
0
 40
0
 40
0
 40
1
 40
1
 40
1
 40
1
 10
76.293156
 20
54.166270
 30
0.0
 10
76.293156
 20
54.403244
 30
0.0
 10
76.082663
 20
55.024968
 30
0.0
 10
75.825175
 20
55.548169
 30
0.0
  0
SPLINE
  5
17b
100
AcDbEntity
  8
0
 62
7
100
AcDbSpline
 70
8
 71
3
 72
8
 73
4
 74
0
 40
0
 40
0
 40
0
 40
0
 40
1
 40
1
 40
1
 40
1
 10
75.825175
 20
55.548169
 30
0.0
 10
75.567687
 20
56.071372
 30
0.0
 10
75.231628
 20
57.004794
 30
0.0
 10
75.078277
 20
57.621842
 30
0.0
  0
SPLINE
  5
17c
100
AcDbEntity
  8
0
 62
7
100
AcDbSpline
 70
8
 71
3
 72
8
 73
4
 74
0
 40
0
 40
0
 40
0
 40
0
 40
1
 40
1
 40
1
 40
1
 10
75.078277
 20
57.621842
 30
0.0
 10
74.471485
 20
60.063428
 30
0.0
 10
73.535977
 20
61.814603
 30
0.0
 10
71.907135
 20
63.558979
 30
0.0
  0
SPLINE
  5
17d
100
AcDbEntity
  8
0
 62
7
100
AcDbSpline
 70
8
 71
3
 72
8
 73
4
 74
0
 40
0
 40
0
 40
0
 40
0
 40
1
 40
1
 40
1
 40
1
 10
71.907135
 20
63.558979
 30
0.0
 10
70.331149
 20
65.246747
 30
0.0
 10
69.495599
 20
66.905533
 30
0.0
 10
69.336268
 20
68.662683
 30
0.0
  0
SPLINE
  5
17e
100
AcDbEntity
  8
0
 62
7
100
AcDbSpline
 70
8
 71
3
 72
8
 73
4
 74
0
 40
0
 40
0
 40
0
 40
0
 40
1
 40
1
 40
1
 40
1
 10
69.336268
 20
68.662683
 30
0.0
 10
69.276307
 20
69.323921
 30
0.0
 10
69.299867
 20
69.452575
 30
0.0
 10
69.482341
 20
69.452575
 30
0.0
  0
SPLINE
  5
17f
100
AcDbEntity
  8
0
 62
7
100
AcDbSpline
 70
8
 71
3
 72
8
 73
4
 74
0
 40
0
 40
0
 40
0
 40
0
 40
1
 40
1
 40
1
 40
1
 10
69.482341
 20
69.452575
 30
0.0
 10
69.678863
 20
69.452575
 30
0.0
 10
69.681327
 20
69.517398
 30
0.0
 10
69.503284
 20
70.104110
 30
0.0
  0
SPLINE
  5
180
100
AcDbEntity
  8
0
 62
7
100
AcDbSpline
 70
8
 71
3
 72
8
 73
4
 74
0
 40
0
 40
0
 40
0
 40
0
 40
1
 40
1
 40
1
 40
1
 10
69.503284
 20
70.104110
 30
0.0
 10
69.253224
 20
70.928188
 30
0.0
 10
69.253309
 20
71.034563
 30
0.0
 10
69.507695
 20
70.823447
 30
0.0
  0
SPLINE
  5
181
100
AcDbEntity
  8
0
 62
7
100
AcDbSpline
 70
8
 71
3
 72
8
 73
4
 74
0
 40
0
 40
0
 40
0
 40
0
 40
1
 40
1
 40
1
 40
1
 10
69.507695
 20
70.823447
 30
0.0
 10
69.681344
 20
70.679335
 30
0.0
 10
69.713297
 20
70.707642
 30
0.0
 10
69.713297
 20
71.003693
 30
0.0
  0
SPLINE
  5
182
100
AcDbEntity
  8
0
 62
7
100
AcDbSpline
 70
8
 71
3
 72
8
 73
4
 74
0
 40
0
 40
0
 40
0
 40
0
 40
1
 40
1
 40
1
 40
1
 10
69.713297
 20
71.003693
 30
0.0
 10
69.713297
 20
71.196491
 30
0.0
 10
69.646913
 20
71.527890
 30
0.0
 10
69.565574
 20
71.740118
 30
0.0
  0
SPLINE
  5
183
100
AcDbEntity
  8
0
 62
7
100
AcDbSpline
 70
8
 71
3
 72
8
 73
4
 74
0
 40
0
 40
0
 40
0
 40
0
 40
1
 40
1
 40
1
 40
1
 10
69.565574
 20
71.740118
 30
0.0
 10
69.484237
 20
71.952347
 30
0.0
 10
69.399328
 20
72.464837
 30
0.0
 10
69.376507
 20
72.879481
 30
0.0
  0
SPLINE
  5
184
100
AcDbEntity
  8
0
 62
7
100
AcDbSpline
 70
8
 71
3
 72
8
 73
4
 74
0
 40
0
 40
0
 40
0
 40
0
 40
1
 40
1
 40
1
 40
1
 10
69.376507
 20
72.879481
 30
0.0
 10
69.326179
 20
73.793881
 30
0.0
 10
68.949547
 20
74.944757
 30
0.0
 10
68.075088
 20
76.854843
 30
0.0
  0
SPLINE
  5
185
100
AcDbEntity
  8
0
 62
7
100
AcDbSpline
 70
8
 71
3
 72
8
 73
4
 74
0
 40
0
 40
0
 40
0
 40
0
 40
1
 40
1
 40
1
 40
1
 10
68.075088
 20
76.854843
 30
0.0
 10
67.712689
 20
77.646431
 30
0.0
 10
67.342343
 20
78.694799
 30
0.0
 10
67.252675
 20
79.184830
 30
0.0
  0
SPLINE
  5
186
100
AcDbEntity
  8
0
 62
7
100
AcDbSpline
 70
8
 71
3
 72
8
 73
4
 74
0
 40
0
 40
0
 40
0
 40
0
 40
1
 40
1
 40
1
 40
1
 10
67.252675
 20
79.184830
 30
0.0
 10
67.078598
 20
80.136145
 30
0.0
 10
66.449598
 20
81.422672
 30
0.0
 10
65.610051
 20
82.543385
 30
0.0
  0
SPLINE
  5
187
100
AcDbEntity
  8
0
 62
7
100
AcDbSpline
 70
8
 71
3
 72
8
 73
4
 74
0
 40
0
 40
0
 40
0
 40
0
 40
1
 40
1
 40
1
 40
1
 10
65.610051
 20
82.543385
 30
0.0
 10
65.327674
 20
82.920332
 30
0.0
 10
65.021807
 20
83.455600
 30
0.0
 10
64.930404
 20
83.732909
 30
0.0
  0
SPLINE
  5
188
100
AcDbEntity
  8
0
 62
7
100
AcDbSpline
 70
8
 71
3
 72
8
 73
4
 74
0
 40
0
 40
0
 40
0
 40
0
 40
1
 40
1
 40
1
 40
1
 10
64.930404
 20
83.732909
 30
0.0
 10
64.727046
 20
84.349872
 30
0.0
 10
63.883263
 20
85.667672
 30
0.0
 10
63.283925
 20
86.303776
 30
0.0
  0
SPLINE
  5
189
100
AcDbEntity
  8
0
 62
7
100
AcDbSpline
 70
8
 71
3
 72
8
 73
4
 74
0
 40
0
 40
0
 40
0
 40
0
 40
1
 40
1
 40
1
 40
1
 10
63.283925
 20
86.303776
 30
0.0
 10
62.894170
 20
86.717432
 30
0.0
 10
62.834416
 20
86.882396
 30
0.0
 10
62.790036
 20
87.674097
 30
0.0
  0
SPLINE
  5
18a
100
AcDbEntity
  8
0
 62
7
100
AcDbSpline
 70
8
 71
3
 72
8
 73
4
 74
0
 40
0
 40
0
 40
0
 40
0
 40
1
 40
1
 40
1
 40
1
 10
62.790036
 20
87.674097
 30
0.0
 10
62.710187
 20
89.098360
 30
0.0
 10
62.529943
 20
89.797238
 30
0.0
 10
62.026602
 20
90.635226
 30
0.0
  0
SPLINE
  5
18b
100
AcDbEntity
  8
0
 62
7
100
AcDbSpline
 70
8
 71
3
 72
8
 73
4
 74
0
 40
0
 40
0
 40
0
 40
0
 40
1
 40
1
 40
1
 40
1
 10
62.026602
 20
90.635226
 30
0.0
 10
61.483093
 20
91.540093
 30
0.0
 10
59.313304
 20
93.762189
 30
0.0
 10
58.484493
 20
94.262773
 30
0.0
  0
SPLINE
  5
18c
100
AcDbEntity
  8
0
 62
7
100
AcDbSpline
 70
8
 71
3
 72
8
 73
4
 74
0
 40
0
 40
0
 40
0
 40
0
 40
1
 40
1
 40
1
 40
1
 10
58.484493
 20
94.262773
 30
0.0
 10
58.005066
 20
94.552335
 30
0.0
 10
57.927209
 20
94.661188
 30
0.0
 10
57.982335
 20
94.962816
 30
0.0
  0
SPLINE
  5
18d
100
AcDbEntity
  8
0
 62
7
100
AcDbSpline
 70
8
 71
3
 72
8
 73
4
 74
0
 40
0
 40
0
 40
0
 40
0
 40
1
 40
1
 40
1
 40
1
 10
57.982335
 20
94.962816
 30
0.0
 10
58.018214
 20
95.159141
 30
0.0
 10
57.979163
 20
95.388227
 30
0.0
 10
57.895242
 20
95.472140
 30
0.0
  0
SPLINE
  5
18e
100
AcDbEntity
  8
0
 62
7
100
AcDbSpline
 70
8
 71
3
 72
8
 73
4
 74
0
 40
0
 40
0
 40
0
 40
0
 40
1
 40
1
 40
1
 40
1
 10
57.895242
 20
95.472140
 30
0.0
 10
57.783199
 20
95.584182
 30
0.0
 10
57.803486
 20
95.648069
 30
0.0
 10
57.971312
 20
95.712469
 30
0.0
  0
SPLINE
  5
18f
100
AcDbEntity
  8
0
 62
7
100
AcDbSpline
 70
8
 71
3
 72
8
 73
4
 74
0
 40
0
 40
0
 40
0
 40
0
 40
1
 40
1
 40
1
 40
1
 10
57.971312
 20
95.712469
 30
0.0
 10
58.278914
 20
95.830506
 30
0.0
 10
58.259607
 20
96.007329
 30
0.0
 10
57.927765
 20
96.112652
 30
0.0
  0
SPLINE
  5
190
100
AcDbEntity
  8
0
 62
7
100
AcDbSpline
 70
8
 71
3
 72
8
 73
4
 74
0
 40
0
 40
0
 40
0
 40
0
 40
1
 40
1
 40
1
 40
1
 10
57.927765
 20
96.112652
 30
0.0
 10
57.669738
 20
96.194547
 30
0.0
 10
57.674812
 20
96.216648
 30
0.0
 10
58.025329
 20
96.541497
 30
0.0
  0
SPLINE
  5
191
100
AcDbEntity
  8
0
 62
7
100
AcDbSpline
 70
8
 71
3
 72
8
 73
4
 74
0
 40
0
 40
0
 40
0
 40
0
 40
1
 40
1
 40
1
 40
1
 10
58.025329
 20
96.541497
 30
0.0
 10
58.329604
 20
96.823488
 30
0.0
 10
58.359506
 20
96.905668
 30
0.0
 10
58.195103
 20
97.007274
 30
0.0
  0
SPLINE
  5
192
100
AcDbEntity
  8
0
 62
7
100
AcDbSpline
 70
8
 71
3
 72
8
 73
4
 74
0
 40
0
 40
0
 40
0
 40
0
 40
1
 40
1
 40
1
 40
1
 10
58.195103
 20
97.007274
 30
0.0
 10
58.027178
 20
97.111055
 30
0.0
 10
58.038918
 20
97.163608
 30
0.0
 10
58.268966
 20
97.337451
 30
0.0
  0
SPLINE
  5
193
100
AcDbEntity
  8
0
 62
7
100
AcDbSpline
 70
8
 71
3
 72
8
 73
4
 74
0
 40
0
 40
0
 40
0
 40
0
 40
1
 40
1
 40
1
 40
1
 10
58.268966
 20
97.337451
 30
0.0
 10
58.419376
 20
97.451116
 30
0.0
 10
58.634890
 20
97.549389
 30
0.0
 10
58.747973
 20
97.555733
 30
0.0
  0
SPLINE
  5
194
100
AcDbEntity
  8
0
 62
7
100
AcDbSpline
 70
8
 71
3
 72
8
 73
4
 74
0
 40
0
 40
0
 40
0
 40
0
 40
1
 40
1
 40
1
 40
1
 10
58.747973
 20
97.555733
 30
0.0
 10
58.892592
 20
97.563861
 30
0.0
 10
58.861827
 20
97.630962
 30
0.0
 10
58.644897
 20
97.782284
 30
0.0
  0
SPLINE
  5
195
100
AcDbEntity
  8
0
 62
7
100
AcDbSpline
 70
8
 71
3
 72
8
 73
4
 74
0
 40
0
 40
0
 40
0
 40
0
 40
1
 40
1
 40
1
 40
1
 10
58.644897
 20
97.782284
 30
0.0
 10
58.240755
 20
98.064199
 30
0.0
 10
58.253737
 20
98.238138
 30
0.0
 10
58.679072
 20
98.238138
 30
0.0
  0
SPLINE
  5
196
100
AcDbEntity
  8
0
 62
7
100
AcDbSpline
 70
8
 71
3
 72
8
 73
4
 74
0
 40
0
 40
0
 40
0
 40
0
 40
1
 40
1
 40
1
 40
1
 10
58.679072
 20
98.238138
 30
0.0
 10
59.113087
 20
98.238138
 30
0.0
 10
59.109613
 20
98.336896
 30
0.0
 10
58.659228
 20
98.806993
 30
0.0
  0
LWPOLYLINE
  5
197
100
AcDbEntity
  8
0
 62
7
100
AcDbPolyline
 90
3
 70
0
 10
86.014938
 20
50.176577
 30
0.0
 10
85.731062
 20
50.537070
 30
0.0
 10
86.014938
 20
50.537070
 30
0.0
  0
SPLINE
  5
198
100
AcDbEntity
  8
0
 62
7
100
AcDbSpline
 70
8
 71
3
 72
8
 73
4
 74
0
 40
0
 40
0
 40
0
 40
0
 40
1
 40
1
 40
1
 40
1
 10
58.659228
 20
99.350491
 30
0.0
 10
59.095098
 20
99.549088
 30
0.0
 10
59.120495
 20
99.696160
 30
0.0
 10
58.738603
 20
99.817369
 30
0.0
  0
SPLINE
  5
199
100
AcDbEntity
  8
0
 62
7
100
AcDbSpline
 70
8
 71
3
 72
8
 73
4
 74
0
 40
0
 40
0
 40
0
 40
0
 40
1
 40
1
 40
1
 40
1
 10
58.738603
 20
99.817369
 30
0.0
 10
58.582568
 20
99.866890
 30
0.0
 10
58.243927
 20
100.236881
 30
0.0
 10
57.986193
 20
100.639784
 30
0.0
  0
SPLINE
  5
19a
100
AcDbEntity
  8
0
 62
7
100
AcDbSpline
 70
8
 71
3
 72
8
 73
4
 74
0
 40
0
 40
0
 40
0
 40
0
 40
1
 40
1
 40
1
 40
1
 10
57.986193
 20
100.639784
 30
0.0
 10
57.728460
 20
101.042687
 30
0.0
 10
57.455020
 20
101.411205
 30
0.0
 10
57.378755
 20
101.458339
 30
0.0
  0
SPLINE
  5
19b
100
AcDbEntity
  8
0
 62
7
100
AcDbSpline
 70
8
 71
3
 72
8
 73
4
 74
0
 40
0
 40
0
 40
0
 40
0
 40
1
 40
1
 40
1
 40
1
 10
57.378755
 20
101.458339
 30
0.0
 10
57.151815
 20
101.598597
 30
0.0
 10
57.220922
 20
101.801744
 30
0.0
 10
57.495612
 20
101.801744
 30
0.0
  0
SPLINE
  5
19c
100
AcDbEntity
  8
0
 62
7
100
AcDbSpline
 70
8
 71
3
 72
8
 73
4
 74
0
 40
0
 40
0
 40
0
 40
0
 40
1
 40
1
 40
1
 40
1
 10
57.495612
 20
101.801744
 30
0.0
 10
57.957689
 20
101.801744
 30
0.0
 10
58.427146
 20
102.323688
 30
0.0
 10
58.741908
 20
103.186950
 30
0.0
  0
SPLINE
  5
19d
100
AcDbEntity
  8
0
 62
7
100
AcDbSpline
 70
8
 71
3
 72
8
 73
4
 74
0
 40
0
 40
0
 40
0
 40
0
 40
1
 40
1
 40
1
 40
1
 10
58.741908
 20
103.186950
 30
0.0
 10
58.912229
 20
103.654075
 30
0.0
 10
59.269616
 20
104.376748
 30
0.0
 10
59.535658
 20
104.792639
 30
0.0
  0
SPLINE
  5
19e
100
AcDbEntity
  8
0
 62
7
100
AcDbSpline
 70
8
 71
3
 72
8
 73
4
 74
0
 40
0
 40
0
 40
0
 40
0
 40
1
 40
1
 40
1
 40
1
 10
59.535658
 20
104.792639
 30
0.0
 10
60.174841
 20
105.791844
 30
0.0
 10
61.535496
 20
108.636635
 30
0.0
 10
61.899269
 20
109.734285
 30
0.0
  0
SPLINE
  5
19f
100
AcDbEntity
  8
0
 62
7
100
AcDbSpline
 70
8
 71
3
 72
8
 73
4
 74
0
 40
0
 40
0
 40
0
 40
0
 40
1
 40
1
 40
1
 40
1
 10
61.899269
 20
109.734285
 30
0.0
 10
62.245773
 20
110.779811
 30
0.0
 10
62.519368
 20
112.741614
 30
0.0
 10
62.390404
 20
113.255448
 30
0.0
  0
SPLINE
  5
1a0
100
AcDbEntity
  8
0
 62
7
100
AcDbSpline
 70
8
 71
3
 72
8
 73
4
 74
0
 40
0
 40
0
 40
0
 40
0
 40
1
 40
1
 40
1
 40
1
 10
62.390404
 20
113.255448
 30
0.0
 10
62.307213
 20
113.586912
 30
0.0
 10
62.250645
 20
113.616060
 30
0.0
 10
61.828714
 20
113.547590
 30
0.0
  0
SPLINE
  5
1a1
100
AcDbEntity
  8
0
 62
7
100
AcDbSpline
 70
8
 71
3
 72
8
 73
4
 74
0
 40
0
 40
0
 40
0
 40
0
 40
1
 40
1
 40
1
 40
1
 10
61.828714
 20
113.547590
 30
0.0
 10
61.319314
 20
113.464924
 30
0.0
 10
60.405812
 20
112.891460
 30
0.0
 10
59.433133
 20
112.043326
 30
0.0
  0
SPLINE
  5
1a2
100
AcDbEntity
  8
0
 62
7
100
AcDbSpline
 70
8
 71
3
 72
8
 73
4
 74
0
 40
0
 40
0
 40
0
 40
0
 40
1
 40
1
 40
1
 40
1
 10
59.433133
 20
112.043326
 30
0.0
 10
58.659807
 20
111.369018
 30
0.0
 10
57.604302
 20
110.831071
 30
0.0
 10
56.281836
 20
110.437634
 30
0.0
  0
SPLINE
  5
1a3
100
AcDbEntity
  8
0
 62
7
100
AcDbSpline
 70
8
 71
3
 72
8
 73
4
 74
0
 40
0
 40
0
 40
0
 40
0
 40
1
 40
1
 40
1
 40
1
 10
56.281836
 20
110.437634
 30
0.0
 10
55.517102
 20
110.210123
 30
0.0
 10
55.141808
 20
110.011659
 30
0.0
 10
54.808989
 20
109.658768
 30
0.0
  0
LWPOLYLINE
  5
1a4
100
AcDbEntity
  8
0
 62
7
100
AcDbPolyline
 90
3
 70
0
 10
58.659228
 20
98.806993
 30
0.0
 10
58.297078
 20
99.185126
 30
0.0
 10
58.659228
 20
99.350491
 30
0.0
  0
SPLINE
  5
1a5
100
AcDbEntity
  8
0
 62
7
100
AcDbSpline
 70
8
 71
3
 72
8
 73
4
 74
0
 40
0
 40
0
 40
0
 40
0
 40
1
 40
1
 40
1
 40
1
 10
53.967834
 20
109.465291
 30
0.0
 10
53.261556
 20
109.968205
 30
0.0
 10
51.569947
 20
110.711590
 30
0.0
 10
51.131281
 20
110.711590
 30
0.0
  0
SPLINE
  5
1a6
100
AcDbEntity
  8
0
 62
7
100
AcDbSpline
 70
8
 71
3
 72
8
 73
4
 74
0
 40
0
 40
0
 40
0
 40
0
 40
1
 40
1
 40
1
 40
1
 10
51.131281
 20
110.711590
 30
0.0
 10
50.895721
 20
110.711590
 30
0.0
 10
50.504059
 20
110.810497
 30
0.0
 10
50.261464
 20
110.931523
 30
0.0
  0
SPLINE
  5
1a7
100
AcDbEntity
  8
0
 62
7
100
AcDbSpline
 70
8
 71
3
 72
8
 73
4
 74
0
 40
0
 40
0
 40
0
 40
0
 40
1
 40
1
 40
1
 40
1
 10
50.261464
 20
110.931523
 30
0.0
 10
49.929756
 20
111.097001
 30
0.0
 10
49.695501
 20
111.122020
 30
0.0
 10
49.315576
 20
111.031294
 30
0.0
  0
SPLINE
  5
1a8
100
AcDbEntity
  8
0
 62
7
100
AcDbSpline
 70
8
 71
3
 72
8
 73
4
 74
0
 40
0
 40
0
 40
0
 40
0
 40
1
 40
1
 40
1
 40
1
 10
49.315576
 20
111.031294
 30
0.0
 10
48.721780
 20
110.889497
 30
0.0
 10
46.918657
 20
110.900532
 30
0.0
 10
46.375396
 20
111.049483
 30
0.0
  0
SPLINE
  5
1a9
100
AcDbEntity
  8
0
 62
7
100
AcDbSpline
 70
8
 71
3
 72
8
 73
4
 74
0
 40
0
 40
0
 40
0
 40
0
 40
1
 40
1
 40
1
 40
1
 10
46.375396
 20
111.049483
 30
0.0
 10
46.160476
 20
111.108417
 30
0.0
 10
45.923158
 20
111.094455
 30
0.0
 10
45.826937
 20
111.016963
 30
0.0
  0
SPLINE
  5
1aa
100
AcDbEntity
  8
0
 62
7
100
AcDbSpline
 70
8
 71
3
 72
8
 73
4
 74
0
 40
0
 40
0
 40
0
 40
0
 40
1
 40
1
 40
1
 40
1
 10
45.826937
 20
111.016963
 30
0.0
 10
45.733676
 20
110.941860
 30
0.0
 10
45.461507
 20
110.838350
 30
0.0
 10
45.221703
 20
110.787104
 30
0.0
  0
SPLINE
  5
1ab
100
AcDbEntity
  8
0
 62
7
100
AcDbSpline
 70
8
 71
3
 72
8
 73
4
 74
0
 40
0
 40
0
 40
0
 40
0
 40
1
 40
1
 40
1
 40
1
 10
45.221703
 20
110.787104
 30
0.0
 10
44.981896
 20
110.735858
 30
0.0
 10
44.713559
 20
110.606837
 30
0.0
 10
44.625285
 20
110.500473
 30
0.0
  0
SPLINE
  5
1ac
100
AcDbEntity
  8
0
 62
7
100
AcDbSpline
 70
8
 71
3
 72
8
 73
4
 74
0
 40
0
 40
0
 40
0
 40
0
 40
1
 40
1
 40
1
 40
1
 10
44.625285
 20
110.500473
 30
0.0
 10
44.537012
 20
110.394112
 30
0.0
 10
44.050577
 20
110.173855
 30
0.0
 10
43.544905
 20
110.010993
 30
0.0
  0
LWPOLYLINE
  5
1ad
100
AcDbEntity
  8
0
 62
7
100
AcDbPolyline
 90
3
 70
0
 10
54.808989
 20
109.658768
 30
0.0
 10
54.361952
 20
109.184722
 30
0.0
 10
53.967834
 20
109.465291
 30
0.0
  0
SPLINE
  5
1ae
100
AcDbEntity
  8
0
 62
7
100
AcDbSpline
 70
8
 71
3
 72
8
 73
4
 74
0
 40
0
 40
0
 40
0
 40
0
 40
1
 40
1
 40
1
 40
1
 10
41.948585
 20
110.197855
 30
0.0
 10
41.576106
 20
110.463443
 30
0.0
 10
40.654165
 20
110.988963
 30
0.0
 10
39.900270
 20
111.365882
 30
0.0
  0
SPLINE
  5
1af
100
AcDbEntity
  8
0
 62
7
100
AcDbSpline
 70
8
 71
3
 72
8
 73
4
 74
0
 40
0
 40
0
 40
0
 40
0
 40
1
 40
1
 40
1
 40
1
 10
39.900270
 20
111.365882
 30
0.0
 10
38.777331
 20
111.927313
 30
0.0
 10
38.312321
 20
112.264071
 30
0.0
 10
37.327747
 20
113.227335
 30
0.0
  0
SPLINE
  5
1b0
100
AcDbEntity
  8
0
 62
7
100
AcDbSpline
 70
8
 71
3
 72
8
 73
4
 74
0
 40
0
 40
0
 40
0
 40
0
 40
1
 40
1
 40
1
 40
1
 10
37.327747
 20
113.227335
 30
0.0
 10
36.295894
 20
114.236856
 30
0.0
 10
35.574546
 20
114.708980
 30
0.0
 10
35.084853
 20
114.685851
 30
0.0
  0
LWPOLYLINE
  5
1b1
100
AcDbEntity
  8
0
 62
7
100
AcDbPolyline
 90
3
 70
0
 10
43.544905
 20
110.010993
 30
0.0
 10
42.626029
 20
109.714992
 30
0.0
 10
41.948585
 20
110.197855
 30
0.0
  0
LWPOLYLINE
  5
1b2
100
AcDbEntity
  8
0
 62
7
100
AcDbPolyline
 90
2
 70
0
 10
35.084853
 20
114.685851
 30
0.0
 10
35.084853
 20
114.685851
 30
0.0
  0
ENDSEC
  0
SECTION
  2
OBJECTS
  0
DICTIONARY
  5
C
330
0
100
AcDbDictionary
  3
ACAD_GROUP
350
D
  3
ACAD_MLINESTYLE
350
17
  0
DICTIONARY
  5
D
330
C
100
AcDbDictionary
  0
DICTIONARY
  5
1A
330
C
100
AcDbDictionary
  0
DICTIONARY
  5
17
330
C
100
AcDbDictionary
  3
STANDARD
350
18
  0
DICTIONARY
  5
19
330
C
100
AcDbDictionary
  0
ENDSEC
  0
EOF
