<?xml version="1.0" encoding="UTF-8" standalone="no"?>
<!-- Created with Inkscape (http://www.inkscape.org/) -->

<svg
   xmlns:dc="http://purl.org/dc/elements/1.1/"
   xmlns:cc="http://creativecommons.org/ns#"
   xmlns:rdf="http://www.w3.org/1999/02/22-rdf-syntax-ns#"
   xmlns:svg="http://www.w3.org/2000/svg"
   xmlns="http://www.w3.org/2000/svg"
   xmlns:sodipodi="http://sodipodi.sourceforge.net/DTD/sodipodi-0.dtd"
   xmlns:inkscape="http://www.inkscape.org/namespaces/inkscape"
   id="svg4842"
   version="1.1"
   inkscape:version="0.91 r13725"
   width="1105.9373"
   height="728.28552"
   viewBox="0 0 1105.9373 728.28552"
   sodipodi:docname="decoration-d-interieur-pochoir-caisse-de-vin-margaux-est-6494767-302-margaux-png-934d4_big.svg">
  <metadata
     id="metadata4848">
    <rdf:RDF>
      <cc:Work
         rdf:about="">
        <dc:format>image/svg+xml</dc:format>
        <dc:type
           rdf:resource="http://purl.org/dc/dcmitype/StillImage" />
        <dc:title></dc:title>
      </cc:Work>
    </rdf:RDF>
  </metadata>
  <defs
     id="defs4846" />
  <sodipodi:namedview
     pagecolor="#ffffff"
     bordercolor="#666666"
     borderopacity="1"
     objecttolerance="10"
     gridtolerance="10"
     guidetolerance="10"
     inkscape:pageopacity="0"
     inkscape:pageshadow="2"
     inkscape:window-width="1440"
     inkscape:window-height="837"
     id="namedview4844"
     showgrid="false"
     inkscape:zoom="0.5551852"
     inkscape:cx="407.96196"
     inkscape:cy="516.79691"
     inkscape:window-x="-4"
     inkscape:window-y="-4"
     inkscape:window-maximized="1"
     inkscape:current-layer="svg4842" />
  <path
     id="path5392"
     style="fill:#000000"
     d="m 439.30448,152.56326 c -0.7944,-0.85943 -2.57347,-3.25187 -3.9535,-5.31656 -1.38003,-2.06469 -3.17797,-4.19221 -3.99542,-4.72783 -2.35138,-1.54068 -6.12722,-1.65772 -10.36329,-0.32124 -3.92084,1.23703 -4.04102,1.20016 -4.43606,-1.36101 -0.15829,-1.02623 1.01739,-1.45766 10.32838,-3.79009 5.77885,-1.44763 10.90293,-2.68267 11.38684,-2.74456 0.65816,-0.0841 1.34894,1.92978 2.74158,7.9929 1.02395,4.45797 2.04384,8.8174 2.26641,9.68762 0.345,1.3489 0.18824,1.62361 -1.06295,1.86279 -1.04384,0.19954 -1.88471,-0.17065 -2.91199,-1.28202 z m 238.84763,11.83761 c -6.52527,-0.74562 -6.38748,-0.67388 -5.60504,-2.91838 0.58683,-1.68346 0.85227,-1.84711 2.52991,-1.55994 1.03089,0.17646 3.42786,0.50134 5.32663,0.72196 2.77799,0.32278 3.4523,0.61257 3.4523,1.48364 0,0.59539 0.16397,1.50988 0.36444,2.03222 0.22732,0.59242 0.0582,0.91954 -0.4503,0.86952 -0.44813,-0.0441 -2.97618,-0.32715 -5.61794,-0.62902 z M 391.1594,163.75918 c -6.52998,-9.20785 -7.84945,-10.29469 -12.37308,-10.19165 -2.15152,0.049 -2.95982,-0.16461 -3.02582,-0.79969 -0.0495,-0.47661 -0.11708,-1.17047 -0.1501,-1.54191 -0.0481,-0.54118 5.63716,-2.89625 12.33351,-5.10904 0.80977,-0.26759 1.4803,1.2295 3.75251,8.3782 1.5216,4.7872 2.76655,8.96998 2.76655,9.29506 0,0.4939 -1.32827,1.31993 -2.12247,1.31993 -0.12269,0 -0.65418,-0.60791 -1.1811,-1.3509 z m 78.954,3.79296 c 0,-1.97001 0.35586,-2.1506 5.40361,-2.74226 1.81621,-0.21289 3.72988,-0.50649 4.2526,-0.65246 0.84776,-0.23673 2.3518,1.85734 2.3518,3.27439 0,0.38385 -9.01452,1.88107 -11.32555,1.88107 -0.37535,0 -0.68246,-0.79234 -0.68246,-1.76074 z m -47.64896,-0.8714 c -0.50414,-2.00136 -0.8052,-3.75025 -0.66903,-3.88642 0.13617,-0.13617 2.80716,-0.85118 5.93553,-1.58889 l 5.68793,-1.3413 0.82416,3.67367 c 0.45328,2.02052 0.75662,3.76888 0.67407,3.88524 -0.0825,0.11635 -2.71193,0.81567 -5.84307,1.55404 l -5.69297,1.34249 -0.91662,-3.63883 z m 387.98262,5.22747 c -1.20243,-0.31443 -1.53247,-1.53675 -1.99766,-7.39853 -0.72786,-9.17227 -1.66971,-11.53456 -5.39988,-13.54336 -1.44024,-0.77561 -2.11557,-1.56358 -2.11557,-2.46835 0,-2.98203 2.1564,-2.49655 7.3208,1.64815 3.85343,3.09257 4.6097,3.39373 5.72398,2.27943 0.83792,-0.83794 3.77502,-0.18044 3.74368,0.83806 -0.0552,1.78922 -5.18194,18.67743 -5.70273,18.78498 -0.31827,0.0657 -1.02596,0.002 -1.57262,-0.14038 z m -219.80329,5.93041 c -2.93051,-0.15285 -3.45231,-0.35278 -3.45231,-1.3228 0,-0.77563 0.86079,-1.52351 2.67941,-2.32797 1.80608,-0.79892 2.77825,-1.63977 2.98267,-2.5798 0.43259,-1.98921 0.82473,-10.50345 1.3017,-28.26248 0.22837,-8.50317 0.60589,-15.46031 0.83893,-15.46031 0.23304,0 1.30843,0.30842 2.38975,0.68536 l 1.96604,0.68537 -0.3955,14.77494 c -0.21752,8.12622 -0.54081,17.34166 -0.71841,20.47875 -0.40124,7.08726 0.15372,8.75514 3.36142,10.10236 1.81418,0.76194 2.39447,1.34352 2.3991,2.40443 0.007,1.51535 -0.025,1.51729 -13.3528,0.82215 z m -242.41162,-8.01273 c -3.41373,-10.7217 -3.29721,-10.11941 -1.95785,-10.11941 0.6227,0 3.54319,-0.81498 6.48997,-1.81105 2.94678,-0.99607 5.66177,-1.69439 6.03332,-1.55181 0.37155,0.14257 0.82016,0.81226 0.99692,1.4882 0.24308,0.92951 -0.16474,1.51578 -1.6737,2.40609 -3.4403,2.02983 -4.13538,3.74348 -4.39385,10.83264 -0.21941,6.01793 -0.58388,7.22064 -2.19261,7.23549 -0.33022,0.003 -1.81621,-3.81303 -3.3022,-8.48015 z m 266.87793,8.53269 c -0.97438,-0.41475 -2.09687,-3.72151 -5.953,-17.53692 -2.6137,-9.36419 -5.85704,-20.91274 -7.20741,-25.66346 l -2.45522,-8.63766 -5.10079,-2.23522 c -3.98244,-1.74516 -5.14471,-2.53114 -5.3011,-3.58489 l -0.2003,-1.34965 9.32441,0.23257 c 5.12843,0.12792 9.43062,0.35956 9.56042,0.51474 0.12981,0.1552 3.38093,11.52569 7.22471,25.26777 l 6.98871,24.9856 -1.39065,4.13381 c -1.47018,4.37023 -2.54341,5.12743 -5.48978,3.87331 z m 35.07094,1.50891 c -0.13893,-0.13893 -4.13634,-0.32592 -8.88322,-0.41554 -10.96578,-0.20703 -12.07831,-0.37039 -12.07831,-1.77351 0,-0.73179 0.91182,-1.50791 2.7018,-2.2997 1.48599,-0.65733 2.73628,-1.54805 2.77842,-1.9794 0.0421,-0.43134 0.14401,-1.45971 0.22636,-2.28526 0.0824,-0.82555 0.32301,-7.98532 0.53479,-15.91061 0.21178,-7.92528 0.54443,-17.38158 0.73923,-21.01401 0.19479,-3.63242 0.21589,-6.46931 0.0469,-6.3042 -0.16901,0.16511 -2.92882,8.27052 -6.13291,18.01201 -3.20408,9.74149 -6.03301,17.93447 -6.28651,18.20661 -0.2535,0.27214 -0.85045,-1.07876 -1.32658,-3.002 l -0.86568,-3.49681 6.10329,-18.3122 6.10328,-18.31221 9.2465,0.20332 c 5.08557,0.11182 9.33875,0.2941 9.45144,0.40505 0.71304,0.70194 -0.82843,2.66943 -2.35387,3.00448 -3.05513,0.67102 -3.39832,1.94946 -3.78468,14.09896 -0.19423,6.10907 -0.52715,16.4412 -0.73975,22.96029 -0.42587,13.05755 -0.40557,13.14981 3.22109,14.66578 1.45963,0.61014 1.9513,1.19183 1.9513,2.3086 0,1.4642 -0.14794,1.74527 -0.65288,1.24035 z m -111.62198,-0.34781 c 0,-1.46374 0.25309,-1.80366 1.3509,-1.81438 2.21219,-0.0216 6.18558,-2.12566 7.49626,-3.96955 2.09978,-2.95403 2.48339,-5.60457 1.91643,-13.24131 -2.08079,-28.02715 -2.50959,-32.38793 -3.30755,-33.63631 -0.46664,-0.73002 -1.92988,-1.61853 -3.25164,-1.97444 -1.94336,-0.52329 -2.4032,-0.91857 -2.4032,-2.06575 0,-1.38873 0.14864,-1.4268 7.0547,-1.80658 3.88009,-0.21338 7.63444,-0.50829 8.34301,-0.65536 0.80654,-0.1674 1.4247,0.088 1.65305,0.68311 0.49736,1.29613 0.063,1.84304 -2.38722,3.00575 -3.41608,1.62103 -3.46509,1.96351 -2.38375,16.65884 0.53822,7.31444 1.10967,14.27258 1.26988,15.46255 0.16022,1.18996 0.33103,4.70231 0.3796,7.8052 0.10383,6.63388 -1.02963,9.91108 -4.47371,12.93499 -2.17026,1.90548 -7.89839,4.41445 -10.07848,4.41445 -0.90894,0 -1.17828,-0.41175 -1.17828,-1.80121 z m 121.3663,1.46185 c -8.13609,-0.93375 -8.48756,-1.04534 -8.08926,-2.56849 0.20636,-0.78898 1.1607,-1.39466 2.87952,-1.82746 1.53241,-0.38586 2.91489,-1.19727 3.42253,-2.00873 0.46837,-0.74875 4.86126,-10.00713 9.76196,-20.57418 4.90071,-10.56704 8.97401,-19.28976 9.05176,-19.38382 0.0778,-0.0941 0.54036,1.41293 1.028,3.34884 0.84104,3.33891 0.82141,3.65635 -0.38281,6.17502 -7.87317,16.46751 -13.13994,28.64448 -13.1926,30.50163 -0.057,2.01641 0.1408,2.27026 2.73759,3.5114 2.25678,1.07865 2.73758,1.57304 2.48163,2.5517 -0.36084,1.38001 -0.12116,1.37323 -9.69832,0.27409 z m -134.27491,0.36762 c -5.6776,-1.416 -9.85613,-4.92803 -11.36119,-9.54903 -0.80867,-2.48283 -1.45824,-8.46735 -2.48575,-22.90085 -0.92351,-12.97273 -1.53038,-18.81675 -2.05601,-19.79891 -0.32084,-0.59948 -1.60207,-1.32982 -2.8472,-1.62298 -1.67361,-0.39404 -2.31389,-0.87998 -2.45572,-1.86377 -0.10552,-0.73191 0.0296,-1.33167 0.3002,-1.3328 0.63525,-0.002 13.26544,-1.08599 17.75357,-1.52279 3.3259,-0.32368 3.4523,-0.28391 3.4523,1.08648 0,1.02838 -0.54058,1.66039 -1.9513,2.28131 -2.95351,1.29997 -3.41385,2.90894 -2.82238,9.86486 0.28079,3.3022 0.65809,8.03035 0.83843,10.507 1.31332,18.03487 1.68544,22.16381 2.16636,24.03709 0.7464,2.90741 4.0372,5.91283 7.82714,7.14834 2.64506,0.86227 3.19458,1.29124 3.37442,2.6341 l 0.21481,1.60409 -4.07324,-0.0615 c -2.24028,-0.0338 -4.88378,-0.26361 -5.87444,-0.51068 z m -39.32622,2.92543 c 0,-0.89675 0.66772,-1.51138 2.36712,-2.17892 1.30191,-0.51141 2.50965,-1.30127 2.68386,-1.75526 0.17421,-0.45399 -0.71157,-2.78318 -1.96841,-5.17598 -17.85062,-33.98447 -20.95584,-39.47395 -22.32911,-39.47395 -1.39811,0 -2.29191,-1.62533 -1.97398,-3.58956 0.30825,-1.90445 0.39444,-1.96821 4.85987,-3.59527 2.9267,-1.06639 3.93976,-1.21219 4.60228,-0.66235 0.46723,0.38777 3.88953,6.29718 7.60511,13.13201 3.71558,6.83484 7.20046,13.23751 7.74417,14.22817 0.54371,0.99066 3.52654,6.48229 6.62852,12.20361 3.10198,5.72133 6.19185,10.69903 6.86637,11.06156 0.67453,0.36254 2.03695,0.82489 3.02761,1.02744 1.23813,0.25314 1.85978,0.77293 1.98858,1.66274 0.21201,1.4647 0.8533,1.28927 -11.59498,3.17179 -10.01107,1.51394 -10.50701,1.5113 -10.50701,-0.056 z m 217.04471,1.55627 c -0.33022,-0.10914 -4.85574,-0.66291 -10.0567,-1.2306 -9.25956,-1.0107 -9.45631,-1.0618 -9.45631,-2.45597 0,-1.1083 0.32392,-1.4238 1.46192,-1.4238 2.6232,0 4.54118,-1.06838 4.55415,-2.53684 0.0114,-1.27616 -3.06822,-14.87749 -8.46558,-37.38977 -1.97076,-8.22002 -2.53351,-9.79104 -3.8996,-10.88573 -1.48401,-1.1892 -1.54753,-1.42756 -0.90186,-3.38401 0.69304,-2.09995 0.70487,-2.10565 5.23657,-2.53031 2.49916,-0.23419 4.78177,-0.18576 5.07524,0.1077 0.2933,0.29331 3.37984,12.27449 6.85903,26.62483 3.47914,14.35035 6.60681,26.96285 6.95036,28.0278 0.4153,1.28747 1.41532,2.3807 2.98459,3.26266 3.46443,1.94713 3.19245,4.98214 -0.34181,3.81404 z m 14.11715,2.48498 c -8.35043,-1.59993 -9.93278,-2.07279 -10.11578,-3.02293 -0.26286,-1.36473 0.84032,-2.14927 3.03946,-2.16162 1.06433,-0.006 1.97154,-0.51935 2.59247,-1.46695 0.80712,-1.23183 8.32257,-38.90255 8.69284,-43.57226 0.26447,-3.33601 -0.0438,-4.12326 -2.11533,-5.40361 -2.20251,-1.36124 -2.89105,-3.6024 -1.10666,-3.6024 0.92149,0 14.76072,2.44538 15.04147,2.65782 0.069,0.0523 -2.03488,11.56536 -4.67544,25.58464 -2.64056,14.01927 -4.72347,26.0308 -4.62861,26.69228 0.0973,0.67845 1.161,1.7261 2.44027,2.40349 1.5877,0.84064 2.21794,1.54685 2.1014,2.35457 -0.0915,0.63457 -0.43661,1.21673 -0.76683,1.29368 -0.33022,0.0769 -5.05489,-0.71358 -10.49926,-1.75671 z M 454.503,189.10584 c 0,-0.76076 0.798,-1.69188 2.11691,-2.47006 1.16431,-0.68696 2.36968,-1.72131 2.67862,-2.29856 0.30893,-0.57724 1.64661,-7.2334 2.97262,-14.79144 1.32601,-7.55805 3.04388,-17.25425 3.8175,-21.54711 l 1.40658,-7.8052 1.32154,2.1014 c 0.72684,1.15577 1.48654,2.73412 1.68822,3.50746 0.20167,0.77333 -0.80631,8.0682 -2.23997,16.21081 -3.88607,22.07129 -3.84028,22.91015 1.25041,22.91015 1.81901,0 2.40343,0.26834 2.71374,1.24604 0.21751,0.68533 0.2354,1.40613 0.0397,1.60179 -0.38132,0.38131 -14.16477,2.5143 -16.41501,2.54021 -0.9632,0.0111 -1.3509,-0.33488 -1.3509,-1.20549 z m 289.64222,4.57044 c -2.3218,-1.01091 -4.27815,-3.45908 -5.01814,-6.27967 -0.31359,-1.19522 -0.83618,-5.58196 -1.16142,-9.74831 -0.66794,-8.55819 -1.54236,-11.22148 -4.60513,-14.02688 -1.67877,-1.5377 -2.05817,-2.26396 -1.77406,-3.39593 0.34571,-1.37734 0.54931,-1.43134 4.68432,-1.24251 5.83085,0.26628 9.10646,-1.32864 11.13749,-5.42302 1.70706,-3.44125 1.91378,-8.91938 0.44376,-11.76198 -1.29879,-2.51164 -4.68853,-4.71579 -8.59786,-5.59064 -2.3496,-0.52583 -3.12664,-0.94757 -2.88864,-1.5678 0.1791,-0.46667 0.3256,-1.12725 0.3256,-1.46795 0,-1.33557 9.81648,1.1164 15.01,3.74922 2.58208,1.30898 5.78078,4.40166 7.00895,6.77669 1.17445,2.27108 1.11795,7.47221 -0.11311,10.41932 -2.1549,5.15861 -7.61338,8.56207 -13.80044,8.60481 l -3.6024,0.0249 1.67235,1.24732 c 2.5131,1.87445 3.7411,4.84831 5.41921,13.12424 2.37411,11.70807 3.21251,13.11164 6.28686,10.52477 2.07798,-1.7485 2.86174,-1.88979 3.35485,-0.60474 0.41818,1.08978 -3.26047,5.3678 -5.70104,6.62985 -2.06808,1.06943 -5.6356,1.07311 -8.08115,0.008 z m -315.17842,1.39337 c -0.52906,-1.66692 -0.10019,-1.96271 4.65063,-3.20765 8.31812,-2.17975 11.34506,-5.59516 11.73666,-13.24292 0.28127,-5.4932 1.06335,-7.505 2.91755,-7.505 0.78548,0 1.42816,0.166 1.42816,0.36889 0,0.20289 0.97033,4.5461 2.1563,9.65157 1.18597,5.10547 1.99729,9.4417 1.80293,9.63604 -0.36324,0.36325 -22.30788,5.52613 -23.58188,5.54808 -0.39053,0.007 -0.89018,-0.55533 -1.11035,-1.24901 z m -18.56857,5.58876 c -0.83029,-0.83029 -0.1701,-2.59711 1.32625,-3.54931 2.14259,-1.36343 2.53138,-1.9507 2.54251,-3.84048 0.0147,-2.49436 -9.60802,-43.32869 -10.56187,-44.81965 -0.55711,-0.87084 -1.45861,-1.3509 -2.53683,-1.3509 -2.07572,0 -4.00801,-1.34198 -3.57123,-2.48022 0.31833,-0.82953 14.72465,-4.47758 15.32225,-3.87999 0.15126,0.15127 3.09098,12.51894 6.53271,27.48373 3.44173,14.96479 6.39399,27.64633 6.56057,28.18122 0.21548,0.69185 -0.17814,1.07189 -1.36386,1.31681 -0.91671,0.18936 -4.425,1.00115 -7.7962,1.80397 -3.3712,0.80282 -6.27563,1.31349 -6.4543,1.13482 z m 426.42327,0.85998 c -2.5517,-1.07697 -4.79942,-2.11807 -4.99491,-2.31354 -0.47017,-0.4702 1.0477,-2.87106 1.82348,-2.8843 0.33334,-0.005 2.56491,0.73221 4.959,1.63976 4.17933,1.58429 4.3529,1.72834 4.3529,3.61273 0,1.18564 -0.29713,1.95094 -0.7505,1.93306 -0.41277,-0.0163 -2.83827,-0.91075 -5.38997,-1.98771 z m -59.00295,0.58979 c -5.2885,-2.49412 -9.35441,-7.67283 -11.09281,-14.12881 -1.89252,-7.02815 -0.0627,-19.43829 4.02484,-27.29678 5.38103,-10.34544 16.83841,-17.3843 25.61643,-15.73753 1.88574,0.35377 2.01728,0.51714 1.61808,2.00986 -0.36012,1.34651 -0.88439,1.70157 -3.06102,2.07315 -4.93565,0.84259 -10.03088,6.43919 -13.22993,14.53178 -2.83461,7.17058 -4.84757,15.5544 -5.20145,21.66364 -0.41332,7.13566 0.40647,10.10417 3.64791,13.2088 1.77677,1.70183 2.44765,2.79523 2.30242,3.7525 -0.25727,1.69561 -0.8889,1.68514 -4.62447,-0.0766 z m 17.7118,3.2334 c -2.90546,-0.71473 -5.53377,-0.98664 -7.40846,-0.76643 -2.79749,0.32862 -2.89788,0.28798 -2.70179,-1.09421 0.17376,-1.22471 0.64447,-1.49786 3.20565,-1.86022 2.34612,-0.33192 3.41117,-0.86995 4.87483,-2.46262 2.00498,-2.18171 4.13009,-7.18482 5.20571,-12.2558 0.59379,-2.79953 0.54132,-3.25852 -0.5047,-4.41437 -0.64207,-0.70949 -1.91101,-1.67453 -2.8199,-2.14453 -1.67337,-0.86533 -2.00894,-1.73512 -1.17528,-3.04662 0.45438,-0.7149 1.59142,-0.44215 17.2199,4.13093 l 4.18815,1.22551 -3.16489,2.78613 c -2.98885,2.63116 -3.26257,3.12011 -4.92088,8.79014 -0.9658,3.3022 -1.82858,7.21981 -1.91726,8.7058 -0.0887,1.486 -0.43445,2.9003 -0.76827,3.14291 -0.99288,0.72153 -4.51909,0.44262 -9.31281,-0.73662 z m -468.62184,4.15518 c -0.22277,-1.01427 -0.31178,-1.9295 -0.1978,-2.03386 0.11398,-0.10435 2.21756,-1.04054 4.67462,-2.08043 l 4.46739,-1.89071 1.49615,1.49615 1.49614,1.49614 -1.46053,0.56979 c -0.8033,0.31338 -3.30944,1.40616 -5.56921,2.42842 -2.25977,1.02225 -4.1971,1.85864 -4.30519,1.85864 -0.10809,0 -0.3788,-0.82986 -0.60157,-1.84414 z m 46.81872,1.77503 c -0.3486,-1.09833 -0.0159,-1.68946 1.74696,-3.10365 1.63169,-1.309 2.17757,-2.19877 2.17757,-3.54944 0,-0.99139 -3.36194,-12.16256 -7.47098,-24.82482 -4.10903,-12.66226 -7.55383,-23.46477 -7.6551,-24.00557 -0.14029,-0.74922 0.93711,-1.33918 4.52592,-2.47829 2.59053,-0.82225 4.82791,-1.37713 4.97196,-1.23308 0.14405,0.14405 3.78144,11.1733 8.08308,24.50943 5.46603,16.94601 8.19236,24.56392 9.05387,25.29822 0.75693,0.64519 2.22498,1.0507 3.80374,1.0507 2.28299,0 3.29992,0.64736 3.29992,2.10064 0,0.11068 -4.66061,1.74943 -10.3569,3.64166 -5.6963,1.89223 -10.67023,3.55529 -11.05317,3.69568 -0.38294,0.1404 -0.89003,-0.35526 -1.12687,-1.10148 z m 442.21673,1.79426 c -4.12775,-1.6602 -7.71652,-3.22271 -7.975,-3.47224 -0.25847,-0.24955 -0.29713,-0.90417 -0.0858,-1.45471 0.28321,-0.73801 1.12581,-1.001 3.20716,-1.001 1.55263,0 3.2421,-0.33773 3.75436,-0.7505 0.51226,-0.41278 7.05872,-7.96837 14.5477,-16.7902 7.48897,-8.82183 13.89944,-16.21468 14.24551,-16.42856 0.42329,-0.26162 0.53526,0.78427 0.34205,3.19631 l -0.28711,3.58518 -11.16961,13.14358 c -13.4734,15.85459 -13.89152,16.86021 -8.30936,19.98414 0.85858,0.48048 0.55201,3.10216 -0.35501,3.03629 -0.22539,-0.0164 -3.78709,-1.3881 -7.91484,-3.04829 z m -469.19297,8.63175 c -0.29428,-0.75629 0.21971,-1.59682 1.83438,-2.99973 1.96243,-1.70508 2.16461,-2.1215 1.61537,-3.32697 -0.34531,-0.75786 -3.81116,-4.74404 -7.7019,-8.85817 -25.74978,-27.22824 -25.51189,-26.99325 -27.32552,-26.99325 -1.41186,0 -1.80999,-0.31253 -2.10329,-1.6511 -0.19899,-0.9081 -0.46452,-1.98541 -0.59008,-2.394 -0.12557,-0.4086 1.42382,-1.86484 3.44308,-3.23609 2.97359,-2.01933 3.92915,-2.39164 5.02762,-1.9589 0.74593,0.29386 9.66712,9.31514 19.82488,20.0473 10.15775,10.73215 18.98353,19.88049 19.61284,20.32964 0.62931,0.44914 2.40694,0.85441 3.9503,0.9006 2.35773,0.0705 2.83478,0.28479 2.98563,1.34086 0.15636,1.09461 -1.10057,1.81171 -9.73453,5.55371 -5.45273,2.36324 -10.03013,4.2968 -10.172,4.2968 -0.14187,0 -0.44192,-0.47281 -0.66678,-1.0507 z m -73.57536,6.14197 c -0.97051,-1.81339 -1.15555,-1.62085 5.71029,-5.94171 l 5.4036,-3.40064 1.0507,1.29146 c 0.57789,0.7103 1.0507,1.46454 1.0507,1.67609 0,0.37645 -11.53416,7.88794 -12.11222,7.88794 -0.1613,0 -0.65769,-0.68091 -1.10307,-1.51314 z m 574.88975,-1.89337 c -5.28353,-2.13047 -9.81793,-4.08164 -10.0764,-4.33594 -0.25847,-0.2543 -0.29516,-0.91791 -0.0815,-1.47469 0.30615,-0.79774 1.03359,-0.97811 3.43183,-0.8509 3.03893,0.1612 3.04391,0.15842 3.46569,-1.93997 0.42022,-2.0905 0.81048,-10.9296 1.55726,-35.27179 0.36516,-11.90271 0.31671,-12.83931 -0.72414,-13.98943 -1.08715,-1.2013 -1.08703,-1.28553 0.006,-3.31285 0.73399,-1.36289 1.44829,-1.98515 2.07162,-1.80455 0.52325,0.1516 2.54888,0.55985 4.50138,0.90721 1.95257,0.34736 3.70874,0.79044 3.90261,0.98462 0.32589,0.32638 0.13569,19.9438 -0.24221,24.98175 -0.0914,1.21812 -0.36192,9.22284 -0.60118,17.78827 l -0.43499,15.57351 2.15124,2.38116 c 1.78265,1.97314 2.02521,2.54018 1.41586,3.30917 -0.64801,0.81776 -1.87655,0.46785 -10.34177,-2.94557 z m 29.41961,16.49694 c -8.35043,-5.93935 -11.63564,-13.27163 -9.09324,-20.29524 0.41836,-1.15577 4.99959,-9.49344 10.18044,-18.52814 5.86009,-10.21912 9.4198,-17.04737 9.4198,-18.06906 0,-0.90327 -0.54036,-2.13132 -1.2008,-2.72901 -1.28834,-1.16596 -1.58649,-2.99298 -0.58893,-3.60947 0.33646,-0.20798 4.5918,1.90335 9.4563,4.69184 6.44878,3.69671 8.84444,5.37515 8.84444,6.19661 0,0.96324 -0.40029,1.10189 -2.76016,0.95609 -1.97418,-0.12196 -3.10983,0.13449 -3.9881,0.9006 -0.67539,0.58912 -5.62425,8.77126 -10.99753,18.18254 -7.89388,13.82623 -9.82231,17.65268 -10.04446,19.93075 -0.37651,3.86153 0.14908,5.52556 2.60352,8.24232 1.90243,2.10576 2.0338,2.47323 1.38939,3.88747 -0.85143,1.86872 -0.9266,1.87438 -3.22067,0.2427 z m -639.72649,0.91971 c -0.49533,-0.16757 -3.23472,-1.22696 -6.08752,-2.3542 -6.01837,-2.37807 -9.65215,-2.6206 -13.07799,-0.87287 -2.30058,1.17367 -2.30929,1.17356 -3.41293,-0.0459 -1.08078,-1.19425 -1.07198,-1.24866 0.37908,-2.34428 0.81705,-0.61691 2.83645,-1.70754 4.48755,-2.42362 1.6511,-0.71608 3.40727,-1.50126 3.9026,-1.74485 0.49533,-0.24357 0.98316,-1.26541 1.08406,-2.27075 0.10089,-1.00533 0.69763,-2.2932 1.32606,-2.86193 1.09948,-0.99501 1.42677,-0.76679 8.67058,6.04603 7.1345,6.71003 7.47612,7.13736 6.53618,8.17598 -0.98274,1.08592 -2.06903,1.28461 -3.80767,0.69644 z m 61.51317,2.64479 c -0.18599,-0.4847 0.23636,-1.98353 0.93857,-3.33074 l 1.27674,-2.44948 -1.18178,-2.58546 c -0.64997,-1.422 -6.29098,-10.55576 -12.53557,-20.29726 l -11.35381,-17.71181 -3.45864,0 c -2.55292,0 -3.60059,-0.25287 -4.00068,-0.96563 -0.44398,-0.79094 1.10726,-2.02028 8.57457,-6.79522 8.18339,-5.23285 9.19204,-5.72644 9.85344,-4.82192 0.6092,0.83313 0.46598,1.41696 -0.82682,3.37051 -1.51509,2.28945 -1.53346,2.42616 -0.59156,4.40134 0.53465,1.12118 2.42791,4.28338 4.20725,7.02711 1.77934,2.74374 6.81649,10.6624 11.19366,17.59702 4.37718,6.93463 8.52103,13.09669 9.20855,13.69347 2.48366,2.15586 7.75774,0.0976 9.7032,-3.78686 0.74712,-1.49173 0.6756,-2.71252 -1.70585,-29.11942 -0.17868,-1.98132 -0.48489,-5.89893 -0.68046,-8.7058 -0.19557,-2.80687 -0.4895,-5.77885 -0.65317,-6.6044 -0.26403,-1.33172 0.004,-1.19629 2.37626,1.2008 2.53492,2.56141 2.69174,2.92019 3.01794,6.9046 2.4735,30.21309 2.61083,31.26264 4.31335,32.96516 0.65995,0.65995 1.66598,0.80681 3.7976,0.55435 2.55757,-0.30291 2.93721,-0.20043 3.21669,0.86828 0.27757,1.06144 -0.69483,1.64756 -7.84102,4.72617 -4.84317,2.08646 -11.58349,5.67541 -16.58865,8.8328 -9.79446,6.1786 -9.81592,6.18913 -10.25981,5.03239 z m 589.02052,1.38159 c -0.99066,-0.24913 -2.7069,-0.83288 -3.81386,-1.29723 -1.99993,-0.83891 -2.00564,-0.85276 -0.9006,-2.18339 1.05905,-1.27528 1.22656,-1.29763 3.51366,-0.46886 1.32088,0.47864 3.21214,0.87618 4.20281,0.88343 2.68679,0.0196 6.54694,-1.96789 8.25052,-4.24802 2.11268,-2.82776 20.26849,-34.75613 20.26849,-35.64371 0,-0.40061 -0.69467,-1.75199 -1.54363,-3.00305 -1.02951,-1.51711 -1.42847,-2.73353 -1.19786,-3.65245 0.3352,-1.33542 0.57188,-1.24798 7.69773,2.84381 4.04358,2.32189 7.42587,4.29438 7.51617,4.38334 0.0904,0.0889 -0.008,0.61152 -0.21932,1.16127 -0.2993,0.78005 -1.08865,0.9765 -3.59436,0.89463 -3.84088,-0.12552 -4.38274,0.26492 -7.05536,5.0833 -9.8949,17.83922 -17.50239,30.37968 -19.57131,32.26197 -3.51787,3.2005 -8.41083,4.27814 -13.55308,2.98496 z m 61.85678,-0.17462 c 0.5442,-2.58267 0.57693,-2.60669 5.08785,-3.73497 6.09551,-1.52463 9.45391,-2.71271 10.19612,-3.60708 0.52055,-0.62717 0.39687,-1.38114 -0.52169,-3.1817 -0.90474,-1.77347 -1.03292,-2.53069 -0.51586,-3.04776 0.37837,-0.3784 0.92191,-0.68799 1.20776,-0.68799 0.28592,0 3.47824,2.62257 7.09403,5.82793 6.4366,5.7059 6.55055,5.85159 5.44443,6.95776 -1.10617,1.10616 -1.18357,1.1024 -3.69648,-0.17959 -3.09789,-1.58042 -4.61624,-1.43507 -16.05921,1.53742 -4.37709,1.13701 -8.11351,2.06729 -8.30323,2.06729 -0.18967,0 -0.15983,-0.87809 0.0663,-1.95131 z m -677.47754,15.34174 c -0.42351,-0.75676 -0.18121,-1.52935 0.94111,-3.00079 0.89388,-1.17193 1.38802,-2.45366 1.20936,-3.13687 -0.50831,-1.94375 -23.24986,-37.46322 -25.1034,-39.20836 -0.95532,-0.89946 -2.07832,-1.52993 -2.49557,-1.40105 -3.04393,0.94022 -4.03733,0.89999 -4.61912,-0.18709 -0.53737,-1.00409 0.36457,-1.7455 7.93129,-6.51965 4.69568,-2.9627 8.86178,-5.56996 9.25799,-5.7939 0.40381,-0.22825 0.98694,0.0909 1.32696,0.72624 0.47286,0.88356 0.27518,1.58214 -0.89678,3.16892 -1.04222,1.41113 -1.39334,2.47521 -1.14469,3.469 0.3986,1.5931 22.54411,36.80412 24.49675,38.94946 1.06036,1.16501 1.62653,1.30501 4.00267,0.9898 2.10294,-0.27896 2.95364,-0.14299 3.54219,0.56617 0.66916,0.80629 0.17534,1.31623 -3.62845,3.74692 -2.42166,1.54749 -6.45636,4.12689 -8.966,5.73199 -2.50963,1.60511 -4.72519,2.91838 -4.92346,2.91838 -0.19827,0 -0.61716,-0.45863 -0.93085,-1.01917 z m 636.88676,-1.42184 c -3.44083,-3.02312 -6.51458,-5.73891 -6.83063,-6.03508 -0.36042,-0.33772 -0.2012,-0.91197 0.42706,-1.54022 0.93537,-0.93537 1.21203,-0.93235 4.17705,0.0456 l 3.17533,1.04731 12.24907,-3.3526 c 6.73697,-1.84393 12.36062,-3.24102 12.49703,-3.10464 0.13635,0.13638 0.0658,1.21875 -0.15676,2.40528 -0.35868,1.91199 -0.68746,2.2311 -2.89063,2.806 -15.24963,3.97919 -16.5953,4.50888 -16.5953,6.53217 0,0.62606 0.47245,1.96147 1.04986,2.96756 0.95649,1.66666 0.96556,1.91353 0.10182,2.77725 -0.86367,0.86372 -1.50406,0.45937 -7.2039,-4.54861 z m -543.264,11.22361 c 0.13759,-0.12288 20.51368,-8.52752 45.28019,-18.677 24.76651,-10.14948 53.20704,-21.81315 63.20117,-25.91928 l 18.17116,-7.4657 15.45126,-0.12481 15.45126,-0.12483 0.0139,-3.3022 c 0.008,-1.81621 0.0752,-4.72065 0.1501,-6.4543 l 0.13623,-3.1521 12.008,0 12.00801,0 0,6.6044 0,6.6044 22.51501,0 22.51502,0 0,-12.9086 0,-12.90861 3.3022,0 3.3022,0 0,12.91583 0,12.91582 22.66511,-0.15731 22.66511,-0.15733 0.17112,-6.1541 c 0.16379,-5.89197 0.22773,-6.15526 1.501,-6.1813 3.57118,-0.073 20.51231,0.0969 20.62231,0.20685 0.0692,0.0692 0.21464,2.8264 0.32325,6.12716 l 0.19753,6.00139 12.60841,0.14533 12.60841,0.14533 66.84214,25.97208 66.84219,25.97209 -109.06768,0.15172 -109.06762,0.15172 -8.02426,-4.23505 -8.02424,-4.23505 -7.47698,4.23343 -7.47696,4.23343 -105.83234,0 c -58.20779,0 -105.71977,-0.10054 -105.58218,-0.22341 z m -109.56875,6.88785 c -1.01707,-1.12386 -0.99208,-1.28383 0.63423,-4.05891 2.83597,-4.83923 2.2718,-10.27834 -1.69017,-16.29474 -0.93511,-1.41999 -1.70019,-2.79278 -1.70019,-3.05064 0,-0.25787 0.70446,-0.84587 1.56549,-1.30667 1.44476,-0.77322 1.65985,-0.72317 2.78912,0.64904 1.92819,2.34298 4.60085,8.45552 5.0135,11.46618 0.44359,3.23627 -0.8547,8.31055 -2.89791,11.32633 -1.70541,2.51718 -2.37709,2.74675 -3.71407,1.26941 z m 676.19373,2.65663 c -7.42149,-6.7085 -8.13189,-7.52406 -7.41189,-8.50875 0.76053,-1.04001 0.89454,-1.04227 2.97511,-0.0501 2.96549,1.41414 3.68736,1.3144 4.42999,-0.61213 0.81042,-2.10233 9.12705,-46.74638 9.55393,-51.28566 0.26712,-2.8406 0.0952,-3.76757 -1.03911,-5.60295 -1.22878,-1.98818 -1.26973,-2.28869 -0.42683,-3.1316 0.8429,-0.84292 1.06944,-0.82379 2.36048,0.19935 3.31757,2.62918 14.87798,13.10511 14.87798,13.48232 0,1.098 -1.76296,1.82153 -2.92413,1.20008 -1.47267,-0.78811 -3.49085,-0.83387 -3.95088,-0.0896 -0.48986,0.79265 -9.30638,47.70197 -9.74371,51.84261 -0.27841,2.63641 -0.10988,4.02971 0.70649,5.8401 0.87394,1.93804 0.93182,2.54668 0.31329,3.29202 -0.4174,0.50292 -0.92846,0.89854 -1.13566,0.87917 -0.20726,-0.0194 -4.07053,-3.37409 -8.58506,-7.4549 z m -700.78789,7.45086 c -6.63862,-1.63583 -16.24075,-8.82424 -20.71468,-15.50758 -4.27229,-6.38211 -5.14193,-9.17462 -5.16158,-16.57456 -0.0156,-5.89049 0.15149,-6.96136 1.54609,-9.90661 0.85999,-1.81621 2.12689,-3.97765 2.81533,-4.8032 l 1.2517,-1.501 1.23956,1.21967 1.23956,1.21966 -1.24625,2.38274 c -1.68955,3.23028 -1.25599,7.40482 1.32158,12.72484 1.5548,3.20905 3.49669,5.60035 9.20102,11.33041 6.30472,6.33317 7.90089,7.59374 12.46882,9.84724 4.4638,2.20213 5.79571,2.58667 9.006,2.60013 2.44431,0.0103 4.46886,-0.35163 5.76453,-1.03041 1.83579,-0.96173 2.11455,-0.96922 3.4523,-0.0927 0.80039,0.52444 1.45525,1.24171 1.45525,1.59394 0,1.05381 -2.46365,2.8897 -6.60441,4.92156 -3.41297,1.67474 -4.58054,1.92966 -9.3062,2.03189 -2.97198,0.0643 -6.44986,-0.14092 -7.72862,-0.45602 z m 535.18027,9.04528 c 0,-6.27419 -0.0675,-11.61024 -0.1501,-11.85791 -0.0826,-0.24766 4.10524,-0.52471 9.3062,-0.61564 6.13958,-0.10735 9.47738,0.0506 9.51635,0.4503 0.033,0.3386 0.06,1.29109 0.06,2.11664 0,0.82555 -0.027,5.95897 -0.06,11.40761 l -0.06,9.9066 -9.30621,0 -9.3062,0 0,-11.4076 z m -39.69312,0.9006 c -0.0366,-5.77886 -0.097,-11.11491 -0.13401,-11.85791 -0.0668,-1.3399 0.01,-1.35224 9.37291,-1.51624 l 9.44021,-0.16535 0,12.02325 0,12.02325 -9.3062,0 -9.30621,0 -0.0667,-10.507 z m -40.16012,-1.501 0,-12.00801 9.60641,0 9.6064,0 0,12.00801 0,12.008 -9.6064,0 -9.60641,0 0,-12.008 z m -207.1381,0 0,-12.00801 9.6064,0 9.60641,0 0,12.00801 0,12.008 -9.60641,0 -9.6064,0 0,-12.008 z m -39.62642,0 0,-12.00801 9.60641,0 9.6064,0 0,12.00801 0,12.008 -9.6064,0 -9.60641,0 0,-12.008 z m -39.62642,0 0,-12.00801 9.60641,0 9.6064,0 0,12.00801 0,12.008 -9.6064,0 -9.60641,0 0,-12.008 z m 405.87059,-0.9006 0,-18.91261 2.7018,0 2.7018,0 0,18.91261 0,18.9126 -2.7018,0 -2.7018,0 0,-18.9126 z m -429.89583,18.3122 c -0.005,-0.33022 -0.0148,-8.77334 -0.0217,-18.7625 l -0.0125,-18.16211 2.4233,-0.18463 2.4233,-0.18462 0,18.94713 0,18.94713 -2.4016,0 c -1.32088,0 -2.40576,-0.27018 -2.41084,-0.6004 z m 143.11477,5.49015 c -1.04142,-0.31204 5.91698,-5.2114 36.02402,-25.36429 l 37.31475,-24.97754 12.90861,8.21579 c 7.09973,4.51869 22.63509,14.38178 34.52301,21.91798 27.80058,17.62381 31.52102,20.03102 31.52102,20.39476 0,0.44801 -150.79007,0.26315 -152.29141,-0.1867 z m 161.34532,5.2172 c -1.4403,-0.5327 -1.98876,-2.11972 -1.22541,-3.54604 0.60574,-1.13183 2.12853,-1.15877 69.19397,-1.22376 37.716,-0.0366 69.25003,-0.0103 70.07558,0.0583 2.78388,0.23136 4.02929,2.61096 2.17291,4.15163 -0.61049,0.50665 -19.06433,0.72394 -69.98222,0.82402 -38.03422,0.0748 -69.63989,-0.0441 -70.23483,-0.26413 z m -312.67797,0.21192 c -2.30944,-0.32854 -2.56877,-4.52931 -0.30871,-5.00054 0.56695,-0.1182 32.37171,-0.0798 70.67725,0.0853 l 69.64643,0.3002 0,2.1014 0,2.1014 -69.34623,0.3002 c -38.14043,0.16511 -69.94136,0.21554 -70.66874,0.11206 z m 152.6677,3.17506 c -1.48559,-0.74067 -1.91339,-2.42039 -0.92098,-3.61616 0.62538,-0.75355 10.87408,-0.87176 75.57993,-0.87176 57.42112,0 75.02426,0.16781 75.57693,0.72048 0.97078,0.97079 0.9096,2.57794 -0.13107,3.4416 -1.13356,0.94079 -148.23094,1.2601 -150.10481,0.32584 z m 135.19585,12.05502 c -1.35456,-1.69768 -1.6511,-2.66811 -1.6511,-5.40359 l 0,-3.33428 7.2048,0 7.2048,0 0,3.04239 c 0,2.55002 -0.31575,3.42274 -1.9513,5.39277 -1.86982,2.25224 -2.10176,2.35085 -5.5537,2.3612 -3.3922,0.0102 -3.69876,-0.10992 -5.2535,-2.05849 z m -47.21933,-0.053 c -1.59807,-1.8201 -1.86339,-2.58951 -1.86339,-5.4036 l 0,-3.28131 7.2048,0 7.2048,0 0,3.16541 c 0,2.64792 -0.3016,3.5313 -1.84491,5.4036 -1.74466,2.11657 -2.03491,2.2382 -5.3414,2.2382 -3.25085,0 -3.62741,-0.14911 -5.3599,-2.1223 z m -44.99174,-0.2441 c -1.57283,-1.95718 -1.90168,-2.89161 -1.90168,-5.4036 l 0,-3.03721 7.2048,0 7.2048,0 0,3.33428 c 0,2.73548 -0.29652,3.70591 -1.6511,5.40359 -1.55673,1.95103 -1.85982,2.0693 -5.30312,2.06932 -3.5297,2e-5 -3.7157,-0.0792 -5.5537,-2.36638 z m -44.46791,0.2441 c -1.59807,-1.8201 -1.86339,-2.58951 -1.86339,-5.4036 l 0,-3.28131 7.2048,0 7.2048,0 0,3.16541 c 0,2.64792 -0.3016,3.5313 -1.84491,5.4036 -1.74466,2.11657 -2.03491,2.2382 -5.3414,2.2382 -3.25085,0 -3.62741,-0.14911 -5.3599,-2.1223 z m 66.58224,16.8321 0,-13.509 7.80521,0 7.8052,0 0,13.509 0,13.50901 -7.8052,0 -7.80521,0 0,-13.50901 z m -145.89727,0 0,-13.509 9.60641,0 9.6064,0 0,13.509 0,13.50901 -9.6064,0 -9.60641,0 0,-13.50901 z m 326.89376,13.47201 c -0.11401,-0.18556 -0.25745,-6.26461 -0.31875,-13.509 l -0.11143,-13.17163 9.38329,-0.16535 9.3833,-0.16535 0,13.49417 0,13.49417 -9.06455,0.18018 c -4.98554,0.0991 -9.15784,0.0283 -9.27186,-0.15719 z m -39.60498,0.0327 c -0.19813,-0.32065 -0.43253,-19.09002 -0.32049,-25.66268 0.0228,-1.34184 0.0855,-1.3509 9.32926,-1.3509 l 9.3062,0 0,13.509 0,13.50901 -7.6551,0.05 c -4.21031,0.0275 -8.27448,0.11831 -9.0314,0.20174 -0.75699,0.0834 -1.48978,-0.0318 -1.62847,-0.25619 z m -32.56895,0.1371 -7.95531,-0.16752 0,-13.49159 0,-13.49157 9.60641,0 9.6064,0 0,13.509 c 0,10.38244 -0.17369,13.51964 -0.7505,13.55495 -0.41277,0.0253 -1.15577,0.0928 -1.6511,0.1501 -0.49533,0.0573 -4.48049,0.0288 -8.8559,-0.0634 z m -55.83723,-10e-4 -7.3549,-0.16858 0,-13.49053 0,-13.49052 7.8052,0 7.8052,0 0,13.47357 c 0,7.41046 -0.20263,13.55706 -0.4503,13.6591 -0.24766,0.10205 -3.76,0.10968 -7.8052,0.0169 z m -98.36775,-0.0816 c -0.1364,-0.13759 -0.248,-6.28419 -0.248,-13.65911 l 0,-13.40893 7.8052,0 7.8052,0 0,13.47469 0,13.47469 -7.5572,0.18442 c -4.15646,0.10142 -7.6688,0.0718 -7.8052,-0.0658 z m -52.93313,0.0826 -7.9553,-0.16752 0,-13.49159 0,-13.49157 9.6064,0 9.60641,0 0,13.44086 0,13.44086 -1.6511,0.21824 c -0.90811,0.12004 -5.23099,0.14286 -9.60641,0.0507 z m -86.95884,-0.0826 c -0.13711,-0.13759 -0.2493,-6.28419 -0.2493,-13.65911 l 0,-13.40893 9.61768,0 9.61768,0 -0.16138,13.51882 -0.16137,13.51882 -9.207,0.14029 c -5.06386,0.0772 -9.31919,0.0277 -9.45631,-0.10989 z m 365.88879,44.58901 c -0.10675,-0.54546 -0.11612,-6.62451 -0.021,-13.50901 l 0.17328,-12.51726 9.28303,0 9.28303,0 0,13.50901 0,13.509 -9.2622,0 c -8.13272,0 -9.28585,-0.12093 -9.4563,-0.99174 z m -38.1325,1.10492 c -0.72271,-0.10286 -1.39816,-0.61669 -1.501,-1.14184 -0.10285,-0.52516 -0.10904,-6.58759 -0.0138,-13.47209 l 0.17327,-12.51726 9.28303,0 9.28303,0 0,13.47651 0,13.47652 -7.9553,0.18259 c -4.37542,0.10043 -8.54658,0.0984 -9.26928,-0.004 z m -33.65934,0.0195 -7.95531,-0.16753 0,-13.49158 0,-13.49158 9.60641,0 9.6064,0 0,13.50901 c 0,7.42995 -0.20263,13.53152 -0.4503,13.55904 -1.93587,0.2151 -3.82965,0.22958 -10.8072,0.0826 z m -207.13811,0 -7.9553,-0.16753 0,-13.49158 0,-13.49158 9.6064,0 9.60641,0 0,13.44086 0,13.44086 -1.6511,0.21825 c -0.90811,0.12004 -5.23099,0.14286 -9.60641,0.0507 z m -38.72581,0.001 -8.85591,-0.16616 0,-13.49295 0,-13.49296 9.60641,0 9.6064,0 0,13.44477 c 0,10.24124 -0.17882,13.49584 -0.7505,13.65911 -0.41278,0.11789 -4.73566,0.13957 -9.6064,0.0482 z m -46.83123,-0.0238 -1.6511,-0.18998 0,-13.46913 0,-13.46912 9.60641,0 9.6064,0 0,13.47651 0,13.47652 -7.9553,0.18259 c -4.37542,0.10042 -8.6983,0.0971 -9.60641,-0.007 z m 229.50637,-8.96613 c 0.002,-7.84272 0.27031,-15.22049 0.5966,-16.39503 1.35649,-4.88296 6.91902,-7.3677 10.91777,-4.87686 3.7483,2.33485 3.77417,2.46338 3.97891,19.77089 l 0.18648,15.76051 -7.84158,0 -7.84153,0 0.004,-14.25951 z m -45.25208,12.60841 c 0.0666,-0.9081 0.1431,-8.07185 0.16992,-15.91943 l 0.0488,-14.26832 1.97193,-2.15174 c 3.69872,-4.036 9.70699,-3.1679 12.03544,1.73893 0.85384,1.79934 1.00264,4.34941 1.00264,17.18229 l 0,15.06937 -7.67492,0 -7.67494,0 0.12115,-1.6511 z M 540.96399,408.4223 c 0.002,-7.84272 0.27031,-15.22049 0.5966,-16.39503 1.91789,-6.90383 10.99831,-7.93915 14.00781,-1.59712 0.85384,1.79934 1.00264,4.34941 1.00264,17.18229 l 0,15.06937 -7.8052,0 -7.8052,0 0.004,-14.25951 z m 117.67511,-23.56571 0,-38.42561 3.6024,0 3.6024,0 0,38.42561 0,38.42562 -3.6024,0 -3.6024,0 0,-38.42562 z m -47.43162,0 0,-38.42561 3.6024,0 3.6024,0 0,38.42561 0,38.42562 -3.6024,0 -3.6024,0 0,-38.42562 z m -44.42963,0 0,-38.42561 3.6024,0 3.6024,0 0,38.42561 0,38.42562 -3.6024,0 -3.6024,0 0,-38.42562 z m -45.03002,0 0,-38.42561 3.6024,0 3.6024,0 0,38.42561 0,38.42562 -3.6024,0 -3.6024,0 0,-38.42562 z m 285.19013,-5.1034 0,-48.93262 2.7018,0 2.7018,0 0,48.93262 0,48.93262 -2.7018,0 -2.7018,0 0,-48.93262 z M 377.0415,428.27004 c -0.005,-0.26666 -0.008,-22.23433 -0.005,-48.81705 l 0.005,-48.33222 2.40626,-0.18462 2.40627,-0.18463 0.075,47.16595 c 0.0413,25.94127 0.10882,47.90894 0.1501,48.81704 0.0694,1.52724 -0.11638,1.66496 -2.47665,1.83573 -1.40344,0.10154 -2.55614,-0.0336 -2.56157,-0.3002 z m 277.75186,6.26968 c 0.0739,-1.40344 0.15892,-2.88003 0.18888,-3.28131 0.03,-0.40129 0.89298,-1.68465 1.91786,-2.8519 1.69121,-1.92622 2.15628,-2.1223 5.03352,-2.1223 2.93703,0 3.32982,0.17675 5.3414,2.40333 1.88447,2.08587 2.17128,2.79965 2.17128,5.40361 l 0,3.00027 -7.39368,0 -7.39363,0 0.13437,-2.5517 z m -47.18828,-0.51401 c 0,-2.51925 0.33005,-3.48241 1.85165,-5.4036 1.76421,-2.2275 2.01229,-2.33739 5.2535,-2.32707 3.21859,0.0103 3.50698,0.13744 5.35315,2.36122 1.63552,1.97003 1.9513,2.84275 1.9513,5.39277 l 0,3.04239 -7.2048,0 -7.2048,0 0,-3.06571 z m -45.03003,0.0654 c 0,-2.60396 0.28681,-3.31774 2.17126,-5.40361 2.0162,-2.23168 2.39969,-2.40333 5.3697,-2.40333 2.98694,0 3.32971,0.15638 5.18364,2.36483 1.66813,1.98712 1.98693,2.85018 1.99599,5.4036 l 0.0108,3.03878 -7.36568,0 -7.36568,0 0,-3.00027 z m -44.42962,-0.0654 c 0,-2.51925 0.33005,-3.48241 1.85165,-5.4036 1.76421,-2.2275 2.01229,-2.33739 5.2535,-2.32707 3.21858,0.0103 3.50698,0.13744 5.35315,2.36122 1.63552,1.97003 1.9513,2.84275 1.9513,5.39277 l 0,3.04239 -7.2048,0 -7.2048,0 0,-3.06571 z m 162.48759,4.79798 c -0.90168,-1.28733 -0.69592,-2.87102 0.47732,-3.67438 0.3543,-0.24261 31.99857,-0.44525 70.32062,-0.4503 53.40259,-0.007 69.84474,0.15909 70.39692,0.71129 1.103,1.103 0.85732,3.36686 -0.44087,4.0616 -0.7813,0.41814 -23.85528,0.62152 -70.51298,0.62152 l -69.35163,0 -0.88938,-1.26973 z m -312.73776,0.62124 c -1.20612,-0.7025 -1.39194,-2.97292 -0.33022,-4.03463 0.55207,-0.55208 16.9604,-0.72048 70.19772,-0.72048 38.21249,0 69.90462,0.16399 70.42696,0.36443 1.12202,0.43056 1.27299,3.27492 0.22922,4.31869 -0.9476,0.9476 -138.899,1.01828 -140.52368,0.072 z m 163.60907,6.76083 c -1.61619,-0.22953 -1.60477,-0.13563 -0.3391,-2.78977 l 1.0118,-2.12177 62.21924,0 62.21924,0 1.0118,2.12177 c 0.55651,1.16698 1.01179,2.31524 1.01179,2.5517 0,0.40832 -124.29711,0.64109 -127.13477,0.23807 z m -7.10213,8.74757 1.52163,-2.55171 68.14533,-0.15265 68.14532,-0.15265 1.21431,2.38023 c 0.66789,1.30913 1.21431,2.52609 1.21431,2.70436 0,0.17826 -31.89657,0.32412 -70.88126,0.32412 l -70.88127,0 1.52163,-2.5517 z m -5.35634,13.4588 c -0.15246,-0.15245 1.19138,-2.79946 2.41591,-4.75874 0.13231,-0.21168 146.31098,-0.22373 146.48942,-0.0121 0.59073,0.70052 2.13322,4.23294 1.93497,4.43118 -0.29438,0.29439 -150.54723,0.6327 -150.8403,0.33963 z m 208.63927,-7.0045 0,-11.70781 9.30621,0 9.3062,0 0,11.70781 0,11.7078 -9.3062,0 -9.30621,0 0,-11.7078 z m 40.60693,11.81388 c -0.8668,-0.1716 -0.98051,-1.54714 -0.98051,-11.8579 l 0,-11.66379 9.3062,0 c 5.75382,0 9.33485,0.22919 9.38126,0.6004 0.0414,0.33022 0.0751,1.00567 0.0751,1.501 0,0.49533 -0.0336,5.47942 -0.0751,11.07576 l -0.075,10.17516 -8.32569,0.18175 c -4.57914,0.1 -8.76693,0.0944 -9.30621,-0.0124 z m -74.78339,-0.10608 c -0.24016,-0.16511 -1.56465,-1.974 -2.94335,-4.01975 l -2.50661,-3.71956 0,-7.83815 0,-7.83815 9.50608,0 c 9.50224,0 9.50602,5.4e-4 9.35622,1.3509 -0.0824,0.743 -0.17304,6.07906 -0.2015,11.85791 l -0.0516,10.507 -6.36124,0 c -3.49871,0 -6.55775,-0.13509 -6.79797,-0.3002 z m -206.43396,0.13061 -6.7545,-0.16993 0,-11.68814 0,-11.68815 9.6064,0 9.60641,0 0,7.7257 0,7.72571 -2.76292,4.1322 c -1.5196,2.27271 -2.80295,4.1322 -2.8519,4.1322 -0.0489,0 -3.12851,-0.0764 -6.84349,-0.16976 z m -37.82521,0.003 -8.55571,-0.16658 0,-11.69133 0,-11.69132 9.60641,0 9.6064,0 0,11.63778 c 0,10.59948 -0.0937,11.65742 -1.0507,11.85791 -0.57789,0.12107 -4.90077,0.14516 -9.6064,0.0535 z m -47.43163,0.069 c -0.56423,-0.22755 -0.7505,-3.1959 -0.7505,-11.96043 l 0,-11.65778 9.60641,0 9.6064,0 0,11.70781 0,11.7078 -8.05629,0 c -4.43097,0 -8.41613,0.11369 -8.85591,0.25263 -0.43979,0.13895 -1.13733,0.11644 -1.55011,-0.05 z m 111.52435,6.07046 c 0,-0.18225 0.60791,-1.39598 1.3509,-2.69718 l 1.35091,-2.36583 78.79034,-0.005 78.79036,-0.005 1.21299,2.37768 c 0.66716,1.30773 1.21299,2.52354 1.21299,2.70181 0,0.17862 -36.60941,0.32448 -81.35424,0.32448 -44.74484,0 -81.35425,-0.14911 -81.35425,-0.33135 z m 168.85629,0.78162 c -1.70952,-2.12549 -22.9425,-38.49217 -22.64668,-38.788 0.29624,-0.29622 10.10852,-0.19525 10.22049,0.10517 0.0222,0.0589 5.22613,8.80062 11.56479,19.42601 6.33861,10.62541 11.52481,19.47381 11.52481,19.66311 0,0.72812 -10.05929,0.34484 -10.66341,-0.40629 z m -187.30218,-0.0182 c 0.21437,-0.55864 21.30643,-36.18101 22.88715,-38.65409 0.19021,-0.29761 9.95903,-0.41306 10.25092,-0.12116 0.19267,0.19267 -4.8668,9.10134 -11.24326,19.79704 l -11.59357,19.44674 -5.3075,0.17455 c -4.28188,0.14081 -5.24686,0.0166 -4.99374,-0.64308 z m 321.04763,-16.34268 0,-18.91261 2.7018,0 2.7018,0 0,18.91261 0,18.91261 -2.7018,0 -2.7018,0 0,-18.91261 z m -447.8986,0 0,-18.91261 2.4016,0 c 2.32812,0 2.5517,0.18413 2.5517,2.1014 0,0.49533 -0.0337,8.73583 -0.0751,18.31221 l -0.075,17.41161 -2.4016,0 -2.4016,0 0,-18.91261 z m 146.49766,24.31621 0,-3.6024 78.65245,0 78.65244,0 0,3.6024 0,3.6024 -78.65244,0 -78.65245,0 0,-3.6024 z m 194.43292,5.5537 c -0.11186,-1.89876 -0.11708,-4.0602 -0.0114,-4.8032 l 0.19183,-1.3509 55.75047,0 55.75045,0 11.90288,4.56126 c 6.54664,2.50869 12.01551,4.67013 12.15312,4.8032 0.13755,0.13307 -30.30124,0.24194 -67.6418,0.24194 l -67.89201,0 -0.20341,-3.4523 z m -363.70528,2.86517 c 0.51761,-0.30286 5.88525,-2.45608 11.92809,-4.78494 l 10.98698,-4.23433 56.06724,0 56.06724,0 0,4.8032 0,4.8032 -67.99533,-0.0183 c -41.52763,-0.0112 -67.629,-0.2326 -67.05422,-0.5689 z m 331.38045,-0.0133 0,-12.03571 10.5354,0.16396 10.53547,0.16395 0,11.7078 0,11.70781 -10.53547,0.16395 -10.5354,0.16396 0,-12.03572 z m -188.5257,0 0,-12.008 10.80721,0 10.8072,0 0,12.008 0,12.00801 -10.8072,0 -10.80721,0 0,-12.00801 z m -192.72848,40.79741 c 0,-3.77868 8.46644,-10.75415 15.56928,-12.82748 4.05545,-1.1838 12.45834,-1.22828 16.7398,-0.0886 6.30912,1.67939 7.62657,3.84875 4.25183,7.00122 -2.24761,2.0996 -3.92759,2.18703 -8.69841,0.45273 -7.67803,-2.79113 -16.20789,-1.41944 -22.92138,3.68601 -3.1078,2.3634 -4.94112,3.02241 -4.94112,1.77614 z m 78.75211,20.86372 c -0.40416,-0.48697 -0.68623,-5.02824 -0.75005,-12.07562 -0.0817,-9.02129 0.0641,-11.40052 0.72434,-11.81871 1.18522,-0.75072 6.38386,-0.66447 6.86492,0.1139 0.22294,0.36073 0.50916,4.43937 0.63603,9.06365 0.12688,4.62428 0.38163,8.65202 0.56612,8.95053 0.18448,0.29851 2.50074,0.54275 5.14722,0.54275 4.22189,0 4.78749,0.12622 4.61352,1.02958 -0.25154,1.30613 -3.59725,3.57933 -6.42355,4.3644 -3.19436,0.8873 -10.59267,0.77646 -11.37855,-0.17048 z m 74.41626,6.30627 c -1.27104,-0.42368 -0.55864,-3.48611 3.72968,-16.03277 4.48395,-13.11904 5.25934,-14.35079 6.89089,-10.94666 1.83267,3.82372 1.84225,7.29203 0.0356,12.88361 -2.44325,7.56196 -2.50635,7.36925 2.41278,7.36925 4.69775,0 5.2351,0.37643 5.82772,4.08249 0.35217,2.20233 0.2604,2.52709 -0.72416,2.56279 -5.6168,0.20366 -17.64403,0.25746 -18.17254,0.0813 z m 280.02511,8.77585 c -2.37884,-6.49875 -14.11408,-44.45582 -14.11408,-45.65141 0,-2.63204 5.09697,-4.76227 7.12567,-2.97809 0.75542,0.66437 3.12778,7.58773 6.99034,20.40019 6.26181,20.77116 6.40116,21.66587 4.10625,26.36363 -1.1422,2.338 -3.53713,3.42564 -4.10818,1.86568 z m 137.04076,1.15869 c -0.48645,-0.743 -4.52822,-7.15978 -8.98175,-14.25951 -4.45353,-7.09973 -10.46252,-16.67625 -13.35332,-21.28116 -6.82788,-10.87636 -6.79341,-10.77756 -4.54648,-13.02449 1.36748,-1.36744 2.24028,-1.75058 3.66047,-1.60687 1.73419,0.17549 2.59853,1.34529 12.33882,16.69971 15.07527,23.76451 13.71422,21.11429 13.71873,26.71353 0.006,5.00902 -0.54349,8.10969 -1.43202,8.10969 -0.28597,0 -0.91795,-0.60791 -1.40445,-1.3509 z M 544.9975,573.88335 c -0.82793,-1.10115 -3.93316,-5.9197 -6.90051,-10.7079 -2.96734,-4.78819 -8.94054,-14.3436 -13.27377,-21.23423 -4.33322,-6.89063 -7.87859,-13.01322 -7.87859,-13.60573 0,-1.45899 3.35158,-4.18605 5.14468,-4.18605 1.64138,0 1.2745,-0.52158 16.25988,23.11541 l 9.51605,15.01 0,6.12409 c 0,7.26844 -0.62609,8.46581 -2.86774,5.48441 z m -217.87789,7.00545 c -0.16427,-0.16427 0.48543,-1.88064 1.44378,-3.81415 1.4198,-2.86454 1.80518,-4.56714 2.08128,-9.19496 0.50944,-8.53899 0.86966,-8.24071 -10.19383,-8.44117 -8.86314,-0.16059 -9.14899,-0.20556 -9.32874,-1.46755 -0.11157,-0.7833 0.50949,-2.07965 1.55915,-3.25442 l 1.74459,-1.95254 11.04925,0.13915 c 6.07709,0.0765 11.31088,0.39771 11.63065,0.71374 0.92026,0.90947 1.11602,8.43691 0.33919,13.0425 -0.88335,5.23709 -3.44953,10.76866 -5.98578,12.90278 -1.77937,1.49725 -3.60945,2.0567 -4.33954,1.32662 z m 285.88907,0.74021 c 0,-0.51 1.47062,-1.75725 3.26804,-2.77165 8.67635,-4.89662 12.68823,-13.59401 11.94181,-25.88867 -0.90273,-14.86938 -9.41287,-21.61441 -27.27067,-21.61441 -4.76646,0 -5.35079,-0.11887 -5.35079,-1.08847 0,-1.16058 2.44747,-3.72929 4.61363,-4.84217 2.15214,-1.10569 11.46723,-0.81143 16.7029,0.52763 10.50909,2.68777 16.75744,8.96267 19.18661,19.26809 4.11987,17.47817 -5.49906,35.52123 -19.71919,36.98888 -2.79074,0.28803 -3.37234,0.18814 -3.37234,-0.57923 z m -17.01134,0.35902 c -0.22015,-0.22014 -0.40027,-10.88275 -0.40027,-23.69468 0,-22.41603 0.0438,-23.31786 1.16133,-23.91595 0.63873,-0.34184 2.00739,-0.62152 3.04147,-0.62152 1.03408,0 2.40275,0.27968 3.04147,0.62152 1.11255,0.59542 1.16134,1.46291 1.16134,20.64957 0,17.7091 0.10996,20.07025 0.9497,20.39249 0.52234,0.20045 2.81887,0.36444 5.1034,0.36444 3.20412,0 4.1537,0.19654 4.1537,0.85972 0,1.20993 -3.04987,3.23976 -6.90224,4.59377 -3.1731,1.11525 -10.46156,1.59899 -11.3099,0.75064 z m 275.48671,0.40521 c -0.60382,-0.977 -0.36673,-54.60167 0.24646,-55.74745 0.78052,-1.4584 3.20344,-2.64152 4.9144,-2.3997 l 1.44048,0.2036 0.1564,26.66347 c 0.17262,29.42585 0.30693,28.29379 -3.6413,30.70118 -2.18774,1.33394 -2.60226,1.41093 -3.11644,0.5789 z m -33.59618,0.0424 c -0.64891,-1.04993 -0.54612,-45.3054 0.10573,-45.52268 0.8964,-0.2988 3.73467,3.27798 5.35587,6.74947 1.35607,2.90366 1.40218,3.51567 1.40782,18.68154 0.006,14.99609 -0.0486,15.74902 -1.24793,17.27351 -0.68962,0.87668 -2.02707,1.99384 -2.97216,2.48257 -2.01687,1.04293 -2.19801,1.06588 -2.64933,0.33559 z m -46.44961,-0.66609 c -0.27408,-0.74091 -0.43361,-1.91798 -0.35453,-2.6157 0.0791,-0.69773 0.16625,-12.5381 0.19381,-26.31192 l 0.0498,-25.04333 1.3509,-1.29476 c 0.743,-0.71213 2.28146,-1.69384 3.41886,-2.18158 3.70327,-1.58811 3.67733,-1.77522 3.61579,26.08065 -0.03,13.62667 -0.21074,25.73755 -0.40149,26.91306 -0.37957,2.3388 -2.86187,4.67444 -5.72824,5.38974 -1.3575,0.33877 -1.73431,0.17434 -2.14511,-0.93616 z m -58.70749,0.38455 c -0.17609,-0.45901 3.19143,-12.6509 7.48345,-27.09309 6.54335,-22.01751 8.07689,-26.54912 9.49521,-28.05777 2.96244,-3.15113 6.79491,-4.09939 6.79491,-1.68126 0,1.89821 -15.08103,51.32519 -16.22815,53.18654 -1.07034,1.73681 -5.07351,4.48013 -6.53752,4.48013 -0.3782,0 -0.83174,-0.37555 -1.0079,-0.83455 z m -181.76346,0.43429 c -0.22015,-0.22015 -0.40027,-12.75951 -0.40027,-27.86524 l 0,-27.46498 1.84727,-1.55437 c 1.06539,-0.89647 2.59014,-1.55437 3.6024,-1.55437 l 1.75513,0 0,27.05748 c 0,16.65905 -0.22782,27.48317 -0.5928,28.16515 -0.60851,1.137 -4.19558,3.61659 -5.2319,3.61659 -0.31876,0 -0.75969,-0.18012 -0.97983,-0.40027 z m -33.62242,0 c -0.69887,-0.69888 -0.47356,-45.83056 0.22881,-45.83056 1.03461,0 3.23173,2.71415 4.9562,6.1225 l 1.61953,3.20094 0,16.09156 c 0,9.4421 -0.24496,16.54928 -0.59281,17.19923 -0.6085,1.137 -4.19558,3.61659 -5.2319,3.61659 -0.31875,0 -0.75968,-0.18012 -0.97983,-0.40027 z m -39.92726,-0.38053 c -1.06935,-1.2885 -18.11143,-51.52624 -18.11143,-53.39005 0,-2.77608 5.02815,-6.4984 6.6117,-4.8946 0.28587,0.28953 4.62563,12.49664 9.64388,27.1269 10.04003,29.27078 9.85224,28.27925 5.82137,30.73688 -2.30016,1.40241 -3.08204,1.48539 -3.96552,0.42086 z m -35.45699,-0.0402 c -0.52195,-0.62891 -0.17698,-2.2797 1.47422,-7.0547 1.18559,-3.42853 2.47231,-6.5609 2.85937,-6.96083 0.79612,-0.82256 4.87186,-1.46508 6.15942,-0.971 1.19149,0.45722 1.06756,1.74451 -0.65578,6.81133 -1.65385,4.86251 -3.20049,6.92411 -6.13149,8.173 -2.40944,1.02665 -2.85531,1.02691 -3.70574,0.002 z m -38.59639,0.0705 c -0.85645,-0.68773 -11.98536,-19.91241 -12.80482,-22.11974 -0.24225,-0.65255 0.55854,-1.69842 2.52488,-3.29763 5.63424,-4.58228 7.04906,-7.53253 6.68681,-13.94359 -0.19402,-3.43358 -0.53182,-4.54025 -1.95571,-6.40706 -2.86935,-3.76191 -5.90099,-4.72157 -15.81075,-5.00486 -7.48643,-0.21401 -8.5557,-0.36961 -8.5557,-1.24502 0,-1.47882 1.63739,-3.55368 3.60903,-4.57325 2.7999,-1.44789 15.58618,-1.23443 20.70171,0.34559 7.32457,2.26233 11.11943,7.7719 11.10701,16.1257 -0.008,5.35718 -1.81644,9.1394 -6.21465,12.99719 -1.8539,1.6261 -3.37414,3.40914 -3.37831,3.96229 -0.004,0.55316 2.4208,4.87604 5.38881,9.60641 2.96802,4.73037 5.39964,9.18928 5.4036,9.90868 0.008,1.51938 -1.36658,3.06221 -3.42724,3.84567 -1.87697,0.71363 -2.15782,0.69644 -3.27467,-0.20038 z m -29.51502,0.35023 c -0.22015,-0.22014 -0.40027,-4.91939 -0.40027,-10.44276 0,-11.25049 -0.20314,-10.77138 4.56697,-10.77138 3.46887,0 3.83863,0.95023 3.83863,9.86472 0,6.05058 -0.14081,6.96356 -1.3016,8.43928 -1.73129,2.20097 -5.69306,3.92081 -6.70373,2.91014 z m -66.85006,0.1364 c -9.31982,-2.91413 -13.33545,-10.76925 -13.38235,-26.1777 -0.028,-9.1859 1.02617,-13.40887 4.0079,-16.05601 1.2208,-1.0838 2.85982,-2.13123 3.64228,-2.32762 2.37825,-0.5969 2.7433,0.42447 1.89161,5.29255 -1.20585,6.89229 -1.05153,18.69883 0.29912,22.8853 1.56655,4.85567 4.95441,8.55984 8.90074,9.73177 3.97907,1.18166 6.02049,1.12655 10.05647,-0.27146 1.81621,-0.62912 3.52782,-0.92152 3.80359,-0.64979 1.45766,1.43632 -3.50369,6.76314 -7.27454,7.81041 -3.01552,0.8375 -8.87982,0.72092 -11.94482,-0.23745 z" />
</svg>
