  0
SECTION
  2
HEADER
  9
$ACADVER
  1
AC1014
  9
$HANDSEED
  5
FFFF
  9
$MEASUREMENT
 70
     1
  0
ENDSEC
  0
SECTION
  2
TABLES
  0
TABLE
  2
VPORT
  5
8
330
0
100
AcDbSymbolTable
 70
     4
  0
VPORT
  5
2E
330
8
100
AcDbSymbolTableRecord
100
AcDbViewportTableRecord
  2
*ACTIVE
 70
     0
 10
0.0
 20
0.0
 11
1.0
 21
1.0
 12
210.0
 22
148.5
 13
0.0
 23
0.0
 14
10.0
 24
10.0
 15
10.0
 25
10.0
 16
0.0
 26
0.0
 36
1.0
 17
0.0
 27
0.0
 37
0.0
 40
341.0
 41
1.24
 42
50.0
 43
0.0
 44
0.0
 50
0.0
 51
0.0
 71
     0
 72
   100
 73
     1
 74
     3
 75
     0
 76
     0
 77
     0
 78
     0
  0
ENDTAB
  0
TABLE
  2
LTYPE
  5
5
330
0
100
AcDbSymbolTable
 70
     1
  0
LTYPE
  5
14
330
5
100
AcDbSymbolTableRecord
100
AcDbLinetypeTableRecord
  2
BYBLOCK
 70
     0
  3

 72
    65
 73
     0
 40
0.0
  0
LTYPE
  5
15
330
5
100
AcDbSymbolTableRecord
100
AcDbLinetypeTableRecord
  2
BYLAYER
 70
     0
  3

 72
    65
 73
     0
 40
0.0
  0
LTYPE
  5
16
330
5
100
AcDbSymbolTableRecord
100
AcDbLinetypeTableRecord
  2
CONTINUOUS
 70
     0
  3
Solid line
 72
    65
 73
     0
 40
0.0
  0
ENDTAB
  0
TABLE
  2
LAYER
  5
2
100
AcDbSymbolTable
 70
2
  0
LAYER
  5
50
100
AcDbSymbolTableRecord
100
AcDbLayerTableRecord
  2
0
 70
0
  6
CONTINUOUS
  0
LAYER
  5
51
100
AcDbSymbolTableRecord
100
AcDbLayerTableRecord
  2
Layer_1
 70
0
  6
CONTINUOUS
  0
ENDTAB
  0
TABLE
  2
STYLE
  5
3
330
0
100
AcDbSymbolTable
 70
     1
  0
STYLE
  5
11
330
3
100
AcDbSymbolTableRecord
100
AcDbTextStyleTableRecord
  2
STANDARD
 70
     0
 40
0.0
 41
1.0
 50
0.0
 71
     0
 42
2.5
  3
txt
  4

  0
ENDTAB
  0
TABLE
  2
VIEW
  5
6
330
0
100
AcDbSymbolTable
 70
     0
  0
ENDTAB
  0
TABLE
  2
UCS
  5
7
330
0
100
AcDbSymbolTable
 70
     0
  0
ENDTAB
  0
TABLE
  2
APPID
  5
9
330
0
100
AcDbSymbolTable
 70
     2
  0
APPID
  5
12
330
9
100
AcDbSymbolTableRecord
100
AcDbRegAppTableRecord
  2
ACAD
 70
     0
  0
ENDTAB
  0
TABLE
  2
DIMSTYLE
  5
A
330
0
100
AcDbSymbolTable
 70
     1
  0
DIMSTYLE
105
27
330
A
100
AcDbSymbolTableRecord
100
AcDbDimStyleTableRecord
  2
ISO-25
 70
     0
  3

  4

  5

  6

  7

 40
1.0
 41
2.5
 42
0.625
 43
3.75
 44
1.25
 45
0.0
 46
0.0
 47
0.0
 48
0.0
140
2.5
141
2.5
142
0.0
143
0.03937007874016
144
1.0
145
0.0
146
1.0
147
0.625
 71
     0
 72
     0
 73
     0
 74
     0
 75
     0
 76
     0
 77
     1
 78
     8
170
     0
171
     3
172
     1
173
     0
174
     0
175
     0
176
     0
177
     0
178
     0
270
     2
271
     2
272
     2
273
     2
274
     3
340
11
275
     0
280
     0
281
     0
282
     0
283
     0
284
     8
285
     0
286
     0
287
     3
288
     0
  0
ENDTAB
  0
TABLE
  2
BLOCK_RECORD
  5
1
330
0
100
AcDbSymbolTable
 70
     1
  0
BLOCK_RECORD
  5
1F
330
1
100
AcDbSymbolTableRecord
100
AcDbBlockTableRecord
  2
*MODEL_SPACE
  0
BLOCK_RECORD
  5
1B
330
1
100
AcDbSymbolTableRecord
100
AcDbBlockTableRecord
  2
*PAPER_SPACE
  0
ENDTAB
  0
ENDSEC
  0
SECTION
  2
BLOCKS
  0
BLOCK
  5
20
330
1F
100
AcDbEntity
  8
0
100
AcDbBlockBegin
  2
*MODEL_SPACE
 70
     0
 10
0.0
 20
0.0
 30
0.0
  3
*MODEL_SPACE
  1

  0
ENDBLK
  5
21
330
1F
100
AcDbEntity
  8
0
100
AcDbBlockEnd
  0
BLOCK
  5
1C
330
1B
100
AcDbEntity
 67
     1
  8
0
100
AcDbBlockBegin
  2
*PAPER_SPACE
  1

  0
ENDBLK
  5
1D
330
1B
100
AcDbEntity
 67
     1
  8
0
100
AcDbBlockEnd
  0
ENDSEC
  0
SECTION
  2
ENTITIES
  0
LWPOLYLINE
  5
100
100
AcDbEntity
  8
Layer_1
 62
7
100
AcDbPolyline
 90
73
 70
0
 10
78.742972
 20
109.658194
 30
0.0
 10
84.796638
 20
109.658194
 30
0.0
 10
84.881305
 20
107.118194
 30
0.0
 10
84.246305
 20
107.118194
 30
0.0
 10
84.076972
 20
107.795527
 30
0.0
 10
83.992305
 20
108.134194
 30
0.0
 10
83.822972
 20
108.430527
 30
0.0
 10
83.738305
 20
108.599860
 30
0.0
 10
83.611305
 20
108.726860
 30
0.0
 10
83.484305
 20
108.853860
 30
0.0
 10
83.314972
 20
108.938527
 30
0.0
 10
83.187972
 20
109.023194
 30
0.0
 10
83.018638
 20
109.065527
 30
0.0
 10
82.637638
 20
109.107860
 30
0.0
 10
81.282972
 20
109.107860
 30
0.0
 10
81.198305
 20
109.065527
 30
0.0
 10
81.155972
 20
109.023194
 30
0.0
 10
81.113638
 20
108.853860
 30
0.0
 10
81.113638
 20
106.440860
 30
0.0
 10
81.536972
 20
106.440860
 30
0.0
 10
81.748638
 20
106.483194
 30
0.0
 10
82.002638
 20
106.610194
 30
0.0
 10
82.171972
 20
106.737194
 30
0.0
 10
82.298972
 20
106.948860
 30
0.0
 10
82.383638
 20
107.202860
 30
0.0
 10
82.468305
 20
107.414527
 30
0.0
 10
82.510638
 20
107.922527
 30
0.0
 10
83.145638
 20
107.922527
 30
0.0
 10
83.145638
 20
104.451194
 30
0.0
 10
82.510638
 20
104.451194
 30
0.0
 10
82.468305
 20
104.959194
 30
0.0
 10
82.383638
 20
105.213194
 30
0.0
 10
82.298972
 20
105.424860
 30
0.0
 10
82.171972
 20
105.636527
 30
0.0
 10
81.960305
 20
105.805860
 30
0.0
 10
81.706305
 20
105.890527
 30
0.0
 10
81.452305
 20
105.890527
 30
0.0
 10
81.113638
 20
105.890527
 30
0.0
 10
81.113638
 20
103.223527
 30
0.0
 10
81.113638
 20
103.096527
 30
0.0
 10
81.198305
 20
103.011860
 30
0.0
 10
81.282972
 20
102.969527
 30
0.0
 10
81.367638
 20
102.969527
 30
0.0
 10
82.468305
 20
102.969527
 30
0.0
 10
82.891638
 20
103.011860
 30
0.0
 10
83.103305
 20
103.096527
 30
0.0
 10
83.272638
 20
103.138860
 30
0.0
 10
83.484305
 20
103.265860
 30
0.0
 10
83.611305
 20
103.392860
 30
0.0
 10
83.780638
 20
103.519860
 30
0.0
 10
83.907638
 20
103.689194
 30
0.0
 10
84.119305
 20
104.070194
 30
0.0
 10
84.246305
 20
104.451194
 30
0.0
 10
84.373305
 20
104.874527
 30
0.0
 10
84.415638
 20
105.255527
 30
0.0
 10
85.050638
 20
105.255527
 30
0.0
 10
84.965972
 20
102.419194
 30
0.0
 10
78.742972
 20
102.419194
 30
0.0
 10
78.742972
 20
102.969527
 30
0.0
 10
79.377972
 20
102.969527
 30
0.0
 10
79.547305
 20
103.011860
 30
0.0
 10
79.674305
 20
103.011860
 30
0.0
 10
79.758972
 20
103.054194
 30
0.0
 10
79.801305
 20
103.138860
 30
0.0
 10
79.843638
 20
103.181194
 30
0.0
 10
79.843638
 20
103.265860
 30
0.0
 10
79.843638
 20
108.853860
 30
0.0
 10
79.801305
 20
108.980860
 30
0.0
 10
79.716638
 20
109.065527
 30
0.0
 10
79.589638
 20
109.107860
 30
0.0
 10
79.462638
 20
109.107860
 30
0.0
 10
78.742972
 20
109.107860
 30
0.0
 10
78.742972
 20
109.658194
 30
0.0
  0
LWPOLYLINE
  5
101
100
AcDbEntity
  8
Layer_1
 62
7
100
AcDbPolyline
 90
4
 70
0
 10
90.553972
 20
108.218860
 30
0.0
 10
89.453305
 20
105.255527
 30
0.0
 10
91.612305
 20
105.255527
 30
0.0
 10
90.553972
 20
108.218860
 30
0.0
  0
LWPOLYLINE
  5
102
100
AcDbEntity
  8
Layer_1
 62
7
100
AcDbPolyline
 90
40
 70
0
 10
88.225638
 20
103.689194
 30
0.0
 10
90.596305
 20
109.742860
 30
0.0
 10
91.231305
 20
109.742860
 30
0.0
 10
93.686638
 20
103.308194
 30
0.0
 10
93.771305
 20
103.181194
 30
0.0
 10
93.855972
 20
103.054194
 30
0.0
 10
93.982972
 20
103.011860
 30
0.0
 10
94.109972
 20
102.969527
 30
0.0
 10
94.490972
 20
102.969527
 30
0.0
 10
94.490972
 20
102.419194
 30
0.0
 10
91.400638
 20
102.419194
 30
0.0
 10
91.400638
 20
102.969527
 30
0.0
 10
91.696972
 20
102.969527
 30
0.0
 10
91.993305
 20
103.011860
 30
0.0
 10
92.162638
 20
103.011860
 30
0.0
 10
92.289638
 20
103.054194
 30
0.0
 10
92.331972
 20
103.096527
 30
0.0
 10
92.374305
 20
103.181194
 30
0.0
 10
92.331972
 20
103.308194
 30
0.0
 10
91.781638
 20
104.705194
 30
0.0
 10
89.241638
 20
104.705194
 30
0.0
 10
88.945305
 20
103.943194
 30
0.0
 10
88.860638
 20
103.689194
 30
0.0
 10
88.818305
 20
103.435194
 30
0.0
 10
88.860638
 20
103.350527
 30
0.0
 10
88.902972
 20
103.223527
 30
0.0
 10
88.987638
 20
103.138860
 30
0.0
 10
89.072305
 20
103.054194
 30
0.0
 10
89.283972
 20
103.011860
 30
0.0
 10
89.495638
 20
102.969527
 30
0.0
 10
89.918972
 20
102.969527
 30
0.0
 10
89.918972
 20
102.419194
 30
0.0
 10
87.082638
 20
102.419194
 30
0.0
 10
87.082638
 20
102.969527
 30
0.0
 10
87.463638
 20
103.011860
 30
0.0
 10
87.632972
 20
103.054194
 30
0.0
 10
87.759972
 20
103.138860
 30
0.0
 10
87.929305
 20
103.265860
 30
0.0
 10
88.013972
 20
103.392860
 30
0.0
 10
88.225638
 20
103.689194
 30
0.0
  0
LWPOLYLINE
  5
103
100
AcDbEntity
  8
Layer_1
 62
7
100
AcDbPolyline
 90
49
 70
0
 10
96.607638
 20
109.658194
 30
0.0
 10
102.491972
 20
109.658194
 30
0.0
 10
102.661305
 20
106.821860
 30
0.0
 10
102.026305
 20
106.821860
 30
0.0
 10
101.899305
 20
107.583860
 30
0.0
 10
101.772305
 20
107.922527
 30
0.0
 10
101.645305
 20
108.261194
 30
0.0
 10
101.433638
 20
108.599860
 30
0.0
 10
101.306638
 20
108.726860
 30
0.0
 10
101.179638
 20
108.853860
 30
0.0
 10
101.010305
 20
108.980860
 30
0.0
 10
100.840972
 20
109.065527
 30
0.0
 10
100.671638
 20
109.107860
 30
0.0
 10
100.459972
 20
109.107860
 30
0.0
 10
100.332972
 20
109.107860
 30
0.0
 10
100.290638
 20
109.065527
 30
0.0
 10
100.248305
 20
109.023194
 30
0.0
 10
100.205972
 20
108.938527
 30
0.0
 10
100.205972
 20
108.811527
 30
0.0
 10
100.205972
 20
103.223527
 30
0.0
 10
100.205972
 20
103.138860
 30
0.0
 10
100.248305
 20
103.011860
 30
0.0
 10
100.332972
 20
103.011860
 30
0.0
 10
100.417638
 20
102.969527
 30
0.0
 10
101.306638
 20
102.969527
 30
0.0
 10
101.306638
 20
102.419194
 30
0.0
 10
97.792972
 20
102.419194
 30
0.0
 10
97.792972
 20
102.969527
 30
0.0
 10
98.681972
 20
102.969527
 30
0.0
 10
98.766638
 20
103.011860
 30
0.0
 10
98.851305
 20
103.011860
 30
0.0
 10
98.893638
 20
103.096527
 30
0.0
 10
98.893638
 20
103.181194
 30
0.0
 10
98.893638
 20
108.853860
 30
0.0
 10
98.893638
 20
108.980860
 30
0.0
 10
98.808972
 20
109.065527
 30
0.0
 10
98.681972
 20
109.107860
 30
0.0
 10
98.554972
 20
109.107860
 30
0.0
 10
98.258638
 20
109.065527
 30
0.0
 10
98.004638
 20
108.938527
 30
0.0
 10
97.750638
 20
108.726860
 30
0.0
 10
97.581305
 20
108.515194
 30
0.0
 10
97.454305
 20
108.303527
 30
0.0
 10
97.369638
 20
108.134194
 30
0.0
 10
97.242638
 20
107.710860
 30
0.0
 10
97.157972
 20
107.245194
 30
0.0
 10
97.073305
 20
106.821860
 30
0.0
 10
96.438305
 20
106.821860
 30
0.0
 10
96.607638
 20
109.658194
 30
0.0
  0
LWPOLYLINE
  5
104
100
AcDbEntity
  8
Layer_1
 62
7
100
AcDbPolyline
 90
22
 70
0
 10
95.930305
 20
119.056194
 30
0.0
 10
96.057305
 20
119.056194
 30
0.0
 10
96.141972
 20
119.183194
 30
0.0
 10
96.141972
 20
119.310194
 30
0.0
 10
96.184305
 20
119.437194
 30
0.0
 10
96.141972
 20
119.606527
 30
0.0
 10
96.099638
 20
119.818194
 30
0.0
 10
96.014972
 20
119.987527
 30
0.0
 10
95.887972
 20
120.156860
 30
0.0
 10
95.760972
 20
120.283860
 30
0.0
 10
95.591638
 20
120.410860
 30
0.0
 10
95.422305
 20
120.495527
 30
0.0
 10
95.210638
 20
120.495527
 30
0.0
 10
94.956638
 20
120.453194
 30
0.0
 10
94.744972
 20
120.326194
 30
0.0
 10
94.575638
 20
120.156860
 30
0.0
 10
94.448638
 20
119.987527
 30
0.0
 10
94.363972
 20
119.733527
 30
0.0
 10
94.279305
 20
119.521860
 30
0.0
 10
94.236972
 20
119.267860
 30
0.0
 10
94.236972
 20
119.056194
 30
0.0
 10
95.930305
 20
119.056194
 30
0.0
  0
LWPOLYLINE
  5
105
100
AcDbEntity
  8
Layer_1
 62
7
100
AcDbPolyline
 90
65
 70
0
 10
97.369638
 20
118.505860
 30
0.0
 10
94.236972
 20
118.505860
 30
0.0
 10
94.279305
 20
118.167194
 30
0.0
 10
94.321638
 20
117.828527
 30
0.0
 10
94.406305
 20
117.532194
 30
0.0
 10
94.490972
 20
117.405194
 30
0.0
 10
94.575638
 20
117.278194
 30
0.0
 10
94.744972
 20
117.108860
 30
0.0
 10
94.956638
 20
116.939527
 30
0.0
 10
95.168305
 20
116.854860
 30
0.0
 10
95.422305
 20
116.854860
 30
0.0
 10
95.676305
 20
116.854860
 30
0.0
 10
95.887972
 20
116.939527
 30
0.0
 10
96.099638
 20
117.024194
 30
0.0
 10
96.268972
 20
117.151194
 30
0.0
 10
96.438305
 20
117.278194
 30
0.0
 10
96.565305
 20
117.489860
 30
0.0
 10
96.819305
 20
117.828527
 30
0.0
 10
97.369638
 20
117.659194
 30
0.0
 10
97.200305
 20
117.362860
 30
0.0
 10
96.988638
 20
117.066527
 30
0.0
 10
96.776972
 20
116.812527
 30
0.0
 10
96.522972
 20
116.600860
 30
0.0
 10
96.226638
 20
116.431527
 30
0.0
 10
95.887972
 20
116.304527
 30
0.0
 10
95.549305
 20
116.219860
 30
0.0
 10
95.210638
 20
116.219860
 30
0.0
 10
94.998972
 20
116.219860
 30
0.0
 10
94.787305
 20
116.262194
 30
0.0
 10
94.533305
 20
116.304527
 30
0.0
 10
94.363972
 20
116.389194
 30
0.0
 10
94.152305
 20
116.473860
 30
0.0
 10
93.940638
 20
116.600860
 30
0.0
 10
93.771305
 20
116.770194
 30
0.0
 10
93.644305
 20
116.897194
 30
0.0
 10
93.474972
 20
117.108860
 30
0.0
 10
93.390305
 20
117.278194
 30
0.0
 10
93.263305
 20
117.489860
 30
0.0
 10
93.178638
 20
117.701527
 30
0.0
 10
93.093972
 20
118.124860
 30
0.0
 10
93.051638
 20
118.548194
 30
0.0
 10
93.093972
 20
119.013860
 30
0.0
 10
93.178638
 20
119.479527
 30
0.0
 10
93.347972
 20
119.902860
 30
0.0
 10
93.474972
 20
120.114527
 30
0.0
 10
93.601972
 20
120.283860
 30
0.0
 10
93.771305
 20
120.453194
 30
0.0
 10
93.940638
 20
120.622527
 30
0.0
 10
94.109972
 20
120.749527
 30
0.0
 10
94.321638
 20
120.834194
 30
0.0
 10
94.533305
 20
120.918860
 30
0.0
 10
94.744972
 20
121.003527
 30
0.0
 10
94.956638
 20
121.045860
 30
0.0
 10
95.210638
 20
121.045860
 30
0.0
 10
95.506972
 20
121.045860
 30
0.0
 10
95.845638
 20
120.961194
 30
0.0
 10
96.141972
 20
120.876527
 30
0.0
 10
96.395972
 20
120.707194
 30
0.0
 10
96.649972
 20
120.495527
 30
0.0
 10
96.861638
 20
120.283860
 30
0.0
 10
97.030972
 20
119.987527
 30
0.0
 10
97.157972
 20
119.691194
 30
0.0
 10
97.242638
 20
119.394860
 30
0.0
 10
97.327305
 20
119.098527
 30
0.0
 10
97.369638
 20
118.505860
 30
0.0
  0
LWPOLYLINE
  5
106
100
AcDbEntity
  8
Layer_1
 62
7
100
AcDbPolyline
 90
28
 70
0
 10
73.197305
 20
120.029860
 30
0.0
 10
73.493638
 20
120.072194
 30
0.0
 10
73.832305
 20
120.114527
 30
0.0
 10
74.086305
 20
120.199194
 30
0.0
 10
74.255638
 20
120.283860
 30
0.0
 10
74.340305
 20
120.368527
 30
0.0
 10
74.467305
 20
120.495527
 30
0.0
 10
74.551972
 20
120.622527
 30
0.0
 10
74.636638
 20
120.918860
 30
0.0
 10
74.678972
 20
121.215194
 30
0.0
 10
74.678972
 20
121.511527
 30
0.0
 10
74.678972
 20
121.850194
 30
0.0
 10
74.636638
 20
122.146527
 30
0.0
 10
74.594305
 20
122.315860
 30
0.0
 10
74.509638
 20
122.442860
 30
0.0
 10
74.424972
 20
122.569860
 30
0.0
 10
74.297972
 20
122.696860
 30
0.0
 10
74.170972
 20
122.781527
 30
0.0
 10
74.001638
 20
122.866194
 30
0.0
 10
73.705305
 20
122.908527
 30
0.0
 10
73.408972
 20
122.950860
 30
0.0
 10
73.070305
 20
122.950860
 30
0.0
 10
72.689305
 20
122.950860
 30
0.0
 10
72.562305
 20
122.908527
 30
0.0
 10
72.519972
 20
122.823860
 30
0.0
 10
72.519972
 20
122.612194
 30
0.0
 10
72.519972
 20
120.029860
 30
0.0
 10
73.197305
 20
120.029860
 30
0.0
  0
LWPOLYLINE
  5
107
100
AcDbEntity
  8
Layer_1
 62
7
100
AcDbPolyline
 90
51
 70
0
 10
70.106972
 20
123.501194
 30
0.0
 10
73.620638
 20
123.501194
 30
0.0
 10
74.086305
 20
123.501194
 30
0.0
 10
74.509638
 20
123.416527
 30
0.0
 10
74.975305
 20
123.289527
 30
0.0
 10
75.144638
 20
123.204860
 30
0.0
 10
75.356305
 20
123.077860
 30
0.0
 10
75.525638
 20
122.908527
 30
0.0
 10
75.694972
 20
122.781527
 30
0.0
 10
75.821972
 20
122.569860
 30
0.0
 10
75.948972
 20
122.400527
 30
0.0
 10
76.033638
 20
122.188860
 30
0.0
 10
76.118305
 20
121.977194
 30
0.0
 10
76.160638
 20
121.723194
 30
0.0
 10
76.160638
 20
121.511527
 30
0.0
 10
76.118305
 20
121.130527
 30
0.0
 10
76.075972
 20
120.918860
 30
0.0
 10
76.033638
 20
120.749527
 30
0.0
 10
75.906638
 20
120.580194
 30
0.0
 10
75.821972
 20
120.410860
 30
0.0
 10
75.694972
 20
120.283860
 30
0.0
 10
75.525638
 20
120.114527
 30
0.0
 10
75.313972
 20
119.987527
 30
0.0
 10
75.102305
 20
119.860527
 30
0.0
 10
74.848305
 20
119.733527
 30
0.0
 10
74.594305
 20
119.648860
 30
0.0
 10
74.086305
 20
119.521860
 30
0.0
 10
73.535972
 20
119.479527
 30
0.0
 10
72.519972
 20
119.479527
 30
0.0
 10
72.519972
 20
117.151194
 30
0.0
 10
72.519972
 20
117.066527
 30
0.0
 10
72.562305
 20
116.939527
 30
0.0
 10
72.646972
 20
116.854860
 30
0.0
 10
72.773972
 20
116.854860
 30
0.0
 10
73.789972
 20
116.854860
 30
0.0
 10
73.789972
 20
116.304527
 30
0.0
 10
70.106972
 20
116.304527
 30
0.0
 10
70.106972
 20
116.854860
 30
0.0
 10
70.911305
 20
116.854860
 30
0.0
 10
71.038305
 20
116.854860
 30
0.0
 10
71.122972
 20
116.897194
 30
0.0
 10
71.207638
 20
116.939527
 30
0.0
 10
71.207638
 20
117.066527
 30
0.0
 10
71.207638
 20
122.654527
 30
0.0
 10
71.207638
 20
122.823860
 30
0.0
 10
71.122972
 20
122.908527
 30
0.0
 10
71.080638
 20
122.908527
 30
0.0
 10
70.911305
 20
122.950860
 30
0.0
 10
70.741972
 20
122.950860
 30
0.0
 10
70.106972
 20
122.950860
 30
0.0
 10
70.106972
 20
123.501194
 30
0.0
  0
LWPOLYLINE
  5
108
100
AcDbEntity
  8
Layer_1
 62
7
100
AcDbPolyline
 90
25
 70
0
 10
81.663972
 20
118.590527
 30
0.0
 10
81.282972
 20
118.505860
 30
0.0
 10
80.859638
 20
118.421194
 30
0.0
 10
80.478638
 20
118.294194
 30
0.0
 10
80.139972
 20
118.082527
 30
0.0
 10
80.012972
 20
117.955527
 30
0.0
 10
79.928305
 20
117.786194
 30
0.0
 10
79.843638
 20
117.574527
 30
0.0
 10
79.843638
 20
117.405194
 30
0.0
 10
79.885972
 20
117.151194
 30
0.0
 10
79.885972
 20
117.066527
 30
0.0
 10
79.970638
 20
116.939527
 30
0.0
 10
80.055305
 20
116.854860
 30
0.0
 10
80.139972
 20
116.812527
 30
0.0
 10
80.266972
 20
116.770194
 30
0.0
 10
80.351638
 20
116.770194
 30
0.0
 10
80.605638
 20
116.770194
 30
0.0
 10
80.859638
 20
116.854860
 30
0.0
 10
81.113638
 20
116.981860
 30
0.0
 10
81.282972
 20
117.151194
 30
0.0
 10
81.452305
 20
117.320527
 30
0.0
 10
81.579305
 20
117.574527
 30
0.0
 10
81.663972
 20
117.828527
 30
0.0
 10
81.663972
 20
118.082527
 30
0.0
 10
81.663972
 20
118.590527
 30
0.0
  0
LWPOLYLINE
  5
109
100
AcDbEntity
  8
Layer_1
 62
7
100
AcDbPolyline
 90
96
 70
0
 10
83.399638
 20
116.939527
 30
0.0
 10
83.695972
 20
116.600860
 30
0.0
 10
83.484305
 20
116.431527
 30
0.0
 10
83.230305
 20
116.304527
 30
0.0
 10
82.976305
 20
116.219860
 30
0.0
 10
82.722305
 20
116.219860
 30
0.0
 10
82.552972
 20
116.219860
 30
0.0
 10
82.383638
 20
116.262194
 30
0.0
 10
82.256638
 20
116.304527
 30
0.0
 10
82.129638
 20
116.389194
 30
0.0
 10
82.002638
 20
116.516194
 30
0.0
 10
81.917972
 20
116.643194
 30
0.0
 10
81.790972
 20
116.981860
 30
0.0
 10
81.621638
 20
116.770194
 30
0.0
 10
81.452305
 20
116.600860
 30
0.0
 10
81.282972
 20
116.473860
 30
0.0
 10
81.071305
 20
116.389194
 30
0.0
 10
80.859638
 20
116.304527
 30
0.0
 10
80.605638
 20
116.219860
 30
0.0
 10
80.139972
 20
116.219860
 30
0.0
 10
79.885972
 20
116.219860
 30
0.0
 10
79.631972
 20
116.262194
 30
0.0
 10
79.377972
 20
116.304527
 30
0.0
 10
79.166305
 20
116.431527
 30
0.0
 10
78.954638
 20
116.600860
 30
0.0
 10
78.785305
 20
116.812527
 30
0.0
 10
78.700638
 20
117.066527
 30
0.0
 10
78.658305
 20
117.320527
 30
0.0
 10
78.658305
 20
117.574527
 30
0.0
 10
78.742972
 20
117.786194
 30
0.0
 10
78.869972
 20
117.997860
 30
0.0
 10
79.039305
 20
118.167194
 30
0.0
 10
79.208638
 20
118.336527
 30
0.0
 10
79.420305
 20
118.463527
 30
0.0
 10
79.843638
 20
118.675194
 30
0.0
 10
80.266972
 20
118.844527
 30
0.0
 10
80.732638
 20
118.971527
 30
0.0
 10
81.198305
 20
119.056194
 30
0.0
 10
81.663972
 20
119.098527
 30
0.0
 10
81.663972
 20
119.733527
 30
0.0
 10
81.663972
 20
119.860527
 30
0.0
 10
81.579305
 20
120.029860
 30
0.0
 10
81.494638
 20
120.199194
 30
0.0
 10
81.367638
 20
120.283860
 30
0.0
 10
81.240638
 20
120.368527
 30
0.0
 10
81.071305
 20
120.453194
 30
0.0
 10
80.901972
 20
120.495527
 30
0.0
 10
80.774972
 20
120.495527
 30
0.0
 10
80.436305
 20
120.453194
 30
0.0
 10
80.139972
 20
120.368527
 30
0.0
 10
80.055305
 20
120.283860
 30
0.0
 10
80.012972
 20
120.199194
 30
0.0
 10
80.097638
 20
120.029860
 30
0.0
 10
80.182305
 20
119.860527
 30
0.0
 10
80.224638
 20
119.691194
 30
0.0
 10
80.182305
 20
119.564194
 30
0.0
 10
80.139972
 20
119.437194
 30
0.0
 10
80.097638
 20
119.352527
 30
0.0
 10
80.012972
 20
119.267860
 30
0.0
 10
79.885972
 20
119.183194
 30
0.0
 10
79.801305
 20
119.140860
 30
0.0
 10
79.547305
 20
119.140860
 30
0.0
 10
79.420305
 20
119.140860
 30
0.0
 10
79.293305
 20
119.183194
 30
0.0
 10
79.208638
 20
119.225527
 30
0.0
 10
79.081638
 20
119.310194
 30
0.0
 10
79.039305
 20
119.394860
 30
0.0
 10
78.954638
 20
119.521860
 30
0.0
 10
78.912305
 20
119.775860
 30
0.0
 10
78.954638
 20
119.945194
 30
0.0
 10
78.996972
 20
120.072194
 30
0.0
 10
79.081638
 20
120.241527
 30
0.0
 10
79.166305
 20
120.368527
 30
0.0
 10
79.420305
 20
120.580194
 30
0.0
 10
79.674305
 20
120.749527
 30
0.0
 10
79.970638
 20
120.918860
 30
0.0
 10
80.309305
 20
121.003527
 30
0.0
 10
80.605638
 20
121.045860
 30
0.0
 10
80.944305
 20
121.045860
 30
0.0
 10
81.282972
 20
121.045860
 30
0.0
 10
81.663972
 20
120.961194
 30
0.0
 10
81.960305
 20
120.876527
 30
0.0
 10
82.129638
 20
120.791860
 30
0.0
 10
82.298972
 20
120.707194
 30
0.0
 10
82.468305
 20
120.495527
 30
0.0
 10
82.637638
 20
120.283860
 30
0.0
 10
82.722305
 20
120.029860
 30
0.0
 10
82.764638
 20
119.775860
 30
0.0
 10
82.764638
 20
117.362860
 30
0.0
 10
82.764638
 20
117.151194
 30
0.0
 10
82.806972
 20
117.066527
 30
0.0
 10
82.849305
 20
116.939527
 30
0.0
 10
82.891638
 20
116.897194
 30
0.0
 10
82.933972
 20
116.854860
 30
0.0
 10
83.187972
 20
116.854860
 30
0.0
 10
83.399638
 20
116.939527
 30
0.0
  0
LWPOLYLINE
  5
10a
100
AcDbEntity
  8
Layer_1
 62
7
100
AcDbPolyline
 90
33
 70
0
 10
85.643305
 20
120.961194
 30
0.0
 10
88.098638
 20
120.961194
 30
0.0
 10
88.098638
 20
120.410860
 30
0.0
 10
87.717638
 20
120.410860
 30
0.0
 10
87.548305
 20
120.368527
 30
0.0
 10
87.463638
 20
120.368527
 30
0.0
 10
87.421305
 20
120.241527
 30
0.0
 10
87.421305
 20
120.156860
 30
0.0
 10
87.463638
 20
120.072194
 30
0.0
 10
88.479638
 20
117.574527
 30
0.0
 10
89.410972
 20
119.945194
 30
0.0
 10
89.410972
 20
120.072194
 30
0.0
 10
89.410972
 20
120.156860
 30
0.0
 10
89.326305
 20
120.241527
 30
0.0
 10
89.156972
 20
120.326194
 30
0.0
 10
88.945305
 20
120.368527
 30
0.0
 10
88.733638
 20
120.410860
 30
0.0
 10
88.733638
 20
120.961194
 30
0.0
 10
90.850305
 20
120.961194
 30
0.0
 10
90.850305
 20
120.410860
 30
0.0
 10
90.638638
 20
120.410860
 30
0.0
 10
90.426972
 20
120.368527
 30
0.0
 10
90.342305
 20
120.283860
 30
0.0
 10
90.257638
 20
120.241527
 30
0.0
 10
90.130638
 20
120.072194
 30
0.0
 10
88.437305
 20
116.219860
 30
0.0
 10
87.971638
 20
116.219860
 30
0.0
 10
86.278305
 20
120.114527
 30
0.0
 10
86.193638
 20
120.283860
 30
0.0
 10
86.108972
 20
120.326194
 30
0.0
 10
86.024305
 20
120.368527
 30
0.0
 10
85.643305
 20
120.410860
 30
0.0
 10
85.643305
 20
120.961194
 30
0.0
  0
LWPOLYLINE
  5
10b
100
AcDbEntity
  8
Layer_1
 62
7
100
AcDbPolyline
 90
22
 70
0
 10
101.772305
 20
123.501194
 30
0.0
 10
101.772305
 20
117.066527
 30
0.0
 10
101.772305
 20
116.897194
 30
0.0
 10
101.899305
 20
116.854860
 30
0.0
 10
101.983972
 20
116.854860
 30
0.0
 10
102.661305
 20
116.854860
 30
0.0
 10
102.661305
 20
116.304527
 30
0.0
 10
99.740305
 20
116.304527
 30
0.0
 10
99.740305
 20
116.854860
 30
0.0
 10
100.290638
 20
116.854860
 30
0.0
 10
100.459972
 20
116.854860
 30
0.0
 10
100.586972
 20
116.897194
 30
0.0
 10
100.629305
 20
117.024194
 30
0.0
 10
100.671638
 20
117.151194
 30
0.0
 10
100.671638
 20
122.485194
 30
0.0
 10
100.671638
 20
122.612194
 30
0.0
 10
100.586972
 20
122.739194
 30
0.0
 10
100.417638
 20
122.866194
 30
0.0
 10
100.248305
 20
122.866194
 30
0.0
 10
99.740305
 20
122.866194
 30
0.0
 10
99.740305
 20
123.416527
 30
0.0
 10
101.772305
 20
123.501194
 30
0.0
  0
LWPOLYLINE
  5
10c
100
AcDbEntity
  8
Layer_1
 62
7
100
AcDbPolyline
 90
26
 70
0
 10
127.002972
 20
106.440860
 30
0.0
 10
127.299305
 20
106.483194
 30
0.0
 10
127.595638
 20
106.525527
 30
0.0
 10
127.891972
 20
106.610194
 30
0.0
 10
128.145972
 20
106.737194
 30
0.0
 10
128.272972
 20
106.821860
 30
0.0
 10
128.399972
 20
106.948860
 30
0.0
 10
128.526972
 20
107.202860
 30
0.0
 10
128.569305
 20
107.499194
 30
0.0
 10
128.611638
 20
107.795527
 30
0.0
 10
128.611638
 20
108.091860
 30
0.0
 10
128.526972
 20
108.388194
 30
0.0
 10
128.399972
 20
108.684527
 30
0.0
 10
128.315305
 20
108.811527
 30
0.0
 10
128.188305
 20
108.896194
 30
0.0
 10
128.061305
 20
108.980860
 30
0.0
 10
127.934305
 20
109.023194
 30
0.0
 10
127.637972
 20
109.065527
 30
0.0
 10
127.002972
 20
109.107860
 30
0.0
 10
126.621972
 20
109.107860
 30
0.0
 10
126.537305
 20
109.065527
 30
0.0
 10
126.452638
 20
109.023194
 30
0.0
 10
126.410305
 20
108.938527
 30
0.0
 10
126.410305
 20
108.853860
 30
0.0
 10
126.410305
 20
106.440860
 30
0.0
 10
127.002972
 20
106.440860
 30
0.0
  0
LWPOLYLINE
  5
10d
100
AcDbEntity
  8
Layer_1
 62
7
100
AcDbPolyline
 90
25
 70
0
 10
124.039638
 20
109.658194
 30
0.0
 10
127.722638
 20
109.658194
 30
0.0
 10
128.103638
 20
109.658194
 30
0.0
 10
128.526972
 20
109.573527
 30
0.0
 10
128.950305
 20
109.446527
 30
0.0
 10
129.288972
 20
109.234860
 30
0.0
 10
129.627638
 20
108.980860
 30
0.0
 10
129.754638
 20
108.811527
 30
0.0
 10
129.881638
 20
108.642194
 30
0.0
 10
129.966305
 20
108.472860
 30
0.0
 10
130.008638
 20
108.261194
 30
0.0
 10
130.050972
 20
108.049527
 30
0.0
 10
130.050972
 20
107.837860
 30
0.0
 10
130.050972
 20
107.626194
 30
0.0
 10
130.008638
 20
107.456860
 30
0.0
 10
129.966305
 20
107.245194
 30
0.0
 10
129.881638
 20
107.075860
 30
0.0
 10
129.754638
 20
106.906527
 30
0.0
 10
129.627638
 20
106.737194
 30
0.0
 10
129.500638
 20
106.610194
 30
0.0
 10
129.331305
 20
106.483194
 30
0.0
 10
128.992638
 20
106.313860
 30
0.0
 10
128.611638
 20
106.186860
 30
0.0
 10
128.188305
 20
106.102194
 30
0.0
 10
127.807305
 20
106.102194
 30
0.0
  0
LWPOLYLINE
  5
10e
100
AcDbEntity
  8
Layer_1
 62
7
100
AcDbPolyline
 90
59
 70
0
 10
129.712305
 20
103.265860
 30
0.0
 10
129.796972
 20
103.138860
 30
0.0
 10
129.881638
 20
103.096527
 30
0.0
 10
129.923972
 20
103.096527
 30
0.0
 10
130.008638
 20
103.138860
 30
0.0
 10
130.093305
 20
103.265860
 30
0.0
 10
130.135638
 20
103.392860
 30
0.0
 10
130.177972
 20
103.519860
 30
0.0
 10
130.262638
 20
104.070194
 30
0.0
 10
130.812972
 20
104.070194
 30
0.0
 10
130.770638
 20
103.773860
 30
0.0
 10
130.728305
 20
103.477527
 30
0.0
 10
130.643638
 20
103.181194
 30
0.0
 10
130.516638
 20
102.884860
 30
0.0
 10
130.304972
 20
102.673194
 30
0.0
 10
130.177972
 20
102.546194
 30
0.0
 10
130.050972
 20
102.461527
 30
0.0
 10
129.754638
 20
102.376860
 30
0.0
 10
129.458305
 20
102.334527
 30
0.0
 10
129.288972
 20
102.334527
 30
0.0
 10
129.119638
 20
102.376860
 30
0.0
 10
128.950305
 20
102.461527
 30
0.0
 10
128.780972
 20
102.546194
 30
0.0
 10
128.653972
 20
102.673194
 30
0.0
 10
128.569305
 20
102.800194
 30
0.0
 10
128.484638
 20
102.927194
 30
0.0
 10
128.399972
 20
103.096527
 30
0.0
 10
128.315305
 20
103.435194
 30
0.0
 10
128.272972
 20
103.773860
 30
0.0
 10
128.188305
 20
104.493527
 30
0.0
 10
128.103638
 20
105.043860
 30
0.0
 10
127.976638
 20
105.297860
 30
0.0
 10
127.934305
 20
105.424860
 30
0.0
 10
127.849638
 20
105.551860
 30
0.0
 10
127.595638
 20
105.721194
 30
0.0
 10
127.341638
 20
105.848194
 30
0.0
 10
127.087638
 20
105.890527
 30
0.0
 10
126.791305
 20
105.890527
 30
0.0
 10
126.410305
 20
105.890527
 30
0.0
 10
126.410305
 20
103.223527
 30
0.0
 10
126.452638
 20
103.054194
 30
0.0
 10
126.537305
 20
103.011860
 30
0.0
 10
126.664305
 20
102.969527
 30
0.0
 10
127.510972
 20
102.969527
 30
0.0
 10
127.510972
 20
102.419194
 30
0.0
 10
124.039638
 20
102.419194
 30
0.0
 10
124.039638
 20
102.969527
 30
0.0
 10
124.801638
 20
102.969527
 30
0.0
 10
124.928638
 20
103.011860
 30
0.0
 10
125.013305
 20
103.011860
 30
0.0
 10
125.097972
 20
103.096527
 30
0.0
 10
125.140305
 20
103.223527
 30
0.0
 10
125.140305
 20
108.853860
 30
0.0
 10
125.097972
 20
108.980860
 30
0.0
 10
125.055638
 20
109.065527
 30
0.0
 10
124.928638
 20
109.107860
 30
0.0
 10
124.801638
 20
109.107860
 30
0.0
 10
124.039638
 20
109.107860
 30
0.0
 10
124.039638
 20
109.658194
 30
0.0
  0
LWPOLYLINE
  5
10f
100
AcDbEntity
  8
Layer_1
 62
7
100
AcDbPolyline
 90
14
 70
0
 10
127.807305
 20
106.102194
 30
0.0
 10
128.145972
 20
106.017527
 30
0.0
 10
128.484638
 20
105.932860
 30
0.0
 10
128.653972
 20
105.848194
 30
0.0
 10
128.780972
 20
105.721194
 30
0.0
 10
128.907972
 20
105.594194
 30
0.0
 10
129.034972
 20
105.467194
 30
0.0
 10
129.119638
 20
105.340194
 30
0.0
 10
129.204305
 20
105.170860
 30
0.0
 10
129.331305
 20
104.832194
 30
0.0
 10
129.458305
 20
104.112527
 30
0.0
 10
129.542972
 20
103.689194
 30
0.0
 10
129.627638
 20
103.477527
 30
0.0
 10
129.712305
 20
103.265860
 30
0.0
  0
LWPOLYLINE
  5
110
100
AcDbEntity
  8
Layer_1
 62
7
100
AcDbPolyline
 90
4
 70
0
 10
115.234305
 20
109.658194
 30
0.0
 10
121.245638
 20
109.658194
 30
0.0
 10
121.372638
 20
107.118194
 30
0.0
 10
120.737638
 20
107.118194
 30
0.0
  0
LWPOLYLINE
  5
111
100
AcDbEntity
  8
Layer_1
 62
7
100
AcDbPolyline
 90
17
 70
0
 10
119.128972
 20
109.107860
 30
0.0
 10
117.774305
 20
109.107860
 30
0.0
 10
117.689638
 20
109.065527
 30
0.0
 10
117.647305
 20
109.023194
 30
0.0
 10
117.604972
 20
108.853860
 30
0.0
 10
117.604972
 20
106.440860
 30
0.0
 10
117.985972
 20
106.440860
 30
0.0
 10
118.239972
 20
106.483194
 30
0.0
 10
118.493972
 20
106.610194
 30
0.0
 10
118.663305
 20
106.737194
 30
0.0
 10
118.790305
 20
106.948860
 30
0.0
 10
118.874972
 20
107.202860
 30
0.0
 10
118.959638
 20
107.414527
 30
0.0
 10
119.001972
 20
107.922527
 30
0.0
 10
119.636972
 20
107.922527
 30
0.0
 10
119.636972
 20
104.451194
 30
0.0
 10
119.001972
 20
104.451194
 30
0.0
  0
LWPOLYLINE
  5
112
100
AcDbEntity
  8
Layer_1
 62
7
100
AcDbPolyline
 90
37
 70
0
 10
117.943638
 20
105.890527
 30
0.0
 10
117.604972
 20
105.890527
 30
0.0
 10
117.604972
 20
103.223527
 30
0.0
 10
117.604972
 20
103.096527
 30
0.0
 10
117.689638
 20
103.011860
 30
0.0
 10
117.774305
 20
102.969527
 30
0.0
 10
117.858972
 20
102.969527
 30
0.0
 10
118.959638
 20
102.969527
 30
0.0
 10
119.382972
 20
103.011860
 30
0.0
 10
119.594638
 20
103.096527
 30
0.0
 10
119.763972
 20
103.138860
 30
0.0
 10
119.933305
 20
103.265860
 30
0.0
 10
120.102638
 20
103.392860
 30
0.0
 10
120.271972
 20
103.519860
 30
0.0
 10
120.398972
 20
103.689194
 30
0.0
 10
120.610638
 20
104.070194
 30
0.0
 10
120.737638
 20
104.451194
 30
0.0
 10
120.864638
 20
104.874527
 30
0.0
 10
120.906972
 20
105.255527
 30
0.0
 10
121.541972
 20
105.255527
 30
0.0
 10
121.457305
 20
102.419194
 30
0.0
 10
115.234305
 20
102.419194
 30
0.0
 10
115.234305
 20
102.969527
 30
0.0
 10
115.869305
 20
102.969527
 30
0.0
 10
115.996305
 20
103.011860
 30
0.0
 10
116.165638
 20
103.011860
 30
0.0
 10
116.250305
 20
103.054194
 30
0.0
 10
116.292638
 20
103.138860
 30
0.0
 10
116.334972
 20
103.181194
 30
0.0
 10
116.334972
 20
103.265860
 30
0.0
 10
116.334972
 20
108.853860
 30
0.0
 10
116.292638
 20
108.980860
 30
0.0
 10
116.207972
 20
109.065527
 30
0.0
 10
116.080972
 20
109.107860
 30
0.0
 10
115.953972
 20
109.107860
 30
0.0
 10
115.234305
 20
109.107860
 30
0.0
 10
115.234305
 20
109.658194
 30
0.0
  0
LWPOLYLINE
  5
113
100
AcDbEntity
  8
Layer_1
 62
7
100
AcDbPolyline
 90
11
 70
0
 10
120.737638
 20
107.118194
 30
0.0
 10
120.568305
 20
107.795527
 30
0.0
 10
120.483638
 20
108.134194
 30
0.0
 10
120.314305
 20
108.430527
 30
0.0
 10
120.229638
 20
108.599860
 30
0.0
 10
120.102638
 20
108.726860
 30
0.0
 10
119.975638
 20
108.853860
 30
0.0
 10
119.806305
 20
108.938527
 30
0.0
 10
119.679305
 20
109.023194
 30
0.0
 10
119.509972
 20
109.065527
 30
0.0
 10
119.128972
 20
109.107860
 30
0.0
  0
LWPOLYLINE
  5
114
100
AcDbEntity
  8
Layer_1
 62
7
100
AcDbPolyline
 90
8
 70
0
 10
119.001972
 20
104.451194
 30
0.0
 10
118.959638
 20
104.959194
 30
0.0
 10
118.874972
 20
105.213194
 30
0.0
 10
118.790305
 20
105.424860
 30
0.0
 10
118.663305
 20
105.636527
 30
0.0
 10
118.451638
 20
105.805860
 30
0.0
 10
118.197638
 20
105.890527
 30
0.0
 10
117.943638
 20
105.890527
 30
0.0
  0
LWPOLYLINE
  5
115
100
AcDbEntity
  8
Layer_1
 62
7
100
AcDbPolyline
 90
11
 70
0
 10
104.947305
 20
109.658194
 30
0.0
 10
108.460972
 20
109.658194
 30
0.0
 10
108.460972
 20
109.107860
 30
0.0
 10
107.656638
 20
109.107860
 30
0.0
 10
107.487305
 20
109.107860
 30
0.0
 10
107.402638
 20
109.065527
 30
0.0
 10
107.360305
 20
108.980860
 30
0.0
 10
107.360305
 20
108.599860
 30
0.0
 10
107.360305
 20
106.567860
 30
0.0
 10
110.281305
 20
106.567860
 30
0.0
 10
110.281305
 20
108.599860
 30
0.0
  0
LWPOLYLINE
  5
116
100
AcDbEntity
  8
Layer_1
 62
7
100
AcDbPolyline
 90
12
 70
0
 10
109.815638
 20
109.107860
 30
0.0
 10
109.180638
 20
109.107860
 30
0.0
 10
109.180638
 20
109.658194
 30
0.0
 10
112.651972
 20
109.658194
 30
0.0
 10
112.651972
 20
109.107860
 30
0.0
 10
111.847638
 20
109.107860
 30
0.0
 10
111.678305
 20
109.107860
 30
0.0
 10
111.593638
 20
109.023194
 30
0.0
 10
111.551305
 20
108.938527
 30
0.0
 10
111.551305
 20
108.557527
 30
0.0
 10
111.551305
 20
103.477527
 30
0.0
 10
111.593638
 20
103.096527
 30
0.0
  0
LWPOLYLINE
  5
117
100
AcDbEntity
  8
Layer_1
 62
7
100
AcDbPolyline
 90
36
 70
0
 10
111.932305
 20
102.969527
 30
0.0
 10
112.651972
 20
102.969527
 30
0.0
 10
112.651972
 20
102.419194
 30
0.0
 10
109.180638
 20
102.419194
 30
0.0
 10
109.180638
 20
102.969527
 30
0.0
 10
109.815638
 20
102.969527
 30
0.0
 10
110.027305
 20
103.011860
 30
0.0
 10
110.154305
 20
103.054194
 30
0.0
 10
110.238972
 20
103.096527
 30
0.0
 10
110.238972
 20
103.223527
 30
0.0
 10
110.281305
 20
103.308194
 30
0.0
 10
110.281305
 20
103.519860
 30
0.0
 10
110.281305
 20
105.890527
 30
0.0
 10
107.360305
 20
105.890527
 30
0.0
 10
107.360305
 20
103.519860
 30
0.0
 10
107.360305
 20
103.096527
 30
0.0
 10
107.444972
 20
103.054194
 30
0.0
 10
107.487305
 20
103.011860
 30
0.0
 10
107.656638
 20
102.969527
 30
0.0
 10
108.460972
 20
102.969527
 30
0.0
 10
108.460972
 20
102.419194
 30
0.0
 10
104.947305
 20
102.419194
 30
0.0
 10
104.947305
 20
102.969527
 30
0.0
 10
105.709305
 20
102.969527
 30
0.0
 10
105.920972
 20
103.011860
 30
0.0
 10
106.005638
 20
103.096527
 30
0.0
 10
106.047972
 20
103.181194
 30
0.0
 10
106.047972
 20
103.519860
 30
0.0
 10
106.047972
 20
108.599860
 30
0.0
 10
106.047972
 20
108.811527
 30
0.0
 10
106.005638
 20
109.023194
 30
0.0
 10
105.920972
 20
109.065527
 30
0.0
 10
105.836305
 20
109.107860
 30
0.0
 10
105.624638
 20
109.107860
 30
0.0
 10
104.947305
 20
109.107860
 30
0.0
 10
104.947305
 20
109.658194
 30
0.0
  0
LWPOLYLINE
  5
118
100
AcDbEntity
  8
Layer_1
 62
7
100
AcDbPolyline
 90
4
 70
0
 10
111.593638
 20
103.096527
 30
0.0
 10
111.635972
 20
103.054194
 30
0.0
 10
111.720638
 20
103.011860
 30
0.0
 10
111.932305
 20
102.969527
 30
0.0
  0
LWPOLYLINE
  5
119
100
AcDbEntity
  8
Layer_1
 62
7
100
AcDbPolyline
 90
6
 70
0
 10
110.281305
 20
108.599860
 30
0.0
 10
110.281305
 20
108.811527
 30
0.0
 10
110.238972
 20
109.023194
 30
0.0
 10
110.154305
 20
109.065527
 30
0.0
 10
110.027305
 20
109.107860
 30
0.0
 10
109.815638
 20
109.107860
 30
0.0
  0
LWPOLYLINE
  5
11a
100
AcDbEntity
  8
Layer_1
 62
7
100
AcDbPolyline
 90
4
 70
0
 10
70.106972
 20
109.658194
 30
0.0
 10
73.620638
 20
109.658194
 30
0.0
 10
73.620638
 20
109.107860
 30
0.0
 10
72.689305
 20
109.107860
 30
0.0
  0
LWPOLYLINE
  5
11b
100
AcDbEntity
  8
Layer_1
 62
7
100
AcDbPolyline
 90
7
 70
0
 10
72.519972
 20
108.811527
 30
0.0
 10
72.519972
 20
103.265860
 30
0.0
 10
72.519972
 20
103.138860
 30
0.0
 10
72.519972
 20
103.054194
 30
0.0
 10
72.604638
 20
103.011860
 30
0.0
 10
72.858638
 20
102.969527
 30
0.0
 10
73.832305
 20
102.969527
 30
0.0
  0
LWPOLYLINE
  5
11c
100
AcDbEntity
  8
Layer_1
 62
7
100
AcDbPolyline
 90
18
 70
0
 10
75.737305
 20
105.255527
 30
0.0
 10
76.329972
 20
105.255527
 30
0.0
 10
76.245305
 20
102.419194
 30
0.0
 10
70.106972
 20
102.419194
 30
0.0
 10
70.106972
 20
102.969527
 30
0.0
 10
70.784305
 20
102.969527
 30
0.0
 10
70.953638
 20
103.011860
 30
0.0
 10
71.122972
 20
103.054194
 30
0.0
 10
71.165305
 20
103.096527
 30
0.0
 10
71.207638
 20
103.181194
 30
0.0
 10
71.207638
 20
103.350527
 30
0.0
 10
71.207638
 20
108.853860
 30
0.0
 10
71.207638
 20
108.938527
 30
0.0
 10
71.122972
 20
109.065527
 30
0.0
 10
71.038305
 20
109.107860
 30
0.0
 10
70.911305
 20
109.107860
 30
0.0
 10
70.106972
 20
109.107860
 30
0.0
 10
70.106972
 20
109.658194
 30
0.0
  0
LWPOLYLINE
  5
11d
100
AcDbEntity
  8
Layer_1
 62
7
100
AcDbPolyline
 90
13
 70
0
 10
73.832305
 20
102.969527
 30
0.0
 10
74.043972
 20
103.011860
 30
0.0
 10
74.255638
 20
103.011860
 30
0.0
 10
74.424972
 20
103.096527
 30
0.0
 10
74.636638
 20
103.181194
 30
0.0
 10
74.805972
 20
103.265860
 30
0.0
 10
74.975305
 20
103.392860
 30
0.0
 10
75.102305
 20
103.562194
 30
0.0
 10
75.229305
 20
103.731527
 30
0.0
 10
75.398638
 20
104.070194
 30
0.0
 10
75.525638
 20
104.451194
 30
0.0
 10
75.652638
 20
104.874527
 30
0.0
 10
75.737305
 20
105.255527
 30
0.0
  0
LWPOLYLINE
  5
11e
100
AcDbEntity
  8
Layer_1
 62
7
100
AcDbPolyline
 90
4
 70
0
 10
72.689305
 20
109.107860
 30
0.0
 10
72.562305
 20
109.065527
 30
0.0
 10
72.519972
 20
108.980860
 30
0.0
 10
72.519972
 20
108.811527
 30
0.0
  0
LWPOLYLINE
  5
11f
100
AcDbEntity
  8
Layer_1
 62
7
100
AcDbPolyline
 90
182
 70
0
 10
135.723638
 20
124.771196
 30
0.0
 10
134.538305
 20
124.347860
 30
0.0
 10
133.649305
 20
124.051527
 30
0.0
 10
133.649305
 20
123.247194
 30
0.0
 10
133.649305
 20
123.035527
 30
0.0
 10
133.606972
 20
122.823860
 30
0.0
 10
133.564638
 20
122.654527
 30
0.0
 10
133.479972
 20
122.485194
 30
0.0
 10
133.310638
 20
122.104194
 30
0.0
 10
133.225972
 20
121.934860
 30
0.0
 10
133.141305
 20
121.765527
 30
0.0
 10
132.844972
 20
121.469194
 30
0.0
 10
132.717972
 20
121.299860
 30
0.0
 10
132.548638
 20
121.172860
 30
0.0
 10
132.379305
 20
121.088194
 30
0.0
 10
132.167638
 20
121.045860
 30
0.0
 10
131.786638
 20
120.918860
 30
0.0
 10
131.405638
 20
120.876527
 30
0.0
 10
130.982305
 20
120.876527
 30
0.0
 10
130.812972
 20
120.834194
 30
0.0
 10
130.601305
 20
120.749527
 30
0.0
 10
130.558972
 20
120.664860
 30
0.0
 10
130.474305
 20
120.580194
 30
0.0
 10
130.431972
 20
120.410860
 30
0.0
 10
130.262638
 20
119.606527
 30
0.0
 10
130.177972
 20
119.225527
 30
0.0
 10
130.050972
 20
118.844527
 30
0.0
 10
130.050972
 20
118.717527
 30
0.0
 10
130.093305
 20
118.632860
 30
0.0
 10
130.135638
 20
118.548194
 30
0.0
 10
130.220305
 20
118.463527
 30
0.0
 10
130.389638
 20
118.378860
 30
0.0
 10
130.558972
 20
118.294194
 30
0.0
 10
130.897638
 20
118.082527
 30
0.0
 10
131.236305
 20
117.870860
 30
0.0
 10
131.574972
 20
117.659194
 30
0.0
 10
131.913638
 20
117.447527
 30
0.0
 10
132.209972
 20
117.151194
 30
0.0
 10
132.421638
 20
116.812527
 30
0.0
 10
132.548638
 20
116.685527
 30
0.0
 10
132.675638
 20
116.516194
 30
0.0
 10
132.971972
 20
116.219860
 30
0.0
 10
133.395305
 20
115.584860
 30
0.0
 10
133.479972
 20
115.373194
 30
0.0
 10
133.564638
 20
115.203860
 30
0.0
 10
133.649305
 20
114.822860
 30
0.0
 10
133.818638
 20
114.441860
 30
0.0
 10
133.860972
 20
114.272527
 30
0.0
 10
133.903305
 20
114.060860
 30
0.0
 10
133.987972
 20
113.256527
 30
0.0
 10
134.072638
 20
112.452194
 30
0.0
 10
134.072638
 20
112.071194
 30
0.0
 10
134.030305
 20
111.647860
 30
0.0
 10
133.945638
 20
111.266860
 30
0.0
 10
133.776305
 20
110.885860
 30
0.0
 10
133.649305
 20
110.547194
 30
0.0
 10
133.564638
 20
110.166194
 30
0.0
 10
133.522305
 20
109.954527
 30
0.0
 10
133.437638
 20
109.742860
 30
0.0
 10
133.395305
 20
109.615860
 30
0.0
 10
133.395305
 20
109.531194
 30
0.0
 10
133.437638
 20
109.488860
 30
0.0
 10
133.522305
 20
109.404194
 30
0.0
 10
133.606972
 20
109.319527
 30
0.0
 10
133.691638
 20
109.277194
 30
0.0
 10
133.733972
 20
109.192527
 30
0.0
 10
133.818638
 20
109.150194
 30
0.0
 10
133.903305
 20
109.107860
 30
0.0
 10
133.987972
 20
109.065527
 30
0.0
 10
134.157305
 20
108.896194
 30
0.0
 10
134.241972
 20
108.853860
 30
0.0
 10
134.326638
 20
108.853860
 30
0.0
 10
134.538305
 20
108.811527
 30
0.0
 10
134.749972
 20
108.811527
 30
0.0
 10
134.919305
 20
108.726860
 30
0.0
 10
135.130972
 20
108.642194
 30
0.0
 10
135.215638
 20
108.642194
 30
0.0
 10
135.300305
 20
108.642194
 30
0.0
 10
135.469638
 20
108.726860
 30
0.0
 10
135.638972
 20
108.853860
 30
0.0
 10
135.808305
 20
108.980860
 30
0.0
 10
135.977638
 20
109.065527
 30
0.0
 10
136.358638
 20
109.234860
 30
0.0
 10
136.527972
 20
109.361860
 30
0.0
 10
136.697305
 20
109.404194
 30
0.0
 10
136.908972
 20
109.446527
 30
0.0
 10
137.078305
 20
109.488860
 30
0.0
 10
137.289972
 20
109.615860
 30
0.0
 10
137.459305
 20
109.658194
 30
0.0
 10
137.840305
 20
109.700527
 30
0.0
 10
138.263638
 20
109.742860
 30
0.0
 10
138.644638
 20
109.658194
 30
0.0
 10
139.025638
 20
109.573527
 30
0.0
 10
139.448972
 20
109.488860
 30
0.0
 10
139.829972
 20
109.404194
 30
0.0
 10
140.041638
 20
109.404194
 30
0.0
 10
140.210972
 20
109.446527
 30
0.0
 10
140.295638
 20
109.488860
 30
0.0
 10
140.337972
 20
109.573527
 30
0.0
 10
140.422638
 20
109.785194
 30
0.0
 10
140.507305
 20
109.954527
 30
0.0
 10
140.676638
 20
110.081527
 30
0.0
 10
140.761305
 20
110.250860
 30
0.0
 10
140.845972
 20
110.420194
 30
0.0
 10
140.930638
 20
110.589527
 30
0.0
 10
141.099972
 20
110.758860
 30
0.0
 10
141.438638
 20
110.970527
 30
0.0
 10
141.734972
 20
111.266860
 30
0.0
 10
141.861972
 20
111.351527
 30
0.0
 10
142.073638
 20
111.436194
 30
0.0
 10
142.454638
 20
111.563194
 30
0.0
 10
142.793305
 20
111.732527
 30
0.0
 10
143.004972
 20
111.774860
 30
0.0
 10
143.216638
 20
111.774860
 30
0.0
 10
144.020972
 20
111.732527
 30
0.0
 10
144.232638
 20
111.732527
 30
0.0
 10
144.317305
 20
111.732527
 30
0.0
 10
144.359638
 20
111.817194
 30
0.0
 10
144.444305
 20
111.986527
 30
0.0
 10
144.571305
 20
112.155860
 30
0.0
 10
144.655972
 20
112.325194
 30
0.0
 10
144.698305
 20
112.536860
 30
0.0
 10
144.782972
 20
112.706194
 30
0.0
 10
144.867638
 20
112.917860
 30
0.0
 10
145.036972
 20
113.256527
 30
0.0
 10
145.163972
 20
113.637527
 30
0.0
 10
145.163972
 20
113.849194
 30
0.0
 10
145.121638
 20
113.933860
 30
0.0
 10
145.079305
 20
114.018527
 30
0.0
 10
144.698305
 20
114.187860
 30
0.0
 10
144.359638
 20
114.399527
 30
0.0
 10
144.020972
 20
114.568860
 30
0.0
 10
143.809305
 20
114.653527
 30
0.0
 10
143.682305
 20
114.780527
 30
0.0
 10
143.385972
 20
115.076860
 30
0.0
 10
143.047305
 20
115.246194
 30
0.0
 10
142.750972
 20
115.542527
 30
0.0
 10
142.242972
 20
116.135194
 30
0.0
 10
141.988972
 20
116.473860
 30
0.0
 10
141.777305
 20
116.812527
 30
0.0
 10
141.607972
 20
117.193527
 30
0.0
 10
141.480972
 20
117.574527
 30
0.0
 10
141.311638
 20
118.336527
 30
0.0
 10
141.226972
 20
118.717527
 30
0.0
 10
141.184638
 20
119.140860
 30
0.0
 10
141.226972
 20
119.945194
 30
0.0
 10
141.353972
 20
120.707194
 30
0.0
 10
141.396305
 20
121.130527
 30
0.0
 10
141.438638
 20
121.299860
 30
0.0
 10
141.480972
 20
121.511527
 30
0.0
 10
141.607972
 20
121.892527
 30
0.0
 10
141.734972
 20
122.273527
 30
0.0
 10
141.904305
 20
122.654527
 30
0.0
 10
141.904305
 20
122.739194
 30
0.0
 10
141.904305
 20
122.823860
 30
0.0
 10
141.777305
 20
122.993194
 30
0.0
 10
141.480972
 20
123.247194
 30
0.0
 10
141.142305
 20
123.501194
 30
0.0
 10
140.803638
 20
123.670527
 30
0.0
 10
140.464972
 20
123.924527
 30
0.0
 10
140.295638
 20
124.009194
 30
0.0
 10
140.083972
 20
124.051527
 30
0.0
 10
139.999305
 20
124.051527
 30
0.0
 10
139.914638
 20
124.009194
 30
0.0
 10
139.745305
 20
123.882194
 30
0.0
 10
139.448972
 20
123.628194
 30
0.0
 10
139.279638
 20
123.501194
 30
0.0
 10
139.067972
 20
123.416527
 30
0.0
 10
138.686972
 20
123.289527
 30
0.0
 10
138.517638
 20
123.247194
 30
0.0
 10
138.305972
 20
123.204860
 30
0.0
 10
137.924972
 20
123.247194
 30
0.0
 10
137.501638
 20
123.331860
 30
0.0
 10
137.120638
 20
123.458860
 30
0.0
 10
136.781972
 20
123.628194
 30
0.0
 10
136.400972
 20
123.797527
 30
0.0
 10
136.231638
 20
123.924527
 30
0.0
 10
136.104638
 20
124.051527
 30
0.0
 10
135.977638
 20
124.220860
 30
0.0
 10
135.892972
 20
124.432527
 30
0.0
 10
135.808305
 20
124.601863
 30
0.0
 10
135.723638
 20
124.771196
 30
0.0
  0
ENDSEC
  0
SECTION
  2
OBJECTS
  0
DICTIONARY
  5
C
330
0
100
AcDbDictionary
  3
ACAD_GROUP
350
D
  3
ACAD_MLINESTYLE
350
17
  0
DICTIONARY
  5
D
330
C
100
AcDbDictionary
  0
DICTIONARY
  5
1A
330
C
100
AcDbDictionary
  0
DICTIONARY
  5
17
330
C
100
AcDbDictionary
  3
STANDARD
350
18
  0
DICTIONARY
  5
19
330
C
100
AcDbDictionary
  0
ENDSEC
  0
EOF
