<?xml version="1.0" encoding="UTF-8" standalone="no"?>
<!-- Created with Inkscape (http://www.inkscape.org/) -->

<svg
   xmlns:dc="http://purl.org/dc/elements/1.1/"
   xmlns:cc="http://creativecommons.org/ns#"
   xmlns:rdf="http://www.w3.org/1999/02/22-rdf-syntax-ns#"
   xmlns:svg="http://www.w3.org/2000/svg"
   xmlns="http://www.w3.org/2000/svg"
   xmlns:sodipodi="http://sodipodi.sourceforge.net/DTD/sodipodi-0.dtd"
   xmlns:inkscape="http://www.inkscape.org/namespaces/inkscape"
   width="210mm"
   height="297mm"
   viewBox="0 0 744.09448819 1052.3622047"
   id="svg2"
   version="1.1"
   inkscape:version="0.91 r13725"
   sodipodi:docname="tear.svg">
  <defs
     id="defs4" />
  <sodipodi:namedview
     id="base"
     pagecolor="#ffffff"
     bordercolor="#666666"
     borderopacity="1.0"
     inkscape:pageopacity="0.0"
     inkscape:pageshadow="2"
     inkscape:zoom="0.98994949"
     inkscape:cx="261.24837"
     inkscape:cy="857.09463"
     inkscape:document-units="mm"
     inkscape:current-layer="layer1"
     showgrid="false"
     inkscape:window-width="1440"
     inkscape:window-height="837"
     inkscape:window-x="-4"
     inkscape:window-y="-4"
     inkscape:window-maximized="1" />
  <metadata
     id="metadata7">
    <rdf:RDF>
      <cc:Work
         rdf:about="">
        <dc:format>image/svg+xml</dc:format>
        <dc:type
           rdf:resource="http://purl.org/dc/dcmitype/StillImage" />
        <dc:title></dc:title>
      </cc:Work>
    </rdf:RDF>
  </metadata>
  <g
     inkscape:label="Layer 1"
     inkscape:groupmode="layer"
     id="layer1">
    <path
       style="fill:#000000"
       d="m 199.74926,75.055587 c -4.05142,0.025 -4.78983,0.8145 -12.70354,13.58115 -0.50385,0.81283 -2.19913,3.45077 -3.76661,5.86228 -1.56747,2.4115 -3.334,5.17377 -3.92622,6.138373 -0.59223,0.9646 -1.50206,2.41666 -2.02169,3.22675 -0.51963,0.81009 -1.8918,2.98514 -3.04932,4.83328 -1.15752,1.84815 -2.49919,3.98771 -2.98149,4.7545 -6.50698,10.34515 -14.07984,23.10152 -17.17168,28.92638 -0.51201,0.9646 -1.78718,3.33226 -2.8342,5.26146 -5.42757,10.00061 -11.57082,24.07105 -14.62521,33.49796 -4.2292,13.05279 -5.8177,22.24428 -5.81981,33.67335 -0.001,7.79474 0.4067,11.65265 1.89427,17.88896 2.3823,9.9873 6.45496,18.51957 13.42014,28.11524 1.88234,2.59324 9.57322,9.15393 15.35551,13.09953 10.47391,7.14692 21.30283,11.44862 33.63293,13.35986 4.36326,0.67631 13.22434,0.41635 18.06434,-0.53026 9.00391,-1.76097 18.85603,-6.30143 25.07963,-11.55808 1.06106,-0.8962 2.71842,-2.25526 3.68302,-3.01986 2.83385,-2.24629 10.68207,-10.28945 13.18585,-13.51332 8.35198,-10.754 13.36244,-21.4295 15.0486,-32.06271 0.76695,-4.83651 1.40269,-13.12028 1.40374,-18.29042 0.003,-17.53484 -5.84124,-36.17334 -18.69188,-59.60796 -3.11096,-5.67319 -4.28983,-7.66024 -8.80404,-14.83759 -1.37127,-2.18024 -2.65088,-4.23482 -2.8438,-4.56541 -0.61654,-1.05653 -12.42741,-18.63035 -14.03056,-20.87662 -0.84899,-1.18957 -1.87331,-2.63635 -2.27585,-3.21511 -0.40254,-0.57876 -2.58043,-3.68477 -4.84014,-6.902243 -2.2597,-3.21748 -5.37121,-7.68494 -6.91457,-9.92758 -8.11773,-11.79584 -9.67536,-13.3353 -13.46742,-13.31191 z M 146.53247,191.11326 c 0.0784,-0.0229 0.15164,-7e-4 0.21923,0.0685 0.16298,0.16685 0.71423,1.96085 1.22425,3.98651 3.9246,15.58728 10.67017,29.53676 19.82091,40.98595 12.76072,15.96587 30.29631,27.49772 50.46,33.1842 l 3.98788,1.12491 -1.26466,0.60013 c -2.35267,1.11641 -10.48999,2.94936 -14.83896,3.34254 -4.07934,0.36882 -6.0907,0.4005 -9.58573,0.15072 -10.03872,-0.71746 -21.17257,-4.52255 -28.58726,-9.77002 -0.9646,-0.68265 -2.30627,-1.61127 -2.9815,-2.06347 -1.98529,-1.32961 -7.15374,-6.33695 -9.55352,-9.25552 -4.94903,-6.01886 -8.59054,-12.80439 -10.97508,-20.45255 -3.21311,-10.3057 -3.26501,-20.78357 -0.17469,-35.17779 0.89698,-4.17801 1.70003,-6.56384 2.24913,-6.72412 z"
       id="path6208"
       inkscape:connector-curvature="0" />
  </g>
</svg>
