  0
SECTION
  2
HEADER
  9
$ACADVER
  1
AC1014
  9
$HANDSEED
  5
FFFF
  9
$MEASUREMENT
 70
     1
  0
ENDSEC
  0
SECTION
  2
TABLES
  0
TABLE
  2
VPORT
  5
8
330
0
100
AcDbSymbolTable
 70
     4
  0
VPORT
  5
2E
330
8
100
AcDbSymbolTableRecord
100
AcDbViewportTableRecord
  2
*ACTIVE
 70
     0
 10
0.0
 20
0.0
 11
1.0
 21
1.0
 12
210.0
 22
148.5
 13
0.0
 23
0.0
 14
10.0
 24
10.0
 15
10.0
 25
10.0
 16
0.0
 26
0.0
 36
1.0
 17
0.0
 27
0.0
 37
0.0
 40
341.0
 41
1.24
 42
50.0
 43
0.0
 44
0.0
 50
0.0
 51
0.0
 71
     0
 72
   100
 73
     1
 74
     3
 75
     0
 76
     0
 77
     0
 78
     0
  0
ENDTAB
  0
TABLE
  2
LTYPE
  5
5
330
0
100
AcDbSymbolTable
 70
     1
  0
LTYPE
  5
14
330
5
100
AcDbSymbolTableRecord
100
AcDbLinetypeTableRecord
  2
BYBLOCK
 70
     0
  3

 72
    65
 73
     0
 40
0.0
  0
LTYPE
  5
15
330
5
100
AcDbSymbolTableRecord
100
AcDbLinetypeTableRecord
  2
BYLAYER
 70
     0
  3

 72
    65
 73
     0
 40
0.0
  0
LTYPE
  5
16
330
5
100
AcDbSymbolTableRecord
100
AcDbLinetypeTableRecord
  2
CONTINUOUS
 70
     0
  3
Solid line
 72
    65
 73
     0
 40
0.0
  0
ENDTAB
  0
TABLE
  2
LAYER
  5
2
100
AcDbSymbolTable
 70
2
  0
LAYER
  5
50
100
AcDbSymbolTableRecord
100
AcDbLayerTableRecord
  2
0
 70
0
  6
CONTINUOUS
  0
LAYER
  5
51
100
AcDbSymbolTableRecord
100
AcDbLayerTableRecord
  2
Layer_1
 70
0
  6
CONTINUOUS
  0
ENDTAB
  0
TABLE
  2
STYLE
  5
3
330
0
100
AcDbSymbolTable
 70
     1
  0
STYLE
  5
11
330
3
100
AcDbSymbolTableRecord
100
AcDbTextStyleTableRecord
  2
STANDARD
 70
     0
 40
0.0
 41
1.0
 50
0.0
 71
     0
 42
2.5
  3
txt
  4

  0
ENDTAB
  0
TABLE
  2
VIEW
  5
6
330
0
100
AcDbSymbolTable
 70
     0
  0
ENDTAB
  0
TABLE
  2
UCS
  5
7
330
0
100
AcDbSymbolTable
 70
     0
  0
ENDTAB
  0
TABLE
  2
APPID
  5
9
330
0
100
AcDbSymbolTable
 70
     2
  0
APPID
  5
12
330
9
100
AcDbSymbolTableRecord
100
AcDbRegAppTableRecord
  2
ACAD
 70
     0
  0
ENDTAB
  0
TABLE
  2
DIMSTYLE
  5
A
330
0
100
AcDbSymbolTable
 70
     1
  0
DIMSTYLE
105
27
330
A
100
AcDbSymbolTableRecord
100
AcDbDimStyleTableRecord
  2
ISO-25
 70
     0
  3

  4

  5

  6

  7

 40
1.0
 41
2.5
 42
0.625
 43
3.75
 44
1.25
 45
0.0
 46
0.0
 47
0.0
 48
0.0
140
2.5
141
2.5
142
0.0
143
0.03937007874016
144
1.0
145
0.0
146
1.0
147
0.625
 71
     0
 72
     0
 73
     0
 74
     0
 75
     0
 76
     0
 77
     1
 78
     8
170
     0
171
     3
172
     1
173
     0
174
     0
175
     0
176
     0
177
     0
178
     0
270
     2
271
     2
272
     2
273
     2
274
     3
340
11
275
     0
280
     0
281
     0
282
     0
283
     0
284
     8
285
     0
286
     0
287
     3
288
     0
  0
ENDTAB
  0
TABLE
  2
BLOCK_RECORD
  5
1
330
0
100
AcDbSymbolTable
 70
     1
  0
BLOCK_RECORD
  5
1F
330
1
100
AcDbSymbolTableRecord
100
AcDbBlockTableRecord
  2
*MODEL_SPACE
  0
BLOCK_RECORD
  5
1B
330
1
100
AcDbSymbolTableRecord
100
AcDbBlockTableRecord
  2
*PAPER_SPACE
  0
ENDTAB
  0
ENDSEC
  0
SECTION
  2
BLOCKS
  0
BLOCK
  5
20
330
1F
100
AcDbEntity
  8
0
100
AcDbBlockBegin
  2
*MODEL_SPACE
 70
     0
 10
0.0
 20
0.0
 30
0.0
  3
*MODEL_SPACE
  1

  0
ENDBLK
  5
21
330
1F
100
AcDbEntity
  8
0
100
AcDbBlockEnd
  0
BLOCK
  5
1C
330
1B
100
AcDbEntity
 67
     1
  8
0
100
AcDbBlockBegin
  2
*PAPER_SPACE
  1

  0
ENDBLK
  5
1D
330
1B
100
AcDbEntity
 67
     1
  8
0
100
AcDbBlockEnd
  0
ENDSEC
  0
SECTION
  2
ENTITIES
  0
LWPOLYLINE
  5
100
100
AcDbEntity
  8
Layer_1
 62
7
100
AcDbPolyline
 90
2
 70
0
 10
144.112423
 20
382.071622
 30
0.0
 10
144.504424
 20
382.150622
 30
0.0
  0
LWPOLYLINE
  5
101
100
AcDbEntity
  8
Layer_1
 62
5
100
AcDbPolyline
 90
2
 70
0
 10
579.682488
 20
1104.859727
 30
0.0
 10
579.682488
 20
1128.170762
 30
0.0
  0
LWPOLYLINE
  5
102
100
AcDbEntity
  8
Layer_1
 62
5
100
AcDbPolyline
 90
3
 70
0
 10
616.634545
 20
1128.170762
 30
0.0
 10
616.634545
 20
1104.859727
 30
0.0
 10
579.682488
 20
1104.859727
 30
0.0
  0
LWPOLYLINE
  5
103
100
AcDbEntity
  8
Layer_1
 62
5
100
AcDbPolyline
 90
2
 70
0
 10
579.682488
 20
1128.170762
 30
0.0
 10
616.634545
 20
1128.170762
 30
0.0
  0
LWPOLYLINE
  5
104
100
AcDbEntity
  8
Layer_1
 62
5
100
AcDbPolyline
 90
2
 70
0
 10
579.472488
 20
1077.865685
 30
0.0
 10
579.472488
 20
1101.175721
 30
0.0
  0
LWPOLYLINE
  5
105
100
AcDbEntity
  8
Layer_1
 62
5
100
AcDbPolyline
 90
3
 70
0
 10
616.423544
 20
1101.175721
 30
0.0
 10
616.423544
 20
1077.865685
 30
0.0
 10
579.472488
 20
1077.865685
 30
0.0
  0
LWPOLYLINE
  5
106
100
AcDbEntity
  8
Layer_1
 62
5
100
AcDbPolyline
 90
2
 70
0
 10
579.472488
 20
1101.175721
 30
0.0
 10
616.423544
 20
1101.175721
 30
0.0
  0
LWPOLYLINE
  5
107
100
AcDbEntity
  8
Layer_1
 62
5
100
AcDbPolyline
 90
7
 70
0
 10
525.150405
 20
757.399196
 30
0.0
 10
468.033318
 20
757.399196
 30
0.0
 10
439.485274
 20
689.832092
 30
0.0
 10
402.639218
 20
705.400116
 30
0.0
 10
441.509277
 20
797.399257
 30
0.0
 10
525.150405
 20
797.399257
 30
0.0
 10
525.150405
 20
757.399196
 30
0.0
  0
LWPOLYLINE
  5
108
100
AcDbEntity
  8
Layer_1
 62
5
100
AcDbPolyline
 90
7
 70
0
 10
555.303451
 20
712.248127
 30
0.0
 10
498.186364
 20
712.248127
 30
0.0
 10
469.638320
 20
644.682023
 30
0.0
 10
432.792264
 20
660.249047
 30
0.0
 10
471.662323
 20
752.248188
 30
0.0
 10
555.303451
 20
752.248188
 30
0.0
 10
555.303451
 20
712.248127
 30
0.0
  0
LWPOLYLINE
  5
109
100
AcDbEntity
  8
Layer_1
 62
5
100
AcDbPolyline
 90
7
 70
0
 10
585.676498
 20
665.038055
 30
0.0
 10
528.558410
 20
665.038055
 30
0.0
 10
500.011367
 20
597.470951
 30
0.0
 10
463.165310
 20
613.038975
 30
0.0
 10
502.035370
 20
705.038116
 30
0.0
 10
585.676498
 20
705.038116
 30
0.0
 10
585.676498
 20
665.038055
 30
0.0
  0
LWPOLYLINE
  5
10a
100
AcDbEntity
  8
Layer_1
 62
5
100
AcDbPolyline
 90
2
 70
0
 10
235.330962
 20
988.365549
 30
0.0
 10
235.449962
 20
1018.118594
 30
0.0
  0
LWPOLYLINE
  5
10b
100
AcDbEntity
  8
Layer_1
 62
5
100
AcDbPolyline
 90
2
 70
0
 10
301.946064
 20
975.471529
 30
0.0
 10
301.952064
 20
958.095502
 30
0.0
  0
LWPOLYLINE
  5
10c
100
AcDbEntity
  8
Layer_1
 62
5
100
AcDbPolyline
 90
2
 70
0
 10
302.423065
 20
1019.026595
 30
0.0
 10
302.359065
 20
1008.192579
 30
0.0
  0
LWPOLYLINE
  5
10d
100
AcDbEntity
  8
Layer_1
 62
5
100
AcDbPolyline
 90
2
 70
0
 10
277.676027
 20
958.216502
 30
0.0
 10
277.776027
 20
998.768564
 30
0.0
  0
LWPOLYLINE
  5
10e
100
AcDbEntity
  8
Layer_1
 62
5
100
AcDbPolyline
 90
2
 70
0
 10
235.449962
 20
1018.118594
 30
0.0
 10
260.068000
 20
1018.576595
 30
0.0
  0
LWPOLYLINE
  5
10f
100
AcDbEntity
  8
Layer_1
 62
5
100
AcDbPolyline
 90
2
 70
0
 10
419.707244
 20
989.296550
 30
0.0
 10
419.826244
 20
1019.049595
 30
0.0
  0
LWPOLYLINE
  5
110
100
AcDbEntity
  8
Layer_1
 62
5
100
AcDbPolyline
 90
2
 70
0
 10
486.322346
 20
976.403530
 30
0.0
 10
486.328346
 20
959.027504
 30
0.0
  0
LWPOLYLINE
  5
111
100
AcDbEntity
  8
Layer_1
 62
5
100
AcDbPolyline
 90
2
 70
0
 10
462.053309
 20
959.147504
 30
0.0
 10
462.153309
 20
999.700566
 30
0.0
  0
LWPOLYLINE
  5
112
100
AcDbEntity
  8
Layer_1
 62
5
100
AcDbPolyline
 90
2
 70
0
 10
419.826244
 20
1019.049595
 30
0.0
 10
444.444282
 20
1019.508596
 30
0.0
  0
LWPOLYLINE
  5
113
100
AcDbEntity
  8
Layer_1
 62
5
100
AcDbPolyline
 90
2
 70
0
 10
486.800346
 20
1019.957597
 30
0.0
 10
486.735346
 20
1009.123580
 30
0.0
  0
LWPOLYLINE
  5
114
100
AcDbEntity
  8
Layer_1
 62
5
100
AcDbPolyline
 90
2
 70
0
 10
243.722975
 20
468.644755
 30
0.0
 10
261.601002
 20
468.979755
 30
0.0
  0
LWPOLYLINE
  5
115
100
AcDbEntity
  8
Layer_1
 62
5
100
AcDbPolyline
 90
2
 70
0
 10
219.104937
 20
468.186754
 30
0.0
 10
157.544243
 20
467.682753
 30
0.0
  0
LWPOLYLINE
  5
116
100
AcDbEntity
  8
Layer_1
 62
5
100
AcDbPolyline
 90
2
 70
0
 10
286.152040
 20
494.331794
 30
0.0
 10
286.079040
 20
469.094755
 30
0.0
  0
LWPOLYLINE
  5
117
100
AcDbEntity
  8
Layer_1
 62
5
100
AcDbPolyline
 90
2
 70
0
 10
261.601002
 20
468.979755
 30
0.0
 10
286.079040
 20
469.094755
 30
0.0
  0
LWPOLYLINE
  5
118
100
AcDbEntity
  8
Layer_1
 62
5
100
AcDbPolyline
 90
2
 70
0
 10
219.104937
 20
468.186754
 30
0.0
 10
243.722975
 20
468.644755
 30
0.0
  0
LWPOLYLINE
  5
119
100
AcDbEntity
  8
Layer_1
 62
5
100
AcDbPolyline
 90
2
 70
0
 10
244.147976
 20
506.633813
 30
0.0
 10
262.026003
 20
506.968813
 30
0.0
  0
LWPOLYLINE
  5
11a
100
AcDbEntity
  8
Layer_1
 62
5
100
AcDbPolyline
 90
2
 70
0
 10
219.529938
 20
506.174812
 30
0.0
 10
157.969544
 20
505.670811
 30
0.0
  0
LWPOLYLINE
  5
11b
100
AcDbEntity
  8
Layer_1
 62
5
100
AcDbPolyline
 90
2
 70
0
 10
286.578041
 20
532.320852
 30
0.0
 10
286.504040
 20
507.083813
 30
0.0
  0
LWPOLYLINE
  5
11c
100
AcDbEntity
  8
Layer_1
 62
5
100
AcDbPolyline
 90
2
 70
0
 10
262.026003
 20
506.968813
 30
0.0
 10
286.504040
 20
507.083813
 30
0.0
  0
LWPOLYLINE
  5
11d
100
AcDbEntity
  8
Layer_1
 62
5
100
AcDbPolyline
 90
2
 70
0
 10
219.529938
 20
506.174812
 30
0.0
 10
244.147976
 20
506.633813
 30
0.0
  0
LWPOLYLINE
  5
11e
100
AcDbEntity
  8
Layer_1
 62
5
100
AcDbPolyline
 90
2
 70
0
 10
158.508045
 20
619.422985
 30
0.0
 10
181.711780
 20
619.422985
 30
0.0
  0
LWPOLYLINE
  5
11f
100
AcDbEntity
  8
Layer_1
 62
5
100
AcDbPolyline
 90
2
 70
0
 10
188.211690
 20
619.422985
 30
0.0
 10
211.414926
 20
619.422985
 30
0.0
  0
LWPOLYLINE
  5
120
100
AcDbEntity
  8
Layer_1
 62
5
100
AcDbPolyline
 90
2
 70
0
 10
218.423936
 20
619.422985
 30
0.0
 10
241.626972
 20
619.422985
 30
0.0
  0
LWPOLYLINE
  5
121
100
AcDbEntity
  8
Layer_1
 62
5
100
AcDbPolyline
 90
2
 70
0
 10
249.658984
 20
619.422985
 30
0.0
 10
272.863020
 20
619.422985
 30
0.0
  0
LWPOLYLINE
  5
122
100
AcDbEntity
  8
Layer_1
 62
5
100
AcDbPolyline
 90
2
 70
0
 10
281.920033
 20
619.422985
 30
0.0
 10
305.123069
 20
619.422985
 30
0.0
  0
LWPOLYLINE
  5
123
100
AcDbEntity
  8
Layer_1
 62
5
100
AcDbPolyline
 90
2
 70
0
 10
156.686242
 20
544.440870
 30
0.0
 10
179.965778
 20
544.826871
 30
0.0
  0
LWPOLYLINE
  5
124
100
AcDbEntity
  8
Layer_1
 62
5
100
AcDbPolyline
 90
2
 70
0
 10
187.644089
 20
544.440870
 30
0.0
 10
210.923925
 20
544.826871
 30
0.0
  0
LWPOLYLINE
  5
125
100
AcDbEntity
  8
Layer_1
 62
5
100
AcDbPolyline
 90
2
 70
0
 10
219.038937
 20
544.440870
 30
0.0
 10
242.317973
 20
544.826871
 30
0.0
  0
LWPOLYLINE
  5
126
100
AcDbEntity
  8
Layer_1
 62
5
100
AcDbPolyline
 90
2
 70
0
 10
250.432985
 20
544.440870
 30
0.0
 10
273.713021
 20
544.826871
 30
0.0
  0
LWPOLYLINE
  5
127
100
AcDbEntity
  8
Layer_1
 62
5
100
AcDbPolyline
 90
2
 70
0
 10
282.132034
 20
544.440870
 30
0.0
 10
305.412069
 20
544.826871
 30
0.0
  0
LWPOLYLINE
  5
128
100
AcDbEntity
  8
Layer_1
 62
5
100
AcDbPolyline
 90
2
 70
0
 10
282.673035
 20
1061.822661
 30
0.0
 10
279.166029
 20
1065.463666
 30
0.0
  0
LWPOLYLINE
  5
129
100
AcDbEntity
  8
Layer_1
 62
5
100
AcDbPolyline
 90
2
 70
0
 10
327.991104
 20
1060.567659
 30
0.0
 10
324.484098
 20
1064.208664
 30
0.0
  0
LWPOLYLINE
  5
12a
100
AcDbEntity
  8
Layer_1
 62
5
100
AcDbPolyline
 90
2
 70
0
 10
375.644177
 20
1060.567659
 30
0.0
 10
372.137171
 20
1064.208664
 30
0.0
  0
LWPOLYLINE
  5
12b
100
AcDbEntity
  8
Layer_1
 62
5
100
AcDbPolyline
 90
2
 70
0
 10
423.787250
 20
1060.567659
 30
0.0
 10
420.280245
 20
1064.208664
 30
0.0
  0
LWPOLYLINE
  5
12c
100
AcDbEntity
  8
Layer_1
 62
5
100
AcDbPolyline
 90
2
 70
0
 10
469.475320
 20
1060.567659
 30
0.0
 10
465.968315
 20
1064.208664
 30
0.0
  0
LWPOLYLINE
  5
12d
100
AcDbEntity
  8
Layer_1
 62
5
100
AcDbPolyline
 90
2
 70
0
 10
159.471246
 20
801.045262
 30
0.0
 10
154.639639
 20
800.897262
 30
0.0
  0
LWPOLYLINE
  5
12e
100
AcDbEntity
  8
Layer_1
 62
5
100
AcDbPolyline
 90
2
 70
0
 10
157.713444
 20
749.186183
 30
0.0
 10
173.933168
 20
749.145183
 30
0.0
  0
LWPOLYLINE
  5
12f
100
AcDbEntity
  8
Layer_1
 62
5
100
AcDbPolyline
 90
2
 70
0
 10
190.496094
 20
801.045262
 30
0.0
 10
185.664486
 20
800.897262
 30
0.0
  0
LWPOLYLINE
  5
130
100
AcDbEntity
  8
Layer_1
 62
5
100
AcDbPolyline
 90
2
 70
0
 10
188.738291
 20
749.186183
 30
0.0
 10
204.957916
 20
749.145183
 30
0.0
  0
LWPOLYLINE
  5
131
100
AcDbEntity
  8
Layer_1
 62
5
100
AcDbPolyline
 90
2
 70
0
 10
218.333936
 20
801.045262
 30
0.0
 10
213.501929
 20
800.897262
 30
0.0
  0
LWPOLYLINE
  5
132
100
AcDbEntity
  8
Layer_1
 62
5
100
AcDbPolyline
 90
2
 70
0
 10
216.575934
 20
749.186183
 30
0.0
 10
232.794958
 20
749.145183
 30
0.0
  0
LWPOLYLINE
  5
133
100
AcDbEntity
  8
Layer_1
 62
5
100
AcDbPolyline
 90
2
 70
0
 10
249.846984
 20
801.045262
 30
0.0
 10
245.014977
 20
800.897262
 30
0.0
  0
LWPOLYLINE
  5
134
100
AcDbEntity
  8
Layer_1
 62
5
100
AcDbPolyline
 90
2
 70
0
 10
248.088982
 20
749.186183
 30
0.0
 10
264.309007
 20
749.145183
 30
0.0
  0
LWPOLYLINE
  5
135
100
AcDbEntity
  8
Layer_1
 62
5
100
AcDbPolyline
 90
2
 70
0
 10
278.439028
 20
801.045262
 30
0.0
 10
273.608021
 20
800.897262
 30
0.0
  0
LWPOLYLINE
  5
136
100
AcDbEntity
  8
Layer_1
 62
5
100
AcDbPolyline
 90
2
 70
0
 10
276.681025
 20
749.186183
 30
0.0
 10
292.901050
 20
749.145183
 30
0.0
  0
LWPOLYLINE
  5
137
100
AcDbEntity
  8
Layer_1
 62
5
100
AcDbPolyline
 90
2
 70
0
 10
616.719545
 20
1135.223773
 30
0.0
 10
606.826530
 20
1138.431778
 30
0.0
  0
LWPOLYLINE
  5
138
100
AcDbEntity
  8
Layer_1
 62
5
100
AcDbPolyline
 90
3
 70
0
 10
612.018538
 20
1154.441802
 30
0.0
 10
621.912553
 20
1151.232797
 30
0.0
 10
616.719545
 20
1135.223773
 30
0.0
  0
LWPOLYLINE
  5
139
100
AcDbEntity
  8
Layer_1
 62
5
100
AcDbPolyline
 90
2
 70
0
 10
606.826530
 20
1138.431778
 30
0.0
 10
612.018538
 20
1154.441802
 30
0.0
  0
LWPOLYLINE
  5
13a
100
AcDbEntity
  8
Layer_1
 62
1
100
AcDbPolyline
 90
2
 70
0
 10
150.472733
 20
805.100269
 30
0.0
 10
734.473725
 20
805.100269
 30
0.0
  0
LWPOLYLINE
  5
13b
100
AcDbEntity
  8
Layer_1
 62
1
100
AcDbPolyline
 90
3
 70
0
 10
734.473725
 20
421.099682
 30
0.0
 10
150.472733
 20
421.099682
 30
0.0
 10
150.472733
 20
805.100269
 30
0.0
  0
LWPOLYLINE
  5
13c
100
AcDbEntity
  8
Layer_1
 62
1
100
AcDbPolyline
 90
2
 70
0
 10
734.473725
 20
805.100269
 30
0.0
 10
734.473725
 20
421.099682
 30
0.0
  0
LWPOLYLINE
  5
13d
100
AcDbEntity
  8
Layer_1
 62
1
100
AcDbPolyline
 90
2
 70
0
 10
783.786800
 20
1220.044602
 30
0.0
 10
1367.785692
 20
1220.044602
 30
0.0
  0
LWPOLYLINE
  5
13e
100
AcDbEntity
  8
Layer_1
 62
1
100
AcDbPolyline
 90
3
 70
0
 10
1367.785692
 20
836.044316
 30
0.0
 10
783.786800
 20
836.044316
 30
0.0
 10
783.786800
 20
1220.044602
 30
0.0
  0
SPLINE
  5
13f
100
AcDbEntity
  8
Layer_1
 62
5
100
AcDbSpline
 70
8
 71
3
 72
8
 73
4
 74
0
 40
0
 40
0
 40
0
 40
0
 40
1
 40
1
 40
1
 40
1
 10
534.704420
 20
1118.649748
 30
0.0
 10
534.704420
 20
1127.773762
 30
0.0
 10
527.307408
 20
1135.170773
 30
0.0
 10
518.182394
 20
1135.170773
 30
0.0
  0
SPLINE
  5
140
100
AcDbEntity
  8
Layer_1
 62
5
100
AcDbSpline
 70
8
 71
3
 72
8
 73
4
 74
0
 40
0
 40
0
 40
0
 40
0
 40
1
 40
1
 40
1
 40
1
 10
518.182394
 20
1135.170773
 30
0.0
 10
509.058380
 20
1135.170773
 30
0.0
 10
501.661369
 20
1127.773762
 30
0.0
 10
501.661369
 20
1118.649748
 30
0.0
  0
SPLINE
  5
141
100
AcDbEntity
  8
Layer_1
 62
5
100
AcDbSpline
 70
8
 71
3
 72
8
 73
4
 74
0
 40
0
 40
0
 40
0
 40
0
 40
1
 40
1
 40
1
 40
1
 10
501.661369
 20
1118.649748
 30
0.0
 10
501.661369
 20
1109.524734
 30
0.0
 10
509.058380
 20
1102.127722
 30
0.0
 10
518.182394
 20
1102.127722
 30
0.0
  0
SPLINE
  5
142
100
AcDbEntity
  8
Layer_1
 62
5
100
AcDbSpline
 70
8
 71
3
 72
8
 73
4
 74
0
 40
0
 40
0
 40
0
 40
0
 40
1
 40
1
 40
1
 40
1
 10
518.182394
 20
1102.127722
 30
0.0
 10
527.307408
 20
1102.127722
 30
0.0
 10
534.704420
 20
1109.524734
 30
0.0
 10
534.704420
 20
1118.649748
 30
0.0
  0
SPLINE
  5
143
100
AcDbEntity
  8
Layer_1
 62
5
100
AcDbSpline
 70
8
 71
3
 72
8
 73
4
 74
0
 40
0
 40
0
 40
0
 40
0
 40
1
 40
1
 40
1
 40
1
 10
572.392477
 20
1118.649748
 30
0.0
 10
572.392477
 20
1127.773762
 30
0.0
 10
564.995466
 20
1135.170773
 30
0.0
 10
555.871452
 20
1135.170773
 30
0.0
  0
SPLINE
  5
144
100
AcDbEntity
  8
Layer_1
 62
5
100
AcDbSpline
 70
8
 71
3
 72
8
 73
4
 74
0
 40
0
 40
0
 40
0
 40
0
 40
1
 40
1
 40
1
 40
1
 10
555.871452
 20
1135.170773
 30
0.0
 10
546.746438
 20
1135.170773
 30
0.0
 10
539.349427
 20
1127.773762
 30
0.0
 10
539.349427
 20
1118.649748
 30
0.0
  0
SPLINE
  5
145
100
AcDbEntity
  8
Layer_1
 62
5
100
AcDbSpline
 70
8
 71
3
 72
8
 73
4
 74
0
 40
0
 40
0
 40
0
 40
0
 40
1
 40
1
 40
1
 40
1
 10
539.349427
 20
1118.649748
 30
0.0
 10
539.349427
 20
1109.524734
 30
0.0
 10
546.746438
 20
1102.127722
 30
0.0
 10
555.871452
 20
1102.127722
 30
0.0
  0
SPLINE
  5
146
100
AcDbEntity
  8
Layer_1
 62
5
100
AcDbSpline
 70
8
 71
3
 72
8
 73
4
 74
0
 40
0
 40
0
 40
0
 40
0
 40
1
 40
1
 40
1
 40
1
 10
555.871452
 20
1102.127722
 30
0.0
 10
564.995466
 20
1102.127722
 30
0.0
 10
572.392477
 20
1109.524734
 30
0.0
 10
572.392477
 20
1118.649748
 30
0.0
  0
SPLINE
  5
147
100
AcDbEntity
  8
Layer_1
 62
5
100
AcDbSpline
 70
8
 71
3
 72
8
 73
4
 74
0
 40
0
 40
0
 40
0
 40
0
 40
1
 40
1
 40
1
 40
1
 10
534.207419
 20
1080.464689
 30
0.0
 10
534.207419
 20
1089.589703
 30
0.0
 10
526.810408
 20
1096.986714
 30
0.0
 10
517.686394
 20
1096.986714
 30
0.0
  0
SPLINE
  5
148
100
AcDbEntity
  8
Layer_1
 62
5
100
AcDbSpline
 70
8
 71
3
 72
8
 73
4
 74
0
 40
0
 40
0
 40
0
 40
0
 40
1
 40
1
 40
1
 40
1
 10
517.686394
 20
1096.986714
 30
0.0
 10
508.561380
 20
1096.986714
 30
0.0
 10
501.164368
 20
1089.589703
 30
0.0
 10
501.164368
 20
1080.464689
 30
0.0
  0
SPLINE
  5
149
100
AcDbEntity
  8
Layer_1
 62
5
100
AcDbSpline
 70
8
 71
3
 72
8
 73
4
 74
0
 40
0
 40
0
 40
0
 40
0
 40
1
 40
1
 40
1
 40
1
 10
501.164368
 20
1080.464689
 30
0.0
 10
501.164368
 20
1071.340675
 30
0.0
 10
508.561380
 20
1063.943664
 30
0.0
 10
517.686394
 20
1063.943664
 30
0.0
  0
SPLINE
  5
14a
100
AcDbEntity
  8
Layer_1
 62
5
100
AcDbSpline
 70
8
 71
3
 72
8
 73
4
 74
0
 40
0
 40
0
 40
0
 40
0
 40
1
 40
1
 40
1
 40
1
 10
517.686394
 20
1063.943664
 30
0.0
 10
526.810408
 20
1063.943664
 30
0.0
 10
534.207419
 20
1071.340675
 30
0.0
 10
534.207419
 20
1080.464689
 30
0.0
  0
SPLINE
  5
14b
100
AcDbEntity
  8
Layer_1
 62
5
100
AcDbSpline
 70
8
 71
3
 72
8
 73
4
 74
0
 40
0
 40
0
 40
0
 40
0
 40
1
 40
1
 40
1
 40
1
 10
573.750479
 20
1080.464689
 30
0.0
 10
573.750479
 20
1089.589703
 30
0.0
 10
566.353468
 20
1096.986714
 30
0.0
 10
557.228454
 20
1096.986714
 30
0.0
  0
SPLINE
  5
14c
100
AcDbEntity
  8
Layer_1
 62
5
100
AcDbSpline
 70
8
 71
3
 72
8
 73
4
 74
0
 40
0
 40
0
 40
0
 40
0
 40
1
 40
1
 40
1
 40
1
 10
557.228454
 20
1096.986714
 30
0.0
 10
548.103440
 20
1096.986714
 30
0.0
 10
540.706429
 20
1089.589703
 30
0.0
 10
540.706429
 20
1080.464689
 30
0.0
  0
SPLINE
  5
14d
100
AcDbEntity
  8
Layer_1
 62
5
100
AcDbSpline
 70
8
 71
3
 72
8
 73
4
 74
0
 40
0
 40
0
 40
0
 40
0
 40
1
 40
1
 40
1
 40
1
 10
540.706429
 20
1080.464689
 30
0.0
 10
540.706429
 20
1071.340675
 30
0.0
 10
548.103440
 20
1063.943664
 30
0.0
 10
557.228454
 20
1063.943664
 30
0.0
  0
SPLINE
  5
14e
100
AcDbEntity
  8
Layer_1
 62
5
100
AcDbSpline
 70
8
 71
3
 72
8
 73
4
 74
0
 40
0
 40
0
 40
0
 40
0
 40
1
 40
1
 40
1
 40
1
 10
557.228454
 20
1063.943664
 30
0.0
 10
566.353468
 20
1063.943664
 30
0.0
 10
573.750479
 20
1071.340675
 30
0.0
 10
573.750479
 20
1080.464689
 30
0.0
  0
LWPOLYLINE
  5
14f
100
AcDbEntity
  8
Layer_1
 62
1
100
AcDbPolyline
 90
2
 70
0
 10
1367.785692
 20
1220.044602
 30
0.0
 10
1367.785692
 20
836.044316
 30
0.0
  0
LWPOLYLINE
  5
150
100
AcDbEntity
  8
Layer_1
 62
5
100
AcDbPolyline
 90
43
 70
0
 10
156.395342
 20
1176.819336
 30
0.0
 10
156.395342
 20
1168.165523
 30
0.0
 10
153.799238
 20
1166.001820
 30
0.0
 10
153.799238
 20
1161.632813
 30
0.0
 10
163.354852
 20
1161.632813
 30
0.0
 10
163.354852
 20
1146.098790
 30
0.0
 10
172.404866
 20
1146.098790
 30
0.0
 10
174.568269
 20
1148.261793
 30
0.0
 10
176.731673
 20
1148.261793
 30
0.0
 10
178.895176
 20
1146.098790
 30
0.0
 10
183.654683
 20
1146.098790
 30
0.0
 10
185.385486
 20
1148.261793
 30
0.0
 10
187.981590
 20
1148.261793
 30
0.0
 10
190.145093
 20
1146.098790
 30
0.0
 10
194.471900
 20
1146.098790
 30
0.0
 10
196.635403
 20
1148.261793
 30
0.0
 10
198.798806
 20
1148.261793
 30
0.0
 10
200.961910
 20
1146.098790
 30
0.0
 10
201.827911
 20
1146.098790
 30
0.0
 10
202.109912
 20
1145.816789
 30
0.0
 10
202.259912
 20
1145.665789
 30
0.0
 10
205.288916
 20
1145.665789
 30
0.0
 10
212.211927
 20
1138.742778
 30
0.0
 10
220.432940
 20
1138.742778
 30
0.0
 10
227.325950
 20
1145.635789
 30
0.0
 10
227.355950
 20
1146.098790
 30
0.0
 10
231.249956
 20
1146.098790
 30
0.0
 10
232.548958
 20
1147.396792
 30
0.0
 10
232.548958
 20
1147.828792
 30
0.0
 10
236.442964
 20
1147.828792
 30
0.0
 10
236.442964
 20
1147.396792
 30
0.0
 10
237.740966
 20
1146.098790
 30
0.0
 10
238.605967
 20
1146.098790
 30
0.0
 10
238.605967
 20
1145.665789
 30
0.0
 10
241.401972
 20
1145.665789
 30
0.0
 10
242.932974
 20
1146.098790
 30
0.0
 10
246.826980
 20
1146.098790
 30
0.0
 10
246.826980
 20
1150.857797
 30
0.0
 10
254.265991
 20
1150.857797
 30
0.0
 10
258.076997
 20
1154.751803
 30
0.0
 10
258.076997
 20
1158.646809
 30
0.0
 10
265.433008
 20
1166.001820
 30
0.0
 10
265.433008
 20
1176.819336
 30
0.0
  0
LWPOLYLINE
  5
151
100
AcDbEntity
  8
Layer_1
 62
5
100
AcDbPolyline
 90
43
 70
0
 10
156.395342
 20
1176.819336
 30
0.0
 10
156.395342
 20
1185.473050
 30
0.0
 10
153.799238
 20
1187.636553
 30
0.0
 10
153.799238
 20
1192.006260
 30
0.0
 10
163.354852
 20
1192.006260
 30
0.0
 10
163.354852
 20
1207.540183
 30
0.0
 10
172.404866
 20
1207.540183
 30
0.0
 10
174.568269
 20
1205.376780
 30
0.0
 10
176.731673
 20
1205.376780
 30
0.0
 10
178.895176
 20
1207.540183
 30
0.0
 10
183.654683
 20
1207.540183
 30
0.0
 10
185.385486
 20
1205.376780
 30
0.0
 10
187.981590
 20
1205.376780
 30
0.0
 10
190.145093
 20
1207.540183
 30
0.0
 10
194.471900
 20
1207.540183
 30
0.0
 10
196.635403
 20
1205.376780
 30
0.0
 10
198.798806
 20
1205.376780
 30
0.0
 10
200.961910
 20
1207.540183
 30
0.0
 10
201.827911
 20
1207.540183
 30
0.0
 10
202.109912
 20
1207.822084
 30
0.0
 10
202.259912
 20
1207.972884
 30
0.0
 10
205.288916
 20
1207.972884
 30
0.0
 10
212.211927
 20
1214.895895
 30
0.0
 10
220.432940
 20
1214.895895
 30
0.0
 10
227.325950
 20
1208.002684
 30
0.0
 10
227.355950
 20
1207.540183
 30
0.0
 10
231.249956
 20
1207.540183
 30
0.0
 10
232.548958
 20
1206.242081
 30
0.0
 10
232.548958
 20
1205.809381
 30
0.0
 10
236.442964
 20
1205.809381
 30
0.0
 10
236.442964
 20
1206.242081
 30
0.0
 10
237.740966
 20
1207.540183
 30
0.0
 10
238.605967
 20
1207.540183
 30
0.0
 10
238.605967
 20
1207.972884
 30
0.0
 10
241.401972
 20
1207.972884
 30
0.0
 10
242.932974
 20
1207.540183
 30
0.0
 10
246.826980
 20
1207.540183
 30
0.0
 10
246.826980
 20
1202.780576
 30
0.0
 10
254.265991
 20
1202.780576
 30
0.0
 10
258.076997
 20
1198.886370
 30
0.0
 10
258.076997
 20
1194.992264
 30
0.0
 10
265.433008
 20
1187.636553
 30
0.0
 10
265.433008
 20
1176.819336
 30
0.0
  0
LWPOLYLINE
  5
152
100
AcDbEntity
  8
Layer_1
 62
5
100
AcDbPolyline
 90
43
 70
0
 10
271.842018
 20
1176.819336
 30
0.0
 10
271.842018
 20
1168.165523
 30
0.0
 10
269.246014
 20
1166.001820
 30
0.0
 10
269.246014
 20
1161.632813
 30
0.0
 10
278.802029
 20
1161.632813
 30
0.0
 10
278.802029
 20
1146.098790
 30
0.0
 10
287.852043
 20
1146.098790
 30
0.0
 10
290.015046
 20
1148.261793
 30
0.0
 10
292.179049
 20
1148.261793
 30
0.0
 10
294.342052
 20
1146.098790
 30
0.0
 10
299.102060
 20
1146.098790
 30
0.0
 10
300.833062
 20
1148.261793
 30
0.0
 10
303.429066
 20
1148.261793
 30
0.0
 10
305.592070
 20
1146.098790
 30
0.0
 10
309.919076
 20
1146.098790
 30
0.0
 10
312.082080
 20
1148.261793
 30
0.0
 10
314.246083
 20
1148.261793
 30
0.0
 10
316.409086
 20
1146.098790
 30
0.0
 10
317.275087
 20
1146.098790
 30
0.0
 10
317.557088
 20
1145.816789
 30
0.0
 10
317.707088
 20
1145.665789
 30
0.0
 10
320.736093
 20
1145.665789
 30
0.0
 10
327.659103
 20
1138.742778
 30
0.0
 10
335.880116
 20
1138.742778
 30
0.0
 10
342.773126
 20
1145.635789
 30
0.0
 10
342.803126
 20
1146.098790
 30
0.0
 10
346.697132
 20
1146.098790
 30
0.0
 10
347.995134
 20
1147.396792
 30
0.0
 10
347.995134
 20
1147.828792
 30
0.0
 10
351.890140
 20
1147.828792
 30
0.0
 10
351.890140
 20
1147.396792
 30
0.0
 10
353.188142
 20
1146.098790
 30
0.0
 10
354.053144
 20
1146.098790
 30
0.0
 10
354.053144
 20
1145.665789
 30
0.0
 10
356.849148
 20
1145.665789
 30
0.0
 10
358.380150
 20
1146.098790
 30
0.0
 10
362.274156
 20
1146.098790
 30
0.0
 10
362.274156
 20
1150.857797
 30
0.0
 10
369.713168
 20
1150.857797
 30
0.0
 10
373.524173
 20
1154.751803
 30
0.0
 10
373.524173
 20
1158.646809
 30
0.0
 10
380.880185
 20
1166.001820
 30
0.0
 10
380.880185
 20
1176.819336
 30
0.0
  0
LWPOLYLINE
  5
153
100
AcDbEntity
  8
Layer_1
 62
5
100
AcDbPolyline
 90
43
 70
0
 10
271.842018
 20
1176.819336
 30
0.0
 10
271.842018
 20
1185.473050
 30
0.0
 10
269.246014
 20
1187.636553
 30
0.0
 10
269.246014
 20
1192.006260
 30
0.0
 10
278.802029
 20
1192.006260
 30
0.0
 10
278.802029
 20
1207.540183
 30
0.0
 10
287.852043
 20
1207.540183
 30
0.0
 10
290.015046
 20
1205.376780
 30
0.0
 10
292.179049
 20
1205.376780
 30
0.0
 10
294.342052
 20
1207.540183
 30
0.0
 10
299.102060
 20
1207.540183
 30
0.0
 10
300.833062
 20
1205.376780
 30
0.0
 10
303.429066
 20
1205.376780
 30
0.0
 10
305.592070
 20
1207.540183
 30
0.0
 10
309.919076
 20
1207.540183
 30
0.0
 10
312.082080
 20
1205.376780
 30
0.0
 10
314.246083
 20
1205.376780
 30
0.0
 10
316.409086
 20
1207.540183
 30
0.0
 10
317.275087
 20
1207.540183
 30
0.0
 10
317.557088
 20
1207.822084
 30
0.0
 10
317.707088
 20
1207.972884
 30
0.0
 10
320.736093
 20
1207.972884
 30
0.0
 10
327.659103
 20
1214.895895
 30
0.0
 10
335.880116
 20
1214.895895
 30
0.0
 10
342.773126
 20
1208.002684
 30
0.0
 10
342.803126
 20
1207.540183
 30
0.0
 10
346.697132
 20
1207.540183
 30
0.0
 10
347.995134
 20
1206.242081
 30
0.0
 10
347.995134
 20
1205.809381
 30
0.0
 10
351.890140
 20
1205.809381
 30
0.0
 10
351.890140
 20
1206.242081
 30
0.0
 10
353.188142
 20
1207.540183
 30
0.0
 10
354.053144
 20
1207.540183
 30
0.0
 10
354.053144
 20
1207.972884
 30
0.0
 10
356.849148
 20
1207.972884
 30
0.0
 10
358.380150
 20
1207.540183
 30
0.0
 10
362.274156
 20
1207.540183
 30
0.0
 10
362.274156
 20
1202.780576
 30
0.0
 10
369.713168
 20
1202.780576
 30
0.0
 10
373.524173
 20
1198.886370
 30
0.0
 10
373.524173
 20
1194.992264
 30
0.0
 10
380.880185
 20
1187.636553
 30
0.0
 10
380.880185
 20
1176.819336
 30
0.0
  0
LWPOLYLINE
  5
154
100
AcDbEntity
  8
Layer_1
 62
5
100
AcDbPolyline
 90
43
 70
0
 10
387.784195
 20
1176.309536
 30
0.0
 10
387.784195
 20
1167.655822
 30
0.0
 10
385.188191
 20
1165.492819
 30
0.0
 10
385.188191
 20
1161.122812
 30
0.0
 10
394.743206
 20
1161.122812
 30
0.0
 10
394.743206
 20
1145.588789
 30
0.0
 10
403.793220
 20
1145.588789
 30
0.0
 10
405.957223
 20
1147.751792
 30
0.0
 10
408.120226
 20
1147.751792
 30
0.0
 10
410.284230
 20
1145.588789
 30
0.0
 10
415.043237
 20
1145.588789
 30
0.0
 10
416.774239
 20
1147.751792
 30
0.0
 10
419.370243
 20
1147.751792
 30
0.0
 10
421.534247
 20
1145.588789
 30
0.0
 10
425.860253
 20
1145.588789
 30
0.0
 10
428.024257
 20
1147.751792
 30
0.0
 10
430.187260
 20
1147.751792
 30
0.0
 10
432.351263
 20
1145.588789
 30
0.0
 10
433.216265
 20
1145.588789
 30
0.0
 10
433.498265
 20
1145.306788
 30
0.0
 10
433.649265
 20
1145.155788
 30
0.0
 10
436.678270
 20
1145.155788
 30
0.0
 10
443.601280
 20
1138.232778
 30
0.0
 10
451.822293
 20
1138.232778
 30
0.0
 10
458.715304
 20
1145.125788
 30
0.0
 10
458.745304
 20
1145.588789
 30
0.0
 10
462.639310
 20
1145.588789
 30
0.0
 10
463.937312
 20
1146.886791
 30
0.0
 10
463.937312
 20
1147.319791
 30
0.0
 10
467.831317
 20
1147.319791
 30
0.0
 10
467.831317
 20
1146.886791
 30
0.0
 10
469.129319
 20
1145.588789
 30
0.0
 10
469.994321
 20
1145.588789
 30
0.0
 10
469.994321
 20
1145.155788
 30
0.0
 10
472.790325
 20
1145.155788
 30
0.0
 10
474.321327
 20
1145.588789
 30
0.0
 10
478.216333
 20
1145.588789
 30
0.0
 10
478.216333
 20
1150.348796
 30
0.0
 10
485.655345
 20
1150.348796
 30
0.0
 10
489.465351
 20
1154.242802
 30
0.0
 10
489.465351
 20
1158.136808
 30
0.0
 10
496.821362
 20
1165.492819
 30
0.0
 10
496.821362
 20
1176.309536
 30
0.0
  0
LWPOLYLINE
  5
155
100
AcDbEntity
  8
Layer_1
 62
5
100
AcDbPolyline
 90
43
 70
0
 10
387.784195
 20
1176.309536
 30
0.0
 10
387.784195
 20
1184.963349
 30
0.0
 10
385.188191
 20
1187.126752
 30
0.0
 10
385.188191
 20
1191.496459
 30
0.0
 10
394.743206
 20
1191.496459
 30
0.0
 10
394.743206
 20
1207.030383
 30
0.0
 10
403.793220
 20
1207.030383
 30
0.0
 10
405.957223
 20
1204.866979
 30
0.0
 10
408.120226
 20
1204.866979
 30
0.0
 10
410.284230
 20
1207.030383
 30
0.0
 10
415.043237
 20
1207.030383
 30
0.0
 10
416.774239
 20
1204.866979
 30
0.0
 10
419.370243
 20
1204.866979
 30
0.0
 10
421.534247
 20
1207.030383
 30
0.0
 10
425.860253
 20
1207.030383
 30
0.0
 10
428.024257
 20
1204.866979
 30
0.0
 10
430.187260
 20
1204.866979
 30
0.0
 10
432.351263
 20
1207.030383
 30
0.0
 10
433.216265
 20
1207.030383
 30
0.0
 10
433.498265
 20
1207.312283
 30
0.0
 10
433.649265
 20
1207.463083
 30
0.0
 10
436.678270
 20
1207.463083
 30
0.0
 10
443.601280
 20
1214.386094
 30
0.0
 10
451.822293
 20
1214.386094
 30
0.0
 10
458.715304
 20
1207.492883
 30
0.0
 10
458.745304
 20
1207.030383
 30
0.0
 10
462.639310
 20
1207.030383
 30
0.0
 10
463.937312
 20
1205.732381
 30
0.0
 10
463.937312
 20
1205.299680
 30
0.0
 10
467.831317
 20
1205.299680
 30
0.0
 10
467.831317
 20
1205.732381
 30
0.0
 10
469.129319
 20
1207.030383
 30
0.0
 10
469.994321
 20
1207.030383
 30
0.0
 10
469.994321
 20
1207.463083
 30
0.0
 10
472.790325
 20
1207.463083
 30
0.0
 10
474.321327
 20
1207.030383
 30
0.0
 10
478.216333
 20
1207.030383
 30
0.0
 10
478.216333
 20
1202.270875
 30
0.0
 10
485.655345
 20
1202.270875
 30
0.0
 10
489.465351
 20
1198.376669
 30
0.0
 10
489.465351
 20
1194.482463
 30
0.0
 10
496.821362
 20
1187.126752
 30
0.0
 10
496.821362
 20
1176.309536
 30
0.0
  0
LWPOLYLINE
  5
156
100
AcDbEntity
  8
Layer_1
 62
5
100
AcDbPolyline
 90
43
 70
0
 10
503.464372
 20
1176.534536
 30
0.0
 10
503.464372
 20
1167.880823
 30
0.0
 10
500.868368
 20
1165.717820
 30
0.0
 10
500.868368
 20
1161.347813
 30
0.0
 10
510.423383
 20
1161.347813
 30
0.0
 10
510.423383
 20
1145.813789
 30
0.0
 10
519.473396
 20
1145.813789
 30
0.0
 10
521.637400
 20
1147.976792
 30
0.0
 10
523.800403
 20
1147.976792
 30
0.0
 10
525.964406
 20
1145.813789
 30
0.0
 10
530.723414
 20
1145.813789
 30
0.0
 10
532.454416
 20
1147.976792
 30
0.0
 10
535.050420
 20
1147.976792
 30
0.0
 10
537.214423
 20
1145.813789
 30
0.0
 10
541.541430
 20
1145.813789
 30
0.0
 10
543.704433
 20
1147.976792
 30
0.0
 10
545.867437
 20
1147.976792
 30
0.0
 10
548.031440
 20
1145.813789
 30
0.0
 10
548.896441
 20
1145.813789
 30
0.0
 10
549.178442
 20
1145.531789
 30
0.0
 10
549.329442
 20
1145.380788
 30
0.0
 10
552.358447
 20
1145.380788
 30
0.0
 10
559.281457
 20
1138.457778
 30
0.0
 10
567.502470
 20
1138.457778
 30
0.0
 10
574.395480
 20
1145.350788
 30
0.0
 10
574.425480
 20
1145.813789
 30
0.0
 10
578.319486
 20
1145.813789
 30
0.0
 10
579.617488
 20
1147.111791
 30
0.0
 10
579.617488
 20
1147.544792
 30
0.0
 10
583.511494
 20
1147.544792
 30
0.0
 10
583.511494
 20
1147.111791
 30
0.0
 10
584.809496
 20
1145.813789
 30
0.0
 10
585.675498
 20
1145.813789
 30
0.0
 10
585.675498
 20
1145.380788
 30
0.0
 10
588.470502
 20
1145.380788
 30
0.0
 10
590.002504
 20
1145.813789
 30
0.0
 10
593.896510
 20
1145.813789
 30
0.0
 10
593.896510
 20
1150.572796
 30
0.0
 10
601.335521
 20
1150.572796
 30
0.0
 10
605.146527
 20
1154.467802
 30
0.0
 10
605.146527
 20
1158.361808
 30
0.0
 10
612.501539
 20
1165.717820
 30
0.0
 10
612.501539
 20
1176.534536
 30
0.0
  0
LWPOLYLINE
  5
157
100
AcDbEntity
  8
Layer_1
 62
5
100
AcDbPolyline
 90
43
 70
0
 10
503.464372
 20
1176.534536
 30
0.0
 10
503.464372
 20
1185.188349
 30
0.0
 10
500.868368
 20
1187.351753
 30
0.0
 10
500.868368
 20
1191.721459
 30
0.0
 10
510.423383
 20
1191.721459
 30
0.0
 10
510.423383
 20
1207.255383
 30
0.0
 10
519.473396
 20
1207.255383
 30
0.0
 10
521.637400
 20
1205.091980
 30
0.0
 10
523.800403
 20
1205.091980
 30
0.0
 10
525.964406
 20
1207.255383
 30
0.0
 10
530.723414
 20
1207.255383
 30
0.0
 10
532.454416
 20
1205.091980
 30
0.0
 10
535.050420
 20
1205.091980
 30
0.0
 10
537.214423
 20
1207.255383
 30
0.0
 10
541.541430
 20
1207.255383
 30
0.0
 10
543.704433
 20
1205.091980
 30
0.0
 10
545.867437
 20
1205.091980
 30
0.0
 10
548.031440
 20
1207.255383
 30
0.0
 10
548.896441
 20
1207.255383
 30
0.0
 10
549.178442
 20
1207.537283
 30
0.0
 10
549.329442
 20
1207.688084
 30
0.0
 10
552.358447
 20
1207.688084
 30
0.0
 10
559.281457
 20
1214.611094
 30
0.0
 10
567.502470
 20
1214.611094
 30
0.0
 10
574.395480
 20
1207.717884
 30
0.0
 10
574.425480
 20
1207.255383
 30
0.0
 10
578.319486
 20
1207.255383
 30
0.0
 10
579.617488
 20
1205.957381
 30
0.0
 10
579.617488
 20
1205.524680
 30
0.0
 10
583.511494
 20
1205.524680
 30
0.0
 10
583.511494
 20
1205.957381
 30
0.0
 10
584.809496
 20
1207.255383
 30
0.0
 10
585.675498
 20
1207.255383
 30
0.0
 10
585.675498
 20
1207.688084
 30
0.0
 10
588.470502
 20
1207.688084
 30
0.0
 10
590.002504
 20
1207.255383
 30
0.0
 10
593.896510
 20
1207.255383
 30
0.0
 10
593.896510
 20
1202.495876
 30
0.0
 10
601.335521
 20
1202.495876
 30
0.0
 10
605.146527
 20
1198.601670
 30
0.0
 10
605.146527
 20
1194.707464
 30
0.0
 10
612.501539
 20
1187.351753
 30
0.0
 10
612.501539
 20
1176.534536
 30
0.0
  0
LWPOLYLINE
  5
158
100
AcDbEntity
  8
Layer_1
 62
5
100
AcDbPolyline
 90
43
 70
0
 10
156.566342
 20
1098.952717
 30
0.0
 10
156.566342
 20
1090.298704
 30
0.0
 10
153.970238
 20
1088.134701
 30
0.0
 10
153.970238
 20
1083.765694
 30
0.0
 10
163.525753
 20
1083.765694
 30
0.0
 10
163.525753
 20
1068.231671
 30
0.0
 10
172.575766
 20
1068.231671
 30
0.0
 10
174.739270
 20
1070.394674
 30
0.0
 10
176.902673
 20
1070.394674
 30
0.0
 10
179.066076
 20
1068.231671
 30
0.0
 10
183.825684
 20
1068.231671
 30
0.0
 10
185.556486
 20
1070.394674
 30
0.0
 10
188.152590
 20
1070.394674
 30
0.0
 10
190.315993
 20
1068.231671
 30
0.0
 10
194.642900
 20
1068.231671
 30
0.0
 10
196.806303
 20
1070.394674
 30
0.0
 10
198.969807
 20
1070.394674
 30
0.0
 10
201.132910
 20
1068.231671
 30
0.0
 10
201.998911
 20
1068.231671
 30
0.0
 10
202.280912
 20
1067.949670
 30
0.0
 10
202.430912
 20
1067.798670
 30
0.0
 10
205.459917
 20
1067.798670
 30
0.0
 10
212.382927
 20
1060.875659
 30
0.0
 10
220.603940
 20
1060.875659
 30
0.0
 10
227.496950
 20
1067.768670
 30
0.0
 10
227.526950
 20
1068.231671
 30
0.0
 10
231.420956
 20
1068.231671
 30
0.0
 10
232.718958
 20
1069.529673
 30
0.0
 10
232.718958
 20
1069.962673
 30
0.0
 10
236.613964
 20
1069.962673
 30
0.0
 10
236.613964
 20
1069.529673
 30
0.0
 10
237.911966
 20
1068.231671
 30
0.0
 10
238.776968
 20
1068.231671
 30
0.0
 10
238.776968
 20
1067.798670
 30
0.0
 10
241.572972
 20
1067.798670
 30
0.0
 10
243.103974
 20
1068.231671
 30
0.0
 10
246.997980
 20
1068.231671
 30
0.0
 10
246.997980
 20
1072.990678
 30
0.0
 10
254.436991
 20
1072.990678
 30
0.0
 10
258.247997
 20
1076.885684
 30
0.0
 10
258.247997
 20
1080.779690
 30
0.0
 10
265.604009
 20
1088.134701
 30
0.0
 10
265.604009
 20
1098.952717
 30
0.0
  0
LWPOLYLINE
  5
159
100
AcDbEntity
  8
Layer_1
 62
5
100
AcDbPolyline
 90
43
 70
0
 10
156.566342
 20
1098.952717
 30
0.0
 10
156.566342
 20
1107.605731
 30
0.0
 10
153.970238
 20
1109.769734
 30
0.0
 10
153.970238
 20
1114.139741
 30
0.0
 10
163.525753
 20
1114.139741
 30
0.0
 10
163.525753
 20
1129.672764
 30
0.0
 10
172.575766
 20
1129.672764
 30
0.0
 10
174.739270
 20
1127.509761
 30
0.0
 10
176.902673
 20
1127.509761
 30
0.0
 10
179.066076
 20
1129.672764
 30
0.0
 10
183.825684
 20
1129.672764
 30
0.0
 10
185.556486
 20
1127.509761
 30
0.0
 10
188.152590
 20
1127.509761
 30
0.0
 10
190.315993
 20
1129.672764
 30
0.0
 10
194.642900
 20
1129.672764
 30
0.0
 10
196.806303
 20
1127.509761
 30
0.0
 10
198.969807
 20
1127.509761
 30
0.0
 10
201.132910
 20
1129.672764
 30
0.0
 10
201.998911
 20
1129.672764
 30
0.0
 10
202.280912
 20
1129.954765
 30
0.0
 10
202.430912
 20
1130.105765
 30
0.0
 10
205.459917
 20
1130.105765
 30
0.0
 10
212.382927
 20
1137.028776
 30
0.0
 10
220.603940
 20
1137.028776
 30
0.0
 10
227.496950
 20
1130.135765
 30
0.0
 10
227.526950
 20
1129.672764
 30
0.0
 10
231.420956
 20
1129.672764
 30
0.0
 10
232.718958
 20
1128.374762
 30
0.0
 10
232.718958
 20
1127.942762
 30
0.0
 10
236.613964
 20
1127.942762
 30
0.0
 10
236.613964
 20
1128.374762
 30
0.0
 10
237.911966
 20
1129.672764
 30
0.0
 10
238.776968
 20
1129.672764
 30
0.0
 10
238.776968
 20
1130.105765
 30
0.0
 10
241.572972
 20
1130.105765
 30
0.0
 10
243.103974
 20
1129.672764
 30
0.0
 10
246.997980
 20
1129.672764
 30
0.0
 10
246.997980
 20
1124.913757
 30
0.0
 10
254.436991
 20
1124.913757
 30
0.0
 10
258.247997
 20
1121.019751
 30
0.0
 10
258.247997
 20
1117.125745
 30
0.0
 10
265.604009
 20
1109.769734
 30
0.0
 10
265.604009
 20
1098.952717
 30
0.0
  0
LWPOLYLINE
  5
15a
100
AcDbEntity
  8
Layer_1
 62
5
100
AcDbPolyline
 90
43
 70
0
 10
619.996550
 20
1177.197337
 30
0.0
 10
619.996550
 20
1168.543524
 30
0.0
 10
617.400546
 20
1166.379821
 30
0.0
 10
617.400546
 20
1162.010814
 30
0.0
 10
626.956561
 20
1162.010814
 30
0.0
 10
626.956561
 20
1146.476790
 30
0.0
 10
636.006574
 20
1146.476790
 30
0.0
 10
638.169578
 20
1148.639793
 30
0.0
 10
640.333581
 20
1148.639793
 30
0.0
 10
642.496584
 20
1146.476790
 30
0.0
 10
647.256592
 20
1146.476790
 30
0.0
 10
648.987594
 20
1148.639793
 30
0.0
 10
651.583598
 20
1148.639793
 30
0.0
 10
653.746602
 20
1146.476790
 30
0.0
 10
658.073608
 20
1146.476790
 30
0.0
 10
660.236611
 20
1148.639793
 30
0.0
 10
662.400615
 20
1148.639793
 30
0.0
 10
664.563618
 20
1146.476790
 30
0.0
 10
665.429619
 20
1146.476790
 30
0.0
 10
665.711620
 20
1146.194790
 30
0.0
 10
665.861620
 20
1146.043789
 30
0.0
 10
668.890625
 20
1146.043789
 30
0.0
 10
675.813635
 20
1139.120779
 30
0.0
 10
684.034648
 20
1139.120779
 30
0.0
 10
690.927658
 20
1146.013789
 30
0.0
 10
690.957658
 20
1146.476790
 30
0.0
 10
694.851664
 20
1146.476790
 30
0.0
 10
696.149666
 20
1147.774792
 30
0.0
 10
696.149666
 20
1148.206793
 30
0.0
 10
700.044672
 20
1148.206793
 30
0.0
 10
700.044672
 20
1147.774792
 30
0.0
 10
701.342674
 20
1146.476790
 30
0.0
 10
702.207676
 20
1146.476790
 30
0.0
 10
702.207676
 20
1146.043789
 30
0.0
 10
705.003680
 20
1146.043789
 30
0.0
 10
706.534682
 20
1146.476790
 30
0.0
 10
710.428688
 20
1146.476790
 30
0.0
 10
710.428688
 20
1151.235797
 30
0.0
 10
717.867699
 20
1151.235797
 30
0.0
 10
721.678705
 20
1155.129803
 30
0.0
 10
721.678705
 20
1159.024809
 30
0.0
 10
729.034717
 20
1166.379821
 30
0.0
 10
729.034717
 20
1177.197337
 30
0.0
  0
LWPOLYLINE
  5
15b
100
AcDbEntity
  8
Layer_1
 62
5
100
AcDbPolyline
 90
43
 70
0
 10
619.996550
 20
1177.197337
 30
0.0
 10
619.996550
 20
1185.851050
 30
0.0
 10
617.400546
 20
1188.014554
 30
0.0
 10
617.400546
 20
1192.384260
 30
0.0
 10
626.956561
 20
1192.384260
 30
0.0
 10
626.956561
 20
1207.918184
 30
0.0
 10
636.006574
 20
1207.918184
 30
0.0
 10
638.169578
 20
1205.754681
 30
0.0
 10
640.333581
 20
1205.754681
 30
0.0
 10
642.496584
 20
1207.918184
 30
0.0
 10
647.256592
 20
1207.918184
 30
0.0
 10
648.987594
 20
1205.754681
 30
0.0
 10
651.583598
 20
1205.754681
 30
0.0
 10
653.746602
 20
1207.918184
 30
0.0
 10
658.073608
 20
1207.918184
 30
0.0
 10
660.236611
 20
1205.754681
 30
0.0
 10
662.400615
 20
1205.754681
 30
0.0
 10
664.563618
 20
1207.918184
 30
0.0
 10
665.429619
 20
1207.918184
 30
0.0
 10
665.711620
 20
1208.200084
 30
0.0
 10
665.861620
 20
1208.350885
 30
0.0
 10
668.890625
 20
1208.350885
 30
0.0
 10
675.813635
 20
1215.273895
 30
0.0
 10
684.034648
 20
1215.273895
 30
0.0
 10
690.927658
 20
1208.380685
 30
0.0
 10
690.957658
 20
1207.918184
 30
0.0
 10
694.851664
 20
1207.918184
 30
0.0
 10
696.149666
 20
1206.620082
 30
0.0
 10
696.149666
 20
1206.187381
 30
0.0
 10
700.044672
 20
1206.187381
 30
0.0
 10
700.044672
 20
1206.620082
 30
0.0
 10
701.342674
 20
1207.918184
 30
0.0
 10
702.207676
 20
1207.918184
 30
0.0
 10
702.207676
 20
1208.350885
 30
0.0
 10
705.003680
 20
1208.350885
 30
0.0
 10
706.534682
 20
1207.918184
 30
0.0
 10
710.428688
 20
1207.918184
 30
0.0
 10
710.428688
 20
1203.158577
 30
0.0
 10
717.867699
 20
1203.158577
 30
0.0
 10
721.678705
 20
1199.264371
 30
0.0
 10
721.678705
 20
1195.370265
 30
0.0
 10
729.034717
 20
1188.014554
 30
0.0
 10
729.034717
 20
1177.197337
 30
0.0
  0
LWPOLYLINE
  5
15c
100
AcDbEntity
  8
Layer_1
 62
5
100
AcDbPolyline
 90
21
 70
0
 10
619.072549
 20
1059.850658
 30
0.0
 10
618.690548
 20
1030.764613
 30
0.0
 10
609.944535
 20
1030.824613
 30
0.0
 10
609.971535
 20
1033.954618
 30
0.0
 10
582.196492
 20
1034.145618
 30
0.0
 10
582.169492
 20
1030.810613
 30
0.0
 10
568.963472
 20
1030.896614
 30
0.0
 10
568.991472
 20
1034.436619
 30
0.0
 10
539.817427
 20
1034.627619
 30
0.0
 10
539.791427
 20
1031.384614
 30
0.0
 10
532.154416
 20
1031.430614
 30
0.0
 10
532.478416
 20
1061.269660
 30
0.0
 10
539.537427
 20
1061.221660
 30
0.0
 10
539.496427
 20
1058.559656
 30
0.0
 10
569.225472
 20
1058.028655
 30
0.0
 10
569.266472
 20
1060.463659
 30
0.0
 10
581.092491
 20
1060.366659
 30
0.0
 10
581.048490
 20
1057.832655
 30
0.0
 10
609.878534
 20
1057.598654
 30
0.0
 10
609.922535
 20
1059.926658
 30
0.0
 10
619.072549
 20
1059.850658
 30
0.0
  0
LWPOLYLINE
  5
15d
100
AcDbEntity
  8
Layer_1
 62
5
100
AcDbPolyline
 90
21
 70
0
 10
619.072549
 20
1024.949604
 30
0.0
 10
618.690548
 20
995.863560
 30
0.0
 10
609.944535
 20
995.923560
 30
0.0
 10
609.971535
 20
999.053565
 30
0.0
 10
582.196492
 20
999.244565
 30
0.0
 10
582.169492
 20
995.909560
 30
0.0
 10
568.963472
 20
995.995560
 30
0.0
 10
568.991472
 20
999.535566
 30
0.0
 10
539.817427
 20
999.726566
 30
0.0
 10
539.791427
 20
996.483561
 30
0.0
 10
532.154416
 20
996.529561
 30
0.0
 10
532.478416
 20
1026.368607
 30
0.0
 10
539.537427
 20
1026.320607
 30
0.0
 10
539.496427
 20
1023.658602
 30
0.0
 10
569.225472
 20
1023.128602
 30
0.0
 10
569.266472
 20
1025.562605
 30
0.0
 10
581.092491
 20
1025.465605
 30
0.0
 10
581.048490
 20
1022.931601
 30
0.0
 10
609.878534
 20
1022.697601
 30
0.0
 10
609.922535
 20
1025.025605
 30
0.0
 10
619.072549
 20
1024.949604
 30
0.0
  0
LWPOLYLINE
  5
15e
100
AcDbEntity
  8
Layer_1
 62
5
100
AcDbPolyline
 90
21
 70
0
 10
619.072549
 20
988.224548
 30
0.0
 10
618.690548
 20
959.139504
 30
0.0
 10
609.944535
 20
959.199504
 30
0.0
 10
609.971535
 20
962.328509
 30
0.0
 10
582.196492
 20
962.520509
 30
0.0
 10
582.169492
 20
959.184504
 30
0.0
 10
568.963472
 20
959.271504
 30
0.0
 10
568.991472
 20
962.811510
 30
0.0
 10
539.817427
 20
963.002510
 30
0.0
 10
539.791427
 20
959.759505
 30
0.0
 10
532.154416
 20
959.805505
 30
0.0
 10
532.478416
 20
989.643550
 30
0.0
 10
539.537427
 20
989.595550
 30
0.0
 10
539.496427
 20
986.934546
 30
0.0
 10
569.225472
 20
986.403546
 30
0.0
 10
569.266472
 20
988.837549
 30
0.0
 10
581.092491
 20
988.741549
 30
0.0
 10
581.048490
 20
986.207545
 30
0.0
 10
609.878534
 20
985.973545
 30
0.0
 10
609.922535
 20
988.301548
 30
0.0
 10
619.072549
 20
988.224548
 30
0.0
  0
LWPOLYLINE
  5
15f
100
AcDbEntity
  8
Layer_1
 62
5
100
AcDbPolyline
 90
21
 70
0
 10
619.072549
 20
952.665494
 30
0.0
 10
618.690548
 20
923.580450
 30
0.0
 10
609.944535
 20
923.640450
 30
0.0
 10
609.971535
 20
926.769454
 30
0.0
 10
582.196492
 20
926.960455
 30
0.0
 10
582.169492
 20
923.625450
 30
0.0
 10
568.963472
 20
923.712450
 30
0.0
 10
568.991472
 20
927.252455
 30
0.0
 10
539.817427
 20
927.443455
 30
0.0
 10
539.791427
 20
924.200451
 30
0.0
 10
532.154416
 20
924.246451
 30
0.0
 10
532.478416
 20
954.084496
 30
0.0
 10
539.537427
 20
954.036496
 30
0.0
 10
539.496427
 20
951.375492
 30
0.0
 10
569.225472
 20
950.844491
 30
0.0
 10
569.266472
 20
953.278495
 30
0.0
 10
581.092491
 20
953.182495
 30
0.0
 10
581.048490
 20
950.648491
 30
0.0
 10
609.878534
 20
950.414491
 30
0.0
 10
609.922535
 20
952.742494
 30
0.0
 10
619.072549
 20
952.665494
 30
0.0
  0
LWPOLYLINE
  5
160
100
AcDbEntity
  8
Layer_1
 62
5
100
AcDbPolyline
 90
21
 70
0
 10
619.072549
 20
916.879439
 30
0.0
 10
618.690548
 20
887.794395
 30
0.0
 10
609.944535
 20
887.854395
 30
0.0
 10
609.971535
 20
890.983400
 30
0.0
 10
582.196492
 20
891.175400
 30
0.0
 10
582.169492
 20
887.839395
 30
0.0
 10
568.963472
 20
887.926395
 30
0.0
 10
568.991472
 20
891.466401
 30
0.0
 10
539.817427
 20
891.657401
 30
0.0
 10
539.791427
 20
888.414396
 30
0.0
 10
532.154416
 20
888.460396
 30
0.0
 10
532.478416
 20
918.298441
 30
0.0
 10
539.537427
 20
918.250441
 30
0.0
 10
539.496427
 20
915.589437
 30
0.0
 10
569.225472
 20
915.058437
 30
0.0
 10
569.266472
 20
917.492440
 30
0.0
 10
581.092491
 20
917.396440
 30
0.0
 10
581.048490
 20
914.862436
 30
0.0
 10
609.878534
 20
914.628436
 30
0.0
 10
609.922535
 20
916.956439
 30
0.0
 10
619.072549
 20
916.879439
 30
0.0
  0
LWPOLYLINE
  5
161
100
AcDbEntity
  8
Layer_1
 62
5
100
AcDbPolyline
 90
21
 70
0
 10
625.923559
 20
1031.379614
 30
0.0
 10
626.493560
 20
1059.102657
 30
0.0
 10
635.388573
 20
1059.020656
 30
0.0
 10
635.318573
 20
1056.789653
 30
0.0
 10
663.399616
 20
1057.031653
 30
0.0
 10
663.469616
 20
1059.156657
 30
0.0
 10
676.011636
 20
1059.031657
 30
0.0
 10
675.920635
 20
1056.302652
 30
0.0
 10
702.834677
 20
1056.031652
 30
0.0
 10
702.913677
 20
1058.365655
 30
0.0
 10
711.372690
 20
1058.275655
 30
0.0
 10
710.757689
 20
1031.520614
 30
0.0
 10
702.698676
 20
1031.588615
 30
0.0
 10
702.723676
 20
1033.297617
 30
0.0
 10
675.067634
 20
1033.527618
 30
0.0
 10
675.041634
 20
1031.714615
 30
0.0
 10
662.608615
 20
1031.813615
 30
0.0
 10
662.636615
 20
1033.829618
 30
0.0
 10
634.845573
 20
1034.050618
 30
0.0
 10
634.808573
 20
1031.311614
 30
0.0
 10
625.923559
 20
1031.379614
 30
0.0
  0
LWPOLYLINE
  5
162
100
AcDbEntity
  8
Layer_1
 62
5
100
AcDbPolyline
 90
21
 70
0
 10
625.923559
 20
997.225562
 30
0.0
 10
626.493560
 20
1024.949604
 30
0.0
 10
635.388573
 20
1024.866604
 30
0.0
 10
635.318573
 20
1022.635601
 30
0.0
 10
663.399616
 20
1022.877601
 30
0.0
 10
663.469616
 20
1025.002605
 30
0.0
 10
676.011636
 20
1024.877604
 30
0.0
 10
675.920635
 20
1022.148600
 30
0.0
 10
702.834677
 20
1021.878600
 30
0.0
 10
702.913677
 20
1024.212603
 30
0.0
 10
711.372690
 20
1024.122603
 30
0.0
 10
710.757689
 20
997.366562
 30
0.0
 10
702.698676
 20
997.434562
 30
0.0
 10
702.723676
 20
999.143565
 30
0.0
 10
675.067634
 20
999.373565
 30
0.0
 10
675.041634
 20
997.560563
 30
0.0
 10
662.608615
 20
997.660563
 30
0.0
 10
662.636615
 20
999.676566
 30
0.0
 10
634.845573
 20
999.896566
 30
0.0
 10
634.808573
 20
997.157562
 30
0.0
 10
625.923559
 20
997.225562
 30
0.0
  0
LWPOLYLINE
  5
163
100
AcDbEntity
  8
Layer_1
 62
5
100
AcDbPolyline
 90
21
 70
0
 10
625.923559
 20
960.501506
 30
0.0
 10
626.493560
 20
988.224548
 30
0.0
 10
635.388573
 20
988.141548
 30
0.0
 10
635.318573
 20
985.910545
 30
0.0
 10
663.399616
 20
986.152545
 30
0.0
 10
663.469616
 20
988.278548
 30
0.0
 10
676.011636
 20
988.153548
 30
0.0
 10
675.920635
 20
985.424544
 30
0.0
 10
702.834677
 20
985.153544
 30
0.0
 10
702.913677
 20
987.487547
 30
0.0
 10
711.372690
 20
987.397547
 30
0.0
 10
710.757689
 20
960.642506
 30
0.0
 10
702.698676
 20
960.710506
 30
0.0
 10
702.723676
 20
962.419509
 30
0.0
 10
675.067634
 20
962.649509
 30
0.0
 10
675.041634
 20
960.836506
 30
0.0
 10
662.608615
 20
960.935507
 30
0.0
 10
662.636615
 20
962.951510
 30
0.0
 10
634.845573
 20
963.172510
 30
0.0
 10
634.808573
 20
960.433506
 30
0.0
 10
625.923559
 20
960.501506
 30
0.0
  0
LWPOLYLINE
  5
164
100
AcDbEntity
  8
Layer_1
 62
5
100
AcDbPolyline
 90
21
 70
0
 10
625.923559
 20
924.942452
 30
0.0
 10
626.493560
 20
952.665494
 30
0.0
 10
635.388573
 20
952.582494
 30
0.0
 10
635.318573
 20
950.351490
 30
0.0
 10
663.399616
 20
950.593491
 30
0.0
 10
663.469616
 20
952.719494
 30
0.0
 10
676.011636
 20
952.594494
 30
0.0
 10
675.920635
 20
949.865490
 30
0.0
 10
702.834677
 20
949.594489
 30
0.0
 10
702.913677
 20
951.928493
 30
0.0
 10
711.372690
 20
951.838493
 30
0.0
 10
710.757689
 20
925.083452
 30
0.0
 10
702.698676
 20
925.150452
 30
0.0
 10
702.723676
 20
926.860455
 30
0.0
 10
675.067634
 20
927.090455
 30
0.0
 10
675.041634
 20
925.277452
 30
0.0
 10
662.608615
 20
925.376452
 30
0.0
 10
662.636615
 20
927.392455
 30
0.0
 10
634.845573
 20
927.613456
 30
0.0
 10
634.808573
 20
924.874452
 30
0.0
 10
625.923559
 20
924.942452
 30
0.0
  0
LWPOLYLINE
  5
165
100
AcDbEntity
  8
Layer_1
 62
5
100
AcDbPolyline
 90
21
 70
0
 10
625.923559
 20
889.156397
 30
0.0
 10
626.493560
 20
916.879439
 30
0.0
 10
635.388573
 20
916.796439
 30
0.0
 10
635.318573
 20
914.565436
 30
0.0
 10
663.399616
 20
914.807436
 30
0.0
 10
663.469616
 20
916.933439
 30
0.0
 10
676.011636
 20
916.808439
 30
0.0
 10
675.920635
 20
914.079435
 30
0.0
 10
702.834677
 20
913.808435
 30
0.0
 10
702.913677
 20
916.142438
 30
0.0
 10
711.372690
 20
916.052438
 30
0.0
 10
710.757689
 20
889.297397
 30
0.0
 10
702.698676
 20
889.365397
 30
0.0
 10
702.723676
 20
891.074400
 30
0.0
 10
675.067634
 20
891.304400
 30
0.0
 10
675.041634
 20
889.491397
 30
0.0
 10
662.608615
 20
889.590398
 30
0.0
 10
662.636615
 20
891.606401
 30
0.0
 10
634.845573
 20
891.827401
 30
0.0
 10
634.808573
 20
889.088397
 30
0.0
 10
625.923559
 20
889.156397
 30
0.0
  0
LWPOLYLINE
  5
166
100
AcDbEntity
  8
Layer_1
 62
5
100
AcDbPolyline
 90
13
 70
0
 10
813.114845
 20
915.047437
 30
0.0
 10
828.038868
 20
914.701436
 30
0.0
 10
827.708867
 20
898.922412
 30
0.0
 10
833.451876
 20
898.864412
 30
0.0
 10
833.262876
 20
882.899387
 30
0.0
 10
812.090843
 20
883.085388
 30
0.0
 10
812.048843
 20
878.131380
 30
0.0
 10
794.486817
 20
878.400381
 30
0.0
 10
794.648817
 20
893.800404
 30
0.0
 10
789.232809
 20
893.849404
 30
0.0
 10
789.521809
 20
910.192429
 30
0.0
 10
812.984845
 20
909.941429
 30
0.0
 10
813.114845
 20
915.047437
 30
0.0
  0
LWPOLYLINE
  5
167
100
AcDbEntity
  8
Layer_1
 62
5
100
AcDbPolyline
 90
13
 70
0
 10
862.635921
 20
915.047437
 30
0.0
 10
877.559943
 20
914.701436
 30
0.0
 10
877.229943
 20
898.922412
 30
0.0
 10
882.972952
 20
898.864412
 30
0.0
 10
882.783951
 20
882.899387
 30
0.0
 10
861.612919
 20
883.085388
 30
0.0
 10
861.569919
 20
878.131380
 30
0.0
 10
844.008892
 20
878.400381
 30
0.0
 10
844.169892
 20
893.800404
 30
0.0
 10
838.753884
 20
893.849404
 30
0.0
 10
839.042885
 20
910.192429
 30
0.0
 10
862.505920
 20
909.941429
 30
0.0
 10
862.635921
 20
915.047437
 30
0.0
  0
LWPOLYLINE
  5
168
100
AcDbEntity
  8
Layer_1
 62
5
100
AcDbPolyline
 90
13
 70
0
 10
912.201996
 20
915.047437
 30
0.0
 10
927.125019
 20
914.701436
 30
0.0
 10
926.795019
 20
898.922412
 30
0.0
 10
932.538027
 20
898.864412
 30
0.0
 10
932.349027
 20
882.899387
 30
0.0
 10
911.177995
 20
883.085388
 30
0.0
 10
911.134995
 20
878.131380
 30
0.0
 10
893.573968
 20
878.400381
 30
0.0
 10
893.734968
 20
893.800404
 30
0.0
 10
888.318960
 20
893.849404
 30
0.0
 10
888.607960
 20
910.192429
 30
0.0
 10
912.070996
 20
909.941429
 30
0.0
 10
912.201996
 20
915.047437
 30
0.0
  0
LWPOLYLINE
  5
169
100
AcDbEntity
  8
Layer_1
 62
5
100
AcDbPolyline
 90
13
 70
0
 10
961.285071
 20
915.047437
 30
0.0
 10
976.208094
 20
914.701436
 30
0.0
 10
975.879094
 20
898.922412
 30
0.0
 10
981.621102
 20
898.864412
 30
0.0
 10
981.433102
 20
882.899387
 30
0.0
 10
960.261070
 20
883.085388
 30
0.0
 10
960.218070
 20
878.131380
 30
0.0
 10
942.657043
 20
878.400381
 30
0.0
 10
942.818043
 20
893.800404
 30
0.0
 10
937.402035
 20
893.849404
 30
0.0
 10
937.692035
 20
910.192429
 30
0.0
 10
961.154071
 20
909.941429
 30
0.0
 10
961.285071
 20
915.047437
 30
0.0
  0
LWPOLYLINE
  5
16a
100
AcDbEntity
  8
Layer_1
 62
5
100
AcDbPolyline
 90
13
 70
0
 10
1012.901150
 20
915.047437
 30
0.0
 10
1027.824173
 20
914.701436
 30
0.0
 10
1027.495173
 20
898.922412
 30
0.0
 10
1033.237181
 20
898.864412
 30
0.0
 10
1033.049181
 20
882.899387
 30
0.0
 10
1011.877149
 20
883.085388
 30
0.0
 10
1011.834149
 20
878.131380
 30
0.0
 10
994.273122
 20
878.400381
 30
0.0
 10
994.434122
 20
893.800404
 30
0.0
 10
989.019114
 20
893.849404
 30
0.0
 10
989.308114
 20
910.192429
 30
0.0
 10
1012.770150
 20
909.941429
 30
0.0
 10
1012.901150
 20
915.047437
 30
0.0
  0
LWPOLYLINE
  5
16b
100
AcDbEntity
  8
Layer_1
 62
5
100
AcDbPolyline
 90
13
 70
0
 10
1064.517229
 20
915.047437
 30
0.0
 10
1079.440252
 20
914.701436
 30
0.0
 10
1079.111251
 20
898.922412
 30
0.0
 10
1084.853260
 20
898.864412
 30
0.0
 10
1084.665260
 20
882.899387
 30
0.0
 10
1063.493228
 20
883.085388
 30
0.0
 10
1063.451227
 20
878.131380
 30
0.0
 10
1045.889201
 20
878.400381
 30
0.0
 10
1046.050201
 20
893.800404
 30
0.0
 10
1040.635193
 20
893.849404
 30
0.0
 10
1040.924193
 20
910.192429
 30
0.0
 10
1064.387229
 20
909.941429
 30
0.0
 10
1064.517229
 20
915.047437
 30
0.0
  0
LWPOLYLINE
  5
16c
100
AcDbEntity
  8
Layer_1
 62
5
100
AcDbPolyline
 90
13
 70
0
 10
1115.835307
 20
915.047437
 30
0.0
 10
1130.765330
 20
914.701436
 30
0.0
 10
1130.435330
 20
898.922412
 30
0.0
 10
1136.175339
 20
898.864412
 30
0.0
 10
1135.985338
 20
882.899387
 30
0.0
 10
1114.815306
 20
883.085388
 30
0.0
 10
1114.775306
 20
878.131380
 30
0.0
 10
1097.211279
 20
878.400381
 30
0.0
 10
1097.372279
 20
893.800404
 30
0.0
 10
1091.957271
 20
893.849404
 30
0.0
 10
1092.246271
 20
910.192429
 30
0.0
 10
1115.705307
 20
909.941429
 30
0.0
 10
1115.835307
 20
915.047437
 30
0.0
  0
LWPOLYLINE
  5
16d
100
AcDbEntity
  8
Layer_1
 62
5
100
AcDbPolyline
 90
13
 70
0
 10
1167.455386
 20
915.047437
 30
0.0
 10
1182.375409
 20
914.701436
 30
0.0
 10
1182.045409
 20
898.922412
 30
0.0
 10
1187.795417
 20
898.864412
 30
0.0
 10
1187.605417
 20
882.899387
 30
0.0
 10
1166.435385
 20
883.085388
 30
0.0
 10
1166.385385
 20
878.131380
 30
0.0
 10
1148.825358
 20
878.400381
 30
0.0
 10
1148.985358
 20
893.800404
 30
0.0
 10
1143.575350
 20
893.849404
 30
0.0
 10
1143.865350
 20
910.192429
 30
0.0
 10
1167.325386
 20
909.941429
 30
0.0
 10
1167.455386
 20
915.047437
 30
0.0
  0
LWPOLYLINE
  5
16e
100
AcDbEntity
  8
Layer_1
 62
5
100
AcDbPolyline
 90
13
 70
0
 10
1216.845462
 20
915.047437
 30
0.0
 10
1231.775485
 20
914.701436
 30
0.0
 10
1231.445484
 20
898.922412
 30
0.0
 10
1237.185493
 20
898.864412
 30
0.0
 10
1236.995493
 20
882.899387
 30
0.0
 10
1215.825460
 20
883.085388
 30
0.0
 10
1215.785460
 20
878.131380
 30
0.0
 10
1198.215433
 20
878.400381
 30
0.0
 10
1198.385434
 20
893.800404
 30
0.0
 10
1192.965425
 20
893.849404
 30
0.0
 10
1193.255426
 20
910.192429
 30
0.0
 10
1216.715462
 20
909.941429
 30
0.0
 10
1216.845462
 20
915.047437
 30
0.0
  0
LWPOLYLINE
  5
16f
100
AcDbEntity
  8
Layer_1
 62
5
100
AcDbPolyline
 90
13
 70
0
 10
1269.885543
 20
915.047437
 30
0.0
 10
1284.805566
 20
914.701436
 30
0.0
 10
1284.475565
 20
898.922412
 30
0.0
 10
1290.215574
 20
898.864412
 30
0.0
 10
1290.035574
 20
882.899387
 30
0.0
 10
1268.855541
 20
883.085388
 30
0.0
 10
1268.815541
 20
878.131380
 30
0.0
 10
1251.255514
 20
878.400381
 30
0.0
 10
1251.415515
 20
893.800404
 30
0.0
 10
1245.995506
 20
893.849404
 30
0.0
 10
1246.285507
 20
910.192429
 30
0.0
 10
1269.755543
 20
909.941429
 30
0.0
 10
1269.885543
 20
915.047437
 30
0.0
  0
LWPOLYLINE
  5
170
100
AcDbEntity
  8
Layer_1
 62
5
100
AcDbPolyline
 90
13
 70
0
 10
1322.605623
 20
915.047437
 30
0.0
 10
1337.525646
 20
914.701436
 30
0.0
 10
1337.195646
 20
898.922412
 30
0.0
 10
1342.935654
 20
898.864412
 30
0.0
 10
1342.745654
 20
882.899387
 30
0.0
 10
1321.575622
 20
883.085388
 30
0.0
 10
1321.535622
 20
878.131380
 30
0.0
 10
1303.975595
 20
878.400381
 30
0.0
 10
1304.135595
 20
893.800404
 30
0.0
 10
1298.715587
 20
893.849404
 30
0.0
 10
1299.005587
 20
910.192429
 30
0.0
 10
1322.475623
 20
909.941429
 30
0.0
 10
1322.605623
 20
915.047437
 30
0.0
  0
LWPOLYLINE
  5
171
100
AcDbEntity
  8
Layer_1
 62
5
100
AcDbPolyline
 90
13
 70
0
 10
862.463920
 20
874.731375
 30
0.0
 10
877.716944
 20
874.591375
 30
0.0
 10
877.761944
 20
859.431352
 30
0.0
 10
883.167952
 20
859.376351
 30
0.0
 10
883.213952
 20
841.926325
 30
0.0
 10
860.458917
 20
842.213325
 30
0.0
 10
860.352917
 20
838.449320
 30
0.0
 10
844.770893
 20
838.635320
 30
0.0
 10
844.876894
 20
854.197344
 30
0.0
 10
839.312885
 20
854.261344
 30
0.0
 10
839.042885
 20
870.509368
 30
0.0
 10
862.481920
 20
870.284368
 30
0.0
 10
862.463920
 20
874.731375
 30
0.0
  0
LWPOLYLINE
  5
172
100
AcDbEntity
  8
Layer_1
 62
5
100
AcDbPolyline
 90
13
 70
0
 10
812.942845
 20
874.731375
 30
0.0
 10
828.195868
 20
874.591375
 30
0.0
 10
828.239868
 20
859.431352
 30
0.0
 10
833.646876
 20
859.376351
 30
0.0
 10
833.692876
 20
841.926325
 30
0.0
 10
810.936842
 20
842.213325
 30
0.0
 10
810.831842
 20
838.449320
 30
0.0
 10
795.249818
 20
838.635320
 30
0.0
 10
795.355818
 20
854.197344
 30
0.0
 10
789.791809
 20
854.261344
 30
0.0
 10
789.521809
 20
870.509368
 30
0.0
 10
812.960845
 20
870.284368
 30
0.0
 10
812.942845
 20
874.731375
 30
0.0
  0
LWPOLYLINE
  5
173
100
AcDbEntity
  8
Layer_1
 62
5
100
AcDbPolyline
 90
13
 70
0
 10
912.028996
 20
874.731375
 30
0.0
 10
927.283019
 20
874.591375
 30
0.0
 10
927.327019
 20
859.431352
 30
0.0
 10
932.733028
 20
859.376351
 30
0.0
 10
932.779028
 20
841.926325
 30
0.0
 10
910.023993
 20
842.213325
 30
0.0
 10
909.918993
 20
838.449320
 30
0.0
 10
894.336969
 20
838.635320
 30
0.0
 10
894.441969
 20
854.197344
 30
0.0
 10
888.878961
 20
854.261344
 30
0.0
 10
888.607960
 20
870.509368
 30
0.0
 10
912.046996
 20
870.284368
 30
0.0
 10
912.028996
 20
874.731375
 30
0.0
  0
LWPOLYLINE
  5
174
100
AcDbEntity
  8
Layer_1
 62
5
100
AcDbPolyline
 90
13
 70
0
 10
961.112071
 20
874.731375
 30
0.0
 10
976.366094
 20
874.591375
 30
0.0
 10
976.410094
 20
859.431352
 30
0.0
 10
981.817103
 20
859.376351
 30
0.0
 10
981.862103
 20
841.926325
 30
0.0
 10
959.107068
 20
842.213325
 30
0.0
 10
959.002068
 20
838.449320
 30
0.0
 10
943.420044
 20
838.635320
 30
0.0
 10
943.525044
 20
854.197344
 30
0.0
 10
937.962036
 20
854.261344
 30
0.0
 10
937.692035
 20
870.509368
 30
0.0
 10
961.131071
 20
870.284368
 30
0.0
 10
961.112071
 20
874.731375
 30
0.0
  0
LWPOLYLINE
  5
175
100
AcDbEntity
  8
Layer_1
 62
5
100
AcDbPolyline
 90
13
 70
0
 10
1012.728150
 20
874.731375
 30
0.0
 10
1027.982173
 20
874.591375
 30
0.0
 10
1028.026173
 20
859.431352
 30
0.0
 10
1033.433182
 20
859.376351
 30
0.0
 10
1033.478182
 20
841.926325
 30
0.0
 10
1010.723147
 20
842.213325
 30
0.0
 10
1010.618147
 20
838.449320
 30
0.0
 10
995.036123
 20
838.635320
 30
0.0
 10
995.141123
 20
854.197344
 30
0.0
 10
989.578115
 20
854.261344
 30
0.0
 10
989.308114
 20
870.509368
 30
0.0
 10
1012.747150
 20
870.284368
 30
0.0
 10
1012.728150
 20
874.731375
 30
0.0
  0
LWPOLYLINE
  5
176
100
AcDbEntity
  8
Layer_1
 62
5
100
AcDbPolyline
 90
13
 70
0
 10
1064.344229
 20
874.731375
 30
0.0
 10
1079.598252
 20
874.591375
 30
0.0
 10
1079.642252
 20
859.431352
 30
0.0
 10
1085.049260
 20
859.376351
 30
0.0
 10
1085.094261
 20
841.926325
 30
0.0
 10
1062.339226
 20
842.213325
 30
0.0
 10
1062.234226
 20
838.449320
 30
0.0
 10
1046.652202
 20
838.635320
 30
0.0
 10
1046.757202
 20
854.197344
 30
0.0
 10
1041.194193
 20
854.261344
 30
0.0
 10
1040.924193
 20
870.509368
 30
0.0
 10
1064.363229
 20
870.284368
 30
0.0
 10
1064.344229
 20
874.731375
 30
0.0
  0
LWPOLYLINE
  5
177
100
AcDbEntity
  8
Layer_1
 62
5
100
AcDbPolyline
 90
13
 70
0
 10
1115.665307
 20
874.731375
 30
0.0
 10
1130.925331
 20
874.591375
 30
0.0
 10
1130.965331
 20
859.431352
 30
0.0
 10
1136.375339
 20
859.376351
 30
0.0
 10
1136.415339
 20
841.926325
 30
0.0
 10
1113.665304
 20
842.213325
 30
0.0
 10
1113.555304
 20
838.449320
 30
0.0
 10
1097.974280
 20
838.635320
 30
0.0
 10
1098.080280
 20
854.197344
 30
0.0
 10
1092.516272
 20
854.261344
 30
0.0
 10
1092.246271
 20
870.509368
 30
0.0
 10
1115.685307
 20
870.284368
 30
0.0
 10
1115.665307
 20
874.731375
 30
0.0
  0
LWPOLYLINE
  5
178
100
AcDbEntity
  8
Layer_1
 62
5
100
AcDbPolyline
 90
13
 70
0
 10
1167.285386
 20
874.731375
 30
0.0
 10
1182.535409
 20
874.591375
 30
0.0
 10
1182.585409
 20
859.431352
 30
0.0
 10
1187.985418
 20
859.376351
 30
0.0
 10
1188.035418
 20
841.926325
 30
0.0
 10
1165.275383
 20
842.213325
 30
0.0
 10
1165.175383
 20
838.449320
 30
0.0
 10
1149.595359
 20
838.635320
 30
0.0
 10
1149.695359
 20
854.197344
 30
0.0
 10
1144.135351
 20
854.261344
 30
0.0
 10
1143.865350
 20
870.509368
 30
0.0
 10
1167.305386
 20
870.284368
 30
0.0
 10
1167.285386
 20
874.731375
 30
0.0
  0
LWPOLYLINE
  5
179
100
AcDbEntity
  8
Layer_1
 62
5
100
AcDbPolyline
 90
13
 70
0
 10
1216.675462
 20
874.731375
 30
0.0
 10
1231.925485
 20
874.591375
 30
0.0
 10
1231.975485
 20
859.431352
 30
0.0
 10
1237.375493
 20
859.376351
 30
0.0
 10
1237.425493
 20
841.926325
 30
0.0
 10
1214.665458
 20
842.213325
 30
0.0
 10
1214.565458
 20
838.449320
 30
0.0
 10
1198.985435
 20
838.635320
 30
0.0
 10
1199.085435
 20
854.197344
 30
0.0
 10
1193.525426
 20
854.261344
 30
0.0
 10
1193.255426
 20
870.509368
 30
0.0
 10
1216.695462
 20
870.284368
 30
0.0
 10
1216.675462
 20
874.731375
 30
0.0
  0
LWPOLYLINE
  5
17a
100
AcDbEntity
  8
Layer_1
 62
5
100
AcDbPolyline
 90
13
 70
0
 10
1269.705543
 20
874.731375
 30
0.0
 10
1284.965566
 20
874.591375
 30
0.0
 10
1285.005566
 20
859.431352
 30
0.0
 10
1290.415574
 20
859.376351
 30
0.0
 10
1290.455574
 20
841.926325
 30
0.0
 10
1267.705540
 20
842.213325
 30
0.0
 10
1267.595539
 20
838.449320
 30
0.0
 10
1252.015516
 20
838.635320
 30
0.0
 10
1252.125516
 20
854.197344
 30
0.0
 10
1246.555507
 20
854.261344
 30
0.0
 10
1246.285507
 20
870.509368
 30
0.0
 10
1269.725543
 20
870.284368
 30
0.0
 10
1269.705543
 20
874.731375
 30
0.0
  0
LWPOLYLINE
  5
17b
100
AcDbEntity
  8
Layer_1
 62
5
100
AcDbPolyline
 90
13
 70
0
 10
1322.425623
 20
874.731375
 30
0.0
 10
1337.685646
 20
874.591375
 30
0.0
 10
1337.725646
 20
859.431352
 30
0.0
 10
1343.135655
 20
859.376351
 30
0.0
 10
1343.175655
 20
841.926325
 30
0.0
 10
1320.425620
 20
842.213325
 30
0.0
 10
1320.315620
 20
838.449320
 30
0.0
 10
1304.735596
 20
838.635320
 30
0.0
 10
1304.845596
 20
854.197344
 30
0.0
 10
1299.275588
 20
854.261344
 30
0.0
 10
1299.005587
 20
870.509368
 30
0.0
 10
1322.445623
 20
870.284368
 30
0.0
 10
1322.425623
 20
874.731375
 30
0.0
  0
LWPOLYLINE
  5
17c
100
AcDbEntity
  8
Layer_1
 62
5
100
AcDbPolyline
 90
5
 70
0
 10
1355.685674
 20
1170.307827
 30
0.0
 10
1162.405379
 20
1169.824226
 30
0.0
 10
1162.305378
 20
1154.602803
 30
0.0
 10
1355.415674
 20
1155.032803
 30
0.0
 10
1355.685674
 20
1170.307827
 30
0.0
  0
LWPOLYLINE
  5
17d
100
AcDbEntity
  8
Layer_1
 62
5
100
AcDbPolyline
 90
5
 70
0
 10
1356.625675
 20
1128.124762
 30
0.0
 10
1163.345380
 20
1127.641761
 30
0.0
 10
1163.245380
 20
1112.419738
 30
0.0
 10
1356.355675
 20
1112.849739
 30
0.0
 10
1356.625675
 20
1128.124762
 30
0.0
  0
LWPOLYLINE
  5
17e
100
AcDbEntity
  8
Layer_1
 62
5
100
AcDbPolyline
 90
5
 70
0
 10
1355.575674
 20
1084.935696
 30
0.0
 10
1162.285378
 20
1084.452695
 30
0.0
 10
1162.185378
 20
1069.230672
 30
0.0
 10
1355.305673
 20
1069.660673
 30
0.0
 10
1355.575674
 20
1084.935696
 30
0.0
  0
LWPOLYLINE
  5
17f
100
AcDbEntity
  8
Layer_1
 62
5
100
AcDbPolyline
 90
5
 70
0
 10
1355.685674
 20
1148.361793
 30
0.0
 10
1162.405379
 20
1147.877792
 30
0.0
 10
1162.305378
 20
1132.656769
 30
0.0
 10
1355.415674
 20
1133.086770
 30
0.0
 10
1355.685674
 20
1148.361793
 30
0.0
  0
LWPOLYLINE
  5
180
100
AcDbEntity
  8
Layer_1
 62
5
100
AcDbPolyline
 90
5
 70
0
 10
1356.625675
 20
1106.178729
 30
0.0
 10
1163.345380
 20
1105.695728
 30
0.0
 10
1163.245380
 20
1090.473705
 30
0.0
 10
1356.355675
 20
1090.903705
 30
0.0
 10
1356.625675
 20
1106.178729
 30
0.0
  0
LWPOLYLINE
  5
181
100
AcDbEntity
  8
Layer_1
 62
5
100
AcDbPolyline
 90
3
 70
0
 10
157.572543
 20
1049.359642
 30
0.0
 10
157.739144
 20
1012.126585
 30
0.0
 10
157.452843
 20
987.029547
 30
0.0
  0
LWPOLYLINE
  5
182
100
AcDbEntity
  8
Layer_1
 62
5
100
AcDbPolyline
 90
6
 70
0
 10
277.676027
 20
958.216502
 30
0.0
 10
274.599022
 20
958.225502
 30
0.0
 10
274.728022
 20
932.049463
 30
0.0
 10
336.352117
 20
931.553462
 30
0.0
 10
336.041116
 20
957.960502
 30
0.0
 10
301.952064
 20
958.095502
 30
0.0
  0
LWPOLYLINE
  5
183
100
AcDbEntity
  8
Layer_1
 62
5
100
AcDbPolyline
 90
4
 70
0
 10
301.946064
 20
975.471529
 30
0.0
 10
333.712113
 20
975.554529
 30
0.0
 10
334.175113
 20
1008.669580
 30
0.0
 10
302.359065
 20
1008.192579
 30
0.0
  0
LWPOLYLINE
  5
184
100
AcDbEntity
  8
Layer_1
 62
5
100
AcDbPolyline
 90
4
 70
0
 10
302.497065
 20
1044.263634
 30
0.0
 10
338.688120
 20
1044.617634
 30
0.0
 10
338.520120
 20
1019.032595
 30
0.0
 10
302.423065
 20
1019.026595
 30
0.0
  0
LWPOLYLINE
  5
185
100
AcDbEntity
  8
Layer_1
 62
5
100
AcDbPolyline
 90
4
 70
0
 10
302.497065
 20
1044.263634
 30
0.0
 10
302.300065
 20
1050.291643
 30
0.0
 10
173.833168
 20
1049.359642
 30
0.0
 10
157.572543
 20
1049.359642
 30
0.0
  0
LWPOLYLINE
  5
186
100
AcDbEntity
  8
Layer_1
 62
5
100
AcDbPolyline
 90
3
 70
0
 10
277.776027
 20
998.768564
 30
0.0
 10
259.697999
 20
998.750564
 30
0.0
 10
260.068000
 20
1018.576595
 30
0.0
  0
LWPOLYLINE
  5
187
100
AcDbEntity
  8
Layer_1
 62
5
100
AcDbPolyline
 90
4
 70
0
 10
255.648993
 20
953.015495
 30
0.0
 10
255.741993
 20
926.847455
 30
0.0
 10
157.490243
 20
926.872455
 30
0.0
 10
157.453843
 20
987.029547
 30
0.0
  0
LWPOLYLINE
  5
188
100
AcDbEntity
  8
Layer_1
 62
5
100
AcDbPolyline
 90
3
 70
0
 10
255.648993
 20
953.015495
 30
0.0
 10
255.698993
 20
987.996548
 30
0.0
 10
235.330962
 20
988.365549
 30
0.0
  0
LWPOLYLINE
  5
189
100
AcDbEntity
  8
Layer_1
 62
5
100
AcDbPolyline
 90
3
 70
0
 10
341.949125
 20
1050.291643
 30
0.0
 10
342.116125
 20
1013.057586
 30
0.0
 10
341.829125
 20
987.960548
 30
0.0
  0
LWPOLYLINE
  5
18a
100
AcDbEntity
  8
Layer_1
 62
5
100
AcDbPolyline
 90
6
 70
0
 10
462.053309
 20
959.147504
 30
0.0
 10
458.975304
 20
959.157504
 30
0.0
 10
459.104304
 20
932.980464
 30
0.0
 10
520.728398
 20
932.484463
 30
0.0
 10
520.417398
 20
958.892504
 30
0.0
 10
486.328346
 20
959.027504
 30
0.0
  0
LWPOLYLINE
  5
18b
100
AcDbEntity
  8
Layer_1
 62
5
100
AcDbPolyline
 90
4
 70
0
 10
486.322346
 20
976.403530
 30
0.0
 10
518.089394
 20
976.485530
 30
0.0
 10
518.551395
 20
1009.600581
 30
0.0
 10
486.735346
 20
1009.123580
 30
0.0
  0
LWPOLYLINE
  5
18c
100
AcDbEntity
  8
Layer_1
 62
5
100
AcDbPolyline
 90
4
 70
0
 10
486.873347
 20
1045.195635
 30
0.0
 10
523.064402
 20
1045.548636
 30
0.0
 10
522.896402
 20
1019.963597
 30
0.0
 10
486.800346
 20
1019.957597
 30
0.0
  0
LWPOLYLINE
  5
18d
100
AcDbEntity
  8
Layer_1
 62
5
100
AcDbPolyline
 90
4
 70
0
 10
486.873347
 20
1045.195635
 30
0.0
 10
486.676346
 20
1051.222645
 30
0.0
 10
358.210150
 20
1050.291643
 30
0.0
 10
341.949125
 20
1050.291643
 30
0.0
  0
LWPOLYLINE
  5
18e
100
AcDbEntity
  8
Layer_1
 62
5
100
AcDbPolyline
 90
3
 70
0
 10
462.153309
 20
999.700566
 30
0.0
 10
444.074281
 20
999.682566
 30
0.0
 10
444.444282
 20
1019.508596
 30
0.0
  0
LWPOLYLINE
  5
18f
100
AcDbEntity
  8
Layer_1
 62
5
100
AcDbPolyline
 90
4
 70
0
 10
440.026275
 20
953.946496
 30
0.0
 10
440.119275
 20
927.778456
 30
0.0
 10
341.867125
 20
927.803456
 30
0.0
 10
341.830125
 20
987.960548
 30
0.0
  0
LWPOLYLINE
  5
190
100
AcDbEntity
  8
Layer_1
 62
5
100
AcDbPolyline
 90
3
 70
0
 10
440.026275
 20
953.946496
 30
0.0
 10
440.075275
 20
988.927549
 30
0.0
 10
419.707244
 20
989.296550
 30
0.0
  0
LWPOLYLINE
  5
191
100
AcDbEntity
  8
Layer_1
 62
5
100
AcDbPolyline
 90
4
 70
0
 10
286.152040
 20
494.331794
 30
0.0
 10
285.955040
 20
500.359803
 30
0.0
 10
157.488443
 20
499.427802
 30
0.0
 10
157.544243
 20
467.682753
 30
0.0
  0
LWPOLYLINE
  5
192
100
AcDbEntity
  8
Layer_1
 62
5
100
AcDbPolyline
 90
4
 70
0
 10
286.578041
 20
532.320852
 30
0.0
 10
286.380040
 20
538.347861
 30
0.0
 10
157.913644
 20
537.416860
 30
0.0
 10
157.969544
 20
505.670811
 30
0.0
  0
LWPOLYLINE
  5
193
100
AcDbEntity
  8
Layer_1
 62
5
100
AcDbPolyline
 90
5
 70
0
 10
175.694671
 20
923.413449
 30
0.0
 10
175.189670
 20
838.586320
 30
0.0
 10
154.097438
 20
838.711320
 30
0.0
 10
154.698139
 20
923.394449
 30
0.0
 10
175.694671
 20
923.413449
 30
0.0
  0
LWPOLYLINE
  5
194
100
AcDbEntity
  8
Layer_1
 62
5
100
AcDbPolyline
 90
5
 70
0
 10
203.857914
 20
923.413449
 30
0.0
 10
203.352913
 20
838.586320
 30
0.0
 10
182.260981
 20
838.711320
 30
0.0
 10
182.861682
 20
923.394449
 30
0.0
 10
203.857914
 20
923.413449
 30
0.0
  0
LWPOLYLINE
  5
195
100
AcDbEntity
  8
Layer_1
 62
5
100
AcDbPolyline
 90
5
 70
0
 10
232.021957
 20
923.413449
 30
0.0
 10
231.516956
 20
838.586320
 30
0.0
 10
210.424924
 20
838.711320
 30
0.0
 10
211.024925
 20
923.394449
 30
0.0
 10
232.021957
 20
923.413449
 30
0.0
  0
LWPOLYLINE
  5
196
100
AcDbEntity
  8
Layer_1
 62
5
100
AcDbPolyline
 90
5
 70
0
 10
262.319004
 20
923.413449
 30
0.0
 10
261.814003
 20
838.586320
 30
0.0
 10
240.721971
 20
838.711320
 30
0.0
 10
241.321971
 20
923.394449
 30
0.0
 10
262.319004
 20
923.413449
 30
0.0
  0
LWPOLYLINE
  5
197
100
AcDbEntity
  8
Layer_1
 62
5
100
AcDbPolyline
 90
5
 70
0
 10
293.043050
 20
923.413449
 30
0.0
 10
292.538050
 20
838.586320
 30
0.0
 10
271.446017
 20
838.711320
 30
0.0
 10
272.046018
 20
923.394449
 30
0.0
 10
293.043050
 20
923.413449
 30
0.0
  0
LWPOLYLINE
  5
198
100
AcDbEntity
  8
Layer_1
 62
5
100
AcDbPolyline
 90
5
 70
0
 10
320.069092
 20
922.714448
 30
0.0
 10
319.564091
 20
837.887319
 30
0.0
 10
298.472059
 20
838.012319
 30
0.0
 10
299.073060
 20
922.695448
 30
0.0
 10
320.069092
 20
922.714448
 30
0.0
  0
LWPOLYLINE
  5
199
100
AcDbEntity
  8
Layer_1
 62
5
100
AcDbPolyline
 90
5
 70
0
 10
348.233135
 20
922.714448
 30
0.0
 10
347.728134
 20
837.887319
 30
0.0
 10
326.635102
 20
838.012319
 30
0.0
 10
327.236103
 20
922.695448
 30
0.0
 10
348.233135
 20
922.714448
 30
0.0
  0
LWPOLYLINE
  5
19a
100
AcDbEntity
  8
Layer_1
 62
5
100
AcDbPolyline
 90
5
 70
0
 10
376.396178
 20
922.714448
 30
0.0
 10
375.891177
 20
837.887319
 30
0.0
 10
354.799145
 20
838.012319
 30
0.0
 10
355.400146
 20
922.695448
 30
0.0
 10
376.396178
 20
922.714448
 30
0.0
  0
LWPOLYLINE
  5
19b
100
AcDbEntity
  8
Layer_1
 62
5
100
AcDbPolyline
 90
5
 70
0
 10
406.693224
 20
922.714448
 30
0.0
 10
406.188223
 20
837.887319
 30
0.0
 10
385.096191
 20
838.012319
 30
0.0
 10
385.697192
 20
922.695448
 30
0.0
 10
406.693224
 20
922.714448
 30
0.0
  0
LWPOLYLINE
  5
19c
100
AcDbEntity
  8
Layer_1
 62
5
100
AcDbPolyline
 90
5
 70
0
 10
437.417271
 20
922.714448
 30
0.0
 10
436.912270
 20
837.887319
 30
0.0
 10
415.820238
 20
838.012319
 30
0.0
 10
416.421239
 20
922.695448
 30
0.0
 10
437.417271
 20
922.714448
 30
0.0
  0
LWPOLYLINE
  5
19d
100
AcDbEntity
  8
Layer_1
 62
5
100
AcDbPolyline
 90
4
 70
0
 10
181.711780
 20
619.422985
 30
0.0
 10
179.665177
 20
742.758173
 30
0.0
 10
156.990643
 20
742.758173
 30
0.0
 10
158.508045
 20
619.422985
 30
0.0
  0
LWPOLYLINE
  5
19e
100
AcDbEntity
  8
Layer_1
 62
5
100
AcDbPolyline
 90
4
 70
0
 10
211.414926
 20
619.422985
 30
0.0
 10
209.368923
 20
742.758173
 30
0.0
 10
186.694288
 20
742.758173
 30
0.0
 10
188.211690
 20
619.422985
 30
0.0
  0
LWPOLYLINE
  5
19f
100
AcDbEntity
  8
Layer_1
 62
5
100
AcDbPolyline
 90
4
 70
0
 10
241.626972
 20
619.422985
 30
0.0
 10
239.580969
 20
742.758173
 30
0.0
 10
216.905934
 20
742.758173
 30
0.0
 10
218.423936
 20
619.422985
 30
0.0
  0
LWPOLYLINE
  5
1a0
100
AcDbEntity
  8
Layer_1
 62
5
100
AcDbPolyline
 90
4
 70
0
 10
272.863020
 20
619.422985
 30
0.0
 10
270.817016
 20
742.758173
 30
0.0
 10
248.141982
 20
742.758173
 30
0.0
 10
249.658984
 20
619.422985
 30
0.0
  0
LWPOLYLINE
  5
1a1
100
AcDbEntity
  8
Layer_1
 62
5
100
AcDbPolyline
 90
4
 70
0
 10
305.123069
 20
619.422985
 30
0.0
 10
303.077066
 20
742.758173
 30
0.0
 10
280.402031
 20
742.758173
 30
0.0
 10
281.920033
 20
619.422985
 30
0.0
  0
LWPOLYLINE
  5
1a2
100
AcDbEntity
  8
Layer_1
 62
5
100
AcDbPolyline
 90
4
 70
0
 10
179.965778
 20
544.826871
 30
0.0
 10
178.477375
 20
612.955975
 30
0.0
 10
155.494040
 20
613.127975
 30
0.0
 10
156.686242
 20
544.440870
 30
0.0
  0
LWPOLYLINE
  5
1a3
100
AcDbEntity
  8
Layer_1
 62
5
100
AcDbPolyline
 90
4
 70
0
 10
210.923925
 20
544.826871
 30
0.0
 10
209.434923
 20
612.955975
 30
0.0
 10
186.451888
 20
613.127975
 30
0.0
 10
187.644089
 20
544.440870
 30
0.0
  0
LWPOLYLINE
  5
1a4
100
AcDbEntity
  8
Layer_1
 62
5
100
AcDbPolyline
 90
4
 70
0
 10
242.317973
 20
544.826871
 30
0.0
 10
240.829971
 20
612.955975
 30
0.0
 10
217.845936
 20
613.127975
 30
0.0
 10
219.038937
 20
544.440870
 30
0.0
  0
LWPOLYLINE
  5
1a5
100
AcDbEntity
  8
Layer_1
 62
5
100
AcDbPolyline
 90
4
 70
0
 10
273.713021
 20
544.826871
 30
0.0
 10
272.224019
 20
612.955975
 30
0.0
 10
249.240984
 20
613.127975
 30
0.0
 10
250.432985
 20
544.440870
 30
0.0
  0
LWPOLYLINE
  5
1a6
100
AcDbEntity
  8
Layer_1
 62
5
100
AcDbPolyline
 90
4
 70
0
 10
305.412069
 20
544.826871
 30
0.0
 10
303.923067
 20
612.955975
 30
0.0
 10
280.940032
 20
613.127975
 30
0.0
 10
282.132034
 20
544.440870
 30
0.0
  0
LWPOLYLINE
  5
1a7
100
AcDbEntity
  8
Layer_1
 62
5
100
AcDbPolyline
 90
5
 70
0
 10
618.675548
 20
882.655387
 30
0.0
 10
599.079518
 20
882.778387
 30
0.0
 10
598.914518
 20
838.233319
 30
0.0
 10
618.595548
 20
838.143319
 30
0.0
 10
618.675548
 20
882.655387
 30
0.0
  0
LWPOLYLINE
  5
1a8
100
AcDbEntity
  8
Layer_1
 62
5
100
AcDbPolyline
 90
5
 70
0
 10
646.452590
 20
882.655387
 30
0.0
 10
626.855560
 20
882.778387
 30
0.0
 10
626.691560
 20
838.233319
 30
0.0
 10
646.371590
 20
838.143319
 30
0.0
 10
646.452590
 20
882.655387
 30
0.0
  0
LWPOLYLINE
  5
1a9
100
AcDbEntity
  8
Layer_1
 62
5
100
AcDbPolyline
 90
5
 70
0
 10
674.304633
 20
882.655387
 30
0.0
 10
654.707603
 20
882.778387
 30
0.0
 10
654.543603
 20
838.233319
 30
0.0
 10
674.223633
 20
838.143319
 30
0.0
 10
674.304633
 20
882.655387
 30
0.0
  0
LWPOLYLINE
  5
1aa
100
AcDbEntity
  8
Layer_1
 62
5
100
AcDbPolyline
 90
5
 70
0
 10
701.838675
 20
882.655387
 30
0.0
 10
682.241645
 20
882.778387
 30
0.0
 10
682.077645
 20
838.233319
 30
0.0
 10
701.757675
 20
838.143319
 30
0.0
 10
701.838675
 20
882.655387
 30
0.0
  0
LWPOLYLINE
  5
1ab
100
AcDbEntity
  8
Layer_1
 62
5
100
AcDbPolyline
 90
5
 70
0
 10
729.734718
 20
882.655387
 30
0.0
 10
710.137688
 20
882.778387
 30
0.0
 10
709.973687
 20
838.233319
 30
0.0
 10
729.653717
 20
838.143319
 30
0.0
 10
729.734718
 20
882.655387
 30
0.0
  0
LWPOLYLINE
  5
1ac
100
AcDbEntity
  8
Layer_1
 62
5
100
AcDbPolyline
 90
5
 70
0
 10
483.225341
 20
882.542387
 30
0.0
 10
463.187310
 20
882.657387
 30
0.0
 10
462.751310
 20
837.887319
 30
0.0
 10
483.136341
 20
837.808319
 30
0.0
 10
483.225341
 20
882.542387
 30
0.0
  0
LWPOLYLINE
  5
1ad
100
AcDbEntity
  8
Layer_1
 62
5
100
AcDbPolyline
 90
5
 70
0
 10
510.149382
 20
882.542387
 30
0.0
 10
490.111352
 20
882.657387
 30
0.0
 10
489.675351
 20
837.887319
 30
0.0
 10
510.060382
 20
837.808319
 30
0.0
 10
510.149382
 20
882.542387
 30
0.0
  0
LWPOLYLINE
  5
1ae
100
AcDbEntity
  8
Layer_1
 62
5
100
AcDbPolyline
 90
5
 70
0
 10
539.867428
 20
882.542387
 30
0.0
 10
519.829397
 20
882.657387
 30
0.0
 10
519.393396
 20
837.887319
 30
0.0
 10
539.778427
 20
837.808319
 30
0.0
 10
539.867428
 20
882.542387
 30
0.0
  0
LWPOLYLINE
  5
1af
100
AcDbEntity
  8
Layer_1
 62
5
100
AcDbPolyline
 90
5
 70
0
 10
566.029468
 20
882.542387
 30
0.0
 10
545.991437
 20
882.657387
 30
0.0
 10
545.555436
 20
837.887319
 30
0.0
 10
565.940467
 20
837.808319
 30
0.0
 10
566.029468
 20
882.542387
 30
0.0
  0
LWPOLYLINE
  5
1b0
100
AcDbEntity
  8
Layer_1
 62
5
100
AcDbPolyline
 90
5
 70
0
 10
593.207509
 20
882.542387
 30
0.0
 10
573.169478
 20
882.657387
 30
0.0
 10
572.733478
 20
837.887319
 30
0.0
 10
593.118509
 20
837.808319
 30
0.0
 10
593.207509
 20
882.542387
 30
0.0
  0
LWPOLYLINE
  5
1b1
100
AcDbEntity
  8
Layer_1
 62
5
100
AcDbPolyline
 90
21
 70
0
 10
313.022081
 20
796.368255
 30
0.0
 10
321.108093
 20
796.363255
 30
0.0
 10
321.096093
 20
793.347251
 30
0.0
 10
349.900137
 20
793.306251
 30
0.0
 10
349.907137
 20
795.623254
 30
0.0
 10
363.450158
 20
795.590254
 30
0.0
 10
363.444158
 20
793.391251
 30
0.0
 10
390.986200
 20
792.846250
 30
0.0
 10
390.991200
 20
795.505254
 30
0.0
 10
399.186213
 20
795.476254
 30
0.0
 10
399.152213
 20
767.405211
 30
0.0
 10
390.839200
 20
767.424211
 30
0.0
 10
390.841200
 20
769.504214
 30
0.0
 10
363.168158
 20
769.557214
 30
0.0
 10
363.165158
 20
767.359211
 30
0.0
 10
349.497137
 20
767.375211
 30
0.0
 10
349.502137
 20
769.921215
 30
0.0
 10
320.789093
 20
769.933215
 30
0.0
 10
320.782093
 20
767.501211
 30
0.0
 10
312.688080
 20
767.497211
 30
0.0
 10
313.022081
 20
796.368255
 30
0.0
  0
LWPOLYLINE
  5
1b2
100
AcDbEntity
  8
Layer_1
 62
5
100
AcDbPolyline
 90
21
 70
0
 10
313.022081
 20
759.682199
 30
0.0
 10
321.108093
 20
759.677199
 30
0.0
 10
321.096093
 20
756.662195
 30
0.0
 10
349.900137
 20
756.621194
 30
0.0
 10
349.907137
 20
758.937198
 30
0.0
 10
363.450158
 20
758.904198
 30
0.0
 10
363.444158
 20
756.705195
 30
0.0
 10
390.986200
 20
756.161194
 30
0.0
 10
390.991200
 20
758.819198
 30
0.0
 10
399.186213
 20
758.790198
 30
0.0
 10
399.152213
 20
730.719155
 30
0.0
 10
390.839200
 20
730.739155
 30
0.0
 10
390.841200
 20
732.818158
 30
0.0
 10
363.168158
 20
732.872158
 30
0.0
 10
363.165158
 20
730.674155
 30
0.0
 10
349.497137
 20
730.690155
 30
0.0
 10
349.502137
 20
733.236159
 30
0.0
 10
320.789093
 20
733.248159
 30
0.0
 10
320.782093
 20
730.815155
 30
0.0
 10
312.688080
 20
730.811155
 30
0.0
 10
313.022081
 20
759.682199
 30
0.0
  0
LWPOLYLINE
  5
1b3
100
AcDbEntity
  8
Layer_1
 62
5
100
AcDbPolyline
 90
21
 70
0
 10
313.022081
 20
716.704134
 30
0.0
 10
321.108093
 20
716.699134
 30
0.0
 10
321.096093
 20
713.684129
 30
0.0
 10
349.900137
 20
713.643129
 30
0.0
 10
349.907137
 20
715.959132
 30
0.0
 10
363.450158
 20
715.926132
 30
0.0
 10
363.444158
 20
713.727129
 30
0.0
 10
390.986200
 20
713.183128
 30
0.0
 10
390.991200
 20
715.841132
 30
0.0
 10
399.186213
 20
715.812132
 30
0.0
 10
399.152213
 20
687.741089
 30
0.0
 10
390.839200
 20
687.761089
 30
0.0
 10
390.841200
 20
689.840092
 30
0.0
 10
363.168158
 20
689.893093
 30
0.0
 10
363.165158
 20
687.696089
 30
0.0
 10
349.497137
 20
687.712089
 30
0.0
 10
349.502137
 20
690.258093
 30
0.0
 10
320.789093
 20
690.270093
 30
0.0
 10
320.782093
 20
687.837089
 30
0.0
 10
312.688080
 20
687.833089
 30
0.0
 10
313.022081
 20
716.704134
 30
0.0
  0
LWPOLYLINE
  5
1b4
100
AcDbEntity
  8
Layer_1
 62
5
100
AcDbPolyline
 90
21
 70
0
 10
313.022081
 20
677.384073
 30
0.0
 10
321.108093
 20
677.379073
 30
0.0
 10
321.096093
 20
674.363069
 30
0.0
 10
349.900137
 20
674.322069
 30
0.0
 10
349.907137
 20
676.639072
 30
0.0
 10
363.450158
 20
676.606072
 30
0.0
 10
363.444158
 20
674.407069
 30
0.0
 10
390.986200
 20
673.862068
 30
0.0
 10
390.991200
 20
676.521072
 30
0.0
 10
399.186213
 20
676.492072
 30
0.0
 10
399.152213
 20
648.421029
 30
0.0
 10
390.839200
 20
648.440029
 30
0.0
 10
390.841200
 20
650.520032
 30
0.0
 10
363.168158
 20
650.573032
 30
0.0
 10
363.165158
 20
648.375029
 30
0.0
 10
349.497137
 20
648.391029
 30
0.0
 10
349.502137
 20
650.937033
 30
0.0
 10
320.789093
 20
650.949033
 30
0.0
 10
320.782093
 20
648.517029
 30
0.0
 10
312.688080
 20
648.513029
 30
0.0
 10
313.022081
 20
677.384073
 30
0.0
  0
LWPOLYLINE
  5
1b5
100
AcDbEntity
  8
Layer_1
 62
5
100
AcDbPolyline
 90
21
 70
0
 10
313.022081
 20
644.186023
 30
0.0
 10
321.108093
 20
644.181023
 30
0.0
 10
321.096093
 20
641.166018
 30
0.0
 10
349.900137
 20
641.125018
 30
0.0
 10
349.907137
 20
643.441022
 30
0.0
 10
363.450158
 20
643.408022
 30
0.0
 10
363.444158
 20
641.209018
 30
0.0
 10
390.986200
 20
640.665017
 30
0.0
 10
390.991200
 20
643.323021
 30
0.0
 10
399.186213
 20
643.294021
 30
0.0
 10
399.152213
 20
615.222978
 30
0.0
 10
390.839200
 20
615.242978
 30
0.0
 10
390.841200
 20
617.321982
 30
0.0
 10
363.168158
 20
617.374982
 30
0.0
 10
363.165158
 20
615.177978
 30
0.0
 10
349.497137
 20
615.193978
 30
0.0
 10
349.502137
 20
617.739982
 30
0.0
 10
320.789093
 20
617.751982
 30
0.0
 10
320.782093
 20
615.318979
 30
0.0
 10
312.688080
 20
615.314979
 30
0.0
 10
313.022081
 20
644.186023
 30
0.0
  0
LWPOLYLINE
  5
1b6
100
AcDbEntity
  8
Layer_1
 62
5
100
AcDbPolyline
 90
3
 70
0
 10
273.709021
 20
1132.306768
 30
0.0
 10
269.548015
 20
1125.521758
 30
0.0
 10
269.528015
 20
1082.107692
 30
0.0
  0
LWPOLYLINE
  5
1b7
100
AcDbEntity
  8
Layer_1
 62
5
100
AcDbPolyline
 90
3
 70
0
 10
279.166029
 20
1065.463666
 30
0.0
 10
269.548015
 20
1075.416682
 30
0.0
 10
269.528015
 20
1082.107692
 30
0.0
  0
LWPOLYLINE
  5
1b8
100
AcDbEntity
  8
Layer_1
 62
5
100
AcDbPolyline
 90
5
 70
0
 10
273.709021
 20
1132.306768
 30
0.0
 10
277.525027
 20
1138.621778
 30
0.0
 10
305.834070
 20
1122.728754
 30
0.0
 10
308.401074
 20
1085.365697
 30
0.0
 10
282.673035
 20
1061.822661
 30
0.0
  0
LWPOLYLINE
  5
1b9
100
AcDbEntity
  8
Layer_1
 62
5
100
AcDbPolyline
 90
3
 70
0
 10
319.027090
 20
1131.051767
 30
0.0
 10
314.866084
 20
1124.266756
 30
0.0
 10
314.846084
 20
1080.853690
 30
0.0
  0
LWPOLYLINE
  5
1ba
100
AcDbEntity
  8
Layer_1
 62
5
100
AcDbPolyline
 90
3
 70
0
 10
324.484098
 20
1064.208664
 30
0.0
 10
314.866084
 20
1074.161680
 30
0.0
 10
314.846084
 20
1080.853690
 30
0.0
  0
LWPOLYLINE
  5
1bb
100
AcDbEntity
  8
Layer_1
 62
5
100
AcDbPolyline
 90
5
 70
0
 10
319.027090
 20
1131.051767
 30
0.0
 10
322.843096
 20
1137.366776
 30
0.0
 10
351.152139
 20
1121.473752
 30
0.0
 10
353.719143
 20
1084.110695
 30
0.0
 10
327.991104
 20
1060.567659
 30
0.0
  0
LWPOLYLINE
  5
1bc
100
AcDbEntity
  8
Layer_1
 62
5
100
AcDbPolyline
 90
3
 70
0
 10
366.680163
 20
1131.051767
 30
0.0
 10
362.518157
 20
1124.266756
 30
0.0
 10
362.498157
 20
1080.853690
 30
0.0
  0
LWPOLYLINE
  5
1bd
100
AcDbEntity
  8
Layer_1
 62
5
100
AcDbPolyline
 90
3
 70
0
 10
372.137171
 20
1064.208664
 30
0.0
 10
362.518157
 20
1074.161680
 30
0.0
 10
362.498157
 20
1080.853690
 30
0.0
  0
LWPOLYLINE
  5
1be
100
AcDbEntity
  8
Layer_1
 62
5
100
AcDbPolyline
 90
5
 70
0
 10
366.680163
 20
1131.051767
 30
0.0
 10
370.495169
 20
1137.366776
 30
0.0
 10
398.805212
 20
1121.473752
 30
0.0
 10
401.372216
 20
1084.110695
 30
0.0
 10
375.644177
 20
1060.567659
 30
0.0
  0
LWPOLYLINE
  5
1bf
100
AcDbEntity
  8
Layer_1
 62
5
100
AcDbPolyline
 90
3
 70
0
 10
414.824236
 20
1131.051767
 30
0.0
 10
410.662230
 20
1124.266756
 30
0.0
 10
410.642230
 20
1080.853690
 30
0.0
  0
LWPOLYLINE
  5
1c0
100
AcDbEntity
  8
Layer_1
 62
5
100
AcDbPolyline
 90
3
 70
0
 10
420.280245
 20
1064.208664
 30
0.0
 10
410.662230
 20
1074.161680
 30
0.0
 10
410.642230
 20
1080.853690
 30
0.0
  0
LWPOLYLINE
  5
1c1
100
AcDbEntity
  8
Layer_1
 62
5
100
AcDbPolyline
 90
5
 70
0
 10
414.824236
 20
1131.051767
 30
0.0
 10
418.639242
 20
1137.366776
 30
0.0
 10
446.949286
 20
1121.473752
 30
0.0
 10
449.515289
 20
1084.110695
 30
0.0
 10
423.787250
 20
1060.567659
 30
0.0
  0
LWPOLYLINE
  5
1c2
100
AcDbEntity
  8
Layer_1
 62
5
100
AcDbPolyline
 90
3
 70
0
 10
460.511306
 20
1131.051767
 30
0.0
 10
456.350300
 20
1124.266756
 30
0.0
 10
456.330300
 20
1080.853690
 30
0.0
  0
LWPOLYLINE
  5
1c3
100
AcDbEntity
  8
Layer_1
 62
5
100
AcDbPolyline
 90
3
 70
0
 10
465.968315
 20
1064.208664
 30
0.0
 10
456.350300
 20
1074.161680
 30
0.0
 10
456.330300
 20
1080.853690
 30
0.0
  0
LWPOLYLINE
  5
1c4
100
AcDbEntity
  8
Layer_1
 62
5
100
AcDbPolyline
 90
5
 70
0
 10
460.511306
 20
1131.051767
 30
0.0
 10
464.327312
 20
1137.366776
 30
0.0
 10
492.636355
 20
1121.473752
 30
0.0
 10
495.203359
 20
1084.110695
 30
0.0
 10
469.475320
 20
1060.567659
 30
0.0
  0
LWPOLYLINE
  5
1c5
100
AcDbEntity
  8
Layer_1
 62
5
100
AcDbPolyline
 90
2
 70
0
 10
178.357775
 20
801.656263
 30
0.0
 10
159.471246
 20
801.045262
 30
0.0
  0
LWPOLYLINE
  5
1c6
100
AcDbEntity
  8
Layer_1
 62
5
100
AcDbPolyline
 90
11
 70
0
 10
178.357975
 20
801.648263
 30
0.0
 10
177.997975
 20
792.575249
 30
0.0
 10
175.612171
 20
792.288249
 30
0.0
 10
175.799871
 20
784.551237
 30
0.0
 10
178.206975
 20
784.518237
 30
0.0
 10
178.183475
 20
765.276208
 30
0.0
 10
175.676971
 20
765.109207
 30
0.0
 10
175.973672
 20
757.345196
 30
0.0
 10
178.333775
 20
757.334196
 30
0.0
 10
178.357975
 20
749.159183
 30
0.0
 10
173.933168
 20
749.145183
 30
0.0
  0
LWPOLYLINE
  5
1c7
100
AcDbEntity
  8
Layer_1
 62
5
100
AcDbPolyline
 90
11
 70
0
 10
157.713444
 20
749.186183
 30
0.0
 10
155.240940
 20
749.288183
 30
0.0
 10
155.003140
 20
757.755196
 30
0.0
 10
157.786144
 20
757.887196
 30
0.0
 10
157.616344
 20
764.934207
 30
0.0
 10
154.950039
 20
764.842207
 30
0.0
 10
154.586639
 20
783.162235
 30
0.0
 10
157.907144
 20
783.206235
 30
0.0
 10
157.757944
 20
791.071247
 30
0.0
 10
154.940439
 20
791.062247
 30
0.0
 10
154.639639
 20
800.897262
 30
0.0
  0
LWPOLYLINE
  5
1c8
100
AcDbEntity
  8
Layer_1
 62
5
100
AcDbPolyline
 90
2
 70
0
 10
209.382923
 20
801.656263
 30
0.0
 10
190.496094
 20
801.045262
 30
0.0
  0
LWPOLYLINE
  5
1c9
100
AcDbEntity
  8
Layer_1
 62
5
100
AcDbPolyline
 90
11
 70
0
 10
209.382923
 20
801.648263
 30
0.0
 10
209.022922
 20
792.575249
 30
0.0
 10
206.636918
 20
792.288249
 30
0.0
 10
206.824919
 20
784.551237
 30
0.0
 10
209.231922
 20
784.518237
 30
0.0
 10
209.207922
 20
765.276208
 30
0.0
 10
206.701919
 20
765.109207
 30
0.0
 10
206.998919
 20
757.345196
 30
0.0
 10
209.358923
 20
757.334196
 30
0.0
 10
209.382923
 20
749.159183
 30
0.0
 10
204.957916
 20
749.145183
 30
0.0
  0
LWPOLYLINE
  5
1ca
100
AcDbEntity
  8
Layer_1
 62
5
100
AcDbPolyline
 90
11
 70
0
 10
188.738291
 20
749.186183
 30
0.0
 10
186.265787
 20
749.288183
 30
0.0
 10
186.027987
 20
757.755196
 30
0.0
 10
188.810991
 20
757.887196
 30
0.0
 10
188.641191
 20
764.934207
 30
0.0
 10
185.974887
 20
764.842207
 30
0.0
 10
185.611486
 20
783.162235
 30
0.0
 10
188.931991
 20
783.206235
 30
0.0
 10
188.782791
 20
791.071247
 30
0.0
 10
185.965287
 20
791.062247
 30
0.0
 10
185.664486
 20
800.897262
 30
0.0
  0
LWPOLYLINE
  5
1cb
100
AcDbEntity
  8
Layer_1
 62
5
100
AcDbPolyline
 90
2
 70
0
 10
237.219965
 20
801.656263
 30
0.0
 10
218.333936
 20
801.045262
 30
0.0
  0
LWPOLYLINE
  5
1cc
100
AcDbEntity
  8
Layer_1
 62
5
100
AcDbPolyline
 90
11
 70
0
 10
237.219965
 20
801.648263
 30
0.0
 10
236.859965
 20
792.575249
 30
0.0
 10
234.473961
 20
792.288249
 30
0.0
 10
234.661961
 20
784.551237
 30
0.0
 10
237.068965
 20
784.518237
 30
0.0
 10
237.045965
 20
765.276208
 30
0.0
 10
234.538961
 20
765.109207
 30
0.0
 10
234.835962
 20
757.345196
 30
0.0
 10
237.195965
 20
757.334196
 30
0.0
 10
237.219965
 20
749.159183
 30
0.0
 10
232.794958
 20
749.145183
 30
0.0
  0
LWPOLYLINE
  5
1cd
100
AcDbEntity
  8
Layer_1
 62
5
100
AcDbPolyline
 90
11
 70
0
 10
216.575934
 20
749.186183
 30
0.0
 10
214.102930
 20
749.288183
 30
0.0
 10
213.864929
 20
757.755196
 30
0.0
 10
216.648934
 20
757.887196
 30
0.0
 10
216.478933
 20
764.934207
 30
0.0
 10
213.811929
 20
764.842207
 30
0.0
 10
213.448929
 20
783.162235
 30
0.0
 10
216.769934
 20
783.206235
 30
0.0
 10
216.619934
 20
791.071247
 30
0.0
 10
213.802929
 20
791.062247
 30
0.0
 10
213.501929
 20
800.897262
 30
0.0
  0
LWPOLYLINE
  5
1ce
100
AcDbEntity
  8
Layer_1
 62
5
100
AcDbPolyline
 90
2
 70
0
 10
268.733013
 20
801.656263
 30
0.0
 10
249.846984
 20
801.045262
 30
0.0
  0
LWPOLYLINE
  5
1cf
100
AcDbEntity
  8
Layer_1
 62
5
100
AcDbPolyline
 90
11
 70
0
 10
268.734013
 20
801.648263
 30
0.0
 10
268.374013
 20
792.575249
 30
0.0
 10
265.988009
 20
792.288249
 30
0.0
 10
266.175009
 20
784.551237
 30
0.0
 10
268.583013
 20
784.518237
 30
0.0
 10
268.559013
 20
765.276208
 30
0.0
 10
266.053009
 20
765.109207
 30
0.0
 10
266.349010
 20
757.345196
 30
0.0
 10
268.709013
 20
757.334196
 30
0.0
 10
268.734013
 20
749.159183
 30
0.0
 10
264.309007
 20
749.145183
 30
0.0
  0
LWPOLYLINE
  5
1d0
100
AcDbEntity
  8
Layer_1
 62
5
100
AcDbPolyline
 90
11
 70
0
 10
248.088982
 20
749.186183
 30
0.0
 10
245.616978
 20
749.288183
 30
0.0
 10
245.378978
 20
757.755196
 30
0.0
 10
248.161982
 20
757.887196
 30
0.0
 10
247.991982
 20
764.934207
 30
0.0
 10
245.325978
 20
764.842207
 30
0.0
 10
244.961977
 20
783.162235
 30
0.0
 10
248.282982
 20
783.206235
 30
0.0
 10
248.133982
 20
791.071247
 30
0.0
 10
245.315978
 20
791.062247
 30
0.0
 10
245.014977
 20
800.897262
 30
0.0
  0
LWPOLYLINE
  5
1d1
100
AcDbEntity
  8
Layer_1
 62
5
100
AcDbPolyline
 90
2
 70
0
 10
297.326057
 20
801.656263
 30
0.0
 10
278.439028
 20
801.045262
 30
0.0
  0
LWPOLYLINE
  5
1d2
100
AcDbEntity
  8
Layer_1
 62
5
100
AcDbPolyline
 90
11
 70
0
 10
297.326057
 20
801.648263
 30
0.0
 10
296.966056
 20
792.575249
 30
0.0
 10
294.580053
 20
792.288249
 30
0.0
 10
294.768053
 20
784.551237
 30
0.0
 10
297.175057
 20
784.518237
 30
0.0
 10
297.151057
 20
765.276208
 30
0.0
 10
294.645053
 20
765.109207
 30
0.0
 10
294.942053
 20
757.345196
 30
0.0
 10
297.302057
 20
757.334196
 30
0.0
 10
297.326057
 20
749.159183
 30
0.0
 10
292.901050
 20
749.145183
 30
0.0
  0
LWPOLYLINE
  5
1d3
100
AcDbEntity
  8
Layer_1
 62
5
100
AcDbPolyline
 90
11
 70
0
 10
276.681025
 20
749.186183
 30
0.0
 10
274.209022
 20
749.288183
 30
0.0
 10
273.971021
 20
757.755196
 30
0.0
 10
276.754026
 20
757.887196
 30
0.0
 10
276.584025
 20
764.934207
 30
0.0
 10
273.918021
 20
764.842207
 30
0.0
 10
273.555021
 20
783.162235
 30
0.0
 10
276.875026
 20
783.206235
 30
0.0
 10
276.726026
 20
791.071247
 30
0.0
 10
273.908021
 20
791.062247
 30
0.0
 10
273.608021
 20
800.897262
 30
0.0
  0
LWPOLYLINE
  5
1d4
100
AcDbEntity
  8
Layer_1
 62
5
100
AcDbPolyline
 90
12
 70
0
 10
344.687129
 20
459.132740
 30
0.0
 10
327.233103
 20
459.119740
 30
0.0
 10
327.347103
 20
452.657730
 30
0.0
 10
316.759087
 20
452.641730
 30
0.0
 10
316.954087
 20
441.947714
 30
0.0
 10
309.016075
 20
441.781713
 30
0.0
 10
309.333075
 20
424.128687
 30
0.0
 10
329.252106
 20
424.151687
 30
0.0
 10
329.057105
 20
432.286699
 30
0.0
 10
338.103119
 20
440.793712
 30
0.0
 10
345.008130
 20
440.792712
 30
0.0
 10
344.687129
 20
459.132740
 30
0.0
  0
LWPOLYLINE
  5
1d5
100
AcDbEntity
  8
Layer_1
 62
5
100
AcDbPolyline
 90
12
 70
0
 10
306.514071
 20
461.009743
 30
0.0
 10
289.061044
 20
460.996743
 30
0.0
 10
289.174045
 20
454.534733
 30
0.0
 10
278.586028
 20
454.518733
 30
0.0
 10
278.781029
 20
443.824717
 30
0.0
 10
270.843017
 20
443.658716
 30
0.0
 10
271.160017
 20
426.006689
 30
0.0
 10
291.079047
 20
426.028689
 30
0.0
 10
290.885047
 20
434.163702
 30
0.0
 10
299.930061
 20
442.670715
 30
0.0
 10
306.835072
 20
442.669715
 30
0.0
 10
306.514071
 20
461.009743
 30
0.0
  0
LWPOLYLINE
  5
1d6
100
AcDbEntity
  8
Layer_1
 62
5
100
AcDbPolyline
 90
12
 70
0
 10
267.593012
 20
462.543745
 30
0.0
 10
250.139985
 20
462.530745
 30
0.0
 10
250.253985
 20
456.068735
 30
0.0
 10
239.664969
 20
456.052735
 30
0.0
 10
239.859969
 20
445.359719
 30
0.0
 10
231.922957
 20
445.192719
 30
0.0
 10
232.238958
 20
427.540692
 30
0.0
 10
252.158988
 20
427.562692
 30
0.0
 10
251.963988
 20
435.698704
 30
0.0
 10
261.009002
 20
444.204717
 30
0.0
 10
267.915012
 20
444.203717
 30
0.0
 10
267.593012
 20
462.543745
 30
0.0
  0
LWPOLYLINE
  5
1d7
100
AcDbEntity
  8
Layer_1
 62
5
100
AcDbPolyline
 90
12
 70
0
 10
228.497952
 20
462.099745
 30
0.0
 10
211.044925
 20
462.086745
 30
0.0
 10
211.157925
 20
455.623735
 30
0.0
 10
200.570009
 20
455.607735
 30
0.0
 10
200.764809
 20
444.914718
 30
0.0
 10
192.827597
 20
444.748718
 30
0.0
 10
193.143798
 20
427.095691
 30
0.0
 10
213.062928
 20
427.118691
 30
0.0
 10
212.868928
 20
435.253704
 30
0.0
 10
221.913942
 20
443.760717
 30
0.0
 10
228.818952
 20
443.759717
 30
0.0
 10
228.497952
 20
462.099745
 30
0.0
  0
LWPOLYLINE
  5
1d8
100
AcDbEntity
  8
Layer_1
 62
5
100
AcDbPolyline
 90
12
 70
0
 10
190.549194
 20
464.630748
 30
0.0
 10
173.096167
 20
464.617748
 30
0.0
 10
173.209667
 20
458.155739
 30
0.0
 10
162.621451
 20
458.139738
 30
0.0
 10
162.816251
 20
447.445722
 30
0.0
 10
154.878939
 20
447.279722
 30
0.0
 10
155.195240
 20
429.626695
 30
0.0
 10
175.114670
 20
429.649695
 30
0.0
 10
174.920070
 20
437.784707
 30
0.0
 10
183.965384
 20
446.291720
 30
0.0
 10
190.870794
 20
446.290720
 30
0.0
 10
190.549194
 20
464.630748
 30
0.0
  0
LWPOLYLINE
  5
1d9
100
AcDbEntity
  8
Layer_1
 62
5
100
AcDbPolyline
 90
5
 70
0
 10
1027.842173
 20
1193.518462
 30
0.0
 10
1027.941173
 20
1172.430230
 30
0.0
 10
1065.546231
 20
1172.817030
 30
0.0
 10
1065.426230
 20
1194.023663
 30
0.0
 10
1027.842173
 20
1193.518462
 30
0.0
  0
LWPOLYLINE
  5
1da
100
AcDbEntity
  8
Layer_1
 62
5
100
AcDbPolyline
 90
5
 70
0
 10
1071.540240
 20
1193.411062
 30
0.0
 10
1071.639240
 20
1172.322830
 30
0.0
 10
1109.245297
 20
1172.709630
 30
0.0
 10
1109.125297
 20
1193.916263
 30
0.0
 10
1071.540240
 20
1193.411062
 30
0.0
  0
LWPOLYLINE
  5
1db
100
AcDbEntity
  8
Layer_1
 62
5
100
AcDbPolyline
 90
5
 70
0
 10
1116.065308
 20
1193.301562
 30
0.0
 10
1116.165308
 20
1172.213429
 30
0.0
 10
1153.775365
 20
1172.600230
 30
0.0
 10
1153.655365
 20
1193.806762
 30
0.0
 10
1116.065308
 20
1193.301562
 30
0.0
  0
LWPOLYLINE
  5
1dc
100
AcDbEntity
  8
Layer_1
 62
5
100
AcDbPolyline
 90
5
 70
0
 10
1160.715376
 20
1193.191861
 30
0.0
 10
1160.815376
 20
1172.103629
 30
0.0
 10
1198.415434
 20
1172.490430
 30
0.0
 10
1198.295433
 20
1193.697062
 30
0.0
 10
1160.715376
 20
1193.191861
 30
0.0
  0
LWPOLYLINE
  5
1dd
100
AcDbEntity
  8
Layer_1
 62
5
100
AcDbPolyline
 90
5
 70
0
 10
1205.735445
 20
1193.081261
 30
0.0
 10
1205.835445
 20
1171.993029
 30
0.0
 10
1243.435502
 20
1172.379830
 30
0.0
 10
1243.315502
 20
1193.586462
 30
0.0
 10
1205.735445
 20
1193.081261
 30
0.0
  0
LWPOLYLINE
  5
1de
100
AcDbEntity
  8
Layer_1
 62
5
100
AcDbPolyline
 90
5
 70
0
 10
1256.135522
 20
1062.926662
 30
0.0
 10
1256.645523
 20
1039.555627
 30
0.0
 10
1295.165581
 20
1039.058626
 30
0.0
 10
1294.405580
 20
1062.359662
 30
0.0
 10
1256.135522
 20
1062.926662
 30
0.0
  0
LWPOLYLINE
  5
1df
100
AcDbEntity
  8
Layer_1
 62
5
100
AcDbPolyline
 90
5
 70
0
 10
1256.065522
 20
1034.433619
 30
0.0
 10
1256.575523
 20
1011.062583
 30
0.0
 10
1295.095581
 20
1010.565582
 30
0.0
 10
1294.335580
 20
1033.866618
 30
0.0
 10
1256.065522
 20
1034.433619
 30
0.0
  0
LWPOLYLINE
  5
1e0
100
AcDbEntity
  8
Layer_1
 62
5
100
AcDbPolyline
 90
5
 70
0
 10
1255.995522
 20
1005.868575
 30
0.0
 10
1256.505522
 20
982.496540
 30
0.0
 10
1295.025581
 20
982.000539
 30
0.0
 10
1294.265580
 20
1005.300574
 30
0.0
 10
1255.995522
 20
1005.868575
 30
0.0
  0
LWPOLYLINE
  5
1e1
100
AcDbEntity
  8
Layer_1
 62
5
100
AcDbPolyline
 90
5
 70
0
 10
1255.915521
 20
974.266527
 30
0.0
 10
1256.425522
 20
950.895491
 30
0.0
 10
1294.945581
 20
950.398491
 30
0.0
 10
1294.195580
 20
973.699526
 30
0.0
 10
1255.915521
 20
974.266527
 30
0.0
  0
LWPOLYLINE
  5
1e2
100
AcDbEntity
  8
Layer_1
 62
5
100
AcDbPolyline
 90
5
 70
0
 10
1255.835521
 20
942.064478
 30
0.0
 10
1256.345522
 20
918.693442
 30
0.0
 10
1294.865581
 20
918.196441
 30
0.0
 10
1294.115580
 20
941.497477
 30
0.0
 10
1255.835521
 20
942.064478
 30
0.0
  0
LWPOLYLINE
  5
1e3
100
AcDbEntity
  8
Layer_1
 62
5
100
AcDbPolyline
 90
5
 70
0
 10
1239.285496
 20
1197.400168
 30
0.0
 10
1275.345551
 20
1198.082969
 30
0.0
 10
1275.365551
 20
1217.661999
 30
0.0
 10
1239.295496
 20
1217.244898
 30
0.0
 10
1239.285496
 20
1197.400168
 30
0.0
  0
LWPOLYLINE
  5
1e4
100
AcDbEntity
  8
Layer_1
 62
5
100
AcDbPolyline
 90
5
 70
0
 10
1281.345560
 20
1197.296768
 30
0.0
 10
1317.405615
 20
1197.979569
 30
0.0
 10
1317.425615
 20
1217.558599
 30
0.0
 10
1281.365560
 20
1217.141498
 30
0.0
 10
1281.345560
 20
1197.296768
 30
0.0
  0
LWPOLYLINE
  5
1e5
100
AcDbEntity
  8
Layer_1
 62
5
100
AcDbPolyline
 90
5
 70
0
 10
1323.415625
 20
1197.193368
 30
0.0
 10
1359.465680
 20
1197.876169
 30
0.0
 10
1359.485680
 20
1217.455199
 30
0.0
 10
1323.425625
 20
1217.038098
 30
0.0
 10
1323.415625
 20
1197.193368
 30
0.0
  0
LWPOLYLINE
  5
1e6
100
AcDbEntity
  8
Layer_1
 62
5
100
AcDbPolyline
 90
5
 70
0
 10
1246.815508
 20
1172.881430
 30
0.0
 10
1282.865563
 20
1173.564231
 30
0.0
 10
1282.885563
 20
1193.143261
 30
0.0
 10
1246.825508
 20
1192.726161
 30
0.0
 10
1246.815508
 20
1172.881430
 30
0.0
  0
LWPOLYLINE
  5
1e7
100
AcDbEntity
  8
Layer_1
 62
5
100
AcDbPolyline
 90
5
 70
0
 10
1290.335574
 20
1172.774430
 30
0.0
 10
1326.395629
 20
1173.457231
 30
0.0
 10
1326.415629
 20
1193.036361
 30
0.0
 10
1290.355574
 20
1192.619261
 30
0.0
 10
1290.335574
 20
1172.774430
 30
0.0
  0
LWPOLYLINE
  5
1e8
100
AcDbEntity
  8
Layer_1
 62
5
100
AcDbPolyline
 90
13
 70
0
 10
890.904964
 20
920.308445
 30
0.0
 10
913.415998
 20
920.699445
 30
0.0
 10
913.409998
 20
924.151450
 30
0.0
 10
928.624021
 20
924.529451
 30
0.0
 10
928.607021
 20
934.624466
 30
0.0
 10
921.645011
 20
934.530466
 30
0.0
 10
921.634011
 20
941.692477
 30
0.0
 10
928.683022
 20
941.787477
 30
0.0
 10
928.670022
 20
951.796493
 30
0.0
 10
894.951970
 20
951.007491
 30
0.0
 10
894.967970
 20
941.168476
 30
0.0
 10
890.862964
 20
941.115476
 30
0.0
 10
890.904964
 20
920.308445
 30
0.0
  0
LWPOLYLINE
  5
1e9
100
AcDbEntity
  8
Layer_1
 62
5
100
AcDbPolyline
 90
13
 70
0
 10
935.674032
 20
920.308445
 30
0.0
 10
958.185067
 20
920.699445
 30
0.0
 10
958.179067
 20
924.151450
 30
0.0
 10
973.393090
 20
924.529451
 30
0.0
 10
973.376090
 20
934.624466
 30
0.0
 10
966.414079
 20
934.530466
 30
0.0
 10
966.403079
 20
941.692477
 30
0.0
 10
973.452090
 20
941.787477
 30
0.0
 10
973.440090
 20
951.796493
 30
0.0
 10
939.721038
 20
951.007491
 30
0.0
 10
939.738038
 20
941.168476
 30
0.0
 10
935.632032
 20
941.115476
 30
0.0
 10
935.674032
 20
920.308445
 30
0.0
  0
LWPOLYLINE
  5
1ea
100
AcDbEntity
  8
Layer_1
 62
5
100
AcDbPolyline
 90
13
 70
0
 10
979.565099
 20
920.308445
 30
0.0
 10
1002.077134
 20
920.699445
 30
0.0
 10
1002.070134
 20
924.151450
 30
0.0
 10
1017.284157
 20
924.529451
 30
0.0
 10
1017.268157
 20
934.624466
 30
0.0
 10
1010.305146
 20
934.530466
 30
0.0
 10
1010.294146
 20
941.692477
 30
0.0
 10
1017.343157
 20
941.787477
 30
0.0
 10
1017.331157
 20
951.796493
 30
0.0
 10
983.612105
 20
951.007491
 30
0.0
 10
983.629106
 20
941.168476
 30
0.0
 10
979.523099
 20
941.115476
 30
0.0
 10
979.565099
 20
920.308445
 30
0.0
  0
LWPOLYLINE
  5
1eb
100
AcDbEntity
  8
Layer_1
 62
5
100
AcDbPolyline
 90
13
 70
0
 10
1023.582167
 20
920.308445
 30
0.0
 10
1046.094201
 20
920.699445
 30
0.0
 10
1046.087201
 20
924.151450
 30
0.0
 10
1061.302224
 20
924.529451
 30
0.0
 10
1061.285224
 20
934.624466
 30
0.0
 10
1054.323214
 20
934.530466
 30
0.0
 10
1054.312213
 20
941.692477
 30
0.0
 10
1061.361224
 20
941.787477
 30
0.0
 10
1061.348224
 20
951.796493
 30
0.0
 10
1027.630173
 20
951.007491
 30
0.0
 10
1027.646173
 20
941.168476
 30
0.0
 10
1023.541166
 20
941.115476
 30
0.0
 10
1023.582167
 20
920.308445
 30
0.0
  0
LWPOLYLINE
  5
1ec
100
AcDbEntity
  8
Layer_1
 62
5
100
AcDbPolyline
 90
13
 70
0
 10
1067.990234
 20
920.308445
 30
0.0
 10
1090.502269
 20
920.699445
 30
0.0
 10
1090.495269
 20
924.151450
 30
0.0
 10
1105.705292
 20
924.529451
 30
0.0
 10
1105.695292
 20
934.624466
 30
0.0
 10
1098.731281
 20
934.530466
 30
0.0
 10
1098.720281
 20
941.692477
 30
0.0
 10
1105.765292
 20
941.787477
 30
0.0
 10
1105.755292
 20
951.796493
 30
0.0
 10
1072.038241
 20
951.007491
 30
0.0
 10
1072.054241
 20
941.168476
 30
0.0
 10
1067.948234
 20
941.115476
 30
0.0
 10
1067.990234
 20
920.308445
 30
0.0
  0
LWPOLYLINE
  5
1ed
100
AcDbEntity
  8
Layer_1
 62
5
100
AcDbPolyline
 90
13
 70
0
 10
1111.575301
 20
920.308445
 30
0.0
 10
1134.085335
 20
920.699445
 30
0.0
 10
1134.075335
 20
924.151450
 30
0.0
 10
1149.295359
 20
924.529451
 30
0.0
 10
1149.275359
 20
934.624466
 30
0.0
 10
1142.315348
 20
934.530466
 30
0.0
 10
1142.305348
 20
941.692477
 30
0.0
 10
1149.355359
 20
941.787477
 30
0.0
 10
1149.335359
 20
951.796493
 30
0.0
 10
1115.615307
 20
951.007491
 30
0.0
 10
1115.635307
 20
941.168476
 30
0.0
 10
1111.525301
 20
941.115476
 30
0.0
 10
1111.575301
 20
920.308445
 30
0.0
  0
LWPOLYLINE
  5
1ee
100
AcDbEntity
  8
Layer_1
 62
5
100
AcDbPolyline
 90
13
 70
0
 10
1157.555371
 20
920.308445
 30
0.0
 10
1180.065406
 20
920.699445
 30
0.0
 10
1180.055406
 20
924.151450
 30
0.0
 10
1195.275429
 20
924.529451
 30
0.0
 10
1195.255429
 20
934.624466
 30
0.0
 10
1188.295418
 20
934.530466
 30
0.0
 10
1188.285418
 20
941.692477
 30
0.0
 10
1195.325429
 20
941.787477
 30
0.0
 10
1195.315429
 20
951.796493
 30
0.0
 10
1161.595377
 20
951.007491
 30
0.0
 10
1161.615377
 20
941.168476
 30
0.0
 10
1157.505371
 20
941.115476
 30
0.0
 10
1157.555371
 20
920.308445
 30
0.0
  0
LWPOLYLINE
  5
1ef
100
AcDbEntity
  8
Layer_1
 62
5
100
AcDbPolyline
 90
13
 70
0
 10
892.331966
 20
958.335503
 30
0.0
 10
892.357966
 20
978.190533
 30
0.0
 10
896.943973
 20
978.247533
 30
0.0
 10
896.925973
 20
988.865549
 30
0.0
 10
931.729026
 20
989.304550
 30
0.0
 10
931.743026
 20
978.946534
 30
0.0
 10
924.597015
 20
978.855534
 30
0.0
 10
924.607015
 20
972.209524
 30
0.0
 10
931.581026
 20
972.298524
 30
0.0
 10
931.597026
 20
962.459509
 30
0.0
 10
916.272003
 20
962.262509
 30
0.0
 10
916.278003
 20
958.723503
 30
0.0
 10
892.331966
 20
958.335503
 30
0.0
  0
LWPOLYLINE
  5
1f0
100
AcDbEntity
  8
Layer_1
 62
5
100
AcDbPolyline
 90
13
 70
0
 10
936.288033
 20
958.335503
 30
0.0
 10
936.314033
 20
978.190533
 30
0.0
 10
940.900040
 20
978.247533
 30
0.0
 10
940.882040
 20
988.865549
 30
0.0
 10
975.685093
 20
989.304550
 30
0.0
 10
975.699093
 20
978.946534
 30
0.0
 10
968.553082
 20
978.855534
 30
0.0
 10
968.563082
 20
972.209524
 30
0.0
 10
975.537093
 20
972.298524
 30
0.0
 10
975.553093
 20
962.459509
 30
0.0
 10
960.228070
 20
962.262509
 30
0.0
 10
960.234070
 20
958.723503
 30
0.0
 10
936.288033
 20
958.335503
 30
0.0
  0
LWPOLYLINE
  5
1f1
100
AcDbEntity
  8
Layer_1
 62
5
100
AcDbPolyline
 90
13
 70
0
 10
981.024102
 20
958.335503
 30
0.0
 10
981.050102
 20
978.190533
 30
0.0
 10
985.636109
 20
978.247533
 30
0.0
 10
985.618109
 20
988.865549
 30
0.0
 10
1020.421162
 20
989.304550
 30
0.0
 10
1020.435162
 20
978.946534
 30
0.0
 10
1013.289151
 20
978.855534
 30
0.0
 10
1013.299151
 20
972.209524
 30
0.0
 10
1020.273161
 20
972.298524
 30
0.0
 10
1020.289162
 20
962.459509
 30
0.0
 10
1004.964138
 20
962.262509
 30
0.0
 10
1004.970138
 20
958.723503
 30
0.0
 10
981.024102
 20
958.335503
 30
0.0
  0
LWPOLYLINE
  5
1f2
100
AcDbEntity
  8
Layer_1
 62
5
100
AcDbPolyline
 90
13
 70
0
 10
1025.354169
 20
958.335503
 30
0.0
 10
1025.380169
 20
978.190533
 30
0.0
 10
1029.966176
 20
978.247533
 30
0.0
 10
1029.948176
 20
988.865549
 30
0.0
 10
1064.751229
 20
989.304550
 30
0.0
 10
1064.765229
 20
978.946534
 30
0.0
 10
1057.619219
 20
978.855534
 30
0.0
 10
1057.629219
 20
972.209524
 30
0.0
 10
1064.603229
 20
972.298524
 30
0.0
 10
1064.619229
 20
962.459509
 30
0.0
 10
1049.294206
 20
962.262509
 30
0.0
 10
1049.300206
 20
958.723503
 30
0.0
 10
1025.354169
 20
958.335503
 30
0.0
  0
LWPOLYLINE
  5
1f3
100
AcDbEntity
  8
Layer_1
 62
5
100
AcDbPolyline
 90
13
 70
0
 10
1071.439240
 20
958.335503
 30
0.0
 10
1071.465240
 20
978.190533
 30
0.0
 10
1076.052247
 20
978.247533
 30
0.0
 10
1076.034247
 20
988.865549
 30
0.0
 10
1110.835300
 20
989.304550
 30
0.0
 10
1110.855300
 20
978.946534
 30
0.0
 10
1103.705289
 20
978.855534
 30
0.0
 10
1103.715289
 20
972.209524
 30
0.0
 10
1110.685300
 20
972.298524
 30
0.0
 10
1110.705300
 20
962.459509
 30
0.0
 10
1095.379276
 20
962.262509
 30
0.0
 10
1095.386276
 20
958.723503
 30
0.0
 10
1071.439240
 20
958.335503
 30
0.0
  0
LWPOLYLINE
  5
1f4
100
AcDbEntity
  8
Layer_1
 62
5
100
AcDbPolyline
 90
13
 70
0
 10
1117.265310
 20
958.335503
 30
0.0
 10
1117.295310
 20
978.190533
 30
0.0
 10
1121.885317
 20
978.247533
 30
0.0
 10
1121.865317
 20
988.865549
 30
0.0
 10
1156.665370
 20
989.304550
 30
0.0
 10
1156.675370
 20
978.946534
 30
0.0
 10
1149.535359
 20
978.855534
 30
0.0
 10
1149.545359
 20
972.209524
 30
0.0
 10
1156.515370
 20
972.298524
 30
0.0
 10
1156.535370
 20
962.459509
 30
0.0
 10
1141.205346
 20
962.262509
 30
0.0
 10
1141.215346
 20
958.723503
 30
0.0
 10
1117.265310
 20
958.335503
 30
0.0
  0
LWPOLYLINE
  5
1f5
100
AcDbEntity
  8
Layer_1
 62
5
100
AcDbPolyline
 90
13
 70
0
 10
1163.615380
 20
958.335503
 30
0.0
 10
1163.645381
 20
978.190533
 30
0.0
 10
1168.225388
 20
978.247533
 30
0.0
 10
1168.215388
 20
988.865549
 30
0.0
 10
1203.015441
 20
989.304550
 30
0.0
 10
1203.025441
 20
978.946534
 30
0.0
 10
1195.885430
 20
978.855534
 30
0.0
 10
1195.895430
 20
972.209524
 30
0.0
 10
1202.865440
 20
972.298524
 30
0.0
 10
1202.885440
 20
962.459509
 30
0.0
 10
1187.555417
 20
962.262509
 30
0.0
 10
1187.565417
 20
958.723503
 30
0.0
 10
1163.615380
 20
958.335503
 30
0.0
  0
LWPOLYLINE
  5
1f6
100
AcDbEntity
  8
Layer_1
 62
5
100
AcDbPolyline
 90
13
 70
0
 10
1211.655454
 20
958.335503
 30
0.0
 10
1211.675454
 20
978.190533
 30
0.0
 10
1216.265461
 20
978.247533
 30
0.0
 10
1216.245461
 20
988.865549
 30
0.0
 10
1251.045514
 20
989.304550
 30
0.0
 10
1251.065514
 20
978.946534
 30
0.0
 10
1243.915503
 20
978.855534
 30
0.0
 10
1243.925503
 20
972.209524
 30
0.0
 10
1250.905514
 20
972.298524
 30
0.0
 10
1250.915514
 20
962.459509
 30
0.0
 10
1235.595490
 20
962.262509
 30
0.0
 10
1235.595490
 20
958.723503
 30
0.0
 10
1211.655454
 20
958.335503
 30
0.0
  0
LWPOLYLINE
  5
1f7
100
AcDbEntity
  8
Layer_1
 62
5
100
AcDbPolyline
 90
5
 70
0
 10
1029.495176
 20
1197.114567
 30
0.0
 10
1064.360229
 20
1197.526068
 30
0.0
 10
1064.318229
 20
1218.054499
 30
0.0
 10
1029.447176
 20
1217.642399
 30
0.0
 10
1029.495176
 20
1197.114567
 30
0.0
  0
LWPOLYLINE
  5
1f8
100
AcDbEntity
  8
Layer_1
 62
5
100
AcDbPolyline
 90
5
 70
0
 10
1073.081242
 20
1197.114567
 30
0.0
 10
1107.945295
 20
1197.526068
 30
0.0
 10
1107.905295
 20
1218.054499
 30
0.0
 10
1073.033242
 20
1217.642399
 30
0.0
 10
1073.081242
 20
1197.114567
 30
0.0
  0
LWPOLYLINE
  5
1f9
100
AcDbEntity
  8
Layer_1
 62
5
100
AcDbPolyline
 90
5
 70
0
 10
1113.925305
 20
1197.114567
 30
0.0
 10
1148.785358
 20
1197.526068
 30
0.0
 10
1148.745358
 20
1218.054499
 30
0.0
 10
1113.875304
 20
1217.642399
 30
0.0
 10
1113.925305
 20
1197.114567
 30
0.0
  0
LWPOLYLINE
  5
1fa
100
AcDbEntity
  8
Layer_1
 62
5
100
AcDbPolyline
 90
5
 70
0
 10
1154.655367
 20
1197.627568
 30
0.0
 10
1189.525420
 20
1198.039069
 30
0.0
 10
1189.475420
 20
1218.567500
 30
0.0
 10
1154.605367
 20
1218.155400
 30
0.0
 10
1154.655367
 20
1197.627568
 30
0.0
  0
LWPOLYLINE
  5
1fb
100
AcDbEntity
  8
Layer_1
 62
5
100
AcDbPolyline
 90
5
 70
0
 10
1196.305430
 20
1197.627568
 30
0.0
 10
1231.175484
 20
1198.039069
 30
0.0
 10
1231.125484
 20
1218.567500
 30
0.0
 10
1196.255430
 20
1218.155400
 30
0.0
 10
1196.305430
 20
1197.627568
 30
0.0
  0
LWPOLYLINE
  5
1fc
100
AcDbEntity
  8
Layer_1
 62
5
100
AcDbPolyline
 90
13
 70
0
 10
892.272966
 20
1016.368591
 30
0.0
 10
892.421966
 20
995.195559
 30
0.0
 10
915.713002
 20
995.396559
 30
0.0
 10
915.704002
 20
999.045565
 30
0.0
 10
930.454024
 20
999.447565
 30
0.0
 10
930.430024
 20
1009.653581
 30
0.0
 10
923.085013
 20
1009.568581
 30
0.0
 10
923.069013
 20
1016.678592
 30
0.0
 10
930.988025
 20
1016.770592
 30
0.0
 10
930.966025
 20
1027.321608
 30
0.0
 10
896.878973
 20
1026.897607
 30
0.0
 10
896.821973
 20
1016.502592
 30
0.0
 10
892.272966
 20
1016.368591
 30
0.0
  0
LWPOLYLINE
  5
1fd
100
AcDbEntity
  8
Layer_1
 62
5
100
AcDbPolyline
 90
13
 70
0
 10
935.201032
 20
1016.368591
 30
0.0
 10
935.350032
 20
995.195559
 30
0.0
 10
958.641067
 20
995.396559
 30
0.0
 10
958.632067
 20
999.045565
 30
0.0
 10
973.382090
 20
999.447565
 30
0.0
 10
973.358090
 20
1009.653581
 30
0.0
 10
966.013079
 20
1009.568581
 30
0.0
 10
965.997079
 20
1016.678592
 30
0.0
 10
973.916091
 20
1016.770592
 30
0.0
 10
973.894091
 20
1027.321608
 30
0.0
 10
939.807039
 20
1026.897607
 30
0.0
 10
939.750038
 20
1016.502592
 30
0.0
 10
935.201032
 20
1016.368591
 30
0.0
  0
LWPOLYLINE
  5
1fe
100
AcDbEntity
  8
Layer_1
 62
5
100
AcDbPolyline
 90
13
 70
0
 10
978.635098
 20
1016.368591
 30
0.0
 10
978.784098
 20
995.195559
 30
0.0
 10
1002.075134
 20
995.396559
 30
0.0
 10
1002.066134
 20
999.045565
 30
0.0
 10
1016.816156
 20
999.447565
 30
0.0
 10
1016.792156
 20
1009.653581
 30
0.0
 10
1009.447145
 20
1009.568581
 30
0.0
 10
1009.431145
 20
1016.678592
 30
0.0
 10
1017.350157
 20
1016.770592
 30
0.0
 10
1017.328157
 20
1027.321608
 30
0.0
 10
983.241105
 20
1026.897607
 30
0.0
 10
983.184105
 20
1016.502592
 30
0.0
 10
978.635098
 20
1016.368591
 30
0.0
  0
LWPOLYLINE
  5
1ff
100
AcDbEntity
  8
Layer_1
 62
5
100
AcDbPolyline
 90
13
 70
0
 10
1021.999164
 20
1016.368591
 30
0.0
 10
1022.148164
 20
995.195559
 30
0.0
 10
1045.439200
 20
995.396559
 30
0.0
 10
1045.430200
 20
999.045565
 30
0.0
 10
1060.180222
 20
999.447565
 30
0.0
 10
1060.156222
 20
1009.653581
 30
0.0
 10
1052.811211
 20
1009.568581
 30
0.0
 10
1052.795211
 20
1016.678592
 30
0.0
 10
1060.714223
 20
1016.770592
 30
0.0
 10
1060.692223
 20
1027.321608
 30
0.0
 10
1026.605171
 20
1026.897607
 30
0.0
 10
1026.548171
 20
1016.502592
 30
0.0
 10
1021.999164
 20
1016.368591
 30
0.0
  0
LWPOLYLINE
  5
200
100
AcDbEntity
  8
Layer_1
 62
5
100
AcDbPolyline
 90
13
 70
0
 10
1067.999234
 20
1016.368591
 30
0.0
 10
1068.148235
 20
995.195559
 30
0.0
 10
1091.439270
 20
995.396559
 30
0.0
 10
1091.430270
 20
999.045565
 30
0.0
 10
1106.175293
 20
999.447565
 30
0.0
 10
1106.155293
 20
1009.653581
 30
0.0
 10
1098.811281
 20
1009.568581
 30
0.0
 10
1098.795281
 20
1016.678592
 30
0.0
 10
1106.715294
 20
1016.770592
 30
0.0
 10
1106.695294
 20
1027.321608
 30
0.0
 10
1072.605241
 20
1026.897607
 30
0.0
 10
1072.548241
 20
1016.502592
 30
0.0
 10
1067.999234
 20
1016.368591
 30
0.0
  0
LWPOLYLINE
  5
201
100
AcDbEntity
  8
Layer_1
 62
5
100
AcDbPolyline
 90
13
 70
0
 10
1112.825303
 20
1016.368591
 30
0.0
 10
1112.975303
 20
995.195559
 30
0.0
 10
1136.265339
 20
995.396559
 30
0.0
 10
1136.255339
 20
999.045565
 30
0.0
 10
1151.005361
 20
999.447565
 30
0.0
 10
1150.985361
 20
1009.653581
 30
0.0
 10
1143.635350
 20
1009.568581
 30
0.0
 10
1143.625350
 20
1016.678592
 30
0.0
 10
1151.545362
 20
1016.770592
 30
0.0
 10
1151.515362
 20
1027.321608
 30
0.0
 10
1117.435310
 20
1026.897607
 30
0.0
 10
1117.375310
 20
1016.502592
 30
0.0
 10
1112.825303
 20
1016.368591
 30
0.0
  0
LWPOLYLINE
  5
202
100
AcDbEntity
  8
Layer_1
 62
5
100
AcDbPolyline
 90
13
 70
0
 10
1157.095371
 20
1016.368591
 30
0.0
 10
1157.245371
 20
995.195559
 30
0.0
 10
1180.535406
 20
995.396559
 30
0.0
 10
1180.525406
 20
999.045565
 30
0.0
 10
1195.275429
 20
999.447565
 30
0.0
 10
1195.255429
 20
1009.653581
 30
0.0
 10
1187.905418
 20
1009.568581
 30
0.0
 10
1187.895418
 20
1016.678592
 30
0.0
 10
1195.815430
 20
1016.770592
 30
0.0
 10
1195.785430
 20
1027.321608
 30
0.0
 10
1161.705378
 20
1026.897607
 30
0.0
 10
1161.645377
 20
1016.502592
 30
0.0
 10
1157.095371
 20
1016.368591
 30
0.0
  0
LWPOLYLINE
  5
203
100
AcDbEntity
  8
Layer_1
 62
5
100
AcDbPolyline
 90
13
 70
0
 10
892.402966
 20
1034.435619
 30
0.0
 10
915.960002
 20
1034.967620
 30
0.0
 10
915.950002
 20
1038.689625
 30
0.0
 10
931.135025
 20
1038.860626
 30
0.0
 10
931.111025
 20
1048.936641
 30
0.0
 10
924.564015
 20
1048.861641
 30
0.0
 10
924.546015
 20
1056.123652
 30
0.0
 10
931.184025
 20
1056.198652
 30
0.0
 10
931.160025
 20
1066.637668
 30
0.0
 10
896.776973
 20
1065.795667
 30
0.0
 10
896.804973
 20
1054.995650
 30
0.0
 10
892.710967
 20
1054.950650
 30
0.0
 10
892.402966
 20
1034.435619
 30
0.0
  0
LWPOLYLINE
  5
204
100
AcDbEntity
  8
Layer_1
 62
5
100
AcDbPolyline
 90
13
 70
0
 10
935.201032
 20
1034.435619
 30
0.0
 10
958.758068
 20
1034.967620
 30
0.0
 10
958.748067
 20
1038.689625
 30
0.0
 10
973.933091
 20
1038.860626
 30
0.0
 10
973.909091
 20
1048.936641
 30
0.0
 10
967.362081
 20
1048.861641
 30
0.0
 10
967.344081
 20
1056.123652
 30
0.0
 10
973.982091
 20
1056.198652
 30
0.0
 10
973.958091
 20
1066.637668
 30
0.0
 10
939.575038
 20
1065.795667
 30
0.0
 10
939.603038
 20
1054.995650
 30
0.0
 10
935.509032
 20
1054.950650
 30
0.0
 10
935.201032
 20
1034.435619
 30
0.0
  0
LWPOLYLINE
  5
205
100
AcDbEntity
  8
Layer_1
 62
5
100
AcDbPolyline
 90
13
 70
0
 10
978.635098
 20
1034.435619
 30
0.0
 10
1002.192134
 20
1034.967620
 30
0.0
 10
1002.182134
 20
1038.689625
 30
0.0
 10
1017.367157
 20
1038.860626
 30
0.0
 10
1017.343157
 20
1048.936641
 30
0.0
 10
1010.796147
 20
1048.861641
 30
0.0
 10
1010.778147
 20
1056.123652
 30
0.0
 10
1017.416157
 20
1056.198652
 30
0.0
 10
1017.392157
 20
1066.637668
 30
0.0
 10
983.009105
 20
1065.795667
 30
0.0
 10
983.037105
 20
1054.995650
 30
0.0
 10
978.943098
 20
1054.950650
 30
0.0
 10
978.635098
 20
1034.435619
 30
0.0
  0
LWPOLYLINE
  5
206
100
AcDbEntity
  8
Layer_1
 62
5
100
AcDbPolyline
 90
13
 70
0
 10
1021.999164
 20
1034.435619
 30
0.0
 10
1045.556200
 20
1034.967620
 30
0.0
 10
1045.546200
 20
1038.689625
 30
0.0
 10
1060.731223
 20
1038.860626
 30
0.0
 10
1060.706223
 20
1048.936641
 30
0.0
 10
1054.159213
 20
1048.861641
 30
0.0
 10
1054.142213
 20
1056.123652
 30
0.0
 10
1060.780223
 20
1056.198652
 30
0.0
 10
1060.756223
 20
1066.637668
 30
0.0
 10
1026.372171
 20
1065.795667
 30
0.0
 10
1026.401171
 20
1054.995650
 30
0.0
 10
1022.307165
 20
1054.950650
 30
0.0
 10
1021.999164
 20
1034.435619
 30
0.0
  0
LWPOLYLINE
  5
207
100
AcDbEntity
  8
Layer_1
 62
5
100
AcDbPolyline
 90
13
 70
0
 10
1067.999234
 20
1034.435619
 30
0.0
 10
1091.556270
 20
1034.967620
 30
0.0
 10
1091.546270
 20
1038.689625
 30
0.0
 10
1106.735294
 20
1038.860626
 30
0.0
 10
1106.705294
 20
1048.936641
 30
0.0
 10
1100.160284
 20
1048.861641
 30
0.0
 10
1100.142284
 20
1056.123652
 30
0.0
 10
1106.785294
 20
1056.198652
 30
0.0
 10
1106.755294
 20
1066.637668
 30
0.0
 10
1072.373241
 20
1065.795667
 30
0.0
 10
1072.401241
 20
1054.995650
 30
0.0
 10
1068.307235
 20
1054.950650
 30
0.0
 10
1067.999234
 20
1034.435619
 30
0.0
  0
LWPOLYLINE
  5
208
100
AcDbEntity
  8
Layer_1
 62
5
100
AcDbPolyline
 90
13
 70
0
 10
1112.825303
 20
1034.435619
 30
0.0
 10
1136.385339
 20
1034.967620
 30
0.0
 10
1136.375339
 20
1038.689625
 30
0.0
 10
1151.555362
 20
1038.860626
 30
0.0
 10
1151.535362
 20
1048.936641
 30
0.0
 10
1144.985352
 20
1048.861641
 30
0.0
 10
1144.975352
 20
1056.123652
 30
0.0
 10
1151.605362
 20
1056.198652
 30
0.0
 10
1151.585362
 20
1066.637668
 30
0.0
 10
1117.205310
 20
1065.795667
 30
0.0
 10
1117.225310
 20
1054.995650
 30
0.0
 10
1113.135303
 20
1054.950650
 30
0.0
 10
1112.825303
 20
1034.435619
 30
0.0
  0
LWPOLYLINE
  5
209
100
AcDbEntity
  8
Layer_1
 62
5
100
AcDbPolyline
 90
13
 70
0
 10
1157.095371
 20
1034.435619
 30
0.0
 10
1180.655407
 20
1034.967620
 30
0.0
 10
1180.645406
 20
1038.689625
 30
0.0
 10
1195.825430
 20
1038.860626
 30
0.0
 10
1195.805430
 20
1048.936641
 30
0.0
 10
1189.255420
 20
1048.861641
 30
0.0
 10
1189.235420
 20
1056.123652
 30
0.0
 10
1195.875430
 20
1056.198652
 30
0.0
 10
1195.855430
 20
1066.637668
 30
0.0
 10
1161.475377
 20
1065.795667
 30
0.0
 10
1161.495377
 20
1054.995650
 30
0.0
 10
1157.405371
 20
1054.950650
 30
0.0
 10
1157.095371
 20
1034.435619
 30
0.0
  0
LWPOLYLINE
  5
20a
100
AcDbEntity
  8
Layer_1
 62
5
100
AcDbPolyline
 90
13
 70
0
 10
1200.905437
 20
1034.435619
 30
0.0
 10
1224.465473
 20
1034.967620
 30
0.0
 10
1224.455473
 20
1038.689625
 30
0.0
 10
1239.645497
 20
1038.860626
 30
0.0
 10
1239.615497
 20
1048.936641
 30
0.0
 10
1233.065487
 20
1048.861641
 30
0.0
 10
1233.055487
 20
1056.123652
 30
0.0
 10
1239.685497
 20
1056.198652
 30
0.0
 10
1239.665497
 20
1066.637668
 30
0.0
 10
1205.285444
 20
1065.795667
 30
0.0
 10
1205.315444
 20
1054.995650
 30
0.0
 10
1201.215438
 20
1054.950650
 30
0.0
 10
1200.905437
 20
1034.435619
 30
0.0
  0
LWPOLYLINE
  5
20b
100
AcDbEntity
  8
Layer_1
 62
5
100
AcDbPolyline
 90
13
 70
0
 10
1199.565435
 20
997.437562
 30
0.0
 10
1223.125471
 20
997.969563
 30
0.0
 10
1223.115471
 20
1001.691569
 30
0.0
 10
1238.305495
 20
1001.862569
 30
0.0
 10
1238.275495
 20
1011.938585
 30
0.0
 10
1231.725485
 20
1011.863584
 30
0.0
 10
1231.715485
 20
1019.125596
 30
0.0
 10
1238.345495
 20
1019.200596
 30
0.0
 10
1238.325495
 20
1029.639612
 30
0.0
 10
1203.945442
 20
1028.797610
 30
0.0
 10
1203.965442
 20
1017.997594
 30
0.0
 10
1199.875436
 20
1017.952594
 30
0.0
 10
1199.565435
 20
997.437562
 30
0.0
  0
LWPOLYLINE
  5
20c
100
AcDbEntity
  8
Layer_1
 62
5
100
AcDbPolyline
 90
13
 70
0
 10
1209.595451
 20
922.133447
 30
0.0
 10
1209.625451
 20
941.988478
 30
0.0
 10
1214.215458
 20
942.045478
 30
0.0
 10
1214.195458
 20
952.663494
 30
0.0
 10
1248.995511
 20
953.102495
 30
0.0
 10
1249.015511
 20
942.744479
 30
0.0
 10
1241.865500
 20
942.653479
 30
0.0
 10
1241.875500
 20
936.007469
 30
0.0
 10
1248.845511
 20
936.096469
 30
0.0
 10
1248.865511
 20
926.257454
 30
0.0
 10
1233.535487
 20
926.060453
 30
0.0
 10
1233.545487
 20
922.521448
 30
0.0
 10
1209.595451
 20
922.133447
 30
0.0
  0
LWPOLYLINE
  5
20d
100
AcDbEntity
  8
Layer_1
 62
5
100
AcDbPolyline
 90
7
 70
0
 10
1102.475287
 20
1112.182738
 30
0.0
 10
1102.885288
 20
1073.582679
 30
0.0
 10
1083.825259
 20
1073.515679
 30
0.0
 10
1083.416258
 20
1112.120738
 30
0.0
 10
1082.881257
 20
1168.392524
 30
0.0
 10
1102.045286
 20
1168.449224
 30
0.0
 10
1102.475287
 20
1112.182738
 30
0.0
  0
LWPOLYLINE
  5
20e
100
AcDbEntity
  8
Layer_1
 62
5
100
AcDbPolyline
 90
7
 70
0
 10
1055.172215
 20
1112.633738
 30
0.0
 10
1055.581215
 20
1074.032679
 30
0.0
 10
1036.517186
 20
1073.966679
 30
0.0
 10
1036.108186
 20
1112.570738
 30
0.0
 10
1035.573185
 20
1168.843324
 30
0.0
 10
1054.738214
 20
1168.900024
 30
0.0
 10
1055.172215
 20
1112.633738
 30
0.0
  0
LWPOLYLINE
  5
20f
100
AcDbEntity
  8
Layer_1
 62
5
100
AcDbPolyline
 90
7
 70
0
 10
1078.095250
 20
1112.436738
 30
0.0
 10
1078.504250
 20
1073.836679
 30
0.0
 10
1059.441221
 20
1073.769679
 30
0.0
 10
1059.032221
 20
1112.374738
 30
0.0
 10
1058.497220
 20
1168.646524
 30
0.0
 10
1077.661249
 20
1168.703224
 30
0.0
 10
1078.095250
 20
1112.436738
 30
0.0
  0
LWPOLYLINE
  5
210
100
AcDbEntity
  8
Layer_1
 62
5
100
AcDbPolyline
 90
7
 70
0
 10
1107.255294
 20
1129.526764
 30
0.0
 10
1106.845294
 20
1168.126823
 30
0.0
 10
1125.915323
 20
1168.193423
 30
0.0
 10
1126.325324
 20
1129.588764
 30
0.0
 10
1126.855324
 20
1073.316678
 30
0.0
 10
1107.695295
 20
1073.259678
 30
0.0
 10
1107.255294
 20
1129.526764
 30
0.0
  0
LWPOLYLINE
  5
211
100
AcDbEntity
  8
Layer_1
 62
5
100
AcDbPolyline
 90
7
 70
0
 10
1135.055337
 20
1129.526764
 30
0.0
 10
1134.645336
 20
1168.126823
 30
0.0
 10
1153.715365
 20
1168.193423
 30
0.0
 10
1154.115366
 20
1129.588764
 30
0.0
 10
1154.655367
 20
1073.316678
 30
0.0
 10
1135.485338
 20
1073.259678
 30
0.0
 10
1135.055337
 20
1129.526764
 30
0.0
  0
LWPOLYLINE
  5
212
100
AcDbEntity
  8
Layer_1
 62
5
100
AcDbPolyline
 90
19
 70
0
 10
827.455867
 20
1218.420800
 30
0.0
 10
827.527867
 20
1212.147390
 30
0.0
 10
831.020872
 20
1212.157290
 30
0.0
 10
831.284873
 20
1189.489656
 30
0.0
 10
830.015871
 20
1190.740358
 30
0.0
 10
824.790863
 20
1185.620650
 30
0.0
 10
826.879866
 20
1183.207946
 30
0.0
 10
822.717860
 20
1179.166740
 30
0.0
 10
820.722857
 20
1181.221143
 30
0.0
 10
814.603847
 20
1176.010535
 30
0.0
 10
816.427850
 20
1173.239831
 30
0.0
 10
787.854806
 20
1173.157231
 30
0.0
 10
787.599806
 20
1194.647564
 30
0.0
 10
805.515833
 20
1194.702264
 30
0.0
 10
807.420836
 20
1192.647661
 30
0.0
 10
812.785844
 20
1198.106969
 30
0.0
 10
809.470839
 20
1201.163774
 30
0.0
 10
809.271839
 20
1218.367200
 30
0.0
 10
827.455867
 20
1218.420800
 30
0.0
  0
LWPOLYLINE
  5
213
100
AcDbEntity
  8
Layer_1
 62
5
100
AcDbPolyline
 90
19
 70
0
 10
875.503940
 20
1218.420800
 30
0.0
 10
875.575940
 20
1212.147390
 30
0.0
 10
879.068946
 20
1212.157290
 30
0.0
 10
879.332946
 20
1189.489656
 30
0.0
 10
878.063944
 20
1190.740358
 30
0.0
 10
872.838936
 20
1185.620650
 30
0.0
 10
874.927939
 20
1183.207946
 30
0.0
 10
870.765933
 20
1179.166740
 30
0.0
 10
868.770930
 20
1181.221143
 30
0.0
 10
862.651921
 20
1176.010535
 30
0.0
 10
864.476923
 20
1173.239831
 30
0.0
 10
835.902880
 20
1173.157231
 30
0.0
 10
835.648879
 20
1194.647564
 30
0.0
 10
853.563907
 20
1194.702264
 30
0.0
 10
855.468910
 20
1192.647661
 30
0.0
 10
860.834918
 20
1198.106969
 30
0.0
 10
857.518913
 20
1201.163774
 30
0.0
 10
857.320913
 20
1218.367200
 30
0.0
 10
875.503940
 20
1218.420800
 30
0.0
  0
LWPOLYLINE
  5
214
100
AcDbEntity
  8
Layer_1
 62
5
100
AcDbPolyline
 90
19
 70
0
 10
922.917013
 20
1218.420800
 30
0.0
 10
922.989013
 20
1212.147390
 30
0.0
 10
926.483018
 20
1212.157290
 30
0.0
 10
926.746019
 20
1189.489656
 30
0.0
 10
925.478017
 20
1190.740358
 30
0.0
 10
920.253009
 20
1185.620650
 30
0.0
 10
922.341012
 20
1183.207946
 30
0.0
 10
918.179006
 20
1179.166740
 30
0.0
 10
916.184002
 20
1181.221143
 30
0.0
 10
910.064993
 20
1176.010535
 30
0.0
 10
911.889996
 20
1173.239831
 30
0.0
 10
883.315952
 20
1173.157231
 30
0.0
 10
883.061952
 20
1194.647564
 30
0.0
 10
900.976979
 20
1194.702264
 30
0.0
 10
902.881982
 20
1192.647661
 30
0.0
 10
908.247990
 20
1198.106969
 30
0.0
 10
904.932985
 20
1201.163774
 30
0.0
 10
904.733985
 20
1218.367200
 30
0.0
 10
922.917013
 20
1218.420800
 30
0.0
  0
LWPOLYLINE
  5
215
100
AcDbEntity
  8
Layer_1
 62
5
100
AcDbPolyline
 90
19
 70
0
 10
969.780084
 20
1218.420800
 30
0.0
 10
969.852084
 20
1212.147390
 30
0.0
 10
973.345090
 20
1212.157290
 30
0.0
 10
973.609090
 20
1189.489656
 30
0.0
 10
972.340088
 20
1190.740358
 30
0.0
 10
967.115080
 20
1185.620650
 30
0.0
 10
969.204083
 20
1183.207946
 30
0.0
 10
965.042077
 20
1179.166740
 30
0.0
 10
963.047074
 20
1181.221143
 30
0.0
 10
956.928065
 20
1176.010535
 30
0.0
 10
958.752067
 20
1173.239831
 30
0.0
 10
930.179024
 20
1173.157231
 30
0.0
 10
929.924023
 20
1194.647564
 30
0.0
 10
947.840051
 20
1194.702264
 30
0.0
 10
949.745054
 20
1192.647661
 30
0.0
 10
955.110062
 20
1198.106969
 30
0.0
 10
951.795057
 20
1201.163774
 30
0.0
 10
951.597057
 20
1218.367200
 30
0.0
 10
969.780084
 20
1218.420800
 30
0.0
  0
LWPOLYLINE
  5
216
100
AcDbEntity
  8
Layer_1
 62
5
100
AcDbPolyline
 90
19
 70
0
 10
1017.196157
 20
1218.420800
 30
0.0
 10
1017.268157
 20
1212.147390
 30
0.0
 10
1020.762162
 20
1212.157290
 30
0.0
 10
1021.025163
 20
1189.489656
 30
0.0
 10
1019.757161
 20
1190.740358
 30
0.0
 10
1014.532153
 20
1185.620650
 30
0.0
 10
1016.621156
 20
1183.207946
 30
0.0
 10
1012.458150
 20
1179.166740
 30
0.0
 10
1010.463146
 20
1181.221143
 30
0.0
 10
1004.345137
 20
1176.010535
 30
0.0
 10
1006.169140
 20
1173.239831
 30
0.0
 10
977.596096
 20
1173.157231
 30
0.0
 10
977.341096
 20
1194.647564
 30
0.0
 10
995.256123
 20
1194.702264
 30
0.0
 10
997.161126
 20
1192.647661
 30
0.0
 10
1002.527134
 20
1198.106969
 30
0.0
 10
999.212129
 20
1201.163774
 30
0.0
 10
999.013129
 20
1218.367200
 30
0.0
 10
1017.196157
 20
1218.420800
 30
0.0
  0
LWPOLYLINE
  5
217
100
AcDbEntity
  8
Layer_1
 62
5
100
AcDbPolyline
 90
21
 70
0
 10
798.394823
 20
1166.440821
 30
0.0
 10
800.732826
 20
1163.865817
 30
0.0
 10
797.171821
 20
1160.533812
 30
0.0
 10
794.844817
 20
1162.184814
 30
0.0
 10
791.285812
 20
1158.759809
 30
0.0
 10
793.272815
 20
1157.106806
 30
0.0
 10
788.323807
 20
1151.648798
 30
0.0
 10
785.530803
 20
1153.574801
 30
0.0
 10
785.813803
 20
1130.068765
 30
0.0
 10
788.859808
 20
1130.079765
 30
0.0
 10
788.938808
 20
1123.628755
 30
0.0
 10
808.413838
 20
1123.695755
 30
0.0
 10
808.206837
 20
1140.746781
 30
0.0
 10
805.584833
 20
1143.872786
 30
0.0
 10
809.505839
 20
1147.849792
 30
0.0
 10
812.027843
 20
1145.276788
 30
0.0
 10
829.927871
 20
1145.426788
 30
0.0
 10
829.724870
 20
1162.578815
 30
0.0
 10
823.723861
 20
1162.836815
 30
0.0
 10
823.680861
 20
1166.525821
 30
0.0
 10
798.394823
 20
1166.440821
 30
0.0
  0
LWPOLYLINE
  5
218
100
AcDbEntity
  8
Layer_1
 62
5
100
AcDbPolyline
 90
21
 70
0
 10
848.002898
 20
1166.440821
 30
0.0
 10
850.340902
 20
1163.865817
 30
0.0
 10
846.779896
 20
1160.533812
 30
0.0
 10
844.452893
 20
1162.184814
 30
0.0
 10
840.893887
 20
1158.759809
 30
0.0
 10
842.880890
 20
1157.106806
 30
0.0
 10
837.931883
 20
1151.648798
 30
0.0
 10
835.139879
 20
1153.574801
 30
0.0
 10
835.421879
 20
1130.068765
 30
0.0
 10
838.468884
 20
1130.079765
 30
0.0
 10
838.546884
 20
1123.628755
 30
0.0
 10
858.021914
 20
1123.695755
 30
0.0
 10
857.814913
 20
1140.746781
 30
0.0
 10
855.192909
 20
1143.872786
 30
0.0
 10
859.113915
 20
1147.849792
 30
0.0
 10
861.636919
 20
1145.276788
 30
0.0
 10
879.535946
 20
1145.426788
 30
0.0
 10
879.332946
 20
1162.578815
 30
0.0
 10
873.331937
 20
1162.836815
 30
0.0
 10
873.288937
 20
1166.525821
 30
0.0
 10
848.002898
 20
1166.440821
 30
0.0
  0
LWPOLYLINE
  5
219
100
AcDbEntity
  8
Layer_1
 62
5
100
AcDbPolyline
 90
21
 70
0
 10
896.235972
 20
1166.440821
 30
0.0
 10
898.572976
 20
1163.865817
 30
0.0
 10
895.012970
 20
1160.533812
 30
0.0
 10
892.685967
 20
1162.184814
 30
0.0
 10
889.125961
 20
1158.759809
 30
0.0
 10
891.113964
 20
1157.106806
 30
0.0
 10
886.164957
 20
1151.648798
 30
0.0
 10
883.371952
 20
1153.574801
 30
0.0
 10
883.654953
 20
1130.068765
 30
0.0
 10
886.700957
 20
1130.079765
 30
0.0
 10
886.779958
 20
1123.628755
 30
0.0
 10
906.254987
 20
1123.695755
 30
0.0
 10
906.047987
 20
1140.746781
 30
0.0
 10
903.425983
 20
1143.872786
 30
0.0
 10
907.346989
 20
1147.849792
 30
0.0
 10
909.868993
 20
1145.276788
 30
0.0
 10
927.769020
 20
1145.426788
 30
0.0
 10
927.566020
 20
1162.578815
 30
0.0
 10
921.565011
 20
1162.836815
 30
0.0
 10
921.522011
 20
1166.525821
 30
0.0
 10
896.235972
 20
1166.440821
 30
0.0
  0
LWPOLYLINE
  5
21a
100
AcDbEntity
  8
Layer_1
 62
5
100
AcDbPolyline
 90
21
 70
0
 10
943.035043
 20
1166.440821
 30
0.0
 10
945.373047
 20
1163.865817
 30
0.0
 10
941.812042
 20
1160.533812
 30
0.0
 10
939.485038
 20
1162.184814
 30
0.0
 10
935.926033
 20
1158.759809
 30
0.0
 10
937.913036
 20
1157.106806
 30
0.0
 10
932.964028
 20
1151.648798
 30
0.0
 10
930.172024
 20
1153.574801
 30
0.0
 10
930.454024
 20
1130.068765
 30
0.0
 10
933.501029
 20
1130.079765
 30
0.0
 10
933.579029
 20
1123.628755
 30
0.0
 10
953.054059
 20
1123.695755
 30
0.0
 10
952.847058
 20
1140.746781
 30
0.0
 10
950.225054
 20
1143.872786
 30
0.0
 10
954.146060
 20
1147.849792
 30
0.0
 10
956.669064
 20
1145.276788
 30
0.0
 10
974.569092
 20
1145.426788
 30
0.0
 10
974.365091
 20
1162.578815
 30
0.0
 10
968.364082
 20
1162.836815
 30
0.0
 10
968.321082
 20
1166.525821
 30
0.0
 10
943.035043
 20
1166.440821
 30
0.0
  0
LWPOLYLINE
  5
21b
100
AcDbEntity
  8
Layer_1
 62
5
100
AcDbPolyline
 90
21
 70
0
 10
991.041117
 20
1166.440821
 30
0.0
 10
993.379120
 20
1163.865817
 30
0.0
 10
989.818115
 20
1160.533812
 30
0.0
 10
987.491111
 20
1162.184814
 30
0.0
 10
983.932106
 20
1158.759809
 30
0.0
 10
985.919109
 20
1157.106806
 30
0.0
 10
980.970101
 20
1151.648798
 30
0.0
 10
978.178097
 20
1153.574801
 30
0.0
 10
978.460098
 20
1130.068765
 30
0.0
 10
981.507102
 20
1130.079765
 30
0.0
 10
981.585102
 20
1123.628755
 30
0.0
 10
1001.060132
 20
1123.695755
 30
0.0
 10
1000.853132
 20
1140.746781
 30
0.0
 10
998.231128
 20
1143.872786
 30
0.0
 10
1002.152134
 20
1147.849792
 30
0.0
 10
1004.675138
 20
1145.276788
 30
0.0
 10
1022.575165
 20
1145.426788
 30
0.0
 10
1022.371165
 20
1162.578815
 30
0.0
 10
1016.370156
 20
1162.836815
 30
0.0
 10
1016.327155
 20
1166.525821
 30
0.0
 10
991.041117
 20
1166.440821
 30
0.0
  0
LWPOLYLINE
  5
21c
100
AcDbEntity
  8
Layer_1
 62
5
100
AcDbPolyline
 90
7
 70
0
 10
847.691898
 20
926.225454
 30
0.0
 10
792.822814
 20
926.201454
 30
0.0
 10
792.911814
 20
946.919485
 30
0.0
 10
847.781898
 20
946.942485
 30
0.0
 10
886.004956
 20
946.919485
 30
0.0
 10
885.793956
 20
926.201454
 30
0.0
 10
847.691898
 20
926.225454
 30
0.0
  0
LWPOLYLINE
  5
21d
100
AcDbEntity
  8
Layer_1
 62
5
100
AcDbPolyline
 90
7
 70
0
 10
847.927898
 20
956.492500
 30
0.0
 10
793.058814
 20
956.468500
 30
0.0
 10
793.147814
 20
977.186531
 30
0.0
 10
848.017898
 20
977.209532
 30
0.0
 10
886.240957
 20
977.186531
 30
0.0
 10
886.029956
 20
956.468500
 30
0.0
 10
847.927898
 20
956.492500
 30
0.0
  0
LWPOLYLINE
  5
21e
100
AcDbEntity
  8
Layer_1
 62
5
100
AcDbPolyline
 90
7
 70
0
 10
848.163899
 20
986.759546
 30
0.0
 10
793.294815
 20
986.736546
 30
0.0
 10
793.383815
 20
1007.453578
 30
0.0
 10
848.253899
 20
1007.477578
 30
0.0
 10
886.476957
 20
1007.453578
 30
0.0
 10
886.265957
 20
986.736546
 30
0.0
 10
848.163899
 20
986.759546
 30
0.0
  0
LWPOLYLINE
  5
21f
100
AcDbEntity
  8
Layer_1
 62
5
100
AcDbPolyline
 90
7
 70
0
 10
848.374899
 20
1013.806587
 30
0.0
 10
793.505815
 20
1013.783587
 30
0.0
 10
793.594815
 20
1034.500619
 30
0.0
 10
848.464899
 20
1034.523619
 30
0.0
 10
886.686957
 20
1034.500619
 30
0.0
 10
886.476957
 20
1013.783587
 30
0.0
 10
848.374899
 20
1013.806587
 30
0.0
  0
LWPOLYLINE
  5
220
100
AcDbEntity
  8
Layer_1
 62
5
100
AcDbPolyline
 90
7
 70
0
 10
848.585899
 20
1040.872629
 30
0.0
 10
793.716815
 20
1040.848629
 30
0.0
 10
793.805815
 20
1061.566660
 30
0.0
 10
848.675899
 20
1061.589660
 30
0.0
 10
886.897958
 20
1061.566660
 30
0.0
 10
886.687957
 20
1040.848629
 30
0.0
 10
848.585899
 20
1040.872629
 30
0.0
  0
LWPOLYLINE
  5
221
100
AcDbEntity
  8
Layer_1
 62
5
100
AcDbPolyline
 90
5
 70
0
 10
1329.495634
 20
1173.474531
 30
0.0
 10
1329.575634
 20
1192.574461
 30
0.0
 10
1364.725688
 20
1192.842561
 30
0.0
 10
1364.555687
 20
1173.695932
 30
0.0
 10
1329.495634
 20
1173.474531
 30
0.0
  0
LWPOLYLINE
  5
222
100
AcDbEntity
  8
Layer_1
 62
5
100
AcDbPolyline
 90
5
 70
0
 10
1302.565593
 20
965.337513
 30
0.0
 10
1302.655593
 20
984.437543
 30
0.0
 10
1337.805647
 20
984.705543
 30
0.0
 10
1337.635646
 20
965.558514
 30
0.0
 10
1302.565593
 20
965.337513
 30
0.0
  0
LWPOLYLINE
  5
223
100
AcDbEntity
  8
Layer_1
 62
5
100
AcDbPolyline
 90
5
 70
0
 10
1302.565593
 20
991.854554
 30
0.0
 10
1302.655593
 20
1010.954583
 30
0.0
 10
1337.805647
 20
1011.222583
 30
0.0
 10
1337.635646
 20
992.076554
 30
0.0
 10
1302.565593
 20
991.854554
 30
0.0
  0
LWPOLYLINE
  5
224
100
AcDbEntity
  8
Layer_1
 62
5
100
AcDbPolyline
 90
5
 70
0
 10
1302.565593
 20
1017.458593
 30
0.0
 10
1302.655593
 20
1036.557622
 30
0.0
 10
1337.805647
 20
1036.825623
 30
0.0
 10
1337.635646
 20
1017.679593
 30
0.0
 10
1302.565593
 20
1017.458593
 30
0.0
  0
LWPOLYLINE
  5
225
100
AcDbEntity
  8
Layer_1
 62
5
100
AcDbPolyline
 90
5
 70
0
 10
1302.565593
 20
1044.280634
 30
0.0
 10
1302.655593
 20
1063.380663
 30
0.0
 10
1337.805647
 20
1063.648664
 30
0.0
 10
1337.635646
 20
1044.501634
 30
0.0
 10
1302.565593
 20
1044.280634
 30
0.0
  0
LWPOLYLINE
  5
226
100
AcDbEntity
  8
Layer_1
 62
5
100
AcDbPolyline
 90
22
 70
0
 10
829.096869
 20
1118.964748
 30
0.0
 10
829.204870
 20
1111.871737
 30
0.0
 10
832.959875
 20
1111.883737
 30
0.0
 10
833.340876
 20
1087.622700
 30
0.0
 10
830.403871
 20
1089.533703
 30
0.0
 10
826.595866
 20
1085.319697
 30
0.0
 10
829.674870
 20
1082.211692
 30
0.0
 10
825.269864
 20
1077.517685
 30
0.0
 10
821.827858
 20
1080.501689
 30
0.0
 10
817.779852
 20
1076.047683
 30
0.0
 10
819.755855
 20
1073.897679
 30
0.0
 10
795.737818
 20
1073.776679
 30
0.0
 10
795.702818
 20
1075.935682
 30
0.0
 10
788.175807
 20
1075.891682
 30
0.0
 10
787.889806
 20
1094.021710
 30
0.0
 10
804.148831
 20
1094.106710
 30
0.0
 10
805.218833
 20
1095.432712
 30
0.0
 10
807.801837
 20
1093.162709
 30
0.0
 10
812.814845
 20
1098.229716
 30
0.0
 10
809.743840
 20
1100.738720
 30
0.0
 10
809.223839
 20
1118.888748
 30
0.0
 10
829.096869
 20
1118.964748
 30
0.0
  0
LWPOLYLINE
  5
227
100
AcDbEntity
  8
Layer_1
 62
5
100
AcDbPolyline
 90
22
 70
0
 10
878.474945
 20
1118.964748
 30
0.0
 10
878.582945
 20
1111.871737
 30
0.0
 10
882.336951
 20
1111.883737
 30
0.0
 10
882.718951
 20
1087.622700
 30
0.0
 10
879.780947
 20
1089.533703
 30
0.0
 10
875.972941
 20
1085.319697
 30
0.0
 10
879.052946
 20
1082.211692
 30
0.0
 10
874.647939
 20
1077.517685
 30
0.0
 10
871.204934
 20
1080.501689
 30
0.0
 10
867.157928
 20
1076.047683
 30
0.0
 10
869.132931
 20
1073.897679
 30
0.0
 10
845.115894
 20
1073.776679
 30
0.0
 10
845.079894
 20
1075.935682
 30
0.0
 10
837.553882
 20
1075.891682
 30
0.0
 10
837.267882
 20
1094.021710
 30
0.0
 10
853.525907
 20
1094.106710
 30
0.0
 10
854.596908
 20
1095.432712
 30
0.0
 10
857.179912
 20
1093.162709
 30
0.0
 10
862.191920
 20
1098.229716
 30
0.0
 10
859.121915
 20
1100.738720
 30
0.0
 10
858.601914
 20
1118.888748
 30
0.0
 10
878.474945
 20
1118.964748
 30
0.0
  0
LWPOLYLINE
  5
228
100
AcDbEntity
  8
Layer_1
 62
5
100
AcDbPolyline
 90
22
 70
0
 10
928.462021
 20
1118.964748
 30
0.0
 10
928.570021
 20
1111.871737
 30
0.0
 10
932.324027
 20
1111.883737
 30
0.0
 10
932.706028
 20
1087.622700
 30
0.0
 10
929.769023
 20
1089.533703
 30
0.0
 10
925.960017
 20
1085.319697
 30
0.0
 10
929.040022
 20
1082.211692
 30
0.0
 10
924.635015
 20
1077.517685
 30
0.0
 10
921.192010
 20
1080.501689
 30
0.0
 10
917.145004
 20
1076.047683
 30
0.0
 10
919.120007
 20
1073.897679
 30
0.0
 10
895.102970
 20
1073.776679
 30
0.0
 10
895.067970
 20
1075.935682
 30
0.0
 10
887.540959
 20
1075.891682
 30
0.0
 10
887.254958
 20
1094.021710
 30
0.0
 10
903.512983
 20
1094.106710
 30
0.0
 10
904.583985
 20
1095.432712
 30
0.0
 10
907.166989
 20
1093.162709
 30
0.0
 10
912.179996
 20
1098.229716
 30
0.0
 10
909.108992
 20
1100.738720
 30
0.0
 10
908.588991
 20
1118.888748
 30
0.0
 10
928.462021
 20
1118.964748
 30
0.0
  0
LWPOLYLINE
  5
229
100
AcDbEntity
  8
Layer_1
 62
5
100
AcDbPolyline
 90
22
 70
0
 10
978.141097
 20
1118.964748
 30
0.0
 10
978.249097
 20
1111.871737
 30
0.0
 10
982.003103
 20
1111.883737
 30
0.0
 10
982.385104
 20
1087.622700
 30
0.0
 10
979.447099
 20
1089.533703
 30
0.0
 10
975.639093
 20
1085.319697
 30
0.0
 10
978.719098
 20
1082.211692
 30
0.0
 10
974.314091
 20
1077.517685
 30
0.0
 10
970.871086
 20
1080.501689
 30
0.0
 10
966.824080
 20
1076.047683
 30
0.0
 10
968.799083
 20
1073.897679
 30
0.0
 10
944.781046
 20
1073.776679
 30
0.0
 10
944.746046
 20
1075.935682
 30
0.0
 10
937.220035
 20
1075.891682
 30
0.0
 10
936.934034
 20
1094.021710
 30
0.0
 10
953.192059
 20
1094.106710
 30
0.0
 10
954.263061
 20
1095.432712
 30
0.0
 10
956.846065
 20
1093.162709
 30
0.0
 10
961.858072
 20
1098.229716
 30
0.0
 10
958.788068
 20
1100.738720
 30
0.0
 10
958.268067
 20
1118.888748
 30
0.0
 10
978.141097
 20
1118.964748
 30
0.0
  0
LWPOLYLINE
  5
22a
100
AcDbEntity
  8
Layer_1
 62
5
100
AcDbPolyline
 90
22
 70
0
 10
1026.177171
 20
1118.964748
 30
0.0
 10
1026.285171
 20
1111.871737
 30
0.0
 10
1030.040176
 20
1111.883737
 30
0.0
 10
1030.422177
 20
1087.622700
 30
0.0
 10
1027.484173
 20
1089.533703
 30
0.0
 10
1023.676167
 20
1085.319697
 30
0.0
 10
1026.755171
 20
1082.211692
 30
0.0
 10
1022.350165
 20
1077.517685
 30
0.0
 10
1018.908159
 20
1080.501689
 30
0.0
 10
1014.860153
 20
1076.047683
 30
0.0
 10
1016.836156
 20
1073.897679
 30
0.0
 10
992.818120
 20
1073.776679
 30
0.0
 10
992.783119
 20
1075.935682
 30
0.0
 10
985.256108
 20
1075.891682
 30
0.0
 10
984.970108
 20
1094.021710
 30
0.0
 10
1001.229132
 20
1094.106710
 30
0.0
 10
1002.299134
 20
1095.432712
 30
0.0
 10
1004.882138
 20
1093.162709
 30
0.0
 10
1009.895146
 20
1098.229716
 30
0.0
 10
1006.824141
 20
1100.738720
 30
0.0
 10
1006.304140
 20
1118.888748
 30
0.0
 10
1026.177171
 20
1118.964748
 30
0.0
  0
LWPOLYLINE
  5
22b
100
AcDbEntity
  8
Layer_1
 62
5
100
AcDbPolyline
 90
2
 70
0
 10
654.955603
 20
1130.012765
 30
0.0
 10
622.071553
 20
1128.714763
 30
0.0
  0
LWPOLYLINE
  5
22c
100
AcDbEntity
  8
Layer_1
 62
5
100
AcDbPolyline
 90
2
 70
0
 10
623.028555
 20
1104.453726
 30
0.0
 10
655.913605
 20
1105.751728
 30
0.0
  0
LWPOLYLINE
  5
22d
100
AcDbEntity
  8
Layer_1
 62
5
100
AcDbPolyline
 90
2
 70
0
 10
622.071553
 20
1128.714763
 30
0.0
 10
623.028555
 20
1104.453726
 30
0.0
  0
LWPOLYLINE
  5
22e
100
AcDbEntity
  8
Layer_1
 62
5
100
AcDbPolyline
 90
2
 70
0
 10
655.913605
 20
1105.751728
 30
0.0
 10
654.955603
 20
1130.012765
 30
0.0
  0
ENDSEC
  0
SECTION
  2
OBJECTS
  0
DICTIONARY
  5
C
330
0
100
AcDbDictionary
  3
ACAD_GROUP
350
D
  3
ACAD_MLINESTYLE
350
17
  0
DICTIONARY
  5
D
330
C
100
AcDbDictionary
  0
DICTIONARY
  5
1A
330
C
100
AcDbDictionary
  0
DICTIONARY
  5
17
330
C
100
AcDbDictionary
  3
STANDARD
350
18
  0
DICTIONARY
  5
19
330
C
100
AcDbDictionary
  0
ENDSEC
  0
EOF
