  0
SECTION
  2
HEADER
  9
$ACADVER
  1
AC1015
  9
$ACADMAINTVER
 70
     6
  9
$DWGCODEPAGE
  3
ANSI_1250
  9
$INSBASE
 10
0.0
 20
0.0
 30
0.0
  9
$EXTMIN
 10
-6.7858651094
 20
-6.8588792964
 30
0.0
  9
$EXTMAX
 10
6.856668024
 20
6.8391630808
 30
0.0
  9
$LIMMIN
 10
0.0
 20
0.0
  9
$LIMMAX
 10
420.0
 20
297.0
  9
$ORTHOMODE
 70
     0
  9
$REGENMODE
 70
     1
  9
$FILLMODE
 70
     1
  9
$QTEXTMODE
 70
     0
  9
$MIRRTEXT
 70
     1
  9
$LTSCALE
 40
1.0
  9
$ATTMODE
 70
     1
  9
$TEXTSIZE
 40
3.5
  9
$TRACEWID
 40
1.0
  9
$TEXTSTYLE
  7
Standard
  9
$CLAYER
  8
0
  9
$CELTYPE
  6
ByLayer
  9
$CECOLOR
 62
   256
  9
$CELTSCALE
 40
1.0
  9
$DISPSILH
 70
     0
  9
$DIMSCALE
 40
1.0
  9
$DIMASZ
 40
3.302
  9
$DIMEXO
 40
1.0
  9
$DIMDLI
 40
3.75
  9
$DIMRND
 40
0.0
  9
$DIMDLE
 40
0.0
  9
$DIMEXE
 40
1.0
  9
$DIMTP
 40
0.0
  9
$DIMTM
 40
0.0
  9
$DIMTXT
 40
3.5
  9
$DIMCEN
 40
2.5
  9
$DIMTSZ
 40
0.0
  9
$DIMTOL
 70
     0
  9
$DIMLIM
 70
     0
  9
$DIMTIH
 70
     1
  9
$DIMTOH
 70
     1
  9
$DIMSE1
 70
     0
  9
$DIMSE2
 70
     0
  9
$DIMTAD
 70
     1
  9
$DIMZIN
 70
     0
  9
$DIMBLK
  1

  9
$DIMASO
 70
     1
  9
$DIMSHO
 70
     1
  9
$DIMPOST
  1

  9
$DIMAPOST
  1

  9
$DIMALT
 70
     0
  9
$DIMALTD
 70
     3
  9
$DIMALTF
 40
0.0393700787
  9
$DIMLFAC
 40
1.0
  9
$DIMTOFL
 70
     1
  9
$DIMTVP
 40
0.0
  9
$DIMTIX
 70
     0
  9
$DIMSOXD
 70
     0
  9
$DIMSAH
 70
     0
  9
$DIMBLK1
  1

  9
$DIMBLK2
  1

  9
$DIMSTYLE
  2
ISO-25
  9
$DIMCLRD
 70
     0
  9
$DIMCLRE
 70
     0
  9
$DIMCLRT
 70
     0
  9
$DIMTFAC
 40
1.0
  9
$DIMGAP
 40
1.524
  9
$DIMJUST
 70
     0
  9
$DIMSD1
 70
     0
  9
$DIMSD2
 70
     0
  9
$DIMTOLJ
 70
     0
  9
$DIMTZIN
 70
     0
  9
$DIMALTZ
 70
     0
  9
$DIMALTTZ
 70
     0
  9
$DIMUPT
 70
     0
  9
$DIMDEC
 70
     2
  9
$DIMTDEC
 70
     2
  9
$DIMALTU
 70
     2
  9
$DIMALTTD
 70
     3
  9
$DIMTXSTY
  7
Standard
  9
$DIMAUNIT
 70
     0
  9
$DIMADEC
 70
     2
  9
$DIMALTRND
 40
0.0
  9
$DIMAZIN
 70
     0
  9
$DIMDSEP
 70
    44
  9
$DIMATFIT
 70
     3
  9
$DIMFRAC
 70
     0
  9
$DIMLDRBLK
  1

  9
$DIMLUNIT
 70
     2
  9
$DIMLWD
 70
    -2
  9
$DIMLWE
 70
    -2
  9
$DIMTMOVE
 70
     0
  9
$LUNITS
 70
     2
  9
$LUPREC
 70
     2
  9
$SKETCHINC
 40
1.0
  9
$FILLETRAD
 40
10.0
  9
$AUNITS
 70
     0
  9
$AUPREC
 70
     2
  9
$MENU
  1
.
  9
$ELEVATION
 40
0.0
  9
$PELEVATION
 40
0.0
  9
$THICKNESS
 40
0.0
  9
$LIMCHECK
 70
     0
  9
$CHAMFERA
 40
10.0
  9
$CHAMFERB
 40
10.0
  9
$CHAMFERC
 40
20.0
  9
$CHAMFERD
 40
0.0
  9
$SKPOLY
 70
     0
  9
$TDCREATE
 40
2457785.735255162
  9
$TDUCREATE
 40
2457785.651921829
  9
$TDUPDATE
 40
2457785.735376516
  9
$TDUUPDATE
 40
2457785.652043183
  9
$TDINDWG
 40
0.0000000116
  9
$TDUSRTIMER
 40
0.0000000116
  9
$USRTIMER
 70
     1
  9
$ANGBASE
 50
0.0
  9
$ANGDIR
 70
     0
  9
$PDMODE
 70
     0
  9
$PDSIZE
 40
-1.0
  9
$PLINEWID
 40
0.0
  9
$SPLFRAME
 70
     0
  9
$SPLINETYPE
 70
     6
  9
$SPLINESEGS
 70
     8
  9
$HANDSEED
  5
2E1
  9
$SURFTAB1
 70
     6
  9
$SURFTAB2
 70
     6
  9
$SURFTYPE
 70
     6
  9
$SURFU
 70
     6
  9
$SURFV
 70
     6
  9
$UCSBASE
  2

  9
$UCSNAME
  2

  9
$UCSORG
 10
0.0
 20
0.0
 30
0.0
  9
$UCSXDIR
 10
1.0
 20
0.0
 30
0.0
  9
$UCSYDIR
 10
0.0
 20
1.0
 30
0.0
  9
$UCSORTHOREF
  2

  9
$UCSORTHOVIEW
 70
     0
  9
$UCSORGTOP
 10
0.0
 20
0.0
 30
0.0
  9
$UCSORGBOTTOM
 10
0.0
 20
0.0
 30
0.0
  9
$UCSORGLEFT
 10
0.0
 20
0.0
 30
0.0
  9
$UCSORGRIGHT
 10
0.0
 20
0.0
 30
0.0
  9
$UCSORGFRONT
 10
0.0
 20
0.0
 30
0.0
  9
$UCSORGBACK
 10
0.0
 20
0.0
 30
0.0
  9
$PUCSBASE
  2

  9
$PUCSNAME
  2

  9
$PUCSORG
 10
0.0
 20
0.0
 30
0.0
  9
$PUCSXDIR
 10
1.0
 20
0.0
 30
0.0
  9
$PUCSYDIR
 10
0.0
 20
1.0
 30
0.0
  9
$PUCSORTHOREF
  2

  9
$PUCSORTHOVIEW
 70
     0
  9
$PUCSORGTOP
 10
0.0
 20
0.0
 30
0.0
  9
$PUCSORGBOTTOM
 10
0.0
 20
0.0
 30
0.0
  9
$PUCSORGLEFT
 10
0.0
 20
0.0
 30
0.0
  9
$PUCSORGRIGHT
 10
0.0
 20
0.0
 30
0.0
  9
$PUCSORGFRONT
 10
0.0
 20
0.0
 30
0.0
  9
$PUCSORGBACK
 10
0.0
 20
0.0
 30
0.0
  9
$USERI1
 70
     0
  9
$USERI2
 70
     0
  9
$USERI3
 70
     0
  9
$USERI4
 70
     0
  9
$USERI5
 70
     0
  9
$USERR1
 40
0.0
  9
$USERR2
 40
0.0
  9
$USERR3
 40
0.0
  9
$USERR4
 40
0.0
  9
$USERR5
 40
0.0
  9
$WORLDVIEW
 70
     1
  9
$SHADEDGE
 70
     3
  9
$SHADEDIF
 70
    70
  9
$TILEMODE
 70
     1
  9
$MAXACTVP
 70
    64
  9
$PINSBASE
 10
0.0
 20
0.0
 30
0.0
  9
$PLIMCHECK
 70
     0
  9
$PEXTMIN
 10
1.0000000000E+20
 20
1.0000000000E+20
 30
1.0000000000E+20
  9
$PEXTMAX
 10
-1.0000000000E+20
 20
-1.0000000000E+20
 30
-1.0000000000E+20
  9
$PLIMMIN
 10
0.0
 20
0.0
  9
$PLIMMAX
 10
420.0
 20
297.0
  9
$UNITMODE
 70
     0
  9
$VISRETAIN
 70
     1
  9
$PLINEGEN
 70
     0
  9
$PSLTSCALE
 70
     1
  9
$TREEDEPTH
 70
  3020
  9
$CMLSTYLE
  2
Standard
  9
$CMLJUST
 70
     0
  9
$CMLSCALE
 40
20.0
  9
$PROXYGRAPHICS
 70
     1
  9
$MEASUREMENT
 70
     1
  9
$CELWEIGHT
370
    -1
  9
$ENDCAPS
280
     0
  9
$JOINSTYLE
280
     0
  9
$LWDISPLAY
290
     1
  9
$INSUNITS
 70
     4
  9
$HYPERLINKBASE
  1

  9
$STYLESHEET
  1

  9
$XEDIT
290
     1
  9
$CEPSNTYPE
380
     0
  9
$PSTYLEMODE
290
     1
  9
$FINGERPRINTGUID
  2
{8FE4E2C9-5314-45D9-94FC-8753BBF54D5E}
  9
$VERSIONGUID
  2
{FAEB1C32-E019-11D5-929B-00C0DF256EC4}
  9
$EXTNAMES
290
     1
  9
$PSVPSCALE
 40
0.0
  9
$OLESTARTUP
290
     0
  0
ENDSEC
  0
SECTION
  2
CLASSES
  0
CLASS
  1
ACDBDICTIONARYWDFLT
  2
AcDbDictionaryWithDefault
  3
ObjectDBX Classes
 90
        0
280
     0
281
     0
  0
CLASS
  1
VISUALSTYLE
  2
AcDbVisualStyle
  3
ObjectDBX Classes
 90
     4095
280
     0
281
     0
  0
CLASS
  1
MATERIAL
  2
AcDbMaterial
  3
ObjectDBX Classes
 90
     1153
280
     0
281
     0
  0
CLASS
  1
ACDBPLACEHOLDER
  2
AcDbPlaceHolder
  3
ObjectDBX Classes
 90
        0
280
     0
281
     0
  0
CLASS
  1
LAYOUT
  2
AcDbLayout
  3
ObjectDBX Classes
 90
        0
280
     0
281
     0
  0
ENDSEC
  0
SECTION
  2
TABLES
  0
TABLE
  2
VPORT
  5
8
330
0
100
AcDbSymbolTable
 70
     1
  0
VPORT
  5
29
330
8
100
AcDbSymbolTableRecord
100
AcDbViewportTableRecord
  2
*Active
 70
     0
 10
0.0
 20
0.0
 11
1.0
 21
1.0
 12
0.0354014573
 22
-0.0098581078
 13
0.0
 23
0.0
 14
10.0
 24
10.0
 15
10.0
 25
10.0
 16
0.0
 26
0.0
 36
1.0
 17
0.0
 27
0.0
 37
0.0
 40
13.9720032247
 41
0.9959476513
 42
50.0
 43
0.0
 44
0.0
 50
0.0
 51
0.0
 71
     0
 72
   100
 73
     1
 74
     3
 75
     0
 76
     0
 77
     0
 78
     0
281
     0
 65
     1
110
0.0
120
0.0
130
0.0
111
1.0
121
0.0
131
0.0
112
0.0
122
1.0
132
0.0
 79
     0
146
0.0
  0
ENDTAB
  0
TABLE
  2
LTYPE
  5
5
330
0
100
AcDbSymbolTable
 70
     6
  0
LTYPE
  5
14
330
5
100
AcDbSymbolTableRecord
100
AcDbLinetypeTableRecord
  2
ByBlock
 70
     0
  3

 72
    65
 73
     0
 40
0.0
  0
LTYPE
  5
15
330
5
100
AcDbSymbolTableRecord
100
AcDbLinetypeTableRecord
  2
ByLayer
 70
     0
  3

 72
    65
 73
     0
 40
0.0
  0
LTYPE
  5
16
330
5
100
AcDbSymbolTableRecord
100
AcDbLinetypeTableRecord
  2
Continuous
 70
     0
  3
Solid line
 72
    65
 73
     0
 40
0.0
  0
LTYPE
  5
3F
330
5
100
AcDbSymbolTableRecord
100
AcDbLinetypeTableRecord
  2
HIDDEN
 70
     0
  3
Hidden __ __ __ __ __ __ __ __ __ __ __ __ __ __
 72
    65
 73
     2
 40
1.905
 49
1.27
 74
     0
 49
-0.635
 74
     0
  0
LTYPE
  5
40
330
5
100
AcDbSymbolTableRecord
100
AcDbLinetypeTableRecord
  2
PHANTOM
 70
     0
  3
Phantom ______  __  __  ______  __  __  ______
 72
    65
 73
     6
 40
12.7
 49
6.35
 74
     0
 49
-1.27
 74
     0
 49
1.27
 74
     0
 49
-1.27
 74
     0
 49
1.27
 74
     0
 49
-1.27
 74
     0
  0
LTYPE
  5
41
330
5
100
AcDbSymbolTableRecord
100
AcDbLinetypeTableRecord
  2
CENTER
 70
     0
  3
Center ____ _ ____ _ ____ _ ____ _ ____ _ ____
 72
    65
 73
     4
 40
10.16
 49
6.35
 74
     0
 49
-1.27
 74
     0
 49
1.27
 74
     0
 49
-1.27
 74
     0
  0
LTYPE
  5
42
330
5
100
AcDbSymbolTableRecord
100
AcDbLinetypeTableRecord
  2
CENTERX2
 70
     0
  3
Center (2x) ________  __  ________  __  _____
 72
    65
 73
     4
 40
20.32
 49
12.7
 74
     0
 49
-2.54
 74
     0
 49
2.54
 74
     0
 49
-2.54
 74
     0
  0
LTYPE
  5
43
330
5
100
AcDbSymbolTableRecord
100
AcDbLinetypeTableRecord
  2
DOT2
 70
     0
  3
Dot (.5x) ........................................
 72
    65
 73
     2
 40
0.635
 49
0.0
 74
     0
 49
-0.635
 74
     0
  0
ENDTAB
  0
TABLE
  2
LAYER
  5
2
330
0
100
AcDbSymbolTable
 70
     1
  0
LAYER
  5
10
330
2
100
AcDbSymbolTableRecord
100
AcDbLayerTableRecord
  2
0
 70
     0
 62
     7
  6
Continuous
370
    -3
390
F
  0
ENDTAB
  0
TABLE
  2
STYLE
  5
3
330
0
100
AcDbSymbolTable
 70
     1
  0
STYLE
  5
11
330
3
100
AcDbSymbolTableRecord
100
AcDbTextStyleTableRecord
  2
Standard
 70
     0
 40
0.0
 41
1.0
 50
0.0
 71
     0
 42
3.5
  3
txt
  4

  0
ENDTAB
  0
TABLE
  2
VIEW
  5
6
330
0
100
AcDbSymbolTable
 70
     0
  0
ENDTAB
  0
TABLE
  2
UCS
  5
7
330
0
100
AcDbSymbolTable
 70
     0
  0
ENDTAB
  0
TABLE
  2
APPID
  5
9
330
0
100
AcDbSymbolTable
 70
     1
  0
APPID
  5
12
330
9
100
AcDbSymbolTableRecord
100
AcDbRegAppTableRecord
  2
ACAD
 70
     0
  0
ENDTAB
  0
TABLE
  2
DIMSTYLE
  5
A
330
0
100
AcDbSymbolTable
 70
     1
100
AcDbDimStyleTable
  0
DIMSTYLE
105
27
330
A
100
AcDbSymbolTableRecord
100
AcDbDimStyleTableRecord
  2
ISO-25
 70
     0
 41
2.5
 42
0.625
 43
3.75
 44
1.25
 73
     0
 74
     0
 77
     1
 78
     8
140
2.5
141
2.5
143
0.0393700787
147
0.625
171
     3
172
     1
178
     0
271
     2
272
     2
274
     3
278
    44
283
     0
284
     8
340
11
  0
ENDTAB
  0
TABLE
  2
BLOCK_RECORD
  5
1
330
0
100
AcDbSymbolTable
 70
     1
  0
BLOCK_RECORD
  5
1F
330
1
100
AcDbSymbolTableRecord
100
AcDbBlockTableRecord
  2
*Model_Space
340
22
  0
BLOCK_RECORD
  5
1B
330
1
100
AcDbSymbolTableRecord
100
AcDbBlockTableRecord
  2
*Paper_Space
340
1E
  0
BLOCK_RECORD
  5
23
330
1
100
AcDbSymbolTableRecord
100
AcDbBlockTableRecord
  2
*Paper_Space0
340
26
  0
ENDTAB
  0
ENDSEC
  0
SECTION
  2
BLOCKS
  0
BLOCK
  5
20
330
1F
100
AcDbEntity
  8
0
100
AcDbBlockBegin
  2
*Model_Space
 70
     0
 10
0.0
 20
0.0
 30
0.0
  3
*Model_Space
  1

  0
ENDBLK
  5
21
330
1F
100
AcDbEntity
  8
0
100
AcDbBlockEnd
  0
BLOCK
  5
1C
330
1B
100
AcDbEntity
 67
     1
  8
0
100
AcDbBlockBegin
  2
*Paper_Space
 70
     0
 10
0.0
 20
0.0
 30
0.0
  3
*Paper_Space
  1

  0
ENDBLK
  5
1D
330
1B
100
AcDbEntity
 67
     1
  8
0
100
AcDbBlockEnd
  0
BLOCK
  5
24
330
23
100
AcDbEntity
  8
0
100
AcDbBlockBegin
  2
*Paper_Space0
 70
     0
 10
0.0
 20
0.0
 30
0.0
  3
*Paper_Space0
  1

  0
ENDBLK
  5
25
330
23
100
AcDbEntity
  8
0
100
AcDbBlockEnd
  0
ENDSEC
  0
SECTION
  2
ENTITIES
  0
CIRCLE
  5
D8
330
1F
100
AcDbEntity
  8
0
  6
Continuous
 62
     7
370
    15
100
AcDbCircle
 10
0.0026405643
 20
-0.0076631343
 30
0.0
 40
0.999994238259144
  0
LWPOLYLINE
  5
11F
330
1F
100
AcDbEntity
  8
0
  6
Continuous
 62
     7
370
    15
100
AcDbPolyline
 90
        3
 70
   128
 43
0.0
 10
-1.2639516405
 20
4.2014415058
 10
-1.2810403557
 20
4.2837811772
 10
-1.287724745
 20
4.3045986721
  0
LWPOLYLINE
  5
176
330
1F
100
AcDbEntity
  8
0
  6
Continuous
 62
     7
370
    15
100
AcDbPolyline
 90
        3
 70
   128
 43
0.0
 10
-0.4844398681
 20
-2.2394765085
 10
-0.4965276318
 20
-2.1752006456
 10
-0.5082129725
 20
-2.1363193423
  0
LWPOLYLINE
  5
18C
330
1F
100
AcDbEntity
  8
0
  6
Continuous
 62
     7
370
    15
100
AcDbPolyline
 90
        3
 70
   128
 43
0.0
 10
-1.2378103584
 20
-6.0282193663
 10
-1.2465887507
 20
-5.9931374465
 10
-1.2477847706
 20
-5.9895887235
  0
LWPOLYLINE
  5
18E
330
1F
100
AcDbEntity
  8
0
  6
Continuous
 62
     7
370
    15
100
AcDbPolyline
 90
        3
 70
   128
 43
0.0
 10
4.6575431921
 20
-3.9690732851
 10
4.6583389332
 20
-3.9713417702
 10
4.6729054691
 20
-4.0044418801
  0
LINE
  5
195
330
1F
100
AcDbEntity
  8
0
  6
Continuous
 62
     7
370
    15
100
AcDbLine
 10
-5.8133215632
 20
3.4611768464
 30
0.0
 11
-5.8106759768
 21
3.4535171423
 31
0.0
  0
LINE
  5
196
330
1F
100
AcDbEntity
  8
0
  6
Continuous
 62
     7
370
    15
100
AcDbLine
 10
2.4740909306
 20
6.2915662775
 30
0.0
 11
2.4714453442
 21
6.2992259816
 31
0.0
  0
LINE
  5
197
330
1F
100
AcDbEntity
  8
0
  6
Continuous
 62
     7
370
    15
100
AcDbLine
 10
-6.7721675707
 20
0.8865155075
 30
0.0
 11
-6.7695219843
 21
0.8788558034
 31
0.0
  0
LINE
  5
198
330
1F
100
AcDbEntity
  8
0
  6
Continuous
 62
     7
370
    15
100
AcDbLine
 10
4.8097940062
 20
4.8449297763
 30
0.0
 11
4.8071484198
 21
4.8525894803
 31
0.0
  0
LINE
  5
199
330
1F
100
AcDbEntity
  8
0
  6
Continuous
 62
     7
370
    15
100
AcDbLine
 10
-6.6009030872
 20
-1.8555446456
 30
0.0
 11
-6.5982575008
 21
-1.8632043497
 31
0.0
  0
LINE
  5
19A
330
1F
100
AcDbEntity
  8
0
  6
Continuous
 62
     7
370
    15
100
AcDbLine
 10
6.3551562537
 20
2.5733486987
 30
0.0
 11
6.3525106673
 21
2.5810084028
 31
0.0
  0
LINE
  5
19B
330
1F
100
AcDbEntity
  8
0
  6
Continuous
 62
     7
370
    15
100
AcDbLine
 10
-5.6992071221
 20
-3.7980110804
 30
0.0
 11
-5.6965615357
 21
-3.8056707844
 31
0.0
  0
LINE
  5
19C
330
1F
100
AcDbEntity
  8
0
  6
Continuous
 62
     7
370
    15
100
AcDbLine
 10
6.8332829594
 20
0.4858558482
 30
0.0
 11
6.830637373
 21
0.4935155523
 31
0.0
  0
LINE
  5
19D
330
1F
100
AcDbEntity
  8
0
  6
Continuous
 62
     7
370
    15
100
AcDbLine
 10
-3.7153218065
 20
-5.698653466
 30
0.0
 11
-3.7126762201
 21
-5.7063131701
 31
0.0
  0
LINE
  5
19E
330
1F
100
AcDbEntity
  8
0
  6
Continuous
 62
     7
370
    15
100
AcDbLine
 10
6.4306946776
 20
-2.2318942582
 30
0.0
 11
6.4280490912
 21
-2.2242345542
 31
0.0
  0
LINE
  5
19F
330
1F
100
AcDbEntity
  8
0
  6
Continuous
 62
     7
370
    15
100
AcDbLine
 10
4.957497116
 20
-4.5509417744
 30
0.0
 11
4.9548515296
 21
-4.5432820704
 31
0.0
  0
LINE
  5
1A0
330
1F
100
AcDbEntity
  8
0
  6
Continuous
 62
     7
370
    15
100
AcDbLine
 10
-1.1298824031
 20
-6.628059126
 30
0.0
 11
-1.1272368167
 21
-6.6357188301
 31
0.0
  0
LINE
  5
1A1
330
1F
100
AcDbEntity
  8
0
  6
Continuous
 62
     7
370
    15
100
AcDbLine
 10
1.0073385109
 20
-2.0669088872
 30
0.0
 11
1.2665972269
 21
-4.2091012098
 31
0.0
  0
LINE
  5
1A2
330
1F
100
AcDbEntity
  8
0
  6
Continuous
 62
     7
370
    15
100
AcDbLine
 10
4.3843415783
 20
-0.2328172035
 30
0.0
 11
2.2421341057
 21
-0.4920850976
 31
0.0
  0
LINE
  5
1A3
330
1F
100
AcDbEntity
  8
0
  6
Continuous
 62
     7
370
    15
100
AcDbLine
 10
-2.0566219876
 20
-1.0123565717
 30
0.0
 11
-4.1988294602
 21
-1.2716244658
 31
0.0
  0
LINE
  5
1A4
330
1F
100
AcDbEntity
  8
0
  6
Continuous
 62
     7
370
    15
100
AcDbLine
 10
-0.2225355657
 20
-4.3893285352
 30
0.0
 11
-0.4817942817
 21
-2.2471362126
 31
0.0
  0
LINE
  5
1A5
330
1F
100
AcDbEntity
  8
0
  6
Continuous
 62
     7
370
    15
100
AcDbLine
 10
6.3486491716
 20
-2.1167759934
 30
0.0
 11
5.9003305486
 21
-1.7652615349
 31
0.0
  0
LINE
  5
1A6
330
1F
100
AcDbEntity
  8
0
  6
Continuous
 62
     7
370
    15
100
AcDbLine
 10
6.1825432039
 20
-2.9785098849
 30
0.0
 11
6.4243486478
 21
-2.411590677
 31
0.0
  0
LINE
  5
1A7
330
1F
100
AcDbEntity
  8
0
  6
Continuous
 62
     7
370
    15
100
AcDbLine
 10
5.3533495269
 20
-3.0476728925
 30
0.0
 11
5.9173643435
 21
-3.1279345893
 31
0.0
  0
LINE
  5
1A8
330
1F
100
AcDbEntity
  8
0
  6
Continuous
 62
     7
370
    15
100
AcDbLine
 10
4.942134839
 20
-4.5155731794
 30
0.0
 11
4.6755510555
 21
-4.0121015842
 31
0.0
  0
LINE
  5
1A9
330
1F
100
AcDbEntity
  8
0
  6
Continuous
 62
     7
370
    15
100
AcDbLine
 10
4.4398888149
 20
-5.23524709
 30
0.0
 11
4.8913768864
 21
-4.8156899538
 31
0.0
  0
LINE
  5
1AA
330
1F
100
AcDbEntity
  8
0
  6
Continuous
 62
     7
370
    15
100
AcDbLine
 10
3.6542530951
 20
-4.9611695097
 30
0.0
 11
4.1368595227
 21
-5.263896395
 31
0.0
  0
LINE
  5
1AB
330
1F
100
AcDbEntity
  8
0
  6
Continuous
 62
     7
370
    15
100
AcDbLine
 10
2.6815379408
 20
-6.1349111723
 30
0.0
 11
2.6427837548
 21
-5.5665372532
 31
0.0
  0
LINE
  5
1AC
330
1F
100
AcDbEntity
  8
0
  6
Continuous
 62
     7
370
    15
100
AcDbLine
 10
1.9299947605
 20
-6.5880869449
 30
0.0
 11
2.5130990705
 21
-6.3884371209
 31
0.0
  0
LINE
  5
1AD
330
1F
100
AcDbEntity
  8
0
  6
Continuous
 62
     7
370
    15
100
AcDbLine
 10
1.3237605512
 20
-6.0181592802
 30
0.0
 11
1.6415115541
 21
-6.4910071254
 31
0.0
  0
LINE
  5
1AE
330
1F
100
AcDbEntity
  8
0
  6
Continuous
 62
     7
370
    15
100
AcDbLine
 10
-0.0422637825
 20
-6.694791722
 30
0.0
 11
0.1535125799
 21
-6.1597924931
 31
0.0
  0
LINE
  5
1AF
330
1F
100
AcDbEntity
  8
0
  6
Continuous
 62
     7
370
    15
100
AcDbLine
 10
-0.9131554754
 20
-6.8031111486
 30
0.0
 11
-0.2992589595
 21
-6.8578899051
 31
0.0
  0
LINE
  5
1B0
330
1F
100
AcDbEntity
  8
0
  6
Continuous
 62
     7
370
    15
100
AcDbLine
 10
-1.235164772
 20
-6.0358790703
 30
0.0
 11
-1.1372112289
 21
-6.5970881873
 31
0.0
  0
LINE
  5
1B1
330
1F
100
AcDbEntity
  8
0
  6
Continuous
 62
     7
370
    15
100
AcDbLine
 10
-2.7583002679
 20
-6.0984063952
 30
0.0
 11
-2.3618448688
 21
-5.6892880835
 31
0.0
  0
LINE
  5
1B2
330
1F
100
AcDbEntity
  8
0
  6
Continuous
 62
     7
370
    15
100
AcDbLine
 10
-3.597955388
 20
-5.8431400627
 30
0.0
 11
-3.0594149509
 21
-6.1428756551
 31
0.0
  0
LINE
  5
1B3
330
1F
100
AcDbEntity
  8
0
  6
Continuous
 62
     7
370
    15
100
AcDbLine
 10
-3.5800614391
 20
-5.0112649674
 30
0.0
 11
-3.7188424133
 21
-5.5637972014
 31
0.0
  0
LINE
  5
1B4
330
1F
100
AcDbEntity
  8
0
  6
Continuous
 62
     7
370
    15
100
AcDbLine
 10
-4.9969441327
 20
-4.4488756327
 30
0.0
 11
-4.468360437
 21
-4.236378511
 31
0.0
  0
LINE
  5
1B5
330
1F
100
AcDbEntity
  8
0
  6
Continuous
 62
     7
370
    15
100
AcDbLine
 10
-5.6601786817
 20
-3.8741614092
 30
0.0
 11
-5.2901128574
 21
-4.3670268305
 31
0.0
  0
LINE
  5
1B6
330
1F
100
AcDbEntity
  8
0
  6
Continuous
 62
     7
370
    15
100
AcDbLine
 10
-5.3054755136
 20
-3.1214820581
 30
0.0
 11
-5.6569945138
 21
-3.5697995662
 31
0.0
  0
LINE
  5
1B7
330
1F
100
AcDbEntity
  8
0
  6
Continuous
 62
     7
370
    15
100
AcDbLine
 10
-6.3711135152
 20
-2.031418289
 30
0.0
 11
-5.801798446
 21
-2.0522850401
 31
0.0
  0
LINE
  5
1B8
330
1F
100
AcDbEntity
  8
0
  6
Continuous
 62
     7
370
    15
100
AcDbLine
 10
-6.7432482143
 20
-1.2366294848
 30
0.0
 11
-6.6056447457
 21
-1.8374038261
 31
0.0
  0
LINE
  5
1B9
330
1F
100
AcDbEntity
  8
0
  6
Continuous
 62
     7
370
    15
100
AcDbLine
 10
-6.1130672272
 20
-0.6932909756
 30
0.0
 11
-6.6165434249
 21
-0.9598755879
 31
0.0
  0
LINE
  5
1BA
330
1F
100
AcDbEntity
  8
0
  6
Continuous
 62
     7
370
    15
100
AcDbLine
 10
-6.6432020452
 20
0.7359652993
 30
0.0
 11
-6.1315953501
 21
0.4853427262
 31
0.0
  0
LINE
  5
1BB
330
1F
100
AcDbEntity
  8
0
  6
Continuous
 62
     7
370
    15
100
AcDbLine
 10
-6.6598914242
 20
1.6134024796
 30
0.0
 11
-6.7785432013
 21
1.0085985597
 31
0.0
  0
LINE
  5
1BC
330
1F
100
AcDbEntity
  8
0
  6
Continuous
 62
     7
370
    15
100
AcDbLine
 10
-5.8631966358
 20
1.8534519825
 30
0.0
 11
-6.4315744224
 21
1.8146951674
 31
0.0
  0
LINE
  5
1BD
330
1F
100
AcDbEntity
  8
0
  6
Continuous
 62
     7
370
    15
100
AcDbLine
 10
-5.7661631441
 20
3.3747693689
 30
0.0
 11
-5.4007262684
 21
2.9377258935
 31
0.0
  0
LINE
  5
1BE
330
1F
100
AcDbEntity
  8
0
  6
Continuous
 62
     7
370
    15
100
AcDbLine
 10
-5.4245214577
 20
4.1831380655
 30
0.0
 11
-5.7789125102
 21
3.6788806592
 31
0.0
  0
LINE
  5
1BF
330
1F
100
AcDbEntity
  8
0
  6
Continuous
 62
     7
370
    15
100
AcDbLine
 10
-4.5990686346
 20
4.0783918224
 30
0.0
 11
-5.1340703273
 21
4.2741642098
 31
0.0
  0
LINE
  5
1C0
330
1F
100
AcDbEntity
  8
0
  6
Continuous
 62
     7
370
    15
100
AcDbLine
 10
-3.8916448056
 20
5.4287207234
 30
0.0
 11
-3.7355651049
 21
4.8808251331
 31
0.0
  0
LINE
  5
1C1
330
1F
100
AcDbEntity
  8
0
  6
Continuous
 62
     7
370
    15
100
AcDbLine
 10
-3.2507450051
 20
6.0282466448
 30
0.0
 11
-3.7795979005
 21
5.7117264388
 31
0.0
  0
LINE
  5
1C2
330
1F
100
AcDbEntity
  8
0
  6
Continuous
 62
     7
370
    15
100
AcDbLine
 10
-2.5392624394
 20
5.5968162327
 30
0.0
 11
-2.9483813852
 21
5.9932669984
 31
0.0
  0
LINE
  5
1C3
330
1F
100
AcDbEntity
  8
0
  6
Continuous
 62
     7
370
    15
100
AcDbLine
 10
-1.3437682797
 20
6.542672514
 30
0.0
 11
-1.4240333523
 21
5.9786609338
 31
0.0
  0
LINE
  5
1C4
330
1F
100
AcDbEntity
  8
0
  6
Continuous
 62
     7
370
    15
100
AcDbLine
 10
-0.514427763
 20
6.829692182
 30
0.0
 11
-1.1262990312
 21
6.7556383953
 31
0.0
  0
LINE
  5
1C5
330
1F
100
AcDbEntity
  8
0
  6
Continuous
 62
     7
370
    15
100
AcDbLine
 10
-0.0399372541
 20
6.1461758385
 30
0.0
 11
-0.2524330704
 21
6.6747550434
 31
0.0
  0
LINE
  5
1C6
330
1F
100
AcDbEntity
  8
0
  6
Continuous
 62
     7
370
    15
100
AcDbLine
 10
1.4369154354
 20
6.5240123563
 30
0.0
 11
1.1341841497
 21
6.0414075122
 31
0.0
  0
LINE
  5
1C7
330
1F
100
AcDbEntity
  8
0
  6
Continuous
 62
     7
370
    15
100
AcDbLine
 10
2.3112961586
 20
6.4488974626
 30
0.0
 11
1.7222046185
 21
6.6301146678
 31
0.0
  0
LINE
  5
1C8
330
1F
100
AcDbEntity
  8
0
  6
Continuous
 62
     7
370
    15
100
AcDbLine
 10
2.4667508913
 20
5.6314813731
 30
0.0
 11
2.4876206614
 21
6.2007928708
 31
0.0
  0
LINE
  5
1C9
330
1F
100
AcDbEntity
  8
0
  6
Continuous
 62
     7
370
    15
100
AcDbLine
 10
3.9696008637
 20
5.3759667609
 30
0.0
 11
3.4967483545
 21
5.0582154149
 31
0.0
  0
LINE
  5
1CA
330
1F
100
AcDbEntity
  8
0
  6
Continuous
 62
     7
370
    15
100
AcDbLine
 10
4.7378334229
 20
4.9517053532
 30
0.0
 11
4.2733808899
 21
5.3568594491
 31
0.0
  0
LINE
  5
1CB
330
1F
100
AcDbEntity
  8
0
  6
Continuous
 62
     7
370
    15
100
AcDbLine
 10
4.5473728437
 20
4.1417281855
 30
0.0
 11
4.7979996275
 21
4.6533328459
 31
0.0
  0
LINE
  5
1CC
330
1F
100
AcDbEntity
  8
0
  6
Continuous
 62
     7
370
    15
100
AcDbLine
 10
5.8163636859
 20
3.297043241
 30
0.0
 11
5.2551504477
 21
3.1990874875
 31
0.0
  0
LINE
  5
1CD
330
1F
100
AcDbEntity
  8
0
  6
Continuous
 62
     7
370
    15
100
AcDbLine
 10
6.3456136924
 20
2.596993971
 30
0.0
 11
6.0861082289
 21
3.1560301337
 31
0.0
  0
LINE
  5
1CE
330
1F
100
AcDbEntity
  8
0
  6
Continuous
 62
     7
370
    15
100
AcDbLine
 10
5.8421701658
 20
1.9345081359
 30
0.0
 11
6.2792183155
 21
2.2999448654
 31
0.0
  0
LINE
  5
1CF
330
1F
100
AcDbEntity
  8
0
  6
Continuous
 62
     7
370
    15
100
AcDbLine
 10
6.6578818327
 20
0.6467065597
 30
0.0
 11
6.1053467329
 21
0.7854838383
 31
0.0
  0
LINE
  5
1D0
330
1F
100
AcDbEntity
  8
0
  6
Continuous
 62
     7
370
    15
100
AcDbLine
 10
6.8566371523
 20
-0.2080856942
 30
0.0
 11
6.8469496105
 21
0.4081701041
 31
0.0
  0
LINE
  5
1D1
330
1F
100
AcDbEntity
  8
0
  6
Continuous
 62
     7
370
    15
100
AcDbLine
 10
6.1272606377
 20
-0.6085303774
 30
0.0
 11
6.6751605577
 21
-0.4524489092
 31
0.0
  0
LINE
  5
1D2
330
1F
100
AcDbEntity
  8
0
  6
Continuous
 62
     7
370
    15
100
AcDbLine
 10
-1.0020473381
 20
2.0515894791
 30
0.0
 11
-1.2613060541
 21
4.1937818018
 31
0.0
  0
LINE
  5
1D3
330
1F
100
AcDbEntity
  8
0
  6
Continuous
 62
     7
370
    15
100
AcDbLine
 10
-4.3790504055
 20
0.2174977954
 30
0.0
 11
-2.2368429328
 21
0.4767656895
 31
0.0
  0
LINE
  5
1D4
330
1F
100
AcDbEntity
  8
0
  6
Continuous
 62
     7
370
    15
100
AcDbLine
 10
2.0619131604
 20
0.9970371636
 30
0.0
 11
4.204120633
 21
1.2563050577
 31
0.0
  0
LINE
  5
1D5
330
1F
100
AcDbEntity
  8
0
  6
Continuous
 62
     7
370
    15
100
AcDbLine
 10
0.2278267385
 20
4.3740091271
 30
0.0
 11
0.4870854545
 21
2.2318168045
 31
0.0
  0
LINE
  5
1D6
330
1F
100
AcDbEntity
  8
0
  6
Continuous
 62
     7
370
    15
100
AcDbLine
 10
-3.2507450051
 20
6.0282466448
 30
0.0
 11
-3.2533905915
 21
6.0359063489
 31
0.0
  0
LINE
  5
1D7
330
1F
100
AcDbEntity
  8
0
  6
Continuous
 62
     7
370
    15
100
AcDbLine
 10
-3.7822434869
 20
5.7193861429
 30
0.0
 11
-3.7795979005
 21
5.7117264388
 31
0.0
  0
LINE
  5
1D8
330
1F
100
AcDbEntity
  8
0
  6
Continuous
 62
     7
370
    15
100
AcDbLine
 10
-3.2533905915
 20
6.0359063489
 30
0.0
 11
-3.7822434869
 21
5.7193861429
 31
0.0
  0
LINE
  5
1D9
330
1F
100
AcDbEntity
  8
0
  6
Continuous
 62
     7
370
    15
100
AcDbLine
 10
-1.3437682797
 20
6.542672514
 30
0.0
 11
-1.3464138661
 21
6.5503322181
 31
0.0
  0
LINE
  5
1DA
330
1F
100
AcDbEntity
  8
0
  6
Continuous
 62
     7
370
    15
100
AcDbLine
 10
-1.1289446176
 20
6.7632980994
 30
0.0
 11
-1.1262990312
 21
6.7556383953
 31
0.0
  0
LINE
  5
1DB
330
1F
100
AcDbEntity
  8
0
  6
Continuous
 62
     7
370
    15
100
AcDbLine
 10
-2.9510269716
 20
6.0009267025
 30
0.0
 11
-2.9483813852
 21
5.9932669984
 31
0.0
  0
LINE
  5
1DC
330
1F
100
AcDbEntity
  8
0
  6
Continuous
 62
     7
370
    15
100
AcDbLine
 10
-0.5170733494
 20
6.837351886
 30
0.0
 11
-1.1289446176
 21
6.7632980994
 31
0.0
  0
LINE
  5
1DD
330
1F
100
AcDbEntity
  8
0
  6
Continuous
 62
     7
370
    15
100
AcDbLine
 10
-0.514427763
 20
6.829692182
 30
0.0
 11
-0.5170733494
 21
6.837351886
 31
0.0
  0
LINE
  5
1DE
330
1F
100
AcDbEntity
  8
0
  6
Continuous
 62
     7
370
    15
100
AcDbLine
 10
-3.8916448056
 20
5.4287207234
 30
0.0
 11
-3.894290392
 21
5.4363804274
 31
0.0
  0
LINE
  5
1DF
330
1F
100
AcDbEntity
  8
0
  6
Continuous
 62
     7
370
    15
100
AcDbLine
 10
-1.4266789387
 20
5.9863206378
 30
0.0
 11
-1.4240333523
 21
5.9786609338
 31
0.0
  0
LINE
  5
1E0
330
1F
100
AcDbEntity
  8
0
  6
Continuous
 62
     7
370
    15
100
AcDbLine
 10
-1.3464138661
 20
6.5503322181
 30
0.0
 11
-1.4266789387
 21
5.9863206378
 31
0.0
  0
LINE
  5
1E1
330
1F
100
AcDbEntity
  8
0
  6
Continuous
 62
     7
370
    15
100
AcDbLine
 10
-2.5392624394
 20
5.5968162327
 30
0.0
 11
-2.5419080258
 21
5.6044759367
 31
0.0
  0
LINE
  5
1E2
330
1F
100
AcDbEntity
  8
0
  6
Continuous
 62
     7
370
    15
100
AcDbLine
 10
-2.5419080258
 20
5.6044759367
 30
0.0
 11
-2.9510269716
 21
6.0009267025
 31
0.0
  0
LINE
  5
1E3
330
1F
100
AcDbEntity
  8
0
  6
Continuous
 62
     7
370
    15
100
AcDbLine
 10
-0.2550786568
 20
6.6824147475
 30
0.0
 11
-0.2524330704
 21
6.6747550434
 31
0.0
  0
LINE
  5
1E4
330
1F
100
AcDbEntity
  8
0
  6
Continuous
 62
     7
370
    15
100
AcDbLine
 10
-3.7382106913
 20
4.8884848371
 30
0.0
 11
-3.7355651049
 21
4.8808251331
 31
0.0
  0
LINE
  5
1E5
330
1F
100
AcDbEntity
  8
0
  6
Continuous
 62
     7
370
    15
100
AcDbLine
 10
-3.894290392
 20
5.4363804274
 30
0.0
 11
-3.7382106913
 21
4.8884848371
 31
0.0
  0
LINE
  5
1E6
330
1F
100
AcDbEntity
  8
0
  6
Continuous
 62
     7
370
    15
100
AcDbLine
 10
-0.0399372541
 20
6.1461758385
 30
0.0
 11
-0.0425828405
 21
6.1538355425
 31
0.0
  0
LINE
  5
1E7
330
1F
100
AcDbEntity
  8
0
  6
Continuous
 62
     7
370
    15
100
AcDbLine
 10
-0.0425828405
 20
6.1538355425
 30
0.0
 11
-0.2550786568
 21
6.6824147475
 31
0.0
  0
LINE
  5
1E8
330
1F
100
AcDbEntity
  8
0
  6
Continuous
 62
     7
370
    15
100
AcDbLine
 10
-1.6045720246
 20
5.773020424
 30
0.0
 11
-1.607217611
 21
5.7806801281
 31
0.0
  0
LINE
  5
1E9
330
1F
100
AcDbEntity
  8
0
  6
Continuous
 62
     7
370
    15
100
AcDbLine
 10
-2.2732146136
 20
5.5526485699
 30
0.0
 11
-2.2705690272
 21
5.5449888659
 31
0.0
  0
LINE
  5
1EA
330
1F
100
AcDbEntity
  8
0
  6
Continuous
 62
     7
370
    15
100
AcDbLine
 10
-3.81685369
 20
4.619532384
 30
0.0
 11
-3.8194992764
 21
4.6271920881
 31
0.0
  0
LINE
  5
1EB
330
1F
100
AcDbEntity
  8
0
  6
Continuous
 62
     7
370
    15
100
AcDbLine
 10
0.1818000268
 20
5.9972020296
 30
0.0
 11
0.1844456132
 21
5.9895423256
 31
0.0
  0
LINE
  5
1EC
330
1F
100
AcDbEntity
  8
0
  6
Continuous
 62
     7
370
    15
100
AcDbLine
 10
-5.7815580966
 20
3.6865403633
 30
0.0
 11
-5.7789125102
 21
3.6788806592
 31
0.0
  0
LINE
  5
1ED
330
1F
100
AcDbEntity
  8
0
  6
Continuous
 62
     7
370
    15
100
AcDbLine
 10
-5.4271670441
 20
4.1907977695
 30
0.0
 11
-5.7815580966
 21
3.6865403633
 31
0.0
  0
LINE
  5
1EE
330
1F
100
AcDbEntity
  8
0
  6
Continuous
 62
     7
370
    15
100
AcDbLine
 10
-5.4245214577
 20
4.1831380655
 30
0.0
 11
-5.4271670441
 21
4.1907977695
 31
0.0
  0
LINE
  5
1EF
330
1F
100
AcDbEntity
  8
0
  6
Continuous
 62
     7
370
    15
100
AcDbLine
 10
-5.1367159137
 20
4.2818239139
 30
0.0
 11
-5.1340703273
 21
4.2741642098
 31
0.0
  0
LINE
  5
1F0
330
1F
100
AcDbEntity
  8
0
  6
Continuous
 62
     7
370
    15
100
AcDbLine
 10
1.4369154354
 20
6.5240123563
 30
0.0
 11
1.434269849
 21
6.5316720603
 31
0.0
  0
LINE
  5
1F1
330
1F
100
AcDbEntity
  8
0
  6
Continuous
 62
     7
370
    15
100
AcDbLine
 10
1.7195590321
 20
6.6377743718
 30
0.0
 11
1.7222046185
 21
6.6301146678
 31
0.0
  0
LINE
  5
1F2
330
1F
100
AcDbEntity
  8
0
  6
Continuous
 62
     7
370
    15
100
AcDbLine
 10
1.1315385633
 20
6.0490672162
 30
0.0
 11
1.1341841497
 21
6.0414075122
 31
0.0
  0
LINE
  5
1F3
330
1F
100
AcDbEntity
  8
0
  6
Continuous
 62
     7
370
    15
100
AcDbLine
 10
1.434269849
 20
6.5316720603
 30
0.0
 11
1.1315385633
 21
6.0490672162
 31
0.0
  0
LINE
  5
1F4
330
1F
100
AcDbEntity
  8
0
  6
Continuous
 62
     7
370
    15
100
AcDbLine
 10
-4.3351697958
 20
4.1479917283
 30
0.0
 11
-4.3325242094
 21
4.1403320243
 31
0.0
  0
LINE
  5
1F5
330
1F
100
AcDbEntity
  8
0
  6
Continuous
 62
     7
370
    15
100
AcDbLine
 10
-4.5990686346
 20
4.0783918224
 30
0.0
 11
-4.601714221
 21
4.0860515264
 31
0.0
  0
LINE
  5
1F6
330
1F
100
AcDbEntity
  8
0
  6
Continuous
 62
     7
370
    15
100
AcDbLine
 10
-4.601714221
 20
4.0860515264
 30
0.0
 11
-5.1367159137
 21
4.2818239139
 31
0.0
  0
LINE
  5
1F7
330
1F
100
AcDbEntity
  8
0
  6
Continuous
 62
     7
370
    15
100
AcDbLine
 10
2.3086505722
 20
6.4565571667
 30
0.0
 11
1.7195590321
 21
6.6377743718
 31
0.0
  0
LINE
  5
1F8
330
1F
100
AcDbEntity
  8
0
  6
Continuous
 62
     7
370
    15
100
AcDbLine
 10
2.3112961586
 20
6.4488974626
 30
0.0
 11
2.3086505722
 21
6.4565571667
 31
0.0
  0
LINE
  5
1F9
330
1F
100
AcDbEntity
  8
0
  6
Continuous
 62
     7
370
    15
100
AcDbLine
 10
0.8856121669
 20
5.9269763541
 30
0.0
 11
0.8829665805
 21
5.9346360581
 31
0.0
  0
LINE
  5
1FA
330
1F
100
AcDbEntity
  8
0
  6
Continuous
 62
     7
370
    15
100
AcDbLine
 10
-1.2613060541
 20
4.1937818018
 30
0.0
 11
-1.2639516405
 21
4.2014415058
 31
0.0
  0
LINE
  5
1FB
330
1F
100
AcDbEntity
  8
0
  6
Continuous
 62
     7
370
    15
100
AcDbLine
 10
-5.3687092315
 20
2.6659607953
 30
0.0
 11
-5.3713548179
 21
2.6736204993
 31
0.0
  0
LINE
  5
1FC
330
1F
100
AcDbEntity
  8
0
  6
Continuous
 62
     7
370
    15
100
AcDbLine
 10
2.6053797909
 20
5.4047847755
 30
0.0
 11
2.6080253773
 21
5.3971250714
 31
0.0
  0
LINE
  5
1FD
330
1F
100
AcDbEntity
  8
0
  6
Continuous
 62
     7
370
    15
100
AcDbLine
 10
-1.0046929245
 20
2.0592491832
 30
0.0
 11
-1.0020473381
 21
2.0515894791
 31
0.0
  0
LINE
  5
1FE
330
1F
100
AcDbEntity
  8
0
  6
Continuous
 62
     7
370
    15
100
AcDbLine
 10
-1.0046929245
 20
2.0592491832
 30
0.0
 11
-1.2639516405
 21
4.2014415058
 31
0.0
  0
LINE
  5
1FF
330
1F
100
AcDbEntity
  8
0
  6
Continuous
 62
     7
370
    15
100
AcDbLine
 10
-5.6475347365
 20
2.0261094335
 30
0.0
 11
-5.6448891501
 21
2.0184497295
 31
0.0
  0
LINE
  5
200
330
1F
100
AcDbEntity
  8
0
  6
Continuous
 62
     7
370
    15
100
AcDbLine
 10
3.2231234152
 20
5.0547797952
 30
0.0
 11
3.2204778288
 21
5.0624394992
 31
0.0
  0
LINE
  5
201
330
1F
100
AcDbEntity
  8
0
  6
Continuous
 62
     7
370
    15
100
AcDbLine
 10
3.4941027681
 20
5.0658751189
 30
0.0
 11
3.4967483545
 21
5.0582154149
 31
0.0
  0
LINE
  5
202
330
1F
100
AcDbEntity
  8
0
  6
Continuous
 62
     7
370
    15
100
AcDbLine
 10
3.9669552773
 20
5.3836264649
 30
0.0
 11
3.4941027681
 21
5.0658751189
 31
0.0
  0
LINE
  5
203
330
1F
100
AcDbEntity
  8
0
  6
Continuous
 62
     7
370
    15
100
AcDbLine
 10
3.9696008637
 20
5.3759667609
 30
0.0
 11
3.9669552773
 21
5.3836264649
 31
0.0
  0
LINE
  5
204
330
1F
100
AcDbEntity
  8
0
  6
Continuous
 62
     7
370
    15
100
AcDbLine
 10
-6.6598914242
 20
1.6134024796
 30
0.0
 11
-6.6625370106
 21
1.6210621836
 31
0.0
  0
LINE
  5
205
330
1F
100
AcDbEntity
  8
0
  6
Continuous
 62
     7
370
    15
100
AcDbLine
 10
-6.4342200088
 20
1.8223548715
 30
0.0
 11
-6.4315744224
 21
1.8146951674
 31
0.0
  0
LINE
  5
206
330
1F
100
AcDbEntity
  8
0
  6
Continuous
 62
     7
370
    15
100
AcDbLine
 10
-5.8631966358
 20
1.8534519825
 30
0.0
 11
-5.8658422222
 21
1.8611116866
 31
0.0
  0
LINE
  5
207
330
1F
100
AcDbEntity
  8
0
  6
Continuous
 62
     7
370
    15
100
AcDbLine
 10
-5.8658422222
 20
1.8611116866
 30
0.0
 11
-6.4342200088
 21
1.8223548715
 31
0.0
  0
LINE
  5
208
330
1F
100
AcDbEntity
  8
0
  6
Continuous
 62
     7
370
    15
100
AcDbLine
 10
4.2707353035
 20
5.3645191531
 30
0.0
 11
4.2733808899
 21
5.3568594491
 31
0.0
  0
LINE
  5
209
330
1F
100
AcDbEntity
  8
0
  6
Continuous
 62
     7
370
    15
100
AcDbLine
 10
-6.7811887877
 20
1.0162582637
 30
0.0
 11
-6.7785432013
 21
1.0085985597
 31
0.0
  0
LINE
  5
20A
330
1F
100
AcDbEntity
  8
0
  6
Continuous
 62
     7
370
    15
100
AcDbLine
 10
-6.6625370106
 20
1.6210621836
 30
0.0
 11
-6.7811887877
 21
1.0162582637
 31
0.0
  0
LINE
  5
20B
330
1F
100
AcDbEntity
  8
0
  6
Continuous
 62
     7
370
    15
100
AcDbLine
 10
4.7351878365
 20
4.9593650572
 30
0.0
 11
4.2707353035
 21
5.3645191531
 31
0.0
  0
LINE
  5
20C
330
1F
100
AcDbEntity
  8
0
  6
Continuous
 62
     7
370
    15
100
AcDbLine
 10
4.7378334229
 20
4.9517053532
 30
0.0
 11
4.7351878365
 21
4.9593650572
 31
0.0
  0
LINE
  5
20D
330
1F
100
AcDbEntity
  8
0
  6
Continuous
 62
     7
370
    15
100
AcDbLine
 10
-5.9918087278
 20
0.2500959331
 30
0.0
 11
-5.9944543142
 21
0.2577556372
 31
0.0
  0
LINE
  5
20E
330
1F
100
AcDbEntity
  8
0
  6
Continuous
 62
     7
370
    15
100
AcDbLine
 10
4.5784657201
 20
3.8778311327
 30
0.0
 11
4.5811113065
 21
3.8701714287
 31
0.0
  0
LINE
  5
20F
330
1F
100
AcDbEntity
  8
0
  6
Continuous
 62
     7
370
    15
100
AcDbLine
 10
-4.3816959919
 20
0.2251574995
 30
0.0
 11
-4.3790504055
 21
0.2174977954
 31
0.0
  0
LINE
  5
210
330
1F
100
AcDbEntity
  8
0
  6
Continuous
 62
     7
370
    15
100
AcDbLine
 10
-1.1982108312
 20
1.5916790224
 30
0.0
 11
-1.2008564176
 21
1.5993387265
 31
0.0
  0
LINE
  5
211
330
1F
100
AcDbEntity
  8
0
  6
Continuous
 62
     7
370
    15
100
AcDbLine
 10
-5.983389615
 20
-0.4461055889
 30
0.0
 11
-5.9807440286
 21
-0.453765293
 31
0.0
  0
LINE
  5
212
330
1F
100
AcDbEntity
  8
0
  6
Continuous
 62
     7
370
    15
100
AcDbLine
 10
5.0037847897
 20
3.307241456
 30
0.0
 11
5.0011392033
 21
3.3149011601
 31
0.0
  0
LINE
  5
213
330
1F
100
AcDbEntity
  8
0
  6
Continuous
 62
     7
370
    15
100
AcDbLine
 10
-1.8396497341
 20
0.7846395845
 30
0.0
 11
-1.8370041477
 21
0.7769798805
 31
0.0
  0
LINE
  5
214
330
1F
100
AcDbEntity
  8
0
  6
Continuous
 62
     7
370
    15
100
AcDbLine
 10
0.7846539725
 20
1.8396418269
 30
0.0
 11
0.7872995589
 21
1.8319821229
 31
0.0
  0
LINE
  5
215
330
1F
100
AcDbEntity
  8
0
  6
Continuous
 62
     7
370
    15
100
AcDbLine
 10
-4.3816959919
 20
0.2251574995
 30
0.0
 11
-2.2394885193
 21
0.4844253936
 31
0.0
  0
LINE
  5
216
330
1F
100
AcDbEntity
  8
0
  6
Continuous
 62
     7
370
    15
100
AcDbLine
 10
-2.2368429328
 20
0.4767656895
 30
0.0
 11
-2.2394885193
 21
0.4844253936
 31
0.0
  0
LINE
  5
217
330
1F
100
AcDbEntity
  8
0
  6
Continuous
 62
     7
370
    15
100
AcDbLine
 10
-6.1130672272
 20
-0.6932909756
 30
0.0
 11
-6.1157128136
 21
-0.6856312716
 31
0.0
  0
LINE
  5
218
330
1F
100
AcDbEntity
  8
0
  6
Continuous
 62
     7
370
    15
100
AcDbLine
 10
5.2525048613
 20
3.2067471915
 30
0.0
 11
5.2551504477
 21
3.1990874875
 31
0.0
  0
LINE
  5
219
330
1F
100
AcDbEntity
  8
0
  6
Continuous
 62
     7
370
    15
100
AcDbLine
 10
1.6020007268
 20
1.1931970597
 30
0.0
 11
1.5993551404
 21
1.2008567637
 31
0.0
  0
LINE
  5
21A
330
1F
100
AcDbEntity
  8
0
  6
Continuous
 62
     7
370
    15
100
AcDbLine
 10
-6.6191890113
 20
-0.9522158838
 30
0.0
 11
-6.6165434249
 21
-0.9598755879
 31
0.0
  0
LINE
  5
21B
330
1F
100
AcDbEntity
  8
0
  6
Continuous
 62
     7
370
    15
100
AcDbLine
 10
-6.1157128136
 20
-0.6856312716
 30
0.0
 11
-6.6191890113
 21
-0.9522158838
 31
0.0
  0
LINE
  5
21C
330
1F
100
AcDbEntity
  8
0
  6
Continuous
 62
     7
370
    15
100
AcDbLine
 10
5.8137180994
 20
3.3047029451
 30
0.0
 11
5.2525048613
 21
3.2067471915
 31
0.0
  0
LINE
  5
21D
330
1F
100
AcDbEntity
  8
0
  6
Continuous
 62
     7
370
    15
100
AcDbLine
 10
5.8163636859
 20
3.297043241
 30
0.0
 11
5.8137180994
 21
3.3047029451
 31
0.0
  0
LINE
  5
21E
330
1F
100
AcDbEntity
  8
0
  6
Continuous
 62
     7
370
    15
100
AcDbLine
 10
-6.7432482143
 20
-1.2366294848
 30
0.0
 11
-6.7458938007
 21
-1.2289697807
 31
0.0
  0
LINE
  5
21F
330
1F
100
AcDbEntity
  8
0
  6
Continuous
 62
     7
370
    15
100
AcDbLine
 10
6.0834626425
 20
3.1636898377
 30
0.0
 11
6.0861082289
 21
3.1560301337
 31
0.0
  0
LINE
  5
220
330
1F
100
AcDbEntity
  8
0
  6
Continuous
 62
     7
370
    15
100
AcDbLine
 10
-6.6082903321
 20
-1.8297441221
 30
0.0
 11
-6.6056447457
 21
-1.8374038261
 31
0.0
  0
LINE
  5
221
330
1F
100
AcDbEntity
  8
0
  6
Continuous
 62
     7
370
    15
100
AcDbLine
 10
-6.7458938007
 20
-1.2289697807
 30
0.0
 11
-6.6082903321
 21
-1.8297441221
 31
0.0
  0
LINE
  5
222
330
1F
100
AcDbEntity
  8
0
  6
Continuous
 62
     7
370
    15
100
AcDbLine
 10
6.342968106
 20
2.604653675
 30
0.0
 11
6.0834626425
 21
3.1636898377
 31
0.0
  0
LINE
  5
223
330
1F
100
AcDbEntity
  8
0
  6
Continuous
 62
     7
370
    15
100
AcDbLine
 10
6.3456136924
 20
2.596993971
 30
0.0
 11
6.342968106
 21
2.604653675
 31
0.0
  0
LINE
  5
224
330
1F
100
AcDbEntity
  8
0
  6
Continuous
 62
     7
370
    15
100
AcDbLine
 10
2.059267574
 20
1.0046968676
 30
0.0
 11
2.0619131604
 21
0.9970371636
 31
0.0
  0
LINE
  5
225
330
1F
100
AcDbEntity
  8
0
  6
Continuous
 62
     7
370
    15
100
AcDbLine
 10
4.204120633
 20
1.2563050577
 30
0.0
 11
4.2014750466
 21
1.2639647617
 31
0.0
  0
LINE
  5
226
330
1F
100
AcDbEntity
  8
0
  6
Continuous
 62
     7
370
    15
100
AcDbLine
 10
-6.6009030872
 20
-1.8555446456
 30
0.0
 11
-6.6082903321
 21
-1.8297441221
 31
0.0
  0
LINE
  5
227
330
1F
100
AcDbEntity
  8
0
  6
Continuous
 62
     7
370
    15
100
AcDbLine
 10
6.342968106
 20
2.604653675
 30
0.0
 11
6.3525106673
 21
2.5810084028
 31
0.0
  0
LINE
  5
228
330
1F
100
AcDbEntity
  8
0
  6
Continuous
 62
     7
370
    15
100
AcDbLine
 10
-4.6140058912
 20
-1.9235717901
 30
0.0
 11
-4.6015571091
 21
-1.9559320542
 31
0.0
  0
LINE
  5
229
330
1F
100
AcDbEntity
  8
0
  6
Continuous
 62
     7
370
    15
100
AcDbLine
 10
-4.6015571091
 20
-1.9559320542
 30
0.0
 11
-4.5989115227
 21
-1.9635917582
 31
0.0
  0
LINE
  5
22A
330
1F
100
AcDbEntity
  8
0
  6
Continuous
 62
     7
370
    15
100
AcDbLine
 10
2.059267574
 20
1.0046968676
 30
0.0
 11
4.2014750466
 21
1.2639647617
 31
0.0
  0
LINE
  5
22B
330
1F
100
AcDbEntity
  8
0
  6
Continuous
 62
     7
370
    15
100
AcDbLine
 10
-0.7990863576
 20
-4.9429314888
 30
0.0
 11
-0.801731944
 21
-4.9352717848
 31
0.0
  0
LINE
  5
22C
330
1F
100
AcDbEntity
  8
0
  6
Continuous
 62
     7
370
    15
100
AcDbLine
 10
-5.3054755136
 20
-3.1214820581
 30
0.0
 11
-5.3081211
 21
-3.1138223541
 31
0.0
  0
LINE
  5
22D
330
1F
100
AcDbEntity
  8
0
  6
Continuous
 62
     7
370
    15
100
AcDbLine
 10
6.1027011465
 20
0.7931435423
 30
0.0
 11
6.1053467329
 21
0.7854838383
 31
0.0
  0
LINE
  5
22E
330
1F
100
AcDbEntity
  8
0
  6
Continuous
 62
     7
370
    15
100
AcDbLine
 10
-5.6596401002
 20
-3.5621398622
 30
0.0
 11
-5.6569945138
 21
-3.5697995662
 31
0.0
  0
LINE
  5
22F
330
1F
100
AcDbEntity
  8
0
  6
Continuous
 62
     7
370
    15
100
AcDbLine
 10
-5.3081211
 20
-3.1138223541
 30
0.0
 11
-5.6596401002
 21
-3.5621398622
 31
0.0
  0
LINE
  5
230
330
1F
100
AcDbEntity
  8
0
  6
Continuous
 62
     7
370
    15
100
AcDbLine
 10
6.6552362463
 20
0.6543662637
 30
0.0
 11
6.1027011465
 21
0.7931435423
 31
0.0
  0
LINE
  5
231
330
1F
100
AcDbEntity
  8
0
  6
Continuous
 62
     7
370
    15
100
AcDbLine
 10
6.6578818327
 20
0.6467065597
 30
0.0
 11
6.6552362463
 21
0.6543662637
 31
0.0
  0
LINE
  5
232
330
1F
100
AcDbEntity
  8
0
  6
Continuous
 62
     7
370
    15
100
AcDbLine
 10
-0.4817942817
 20
-2.2471362126
 30
0.0
 11
-0.4844398681
 21
-2.2394765085
 31
0.0
  0
LINE
  5
233
330
1F
100
AcDbEntity
  8
0
  6
Continuous
 62
     7
370
    15
100
AcDbLine
 10
4.9379451868
 20
-0.8093614668
 30
0.0
 11
4.9352996004
 21
-0.8017017628
 31
0.0
  0
LINE
  5
234
330
1F
100
AcDbEntity
  8
0
  6
Continuous
 62
     7
370
    15
100
AcDbLine
 10
1.9559213756
 20
-4.6015174785
 30
0.0
 11
1.958566962
 21
-4.6091771826
 31
0.0
  0
LINE
  5
235
330
1F
100
AcDbEntity
  8
0
  6
Continuous
 62
     7
370
    15
100
AcDbLine
 10
-0.2251811521
 20
-4.3816688312
 30
0.0
 11
-0.2225355657
 21
-4.3893285352
 31
0.0
  0
LINE
  5
236
330
1F
100
AcDbEntity
  8
0
  6
Continuous
 62
     7
370
    15
100
AcDbLine
 10
-0.2251811521
 20
-4.3816688312
 30
0.0
 11
-0.4844398681
 21
-2.2394765085
 31
0.0
  0
LINE
  5
237
330
1F
100
AcDbEntity
  8
0
  6
Continuous
 62
     7
370
    15
100
AcDbLine
 10
-3.5800614391
 20
-5.0112649674
 30
0.0
 11
-3.5827070255
 21
-5.0036052634
 31
0.0
  0
LINE
  5
238
330
1F
100
AcDbEntity
  8
0
  6
Continuous
 62
     7
370
    15
100
AcDbLine
 10
5.8976849622
 20
-1.7576018309
 30
0.0
 11
5.9003305486
 21
-1.7652615349
 31
0.0
  0
LINE
  5
239
330
1F
100
AcDbEntity
  8
0
  6
Continuous
 62
     7
370
    15
100
AcDbLine
 10
-3.7214879997
 20
-5.5561374973
 30
0.0
 11
-3.7188424133
 21
-5.5637972014
 31
0.0
  0
LINE
  5
23A
330
1F
100
AcDbEntity
  8
0
  6
Continuous
 62
     7
370
    15
100
AcDbLine
 10
-3.5827070255
 20
-5.0036052634
 30
0.0
 11
-3.7214879997
 21
-5.5561374973
 31
0.0
  0
LINE
  5
23B
330
1F
100
AcDbEntity
  8
0
  6
Continuous
 62
     7
370
    15
100
AcDbLine
 10
6.3460035852
 20
-2.1091162894
 30
0.0
 11
5.8976849622
 21
-1.7576018309
 31
0.0
  0
LINE
  5
23C
330
1F
100
AcDbEntity
  8
0
  6
Continuous
 62
     7
370
    15
100
AcDbLine
 10
6.3486491716
 20
-2.1167759934
 30
0.0
 11
6.3460035852
 21
-2.1091162894
 31
0.0
  0
LINE
  5
23D
330
1F
100
AcDbEntity
  8
0
  6
Continuous
 62
     7
370
    15
100
AcDbLine
 10
-1.235164772
 20
-6.0358790703
 30
0.0
 11
-1.2378103584
 21
-6.0282193663
 31
0.0
  0
LINE
  5
23E
330
1F
100
AcDbEntity
  8
0
  6
Continuous
 62
     7
370
    15
100
AcDbLine
 10
4.6729054691
 20
-4.0044418801
 30
0.0
 11
4.6755510555
 21
-4.0121015842
 31
0.0
  0
LINE
  5
23F
330
1F
100
AcDbEntity
  8
0
  6
Continuous
 62
     7
370
    15
100
AcDbLine
 10
-1.1398568153
 20
-6.5894284833
 30
0.0
 11
-1.1372112289
 21
-6.5970881873
 31
0.0
  0
LINE
  5
240
330
1F
100
AcDbEntity
  8
0
  6
Continuous
 62
     7
370
    15
100
AcDbLine
 10
-1.2378103584
 20
-6.0282193663
 30
0.0
 11
-1.1398568153
 21
-6.5894284833
 31
0.0
  0
LINE
  5
241
330
1F
100
AcDbEntity
  8
0
  6
Continuous
 62
     7
370
    15
100
AcDbLine
 10
4.9394892526
 20
-4.5079134753
 30
0.0
 11
4.6729054691
 21
-4.0044418801
 31
0.0
  0
LINE
  5
242
330
1F
100
AcDbEntity
  8
0
  6
Continuous
 62
     7
370
    15
100
AcDbLine
 10
4.942134839
 20
-4.5155731794
 30
0.0
 11
4.9394892526
 21
-4.5079134753
 31
0.0
  0
LINE
  5
243
330
1F
100
AcDbEntity
  8
0
  6
Continuous
 62
     7
370
    15
100
AcDbLine
 10
4.9394892526
 20
-4.5079134753
 30
0.0
 11
4.9548515296
 21
-4.5432820704
 31
0.0
  0
LINE
  5
244
330
1F
100
AcDbEntity
  8
0
  6
Continuous
 62
     7
370
    15
100
AcDbLine
 10
-1.1298824031
 20
-6.628059126
 30
0.0
 11
-1.1398568153
 21
-6.5894284833
 31
0.0
  0
ARC
  5
245
330
1F
100
AcDbEntity
  8
0
  6
Continuous
 62
     7
370
    15
100
AcDbCircle
 10
2.3022097851
 20
-0.9884653435
 30
0.0
 40
0.5000024357888463
100
AcDbArc
 50
96.9008042223
 51
156.9004309161
  0
ARC
  5
246
330
1F
100
AcDbEntity
  8
0
  6
Continuous
 62
     7
370
    15
100
AcDbCircle
 10
0.0026440791
 20
-0.0076401569
 30
0.0
 40
2.000001660766885
100
AcDbArc
 50
306.9005902777
 51
336.9004906324
  0
ARC
  5
247
330
1F
100
AcDbEntity
  8
0
  6
Continuous
 62
     7
370
    15
100
AcDbCircle
 10
1.5037140305
 20
-2.0068360711
 30
0.0
 40
0.4999973996778825
100
AcDbArc
 50
126.900497971
 51
186.9005435632
  0
ARC
  5
248
330
1F
100
AcDbEntity
  8
0
  6
Continuous
 62
     7
370
    15
100
AcDbCircle
 10
1.7629721115
 20
-4.1490252495
 30
0.0
 40
0.4999971470572824
100
AcDbArc
 50
186.9009100006
 51
293.0286853068
  0
ARC
  5
249
330
1F
100
AcDbEntity
  8
0
  6
Continuous
 62
     7
370
    15
100
AcDbCircle
 10
0.0026419363
 20
-0.0076152178
 30
0.0
 40
5.000001522202108
100
AcDbArc
 50
293.0282465801
 51
350.77283433
  0
ARC
  5
24A
330
1F
100
AcDbEntity
  8
0
  6
Continuous
 62
     7
370
    15
100
AcDbCircle
 10
4.4444196086
 20
-0.7291896857
 30
0.0
 40
0.4999950107723034
100
AcDbArc
 50
350.773068764
 51
96.9011785606
  0
ARC
  5
24B
330
1F
100
AcDbEntity
  8
0
  6
Continuous
 62
     7
370
    15
100
AcDbCircle
 10
-0.9781657204
 20
-2.3072099567
 30
0.0
 40
0.4999934598594719
100
AcDbArc
 50
6.900705325
 51
66.9010786321
  0
ARC
  5
24C
330
1F
100
AcDbEntity
  8
0
  6
Continuous
 62
     7
370
    15
100
AcDbCircle
 10
0.0026260394
 20
-0.0076612113
 30
0.0
 40
1.999981921794558
100
AcDbArc
 50
216.9009192704
 51
246.9010189145
  0
ARC
  5
24D
330
1F
100
AcDbEntity
  8
0
  6
Continuous
 62
     7
370
    15
100
AcDbCircle
 10
-1.9965453801
 20
-1.5087327367
 30
0.0
 40
0.4999984959521495
100
AcDbArc
 50
36.9010115772
 51
96.9009659818
  0
ARC
  5
24E
330
1F
100
AcDbEntity
  8
0
  6
Continuous
 62
     7
370
    15
100
AcDbCircle
 10
-4.138755997
 20
-1.7680012658
 30
0.0
 40
0.4999987485607091
100
AcDbArc
 50
96.9005995481
 51
203.0280646649
  0
ARC
  5
24F
330
1F
100
AcDbEntity
  8
0
  6
Continuous
 62
     7
370
    15
100
AcDbCircle
 10
0.0026011004
 20
-0.0076633539
 30
0.0
 40
4.999957434144164
100
AcDbArc
 50
203.0285033949
 51
260.77343479
  0
ARC
  5
250
330
1F
100
AcDbEntity
  8
0
  6
Continuous
 62
     7
370
    15
100
AcDbCircle
 10
-0.7189147681
 20
-4.4493999284
 30
0.0
 40
0.5000008848584868
100
AcDbArc
 50
260.7732003578
 51
6.9003309869
  0
ARC
  5
251
330
1F
100
AcDbEntity
  8
0
  6
Continuous
 62
     7
370
    15
100
AcDbCircle
 10
6.1957533664
 20
-0.8489652042
 30
0.0
 40
0.2500003196375202
100
AcDbArc
 50
105.900675922
 51
172.26348679
  0
ARC
  5
252
330
1F
100
AcDbEntity
  8
0
  6
Continuous
 62
     7
370
    15
100
AcDbCircle
 10
0.0027016424
 20
-0.007627175
 30
0.0
 40
5.99993882693422
100
AcDbArc
 50
345.5374761099
 51
352.2636248612
  0
ARC
  5
253
330
1F
100
AcDbEntity
  8
0
  6
Continuous
 62
     7
370
    15
100
AcDbCircle
 10
6.0545837794
 20
-1.5685280099
 30
0.0
 40
0.2499962780961145
100
AcDbArc
 50
165.5374410604
 51
231.901002271
  0
ARC
  5
254
330
1F
100
AcDbEntity
  8
0
  6
Continuous
 62
     7
370
    15
100
AcDbCircle
 10
6.1943958139
 20
-2.3135095884
 30
0.0
 40
0.2499964114782436
100
AcDbArc
 50
336.9004441852
 51
51.9009892947
  0
ARC
  5
255
330
1F
100
AcDbEntity
  8
0
  6
Continuous
 62
     7
370
    15
100
AcDbCircle
 10
5.9525858315
 20
-2.8804267141
 30
0.0
 40
0.2500014030220056
100
AcDbArc
 50
261.9009300487
 51
336.9004133044
  0
ARC
  5
256
330
1F
100
AcDbEntity
  8
0
  6
Continuous
 62
     7
370
    15
100
AcDbCircle
 10
5.3181280975
 20
-3.2951809856
 30
0.0
 40
0.250001610455608
100
AcDbArc
 50
81.9009504011
 51
148.2635216235
  0
ARC
  5
257
330
1F
100
AcDbEntity
  8
0
  6
Continuous
 62
     7
370
    15
100
AcDbCircle
 10
0.0026471367
 20
-0.0076037392
 30
0.0
 40
5.999998549247116
100
AcDbArc
 50
321.5374794624
 51
328.2635835587
  0
ARC
  5
258
330
1F
100
AcDbEntity
  8
0
  6
Continuous
 62
     7
370
    15
100
AcDbCircle
 10
4.8964884648
 20
-3.895117577
 30
0.0
 40
0.2499971934967022
100
AcDbArc
 50
141.5373521963
 51
207.9007434541
  0
ARC
  5
259
330
1F
100
AcDbEntity
  8
0
  6
Continuous
 62
     7
370
    15
100
AcDbCircle
 10
4.7211970193
 20
-4.6325572191
 30
0.0
 40
0.2499975713887101
100
AcDbArc
 50
312.9004076832
 51
27.9007060409
  0
ARC
  5
25A
330
1F
100
AcDbEntity
  8
0
  6
Continuous
 62
     7
370
    15
100
AcDbCircle
 10
4.2697057526
 20
-5.0521122602
 30
0.0
 40
0.2500012811610361
100
AcDbArc
 50
237.901108069
 51
312.9006172479
  0
ARC
  5
25B
330
1F
100
AcDbEntity
  8
0
  6
Continuous
 62
     7
370
    15
100
AcDbCircle
 10
3.5214068846
 20
-5.1729535096
 30
0.0
 40
0.2500011565645588
100
AcDbArc
 50
57.9010954266
 51
124.2637509155
  0
ARC
  5
25C
330
1F
100
AcDbEntity
  8
0
  6
Continuous
 62
     7
370
    15
100
AcDbCircle
 10
0.0026162617
 20
-0.0075722356
 30
0.0
 40
6.000042935631375
100
AcDbArc
 50
297.5376248224
 51
304.2636957311
  0
ARC
  5
25D
330
1F
100
AcDbEntity
  8
0
  6
Continuous
 62
     7
370
    15
100
AcDbCircle
 10
2.8922039672
 20
-5.5495313367
 30
0.0
 40
0.2499992870669255
100
AcDbArc
 50
117.5374895579
 51
183.9004921284
  0
ARC
  5
25E
330
1F
100
AcDbEntity
  8
0
  6
Continuous
 62
     7
370
    15
100
AcDbCircle
 10
2.4321173459
 20
-6.1519169527
 30
0.0
 40
0.2499996594042787
100
AcDbArc
 50
288.9006008644
 51
3.9004550366
  0
ARC
  5
25F
330
1F
100
AcDbEntity
  8
0
  6
Continuous
 62
     7
370
    15
100
AcDbCircle
 10
1.8490117594
 20
-6.3515672422
 30
0.0
 40
0.2499996324993556
100
AcDbArc
 50
213.9010523014
 51
288.9009121971
  0
ARC
  5
260
330
1F
100
AcDbEntity
  8
0
  6
Continuous
 62
     7
370
    15
100
AcDbCircle
 10
1.1162605658
 20
-6.1575988198
 30
0.0
 40
0.249999258325008
100
AcDbArc
 50
33.9010150299
 51
100.2640229366
  0
ARC
  5
261
330
1F
100
AcDbEntity
  8
0
  6
Continuous
 62
     7
370
    15
100
AcDbCircle
 10
0.0026147184
 20
-0.007573102
 30
0.0
 40
6.000042613720785
100
AcDbArc
 50
273.5378159999
 51
280.2638871493
  0
ARC
  5
262
330
1F
100
AcDbEntity
  8
0
  6
Continuous
 62
     7
370
    15
100
AcDbCircle
 10
0.3882878666
 20
-6.2457061211
 30
0.0
 40
0.2500011734148234
100
AcDbArc
 50
93.5377622456
 51
159.9004146062
  0
ARC
  5
263
330
1F
100
AcDbEntity
  8
0
  6
Continuous
 62
     7
370
    15
100
AcDbCircle
 10
-0.2770391639
 20
-6.6088780026
 30
0.0
 40
0.2500012938065476
100
AcDbArc
 50
264.9008958917
 51
339.9004023804
  0
ARC
  5
264
330
1F
100
AcDbEntity
  8
0
  6
Continuous
 62
     7
370
    15
100
AcDbCircle
 10
-0.8909369127
 20
-6.5541028967
 30
0.0
 40
0.2499975480284667
100
AcDbArc
 50
189.9007996472
 51
264.9011029745
  0
ARC
  5
265
330
1F
100
AcDbEntity
  8
0
  6
Continuous
 62
     7
370
    15
100
AcDbCircle
 10
-1.4814387455
 20
-6.0788641362
 30
0.0
 40
0.2499971718827874
100
AcDbArc
 50
9.9007624103
 51
76.2641576808
  0
ARC
  5
266
330
1F
100
AcDbEntity
  8
0
  6
Continuous
 62
     7
370
    15
100
AcDbCircle
 10
0.0026096081
 20
-0.0076173459
 30
0.0
 40
5.999997796538366
100
AcDbArc
 50
249.5379264863
 51
256.2640311454
  0
ARC
  5
267
330
1F
100
AcDbEntity
  8
0
  6
Continuous
 62
     7
370
    15
100
AcDbCircle
 10
-2.1823104352
 20
-5.8632656375
 30
0.0
 40
0.2500016042636328
100
AcDbArc
 50
69.5379898127
 51
135.9005621846
  0
ARC
  5
268
330
1F
100
AcDbEntity
  8
0
  6
Continuous
 62
     7
370
    15
100
AcDbCircle
 10
-2.9378346127
 20
-5.9244290531
 30
0.0
 40
0.2500013930399808
100
AcDbArc
 50
240.9010975358
 51
315.9005829149
  0
ARC
  5
269
330
1F
100
AcDbEntity
  8
0
  6
Continuous
 62
     7
370
    15
100
AcDbCircle
 10
-3.4763773442
 20
-5.62469789
 30
0.0
 40
0.2499964071209445
100
AcDbArc
 50
165.9005172971
 51
240.9010633335
  0
ARC
  5
26A
330
1F
100
AcDbEntity
  8
0
  6
Continuous
 62
     7
370
    15
100
AcDbCircle
 10
-3.8225263695
 20
-4.9503642572
 30
0.0
 40
0.2499962779128544
100
AcDbArc
 50
345.9005047362
 51
52.2640659808
  0
ARC
  5
26B
330
1F
100
AcDbEntity
  8
0
  6
Continuous
 62
     7
370
    15
100
AcDbCircle
 10
0.0025809542
 20
-0.0076692221
 30
0.0
 40
5.999938141525874
100
AcDbArc
 50
225.5378831681
 51
232.2640324318
  0
ARC
  5
26C
330
1F
100
AcDbEntity
  8
0
  6
Continuous
 62
     7
370
    15
100
AcDbCircle
 10
-4.3751099922
 20
-4.4683364852
 30
0.0
 40
0.2500002945008153
100
AcDbArc
 50
45.5380216708
 51
111.9008372056
  0
ARC
  5
26D
330
1F
100
AcDbEntity
  8
0
  6
Continuous
 62
     7
370
    15
100
AcDbCircle
 10
-5.090194589
 20
-4.2169180976
 30
0.0
 40
0.2499998914371759
100
AcDbArc
 50
216.9010723623
 51
291.9008771743
  0
ARC
  5
26E
330
1F
100
AcDbEntity
  8
0
  6
Continuous
 62
     7
370
    15
100
AcDbCircle
 10
-5.4602620913
 20
-3.7240553158
 30
0.0
 40
0.2499969647519843
100
AcDbArc
 50
141.9003920954
 51
216.9008195048
  0
ARC
  5
26F
330
1F
100
AcDbEntity
  8
0
  6
Continuous
 62
     7
370
    15
100
AcDbCircle
 10
-5.5022081511
 20
-2.9672262532
 30
0.0
 40
0.2499971679836699
100
AcDbArc
 50
321.9004125227
 51
28.2638085172
  0
ARC
  5
270
330
1F
100
AcDbEntity
  8
0
  6
Continuous
 62
     7
370
    15
100
AcDbCircle
 10
0.0025539848
 20
-0.0076912398
 30
0.0
 40
5.999903124680084
100
AcDbArc
 50
201.5377147096
 51
208.2638901562
  0
ARC
  5
271
330
1F
100
AcDbEntity
  8
0
  6
Continuous
 62
     7
370
    15
100
AcDbCircle
 10
-5.8109546921
 20
-2.3021154198
 30
0.0
 40
0.2499981108550923
100
AcDbArc
 50
21.5378367368
 51
87.9010576793
  0
ARC
  5
272
330
1F
100
AcDbEntity
  8
0
  6
Continuous
 62
     7
370
    15
100
AcDbCircle
 10
-6.3619574239
 20
-1.7815882321
 30
0.0
 40
0.2499977826752913
100
AcDbArc
 50
192.9008370274
 51
267.9010904377
  0
ARC
  5
273
330
1F
100
AcDbEntity
  8
0
  6
Continuous
 62
     7
370
    15
100
AcDbCircle
 10
-6.4995595539
 20
-1.1808149458
 30
0.0
 40
0.2499988519197353
100
AcDbArc
 50
117.9005068928
 51
192.9005328412
  0
ARC
  5
274
330
1F
100
AcDbEntity
  8
0
  6
Continuous
 62
     7
370
    15
100
AcDbCircle
 10
-6.2300514397
 20
-0.4723513446
 30
0.0
 40
0.2499992531069429
100
AcDbArc
 50
297.9005467905
 51
4.2635556659
  0
ARC
  5
275
330
1F
100
AcDbEntity
  8
0
  6
Continuous
 62
     7
370
    15
100
AcDbCircle
 10
0.0025667529
 20
-0.0076900602
 30
0.0
 40
5.999915917840467
100
AcDbArc
 50
177.537532587
 51
184.2636984678
  0
ARC
  5
276
330
1F
100
AcDbEntity
  8
0
  6
Continuous
 62
     7
370
    15
100
AcDbCircle
 10
-6.2415743792
 20
0.2608369081
 30
0.0
 40
0.2499964983310648
100
AcDbArc
 50
357.5375573872
 51
63.9010777089
  0
ARC
  5
277
330
1F
100
AcDbEntity
  8
0
  6
Continuous
 62
     7
370
    15
100
AcDbCircle
 10
-6.5332230472
 20
0.9604710923
 30
0.0
 40
0.249996462202891
100
AcDbArc
 50
168.9005472606
 51
243.9010815792
  0
ARC
  5
278
330
1F
100
AcDbEntity
  8
0
  6
Continuous
 62
     7
370
    15
100
AcDbCircle
 10
-6.4145671235
 20
1.565273513
 30
0.0
 40
0.250000819818791
100
AcDbArc
 50
93.9007857212
 51
168.9003930402
  0
ARC
  5
279
330
1F
100
AcDbEntity
  8
0
  6
Continuous
 62
     7
370
    15
100
AcDbCircle
 10
-5.8802041008
 20
2.10287396
 30
0.0
 40
0.2500011534805541
100
AcDbArc
 50
273.9008186872
 51
340.2634747487
  0
ARC
  5
27A
330
1F
100
AcDbEntity
  8
0
  6
Continuous
 62
     7
370
    15
100
AcDbCircle
 10
0.0026174132
 20
-0.0077008775
 30
0.0
 40
5.999968055349446
100
AcDbArc
 50
153.5374573187
 51
160.2635842155
  0
ARC
  5
27B
330
1F
100
AcDbEntity
  8
0
  6
Continuous
 62
     7
370
    15
100
AcDbCircle
 10
-5.5925124154
 20
2.7773627562
 30
0.0
 40
0.2499965239902435
100
AcDbArc
 50
333.5373684802
 51
39.9008840381
  0
ARC
  5
27C
330
1F
100
AcDbEntity
  8
0
  6
Continuous
 62
     7
370
    15
100
AcDbCircle
 10
-5.5743767053
 20
3.5351325934
 30
0.0
 40
0.2499968038196578
100
AcDbArc
 50
144.9003948138
 51
219.900856459
  0
ARC
  5
27D
330
1F
100
AcDbEntity
  8
0
  6
Continuous
 62
     7
370
    15
100
AcDbCircle
 10
-5.219981511
 20
4.0393876104
 30
0.0
 40
0.2500015662083659
100
AcDbArc
 50
69.9010440696
 51
144.9004926112
  0
ARC
  5
27E
330
1F
100
AcDbEntity
  8
0
  6
Continuous
 62
     7
370
    15
100
AcDbCircle
 10
-4.5131574527
 20
4.3131684707
 30
0.0
 40
0.250001611546491
100
AcDbArc
 50
249.9010482894
 51
316.2636193093
  0
ARC
  5
27F
330
1F
100
AcDbEntity
  8
0
  6
Continuous
 62
     7
370
    15
100
AcDbCircle
 10
0.0026640405
 20
-0.0077329788
 30
0.0
 40
6.000025035946147
100
AcDbArc
 50
129.5375387119
 51
136.2636230041
  0
ARC
  5
280
330
1F
100
AcDbEntity
  8
0
  6
Continuous
 62
     7
370
    15
100
AcDbCircle
 10
-3.9759979501
 20
4.8123332914
 30
0.0
 40
0.249998170853132
100
AcDbArc
 50
309.5373950241
 51
15.9006048275
  0
ARC
  5
281
330
1F
100
AcDbEntity
  8
0
  6
Continuous
 62
     7
370
    15
100
AcDbCircle
 10
-3.6512115167
 20
5.4972125064
 30
0.0
 40
0.2499985814671795
100
AcDbArc
 50
120.9004805676
 51
195.9005640496
  0
ARC
  5
282
330
1F
100
AcDbEntity
  8
0
  6
Continuous
 62
     7
370
    15
100
AcDbCircle
 10
-3.1223565187
 20
5.8137316217
 30
0.0
 40
0.2500005971680301
100
AcDbArc
 50
45.9011109809
 51
120.9007656639
  0
ARC
  5
283
330
1F
100
AcDbEntity
  8
0
  6
Continuous
 62
     7
370
    15
100
AcDbCircle
 10
-2.3652874103
 20
5.7763513304
 30
0.0
 40
0.2500003241813867
100
AcDbArc
 50
225.9010836622
 51
292.2638936867
  0
ARC
  5
284
330
1F
100
AcDbEntity
  8
0
  6
Continuous
 62
     7
370
    15
100
AcDbCircle
 10
0.0026777125
 20
-0.0077527184
 30
0.0
 40
6.0000491532542
100
AcDbArc
 50
105.5377229048
 51
112.2637891646
  0
ARC
  5
285
330
1F
100
AcDbEntity
  8
0
  6
Continuous
 62
     7
370
    15
100
AcDbCircle
 10
-1.6715398736
 20
6.0138844557
 30
0.0
 40
0.2500003491348445
100
AcDbArc
 50
285.5376194517
 51
351.9004248434
  0
ARC
  5
286
330
1F
100
AcDbEntity
  8
0
  6
Continuous
 62
     7
370
    15
100
AcDbCircle
 10
-1.096261508
 20
6.5074488375
 30
0.0
 40
0.2500006188147191
100
AcDbArc
 50
96.9007477729
 51
171.900397851
  0
ARC
  5
287
330
1F
100
AcDbEntity
  8
0
  6
Continuous
 62
     7
370
    15
100
AcDbCircle
 10
-0.4843892588
 20
6.5815048228
 30
0.0
 40
0.2499985539561478
100
AcDbArc
 50
21.9009421764
 51
96.9010315108
  0
ARC
  5
288
330
1F
100
AcDbEntity
  8
0
  6
Continuous
 62
     7
370
    15
100
AcDbCircle
 10
0.1920186197
 20
6.2394257408
 30
0.0
 40
0.2499981432924855
100
AcDbArc
 50
201.9009013966
 51
268.2641163168
  0
ARC
  5
289
330
1F
100
AcDbEntity
  8
0
  6
Continuous
 62
     7
370
    15
100
AcDbCircle
 10
0.0026763385
 20
-0.0077281623
 30
0.0
 40
6.000024447788037
100
AcDbArc
 50
81.5378880108
 51
88.2639727428
  0
ARC
  5
28A
330
1F
100
AcDbEntity
  8
0
  6
Continuous
 62
     7
370
    15
100
AcDbCircle
 10
0.9224012253
 20
6.1742563045
 30
0.0
 40
0.2500016173799645
100
AcDbArc
 50
261.5378932498
 51
327.9004631867
  0
ARC
  5
28B
330
1F
100
AcDbEntity
  8
0
  6
Continuous
 62
     7
370
    15
100
AcDbCircle
 10
1.6486983285
 20
6.3911636076
 30
0.0
 40
0.2500015676661418
100
AcDbArc
 50
72.9010196098
 51
147.9004678413
  0
ARC
  5
28C
330
1F
100
AcDbEntity
  8
0
  6
Continuous
 62
     7
370
    15
100
AcDbCircle
 10
2.2377916683
 20
6.2099508488
 30
0.0
 40
0.249996788649358
100
AcDbArc
 50
357.9006493586
 51
72.9011142309
  0
ARC
  5
28D
330
1F
100
AcDbEntity
  8
0
  6
Continuous
 62
     7
370
    15
100
AcDbCircle
 10
2.7165796036
 20
5.6223232863
 30
0.0
 40
0.249996512060271
100
AcDbArc
 50
177.9006221032
 51
244.264139876
  0
ARC
  5
28E
330
1F
100
AcDbEntity
  8
0
  6
Continuous
 62
     7
370
    15
100
AcDbCircle
 10
0.0026935459
 20
-0.0076740246
 30
0.0
 40
5.999967268242935
100
AcDbArc
 50
57.5379247734
 51
64.2640522587
  0
ARC
  5
28F
330
1F
100
AcDbEntity
  8
0
  6
Continuous
 62
     7
370
    15
100
AcDbCircle
 10
3.3573089283
 20
5.2657177392
 30
0.0
 40
0.2500011363337747
100
AcDbArc
 50
237.5380352379
 51
303.9006944827
  0
ARC
  5
290
330
1F
100
AcDbEntity
  8
0
  6
Continuous
 62
     7
370
    15
100
AcDbCircle
 10
4.1090402226
 20
5.1684647965
 30
0.0
 40
0.250000800122966
100
AcDbArc
 50
48.9011161955
 51
123.9007277043
  0
ARC
  5
291
330
1F
100
AcDbEntity
  8
0
  6
Continuous
 62
     7
370
    15
100
AcDbCircle
 10
4.5734950858
 20
4.7633144147
 30
0.0
 40
0.249996469411993
100
AcDbArc
 50
333.9004262978
 51
48.9009590827
  0
ARC
  5
292
330
1F
100
AcDbEntity
  8
0
  6
Continuous
 62
     7
370
    15
100
AcDbCircle
 10
4.7718774301
 20
4.0317466158
 30
0.0
 40
0.2499965099262067
100
AcDbArc
 50
153.9004306032
 51
220.2639487723
  0
ARC
  5
293
330
1F
100
AcDbEntity
  8
0
  6
Continuous
 62
     7
370
    15
100
AcDbCircle
 10
0.0027267219
 20
-0.0076346566
 30
0.0
 40
5.99991545264359
100
AcDbArc
 50
33.5378088642
 51
40.2639750929
  0
ARC
  5
294
330
1F
100
AcDbEntity
  8
0
  6
Continuous
 62
     7
370
    15
100
AcDbCircle
 10
5.2121641552
 20
3.4453633304
 30
0.0
 40
0.2499992243267136
100
AcDbArc
 50
213.5379514571
 51
279.9009656757
  0
ARC
  5
295
330
1F
100
AcDbEntity
  8
0
  6
Continuous
 62
     7
370
    15
100
AcDbCircle
 10
5.8593500806
 20
3.0507678222
 30
0.0
 40
0.2499988241039317
100
AcDbArc
 50
24.9009736149
 51
99.9010054806
  0
ARC
  5
296
330
1F
100
AcDbEntity
  8
0
  6
Continuous
 62
     7
370
    15
100
AcDbCircle
 10
6.118855906
 20
2.4917332941
 30
0.0
 40
0.2499978074933052
100
AcDbArc
 50
309.9004206036
 51
24.9006687343
  0
ARC
  5
297
330
1F
100
AcDbEntity
  8
0
  6
Continuous
 62
     7
370
    15
100
AcDbCircle
 10
6.002532898
 20
1.7427195457
 30
0.0
 40
0.2499981383024899
100
AcDbArc
 50
129.9004536207
 51
196.2636694674
  0
ARC
  5
298
330
1F
100
AcDbEntity
  8
0
  6
Continuous
 62
     7
370
    15
100
AcDbCircle
 10
0.0027369645
 20
-0.0076280226
 30
0.0
 40
5.999903289229189
100
AcDbArc
 50
9.5376169847
 51
16.2637923081
  0
ARC
  5
299
330
1F
100
AcDbEntity
  8
0
  6
Continuous
 62
     7
370
    15
100
AcDbCircle
 10
6.1662451471
 20
1.027950241
 30
0.0
 40
0.2499971466150039
100
AcDbArc
 50
189.5376973461
 51
255.9010973079
  0
ARC
  5
29A
330
1F
100
AcDbEntity
  8
0
  6
Continuous
 62
     7
370
    15
100
AcDbCircle
 10
6.5969835519
 20
0.404240329
 30
0.0
 40
0.2499969472229839
100
AcDbArc
 50
0.9006862171
 51
75.9011173555
  0
ARC
  5
29B
330
1F
100
AcDbEntity
  8
0
  6
Continuous
 62
     7
370
    15
100
AcDbCircle
 10
6.6066681066
 20
-0.2120144215
 30
0.0
 40
0.249999917441162
100
AcDbArc
 50
285.9006360424
 51
0.9004353227
  0
ARC
  5
29C
330
1F
100
AcDbEntity
  8
0
  6
Continuous
 62
     7
370
    15
100
AcDbCircle
 10
-2.2969186123
 20
0.9731459354
 30
0.0
 40
0.5000024357888448
100
AcDbArc
 50
276.9008042223
 51
336.9004309161
  0
ARC
  5
29D
330
1F
100
AcDbEntity
  8
0
  6
Continuous
 62
     7
370
    15
100
AcDbCircle
 10
0.0026470937
 20
-0.0076792512
 30
0.0
 40
2.000001660766916
100
AcDbArc
 50
126.9005902777
 51
156.9004906324
  0
ARC
  5
29E
330
1F
100
AcDbEntity
  8
0
  6
Continuous
 62
     7
370
    15
100
AcDbCircle
 10
-1.4984228577
 20
1.991516663
 30
0.0
 40
0.499997399677884
100
AcDbArc
 50
306.900497971
 51
6.9005435632
  0
ARC
  5
29F
330
1F
100
AcDbEntity
  8
0
  6
Continuous
 62
     7
370
    15
100
AcDbCircle
 10
-1.7576809387
 20
4.1337058414
 30
0.0
 40
0.4999971470572853
100
AcDbArc
 50
6.9009100006
 51
113.0286853068
  0
ARC
  5
2A0
330
1F
100
AcDbEntity
  8
0
  6
Continuous
 62
     7
370
    15
100
AcDbCircle
 10
0.0026492365
 20
-0.0077041903
 30
0.0
 40
5.000001522202048
100
AcDbArc
 50
113.0282465801
 51
170.77283433
  0
ARC
  5
2A1
330
1F
100
AcDbEntity
  8
0
  6
Continuous
 62
     7
370
    15
100
AcDbCircle
 10
-4.4391284358
 20
0.7138702776
 30
0.0
 40
0.4999950107723051
100
AcDbArc
 50
170.773068764
 51
276.9011785606
  0
ARC
  5
2A2
330
1F
100
AcDbEntity
  8
0
  6
Continuous
 62
     7
370
    15
100
AcDbCircle
 10
0.9834568932
 20
2.2918905487
 30
0.0
 40
0.4999934598594717
100
AcDbArc
 50
186.900705325
 51
246.9010786321
  0
ARC
  5
2A3
330
1F
100
AcDbEntity
  8
0
  6
Continuous
 62
     7
370
    15
100
AcDbCircle
 10
0.0026651334
 20
-0.0076581968
 30
0.0
 40
1.999981921794544
100
AcDbArc
 50
36.9009192704
 51
66.9010189145
  0
ARC
  5
2A4
330
1F
100
AcDbEntity
  8
0
  6
Continuous
 62
     7
370
    15
100
AcDbCircle
 10
2.0018365529
 20
1.4934133286
 30
0.0
 40
0.4999984959521468
100
AcDbArc
 50
216.9010115772
 51
276.9009659818
  0
ARC
  5
2A5
330
1F
100
AcDbEntity
  8
0
  6
Continuous
 62
     7
370
    15
100
AcDbCircle
 10
4.1440471698
 20
1.7526818577
 30
0.0
 40
0.4999987485607083
100
AcDbArc
 50
276.9005995481
 51
23.0280646649
  0
ARC
  5
2A6
330
1F
100
AcDbEntity
  8
0
  6
Continuous
 62
     7
370
    15
100
AcDbCircle
 10
0.0026900724
 20
-0.0076560541
 30
0.0
 40
4.999957434144136
100
AcDbArc
 50
23.0285033949
 51
80.77343479
  0
ARC
  5
2A7
330
1F
100
AcDbEntity
  8
0
  6
Continuous
 62
     7
370
    15
100
AcDbCircle
 10
0.7242059409
 20
4.4340805203
 30
0.0
 40
0.5000008848584873
100
AcDbArc
 50
80.7732003578
 51
186.9003309869
  0
ARC
  5
2A8
330
1F
100
AcDbEntity
  8
0
  6
Continuous
 62
     7
370
    15
100
AcDbCircle
 10
-1.0989070944
 20
6.5151085415
 30
0.0
 40
0.250000618814718
100
AcDbArc
 50
96.9007477729
 51
171.900397851
  0
ARC
  5
2A9
330
1F
100
AcDbEntity
  8
0
  6
Continuous
 62
     7
370
    15
100
AcDbCircle
 10
-3.1250021051
 20
5.8213913257
 30
0.0
 40
0.2500005971680309
100
AcDbArc
 50
45.9011109809
 51
120.9007656639
  0
ARC
  5
2AA
330
1F
100
AcDbEntity
  8
0
  6
Continuous
 62
     7
370
    15
100
AcDbCircle
 10
-3.6538571031
 20
5.5048722105
 30
0.0
 40
0.249998581467179
100
AcDbArc
 50
120.9004805676
 51
195.9005640496
  0
ARC
  5
2AB
330
1F
100
AcDbEntity
  8
0
  6
Continuous
 62
     7
370
    15
100
AcDbCircle
 10
-0.4870348452
 20
6.5891645269
 30
0.0
 40
0.2499985539561476
100
AcDbArc
 50
21.9009421764
 51
96.9010315108
  0
ARC
  5
2AC
330
1F
100
AcDbEntity
  8
0
  6
Continuous
 62
     7
370
    15
100
AcDbCircle
 10
-1.67418546
 20
6.0215441598
 30
0.0
 40
0.2500003491348402
100
AcDbArc
 50
285.5376194517
 51
351.9004248434
  0
ARC
  5
2AD
330
1F
100
AcDbEntity
  8
0
  6
Continuous
 62
     7
370
    15
100
AcDbCircle
 10
0.000032126
 20
-0.0000930144
 30
0.0
 40
6.000049153254189
100
AcDbArc
 50
105.5377229048
 51
112.2637891646
  0
ARC
  5
2AE
330
1F
100
AcDbEntity
  8
0
  6
Continuous
 62
     7
370
    15
100
AcDbCircle
 10
-2.3679329967
 20
5.7840110345
 30
0.0
 40
0.250000324181388
100
AcDbArc
 50
225.9010836622
 51
292.2638936867
  0
ARC
  5
2AF
330
1F
100
AcDbEntity
  8
0
  6
Continuous
 62
     7
370
    15
100
AcDbCircle
 10
-3.9786435365
 20
4.8199929955
 30
0.0
 40
0.2499981708531313
100
AcDbArc
 50
309.5373950241
 51
15.9006048275
  0
ARC
  5
2B0
330
1F
100
AcDbEntity
  8
0
  6
Continuous
 62
     7
370
    15
100
AcDbCircle
 10
0.1893730333
 20
6.2470854449
 30
0.0
 40
0.2499981432924866
100
AcDbArc
 50
201.9009013966
 51
268.2641163168
  0
ARC
  5
2B1
330
1F
100
AcDbEntity
  8
0
  6
Continuous
 62
     7
370
    15
100
AcDbCircle
 10
-5.2226270974
 20
4.0470473145
 30
0.0
 40
0.2500015662083677
100
AcDbArc
 50
69.9010440696
 51
144.9004926112
  0
ARC
  5
2B2
330
1F
100
AcDbEntity
  8
0
  6
Continuous
 62
     7
370
    15
100
AcDbCircle
 10
1.6460527421
 20
6.3988233117
 30
0.0
 40
0.2500015676661367
100
AcDbArc
 50
72.9010196098
 51
147.9004678413
  0
ARC
  5
2B3
330
1F
100
AcDbEntity
  8
0
  6
Continuous
 62
     7
370
    15
100
AcDbCircle
 10
0.0000184541
 20
-0.0000732748
 30
0.0
 40
6.000025035946044
100
AcDbArc
 50
129.5375387119
 51
136.2636230041
  0
ARC
  5
2B4
330
1F
100
AcDbEntity
  8
0
  6
Continuous
 62
     7
370
    15
100
AcDbCircle
 10
0.0000307521
 20
-0.0000684583
 30
0.0
 40
6.000024447788038
100
AcDbArc
 50
81.5378880108
 51
88.2639727428
  0
ARC
  5
2B5
330
1F
100
AcDbEntity
  8
0
  6
Continuous
 62
     7
370
    15
100
AcDbCircle
 10
0.9197556389
 20
6.1819160085
 30
0.0
 40
0.2500016173799661
100
AcDbArc
 50
261.5378932498
 51
327.9004631867
  0
ARC
  5
2B6
330
1F
100
AcDbEntity
  8
0
  6
Continuous
 62
     7
370
    15
100
AcDbCircle
 10
-4.5158030391
 20
4.3208281747
 30
0.0
 40
0.250001611546481
100
AcDbArc
 50
249.9010482894
 51
316.2636193093
  0
ARC
  5
2B7
330
1F
100
AcDbEntity
  8
0
  6
Continuous
 62
     7
370
    15
100
AcDbCircle
 10
-5.5770217598
 20
3.5427921656
 30
0.0
 40
0.2499973148303381
100
AcDbArc
 50
144.9004401708
 51
199.054342081
  0
ARC
  5
2B8
330
1F
100
AcDbEntity
  8
0
  6
Continuous
 62
     7
370
    15
100
AcDbCircle
 10
2.2351457449
 20
6.2176101241
 30
0.0
 40
0.2499972976089321
100
AcDbArc
 50
19.0544739624
 51
72.9010693016
  0
ARC
  5
2B9
330
1F
100
AcDbEntity
  8
0
  6
Continuous
 62
     7
370
    15
100
AcDbCircle
 10
-5.5951584113
 20
2.7850225215
 30
0.0
 40
0.2499969178495969
100
AcDbArc
 50
333.5373977285
 51
19.0543694967
  0
ARC
  5
2BA
330
1F
100
AcDbEntity
  8
0
  6
Continuous
 62
     7
370
    15
100
AcDbCircle
 10
2.7139342998
 20
5.6299832873
 30
0.0
 40
0.2499969022975173
100
AcDbArc
 50
199.0544469238
 51
244.2641110771
  0
ARC
  5
2BB
330
1F
100
AcDbEntity
  8
0
  6
Continuous
 62
     7
370
    15
100
AcDbCircle
 10
-0.0000281732
 20
-0.0000411735
 30
0.0
 40
5.999968055349446
100
AcDbArc
 50
153.5374573187
 51
160.2635842155
  0
ARC
  5
2BC
330
1F
100
AcDbEntity
  8
0
  6
Continuous
 62
     7
370
    15
100
AcDbCircle
 10
0.0000479595
 20
-0.0000143205
 30
0.0
 40
5.999967268243129
100
AcDbArc
 50
57.5379247734
 51
64.2640522587
  0
ARC
  5
2BD
330
1F
100
AcDbEntity
  8
0
  6
Continuous
 62
     7
370
    15
100
AcDbCircle
 10
-6.4172127099
 20
1.572933217
 30
0.0
 40
0.250000819818787
100
AcDbArc
 50
93.9007857212
 51
168.9003930402
  0
ARC
  5
2BE
330
1F
100
AcDbEntity
  8
0
  6
Continuous
 62
     7
370
    15
100
AcDbCircle
 10
4.1063946362
 20
5.1761245005
 30
0.0
 40
0.2500008001229721
100
AcDbArc
 50
48.9011161955
 51
123.9007277043
  0
ARC
  5
2BF
330
1F
100
AcDbEntity
  8
0
  6
Continuous
 62
     7
370
    15
100
AcDbCircle
 10
-5.8828496872
 20
2.1105336641
 30
0.0
 40
0.2500011534805616
100
AcDbArc
 50
273.9008186872
 51
340.2634747487
  0
ARC
  5
2C0
330
1F
100
AcDbEntity
  8
0
  6
Continuous
 62
     7
370
    15
100
AcDbCircle
 10
3.3546633419
 20
5.2733774432
 30
0.0
 40
0.2500011363337793
100
AcDbArc
 50
237.5380352379
 51
303.9006944827
  0
ARC
  5
2C1
330
1F
100
AcDbEntity
  8
0
  6
Continuous
 62
     7
370
    15
100
AcDbCircle
 10
-6.5358687806
 20
0.9681307401
 30
0.0
 40
0.2499963287891011
100
AcDbArc
 50
168.9005281142
 51
199.0543991267
  0
ARC
  5
2C2
330
1F
100
AcDbEntity
  8
0
  6
Continuous
 62
     7
370
    15
100
AcDbCircle
 10
4.5708496668
 20
4.770974174
 30
0.0
 40
0.2499963177805165
100
AcDbArc
 50
19.0544178863
 51
48.9009796866
  0
ARC
  5
2C3
330
1F
100
AcDbEntity
  8
0
  6
Continuous
 62
     7
370
    15
100
AcDbCircle
 10
-6.2442195893
 20
0.2684967355
 30
0.0
 40
0.2499961277324962
100
AcDbArc
 50
357.5375254356
 51
19.0544048456
  0
ARC
  5
2C4
330
1F
100
AcDbEntity
  8
0
  6
Continuous
 62
     7
370
    15
100
AcDbCircle
 10
4.7692314519
 20
4.039406178
 30
0.0
 40
0.2499961193407383
100
AcDbArc
 50
199.0544123613
 51
220.2639820066
  0
ARC
  5
2C5
330
1F
100
AcDbEntity
  8
0
  6
Continuous
 62
     7
370
    15
100
AcDbCircle
 10
-4.4417731714
 20
0.7215318276
 30
0.0
 40
0.4999967411069999
100
AcDbArc
 50
199.0545669356
 51
276.9010563543
  0
ARC
  5
2C6
330
1F
100
AcDbEntity
  8
0
  6
Continuous
 62
     7
370
    15
100
AcDbCircle
 10
-1.5010684441
 20
1.9991763671
 30
0.0
 40
0.4999973996778823
100
AcDbArc
 50
306.900497971
 51
6.9005435632
  0
ARC
  5
2C7
330
1F
100
AcDbEntity
  8
0
  6
Continuous
 62
     7
370
    15
100
AcDbCircle
 10
-0.0000788335
 20
-0.0000303561
 30
0.0
 40
5.999915917840467
100
AcDbArc
 50
177.537532587
 51
184.2636984678
  0
ARC
  5
2C8
330
1F
100
AcDbEntity
  8
0
  6
Continuous
 62
     7
370
    15
100
AcDbCircle
 10
0.0000811355
 20
0.0000250475
 30
0.0
 40
5.999915452643659
100
AcDbArc
 50
33.5378088642
 51
40.2639750929
  0
ARC
  5
2C9
330
1F
100
AcDbEntity
  8
0
  6
Continuous
 62
     7
370
    15
100
AcDbCircle
 10
0.0000015073
 20
-0.0000195471
 30
0.0
 40
2.000001660766917
100
AcDbArc
 50
126.9005902777
 51
156.9004906324
  0
ARC
  5
2CA
330
1F
100
AcDbEntity
  8
0
  6
Continuous
 62
     7
370
    15
100
AcDbCircle
 10
0.9808118125
 20
2.2995508179
 30
0.0
 40
0.4999941781040869
100
AcDbArc
 50
199.0544614449
 51
246.9010507349
  0
ARC
  5
2CB
330
1F
100
AcDbEntity
  8
0
  6
Continuous
 62
     7
370
    15
100
AcDbCircle
 10
-6.2326970261
 20
-0.4646916405
 30
0.0
 40
0.2499992531069453
100
AcDbArc
 50
297.9005467905
 51
4.2635556659
  0
ARC
  5
2CC
330
1F
100
AcDbEntity
  8
0
  6
Continuous
 62
     7
370
    15
100
AcDbCircle
 10
5.2095185688
 20
3.4530230345
 30
0.0
 40
0.2499992243267101
100
AcDbArc
 50
213.5379514571
 51
279.9009656757
  0
ARC
  5
2CD
330
1F
100
AcDbEntity
  8
0
  6
Continuous
 62
     7
370
    15
100
AcDbCircle
 10
0.000019547
 20
0.0000015072
 30
0.0
 40
1.999981921794544
100
AcDbArc
 50
36.9009192704
 51
66.9010189145
  0
ARC
  5
2CE
330
1F
100
AcDbEntity
  8
0
  6
Continuous
 62
     7
370
    15
100
AcDbCircle
 10
-2.2995641987
 20
0.9808056395
 30
0.0
 40
0.500002435788843
100
AcDbArc
 50
276.9008042223
 51
336.9004309161
  0
ARC
  5
2CF
330
1F
100
AcDbEntity
  8
0
  6
Continuous
 62
     7
370
    15
100
AcDbCircle
 10
-6.5022051403
 20
-1.1731552418
 30
0.0
 40
0.2499988519197372
100
AcDbArc
 50
117.9005068928
 51
192.9005328412
  0
ARC
  5
2D0
330
1F
100
AcDbEntity
  8
0
  6
Continuous
 62
     7
370
    15
100
AcDbCircle
 10
5.8567044942
 20
3.0584275262
 30
0.0
 40
0.2499988241039337
100
AcDbArc
 50
24.9009736149
 51
99.9010054806
  0
ARC
  5
2D1
330
1F
100
AcDbEntity
  8
0
  6
Continuous
 62
     7
370
    15
100
AcDbCircle
 10
-0.0000021178
 20
0.0000061318
 30
0.0
 40
1.000000000021042
100
AcDbArc
 50
199.0547804147
 51
19.054037037
  0
ARC
  5
2D2
330
1F
100
AcDbEntity
  8
0
  6
Continuous
 62
     7
370
    15
100
AcDbCircle
 10
1.9991909665
 20
1.5010730326
 30
0.0
 40
0.4999984959521488
100
AcDbArc
 50
216.9010115772
 51
276.9009659818
  0
ARC
  5
2D3
330
1F
100
AcDbEntity
  8
0
  6
Continuous
 62
     7
370
    15
100
AcDbCircle
 10
4.1414019775
 20
1.7603414597
 30
0.0
 40
0.499998599982935
100
AcDbArc
 50
276.9005561134
 51
19.0541475961
  0
ARC
  5
2D4
330
1F
100
AcDbEntity
  8
0
  6
Continuous
 62
     7
370
    15
100
AcDbCircle
 10
-0.000044486
 20
-0.0000036499
 30
0.0
 40
4.999957434144166
100
AcDbArc
 50
203.0285033949
 51
260.77343479
  0
ARC
  5
2D5
330
1F
100
AcDbEntity
  8
0
  6
Continuous
 62
     7
370
    15
100
AcDbCircle
 10
-5.5048539137
 20
-2.9595664758
 30
0.0
 40
0.2499973518954953
100
AcDbArc
 50
321.9004241957
 51
19.0543441635
  0
ARC
  5
2D6
330
1F
100
AcDbEntity
  8
0
  6
Continuous
 62
     7
370
    15
100
AcDbCircle
 10
6.1635998191
 20
1.0356102915
 30
0.0
 40
0.2499975455714902
100
AcDbArc
 50
199.0544980454
 51
255.90105922
  0
ARC
  5
2D7
330
1F
100
AcDbEntity
  8
0
  6
Continuous
 62
     7
370
    15
100
AcDbCircle
 10
-5.462907136
 20
-3.7163957657
 30
0.0
 40
0.2499974860056533
100
AcDbArc
 50
141.9004409376
 51
199.0543274217
  0
ARC
  5
2D8
330
1F
100
AcDbEntity
  8
0
  6
Continuous
 62
     7
370
    15
100
AcDbCircle
 10
6.5943378065
 20
0.4118997684
 30
0.0
 40
0.2499972426205766
100
AcDbArc
 50
19.0544604671
 51
75.9010967982
  0
ARC
  5
2D9
330
1F
100
AcDbEntity
  8
0
  6
Continuous
 62
     7
370
    15
100
AcDbCircle
 10
4.4417765704
 20
-0.721529098
 30
0.0
 40
0.4999926372528687
100
AcDbArc
 50
350.7729219966
 51
19.0543984452
  0
ARC
  5
2DA
330
1F
100
AcDbEntity
  8
0
  6
Continuous
 62
     7
370
    15
100
AcDbCircle
 10
-0.0000036501
 20
0.0000444863
 30
0.0
 40
5.00000152220211
100
AcDbArc
 50
293.0282465801
 51
350.77283433
  0
ARC
  5
2DB
330
1F
100
AcDbEntity
  8
0
  6
Continuous
 62
     7
370
    15
100
AcDbCircle
 10
-3.8251721617
 20
-4.9427045457
 30
0.0
 40
0.249996479371247
100
AcDbArc
 50
345.9005145881
 51
19.0543916922
  0
ARC
  5
2DC
330
1F
100
AcDbEntity
  8
0
  6
Continuous
 62
     7
370
    15
100
AcDbCircle
 10
6.0519383395
 20
-1.5608681813
 30
0.0
 40
0.2499964665297997
100
AcDbArc
 50
199.0544251301
 51
231.9009934725
  0
ARC
  5
2DD
330
1F
100
AcDbEntity
  8
0
  6
Continuous
 62
     7
370
    15
100
AcDbCircle
 10
-0.7215600209
 20
-4.4417405718
 30
0.0
 40
0.5000005954033624
100
AcDbArc
 50
260.7731562391
 51
6.9003751055
  0
ARC
  5
2DE
330
1F
100
AcDbEntity
  8
0
  6
Continuous
 62
     7
370
    15
100
AcDbCircle
 10
-3.4790229008
 20
-5.6170382166
 30
0.0
 40
0.2499964435558265
100
AcDbArc
 50
165.9005121446
 51
199.0543941357
  0
ARC
  5
2DF
330
1F
100
AcDbEntity
  8
0
  6
Continuous
 62
     7
370
    15
100
AcDbCircle
 10
6.1917502379
 20
-2.3058499176
 30
0.0
 40
0.2499964312051115
100
AcDbArc
 50
19.0544227437
 51
51.9009958588
  0
ARC
  5
2E0
330
1F
100
AcDbEntity
  8
0
  6
Continuous
 62
     7
370
    15
100
AcDbCircle
 10
1.7603268368
 20
-4.1413642559
 30
0.0
 40
0.4999982118890261
100
AcDbArc
 50
199.0546582946
 51
293.0285946188
  0
ENDSEC
  0
SECTION
  2
OBJECTS
  0
DICTIONARY
  5
C
330
0
100
AcDbDictionary
281
     1
  3
ACAD_GROUP
350
D
  3
ACAD_LAYOUT
350
1A
  3
ACAD_MLINESTYLE
350
17
  3
ACAD_PLOTSETTINGS
350
19
  3
ACAD_PLOTSTYLENAME
350
E
  0
DICTIONARY
  5
D
102
{ACAD_REACTORS
330
C
102
}
330
C
100
AcDbDictionary
281
     1
  0
DICTIONARY
  5
1A
102
{ACAD_REACTORS
330
C
102
}
330
C
100
AcDbDictionary
281
     1
  3
Layout1
350
1E
  3
Layout2
350
26
  3
Model
350
22
  0
DICTIONARY
  5
17
102
{ACAD_REACTORS
330
C
102
}
330
C
100
AcDbDictionary
281
     1
  3
Standard
350
18
  0
DICTIONARY
  5
19
102
{ACAD_REACTORS
330
C
102
}
330
C
100
AcDbDictionary
281
     1
  0
ACDBDICTIONARYWDFLT
  5
E
102
{ACAD_REACTORS
330
C
102
}
330
C
100
AcDbDictionary
281
     1
  3
Normal
350
F
100
AcDbDictionaryWithDefault
340
F
  0
LAYOUT
  5
1E
102
{ACAD_REACTORS
330
1A
102
}
330
1A
100
AcDbPlotSettings
  1

  2
none_device
  4

  6

 40
0.0
 41
0.0
 42
0.0
 43
0.0
 44
0.0
 45
0.0
 46
0.0
 47
0.0
 48
0.0
 49
0.0
140
0.0
141
0.0
142
1.0
143
1.0
 70
   688
 72
     0
 73
     0
 74
     5
  7

 75
    16
147
1.0
148
0.0
149
0.0
100
AcDbLayout
  1
Layout1
 70
     1
 71
     1
 10
0.0
 20
0.0
 11
420.0
 21
297.0
 12
0.0
 22
0.0
 32
0.0
 14
1.0000000000E+20
 24
1.0000000000E+20
 34
1.0000000000E+20
 15
-1.0000000000E+20
 25
-1.0000000000E+20
 35
-1.0000000000E+20
146
0.0
 13
0.0
 23
0.0
 33
0.0
 16
1.0
 26
0.0
 36
0.0
 17
0.0
 27
1.0
 37
0.0
 76
     0
330
1B
  0
LAYOUT
  5
26
102
{ACAD_REACTORS
330
1A
102
}
330
1A
100
AcDbPlotSettings
  1

  2
none_device
  4

  6

 40
0.0
 41
0.0
 42
0.0
 43
0.0
 44
0.0
 45
0.0
 46
0.0
 47
0.0
 48
0.0
 49
0.0
140
0.0
141
0.0
142
1.0
143
1.0
 70
   688
 72
     0
 73
     0
 74
     5
  7

 75
    16
147
1.0
148
0.0
149
0.0
100
AcDbLayout
  1
Layout2
 70
     1
 71
     2
 10
0.0
 20
0.0
 11
0.0
 21
0.0
 12
0.0
 22
0.0
 32
0.0
 14
0.0
 24
0.0
 34
0.0
 15
0.0
 25
0.0
 35
0.0
146
0.0
 13
0.0
 23
0.0
 33
0.0
 16
1.0
 26
0.0
 36
0.0
 17
0.0
 27
1.0
 37
0.0
 76
     0
330
23
  0
LAYOUT
  5
22
102
{ACAD_REACTORS
330
1A
102
}
330
1A
100
AcDbPlotSettings
  1

  2
none_device
  4
ANSI_A_(11.00_x_8.50_Inches)
  6

 40
6.35
 41
19.05
 42
6.35000508
 43
19.05000254
 44
279.4
 45
215.9
 46
132.7976015279
 47
89.0538223024
 48
0.0
 49
0.0
140
0.0
141
0.0
142
0.6143213584
143
1.0
 70
  1696
 72
     0
 73
     0
 74
     0
  7

 75
     0
147
0.0179189148
148
0.0
149
0.0
100
AcDbLayout
  1
Model
 70
     1
 71
     0
 10
0.0
 20
0.0
 11
420.0
 21
297.0
 12
0.0
 22
0.0
 32
0.0
 14
-6.7858651094
 24
-6.8588792964
 34
0.0
 15
6.856668024
 25
6.8391630808
 35
0.0
146
0.0
 13
0.0
 23
0.0
 33
0.0
 16
1.0
 26
0.0
 36
0.0
 17
0.0
 27
1.0
 37
0.0
 76
     0
330
1F
331
29
  0
MLINESTYLE
  5
18
102
{ACAD_REACTORS
330
17
102
}
330
17
100
AcDbMlineStyle
  2
Standard
 70
     0
  3

 62
   256
 51
90.0
 52
90.0
 71
     2
 49
0.5
 62
   256
  6
BYLAYER
 49
-0.5
 62
   256
  6
BYLAYER
  0
ACDBPLACEHOLDER
  5
F
102
{ACAD_REACTORS
330
E
102
}
330
E
  0
ENDSEC
  0
EOF
