  0
SECTION
  2
HEADER
  9
$ACADVER
  1
AC1014
  9
$HANDSEED
  5
FFFF
  9
$MEASUREMENT
 70
     1
  0
ENDSEC
  0
SECTION
  2
TABLES
  0
TABLE
  2
VPORT
  5
8
330
0
100
AcDbSymbolTable
 70
     4
  0
VPORT
  5
2E
330
8
100
AcDbSymbolTableRecord
100
AcDbViewportTableRecord
  2
*ACTIVE
 70
     0
 10
0.0
 20
0.0
 11
1.0
 21
1.0
 12
210.0
 22
148.5
 13
0.0
 23
0.0
 14
10.0
 24
10.0
 15
10.0
 25
10.0
 16
0.0
 26
0.0
 36
1.0
 17
0.0
 27
0.0
 37
0.0
 40
341.0
 41
1.24
 42
50.0
 43
0.0
 44
0.0
 50
0.0
 51
0.0
 71
     0
 72
   100
 73
     1
 74
     3
 75
     0
 76
     0
 77
     0
 78
     0
  0
ENDTAB
  0
TABLE
  2
LTYPE
  5
5
330
0
100
AcDbSymbolTable
 70
     1
  0
LTYPE
  5
14
330
5
100
AcDbSymbolTableRecord
100
AcDbLinetypeTableRecord
  2
BYBLOCK
 70
     0
  3

 72
    65
 73
     0
 40
0.0
  0
LTYPE
  5
15
330
5
100
AcDbSymbolTableRecord
100
AcDbLinetypeTableRecord
  2
BYLAYER
 70
     0
  3

 72
    65
 73
     0
 40
0.0
  0
LTYPE
  5
16
330
5
100
AcDbSymbolTableRecord
100
AcDbLinetypeTableRecord
  2
CONTINUOUS
 70
     0
  3
Solid line
 72
    65
 73
     0
 40
0.0
  0
ENDTAB
  0
TABLE
  2
LAYER
  5
2
100
AcDbSymbolTable
 70
2
  0
LAYER
  5
50
100
AcDbSymbolTableRecord
100
AcDbLayerTableRecord
  2
0
 70
0
  6
CONTINUOUS
  0
LAYER
  5
51
100
AcDbSymbolTableRecord
100
AcDbLayerTableRecord
  2
Layer_1
 70
0
  6
CONTINUOUS
  0
ENDTAB
  0
TABLE
  2
STYLE
  5
3
330
0
100
AcDbSymbolTable
 70
     1
  0
STYLE
  5
11
330
3
100
AcDbSymbolTableRecord
100
AcDbTextStyleTableRecord
  2
STANDARD
 70
     0
 40
0.0
 41
1.0
 50
0.0
 71
     0
 42
2.5
  3
txt
  4

  0
ENDTAB
  0
TABLE
  2
VIEW
  5
6
330
0
100
AcDbSymbolTable
 70
     0
  0
ENDTAB
  0
TABLE
  2
UCS
  5
7
330
0
100
AcDbSymbolTable
 70
     0
  0
ENDTAB
  0
TABLE
  2
APPID
  5
9
330
0
100
AcDbSymbolTable
 70
     2
  0
APPID
  5
12
330
9
100
AcDbSymbolTableRecord
100
AcDbRegAppTableRecord
  2
ACAD
 70
     0
  0
ENDTAB
  0
TABLE
  2
DIMSTYLE
  5
A
330
0
100
AcDbSymbolTable
 70
     1
  0
DIMSTYLE
105
27
330
A
100
AcDbSymbolTableRecord
100
AcDbDimStyleTableRecord
  2
ISO-25
 70
     0
  3

  4

  5

  6

  7

 40
1.0
 41
2.5
 42
0.625
 43
3.75
 44
1.25
 45
0.0
 46
0.0
 47
0.0
 48
0.0
140
2.5
141
2.5
142
0.0
143
0.03937007874016
144
1.0
145
0.0
146
1.0
147
0.625
 71
     0
 72
     0
 73
     0
 74
     0
 75
     0
 76
     0
 77
     1
 78
     8
170
     0
171
     3
172
     1
173
     0
174
     0
175
     0
176
     0
177
     0
178
     0
270
     2
271
     2
272
     2
273
     2
274
     3
340
11
275
     0
280
     0
281
     0
282
     0
283
     0
284
     8
285
     0
286
     0
287
     3
288
     0
  0
ENDTAB
  0
TABLE
  2
BLOCK_RECORD
  5
1
330
0
100
AcDbSymbolTable
 70
     1
  0
BLOCK_RECORD
  5
1F
330
1
100
AcDbSymbolTableRecord
100
AcDbBlockTableRecord
  2
*MODEL_SPACE
  0
BLOCK_RECORD
  5
1B
330
1
100
AcDbSymbolTableRecord
100
AcDbBlockTableRecord
  2
*PAPER_SPACE
  0
ENDTAB
  0
ENDSEC
  0
SECTION
  2
BLOCKS
  0
BLOCK
  5
20
330
1F
100
AcDbEntity
  8
0
100
AcDbBlockBegin
  2
*MODEL_SPACE
 70
     0
 10
0.0
 20
0.0
 30
0.0
  3
*MODEL_SPACE
  1

  0
ENDBLK
  5
21
330
1F
100
AcDbEntity
  8
0
100
AcDbBlockEnd
  0
BLOCK
  5
1C
330
1B
100
AcDbEntity
 67
     1
  8
0
100
AcDbBlockBegin
  2
*PAPER_SPACE
  1

  0
ENDBLK
  5
1D
330
1B
100
AcDbEntity
 67
     1
  8
0
100
AcDbBlockEnd
  0
ENDSEC
  0
SECTION
  2
ENTITIES
  0
SPLINE
  5
100
100
AcDbEntity
  8
Layer_1
 62
1
100
AcDbSpline
 70
8
 71
3
 72
8
 73
4
 74
0
 40
0
 40
0
 40
0
 40
0
 40
1
 40
1
 40
1
 40
1
 10
111.850019
 20
206.720992
 30
0.0
 10
111.850019
 20
205.394909
 30
0.0
 10
111.323235
 20
204.123140
 30
0.0
 10
110.385553
 20
203.185458
 30
0.0
  0
SPLINE
  5
101
100
AcDbEntity
  8
Layer_1
 62
1
100
AcDbSpline
 70
8
 71
3
 72
8
 73
4
 74
0
 40
0
 40
0
 40
0
 40
0
 40
1
 40
1
 40
1
 40
1
 10
110.385553
 20
203.185458
 30
0.0
 10
109.447871
 20
202.247776
 30
0.0
 10
108.176102
 20
201.720992
 30
0.0
 10
106.850019
 20
201.720992
 30
0.0
  0
SPLINE
  5
102
100
AcDbEntity
  8
Layer_1
 62
1
100
AcDbSpline
 70
8
 71
3
 72
8
 73
4
 74
0
 40
0
 40
0
 40
0
 40
0
 40
1
 40
1
 40
1
 40
1
 10
106.850019
 20
201.720992
 30
0.0
 10
105.523937
 20
201.720992
 30
0.0
 10
104.252167
 20
202.247776
 30
0.0
 10
103.314485
 20
203.185458
 30
0.0
  0
SPLINE
  5
103
100
AcDbEntity
  8
Layer_1
 62
1
100
AcDbSpline
 70
8
 71
3
 72
8
 73
4
 74
0
 40
0
 40
0
 40
0
 40
0
 40
1
 40
1
 40
1
 40
1
 10
103.314485
 20
203.185458
 30
0.0
 10
102.376803
 20
204.123140
 30
0.0
 10
101.850019
 20
205.394909
 30
0.0
 10
101.850019
 20
206.720992
 30
0.0
  0
SPLINE
  5
104
100
AcDbEntity
  8
Layer_1
 62
1
100
AcDbSpline
 70
8
 71
3
 72
8
 73
4
 74
0
 40
0
 40
0
 40
0
 40
0
 40
1
 40
1
 40
1
 40
1
 10
101.850019
 20
206.720992
 30
0.0
 10
101.850019
 20
208.047074
 30
0.0
 10
102.376803
 20
209.318844
 30
0.0
 10
103.314485
 20
210.256526
 30
0.0
  0
SPLINE
  5
105
100
AcDbEntity
  8
Layer_1
 62
1
100
AcDbSpline
 70
8
 71
3
 72
8
 73
4
 74
0
 40
0
 40
0
 40
0
 40
0
 40
1
 40
1
 40
1
 40
1
 10
103.314485
 20
210.256526
 30
0.0
 10
104.252167
 20
211.194208
 30
0.0
 10
105.523937
 20
211.720992
 30
0.0
 10
106.850019
 20
211.720992
 30
0.0
  0
SPLINE
  5
106
100
AcDbEntity
  8
Layer_1
 62
1
100
AcDbSpline
 70
8
 71
3
 72
8
 73
4
 74
0
 40
0
 40
0
 40
0
 40
0
 40
1
 40
1
 40
1
 40
1
 10
106.850019
 20
211.720992
 30
0.0
 10
108.176102
 20
211.720992
 30
0.0
 10
109.447871
 20
211.194208
 30
0.0
 10
110.385553
 20
210.256526
 30
0.0
  0
SPLINE
  5
107
100
AcDbEntity
  8
Layer_1
 62
1
100
AcDbSpline
 70
8
 71
3
 72
8
 73
4
 74
0
 40
0
 40
0
 40
0
 40
0
 40
1
 40
1
 40
1
 40
1
 10
110.385553
 20
210.256526
 30
0.0
 10
111.323235
 20
209.318844
 30
0.0
 10
111.850019
 20
208.047074
 30
0.0
 10
111.850019
 20
206.720992
 30
0.0
  0
LWPOLYLINE
  5
108
100
AcDbEntity
  8
Layer_1
 62
1
100
AcDbPolyline
 90
2
 70
1
 10
111.850019
 20
206.720992
 30
0.0
 10
111.850019
 20
206.720992
 30
0.0
  0
SPLINE
  5
109
100
AcDbEntity
  8
Layer_1
 62
1
100
AcDbSpline
 70
8
 71
3
 72
8
 73
4
 74
0
 40
0
 40
0
 40
0
 40
0
 40
1
 40
1
 40
1
 40
1
 10
101.406956
 20
98.490161
 30
0.0
 10
101.406956
 20
97.164078
 30
0.0
 10
100.880172
 20
95.892309
 30
0.0
 10
99.942490
 20
94.954627
 30
0.0
  0
SPLINE
  5
10a
100
AcDbEntity
  8
Layer_1
 62
1
100
AcDbSpline
 70
8
 71
3
 72
8
 73
4
 74
0
 40
0
 40
0
 40
0
 40
0
 40
1
 40
1
 40
1
 40
1
 10
99.942490
 20
94.954627
 30
0.0
 10
99.004808
 20
94.016945
 30
0.0
 10
97.733038
 20
93.490161
 30
0.0
 10
96.406956
 20
93.490161
 30
0.0
  0
SPLINE
  5
10b
100
AcDbEntity
  8
Layer_1
 62
1
100
AcDbSpline
 70
8
 71
3
 72
8
 73
4
 74
0
 40
0
 40
0
 40
0
 40
0
 40
1
 40
1
 40
1
 40
1
 10
96.406956
 20
93.490161
 30
0.0
 10
95.080873
 20
93.490161
 30
0.0
 10
93.809104
 20
94.016945
 30
0.0
 10
92.871422
 20
94.954627
 30
0.0
  0
SPLINE
  5
10c
100
AcDbEntity
  8
Layer_1
 62
1
100
AcDbSpline
 70
8
 71
3
 72
8
 73
4
 74
0
 40
0
 40
0
 40
0
 40
0
 40
1
 40
1
 40
1
 40
1
 10
92.871422
 20
94.954627
 30
0.0
 10
91.933740
 20
95.892309
 30
0.0
 10
91.406956
 20
97.164078
 30
0.0
 10
91.406956
 20
98.490161
 30
0.0
  0
SPLINE
  5
10d
100
AcDbEntity
  8
Layer_1
 62
1
100
AcDbSpline
 70
8
 71
3
 72
8
 73
4
 74
0
 40
0
 40
0
 40
0
 40
0
 40
1
 40
1
 40
1
 40
1
 10
91.406956
 20
98.490161
 30
0.0
 10
91.406956
 20
99.816243
 30
0.0
 10
91.933740
 20
101.088013
 30
0.0
 10
92.871422
 20
102.025695
 30
0.0
  0
SPLINE
  5
10e
100
AcDbEntity
  8
Layer_1
 62
1
100
AcDbSpline
 70
8
 71
3
 72
8
 73
4
 74
0
 40
0
 40
0
 40
0
 40
0
 40
1
 40
1
 40
1
 40
1
 10
92.871422
 20
102.025695
 30
0.0
 10
93.809104
 20
102.963377
 30
0.0
 10
95.080873
 20
103.490161
 30
0.0
 10
96.406956
 20
103.490161
 30
0.0
  0
SPLINE
  5
10f
100
AcDbEntity
  8
Layer_1
 62
1
100
AcDbSpline
 70
8
 71
3
 72
8
 73
4
 74
0
 40
0
 40
0
 40
0
 40
0
 40
1
 40
1
 40
1
 40
1
 10
96.406956
 20
103.490161
 30
0.0
 10
97.733038
 20
103.490161
 30
0.0
 10
99.004808
 20
102.963377
 30
0.0
 10
99.942490
 20
102.025695
 30
0.0
  0
SPLINE
  5
110
100
AcDbEntity
  8
Layer_1
 62
1
100
AcDbSpline
 70
8
 71
3
 72
8
 73
4
 74
0
 40
0
 40
0
 40
0
 40
0
 40
1
 40
1
 40
1
 40
1
 10
99.942490
 20
102.025695
 30
0.0
 10
100.880172
 20
101.088013
 30
0.0
 10
101.406956
 20
99.816243
 30
0.0
 10
101.406956
 20
98.490161
 30
0.0
  0
LWPOLYLINE
  5
111
100
AcDbEntity
  8
Layer_1
 62
1
100
AcDbPolyline
 90
177
 70
1
 10
170.275052
 20
212.208470
 30
0.0
 10
172.410058
 20
212.393190
 30
0.0
 10
176.699771
 20
211.716746
 30
0.0
 10
183.211337
 20
208.968000
 30
0.0
 10
183.211337
 20
204.473983
 30
0.0
 10
176.699771
 20
201.725238
 30
0.0
 10
172.410058
 20
201.048793
 30
0.0
 10
170.275052
 20
201.233514
 30
0.0
 10
169.251895
 20
194.117292
 30
0.0
 10
171.352458
 20
193.693027
 30
0.0
 10
175.277831
 20
191.835432
 30
0.0
 10
180.751223
 20
187.363511
 30
0.0
 10
179.485112
 20
183.051533
 30
0.0
 10
172.462898
 20
182.248653
 30
0.0
 10
168.156374
 20
182.808159
 30
0.0
 10
166.159891
 20
183.586897
 30
0.0
 10
163.173308
 20
177.047190
 30
0.0
 10
165.069255
 20
176.048316
 30
0.0
 10
168.312276
 20
173.160059
 30
0.0
 10
172.304075
 20
167.327248
 30
0.0
 10
169.874424
 20
163.546642
 30
0.0
 10
162.910461
 20
164.754671
 30
0.0
 10
158.936013
 20
166.504802
 30
0.0
 10
157.239798
 20
167.814468
 30
0.0
 10
152.531744
 20
162.381084
 30
0.0
 10
154.069477
 20
160.888520
 30
0.0
 10
156.367418
 20
157.203593
 30
0.0
 10
158.554225
 20
150.482434
 30
0.0
 10
155.157873
 20
147.539480
 30
0.0
 10
148.816339
 20
150.660550
 30
0.0
 10
145.495953
 20
153.459520
 30
0.0
 10
144.237422
 20
155.194015
 30
0.0
 10
138.189318
 20
151.307132
 30
0.0
 10
139.244256
 20
149.441799
 30
0.0
 10
140.410952
 20
145.258735
 30
0.0
 10
140.615608
 20
138.193733
 30
0.0
 10
136.527707
 20
136.326850
 30
0.0
 10
131.322358
 20
141.108112
 30
0.0
 10
128.925032
 20
144.729165
 30
0.0
 10
128.206144
 20
146.747971
 30
0.0
 10
121.307967
 20
144.722482
 30
0.0
 10
121.794648
 20
142.635496
 30
0.0
 10
121.735579
 20
138.293180
 30
0.0
 10
119.941507
 20
131.456702
 30
0.0
 10
115.493230
 20
130.817139
 30
0.0
 10
111.845773
 20
136.871240
 30
0.0
 10
110.565723
 20
141.021021
 30
0.0
 10
110.444717
 20
143.160585
 30
0.0
 10
103.255321
 20
143.160585
 30
0.0
 10
103.134315
 20
141.021021
 30
0.0
 10
101.854265
 20
136.871240
 30
0.0
 10
98.206808
 20
130.817139
 30
0.0
 10
93.758532
 20
131.456702
 30
0.0
 10
91.964459
 20
138.293180
 30
0.0
 10
91.905390
 20
142.635496
 30
0.0
 10
92.392071
 20
144.722482
 30
0.0
 10
85.493894
 20
146.747971
 30
0.0
 10
84.775006
 20
144.729165
 30
0.0
 10
82.377681
 20
141.108112
 30
0.0
 10
77.172332
 20
136.326850
 30
0.0
 10
73.084430
 20
138.193733
 30
0.0
 10
73.289087
 20
145.258735
 30
0.0
 10
74.455782
 20
149.441799
 30
0.0
 10
75.510720
 20
151.307132
 30
0.0
 10
69.462616
 20
155.194015
 30
0.0
 10
68.204086
 20
153.459520
 30
0.0
 10
64.883699
 20
150.660550
 30
0.0
 10
58.542166
 20
147.539480
 30
0.0
 10
55.145813
 20
150.482434
 30
0.0
 10
57.332620
 20
157.203593
 30
0.0
 10
59.630561
 20
160.888520
 30
0.0
 10
61.168294
 20
162.381084
 30
0.0
 10
56.460240
 20
167.814468
 30
0.0
 10
54.764026
 20
166.504802
 30
0.0
 10
50.789578
 20
164.754671
 30
0.0
 10
43.825614
 20
163.546642
 30
0.0
 10
41.395963
 20
167.327248
 30
0.0
 10
45.387762
 20
173.160059
 30
0.0
 10
48.630784
 20
176.048316
 30
0.0
 10
50.526730
 20
177.047190
 30
0.0
 10
47.540147
 20
183.586897
 30
0.0
 10
45.543665
 20
182.808159
 30
0.0
 10
41.237140
 20
182.248653
 30
0.0
 10
34.214926
 20
183.051533
 30
0.0
 10
32.948815
 20
187.363511
 30
0.0
 10
38.422207
 20
191.835432
 30
0.0
 10
42.347580
 20
193.693027
 30
0.0
 10
44.448143
 20
194.117292
 30
0.0
 10
43.424986
 20
201.233514
 30
0.0
 10
41.289980
 20
201.048793
 30
0.0
 10
37.000267
 20
201.725238
 30
0.0
 10
30.488701
 20
204.473983
 30
0.0
 10
30.488701
 20
208.968000
 30
0.0
 10
37.000267
 20
211.716746
 30
0.0
 10
41.289980
 20
212.393190
 30
0.0
 10
43.424986
 20
212.208470
 30
0.0
 10
44.448143
 20
219.324692
 30
0.0
 10
42.347580
 20
219.748956
 30
0.0
 10
38.422207
 20
221.606552
 30
0.0
 10
32.948815
 20
226.078473
 30
0.0
 10
34.214926
 20
230.390450
 30
0.0
 10
41.237140
 20
231.193330
 30
0.0
 10
45.543665
 20
230.633824
 30
0.0
 10
47.540147
 20
229.855086
 30
0.0
 10
50.526730
 20
236.394793
 30
0.0
 10
48.630784
 20
237.393668
 30
0.0
 10
45.387762
 20
240.281924
 30
0.0
 10
41.395963
 20
246.114735
 30
0.0
 10
43.825614
 20
249.895342
 30
0.0
 10
50.789578
 20
248.687312
 30
0.0
 10
54.764026
 20
246.937181
 30
0.0
 10
56.460240
 20
245.627515
 30
0.0
 10
61.168294
 20
251.060900
 30
0.0
 10
59.630561
 20
252.553463
 30
0.0
 10
57.332620
 20
256.238390
 30
0.0
 10
55.145813
 20
262.959549
 30
0.0
 10
58.542166
 20
265.902503
 30
0.0
 10
64.883699
 20
262.781433
 30
0.0
 10
68.204086
 20
259.982463
 30
0.0
 10
69.462616
 20
258.247968
 30
0.0
 10
75.510720
 20
262.134851
 30
0.0
 10
74.455782
 20
264.000185
 30
0.0
 10
73.289087
 20
268.183248
 30
0.0
 10
73.084430
 20
275.248250
 30
0.0
 10
77.172332
 20
277.115133
 30
0.0
 10
82.377681
 20
272.333871
 30
0.0
 10
84.775006
 20
268.712819
 30
0.0
 10
85.493894
 20
266.694013
 30
0.0
 10
92.392071
 20
268.719502
 30
0.0
 10
91.905390
 20
270.806487
 30
0.0
 10
91.964459
 20
275.148803
 30
0.0
 10
93.758532
 20
281.985281
 30
0.0
 10
98.206808
 20
282.624845
 30
0.0
 10
101.854265
 20
276.570743
 30
0.0
 10
103.134315
 20
272.420962
 30
0.0
 10
103.255321
 20
270.281399
 30
0.0
 10
110.444717
 20
270.281399
 30
0.0
 10
110.565723
 20
272.420962
 30
0.0
 10
111.845773
 20
276.570743
 30
0.0
 10
115.493230
 20
282.624845
 30
0.0
 10
119.941507
 20
281.985281
 30
0.0
 10
121.735579
 20
275.148803
 30
0.0
 10
121.794648
 20
270.806487
 30
0.0
 10
121.307967
 20
268.719502
 30
0.0
 10
128.206144
 20
266.694013
 30
0.0
 10
128.925032
 20
268.712819
 30
0.0
 10
131.322358
 20
272.333871
 30
0.0
 10
136.527707
 20
277.115133
 30
0.0
 10
140.615608
 20
275.248250
 30
0.0
 10
140.410952
 20
268.183248
 30
0.0
 10
139.244256
 20
264.000185
 30
0.0
 10
138.189318
 20
262.134851
 30
0.0
 10
144.237422
 20
258.247968
 30
0.0
 10
145.495953
 20
259.982463
 30
0.0
 10
148.816339
 20
262.781433
 30
0.0
 10
155.157873
 20
265.902503
 30
0.0
 10
158.554225
 20
262.959549
 30
0.0
 10
156.367418
 20
256.238390
 30
0.0
 10
154.069477
 20
252.553463
 30
0.0
 10
152.531744
 20
251.060900
 30
0.0
 10
157.239798
 20
245.627515
 30
0.0
 10
158.936013
 20
246.937181
 30
0.0
 10
162.910461
 20
248.687312
 30
0.0
 10
169.874424
 20
249.895342
 30
0.0
 10
172.304075
 20
246.114735
 30
0.0
 10
168.312276
 20
240.281924
 30
0.0
 10
165.069255
 20
237.393668
 30
0.0
 10
163.173308
 20
236.394793
 30
0.0
 10
166.159891
 20
229.855086
 30
0.0
 10
168.156374
 20
230.633824
 30
0.0
 10
172.462898
 20
231.193330
 30
0.0
 10
179.485112
 20
230.390450
 30
0.0
 10
180.751223
 20
226.078473
 30
0.0
 10
175.277831
 20
221.606552
 30
0.0
 10
171.352458
 20
219.748956
 30
0.0
 10
169.251895
 20
219.324692
 30
0.0
 10
170.275052
 20
212.208470
 30
0.0
  0
LWPOLYLINE
  5
112
100
AcDbEntity
  8
Layer_1
 62
1
100
AcDbPolyline
 90
2
 70
1
 10
101.406956
 20
98.490161
 30
0.0
 10
101.406956
 20
98.490161
 30
0.0
  0
LWPOLYLINE
  5
113
100
AcDbEntity
  8
Layer_1
 62
1
100
AcDbPolyline
 90
81
 70
1
 10
121.496068
 20
102.848140
 30
0.0
 10
125.877024
 20
103.609110
 30
0.0
 10
127.846051
 20
103.469625
 30
0.0
 10
134.558340
 20
100.360160
 30
0.0
 10
134.558340
 20
96.620162
 30
0.0
 10
127.846051
 20
93.510697
 30
0.0
 10
125.877024
 20
93.371211
 30
0.0
 10
121.496068
 20
94.132181
 30
0.0
 10
119.266030
 20
87.268830
 30
0.0
 10
123.257587
 20
85.309407
 30
0.0
 10
124.768573
 20
84.039195
 30
0.0
 10
128.371233
 20
77.578203
 30
0.0
 10
126.172917
 20
74.552478
 30
0.0
 10
118.914864
 20
75.982253
 30
0.0
 10
117.239898
 20
77.026771
 30
0.0
 10
114.142918
 20
80.217471
 30
0.0
 10
108.304604
 20
75.975685
 30
0.0
 10
110.382121
 20
72.044305
 30
0.0
 10
110.857922
 20
70.128543
 30
0.0
 10
109.974857
 20
62.783899
 30
0.0
 10
106.417906
 20
61.628177
 30
0.0
 10
101.386420
 20
67.051065
 30
0.0
 10
100.645296
 20
68.880619
 30
0.0
 10
100.015235
 20
73.282306
 30
0.0
 10
92.798677
 20
73.282306
 30
0.0
 10
92.168616
 20
68.880619
 30
0.0
 10
91.427492
 20
67.051065
 30
0.0
 10
86.396006
 20
61.628177
 30
0.0
 10
82.839055
 20
62.783899
 30
0.0
 10
81.955990
 20
70.128543
 30
0.0
 10
82.431791
 20
72.044305
 30
0.0
 10
84.509308
 20
75.975685
 30
0.0
 10
78.670994
 20
80.217471
 30
0.0
 10
75.574014
 20
77.026771
 30
0.0
 10
73.899048
 20
75.982253
 30
0.0
 10
66.640995
 20
74.552478
 30
0.0
 10
64.442679
 20
77.578203
 30
0.0
 10
68.045338
 20
84.039195
 30
0.0
 10
69.556325
 20
85.309407
 30
0.0
 10
73.547882
 20
87.268830
 30
0.0
 10
71.317843
 20
94.132181
 30
0.0
 10
66.936888
 20
93.371211
 30
0.0
 10
64.967860
 20
93.510697
 30
0.0
 10
58.255572
 20
96.620162
 30
0.0
 10
58.255572
 20
100.360160
 30
0.0
 10
64.967860
 20
103.469625
 30
0.0
 10
66.936888
 20
103.609110
 30
0.0
 10
71.317843
 20
102.848140
 30
0.0
 10
73.547882
 20
109.711491
 30
0.0
 10
69.556325
 20
111.670915
 30
0.0
 10
68.045338
 20
112.941127
 30
0.0
 10
64.442679
 20
119.402119
 30
0.0
 10
66.640995
 20
122.427843
 30
0.0
 10
73.899048
 20
120.998069
 30
0.0
 10
75.574014
 20
119.953550
 30
0.0
 10
78.670994
 20
116.762850
 30
0.0
 10
84.509308
 20
121.004636
 30
0.0
 10
82.431791
 20
124.936017
 30
0.0
 10
81.955990
 20
126.851778
 30
0.0
 10
82.839055
 20
134.196422
 30
0.0
 10
86.396006
 20
135.352145
 30
0.0
 10
91.427492
 20
129.929256
 30
0.0
 10
92.168616
 20
128.099703
 30
0.0
 10
92.798677
 20
123.698015
 30
0.0
 10
100.015235
 20
123.698015
 30
0.0
 10
100.645296
 20
128.099703
 30
0.0
 10
101.386420
 20
129.929256
 30
0.0
 10
106.417906
 20
135.352145
 30
0.0
 10
109.974857
 20
134.196422
 30
0.0
 10
110.857922
 20
126.851778
 30
0.0
 10
110.382121
 20
124.936017
 30
0.0
 10
108.304604
 20
121.004636
 30
0.0
 10
114.142918
 20
116.762850
 30
0.0
 10
117.239898
 20
119.953550
 30
0.0
 10
118.914864
 20
120.998069
 30
0.0
 10
126.172917
 20
122.427843
 30
0.0
 10
128.371233
 20
119.402119
 30
0.0
 10
124.768573
 20
112.941127
 30
0.0
 10
123.257587
 20
111.670915
 30
0.0
 10
119.266030
 20
109.711491
 30
0.0
 10
121.496068
 20
102.848140
 30
0.0
  0
ENDSEC
  0
SECTION
  2
OBJECTS
  0
DICTIONARY
  5
C
330
0
100
AcDbDictionary
  3
ACAD_GROUP
350
D
  3
ACAD_MLINESTYLE
350
17
  0
DICTIONARY
  5
D
330
C
100
AcDbDictionary
  0
DICTIONARY
  5
1A
330
C
100
AcDbDictionary
  0
DICTIONARY
  5
17
330
C
100
AcDbDictionary
  3
STANDARD
350
18
  0
DICTIONARY
  5
19
330
C
100
AcDbDictionary
  0
ENDSEC
  0
EOF
