<?xml version="1.0" encoding="UTF-8" standalone="no"?>
<!-- Created with Inkscape (http://www.inkscape.org/) -->

<svg
   xmlns:dc="http://purl.org/dc/elements/1.1/"
   xmlns:cc="http://creativecommons.org/ns#"
   xmlns:rdf="http://www.w3.org/1999/02/22-rdf-syntax-ns#"
   xmlns:svg="http://www.w3.org/2000/svg"
   xmlns="http://www.w3.org/2000/svg"
   xmlns:sodipodi="http://sodipodi.sourceforge.net/DTD/sodipodi-0.dtd"
   xmlns:inkscape="http://www.inkscape.org/namespaces/inkscape"
   width="500mm"
   height="500mm"
   viewBox="0 0 1771.6535 1771.6535"
   id="svg2"
   version="1.1"
   inkscape:version="0.91 r13725"
   sodipodi:docname="WRENCH.svg">
  <defs
     id="defs4" />
  <sodipodi:namedview
     id="base"
     pagecolor="#ffffff"
     bordercolor="#666666"
     borderopacity="1.0"
     inkscape:pageopacity="0.0"
     inkscape:pageshadow="2"
     inkscape:zoom="0.24748737"
     inkscape:cx="354.69335"
     inkscape:cy="756.17356"
     inkscape:document-units="mm"
     inkscape:current-layer="layer1"
     showgrid="false"
     inkscape:window-width="1360"
     inkscape:window-height="746"
     inkscape:window-x="1432"
     inkscape:window-y="-8"
     inkscape:window-maximized="1" />
  <metadata
     id="metadata7">
    <rdf:RDF>
      <cc:Work
         rdf:about="">
        <dc:format>image/svg+xml</dc:format>
        <dc:type
           rdf:resource="http://purl.org/dc/dcmitype/StillImage" />
        <dc:title></dc:title>
      </cc:Work>
    </rdf:RDF>
  </metadata>
  <g
     inkscape:label="Layer 1"
     inkscape:groupmode="layer"
     id="layer1"
     transform="translate(0,719.29134)">
    <path
       style="fill:none;stroke:#ff0000"
       d="m 1387.9953,-390.12175 c -81.6032,0.21993 -141.5347,13.28783 -193.9453,42.30859 -30.1865,16.70857 -66.7967,52.01641 -86.0801,81.95313 -14.3932,6.40881 -35.3723,36.43468 -58.2578,45.45508 -72.94676,28.75196 -100.04236,34.60053 -163.31442,47.22265 -66.54072,13.27417 -114.87467,14.71483 -516.5625,15.16016 l -362.1738318,0.39258 0,299.5957 c 380.6604018,-0.14317 735.3160418,0.21015 769.0722718,1.59961 113.5606,4.67465 267.13238,28.1571 383.90618,75.94531 7.8888,13.2792 16.1176,26.34505 24.875,38.96875 26.9065,38.78591 71.4279,81.41881 103.711,99.33011 55.8544,30.9889 115.0761,38.8438 176.9043,23.4433 46.7765,-11.6517 106.367,-41.6152 148.1269,-74.541 l 60.6699,-55.1953 c 50.8839,-50.9906 86.7261,-98.4521 100.961,-133.64062 4.6183,-11.41666 4.5835,-14.88201 -0.1973,-18.472659 -6.3426,-4.76449 -40.5578,0.56534 -104.1875,16.226559 -72.5204,17.40632 16.7565,-3.78569 -72.5195,17.40821 -95.0498,22.59298 -161.5013,34.57277 -168.5098,30.37695 -3.9219,-2.34811 -20.5813,-18.88666 -37.0312,-36.75195 -33.1911,-36.047839 -47.8479,-59.482889 -63.4512,-101.548829 l -13.168,-47.98047 c -5.938,-29.39623 -6.8393,-70.16835 -2.2168,-101.296871 4.0206,-27.07603 20.1909,-80.13471 26.7266,-87.73633 3.1538,-3.66856 40.0927,-15.57268 206.1308,-66.3711 73.3356,-23.64492 85.2119,-21.73226 115.1387,-39.55859 2.6242,-3.49665 2.0735,-7.26352 -1.6289,-11.31445 -18.0211,-14.66578 -26.4727,-15.5107 -44.8359,-22.57227 -77.6751,-27.08938 -146.3243,-38.62704 -228.1426,-38.40625 z"
       id="path4303"
       inkscape:connector-curvature="0" />
  </g>
</svg>
