<?xml version="1.0" encoding="UTF-8" standalone="no"?>
<!-- Created with Inkscape (http://www.inkscape.org/) -->

<svg
   xmlns:dc="http://purl.org/dc/elements/1.1/"
   xmlns:cc="http://creativecommons.org/ns#"
   xmlns:rdf="http://www.w3.org/1999/02/22-rdf-syntax-ns#"
   xmlns:svg="http://www.w3.org/2000/svg"
   xmlns="http://www.w3.org/2000/svg"
   xmlns:sodipodi="http://sodipodi.sourceforge.net/DTD/sodipodi-0.dtd"
   xmlns:inkscape="http://www.inkscape.org/namespaces/inkscape"
   id="svg5998"
   version="1.1"
   inkscape:version="0.91 r13725"
   width="832.5"
   height="614.0625"
   viewBox="0 0 832.5 614.0625"
   sodipodi:docname="appselent_capt.svg">
  <metadata
     id="metadata6004">
    <rdf:RDF>
      <cc:Work
         rdf:about="">
        <dc:format>image/svg+xml</dc:format>
        <dc:type
           rdf:resource="http://purl.org/dc/dcmitype/StillImage" />
        <dc:title></dc:title>
      </cc:Work>
    </rdf:RDF>
  </metadata>
  <defs
     id="defs6002" />
  <sodipodi:namedview
     pagecolor="#ffffff"
     bordercolor="#666666"
     borderopacity="1"
     objecttolerance="10"
     gridtolerance="10"
     guidetolerance="10"
     inkscape:pageopacity="0"
     inkscape:pageshadow="2"
     inkscape:window-width="1440"
     inkscape:window-height="837"
     id="namedview6000"
     showgrid="false"
     inkscape:zoom="1.0430356"
     inkscape:cx="190.302"
     inkscape:cy="315.35615"
     inkscape:window-x="-4"
     inkscape:window-y="-4"
     inkscape:window-maximized="1"
     inkscape:current-layer="svg5998" />
  <path
     style="fill:#000000"
     d="M 435.63281 55.962891 C 428.66821 55.962891 421.70287 56.29741 417.48047 56.96875 C 416.98537 57.04745 415.49979 57.269427 414.17969 57.460938 C 409.44779 58.147407 403.60802 59.423368 396.47852 61.330078 C 393.12782 62.226178 383.87943 65.555662 380.42773 67.107422 C 374.01093 69.992212 372.44725 70.755517 368.74805 72.810547 C 367.02775 73.766217 365.59169 74.546875 365.55469 74.546875 C 365.09229 74.546875 355.48638 80.896749 351.85938 83.599609 C 342.85407 90.310279 333.25173 99.573889 326.33203 108.23047 C 321.01203 114.88594 316.98547 120.86377 312.98047 128.04883 C 311.17897 131.2809 307.2207 139.15313 307.2207 139.50391 C 307.2207 139.57635 306.8836 140.37462 306.4707 141.27734 C 304.8897 144.73381 302.7283 150.73503 301.2207 155.85547 C 300.8562 157.09308 300.4472 158.44293 300.3125 158.85547 C 300.0008 159.80947 298.82605 164.74039 298.06055 168.30664 C 296.52915 175.44071 295.23047 188.21668 295.23047 196.05859 C 295.23247 199.83413 295.87214 209.52887 296.40234 213.82422 C 296.93404 218.13126 297.86298 223.0948 299.42188 229.96094 C 301.18318 237.71827 305.17833 248.64778 309.45703 257.41406 C 321.95933 283.02896 341.33272 303.66703 366.60352 318.29492 C 370.60052 320.60854 379.48016 324.85272 383.72266 326.47656 C 384.79856 326.88831 385.94734 327.33425 386.27734 327.46875 C 397.46474 332.02844 415.05072 335.68577 428.73242 336.29688 C 432.56622 336.46812 445.848 336.17997 448.5332 335.86719 C 456.8346 334.90017 458.40654 334.66182 463.83594 333.55859 C 471.45464 332.01052 479.59203 329.66732 484.98633 327.46875 C 485.31633 327.33425 486.46717 326.88831 487.54297 326.47656 C 494.15637 323.94526 502.51048 319.70907 509.73828 315.22461 C 539.35108 296.85139 561.87577 266.74865 570.95117 233.41211 C 571.67287 230.76117 571.75263 230.42488 572.83203 225.46094 C 574.78993 216.45733 576.03516 205.07739 576.03516 196.20898 C 576.03516 188.1992 574.74523 175.4902 573.20312 168.30664 C 572.45122 164.80404 571.26748 159.82601 570.95508 158.85547 C 570.82228 158.44293 570.54163 157.49648 570.33203 156.75391 C 569.06673 152.27149 566.35042 144.67794 564.79492 141.27734 C 564.38202 140.37462 564.04297 139.56797 564.04297 139.48438 C 564.04297 139.1211 560.14238 131.37906 558.23828 127.96484 C 546.34368 106.63574 528.87488 88.555162 507.83398 75.794922 C 506.70328 75.109202 505.74794 74.546875 505.71094 74.546875 C 505.67414 74.546875 504.23593 73.766217 502.51562 72.810547 C 498.81642 70.755517 497.25469 69.992212 490.83789 67.107422 C 487.38619 65.555662 478.13586 62.226178 474.78516 61.330078 C 467.65566 59.423368 461.81588 58.147407 457.08398 57.460938 C 455.76388 57.269427 454.2782 57.04745 453.7832 56.96875 C 449.5608 56.29741 442.59741 55.962891 435.63281 55.962891 z M 435.63281 120.63086 C 438.16941 120.63086 438.67329 120.72565 440.21289 121.49219 C 443.99909 123.37735 442.17686 120.03977 472.22656 180.13867 C 487.25956 210.20413 499.7714 235.42427 500.0293 236.18359 C 500.7314 238.25185 500.48441 241.65814 499.47461 243.83398 C 498.55361 245.81828 496.32589 248.1732 494.58789 249.00195 C 492.52949 249.98353 489.90612 250.34061 487.76172 249.93164 C 485.23142 249.44906 483.753 248.69557 482.0918 247.04102 C 480.9276 245.88159 479.74654 243.75105 474.93164 234.13086 C 471.76004 227.79417 469.02331 222.43425 468.84961 222.21875 C 468.60661 221.91717 465.4533 224.89398 455.1582 235.14648 C 444.737 245.52464 441.452 248.62545 440.2832 249.18164 C 438.9987 249.79286 438.33011 249.89453 435.63281 249.89453 C 432.93541 249.89453 432.26682 249.79286 430.98242 249.18164 C 429.81352 248.62545 426.52677 245.52464 416.10547 235.14648 C 405.78867 224.87235 402.65731 221.91653 402.41211 222.21875 C 402.23731 222.43425 399.5078 227.78881 396.3457 234.11719 C 391.5152 243.78471 390.3716 245.8472 389.1875 247.02734 C 387.6683 248.54152 385.78895 249.55537 383.87695 249.89258 C 383.21685 250.00899 382.40812 250.15068 382.07812 250.20898 C 381.19603 250.36477 378.05953 249.66504 376.67773 249.00391 C 374.93793 248.17146 372.71122 245.81679 371.79102 243.83398 C 370.78112 241.65814 370.53413 238.25185 371.23633 236.18359 C 371.49413 235.42427 384.00421 210.20413 399.03711 180.13867 C 429.08691 120.03977 427.26643 123.37735 431.05273 121.49219 C 432.59223 120.7256 433.09611 120.63086 435.63281 120.63086 z M 435.63281 156.1543 C 435.46821 156.1543 430.25854 166.30217 424.05664 178.70508 L 412.78125 201.25586 L 423.98047 212.45898 C 430.14007 218.62022 435.38361 223.66016 435.63281 223.66016 C 435.88191 223.66016 441.12556 218.62022 447.28516 212.45898 L 458.48438 201.25586 L 447.20703 178.70508 C 441.00513 166.30217 435.79741 156.1543 435.63281 156.1543 z M 475.23633 388.07422 C 474.04823 388.07422 472.65362 388.96098 472.13672 390.04492 C 471.67892 391.00591 471.63477 393.88587 471.63477 423.95312 C 471.63477 459.68401 471.55474 457.8873 473.24414 459.25 C 473.63984 459.5691 474.40513 459.76758 475.23633 459.76758 C 476.77053 459.76758 477.62552 459.22038 478.35352 457.77148 C 478.78792 456.90688 478.83594 453.5423 478.83594 423.95312 C 478.83594 393.88586 478.79424 391.00591 478.33594 390.04492 C 477.81904 388.96098 476.42443 388.07422 475.23633 388.07422 z M 550.85156 388.09961 C 550.34426 388.09735 549.83888 388.23945 549.23633 388.52539 C 547.51273 389.34329 547.40844 389.7536 547.24414 396.32617 L 547.09375 402.32617 L 544.69336 402.49023 C 541.98266 402.67618 541.21174 403.04672 540.52344 404.49023 C 539.92014 405.75059 539.92044 406.16711 540.52344 407.36719 C 541.37264 409.05736 542.02067 409.36114 544.75977 409.36914 L 547.22656 409.37695 L 547.30859 430.30469 C 547.38589 449.82418 547.43032 451.33127 547.94922 452.73047 C 549.00312 455.57247 551.47306 458.06671 554.35156 459.19141 L 554.35352 459.19141 C 556.23712 459.92701 559.16041 459.9572 560.03711 459.25 C 560.74861 458.6761 561.64453 457.06227 561.64453 456.35547 C 561.64453 455.49367 560.67357 453.8676 559.88477 453.4082 C 559.44987 453.155 558.49055 452.84856 557.75195 452.72656 C 556.82215 452.57296 556.10773 452.20344 555.42773 451.52344 L 554.44531 450.54102 L 554.44531 429.95898 L 554.44531 409.37695 L 556.91992 409.36914 C 559.66752 409.36173 560.31231 409.05853 561.16211 407.36719 C 561.76071 406.17686 561.76651 405.67249 561.19531 404.46875 C 560.53621 403.07972 559.67699 402.67414 556.99609 402.49023 L 554.5957 402.32617 L 554.44531 396.47461 C 554.27951 390.00799 554.10582 389.30941 552.48242 388.53906 C 551.86837 388.24775 551.35886 388.10187 550.85156 388.09961 z M 518.48438 409.67773 C 517.35148 409.67476 515.93163 410.50586 515.36523 411.50195 C 514.87813 412.35825 514.83984 414.03509 514.83984 434.61914 C 514.83984 458.67794 514.78987 457.9131 516.44727 459.25 C 516.84297 459.5691 517.60825 459.76758 518.43945 459.76758 C 519.97365 459.76758 520.83059 459.22038 521.55859 457.77148 C 521.98499 456.92258 522.04102 454.80912 522.04102 439.54102 C 522.04102 422.6323 522.05412 422.24369 522.66992 420.93359 C 523.80732 418.51382 526.81299 416.57812 529.43359 416.57812 C 530.84079 416.57812 533.38874 417.79757 534.46094 418.98438 C 536.51324 421.25651 536.44141 420.5017 536.44141 439.58008 C 536.44141 454.81148 536.49733 456.92268 536.92383 457.77148 C 537.65173 459.22038 538.50682 459.76758 540.04102 459.76758 C 541.57532 459.76758 542.43226 459.22038 543.16016 457.77148 C 543.58616 456.92268 543.63672 454.83363 543.63672 439.76953 C 543.63182 420.99773 543.59221 420.50788 541.78711 417.12109 C 540.69861 415.07883 537.78378 412.22264 535.83008 411.2832 C 533.12998 409.98486 532.41653 409.82617 529.24023 409.82617 C 526.20873 409.82617 525.56912 409.95486 523.04492 411.0625 C 521.85172 411.58613 521.52997 411.58404 521.23047 411.04883 C 520.90097 410.4599 519.33968 409.68073 518.48438 409.67773 z M 324.02148 409.82617 C 322.09088 409.82617 320.46587 409.98364 319.82227 410.23242 C 314.25957 412.38274 310.77259 416.46289 309.86719 421.87891 C 309.54589 423.80082 309.56564 424.15708 310.05664 425.24609 C 310.35884 425.9162 310.91943 426.67071 311.30273 426.92188 C 312.24403 427.53857 314.40864 427.49794 315.21484 426.84766 C 316.11454 426.12201 316.82227 424.59357 316.82227 423.37891 C 316.82227 420.9045 318.89286 418.16712 321.50586 417.18945 C 323.47246 416.45367 324.03894 416.43703 326.08594 417.04492 C 327.99274 417.61119 329.74085 419.11921 330.59375 420.93359 C 331.20065 422.22476 331.22266 422.70701 331.22266 434.68945 C 331.22266 448.13195 331.21933 448.16979 329.55273 450.15039 C 328.12273 451.84979 326.38992 452.63539 324.04492 452.65039 C 322.33052 452.66109 321.73355 452.52741 320.62695 451.87891 C 318.12575 450.41311 316.82227 448.237 316.82227 445.5293 C 316.82227 443.5904 317.40763 442.13004 318.80273 440.58594 C 319.99003 439.27164 322.44861 438.18288 324.25781 438.17188 C 325.54391 438.16418 326.45603 437.53252 327.14062 436.16992 C 327.74762 434.96252 327.74545 434.5553 327.12305 433.25 C 326.38515 431.7026 325.01952 431.15483 322.48242 431.39062 C 321.36202 431.49473 320.06977 431.73257 319.60938 431.91797 C 310.96878 435.39627 307.41951 443.85341 311.25781 451.82031 C 312.95975 455.35277 315.64739 457.72883 319.41797 459.03516 L 319.41992 459.03516 C 322.16117 459.98417 325.68809 460.03362 328.30664 459.1582 C 329.33284 458.8152 330.30023 458.40981 330.45703 458.25781 C 330.95583 457.77421 331.54345 457.95566 332.46875 458.88086 C 333.21515 459.62726 333.60888 459.78539 334.77148 459.77539 C 336.36028 459.76779 337.20761 459.23208 337.94141 457.77148 C 338.36741 456.92268 338.41992 454.83363 338.41992 439.76953 C 338.41512 420.99766 338.37356 420.50788 336.56836 417.12109 C 335.47986 415.07883 332.56503 412.22264 330.61133 411.2832 C 327.91123 409.98486 327.19778 409.82617 324.02148 409.82617 z M 356.42578 409.82617 C 353.24948 409.82617 352.53604 409.98486 349.83594 411.2832 C 347.88224 412.22264 344.96741 415.07883 343.87891 417.12109 C 341.99391 420.65783 342.0293 419.93602 342.0293 450.57031 C 342.0245 480.81241 341.95336 479.49856 343.63086 480.85156 C 344.02646 481.17076 344.7938 481.36914 345.625 481.36914 C 347.1592 481.36914 348.01419 480.82195 348.74219 479.37305 C 349.17559 478.51135 349.22461 475.53741 349.22461 450.38281 C 349.22461 419.34631 349.10068 421.31372 351.20508 418.98438 C 352.27728 417.79756 354.82532 416.57812 356.23242 416.57812 C 358.85302 416.57812 361.86065 418.51382 362.99805 420.93359 C 363.60505 422.22476 363.62695 422.70701 363.62695 434.68945 C 363.62695 448.13195 363.62168 448.16979 361.95508 450.15039 C 360.82458 451.49399 358.93512 452.48014 357.04102 452.71484 C 356.14192 452.82624 355.04291 453.13078 354.59961 453.39258 C 353.79691 453.86678 352.82422 455.48987 352.82422 456.35547 C 352.82422 457.06217 353.72024 458.6761 354.43164 459.25 C 355.82404 460.373 360.67901 459.63045 363.81641 457.81445 C 366.87151 456.04605 369.71305 451.93293 370.49805 448.14062 C 370.70515 447.14033 370.82227 442.13307 370.82227 434.63867 C 370.81737 421.47785 370.69976 420.36161 368.97266 417.12109 C 367.88416 415.07883 364.96933 412.22264 363.01562 411.2832 C 360.31552 409.98486 359.60218 409.82617 356.42578 409.82617 z M 388.82812 409.82617 C 385.65182 409.82617 384.93838 409.98486 382.23828 411.2832 C 380.28458 412.22264 377.36975 415.07883 376.28125 417.12109 C 374.39625 420.65783 374.43164 419.93602 374.43164 450.57031 C 374.42674 480.81241 374.35766 479.49856 376.03516 480.85156 C 376.43086 481.17076 377.19614 481.36914 378.02734 481.36914 C 379.56154 481.36914 380.41653 480.82195 381.14453 479.37305 C 381.57693 478.51135 381.62695 475.5331 381.62695 450.3418 C 381.62695 422.46665 381.63126 422.26232 382.25586 420.93359 C 383.39326 418.51382 386.40088 416.57812 389.02148 416.57812 C 391.41318 416.57812 394.55437 418.82169 395.57227 421.25781 C 396.23787 422.85065 396.25324 446.5705 395.58984 448.1582 C 394.55764 450.6288 392.20023 452.37973 389.42773 452.73633 C 388.52013 452.85313 387.42308 453.1548 386.98828 453.4082 C 386.19938 453.8679 385.22852 455.49377 385.22852 456.35547 C 385.22852 457.06217 386.12454 458.6761 386.83594 459.25 C 388.22824 460.373 393.0833 459.63045 396.2207 457.81445 C 399.2758 456.04605 402.11529 451.93293 402.90039 448.14062 C 403.10739 447.14033 403.22461 442.13307 403.22461 434.63867 C 403.21971 421.47785 403.1022 420.36161 401.375 417.12109 C 400.2865 415.07883 397.37167 412.22264 395.41797 411.2832 C 392.71787 409.98486 392.00443 409.82617 388.82812 409.82617 z M 421.23047 409.82617 C 419.29987 409.82617 417.67485 409.98364 417.03125 410.23242 C 408.31615 413.60139 404.52396 422.48171 408.35156 430.56055 C 409.96936 433.97535 412.70452 435.76467 419.97852 438.16797 C 424.39802 439.62817 425.57289 440.20324 426.83789 441.52734 C 428.03109 442.77624 428.43164 443.81521 428.43164 445.66211 C 428.43164 448.22611 427.08349 450.43923 424.65039 451.86523 C 422.74429 452.98223 419.72964 452.98861 417.83594 451.87891 C 415.55244 450.54071 414.03125 448.23132 414.03125 446.10352 C 414.03125 441.92102 408.92589 440.53066 407.24609 444.25586 C 406.77589 445.29866 406.75788 445.66891 407.08398 447.57031 C 407.77108 451.57751 410.20665 455.43325 413.37695 457.53125 C 414.03535 457.96705 415.49765 458.64406 416.62695 459.03516 C 420.42375 460.35016 425.05605 459.87905 428.62305 457.81445 C 430.60985 456.66445 432.87714 454.13431 433.99414 451.82031 C 435.42374 448.85931 435.86268 446.05268 435.36328 443.08008 C 434.34288 437.00728 431.6514 434.42578 423.5332 431.73828 C 417.3877 429.70369 415.92017 428.89911 414.76367 426.92578 C 413.89457 425.44268 413.77438 422.96643 414.48828 421.25781 C 415.23318 419.47514 416.90134 417.86799 418.71484 417.18945 C 420.68144 416.45367 421.24792 416.43703 423.29492 417.04492 C 426.06712 417.86819 428.43164 420.76585 428.43164 423.33984 C 428.43164 425.64971 429.9319 427.36059 431.9668 427.37109 C 433.5979 427.37955 434.50357 426.78456 435.19727 425.24609 C 435.68837 424.15708 435.70802 423.79886 435.38672 421.87695 C 434.48132 416.46093 430.99434 412.38274 425.43164 410.23242 C 424.78804 409.98364 423.16107 409.82617 421.23047 409.82617 z M 453.63477 409.82617 C 450.45837 409.82617 449.74492 409.98486 447.04492 411.2832 C 445.08972 412.22333 442.17604 415.07968 441.08594 417.125 C 439.29924 420.47269 439.19823 421.53442 439.29883 435.57812 C 439.39933 449.60892 439.41572 449.73266 441.51172 453.06836 C 443.38882 456.05556 445.68275 457.87546 449.03125 459.03516 L 449.0332 459.03516 C 452.8301 460.35016 457.4623 459.87905 461.0293 457.81445 C 464.3019 455.92015 467.07416 451.71621 467.78516 447.57031 C 468.11116 445.66891 468.09335 445.29866 467.62305 444.25586 C 465.94325 440.53066 460.83789 441.92102 460.83789 446.10352 C 460.83789 448.23132 459.3166 450.54071 457.0332 451.87891 C 455.9265 452.52741 455.32963 452.66139 453.61523 452.65039 C 451.27013 452.63569 449.53732 451.84979 448.10742 450.15039 C 446.43672 448.16979 446.43555 448.13195 446.43555 434.68945 C 446.43555 422.70701 446.45755 422.22476 447.06445 420.93359 C 448.20185 418.51382 451.20948 416.57812 453.83008 416.57812 C 455.23718 416.57812 457.78522 417.79757 458.85742 418.98438 C 460.65402 420.97302 460.86253 421.82435 460.76953 426.75781 L 460.6875 431.12891 L 456.48633 431.2793 C 451.85683 431.4446 451.30903 431.62927 450.51562 433.29297 C 449.91233 434.55337 449.91262 434.96992 450.51562 436.16992 C 451.51182 438.15282 451.57356 438.16602 459.03516 438.16602 C 466.49666 438.16602 466.55653 438.15272 467.55273 436.16992 C 467.95073 435.37882 468.03125 434.11025 468.03125 428.96875 C 468.02625 421.95871 467.72284 420.01268 466.18164 417.12109 C 465.09314 415.07883 462.17831 412.22264 460.22461 411.2832 C 457.52451 409.98486 456.81107 409.82617 453.63477 409.82617 z M 496.83789 409.82617 C 493.66159 409.82617 492.94815 409.98486 490.24805 411.2832 C 488.29285 412.22333 485.37916 415.07968 484.28906 417.125 C 482.50236 420.47269 482.40145 421.53442 482.50195 435.57812 C 482.60245 449.60892 482.61874 449.73266 484.71484 453.06836 C 486.59184 456.05556 488.88578 457.87546 492.23438 459.03516 L 492.23633 459.03516 C 496.03323 460.35016 500.66552 459.87905 504.23242 457.81445 C 507.50502 455.92015 510.27738 451.71621 510.98828 447.57031 C 511.31438 445.66891 511.29637 445.29866 510.82617 444.25586 C 509.14627 440.53066 504.04102 441.92102 504.04102 446.10352 C 504.04102 448.23132 502.51983 450.54071 500.23633 451.87891 C 499.12963 452.52741 498.53276 452.66139 496.81836 452.65039 C 494.47336 452.63569 492.74055 451.84979 491.31055 450.15039 C 489.63985 448.16979 489.64062 448.13195 489.64062 434.68945 C 489.64062 422.70701 489.66263 422.22476 490.26953 420.93359 C 491.40693 418.51382 494.4126 416.57812 497.0332 416.57812 C 498.4404 416.57812 500.98835 417.79757 502.06055 418.98438 C 503.85715 420.97302 504.06761 421.82435 503.97461 426.75781 L 503.89062 431.12891 L 499.68945 431.2793 C 495.05995 431.4446 494.5141 431.62927 493.7207 433.29297 C 493.1174 434.55337 493.1178 434.96992 493.7207 436.16992 C 494.7169 438.15282 494.77668 438.16602 502.23828 438.16602 C 509.69988 438.16602 509.75976 438.15272 510.75586 436.16992 C 511.15386 435.37882 511.23438 434.11025 511.23438 428.96875 C 511.22947 421.95871 510.92597 420.01268 509.38477 417.12109 C 508.29627 415.07883 505.38153 412.22264 503.42773 411.2832 C 500.72763 409.98486 500.01429 409.82617 496.83789 409.82617 z "
     id="path6563" />
</svg>
