<svg id="Layer_1" data-name="Layer 1" xmlns="http://www.w3.org/2000/svg" viewBox="0 0 294.8 294.81"><defs><style>.cls-1{fill:#231f20;}</style></defs><title>id Appselent macicon</title><path class="cls-1" d="M273.59,426.37a11.14,11.14,0,0,1,.89.73l23.16,23.16L320.8,427.1a11.14,11.14,0,0,1,.89-0.73l-24.05-48.11Z" transform="translate(-150.24 -273.54)"/><path class="cls-1" d="M297.64,273.54c-81.28,0-147.4,66.13-147.4,147.4s66.12,147.4,147.4,147.4S445,502.22,445,420.95,378.92,273.54,297.64,273.54Zm61.76,202.9a11.33,11.33,0,0,1-15.21-5.07l-11.86-23.73-26.67,26.67a11.33,11.33,0,0,1-16,0L263,447.64l-11.86,23.73a11.34,11.34,0,1,1-20.28-10.14L287.5,347.84a11.34,11.34,0,0,1,20.28,0l56.69,113.39A11.34,11.34,0,0,1,359.4,476.44Z" transform="translate(-150.24 -273.54)"/></svg>