  0
SECTION
  2
HEADER
  9
$ACADVER
  1
AC1014
  9
$HANDSEED
  5
FFFF
  9
$MEASUREMENT
 70
     1
  0
ENDSEC
  0
SECTION
  2
TABLES
  0
TABLE
  2
VPORT
  5
8
330
0
100
AcDbSymbolTable
 70
     4
  0
VPORT
  5
2E
330
8
100
AcDbSymbolTableRecord
100
AcDbViewportTableRecord
  2
*ACTIVE
 70
     0
 10
0.0
 20
0.0
 11
1.0
 21
1.0
 12
210.0
 22
148.5
 13
0.0
 23
0.0
 14
10.0
 24
10.0
 15
10.0
 25
10.0
 16
0.0
 26
0.0
 36
1.0
 17
0.0
 27
0.0
 37
0.0
 40
341.0
 41
1.24
 42
50.0
 43
0.0
 44
0.0
 50
0.0
 51
0.0
 71
     0
 72
   100
 73
     1
 74
     3
 75
     0
 76
     0
 77
     0
 78
     0
  0
ENDTAB
  0
TABLE
  2
LTYPE
  5
5
330
0
100
AcDbSymbolTable
 70
     1
  0
LTYPE
  5
14
330
5
100
AcDbSymbolTableRecord
100
AcDbLinetypeTableRecord
  2
BYBLOCK
 70
     0
  3

 72
    65
 73
     0
 40
0.0
  0
LTYPE
  5
15
330
5
100
AcDbSymbolTableRecord
100
AcDbLinetypeTableRecord
  2
BYLAYER
 70
     0
  3

 72
    65
 73
     0
 40
0.0
  0
LTYPE
  5
16
330
5
100
AcDbSymbolTableRecord
100
AcDbLinetypeTableRecord
  2
CONTINUOUS
 70
     0
  3
Solid line
 72
    65
 73
     0
 40
0.0
  0
ENDTAB
  0
TABLE
  2
LAYER
  5
2
100
AcDbSymbolTable
 70
2
  0
LAYER
  5
50
100
AcDbSymbolTableRecord
100
AcDbLayerTableRecord
  2
0
 70
0
  6
CONTINUOUS
  0
LAYER
  5
51
100
AcDbSymbolTableRecord
100
AcDbLayerTableRecord
  2
Layer_1
 70
0
  6
CONTINUOUS
  0
ENDTAB
  0
TABLE
  2
STYLE
  5
3
330
0
100
AcDbSymbolTable
 70
     1
  0
STYLE
  5
11
330
3
100
AcDbSymbolTableRecord
100
AcDbTextStyleTableRecord
  2
STANDARD
 70
     0
 40
0.0
 41
1.0
 50
0.0
 71
     0
 42
2.5
  3
txt
  4

  0
ENDTAB
  0
TABLE
  2
VIEW
  5
6
330
0
100
AcDbSymbolTable
 70
     0
  0
ENDTAB
  0
TABLE
  2
UCS
  5
7
330
0
100
AcDbSymbolTable
 70
     0
  0
ENDTAB
  0
TABLE
  2
APPID
  5
9
330
0
100
AcDbSymbolTable
 70
     2
  0
APPID
  5
12
330
9
100
AcDbSymbolTableRecord
100
AcDbRegAppTableRecord
  2
ACAD
 70
     0
  0
ENDTAB
  0
TABLE
  2
DIMSTYLE
  5
A
330
0
100
AcDbSymbolTable
 70
     1
  0
DIMSTYLE
105
27
330
A
100
AcDbSymbolTableRecord
100
AcDbDimStyleTableRecord
  2
ISO-25
 70
     0
  3

  4

  5

  6

  7

 40
1.0
 41
2.5
 42
0.625
 43
3.75
 44
1.25
 45
0.0
 46
0.0
 47
0.0
 48
0.0
140
2.5
141
2.5
142
0.0
143
0.03937007874016
144
1.0
145
0.0
146
1.0
147
0.625
 71
     0
 72
     0
 73
     0
 74
     0
 75
     0
 76
     0
 77
     1
 78
     8
170
     0
171
     3
172
     1
173
     0
174
     0
175
     0
176
     0
177
     0
178
     0
270
     2
271
     2
272
     2
273
     2
274
     3
340
11
275
     0
280
     0
281
     0
282
     0
283
     0
284
     8
285
     0
286
     0
287
     3
288
     0
  0
ENDTAB
  0
TABLE
  2
BLOCK_RECORD
  5
1
330
0
100
AcDbSymbolTable
 70
     1
  0
BLOCK_RECORD
  5
1F
330
1
100
AcDbSymbolTableRecord
100
AcDbBlockTableRecord
  2
*MODEL_SPACE
  0
BLOCK_RECORD
  5
1B
330
1
100
AcDbSymbolTableRecord
100
AcDbBlockTableRecord
  2
*PAPER_SPACE
  0
ENDTAB
  0
ENDSEC
  0
SECTION
  2
BLOCKS
  0
BLOCK
  5
20
330
1F
100
AcDbEntity
  8
0
100
AcDbBlockBegin
  2
*MODEL_SPACE
 70
     0
 10
0.0
 20
0.0
 30
0.0
  3
*MODEL_SPACE
  1

  0
ENDBLK
  5
21
330
1F
100
AcDbEntity
  8
0
100
AcDbBlockEnd
  0
BLOCK
  5
1C
330
1B
100
AcDbEntity
 67
     1
  8
0
100
AcDbBlockBegin
  2
*PAPER_SPACE
  1

  0
ENDBLK
  5
1D
330
1B
100
AcDbEntity
 67
     1
  8
0
100
AcDbBlockEnd
  0
ENDSEC
  0
SECTION
  2
ENTITIES
  0
SPLINE
  5
100
100
AcDbEntity
  8
Layer_1
 62
7
100
AcDbSpline
 70
8
 71
3
 72
8
 73
4
 74
0
 40
0
 40
0
 40
0
 40
0
 40
1
 40
1
 40
1
 40
1
 10
-171.752618
 20
212.728555
 30
0.0
 10
-179.281018
 20
212.730358
 30
0.0
 10
-188.230084
 20
212.718598
 30
0.0
 10
-198.763269
 20
212.694931
 30
0.0
  0
SPLINE
  5
101
100
AcDbEntity
  8
Layer_1
 62
7
100
AcDbSpline
 70
8
 71
3
 72
8
 73
4
 74
0
 40
0
 40
0
 40
0
 40
0
 40
1
 40
1
 40
1
 40
1
 10
-259.907924
 20
211.166963
 30
0.0
 10
-265.191850
 20
208.663936
 30
0.0
 10
-268.786336
 20
204.041145
 30
0.0
 10
-269.863423
 20
198.361680
 30
0.0
  0
SPLINE
  5
102
100
AcDbEntity
  8
Layer_1
 62
7
100
AcDbSpline
 70
8
 71
3
 72
8
 73
4
 74
0
 40
0
 40
0
 40
0
 40
0
 40
1
 40
1
 40
1
 40
1
 10
-269.863423
 20
198.361680
 30
0.0
 10
-270.498076
 20
195.015179
 30
0.0
 10
-270.463250
 20
84.288781
 30
0.0
 10
-269.826492
 20
80.844236
 30
0.0
  0
SPLINE
  5
103
100
AcDbEntity
  8
Layer_1
 62
7
100
AcDbSpline
 70
8
 71
3
 72
8
 73
4
 74
0
 40
0
 40
0
 40
0
 40
0
 40
1
 40
1
 40
1
 40
1
 10
-269.826492
 20
80.844236
 30
0.0
 10
-268.717355
 20
74.844364
 30
0.0
 10
-264.609284
 20
70.022010
 30
0.0
 10
-258.830298
 20
67.936427
 30
0.0
  0
SPLINE
  5
104
100
AcDbEntity
  8
Layer_1
 62
7
100
AcDbSpline
 70
8
 71
3
 72
8
 73
4
 74
0
 40
0
 40
0
 40
0
 40
0
 40
1
 40
1
 40
1
 40
1
 10
-258.830298
 20
67.936427
 30
0.0
 10
-256.596752
 20
67.130364
 30
0.0
 10
-254.552574
 20
67.106584
 30
0.0
 10
-196.575494
 20
67.199452
 30
0.0
  0
LWPOLYLINE
  5
105
100
AcDbEntity
  8
Layer_1
 62
7
100
AcDbPolyline
 90
3
 70
0
 10
-198.763269
 20
212.694931
 30
0.0
 10
-256.958372
 20
212.564293
 30
0.0
 10
-259.907924
 20
211.166963
 30
0.0
  0
SPLINE
  5
106
100
AcDbEntity
  8
Layer_1
 62
7
100
AcDbSpline
 70
8
 71
3
 72
8
 73
4
 74
0
 40
0
 40
0
 40
0
 40
0
 40
1
 40
1
 40
1
 40
1
 10
-134.147058
 20
68.459532
 30
0.0
 10
-129.214316
 20
70.771914
 30
0.0
 10
-125.622067
 20
75.443654
 30
0.0
 10
-124.635285
 20
80.830455
 30
0.0
  0
SPLINE
  5
107
100
AcDbEntity
  8
Layer_1
 62
7
100
AcDbSpline
 70
8
 71
3
 72
8
 73
4
 74
0
 40
0
 40
0
 40
0
 40
0
 40
1
 40
1
 40
1
 40
1
 10
-124.635285
 20
80.830455
 30
0.0
 10
-124.373705
 20
82.258429
 30
0.0
 10
-124.160139
 20
85.222993
 30
0.0
 10
-124.160139
 20
87.418580
 30
0.0
  0
SPLINE
  5
108
100
AcDbEntity
  8
Layer_1
 62
7
100
AcDbSpline
 70
8
 71
3
 72
8
 73
4
 74
0
 40
0
 40
0
 40
0
 40
0
 40
1
 40
1
 40
1
 40
1
 10
-124.160139
 20
87.418580
 30
0.0
 10
-124.160139
 20
91.357516
 30
0.0
 10
-124.175591
 20
91.417463
 30
0.0
 10
-125.362891
 20
91.923112
 30
0.0
  0
LWPOLYLINE
  5
109
100
AcDbEntity
  8
Layer_1
 62
7
100
AcDbPolyline
 90
3
 70
0
 10
-196.575494
 20
67.199452
 30
0.0
 10
-136.630283
 20
67.295365
 30
0.0
 10
-134.147058
 20
68.459532
 30
0.0
  0
SPLINE
  5
10a
100
AcDbEntity
  8
Layer_1
 62
7
100
AcDbSpline
 70
8
 71
3
 72
8
 73
4
 74
0
 40
0
 40
0
 40
0
 40
0
 40
1
 40
1
 40
1
 40
1
 10
-124.160139
 20
139.497953
 30
0.0
 10
-124.160139
 20
181.313925
 30
0.0
 10
-124.238250
 20
187.024691
 30
0.0
 10
-124.816085
 20
187.246425
 30
0.0
  0
SPLINE
  5
10b
100
AcDbEntity
  8
Layer_1
 62
7
100
AcDbSpline
 70
8
 71
3
 72
8
 73
4
 74
0
 40
0
 40
0
 40
0
 40
0
 40
1
 40
1
 40
1
 40
1
 10
-124.816085
 20
187.246425
 30
0.0
 10
-125.665476
 20
187.572363
 30
0.0
 10
-125.665476
 20
188.279951
 30
0.0
 10
-124.816085
 20
188.279951
 30
0.0
  0
SPLINE
  5
10c
100
AcDbEntity
  8
Layer_1
 62
7
100
AcDbSpline
 70
8
 71
3
 72
8
 73
4
 74
0
 40
0
 40
0
 40
0
 40
0
 40
1
 40
1
 40
1
 40
1
 10
-124.816085
 20
188.279951
 30
0.0
 10
-124.282304
 20
188.279951
 30
0.0
 10
-124.160139
 20
189.000033
 30
0.0
 10
-124.160139
 20
192.137356
 30
0.0
  0
SPLINE
  5
10d
100
AcDbEntity
  8
Layer_1
 62
7
100
AcDbSpline
 70
8
 71
3
 72
8
 73
4
 74
0
 40
0
 40
0
 40
0
 40
0
 40
1
 40
1
 40
1
 40
1
 10
-124.160139
 20
192.137356
 30
0.0
 10
-124.160139
 20
199.393854
 30
0.0
 10
-125.536602
 20
203.579350
 30
0.0
 10
-129.218092
 20
207.515159
 30
0.0
  0
SPLINE
  5
10e
100
AcDbEntity
  8
Layer_1
 62
7
100
AcDbSpline
 70
8
 71
3
 72
8
 73
4
 74
0
 40
0
 40
0
 40
0
 40
0
 40
1
 40
1
 40
1
 40
1
 10
-129.218092
 20
207.515159
 30
0.0
 10
-131.606993
 20
210.069087
 30
0.0
 10
-134.529937
 20
211.681739
 30
0.0
 10
-137.942726
 20
212.328372
 30
0.0
  0
SPLINE
  5
10f
100
AcDbEntity
  8
Layer_1
 62
7
100
AcDbSpline
 70
8
 71
3
 72
8
 73
4
 74
0
 40
0
 40
0
 40
0
 40
0
 40
1
 40
1
 40
1
 40
1
 10
-137.942726
 20
212.328372
 30
0.0
 10
-139.368270
 20
212.598470
 30
0.0
 10
-149.167415
 20
212.723144
 30
0.0
 10
-171.752618
 20
212.728555
 30
0.0
  0
LWPOLYLINE
  5
110
100
AcDbEntity
  8
Layer_1
 62
7
100
AcDbPolyline
 90
5
 70
0
 10
-125.362891
 20
91.923112
 30
0.0
 10
-126.566193
 20
92.435743
 30
0.0
 10
-125.362891
 20
92.218012
 30
0.0
 10
-124.160139
 20
92.000833
 30
0.0
 10
-124.160139
 20
139.497953
 30
0.0
  0
SPLINE
  5
111
100
AcDbEntity
  8
Layer_1
 62
7
100
AcDbSpline
 70
8
 71
3
 72
8
 73
4
 74
0
 40
0
 40
0
 40
0
 40
0
 40
1
 40
1
 40
1
 40
1
 10
-159.550365
 20
207.969912
 30
0.0
 10
-159.309709
 20
207.969912
 30
0.0
 10
-159.234612
 20
207.772904
 30
0.0
 10
-159.383346
 20
207.532248
 30
0.0
  0
SPLINE
  5
112
100
AcDbEntity
  8
Layer_1
 62
7
100
AcDbSpline
 70
8
 71
3
 72
8
 73
4
 74
0
 40
0
 40
0
 40
0
 40
0
 40
1
 40
1
 40
1
 40
1
 10
-159.383346
 20
207.532248
 30
0.0
 10
-159.532083
 20
207.291591
 30
0.0
 10
-159.850449
 20
207.095134
 30
0.0
 10
-160.091106
 20
207.095134
 30
0.0
  0
SPLINE
  5
113
100
AcDbEntity
  8
Layer_1
 62
7
100
AcDbSpline
 70
8
 71
3
 72
8
 73
4
 74
0
 40
0
 40
0
 40
0
 40
0
 40
1
 40
1
 40
1
 40
1
 10
-160.091106
 20
207.095134
 30
0.0
 10
-160.331762
 20
207.095134
 30
0.0
 10
-160.406859
 20
207.291591
 30
0.0
 10
-160.258125
 20
207.532248
 30
0.0
  0
SPLINE
  5
114
100
AcDbEntity
  8
Layer_1
 62
7
100
AcDbSpline
 70
8
 71
3
 72
8
 73
4
 74
0
 40
0
 40
0
 40
0
 40
0
 40
1
 40
1
 40
1
 40
1
 10
-160.258125
 20
207.532248
 30
0.0
 10
-160.109388
 20
207.772904
 30
0.0
 10
-159.791022
 20
207.969912
 30
0.0
 10
-159.550365
 20
207.969912
 30
0.0
  0
LWPOLYLINE
  5
115
100
AcDbEntity
  8
Layer_1
 62
7
100
AcDbPolyline
 90
2
 70
0
 10
-171.752618
 20
212.728555
 30
0.0
 10
-171.752618
 20
212.728555
 30
0.0
  0
SPLINE
  5
116
100
AcDbEntity
  8
Layer_1
 62
7
100
AcDbSpline
 70
8
 71
3
 72
8
 73
4
 74
0
 40
0
 40
0
 40
0
 40
0
 40
1
 40
1
 40
1
 40
1
 10
-222.438516
 20
204.411818
 30
0.0
 10
-215.045011
 20
204.413836
 30
0.0
 10
-206.303736
 20
204.403225
 30
0.0
 10
-196.105859
 20
204.380399
 30
0.0
  0
LWPOLYLINE
  5
117
100
AcDbEntity
  8
Layer_1
 62
7
100
AcDbPolyline
 90
2
 70
0
 10
-159.550365
 20
207.969912
 30
0.0
 10
-159.550365
 20
207.969912
 30
0.0
  0
SPLINE
  5
118
100
AcDbEntity
  8
Layer_1
 62
7
100
AcDbSpline
 70
8
 71
3
 72
8
 73
4
 74
0
 40
0
 40
0
 40
0
 40
0
 40
1
 40
1
 40
1
 40
1
 10
-136.455548
 20
203.019450
 30
0.0
 10
-135.167034
 20
202.166715
 30
0.0
 10
-134.270064
 20
201.089894
 30
0.0
 10
-133.538516
 20
199.518681
 30
0.0
  0
SPLINE
  5
119
100
AcDbEntity
  8
Layer_1
 62
7
100
AcDbSpline
 70
8
 71
3
 72
8
 73
4
 74
0
 40
0
 40
0
 40
0
 40
0
 40
1
 40
1
 40
1
 40
1
 10
-133.538516
 20
199.518681
 30
0.0
 10
-132.563904
 20
197.425421
 30
0.0
 10
-132.481930
 20
196.719053
 30
0.0
 10
-132.477978
 20
190.394964
 30
0.0
  0
SPLINE
  5
11a
100
AcDbEntity
  8
Layer_1
 62
7
100
AcDbSpline
 70
8
 71
3
 72
8
 73
4
 74
0
 40
0
 40
0
 40
0
 40
0
 40
1
 40
1
 40
1
 40
1
 10
-132.477978
 20
190.394964
 30
0.0
 10
-132.474815
 20
185.323622
 30
0.0
 10
-132.331389
 20
183.482283
 30
0.0
 10
-131.926762
 20
183.319015
 30
0.0
  0
SPLINE
  5
11b
100
AcDbEntity
  8
Layer_1
 62
7
100
AcDbSpline
 70
8
 71
3
 72
8
 73
4
 74
0
 40
0
 40
0
 40
0
 40
0
 40
1
 40
1
 40
1
 40
1
 10
-131.926762
 20
183.319015
 30
0.0
 10
-131.489204
 20
183.142457
 30
0.0
 10
-131.489204
 20
183.091459
 30
0.0
 10
-131.926762
 20
183.063801
 30
0.0
  0
SPLINE
  5
11c
100
AcDbEntity
  8
Layer_1
 62
7
100
AcDbSpline
 70
8
 71
3
 72
8
 73
4
 74
0
 40
0
 40
0
 40
0
 40
0
 40
1
 40
1
 40
1
 40
1
 10
-131.926762
 20
183.063801
 30
0.0
 10
-132.638659
 20
183.018838
 30
0.0
 10
-132.638659
 20
180.991621
 30
0.0
 10
-131.926762
 20
180.659401
 30
0.0
  0
SPLINE
  5
11d
100
AcDbEntity
  8
Layer_1
 62
7
100
AcDbSpline
 70
8
 71
3
 72
8
 73
4
 74
0
 40
0
 40
0
 40
0
 40
0
 40
1
 40
1
 40
1
 40
1
 10
-131.926762
 20
180.659401
 30
0.0
 10
-131.489204
 20
180.455210
 30
0.0
 10
-131.489204
 20
180.352614
 30
0.0
 10
-131.926762
 20
180.148423
 30
0.0
  0
SPLINE
  5
11e
100
AcDbEntity
  8
Layer_1
 62
7
100
AcDbSpline
 70
8
 71
3
 72
8
 73
4
 74
0
 40
0
 40
0
 40
0
 40
0
 40
1
 40
1
 40
1
 40
1
 10
-131.926762
 20
180.148423
 30
0.0
 10
-132.324458
 20
179.962828
 30
0.0
 10
-132.473567
 20
178.291387
 30
0.0
 10
-132.473567
 20
174.022770
 30
0.0
  0
SPLINE
  5
11f
100
AcDbEntity
  8
Layer_1
 62
7
100
AcDbSpline
 70
8
 71
3
 72
8
 73
4
 74
0
 40
0
 40
0
 40
0
 40
0
 40
1
 40
1
 40
1
 40
1
 10
-132.473567
 20
174.022770
 30
0.0
 10
-132.473567
 20
168.728530
 30
0.0
 10
-132.398485
 20
168.151092
 30
0.0
 10
-131.707930
 20
168.139097
 30
0.0
  0
SPLINE
  5
120
100
AcDbEntity
  8
Layer_1
 62
7
100
AcDbSpline
 70
8
 71
3
 72
8
 73
4
 74
0
 40
0
 40
0
 40
0
 40
0
 40
1
 40
1
 40
1
 40
1
 10
-131.707930
 20
168.139097
 30
0.0
 10
-130.979568
 20
168.126442
 30
0.0
 10
-130.979531
 20
168.103811
 30
0.0
 10
-131.706276
 20
167.680486
 30
0.0
  0
SPLINE
  5
121
100
AcDbEntity
  8
Layer_1
 62
7
100
AcDbSpline
 70
8
 71
3
 72
8
 73
4
 74
0
 40
0
 40
0
 40
0
 40
0
 40
1
 40
1
 40
1
 40
1
 10
-131.706276
 20
167.680486
 30
0.0
 10
-132.425121
 20
167.261761
 30
0.0
 10
-132.470570
 20
164.724905
 30
0.0
 10
-132.469159
 20
124.886888
 30
0.0
  0
SPLINE
  5
122
100
AcDbEntity
  8
Layer_1
 62
7
100
AcDbSpline
 70
8
 71
3
 72
8
 73
4
 74
0
 40
0
 40
0
 40
0
 40
0
 40
1
 40
1
 40
1
 40
1
 10
-132.469159
 20
124.886888
 30
0.0
 10
-132.468205
 20
93.505072
 30
0.0
 10
-132.601194
 20
82.150942
 30
0.0
 10
-132.983441
 20
81.042675
 30
0.0
  0
SPLINE
  5
123
100
AcDbEntity
  8
Layer_1
 62
7
100
AcDbSpline
 70
8
 71
3
 72
8
 73
4
 74
0
 40
0
 40
0
 40
0
 40
0
 40
1
 40
1
 40
1
 40
1
 10
-132.983441
 20
81.042675
 30
0.0
 10
-133.743356
 20
78.839394
 30
0.0
 10
-134.950629
 20
77.387302
 30
0.0
 10
-136.997392
 20
76.214578
 30
0.0
  0
LWPOLYLINE
  5
124
100
AcDbEntity
  8
Layer_1
 62
7
100
AcDbPolyline
 90
3
 70
0
 10
-196.105859
 20
204.380399
 30
0.0
 10
-138.316451
 20
204.250864
 30
0.0
 10
-136.455548
 20
203.019450
 30
0.0
  0
SPLINE
  5
125
100
AcDbEntity
  8
Layer_1
 62
7
100
AcDbSpline
 70
8
 71
3
 72
8
 73
4
 74
0
 40
0
 40
0
 40
0
 40
0
 40
1
 40
1
 40
1
 40
1
 10
-196.356661
 20
75.092305
 30
0.0
 10
-239.552203
 20
75.032979
 30
0.0
 10
-254.307272
 20
75.142156
 30
0.0
 10
-255.546160
 20
75.529969
 30
0.0
  0
SPLINE
  5
126
100
AcDbEntity
  8
Layer_1
 62
7
100
AcDbSpline
 70
8
 71
3
 72
8
 73
4
 74
0
 40
0
 40
0
 40
0
 40
0
 40
1
 40
1
 40
1
 40
1
 10
-255.546160
 20
75.529969
 30
0.0
 10
-257.878651
 20
76.260112
 30
0.0
 10
-260.193954
 20
78.258208
 30
0.0
 10
-261.152019
 20
80.367986
 30
0.0
  0
SPLINE
  5
127
100
AcDbEntity
  8
Layer_1
 62
7
100
AcDbSpline
 70
8
 71
3
 72
8
 73
4
 74
0
 40
0
 40
0
 40
0
 40
0
 40
1
 40
1
 40
1
 40
1
 10
-261.152019
 20
80.367986
 30
0.0
 10
-261.922175
 20
82.063964
 30
0.0
 10
-261.972016
 20
83.696667
 30
0.0
 10
-261.981047
 20
107.623377
 30
0.0
  0
SPLINE
  5
128
100
AcDbEntity
  8
Layer_1
 62
7
100
AcDbSpline
 70
8
 71
3
 72
8
 73
4
 74
0
 40
0
 40
0
 40
0
 40
0
 40
1
 40
1
 40
1
 40
1
 10
-261.981047
 20
107.623377
 30
0.0
 10
-261.988577
 20
127.567720
 30
0.0
 10
-262.108620
 20
133.122733
 30
0.0
 10
-262.537222
 20
133.295676
 30
0.0
  0
SPLINE
  5
129
100
AcDbEntity
  8
Layer_1
 62
7
100
AcDbSpline
 70
8
 71
3
 72
8
 73
4
 74
0
 40
0
 40
0
 40
0
 40
0
 40
1
 40
1
 40
1
 40
1
 10
-262.537222
 20
133.295676
 30
0.0
 10
-262.974780
 20
133.472235
 30
0.0
 10
-262.974780
 20
133.523232
 30
0.0
 10
-262.537222
 20
133.550890
 30
0.0
  0
SPLINE
  5
12a
100
AcDbEntity
  8
Layer_1
 62
7
100
AcDbSpline
 70
8
 71
3
 72
8
 73
4
 74
0
 40
0
 40
0
 40
0
 40
0
 40
1
 40
1
 40
1
 40
1
 10
-262.537222
 20
133.550890
 30
0.0
 10
-262.105086
 20
133.578184
 30
0.0
 10
-261.988639
 20
140.267480
 30
0.0
 10
-261.981047
 20
165.417747
 30
0.0
  0
SPLINE
  5
12b
100
AcDbEntity
  8
Layer_1
 62
7
100
AcDbSpline
 70
8
 71
3
 72
8
 73
4
 74
0
 40
0
 40
0
 40
0
 40
0
 40
1
 40
1
 40
1
 40
1
 10
-261.981047
 20
165.417747
 30
0.0
 10
-261.972038
 20
195.261711
 30
0.0
 10
-261.921665
 20
197.359421
 30
0.0
 10
-261.174619
 20
199.003845
 30
0.0
  0
SPLINE
  5
12c
100
AcDbEntity
  8
Layer_1
 62
7
100
AcDbSpline
 70
8
 71
3
 72
8
 73
4
 74
0
 40
0
 40
0
 40
0
 40
0
 40
1
 40
1
 40
1
 40
1
 10
-261.174619
 20
199.003845
 30
0.0
 10
-260.178697
 20
201.196105
 30
0.0
 10
-257.702979
 20
203.406819
 30
0.0
 10
-255.543953
 20
204.032032
 30
0.0
  0
SPLINE
  5
12d
100
AcDbEntity
  8
Layer_1
 62
7
100
AcDbSpline
 70
8
 71
3
 72
8
 73
4
 74
0
 40
0
 40
0
 40
0
 40
0
 40
1
 40
1
 40
1
 40
1
 10
-255.543953
 20
204.032032
 30
0.0
 10
-254.671457
 20
204.284686
 30
0.0
 10
-244.619029
 20
204.405765
 30
0.0
 10
-222.438516
 20
204.411818
 30
0.0
  0
LWPOLYLINE
  5
12e
100
AcDbEntity
  8
Layer_1
 62
7
100
AcDbPolyline
 90
3
 70
0
 10
-136.997392
 20
76.214578
 30
0.0
 10
-138.818056
 20
75.171129
 30
0.0
 10
-196.356661
 20
75.092305
 30
0.0
  0
SPLINE
  5
12f
100
AcDbEntity
  8
Layer_1
 62
7
100
AcDbSpline
 70
8
 71
3
 72
8
 73
4
 74
0
 40
0
 40
0
 40
0
 40
0
 40
1
 40
1
 40
1
 40
1
 10
-266.751813
 20
194.405607
 30
0.0
 10
-266.270500
 20
194.405607
 30
0.0
 10
-265.998398
 20
194.208599
 30
0.0
 10
-266.147132
 20
193.967942
 30
0.0
  0
SPLINE
  5
130
100
AcDbEntity
  8
Layer_1
 62
7
100
AcDbSpline
 70
8
 71
3
 72
8
 73
4
 74
0
 40
0
 40
0
 40
0
 40
0
 40
1
 40
1
 40
1
 40
1
 10
-266.147132
 20
193.967942
 30
0.0
 10
-266.295866
 20
193.727286
 30
0.0
 10
-266.811794
 20
193.530828
 30
0.0
 10
-267.293107
 20
193.530828
 30
0.0
  0
SPLINE
  5
131
100
AcDbEntity
  8
Layer_1
 62
7
100
AcDbSpline
 70
8
 71
3
 72
8
 73
4
 74
0
 40
0
 40
0
 40
0
 40
0
 40
1
 40
1
 40
1
 40
1
 10
-267.293107
 20
193.530828
 30
0.0
 10
-267.774420
 20
193.530828
 30
0.0
 10
-268.046525
 20
193.727286
 30
0.0
 10
-267.897791
 20
193.967942
 30
0.0
  0
SPLINE
  5
132
100
AcDbEntity
  8
Layer_1
 62
7
100
AcDbSpline
 70
8
 71
3
 72
8
 73
4
 74
0
 40
0
 40
0
 40
0
 40
0
 40
1
 40
1
 40
1
 40
1
 10
-267.897791
 20
193.967942
 30
0.0
 10
-267.749057
 20
194.208599
 30
0.0
 10
-267.233126
 20
194.405607
 30
0.0
 10
-266.751813
 20
194.405607
 30
0.0
  0
LWPOLYLINE
  5
133
100
AcDbEntity
  8
Layer_1
 62
7
100
AcDbPolyline
 90
2
 70
0
 10
-222.438516
 20
204.411818
 30
0.0
 10
-222.438516
 20
204.411818
 30
0.0
  0
SPLINE
  5
134
100
AcDbEntity
  8
Layer_1
 62
7
100
AcDbSpline
 70
8
 71
3
 72
8
 73
4
 74
0
 40
0
 40
0
 40
0
 40
0
 40
1
 40
1
 40
1
 40
1
 10
-127.415617
 20
193.967942
 30
0.0
 10
-127.309491
 20
193.967942
 30
0.0
 10
-127.222690
 20
193.771485
 30
0.0
 10
-127.222690
 20
193.530828
 30
0.0
  0
SPLINE
  5
135
100
AcDbEntity
  8
Layer_1
 62
7
100
AcDbSpline
 70
8
 71
3
 72
8
 73
4
 74
0
 40
0
 40
0
 40
0
 40
0
 40
1
 40
1
 40
1
 40
1
 10
-127.222690
 20
193.530828
 30
0.0
 10
-127.222690
 20
193.290172
 30
0.0
 10
-127.431402
 20
193.093164
 30
0.0
 10
-127.686263
 20
193.093164
 30
0.0
  0
SPLINE
  5
136
100
AcDbEntity
  8
Layer_1
 62
7
100
AcDbSpline
 70
8
 71
3
 72
8
 73
4
 74
0
 40
0
 40
0
 40
0
 40
0
 40
1
 40
1
 40
1
 40
1
 10
-127.686263
 20
193.093164
 30
0.0
 10
-127.941121
 20
193.093164
 30
0.0
 10
-128.027924
 20
193.290172
 30
0.0
 10
-127.879187
 20
193.530828
 30
0.0
  0
SPLINE
  5
137
100
AcDbEntity
  8
Layer_1
 62
7
100
AcDbSpline
 70
8
 71
3
 72
8
 73
4
 74
0
 40
0
 40
0
 40
0
 40
0
 40
1
 40
1
 40
1
 40
1
 10
-127.879187
 20
193.530828
 30
0.0
 10
-127.730453
 20
193.771485
 30
0.0
 10
-127.521741
 20
193.967942
 30
0.0
 10
-127.415617
 20
193.967942
 30
0.0
  0
LWPOLYLINE
  5
138
100
AcDbEntity
  8
Layer_1
 62
7
100
AcDbPolyline
 90
2
 70
0
 10
-266.751813
 20
194.405607
 30
0.0
 10
-266.751813
 20
194.405607
 30
0.0
  0
SPLINE
  5
139
100
AcDbEntity
  8
Layer_1
 62
7
100
AcDbSpline
 70
8
 71
3
 72
8
 73
4
 74
0
 40
0
 40
0
 40
0
 40
0
 40
1
 40
1
 40
1
 40
1
 10
-125.071299
 20
192.601479
 30
0.0
 10
-124.919291
 20
192.595219
 30
0.0
 10
-124.788462
 20
192.555115
 30
0.0
 10
-124.715764
 20
192.482418
 30
0.0
  0
SPLINE
  5
13a
100
AcDbEntity
  8
Layer_1
 62
7
100
AcDbSpline
 70
8
 71
3
 72
8
 73
4
 74
0
 40
0
 40
0
 40
0
 40
0
 40
1
 40
1
 40
1
 40
1
 10
-124.715764
 20
192.482418
 30
0.0
 10
-124.570369
 20
192.337022
 30
0.0
 10
-124.828876
 20
192.233568
 30
0.0
 10
-125.290131
 20
192.252562
 30
0.0
  0
SPLINE
  5
13b
100
AcDbEntity
  8
Layer_1
 62
7
100
AcDbSpline
 70
8
 71
3
 72
8
 73
4
 74
0
 40
0
 40
0
 40
0
 40
0
 40
1
 40
1
 40
1
 40
1
 10
-125.290131
 20
192.252562
 30
0.0
 10
-125.799864
 20
192.273559
 30
0.0
 10
-125.903767
 20
192.377468
 30
0.0
 10
-125.554715
 20
192.517145
 30
0.0
  0
SPLINE
  5
13c
100
AcDbEntity
  8
Layer_1
 62
7
100
AcDbSpline
 70
8
 71
3
 72
8
 73
4
 74
0
 40
0
 40
0
 40
0
 40
0
 40
1
 40
1
 40
1
 40
1
 10
-125.554715
 20
192.517145
 30
0.0
 10
-125.396783
 20
192.580343
 30
0.0
 10
-125.223304
 20
192.607741
 30
0.0
 10
-125.071299
 20
192.601479
 30
0.0
  0
LWPOLYLINE
  5
13d
100
AcDbEntity
  8
Layer_1
 62
7
100
AcDbPolyline
 90
2
 70
0
 10
-127.415617
 20
193.967942
 30
0.0
 10
-127.415617
 20
193.967942
 30
0.0
  0
SPLINE
  5
13e
100
AcDbEntity
  8
Layer_1
 62
7
100
AcDbSpline
 70
8
 71
3
 72
8
 73
4
 74
0
 40
0
 40
0
 40
0
 40
0
 40
1
 40
1
 40
1
 40
1
 10
-164.381214
 20
191.217930
 30
0.0
 10
-168.598427
 20
191.221373
 30
0.0
 10
-168.917521
 20
191.047998
 30
0.0
 10
-169.252855
 20
190.421425
 30
0.0
  0
SPLINE
  5
13f
100
AcDbEntity
  8
Layer_1
 62
7
100
AcDbSpline
 70
8
 71
3
 72
8
 73
4
 74
0
 40
0
 40
0
 40
0
 40
0
 40
1
 40
1
 40
1
 40
1
 10
-169.252855
 20
190.421425
 30
0.0
 10
-169.580695
 20
189.808842
 30
0.0
 10
-169.588637
 20
184.700182
 30
0.0
 10
-169.279313
 20
173.156258
 30
0.0
  0
SPLINE
  5
140
100
AcDbEntity
  8
Layer_1
 62
7
100
AcDbSpline
 70
8
 71
3
 72
8
 73
4
 74
0
 40
0
 40
0
 40
0
 40
0
 40
1
 40
1
 40
1
 40
1
 10
-169.279313
 20
173.156258
 30
0.0
 10
-168.949457
 20
160.846021
 30
0.0
 10
-168.967520
 20
156.152420
 30
0.0
 10
-169.352076
 20
154.319028
 30
0.0
  0
SPLINE
  5
141
100
AcDbEntity
  8
Layer_1
 62
7
100
AcDbSpline
 70
8
 71
3
 72
8
 73
4
 74
0
 40
0
 40
0
 40
0
 40
0
 40
1
 40
1
 40
1
 40
1
 10
-169.352076
 20
154.319028
 30
0.0
 10
-169.821154
 20
152.082679
 30
0.0
 10
-169.793838
 20
151.825679
 30
0.0
 10
-169.025203
 20
151.263642
 30
0.0
  0
SPLINE
  5
142
100
AcDbEntity
  8
Layer_1
 62
7
100
AcDbSpline
 70
8
 71
3
 72
8
 73
4
 74
0
 40
0
 40
0
 40
0
 40
0
 40
1
 40
1
 40
1
 40
1
 10
-169.025203
 20
151.263642
 30
0.0
 10
-167.838992
 20
150.396283
 30
0.0
 10
-161.652097
 20
150.417760
 30
0.0
 10
-160.926749
 20
151.291754
 30
0.0
  0
SPLINE
  5
143
100
AcDbEntity
  8
Layer_1
 62
7
100
AcDbSpline
 70
8
 71
3
 72
8
 73
4
 74
0
 40
0
 40
0
 40
0
 40
0
 40
1
 40
1
 40
1
 40
1
 10
-160.926749
 20
151.291754
 30
0.0
 10
-160.572882
 20
151.718138
 30
0.0
 10
-160.438296
 20
153.222772
 30
0.0
 10
-160.525466
 20
155.776440
 30
0.0
  0
SPLINE
  5
144
100
AcDbEntity
  8
Layer_1
 62
7
100
AcDbSpline
 70
8
 71
3
 72
8
 73
4
 74
0
 40
0
 40
0
 40
0
 40
0
 40
1
 40
1
 40
1
 40
1
 10
-160.525466
 20
155.776440
 30
0.0
 10
-160.757416
 20
162.571366
 30
0.0
 10
-160.551117
 20
165.640877
 30
0.0
 10
-159.812191
 20
166.378516
 30
0.0
  0
SPLINE
  5
145
100
AcDbEntity
  8
Layer_1
 62
7
100
AcDbSpline
 70
8
 71
3
 72
8
 73
4
 74
0
 40
0
 40
0
 40
0
 40
0
 40
1
 40
1
 40
1
 40
1
 10
-159.812191
 20
166.378516
 30
0.0
 10
-159.284622
 20
166.905185
 30
0.0
 10
-158.336257
 20
167.029557
 30
0.0
 10
-155.605316
 20
166.930283
 30
0.0
  0
SPLINE
  5
146
100
AcDbEntity
  8
Layer_1
 62
7
100
AcDbSpline
 70
8
 71
3
 72
8
 73
4
 74
0
 40
0
 40
0
 40
0
 40
0
 40
1
 40
1
 40
1
 40
1
 10
-155.605316
 20
166.930283
 30
0.0
 10
-153.382768
 20
166.849494
 30
0.0
 10
-151.852461
 20
166.990825
 30
0.0
 10
-151.465139
 20
167.312274
 30
0.0
  0
SPLINE
  5
147
100
AcDbEntity
  8
Layer_1
 62
7
100
AcDbSpline
 70
8
 71
3
 72
8
 73
4
 74
0
 40
0
 40
0
 40
0
 40
0
 40
1
 40
1
 40
1
 40
1
 10
-151.465139
 20
167.312274
 30
0.0
 10
-151.039734
 20
167.665331
 30
0.0
 10
-150.851085
 20
168.810154
 30
0.0
 10
-150.851085
 20
171.034632
 30
0.0
  0
SPLINE
  5
148
100
AcDbEntity
  8
Layer_1
 62
7
100
AcDbSpline
 70
8
 71
3
 72
8
 73
4
 74
0
 40
0
 40
0
 40
0
 40
0
 40
1
 40
1
 40
1
 40
1
 10
-150.851085
 20
171.034632
 30
0.0
 10
-150.851085
 20
174.972152
 30
0.0
 10
-151.262447
 20
175.311394
 30
0.0
 10
-155.772335
 20
175.087166
 30
0.0
  0
SPLINE
  5
149
100
AcDbEntity
  8
Layer_1
 62
7
100
AcDbSpline
 70
8
 71
3
 72
8
 73
4
 74
0
 40
0
 40
0
 40
0
 40
0
 40
1
 40
1
 40
1
 40
1
 10
-155.772335
 20
175.087166
 30
0.0
 10
-158.670013
 20
174.943094
 30
0.0
 10
-158.889421
 20
174.999488
 30
0.0
 10
-159.720139
 20
176.105260
 30
0.0
  0
SPLINE
  5
14a
100
AcDbEntity
  8
Layer_1
 62
7
100
AcDbSpline
 70
8
 71
3
 72
8
 73
4
 74
0
 40
0
 40
0
 40
0
 40
0
 40
1
 40
1
 40
1
 40
1
 10
-159.720139
 20
176.105260
 30
0.0
 10
-160.207223
 20
176.753626
 30
0.0
 10
-160.691613
 20
178.234968
 30
0.0
 10
-160.806034
 20
179.425782
 30
0.0
  0
SPLINE
  5
14b
100
AcDbEntity
  8
Layer_1
 62
7
100
AcDbSpline
 70
8
 71
3
 72
8
 73
4
 74
0
 40
0
 40
0
 40
0
 40
0
 40
1
 40
1
 40
1
 40
1
 10
-160.806034
 20
179.425782
 30
0.0
 10
-160.992975
 20
181.371312
 30
0.0
 10
-160.897499
 20
181.666355
 30
0.0
 10
-159.805576
 20
182.525265
 30
0.0
  0
SPLINE
  5
14c
100
AcDbEntity
  8
Layer_1
 62
7
100
AcDbSpline
 70
8
 71
3
 72
8
 73
4
 74
0
 40
0
 40
0
 40
0
 40
0
 40
1
 40
1
 40
1
 40
1
 10
-159.805576
 20
182.525265
 30
0.0
 10
-158.677901
 20
183.412295
 30
0.0
 10
-158.291107
 20
183.456121
 30
0.0
 10
-153.900959
 20
183.189481
 30
0.0
  0
LWPOLYLINE
  5
14d
100
AcDbEntity
  8
Layer_1
 62
7
100
AcDbPolyline
 90
2
 70
0
 10
-125.071299
 20
192.601479
 30
0.0
 10
-125.071299
 20
192.601479
 30
0.0
  0
SPLINE
  5
14e
100
AcDbEntity
  8
Layer_1
 62
7
100
AcDbSpline
 70
8
 71
3
 72
8
 73
4
 74
0
 40
0
 40
0
 40
0
 40
0
 40
1
 40
1
 40
1
 40
1
 10
-148.449992
 20
184.053233
 30
0.0
 10
-147.862146
 20
184.950398
 30
0.0
 10
-147.749633
 20
185.789681
 30
0.0
 10
-147.936258
 20
187.882526
 30
0.0
  0
SPLINE
  5
14f
100
AcDbEntity
  8
Layer_1
 62
7
100
AcDbSpline
 70
8
 71
3
 72
8
 73
4
 74
0
 40
0
 40
0
 40
0
 40
0
 40
1
 40
1
 40
1
 40
1
 10
-147.936258
 20
187.882526
 30
0.0
 10
-148.067725
 20
189.356832
 30
0.0
 10
-148.282491
 20
190.670641
 30
0.0
 10
-148.413611
 20
190.801762
 30
0.0
  0
SPLINE
  5
150
100
AcDbEntity
  8
Layer_1
 62
7
100
AcDbSpline
 70
8
 71
3
 72
8
 73
4
 74
0
 40
0
 40
0
 40
0
 40
0
 40
1
 40
1
 40
1
 40
1
 10
-148.413611
 20
190.801762
 30
0.0
 10
-148.544732
 20
190.932879
 30
0.0
 10
-153.182422
 20
191.096422
 30
0.0
 10
-158.719684
 20
191.165563
 30
0.0
  0
SPLINE
  5
151
100
AcDbEntity
  8
Layer_1
 62
7
100
AcDbSpline
 70
8
 71
3
 72
8
 73
4
 74
0
 40
0
 40
0
 40
0
 40
0
 40
1
 40
1
 40
1
 40
1
 10
-158.719684
 20
191.165563
 30
0.0
 10
-161.136564
 20
191.195741
 30
0.0
 10
-162.975479
 20
191.216781
 30
0.0
 10
-164.381214
 20
191.217930
 30
0.0
  0
LWPOLYLINE
  5
152
100
AcDbEntity
  8
Layer_1
 62
7
100
AcDbPolyline
 90
3
 70
0
 10
-153.900959
 20
183.189481
 30
0.0
 10
-149.202953
 20
182.903951
 30
0.0
 10
-148.449992
 20
184.053233
 30
0.0
  0
SPLINE
  5
153
100
AcDbEntity
  8
Layer_1
 62
7
100
AcDbSpline
 70
8
 71
3
 72
8
 73
4
 74
0
 40
0
 40
0
 40
0
 40
0
 40
1
 40
1
 40
1
 40
1
 10
-236.188030
 20
191.060833
 30
0.0
 10
-241.003438
 20
191.078907
 30
0.0
 10
-243.727616
 20
190.094194
 30
0.0
 10
-245.580188
 20
187.665347
 30
0.0
  0
SPLINE
  5
154
100
AcDbEntity
  8
Layer_1
 62
7
100
AcDbSpline
 70
8
 71
3
 72
8
 73
4
 74
0
 40
0
 40
0
 40
0
 40
0
 40
1
 40
1
 40
1
 40
1
 10
-245.580188
 20
187.665347
 30
0.0
 10
-246.893876
 20
185.943016
 30
0.0
 10
-247.731715
 20
182.259849
 30
0.0
 10
-247.365574
 20
179.818246
 30
0.0
  0
SPLINE
  5
155
100
AcDbEntity
  8
Layer_1
 62
7
100
AcDbSpline
 70
8
 71
3
 72
8
 73
4
 74
0
 40
0
 40
0
 40
0
 40
0
 40
1
 40
1
 40
1
 40
1
 10
-247.365574
 20
179.818246
 30
0.0
 10
-246.830525
 20
176.250282
 30
0.0
 10
-243.287717
 20
171.623057
 30
0.0
 10
-239.635882
 20
169.723290
 30
0.0
  0
SPLINE
  5
156
100
AcDbEntity
  8
Layer_1
 62
7
100
AcDbSpline
 70
8
 71
3
 72
8
 73
4
 74
0
 40
0
 40
0
 40
0
 40
0
 40
1
 40
1
 40
1
 40
1
 10
-239.635882
 20
169.723290
 30
0.0
 10
-239.055899
 20
169.421571
 30
0.0
 10
-238.622673
 20
168.967580
 30
0.0
 10
-238.673459
 20
168.714565
 30
0.0
  0
SPLINE
  5
157
100
AcDbEntity
  8
Layer_1
 62
7
100
AcDbSpline
 70
8
 71
3
 72
8
 73
4
 74
0
 40
0
 40
0
 40
0
 40
0
 40
1
 40
1
 40
1
 40
1
 10
-238.673459
 20
168.714565
 30
0.0
 10
-238.724248
 20
168.461553
 30
0.0
 10
-237.591860
 20
167.332596
 30
0.0
 10
-236.157160
 20
166.205435
 30
0.0
  0
SPLINE
  5
158
100
AcDbEntity
  8
Layer_1
 62
7
100
AcDbSpline
 70
8
 71
3
 72
8
 73
4
 74
0
 40
0
 40
0
 40
0
 40
0
 40
1
 40
1
 40
1
 40
1
 10
-236.157160
 20
166.205435
 30
0.0
 10
-233.128377
 20
163.825887
 30
0.0
 10
-232.677454
 20
163.137064
 30
0.0
 10
-232.819002
 20
161.108897
 30
0.0
  0
SPLINE
  5
159
100
AcDbEntity
  8
Layer_1
 62
7
100
AcDbSpline
 70
8
 71
3
 72
8
 73
4
 74
0
 40
0
 40
0
 40
0
 40
0
 40
1
 40
1
 40
1
 40
1
 10
-232.819002
 20
161.108897
 30
0.0
 10
-232.963410
 20
159.039841
 30
0.0
 10
-233.539160
 20
158.267842
 30
0.0
 10
-235.173243
 20
157.951535
 30
0.0
  0
SPLINE
  5
15a
100
AcDbEntity
  8
Layer_1
 62
7
100
AcDbSpline
 70
8
 71
3
 72
8
 73
4
 74
0
 40
0
 40
0
 40
0
 40
0
 40
1
 40
1
 40
1
 40
1
 10
-235.173243
 20
157.951535
 30
0.0
 10
-236.965436
 20
157.604628
 30
0.0
 10
-238.945468
 20
159.150604
 30
0.0
 10
-239.709192
 20
161.493647
 30
0.0
  0
SPLINE
  5
15b
100
AcDbEntity
  8
Layer_1
 62
7
100
AcDbSpline
 70
8
 71
3
 72
8
 73
4
 74
0
 40
0
 40
0
 40
0
 40
0
 40
1
 40
1
 40
1
 40
1
 10
-239.709192
 20
161.493647
 30
0.0
 10
-240.000790
 20
162.388230
 30
0.0
 10
-240.456932
 20
163.264832
 30
0.0
 10
-240.722878
 20
163.441641
 30
0.0
  0
SPLINE
  5
15c
100
AcDbEntity
  8
Layer_1
 62
7
100
AcDbSpline
 70
8
 71
3
 72
8
 73
4
 74
0
 40
0
 40
0
 40
0
 40
0
 40
1
 40
1
 40
1
 40
1
 10
-240.722878
 20
163.441641
 30
0.0
 10
-240.988827
 20
163.618450
 30
0.0
 10
-242.613222
 20
163.766665
 30
0.0
 10
-244.332235
 20
163.770165
 30
0.0
  0
SPLINE
  5
15d
100
AcDbEntity
  8
Layer_1
 62
7
100
AcDbSpline
 70
8
 71
3
 72
8
 73
4
 74
0
 40
0
 40
0
 40
0
 40
0
 40
1
 40
1
 40
1
 40
1
 10
-244.332235
 20
163.770165
 30
0.0
 10
-247.820389
 20
163.777643
 30
0.0
 10
-247.988447
 20
163.634371
 30
0.0
 10
-247.988447
 20
160.663516
 30
0.0
  0
SPLINE
  5
15e
100
AcDbEntity
  8
Layer_1
 62
7
100
AcDbSpline
 70
8
 71
3
 72
8
 73
4
 74
0
 40
0
 40
0
 40
0
 40
0
 40
1
 40
1
 40
1
 40
1
 10
-247.988447
 20
160.663516
 30
0.0
 10
-247.988447
 20
158.619665
 30
0.0
 10
-246.379709
 20
155.233758
 30
0.0
 10
-244.528467
 20
153.382513
 30
0.0
  0
SPLINE
  5
15f
100
AcDbEntity
  8
Layer_1
 62
7
100
AcDbSpline
 70
8
 71
3
 72
8
 73
4
 74
0
 40
0
 40
0
 40
0
 40
0
 40
1
 40
1
 40
1
 40
1
 10
-244.528467
 20
153.382513
 30
0.0
 10
-243.302559
 20
152.156604
 30
0.0
 10
-239.926249
 20
150.937997
 30
0.0
 10
-236.611914
 20
150.525013
 30
0.0
  0
SPLINE
  5
160
100
AcDbEntity
  8
Layer_1
 62
7
100
AcDbSpline
 70
8
 71
3
 72
8
 73
4
 74
0
 40
0
 40
0
 40
0
 40
0
 40
1
 40
1
 40
1
 40
1
 10
-236.611914
 20
150.525013
 30
0.0
 10
-231.403686
 20
149.876040
 30
0.0
 10
-225.914450
 20
153.211949
 30
0.0
 10
-224.567860
 20
157.844048
 30
0.0
  0
SPLINE
  5
161
100
AcDbEntity
  8
Layer_1
 62
7
100
AcDbSpline
 70
8
 71
3
 72
8
 73
4
 74
0
 40
0
 40
0
 40
0
 40
0
 40
1
 40
1
 40
1
 40
1
 10
-224.567860
 20
157.844048
 30
0.0
 10
-223.679509
 20
160.899871
 30
0.0
 10
-224.257427
 20
165.566842
 30
0.0
 10
-225.806993
 20
167.850260
 30
0.0
  0
SPLINE
  5
162
100
AcDbEntity
  8
Layer_1
 62
7
100
AcDbSpline
 70
8
 71
3
 72
8
 73
4
 74
0
 40
0
 40
0
 40
0
 40
0
 40
1
 40
1
 40
1
 40
1
 10
-225.806993
 20
167.850260
 30
0.0
 10
-226.420513
 20
168.754336
 30
0.0
 10
-226.986183
 20
169.635056
 30
0.0
 10
-227.063763
 20
169.807626
 30
0.0
  0
SPLINE
  5
163
100
AcDbEntity
  8
Layer_1
 62
7
100
AcDbSpline
 70
8
 71
3
 72
8
 73
4
 74
0
 40
0
 40
0
 40
0
 40
0
 40
1
 40
1
 40
1
 40
1
 10
-227.063763
 20
169.807626
 30
0.0
 10
-227.340408
 20
170.423020
 30
0.0
 10
-233.608649
 20
175.591669
 30
0.0
 10
-234.120972
 20
175.626806
 30
0.0
  0
SPLINE
  5
164
100
AcDbEntity
  8
Layer_1
 62
7
100
AcDbSpline
 70
8
 71
3
 72
8
 73
4
 74
0
 40
0
 40
0
 40
0
 40
0
 40
1
 40
1
 40
1
 40
1
 10
-234.120972
 20
175.626806
 30
0.0
 10
-235.075445
 20
175.692242
 30
0.0
 10
-238.800239
 20
180.360714
 30
0.0
 10
-238.800239
 20
181.491736
 30
0.0
  0
SPLINE
  5
165
100
AcDbEntity
  8
Layer_1
 62
7
100
AcDbSpline
 70
8
 71
3
 72
8
 73
4
 74
0
 40
0
 40
0
 40
0
 40
0
 40
1
 40
1
 40
1
 40
1
 10
-238.800239
 20
181.491736
 30
0.0
 10
-238.800239
 20
182.260896
 30
0.0
 10
-239.206772
 20
182.785104
 30
0.0
 10
-240.221824
 20
183.323976
 30
0.0
  0
SPLINE
  5
166
100
AcDbEntity
  8
Layer_1
 62
7
100
AcDbSpline
 70
8
 71
3
 72
8
 73
4
 74
0
 40
0
 40
0
 40
0
 40
0
 40
1
 40
1
 40
1
 40
1
 10
-240.221824
 20
183.323976
 30
0.0
 10
-241.273463
 20
183.882274
 30
0.0
 10
-241.451305
 20
184.120687
 30
0.0
 10
-240.904228
 20
184.237891
 30
0.0
  0
SPLINE
  5
167
100
AcDbEntity
  8
Layer_1
 62
7
100
AcDbSpline
 70
8
 71
3
 72
8
 73
4
 74
0
 40
0
 40
0
 40
0
 40
0
 40
1
 40
1
 40
1
 40
1
 10
-240.904228
 20
184.237891
 30
0.0
 10
-240.497346
 20
184.325061
 30
0.0
 10
-239.688658
 20
184.083961
 30
0.0
 10
-239.106716
 20
183.702659
 30
0.0
  0
SPLINE
  5
168
100
AcDbEntity
  8
Layer_1
 62
7
100
AcDbSpline
 70
8
 71
3
 72
8
 73
4
 74
0
 40
0
 40
0
 40
0
 40
0
 40
1
 40
1
 40
1
 40
1
 10
-239.106716
 20
183.702659
 30
0.0
 10
-238.160543
 20
183.082702
 30
0.0
 10
-237.989926
 20
183.079919
 30
0.0
 10
-237.495512
 20
183.675651
 30
0.0
  0
SPLINE
  5
169
100
AcDbEntity
  8
Layer_1
 62
7
100
AcDbSpline
 70
8
 71
3
 72
8
 73
4
 74
0
 40
0
 40
0
 40
0
 40
0
 40
1
 40
1
 40
1
 40
1
 10
-237.495512
 20
183.675651
 30
0.0
 10
-236.798369
 20
184.515665
 30
0.0
 10
-236.181070
 20
184.512629
 30
0.0
 10
-234.043801
 20
183.657461
 30
0.0
  0
SPLINE
  5
16a
100
AcDbEntity
  8
Layer_1
 62
7
100
AcDbSpline
 70
8
 71
3
 72
8
 73
4
 74
0
 40
0
 40
0
 40
0
 40
0
 40
1
 40
1
 40
1
 40
1
 10
-234.043801
 20
183.657461
 30
0.0
 10
-232.539167
 20
183.055428
 30
0.0
 10
-232.339992
 20
182.808114
 30
0.0
 10
-232.394015
 20
181.608593
 30
0.0
  0
SPLINE
  5
16b
100
AcDbEntity
  8
Layer_1
 62
7
100
AcDbSpline
 70
8
 71
3
 72
8
 73
4
 74
0
 40
0
 40
0
 40
0
 40
0
 40
1
 40
1
 40
1
 40
1
 10
-232.394015
 20
181.608593
 30
0.0
 10
-232.465829
 20
180.013944
 30
0.0
 10
-231.661039
 20
179.642594
 30
0.0
 10
-227.980435
 20
179.572405
 30
0.0
  0
SPLINE
  5
16c
100
AcDbEntity
  8
Layer_1
 62
7
100
AcDbSpline
 70
8
 71
3
 72
8
 73
4
 74
0
 40
0
 40
0
 40
0
 40
0
 40
1
 40
1
 40
1
 40
1
 10
-227.980435
 20
179.572405
 30
0.0
 10
-226.037270
 20
179.535349
 30
0.0
 10
-225.592095
 20
179.683265
 30
0.0
 10
-225.020409
 20
180.555772
 30
0.0
  0
SPLINE
  5
16d
100
AcDbEntity
  8
Layer_1
 62
7
100
AcDbSpline
 70
8
 71
3
 72
8
 73
4
 74
0
 40
0
 40
0
 40
0
 40
0
 40
1
 40
1
 40
1
 40
1
 10
-225.020409
 20
180.555772
 30
0.0
 10
-224.407637
 20
181.490985
 30
0.0
 10
-224.425431
 20
181.834614
 30
0.0
 10
-225.218295
 20
184.401602
 30
0.0
  0
SPLINE
  5
16e
100
AcDbEntity
  8
Layer_1
 62
7
100
AcDbSpline
 70
8
 71
3
 72
8
 73
4
 74
0
 40
0
 40
0
 40
0
 40
0
 40
1
 40
1
 40
1
 40
1
 10
-225.218295
 20
184.401602
 30
0.0
 10
-226.750191
 20
189.361305
 30
0.0
 10
-229.508987
 20
191.035772
 30
0.0
 10
-236.188030
 20
191.060833
 30
0.0
  0
LWPOLYLINE
  5
16f
100
AcDbEntity
  8
Layer_1
 62
7
100
AcDbPolyline
 90
2
 70
0
 10
-164.381214
 20
191.217930
 30
0.0
 10
-164.381214
 20
191.217930
 30
0.0
  0
SPLINE
  5
170
100
AcDbEntity
  8
Layer_1
 62
7
100
AcDbSpline
 70
8
 71
3
 72
8
 73
4
 74
0
 40
0
 40
0
 40
0
 40
0
 40
1
 40
1
 40
1
 40
1
 10
-126.759118
 20
187.404622
 30
0.0
 10
-126.532663
 20
187.404622
 30
0.0
 10
-126.347911
 20
187.208164
 30
0.0
 10
-126.347911
 20
186.967508
 30
0.0
  0
SPLINE
  5
171
100
AcDbEntity
  8
Layer_1
 62
7
100
AcDbSpline
 70
8
 71
3
 72
8
 73
4
 74
0
 40
0
 40
0
 40
0
 40
0
 40
1
 40
1
 40
1
 40
1
 10
-126.347911
 20
186.967508
 30
0.0
 10
-126.347911
 20
186.726851
 30
0.0
 10
-126.654577
 20
186.529843
 30
0.0
 10
-127.029766
 20
186.529843
 30
0.0
  0
SPLINE
  5
172
100
AcDbEntity
  8
Layer_1
 62
7
100
AcDbSpline
 70
8
 71
3
 72
8
 73
4
 74
0
 40
0
 40
0
 40
0
 40
0
 40
1
 40
1
 40
1
 40
1
 10
-127.029766
 20
186.529843
 30
0.0
 10
-127.404961
 20
186.529843
 30
0.0
 10
-127.590256
 20
186.726851
 30
0.0
 10
-127.441523
 20
186.967508
 30
0.0
  0
SPLINE
  5
173
100
AcDbEntity
  8
Layer_1
 62
7
100
AcDbSpline
 70
8
 71
3
 72
8
 73
4
 74
0
 40
0
 40
0
 40
0
 40
0
 40
1
 40
1
 40
1
 40
1
 10
-127.441523
 20
186.967508
 30
0.0
 10
-127.292789
 20
187.208164
 30
0.0
 10
-126.985570
 20
187.404622
 30
0.0
 10
-126.759118
 20
187.404622
 30
0.0
  0
LWPOLYLINE
  5
174
100
AcDbEntity
  8
Layer_1
 62
7
100
AcDbPolyline
 90
2
 70
0
 10
-236.188030
 20
191.060833
 30
0.0
 10
-236.188030
 20
191.060833
 30
0.0
  0
SPLINE
  5
175
100
AcDbEntity
  8
Layer_1
 62
7
100
AcDbSpline
 70
8
 71
3
 72
8
 73
4
 74
0
 40
0
 40
0
 40
0
 40
0
 40
1
 40
1
 40
1
 40
1
 10
-128.072114
 20
185.216849
 30
0.0
 10
-127.845659
 20
185.216849
 30
0.0
 10
-127.660355
 20
185.020392
 30
0.0
 10
-127.660355
 20
184.779735
 30
0.0
  0
SPLINE
  5
176
100
AcDbEntity
  8
Layer_1
 62
7
100
AcDbSpline
 70
8
 71
3
 72
8
 73
4
 74
0
 40
0
 40
0
 40
0
 40
0
 40
1
 40
1
 40
1
 40
1
 10
-127.660355
 20
184.779735
 30
0.0
 10
-127.660355
 20
184.539079
 30
0.0
 10
-127.967571
 20
184.342070
 30
0.0
 10
-128.342760
 20
184.342070
 30
0.0
  0
SPLINE
  5
177
100
AcDbEntity
  8
Layer_1
 62
7
100
AcDbSpline
 70
8
 71
3
 72
8
 73
4
 74
0
 40
0
 40
0
 40
0
 40
0
 40
1
 40
1
 40
1
 40
1
 10
-128.342760
 20
184.342070
 30
0.0
 10
-128.717957
 20
184.342070
 30
0.0
 10
-128.902700
 20
184.539079
 30
0.0
 10
-128.753966
 20
184.779735
 30
0.0
  0
SPLINE
  5
178
100
AcDbEntity
  8
Layer_1
 62
7
100
AcDbSpline
 70
8
 71
3
 72
8
 73
4
 74
0
 40
0
 40
0
 40
0
 40
0
 40
1
 40
1
 40
1
 40
1
 10
-128.753966
 20
184.779735
 30
0.0
 10
-128.605229
 20
185.020392
 30
0.0
 10
-128.298567
 20
185.216849
 30
0.0
 10
-128.072114
 20
185.216849
 30
0.0
  0
LWPOLYLINE
  5
179
100
AcDbEntity
  8
Layer_1
 62
7
100
AcDbPolyline
 90
2
 70
0
 10
-126.759118
 20
187.404622
 30
0.0
 10
-126.759118
 20
187.404622
 30
0.0
  0
SPLINE
  5
17a
100
AcDbEntity
  8
Layer_1
 62
7
100
AcDbSpline
 70
8
 71
3
 72
8
 73
4
 74
0
 40
0
 40
0
 40
0
 40
0
 40
1
 40
1
 40
1
 40
1
 10
-162.800329
 20
184.335455
 30
0.0
 10
-162.513710
 20
184.339141
 30
0.0
 10
-162.157520
 20
184.145062
 30
0.0
 10
-162.008786
 20
183.904406
 30
0.0
  0
SPLINE
  5
17b
100
AcDbEntity
  8
Layer_1
 62
7
100
AcDbSpline
 70
8
 71
3
 72
8
 73
4
 74
0
 40
0
 40
0
 40
0
 40
0
 40
1
 40
1
 40
1
 40
1
 10
-162.008786
 20
183.904406
 30
0.0
 10
-161.673049
 20
183.361165
 30
0.0
 10
-161.824131
 20
183.361165
 30
0.0
 10
-162.664730
 20
183.904406
 30
0.0
  0
SPLINE
  5
17c
100
AcDbEntity
  8
Layer_1
 62
7
100
AcDbSpline
 70
8
 71
3
 72
8
 73
4
 74
0
 40
0
 40
0
 40
0
 40
0
 40
1
 40
1
 40
1
 40
1
 10
-162.664730
 20
183.904406
 30
0.0
 10
-163.059096
 20
184.159267
 30
0.0
 10
-163.113449
 20
184.331532
 30
0.0
 10
-162.800329
 20
184.335455
 30
0.0
  0
LWPOLYLINE
  5
17d
100
AcDbEntity
  8
Layer_1
 62
7
100
AcDbPolyline
 90
2
 70
0
 10
-128.072114
 20
185.216849
 30
0.0
 10
-128.072114
 20
185.216849
 30
0.0
  0
SPLINE
  5
17e
100
AcDbEntity
  8
Layer_1
 62
7
100
AcDbSpline
 70
8
 71
3
 72
8
 73
4
 74
0
 40
0
 40
0
 40
0
 40
0
 40
1
 40
1
 40
1
 40
1
 10
-126.785026
 20
183.904406
 30
0.0
 10
-126.544369
 20
183.904406
 30
0.0
 10
-126.347911
 20
183.707398
 30
0.0
 10
-126.347911
 20
183.466741
 30
0.0
  0
SPLINE
  5
17f
100
AcDbEntity
  8
Layer_1
 62
7
100
AcDbSpline
 70
8
 71
3
 72
8
 73
4
 74
0
 40
0
 40
0
 40
0
 40
0
 40
1
 40
1
 40
1
 40
1
 10
-126.347911
 20
183.466741
 30
0.0
 10
-126.347911
 20
183.226085
 30
0.0
 10
-126.544369
 20
183.029077
 30
0.0
 10
-126.785026
 20
183.029077
 30
0.0
  0
SPLINE
  5
180
100
AcDbEntity
  8
Layer_1
 62
7
100
AcDbSpline
 70
8
 71
3
 72
8
 73
4
 74
0
 40
0
 40
0
 40
0
 40
0
 40
1
 40
1
 40
1
 40
1
 10
-126.785026
 20
183.029077
 30
0.0
 10
-127.025682
 20
183.029077
 30
0.0
 10
-127.222690
 20
183.226085
 30
0.0
 10
-127.222690
 20
183.466741
 30
0.0
  0
SPLINE
  5
181
100
AcDbEntity
  8
Layer_1
 62
7
100
AcDbSpline
 70
8
 71
3
 72
8
 73
4
 74
0
 40
0
 40
0
 40
0
 40
0
 40
1
 40
1
 40
1
 40
1
 10
-127.222690
 20
183.466741
 30
0.0
 10
-127.222690
 20
183.707398
 30
0.0
 10
-127.025682
 20
183.904406
 30
0.0
 10
-126.785026
 20
183.904406
 30
0.0
  0
LWPOLYLINE
  5
182
100
AcDbEntity
  8
Layer_1
 62
7
100
AcDbPolyline
 90
2
 70
0
 10
-162.800329
 20
184.335455
 30
0.0
 10
-162.800329
 20
184.335455
 30
0.0
  0
SPLINE
  5
183
100
AcDbEntity
  8
Layer_1
 62
7
100
AcDbSpline
 70
8
 71
3
 72
8
 73
4
 74
0
 40
0
 40
0
 40
0
 40
0
 40
1
 40
1
 40
1
 40
1
 10
-126.566193
 20
182.154298
 30
0.0
 10
-125.913921
 20
182.154298
 30
0.0
 10
-125.537434
 20
181.965773
 30
0.0
 10
-125.691415
 20
181.716631
 30
0.0
  0
SPLINE
  5
184
100
AcDbEntity
  8
Layer_1
 62
7
100
AcDbSpline
 70
8
 71
3
 72
8
 73
4
 74
0
 40
0
 40
0
 40
0
 40
0
 40
1
 40
1
 40
1
 40
1
 10
-125.691415
 20
181.716631
 30
0.0
 10
-125.840149
 20
181.475977
 30
0.0
 10
-126.233614
 20
181.278966
 30
0.0
 10
-126.566193
 20
181.278966
 30
0.0
  0
SPLINE
  5
185
100
AcDbEntity
  8
Layer_1
 62
7
100
AcDbSpline
 70
8
 71
3
 72
8
 73
4
 74
0
 40
0
 40
0
 40
0
 40
0
 40
1
 40
1
 40
1
 40
1
 10
-126.566193
 20
181.278966
 30
0.0
 10
-126.898773
 20
181.278966
 30
0.0
 10
-127.292789
 20
181.475977
 30
0.0
 10
-127.441523
 20
181.716631
 30
0.0
  0
SPLINE
  5
186
100
AcDbEntity
  8
Layer_1
 62
7
100
AcDbSpline
 70
8
 71
3
 72
8
 73
4
 74
0
 40
0
 40
0
 40
0
 40
0
 40
1
 40
1
 40
1
 40
1
 10
-127.441523
 20
181.716631
 30
0.0
 10
-127.595503
 20
181.965776
 30
0.0
 10
-127.218465
 20
182.154298
 30
0.0
 10
-126.566193
 20
182.154298
 30
0.0
  0
LWPOLYLINE
  5
187
100
AcDbEntity
  8
Layer_1
 62
7
100
AcDbPolyline
 90
2
 70
0
 10
-126.785026
 20
183.904406
 30
0.0
 10
-126.785026
 20
183.904406
 30
0.0
  0
SPLINE
  5
188
100
AcDbEntity
  8
Layer_1
 62
7
100
AcDbSpline
 70
8
 71
3
 72
8
 73
4
 74
0
 40
0
 40
0
 40
0
 40
0
 40
1
 40
1
 40
1
 40
1
 10
-163.565967
 20
181.716631
 30
0.0
 10
-163.311106
 20
181.716631
 30
0.0
 10
-163.102397
 20
181.519625
 30
0.0
 10
-163.102397
 20
181.278966
 30
0.0
  0
SPLINE
  5
189
100
AcDbEntity
  8
Layer_1
 62
7
100
AcDbSpline
 70
8
 71
3
 72
8
 73
4
 74
0
 40
0
 40
0
 40
0
 40
0
 40
1
 40
1
 40
1
 40
1
 10
-163.102397
 20
181.278966
 30
0.0
 10
-163.102397
 20
181.038309
 30
0.0
 10
-163.189195
 20
180.841301
 30
0.0
 10
-163.295322
 20
180.841301
 30
0.0
  0
SPLINE
  5
18a
100
AcDbEntity
  8
Layer_1
 62
7
100
AcDbSpline
 70
8
 71
3
 72
8
 73
4
 74
0
 40
0
 40
0
 40
0
 40
0
 40
1
 40
1
 40
1
 40
1
 10
-163.295322
 20
180.841301
 30
0.0
 10
-163.401446
 20
180.841301
 30
0.0
 10
-163.610160
 20
181.038309
 30
0.0
 10
-163.758894
 20
181.278966
 30
0.0
  0
SPLINE
  5
18b
100
AcDbEntity
  8
Layer_1
 62
7
100
AcDbSpline
 70
8
 71
3
 72
8
 73
4
 74
0
 40
0
 40
0
 40
0
 40
0
 40
1
 40
1
 40
1
 40
1
 10
-163.758894
 20
181.278966
 30
0.0
 10
-163.907631
 20
181.519625
 30
0.0
 10
-163.820825
 20
181.716631
 30
0.0
 10
-163.565967
 20
181.716631
 30
0.0
  0
LWPOLYLINE
  5
18c
100
AcDbEntity
  8
Layer_1
 62
7
100
AcDbPolyline
 90
2
 70
0
 10
-126.566193
 20
182.154298
 30
0.0
 10
-126.566193
 20
182.154298
 30
0.0
  0
SPLINE
  5
18d
100
AcDbEntity
  8
Layer_1
 62
7
100
AcDbSpline
 70
8
 71
3
 72
8
 73
4
 74
0
 40
0
 40
0
 40
0
 40
0
 40
1
 40
1
 40
1
 40
1
 10
-129.275417
 20
178.185548
 30
0.0
 10
-128.351139
 20
178.155900
 30
0.0
 10
-128.347913
 20
178.141304
 30
0.0
 10
-129.191631
 20
177.778750
 30
0.0
  0
SPLINE
  5
18e
100
AcDbEntity
  8
Layer_1
 62
7
100
AcDbSpline
 70
8
 71
3
 72
8
 73
4
 74
0
 40
0
 40
0
 40
0
 40
0
 40
1
 40
1
 40
1
 40
1
 10
-129.191631
 20
177.778750
 30
0.0
 10
-130.396000
 20
177.261214
 30
0.0
 10
-130.824481
 20
177.261214
 30
0.0
 10
-130.504627
 20
177.778750
 30
0.0
  0
SPLINE
  5
18f
100
AcDbEntity
  8
Layer_1
 62
7
100
AcDbSpline
 70
8
 71
3
 72
8
 73
4
 74
0
 40
0
 40
0
 40
0
 40
0
 40
1
 40
1
 40
1
 40
1
 10
-130.504627
 20
177.778750
 30
0.0
 10
-130.355893
 20
178.019407
 30
0.0
 10
-129.802692
 20
178.202481
 30
0.0
 10
-129.275417
 20
178.185548
 30
0.0
  0
LWPOLYLINE
  5
190
100
AcDbEntity
  8
Layer_1
 62
7
100
AcDbPolyline
 90
2
 70
0
 10
-163.565967
 20
181.716631
 30
0.0
 10
-163.565967
 20
181.716631
 30
0.0
  0
SPLINE
  5
191
100
AcDbEntity
  8
Layer_1
 62
7
100
AcDbSpline
 70
8
 71
3
 72
8
 73
4
 74
0
 40
0
 40
0
 40
0
 40
0
 40
1
 40
1
 40
1
 40
1
 10
-166.551350
 20
177.341085
 30
0.0
 10
-166.310694
 20
177.341085
 30
0.0
 10
-166.235597
 20
177.144077
 30
0.0
 10
-166.384331
 20
176.903421
 30
0.0
  0
SPLINE
  5
192
100
AcDbEntity
  8
Layer_1
 62
7
100
AcDbSpline
 70
8
 71
3
 72
8
 73
4
 74
0
 40
0
 40
0
 40
0
 40
0
 40
1
 40
1
 40
1
 40
1
 10
-166.384331
 20
176.903421
 30
0.0
 10
-166.533065
 20
176.662761
 30
0.0
 10
-166.851432
 20
176.465756
 30
0.0
 10
-167.092091
 20
176.465756
 30
0.0
  0
SPLINE
  5
193
100
AcDbEntity
  8
Layer_1
 62
7
100
AcDbSpline
 70
8
 71
3
 72
8
 73
4
 74
0
 40
0
 40
0
 40
0
 40
0
 40
1
 40
1
 40
1
 40
1
 10
-167.092091
 20
176.465756
 30
0.0
 10
-167.332747
 20
176.465756
 30
0.0
 10
-167.407844
 20
176.662761
 30
0.0
 10
-167.259110
 20
176.903421
 30
0.0
  0
SPLINE
  5
194
100
AcDbEntity
  8
Layer_1
 62
7
100
AcDbSpline
 70
8
 71
3
 72
8
 73
4
 74
0
 40
0
 40
0
 40
0
 40
0
 40
1
 40
1
 40
1
 40
1
 10
-167.259110
 20
176.903421
 30
0.0
 10
-167.110376
 20
177.144077
 30
0.0
 10
-166.792007
 20
177.341085
 30
0.0
 10
-166.551350
 20
177.341085
 30
0.0
  0
LWPOLYLINE
  5
195
100
AcDbEntity
  8
Layer_1
 62
7
100
AcDbPolyline
 90
2
 70
0
 10
-129.275417
 20
178.185548
 30
0.0
 10
-129.275417
 20
178.185548
 30
0.0
  0
SPLINE
  5
196
100
AcDbEntity
  8
Layer_1
 62
7
100
AcDbSpline
 70
8
 71
3
 72
8
 73
4
 74
0
 40
0
 40
0
 40
0
 40
0
 40
1
 40
1
 40
1
 40
1
 10
-163.295322
 20
177.341085
 30
0.0
 10
-162.920124
 20
177.341085
 30
0.0
 10
-162.734828
 20
177.144077
 30
0.0
 10
-162.883562
 20
176.903421
 30
0.0
  0
SPLINE
  5
197
100
AcDbEntity
  8
Layer_1
 62
7
100
AcDbSpline
 70
8
 71
3
 72
8
 73
4
 74
0
 40
0
 40
0
 40
0
 40
0
 40
1
 40
1
 40
1
 40
1
 10
-162.883562
 20
176.903421
 30
0.0
 10
-163.032296
 20
176.662761
 30
0.0
 10
-163.339512
 20
176.465756
 30
0.0
 10
-163.565967
 20
176.465756
 30
0.0
  0
SPLINE
  5
198
100
AcDbEntity
  8
Layer_1
 62
7
100
AcDbSpline
 70
8
 71
3
 72
8
 73
4
 74
0
 40
0
 40
0
 40
0
 40
0
 40
1
 40
1
 40
1
 40
1
 10
-163.565967
 20
176.465756
 30
0.0
 10
-163.792419
 20
176.465756
 30
0.0
 10
-163.977726
 20
176.662761
 30
0.0
 10
-163.977726
 20
176.903421
 30
0.0
  0
SPLINE
  5
199
100
AcDbEntity
  8
Layer_1
 62
7
100
AcDbSpline
 70
8
 71
3
 72
8
 73
4
 74
0
 40
0
 40
0
 40
0
 40
0
 40
1
 40
1
 40
1
 40
1
 10
-163.977726
 20
176.903421
 30
0.0
 10
-163.977726
 20
177.144077
 30
0.0
 10
-163.670511
 20
177.341085
 30
0.0
 10
-163.295322
 20
177.341085
 30
0.0
  0
LWPOLYLINE
  5
19a
100
AcDbEntity
  8
Layer_1
 62
7
100
AcDbPolyline
 90
2
 70
0
 10
-166.551350
 20
177.341085
 30
0.0
 10
-166.551350
 20
177.341085
 30
0.0
  0
SPLINE
  5
19b
100
AcDbEntity
  8
Layer_1
 62
7
100
AcDbSpline
 70
8
 71
3
 72
8
 73
4
 74
0
 40
0
 40
0
 40
0
 40
0
 40
1
 40
1
 40
1
 40
1
 10
-126.201842
 20
164.020417
 30
0.0
 10
-126.068791
 20
164.013607
 30
0.0
 10
-126.036028
 20
163.926840
 30
0.0
 10
-126.131836
 20
163.771818
 30
0.0
  0
SPLINE
  5
19c
100
AcDbEntity
  8
Layer_1
 62
7
100
AcDbSpline
 70
8
 71
3
 72
8
 73
4
 74
0
 40
0
 40
0
 40
0
 40
0
 40
1
 40
1
 40
1
 40
1
 10
-126.131836
 20
163.771818
 30
0.0
 10
-126.278863
 20
163.533919
 30
0.0
 10
-126.584479
 20
163.339115
 30
0.0
 10
-126.810934
 20
163.339115
 30
0.0
  0
SPLINE
  5
19d
100
AcDbEntity
  8
Layer_1
 62
7
100
AcDbSpline
 70
8
 71
3
 72
8
 73
4
 74
0
 40
0
 40
0
 40
0
 40
0
 40
1
 40
1
 40
1
 40
1
 10
-126.810934
 20
163.339115
 30
0.0
 10
-127.440329
 20
163.339115
 30
0.0
 10
-127.301628
 20
163.652915
 30
0.0
 10
-126.543593
 20
163.943799
 30
0.0
  0
SPLINE
  5
19e
100
AcDbEntity
  8
Layer_1
 62
7
100
AcDbSpline
 70
8
 71
3
 72
8
 73
4
 74
0
 40
0
 40
0
 40
0
 40
0
 40
1
 40
1
 40
1
 40
1
 10
-126.543593
 20
163.943799
 30
0.0
 10
-126.397577
 20
163.999831
 30
0.0
 10
-126.281671
 20
164.024503
 30
0.0
 10
-126.201842
 20
164.020417
 30
0.0
  0
LWPOLYLINE
  5
19f
100
AcDbEntity
  8
Layer_1
 62
7
100
AcDbPolyline
 90
2
 70
0
 10
-163.295322
 20
177.341085
 30
0.0
 10
-163.295322
 20
177.341085
 30
0.0
  0
SPLINE
  5
1a0
100
AcDbEntity
  8
Layer_1
 62
7
100
AcDbSpline
 70
8
 71
3
 72
8
 73
4
 74
0
 40
0
 40
0
 40
0
 40
0
 40
1
 40
1
 40
1
 40
1
 10
-166.191407
 20
162.901451
 30
0.0
 10
-165.936549
 20
162.901451
 30
0.0
 10
-165.727834
 20
162.704993
 30
0.0
 10
-165.727834
 20
162.464336
 30
0.0
  0
SPLINE
  5
1a1
100
AcDbEntity
  8
Layer_1
 62
7
100
AcDbSpline
 70
8
 71
3
 72
8
 73
4
 74
0
 40
0
 40
0
 40
0
 40
0
 40
1
 40
1
 40
1
 40
1
 10
-165.727834
 20
162.464336
 30
0.0
 10
-165.727834
 20
162.223680
 30
0.0
 10
-165.814635
 20
162.026672
 30
0.0
 10
-165.920759
 20
162.026672
 30
0.0
  0
SPLINE
  5
1a2
100
AcDbEntity
  8
Layer_1
 62
7
100
AcDbSpline
 70
8
 71
3
 72
8
 73
4
 74
0
 40
0
 40
0
 40
0
 40
0
 40
1
 40
1
 40
1
 40
1
 10
-165.920759
 20
162.026672
 30
0.0
 10
-166.026886
 20
162.026672
 30
0.0
 10
-166.235597
 20
162.223680
 30
0.0
 10
-166.384331
 20
162.464336
 30
0.0
  0
SPLINE
  5
1a3
100
AcDbEntity
  8
Layer_1
 62
7
100
AcDbSpline
 70
8
 71
3
 72
8
 73
4
 74
0
 40
0
 40
0
 40
0
 40
0
 40
1
 40
1
 40
1
 40
1
 10
-166.384331
 20
162.464336
 30
0.0
 10
-166.533065
 20
162.704993
 30
0.0
 10
-166.446268
 20
162.901451
 30
0.0
 10
-166.191407
 20
162.901451
 30
0.0
  0
LWPOLYLINE
  5
1a4
100
AcDbEntity
  8
Layer_1
 62
7
100
AcDbPolyline
 90
2
 70
0
 10
-126.201842
 20
164.020417
 30
0.0
 10
-126.201842
 20
164.020417
 30
0.0
  0
SPLINE
  5
1a5
100
AcDbEntity
  8
Layer_1
 62
7
100
AcDbSpline
 70
8
 71
3
 72
8
 73
4
 74
0
 40
0
 40
0
 40
0
 40
0
 40
1
 40
1
 40
1
 40
1
 10
-129.436371
 20
158.963567
 30
0.0
 10
-129.181513
 20
158.963567
 30
0.0
 10
-128.972798
 20
158.766559
 30
0.0
 10
-128.972798
 20
158.525903
 30
0.0
  0
SPLINE
  5
1a6
100
AcDbEntity
  8
Layer_1
 62
7
100
AcDbSpline
 70
8
 71
3
 72
8
 73
4
 74
0
 40
0
 40
0
 40
0
 40
0
 40
1
 40
1
 40
1
 40
1
 10
-128.972798
 20
158.525903
 30
0.0
 10
-128.972798
 20
158.285243
 30
0.0
 10
-129.059601
 20
158.088238
 30
0.0
 10
-129.165725
 20
158.088238
 30
0.0
  0
SPLINE
  5
1a7
100
AcDbEntity
  8
Layer_1
 62
7
100
AcDbSpline
 70
8
 71
3
 72
8
 73
4
 74
0
 40
0
 40
0
 40
0
 40
0
 40
1
 40
1
 40
1
 40
1
 10
-129.165725
 20
158.088238
 30
0.0
 10
-129.271852
 20
158.088238
 30
0.0
 10
-129.480564
 20
158.285243
 30
0.0
 10
-129.629298
 20
158.525903
 30
0.0
  0
SPLINE
  5
1a8
100
AcDbEntity
  8
Layer_1
 62
7
100
AcDbSpline
 70
8
 71
3
 72
8
 73
4
 74
0
 40
0
 40
0
 40
0
 40
0
 40
1
 40
1
 40
1
 40
1
 10
-129.629298
 20
158.525903
 30
0.0
 10
-129.778032
 20
158.766559
 30
0.0
 10
-129.691232
 20
158.963567
 30
0.0
 10
-129.436371
 20
158.963567
 30
0.0
  0
LWPOLYLINE
  5
1a9
100
AcDbEntity
  8
Layer_1
 62
7
100
AcDbPolyline
 90
2
 70
0
 10
-166.191407
 20
162.901451
 30
0.0
 10
-166.191407
 20
162.901451
 30
0.0
  0
SPLINE
  5
1aa
100
AcDbEntity
  8
Layer_1
 62
7
100
AcDbSpline
 70
8
 71
3
 72
8
 73
4
 74
0
 40
0
 40
0
 40
0
 40
0
 40
1
 40
1
 40
1
 40
1
 10
-268.907618
 20
146.705090
 30
0.0
 10
-268.500671
 20
146.708776
 30
0.0
 10
-268.046525
 20
146.515247
 30
0.0
 10
-267.897791
 20
146.274591
 30
0.0
  0
SPLINE
  5
1ab
100
AcDbEntity
  8
Layer_1
 62
7
100
AcDbSpline
 70
8
 71
3
 72
8
 73
4
 74
0
 40
0
 40
0
 40
0
 40
0
 40
1
 40
1
 40
1
 40
1
 10
-267.897791
 20
146.274591
 30
0.0
 10
-267.555543
 20
145.720817
 30
0.0
 10
-268.134499
 20
145.720817
 30
0.0
 10
-268.991402
 20
146.274591
 30
0.0
  0
SPLINE
  5
1ac
100
AcDbEntity
  8
Layer_1
 62
7
100
AcDbSpline
 70
8
 71
3
 72
8
 73
4
 74
0
 40
0
 40
0
 40
0
 40
0
 40
1
 40
1
 40
1
 40
1
 10
-268.991402
 20
146.274591
 30
0.0
 10
-269.557026
 20
146.640125
 30
0.0
 10
-269.545260
 20
146.699304
 30
0.0
 10
-268.907618
 20
146.705090
 30
0.0
  0
LWPOLYLINE
  5
1ad
100
AcDbEntity
  8
Layer_1
 62
7
100
AcDbPolyline
 90
2
 70
0
 10
-129.436371
 20
158.963567
 30
0.0
 10
-129.436371
 20
158.963567
 30
0.0
  0
SPLINE
  5
1ae
100
AcDbEntity
  8
Layer_1
 62
7
100
AcDbSpline
 70
8
 71
3
 72
8
 73
4
 74
0
 40
0
 40
0
 40
0
 40
0
 40
1
 40
1
 40
1
 40
1
 10
-129.327230
 20
135.328560
 30
0.0
 10
-128.920285
 20
135.332243
 30
0.0
 10
-128.465591
 20
135.138717
 30
0.0
 10
-128.316855
 20
134.898061
 30
0.0
  0
SPLINE
  5
1af
100
AcDbEntity
  8
Layer_1
 62
7
100
AcDbSpline
 70
8
 71
3
 72
8
 73
4
 74
0
 40
0
 40
0
 40
0
 40
0
 40
1
 40
1
 40
1
 40
1
 10
-128.316855
 20
134.898061
 30
0.0
 10
-127.974606
 20
134.344290
 30
0.0
 10
-128.553566
 20
134.344290
 30
0.0
 10
-129.410466
 20
134.898061
 30
0.0
  0
SPLINE
  5
1b0
100
AcDbEntity
  8
Layer_1
 62
7
100
AcDbSpline
 70
8
 71
3
 72
8
 73
4
 74
0
 40
0
 40
0
 40
0
 40
0
 40
1
 40
1
 40
1
 40
1
 10
-129.410466
 20
134.898061
 30
0.0
 10
-129.976090
 20
135.263598
 30
0.0
 10
-129.964869
 20
135.322774
 30
0.0
 10
-129.327230
 20
135.328560
 30
0.0
  0
LWPOLYLINE
  5
1b1
100
AcDbEntity
  8
Layer_1
 62
7
100
AcDbPolyline
 90
2
 70
0
 10
-268.907618
 20
146.705090
 30
0.0
 10
-268.907618
 20
146.705090
 30
0.0
  0
SPLINE
  5
1b2
100
AcDbEntity
  8
Layer_1
 62
7
100
AcDbSpline
 70
8
 71
3
 72
8
 73
4
 74
0
 40
0
 40
0
 40
0
 40
0
 40
1
 40
1
 40
1
 40
1
 10
-162.039653
 20
128.334740
 30
0.0
 10
-164.778343
 20
128.334740
 30
0.0
 10
-166.148718
 20
127.359863
 30
0.0
 10
-166.190854
 20
125.381327
 30
0.0
  0
SPLINE
  5
1b3
100
AcDbEntity
  8
Layer_1
 62
7
100
AcDbSpline
 70
8
 71
3
 72
8
 73
4
 74
0
 40
0
 40
0
 40
0
 40
0
 40
1
 40
1
 40
1
 40
1
 10
-166.190854
 20
125.381327
 30
0.0
 10
-166.204954
 20
124.719522
 30
0.0
 10
-166.457407
 20
121.765499
 30
0.0
 10
-166.751440
 20
118.817456
 30
0.0
  0
SPLINE
  5
1b4
100
AcDbEntity
  8
Layer_1
 62
7
100
AcDbSpline
 70
8
 71
3
 72
8
 73
4
 74
0
 40
0
 40
0
 40
0
 40
0
 40
1
 40
1
 40
1
 40
1
 10
-166.751440
 20
118.817456
 30
0.0
 10
-167.225379
 20
114.065624
 30
0.0
 10
-167.210034
 20
113.456004
 30
0.0
 10
-166.616394
 20
113.443107
 30
0.0
  0
SPLINE
  5
1b5
100
AcDbEntity
  8
Layer_1
 62
7
100
AcDbSpline
 70
8
 71
3
 72
8
 73
4
 74
0
 40
0
 40
0
 40
0
 40
0
 40
1
 40
1
 40
1
 40
1
 10
-166.616394
 20
113.443107
 30
0.0
 10
-166.121890
 20
113.432357
 30
0.0
 10
-166.204101
 20
113.213982
 30
0.0
 10
-166.931137
 20
112.607464
 30
0.0
  0
SPLINE
  5
1b6
100
AcDbEntity
  8
Layer_1
 62
7
100
AcDbSpline
 70
8
 71
3
 72
8
 73
4
 74
0
 40
0
 40
0
 40
0
 40
0
 40
1
 40
1
 40
1
 40
1
 10
-166.931137
 20
112.607464
 30
0.0
 10
-167.472614
 20
112.155747
 30
0.0
 10
-167.915607
 20
111.475914
 30
0.0
 10
-167.915607
 20
111.097135
 30
0.0
  0
SPLINE
  5
1b7
100
AcDbEntity
  8
Layer_1
 62
7
100
AcDbSpline
 70
8
 71
3
 72
8
 73
4
 74
0
 40
0
 40
0
 40
0
 40
0
 40
1
 40
1
 40
1
 40
1
 10
-167.915607
 20
111.097135
 30
0.0
 10
-167.915607
 20
110.718359
 30
0.0
 10
-168.492955
 20
109.765297
 30
0.0
 10
-169.198838
 20
108.979367
 30
0.0
  0
SPLINE
  5
1b8
100
AcDbEntity
  8
Layer_1
 62
7
100
AcDbSpline
 70
8
 71
3
 72
8
 73
4
 74
0
 40
0
 40
0
 40
0
 40
0
 40
1
 40
1
 40
1
 40
1
 10
-169.198838
 20
108.979367
 30
0.0
 10
-170.131009
 20
107.941478
 30
0.0
 10
-170.615158
 20
107.681354
 30
0.0
 10
-170.967688
 20
108.028521
 30
0.0
  0
SPLINE
  5
1b9
100
AcDbEntity
  8
Layer_1
 62
7
100
AcDbSpline
 70
8
 71
3
 72
8
 73
4
 74
0
 40
0
 40
0
 40
0
 40
0
 40
1
 40
1
 40
1
 40
1
 10
-170.967688
 20
108.028521
 30
0.0
 10
-171.322441
 20
108.377884
 30
0.0
 10
-171.271342
 20
108.657070
 30
0.0
 10
-170.778068
 20
109.066458
 30
0.0
  0
SPLINE
  5
1ba
100
AcDbEntity
  8
Layer_1
 62
7
100
AcDbSpline
 70
8
 71
3
 72
8
 73
4
 74
0
 40
0
 40
0
 40
0
 40
0
 40
1
 40
1
 40
1
 40
1
 10
-170.778068
 20
109.066458
 30
0.0
 10
-169.973560
 20
109.734140
 30
0.0
 10
-169.956599
 20
109.964535
 30
0.0
 10
-170.589002
 20
111.569527
 30
0.0
  0
SPLINE
  5
1bb
100
AcDbEntity
  8
Layer_1
 62
7
100
AcDbSpline
 70
8
 71
3
 72
8
 73
4
 74
0
 40
0
 40
0
 40
0
 40
0
 40
1
 40
1
 40
1
 40
1
 10
-170.589002
 20
111.569527
 30
0.0
 10
-170.855942
 20
112.247001
 30
0.0
 10
-171.111426
 20
113.490472
 30
0.0
 10
-171.157305
 20
114.332770
 30
0.0
  0
SPLINE
  5
1bc
100
AcDbEntity
  8
Layer_1
 62
7
100
AcDbSpline
 70
8
 71
3
 72
8
 73
4
 74
0
 40
0
 40
0
 40
0
 40
0
 40
1
 40
1
 40
1
 40
1
 10
-171.157305
 20
114.332770
 30
0.0
 10
-171.203183
 20
115.175068
 30
0.0
 10
-171.509913
 20
118.227045
 30
0.0
 10
-171.838606
 20
121.114923
 30
0.0
  0
SPLINE
  5
1bd
100
AcDbEntity
  8
Layer_1
 62
7
100
AcDbSpline
 70
8
 71
3
 72
8
 73
4
 74
0
 40
0
 40
0
 40
0
 40
0
 40
1
 40
1
 40
1
 40
1
 10
-171.838606
 20
121.114923
 30
0.0
 10
-172.583306
 20
127.657842
 30
0.0
 10
-173.035256
 20
128.338003
 30
0.0
 10
-176.633629
 20
128.328125
 30
0.0
  0
SPLINE
  5
1be
100
AcDbEntity
  8
Layer_1
 62
7
100
AcDbSpline
 70
8
 71
3
 72
8
 73
4
 74
0
 40
0
 40
0
 40
0
 40
0
 40
1
 40
1
 40
1
 40
1
 10
-176.633629
 20
128.328125
 30
0.0
 10
-177.975458
 20
128.324442
 30
0.0
 10
-179.341216
 20
128.151364
 30
0.0
 10
-179.668619
 20
127.943927
 30
0.0
  0
SPLINE
  5
1bf
100
AcDbEntity
  8
Layer_1
 62
7
100
AcDbSpline
 70
8
 71
3
 72
8
 73
4
 74
0
 40
0
 40
0
 40
0
 40
0
 40
1
 40
1
 40
1
 40
1
 10
-179.668619
 20
127.943927
 30
0.0
 10
-180.430162
 20
127.461418
 30
0.0
 10
-180.290710
 20
126.138947
 30
0.0
 10
-178.267431
 20
114.652474
 30
0.0
  0
SPLINE
  5
1c0
100
AcDbEntity
  8
Layer_1
 62
7
100
AcDbSpline
 70
8
 71
3
 72
8
 73
4
 74
0
 40
0
 40
0
 40
0
 40
0
 40
1
 40
1
 40
1
 40
1
 10
-178.267431
 20
114.652474
 30
0.0
 10
-177.387038
 20
109.654367
 30
0.0
 10
-176.666703
 20
105.371918
 30
0.0
 10
-176.666703
 20
105.135743
 30
0.0
  0
SPLINE
  5
1c1
100
AcDbEntity
  8
Layer_1
 62
7
100
AcDbSpline
 70
8
 71
3
 72
8
 73
4
 74
0
 40
0
 40
0
 40
0
 40
0
 40
1
 40
1
 40
1
 40
1
 10
-176.666703
 20
105.135743
 30
0.0
 10
-176.666700
 20
104.899569
 30
0.0
 10
-176.223707
 20
104.700212
 30
0.0
 10
-175.682230
 20
104.692564
 30
0.0
  0
SPLINE
  5
1c2
100
AcDbEntity
  8
Layer_1
 62
7
100
AcDbSpline
 70
8
 71
3
 72
8
 73
4
 74
0
 40
0
 40
0
 40
0
 40
0
 40
1
 40
1
 40
1
 40
1
 10
-175.682230
 20
104.692564
 30
0.0
 10
-174.743965
 20
104.679303
 30
0.0
 10
-174.735738
 20
104.649960
 30
0.0
 10
-175.507495
 20
104.065283
 30
0.0
  0
SPLINE
  5
1c3
100
AcDbEntity
  8
Layer_1
 62
7
100
AcDbSpline
 70
8
 71
3
 72
8
 73
4
 74
0
 40
0
 40
0
 40
0
 40
0
 40
1
 40
1
 40
1
 40
1
 10
-175.507495
 20
104.065283
 30
0.0
 10
-176.285093
 20
103.476181
 30
0.0
 10
-176.289067
 20
103.272315
 30
0.0
 10
-175.610020
 20
98.937878
 30
0.0
  0
SPLINE
  5
1c4
100
AcDbEntity
  8
Layer_1
 62
7
100
AcDbSpline
 70
8
 71
3
 72
8
 73
4
 74
0
 40
0
 40
0
 40
0
 40
0
 40
1
 40
1
 40
1
 40
1
 10
-175.610020
 20
98.937878
 30
0.0
 10
-174.867367
 20
94.197414
 30
0.0
 10
-174.121832
 20
90.115578
 30
0.0
 10
-173.771168
 20
88.873238
 30
0.0
  0
SPLINE
  5
1c5
100
AcDbEntity
  8
Layer_1
 62
7
100
AcDbSpline
 70
8
 71
3
 72
8
 73
4
 74
0
 40
0
 40
0
 40
0
 40
0
 40
1
 40
1
 40
1
 40
1
 10
-173.771168
 20
88.873238
 30
0.0
 10
-173.656659
 20
88.467558
 30
0.0
 10
-173.227407
 20
88.047357
 30
0.0
 10
-172.817564
 20
87.939481
 30
0.0
  0
SPLINE
  5
1c6
100
AcDbEntity
  8
Layer_1
 62
7
100
AcDbSpline
 70
8
 71
3
 72
8
 73
4
 74
0
 40
0
 40
0
 40
0
 40
0
 40
1
 40
1
 40
1
 40
1
 10
-172.817564
 20
87.939481
 30
0.0
 10
-172.407727
 20
87.831601
 30
0.0
 10
-171.060152
 20
87.720445
 30
0.0
 10
-169.823364
 20
87.692536
 30
0.0
  0
SPLINE
  5
1c7
100
AcDbEntity
  8
Layer_1
 62
7
100
AcDbSpline
 70
8
 71
3
 72
8
 73
4
 74
0
 40
0
 40
0
 40
0
 40
0
 40
1
 40
1
 40
1
 40
1
 10
-169.823364
 20
87.692536
 30
0.0
 10
-166.387430
 20
87.614979
 30
0.0
 10
-165.969651
 20
88.197454
 30
0.0
 10
-165.156775
 20
94.196875
 30
0.0
  0
SPLINE
  5
1c8
100
AcDbEntity
  8
Layer_1
 62
7
100
AcDbSpline
 70
8
 71
3
 72
8
 73
4
 74
0
 40
0
 40
0
 40
0
 40
0
 40
1
 40
1
 40
1
 40
1
 10
-165.156775
 20
94.196875
 30
0.0
 10
-164.708688
 20
97.503995
 30
0.0
 10
-164.622373
 20
99.397418
 30
0.0
 10
-164.904318
 20
99.737140
 30
0.0
  0
SPLINE
  5
1c9
100
AcDbEntity
  8
Layer_1
 62
7
100
AcDbSpline
 70
8
 71
3
 72
8
 73
4
 74
0
 40
0
 40
0
 40
0
 40
0
 40
1
 40
1
 40
1
 40
1
 10
-164.904318
 20
99.737140
 30
0.0
 10
-165.183936
 20
100.073916
 30
0.0
 10
-165.183343
 20
100.345295
 30
0.0
 10
-164.902665
 20
100.518763
 30
0.0
  0
SPLINE
  5
1ca
100
AcDbEntity
  8
Layer_1
 62
7
100
AcDbSpline
 70
8
 71
3
 72
8
 73
4
 74
0
 40
0
 40
0
 40
0
 40
0
 40
1
 40
1
 40
1
 40
1
 10
-164.902665
 20
100.518763
 30
0.0
 10
-164.666109
 20
100.664965
 30
0.0
 10
-164.161972
 20
101.853824
 30
0.0
 10
-163.782045
 20
103.160738
 30
0.0
  0
SPLINE
  5
1cb
100
AcDbEntity
  8
Layer_1
 62
7
100
AcDbSpline
 70
8
 71
3
 72
8
 73
4
 74
0
 40
0
 40
0
 40
0
 40
0
 40
1
 40
1
 40
1
 40
1
 10
-163.782045
 20
103.160738
 30
0.0
 10
-163.402114
 20
104.467653
 30
0.0
 10
-162.884318
 20
105.664752
 30
0.0
 10
-162.631659
 20
105.820903
 30
0.0
  0
SPLINE
  5
1cc
100
AcDbEntity
  8
Layer_1
 62
7
100
AcDbSpline
 70
8
 71
3
 72
8
 73
4
 74
0
 40
0
 40
0
 40
0
 40
0
 40
1
 40
1
 40
1
 40
1
 10
-162.631659
 20
105.820903
 30
0.0
 10
-161.936551
 20
106.250507
 30
0.0
 10
-160.476957
 20
104.708916
 30
0.0
 10
-160.476957
 20
103.544936
 30
0.0
  0
SPLINE
  5
1cd
100
AcDbEntity
  8
Layer_1
 62
7
100
AcDbSpline
 70
8
 71
3
 72
8
 73
4
 74
0
 40
0
 40
0
 40
0
 40
0
 40
1
 40
1
 40
1
 40
1
 10
-160.476957
 20
103.544936
 30
0.0
 10
-160.476957
 20
102.861978
 30
0.0
 10
-160.220987
 20
102.516416
 30
0.0
 10
-159.711319
 20
102.511957
 30
0.0
  0
SPLINE
  5
1ce
100
AcDbEntity
  8
Layer_1
 62
7
100
AcDbSpline
 70
8
 71
3
 72
8
 73
4
 74
0
 40
0
 40
0
 40
0
 40
0
 40
1
 40
1
 40
1
 40
1
 10
-159.711319
 20
102.511957
 30
0.0
 10
-159.108205
 20
102.506680
 30
0.0
 10
-159.073034
 20
102.424576
 30
0.0
 10
-159.545954
 20
102.125005
 30
0.0
  0
SPLINE
  5
1cf
100
AcDbEntity
  8
Layer_1
 62
7
100
AcDbSpline
 70
8
 71
3
 72
8
 73
4
 74
0
 40
0
 40
0
 40
0
 40
0
 40
1
 40
1
 40
1
 40
1
 10
-159.545954
 20
102.125005
 30
0.0
 10
-160.398124
 20
101.585190
 30
0.0
 10
-158.565348
 20
89.000075
 30
0.0
 10
-157.516381
 20
88.188629
 30
0.0
  0
SPLINE
  5
1d0
100
AcDbEntity
  8
Layer_1
 62
7
100
AcDbSpline
 70
8
 71
3
 72
8
 73
4
 74
0
 40
0
 40
0
 40
0
 40
0
 40
1
 40
1
 40
1
 40
1
 10
-157.516381
 20
88.188629
 30
0.0
 10
-156.502029
 20
87.403958
 30
0.0
 10
-152.132513
 20
87.493533
 30
0.0
 10
-150.948099
 20
88.323125
 30
0.0
  0
SPLINE
  5
1d1
100
AcDbEntity
  8
Layer_1
 62
7
100
AcDbSpline
 70
8
 71
3
 72
8
 73
4
 74
0
 40
0
 40
0
 40
0
 40
0
 40
1
 40
1
 40
1
 40
1
 10
-150.948099
 20
88.323125
 30
0.0
 10
-150.352540
 20
88.740275
 30
0.0
 10
-149.975799
 20
89.460658
 30
0.0
 10
-149.975756
 20
90.182374
 30
0.0
  0
SPLINE
  5
1d2
100
AcDbEntity
  8
Layer_1
 62
7
100
AcDbSpline
 70
8
 71
3
 72
8
 73
4
 74
0
 40
0
 40
0
 40
0
 40
0
 40
1
 40
1
 40
1
 40
1
 10
-149.975756
 20
90.182374
 30
0.0
 10
-149.975711
 20
90.830537
 30
0.0
 10
-149.671199
 20
92.936386
 30
0.0
 10
-149.299414
 20
94.861641
 30
0.0
  0
SPLINE
  5
1d3
100
AcDbEntity
  8
Layer_1
 62
7
100
AcDbSpline
 70
8
 71
3
 72
8
 73
4
 74
0
 40
0
 40
0
 40
0
 40
0
 40
1
 40
1
 40
1
 40
1
 10
-149.299414
 20
94.861641
 30
0.0
 10
-148.927631
 20
96.786893
 30
0.0
 10
-148.450715
 20
99.641862
 30
0.0
 10
-148.239426
 20
101.206129
 30
0.0
  0
SPLINE
  5
1d4
100
AcDbEntity
  8
Layer_1
 62
7
100
AcDbSpline
 70
8
 71
3
 72
8
 73
4
 74
0
 40
0
 40
0
 40
0
 40
0
 40
1
 40
1
 40
1
 40
1
 10
-148.239426
 20
101.206129
 30
0.0
 10
-147.433101
 20
107.175742
 30
0.0
 10
-146.056392
 20
115.963058
 30
0.0
 10
-145.834475
 20
116.556924
 30
0.0
  0
SPLINE
  5
1d5
100
AcDbEntity
  8
Layer_1
 62
7
100
AcDbSpline
 70
8
 71
3
 72
8
 73
4
 74
0
 40
0
 40
0
 40
0
 40
0
 40
1
 40
1
 40
1
 40
1
 10
-145.834475
 20
116.556924
 30
0.0
 10
-145.707080
 20
116.897840
 30
0.0
 10
-145.235143
 20
119.343027
 30
0.0
 10
-144.785512
 20
121.990252
 30
0.0
  0
SPLINE
  5
1d6
100
AcDbEntity
  8
Layer_1
 62
7
100
AcDbSpline
 70
8
 71
3
 72
8
 73
4
 74
0
 40
0
 40
0
 40
0
 40
0
 40
1
 40
1
 40
1
 40
1
 10
-144.785512
 20
121.990252
 30
0.0
 10
-143.752401
 20
128.072753
 30
0.0
 10
-143.864756
 20
128.337015
 30
0.0
 10
-147.475442
 20
128.328125
 30
0.0
  0
SPLINE
  5
1d7
100
AcDbEntity
  8
Layer_1
 62
7
100
AcDbSpline
 70
8
 71
3
 72
8
 73
4
 74
0
 40
0
 40
0
 40
0
 40
0
 40
1
 40
1
 40
1
 40
1
 10
-147.475442
 20
128.328125
 30
0.0
 10
-148.971079
 20
128.324442
 30
0.0
 10
-150.474257
 20
128.143913
 30
0.0
 10
-150.816358
 20
127.927392
 30
0.0
  0
SPLINE
  5
1d8
100
AcDbEntity
  8
Layer_1
 62
7
100
AcDbSpline
 70
8
 71
3
 72
8
 73
4
 74
0
 40
0
 40
0
 40
0
 40
0
 40
1
 40
1
 40
1
 40
1
 10
-150.816358
 20
127.927392
 30
0.0
 10
-151.437413
 20
127.534313
 30
0.0
 10
-152.633392
 20
120.272128
 30
0.0
 10
-153.286906
 20
112.922760
 30
0.0
  0
SPLINE
  5
1d9
100
AcDbEntity
  8
Layer_1
 62
7
100
AcDbSpline
 70
8
 71
3
 72
8
 73
4
 74
0
 40
0
 40
0
 40
0
 40
0
 40
1
 40
1
 40
1
 40
1
 10
-153.286906
 20
112.922760
 30
0.0
 10
-153.538665
 20
110.091487
 30
0.0
 10
-153.727415
 20
109.498984
 30
0.0
 10
-154.451073
 20
109.269306
 30
0.0
  0
SPLINE
  5
1da
100
AcDbEntity
  8
Layer_1
 62
7
100
AcDbSpline
 70
8
 71
3
 72
8
 73
4
 74
0
 40
0
 40
0
 40
0
 40
0
 40
1
 40
1
 40
1
 40
1
 10
-154.451073
 20
109.269306
 30
0.0
 10
-154.926106
 20
109.118537
 30
0.0
 10
-155.457189
 20
109.162473
 30
0.0
 10
-155.631775
 20
109.366870
 30
0.0
  0
SPLINE
  5
1db
100
AcDbEntity
  8
Layer_1
 62
7
100
AcDbSpline
 70
8
 71
3
 72
8
 73
4
 74
0
 40
0
 40
0
 40
0
 40
0
 40
1
 40
1
 40
1
 40
1
 10
-155.631775
 20
109.366870
 30
0.0
 10
-156.195116
 20
110.026409
 30
0.0
 10
-157.061258
 20
113.250479
 30
0.0
 10
-156.907286
 20
114.115039
 30
0.0
  0
SPLINE
  5
1dc
100
AcDbEntity
  8
Layer_1
 62
7
100
AcDbSpline
 70
8
 71
3
 72
8
 73
4
 74
0
 40
0
 40
0
 40
0
 40
0
 40
1
 40
1
 40
1
 40
1
 10
-156.907286
 20
114.115039
 30
0.0
 10
-156.805018
 20
114.689299
 30
0.0
 10
-157.171983
 20
115.166014
 30
0.0
 10
-158.070352
 20
115.625368
 30
0.0
  0
LWPOLYLINE
  5
1dd
100
AcDbEntity
  8
Layer_1
 62
7
100
AcDbPolyline
 90
2
 70
0
 10
-129.327230
 20
135.328560
 30
0.0
 10
-129.327230
 20
135.328560
 30
0.0
  0
SPLINE
  5
1de
100
AcDbEntity
  8
Layer_1
 62
7
100
AcDbSpline
 70
8
 71
3
 72
8
 73
4
 74
0
 40
0
 40
0
 40
0
 40
0
 40
1
 40
1
 40
1
 40
1
 10
-158.151932
 20
116.440064
 30
0.0
 10
-157.075889
 20
116.565735
 30
0.0
 10
-156.949493
 20
116.731817
 30
0.0
 10
-157.145965
 20
117.755815
 30
0.0
  0
SPLINE
  5
1df
100
AcDbEntity
  8
Layer_1
 62
7
100
AcDbSpline
 70
8
 71
3
 72
8
 73
4
 74
0
 40
0
 40
0
 40
0
 40
0
 40
1
 40
1
 40
1
 40
1
 10
-157.145965
 20
117.755815
 30
0.0
 10
-157.269592
 20
118.400162
 30
0.0
 10
-157.607759
 20
120.764248
 30
0.0
 10
-157.897271
 20
123.010000
 30
0.0
  0
SPLINE
  5
1e0
100
AcDbEntity
  8
Layer_1
 62
7
100
AcDbSpline
 70
8
 71
3
 72
8
 73
4
 74
0
 40
0
 40
0
 40
0
 40
0
 40
1
 40
1
 40
1
 40
1
 10
-157.897271
 20
123.010000
 30
0.0
 10
-158.192097
 20
125.297022
 30
0.0
 10
-158.696217
 20
127.366492
 30
0.0
 10
-159.043799
 20
127.714072
 30
0.0
  0
SPLINE
  5
1e1
100
AcDbEntity
  8
Layer_1
 62
7
100
AcDbSpline
 70
8
 71
3
 72
8
 73
4
 74
0
 40
0
 40
0
 40
0
 40
0
 40
1
 40
1
 40
1
 40
1
 10
-159.043799
 20
127.714072
 30
0.0
 10
-159.427091
 20
128.097363
 30
0.0
 10
-160.572535
 20
128.334740
 30
0.0
 10
-162.039653
 20
128.334740
 30
0.0
  0
LWPOLYLINE
  5
1e2
100
AcDbEntity
  8
Layer_1
 62
7
100
AcDbPolyline
 90
3
 70
0
 10
-158.070352
 20
115.625368
 30
0.0
 10
-159.383346
 20
116.296199
 30
0.0
 10
-158.151932
 20
116.440064
 30
0.0
  0
SPLINE
  5
1e3
100
AcDbEntity
  8
Layer_1
 62
7
100
AcDbSpline
 70
8
 71
3
 72
8
 73
4
 74
0
 40
0
 40
0
 40
0
 40
0
 40
1
 40
1
 40
1
 40
1
 10
-234.680455
 20
128.317101
 30
0.0
 10
-237.285626
 20
128.349275
 30
0.0
 10
-240.210216
 20
128.075034
 30
0.0
 10
-240.697520
 20
127.532171
 30
0.0
  0
SPLINE
  5
1e4
100
AcDbEntity
  8
Layer_1
 62
7
100
AcDbSpline
 70
8
 71
3
 72
8
 73
4
 74
0
 40
0
 40
0
 40
0
 40
0
 40
1
 40
1
 40
1
 40
1
 10
-240.697520
 20
127.532171
 30
0.0
 10
-241.069131
 20
127.118193
 30
0.0
 10
-241.846298
 20
123.965373
 30
0.0
 10
-242.495036
 20
120.239591
 30
0.0
  0
SPLINE
  5
1e5
100
AcDbEntity
  8
Layer_1
 62
7
100
AcDbSpline
 70
8
 71
3
 72
8
 73
4
 74
0
 40
0
 40
0
 40
0
 40
0
 40
1
 40
1
 40
1
 40
1
 10
-242.495036
 20
120.239591
 30
0.0
 10
-243.123593
 20
116.629740
 30
0.0
 10
-244.120151
 20
111.116820
 30
0.0
 10
-244.709267
 20
107.988282
 30
0.0
  0
SPLINE
  5
1e6
100
AcDbEntity
  8
Layer_1
 62
7
100
AcDbSpline
 70
8
 71
3
 72
8
 73
4
 74
0
 40
0
 40
0
 40
0
 40
0
 40
1
 40
1
 40
1
 40
1
 10
-244.709267
 20
107.988282
 30
0.0
 10
-245.298381
 20
104.859747
 30
0.0
 10
-246.291413
 20
99.570967
 30
0.0
 10
-246.916332
 20
96.235820
 30
0.0
  0
SPLINE
  5
1e7
100
AcDbEntity
  8
Layer_1
 62
7
100
AcDbSpline
 70
8
 71
3
 72
8
 73
4
 74
0
 40
0
 40
0
 40
0
 40
0
 40
1
 40
1
 40
1
 40
1
 10
-246.916332
 20
96.235820
 30
0.0
 10
-247.541251
 20
92.900671
 30
0.0
 10
-248.148009
 20
89.923421
 30
0.0
 10
-248.264604
 20
89.619583
 30
0.0
  0
SPLINE
  5
1e8
100
AcDbEntity
  8
Layer_1
 62
7
100
AcDbSpline
 70
8
 71
3
 72
8
 73
4
 74
0
 40
0
 40
0
 40
0
 40
0
 40
1
 40
1
 40
1
 40
1
 10
-248.264604
 20
89.619583
 30
0.0
 10
-248.381195
 20
89.315749
 30
0.0
 10
-248.155564
 20
88.746563
 30
0.0
 10
-247.763549
 20
88.354545
 30
0.0
  0
SPLINE
  5
1e9
100
AcDbEntity
  8
Layer_1
 62
7
100
AcDbSpline
 70
8
 71
3
 72
8
 73
4
 74
0
 40
0
 40
0
 40
0
 40
0
 40
1
 40
1
 40
1
 40
1
 10
-247.763549
 20
88.354545
 30
0.0
 10
-246.869509
 20
87.460501
 30
0.0
 10
-240.911753
 20
87.329596
 30
0.0
 10
-240.211350
 20
88.188629
 30
0.0
  0
SPLINE
  5
1ea
100
AcDbEntity
  8
Layer_1
 62
7
100
AcDbSpline
 70
8
 71
3
 72
8
 73
4
 74
0
 40
0
 40
0
 40
0
 40
0
 40
1
 40
1
 40
1
 40
1
 10
-240.211350
 20
88.188629
 30
0.0
 10
-239.966082
 20
88.489450
 30
0.0
 10
-239.513793
 20
89.584153
 30
0.0
 10
-239.205934
 20
90.621142
 30
0.0
  0
SPLINE
  5
1eb
100
AcDbEntity
  8
Layer_1
 62
7
100
AcDbSpline
 70
8
 71
3
 72
8
 73
4
 74
0
 40
0
 40
0
 40
0
 40
0
 40
1
 40
1
 40
1
 40
1
 10
-239.205934
 20
90.621142
 30
0.0
 10
-238.532862
 20
92.888332
 30
0.0
 10
-237.675917
 20
93.419150
 30
0.0
 10
-234.974254
 20
93.243825
 30
0.0
  0
LWPOLYLINE
  5
1ec
100
AcDbEntity
  8
Layer_1
 62
7
100
AcDbPolyline
 90
2
 70
0
 10
-162.039653
 20
128.334740
 30
0.0
 10
-162.039653
 20
128.334740
 30
0.0
  0
SPLINE
  5
1ed
100
AcDbEntity
  8
Layer_1
 62
7
100
AcDbSpline
 70
8
 71
3
 72
8
 73
4
 74
0
 40
0
 40
0
 40
0
 40
0
 40
1
 40
1
 40
1
 40
1
 10
-232.254558
 20
90.839974
 30
0.0
 10
-231.883768
 20
89.590932
 30
0.0
 10
-231.418503
 20
88.411873
 30
0.0
 10
-231.220478
 20
88.219496
 30
0.0
  0
SPLINE
  5
1ee
100
AcDbEntity
  8
Layer_1
 62
7
100
AcDbSpline
 70
8
 71
3
 72
8
 73
4
 74
0
 40
0
 40
0
 40
0
 40
0
 40
1
 40
1
 40
1
 40
1
 10
-231.220478
 20
88.219496
 30
0.0
 10
-230.705849
 20
87.719542
 30
0.0
 10
-224.727468
 20
87.656350
 30
0.0
 10
-223.813799
 20
88.141224
 30
0.0
  0
SPLINE
  5
1ef
100
AcDbEntity
  8
Layer_1
 62
7
100
AcDbSpline
 70
8
 71
3
 72
8
 73
4
 74
0
 40
0
 40
0
 40
0
 40
0
 40
1
 40
1
 40
1
 40
1
 10
-223.813799
 20
88.141224
 30
0.0
 10
-223.392650
 20
88.364725
 30
0.0
 10
-223.048158
 20
89.033117
 30
0.0
 10
-223.048158
 20
89.626749
 30
0.0
  0
SPLINE
  5
1f0
100
AcDbEntity
  8
Layer_1
 62
7
100
AcDbSpline
 70
8
 71
3
 72
8
 73
4
 74
0
 40
0
 40
0
 40
0
 40
0
 40
1
 40
1
 40
1
 40
1
 10
-223.048158
 20
89.626749
 30
0.0
 10
-223.048158
 20
91.004420
 30
0.0
 10
-224.756780
 20
99.830640
 30
0.0
 10
-225.247508
 20
100.987297
 30
0.0
  0
SPLINE
  5
1f1
100
AcDbEntity
  8
Layer_1
 62
7
100
AcDbSpline
 70
8
 71
3
 72
8
 73
4
 74
0
 40
0
 40
0
 40
0
 40
0
 40
1
 40
1
 40
1
 40
1
 10
-225.247508
 20
100.987297
 30
0.0
 10
-225.451712
 20
101.468610
 30
0.0
 10
-226.329378
 20
105.997043
 30
0.0
 10
-227.197708
 20
111.050833
 30
0.0
  0
SPLINE
  5
1f2
100
AcDbEntity
  8
Layer_1
 62
7
100
AcDbSpline
 70
8
 71
3
 72
8
 73
4
 74
0
 40
0
 40
0
 40
0
 40
0
 40
1
 40
1
 40
1
 40
1
 10
-227.197708
 20
111.050833
 30
0.0
 10
-229.807612
 20
126.240843
 30
0.0
 10
-229.968281
 20
127.053937
 30
0.0
 10
-230.479092
 20
127.669424
 30
0.0
  0
SPLINE
  5
1f3
100
AcDbEntity
  8
Layer_1
 62
7
100
AcDbSpline
 70
8
 71
3
 72
8
 73
4
 74
0
 40
0
 40
0
 40
0
 40
0
 40
1
 40
1
 40
1
 40
1
 10
-230.479092
 20
127.669424
 30
0.0
 10
-230.821495
 20
128.081996
 30
0.0
 10
-232.654213
 20
128.292077
 30
0.0
 10
-234.680455
 20
128.317101
 30
0.0
  0
LWPOLYLINE
  5
1f4
100
AcDbEntity
  8
Layer_1
 62
7
100
AcDbPolyline
 90
3
 70
0
 10
-234.974254
 20
93.243825
 30
0.0
 10
-232.928693
 20
93.110980
 30
0.0
 10
-232.254558
 20
90.839974
 30
0.0
  0
SPLINE
  5
1f5
100
AcDbEntity
  8
Layer_1
 62
7
100
AcDbSpline
 70
8
 71
3
 72
8
 73
4
 74
0
 40
0
 40
0
 40
0
 40
0
 40
1
 40
1
 40
1
 40
1
 10
-236.856654
 20
120.020759
 30
0.0
 10
-236.240811
 20
120.020759
 30
0.0
 10
-235.737135
 20
119.945450
 30
0.0
 10
-235.737135
 20
119.853189
 30
0.0
  0
SPLINE
  5
1f6
100
AcDbEntity
  8
Layer_1
 62
7
100
AcDbSpline
 70
8
 71
3
 72
8
 73
4
 74
0
 40
0
 40
0
 40
0
 40
0
 40
1
 40
1
 40
1
 40
1
 10
-235.737135
 20
119.853189
 30
0.0
 10
-235.737135
 20
119.464758
 30
0.0
 10
-237.507261
 20
119.261711
 30
0.0
 10
-237.731433
 20
119.624437
 30
0.0
  0
SPLINE
  5
1f7
100
AcDbEntity
  8
Layer_1
 62
7
100
AcDbSpline
 70
8
 71
3
 72
8
 73
4
 74
0
 40
0
 40
0
 40
0
 40
0
 40
1
 40
1
 40
1
 40
1
 10
-237.731433
 20
119.624437
 30
0.0
 10
-237.866205
 20
119.842501
 30
0.0
 10
-237.472499
 20
120.020759
 30
0.0
 10
-236.856654
 20
120.020759
 30
0.0
  0
LWPOLYLINE
  5
1f8
100
AcDbEntity
  8
Layer_1
 62
7
100
AcDbPolyline
 90
2
 70
0
 10
-234.680455
 20
128.317101
 30
0.0
 10
-234.680455
 20
128.317101
 30
0.0
  0
SPLINE
  5
1f9
100
AcDbEntity
  8
Layer_1
 62
7
100
AcDbSpline
 70
8
 71
3
 72
8
 73
4
 74
0
 40
0
 40
0
 40
0
 40
0
 40
1
 40
1
 40
1
 40
1
 10
-163.576440
 20
115.154079
 30
0.0
 10
-163.424435
 20
115.147822
 30
0.0
 10
-163.293606
 20
115.107163
 30
0.0
 10
-163.220908
 20
115.034465
 30
0.0
  0
SPLINE
  5
1fa
100
AcDbEntity
  8
Layer_1
 62
7
100
AcDbSpline
 70
8
 71
3
 72
8
 73
4
 74
0
 40
0
 40
0
 40
0
 40
0
 40
1
 40
1
 40
1
 40
1
 10
-163.220908
 20
115.034465
 30
0.0
 10
-163.075510
 20
114.889070
 30
0.0
 10
-163.334017
 20
114.785615
 30
0.0
 10
-163.795273
 20
114.804609
 30
0.0
  0
SPLINE
  5
1fb
100
AcDbEntity
  8
Layer_1
 62
7
100
AcDbSpline
 70
8
 71
3
 72
8
 73
4
 74
0
 40
0
 40
0
 40
0
 40
0
 40
1
 40
1
 40
1
 40
1
 10
-163.795273
 20
114.804609
 30
0.0
 10
-164.305005
 20
114.825604
 30
0.0
 10
-164.408911
 20
114.929515
 30
0.0
 10
-164.059856
 20
115.069192
 30
0.0
  0
SPLINE
  5
1fc
100
AcDbEntity
  8
Layer_1
 62
7
100
AcDbSpline
 70
8
 71
3
 72
8
 73
4
 74
0
 40
0
 40
0
 40
0
 40
0
 40
1
 40
1
 40
1
 40
1
 10
-164.059856
 20
115.069192
 30
0.0
 10
-163.901927
 20
115.132402
 30
0.0
 10
-163.728448
 20
115.160339
 30
0.0
 10
-163.576440
 20
115.154079
 30
0.0
  0
LWPOLYLINE
  5
1fd
100
AcDbEntity
  8
Layer_1
 62
7
100
AcDbPolyline
 90
2
 70
0
 10
-236.856654
 20
120.020759
 30
0.0
 10
-236.856654
 20
120.020759
 30
0.0
  0
SPLINE
  5
1fe
100
AcDbEntity
  8
Layer_1
 62
7
100
AcDbSpline
 70
8
 71
3
 72
8
 73
4
 74
0
 40
0
 40
0
 40
0
 40
0
 40
1
 40
1
 40
1
 40
1
 10
-235.327582
 20
113.822343
 30
0.0
 10
-234.846834
 20
113.863381
 30
0.0
 10
-234.487491
 20
113.124266
 30
0.0
 10
-234.252714
 20
111.608662
 30
0.0
  0
SPLINE
  5
1ff
100
AcDbEntity
  8
Layer_1
 62
7
100
AcDbSpline
 70
8
 71
3
 72
8
 73
4
 74
0
 40
0
 40
0
 40
0
 40
0
 40
1
 40
1
 40
1
 40
1
 10
-234.252714
 20
111.608662
 30
0.0
 10
-234.093368
 20
110.580005
 30
0.0
 10
-233.888607
 20
109.245870
 30
0.0
 10
-233.797410
 20
108.644228
 30
0.0
  0
SPLINE
  5
200
100
AcDbEntity
  8
Layer_1
 62
7
100
AcDbSpline
 70
8
 71
3
 72
8
 73
4
 74
0
 40
0
 40
0
 40
0
 40
0
 40
1
 40
1
 40
1
 40
1
 10
-233.797410
 20
108.644228
 30
0.0
 10
-233.440828
 20
106.291774
 30
0.0
 10
-233.379656
 20
101.396248
 30
0.0
 10
-233.700396
 20
100.877603
 30
0.0
  0
SPLINE
  5
201
100
AcDbEntity
  8
Layer_1
 62
7
100
AcDbSpline
 70
8
 71
3
 72
8
 73
4
 74
0
 40
0
 40
0
 40
0
 40
0
 40
1
 40
1
 40
1
 40
1
 10
-233.700396
 20
100.877603
 30
0.0
 10
-233.886423
 20
100.576785
 30
0.0
 10
-234.881838
 20
100.330797
 30
0.0
 10
-235.912423
 20
100.330797
 30
0.0
  0
LWPOLYLINE
  5
202
100
AcDbEntity
  8
Layer_1
 62
7
100
AcDbPolyline
 90
2
 70
0
 10
-163.576440
 20
115.154079
 30
0.0
 10
-163.576440
 20
115.154079
 30
0.0
  0
SPLINE
  5
203
100
AcDbEntity
  8
Layer_1
 62
7
100
AcDbSpline
 70
8
 71
3
 72
8
 73
4
 74
0
 40
0
 40
0
 40
0
 40
0
 40
1
 40
1
 40
1
 40
1
 10
-237.866479
 20
102.608971
 30
0.0
 10
-237.910830
 20
103.862035
 30
0.0
 10
-238.148681
 20
105.011899
 30
0.0
 10
-238.394545
 20
105.163853
 30
0.0
  0
SPLINE
  5
204
100
AcDbEntity
  8
Layer_1
 62
7
100
AcDbSpline
 70
8
 71
3
 72
8
 73
4
 74
0
 40
0
 40
0
 40
0
 40
0
 40
1
 40
1
 40
1
 40
1
 10
-238.394545
 20
105.163853
 30
0.0
 10
-238.672737
 20
105.335783
 30
0.0
 10
-238.585468
 20
105.652024
 30
0.0
 10
-238.164136
 20
106.001703
 30
0.0
  0
SPLINE
  5
205
100
AcDbEntity
  8
Layer_1
 62
7
100
AcDbSpline
 70
8
 71
3
 72
8
 73
4
 74
0
 40
0
 40
0
 40
0
 40
0
 40
1
 40
1
 40
1
 40
1
 10
-238.164136
 20
106.001703
 30
0.0
 10
-237.783816
 20
106.317337
 30
0.0
 10
-237.484130
 20
107.259265
 30
0.0
 10
-237.480630
 20
108.150890
 30
0.0
  0
SPLINE
  5
206
100
AcDbEntity
  8
Layer_1
 62
7
100
AcDbSpline
 70
8
 71
3
 72
8
 73
4
 74
0
 40
0
 40
0
 40
0
 40
0
 40
1
 40
1
 40
1
 40
1
 10
-237.480630
 20
108.150890
 30
0.0
 10
-237.473425
 20
109.887223
 30
0.0
 10
-236.596253
 20
112.773055
 30
0.0
 10
-235.848480
 20
113.520828
 30
0.0
  0
SPLINE
  5
207
100
AcDbEntity
  8
Layer_1
 62
7
100
AcDbSpline
 70
8
 71
3
 72
8
 73
4
 74
0
 40
0
 40
0
 40
0
 40
0
 40
1
 40
1
 40
1
 40
1
 10
-235.848480
 20
113.520828
 30
0.0
 10
-235.661330
 20
113.707981
 30
0.0
 10
-235.487831
 20
113.808664
 30
0.0
 10
-235.327582
 20
113.822343
 30
0.0
  0
LWPOLYLINE
  5
208
100
AcDbEntity
  8
Layer_1
 62
7
100
AcDbPolyline
 90
3
 70
0
 10
-235.912423
 20
100.330797
 30
0.0
 10
-237.786003
 20
100.330797
 30
0.0
 10
-237.866479
 20
102.608971
 30
0.0
  0
SPLINE
  5
209
100
AcDbEntity
  8
Layer_1
 62
7
100
AcDbSpline
 70
8
 71
3
 72
8
 73
4
 74
0
 40
0
 40
0
 40
0
 40
0
 40
1
 40
1
 40
1
 40
1
 10
-158.748346
 20
111.453770
 30
0.0
 10
-158.621140
 20
111.459663
 30
0.0
 10
-158.466951
 20
111.442933
 30
0.0
 10
-158.289185
 20
111.396445
 30
0.0
  0
SPLINE
  5
20a
100
AcDbEntity
  8
Layer_1
 62
7
100
AcDbSpline
 70
8
 71
3
 72
8
 73
4
 74
0
 40
0
 40
0
 40
0
 40
0
 40
1
 40
1
 40
1
 40
1
 10
-158.289185
 20
111.396445
 30
0.0
 10
-157.807872
 20
111.270577
 30
0.0
 10
-157.414406
 20
110.993875
 30
0.0
 10
-157.414406
 20
110.781289
 30
0.0
  0
SPLINE
  5
20b
100
AcDbEntity
  8
Layer_1
 62
7
100
AcDbSpline
 70
8
 71
3
 72
8
 73
4
 74
0
 40
0
 40
0
 40
0
 40
0
 40
1
 40
1
 40
1
 40
1
 10
-157.414406
 20
110.781289
 30
0.0
 10
-157.414406
 20
110.364130
 30
0.0
 10
-157.755641
 20
110.336424
 30
0.0
 10
-158.617708
 20
110.684275
 30
0.0
  0
SPLINE
  5
20c
100
AcDbEntity
  8
Layer_1
 62
7
100
AcDbSpline
 70
8
 71
3
 72
8
 73
4
 74
0
 40
0
 40
0
 40
0
 40
0
 40
1
 40
1
 40
1
 40
1
 10
-158.617708
 20
110.684275
 30
0.0
 10
-159.345520
 20
110.977955
 30
0.0
 10
-159.299580
 20
111.428246
 30
0.0
 10
-158.748346
 20
111.453770
 30
0.0
  0
LWPOLYLINE
  5
20d
100
AcDbEntity
  8
Layer_1
 62
7
100
AcDbPolyline
 90
2
 70
0
 10
-235.327582
 20
113.822343
 30
0.0
 10
-235.327582
 20
113.822343
 30
0.0
  0
SPLINE
  5
20e
100
AcDbEntity
  8
Layer_1
 62
7
100
AcDbSpline
 70
8
 71
3
 72
8
 73
4
 74
0
 40
0
 40
0
 40
0
 40
0
 40
1
 40
1
 40
1
 40
1
 10
-163.347135
 20
110.832001
 30
0.0
 10
-163.000351
 20
110.832001
 30
0.0
 10
-162.594631
 20
110.635543
 30
0.0
 10
-162.445898
 20
110.394887
 30
0.0
  0
SPLINE
  5
20f
100
AcDbEntity
  8
Layer_1
 62
7
100
AcDbSpline
 70
8
 71
3
 72
8
 73
4
 74
0
 40
0
 40
0
 40
0
 40
0
 40
1
 40
1
 40
1
 40
1
 10
-162.445898
 20
110.394887
 30
0.0
 10
-162.297164
 20
110.154230
 30
0.0
 10
-162.580972
 20
109.957222
 30
0.0
 10
-163.076489
 20
109.957222
 30
0.0
  0
SPLINE
  5
210
100
AcDbEntity
  8
Layer_1
 62
7
100
AcDbSpline
 70
8
 71
3
 72
8
 73
4
 74
0
 40
0
 40
0
 40
0
 40
0
 40
1
 40
1
 40
1
 40
1
 10
-163.076489
 20
109.957222
 30
0.0
 10
-163.572004
 20
109.957222
 30
0.0
 10
-163.977726
 20
110.154230
 30
0.0
 10
-163.977726
 20
110.394887
 30
0.0
  0
SPLINE
  5
211
100
AcDbEntity
  8
Layer_1
 62
7
100
AcDbSpline
 70
8
 71
3
 72
8
 73
4
 74
0
 40
0
 40
0
 40
0
 40
0
 40
1
 40
1
 40
1
 40
1
 10
-163.977726
 20
110.394887
 30
0.0
 10
-163.977726
 20
110.635543
 30
0.0
 10
-163.693915
 20
110.832001
 30
0.0
 10
-163.347135
 20
110.832001
 30
0.0
  0
LWPOLYLINE
  5
212
100
AcDbEntity
  8
Layer_1
 62
7
100
AcDbPolyline
 90
2
 70
0
 10
-158.748346
 20
111.453770
 30
0.0
 10
-158.748346
 20
111.453770
 30
0.0
  0
SPLINE
  5
213
100
AcDbEntity
  8
Layer_1
 62
7
100
AcDbSpline
 70
8
 71
3
 72
8
 73
4
 74
0
 40
0
 40
0
 40
0
 40
0
 40
1
 40
1
 40
1
 40
1
 10
-165.264262
 20
109.957222
 30
0.0
 10
-165.037810
 20
109.957222
 30
0.0
 10
-164.852505
 20
109.760214
 30
0.0
 10
-164.852505
 20
109.519558
 30
0.0
  0
SPLINE
  5
214
100
AcDbEntity
  8
Layer_1
 62
7
100
AcDbSpline
 70
8
 71
3
 72
8
 73
4
 74
0
 40
0
 40
0
 40
0
 40
0
 40
1
 40
1
 40
1
 40
1
 10
-164.852505
 20
109.519558
 30
0.0
 10
-164.852505
 20
109.278901
 30
0.0
 10
-165.159724
 20
109.081893
 30
0.0
 10
-165.534910
 20
109.081893
 30
0.0
  0
SPLINE
  5
215
100
AcDbEntity
  8
Layer_1
 62
7
100
AcDbSpline
 70
8
 71
3
 72
8
 73
4
 74
0
 40
0
 40
0
 40
0
 40
0
 40
1
 40
1
 40
1
 40
1
 10
-165.534910
 20
109.081893
 30
0.0
 10
-165.910108
 20
109.081893
 30
0.0
 10
-166.095401
 20
109.278901
 30
0.0
 10
-165.946667
 20
109.519558
 30
0.0
  0
SPLINE
  5
216
100
AcDbEntity
  8
Layer_1
 62
7
100
AcDbSpline
 70
8
 71
3
 72
8
 73
4
 74
0
 40
0
 40
0
 40
0
 40
0
 40
1
 40
1
 40
1
 40
1
 10
-165.946667
 20
109.519558
 30
0.0
 10
-165.797933
 20
109.760214
 30
0.0
 10
-165.490717
 20
109.957222
 30
0.0
 10
-165.264262
 20
109.957222
 30
0.0
  0
LWPOLYLINE
  5
217
100
AcDbEntity
  8
Layer_1
 62
7
100
AcDbPolyline
 90
2
 70
0
 10
-163.347135
 20
110.832001
 30
0.0
 10
-163.347135
 20
110.832001
 30
0.0
  0
SPLINE
  5
218
100
AcDbEntity
  8
Layer_1
 62
7
100
AcDbSpline
 70
8
 71
3
 72
8
 73
4
 74
0
 40
0
 40
0
 40
0
 40
0
 40
1
 40
1
 40
1
 40
1
 10
-160.095517
 20
109.943441
 30
0.0
 10
-159.497237
 20
109.931749
 30
0.0
 10
-159.519219
 20
109.826646
 30
0.0
 10
-160.232770
 20
109.286944
 30
0.0
  0
SPLINE
  5
219
100
AcDbEntity
  8
Layer_1
 62
7
100
AcDbSpline
 70
8
 71
3
 72
8
 73
4
 74
0
 40
0
 40
0
 40
0
 40
0
 40
1
 40
1
 40
1
 40
1
 10
-160.232770
 20
109.286944
 30
0.0
 10
-161.338285
 20
108.450779
 30
0.0
 10
-162.050439
 20
108.459497
 30
0.0
 10
-161.352286
 20
109.300725
 30
0.0
  0
SPLINE
  5
21a
100
AcDbEntity
  8
Layer_1
 62
7
100
AcDbSpline
 70
8
 71
3
 72
8
 73
4
 74
0
 40
0
 40
0
 40
0
 40
0
 40
1
 40
1
 40
1
 40
1
 10
-161.352286
 20
109.300725
 30
0.0
 10
-161.052693
 20
109.661710
 30
0.0
 10
-160.487199
 20
109.951090
 30
0.0
 10
-160.095517
 20
109.943441
 30
0.0
  0
LWPOLYLINE
  5
21b
100
AcDbEntity
  8
Layer_1
 62
7
100
AcDbPolyline
 90
2
 70
0
 10
-165.264262
 20
109.957222
 30
0.0
 10
-165.264262
 20
109.957222
 30
0.0
  0
SPLINE
  5
21c
100
AcDbEntity
  8
Layer_1
 62
7
100
AcDbSpline
 70
8
 71
3
 72
8
 73
4
 74
0
 40
0
 40
0
 40
0
 40
0
 40
1
 40
1
 40
1
 40
1
 10
-173.797076
 20
109.081893
 30
0.0
 10
-173.690952
 20
109.081893
 30
0.0
 10
-173.604149
 20
108.884885
 30
0.0
 10
-173.604149
 20
108.644228
 30
0.0
  0
SPLINE
  5
21d
100
AcDbEntity
  8
Layer_1
 62
7
100
AcDbSpline
 70
8
 71
3
 72
8
 73
4
 74
0
 40
0
 40
0
 40
0
 40
0
 40
1
 40
1
 40
1
 40
1
 10
-173.604149
 20
108.644228
 30
0.0
 10
-173.604149
 20
108.403572
 30
0.0
 10
-173.812313
 20
108.207114
 30
0.0
 10
-174.067171
 20
108.207114
 30
0.0
  0
SPLINE
  5
21e
100
AcDbEntity
  8
Layer_1
 62
7
100
AcDbSpline
 70
8
 71
3
 72
8
 73
4
 74
0
 40
0
 40
0
 40
0
 40
0
 40
1
 40
1
 40
1
 40
1
 10
-174.067171
 20
108.207114
 30
0.0
 10
-174.322032
 20
108.207114
 30
0.0
 10
-174.408829
 20
108.403572
 30
0.0
 10
-174.260095
 20
108.644228
 30
0.0
  0
SPLINE
  5
21f
100
AcDbEntity
  8
Layer_1
 62
7
100
AcDbSpline
 70
8
 71
3
 72
8
 73
4
 74
0
 40
0
 40
0
 40
0
 40
0
 40
1
 40
1
 40
1
 40
1
 10
-174.260095
 20
108.644228
 30
0.0
 10
-174.111361
 20
108.884885
 30
0.0
 10
-173.903203
 20
109.081893
 30
0.0
 10
-173.797076
 20
109.081893
 30
0.0
  0
LWPOLYLINE
  5
220
100
AcDbEntity
  8
Layer_1
 62
7
100
AcDbPolyline
 90
2
 70
0
 10
-160.095517
 20
109.943441
 30
0.0
 10
-160.095517
 20
109.943441
 30
0.0
  0
SPLINE
  5
221
100
AcDbEntity
  8
Layer_1
 62
7
100
AcDbSpline
 70
8
 71
3
 72
8
 73
4
 74
0
 40
0
 40
0
 40
0
 40
0
 40
1
 40
1
 40
1
 40
1
 10
-167.014923
 20
109.081893
 30
0.0
 10
-166.760062
 20
109.081893
 30
0.0
 10
-166.673262
 20
108.884885
 30
0.0
 10
-166.821996
 20
108.644228
 30
0.0
  0
SPLINE
  5
222
100
AcDbEntity
  8
Layer_1
 62
7
100
AcDbSpline
 70
8
 71
3
 72
8
 73
4
 74
0
 40
0
 40
0
 40
0
 40
0
 40
1
 40
1
 40
1
 40
1
 10
-166.821996
 20
108.644228
 30
0.0
 10
-166.970730
 20
108.403572
 30
0.0
 10
-167.178891
 20
108.207114
 30
0.0
 10
-167.285018
 20
108.207114
 30
0.0
  0
SPLINE
  5
223
100
AcDbEntity
  8
Layer_1
 62
7
100
AcDbSpline
 70
8
 71
3
 72
8
 73
4
 74
0
 40
0
 40
0
 40
0
 40
0
 40
1
 40
1
 40
1
 40
1
 10
-167.285018
 20
108.207114
 30
0.0
 10
-167.391142
 20
108.207114
 30
0.0
 10
-167.477942
 20
108.403572
 30
0.0
 10
-167.477942
 20
108.644228
 30
0.0
  0
SPLINE
  5
224
100
AcDbEntity
  8
Layer_1
 62
7
100
AcDbSpline
 70
8
 71
3
 72
8
 73
4
 74
0
 40
0
 40
0
 40
0
 40
0
 40
1
 40
1
 40
1
 40
1
 10
-167.477942
 20
108.644228
 30
0.0
 10
-167.477942
 20
108.884885
 30
0.0
 10
-167.269781
 20
109.081893
 30
0.0
 10
-167.014923
 20
109.081893
 30
0.0
  0
LWPOLYLINE
  5
225
100
AcDbEntity
  8
Layer_1
 62
7
100
AcDbPolyline
 90
2
 70
0
 10
-173.797076
 20
109.081893
 30
0.0
 10
-173.797076
 20
109.081893
 30
0.0
  0
SPLINE
  5
226
100
AcDbEntity
  8
Layer_1
 62
7
100
AcDbSpline
 70
8
 71
3
 72
8
 73
4
 74
0
 40
0
 40
0
 40
0
 40
0
 40
1
 40
1
 40
1
 40
1
 10
-166.603164
 20
107.769450
 30
0.0
 10
-166.362507
 20
107.769450
 30
0.0
 10
-166.165499
 20
107.572442
 30
0.0
 10
-166.165499
 20
107.331785
 30
0.0
  0
SPLINE
  5
227
100
AcDbEntity
  8
Layer_1
 62
7
100
AcDbSpline
 70
8
 71
3
 72
8
 73
4
 74
0
 40
0
 40
0
 40
0
 40
0
 40
1
 40
1
 40
1
 40
1
 10
-166.165499
 20
107.331785
 30
0.0
 10
-166.165499
 20
107.091129
 30
0.0
 10
-166.362507
 20
106.894118
 30
0.0
 10
-166.603164
 20
106.894118
 30
0.0
  0
SPLINE
  5
228
100
AcDbEntity
  8
Layer_1
 62
7
100
AcDbSpline
 70
8
 71
3
 72
8
 73
4
 74
0
 40
0
 40
0
 40
0
 40
0
 40
1
 40
1
 40
1
 40
1
 10
-166.603164
 20
106.894118
 30
0.0
 10
-166.843820
 20
106.894118
 30
0.0
 10
-167.040278
 20
107.091129
 30
0.0
 10
-167.040278
 20
107.331785
 30
0.0
  0
SPLINE
  5
229
100
AcDbEntity
  8
Layer_1
 62
7
100
AcDbSpline
 70
8
 71
3
 72
8
 73
4
 74
0
 40
0
 40
0
 40
0
 40
0
 40
1
 40
1
 40
1
 40
1
 10
-167.040278
 20
107.331785
 30
0.0
 10
-167.040278
 20
107.572442
 30
0.0
 10
-166.843820
 20
107.769450
 30
0.0
 10
-166.603164
 20
107.769450
 30
0.0
  0
LWPOLYLINE
  5
22a
100
AcDbEntity
  8
Layer_1
 62
7
100
AcDbPolyline
 90
2
 70
0
 10
-167.014923
 20
109.081893
 30
0.0
 10
-167.014923
 20
109.081893
 30
0.0
  0
SPLINE
  5
22b
100
AcDbEntity
  8
Layer_1
 62
7
100
AcDbSpline
 70
8
 71
3
 72
8
 73
4
 74
0
 40
0
 40
0
 40
0
 40
0
 40
1
 40
1
 40
1
 40
1
 10
-160.461523
 20
106.789938
 30
0.0
 10
-159.999313
 20
106.771450
 30
0.0
 10
-159.597056
 20
106.381709
 30
0.0
 10
-159.839753
 20
105.989023
 30
0.0
  0
SPLINE
  5
22c
100
AcDbEntity
  8
Layer_1
 62
7
100
AcDbSpline
 70
8
 71
3
 72
8
 73
4
 74
0
 40
0
 40
0
 40
0
 40
0
 40
1
 40
1
 40
1
 40
1
 10
-159.839753
 20
105.989023
 30
0.0
 10
-159.978211
 20
105.764997
 30
0.0
 10
-160.264706
 20
105.581674
 30
0.0
 10
-160.476957
 20
105.581674
 30
0.0
  0
SPLINE
  5
22d
100
AcDbEntity
  8
Layer_1
 62
7
100
AcDbSpline
 70
8
 71
3
 72
8
 73
4
 74
0
 40
0
 40
0
 40
0
 40
0
 40
1
 40
1
 40
1
 40
1
 10
-160.476957
 20
105.581674
 30
0.0
 10
-161.089746
 20
105.581674
 30
0.0
 10
-161.411135
 20
106.368448
 30
0.0
 10
-160.921787
 20
106.670877
 30
0.0
  0
SPLINE
  5
22e
100
AcDbEntity
  8
Layer_1
 62
7
100
AcDbSpline
 70
8
 71
3
 72
8
 73
4
 74
0
 40
0
 40
0
 40
0
 40
0
 40
1
 40
1
 40
1
 40
1
 10
-160.921787
 20
106.670877
 30
0.0
 10
-160.776085
 20
106.760929
 30
0.0
 10
-160.615593
 20
106.796102
 30
0.0
 10
-160.461523
 20
106.789938
 30
0.0
  0
LWPOLYLINE
  5
22f
100
AcDbEntity
  8
Layer_1
 62
7
100
AcDbPolyline
 90
2
 70
0
 10
-166.603164
 20
107.769450
 30
0.0
 10
-166.603164
 20
107.769450
 30
0.0
  0
SPLINE
  5
230
100
AcDbEntity
  8
Layer_1
 62
7
100
AcDbSpline
 70
8
 71
3
 72
8
 73
4
 74
0
 40
0
 40
0
 40
0
 40
0
 40
1
 40
1
 40
1
 40
1
 10
-165.045430
 20
106.456453
 30
0.0
 10
-164.939305
 20
106.456453
 30
0.0
 10
-164.852505
 20
106.259995
 30
0.0
 10
-164.852505
 20
106.019342
 30
0.0
  0
SPLINE
  5
231
100
AcDbEntity
  8
Layer_1
 62
7
100
AcDbSpline
 70
8
 71
3
 72
8
 73
4
 74
0
 40
0
 40
0
 40
0
 40
0
 40
1
 40
1
 40
1
 40
1
 10
-164.852505
 20
106.019342
 30
0.0
 10
-164.852505
 20
105.778682
 30
0.0
 10
-165.061217
 20
105.581674
 30
0.0
 10
-165.316075
 20
105.581674
 30
0.0
  0
SPLINE
  5
232
100
AcDbEntity
  8
Layer_1
 62
7
100
AcDbSpline
 70
8
 71
3
 72
8
 73
4
 74
0
 40
0
 40
0
 40
0
 40
0
 40
1
 40
1
 40
1
 40
1
 10
-165.316075
 20
105.581674
 30
0.0
 10
-165.570939
 20
105.581674
 30
0.0
 10
-165.657736
 20
105.778685
 30
0.0
 10
-165.509002
 20
106.019342
 30
0.0
  0
SPLINE
  5
233
100
AcDbEntity
  8
Layer_1
 62
7
100
AcDbSpline
 70
8
 71
3
 72
8
 73
4
 74
0
 40
0
 40
0
 40
0
 40
0
 40
1
 40
1
 40
1
 40
1
 10
-165.509002
 20
106.019342
 30
0.0
 10
-165.360268
 20
106.259998
 30
0.0
 10
-165.151556
 20
106.456453
 30
0.0
 10
-165.045430
 20
106.456453
 30
0.0
  0
LWPOLYLINE
  5
234
100
AcDbEntity
  8
Layer_1
 62
7
100
AcDbPolyline
 90
2
 70
0
 10
-160.461523
 20
106.789938
 30
0.0
 10
-160.461523
 20
106.789938
 30
0.0
  0
SPLINE
  5
235
100
AcDbEntity
  8
Layer_1
 62
7
100
AcDbSpline
 70
8
 71
3
 72
8
 73
4
 74
0
 40
0
 40
0
 40
0
 40
0
 40
1
 40
1
 40
1
 40
1
 10
-170.077474
 20
106.019342
 30
0.0
 10
-169.822616
 20
106.019339
 30
0.0
 10
-169.735813
 20
105.822331
 30
0.0
 10
-169.884547
 20
105.581674
 30
0.0
  0
SPLINE
  5
236
100
AcDbEntity
  8
Layer_1
 62
7
100
AcDbSpline
 70
8
 71
3
 72
8
 73
4
 74
0
 40
0
 40
0
 40
0
 40
0
 40
1
 40
1
 40
1
 40
1
 10
-169.884547
 20
105.581674
 30
0.0
 10
-170.033284
 20
105.341018
 30
0.0
 10
-170.241996
 20
105.144010
 30
0.0
 10
-170.348120
 20
105.144010
 30
0.0
  0
SPLINE
  5
237
100
AcDbEntity
  8
Layer_1
 62
7
100
AcDbSpline
 70
8
 71
3
 72
8
 73
4
 74
0
 40
0
 40
0
 40
0
 40
0
 40
1
 40
1
 40
1
 40
1
 10
-170.348120
 20
105.144010
 30
0.0
 10
-170.454247
 20
105.144010
 30
0.0
 10
-170.541047
 20
105.341018
 30
0.0
 10
-170.541047
 20
105.581674
 30
0.0
  0
SPLINE
  5
238
100
AcDbEntity
  8
Layer_1
 62
7
100
AcDbSpline
 70
8
 71
3
 72
8
 73
4
 74
0
 40
0
 40
0
 40
0
 40
0
 40
1
 40
1
 40
1
 40
1
 10
-170.541047
 20
105.581674
 30
0.0
 10
-170.541047
 20
105.822331
 30
0.0
 10
-170.332335
 20
106.019342
 30
0.0
 10
-170.077474
 20
106.019342
 30
0.0
  0
LWPOLYLINE
  5
239
100
AcDbEntity
  8
Layer_1
 62
7
100
AcDbPolyline
 90
2
 70
0
 10
-165.045430
 20
106.456453
 30
0.0
 10
-165.045430
 20
106.456453
 30
0.0
  0
SPLINE
  5
23a
100
AcDbEntity
  8
Layer_1
 62
7
100
AcDbSpline
 70
8
 71
3
 72
8
 73
4
 74
0
 40
0
 40
0
 40
0
 40
0
 40
1
 40
1
 40
1
 40
1
 10
-156.257955
 20
105.888151
 30
0.0
 10
-156.144050
 20
105.876684
 30
0.0
 10
-156.241806
 20
105.720990
 30
0.0
 10
-156.530808
 20
105.372765
 30
0.0
  0
SPLINE
  5
23b
100
AcDbEntity
  8
Layer_1
 62
7
100
AcDbSpline
 70
8
 71
3
 72
8
 73
4
 74
0
 40
0
 40
0
 40
0
 40
0
 40
1
 40
1
 40
1
 40
1
 10
-156.530808
 20
105.372765
 30
0.0
 10
-157.160948
 20
104.613497
 30
0.0
 10
-157.414406
 20
104.534477
 30
0.0
 10
-157.414406
 20
105.097158
 30
0.0
  0
SPLINE
  5
23c
100
AcDbEntity
  8
Layer_1
 62
7
100
AcDbSpline
 70
8
 71
3
 72
8
 73
4
 74
0
 40
0
 40
0
 40
0
 40
0
 40
1
 40
1
 40
1
 40
1
 10
-157.414406
 20
105.097158
 30
0.0
 10
-157.414406
 20
105.312070
 30
0.0
 10
-157.091197
 20
105.611993
 30
0.0
 10
-156.696173
 20
105.763575
 30
0.0
  0
SPLINE
  5
23d
100
AcDbEntity
  8
Layer_1
 62
7
100
AcDbSpline
 70
8
 71
3
 72
8
 73
4
 74
0
 40
0
 40
0
 40
0
 40
0
 40
1
 40
1
 40
1
 40
1
 10
-156.696173
 20
105.763575
 30
0.0
 10
-156.470971
 20
105.849994
 30
0.0
 10
-156.326298
 20
105.895031
 30
0.0
 10
-156.257955
 20
105.888151
 30
0.0
  0
LWPOLYLINE
  5
23e
100
AcDbEntity
  8
Layer_1
 62
7
100
AcDbPolyline
 90
2
 70
0
 10
-170.077474
 20
106.019342
 30
0.0
 10
-170.077474
 20
106.019342
 30
0.0
  0
SPLINE
  5
23f
100
AcDbEntity
  8
Layer_1
 62
7
100
AcDbSpline
 70
8
 71
3
 72
8
 73
4
 74
0
 40
0
 40
0
 40
0
 40
0
 40
1
 40
1
 40
1
 40
1
 10
-153.825993
 20
105.801060
 30
0.0
 10
-152.976859
 20
105.821447
 30
0.0
 10
-152.533296
 20
105.096179
 30
0.0
 10
-153.117132
 20
104.392703
 30
0.0
  0
SPLINE
  5
240
100
AcDbEntity
  8
Layer_1
 62
7
100
AcDbSpline
 70
8
 71
3
 72
8
 73
4
 74
0
 40
0
 40
0
 40
0
 40
0
 40
1
 40
1
 40
1
 40
1
 10
-153.117132
 20
104.392703
 30
0.0
 10
-153.512548
 20
103.916284
 30
0.0
 10
-154.717409
 20
103.597026
 30
0.0
 10
-154.822590
 20
103.940707
 30
0.0
  0
SPLINE
  5
241
100
AcDbEntity
  8
Layer_1
 62
7
100
AcDbSpline
 70
8
 71
3
 72
8
 73
4
 74
0
 40
0
 40
0
 40
0
 40
0
 40
1
 40
1
 40
1
 40
1
 10
-154.822590
 20
103.940707
 30
0.0
 10
-155.162544
 20
105.051517
 30
0.0
 10
-154.997401
 20
105.539149
 30
0.0
 10
-154.212948
 20
105.744285
 30
0.0
  0
SPLINE
  5
242
100
AcDbEntity
  8
Layer_1
 62
7
100
AcDbSpline
 70
8
 71
3
 72
8
 73
4
 74
0
 40
0
 40
0
 40
0
 40
0
 40
1
 40
1
 40
1
 40
1
 10
-154.212948
 20
105.744285
 30
0.0
 10
-154.076902
 20
105.779859
 30
0.0
 10
-153.947300
 20
105.798147
 30
0.0
 10
-153.825993
 20
105.801060
 30
0.0
  0
LWPOLYLINE
  5
243
100
AcDbEntity
  8
Layer_1
 62
7
100
AcDbPolyline
 90
2
 70
0
 10
-156.257955
 20
105.888151
 30
0.0
 10
-156.257955
 20
105.888151
 30
0.0
  0
SPLINE
  5
244
100
AcDbEntity
  8
Layer_1
 62
7
100
AcDbSpline
 70
8
 71
3
 72
8
 73
4
 74
0
 40
0
 40
0
 40
0
 40
0
 40
1
 40
1
 40
1
 40
1
 10
-165.071338
 20
104.706345
 30
0.0
 10
-164.419066
 20
104.706345
 30
0.0
 10
-164.042575
 20
104.517824
 30
0.0
 10
-164.196559
 20
104.268681
 30
0.0
  0
SPLINE
  5
245
100
AcDbEntity
  8
Layer_1
 62
7
100
AcDbSpline
 70
8
 71
3
 72
8
 73
4
 74
0
 40
0
 40
0
 40
0
 40
0
 40
1
 40
1
 40
1
 40
1
 10
-164.196559
 20
104.268681
 30
0.0
 10
-164.345293
 20
104.028024
 30
0.0
 10
-164.738758
 20
103.831566
 30
0.0
 10
-165.071338
 20
103.831566
 30
0.0
  0
SPLINE
  5
246
100
AcDbEntity
  8
Layer_1
 62
7
100
AcDbSpline
 70
8
 71
3
 72
8
 73
4
 74
0
 40
0
 40
0
 40
0
 40
0
 40
1
 40
1
 40
1
 40
1
 10
-165.071338
 20
103.831566
 30
0.0
 10
-165.403917
 20
103.831566
 30
0.0
 10
-165.797933
 20
104.028024
 30
0.0
 10
-165.946667
 20
104.268681
 30
0.0
  0
SPLINE
  5
247
100
AcDbEntity
  8
Layer_1
 62
7
100
AcDbSpline
 70
8
 71
3
 72
8
 73
4
 74
0
 40
0
 40
0
 40
0
 40
0
 40
1
 40
1
 40
1
 40
1
 10
-165.946667
 20
104.268681
 30
0.0
 10
-166.100647
 20
104.517824
 30
0.0
 10
-165.723610
 20
104.706345
 30
0.0
 10
-165.071338
 20
104.706345
 30
0.0
  0
LWPOLYLINE
  5
248
100
AcDbEntity
  8
Layer_1
 62
7
100
AcDbPolyline
 90
2
 70
0
 10
-153.825993
 20
105.801060
 30
0.0
 10
-153.825993
 20
105.801060
 30
0.0
  0
SPLINE
  5
249
100
AcDbEntity
  8
Layer_1
 62
7
100
AcDbSpline
 70
8
 71
3
 72
8
 73
4
 74
0
 40
0
 40
0
 40
0
 40
0
 40
1
 40
1
 40
1
 40
1
 10
-169.858642
 20
103.831566
 30
0.0
 10
-169.752518
 20
103.831566
 30
0.0
 10
-169.665715
 20
103.634561
 30
0.0
 10
-169.665715
 20
103.393902
 30
0.0
  0
SPLINE
  5
24a
100
AcDbEntity
  8
Layer_1
 62
7
100
AcDbSpline
 70
8
 71
3
 72
8
 73
4
 74
0
 40
0
 40
0
 40
0
 40
0
 40
1
 40
1
 40
1
 40
1
 10
-169.665715
 20
103.393902
 30
0.0
 10
-169.665715
 20
103.153245
 30
0.0
 10
-169.874430
 20
102.956237
 30
0.0
 10
-170.129287
 20
102.956237
 30
0.0
  0
SPLINE
  5
24b
100
AcDbEntity
  8
Layer_1
 62
7
100
AcDbSpline
 70
8
 71
3
 72
8
 73
4
 74
0
 40
0
 40
0
 40
0
 40
0
 40
1
 40
1
 40
1
 40
1
 10
-170.129287
 20
102.956237
 30
0.0
 10
-170.384148
 20
102.956237
 30
0.0
 10
-170.470949
 20
103.153245
 30
0.0
 10
-170.322215
 20
103.393902
 30
0.0
  0
SPLINE
  5
24c
100
AcDbEntity
  8
Layer_1
 62
7
100
AcDbSpline
 70
8
 71
3
 72
8
 73
4
 74
0
 40
0
 40
0
 40
0
 40
0
 40
1
 40
1
 40
1
 40
1
 10
-170.322215
 20
103.393902
 30
0.0
 10
-170.173481
 20
103.634561
 30
0.0
 10
-169.964769
 20
103.831566
 30
0.0
 10
-169.858642
 20
103.831566
 30
0.0
  0
LWPOLYLINE
  5
24d
100
AcDbEntity
  8
Layer_1
 62
7
100
AcDbPolyline
 90
2
 70
0
 10
-165.071338
 20
104.706345
 30
0.0
 10
-165.071338
 20
104.706345
 30
0.0
  0
SPLINE
  5
24e
100
AcDbEntity
  8
Layer_1
 62
7
100
AcDbSpline
 70
8
 71
3
 72
8
 73
4
 74
0
 40
0
 40
0
 40
0
 40
0
 40
1
 40
1
 40
1
 40
1
 10
-238.997575
 20
102.308007
 30
0.0
 10
-238.690585
 20
102.309234
 30
0.0
 10
-238.362575
 20
102.125364
 30
0.0
 10
-238.362575
 20
101.836718
 30
0.0
  0
SPLINE
  5
24f
100
AcDbEntity
  8
Layer_1
 62
7
100
AcDbSpline
 70
8
 71
3
 72
8
 73
4
 74
0
 40
0
 40
0
 40
0
 40
0
 40
1
 40
1
 40
1
 40
1
 10
-238.362575
 20
101.836718
 30
0.0
 10
-238.362575
 20
101.730591
 30
0.0
 10
-238.669237
 20
101.643794
 30
0.0
 10
-239.044426
 20
101.643794
 30
0.0
  0
SPLINE
  5
250
100
AcDbEntity
  8
Layer_1
 62
7
100
AcDbSpline
 70
8
 71
3
 72
8
 73
4
 74
0
 40
0
 40
0
 40
0
 40
0
 40
1
 40
1
 40
1
 40
1
 10
-239.044426
 20
101.643794
 30
0.0
 10
-239.419632
 20
101.643794
 30
0.0
 10
-239.602933
 20
101.843491
 30
0.0
 10
-239.451775
 20
102.088074
 30
0.0
  0
SPLINE
  5
251
100
AcDbEntity
  8
Layer_1
 62
7
100
AcDbSpline
 70
8
 71
3
 72
8
 73
4
 74
0
 40
0
 40
0
 40
0
 40
0
 40
1
 40
1
 40
1
 40
1
 10
-239.451775
 20
102.088074
 30
0.0
 10
-239.358114
 20
102.239618
 30
0.0
 10
-239.181767
 20
102.307273
 30
0.0
 10
-238.997575
 20
102.308007
 30
0.0
  0
LWPOLYLINE
  5
252
100
AcDbEntity
  8
Layer_1
 62
7
100
AcDbPolyline
 90
2
 70
0
 10
-169.858642
 20
103.831566
 30
0.0
 10
-169.858642
 20
103.831566
 30
0.0
  0
SPLINE
  5
253
100
AcDbEntity
  8
Layer_1
 62
7
100
AcDbSpline
 70
8
 71
3
 72
8
 73
4
 74
0
 40
0
 40
0
 40
0
 40
0
 40
1
 40
1
 40
1
 40
1
 10
-156.706093
 20
102.080908
 30
0.0
 10
-156.345131
 20
102.080908
 30
0.0
 10
-156.171508
 20
101.884450
 30
0.0
 10
-156.320242
 20
101.643794
 30
0.0
  0
SPLINE
  5
254
100
AcDbEntity
  8
Layer_1
 62
7
100
AcDbSpline
 70
8
 71
3
 72
8
 73
4
 74
0
 40
0
 40
0
 40
0
 40
0
 40
1
 40
1
 40
1
 40
1
 10
-156.320242
 20
101.643794
 30
0.0
 10
-156.468976
 20
101.403137
 30
0.0
 10
-156.886402
 20
101.206129
 30
0.0
 10
-157.247387
 20
101.206129
 30
0.0
  0
SPLINE
  5
255
100
AcDbEntity
  8
Layer_1
 62
7
100
AcDbSpline
 70
8
 71
3
 72
8
 73
4
 74
0
 40
0
 40
0
 40
0
 40
0
 40
1
 40
1
 40
1
 40
1
 10
-157.247387
 20
101.206129
 30
0.0
 10
-157.608352
 20
101.206129
 30
0.0
 10
-157.781972
 20
101.403137
 30
0.0
 10
-157.633238
 20
101.643794
 30
0.0
  0
SPLINE
  5
256
100
AcDbEntity
  8
Layer_1
 62
7
100
AcDbSpline
 70
8
 71
3
 72
8
 73
4
 74
0
 40
0
 40
0
 40
0
 40
0
 40
1
 40
1
 40
1
 40
1
 10
-157.633238
 20
101.643794
 30
0.0
 10
-157.484504
 20
101.884450
 30
0.0
 10
-157.067081
 20
102.080908
 30
0.0
 10
-156.706093
 20
102.080908
 30
0.0
  0
LWPOLYLINE
  5
257
100
AcDbEntity
  8
Layer_1
 62
7
100
AcDbPolyline
 90
2
 70
0
 10
-238.997575
 20
102.308007
 30
0.0
 10
-238.997575
 20
102.308007
 30
0.0
  0
SPLINE
  5
258
100
AcDbEntity
  8
Layer_1
 62
7
100
AcDbSpline
 70
8
 71
3
 72
8
 73
4
 74
0
 40
0
 40
0
 40
0
 40
0
 40
1
 40
1
 40
1
 40
1
 10
-231.580422
 20
102.067677
 30
0.0
 10
-231.339765
 20
102.067677
 30
0.0
 10
-230.847242
 20
101.877081
 30
0.0
 10
-230.486258
 20
101.643794
 30
0.0
  0
SPLINE
  5
259
100
AcDbEntity
  8
Layer_1
 62
7
100
AcDbSpline
 70
8
 71
3
 72
8
 73
4
 74
0
 40
0
 40
0
 40
0
 40
0
 40
1
 40
1
 40
1
 40
1
 10
-230.486258
 20
101.643794
 30
0.0
 10
-230.125273
 20
101.410506
 30
0.0
 10
-230.026769
 20
101.219357
 30
0.0
 10
-230.267425
 20
101.219357
 30
0.0
  0
SPLINE
  5
25a
100
AcDbEntity
  8
Layer_1
 62
7
100
AcDbSpline
 70
8
 71
3
 72
8
 73
4
 74
0
 40
0
 40
0
 40
0
 40
0
 40
1
 40
1
 40
1
 40
1
 10
-230.267425
 20
101.219357
 30
0.0
 10
-230.508082
 20
101.219357
 30
0.0
 10
-231.000602
 20
101.410506
 30
0.0
 10
-231.361590
 20
101.643794
 30
0.0
  0
SPLINE
  5
25b
100
AcDbEntity
  8
Layer_1
 62
7
100
AcDbSpline
 70
8
 71
3
 72
8
 73
4
 74
0
 40
0
 40
0
 40
0
 40
0
 40
1
 40
1
 40
1
 40
1
 10
-231.361590
 20
101.643794
 30
0.0
 10
-231.722574
 20
101.877081
 30
0.0
 10
-231.821078
 20
102.067677
 30
0.0
 10
-231.580422
 20
102.067677
 30
0.0
  0
LWPOLYLINE
  5
25c
100
AcDbEntity
  8
Layer_1
 62
7
100
AcDbPolyline
 90
2
 70
0
 10
-156.706093
 20
102.080908
 30
0.0
 10
-156.706093
 20
102.080908
 30
0.0
  0
SPLINE
  5
25d
100
AcDbEntity
  8
Layer_1
 62
7
100
AcDbSpline
 70
8
 71
3
 72
8
 73
4
 74
0
 40
0
 40
0
 40
0
 40
0
 40
1
 40
1
 40
1
 40
1
 10
-167.561728
 20
100.761849
 30
0.0
 10
-166.924090
 20
100.756075
 30
0.0
 10
-166.912315
 20
100.696334
 30
0.0
 10
-167.477942
 20
100.330797
 30
0.0
  0
SPLINE
  5
25e
100
AcDbEntity
  8
Layer_1
 62
7
100
AcDbSpline
 70
8
 71
3
 72
8
 73
4
 74
0
 40
0
 40
0
 40
0
 40
0
 40
1
 40
1
 40
1
 40
1
 10
-167.477942
 20
100.330797
 30
0.0
 10
-168.334842
 20
99.777024
 30
0.0
 10
-168.914355
 20
99.777026
 30
0.0
 10
-168.572104
 20
100.330797
 30
0.0
  0
SPLINE
  5
25f
100
AcDbEntity
  8
Layer_1
 62
7
100
AcDbSpline
 70
8
 71
3
 72
8
 73
4
 74
0
 40
0
 40
0
 40
0
 40
0
 40
1
 40
1
 40
1
 40
1
 10
-168.572104
 20
100.330797
 30
0.0
 10
-168.423370
 20
100.571454
 30
0.0
 10
-167.968673
 20
100.765349
 30
0.0
 10
-167.561728
 20
100.761849
 30
0.0
  0
LWPOLYLINE
  5
260
100
AcDbEntity
  8
Layer_1
 62
7
100
AcDbPolyline
 90
2
 70
0
 10
-231.580422
 20
102.067677
 30
0.0
 10
-231.580422
 20
102.067677
 30
0.0
  0
SPLINE
  5
261
100
AcDbEntity
  8
Layer_1
 62
7
100
AcDbSpline
 70
8
 71
3
 72
8
 73
4
 74
0
 40
0
 40
0
 40
0
 40
0
 40
1
 40
1
 40
1
 40
1
 10
-155.857222
 20
100.330797
 30
0.0
 10
-155.482025
 20
100.330797
 30
0.0
 10
-155.296729
 20
100.133789
 30
0.0
 10
-155.445466
 20
99.893133
 30
0.0
  0
SPLINE
  5
262
100
AcDbEntity
  8
Layer_1
 62
7
100
AcDbSpline
 70
8
 71
3
 72
8
 73
4
 74
0
 40
0
 40
0
 40
0
 40
0
 40
1
 40
1
 40
1
 40
1
 10
-155.445466
 20
99.893133
 30
0.0
 10
-155.594200
 20
99.652476
 30
0.0
 10
-155.900865
 20
99.456021
 30
0.0
 10
-156.127317
 20
99.456021
 30
0.0
  0
SPLINE
  5
263
100
AcDbEntity
  8
Layer_1
 62
7
100
AcDbSpline
 70
8
 71
3
 72
8
 73
4
 74
0
 40
0
 40
0
 40
0
 40
0
 40
1
 40
1
 40
1
 40
1
 10
-156.127317
 20
99.456021
 30
0.0
 10
-156.353772
 20
99.456021
 30
0.0
 10
-156.539077
 20
99.652476
 30
0.0
 10
-156.539077
 20
99.893133
 30
0.0
  0
SPLINE
  5
264
100
AcDbEntity
  8
Layer_1
 62
7
100
AcDbSpline
 70
8
 71
3
 72
8
 73
4
 74
0
 40
0
 40
0
 40
0
 40
0
 40
1
 40
1
 40
1
 40
1
 10
-156.539077
 20
99.893133
 30
0.0
 10
-156.539077
 20
100.133789
 30
0.0
 10
-156.232411
 20
100.330797
 30
0.0
 10
-155.857222
 20
100.330797
 30
0.0
  0
LWPOLYLINE
  5
265
100
AcDbEntity
  8
Layer_1
 62
7
100
AcDbPolyline
 90
2
 70
0
 10
-167.561728
 20
100.761849
 30
0.0
 10
-167.561728
 20
100.761849
 30
0.0
  0
SPLINE
  5
266
100
AcDbEntity
  8
Layer_1
 62
7
100
AcDbSpline
 70
8
 71
3
 72
8
 73
4
 74
0
 40
0
 40
0
 40
0
 40
0
 40
1
 40
1
 40
1
 40
1
 10
-231.496636
 20
99.886520
 30
0.0
 10
-231.210019
 20
99.890203
 30
0.0
 10
-230.853827
 20
99.696678
 30
0.0
 10
-230.705090
 20
99.456021
 30
0.0
  0
SPLINE
  5
267
100
AcDbEntity
  8
Layer_1
 62
7
100
AcDbSpline
 70
8
 71
3
 72
8
 73
4
 74
0
 40
0
 40
0
 40
0
 40
0
 40
1
 40
1
 40
1
 40
1
 10
-230.705090
 20
99.456021
 30
0.0
 10
-230.369353
 20
98.912780
 30
0.0
 10
-230.520988
 20
98.912780
 30
0.0
 10
-231.361590
 20
99.456021
 30
0.0
  0
SPLINE
  5
268
100
AcDbEntity
  8
Layer_1
 62
7
100
AcDbSpline
 70
8
 71
3
 72
8
 73
4
 74
0
 40
0
 40
0
 40
0
 40
0
 40
1
 40
1
 40
1
 40
1
 10
-231.361590
 20
99.456021
 30
0.0
 10
-231.755956
 20
99.710879
 30
0.0
 10
-231.809756
 20
99.882569
 30
0.0
 10
-231.496636
 20
99.886520
 30
0.0
  0
LWPOLYLINE
  5
269
100
AcDbEntity
  8
Layer_1
 62
7
100
AcDbPolyline
 90
2
 70
0
 10
-155.857222
 20
100.330797
 30
0.0
 10
-155.857222
 20
100.330797
 30
0.0
  0
SPLINE
  5
26a
100
AcDbEntity
  8
Layer_1
 62
7
100
AcDbSpline
 70
8
 71
3
 72
8
 73
4
 74
0
 40
0
 40
0
 40
0
 40
0
 40
1
 40
1
 40
1
 40
1
 10
-232.069349
 20
98.143025
 30
0.0
 10
-231.708365
 20
98.143025
 30
0.0
 10
-231.291491
 20
97.946017
 30
0.0
 10
-231.142757
 20
97.705360
 30
0.0
  0
SPLINE
  5
26b
100
AcDbEntity
  8
Layer_1
 62
7
100
AcDbSpline
 70
8
 71
3
 72
8
 73
4
 74
0
 40
0
 40
0
 40
0
 40
0
 40
1
 40
1
 40
1
 40
1
 10
-231.142757
 20
97.705360
 30
0.0
 10
-230.994021
 20
97.464704
 30
0.0
 10
-231.167621
 20
97.268246
 30
0.0
 10
-231.528606
 20
97.268246
 30
0.0
  0
SPLINE
  5
26c
100
AcDbEntity
  8
Layer_1
 62
7
100
AcDbSpline
 70
8
 71
3
 72
8
 73
4
 74
0
 40
0
 40
0
 40
0
 40
0
 40
1
 40
1
 40
1
 40
1
 10
-231.528606
 20
97.268246
 30
0.0
 10
-231.889591
 20
97.268246
 30
0.0
 10
-232.306467
 20
97.464704
 30
0.0
 10
-232.455201
 20
97.705360
 30
0.0
  0
SPLINE
  5
26d
100
AcDbEntity
  8
Layer_1
 62
7
100
AcDbSpline
 70
8
 71
3
 72
8
 73
4
 74
0
 40
0
 40
0
 40
0
 40
0
 40
1
 40
1
 40
1
 40
1
 10
-232.455201
 20
97.705360
 30
0.0
 10
-232.603935
 20
97.946017
 30
0.0
 10
-232.430334
 20
98.143025
 30
0.0
 10
-232.069349
 20
98.143025
 30
0.0
  0
LWPOLYLINE
  5
26e
100
AcDbEntity
  8
Layer_1
 62
7
100
AcDbPolyline
 90
2
 70
0
 10
-231.496636
 20
99.886520
 30
0.0
 10
-231.496636
 20
99.886520
 30
0.0
  0
SPLINE
  5
26f
100
AcDbEntity
  8
Layer_1
 62
7
100
AcDbSpline
 70
8
 71
3
 72
8
 73
4
 74
0
 40
0
 40
0
 40
0
 40
0
 40
1
 40
1
 40
1
 40
1
 10
-238.825594
 20
96.830581
 30
0.0
 10
-238.570733
 20
96.830581
 30
0.0
 10
-238.362575
 20
96.633573
 30
0.0
 10
-238.362575
 20
96.392917
 30
0.0
  0
SPLINE
  5
270
100
AcDbEntity
  8
Layer_1
 62
7
100
AcDbSpline
 70
8
 71
3
 72
8
 73
4
 74
0
 40
0
 40
0
 40
0
 40
0
 40
1
 40
1
 40
1
 40
1
 10
-238.362575
 20
96.392917
 30
0.0
 10
-238.362575
 20
96.152260
 30
0.0
 10
-238.449372
 20
95.955252
 30
0.0
 10
-238.555499
 20
95.955252
 30
0.0
  0
SPLINE
  5
271
100
AcDbEntity
  8
Layer_1
 62
7
100
AcDbSpline
 70
8
 71
3
 72
8
 73
4
 74
0
 40
0
 40
0
 40
0
 40
0
 40
1
 40
1
 40
1
 40
1
 10
-238.555499
 20
95.955252
 30
0.0
 10
-238.661623
 20
95.955252
 30
0.0
 10
-238.869787
 20
96.152260
 30
0.0
 10
-239.018521
 20
96.392917
 30
0.0
  0
SPLINE
  5
272
100
AcDbEntity
  8
Layer_1
 62
7
100
AcDbSpline
 70
8
 71
3
 72
8
 73
4
 74
0
 40
0
 40
0
 40
0
 40
0
 40
1
 40
1
 40
1
 40
1
 10
-239.018521
 20
96.392917
 30
0.0
 10
-239.167255
 20
96.633573
 30
0.0
 10
-239.080452
 20
96.830581
 30
0.0
 10
-238.825594
 20
96.830581
 30
0.0
  0
LWPOLYLINE
  5
273
100
AcDbEntity
  8
Layer_1
 62
7
100
AcDbPolyline
 90
2
 70
0
 10
-232.069349
 20
98.143025
 30
0.0
 10
-232.069349
 20
98.143025
 30
0.0
  0
SPLINE
  5
274
100
AcDbEntity
  8
Layer_1
 62
7
100
AcDbSpline
 70
8
 71
3
 72
8
 73
4
 74
0
 40
0
 40
0
 40
0
 40
0
 40
1
 40
1
 40
1
 40
1
 10
-129.165725
 20
85.454048
 30
0.0
 10
-129.059601
 20
85.454048
 30
0.0
 10
-128.972798
 20
85.257040
 30
0.0
 10
-128.972798
 20
85.016384
 30
0.0
  0
SPLINE
  5
275
100
AcDbEntity
  8
Layer_1
 62
7
100
AcDbSpline
 70
8
 71
3
 72
8
 73
4
 74
0
 40
0
 40
0
 40
0
 40
0
 40
1
 40
1
 40
1
 40
1
 10
-128.972798
 20
85.016384
 30
0.0
 10
-128.972798
 20
84.775727
 30
0.0
 10
-129.181513
 20
84.578719
 30
0.0
 10
-129.436371
 20
84.578719
 30
0.0
  0
SPLINE
  5
276
100
AcDbEntity
  8
Layer_1
 62
7
100
AcDbSpline
 70
8
 71
3
 72
8
 73
4
 74
0
 40
0
 40
0
 40
0
 40
0
 40
1
 40
1
 40
1
 40
1
 10
-129.436371
 20
84.578719
 30
0.0
 10
-129.691232
 20
84.578719
 30
0.0
 10
-129.778032
 20
84.775727
 30
0.0
 10
-129.629298
 20
85.016384
 30
0.0
  0
SPLINE
  5
277
100
AcDbEntity
  8
Layer_1
 62
7
100
AcDbSpline
 70
8
 71
3
 72
8
 73
4
 74
0
 40
0
 40
0
 40
0
 40
0
 40
1
 40
1
 40
1
 40
1
 10
-129.629298
 20
85.016384
 30
0.0
 10
-129.480564
 20
85.257040
 30
0.0
 10
-129.271852
 20
85.454048
 30
0.0
 10
-129.165725
 20
85.454048
 30
0.0
  0
LWPOLYLINE
  5
278
100
AcDbEntity
  8
Layer_1
 62
7
100
AcDbPolyline
 90
2
 70
0
 10
-238.825594
 20
96.830581
 30
0.0
 10
-238.825594
 20
96.830581
 30
0.0
  0
SPLINE
  5
279
100
AcDbEntity
  8
Layer_1
 62
7
100
AcDbSpline
 70
8
 71
3
 72
8
 73
4
 74
0
 40
0
 40
0
 40
0
 40
0
 40
1
 40
1
 40
1
 40
1
 10
-129.009180
 20
80.586818
 30
0.0
 10
-128.857172
 20
80.580562
 30
0.0
 10
-128.726895
 20
80.540455
 30
0.0
 10
-128.654198
 20
80.467757
 30
0.0
  0
SPLINE
  5
27a
100
AcDbEntity
  8
Layer_1
 62
7
100
AcDbSpline
 70
8
 71
3
 72
8
 73
4
 74
0
 40
0
 40
0
 40
0
 40
0
 40
1
 40
1
 40
1
 40
1
 10
-128.654198
 20
80.467757
 30
0.0
 10
-128.508802
 20
80.322359
 30
0.0
 10
-128.766756
 20
80.218905
 30
0.0
 10
-129.228012
 20
80.237899
 30
0.0
  0
SPLINE
  5
27b
100
AcDbEntity
  8
Layer_1
 62
7
100
AcDbSpline
 70
8
 71
3
 72
8
 73
4
 74
0
 40
0
 40
0
 40
0
 40
0
 40
1
 40
1
 40
1
 40
1
 10
-129.228012
 20
80.237899
 30
0.0
 10
-129.737745
 20
80.258890
 30
0.0
 10
-129.841648
 20
80.362254
 30
0.0
 10
-129.492595
 20
80.501932
 30
0.0
  0
SPLINE
  5
27c
100
AcDbEntity
  8
Layer_1
 62
7
100
AcDbSpline
 70
8
 71
3
 72
8
 73
4
 74
0
 40
0
 40
0
 40
0
 40
0
 40
1
 40
1
 40
1
 40
1
 10
-129.492595
 20
80.501932
 30
0.0
 10
-129.334666
 20
80.565138
 30
0.0
 10
-129.161187
 20
80.593078
 30
0.0
 10
-129.009180
 20
80.586818
 30
0.0
  0
LWPOLYLINE
  5
27d
100
AcDbEntity
  8
Layer_1
 62
7
100
AcDbPolyline
 90
2
 70
0
 10
-129.165725
 20
85.454048
 30
0.0
 10
-129.165725
 20
85.454048
 30
0.0
  0
SPLINE
  5
27e
100
AcDbEntity
  8
Layer_1
 62
7
100
AcDbSpline
 70
8
 71
3
 72
8
 73
4
 74
0
 40
0
 40
0
 40
0
 40
0
 40
1
 40
1
 40
1
 40
1
 10
-245.800674
 20
73.639853
 30
0.0
 10
-245.560017
 20
73.639853
 30
0.0
 10
-245.363560
 20
73.442843
 30
0.0
 10
-245.363560
 20
73.202186
 30
0.0
  0
SPLINE
  5
27f
100
AcDbEntity
  8
Layer_1
 62
7
100
AcDbSpline
 70
8
 71
3
 72
8
 73
4
 74
0
 40
0
 40
0
 40
0
 40
0
 40
1
 40
1
 40
1
 40
1
 10
-245.363560
 20
73.202186
 30
0.0
 10
-245.363560
 20
72.961530
 30
0.0
 10
-245.560017
 20
72.764522
 30
0.0
 10
-245.800674
 20
72.764522
 30
0.0
  0
SPLINE
  5
280
100
AcDbEntity
  8
Layer_1
 62
7
100
AcDbSpline
 70
8
 71
3
 72
8
 73
4
 74
0
 40
0
 40
0
 40
0
 40
0
 40
1
 40
1
 40
1
 40
1
 10
-245.800674
 20
72.764522
 30
0.0
 10
-246.041331
 20
72.764522
 30
0.0
 10
-246.238339
 20
72.961532
 30
0.0
 10
-246.238339
 20
73.202186
 30
0.0
  0
SPLINE
  5
281
100
AcDbEntity
  8
Layer_1
 62
7
100
AcDbSpline
 70
8
 71
3
 72
8
 73
4
 74
0
 40
0
 40
0
 40
0
 40
0
 40
1
 40
1
 40
1
 40
1
 10
-246.238339
 20
73.202186
 30
0.0
 10
-246.238339
 20
73.442843
 30
0.0
 10
-246.041331
 20
73.639853
 30
0.0
 10
-245.800674
 20
73.639853
 30
0.0
  0
LWPOLYLINE
  5
282
100
AcDbEntity
  8
Layer_1
 62
7
100
AcDbPolyline
 90
2
 70
0
 10
-129.009180
 20
80.586818
 30
0.0
 10
-129.009180
 20
80.586818
 30
0.0
  0
SPLINE
  5
283
100
AcDbEntity
  8
Layer_1
 62
7
100
AcDbSpline
 70
8
 71
3
 72
8
 73
4
 74
0
 40
0
 40
0
 40
0
 40
0
 40
1
 40
1
 40
1
 40
1
 10
-259.839023
 20
71.398061
 30
0.0
 10
-259.687018
 20
71.391801
 30
0.0
 10
-259.556188
 20
71.351694
 30
0.0
 10
-259.483490
 20
71.278997
 30
0.0
  0
SPLINE
  5
284
100
AcDbEntity
  8
Layer_1
 62
7
100
AcDbSpline
 70
8
 71
3
 72
8
 73
4
 74
0
 40
0
 40
0
 40
0
 40
0
 40
1
 40
1
 40
1
 40
1
 10
-259.483490
 20
71.278997
 30
0.0
 10
-259.338095
 20
71.133599
 30
0.0
 10
-259.596596
 20
71.030147
 30
0.0
 10
-260.057855
 20
71.049141
 30
0.0
  0
SPLINE
  5
285
100
AcDbEntity
  8
Layer_1
 62
7
100
AcDbSpline
 70
8
 71
3
 72
8
 73
4
 74
0
 40
0
 40
0
 40
0
 40
0
 40
1
 40
1
 40
1
 40
1
 10
-260.057855
 20
71.049141
 30
0.0
 10
-260.567585
 20
71.070133
 30
0.0
 10
-260.671491
 20
71.173497
 30
0.0
 10
-260.322438
 20
71.313174
 30
0.0
  0
SPLINE
  5
286
100
AcDbEntity
  8
Layer_1
 62
7
100
AcDbSpline
 70
8
 71
3
 72
8
 73
4
 74
0
 40
0
 40
0
 40
0
 40
0
 40
1
 40
1
 40
1
 40
1
 10
-260.322438
 20
71.313174
 30
0.0
 10
-260.164507
 20
71.376380
 30
0.0
 10
-259.991030
 20
71.404318
 30
0.0
 10
-259.839023
 20
71.398061
 30
0.0
  0
LWPOLYLINE
  5
287
100
AcDbEntity
  8
Layer_1
 62
7
100
AcDbPolyline
 90
2
 70
0
 10
-245.800674
 20
73.639853
 30
0.0
 10
-245.800674
 20
73.639853
 30
0.0
  0
SPLINE
  5
288
100
AcDbEntity
  8
Layer_1
 62
7
100
AcDbSpline
 70
8
 71
3
 72
8
 73
4
 74
0
 40
0
 40
0
 40
0
 40
0
 40
1
 40
1
 40
1
 40
1
 10
-204.216993
 20
70.910234
 30
0.0
 10
-203.754781
 20
70.891743
 30
0.0
 10
-203.352524
 20
70.502005
 30
0.0
 10
-203.595221
 20
70.109318
 30
0.0
  0
SPLINE
  5
289
100
AcDbEntity
  8
Layer_1
 62
7
100
AcDbSpline
 70
8
 71
3
 72
8
 73
4
 74
0
 40
0
 40
0
 40
0
 40
0
 40
1
 40
1
 40
1
 40
1
 10
-203.595221
 20
70.109318
 30
0.0
 10
-203.733677
 20
69.885293
 30
0.0
 10
-204.020730
 20
69.701970
 30
0.0
 10
-204.232978
 20
69.701970
 30
0.0
  0
SPLINE
  5
28a
100
AcDbEntity
  8
Layer_1
 62
7
100
AcDbSpline
 70
8
 71
3
 72
8
 73
4
 74
0
 40
0
 40
0
 40
0
 40
0
 40
1
 40
1
 40
1
 40
1
 10
-204.232978
 20
69.701970
 30
0.0
 10
-204.845770
 20
69.701970
 30
0.0
 10
-205.167157
 20
70.488741
 30
0.0
 10
-204.677809
 20
70.791173
 30
0.0
  0
SPLINE
  5
28b
100
AcDbEntity
  8
Layer_1
 62
7
100
AcDbSpline
 70
8
 71
3
 72
8
 73
4
 74
0
 40
0
 40
0
 40
0
 40
0
 40
1
 40
1
 40
1
 40
1
 10
-204.677809
 20
70.791173
 30
0.0
 10
-204.532103
 20
70.881222
 30
0.0
 10
-204.371061
 20
70.916398
 30
0.0
 10
-204.216993
 20
70.910234
 30
0.0
  0
LWPOLYLINE
  5
28c
100
AcDbEntity
  8
Layer_1
 62
7
100
AcDbPolyline
 90
2
 70
0
 10
-259.839023
 20
71.398061
 30
0.0
 10
-259.839023
 20
71.398061
 30
0.0
  0
SPLINE
  5
28d
100
AcDbEntity
  8
Layer_1
 62
7
100
AcDbSpline
 70
8
 71
3
 72
8
 73
4
 74
0
 40
0
 40
0
 40
0
 40
0
 40
1
 40
1
 40
1
 40
1
 10
-232.871919
 20
56.137665
 30
0.0
 10
-235.887960
 20
56.137665
 30
0.0
 10
-235.828738
 20
56.185930
 30
0.0
 10
-236.342369
 20
53.293395
 30
0.0
  0
SPLINE
  5
28e
100
AcDbEntity
  8
Layer_1
 62
7
100
AcDbSpline
 70
8
 71
3
 72
8
 73
4
 74
0
 40
0
 40
0
 40
0
 40
0
 40
1
 40
1
 40
1
 40
1
 10
-236.342369
 20
53.293395
 30
0.0
 10
-236.922742
 20
50.024974
 30
0.0
 10
-238.483970
 20
41.599729
 30
0.0
 10
-239.089627
 20
38.467356
 30
0.0
  0
SPLINE
  5
28f
100
AcDbEntity
  8
Layer_1
 62
7
100
AcDbSpline
 70
8
 71
3
 72
8
 73
4
 74
0
 40
0
 40
0
 40
0
 40
0
 40
1
 40
1
 40
1
 40
1
 10
-239.089627
 20
38.467356
 30
0.0
 10
-239.645371
 20
35.593134
 30
0.0
 10
-239.658669
 20
34.956130
 30
0.0
 10
-239.169002
 20
34.645782
 30
0.0
  0
SPLINE
  5
290
100
AcDbEntity
  8
Layer_1
 62
7
100
AcDbSpline
 70
8
 71
3
 72
8
 73
4
 74
0
 40
0
 40
0
 40
0
 40
0
 40
1
 40
1
 40
1
 40
1
 10
-239.169002
 20
34.645782
 30
0.0
 10
-238.301567
 20
34.096010
 30
0.0
 10
-235.991050
 20
34.180756
 30
0.0
 10
-235.387114
 20
34.784686
 30
0.0
  0
SPLINE
  5
291
100
AcDbEntity
  8
Layer_1
 62
7
100
AcDbSpline
 70
8
 71
3
 72
8
 73
4
 74
0
 40
0
 40
0
 40
0
 40
0
 40
1
 40
1
 40
1
 40
1
 10
-235.387114
 20
34.784686
 30
0.0
 10
-235.098328
 20
35.073476
 30
0.0
 10
-234.861806
 20
35.670528
 30
0.0
 10
-234.861806
 20
36.111464
 30
0.0
  0
SPLINE
  5
292
100
AcDbEntity
  8
Layer_1
 62
7
100
AcDbSpline
 70
8
 71
3
 72
8
 73
4
 74
0
 40
0
 40
0
 40
0
 40
0
 40
1
 40
1
 40
1
 40
1
 10
-234.861806
 20
36.111464
 30
0.0
 10
-234.861806
 20
36.997839
 30
0.0
 10
-233.347878
 20
37.740018
 30
0.0
 10
-232.168567
 20
37.431623
 30
0.0
  0
SPLINE
  5
293
100
AcDbEntity
  8
Layer_1
 62
7
100
AcDbSpline
 70
8
 71
3
 72
8
 73
4
 74
0
 40
0
 40
0
 40
0
 40
0
 40
1
 40
1
 40
1
 40
1
 10
-232.168567
 20
37.431623
 30
0.0
 10
-231.752191
 20
37.322739
 30
0.0
 10
-231.286033
 20
36.662883
 30
0.0
 10
-231.132834
 20
35.965391
 30
0.0
  0
SPLINE
  5
294
100
AcDbEntity
  8
Layer_1
 62
7
100
AcDbSpline
 70
8
 71
3
 72
8
 73
4
 74
0
 40
0
 40
0
 40
0
 40
0
 40
1
 40
1
 40
1
 40
1
 10
-231.132834
 20
35.965391
 30
0.0
 10
-230.979641
 20
35.267893
 30
0.0
 10
-230.722596
 20
34.686097
 30
0.0
 10
-230.561224
 20
34.672240
 30
0.0
  0
SPLINE
  5
295
100
AcDbEntity
  8
Layer_1
 62
7
100
AcDbSpline
 70
8
 71
3
 72
8
 73
4
 74
0
 40
0
 40
0
 40
0
 40
0
 40
1
 40
1
 40
1
 40
1
 10
-230.561224
 20
34.672240
 30
0.0
 10
-230.399858
 20
34.658378
 30
0.0
 10
-229.568982
 20
34.572664
 30
0.0
 10
-228.715203
 20
34.482070
 30
0.0
  0
SPLINE
  5
296
100
AcDbEntity
  8
Layer_1
 62
7
100
AcDbSpline
 70
8
 71
3
 72
8
 73
4
 74
0
 40
0
 40
0
 40
0
 40
0
 40
1
 40
1
 40
1
 40
1
 10
-228.715203
 20
34.482070
 30
0.0
 10
-226.048054
 20
34.199081
 30
0.0
 10
-225.886936
 20
34.546745
 30
0.0
 10
-226.757286
 20
38.698315
 30
0.0
  0
SPLINE
  5
297
100
AcDbEntity
  8
Layer_1
 62
7
100
AcDbSpline
 70
8
 71
3
 72
8
 73
4
 74
0
 40
0
 40
0
 40
0
 40
0
 40
1
 40
1
 40
1
 40
1
 10
-226.757286
 20
38.698315
 30
0.0
 10
-227.534515
 20
42.405694
 30
0.0
 10
-227.797436
 20
43.786965
 30
0.0
 10
-228.993567
 20
50.449123
 30
0.0
  0
SPLINE
  5
298
100
AcDbEntity
  8
Layer_1
 62
7
100
AcDbSpline
 70
8
 71
3
 72
8
 73
4
 74
0
 40
0
 40
0
 40
0
 40
0
 40
1
 40
1
 40
1
 40
1
 10
-228.993567
 20
50.449123
 30
0.0
 10
-229.360834
 20
52.494703
 30
0.0
 10
-229.752167
 20
54.611717
 30
0.0
 10
-229.863385
 20
55.153194
 30
0.0
  0
SPLINE
  5
299
100
AcDbEntity
  8
Layer_1
 62
7
100
AcDbSpline
 70
8
 71
3
 72
8
 73
4
 74
0
 40
0
 40
0
 40
0
 40
0
 40
1
 40
1
 40
1
 40
1
 10
-229.863385
 20
55.153194
 30
0.0
 10
-230.047749
 20
56.050808
 30
0.0
 10
-230.313301
 20
56.137665
 30
0.0
 10
-232.871919
 20
56.137665
 30
0.0
  0
LWPOLYLINE
  5
29a
100
AcDbEntity
  8
Layer_1
 62
7
100
AcDbPolyline
 90
2
 70
0
 10
-204.216993
 20
70.910234
 30
0.0
 10
-204.216993
 20
70.910234
 30
0.0
  0
SPLINE
  5
29b
100
AcDbEntity
  8
Layer_1
 62
7
100
AcDbSpline
 70
8
 71
3
 72
8
 73
4
 74
0
 40
0
 40
0
 40
0
 40
0
 40
1
 40
1
 40
1
 40
1
 10
-197.285460
 20
56.137665
 30
0.0
 10
-198.562939
 20
56.137665
 30
0.0
 10
-198.982101
 20
55.960999
 30
0.0
 10
-198.982101
 20
55.423290
 30
0.0
  0
SPLINE
  5
29c
100
AcDbEntity
  8
Layer_1
 62
7
100
AcDbSpline
 70
8
 71
3
 72
8
 73
4
 74
0
 40
0
 40
0
 40
0
 40
0
 40
1
 40
1
 40
1
 40
1
 10
-198.982101
 20
55.423290
 30
0.0
 10
-198.982101
 20
53.848233
 30
0.0
 10
-197.030673
 20
43.657290
 30
0.0
 10
-196.702827
 20
43.520347
 30
0.0
  0
SPLINE
  5
29d
100
AcDbEntity
  8
Layer_1
 62
7
100
AcDbSpline
 70
8
 71
3
 72
8
 73
4
 74
0
 40
0
 40
0
 40
0
 40
0
 40
1
 40
1
 40
1
 40
1
 10
-196.702827
 20
43.520347
 30
0.0
 10
-196.509578
 20
43.439629
 30
0.0
 10
-196.450421
 20
43.213984
 30
0.0
 10
-196.571085
 20
43.018742
 30
0.0
  0
SPLINE
  5
29e
100
AcDbEntity
  8
Layer_1
 62
7
100
AcDbSpline
 70
8
 71
3
 72
8
 73
4
 74
0
 40
0
 40
0
 40
0
 40
0
 40
1
 40
1
 40
1
 40
1
 10
-196.571085
 20
43.018742
 30
0.0
 10
-196.943122
 20
42.416776
 30
0.0
 10
-195.476379
 20
34.965150
 30
0.0
 10
-194.915784
 20
34.608850
 30
0.0
  0
SPLINE
  5
29f
100
AcDbEntity
  8
Layer_1
 62
7
100
AcDbSpline
 70
8
 71
3
 72
8
 73
4
 74
0
 40
0
 40
0
 40
0
 40
0
 40
1
 40
1
 40
1
 40
1
 10
-194.915784
 20
34.608850
 30
0.0
 10
-194.020200
 20
34.039650
 30
0.0
 10
-192.079189
 20
34.224145
 30
0.0
 10
-191.356036
 20
34.947297
 30
0.0
  0
SPLINE
  5
2a0
100
AcDbEntity
  8
Layer_1
 62
7
100
AcDbSpline
 70
8
 71
3
 72
8
 73
4
 74
0
 40
0
 40
0
 40
0
 40
0
 40
1
 40
1
 40
1
 40
1
 10
-191.356036
 20
34.947297
 30
0.0
 10
-190.977859
 20
35.325469
 30
0.0
 10
-190.630110
 20
36.358933
 30
0.0
 10
-190.583233
 20
37.244210
 30
0.0
  0
SPLINE
  5
2a1
100
AcDbEntity
  8
Layer_1
 62
7
100
AcDbSpline
 70
8
 71
3
 72
8
 73
4
 74
0
 40
0
 40
0
 40
0
 40
0
 40
1
 40
1
 40
1
 40
1
 10
-190.583233
 20
37.244210
 30
0.0
 10
-190.416448
 20
40.393779
 30
0.0
 10
-190.339726
 20
41.052399
 30
0.0
 10
-190.036981
 20
41.916862
 30
0.0
  0
SPLINE
  5
2a2
100
AcDbEntity
  8
Layer_1
 62
7
100
AcDbSpline
 70
8
 71
3
 72
8
 73
4
 74
0
 40
0
 40
0
 40
0
 40
0
 40
1
 40
1
 40
1
 40
1
 10
-190.036981
 20
41.916862
 30
0.0
 10
-189.516980
 20
43.401667
 30
0.0
 10
-189.153492
 20
43.956595
 30
0.0
 10
-188.748789
 20
43.882495
 30
0.0
  0
SPLINE
  5
2a3
100
AcDbEntity
  8
Layer_1
 62
7
100
AcDbSpline
 70
8
 71
3
 72
8
 73
4
 74
0
 40
0
 40
0
 40
0
 40
0
 40
1
 40
1
 40
1
 40
1
 10
-188.748789
 20
43.882495
 30
0.0
 10
-188.535042
 20
43.843353
 30
0.0
 10
-188.177102
 20
44.074299
 30
0.0
 10
-187.953938
 20
44.395676
 30
0.0
  0
SPLINE
  5
2a4
100
AcDbEntity
  8
Layer_1
 62
7
100
AcDbSpline
 70
8
 71
3
 72
8
 73
4
 74
0
 40
0
 40
0
 40
0
 40
0
 40
1
 40
1
 40
1
 40
1
 10
-187.953938
 20
44.395676
 30
0.0
 10
-187.672754
 20
44.800603
 30
0.0
 10
-187.629569
 20
44.689159
 30
0.0
 10
-187.813377
 20
44.032425
 30
0.0
  0
SPLINE
  5
2a5
100
AcDbEntity
  8
Layer_1
 62
7
100
AcDbSpline
 70
8
 71
3
 72
8
 73
4
 74
0
 40
0
 40
0
 40
0
 40
0
 40
1
 40
1
 40
1
 40
1
 10
-187.813377
 20
44.032425
 30
0.0
 10
-187.959258
 20
43.511198
 30
0.0
 10
-187.870962
 20
42.956016
 30
0.0
 10
-187.616592
 20
42.798807
 30
0.0
  0
SPLINE
  5
2a6
100
AcDbEntity
  8
Layer_1
 62
7
100
AcDbSpline
 70
8
 71
3
 72
8
 73
4
 74
0
 40
0
 40
0
 40
0
 40
0
 40
1
 40
1
 40
1
 40
1
 10
-187.616592
 20
42.798807
 30
0.0
 10
-187.362211
 20
42.641598
 30
0.0
 10
-187.255571
 20
42.347697
 30
0.0
 10
-187.380121
 20
42.146168
 30
0.0
  0
SPLINE
  5
2a7
100
AcDbEntity
  8
Layer_1
 62
7
100
AcDbSpline
 70
8
 71
3
 72
8
 73
4
 74
0
 40
0
 40
0
 40
0
 40
0
 40
1
 40
1
 40
1
 40
1
 10
-187.380121
 20
42.146168
 30
0.0
 10
-187.504677
 20
41.944638
 30
0.0
 10
-187.372354
 20
40.271594
 30
0.0
 10
-187.085772
 20
38.428220
 30
0.0
  0
SPLINE
  5
2a8
100
AcDbEntity
  8
Layer_1
 62
7
100
AcDbSpline
 70
8
 71
3
 72
8
 73
4
 74
0
 40
0
 40
0
 40
0
 40
0
 40
1
 40
1
 40
1
 40
1
 10
-187.085772
 20
38.428220
 30
0.0
 10
-186.503039
 20
34.679953
 30
0.0
 10
-185.881586
 20
33.993098
 30
0.0
 10
-183.480826
 20
34.443485
 30
0.0
  0
SPLINE
  5
2a9
100
AcDbEntity
  8
Layer_1
 62
7
100
AcDbSpline
 70
8
 71
3
 72
8
 73
4
 74
0
 40
0
 40
0
 40
0
 40
0
 40
1
 40
1
 40
1
 40
1
 10
-183.480826
 20
34.443485
 30
0.0
 10
-182.092163
 20
34.703999
 30
0.0
 10
-182.065930
 20
34.755753
 30
0.0
 10
-181.500859
 20
38.312464
 30
0.0
  0
SPLINE
  5
2aa
100
AcDbEntity
  8
Layer_1
 62
7
100
AcDbSpline
 70
8
 71
3
 72
8
 73
4
 74
0
 40
0
 40
0
 40
0
 40
0
 40
1
 40
1
 40
1
 40
1
 10
-181.500859
 20
38.312464
 30
0.0
 10
-181.185882
 20
40.295027
 30
0.0
 10
-180.371149
 20
44.967498
 30
0.0
 10
-179.690669
 20
48.695707
 30
0.0
  0
SPLINE
  5
2ab
100
AcDbEntity
  8
Layer_1
 62
7
100
AcDbSpline
 70
8
 71
3
 72
8
 73
4
 74
0
 40
0
 40
0
 40
0
 40
0
 40
1
 40
1
 40
1
 40
1
 10
-179.690669
 20
48.695707
 30
0.0
 10
-179.010186
 20
52.423916
 30
0.0
 10
-178.616460
 20
55.636720
 30
0.0
 10
-178.815340
 20
55.835599
 30
0.0
  0
SPLINE
  5
2ac
100
AcDbEntity
  8
Layer_1
 62
7
100
AcDbSpline
 70
8
 71
3
 72
8
 73
4
 74
0
 40
0
 40
0
 40
0
 40
0
 40
1
 40
1
 40
1
 40
1
 10
-178.815340
 20
55.835599
 30
0.0
 10
-179.014219
 20
56.034447
 30
0.0
 10
-179.941051
 20
56.134871
 30
0.0
 10
-180.875229
 20
56.058290
 30
0.0
  0
LWPOLYLINE
  5
2ad
100
AcDbEntity
  8
Layer_1
 62
7
100
AcDbPolyline
 90
2
 70
0
 10
-232.871919
 20
56.137665
 30
0.0
 10
-232.871919
 20
56.137665
 30
0.0
  0
SPLINE
  5
2ae
100
AcDbEntity
  8
Layer_1
 62
7
100
AcDbSpline
 70
8
 71
3
 72
8
 73
4
 74
0
 40
0
 40
0
 40
0
 40
0
 40
1
 40
1
 40
1
 40
1
 10
-183.093320
 20
52.855731
 30
0.0
 10
-183.379076
 20
51.171135
 30
0.0
 10
-183.674588
 20
48.956526
 30
0.0
 10
-183.749817
 20
47.933927
 30
0.0
  0
SPLINE
  5
2af
100
AcDbEntity
  8
Layer_1
 62
7
100
AcDbSpline
 70
8
 71
3
 72
8
 73
4
 74
0
 40
0
 40
0
 40
0
 40
0
 40
1
 40
1
 40
1
 40
1
 10
-183.749817
 20
47.933927
 30
0.0
 10
-183.853294
 20
46.527400
 30
0.0
 10
-184.068043
 20
46.074396
 30
0.0
 10
-184.632312
 20
46.074128
 30
0.0
  0
SPLINE
  5
2b0
100
AcDbEntity
  8
Layer_1
 62
7
100
AcDbSpline
 70
8
 71
3
 72
8
 73
4
 74
0
 40
0
 40
0
 40
0
 40
0
 40
1
 40
1
 40
1
 40
1
 10
-184.632312
 20
46.074128
 30
0.0
 10
-185.139017
 20
46.073891
 30
0.0
 10
-185.470989
 20
46.566936
 30
0.0
 10
-185.666944
 20
47.611466
 30
0.0
  0
SPLINE
  5
2b1
100
AcDbEntity
  8
Layer_1
 62
7
100
AcDbSpline
 70
8
 71
3
 72
8
 73
4
 74
0
 40
0
 40
0
 40
0
 40
0
 40
1
 40
1
 40
1
 40
1
 10
-185.666944
 20
47.611466
 30
0.0
 10
-185.825593
 20
48.457150
 30
0.0
 10
-186.277527
 20
49.337227
 30
0.0
 10
-186.671258
 20
49.567178
 30
0.0
  0
SPLINE
  5
2b2
100
AcDbEntity
  8
Layer_1
 62
7
100
AcDbSpline
 70
8
 71
3
 72
8
 73
4
 74
0
 40
0
 40
0
 40
0
 40
0
 40
1
 40
1
 40
1
 40
1
 10
-186.671258
 20
49.567178
 30
0.0
 10
-187.318359
 20
49.945102
 30
0.0
 10
-187.319680
 20
49.986208
 30
0.0
 10
-186.685592
 20
49.998231
 30
0.0
  0
SPLINE
  5
2b3
100
AcDbEntity
  8
Layer_1
 62
7
100
AcDbSpline
 70
8
 71
3
 72
8
 73
4
 74
0
 40
0
 40
0
 40
0
 40
0
 40
1
 40
1
 40
1
 40
1
 10
-186.685592
 20
49.998231
 30
0.0
 10
-186.105374
 20
50.009234
 30
0.0
 10
-186.020267
 20
50.408906
 30
0.0
 10
-186.194457
 20
52.308925
 30
0.0
  0
SPLINE
  5
2b4
100
AcDbEntity
  8
Layer_1
 62
7
100
AcDbSpline
 70
8
 71
3
 72
8
 73
4
 74
0
 40
0
 40
0
 40
0
 40
0
 40
1
 40
1
 40
1
 40
1
 10
-186.194457
 20
52.308925
 30
0.0
 10
-186.494688
 20
55.583671
 30
0.0
 10
-186.884460
 20
56.137665
 30
0.0
 10
-188.887145
 20
56.137665
 30
0.0
  0
SPLINE
  5
2b5
100
AcDbEntity
  8
Layer_1
 62
7
100
AcDbSpline
 70
8
 71
3
 72
8
 73
4
 74
0
 40
0
 40
0
 40
0
 40
0
 40
1
 40
1
 40
1
 40
1
 10
-188.887145
 20
56.137665
 30
0.0
 10
-190.944977
 20
56.137665
 30
0.0
 10
-191.105657
 20
55.806790
 30
0.0
 10
-191.337297
 20
51.105620
 30
0.0
  0
SPLINE
  5
2b6
100
AcDbEntity
  8
Layer_1
 62
7
100
AcDbSpline
 70
8
 71
3
 72
8
 73
4
 74
0
 40
0
 40
0
 40
0
 40
0
 40
1
 40
1
 40
1
 40
1
 10
-191.337297
 20
51.105620
 30
0.0
 10
-191.480163
 20
48.206105
 30
0.0
 10
-191.692284
 20
47.379728
 30
0.0
 10
-192.572569
 20
46.292410
 30
0.0
  0
LWPOLYLINE
  5
2b7
100
AcDbEntity
  8
Layer_1
 62
7
100
AcDbPolyline
 90
3
 70
0
 10
-180.875229
 20
56.058290
 30
0.0
 10
-182.574077
 20
55.918832
 30
0.0
 10
-183.093320
 20
52.855731
 30
0.0
  0
SPLINE
  5
2b8
100
AcDbEntity
  8
Layer_1
 62
7
100
AcDbSpline
 70
8
 71
3
 72
8
 73
4
 74
0
 40
0
 40
0
 40
0
 40
0
 40
1
 40
1
 40
1
 40
1
 10
-193.598933
 20
46.073575
 30
0.0
 10
-193.536652
 20
47.949921
 30
0.0
 10
-194.687887
 20
55.016088
 30
0.0
 10
-195.149501
 20
55.590859
 30
0.0
  0
SPLINE
  5
2b9
100
AcDbEntity
  8
Layer_1
 62
7
100
AcDbSpline
 70
8
 71
3
 72
8
 73
4
 74
0
 40
0
 40
0
 40
0
 40
0
 40
1
 40
1
 40
1
 40
1
 10
-195.149501
 20
55.590859
 30
0.0
 10
-195.391097
 20
55.891680
 30
0.0
 10
-196.352304
 20
56.137665
 30
0.0
 10
-197.285460
 20
56.137665
 30
0.0
  0
LWPOLYLINE
  5
2ba
100
AcDbEntity
  8
Layer_1
 62
7
100
AcDbPolyline
 90
3
 70
0
 10
-192.572569
 20
46.292410
 30
0.0
 10
-193.635314
 20
44.979964
 30
0.0
 10
-193.598933
 20
46.073575
 30
0.0
  0
SPLINE
  5
2bb
100
AcDbEntity
  8
Layer_1
 62
7
100
AcDbSpline
 70
8
 71
3
 72
8
 73
4
 74
0
 40
0
 40
0
 40
0
 40
0
 40
1
 40
1
 40
1
 40
1
 10
-260.395201
 20
56.052778
 30
0.0
 10
-260.611154
 20
56.048782
 30
0.0
 10
-260.833977
 20
56.040383
 30
0.0
 10
-261.063825
 20
56.027423
 30
0.0
  0
SPLINE
  5
2bc
100
AcDbEntity
  8
Layer_1
 62
7
100
AcDbSpline
 70
8
 71
3
 72
8
 73
4
 74
0
 40
0
 40
0
 40
0
 40
0
 40
1
 40
1
 40
1
 40
1
 10
-261.063825
 20
56.027423
 30
0.0
 10
-263.584549
 20
55.885287
 30
0.0
 10
-263.983315
 20
55.728154
 30
0.0
 10
-265.160455
 20
54.410707
 30
0.0
  0
SPLINE
  5
2bd
100
AcDbEntity
  8
Layer_1
 62
7
100
AcDbSpline
 70
8
 71
3
 72
8
 73
4
 74
0
 40
0
 40
0
 40
0
 40
0
 40
1
 40
1
 40
1
 40
1
 10
-265.160455
 20
54.410707
 30
0.0
 10
-266.350296
 20
53.079045
 30
0.0
 10
-266.446452
 20
52.738747
 30
0.0
 10
-266.262886
 20
50.525190
 30
0.0
  0
SPLINE
  5
2be
100
AcDbEntity
  8
Layer_1
 62
7
100
AcDbSpline
 70
8
 71
3
 72
8
 73
4
 74
0
 40
0
 40
0
 40
0
 40
0
 40
1
 40
1
 40
1
 40
1
 10
-266.262886
 20
50.525190
 30
0.0
 10
-266.063507
 20
48.120956
 30
0.0
 10
-266.027899
 20
48.067421
 30
0.0
 10
-262.275947
 20
44.568207
 30
0.0
  0
SPLINE
  5
2bf
100
AcDbEntity
  8
Layer_1
 62
7
100
AcDbSpline
 70
8
 71
3
 72
8
 73
4
 74
0
 40
0
 40
0
 40
0
 40
0
 40
1
 40
1
 40
1
 40
1
 10
-262.275947
 20
44.568207
 30
0.0
 10
-258.322592
 20
40.881163
 30
0.0
 10
-257.666501
 20
39.544480
 30
0.0
 10
-259.364980
 20
38.635478
 30
0.0
  0
SPLINE
  5
2c0
100
AcDbEntity
  8
Layer_1
 62
7
100
AcDbSpline
 70
8
 71
3
 72
8
 73
4
 74
0
 40
0
 40
0
 40
0
 40
0
 40
1
 40
1
 40
1
 40
1
 10
-259.364980
 20
38.635478
 30
0.0
 10
-260.526818
 20
38.013684
 30
0.0
 10
-261.891842
 20
38.745136
 30
0.0
 10
-262.252796
 20
40.183290
 30
0.0
  0
SPLINE
  5
2c1
100
AcDbEntity
  8
Layer_1
 62
7
100
AcDbSpline
 70
8
 71
3
 72
8
 73
4
 74
0
 40
0
 40
0
 40
0
 40
0
 40
1
 40
1
 40
1
 40
1
 10
-262.252796
 20
40.183290
 30
0.0
 10
-262.731594
 20
42.090982
 30
0.0
 10
-266.466574
 20
42.316266
 30
0.0
 10
-266.730316
 20
40.453385
 30
0.0
  0
SPLINE
  5
2c2
100
AcDbEntity
  8
Layer_1
 62
7
100
AcDbSpline
 70
8
 71
3
 72
8
 73
4
 74
0
 40
0
 40
0
 40
0
 40
0
 40
1
 40
1
 40
1
 40
1
 10
-266.730316
 20
40.453385
 30
0.0
 10
-267.057468
 20
38.142625
 30
0.0
 10
-265.097220
 20
35.544169
 30
0.0
 10
-262.428081
 20
34.750512
 30
0.0
  0
SPLINE
  5
2c3
100
AcDbEntity
  8
Layer_1
 62
7
100
AcDbSpline
 70
8
 71
3
 72
8
 73
4
 74
0
 40
0
 40
0
 40
0
 40
0
 40
1
 40
1
 40
1
 40
1
 10
-262.428081
 20
34.750512
 30
0.0
 10
-260.177396
 20
34.081287
 30
0.0
 10
-257.783508
 20
34.464609
 30
0.0
 10
-256.075327
 20
35.767505
 30
0.0
  0
SPLINE
  5
2c4
100
AcDbEntity
  8
Layer_1
 62
7
100
AcDbSpline
 70
8
 71
3
 72
8
 73
4
 74
0
 40
0
 40
0
 40
0
 40
0
 40
1
 40
1
 40
1
 40
1
 10
-256.075327
 20
35.767505
 30
0.0
 10
-254.395560
 20
37.048729
 30
0.0
 10
-253.795426
 20
38.704138
 30
0.0
 10
-254.048508
 20
41.357930
 30
0.0
  0
SPLINE
  5
2c5
100
AcDbEntity
  8
Layer_1
 62
7
100
AcDbSpline
 70
8
 71
3
 72
8
 73
4
 74
0
 40
0
 40
0
 40
0
 40
0
 40
1
 40
1
 40
1
 40
1
 10
-254.048508
 20
41.357930
 30
0.0
 10
-254.218612
 20
43.141656
 30
0.0
 10
-254.949856
 20
44.037147
 30
0.0
 10
-260.362677
 20
49.094236
 30
0.0
  0
SPLINE
  5
2c6
100
AcDbEntity
  8
Layer_1
 62
7
100
AcDbSpline
 70
8
 71
3
 72
8
 73
4
 74
0
 40
0
 40
0
 40
0
 40
0
 40
1
 40
1
 40
1
 40
1
 10
-260.362677
 20
49.094236
 30
0.0
 10
-261.031632
 20
49.719231
 30
0.0
 10
-261.828969
 20
50.722811
 30
0.0
 10
-262.134285
 20
51.324452
 30
0.0
  0
SPLINE
  5
2c7
100
AcDbEntity
  8
Layer_1
 62
7
100
AcDbSpline
 70
8
 71
3
 72
8
 73
4
 74
0
 40
0
 40
0
 40
0
 40
0
 40
1
 40
1
 40
1
 40
1
 10
-262.134285
 20
51.324452
 30
0.0
 10
-262.668506
 20
52.377155
 30
0.0
 10
-262.639045
 20
52.416378
 30
0.0
 10
-261.355417
 20
52.360738
 30
0.0
  0
SPLINE
  5
2c8
100
AcDbEntity
  8
Layer_1
 62
7
100
AcDbSpline
 70
8
 71
3
 72
8
 73
4
 74
0
 40
0
 40
0
 40
0
 40
0
 40
1
 40
1
 40
1
 40
1
 10
-261.355417
 20
52.360738
 30
0.0
 10
-260.621800
 20
52.328940
 30
0.0
 10
-259.770423
 20
52.279399
 30
0.0
 10
-259.463647
 20
52.251047
 30
0.0
  0
SPLINE
  5
2c9
100
AcDbEntity
  8
Layer_1
 62
7
100
AcDbSpline
 70
8
 71
3
 72
8
 73
4
 74
0
 40
0
 40
0
 40
0
 40
0
 40
1
 40
1
 40
1
 40
1
 10
-259.463647
 20
52.251047
 30
0.0
 10
-259.156869
 20
52.222681
 30
0.0
 10
-258.718945
 20
51.707261
 30
0.0
 10
-258.490201
 20
51.105620
 30
0.0
  0
SPLINE
  5
2ca
100
AcDbEntity
  8
Layer_1
 62
7
100
AcDbSpline
 70
8
 71
3
 72
8
 73
4
 74
0
 40
0
 40
0
 40
0
 40
0
 40
1
 40
1
 40
1
 40
1
 10
-258.490201
 20
51.105620
 30
0.0
 10
-258.140922
 20
50.186950
 30
0.0
 10
-257.789621
 20
50.012009
 30
0.0
 10
-256.299118
 20
50.012009
 30
0.0
  0
SPLINE
  5
2cb
100
AcDbEntity
  8
Layer_1
 62
7
100
AcDbSpline
 70
8
 71
3
 72
8
 73
4
 74
0
 40
0
 40
0
 40
0
 40
0
 40
1
 40
1
 40
1
 40
1
 10
-256.299118
 20
50.012009
 30
0.0
 10
-254.179770
 20
50.012009
 30
0.0
 10
-253.888519
 20
50.527143
 30
0.0
 10
-254.683508
 20
52.869509
 30
0.0
  0
SPLINE
  5
2cc
100
AcDbEntity
  8
Layer_1
 62
7
100
AcDbSpline
 70
8
 71
3
 72
8
 73
4
 74
0
 40
0
 40
0
 40
0
 40
0
 40
1
 40
1
 40
1
 40
1
 10
-254.683508
 20
52.869509
 30
0.0
 10
-255.458835
 20
55.153937
 30
0.0
 10
-257.155896
 20
56.112730
 30
0.0
 10
-260.395201
 20
56.052778
 30
0.0
  0
LWPOLYLINE
  5
2cd
100
AcDbEntity
  8
Layer_1
 62
7
100
AcDbPolyline
 90
2
 70
0
 10
-197.285460
 20
56.137665
 30
0.0
 10
-197.285460
 20
56.137665
 30
0.0
  0
LWPOLYLINE
  5
2ce
100
AcDbEntity
  8
Layer_1
 62
7
100
AcDbPolyline
 90
2
 70
0
 10
-260.395201
 20
56.052778
 30
0.0
 10
-260.395201
 20
56.052778
 30
0.0
  0
SPLINE
  5
2cf
100
AcDbEntity
  8
Layer_1
 62
7
100
AcDbSpline
 70
8
 71
3
 72
8
 73
4
 74
0
 40
0
 40
0
 40
0
 40
0
 40
1
 40
1
 40
1
 40
1
 10
-252.145713
 20
45.325576
 30
0.0
 10
-252.145713
 20
35.082868
 30
0.0
 10
-252.116536
 20
34.726201
 30
0.0
 10
-251.270381
 20
34.555381
 30
0.0
  0
SPLINE
  5
2d0
100
AcDbEntity
  8
Layer_1
 62
7
100
AcDbSpline
 70
8
 71
3
 72
8
 73
4
 74
0
 40
0
 40
0
 40
0
 40
0
 40
1
 40
1
 40
1
 40
1
 10
-251.270381
 20
34.555381
 30
0.0
 10
-249.231813
 20
34.143841
 30
0.0
 10
-248.014532
 20
34.290797
 30
0.0
 10
-247.619684
 20
34.996353
 30
0.0
  0
SPLINE
  5
2d1
100
AcDbEntity
  8
Layer_1
 62
7
100
AcDbSpline
 70
8
 71
3
 72
8
 73
4
 74
0
 40
0
 40
0
 40
0
 40
0
 40
1
 40
1
 40
1
 40
1
 10
-247.619684
 20
34.996353
 30
0.0
 10
-247.392862
 20
35.401661
 30
0.0
 10
-247.311192
 20
37.244416
 30
0.0
 10
-247.437783
 20
39.091332
 30
0.0
  0
SPLINE
  5
2d2
100
AcDbEntity
  8
Layer_1
 62
7
100
AcDbSpline
 70
8
 71
3
 72
8
 73
4
 74
0
 40
0
 40
0
 40
0
 40
0
 40
1
 40
1
 40
1
 40
1
 10
-247.437783
 20
39.091332
 30
0.0
 10
-247.703258
 20
42.964553
 30
0.0
 10
-247.522196
 20
43.217983
 30
0.0
 10
-244.488231
 20
43.224897
 30
0.0
  0
LWPOLYLINE
  5
2d3
100
AcDbEntity
  8
Layer_1
 62
7
100
AcDbPolyline
 90
2
 70
0
 10
-252.145713
 20
55.918832
 30
0.0
 10
-252.145713
 20
45.325576
 30
0.0
  0
SPLINE
  5
2d4
100
AcDbEntity
  8
Layer_1
 62
7
100
AcDbSpline
 70
8
 71
3
 72
8
 73
4
 74
0
 40
0
 40
0
 40
0
 40
0
 40
1
 40
1
 40
1
 40
1
 10
-242.381484
 20
45.155252
 30
0.0
 10
-242.218374
 20
47.435009
 30
0.0
 10
-242.729010
 20
47.901870
 30
0.0
 10
-244.993143
 20
47.542014
 30
0.0
  0
SPLINE
  5
2d5
100
AcDbEntity
  8
Layer_1
 62
7
100
AcDbSpline
 70
8
 71
3
 72
8
 73
4
 74
0
 40
0
 40
0
 40
0
 40
0
 40
1
 40
1
 40
1
 40
1
 10
-244.993143
 20
47.542014
 30
0.0
 10
-246.308829
 20
47.332901
 30
0.0
 10
-246.677414
 20
47.446755
 30
0.0
 10
-247.071775
 20
48.183629
 30
0.0
  0
SPLINE
  5
2d6
100
AcDbEntity
  8
Layer_1
 62
7
100
AcDbSpline
 70
8
 71
3
 72
8
 73
4
 74
0
 40
0
 40
0
 40
0
 40
0
 40
1
 40
1
 40
1
 40
1
 10
-247.071775
 20
48.183629
 30
0.0
 10
-247.783231
 20
49.513000
 30
0.0
 10
-247.652963
 20
51.224108
 30
0.0
 10
-246.803884
 20
51.699280
 30
0.0
  0
SPLINE
  5
2d7
100
AcDbEntity
  8
Layer_1
 62
7
100
AcDbSpline
 70
8
 71
3
 72
8
 73
4
 74
0
 40
0
 40
0
 40
0
 40
0
 40
1
 40
1
 40
1
 40
1
 10
-246.803884
 20
51.699280
 30
0.0
 10
-246.392799
 20
51.929333
 30
0.0
 10
-245.057323
 20
52.014325
 30
0.0
 10
-243.836692
 20
51.888346
 30
0.0
  0
SPLINE
  5
2d8
100
AcDbEntity
  8
Layer_1
 62
7
100
AcDbSpline
 70
8
 71
3
 72
8
 73
4
 74
0
 40
0
 40
0
 40
0
 40
0
 40
1
 40
1
 40
1
 40
1
 10
-243.836692
 20
51.888346
 30
0.0
 10
-241.204567
 20
51.616685
 30
0.0
 10
-240.416865
 20
52.250457
 30
0.0
 10
-240.629722
 20
54.468035
 30
0.0
  0
LWPOLYLINE
  5
2d9
100
AcDbEntity
  8
Layer_1
 62
7
100
AcDbPolyline
 90
3
 70
0
 10
-244.488231
 20
43.224897
 30
0.0
 10
-242.519287
 20
43.229856
 30
0.0
 10
-242.381484
 20
45.155252
 30
0.0
  0
LWPOLYLINE
  5
2da
100
AcDbEntity
  8
Layer_1
 62
7
100
AcDbPolyline
 90
5
 70
0
 10
-240.629722
 20
54.468035
 30
0.0
 10
-240.769180
 20
55.918832
 30
0.0
 10
-246.457171
 20
55.918832
 30
0.0
 10
-252.145713
 20
55.918832
 30
0.0
 10
-252.145713
 20
55.918832
 30
0.0
  0
SPLINE
  5
2db
100
AcDbEntity
  8
Layer_1
 62
7
100
AcDbSpline
 70
8
 71
3
 72
8
 73
4
 74
0
 40
0
 40
0
 40
0
 40
0
 40
1
 40
1
 40
1
 40
1
 10
-151.393480
 20
44.363706
 30
0.0
 10
-151.348533
 20
37.195654
 30
0.0
 10
-151.200714
 20
34.911412
 30
0.0
 10
-150.764545
 20
34.634758
 30
0.0
  0
SPLINE
  5
2dc
100
AcDbEntity
  8
Layer_1
 62
7
100
AcDbSpline
 70
8
 71
3
 72
8
 73
4
 74
0
 40
0
 40
0
 40
0
 40
0
 40
1
 40
1
 40
1
 40
1
 10
-150.764545
 20
34.634758
 30
0.0
 10
-150.081039
 20
34.201223
 30
0.0
 10
-149.643149
 20
34.185029
 30
0.0
 10
-148.303369
 20
34.543807
 30
0.0
  0
SPLINE
  5
2dd
100
AcDbEntity
  8
Layer_1
 62
7
100
AcDbSpline
 70
8
 71
3
 72
8
 73
4
 74
0
 40
0
 40
0
 40
0
 40
0
 40
1
 40
1
 40
1
 40
1
 10
-148.303369
 20
34.543807
 30
0.0
 10
-147.334958
 20
34.803135
 30
0.0
 10
-147.294335
 20
34.974023
 30
0.0
 10
-147.428591
 20
38.202222
 30
0.0
  0
SPLINE
  5
2de
100
AcDbEntity
  8
Layer_1
 62
7
100
AcDbSpline
 70
8
 71
3
 72
8
 73
4
 74
0
 40
0
 40
0
 40
0
 40
0
 40
1
 40
1
 40
1
 40
1
 10
-147.428591
 20
38.202222
 30
0.0
 10
-147.538056
 20
40.834419
 30
0.0
 10
-147.443184
 20
41.540810
 30
0.0
 10
-147.003603
 20
41.371160
 30
0.0
  0
SPLINE
  5
2df
100
AcDbEntity
  8
Layer_1
 62
7
100
AcDbSpline
 70
8
 71
3
 72
8
 73
4
 74
0
 40
0
 40
0
 40
0
 40
0
 40
1
 40
1
 40
1
 40
1
 10
-147.003603
 20
41.371160
 30
0.0
 10
-146.293795
 20
41.097221
 30
0.0
 10
-144.931810
 20
38.442749
 30
0.0
 10
-144.518174
 20
36.527078
 30
0.0
  0
SPLINE
  5
2e0
100
AcDbEntity
  8
Layer_1
 62
7
100
AcDbSpline
 70
8
 71
3
 72
8
 73
4
 74
0
 40
0
 40
0
 40
0
 40
0
 40
1
 40
1
 40
1
 40
1
 10
-144.518174
 20
36.527078
 30
0.0
 10
-144.173677
 20
34.931597
 30
0.0
 10
-143.968247
 20
34.795806
 30
0.0
 10
-141.517356
 20
34.544357
 30
0.0
  0
SPLINE
  5
2e1
100
AcDbEntity
  8
Layer_1
 62
7
100
AcDbSpline
 70
8
 71
3
 72
8
 73
4
 74
0
 40
0
 40
0
 40
0
 40
0
 40
1
 40
1
 40
1
 40
1
 10
-141.517356
 20
34.544357
 30
0.0
 10
-139.293984
 20
34.316256
 30
0.0
 10
-139.069485
 20
35.037791
 30
0.0
 10
-140.473907
 20
37.897400
 30
0.0
  0
SPLINE
  5
2e2
100
AcDbEntity
  8
Layer_1
 62
7
100
AcDbSpline
 70
8
 71
3
 72
8
 73
4
 74
0
 40
0
 40
0
 40
0
 40
0
 40
1
 40
1
 40
1
 40
1
 10
-140.473907
 20
37.897400
 30
0.0
 10
-142.273198
 20
41.561005
 30
0.0
 10
-143.413319
 20
44.383137
 30
0.0
 10
-143.401409
 20
45.144779
 30
0.0
  0
SPLINE
  5
2e3
100
AcDbEntity
  8
Layer_1
 62
7
100
AcDbSpline
 70
8
 71
3
 72
8
 73
4
 74
0
 40
0
 40
0
 40
0
 40
0
 40
1
 40
1
 40
1
 40
1
 10
-143.401409
 20
45.144779
 30
0.0
 10
-143.395319
 20
45.535335
 30
0.0
 10
-142.607837
 20
47.427954
 30
0.0
 10
-141.651301
 20
49.350550
 30
0.0
  0
SPLINE
  5
2e4
100
AcDbEntity
  8
Layer_1
 62
7
100
AcDbSpline
 70
8
 71
3
 72
8
 73
4
 74
0
 40
0
 40
0
 40
0
 40
0
 40
1
 40
1
 40
1
 40
1
 10
-141.651301
 20
49.350550
 30
0.0
 10
-140.694766
 20
51.273147
 30
0.0
 10
-139.912217
 20
53.094649
 30
0.0
 10
-139.912217
 20
53.398125
 30
0.0
  0
SPLINE
  5
2e5
100
AcDbEntity
  8
Layer_1
 62
7
100
AcDbSpline
 70
8
 71
3
 72
8
 73
4
 74
0
 40
0
 40
0
 40
0
 40
0
 40
1
 40
1
 40
1
 40
1
 10
-139.912217
 20
53.398125
 30
0.0
 10
-139.912217
 20
53.760944
 30
0.0
 10
-140.591196
 20
53.949892
 30
0.0
 10
-141.894938
 20
53.949892
 30
0.0
  0
SPLINE
  5
2e6
100
AcDbEntity
  8
Layer_1
 62
7
100
AcDbSpline
 70
8
 71
3
 72
8
 73
4
 74
0
 40
0
 40
0
 40
0
 40
0
 40
1
 40
1
 40
1
 40
1
 10
-141.894938
 20
53.949892
 30
0.0
 10
-143.392751
 20
53.949892
 30
0.0
 10
-143.940790
 20
53.762702
 30
0.0
 10
-144.136731
 20
53.184254
 30
0.0
  0
SPLINE
  5
2e7
100
AcDbEntity
  8
Layer_1
 62
7
100
AcDbSpline
 70
8
 71
3
 72
8
 73
4
 74
0
 40
0
 40
0
 40
0
 40
0
 40
1
 40
1
 40
1
 40
1
 10
-144.136731
 20
53.184254
 30
0.0
 10
-144.279389
 20
52.763105
 30
0.0
 10
-144.885018
 20
51.335620
 30
0.0
 10
-145.482248
 20
50.012009
 30
0.0
  0
SPLINE
  5
2e8
100
AcDbEntity
  8
Layer_1
 62
7
100
AcDbSpline
 70
8
 71
3
 72
8
 73
4
 74
0
 40
0
 40
0
 40
0
 40
0
 40
1
 40
1
 40
1
 40
1
 10
-145.482248
 20
50.012009
 30
0.0
 10
-146.411191
 20
47.953234
 30
0.0
 10
-146.620247
 20
47.731540
 30
0.0
 10
-146.928637
 20
48.480183
 30
0.0
  0
SPLINE
  5
2e9
100
AcDbEntity
  8
Layer_1
 62
7
100
AcDbSpline
 70
8
 71
3
 72
8
 73
4
 74
0
 40
0
 40
0
 40
0
 40
0
 40
1
 40
1
 40
1
 40
1
 10
-146.928637
 20
48.480183
 30
0.0
 10
-147.126909
 20
48.961499
 30
0.0
 10
-147.302516
 20
50.400047
 30
0.0
 10
-147.319450
 20
51.676680
 30
0.0
  0
LWPOLYLINE
  5
2ea
100
AcDbEntity
  8
Layer_1
 62
7
100
AcDbPolyline
 90
4
 70
0
 10
-147.350316
 20
53.997847
 30
0.0
 10
-149.401389
 20
53.864452
 30
0.0
 10
-151.451908
 20
53.731060
 30
0.0
 10
-151.393480
 20
44.363706
 30
0.0
  0
SPLINE
  5
2eb
100
AcDbEntity
  8
Layer_1
 62
7
100
AcDbSpline
 70
8
 71
3
 72
8
 73
4
 74
0
 40
0
 40
0
 40
0
 40
0
 40
1
 40
1
 40
1
 40
1
 10
-220.363189
 20
53.949892
 30
0.0
 10
-222.533410
 20
53.949892
 30
0.0
 10
-224.397460
 20
53.801861
 30
0.0
 10
-224.505574
 20
53.621368
 30
0.0
  0
SPLINE
  5
2ec
100
AcDbEntity
  8
Layer_1
 62
7
100
AcDbSpline
 70
8
 71
3
 72
8
 73
4
 74
0
 40
0
 40
0
 40
0
 40
0
 40
1
 40
1
 40
1
 40
1
 10
-224.505574
 20
53.621368
 30
0.0
 10
-224.613690
 20
53.440876
 30
0.0
 10
-224.575864
 20
51.025658
 30
0.0
 10
-224.421787
 20
48.253632
 30
0.0
  0
SPLINE
  5
2ed
100
AcDbEntity
  8
Layer_1
 62
7
100
AcDbSpline
 70
8
 71
3
 72
8
 73
4
 74
0
 40
0
 40
0
 40
0
 40
0
 40
1
 40
1
 40
1
 40
1
 10
-224.421787
 20
48.253632
 30
0.0
 10
-224.267711
 20
45.481608
 30
0.0
 10
-224.240276
 20
41.385144
 30
0.0
 10
-224.360605
 20
39.150864
 30
0.0
  0
SPLINE
  5
2ee
100
AcDbEntity
  8
Layer_1
 62
7
100
AcDbSpline
 70
8
 71
3
 72
8
 73
4
 74
0
 40
0
 40
0
 40
0
 40
0
 40
1
 40
1
 40
1
 40
1
 10
-224.360605
 20
39.150864
 30
0.0
 10
-224.480933
 20
36.916590
 30
0.0
 10
-224.428885
 20
34.938861
 30
0.0
 10
-224.244848
 20
34.755473
 30
0.0
  0
SPLINE
  5
2ef
100
AcDbEntity
  8
Layer_1
 62
7
100
AcDbSpline
 70
8
 71
3
 72
8
 73
4
 74
0
 40
0
 40
0
 40
0
 40
0
 40
1
 40
1
 40
1
 40
1
 10
-224.244848
 20
34.755473
 30
0.0
 10
-224.060814
 20
34.572082
 30
0.0
 10
-223.076327
 20
34.464497
 30
0.0
 10
-222.057076
 20
34.516798
 30
0.0
  0
LWPOLYLINE
  5
2f0
100
AcDbEntity
  8
Layer_1
 62
7
100
AcDbPolyline
 90
3
 70
0
 10
-147.319450
 20
51.676680
 30
0.0
 10
-147.350316
 20
53.997847
 30
0.0
 10
-147.350316
 20
53.997847
 30
0.0
  0
SPLINE
  5
2f1
100
AcDbEntity
  8
Layer_1
 62
7
100
AcDbSpline
 70
8
 71
3
 72
8
 73
4
 74
0
 40
0
 40
0
 40
0
 40
0
 40
1
 40
1
 40
1
 40
1
 10
-220.203889
 20
37.826844
 30
0.0
 10
-220.203889
 20
39.595045
 30
0.0
 10
-220.061014
 20
41.261565
 30
0.0
 10
-219.886389
 20
41.529910
 30
0.0
  0
SPLINE
  5
2f2
100
AcDbEntity
  8
Layer_1
 62
7
100
AcDbSpline
 70
8
 71
3
 72
8
 73
4
 74
0
 40
0
 40
0
 40
0
 40
0
 40
1
 40
1
 40
1
 40
1
 10
-219.886389
 20
41.529910
 30
0.0
 10
-219.711764
 20
41.798255
 30
0.0
 10
-218.761304
 20
42.126212
 30
0.0
 10
-217.774131
 20
42.258616
 30
0.0
  0
SPLINE
  5
2f3
100
AcDbEntity
  8
Layer_1
 62
7
100
AcDbSpline
 70
8
 71
3
 72
8
 73
4
 74
0
 40
0
 40
0
 40
0
 40
0
 40
1
 40
1
 40
1
 40
1
 10
-217.774131
 20
42.258616
 30
0.0
 10
-216.786965
 20
42.391027
 30
0.0
 10
-215.599665
 20
42.842229
 30
0.0
 10
-215.136016
 20
43.261826
 30
0.0
  0
SPLINE
  5
2f4
100
AcDbEntity
  8
Layer_1
 62
7
100
AcDbSpline
 70
8
 71
3
 72
8
 73
4
 74
0
 40
0
 40
0
 40
0
 40
0
 40
1
 40
1
 40
1
 40
1
 10
-215.136016
 20
43.261826
 30
0.0
 10
-213.025239
 20
45.172053
 30
0.0
 10
-213.063497
 20
50.595794
 30
0.0
 10
-215.202714
 20
52.735013
 30
0.0
  0
SPLINE
  5
2f5
100
AcDbEntity
  8
Layer_1
 62
7
100
AcDbSpline
 70
8
 71
3
 72
8
 73
4
 74
0
 40
0
 40
0
 40
0
 40
0
 40
1
 40
1
 40
1
 40
1
 10
-215.202714
 20
52.735013
 30
0.0
 10
-216.350929
 20
53.883225
 30
0.0
 10
-216.633095
 20
53.949892
 30
0.0
 10
-220.363189
 20
53.949892
 30
0.0
  0
LWPOLYLINE
  5
2f6
100
AcDbEntity
  8
Layer_1
 62
7
100
AcDbPolyline
 90
3
 70
0
 10
-222.057076
 20
34.516798
 30
0.0
 10
-220.203889
 20
34.612158
 30
0.0
 10
-220.203889
 20
37.826844
 30
0.0
  0
SPLINE
  5
2f7
100
AcDbEntity
  8
Layer_1
 62
7
100
AcDbSpline
 70
8
 71
3
 72
8
 73
4
 74
0
 40
0
 40
0
 40
0
 40
0
 40
1
 40
1
 40
1
 40
1
 10
-172.341314
 20
53.949892
 30
0.0
 10
-176.741407
 20
53.949892
 30
0.0
 10
-177.760864
 20
52.098193
 30
0.0
 10
-177.760864
 20
44.104635
 30
0.0
  0
SPLINE
  5
2f8
100
AcDbEntity
  8
Layer_1
 62
7
100
AcDbSpline
 70
8
 71
3
 72
8
 73
4
 74
0
 40
0
 40
0
 40
0
 40
0
 40
1
 40
1
 40
1
 40
1
 10
-177.760864
 20
44.104635
 30
0.0
 10
-177.760864
 20
37.599878
 30
0.0
 10
-177.339199
 20
36.251434
 30
0.0
 10
-174.916042
 20
35.001867
 30
0.0
  0
SPLINE
  5
2f9
100
AcDbEntity
  8
Layer_1
 62
7
100
AcDbSpline
 70
8
 71
3
 72
8
 73
4
 74
0
 40
0
 40
0
 40
0
 40
0
 40
1
 40
1
 40
1
 40
1
 10
-174.916042
 20
35.001867
 30
0.0
 10
-173.253527
 20
34.144547
 30
0.0
 10
-170.067915
 20
34.256566
 30
0.0
 10
-168.915512
 20
35.212981
 30
0.0
  0
SPLINE
  5
2fa
100
AcDbEntity
  8
Layer_1
 62
7
100
AcDbSpline
 70
8
 71
3
 72
8
 73
4
 74
0
 40
0
 40
0
 40
0
 40
0
 40
1
 40
1
 40
1
 40
1
 10
-168.915512
 20
35.212981
 30
0.0
 10
-167.209439
 20
36.628893
 30
0.0
 10
-166.839090
 20
38.278611
 30
0.0
 10
-166.870504
 20
44.323467
 30
0.0
  0
SPLINE
  5
2fb
100
AcDbEntity
  8
Layer_1
 62
7
100
AcDbSpline
 70
8
 71
3
 72
8
 73
4
 74
0
 40
0
 40
0
 40
0
 40
0
 40
1
 40
1
 40
1
 40
1
 10
-166.870504
 20
44.323467
 30
0.0
 10
-166.912761
 20
52.447265
 30
0.0
 10
-167.766526
 20
53.949892
 30
0.0
 10
-172.341314
 20
53.949892
 30
0.0
  0
LWPOLYLINE
  5
2fc
100
AcDbEntity
  8
Layer_1
 62
7
100
AcDbPolyline
 90
2
 70
0
 10
-220.363189
 20
53.949892
 30
0.0
 10
-220.363189
 20
53.949892
 30
0.0
  0
SPLINE
  5
2fd
100
AcDbEntity
  8
Layer_1
 62
7
100
AcDbSpline
 70
8
 71
3
 72
8
 73
4
 74
0
 40
0
 40
0
 40
0
 40
0
 40
1
 40
1
 40
1
 40
1
 10
-133.590329
 20
53.899180
 30
0.0
 10
-136.217160
 20
53.869284
 30
0.0
 10
-137.592593
 20
52.958900
 30
0.0
 10
-138.202348
 20
50.923719
 30
0.0
  0
SPLINE
  5
2fe
100
AcDbEntity
  8
Layer_1
 62
7
100
AcDbSpline
 70
8
 71
3
 72
8
 73
4
 74
0
 40
0
 40
0
 40
0
 40
0
 40
1
 40
1
 40
1
 40
1
 10
-138.202348
 20
50.923719
 30
0.0
 10
-138.993276
 20
48.283838
 30
0.0
 10
-138.417300
 20
47.031982
 30
0.0
 10
-134.849306
 20
43.633897
 30
0.0
  0
SPLINE
  5
2ff
100
AcDbEntity
  8
Layer_1
 62
7
100
AcDbSpline
 70
8
 71
3
 72
8
 73
4
 74
0
 40
0
 40
0
 40
0
 40
0
 40
1
 40
1
 40
1
 40
1
 10
-134.849306
 20
43.633897
 30
0.0
 10
-132.460994
 20
41.359318
 30
0.0
 10
-131.598238
 20
40.240798
 30
0.0
 10
-131.598238
 20
39.418755
 30
0.0
  0
SPLINE
  5
300
100
AcDbEntity
  8
Layer_1
 62
7
100
AcDbSpline
 70
8
 71
3
 72
8
 73
4
 74
0
 40
0
 40
0
 40
0
 40
0
 40
1
 40
1
 40
1
 40
1
 10
-131.598238
 20
39.418755
 30
0.0
 10
-131.598238
 20
37.789763
 30
0.0
 10
-133.099483
 20
37.524197
 30
0.0
 10
-134.224228
 20
38.954079
 30
0.0
  0
SPLINE
  5
301
100
AcDbEntity
  8
Layer_1
 62
7
100
AcDbSpline
 70
8
 71
3
 72
8
 73
4
 74
0
 40
0
 40
0
 40
0
 40
0
 40
1
 40
1
 40
1
 40
1
 10
-134.224228
 20
38.954079
 30
0.0
 10
-134.705333
 20
39.565703
 30
0.0
 10
-135.099007
 20
40.236364
 30
0.0
 10
-135.099007
 20
40.444565
 30
0.0
  0
SPLINE
  5
302
100
AcDbEntity
  8
Layer_1
 62
7
100
AcDbSpline
 70
8
 71
3
 72
8
 73
4
 74
0
 40
0
 40
0
 40
0
 40
0
 40
1
 40
1
 40
1
 40
1
 10
-135.099007
 20
40.444565
 30
0.0
 10
-135.099007
 20
40.652769
 30
0.0
 10
-135.865385
 20
40.823251
 30
0.0
 10
-136.802261
 20
40.823251
 30
0.0
  0
SPLINE
  5
303
100
AcDbEntity
  8
Layer_1
 62
7
100
AcDbSpline
 70
8
 71
3
 72
8
 73
4
 74
0
 40
0
 40
0
 40
0
 40
0
 40
1
 40
1
 40
1
 40
1
 10
-136.802261
 20
40.823251
 30
0.0
 10
-139.030352
 20
40.823251
 30
0.0
 10
-139.349381
 20
39.948678
 30
0.0
 10
-138.065095
 20
37.363825
 30
0.0
  0
SPLINE
  5
304
100
AcDbEntity
  8
Layer_1
 62
7
100
AcDbSpline
 70
8
 71
3
 72
8
 73
4
 74
0
 40
0
 40
0
 40
0
 40
0
 40
1
 40
1
 40
1
 40
1
 10
-138.065095
 20
37.363825
 30
0.0
 10
-137.246250
 20
35.715760
 30
0.0
 10
-136.754692
 20
35.264021
 30
0.0
 10
-135.317840
 20
34.841464
 30
0.0
  0
SPLINE
  5
305
100
AcDbEntity
  8
Layer_1
 62
7
100
AcDbSpline
 70
8
 71
3
 72
8
 73
4
 74
0
 40
0
 40
0
 40
0
 40
0
 40
1
 40
1
 40
1
 40
1
 10
-135.317840
 20
34.841464
 30
0.0
 10
-132.007232
 20
33.867851
 30
0.0
 10
-129.955984
 20
34.403734
 30
0.0
 10
-128.136605
 20
36.716698
 30
0.0
  0
SPLINE
  5
306
100
AcDbEntity
  8
Layer_1
 62
7
100
AcDbSpline
 70
8
 71
3
 72
8
 73
4
 74
0
 40
0
 40
0
 40
0
 40
0
 40
1
 40
1
 40
1
 40
1
 10
-128.136605
 20
36.716698
 30
0.0
 10
-126.084869
 20
39.325057
 30
0.0
 10
-127.274534
 20
42.718740
 30
0.0
 10
-131.399799
 20
46.024519
 30
0.0
  0
SPLINE
  5
307
100
AcDbEntity
  8
Layer_1
 62
7
100
AcDbSpline
 70
8
 71
3
 72
8
 73
4
 74
0
 40
0
 40
0
 40
0
 40
0
 40
1
 40
1
 40
1
 40
1
 10
-131.399799
 20
46.024519
 30
0.0
 10
-132.952885
 20
47.269091
 30
0.0
 10
-134.223675
 20
48.604149
 30
0.0
 10
-134.223675
 20
48.991710
 30
0.0
  0
SPLINE
  5
308
100
AcDbEntity
  8
Layer_1
 62
7
100
AcDbSpline
 70
8
 71
3
 72
8
 73
4
 74
0
 40
0
 40
0
 40
0
 40
0
 40
1
 40
1
 40
1
 40
1
 10
-134.223675
 20
48.991710
 30
0.0
 10
-134.223675
 20
49.379269
 30
0.0
 10
-134.568164
 20
49.975102
 30
0.0
 10
-134.989313
 20
50.315731
 30
0.0
  0
SPLINE
  5
309
100
AcDbEntity
  8
Layer_1
 62
7
100
AcDbSpline
 70
8
 71
3
 72
8
 73
4
 74
0
 40
0
 40
0
 40
0
 40
0
 40
1
 40
1
 40
1
 40
1
 10
-134.989313
 20
50.315731
 30
0.0
 10
-135.684204
 20
50.877762
 30
0.0
 10
-135.666274
 20
50.892336
 30
0.0
 10
-134.796939
 20
50.472274
 30
0.0
  0
SPLINE
  5
30a
100
AcDbEntity
  8
Layer_1
 62
7
100
AcDbSpline
 70
8
 71
3
 72
8
 73
4
 74
0
 40
0
 40
0
 40
0
 40
0
 40
1
 40
1
 40
1
 40
1
 10
-134.796939
 20
50.472274
 30
0.0
 10
-134.194685
 20
50.181252
 30
0.0
 10
-133.742851
 20
50.164999
 30
0.0
 10
-133.579856
 20
50.428730
 30
0.0
  0
SPLINE
  5
30b
100
AcDbEntity
  8
Layer_1
 62
7
100
AcDbSpline
 70
8
 71
3
 72
8
 73
4
 74
0
 40
0
 40
0
 40
0
 40
0
 40
1
 40
1
 40
1
 40
1
 10
-133.579856
 20
50.428730
 30
0.0
 10
-133.216941
 20
51.015938
 30
0.0
 10
-131.379406
 20
50.269361
 30
0.0
 10
-131.379406
 20
49.534658
 30
0.0
  0
SPLINE
  5
30c
100
AcDbEntity
  8
Layer_1
 62
7
100
AcDbSpline
 70
8
 71
3
 72
8
 73
4
 74
0
 40
0
 40
0
 40
0
 40
0
 40
1
 40
1
 40
1
 40
1
 10
-131.379406
 20
49.534658
 30
0.0
 10
-131.379406
 20
48.780752
 30
0.0
 10
-129.321735
 20
48.034240
 30
0.0
 10
-128.311893
 20
48.421754
 30
0.0
  0
SPLINE
  5
30d
100
AcDbEntity
  8
Layer_1
 62
7
100
AcDbSpline
 70
8
 71
3
 72
8
 73
4
 74
0
 40
0
 40
0
 40
0
 40
0
 40
1
 40
1
 40
1
 40
1
 10
-128.311893
 20
48.421754
 30
0.0
 10
-127.704441
 20
48.654853
 30
0.0
 10
-127.601720
 20
49.043349
 30
0.0
 10
-127.809185
 20
50.321793
 30
0.0
  0
SPLINE
  5
30e
100
AcDbEntity
  8
Layer_1
 62
7
100
AcDbSpline
 70
8
 71
3
 72
8
 73
4
 74
0
 40
0
 40
0
 40
0
 40
0
 40
1
 40
1
 40
1
 40
1
 10
-127.809185
 20
50.321793
 30
0.0
 10
-128.201708
 20
52.740632
 30
0.0
 10
-129.366318
 20
53.640483
 30
0.0
 10
-132.386476
 20
53.858940
 30
0.0
  0
SPLINE
  5
30f
100
AcDbEntity
  8
Layer_1
 62
7
100
AcDbSpline
 70
8
 71
3
 72
8
 73
4
 74
0
 40
0
 40
0
 40
0
 40
0
 40
1
 40
1
 40
1
 40
1
 10
-132.386476
 20
53.858940
 30
0.0
 10
-132.814224
 20
53.889880
 30
0.0
 10
-133.215070
 20
53.903450
 30
0.0
 10
-133.590329
 20
53.899180
 30
0.0
  0
LWPOLYLINE
  5
310
100
AcDbEntity
  8
Layer_1
 62
7
100
AcDbPolyline
 90
2
 70
0
 10
-172.341314
 20
53.949892
 30
0.0
 10
-172.341314
 20
53.949892
 30
0.0
  0
SPLINE
  5
311
100
AcDbEntity
  8
Layer_1
 62
7
100
AcDbSpline
 70
8
 71
3
 72
8
 73
4
 74
0
 40
0
 40
0
 40
0
 40
0
 40
1
 40
1
 40
1
 40
1
 10
-158.084684
 20
53.895872
 30
0.0
 10
-158.688024
 20
53.901073
 30
0.0
 10
-159.442390
 20
53.884213
 30
0.0
 10
-160.410260
 20
53.855633
 30
0.0
  0
LWPOLYLINE
  5
312
100
AcDbEntity
  8
Layer_1
 62
7
100
AcDbPolyline
 90
2
 70
0
 10
-133.590329
 20
53.899180
 30
0.0
 10
-133.590329
 20
53.899180
 30
0.0
  0
SPLINE
  5
313
100
AcDbEntity
  8
Layer_1
 62
7
100
AcDbSpline
 70
8
 71
3
 72
8
 73
4
 74
0
 40
0
 40
0
 40
0
 40
0
 40
1
 40
1
 40
1
 40
1
 10
-164.752734
 20
44.354887
 30
0.0
 10
-164.821444
 20
38.927641
 30
0.0
 10
-164.700342
 20
34.873933
 30
0.0
 10
-164.465550
 20
34.729015
 30
0.0
  0
SPLINE
  5
314
100
AcDbEntity
  8
Layer_1
 62
7
100
AcDbSpline
 70
8
 71
3
 72
8
 73
4
 74
0
 40
0
 40
0
 40
0
 40
0
 40
1
 40
1
 40
1
 40
1
 10
-164.465550
 20
34.729015
 30
0.0
 10
-164.242465
 20
34.591319
 30
0.0
 10
-163.323315
 20
34.478213
 30
0.0
 10
-162.422747
 20
34.478213
 30
0.0
  0
SPLINE
  5
315
100
AcDbEntity
  8
Layer_1
 62
7
100
AcDbSpline
 70
8
 71
3
 72
8
 73
4
 74
0
 40
0
 40
0
 40
0
 40
0
 40
1
 40
1
 40
1
 40
1
 10
-162.422747
 20
34.478213
 30
0.0
 10
-160.390338
 20
34.478213
 30
0.0
 10
-160.133736
 20
35.069908
 30
0.0
 10
-160.371674
 20
39.207089
 30
0.0
  0
SPLINE
  5
316
100
AcDbEntity
  8
Layer_1
 62
7
100
AcDbSpline
 70
8
 71
3
 72
8
 73
4
 74
0
 40
0
 40
0
 40
0
 40
0
 40
1
 40
1
 40
1
 40
1
 10
-160.371674
 20
39.207089
 30
0.0
 10
-160.564223
 20
42.555048
 30
0.0
 10
-160.079777
 20
43.410986
 30
0.0
 10
-158.673382
 20
42.206800
 30
0.0
  0
SPLINE
  5
317
100
AcDbEntity
  8
Layer_1
 62
7
100
AcDbSpline
 70
8
 71
3
 72
8
 73
4
 74
0
 40
0
 40
0
 40
0
 40
0
 40
1
 40
1
 40
1
 40
1
 10
-158.673382
 20
42.206800
 30
0.0
 10
-158.055714
 20
41.677933
 30
0.0
 10
-157.850309
 20
40.903667
 30
0.0
 10
-157.845455
 20
39.084717
 30
0.0
  0
SPLINE
  5
318
100
AcDbEntity
  8
Layer_1
 62
7
100
AcDbSpline
 70
8
 71
3
 72
8
 73
4
 74
0
 40
0
 40
0
 40
0
 40
0
 40
1
 40
1
 40
1
 40
1
 10
-157.845455
 20
39.084717
 30
0.0
 10
-157.836328
 20
35.662589
 30
0.0
 10
-157.162613
 20
34.528482
 30
0.0
 10
-155.095993
 20
34.456716
 30
0.0
  0
SPLINE
  5
319
100
AcDbEntity
  8
Layer_1
 62
7
100
AcDbSpline
 70
8
 71
3
 72
8
 73
4
 74
0
 40
0
 40
0
 40
0
 40
0
 40
1
 40
1
 40
1
 40
1
 10
-155.095993
 20
34.456716
 30
0.0
 10
-154.186196
 20
34.425124
 30
0.0
 10
-153.352771
 20
34.542745
 30
0.0
 10
-153.244463
 20
34.717991
 30
0.0
  0
SPLINE
  5
31a
100
AcDbEntity
  8
Layer_1
 62
7
100
AcDbSpline
 70
8
 71
3
 72
8
 73
4
 74
0
 40
0
 40
0
 40
0
 40
0
 40
1
 40
1
 40
1
 40
1
 10
-153.244463
 20
34.717991
 30
0.0
 10
-152.947432
 20
35.198596
 30
0.0
 10
-153.841941
 20
41.750269
 30
0.0
 10
-154.386029
 20
43.079925
 30
0.0
  0
SPLINE
  5
31b
100
AcDbEntity
  8
Layer_1
 62
7
100
AcDbSpline
 70
8
 71
3
 72
8
 73
4
 74
0
 40
0
 40
0
 40
0
 40
0
 40
1
 40
1
 40
1
 40
1
 10
-154.386029
 20
43.079925
 30
0.0
 10
-154.767859
 20
44.013056
 30
0.0
 10
-154.712865
 20
44.470048
 30
0.0
 10
-154.109318
 20
45.391173
 30
0.0
  0
SPLINE
  5
31c
100
AcDbEntity
  8
Layer_1
 62
7
100
AcDbSpline
 70
8
 71
3
 72
8
 73
4
 74
0
 40
0
 40
0
 40
0
 40
0
 40
1
 40
1
 40
1
 40
1
 10
-154.109318
 20
45.391173
 30
0.0
 10
-152.927973
 20
47.194127
 30
0.0
 10
-153.459956
 20
51.635958
 30
0.0
 10
-155.017721
 20
52.975895
 30
0.0
  0
SPLINE
  5
31d
100
AcDbEntity
  8
Layer_1
 62
7
100
AcDbSpline
 70
8
 71
3
 72
8
 73
4
 74
0
 40
0
 40
0
 40
0
 40
0
 40
1
 40
1
 40
1
 40
1
 10
-155.017721
 20
52.975895
 30
0.0
 10
-155.820722
 20
53.666600
 30
0.0
 10
-156.274663
 20
53.880273
 30
0.0
 10
-158.084684
 20
53.895872
 30
0.0
  0
LWPOLYLINE
  5
31e
100
AcDbEntity
  8
Layer_1
 62
7
100
AcDbPolyline
 90
3
 70
0
 10
-160.410260
 20
53.855633
 30
0.0
 10
-164.634223
 20
53.731060
 30
0.0
 10
-164.752734
 20
44.354887
 30
0.0
  0
SPLINE
  5
31f
100
AcDbEntity
  8
Layer_1
 62
7
100
AcDbSpline
 70
8
 71
3
 72
8
 73
4
 74
0
 40
0
 40
0
 40
0
 40
0
 40
1
 40
1
 40
1
 40
1
 10
-207.304349
 20
53.880437
 30
0.0
 10
-207.583284
 20
53.877231
 30
0.0
 10
-207.874898
 20
53.870023
 30
0.0
 10
-208.178575
 20
53.859493
 30
0.0
  0
LWPOLYLINE
  5
320
100
AcDbEntity
  8
Layer_1
 62
7
100
AcDbPolyline
 90
2
 70
0
 10
-158.084684
 20
53.895872
 30
0.0
 10
-158.084684
 20
53.895872
 30
0.0
  0
SPLINE
  5
321
100
AcDbEntity
  8
Layer_1
 62
7
100
AcDbSpline
 70
8
 71
3
 72
8
 73
4
 74
0
 40
0
 40
0
 40
0
 40
0
 40
1
 40
1
 40
1
 40
1
 10
-211.994090
 20
44.346067
 30
0.0
 10
-212.062128
 20
38.200015
 30
0.0
 10
-211.940400
 20
34.863912
 30
0.0
 10
-211.641862
 20
34.679406
 30
0.0
  0
SPLINE
  5
322
100
AcDbEntity
  8
Layer_1
 62
7
100
AcDbSpline
 70
8
 71
3
 72
8
 73
4
 74
0
 40
0
 40
0
 40
0
 40
0
 40
1
 40
1
 40
1
 40
1
 10
-211.641862
 20
34.679406
 30
0.0
 10
-211.082958
 20
34.333986
 30
0.0
 10
-208.247711
 20
34.474673
 30
0.0
 10
-207.855013
 20
34.867369
 30
0.0
  0
SPLINE
  5
323
100
AcDbEntity
  8
Layer_1
 62
7
100
AcDbSpline
 70
8
 71
3
 72
8
 73
4
 74
0
 40
0
 40
0
 40
0
 40
0
 40
1
 40
1
 40
1
 40
1
 10
-207.855013
 20
34.867369
 30
0.0
 10
-207.698306
 20
35.024081
 30
0.0
 10
-207.557743
 20
36.673907
 30
0.0
 10
-207.542474
 20
38.533503
 30
0.0
  0
LWPOLYLINE
  5
324
100
AcDbEntity
  8
Layer_1
 62
7
100
AcDbPolyline
 90
3
 70
0
 10
-208.178575
 20
53.859493
 30
0.0
 10
-211.889910
 20
53.731060
 30
0.0
 10
-211.994090
 20
44.346067
 30
0.0
  0
SPLINE
  5
325
100
AcDbEntity
  8
Layer_1
 62
7
100
AcDbSpline
 70
8
 71
3
 72
8
 73
4
 74
0
 40
0
 40
0
 40
0
 40
0
 40
1
 40
1
 40
1
 40
1
 10
-205.584558
 20
42.173176
 30
0.0
 10
-202.689965
 20
42.561387
 30
0.0
 10
-201.169874
 20
44.438986
 30
0.0
 10
-201.169874
 20
47.626350
 30
0.0
  0
SPLINE
  5
326
100
AcDbEntity
  8
Layer_1
 62
7
100
AcDbSpline
 70
8
 71
3
 72
8
 73
4
 74
0
 40
0
 40
0
 40
0
 40
0
 40
1
 40
1
 40
1
 40
1
 10
-201.169874
 20
47.626350
 30
0.0
 10
-201.169874
 20
50.552241
 30
0.0
 10
-201.984046
 20
52.662013
 30
0.0
 10
-203.406705
 20
53.422379
 30
0.0
  0
SPLINE
  5
327
100
AcDbEntity
  8
Layer_1
 62
7
100
AcDbSpline
 70
8
 71
3
 72
8
 73
4
 74
0
 40
0
 40
0
 40
0
 40
0
 40
1
 40
1
 40
1
 40
1
 10
-203.406705
 20
53.422379
 30
0.0
 10
-204.013503
 20
53.746689
 30
0.0
 10
-205.351806
 20
53.902879
 30
0.0
 10
-207.304349
 20
53.880437
 30
0.0
  0
LWPOLYLINE
  5
328
100
AcDbEntity
  8
Layer_1
 62
7
100
AcDbPolyline
 90
3
 70
0
 10
-207.542474
 20
38.533503
 30
0.0
 10
-207.514362
 20
41.914105
 30
0.0
 10
-205.584558
 20
42.173176
 30
0.0
  0
SPLINE
  5
329
100
AcDbEntity
  8
Layer_1
 62
7
100
AcDbSpline
 70
8
 71
3
 72
8
 73
4
 74
0
 40
0
 40
0
 40
0
 40
0
 40
1
 40
1
 40
1
 40
1
 10
-159.014583
 20
50.391245
 30
0.0
 10
-158.446380
 20
50.397414
 30
0.0
 10
-158.131851
 20
50.091449
 30
0.0
 10
-157.828369
 20
49.293225
 30
0.0
  0
SPLINE
  5
32a
100
AcDbEntity
  8
Layer_1
 62
7
100
AcDbSpline
 70
8
 71
3
 72
8
 73
4
 74
0
 40
0
 40
0
 40
0
 40
0
 40
1
 40
1
 40
1
 40
1
 10
-157.828369
 20
49.293225
 30
0.0
 10
-157.573997
 20
48.624127
 30
0.0
 10
-157.472984
 20
47.649617
 30
0.0
 10
-157.604023
 20
47.127500
 30
0.0
  0
SPLINE
  5
32b
100
AcDbEntity
  8
Layer_1
 62
7
100
AcDbSpline
 70
8
 71
3
 72
8
 73
4
 74
0
 40
0
 40
0
 40
0
 40
0
 40
1
 40
1
 40
1
 40
1
 10
-157.604023
 20
47.127500
 30
0.0
 10
-157.889118
 20
45.991595
 30
0.0
 10
-159.376471
 20
45.493360
 30
0.0
 10
-160.051970
 20
46.307292
 30
0.0
  0
SPLINE
  5
32c
100
AcDbEntity
  8
Layer_1
 62
7
100
AcDbSpline
 70
8
 71
3
 72
8
 73
4
 74
0
 40
0
 40
0
 40
0
 40
0
 40
1
 40
1
 40
1
 40
1
 10
-160.051970
 20
46.307292
 30
0.0
 10
-160.317005
 20
46.626635
 30
0.0
 10
-160.471618
 20
47.639753
 30
0.0
 10
-160.395928
 20
48.559007
 30
0.0
  0
SPLINE
  5
32d
100
AcDbEntity
  8
Layer_1
 62
7
100
AcDbSpline
 70
8
 71
3
 72
8
 73
4
 74
0
 40
0
 40
0
 40
0
 40
0
 40
1
 40
1
 40
1
 40
1
 10
-160.395928
 20
48.559007
 30
0.0
 10
-160.284874
 20
49.907699
 30
0.0
 10
-160.068621
 20
50.257545
 30
0.0
 10
-159.274758
 20
50.370298
 30
0.0
  0
SPLINE
  5
32e
100
AcDbEntity
  8
Layer_1
 62
7
100
AcDbSpline
 70
8
 71
3
 72
8
 73
4
 74
0
 40
0
 40
0
 40
0
 40
0
 40
1
 40
1
 40
1
 40
1
 10
-159.274758
 20
50.370298
 30
0.0
 10
-159.182542
 20
50.383396
 30
0.0
 10
-159.095756
 20
50.390364
 30
0.0
 10
-159.014583
 20
50.391245
 30
0.0
  0
LWPOLYLINE
  5
32f
100
AcDbEntity
  8
Layer_1
 62
7
100
AcDbPolyline
 90
2
 70
0
 10
-207.304349
 20
53.880437
 30
0.0
 10
-207.304349
 20
53.880437
 30
0.0
  0
SPLINE
  5
330
100
AcDbEntity
  8
Layer_1
 62
7
100
AcDbSpline
 70
8
 71
3
 72
8
 73
4
 74
0
 40
0
 40
0
 40
0
 40
0
 40
1
 40
1
 40
1
 40
1
 10
-206.700216
 20
50.347148
 30
0.0
 10
-205.736001
 20
50.321674
 30
0.0
 10
-205.090593
 20
49.094363
 30
0.0
 10
-205.213591
 20
47.352397
 30
0.0
  0
SPLINE
  5
331
100
AcDbEntity
  8
Layer_1
 62
7
100
AcDbSpline
 70
8
 71
3
 72
8
 73
4
 74
0
 40
0
 40
0
 40
0
 40
0
 40
1
 40
1
 40
1
 40
1
 10
-205.213591
 20
47.352397
 30
0.0
 10
-205.309442
 20
45.994911
 30
0.0
 10
-205.484312
 20
45.746437
 30
0.0
 10
-206.345784
 20
45.746155
 30
0.0
  0
SPLINE
  5
332
100
AcDbEntity
  8
Layer_1
 62
7
100
AcDbSpline
 70
8
 71
3
 72
8
 73
4
 74
0
 40
0
 40
0
 40
0
 40
0
 40
1
 40
1
 40
1
 40
1
 10
-206.345784
 20
45.746155
 30
0.0
 10
-207.469413
 20
45.745768
 30
0.0
 10
-207.599339
 20
45.974365
 30
0.0
 10
-207.834066
 20
48.369388
 30
0.0
  0
SPLINE
  5
333
100
AcDbEntity
  8
Layer_1
 62
7
100
AcDbSpline
 70
8
 71
3
 72
8
 73
4
 74
0
 40
0
 40
0
 40
0
 40
0
 40
1
 40
1
 40
1
 40
1
 10
-207.834066
 20
48.369388
 30
0.0
 10
-207.964258
 20
49.697774
 30
0.0
 10
-207.831241
 20
50.060667
 30
0.0
 10
-207.131818
 20
50.282657
 30
0.0
  0
SPLINE
  5
334
100
AcDbEntity
  8
Layer_1
 62
7
100
AcDbSpline
 70
8
 71
3
 72
8
 73
4
 74
0
 40
0
 40
0
 40
0
 40
0
 40
1
 40
1
 40
1
 40
1
 10
-207.131818
 20
50.282657
 30
0.0
 10
-206.982385
 20
50.330084
 30
0.0
 10
-206.837963
 20
50.350788
 30
0.0
 10
-206.700216
 20
50.347148
 30
0.0
  0
LWPOLYLINE
  5
335
100
AcDbEntity
  8
Layer_1
 62
7
100
AcDbPolyline
 90
2
 70
0
 10
-159.014583
 20
50.391245
 30
0.0
 10
-159.014583
 20
50.391245
 30
0.0
  0
SPLINE
  5
336
100
AcDbEntity
  8
Layer_1
 62
7
100
AcDbSpline
 70
8
 71
3
 72
8
 73
4
 74
0
 40
0
 40
0
 40
0
 40
0
 40
1
 40
1
 40
1
 40
1
 10
-219.109727
 20
50.230291
 30
0.0
 10
-218.094374
 20
50.230291
 30
0.0
 10
-218.012193
 20
50.071891
 30
0.0
 10
-217.963200
 20
48.022122
 30
0.0
  0
SPLINE
  5
337
100
AcDbEntity
  8
Layer_1
 62
7
100
AcDbSpline
 70
8
 71
3
 72
8
 73
4
 74
0
 40
0
 40
0
 40
0
 40
0
 40
1
 40
1
 40
1
 40
1
 10
-217.963200
 20
48.022122
 30
0.0
 10
-217.919308
 20
46.185973
 30
0.0
 10
-218.043325
 20
45.803864
 30
0.0
 10
-218.699622
 20
45.754424
 30
0.0
  0
SPLINE
  5
338
100
AcDbEntity
  8
Layer_1
 62
7
100
AcDbSpline
 70
8
 71
3
 72
8
 73
4
 74
0
 40
0
 40
0
 40
0
 40
0
 40
1
 40
1
 40
1
 40
1
 10
-218.699622
 20
45.754424
 30
0.0
 10
-219.890253
 20
45.664739
 30
0.0
 10
-220.494454
 20
46.697083
 30
0.0
 10
-220.341142
 20
48.559007
 30
0.0
  0
SPLINE
  5
339
100
AcDbEntity
  8
Layer_1
 62
7
100
AcDbSpline
 70
8
 71
3
 72
8
 73
4
 74
0
 40
0
 40
0
 40
0
 40
0
 40
1
 40
1
 40
1
 40
1
 10
-220.341142
 20
48.559007
 30
0.0
 10
-220.221381
 20
50.013406
 30
0.0
 10
-220.061612
 20
50.230291
 30
0.0
 10
-219.109727
 20
50.230291
 30
0.0
  0
LWPOLYLINE
  5
33a
100
AcDbEntity
  8
Layer_1
 62
7
100
AcDbPolyline
 90
2
 70
0
 10
-206.700216
 20
50.347148
 30
0.0
 10
-206.700216
 20
50.347148
 30
0.0
  0
SPLINE
  5
33b
100
AcDbEntity
  8
Layer_1
 62
7
100
AcDbSpline
 70
8
 71
3
 72
8
 73
4
 74
0
 40
0
 40
0
 40
0
 40
0
 40
1
 40
1
 40
1
 40
1
 10
-172.592119
 20
49.968465
 30
0.0
 10
-172.415965
 20
49.971146
 30
0.0
 10
-172.211278
 20
49.893156
 30
0.0
 10
-171.975309
 20
49.746325
 30
0.0
  0
SPLINE
  5
33c
100
AcDbEntity
  8
Layer_1
 62
7
100
AcDbSpline
 70
8
 71
3
 72
8
 73
4
 74
0
 40
0
 40
0
 40
0
 40
0
 40
1
 40
1
 40
1
 40
1
 10
-171.975309
 20
49.746325
 30
0.0
 10
-171.317564
 20
49.337040
 30
0.0
 10
-171.177910
 20
48.500206
 30
0.0
 10
-171.072968
 20
44.339452
 30
0.0
  0
SPLINE
  5
33d
100
AcDbEntity
  8
Layer_1
 62
7
100
AcDbSpline
 70
8
 71
3
 72
8
 73
4
 74
0
 40
0
 40
0
 40
0
 40
0
 40
1
 40
1
 40
1
 40
1
 10
-171.072968
 20
44.339452
 30
0.0
 10
-170.990898
 20
41.085385
 30
0.0
 10
-171.120539
 20
39.210413
 30
0.0
 10
-171.454961
 20
38.807456
 30
0.0
  0
SPLINE
  5
33e
100
AcDbEntity
  8
Layer_1
 62
7
100
AcDbSpline
 70
8
 71
3
 72
8
 73
4
 74
0
 40
0
 40
0
 40
0
 40
0
 40
1
 40
1
 40
1
 40
1
 10
-171.454961
 20
38.807456
 30
0.0
 10
-172.883994
 20
37.085579
 30
0.0
 10
-173.605026
 20
38.969703
 30
0.0
 10
-173.596983
 20
44.403945
 30
0.0
  0
SPLINE
  5
33f
100
AcDbEntity
  8
Layer_1
 62
7
100
AcDbSpline
 70
8
 71
3
 72
8
 73
4
 74
0
 40
0
 40
0
 40
0
 40
0
 40
1
 40
1
 40
1
 40
1
 10
-173.596983
 20
44.403945
 30
0.0
 10
-173.591008
 20
48.428364
 30
0.0
 10
-173.355449
 20
49.956843
 30
0.0
 10
-172.592119
 20
49.968465
 30
0.0
  0
LWPOLYLINE
  5
340
100
AcDbEntity
  8
Layer_1
 62
7
100
AcDbPolyline
 90
2
 70
0
 10
-219.109727
 20
50.230291
 30
0.0
 10
-219.109727
 20
50.230291
 30
0.0
  0
SPLINE
  5
341
100
AcDbEntity
  8
Layer_1
 62
7
100
AcDbSpline
 70
8
 71
3
 72
8
 73
4
 74
0
 40
0
 40
0
 40
0
 40
0
 40
1
 40
1
 40
1
 40
1
 10
-232.675134
 20
48.292770
 30
0.0
 10
-232.593131
 20
48.286050
 30
0.0
 10
-232.511676
 20
48.245066
 30
0.0
 10
-232.432047
 20
48.165437
 30
0.0
  0
SPLINE
  5
342
100
AcDbEntity
  8
Layer_1
 62
7
100
AcDbSpline
 70
8
 71
3
 72
8
 73
4
 74
0
 40
0
 40
0
 40
0
 40
0
 40
1
 40
1
 40
1
 40
1
 10
-232.432047
 20
48.165437
 30
0.0
 10
-232.290916
 20
48.024303
 30
0.0
 10
-232.062652
 20
46.412981
 30
0.0
 10
-231.924380
 20
44.584743
 30
0.0
  0
LWPOLYLINE
  5
343
100
AcDbEntity
  8
Layer_1
 62
7
100
AcDbPolyline
 90
2
 70
0
 10
-172.592119
 20
49.968465
 30
0.0
 10
-172.592119
 20
49.968465
 30
0.0
  0
SPLINE
  5
344
100
AcDbEntity
  8
Layer_1
 62
7
100
AcDbSpline
 70
8
 71
3
 72
8
 73
4
 74
0
 40
0
 40
0
 40
0
 40
0
 40
1
 40
1
 40
1
 40
1
 10
-232.801914
 20
41.260365
 30
0.0
 10
-233.756197
 20
41.260365
 30
0.0
 10
-233.952745
 20
41.480857
 30
0.0
 10
-234.068606
 20
42.682500
 30
0.0
  0
SPLINE
  5
345
100
AcDbEntity
  8
Layer_1
 62
7
100
AcDbSpline
 70
8
 71
3
 72
8
 73
4
 74
0
 40
0
 40
0
 40
0
 40
0
 40
1
 40
1
 40
1
 40
1
 10
-234.068606
 20
42.682500
 30
0.0
 10
-234.312652
 20
45.213585
 30
0.0
 10
-233.467823
 20
48.357704
 30
0.0
 10
-232.675134
 20
48.292770
 30
0.0
  0
LWPOLYLINE
  5
346
100
AcDbEntity
  8
Layer_1
 62
7
100
AcDbPolyline
 90
3
 70
0
 10
-231.924380
 20
44.584743
 30
0.0
 10
-231.672474
 20
41.260365
 30
0.0
 10
-232.801914
 20
41.260365
 30
0.0
  0
SPLINE
  5
347
100
AcDbEntity
  8
Layer_1
 62
7
100
AcDbSpline
 70
8
 71
3
 72
8
 73
4
 74
0
 40
0
 40
0
 40
0
 40
0
 40
1
 40
1
 40
1
 40
1
 10
-183.935576
 20
44.155898
 30
0.0
 10
-183.778672
 20
44.148949
 30
0.0
 10
-183.667688
 20
43.974271
 30
0.0
 10
-183.667688
 20
43.692878
 30
0.0
  0
SPLINE
  5
348
100
AcDbEntity
  8
Layer_1
 62
7
100
AcDbSpline
 70
8
 71
3
 72
8
 73
4
 74
0
 40
0
 40
0
 40
0
 40
0
 40
1
 40
1
 40
1
 40
1
 10
-183.667688
 20
43.692878
 30
0.0
 10
-183.667688
 20
43.317689
 30
0.0
 10
-183.864696
 20
43.011024
 30
0.0
 10
-184.105352
 20
43.011024
 30
0.0
  0
SPLINE
  5
349
100
AcDbEntity
  8
Layer_1
 62
7
100
AcDbSpline
 70
8
 71
3
 72
8
 73
4
 74
0
 40
0
 40
0
 40
0
 40
0
 40
1
 40
1
 40
1
 40
1
 10
-184.105352
 20
43.011024
 30
0.0
 10
-184.346009
 20
43.011024
 30
0.0
 10
-184.543017
 20
43.196328
 30
0.0
 10
-184.543017
 20
43.422783
 30
0.0
  0
SPLINE
  5
34a
100
AcDbEntity
  8
Layer_1
 62
7
100
AcDbSpline
 70
8
 71
3
 72
8
 73
4
 74
0
 40
0
 40
0
 40
0
 40
0
 40
1
 40
1
 40
1
 40
1
 10
-184.543017
 20
43.422783
 30
0.0
 10
-184.543017
 20
43.649235
 30
0.0
 10
-184.346009
 20
43.955901
 30
0.0
 10
-184.105352
 20
44.104635
 30
0.0
  0
SPLINE
  5
34b
100
AcDbEntity
  8
Layer_1
 62
7
100
AcDbSpline
 70
8
 71
3
 72
8
 73
4
 74
0
 40
0
 40
0
 40
0
 40
0
 40
1
 40
1
 40
1
 40
1
 10
-184.105352
 20
44.104635
 30
0.0
 10
-184.045188
 20
44.141820
 30
0.0
 10
-183.987880
 20
44.158215
 30
0.0
 10
-183.935576
 20
44.155898
 30
0.0
  0
LWPOLYLINE
  5
34c
100
AcDbEntity
  8
Layer_1
 62
7
100
AcDbPolyline
 90
2
 70
0
 10
-232.675134
 20
48.292770
 30
0.0
 10
-232.675134
 20
48.292770
 30
0.0
  0
LWPOLYLINE
  5
34d
100
AcDbEntity
  8
Layer_1
 62
7
100
AcDbPolyline
 90
2
 70
0
 10
-183.935576
 20
44.155898
 30
0.0
 10
-183.935576
 20
44.155898
 30
0.0
  0
ENDSEC
  0
SECTION
  2
OBJECTS
  0
DICTIONARY
  5
C
330
0
100
AcDbDictionary
  3
ACAD_GROUP
350
D
  3
ACAD_MLINESTYLE
350
17
  0
DICTIONARY
  5
D
330
C
100
AcDbDictionary
  0
DICTIONARY
  5
1A
330
C
100
AcDbDictionary
  0
DICTIONARY
  5
17
330
C
100
AcDbDictionary
  3
STANDARD
350
18
  0
DICTIONARY
  5
19
330
C
100
AcDbDictionary
  0
ENDSEC
  0
EOF
