<?xml version="1.0" encoding="UTF-8" standalone="no"?>
<!-- Created with Inkscape (http://www.inkscape.org/) -->

<svg
   xmlns:dc="http://purl.org/dc/elements/1.1/"
   xmlns:cc="http://creativecommons.org/ns#"
   xmlns:rdf="http://www.w3.org/1999/02/22-rdf-syntax-ns#"
   xmlns:svg="http://www.w3.org/2000/svg"
   xmlns="http://www.w3.org/2000/svg"
   xmlns:sodipodi="http://sodipodi.sourceforge.net/DTD/sodipodi-0.dtd"
   xmlns:inkscape="http://www.inkscape.org/namespaces/inkscape"
   width="210mm"
   height="297mm"
   viewBox="0 0 744.09448819 1052.3622047"
   id="svg2"
   version="1.1"
   inkscape:version="0.91 r13725"
   sodipodi:docname="sfappworks.svg">
  <defs
     id="defs4" />
  <sodipodi:namedview
     id="base"
     pagecolor="#ffffff"
     bordercolor="#666666"
     borderopacity="1.0"
     inkscape:pageopacity="0.0"
     inkscape:pageshadow="2"
     inkscape:zoom="0.98994949"
     inkscape:cx="-675.48762"
     inkscape:cy="423.18336"
     inkscape:document-units="mm"
     inkscape:current-layer="layer1"
     showgrid="false"
     inkscape:window-width="1440"
     inkscape:window-height="837"
     inkscape:window-x="-4"
     inkscape:window-y="-4"
     inkscape:window-maximized="1" />
  <metadata
     id="metadata7">
    <rdf:RDF>
      <cc:Work
         rdf:about="">
        <dc:format>image/svg+xml</dc:format>
        <dc:type
           rdf:resource="http://purl.org/dc/dcmitype/StillImage" />
        <dc:title></dc:title>
      </cc:Work>
    </rdf:RDF>
  </metadata>
  <g
     inkscape:label="Layer 1"
     inkscape:groupmode="layer"
     id="layer1">
    <path
       style="fill:#000000"
       d="M -608.57227 298.59961 C -635.2477 298.59322 -666.95699 298.63489 -704.2793 298.71875 L -910.48242 299.18164 L -920.93359 304.13281 C -939.65616 313.0018 -952.39253 329.38177 -956.20898 349.50586 C -958.45775 361.36354 -958.33435 753.70117 -956.07812 765.90625 C -952.14811 787.16564 -937.59195 804.25272 -917.11523 811.64258 C -909.20109 814.49871 -901.95794 814.58297 -696.52734 814.25391 L -484.12305 813.91406 L -475.32422 809.78906 C -457.846 801.59558 -445.11756 785.04217 -441.62109 765.95508 C -440.69423 760.89533 -439.9375 750.39097 -439.9375 742.61133 C -439.9375 728.65447 -439.99225 728.44206 -444.19922 726.65039 L -448.46289 724.83398 L -444.19922 725.60547 L -439.9375 726.375 L -439.9375 558.07812 C -439.9375 409.91129 -440.21427 389.67629 -442.26172 388.89062 C -445.27137 387.73572 -445.27137 385.22852 -442.26172 385.22852 C -440.37037 385.22852 -439.9375 382.67705 -439.9375 371.56055 C -439.9375 345.84855 -444.81473 331.01805 -457.85938 317.07227 C -466.32399 308.02292 -476.68088 302.3088 -488.77344 300.01758 C -493.82458 299.06054 -528.54596 298.61878 -608.57227 298.59961 z M -565.33594 315.46094 C -564.48322 315.46094 -564.21713 316.159 -564.74414 317.01172 C -565.27116 317.86444 -566.39923 318.56055 -567.25195 318.56055 C -568.10467 318.56055 -568.37076 317.86444 -567.84375 317.01172 C -567.31673 316.159 -566.18866 315.46094 -565.33594 315.46094 z M -788.16797 328.06836 C -761.97051 328.06121 -730.99749 328.09881 -694.86328 328.17969 L -490.09766 328.63867 L -483.50391 333.00195 C -478.93831 336.02345 -475.76007 339.83896 -473.16797 345.40625 C -469.71462 352.82331 -469.42416 355.32619 -469.41016 377.73438 C -469.39895 395.7037 -468.89075 402.22813 -467.45703 402.80664 C -465.90663 403.43224 -465.90663 403.61294 -467.45703 403.71094 C -469.9795 403.87026 -469.9795 411.05331 -467.45703 412.23047 C -465.90663 412.95398 -465.90663 413.31751 -467.45703 414.04102 C -468.86619 414.69864 -469.39453 420.62107 -469.39453 435.74609 C -469.39453 454.50521 -469.12849 456.55125 -466.68164 456.59375 C -464.10083 456.63859 -464.1007 456.71878 -466.67578 458.21875 C -469.22287 459.70242 -469.38391 468.69128 -469.37891 609.84961 C -469.37553 721.04502 -469.84675 761.27619 -471.20117 765.20312 C -473.89378 773.01002 -478.17152 778.15523 -485.42383 782.31055 L -491.875 786.00781 L -695.75195 786.28711 C -848.80702 786.49732 -901.08876 786.11047 -905.47852 784.73633 C -913.74325 782.14921 -921.94708 775.06934 -925.3418 767.59375 C -928.0707 761.58438 -928.2473 755.79921 -928.2793 671.01953 C -928.30598 600.3506 -928.73133 580.66748 -930.25 580.05469 C -931.8004 579.42909 -931.8004 579.24839 -930.25 579.15039 C -928.71881 579.05368 -928.3062 555.35145 -928.2793 466.23633 C -928.24738 360.49 -928.06889 353.05717 -925.42188 347.23047 C -921.89302 339.46262 -913.12079 331.62938 -905.4707 329.41406 C -902.37918 328.51883 -866.76034 328.08981 -788.16797 328.06836 z M -945.18359 363.52344 C -943.47815 363.52344 -942.51401 364.2215 -943.04102 365.07422 C -943.56803 365.92694 -945.39612 366.62305 -947.10156 366.62305 C -948.807 366.62305 -949.77115 365.92694 -949.24414 365.07422 C -948.71713 364.2215 -946.88903 363.52344 -945.18359 363.52344 z M -451.47266 365.07422 C -451.09662 365.07422 -450.78906 365.77033 -450.78906 366.62305 C -450.78906 367.47577 -451.52859 368.17383 -452.43164 368.17383 C -453.33468 368.17383 -453.64225 367.47577 -453.11523 366.62305 C -452.58822 365.77033 -451.84869 365.07422 -451.47266 365.07422 z M -443.16602 369.91602 C -442.62741 369.9382 -442.16384 370.0803 -441.90625 370.33789 C -441.39107 370.85307 -442.30704 371.21964 -443.94141 371.15234 C -445.74755 371.07794 -446.11571 370.70976 -444.87891 370.21484 C -444.31931 369.99091 -443.70462 369.89383 -443.16602 369.91602 z M -582.45312 374.81836 C -597.396 374.80616 -598.52665 375.42048 -599.71484 377.64062 C -600.87648 379.81119 -600.90462 397.91274 -599.80859 438.81641 C -598.63981 482.43536 -598.70381 499.06623 -600.06641 505.5625 C -601.7285 513.48657 -601.63171 514.3972 -598.9082 516.38867 C -594.70509 519.46199 -572.78302 519.38589 -570.21289 516.28906 C -568.95903 514.77825 -568.48215 509.44687 -568.79102 500.39844 C -569.61289 476.32193 -568.88191 465.44571 -566.26367 462.83203 C -564.39433 460.96588 -561.03398 460.52519 -551.35742 460.87695 C -543.48225 461.16321 -538.0599 460.66243 -536.6875 459.52344 C -535.18016 458.27245 -534.51172 454.21599 -534.51172 446.33398 C -534.51172 432.38214 -535.9693 431.1801 -551.94922 431.97461 C -562.21658 432.4851 -562.99401 432.28528 -565.9375 428.36719 C -567.66339 426.06983 -569.37973 420.82098 -569.78516 416.60156 C -570.44755 409.70795 -570.10925 408.66252 -566.24023 405.61914 C -562.24453 402.47612 -560.874 402.32083 -545.31836 403.26562 L -528.67188 404.27734 L -526.00391 400.20508 C -523.92099 397.02615 -523.52232 394.05231 -524.18359 386.63672 C -524.64942 381.4128 -525.4104 376.75757 -525.875 376.29297 C -526.3396 375.82838 -542.77236 375.2489 -562.39258 375.00391 C -570.95633 374.89698 -577.47217 374.82243 -582.45312 374.81836 z M -836.88672 375.375 C -853.94919 375.31096 -863.60179 378.8001 -870.16602 387.40625 C -874.82082 393.509 -877.78954 406.55959 -876.49219 415.21094 C -874.59635 427.85333 -862.04309 444.24901 -849.10352 450.98047 C -847.04846 452.04955 -845.51341 453.65818 -845.69336 454.55469 C -845.87332 455.45119 -841.86092 459.45143 -836.77734 463.44531 C -826.04543 471.87678 -824.44767 474.31749 -824.94922 481.50391 C -825.4609 488.83521 -827.50096 491.57064 -833.29102 492.69141 C -839.64131 493.92061 -846.65717 488.44274 -849.36328 480.14062 C -850.3965 476.97084 -852.01275 473.86477 -852.95508 473.23828 C -853.89742 472.61179 -859.65315 472.08662 -865.74414 472.07422 C -878.10374 472.04772 -878.69922 472.55538 -878.69922 483.08203 C -878.69922 490.32402 -872.99897 502.32133 -866.43945 508.88086 C -862.09568 513.22463 -850.13238 517.54253 -838.38867 519.00586 C -819.93432 521.30537 -800.48427 509.48522 -795.71289 493.07227 C -792.56519 482.24455 -794.61293 465.70804 -800.10352 457.61719 C -802.27741 454.41377 -804.28175 451.29311 -804.55664 450.68164 C -805.53688 448.50111 -827.74718 430.187 -829.5625 430.0625 C -832.94449 429.83064 -846.14258 413.28881 -846.14258 409.28125 C -846.14258 406.55588 -847.58305 404.69845 -851.17969 402.78906 C -854.90597 400.81084 -855.53612 399.96607 -853.59766 399.55078 C -852.15595 399.24191 -849.29052 400.0962 -847.22852 401.44727 C -843.87594 403.64397 -843.27139 403.65383 -841.51953 401.54297 C -839.04934 398.56654 -836.86206 398.5773 -829.28906 401.60742 C -823.95768 403.74061 -823.25194 404.61692 -823.44336 408.86719 C -823.69782 414.51752 -820.8462 415.83333 -807.80469 416.08203 C -800.91946 416.21333 -799.34207 415.68922 -797.31641 412.59766 C -795.14517 409.28391 -795.20822 408.06633 -798.01758 398.9707 C -803.44556 381.39695 -813.22082 375.4638 -836.88672 375.375 z M -449.14648 388.33008 C -448.34408 388.33008 -447.68945 389.02619 -447.68945 389.87891 C -447.68945 390.73163 -448.77606 391.42969 -450.10547 391.42969 C -451.4349 391.42969 -452.09146 390.73163 -451.56445 389.87891 C -451.03744 389.02619 -449.94887 388.33008 -449.14648 388.33008 z M -453.79883 396.08203 C -452.99643 396.08203 -452.33984 396.77814 -452.33984 397.63086 C -452.33984 398.48358 -453.4284 399.18164 -454.75781 399.18164 C -456.08725 399.18164 -456.74185 398.48358 -456.21484 397.63086 C -455.68782 396.77814 -454.60122 396.08203 -453.79883 396.08203 z M -576.85156 399.20508 C -575.83598 399.19202 -574.57389 399.8797 -574.04688 400.73242 C -572.85726 402.65729 -573.39259 402.65729 -576.37109 400.73242 C -577.76845 399.82937 -577.96104 399.21898 -576.85156 399.20508 z M -449.23828 400.73242 C -448.38556 400.73242 -447.68945 401.43048 -447.68945 402.2832 C -447.68945 403.13592 -448.38556 403.83398 -449.23828 403.83398 C -450.091 403.83398 -450.78906 403.13592 -450.78906 402.2832 C -450.78906 401.43048 -450.091 400.73242 -449.23828 400.73242 z M -448.46289 406.93359 C -446.15169 406.93359 -444.81768 407.60159 -445.36328 408.48438 C -445.89029 409.33709 -447.28446 410.03516 -448.46289 410.03516 C -449.64132 410.03516 -451.03744 409.33709 -451.56445 408.48438 C -452.11005 407.60158 -450.77409 406.93359 -448.46289 406.93359 z M -579.56445 408.48438 C -578.6614 408.48438 -577.92188 409.18243 -577.92188 410.03516 C -577.92188 410.88788 -578.22943 411.58594 -578.60547 411.58594 C -578.9815 411.58594 -579.72104 410.88788 -580.24805 410.03516 C -580.77507 409.18243 -580.46749 408.48438 -579.56445 408.48438 z M -458.0625 420.99609 C -454.7875 421.10114 -454.77607 421.15286 -457.76562 422.4375 C -462.03307 424.27129 -463.55131 424.27129 -462.41797 422.4375 C -461.89096 421.58478 -459.9308 420.93609 -458.0625 420.99609 z M -590.14258 423.98828 C -589.28986 423.98828 -589.02377 424.68634 -589.55078 425.53906 C -590.07779 426.39179 -591.20586 427.08984 -592.05859 427.08984 C -592.91131 427.08984 -593.1774 426.39179 -592.65039 425.53906 C -592.12338 424.68634 -590.9953 423.98828 -590.14258 423.98828 z M -578.60547 423.98828 C -577.27603 423.98828 -576.61947 424.68634 -577.14648 425.53906 C -577.67349 426.39179 -578.76205 427.08984 -579.56445 427.08984 C -580.36684 427.08984 -581.02344 426.39179 -581.02344 425.53906 C -581.02344 424.68634 -579.93488 423.98828 -578.60547 423.98828 z M -447.17188 471.1875 C -446.70044 471.21163 -446.58435 471.51907 -446.92383 472.06836 C -447.44479 472.91131 -448.52768 473.60156 -449.33008 473.60156 C -451.56022 473.60156 -451.06876 472.48967 -448.38281 471.45898 C -447.86543 471.26044 -447.45474 471.17302 -447.17188 471.1875 z M -588.86719 475.15234 C -587.96415 475.15234 -587.22461 475.84845 -587.22461 476.70117 C -587.22461 477.55389 -587.53217 478.25195 -587.9082 478.25195 C -588.28424 478.25195 -589.02377 477.55389 -589.55078 476.70117 C -590.07779 475.84845 -589.77024 475.15234 -588.86719 475.15234 z M -458.63281 489.10547 C -457.72977 489.10547 -456.99023 489.80353 -456.99023 490.65625 C -456.99023 491.50898 -457.2978 492.20703 -457.67383 492.20703 C -458.04987 492.20703 -458.7894 491.50898 -459.31641 490.65625 C -459.84342 489.80353 -459.53586 489.10547 -458.63281 489.10547 z M -952.82227 532.54102 C -951.38033 532.52796 -949.77115 533.21369 -949.24414 534.06641 C -948.03145 536.0286 -950.08287 536.0286 -953.11914 534.06641 C -955.12332 532.77121 -955.08163 532.56152 -952.82227 532.54102 z M -458.24609 572.85156 C -456.80416 572.83851 -455.19304 573.52423 -454.66602 574.37695 C -453.45333 576.33913 -455.50476 576.33913 -458.54102 574.37695 C -460.5452 573.08174 -460.50544 572.87206 -458.24609 572.85156 z M -574.15625 597.63281 C -583.86027 597.63281 -588.71593 601.0871 -588.86523 608.09766 C -588.91519 610.44264 -589.80971 620.90965 -590.85156 631.35547 C -592.53087 648.19267 -592.4765 650.35274 -590.37305 650.39844 C -588.62087 650.43653 -588.91217 651.2103 -591.48828 653.35938 C -593.4069 654.95995 -594.97656 657.36881 -594.97656 658.71094 C -594.97656 660.05306 -597.02228 663.43005 -599.52344 666.21484 C -602.82641 669.8924 -604.5419 670.8141 -605.79102 669.58398 C -607.04802 668.34608 -606.86696 667.35684 -605.11914 665.90625 C -602.26852 663.54045 -602.20842 662.72409 -604.44922 657.03711 C -605.39507 654.63661 -606.30033 650.23061 -606.46289 647.24609 C -606.62545 644.26157 -607.71229 633.44748 -608.87695 623.21484 C -611.51565 600.03127 -613.11705 597.62125 -625.86719 597.65625 C -630.6217 597.6693 -635.461 598.28257 -636.62109 599.01758 C -639.31947 600.72726 -638.82535 605.41318 -631.65625 646.11328 C -628.53675 663.82311 -625.98438 678.99714 -625.98438 679.83398 C -625.98437 680.67082 -624.41471 681.3772 -622.49609 681.4043 C -619.17153 681.45129 -619.14238 681.55526 -621.87695 683.62695 C -624.63222 685.71432 -624.6463 686.43668 -622.24023 701.79492 C -619.60878 718.59184 -616.96712 733.05504 -615.72461 737.45703 C -615.31887 738.89448 -613.7979 740.38338 -612.3457 740.76562 C -610.89352 741.14787 -606.11865 741.54173 -601.73633 741.64062 C -589.56176 741.91543 -588.08144 739.85154 -585.20117 718.59375 C -583.61346 706.87561 -583.30762 700.16663 -584.30664 698.96289 C -585.29741 697.76959 -585.29531 696.80801 -584.30078 696.19336 C -583.46259 695.67532 -581.67628 691.46283 -580.33008 686.83203 C -578.98387 682.20123 -577.14916 677.95954 -576.25391 677.40625 C -573.79093 675.88403 -568.61914 681.34636 -568.61914 685.4707 C -568.61914 687.89063 -567.71216 689.11506 -565.90625 689.13086 C -563.76923 689.14956 -563.64461 689.44048 -565.32031 690.50195 C -568.33981 692.41468 -561.84572 737.00761 -558.12891 739.88281 C -554.53475 742.66314 -539.05221 742.34575 -534.85547 739.40625 C -532.74522 737.92816 -531.41031 735.37562 -531.41016 732.81836 C -531.41 730.52172 -530.33102 723.06005 -529.01367 716.23828 C -527.69633 709.41652 -526.00647 699.30049 -525.25781 693.75781 C -522.40075 672.60564 -517.52265 641.46948 -516.73633 639.36523 C -516.28493 638.15726 -514.61271 629.49321 -513.01953 620.11328 C -509.3589 598.56111 -509.75701 597.62475 -522.55078 597.65625 C -527.85028 597.6693 -533.1765 598.30897 -534.38867 599.07617 C -536.58926 600.46897 -540.82698 626.20112 -543.14258 652.24219 C -544.03464 662.27426 -544.70344 664.37368 -547.26758 665.1875 C -548.95077 665.72172 -550.83256 665.56604 -551.45117 664.8418 C -553.44726 662.50485 -556.51627 651.08098 -555.9707 648.01758 C -555.60833 645.9828 -556.9086 644.29365 -560.0918 642.66602 L -564.74414 640.28906 L -560.38086 639.7793 C -556.56811 639.33401 -556.12025 638.74553 -556.81641 635.11719 C -557.25446 632.83407 -558.45269 624.45739 -559.47852 616.5 C -560.52318 608.39638 -562.30943 601.06361 -563.54102 599.83203 C -564.89914 598.47391 -568.9578 597.63281 -574.15625 597.63281 z M -831.54492 597.69531 C -840.77584 597.58131 -851.13856 598.55303 -852.86523 600.47656 C -854.18196 601.94341 -856.9357 613.11482 -859.23438 626.31641 C -861.46155 639.10722 -864.99266 658.64119 -867.08008 669.72656 C -869.16749 680.81192 -872.68611 699.55169 -874.90039 711.36914 C -877.11467 723.1866 -879.2646 733.73591 -879.67773 734.8125 C -880.09085 735.88908 -879.29137 737.90588 -877.90234 739.29492 C -874.73448 742.46279 -853.62432 742.92663 -851.14258 739.88281 C -850.27352 738.81691 -848.67092 734.93804 -847.58008 731.26367 C -845.19518 723.23032 -842.15876 721.34947 -832.58594 721.9707 L -825.33789 722.44141 L -822.94922 730.48828 C -821.6354 734.91402 -819.98682 739.09179 -819.28516 739.77344 C -817.46167 741.54493 -796.27843 741.76884 -793.04102 740.05078 C -791.54876 739.25885 -790.32812 736.89053 -790.32812 734.78711 C -790.32812 729.9056 -796.38229 698.63159 -798.12109 694.5332 C -798.84465 692.82776 -801.95449 676.78213 -805.03125 658.875 C -814.27894 605.05213 -814.84824 602.17109 -816.6582 599.99023 C -817.87144 598.52836 -824.36532 597.78398 -831.54492 597.69531 z M -839.25586 627.0918 C -837.07374 627.0918 -835.28906 627.35864 -835.28906 627.68555 C -835.28906 629.06188 -841.56116 629.78134 -842.35547 628.49609 C -842.83301 627.72342 -841.43799 627.0918 -839.25586 627.0918 z M -579.60156 644.33594 C -579.06296 644.35811 -578.59939 644.50218 -578.3418 644.75977 C -577.82661 645.27495 -578.74258 645.64152 -580.37695 645.57422 C -582.18309 645.49983 -582.55126 645.13164 -581.31445 644.63672 C -580.75486 644.41275 -580.14017 644.31376 -579.60156 644.33594 z M -833.83789 649.05469 C -832.13445 648.90928 -830.86119 651.52819 -830.0293 656.89844 C -829.46469 660.54329 -828.73916 665.27054 -828.41602 667.40234 C -827.15254 675.73781 -826.93579 693.08416 -828.07227 694.92188 C -828.73142 695.98777 -832.25848 696.85938 -835.91016 696.85938 L -842.54883 696.85938 L -842.83398 688.78711 C -842.99113 684.34712 -843.83391 680.2728 -844.70508 679.73438 C -845.6908 679.12518 -845.38158 678.00464 -843.88867 676.76562 C -842.54108 675.64723 -841.4792 672.30969 -841.4668 669.15039 C -841.44127 662.99803 -838.33318 652.77264 -835.68359 650.12305 C -835.02046 649.45991 -834.4057 649.10316 -833.83789 649.05469 z M -562.49414 657.44727 C -562.04341 657.42639 -561.49707 657.48567 -560.86719 657.65039 C -559.16175 658.09638 -557.76758 659.07682 -557.76758 659.83008 C -557.76758 661.3082 -558.97668 661.40637 -562.03125 660.17383 C -564.61011 659.13323 -564.44733 657.53771 -562.49414 657.44727 z M -578.78906 659.65039 C -577.5603 659.65039 -576.12271 660.3465 -575.5957 661.19922 C -575.06869 662.05194 -576.07431 662.75 -577.83008 662.75 C -579.58584 662.75 -581.02344 662.05194 -581.02344 661.19922 C -581.02344 660.3465 -580.01781 659.65039 -578.78906 659.65039 z M -585.58203 662.75 C -584.77964 662.75 -584.12305 663.44806 -584.12305 664.30078 C -584.12305 665.1535 -585.21162 665.85156 -586.54102 665.85156 C -587.87046 665.85156 -588.52701 665.1535 -588 664.30078 C -587.47299 663.44806 -586.38443 662.75 -585.58203 662.75 z M -567.26758 662.79883 C -565.14769 662.84026 -565.22558 663.21267 -567.75391 665.125 C -571.67109 668.08779 -574.19447 668.0569 -571.7207 665.07617 C -570.65915 663.79709 -568.65543 662.77173 -567.26758 662.79883 z M -615.81641 665.85156 C -615.44038 665.85156 -615.13281 666.54962 -615.13281 667.40234 C -615.13281 668.25506 -615.8704 668.95117 -616.77344 668.95117 C -617.67649 668.95117 -617.98404 668.25506 -617.45703 667.40234 C -616.93002 666.54962 -616.19245 665.85156 -615.81641 665.85156 z M -591.78516 665.85156 C -590.88211 665.85156 -590.57455 666.54962 -591.10156 667.40234 C -591.62857 668.25506 -592.36615 668.95117 -592.74219 668.95117 C -593.11822 668.95117 -593.42578 668.25506 -593.42578 667.40234 C -593.42578 666.54962 -592.6882 665.85156 -591.78516 665.85156 z M -590.32617 670.50195 C -589.47345 670.50195 -588.77539 671.20001 -588.77539 672.05273 C -588.77539 672.90545 -589.47345 673.60352 -590.32617 673.60352 C -591.17889 673.60352 -591.875 672.90545 -591.875 672.05273 C -591.875 671.20001 -591.17889 670.50195 -590.32617 670.50195 z M -568.56445 673.97266 C -566.9267 674.03817 -565.50138 675.41914 -566.36133 676.81055 C -566.85193 677.60434 -567.86707 678.25391 -568.61914 678.25391 C -570.79044 678.25391 -571.92922 675.46613 -570.19531 674.39453 C -569.67904 674.07545 -569.11037 673.95082 -568.56445 673.97266 z M -584.80664 675.1543 C -584.43061 675.1543 -584.12305 675.85041 -584.12305 676.70312 C -584.12305 677.55585 -584.86258 678.25391 -585.76562 678.25391 C -586.66868 678.25391 -586.97623 677.55584 -586.44922 676.70312 C -585.92221 675.8504 -585.18268 675.1543 -584.80664 675.1543 z M -602.63672 676.70312 C -601.73368 676.70313 -601.42611 677.40119 -601.95312 678.25391 C -602.48014 679.10663 -603.21967 679.80469 -603.5957 679.80469 C -603.97174 679.80469 -604.2793 679.10663 -604.2793 678.25391 C -604.2793 677.40119 -603.53977 676.70312 -602.63672 676.70312 z M -553.66992 677.16797 C -553.26632 677.2086 -553.6127 677.76027 -554.63672 678.99414 C -556.8695 681.68446 -557.76758 681.96445 -557.76758 679.9707 C -557.76758 679.2092 -556.62235 678.14648 -555.22266 677.60938 C -554.4247 677.30317 -553.91208 677.14359 -553.66992 677.16797 z M -545.05273 677.47656 C -542.04399 677.40432 -540.47231 679.97417 -542.54102 682.4668 C -543.9421 684.1549 -548.21129 685.28613 -548.58398 684.06836 C -549.78854 680.13242 -549.20339 678.40459 -546.42383 677.67773 C -545.94178 677.55168 -545.48256 677.48688 -545.05273 677.47656 z M -584.89844 681.35547 C -582.58724 681.35547 -581.25322 682.02346 -581.79883 682.90625 C -582.32584 683.75897 -583.72001 684.45508 -584.89844 684.45508 C -586.07687 684.45508 -587.47299 683.75897 -588 682.90625 C -588.5456 682.02346 -587.20964 681.35547 -584.89844 681.35547 z M -601.86133 684.45508 C -601.4853 684.45508 -601.17773 685.15313 -601.17773 686.00586 C -601.17773 686.85858 -601.91727 687.55664 -602.82031 687.55664 C -603.72336 687.55664 -604.03092 686.85858 -603.50391 686.00586 C -602.9769 685.15313 -602.23737 684.45508 -601.86133 684.45508 z M -846.8418 689.85352 C -845.75404 689.84917 -844.5918 690.50068 -844.5918 691.52344 C -844.5918 691.89948 -845.6784 692.20703 -847.00781 692.20703 C -848.33728 692.20703 -848.98677 691.49944 -848.45117 690.63281 C -848.1193 690.09584 -847.49445 689.85612 -846.8418 689.85352 z M -555.25781 690.6582 C -553.97881 690.6582 -553.36361 691.35431 -553.89062 692.20703 C -554.41763 693.05975 -555.8967 693.75781 -557.17578 693.75781 C -558.45479 693.75781 -559.06998 693.05975 -558.54297 692.20703 C -558.01596 691.35431 -556.5369 690.6582 -555.25781 690.6582 z M -820.56055 690.70508 C -819.70783 690.70508 -817.96267 691.38042 -816.68359 692.20703 C -815.40451 693.03364 -815.05548 693.71094 -815.9082 693.71094 C -816.76092 693.71094 -818.50607 693.03364 -819.78516 692.20703 C -821.06424 691.38042 -821.41327 690.70508 -820.56055 690.70508 z M -593.72266 695.33203 C -591.46331 695.35249 -591.42159 695.56417 -593.42578 696.85938 C -596.46204 698.82157 -598.51543 698.82156 -597.30273 696.85938 C -596.77572 696.00666 -595.16459 695.31963 -593.72266 695.33203 z M -552.25 696.85938 C -550.92056 696.85938 -550.264 697.55744 -550.79102 698.41016 C -551.31803 699.26288 -552.40464 699.95898 -553.20703 699.95898 C -554.00943 699.95898 -554.66602 699.26288 -554.66602 698.41016 C -554.66602 697.55744 -553.57941 696.85938 -552.25 696.85938 z M -820.26367 698.43359 C -819.2481 698.42054 -817.986 699.10626 -817.45898 699.95898 C -816.26936 701.88385 -816.80665 701.88385 -819.78516 699.95898 C -821.18252 699.05594 -821.37315 698.44759 -820.26367 698.43359 z M -822.29297 704.61133 C -821.01389 704.61133 -819.53678 705.30939 -819.00977 706.16211 C -818.48275 707.01483 -819.09787 707.71094 -820.37695 707.71094 C -821.65603 707.71094 -823.13315 707.01483 -823.66016 706.16211 C -824.18717 705.30939 -823.57205 704.61133 -822.29297 704.61133 z M -846.23242 709.26172 C -845.32937 709.26172 -844.5918 709.95978 -844.5918 710.8125 C -844.5918 711.66522 -844.89935 712.36328 -845.27539 712.36328 C -845.65142 712.36328 -846.38901 711.66522 -846.91602 710.8125 C -847.44303 709.95978 -847.13546 709.26172 -846.23242 709.26172 z M -457.67383 749.57227 C -457.2978 749.57227 -456.99023 750.27033 -456.99023 751.12305 C -456.99023 751.97577 -457.72977 752.67383 -458.63281 752.67383 C -459.53586 752.67383 -459.84342 751.97577 -459.31641 751.12305 C -458.7894 750.27033 -458.04987 749.57227 -457.67383 749.57227 z M -457.11914 766.81836 C -456.58053 766.84053 -456.11892 766.98264 -455.86133 767.24023 C -455.34615 767.75542 -456.26016 768.12199 -457.89453 768.05469 C -459.70067 767.98031 -460.06883 767.61406 -458.83203 767.11914 C -458.27244 766.89518 -457.65775 766.79618 -457.11914 766.81836 z M -870.94727 791.43359 C -870.09455 791.43359 -869.39844 792.13166 -869.39844 792.98438 C -869.39844 793.8371 -870.09455 794.53516 -870.94727 794.53516 C -871.79999 794.53516 -872.49805 793.83709 -872.49805 792.98438 C -872.49805 792.13166 -871.79999 791.43359 -870.94727 791.43359 z M -920.68945 799.37695 C -920.15085 799.39913 -919.68728 799.54124 -919.42969 799.79883 C -918.91451 800.31402 -919.83046 800.68058 -921.46484 800.61328 C -923.27097 800.5389 -923.63914 800.17265 -922.40234 799.67773 C -921.84274 799.45377 -921.22806 799.35478 -920.68945 799.37695 z M -723.60352 801.10547 C -721.96576 801.17099 -720.54044 802.55195 -721.40039 803.94336 C -721.89098 804.73715 -722.9081 805.38672 -723.66016 805.38672 C -725.83147 805.38672 -726.97024 802.59895 -725.23633 801.52734 C -724.72005 801.20827 -724.14943 801.08363 -723.60352 801.10547 z M -825.13672 853.44922 C -835.82348 853.44922 -835.61364 853.2782 -837.43359 863.52734 C -839.49003 875.10836 -845.02194 904.96159 -847.16797 916.06055 C -849.13714 926.2448 -849.18426 928.5019 -847.44922 929.60156 C -844.37563 931.54957 -836.18876 931.24929 -834.04883 929.10938 C -833.02557 928.08611 -832.1875 925.97057 -832.1875 924.4082 C -832.1875 921.2675 -826.82319 918.63773 -822.64453 919.73047 C -821.16918 920.11628 -819.51744 922.45435 -818.97461 924.92578 C -818.4318 927.39723 -817.52101 929.45871 -816.94922 929.50781 C -816.37745 929.55693 -813.4334 929.86064 -810.4082 930.18164 C -800.95767 931.18436 -800.38678 929.95248 -803.4707 915.24219 C -806.22466 902.10581 -807.15627 897.21154 -811.39453 873.60547 C -812.69587 866.35735 -814.08248 858.85612 -814.47656 856.9375 C -815.12982 853.75698 -816.07075 853.44922 -825.13672 853.44922 z M -699.04297 853.44922 C -703.56947 853.44922 -705.05469 854.0752 -705.05469 855.98047 C -705.05469 861.56138 -698.14018 897.67102 -696.97852 898.15625 C -696.29378 898.44226 -696.08417 899.24179 -696.51172 899.93359 C -697.82996 902.06654 -692.63284 928.46994 -690.64648 929.73242 C -687.47315 931.74927 -680.59555 931.09555 -678.0332 928.5332 C -676.6932 927.19322 -675.46102 923.53134 -675.29492 920.39453 C -674.70395 909.23464 -674.4321 906.90095 -673.35938 903.83789 C -671.51686 898.57677 -670.22891 896.61049 -668.79492 896.87305 C -668.03755 897.01174 -666.76926 896.19343 -665.97852 895.05469 C -664.9822 893.61991 -664.82918 894.01479 -665.48047 896.3418 C -665.99737 898.18867 -665.68451 900.15585 -664.7832 900.71289 C -663.88185 901.26993 -663.50399 902.31131 -663.94531 903.02539 C -664.38665 903.73947 -663.91779 909.66758 -662.90234 916.19922 C -660.83754 929.48048 -658.63554 931.91422 -650.12891 930.31836 C -645.20845 929.39528 -645.1155 929.2119 -643.11328 916.60938 C -641.99722 909.58455 -639.11037 893.02855 -636.69922 879.81836 C -634.28806 866.60817 -632.89297 855.22422 -633.59766 854.51953 C -634.30235 853.81495 -637.5864 853.45912 -640.89648 853.73047 L -646.91602 854.22461 L -648.75586 865.07812 C -649.76838 871.04716 -650.81547 878.8942 -651.08203 882.51758 C -651.44868 887.50134 -652.2096 889.10647 -654.20898 889.10742 C -656.00439 889.10826 -657.18067 887.36125 -657.875 883.66016 C -658.43714 880.66364 -660.03848 877.54526 -661.43359 876.73047 C -663.72647 875.39137 -663.73115 875.24572 -661.48438 875.20312 C -659.42849 875.16413 -659.12693 873.74797 -659.74414 867.01562 C -660.80795 855.41219 -662.18903 853.44922 -669.28516 853.44922 C -676.57669 853.44922 -677.14603 854.62161 -677.9668 871.2793 C -678.47302 881.55317 -679.22463 884.48128 -682.34375 888.33398 L -686.10938 892.98438 L -685.98047 889.10938 C -685.75979 882.46091 -689.83897 857.42331 -691.47461 855.38672 C -692.33066 854.32082 -695.73651 853.44922 -699.04297 853.44922 z M -922.66016 853.75 C -923.42535 853.76416 -924.21488 853.79392 -925.0293 853.83984 C -933.961 854.34347 -935.37395 854.90024 -939.54492 859.56836 C -943.76089 864.28685 -944.1016 865.49263 -943.45117 873.33594 C -942.74471 881.85488 -942.61854 882.04457 -929.32422 894.44336 C -915.31627 907.50769 -912.99154 912.24397 -919.00977 915.46484 C -923.12652 917.66805 -927.96322 915.07629 -929.24219 909.98047 C -930.93872 903.22093 -944.1729 902.42268 -945.10742 909.02344 C -946.26662 917.21117 -939.32086 926.4183 -929.86328 929.23047 C -921.88841 931.60174 -913.40613 930.24351 -907.35352 925.62695 C -901.40159 921.08718 -899.27513 915.22156 -900.17188 905.81836 C -900.77461 899.49807 -903.36563 896.32507 -922.54492 878.40625 C -924.91523 876.1917 -927.74044 872.63571 -928.82227 870.50391 C -930.71518 866.77386 -930.61079 866.63488 -926.0625 866.83203 C -923.46307 866.9447 -920.44638 867.12024 -919.35938 867.2207 C -918.27237 867.32121 -916.72067 869.1475 -915.91016 871.2793 C -914.67256 874.53443 -913.42779 875.1543 -908.14648 875.1543 C -900.63698 875.1543 -899.60499 873.32902 -902.42188 865.0293 C -905.1691 856.93487 -911.18231 853.53757 -922.66016 853.75 z M -893.42969 854.22461 L -893.42969 891.75977 C -893.42969 928.05283 -893.32631 929.31661 -890.32812 929.92188 C -883.10485 931.38009 -878.79165 930.85938 -877.39258 928.35938 C -876.58888 926.92325 -876.2995 920.3938 -876.74805 913.84961 C -877.68871 900.1256 -877.04715 899.22762 -866.29688 899.20312 L -859.32031 899.18555 L -858.83203 892.36328 C -858.25408 884.2854 -860.06342 882.63117 -868.08594 883.90625 C -872.74782 884.6472 -874.05383 884.24378 -875.45117 881.63281 C -877.97208 876.92244 -877.5105 870.85946 -874.50195 869.17578 C -873.04535 868.36063 -868.31335 868.05948 -863.98828 868.50586 C -854.66185 869.46844 -851.87078 867.22279 -852.625 859.36523 L -853.11914 854.22461 L -873.27344 854.22461 L -893.42969 854.22461 z M -522.10742 861.03125 L -529.375 861.50391 L -536.64062 861.97656 L -536.43359 895.16797 C -536.27433 920.56658 -535.75056 928.66035 -534.20508 929.64062 C -531.78321 931.17677 -530.23163 931.23415 -525.48438 929.96289 C -522.053 929.04401 -521.90906 928.4385 -522.38477 917 C -522.77264 907.67332 -522.43648 905.17036 -520.87891 905.77148 C -518.36384 906.74213 -513.53791 916.14774 -512.07227 922.93555 C -510.85161 928.58883 -510.12371 929.06998 -501.43945 929.96094 C -493.56136 930.76917 -492.76589 928.21255 -497.74219 918.08008 C -504.11763 905.0988 -508.15743 895.09912 -508.11523 892.40039 C -508.09365 891.01653 -505.30336 884.3104 -501.91406 877.49805 C -498.52476 870.6857 -495.75195 864.23156 -495.75195 863.15625 C -495.75195 861.87067 -498.15778 861.20117 -502.77734 861.20117 C -508.08455 861.20117 -510.02642 861.86444 -510.7207 863.91406 C -511.22618 865.40632 -513.37211 870.46434 -515.48828 875.1543 C -518.77981 882.44917 -519.52056 883.2347 -520.61328 880.58203 C -521.31582 878.87658 -521.93805 873.77936 -521.99805 869.25586 L -522.10742 861.03125 z M -780.81445 861.20117 C -788.50421 861.20117 -795.10911 861.72569 -795.49219 862.36523 C -795.87528 863.00477 -795.74125 871.56263 -795.19531 881.38477 C -794.64937 891.2069 -794.55216 905.72193 -794.97852 913.63867 C -795.40488 921.55539 -795.22046 928.56309 -794.56836 929.21289 C -793.91627 929.8627 -790.42793 930.24391 -786.81641 930.05859 L -780.25 929.7207 L -780.25 918.33008 C -780.25 912.0648 -779.74375 906.15981 -779.125 905.20898 C -778.50625 904.25815 -775.13848 903.0961 -771.64062 902.62695 C -768.14279 902.15778 -763.93582 900.55903 -762.29297 899.07227 C -754.81384 892.30375 -754.9494 873.08577 -762.5293 865.50586 C -766.59778 861.43739 -767.59758 861.20117 -780.81445 861.20117 z M -610.6582 861.20117 C -626.24908 861.20117 -629.86133 867.76231 -629.86133 896.08594 C -629.86133 919.13429 -628.36724 923.91224 -619.78125 928.33984 C -613.89045 931.37759 -602.60285 930.98067 -598.51953 927.5918 C -592.47439 922.57479 -591.16213 916.72933 -591.27344 895.31055 C -591.42317 866.52544 -594.44832 861.20117 -610.6582 861.20117 z M -473.35156 861.38086 C -482.65923 861.48679 -487.53281 864.71256 -489.69336 871.92383 C -492.49586 881.27774 -490.455 885.71345 -477.8125 897.75391 C -469.34998 905.81344 -466.29297 909.7767 -466.29297 912.68945 C -466.29297 918.46147 -471.61234 919.40245 -475.59766 914.33594 C -477.30236 912.16877 -478.69727 909.79241 -478.69727 909.05469 C -478.69727 908.31696 -481.41278 907.71289 -484.73242 907.71289 C -492.62723 907.71289 -493.75765 910.81177 -489.20703 919.9707 C -486.30561 925.8103 -484.56387 927.41095 -479.47266 928.9082 C -467.74216 932.35801 -460.47396 930.45921 -454.02734 922.26367 C -446.75741 913.02145 -450.97276 900.99659 -465.58984 889.2832 C -471.0929 884.8733 -475.5957 880.14278 -475.5957 878.76953 C -475.5957 877.39629 -476.81633 875.28507 -478.30859 874.07812 C -480.7708 872.08667 -480.70727 872.03503 -477.62695 873.52344 C -475.49298 874.55462 -473.89199 874.61221 -473.31445 873.67773 C -472.02853 871.59707 -465.51758 874.24242 -465.51758 876.8457 C -465.51758 879.51702 -458.22662 882.16214 -454.64844 880.78906 C -452.49605 879.96312 -452.13208 878.58656 -452.86719 874.05664 C -454.25802 865.48595 -458.38459 862.2975 -469.08594 861.52344 C -470.60158 861.41381 -472.0219 861.36573 -473.35156 861.38086 z M -560.14258 861.39258 C -562.2804 861.37415 -564.95335 861.43389 -568.38281 861.53516 L -583.34961 861.97656 L -583.76953 895.19922 C -584.01299 914.42962 -583.58389 928.79315 -582.75195 929.30664 C -581.96149 929.79454 -578.70466 930.19531 -575.51367 930.19531 C -568.31222 930.19531 -567.403 928.09875 -568.24609 913.43945 C -568.92835 901.5766 -567.21181 898.54375 -562.22852 902.81055 C -560.03993 904.68449 -559.31212 907.42795 -559.29492 913.87305 C -559.26258 925.9987 -556.8754 930.01719 -549.55273 930.27148 C -546.32904 930.38342 -543.37596 929.96665 -542.99219 929.3457 C -541.93972 927.64277 -545.10924 904.42818 -547.03711 899.7168 C -548.39005 896.41043 -548.19519 894.79117 -546.05664 891.52734 C -541.87077 885.13892 -543.75575 869.40015 -549.27539 864.65234 C -552.12067 862.20496 -553.72912 861.44785 -560.14258 861.39258 z M -734.54297 861.44727 C -735.53132 861.45863 -736.5646 861.48417 -737.64062 861.52148 L -750.79102 861.97656 L -751.16016 895.23047 C -751.40124 917.00782 -750.96992 928.82866 -749.91211 929.48242 C -747.93174 930.70635 -737.88559 930.20785 -736.49414 928.81641 C -735.93888 928.26113 -735.44082 922.41529 -735.38672 915.82617 L -735.28711 903.84766 L -728.44922 902.92969 C -718.19279 901.55414 -712.80664 894.90123 -712.80664 883.60742 C -712.80664 873.24009 -715.6915 865.76452 -720.73242 863.07031 C -722.88249 861.92118 -727.62451 861.36775 -734.54297 861.44727 z M -563.4375 873.81055 C -561.42418 873.78869 -560.30971 874.87282 -559.23438 877.70117 C -558.33306 880.07199 -557.97514 883.52498 -558.43945 885.375 C -559.44963 889.39986 -564.71978 891.16526 -567.11328 888.28125 C -568.05238 887.14972 -568.60022 883.55993 -568.33203 880.30273 C -567.93853 875.5239 -567.17228 874.28429 -564.35938 873.88477 C -564.03263 873.83836 -563.72512 873.81367 -563.4375 873.81055 z M -732.40234 873.9668 C -728.98583 874.05706 -726.69895 878.4058 -727.13477 884.57812 C -727.4744 889.38811 -728.09402 890.26853 -731.14648 890.26953 C -735.12784 890.2709 -735.58821 889.46091 -736.41992 880.97461 C -736.88123 876.26773 -736.40991 874.98189 -733.93164 874.19531 C -733.40215 874.02726 -732.89042 873.9539 -732.40234 873.9668 z M -776.37305 874.38086 C -772.77534 874.38086 -772.48415 874.94212 -772.31055 882.20508 C -772.15503 888.71112 -772.59446 890.06505 -774.91992 890.24023 C -779.13869 890.55801 -781.27956 886.9001 -780.73633 880.30273 C -780.31198 875.14935 -779.74587 874.38086 -776.37305 874.38086 z M -611.54688 875.30859 C -610.92271 875.29909 -610.19744 875.57543 -609.36133 876.0957 C -607.03074 877.54592 -606.5359 880.51108 -606.16406 895.25391 C -605.87326 906.78407 -606.33262 913.42767 -607.51758 914.85547 C -612.58108 920.95661 -615.13592 914.28058 -615.10742 895.02539 C -615.08625 880.76564 -614.25159 875.34977 -611.54688 875.30859 z M -824.43945 881.24609 C -824.14889 881.2699 -823.86027 881.41512 -823.57812 881.69727 C -823.07805 882.19735 -822.26924 887.90676 -821.7793 894.38477 L -820.88672 906.16406 L -824.88867 906.16406 C -828.26999 906.16406 -828.96642 905.38279 -829.37695 901.125 C -830.24168 892.15659 -827.24819 881.01601 -824.43945 881.24609 z M -651.74023 895.9043 C -651.18427 895.92892 -650.79102 896.54786 -650.79102 897.54492 C -650.79102 898.87433 -651.48908 899.96094 -652.3418 899.96094 C -653.19452 899.96094 -653.89258 899.30435 -653.89258 898.50195 C -653.89258 897.69956 -653.19452 896.61295 -652.3418 896.08594 C -652.12862 895.95418 -651.92556 895.89609 -651.74023 895.9043 z "
       id="path4801" />
  </g>
</svg>
