<?xml version="1.0" encoding="UTF-8" standalone="no"?>
<!-- Created with Inkscape (http://www.inkscape.org/) -->

<svg
   xmlns:dc="http://purl.org/dc/elements/1.1/"
   xmlns:cc="http://creativecommons.org/ns#"
   xmlns:rdf="http://www.w3.org/1999/02/22-rdf-syntax-ns#"
   xmlns:svg="http://www.w3.org/2000/svg"
   xmlns="http://www.w3.org/2000/svg"
   xmlns:sodipodi="http://sodipodi.sourceforge.net/DTD/sodipodi-0.dtd"
   xmlns:inkscape="http://www.inkscape.org/namespaces/inkscape"
   width="210mm"
   height="297mm"
   viewBox="0 0 744.09448819 1052.3622047"
   id="svg2"
   version="1.1"
   inkscape:version="0.91 r13725"
   sodipodi:docname="logo.svg">
  <defs
     id="defs4" />
  <sodipodi:namedview
     id="base"
     pagecolor="#ffffff"
     bordercolor="#666666"
     borderopacity="1.0"
     inkscape:pageopacity="0.0"
     inkscape:pageshadow="2"
     inkscape:zoom="0.35"
     inkscape:cx="-295.41289"
     inkscape:cy="738.83999"
     inkscape:document-units="mm"
     inkscape:current-layer="layer1"
     showgrid="false"
     inkscape:window-width="1440"
     inkscape:window-height="837"
     inkscape:window-x="-4"
     inkscape:window-y="-4"
     inkscape:window-maximized="1" />
  <metadata
     id="metadata7">
    <rdf:RDF>
      <cc:Work
         rdf:about="">
        <dc:format>image/svg+xml</dc:format>
        <dc:type
           rdf:resource="http://purl.org/dc/dcmitype/StillImage" />
        <dc:title></dc:title>
      </cc:Work>
    </rdf:RDF>
  </metadata>
  <g
     inkscape:label="Layer 1"
     inkscape:groupmode="layer"
     id="layer1">
    <path
       style="fill:#000000"
       d="M 395.52734 79.943359 C 384.19941 79.918859 381.97949 81.677281 377.25977 90.173828 C 374.0006 96.041048 366.53517 103.55091 360.66797 106.86328 C 352.65232 111.38856 350.16969 115.25933 350.68164 122.43359 C 351.05639 127.68495 350.04888 131.98242 348.44336 131.98242 C 346.83788 131.98242 344.58669 138.90376 343.44141 147.36328 C 340.49633 169.11677 347.60617 179.0293 366.1543 179.0293 C 373.95284 179.0293 381.34013 180.65796 382.57031 182.64844 C 386.91578 189.67956 408.98006 186.72751 414.86328 178.32812 C 419.77951 171.30912 419.8024 169.70256 415.06055 164.46289 C 412.11076 161.20342 410.74801 157.48635 412.03125 156.20312 C 413.31446 154.91989 412.41797 151.52462 410.03906 148.6582 C 406.57249 144.48122 407.00963 143.08514 412.23828 141.62109 C 415.82643 140.61639 422.31072 138.77777 426.64844 137.53516 C 433.20271 135.65759 434.73061 136.91843 435.69531 145 C 438.48165 168.3418 467.52628 160.45569 467.73438 136.30078 C 467.79768 128.94936 470.23972 119.77197 473.16211 115.9082 C 487.45242 97.014737 473.81763 82.008567 441.60742 81.179688 C 429.04252 80.856347 410.75776 80.347508 400.97461 80.048828 C 398.95071 79.987038 397.14561 79.946858 395.52734 79.943359 z M 294.39844 138.65625 C 293.81108 138.68275 293.0601 139.18794 292.11719 140.13086 C 289.61665 142.63139 288.98248 149.19734 290.47266 157.14062 C 292.87277 169.9343 293.09912 170.07617 311.04297 170.07617 C 322.21798 170.07617 328.32869 168.68591 326.95117 166.45703 C 325.72099 164.46655 320.41502 162.83789 315.1582 162.83789 C 307.72435 162.83789 306.56364 161.87387 309.94141 158.49609 C 312.32998 156.10752 314.28516 151.78284 314.28516 148.88672 C 314.28516 144.5424 313.12629 144.66984 307.66602 149.61133 C 298.49727 157.90895 296.18945 157.14904 296.18945 145.83008 C 296.18945 140.85281 295.69064 138.59802 294.39844 138.65625 z M 426.72461 141.4375 C 425.55074 141.4415 424.1177 141.62111 422.38086 141.95312 C 411.876 143.96125 412.18122 143.09131 417.38867 156.17383 C 419.61905 161.77722 421.9116 169.97216 422.48438 174.38477 C 423.05716 178.79737 427.04281 187.34737 431.3418 193.38477 C 435.64079 199.42216 440.31451 204.36328 441.72656 204.36328 C 443.75728 204.36328 455.29781 197.44749 463.41602 191.36719 C 465.74343 189.62402 446.59959 163.91201 439.02344 158.60547 C 434.84558 155.67919 431.42773 150.34597 431.42773 146.75391 C 431.42773 142.99269 430.24623 141.42577 426.72461 141.4375 z M 271.625 166.84766 C 267.47171 166.81656 263.48603 167.79616 260.09375 169.94141 C 255.59629 172.78558 256.1213 174.76291 263.43945 182.55273 C 273.06065 192.79402 266.77041 195.76411 256.03516 186.04883 C 250.15446 180.7269 248.67628 181.42827 235.84375 195.625 C 228.22898 204.04931 217.35342 217.25514 211.67383 224.97266 C 202.80536 237.02321 202.03474 239.83403 206.2168 244.87305 C 210.50533 250.04044 210.15703 250.44438 203.30469 248.26953 C 196.61162 246.14523 194.23619 248.4769 186.31055 264.93945 C 181.24305 275.46534 176.02978 288.55548 174.72656 294.0293 C 172.64607 302.76763 173.4108 303.98242 180.99219 303.98242 C 193.0898 303.98242 207.50358 293.46645 202.40039 288.36328 C 195.26866 281.23155 198.32608 277.3909 205.77148 284.12891 C 212.93904 290.61546 213.62279 290.17998 244.38672 259.41602 C 275.15069 228.65206 275.58614 227.97028 269.09961 220.80273 C 263.87548 215.03015 263.5958 213.50586 267.76172 213.50586 C 270.65787 213.50586 274.83863 215.31715 277.05273 217.53125 C 283.42309 223.90164 304.39917 193.13005 299.6875 184.32617 C 293.95302 173.61122 282.23898 166.92723 271.625 166.84766 z M 454.24609 214.2168 C 453.00828 214.02504 451.08385 220.08127 449.11719 231.60156 L 446.44336 247.26953 L 421.17383 247.50977 C 388.91917 247.81551 371.13032 257.70737 360.78711 281.08984 C 345.73582 315.11585 365.45211 351.9502 406.9707 367.36914 C 437.51521 378.71257 480.60729 365.77238 496.17578 340.58203 C 513.80145 312.06307 502.19734 279.18659 467.61914 259.67188 C 454.7041 252.38307 449.12459 247.31485 451.45312 244.98633 C 453.78166 242.6578 457.89067 243.44828 463.35742 247.27734 C 473.40303 254.31358 497.53538 254.70813 509.58203 248.0332 L 518.30859 243.19727 L 508.94922 237.06641 C 498.49614 230.2173 480.60221 228.30565 465.57031 232.43359 C 456.22394 235.00022 455.61914 234.46591 455.61914 223.63867 C 455.61914 217.40496 455.09301 214.348 454.24609 214.2168 z M 236.9375 220.85938 C 239.18185 220.79608 243.04551 223.18616 245.52344 226.17188 C 251.24439 233.0652 248.90557 233.11305 239.88086 226.28711 C 236.0171 223.3647 234.69311 220.92268 236.9375 220.85938 z M 259.97656 285.21875 C 237.94865 285.21875 232.32472 286.61102 220.08984 295.08984 C 201.79454 307.76845 193.33203 322.33497 193.33203 341.14844 C 193.33203 379.57658 242.91174 435.41016 277.03516 435.41016 C 287.4861 435.41016 291.09422 437.09458 292.91211 442.82227 C 294.22926 446.97219 293.20196 452.7193 290.57812 455.88086 C 286.66965 460.59026 286.98004 462.32311 292.44922 466.32227 C 299.37828 471.38894 312.55403 468.05824 323.20898 458.54688 C 329.76735 452.69241 325.76924 442.64844 316.88086 442.64844 C 305.90248 442.64844 304.97031 432.92816 314.58789 418.75586 C 330.41576 395.43215 330.95811 361.20294 316.12891 321.56836 C 305.53314 293.24863 293.13033 285.21875 259.97656 285.21875 z M 262.90234 291.11523 C 302.34131 290.93246 310.25643 323.72196 274.18359 348.43945 C 260.34095 357.92458 229.8746 361.80832 215.92188 355.86523 C 211.42712 353.95068 205.82359 348.15459 203.46875 342.98633 C 193.90245 321.99058 222.62944 294.22499 256.85547 291.38672 C 258.9461 291.21335 260.96272 291.12422 262.90234 291.11523 z M 260.76367 308.76758 C 252.52952 308.59958 241.65756 311.35298 235.43945 316.24414 C 225.38758 324.15096 222.80359 335.84156 230.42773 338.91797 C 248.57422 346.24024 279.59604 326.04088 271.16211 312.39453 C 269.69457 310.01999 265.70416 308.86837 260.76367 308.76758 z M 511.71484 436.33008 C 490.1221 436.60555 471.95117 442.78589 443.85938 456.61133 C 425.99743 465.40213 409.49053 471.31953 375.07227 481.27344 C 364.81136 484.24094 353.05945 487.6434 348.95508 488.83398 C 319.25422 497.44947 315.37305 499.66417 315.37305 508.00391 C 315.37305 511.71431 316.46303 513.69456 319.90625 516.24023 C 331.00278 524.44427 343.90679 525.72154 368.35938 521.03906 C 384.84881 517.88147 422.96555 508.5068 432.95898 505.15039 C 440.70504 502.54881 442.66604 502.45892 441.90625 504.73828 C 440.9095 507.72854 391.13515 521.30072 368.35742 524.79297 C 334.98231 529.91001 318.80932 526.27409 312.9082 512.33008 C 311.13627 508.14314 311.16916 506.72929 313.14844 501.99219 C 314.4096 498.97379 314.9216 496.05055 314.28711 495.49609 C 313.03421 494.40122 288.33506 484.68498 266.86719 476.8418 C 259.47933 474.14268 245.08372 468.81924 234.87695 465.01367 C 211.16561 456.17296 205.6803 455.38194 197.06055 459.55469 C 193.42805 461.31317 189.68815 464.44885 188.74023 466.5293 C 184.48548 475.86744 188.94982 487.70452 199.55469 495.20703 C 213.6123 505.15222 312.54913 555.64184 335.52148 564.59375 C 353.07029 571.4322 354.76097 571.70096 365.58008 569.39062 C 370.6204 568.3143 402.13169 558.30992 435.60352 547.1582 C 474.16949 534.30929 498.69407 526.88584 502.55664 526.89062 C 505.90899 526.89562 520.40425 528.95734 534.76953 531.47461 C 549.13481 533.99185 562.5074 536.17193 564.48633 536.31836 C 567.97309 536.57638 568.39654 535.3692 578.18945 497.33008 C 583.74751 475.74077 588.7222 456.13936 589.24219 453.77148 C 590.37434 448.61701 590.09658 448.51504 557.1582 441.83594 C 538.85872 438.12525 524.67048 436.16479 511.71484 436.33008 z M 522.08984 603.46289 C 494.0648 603.45079 451.93389 603.94168 388.02344 604.79297 C 223.52556 606.98405 201.74086 607.93772 195.20703 613.22852 C 185.05285 621.45085 189.44957 634.62466 203.26953 637.38867 C 212.83256 639.30126 213.85511 641.18203 217.45508 663.47656 C 226.75217 721.05325 253.9637 893.74223 259.73438 931.79102 C 263.20605 954.6815 267.793 975.69567 269.92773 978.49023 C 273.17817 982.74532 292.28007 983.21741 387.44727 981.38672 C 449.94841 980.18443 502.37042 977.89689 503.94141 976.30469 C 506.15631 974.0598 557.9052 649.39002 557.9043 637.74414 C 557.90419 636.25128 561.43989 635.0293 565.76172 635.0293 C 574.45753 635.0293 586.85742 625.45762 586.85742 618.74414 C 586.85742 616.37543 583.84499 611.71209 580.16406 608.38086 C 576.31998 604.902 568.79824 603.48299 522.08984 603.46289 z M 528.95117 634.69922 L 528.95117 645.7207 L 528.95117 656.74414 L 503.37891 656.74414 L 477.80469 656.74414 L 478.94922 646.79102 C 480.0581 637.15393 480.86876 636.80574 504.52344 635.76953 L 528.95117 634.69922 z M 432.44336 635.47852 C 450.77865 635.33165 453.96298 638.79091 450.95117 650.79102 C 448.64185 659.99205 447.57415 660.36328 423.37695 660.36328 L 398.20703 660.36328 L 399.3418 648.60156 L 400.47656 636.83789 L 423.63281 635.74805 C 426.8967 635.59422 429.82404 635.49951 432.44336 635.47852 z M 243.04688 638.64844 L 268.38086 638.64844 C 282.31419 638.64844 293.73647 639.87042 293.76367 641.36328 C 293.79087 642.85613 294.79392 647.74018 295.99414 652.21875 C 298.11733 660.14157 297.43108 660.36328 270.61133 660.36328 L 243.04688 660.36328 L 243.04688 649.50586 L 243.04688 638.64844 z M 322.66602 638.64844 L 346.18945 638.64844 L 369.71289 638.64844 L 369.71289 649.50586 L 369.71289 660.36328 L 346.18945 660.36328 L 322.66602 660.36328 L 322.66602 649.50586 L 322.66602 638.64844 z M 508.25977 678.68164 C 522.76748 678.62924 523.91252 681.79959 522.44531 694.36719 L 520.92188 707.41016 L 497.57617 707.41016 L 474.22852 707.41016 L 475.35156 693.83789 L 476.47656 680.26758 L 495.94922 679.15625 C 500.85265 678.87668 504.91184 678.69373 508.25977 678.68164 z M 250.28516 682.07617 L 273.80859 682.07617 C 296.27578 682.07617 297.33203 682.4696 297.33203 690.82812 C 297.33203 695.64153 298.32108 702.15619 299.5293 705.30469 C 301.39228 710.15957 298.18478 711.0293 278.41797 711.0293 C 265.59865 711.0293 254.02423 709.94419 252.69727 708.61719 C 251.37027 707.29023 250.28516 700.77558 250.28516 694.14062 L 250.28516 682.07617 z M 326.28516 682.07617 L 348 682.07617 L 369.71289 682.07617 L 369.71289 696.55273 L 369.71289 711.0293 L 348 711.0293 L 326.28516 711.0293 L 326.28516 696.55273 L 326.28516 682.07617 z M 398.66602 682.07617 L 424.45117 682.07617 L 450.23828 682.07617 L 447.9375 693.57422 C 446.67272 699.89814 444.9696 705.74133 444.15234 706.55859 C 443.33509 707.37584 432.76612 708.94187 420.66602 710.03906 L 398.66602 712.03516 L 398.66602 697.05664 L 398.66602 682.07617 z M 514.47656 728.76367 L 514.47656 741.72461 C 514.47656 748.92018 512.46268 755.31974 509.95117 756.11133 C 507.46307 756.89551 497.59366 758.58712 488.01758 759.87109 L 470.60547 762.20508 L 471.73047 746.57031 L 472.85742 730.93359 L 493.66602 729.84961 L 514.47656 728.76367 z M 429.43164 731.89258 C 437.59358 731.85698 443.76055 732.4917 444.43359 733.58594 C 445.33093 735.04493 444.99105 741.96625 443.67773 748.9668 L 441.28906 761.69531 L 419.97852 761.69531 L 398.66602 761.69531 L 398.66602 747.54102 L 398.66602 733.38672 L 420.73438 732.16016 C 423.76869 731.99156 426.711 731.90444 429.43164 731.89258 z M 278.76367 732.74414 L 300.00391 732.74414 L 302.15234 745.97461 C 303.33323 753.25223 303.45012 760.58219 302.41211 762.26172 C 301.37409 763.94128 291.85388 765.31445 281.25586 765.31445 C 260.75334 765.31445 257.70147 762.16802 257.57227 740.88672 C 257.52667 733.3616 259.13425 732.74414 278.76367 732.74414 z M 329.9043 732.74414 L 349.80859 732.74414 L 369.71289 732.74414 L 369.71289 746.87109 L 369.71289 760.99805 L 351.31445 762.25195 C 341.19519 762.94152 332.23853 762.82744 331.41016 761.99805 C 330.58176 761.16871 329.9043 754.24737 329.9043 746.61719 L 329.9043 732.74414 z M 499.18945 780.05078 C 507.19444 780.10678 507.23828 782.14693 507.23828 790.22266 C 507.23828 796.16853 505.6502 805.21261 503.70898 810.31836 C 500.62986 818.41706 498.06411 819.60156 483.61328 819.60156 L 467.04883 819.60156 L 468.14453 800.60156 L 469.23828 781.60156 L 488.23828 780.50586 C 492.96937 780.23347 496.52112 780.03213 499.18945 780.05078 z M 333.52344 783.41016 L 351.61914 783.41016 L 369.71289 783.41016 L 369.71289 801.50586 L 369.71289 819.60156 L 351.61914 819.60156 L 333.52344 819.60156 L 333.52344 801.50586 L 333.52344 783.41016 z M 398.66602 783.41016 L 420.85352 783.41016 L 443.04102 783.41016 L 440.79883 796.98242 C 439.56506 804.44671 438.53733 812.58807 438.51562 815.07617 C 438.48863 818.14205 432.06016 819.60156 418.57031 819.60156 L 398.66602 819.60156 L 398.66602 801.50586 L 398.66602 783.41016 z M 264.43359 787.0293 L 284.03906 787.0293 L 303.64648 787.0293 L 306.03711 801.98828 C 307.35262 810.21593 307.96793 817.31458 307.4043 817.76367 C 306.84064 818.21279 298.58461 819.60201 289.05664 820.84961 C 270.23143 823.31461 270.50545 823.56261 266.68945 800.60156 L 264.43359 787.0293 z M 337.14258 840.91797 L 353.96094 842.02148 L 370.78125 843.125 L 370.7832 861.21875 L 370.78516 879.31445 L 356.54688 880.39062 C 348.71584 880.9819 341.14527 880.30342 339.72461 878.88281 C 338.30395 877.46216 337.14258 868.33908 337.14258 858.60938 L 337.14258 840.91797 z M 398.66602 841.31445 L 418.22656 841.31445 L 437.78711 841.31445 L 436.02344 856.69531 C 435.05372 865.15483 433.63215 874.11347 432.86328 876.60156 C 432.01414 879.3494 425.02562 881.125 415.06445 881.125 L 398.66602 881.125 L 398.66602 861.21875 L 398.66602 841.31445 z M 463.80859 841.31445 L 482.06836 841.31445 L 500.32812 841.31445 L 498.07227 854.88672 C 496.83177 862.35101 495.18004 870.49433 494.40234 872.98242 C 493.57806 875.61955 486.90346 877.50586 478.39844 877.50586 L 463.80859 877.50586 L 463.80859 859.41016 L 463.80859 841.31445 z M 300.85938 841.78125 C 304.14117 841.74055 306.47467 842.01376 307.07031 842.60938 C 308.26156 843.80066 310.02389 852.95308 310.98438 862.94922 L 312.73047 881.125 L 295.98438 881.125 C 286.77396 881.125 279.16698 879.90301 279.08008 878.41016 C 278.99338 876.9173 277.59461 868.83882 275.97266 860.45898 L 273.02344 845.22461 L 288.96484 842.83398 C 293.34846 842.17667 297.57759 841.82192 300.85938 841.78125 z M 461.19727 899.21875 L 475.66797 899.21875 L 490.13867 899.21875 L 487.71094 919.87891 C 486.37555 931.24098 484.34609 944.26835 483.20117 948.83008 C 481.54303 955.43662 478.6227 957.125 468.8457 957.125 C 455.05101 957.125 454.50147 954.97195 458.91602 918.21875 L 461.19727 899.21875 z M 423.28711 899.41797 C 431.17165 899.34087 431.23828 904.58079 431.23828 922.98047 C 431.23829 936.04943 429.55073 949.89406 427.49023 953.74414 C 424.89291 958.59725 419.8984 960.74414 411.20508 960.74414 L 398.66602 960.74414 L 398.66602 932.24414 L 398.66602 903.74414 L 409.97656 901.48242 C 415.92105 900.29352 420.20186 899.44814 423.28711 899.41797 z M 339.71289 902.37109 L 355.61914 903.50977 L 371.52344 904.64844 L 371.52344 931.79102 L 371.52344 958.93359 L 357.95117 960.05664 C 344.6946 961.15379 344.38086 960.89354 344.38086 948.80078 C 344.38086 941.99176 343.33026 928.75997 342.04688 919.39648 L 339.71289 902.37109 z M 298.75 902.83789 L 315.42773 902.83789 L 315.42773 926.06641 C 315.42773 938.84172 316.41678 951.87103 317.625 955.01953 C 319.37376 959.57671 317.20225 960.74414 306.98047 960.74414 C 291.86703 960.74414 291.75596 960.60062 288.48633 937.21875 C 287.09462 927.26637 285.08183 915.46099 284.01367 910.98242 C 282.21352 903.435 283.29149 902.83789 298.75 902.83789 z "
       id="path4300" />
  </g>
</svg>
