<?xml version="1.0" encoding="UTF-8" standalone="no"?>
<!-- Created with Inkscape (http://www.inkscape.org/) -->

<svg
   xmlns:dc="http://purl.org/dc/elements/1.1/"
   xmlns:cc="http://creativecommons.org/ns#"
   xmlns:rdf="http://www.w3.org/1999/02/22-rdf-syntax-ns#"
   xmlns:svg="http://www.w3.org/2000/svg"
   xmlns="http://www.w3.org/2000/svg"
   xmlns:sodipodi="http://sodipodi.sourceforge.net/DTD/sodipodi-0.dtd"
   xmlns:inkscape="http://www.inkscape.org/namespaces/inkscape"
   width="210mm"
   height="297mm"
   viewBox="0 0 744.09448819 1052.3622047"
   id="svg2"
   version="1.1"
   inkscape:version="0.91 r13725"
   sodipodi:docname="nori_pufos.svg">
  <defs
     id="defs4" />
  <sodipodi:namedview
     id="base"
     pagecolor="#ffffff"
     bordercolor="#666666"
     borderopacity="1.0"
     inkscape:pageopacity="0.0"
     inkscape:pageshadow="2"
     inkscape:zoom="1.4"
     inkscape:cx="433.66958"
     inkscape:cy="429.35581"
     inkscape:document-units="mm"
     inkscape:current-layer="layer1"
     showgrid="false"
     inkscape:window-width="1360"
     inkscape:window-height="705"
     inkscape:window-x="-4"
     inkscape:window-y="-4"
     inkscape:window-maximized="1" />
  <metadata
     id="metadata7">
    <rdf:RDF>
      <cc:Work
         rdf:about="">
        <dc:format>image/svg+xml</dc:format>
        <dc:type
           rdf:resource="http://purl.org/dc/dcmitype/StillImage" />
        <dc:title />
      </cc:Work>
    </rdf:RDF>
  </metadata>
  <g
     inkscape:label="Layer 1"
     inkscape:groupmode="layer"
     id="layer1">
    <path
       style="fill:#000000"
       d="M 345.41016 523.11328 C 344.40817 523.14208 343.46235 523.25114 342.58594 523.44727 C 339.19779 524.20551 336.38275 525.57097 335.86523 528.69727 C 335.69642 531.21219 335.7247 529.99563 335.90625 533.32812 C 335.92275 536.12105 338.27364 540.77713 339.19922 539.85156 C 339.32026 539.73052 339.02837 538.86142 338.55078 537.91797 C 338.05863 536.94576 337.60012 534.65449 337.49219 532.63086 C 337.16803 526.55276 339.22584 524.38867 345.32617 524.38867 C 352.23335 524.38867 360.34283 527.84011 367.41602 533.78906 C 372.80437 538.32095 375.23634 544.36913 373.27148 548.35742 C 371.47173 552.01055 363.45931 554.3267 359.48438 552.34375 C 357.44497 551.32636 356.11187 552.11826 357.76172 553.36719 C 359.33211 554.55595 367.53991 554.07247 370.9082 552.5918 C 374.18668 551.15062 375.38896 549.86253 376.16602 546.95508 C 377.37728 542.423 374.9734 537.5735 369.01367 532.51953 C 362.12317 526.67625 352.4241 522.91166 345.41016 523.11328 z M 362.28516 535.09766 C 362.10179 535.07886 361.86075 535.33684 361.59766 535.97656 C 357.29591 546.43626 353.71686 553.54027 349.96094 559.07422 C 346.10419 564.75671 344.11543 565.90373 341.15039 564.1543 C 340.16373 563.57217 339.2572 563.0957 339.13477 563.0957 C 338.52307 563.0957 339.04906 564.28351 340.14648 565.38086 C 341.56077 566.79515 343.758 566.99513 345.875 565.90039 C 347.52848 565.04534 350.68232 561.69658 352.78125 558.57031 C 355.71134 554.20602 360.61672 543.70702 362.31445 538.16602 C 362.817 536.52579 362.68849 535.13909 362.28516 535.09766 z M 411.8418 536.82031 C 409.55116 536.91171 405.54723 538.81038 403.08008 540.97656 C 402.13422 541.80704 400.2819 543.9573 398.96289 545.75391 C 397.00648 548.41867 396.30854 549.01953 395.16602 549.01953 C 393.4467 549.01953 392.7569 549.96667 393.87891 550.78711 C 394.33587 551.12123 394.71094 551.66046 394.71094 551.98828 C 394.71094 553.30615 390.02376 561.37133 389.24023 561.40234 C 388.79216 561.42014 387.76982 561.61748 386.9668 561.83789 C 385.52627 562.23331 385.51197 562.2142 385.82812 560.5293 C 386.00439 559.59005 387.19311 556.73227 388.47266 554.17773 C 390.70361 549.72379 390.99956 548.01367 389.53906 548.01367 C 389.16641 548.01367 386.39679 550.64969 383.38281 553.87109 C 378.33062 559.27095 374.57486 562.5918 373.52148 562.5918 C 372.77733 562.5918 373.08 559.90777 374.07031 557.72656 C 374.59525 556.57033 376.28749 553.70568 377.83008 551.36328 C 379.37266 549.0209 380.63477 546.74397 380.63477 546.30273 C 380.63477 544.53173 379.02882 545.69326 376.69922 549.14648 C 370.42332 558.44939 368.90502 564.60352 372.88477 564.60352 C 373.96951 564.60352 379.01522 560.37036 384.08398 555.21094 C 385.01388 554.26442 385.87123 553.58608 385.98828 553.70312 C 386.10533 553.82016 385.72914 555.11284 385.15234 556.57617 C 383.15652 561.63959 384.49949 565.31461 387.68164 563.49609 C 388.50579 563.02478 389.18164 562.81131 389.18164 563.02148 C 389.18164 563.7619 381.26134 576.58529 378.94336 579.59766 C 372.0985 588.49309 366.56445 591.84257 361.75 590.00391 C 357.93058 588.54527 356.77622 585.20487 358.5 580.59766 C 359.50654 577.90743 363.20513 573.65234 364.53711 573.65234 C 364.81977 573.65234 365.05273 573.42493 365.05273 573.14844 C 365.05273 571.13521 358.98855 575.7853 357.19531 579.17383 C 355.87411 581.67035 355.61888 585.28019 356.63867 587.03711 C 356.98019 587.62549 357.5695 588.62142 357.94727 589.25 C 359.05614 590.17063 358.8812 590.19091 360.58398 590.96875 C 363.84414 592.38389 367.77476 591.65834 371.69922 588.91016 C 376.76676 585.41188 376.29688 584.7963 379.01953 581.94922 C 382.32731 578.19138 388.67638 568.28054 393.19141 559.82812 C 394.37292 557.61627 396.00754 554.6195 396.82227 553.16797 L 398.30273 550.52734 L 401.93555 550.52734 C 403.93357 550.52734 405.8204 550.77939 406.12695 551.08594 C 406.535 551.49398 406.02213 552.65444 404.2168 555.41992 C 399.89393 562.04191 399.71648 564.89205 403.63477 564.81641 C 408.20628 564.72821 417.82624 555.98297 417.83203 551.91016 C 417.83403 550.77122 418.05445 550.52734 419.08984 550.52734 C 419.78105 550.52733 420.34766 550.32981 420.34766 550.08789 C 420.34766 549.56648 417.88142 549.01953 415.53125 549.01953 C 414.61114 549.01953 413.2968 548.76438 412.60938 548.45117 C 411.6356 548.00749 410.93773 548.04495 409.44531 548.62305 C 408.03294 549.17014 406.42436 549.28629 403.32617 549.06641 L 399.125 548.76953 L 401.37695 545.75195 C 404.23572 541.92515 407.1138 539.18248 409.01953 538.46484 C 410.22395 538.0113 410.87853 538.07295 412.44922 538.78125 C 414.11585 539.53279 414.45487 539.5531 414.83789 538.93359 C 415.55378 537.77566 414.07303 536.73133 411.8418 536.82031 z M 435.3125 545.02734 C 434.86235 545.02034 434.25602 545.05665 433.48047 545.12695 C 429.55035 545.48331 423.79565 548.25274 420.44922 551.39453 C 418.26822 553.44216 417.83604 554.13368 417.8457 555.58008 C 417.8517 556.53366 418.29919 557.8791 418.83984 558.57031 C 419.89098 559.9141 420.14013 561.08398 419.37695 561.08398 C 419.12023 561.08398 418.61144 561.37679 418.24609 561.73242 C 417.88074 562.08804 416.73528 563.01581 415.70117 563.79688 C 414.66705 564.57794 413.94579 565.4203 414.09766 565.66602 C 414.57773 566.4428 418.6696 566.14958 420.94141 565.17578 C 423.75837 563.96829 424.56984 562.96842 424.20703 561.1543 C 423.93004 559.76939 424.07716 559.64434 428.29297 557.67969 C 430.69749 556.55913 433.52865 555.37515 434.58398 555.04688 C 435.63931 554.71861 436.42942 554.38213 436.3418 554.30078 C 435.88091 553.87297 429.49743 555.66156 426.41992 557.08008 C 422.52026 558.87755 421.97715 558.77648 420.8457 556.04492 C 420.06621 554.16307 420.82488 552.87389 424.36914 550.07227 C 427.43916 547.64557 429.86756 546.79834 432.66406 547.18164 C 434.33613 547.41083 434.9812 547.27917 435.61914 546.57422 C 436.62217 545.46591 436.66296 545.04871 435.3125 545.02734 z M 412.98242 551.03125 C 414.55122 551.03125 415.44377 551.26718 415.62305 551.73438 C 416.28609 553.46223 411.45975 559.61768 407.27734 562.37695 C 406.30965 563.01536 404.89509 563.68802 404.13477 563.87305 C 402.91954 564.16881 402.75195 564.06591 402.75195 563.01367 C 402.75195 561.4451 405.98384 556.01393 408.57031 553.23242 C 410.42787 551.2348 410.83202 551.03125 412.98242 551.03125 z M 421.29492 561.86328 C 421.34922 561.85728 421.39208 561.86444 421.42188 561.88281 C 422.34566 562.45374 421.78047 563.51861 420.14453 564.29492 C 417.39609 565.59914 416.92906 565.1981 419.0332 563.33984 C 419.97354 562.50939 420.91471 561.903 421.29492 561.86328 z "
       id="path4329" />
    <path
       style="fill:none;fill-rule:evenodd;stroke:#000000;stroke-width:1.02178204px;stroke-linecap:butt;stroke-linejoin:miter;stroke-opacity:1"
       d="M 375.22461 506.89062 C 372.55571 506.98492 369.88473 507.78855 367.48242 508.95508 C 365.54809 509.89436 363.77347 511.23939 362.32227 512.82617 C 360.88857 514.3938 358.9668 518.24414 358.9668 518.24414 C 358.9668 518.24414 356.24567 515.38917 354.58008 514.375 C 353.16123 513.51106 350.56541 513.3255 348.9043 513.3418 C 345.74179 513.373 343.75801 514.37312 341.16211 516.17969 C 338.66406 517.91817 336.4359 520.2222 334.96875 522.88867 C 333.68137 525.22845 332.9043 530.63086 332.9043 530.63086 C 332.9043 530.63086 327.13937 530.17561 324.39062 530.88867 C 321.6723 531.59384 319.12716 533.04102 316.90625 534.75977 C 314.87052 536.33521 312.95695 538.17579 311.44727 540.27539 L 250.74805 540.27539 C 247.39711 540.27539 244.69922 542.97328 244.69922 546.32422 L 244.69922 564.11523 C 244.69922 567.46617 247.39711 570.16211 250.74805 570.16211 L 310.30078 570.16211 C 311.20801 571.58407 312.24927 572.93396 313.29492 574.23828 C 315.08335 576.46911 316.993 578.77442 319.48633 580.17383 C 322.12439 581.65447 325.24104 582.29892 328.25977 582.49609 C 330.94256 582.67132 336.25977 581.46484 336.25977 581.46484 C 336.25977 581.46484 336.29307 583.88999 336.51758 585.07617 C 336.78576 586.49285 337.03767 587.98665 337.80859 589.20508 C 338.62223 590.49102 339.80222 591.61983 341.16211 592.30273 C 342.41339 592.93109 343.91029 593.30878 345.29102 593.07617 C 346.65867 592.84577 347.83281 591.89232 348.9043 591.01172 C 350.2233 589.92769 352.25781 587.14062 352.25781 587.14062 C 352.25781 587.14062 352.77005 588.95468 353.29102 589.7207 C 354.48861 591.48164 356.14694 592.95157 357.93555 594.10742 C 359.26369 594.96569 360.76444 595.64249 362.32227 595.91406 C 364.18837 596.23938 366.16484 596.13321 367.99805 595.65625 C 370.04553 595.12354 372.01392 594.12762 373.67578 592.81836 C 375.35404 591.49618 377.80469 587.91602 377.80469 587.91602 C 377.80469 587.91602 378.90156 590.38209 379.60938 591.52734 C 380.51376 592.99068 381.39785 594.5403 382.70703 595.65625 C 384.11249 596.85427 385.86887 597.61883 387.60938 598.23633 C 389.67604 598.96957 391.88276 599.78443 394.06055 599.52734 C 396.5066 599.23859 398.81214 597.92474 400.76953 596.42969 C 403.00129 594.72507 406.1875 589.97852 406.1875 589.97852 C 406.1875 589.97852 408.57838 592.78274 410.05859 593.84961 C 411.61886 594.97418 413.38972 595.83492 415.21875 596.42969 C 418.20406 597.40047 421.3746 598.13714 424.50977 597.97852 C 427.44811 597.82985 430.52155 597.20431 433.02344 595.65625 C 435.769 593.95742 437.85552 591.22497 439.47461 588.43164 C 440.293 587.01969 441.02344 583.78711 441.02344 583.78711 C 441.02344 583.78711 444.45476 584.30873 446.18359 584.30273 C 452.50504 584.21393 460.17454 581.12976 465.79492 576.82031 C 467.87207 574.74561 469.36021 572.06617 470.43945 569.33594 C 471.2456 567.29658 471.80597 565.07638 471.73047 562.88477 C 471.6292 559.94442 470.63925 557.0413 469.4082 554.36914 C 468.32012 552.00734 466.71138 549.89634 465.02148 547.91992 C 463.79555 546.48616 460.89258 544.04883 460.89258 544.04883 C 460.89258 544.04883 461.4012 540.44334 461.4082 538.62891 C 461.4162 536.64316 461.3463 534.62854 460.89258 532.69531 C 460.30133 530.17621 459.49751 527.61865 458.05469 525.4707 C 456.59602 523.29915 454.53691 521.52655 452.37695 520.05078 C 450.02579 518.44438 447.34904 517.30454 444.63672 516.4375 C 438.29066 514.41672 432.23102 514.06167 425.79883 517.4707 C 423.15566 518.64272 418.31641 521.85742 418.31641 521.85742 C 418.31641 521.85742 416.29181 519.74935 415.21875 518.75977 C 413.55903 517.22918 412.07082 515.39884 410.05859 514.375 C 409.13858 513.90689 408.04216 513.30064 406.79297 512.91602 C 405.54379 512.53135 404.10768 512.48506 402.57617 512.56836 C 400.29412 512.69252 398.2259 513.99096 396.125 514.89062 C 394.35698 515.64774 390.96484 517.4707 390.96484 517.4707 C 390.96484 517.4707 389.96514 515.09586 389.1582 514.11523 C 387.17782 511.70857 384.75499 509.50587 381.93359 508.18164 C 379.87205 507.21405 377.5005 506.81023 375.22461 506.89062 z "
       id="path4165" />
  </g>
</svg>
