  0
SECTION
  2
HEADER
  9
$ACADVER
  1
AC1014
  9
$HANDSEED
  5
FFFF
  9
$MEASUREMENT
 70
     1
  0
ENDSEC
  0
SECTION
  2
TABLES
  0
TABLE
  2
VPORT
  5
8
330
0
100
AcDbSymbolTable
 70
     4
  0
VPORT
  5
2E
330
8
100
AcDbSymbolTableRecord
100
AcDbViewportTableRecord
  2
*ACTIVE
 70
     0
 10
0.0
 20
0.0
 11
1.0
 21
1.0
 12
210.0
 22
148.5
 13
0.0
 23
0.0
 14
10.0
 24
10.0
 15
10.0
 25
10.0
 16
0.0
 26
0.0
 36
1.0
 17
0.0
 27
0.0
 37
0.0
 40
341.0
 41
1.24
 42
50.0
 43
0.0
 44
0.0
 50
0.0
 51
0.0
 71
     0
 72
   100
 73
     1
 74
     3
 75
     0
 76
     0
 77
     0
 78
     0
  0
ENDTAB
  0
TABLE
  2
LTYPE
  5
5
330
0
100
AcDbSymbolTable
 70
     1
  0
LTYPE
  5
14
330
5
100
AcDbSymbolTableRecord
100
AcDbLinetypeTableRecord
  2
BYBLOCK
 70
     0
  3

 72
    65
 73
     0
 40
0.0
  0
LTYPE
  5
15
330
5
100
AcDbSymbolTableRecord
100
AcDbLinetypeTableRecord
  2
BYLAYER
 70
     0
  3

 72
    65
 73
     0
 40
0.0
  0
LTYPE
  5
16
330
5
100
AcDbSymbolTableRecord
100
AcDbLinetypeTableRecord
  2
CONTINUOUS
 70
     0
  3
Solid line
 72
    65
 73
     0
 40
0.0
  0
ENDTAB
  0
TABLE
  2
LAYER
  5
2
100
AcDbSymbolTable
 70
2
  0
LAYER
  5
50
100
AcDbSymbolTableRecord
100
AcDbLayerTableRecord
  2
0
 70
0
  6
CONTINUOUS
  0
LAYER
  5
51
100
AcDbSymbolTableRecord
100
AcDbLayerTableRecord
  2
Layer_1
 70
0
  6
CONTINUOUS
  0
ENDTAB
  0
TABLE
  2
STYLE
  5
3
330
0
100
AcDbSymbolTable
 70
     1
  0
STYLE
  5
11
330
3
100
AcDbSymbolTableRecord
100
AcDbTextStyleTableRecord
  2
STANDARD
 70
     0
 40
0.0
 41
1.0
 50
0.0
 71
     0
 42
2.5
  3
txt
  4

  0
ENDTAB
  0
TABLE
  2
VIEW
  5
6
330
0
100
AcDbSymbolTable
 70
     0
  0
ENDTAB
  0
TABLE
  2
UCS
  5
7
330
0
100
AcDbSymbolTable
 70
     0
  0
ENDTAB
  0
TABLE
  2
APPID
  5
9
330
0
100
AcDbSymbolTable
 70
     2
  0
APPID
  5
12
330
9
100
AcDbSymbolTableRecord
100
AcDbRegAppTableRecord
  2
ACAD
 70
     0
  0
ENDTAB
  0
TABLE
  2
DIMSTYLE
  5
A
330
0
100
AcDbSymbolTable
 70
     1
  0
DIMSTYLE
105
27
330
A
100
AcDbSymbolTableRecord
100
AcDbDimStyleTableRecord
  2
ISO-25
 70
     0
  3

  4

  5

  6

  7

 40
1.0
 41
2.5
 42
0.625
 43
3.75
 44
1.25
 45
0.0
 46
0.0
 47
0.0
 48
0.0
140
2.5
141
2.5
142
0.0
143
0.03937007874016
144
1.0
145
0.0
146
1.0
147
0.625
 71
     0
 72
     0
 73
     0
 74
     0
 75
     0
 76
     0
 77
     1
 78
     8
170
     0
171
     3
172
     1
173
     0
174
     0
175
     0
176
     0
177
     0
178
     0
270
     2
271
     2
272
     2
273
     2
274
     3
340
11
275
     0
280
     0
281
     0
282
     0
283
     0
284
     8
285
     0
286
     0
287
     3
288
     0
  0
ENDTAB
  0
TABLE
  2
BLOCK_RECORD
  5
1
330
0
100
AcDbSymbolTable
 70
     1
  0
BLOCK_RECORD
  5
1F
330
1
100
AcDbSymbolTableRecord
100
AcDbBlockTableRecord
  2
*MODEL_SPACE
  0
BLOCK_RECORD
  5
1B
330
1
100
AcDbSymbolTableRecord
100
AcDbBlockTableRecord
  2
*PAPER_SPACE
  0
ENDTAB
  0
ENDSEC
  0
SECTION
  2
BLOCKS
  0
BLOCK
  5
20
330
1F
100
AcDbEntity
  8
0
100
AcDbBlockBegin
  2
*MODEL_SPACE
 70
     0
 10
0.0
 20
0.0
 30
0.0
  3
*MODEL_SPACE
  1

  0
ENDBLK
  5
21
330
1F
100
AcDbEntity
  8
0
100
AcDbBlockEnd
  0
BLOCK
  5
1C
330
1B
100
AcDbEntity
 67
     1
  8
0
100
AcDbBlockBegin
  2
*PAPER_SPACE
  1

  0
ENDBLK
  5
1D
330
1B
100
AcDbEntity
 67
     1
  8
0
100
AcDbBlockEnd
  0
ENDSEC
  0
SECTION
  2
ENTITIES
  0
SPLINE
  5
100
100
AcDbEntity
  8
Layer_1
 62
7
100
AcDbSpline
 70
8
 71
3
 72
8
 73
4
 74
0
 40
0
 40
0
 40
0
 40
0
 40
1
 40
1
 40
1
 40
1
 10
246.735535
 20
279.016549
 30
0.0
 10
245.195352
 20
278.999740
 30
0.0
 10
243.721238
 20
278.876454
 30
0.0
 10
242.638902
 20
278.635659
 30
0.0
  0
SPLINE
  5
101
100
AcDbEntity
  8
Layer_1
 62
7
100
AcDbSpline
 70
8
 71
3
 72
8
 73
4
 74
0
 40
0
 40
0
 40
0
 40
0
 40
1
 40
1
 40
1
 40
1
 10
242.638902
 20
278.635659
 30
0.0
 10
239.943426
 20
278.035971
 30
0.0
 10
236.579179
 20
276.365954
 30
0.0
 10
234.655100
 20
274.672421
 30
0.0
  0
SPLINE
  5
102
100
AcDbEntity
  8
Layer_1
 62
7
100
AcDbSpline
 70
8
 71
3
 72
8
 73
4
 74
0
 40
0
 40
0
 40
0
 40
0
 40
1
 40
1
 40
1
 40
1
 10
234.655100
 20
274.672421
 30
0.0
 10
232.615875
 20
272.877521
 30
0.0
 10
230.511807
 20
269.618577
 30
0.0
 10
229.589982
 20
266.828077
 30
0.0
  0
SPLINE
  5
103
100
AcDbEntity
  8
Layer_1
 62
7
100
AcDbSpline
 70
8
 71
3
 72
8
 73
4
 74
0
 40
0
 40
0
 40
0
 40
0
 40
1
 40
1
 40
1
 40
1
 10
229.589982
 20
266.828077
 30
0.0
 10
228.891651
 20
264.714063
 30
0.0
 10
228.823401
 20
264.124120
 30
0.0
 10
228.816628
 20
260.135222
 30
0.0
  0
SPLINE
  5
104
100
AcDbEntity
  8
Layer_1
 62
7
100
AcDbSpline
 70
8
 71
3
 72
8
 73
4
 74
0
 40
0
 40
0
 40
0
 40
0
 40
1
 40
1
 40
1
 40
1
 10
228.816628
 20
260.135222
 30
0.0
 10
228.809855
 20
256.126340
 30
0.0
 10
228.872367
 20
255.572084
 30
0.0
 10
229.566831
 20
253.503000
 30
0.0
  0
SPLINE
  5
105
100
AcDbEntity
  8
Layer_1
 62
7
100
AcDbSpline
 70
8
 71
3
 72
8
 73
4
 74
0
 40
0
 40
0
 40
0
 40
0
 40
1
 40
1
 40
1
 40
1
 10
229.566831
 20
253.503000
 30
0.0
 10
231.444571
 20
247.908650
 30
0.0
 10
236.100750
 20
243.618479
 30
0.0
 10
241.786173
 20
242.243323
 30
0.0
  0
SPLINE
  5
106
100
AcDbEntity
  8
Layer_1
 62
7
100
AcDbSpline
 70
8
 71
3
 72
8
 73
4
 74
0
 40
0
 40
0
 40
0
 40
0
 40
1
 40
1
 40
1
 40
1
 10
241.786173
 20
242.243323
 30
0.0
 10
244.057892
 20
241.693809
 30
0.0
 10
249.474603
 20
241.686832
 30
0.0
 10
251.781908
 20
242.230646
 30
0.0
  0
SPLINE
  5
107
100
AcDbEntity
  8
Layer_1
 62
7
100
AcDbSpline
 70
8
 71
3
 72
8
 73
4
 74
0
 40
0
 40
0
 40
0
 40
0
 40
1
 40
1
 40
1
 40
1
 10
251.781908
 20
242.230646
 30
0.0
 10
257.935259
 20
243.680901
 30
0.0
 10
262.957448
 20
248.571815
 30
0.0
 10
264.659951
 20
254.773000
 30
0.0
  0
SPLINE
  5
108
100
AcDbEntity
  8
Layer_1
 62
7
100
AcDbSpline
 70
8
 71
3
 72
8
 73
4
 74
0
 40
0
 40
0
 40
0
 40
0
 40
1
 40
1
 40
1
 40
1
 10
264.659951
 20
254.773000
 30
0.0
 10
265.367821
 20
257.351382
 30
0.0
 10
265.384082
 20
263.796697
 30
0.0
 10
264.689167
 20
266.323714
 30
0.0
  0
SPLINE
  5
109
100
AcDbEntity
  8
Layer_1
 62
7
100
AcDbSpline
 70
8
 71
3
 72
8
 73
4
 74
0
 40
0
 40
0
 40
0
 40
0
 40
1
 40
1
 40
1
 40
1
 10
264.689167
 20
266.323714
 30
0.0
 10
263.825708
 20
269.463521
 30
0.0
 10
262.554088
 20
271.664753
 30
0.0
 10
260.255190
 20
273.998835
 30
0.0
  0
SPLINE
  5
10a
100
AcDbEntity
  8
Layer_1
 62
7
100
AcDbSpline
 70
8
 71
3
 72
8
 73
4
 74
0
 40
0
 40
0
 40
0
 40
0
 40
1
 40
1
 40
1
 40
1
 10
260.255190
 20
273.998835
 30
0.0
 10
258.116200
 20
276.170535
 30
0.0
 10
256.505510
 20
277.185480
 30
0.0
 10
253.486268
 20
278.264692
 30
0.0
  0
SPLINE
  5
10b
100
AcDbEntity
  8
Layer_1
 62
7
100
AcDbSpline
 70
8
 71
3
 72
8
 73
4
 74
0
 40
0
 40
0
 40
0
 40
0
 40
1
 40
1
 40
1
 40
1
 10
253.486268
 20
278.264692
 30
0.0
 10
252.054078
 20
278.776615
 30
0.0
 10
249.302504
 20
279.044562
 30
0.0
 10
246.735535
 20
279.016549
 30
0.0
  0
SPLINE
  5
10c
100
AcDbEntity
  8
Layer_1
 62
7
100
AcDbSpline
 70
8
 71
3
 72
8
 73
4
 74
0
 40
0
 40
0
 40
0
 40
0
 40
1
 40
1
 40
1
 40
1
 10
214.834501
 20
278.882603
 30
0.0
 10
211.386245
 20
278.876812
 30
0.0
 10
210.930053
 20
278.770296
 30
0.0
 10
209.032410
 20
278.102634
 30
0.0
  0
SPLINE
  5
10d
100
AcDbEntity
  8
Layer_1
 62
7
100
AcDbSpline
 70
8
 71
3
 72
8
 73
4
 74
0
 40
0
 40
0
 40
0
 40
0
 40
1
 40
1
 40
1
 40
1
 10
209.032410
 20
278.102634
 30
0.0
 10
199.557166
 20
274.768884
 30
0.0
 10
194.738013
 20
265.991545
 30
0.0
 10
196.610772
 20
255.479105
 30
0.0
  0
SPLINE
  5
10e
100
AcDbEntity
  8
Layer_1
 62
7
100
AcDbSpline
 70
8
 71
3
 72
8
 73
4
 74
0
 40
0
 40
0
 40
0
 40
0
 40
1
 40
1
 40
1
 40
1
 10
196.610772
 20
255.479105
 30
0.0
 10
197.084778
 20
252.818371
 30
0.0
 10
198.718226
 20
249.345214
 30
0.0
 10
200.419671
 20
247.381202
 30
0.0
  0
SPLINE
  5
10f
100
AcDbEntity
  8
Layer_1
 62
7
100
AcDbSpline
 70
8
 71
3
 72
8
 73
4
 74
0
 40
0
 40
0
 40
0
 40
0
 40
1
 40
1
 40
1
 40
1
 10
200.419671
 20
247.381202
 30
0.0
 10
202.476568
 20
245.006894
 30
0.0
 10
205.991446
 20
243.017840
 30
0.0
 10
209.594097
 20
242.189856
 30
0.0
  0
SPLINE
  5
110
100
AcDbEntity
  8
Layer_1
 62
7
100
AcDbSpline
 70
8
 71
3
 72
8
 73
4
 74
0
 40
0
 40
0
 40
0
 40
0
 40
1
 40
1
 40
1
 40
1
 10
209.594097
 20
242.189856
 30
0.0
 10
210.797352
 20
241.912884
 30
0.0
 10
212.635126
 20
241.833418
 30
0.0
 10
215.944097
 20
241.913146
 30
0.0
  0
SPLINE
  5
111
100
AcDbEntity
  8
Layer_1
 62
7
100
AcDbSpline
 70
8
 71
3
 72
8
 73
4
 74
0
 40
0
 40
0
 40
0
 40
0
 40
1
 40
1
 40
1
 40
1
 10
215.944097
 20
241.913146
 30
0.0
 10
220.539889
 20
242.023890
 30
0.0
 10
222.324140
 20
242.312524
 30
0.0
 10
224.798269
 20
243.346304
 30
0.0
  0
LWPOLYLINE
  5
112
100
AcDbEntity
  8
Layer_1
 62
7
100
AcDbPolyline
 90
2
 70
0
 10
246.735535
 20
279.016549
 30
0.0
 10
246.735535
 20
279.016549
 30
0.0
  0
SPLINE
  5
113
100
AcDbEntity
  8
Layer_1
 62
7
100
AcDbSpline
 70
8
 71
3
 72
8
 73
4
 74
0
 40
0
 40
0
 40
0
 40
0
 40
1
 40
1
 40
1
 40
1
 10
225.821875
 20
248.003524
 30
0.0
 10
225.821875
 20
250.329769
 30
0.0
 10
225.769788
 20
252.233000
 30
0.0
 10
225.706119
 20
252.233000
 30
0.0
  0
SPLINE
  5
114
100
AcDbEntity
  8
Layer_1
 62
7
100
AcDbSpline
 70
8
 71
3
 72
8
 73
4
 74
0
 40
0
 40
0
 40
0
 40
0
 40
1
 40
1
 40
1
 40
1
 10
225.706119
 20
252.233000
 30
0.0
 10
225.642449
 20
252.233000
 30
0.0
 10
224.790581
 20
251.855169
 30
0.0
 10
223.813246
 20
251.392945
 30
0.0
  0
SPLINE
  5
115
100
AcDbEntity
  8
Layer_1
 62
7
100
AcDbSpline
 70
8
 71
3
 72
8
 73
4
 74
0
 40
0
 40
0
 40
0
 40
0
 40
1
 40
1
 40
1
 40
1
 10
223.813246
 20
251.392945
 30
0.0
 10
219.589762
 20
249.395574
 30
0.0
 10
214.622208
 20
249.159193
 30
0.0
 10
211.294046
 20
250.797634
 30
0.0
  0
SPLINE
  5
116
100
AcDbEntity
  8
Layer_1
 62
7
100
AcDbSpline
 70
8
 71
3
 72
8
 73
4
 74
0
 40
0
 40
0
 40
0
 40
0
 40
1
 40
1
 40
1
 40
1
 10
211.294046
 20
250.797634
 30
0.0
 10
209.225188
 20
251.816146
 30
0.0
 10
207.979493
 20
253.112057
 30
0.0
 10
206.941649
 20
255.324764
 30
0.0
  0
SPLINE
  5
117
100
AcDbEntity
  8
Layer_1
 62
7
100
AcDbSpline
 70
8
 71
3
 72
8
 73
4
 74
0
 40
0
 40
0
 40
0
 40
0
 40
1
 40
1
 40
1
 40
1
 10
206.941649
 20
255.324764
 30
0.0
 10
206.278511
 20
256.738612
 30
0.0
 10
206.207431
 20
257.217786
 30
0.0
 10
206.207431
 20
260.282945
 30
0.0
  0
SPLINE
  5
118
100
AcDbEntity
  8
Layer_1
 62
7
100
AcDbSpline
 70
8
 71
3
 72
8
 73
4
 74
0
 40
0
 40
0
 40
0
 40
0
 40
1
 40
1
 40
1
 40
1
 10
206.207431
 20
260.282945
 30
0.0
 10
206.207431
 20
263.548539
 30
0.0
 10
206.242401
 20
263.746735
 30
0.0
 10
207.135126
 20
265.559730
 30
0.0
  0
SPLINE
  5
119
100
AcDbEntity
  8
Layer_1
 62
7
100
AcDbSpline
 70
8
 71
3
 72
8
 73
4
 74
0
 40
0
 40
0
 40
0
 40
0
 40
1
 40
1
 40
1
 40
1
 10
207.135126
 20
265.559730
 30
0.0
 10
208.861564
 20
269.065805
 30
0.0
 10
211.729899
 20
270.801619
 30
0.0
 10
216.226319
 20
271.061410
 30
0.0
  0
SPLINE
  5
11a
100
AcDbEntity
  8
Layer_1
 62
7
100
AcDbSpline
 70
8
 71
3
 72
8
 73
4
 74
0
 40
0
 40
0
 40
0
 40
0
 40
1
 40
1
 40
1
 40
1
 10
216.226319
 20
271.061410
 30
0.0
 10
218.984929
 20
271.220795
 30
0.0
 10
221.637242
 20
270.709589
 30
0.0
 10
223.839704
 20
269.593524
 30
0.0
  0
SPLINE
  5
11b
100
AcDbEntity
  8
Layer_1
 62
7
100
AcDbSpline
 70
8
 71
3
 72
8
 73
4
 74
0
 40
0
 40
0
 40
0
 40
0
 40
1
 40
1
 40
1
 40
1
 10
223.839704
 20
269.593524
 30
0.0
 10
224.609268
 20
269.203549
 30
0.0
 10
225.373139
 20
268.884111
 30
0.0
 10
225.537449
 20
268.884111
 30
0.0
  0
SPLINE
  5
11c
100
AcDbEntity
  8
Layer_1
 62
7
100
AcDbSpline
 70
8
 71
3
 72
8
 73
4
 74
0
 40
0
 40
0
 40
0
 40
0
 40
1
 40
1
 40
1
 40
1
 10
225.537449
 20
268.884111
 30
0.0
 10
225.738193
 20
268.884111
 30
0.0
 10
225.810724
 20
270.340846
 30
0.0
 10
225.758485
 20
273.329111
 30
0.0
  0
LWPOLYLINE
  5
11d
100
AcDbEntity
  8
Layer_1
 62
7
100
AcDbPolyline
 90
3
 70
0
 10
224.798269
 20
243.346304
 30
0.0
 10
225.821875
 20
243.774049
 30
0.0
 10
225.821875
 20
248.003524
 30
0.0
  0
SPLINE
  5
11e
100
AcDbEntity
  8
Layer_1
 62
7
100
AcDbSpline
 70
8
 71
3
 72
8
 73
4
 74
0
 40
0
 40
0
 40
0
 40
0
 40
1
 40
1
 40
1
 40
1
 10
223.705208
 20
278.319262
 30
0.0
 10
222.096034
 20
278.763127
 30
0.0
 10
220.761348
 20
278.867332
 30
0.0
 10
216.508542
 20
278.880399
 30
0.0
  0
SPLINE
  5
11f
100
AcDbEntity
  8
Layer_1
 62
7
100
AcDbSpline
 70
8
 71
3
 72
8
 73
4
 74
0
 40
0
 40
0
 40
0
 40
0
 40
1
 40
1
 40
1
 40
1
 10
216.508542
 20
278.880399
 30
0.0
 10
215.880891
 20
278.882327
 30
0.0
 10
215.327109
 20
278.883430
 30
0.0
 10
214.834501
 20
278.882603
 30
0.0
  0
LWPOLYLINE
  5
120
100
AcDbEntity
  8
Layer_1
 62
7
100
AcDbPolyline
 90
3
 70
0
 10
225.758485
 20
273.329111
 30
0.0
 10
225.680764
 20
277.774111
 30
0.0
 10
223.705208
 20
278.319262
 30
0.0
  0
SPLINE
  5
121
100
AcDbEntity
  8
Layer_1
 62
7
100
AcDbSpline
 70
8
 71
3
 72
8
 73
4
 74
0
 40
0
 40
0
 40
0
 40
0
 40
1
 40
1
 40
1
 40
1
 10
181.253364
 20
278.882053
 30
0.0
 10
177.809666
 20
278.876679
 30
0.0
 10
177.345250
 20
278.770428
 30
0.0
 10
175.470013
 20
278.110350
 30
0.0
  0
SPLINE
  5
122
100
AcDbEntity
  8
Layer_1
 62
7
100
AcDbSpline
 70
8
 71
3
 72
8
 73
4
 74
0
 40
0
 40
0
 40
0
 40
0
 40
1
 40
1
 40
1
 40
1
 10
175.470013
 20
278.110350
 30
0.0
 10
172.103285
 20
276.925271
 30
0.0
 10
169.914906
 20
275.205445
 30
0.0
 10
168.577065
 20
272.694111
 30
0.0
  0
SPLINE
  5
123
100
AcDbEntity
  8
Layer_1
 62
7
100
AcDbSpline
 70
8
 71
3
 72
8
 73
4
 74
0
 40
0
 40
0
 40
0
 40
0
 40
1
 40
1
 40
1
 40
1
 10
168.577065
 20
272.694111
 30
0.0
 10
167.893992
 20
271.411873
 30
0.0
 10
167.825208
 20
270.999468
 30
0.0
 10
167.825208
 20
268.178555
 30
0.0
  0
SPLINE
  5
124
100
AcDbEntity
  8
Layer_1
 62
7
100
AcDbSpline
 70
8
 71
3
 72
8
 73
4
 74
0
 40
0
 40
0
 40
0
 40
0
 40
1
 40
1
 40
1
 40
1
 10
167.825208
 20
268.178555
 30
0.0
 10
167.825208
 20
265.364743
 30
0.0
 10
167.895287
 20
264.941540
 30
0.0
 10
168.573207
 20
263.657485
 30
0.0
  0
SPLINE
  5
125
100
AcDbEntity
  8
Layer_1
 62
7
100
AcDbSpline
 70
8
 71
3
 72
8
 73
4
 74
0
 40
0
 40
0
 40
0
 40
0
 40
1
 40
1
 40
1
 40
1
 10
168.573207
 20
263.657485
 30
0.0
 10
169.422688
 20
262.048451
 30
0.0
 10
171.458819
 20
260.028703
 30
0.0
 10
173.347284
 20
258.921996
 30
0.0
  0
SPLINE
  5
126
100
AcDbEntity
  8
Layer_1
 62
7
100
AcDbSpline
 70
8
 71
3
 72
8
 73
4
 74
0
 40
0
 40
0
 40
0
 40
0
 40
1
 40
1
 40
1
 40
1
 10
173.347284
 20
258.921996
 30
0.0
 10
174.051536
 20
258.509275
 30
0.0
 10
175.990851
 20
257.600801
 30
0.0
 10
177.656685
 20
256.902894
 30
0.0
  0
SPLINE
  5
127
100
AcDbEntity
  8
Layer_1
 62
7
100
AcDbSpline
 70
8
 71
3
 72
8
 73
4
 74
0
 40
0
 40
0
 40
0
 40
0
 40
1
 40
1
 40
1
 40
1
 10
177.656685
 20
256.902894
 30
0.0
 10
180.857785
 20
255.561746
 30
0.0
 10
183.009834
 20
254.257405
 30
0.0
 10
183.484684
 20
253.370155
 30
0.0
  0
SPLINE
  5
128
100
AcDbEntity
  8
Layer_1
 62
7
100
AcDbSpline
 70
8
 71
3
 72
8
 73
4
 74
0
 40
0
 40
0
 40
0
 40
0
 40
1
 40
1
 40
1
 40
1
 10
183.484684
 20
253.370155
 30
0.0
 10
183.898602
 20
252.596725
 30
0.0
 10
183.836110
 20
251.323555
 30
0.0
 10
183.350738
 20
250.630615
 30
0.0
  0
SPLINE
  5
129
100
AcDbEntity
  8
Layer_1
 62
7
100
AcDbSpline
 70
8
 71
3
 72
8
 73
4
 74
0
 40
0
 40
0
 40
0
 40
0
 40
1
 40
1
 40
1
 40
1
 10
183.350738
 20
250.630615
 30
0.0
 10
182.376047
 20
249.239034
 30
0.0
 10
177.955552
 20
248.689525
 30
0.0
 10
174.653112
 20
249.549681
 30
0.0
  0
SPLINE
  5
12a
100
AcDbEntity
  8
Layer_1
 62
7
100
AcDbSpline
 70
8
 71
3
 72
8
 73
4
 74
0
 40
0
 40
0
 40
0
 40
0
 40
1
 40
1
 40
1
 40
1
 10
174.653112
 20
249.549681
 30
0.0
 10
172.740726
 20
250.047804
 30
0.0
 10
170.484735
 20
251.144090
 30
0.0
 10
169.054969
 20
252.269931
 30
0.0
  0
SPLINE
  5
12b
100
AcDbEntity
  8
Layer_1
 62
7
100
AcDbSpline
 70
8
 71
3
 72
8
 73
4
 74
0
 40
0
 40
0
 40
0
 40
0
 40
1
 40
1
 40
1
 40
1
 10
169.054969
 20
252.269931
 30
0.0
 10
168.489353
 20
252.715331
 30
0.0
 10
167.949603
 20
253.079666
 30
0.0
 10
167.855525
 20
253.079666
 30
0.0
  0
SPLINE
  5
12c
100
AcDbEntity
  8
Layer_1
 62
7
100
AcDbSpline
 70
8
 71
3
 72
8
 73
4
 74
0
 40
0
 40
0
 40
0
 40
0
 40
1
 40
1
 40
1
 40
1
 10
167.855525
 20
253.079666
 30
0.0
 10
167.761443
 20
253.079666
 30
0.0
 10
167.684097
 20
250.999203
 30
0.0
 10
167.684097
 20
248.456070
 30
0.0
  0
LWPOLYLINE
  5
12d
100
AcDbEntity
  8
Layer_1
 62
7
100
AcDbPolyline
 90
2
 70
0
 10
214.834501
 20
278.882603
 30
0.0
 10
214.834501
 20
278.882603
 30
0.0
  0
SPLINE
  5
12e
100
AcDbEntity
  8
Layer_1
 62
7
100
AcDbSpline
 70
8
 71
3
 72
8
 73
4
 74
0
 40
0
 40
0
 40
0
 40
0
 40
1
 40
1
 40
1
 40
1
 10
169.168521
 20
243.229447
 30
0.0
 10
169.985018
 20
242.898062
 30
0.0
 10
171.540768
 20
242.450943
 30
0.0
 10
172.625743
 20
242.235607
 30
0.0
  0
SPLINE
  5
12f
100
AcDbEntity
  8
Layer_1
 62
7
100
AcDbSpline
 70
8
 71
3
 72
8
 73
4
 74
0
 40
0
 40
0
 40
0
 40
0
 40
1
 40
1
 40
1
 40
1
 10
172.625743
 20
242.235607
 30
0.0
 10
175.313278
 20
241.702292
 30
0.0
 10
181.703337
 20
241.692143
 30
0.0
 10
184.194097
 20
242.217415
 30
0.0
  0
SPLINE
  5
130
100
AcDbEntity
  8
Layer_1
 62
7
100
AcDbSpline
 70
8
 71
3
 72
8
 73
4
 74
0
 40
0
 40
0
 40
0
 40
0
 40
1
 40
1
 40
1
 40
1
 10
184.194097
 20
242.217415
 30
0.0
 10
188.260220
 20
243.074891
 30
0.0
 10
191.354639
 20
245.262562
 30
0.0
 10
192.771559
 20
248.281888
 30
0.0
  0
SPLINE
  5
131
100
AcDbEntity
  8
Layer_1
 62
7
100
AcDbSpline
 70
8
 71
3
 72
8
 73
4
 74
0
 40
0
 40
0
 40
0
 40
0
 40
1
 40
1
 40
1
 40
1
 10
192.771559
 20
248.281888
 30
0.0
 10
193.401394
 20
249.623996
 30
0.0
 10
193.500327
 20
250.216098
 30
0.0
 10
193.503573
 20
252.656333
 30
0.0
  0
SPLINE
  5
132
100
AcDbEntity
  8
Layer_1
 62
7
100
AcDbSpline
 70
8
 71
3
 72
8
 73
4
 74
0
 40
0
 40
0
 40
0
 40
0
 40
1
 40
1
 40
1
 40
1
 10
193.503573
 20
252.656333
 30
0.0
 10
193.506708
 20
255.018928
 30
0.0
 10
193.399554
 20
255.717259
 30
0.0
 10
192.844869
 20
256.943684
 30
0.0
  0
SPLINE
  5
133
100
AcDbEntity
  8
Layer_1
 62
7
100
AcDbSpline
 70
8
 71
3
 72
8
 73
4
 74
0
 40
0
 40
0
 40
0
 40
0
 40
1
 40
1
 40
1
 40
1
 10
192.844869
 20
256.943684
 30
0.0
 10
191.799170
 20
259.255761
 30
0.0
 10
189.444774
 20
261.288212
 30
0.0
 10
185.835617
 20
262.993822
 30
0.0
  0
SPLINE
  5
134
100
AcDbEntity
  8
Layer_1
 62
7
100
AcDbSpline
 70
8
 71
3
 72
8
 73
4
 74
0
 40
0
 40
0
 40
0
 40
0
 40
1
 40
1
 40
1
 40
1
 10
185.835617
 20
262.993822
 30
0.0
 10
184.156872
 20
263.787149
 30
0.0
 10
181.891641
 20
264.858408
 30
0.0
 10
180.801919
 20
265.373972
 30
0.0
  0
SPLINE
  5
135
100
AcDbEntity
  8
Layer_1
 62
7
100
AcDbSpline
 70
8
 71
3
 72
8
 73
4
 74
0
 40
0
 40
0
 40
0
 40
0
 40
1
 40
1
 40
1
 40
1
 10
180.801919
 20
265.373972
 30
0.0
 10
178.555221
 20
266.436934
 30
0.0
 10
177.645359
 20
267.267810
 30
0.0
 10
177.403125
 20
268.478967
 30
0.0
  0
SPLINE
  5
136
100
AcDbEntity
  8
Layer_1
 62
7
100
AcDbSpline
 70
8
 71
3
 72
8
 73
4
 74
0
 40
0
 40
0
 40
0
 40
0
 40
1
 40
1
 40
1
 40
1
 10
177.403125
 20
268.478967
 30
0.0
 10
176.706126
 20
271.963962
 30
0.0
 10
184.628341
 20
272.839836
 30
0.0
 10
190.180296
 20
269.891731
 30
0.0
  0
LWPOLYLINE
  5
137
100
AcDbEntity
  8
Layer_1
 62
7
100
AcDbPolyline
 90
3
 70
0
 10
167.684097
 20
248.456070
 30
0.0
 10
167.684097
 20
243.831927
 30
0.0
 10
169.168521
 20
243.229447
 30
0.0
  0
SPLINE
  5
138
100
AcDbEntity
  8
Layer_1
 62
7
100
AcDbSpline
 70
8
 71
3
 72
8
 73
4
 74
0
 40
0
 40
0
 40
0
 40
0
 40
1
 40
1
 40
1
 40
1
 10
189.979653
 20
278.314301
 30
0.0
 10
188.463041
 20
278.767369
 30
0.0
 10
187.240607
 20
278.865326
 30
0.0
 10
182.924097
 20
278.879296
 30
0.0
  0
SPLINE
  5
139
100
AcDbEntity
  8
Layer_1
 62
7
100
AcDbSpline
 70
8
 71
3
 72
8
 73
4
 74
0
 40
0
 40
0
 40
0
 40
0
 40
1
 40
1
 40
1
 40
1
 10
182.924097
 20
278.879296
 30
0.0
 10
182.297722
 20
278.881322
 30
0.0
 10
181.745320
 20
278.882821
 30
0.0
 10
181.253364
 20
278.882053
 30
0.0
  0
LWPOLYLINE
  5
13a
100
AcDbEntity
  8
Layer_1
 62
7
100
AcDbPolyline
 90
5
 70
0
 10
190.180296
 20
269.891731
 30
0.0
 10
191.969540
 20
268.941986
 30
0.0
 10
191.891818
 20
273.354465
 30
0.0
 10
191.814097
 20
277.766392
 30
0.0
 10
189.979653
 20
278.314301
 30
0.0
  0
LWPOLYLINE
  5
13b
100
AcDbEntity
  8
Layer_1
 62
7
100
AcDbPolyline
 90
2
 70
0
 10
181.253364
 20
278.882053
 30
0.0
 10
181.253364
 20
278.882053
 30
0.0
  0
SPLINE
  5
13c
100
AcDbEntity
  8
Layer_1
 62
7
100
AcDbSpline
 70
8
 71
3
 72
8
 73
4
 74
0
 40
0
 40
0
 40
0
 40
0
 40
1
 40
1
 40
1
 40
1
 10
269.850746
 20
266.838000
 30
0.0
 10
269.851931
 20
260.282429
 30
0.0
 10
269.978550
 20
254.421588
 30
0.0
 10
270.140687
 20
253.422521
 30
0.0
  0
SPLINE
  5
13d
100
AcDbEntity
  8
Layer_1
 62
7
100
AcDbSpline
 70
8
 71
3
 72
8
 73
4
 74
0
 40
0
 40
0
 40
0
 40
0
 40
1
 40
1
 40
1
 40
1
 10
270.140687
 20
253.422521
 30
0.0
 10
271.141531
 20
247.255034
 30
0.0
 10
274.785088
 20
243.340174
 30
0.0
 10
280.714097
 20
242.062526
 30
0.0
  0
SPLINE
  5
13e
100
AcDbEntity
  8
Layer_1
 62
7
100
AcDbSpline
 70
8
 71
3
 72
8
 73
4
 74
0
 40
0
 40
0
 40
0
 40
0
 40
1
 40
1
 40
1
 40
1
 10
280.714097
 20
242.062526
 30
0.0
 10
281.334986
 20
241.928696
 30
0.0
 10
283.684500
 20
241.861471
 30
0.0
 10
285.935194
 20
241.913146
 30
0.0
  0
SPLINE
  5
13f
100
AcDbEntity
  8
Layer_1
 62
7
100
AcDbSpline
 70
8
 71
3
 72
8
 73
4
 74
0
 40
0
 40
0
 40
0
 40
0
 40
1
 40
1
 40
1
 40
1
 10
285.935194
 20
241.913146
 30
0.0
 10
289.296800
 20
241.990277
 30
0.0
 10
290.349432
 20
242.120661
 30
0.0
 10
291.830450
 20
242.643506
 30
0.0
  0
SPLINE
  5
140
100
AcDbEntity
  8
Layer_1
 62
7
100
AcDbSpline
 70
8
 71
3
 72
8
 73
4
 74
0
 40
0
 40
0
 40
0
 40
0
 40
1
 40
1
 40
1
 40
1
 10
291.830450
 20
242.643506
 30
0.0
 10
294.459462
 20
243.571622
 30
0.0
 10
296.850901
 20
245.320152
 30
0.0
 10
298.208559
 20
247.306235
 30
0.0
  0
SPLINE
  5
141
100
AcDbEntity
  8
Layer_1
 62
7
100
AcDbSpline
 70
8
 71
3
 72
8
 73
4
 74
0
 40
0
 40
0
 40
0
 40
0
 40
1
 40
1
 40
1
 40
1
 10
298.208559
 20
247.306235
 30
0.0
 10
300.718192
 20
250.977523
 30
0.0
 10
301.164018
 20
254.233755
 30
0.0
 10
301.170792
 20
268.954666
 30
0.0
  0
LWPOLYLINE
  5
142
100
AcDbEntity
  8
Layer_1
 62
7
100
AcDbPolyline
 90
2
 70
0
 10
269.848542
 20
278.479666
 30
0.0
 10
269.850746
 20
266.838000
 30
0.0
  0
SPLINE
  5
143
100
AcDbEntity
  8
Layer_1
 62
7
100
AcDbSpline
 70
8
 71
3
 72
8
 73
4
 74
0
 40
0
 40
0
 40
0
 40
0
 40
1
 40
1
 40
1
 40
1
 10
291.579639
 20
266.818707
 30
0.0
 10
291.579639
 20
253.797961
 30
0.0
 10
291.478236
 20
252.922031
 30
0.0
 10
289.774969
 20
251.218763
 30
0.0
  0
SPLINE
  5
144
100
AcDbEntity
  8
Layer_1
 62
7
100
AcDbSpline
 70
8
 71
3
 72
8
 73
4
 74
0
 40
0
 40
0
 40
0
 40
0
 40
1
 40
1
 40
1
 40
1
 10
289.774969
 20
251.218763
 30
0.0
 10
287.667587
 20
249.111354
 30
0.0
 10
283.278157
 20
249.179443
 30
0.0
 10
281.104357
 20
251.353259
 30
0.0
  0
SPLINE
  5
145
100
AcDbEntity
  8
Layer_1
 62
7
100
AcDbSpline
 70
8
 71
3
 72
8
 73
4
 74
0
 40
0
 40
0
 40
0
 40
0
 40
1
 40
1
 40
1
 40
1
 10
281.104357
 20
251.353259
 30
0.0
 10
279.377383
 20
253.080233
 30
0.0
 10
279.342046
 20
253.364428
 30
0.0
 10
279.232431
 20
266.555777
 30
0.0
  0
LWPOLYLINE
  5
146
100
AcDbEntity
  8
Layer_1
 62
7
100
AcDbPolyline
 90
5
 70
0
 10
301.170792
 20
268.954666
 30
0.0
 10
301.175194
 20
278.479666
 30
0.0
 10
296.377416
 20
278.479666
 30
0.0
 10
291.579639
 20
278.479666
 30
0.0
 10
291.579639
 20
266.818707
 30
0.0
  0
LWPOLYLINE
  5
147
100
AcDbEntity
  8
Layer_1
 62
7
100
AcDbPolyline
 90
5
 70
0
 10
279.232431
 20
266.555777
 30
0.0
 10
279.133763
 20
278.479666
 30
0.0
 10
274.490877
 20
278.479666
 30
0.0
 10
269.848542
 20
278.479666
 30
0.0
 10
269.848542
 20
278.479666
 30
0.0
  0
SPLINE
  5
148
100
AcDbEntity
  8
Layer_1
 62
7
100
AcDbSpline
 70
8
 71
3
 72
8
 73
4
 74
0
 40
0
 40
0
 40
0
 40
0
 40
1
 40
1
 40
1
 40
1
 10
247.129102
 20
271.045975
 30
0.0
 10
248.557889
 20
271.046367
 30
0.0
 10
249.984175
 20
270.827705
 30
0.0
 10
250.798542
 20
270.388928
 30
0.0
  0
SPLINE
  5
149
100
AcDbEntity
  8
Layer_1
 62
7
100
AcDbSpline
 70
8
 71
3
 72
8
 73
4
 74
0
 40
0
 40
0
 40
0
 40
0
 40
1
 40
1
 40
1
 40
1
 10
250.798542
 20
270.388928
 30
0.0
 10
254.180015
 20
268.567006
 30
0.0
 10
255.640134
 20
265.078649
 30
0.0
 10
255.401741
 20
259.392181
 30
0.0
  0
SPLINE
  5
14a
100
AcDbEntity
  8
Layer_1
 62
7
100
AcDbSpline
 70
8
 71
3
 72
8
 73
4
 74
0
 40
0
 40
0
 40
0
 40
0
 40
1
 40
1
 40
1
 40
1
 10
255.401741
 20
259.392181
 30
0.0
 10
255.293001
 20
256.798587
 30
0.0
 10
255.149821
 20
256.051085
 30
0.0
 10
254.471842
 20
254.545348
 30
0.0
  0
SPLINE
  5
14b
100
AcDbEntity
  8
Layer_1
 62
7
100
AcDbSpline
 70
8
 71
3
 72
8
 73
4
 74
0
 40
0
 40
0
 40
0
 40
0
 40
1
 40
1
 40
1
 40
1
 10
254.471842
 20
254.545348
 30
0.0
 10
253.486745
 20
252.357533
 30
0.0
 10
251.717844
 20
250.709081
 30
0.0
 10
249.718158
 20
250.115229
 30
0.0
  0
SPLINE
  5
14c
100
AcDbEntity
  8
Layer_1
 62
7
100
AcDbSpline
 70
8
 71
3
 72
8
 73
4
 74
0
 40
0
 40
0
 40
0
 40
0
 40
1
 40
1
 40
1
 40
1
 10
249.718158
 20
250.115229
 30
0.0
 10
246.142998
 20
249.053538
 30
0.0
 10
242.517905
 20
250.141967
 30
0.0
 10
240.499084
 20
252.882881
 30
0.0
  0
SPLINE
  5
14d
100
AcDbEntity
  8
Layer_1
 62
7
100
AcDbSpline
 70
8
 71
3
 72
8
 73
4
 74
0
 40
0
 40
0
 40
0
 40
0
 40
1
 40
1
 40
1
 40
1
 10
240.499084
 20
252.882881
 30
0.0
 10
239.033053
 20
254.873253
 30
0.0
 10
238.443914
 20
257.366791
 30
0.0
 10
238.567076
 20
261.061814
 30
0.0
  0
SPLINE
  5
14e
100
AcDbEntity
  8
Layer_1
 62
7
100
AcDbSpline
 70
8
 71
3
 72
8
 73
4
 74
0
 40
0
 40
0
 40
0
 40
0
 40
1
 40
1
 40
1
 40
1
 10
238.567076
 20
261.061814
 30
0.0
 10
238.661789
 20
263.902917
 30
0.0
 10
238.762760
 20
264.416321
 30
0.0
 10
239.549342
 20
266.062439
 30
0.0
  0
SPLINE
  5
14f
100
AcDbEntity
  8
Layer_1
 62
7
100
AcDbSpline
 70
8
 71
3
 72
8
 73
4
 74
0
 40
0
 40
0
 40
0
 40
0
 40
1
 40
1
 40
1
 40
1
 10
239.549342
 20
266.062439
 30
0.0
 10
240.536439
 20
268.128193
 30
0.0
 10
241.761947
 20
269.488204
 30
0.0
 10
243.445882
 20
270.386721
 30
0.0
  0
SPLINE
  5
150
100
AcDbEntity
  8
Layer_1
 62
7
100
AcDbSpline
 70
8
 71
3
 72
8
 73
4
 74
0
 40
0
 40
0
 40
0
 40
0
 40
1
 40
1
 40
1
 40
1
 10
243.445882
 20
270.386721
 30
0.0
 10
244.269068
 20
270.825910
 30
0.0
 10
245.700313
 20
271.045583
 30
0.0
 10
247.129102
 20
271.045975
 30
0.0
  0
LWPOLYLINE
  5
151
100
AcDbEntity
  8
Layer_1
 62
7
100
AcDbPolyline
 90
18
 70
0
 10
304.263129
 20
278.479666
 30
0.0
 10
304.341953
 20
274.740222
 30
0.0
 10
304.420750
 20
271.000777
 30
0.0
 10
309.571305
 20
270.924157
 30
0.0
 10
314.721861
 20
270.846986
 30
0.0
 10
314.721861
 20
256.601379
 30
0.0
 10
314.721861
 20
242.355222
 30
0.0
 10
319.378528
 20
242.355222
 30
0.0
 10
324.035194
 20
242.355222
 30
0.0
 10
324.035194
 20
256.607444
 30
0.0
 10
324.035194
 20
270.859666
 30
0.0
 10
329.256305
 20
270.859666
 30
0.0
 10
334.477416
 20
270.859666
 30
0.0
 10
334.477416
 20
274.669666
 30
0.0
 10
334.477416
 20
278.479666
 30
0.0
 10
319.370287
 20
278.479666
 30
0.0
 10
304.263129
 20
278.479666
 30
0.0
 10
304.263129
 20
278.479666
 30
0.0
  0
SPLINE
  5
152
100
AcDbEntity
  8
Layer_1
 62
7
100
AcDbSpline
 70
8
 71
3
 72
8
 73
4
 74
0
 40
0
 40
0
 40
0
 40
0
 40
1
 40
1
 40
1
 40
1
 10
296.665170
 20
234.108488
 30
0.0
 10
294.525559
 20
234.102305
 30
0.0
 10
292.478347
 20
233.892136
 30
0.0
 10
290.874083
 20
233.470180
 30
0.0
  0
SPLINE
  5
153
100
AcDbEntity
  8
Layer_1
 62
7
100
AcDbSpline
 70
8
 71
3
 72
8
 73
4
 74
0
 40
0
 40
0
 40
0
 40
0
 40
1
 40
1
 40
1
 40
1
 10
290.874083
 20
233.470180
 30
0.0
 10
287.053556
 20
232.465300
 30
0.0
 10
284.211324
 20
230.372405
 30
0.0
 10
282.818642
 20
227.538555
 30
0.0
  0
SPLINE
  5
154
100
AcDbEntity
  8
Layer_1
 62
7
100
AcDbSpline
 70
8
 71
3
 72
8
 73
4
 74
0
 40
0
 40
0
 40
0
 40
0
 40
1
 40
1
 40
1
 40
1
 10
282.818642
 20
227.538555
 30
0.0
 10
282.222448
 20
226.325423
 30
0.0
 10
282.125208
 20
225.731486
 30
0.0
 10
282.125208
 20
223.305222
 30
0.0
  0
SPLINE
  5
155
100
AcDbEntity
  8
Layer_1
 62
7
100
AcDbSpline
 70
8
 71
3
 72
8
 73
4
 74
0
 40
0
 40
0
 40
0
 40
0
 40
1
 40
1
 40
1
 40
1
 10
282.125208
 20
223.305222
 30
0.0
 10
282.125208
 20
221.017613
 30
0.0
 10
282.239861
 20
220.236253
 30
0.0
 10
282.728783
 20
219.178822
 30
0.0
  0
SPLINE
  5
156
100
AcDbEntity
  8
Layer_1
 62
7
100
AcDbSpline
 70
8
 71
3
 72
8
 73
4
 74
0
 40
0
 40
0
 40
0
 40
0
 40
1
 40
1
 40
1
 40
1
 10
282.728783
 20
219.178822
 30
0.0
 10
284.039987
 20
216.343110
 30
0.0
 10
286.626244
 20
214.307365
 30
0.0
 10
291.519017
 20
212.260520
 30
0.0
  0
SPLINE
  5
157
100
AcDbEntity
  8
Layer_1
 62
7
100
AcDbSpline
 70
8
 71
3
 72
8
 73
4
 74
0
 40
0
 40
0
 40
0
 40
0
 40
1
 40
1
 40
1
 40
1
 10
291.519017
 20
212.260520
 30
0.0
 10
296.575282
 20
210.145264
 30
0.0
 10
298.070750
 20
209.012969
 30
0.0
 10
298.070750
 20
207.300134
 30
0.0
  0
SPLINE
  5
158
100
AcDbEntity
  8
Layer_1
 62
7
100
AcDbSpline
 70
8
 71
3
 72
8
 73
4
 74
0
 40
0
 40
0
 40
0
 40
0
 40
1
 40
1
 40
1
 40
1
 10
298.070750
 20
207.300134
 30
0.0
 10
298.070750
 20
204.431515
 30
0.0
 10
292.420943
 20
203.457425
 30
0.0
 10
287.172682
 20
205.421042
 30
0.0
  0
SPLINE
  5
159
100
AcDbEntity
  8
Layer_1
 62
7
100
AcDbSpline
 70
8
 71
3
 72
8
 73
4
 74
0
 40
0
 40
0
 40
0
 40
0
 40
1
 40
1
 40
1
 40
1
 10
287.172682
 20
205.421042
 30
0.0
 10
286.308405
 20
205.744410
 30
0.0
 10
284.784433
 20
206.568084
 30
0.0
 10
283.786016
 20
207.251626
 30
0.0
  0
LWPOLYLINE
  5
15a
100
AcDbEntity
  8
Layer_1
 62
7
100
AcDbPolyline
 90
2
 70
0
 10
247.129102
 20
271.045975
 30
0.0
 10
247.129102
 20
271.045975
 30
0.0
  0
SPLINE
  5
15b
100
AcDbEntity
  8
Layer_1
 62
7
100
AcDbSpline
 70
8
 71
3
 72
8
 73
4
 74
0
 40
0
 40
0
 40
0
 40
0
 40
1
 40
1
 40
1
 40
1
 10
284.413311
 20
198.267369
 30
0.0
 10
285.671655
 20
197.838533
 30
0.0
 10
287.767155
 20
197.368726
 30
0.0
 10
289.069978
 20
197.222817
 30
0.0
  0
SPLINE
  5
15c
100
AcDbEntity
  8
Layer_1
 62
7
100
AcDbSpline
 70
8
 71
3
 72
8
 73
4
 74
0
 40
0
 40
0
 40
0
 40
0
 40
1
 40
1
 40
1
 40
1
 10
289.069978
 20
197.222817
 30
0.0
 10
291.917346
 20
196.903934
 30
0.0
 10
296.110124
 20
197.072912
 30
0.0
 10
298.672137
 20
197.610319
 30
0.0
  0
SPLINE
  5
15d
100
AcDbEntity
  8
Layer_1
 62
7
100
AcDbSpline
 70
8
 71
3
 72
8
 73
4
 74
0
 40
0
 40
0
 40
0
 40
0
 40
1
 40
1
 40
1
 40
1
 10
298.672137
 20
197.610319
 30
0.0
 10
302.251674
 20
198.361171
 30
0.0
 10
305.318612
 20
200.498429
 30
0.0
 10
306.774455
 20
203.256418
 30
0.0
  0
SPLINE
  5
15e
100
AcDbEntity
  8
Layer_1
 62
7
100
AcDbSpline
 70
8
 71
3
 72
8
 73
4
 74
0
 40
0
 40
0
 40
0
 40
0
 40
1
 40
1
 40
1
 40
1
 10
306.774455
 20
203.256418
 30
0.0
 10
307.461468
 20
204.557914
 30
0.0
 10
307.525194
 20
204.954540
 30
0.0
 10
307.525194
 20
207.924111
 30
0.0
  0
SPLINE
  5
15f
100
AcDbEntity
  8
Layer_1
 62
7
100
AcDbSpline
 70
8
 71
3
 72
8
 73
4
 74
0
 40
0
 40
0
 40
0
 40
0
 40
1
 40
1
 40
1
 40
1
 10
307.525194
 20
207.924111
 30
0.0
 10
307.525194
 20
210.752231
 30
0.0
 10
307.443378
 20
211.323040
 30
0.0
 10
306.888557
 20
212.361392
 30
0.0
  0
SPLINE
  5
160
100
AcDbEntity
  8
Layer_1
 62
7
100
AcDbSpline
 70
8
 71
3
 72
8
 73
4
 74
0
 40
0
 40
0
 40
0
 40
0
 40
1
 40
1
 40
1
 40
1
 10
306.888557
 20
212.361392
 30
0.0
 10
305.339016
 20
215.261225
 30
0.0
 10
303.253958
 20
216.814147
 30
0.0
 10
297.491432
 20
219.360723
 30
0.0
  0
SPLINE
  5
161
100
AcDbEntity
  8
Layer_1
 62
7
100
AcDbSpline
 70
8
 71
3
 72
8
 73
4
 74
0
 40
0
 40
0
 40
0
 40
0
 40
1
 40
1
 40
1
 40
1
 10
297.491432
 20
219.360723
 30
0.0
 10
291.833300
 20
221.861156
 30
0.0
 10
290.425378
 20
223.552903
 30
0.0
 10
292.437340
 20
225.432359
 30
0.0
  0
SPLINE
  5
162
100
AcDbEntity
  8
Layer_1
 62
7
100
AcDbSpline
 70
8
 71
3
 72
8
 73
4
 74
0
 40
0
 40
0
 40
0
 40
0
 40
1
 40
1
 40
1
 40
1
 10
292.437340
 20
225.432359
 30
0.0
 10
294.622926
 20
227.474011
 30
0.0
 10
301.251225
 20
227.083497
 30
0.0
 10
304.908599
 20
224.697590
 30
0.0
  0
SPLINE
  5
163
100
AcDbEntity
  8
Layer_1
 62
7
100
AcDbSpline
 70
8
 71
3
 72
8
 73
4
 74
0
 40
0
 40
0
 40
0
 40
0
 40
1
 40
1
 40
1
 40
1
 10
304.908599
 20
224.697590
 30
0.0
 10
305.487352
 20
224.320034
 30
0.0
 10
306.027102
 20
224.010777
 30
0.0
 10
306.108044
 20
224.010777
 30
0.0
  0
SPLINE
  5
164
100
AcDbEntity
  8
Layer_1
 62
7
100
AcDbSpline
 70
8
 71
3
 72
8
 73
4
 74
0
 40
0
 40
0
 40
0
 40
0
 40
1
 40
1
 40
1
 40
1
 10
306.108044
 20
224.010777
 30
0.0
 10
306.188985
 20
224.010777
 30
0.0
 10
306.255194
 20
225.962807
 30
0.0
 10
306.255194
 20
228.348290
 30
0.0
  0
LWPOLYLINE
  5
165
100
AcDbEntity
  8
Layer_1
 62
7
100
AcDbPolyline
 90
5
 70
0
 10
283.786016
 20
207.251626
 30
0.0
 10
281.970316
 20
208.494617
 30
0.0
 10
282.048037
 20
203.770703
 30
0.0
 10
282.125208
 20
199.047338
 30
0.0
 10
284.413311
 20
198.267369
 30
0.0
  0
SPLINE
  5
166
100
AcDbEntity
  8
Layer_1
 62
7
100
AcDbSpline
 70
8
 71
3
 72
8
 73
4
 74
0
 40
0
 40
0
 40
0
 40
0
 40
1
 40
1
 40
1
 40
1
 10
304.632416
 20
233.140003
 30
0.0
 10
302.319831
 20
233.787576
 30
0.0
 10
299.416075
 20
234.116438
 30
0.0
 10
296.665170
 20
234.108488
 30
0.0
  0
LWPOLYLINE
  5
167
100
AcDbEntity
  8
Layer_1
 62
7
100
AcDbPolyline
 90
3
 70
0
 10
306.255194
 20
228.348290
 30
0.0
 10
306.255194
 20
232.685803
 30
0.0
 10
304.632416
 20
233.140003
 30
0.0
  0
SPLINE
  5
168
100
AcDbEntity
  8
Layer_1
 62
7
100
AcDbSpline
 70
8
 71
3
 72
8
 73
4
 74
0
 40
0
 40
0
 40
0
 40
0
 40
1
 40
1
 40
1
 40
1
 10
223.846319
 20
234.003208
 30
0.0
 10
217.866228
 20
234.010038
 30
0.0
 10
214.444944
 20
232.696635
 30
0.0
 10
210.713063
 20
228.961790
 30
0.0
  0
SPLINE
  5
169
100
AcDbEntity
  8
Layer_1
 62
7
100
AcDbSpline
 70
8
 71
3
 72
8
 73
4
 74
0
 40
0
 40
0
 40
0
 40
0
 40
1
 40
1
 40
1
 40
1
 10
210.713063
 20
228.961790
 30
0.0
 10
206.839538
 20
225.085217
 30
0.0
 10
205.387843
 20
221.344113
 30
0.0
 10
205.396592
 20
215.261888
 30
0.0
  0
SPLINE
  5
16a
100
AcDbEntity
  8
Layer_1
 62
7
100
AcDbSpline
 70
8
 71
3
 72
8
 73
4
 74
0
 40
0
 40
0
 40
0
 40
0
 40
1
 40
1
 40
1
 40
1
 10
205.396592
 20
215.261888
 30
0.0
 10
205.405087
 20
209.422795
 30
0.0
 10
206.841209
 20
205.659907
 30
0.0
 10
210.409344
 20
202.127529
 30
0.0
  0
SPLINE
  5
16b
100
AcDbEntity
  8
Layer_1
 62
7
100
AcDbSpline
 70
8
 71
3
 72
8
 73
4
 74
0
 40
0
 40
0
 40
0
 40
0
 40
1
 40
1
 40
1
 40
1
 10
210.409344
 20
202.127529
 30
0.0
 10
213.333364
 20
199.232832
 30
0.0
 10
216.318457
 20
197.785816
 30
0.0
 10
220.569344
 20
197.202971
 30
0.0
  0
SPLINE
  5
16c
100
AcDbEntity
  8
Layer_1
 62
7
100
AcDbSpline
 70
8
 71
3
 72
8
 73
4
 74
0
 40
0
 40
0
 40
0
 40
0
 40
1
 40
1
 40
1
 40
1
 10
220.569344
 20
197.202971
 30
0.0
 10
222.710592
 20
196.909375
 30
0.0
 10
226.266008
 20
197.107329
 30
0.0
 10
228.502986
 20
197.645047
 30
0.0
  0
SPLINE
  5
16d
100
AcDbEntity
  8
Layer_1
 62
7
100
AcDbSpline
 70
8
 71
3
 72
8
 73
4
 74
0
 40
0
 40
0
 40
0
 40
0
 40
1
 40
1
 40
1
 40
1
 10
228.502986
 20
197.645047
 30
0.0
 10
233.270089
 20
198.790982
 30
0.0
 10
237.446834
 20
202.130340
 30
0.0
 10
239.615486
 20
206.529535
 30
0.0
  0
SPLINE
  5
16e
100
AcDbEntity
  8
Layer_1
 62
7
100
AcDbSpline
 70
8
 71
3
 72
8
 73
4
 74
0
 40
0
 40
0
 40
0
 40
0
 40
1
 40
1
 40
1
 40
1
 10
239.615486
 20
206.529535
 30
0.0
 10
241.074434
 20
209.489115
 30
0.0
 10
241.616397
 20
212.008007
 30
0.0
 10
241.616397
 20
215.826333
 30
0.0
  0
SPLINE
  5
16f
100
AcDbEntity
  8
Layer_1
 62
7
100
AcDbSpline
 70
8
 71
3
 72
8
 73
4
 74
0
 40
0
 40
0
 40
0
 40
0
 40
1
 40
1
 40
1
 40
1
 10
241.616397
 20
215.826333
 30
0.0
 10
241.616397
 20
221.715715
 30
0.0
 10
240.165819
 20
225.534142
 30
0.0
 10
236.572227
 20
229.100697
 30
0.0
  0
SPLINE
  5
170
100
AcDbEntity
  8
Layer_1
 62
7
100
AcDbSpline
 70
8
 71
3
 72
8
 73
4
 74
0
 40
0
 40
0
 40
0
 40
0
 40
1
 40
1
 40
1
 40
1
 10
236.572227
 20
229.100697
 30
0.0
 10
232.878870
 20
232.766256
 30
0.0
 10
229.684368
 20
233.996435
 30
0.0
 10
223.846319
 20
234.003208
 30
0.0
  0
LWPOLYLINE
  5
171
100
AcDbEntity
  8
Layer_1
 62
7
100
AcDbPolyline
 90
2
 70
0
 10
296.665170
 20
234.108488
 30
0.0
 10
296.665170
 20
234.108488
 30
0.0
  0
LWPOLYLINE
  5
172
100
AcDbEntity
  8
Layer_1
 62
7
100
AcDbPolyline
 90
2
 70
0
 10
223.846319
 20
234.003208
 30
0.0
 10
223.846319
 20
234.003208
 30
0.0
  0
LWPOLYLINE
  5
173
100
AcDbEntity
  8
Layer_1
 62
7
100
AcDbPolyline
 90
26
 70
0
 10
168.248542
 20
233.620664
 30
0.0
 10
168.248542
 20
215.544111
 30
0.0
 10
168.248542
 20
197.468107
 30
0.0
 10
172.834653
 20
197.545829
 30
0.0
 10
177.420764
 20
197.623000
 30
0.0
 10
177.496281
 20
204.749111
 30
0.0
 10
177.571798
 20
211.875222
 30
0.0
 10
184.335208
 20
211.875222
 30
0.0
 10
191.099172
 20
211.875222
 30
0.0
 10
191.174136
 20
204.749111
 30
0.0
 10
191.249653
 20
197.623000
 30
0.0
 10
195.835764
 20
197.545829
 30
0.0
 10
200.421875
 20
197.468107
 30
0.0
 10
200.421875
 20
215.537495
 30
0.0
 10
200.421875
 20
233.606333
 30
0.0
 10
195.765208
 20
233.606333
 30
0.0
 10
191.108542
 20
233.606333
 30
0.0
 10
191.108542
 20
226.691888
 30
0.0
 10
191.108542
 20
219.777444
 30
0.0
 10
184.340170
 20
219.777444
 30
0.0
 10
177.571798
 20
219.777444
 30
0.0
 10
177.496281
 20
226.621333
 30
0.0
 10
177.420764
 20
233.465222
 30
0.0
 10
172.834653
 20
233.542943
 30
0.0
 10
168.248542
 20
233.620664
 30
0.0
 10
168.248542
 20
233.620664
 30
0.0
  0
SPLINE
  5
174
100
AcDbEntity
  8
Layer_1
 62
7
100
AcDbSpline
 70
8
 71
3
 72
8
 73
4
 74
0
 40
0
 40
0
 40
0
 40
0
 40
1
 40
1
 40
1
 40
1
 10
266.885208
 20
208.065222
 30
0.0
 10
265.759367
 20
205.813568
 30
0.0
 10
264.447788
 20
205.052277
 30
0.0
 10
261.694964
 20
205.052277
 30
0.0
  0
SPLINE
  5
175
100
AcDbEntity
  8
Layer_1
 62
7
100
AcDbSpline
 70
8
 71
3
 72
8
 73
4
 74
0
 40
0
 40
0
 40
0
 40
0
 40
1
 40
1
 40
1
 40
1
 10
261.694964
 20
205.052277
 30
0.0
 10
258.425789
 20
205.052277
 30
0.0
 10
256.452333
 20
206.569754
 30
0.0
 10
255.758377
 20
209.617444
 30
0.0
  0
SPLINE
  5
176
100
AcDbEntity
  8
Layer_1
 62
7
100
AcDbSpline
 70
8
 71
3
 72
8
 73
4
 74
0
 40
0
 40
0
 40
0
 40
0
 40
1
 40
1
 40
1
 40
1
 10
255.758377
 20
209.617444
 30
0.0
 10
255.587435
 20
210.368070
 30
0.0
 10
255.465775
 20
215.533019
 30
0.0
 10
255.461824
 20
222.246888
 30
0.0
  0
LWPOLYLINE
  5
177
100
AcDbEntity
  8
Layer_1
 62
7
100
AcDbPolyline
 90
4
 70
0
 10
267.911572
 20
233.620111
 30
0.0
 10
267.821723
 20
221.689610
 30
0.0
 10
267.731875
 20
209.758555
 30
0.0
 10
266.885208
 20
208.065222
 30
0.0
  0
SPLINE
  5
178
100
AcDbEntity
  8
Layer_1
 62
7
100
AcDbSpline
 70
8
 71
3
 72
8
 73
4
 74
0
 40
0
 40
0
 40
0
 40
0
 40
1
 40
1
 40
1
 40
1
 10
246.208573
 20
220.976888
 30
0.0
 10
246.300690
 20
209.723475
 30
0.0
 10
246.367754
 20
208.178336
 30
0.0
 10
246.823176
 20
206.795222
 30
0.0
  0
SPLINE
  5
179
100
AcDbEntity
  8
Layer_1
 62
7
100
AcDbSpline
 70
8
 71
3
 72
8
 73
4
 74
0
 40
0
 40
0
 40
0
 40
0
 40
1
 40
1
 40
1
 40
1
 10
246.823176
 20
206.795222
 30
0.0
 10
248.734583
 20
200.990024
 30
0.0
 10
252.264432
 20
198.046381
 30
0.0
 10
258.323182
 20
197.204625
 30
0.0
  0
SPLINE
  5
17a
100
AcDbEntity
  8
Layer_1
 62
7
100
AcDbSpline
 70
8
 71
3
 72
8
 73
4
 74
0
 40
0
 40
0
 40
0
 40
0
 40
1
 40
1
 40
1
 40
1
 10
258.323182
 20
197.204625
 30
0.0
 10
260.313018
 20
196.928160
 30
0.0
 10
264.159647
 20
197.084155
 30
0.0
 10
266.320764
 20
197.528740
 30
0.0
  0
SPLINE
  5
17b
100
AcDbEntity
  8
Layer_1
 62
7
100
AcDbSpline
 70
8
 71
3
 72
8
 73
4
 74
0
 40
0
 40
0
 40
0
 40
0
 40
1
 40
1
 40
1
 40
1
 10
266.320764
 20
197.528740
 30
0.0
 10
270.199175
 20
198.326582
 30
0.0
 10
273.615870
 20
200.918068
 30
0.0
 10
275.281319
 20
204.325224
 30
0.0
  0
SPLINE
  5
17c
100
AcDbEntity
  8
Layer_1
 62
7
100
AcDbSpline
 70
8
 71
3
 72
8
 73
4
 74
0
 40
0
 40
0
 40
0
 40
0
 40
1
 40
1
 40
1
 40
1
 10
275.281319
 20
204.325224
 30
0.0
 10
276.908331
 20
207.653725
 30
0.0
 10
277.008378
 20
208.644088
 30
0.0
 10
277.027569
 20
221.611888
 30
0.0
  0
LWPOLYLINE
  5
17d
100
AcDbEntity
  8
Layer_1
 62
7
100
AcDbPolyline
 90
5
 70
0
 10
255.461824
 20
222.246888
 30
0.0
 10
255.455208
 20
233.606333
 30
0.0
 10
250.780352
 20
233.606333
 30
0.0
 10
246.105494
 20
233.606333
 30
0.0
 10
246.208573
 20
220.976888
 30
0.0
  0
LWPOLYLINE
  5
17e
100
AcDbEntity
  8
Layer_1
 62
7
100
AcDbPolyline
 90
5
 70
0
 10
277.027569
 20
221.611888
 30
0.0
 10
277.045208
 20
233.465222
 30
0.0
 10
272.478390
 20
233.542943
 30
0.0
 10
267.911572
 20
233.620111
 30
0.0
 10
267.911572
 20
233.620111
 30
0.0
  0
SPLINE
  5
17f
100
AcDbEntity
  8
Layer_1
 62
7
100
AcDbSpline
 70
8
 71
3
 72
8
 73
4
 74
0
 40
0
 40
0
 40
0
 40
0
 40
1
 40
1
 40
1
 40
1
 10
312.464083
 20
215.732624
 30
0.0
 10
312.464111
 20
205.901895
 30
0.0
 10
312.550133
 20
197.772337
 30
0.0
 10
312.655373
 20
197.667097
 30
0.0
  0
SPLINE
  5
180
100
AcDbEntity
  8
Layer_1
 62
7
100
AcDbSpline
 70
8
 71
3
 72
8
 73
4
 74
0
 40
0
 40
0
 40
0
 40
0
 40
1
 40
1
 40
1
 40
1
 10
312.655373
 20
197.667097
 30
0.0
 10
312.760614
 20
197.561913
 30
0.0
 10
317.872392
 20
197.509131
 30
0.0
 10
324.014818
 20
197.549687
 30
0.0
  0
LWPOLYLINE
  5
181
100
AcDbEntity
  8
Layer_1
 62
7
100
AcDbPolyline
 90
2
 70
0
 10
312.464083
 20
233.606333
 30
0.0
 10
312.464083
 20
215.732624
 30
0.0
  0
SPLINE
  5
182
100
AcDbEntity
  8
Layer_1
 62
7
100
AcDbSpline
 70
8
 71
3
 72
8
 73
4
 74
0
 40
0
 40
0
 40
0
 40
0
 40
1
 40
1
 40
1
 40
1
 10
223.846319
 20
226.113110
 30
0.0
 10
225.653586
 20
226.108171
 30
0.0
 10
226.186966
 20
225.984961
 30
0.0
 10
227.493711
 20
225.270854
 30
0.0
  0
SPLINE
  5
183
100
AcDbEntity
  8
Layer_1
 62
7
100
AcDbSpline
 70
8
 71
3
 72
8
 73
4
 74
0
 40
0
 40
0
 40
0
 40
0
 40
1
 40
1
 40
1
 40
1
 10
227.493711
 20
225.270854
 30
0.0
 10
229.227713
 20
224.323237
 30
0.0
 10
230.316857
 20
222.980858
 30
0.0
 10
231.229848
 20
220.665451
 30
0.0
  0
SPLINE
  5
184
100
AcDbEntity
  8
Layer_1
 62
7
100
AcDbSpline
 70
8
 71
3
 72
8
 73
4
 74
0
 40
0
 40
0
 40
0
 40
0
 40
1
 40
1
 40
1
 40
1
 10
231.229848
 20
220.665451
 30
0.0
 10
231.760793
 20
219.318940
 30
0.0
 10
231.857683
 20
218.525870
 30
0.0
 10
231.857683
 20
215.544111
 30
0.0
  0
SPLINE
  5
185
100
AcDbEntity
  8
Layer_1
 62
7
100
AcDbSpline
 70
8
 71
3
 72
8
 73
4
 74
0
 40
0
 40
0
 40
0
 40
0
 40
1
 40
1
 40
1
 40
1
 10
231.857683
 20
215.544111
 30
0.0
 10
231.857683
 20
212.523035
 30
0.0
 10
231.763773
 20
211.777951
 30
0.0
 10
231.204493
 20
210.356623
 30
0.0
  0
SPLINE
  5
186
100
AcDbEntity
  8
Layer_1
 62
7
100
AcDbSpline
 70
8
 71
3
 72
8
 73
4
 74
0
 40
0
 40
0
 40
0
 40
0
 40
1
 40
1
 40
1
 40
1
 10
231.204493
 20
210.356623
 30
0.0
 10
230.435946
 20
208.403505
 30
0.0
 10
228.988262
 20
206.700240
 30
0.0
 10
227.414336
 20
205.897292
 30
0.0
  0
SPLINE
  5
187
100
AcDbEntity
  8
Layer_1
 62
7
100
AcDbSpline
 70
8
 71
3
 72
8
 73
4
 74
0
 40
0
 40
0
 40
0
 40
0
 40
1
 40
1
 40
1
 40
1
 10
227.414336
 20
205.897292
 30
0.0
 10
225.212439
 20
204.774076
 30
0.0
 10
221.908220
 20
204.772659
 30
0.0
 10
219.731497
 20
205.893985
 30
0.0
  0
SPLINE
  5
188
100
AcDbEntity
  8
Layer_1
 62
7
100
AcDbSpline
 70
8
 71
3
 72
8
 73
4
 74
0
 40
0
 40
0
 40
0
 40
0
 40
1
 40
1
 40
1
 40
1
 10
219.731497
 20
205.893985
 30
0.0
 10
218.177920
 20
206.694339
 30
0.0
 10
216.952474
 20
208.067169
 30
0.0
 10
216.030088
 20
210.040777
 30
0.0
  0
SPLINE
  5
189
100
AcDbEntity
  8
Layer_1
 62
7
100
AcDbSpline
 70
8
 71
3
 72
8
 73
4
 74
0
 40
0
 40
0
 40
0
 40
0
 40
1
 40
1
 40
1
 40
1
 10
216.030088
 20
210.040777
 30
0.0
 10
215.285755
 20
211.633442
 30
0.0
 10
215.238542
 20
211.960650
 30
0.0
 10
215.238542
 20
215.544111
 30
0.0
  0
SPLINE
  5
18a
100
AcDbEntity
  8
Layer_1
 62
7
100
AcDbSpline
 70
8
 71
3
 72
8
 73
4
 74
0
 40
0
 40
0
 40
0
 40
0
 40
1
 40
1
 40
1
 40
1
 10
215.238542
 20
215.544111
 30
0.0
 10
215.238542
 20
219.146533
 30
0.0
 10
215.283206
 20
219.449973
 30
0.0
 10
216.051584
 20
221.113588
 30
0.0
  0
SPLINE
  5
18b
100
AcDbEntity
  8
Layer_1
 62
7
100
AcDbSpline
 70
8
 71
3
 72
8
 73
4
 74
0
 40
0
 40
0
 40
0
 40
0
 40
1
 40
1
 40
1
 40
1
 10
216.051584
 20
221.113588
 30
0.0
 10
216.996097
 20
223.158458
 30
0.0
 10
218.971732
 20
225.156811
 30
0.0
 10
220.616749
 20
225.730569
 30
0.0
  0
SPLINE
  5
18c
100
AcDbEntity
  8
Layer_1
 62
7
100
AcDbSpline
 70
8
 71
3
 72
8
 73
4
 74
0
 40
0
 40
0
 40
0
 40
0
 40
1
 40
1
 40
1
 40
1
 10
220.616749
 20
225.730569
 30
0.0
 10
221.229002
 20
225.944098
 30
0.0
 10
222.682153
 20
226.116214
 30
0.0
 10
223.846319
 20
226.113110
 30
0.0
  0
LWPOLYLINE
  5
18d
100
AcDbEntity
  8
Layer_1
 62
7
100
AcDbPolyline
 90
23
 70
0
 10
324.014818
 20
197.549687
 30
0.0
 10
335.182972
 20
197.623000
 30
0.0
 10
335.261797
 20
201.362444
 30
0.0
 10
335.340621
 20
205.101888
 30
0.0
 10
328.559019
 20
205.101888
 30
0.0
 10
321.777416
 20
205.101888
 30
0.0
 10
321.777416
 20
208.488555
 30
0.0
 10
321.777416
 20
211.875222
 30
0.0
 10
327.704083
 20
211.875222
 30
0.0
 10
333.630750
 20
211.875222
 30
0.0
 10
333.630750
 20
215.685222
 30
0.0
 10
333.630750
 20
219.495222
 30
0.0
 10
327.704083
 20
219.495222
 30
0.0
 10
321.777416
 20
219.495222
 30
0.0
 10
321.777416
 20
222.740777
 30
0.0
 10
321.777416
 20
225.986333
 30
0.0
 10
328.127416
 20
225.986333
 30
0.0
 10
334.477416
 20
225.986333
 30
0.0
 10
334.477416
 20
229.796333
 30
0.0
 10
334.477416
 20
233.606333
 30
0.0
 10
323.470750
 20
233.606333
 30
0.0
 10
312.464083
 20
233.606333
 30
0.0
 10
312.464083
 20
233.606333
 30
0.0
  0
SPLINE
  5
18e
100
AcDbEntity
  8
Layer_1
 62
7
100
AcDbSpline
 70
8
 71
3
 72
8
 73
4
 74
0
 40
0
 40
0
 40
0
 40
0
 40
1
 40
1
 40
1
 40
1
 10
96.598825
 20
292.308555
 30
0.0
 10
93.837639
 20
292.308555
 30
0.0
 10
93.582149
 20
292.176611
 30
0.0
 10
93.280507
 20
290.588763
 30
0.0
  0
SPLINE
  5
18f
100
AcDbEntity
  8
Layer_1
 62
7
100
AcDbSpline
 70
8
 71
3
 72
8
 73
4
 74
0
 40
0
 40
0
 40
0
 40
0
 40
1
 40
1
 40
1
 40
1
 10
93.280507
 20
290.588763
 30
0.0
 10
93.180109
 20
290.060280
 30
0.0
 10
92.984422
 20
289.405194
 30
0.0
 10
92.845599
 20
289.133555
 30
0.0
  0
SPLINE
  5
190
100
AcDbEntity
  8
Layer_1
 62
7
100
AcDbSpline
 70
8
 71
3
 72
8
 73
4
 74
0
 40
0
 40
0
 40
0
 40
0
 40
1
 40
1
 40
1
 40
1
 10
92.845599
 20
289.133555
 30
0.0
 10
92.614451
 20
288.681249
 30
0.0
 10
92.805290
 20
288.639666
 30
0.0
 10
95.108889
 20
288.639666
 30
0.0
  0
SPLINE
  5
191
100
AcDbEntity
  8
Layer_1
 62
7
100
AcDbSpline
 70
8
 71
3
 72
8
 73
4
 74
0
 40
0
 40
0
 40
0
 40
0
 40
1
 40
1
 40
1
 40
1
 10
95.108889
 20
288.639666
 30
0.0
 10
96.785297
 20
288.639666
 30
0.0
 10
97.722075
 20
288.758053
 30
0.0
 10
97.918434
 20
288.994648
 30
0.0
  0
SPLINE
  5
192
100
AcDbEntity
  8
Layer_1
 62
7
100
AcDbSpline
 70
8
 71
3
 72
8
 73
4
 74
0
 40
0
 40
0
 40
0
 40
0
 40
1
 40
1
 40
1
 40
1
 10
97.918434
 20
288.994648
 30
0.0
 10
98.204082
 20
289.338832
 30
0.0
 10
99.091942
 20
291.669268
 30
0.0
 10
99.100239
 20
292.096888
 30
0.0
  0
SPLINE
  5
193
100
AcDbEntity
  8
Layer_1
 62
7
100
AcDbSpline
 70
8
 71
3
 72
8
 73
4
 74
0
 40
0
 40
0
 40
0
 40
0
 40
1
 40
1
 40
1
 40
1
 10
99.100239
 20
292.096888
 30
0.0
 10
99.102497
 20
292.213305
 30
0.0
 10
97.976820
 20
292.308555
 30
0.0
 10
96.598825
 20
292.308555
 30
0.0
  0
LWPOLYLINE
  5
194
100
AcDbEntity
  8
Layer_1
 62
7
100
AcDbPolyline
 90
2
 70
0
 10
223.846319
 20
226.113110
 30
0.0
 10
223.846319
 20
226.113110
 30
0.0
  0
SPLINE
  5
195
100
AcDbEntity
  8
Layer_1
 62
7
100
AcDbSpline
 70
8
 71
3
 72
8
 73
4
 74
0
 40
0
 40
0
 40
0
 40
0
 40
1
 40
1
 40
1
 40
1
 10
91.844041
 20
292.076492
 30
0.0
 10
91.476023
 20
292.062567
 30
0.0
 10
90.888284
 20
292.000168
 30
0.0
 10
89.983688
 20
291.897346
 30
0.0
  0
SPLINE
  5
196
100
AcDbEntity
  8
Layer_1
 62
7
100
AcDbSpline
 70
8
 71
3
 72
8
 73
4
 74
0
 40
0
 40
0
 40
0
 40
0
 40
1
 40
1
 40
1
 40
1
 10
89.983688
 20
291.897346
 30
0.0
 10
87.088105
 20
291.568221
 30
0.0
 10
86.904330
 20
291.409807
 30
0.0
 10
86.605841
 20
288.992444
 30
0.0
  0
SPLINE
  5
197
100
AcDbEntity
  8
Layer_1
 62
7
100
AcDbSpline
 70
8
 71
3
 72
8
 73
4
 74
0
 40
0
 40
0
 40
0
 40
0
 40
1
 40
1
 40
1
 40
1
 10
86.605841
 20
288.992444
 30
0.0
 10
86.437368
 20
287.628032
 30
0.0
 10
86.287830
 20
287.675705
 30
0.0
 10
89.144187
 20
288.187117
 30
0.0
  0
SPLINE
  5
198
100
AcDbEntity
  8
Layer_1
 62
7
100
AcDbSpline
 70
8
 71
3
 72
8
 73
4
 74
0
 40
0
 40
0
 40
0
 40
0
 40
1
 40
1
 40
1
 40
1
 10
89.144187
 20
288.187117
 30
0.0
 10
91.571815
 20
288.621765
 30
0.0
 10
92.048542
 20
288.959813
 30
0.0
 10
92.048542
 20
290.245355
 30
0.0
  0
SPLINE
  5
199
100
AcDbEntity
  8
Layer_1
 62
7
100
AcDbSpline
 70
8
 71
3
 72
8
 73
4
 74
0
 40
0
 40
0
 40
0
 40
0
 40
1
 40
1
 40
1
 40
1
 10
92.048542
 20
290.245355
 30
0.0
 10
92.048542
 20
290.779831
 30
0.0
 10
92.165898
 20
291.435983
 30
0.0
 10
92.309267
 20
291.703871
 30
0.0
  0
SPLINE
  5
19a
100
AcDbEntity
  8
Layer_1
 62
7
100
AcDbSpline
 70
8
 71
3
 72
8
 73
4
 74
0
 40
0
 40
0
 40
0
 40
0
 40
1
 40
1
 40
1
 40
1
 10
92.309267
 20
291.703871
 30
0.0
 10
92.461232
 20
291.987821
 30
0.0
 10
92.457405
 20
292.099699
 30
0.0
 10
91.844041
 20
292.076492
 30
0.0
  0
LWPOLYLINE
  5
19b
100
AcDbEntity
  8
Layer_1
 62
7
100
AcDbPolyline
 90
2
 70
0
 10
96.598825
 20
292.308555
 30
0.0
 10
96.598825
 20
292.308555
 30
0.0
  0
LWPOLYLINE
  5
19c
100
AcDbEntity
  8
Layer_1
 62
7
100
AcDbPolyline
 90
2
 70
0
 10
91.844041
 20
292.076492
 30
0.0
 10
91.844041
 20
292.076492
 30
0.0
  0
SPLINE
  5
19d
100
AcDbEntity
  8
Layer_1
 62
7
100
AcDbSpline
 70
8
 71
3
 72
8
 73
4
 74
0
 40
0
 40
0
 40
0
 40
0
 40
1
 40
1
 40
1
 40
1
 10
99.886824
 20
290.345677
 30
0.0
 10
99.456466
 20
289.498720
 30
0.0
 10
99.104097
 20
288.775398
 30
0.0
 10
99.104097
 20
288.738331
 30
0.0
  0
SPLINE
  5
19e
100
AcDbEntity
  8
Layer_1
 62
7
100
AcDbSpline
 70
8
 71
3
 72
8
 73
4
 74
0
 40
0
 40
0
 40
0
 40
0
 40
1
 40
1
 40
1
 40
1
 10
99.104097
 20
288.738331
 30
0.0
 10
99.104097
 20
288.701267
 30
0.0
 10
99.707347
 20
288.620692
 30
0.0
 10
100.444653
 20
288.559188
 30
0.0
  0
SPLINE
  5
19f
100
AcDbEntity
  8
Layer_1
 62
7
100
AcDbSpline
 70
8
 71
3
 72
8
 73
4
 74
0
 40
0
 40
0
 40
0
 40
0
 40
1
 40
1
 40
1
 40
1
 10
100.444653
 20
288.559188
 30
0.0
 10
101.181958
 20
288.497694
 30
0.0
 10
102.420389
 20
288.459002
 30
0.0
 10
103.196319
 20
288.473197
 30
0.0
  0
SPLINE
  5
1a0
100
AcDbEntity
  8
Layer_1
 62
7
100
AcDbSpline
 70
8
 71
3
 72
8
 73
4
 74
0
 40
0
 40
0
 40
0
 40
0
 40
1
 40
1
 40
1
 40
1
 10
103.196319
 20
288.473197
 30
0.0
 10
104.606096
 20
288.498987
 30
0.0
 10
104.607275
 20
288.499994
 30
0.0
 10
105.347714
 20
289.968645
 30
0.0
  0
LWPOLYLINE
  5
1a1
100
AcDbEntity
  8
Layer_1
 62
7
100
AcDbPolyline
 90
2
 70
0
 10
100.668997
 20
291.885222
 30
0.0
 10
99.886824
 20
290.345677
 30
0.0
  0
SPLINE
  5
1a2
100
AcDbEntity
  8
Layer_1
 62
7
100
AcDbSpline
 70
8
 71
3
 72
8
 73
4
 74
0
 40
0
 40
0
 40
0
 40
0
 40
1
 40
1
 40
1
 40
1
 10
104.783819
 20
291.643789
 30
0.0
 10
104.066024
 20
291.756892
 30
0.0
 10
102.846660
 20
291.857677
 30
0.0
 10
102.074046
 20
291.867583
 30
0.0
  0
LWPOLYLINE
  5
1a3
100
AcDbEntity
  8
Layer_1
 62
7
100
AcDbPolyline
 90
3
 70
0
 10
105.347714
 20
289.968645
 30
0.0
 10
106.088547
 20
291.438185
 30
0.0
 10
104.783819
 20
291.643789
 30
0.0
  0
SPLINE
  5
1a4
100
AcDbEntity
  8
Layer_1
 62
7
100
AcDbSpline
 70
8
 71
3
 72
8
 73
4
 74
0
 40
0
 40
0
 40
0
 40
0
 40
1
 40
1
 40
1
 40
1
 10
85.400334
 20
291.073280
 30
0.0
 10
85.365409
 20
291.070940
 30
0.0
 10
85.326384
 20
291.063024
 30
0.0
 10
85.282924
 20
291.050129
 30
0.0
  0
SPLINE
  5
1a5
100
AcDbEntity
  8
Layer_1
 62
7
100
AcDbSpline
 70
8
 71
3
 72
8
 73
4
 74
0
 40
0
 40
0
 40
0
 40
0
 40
1
 40
1
 40
1
 40
1
 10
85.282924
 20
291.050129
 30
0.0
 10
85.046044
 20
290.979844
 30
0.0
 10
83.962875
 20
290.709557
 30
0.0
 10
82.876319
 20
290.449856
 30
0.0
  0
SPLINE
  5
1a6
100
AcDbEntity
  8
Layer_1
 62
7
100
AcDbSpline
 70
8
 71
3
 72
8
 73
4
 74
0
 40
0
 40
0
 40
0
 40
0
 40
1
 40
1
 40
1
 40
1
 10
82.876319
 20
290.449856
 30
0.0
 10
81.789764
 20
290.190158
 30
0.0
 10
80.752391
 20
289.793029
 30
0.0
 10
80.570586
 20
289.567359
 30
0.0
  0
SPLINE
  5
1a7
100
AcDbEntity
  8
Layer_1
 62
7
100
AcDbSpline
 70
8
 71
3
 72
8
 73
4
 74
0
 40
0
 40
0
 40
0
 40
0
 40
1
 40
1
 40
1
 40
1
 10
80.570586
 20
289.567359
 30
0.0
 10
80.388785
 20
289.341691
 30
0.0
 10
80.256016
 20
288.469506
 30
0.0
 10
80.275687
 20
287.628735
 30
0.0
  0
SPLINE
  5
1a8
100
AcDbEntity
  8
Layer_1
 62
7
100
AcDbSpline
 70
8
 71
3
 72
8
 73
4
 74
0
 40
0
 40
0
 40
0
 40
0
 40
1
 40
1
 40
1
 40
1
 10
80.275687
 20
287.628735
 30
0.0
 10
80.295372
 20
286.787964
 30
0.0
 10
80.373923
 20
286.099666
 30
0.0
 10
80.450422
 20
286.099666
 30
0.0
  0
SPLINE
  5
1a9
100
AcDbEntity
  8
Layer_1
 62
7
100
AcDbSpline
 70
8
 71
3
 72
8
 73
4
 74
0
 40
0
 40
0
 40
0
 40
0
 40
1
 40
1
 40
1
 40
1
 10
80.450422
 20
286.099666
 30
0.0
 10
80.526918
 20
286.099666
 30
0.0
 10
81.642489
 20
286.421004
 30
0.0
 10
82.929236
 20
286.813488
 30
0.0
  0
SPLINE
  5
1aa
100
AcDbEntity
  8
Layer_1
 62
7
100
AcDbSpline
 70
8
 71
3
 72
8
 73
4
 74
0
 40
0
 40
0
 40
0
 40
0
 40
1
 40
1
 40
1
 40
1
 10
82.929236
 20
286.813488
 30
0.0
 10
85.466544
 20
287.587415
 30
0.0
 10
85.440506
 20
287.556791
 30
0.0
 10
85.623025
 20
289.979118
 30
0.0
  0
SPLINE
  5
1ab
100
AcDbEntity
  8
Layer_1
 62
7
100
AcDbSpline
 70
8
 71
3
 72
8
 73
4
 74
0
 40
0
 40
0
 40
0
 40
0
 40
1
 40
1
 40
1
 40
1
 10
85.623025
 20
289.979118
 30
0.0
 10
85.686804
 20
290.825573
 30
0.0
 10
85.644807
 20
291.089657
 30
0.0
 10
85.400334
 20
291.073280
 30
0.0
  0
LWPOLYLINE
  5
1ac
100
AcDbEntity
  8
Layer_1
 62
7
100
AcDbPolyline
 90
3
 70
0
 10
102.074046
 20
291.867583
 30
0.0
 10
100.668997
 20
291.885222
 30
0.0
 10
100.668997
 20
291.885222
 30
0.0
  0
SPLINE
  5
1ad
100
AcDbEntity
  8
Layer_1
 62
7
100
AcDbSpline
 70
8
 71
3
 72
8
 73
4
 74
0
 40
0
 40
0
 40
0
 40
0
 40
1
 40
1
 40
1
 40
1
 10
108.008979
 20
291.005481
 30
0.0
 10
107.392811
 20
291.005758
 30
0.0
 10
107.070119
 20
290.506295
 30
0.0
 10
106.058781
 20
288.921888
 30
0.0
  0
LWPOLYLINE
  5
1ae
100
AcDbEntity
  8
Layer_1
 62
7
100
AcDbPolyline
 90
2
 70
0
 10
85.400334
 20
291.073280
 30
0.0
 10
85.400334
 20
291.073280
 30
0.0
  0
SPLINE
  5
1af
100
AcDbEntity
  8
Layer_1
 62
7
100
AcDbSpline
 70
8
 71
3
 72
8
 73
4
 74
0
 40
0
 40
0
 40
0
 40
0
 40
1
 40
1
 40
1
 40
1
 10
107.275314
 20
287.472742
 30
0.0
 10
110.248248
 20
286.730170
 30
0.0
 10
110.863053
 20
286.788192
 30
0.0
 10
111.407773
 20
287.863555
 30
0.0
  0
SPLINE
  5
1b0
100
AcDbEntity
  8
Layer_1
 62
7
100
AcDbSpline
 70
8
 71
3
 72
8
 73
4
 74
0
 40
0
 40
0
 40
0
 40
0
 40
1
 40
1
 40
1
 40
1
 10
111.407773
 20
287.863555
 30
0.0
 10
111.663311
 20
288.368027
 30
0.0
 10
112.059511
 20
288.994854
 30
0.0
 10
112.288616
 20
289.256474
 30
0.0
  0
SPLINE
  5
1b1
100
AcDbEntity
  8
Layer_1
 62
7
100
AcDbSpline
 70
8
 71
3
 72
8
 73
4
 74
0
 40
0
 40
0
 40
0
 40
0
 40
1
 40
1
 40
1
 40
1
 10
112.288616
 20
289.256474
 30
0.0
 10
112.667536
 20
289.689169
 30
0.0
 10
112.607496
 20
289.758787
 30
0.0
 10
111.619992
 20
290.024869
 30
0.0
  0
SPLINE
  5
1b2
100
AcDbEntity
  8
Layer_1
 62
7
100
AcDbSpline
 70
8
 71
3
 72
8
 73
4
 74
0
 40
0
 40
0
 40
0
 40
0
 40
1
 40
1
 40
1
 40
1
 10
111.619992
 20
290.024869
 30
0.0
 10
111.022920
 20
290.185747
 30
0.0
 10
109.899097
 20
290.512058
 30
0.0
 10
109.122986
 20
290.750268
 30
0.0
  0
SPLINE
  5
1b3
100
AcDbEntity
  8
Layer_1
 62
7
100
AcDbSpline
 70
8
 71
3
 72
8
 73
4
 74
0
 40
0
 40
0
 40
0
 40
0
 40
1
 40
1
 40
1
 40
1
 10
109.122986
 20
290.750268
 30
0.0
 10
108.629453
 20
290.901748
 30
0.0
 10
108.289056
 20
291.005354
 30
0.0
 10
108.008979
 20
291.005481
 30
0.0
  0
LWPOLYLINE
  5
1b4
100
AcDbEntity
  8
Layer_1
 62
7
100
AcDbPolyline
 90
3
 70
0
 10
106.058781
 20
288.921888
 30
0.0
 10
105.428189
 20
287.934111
 30
0.0
 10
107.275314
 20
287.472742
 30
0.0
  0
SPLINE
  5
1b5
100
AcDbEntity
  8
Layer_1
 62
7
100
AcDbSpline
 70
8
 71
3
 72
8
 73
4
 74
0
 40
0
 40
0
 40
0
 40
0
 40
1
 40
1
 40
1
 40
1
 10
114.223382
 20
289.204111
 30
0.0
 10
114.027929
 20
289.204111
 30
0.0
 10
113.347709
 20
288.587210
 30
0.0
 10
112.711950
 20
287.833236
 30
0.0
  0
LWPOLYLINE
  5
1b6
100
AcDbEntity
  8
Layer_1
 62
7
100
AcDbPolyline
 90
2
 70
0
 10
108.008979
 20
291.005481
 30
0.0
 10
108.008979
 20
291.005481
 30
0.0
  0
SPLINE
  5
1b7
100
AcDbEntity
  8
Layer_1
 62
7
100
AcDbSpline
 70
8
 71
3
 72
8
 73
4
 74
0
 40
0
 40
0
 40
0
 40
0
 40
1
 40
1
 40
1
 40
1
 10
113.726186
 20
285.607431
 30
0.0
 10
114.919732
 20
285.137085
 30
0.0
 10
116.071382
 20
284.737995
 30
0.0
 10
116.285478
 20
284.720525
 30
0.0
  0
SPLINE
  5
1b8
100
AcDbEntity
  8
Layer_1
 62
7
100
AcDbSpline
 70
8
 71
3
 72
8
 73
4
 74
0
 40
0
 40
0
 40
0
 40
0
 40
1
 40
1
 40
1
 40
1
 10
116.285478
 20
284.720525
 30
0.0
 10
116.499575
 20
284.703067
 30
0.0
 10
117.201826
 20
285.254724
 30
0.0
 10
117.845967
 20
285.946428
 30
0.0
  0
LWPOLYLINE
  5
1b9
100
AcDbEntity
  8
Layer_1
 62
7
100
AcDbPolyline
 90
3
 70
0
 10
112.711950
 20
287.833236
 30
0.0
 10
111.556049
 20
286.462364
 30
0.0
 10
113.726186
 20
285.607431
 30
0.0
  0
SPLINE
  5
1ba
100
AcDbEntity
  8
Layer_1
 62
7
100
AcDbSpline
 70
8
 71
3
 72
8
 73
4
 74
0
 40
0
 40
0
 40
0
 40
0
 40
1
 40
1
 40
1
 40
1
 10
116.798107
 20
288.204206
 30
0.0
 10
115.577535
 20
288.754279
 30
0.0
 10
114.418832
 20
289.204111
 30
0.0
 10
114.223382
 20
289.204111
 30
0.0
  0
LWPOLYLINE
  5
1bb
100
AcDbEntity
  8
Layer_1
 62
7
100
AcDbPolyline
 90
3
 70
0
 10
117.845967
 20
285.946428
 30
0.0
 10
119.017299
 20
287.204301
 30
0.0
 10
116.798107
 20
288.204206
 30
0.0
  0
SPLINE
  5
1bc
100
AcDbEntity
  8
Layer_1
 62
7
100
AcDbSpline
 70
8
 71
3
 72
8
 73
4
 74
0
 40
0
 40
0
 40
0
 40
0
 40
1
 40
1
 40
1
 40
1
 10
78.837564
 20
289.165525
 30
0.0
 10
78.203936
 20
289.129593
 30
0.0
 10
74.296357
 20
287.425984
 30
0.0
 10
74.171528
 20
287.100672
 30
0.0
  0
SPLINE
  5
1bd
100
AcDbEntity
  8
Layer_1
 62
7
100
AcDbSpline
 70
8
 71
3
 72
8
 73
4
 74
0
 40
0
 40
0
 40
0
 40
0
 40
1
 40
1
 40
1
 40
1
 10
74.171528
 20
287.100672
 30
0.0
 10
74.089370
 20
286.886592
 30
0.0
 10
74.094298
 20
286.012194
 30
0.0
 10
74.182551
 20
285.157086
 30
0.0
  0
SPLINE
  5
1be
100
AcDbEntity
  8
Layer_1
 62
7
100
AcDbSpline
 70
8
 71
3
 72
8
 73
4
 74
0
 40
0
 40
0
 40
0
 40
0
 40
1
 40
1
 40
1
 40
1
 10
74.182551
 20
285.157086
 30
0.0
 10
74.364201
 20
283.397089
 30
0.0
 10
74.106010
 20
283.426279
 30
0.0
 10
77.222505
 20
284.810373
 30
0.0
  0
SPLINE
  5
1bf
100
AcDbEntity
  8
Layer_1
 62
7
100
AcDbSpline
 70
8
 71
3
 72
8
 73
4
 74
0
 40
0
 40
0
 40
0
 40
0
 40
1
 40
1
 40
1
 40
1
 10
77.222505
 20
284.810373
 30
0.0
 10
78.148561
 20
285.221653
 30
0.0
 10
79.003689
 20
285.711834
 30
0.0
 10
79.123094
 20
285.899573
 30
0.0
  0
SPLINE
  5
1c0
100
AcDbEntity
  8
Layer_1
 62
7
100
AcDbSpline
 70
8
 71
3
 72
8
 73
4
 74
0
 40
0
 40
0
 40
0
 40
0
 40
1
 40
1
 40
1
 40
1
 10
79.123094
 20
285.899573
 30
0.0
 10
79.306380
 20
286.187751
 30
0.0
 10
79.136596
 20
288.886659
 30
0.0
 10
78.918593
 20
289.149540
 30
0.0
  0
SPLINE
  5
1c1
100
AcDbEntity
  8
Layer_1
 62
7
100
AcDbSpline
 70
8
 71
3
 72
8
 73
4
 74
0
 40
0
 40
0
 40
0
 40
0
 40
1
 40
1
 40
1
 40
1
 10
78.918593
 20
289.149540
 30
0.0
 10
78.907541
 20
289.162867
 30
0.0
 10
78.879807
 20
289.167918
 30
0.0
 10
78.837564
 20
289.165525
 30
0.0
  0
LWPOLYLINE
  5
1c2
100
AcDbEntity
  8
Layer_1
 62
7
100
AcDbPolyline
 90
2
 70
0
 10
114.223382
 20
289.204111
 30
0.0
 10
114.223382
 20
289.204111
 30
0.0
  0
SPLINE
  5
1c3
100
AcDbEntity
  8
Layer_1
 62
7
100
AcDbSpline
 70
8
 71
3
 72
8
 73
4
 74
0
 40
0
 40
0
 40
0
 40
0
 40
1
 40
1
 40
1
 40
1
 10
72.655687
 20
286.664111
 30
0.0
 10
72.330496
 20
286.664111
 30
0.0
 10
68.261859
 20
283.961483
 30
0.0
 10
68.150605
 20
283.671562
 30
0.0
  0
SPLINE
  5
1c4
100
AcDbEntity
  8
Layer_1
 62
7
100
AcDbSpline
 70
8
 71
3
 72
8
 73
4
 74
0
 40
0
 40
0
 40
0
 40
0
 40
1
 40
1
 40
1
 40
1
 10
68.150605
 20
283.671562
 30
0.0
 10
68.069624
 20
283.460524
 30
0.0
 10
68.204357
 20
282.698344
 30
0.0
 10
68.449912
 20
281.977678
 30
0.0
  0
SPLINE
  5
1c5
100
AcDbEntity
  8
Layer_1
 62
7
100
AcDbSpline
 70
8
 71
3
 72
8
 73
4
 74
0
 40
0
 40
0
 40
0
 40
0
 40
1
 40
1
 40
1
 40
1
 10
68.449912
 20
281.977678
 30
0.0
 10
68.695466
 20
281.257015
 30
0.0
 10
68.827667
 20
280.555783
 30
0.0
 10
68.743711
 20
280.419944
 30
0.0
  0
SPLINE
  5
1c6
100
AcDbEntity
  8
Layer_1
 62
7
100
AcDbSpline
 70
8
 71
3
 72
8
 73
4
 74
0
 40
0
 40
0
 40
0
 40
0
 40
1
 40
1
 40
1
 40
1
 10
68.743711
 20
280.419944
 30
0.0
 10
68.438406
 20
279.925948
 30
0.0
 10
68.973435
 20
280.201081
 30
0.0
 10
71.068737
 20
281.614977
 30
0.0
  0
LWPOLYLINE
  5
1c7
100
AcDbEntity
  8
Layer_1
 62
7
100
AcDbPolyline
 90
2
 70
0
 10
78.837564
 20
289.165525
 30
0.0
 10
78.837564
 20
289.165525
 30
0.0
  0
SPLINE
  5
1c8
100
AcDbEntity
  8
Layer_1
 62
7
100
AcDbSpline
 70
8
 71
3
 72
8
 73
4
 74
0
 40
0
 40
0
 40
0
 40
0
 40
1
 40
1
 40
1
 40
1
 10
73.004604
 20
284.225533
 30
0.0
 10
72.893995
 20
284.868243
 30
0.0
 10
72.783827
 20
285.679861
 30
0.0
 10
72.759866
 20
286.029111
 30
0.0
  0
SPLINE
  5
1c9
100
AcDbEntity
  8
Layer_1
 62
7
100
AcDbSpline
 70
8
 71
3
 72
8
 73
4
 74
0
 40
0
 40
0
 40
0
 40
0
 40
1
 40
1
 40
1
 40
1
 10
72.759866
 20
286.029111
 30
0.0
 10
72.735897
 20
286.378361
 30
0.0
 10
72.688986
 20
286.664111
 30
0.0
 10
72.655687
 20
286.664111
 30
0.0
  0
LWPOLYLINE
  5
1ca
100
AcDbEntity
  8
Layer_1
 62
7
100
AcDbPolyline
 90
3
 70
0
 10
71.068737
 20
281.614977
 30
0.0
 10
73.205797
 20
283.056958
 30
0.0
 10
73.004604
 20
284.225533
 30
0.0
  0
SPLINE
  5
1cb
100
AcDbEntity
  8
Layer_1
 62
7
100
AcDbSpline
 70
8
 71
3
 72
8
 73
4
 74
0
 40
0
 40
0
 40
0
 40
0
 40
1
 40
1
 40
1
 40
1
 10
96.553074
 20
286.644818
 30
0.0
 10
91.248574
 20
286.650414
 30
0.0
 10
85.949494
 20
285.802345
 30
0.0
 10
81.182986
 20
284.119149
 30
0.0
  0
SPLINE
  5
1cc
100
AcDbEntity
  8
Layer_1
 62
7
100
AcDbSpline
 70
8
 71
3
 72
8
 73
4
 74
0
 40
0
 40
0
 40
0
 40
0
 40
1
 40
1
 40
1
 40
1
 10
81.182986
 20
284.119149
 30
0.0
 10
65.854667
 20
278.706254
 30
0.0
 10
54.280494
 20
265.628466
 30
0.0
 10
50.864493
 20
249.861670
 30
0.0
  0
SPLINE
  5
1cd
100
AcDbEntity
  8
Layer_1
 62
7
100
AcDbSpline
 70
8
 71
3
 72
8
 73
4
 74
0
 40
0
 40
0
 40
0
 40
0
 40
1
 40
1
 40
1
 40
1
 10
50.864493
 20
249.861670
 30
0.0
 10
46.836268
 20
231.269155
 30
0.0
 10
54.714338
 20
211.909215
 30
0.0
 10
70.599653
 20
201.364098
 30
0.0
  0
SPLINE
  5
1ce
100
AcDbEntity
  8
Layer_1
 62
7
100
AcDbSpline
 70
8
 71
3
 72
8
 73
4
 74
0
 40
0
 40
0
 40
0
 40
0
 40
1
 40
1
 40
1
 40
1
 10
70.599653
 20
201.364098
 30
0.0
 10
73.973168
 20
199.124664
 30
0.0
 10
76.441292
 20
197.826527
 30
0.0
 10
79.903063
 20
196.470957
 30
0.0
  0
SPLINE
  5
1cf
100
AcDbEntity
  8
Layer_1
 62
7
100
AcDbSpline
 70
8
 71
3
 72
8
 73
4
 74
0
 40
0
 40
0
 40
0
 40
0
 40
1
 40
1
 40
1
 40
1
 10
79.903063
 20
196.470957
 30
0.0
 10
82.737514
 20
195.361005
 30
0.0
 10
82.989970
 20
195.337033
 30
0.0
 10
84.386098
 20
196.049278
 30
0.0
  0
SPLINE
  5
1d0
100
AcDbEntity
  8
Layer_1
 62
7
100
AcDbSpline
 70
8
 71
3
 72
8
 73
4
 74
0
 40
0
 40
0
 40
0
 40
0
 40
1
 40
1
 40
1
 40
1
 10
84.386098
 20
196.049278
 30
0.0
 10
87.593650
 20
197.685658
 30
0.0
 10
91.077878
 20
197.815594
 30
0.0
 10
95.486471
 20
196.463241
 30
0.0
  0
LWPOLYLINE
  5
1d1
100
AcDbEntity
  8
Layer_1
 62
7
100
AcDbPolyline
 90
2
 70
0
 10
72.655687
 20
286.664111
 30
0.0
 10
72.655687
 20
286.664111
 30
0.0
  0
SPLINE
  5
1d2
100
AcDbEntity
  8
Layer_1
 62
7
100
AcDbSpline
 70
8
 71
3
 72
8
 73
4
 74
0
 40
0
 40
0
 40
0
 40
0
 40
1
 40
1
 40
1
 40
1
 10
100.438591
 20
196.663331
 30
0.0
 10
102.603740
 20
197.502914
 30
0.0
 10
103.235368
 20
197.623000
 30
0.0
 10
105.477798
 20
197.623000
 30
0.0
  0
SPLINE
  5
1d3
100
AcDbEntity
  8
Layer_1
 62
7
100
AcDbSpline
 70
8
 71
3
 72
8
 73
4
 74
0
 40
0
 40
0
 40
0
 40
0
 40
1
 40
1
 40
1
 40
1
 10
105.477798
 20
197.623000
 30
0.0
 10
107.891910
 20
197.623000
 30
0.0
 10
108.130035
 20
197.568367
 30
0.0
 10
109.555139
 20
196.683177
 30
0.0
  0
LWPOLYLINE
  5
1d4
100
AcDbEntity
  8
Layer_1
 62
7
100
AcDbPolyline
 90
3
 70
0
 10
95.486471
 20
196.463241
 30
0.0
 10
97.963632
 20
195.703665
 30
0.0
 10
100.438591
 20
196.663331
 30
0.0
  0
SPLINE
  5
1d5
100
AcDbEntity
  8
Layer_1
 62
7
100
AcDbSpline
 70
8
 71
3
 72
8
 73
4
 74
0
 40
0
 40
0
 40
0
 40
0
 40
1
 40
1
 40
1
 40
1
 10
113.059216
 20
196.513954
 30
0.0
 10
118.471304
 20
198.610413
 30
0.0
 10
123.347034
 20
201.641954
 30
0.0
 10
127.749653
 20
205.647590
 30
0.0
  0
SPLINE
  5
1d6
100
AcDbEntity
  8
Layer_1
 62
7
100
AcDbSpline
 70
8
 71
3
 72
8
 73
4
 74
0
 40
0
 40
0
 40
0
 40
0
 40
1
 40
1
 40
1
 40
1
 10
127.749653
 20
205.647590
 30
0.0
 10
142.366198
 20
218.946212
 30
0.0
 10
147.039677
 20
239.533832
 30
0.0
 10
139.597474
 20
257.841613
 30
0.0
  0
SPLINE
  5
1d7
100
AcDbEntity
  8
Layer_1
 62
7
100
AcDbSpline
 70
8
 71
3
 72
8
 73
4
 74
0
 40
0
 40
0
 40
0
 40
0
 40
1
 40
1
 40
1
 40
1
 10
139.597474
 20
257.841613
 30
0.0
 10
134.253630
 20
270.987428
 30
0.0
 10
122.478707
 20
281.363266
 30
0.0
 10
108.692487
 20
285.074404
 30
0.0
  0
SPLINE
  5
1d8
100
AcDbEntity
  8
Layer_1
 62
7
100
AcDbSpline
 70
8
 71
3
 72
8
 73
4
 74
0
 40
0
 40
0
 40
0
 40
0
 40
1
 40
1
 40
1
 40
1
 10
108.692487
 20
285.074404
 30
0.0
 10
104.808099
 20
286.120051
 30
0.0
 10
100.678793
 20
286.640463
 30
0.0
 10
96.553074
 20
286.644818
 30
0.0
  0
LWPOLYLINE
  5
1d9
100
AcDbEntity
  8
Layer_1
 62
7
100
AcDbPolyline
 90
3
 70
0
 10
109.555139
 20
196.683177
 30
0.0
 10
111.068225
 20
195.743354
 30
0.0
 10
113.059216
 20
196.513954
 30
0.0
  0
SPLINE
  5
1da
100
AcDbEntity
  8
Layer_1
 62
7
100
AcDbSpline
 70
8
 71
3
 72
8
 73
4
 74
0
 40
0
 40
0
 40
0
 40
0
 40
1
 40
1
 40
1
 40
1
 10
120.457626
 20
286.375273
 30
0.0
 10
120.055823
 20
286.366629
 30
0.0
 10
117.639338
 20
284.121827
 30
0.0
 10
117.828328
 20
283.932837
 30
0.0
  0
SPLINE
  5
1db
100
AcDbEntity
  8
Layer_1
 62
7
100
AcDbSpline
 70
8
 71
3
 72
8
 73
4
 74
0
 40
0
 40
0
 40
0
 40
0
 40
1
 40
1
 40
1
 40
1
 10
117.828328
 20
283.932837
 30
0.0
 10
117.902804
 20
283.858359
 30
0.0
 10
118.895314
 20
283.302669
 30
0.0
 10
120.034293
 20
282.698115
 30
0.0
  0
SPLINE
  5
1dc
100
AcDbEntity
  8
Layer_1
 62
7
100
AcDbSpline
 70
8
 71
3
 72
8
 73
4
 74
0
 40
0
 40
0
 40
0
 40
0
 40
1
 40
1
 40
1
 40
1
 10
120.034293
 20
282.698115
 30
0.0
 10
121.173274
 20
282.093561
 30
0.0
 10
122.204655
 20
281.595919
 30
0.0
 10
122.326245
 20
281.591827
 30
0.0
  0
SPLINE
  5
1dd
100
AcDbEntity
  8
Layer_1
 62
7
100
AcDbSpline
 70
8
 71
3
 72
8
 73
4
 74
0
 40
0
 40
0
 40
0
 40
0
 40
1
 40
1
 40
1
 40
1
 10
122.326245
 20
281.591827
 30
0.0
 10
122.447837
 20
281.587743
 30
0.0
 10
122.991784
 20
282.028611
 30
0.0
 10
123.535062
 20
282.571888
 30
0.0
  0
SPLINE
  5
1de
100
AcDbEntity
  8
Layer_1
 62
7
100
AcDbSpline
 70
8
 71
3
 72
8
 73
4
 74
0
 40
0
 40
0
 40
0
 40
0
 40
1
 40
1
 40
1
 40
1
 10
123.535062
 20
282.571888
 30
0.0
 10
124.078340
 20
283.115166
 30
0.0
 10
124.653017
 20
283.559666
 30
0.0
 10
124.812227
 20
283.559666
 30
0.0
  0
SPLINE
  5
1df
100
AcDbEntity
  8
Layer_1
 62
7
100
AcDbSpline
 70
8
 71
3
 72
8
 73
4
 74
0
 40
0
 40
0
 40
0
 40
0
 40
1
 40
1
 40
1
 40
1
 10
124.812227
 20
283.559666
 30
0.0
 10
124.971437
 20
283.559666
 30
0.0
 10
125.029883
 20
283.676707
 30
0.0
 10
124.941762
 20
283.819288
 30
0.0
  0
SPLINE
  5
1e0
100
AcDbEntity
  8
Layer_1
 62
7
100
AcDbSpline
 70
8
 71
3
 72
8
 73
4
 74
0
 40
0
 40
0
 40
0
 40
0
 40
1
 40
1
 40
1
 40
1
 10
124.941762
 20
283.819288
 30
0.0
 10
124.716839
 20
284.183222
 30
0.0
 10
120.856127
 20
286.383853
 30
0.0
 10
120.457626
 20
286.375273
 30
0.0
  0
LWPOLYLINE
  5
1e1
100
AcDbEntity
  8
Layer_1
 62
7
100
AcDbPolyline
 90
2
 70
0
 10
96.553074
 20
286.644818
 30
0.0
 10
96.553074
 20
286.644818
 30
0.0
  0
SPLINE
  5
1e2
100
AcDbEntity
  8
Layer_1
 62
7
100
AcDbSpline
 70
8
 71
3
 72
8
 73
4
 74
0
 40
0
 40
0
 40
0
 40
0
 40
1
 40
1
 40
1
 40
1
 10
126.263025
 20
282.995222
 30
0.0
 10
126.127169
 20
282.995222
 30
0.0
 10
125.516770
 20
282.618170
 30
0.0
 10
124.907034
 20
282.156821
 30
0.0
  0
SPLINE
  5
1e3
100
AcDbEntity
  8
Layer_1
 62
7
100
AcDbSpline
 70
8
 71
3
 72
8
 73
4
 74
0
 40
0
 40
0
 40
0
 40
0
 40
1
 40
1
 40
1
 40
1
 10
124.907034
 20
282.156821
 30
0.0
 10
124.297299
 20
281.695473
 30
0.0
 10
123.632417
 20
281.314473
 30
0.0
 10
123.429228
 20
281.310155
 30
0.0
  0
SPLINE
  5
1e4
100
AcDbEntity
  8
Layer_1
 62
7
100
AcDbSpline
 70
8
 71
3
 72
8
 73
4
 74
0
 40
0
 40
0
 40
0
 40
0
 40
1
 40
1
 40
1
 40
1
 10
123.429228
 20
281.310155
 30
0.0
 10
122.823348
 20
281.297277
 30
0.0
 10
123.281917
 20
280.841801
 30
0.0
 10
125.414154
 20
279.339561
 30
0.0
  0
SPLINE
  5
1e5
100
AcDbEntity
  8
Layer_1
 62
7
100
AcDbSpline
 70
8
 71
3
 72
8
 73
4
 74
0
 40
0
 40
0
 40
0
 40
0
 40
1
 40
1
 40
1
 40
1
 10
125.414154
 20
279.339561
 30
0.0
 10
126.526115
 20
278.556143
 30
0.0
 10
127.528354
 20
277.915222
 30
0.0
 10
127.641615
 20
277.915222
 30
0.0
  0
SPLINE
  5
1e6
100
AcDbEntity
  8
Layer_1
 62
7
100
AcDbSpline
 70
8
 71
3
 72
8
 73
4
 74
0
 40
0
 40
0
 40
0
 40
0
 40
1
 40
1
 40
1
 40
1
 10
127.641615
 20
277.915222
 30
0.0
 10
127.754880
 20
277.915222
 30
0.0
 10
128.206610
 20
278.212354
 30
0.0
 10
128.645378
 20
278.575577
 30
0.0
  0
SPLINE
  5
1e7
100
AcDbEntity
  8
Layer_1
 62
7
100
AcDbSpline
 70
8
 71
3
 72
8
 73
4
 74
0
 40
0
 40
0
 40
0
 40
0
 40
1
 40
1
 40
1
 40
1
 10
128.645378
 20
278.575577
 30
0.0
 10
129.084149
 20
278.938797
 30
0.0
 10
129.680795
 20
279.365517
 30
0.0
 10
129.971602
 20
279.523665
 30
0.0
  0
SPLINE
  5
1e8
100
AcDbEntity
  8
Layer_1
 62
7
100
AcDbSpline
 70
8
 71
3
 72
8
 73
4
 74
0
 40
0
 40
0
 40
0
 40
0
 40
1
 40
1
 40
1
 40
1
 10
129.971602
 20
279.523665
 30
0.0
 10
130.441429
 20
279.779167
 30
0.0
 10
130.278370
 20
279.988663
 30
0.0
 10
128.505368
 20
281.403311
 30
0.0
  0
SPLINE
  5
1e9
100
AcDbEntity
  8
Layer_1
 62
7
100
AcDbSpline
 70
8
 71
3
 72
8
 73
4
 74
0
 40
0
 40
0
 40
0
 40
0
 40
1
 40
1
 40
1
 40
1
 10
128.505368
 20
281.403311
 30
0.0
 10
127.407930
 20
282.278939
 30
0.0
 10
126.398884
 20
282.995222
 30
0.0
 10
126.263025
 20
282.995222
 30
0.0
  0
LWPOLYLINE
  5
1ea
100
AcDbEntity
  8
Layer_1
 62
7
100
AcDbPolyline
 90
2
 70
0
 10
120.457626
 20
286.375273
 30
0.0
 10
120.457626
 20
286.375273
 30
0.0
  0
LWPOLYLINE
  5
1eb
100
AcDbEntity
  8
Layer_1
 62
7
100
AcDbPolyline
 90
2
 70
0
 10
126.263025
 20
282.995222
 30
0.0
 10
126.263025
 20
282.995222
 30
0.0
  0
SPLINE
  5
1ec
100
AcDbEntity
  8
Layer_1
 62
7
100
AcDbSpline
 70
8
 71
3
 72
8
 73
4
 74
0
 40
0
 40
0
 40
0
 40
0
 40
1
 40
1
 40
1
 40
1
 10
64.724249
 20
281.524026
 30
0.0
 10
62.574616
 20
279.990159
 30
0.0
 10
62.355555
 20
279.536038
 30
0.0
 10
63.120764
 20
278.197444
 30
0.0
  0
SPLINE
  5
1ed
100
AcDbEntity
  8
Layer_1
 62
7
100
AcDbSpline
 70
8
 71
3
 72
8
 73
4
 74
0
 40
0
 40
0
 40
0
 40
0
 40
1
 40
1
 40
1
 40
1
 10
63.120764
 20
278.197444
 30
0.0
 10
63.342596
 20
277.809388
 30
0.0
 10
63.528671
 20
277.198950
 30
0.0
 10
63.534174
 20
276.840903
 30
0.0
  0
SPLINE
  5
1ee
100
AcDbEntity
  8
Layer_1
 62
7
100
AcDbSpline
 70
8
 71
3
 72
8
 73
4
 74
0
 40
0
 40
0
 40
0
 40
0
 40
1
 40
1
 40
1
 40
1
 10
63.534174
 20
276.840903
 30
0.0
 10
63.545590
 20
276.097911
 30
0.0
 10
63.446906
 20
276.047681
 30
0.0
 10
66.170638
 20
278.194136
 30
0.0
  0
SPLINE
  5
1ef
100
AcDbEntity
  8
Layer_1
 62
7
100
AcDbSpline
 70
8
 71
3
 72
8
 73
4
 74
0
 40
0
 40
0
 40
0
 40
0
 40
1
 40
1
 40
1
 40
1
 10
66.170638
 20
278.194136
 30
0.0
 10
67.953924
 20
279.599465
 30
0.0
 10
68.077142
 20
280.007135
 30
0.0
 10
67.264249
 20
281.822786
 30
0.0
  0
LWPOLYLINE
  5
1f0
100
AcDbEntity
  8
Layer_1
 62
7
100
AcDbPolyline
 90
2
 70
0
 10
66.750517
 20
282.969864
 30
0.0
 10
64.724249
 20
281.524026
 30
0.0
  0
LWPOLYLINE
  5
1f1
100
AcDbEntity
  8
Layer_1
 62
7
100
AcDbPolyline
 90
3
 70
0
 10
67.264249
 20
281.822786
 30
0.0
 10
66.750517
 20
282.969864
 30
0.0
 10
66.750517
 20
282.969864
 30
0.0
  0
SPLINE
  5
1f2
100
AcDbEntity
  8
Layer_1
 62
7
100
AcDbSpline
 70
8
 71
3
 72
8
 73
4
 74
0
 40
0
 40
0
 40
0
 40
0
 40
1
 40
1
 40
1
 40
1
 10
129.994203
 20
275.409396
 30
0.0
 10
131.884666
 20
273.594078
 30
0.0
 10
132.433723
 20
273.393974
 30
0.0
 10
133.491661
 20
274.134985
 30
0.0
  0
SPLINE
  5
1f3
100
AcDbEntity
  8
Layer_1
 62
7
100
AcDbSpline
 70
8
 71
3
 72
8
 73
4
 74
0
 40
0
 40
0
 40
0
 40
0
 40
1
 40
1
 40
1
 40
1
 10
133.491661
 20
274.134985
 30
0.0
 10
133.847321
 20
274.384097
 30
0.0
 10
134.449405
 20
274.671097
 30
0.0
 10
134.829463
 20
274.772742
 30
0.0
  0
SPLINE
  5
1f4
100
AcDbEntity
  8
Layer_1
 62
7
100
AcDbSpline
 70
8
 71
3
 72
8
 73
4
 74
0
 40
0
 40
0
 40
0
 40
0
 40
1
 40
1
 40
1
 40
1
 10
134.829463
 20
274.772742
 30
0.0
 10
135.491446
 20
274.949783
 30
0.0
 10
135.437344
 20
275.039834
 30
0.0
 10
133.540720
 20
276.921929
 30
0.0
  0
LWPOLYLINE
  5
1f5
100
AcDbEntity
  8
Layer_1
 62
7
100
AcDbPolyline
 90
4
 70
0
 10
131.560756
 20
278.887014
 30
0.0
 10
129.878447
 20
278.011682
 30
0.0
 10
128.195586
 20
277.136904
 30
0.0
 10
129.994203
 20
275.409396
 30
0.0
  0
SPLINE
  5
1f6
100
AcDbEntity
  8
Layer_1
 62
7
100
AcDbSpline
 70
8
 71
3
 72
8
 73
4
 74
0
 40
0
 40
0
 40
0
 40
0
 40
1
 40
1
 40
1
 40
1
 10
61.438454
 20
278.796613
 30
0.0
 10
61.231391
 20
278.779231
 30
0.0
 10
60.742579
 20
278.350296
 30
0.0
 10
59.734097
 20
277.350777
 30
0.0
  0
SPLINE
  5
1f7
100
AcDbEntity
  8
Layer_1
 62
7
100
AcDbSpline
 70
8
 71
3
 72
8
 73
4
 74
0
 40
0
 40
0
 40
0
 40
0
 40
1
 40
1
 40
1
 40
1
 10
59.734097
 20
277.350777
 30
0.0
 10
57.746093
 20
275.380440
 30
0.0
 10
57.527373
 20
274.730431
 30
0.0
 10
58.418346
 20
273.443210
 30
0.0
  0
SPLINE
  5
1f8
100
AcDbEntity
  8
Layer_1
 62
7
100
AcDbSpline
 70
8
 71
3
 72
8
 73
4
 74
0
 40
0
 40
0
 40
0
 40
0
 40
1
 40
1
 40
1
 40
1
 10
58.418346
 20
273.443210
 30
0.0
 10
58.703535
 20
273.031194
 30
0.0
 10
59.025801
 20
272.449257
 30
0.0
 10
59.134375
 20
272.150060
 30
0.0
  0
SPLINE
  5
1f9
100
AcDbEntity
  8
Layer_1
 62
7
100
AcDbSpline
 70
8
 71
3
 72
8
 73
4
 74
0
 40
0
 40
0
 40
0
 40
0
 40
1
 40
1
 40
1
 40
1
 10
59.134375
 20
272.150060
 30
0.0
 10
59.358372
 20
271.532786
 30
0.0
 10
59.167646
 20
271.383197
 30
0.0
 10
61.524995
 20
274.030255
 30
0.0
  0
SPLINE
  5
1fa
100
AcDbEntity
  8
Layer_1
 62
7
100
AcDbSpline
 70
8
 71
3
 72
8
 73
4
 74
0
 40
0
 40
0
 40
0
 40
0
 40
1
 40
1
 40
1
 40
1
 10
61.524995
 20
274.030255
 30
0.0
 10
63.044970
 20
275.737031
 30
0.0
 10
63.090851
 20
276.007309
 30
0.0
 10
62.085031
 20
277.318254
 30
0.0
  0
SPLINE
  5
1fb
100
AcDbEntity
  8
Layer_1
 62
7
100
AcDbSpline
 70
8
 71
3
 72
8
 73
4
 74
0
 40
0
 40
0
 40
0
 40
0
 40
1
 40
1
 40
1
 40
1
 10
62.085031
 20
277.318254
 30
0.0
 10
61.801008
 20
277.688436
 30
0.0
 10
61.568542
 20
278.256705
 30
0.0
 10
61.568542
 20
278.580538
 30
0.0
  0
SPLINE
  5
1fc
100
AcDbEntity
  8
Layer_1
 62
7
100
AcDbSpline
 70
8
 71
3
 72
8
 73
4
 74
0
 40
0
 40
0
 40
0
 40
0
 40
1
 40
1
 40
1
 40
1
 10
61.568542
 20
278.580538
 30
0.0
 10
61.568542
 20
278.727666
 30
0.0
 10
61.532575
 20
278.804515
 30
0.0
 10
61.438454
 20
278.796613
 30
0.0
  0
LWPOLYLINE
  5
1fd
100
AcDbEntity
  8
Layer_1
 62
7
100
AcDbPolyline
 90
3
 70
0
 10
133.540720
 20
276.921929
 30
0.0
 10
131.560756
 20
278.887014
 30
0.0
 10
131.560756
 20
278.887014
 30
0.0
  0
SPLINE
  5
1fe
100
AcDbEntity
  8
Layer_1
 62
7
100
AcDbSpline
 70
8
 71
3
 72
8
 73
4
 74
0
 40
0
 40
0
 40
0
 40
0
 40
1
 40
1
 40
1
 40
1
 10
115.120208
 20
274.252945
 30
0.0
 10
115.514284
 20
274.265140
 30
0.0
 10
124.925974
 20
271.618415
 30
0.0
 10
125.140201
 20
271.435134
 30
0.0
  0
SPLINE
  5
1ff
100
AcDbEntity
  8
Layer_1
 62
7
100
AcDbSpline
 70
8
 71
3
 72
8
 73
4
 74
0
 40
0
 40
0
 40
0
 40
0
 40
1
 40
1
 40
1
 40
1
 10
125.140201
 20
271.435134
 30
0.0
 10
125.343350
 20
271.261328
 30
0.0
 10
123.452007
 20
207.596902
 30
0.0
 10
123.221970
 20
206.865777
 30
0.0
  0
SPLINE
  5
200
100
AcDbEntity
  8
Layer_1
 62
7
100
AcDbSpline
 70
8
 71
3
 72
8
 73
4
 74
0
 40
0
 40
0
 40
0
 40
0
 40
1
 40
1
 40
1
 40
1
 10
123.221970
 20
206.865777
 30
0.0
 10
123.140191
 20
206.605879
 30
0.0
 10
122.081101
 20
206.513000
 30
0.0
 10
119.198099
 20
206.513000
 30
0.0
  0
SPLINE
  5
201
100
AcDbEntity
  8
Layer_1
 62
7
100
AcDbSpline
 70
8
 71
3
 72
8
 73
4
 74
0
 40
0
 40
0
 40
0
 40
0
 40
1
 40
1
 40
1
 40
1
 10
119.198099
 20
206.513000
 30
0.0
 10
117.045988
 20
206.513000
 30
0.0
 10
115.200529
 20
206.598022
 30
0.0
 10
115.097058
 20
206.701513
 30
0.0
  0
SPLINE
  5
202
100
AcDbEntity
  8
Layer_1
 62
7
100
AcDbSpline
 70
8
 71
3
 72
8
 73
4
 74
0
 40
0
 40
0
 40
0
 40
0
 40
1
 40
1
 40
1
 40
1
 10
115.097058
 20
206.701513
 30
0.0
 10
114.835706
 20
206.962850
 30
0.0
 10
114.858772
 20
274.244846
 30
0.0
 10
115.120208
 20
274.252945
 30
0.0
  0
LWPOLYLINE
  5
203
100
AcDbEntity
  8
Layer_1
 62
7
100
AcDbPolyline
 90
2
 70
0
 10
61.438454
 20
278.796613
 30
0.0
 10
61.438454
 20
278.796613
 30
0.0
  0
LWPOLYLINE
  5
204
100
AcDbEntity
  8
Layer_1
 62
7
100
AcDbPolyline
 90
2
 70
0
 10
115.120208
 20
274.252945
 30
0.0
 10
115.120208
 20
274.252945
 30
0.0
  0
SPLINE
  5
205
100
AcDbEntity
  8
Layer_1
 62
7
100
AcDbSpline
 70
8
 71
3
 72
8
 73
4
 74
0
 40
0
 40
0
 40
0
 40
0
 40
1
 40
1
 40
1
 40
1
 10
55.052076
 20
271.957686
 30
0.0
 10
54.212414
 20
270.881519
 30
0.0
 10
53.488302
 20
269.892846
 30
0.0
 10
53.443076
 20
269.760540
 30
0.0
  0
SPLINE
  5
206
100
AcDbEntity
  8
Layer_1
 62
7
100
AcDbSpline
 70
8
 71
3
 72
8
 73
4
 74
0
 40
0
 40
0
 40
0
 40
0
 40
1
 40
1
 40
1
 40
1
 10
53.443076
 20
269.760540
 30
0.0
 10
53.397850
 20
269.628235
 30
0.0
 10
53.664770
 20
269.154663
 30
0.0
 10
54.036186
 20
268.708272
 30
0.0
  0
SPLINE
  5
207
100
AcDbEntity
  8
Layer_1
 62
7
100
AcDbSpline
 70
8
 71
3
 72
8
 73
4
 74
0
 40
0
 40
0
 40
0
 40
0
 40
1
 40
1
 40
1
 40
1
 10
54.036186
 20
268.708272
 30
0.0
 10
54.407602
 20
268.261853
 30
0.0
 10
54.872958
 20
267.590175
 30
0.0
 10
55.070265
 20
267.215582
 30
0.0
  0
LWPOLYLINE
  5
208
100
AcDbEntity
  8
Layer_1
 62
7
100
AcDbPolyline
 90
2
 70
0
 10
56.578390
 20
273.914499
 30
0.0
 10
55.052076
 20
271.957686
 30
0.0
  0
SPLINE
  5
209
100
AcDbEntity
  8
Layer_1
 62
7
100
AcDbSpline
 70
8
 71
3
 72
8
 73
4
 74
0
 40
0
 40
0
 40
0
 40
0
 40
1
 40
1
 40
1
 40
1
 10
55.951659
 20
267.215582
 30
0.0
 10
56.239260
 20
267.590175
 30
0.0
 10
56.940876
 20
268.567754
 30
0.0
 10
57.510494
 20
269.387920
 30
0.0
  0
SPLINE
  5
20a
100
AcDbEntity
  8
Layer_1
 62
7
100
AcDbSpline
 70
8
 71
3
 72
8
 73
4
 74
0
 40
0
 40
0
 40
0
 40
0
 40
1
 40
1
 40
1
 40
1
 10
57.510494
 20
269.387920
 30
0.0
 10
58.643932
 20
271.019918
 30
0.0
 10
58.637193
 20
271.108312
 30
0.0
 10
57.233233
 20
273.022081
 30
0.0
  0
LWPOLYLINE
  5
20b
100
AcDbEntity
  8
Layer_1
 62
7
100
AcDbPolyline
 90
3
 70
0
 10
55.070265
 20
267.215582
 30
0.0
 10
55.429105
 20
266.534278
 30
0.0
 10
55.951659
 20
267.215582
 30
0.0
  0
SPLINE
  5
20c
100
AcDbEntity
  8
Layer_1
 62
7
100
AcDbSpline
 70
8
 71
3
 72
8
 73
4
 74
0
 40
0
 40
0
 40
0
 40
0
 40
1
 40
1
 40
1
 40
1
 10
135.791883
 20
273.644957
 30
0.0
 10
135.509491
 20
273.652862
 30
0.0
 10
135.217569
 20
273.544040
 30
0.0
 10
134.857575
 20
273.350607
 30
0.0
  0
SPLINE
  5
20d
100
AcDbEntity
  8
Layer_1
 62
7
100
AcDbSpline
 70
8
 71
3
 72
8
 73
4
 74
0
 40
0
 40
0
 40
0
 40
0
 40
1
 40
1
 40
1
 40
1
 10
134.857575
 20
273.350607
 30
0.0
 10
134.518530
 20
273.168430
 30
0.0
 10
133.872749
 20
272.943826
 30
0.0
 10
133.422760
 20
272.851207
 30
0.0
  0
LWPOLYLINE
  5
20e
100
AcDbEntity
  8
Layer_1
 62
7
100
AcDbPolyline
 90
3
 70
0
 10
57.233233
 20
273.022081
 30
0.0
 10
56.578390
 20
273.914499
 30
0.0
 10
56.578390
 20
273.914499
 30
0.0
  0
SPLINE
  5
20f
100
AcDbEntity
  8
Layer_1
 62
7
100
AcDbSpline
 70
8
 71
3
 72
8
 73
4
 74
0
 40
0
 40
0
 40
0
 40
0
 40
1
 40
1
 40
1
 40
1
 10
134.364786
 20
270.642485
 30
0.0
 10
136.187208
 20
268.530300
 30
0.0
 10
136.577824
 20
268.344527
 30
0.0
 10
137.768542
 20
269.025222
 30
0.0
  0
SPLINE
  5
210
100
AcDbEntity
  8
Layer_1
 62
7
100
AcDbSpline
 70
8
 71
3
 72
8
 73
4
 74
0
 40
0
 40
0
 40
0
 40
0
 40
1
 40
1
 40
1
 40
1
 10
137.768542
 20
269.025222
 30
0.0
 10
138.156597
 20
269.247048
 30
0.0
 10
138.764732
 20
269.433270
 30
0.0
 10
139.119570
 20
269.438632
 30
0.0
  0
SPLINE
  5
211
100
AcDbEntity
  8
Layer_1
 62
7
100
AcDbSpline
 70
8
 71
3
 72
8
 73
4
 74
0
 40
0
 40
0
 40
0
 40
0
 40
1
 40
1
 40
1
 40
1
 10
139.119570
 20
269.438632
 30
0.0
 10
139.706155
 20
269.447720
 30
0.0
 10
139.616471
 20
269.640517
 30
0.0
 10
138.131793
 20
271.563568
 30
0.0
  0
SPLINE
  5
212
100
AcDbEntity
  8
Layer_1
 62
7
100
AcDbSpline
 70
8
 71
3
 72
8
 73
4
 74
0
 40
0
 40
0
 40
0
 40
0
 40
1
 40
1
 40
1
 40
1
 10
138.131793
 20
271.563568
 30
0.0
 10
136.987274
 20
273.046019
 30
0.0
 10
136.413150
 20
273.627561
 30
0.0
 10
135.791883
 20
273.644957
 30
0.0
  0
LWPOLYLINE
  5
213
100
AcDbEntity
  8
Layer_1
 62
7
100
AcDbPolyline
 90
3
 70
0
 10
133.422760
 20
272.851207
 30
0.0
 10
132.604758
 20
272.683084
 30
0.0
 10
134.364786
 20
270.642485
 30
0.0
  0
SPLINE
  5
214
100
AcDbEntity
  8
Layer_1
 62
7
100
AcDbSpline
 70
8
 71
3
 72
8
 73
4
 74
0
 40
0
 40
0
 40
0
 40
0
 40
1
 40
1
 40
1
 40
1
 10
100.992562
 20
268.466289
 30
0.0
 10
102.263758
 20
268.461280
 30
0.0
 10
111.645977
 20
267.725380
 30
0.0
 10
111.762204
 20
267.609149
 30
0.0
  0
SPLINE
  5
215
100
AcDbEntity
  8
Layer_1
 62
7
100
AcDbSpline
 70
8
 71
3
 72
8
 73
4
 74
0
 40
0
 40
0
 40
0
 40
0
 40
1
 40
1
 40
1
 40
1
 10
111.762204
 20
267.609149
 30
0.0
 10
111.854076
 20
267.517286
 30
0.0
 10
107.298038
 20
206.977738
 30
0.0
 10
107.193732
 20
206.904360
 30
0.0
  0
SPLINE
  5
216
100
AcDbEntity
  8
Layer_1
 62
7
100
AcDbSpline
 70
8
 71
3
 72
8
 73
4
 74
0
 40
0
 40
0
 40
0
 40
0
 40
1
 40
1
 40
1
 40
1
 10
107.193732
 20
206.904360
 30
0.0
 10
107.168439
 20
206.886580
 30
0.0
 10
105.210681
 20
206.800564
 30
0.0
 10
102.843542
 20
206.713640
 30
0.0
  0
SPLINE
  5
217
100
AcDbEntity
  8
Layer_1
 62
7
100
AcDbSpline
 70
8
 71
3
 72
8
 73
4
 74
0
 40
0
 40
0
 40
0
 40
0
 40
1
 40
1
 40
1
 40
1
 10
102.843542
 20
206.713640
 30
0.0
 10
99.645078
 20
206.596179
 30
0.0
 10
98.540971
 20
206.640894
 30
0.0
 10
98.543511
 20
206.887274
 30
0.0
  0
SPLINE
  5
218
100
AcDbEntity
  8
Layer_1
 62
7
100
AcDbSpline
 70
8
 71
3
 72
8
 73
4
 74
0
 40
0
 40
0
 40
0
 40
0
 40
1
 40
1
 40
1
 40
1
 10
98.543511
 20
206.887274
 30
0.0
 10
98.567816
 20
209.165400
 30
0.0
 10
100.788817
 20
268.402182
 30
0.0
 10
100.852001
 20
268.457470
 30
0.0
  0
SPLINE
  5
219
100
AcDbEntity
  8
Layer_1
 62
7
100
AcDbSpline
 70
8
 71
3
 72
8
 73
4
 74
0
 40
0
 40
0
 40
0
 40
0
 40
1
 40
1
 40
1
 40
1
 10
100.852001
 20
268.457470
 30
0.0
 10
100.859503
 20
268.464031
 30
0.0
 10
100.907813
 20
268.466622
 30
0.0
 10
100.992562
 20
268.466289
 30
0.0
  0
LWPOLYLINE
  5
21a
100
AcDbEntity
  8
Layer_1
 62
7
100
AcDbPolyline
 90
2
 70
0
 10
135.791883
 20
273.644957
 30
0.0
 10
135.791883
 20
273.644957
 30
0.0
  0
SPLINE
  5
21b
100
AcDbEntity
  8
Layer_1
 62
7
100
AcDbSpline
 70
8
 71
3
 72
8
 73
4
 74
0
 40
0
 40
0
 40
0
 40
0
 40
1
 40
1
 40
1
 40
1
 10
140.043408
 20
268.254069
 30
0.0
 10
139.925781
 20
268.250697
 30
0.0
 10
139.793873
 20
268.226011
 30
0.0
 10
139.633853
 20
268.193437
 30
0.0
  0
SPLINE
  5
21c
100
AcDbEntity
  8
Layer_1
 62
7
100
AcDbSpline
 70
8
 71
3
 72
8
 73
4
 74
0
 40
0
 40
0
 40
0
 40
0
 40
1
 40
1
 40
1
 40
1
 10
139.633853
 20
268.193437
 30
0.0
 10
139.151278
 20
268.095195
 30
0.0
 10
138.292925
 20
267.924930
 30
0.0
 10
137.726649
 20
267.814751
 30
0.0
  0
LWPOLYLINE
  5
21d
100
AcDbEntity
  8
Layer_1
 62
7
100
AcDbPolyline
 90
2
 70
0
 10
100.992562
 20
268.466289
 30
0.0
 10
100.992562
 20
268.466289
 30
0.0
  0
SPLINE
  5
21e
100
AcDbEntity
  8
Layer_1
 62
7
100
AcDbSpline
 70
8
 71
3
 72
8
 73
4
 74
0
 40
0
 40
0
 40
0
 40
0
 40
1
 40
1
 40
1
 40
1
 10
138.040291
 20
265.538234
 30
0.0
 10
138.779086
 20
264.396532
 30
0.0
 10
139.530952
 20
263.371340
 30
0.0
 10
139.711024
 20
263.260060
 30
0.0
  0
SPLINE
  5
21f
100
AcDbEntity
  8
Layer_1
 62
7
100
AcDbSpline
 70
8
 71
3
 72
8
 73
4
 74
0
 40
0
 40
0
 40
0
 40
0
 40
1
 40
1
 40
1
 40
1
 10
139.711024
 20
263.260060
 30
0.0
 10
139.973770
 20
263.097669
 30
0.0
 10
142.719431
 20
263.449642
 30
0.0
 10
143.082258
 20
263.692212
 30
0.0
  0
SPLINE
  5
220
100
AcDbEntity
  8
Layer_1
 62
7
100
AcDbSpline
 70
8
 71
3
 72
8
 73
4
 74
0
 40
0
 40
0
 40
0
 40
0
 40
1
 40
1
 40
1
 40
1
 10
143.082258
 20
263.692212
 30
0.0
 10
143.133171
 20
263.726248
 30
0.0
 10
142.575630
 20
264.793046
 30
0.0
 10
141.843125
 20
266.062989
 30
0.0
  0
SPLINE
  5
221
100
AcDbEntity
  8
Layer_1
 62
7
100
AcDbSpline
 70
8
 71
3
 72
8
 73
4
 74
0
 40
0
 40
0
 40
0
 40
0
 40
1
 40
1
 40
1
 40
1
 10
141.843125
 20
266.062989
 30
0.0
 10
140.790600
 20
267.887756
 30
0.0
 10
140.553121
 20
268.268686
 30
0.0
 10
140.043408
 20
268.254069
 30
0.0
  0
LWPOLYLINE
  5
222
100
AcDbEntity
  8
Layer_1
 62
7
100
AcDbPolyline
 90
3
 70
0
 10
137.726649
 20
267.814751
 30
0.0
 10
136.696981
 20
267.614111
 30
0.0
 10
138.040291
 20
265.538234
 30
0.0
  0
SPLINE
  5
223
100
AcDbEntity
  8
Layer_1
 62
7
100
AcDbSpline
 70
8
 71
3
 72
8
 73
4
 74
0
 40
0
 40
0
 40
0
 40
0
 40
1
 40
1
 40
1
 40
1
 10
52.701142
 20
268.229265
 30
0.0
 10
52.491090
 20
268.190634
 30
0.0
 10
52.095654
 20
267.639290
 30
0.0
 10
51.333025
 20
266.366708
 30
0.0
  0
SPLINE
  5
224
100
AcDbEntity
  8
Layer_1
 62
7
100
AcDbSpline
 70
8
 71
3
 72
8
 73
4
 74
0
 40
0
 40
0
 40
0
 40
0
 40
1
 40
1
 40
1
 40
1
 10
51.333025
 20
266.366708
 30
0.0
 10
50.598465
 20
265.140961
 30
0.0
 10
49.997431
 20
264.004531
 30
0.0
 10
49.997431
 20
263.841042
 30
0.0
  0
SPLINE
  5
225
100
AcDbEntity
  8
Layer_1
 62
7
100
AcDbSpline
 70
8
 71
3
 72
8
 73
4
 74
0
 40
0
 40
0
 40
0
 40
0
 40
1
 40
1
 40
1
 40
1
 10
49.997431
 20
263.841042
 30
0.0
 10
49.997431
 20
263.677523
 30
0.0
 10
50.535499
 20
262.974222
 30
0.0
 10
51.193017
 20
262.278347
 30
0.0
  0
LWPOLYLINE
  5
226
100
AcDbEntity
  8
Layer_1
 62
7
100
AcDbPolyline
 90
2
 70
0
 10
140.043408
 20
268.254069
 30
0.0
 10
140.043408
 20
268.254069
 30
0.0
  0
SPLINE
  5
227
100
AcDbEntity
  8
Layer_1
 62
7
100
AcDbSpline
 70
8
 71
3
 72
8
 73
4
 74
0
 40
0
 40
0
 40
0
 40
0
 40
1
 40
1
 40
1
 40
1
 10
53.587495
 20
263.185096
 30
0.0
 10
54.246845
 20
264.379517
 30
0.0
 10
54.788260
 20
265.491757
 30
0.0
 10
54.790797
 20
265.656744
 30
0.0
  0
SPLINE
  5
228
100
AcDbEntity
  8
Layer_1
 62
7
100
AcDbSpline
 70
8
 71
3
 72
8
 73
4
 74
0
 40
0
 40
0
 40
0
 40
0
 40
1
 40
1
 40
1
 40
1
 10
54.790797
 20
265.656744
 30
0.0
 10
54.793320
 20
265.821731
 30
0.0
 10
54.401119
 20
266.329731
 30
0.0
 10
53.919326
 20
266.785633
 30
0.0
  0
SPLINE
  5
229
100
AcDbEntity
  8
Layer_1
 62
7
100
AcDbSpline
 70
8
 71
3
 72
8
 73
4
 74
0
 40
0
 40
0
 40
0
 40
0
 40
1
 40
1
 40
1
 40
1
 10
53.919326
 20
266.785633
 30
0.0
 10
53.437530
 20
267.241535
 30
0.0
 10
52.959071
 20
267.834859
 30
0.0
 10
52.856034
 20
268.104692
 30
0.0
  0
SPLINE
  5
22a
100
AcDbEntity
  8
Layer_1
 62
7
100
AcDbSpline
 70
8
 71
3
 72
8
 73
4
 74
0
 40
0
 40
0
 40
0
 40
0
 40
1
 40
1
 40
1
 40
1
 10
52.856034
 20
268.104692
 30
0.0
 10
52.820375
 20
268.198057
 30
0.0
 10
52.771159
 20
268.242143
 30
0.0
 10
52.701142
 20
268.229265
 30
0.0
  0
LWPOLYLINE
  5
22b
100
AcDbEntity
  8
Layer_1
 62
7
100
AcDbPolyline
 90
3
 70
0
 10
51.193017
 20
262.278347
 30
0.0
 10
52.388603
 20
261.013305
 30
0.0
 10
53.587495
 20
263.185096
 30
0.0
  0
SPLINE
  5
22c
100
AcDbEntity
  8
Layer_1
 62
7
100
AcDbSpline
 70
8
 71
3
 72
8
 73
4
 74
0
 40
0
 40
0
 40
0
 40
0
 40
1
 40
1
 40
1
 40
1
 10
80.990062
 20
264.632585
 30
0.0
 10
81.085303
 20
264.630759
 30
0.0
 10
81.138085
 20
264.625722
 30
0.0
 10
81.143850
 20
264.618254
 30
0.0
  0
SPLINE
  5
22d
100
AcDbEntity
  8
Layer_1
 62
7
100
AcDbSpline
 70
8
 71
3
 72
8
 73
4
 74
0
 40
0
 40
0
 40
0
 40
0
 40
1
 40
1
 40
1
 40
1
 10
81.143850
 20
264.618254
 30
0.0
 10
81.189977
 20
264.558536
 30
0.0
 10
80.200926
 20
251.492163
 30
0.0
 10
78.946155
 20
235.581888
 30
0.0
  0
LWPOLYLINE
  5
22e
100
AcDbEntity
  8
Layer_1
 62
7
100
AcDbPolyline
 90
2
 70
0
 10
52.701142
 20
268.229265
 30
0.0
 10
52.701142
 20
268.229265
 30
0.0
  0
SPLINE
  5
22f
100
AcDbEntity
  8
Layer_1
 62
7
100
AcDbSpline
 70
8
 71
3
 72
8
 73
4
 74
0
 40
0
 40
0
 40
0
 40
0
 40
1
 40
1
 40
1
 40
1
 10
74.347917
 20
264.336032
 30
0.0
 10
77.577947
 20
264.524130
 30
0.0
 10
80.323365
 20
264.645364
 30
0.0
 10
80.990062
 20
264.632585
 30
0.0
  0
LWPOLYLINE
  5
230
100
AcDbEntity
  8
Layer_1
 62
7
100
AcDbPolyline
 90
7
 70
0
 10
78.946155
 20
235.581888
 30
0.0
 10
76.664673
 20
206.654111
 30
0.0
 10
72.078562
 20
206.576940
 30
0.0
 10
67.492451
 20
206.499219
 30
0.0
 10
67.564660
 20
235.222495
 30
0.0
 10
67.636319
 20
263.945222
 30
0.0
 10
74.347917
 20
264.336032
 30
0.0
  0
LWPOLYLINE
  5
231
100
AcDbEntity
  8
Layer_1
 62
7
100
AcDbPolyline
 90
2
 70
0
 10
80.990062
 20
264.632585
 30
0.0
 10
80.990062
 20
264.632585
 30
0.0
  0
SPLINE
  5
232
100
AcDbEntity
  8
Layer_1
 62
7
100
AcDbSpline
 70
8
 71
3
 72
8
 73
4
 74
0
 40
0
 40
0
 40
0
 40
0
 40
1
 40
1
 40
1
 40
1
 10
48.209841
 20
260.138527
 30
0.0
 10
47.112840
 20
257.458036
 30
0.0
 10
47.152148
 20
257.157837
 30
0.0
 10
48.724123
 20
256.186315
 30
0.0
  0
SPLINE
  5
233
100
AcDbEntity
  8
Layer_1
 62
7
100
AcDbSpline
 70
8
 71
3
 72
8
 73
4
 74
0
 40
0
 40
0
 40
0
 40
0
 40
1
 40
1
 40
1
 40
1
 10
48.724123
 20
256.186315
 30
0.0
 10
49.269365
 20
255.849341
 30
0.0
 10
49.715208
 20
255.431664
 30
0.0
 10
49.715208
 20
255.258069
 30
0.0
  0
SPLINE
  5
234
100
AcDbEntity
  8
Layer_1
 62
7
100
AcDbSpline
 70
8
 71
3
 72
8
 73
4
 74
0
 40
0
 40
0
 40
0
 40
0
 40
1
 40
1
 40
1
 40
1
 10
49.715208
 20
255.258069
 30
0.0
 10
49.715208
 20
255.059526
 30
0.0
 10
49.812403
 20
255.042008
 30
0.0
 10
49.977034
 20
255.210664
 30
0.0
  0
SPLINE
  5
235
100
AcDbEntity
  8
Layer_1
 62
7
100
AcDbSpline
 70
8
 71
3
 72
8
 73
4
 74
0
 40
0
 40
0
 40
0
 40
0
 40
1
 40
1
 40
1
 40
1
 10
49.977034
 20
255.210664
 30
0.0
 10
50.315721
 20
255.557600
 30
0.0
 10
51.690764
 20
259.225958
 30
0.0
 10
51.690764
 20
259.782444
 30
0.0
  0
SPLINE
  5
236
100
AcDbEntity
  8
Layer_1
 62
7
100
AcDbSpline
 70
8
 71
3
 72
8
 73
4
 74
0
 40
0
 40
0
 40
0
 40
0
 40
1
 40
1
 40
1
 40
1
 10
51.690764
 20
259.782444
 30
0.0
 10
51.690764
 20
260.016858
 30
0.0
 10
51.128555
 20
260.732012
 30
0.0
 10
50.441160
 20
261.372148
 30
0.0
  0
LWPOLYLINE
  5
237
100
AcDbEntity
  8
Layer_1
 62
7
100
AcDbPolyline
 90
2
 70
0
 10
49.191003
 20
262.536315
 30
0.0
 10
48.209841
 20
260.138527
 30
0.0
  0
SPLINE
  5
238
100
AcDbEntity
  8
Layer_1
 62
7
100
AcDbSpline
 70
8
 71
3
 72
8
 73
4
 74
0
 40
0
 40
0
 40
0
 40
0
 40
1
 40
1
 40
1
 40
1
 10
95.833187
 20
262.265666
 30
0.0
 10
96.343546
 20
262.238328
 30
0.0
 10
99.712297
 20
261.293623
 30
0.0
 10
99.912729
 20
261.107014
 30
0.0
  0
SPLINE
  5
239
100
AcDbEntity
  8
Layer_1
 62
7
100
AcDbSpline
 70
8
 71
3
 72
8
 73
4
 74
0
 40
0
 40
0
 40
0
 40
0
 40
1
 40
1
 40
1
 40
1
 10
99.912729
 20
261.107014
 30
0.0
 10
99.969433
 20
261.054211
 30
0.0
 10
96.611099
 20
249.003257
 30
0.0
 10
92.449825
 20
234.326770
 30
0.0
  0
SPLINE
  5
23a
100
AcDbEntity
  8
Layer_1
 62
7
100
AcDbSpline
 70
8
 71
3
 72
8
 73
4
 74
0
 40
0
 40
0
 40
0
 40
0
 40
1
 40
1
 40
1
 40
1
 10
92.449825
 20
234.326770
 30
0.0
 10
85.502688
 20
209.824776
 30
0.0
 10
84.836421
 20
207.645391
 30
0.0
 10
84.303416
 20
207.679370
 30
0.0
  0
SPLINE
  5
23b
100
AcDbEntity
  8
Layer_1
 62
7
100
AcDbSpline
 70
8
 71
3
 72
8
 73
4
 74
0
 40
0
 40
0
 40
0
 40
0
 40
1
 40
1
 40
1
 40
1
 10
84.303416
 20
207.679370
 30
0.0
 10
82.372612
 20
207.802447
 30
0.0
 10
78.502600
 20
208.599674
 30
0.0
 10
78.505733
 20
208.873853
 30
0.0
  0
SPLINE
  5
23c
100
AcDbEntity
  8
Layer_1
 62
7
100
AcDbSpline
 70
8
 71
3
 72
8
 73
4
 74
0
 40
0
 40
0
 40
0
 40
0
 40
1
 40
1
 40
1
 40
1
 10
78.505733
 20
208.873853
 30
0.0
 10
78.509986
 20
209.245230
 30
0.0
 10
95.599671
 20
262.087277
 30
0.0
 10
95.770898
 20
262.258501
 30
0.0
  0
SPLINE
  5
23d
100
AcDbEntity
  8
Layer_1
 62
7
100
AcDbSpline
 70
8
 71
3
 72
8
 73
4
 74
0
 40
0
 40
0
 40
0
 40
0
 40
1
 40
1
 40
1
 40
1
 10
95.770898
 20
262.258501
 30
0.0
 10
95.777727
 20
262.265331
 30
0.0
 10
95.799162
 20
262.267490
 30
0.0
 10
95.833187
 20
262.265666
 30
0.0
  0
LWPOLYLINE
  5
23e
100
AcDbEntity
  8
Layer_1
 62
7
100
AcDbPolyline
 90
3
 70
0
 10
50.441160
 20
261.372148
 30
0.0
 10
49.191003
 20
262.536315
 30
0.0
 10
49.191003
 20
262.536315
 30
0.0
  0
SPLINE
  5
23f
100
AcDbEntity
  8
Layer_1
 62
7
100
AcDbSpline
 70
8
 71
3
 72
8
 73
4
 74
0
 40
0
 40
0
 40
0
 40
0
 40
1
 40
1
 40
1
 40
1
 10
141.920846
 20
262.251888
 30
0.0
 10
140.879870
 20
262.251888
 30
0.0
 10
140.027987
 20
262.209770
 30
0.0
 10
140.027423
 20
262.158179
 30
0.0
  0
SPLINE
  5
240
100
AcDbEntity
  8
Layer_1
 62
7
100
AcDbSpline
 70
8
 71
3
 72
8
 73
4
 74
0
 40
0
 40
0
 40
0
 40
0
 40
1
 40
1
 40
1
 40
1
 10
140.027423
 20
262.158179
 30
0.0
 10
140.025047
 20
261.921056
 30
0.0
 10
141.820429
 20
257.978666
 30
0.0
 10
142.075738
 20
257.660263
 30
0.0
  0
SPLINE
  5
241
100
AcDbEntity
  8
Layer_1
 62
7
100
AcDbSpline
 70
8
 71
3
 72
8
 73
4
 74
0
 40
0
 40
0
 40
0
 40
0
 40
1
 40
1
 40
1
 40
1
 10
142.075738
 20
257.660263
 30
0.0
 10
142.425383
 20
257.224229
 30
0.0
 10
145.680963
 20
257.283431
 30
0.0
 10
145.650921
 20
257.725306
 30
0.0
  0
SPLINE
  5
242
100
AcDbEntity
  8
Layer_1
 62
7
100
AcDbSpline
 70
8
 71
3
 72
8
 73
4
 74
0
 40
0
 40
0
 40
0
 40
0
 40
1
 40
1
 40
1
 40
1
 10
145.650921
 20
257.725306
 30
0.0
 10
145.639954
 20
257.886653
 30
0.0
 10
145.221881
 20
258.971055
 30
0.0
 10
144.722122
 20
260.135222
 30
0.0
  0
LWPOLYLINE
  5
243
100
AcDbEntity
  8
Layer_1
 62
7
100
AcDbPolyline
 90
2
 70
0
 10
95.833187
 20
262.265666
 30
0.0
 10
95.833187
 20
262.265666
 30
0.0
  0
SPLINE
  5
244
100
AcDbEntity
  8
Layer_1
 62
7
100
AcDbSpline
 70
8
 71
3
 72
8
 73
4
 74
0
 40
0
 40
0
 40
0
 40
0
 40
1
 40
1
 40
1
 40
1
 10
143.624653
 20
256.249152
 30
0.0
 10
143.029074
 20
256.251282
 30
0.0
 10
142.567395
 20
256.189685
 30
0.0
 10
142.569627
 20
256.043000
 30
0.0
  0
SPLINE
  5
245
100
AcDbEntity
  8
Layer_1
 62
7
100
AcDbSpline
 70
8
 71
3
 72
8
 73
4
 74
0
 40
0
 40
0
 40
0
 40
0
 40
1
 40
1
 40
1
 40
1
 10
142.569627
 20
256.043000
 30
0.0
 10
142.577693
 20
255.512732
 30
0.0
 10
143.886236
 20
251.647213
 30
0.0
 10
144.143897
 20
251.392395
 30
0.0
  0
SPLINE
  5
246
100
AcDbEntity
  8
Layer_1
 62
7
100
AcDbSpline
 70
8
 71
3
 72
8
 73
4
 74
0
 40
0
 40
0
 40
0
 40
0
 40
1
 40
1
 40
1
 40
1
 10
144.143897
 20
251.392395
 30
0.0
 10
144.285276
 20
251.252554
 30
0.0
 10
145.035764
 20
251.089754
 30
0.0
 10
145.811875
 20
251.030798
 30
0.0
  0
SPLINE
  5
247
100
AcDbEntity
  8
Layer_1
 62
7
100
AcDbSpline
 70
8
 71
3
 72
8
 73
4
 74
0
 40
0
 40
0
 40
0
 40
0
 40
1
 40
1
 40
1
 40
1
 10
145.811875
 20
251.030798
 30
0.0
 10
146.587986
 20
250.971842
 30
0.0
 10
147.327067
 20
250.901091
 30
0.0
 10
147.453945
 20
250.873151
 30
0.0
  0
SPLINE
  5
248
100
AcDbEntity
  8
Layer_1
 62
7
100
AcDbSpline
 70
8
 71
3
 72
8
 73
4
 74
0
 40
0
 40
0
 40
0
 40
0
 40
1
 40
1
 40
1
 40
1
 10
147.453945
 20
250.873151
 30
0.0
 10
147.580821
 20
250.845183
 30
0.0
 10
147.619277
 20
251.044138
 30
0.0
 10
147.539383
 20
251.315777
 30
0.0
  0
SPLINE
  5
249
100
AcDbEntity
  8
Layer_1
 62
7
100
AcDbSpline
 70
8
 71
3
 72
8
 73
4
 74
0
 40
0
 40
0
 40
0
 40
0
 40
1
 40
1
 40
1
 40
1
 10
147.539383
 20
251.315777
 30
0.0
 10
147.459488
 20
251.587416
 30
0.0
 10
147.185177
 20
252.635166
 30
0.0
 10
146.930291
 20
253.644111
 30
0.0
  0
SPLINE
  5
24a
100
AcDbEntity
  8
Layer_1
 62
7
100
AcDbSpline
 70
8
 71
3
 72
8
 73
4
 74
0
 40
0
 40
0
 40
0
 40
0
 40
1
 40
1
 40
1
 40
1
 10
146.930291
 20
253.644111
 30
0.0
 10
146.675402
 20
254.653055
 30
0.0
 10
146.344759
 20
255.626428
 30
0.0
 10
146.195519
 20
255.807079
 30
0.0
  0
SPLINE
  5
24b
100
AcDbEntity
  8
Layer_1
 62
7
100
AcDbSpline
 70
8
 71
3
 72
8
 73
4
 74
0
 40
0
 40
0
 40
0
 40
0
 40
1
 40
1
 40
1
 40
1
 10
146.195519
 20
255.807079
 30
0.0
 10
145.982264
 20
256.065205
 30
0.0
 10
144.617285
 20
256.245604
 30
0.0
 10
143.624653
 20
256.249152
 30
0.0
  0
LWPOLYLINE
  5
24c
100
AcDbEntity
  8
Layer_1
 62
7
100
AcDbPolyline
 90
4
 70
0
 10
144.722122
 20
260.135222
 30
0.0
 10
143.813719
 20
262.251888
 30
0.0
 10
141.920846
 20
262.251888
 30
0.0
 10
141.920846
 20
262.251888
 30
0.0
  0
LWPOLYLINE
  5
24d
100
AcDbEntity
  8
Layer_1
 62
7
100
AcDbPolyline
 90
2
 70
0
 10
143.624653
 20
256.249152
 30
0.0
 10
143.624653
 20
256.249152
 30
0.0
  0
SPLINE
  5
24e
100
AcDbEntity
  8
Layer_1
 62
7
100
AcDbSpline
 70
8
 71
3
 72
8
 73
4
 74
0
 40
0
 40
0
 40
0
 40
0
 40
1
 40
1
 40
1
 40
1
 10
46.344527
 20
255.123570
 30
0.0
 10
45.440891
 20
251.850865
 30
0.0
 10
45.371865
 20
251.129511
 30
0.0
 10
45.904658
 20
250.540767
 30
0.0
  0
SPLINE
  5
24f
100
AcDbEntity
  8
Layer_1
 62
7
100
AcDbSpline
 70
8
 71
3
 72
8
 73
4
 74
0
 40
0
 40
0
 40
0
 40
0
 40
1
 40
1
 40
1
 40
1
 10
45.904658
 20
250.540767
 30
0.0
 10
46.186121
 20
250.229758
 30
0.0
 10
46.555446
 20
249.972543
 30
0.0
 10
46.725417
 20
249.969157
 30
0.0
  0
SPLINE
  5
250
100
AcDbEntity
  8
Layer_1
 62
7
100
AcDbSpline
 70
8
 71
3
 72
8
 73
4
 74
0
 40
0
 40
0
 40
0
 40
0
 40
1
 40
1
 40
1
 40
1
 10
46.725417
 20
249.969157
 30
0.0
 10
46.895385
 20
249.965714
 30
0.0
 10
47.351594
 20
249.716585
 30
0.0
 10
47.739653
 20
249.415736
 30
0.0
  0
LWPOLYLINE
  5
251
100
AcDbEntity
  8
Layer_1
 62
7
100
AcDbPolyline
 90
2
 70
0
 10
46.623441
 20
256.133948
 30
0.0
 10
46.344527
 20
255.123570
 30
0.0
  0
SPLINE
  5
252
100
AcDbEntity
  8
Layer_1
 62
7
100
AcDbSpline
 70
8
 71
3
 72
8
 73
4
 74
0
 40
0
 40
0
 40
0
 40
0
 40
1
 40
1
 40
1
 40
1
 10
48.915947
 20
250.762907
 30
0.0
 10
49.695907
 20
253.899976
 30
0.0
 10
49.633220
 20
254.214287
 30
0.0
 10
48.021875
 20
255.242081
 30
0.0
  0
LWPOLYLINE
  5
253
100
AcDbEntity
  8
Layer_1
 62
7
100
AcDbPolyline
 90
3
 70
0
 10
47.739653
 20
249.415736
 30
0.0
 10
48.445208
 20
248.868930
 30
0.0
 10
48.915947
 20
250.762907
 30
0.0
  0
SPLINE
  5
254
100
AcDbEntity
  8
Layer_1
 62
7
100
AcDbSpline
 70
8
 71
3
 72
8
 73
4
 74
0
 40
0
 40
0
 40
0
 40
0
 40
1
 40
1
 40
1
 40
1
 10
144.433838
 20
250.125152
 30
0.0
 10
144.266996
 20
250.107759
 30
0.0
 10
144.293477
 20
249.892353
 30
0.0
 10
144.383675
 20
249.338015
 30
0.0
  0
SPLINE
  5
255
100
AcDbEntity
  8
Layer_1
 62
7
100
AcDbSpline
 70
8
 71
3
 72
8
 73
4
 74
0
 40
0
 40
0
 40
0
 40
0
 40
1
 40
1
 40
1
 40
1
 10
144.383675
 20
249.338015
 30
0.0
 10
145.137993
 20
244.702148
 30
0.0
 10
145.164347
 20
244.643877
 30
0.0
 10
146.517431
 20
244.597565
 30
0.0
  0
SPLINE
  5
256
100
AcDbEntity
  8
Layer_1
 62
7
100
AcDbSpline
 70
8
 71
3
 72
8
 73
4
 74
0
 40
0
 40
0
 40
0
 40
0
 40
1
 40
1
 40
1
 40
1
 10
146.517431
 20
244.597565
 30
0.0
 10
146.905486
 20
244.584272
 30
0.0
 10
147.476986
 20
244.464156
 30
0.0
 10
147.787431
 20
244.330777
 30
0.0
  0
SPLINE
  5
257
100
AcDbEntity
  8
Layer_1
 62
7
100
AcDbSpline
 70
8
 71
3
 72
8
 73
4
 74
0
 40
0
 40
0
 40
0
 40
0
 40
1
 40
1
 40
1
 40
1
 10
147.787431
 20
244.330777
 30
0.0
 10
148.648222
 20
243.960869
 30
0.0
 10
148.826361
 20
244.003541
 30
0.0
 10
148.670478
 20
244.542444
 30
0.0
  0
SPLINE
  5
258
100
AcDbEntity
  8
Layer_1
 62
7
100
AcDbSpline
 70
8
 71
3
 72
8
 73
4
 74
0
 40
0
 40
0
 40
0
 40
0
 40
1
 40
1
 40
1
 40
1
 10
148.670478
 20
244.542444
 30
0.0
 10
148.591899
 20
244.814083
 30
0.0
 10
148.440744
 20
245.925333
 30
0.0
 10
148.334786
 20
247.011888
 30
0.0
  0
SPLINE
  5
259
100
AcDbEntity
  8
Layer_1
 62
7
100
AcDbSpline
 70
8
 71
3
 72
8
 73
4
 74
0
 40
0
 40
0
 40
0
 40
0
 40
1
 40
1
 40
1
 40
1
 10
148.334786
 20
247.011888
 30
0.0
 10
148.107411
 20
249.343552
 30
0.0
 10
147.887086
 20
249.693000
 30
0.0
 10
146.642557
 20
249.693000
 30
0.0
  0
SPLINE
  5
25a
100
AcDbEntity
  8
Layer_1
 62
7
100
AcDbSpline
 70
8
 71
3
 72
8
 73
4
 74
0
 40
0
 40
0
 40
0
 40
0
 40
1
 40
1
 40
1
 40
1
 10
146.642557
 20
249.693000
 30
0.0
 10
146.128390
 20
249.693000
 30
0.0
 10
145.376228
 20
249.819034
 30
0.0
 10
144.971270
 20
249.973015
 30
0.0
  0
SPLINE
  5
25b
100
AcDbEntity
  8
Layer_1
 62
7
100
AcDbSpline
 70
8
 71
3
 72
8
 73
4
 74
0
 40
0
 40
0
 40
0
 40
0
 40
1
 40
1
 40
1
 40
1
 10
144.971270
 20
249.973015
 30
0.0
 10
144.703611
 20
250.074776
 30
0.0
 10
144.533942
 20
250.135586
 30
0.0
 10
144.433838
 20
250.125152
 30
0.0
  0
LWPOLYLINE
  5
25c
100
AcDbEntity
  8
Layer_1
 62
7
100
AcDbPolyline
 90
3
 70
0
 10
48.021875
 20
255.242081
 30
0.0
 10
46.623441
 20
256.133948
 30
0.0
 10
46.623441
 20
256.133948
 30
0.0
  0
LWPOLYLINE
  5
25d
100
AcDbEntity
  8
Layer_1
 62
7
100
AcDbPolyline
 90
2
 70
0
 10
144.433838
 20
250.125152
 30
0.0
 10
144.433838
 20
250.125152
 30
0.0
  0
SPLINE
  5
25e
100
AcDbEntity
  8
Layer_1
 62
7
100
AcDbSpline
 70
8
 71
3
 72
8
 73
4
 74
0
 40
0
 40
0
 40
0
 40
0
 40
1
 40
1
 40
1
 40
1
 10
44.628043
 20
247.242848
 30
0.0
 10
44.444463
 20
245.949649
 30
0.0
 10
44.367275
 20
244.700833
 30
0.0
 10
44.456615
 20
244.468028
 30
0.0
  0
SPLINE
  5
25f
100
AcDbEntity
  8
Layer_1
 62
7
100
AcDbSpline
 70
8
 71
3
 72
8
 73
4
 74
0
 40
0
 40
0
 40
0
 40
0
 40
1
 40
1
 40
1
 40
1
 10
44.456615
 20
244.468028
 30
0.0
 10
44.545953
 20
244.235222
 30
0.0
 10
45.289230
 20
243.746270
 30
0.0
 10
46.108606
 20
243.381582
 30
0.0
  0
SPLINE
  5
260
100
AcDbEntity
  8
Layer_1
 62
7
100
AcDbSpline
 70
8
 71
3
 72
8
 73
4
 74
0
 40
0
 40
0
 40
0
 40
0
 40
1
 40
1
 40
1
 40
1
 10
46.108606
 20
243.381582
 30
0.0
 10
46.927984
 20
243.016895
 30
0.0
 10
47.625579
 20
242.738310
 30
0.0
 10
47.658624
 20
242.762017
 30
0.0
  0
SPLINE
  5
261
100
AcDbEntity
  8
Layer_1
 62
7
100
AcDbSpline
 70
8
 71
3
 72
8
 73
4
 74
0
 40
0
 40
0
 40
0
 40
0
 40
1
 40
1
 40
1
 40
1
 10
47.658624
 20
242.762017
 30
0.0
 10
47.691669
 20
242.785695
 30
0.0
 10
47.825429
 20
243.915315
 30
0.0
 10
47.955731
 20
245.272804
 30
0.0
  0
SPLINE
  5
262
100
AcDbEntity
  8
Layer_1
 62
7
100
AcDbSpline
 70
8
 71
3
 72
8
 73
4
 74
0
 40
0
 40
0
 40
0
 40
0
 40
1
 40
1
 40
1
 40
1
 10
47.955731
 20
245.272804
 30
0.0
 10
48.219766
 20
248.023568
 30
0.0
 10
48.267956
 20
247.920139
 30
0.0
 10
46.241451
 20
248.946101
 30
0.0
  0
LWPOLYLINE
  5
263
100
AcDbEntity
  8
Layer_1
 62
7
100
AcDbPolyline
 90
2
 70
0
 10
44.961528
 20
249.593779
 30
0.0
 10
44.628043
 20
247.242848
 30
0.0
  0
SPLINE
  5
264
100
AcDbEntity
  8
Layer_1
 62
7
100
AcDbSpline
 70
8
 71
3
 72
8
 73
4
 74
0
 40
0
 40
0
 40
0
 40
0
 40
1
 40
1
 40
1
 40
1
 10
145.276646
 20
243.691366
 30
0.0
 10
145.250095
 20
243.692213
 30
0.0
 10
145.233971
 20
243.689478
 30
0.0
 10
145.229241
 20
243.682547
 30
0.0
  0
SPLINE
  5
265
100
AcDbEntity
  8
Layer_1
 62
7
100
AcDbSpline
 70
8
 71
3
 72
8
 73
4
 74
0
 40
0
 40
0
 40
0
 40
0
 40
1
 40
1
 40
1
 40
1
 10
145.229241
 20
243.682547
 30
0.0
 10
145.207722
 20
243.651022
 30
0.0
 10
145.249824
 20
242.459689
 30
0.0
 10
145.322948
 20
241.035060
 30
0.0
  0
LWPOLYLINE
  5
266
100
AcDbEntity
  8
Layer_1
 62
7
100
AcDbPolyline
 90
3
 70
0
 10
46.241451
 20
248.946101
 30
0.0
 10
44.961528
 20
249.593779
 30
0.0
 10
44.961528
 20
249.593779
 30
0.0
  0
SPLINE
  5
267
100
AcDbEntity
  8
Layer_1
 62
7
100
AcDbSpline
 70
8
 71
3
 72
8
 73
4
 74
0
 40
0
 40
0
 40
0
 40
0
 40
1
 40
1
 40
1
 40
1
 10
146.339388
 20
238.124093
 30
0.0
 10
146.825408
 20
237.947619
 30
0.0
 10
147.540486
 20
237.647481
 30
0.0
 10
147.928542
 20
237.457122
 30
0.0
  0
LWPOLYLINE
  5
268
100
AcDbEntity
  8
Layer_1
 62
7
100
AcDbPolyline
 90
3
 70
0
 10
145.322948
 20
241.035060
 30
0.0
 10
145.455790
 20
238.444900
 30
0.0
 10
146.339388
 20
238.124093
 30
0.0
  0
SPLINE
  5
269
100
AcDbEntity
  8
Layer_1
 62
7
100
AcDbSpline
 70
8
 71
3
 72
8
 73
4
 74
0
 40
0
 40
0
 40
0
 40
0
 40
1
 40
1
 40
1
 40
1
 10
148.715676
 20
239.778840
 30
0.0
 10
148.760406
 20
241.246142
 30
0.0
 10
148.696906
 20
242.538813
 30
0.0
 10
148.574565
 20
242.651222
 30
0.0
  0
SPLINE
  5
26a
100
AcDbEntity
  8
Layer_1
 62
7
100
AcDbSpline
 70
8
 71
3
 72
8
 73
4
 74
0
 40
0
 40
0
 40
0
 40
0
 40
1
 40
1
 40
1
 40
1
 10
148.574565
 20
242.651222
 30
0.0
 10
148.368535
 20
242.840585
 30
0.0
 10
145.674896
 20
243.678672
 30
0.0
 10
145.276646
 20
243.691366
 30
0.0
  0
LWPOLYLINE
  5
26b
100
AcDbEntity
  8
Layer_1
 62
7
100
AcDbPolyline
 90
3
 70
0
 10
147.928542
 20
237.457122
 30
0.0
 10
148.634097
 20
237.110957
 30
0.0
 10
148.715676
 20
239.778840
 30
0.0
  0
LWPOLYLINE
  5
26c
100
AcDbEntity
  8
Layer_1
 62
7
100
AcDbPolyline
 90
2
 70
0
 10
145.276646
 20
243.691366
 30
0.0
 10
145.276646
 20
243.691366
 30
0.0
  0
SPLINE
  5
26d
100
AcDbEntity
  8
Layer_1
 62
7
100
AcDbSpline
 70
8
 71
3
 72
8
 73
4
 74
0
 40
0
 40
0
 40
0
 40
0
 40
1
 40
1
 40
1
 40
1
 10
44.070764
 20
240.280445
 30
0.0
 10
44.070764
 20
237.306246
 30
0.0
 10
44.145965
 20
237.169577
 30
0.0
 10
46.008838
 20
236.751014
 30
0.0
  0
SPLINE
  5
26e
100
AcDbEntity
  8
Layer_1
 62
7
100
AcDbSpline
 70
8
 71
3
 72
8
 73
4
 74
0
 40
0
 40
0
 40
0
 40
0
 40
1
 40
1
 40
1
 40
1
 10
46.008838
 20
236.751014
 30
0.0
 10
46.674509
 20
236.601464
 30
0.0
 10
47.304596
 20
236.393066
 30
0.0
 10
47.408925
 20
236.287994
 30
0.0
  0
SPLINE
  5
26f
100
AcDbEntity
  8
Layer_1
 62
7
100
AcDbSpline
 70
8
 71
3
 72
8
 73
4
 74
0
 40
0
 40
0
 40
0
 40
0
 40
1
 40
1
 40
1
 40
1
 10
47.408925
 20
236.287994
 30
0.0
 10
47.513257
 20
236.182923
 30
0.0
 10
47.636018
 20
237.219119
 30
0.0
 10
47.681775
 20
238.590970
 30
0.0
  0
SPLINE
  5
270
100
AcDbEntity
  8
Layer_1
 62
7
100
AcDbSpline
 70
8
 71
3
 72
8
 73
4
 74
0
 40
0
 40
0
 40
0
 40
0
 40
1
 40
1
 40
1
 40
1
 10
47.681775
 20
238.590970
 30
0.0
 10
47.757416
 20
240.858795
 30
0.0
 10
47.709574
 20
241.130067
 30
0.0
 10
47.156466
 20
241.579111
 30
0.0
  0
SPLINE
  5
271
100
AcDbEntity
  8
Layer_1
 62
7
100
AcDbSpline
 70
8
 71
3
 72
8
 73
4
 74
0
 40
0
 40
0
 40
0
 40
0
 40
1
 40
1
 40
1
 40
1
 10
47.156466
 20
241.579111
 30
0.0
 10
46.821872
 20
241.850750
 30
0.0
 10
46.365575
 20
242.073000
 30
0.0
 10
46.142230
 20
242.073000
 30
0.0
  0
SPLINE
  5
272
100
AcDbEntity
  8
Layer_1
 62
7
100
AcDbSpline
 70
8
 71
3
 72
8
 73
4
 74
0
 40
0
 40
0
 40
0
 40
0
 40
1
 40
1
 40
1
 40
1
 10
46.142230
 20
242.073000
 30
0.0
 10
45.918882
 20
242.073000
 30
0.0
 10
45.361609
 20
242.266686
 30
0.0
 10
44.903650
 20
242.503498
 30
0.0
  0
LWPOLYLINE
  5
273
100
AcDbEntity
  8
Layer_1
 62
7
100
AcDbPolyline
 90
2
 70
0
 10
44.070764
 20
242.934548
 30
0.0
 10
44.070764
 20
240.280445
 30
0.0
  0
LWPOLYLINE
  5
274
100
AcDbEntity
  8
Layer_1
 62
7
100
AcDbPolyline
 90
3
 70
0
 10
44.903650
 20
242.503498
 30
0.0
 10
44.070764
 20
242.934548
 30
0.0
 10
44.070764
 20
242.934548
 30
0.0
  0
SPLINE
  5
275
100
AcDbEntity
  8
Layer_1
 62
7
100
AcDbSpline
 70
8
 71
3
 72
8
 73
4
 74
0
 40
0
 40
0
 40
0
 40
0
 40
1
 40
1
 40
1
 40
1
 10
144.950327
 20
234.772153
 30
0.0
 10
144.836989
 20
233.260458
 30
0.0
 10
144.857600
 20
232.037728
 30
0.0
 10
144.997729
 20
231.984105
 30
0.0
  0
SPLINE
  5
276
100
AcDbEntity
  8
Layer_1
 62
7
100
AcDbSpline
 70
8
 71
3
 72
8
 73
4
 74
0
 40
0
 40
0
 40
0
 40
0
 40
1
 40
1
 40
1
 40
1
 10
144.997729
 20
231.984105
 30
0.0
 10
145.134993
 20
231.931584
 30
0.0
 10
145.818931
 20
231.608462
 30
0.0
 10
146.517431
 20
231.265872
 30
0.0
  0
SPLINE
  5
277
100
AcDbEntity
  8
Layer_1
 62
7
100
AcDbSpline
 70
8
 71
3
 72
8
 73
4
 74
0
 40
0
 40
0
 40
0
 40
0
 40
1
 40
1
 40
1
 40
1
 10
146.517431
 20
231.265872
 30
0.0
 10
147.402649
 20
230.831730
 30
0.0
 10
147.849511
 20
230.738314
 30
0.0
 10
147.991932
 20
230.957742
 30
0.0
  0
SPLINE
  5
278
100
AcDbEntity
  8
Layer_1
 62
7
100
AcDbSpline
 70
8
 71
3
 72
8
 73
4
 74
0
 40
0
 40
0
 40
0
 40
0
 40
1
 40
1
 40
1
 40
1
 10
147.991932
 20
230.957742
 30
0.0
 10
148.104310
 20
231.130857
 30
0.0
 10
148.231310
 20
232.320150
 30
0.0
 10
148.274154
 20
233.600818
 30
0.0
  0
SPLINE
  5
279
100
AcDbEntity
  8
Layer_1
 62
7
100
AcDbSpline
 70
8
 71
3
 72
8
 73
4
 74
0
 40
0
 40
0
 40
0
 40
0
 40
1
 40
1
 40
1
 40
1
 10
148.274154
 20
233.600818
 30
0.0
 10
148.359230
 20
236.143951
 30
0.0
 10
148.481260
 20
235.935897
 30
0.0
 10
146.328915
 20
236.924098
 30
0.0
  0
LWPOLYLINE
  5
27a
100
AcDbEntity
  8
Layer_1
 62
7
100
AcDbPolyline
 90
2
 70
0
 10
145.152070
 20
237.464288
 30
0.0
 10
144.950327
 20
234.772153
 30
0.0
  0
SPLINE
  5
27b
100
AcDbEntity
  8
Layer_1
 62
7
100
AcDbSpline
 70
8
 71
3
 72
8
 73
4
 74
0
 40
0
 40
0
 40
0
 40
0
 40
1
 40
1
 40
1
 40
1
 10
44.588907
 20
235.763789
 30
0.0
 10
44.495802
 20
235.765392
 30
0.0
 10
44.432965
 20
235.756121
 30
0.0
 10
44.409761
 20
235.732920
 30
0.0
  0
SPLINE
  5
27c
100
AcDbEntity
  8
Layer_1
 62
7
100
AcDbSpline
 70
8
 71
3
 72
8
 73
4
 74
0
 40
0
 40
0
 40
0
 40
0
 40
1
 40
1
 40
1
 40
1
 10
44.409761
 20
235.732920
 30
0.0
 10
44.359356
 20
235.682515
 30
0.0
 10
44.460070
 20
234.580158
 30
0.0
 10
44.633555
 20
233.283318
 30
0.0
  0
SPLINE
  5
27d
100
AcDbEntity
  8
Layer_1
 62
7
100
AcDbSpline
 70
8
 71
3
 72
8
 73
4
 74
0
 40
0
 40
0
 40
0
 40
0
 40
1
 40
1
 40
1
 40
1
 10
44.633555
 20
233.283318
 30
0.0
 10
44.985757
 20
230.650524
 30
0.0
 10
45.298749
 20
230.222579
 30
0.0
 10
46.876451
 20
230.215805
 30
0.0
  0
SPLINE
  5
27e
100
AcDbEntity
  8
Layer_1
 62
7
100
AcDbSpline
 70
8
 71
3
 72
8
 73
4
 74
0
 40
0
 40
0
 40
0
 40
0
 40
1
 40
1
 40
1
 40
1
 10
46.876451
 20
230.215805
 30
0.0
 10
47.428867
 20
230.213435
 30
0.0
 10
48.067491
 20
230.092881
 30
0.0
 10
48.295828
 20
229.948468
 30
0.0
  0
SPLINE
  5
27f
100
AcDbEntity
  8
Layer_1
 62
7
100
AcDbSpline
 70
8
 71
3
 72
8
 73
4
 74
0
 40
0
 40
0
 40
0
 40
0
 40
1
 40
1
 40
1
 40
1
 10
48.295828
 20
229.948468
 30
0.0
 10
48.524166
 20
229.804054
 30
0.0
 10
48.734458
 20
229.710842
 30
0.0
 10
48.762708
 20
229.741209
 30
0.0
  0
SPLINE
  5
280
100
AcDbEntity
  8
Layer_1
 62
7
100
AcDbSpline
 70
8
 71
3
 72
8
 73
4
 74
0
 40
0
 40
0
 40
0
 40
0
 40
1
 40
1
 40
1
 40
1
 10
48.762708
 20
229.741209
 30
0.0
 10
48.939086
 20
229.930806
 30
0.0
 10
47.926275
 20
234.654447
 30
0.0
 10
47.652562
 20
234.918776
 30
0.0
  0
SPLINE
  5
281
100
AcDbEntity
  8
Layer_1
 62
7
100
AcDbSpline
 70
8
 71
3
 72
8
 73
4
 74
0
 40
0
 40
0
 40
0
 40
0
 40
1
 40
1
 40
1
 40
1
 10
47.652562
 20
234.918776
 30
0.0
 10
47.368212
 20
235.193353
 30
0.0
 10
45.240637
 20
235.752565
 30
0.0
 10
44.588907
 20
235.763789
 30
0.0
  0
LWPOLYLINE
  5
282
100
AcDbEntity
  8
Layer_1
 62
7
100
AcDbPolyline
 90
3
 70
0
 10
146.328915
 20
236.924098
 30
0.0
 10
145.152070
 20
237.464288
 30
0.0
 10
145.152070
 20
237.464288
 30
0.0
  0
SPLINE
  5
283
100
AcDbEntity
  8
Layer_1
 62
7
100
AcDbSpline
 70
8
 71
3
 72
8
 73
4
 74
0
 40
0
 40
0
 40
0
 40
0
 40
1
 40
1
 40
1
 40
1
 10
144.439900
 20
231.013416
 30
0.0
 10
144.425518
 20
231.016035
 30
0.0
 10
144.416532
 20
231.014983
 30
0.0
 10
144.412891
 20
231.010109
 30
0.0
  0
SPLINE
  5
284
100
AcDbEntity
  8
Layer_1
 62
7
100
AcDbSpline
 70
8
 71
3
 72
8
 73
4
 74
0
 40
0
 40
0
 40
0
 40
0
 40
1
 40
1
 40
1
 40
1
 10
144.412891
 20
231.010109
 30
0.0
 10
144.178994
 20
230.697039
 30
0.0
 10
143.390956
 20
226.169131
 30
0.0
 10
143.514408
 20
225.847426
 30
0.0
  0
SPLINE
  5
285
100
AcDbEntity
  8
Layer_1
 62
7
100
AcDbSpline
 70
8
 71
3
 72
8
 73
4
 74
0
 40
0
 40
0
 40
0
 40
0
 40
1
 40
1
 40
1
 40
1
 10
143.514408
 20
225.847426
 30
0.0
 10
143.598767
 20
225.627575
 30
0.0
 10
144.181864
 20
225.185214
 30
0.0
 10
144.810316
 20
224.864610
 30
0.0
  0
SPLINE
  5
286
100
AcDbEntity
  8
Layer_1
 62
7
100
AcDbSpline
 70
8
 71
3
 72
8
 73
4
 74
0
 40
0
 40
0
 40
0
 40
0
 40
1
 40
1
 40
1
 40
1
 10
144.810316
 20
224.864610
 30
0.0
 10
145.438769
 20
224.544005
 30
0.0
 10
145.957092
 20
224.125602
 30
0.0
 10
145.961806
 20
223.934707
 30
0.0
  0
SPLINE
  5
287
100
AcDbEntity
  8
Layer_1
 62
7
100
AcDbSpline
 70
8
 71
3
 72
8
 73
4
 74
0
 40
0
 40
0
 40
0
 40
0
 40
1
 40
1
 40
1
 40
1
 10
145.961806
 20
223.934707
 30
0.0
 10
145.978663
 20
223.253028
 30
0.0
 10
146.456984
 20
224.443537
 30
0.0
 10
147.069748
 20
226.691888
 30
0.0
  0
SPLINE
  5
288
100
AcDbEntity
  8
Layer_1
 62
7
100
AcDbSpline
 70
8
 71
3
 72
8
 73
4
 74
0
 40
0
 40
0
 40
0
 40
0
 40
1
 40
1
 40
1
 40
1
 10
147.069748
 20
226.691888
 30
0.0
 10
147.662135
 20
228.865451
 30
0.0
 10
147.665846
 20
228.963399
 30
0.0
 10
147.171723
 20
229.313468
 30
0.0
  0
SPLINE
  5
289
100
AcDbEntity
  8
Layer_1
 62
7
100
AcDbSpline
 70
8
 71
3
 72
8
 73
4
 74
0
 40
0
 40
0
 40
0
 40
0
 40
1
 40
1
 40
1
 40
1
 10
147.171723
 20
229.313468
 30
0.0
 10
146.032810
 20
230.120366
 30
0.0
 10
144.655625
 20
230.974131
 30
0.0
 10
144.439900
 20
231.013416
 30
0.0
  0
LWPOLYLINE
  5
28a
100
AcDbEntity
  8
Layer_1
 62
7
100
AcDbPolyline
 90
2
 70
0
 10
44.588907
 20
235.763789
 30
0.0
 10
44.588907
 20
235.763789
 30
0.0
  0
SPLINE
  5
28b
100
AcDbEntity
  8
Layer_1
 62
7
100
AcDbSpline
 70
8
 71
3
 72
8
 73
4
 74
0
 40
0
 40
0
 40
0
 40
0
 40
1
 40
1
 40
1
 40
1
 10
45.246507
 20
229.253385
 30
0.0
 10
45.216507
 20
229.247010
 30
0.0
 10
45.199653
 20
229.231231
 30
0.0
 10
45.199653
 20
229.205430
 30
0.0
  0
SPLINE
  5
28c
100
AcDbEntity
  8
Layer_1
 62
7
100
AcDbSpline
 70
8
 71
3
 72
8
 73
4
 74
0
 40
0
 40
0
 40
0
 40
0
 40
1
 40
1
 40
1
 40
1
 10
45.199653
 20
229.205430
 30
0.0
 10
45.199653
 20
228.418256
 30
0.0
 10
46.506438
 20
224.362059
 30
0.0
 10
46.850543
 20
224.081333
 30
0.0
  0
SPLINE
  5
28d
100
AcDbEntity
  8
Layer_1
 62
7
100
AcDbSpline
 70
8
 71
3
 72
8
 73
4
 74
0
 40
0
 40
0
 40
0
 40
0
 40
1
 40
1
 40
1
 40
1
 10
46.850543
 20
224.081333
 30
0.0
 10
47.299970
 20
223.714642
 30
0.0
 10
50.279653
 20
223.579601
 30
0.0
 10
50.279653
 20
223.925888
 30
0.0
  0
SPLINE
  5
28e
100
AcDbEntity
  8
Layer_1
 62
7
100
AcDbSpline
 70
8
 71
3
 72
8
 73
4
 74
0
 40
0
 40
0
 40
0
 40
0
 40
1
 40
1
 40
1
 40
1
 10
50.279653
 20
223.925888
 30
0.0
 10
50.279653
 20
224.034289
 30
0.0
 10
49.960838
 20
225.169500
 30
0.0
 10
49.570790
 20
226.448249
 30
0.0
  0
SPLINE
  5
28f
100
AcDbEntity
  8
Layer_1
 62
7
100
AcDbSpline
 70
8
 71
3
 72
8
 73
4
 74
0
 40
0
 40
0
 40
0
 40
0
 40
1
 40
1
 40
1
 40
1
 10
49.570790
 20
226.448249
 30
0.0
 10
48.820482
 20
228.908126
 30
0.0
 10
48.448666
 20
229.279988
 30
0.0
 10
47.084257
 20
228.937539
 30
0.0
  0
SPLINE
  5
290
100
AcDbEntity
  8
Layer_1
 62
7
100
AcDbSpline
 70
8
 71
3
 72
8
 73
4
 74
0
 40
0
 40
0
 40
0
 40
0
 40
1
 40
1
 40
1
 40
1
 10
47.084257
 20
228.937539
 30
0.0
 10
46.697460
 20
228.840455
 30
0.0
 10
46.115458
 20
228.903119
 30
0.0
 10
45.790556
 20
229.076996
 30
0.0
  0
SPLINE
  5
291
100
AcDbEntity
  8
Layer_1
 62
7
100
AcDbSpline
 70
8
 71
3
 72
8
 73
4
 74
0
 40
0
 40
0
 40
0
 40
0
 40
1
 40
1
 40
1
 40
1
 10
45.790556
 20
229.076996
 30
0.0
 10
45.546879
 20
229.207403
 30
0.0
 10
45.336500
 20
229.272511
 30
0.0
 10
45.246507
 20
229.253385
 30
0.0
  0
LWPOLYLINE
  5
292
100
AcDbEntity
  8
Layer_1
 62
7
100
AcDbPolyline
 90
2
 70
0
 10
144.439900
 20
231.013416
 30
0.0
 10
144.439900
 20
231.013416
 30
0.0
  0
LWPOLYLINE
  5
293
100
AcDbEntity
  8
Layer_1
 62
7
100
AcDbPolyline
 90
2
 70
0
 10
45.246507
 20
229.253385
 30
0.0
 10
45.246507
 20
229.253385
 30
0.0
  0
SPLINE
  5
294
100
AcDbEntity
  8
Layer_1
 62
7
100
AcDbSpline
 70
8
 71
3
 72
8
 73
4
 74
0
 40
0
 40
0
 40
0
 40
0
 40
1
 40
1
 40
1
 40
1
 10
142.160625
 20
222.844957
 30
0.0
 10
141.607848
 20
221.635663
 30
0.0
 10
141.155208
 20
220.496329
 30
0.0
 10
141.155208
 20
220.313223
 30
0.0
  0
SPLINE
  5
295
100
AcDbEntity
  8
Layer_1
 62
7
100
AcDbSpline
 70
8
 71
3
 72
8
 73
4
 74
0
 40
0
 40
0
 40
0
 40
0
 40
1
 40
1
 40
1
 40
1
 10
141.155208
 20
220.313223
 30
0.0
 10
141.155208
 20
220.130146
 30
0.0
 10
141.631458
 20
219.439023
 30
0.0
 10
142.213542
 20
218.776986
 30
0.0
  0
SPLINE
  5
296
100
AcDbEntity
  8
Layer_1
 62
7
100
AcDbSpline
 70
8
 71
3
 72
8
 73
4
 74
0
 40
0
 40
0
 40
0
 40
0
 40
1
 40
1
 40
1
 40
1
 10
142.213542
 20
218.776986
 30
0.0
 10
142.795625
 20
218.114949
 30
0.0
 10
143.292861
 20
217.561350
 30
0.0
 10
143.318176
 20
217.546675
 30
0.0
  0
SPLINE
  5
297
100
AcDbEntity
  8
Layer_1
 62
7
100
AcDbSpline
 70
8
 71
3
 72
8
 73
4
 74
0
 40
0
 40
0
 40
0
 40
0
 40
1
 40
1
 40
1
 40
1
 10
143.318176
 20
217.546675
 30
0.0
 10
143.448332
 20
217.471547
 30
0.0
 10
145.670764
 20
221.853400
 30
0.0
 10
145.670764
 20
222.185152
 30
0.0
  0
SPLINE
  5
298
100
AcDbEntity
  8
Layer_1
 62
7
100
AcDbSpline
 70
8
 71
3
 72
8
 73
4
 74
0
 40
0
 40
0
 40
0
 40
0
 40
1
 40
1
 40
1
 40
1
 10
145.670764
 20
222.185152
 30
0.0
 10
145.670764
 20
222.398823
 30
0.0
 10
145.107403
 20
223.129228
 30
0.0
 10
144.418403
 20
223.808480
 30
0.0
  0
LWPOLYLINE
  5
299
100
AcDbEntity
  8
Layer_1
 62
7
100
AcDbPolyline
 90
2
 70
0
 10
143.165491
 20
225.043753
 30
0.0
 10
142.160625
 20
222.844957
 30
0.0
  0
SPLINE
  5
29a
100
AcDbEntity
  8
Layer_1
 62
7
100
AcDbSpline
 70
8
 71
3
 72
8
 73
4
 74
0
 40
0
 40
0
 40
0
 40
0
 40
1
 40
1
 40
1
 40
1
 10
48.147551
 20
222.508714
 30
0.0
 10
47.458500
 20
222.488716
 30
0.0
 10
47.194453
 20
222.398741
 30
0.0
 10
47.263953
 20
222.223735
 30
0.0
  0
SPLINE
  5
29b
100
AcDbEntity
  8
Layer_1
 62
7
100
AcDbSpline
 70
8
 71
3
 72
8
 73
4
 74
0
 40
0
 40
0
 40
0
 40
0
 40
1
 40
1
 40
1
 40
1
 10
47.263953
 20
222.223735
 30
0.0
 10
48.650203
 20
218.733157
 30
0.0
 10
49.017987
 20
217.907987
 30
0.0
 10
49.272032
 20
217.721410
 30
0.0
  0
SPLINE
  5
29c
100
AcDbEntity
  8
Layer_1
 62
7
100
AcDbSpline
 70
8
 71
3
 72
8
 73
4
 74
0
 40
0
 40
0
 40
0
 40
0
 40
1
 40
1
 40
1
 40
1
 10
49.272032
 20
217.721410
 30
0.0
 10
49.438199
 20
217.599377
 30
0.0
 10
50.018597
 20
217.566013
 30
0.0
 10
50.561875
 20
217.647547
 30
0.0
  0
SPLINE
  5
29d
100
AcDbEntity
  8
Layer_1
 62
7
100
AcDbSpline
 70
8
 71
3
 72
8
 73
4
 74
0
 40
0
 40
0
 40
0
 40
0
 40
1
 40
1
 40
1
 40
1
 10
50.561875
 20
217.647547
 30
0.0
 10
51.105153
 20
217.729081
 30
0.0
 10
51.894562
 20
217.796309
 30
0.0
 10
52.315841
 20
217.799131
 30
0.0
  0
LWPOLYLINE
  5
29e
100
AcDbEntity
  8
Layer_1
 62
7
100
AcDbPolyline
 90
3
 70
0
 10
144.418403
 20
223.808480
 30
0.0
 10
143.165491
 20
225.043753
 30
0.0
 10
143.165491
 20
225.043753
 30
0.0
  0
SPLINE
  5
29f
100
AcDbEntity
  8
Layer_1
 62
7
100
AcDbSpline
 70
8
 71
3
 72
8
 73
4
 74
0
 40
0
 40
0
 40
0
 40
0
 40
1
 40
1
 40
1
 40
1
 10
48.981541
 20
222.505957
 30
0.0
 10
48.654030
 20
222.514291
 30
0.0
 10
48.377235
 20
222.515381
 30
0.0
 10
48.147551
 20
222.508714
 30
0.0
  0
LWPOLYLINE
  5
2a0
100
AcDbEntity
  8
Layer_1
 62
7
100
AcDbPolyline
 90
5
 70
0
 10
52.315841
 20
217.799131
 30
0.0
 10
53.081479
 20
217.801888
 30
0.0
 10
51.955898
 20
220.130222
 30
0.0
 10
50.829766
 20
222.458555
 30
0.0
 10
48.981541
 20
222.505957
 30
0.0
  0
LWPOLYLINE
  5
2a1
100
AcDbEntity
  8
Layer_1
 62
7
100
AcDbPolyline
 90
2
 70
0
 10
48.147551
 20
222.508714
 30
0.0
 10
48.147551
 20
222.508714
 30
0.0
  0
SPLINE
  5
2a2
100
AcDbEntity
  8
Layer_1
 62
7
100
AcDbSpline
 70
8
 71
3
 72
8
 73
4
 74
0
 40
0
 40
0
 40
0
 40
0
 40
1
 40
1
 40
1
 40
1
 10
139.466836
 20
216.683470
 30
0.0
 10
138.843179
 20
215.443078
 30
0.0
 10
138.332986
 20
214.280435
 30
0.0
 10
138.332986
 20
214.099926
 30
0.0
  0
SPLINE
  5
2a3
100
AcDbEntity
  8
Layer_1
 62
7
100
AcDbSpline
 70
8
 71
3
 72
8
 73
4
 74
0
 40
0
 40
0
 40
0
 40
0
 40
1
 40
1
 40
1
 40
1
 10
138.332986
 20
214.099926
 30
0.0
 10
138.332986
 20
213.919417
 30
0.0
 10
138.809236
 20
213.241677
 30
0.0
 10
139.391319
 20
212.594005
 30
0.0
  0
SPLINE
  5
2a4
100
AcDbEntity
  8
Layer_1
 62
7
100
AcDbSpline
 70
8
 71
3
 72
8
 73
4
 74
0
 40
0
 40
0
 40
0
 40
0
 40
1
 40
1
 40
1
 40
1
 10
139.391319
 20
212.594005
 30
0.0
 10
139.973403
 20
211.946305
 30
0.0
 10
140.467311
 20
211.424372
 30
0.0
 10
140.488789
 20
211.434250
 30
0.0
  0
SPLINE
  5
2a5
100
AcDbEntity
  8
Layer_1
 62
7
100
AcDbSpline
 70
8
 71
3
 72
8
 73
4
 74
0
 40
0
 40
0
 40
0
 40
0
 40
1
 40
1
 40
1
 40
1
 10
140.488789
 20
211.434250
 30
0.0
 10
140.570450
 20
211.471644
 30
0.0
 10
143.130764
 20
215.878623
 30
0.0
 10
143.130764
 20
215.981775
 30
0.0
  0
SPLINE
  5
2a6
100
AcDbEntity
  8
Layer_1
 62
7
100
AcDbSpline
 70
8
 71
3
 72
8
 73
4
 74
0
 40
0
 40
0
 40
0
 40
0
 40
1
 40
1
 40
1
 40
1
 10
143.130764
 20
215.981775
 30
0.0
 10
143.130764
 20
216.041381
 30
0.0
 10
142.561457
 20
216.730787
 30
0.0
 10
141.865725
 20
217.514152
 30
0.0
  0
LWPOLYLINE
  5
2a7
100
AcDbEntity
  8
Layer_1
 62
7
100
AcDbPolyline
 90
2
 70
0
 10
140.600687
 20
218.938493
 30
0.0
 10
139.466836
 20
216.683470
 30
0.0
  0
SPLINE
  5
2a8
100
AcDbEntity
  8
Layer_1
 62
7
100
AcDbSpline
 70
8
 71
3
 72
8
 73
4
 74
0
 40
0
 40
0
 40
0
 40
0
 40
1
 40
1
 40
1
 40
1
 10
53.009269
 20
216.787099
 30
0.0
 10
52.668438
 20
216.779572
 30
0.0
 10
52.036988
 20
216.701151
 30
0.0
 10
51.388145
 20
216.580394
 30
0.0
  0
LWPOLYLINE
  5
2a9
100
AcDbEntity
  8
Layer_1
 62
7
100
AcDbPolyline
 90
3
 70
0
 10
141.865725
 20
217.514152
 30
0.0
 10
140.600687
 20
218.938493
 30
0.0
 10
140.600687
 20
218.938493
 30
0.0
  0
SPLINE
  5
2aa
100
AcDbEntity
  8
Layer_1
 62
7
100
AcDbSpline
 70
8
 71
3
 72
8
 73
4
 74
0
 40
0
 40
0
 40
0
 40
0
 40
1
 40
1
 40
1
 40
1
 10
50.898117
 20
214.317104
 30
0.0
 10
51.493886
 20
213.233258
 30
0.0
 10
52.131138
 20
212.166334
 30
0.0
 10
52.314187
 20
211.945777
 30
0.0
  0
SPLINE
  5
2ab
100
AcDbEntity
  8
Layer_1
 62
7
100
AcDbSpline
 70
8
 71
3
 72
8
 73
4
 74
0
 40
0
 40
0
 40
0
 40
0
 40
1
 40
1
 40
1
 40
1
 10
52.314187
 20
211.945777
 30
0.0
 10
52.544991
 20
211.667676
 30
0.0
 10
52.911646
 20
211.605175
 30
0.0
 10
53.509774
 20
211.741827
 30
0.0
  0
SPLINE
  5
2ac
100
AcDbEntity
  8
Layer_1
 62
7
100
AcDbSpline
 70
8
 71
3
 72
8
 73
4
 74
0
 40
0
 40
0
 40
0
 40
0
 40
1
 40
1
 40
1
 40
1
 10
53.509774
 20
211.741827
 30
0.0
 10
53.984133
 20
211.850228
 30
0.0
 10
54.784447
 20
212.019855
 30
0.0
 10
55.288547
 20
212.118859
 30
0.0
  0
LWPOLYLINE
  5
2ad
100
AcDbEntity
  8
Layer_1
 62
7
100
AcDbPolyline
 90
3
 70
0
 10
51.388145
 20
216.580394
 30
0.0
 10
49.814980
 20
216.287698
 30
0.0
 10
50.898117
 20
214.317104
 30
0.0
  0
SPLINE
  5
2ae
100
AcDbEntity
  8
Layer_1
 62
7
100
AcDbSpline
 70
8
 71
3
 72
8
 73
4
 74
0
 40
0
 40
0
 40
0
 40
0
 40
1
 40
1
 40
1
 40
1
 10
54.865214
 20
214.482470
 30
0.0
 10
54.128281
 20
215.683636
 30
0.0
 10
53.398208
 20
216.713146
 30
0.0
 10
53.242986
 20
216.770013
 30
0.0
  0
SPLINE
  5
2af
100
AcDbEntity
  8
Layer_1
 62
7
100
AcDbSpline
 70
8
 71
3
 72
8
 73
4
 74
0
 40
0
 40
0
 40
0
 40
0
 40
1
 40
1
 40
1
 40
1
 10
53.242986
 20
216.770013
 30
0.0
 10
53.204181
 20
216.784229
 30
0.0
 10
53.122881
 20
216.789608
 30
0.0
 10
53.009269
 20
216.787099
 30
0.0
  0
LWPOLYLINE
  5
2b0
100
AcDbEntity
  8
Layer_1
 62
7
100
AcDbPolyline
 90
3
 70
0
 10
55.288547
 20
212.118859
 30
0.0
 10
56.205216
 20
212.298555
 30
0.0
 10
54.865214
 20
214.482470
 30
0.0
  0
LWPOLYLINE
  5
2b1
100
AcDbEntity
  8
Layer_1
 62
7
100
AcDbPolyline
 90
2
 70
0
 10
53.009269
 20
216.787099
 30
0.0
 10
53.009269
 20
216.787099
 30
0.0
  0
SPLINE
  5
2b2
100
AcDbEntity
  8
Layer_1
 62
7
100
AcDbSpline
 70
8
 71
3
 72
8
 73
4
 74
0
 40
0
 40
0
 40
0
 40
0
 40
1
 40
1
 40
1
 40
1
 10
135.975437
 20
211.314082
 30
0.0
 10
135.254345
 20
210.229643
 30
0.0
 10
134.664097
 20
209.136523
 30
0.0
 10
134.664097
 20
208.885430
 30
0.0
  0
SPLINE
  5
2b3
100
AcDbEntity
  8
Layer_1
 62
7
100
AcDbSpline
 70
8
 71
3
 72
8
 73
4
 74
0
 40
0
 40
0
 40
0
 40
0
 40
1
 40
1
 40
1
 40
1
 10
134.664097
 20
208.885430
 30
0.0
 10
134.664097
 20
208.634337
 30
0.0
 10
134.981597
 20
208.051802
 30
0.0
 10
135.369653
 20
207.590626
 30
0.0
  0
SPLINE
  5
2b4
100
AcDbEntity
  8
Layer_1
 62
7
100
AcDbSpline
 70
8
 71
3
 72
8
 73
4
 74
0
 40
0
 40
0
 40
0
 40
0
 40
1
 40
1
 40
1
 40
1
 10
135.369653
 20
207.590626
 30
0.0
 10
135.757708
 20
207.129446
 30
0.0
 10
136.075208
 20
206.571312
 30
0.0
 10
136.075208
 20
206.350389
 30
0.0
  0
SPLINE
  5
2b5
100
AcDbEntity
  8
Layer_1
 62
7
100
AcDbSpline
 70
8
 71
3
 72
8
 73
4
 74
0
 40
0
 40
0
 40
0
 40
0
 40
1
 40
1
 40
1
 40
1
 10
136.075208
 20
206.350389
 30
0.0
 10
136.075208
 20
205.675031
 30
0.0
 10
136.458619
 20
205.915580
 30
0.0
 10
137.363398
 20
207.159023
 30
0.0
  0
SPLINE
  5
2b6
100
AcDbEntity
  8
Layer_1
 62
7
100
AcDbSpline
 70
8
 71
3
 72
8
 73
4
 74
0
 40
0
 40
0
 40
0
 40
0
 40
1
 40
1
 40
1
 40
1
 10
137.363398
 20
207.159023
 30
0.0
 10
137.839004
 20
207.812678
 30
0.0
 10
138.518883
 20
208.745945
 30
0.0
 10
138.874280
 20
209.232693
 30
0.0
  0
SPLINE
  5
2b7
100
AcDbEntity
  8
Layer_1
 62
7
100
AcDbSpline
 70
8
 71
3
 72
8
 73
4
 74
0
 40
0
 40
0
 40
0
 40
0
 40
1
 40
1
 40
1
 40
1
 10
138.874280
 20
209.232693
 30
0.0
 10
139.635103
 20
210.274686
 30
0.0
 10
139.532154
 20
210.748066
 30
0.0
 10
138.222742
 20
212.227446
 30
0.0
  0
LWPOLYLINE
  5
2b8
100
AcDbEntity
  8
Layer_1
 62
7
100
AcDbPolyline
 90
2
 70
0
 10
137.286230
 20
213.285780
 30
0.0
 10
135.975437
 20
211.314082
 30
0.0
  0
SPLINE
  5
2b9
100
AcDbEntity
  8
Layer_1
 62
7
100
AcDbSpline
 70
8
 71
3
 72
8
 73
4
 74
0
 40
0
 40
0
 40
0
 40
0
 40
1
 40
1
 40
1
 40
1
 10
56.643984
 20
211.283766
 30
0.0
 10
56.418740
 20
211.288905
 30
0.0
 10
55.902857
 20
211.145262
 30
0.0
 10
55.405404
 20
210.932642
 30
0.0
  0
SPLINE
  5
2ba
100
AcDbEntity
  8
Layer_1
 62
7
100
AcDbSpline
 70
8
 71
3
 72
8
 73
4
 74
0
 40
0
 40
0
 40
0
 40
0
 40
1
 40
1
 40
1
 40
1
 10
55.405404
 20
210.932642
 30
0.0
 10
54.836884
 20
210.689677
 30
0.0
 10
54.143258
 20
210.453448
 30
0.0
 10
53.863655
 20
210.407333
 30
0.0
  0
SPLINE
  5
2bb
100
AcDbEntity
  8
Layer_1
 62
7
100
AcDbSpline
 70
8
 71
3
 72
8
 73
4
 74
0
 40
0
 40
0
 40
0
 40
0
 40
1
 40
1
 40
1
 40
1
 10
53.863655
 20
210.407333
 30
0.0
 10
53.441456
 20
210.337681
 30
0.0
 10
53.608893
 20
209.975319
 30
0.0
 10
54.851433
 20
208.270273
 30
0.0
  0
SPLINE
  5
2bc
100
AcDbEntity
  8
Layer_1
 62
7
100
AcDbSpline
 70
8
 71
3
 72
8
 73
4
 74
0
 40
0
 40
0
 40
0
 40
0
 40
1
 40
1
 40
1
 40
1
 10
54.851433
 20
208.270273
 30
0.0
 10
56.500514
 20
206.007387
 30
0.0
 10
56.696009
 20
205.943018
 30
0.0
 10
59.116736
 20
206.862470
 30
0.0
  0
LWPOLYLINE
  5
2bd
100
AcDbEntity
  8
Layer_1
 62
7
100
AcDbPolyline
 90
3
 70
0
 10
138.222742
 20
212.227446
 30
0.0
 10
137.286230
 20
213.285780
 30
0.0
 10
137.286230
 20
213.285780
 30
0.0
  0
SPLINE
  5
2be
100
AcDbEntity
  8
Layer_1
 62
7
100
AcDbSpline
 70
8
 71
3
 72
8
 73
4
 74
0
 40
0
 40
0
 40
0
 40
0
 40
1
 40
1
 40
1
 40
1
 10
58.598593
 20
209.220569
 30
0.0
 10
57.721935
 20
210.292788
 30
0.0
 10
56.877102
 20
211.215945
 30
0.0
 10
56.721705
 20
211.272192
 30
0.0
  0
SPLINE
  5
2bf
100
AcDbEntity
  8
Layer_1
 62
7
100
AcDbSpline
 70
8
 71
3
 72
8
 73
4
 74
0
 40
0
 40
0
 40
0
 40
0
 40
1
 40
1
 40
1
 40
1
 10
56.721705
 20
211.272192
 30
0.0
 10
56.702283
 20
211.279225
 30
0.0
 10
56.676163
 20
211.283032
 30
0.0
 10
56.643984
 20
211.283766
 30
0.0
  0
LWPOLYLINE
  5
2c0
100
AcDbEntity
  8
Layer_1
 62
7
100
AcDbPolyline
 90
3
 70
0
 10
59.116736
 20
206.862470
 30
0.0
 10
60.192158
 20
207.270919
 30
0.0
 10
58.598593
 20
209.220569
 30
0.0
  0
LWPOLYLINE
  5
2c1
100
AcDbEntity
  8
Layer_1
 62
7
100
AcDbPolyline
 90
2
 70
0
 10
56.643984
 20
211.283766
 30
0.0
 10
56.643984
 20
211.283766
 30
0.0
  0
SPLINE
  5
2c2
100
AcDbEntity
  8
Layer_1
 62
7
100
AcDbSpline
 70
8
 71
3
 72
8
 73
4
 74
0
 40
0
 40
0
 40
0
 40
0
 40
1
 40
1
 40
1
 40
1
 10
131.876602
 20
206.407166
 30
0.0
 10
130.926126
 20
205.448147
 30
0.0
 10
130.149617
 20
204.413210
 30
0.0
 10
130.150746
 20
204.106942
 30
0.0
  0
SPLINE
  5
2c3
100
AcDbEntity
  8
Layer_1
 62
7
100
AcDbSpline
 70
8
 71
3
 72
8
 73
4
 74
0
 40
0
 40
0
 40
0
 40
0
 40
1
 40
1
 40
1
 40
1
 10
130.150746
 20
204.106942
 30
0.0
 10
130.151767
 20
203.800677
 30
0.0
 10
130.404588
 20
203.168666
 30
0.0
 10
130.712986
 20
202.703000
 30
0.0
  0
SPLINE
  5
2c4
100
AcDbEntity
  8
Layer_1
 62
7
100
AcDbSpline
 70
8
 71
3
 72
8
 73
4
 74
0
 40
0
 40
0
 40
0
 40
0
 40
1
 40
1
 40
1
 40
1
 10
130.712986
 20
202.703000
 30
0.0
 10
131.021384
 20
202.237333
 30
0.0
 10
131.274648
 20
201.603733
 30
0.0
 10
131.275777
 20
201.294643
 30
0.0
  0
SPLINE
  5
2c5
100
AcDbEntity
  8
Layer_1
 62
7
100
AcDbSpline
 70
8
 71
3
 72
8
 73
4
 74
0
 40
0
 40
0
 40
0
 40
0
 40
1
 40
1
 40
1
 40
1
 10
131.275777
 20
201.294643
 30
0.0
 10
131.277188
 20
200.868600
 30
0.0
 10
131.768822
 20
201.223797
 30
0.0
 10
133.307557
 20
202.762529
 30
0.0
  0
LWPOLYLINE
  5
2c6
100
AcDbEntity
  8
Layer_1
 62
7
100
AcDbPolyline
 90
2
 70
0
 10
133.604660
 20
208.150659
 30
0.0
 10
131.876602
 20
206.407166
 30
0.0
  0
SPLINE
  5
2c7
100
AcDbEntity
  8
Layer_1
 62
7
100
AcDbSpline
 70
8
 71
3
 72
8
 73
4
 74
0
 40
0
 40
0
 40
0
 40
0
 40
1
 40
1
 40
1
 40
1
 10
60.666201
 20
206.225816
 30
0.0
 10
60.402778
 20
206.228751
 30
0.0
 10
59.607255
 20
205.922227
 30
0.0
 10
58.897904
 20
205.545065
 30
0.0
  0
LWPOLYLINE
  5
2c8
100
AcDbEntity
  8
Layer_1
 62
7
100
AcDbPolyline
 90
5
 70
0
 10
133.307557
 20
202.762529
 30
0.0
 10
135.337132
 20
204.792104
 30
0.0
 10
134.471173
 20
206.471657
 30
0.0
 10
133.604660
 20
208.150659
 30
0.0
 10
133.604660
 20
208.150659
 30
0.0
  0
SPLINE
  5
2c9
100
AcDbEntity
  8
Layer_1
 62
7
100
AcDbSpline
 70
8
 71
3
 72
8
 73
4
 74
0
 40
0
 40
0
 40
0
 40
0
 40
1
 40
1
 40
1
 40
1
 10
59.381870
 20
203.005065
 30
0.0
 10
60.357543
 20
201.985227
 30
0.0
 10
61.261602
 20
201.150777
 30
0.0
 10
61.391049
 20
201.150777
 30
0.0
  0
SPLINE
  5
2ca
100
AcDbEntity
  8
Layer_1
 62
7
100
AcDbSpline
 70
8
 71
3
 72
8
 73
4
 74
0
 40
0
 40
0
 40
0
 40
0
 40
1
 40
1
 40
1
 40
1
 10
61.391049
 20
201.150777
 30
0.0
 10
61.520496
 20
201.150777
 30
0.0
 10
62.280436
 20
201.500027
 30
0.0
 10
63.079424
 20
201.926888
 30
0.0
  0
SPLINE
  5
2cb
100
AcDbEntity
  8
Layer_1
 62
7
100
AcDbSpline
 70
8
 71
3
 72
8
 73
4
 74
0
 40
0
 40
0
 40
0
 40
0
 40
1
 40
1
 40
1
 40
1
 10
63.079424
 20
201.926888
 30
0.0
 10
63.878412
 20
202.353750
 30
0.0
 10
64.568538
 20
202.718279
 30
0.0
 10
64.612904
 20
202.736623
 30
0.0
  0
SPLINE
  5
2cc
100
AcDbEntity
  8
Layer_1
 62
7
100
AcDbSpline
 70
8
 71
3
 72
8
 73
4
 74
0
 40
0
 40
0
 40
0
 40
0
 40
1
 40
1
 40
1
 40
1
 10
64.612904
 20
202.736623
 30
0.0
 10
64.876409
 20
202.846464
 30
0.0
 10
61.058910
 20
206.221582
 30
0.0
 10
60.666201
 20
206.225816
 30
0.0
  0
LWPOLYLINE
  5
2cd
100
AcDbEntity
  8
Layer_1
 62
7
100
AcDbPolyline
 90
3
 70
0
 10
58.897904
 20
205.545065
 30
0.0
 10
57.608061
 20
204.859352
 30
0.0
 10
59.381870
 20
203.005065
 30
0.0
  0
LWPOLYLINE
  5
2ce
100
AcDbEntity
  8
Layer_1
 62
7
100
AcDbPolyline
 90
2
 70
0
 10
60.666201
 20
206.225816
 30
0.0
 10
60.666201
 20
206.225816
 30
0.0
  0
SPLINE
  5
2cf
100
AcDbEntity
  8
Layer_1
 62
7
100
AcDbSpline
 70
8
 71
3
 72
8
 73
4
 74
0
 40
0
 40
0
 40
0
 40
0
 40
1
 40
1
 40
1
 40
1
 10
127.095360
 20
201.982560
 30
0.0
 10
125.980800
 20
201.044368
 30
0.0
 10
125.072961
 20
200.124623
 30
0.0
 10
125.078465
 20
199.938102
 30
0.0
  0
SPLINE
  5
2d0
100
AcDbEntity
  8
Layer_1
 62
7
100
AcDbSpline
 70
8
 71
3
 72
8
 73
4
 74
0
 40
0
 40
0
 40
0
 40
0
 40
1
 40
1
 40
1
 40
1
 10
125.078465
 20
199.938102
 30
0.0
 10
125.083962
 20
199.751582
 30
0.0
 10
125.270043
 20
199.281055
 30
0.0
 10
125.491875
 20
198.893000
 30
0.0
  0
SPLINE
  5
2d1
100
AcDbEntity
  8
Layer_1
 62
7
100
AcDbSpline
 70
8
 71
3
 72
8
 73
4
 74
0
 40
0
 40
0
 40
0
 40
0
 40
1
 40
1
 40
1
 40
1
 10
125.491875
 20
198.893000
 30
0.0
 10
125.713707
 20
198.504944
 30
0.0
 10
125.899782
 20
197.901694
 30
0.0
 10
125.905285
 20
197.552444
 30
0.0
  0
SPLINE
  5
2d2
100
AcDbEntity
  8
Layer_1
 62
7
100
AcDbSpline
 70
8
 71
3
 72
8
 73
4
 74
0
 40
0
 40
0
 40
0
 40
0
 40
1
 40
1
 40
1
 40
1
 10
125.905285
 20
197.552444
 30
0.0
 10
125.910786
 20
197.203194
 30
0.0
 10
125.988414
 20
196.917444
 30
0.0
 10
126.077816
 20
196.917444
 30
0.0
  0
SPLINE
  5
2d3
100
AcDbEntity
  8
Layer_1
 62
7
100
AcDbSpline
 70
8
 71
3
 72
8
 73
4
 74
0
 40
0
 40
0
 40
0
 40
0
 40
1
 40
1
 40
1
 40
1
 10
126.077816
 20
196.917444
 30
0.0
 10
126.314880
 20
196.917444
 30
0.0
 10
129.666114
 20
199.473181
 30
0.0
 10
130.059797
 20
199.954087
 30
0.0
  0
SPLINE
  5
2d4
100
AcDbEntity
  8
Layer_1
 62
7
100
AcDbSpline
 70
8
 71
3
 72
8
 73
4
 74
0
 40
0
 40
0
 40
0
 40
0
 40
1
 40
1
 40
1
 40
1
 10
130.059797
 20
199.954087
 30
0.0
 10
130.306053
 20
200.254908
 30
0.0
 10
130.314728
 20
200.559891
 30
0.0
 10
130.091767
 20
201.109435
 30
0.0
  0
SPLINE
  5
2d5
100
AcDbEntity
  8
Layer_1
 62
7
100
AcDbSpline
 70
8
 71
3
 72
8
 73
4
 74
0
 40
0
 40
0
 40
0
 40
0
 40
1
 40
1
 40
1
 40
1
 10
130.091767
 20
201.109435
 30
0.0
 10
129.925101
 20
201.520237
 30
0.0
 10
129.638549
 20
202.268657
 30
0.0
 10
129.455113
 20
202.772452
 30
0.0
  0
LWPOLYLINE
  5
2d6
100
AcDbEntity
  8
Layer_1
 62
7
100
AcDbPolyline
 90
2
 70
0
 10
129.121628
 20
203.688570
 30
0.0
 10
127.095360
 20
201.982560
 30
0.0
  0
SPLINE
  5
2d7
100
AcDbEntity
  8
Layer_1
 62
7
100
AcDbSpline
 70
8
 71
3
 72
8
 73
4
 74
0
 40
0
 40
0
 40
0
 40
0
 40
1
 40
1
 40
1
 40
1
 10
65.406654
 20
201.997444
 30
0.0
 10
65.201168
 20
201.997444
 30
0.0
 10
64.553397
 20
201.616444
 30
0.0
 10
63.967431
 20
201.150777
 30
0.0
  0
SPLINE
  5
2d8
100
AcDbEntity
  8
Layer_1
 62
7
100
AcDbSpline
 70
8
 71
3
 72
8
 73
4
 74
0
 40
0
 40
0
 40
0
 40
0
 40
1
 40
1
 40
1
 40
1
 10
63.967431
 20
201.150777
 30
0.0
 10
63.381464
 20
200.685111
 30
0.0
 10
62.771782
 20
200.304111
 30
0.0
 10
62.612544
 20
200.304111
 30
0.0
  0
SPLINE
  5
2d9
100
AcDbEntity
  8
Layer_1
 62
7
100
AcDbSpline
 70
8
 71
3
 72
8
 73
4
 74
0
 40
0
 40
0
 40
0
 40
0
 40
1
 40
1
 40
1
 40
1
 10
62.612544
 20
200.304111
 30
0.0
 10
62.453306
 20
200.304111
 30
0.0
 10
63.201347
 20
199.611159
 30
0.0
 10
64.274457
 20
198.764013
 30
0.0
  0
SPLINE
  5
2da
100
AcDbEntity
  8
Layer_1
 62
7
100
AcDbSpline
 70
8
 71
3
 72
8
 73
4
 74
0
 40
0
 40
0
 40
0
 40
0
 40
1
 40
1
 40
1
 40
1
 10
64.274457
 20
198.764013
 30
0.0
 10
65.347565
 20
197.916866
 30
0.0
 10
66.467400
 20
197.218282
 30
0.0
 10
66.763194
 20
197.211790
 30
0.0
  0
SPLINE
  5
2db
100
AcDbEntity
  8
Layer_1
 62
7
100
AcDbSpline
 70
8
 71
3
 72
8
 73
4
 74
0
 40
0
 40
0
 40
0
 40
0
 40
1
 40
1
 40
1
 40
1
 10
66.763194
 20
197.211790
 30
0.0
 10
67.058986
 20
197.205215
 30
0.0
 10
67.752169
 20
197.548916
 30
0.0
 10
68.303840
 20
197.975777
 30
0.0
  0
SPLINE
  5
2dc
100
AcDbEntity
  8
Layer_1
 62
7
100
AcDbSpline
 70
8
 71
3
 72
8
 73
4
 74
0
 40
0
 40
0
 40
0
 40
0
 40
1
 40
1
 40
1
 40
1
 10
68.303840
 20
197.975777
 30
0.0
 10
68.855514
 20
198.402638
 30
0.0
 10
69.462715
 20
198.815388
 30
0.0
 10
69.653215
 20
198.893000
 30
0.0
  0
SPLINE
  5
2dd
100
AcDbEntity
  8
Layer_1
 62
7
100
AcDbSpline
 70
8
 71
3
 72
8
 73
4
 74
0
 40
0
 40
0
 40
0
 40
0
 40
1
 40
1
 40
1
 40
1
 10
69.653215
 20
198.893000
 30
0.0
 10
70.036188
 20
199.049040
 30
0.0
 10
66.003066
 20
201.997444
 30
0.0
 10
65.406654
 20
201.997444
 30
0.0
  0
LWPOLYLINE
  5
2de
100
AcDbEntity
  8
Layer_1
 62
7
100
AcDbPolyline
 90
3
 70
0
 10
129.455113
 20
202.772452
 30
0.0
 10
129.121628
 20
203.688570
 30
0.0
 10
129.121628
 20
203.688570
 30
0.0
  0
LWPOLYLINE
  5
2df
100
AcDbEntity
  8
Layer_1
 62
7
100
AcDbPolyline
 90
2
 70
0
 10
65.406654
 20
201.997444
 30
0.0
 10
65.406654
 20
201.997444
 30
0.0
  0
SPLINE
  5
2e0
100
AcDbEntity
  8
Layer_1
 62
7
100
AcDbSpline
 70
8
 71
3
 72
8
 73
4
 74
0
 40
0
 40
0
 40
0
 40
0
 40
1
 40
1
 40
1
 40
1
 10
119.852392
 20
195.826587
 30
0.0
 10
119.967539
 20
195.262397
 30
0.0
 10
120.077346
 20
194.451527
 30
0.0
 10
120.096029
 20
194.024666
 30
0.0
  0
SPLINE
  5
2e1
100
AcDbEntity
  8
Layer_1
 62
7
100
AcDbSpline
 70
8
 71
3
 72
8
 73
4
 74
0
 40
0
 40
0
 40
0
 40
0
 40
1
 40
1
 40
1
 40
1
 10
120.096029
 20
194.024666
 30
0.0
 10
120.114703
 20
193.597805
 30
0.0
 10
120.195840
 20
193.280305
 30
0.0
 10
120.276826
 20
193.319111
 30
0.0
  0
SPLINE
  5
2e2
100
AcDbEntity
  8
Layer_1
 62
7
100
AcDbSpline
 70
8
 71
3
 72
8
 73
4
 74
0
 40
0
 40
0
 40
0
 40
0
 40
1
 40
1
 40
1
 40
1
 10
120.276826
 20
193.319111
 30
0.0
 10
120.357810
 20
193.357916
 30
0.0
 10
121.405557
 20
193.938394
 30
0.0
 10
122.605159
 20
194.608954
 30
0.0
  0
SPLINE
  5
2e3
100
AcDbEntity
  8
Layer_1
 62
7
100
AcDbSpline
 70
8
 71
3
 72
8
 73
4
 74
0
 40
0
 40
0
 40
0
 40
0
 40
1
 40
1
 40
1
 40
1
 10
122.605159
 20
194.608954
 30
0.0
 10
125.004209
 20
195.949989
 30
0.0
 10
125.036306
 20
196.017322
 30
0.0
 10
124.412595
 20
198.380368
 30
0.0
  0
LWPOLYLINE
  5
2e4
100
AcDbEntity
  8
Layer_1
 62
7
100
AcDbPolyline
 90
4
 70
0
 10
124.064228
 20
199.701631
 30
0.0
 10
121.853302
 20
198.276739
 30
0.0
 10
119.642930
 20
196.852400
 30
0.0
 10
119.852392
 20
195.826587
 30
0.0
  0
SPLINE
  5
2e5
100
AcDbEntity
  8
Layer_1
 62
7
100
AcDbSpline
 70
8
 71
3
 72
8
 73
4
 74
0
 40
0
 40
0
 40
0
 40
0
 40
1
 40
1
 40
1
 40
1
 10
70.764465
 20
198.328555
 30
0.0
 10
70.692848
 20
198.328555
 30
0.0
 10
70.051676
 20
197.824249
 30
0.0
 10
69.339576
 20
197.207932
 30
0.0
  0
LWPOLYLINE
  5
2e6
100
AcDbEntity
  8
Layer_1
 62
7
100
AcDbPolyline
 90
3
 70
0
 10
124.412595
 20
198.380368
 30
0.0
 10
124.064228
 20
199.701631
 30
0.0
 10
124.064228
 20
199.701631
 30
0.0
  0
SPLINE
  5
2e7
100
AcDbEntity
  8
Layer_1
 62
7
100
AcDbSpline
 70
8
 71
3
 72
8
 73
4
 74
0
 40
0
 40
0
 40
0
 40
0
 40
1
 40
1
 40
1
 40
1
 10
69.110270
 20
195.428059
 30
0.0
 10
69.696513
 20
195.065347
 30
0.0
 10
70.620819
 20
194.500434
 30
0.0
 10
71.164097
 20
194.172943
 30
0.0
  0
SPLINE
  5
2e8
100
AcDbEntity
  8
Layer_1
 62
7
100
AcDbSpline
 70
8
 71
3
 72
8
 73
4
 74
0
 40
0
 40
0
 40
0
 40
0
 40
1
 40
1
 40
1
 40
1
 10
71.164097
 20
194.172943
 30
0.0
 10
71.707375
 20
193.845452
 30
0.0
 10
72.318124
 20
193.567461
 30
0.0
 10
72.521188
 20
193.554478
 30
0.0
  0
SPLINE
  5
2e9
100
AcDbEntity
  8
Layer_1
 62
7
100
AcDbSpline
 70
8
 71
3
 72
8
 73
4
 74
0
 40
0
 40
0
 40
0
 40
0
 40
1
 40
1
 40
1
 40
1
 10
72.521188
 20
193.554478
 30
0.0
 10
72.724250
 20
193.541609
 30
0.0
 10
73.479959
 20
194.088355
 30
0.0
 10
74.200743
 20
194.769357
 30
0.0
  0
LWPOLYLINE
  5
2ea
100
AcDbEntity
  8
Layer_1
 62
7
100
AcDbPolyline
 90
3
 70
0
 10
69.339576
 20
197.207932
 30
0.0
 10
68.044771
 20
196.087863
 30
0.0
 10
69.110270
 20
195.428059
 30
0.0
  0
SPLINE
  5
2eb
100
AcDbEntity
  8
Layer_1
 62
7
100
AcDbSpline
 70
8
 71
3
 72
8
 73
4
 74
0
 40
0
 40
0
 40
0
 40
0
 40
1
 40
1
 40
1
 40
1
 10
73.203043
 20
197.168246
 30
0.0
 10
71.933390
 20
197.806633
 30
0.0
 10
70.836079
 20
198.328555
 30
0.0
 10
70.764465
 20
198.328555
 30
0.0
  0
LWPOLYLINE
  5
2ec
100
AcDbEntity
  8
Layer_1
 62
7
100
AcDbPolyline
 90
3
 70
0
 10
74.200743
 20
194.769357
 30
0.0
 10
75.511533
 20
196.007387
 30
0.0
 10
73.203043
 20
197.168246
 30
0.0
  0
SPLINE
  5
2ed
100
AcDbEntity
  8
Layer_1
 62
7
100
AcDbSpline
 70
8
 71
3
 72
8
 73
4
 74
0
 40
0
 40
0
 40
0
 40
0
 40
1
 40
1
 40
1
 40
1
 10
118.475455
 20
196.248267
 30
0.0
 10
118.462795
 20
196.250217
 30
0.0
 10
118.449697
 20
196.249057
 30
0.0
 10
118.436319
 20
196.243859
 30
0.0
  0
SPLINE
  5
2ee
100
AcDbEntity
  8
Layer_1
 62
7
100
AcDbSpline
 70
8
 71
3
 72
8
 73
4
 74
0
 40
0
 40
0
 40
0
 40
0
 40
1
 40
1
 40
1
 40
1
 10
118.436319
 20
196.243859
 30
0.0
 10
115.537739
 20
195.117425
 30
0.0
 10
114.155779
 20
194.533493
 30
0.0
 10
113.947222
 20
194.347678
 30
0.0
  0
SPLINE
  5
2ef
100
AcDbEntity
  8
Layer_1
 62
7
100
AcDbSpline
 70
8
 71
3
 72
8
 73
4
 74
0
 40
0
 40
0
 40
0
 40
0
 40
1
 40
1
 40
1
 40
1
 10
113.947222
 20
194.347678
 30
0.0
 10
113.806433
 20
194.222258
 30
0.0
 10
113.679422
 20
193.350974
 30
0.0
 10
113.665000
 20
192.411258
 30
0.0
  0
SPLINE
  5
2f0
100
AcDbEntity
  8
Layer_1
 62
7
100
AcDbSpline
 70
8
 71
3
 72
8
 73
4
 74
0
 40
0
 40
0
 40
0
 40
0
 40
1
 40
1
 40
1
 40
1
 10
113.665000
 20
192.411258
 30
0.0
 10
113.649181
 20
191.381232
 30
0.0
 10
113.750626
 20
190.743508
 30
0.0
 10
113.920764
 20
190.805569
 30
0.0
  0
SPLINE
  5
2f1
100
AcDbEntity
  8
Layer_1
 62
7
100
AcDbSpline
 70
8
 71
3
 72
8
 73
4
 74
0
 40
0
 40
0
 40
0
 40
0
 40
1
 40
1
 40
1
 40
1
 10
113.920764
 20
190.805569
 30
0.0
 10
114.075986
 20
190.862183
 30
0.0
 10
115.091986
 20
191.198092
 30
0.0
 10
116.178542
 20
191.551914
 30
0.0
  0
SPLINE
  5
2f2
100
AcDbEntity
  8
Layer_1
 62
7
100
AcDbSpline
 70
8
 71
3
 72
8
 73
4
 74
0
 40
0
 40
0
 40
0
 40
0
 40
1
 40
1
 40
1
 40
1
 10
116.178542
 20
191.551914
 30
0.0
 10
117.265097
 20
191.905736
 30
0.0
 10
118.310341
 20
192.318613
 30
0.0
 10
118.501363
 20
192.469687
 30
0.0
  0
SPLINE
  5
2f3
100
AcDbEntity
  8
Layer_1
 62
7
100
AcDbSpline
 70
8
 71
3
 72
8
 73
4
 74
0
 40
0
 40
0
 40
0
 40
0
 40
1
 40
1
 40
1
 40
1
 10
118.501363
 20
192.469687
 30
0.0
 10
118.913247
 20
192.795447
 30
0.0
 10
118.867908
 20
196.187806
 30
0.0
 10
118.475455
 20
196.248267
 30
0.0
  0
LWPOLYLINE
  5
2f4
100
AcDbEntity
  8
Layer_1
 62
7
100
AcDbPolyline
 90
2
 70
0
 10
70.764465
 20
198.328555
 30
0.0
 10
70.764465
 20
198.328555
 30
0.0
  0
SPLINE
  5
2f5
100
AcDbEntity
  8
Layer_1
 62
7
100
AcDbSpline
 70
8
 71
3
 72
8
 73
4
 74
0
 40
0
 40
0
 40
0
 40
0
 40
1
 40
1
 40
1
 40
1
 10
106.047204
 20
196.055343
 30
0.0
 10
104.644097
 20
196.058941
 30
0.0
 10
103.083064
 20
195.730352
 30
0.0
 10
101.731741
 20
195.069219
 30
0.0
  0
SPLINE
  5
2f6
100
AcDbEntity
  8
Layer_1
 62
7
100
AcDbSpline
 70
8
 71
3
 72
8
 73
4
 74
0
 40
0
 40
0
 40
0
 40
0
 40
1
 40
1
 40
1
 40
1
 10
101.731741
 20
195.069219
 30
0.0
 10
100.907421
 20
194.665923
 30
0.0
 10
100.232986
 20
194.155217
 30
0.0
 10
100.232986
 20
193.934265
 30
0.0
  0
SPLINE
  5
2f7
100
AcDbEntity
  8
Layer_1
 62
7
100
AcDbSpline
 70
8
 71
3
 72
8
 73
4
 74
0
 40
0
 40
0
 40
0
 40
0
 40
1
 40
1
 40
1
 40
1
 10
100.232986
 20
193.934265
 30
0.0
 10
100.232986
 20
193.713285
 30
0.0
 10
100.692498
 20
193.024330
 30
0.0
 10
101.253838
 20
192.402989
 30
0.0
  0
SPLINE
  5
2f8
100
AcDbEntity
  8
Layer_1
 62
7
100
AcDbSpline
 70
8
 71
3
 72
8
 73
4
 74
0
 40
0
 40
0
 40
0
 40
0
 40
1
 40
1
 40
1
 40
1
 10
101.253838
 20
192.402989
 30
0.0
 10
101.815178
 20
191.781649
 30
0.0
 10
102.317395
 20
191.273000
 30
0.0
 10
102.370049
 20
191.273000
 30
0.0
  0
SPLINE
  5
2f9
100
AcDbEntity
  8
Layer_1
 62
7
100
AcDbSpline
 70
8
 71
3
 72
8
 73
4
 74
0
 40
0
 40
0
 40
0
 40
0
 40
1
 40
1
 40
1
 40
1
 10
102.370049
 20
191.273000
 30
0.0
 10
102.422706
 20
191.273000
 30
0.0
 10
102.933717
 20
191.590500
 30
0.0
 10
103.505550
 20
191.978555
 30
0.0
  0
SPLINE
  5
2fa
100
AcDbEntity
  8
Layer_1
 62
7
100
AcDbSpline
 70
8
 71
3
 72
8
 73
4
 74
0
 40
0
 40
0
 40
0
 40
0
 40
1
 40
1
 40
1
 40
1
 10
103.505550
 20
191.978555
 30
0.0
 10
104.090476
 20
192.375501
 30
0.0
 10
104.948996
 20
192.684111
 30
0.0
 10
105.468428
 20
192.684111
 30
0.0
  0
SPLINE
  5
2fb
100
AcDbEntity
  8
Layer_1
 62
7
100
AcDbSpline
 70
8
 71
3
 72
8
 73
4
 74
0
 40
0
 40
0
 40
0
 40
0
 40
1
 40
1
 40
1
 40
1
 10
105.468428
 20
192.684111
 30
0.0
 10
106.350167
 20
192.684111
 30
0.0
 10
109.414225
 20
193.670534
 30
0.0
 10
109.935478
 20
194.122230
 30
0.0
  0
SPLINE
  5
2fc
100
AcDbEntity
  8
Layer_1
 62
7
100
AcDbSpline
 70
8
 71
3
 72
8
 73
4
 74
0
 40
0
 40
0
 40
0
 40
0
 40
1
 40
1
 40
1
 40
1
 10
109.935478
 20
194.122230
 30
0.0
 10
110.071854
 20
194.240397
 30
0.0
 10
109.837389
 20
194.658060
 30
0.0
 10
109.414578
 20
195.049926
 30
0.0
  0
SPLINE
  5
2fd
100
AcDbEntity
  8
Layer_1
 62
7
100
AcDbSpline
 70
8
 71
3
 72
8
 73
4
 74
0
 40
0
 40
0
 40
0
 40
0
 40
1
 40
1
 40
1
 40
1
 10
109.414578
 20
195.049926
 30
0.0
 10
108.695490
 20
195.716422
 30
0.0
 10
107.450311
 20
196.051744
 30
0.0
 10
106.047204
 20
196.055343
 30
0.0
  0
LWPOLYLINE
  5
2fe
100
AcDbEntity
  8
Layer_1
 62
7
100
AcDbPolyline
 90
2
 70
0
 10
118.475455
 20
196.248267
 30
0.0
 10
118.475455
 20
196.248267
 30
0.0
  0
SPLINE
  5
2ff
100
AcDbEntity
  8
Layer_1
 62
7
100
AcDbSpline
 70
8
 71
3
 72
8
 73
4
 74
0
 40
0
 40
0
 40
0
 40
0
 40
1
 40
1
 40
1
 40
1
 10
91.584969
 20
195.506333
 30
0.0
 10
90.265120
 20
195.506333
 30
0.0
 10
90.162312
 20
195.449680
 30
0.0
 10
89.423105
 20
194.309643
 30
0.0
  0
SPLINE
  5
300
100
AcDbEntity
  8
Layer_1
 62
7
100
AcDbSpline
 70
8
 71
3
 72
8
 73
4
 74
0
 40
0
 40
0
 40
0
 40
0
 40
1
 40
1
 40
1
 40
1
 10
89.423105
 20
194.309643
 30
0.0
 10
88.267520
 20
192.527466
 30
0.0
 10
88.433086
 20
192.295350
 30
0.0
 10
91.030448
 20
192.059581
 30
0.0
  0
SPLINE
  5
301
100
AcDbEntity
  8
Layer_1
 62
7
100
AcDbSpline
 70
8
 71
3
 72
8
 73
4
 74
0
 40
0
 40
0
 40
0
 40
0
 40
1
 40
1
 40
1
 40
1
 10
91.030448
 20
192.059581
 30
0.0
 10
92.251874
 20
191.948727
 30
0.0
 10
93.319721
 20
191.789974
 30
0.0
 10
93.402878
 20
191.706803
 30
0.0
  0
SPLINE
  5
302
100
AcDbEntity
  8
Layer_1
 62
7
100
AcDbSpline
 70
8
 71
3
 72
8
 73
4
 74
0
 40
0
 40
0
 40
0
 40
0
 40
1
 40
1
 40
1
 40
1
 10
93.402878
 20
191.706803
 30
0.0
 10
93.869854
 20
191.239841
 30
0.0
 10
95.810273
 20
191.917223
 30
0.0
 10
96.546458
 20
192.804275
 30
0.0
  0
SPLINE
  5
303
100
AcDbEntity
  8
Layer_1
 62
7
100
AcDbSpline
 70
8
 71
3
 72
8
 73
4
 74
0
 40
0
 40
0
 40
0
 40
0
 40
1
 40
1
 40
1
 40
1
 10
96.546458
 20
192.804275
 30
0.0
 10
96.854922
 20
193.175962
 30
0.0
 10
96.779805
 20
193.366959
 30
0.0
 10
96.058632
 20
194.040651
 30
0.0
  0
SPLINE
  5
304
100
AcDbEntity
  8
Layer_1
 62
7
100
AcDbSpline
 70
8
 71
3
 72
8
 73
4
 74
0
 40
0
 40
0
 40
0
 40
0
 40
1
 40
1
 40
1
 40
1
 10
96.058632
 20
194.040651
 30
0.0
 10
95.038675
 20
194.993433
 30
0.0
 10
93.472147
 20
195.506333
 30
0.0
 10
91.584969
 20
195.506333
 30
0.0
  0
LWPOLYLINE
  5
305
100
AcDbEntity
  8
Layer_1
 62
7
100
AcDbPolyline
 90
2
 70
0
 10
106.047204
 20
196.055343
 30
0.0
 10
106.047204
 20
196.055343
 30
0.0
  0
LWPOLYLINE
  5
306
100
AcDbEntity
  8
Layer_1
 62
7
100
AcDbPolyline
 90
2
 70
0
 10
91.584969
 20
195.506333
 30
0.0
 10
91.584969
 20
195.506333
 30
0.0
  0
SPLINE
  5
307
100
AcDbEntity
  8
Layer_1
 62
7
100
AcDbSpline
 70
8
 71
3
 72
8
 73
4
 74
0
 40
0
 40
0
 40
0
 40
0
 40
1
 40
1
 40
1
 40
1
 10
86.775617
 20
195.182218
 30
0.0
 10
85.194995
 20
194.757671
 30
0.0
 10
83.533237
 20
193.717021
 30
0.0
 10
82.356523
 20
192.414566
 30
0.0
  0
LWPOLYLINE
  5
308
100
AcDbEntity
  8
Layer_1
 62
7
100
AcDbPolyline
 90
2
 70
0
 10
87.852690
 20
195.471055
 30
0.0
 10
86.775617
 20
195.182218
 30
0.0
  0
SPLINE
  5
309
100
AcDbEntity
  8
Layer_1
 62
7
100
AcDbSpline
 70
8
 71
3
 72
8
 73
4
 74
0
 40
0
 40
0
 40
0
 40
0
 40
1
 40
1
 40
1
 40
1
 10
81.755700
 20
190.221832
 30
0.0
 10
81.995749
 20
189.647312
 30
0.0
 10
82.397696
 20
188.950254
 30
0.0
 10
82.648668
 20
188.672914
 30
0.0
  0
SPLINE
  5
30a
100
AcDbEntity
  8
Layer_1
 62
7
100
AcDbSpline
 70
8
 71
3
 72
8
 73
4
 74
0
 40
0
 40
0
 40
0
 40
0
 40
1
 40
1
 40
1
 40
1
 10
82.648668
 20
188.672914
 30
0.0
 10
82.899637
 20
188.395606
 30
0.0
 10
83.266681
 20
188.168555
 30
0.0
 10
83.464465
 20
188.168555
 30
0.0
  0
SPLINE
  5
30b
100
AcDbEntity
  8
Layer_1
 62
7
100
AcDbSpline
 70
8
 71
3
 72
8
 73
4
 74
0
 40
0
 40
0
 40
0
 40
0
 40
1
 40
1
 40
1
 40
1
 10
83.464465
 20
188.168555
 30
0.0
 10
83.662249
 20
188.168555
 30
0.0
 10
84.563512
 20
188.942025
 30
0.0
 10
85.467032
 20
189.887243
 30
0.0
  0
SPLINE
  5
30c
100
AcDbEntity
  8
Layer_1
 62
7
100
AcDbSpline
 70
8
 71
3
 72
8
 73
4
 74
0
 40
0
 40
0
 40
0
 40
0
 40
1
 40
1
 40
1
 40
1
 10
85.467032
 20
189.887243
 30
0.0
 10
86.664625
 20
191.140112
 30
0.0
 10
87.153569
 20
191.885772
 30
0.0
 10
87.271710
 20
192.638910
 30
0.0
  0
SPLINE
  5
30d
100
AcDbEntity
  8
Layer_1
 62
7
100
AcDbSpline
 70
8
 71
3
 72
8
 73
4
 74
0
 40
0
 40
0
 40
0
 40
0
 40
1
 40
1
 40
1
 40
1
 10
87.271710
 20
192.638910
 30
0.0
 10
87.360842
 20
193.207108
 30
0.0
 10
87.528129
 20
194.076680
 30
0.0
 10
87.643231
 20
194.571472
 30
0.0
  0
LWPOLYLINE
  5
30e
100
AcDbEntity
  8
Layer_1
 62
7
100
AcDbPolyline
 90
3
 70
0
 10
82.356523
 20
192.414566
 30
0.0
 10
81.319686
 20
191.266384
 30
0.0
 10
81.755700
 20
190.221832
 30
0.0
  0
SPLINE
  5
30f
100
AcDbEntity
  8
Layer_1
 62
7
100
AcDbSpline
 70
8
 71
3
 72
8
 73
4
 74
0
 40
0
 40
0
 40
0
 40
0
 40
1
 40
1
 40
1
 40
1
 10
76.515846
 20
195.225764
 30
0.0
 10
76.277078
 20
195.224946
 30
0.0
 10
75.616483
 20
194.667890
 30
0.0
 10
75.047960
 20
193.987735
 30
0.0
  0
LWPOLYLINE
  5
310
100
AcDbEntity
  8
Layer_1
 62
7
100
AcDbPolyline
 90
3
 70
0
 10
87.643231
 20
194.571472
 30
0.0
 10
87.852690
 20
195.471055
 30
0.0
 10
87.852690
 20
195.471055
 30
0.0
  0
SPLINE
  5
311
100
AcDbEntity
  8
Layer_1
 62
7
100
AcDbSpline
 70
8
 71
3
 72
8
 73
4
 74
0
 40
0
 40
0
 40
0
 40
0
 40
1
 40
1
 40
1
 40
1
 10
76.187323
 20
191.742081
 30
0.0
 10
77.382669
 20
191.187009
 30
0.0
 10
78.499716
 20
190.727170
 30
0.0
 10
78.669444
 20
190.720679
 30
0.0
  0
SPLINE
  5
312
100
AcDbEntity
  8
Layer_1
 62
7
100
AcDbSpline
 70
8
 71
3
 72
8
 73
4
 74
0
 40
0
 40
0
 40
0
 40
0
 40
1
 40
1
 40
1
 40
1
 10
78.669444
 20
190.720679
 30
0.0
 10
78.839176
 20
190.714132
 30
0.0
 10
79.502841
 20
191.330694
 30
0.0
 10
80.143945
 20
192.091001
 30
0.0
  0
LWPOLYLINE
  5
313
100
AcDbEntity
  8
Layer_1
 62
7
100
AcDbPolyline
 90
3
 70
0
 10
75.047960
 20
193.987735
 30
0.0
 10
74.013881
 20
192.750805
 30
0.0
 10
76.187323
 20
191.742081
 30
0.0
  0
SPLINE
  5
314
100
AcDbEntity
  8
Layer_1
 62
7
100
AcDbSpline
 70
8
 71
3
 72
8
 73
4
 74
0
 40
0
 40
0
 40
0
 40
0
 40
1
 40
1
 40
1
 40
1
 10
79.129709
 20
194.350432
 30
0.0
 10
77.930821
 20
194.832750
 30
0.0
 10
76.754615
 20
195.225764
 30
0.0
 10
76.515846
 20
195.225764
 30
0.0
  0
LWPOLYLINE
  5
315
100
AcDbEntity
  8
Layer_1
 62
7
100
AcDbPolyline
 90
3
 70
0
 10
80.143945
 20
192.091001
 30
0.0
 10
81.309216
 20
193.473449
 30
0.0
 10
79.129709
 20
194.350432
 30
0.0
  0
SPLINE
  5
316
100
AcDbEntity
  8
Layer_1
 62
7
100
AcDbSpline
 70
8
 71
3
 72
8
 73
4
 74
0
 40
0
 40
0
 40
0
 40
0
 40
1
 40
1
 40
1
 40
1
 10
112.566427
 20
194.095222
 30
0.0
 10
112.272476
 20
194.095222
 30
0.0
 10
106.881366
 20
191.803295
 30
0.0
 10
106.572513
 20
191.546953
 30
0.0
  0
SPLINE
  5
317
100
AcDbEntity
  8
Layer_1
 62
7
100
AcDbSpline
 70
8
 71
3
 72
8
 73
4
 74
0
 40
0
 40
0
 40
0
 40
0
 40
1
 40
1
 40
1
 40
1
 10
106.572513
 20
191.546953
 30
0.0
 10
106.374430
 20
191.382558
 30
0.0
 10
106.159749
 20
190.650098
 30
0.0
 10
106.095159
 20
189.919764
 30
0.0
  0
SPLINE
  5
318
100
AcDbEntity
  8
Layer_1
 62
7
100
AcDbSpline
 70
8
 71
3
 72
8
 73
4
 74
0
 40
0
 40
0
 40
0
 40
0
 40
1
 40
1
 40
1
 40
1
 10
106.095159
 20
189.919764
 30
0.0
 10
106.030570
 20
189.189429
 30
0.0
 10
105.870271
 20
188.349598
 30
0.0
 10
105.739077
 20
188.053349
 30
0.0
  0
SPLINE
  5
319
100
AcDbEntity
  8
Layer_1
 62
7
100
AcDbSpline
 70
8
 71
3
 72
8
 73
4
 74
0
 40
0
 40
0
 40
0
 40
0
 40
1
 40
1
 40
1
 40
1
 10
105.739077
 20
188.053349
 30
0.0
 10
105.523377
 20
187.566262
 30
0.0
 10
105.590571
 20
187.532965
 30
0.0
 10
106.439671
 20
187.702776
 30
0.0
  0
SPLINE
  5
31a
100
AcDbEntity
  8
Layer_1
 62
7
100
AcDbSpline
 70
8
 71
3
 72
8
 73
4
 74
0
 40
0
 40
0
 40
0
 40
0
 40
1
 40
1
 40
1
 40
1
 10
106.439671
 20
187.702776
 30
0.0
 10
107.594138
 20
187.933690
 30
0.0
 10
111.323337
 20
189.703596
 30
0.0
 10
111.927019
 20
190.307269
 30
0.0
  0
SPLINE
  5
31b
100
AcDbEntity
  8
Layer_1
 62
7
100
AcDbSpline
 70
8
 71
3
 72
8
 73
4
 74
0
 40
0
 40
0
 40
0
 40
0
 40
1
 40
1
 40
1
 40
1
 10
111.927019
 20
190.307269
 30
0.0
 10
112.246029
 20
190.626293
 30
0.0
 10
112.321317
 20
191.047067
 30
0.0
 10
112.197665
 20
191.820355
 30
0.0
  0
SPLINE
  5
31c
100
AcDbEntity
  8
Layer_1
 62
7
100
AcDbSpline
 70
8
 71
3
 72
8
 73
4
 74
0
 40
0
 40
0
 40
0
 40
0
 40
1
 40
1
 40
1
 40
1
 10
112.197665
 20
191.820355
 30
0.0
 10
112.100447
 20
192.428290
 30
0.0
 10
112.165802
 20
193.151550
 30
0.0
 10
112.348699
 20
193.493293
 30
0.0
  0
SPLINE
  5
31d
100
AcDbEntity
  8
Layer_1
 62
7
100
AcDbSpline
 70
8
 71
3
 72
8
 73
4
 74
0
 40
0
 40
0
 40
0
 40
0
 40
1
 40
1
 40
1
 40
1
 10
112.348699
 20
193.493293
 30
0.0
 10
112.525914
 20
193.824424
 30
0.0
 10
112.623829
 20
194.095222
 30
0.0
 10
112.566427
 20
194.095222
 30
0.0
  0
LWPOLYLINE
  5
31e
100
AcDbEntity
  8
Layer_1
 62
7
100
AcDbPolyline
 90
2
 70
0
 10
76.515846
 20
195.225764
 30
0.0
 10
76.515846
 20
195.225764
 30
0.0
  0
SPLINE
  5
31f
100
AcDbEntity
  8
Layer_1
 62
7
100
AcDbSpline
 70
8
 71
3
 72
8
 73
4
 74
0
 40
0
 40
0
 40
0
 40
0
 40
1
 40
1
 40
1
 40
1
 10
99.565466
 20
193.630546
 30
0.0
 10
99.429093
 20
193.657975
 30
0.0
 10
99.124547
 20
193.435527
 30
0.0
 10
98.468547
 20
192.897981
 30
0.0
  0
SPLINE
  5
320
100
AcDbEntity
  8
Layer_1
 62
7
100
AcDbSpline
 70
8
 71
3
 72
8
 73
4
 74
0
 40
0
 40
0
 40
0
 40
0
 40
1
 40
1
 40
1
 40
1
 10
98.468547
 20
192.897981
 30
0.0
 10
96.674748
 20
191.428112
 30
0.0
 10
95.383497
 20
190.709656
 30
0.0
 10
94.527909
 20
190.709656
 30
0.0
  0
SPLINE
  5
321
100
AcDbEntity
  8
Layer_1
 62
7
100
AcDbSpline
 70
8
 71
3
 72
8
 73
4
 74
0
 40
0
 40
0
 40
0
 40
0
 40
1
 40
1
 40
1
 40
1
 10
94.527909
 20
190.709656
 30
0.0
 10
93.648301
 20
190.708442
 30
0.0
 10
93.328727
 20
190.236595
 30
0.0
 10
93.044589
 20
188.521333
 30
0.0
  0
LWPOLYLINE
  5
322
100
AcDbEntity
  8
Layer_1
 62
7
100
AcDbPolyline
 90
2
 70
0
 10
112.566427
 20
194.095222
 30
0.0
 10
112.566427
 20
194.095222
 30
0.0
  0
SPLINE
  5
323
100
AcDbEntity
  8
Layer_1
 62
7
100
AcDbSpline
 70
8
 71
3
 72
8
 73
4
 74
0
 40
0
 40
0
 40
0
 40
0
 40
1
 40
1
 40
1
 40
1
 10
94.528459
 20
187.321888
 30
0.0
 10
96.721972
 20
187.321888
 30
0.0
 10
98.238146
 20
187.880988
 30
0.0
 10
99.940841
 20
189.316737
 30
0.0
  0
LWPOLYLINE
  5
324
100
AcDbEntity
  8
Layer_1
 62
7
100
AcDbPolyline
 90
3
 70
0
 10
93.044589
 20
188.521333
 30
0.0
 10
92.845599
 20
187.321888
 30
0.0
 10
94.528459
 20
187.321888
 30
0.0
  0
SPLINE
  5
325
100
AcDbEntity
  8
Layer_1
 62
7
100
AcDbSpline
 70
8
 71
3
 72
8
 73
4
 74
0
 40
0
 40
0
 40
0
 40
0
 40
1
 40
1
 40
1
 40
1
 10
100.496466
 20
191.626328
 30
0.0
 10
100.041120
 20
192.254921
 30
0.0
 10
99.668542
 20
193.019329
 30
0.0
 10
99.668542
 20
193.325173
 30
0.0
  0
SPLINE
  5
326
100
AcDbEntity
  8
Layer_1
 62
7
100
AcDbSpline
 70
8
 71
3
 72
8
 73
4
 74
0
 40
0
 40
0
 40
0
 40
0
 40
1
 40
1
 40
1
 40
1
 10
99.668542
 20
193.325173
 30
0.0
 10
99.668542
 20
193.507545
 30
0.0
 10
99.647288
 20
193.614089
 30
0.0
 10
99.565466
 20
193.630546
 30
0.0
  0
LWPOLYLINE
  5
327
100
AcDbEntity
  8
Layer_1
 62
7
100
AcDbPolyline
 90
3
 70
0
 10
99.940841
 20
189.316737
 30
0.0
 10
101.324393
 20
190.483107
 30
0.0
 10
100.496466
 20
191.626328
 30
0.0
  0
SPLINE
  5
328
100
AcDbEntity
  8
Layer_1
 62
7
100
AcDbSpline
 70
8
 71
3
 72
8
 73
4
 74
0
 40
0
 40
0
 40
0
 40
0
 40
1
 40
1
 40
1
 40
1
 10
88.174048
 20
191.192521
 30
0.0
 10
87.729636
 20
191.182028
 30
0.0
 10
87.395693
 20
190.920177
 30
0.0
 10
86.614660
 20
190.139149
 30
0.0
  0
LWPOLYLINE
  5
329
100
AcDbEntity
  8
Layer_1
 62
7
100
AcDbPolyline
 90
2
 70
0
 10
99.565466
 20
193.630546
 30
0.0
 10
99.565466
 20
193.630546
 30
0.0
  0
SPLINE
  5
32a
100
AcDbEntity
  8
Layer_1
 62
7
100
AcDbSpline
 70
8
 71
3
 72
8
 73
4
 74
0
 40
0
 40
0
 40
0
 40
0
 40
1
 40
1
 40
1
 40
1
 10
86.188019
 20
188.559915
 30
0.0
 10
86.604049
 20
188.341927
 30
0.0
 10
87.616538
 20
187.982328
 30
0.0
 10
88.438081
 20
187.761207
 30
0.0
  0
SPLINE
  5
32b
100
AcDbEntity
  8
Layer_1
 62
7
100
AcDbSpline
 70
8
 71
3
 72
8
 73
4
 74
0
 40
0
 40
0
 40
0
 40
0
 40
1
 40
1
 40
1
 40
1
 10
88.438081
 20
187.761207
 30
0.0
 10
89.259624
 20
187.540057
 30
0.0
 10
90.471625
 20
187.350788
 30
0.0
 10
91.131319
 20
187.340628
 30
0.0
  0
SPLINE
  5
32c
100
AcDbEntity
  8
Layer_1
 62
7
100
AcDbSpline
 70
8
 71
3
 72
8
 73
4
 74
0
 40
0
 40
0
 40
0
 40
0
 40
1
 40
1
 40
1
 40
1
 10
91.131319
 20
187.340628
 30
0.0
 10
92.285642
 20
187.322763
 30
0.0
 10
92.330764
 20
187.354626
 30
0.0
 10
92.330764
 20
188.187295
 30
0.0
  0
SPLINE
  5
32d
100
AcDbEntity
  8
Layer_1
 62
7
100
AcDbSpline
 70
8
 71
3
 72
8
 73
4
 74
0
 40
0
 40
0
 40
0
 40
0
 40
1
 40
1
 40
1
 40
1
 10
92.330764
 20
188.187295
 30
0.0
 10
92.330764
 20
188.663150
 30
0.0
 10
92.468339
 20
189.309139
 30
0.0
 10
92.636137
 20
189.622660
 30
0.0
  0
SPLINE
  5
32e
100
AcDbEntity
  8
Layer_1
 62
7
100
AcDbSpline
 70
8
 71
3
 72
8
 73
4
 74
0
 40
0
 40
0
 40
0
 40
0
 40
1
 40
1
 40
1
 40
1
 10
92.636137
 20
189.622660
 30
0.0
 10
93.039294
 20
190.375967
 30
0.0
 10
92.887605
 20
190.483542
 30
0.0
 10
91.083364
 20
190.728398
 30
0.0
  0
SPLINE
  5
32f
100
AcDbEntity
  8
Layer_1
 62
7
100
AcDbSpline
 70
8
 71
3
 72
8
 73
4
 74
0
 40
0
 40
0
 40
0
 40
0
 40
1
 40
1
 40
1
 40
1
 10
91.083364
 20
190.728398
 30
0.0
 10
90.242348
 20
190.842529
 30
0.0
 10
89.159311
 20
191.023044
 30
0.0
 10
88.676206
 20
191.129131
 30
0.0
  0
SPLINE
  5
330
100
AcDbEntity
  8
Layer_1
 62
7
100
AcDbSpline
 70
8
 71
3
 72
8
 73
4
 74
0
 40
0
 40
0
 40
0
 40
0
 40
1
 40
1
 40
1
 40
1
 10
88.676206
 20
191.129131
 30
0.0
 10
88.482895
 20
191.171591
 30
0.0
 10
88.322187
 20
191.196018
 30
0.0
 10
88.174048
 20
191.192521
 30
0.0
  0
LWPOLYLINE
  5
331
100
AcDbEntity
  8
Layer_1
 62
7
100
AcDbPolyline
 90
3
 70
0
 10
86.614660
 20
190.139149
 30
0.0
 10
85.431754
 20
188.956240
 30
0.0
 10
86.188019
 20
188.559915
 30
0.0
  0
SPLINE
  5
332
100
AcDbEntity
  8
Layer_1
 62
7
100
AcDbSpline
 70
8
 71
3
 72
8
 73
4
 74
0
 40
0
 40
0
 40
0
 40
0
 40
1
 40
1
 40
1
 40
1
 10
105.100769
 20
190.613192
 30
0.0
 10
104.878807
 20
190.609069
 30
0.0
 10
104.391897
 20
190.568996
 30
0.0
 10
103.843997
 20
190.506809
 30
0.0
  0
SPLINE
  5
333
100
AcDbEntity
  8
Layer_1
 62
7
100
AcDbSpline
 70
8
 71
3
 72
8
 73
4
 74
0
 40
0
 40
0
 40
0
 40
0
 40
1
 40
1
 40
1
 40
1
 10
103.843997
 20
190.506809
 30
0.0
 10
102.798846
 20
190.388134
 30
0.0
 10
102.197340
 20
190.085606
 30
0.0
 10
101.021775
 20
189.086878
 30
0.0
  0
SPLINE
  5
334
100
AcDbEntity
  8
Layer_1
 62
7
100
AcDbSpline
 70
8
 71
3
 72
8
 73
4
 74
0
 40
0
 40
0
 40
0
 40
0
 40
1
 40
1
 40
1
 40
1
 10
101.021775
 20
189.086878
 30
0.0
 10
100.200085
 20
188.388773
 30
0.0
 10
99.488348
 20
187.715326
 30
0.0
 10
99.440340
 20
187.590330
 30
0.0
  0
SPLINE
  5
335
100
AcDbEntity
  8
Layer_1
 62
7
100
AcDbSpline
 70
8
 71
3
 72
8
 73
4
 74
0
 40
0
 40
0
 40
0
 40
0
 40
1
 40
1
 40
1
 40
1
 10
99.440340
 20
187.590330
 30
0.0
 10
99.392334
 20
187.465305
 30
0.0
 10
99.709834
 20
187.309174
 30
0.0
 10
100.145895
 20
187.243614
 30
0.0
  0
SPLINE
  5
336
100
AcDbEntity
  8
Layer_1
 62
7
100
AcDbSpline
 70
8
 71
3
 72
8
 73
4
 74
0
 40
0
 40
0
 40
0
 40
0
 40
1
 40
1
 40
1
 40
1
 10
100.145895
 20
187.243614
 30
0.0
 10
102.223166
 20
186.931335
 30
0.0
 10
103.819404
 20
187.045457
 30
0.0
 10
104.265126
 20
187.537963
 30
0.0
  0
SPLINE
  5
337
100
AcDbEntity
  8
Layer_1
 62
7
100
AcDbSpline
 70
8
 71
3
 72
8
 73
4
 74
0
 40
0
 40
0
 40
0
 40
0
 40
1
 40
1
 40
1
 40
1
 10
104.265126
 20
187.537963
 30
0.0
 10
104.636869
 20
187.948738
 30
0.0
 10
105.413161
 20
190.425461
 30
0.0
 10
105.226445
 20
190.604926
 30
0.0
  0
SPLINE
  5
338
100
AcDbEntity
  8
Layer_1
 62
7
100
AcDbSpline
 70
8
 71
3
 72
8
 73
4
 74
0
 40
0
 40
0
 40
0
 40
0
 40
1
 40
1
 40
1
 40
1
 10
105.226445
 20
190.604926
 30
0.0
 10
105.218924
 20
190.612151
 30
0.0
 10
105.174756
 20
190.614569
 30
0.0
 10
105.100769
 20
190.613192
 30
0.0
  0
LWPOLYLINE
  5
339
100
AcDbEntity
  8
Layer_1
 62
7
100
AcDbPolyline
 90
2
 70
0
 10
88.174048
 20
191.192521
 30
0.0
 10
88.174048
 20
191.192521
 30
0.0
  0
SPLINE
  5
33a
100
AcDbEntity
  8
Layer_1
 62
7
100
AcDbSpline
 70
8
 71
3
 72
8
 73
4
 74
0
 40
0
 40
0
 40
0
 40
0
 40
1
 40
1
 40
1
 40
1
 10
80.777292
 20
189.440209
 30
0.0
 10
80.697939
 20
189.434006
 30
0.0
 10
80.636776
 20
189.328153
 30
0.0
 10
80.561767
 20
189.144206
 30
0.0
  0
SPLINE
  5
33b
100
AcDbEntity
  8
Layer_1
 62
7
100
AcDbSpline
 70
8
 71
3
 72
8
 73
4
 74
0
 40
0
 40
0
 40
0
 40
0
 40
1
 40
1
 40
1
 40
1
 10
80.561767
 20
189.144206
 30
0.0
 10
80.437900
 20
188.840450
 30
0.0
 10
80.336319
 20
187.575888
 30
0.0
 10
80.336319
 20
186.334111
 30
0.0
  0
SPLINE
  5
33c
100
AcDbEntity
  8
Layer_1
 62
7
100
AcDbSpline
 70
8
 71
3
 72
8
 73
4
 74
0
 40
0
 40
0
 40
0
 40
0
 40
1
 40
1
 40
1
 40
1
 10
80.336319
 20
186.334111
 30
0.0
 10
80.336319
 20
183.362593
 30
0.0
 10
81.000030
 20
181.895593
 30
0.0
 10
82.452986
 20
181.655394
 30
0.0
  0
SPLINE
  5
33d
100
AcDbEntity
  8
Layer_1
 62
7
100
AcDbSpline
 70
8
 71
3
 72
8
 73
4
 74
0
 40
0
 40
0
 40
0
 40
0
 40
1
 40
1
 40
1
 40
1
 10
82.452986
 20
181.655394
 30
0.0
 10
83.588880
 20
181.467603
 30
0.0
 10
84.980546
 20
181.636465
 30
0.0
 10
85.472544
 20
182.021953
 30
0.0
  0
SPLINE
  5
33e
100
AcDbEntity
  8
Layer_1
 62
7
100
AcDbSpline
 70
8
 71
3
 72
8
 73
4
 74
0
 40
0
 40
0
 40
0
 40
0
 40
1
 40
1
 40
1
 40
1
 10
85.472544
 20
182.021953
 30
0.0
 10
85.724182
 20
182.219085
 30
0.0
 10
85.596583
 20
182.582771
 30
0.0
 10
84.974244
 20
183.441883
 30
0.0
  0
SPLINE
  5
33f
100
AcDbEntity
  8
Layer_1
 62
7
100
AcDbSpline
 70
8
 71
3
 72
8
 73
4
 74
0
 40
0
 40
0
 40
0
 40
0
 40
1
 40
1
 40
1
 40
1
 10
84.974244
 20
183.441883
 30
0.0
 10
84.514142
 20
184.077024
 30
0.0
 10
84.061483
 20
185.073794
 30
0.0
 10
83.968277
 20
185.656664
 30
0.0
  0
SPLINE
  5
340
100
AcDbEntity
  8
Layer_1
 62
7
100
AcDbSpline
 70
8
 71
3
 72
8
 73
4
 74
0
 40
0
 40
0
 40
0
 40
0
 40
1
 40
1
 40
1
 40
1
 10
83.968277
 20
185.656664
 30
0.0
 10
83.836200
 20
186.482616
 30
0.0
 10
83.617740
 20
186.791011
 30
0.0
 10
82.978845
 20
187.055651
 30
0.0
  0
SPLINE
  5
341
100
AcDbEntity
  8
Layer_1
 62
7
100
AcDbSpline
 70
8
 71
3
 72
8
 73
4
 74
0
 40
0
 40
0
 40
0
 40
0
 40
1
 40
1
 40
1
 40
1
 10
82.978845
 20
187.055651
 30
0.0
 10
82.527970
 20
187.242426
 30
0.0
 10
81.850301
 20
187.913282
 30
0.0
 10
81.472924
 20
188.546137
 30
0.0
  0
SPLINE
  5
342
100
AcDbEntity
  8
Layer_1
 62
7
100
AcDbSpline
 70
8
 71
3
 72
8
 73
4
 74
0
 40
0
 40
0
 40
0
 40
0
 40
1
 40
1
 40
1
 40
1
 10
81.472924
 20
188.546137
 30
0.0
 10
81.092048
 20
189.184840
 30
0.0
 10
80.909547
 20
189.450544
 30
0.0
 10
80.777292
 20
189.440209
 30
0.0
  0
LWPOLYLINE
  5
343
100
AcDbEntity
  8
Layer_1
 62
7
100
AcDbPolyline
 90
2
 70
0
 10
105.100769
 20
190.613192
 30
0.0
 10
105.100769
 20
190.613192
 30
0.0
  0
SPLINE
  5
344
100
AcDbEntity
  8
Layer_1
 62
7
100
AcDbSpline
 70
8
 71
3
 72
8
 73
4
 74
0
 40
0
 40
0
 40
0
 40
0
 40
1
 40
1
 40
1
 40
1
 10
112.786914
 20
189.106171
 30
0.0
 10
112.453787
 20
189.104949
 30
0.0
 10
111.829142
 20
188.904613
 30
0.0
 10
110.964596
 20
188.518576
 30
0.0
  0
SPLINE
  5
345
100
AcDbEntity
  8
Layer_1
 62
7
100
AcDbSpline
 70
8
 71
3
 72
8
 73
4
 74
0
 40
0
 40
0
 40
0
 40
0
 40
1
 40
1
 40
1
 40
1
 10
110.964596
 20
188.518576
 30
0.0
 10
109.298184
 20
187.774440
 30
0.0
 10
109.178928
 20
187.659237
 30
0.0
 10
109.133459
 20
186.746418
 30
0.0
  0
SPLINE
  5
346
100
AcDbEntity
  8
Layer_1
 62
7
100
AcDbSpline
 70
8
 71
3
 72
8
 73
4
 74
0
 40
0
 40
0
 40
0
 40
0
 40
1
 40
1
 40
1
 40
1
 10
109.133459
 20
186.746418
 30
0.0
 10
109.106713
 20
186.209405
 30
0.0
 10
108.994454
 20
185.574222
 30
0.0
 10
108.884311
 20
185.334756
 30
0.0
  0
SPLINE
  5
347
100
AcDbEntity
  8
Layer_1
 62
7
100
AcDbSpline
 70
8
 71
3
 72
8
 73
4
 74
0
 40
0
 40
0
 40
0
 40
0
 40
1
 40
1
 40
1
 40
1
 10
108.884311
 20
185.334756
 30
0.0
 10
108.730565
 20
185.000520
 30
0.0
 10
109.013975
 20
184.780325
 30
0.0
 10
110.104149
 20
184.388318
 30
0.0
  0
SPLINE
  5
348
100
AcDbEntity
  8
Layer_1
 62
7
100
AcDbSpline
 70
8
 71
3
 72
8
 73
4
 74
0
 40
0
 40
0
 40
0
 40
0
 40
1
 40
1
 40
1
 40
1
 10
110.104149
 20
184.388318
 30
0.0
 10
110.885122
 20
184.107479
 30
0.0
 10
111.594463
 20
183.763752
 30
0.0
 10
111.680625
 20
183.624334
 30
0.0
  0
SPLINE
  5
349
100
AcDbEntity
  8
Layer_1
 62
7
100
AcDbSpline
 70
8
 71
3
 72
8
 73
4
 74
0
 40
0
 40
0
 40
0
 40
0
 40
1
 40
1
 40
1
 40
1
 10
111.680625
 20
183.624334
 30
0.0
 10
112.327258
 20
182.578052
 30
0.0
 10
113.622009
 20
185.361539
 30
0.0
 10
113.427978
 20
187.380867
 30
0.0
  0
SPLINE
  5
34a
100
AcDbEntity
  8
Layer_1
 62
7
100
AcDbSpline
 70
8
 71
3
 72
8
 73
4
 74
0
 40
0
 40
0
 40
0
 40
0
 40
1
 40
1
 40
1
 40
1
 10
113.427978
 20
187.380867
 30
0.0
 10
113.354756
 20
188.142924
 30
0.0
 10
113.171893
 20
188.889870
 30
0.0
 10
113.021181
 20
189.040577
 30
0.0
  0
SPLINE
  5
34b
100
AcDbEntity
  8
Layer_1
 62
7
100
AcDbSpline
 70
8
 71
3
 72
8
 73
4
 74
0
 40
0
 40
0
 40
0
 40
0
 40
1
 40
1
 40
1
 40
1
 10
113.021181
 20
189.040577
 30
0.0
 10
112.976877
 20
189.084877
 30
0.0
 10
112.897957
 20
189.106580
 30
0.0
 10
112.786914
 20
189.106171
 30
0.0
  0
LWPOLYLINE
  5
34c
100
AcDbEntity
  8
Layer_1
 62
7
100
AcDbPolyline
 90
2
 70
0
 10
80.777292
 20
189.440209
 30
0.0
 10
80.777292
 20
189.440209
 30
0.0
  0
SPLINE
  5
34d
100
AcDbEntity
  8
Layer_1
 62
7
100
AcDbSpline
 70
8
 71
3
 72
8
 73
4
 74
0
 40
0
 40
0
 40
0
 40
0
 40
1
 40
1
 40
1
 40
1
 10
87.375890
 20
186.206778
 30
0.0
 10
86.412809
 20
186.211113
 30
0.0
 10
85.625466
 20
186.138189
 30
0.0
 10
85.346314
 20
185.960937
 30
0.0
  0
SPLINE
  5
34e
100
AcDbEntity
  8
Layer_1
 62
7
100
AcDbSpline
 70
8
 71
3
 72
8
 73
4
 74
0
 40
0
 40
0
 40
0
 40
0
 40
1
 40
1
 40
1
 40
1
 10
85.346314
 20
185.960937
 30
0.0
 10
85.082806
 20
185.793607
 30
0.0
 10
85.203482
 20
185.407428
 30
0.0
 10
85.825322
 20
184.426904
 30
0.0
  0
LWPOLYLINE
  5
34f
100
AcDbEntity
  8
Layer_1
 62
7
100
AcDbPolyline
 90
2
 70
0
 10
112.786914
 20
189.106171
 30
0.0
 10
112.786914
 20
189.106171
 30
0.0
  0
SPLINE
  5
350
100
AcDbEntity
  8
Layer_1
 62
7
100
AcDbSpline
 70
8
 71
3
 72
8
 73
4
 74
0
 40
0
 40
0
 40
0
 40
0
 40
1
 40
1
 40
1
 40
1
 10
88.435327
 20
183.031778
 30
0.0
 10
90.138112
 20
182.950977
 30
0.0
 10
90.271532
 20
182.994663
 30
0.0
 10
91.548037
 20
184.044360
 30
0.0
  0
SPLINE
  5
351
100
AcDbEntity
  8
Layer_1
 62
7
100
AcDbSpline
 70
8
 71
3
 72
8
 73
4
 74
0
 40
0
 40
0
 40
0
 40
0
 40
1
 40
1
 40
1
 40
1
 10
91.548037
 20
184.044360
 30
0.0
 10
92.281494
 20
184.647497
 30
0.0
 10
92.823016
 20
185.235101
 30
0.0
 10
92.751893
 20
185.350191
 30
0.0
  0
SPLINE
  5
352
100
AcDbEntity
  8
Layer_1
 62
7
100
AcDbSpline
 70
8
 71
3
 72
8
 73
4
 74
0
 40
0
 40
0
 40
0
 40
0
 40
1
 40
1
 40
1
 40
1
 10
92.751893
 20
185.350191
 30
0.0
 10
92.464938
 20
185.814480
 30
0.0
 10
89.494665
 20
186.197244
 30
0.0
 10
87.375890
 20
186.206778
 30
0.0
  0
LWPOLYLINE
  5
353
100
AcDbEntity
  8
Layer_1
 62
7
100
AcDbPolyline
 90
3
 70
0
 10
85.825322
 20
184.426904
 30
0.0
 10
86.656553
 20
183.116664
 30
0.0
 10
88.435327
 20
183.031778
 30
0.0
  0
SPLINE
  5
354
100
AcDbEntity
  8
Layer_1
 62
7
100
AcDbSpline
 70
8
 71
3
 72
8
 73
4
 74
0
 40
0
 40
0
 40
0
 40
0
 40
1
 40
1
 40
1
 40
1
 10
103.337431
 20
186.193000
 30
0.0
 10
101.893539
 20
186.193000
 30
0.0
 10
98.821875
 20
185.219751
 30
0.0
 10
98.821875
 20
184.762043
 30
0.0
  0
SPLINE
  5
355
100
AcDbEntity
  8
Layer_1
 62
7
100
AcDbSpline
 70
8
 71
3
 72
8
 73
4
 74
0
 40
0
 40
0
 40
0
 40
0
 40
1
 40
1
 40
1
 40
1
 10
98.821875
 20
184.762043
 30
0.0
 10
98.821875
 20
184.617968
 30
0.0
 10
98.988028
 20
184.499666
 30
0.0
 10
99.191188
 20
184.499666
 30
0.0
  0
SPLINE
  5
356
100
AcDbEntity
  8
Layer_1
 62
7
100
AcDbSpline
 70
8
 71
3
 72
8
 73
4
 74
0
 40
0
 40
0
 40
0
 40
0
 40
1
 40
1
 40
1
 40
1
 10
99.191188
 20
184.499666
 30
0.0
 10
99.394346
 20
184.499666
 30
0.0
 10
100.285203
 20
184.063802
 30
0.0
 10
101.170605
 20
183.530628
 30
0.0
  0
SPLINE
  5
357
100
AcDbEntity
  8
Layer_1
 62
7
100
AcDbSpline
 70
8
 71
3
 72
8
 73
4
 74
0
 40
0
 40
0
 40
0
 40
0
 40
1
 40
1
 40
1
 40
1
 10
101.170605
 20
183.530628
 30
0.0
 10
102.056006
 20
182.997482
 30
0.0
 10
103.128098
 20
182.508120
 30
0.0
 10
103.552955
 20
182.443632
 30
0.0
  0
LWPOLYLINE
  5
358
100
AcDbEntity
  8
Layer_1
 62
7
100
AcDbPolyline
 90
2
 70
0
 10
87.375890
 20
186.206778
 30
0.0
 10
87.375890
 20
186.206778
 30
0.0
  0
SPLINE
  5
359
100
AcDbEntity
  8
Layer_1
 62
7
100
AcDbSpline
 70
8
 71
3
 72
8
 73
4
 74
0
 40
0
 40
0
 40
0
 40
0
 40
1
 40
1
 40
1
 40
1
 10
103.552955
 20
182.444182
 30
0.0
 10
103.977810
 20
182.379695
 30
0.0
 10
104.476584
 20
182.307474
 30
0.0
 10
104.661451
 20
182.284332
 30
0.0
  0
SPLINE
  5
35a
100
AcDbEntity
  8
Layer_1
 62
7
100
AcDbSpline
 70
8
 71
3
 72
8
 73
4
 74
0
 40
0
 40
0
 40
0
 40
0
 40
1
 40
1
 40
1
 40
1
 10
104.661451
 20
182.284332
 30
0.0
 10
104.846318
 20
182.261077
 30
0.0
 10
105.077331
 20
182.371067
 30
0.0
 10
105.174632
 20
182.528519
 30
0.0
  0
SPLINE
  5
35b
100
AcDbEntity
  8
Layer_1
 62
7
100
AcDbSpline
 70
8
 71
3
 72
8
 73
4
 74
0
 40
0
 40
0
 40
0
 40
0
 40
1
 40
1
 40
1
 40
1
 10
105.174632
 20
182.528519
 30
0.0
 10
105.482026
 20
183.025879
 30
0.0
 10
107.516151
 20
183.935343
 30
0.0
 10
108.335851
 20
183.941834
 30
0.0
  0
LWPOLYLINE
  5
35c
100
AcDbEntity
  8
Layer_1
 62
7
100
AcDbPolyline
 90
2
 70
0
 10
103.552955
 20
182.443632
 30
0.0
 10
103.552955
 20
182.444182
 30
0.0
  0
SPLINE
  5
35d
100
AcDbEntity
  8
Layer_1
 62
7
100
AcDbSpline
 70
8
 71
3
 72
8
 73
4
 74
0
 40
0
 40
0
 40
0
 40
0
 40
1
 40
1
 40
1
 40
1
 10
108.417431
 20
184.502971
 30
0.0
 10
107.304292
 20
185.378481
 30
0.0
 10
104.855510
 20
186.193000
 30
0.0
 10
103.337431
 20
186.193000
 30
0.0
  0
LWPOLYLINE
  5
35e
100
AcDbEntity
  8
Layer_1
 62
7
100
AcDbPolyline
 90
3
 70
0
 10
108.335851
 20
183.941834
 30
0.0
 10
109.122986
 20
183.947899
 30
0.0
 10
108.417431
 20
184.502971
 30
0.0
  0
LWPOLYLINE
  5
35f
100
AcDbEntity
  8
Layer_1
 62
7
100
AcDbPolyline
 90
2
 70
0
 10
103.337431
 20
186.193000
 30
0.0
 10
103.337431
 20
186.193000
 30
0.0
  0
SPLINE
  5
360
100
AcDbEntity
  8
Layer_1
 62
7
100
AcDbSpline
 70
8
 71
3
 72
8
 73
4
 74
0
 40
0
 40
0
 40
0
 40
0
 40
1
 40
1
 40
1
 40
1
 10
94.135993
 20
181.821860
 30
0.0
 10
95.463989
 20
181.322327
 30
0.0
 10
96.966538
 20
180.592006
 30
0.0
 10
97.474704
 20
180.198532
 30
0.0
  0
SPLINE
  5
361
100
AcDbEntity
  8
Layer_1
 62
7
100
AcDbSpline
 70
8
 71
3
 72
8
 73
4
 74
0
 40
0
 40
0
 40
0
 40
0
 40
1
 40
1
 40
1
 40
1
 10
97.474704
 20
180.198532
 30
0.0
 10
98.299724
 20
179.559750
 30
0.0
 10
98.474081
 20
179.522209
 30
0.0
 10
99.104097
 20
179.850715
 30
0.0
  0
SPLINE
  5
362
100
AcDbEntity
  8
Layer_1
 62
7
100
AcDbSpline
 70
8
 71
3
 72
8
 73
4
 74
0
 40
0
 40
0
 40
0
 40
0
 40
1
 40
1
 40
1
 40
1
 10
99.104097
 20
179.850715
 30
0.0
 10
100.074222
 20
180.356514
 30
0.0
 10
101.079653
 20
181.341504
 30
0.0
 10
101.079653
 20
181.786032
 30
0.0
  0
SPLINE
  5
363
100
AcDbEntity
  8
Layer_1
 62
7
100
AcDbSpline
 70
8
 71
3
 72
8
 73
4
 74
0
 40
0
 40
0
 40
0
 40
0
 40
1
 40
1
 40
1
 40
1
 10
101.079653
 20
181.786032
 30
0.0
 10
101.079653
 20
182.560562
 30
0.0
 10
98.969886
 20
183.818912
 30
0.0
 10
96.387158
 20
184.584553
 30
0.0
  0
LWPOLYLINE
  5
364
100
AcDbEntity
  8
Layer_1
 62
7
100
AcDbPolyline
 90
4
 70
0
 10
94.940216
 20
185.013398
 30
0.0
 10
93.330669
 20
183.871832
 30
0.0
 10
91.721672
 20
182.730263
 30
0.0
 10
94.135993
 20
181.821860
 30
0.0
  0
SPLINE
  5
365
100
AcDbEntity
  8
Layer_1
 62
7
100
AcDbSpline
 70
8
 71
3
 72
8
 73
4
 74
0
 40
0
 40
0
 40
0
 40
0
 40
1
 40
1
 40
1
 40
1
 10
79.522173
 20
183.320615
 30
0.0
 10
79.112655
 20
183.355261
 30
0.0
 10
78.453502
 20
182.850173
 30
0.0
 10
77.388971
 20
181.749100
 30
0.0
  0
LWPOLYLINE
  5
366
100
AcDbEntity
  8
Layer_1
 62
7
100
AcDbPolyline
 90
3
 70
0
 10
96.387158
 20
184.584553
 30
0.0
 10
94.940216
 20
185.013398
 30
0.0
 10
94.940216
 20
185.013398
 30
0.0
  0
SPLINE
  5
367
100
AcDbEntity
  8
Layer_1
 62
7
100
AcDbSpline
 70
8
 71
3
 72
8
 73
4
 74
0
 40
0
 40
0
 40
0
 40
0
 40
1
 40
1
 40
1
 40
1
 10
76.973354
 20
179.972534
 30
0.0
 10
77.607152
 20
179.887529
 30
0.0
 10
78.496152
 20
179.542004
 30
0.0
 10
78.948909
 20
179.204692
 30
0.0
  0
SPLINE
  5
368
100
AcDbEntity
  8
Layer_1
 62
7
100
AcDbSpline
 70
8
 71
3
 72
8
 73
4
 74
0
 40
0
 40
0
 40
0
 40
0
 40
1
 40
1
 40
1
 40
1
 10
78.948909
 20
179.204692
 30
0.0
 10
79.401667
 20
178.867352
 30
0.0
 10
79.843249
 20
178.587167
 30
0.0
 10
79.930625
 20
178.582369
 30
0.0
  0
SPLINE
  5
369
100
AcDbEntity
  8
Layer_1
 62
7
100
AcDbSpline
 70
8
 71
3
 72
8
 73
4
 74
0
 40
0
 40
0
 40
0
 40
0
 40
1
 40
1
 40
1
 40
1
 10
79.930625
 20
178.582369
 30
0.0
 10
80.018004
 20
178.577459
 30
0.0
 10
80.447859
 20
178.947031
 30
0.0
 10
80.885882
 20
179.404231
 30
0.0
  0
LWPOLYLINE
  5
36a
100
AcDbEntity
  8
Layer_1
 62
7
100
AcDbPolyline
 90
3
 70
0
 10
77.388971
 20
181.749100
 30
0.0
 10
75.820764
 20
180.126876
 30
0.0
 10
76.973354
 20
179.972534
 30
0.0
  0
SPLINE
  5
36b
100
AcDbEntity
  8
Layer_1
 62
7
100
AcDbSpline
 70
8
 71
3
 72
8
 73
4
 74
0
 40
0
 40
0
 40
0
 40
0
 40
1
 40
1
 40
1
 40
1
 10
80.938799
 20
181.119612
 30
0.0
 10
80.529771
 20
181.605712
 30
0.0
 10
80.118173
 20
182.311180
 30
0.0
 10
80.023781
 20
182.687269
 30
0.0
  0
SPLINE
  5
36c
100
AcDbEntity
  8
Layer_1
 62
7
100
AcDbSpline
 70
8
 71
3
 72
8
 73
4
 74
0
 40
0
 40
0
 40
0
 40
0
 40
1
 40
1
 40
1
 40
1
 10
80.023781
 20
182.687269
 30
0.0
 10
79.923979
 20
183.084906
 30
0.0
 10
79.767887
 20
183.299829
 30
0.0
 10
79.522173
 20
183.320615
 30
0.0
  0
LWPOLYLINE
  5
36d
100
AcDbEntity
  8
Layer_1
 62
7
100
AcDbPolyline
 90
3
 70
0
 10
80.885882
 20
179.404231
 30
0.0
 10
81.682387
 20
180.235463
 30
0.0
 10
80.938799
 20
181.119612
 30
0.0
  0
SPLINE
  5
36e
100
AcDbEntity
  8
Layer_1
 62
7
100
AcDbSpline
 70
8
 71
3
 72
8
 73
4
 74
0
 40
0
 40
0
 40
0
 40
0
 40
1
 40
1
 40
1
 40
1
 10
108.996757
 20
183.085798
 30
0.0
 10
108.073932
 20
183.105804
 30
0.0
 10
107.154650
 20
182.929452
 30
0.0
 10
106.709216
 20
182.568758
 30
0.0
  0
LWPOLYLINE
  5
36f
100
AcDbEntity
  8
Layer_1
 62
7
100
AcDbPolyline
 90
2
 70
0
 10
79.522173
 20
183.320615
 30
0.0
 10
79.522173
 20
183.320615
 30
0.0
  0
SPLINE
  5
370
100
AcDbEntity
  8
Layer_1
 62
7
100
AcDbSpline
 70
8
 71
3
 72
8
 73
4
 74
0
 40
0
 40
0
 40
0
 40
0
 40
1
 40
1
 40
1
 40
1
 10
108.018351
 20
180.068997
 30
0.0
 10
109.091603
 20
178.980099
 30
0.0
 10
110.033153
 20
178.109678
 30
0.0
 10
110.110764
 20
178.134231
 30
0.0
  0
SPLINE
  5
371
100
AcDbEntity
  8
Layer_1
 62
7
100
AcDbSpline
 70
8
 71
3
 72
8
 73
4
 74
0
 40
0
 40
0
 40
0
 40
0
 40
1
 40
1
 40
1
 40
1
 10
110.110764
 20
178.134231
 30
0.0
 10
110.188375
 20
178.158785
 30
0.0
 10
110.844372
 20
178.459134
 30
0.0
 10
111.568176
 20
178.801752
 30
0.0
  0
SPLINE
  5
372
100
AcDbEntity
  8
Layer_1
 62
7
100
AcDbSpline
 70
8
 71
3
 72
8
 73
4
 74
0
 40
0
 40
0
 40
0
 40
0
 40
1
 40
1
 40
1
 40
1
 10
111.568176
 20
178.801752
 30
0.0
 10
112.600836
 20
179.290561
 30
0.0
 10
113.041382
 20
179.364633
 30
0.0
 10
113.614287
 20
179.146814
 30
0.0
  0
SPLINE
  5
373
100
AcDbEntity
  8
Layer_1
 62
7
100
AcDbSpline
 70
8
 71
3
 72
8
 73
4
 74
0
 40
0
 40
0
 40
0
 40
0
 40
1
 40
1
 40
1
 40
1
 10
113.614287
 20
179.146814
 30
0.0
 10
114.015845
 20
178.994132
 30
0.0
 10
114.344097
 20
178.979699
 30
0.0
 10
114.344097
 20
179.114290
 30
0.0
  0
SPLINE
  5
374
100
AcDbEntity
  8
Layer_1
 62
7
100
AcDbSpline
 70
8
 71
3
 72
8
 73
4
 74
0
 40
0
 40
0
 40
0
 40
0
 40
1
 40
1
 40
1
 40
1
 10
114.344097
 20
179.114290
 30
0.0
 10
114.344097
 20
179.548122
 30
0.0
 10
111.756506
 20
182.252432
 30
0.0
 10
110.934830
 20
182.677346
 30
0.0
  0
SPLINE
  5
375
100
AcDbEntity
  8
Layer_1
 62
7
100
AcDbSpline
 70
8
 71
3
 72
8
 73
4
 74
0
 40
0
 40
0
 40
0
 40
0
 40
1
 40
1
 40
1
 40
1
 10
110.934830
 20
182.677346
 30
0.0
 10
110.434315
 20
182.936169
 30
0.0
 10
109.714510
 20
183.070236
 30
0.0
 10
108.996757
 20
183.085798
 30
0.0
  0
LWPOLYLINE
  5
376
100
AcDbEntity
  8
Layer_1
 62
7
100
AcDbPolyline
 90
3
 70
0
 10
106.709216
 20
182.568758
 30
0.0
 10
106.067047
 20
182.048961
 30
0.0
 10
108.018351
 20
180.068997
 30
0.0
  0
SPLINE
  5
377
100
AcDbEntity
  8
Layer_1
 62
7
100
AcDbSpline
 70
8
 71
3
 72
8
 73
4
 74
0
 40
0
 40
0
 40
0
 40
0
 40
1
 40
1
 40
1
 40
1
 10
91.464805
 20
181.541845
 30
0.0
 10
91.049769
 20
181.560370
 30
0.0
 10
91.067932
 20
181.379448
 30
0.0
 10
91.151162
 20
180.666513
 30
0.0
  0
SPLINE
  5
378
100
AcDbEntity
  8
Layer_1
 62
7
100
AcDbSpline
 70
8
 71
3
 72
8
 73
4
 74
0
 40
0
 40
0
 40
0
 40
0
 40
1
 40
1
 40
1
 40
1
 10
91.151162
 20
180.666513
 30
0.0
 10
91.224535
 20
180.038004
 30
0.0
 10
91.058769
 20
179.365276
 30
0.0
 10
90.667747
 20
178.702534
 30
0.0
  0
SPLINE
  5
379
100
AcDbEntity
  8
Layer_1
 62
7
100
AcDbSpline
 70
8
 71
3
 72
8
 73
4
 74
0
 40
0
 40
0
 40
0
 40
0
 40
1
 40
1
 40
1
 40
1
 10
90.667747
 20
178.702534
 30
0.0
 10
90.340592
 20
178.148052
 30
0.0
 10
90.072986
 20
177.637955
 30
0.0
 10
90.072986
 20
177.569237
 30
0.0
  0
SPLINE
  5
37a
100
AcDbEntity
  8
Layer_1
 62
7
100
AcDbSpline
 70
8
 71
3
 72
8
 73
4
 74
0
 40
0
 40
0
 40
0
 40
0
 40
1
 40
1
 40
1
 40
1
 10
90.072986
 20
177.569237
 30
0.0
 10
90.072986
 20
177.270561
 30
0.0
 10
92.156822
 20
177.481830
 30
0.0
 10
93.100813
 20
177.876263
 30
0.0
  0
SPLINE
  5
37b
100
AcDbEntity
  8
Layer_1
 62
7
100
AcDbSpline
 70
8
 71
3
 72
8
 73
4
 74
0
 40
0
 40
0
 40
0
 40
0
 40
1
 40
1
 40
1
 40
1
 10
93.100813
 20
177.876263
 30
0.0
 10
94.289231
 20
178.372805
 30
0.0
 10
95.999653
 20
179.613400
 30
0.0
 10
95.999653
 20
179.978596
 30
0.0
  0
SPLINE
  5
37c
100
AcDbEntity
  8
Layer_1
 62
7
100
AcDbSpline
 70
8
 71
3
 72
8
 73
4
 74
0
 40
0
 40
0
 40
0
 40
0
 40
1
 40
1
 40
1
 40
1
 10
95.999653
 20
179.978596
 30
0.0
 10
95.999653
 20
180.282352
 30
0.0
 10
93.402768
 20
181.259278
 30
0.0
 10
92.038068
 20
181.469082
 30
0.0
  0
SPLINE
  5
37d
100
AcDbEntity
  8
Layer_1
 62
7
100
AcDbSpline
 70
8
 71
3
 72
8
 73
4
 74
0
 40
0
 40
0
 40
0
 40
0
 40
1
 40
1
 40
1
 40
1
 10
92.038068
 20
181.469082
 30
0.0
 10
91.789885
 20
181.507233
 30
0.0
 10
91.603150
 20
181.535670
 30
0.0
 10
91.464805
 20
181.541845
 30
0.0
  0
LWPOLYLINE
  5
37e
100
AcDbEntity
  8
Layer_1
 62
7
100
AcDbPolyline
 90
2
 70
0
 10
108.996757
 20
183.085798
 30
0.0
 10
108.996757
 20
183.085798
 30
0.0
  0
SPLINE
  5
37f
100
AcDbEntity
  8
Layer_1
 62
7
100
AcDbSpline
 70
8
 71
3
 72
8
 73
4
 74
0
 40
0
 40
0
 40
0
 40
0
 40
1
 40
1
 40
1
 40
1
 10
87.917734
 20
181.464123
 30
0.0
 10
87.361037
 20
181.473445
 30
0.0
 10
86.968384
 20
181.439037
 30
0.0
 10
86.968542
 20
181.370414
 30
0.0
  0
SPLINE
  5
380
100
AcDbEntity
  8
Layer_1
 62
7
100
AcDbSpline
 70
8
 71
3
 72
8
 73
4
 74
0
 40
0
 40
0
 40
0
 40
0
 40
1
 40
1
 40
1
 40
1
 10
86.968542
 20
181.370414
 30
0.0
 10
86.969380
 20
181.008100
 30
0.0
 10
85.463307
 20
180.548555
 30
0.0
 10
84.274203
 20
180.548555
 30
0.0
  0
SPLINE
  5
381
100
AcDbEntity
  8
Layer_1
 62
7
100
AcDbSpline
 70
8
 71
3
 72
8
 73
4
 74
0
 40
0
 40
0
 40
0
 40
0
 40
1
 40
1
 40
1
 40
1
 10
84.274203
 20
180.548555
 30
0.0
 10
83.583007
 20
180.548555
 30
0.0
 10
83.017431
 20
180.439027
 30
0.0
 10
83.017431
 20
180.304915
 30
0.0
  0
SPLINE
  5
382
100
AcDbEntity
  8
Layer_1
 62
7
100
AcDbSpline
 70
8
 71
3
 72
8
 73
4
 74
0
 40
0
 40
0
 40
0
 40
0
 40
1
 40
1
 40
1
 40
1
 10
83.017431
 20
180.304915
 30
0.0
 10
83.017431
 20
179.938139
 30
0.0
 10
85.100101
 20
178.569079
 30
0.0
 10
86.319210
 20
178.134231
 30
0.0
  0
SPLINE
  5
383
100
AcDbEntity
  8
Layer_1
 62
7
100
AcDbSpline
 70
8
 71
3
 72
8
 73
4
 74
0
 40
0
 40
0
 40
0
 40
0
 40
1
 40
1
 40
1
 40
1
 10
86.319210
 20
178.134231
 30
0.0
 10
86.909368
 20
177.923722
 30
0.0
 10
87.491587
 20
177.745784
 30
0.0
 10
87.613465
 20
177.739010
 30
0.0
  0
SPLINE
  5
384
100
AcDbEntity
  8
Layer_1
 62
7
100
AcDbSpline
 70
8
 71
3
 72
8
 73
4
 74
0
 40
0
 40
0
 40
0
 40
0
 40
1
 40
1
 40
1
 40
1
 10
87.613465
 20
177.739010
 30
0.0
 10
88.159429
 20
177.708502
 30
0.0
 10
89.337761
 20
178.771012
 30
0.0
 10
89.688238
 20
179.609833
 30
0.0
  0
SPLINE
  5
385
100
AcDbEntity
  8
Layer_1
 62
7
100
AcDbSpline
 70
8
 71
3
 72
8
 73
4
 74
0
 40
0
 40
0
 40
0
 40
0
 40
1
 40
1
 40
1
 40
1
 10
89.688238
 20
179.609833
 30
0.0
 10
90.338834
 20
181.166938
 30
0.0
 10
90.232868
 20
181.333246
 30
0.0
 10
88.520764
 20
181.439869
 30
0.0
  0
SPLINE
  5
386
100
AcDbEntity
  8
Layer_1
 62
7
100
AcDbSpline
 70
8
 71
3
 72
8
 73
4
 74
0
 40
0
 40
0
 40
0
 40
0
 40
1
 40
1
 40
1
 40
1
 10
88.520764
 20
181.439869
 30
0.0
 10
88.307280
 20
181.453162
 30
0.0
 10
88.103301
 20
181.461013
 30
0.0
 10
87.917734
 20
181.464123
 30
0.0
  0
LWPOLYLINE
  5
387
100
AcDbEntity
  8
Layer_1
 62
7
100
AcDbPolyline
 90
2
 70
0
 10
91.464805
 20
181.541845
 30
0.0
 10
91.464805
 20
181.541845
 30
0.0
  0
SPLINE
  5
388
100
AcDbEntity
  8
Layer_1
 62
7
100
AcDbSpline
 70
8
 71
3
 72
8
 73
4
 74
0
 40
0
 40
0
 40
0
 40
0
 40
1
 40
1
 40
1
 40
1
 10
103.576659
 20
181.447035
 30
0.0
 10
102.623293
 20
181.458219
 30
0.0
 10
102.364977
 20
181.263006
 30
0.0
 10
101.128158
 20
180.083329
 30
0.0
  0
LWPOLYLINE
  5
389
100
AcDbEntity
  8
Layer_1
 62
7
100
AcDbPolyline
 90
2
 70
0
 10
87.917734
 20
181.464123
 30
0.0
 10
87.917734
 20
181.464123
 30
0.0
  0
SPLINE
  5
38a
100
AcDbEntity
  8
Layer_1
 62
7
100
AcDbSpline
 70
8
 71
3
 72
8
 73
4
 74
0
 40
0
 40
0
 40
0
 40
0
 40
1
 40
1
 40
1
 40
1
 10
100.715851
 20
178.216914
 30
0.0
 10
101.304197
 20
177.968220
 30
0.0
 10
101.975708
 20
177.703030
 30
0.0
 10
102.208542
 20
177.627112
 30
0.0
  0
SPLINE
  5
38b
100
AcDbEntity
  8
Layer_1
 62
7
100
AcDbSpline
 70
8
 71
3
 72
8
 73
4
 74
0
 40
0
 40
0
 40
0
 40
0
 40
1
 40
1
 40
1
 40
1
 10
102.208542
 20
177.627112
 30
0.0
 10
103.445079
 20
177.224070
 30
0.0
 10
105.637228
 20
177.601373
 30
0.0
 10
106.913164
 20
178.437400
 30
0.0
  0
LWPOLYLINE
  5
38c
100
AcDbEntity
  8
Layer_1
 62
7
100
AcDbPolyline
 90
3
 70
0
 10
101.128158
 20
180.083329
 30
0.0
 10
99.645941
 20
178.669460
 30
0.0
 10
100.715851
 20
178.216914
 30
0.0
  0
SPLINE
  5
38d
100
AcDbEntity
  8
Layer_1
 62
7
100
AcDbSpline
 70
8
 71
3
 72
8
 73
4
 74
0
 40
0
 40
0
 40
0
 40
0
 40
1
 40
1
 40
1
 40
1
 10
106.808434
 20
179.655584
 30
0.0
 10
106.374176
 20
180.078748
 30
0.0
 10
105.891542
 20
180.636795
 30
0.0
 10
105.736319
 20
180.895818
 30
0.0
  0
SPLINE
  5
38e
100
AcDbEntity
  8
Layer_1
 62
7
100
AcDbSpline
 70
8
 71
3
 72
8
 73
4
 74
0
 40
0
 40
0
 40
0
 40
0
 40
1
 40
1
 40
1
 40
1
 10
105.736319
 20
180.895818
 30
0.0
 10
105.542681
 20
181.218934
 30
0.0
 10
105.008014
 20
181.386896
 30
0.0
 10
104.032513
 20
181.431600
 30
0.0
  0
SPLINE
  5
38f
100
AcDbEntity
  8
Layer_1
 62
7
100
AcDbSpline
 70
8
 71
3
 72
8
 73
4
 74
0
 40
0
 40
0
 40
0
 40
0
 40
1
 40
1
 40
1
 40
1
 10
104.032513
 20
181.431600
 30
0.0
 10
103.863053
 20
181.439364
 30
0.0
 10
103.712854
 20
181.445438
 30
0.0
 10
103.576659
 20
181.447035
 30
0.0
  0
LWPOLYLINE
  5
390
100
AcDbEntity
  8
Layer_1
 62
7
100
AcDbPolyline
 90
3
 70
0
 10
106.913164
 20
178.437400
 30
0.0
 10
107.597773
 20
178.886088
 30
0.0
 10
106.808434
 20
179.655584
 30
0.0
  0
SPLINE
  5
391
100
AcDbEntity
  8
Layer_1
 62
7
100
AcDbSpline
 70
8
 71
3
 72
8
 73
4
 74
0
 40
0
 40
0
 40
0
 40
0
 40
1
 40
1
 40
1
 40
1
 10
76.422140
 20
178.866796
 30
0.0
 10
75.892177
 20
178.881322
 30
0.0
 10
75.369968
 20
178.756373
 30
0.0
 10
74.989532
 20
178.478190
 30
0.0
  0
SPLINE
  5
392
100
AcDbEntity
  8
Layer_1
 62
7
100
AcDbSpline
 70
8
 71
3
 72
8
 73
4
 74
0
 40
0
 40
0
 40
0
 40
0
 40
1
 40
1
 40
1
 40
1
 10
74.989532
 20
178.478190
 30
0.0
 10
74.507530
 20
178.125722
 30
0.0
 10
74.554802
 20
178.024515
 30
0.0
 10
75.711623
 20
176.933133
 30
0.0
  0
SPLINE
  5
393
100
AcDbEntity
  8
Layer_1
 62
7
100
AcDbSpline
 70
8
 71
3
 72
8
 73
4
 74
0
 40
0
 40
0
 40
0
 40
0
 40
1
 40
1
 40
1
 40
1
 10
75.711623
 20
176.933133
 30
0.0
 10
76.392521
 20
176.290739
 30
0.0
 10
77.021027
 20
175.761894
 30
0.0
 10
77.108403
 20
175.757943
 30
0.0
  0
SPLINE
  5
394
100
AcDbEntity
  8
Layer_1
 62
7
100
AcDbSpline
 70
8
 71
3
 72
8
 73
4
 74
0
 40
0
 40
0
 40
0
 40
0
 40
1
 40
1
 40
1
 40
1
 10
77.108403
 20
175.757943
 30
0.0
 10
77.195779
 20
175.754076
 30
0.0
 10
77.631753
 20
176.131168
 30
0.0
 10
78.076888
 20
176.595790
 30
0.0
  0
LWPOLYLINE
  5
395
100
AcDbEntity
  8
Layer_1
 62
7
100
AcDbPolyline
 90
2
 70
0
 10
103.576659
 20
181.447035
 30
0.0
 10
103.576659
 20
181.447035
 30
0.0
  0
SPLINE
  5
396
100
AcDbEntity
  8
Layer_1
 62
7
100
AcDbSpline
 70
8
 71
3
 72
8
 73
4
 74
0
 40
0
 40
0
 40
0
 40
0
 40
1
 40
1
 40
1
 40
1
 10
78.221307
 20
178.148012
 30
0.0
 10
77.797671
 20
178.598955
 30
0.0
 10
77.103520
 20
178.848121
 30
0.0
 10
76.422140
 20
178.866796
 30
0.0
  0
LWPOLYLINE
  5
397
100
AcDbEntity
  8
Layer_1
 62
7
100
AcDbPolyline
 90
3
 70
0
 10
78.076888
 20
176.595790
 30
0.0
 10
78.886073
 20
177.440250
 30
0.0
 10
78.221307
 20
178.148012
 30
0.0
  0
SPLINE
  5
398
100
AcDbEntity
  8
Layer_1
 62
7
100
AcDbSpline
 70
8
 71
3
 72
8
 73
4
 74
0
 40
0
 40
0
 40
0
 40
0
 40
1
 40
1
 40
1
 40
1
 10
113.553655
 20
178.267624
 30
0.0
 10
112.971907
 20
178.263732
 30
0.0
 10
112.373901
 20
178.021825
 30
0.0
 10
111.808508
 20
177.546083
 30
0.0
  0
LWPOLYLINE
  5
399
100
AcDbEntity
  8
Layer_1
 62
7
100
AcDbPolyline
 90
2
 70
0
 10
76.422140
 20
178.866796
 30
0.0
 10
76.422140
 20
178.866796
 30
0.0
  0
SPLINE
  5
39a
100
AcDbEntity
  8
Layer_1
 62
7
100
AcDbSpline
 70
8
 71
3
 72
8
 73
4
 74
0
 40
0
 40
0
 40
0
 40
0
 40
1
 40
1
 40
1
 40
1
 10
113.780756
 20
175.751878
 30
0.0
 10
115.478636
 20
177.096639
 30
0.0
 10
115.596989
 20
177.325535
 30
0.0
 10
114.859483
 20
177.842086
 30
0.0
  0
SPLINE
  5
39b
100
AcDbEntity
  8
Layer_1
 62
7
100
AcDbSpline
 70
8
 71
3
 72
8
 73
4
 74
0
 40
0
 40
0
 40
0
 40
0
 40
1
 40
1
 40
1
 40
1
 10
114.859483
 20
177.842086
 30
0.0
 10
114.449078
 20
178.129555
 30
0.0
 10
114.006125
 20
178.270652
 30
0.0
 10
113.553655
 20
178.267624
 30
0.0
  0
LWPOLYLINE
  5
39c
100
AcDbEntity
  8
Layer_1
 62
7
100
AcDbPolyline
 90
5
 70
0
 10
111.808508
 20
177.546083
 30
0.0
 10
110.923256
 20
176.800842
 30
0.0
 10
111.831659
 20
175.863776
 30
0.0
 10
112.739509
 20
174.927261
 30
0.0
 10
113.780756
 20
175.751878
 30
0.0
  0
SPLINE
  5
39d
100
AcDbEntity
  8
Layer_1
 62
7
100
AcDbSpline
 70
8
 71
3
 72
8
 73
4
 74
0
 40
0
 40
0
 40
0
 40
0
 40
1
 40
1
 40
1
 40
1
 10
73.699136
 20
177.172912
 30
0.0
 10
73.453665
 20
177.147806
 30
0.0
 10
73.700877
 20
176.639580
 30
0.0
 10
74.597618
 20
175.800937
 30
0.0
  0
SPLINE
  5
39e
100
AcDbEntity
  8
Layer_1
 62
7
100
AcDbSpline
 70
8
 71
3
 72
8
 73
4
 74
0
 40
0
 40
0
 40
0
 40
0
 40
1
 40
1
 40
1
 40
1
 10
74.597618
 20
175.800937
 30
0.0
 10
75.331949
 20
175.114177
 30
0.0
 10
75.924037
 20
174.759046
 30
0.0
 10
76.079285
 20
174.912377
 30
0.0
  0
SPLINE
  5
39f
100
AcDbEntity
  8
Layer_1
 62
7
100
AcDbSpline
 70
8
 71
3
 72
8
 73
4
 74
0
 40
0
 40
0
 40
0
 40
0
 40
1
 40
1
 40
1
 40
1
 10
76.079285
 20
174.912377
 30
0.0
 10
76.235015
 20
175.066188
 30
0.0
 10
75.841995
 20
175.610995
 30
0.0
 10
75.091507
 20
176.282148
 30
0.0
  0
SPLINE
  5
3a0
100
AcDbEntity
  8
Layer_1
 62
7
100
AcDbSpline
 70
8
 71
3
 72
8
 73
4
 74
0
 40
0
 40
0
 40
0
 40
0
 40
1
 40
1
 40
1
 40
1
 10
75.091507
 20
176.282148
 30
0.0
 10
74.378766
 20
176.919547
 30
0.0
 10
73.890059
 20
177.192436
 30
0.0
 10
73.699136
 20
177.172912
 30
0.0
  0
LWPOLYLINE
  5
3a1
100
AcDbEntity
  8
Layer_1
 62
7
100
AcDbPolyline
 90
2
 70
0
 10
113.553655
 20
178.267624
 30
0.0
 10
113.553655
 20
178.267624
 30
0.0
  0
SPLINE
  5
3a2
100
AcDbEntity
  8
Layer_1
 62
7
100
AcDbSpline
 70
8
 71
3
 72
8
 73
4
 74
0
 40
0
 40
0
 40
0
 40
0
 40
1
 40
1
 40
1
 40
1
 10
116.065543
 20
176.353254
 30
0.0
 10
115.566958
 20
176.395283
 30
0.0
 10
113.497431
 20
174.797332
 30
0.0
 10
113.497431
 20
174.317616
 30
0.0
  0
SPLINE
  5
3a3
100
AcDbEntity
  8
Layer_1
 62
7
100
AcDbSpline
 70
8
 71
3
 72
8
 73
4
 74
0
 40
0
 40
0
 40
0
 40
0
 40
1
 40
1
 40
1
 40
1
 10
113.497431
 20
174.317616
 30
0.0
 10
113.497431
 20
173.801883
 30
0.0
 10
114.224280
 20
174.099916
 30
0.0
 10
115.313686
 20
175.061757
 30
0.0
  0
SPLINE
  5
3a4
100
AcDbEntity
  8
Layer_1
 62
7
100
AcDbSpline
 70
8
 71
3
 72
8
 73
4
 74
0
 40
0
 40
0
 40
0
 40
0
 40
1
 40
1
 40
1
 40
1
 10
115.313686
 20
175.061757
 30
0.0
 10
116.049298
 20
175.711263
 30
0.0
 10
116.329059
 20
176.136600
 30
0.0
 10
116.143264
 20
176.322387
 30
0.0
  0
SPLINE
  5
3a5
100
AcDbEntity
  8
Layer_1
 62
7
100
AcDbSpline
 70
8
 71
3
 72
8
 73
4
 74
0
 40
0
 40
0
 40
0
 40
0
 40
1
 40
1
 40
1
 40
1
 10
116.143264
 20
176.322387
 30
0.0
 10
116.125069
 20
176.340582
 30
0.0
 10
116.098783
 20
176.350452
 30
0.0
 10
116.065543
 20
176.353254
 30
0.0
  0
LWPOLYLINE
  5
3a6
100
AcDbEntity
  8
Layer_1
 62
7
100
AcDbPolyline
 90
2
 70
0
 10
73.699136
 20
177.172912
 30
0.0
 10
73.699136
 20
177.172912
 30
0.0
  0
SPLINE
  5
3a7
100
AcDbEntity
  8
Layer_1
 62
7
100
AcDbSpline
 70
8
 71
3
 72
8
 73
4
 74
0
 40
0
 40
0
 40
0
 40
0
 40
1
 40
1
 40
1
 40
1
 10
72.964918
 20
176.336165
 30
0.0
 10
72.620254
 20
176.363820
 30
0.0
 10
72.243270
 20
176.097428
 30
0.0
 10
71.481047
 20
175.565016
 30
0.0
  0
SPLINE
  5
3a8
100
AcDbEntity
  8
Layer_1
 62
7
100
AcDbSpline
 70
8
 71
3
 72
8
 73
4
 74
0
 40
0
 40
0
 40
0
 40
0
 40
1
 40
1
 40
1
 40
1
 10
71.481047
 20
175.565016
 30
0.0
 10
71.422356
 20
175.524037
 30
0.0
 10
71.993856
 20
174.793917
 30
0.0
 10
72.751047
 20
173.942791
 30
0.0
  0
SPLINE
  5
3a9
100
AcDbEntity
  8
Layer_1
 62
7
100
AcDbSpline
 70
8
 71
3
 72
8
 73
4
 74
0
 40
0
 40
0
 40
0
 40
0
 40
1
 40
1
 40
1
 40
1
 10
72.751047
 20
173.942791
 30
0.0
 10
73.508241
 20
173.091665
 30
0.0
 10
74.219500
 20
172.388562
 30
0.0
 10
74.331932
 20
172.380096
 30
0.0
  0
SPLINE
  5
3aa
100
AcDbEntity
  8
Layer_1
 62
7
100
AcDbSpline
 70
8
 71
3
 72
8
 73
4
 74
0
 40
0
 40
0
 40
0
 40
0
 40
1
 40
1
 40
1
 40
1
 10
74.331932
 20
172.380096
 30
0.0
 10
74.444363
 20
172.371516
 30
0.0
 10
74.741154
 20
172.760926
 30
0.0
 10
74.991736
 20
173.245502
 30
0.0
  0
LWPOLYLINE
  5
3ab
100
AcDbEntity
  8
Layer_1
 62
7
100
AcDbPolyline
 90
2
 70
0
 10
116.065543
 20
176.353254
 30
0.0
 10
116.065543
 20
176.353254
 30
0.0
  0
SPLINE
  5
3ac
100
AcDbEntity
  8
Layer_1
 62
7
100
AcDbSpline
 70
8
 71
3
 72
8
 73
4
 74
0
 40
0
 40
0
 40
0
 40
0
 40
1
 40
1
 40
1
 40
1
 10
74.254210
 20
175.342326
 30
0.0
 10
73.621883
 20
175.986625
 30
0.0
 10
73.309579
 20
176.308513
 30
0.0
 10
72.964918
 20
176.336165
 30
0.0
  0
LWPOLYLINE
  5
3ad
100
AcDbEntity
  8
Layer_1
 62
7
100
AcDbPolyline
 90
3
 70
0
 10
74.991736
 20
173.245502
 30
0.0
 10
75.447590
 20
174.126346
 30
0.0
 10
74.254210
 20
175.342326
 30
0.0
  0
LWPOLYLINE
  5
3ae
100
AcDbEntity
  8
Layer_1
 62
7
100
AcDbPolyline
 90
2
 70
0
 10
72.964918
 20
176.336165
 30
0.0
 10
72.964918
 20
176.336165
 30
0.0
  0
SPLINE
  5
3af
100
AcDbEntity
  8
Layer_1
 62
7
100
AcDbSpline
 70
8
 71
3
 72
8
 73
4
 74
0
 40
0
 40
0
 40
0
 40
0
 40
1
 40
1
 40
1
 40
1
 10
115.577166
 20
174.547472
 30
0.0
 10
114.237479
 20
173.281677
 30
0.0
 10
114.235986
 20
173.277294
 30
0.0
 10
114.719475
 20
172.539396
 30
0.0
  0
SPLINE
  5
3b0
100
AcDbEntity
  8
Layer_1
 62
7
100
AcDbSpline
 70
8
 71
3
 72
8
 73
4
 74
0
 40
0
 40
0
 40
0
 40
0
 40
1
 40
1
 40
1
 40
1
 10
114.719475
 20
172.539396
 30
0.0
 10
114.985964
 20
172.132686
 30
0.0
 10
115.300847
 20
171.799666
 30
0.0
 10
115.419519
 20
171.799666
 30
0.0
  0
SPLINE
  5
3b1
100
AcDbEntity
  8
Layer_1
 62
7
100
AcDbSpline
 70
8
 71
3
 72
8
 73
4
 74
0
 40
0
 40
0
 40
0
 40
0
 40
1
 40
1
 40
1
 40
1
 10
115.419519
 20
171.799666
 30
0.0
 10
115.538194
 20
171.799666
 30
0.0
 10
116.236434
 20
172.410237
 30
0.0
 10
116.971188
 20
173.156207
 30
0.0
  0
LWPOLYLINE
  5
3b2
100
AcDbEntity
  8
Layer_1
 62
7
100
AcDbPolyline
 90
2
 70
0
 10
116.919925
 20
175.815818
 30
0.0
 10
115.577166
 20
174.547472
 30
0.0
  0
LWPOLYLINE
  5
3b3
100
AcDbEntity
  8
Layer_1
 62
7
100
AcDbPolyline
 90
5
 70
0
 10
116.971188
 20
173.156207
 30
0.0
 10
118.307335
 20
174.512747
 30
0.0
 10
117.613354
 20
175.164283
 30
0.0
 10
116.919925
 20
175.815818
 30
0.0
 10
116.919925
 20
175.815818
 30
0.0
  0
ENDSEC
  0
SECTION
  2
OBJECTS
  0
DICTIONARY
  5
C
330
0
100
AcDbDictionary
  3
ACAD_GROUP
350
D
  3
ACAD_MLINESTYLE
350
17
  0
DICTIONARY
  5
D
330
C
100
AcDbDictionary
  0
DICTIONARY
  5
1A
330
C
100
AcDbDictionary
  0
DICTIONARY
  5
17
330
C
100
AcDbDictionary
  3
STANDARD
350
18
  0
DICTIONARY
  5
19
330
C
100
AcDbDictionary
  0
ENDSEC
  0
EOF
