  0
SECTION
  2
HEADER
  9
$ACADVER
  1
AC1014
  9
$HANDSEED
  5
FFFF
  9
$MEASUREMENT
 70
     1
  0
ENDSEC
  0
SECTION
  2
TABLES
  0
TABLE
  2
VPORT
  5
8
330
0
100
AcDbSymbolTable
 70
     4
  0
VPORT
  5
2E
330
8
100
AcDbSymbolTableRecord
100
AcDbViewportTableRecord
  2
*ACTIVE
 70
     0
 10
0.0
 20
0.0
 11
1.0
 21
1.0
 12
210.0
 22
148.5
 13
0.0
 23
0.0
 14
10.0
 24
10.0
 15
10.0
 25
10.0
 16
0.0
 26
0.0
 36
1.0
 17
0.0
 27
0.0
 37
0.0
 40
341.0
 41
1.24
 42
50.0
 43
0.0
 44
0.0
 50
0.0
 51
0.0
 71
     0
 72
   100
 73
     1
 74
     3
 75
     0
 76
     0
 77
     0
 78
     0
  0
ENDTAB
  0
TABLE
  2
LTYPE
  5
5
330
0
100
AcDbSymbolTable
 70
     1
  0
LTYPE
  5
14
330
5
100
AcDbSymbolTableRecord
100
AcDbLinetypeTableRecord
  2
BYBLOCK
 70
     0
  3

 72
    65
 73
     0
 40
0.0
  0
LTYPE
  5
15
330
5
100
AcDbSymbolTableRecord
100
AcDbLinetypeTableRecord
  2
BYLAYER
 70
     0
  3

 72
    65
 73
     0
 40
0.0
  0
LTYPE
  5
16
330
5
100
AcDbSymbolTableRecord
100
AcDbLinetypeTableRecord
  2
CONTINUOUS
 70
     0
  3
Solid line
 72
    65
 73
     0
 40
0.0
  0
ENDTAB
  0
TABLE
  2
LAYER
  5
2
100
AcDbSymbolTable
 70
2
  0
LAYER
  5
50
100
AcDbSymbolTableRecord
100
AcDbLayerTableRecord
  2
0
 70
0
  6
CONTINUOUS
  0
LAYER
  5
51
100
AcDbSymbolTableRecord
100
AcDbLayerTableRecord
  2
Layer_1
 70
0
  6
CONTINUOUS
  0
ENDTAB
  0
TABLE
  2
STYLE
  5
3
330
0
100
AcDbSymbolTable
 70
     1
  0
STYLE
  5
11
330
3
100
AcDbSymbolTableRecord
100
AcDbTextStyleTableRecord
  2
STANDARD
 70
     0
 40
0.0
 41
1.0
 50
0.0
 71
     0
 42
2.5
  3
txt
  4

  0
ENDTAB
  0
TABLE
  2
VIEW
  5
6
330
0
100
AcDbSymbolTable
 70
     0
  0
ENDTAB
  0
TABLE
  2
UCS
  5
7
330
0
100
AcDbSymbolTable
 70
     0
  0
ENDTAB
  0
TABLE
  2
APPID
  5
9
330
0
100
AcDbSymbolTable
 70
     2
  0
APPID
  5
12
330
9
100
AcDbSymbolTableRecord
100
AcDbRegAppTableRecord
  2
ACAD
 70
     0
  0
ENDTAB
  0
TABLE
  2
DIMSTYLE
  5
A
330
0
100
AcDbSymbolTable
 70
     1
  0
DIMSTYLE
105
27
330
A
100
AcDbSymbolTableRecord
100
AcDbDimStyleTableRecord
  2
ISO-25
 70
     0
  3

  4

  5

  6

  7

 40
1.0
 41
2.5
 42
0.625
 43
3.75
 44
1.25
 45
0.0
 46
0.0
 47
0.0
 48
0.0
140
2.5
141
2.5
142
0.0
143
0.03937007874016
144
1.0
145
0.0
146
1.0
147
0.625
 71
     0
 72
     0
 73
     0
 74
     0
 75
     0
 76
     0
 77
     1
 78
     8
170
     0
171
     3
172
     1
173
     0
174
     0
175
     0
176
     0
177
     0
178
     0
270
     2
271
     2
272
     2
273
     2
274
     3
340
11
275
     0
280
     0
281
     0
282
     0
283
     0
284
     8
285
     0
286
     0
287
     3
288
     0
  0
ENDTAB
  0
TABLE
  2
BLOCK_RECORD
  5
1
330
0
100
AcDbSymbolTable
 70
     1
  0
BLOCK_RECORD
  5
1F
330
1
100
AcDbSymbolTableRecord
100
AcDbBlockTableRecord
  2
*MODEL_SPACE
  0
BLOCK_RECORD
  5
1B
330
1
100
AcDbSymbolTableRecord
100
AcDbBlockTableRecord
  2
*PAPER_SPACE
  0
ENDTAB
  0
ENDSEC
  0
SECTION
  2
BLOCKS
  0
BLOCK
  5
20
330
1F
100
AcDbEntity
  8
0
100
AcDbBlockBegin
  2
*MODEL_SPACE
 70
     0
 10
0.0
 20
0.0
 30
0.0
  3
*MODEL_SPACE
  1

  0
ENDBLK
  5
21
330
1F
100
AcDbEntity
  8
0
100
AcDbBlockEnd
  0
BLOCK
  5
1C
330
1B
100
AcDbEntity
 67
     1
  8
0
100
AcDbBlockBegin
  2
*PAPER_SPACE
  1

  0
ENDBLK
  5
1D
330
1B
100
AcDbEntity
 67
     1
  8
0
100
AcDbBlockEnd
  0
ENDSEC
  0
SECTION
  2
ENTITIES
  0
SPLINE
  5
100
100
AcDbEntity
  8
Layer_1
 62
1
100
AcDbSpline
 70
8
 71
3
 72
8
 73
4
 74
0
 40
0
 40
0
 40
0
 40
0
 40
1
 40
1
 40
1
 40
1
 10
67.997169
 20
192.954397
 30
0.0
 10
68.455567
 20
192.932075
 30
0.0
 10
68.825358
 20
192.892427
 30
0.0
 10
69.104866
 20
192.836524
 30
0.0
  0
SPLINE
  5
101
100
AcDbEntity
  8
Layer_1
 62
1
100
AcDbSpline
 70
8
 71
3
 72
8
 73
4
 74
0
 40
0
 40
0
 40
0
 40
0
 40
1
 40
1
 40
1
 40
1
 10
69.104866
 20
192.836524
 30
0.0
 10
69.384381
 20
192.780653
 30
0.0
 10
69.597020
 20
192.692097
 30
0.0
 10
69.742368
 20
192.569104
 30
0.0
  0
SPLINE
  5
102
100
AcDbEntity
  8
Layer_1
 62
1
100
AcDbSpline
 70
8
 71
3
 72
8
 73
4
 74
0
 40
0
 40
0
 40
0
 40
0
 40
1
 40
1
 40
1
 40
1
 10
69.742368
 20
192.569104
 30
0.0
 10
69.898909
 20
192.457305
 30
0.0
 10
69.999294
 20
192.312009
 30
0.0
 10
70.044004
 20
192.133126
 30
0.0
  0
SPLINE
  5
103
100
AcDbEntity
  8
Layer_1
 62
1
100
AcDbSpline
 70
8
 71
3
 72
8
 73
4
 74
0
 40
0
 40
0
 40
0
 40
0
 40
1
 40
1
 40
1
 40
1
 10
70.044004
 20
192.133126
 30
0.0
 10
70.088713
 20
191.954236
 30
0.0
 10
70.111172
 20
191.729742
 30
0.0
 10
70.111172
 20
191.461408
 30
0.0
  0
LWPOLYLINE
  5
104
100
AcDbEntity
  8
Layer_1
 62
1
100
AcDbPolyline
 90
2
 70
1
 10
68.031367
 20
193.591892
 30
0.0
 10
67.997169
 20
192.954397
 30
0.0
  0
SPLINE
  5
105
100
AcDbEntity
  8
Layer_1
 62
1
100
AcDbSpline
 70
8
 71
3
 72
8
 73
4
 74
0
 40
0
 40
0
 40
0
 40
0
 40
1
 40
1
 40
1
 40
1
 10
70.111172
 20
180.242487
 30
0.0
 10
70.111172
 20
179.817630
 30
0.0
 10
70.083464
 20
179.470299
 30
0.0
 10
70.027528
 20
179.201964
 30
0.0
  0
SPLINE
  5
106
100
AcDbEntity
  8
Layer_1
 62
1
100
AcDbSpline
 70
8
 71
3
 72
8
 73
4
 74
0
 40
0
 40
0
 40
0
 40
0
 40
1
 40
1
 40
1
 40
1
 10
70.027528
 20
179.201964
 30
0.0
 10
69.971593
 20
178.944811
 30
0.0
 10
69.864673
 20
178.738732
 30
0.0
 10
69.708145
 20
178.582210
 30
0.0
  0
SPLINE
  5
107
100
AcDbEntity
  8
Layer_1
 62
1
100
AcDbSpline
 70
8
 71
3
 72
8
 73
4
 74
0
 40
0
 40
0
 40
0
 40
0
 40
1
 40
1
 40
1
 40
1
 10
69.708145
 20
178.582210
 30
0.0
 10
69.562797
 20
178.436856
 30
0.0
 10
69.356718
 20
178.324609
 30
0.0
 10
69.088390
 20
178.246351
 30
0.0
  0
SPLINE
  5
108
100
AcDbEntity
  8
Layer_1
 62
1
100
AcDbSpline
 70
8
 71
3
 72
8
 73
4
 74
0
 40
0
 40
0
 40
0
 40
0
 40
1
 40
1
 40
1
 40
1
 10
69.088390
 20
178.246351
 30
0.0
 10
68.820063
 20
178.179248
 30
0.0
 10
68.467429
 20
178.129055
 30
0.0
 10
68.031393
 20
178.095533
 30
0.0
  0
LWPOLYLINE
  5
109
100
AcDbEntity
  8
Layer_1
 62
1
100
AcDbPolyline
 90
2
 70
1
 10
70.111172
 20
191.461408
 30
0.0
 10
70.111172
 20
180.242487
 30
0.0
  0
SPLINE
  5
10a
100
AcDbEntity
  8
Layer_1
 62
1
100
AcDbSpline
 70
8
 71
3
 72
8
 73
4
 74
0
 40
0
 40
0
 40
0
 40
0
 40
1
 40
1
 40
1
 40
1
 10
68.652399
 20
177.492255
 30
0.0
 10
68.887185
 20
177.503416
 30
0.0
 10
69.132866
 20
177.508737
 30
0.0
 10
69.390020
 20
177.508737
 30
0.0
  0
LWPOLYLINE
  5
10b
100
AcDbEntity
  8
Layer_1
 62
1
100
AcDbPolyline
 90
3
 70
1
 10
68.031393
 20
178.095533
 30
0.0
 10
68.082072
 20
177.492255
 30
0.0
 10
68.652399
 20
177.492255
 30
0.0
  0
SPLINE
  5
10c
100
AcDbEntity
  8
Layer_1
 62
1
100
AcDbSpline
 70
8
 71
3
 72
8
 73
4
 74
0
 40
0
 40
0
 40
0
 40
0
 40
1
 40
1
 40
1
 40
1
 10
70.245508
 20
177.508737
 30
0.0
 10
70.558558
 20
177.519898
 30
0.0
 10
70.826691
 20
177.525219
 30
0.0
 10
71.050296
 20
177.525219
 30
0.0
  0
SPLINE
  5
10d
100
AcDbEntity
  8
Layer_1
 62
1
100
AcDbSpline
 70
8
 71
3
 72
8
 73
4
 74
0
 40
0
 40
0
 40
0
 40
0
 40
1
 40
1
 40
1
 40
1
 10
71.050296
 20
177.525219
 30
0.0
 10
71.318631
 20
177.525219
 30
0.0
 10
71.631655
 20
177.520028
 30
0.0
 10
71.989434
 20
177.508737
 30
0.0
  0
LWPOLYLINE
  5
10e
100
AcDbEntity
  8
Layer_1
 62
1
100
AcDbPolyline
 90
2
 70
1
 10
69.390020
 20
177.508737
 30
0.0
 10
70.245508
 20
177.508737
 30
0.0
  0
SPLINE
  5
10f
100
AcDbEntity
  8
Layer_1
 62
1
100
AcDbSpline
 70
8
 71
3
 72
8
 73
4
 74
0
 40
0
 40
0
 40
0
 40
0
 40
1
 40
1
 40
1
 40
1
 10
72.977992
 20
177.508737
 30
0.0
 10
73.279868
 20
177.508737
 30
0.0
 10
73.559850
 20
177.503545
 30
0.0
 10
73.817004
 20
177.492255
 30
0.0
  0
LWPOLYLINE
  5
110
100
AcDbEntity
  8
Layer_1
 62
1
100
AcDbPolyline
 90
2
 70
1
 10
71.989434
 20
177.508737
 30
0.0
 10
72.977992
 20
177.508737
 30
0.0
  0
SPLINE
  5
111
100
AcDbEntity
  8
Layer_1
 62
1
100
AcDbSpline
 70
8
 71
3
 72
8
 73
4
 74
0
 40
0
 40
0
 40
0
 40
0
 40
1
 40
1
 40
1
 40
1
 10
74.521654
 20
178.129750
 30
0.0
 10
74.052076
 20
178.152072
 30
0.0
 10
73.676990
 20
178.190422
 30
0.0
 10
73.397482
 20
178.246351
 30
0.0
  0
SPLINE
  5
112
100
AcDbEntity
  8
Layer_1
 62
1
100
AcDbSpline
 70
8
 71
3
 72
8
 73
4
 74
0
 40
0
 40
0
 40
0
 40
0
 40
1
 40
1
 40
1
 40
1
 10
73.397482
 20
178.246351
 30
0.0
 10
73.117967
 20
178.302222
 30
0.0
 10
72.900033
 20
178.386754
 30
0.0
 10
72.743511
 20
178.498560
 30
0.0
  0
SPLINE
  5
113
100
AcDbEntity
  8
Layer_1
 62
1
100
AcDbSpline
 70
8
 71
3
 72
8
 73
4
 74
0
 40
0
 40
0
 40
0
 40
0
 40
1
 40
1
 40
1
 40
1
 10
72.743511
 20
178.498560
 30
0.0
 10
72.598144
 20
178.621547
 30
0.0
 10
72.503054
 20
178.772131
 30
0.0
 10
72.458344
 20
178.951021
 30
0.0
  0
SPLINE
  5
114
100
AcDbEntity
  8
Layer_1
 62
1
100
AcDbSpline
 70
8
 71
3
 72
8
 73
4
 74
0
 40
0
 40
0
 40
0
 40
0
 40
1
 40
1
 40
1
 40
1
 10
72.458344
 20
178.951021
 30
0.0
 10
72.413635
 20
179.129904
 30
0.0
 10
72.391176
 20
179.353133
 30
0.0
 10
72.391176
 20
179.621467
 30
0.0
  0
LWPOLYLINE
  5
115
100
AcDbEntity
  8
Layer_1
 62
1
100
AcDbPolyline
 90
3
 70
1
 10
73.817004
 20
177.492255
 30
0.0
 10
74.487457
 20
177.492255
 30
0.0
 10
74.521654
 20
178.129750
 30
0.0
  0
SPLINE
  5
116
100
AcDbEntity
  8
Layer_1
 62
1
100
AcDbSpline
 70
8
 71
3
 72
8
 73
4
 74
0
 40
0
 40
0
 40
0
 40
0
 40
1
 40
1
 40
1
 40
1
 10
72.391176
 20
190.858136
 30
0.0
 10
72.391176
 20
191.271811
 30
0.0
 10
72.420182
 20
191.607287
 30
0.0
 10
72.476092
 20
191.864441
 30
0.0
  0
SPLINE
  5
117
100
AcDbEntity
  8
Layer_1
 62
1
100
AcDbSpline
 70
8
 71
3
 72
8
 73
4
 74
0
 40
0
 40
0
 40
0
 40
0
 40
1
 40
1
 40
1
 40
1
 10
72.476092
 20
191.864441
 30
0.0
 10
72.532027
 20
192.132769
 30
0.0
 10
72.637675
 20
192.340113
 30
0.0
 10
72.794203
 20
192.485461
 30
0.0
  0
SPLINE
  5
118
100
AcDbEntity
  8
Layer_1
 62
1
100
AcDbSpline
 70
8
 71
3
 72
8
 73
4
 74
0
 40
0
 40
0
 40
0
 40
0
 40
1
 40
1
 40
1
 40
1
 10
72.794203
 20
192.485461
 30
0.0
 10
72.950725
 20
192.641983
 30
0.0
 10
73.163364
 20
192.752971
 30
0.0
 10
73.431699
 20
192.820048
 30
0.0
  0
SPLINE
  5
119
100
AcDbEntity
  8
Layer_1
 62
1
100
AcDbSpline
 70
8
 71
3
 72
8
 73
4
 74
0
 40
0
 40
0
 40
0
 40
0
 40
1
 40
1
 40
1
 40
1
 10
73.431699
 20
192.820048
 30
0.0
 10
73.700026
 20
192.898332
 30
0.0
 10
74.051394
 20
192.955085
 30
0.0
 10
74.487438
 20
192.988614
 30
0.0
  0
LWPOLYLINE
  5
11a
100
AcDbEntity
  8
Layer_1
 62
1
100
AcDbPolyline
 90
2
 70
1
 10
72.391176
 20
179.621467
 30
0.0
 10
72.391176
 20
190.858136
 30
0.0
  0
SPLINE
  5
11b
100
AcDbEntity
  8
Layer_1
 62
1
100
AcDbSpline
 70
8
 71
3
 72
8
 73
4
 74
0
 40
0
 40
0
 40
0
 40
0
 40
1
 40
1
 40
1
 40
1
 10
74.437991
 20
193.591892
 30
0.0
 10
74.281469
 20
193.591892
 30
0.0
 10
74.085987
 20
193.586701
 30
0.0
 10
73.851195
 20
193.575410
 30
0.0
  0
LWPOLYLINE
  5
11c
100
AcDbEntity
  8
Layer_1
 62
1
100
AcDbPolyline
 90
2
 70
1
 10
74.487438
 20
192.988614
 30
0.0
 10
74.437991
 20
193.591892
 30
0.0
  0
SPLINE
  5
11d
100
AcDbEntity
  8
Layer_1
 62
1
100
AcDbSpline
 70
8
 71
3
 72
8
 73
4
 74
0
 40
0
 40
0
 40
0
 40
0
 40
1
 40
1
 40
1
 40
1
 10
73.130050
 20
193.575410
 30
0.0
 10
72.872896
 20
193.575410
 30
0.0
 10
72.610064
 20
193.568791
 30
0.0
 10
72.341730
 20
193.557630
 30
0.0
  0
LWPOLYLINE
  5
11e
100
AcDbEntity
  8
Layer_1
 62
1
100
AcDbPolyline
 90
2
 70
1
 10
73.851195
 20
193.575410
 30
0.0
 10
73.130050
 20
193.575410
 30
0.0
  0
SPLINE
  5
11f
100
AcDbEntity
  8
Layer_1
 62
1
100
AcDbSpline
 70
8
 71
3
 72
8
 73
4
 74
0
 40
0
 40
0
 40
0
 40
0
 40
1
 40
1
 40
1
 40
1
 10
70.496412
 20
193.557630
 30
0.0
 10
70.138640
 20
193.568791
 30
0.0
 10
69.808452
 20
193.575410
 30
0.0
 10
69.506582
 20
193.575410
 30
0.0
  0
LWPOLYLINE
  5
120
100
AcDbEntity
  8
Layer_1
 62
1
100
AcDbPolyline
 90
3
 70
1
 10
72.341730
 20
193.557630
 30
0.0
 10
71.452026
 20
193.557630
 30
0.0
 10
70.496412
 20
193.557630
 30
0.0
  0
SPLINE
  5
121
100
AcDbEntity
  8
Layer_1
 62
1
100
AcDbSpline
 70
8
 71
3
 72
8
 73
4
 74
0
 40
0
 40
0
 40
0
 40
0
 40
1
 40
1
 40
1
 40
1
 10
68.685318
 20
193.575410
 30
0.0
 10
68.428164
 20
193.586571
 30
0.0
 10
68.210237
 20
193.591892
 30
0.0
 10
68.031347
 20
193.591892
 30
0.0
  0
LWPOLYLINE
  5
122
100
AcDbEntity
  8
Layer_1
 62
1
100
AcDbPolyline
 90
2
 70
1
 10
69.506582
 20
193.575410
 30
0.0
 10
68.685318
 20
193.575410
 30
0.0
  0
SPLINE
  5
123
100
AcDbEntity
  8
Layer_1
 62
1
100
AcDbSpline
 70
8
 71
3
 72
8
 73
4
 74
0
 40
0
 40
0
 40
0
 40
0
 40
1
 40
1
 40
1
 40
1
 10
131.167587
 20
192.413218
 30
0.0
 10
131.153635
 20
192.416463
 30
0.0
 10
131.138451
 20
192.409974
 30
0.0
 10
131.121969
 20
192.392973
 30
0.0
  0
SPLINE
  5
124
100
AcDbEntity
  8
Layer_1
 62
1
100
AcDbSpline
 70
8
 71
3
 72
8
 73
4
 74
0
 40
0
 40
0
 40
0
 40
0
 40
1
 40
1
 40
1
 40
1
 10
131.121969
 20
192.392973
 30
0.0
 10
129.612290
 20
190.816749
 30
0.0
 10
127.673407
 20
191.569255
 30
0.0
 10
126.398410
 20
190.532445
 30
0.0
  0
SPLINE
  5
125
100
AcDbEntity
  8
Layer_1
 62
1
100
AcDbSpline
 70
8
 71
3
 72
8
 73
4
 74
0
 40
0
 40
0
 40
0
 40
0
 40
1
 40
1
 40
1
 40
1
 10
126.398410
 20
190.532445
 30
0.0
 10
125.440415
 20
189.753093
 30
0.0
 10
124.853158
 20
188.313035
 30
0.0
 10
125.042307
 20
187.176403
 30
0.0
  0
SPLINE
  5
126
100
AcDbEntity
  8
Layer_1
 62
1
100
AcDbSpline
 70
8
 71
3
 72
8
 73
4
 74
0
 40
0
 40
0
 40
0
 40
0
 40
1
 40
1
 40
1
 40
1
 10
125.042307
 20
187.176403
 30
0.0
 10
125.042307
 20
187.176403
 30
0.0
 10
124.971940
 20
187.041490
 30
0.0
 10
124.052477
 20
186.901379
 30
0.0
  0
SPLINE
  5
127
100
AcDbEntity
  8
Layer_1
 62
1
100
AcDbSpline
 70
8
 71
3
 72
8
 73
4
 74
0
 40
0
 40
0
 40
0
 40
0
 40
1
 40
1
 40
1
 40
1
 10
124.052477
 20
186.901379
 30
0.0
 10
123.742483
 20
186.854074
 30
0.0
 10
123.874385
 20
186.185464
 30
0.0
 10
124.133590
 20
186.216987
 30
0.0
  0
SPLINE
  5
128
100
AcDbEntity
  8
Layer_1
 62
1
100
AcDbSpline
 70
8
 71
3
 72
8
 73
4
 74
0
 40
0
 40
0
 40
0
 40
0
 40
1
 40
1
 40
1
 40
1
 10
124.133590
 20
186.216987
 30
0.0
 10
124.133590
 20
186.216987
 30
0.0
 10
124.497624
 20
186.203490
 30
0.0
 10
125.234946
 20
186.431177
 30
0.0
  0
SPLINE
  5
129
100
AcDbEntity
  8
Layer_1
 62
1
100
AcDbSpline
 70
8
 71
3
 72
8
 73
4
 74
0
 40
0
 40
0
 40
0
 40
0
 40
1
 40
1
 40
1
 40
1
 10
125.234946
 20
186.431177
 30
0.0
 10
125.234946
 20
186.431177
 30
0.0
 10
125.518575
 20
186.093391
 30
0.0
 10
125.923140
 20
185.907746
 30
0.0
  0
SPLINE
  5
12a
100
AcDbEntity
  8
Layer_1
 62
1
100
AcDbSpline
 70
8
 71
3
 72
8
 73
4
 74
0
 40
0
 40
0
 40
0
 40
0
 40
1
 40
1
 40
1
 40
1
 10
125.923140
 20
185.907746
 30
0.0
 10
126.369735
 20
185.704588
 30
0.0
 10
127.997482
 20
185.322053
 30
0.0
 10
129.379308
 20
186.565520
 30
0.0
  0
SPLINE
  5
12b
100
AcDbEntity
  8
Layer_1
 62
1
100
AcDbSpline
 70
8
 71
3
 72
8
 73
4
 74
0
 40
0
 40
0
 40
0
 40
0
 40
1
 40
1
 40
1
 40
1
 10
129.379308
 20
186.565520
 30
0.0
 10
131.180448
 20
188.188049
 30
0.0
 10
131.450988
 20
192.345551
 30
0.0
 10
131.167593
 20
192.413251
 30
0.0
  0
LWPOLYLINE
  5
12c
100
AcDbEntity
  8
Layer_1
 62
1
100
AcDbPolyline
 90
2
 70
1
 10
68.031347
 20
193.591892
 30
0.0
 10
68.031367
 20
193.591892
 30
0.0
  0
SPLINE
  5
12d
100
AcDbEntity
  8
Layer_1
 62
1
100
AcDbSpline
 70
8
 71
3
 72
8
 73
4
 74
0
 40
0
 40
0
 40
0
 40
0
 40
1
 40
1
 40
1
 40
1
 10
105.978241
 20
190.432293
 30
0.0
 10
105.902202
 20
190.406921
 30
0.0
 10
105.771234
 20
190.377331
 30
0.0
 10
105.585349
 20
190.343575
 30
0.0
  0
SPLINE
  5
12e
100
AcDbEntity
  8
Layer_1
 62
1
100
AcDbSpline
 70
8
 71
3
 72
8
 73
4
 74
0
 40
0
 40
0
 40
0
 40
0
 40
1
 40
1
 40
1
 40
1
 10
105.585349
 20
190.343575
 30
0.0
 10
105.407913
 20
190.309767
 30
0.0
 10
105.145990
 20
190.254857
 30
0.0
 10
104.799573
 20
190.178812
 30
0.0
  0
SPLINE
  5
12f
100
AcDbEntity
  8
Layer_1
 62
1
100
AcDbSpline
 70
8
 71
3
 72
8
 73
4
 74
0
 40
0
 40
0
 40
0
 40
0
 40
1
 40
1
 40
1
 40
1
 10
104.799573
 20
190.178812
 30
0.0
 10
104.453150
 20
190.111216
 30
0.0
 10
104.127855
 20
190.047851
 30
0.0
 10
103.823682
 20
189.988703
 30
0.0
  0
SPLINE
  5
130
100
AcDbEntity
  8
Layer_1
 62
1
100
AcDbSpline
 70
8
 71
3
 72
8
 73
4
 74
0
 40
0
 40
0
 40
0
 40
0
 40
1
 40
1
 40
1
 40
1
 10
103.823682
 20
189.988703
 30
0.0
 10
103.519509
 20
189.938024
 30
0.0
 10
103.211111
 20
189.887312
 30
0.0
 10
102.898489
 20
189.836620
 30
0.0
  0
LWPOLYLINE
  5
131
100
AcDbEntity
  8
Layer_1
 62
1
100
AcDbPolyline
 90
2
 70
1
 10
131.167593
 20
192.413251
 30
0.0
 10
131.167587
 20
192.413218
 30
0.0
  0
SPLINE
  5
132
100
AcDbEntity
  8
Layer_1
 62
1
100
AcDbSpline
 70
8
 71
3
 72
8
 73
4
 74
0
 40
0
 40
0
 40
0
 40
0
 40
1
 40
1
 40
1
 40
1
 10
102.936515
 20
189.456402
 30
0.0
 10
103.249137
 20
189.405657
 30
0.0
 10
103.494162
 20
189.359209
 30
0.0
 10
103.671598
 20
189.316991
 30
0.0
  0
SPLINE
  5
133
100
AcDbEntity
  8
Layer_1
 62
1
100
AcDbSpline
 70
8
 71
3
 72
8
 73
4
 74
0
 40
0
 40
0
 40
0
 40
0
 40
1
 40
1
 40
1
 40
1
 10
103.671598
 20
189.316991
 30
0.0
 10
103.857483
 20
189.274748
 30
0.0
 10
103.996900
 20
189.211369
 30
0.0
 10
104.089842
 20
189.126882
 30
0.0
  0
SPLINE
  5
134
100
AcDbEntity
  8
Layer_1
 62
1
100
AcDbSpline
 70
8
 71
3
 72
8
 73
4
 74
0
 40
0
 40
0
 40
0
 40
0
 40
1
 40
1
 40
1
 40
1
 10
104.089842
 20
189.126882
 30
0.0
 10
104.191227
 20
189.050837
 30
0.0
 10
104.254599
 20
188.940997
 30
0.0
 10
104.279945
 20
188.797356
 30
0.0
  0
SPLINE
  5
135
100
AcDbEntity
  8
Layer_1
 62
1
100
AcDbSpline
 70
8
 71
3
 72
8
 73
4
 74
0
 40
0
 40
0
 40
0
 40
0
 40
1
 40
1
 40
1
 40
1
 10
104.279945
 20
188.797356
 30
0.0
 10
104.305317
 20
188.662170
 30
0.0
 10
104.317971
 20
188.476286
 30
0.0
 10
104.317971
 20
188.239709
 30
0.0
  0
LWPOLYLINE
  5
136
100
AcDbEntity
  8
Layer_1
 62
1
100
AcDbPolyline
 90
2
 70
1
 10
102.898489
 20
189.836620
 30
0.0
 10
102.936515
 20
189.456402
 30
0.0
  0
SPLINE
  5
137
100
AcDbEntity
  8
Layer_1
 62
1
100
AcDbSpline
 70
8
 71
3
 72
8
 73
4
 74
0
 40
0
 40
0
 40
0
 40
0
 40
1
 40
1
 40
1
 40
1
 10
104.317971
 20
184.817758
 30
0.0
 10
104.072945
 20
184.876873
 30
0.0
 10
103.823688
 20
184.914912
 30
0.0
 10
103.570207
 20
184.931822
 30
0.0
  0
SPLINE
  5
138
100
AcDbEntity
  8
Layer_1
 62
1
100
AcDbSpline
 70
8
 71
3
 72
8
 73
4
 74
0
 40
0
 40
0
 40
0
 40
0
 40
1
 40
1
 40
1
 40
1
 10
103.570207
 20
184.931822
 30
0.0
 10
103.316733
 20
184.957194
 30
0.0
 10
103.130848
 20
184.969848
 30
0.0
 10
103.012560
 20
184.969848
 30
0.0
  0
SPLINE
  5
139
100
AcDbEntity
  8
Layer_1
 62
1
100
AcDbSpline
 70
8
 71
3
 72
8
 73
4
 74
0
 40
0
 40
0
 40
0
 40
0
 40
1
 40
1
 40
1
 40
1
 10
103.012560
 20
184.969848
 30
0.0
 10
102.463361
 20
184.969848
 30
0.0
 10
101.922604
 20
184.864233
 30
0.0
 10
101.390303
 20
184.653002
 30
0.0
  0
SPLINE
  5
13a
100
AcDbEntity
  8
Layer_1
 62
1
100
AcDbSpline
 70
8
 71
3
 72
8
 73
4
 74
0
 40
0
 40
0
 40
0
 40
0
 40
1
 40
1
 40
1
 40
1
 10
101.390303
 20
184.653002
 30
0.0
 10
100.858001
 20
184.441764
 30
0.0
 10
100.389065
 20
184.150264
 30
0.0
 10
99.983501
 20
183.778501
 30
0.0
  0
SPLINE
  5
13b
100
AcDbEntity
  8
Layer_1
 62
1
100
AcDbSpline
 70
8
 71
3
 72
8
 73
4
 74
0
 40
0
 40
0
 40
0
 40
0
 40
1
 40
1
 40
1
 40
1
 10
99.983501
 20
183.778501
 30
0.0
 10
99.586385
 20
183.406732
 30
0.0
 10
99.269539
 20
182.963148
 30
0.0
 10
99.032962
 20
182.447744
 30
0.0
  0
SPLINE
  5
13c
100
AcDbEntity
  8
Layer_1
 62
1
100
AcDbSpline
 70
8
 71
3
 72
8
 73
4
 74
0
 40
0
 40
0
 40
0
 40
0
 40
1
 40
1
 40
1
 40
1
 10
99.032962
 20
182.447744
 30
0.0
 10
98.804833
 20
181.940789
 30
0.0
 10
98.690763
 20
181.383135
 30
0.0
 10
98.690763
 20
180.774788
 30
0.0
  0
SPLINE
  5
13d
100
AcDbEntity
  8
Layer_1
 62
1
100
AcDbSpline
 70
8
 71
3
 72
8
 73
4
 74
0
 40
0
 40
0
 40
0
 40
0
 40
1
 40
1
 40
1
 40
1
 10
98.690763
 20
180.774788
 30
0.0
 10
98.690763
 20
180.242487
 30
0.0
 10
98.775256
 20
179.756653
 30
0.0
 10
98.944244
 20
179.317294
 30
0.0
  0
SPLINE
  5
13e
100
AcDbEntity
  8
Layer_1
 62
1
100
AcDbSpline
 70
8
 71
3
 72
8
 73
4
 74
0
 40
0
 40
0
 40
0
 40
0
 40
1
 40
1
 40
1
 40
1
 10
98.944244
 20
179.317294
 30
0.0
 10
99.113231
 20
178.886383
 30
0.0
 10
99.341359
 20
178.518838
 30
0.0
 10
99.628635
 20
178.214665
 30
0.0
  0
SPLINE
  5
13f
100
AcDbEntity
  8
Layer_1
 62
1
100
AcDbSpline
 70
8
 71
3
 72
8
 73
4
 74
0
 40
0
 40
0
 40
0
 40
0
 40
1
 40
1
 40
1
 40
1
 10
99.628635
 20
178.214665
 30
0.0
 10
99.924353
 20
177.910492
 30
0.0
 10
100.266552
 20
177.673915
 30
0.0
 10
100.655219
 20
177.504928
 30
0.0
  0
SPLINE
  5
140
100
AcDbEntity
  8
Layer_1
 62
1
100
AcDbSpline
 70
8
 71
3
 72
8
 73
4
 74
0
 40
0
 40
0
 40
0
 40
0
 40
1
 40
1
 40
1
 40
1
 10
100.655219
 20
177.504928
 30
0.0
 10
101.043886
 20
177.335947
 30
0.0
 10
101.487469
 20
177.251453
 30
0.0
 10
101.985976
 20
177.251453
 30
0.0
  0
SPLINE
  5
141
100
AcDbEntity
  8
Layer_1
 62
1
100
AcDbSpline
 70
8
 71
3
 72
8
 73
4
 74
0
 40
0
 40
0
 40
0
 40
0
 40
1
 40
1
 40
1
 40
1
 10
101.985976
 20
177.251453
 30
0.0
 10
102.290149
 20
177.251453
 30
0.0
 10
102.649239
 20
177.319043
 30
0.0
 10
103.063252
 20
177.454235
 30
0.0
  0
SPLINE
  5
142
100
AcDbEntity
  8
Layer_1
 62
1
100
AcDbSpline
 70
8
 71
3
 72
8
 73
4
 74
0
 40
0
 40
0
 40
0
 40
0
 40
1
 40
1
 40
1
 40
1
 10
103.063252
 20
177.454235
 30
0.0
 10
103.485714
 20
177.589421
 30
0.0
 10
103.903958
 20
177.830223
 30
0.0
 10
104.317971
 20
178.176646
 30
0.0
  0
LWPOLYLINE
  5
143
100
AcDbEntity
  8
Layer_1
 62
1
100
AcDbPolyline
 90
2
 70
1
 10
104.317971
 20
188.239709
 30
0.0
 10
104.317971
 20
184.817758
 30
0.0
  0
SPLINE
  5
144
100
AcDbEntity
  8
Layer_1
 62
1
100
AcDbSpline
 70
8
 71
3
 72
8
 73
4
 74
0
 40
0
 40
0
 40
0
 40
0
 40
1
 40
1
 40
1
 40
1
 10
104.444708
 20
177.314819
 30
0.0
 10
104.529202
 20
177.340191
 30
0.0
 10
104.660170
 20
177.378216
 30
0.0
 10
104.837599
 20
177.428883
 30
0.0
  0
SPLINE
  5
145
100
AcDbEntity
  8
Layer_1
 62
1
100
AcDbSpline
 70
8
 71
3
 72
8
 73
4
 74
0
 40
0
 40
0
 40
0
 40
0
 40
1
 40
1
 40
1
 40
1
 10
104.837599
 20
177.428883
 30
0.0
 10
105.023484
 20
177.471126
 30
0.0
 10
105.251612
 20
177.521825
 30
0.0
 10
105.521991
 20
177.580973
 30
0.0
  0
SPLINE
  5
146
100
AcDbEntity
  8
Layer_1
 62
1
100
AcDbSpline
 70
8
 71
3
 72
8
 73
4
 74
0
 40
0
 40
0
 40
0
 40
0
 40
1
 40
1
 40
1
 40
1
 10
105.521991
 20
177.580973
 30
0.0
 10
105.792362
 20
177.640152
 30
0.0
 10
106.096536
 20
177.686601
 30
0.0
 10
106.434510
 20
177.720383
 30
0.0
  0
SPLINE
  5
147
100
AcDbEntity
  8
Layer_1
 62
1
100
AcDbSpline
 70
8
 71
3
 72
8
 73
4
 74
0
 40
0
 40
0
 40
0
 40
0
 40
1
 40
1
 40
1
 40
1
 10
106.434510
 20
177.720383
 30
0.0
 10
106.772478
 20
177.762626
 30
0.0
 10
107.076652
 20
177.804857
 30
0.0
 10
107.347030
 20
177.847120
 30
0.0
  0
LWPOLYLINE
  5
148
100
AcDbEntity
  8
Layer_1
 62
1
100
AcDbPolyline
 90
3
 70
1
 10
104.317971
 20
178.176646
 30
0.0
 10
104.317971
 20
177.416210
 30
0.0
 10
104.444708
 20
177.314819
 30
0.0
  0
SPLINE
  5
149
100
AcDbEntity
  8
Layer_1
 62
1
100
AcDbSpline
 70
8
 71
3
 72
8
 73
4
 74
0
 40
0
 40
0
 40
0
 40
0
 40
1
 40
1
 40
1
 40
1
 10
107.296351
 20
178.227338
 30
0.0
 10
106.992177
 20
178.269582
 30
0.0
 10
106.747152
 20
178.307620
 30
0.0
 10
106.561267
 20
178.341402
 30
0.0
  0
SPLINE
  5
14a
100
AcDbEntity
  8
Layer_1
 62
1
100
AcDbSpline
 70
8
 71
3
 72
8
 73
4
 74
0
 40
0
 40
0
 40
0
 40
0
 40
1
 40
1
 40
1
 40
1
 10
106.561267
 20
178.341402
 30
0.0
 10
106.383837
 20
178.383646
 30
0.0
 10
106.248645
 20
178.442793
 30
0.0
 10
106.155703
 20
178.518838
 30
0.0
  0
SPLINE
  5
14b
100
AcDbEntity
  8
Layer_1
 62
1
100
AcDbSpline
 70
8
 71
3
 72
8
 73
4
 74
0
 40
0
 40
0
 40
0
 40
0
 40
1
 40
1
 40
1
 40
1
 10
106.155703
 20
178.518838
 30
0.0
 10
106.062767
 20
178.594883
 30
0.0
 10
106.003619
 20
178.700499
 30
0.0
 10
105.978267
 20
178.835685
 30
0.0
  0
SPLINE
  5
14c
100
AcDbEntity
  8
Layer_1
 62
1
100
AcDbSpline
 70
8
 71
3
 72
8
 73
4
 74
0
 40
0
 40
0
 40
0
 40
0
 40
1
 40
1
 40
1
 40
1
 10
105.978267
 20
178.835685
 30
0.0
 10
105.952894
 20
178.979326
 30
0.0
 10
105.940241
 20
179.173653
 30
0.0
 10
105.940241
 20
179.418685
 30
0.0
  0
LWPOLYLINE
  5
14d
100
AcDbEntity
  8
Layer_1
 62
1
100
AcDbPolyline
 90
2
 70
1
 10
107.347030
 20
177.847120
 30
0.0
 10
107.296351
 20
178.227338
 30
0.0
  0
SPLINE
  5
14e
100
AcDbEntity
  8
Layer_1
 62
1
100
AcDbSpline
 70
8
 71
3
 72
8
 73
4
 74
0
 40
0
 40
0
 40
0
 40
0
 40
1
 40
1
 40
1
 40
1
 10
105.940241
 20
187.301843
 30
0.0
 10
105.940241
 20
187.453926
 30
0.0
 10
105.944783
 20
187.656708
 30
0.0
 10
105.952894
 20
187.910189
 30
0.0
  0
SPLINE
  5
14f
100
AcDbEntity
  8
Layer_1
 62
1
100
AcDbSpline
 70
8
 71
3
 72
8
 73
4
 74
0
 40
0
 40
0
 40
0
 40
0
 40
1
 40
1
 40
1
 40
1
 10
105.952894
 20
187.910189
 30
0.0
 10
105.961395
 20
188.163664
 30
0.0
 10
105.969831
 20
188.434036
 30
0.0
 10
105.978267
 20
188.721318
 30
0.0
  0
SPLINE
  5
150
100
AcDbEntity
  8
Layer_1
 62
1
100
AcDbSpline
 70
8
 71
3
 72
8
 73
4
 74
0
 40
0
 40
0
 40
0
 40
0
 40
1
 40
1
 40
1
 40
1
 10
105.978267
 20
188.721318
 30
0.0
 10
105.995138
 20
189.008587
 30
0.0
 10
106.012074
 20
189.295869
 30
0.0
 10
106.028946
 20
189.583139
 30
0.0
  0
SPLINE
  5
151
100
AcDbEntity
  8
Layer_1
 62
1
100
AcDbSpline
 70
8
 71
3
 72
8
 73
4
 74
0
 40
0
 40
0
 40
0
 40
0
 40
1
 40
1
 40
1
 40
1
 10
106.028946
 20
189.583139
 30
0.0
 10
106.054318
 20
189.870415
 30
0.0
 10
106.079625
 20
190.119665
 30
0.0
 10
106.104984
 20
190.330902
 30
0.0
  0
LWPOLYLINE
  5
152
100
AcDbEntity
  8
Layer_1
 62
1
100
AcDbPolyline
 90
2
 70
1
 10
105.940241
 20
179.418685
 30
0.0
 10
105.940241
 20
187.301843
 30
0.0
  0
SPLINE
  5
153
100
AcDbEntity
  8
Layer_1
 62
1
100
AcDbSpline
 70
8
 71
3
 72
8
 73
4
 74
0
 40
0
 40
0
 40
0
 40
0
 40
1
 40
1
 40
1
 40
1
 10
79.122278
 20
184.969848
 30
0.0
 10
78.640676
 20
184.969848
 30
0.0
 10
78.209759
 20
184.893810
 30
0.0
 10
77.829547
 20
184.741713
 30
0.0
  0
SPLINE
  5
154
100
AcDbEntity
  8
Layer_1
 62
1
100
AcDbSpline
 70
8
 71
3
 72
8
 73
4
 74
0
 40
0
 40
0
 40
0
 40
0
 40
1
 40
1
 40
1
 40
1
 10
77.829547
 20
184.741713
 30
0.0
 10
77.449329
 20
184.589630
 30
0.0
 10
77.111354
 20
184.378399
 30
0.0
 10
76.815636
 20
184.108021
 30
0.0
  0
SPLINE
  5
155
100
AcDbEntity
  8
Layer_1
 62
1
100
AcDbSpline
 70
8
 71
3
 72
8
 73
4
 74
0
 40
0
 40
0
 40
0
 40
0
 40
1
 40
1
 40
1
 40
1
 10
76.815636
 20
184.108021
 30
0.0
 10
76.528361
 20
183.837649
 30
0.0
 10
76.296008
 20
183.516572
 30
0.0
 10
76.118572
 20
183.144809
 30
0.0
  0
SPLINE
  5
156
100
AcDbEntity
  8
Layer_1
 62
1
100
AcDbSpline
 70
8
 71
3
 72
8
 73
4
 74
0
 40
0
 40
0
 40
0
 40
0
 40
1
 40
1
 40
1
 40
1
 10
76.118572
 20
183.144809
 30
0.0
 10
75.949591
 20
182.781488
 30
0.0
 10
75.865091
 20
182.388597
 30
0.0
 10
75.865091
 20
181.966135
 30
0.0
  0
SPLINE
  5
157
100
AcDbEntity
  8
Layer_1
 62
1
100
AcDbSpline
 70
8
 71
3
 72
8
 73
4
 74
0
 40
0
 40
0
 40
0
 40
0
 40
1
 40
1
 40
1
 40
1
 10
75.865091
 20
181.966135
 30
0.0
 10
75.865091
 20
180.825487
 30
0.0
 10
76.346707
 20
180.018583
 30
0.0
 10
77.309912
 20
179.545422
 30
0.0
  0
SPLINE
  5
158
100
AcDbEntity
  8
Layer_1
 62
1
100
AcDbSpline
 70
8
 71
3
 72
8
 73
4
 74
0
 40
0
 40
0
 40
0
 40
0
 40
1
 40
1
 40
1
 40
1
 10
77.309912
 20
179.545422
 30
0.0
 10
77.191630
 20
179.460935
 30
0.0
 10
77.056438
 20
179.372211
 30
0.0
 10
76.904348
 20
179.279275
 30
0.0
  0
SPLINE
  5
159
100
AcDbEntity
  8
Layer_1
 62
1
100
AcDbSpline
 70
8
 71
3
 72
8
 73
4
 74
0
 40
0
 40
0
 40
0
 40
0
 40
1
 40
1
 40
1
 40
1
 10
76.904348
 20
179.279275
 30
0.0
 10
76.760713
 20
179.194775
 30
0.0
 10
76.608630
 20
179.080717
 30
0.0
 10
76.448091
 20
178.937076
 30
0.0
  0
SPLINE
  5
15a
100
AcDbEntity
  8
Layer_1
 62
1
100
AcDbSpline
 70
8
 71
3
 72
8
 73
4
 74
0
 40
0
 40
0
 40
0
 40
0
 40
1
 40
1
 40
1
 40
1
 10
76.448091
 20
178.937076
 30
0.0
 10
76.296001
 20
178.801890
 30
0.0
 10
76.173489
 20
178.654024
 30
0.0
 10
76.080546
 20
178.493492
 30
0.0
  0
SPLINE
  5
15b
100
AcDbEntity
  8
Layer_1
 62
1
100
AcDbSpline
 70
8
 71
3
 72
8
 73
4
 74
0
 40
0
 40
0
 40
0
 40
0
 40
1
 40
1
 40
1
 40
1
 10
76.080546
 20
178.493492
 30
0.0
 10
75.996059
 20
178.332954
 30
0.0
 10
75.953809
 20
178.155518
 30
0.0
 10
75.953809
 20
177.961191
 30
0.0
  0
SPLINE
  5
15c
100
AcDbEntity
  8
Layer_1
 62
1
100
AcDbSpline
 70
8
 71
3
 72
8
 73
4
 74
0
 40
0
 40
0
 40
0
 40
0
 40
1
 40
1
 40
1
 40
1
 10
75.953809
 20
177.961191
 30
0.0
 10
75.953809
 20
177.682357
 30
0.0
 10
76.067880
 20
177.441562
 30
0.0
 10
76.296001
 20
177.238774
 30
0.0
  0
SPLINE
  5
15d
100
AcDbEntity
  8
Layer_1
 62
1
100
AcDbSpline
 70
8
 71
3
 72
8
 73
4
 74
0
 40
0
 40
0
 40
0
 40
0
 40
1
 40
1
 40
1
 40
1
 10
76.296001
 20
177.238774
 30
0.0
 10
76.532585
 20
177.027549
 30
0.0
 10
76.853656
 20
176.858562
 30
0.0
 10
77.259220
 20
176.731825
 30
0.0
  0
SPLINE
  5
15e
100
AcDbEntity
  8
Layer_1
 62
1
100
AcDbSpline
 70
8
 71
3
 72
8
 73
4
 74
0
 40
0
 40
0
 40
0
 40
0
 40
1
 40
1
 40
1
 40
1
 10
77.259220
 20
176.731825
 30
0.0
 10
77.039540
 20
176.579735
 30
0.0
 10
76.811406
 20
176.419196
 30
0.0
 10
76.574828
 20
176.250215
 30
0.0
  0
SPLINE
  5
15f
100
AcDbEntity
  8
Layer_1
 62
1
100
AcDbSpline
 70
8
 71
3
 72
8
 73
4
 74
0
 40
0
 40
0
 40
0
 40
0
 40
1
 40
1
 40
1
 40
1
 10
76.574828
 20
176.250215
 30
0.0
 10
76.346694
 20
176.081228
 30
0.0
 10
76.143918
 20
175.912241
 30
0.0
 10
75.966482
 20
175.743260
 30
0.0
  0
SPLINE
  5
160
100
AcDbEntity
  8
Layer_1
 62
1
100
AcDbSpline
 70
8
 71
3
 72
8
 73
4
 74
0
 40
0
 40
0
 40
0
 40
0
 40
1
 40
1
 40
1
 40
1
 10
75.966482
 20
175.743260
 30
0.0
 10
75.789046
 20
175.565824
 30
0.0
 10
75.645411
 20
175.379939
 30
0.0
 10
75.535572
 20
175.185606
 30
0.0
  0
SPLINE
  5
161
100
AcDbEntity
  8
Layer_1
 62
1
100
AcDbSpline
 70
8
 71
3
 72
8
 73
4
 74
0
 40
0
 40
0
 40
0
 40
0
 40
1
 40
1
 40
1
 40
1
 10
75.535572
 20
175.185606
 30
0.0
 10
75.425732
 20
174.982824
 30
0.0
 10
75.370809
 20
174.737798
 30
0.0
 10
75.370809
 20
174.450522
 30
0.0
  0
SPLINE
  5
162
100
AcDbEntity
  8
Layer_1
 62
1
100
AcDbSpline
 70
8
 71
3
 72
8
 73
4
 74
0
 40
0
 40
0
 40
0
 40
0
 40
1
 40
1
 40
1
 40
1
 10
75.370809
 20
174.450522
 30
0.0
 10
75.370809
 20
174.129452
 30
0.0
 10
75.467982
 20
173.842176
 30
0.0
 10
75.662309
 20
173.588695
 30
0.0
  0
SPLINE
  5
163
100
AcDbEntity
  8
Layer_1
 62
1
100
AcDbSpline
 70
8
 71
3
 72
8
 73
4
 74
0
 40
0
 40
0
 40
0
 40
0
 40
1
 40
1
 40
1
 40
1
 10
75.662309
 20
173.588695
 30
0.0
 10
75.865091
 20
173.326772
 30
0.0
 10
76.127021
 20
173.119765
 30
0.0
 10
76.448091
 20
172.967675
 30
0.0
  0
SPLINE
  5
164
100
AcDbEntity
  8
Layer_1
 62
1
100
AcDbSpline
 70
8
 71
3
 72
8
 73
4
 74
0
 40
0
 40
0
 40
0
 40
0
 40
1
 40
1
 40
1
 40
1
 10
76.448091
 20
172.967675
 30
0.0
 10
76.777611
 20
172.807143
 30
0.0
 10
77.140931
 20
172.680400
 30
0.0
 10
77.538047
 20
172.587464
 30
0.0
  0
SPLINE
  5
165
100
AcDbEntity
  8
Layer_1
 62
1
100
AcDbSpline
 70
8
 71
3
 72
8
 73
4
 74
0
 40
0
 40
0
 40
0
 40
0
 40
1
 40
1
 40
1
 40
1
 10
77.538047
 20
172.587464
 30
0.0
 10
77.943611
 20
172.486066
 30
0.0
 10
78.328047
 20
172.435374
 30
0.0
 10
78.691368
 20
172.435374
 30
0.0
  0
SPLINE
  5
166
100
AcDbEntity
  8
Layer_1
 62
1
100
AcDbSpline
 70
8
 71
3
 72
8
 73
4
 74
0
 40
0
 40
0
 40
0
 40
0
 40
1
 40
1
 40
1
 40
1
 10
78.691368
 20
172.435374
 30
0.0
 10
79.451798
 20
172.435374
 30
0.0
 10
80.123523
 20
172.536765
 30
0.0
 10
80.706516
 20
172.739547
 30
0.0
  0
SPLINE
  5
167
100
AcDbEntity
  8
Layer_1
 62
1
100
AcDbSpline
 70
8
 71
3
 72
8
 73
4
 74
0
 40
0
 40
0
 40
0
 40
0
 40
1
 40
1
 40
1
 40
1
 10
80.706516
 20
172.739547
 30
0.0
 10
81.297965
 20
172.933880
 30
0.0
 10
81.804921
 20
173.183137
 30
0.0
 10
82.227383
 20
173.487310
 30
0.0
  0
SPLINE
  5
168
100
AcDbEntity
  8
Layer_1
 62
1
100
AcDbSpline
 70
8
 71
3
 72
8
 73
4
 74
0
 40
0
 40
0
 40
0
 40
0
 40
1
 40
1
 40
1
 40
1
 10
82.227383
 20
173.487310
 30
0.0
 10
82.649844
 20
173.783035
 30
0.0
 10
82.979370
 20
174.146349
 30
0.0
 10
83.215947
 20
174.577259
 30
0.0
  0
SPLINE
  5
169
100
AcDbEntity
  8
Layer_1
 62
1
100
AcDbSpline
 70
8
 71
3
 72
8
 73
4
 74
0
 40
0
 40
0
 40
0
 40
0
 40
1
 40
1
 40
1
 40
1
 10
83.215947
 20
174.577259
 30
0.0
 10
83.452524
 20
174.999721
 30
0.0
 10
83.570813
 20
175.434856
 30
0.0
 10
83.570813
 20
175.882670
 30
0.0
  0
SPLINE
  5
16a
100
AcDbEntity
  8
Layer_1
 62
1
100
AcDbSpline
 70
8
 71
3
 72
8
 73
4
 74
0
 40
0
 40
0
 40
0
 40
0
 40
1
 40
1
 40
1
 40
1
 10
83.570813
 20
175.882670
 30
0.0
 10
83.570813
 20
176.296683
 30
0.0
 10
83.486326
 20
176.647331
 30
0.0
 10
83.317338
 20
176.934607
 30
0.0
  0
SPLINE
  5
16b
100
AcDbEntity
  8
Layer_1
 62
1
100
AcDbSpline
 70
8
 71
3
 72
8
 73
4
 74
0
 40
0
 40
0
 40
0
 40
0
 40
1
 40
1
 40
1
 40
1
 10
83.317338
 20
176.934607
 30
0.0
 10
83.148351
 20
177.221883
 30
0.0
 10
82.924441
 20
177.445787
 30
0.0
 10
82.645620
 20
177.606319
 30
0.0
  0
SPLINE
  5
16c
100
AcDbEntity
  8
Layer_1
 62
1
100
AcDbSpline
 70
8
 71
3
 72
8
 73
4
 74
0
 40
0
 40
0
 40
0
 40
0
 40
1
 40
1
 40
1
 40
1
 10
82.645620
 20
177.606319
 30
0.0
 10
82.375242
 20
177.775306
 30
0.0
 10
82.071068
 20
177.889377
 30
0.0
 10
81.733100
 20
177.948518
 30
0.0
  0
SPLINE
  5
16d
100
AcDbEntity
  8
Layer_1
 62
1
100
AcDbSpline
 70
8
 71
3
 72
8
 73
4
 74
0
 40
0
 40
0
 40
0
 40
0
 40
1
 40
1
 40
1
 40
1
 10
81.733100
 20
177.948518
 30
0.0
 10
81.395132
 20
178.016107
 30
0.0
 10
81.057158
 20
178.049902
 30
0.0
 10
80.719190
 20
178.049902
 30
0.0
  0
SPLINE
  5
16e
100
AcDbEntity
  8
Layer_1
 62
1
100
AcDbSpline
 70
8
 71
3
 72
8
 73
4
 74
0
 40
0
 40
0
 40
0
 40
0
 40
1
 40
1
 40
1
 40
1
 10
80.719190
 20
178.049902
 30
0.0
 10
80.347420
 20
178.049909
 30
0.0
 10
79.979882
 20
178.041466
 30
0.0
 10
79.616561
 20
178.024530
 30
0.0
  0
SPLINE
  5
16f
100
AcDbEntity
  8
Layer_1
 62
1
100
AcDbSpline
 70
8
 71
3
 72
8
 73
4
 74
0
 40
0
 40
0
 40
0
 40
0
 40
1
 40
1
 40
1
 40
1
 10
79.616561
 20
178.024530
 30
0.0
 10
79.261695
 20
178.016094
 30
0.0
 10
78.936394
 20
178.011876
 30
0.0
 10
78.640676
 20
178.011876
 30
0.0
  0
SPLINE
  5
170
100
AcDbEntity
  8
Layer_1
 62
1
100
AcDbSpline
 70
8
 71
3
 72
8
 73
4
 74
0
 40
0
 40
0
 40
0
 40
0
 40
1
 40
1
 40
1
 40
1
 10
78.640676
 20
178.011876
 30
0.0
 10
78.522381
 20
178.011876
 30
0.0
 10
78.387195
 20
178.016419
 30
0.0
 10
78.235111
 20
178.024530
 30
0.0
  0
SPLINE
  5
171
100
AcDbEntity
  8
Layer_1
 62
1
100
AcDbSpline
 70
8
 71
3
 72
8
 73
4
 74
0
 40
0
 40
0
 40
0
 40
0
 40
1
 40
1
 40
1
 40
1
 10
78.235111
 20
178.024530
 30
0.0
 10
78.091470
 20
178.033031
 30
0.0
 10
77.956284
 20
178.054120
 30
0.0
 10
77.829547
 20
178.087928
 30
0.0
  0
SPLINE
  5
172
100
AcDbEntity
  8
Layer_1
 62
1
100
AcDbSpline
 70
8
 71
3
 72
8
 73
4
 74
0
 40
0
 40
0
 40
0
 40
0
 40
1
 40
1
 40
1
 40
1
 10
77.829547
 20
178.087928
 30
0.0
 10
77.711252
 20
178.121736
 30
0.0
 10
77.609861
 20
178.176646
 30
0.0
 10
77.525374
 20
178.252684
 30
0.0
  0
SPLINE
  5
173
100
AcDbEntity
  8
Layer_1
 62
1
100
AcDbSpline
 70
8
 71
3
 72
8
 73
4
 74
0
 40
0
 40
0
 40
0
 40
0
 40
1
 40
1
 40
1
 40
1
 10
77.525374
 20
178.252684
 30
0.0
 10
77.449329
 20
178.337184
 30
0.0
 10
77.411303
 20
178.442793
 30
0.0
 10
77.411303
 20
178.569537
 30
0.0
  0
SPLINE
  5
174
100
AcDbEntity
  8
Layer_1
 62
1
100
AcDbSpline
 70
8
 71
3
 72
8
 73
4
 74
0
 40
0
 40
0
 40
0
 40
0
 40
1
 40
1
 40
1
 40
1
 10
77.411303
 20
178.569537
 30
0.0
 10
77.411303
 20
178.730069
 30
0.0
 10
77.466200
 20
178.869480
 30
0.0
 10
77.576066
 20
178.987775
 30
0.0
  0
SPLINE
  5
175
100
AcDbEntity
  8
Layer_1
 62
1
100
AcDbSpline
 70
8
 71
3
 72
8
 73
4
 74
0
 40
0
 40
0
 40
0
 40
0
 40
1
 40
1
 40
1
 40
1
 10
77.576066
 20
178.987775
 30
0.0
 10
77.694348
 20
179.106057
 30
0.0
 10
77.850669
 20
179.207448
 30
0.0
 10
78.045002
 20
179.291948
 30
0.0
  0
SPLINE
  5
176
100
AcDbEntity
  8
Layer_1
 62
1
100
AcDbSpline
 70
8
 71
3
 72
8
 73
4
 74
0
 40
0
 40
0
 40
0
 40
0
 40
1
 40
1
 40
1
 40
1
 10
78.045002
 20
179.291948
 30
0.0
 10
78.416772
 20
179.207448
 30
0.0
 10
78.750516
 20
179.165211
 30
0.0
 10
79.046240
 20
179.165211
 30
0.0
  0
SPLINE
  5
177
100
AcDbEntity
  8
Layer_1
 62
1
100
AcDbSpline
 70
8
 71
3
 72
8
 73
4
 74
0
 40
0
 40
0
 40
0
 40
0
 40
1
 40
1
 40
1
 40
1
 10
79.046240
 20
179.165211
 30
0.0
 10
79.477144
 20
179.165211
 30
0.0
 10
79.882715
 20
179.228543
 30
0.0
 10
80.262933
 20
179.355313
 30
0.0
  0
SPLINE
  5
178
100
AcDbEntity
  8
Layer_1
 62
1
100
AcDbSpline
 70
8
 71
3
 72
8
 73
4
 74
0
 40
0
 40
0
 40
0
 40
0
 40
1
 40
1
 40
1
 40
1
 10
80.262933
 20
179.355313
 30
0.0
 10
80.651600
 20
179.490506
 30
0.0
 10
81.002241
 20
179.684832
 30
0.0
 10
81.314863
 20
179.938313
 30
0.0
  0
SPLINE
  5
179
100
AcDbEntity
  8
Layer_1
 62
1
100
AcDbSpline
 70
8
 71
3
 72
8
 73
4
 74
0
 40
0
 40
0
 40
0
 40
0
 40
1
 40
1
 40
1
 40
1
 10
81.314863
 20
179.938313
 30
0.0
 10
81.635934
 20
180.200243
 30
0.0
 10
81.893632
 20
180.521314
 30
0.0
 10
82.087972
 20
180.901532
 30
0.0
  0
SPLINE
  5
17a
100
AcDbEntity
  8
Layer_1
 62
1
100
AcDbSpline
 70
8
 71
3
 72
8
 73
4
 74
0
 40
0
 40
0
 40
0
 40
0
 40
1
 40
1
 40
1
 40
1
 10
82.087972
 20
180.901532
 30
0.0
 10
82.290748
 20
181.281744
 30
0.0
 10
82.392146
 20
181.721103
 30
0.0
 10
82.392146
 20
182.219616
 30
0.0
  0
SPLINE
  5
17b
100
AcDbEntity
  8
Layer_1
 62
1
100
AcDbSpline
 70
8
 71
3
 72
8
 73
4
 74
0
 40
0
 40
0
 40
0
 40
0
 40
1
 40
1
 40
1
 40
1
 10
82.392146
 20
182.219616
 30
0.0
 10
82.392146
 20
182.726565
 30
0.0
 10
82.218934
 20
183.203950
 30
0.0
 10
81.872511
 20
183.651764
 30
0.0
  0
LWPOLYLINE
  5
17c
100
AcDbEntity
  8
Layer_1
 62
1
100
AcDbPolyline
 90
3
 70
1
 10
106.104984
 20
190.330902
 30
0.0
 10
105.978247
 20
190.432293
 30
0.0
 10
105.978241
 20
190.432293
 30
0.0
  0
SPLINE
  5
17d
100
AcDbEntity
  8
Layer_1
 62
1
100
AcDbSpline
 70
8
 71
3
 72
8
 73
4
 74
0
 40
0
 40
0
 40
0
 40
0
 40
1
 40
1
 40
1
 40
1
 10
81.707754
 20
184.399521
 30
0.0
 10
81.665511
 20
184.399521
 30
0.0
 10
81.597914
 20
184.394978
 30
0.0
 10
81.504972
 20
184.386867
 30
0.0
  0
SPLINE
  5
17e
100
AcDbEntity
  8
Layer_1
 62
1
100
AcDbSpline
 70
8
 71
3
 72
8
 73
4
 74
0
 40
0
 40
0
 40
0
 40
0
 40
1
 40
1
 40
1
 40
1
 10
81.504972
 20
184.386867
 30
0.0
 10
81.395132
 20
184.386867
 30
0.0
 10
81.297972
 20
184.395303
 30
0.0
 10
81.213472
 20
184.412239
 30
0.0
  0
SPLINE
  5
17f
100
AcDbEntity
  8
Layer_1
 62
1
100
AcDbSpline
 70
8
 71
3
 72
8
 73
4
 74
0
 40
0
 40
0
 40
0
 40
0
 40
1
 40
1
 40
1
 40
1
 10
81.213472
 20
184.412239
 30
0.0
 10
81.137433
 20
184.437611
 30
0.0
 10
81.052933
 20
184.479842
 30
0.0
 10
80.959991
 20
184.538977
 30
0.0
  0
SPLINE
  5
180
100
AcDbEntity
  8
Layer_1
 62
1
100
AcDbSpline
 70
8
 71
3
 72
8
 73
4
 74
0
 40
0
 40
0
 40
0
 40
0
 40
1
 40
1
 40
1
 40
1
 10
80.959991
 20
184.538977
 30
0.0
 10
80.469939
 20
184.826259
 30
0.0
 10
79.857369
 20
184.969893
 30
0.0
 10
79.122278
 20
184.969893
 30
0.0
  0
LWPOLYLINE
  5
181
100
AcDbEntity
  8
Layer_1
 62
1
100
AcDbPolyline
 90
5
 70
1
 10
81.872511
 20
183.651764
 30
0.0
 10
83.659531
 20
183.651764
 30
0.0
 10
83.735576
 20
184.437546
 30
0.0
 10
83.646858
 20
184.538931
 30
0.0
 10
81.707754
 20
184.399521
 30
0.0
  0
SPLINE
  5
182
100
AcDbEntity
  8
Layer_1
 62
1
100
AcDbSpline
 70
8
 71
3
 72
8
 73
4
 74
0
 40
0
 40
0
 40
0
 40
0
 40
1
 40
1
 40
1
 40
1
 10
88.158757
 20
184.969848
 30
0.0
 10
87.609558
 20
184.969848
 30
0.0
 10
87.051911
 20
184.847335
 30
0.0
 10
86.485808
 20
184.602303
 30
0.0
  0
SPLINE
  5
183
100
AcDbEntity
  8
Layer_1
 62
1
100
AcDbSpline
 70
8
 71
3
 72
8
 73
4
 74
0
 40
0
 40
0
 40
0
 40
0
 40
1
 40
1
 40
1
 40
1
 10
86.485808
 20
184.602303
 30
0.0
 10
86.266128
 20
184.509361
 30
0.0
 10
86.050673
 20
184.399521
 30
0.0
 10
85.839442
 20
184.272784
 30
0.0
  0
SPLINE
  5
184
100
AcDbEntity
  8
Layer_1
 62
1
100
AcDbSpline
 70
8
 71
3
 72
8
 73
4
 74
0
 40
0
 40
0
 40
0
 40
0
 40
1
 40
1
 40
1
 40
1
 10
85.839442
 20
184.272784
 30
0.0
 10
85.628211
 20
184.146046
 30
0.0
 10
85.433878
 20
184.010854
 30
0.0
 10
85.256442
 20
183.867219
 30
0.0
  0
SPLINE
  5
185
100
AcDbEntity
  8
Layer_1
 62
1
100
AcDbSpline
 70
8
 71
3
 72
8
 73
4
 74
0
 40
0
 40
0
 40
0
 40
0
 40
1
 40
1
 40
1
 40
1
 10
85.256442
 20
183.867219
 30
0.0
 10
85.087455
 20
183.732033
 30
0.0
 10
84.948044
 20
183.592617
 30
0.0
 10
84.838204
 20
183.448982
 30
0.0
  0
SPLINE
  5
186
100
AcDbEntity
  8
Layer_1
 62
1
100
AcDbSpline
 70
8
 71
3
 72
8
 73
4
 74
0
 40
0
 40
0
 40
0
 40
0
 40
1
 40
1
 40
1
 40
1
 10
84.838204
 20
183.448982
 30
0.0
 10
84.736813
 20
183.305341
 30
0.0
 10
84.686115
 20
183.165930
 30
0.0
 10
84.686115
 20
183.030744
 30
0.0
  0
SPLINE
  5
187
100
AcDbEntity
  8
Layer_1
 62
1
100
AcDbSpline
 70
8
 71
3
 72
8
 73
4
 74
0
 40
0
 40
0
 40
0
 40
0
 40
1
 40
1
 40
1
 40
1
 10
84.686115
 20
183.030744
 30
0.0
 10
84.686115
 20
182.853308
 30
0.0
 10
84.770608
 20
182.709674
 30
0.0
 10
84.939596
 20
182.599828
 30
0.0
  0
SPLINE
  5
188
100
AcDbEntity
  8
Layer_1
 62
1
100
AcDbSpline
 70
8
 71
3
 72
8
 73
4
 74
0
 40
0
 40
0
 40
0
 40
0
 40
1
 40
1
 40
1
 40
1
 10
84.939596
 20
182.599828
 30
0.0
 10
85.117032
 20
182.498443
 30
0.0
 10
85.302910
 20
182.447744
 30
0.0
 10
85.497243
 20
182.447744
 30
0.0
  0
SPLINE
  5
189
100
AcDbEntity
  8
Layer_1
 62
1
100
AcDbSpline
 70
8
 71
3
 72
8
 73
4
 74
0
 40
0
 40
0
 40
0
 40
0
 40
1
 40
1
 40
1
 40
1
 10
85.497243
 20
182.447744
 30
0.0
 10
85.792968
 20
182.447744
 30
0.0
 10
86.008423
 20
182.502641
 30
0.0
 10
86.143615
 20
182.612507
 30
0.0
  0
SPLINE
  5
18a
100
AcDbEntity
  8
Layer_1
 62
1
100
AcDbSpline
 70
8
 71
3
 72
8
 73
4
 74
0
 40
0
 40
0
 40
0
 40
0
 40
1
 40
1
 40
1
 40
1
 10
86.143615
 20
182.612507
 30
0.0
 10
86.143615
 20
182.815289
 30
0.0
 10
86.168987
 20
183.009616
 30
0.0
 10
86.219654
 20
183.195501
 30
0.0
  0
SPLINE
  5
18b
100
AcDbEntity
  8
Layer_1
 62
1
100
AcDbSpline
 70
8
 71
3
 72
8
 73
4
 74
0
 40
0
 40
0
 40
0
 40
0
 40
1
 40
1
 40
1
 40
1
 10
86.219654
 20
183.195501
 30
0.0
 10
86.278769
 20
183.381386
 30
0.0
 10
86.363295
 20
183.546149
 30
0.0
 10
86.473135
 20
183.689783
 30
0.0
  0
SPLINE
  5
18c
100
AcDbEntity
  8
Layer_1
 62
1
100
AcDbSpline
 70
8
 71
3
 72
8
 73
4
 74
0
 40
0
 40
0
 40
0
 40
0
 40
1
 40
1
 40
1
 40
1
 10
86.473135
 20
183.689783
 30
0.0
 10
86.591423
 20
183.833418
 30
0.0
 10
86.735058
 20
183.947489
 30
0.0
 10
86.904045
 20
184.031982
 30
0.0
  0
SPLINE
  5
18d
100
AcDbEntity
  8
Layer_1
 62
1
100
AcDbSpline
 70
8
 71
3
 72
8
 73
4
 74
0
 40
0
 40
0
 40
0
 40
0
 40
1
 40
1
 40
1
 40
1
 10
86.904045
 20
184.031982
 30
0.0
 10
87.081475
 20
184.124925
 30
0.0
 10
87.263135
 20
184.171392
 30
0.0
 10
87.449020
 20
184.171392
 30
0.0
  0
SPLINE
  5
18e
100
AcDbEntity
  8
Layer_1
 62
1
100
AcDbSpline
 70
8
 71
3
 72
8
 73
4
 74
0
 40
0
 40
0
 40
0
 40
0
 40
1
 40
1
 40
1
 40
1
 10
87.449020
 20
184.171392
 30
0.0
 10
87.786994
 20
184.171392
 30
0.0
 10
88.057366
 20
184.027751
 30
0.0
 10
88.260148
 20
183.740482
 30
0.0
  0
SPLINE
  5
18f
100
AcDbEntity
  8
Layer_1
 62
1
100
AcDbSpline
 70
8
 71
3
 72
8
 73
4
 74
0
 40
0
 40
0
 40
0
 40
0
 40
1
 40
1
 40
1
 40
1
 10
88.260148
 20
183.740482
 30
0.0
 10
88.471379
 20
183.461648
 30
0.0
 10
88.577001
 20
183.106783
 30
0.0
 10
88.577001
 20
182.675872
 30
0.0
  0
LWPOLYLINE
  5
190
100
AcDbEntity
  8
Layer_1
 62
1
100
AcDbPolyline
 90
2
 70
1
 10
79.122278
 20
184.969893
 30
0.0
 10
79.122278
 20
184.969848
 30
0.0
  0
SPLINE
  5
191
100
AcDbEntity
  8
Layer_1
 62
1
100
AcDbSpline
 70
8
 71
3
 72
8
 73
4
 74
0
 40
0
 40
0
 40
0
 40
0
 40
1
 40
1
 40
1
 40
1
 10
88.577001
 20
181.801379
 30
0.0
 10
88.577001
 20
181.716885
 30
0.0
 10
88.572459
 20
181.645064
 30
0.0
 10
88.564348
 20
181.585917
 30
0.0
  0
SPLINE
  5
192
100
AcDbEntity
  8
Layer_1
 62
1
100
AcDbSpline
 70
8
 71
3
 72
8
 73
4
 74
0
 40
0
 40
0
 40
0
 40
0
 40
1
 40
1
 40
1
 40
1
 10
88.564348
 20
181.585917
 30
0.0
 10
87.939104
 20
181.518327
 30
0.0
 10
87.377232
 20
181.421160
 30
0.0
 10
86.878725
 20
181.294417
 30
0.0
  0
SPLINE
  5
193
100
AcDbEntity
  8
Layer_1
 62
1
100
AcDbSpline
 70
8
 71
3
 72
8
 73
4
 74
0
 40
0
 40
0
 40
0
 40
0
 40
1
 40
1
 40
1
 40
1
 10
86.878725
 20
181.294417
 30
0.0
 10
86.388667
 20
181.176135
 30
0.0
 10
85.995776
 20
181.057840
 30
0.0
 10
85.700051
 20
180.939551
 30
0.0
  0
SPLINE
  5
194
100
AcDbEntity
  8
Layer_1
 62
1
100
AcDbSpline
 70
8
 71
3
 72
8
 73
4
 74
0
 40
0
 40
0
 40
0
 40
0
 40
1
 40
1
 40
1
 40
1
 10
85.700051
 20
180.939551
 30
0.0
 10
85.294487
 20
180.770564
 30
0.0
 10
84.964968
 20
180.529762
 30
0.0
 10
84.711487
 20
180.217141
 30
0.0
  0
SPLINE
  5
195
100
AcDbEntity
  8
Layer_1
 62
1
100
AcDbSpline
 70
8
 71
3
 72
8
 73
4
 74
0
 40
0
 40
0
 40
0
 40
0
 40
1
 40
1
 40
1
 40
1
 10
84.711487
 20
180.217141
 30
0.0
 10
84.466461
 20
179.912967
 30
0.0
 10
84.343948
 20
179.545422
 30
0.0
 10
84.343948
 20
179.114512
 30
0.0
  0
SPLINE
  5
196
100
AcDbEntity
  8
Layer_1
 62
1
100
AcDbSpline
 70
8
 71
3
 72
8
 73
4
 74
0
 40
0
 40
0
 40
0
 40
0
 40
1
 40
1
 40
1
 40
1
 10
84.343948
 20
179.114512
 30
0.0
 10
84.343948
 20
178.861031
 30
0.0
 10
84.386192
 20
178.620229
 30
0.0
 10
84.470685
 20
178.392101
 30
0.0
  0
SPLINE
  5
197
100
AcDbEntity
  8
Layer_1
 62
1
100
AcDbSpline
 70
8
 71
3
 72
8
 73
4
 74
0
 40
0
 40
0
 40
0
 40
0
 40
1
 40
1
 40
1
 40
1
 10
84.470685
 20
178.392101
 30
0.0
 10
84.563628
 20
178.172422
 30
0.0
 10
84.690365
 20
177.973864
 30
0.0
 10
84.850903
 20
177.796428
 30
0.0
  0
SPLINE
  5
198
100
AcDbEntity
  8
Layer_1
 62
1
100
AcDbSpline
 70
8
 71
3
 72
8
 73
4
 74
0
 40
0
 40
0
 40
0
 40
0
 40
1
 40
1
 40
1
 40
1
 10
84.850903
 20
177.796428
 30
0.0
 10
85.019891
 20
177.627440
 30
0.0
 10
85.218449
 20
177.492255
 30
0.0
 10
85.446577
 20
177.390863
 30
0.0
  0
SPLINE
  5
199
100
AcDbEntity
  8
Layer_1
 62
1
100
AcDbSpline
 70
8
 71
3
 72
8
 73
4
 74
0
 40
0
 40
0
 40
0
 40
0
 40
1
 40
1
 40
1
 40
1
 10
85.446577
 20
177.390863
 30
0.0
 10
85.674712
 20
177.289472
 30
0.0
 10
85.957757
 20
177.238774
 30
0.0
 10
86.295725
 20
177.238774
 30
0.0
  0
SPLINE
  5
19a
100
AcDbEntity
  8
Layer_1
 62
1
100
AcDbSpline
 70
8
 71
3
 72
8
 73
4
 74
0
 40
0
 40
0
 40
0
 40
0
 40
1
 40
1
 40
1
 40
1
 10
86.295725
 20
177.238774
 30
0.0
 10
86.532302
 20
177.238774
 30
0.0
 10
86.781558
 20
177.285235
 30
0.0
 10
87.043481
 20
177.378190
 30
0.0
  0
SPLINE
  5
19b
100
AcDbEntity
  8
Layer_1
 62
1
100
AcDbSpline
 70
8
 71
3
 72
8
 73
4
 74
0
 40
0
 40
0
 40
0
 40
0
 40
1
 40
1
 40
1
 40
1
 10
87.043481
 20
177.378190
 30
0.0
 10
87.305411
 20
177.471133
 30
0.0
 10
87.520866
 20
177.559851
 30
0.0
 10
87.689854
 20
177.644338
 30
0.0
  0
SPLINE
  5
19c
100
AcDbEntity
  8
Layer_1
 62
1
100
AcDbSpline
 70
8
 71
3
 72
8
 73
4
 74
0
 40
0
 40
0
 40
0
 40
0
 40
1
 40
1
 40
1
 40
1
 10
87.689854
 20
177.644338
 30
0.0
 10
87.858841
 20
177.737287
 30
0.0
 10
88.032053
 20
177.842896
 30
0.0
 10
88.209482
 20
177.961191
 30
0.0
  0
SPLINE
  5
19d
100
AcDbEntity
  8
Layer_1
 62
1
100
AcDbSpline
 70
8
 71
3
 72
8
 73
4
 74
0
 40
0
 40
0
 40
0
 40
0
 40
1
 40
1
 40
1
 40
1
 10
88.209482
 20
177.961191
 30
0.0
 10
88.386918
 20
178.079473
 30
0.0
 10
88.517880
 20
178.168197
 30
0.0
 10
88.602373
 20
178.227338
 30
0.0
  0
SPLINE
  5
19e
100
AcDbEntity
  8
Layer_1
 62
1
100
AcDbSpline
 70
8
 71
3
 72
8
 73
4
 74
0
 40
0
 40
0
 40
0
 40
0
 40
1
 40
1
 40
1
 40
1
 10
88.602373
 20
178.227338
 30
0.0
 10
88.686867
 20
177.906268
 30
0.0
 10
88.851630
 20
177.665460
 30
0.0
 10
89.096656
 20
177.504928
 30
0.0
  0
SPLINE
  5
19f
100
AcDbEntity
  8
Layer_1
 62
1
100
AcDbSpline
 70
8
 71
3
 72
8
 73
4
 74
0
 40
0
 40
0
 40
0
 40
0
 40
1
 40
1
 40
1
 40
1
 10
89.096656
 20
177.504928
 30
0.0
 10
89.350130
 20
177.344396
 30
0.0
 10
89.683880
 20
177.264126
 30
0.0
 10
90.097893
 20
177.264126
 30
0.0
  0
SPLINE
  5
1a0
100
AcDbEntity
  8
Layer_1
 62
1
100
AcDbSpline
 70
8
 71
3
 72
8
 73
4
 74
0
 40
0
 40
0
 40
0
 40
0
 40
1
 40
1
 40
1
 40
1
 10
90.097893
 20
177.264126
 30
0.0
 10
90.385163
 20
177.264126
 30
0.0
 10
90.668214
 20
177.323306
 30
0.0
 10
90.947041
 20
177.441556
 30
0.0
  0
SPLINE
  5
1a1
100
AcDbEntity
  8
Layer_1
 62
1
100
AcDbSpline
 70
8
 71
3
 72
8
 73
4
 74
0
 40
0
 40
0
 40
0
 40
0
 40
1
 40
1
 40
1
 40
1
 10
90.947041
 20
177.441556
 30
0.0
 10
91.234317
 20
177.559851
 30
0.0
 10
91.475118
 20
177.711934
 30
0.0
 10
91.669452
 20
177.897819
 30
0.0
  0
LWPOLYLINE
  5
1a2
100
AcDbEntity
  8
Layer_1
 62
1
100
AcDbPolyline
 90
2
 70
1
 10
88.577001
 20
182.675872
 30
0.0
 10
88.577001
 20
181.801379
 30
0.0
  0
SPLINE
  5
1a3
100
AcDbEntity
  8
Layer_1
 62
1
100
AcDbSpline
 70
8
 71
3
 72
8
 73
4
 74
0
 40
0
 40
0
 40
0
 40
0
 40
1
 40
1
 40
1
 40
1
 10
91.441323
 20
178.290710
 30
0.0
 10
91.204746
 20
178.147075
 30
0.0
 10
90.985060
 20
178.075255
 30
0.0
 10
90.782278
 20
178.075255
 30
0.0
  0
SPLINE
  5
1a4
100
AcDbEntity
  8
Layer_1
 62
1
100
AcDbSpline
 70
8
 71
3
 72
8
 73
4
 74
0
 40
0
 40
0
 40
0
 40
0
 40
1
 40
1
 40
1
 40
1
 10
90.782278
 20
178.075255
 30
0.0
 10
90.579503
 20
178.075255
 30
0.0
 10
90.423188
 20
178.168197
 30
0.0
 10
90.313349
 20
178.354082
 30
0.0
  0
SPLINE
  5
1a5
100
AcDbEntity
  8
Layer_1
 62
1
100
AcDbSpline
 70
8
 71
3
 72
8
 73
4
 74
0
 40
0
 40
0
 40
0
 40
0
 40
1
 40
1
 40
1
 40
1
 10
90.313349
 20
178.354082
 30
0.0
 10
90.203509
 20
178.539960
 30
0.0
 10
90.148586
 20
178.797665
 30
0.0
 10
90.148586
 20
179.127185
 30
0.0
  0
SPLINE
  5
1a6
100
AcDbEntity
  8
Layer_1
 62
1
100
AcDbSpline
 70
8
 71
3
 72
8
 73
4
 74
0
 40
0
 40
0
 40
0
 40
0
 40
1
 40
1
 40
1
 40
1
 10
90.148586
 20
179.127185
 30
0.0
 10
90.148586
 20
179.904519
 30
0.0
 10
90.157021
 20
180.622705
 30
0.0
 10
90.173958
 20
181.281744
 30
0.0
  0
SPLINE
  5
1a7
100
AcDbEntity
  8
Layer_1
 62
1
100
AcDbSpline
 70
8
 71
3
 72
8
 73
4
 74
0
 40
0
 40
0
 40
0
 40
0
 40
1
 40
1
 40
1
 40
1
 10
90.173958
 20
181.281744
 30
0.0
 10
90.190894
 20
181.949238
 30
0.0
 10
90.199330
 20
182.536456
 30
0.0
 10
90.199330
 20
183.043418
 30
0.0
  0
SPLINE
  5
1a8
100
AcDbEntity
  8
Layer_1
 62
1
100
AcDbSpline
 70
8
 71
3
 72
8
 73
4
 74
0
 40
0
 40
0
 40
0
 40
0
 40
1
 40
1
 40
1
 40
1
 10
90.199330
 20
183.043418
 30
0.0
 10
90.199330
 20
183.381386
 30
0.0
 10
90.148650
 20
183.672886
 30
0.0
 10
90.047240
 20
183.917912
 30
0.0
  0
SPLINE
  5
1a9
100
AcDbEntity
  8
Layer_1
 62
1
100
AcDbSpline
 70
8
 71
3
 72
8
 73
4
 74
0
 40
0
 40
0
 40
0
 40
0
 40
1
 40
1
 40
1
 40
1
 10
90.047240
 20
183.917912
 30
0.0
 10
89.945849
 20
184.162944
 30
0.0
 10
89.806439
 20
184.361502
 30
0.0
 10
89.629003
 20
184.513585
 30
0.0
  0
SPLINE
  5
1aa
100
AcDbEntity
  8
Layer_1
 62
1
100
AcDbSpline
 70
8
 71
3
 72
8
 73
4
 74
0
 40
0
 40
0
 40
0
 40
0
 40
1
 40
1
 40
1
 40
1
 10
89.629003
 20
184.513585
 30
0.0
 10
89.451567
 20
184.674124
 30
0.0
 10
89.244560
 20
184.788188
 30
0.0
 10
89.007983
 20
184.855784
 30
0.0
  0
SPLINE
  5
1ab
100
AcDbEntity
  8
Layer_1
 62
1
100
AcDbSpline
 70
8
 71
3
 72
8
 73
4
 74
0
 40
0
 40
0
 40
0
 40
0
 40
1
 40
1
 40
1
 40
1
 10
89.007983
 20
184.855784
 30
0.0
 10
88.771406
 20
184.931822
 30
0.0
 10
88.488355
 20
184.969848
 30
0.0
 10
88.158829
 20
184.969848
 30
0.0
  0
LWPOLYLINE
  5
1ac
100
AcDbEntity
  8
Layer_1
 62
1
100
AcDbPolyline
 90
2
 70
1
 10
91.669452
 20
177.897819
 30
0.0
 10
91.441323
 20
178.290710
 30
0.0
  0
SPLINE
  5
1ad
100
AcDbEntity
  8
Layer_1
 62
1
100
AcDbSpline
 70
8
 71
3
 72
8
 73
4
 74
0
 40
0
 40
0
 40
0
 40
0
 40
1
 40
1
 40
1
 40
1
 10
94.888594
 20
184.969848
 30
0.0
 10
94.761857
 20
184.919169
 30
0.0
 10
94.597094
 20
184.864233
 30
0.0
 10
94.394312
 20
184.805085
 30
0.0
  0
SPLINE
  5
1ae
100
AcDbEntity
  8
Layer_1
 62
1
100
AcDbSpline
 70
8
 71
3
 72
8
 73
4
 74
0
 40
0
 40
0
 40
0
 40
0
 40
1
 40
1
 40
1
 40
1
 10
94.394312
 20
184.805085
 30
0.0
 10
94.199985
 20
184.745970
 30
0.0
 10
93.942280
 20
184.682572
 30
0.0
 10
93.621202
 20
184.614976
 30
0.0
  0
SPLINE
  5
1af
100
AcDbEntity
  8
Layer_1
 62
1
100
AcDbSpline
 70
8
 71
3
 72
8
 73
4
 74
0
 40
0
 40
0
 40
0
 40
0
 40
1
 40
1
 40
1
 40
1
 10
93.621202
 20
184.614976
 30
0.0
 10
93.308580
 20
184.547386
 30
0.0
 10
93.029753
 20
184.484014
 30
0.0
 10
92.784728
 20
184.424867
 30
0.0
  0
SPLINE
  5
1b0
100
AcDbEntity
  8
Layer_1
 62
1
100
AcDbSpline
 70
8
 71
3
 72
8
 73
4
 74
0
 40
0
 40
0
 40
0
 40
0
 40
1
 40
1
 40
1
 40
1
 10
92.784728
 20
184.424867
 30
0.0
 10
92.539695
 20
184.374188
 30
0.0
 10
92.303118
 20
184.327720
 30
0.0
 10
92.074990
 20
184.285457
 30
0.0
  0
LWPOLYLINE
  5
1b1
100
AcDbEntity
  8
Layer_1
 62
1
100
AcDbPolyline
 90
2
 70
1
 10
88.158829
 20
184.969848
 30
0.0
 10
88.158757
 20
184.969848
 30
0.0
  0
SPLINE
  5
1b2
100
AcDbEntity
  8
Layer_1
 62
1
100
AcDbSpline
 70
8
 71
3
 72
8
 73
4
 74
0
 40
0
 40
0
 40
0
 40
0
 40
1
 40
1
 40
1
 40
1
 10
92.113016
 20
183.905238
 30
0.0
 10
92.383394
 20
183.862995
 30
0.0
 10
92.598856
 20
183.820764
 30
0.0
 10
92.759388
 20
183.778501
 30
0.0
  0
SPLINE
  5
1b3
100
AcDbEntity
  8
Layer_1
 62
1
100
AcDbSpline
 70
8
 71
3
 72
8
 73
4
 74
0
 40
0
 40
0
 40
0
 40
0
 40
1
 40
1
 40
1
 40
1
 10
92.759388
 20
183.778501
 30
0.0
 10
92.919927
 20
183.736258
 30
0.0
 10
93.038215
 20
183.672886
 30
0.0
 10
93.114253
 20
183.588392
 30
0.0
  0
SPLINE
  5
1b4
100
AcDbEntity
  8
Layer_1
 62
1
100
AcDbSpline
 70
8
 71
3
 72
8
 73
4
 74
0
 40
0
 40
0
 40
0
 40
0
 40
1
 40
1
 40
1
 40
1
 10
93.114253
 20
183.588392
 30
0.0
 10
93.198747
 20
183.512347
 30
0.0
 10
93.253664
 20
183.406732
 30
0.0
 10
93.279016
 20
183.271546
 30
0.0
  0
SPLINE
  5
1b5
100
AcDbEntity
  8
Layer_1
 62
1
100
AcDbSpline
 70
8
 71
3
 72
8
 73
4
 74
0
 40
0
 40
0
 40
0
 40
0
 40
1
 40
1
 40
1
 40
1
 10
93.279016
 20
183.271546
 30
0.0
 10
93.304389
 20
183.136360
 30
0.0
 10
93.317042
 20
182.950475
 30
0.0
 10
93.317042
 20
182.713892
 30
0.0
  0
LWPOLYLINE
  5
1b6
100
AcDbEntity
  8
Layer_1
 62
1
100
AcDbPolyline
 90
2
 70
1
 10
92.074990
 20
184.285457
 30
0.0
 10
92.113016
 20
183.905238
 30
0.0
  0
SPLINE
  5
1b7
100
AcDbEntity
  8
Layer_1
 62
1
100
AcDbSpline
 70
8
 71
3
 72
8
 73
4
 74
0
 40
0
 40
0
 40
0
 40
0
 40
1
 40
1
 40
1
 40
1
 10
93.317042
 20
179.482057
 30
0.0
 10
93.317042
 20
179.160980
 30
0.0
 10
93.300106
 20
178.903281
 30
0.0
 10
93.266363
 20
178.708947
 30
0.0
  0
SPLINE
  5
1b8
100
AcDbEntity
  8
Layer_1
 62
1
100
AcDbSpline
 70
8
 71
3
 72
8
 73
4
 74
0
 40
0
 40
0
 40
0
 40
0
 40
1
 40
1
 40
1
 40
1
 10
93.266363
 20
178.708947
 30
0.0
 10
93.240991
 20
178.523063
 30
0.0
 10
93.181869
 20
178.375197
 30
0.0
 10
93.088927
 20
178.265364
 30
0.0
  0
SPLINE
  5
1b9
100
AcDbEntity
  8
Layer_1
 62
1
100
AcDbSpline
 70
8
 71
3
 72
8
 73
4
 74
0
 40
0
 40
0
 40
0
 40
0
 40
1
 40
1
 40
1
 40
1
 10
93.088927
 20
178.265364
 30
0.0
 10
93.004433
 20
178.155518
 30
0.0
 10
92.877696
 20
178.075255
 30
0.0
 10
92.708709
 20
178.024556
 30
0.0
  0
SPLINE
  5
1ba
100
AcDbEntity
  8
Layer_1
 62
1
100
AcDbSpline
 70
8
 71
3
 72
8
 73
4
 74
0
 40
0
 40
0
 40
0
 40
0
 40
1
 40
1
 40
1
 40
1
 10
92.708709
 20
178.024556
 30
0.0
 10
92.548170
 20
177.982312
 30
0.0
 10
92.328497
 20
177.948518
 30
0.0
 10
92.049670
 20
177.923165
 30
0.0
  0
LWPOLYLINE
  5
1bb
100
AcDbEntity
  8
Layer_1
 62
1
100
AcDbPolyline
 90
2
 70
1
 10
93.317042
 20
182.713892
 30
0.0
 10
93.317042
 20
179.482057
 30
0.0
  0
SPLINE
  5
1bc
100
AcDbEntity
  8
Layer_1
 62
1
100
AcDbSpline
 70
8
 71
3
 72
8
 73
4
 74
0
 40
0
 40
0
 40
0
 40
0
 40
1
 40
1
 40
1
 40
1
 10
92.087696
 20
177.492255
 30
0.0
 10
92.324273
 20
177.492255
 30
0.0
 10
92.594651
 20
177.496797
 30
0.0
 10
92.898824
 20
177.504908
 30
0.0
  0
SPLINE
  5
1bd
100
AcDbEntity
  8
Layer_1
 62
1
100
AcDbSpline
 70
8
 71
3
 72
8
 73
4
 74
0
 40
0
 40
0
 40
0
 40
0
 40
1
 40
1
 40
1
 40
1
 10
92.898824
 20
177.504908
 30
0.0
 10
93.202997
 20
177.513344
 30
0.0
 10
93.608562
 20
177.517562
 30
0.0
 10
94.115517
 20
177.517562
 30
0.0
  0
SPLINE
  5
1be
100
AcDbEntity
  8
Layer_1
 62
1
100
AcDbSpline
 70
8
 71
3
 72
8
 73
4
 74
0
 40
0
 40
0
 40
0
 40
0
 40
1
 40
1
 40
1
 40
1
 10
94.115517
 20
177.517562
 30
0.0
 10
94.318299
 20
177.517562
 30
0.0
 10
94.533761
 20
177.513019
 30
0.0
 10
94.761889
 20
177.504908
 30
0.0
  0
LWPOLYLINE
  5
1bf
100
AcDbEntity
  8
Layer_1
 62
1
100
AcDbPolyline
 90
2
 70
1
 10
92.049670
 20
177.923165
 30
0.0
 10
92.087696
 20
177.492255
 30
0.0
  0
SPLINE
  5
1c0
100
AcDbEntity
  8
Layer_1
 62
1
100
AcDbSpline
 70
8
 71
3
 72
8
 73
4
 74
0
 40
0
 40
0
 40
0
 40
0
 40
1
 40
1
 40
1
 40
1
 10
95.433601
 20
177.504908
 30
0.0
 10
95.653281
 20
177.504908
 30
0.0
 10
95.856063
 20
177.500366
 30
0.0
 10
96.041948
 20
177.492255
 30
0.0
  0
LWPOLYLINE
  5
1c1
100
AcDbEntity
  8
Layer_1
 62
1
100
AcDbPolyline
 90
2
 70
1
 10
94.761889
 20
177.504908
 30
0.0
 10
95.433601
 20
177.504908
 30
0.0
  0
SPLINE
  5
1c2
100
AcDbEntity
  8
Layer_1
 62
1
100
AcDbSpline
 70
8
 71
3
 72
8
 73
4
 74
0
 40
0
 40
0
 40
0
 40
0
 40
1
 40
1
 40
1
 40
1
 10
96.561602
 20
177.986537
 30
0.0
 10
96.189833
 20
178.003473
 30
0.0
 10
95.898339
 20
178.024563
 30
0.0
 10
95.687108
 20
178.049870
 30
0.0
  0
SPLINE
  5
1c3
100
AcDbEntity
  8
Layer_1
 62
1
100
AcDbSpline
 70
8
 71
3
 72
8
 73
4
 74
0
 40
0
 40
0
 40
0
 40
0
 40
1
 40
1
 40
1
 40
1
 10
95.687108
 20
178.049870
 30
0.0
 10
95.475877
 20
178.075242
 30
0.0
 10
95.315339
 20
178.121690
 30
0.0
 10
95.205499
 20
178.189287
 30
0.0
  0
SPLINE
  5
1c4
100
AcDbEntity
  8
Layer_1
 62
1
100
AcDbSpline
 70
8
 71
3
 72
8
 73
4
 74
0
 40
0
 40
0
 40
0
 40
0
 40
1
 40
1
 40
1
 40
1
 10
95.205499
 20
178.189287
 30
0.0
 10
95.095646
 20
178.256883
 30
0.0
 10
95.023825
 20
178.349819
 30
0.0
 10
94.990044
 20
178.468114
 30
0.0
  0
SPLINE
  5
1c5
100
AcDbEntity
  8
Layer_1
 62
1
100
AcDbSpline
 70
8
 71
3
 72
8
 73
4
 74
0
 40
0
 40
0
 40
0
 40
0
 40
1
 40
1
 40
1
 40
1
 10
94.990044
 20
178.468114
 30
0.0
 10
94.964671
 20
178.594844
 30
0.0
 10
94.952018
 20
178.759607
 30
0.0
 10
94.952018
 20
178.962396
 30
0.0
  0
LWPOLYLINE
  5
1c6
100
AcDbEntity
  8
Layer_1
 62
1
100
AcDbPolyline
 90
3
 70
1
 10
96.041948
 20
177.492255
 30
0.0
 10
96.536230
 20
177.492255
 30
0.0
 10
96.561602
 20
177.986537
 30
0.0
  0
SPLINE
  5
1c7
100
AcDbEntity
  8
Layer_1
 62
1
100
AcDbSpline
 70
8
 71
3
 72
8
 73
4
 74
0
 40
0
 40
0
 40
0
 40
0
 40
1
 40
1
 40
1
 40
1
 10
94.952018
 20
181.991449
 30
0.0
 10
94.952018
 20
182.109744
 30
0.0
 10
94.956560
 20
182.202680
 30
0.0
 10
94.964671
 20
182.270276
 30
0.0
  0
SPLINE
  5
1c8
100
AcDbEntity
  8
Layer_1
 62
1
100
AcDbSpline
 70
8
 71
3
 72
8
 73
4
 74
0
 40
0
 40
0
 40
0
 40
0
 40
1
 40
1
 40
1
 40
1
 10
94.964671
 20
182.270276
 30
0.0
 10
94.973107
 20
182.346321
 30
0.0
 10
94.998479
 20
182.430808
 30
0.0
 10
95.040710
 20
182.523757
 30
0.0
  0
SPLINE
  5
1c9
100
AcDbEntity
  8
Layer_1
 62
1
100
AcDbSpline
 70
8
 71
3
 72
8
 73
4
 74
0
 40
0
 40
0
 40
0
 40
0
 40
1
 40
1
 40
1
 40
1
 10
95.040710
 20
182.523757
 30
0.0
 10
95.184345
 20
182.844821
 30
0.0
 10
95.370236
 20
183.089853
 30
0.0
 10
95.598364
 20
183.258840
 30
0.0
  0
SPLINE
  5
1ca
100
AcDbEntity
  8
Layer_1
 62
1
100
AcDbSpline
 70
8
 71
3
 72
8
 73
4
 74
0
 40
0
 40
0
 40
0
 40
0
 40
1
 40
1
 40
1
 40
1
 10
95.598364
 20
183.258840
 30
0.0
 10
95.826499
 20
183.427821
 30
0.0
 10
96.037723
 20
183.512315
 30
0.0
 10
96.232057
 20
183.512315
 30
0.0
  0
SPLINE
  5
1cb
100
AcDbEntity
  8
Layer_1
 62
1
100
AcDbSpline
 70
8
 71
3
 72
8
 73
4
 74
0
 40
0
 40
0
 40
0
 40
0
 40
1
 40
1
 40
1
 40
1
 10
96.232057
 20
183.512315
 30
0.0
 10
96.426384
 20
183.512315
 30
0.0
 10
96.603820
 20
183.474289
 30
0.0
 10
96.764358
 20
183.398251
 30
0.0
  0
SPLINE
  5
1cc
100
AcDbEntity
  8
Layer_1
 62
1
100
AcDbSpline
 70
8
 71
3
 72
8
 73
4
 74
0
 40
0
 40
0
 40
0
 40
0
 40
1
 40
1
 40
1
 40
1
 10
96.764358
 20
183.398251
 30
0.0
 10
96.933345
 20
183.330661
 30
0.0
 10
97.093878
 20
183.229270
 30
0.0
 10
97.245967
 20
183.094077
 30
0.0
  0
SPLINE
  5
1cd
100
AcDbEntity
  8
Layer_1
 62
1
100
AcDbSpline
 70
8
 71
3
 72
8
 73
4
 74
0
 40
0
 40
0
 40
0
 40
0
 40
1
 40
1
 40
1
 40
1
 10
97.245967
 20
183.094077
 30
0.0
 10
97.524795
 20
183.263065
 30
0.0
 10
97.748698
 20
183.457398
 30
0.0
 10
97.917686
 20
183.677078
 30
0.0
  0
SPLINE
  5
1ce
100
AcDbEntity
  8
Layer_1
 62
1
100
AcDbSpline
 70
8
 71
3
 72
8
 73
4
 74
0
 40
0
 40
0
 40
0
 40
0
 40
1
 40
1
 40
1
 40
1
 10
97.917686
 20
183.677078
 30
0.0
 10
98.086673
 20
183.896757
 30
0.0
 10
98.171160
 20
184.091091
 30
0.0
 10
98.171160
 20
184.260078
 30
0.0
  0
SPLINE
  5
1cf
100
AcDbEntity
  8
Layer_1
 62
1
100
AcDbSpline
 70
8
 71
3
 72
8
 73
4
 74
0
 40
0
 40
0
 40
0
 40
0
 40
1
 40
1
 40
1
 40
1
 10
98.171160
 20
184.260078
 30
0.0
 10
98.171160
 20
184.513552
 30
0.0
 10
98.078218
 20
184.695213
 30
0.0
 10
97.892333
 20
184.805053
 30
0.0
  0
SPLINE
  5
1d0
100
AcDbEntity
  8
Layer_1
 62
1
100
AcDbSpline
 70
8
 71
3
 72
8
 73
4
 74
0
 40
0
 40
0
 40
0
 40
0
 40
1
 40
1
 40
1
 40
1
 10
97.892333
 20
184.805053
 30
0.0
 10
97.706448
 20
184.914892
 30
0.0
 10
97.503666
 20
184.969816
 30
0.0
 10
97.283987
 20
184.969816
 30
0.0
  0
SPLINE
  5
1d1
100
AcDbEntity
  8
Layer_1
 62
1
100
AcDbSpline
 70
8
 71
3
 72
8
 73
4
 74
0
 40
0
 40
0
 40
0
 40
0
 40
1
 40
1
 40
1
 40
1
 10
97.283987
 20
184.969816
 30
0.0
 10
97.131903
 20
184.969816
 30
0.0
 10
96.975596
 20
184.944443
 30
0.0
 10
96.815057
 20
184.893771
 30
0.0
  0
SPLINE
  5
1d2
100
AcDbEntity
  8
Layer_1
 62
1
100
AcDbSpline
 70
8
 71
3
 72
8
 73
4
 74
0
 40
0
 40
0
 40
0
 40
0
 40
1
 40
1
 40
1
 40
1
 10
96.815057
 20
184.893771
 30
0.0
 10
96.662967
 20
184.851527
 30
0.0
 10
96.493986
 20
184.767033
 30
0.0
 10
96.308102
 20
184.640296
 30
0.0
  0
SPLINE
  5
1d3
100
AcDbEntity
  8
Layer_1
 62
1
100
AcDbSpline
 70
8
 71
3
 72
8
 73
4
 74
0
 40
0
 40
0
 40
0
 40
0
 40
1
 40
1
 40
1
 40
1
 10
96.308102
 20
184.640296
 30
0.0
 10
96.122217
 20
184.522008
 30
0.0
 10
95.915210
 20
184.353020
 30
0.0
 10
95.687082
 20
184.133334
 30
0.0
  0
SPLINE
  5
1d4
100
AcDbEntity
  8
Layer_1
 62
1
100
AcDbSpline
 70
8
 71
3
 72
8
 73
4
 74
0
 40
0
 40
0
 40
0
 40
0
 40
1
 40
1
 40
1
 40
1
 10
95.687082
 20
184.133334
 30
0.0
 10
95.467402
 20
183.922110
 30
0.0
 10
95.222370
 20
183.651732
 30
0.0
 10
94.951992
 20
183.322206
 30
0.0
  0
SPLINE
  5
1d5
100
AcDbEntity
  8
Layer_1
 62
1
100
AcDbSpline
 70
8
 71
3
 72
8
 73
4
 74
0
 40
0
 40
0
 40
0
 40
0
 40
1
 40
1
 40
1
 40
1
 10
94.951992
 20
183.322206
 30
0.0
 10
94.951992
 20
183.575687
 30
0.0
 10
94.956534
 20
183.829161
 30
0.0
 10
94.964645
 20
184.082642
 30
0.0
  0
SPLINE
  5
1d6
100
AcDbEntity
  8
Layer_1
 62
1
100
AcDbSpline
 70
8
 71
3
 72
8
 73
4
 74
0
 40
0
 40
0
 40
0
 40
0
 40
1
 40
1
 40
1
 40
1
 10
94.964645
 20
184.082642
 30
0.0
 10
94.973081
 20
184.344572
 30
0.0
 10
94.998453
 20
184.606495
 30
0.0
 10
95.040684
 20
184.868424
 30
0.0
  0
LWPOLYLINE
  5
1d7
100
AcDbEntity
  8
Layer_1
 62
1
100
AcDbPolyline
 90
2
 70
1
 10
94.952018
 20
178.962396
 30
0.0
 10
94.952018
 20
181.991449
 30
0.0
  0
SPLINE
  5
1d8
100
AcDbEntity
  8
Layer_1
 62
1
100
AcDbSpline
 70
8
 71
3
 72
8
 73
4
 74
0
 40
0
 40
0
 40
0
 40
0
 40
1
 40
1
 40
1
 40
1
 10
111.706840
 20
184.969848
 30
0.0
 10
111.174532
 20
184.969848
 30
0.0
 10
110.684474
 20
184.864233
 30
0.0
 10
110.236666
 20
184.653002
 30
0.0
  0
SPLINE
  5
1d9
100
AcDbEntity
  8
Layer_1
 62
1
100
AcDbSpline
 70
8
 71
3
 72
8
 73
4
 74
0
 40
0
 40
0
 40
0
 40
0
 40
1
 40
1
 40
1
 40
1
 10
110.236666
 20
184.653002
 30
0.0
 10
109.788851
 20
184.450220
 30
0.0
 10
109.391742
 20
184.167168
 30
0.0
 10
109.045319
 20
183.803847
 30
0.0
  0
SPLINE
  5
1da
100
AcDbEntity
  8
Layer_1
 62
1
100
AcDbSpline
 70
8
 71
3
 72
8
 73
4
 74
0
 40
0
 40
0
 40
0
 40
0
 40
1
 40
1
 40
1
 40
1
 10
109.045319
 20
183.803847
 30
0.0
 10
108.707351
 20
183.440533
 30
0.0
 10
108.432748
 20
183.013841
 30
0.0
 10
108.221517
 20
182.523789
 30
0.0
  0
SPLINE
  5
1db
100
AcDbEntity
  8
Layer_1
 62
1
100
AcDbSpline
 70
8
 71
3
 72
8
 73
4
 74
0
 40
0
 40
0
 40
0
 40
0
 40
1
 40
1
 40
1
 40
1
 10
108.221517
 20
182.523789
 30
0.0
 10
108.018735
 20
182.042173
 30
0.0
 10
107.917344
 20
181.518321
 30
0.0
 10
107.917344
 20
180.952224
 30
0.0
  0
SPLINE
  5
1dc
100
AcDbEntity
  8
Layer_1
 62
1
100
AcDbSpline
 70
8
 71
3
 72
8
 73
4
 74
0
 40
0
 40
0
 40
0
 40
0
 40
1
 40
1
 40
1
 40
1
 10
107.917344
 20
180.952224
 30
0.0
 10
107.917344
 20
180.445269
 30
0.0
 10
108.001844
 20
179.963666
 30
0.0
 10
108.170825
 20
179.507403
 30
0.0
  0
SPLINE
  5
1dd
100
AcDbEntity
  8
Layer_1
 62
1
100
AcDbSpline
 70
8
 71
3
 72
8
 73
4
 74
0
 40
0
 40
0
 40
0
 40
0
 40
1
 40
1
 40
1
 40
1
 10
108.170825
 20
179.507403
 30
0.0
 10
108.348261
 20
179.059589
 30
0.0
 10
108.593287
 20
178.666704
 30
0.0
 10
108.905909
 20
178.328729
 30
0.0
  0
SPLINE
  5
1de
100
AcDbEntity
  8
Layer_1
 62
1
100
AcDbSpline
 70
8
 71
3
 72
8
 73
4
 74
0
 40
0
 40
0
 40
0
 40
0
 40
1
 40
1
 40
1
 40
1
 10
108.905909
 20
178.328729
 30
0.0
 10
109.226979
 20
177.990761
 30
0.0
 10
109.607198
 20
177.724607
 30
0.0
 10
110.046557
 20
177.530274
 30
0.0
  0
SPLINE
  5
1df
100
AcDbEntity
  8
Layer_1
 62
1
100
AcDbSpline
 70
8
 71
3
 72
8
 73
4
 74
0
 40
0
 40
0
 40
0
 40
0
 40
1
 40
1
 40
1
 40
1
 10
110.046557
 20
177.530274
 30
0.0
 10
110.485916
 20
177.335940
 30
0.0
 10
110.997096
 20
177.238774
 30
0.0
 10
111.580096
 20
177.238774
 30
0.0
  0
SPLINE
  5
1e0
100
AcDbEntity
  8
Layer_1
 62
1
100
AcDbSpline
 70
8
 71
3
 72
8
 73
4
 74
0
 40
0
 40
0
 40
0
 40
0
 40
1
 40
1
 40
1
 40
1
 10
111.580096
 20
177.238774
 30
0.0
 10
111.740635
 20
177.238774
 30
0.0
 10
111.930737
 20
177.259863
 30
0.0
 10
112.150423
 20
177.302171
 30
0.0
  0
SPLINE
  5
1e1
100
AcDbEntity
  8
Layer_1
 62
1
100
AcDbSpline
 70
8
 71
3
 72
8
 73
4
 74
0
 40
0
 40
0
 40
0
 40
0
 40
1
 40
1
 40
1
 40
1
 10
112.150423
 20
177.302171
 30
0.0
 10
112.370103
 20
177.344415
 30
0.0
 10
112.610911
 20
177.424691
 30
0.0
 10
112.872834
 20
177.542979
 30
0.0
  0
SPLINE
  5
1e2
100
AcDbEntity
  8
Layer_1
 62
1
100
AcDbSpline
 70
8
 71
3
 72
8
 73
4
 74
0
 40
0
 40
0
 40
0
 40
0
 40
1
 40
1
 40
1
 40
1
 10
112.872834
 20
177.542979
 30
0.0
 10
113.134763
 20
177.661268
 30
0.0
 10
113.409366
 20
177.826024
 30
0.0
 10
113.696635
 20
178.037255
 30
0.0
  0
SPLINE
  5
1e3
100
AcDbEntity
  8
Layer_1
 62
1
100
AcDbSpline
 70
8
 71
3
 72
8
 73
4
 74
0
 40
0
 40
0
 40
0
 40
0
 40
1
 40
1
 40
1
 40
1
 10
113.696635
 20
178.037255
 30
0.0
 10
113.983911
 20
178.256941
 30
0.0
 10
114.275411
 20
178.552666
 30
0.0
 10
114.571136
 20
178.924429
 30
0.0
  0
LWPOLYLINE
  5
1e4
100
AcDbEntity
  8
Layer_1
 62
1
100
AcDbPolyline
 90
3
 70
1
 10
95.040684
 20
184.868424
 30
0.0
 10
94.888601
 20
184.969816
 30
0.0
 10
94.888594
 20
184.969848
 30
0.0
  0
SPLINE
  5
1e5
100
AcDbEntity
  8
Layer_1
 62
1
100
AcDbSpline
 70
8
 71
3
 72
8
 73
4
 74
0
 40
0
 40
0
 40
0
 40
0
 40
1
 40
1
 40
1
 40
1
 10
114.178245
 20
179.317320
 30
0.0
 10
113.831821
 20
178.970903
 30
0.0
 10
113.502302
 20
178.738550
 30
0.0
 10
113.189680
 20
178.620255
 30
0.0
  0
SPLINE
  5
1e6
100
AcDbEntity
  8
Layer_1
 62
1
100
AcDbSpline
 70
8
 71
3
 72
8
 73
4
 74
0
 40
0
 40
0
 40
0
 40
0
 40
1
 40
1
 40
1
 40
1
 10
113.189680
 20
178.620255
 30
0.0
 10
112.877058
 20
178.501967
 30
0.0
 10
112.564436
 20
178.442819
 30
0.0
 10
112.251814
 20
178.442819
 30
0.0
  0
SPLINE
  5
1e7
100
AcDbEntity
  8
Layer_1
 62
1
100
AcDbSpline
 70
8
 71
3
 72
8
 73
4
 74
0
 40
0
 40
0
 40
0
 40
0
 40
1
 40
1
 40
1
 40
1
 10
112.251814
 20
178.442819
 30
0.0
 10
111.947641
 20
178.442819
 30
0.0
 10
111.630795
 20
178.501999
 30
0.0
 10
111.301275
 20
178.620255
 30
0.0
  0
SPLINE
  5
1e8
100
AcDbEntity
  8
Layer_1
 62
1
100
AcDbSpline
 70
8
 71
3
 72
8
 73
4
 74
0
 40
0
 40
0
 40
0
 40
0
 40
1
 40
1
 40
1
 40
1
 10
111.301275
 20
178.620255
 30
0.0
 10
110.980198
 20
178.746993
 30
0.0
 10
110.684480
 20
178.937102
 30
0.0
 10
110.414102
 20
179.190583
 30
0.0
  0
SPLINE
  5
1e9
100
AcDbEntity
  8
Layer_1
 62
1
100
AcDbSpline
 70
8
 71
3
 72
8
 73
4
 74
0
 40
0
 40
0
 40
0
 40
0
 40
1
 40
1
 40
1
 40
1
 10
110.414102
 20
179.190583
 30
0.0
 10
110.152179
 20
179.444057
 30
0.0
 10
109.940948
 20
179.773576
 30
0.0
 10
109.780409
 20
180.179147
 30
0.0
  0
SPLINE
  5
1ea
100
AcDbEntity
  8
Layer_1
 62
1
100
AcDbSpline
 70
8
 71
3
 72
8
 73
4
 74
0
 40
0
 40
0
 40
0
 40
0
 40
1
 40
1
 40
1
 40
1
 10
109.780409
 20
180.179147
 30
0.0
 10
109.628306
 20
180.584705
 30
0.0
 10
109.548037
 20
181.078987
 30
0.0
 10
109.539601
 20
181.661988
 30
0.0
  0
LWPOLYLINE
  5
1eb
100
AcDbEntity
  8
Layer_1
 62
1
100
AcDbPolyline
 90
2
 70
1
 10
114.571136
 20
178.924429
 30
0.0
 10
114.178245
 20
179.317320
 30
0.0
  0
SPLINE
  5
1ec
100
AcDbEntity
  8
Layer_1
 62
1
100
AcDbSpline
 70
8
 71
3
 72
8
 73
4
 74
0
 40
0
 40
0
 40
0
 40
0
 40
1
 40
1
 40
1
 40
1
 10
114.241617
 20
181.661988
 30
0.0
 10
114.435931
 20
181.661988
 30
0.0
 10
114.554219
 20
181.776058
 30
0.0
 10
114.596482
 20
182.004187
 30
0.0
  0
LWPOLYLINE
  5
1ed
100
AcDbEntity
  8
Layer_1
 62
1
100
AcDbPolyline
 90
2
 70
1
 10
109.539601
 20
181.661988
 30
0.0
 10
114.241617
 20
181.661988
 30
0.0
  0
SPLINE
  5
1ee
100
AcDbEntity
  8
Layer_1
 62
1
100
AcDbSpline
 70
8
 71
3
 72
8
 73
4
 74
0
 40
0
 40
0
 40
0
 40
0
 40
1
 40
1
 40
1
 40
1
 10
114.609136
 20
182.359052
 30
0.0
 10
114.609136
 20
182.756168
 30
0.0
 10
114.533091
 20
183.115258
 30
0.0
 10
114.381007
 20
183.436335
 30
0.0
  0
SPLINE
  5
1ef
100
AcDbEntity
  8
Layer_1
 62
1
100
AcDbSpline
 70
8
 71
3
 72
8
 73
4
 74
0
 40
0
 40
0
 40
0
 40
0
 40
1
 40
1
 40
1
 40
1
 10
114.381007
 20
183.436335
 30
0.0
 10
114.228918
 20
183.757399
 30
0.0
 10
114.026135
 20
184.032002
 30
0.0
 10
113.772661
 20
184.260136
 30
0.0
  0
SPLINE
  5
1f0
100
AcDbEntity
  8
Layer_1
 62
1
100
AcDbSpline
 70
8
 71
3
 72
8
 73
4
 74
0
 40
0
 40
0
 40
0
 40
0
 40
1
 40
1
 40
1
 40
1
 10
113.772661
 20
184.260136
 30
0.0
 10
113.519180
 20
184.488265
 30
0.0
 10
113.219238
 20
184.661476
 30
0.0
 10
112.872814
 20
184.779765
 30
0.0
  0
SPLINE
  5
1f1
100
AcDbEntity
  8
Layer_1
 62
1
100
AcDbSpline
 70
8
 71
3
 72
8
 73
4
 74
0
 40
0
 40
0
 40
0
 40
0
 40
1
 40
1
 40
1
 40
1
 10
112.872814
 20
184.779765
 30
0.0
 10
112.534846
 20
184.906502
 30
0.0
 10
112.146179
 20
184.969874
 30
0.0
 10
111.706820
 20
184.969874
 30
0.0
  0
LWPOLYLINE
  5
1f2
100
AcDbEntity
  8
Layer_1
 62
1
100
AcDbPolyline
 90
3
 70
1
 10
114.596482
 20
182.004187
 30
0.0
 10
114.609136
 20
182.181616
 30
0.0
 10
114.609136
 20
182.359052
 30
0.0
  0
SPLINE
  5
1f3
100
AcDbEntity
  8
Layer_1
 62
1
100
AcDbSpline
 70
8
 71
3
 72
8
 73
4
 74
0
 40
0
 40
0
 40
0
 40
0
 40
1
 40
1
 40
1
 40
1
 10
118.309933
 20
184.969848
 30
0.0
 10
118.183195
 20
184.919169
 30
0.0
 10
118.009984
 20
184.864233
 30
0.0
 10
117.790304
 20
184.805085
 30
0.0
  0
SPLINE
  5
1f4
100
AcDbEntity
  8
Layer_1
 62
1
100
AcDbSpline
 70
8
 71
3
 72
8
 73
4
 74
0
 40
0
 40
0
 40
0
 40
0
 40
1
 40
1
 40
1
 40
1
 10
117.790304
 20
184.805085
 30
0.0
 10
117.570625
 20
184.745970
 30
0.0
 10
117.338266
 20
184.682572
 30
0.0
 10
117.093240
 20
184.614976
 30
0.0
  0
SPLINE
  5
1f5
100
AcDbEntity
  8
Layer_1
 62
1
100
AcDbSpline
 70
8
 71
3
 72
8
 73
4
 74
0
 40
0
 40
0
 40
0
 40
0
 40
1
 40
1
 40
1
 40
1
 10
117.093240
 20
184.614976
 30
0.0
 10
116.856663
 20
184.555861
 30
0.0
 10
116.598957
 20
184.496687
 30
0.0
 10
116.320130
 20
184.437546
 30
0.0
  0
SPLINE
  5
1f6
100
AcDbEntity
  8
Layer_1
 62
1
100
AcDbSpline
 70
8
 71
3
 72
8
 73
4
 74
0
 40
0
 40
0
 40
0
 40
0
 40
1
 40
1
 40
1
 40
1
 10
116.320130
 20
184.437546
 30
0.0
 10
116.041303
 20
184.378431
 30
0.0
 10
115.796284
 20
184.327720
 30
0.0
 10
115.585047
 20
184.285457
 30
0.0
  0
LWPOLYLINE
  5
1f7
100
AcDbEntity
  8
Layer_1
 62
1
100
AcDbPolyline
 90
2
 70
1
 10
111.706820
 20
184.969874
 30
0.0
 10
111.706840
 20
184.969848
 30
0.0
  0
SPLINE
  5
1f8
100
AcDbEntity
  8
Layer_1
 62
1
100
AcDbSpline
 70
8
 71
3
 72
8
 73
4
 74
0
 40
0
 40
0
 40
0
 40
0
 40
1
 40
1
 40
1
 40
1
 10
115.623072
 20
183.905238
 30
0.0
 10
115.876553
 20
183.862995
 30
0.0
 10
116.079336
 20
183.820764
 30
0.0
 10
116.231419
 20
183.778501
 30
0.0
  0
SPLINE
  5
1f9
100
AcDbEntity
  8
Layer_1
 62
1
100
AcDbSpline
 70
8
 71
3
 72
8
 73
4
 74
0
 40
0
 40
0
 40
0
 40
0
 40
1
 40
1
 40
1
 40
1
 10
116.231419
 20
183.778501
 30
0.0
 10
116.391957
 20
183.736258
 30
0.0
 10
116.510246
 20
183.672886
 30
0.0
 10
116.586291
 20
183.588392
 30
0.0
  0
SPLINE
  5
1fa
100
AcDbEntity
  8
Layer_1
 62
1
100
AcDbSpline
 70
8
 71
3
 72
8
 73
4
 74
0
 40
0
 40
0
 40
0
 40
0
 40
1
 40
1
 40
1
 40
1
 10
116.586291
 20
183.588392
 30
0.0
 10
116.670778
 20
183.512347
 30
0.0
 10
116.725701
 20
183.406732
 30
0.0
 10
116.751047
 20
183.271546
 30
0.0
  0
SPLINE
  5
1fb
100
AcDbEntity
  8
Layer_1
 62
1
100
AcDbSpline
 70
8
 71
3
 72
8
 73
4
 74
0
 40
0
 40
0
 40
0
 40
0
 40
1
 40
1
 40
1
 40
1
 10
116.751047
 20
183.271546
 30
0.0
 10
116.776419
 20
183.136360
 30
0.0
 10
116.789073
 20
182.950475
 30
0.0
 10
116.789073
 20
182.713892
 30
0.0
  0
LWPOLYLINE
  5
1fc
100
AcDbEntity
  8
Layer_1
 62
1
100
AcDbPolyline
 90
2
 70
1
 10
115.585047
 20
184.285457
 30
0.0
 10
115.623072
 20
183.905238
 30
0.0
  0
SPLINE
  5
1fd
100
AcDbEntity
  8
Layer_1
 62
1
100
AcDbSpline
 70
8
 71
3
 72
8
 73
4
 74
0
 40
0
 40
0
 40
0
 40
0
 40
1
 40
1
 40
1
 40
1
 10
116.789073
 20
179.482057
 30
0.0
 10
116.789073
 20
179.160980
 30
0.0
 10
116.772137
 20
178.903281
 30
0.0
 10
116.738394
 20
178.708947
 30
0.0
  0
SPLINE
  5
1fe
100
AcDbEntity
  8
Layer_1
 62
1
100
AcDbSpline
 70
8
 71
3
 72
8
 73
4
 74
0
 40
0
 40
0
 40
0
 40
0
 40
1
 40
1
 40
1
 40
1
 10
116.738394
 20
178.708947
 30
0.0
 10
116.713022
 20
178.523063
 30
0.0
 10
116.649676
 20
178.375197
 30
0.0
 10
116.548285
 20
178.265364
 30
0.0
  0
SPLINE
  5
1ff
100
AcDbEntity
  8
Layer_1
 62
1
100
AcDbSpline
 70
8
 71
3
 72
8
 73
4
 74
0
 40
0
 40
0
 40
0
 40
0
 40
1
 40
1
 40
1
 40
1
 10
116.548285
 20
178.265364
 30
0.0
 10
116.455349
 20
178.163966
 30
0.0
 10
116.320156
 20
178.087928
 30
0.0
 10
116.142720
 20
178.037229
 30
0.0
  0
SPLINE
  5
200
100
AcDbEntity
  8
Layer_1
 62
1
100
AcDbSpline
 70
8
 71
3
 72
8
 73
4
 74
0
 40
0
 40
0
 40
0
 40
0
 40
1
 40
1
 40
1
 40
1
 10
116.142720
 20
178.037229
 30
0.0
 10
115.973733
 20
177.986550
 30
0.0
 10
115.745605
 20
177.948518
 30
0.0
 10
115.458335
 20
177.923165
 30
0.0
  0
LWPOLYLINE
  5
201
100
AcDbEntity
  8
Layer_1
 62
1
100
AcDbPolyline
 90
2
 70
1
 10
116.789073
 20
182.713892
 30
0.0
 10
116.789073
 20
179.482057
 30
0.0
  0
SPLINE
  5
202
100
AcDbEntity
  8
Layer_1
 62
1
100
AcDbSpline
 70
8
 71
3
 72
8
 73
4
 74
0
 40
0
 40
0
 40
0
 40
0
 40
1
 40
1
 40
1
 40
1
 10
115.496361
 20
177.492255
 30
0.0
 10
115.732938
 20
177.492255
 30
0.0
 10
116.011765
 20
177.496797
 30
0.0
 10
116.332836
 20
177.504908
 30
0.0
  0
SPLINE
  5
203
100
AcDbEntity
  8
Layer_1
 62
1
100
AcDbSpline
 70
8
 71
3
 72
8
 73
4
 74
0
 40
0
 40
0
 40
0
 40
0
 40
1
 40
1
 40
1
 40
1
 10
116.332836
 20
177.504908
 30
0.0
 10
116.662362
 20
177.513344
 30
0.0
 10
117.021458
 20
177.517562
 30
0.0
 10
117.410119
 20
177.517562
 30
0.0
  0
SPLINE
  5
204
100
AcDbEntity
  8
Layer_1
 62
1
100
AcDbSpline
 70
8
 71
3
 72
8
 73
4
 74
0
 40
0
 40
0
 40
0
 40
0
 40
1
 40
1
 40
1
 40
1
 10
117.410119
 20
177.517562
 30
0.0
 10
117.933971
 20
177.517562
 30
0.0
 10
118.364882
 20
177.513019
 30
0.0
 10
118.702856
 20
177.504908
 30
0.0
  0
SPLINE
  5
205
100
AcDbEntity
  8
Layer_1
 62
1
100
AcDbSpline
 70
8
 71
3
 72
8
 73
4
 74
0
 40
0
 40
0
 40
0
 40
0
 40
1
 40
1
 40
1
 40
1
 10
118.702856
 20
177.504908
 30
0.0
 10
119.040824
 20
177.496472
 30
0.0
 10
119.344998
 20
177.492255
 30
0.0
 10
119.615376
 20
177.492255
 30
0.0
  0
LWPOLYLINE
  5
206
100
AcDbEntity
  8
Layer_1
 62
1
100
AcDbPolyline
 90
2
 70
1
 10
115.458335
 20
177.923165
 30
0.0
 10
115.496361
 20
177.492255
 30
0.0
  0
SPLINE
  5
207
100
AcDbEntity
  8
Layer_1
 62
1
100
AcDbSpline
 70
8
 71
3
 72
8
 73
4
 74
0
 40
0
 40
0
 40
0
 40
0
 40
1
 40
1
 40
1
 40
1
 10
119.653402
 20
177.986537
 30
0.0
 10
119.374575
 20
178.003473
 30
0.0
 10
119.150671
 20
178.024563
 30
0.0
 10
118.981683
 20
178.049870
 30
0.0
  0
SPLINE
  5
208
100
AcDbEntity
  8
Layer_1
 62
1
100
AcDbSpline
 70
8
 71
3
 72
8
 73
4
 74
0
 40
0
 40
0
 40
0
 40
0
 40
1
 40
1
 40
1
 40
1
 10
118.981683
 20
178.049870
 30
0.0
 10
118.821151
 20
178.075242
 30
0.0
 10
118.698639
 20
178.121690
 30
0.0
 10
118.614145
 20
178.189287
 30
0.0
  0
SPLINE
  5
209
100
AcDbEntity
  8
Layer_1
 62
1
100
AcDbSpline
 70
8
 71
3
 72
8
 73
4
 74
0
 40
0
 40
0
 40
0
 40
0
 40
1
 40
1
 40
1
 40
1
 10
118.614145
 20
178.189287
 30
0.0
 10
118.529658
 20
178.256883
 30
0.0
 10
118.474735
 20
178.349819
 30
0.0
 10
118.449382
 20
178.468114
 30
0.0
  0
SPLINE
  5
20a
100
AcDbEntity
  8
Layer_1
 62
1
100
AcDbSpline
 70
8
 71
3
 72
8
 73
4
 74
0
 40
0
 40
0
 40
0
 40
0
 40
1
 40
1
 40
1
 40
1
 10
118.449382
 20
178.468114
 30
0.0
 10
118.432446
 20
178.594844
 30
0.0
 10
118.424010
 20
178.759614
 30
0.0
 10
118.424010
 20
178.962396
 30
0.0
  0
LWPOLYLINE
  5
20b
100
AcDbEntity
  8
Layer_1
 62
1
100
AcDbPolyline
 90
2
 70
1
 10
119.615376
 20
177.492255
 30
0.0
 10
119.653402
 20
177.986537
 30
0.0
  0
SPLINE
  5
20c
100
AcDbEntity
  8
Layer_1
 62
1
100
AcDbSpline
 70
8
 71
3
 72
8
 73
4
 74
0
 40
0
 40
0
 40
0
 40
0
 40
1
 40
1
 40
1
 40
1
 10
118.424010
 20
183.170122
 30
0.0
 10
118.736632
 20
183.406699
 30
0.0
 10
119.045029
 20
183.588360
 30
0.0
 10
119.349203
 20
183.715097
 30
0.0
  0
SPLINE
  5
20d
100
AcDbEntity
  8
Layer_1
 62
1
100
AcDbSpline
 70
8
 71
3
 72
8
 73
4
 74
0
 40
0
 40
0
 40
0
 40
0
 40
1
 40
1
 40
1
 40
1
 10
119.349203
 20
183.715097
 30
0.0
 10
119.653376
 20
183.850289
 30
0.0
 10
119.991344
 20
183.917879
 30
0.0
 10
120.363113
 20
183.917879
 30
0.0
  0
SPLINE
  5
20e
100
AcDbEntity
  8
Layer_1
 62
1
100
AcDbSpline
 70
8
 71
3
 72
8
 73
4
 74
0
 40
0
 40
0
 40
0
 40
0
 40
1
 40
1
 40
1
 40
1
 10
120.363113
 20
183.917879
 30
0.0
 10
120.777126
 20
183.917879
 30
0.0
 10
121.115094
 20
183.765796
 30
0.0
 10
121.377024
 20
183.461623
 30
0.0
  0
SPLINE
  5
20f
100
AcDbEntity
  8
Layer_1
 62
1
100
AcDbSpline
 70
8
 71
3
 72
8
 73
4
 74
0
 40
0
 40
0
 40
0
 40
0
 40
1
 40
1
 40
1
 40
1
 10
121.377024
 20
183.461623
 30
0.0
 10
121.638947
 20
183.165898
 30
0.0
 10
121.769915
 20
182.680064
 30
0.0
 10
121.769915
 20
182.004128
 30
0.0
  0
LWPOLYLINE
  5
210
100
AcDbEntity
  8
Layer_1
 62
1
100
AcDbPolyline
 90
2
 70
1
 10
118.424010
 20
178.962396
 30
0.0
 10
118.424010
 20
183.170122
 30
0.0
  0
SPLINE
  5
211
100
AcDbEntity
  8
Layer_1
 62
1
100
AcDbSpline
 70
8
 71
3
 72
8
 73
4
 74
0
 40
0
 40
0
 40
0
 40
0
 40
1
 40
1
 40
1
 40
1
 10
121.769915
 20
179.405979
 30
0.0
 10
121.769915
 20
179.084909
 30
0.0
 10
121.757262
 20
178.831428
 30
0.0
 10
121.731890
 20
178.645543
 30
0.0
  0
SPLINE
  5
212
100
AcDbEntity
  8
Layer_1
 62
1
100
AcDbSpline
 70
8
 71
3
 72
8
 73
4
 74
0
 40
0
 40
0
 40
0
 40
0
 40
1
 40
1
 40
1
 40
1
 10
121.731890
 20
178.645543
 30
0.0
 10
121.706518
 20
178.468114
 30
0.0
 10
121.651620
 20
178.328703
 30
0.0
 10
121.567127
 20
178.227306
 30
0.0
  0
SPLINE
  5
213
100
AcDbEntity
  8
Layer_1
 62
1
100
AcDbSpline
 70
8
 71
3
 72
8
 73
4
 74
0
 40
0
 40
0
 40
0
 40
0
 40
1
 40
1
 40
1
 40
1
 10
121.567127
 20
178.227306
 30
0.0
 10
121.482633
 20
178.134383
 30
0.0
 10
121.360120
 20
178.066793
 30
0.0
 10
121.199582
 20
178.024524
 30
0.0
  0
SPLINE
  5
214
100
AcDbEntity
  8
Layer_1
 62
1
100
AcDbSpline
 70
8
 71
3
 72
8
 73
4
 74
0
 40
0
 40
0
 40
0
 40
0
 40
1
 40
1
 40
1
 40
1
 10
121.199582
 20
178.024524
 30
0.0
 10
121.039043
 20
177.982280
 30
0.0
 10
120.827812
 20
177.948485
 30
0.0
 10
120.565889
 20
177.923133
 30
0.0
  0
LWPOLYLINE
  5
215
100
AcDbEntity
  8
Layer_1
 62
1
100
AcDbPolyline
 90
2
 70
1
 10
121.769915
 20
182.004128
 30
0.0
 10
121.769915
 20
179.405979
 30
0.0
  0
SPLINE
  5
216
100
AcDbEntity
  8
Layer_1
 62
1
100
AcDbSpline
 70
8
 71
3
 72
8
 73
4
 74
0
 40
0
 40
0
 40
0
 40
0
 40
1
 40
1
 40
1
 40
1
 10
120.603915
 20
177.492222
 30
0.0
 10
120.840492
 20
177.492222
 30
0.0
 10
121.106646
 20
177.496764
 30
0.0
 10
121.402370
 20
177.504876
 30
0.0
  0
SPLINE
  5
217
100
AcDbEntity
  8
Layer_1
 62
1
100
AcDbSpline
 70
8
 71
3
 72
8
 73
4
 74
0
 40
0
 40
0
 40
0
 40
0
 40
1
 40
1
 40
1
 40
1
 10
121.402370
 20
177.504876
 30
0.0
 10
121.706543
 20
177.513311
 30
0.0
 10
122.082537
 20
177.517529
 30
0.0
 10
122.530345
 20
177.517529
 30
0.0
  0
SPLINE
  5
218
100
AcDbEntity
  8
Layer_1
 62
1
100
AcDbSpline
 70
8
 71
3
 72
8
 73
4
 74
0
 40
0
 40
0
 40
0
 40
0
 40
1
 40
1
 40
1
 40
1
 10
122.530345
 20
177.517529
 30
0.0
 10
122.995057
 20
177.517529
 30
0.0
 10
123.387948
 20
177.512987
 30
0.0
 10
123.709019
 20
177.504876
 30
0.0
  0
SPLINE
  5
219
100
AcDbEntity
  8
Layer_1
 62
1
100
AcDbSpline
 70
8
 71
3
 72
8
 73
4
 74
0
 40
0
 40
0
 40
0
 40
0
 40
1
 40
1
 40
1
 40
1
 10
123.709019
 20
177.504876
 30
0.0
 10
124.038538
 20
177.496440
 30
0.0
 10
124.338487
 20
177.492222
 30
0.0
 10
124.608865
 20
177.492222
 30
0.0
  0
LWPOLYLINE
  5
21a
100
AcDbEntity
  8
Layer_1
 62
1
100
AcDbPolyline
 90
2
 70
1
 10
120.565889
 20
177.923133
 30
0.0
 10
120.603915
 20
177.492222
 30
0.0
  0
SPLINE
  5
21b
100
AcDbEntity
  8
Layer_1
 62
1
100
AcDbSpline
 70
8
 71
3
 72
8
 73
4
 74
0
 40
0
 40
0
 40
0
 40
0
 40
1
 40
1
 40
1
 40
1
 10
124.634238
 20
177.986504
 30
0.0
 10
124.363866
 20
178.003441
 30
0.0
 10
124.148410
 20
178.024530
 30
0.0
 10
123.987872
 20
178.049837
 30
0.0
  0
SPLINE
  5
21c
100
AcDbEntity
  8
Layer_1
 62
1
100
AcDbSpline
 70
8
 71
3
 72
8
 73
4
 74
0
 40
0
 40
0
 40
0
 40
0
 40
1
 40
1
 40
1
 40
1
 10
123.987872
 20
178.049837
 30
0.0
 10
123.827333
 20
178.075209
 30
0.0
 10
123.704820
 20
178.121658
 30
0.0
 10
123.620327
 20
178.189254
 30
0.0
  0
SPLINE
  5
21d
100
AcDbEntity
  8
Layer_1
 62
1
100
AcDbSpline
 70
8
 71
3
 72
8
 73
4
 74
0
 40
0
 40
0
 40
0
 40
0
 40
1
 40
1
 40
1
 40
1
 10
123.620327
 20
178.189254
 30
0.0
 10
123.544288
 20
178.256850
 30
0.0
 10
123.493590
 20
178.349786
 30
0.0
 10
123.468243
 20
178.468081
 30
0.0
  0
SPLINE
  5
21e
100
AcDbEntity
  8
Layer_1
 62
1
100
AcDbSpline
 70
8
 71
3
 72
8
 73
4
 74
0
 40
0
 40
0
 40
0
 40
0
 40
1
 40
1
 40
1
 40
1
 10
123.468243
 20
178.468081
 30
0.0
 10
123.442871
 20
178.594812
 30
0.0
 10
123.430218
 20
178.759575
 30
0.0
 10
123.430218
 20
178.962363
 30
0.0
  0
LWPOLYLINE
  5
21f
100
AcDbEntity
  8
Layer_1
 62
1
100
AcDbPolyline
 90
2
 70
1
 10
124.608865
 20
177.492222
 30
0.0
 10
124.634238
 20
177.986504
 30
0.0
  0
SPLINE
  5
220
100
AcDbEntity
  8
Layer_1
 62
1
100
AcDbSpline
 70
8
 71
3
 72
8
 73
4
 74
0
 40
0
 40
0
 40
0
 40
0
 40
1
 40
1
 40
1
 40
1
 10
123.430218
 20
182.371634
 30
0.0
 10
123.430218
 20
182.836346
 30
0.0
 10
123.371103
 20
183.229231
 30
0.0
 10
123.252788
 20
183.550308
 30
0.0
  0
SPLINE
  5
221
100
AcDbEntity
  8
Layer_1
 62
1
100
AcDbSpline
 70
8
 71
3
 72
8
 73
4
 74
0
 40
0
 40
0
 40
0
 40
0
 40
1
 40
1
 40
1
 40
1
 10
123.252788
 20
183.550308
 30
0.0
 10
123.142942
 20
183.879827
 30
0.0
 10
122.982410
 20
184.150206
 30
0.0
 10
122.771179
 20
184.361437
 30
0.0
  0
SPLINE
  5
222
100
AcDbEntity
  8
Layer_1
 62
1
100
AcDbSpline
 70
8
 71
3
 72
8
 73
4
 74
0
 40
0
 40
0
 40
0
 40
0
 40
1
 40
1
 40
1
 40
1
 10
122.771179
 20
184.361437
 30
0.0
 10
122.568397
 20
184.572668
 30
0.0
 10
122.327589
 20
184.724757
 30
0.0
 10
122.048768
 20
184.817693
 30
0.0
  0
SPLINE
  5
223
100
AcDbEntity
  8
Layer_1
 62
1
100
AcDbSpline
 70
8
 71
3
 72
8
 73
4
 74
0
 40
0
 40
0
 40
0
 40
0
 40
1
 40
1
 40
1
 40
1
 10
122.048768
 20
184.817693
 30
0.0
 10
121.778390
 20
184.919091
 30
0.0
 10
121.482665
 20
184.969783
 30
0.0
 10
121.161595
 20
184.969783
 30
0.0
  0
SPLINE
  5
224
100
AcDbEntity
  8
Layer_1
 62
1
100
AcDbSpline
 70
8
 71
3
 72
8
 73
4
 74
0
 40
0
 40
0
 40
0
 40
0
 40
1
 40
1
 40
1
 40
1
 10
121.161595
 20
184.969783
 30
0.0
 10
120.696890
 20
184.969783
 30
0.0
 10
120.227953
 20
184.868392
 30
0.0
 10
119.754793
 20
184.665610
 30
0.0
  0
SPLINE
  5
225
100
AcDbEntity
  8
Layer_1
 62
1
100
AcDbSpline
 70
8
 71
3
 72
8
 73
4
 74
0
 40
0
 40
0
 40
0
 40
0
 40
1
 40
1
 40
1
 40
1
 10
119.754793
 20
184.665610
 30
0.0
 10
119.290081
 20
184.462828
 30
0.0
 10
118.846504
 20
184.179776
 30
0.0
 10
118.424036
 20
183.816456
 30
0.0
  0
SPLINE
  5
226
100
AcDbEntity
  8
Layer_1
 62
1
100
AcDbSpline
 70
8
 71
3
 72
8
 73
4
 74
0
 40
0
 40
0
 40
0
 40
0
 40
1
 40
1
 40
1
 40
1
 10
118.424036
 20
183.816456
 30
0.0
 10
118.424036
 20
183.993892
 30
0.0
 10
118.432472
 20
184.167103
 30
0.0
 10
118.449408
 20
184.336084
 30
0.0
  0
SPLINE
  5
227
100
AcDbEntity
  8
Layer_1
 62
1
100
AcDbSpline
 70
8
 71
3
 72
8
 73
4
 74
0
 40
0
 40
0
 40
0
 40
0
 40
1
 40
1
 40
1
 40
1
 10
118.449408
 20
184.336084
 30
0.0
 10
118.466279
 20
184.513520
 30
0.0
 10
118.487434
 20
184.690956
 30
0.0
 10
118.512806
 20
184.868392
 30
0.0
  0
LWPOLYLINE
  5
228
100
AcDbEntity
  8
Layer_1
 62
1
100
AcDbPolyline
 90
2
 70
1
 10
123.430218
 20
178.962363
 30
0.0
 10
123.430218
 20
182.371634
 30
0.0
  0
SPLINE
  5
229
100
AcDbEntity
  8
Layer_1
 62
1
100
AcDbSpline
 70
8
 71
3
 72
8
 73
4
 74
0
 40
0
 40
0
 40
0
 40
0
 40
1
 40
1
 40
1
 40
1
 10
128.258931
 20
184.969848
 30
0.0
 10
128.165989
 20
184.927604
 30
0.0
 10
128.026579
 20
184.881130
 30
0.0
 10
127.840694
 20
184.830431
 30
0.0
  0
SPLINE
  5
22a
100
AcDbEntity
  8
Layer_1
 62
1
100
AcDbSpline
 70
8
 71
3
 72
8
 73
4
 74
0
 40
0
 40
0
 40
0
 40
0
 40
1
 40
1
 40
1
 40
1
 10
127.840694
 20
184.830431
 30
0.0
 10
127.663258
 20
184.779752
 30
0.0
 10
127.414008
 20
184.724816
 30
0.0
 10
127.092931
 20
184.665675
 30
0.0
  0
SPLINE
  5
22b
100
AcDbEntity
  8
Layer_1
 62
1
100
AcDbSpline
 70
8
 71
3
 72
8
 73
4
 74
0
 40
0
 40
0
 40
0
 40
0
 40
1
 40
1
 40
1
 40
1
 10
127.092931
 20
184.665675
 30
0.0
 10
126.771860
 20
184.606560
 30
0.0
 10
126.476135
 20
184.547386
 30
0.0
 10
126.205764
 20
184.488239
 30
0.0
  0
LWPOLYLINE
  5
22c
100
AcDbEntity
  8
Layer_1
 62
1
100
AcDbPolyline
 90
3
 70
1
 10
118.512806
 20
184.868392
 30
0.0
 10
118.310024
 20
184.969783
 30
0.0
 10
118.309933
 20
184.969848
 30
0.0
  0
SPLINE
  5
22d
100
AcDbEntity
  8
Layer_1
 62
1
100
AcDbSpline
 70
8
 71
3
 72
8
 73
4
 74
0
 40
0
 40
0
 40
0
 40
0
 40
1
 40
1
 40
1
 40
1
 10
125.458007
 20
183.943264
 30
0.0
 10
125.711488
 20
183.901021
 30
0.0
 10
125.914270
 20
183.858790
 30
0.0
 10
126.066353
 20
183.816520
 30
0.0
  0
SPLINE
  5
22e
100
AcDbEntity
  8
Layer_1
 62
1
100
AcDbSpline
 70
8
 71
3
 72
8
 73
4
 74
0
 40
0
 40
0
 40
0
 40
0
 40
1
 40
1
 40
1
 40
1
 10
126.066353
 20
183.816520
 30
0.0
 10
126.226892
 20
183.774277
 30
0.0
 10
126.345180
 20
183.715129
 30
0.0
 10
126.421225
 20
183.639091
 30
0.0
  0
SPLINE
  5
22f
100
AcDbEntity
  8
Layer_1
 62
1
100
AcDbSpline
 70
8
 71
3
 72
8
 73
4
 74
0
 40
0
 40
0
 40
0
 40
0
 40
1
 40
1
 40
1
 40
1
 10
126.421225
 20
183.639091
 30
0.0
 10
126.505712
 20
183.563040
 30
0.0
 10
126.560636
 20
183.457431
 30
0.0
 10
126.585982
 20
183.322238
 30
0.0
  0
SPLINE
  5
230
100
AcDbEntity
  8
Layer_1
 62
1
100
AcDbSpline
 70
8
 71
3
 72
8
 73
4
 74
0
 40
0
 40
0
 40
0
 40
0
 40
1
 40
1
 40
1
 40
1
 10
126.585982
 20
183.322238
 30
0.0
 10
126.611354
 20
183.187052
 30
0.0
 10
126.624007
 20
183.001168
 30
0.0
 10
126.624007
 20
182.764590
 30
0.0
  0
LWPOLYLINE
  5
231
100
AcDbEntity
  8
Layer_1
 62
1
100
AcDbPolyline
 90
3
 70
1
 10
126.205764
 20
184.488239
 30
0.0
 10
125.419981
 20
184.336149
 30
0.0
 10
125.458007
 20
183.943264
 30
0.0
  0
SPLINE
  5
232
100
AcDbEntity
  8
Layer_1
 62
1
100
AcDbSpline
 70
8
 71
3
 72
8
 73
4
 74
0
 40
0
 40
0
 40
0
 40
0
 40
1
 40
1
 40
1
 40
1
 10
126.624007
 20
179.482057
 30
0.0
 10
126.624007
 20
179.160980
 30
0.0
 10
126.607071
 20
178.903281
 30
0.0
 10
126.573328
 20
178.708947
 30
0.0
  0
SPLINE
  5
233
100
AcDbEntity
  8
Layer_1
 62
1
100
AcDbSpline
 70
8
 71
3
 72
8
 73
4
 74
0
 40
0
 40
0
 40
0
 40
0
 40
1
 40
1
 40
1
 40
1
 10
126.573328
 20
178.708947
 30
0.0
 10
126.547956
 20
178.523063
 30
0.0
 10
126.488834
 20
178.375197
 30
0.0
 10
126.395899
 20
178.265364
 30
0.0
  0
SPLINE
  5
234
100
AcDbEntity
  8
Layer_1
 62
1
100
AcDbSpline
 70
8
 71
3
 72
8
 73
4
 74
0
 40
0
 40
0
 40
0
 40
0
 40
1
 40
1
 40
1
 40
1
 10
126.395899
 20
178.265364
 30
0.0
 10
126.302956
 20
178.155518
 30
0.0
 10
126.171995
 20
178.075255
 30
0.0
 10
126.003007
 20
178.024556
 30
0.0
  0
SPLINE
  5
235
100
AcDbEntity
  8
Layer_1
 62
1
100
AcDbSpline
 70
8
 71
3
 72
8
 73
4
 74
0
 40
0
 40
0
 40
0
 40
0
 40
1
 40
1
 40
1
 40
1
 10
126.003007
 20
178.024556
 30
0.0
 10
125.842469
 20
177.982312
 30
0.0
 10
125.622789
 20
177.948518
 30
0.0
 10
125.343962
 20
177.923165
 30
0.0
  0
LWPOLYLINE
  5
236
100
AcDbEntity
  8
Layer_1
 62
1
100
AcDbPolyline
 90
2
 70
1
 10
126.624007
 20
182.764590
 30
0.0
 10
126.624007
 20
179.482057
 30
0.0
  0
SPLINE
  5
237
100
AcDbEntity
  8
Layer_1
 62
1
100
AcDbSpline
 70
8
 71
3
 72
8
 73
4
 74
0
 40
0
 40
0
 40
0
 40
0
 40
1
 40
1
 40
1
 40
1
 10
125.369334
 20
177.492255
 30
0.0
 10
125.605911
 20
177.492255
 30
0.0
 10
125.880514
 20
177.496797
 30
0.0
 10
126.193142
 20
177.504908
 30
0.0
  0
SPLINE
  5
238
100
AcDbEntity
  8
Layer_1
 62
1
100
AcDbSpline
 70
8
 71
3
 72
8
 73
4
 74
0
 40
0
 40
0
 40
0
 40
0
 40
1
 40
1
 40
1
 40
1
 10
126.193142
 20
177.504908
 30
0.0
 10
126.505764
 20
177.513344
 30
0.0
 10
126.869079
 20
177.517562
 30
0.0
 10
127.283092
 20
177.517562
 30
0.0
  0
SPLINE
  5
239
100
AcDbEntity
  8
Layer_1
 62
1
100
AcDbSpline
 70
8
 71
3
 72
8
 73
4
 74
0
 40
0
 40
0
 40
0
 40
0
 40
1
 40
1
 40
1
 40
1
 10
127.283092
 20
177.517562
 30
0.0
 10
127.781598
 20
177.517562
 30
0.0
 10
128.220957
 20
177.513019
 30
0.0
 10
128.601176
 20
177.504908
 30
0.0
  0
SPLINE
  5
23a
100
AcDbEntity
  8
Layer_1
 62
1
100
AcDbSpline
 70
8
 71
3
 72
8
 73
4
 74
0
 40
0
 40
0
 40
0
 40
0
 40
1
 40
1
 40
1
 40
1
 10
128.601176
 20
177.504908
 30
0.0
 10
128.981394
 20
177.496472
 30
0.0
 10
129.306689
 20
177.492255
 30
0.0
 10
129.577067
 20
177.492255
 30
0.0
  0
LWPOLYLINE
  5
23b
100
AcDbEntity
  8
Layer_1
 62
1
100
AcDbPolyline
 90
2
 70
1
 10
125.343962
 20
177.923165
 30
0.0
 10
125.369334
 20
177.492255
 30
0.0
  0
SPLINE
  5
23c
100
AcDbEntity
  8
Layer_1
 62
1
100
AcDbSpline
 70
8
 71
3
 72
8
 73
4
 74
0
 40
0
 40
0
 40
0
 40
0
 40
1
 40
1
 40
1
 40
1
 10
129.602439
 20
177.986537
 30
0.0
 10
129.289817
 20
178.003473
 30
0.0
 10
129.044792
 20
178.024563
 30
0.0
 10
128.867356
 20
178.049870
 30
0.0
  0
SPLINE
  5
23d
100
AcDbEntity
  8
Layer_1
 62
1
100
AcDbSpline
 70
8
 71
3
 72
8
 73
4
 74
0
 40
0
 40
0
 40
0
 40
0
 40
1
 40
1
 40
1
 40
1
 10
128.867356
 20
178.049870
 30
0.0
 10
128.689926
 20
178.075242
 30
0.0
 10
128.554734
 20
178.121690
 30
0.0
 10
128.461791
 20
178.189287
 30
0.0
  0
SPLINE
  5
23e
100
AcDbEntity
  8
Layer_1
 62
1
100
AcDbSpline
 70
8
 71
3
 72
8
 73
4
 74
0
 40
0
 40
0
 40
0
 40
0
 40
1
 40
1
 40
1
 40
1
 10
128.461791
 20
178.189287
 30
0.0
 10
128.377304
 20
178.256883
 30
0.0
 10
128.322381
 20
178.349819
 30
0.0
 10
128.297028
 20
178.468114
 30
0.0
  0
SPLINE
  5
23f
100
AcDbEntity
  8
Layer_1
 62
1
100
AcDbSpline
 70
8
 71
3
 72
8
 73
4
 74
0
 40
0
 40
0
 40
0
 40
0
 40
1
 40
1
 40
1
 40
1
 10
128.297028
 20
178.468114
 30
0.0
 10
128.271656
 20
178.594844
 30
0.0
 10
128.259003
 20
178.759607
 30
0.0
 10
128.259003
 20
178.962396
 30
0.0
  0
LWPOLYLINE
  5
240
100
AcDbEntity
  8
Layer_1
 62
1
100
AcDbPolyline
 90
2
 70
1
 10
129.577067
 20
177.492255
 30
0.0
 10
129.602439
 20
177.986537
 30
0.0
  0
SPLINE
  5
241
100
AcDbEntity
  8
Layer_1
 62
1
100
AcDbSpline
 70
8
 71
3
 72
8
 73
4
 74
0
 40
0
 40
0
 40
0
 40
0
 40
1
 40
1
 40
1
 40
1
 10
128.259003
 20
182.802577
 30
0.0
 10
128.267503
 20
183.013808
 30
0.0
 10
128.275939
 20
183.233488
 30
0.0
 10
128.284375
 20
183.461623
 30
0.0
  0
SPLINE
  5
242
100
AcDbEntity
  8
Layer_1
 62
1
100
AcDbSpline
 70
8
 71
3
 72
8
 73
4
 74
0
 40
0
 40
0
 40
0
 40
0
 40
1
 40
1
 40
1
 40
1
 10
128.284375
 20
183.461623
 30
0.0
 10
128.292810
 20
183.698200
 30
0.0
 10
128.305464
 20
183.939001
 30
0.0
 10
128.322400
 20
184.184033
 30
0.0
  0
SPLINE
  5
243
100
AcDbEntity
  8
Layer_1
 62
1
100
AcDbSpline
 70
8
 71
3
 72
8
 73
4
 74
0
 40
0
 40
0
 40
0
 40
0
 40
1
 40
1
 40
1
 40
1
 10
128.322400
 20
184.184033
 30
0.0
 10
128.339337
 20
184.429065
 30
0.0
 10
128.360426
 20
184.657194
 30
0.0
 10
128.385733
 20
184.868424
 30
0.0
  0
LWPOLYLINE
  5
244
100
AcDbEntity
  8
Layer_1
 62
1
100
AcDbPolyline
 90
3
 70
1
 10
128.259003
 20
178.962396
 30
0.0
 10
128.259003
 20
182.270276
 30
0.0
 10
128.259003
 20
182.802577
 30
0.0
  0
SPLINE
  5
245
100
AcDbEntity
  8
Layer_1
 62
1
100
AcDbSpline
 70
8
 71
3
 72
8
 73
4
 74
0
 40
0
 40
0
 40
0
 40
0
 40
1
 40
1
 40
1
 40
1
 10
132.960940
 20
184.969848
 30
0.0
 10
132.834203
 20
184.919169
 30
0.0
 10
132.660991
 20
184.864233
 30
0.0
 10
132.441312
 20
184.805085
 30
0.0
  0
SPLINE
  5
246
100
AcDbEntity
  8
Layer_1
 62
1
100
AcDbSpline
 70
8
 71
3
 72
8
 73
4
 74
0
 40
0
 40
0
 40
0
 40
0
 40
1
 40
1
 40
1
 40
1
 10
132.441312
 20
184.805085
 30
0.0
 10
132.221632
 20
184.745970
 30
0.0
 10
131.989273
 20
184.682572
 30
0.0
 10
131.744247
 20
184.614976
 30
0.0
  0
SPLINE
  5
247
100
AcDbEntity
  8
Layer_1
 62
1
100
AcDbSpline
 70
8
 71
3
 72
8
 73
4
 74
0
 40
0
 40
0
 40
0
 40
0
 40
1
 40
1
 40
1
 40
1
 10
131.744247
 20
184.614976
 30
0.0
 10
131.507670
 20
184.555861
 30
0.0
 10
131.249965
 20
184.496687
 30
0.0
 10
130.971144
 20
184.437546
 30
0.0
  0
SPLINE
  5
248
100
AcDbEntity
  8
Layer_1
 62
1
100
AcDbSpline
 70
8
 71
3
 72
8
 73
4
 74
0
 40
0
 40
0
 40
0
 40
0
 40
1
 40
1
 40
1
 40
1
 10
130.971144
 20
184.437546
 30
0.0
 10
130.692317
 20
184.378431
 30
0.0
 10
130.447285
 20
184.327720
 30
0.0
 10
130.236054
 20
184.285457
 30
0.0
  0
LWPOLYLINE
  5
249
100
AcDbEntity
  8
Layer_1
 62
1
100
AcDbPolyline
 90
3
 70
1
 10
128.385733
 20
184.868424
 30
0.0
 10
128.258996
 20
184.969816
 30
0.0
 10
128.258931
 20
184.969848
 30
0.0
  0
SPLINE
  5
24a
100
AcDbEntity
  8
Layer_1
 62
1
100
AcDbSpline
 70
8
 71
3
 72
8
 73
4
 74
0
 40
0
 40
0
 40
0
 40
0
 40
1
 40
1
 40
1
 40
1
 10
130.274080
 20
183.905238
 30
0.0
 10
130.527561
 20
183.862995
 30
0.0
 10
130.730343
 20
183.820764
 30
0.0
 10
130.882426
 20
183.778501
 30
0.0
  0
SPLINE
  5
24b
100
AcDbEntity
  8
Layer_1
 62
1
100
AcDbSpline
 70
8
 71
3
 72
8
 73
4
 74
0
 40
0
 40
0
 40
0
 40
0
 40
1
 40
1
 40
1
 40
1
 10
130.882426
 20
183.778501
 30
0.0
 10
131.042965
 20
183.736258
 30
0.0
 10
131.161253
 20
183.672886
 30
0.0
 10
131.237292
 20
183.588392
 30
0.0
  0
SPLINE
  5
24c
100
AcDbEntity
  8
Layer_1
 62
1
100
AcDbSpline
 70
8
 71
3
 72
8
 73
4
 74
0
 40
0
 40
0
 40
0
 40
0
 40
1
 40
1
 40
1
 40
1
 10
131.237292
 20
183.588392
 30
0.0
 10
131.321779
 20
183.512347
 30
0.0
 10
131.376702
 20
183.406732
 30
0.0
 10
131.402055
 20
183.271546
 30
0.0
  0
SPLINE
  5
24d
100
AcDbEntity
  8
Layer_1
 62
1
100
AcDbSpline
 70
8
 71
3
 72
8
 73
4
 74
0
 40
0
 40
0
 40
0
 40
0
 40
1
 40
1
 40
1
 40
1
 10
131.402055
 20
183.271546
 30
0.0
 10
131.427427
 20
183.136360
 30
0.0
 10
131.440080
 20
182.950475
 30
0.0
 10
131.440080
 20
182.713892
 30
0.0
  0
LWPOLYLINE
  5
24e
100
AcDbEntity
  8
Layer_1
 62
1
100
AcDbPolyline
 90
2
 70
1
 10
130.236054
 20
184.285457
 30
0.0
 10
130.274080
 20
183.905238
 30
0.0
  0
SPLINE
  5
24f
100
AcDbEntity
  8
Layer_1
 62
1
100
AcDbSpline
 70
8
 71
3
 72
8
 73
4
 74
0
 40
0
 40
0
 40
0
 40
0
 40
1
 40
1
 40
1
 40
1
 10
131.440080
 20
179.482057
 30
0.0
 10
131.440080
 20
179.160980
 30
0.0
 10
131.423144
 20
178.903281
 30
0.0
 10
131.389401
 20
178.708947
 30
0.0
  0
SPLINE
  5
250
100
AcDbEntity
  8
Layer_1
 62
1
100
AcDbSpline
 70
8
 71
3
 72
8
 73
4
 74
0
 40
0
 40
0
 40
0
 40
0
 40
1
 40
1
 40
1
 40
1
 10
131.389401
 20
178.708947
 30
0.0
 10
131.364029
 20
178.523063
 30
0.0
 10
131.300683
 20
178.375197
 30
0.0
 10
131.199292
 20
178.265364
 30
0.0
  0
SPLINE
  5
251
100
AcDbEntity
  8
Layer_1
 62
1
100
AcDbSpline
 70
8
 71
3
 72
8
 73
4
 74
0
 40
0
 40
0
 40
0
 40
0
 40
1
 40
1
 40
1
 40
1
 10
131.199292
 20
178.265364
 30
0.0
 10
131.106350
 20
178.163966
 30
0.0
 10
130.971164
 20
178.087928
 30
0.0
 10
130.793728
 20
178.037229
 30
0.0
  0
SPLINE
  5
252
100
AcDbEntity
  8
Layer_1
 62
1
100
AcDbSpline
 70
8
 71
3
 72
8
 73
4
 74
0
 40
0
 40
0
 40
0
 40
0
 40
1
 40
1
 40
1
 40
1
 10
130.793728
 20
178.037229
 30
0.0
 10
130.624747
 20
177.986550
 30
0.0
 10
130.396612
 20
177.948518
 30
0.0
 10
130.109336
 20
177.923165
 30
0.0
  0
LWPOLYLINE
  5
253
100
AcDbEntity
  8
Layer_1
 62
1
100
AcDbPolyline
 90
2
 70
1
 10
131.440080
 20
182.713892
 30
0.0
 10
131.440080
 20
179.482057
 30
0.0
  0
SPLINE
  5
254
100
AcDbEntity
  8
Layer_1
 62
1
100
AcDbSpline
 70
8
 71
3
 72
8
 73
4
 74
0
 40
0
 40
0
 40
0
 40
0
 40
1
 40
1
 40
1
 40
1
 10
130.147362
 20
177.492255
 30
0.0
 10
130.383939
 20
177.492255
 30
0.0
 10
130.662766
 20
177.496797
 30
0.0
 10
130.983837
 20
177.504908
 30
0.0
  0
SPLINE
  5
255
100
AcDbEntity
  8
Layer_1
 62
1
100
AcDbSpline
 70
8
 71
3
 72
8
 73
4
 74
0
 40
0
 40
0
 40
0
 40
0
 40
1
 40
1
 40
1
 40
1
 10
130.983837
 20
177.504908
 30
0.0
 10
131.313356
 20
177.513344
 30
0.0
 10
131.672446
 20
177.517562
 30
0.0
 10
132.061113
 20
177.517562
 30
0.0
  0
SPLINE
  5
256
100
AcDbEntity
  8
Layer_1
 62
1
100
AcDbSpline
 70
8
 71
3
 72
8
 73
4
 74
0
 40
0
 40
0
 40
0
 40
0
 40
1
 40
1
 40
1
 40
1
 10
132.061113
 20
177.517562
 30
0.0
 10
132.584972
 20
177.517562
 30
0.0
 10
133.015883
 20
177.513019
 30
0.0
 10
133.353851
 20
177.504908
 30
0.0
  0
SPLINE
  5
257
100
AcDbEntity
  8
Layer_1
 62
1
100
AcDbSpline
 70
8
 71
3
 72
8
 73
4
 74
0
 40
0
 40
0
 40
0
 40
0
 40
1
 40
1
 40
1
 40
1
 10
133.353851
 20
177.504908
 30
0.0
 10
133.691825
 20
177.496472
 30
0.0
 10
133.995998
 20
177.492255
 30
0.0
 10
134.266370
 20
177.492255
 30
0.0
  0
LWPOLYLINE
  5
258
100
AcDbEntity
  8
Layer_1
 62
1
100
AcDbPolyline
 90
2
 70
1
 10
130.109336
 20
177.923165
 30
0.0
 10
130.147362
 20
177.492255
 30
0.0
  0
SPLINE
  5
259
100
AcDbEntity
  8
Layer_1
 62
1
100
AcDbSpline
 70
8
 71
3
 72
8
 73
4
 74
0
 40
0
 40
0
 40
0
 40
0
 40
1
 40
1
 40
1
 40
1
 10
134.304396
 20
177.986537
 30
0.0
 10
134.025569
 20
178.003473
 30
0.0
 10
133.801665
 20
178.024563
 30
0.0
 10
133.632678
 20
178.049870
 30
0.0
  0
SPLINE
  5
25a
100
AcDbEntity
  8
Layer_1
 62
1
100
AcDbSpline
 70
8
 71
3
 72
8
 73
4
 74
0
 40
0
 40
0
 40
0
 40
0
 40
1
 40
1
 40
1
 40
1
 10
133.632678
 20
178.049870
 30
0.0
 10
133.472146
 20
178.075242
 30
0.0
 10
133.349626
 20
178.121690
 30
0.0
 10
133.265133
 20
178.189287
 30
0.0
  0
SPLINE
  5
25b
100
AcDbEntity
  8
Layer_1
 62
1
100
AcDbSpline
 70
8
 71
3
 72
8
 73
4
 74
0
 40
0
 40
0
 40
0
 40
0
 40
1
 40
1
 40
1
 40
1
 10
133.265133
 20
178.189287
 30
0.0
 10
133.180646
 20
178.256883
 30
0.0
 10
133.125722
 20
178.349819
 30
0.0
 10
133.100376
 20
178.468114
 30
0.0
  0
SPLINE
  5
25c
100
AcDbEntity
  8
Layer_1
 62
1
100
AcDbSpline
 70
8
 71
3
 72
8
 73
4
 74
0
 40
0
 40
0
 40
0
 40
0
 40
1
 40
1
 40
1
 40
1
 10
133.100376
 20
178.468114
 30
0.0
 10
133.083440
 20
178.594844
 30
0.0
 10
133.075004
 20
178.759614
 30
0.0
 10
133.075004
 20
178.962396
 30
0.0
  0
LWPOLYLINE
  5
25d
100
AcDbEntity
  8
Layer_1
 62
1
100
AcDbPolyline
 90
2
 70
1
 10
134.266370
 20
177.492255
 30
0.0
 10
134.304396
 20
177.986537
 30
0.0
  0
SPLINE
  5
25e
100
AcDbEntity
  8
Layer_1
 62
1
100
AcDbSpline
 70
8
 71
3
 72
8
 73
4
 74
0
 40
0
 40
0
 40
0
 40
0
 40
1
 40
1
 40
1
 40
1
 10
133.075004
 20
183.170122
 30
0.0
 10
133.387633
 20
183.406699
 30
0.0
 10
133.696030
 20
183.588360
 30
0.0
 10
134.000203
 20
183.715097
 30
0.0
  0
SPLINE
  5
25f
100
AcDbEntity
  8
Layer_1
 62
1
100
AcDbSpline
 70
8
 71
3
 72
8
 73
4
 74
0
 40
0
 40
0
 40
0
 40
0
 40
1
 40
1
 40
1
 40
1
 10
134.000203
 20
183.715097
 30
0.0
 10
134.304377
 20
183.850289
 30
0.0
 10
134.642345
 20
183.917879
 30
0.0
 10
135.014114
 20
183.917879
 30
0.0
  0
SPLINE
  5
260
100
AcDbEntity
  8
Layer_1
 62
1
100
AcDbSpline
 70
8
 71
3
 72
8
 73
4
 74
0
 40
0
 40
0
 40
0
 40
0
 40
1
 40
1
 40
1
 40
1
 10
135.014114
 20
183.917879
 30
0.0
 10
135.428127
 20
183.917879
 30
0.0
 10
135.766095
 20
183.765796
 30
0.0
 10
136.028025
 20
183.461623
 30
0.0
  0
SPLINE
  5
261
100
AcDbEntity
  8
Layer_1
 62
1
100
AcDbSpline
 70
8
 71
3
 72
8
 73
4
 74
0
 40
0
 40
0
 40
0
 40
0
 40
1
 40
1
 40
1
 40
1
 10
136.028025
 20
183.461623
 30
0.0
 10
136.289948
 20
183.165898
 30
0.0
 10
136.420910
 20
182.680064
 30
0.0
 10
136.420910
 20
182.004128
 30
0.0
  0
LWPOLYLINE
  5
262
100
AcDbEntity
  8
Layer_1
 62
1
100
AcDbPolyline
 90
2
 70
1
 10
133.075004
 20
178.962396
 30
0.0
 10
133.075004
 20
183.170122
 30
0.0
  0
SPLINE
  5
263
100
AcDbEntity
  8
Layer_1
 62
1
100
AcDbSpline
 70
8
 71
3
 72
8
 73
4
 74
0
 40
0
 40
0
 40
0
 40
0
 40
1
 40
1
 40
1
 40
1
 10
136.420910
 20
179.405979
 30
0.0
 10
136.420910
 20
179.084909
 30
0.0
 10
136.408256
 20
178.831428
 30
0.0
 10
136.382884
 20
178.645543
 30
0.0
  0
SPLINE
  5
264
100
AcDbEntity
  8
Layer_1
 62
1
100
AcDbSpline
 70
8
 71
3
 72
8
 73
4
 74
0
 40
0
 40
0
 40
0
 40
0
 40
1
 40
1
 40
1
 40
1
 10
136.382884
 20
178.645543
 30
0.0
 10
136.357512
 20
178.468114
 30
0.0
 10
136.302615
 20
178.328703
 30
0.0
 10
136.218121
 20
178.227306
 30
0.0
  0
SPLINE
  5
265
100
AcDbEntity
  8
Layer_1
 62
1
100
AcDbSpline
 70
8
 71
3
 72
8
 73
4
 74
0
 40
0
 40
0
 40
0
 40
0
 40
1
 40
1
 40
1
 40
1
 10
136.218121
 20
178.227306
 30
0.0
 10
136.133634
 20
178.134383
 30
0.0
 10
136.011121
 20
178.066793
 30
0.0
 10
135.850582
 20
178.024524
 30
0.0
  0
SPLINE
  5
266
100
AcDbEntity
  8
Layer_1
 62
1
100
AcDbSpline
 70
8
 71
3
 72
8
 73
4
 74
0
 40
0
 40
0
 40
0
 40
0
 40
1
 40
1
 40
1
 40
1
 10
135.850582
 20
178.024524
 30
0.0
 10
135.690044
 20
177.982280
 30
0.0
 10
135.478813
 20
177.948485
 30
0.0
 10
135.216890
 20
177.923133
 30
0.0
  0
LWPOLYLINE
  5
267
100
AcDbEntity
  8
Layer_1
 62
1
100
AcDbPolyline
 90
2
 70
1
 10
136.420910
 20
182.004128
 30
0.0
 10
136.420910
 20
179.405979
 30
0.0
  0
SPLINE
  5
268
100
AcDbEntity
  8
Layer_1
 62
1
100
AcDbSpline
 70
8
 71
3
 72
8
 73
4
 74
0
 40
0
 40
0
 40
0
 40
0
 40
1
 40
1
 40
1
 40
1
 10
135.254916
 20
177.492222
 30
0.0
 10
135.491499
 20
177.492222
 30
0.0
 10
135.757647
 20
177.496764
 30
0.0
 10
136.053371
 20
177.504876
 30
0.0
  0
SPLINE
  5
269
100
AcDbEntity
  8
Layer_1
 62
1
100
AcDbSpline
 70
8
 71
3
 72
8
 73
4
 74
0
 40
0
 40
0
 40
0
 40
0
 40
1
 40
1
 40
1
 40
1
 10
136.053371
 20
177.504876
 30
0.0
 10
136.357544
 20
177.513311
 30
0.0
 10
136.733538
 20
177.517529
 30
0.0
 10
137.181346
 20
177.517529
 30
0.0
  0
SPLINE
  5
26a
100
AcDbEntity
  8
Layer_1
 62
1
100
AcDbSpline
 70
8
 71
3
 72
8
 73
4
 74
0
 40
0
 40
0
 40
0
 40
0
 40
1
 40
1
 40
1
 40
1
 10
137.181346
 20
177.517529
 30
0.0
 10
137.646058
 20
177.517529
 30
0.0
 10
138.038943
 20
177.512987
 30
0.0
 10
138.360020
 20
177.504876
 30
0.0
  0
SPLINE
  5
26b
100
AcDbEntity
  8
Layer_1
 62
1
100
AcDbSpline
 70
8
 71
3
 72
8
 73
4
 74
0
 40
0
 40
0
 40
0
 40
0
 40
1
 40
1
 40
1
 40
1
 10
138.360020
 20
177.504876
 30
0.0
 10
138.689539
 20
177.496440
 30
0.0
 10
138.989488
 20
177.492222
 30
0.0
 10
139.259860
 20
177.492222
 30
0.0
  0
LWPOLYLINE
  5
26c
100
AcDbEntity
  8
Layer_1
 62
1
100
AcDbPolyline
 90
2
 70
1
 10
135.216890
 20
177.923133
 30
0.0
 10
135.254916
 20
177.492222
 30
0.0
  0
SPLINE
  5
26d
100
AcDbEntity
  8
Layer_1
 62
1
100
AcDbSpline
 70
8
 71
3
 72
8
 73
4
 74
0
 40
0
 40
0
 40
0
 40
0
 40
1
 40
1
 40
1
 40
1
 10
139.285232
 20
177.986504
 30
0.0
 10
139.014854
 20
178.003441
 30
0.0
 10
138.799398
 20
178.024530
 30
0.0
 10
138.638860
 20
178.049837
 30
0.0
  0
SPLINE
  5
26e
100
AcDbEntity
  8
Layer_1
 62
1
100
AcDbSpline
 70
8
 71
3
 72
8
 73
4
 74
0
 40
0
 40
0
 40
0
 40
0
 40
1
 40
1
 40
1
 40
1
 10
138.638860
 20
178.049837
 30
0.0
 10
138.478321
 20
178.075209
 30
0.0
 10
138.355808
 20
178.121658
 30
0.0
 10
138.271321
 20
178.189254
 30
0.0
  0
SPLINE
  5
26f
100
AcDbEntity
  8
Layer_1
 62
1
100
AcDbSpline
 70
8
 71
3
 72
8
 73
4
 74
0
 40
0
 40
0
 40
0
 40
0
 40
1
 40
1
 40
1
 40
1
 10
138.271321
 20
178.189254
 30
0.0
 10
138.195283
 20
178.256850
 30
0.0
 10
138.144584
 20
178.349786
 30
0.0
 10
138.119231
 20
178.468081
 30
0.0
  0
SPLINE
  5
270
100
AcDbEntity
  8
Layer_1
 62
1
100
AcDbSpline
 70
8
 71
3
 72
8
 73
4
 74
0
 40
0
 40
0
 40
0
 40
0
 40
1
 40
1
 40
1
 40
1
 10
138.119231
 20
178.468081
 30
0.0
 10
138.093859
 20
178.594812
 30
0.0
 10
138.081206
 20
178.759575
 30
0.0
 10
138.081206
 20
178.962363
 30
0.0
  0
LWPOLYLINE
  5
271
100
AcDbEntity
  8
Layer_1
 62
1
100
AcDbPolyline
 90
2
 70
1
 10
139.259860
 20
177.492222
 30
0.0
 10
139.285232
 20
177.986504
 30
0.0
  0
SPLINE
  5
272
100
AcDbEntity
  8
Layer_1
 62
1
100
AcDbSpline
 70
8
 71
3
 72
8
 73
4
 74
0
 40
0
 40
0
 40
0
 40
0
 40
1
 40
1
 40
1
 40
1
 10
138.081206
 20
182.371634
 30
0.0
 10
138.081206
 20
182.836346
 30
0.0
 10
138.022026
 20
183.229231
 30
0.0
 10
137.903770
 20
183.550308
 30
0.0
  0
SPLINE
  5
273
100
AcDbEntity
  8
Layer_1
 62
1
100
AcDbSpline
 70
8
 71
3
 72
8
 73
4
 74
0
 40
0
 40
0
 40
0
 40
0
 40
1
 40
1
 40
1
 40
1
 10
137.903770
 20
183.550308
 30
0.0
 10
137.793930
 20
183.879827
 30
0.0
 10
137.633391
 20
184.150206
 30
0.0
 10
137.422160
 20
184.361437
 30
0.0
  0
SPLINE
  5
274
100
AcDbEntity
  8
Layer_1
 62
1
100
AcDbSpline
 70
8
 71
3
 72
8
 73
4
 74
0
 40
0
 40
0
 40
0
 40
0
 40
1
 40
1
 40
1
 40
1
 10
137.422160
 20
184.361437
 30
0.0
 10
137.219378
 20
184.572668
 30
0.0
 10
136.978577
 20
184.724757
 30
0.0
 10
136.699750
 20
184.817693
 30
0.0
  0
SPLINE
  5
275
100
AcDbEntity
  8
Layer_1
 62
1
100
AcDbSpline
 70
8
 71
3
 72
8
 73
4
 74
0
 40
0
 40
0
 40
0
 40
0
 40
1
 40
1
 40
1
 40
1
 10
136.699750
 20
184.817693
 30
0.0
 10
136.429378
 20
184.919091
 30
0.0
 10
136.133653
 20
184.969783
 30
0.0
 10
135.812576
 20
184.969783
 30
0.0
  0
SPLINE
  5
276
100
AcDbEntity
  8
Layer_1
 62
1
100
AcDbSpline
 70
8
 71
3
 72
8
 73
4
 74
0
 40
0
 40
0
 40
0
 40
0
 40
1
 40
1
 40
1
 40
1
 10
135.812576
 20
184.969783
 30
0.0
 10
135.347871
 20
184.969783
 30
0.0
 10
134.878935
 20
184.868392
 30
0.0
 10
134.405781
 20
184.665610
 30
0.0
  0
SPLINE
  5
277
100
AcDbEntity
  8
Layer_1
 62
1
100
AcDbSpline
 70
8
 71
3
 72
8
 73
4
 74
0
 40
0
 40
0
 40
0
 40
0
 40
1
 40
1
 40
1
 40
1
 10
134.405781
 20
184.665610
 30
0.0
 10
133.941069
 20
184.462828
 30
0.0
 10
133.497479
 20
184.179776
 30
0.0
 10
133.075017
 20
183.816456
 30
0.0
  0
SPLINE
  5
278
100
AcDbEntity
  8
Layer_1
 62
1
100
AcDbSpline
 70
8
 71
3
 72
8
 73
4
 74
0
 40
0
 40
0
 40
0
 40
0
 40
1
 40
1
 40
1
 40
1
 10
133.075017
 20
183.816456
 30
0.0
 10
133.075017
 20
183.993892
 30
0.0
 10
133.083453
 20
184.167103
 30
0.0
 10
133.100389
 20
184.336084
 30
0.0
  0
SPLINE
  5
279
100
AcDbEntity
  8
Layer_1
 62
1
100
AcDbSpline
 70
8
 71
3
 72
8
 73
4
 74
0
 40
0
 40
0
 40
0
 40
0
 40
1
 40
1
 40
1
 40
1
 10
133.100389
 20
184.336084
 30
0.0
 10
133.117326
 20
184.513520
 30
0.0
 10
133.138415
 20
184.690956
 30
0.0
 10
133.163787
 20
184.868392
 30
0.0
  0
LWPOLYLINE
  5
27a
100
AcDbEntity
  8
Layer_1
 62
1
100
AcDbPolyline
 90
2
 70
1
 10
138.081206
 20
178.962363
 30
0.0
 10
138.081206
 20
182.371634
 30
0.0
  0
SPLINE
  5
27b
100
AcDbEntity
  8
Layer_1
 62
1
100
AcDbSpline
 70
8
 71
3
 72
8
 73
4
 74
0
 40
0
 40
0
 40
0
 40
0
 40
1
 40
1
 40
1
 40
1
 10
143.607003
 20
184.969848
 30
0.0
 10
143.125400
 20
184.969848
 30
0.0
 10
142.694490
 20
184.893810
 30
0.0
 10
142.314272
 20
184.741713
 30
0.0
  0
SPLINE
  5
27c
100
AcDbEntity
  8
Layer_1
 62
1
100
AcDbSpline
 70
8
 71
3
 72
8
 73
4
 74
0
 40
0
 40
0
 40
0
 40
0
 40
1
 40
1
 40
1
 40
1
 10
142.314272
 20
184.741713
 30
0.0
 10
141.934053
 20
184.589630
 30
0.0
 10
141.596079
 20
184.378399
 30
0.0
 10
141.300361
 20
184.108021
 30
0.0
  0
SPLINE
  5
27d
100
AcDbEntity
  8
Layer_1
 62
1
100
AcDbSpline
 70
8
 71
3
 72
8
 73
4
 74
0
 40
0
 40
0
 40
0
 40
0
 40
1
 40
1
 40
1
 40
1
 10
141.300361
 20
184.108021
 30
0.0
 10
141.013085
 20
183.837649
 30
0.0
 10
140.780732
 20
183.516572
 30
0.0
 10
140.603296
 20
183.144809
 30
0.0
  0
SPLINE
  5
27e
100
AcDbEntity
  8
Layer_1
 62
1
100
AcDbSpline
 70
8
 71
3
 72
8
 73
4
 74
0
 40
0
 40
0
 40
0
 40
0
 40
1
 40
1
 40
1
 40
1
 10
140.603296
 20
183.144809
 30
0.0
 10
140.434309
 20
182.781488
 30
0.0
 10
140.349815
 20
182.388597
 30
0.0
 10
140.349815
 20
181.966135
 30
0.0
  0
SPLINE
  5
27f
100
AcDbEntity
  8
Layer_1
 62
1
100
AcDbSpline
 70
8
 71
3
 72
8
 73
4
 74
0
 40
0
 40
0
 40
0
 40
0
 40
1
 40
1
 40
1
 40
1
 10
140.349815
 20
181.966135
 30
0.0
 10
140.349815
 20
180.825487
 30
0.0
 10
140.831425
 20
180.018583
 30
0.0
 10
141.794637
 20
179.545422
 30
0.0
  0
SPLINE
  5
280
100
AcDbEntity
  8
Layer_1
 62
1
100
AcDbSpline
 70
8
 71
3
 72
8
 73
4
 74
0
 40
0
 40
0
 40
0
 40
0
 40
1
 40
1
 40
1
 40
1
 10
141.794637
 20
179.545422
 30
0.0
 10
141.676348
 20
179.460935
 30
0.0
 10
141.541162
 20
179.372211
 30
0.0
 10
141.389072
 20
179.279275
 30
0.0
  0
SPLINE
  5
281
100
AcDbEntity
  8
Layer_1
 62
1
100
AcDbSpline
 70
8
 71
3
 72
8
 73
4
 74
0
 40
0
 40
0
 40
0
 40
0
 40
1
 40
1
 40
1
 40
1
 10
141.389072
 20
179.279275
 30
0.0
 10
141.245438
 20
179.194775
 30
0.0
 10
141.093354
 20
179.080717
 30
0.0
 10
140.932816
 20
178.937076
 30
0.0
  0
SPLINE
  5
282
100
AcDbEntity
  8
Layer_1
 62
1
100
AcDbSpline
 70
8
 71
3
 72
8
 73
4
 74
0
 40
0
 40
0
 40
0
 40
0
 40
1
 40
1
 40
1
 40
1
 10
140.932816
 20
178.937076
 30
0.0
 10
140.780732
 20
178.801890
 30
0.0
 10
140.658213
 20
178.654024
 30
0.0
 10
140.565271
 20
178.493492
 30
0.0
  0
SPLINE
  5
283
100
AcDbEntity
  8
Layer_1
 62
1
100
AcDbSpline
 70
8
 71
3
 72
8
 73
4
 74
0
 40
0
 40
0
 40
0
 40
0
 40
1
 40
1
 40
1
 40
1
 10
140.565271
 20
178.493492
 30
0.0
 10
140.480784
 20
178.332954
 30
0.0
 10
140.438533
 20
178.155518
 30
0.0
 10
140.438533
 20
177.961191
 30
0.0
  0
SPLINE
  5
284
100
AcDbEntity
  8
Layer_1
 62
1
100
AcDbSpline
 70
8
 71
3
 72
8
 73
4
 74
0
 40
0
 40
0
 40
0
 40
0
 40
1
 40
1
 40
1
 40
1
 10
140.438533
 20
177.961191
 30
0.0
 10
140.438533
 20
177.682357
 30
0.0
 10
140.552598
 20
177.441562
 30
0.0
 10
140.780726
 20
177.238774
 30
0.0
  0
SPLINE
  5
285
100
AcDbEntity
  8
Layer_1
 62
1
100
AcDbSpline
 70
8
 71
3
 72
8
 73
4
 74
0
 40
0
 40
0
 40
0
 40
0
 40
1
 40
1
 40
1
 40
1
 10
140.780726
 20
177.238774
 30
0.0
 10
141.017303
 20
177.027549
 30
0.0
 10
141.338380
 20
176.858562
 30
0.0
 10
141.743944
 20
176.731825
 30
0.0
  0
SPLINE
  5
286
100
AcDbEntity
  8
Layer_1
 62
1
100
AcDbSpline
 70
8
 71
3
 72
8
 73
4
 74
0
 40
0
 40
0
 40
0
 40
0
 40
1
 40
1
 40
1
 40
1
 10
141.743944
 20
176.731825
 30
0.0
 10
141.524265
 20
176.579735
 30
0.0
 10
141.296130
 20
176.419196
 30
0.0
 10
141.059553
 20
176.250215
 30
0.0
  0
SPLINE
  5
287
100
AcDbEntity
  8
Layer_1
 62
1
100
AcDbSpline
 70
8
 71
3
 72
8
 73
4
 74
0
 40
0
 40
0
 40
0
 40
0
 40
1
 40
1
 40
1
 40
1
 10
141.059553
 20
176.250215
 30
0.0
 10
140.831425
 20
176.081228
 30
0.0
 10
140.628643
 20
175.912241
 30
0.0
 10
140.451207
 20
175.743260
 30
0.0
  0
SPLINE
  5
288
100
AcDbEntity
  8
Layer_1
 62
1
100
AcDbSpline
 70
8
 71
3
 72
8
 73
4
 74
0
 40
0
 40
0
 40
0
 40
0
 40
1
 40
1
 40
1
 40
1
 10
140.451207
 20
175.743260
 30
0.0
 10
140.273771
 20
175.565824
 30
0.0
 10
140.130136
 20
175.379939
 30
0.0
 10
140.020296
 20
175.185606
 30
0.0
  0
SPLINE
  5
289
100
AcDbEntity
  8
Layer_1
 62
1
100
AcDbSpline
 70
8
 71
3
 72
8
 73
4
 74
0
 40
0
 40
0
 40
0
 40
0
 40
1
 40
1
 40
1
 40
1
 10
140.020296
 20
175.185606
 30
0.0
 10
139.910456
 20
174.982824
 30
0.0
 10
139.855533
 20
174.737798
 30
0.0
 10
139.855533
 20
174.450522
 30
0.0
  0
SPLINE
  5
28a
100
AcDbEntity
  8
Layer_1
 62
1
100
AcDbSpline
 70
8
 71
3
 72
8
 73
4
 74
0
 40
0
 40
0
 40
0
 40
0
 40
1
 40
1
 40
1
 40
1
 10
139.855533
 20
174.450522
 30
0.0
 10
139.855533
 20
174.129452
 30
0.0
 10
139.952700
 20
173.842176
 30
0.0
 10
140.147033
 20
173.588695
 30
0.0
  0
SPLINE
  5
28b
100
AcDbEntity
  8
Layer_1
 62
1
100
AcDbSpline
 70
8
 71
3
 72
8
 73
4
 74
0
 40
0
 40
0
 40
0
 40
0
 40
1
 40
1
 40
1
 40
1
 10
140.147033
 20
173.588695
 30
0.0
 10
140.349815
 20
173.326772
 30
0.0
 10
140.611745
 20
173.119765
 30
0.0
 10
140.932816
 20
172.967675
 30
0.0
  0
SPLINE
  5
28c
100
AcDbEntity
  8
Layer_1
 62
1
100
AcDbSpline
 70
8
 71
3
 72
8
 73
4
 74
0
 40
0
 40
0
 40
0
 40
0
 40
1
 40
1
 40
1
 40
1
 10
140.932816
 20
172.967675
 30
0.0
 10
141.262335
 20
172.807143
 30
0.0
 10
141.625656
 20
172.680400
 30
0.0
 10
142.022771
 20
172.587464
 30
0.0
  0
SPLINE
  5
28d
100
AcDbEntity
  8
Layer_1
 62
1
100
AcDbSpline
 70
8
 71
3
 72
8
 73
4
 74
0
 40
0
 40
0
 40
0
 40
0
 40
1
 40
1
 40
1
 40
1
 10
142.022771
 20
172.587464
 30
0.0
 10
142.428336
 20
172.486066
 30
0.0
 10
142.812772
 20
172.435374
 30
0.0
 10
143.176093
 20
172.435374
 30
0.0
  0
SPLINE
  5
28e
100
AcDbEntity
  8
Layer_1
 62
1
100
AcDbSpline
 70
8
 71
3
 72
8
 73
4
 74
0
 40
0
 40
0
 40
0
 40
0
 40
1
 40
1
 40
1
 40
1
 10
143.176093
 20
172.435374
 30
0.0
 10
143.936522
 20
172.435374
 30
0.0
 10
144.608247
 20
172.536765
 30
0.0
 10
145.191241
 20
172.739547
 30
0.0
  0
SPLINE
  5
28f
100
AcDbEntity
  8
Layer_1
 62
1
100
AcDbSpline
 70
8
 71
3
 72
8
 73
4
 74
0
 40
0
 40
0
 40
0
 40
0
 40
1
 40
1
 40
1
 40
1
 10
145.191241
 20
172.739547
 30
0.0
 10
145.782690
 20
172.933880
 30
0.0
 10
146.289645
 20
173.183137
 30
0.0
 10
146.712107
 20
173.487310
 30
0.0
  0
SPLINE
  5
290
100
AcDbEntity
  8
Layer_1
 62
1
100
AcDbSpline
 70
8
 71
3
 72
8
 73
4
 74
0
 40
0
 40
0
 40
0
 40
0
 40
1
 40
1
 40
1
 40
1
 10
146.712107
 20
173.487310
 30
0.0
 10
147.134575
 20
173.783035
 30
0.0
 10
147.464095
 20
174.146349
 30
0.0
 10
147.700672
 20
174.577259
 30
0.0
  0
SPLINE
  5
291
100
AcDbEntity
  8
Layer_1
 62
1
100
AcDbSpline
 70
8
 71
3
 72
8
 73
4
 74
0
 40
0
 40
0
 40
0
 40
0
 40
1
 40
1
 40
1
 40
1
 10
147.700672
 20
174.577259
 30
0.0
 10
147.937249
 20
174.999721
 30
0.0
 10
148.055537
 20
175.434856
 30
0.0
 10
148.055537
 20
175.882670
 30
0.0
  0
SPLINE
  5
292
100
AcDbEntity
  8
Layer_1
 62
1
100
AcDbSpline
 70
8
 71
3
 72
8
 73
4
 74
0
 40
0
 40
0
 40
0
 40
0
 40
1
 40
1
 40
1
 40
1
 10
148.055537
 20
175.882670
 30
0.0
 10
148.055537
 20
176.296683
 30
0.0
 10
147.971050
 20
176.647331
 30
0.0
 10
147.802063
 20
176.934607
 30
0.0
  0
SPLINE
  5
293
100
AcDbEntity
  8
Layer_1
 62
1
100
AcDbSpline
 70
8
 71
3
 72
8
 73
4
 74
0
 40
0
 40
0
 40
0
 40
0
 40
1
 40
1
 40
1
 40
1
 10
147.802063
 20
176.934607
 30
0.0
 10
147.633076
 20
177.221883
 30
0.0
 10
147.409172
 20
177.445787
 30
0.0
 10
147.130345
 20
177.606319
 30
0.0
  0
SPLINE
  5
294
100
AcDbEntity
  8
Layer_1
 62
1
100
AcDbSpline
 70
8
 71
3
 72
8
 73
4
 74
0
 40
0
 40
0
 40
0
 40
0
 40
1
 40
1
 40
1
 40
1
 10
147.130345
 20
177.606319
 30
0.0
 10
146.859966
 20
177.775306
 30
0.0
 10
146.555793
 20
177.889377
 30
0.0
 10
146.217825
 20
177.948518
 30
0.0
  0
SPLINE
  5
295
100
AcDbEntity
  8
Layer_1
 62
1
100
AcDbSpline
 70
8
 71
3
 72
8
 73
4
 74
0
 40
0
 40
0
 40
0
 40
0
 40
1
 40
1
 40
1
 40
1
 10
146.217825
 20
177.948518
 30
0.0
 10
145.879857
 20
178.016107
 30
0.0
 10
145.541882
 20
178.049902
 30
0.0
 10
145.203914
 20
178.049902
 30
0.0
  0
SPLINE
  5
296
100
AcDbEntity
  8
Layer_1
 62
1
100
AcDbSpline
 70
8
 71
3
 72
8
 73
4
 74
0
 40
0
 40
0
 40
0
 40
0
 40
1
 40
1
 40
1
 40
1
 10
145.203914
 20
178.049902
 30
0.0
 10
144.832145
 20
178.049909
 30
0.0
 10
144.464606
 20
178.041466
 30
0.0
 10
144.101285
 20
178.024530
 30
0.0
  0
SPLINE
  5
297
100
AcDbEntity
  8
Layer_1
 62
1
100
AcDbSpline
 70
8
 71
3
 72
8
 73
4
 74
0
 40
0
 40
0
 40
0
 40
0
 40
1
 40
1
 40
1
 40
1
 10
144.101285
 20
178.024530
 30
0.0
 10
143.746413
 20
178.016094
 30
0.0
 10
143.421118
 20
178.011876
 30
0.0
 10
143.125400
 20
178.011876
 30
0.0
  0
SPLINE
  5
298
100
AcDbEntity
  8
Layer_1
 62
1
100
AcDbSpline
 70
8
 71
3
 72
8
 73
4
 74
0
 40
0
 40
0
 40
0
 40
0
 40
1
 40
1
 40
1
 40
1
 10
143.125400
 20
178.011876
 30
0.0
 10
143.007105
 20
178.011876
 30
0.0
 10
142.871919
 20
178.016419
 30
0.0
 10
142.719836
 20
178.024530
 30
0.0
  0
SPLINE
  5
299
100
AcDbEntity
  8
Layer_1
 62
1
100
AcDbSpline
 70
8
 71
3
 72
8
 73
4
 74
0
 40
0
 40
0
 40
0
 40
0
 40
1
 40
1
 40
1
 40
1
 10
142.719836
 20
178.024530
 30
0.0
 10
142.576195
 20
178.033031
 30
0.0
 10
142.441009
 20
178.054120
 30
0.0
 10
142.314272
 20
178.087928
 30
0.0
  0
SPLINE
  5
29a
100
AcDbEntity
  8
Layer_1
 62
1
100
AcDbSpline
 70
8
 71
3
 72
8
 73
4
 74
0
 40
0
 40
0
 40
0
 40
0
 40
1
 40
1
 40
1
 40
1
 10
142.314272
 20
178.087928
 30
0.0
 10
142.195977
 20
178.121736
 30
0.0
 10
142.094586
 20
178.176646
 30
0.0
 10
142.010098
 20
178.252684
 30
0.0
  0
SPLINE
  5
29b
100
AcDbEntity
  8
Layer_1
 62
1
100
AcDbSpline
 70
8
 71
3
 72
8
 73
4
 74
0
 40
0
 40
0
 40
0
 40
0
 40
1
 40
1
 40
1
 40
1
 10
142.010098
 20
178.252684
 30
0.0
 10
141.934053
 20
178.337184
 30
0.0
 10
141.896028
 20
178.442793
 30
0.0
 10
141.896028
 20
178.569537
 30
0.0
  0
SPLINE
  5
29c
100
AcDbEntity
  8
Layer_1
 62
1
100
AcDbSpline
 70
8
 71
3
 72
8
 73
4
 74
0
 40
0
 40
0
 40
0
 40
0
 40
1
 40
1
 40
1
 40
1
 10
141.896028
 20
178.569537
 30
0.0
 10
141.896028
 20
178.730069
 30
0.0
 10
141.950925
 20
178.869480
 30
0.0
 10
142.060791
 20
178.987775
 30
0.0
  0
SPLINE
  5
29d
100
AcDbEntity
  8
Layer_1
 62
1
100
AcDbSpline
 70
8
 71
3
 72
8
 73
4
 74
0
 40
0
 40
0
 40
0
 40
0
 40
1
 40
1
 40
1
 40
1
 10
142.060791
 20
178.987775
 30
0.0
 10
142.179079
 20
179.106057
 30
0.0
 10
142.335393
 20
179.207448
 30
0.0
 10
142.529727
 20
179.291948
 30
0.0
  0
SPLINE
  5
29e
100
AcDbEntity
  8
Layer_1
 62
1
100
AcDbSpline
 70
8
 71
3
 72
8
 73
4
 74
0
 40
0
 40
0
 40
0
 40
0
 40
1
 40
1
 40
1
 40
1
 10
142.529727
 20
179.291948
 30
0.0
 10
142.901496
 20
179.207448
 30
0.0
 10
143.235240
 20
179.165211
 30
0.0
 10
143.530965
 20
179.165211
 30
0.0
  0
SPLINE
  5
29f
100
AcDbEntity
  8
Layer_1
 62
1
100
AcDbSpline
 70
8
 71
3
 72
8
 73
4
 74
0
 40
0
 40
0
 40
0
 40
0
 40
1
 40
1
 40
1
 40
1
 10
143.530965
 20
179.165211
 30
0.0
 10
143.961875
 20
179.165211
 30
0.0
 10
144.367439
 20
179.228543
 30
0.0
 10
144.747657
 20
179.355313
 30
0.0
  0
SPLINE
  5
2a0
100
AcDbEntity
  8
Layer_1
 62
1
100
AcDbSpline
 70
8
 71
3
 72
8
 73
4
 74
0
 40
0
 40
0
 40
0
 40
0
 40
1
 40
1
 40
1
 40
1
 10
144.747657
 20
179.355313
 30
0.0
 10
145.136324
 20
179.490506
 30
0.0
 10
145.486965
 20
179.684832
 30
0.0
 10
145.799587
 20
179.938313
 30
0.0
  0
SPLINE
  5
2a1
100
AcDbEntity
  8
Layer_1
 62
1
100
AcDbSpline
 70
8
 71
3
 72
8
 73
4
 74
0
 40
0
 40
0
 40
0
 40
0
 40
1
 40
1
 40
1
 40
1
 10
145.799587
 20
179.938313
 30
0.0
 10
146.120658
 20
180.200243
 30
0.0
 10
146.378363
 20
180.521314
 30
0.0
 10
146.572697
 20
180.901532
 30
0.0
  0
SPLINE
  5
2a2
100
AcDbEntity
  8
Layer_1
 62
1
100
AcDbSpline
 70
8
 71
3
 72
8
 73
4
 74
0
 40
0
 40
0
 40
0
 40
0
 40
1
 40
1
 40
1
 40
1
 10
146.572697
 20
180.901532
 30
0.0
 10
146.775479
 20
181.281744
 30
0.0
 10
146.876870
 20
181.721103
 30
0.0
 10
146.876870
 20
182.219616
 30
0.0
  0
SPLINE
  5
2a3
100
AcDbEntity
  8
Layer_1
 62
1
100
AcDbSpline
 70
8
 71
3
 72
8
 73
4
 74
0
 40
0
 40
0
 40
0
 40
0
 40
1
 40
1
 40
1
 40
1
 10
146.876870
 20
182.219616
 30
0.0
 10
146.876870
 20
182.726565
 30
0.0
 10
146.703658
 20
183.203950
 30
0.0
 10
146.357235
 20
183.651764
 30
0.0
  0
LWPOLYLINE
  5
2a4
100
AcDbEntity
  8
Layer_1
 62
1
100
AcDbPolyline
 90
3
 70
1
 10
133.163787
 20
184.868392
 30
0.0
 10
132.961005
 20
184.969783
 30
0.0
 10
132.960940
 20
184.969848
 30
0.0
  0
SPLINE
  5
2a5
100
AcDbEntity
  8
Layer_1
 62
1
100
AcDbSpline
 70
8
 71
3
 72
8
 73
4
 74
0
 40
0
 40
0
 40
0
 40
0
 40
1
 40
1
 40
1
 40
1
 10
146.192479
 20
184.399521
 30
0.0
 10
146.150235
 20
184.399521
 30
0.0
 10
146.082639
 20
184.394978
 30
0.0
 10
145.989697
 20
184.386867
 30
0.0
  0
SPLINE
  5
2a6
100
AcDbEntity
  8
Layer_1
 62
1
100
AcDbSpline
 70
8
 71
3
 72
8
 73
4
 74
0
 40
0
 40
0
 40
0
 40
0
 40
1
 40
1
 40
1
 40
1
 10
145.989697
 20
184.386867
 30
0.0
 10
145.879857
 20
184.386867
 30
0.0
 10
145.782690
 20
184.395303
 30
0.0
 10
145.698196
 20
184.412239
 30
0.0
  0
SPLINE
  5
2a7
100
AcDbEntity
  8
Layer_1
 62
1
100
AcDbSpline
 70
8
 71
3
 72
8
 73
4
 74
0
 40
0
 40
0
 40
0
 40
0
 40
1
 40
1
 40
1
 40
1
 10
145.698196
 20
184.412239
 30
0.0
 10
145.622151
 20
184.437611
 30
0.0
 10
145.537658
 20
184.479842
 30
0.0
 10
145.444715
 20
184.538977
 30
0.0
  0
SPLINE
  5
2a8
100
AcDbEntity
  8
Layer_1
 62
1
100
AcDbSpline
 70
8
 71
3
 72
8
 73
4
 74
0
 40
0
 40
0
 40
0
 40
0
 40
1
 40
1
 40
1
 40
1
 10
145.444715
 20
184.538977
 30
0.0
 10
144.954664
 20
184.826259
 30
0.0
 10
144.342093
 20
184.969893
 30
0.0
 10
143.607003
 20
184.969893
 30
0.0
  0
LWPOLYLINE
  5
2a9
100
AcDbEntity
  8
Layer_1
 62
1
100
AcDbPolyline
 90
5
 70
1
 10
146.357235
 20
183.651764
 30
0.0
 10
148.144255
 20
183.651764
 30
0.0
 10
148.220300
 20
184.437546
 30
0.0
 10
148.131582
 20
184.538931
 30
0.0
 10
146.192479
 20
184.399521
 30
0.0
  0
SPLINE
  5
2aa
100
AcDbEntity
  8
Layer_1
 62
1
100
AcDbSpline
 70
8
 71
3
 72
8
 73
4
 74
0
 40
0
 40
0
 40
0
 40
0
 40
1
 40
1
 40
1
 40
1
 10
79.008214
 20
184.386848
 30
0.0
 10
79.287041
 20
184.386848
 30
0.0
 10
79.532067
 20
184.310803
 30
0.0
 10
79.743298
 20
184.158719
 30
0.0
  0
SPLINE
  5
2ab
100
AcDbEntity
  8
Layer_1
 62
1
100
AcDbSpline
 70
8
 71
3
 72
8
 73
4
 74
0
 40
0
 40
0
 40
0
 40
0
 40
1
 40
1
 40
1
 40
1
 10
79.743298
 20
184.158719
 30
0.0
 10
79.962978
 20
184.006630
 30
0.0
 10
80.136189
 20
183.812296
 30
0.0
 10
80.262933
 20
183.575719
 30
0.0
  0
SPLINE
  5
2ac
100
AcDbEntity
  8
Layer_1
 62
1
100
AcDbSpline
 70
8
 71
3
 72
8
 73
4
 74
0
 40
0
 40
0
 40
0
 40
0
 40
1
 40
1
 40
1
 40
1
 10
80.262933
 20
183.575719
 30
0.0
 10
80.398119
 20
183.339136
 30
0.0
 10
80.495286
 20
183.064539
 30
0.0
 10
80.554427
 20
182.751917
 30
0.0
  0
SPLINE
  5
2ad
100
AcDbEntity
  8
Layer_1
 62
1
100
AcDbSpline
 70
8
 71
3
 72
8
 73
4
 74
0
 40
0
 40
0
 40
0
 40
0
 40
1
 40
1
 40
1
 40
1
 10
80.554427
 20
182.751917
 30
0.0
 10
80.622023
 20
182.447744
 30
0.0
 10
80.655818
 20
182.143571
 30
0.0
 10
80.655818
 20
181.839398
 30
0.0
  0
SPLINE
  5
2ae
100
AcDbEntity
  8
Layer_1
 62
1
100
AcDbSpline
 70
8
 71
3
 72
8
 73
4
 74
0
 40
0
 40
0
 40
0
 40
0
 40
1
 40
1
 40
1
 40
1
 10
80.655818
 20
181.839398
 30
0.0
 10
80.655818
 20
181.594366
 30
0.0
 10
80.630446
 20
181.349340
 30
0.0
 10
80.579779
 20
181.104314
 30
0.0
  0
SPLINE
  5
2af
100
AcDbEntity
  8
Layer_1
 62
1
100
AcDbSpline
 70
8
 71
3
 72
8
 73
4
 74
0
 40
0
 40
0
 40
0
 40
0
 40
1
 40
1
 40
1
 40
1
 10
80.579779
 20
181.104314
 30
0.0
 10
80.529100
 20
180.859282
 30
0.0
 10
80.444587
 20
180.635378
 30
0.0
 10
80.326298
 20
180.432596
 30
0.0
  0
SPLINE
  5
2b0
100
AcDbEntity
  8
Layer_1
 62
1
100
AcDbSpline
 70
8
 71
3
 72
8
 73
4
 74
0
 40
0
 40
0
 40
0
 40
0
 40
1
 40
1
 40
1
 40
1
 10
80.326298
 20
180.432596
 30
0.0
 10
80.208010
 20
180.229814
 30
0.0
 10
80.051702
 20
180.065051
 30
0.0
 10
79.857369
 20
179.938313
 30
0.0
  0
SPLINE
  5
2b1
100
AcDbEntity
  8
Layer_1
 62
1
100
AcDbSpline
 70
8
 71
3
 72
8
 73
4
 74
0
 40
0
 40
0
 40
0
 40
0
 40
1
 40
1
 40
1
 40
1
 10
79.857369
 20
179.938313
 30
0.0
 10
79.663029
 20
179.811576
 30
0.0
 10
79.460253
 20
179.748204
 30
0.0
 10
79.249022
 20
179.748204
 30
0.0
  0
SPLINE
  5
2b2
100
AcDbEntity
  8
Layer_1
 62
1
100
AcDbSpline
 70
8
 71
3
 72
8
 73
4
 74
0
 40
0
 40
0
 40
0
 40
0
 40
1
 40
1
 40
1
 40
1
 10
79.249022
 20
179.748204
 30
0.0
 10
78.987093
 20
179.748204
 30
0.0
 10
78.742060
 20
179.828474
 30
0.0
 10
78.513932
 20
179.989012
 30
0.0
  0
SPLINE
  5
2b3
100
AcDbEntity
  8
Layer_1
 62
1
100
AcDbSpline
 70
8
 71
3
 72
8
 73
4
 74
0
 40
0
 40
0
 40
0
 40
0
 40
1
 40
1
 40
1
 40
1
 10
78.513932
 20
179.989012
 30
0.0
 10
78.294252
 20
180.149544
 30
0.0
 10
78.116823
 20
180.352326
 30
0.0
 10
77.981630
 20
180.597359
 30
0.0
  0
SPLINE
  5
2b4
100
AcDbEntity
  8
Layer_1
 62
1
100
AcDbSpline
 70
8
 71
3
 72
8
 73
4
 74
0
 40
0
 40
0
 40
0
 40
0
 40
1
 40
1
 40
1
 40
1
 10
77.981630
 20
180.597359
 30
0.0
 10
77.854893
 20
180.842384
 30
0.0
 10
77.757727
 20
181.116981
 30
0.0
 10
77.690130
 20
181.421160
 30
0.0
  0
SPLINE
  5
2b5
100
AcDbEntity
  8
Layer_1
 62
1
100
AcDbSpline
 70
8
 71
3
 72
8
 73
4
 74
0
 40
0
 40
0
 40
0
 40
0
 40
1
 40
1
 40
1
 40
1
 10
77.690130
 20
181.421160
 30
0.0
 10
77.631015
 20
181.725327
 30
0.0
 10
77.601412
 20
182.021058
 30
0.0
 10
77.601412
 20
182.308327
 30
0.0
  0
SPLINE
  5
2b6
100
AcDbEntity
  8
Layer_1
 62
1
100
AcDbSpline
 70
8
 71
3
 72
8
 73
4
 74
0
 40
0
 40
0
 40
0
 40
0
 40
1
 40
1
 40
1
 40
1
 10
77.601412
 20
182.308327
 30
0.0
 10
77.601412
 20
182.561808
 30
0.0
 10
77.626784
 20
182.811058
 30
0.0
 10
77.677457
 20
183.056091
 30
0.0
  0
SPLINE
  5
2b7
100
AcDbEntity
  8
Layer_1
 62
1
100
AcDbSpline
 70
8
 71
3
 72
8
 73
4
 74
0
 40
0
 40
0
 40
0
 40
0
 40
1
 40
1
 40
1
 40
1
 10
77.677457
 20
183.056091
 30
0.0
 10
77.736572
 20
183.309572
 30
0.0
 10
77.816868
 20
183.533476
 30
0.0
 10
77.918259
 20
183.727802
 30
0.0
  0
SPLINE
  5
2b8
100
AcDbEntity
  8
Layer_1
 62
1
100
AcDbSpline
 70
8
 71
3
 72
8
 73
4
 74
0
 40
0
 40
0
 40
0
 40
0
 40
1
 40
1
 40
1
 40
1
 10
77.918259
 20
183.727802
 30
0.0
 10
78.028105
 20
183.922142
 30
0.0
 10
78.180195
 20
184.078450
 30
0.0
 10
78.374522
 20
184.196739
 30
0.0
  0
SPLINE
  5
2b9
100
AcDbEntity
  8
Layer_1
 62
1
100
AcDbSpline
 70
8
 71
3
 72
8
 73
4
 74
0
 40
0
 40
0
 40
0
 40
0
 40
1
 40
1
 40
1
 40
1
 10
78.374522
 20
184.196739
 30
0.0
 10
78.568855
 20
184.323476
 30
0.0
 10
78.780080
 20
184.386848
 30
0.0
 10
79.008214
 20
184.386848
 30
0.0
  0
LWPOLYLINE
  5
2ba
100
AcDbEntity
  8
Layer_1
 62
1
100
AcDbPolyline
 90
2
 70
1
 10
143.607003
 20
184.969893
 30
0.0
 10
143.607003
 20
184.969848
 30
0.0
  0
SPLINE
  5
2bb
100
AcDbEntity
  8
Layer_1
 62
1
100
AcDbSpline
 70
8
 71
3
 72
8
 73
4
 74
0
 40
0
 40
0
 40
0
 40
0
 40
1
 40
1
 40
1
 40
1
 10
143.492939
 20
184.386848
 30
0.0
 10
143.771766
 20
184.386848
 30
0.0
 10
144.016792
 20
184.310803
 30
0.0
 10
144.228023
 20
184.158719
 30
0.0
  0
SPLINE
  5
2bc
100
AcDbEntity
  8
Layer_1
 62
1
100
AcDbSpline
 70
8
 71
3
 72
8
 73
4
 74
0
 40
0
 40
0
 40
0
 40
0
 40
1
 40
1
 40
1
 40
1
 10
144.228023
 20
184.158719
 30
0.0
 10
144.447702
 20
184.006630
 30
0.0
 10
144.620914
 20
183.812296
 30
0.0
 10
144.747657
 20
183.575719
 30
0.0
  0
SPLINE
  5
2bd
100
AcDbEntity
  8
Layer_1
 62
1
100
AcDbSpline
 70
8
 71
3
 72
8
 73
4
 74
0
 40
0
 40
0
 40
0
 40
0
 40
1
 40
1
 40
1
 40
1
 10
144.747657
 20
183.575719
 30
0.0
 10
144.882843
 20
183.339136
 30
0.0
 10
144.980010
 20
183.064539
 30
0.0
 10
145.039151
 20
182.751917
 30
0.0
  0
SPLINE
  5
2be
100
AcDbEntity
  8
Layer_1
 62
1
100
AcDbSpline
 70
8
 71
3
 72
8
 73
4
 74
0
 40
0
 40
0
 40
0
 40
0
 40
1
 40
1
 40
1
 40
1
 10
145.039151
 20
182.751917
 30
0.0
 10
145.106747
 20
182.447744
 30
0.0
 10
145.140542
 20
182.143571
 30
0.0
 10
145.140542
 20
181.839398
 30
0.0
  0
SPLINE
  5
2bf
100
AcDbEntity
  8
Layer_1
 62
1
100
AcDbSpline
 70
8
 71
3
 72
8
 73
4
 74
0
 40
0
 40
0
 40
0
 40
0
 40
1
 40
1
 40
1
 40
1
 10
145.140542
 20
181.839398
 30
0.0
 10
145.140542
 20
181.594366
 30
0.0
 10
145.115170
 20
181.349340
 30
0.0
 10
145.064504
 20
181.104314
 30
0.0
  0
SPLINE
  5
2c0
100
AcDbEntity
  8
Layer_1
 62
1
100
AcDbSpline
 70
8
 71
3
 72
8
 73
4
 74
0
 40
0
 40
0
 40
0
 40
0
 40
1
 40
1
 40
1
 40
1
 10
145.064504
 20
181.104314
 30
0.0
 10
145.013824
 20
180.859282
 30
0.0
 10
144.929311
 20
180.635378
 30
0.0
 10
144.811023
 20
180.432596
 30
0.0
  0
SPLINE
  5
2c1
100
AcDbEntity
  8
Layer_1
 62
1
100
AcDbSpline
 70
8
 71
3
 72
8
 73
4
 74
0
 40
0
 40
0
 40
0
 40
0
 40
1
 40
1
 40
1
 40
1
 10
144.811023
 20
180.432596
 30
0.0
 10
144.692734
 20
180.229814
 30
0.0
 10
144.536427
 20
180.065051
 30
0.0
 10
144.342093
 20
179.938313
 30
0.0
  0
SPLINE
  5
2c2
100
AcDbEntity
  8
Layer_1
 62
1
100
AcDbSpline
 70
8
 71
3
 72
8
 73
4
 74
0
 40
0
 40
0
 40
0
 40
0
 40
1
 40
1
 40
1
 40
1
 10
144.342093
 20
179.938313
 30
0.0
 10
144.147760
 20
179.811576
 30
0.0
 10
143.944978
 20
179.748204
 30
0.0
 10
143.733747
 20
179.748204
 30
0.0
  0
SPLINE
  5
2c3
100
AcDbEntity
  8
Layer_1
 62
1
100
AcDbSpline
 70
8
 71
3
 72
8
 73
4
 74
0
 40
0
 40
0
 40
0
 40
0
 40
1
 40
1
 40
1
 40
1
 10
143.733747
 20
179.748204
 30
0.0
 10
143.471817
 20
179.748204
 30
0.0
 10
143.226785
 20
179.828474
 30
0.0
 10
142.998657
 20
179.989012
 30
0.0
  0
SPLINE
  5
2c4
100
AcDbEntity
  8
Layer_1
 62
1
100
AcDbSpline
 70
8
 71
3
 72
8
 73
4
 74
0
 40
0
 40
0
 40
0
 40
0
 40
1
 40
1
 40
1
 40
1
 10
142.998657
 20
179.989012
 30
0.0
 10
142.778977
 20
180.149544
 30
0.0
 10
142.601541
 20
180.352326
 30
0.0
 10
142.466355
 20
180.597359
 30
0.0
  0
SPLINE
  5
2c5
100
AcDbEntity
  8
Layer_1
 62
1
100
AcDbSpline
 70
8
 71
3
 72
8
 73
4
 74
0
 40
0
 40
0
 40
0
 40
0
 40
1
 40
1
 40
1
 40
1
 10
142.466355
 20
180.597359
 30
0.0
 10
142.339618
 20
180.842384
 30
0.0
 10
142.242451
 20
181.116981
 30
0.0
 10
142.174855
 20
181.421160
 30
0.0
  0
SPLINE
  5
2c6
100
AcDbEntity
  8
Layer_1
 62
1
100
AcDbSpline
 70
8
 71
3
 72
8
 73
4
 74
0
 40
0
 40
0
 40
0
 40
0
 40
1
 40
1
 40
1
 40
1
 10
142.174855
 20
181.421160
 30
0.0
 10
142.115740
 20
181.725327
 30
0.0
 10
142.086137
 20
182.021058
 30
0.0
 10
142.086137
 20
182.308327
 30
0.0
  0
SPLINE
  5
2c7
100
AcDbEntity
  8
Layer_1
 62
1
100
AcDbSpline
 70
8
 71
3
 72
8
 73
4
 74
0
 40
0
 40
0
 40
0
 40
0
 40
1
 40
1
 40
1
 40
1
 10
142.086137
 20
182.308327
 30
0.0
 10
142.086137
 20
182.561808
 30
0.0
 10
142.111509
 20
182.811058
 30
0.0
 10
142.162182
 20
183.056091
 30
0.0
  0
SPLINE
  5
2c8
100
AcDbEntity
  8
Layer_1
 62
1
100
AcDbSpline
 70
8
 71
3
 72
8
 73
4
 74
0
 40
0
 40
0
 40
0
 40
0
 40
1
 40
1
 40
1
 40
1
 10
142.162182
 20
183.056091
 30
0.0
 10
142.221297
 20
183.309572
 30
0.0
 10
142.301592
 20
183.533476
 30
0.0
 10
142.402983
 20
183.727802
 30
0.0
  0
SPLINE
  5
2c9
100
AcDbEntity
  8
Layer_1
 62
1
100
AcDbSpline
 70
8
 71
3
 72
8
 73
4
 74
0
 40
0
 40
0
 40
0
 40
0
 40
1
 40
1
 40
1
 40
1
 10
142.402983
 20
183.727802
 30
0.0
 10
142.512829
 20
183.922142
 30
0.0
 10
142.664919
 20
184.078450
 30
0.0
 10
142.859246
 20
184.196739
 30
0.0
  0
SPLINE
  5
2ca
100
AcDbEntity
  8
Layer_1
 62
1
100
AcDbSpline
 70
8
 71
3
 72
8
 73
4
 74
0
 40
0
 40
0
 40
0
 40
0
 40
1
 40
1
 40
1
 40
1
 10
142.859246
 20
184.196739
 30
0.0
 10
143.053580
 20
184.323476
 30
0.0
 10
143.264811
 20
184.386848
 30
0.0
 10
143.492939
 20
184.386848
 30
0.0
  0
LWPOLYLINE
  5
2cb
100
AcDbEntity
  8
Layer_1
 62
1
100
AcDbPolyline
 90
2
 70
1
 10
79.008214
 20
184.386848
 30
0.0
 10
79.008214
 20
184.386848
 30
0.0
  0
SPLINE
  5
2cc
100
AcDbEntity
  8
Layer_1
 62
1
100
AcDbSpline
 70
8
 71
3
 72
8
 73
4
 74
0
 40
0
 40
0
 40
0
 40
0
 40
1
 40
1
 40
1
 40
1
 10
102.695707
 20
184.260110
 30
0.0
 10
102.991431
 20
184.260110
 30
0.0
 10
103.278707
 20
184.196713
 30
0.0
 10
103.557528
 20
184.070001
 30
0.0
  0
SPLINE
  5
2cd
100
AcDbEntity
  8
Layer_1
 62
1
100
AcDbSpline
 70
8
 71
3
 72
8
 73
4
 74
0
 40
0
 40
0
 40
0
 40
0
 40
1
 40
1
 40
1
 40
1
 10
103.557528
 20
184.070001
 30
0.0
 10
103.836355
 20
183.943264
 30
0.0
 10
104.089836
 20
183.748931
 30
0.0
 10
104.317964
 20
183.487001
 30
0.0
  0
LWPOLYLINE
  5
2ce
100
AcDbEntity
  8
Layer_1
 62
1
100
AcDbPolyline
 90
2
 70
1
 10
143.492939
 20
184.386848
 30
0.0
 10
143.492939
 20
184.386848
 30
0.0
  0
SPLINE
  5
2cf
100
AcDbEntity
  8
Layer_1
 62
1
100
AcDbSpline
 70
8
 71
3
 72
8
 73
4
 74
0
 40
0
 40
0
 40
0
 40
0
 40
1
 40
1
 40
1
 40
1
 10
104.317964
 20
178.823012
 30
0.0
 10
104.106733
 20
178.645576
 30
0.0
 10
103.857477
 20
178.514614
 30
0.0
 10
103.570201
 20
178.430120
 30
0.0
  0
SPLINE
  5
2d0
100
AcDbEntity
  8
Layer_1
 62
1
100
AcDbSpline
 70
8
 71
3
 72
8
 73
4
 74
0
 40
0
 40
0
 40
0
 40
0
 40
1
 40
1
 40
1
 40
1
 10
103.570201
 20
178.430120
 30
0.0
 10
103.291380
 20
178.345633
 30
0.0
 10
103.033675
 20
178.303383
 30
0.0
 10
102.797098
 20
178.303383
 30
0.0
  0
SPLINE
  5
2d1
100
AcDbEntity
  8
Layer_1
 62
1
100
AcDbSpline
 70
8
 71
3
 72
8
 73
4
 74
0
 40
0
 40
0
 40
0
 40
0
 40
1
 40
1
 40
1
 40
1
 10
102.797098
 20
178.303383
 30
0.0
 10
102.476027
 20
178.303383
 30
0.0
 10
102.163405
 20
178.387877
 30
0.0
 10
101.859232
 20
178.556864
 30
0.0
  0
SPLINE
  5
2d2
100
AcDbEntity
  8
Layer_1
 62
1
100
AcDbSpline
 70
8
 71
3
 72
8
 73
4
 74
0
 40
0
 40
0
 40
0
 40
0
 40
1
 40
1
 40
1
 40
1
 10
101.859232
 20
178.556864
 30
0.0
 10
101.555059
 20
178.725845
 30
0.0
 10
101.305802
 20
178.949749
 30
0.0
 10
101.111469
 20
179.228576
 30
0.0
  0
SPLINE
  5
2d3
100
AcDbEntity
  8
Layer_1
 62
1
100
AcDbSpline
 70
8
 71
3
 72
8
 73
4
 74
0
 40
0
 40
0
 40
0
 40
0
 40
1
 40
1
 40
1
 40
1
 10
101.111469
 20
179.228576
 30
0.0
 10
100.917136
 20
179.507403
 30
0.0
 10
100.765052
 20
179.828474
 30
0.0
 10
100.655212
 20
180.191794
 30
0.0
  0
SPLINE
  5
2d4
100
AcDbEntity
  8
Layer_1
 62
1
100
AcDbSpline
 70
8
 71
3
 72
8
 73
4
 74
0
 40
0
 40
0
 40
0
 40
0
 40
1
 40
1
 40
1
 40
1
 10
100.655212
 20
180.191794
 30
0.0
 10
100.553821
 20
180.563557
 30
0.0
 10
100.503122
 20
180.931102
 30
0.0
 10
100.503122
 20
181.294417
 30
0.0
  0
SPLINE
  5
2d5
100
AcDbEntity
  8
Layer_1
 62
1
100
AcDbSpline
 70
8
 71
3
 72
8
 73
4
 74
0
 40
0
 40
0
 40
0
 40
0
 40
1
 40
1
 40
1
 40
1
 10
100.503122
 20
181.294417
 30
0.0
 10
100.503122
 20
181.649289
 30
0.0
 10
100.549584
 20
182.008385
 30
0.0
 10
100.642539
 20
182.371699
 30
0.0
  0
SPLINE
  5
2d6
100
AcDbEntity
  8
Layer_1
 62
1
100
AcDbSpline
 70
8
 71
3
 72
8
 73
4
 74
0
 40
0
 40
0
 40
0
 40
0
 40
1
 40
1
 40
1
 40
1
 10
100.642539
 20
182.371699
 30
0.0
 10
100.743930
 20
182.735013
 30
0.0
 10
100.891796
 20
183.056084
 30
0.0
 10
101.086123
 20
183.334918
 30
0.0
  0
SPLINE
  5
2d7
100
AcDbEntity
  8
Layer_1
 62
1
100
AcDbSpline
 70
8
 71
3
 72
8
 73
4
 74
0
 40
0
 40
0
 40
0
 40
0
 40
1
 40
1
 40
1
 40
1
 10
101.086123
 20
183.334918
 30
0.0
 10
101.280456
 20
183.613738
 30
0.0
 10
101.517033
 20
183.837649
 30
0.0
 10
101.795860
 20
184.006630
 30
0.0
  0
SPLINE
  5
2d8
100
AcDbEntity
  8
Layer_1
 62
1
100
AcDbSpline
 70
8
 71
3
 72
8
 73
4
 74
0
 40
0
 40
0
 40
0
 40
0
 40
1
 40
1
 40
1
 40
1
 10
101.795860
 20
184.006630
 30
0.0
 10
102.074687
 20
184.175617
 30
0.0
 10
102.374636
 20
184.260110
 30
0.0
 10
102.695707
 20
184.260110
 30
0.0
  0
LWPOLYLINE
  5
2d9
100
AcDbEntity
  8
Layer_1
 62
1
100
AcDbPolyline
 90
2
 70
1
 10
104.317964
 20
183.487001
 30
0.0
 10
104.317964
 20
178.823012
 30
0.0
  0
SPLINE
  5
2da
100
AcDbEntity
  8
Layer_1
 62
1
100
AcDbSpline
 70
8
 71
3
 72
8
 73
4
 74
0
 40
0
 40
0
 40
0
 40
0
 40
1
 40
1
 40
1
 40
1
 10
111.326622
 20
184.260110
 30
0.0
 10
111.554756
 20
184.260110
 30
0.0
 10
111.757538
 20
184.217867
 30
0.0
 10
111.934968
 20
184.133367
 30
0.0
  0
SPLINE
  5
2db
100
AcDbEntity
  8
Layer_1
 62
1
100
AcDbSpline
 70
8
 71
3
 72
8
 73
4
 74
0
 40
0
 40
0
 40
0
 40
0
 40
1
 40
1
 40
1
 40
1
 10
111.934968
 20
184.133367
 30
0.0
 10
112.120853
 20
184.048880
 30
0.0
 10
112.281385
 20
183.934809
 30
0.0
 10
112.416577
 20
183.791174
 30
0.0
  0
SPLINE
  5
2dc
100
AcDbEntity
  8
Layer_1
 62
1
100
AcDbSpline
 70
8
 71
3
 72
8
 73
4
 74
0
 40
0
 40
0
 40
0
 40
0
 40
1
 40
1
 40
1
 40
1
 10
112.416577
 20
183.791174
 30
0.0
 10
112.560212
 20
183.647540
 30
0.0
 10
112.665827
 20
183.478552
 30
0.0
 10
112.733424
 20
183.284219
 30
0.0
  0
SPLINE
  5
2dd
100
AcDbEntity
  8
Layer_1
 62
1
100
AcDbSpline
 70
8
 71
3
 72
8
 73
4
 74
0
 40
0
 40
0
 40
0
 40
0
 40
1
 40
1
 40
1
 40
1
 10
112.733424
 20
183.284219
 30
0.0
 10
112.801013
 20
183.089886
 30
0.0
 10
112.834815
 20
182.878655
 30
0.0
 10
112.834815
 20
182.650526
 30
0.0
  0
SPLINE
  5
2de
100
AcDbEntity
  8
Layer_1
 62
1
100
AcDbSpline
 70
8
 71
3
 72
8
 73
4
 74
0
 40
0
 40
0
 40
0
 40
0
 40
1
 40
1
 40
1
 40
1
 10
112.834815
 20
182.650526
 30
0.0
 10
112.834815
 20
182.498443
 30
0.0
 10
112.809442
 20
182.388597
 30
0.0
 10
112.758770
 20
182.321007
 30
0.0
  0
SPLINE
  5
2df
100
AcDbEntity
  8
Layer_1
 62
1
100
AcDbSpline
 70
8
 71
3
 72
8
 73
4
 74
0
 40
0
 40
0
 40
0
 40
0
 40
1
 40
1
 40
1
 40
1
 10
112.758770
 20
182.321007
 30
0.0
 10
112.708090
 20
182.261827
 30
0.0
 10
112.598238
 20
182.232289
 30
0.0
 10
112.429250
 20
182.232289
 30
0.0
  0
LWPOLYLINE
  5
2e0
100
AcDbEntity
  8
Layer_1
 62
1
100
AcDbPolyline
 90
2
 70
1
 10
102.695707
 20
184.260110
 30
0.0
 10
102.695707
 20
184.260110
 30
0.0
  0
SPLINE
  5
2e1
100
AcDbEntity
  8
Layer_1
 62
1
100
AcDbSpline
 70
8
 71
3
 72
8
 73
4
 74
0
 40
0
 40
0
 40
0
 40
0
 40
1
 40
1
 40
1
 40
1
 10
109.590300
 20
182.232289
 30
0.0
 10
109.632544
 20
182.561808
 30
0.0
 10
109.708589
 20
182.849084
 30
0.0
 10
109.818428
 20
183.094110
 30
0.0
  0
SPLINE
  5
2e2
100
AcDbEntity
  8
Layer_1
 62
1
100
AcDbSpline
 70
8
 71
3
 72
8
 73
4
 74
0
 40
0
 40
0
 40
0
 40
0
 40
1
 40
1
 40
1
 40
1
 10
109.818428
 20
183.094110
 30
0.0
 10
109.936717
 20
183.347591
 30
0.0
 10
110.071903
 20
183.558822
 30
0.0
 10
110.223993
 20
183.727802
 30
0.0
  0
SPLINE
  5
2e3
100
AcDbEntity
  8
Layer_1
 62
1
100
AcDbSpline
 70
8
 71
3
 72
8
 73
4
 74
0
 40
0
 40
0
 40
0
 40
0
 40
1
 40
1
 40
1
 40
1
 10
110.223993
 20
183.727802
 30
0.0
 10
110.384525
 20
183.896790
 30
0.0
 10
110.561961
 20
184.027758
 30
0.0
 10
110.756294
 20
184.120694
 30
0.0
  0
SPLINE
  5
2e4
100
AcDbEntity
  8
Layer_1
 62
1
100
AcDbSpline
 70
8
 71
3
 72
8
 73
4
 74
0
 40
0
 40
0
 40
0
 40
0
 40
1
 40
1
 40
1
 40
1
 10
110.756294
 20
184.120694
 30
0.0
 10
110.950628
 20
184.213643
 30
0.0
 10
111.140743
 20
184.260110
 30
0.0
 10
111.326622
 20
184.260110
 30
0.0
  0
LWPOLYLINE
  5
2e5
100
AcDbEntity
  8
Layer_1
 62
1
100
AcDbPolyline
 90
2
 70
1
 10
112.429250
 20
182.232289
 30
0.0
 10
109.590300
 20
182.232289
 30
0.0
  0
SPLINE
  5
2e6
100
AcDbEntity
  8
Layer_1
 62
1
100
AcDbSpline
 70
8
 71
3
 72
8
 73
4
 74
0
 40
0
 40
0
 40
0
 40
0
 40
1
 40
1
 40
1
 40
1
 10
88.564322
 20
181.015596
 30
0.0
 10
88.564322
 20
180.660724
 30
0.0
 10
88.559779
 20
180.301628
 30
0.0
 10
88.551668
 20
179.938313
 30
0.0
  0
SPLINE
  5
2e7
100
AcDbEntity
  8
Layer_1
 62
1
100
AcDbSpline
 70
8
 71
3
 72
8
 73
4
 74
0
 40
0
 40
0
 40
0
 40
0
 40
1
 40
1
 40
1
 40
1
 10
88.551668
 20
179.938313
 30
0.0
 10
88.543232
 20
179.574999
 30
0.0
 10
88.539014
 20
179.215903
 30
0.0
 10
88.539014
 20
178.861031
 30
0.0
  0
SPLINE
  5
2e8
100
AcDbEntity
  8
Layer_1
 62
1
100
AcDbSpline
 70
8
 71
3
 72
8
 73
4
 74
0
 40
0
 40
0
 40
0
 40
0
 40
1
 40
1
 40
1
 40
1
 10
88.539014
 20
178.861031
 30
0.0
 10
88.293989
 20
178.658249
 30
0.0
 10
88.053181
 20
178.510390
 30
0.0
 10
87.816604
 20
178.417447
 30
0.0
  0
SPLINE
  5
2e9
100
AcDbEntity
  8
Layer_1
 62
1
100
AcDbSpline
 70
8
 71
3
 72
8
 73
4
 74
0
 40
0
 40
0
 40
0
 40
0
 40
1
 40
1
 40
1
 40
1
 10
87.816604
 20
178.417447
 30
0.0
 10
87.580020
 20
178.324505
 30
0.0
 10
87.326552
 20
178.278037
 30
0.0
 10
87.056174
 20
178.278037
 30
0.0
  0
SPLINE
  5
2ea
100
AcDbEntity
  8
Layer_1
 62
1
100
AcDbSpline
 70
8
 71
3
 72
8
 73
4
 74
0
 40
0
 40
0
 40
0
 40
0
 40
1
 40
1
 40
1
 40
1
 10
87.056174
 20
178.278037
 30
0.0
 10
86.794244
 20
178.278037
 30
0.0
 10
86.570340
 20
178.392101
 30
0.0
 10
86.384456
 20
178.620229
 30
0.0
  0
SPLINE
  5
2eb
100
AcDbEntity
  8
Layer_1
 62
1
100
AcDbSpline
 70
8
 71
3
 72
8
 73
4
 74
0
 40
0
 40
0
 40
0
 40
0
 40
1
 40
1
 40
1
 40
1
 10
86.384456
 20
178.620229
 30
0.0
 10
86.207026
 20
178.848358
 30
0.0
 10
86.118302
 20
179.139858
 30
0.0
 10
86.118302
 20
179.494730
 30
0.0
  0
SPLINE
  5
2ec
100
AcDbEntity
  8
Layer_1
 62
1
100
AcDbSpline
 70
8
 71
3
 72
8
 73
4
 74
0
 40
0
 40
0
 40
0
 40
0
 40
1
 40
1
 40
1
 40
1
 10
86.118302
 20
179.494730
 30
0.0
 10
86.118302
 20
179.790448
 30
0.0
 10
86.223917
 20
180.031256
 30
0.0
 10
86.435148
 20
180.217141
 30
0.0
  0
SPLINE
  5
2ed
100
AcDbEntity
  8
Layer_1
 62
1
100
AcDbSpline
 70
8
 71
3
 72
8
 73
4
 74
0
 40
0
 40
0
 40
0
 40
0
 40
1
 40
1
 40
1
 40
1
 10
86.435148
 20
180.217141
 30
0.0
 10
86.570340
 20
180.343878
 30
0.0
 10
86.718206
 20
180.449493
 30
0.0
 10
86.878738
 20
180.533987
 30
0.0
  0
SPLINE
  5
2ee
100
AcDbEntity
  8
Layer_1
 62
1
100
AcDbSpline
 70
8
 71
3
 72
8
 73
4
 74
0
 40
0
 40
0
 40
0
 40
0
 40
1
 40
1
 40
1
 40
1
 10
86.878738
 20
180.533987
 30
0.0
 10
87.047725
 20
180.626929
 30
0.0
 10
87.225155
 20
180.702974
 30
0.0
 10
87.411040
 20
180.762115
 30
0.0
  0
SPLINE
  5
2ef
100
AcDbEntity
  8
Layer_1
 62
1
100
AcDbSpline
 70
8
 71
3
 72
8
 73
4
 74
0
 40
0
 40
0
 40
0
 40
0
 40
1
 40
1
 40
1
 40
1
 10
87.411040
 20
180.762115
 30
0.0
 10
87.605373
 20
180.821230
 30
0.0
 10
87.787033
 20
180.871935
 30
0.0
 10
87.956014
 20
180.914205
 30
0.0
  0
SPLINE
  5
2f0
100
AcDbEntity
  8
Layer_1
 62
1
100
AcDbSpline
 70
8
 71
3
 72
8
 73
4
 74
0
 40
0
 40
0
 40
0
 40
0
 40
1
 40
1
 40
1
 40
1
 10
87.956014
 20
180.914205
 30
0.0
 10
88.133450
 20
180.956449
 30
0.0
 10
88.336239
 20
180.990243
 30
0.0
 10
88.564361
 20
181.015596
 30
0.0
  0
LWPOLYLINE
  5
2f1
100
AcDbEntity
  8
Layer_1
 62
1
100
AcDbPolyline
 90
2
 70
1
 10
111.326622
 20
184.260110
 30
0.0
 10
111.326622
 20
184.260110
 30
0.0
  0
LWPOLYLINE
  5
2f2
100
AcDbEntity
  8
Layer_1
 62
1
100
AcDbPolyline
 90
2
 70
1
 10
88.564361
 20
181.015596
 30
0.0
 10
88.564322
 20
181.015596
 30
0.0
  0
SPLINE
  5
2f3
100
AcDbEntity
  8
Layer_1
 62
1
100
AcDbSpline
 70
8
 71
3
 72
8
 73
4
 74
0
 40
0
 40
0
 40
0
 40
0
 40
1
 40
1
 40
1
 40
1
 10
79.591215
 20
176.579735
 30
0.0
 10
79.895388
 20
176.579735
 30
0.0
 10
80.195337
 20
176.571299
 30
0.0
 10
80.491061
 20
176.554363
 30
0.0
  0
SPLINE
  5
2f4
100
AcDbEntity
  8
Layer_1
 62
1
100
AcDbSpline
 70
8
 71
3
 72
8
 73
4
 74
0
 40
0
 40
0
 40
0
 40
0
 40
1
 40
1
 40
1
 40
1
 10
80.491061
 20
176.554363
 30
0.0
 10
80.786786
 20
176.528991
 30
0.0
 10
81.057164
 20
176.461414
 30
0.0
 10
81.302190
 20
176.351581
 30
0.0
  0
SPLINE
  5
2f5
100
AcDbEntity
  8
Layer_1
 62
1
100
AcDbSpline
 70
8
 71
3
 72
8
 73
4
 74
0
 40
0
 40
0
 40
0
 40
0
 40
1
 40
1
 40
1
 40
1
 10
81.302190
 20
176.351581
 30
0.0
 10
81.589466
 20
176.233286
 30
0.0
 10
81.809145
 20
176.055856
 30
0.0
 10
81.961229
 20
175.819273
 30
0.0
  0
SPLINE
  5
2f6
100
AcDbEntity
  8
Layer_1
 62
1
100
AcDbSpline
 70
8
 71
3
 72
8
 73
4
 74
0
 40
0
 40
0
 40
0
 40
0
 40
1
 40
1
 40
1
 40
1
 10
81.961229
 20
175.819273
 30
0.0
 10
82.113312
 20
175.582696
 30
0.0
 10
82.189363
 20
175.358792
 30
0.0
 10
82.189363
 20
175.147561
 30
0.0
  0
SPLINE
  5
2f7
100
AcDbEntity
  8
Layer_1
 62
1
100
AcDbSpline
 70
8
 71
3
 72
8
 73
4
 74
0
 40
0
 40
0
 40
0
 40
0
 40
1
 40
1
 40
1
 40
1
 10
82.189363
 20
175.147561
 30
0.0
 10
82.189363
 20
174.877182
 30
0.0
 10
82.113312
 20
174.623708
 30
0.0
 10
81.961229
 20
174.387124
 30
0.0
  0
SPLINE
  5
2f8
100
AcDbEntity
  8
Layer_1
 62
1
100
AcDbSpline
 70
8
 71
3
 72
8
 73
4
 74
0
 40
0
 40
0
 40
0
 40
0
 40
1
 40
1
 40
1
 40
1
 10
81.961229
 20
174.387124
 30
0.0
 10
81.817594
 20
174.150547
 30
0.0
 10
81.619036
 20
173.964663
 30
0.0
 10
81.365555
 20
173.829477
 30
0.0
  0
SPLINE
  5
2f9
100
AcDbEntity
  8
Layer_1
 62
1
100
AcDbSpline
 70
8
 71
3
 72
8
 73
4
 74
0
 40
0
 40
0
 40
0
 40
0
 40
1
 40
1
 40
1
 40
1
 10
81.365555
 20
173.829477
 30
0.0
 10
81.112081
 20
173.694291
 30
0.0
 10
80.816356
 20
173.588669
 30
0.0
 10
80.478388
 20
173.512630
 30
0.0
  0
SPLINE
  5
2fa
100
AcDbEntity
  8
Layer_1
 62
1
100
AcDbSpline
 70
8
 71
3
 72
8
 73
4
 74
0
 40
0
 40
0
 40
0
 40
0
 40
1
 40
1
 40
1
 40
1
 10
80.478388
 20
173.512630
 30
0.0
 10
80.140414
 20
173.428130
 30
0.0
 10
79.823567
 20
173.385887
 30
0.0
 10
79.527843
 20
173.385887
 30
0.0
  0
SPLINE
  5
2fb
100
AcDbEntity
  8
Layer_1
 62
1
100
AcDbSpline
 70
8
 71
3
 72
8
 73
4
 74
0
 40
0
 40
0
 40
0
 40
0
 40
1
 40
1
 40
1
 40
1
 10
79.527843
 20
173.385887
 30
0.0
 10
79.308163
 20
173.385887
 30
0.0
 10
79.037791
 20
173.402823
 30
0.0
 10
78.716714
 20
173.436566
 30
0.0
  0
SPLINE
  5
2fc
100
AcDbEntity
  8
Layer_1
 62
1
100
AcDbSpline
 70
8
 71
3
 72
8
 73
4
 74
0
 40
0
 40
0
 40
0
 40
0
 40
1
 40
1
 40
1
 40
1
 10
78.716714
 20
173.436566
 30
0.0
 10
78.395644
 20
173.461938
 30
0.0
 10
78.091470
 20
173.537957
 30
0.0
 10
77.804194
 20
173.664694
 30
0.0
  0
SPLINE
  5
2fd
100
AcDbEntity
  8
Layer_1
 62
1
100
AcDbSpline
 70
8
 71
3
 72
8
 73
4
 74
0
 40
0
 40
0
 40
0
 40
0
 40
1
 40
1
 40
1
 40
1
 10
77.804194
 20
173.664694
 30
0.0
 10
77.525374
 20
173.791438
 30
0.0
 10
77.309919
 20
173.960419
 30
0.0
 10
77.157829
 20
174.171650
 30
0.0
  0
SPLINE
  5
2fe
100
AcDbEntity
  8
Layer_1
 62
1
100
AcDbSpline
 70
8
 71
3
 72
8
 73
4
 74
0
 40
0
 40
0
 40
0
 40
0
 40
1
 40
1
 40
1
 40
1
 10
77.157829
 20
174.171650
 30
0.0
 10
77.014194
 20
174.382881
 30
0.0
 10
76.942374
 20
174.602560
 30
0.0
 10
76.942374
 20
174.830695
 30
0.0
  0
SPLINE
  5
2ff
100
AcDbEntity
  8
Layer_1
 62
1
100
AcDbSpline
 70
8
 71
3
 72
8
 73
4
 74
0
 40
0
 40
0
 40
0
 40
0
 40
1
 40
1
 40
1
 40
1
 10
76.942374
 20
174.830695
 30
0.0
 10
76.942374
 20
175.126413
 30
0.0
 10
77.005706
 20
175.375670
 30
0.0
 10
77.132483
 20
175.578452
 30
0.0
  0
SPLINE
  5
300
100
AcDbEntity
  8
Layer_1
 62
1
100
AcDbSpline
 70
8
 71
3
 72
8
 73
4
 74
0
 40
0
 40
0
 40
0
 40
0
 40
1
 40
1
 40
1
 40
1
 10
77.132483
 20
175.578452
 30
0.0
 10
77.259220
 20
175.781234
 30
0.0
 10
77.453553
 20
175.992465
 30
0.0
 10
77.715476
 20
176.212144
 30
0.0
  0
SPLINE
  5
301
100
AcDbEntity
  8
Layer_1
 62
1
100
AcDbSpline
 70
8
 71
3
 72
8
 73
4
 74
0
 40
0
 40
0
 40
0
 40
0
 40
1
 40
1
 40
1
 40
1
 10
77.715476
 20
176.212144
 30
0.0
 10
77.816868
 20
176.296644
 30
0.0
 10
77.914034
 20
176.364234
 30
0.0
 10
78.006977
 20
176.414926
 30
0.0
  0
SPLINE
  5
302
100
AcDbEntity
  8
Layer_1
 62
1
100
AcDbSpline
 70
8
 71
3
 72
8
 73
4
 74
0
 40
0
 40
0
 40
0
 40
0
 40
1
 40
1
 40
1
 40
1
 10
78.006977
 20
176.414926
 30
0.0
 10
78.099919
 20
176.465606
 30
0.0
 10
78.205534
 20
176.503644
 30
0.0
 10
78.323823
 20
176.528997
 30
0.0
  0
SPLINE
  5
303
100
AcDbEntity
  8
Layer_1
 62
1
100
AcDbSpline
 70
8
 71
3
 72
8
 73
4
 74
0
 40
0
 40
0
 40
0
 40
0
 40
1
 40
1
 40
1
 40
1
 10
78.323823
 20
176.528997
 30
0.0
 10
78.442118
 20
176.554369
 30
0.0
 10
78.589977
 20
176.571241
 30
0.0
 10
78.767413
 20
176.579676
 30
0.0
  0
LWPOLYLINE
  5
304
100
AcDbEntity
  8
Layer_1
 62
1
100
AcDbPolyline
 90
3
 70
1
 10
78.767413
 20
176.579735
 30
0.0
 10
79.464477
 20
176.579735
 30
0.0
 10
79.591215
 20
176.579735
 30
0.0
  0
LWPOLYLINE
  5
305
100
AcDbEntity
  8
Layer_1
 62
1
100
AcDbPolyline
 90
2
 70
1
 10
78.767413
 20
176.579676
 30
0.0
 10
78.767413
 20
176.579735
 30
0.0
  0
SPLINE
  5
306
100
AcDbEntity
  8
Layer_1
 62
1
100
AcDbSpline
 70
8
 71
3
 72
8
 73
4
 74
0
 40
0
 40
0
 40
0
 40
0
 40
1
 40
1
 40
1
 40
1
 10
144.075939
 20
176.579735
 30
0.0
 10
144.380112
 20
176.579735
 30
0.0
 10
144.680061
 20
176.571299
 30
0.0
 10
144.975786
 20
176.554363
 30
0.0
  0
SPLINE
  5
307
100
AcDbEntity
  8
Layer_1
 62
1
100
AcDbSpline
 70
8
 71
3
 72
8
 73
4
 74
0
 40
0
 40
0
 40
0
 40
0
 40
1
 40
1
 40
1
 40
1
 10
144.975786
 20
176.554363
 30
0.0
 10
145.271510
 20
176.528991
 30
0.0
 10
145.541889
 20
176.461414
 30
0.0
 10
145.786914
 20
176.351581
 30
0.0
  0
SPLINE
  5
308
100
AcDbEntity
  8
Layer_1
 62
1
100
AcDbSpline
 70
8
 71
3
 72
8
 73
4
 74
0
 40
0
 40
0
 40
0
 40
0
 40
1
 40
1
 40
1
 40
1
 10
145.786914
 20
176.351581
 30
0.0
 10
146.074190
 20
176.233286
 30
0.0
 10
146.293870
 20
176.055856
 30
0.0
 10
146.445953
 20
175.819273
 30
0.0
  0
SPLINE
  5
309
100
AcDbEntity
  8
Layer_1
 62
1
100
AcDbSpline
 70
8
 71
3
 72
8
 73
4
 74
0
 40
0
 40
0
 40
0
 40
0
 40
1
 40
1
 40
1
 40
1
 10
146.445953
 20
175.819273
 30
0.0
 10
146.598043
 20
175.582696
 30
0.0
 10
146.674088
 20
175.358792
 30
0.0
 10
146.674088
 20
175.147561
 30
0.0
  0
SPLINE
  5
30a
100
AcDbEntity
  8
Layer_1
 62
1
100
AcDbSpline
 70
8
 71
3
 72
8
 73
4
 74
0
 40
0
 40
0
 40
0
 40
0
 40
1
 40
1
 40
1
 40
1
 10
146.674088
 20
175.147561
 30
0.0
 10
146.674088
 20
174.877182
 30
0.0
 10
146.598043
 20
174.623708
 30
0.0
 10
146.445953
 20
174.387124
 30
0.0
  0
SPLINE
  5
30b
100
AcDbEntity
  8
Layer_1
 62
1
100
AcDbSpline
 70
8
 71
3
 72
8
 73
4
 74
0
 40
0
 40
0
 40
0
 40
0
 40
1
 40
1
 40
1
 40
1
 10
146.445953
 20
174.387124
 30
0.0
 10
146.302318
 20
174.150547
 30
0.0
 10
146.103761
 20
173.964663
 30
0.0
 10
145.850280
 20
173.829477
 30
0.0
  0
SPLINE
  5
30c
100
AcDbEntity
  8
Layer_1
 62
1
100
AcDbSpline
 70
8
 71
3
 72
8
 73
4
 74
0
 40
0
 40
0
 40
0
 40
0
 40
1
 40
1
 40
1
 40
1
 10
145.850280
 20
173.829477
 30
0.0
 10
145.596805
 20
173.694291
 30
0.0
 10
145.301081
 20
173.588669
 30
0.0
 10
144.963113
 20
173.512630
 30
0.0
  0
SPLINE
  5
30d
100
AcDbEntity
  8
Layer_1
 62
1
100
AcDbSpline
 70
8
 71
3
 72
8
 73
4
 74
0
 40
0
 40
0
 40
0
 40
0
 40
1
 40
1
 40
1
 40
1
 10
144.963113
 20
173.512630
 30
0.0
 10
144.625138
 20
173.428130
 30
0.0
 10
144.308292
 20
173.385887
 30
0.0
 10
144.012567
 20
173.385887
 30
0.0
  0
SPLINE
  5
30e
100
AcDbEntity
  8
Layer_1
 62
1
100
AcDbSpline
 70
8
 71
3
 72
8
 73
4
 74
0
 40
0
 40
0
 40
0
 40
0
 40
1
 40
1
 40
1
 40
1
 10
144.012567
 20
173.385887
 30
0.0
 10
143.792888
 20
173.385887
 30
0.0
 10
143.522516
 20
173.402823
 30
0.0
 10
143.201439
 20
173.436566
 30
0.0
  0
SPLINE
  5
30f
100
AcDbEntity
  8
Layer_1
 62
1
100
AcDbSpline
 70
8
 71
3
 72
8
 73
4
 74
0
 40
0
 40
0
 40
0
 40
0
 40
1
 40
1
 40
1
 40
1
 10
143.201439
 20
173.436566
 30
0.0
 10
142.880368
 20
173.461938
 30
0.0
 10
142.576195
 20
173.537957
 30
0.0
 10
142.288919
 20
173.664694
 30
0.0
  0
SPLINE
  5
310
100
AcDbEntity
  8
Layer_1
 62
1
100
AcDbSpline
 70
8
 71
3
 72
8
 73
4
 74
0
 40
0
 40
0
 40
0
 40
0
 40
1
 40
1
 40
1
 40
1
 10
142.288919
 20
173.664694
 30
0.0
 10
142.010098
 20
173.791438
 30
0.0
 10
141.794643
 20
173.960419
 30
0.0
 10
141.642553
 20
174.171650
 30
0.0
  0
SPLINE
  5
311
100
AcDbEntity
  8
Layer_1
 62
1
100
AcDbSpline
 70
8
 71
3
 72
8
 73
4
 74
0
 40
0
 40
0
 40
0
 40
0
 40
1
 40
1
 40
1
 40
1
 10
141.642553
 20
174.171650
 30
0.0
 10
141.498919
 20
174.382881
 30
0.0
 10
141.427098
 20
174.602560
 30
0.0
 10
141.427098
 20
174.830695
 30
0.0
  0
SPLINE
  5
312
100
AcDbEntity
  8
Layer_1
 62
1
100
AcDbSpline
 70
8
 71
3
 72
8
 73
4
 74
0
 40
0
 40
0
 40
0
 40
0
 40
1
 40
1
 40
1
 40
1
 10
141.427098
 20
174.830695
 30
0.0
 10
141.427098
 20
175.126413
 30
0.0
 10
141.490431
 20
175.375670
 30
0.0
 10
141.617207
 20
175.578452
 30
0.0
  0
SPLINE
  5
313
100
AcDbEntity
  8
Layer_1
 62
1
100
AcDbSpline
 70
8
 71
3
 72
8
 73
4
 74
0
 40
0
 40
0
 40
0
 40
0
 40
1
 40
1
 40
1
 40
1
 10
141.617207
 20
175.578452
 30
0.0
 10
141.743944
 20
175.781234
 30
0.0
 10
141.938278
 20
175.992465
 30
0.0
 10
142.200201
 20
176.212144
 30
0.0
  0
SPLINE
  5
314
100
AcDbEntity
  8
Layer_1
 62
1
100
AcDbSpline
 70
8
 71
3
 72
8
 73
4
 74
0
 40
0
 40
0
 40
0
 40
0
 40
1
 40
1
 40
1
 40
1
 10
142.200201
 20
176.212144
 30
0.0
 10
142.301592
 20
176.296644
 30
0.0
 10
142.398759
 20
176.364234
 30
0.0
 10
142.491701
 20
176.414926
 30
0.0
  0
SPLINE
  5
315
100
AcDbEntity
  8
Layer_1
 62
1
100
AcDbSpline
 70
8
 71
3
 72
8
 73
4
 74
0
 40
0
 40
0
 40
0
 40
0
 40
1
 40
1
 40
1
 40
1
 10
142.491701
 20
176.414926
 30
0.0
 10
142.584644
 20
176.465606
 30
0.0
 10
142.690259
 20
176.503644
 30
0.0
 10
142.808547
 20
176.528997
 30
0.0
  0
SPLINE
  5
316
100
AcDbEntity
  8
Layer_1
 62
1
100
AcDbSpline
 70
8
 71
3
 72
8
 73
4
 74
0
 40
0
 40
0
 40
0
 40
0
 40
1
 40
1
 40
1
 40
1
 10
142.808547
 20
176.528997
 30
0.0
 10
142.926842
 20
176.554369
 30
0.0
 10
143.074701
 20
176.571241
 30
0.0
 10
143.252137
 20
176.579676
 30
0.0
  0
LWPOLYLINE
  5
317
100
AcDbEntity
  8
Layer_1
 62
1
100
AcDbPolyline
 90
3
 70
1
 10
143.252137
 20
176.579735
 30
0.0
 10
143.949202
 20
176.579735
 30
0.0
 10
144.075939
 20
176.579735
 30
0.0
  0
SPLINE
  5
318
100
AcDbEntity
  8
Layer_1
 62
1
100
AcDbSpline
 70
8
 71
3
 72
8
 73
4
 74
0
 40
0
 40
0
 40
0
 40
0
 40
1
 40
1
 40
1
 40
1
 10
74.444380
 20
213.829882
 30
0.0
 10
65.470594
 20
213.829882
 30
0.0
 10
58.246368
 20
206.605106
 30
0.0
 10
58.246368
 20
197.631319
 30
0.0
  0
LWPOLYLINE
  5
319
100
AcDbEntity
  8
Layer_1
 62
1
100
AcDbPolyline
 90
2
 70
1
 10
143.252137
 20
176.579676
 30
0.0
 10
143.252137
 20
176.579735
 30
0.0
  0
SPLINE
  5
31a
100
AcDbEntity
  8
Layer_1
 62
1
100
AcDbSpline
 70
8
 71
3
 72
8
 73
4
 74
0
 40
0
 40
0
 40
0
 40
0
 40
1
 40
1
 40
1
 40
1
 10
58.246368
 20
168.395965
 30
0.0
 10
58.246368
 20
159.422178
 30
0.0
 10
65.470594
 20
152.197400
 30
0.0
 10
74.444380
 20
152.197400
 30
0.0
  0
LWPOLYLINE
  5
31b
100
AcDbEntity
  8
Layer_1
 62
1
100
AcDbPolyline
 90
2
 70
0
 10
58.246368
 20
197.631319
 30
0.0
 10
58.246368
 20
168.395965
 30
0.0
  0
SPLINE
  5
31c
100
AcDbEntity
  8
Layer_1
 62
1
100
AcDbSpline
 70
8
 71
3
 72
8
 73
4
 74
0
 40
0
 40
0
 40
0
 40
0
 40
1
 40
1
 40
1
 40
1
 10
141.770916
 20
152.197400
 30
0.0
 10
150.744702
 20
152.197400
 30
0.0
 10
157.969481
 20
159.422178
 30
0.0
 10
157.969481
 20
168.395965
 30
0.0
  0
LWPOLYLINE
  5
31d
100
AcDbEntity
  8
Layer_1
 62
1
100
AcDbPolyline
 90
2
 70
0
 10
74.444380
 20
152.197400
 30
0.0
 10
141.770916
 20
152.197400
 30
0.0
  0
SPLINE
  5
31e
100
AcDbEntity
  8
Layer_1
 62
1
100
AcDbSpline
 70
8
 71
3
 72
8
 73
4
 74
0
 40
0
 40
0
 40
0
 40
0
 40
1
 40
1
 40
1
 40
1
 10
157.969481
 20
197.631319
 30
0.0
 10
157.969481
 20
206.605106
 30
0.0
 10
150.744702
 20
213.829882
 30
0.0
 10
141.770916
 20
213.829882
 30
0.0
  0
LWPOLYLINE
  5
31f
100
AcDbEntity
  8
Layer_1
 62
1
100
AcDbPolyline
 90
2
 70
0
 10
157.969481
 20
168.395965
 30
0.0
 10
157.969481
 20
197.631319
 30
0.0
  0
LWPOLYLINE
  5
320
100
AcDbEntity
  8
Layer_1
 62
1
100
AcDbPolyline
 90
3
 70
0
 10
141.770916
 20
213.829882
 30
0.0
 10
74.444380
 20
213.829882
 30
0.0
 10
74.444380
 20
213.829882
 30
0.0
  0
ENDSEC
  0
SECTION
  2
OBJECTS
  0
DICTIONARY
  5
C
330
0
100
AcDbDictionary
  3
ACAD_GROUP
350
D
  3
ACAD_MLINESTYLE
350
17
  0
DICTIONARY
  5
D
330
C
100
AcDbDictionary
  0
DICTIONARY
  5
1A
330
C
100
AcDbDictionary
  0
DICTIONARY
  5
17
330
C
100
AcDbDictionary
  3
STANDARD
350
18
  0
DICTIONARY
  5
19
330
C
100
AcDbDictionary
  0
ENDSEC
  0
EOF
