<?xml version="1.0" encoding="UTF-8" standalone="no"?>
<!-- Created with Inkscape (http://www.inkscape.org/) -->

<svg
   xmlns:dc="http://purl.org/dc/elements/1.1/"
   xmlns:cc="http://creativecommons.org/ns#"
   xmlns:rdf="http://www.w3.org/1999/02/22-rdf-syntax-ns#"
   xmlns:svg="http://www.w3.org/2000/svg"
   xmlns="http://www.w3.org/2000/svg"
   xmlns:sodipodi="http://sodipodi.sourceforge.net/DTD/sodipodi-0.dtd"
   xmlns:inkscape="http://www.inkscape.org/namespaces/inkscape"
   width="210mm"
   height="297mm"
   viewBox="0 0 744.09448819 1052.3622047"
   id="svg2"
   version="1.1"
   inkscape:version="0.91 r13725"
   sodipodi:docname="igardening.svg">
  <defs
     id="defs4" />
  <sodipodi:namedview
     id="base"
     pagecolor="#ffffff"
     bordercolor="#666666"
     borderopacity="1.0"
     inkscape:pageopacity="0.0"
     inkscape:pageshadow="2"
     inkscape:zoom="0.98994949"
     inkscape:cx="365.37732"
     inkscape:cy="592.70854"
     inkscape:document-units="mm"
     inkscape:current-layer="layer1"
     showgrid="false"
     inkscape:window-width="1440"
     inkscape:window-height="838"
     inkscape:window-x="-8"
     inkscape:window-y="-8"
     inkscape:window-maximized="1" />
  <metadata
     id="metadata7">
    <rdf:RDF>
      <cc:Work
         rdf:about="">
        <dc:format>image/svg+xml</dc:format>
        <dc:type
           rdf:resource="http://purl.org/dc/dcmitype/StillImage" />
        <dc:title></dc:title>
      </cc:Work>
    </rdf:RDF>
  </metadata>
  <g
     inkscape:label="Layer 1"
     inkscape:groupmode="layer"
     id="layer1">
    <g
       id="g4142"
       transform="matrix(-0.06205619,0,0,0.06205619,503.63164,346.95144)">
      <path
         inkscape:connector-curvature="0"
         d="m 221.41016,450.4082 -0.0527,0.98242 c 0.70642,0.0344 1.27629,0.0955 1.70703,0.18165 0.43075,0.0861 0.75844,0.22257 0.98243,0.41211 0.24124,0.17229 0.39594,0.3962 0.46484,0.67187 0.0689,0.27568 0.10351,0.62164 0.10351,1.03516 l 0,17.28906 c 0,0.65473 -0.0427,1.18999 -0.1289,1.60351 -0.0862,0.39629 -0.25097,0.71387 -0.49219,0.95508 -0.22399,0.224 -0.54157,0.39698 -0.95508,0.51758 -0.41351,0.10341 -0.95694,0.18076 -1.6289,0.23242 l 0.0781,0.92969 0.87891,0 c 0.36182,-0.0172 0.74043,-0.0254 1.13672,-0.0254 l 1.31836,0 c 0.48243,-0.0172 0.89564,-0.0254 1.24023,-0.0254 0.41352,0 0.89591,0.008 1.44727,0.0254 l 1.52343,0 c 0.46521,0 0.89668,0.008 1.29297,0.0254 l 1.03321,0 0.0527,-0.98242 c -0.72365,-0.0344 -1.30168,-0.0935 -1.73242,-0.17969 -0.43075,-0.0861 -0.7666,-0.21637 -1.00781,-0.38867 -0.22402,-0.18953 -0.37056,-0.42159 -0.43946,-0.69727 -0.0689,-0.27567 -0.10351,-0.61968 -0.10351,-1.0332 l 0,-17.31641 c 0,-0.6375 0.0447,-1.15449 0.13086,-1.55078 0.0862,-0.41351 0.24901,-0.73304 0.49023,-0.95703 0.24121,-0.24121 0.5689,-0.41225 0.98242,-0.51562 0.41351,-0.12064 0.95499,-0.2081 1.62696,-0.25977 l -0.0762,-0.92969 c -0.24121,0 -0.54246,0.008 -0.90429,0.0254 l -1.11133,0 c -0.39629,0 -0.80133,0.0102 -1.21485,0.0274 l -1.37109,0 -1.47266,0 c -0.55135,-0.0172 -1.06019,-0.0274 -1.52539,-0.0274 l -1.26562,0 c -0.39629,-0.0172 -0.73213,-0.0254 -1.00781,-0.0254 z m 97.29687,1.81641 c -0.0215,-0.005 -0.0449,0.005 -0.0703,0.0312 -2.32651,2.42906 -5.31445,1.2694 -7.2793,2.86719 -1.47633,1.20103 -2.38133,3.42025 -2.08984,5.17187 0,0 -0.10844,0.20791 -1.52539,0.42383 -0.47772,0.0729 -0.27445,1.10327 0.125,1.05469 0,0 0.561,0.0208 1.69726,-0.33008 0,0 0.43709,0.52055 1.06055,0.80664 0.68823,0.31308 3.19669,0.90259 5.32617,-1.01367 2.77567,-2.50042 3.19259,-8.90739 2.75586,-9.01172 z m -38.81836,3.05273 c -0.11718,0.0391 -0.31901,0.0847 -0.60547,0.13672 -0.27344,0.0521 -0.67708,0.13672 -1.21093,0.25391 -0.53386,0.10417 -1.03516,0.20182 -1.50391,0.29297 -0.46875,0.0781 -0.94401,0.15625 -1.42578,0.23437 l 0.0586,0.58594 c 0.48177,0.0782 0.85937,0.14978 1.13281,0.21484 0.28646,0.0651 0.50131,0.16277 0.64454,0.29297 0.15624,0.11719 0.2539,0.28646 0.29296,0.50782 0.0391,0.20833 0.0586,0.49479 0.0586,0.85937 l 0,5.27344 c -0.3776,-0.0911 -0.76172,-0.14972 -1.15235,-0.17578 -0.39062,-0.0391 -0.67708,-0.0586 -0.85937,-0.0586 -0.84635,0 -1.67969,0.16276 -2.5,0.48828 -0.82031,0.32553 -1.54297,0.77475 -2.16797,1.34766 -0.61198,0.57292 -1.10026,1.25651 -1.46484,2.05078 -0.35156,0.78125 -0.52735,1.64063 -0.52735,2.57813 0,0.82031 0.13021,1.56901 0.39063,2.24609 0.26042,0.66406 0.61198,1.23047 1.05469,1.69922 0.45572,0.46875 0.98307,0.83333 1.58203,1.09375 0.59896,0.26041 1.28255,0.39062 2.05078,0.39062 0.46875,0 1.02213,-0.10416 1.66015,-0.3125 0.65104,-0.20833 1.29558,-0.57942 1.9336,-1.11328 l 0,1.17188 0.19531,0.15625 c 0.13021,-0.0391 0.33204,-0.0977 0.60547,-0.17578 0.28646,-0.0651 0.63802,-0.14323 1.05469,-0.23438 0.41666,-0.0912 0.88541,-0.16278 1.40625,-0.21484 0.52083,-0.0651 0.98958,-0.13018 1.40625,-0.19531 l -0.0781,-0.58594 c -0.46875,-0.0651 -0.84635,-0.12372 -1.13281,-0.17578 -0.27343,-0.0651 -0.48177,-0.15625 -0.625,-0.27344 -0.14322,-0.11719 -0.23437,-0.27995 -0.27344,-0.48828 -0.0391,-0.22136 -0.0586,-0.52083 -0.0586,-0.89844 l 0,-12.14844 c 0,-0.23437 0.007,-0.54687 0.0195,-0.9375 0.0131,-0.39062 0.0261,-0.80728 0.0391,-1.25 0.026,-0.4427 0.0521,-0.88542 0.0781,-1.32812 0.0391,-0.44271 0.0781,-0.82682 0.11718,-1.15235 l -0.19531,-0.15625 z m -41.38672,8.41797 c -0.74218,0 -1.40625,0.11718 -1.99218,0.35157 -0.58594,0.23437 -1.10678,0.55989 -1.5625,0.97656 -0.44271,0.41666 -0.80078,0.91146 -1.07422,1.48437 -0.26041,0.5599 -0.39063,1.16537 -0.39063,1.81641 0,1.75781 0.7422,3.0013 2.22656,3.73047 -0.18228,0.1302 -0.39062,0.26693 -0.625,0.41015 -0.22135,0.13022 -0.45572,0.30599 -0.70312,0.52735 -0.23438,0.20833 -0.42318,0.4362 -0.56641,0.68359 -0.1302,0.2474 -0.19531,0.52084 -0.19531,0.82031 0,0.4297 0.17579,0.80078 0.52734,1.11329 0.36459,0.32551 0.85938,0.58593 1.48438,0.78124 -0.33854,0.23438 -0.69011,0.48178 -1.05469,0.74219 -0.35157,0.26042 -0.66406,0.52084 -0.9375,0.78125 -0.27344,0.27344 -0.49479,0.5599 -0.66406,0.85938 -0.16927,0.3125 -0.25391,0.6901 -0.25391,1.13281 0,0.49479 0.14975,0.9375 0.44922,1.32813 0.3125,0.40364 0.71615,0.72265 1.21094,0.95703 0.50781,0.24739 1.06771,0.44271 1.67969,0.58593 0.625,0.15626 1.21744,0.23438 1.77734,0.23438 1.17187,0 2.20704,-0.15625 3.10547,-0.46875 0.91146,-0.29948 1.69271,-0.6836 2.34375,-1.15235 0.65104,-0.45573 1.15886,-1.01562 1.52344,-1.67968 0.36458,-0.65104 0.54687,-1.32161 0.54687,-2.01172 0,-0.63802 -0.1302,-1.17839 -0.39062,-1.6211 -0.26042,-0.44271 -0.60548,-0.78776 -1.03516,-1.03515 -0.41667,-0.26042 -0.88542,-0.43621 -1.40625,-0.52735 -0.52083,-0.10416 -1.04167,-0.15624 -1.5625,-0.15624 -0.57292,-10e-6 -1.13932,0.013 -1.69922,0.0391 -0.54687,0.013 -1.04818,0.0195 -1.5039,0.0195 -0.1823,0 -0.39063,-0.007 -0.625,-0.0195 -0.22136,-0.0131 -0.42969,-0.0456 -0.625,-0.0977 -0.1823,-0.0521 -0.33855,-0.13672 -0.46875,-0.2539 -0.11719,-0.13022 -0.17579,-0.29297 -0.17579,-0.48829 0,-0.24739 0.0846,-0.46223 0.25391,-0.64453 0.18228,-0.18228 0.42318,-0.33853 0.72266,-0.46875 0.57292,0.13022 1.08724,0.19531 1.54297,0.19531 0.66405,0 1.28906,-0.0976 1.875,-0.29296 0.59896,-0.20834 1.13932,-0.50781 1.62109,-0.89844 0.49479,-0.40365 0.89192,-0.89844 1.19141,-1.48438 0.31249,-0.58593 0.46875,-1.26301 0.46875,-2.03125 0,-0.78124 -0.26693,-1.51692 -0.80079,-2.20703 l 2.75391,0 0.11719,-1.21094 -0.13672,-0.15624 -2.98828,0.21484 c -0.0651,0 -0.16927,0.007 -0.3125,0.0195 -0.16927,0 -0.319,-0.013 -0.44922,-0.0391 -0.11718,-0.0391 -0.2474,-0.10418 -0.39063,-0.19531 -0.7552,-0.44272 -1.69921,-0.66407 -2.83203,-0.66407 z m 13.92578,0 c -0.84635,0 -1.70572,0.1888 -2.57812,0.56641 -0.33854,0.14323 -0.67057,0.3125 -0.99609,0.50781 -0.32552,0.19531 -0.625,0.40365 -0.89844,0.625 -0.26042,0.20833 -0.47526,0.42318 -0.64453,0.64453 -0.15625,0.22136 -0.23438,0.4362 -0.23438,0.64453 0,0.27344 0.13021,0.49479 0.39063,0.66407 0.27344,0.15624 0.55989,0.23437 0.85937,0.23437 0.45573,0 0.78776,-0.0846 0.9961,-0.25391 0,-0.3125 0.0391,-0.61197 0.11718,-0.89843 0.0911,-0.28646 0.22136,-0.54037 0.39063,-0.76172 0.18229,-0.22135 0.40364,-0.39714 0.66406,-0.52735 0.27343,-0.14323 0.55338,-0.21484 0.83984,-0.21484 0.52084,0 0.9375,0.22136 1.25,0.66406 0.32552,0.4297 0.48829,0.97657 0.48829,1.64063 l 0,1.34765 c 0,0.13021 -0.007,0.24089 -0.0195,0.33204 -0.96354,0.10416 -1.82942,0.2539 -2.59765,0.44922 -0.75521,0.18228 -1.36068,0.36458 -1.81641,0.54687 -0.625,0.26042 -1.13281,0.63151 -1.52344,1.11328 -0.3776,0.46875 -0.5664,1.03516 -0.5664,1.69922 0,0.39063 0.0651,0.76172 0.19531,1.11328 0.14323,0.33854 0.33854,0.64453 0.58594,0.91797 0.26042,0.26042 0.56641,0.46875 0.91797,0.625 0.35157,0.15625 0.78776,0.23438 1.30859,0.23438 0.36458,0 0.7487,-0.0716 1.15234,-0.21485 0.40365,-0.14323 0.73568,-0.27995 0.9961,-0.41015 0.26042,-0.14324 0.52735,-0.30599 0.80078,-0.48829 0.27344,-0.18228 0.47526,-0.31901 0.60547,-0.41015 0.13021,0.49479 0.38412,0.86589 0.76172,1.11328 0.39062,0.24739 0.90495,0.37109 1.54297,0.37109 0.4427,0 0.8789,-0.0912 1.30859,-0.27343 0.44271,-0.1823 0.8138,-0.41667 1.11328,-0.70313 l -0.35156,-0.60547 c -0.36458,0.22135 -0.70313,0.33203 -1.01563,0.33203 -0.31249,0 -0.55338,-0.14323 -0.72265,-0.42969 -0.16927,-0.28645 -0.25391,-0.68359 -0.25391,-1.1914 0,-1.19792 0.013,-2.30469 0.0391,-3.32031 0.0261,-1.02865 0.0391,-1.93359 0.0391,-2.71485 0,-0.52083 -0.0781,-0.97005 -0.23438,-1.34765 -0.15625,-0.37761 -0.37109,-0.6836 -0.64453,-0.91797 -0.27344,-0.2474 -0.59245,-0.42318 -0.95703,-0.52735 -0.36458,-0.11718 -0.80078,-0.17578 -1.3086,-0.17578 z m 10.3711,0 c -0.19531,0.0781 -0.44922,0.16276 -0.76172,0.25391 -0.29947,0.0911 -0.69661,0.1888 -1.19141,0.29297 -0.48177,0.10416 -0.91146,0.20182 -1.28906,0.29297 -0.37761,0.0781 -0.74219,0.14971 -1.09375,0.21484 l 0.0586,0.58594 c 0.41667,0.0651 0.74871,0.13018 0.9961,0.19531 0.2474,0.0651 0.42969,0.16276 0.54687,0.29297 0.13021,0.11719 0.21484,0.27995 0.25391,0.48828 0.0391,0.20833 0.0586,0.49479 0.0586,0.85938 l 0,4.98046 c 0,0.4948 -0.0261,0.89193 -0.0781,1.19141 -0.0391,0.28646 -0.13021,0.51433 -0.27344,0.68359 -0.13021,0.16928 -0.32552,0.29297 -0.58594,0.3711 -0.2474,0.0651 -0.58593,0.11718 -1.01562,0.15625 l 0.0586,0.66406 c 0.36458,0 0.78125,-0.007 1.25,-0.0195 0.46875,-0.013 1.09375,-0.0195 1.875,-0.0195 0.3125,0 0.64454,0.007 0.9961,0.0195 l 1.03515,0 c 0.33854,0 0.65104,0.007 0.9375,0.0195 l 0.76172,0 0.0391,-0.76172 c -0.57292,-0.0261 -1.02213,-0.0586 -1.34765,-0.0976 -0.32552,-0.0391 -0.57292,-0.11068 -0.74219,-0.21485 -0.16929,-0.10417 -0.27997,-0.24739 -0.33203,-0.42969 -0.0391,-0.1953 -0.0586,-0.44921 -0.0586,-0.76172 l 0,-4.66796 c 0,-0.1823 0.007,-0.32552 0.0195,-0.42969 0.013,-0.11719 0.0521,-0.24739 0.11718,-0.39063 0.22135,-0.49478 0.50782,-0.87239 0.85938,-1.13281 0.35157,-0.26041 0.67708,-0.39062 0.97656,-0.39062 0.29947,0 0.57291,0.0586 0.82031,0.17578 0.26042,0.10416 0.50781,0.26041 0.74219,0.46875 0.42969,-0.26042 0.77474,-0.5599 1.03516,-0.89844 0.26042,-0.33854 0.39062,-0.63802 0.39062,-0.89844 0,-0.39062 -0.14323,-0.67057 -0.42969,-0.83984 -0.28646,-0.16927 -0.59896,-0.25391 -0.9375,-0.25391 -0.23437,0 -0.47525,0.0391 -0.72265,0.11719 -0.23438,0.0651 -0.49479,0.19531 -0.78125,0.39062 -0.28646,0.18229 -0.60547,0.44271 -0.95703,0.78126 -0.33854,0.32551 -0.71615,0.74218 -1.13282,1.25 0,-0.39063 0.007,-0.78125 0.0195,-1.17188 0.013,-0.40365 0.0521,-0.80729 0.11718,-1.21094 l -0.23437,-0.15625 z m 25.91797,0 c -0.82032,0 -1.57553,0.16276 -2.26563,0.48828 -0.69011,0.3125 -1.30208,0.7487 -1.83594,1.3086 -0.52083,0.55989 -0.94401,1.21745 -1.26953,1.97265 -0.3125,0.7422 -0.46875,1.54949 -0.46875,2.42188 0,0.78125 0.13022,1.52343 0.39063,2.22656 0.27344,0.69011 0.65104,1.29557 1.13281,1.81641 0.49479,0.52083 1.08073,0.93099 1.75781,1.23047 0.67708,0.29948 1.46484,0.44922 2.36328,0.44922 0.2474,0 0.54036,-0.0325 0.87891,-0.0977 0.33854,-0.0651 0.70964,-0.18881 1.11328,-0.3711 0.40365,-0.18229 0.82683,-0.43619 1.26953,-0.76171 0.44271,-0.33855 0.89193,-0.79428 1.34766,-1.36719 l -0.60547,-0.60547 c -0.53386,0.53385 -1.04167,0.89192 -1.52344,1.07422 -0.48177,0.18229 -0.96354,0.27344 -1.44531,0.27344 -0.46875,0 -0.95703,-0.0912 -1.46484,-0.27344 -0.4948,-0.19531 -0.95052,-0.48828 -1.36719,-0.87891 -0.40364,-0.39062 -0.72916,-0.89843 -0.97656,-1.52344 -0.2344,-0.62499 -0.3581,-1.38671 -0.3711,-2.28515 l 7.2461,0 c 0.29945,0 0.48174,-0.17579 0.54687,-0.52735 l 0.0195,-0.27343 0,-0.27344 c 0,-0.61198 -0.11719,-1.16536 -0.35156,-1.66016 -0.23438,-0.49478 -0.54688,-0.91796 -0.9375,-1.26953 -0.39063,-0.35156 -0.85286,-0.61849 -1.38672,-0.80078 -0.52083,-0.19531 -1.11979,-0.29297 -1.79687,-0.29297 z m 10.17578,0 c -0.19531,0.0781 -0.46224,0.16276 -0.80078,0.25391 -0.33854,0.0911 -0.69662,0.1888 -1.07422,0.29297 -0.36458,0.0911 -0.76172,0.18229 -1.19141,0.27343 -0.42969,0.0911 -0.80728,0.16925 -1.13281,0.23438 l 0.0586,0.58594 c 0.39063,0.0651 0.70313,0.13018 0.9375,0.19531 0.2474,0.0651 0.42969,0.16276 0.54688,0.29297 0.1302,0.11719 0.21484,0.27995 0.2539,0.48828 0.0391,0.20833 0.0586,0.49479 0.0586,0.85938 l 0,4.98046 c 0,0.4948 -0.0261,0.89193 -0.0781,1.19141 -0.0391,0.28646 -0.13672,0.51433 -0.29297,0.68359 -0.14322,0.15626 -0.35156,0.27344 -0.625,0.35157 -0.26042,0.0781 -0.61198,0.13671 -1.05468,0.17578 l 0.0586,0.66406 c 0.36458,0 0.79427,-0.007 1.28906,-0.0195 0.50782,-0.013 1.06121,-0.0195 1.66016,-0.0195 0.80729,0 1.47135,0.007 1.99219,0.0195 0.52083,0.013 0.98958,0.0195 1.40625,0.0195 l 0.0586,-0.76172 c -0.42969,-0.0261 -0.77474,-0.0586 -1.03516,-0.0976 -0.24739,-0.0391 -0.43619,-0.11068 -0.5664,-0.21485 -0.1302,-0.10417 -0.21484,-0.24739 -0.25391,-0.42969 -0.0261,-0.1953 -0.0391,-0.44922 -0.0391,-0.76172 l 0,-6.48437 c 0.48177,-0.36458 0.95703,-0.64453 1.42578,-0.83984 0.46875,-0.20834 0.98958,-0.3125 1.5625,-0.3125 0.63802,0 1.15885,0.23437 1.5625,0.70312 0.40364,0.45573 0.60547,1.20443 0.60547,2.24609 l 0,4.00391 c 0,0.49479 -0.0195,0.88542 -0.0586,1.17188 -0.0391,0.27343 -0.1237,0.48827 -0.25391,0.64453 -0.13021,0.1432 -0.31901,0.24736 -0.56641,0.3125 -0.2474,0.0651 -0.57292,0.11718 -0.97656,0.15625 l 0.0586,0.66406 c 0.36458,0 0.77474,-0.007 1.23047,-0.0195 0.46875,-0.013 1.04818,-0.0195 1.73828,-0.0195 0.71615,0 1.32162,0.007 1.81641,0.0195 0.50781,0.013 0.97005,0.0195 1.38672,0.0195 l 0.0391,-0.76172 c -0.41666,-0.0261 -0.74869,-0.0586 -0.99609,-0.0976 -0.2474,-0.0391 -0.4362,-0.11068 -0.56641,-0.21485 -0.11718,-0.10417 -0.19531,-0.24739 -0.23437,-0.42969 -0.0391,-0.1953 -0.0586,-0.44921 -0.0586,-0.76172 l 0,-5.2539 c 0,-0.71615 -0.0911,-1.32161 -0.27343,-1.81641 -0.16928,-0.50781 -0.41667,-0.92448 -0.74219,-1.25 -0.3125,-0.32552 -0.6836,-0.5599 -1.11328,-0.70312 -0.41667,-0.15626 -0.8724,-0.23438 -1.36719,-0.23438 -0.71614,0 -1.4388,0.15625 -2.16797,0.46875 -0.71615,0.3125 -1.39973,0.7487 -2.05078,1.3086 0,-0.27344 0.013,-0.54037 0.0391,-0.80078 0.026,-0.27344 0.0586,-0.54688 0.0977,-0.82032 l -0.3125,-0.15625 z m 15.33203,0 c -0.14323,0.0651 -0.35807,0.13672 -0.64453,0.21485 -0.27344,0.0781 -0.65755,0.16276 -1.15235,0.2539 -0.49479,0.0911 -0.95052,0.18229 -1.36718,0.27344 l -1.21094,0.23438 0.0586,0.60546 c 0.39063,0.0651 0.70313,0.13018 0.9375,0.19532 0.2474,0.0651 0.42969,0.15625 0.54688,0.27343 0.1302,0.1172 0.21484,0.27995 0.2539,0.48829 0.0391,0.20833 0.0586,0.49479 0.0586,0.85937 l 0,5.05859 c 0,0.4948 -0.0261,0.89193 -0.0781,1.19141 -0.0391,0.28646 -0.13021,0.51433 -0.27343,0.68359 -0.14323,0.16928 -0.34505,0.29297 -0.60547,0.3711 -0.2474,0.0651 -0.58594,0.11718 -1.01563,0.15625 l 0.0391,0.66406 c 0.36458,0 0.78776,-0.007 1.26954,-0.0195 0.48177,-0.013 1.04166,-0.0195 1.67968,-0.0195 0.76823,0 1.44531,0.007 2.03125,0.0195 0.58594,0.013 1.08724,0.0195 1.50391,0.0195 l 0.0391,-0.76172 c -0.48177,-0.0261 -0.85937,-0.0586 -1.13281,-0.0976 -0.27343,-0.0391 -0.48177,-0.11068 -0.625,-0.21485 -0.1302,-0.10417 -0.21484,-0.24739 -0.25391,-0.42969 -0.0391,-0.1953 -0.0586,-0.44921 -0.0586,-0.76172 l 0,-5.09765 0,-0.82031 c 0.0131,-0.32552 0.0261,-0.66406 0.0391,-1.01563 0.013,-0.36458 0.0325,-0.73567 0.0586,-1.11328 0.0261,-0.37761 0.0586,-0.72917 0.0976,-1.05469 l -0.19531,-0.15625 z m 7.24609,0 c -0.19531,0.0781 -0.46224,0.16276 -0.80078,0.25391 -0.33854,0.0911 -0.69662,0.1888 -1.07422,0.29297 -0.36458,0.0911 -0.76172,0.18229 -1.1914,0.27343 -0.42969,0.0911 -0.8073,0.16925 -1.13282,0.23438 l 0.0586,0.58594 c 0.39063,0.0651 0.70313,0.13018 0.9375,0.19531 0.2474,0.0651 0.42969,0.16276 0.54687,0.29297 0.1302,0.11719 0.21484,0.27995 0.25391,0.48828 0.0391,0.20833 0.0586,0.49479 0.0586,0.85938 l 0,4.98046 c 0,0.4948 -0.0261,0.89193 -0.0781,1.19141 -0.0391,0.28646 -0.13672,0.51433 -0.29297,0.68359 -0.14323,0.15626 -0.35156,0.27344 -0.625,0.35157 -0.26041,0.0781 -0.61198,0.13671 -1.05469,0.17578 l 0.0586,0.66406 c 0.36458,0 0.79427,-0.007 1.28906,-0.0195 0.50781,-0.013 1.06119,-0.0195 1.66015,-0.0195 0.8073,0 1.47136,0.007 1.99219,0.0195 0.52084,0.013 0.98959,0.0195 1.40625,0.0195 l 0.0586,-0.76172 c -0.42969,-0.0261 -0.77474,-0.0586 -1.03516,-0.0976 -0.24739,-0.0391 -0.4362,-0.11068 -0.56641,-0.21485 -0.1302,-0.10417 -0.21484,-0.24739 -0.2539,-0.42969 -0.0261,-0.1953 -0.0391,-0.44922 -0.0391,-0.76172 l 0,-6.48437 c 0.48178,-0.36458 0.95704,-0.64453 1.42579,-0.83984 0.46875,-0.20834 0.98958,-0.3125 1.5625,-0.3125 0.63802,0 1.15885,0.23437 1.5625,0.70312 0.40364,0.45573 0.60546,1.20443 0.60546,2.24609 l 0,4.00391 c 0,0.49479 -0.0195,0.88542 -0.0586,1.17188 -0.0391,0.27343 -0.1237,0.48827 -0.25391,0.64453 -0.1302,0.1432 -0.319,0.24736 -0.5664,0.3125 -0.2474,0.0651 -0.57292,0.11718 -0.97656,0.15625 l 0.0586,0.66406 c 0.36459,0 0.77474,-0.007 1.23047,-0.0195 0.46875,-0.013 1.04818,-0.0195 1.73828,-0.0195 0.71615,0 1.32161,0.007 1.81641,0.0195 0.50781,0.013 0.97005,0.0195 1.38671,0.0195 l 0.0391,-0.76172 c -0.41667,-0.0261 -0.7487,-0.0586 -0.9961,-0.0976 -0.2474,-0.0391 -0.4362,-0.11068 -0.5664,-0.21485 -0.11718,-0.10417 -0.19531,-0.24739 -0.23438,-0.42969 -0.0391,-0.1953 -0.0586,-0.44921 -0.0586,-0.76172 l 0,-5.2539 c 0,-0.71615 -0.0912,-1.32161 -0.27344,-1.81641 -0.16927,-0.50781 -0.41667,-0.92448 -0.74219,-1.25 -0.3125,-0.32552 -0.68359,-0.5599 -1.11328,-0.70312 -0.41666,-0.15626 -0.87239,-0.23438 -1.36719,-0.23438 -0.71614,0 -1.4388,0.15625 -2.16796,0.46875 -0.71615,0.3125 -1.39975,0.7487 -2.05079,1.3086 0,-0.27344 0.013,-0.54037 0.0391,-0.80078 0.0261,-0.27344 0.0586,-0.54688 0.0977,-0.82032 l -0.3125,-0.15625 z m 16.40625,0 c -0.74218,0 -1.40624,0.11718 -1.99218,0.35157 -0.58594,0.23437 -1.10678,0.55989 -1.5625,0.97656 -0.44271,0.41666 -0.80078,0.91146 -1.07422,1.48437 -0.26042,0.5599 -0.39063,1.16537 -0.39063,1.81641 0,1.75781 0.74219,3.0013 2.22656,3.73047 -0.18229,0.1302 -0.39062,0.26693 -0.625,0.41015 -0.22135,0.13022 -0.45572,0.30599 -0.70312,0.52735 -0.23437,0.20833 -0.42318,0.4362 -0.56641,0.68359 -0.1302,0.2474 -0.19531,0.52084 -0.19531,0.82031 0,0.4297 0.17578,0.80078 0.52734,1.11329 0.36458,0.32551 0.85938,0.58593 1.48438,0.78124 -0.33854,0.23438 -0.69011,0.48178 -1.05469,0.74219 -0.35156,0.26042 -0.66406,0.52084 -0.9375,0.78125 -0.27344,0.27344 -0.49479,0.5599 -0.66406,0.85938 -0.16927,0.3125 -0.25391,0.6901 -0.25391,1.13281 0,0.49479 0.14974,0.9375 0.44922,1.32813 0.3125,0.40364 0.71615,0.72265 1.21094,0.95703 0.50781,0.24739 1.06771,0.44271 1.67969,0.58593 0.625,0.15626 1.21744,0.23438 1.77734,0.23438 1.17187,0 2.20704,-0.15625 3.10547,-0.46875 0.91146,-0.29948 1.69271,-0.6836 2.34375,-1.15235 0.65105,-0.45573 1.15886,-1.01562 1.52344,-1.67968 0.36458,-0.65104 0.54687,-1.32161 0.54687,-2.01172 0,-0.63802 -0.1302,-1.17839 -0.39062,-1.6211 -0.26042,-0.44271 -0.60547,-0.78776 -1.03516,-1.03515 -0.41667,-0.26042 -0.88542,-0.43621 -1.40625,-0.52735 -0.52083,-0.10416 -1.04167,-0.15624 -1.5625,-0.15624 -0.57292,-10e-6 -1.13932,0.013 -1.69922,0.0391 -0.54688,0.013 -1.04818,0.0195 -1.5039,0.0195 -0.1823,0 -0.39063,-0.007 -0.625,-0.0195 -0.22136,-0.0131 -0.42969,-0.0456 -0.625,-0.0977 -0.1823,-0.0521 -0.33855,-0.13672 -0.46875,-0.2539 -0.11719,-0.13022 -0.17579,-0.29297 -0.17579,-0.48829 0,-0.24739 0.0846,-0.46223 0.25391,-0.64453 0.18229,-0.18228 0.42318,-0.33853 0.72266,-0.46875 0.57292,0.13022 1.08724,0.19531 1.54297,0.19531 0.66406,0 1.28906,-0.0976 1.875,-0.29296 0.59896,-0.20834 1.13932,-0.50781 1.62109,-0.89844 0.49479,-0.40365 0.89193,-0.89844 1.19141,-1.48438 0.3125,-0.58593 0.46875,-1.26301 0.46875,-2.03125 0,-0.78124 -0.26693,-1.51692 -0.80079,-2.20703 l 2.75391,0 0.11719,-1.21094 -0.13672,-0.15624 -2.98828,0.21484 c -0.0651,0 -0.16927,0.007 -0.3125,0.0195 -0.16927,0 -0.31901,-0.013 -0.44922,-0.0391 -0.11719,-0.0391 -0.2474,-0.10418 -0.39063,-0.19531 -0.7552,-0.44272 -1.69921,-0.66407 -2.83203,-0.66407 z m -99.55078,0.89844 c 0.42969,0 0.80729,0.11719 1.13281,0.35156 0.33854,0.23438 0.60547,0.53386 0.80079,0.89844 0.20833,0.36459 0.35807,0.78776 0.44921,1.26953 0.10417,0.46875 0.15625,0.9375 0.15625,1.40625 0,0.37761 -0.0391,0.75521 -0.11718,1.13281 -0.0781,0.37761 -0.20834,0.72266 -0.39063,1.03516 -0.18229,0.3125 -0.42317,0.56641 -0.72265,0.76172 -0.29949,0.19531 -0.61198,0.29297 -0.9375,0.29297 -0.40365,0 -0.78126,-0.1237 -1.13282,-0.3711 -0.33854,-0.24739 -0.61197,-0.55989 -0.82031,-0.9375 -0.19531,-0.3776 -0.34505,-0.80077 -0.44922,-1.26953 -0.0911,-0.46874 -0.13672,-0.92448 -0.13672,-1.36718 0,-0.39063 0.0391,-0.77474 0.11719,-1.15235 0.0911,-0.39063 0.21484,-0.73568 0.37109,-1.03515 0.16928,-0.29949 0.40366,-0.54037 0.70313,-0.72266 0.29948,-0.19531 0.62499,-0.29297 0.97656,-0.29297 z m 99.375,0 c 0.42969,0 0.80729,0.11719 1.13281,0.35156 0.33854,0.23438 0.60547,0.53386 0.80079,0.89844 0.20833,0.36459 0.35807,0.78776 0.44921,1.26953 0.10417,0.46875 0.15625,0.9375 0.15625,1.40625 0,0.37761 -0.0391,0.75521 -0.11718,1.13281 -0.0781,0.37761 -0.20834,0.72266 -0.39063,1.03516 -0.18229,0.3125 -0.42317,0.56641 -0.72265,0.76172 -0.29948,0.19531 -0.61198,0.29297 -0.9375,0.29297 -0.40365,0 -0.78126,-0.1237 -1.13282,-0.3711 -0.33854,-0.24739 -0.61198,-0.55989 -0.82031,-0.9375 -0.19531,-0.3776 -0.34505,-0.80077 -0.44922,-1.26953 -0.0911,-0.46874 -0.13672,-0.92448 -0.13672,-1.36718 0,-0.39063 0.0391,-0.77474 0.11719,-1.15235 0.0911,-0.39063 0.21484,-0.73568 0.37109,-1.03515 0.16928,-0.29949 0.40366,-0.54037 0.70313,-0.72266 0.29948,-0.19531 0.625,-0.29297 0.97656,-0.29297 z m -62.87109,0.19531 c 0.45573,0 0.89844,0.0977 1.32812,0.29297 0.42969,0.19531 0.82032,0.49479 1.17188,0.89844 l 0,7.1875 c -0.32552,0.27344 -0.70964,0.47526 -1.15235,0.60547 -0.42968,0.1302 -0.82682,0.19531 -1.1914,0.19531 -0.49479,0 -0.97656,-0.13021 -1.44531,-0.39063 -0.46875,-0.26041 -0.85287,-0.60546 -1.15235,-1.03515 -0.29948,-0.42969 -0.53385,-0.92448 -0.70312,-1.48438 -0.15625,-0.57291 -0.23438,-1.13932 -0.23438,-1.69921 0,-0.54688 0.0716,-1.10027 0.21485,-1.66016 0.15625,-0.55989 0.38412,-1.05468 0.68359,-1.48438 0.29948,-0.42968 0.66406,-0.77474 1.09375,-1.03515 0.42969,-0.26042 0.89193,-0.39063 1.38672,-0.39063 z m 13.30078,0 c 0.35157,0 0.66407,0.0651 0.9375,0.19532 0.28646,0.1302 0.53385,0.30599 0.74219,0.52734 0.22135,0.22135 0.38411,0.48177 0.48828,0.78125 0.10416,0.29948 0.15625,0.625 0.15625,0.97656 0,0.23437 -0.0391,0.40365 -0.11719,0.50781 -0.0781,0.0912 -0.24739,0.13672 -0.50781,0.13672 l -4.375,0 c 0.0651,-0.50781 0.18229,-0.95052 0.35156,-1.32812 0.18229,-0.39063 0.39062,-0.71615 0.625,-0.97656 0.24739,-0.26042 0.52083,-0.46225 0.82031,-0.60547 0.29948,-0.14324 0.59246,-0.21485 0.87891,-0.21485 z m -35.07813,5 c 0,0.54688 -0.007,1.10027 -0.0195,1.66016 -0.013,0.55989 -0.0195,1.11328 -0.0195,1.66016 -0.3776,0.3125 -0.7487,0.54036 -1.11328,0.68359 -0.36459,0.14323 -0.7552,0.21484 -1.17187,0.21484 -0.40365,0 -0.7487,-0.17578 -1.03516,-0.52734 -0.27343,-0.35156 -0.41016,-0.80078 -0.41016,-1.34766 0,-0.45572 0.16276,-0.82682 0.48828,-1.11328 0.20834,-0.19531 0.43621,-0.35807 0.6836,-0.48828 0.26042,-0.14323 0.53385,-0.26042 0.82031,-0.35156 0.29948,-0.0911 0.57943,-0.16924 0.83984,-0.23438 0.27344,-0.0651 0.58595,-0.11718 0.9375,-0.15625 z m -15.09765,6.83594 1.07422,0 0.19531,0 c 0.46875,0 0.93099,0.013 1.38672,0.0391 0.45573,0.0391 0.8724,0.14324 1.25,0.3125 0.44271,0.1823 0.78125,0.45573 1.01562,0.82032 0.23437,0.36458 0.35157,0.70963 0.35157,1.03515 0,0.41667 -0.1172,0.80729 -0.35157,1.17188 -0.22135,0.36458 -0.52734,0.65104 -0.91797,0.85937 -0.39062,0.20833 -0.84635,0.3711 -1.36718,0.48828 -0.52084,0.13022 -1.00912,0.19532 -1.46485,0.19532 -0.33854,0 -0.7552,-0.0261 -1.25,-0.0781 -0.49479,-0.0391 -0.96354,-0.15625 -1.40625,-0.35156 -0.42968,-0.19532 -0.76171,-0.45573 -0.99609,-0.78125 -0.22135,-0.32552 -0.33203,-0.66406 -0.33203,-1.01563 0,-0.45572 0.0976,-0.83984 0.29297,-1.15234 0.19531,-0.3125 0.49479,-0.63802 0.89843,-0.97656 0.15625,-0.13022 0.30599,-0.23438 0.44922,-0.3125 0.14323,-0.0781 0.30599,-0.13672 0.48828,-0.17579 0.1823,-0.0391 0.41016,-0.0651 0.6836,-0.0781 z m 99.375,0 1.07422,0 0.19531,0 c 0.46875,0 0.93099,0.013 1.38672,0.0391 0.45573,0.0391 0.8724,0.14324 1.25,0.3125 0.44271,0.1823 0.78125,0.45573 1.01562,0.82032 0.23438,0.36458 0.35157,0.70963 0.35157,1.03515 0,0.41667 -0.11719,0.80729 -0.35157,1.17188 -0.22135,0.36458 -0.52734,0.65104 -0.91797,0.85937 -0.39062,0.20833 -0.84635,0.3711 -1.36718,0.48828 -0.52084,0.13022 -1.00912,0.19532 -1.46485,0.19532 -0.33854,0 -0.7552,-0.0261 -1.25,-0.0781 -0.49479,-0.0391 -0.96354,-0.15625 -1.40625,-0.35156 -0.42968,-0.19532 -0.76171,-0.45573 -0.99609,-0.78125 -0.22135,-0.32552 -0.33203,-0.66406 -0.33203,-1.01563 0,-0.45572 0.0976,-0.83984 0.29297,-1.15234 0.19531,-0.3125 0.49479,-0.63802 0.89843,-0.97656 0.15625,-0.13022 0.30599,-0.23438 0.44922,-0.3125 0.14323,-0.0781 0.30599,-0.13672 0.48828,-0.17579 0.1823,-0.0391 0.41016,-0.0651 0.6836,-0.0781 z"
         transform="matrix(-37.051295,0,0,37.051295,12434.789,-16374.697)"
         id="path4156"
         style="fill:none;stroke:#ff0000;stroke-width:0.35433072;stroke-miterlimit:4;stroke-dasharray:none" />
    </g>
    <path
       style="fill:none;stroke:#ff0000;stroke-width:0.98207128;stroke-linejoin:round;stroke-miterlimit:4;stroke-dasharray:none"
       d="M 263.7793 294.69727 C 231.98242 294.69727 206.38477 320.29687 206.38477 352.09375 L 206.38477 455.68359 C 206.38477 487.48047 231.98242 513.08008 263.7793 513.08008 L 502.33789 513.08008 C 534.13477 513.08008 559.73438 487.48047 559.73438 455.68359 L 559.73438 352.09375 C 559.73438 320.29687 534.13477 294.69727 502.33789 294.69727 L 263.7793 294.69727 z "
       id="rect4227" />
  </g>
</svg>
