<?xml version="1.0" encoding="UTF-8" standalone="no"?>
<!-- Created with Inkscape (http://www.inkscape.org/) -->

<svg
   xmlns:dc="http://purl.org/dc/elements/1.1/"
   xmlns:cc="http://creativecommons.org/ns#"
   xmlns:rdf="http://www.w3.org/1999/02/22-rdf-syntax-ns#"
   xmlns:svg="http://www.w3.org/2000/svg"
   xmlns="http://www.w3.org/2000/svg"
   xmlns:sodipodi="http://sodipodi.sourceforge.net/DTD/sodipodi-0.dtd"
   xmlns:inkscape="http://www.inkscape.org/namespaces/inkscape"
   id="svg4493"
   version="1.1"
   inkscape:version="0.91 r13725"
   width="400"
   height="240"
   viewBox="0 0 400 240"
   sodipodi:docname="arrk_logo.svg">
  <sodipodi:namedview
     pagecolor="#ffffff"
     bordercolor="#666666"
     borderopacity="1"
     objecttolerance="10"
     gridtolerance="10"
     guidetolerance="10"
     inkscape:pageopacity="0"
     inkscape:pageshadow="2"
     inkscape:window-width="1360"
     inkscape:window-height="746"
     id="namedview4495"
     showgrid="false"
     inkscape:zoom="1.525"
     inkscape:cx="158.52549"
     inkscape:cy="148.62505"
     inkscape:window-x="1432"
     inkscape:window-y="-8"
     inkscape:window-maximized="1"
     inkscape:current-layer="svg4493" />
  <metadata
     id="metadata4499">
    <rdf:RDF>
      <cc:Work
         rdf:about="">
        <dc:format>image/svg+xml</dc:format>
        <dc:type
           rdf:resource="http://purl.org/dc/dcmitype/StillImage" />
        <dc:title></dc:title>
      </cc:Work>
    </rdf:RDF>
  </metadata>
  <defs
     id="defs4497" />
  <path
     inkscape:connector-curvature="0"
     id="path5055"
     d="M127.03125 74.896401L126.001005625 75.6412159531L124.0719425 77.815376125L116.18164 87.810464L102.62695 105.36906L73.982421 142.36124L66.076171 152.89054L69.53128075 153.1664725L77.83789 153.28117L89.599609 153.28117L101.76953 137.20304L114.35742 121.11906L115.16724375 125.22292625L116.53125 135.09367L118.70117 151.1757L119.11133 153.28117L128.20508 153.28117L137.29883 152.95109L127.69141 76.097573L127.469495 75.17436025L127.03125 74.896401L127.03125 74.896401M312.83399 92.781167L306.02539 101.3964L294.77936875 115.7726425L293.108130156 118.169393437L292.76953 119.11124L297.74805 136.3964L302.72266 153.05265L302.72266 153.05465L312.6543 153.28122L320.40399875 153.07768L321.935107031 152.783072813L322.26172 152.32418L315.7941175 131.42991L313.299472187 122.472819688L312.45703 118.50778L322.38477 105.6738L331.82422 93.228483L329.034635 92.91229925L322.32813 92.781217L312.83399 92.781217L312.83399 92.781167M280.17969 93.16398L275.30274 108.48039L261.36719 152.98624L270.73633 153.1132L280.10352 152.89835L285.74219 134.90226L298.24414 94.312417L298.03890125 93.7229453906L296.7868725 93.373728875L289.3457 93.16398L280.17969 93.16398L280.17969 93.16398M219.39258 93.47062L218.21289 97.146401L209.30078 124.94523L200.86524 151.19913L200.16211 153.32609L209.8711 153.1132L219.58008 152.89835L226.9668 130.30656L234.35156 107.71476L239.05078 107.48625L241.619125156 107.4254575L243.30517875 107.624885L244.538837969 108.1983525L245.75 109.25968L246.726772187 110.359487344L247.2670125 111.34692875L247.432046563 112.400608281L247.2832 113.69913L246.33326125 115.9265025L244.70899 117.85734L243.419472187 118.73138L241.94183 119.2555825L236.96094 119.57999L232.14961375 119.819305L231.623654531 120.334240625L231.75977 121.30851L236.25195 138.15226L240.30664 153.27335L249.6875 153.27735L257.00216875 153.0700425L258.579147031 152.7752175L259.05078 152.32422L256.00977 140.68555L253.1582 129.86719L256.5586 128.09961L259.43424127 126.440334043L261.901768281 124.568734844L263.96076584 122.48551916L265.61081875 120.19139375L266.851511816 117.687065371L267.682429844 114.973240781L268.103157637 112.050626738L268.11328 108.91993L267.415202188 104.448719484L265.879125 100.822417625L263.450360313 97.9509264531L260.07422 95.744148L257.607524844 94.7239465937L254.28882875 94.15356425L237.89063 93.699226L219.39258 93.47071L219.39258 93.47062M158.32031 93.47262L153.92188 107.10348L144.28516 136.97262L140.3211925 150.0027225L139.848899688 152.612893125L139.923442773 153.210049688L140.17969 153.43746L149.83984 153.41596L158.36133 153.16791L165.7793 130.44135L173.19727 107.71479L177.69531 107.49018L181.714815 107.62871L183.037906875 108.0898275L184.25391 108.88666L185.835834531 110.734964375L186.33183125 112.848285L185.744432344 115.095540625L184.07617 117.34565L182.700131406 118.573325156L181.29672625 119.24588875L179.272300469 119.528390469L176.0332 119.58588L171.947395 119.7545275L170.27149 120.1601L174.72852 136.81635L179.14649 152.89838L188.75781 153.11323L198.36914 153.32612L195.07617 141.63471L191.91992 129.83393L195.95508 127.76752L198.518373086 126.286880059L200.749241563 124.588423594L202.644804258 122.676730645L204.20218 120.55638125L205.418487617 118.231955449L206.290845938 115.708033281L206.816373789 112.989194785L206.99219 110.08002L206.56474875 105.601992344L205.2512725 101.86196225L203.0050325 98.7700240312L199.7793 96.236272L196.01172 93.929631L177.16602 93.701116L158.32031 93.4726L158.32031 93.47262"
     style="fill:#000000" />
  <path
     id="rect5045"
     d="M31.375 8.6386719L31.375 219.77344L366.52539 219.77344L366.52539 8.6386719L31.375 8.6386719L31.375 8.6386719"
     style="fill:none;stroke:#ff0000;stroke-width:1.46437204;stroke-linejoin:round;stroke-miterlimit:4;stroke-dasharray:none" />
</svg>
