  0
SECTION
  2
HEADER
  9
$ACADVER
  1
AC1014
  9
$HANDSEED
  5
FFFF
  9
$MEASUREMENT
 70
     1
  0
ENDSEC
  0
SECTION
  2
TABLES
  0
TABLE
  2
VPORT
  5
8
330
0
100
AcDbSymbolTable
 70
     4
  0
VPORT
  5
2E
330
8
100
AcDbSymbolTableRecord
100
AcDbViewportTableRecord
  2
*ACTIVE
 70
     0
 10
0.0
 20
0.0
 11
1.0
 21
1.0
 12
210.0
 22
148.5
 13
0.0
 23
0.0
 14
10.0
 24
10.0
 15
10.0
 25
10.0
 16
0.0
 26
0.0
 36
1.0
 17
0.0
 27
0.0
 37
0.0
 40
341.0
 41
1.24
 42
50.0
 43
0.0
 44
0.0
 50
0.0
 51
0.0
 71
     0
 72
   100
 73
     1
 74
     3
 75
     0
 76
     0
 77
     0
 78
     0
  0
ENDTAB
  0
TABLE
  2
LTYPE
  5
5
330
0
100
AcDbSymbolTable
 70
     1
  0
LTYPE
  5
14
330
5
100
AcDbSymbolTableRecord
100
AcDbLinetypeTableRecord
  2
BYBLOCK
 70
     0
  3

 72
    65
 73
     0
 40
0.0
  0
LTYPE
  5
15
330
5
100
AcDbSymbolTableRecord
100
AcDbLinetypeTableRecord
  2
BYLAYER
 70
     0
  3

 72
    65
 73
     0
 40
0.0
  0
LTYPE
  5
16
330
5
100
AcDbSymbolTableRecord
100
AcDbLinetypeTableRecord
  2
CONTINUOUS
 70
     0
  3
Solid line
 72
    65
 73
     0
 40
0.0
  0
ENDTAB
  0
TABLE
  2
LAYER
  5
2
100
AcDbSymbolTable
 70
1
  0
LAYER
  5
50
100
AcDbSymbolTableRecord
100
AcDbLayerTableRecord
  2
0
 70
0
  6
CONTINUOUS
  0
ENDTAB
  0
TABLE
  2
STYLE
  5
3
330
0
100
AcDbSymbolTable
 70
     1
  0
STYLE
  5
11
330
3
100
AcDbSymbolTableRecord
100
AcDbTextStyleTableRecord
  2
STANDARD
 70
     0
 40
0.0
 41
1.0
 50
0.0
 71
     0
 42
2.5
  3
txt
  4

  0
ENDTAB
  0
TABLE
  2
VIEW
  5
6
330
0
100
AcDbSymbolTable
 70
     0
  0
ENDTAB
  0
TABLE
  2
UCS
  5
7
330
0
100
AcDbSymbolTable
 70
     0
  0
ENDTAB
  0
TABLE
  2
APPID
  5
9
330
0
100
AcDbSymbolTable
 70
     2
  0
APPID
  5
12
330
9
100
AcDbSymbolTableRecord
100
AcDbRegAppTableRecord
  2
ACAD
 70
     0
  0
ENDTAB
  0
TABLE
  2
DIMSTYLE
  5
A
330
0
100
AcDbSymbolTable
 70
     1
  0
DIMSTYLE
105
27
330
A
100
AcDbSymbolTableRecord
100
AcDbDimStyleTableRecord
  2
ISO-25
 70
     0
  3

  4

  5

  6

  7

 40
1.0
 41
2.5
 42
0.625
 43
3.75
 44
1.25
 45
0.0
 46
0.0
 47
0.0
 48
0.0
140
2.5
141
2.5
142
0.0
143
0.03937007874016
144
1.0
145
0.0
146
1.0
147
0.625
 71
     0
 72
     0
 73
     0
 74
     0
 75
     0
 76
     0
 77
     1
 78
     8
170
     0
171
     3
172
     1
173
     0
174
     0
175
     0
176
     0
177
     0
178
     0
270
     2
271
     2
272
     2
273
     2
274
     3
340
11
275
     0
280
     0
281
     0
282
     0
283
     0
284
     8
285
     0
286
     0
287
     3
288
     0
  0
ENDTAB
  0
TABLE
  2
BLOCK_RECORD
  5
1
330
0
100
AcDbSymbolTable
 70
     1
  0
BLOCK_RECORD
  5
1F
330
1
100
AcDbSymbolTableRecord
100
AcDbBlockTableRecord
  2
*MODEL_SPACE
  0
BLOCK_RECORD
  5
1B
330
1
100
AcDbSymbolTableRecord
100
AcDbBlockTableRecord
  2
*PAPER_SPACE
  0
ENDTAB
  0
ENDSEC
  0
SECTION
  2
BLOCKS
  0
BLOCK
  5
20
330
1F
100
AcDbEntity
  8
0
100
AcDbBlockBegin
  2
*MODEL_SPACE
 70
     0
 10
0.0
 20
0.0
 30
0.0
  3
*MODEL_SPACE
  1

  0
ENDBLK
  5
21
330
1F
100
AcDbEntity
  8
0
100
AcDbBlockEnd
  0
BLOCK
  5
1C
330
1B
100
AcDbEntity
 67
     1
  8
0
100
AcDbBlockBegin
  2
*PAPER_SPACE
  1

  0
ENDBLK
  5
1D
330
1B
100
AcDbEntity
 67
     1
  8
0
100
AcDbBlockEnd
  0
ENDSEC
  0
SECTION
  2
ENTITIES
  0
LWPOLYLINE
  5
100
100
AcDbEntity
  8
0
 62
7
100
AcDbPolyline
 90
22
 70
0
 10
35.851042
 20
46.595905
 30
0.0
 10
35.560284
 20
46.385701
 30
0.0
 10
35.015859
 20
45.772105
 30
0.0
 10
32.789041
 20
42.951269
 30
0.0
 10
28.963606
 20
37.995843
 30
0.0
 10
20.879483
 20
27.555828
 30
0.0
 10
18.648164
 20
24.584225
 30
0.0
 10
19.623273
 20
24.506351
 30
0.0
 10
21.967582
 20
24.473981
 30
0.0
 10
25.287001
 20
24.473981
 30
0.0
 10
28.721623
 20
29.011586
 30
0.0
 10
32.274205
 20
33.550843
 30
0.0
 10
32.502755
 20
32.392641
 30
0.0
 10
32.887708
 20
29.606898
 30
0.0
 10
33.500108
 20
25.068191
 30
0.0
 10
33.615864
 20
24.473981
 30
0.0
 10
36.182323
 20
24.473981
 30
0.0
 10
38.748781
 20
24.567137
 30
0.0
 10
36.037353
 20
46.256907
 30
0.0
 10
35.974724
 20
46.517458
 30
0.0
 10
35.851042
 20
46.595905
 30
0.0
 10
35.851042
 20
46.595905
 30
0.0
  0
LWPOLYLINE
  5
101
100
AcDbEntity
  8
0
 62
7
100
AcDbPolyline
 90
21
 70
0
 10
88.288704
 20
41.548426
 30
0.0
 10
86.367166
 20
39.117016
 30
0.0
 10
83.193289
 20
35.059721
 30
0.0
 10
82.721628
 20
34.383305
 30
0.0
 10
82.626067
 20
34.117494
 30
0.0
 10
84.031116
 20
29.239238
 30
0.0
 10
85.435062
 20
24.538474
 30
0.0
 10
85.435062
 20
24.537910
 30
0.0
 10
88.237991
 20
24.473967
 30
0.0
 10
90.425129
 20
24.531410
 30
0.0
 10
90.857241
 20
24.614555
 30
0.0
 10
90.949419
 20
24.744065
 30
0.0
 10
89.124118
 20
30.640892
 30
0.0
 10
88.420073
 20
33.168782
 30
0.0
 10
88.182317
 20
34.287804
 30
0.0
 10
90.984146
 20
37.909839
 30
0.0
 10
93.648169
 20
41.422184
 30
0.0
 10
92.860886
 20
41.511418
 30
0.0
 10
90.968161
 20
41.548412
 30
0.0
 10
88.288704
 20
41.548412
 30
0.0
 10
88.288704
 20
41.548426
 30
0.0
  0
LWPOLYLINE
  5
102
100
AcDbEntity
  8
0
 62
7
100
AcDbPolyline
 90
12
 70
0
 10
79.072935
 20
41.440388
 30
0.0
 10
77.696551
 20
37.117757
 30
0.0
 10
73.763629
 20
24.557217
 30
0.0
 10
76.407809
 20
24.521386
 30
0.0
 10
79.051438
 20
24.582021
 30
0.0
 10
80.642796
 20
29.660918
 30
0.0
 10
84.171124
 20
41.116273
 30
0.0
 10
84.113201
 20
41.282635
 30
0.0
 10
83.759851
 20
41.381192
 30
0.0
 10
81.659786
 20
41.440388
 30
0.0
 10
79.072935
 20
41.440388
 30
0.0
 10
79.072935
 20
41.440388
 30
0.0
  0
LWPOLYLINE
  5
103
100
AcDbEntity
  8
0
 62
7
100
AcDbPolyline
 90
52
 70
0
 10
61.917461
 20
41.353847
 30
0.0
 10
61.584527
 20
40.316460
 30
0.0
 10
59.069331
 20
32.471013
 30
0.0
 10
56.688634
 20
25.061579
 30
0.0
 10
56.490195
 20
24.461303
 30
0.0
 10
59.230288
 20
24.521386
 30
0.0
 10
61.970378
 20
24.582021
 30
0.0
 10
64.055075
 20
30.957926
 30
0.0
 10
66.139218
 20
37.333834
 30
0.0
 10
67.465442
 20
37.398325
 30
0.0
 10
68.190286
 20
37.415482
 30
0.0
 10
68.666128
 20
37.359199
 30
0.0
 10
69.014294
 20
37.197354
 30
0.0
 10
69.356111
 20
36.897824
 30
0.0
 10
69.631778
 20
36.587434
 30
0.0
 10
69.784246
 20
36.308756
 30
0.0
 10
69.830822
 20
36.011384
 30
0.0
 10
69.788814
 20
35.644912
 30
0.0
 10
69.520720
 20
35.016298
 30
0.0
 10
69.062315
 20
34.471373
 30
0.0
 10
68.698384
 20
34.224699
 30
0.0
 10
68.281361
 20
34.076758
 30
0.0
 10
66.875643
 20
33.985203
 30
0.0
 10
65.517780
 20
33.917663
 30
0.0
 10
65.369343
 20
33.772337
 30
0.0
 10
65.407757
 20
33.497376
 30
0.0
 10
66.675550
 20
28.743696
 30
0.0
 10
67.819874
 20
24.476188
 30
0.0
 10
70.467361
 20
24.475059
 30
0.0
 10
72.531723
 20
24.533566
 30
0.0
 10
72.976781
 20
24.616772
 30
0.0
 10
73.109887
 20
24.744053
 30
0.0
 10
72.251646
 20
28.028745
 30
0.0
 10
71.446870
 20
31.081926
 30
0.0
 10
72.406538
 20
31.580777
 30
0.0
 10
73.218108
 20
32.049061
 30
0.0
 10
73.914499
 20
32.577268
 30
0.0
 10
74.495594
 20
33.165198
 30
0.0
 10
74.961276
 20
33.812651
 30
0.0
 10
75.311427
 20
34.519428
 30
0.0
 10
75.545930
 20
35.285330
 30
0.0
 10
75.664669
 20
36.110156
 30
0.0
 10
75.667526
 20
36.993709
 30
0.0
 10
75.470513
 20
38.255584
 30
0.0
 10
75.036997
 20
39.279007
 30
0.0
 10
74.351546
 20
40.089405
 30
0.0
 10
73.398724
 20
40.712207
 30
0.0
 10
72.702568
 20
41.000131
 30
0.0
 10
71.765958
 20
41.161105
 30
0.0
 10
67.138022
 20
41.289330
 30
0.0
 10
61.917461
 20
41.353822
 30
0.0
 10
61.917461
 20
41.353847
 30
0.0
  0
LWPOLYLINE
  5
104
100
AcDbEntity
  8
0
 62
7
100
AcDbPolyline
 90
48
 70
0
 10
44.681510
 20
41.353283
 30
0.0
 10
43.440175
 20
37.506351
 30
0.0
 10
40.720478
 20
29.076616
 30
0.0
 10
39.601759
 20
25.399232
 30
0.0
 10
39.468467
 20
24.662583
 30
0.0
 10
39.489505
 20
24.494053
 30
0.0
 10
39.561824
 20
24.429872
 30
0.0
 10
42.288133
 20
24.435940
 30
0.0
 10
44.693086
 20
24.505945
 30
0.0
 10
46.786602
 20
30.919886
 30
0.0
 10
48.880118
 20
37.333826
 30
0.0
 10
50.149565
 20
37.397216
 30
0.0
 10
51.283959
 20
37.358120
 30
0.0
 10
51.657365
 20
37.227982
 30
0.0
 10
52.000548
 20
37.003098
 30
0.0
 10
52.447002
 20
36.481466
 30
0.0
 10
52.586983
 20
35.885040
 30
0.0
 10
52.421206
 20
35.250814
 30
0.0
 10
51.950386
 20
34.615783
 30
0.0
 10
51.562037
 20
34.269306
 30
0.0
 10
51.165965
 20
34.079494
 30
0.0
 10
50.594627
 20
33.999765
 30
0.0
 10
49.680481
 20
33.983541
 30
0.0
 10
48.527376
 20
33.935944
 30
0.0
 10
48.054398
 20
33.821483
 30
0.0
 10
49.312271
 20
29.120719
 30
0.0
 10
50.559121
 20
24.582013
 30
0.0
 10
53.271649
 20
24.521377
 30
0.0
 10
55.984180
 20
24.461295
 30
0.0
 10
55.054830
 20
27.760871
 30
0.0
 10
54.164066
 20
31.091313
 30
0.0
 10
55.302878
 20
31.674500
 30
0.0
 10
56.026296
 20
32.092369
 30
0.0
 10
56.655897
 20
32.571712
 30
0.0
 10
57.190867
 20
33.111234
 30
0.0
 10
57.630393
 20
33.709644
 30
0.0
 10
57.973662
 20
34.365648
 30
0.0
 10
58.219861
 20
35.077955
 30
0.0
 10
58.368177
 20
35.845272
 30
0.0
 10
58.417796
 20
36.666305
 30
0.0
 10
58.297162
 20
37.930104
 30
0.0
 10
57.926470
 20
38.985624
 30
0.0
 10
57.292531
 20
39.858238
 30
0.0
 10
56.382158
 20
40.573319
 30
0.0
 10
55.318863
 20
41.224304
 30
0.0
 10
50.000188
 20
41.288796
 30
0.0
 10
44.681510
 20
41.353288
 30
0.0
 10
44.681510
 20
41.353283
 30
0.0
  0
LWPOLYLINE
  5
105
100
AcDbEntity
  8
0
 62
1
100
AcDbPolyline
 90
6
 70
0
 10
8.854722
 20
65.295308
 30
0.0
 10
8.854722
 20
5.708385
 30
0.0
 10
103.441610
 20
5.708385
 30
0.0
 10
103.441610
 20
65.295308
 30
0.0
 10
8.854722
 20
65.295308
 30
0.0
 10
8.854722
 20
65.295308
 30
0.0
  0
ENDSEC
  0
SECTION
  2
OBJECTS
  0
DICTIONARY
  5
C
330
0
100
AcDbDictionary
  3
ACAD_GROUP
350
D
  3
ACAD_MLINESTYLE
350
17
  0
DICTIONARY
  5
D
330
C
100
AcDbDictionary
  0
DICTIONARY
  5
1A
330
C
100
AcDbDictionary
  0
DICTIONARY
  5
17
330
C
100
AcDbDictionary
  3
STANDARD
350
18
  0
DICTIONARY
  5
19
330
C
100
AcDbDictionary
  0
ENDSEC
  0
EOF
