  0
SECTION
  2
HEADER
  9
$ACADVER
  1
AC1014
  9
$HANDSEED
  5
FFFF
  9
$MEASUREMENT
 70
     1
  0
ENDSEC
  0
SECTION
  2
TABLES
  0
TABLE
  2
VPORT
  5
8
330
0
100
AcDbSymbolTable
 70
     4
  0
VPORT
  5
2E
330
8
100
AcDbSymbolTableRecord
100
AcDbViewportTableRecord
  2
*ACTIVE
 70
     0
 10
0.0
 20
0.0
 11
1.0
 21
1.0
 12
210.0
 22
148.5
 13
0.0
 23
0.0
 14
10.0
 24
10.0
 15
10.0
 25
10.0
 16
0.0
 26
0.0
 36
1.0
 17
0.0
 27
0.0
 37
0.0
 40
341.0
 41
1.24
 42
50.0
 43
0.0
 44
0.0
 50
0.0
 51
0.0
 71
     0
 72
   100
 73
     1
 74
     3
 75
     0
 76
     0
 77
     0
 78
     0
  0
ENDTAB
  0
TABLE
  2
LTYPE
  5
5
330
0
100
AcDbSymbolTable
 70
     1
  0
LTYPE
  5
14
330
5
100
AcDbSymbolTableRecord
100
AcDbLinetypeTableRecord
  2
BYBLOCK
 70
     0
  3

 72
    65
 73
     0
 40
0.0
  0
LTYPE
  5
15
330
5
100
AcDbSymbolTableRecord
100
AcDbLinetypeTableRecord
  2
BYLAYER
 70
     0
  3

 72
    65
 73
     0
 40
0.0
  0
LTYPE
  5
16
330
5
100
AcDbSymbolTableRecord
100
AcDbLinetypeTableRecord
  2
CONTINUOUS
 70
     0
  3
Solid line
 72
    65
 73
     0
 40
0.0
  0
ENDTAB
  0
TABLE
  2
LAYER
  5
2
100
AcDbSymbolTable
 70
2
  0
LAYER
  5
50
100
AcDbSymbolTableRecord
100
AcDbLayerTableRecord
  2
0
 70
0
  6
CONTINUOUS
  0
LAYER
  5
51
100
AcDbSymbolTableRecord
100
AcDbLayerTableRecord
  2
Layer_1
 70
0
  6
CONTINUOUS
  0
ENDTAB
  0
TABLE
  2
STYLE
  5
3
330
0
100
AcDbSymbolTable
 70
     1
  0
STYLE
  5
11
330
3
100
AcDbSymbolTableRecord
100
AcDbTextStyleTableRecord
  2
STANDARD
 70
     0
 40
0.0
 41
1.0
 50
0.0
 71
     0
 42
2.5
  3
txt
  4

  0
ENDTAB
  0
TABLE
  2
VIEW
  5
6
330
0
100
AcDbSymbolTable
 70
     0
  0
ENDTAB
  0
TABLE
  2
UCS
  5
7
330
0
100
AcDbSymbolTable
 70
     0
  0
ENDTAB
  0
TABLE
  2
APPID
  5
9
330
0
100
AcDbSymbolTable
 70
     2
  0
APPID
  5
12
330
9
100
AcDbSymbolTableRecord
100
AcDbRegAppTableRecord
  2
ACAD
 70
     0
  0
ENDTAB
  0
TABLE
  2
DIMSTYLE
  5
A
330
0
100
AcDbSymbolTable
 70
     1
  0
DIMSTYLE
105
27
330
A
100
AcDbSymbolTableRecord
100
AcDbDimStyleTableRecord
  2
ISO-25
 70
     0
  3

  4

  5

  6

  7

 40
1.0
 41
2.5
 42
0.625
 43
3.75
 44
1.25
 45
0.0
 46
0.0
 47
0.0
 48
0.0
140
2.5
141
2.5
142
0.0
143
0.03937007874016
144
1.0
145
0.0
146
1.0
147
0.625
 71
     0
 72
     0
 73
     0
 74
     0
 75
     0
 76
     0
 77
     1
 78
     8
170
     0
171
     3
172
     1
173
     0
174
     0
175
     0
176
     0
177
     0
178
     0
270
     2
271
     2
272
     2
273
     2
274
     3
340
11
275
     0
280
     0
281
     0
282
     0
283
     0
284
     8
285
     0
286
     0
287
     3
288
     0
  0
ENDTAB
  0
TABLE
  2
BLOCK_RECORD
  5
1
330
0
100
AcDbSymbolTable
 70
     1
  0
BLOCK_RECORD
  5
1F
330
1
100
AcDbSymbolTableRecord
100
AcDbBlockTableRecord
  2
*MODEL_SPACE
  0
BLOCK_RECORD
  5
1B
330
1
100
AcDbSymbolTableRecord
100
AcDbBlockTableRecord
  2
*PAPER_SPACE
  0
ENDTAB
  0
ENDSEC
  0
SECTION
  2
BLOCKS
  0
BLOCK
  5
20
330
1F
100
AcDbEntity
  8
0
100
AcDbBlockBegin
  2
*MODEL_SPACE
 70
     0
 10
0.0
 20
0.0
 30
0.0
  3
*MODEL_SPACE
  1

  0
ENDBLK
  5
21
330
1F
100
AcDbEntity
  8
0
100
AcDbBlockEnd
  0
BLOCK
  5
1C
330
1B
100
AcDbEntity
 67
     1
  8
0
100
AcDbBlockBegin
  2
*PAPER_SPACE
  1

  0
ENDBLK
  5
1D
330
1B
100
AcDbEntity
 67
     1
  8
0
100
AcDbBlockEnd
  0
ENDSEC
  0
SECTION
  2
ENTITIES
  0
SPLINE
  5
100
100
AcDbEntity
  8
Layer_1
 62
7
100
AcDbSpline
 70
8
 71
3
 72
8
 73
4
 74
0
 40
0
 40
0
 40
0
 40
0
 40
1
 40
1
 40
1
 40
1
 10
74.839601
 20
112.390285
 30
0.0
 10
72.547186
 20
112.390285
 30
0.0
 10
70.701628
 20
110.544727
 30
0.0
 10
70.701628
 20
108.252312
 30
0.0
  0
SPLINE
  5
101
100
AcDbEntity
  8
Layer_1
 62
7
100
AcDbSpline
 70
8
 71
3
 72
8
 73
4
 74
0
 40
0
 40
0
 40
0
 40
0
 40
1
 40
1
 40
1
 40
1
 10
70.701628
 20
86.528369
 30
0.0
 10
70.701628
 20
84.235957
 30
0.0
 10
72.547186
 20
82.390396
 30
0.0
 10
74.839601
 20
82.390396
 30
0.0
  0
LWPOLYLINE
  5
102
100
AcDbEntity
  8
Layer_1
 62
7
100
AcDbPolyline
 90
2
 70
0
 10
70.701628
 20
108.252312
 30
0.0
 10
70.701628
 20
86.528369
 30
0.0
  0
SPLINE
  5
103
100
AcDbEntity
  8
Layer_1
 62
7
100
AcDbSpline
 70
8
 71
3
 72
8
 73
4
 74
0
 40
0
 40
0
 40
0
 40
0
 40
1
 40
1
 40
1
 40
1
 10
186.563770
 20
82.390396
 30
0.0
 10
188.856183
 20
82.390396
 30
0.0
 10
190.701744
 20
84.235957
 30
0.0
 10
190.701744
 20
86.528369
 30
0.0
  0
LWPOLYLINE
  5
104
100
AcDbEntity
  8
Layer_1
 62
7
100
AcDbPolyline
 90
2
 70
0
 10
74.839601
 20
82.390396
 30
0.0
 10
186.563770
 20
82.390396
 30
0.0
  0
SPLINE
  5
105
100
AcDbEntity
  8
Layer_1
 62
7
100
AcDbSpline
 70
8
 71
3
 72
8
 73
4
 74
0
 40
0
 40
0
 40
0
 40
0
 40
1
 40
1
 40
1
 40
1
 10
190.701744
 20
108.252312
 30
0.0
 10
190.701744
 20
110.544727
 30
0.0
 10
188.856183
 20
112.390285
 30
0.0
 10
186.563770
 20
112.390285
 30
0.0
  0
LWPOLYLINE
  5
106
100
AcDbEntity
  8
Layer_1
 62
7
100
AcDbPolyline
 90
2
 70
0
 10
190.701744
 20
86.528369
 30
0.0
 10
190.701744
 20
108.252312
 30
0.0
  0
SPLINE
  5
107
100
AcDbEntity
  8
Layer_1
 62
7
100
AcDbSpline
 70
8
 71
3
 72
8
 73
4
 74
0
 40
0
 40
0
 40
0
 40
0
 40
1
 40
1
 40
1
 40
1
 10
80.614131
 20
99.890378
 30
0.0
 10
79.950981
 20
99.890461
 30
0.0
 10
79.314969
 20
99.627062
 30
0.0
 10
78.846051
 20
99.158144
 30
0.0
  0
SPLINE
  5
108
100
AcDbEntity
  8
Layer_1
 62
7
100
AcDbSpline
 70
8
 71
3
 72
8
 73
4
 74
0
 40
0
 40
0
 40
0
 40
0
 40
1
 40
1
 40
1
 40
1
 10
78.846051
 20
99.158144
 30
0.0
 10
78.377134
 20
98.689226
 30
0.0
 10
78.113736
 20
98.053214
 30
0.0
 10
78.113819
 20
97.390064
 30
0.0
  0
SPLINE
  5
109
100
AcDbEntity
  8
Layer_1
 62
7
100
AcDbSpline
 70
8
 71
3
 72
8
 73
4
 74
0
 40
0
 40
0
 40
0
 40
0
 40
1
 40
1
 40
1
 40
1
 10
78.113819
 20
97.390064
 30
0.0
 10
78.113883
 20
96.727011
 30
0.0
 10
78.377346
 20
96.091140
 30
0.0
 10
78.846247
 20
95.622342
 30
0.0
  0
SPLINE
  5
10a
100
AcDbEntity
  8
Layer_1
 62
7
100
AcDbSpline
 70
8
 71
3
 72
8
 73
4
 74
0
 40
0
 40
0
 40
0
 40
0
 40
1
 40
1
 40
1
 40
1
 10
78.846247
 20
95.622342
 30
0.0
 10
79.315148
 20
95.153544
 30
0.0
 10
79.951077
 20
94.890221
 30
0.0
 10
80.614131
 20
94.890303
 30
0.0
  0
SPLINE
  5
10b
100
AcDbEntity
  8
Layer_1
 62
7
100
AcDbSpline
 70
8
 71
3
 72
8
 73
4
 74
0
 40
0
 40
0
 40
0
 40
0
 40
1
 40
1
 40
1
 40
1
 10
80.614131
 20
94.890303
 30
0.0
 10
81.994657
 20
94.890434
 30
0.0
 10
83.113762
 20
96.009538
 30
0.0
 10
83.113894
 20
97.390064
 30
0.0
  0
SPLINE
  5
10c
100
AcDbEntity
  8
Layer_1
 62
7
100
AcDbSpline
 70
8
 71
3
 72
8
 73
4
 74
0
 40
0
 40
0
 40
0
 40
0
 40
1
 40
1
 40
1
 40
1
 10
83.113894
 20
97.390064
 30
0.0
 10
83.113977
 20
98.053119
 30
0.0
 10
82.850654
 20
98.689048
 30
0.0
 10
82.381856
 20
99.157951
 30
0.0
  0
SPLINE
  5
10d
100
AcDbEntity
  8
Layer_1
 62
7
100
AcDbSpline
 70
8
 71
3
 72
8
 73
4
 74
0
 40
0
 40
0
 40
0
 40
0
 40
1
 40
1
 40
1
 40
1
 10
82.381856
 20
99.157951
 30
0.0
 10
81.913057
 20
99.626853
 30
0.0
 10
81.277185
 20
99.890315
 30
0.0
 10
80.614131
 20
99.890378
 30
0.0
  0
LWPOLYLINE
  5
10e
100
AcDbEntity
  8
Layer_1
 62
7
100
AcDbPolyline
 90
3
 70
0
 10
186.563770
 20
112.390285
 30
0.0
 10
74.839601
 20
112.390285
 30
0.0
 10
74.839601
 20
112.390285
 30
0.0
  0
SPLINE
  5
10f
100
AcDbEntity
  8
Layer_1
 62
7
100
AcDbSpline
 70
8
 71
3
 72
8
 73
4
 74
0
 40
0
 40
0
 40
0
 40
0
 40
1
 40
1
 40
1
 40
1
 10
134.546137
 20
107.013731
 30
0.0
 10
134.435714
 20
107.018845
 30
0.0
 10
134.318434
 20
107.002109
 30
0.0
 10
134.195563
 20
106.961918
 30
0.0
  0
SPLINE
  5
110
100
AcDbEntity
  8
Layer_1
 62
7
100
AcDbSpline
 70
8
 71
3
 72
8
 73
4
 74
0
 40
0
 40
0
 40
0
 40
0
 40
1
 40
1
 40
1
 40
1
 10
134.195563
 20
106.961918
 30
0.0
 10
133.597681
 20
106.821315
 30
0.0
 10
133.285687
 20
106.222769
 30
0.0
 10
133.130064
 20
105.659395
 30
0.0
  0
SPLINE
  5
111
100
AcDbEntity
  8
Layer_1
 62
7
100
AcDbSpline
 70
8
 71
3
 72
8
 73
4
 74
0
 40
0
 40
0
 40
0
 40
0
 40
1
 40
1
 40
1
 40
1
 10
133.130064
 20
105.659395
 30
0.0
 10
133.041548
 20
105.337608
 30
0.0
 10
133.004910
 20
105.017971
 30
0.0
 10
132.940998
 20
104.723983
 30
0.0
  0
LWPOLYLINE
  5
112
100
AcDbEntity
  8
Layer_1
 62
7
100
AcDbPolyline
 90
2
 70
0
 10
80.614131
 20
99.890378
 30
0.0
 10
80.614131
 20
99.890378
 30
0.0
  0
SPLINE
  5
113
100
AcDbEntity
  8
Layer_1
 62
7
100
AcDbSpline
 70
8
 71
3
 72
8
 73
4
 74
0
 40
0
 40
0
 40
0
 40
0
 40
1
 40
1
 40
1
 40
1
 10
132.738151
 20
104.052051
 30
0.0
 10
132.665933
 20
103.915603
 30
0.0
 10
132.565216
 20
103.830417
 30
0.0
 10
132.433881
 20
103.822746
 30
0.0
  0
SPLINE
  5
114
100
AcDbEntity
  8
Layer_1
 62
7
100
AcDbSpline
 70
8
 71
3
 72
8
 73
4
 74
0
 40
0
 40
0
 40
0
 40
0
 40
1
 40
1
 40
1
 40
1
 10
132.433881
 20
103.822746
 30
0.0
 10
132.391060
 20
103.820446
 30
0.0
 10
130.116526
 20
103.798252
 30
0.0
 10
127.747999
 20
103.759909
 30
0.0
  0
LWPOLYLINE
  5
115
100
AcDbEntity
  8
Layer_1
 62
7
100
AcDbPolyline
 90
2
 70
0
 10
132.940998
 20
104.723983
 30
0.0
 10
132.738151
 20
104.052051
 30
0.0
  0
SPLINE
  5
116
100
AcDbEntity
  8
Layer_1
 62
7
100
AcDbSpline
 70
8
 71
3
 72
8
 73
4
 74
0
 40
0
 40
0
 40
0
 40
0
 40
1
 40
1
 40
1
 40
1
 10
127.709964
 20
103.797391
 30
0.0
 10
127.649571
 20
103.908276
 30
0.0
 10
127.646639
 20
104.093216
 30
0.0
 10
127.642165
 20
104.182689
 30
0.0
  0
SPLINE
  5
117
100
AcDbEntity
  8
Layer_1
 62
7
100
AcDbSpline
 70
8
 71
3
 72
8
 73
4
 74
0
 40
0
 40
0
 40
0
 40
0
 40
1
 40
1
 40
1
 40
1
 10
127.642165
 20
104.182689
 30
0.0
 10
127.634497
 20
104.339272
 30
0.0
 10
127.650531
 20
104.462160
 30
0.0
 10
127.665869
 20
104.610434
 30
0.0
  0
SPLINE
  5
118
100
AcDbEntity
  8
Layer_1
 62
7
100
AcDbSpline
 70
8
 71
3
 72
8
 73
4
 74
0
 40
0
 40
0
 40
0
 40
0
 40
1
 40
1
 40
1
 40
1
 10
127.665869
 20
104.610434
 30
0.0
 10
127.718594
 20
105.130984
 30
0.0
 10
127.660888
 20
105.598087
 30
0.0
 10
127.458611
 20
106.057923
 30
0.0
  0
SPLINE
  5
119
100
AcDbEntity
  8
Layer_1
 62
7
100
AcDbSpline
 70
8
 71
3
 72
8
 73
4
 74
0
 40
0
 40
0
 40
0
 40
0
 40
1
 40
1
 40
1
 40
1
 10
127.458611
 20
106.057923
 30
0.0
 10
127.281260
 20
106.473984
 30
0.0
 10
126.935981
 20
106.656059
 30
0.0
 10
126.517688
 20
106.519292
 30
0.0
  0
SPLINE
  5
11a
100
AcDbEntity
  8
Layer_1
 62
7
100
AcDbSpline
 70
8
 71
3
 72
8
 73
4
 74
0
 40
0
 40
0
 40
0
 40
0
 40
1
 40
1
 40
1
 40
1
 10
126.517688
 20
106.519292
 30
0.0
 10
126.008638
 20
106.399779
 30
0.0
 10
125.743233
 20
105.890360
 30
0.0
 10
125.610936
 20
105.411349
 30
0.0
  0
SPLINE
  5
11b
100
AcDbEntity
  8
Layer_1
 62
7
100
AcDbSpline
 70
8
 71
3
 72
8
 73
4
 74
0
 40
0
 40
0
 40
0
 40
0
 40
1
 40
1
 40
1
 40
1
 10
125.610936
 20
105.411349
 30
0.0
 10
125.535204
 20
105.137811
 30
0.0
 10
125.504075
 20
104.866155
 30
0.0
 10
125.449431
 20
104.615946
 30
0.0
  0
LWPOLYLINE
  5
11c
100
AcDbEntity
  8
Layer_1
 62
7
100
AcDbPolyline
 90
2
 70
0
 10
127.747999
 20
103.759909
 30
0.0
 10
127.709964
 20
103.797391
 30
0.0
  0
SPLINE
  5
11d
100
AcDbEntity
  8
Layer_1
 62
7
100
AcDbSpline
 70
8
 71
3
 72
8
 73
4
 74
0
 40
0
 40
0
 40
0
 40
0
 40
1
 40
1
 40
1
 40
1
 10
125.345802
 20
104.021735
 30
0.0
 10
125.325683
 20
103.932581
 30
0.0
 10
125.299797
 20
103.796138
 30
0.0
 10
125.251546
 20
103.713055
 30
0.0
  0
SPLINE
  5
11e
100
AcDbEntity
  8
Layer_1
 62
7
100
AcDbSpline
 70
8
 71
3
 72
8
 73
4
 74
0
 40
0
 40
0
 40
0
 40
0
 40
1
 40
1
 40
1
 40
1
 10
125.251546
 20
103.713055
 30
0.0
 10
124.232170
 20
103.690048
 30
0.0
 10
123.362031
 20
103.663542
 30
0.0
 10
122.868642
 20
103.634783
 30
0.0
  0
SPLINE
  5
11f
100
AcDbEntity
  8
Layer_1
 62
7
100
AcDbSpline
 70
8
 71
3
 72
8
 73
4
 74
0
 40
0
 40
0
 40
0
 40
0
 40
1
 40
1
 40
1
 40
1
 10
122.868642
 20
103.634783
 30
0.0
 10
122.370139
 20
103.605703
 30
0.0
 10
121.896756
 20
103.604986
 30
0.0
 10
121.402410
 20
103.496980
 30
0.0
  0
SPLINE
  5
120
100
AcDbEntity
  8
Layer_1
 62
7
100
AcDbSpline
 70
8
 71
3
 72
8
 73
4
 74
0
 40
0
 40
0
 40
0
 40
0
 40
1
 40
1
 40
1
 40
1
 10
121.402410
 20
103.496980
 30
0.0
 10
121.323800
 20
103.492173
 30
0.0
 10
121.246632
 20
103.461022
 30
0.0
 10
121.170897
 20
103.403824
 30
0.0
  0
SPLINE
  5
121
100
AcDbEntity
  8
Layer_1
 62
7
100
AcDbSpline
 70
8
 71
3
 72
8
 73
4
 74
0
 40
0
 40
0
 40
0
 40
0
 40
1
 40
1
 40
1
 40
1
 10
121.170897
 20
103.403824
 30
0.0
 10
120.944016
 20
103.205701
 30
0.0
 10
121.187952
 20
103.062292
 30
0.0
 10
121.372644
 20
103.046635
 30
0.0
  0
SPLINE
  5
122
100
AcDbEntity
  8
Layer_1
 62
7
100
AcDbSpline
 70
8
 71
3
 72
8
 73
4
 74
0
 40
0
 40
0
 40
0
 40
0
 40
1
 40
1
 40
1
 40
1
 10
121.372644
 20
103.046635
 30
0.0
 10
121.820017
 20
103.046381
 30
0.0
 10
122.500184
 20
103.111374
 30
0.0
 10
123.051093
 20
103.143649
 30
0.0
  0
LWPOLYLINE
  5
123
100
AcDbEntity
  8
Layer_1
 62
7
100
AcDbPolyline
 90
2
 70
0
 10
125.449431
 20
104.615946
 30
0.0
 10
125.345802
 20
104.021735
 30
0.0
  0
SPLINE
  5
124
100
AcDbEntity
  8
Layer_1
 62
7
100
AcDbSpline
 70
8
 71
3
 72
8
 73
4
 74
0
 40
0
 40
0
 40
0
 40
0
 40
1
 40
1
 40
1
 40
1
 10
124.047690
 20
103.202077
 30
0.0
 10
124.047436
 20
103.209748
 30
0.0
 10
124.401879
 20
103.220278
 30
0.0
 10
124.908688
 20
103.230189
 30
0.0
  0
SPLINE
  5
125
100
AcDbEntity
  8
Layer_1
 62
7
100
AcDbSpline
 70
8
 71
3
 72
8
 73
4
 74
0
 40
0
 40
0
 40
0
 40
0
 40
1
 40
1
 40
1
 40
1
 10
124.908688
 20
103.230189
 30
0.0
 10
124.932031
 20
103.217715
 30
0.0
 10
124.959640
 20
103.206528
 30
0.0
 10
124.997986
 20
103.198219
 30
0.0
  0
SPLINE
  5
126
100
AcDbEntity
  8
Layer_1
 62
7
100
AcDbSpline
 70
8
 71
3
 72
8
 73
4
 74
0
 40
0
 40
0
 40
0
 40
0
 40
1
 40
1
 40
1
 40
1
 10
124.997986
 20
103.198219
 30
0.0
 10
125.157763
 20
103.140381
 30
0.0
 10
125.139320
 20
103.048325
 30
0.0
 10
125.145712
 20
102.913793
 30
0.0
  0
SPLINE
  5
127
100
AcDbEntity
  8
Layer_1
 62
7
100
AcDbSpline
 70
8
 71
3
 72
8
 73
4
 74
0
 40
0
 40
0
 40
0
 40
0
 40
1
 40
1
 40
1
 40
1
 10
125.145712
 20
102.913793
 30
0.0
 10
125.142210
 20
101.656352
 30
0.0
 10
125.063377
 20
100.732074
 30
0.0
 10
125.022790
 20
99.764148
 30
0.0
  0
SPLINE
  5
128
100
AcDbEntity
  8
Layer_1
 62
7
100
AcDbSpline
 70
8
 71
3
 72
8
 73
4
 74
0
 40
0
 40
0
 40
0
 40
0
 40
1
 40
1
 40
1
 40
1
 10
125.022790
 20
99.764148
 30
0.0
 10
124.947059
 20
98.732312
 30
0.0
 10
124.978307
 20
97.707069
 30
0.0
 10
125.159493
 20
96.690573
 30
0.0
  0
SPLINE
  5
129
100
AcDbEntity
  8
Layer_1
 62
7
100
AcDbSpline
 70
8
 71
3
 72
8
 73
4
 74
0
 40
0
 40
0
 40
0
 40
0
 40
1
 40
1
 40
1
 40
1
 10
125.159493
 20
96.690573
 30
0.0
 10
124.698376
 20
96.191751
 30
0.0
 10
123.913364
 20
96.091711
 30
0.0
 10
123.246774
 20
96.185657
 30
0.0
  0
SPLINE
  5
12a
100
AcDbEntity
  8
Layer_1
 62
7
100
AcDbSpline
 70
8
 71
3
 72
8
 73
4
 74
0
 40
0
 40
0
 40
0
 40
0
 40
1
 40
1
 40
1
 40
1
 10
123.246774
 20
96.185657
 30
0.0
 10
122.901659
 20
96.244777
 30
0.0
 10
122.285289
 20
96.472508
 30
0.0
 10
121.955828
 20
96.743489
 30
0.0
  0
SPLINE
  5
12b
100
AcDbEntity
  8
Layer_1
 62
7
100
AcDbSpline
 70
8
 71
3
 72
8
 73
4
 74
0
 40
0
 40
0
 40
0
 40
0
 40
1
 40
1
 40
1
 40
1
 10
121.955828
 20
96.743489
 30
0.0
 10
121.761541
 20
96.943528
 30
0.0
 10
121.886060
 20
97.083302
 30
0.0
 10
121.687937
 20
97.361951
 30
0.0
  0
SPLINE
  5
12c
100
AcDbEntity
  8
Layer_1
 62
7
100
AcDbSpline
 70
8
 71
3
 72
8
 73
4
 74
0
 40
0
 40
0
 40
0
 40
0
 40
1
 40
1
 40
1
 40
1
 10
121.687937
 20
97.361951
 30
0.0
 10
121.489814
 20
97.640603
 30
0.0
 10
121.492340
 20
97.587746
 30
0.0
 10
121.299331
 20
97.761583
 30
0.0
  0
SPLINE
  5
12d
100
AcDbEntity
  8
Layer_1
 62
7
100
AcDbSpline
 70
8
 71
3
 72
8
 73
4
 74
0
 40
0
 40
0
 40
0
 40
0
 40
1
 40
1
 40
1
 40
1
 10
121.299331
 20
97.761583
 30
0.0
 10
120.967316
 20
98.085289
 30
0.0
 10
120.441189
 20
98.080819
 30
0.0
 10
119.999565
 20
97.976007
 30
0.0
  0
SPLINE
  5
12e
100
AcDbEntity
  8
Layer_1
 62
7
100
AcDbSpline
 70
8
 71
3
 72
8
 73
4
 74
0
 40
0
 40
0
 40
0
 40
0
 40
1
 40
1
 40
1
 40
1
 10
119.999565
 20
97.976007
 30
0.0
 10
119.583826
 20
97.872471
 30
0.0
 10
119.194501
 20
97.771278
 30
0.0
 10
118.807839
 20
97.616614
 30
0.0
  0
SPLINE
  5
12f
100
AcDbEntity
  8
Layer_1
 62
7
100
AcDbSpline
 70
8
 71
3
 72
8
 73
4
 74
0
 40
0
 40
0
 40
0
 40
0
 40
1
 40
1
 40
1
 40
1
 10
118.807839
 20
97.616614
 30
0.0
 10
118.473587
 20
97.464827
 30
0.0
 10
118.223250
 20
97.212351
 30
0.0
 10
118.057083
 20
96.859243
 30
0.0
  0
SPLINE
  5
130
100
AcDbEntity
  8
Layer_1
 62
7
100
AcDbSpline
 70
8
 71
3
 72
8
 73
4
 74
0
 40
0
 40
0
 40
0
 40
0
 40
1
 40
1
 40
1
 40
1
 10
118.057083
 20
96.859243
 30
0.0
 10
117.996369
 20
96.754112
 30
0.0
 10
117.946929
 20
96.643986
 30
0.0
 10
117.902191
 20
96.531823
 30
0.0
  0
SPLINE
  5
131
100
AcDbEntity
  8
Layer_1
 62
7
100
AcDbSpline
 70
8
 71
3
 72
8
 73
4
 74
0
 40
0
 40
0
 40
0
 40
0
 40
1
 40
1
 40
1
 40
1
 10
117.902191
 20
96.531823
 30
0.0
 10
117.306225
 20
95.461001
 30
0.0
 10
116.671812
 20
94.480682
 30
0.0
 10
115.878680
 20
93.643453
 30
0.0
  0
SPLINE
  5
132
100
AcDbEntity
  8
Layer_1
 62
7
100
AcDbSpline
 70
8
 71
3
 72
8
 73
4
 74
0
 40
0
 40
0
 40
0
 40
0
 40
1
 40
1
 40
1
 40
1
 10
115.878680
 20
93.643453
 30
0.0
 10
115.259067
 20
92.894740
 30
0.0
 10
114.462975
 20
92.003197
 30
0.0
 10
113.518377
 20
91.947916
 30
0.0
  0
SPLINE
  5
133
100
AcDbEntity
  8
Layer_1
 62
7
100
AcDbSpline
 70
8
 71
3
 72
8
 73
4
 74
0
 40
0
 40
0
 40
0
 40
0
 40
1
 40
1
 40
1
 40
1
 10
113.518377
 20
91.947916
 30
0.0
 10
113.440086
 20
91.943443
 30
0.0
 10
113.385831
 20
91.967383
 30
0.0
 10
113.359627
 20
91.966105
 30
0.0
  0
SPLINE
  5
134
100
AcDbEntity
  8
Layer_1
 62
7
100
AcDbSpline
 70
8
 71
3
 72
8
 73
4
 74
0
 40
0
 40
0
 40
0
 40
0
 40
1
 40
1
 40
1
 40
1
 10
113.359627
 20
91.966105
 30
0.0
 10
112.647662
 20
92.003494
 30
0.0
 10
112.215323
 20
92.743760
 30
0.0
 10
112.070885
 20
92.999083
 30
0.0
  0
SPLINE
  5
135
100
AcDbEntity
  8
Layer_1
 62
7
100
AcDbSpline
 70
8
 71
3
 72
8
 73
4
 74
0
 40
0
 40
0
 40
0
 40
0
 40
1
 40
1
 40
1
 40
1
 10
112.070885
 20
92.999083
 30
0.0
 10
111.750373
 20
93.614223
 30
0.0
 10
111.660991
 20
94.347922
 30
0.0
 10
111.635424
 20
95.375922
 30
0.0
  0
SPLINE
  5
136
100
AcDbEntity
  8
Layer_1
 62
7
100
AcDbSpline
 70
8
 71
3
 72
8
 73
4
 74
0
 40
0
 40
0
 40
0
 40
0
 40
1
 40
1
 40
1
 40
1
 10
111.635424
 20
95.375922
 30
0.0
 10
111.678246
 20
96.091082
 30
0.0
 10
111.724677
 20
96.727569
 30
0.0
 10
111.909380
 20
97.240133
 30
0.0
  0
SPLINE
  5
137
100
AcDbEntity
  8
Layer_1
 62
7
100
AcDbSpline
 70
8
 71
3
 72
8
 73
4
 74
0
 40
0
 40
0
 40
0
 40
0
 40
1
 40
1
 40
1
 40
1
 10
111.909380
 20
97.240133
 30
0.0
 10
112.046786
 20
97.644368
 30
0.0
 10
112.217039
 20
97.918395
 30
0.0
 10
112.392796
 20
98.086799
 30
0.0
  0
SPLINE
  5
138
100
AcDbEntity
  8
Layer_1
 62
7
100
AcDbSpline
 70
8
 71
3
 72
8
 73
4
 74
0
 40
0
 40
0
 40
0
 40
0
 40
1
 40
1
 40
1
 40
1
 10
112.392796
 20
98.086799
 30
0.0
 10
112.569506
 20
98.229641
 30
0.0
 10
112.750281
 20
98.292618
 30
0.0
 10
112.960548
 20
98.305081
 30
0.0
  0
SPLINE
  5
139
100
AcDbEntity
  8
Layer_1
 62
7
100
AcDbSpline
 70
8
 71
3
 72
8
 73
4
 74
0
 40
0
 40
0
 40
0
 40
0
 40
1
 40
1
 40
1
 40
1
 10
112.960548
 20
98.305081
 30
0.0
 10
113.039158
 20
98.309555
 30
0.0
 10
113.170501
 20
98.316748
 30
0.0
 10
113.279148
 20
98.243896
 30
0.0
  0
SPLINE
  5
13a
100
AcDbEntity
  8
Layer_1
 62
7
100
AcDbSpline
 70
8
 71
3
 72
8
 73
4
 74
0
 40
0
 40
0
 40
0
 40
0
 40
1
 40
1
 40
1
 40
1
 10
113.279148
 20
98.243896
 30
0.0
 10
113.414319
 20
98.172637
 30
0.0
 10
113.525740
 20
98.047367
 30
0.0
 10
113.616491
 20
97.815050
 30
0.0
  0
LWPOLYLINE
  5
13b
100
AcDbEntity
  8
Layer_1
 62
7
100
AcDbPolyline
 90
2
 70
0
 10
123.051093
 20
103.143649
 30
0.0
 10
124.047690
 20
103.202077
 30
0.0
  0
SPLINE
  5
13c
100
AcDbEntity
  8
Layer_1
 62
7
100
AcDbSpline
 70
8
 71
3
 72
8
 73
4
 74
0
 40
0
 40
0
 40
0
 40
0
 40
1
 40
1
 40
1
 40
1
 10
113.712405
 20
97.477157
 30
0.0
 10
113.717849
 20
97.372024
 30
0.0
 10
113.747762
 20
97.294506
 30
0.0
 10
113.775241
 20
97.269899
 30
0.0
  0
SPLINE
  5
13d
100
AcDbEntity
  8
Layer_1
 62
7
100
AcDbSpline
 70
8
 71
3
 72
8
 73
4
 74
0
 40
0
 40
0
 40
0
 40
0
 40
1
 40
1
 40
1
 40
1
 10
113.775241
 20
97.269899
 30
0.0
 10
113.805600
 20
97.192248
 30
0.0
 10
113.859538
 20
97.169140
 30
0.0
 10
113.911944
 20
97.172334
 30
0.0
  0
SPLINE
  5
13e
100
AcDbEntity
  8
Layer_1
 62
7
100
AcDbSpline
 70
8
 71
3
 72
8
 73
4
 74
0
 40
0
 40
0
 40
0
 40
0
 40
1
 40
1
 40
1
 40
1
 10
113.911944
 20
97.172334
 30
0.0
 10
113.990554
 20
97.176808
 30
0.0
 10
114.066461
 20
97.234277
 30
0.0
 10
114.087230
 20
97.341007
 30
0.0
  0
SPLINE
  5
13f
100
AcDbEntity
  8
Layer_1
 62
7
100
AcDbSpline
 70
8
 71
3
 72
8
 73
4
 74
0
 40
0
 40
0
 40
0
 40
0
 40
1
 40
1
 40
1
 40
1
 10
114.087230
 20
97.341007
 30
0.0
 10
114.172232
 20
97.742045
 30
0.0
 10
114.075681
 20
98.105751
 30
0.0
 10
113.770833
 20
98.404853
 30
0.0
  0
SPLINE
  5
140
100
AcDbEntity
  8
Layer_1
 62
7
100
AcDbSpline
 70
8
 71
3
 72
8
 73
4
 74
0
 40
0
 40
0
 40
0
 40
0
 40
1
 40
1
 40
1
 40
1
 10
113.770833
 20
98.404853
 30
0.0
 10
113.520305
 20
98.680626
 30
0.0
 10
113.225075
 20
98.795815
 30
0.0
 10
112.832664
 20
98.746604
 30
0.0
  0
SPLINE
  5
141
100
AcDbEntity
  8
Layer_1
 62
7
100
AcDbSpline
 70
8
 71
3
 72
8
 73
4
 74
0
 40
0
 40
0
 40
0
 40
0
 40
1
 40
1
 40
1
 40
1
 10
112.832664
 20
98.746604
 30
0.0
 10
112.230947
 20
98.684930
 30
0.0
 10
111.775096
 20
98.340957
 30
0.0
 10
111.551090
 20
98.090107
 30
0.0
  0
SPLINE
  5
142
100
AcDbEntity
  8
Layer_1
 62
7
100
AcDbSpline
 70
8
 71
3
 72
8
 73
4
 74
0
 40
0
 40
0
 40
0
 40
0
 40
1
 40
1
 40
1
 40
1
 10
111.551090
 20
98.090107
 30
0.0
 10
111.026702
 20
97.531530
 30
0.0
 10
110.748826
 20
96.776741
 30
0.0
 10
110.606306
 20
95.949739
 30
0.0
  0
SPLINE
  5
143
100
AcDbEntity
  8
Layer_1
 62
7
100
AcDbSpline
 70
8
 71
3
 72
8
 73
4
 74
0
 40
0
 40
0
 40
0
 40
0
 40
1
 40
1
 40
1
 40
1
 10
110.606306
 20
95.949739
 30
0.0
 10
110.516512
 20
95.126252
 30
0.0
 10
110.553807
 20
94.389019
 30
0.0
 10
110.805296
 20
93.585025
 30
0.0
  0
SPLINE
  5
144
100
AcDbEntity
  8
Layer_1
 62
7
100
AcDbSpline
 70
8
 71
3
 72
8
 73
4
 74
0
 40
0
 40
0
 40
0
 40
0
 40
1
 40
1
 40
1
 40
1
 10
110.805296
 20
93.585025
 30
0.0
 10
110.993191
 20
92.989059
 30
0.0
 10
111.280713
 20
92.504421
 30
0.0
 10
111.641489
 20
92.129266
 30
0.0
  0
SPLINE
  5
145
100
AcDbEntity
  8
Layer_1
 62
7
100
AcDbSpline
 70
8
 71
3
 72
8
 73
4
 74
0
 40
0
 40
0
 40
0
 40
0
 40
1
 40
1
 40
1
 40
1
 10
111.641489
 20
92.129266
 30
0.0
 10
112.082792
 20
91.732380
 30
0.0
 10
112.469662
 20
91.359000
 30
0.0
 10
113.387739
 20
91.412687
 30
0.0
  0
SPLINE
  5
146
100
AcDbEntity
  8
Layer_1
 62
7
100
AcDbSpline
 70
8
 71
3
 72
8
 73
4
 74
0
 40
0
 40
0
 40
0
 40
0
 40
1
 40
1
 40
1
 40
1
 10
113.387739
 20
91.412687
 30
0.0
 10
114.230720
 20
91.382328
 30
0.0
 10
115.109173
 20
92.225710
 30
0.0
 10
115.808675
 20
92.953332
 30
0.0
  0
SPLINE
  5
147
100
AcDbEntity
  8
Layer_1
 62
7
100
AcDbSpline
 70
8
 71
3
 72
8
 73
4
 74
0
 40
0
 40
0
 40
0
 40
0
 40
1
 40
1
 40
1
 40
1
 10
115.808675
 20
92.953332
 30
0.0
 10
116.553234
 20
93.753173
 30
0.0
 10
117.216292
 20
94.700531
 30
0.0
 10
117.702652
 20
95.465220
 30
0.0
  0
SPLINE
  5
148
100
AcDbEntity
  8
Layer_1
 62
7
100
AcDbSpline
 70
8
 71
3
 72
8
 73
4
 74
0
 40
0
 40
0
 40
0
 40
0
 40
1
 40
1
 40
1
 40
1
 10
117.702652
 20
95.465220
 30
0.0
 10
117.701119
 20
95.226833
 30
0.0
 10
117.722472
 20
94.988815
 30
0.0
 10
117.768799
 20
94.757461
 30
0.0
  0
SPLINE
  5
149
100
AcDbEntity
  8
Layer_1
 62
7
100
AcDbSpline
 70
8
 71
3
 72
8
 73
4
 74
0
 40
0
 40
0
 40
0
 40
0
 40
1
 40
1
 40
1
 40
1
 10
117.768799
 20
94.757461
 30
0.0
 10
117.872651
 20
94.261833
 30
0.0
 10
118.000190
 20
93.820483
 30
0.0
 10
118.305681
 20
93.495176
 30
0.0
  0
SPLINE
  5
14a
100
AcDbEntity
  8
Layer_1
 62
7
100
AcDbSpline
 70
8
 71
3
 72
8
 73
4
 74
0
 40
0
 40
0
 40
0
 40
0
 40
1
 40
1
 40
1
 40
1
 10
118.305681
 20
93.495176
 30
0.0
 10
118.614370
 20
93.117145
 30
0.0
 10
119.048933
 20
92.851998
 30
0.0
 10
119.496306
 20
92.851357
 30
0.0
  0
SPLINE
  5
14b
100
AcDbEntity
  8
Layer_1
 62
7
100
AcDbSpline
 70
8
 71
3
 72
8
 73
4
 74
0
 40
0
 40
0
 40
0
 40
0
 40
1
 40
1
 40
1
 40
1
 10
119.496306
 20
92.851357
 30
0.0
 10
120.024528
 20
92.803424
 30
0.0
 10
120.563075
 20
93.071691
 30
0.0
 10
120.936630
 20
93.489665
 30
0.0
  0
SPLINE
  5
14c
100
AcDbEntity
  8
Layer_1
 62
7
100
AcDbSpline
 70
8
 71
3
 72
8
 73
4
 74
0
 40
0
 40
0
 40
0
 40
0
 40
1
 40
1
 40
1
 40
1
 10
120.936630
 20
93.489665
 30
0.0
 10
121.309869
 20
93.907320
 30
0.0
 10
121.574958
 20
94.398079
 30
0.0
 10
121.733138
 20
94.909045
 30
0.0
  0
SPLINE
  5
14d
100
AcDbEntity
  8
Layer_1
 62
7
100
AcDbSpline
 70
8
 71
3
 72
8
 73
4
 74
0
 40
0
 40
0
 40
0
 40
0
 40
1
 40
1
 40
1
 40
1
 10
121.733138
 20
94.909045
 30
0.0
 10
121.841785
 20
95.364089
 30
0.0
 10
121.865350
 20
95.418467
 30
0.0
 10
121.881965
 20
95.604127
 30
0.0
  0
SPLINE
  5
14e
100
AcDbEntity
  8
Layer_1
 62
7
100
AcDbSpline
 70
8
 71
3
 72
8
 73
4
 74
0
 40
0
 40
0
 40
0
 40
0
 40
1
 40
1
 40
1
 40
1
 10
121.881965
 20
95.604127
 30
0.0
 10
121.898915
 20
95.790106
 30
0.0
 10
121.910517
 20
96.080882
 30
0.0
 10
121.901257
 20
96.265586
 30
0.0
  0
SPLINE
  5
14f
100
AcDbEntity
  8
Layer_1
 62
7
100
AcDbSpline
 70
8
 71
3
 72
8
 73
4
 74
0
 40
0
 40
0
 40
0
 40
0
 40
1
 40
1
 40
1
 40
1
 10
121.901257
 20
96.265586
 30
0.0
 10
122.091393
 20
96.144154
 30
0.0
 10
122.604448
 20
95.884219
 30
0.0
 10
123.028493
 20
95.829575
 30
0.0
  0
SPLINE
  5
150
100
AcDbEntity
  8
Layer_1
 62
7
100
AcDbSpline
 70
8
 71
3
 72
8
 73
4
 74
0
 40
0
 40
0
 40
0
 40
0
 40
1
 40
1
 40
1
 40
1
 10
123.028493
 20
95.829575
 30
0.0
 10
123.819068
 20
95.718049
 30
0.0
 10
124.672905
 20
95.787343
 30
0.0
 10
125.241072
 20
96.278813
 30
0.0
  0
SPLINE
  5
151
100
AcDbEntity
  8
Layer_1
 62
7
100
AcDbSpline
 70
8
 71
3
 72
8
 73
4
 74
0
 40
0
 40
0
 40
0
 40
0
 40
1
 40
1
 40
1
 40
1
 10
125.241072
 20
96.278813
 30
0.0
 10
125.260884
 20
96.188700
 30
0.0
 10
125.279889
 20
96.098281
 30
0.0
 10
125.302258
 20
96.008168
 30
0.0
  0
SPLINE
  5
152
100
AcDbEntity
  8
Layer_1
 62
7
100
AcDbSpline
 70
8
 71
3
 72
8
 73
4
 74
0
 40
0
 40
0
 40
0
 40
0
 40
1
 40
1
 40
1
 40
1
 10
125.302258
 20
96.008168
 30
0.0
 10
125.611263
 20
94.768941
 30
0.0
 10
125.956156
 20
93.239726
 30
0.0
 10
127.029215
 20
92.381722
 30
0.0
  0
SPLINE
  5
153
100
AcDbEntity
  8
Layer_1
 62
7
100
AcDbSpline
 70
8
 71
3
 72
8
 73
4
 74
0
 40
0
 40
0
 40
0
 40
0
 40
1
 40
1
 40
1
 40
1
 10
127.029215
 20
92.381722
 30
0.0
 10
127.703470
 20
91.882262
 30
0.0
 10
128.420721
 20
91.856106
 30
0.0
 10
129.086350
 20
92.411488
 30
0.0
  0
SPLINE
  5
154
100
AcDbEntity
  8
Layer_1
 62
7
100
AcDbSpline
 70
8
 71
3
 72
8
 73
4
 74
0
 40
0
 40
0
 40
0
 40
0
 40
1
 40
1
 40
1
 40
1
 10
129.086350
 20
92.411488
 30
0.0
 10
129.581978
 20
92.799744
 30
0.0
 10
130.178590
 20
93.395510
 30
0.0
 10
130.681566
 20
94.076159
 30
0.0
  0
SPLINE
  5
155
100
AcDbEntity
  8
Layer_1
 62
7
100
AcDbSpline
 70
8
 71
3
 72
8
 73
4
 74
0
 40
0
 40
0
 40
0
 40
0
 40
1
 40
1
 40
1
 40
1
 10
130.681566
 20
94.076159
 30
0.0
 10
131.412705
 20
95.062619
 30
0.0
 10
131.858551
 20
96.035411
 30
0.0
 10
132.404665
 20
97.268245
 30
0.0
  0
SPLINE
  5
156
100
AcDbEntity
  8
Layer_1
 62
7
100
AcDbSpline
 70
8
 71
3
 72
8
 73
4
 74
0
 40
0
 40
0
 40
0
 40
0
 40
1
 40
1
 40
1
 40
1
 10
132.404665
 20
97.268245
 30
0.0
 10
132.435984
 20
96.374456
 30
0.0
 10
132.548297
 20
95.485261
 30
0.0
 10
132.768467
 20
94.602018
 30
0.0
  0
SPLINE
  5
157
100
AcDbEntity
  8
Layer_1
 62
7
100
AcDbSpline
 70
8
 71
3
 72
8
 73
4
 74
0
 40
0
 40
0
 40
0
 40
0
 40
1
 40
1
 40
1
 40
1
 10
132.768467
 20
94.602018
 30
0.0
 10
133.131481
 20
93.144857
 30
0.0
 10
133.538188
 20
91.346963
 30
0.0
 10
134.799146
 20
90.337815
 30
0.0
  0
SPLINE
  5
158
100
AcDbEntity
  8
Layer_1
 62
7
100
AcDbSpline
 70
8
 71
3
 72
8
 73
4
 74
0
 40
0
 40
0
 40
0
 40
0
 40
1
 40
1
 40
1
 40
1
 10
134.799146
 20
90.337815
 30
0.0
 10
135.591956
 20
89.750477
 30
0.0
 10
136.434508
 20
89.720248
 30
0.0
 10
137.216774
 20
90.373093
 30
0.0
  0
SPLINE
  5
159
100
AcDbEntity
  8
Layer_1
 62
7
100
AcDbSpline
 70
8
 71
3
 72
8
 73
4
 74
0
 40
0
 40
0
 40
0
 40
0
 40
1
 40
1
 40
1
 40
1
 10
137.216774
 20
90.373093
 30
0.0
 10
137.799002
 20
90.829415
 30
0.0
 10
138.500603
 20
91.530851
 30
0.0
 10
139.091458
 20
92.331010
 30
0.0
  0
SPLINE
  5
15a
100
AcDbEntity
  8
Layer_1
 62
7
100
AcDbSpline
 70
8
 71
3
 72
8
 73
4
 74
0
 40
0
 40
0
 40
0
 40
0
 40
1
 40
1
 40
1
 40
1
 10
139.091458
 20
92.331010
 30
0.0
 10
140.000905
 20
93.559052
 30
0.0
 10
140.535928
 20
94.769740
 30
0.0
 10
141.231275
 20
96.343857
 30
0.0
  0
SPLINE
  5
15b
100
AcDbEntity
  8
Layer_1
 62
7
100
AcDbSpline
 70
8
 71
3
 72
8
 73
4
 74
0
 40
0
 40
0
 40
0
 40
0
 40
1
 40
1
 40
1
 40
1
 10
141.231275
 20
96.343857
 30
0.0
 10
141.241500
 20
96.271320
 30
0.0
 10
141.251951
 20
96.199040
 30
0.0
 10
141.266003
 20
96.127782
 30
0.0
  0
SPLINE
  5
15c
100
AcDbEntity
  8
Layer_1
 62
7
100
AcDbSpline
 70
8
 71
3
 72
8
 73
4
 74
0
 40
0
 40
0
 40
0
 40
0
 40
1
 40
1
 40
1
 40
1
 10
141.266003
 20
96.127782
 30
0.0
 10
141.370177
 20
95.632155
 30
0.0
 10
141.497394
 20
95.190804
 30
0.0
 10
141.802886
 20
94.865498
 30
0.0
  0
SPLINE
  5
15d
100
AcDbEntity
  8
Layer_1
 62
7
100
AcDbSpline
 70
8
 71
3
 72
8
 73
4
 74
0
 40
0
 40
0
 40
0
 40
0
 40
1
 40
1
 40
1
 40
1
 10
141.802886
 20
94.865498
 30
0.0
 10
142.111575
 20
94.487467
 30
0.0
 10
142.546138
 20
94.221766
 30
0.0
 10
142.993511
 20
94.221128
 30
0.0
  0
SPLINE
  5
15e
100
AcDbEntity
  8
Layer_1
 62
7
100
AcDbSpline
 70
8
 71
3
 72
8
 73
4
 74
0
 40
0
 40
0
 40
0
 40
0
 40
1
 40
1
 40
1
 40
1
 10
142.993511
 20
94.221128
 30
0.0
 10
143.521732
 20
94.173196
 30
0.0
 10
144.060830
 20
94.442331
 30
0.0
 10
144.434388
 20
94.859986
 30
0.0
  0
SPLINE
  5
15f
100
AcDbEntity
  8
Layer_1
 62
7
100
AcDbSpline
 70
8
 71
3
 72
8
 73
4
 74
0
 40
0
 40
0
 40
0
 40
0
 40
1
 40
1
 40
1
 40
1
 10
144.434388
 20
94.859986
 30
0.0
 10
144.807627
 20
95.277641
 30
0.0
 10
145.071846
 20
95.768719
 30
0.0
 10
145.230342
 20
96.279366
 30
0.0
  0
SPLINE
  5
160
100
AcDbEntity
  8
Layer_1
 62
7
100
AcDbSpline
 70
8
 71
3
 72
8
 73
4
 74
0
 40
0
 40
0
 40
0
 40
0
 40
1
 40
1
 40
1
 40
1
 10
145.230342
 20
96.279366
 30
0.0
 10
145.338670
 20
96.734407
 30
0.0
 10
145.362236
 20
96.789020
 30
0.0
 10
145.379172
 20
96.974999
 30
0.0
  0
SPLINE
  5
161
100
AcDbEntity
  8
Layer_1
 62
7
100
AcDbSpline
 70
8
 71
3
 72
8
 73
4
 74
0
 40
0
 40
0
 40
0
 40
0
 40
1
 40
1
 40
1
 40
1
 10
145.379172
 20
96.974999
 30
0.0
 10
145.396427
 20
97.160659
 30
0.0
 10
145.408043
 20
97.451204
 30
0.0
 10
145.398464
 20
97.635907
 30
0.0
  0
SPLINE
  5
162
100
AcDbEntity
  8
Layer_1
 62
7
100
AcDbSpline
 70
8
 71
3
 72
8
 73
4
 74
0
 40
0
 40
0
 40
0
 40
0
 40
1
 40
1
 40
1
 40
1
 10
145.398464
 20
97.635907
 30
0.0
 10
145.588916
 20
97.514794
 30
0.0
 10
146.101421
 20
97.253987
 30
0.0
 10
146.525146
 20
97.199343
 30
0.0
  0
SPLINE
  5
163
100
AcDbEntity
  8
Layer_1
 62
7
100
AcDbSpline
 70
8
 71
3
 72
8
 73
4
 74
0
 40
0
 40
0
 40
0
 40
0
 40
1
 40
1
 40
1
 40
1
 10
146.525146
 20
97.199343
 30
0.0
 10
147.415103
 20
97.074079
 30
0.0
 10
148.384847
 20
97.179895
 30
0.0
 10
148.936715
 20
97.856393
 30
0.0
  0
SPLINE
  5
164
100
AcDbEntity
  8
Layer_1
 62
7
100
AcDbSpline
 70
8
 71
3
 72
8
 73
4
 74
0
 40
0
 40
0
 40
0
 40
0
 40
1
 40
1
 40
1
 40
1
 10
148.936715
 20
97.856393
 30
0.0
 10
148.975699
 20
96.701847
 30
0.0
 10
149.253075
 20
95.551981
 30
0.0
 10
149.453755
 20
94.414053
 30
0.0
  0
SPLINE
  5
165
100
AcDbEntity
  8
Layer_1
 62
7
100
AcDbSpline
 70
8
 71
3
 72
8
 73
4
 74
0
 40
0
 40
0
 40
0
 40
0
 40
1
 40
1
 40
1
 40
1
 10
149.453755
 20
94.414053
 30
0.0
 10
149.552496
 20
94.023559
 30
0.0
 10
149.624785
 20
93.631905
 30
0.0
 10
149.856142
 20
93.222877
 30
0.0
  0
SPLINE
  5
166
100
AcDbEntity
  8
Layer_1
 62
7
100
AcDbSpline
 70
8
 71
3
 72
8
 73
4
 74
0
 40
0
 40
0
 40
0
 40
0
 40
1
 40
1
 40
1
 40
1
 10
149.856142
 20
93.222877
 30
0.0
 10
149.859977
 20
93.144267
 30
0.0
 10
149.941091
 20
93.095014
 30
0.0
 10
150.024812
 20
92.994672
 30
0.0
  0
SPLINE
  5
167
100
AcDbEntity
  8
Layer_1
 62
7
100
AcDbSpline
 70
8
 71
3
 72
8
 73
4
 74
0
 40
0
 40
0
 40
0
 40
0
 40
1
 40
1
 40
1
 40
1
 10
150.024812
 20
92.994672
 30
0.0
 10
150.135378
 20
92.895293
 30
0.0
 10
150.341025
 20
92.986479
 30
0.0
 10
150.414521
 20
93.096097
 30
0.0
  0
SPLINE
  5
168
100
AcDbEntity
  8
Layer_1
 62
7
100
AcDbSpline
 70
8
 71
3
 72
8
 73
4
 74
0
 40
0
 40
0
 40
0
 40
0
 40
1
 40
1
 40
1
 40
1
 10
150.414521
 20
93.096097
 30
0.0
 10
150.436890
 20
93.176943
 30
0.0
 10
150.514589
 20
93.207888
 30
0.0
 10
150.510435
 20
93.286817
 30
0.0
  0
SPLINE
  5
169
100
AcDbEntity
  8
Layer_1
 62
7
100
AcDbSpline
 70
8
 71
3
 72
8
 73
4
 74
0
 40
0
 40
0
 40
0
 40
0
 40
1
 40
1
 40
1
 40
1
 10
150.510435
 20
93.286817
 30
0.0
 10
150.881754
 20
94.787119
 30
0.0
 10
151.203411
 20
96.231485
 30
0.0
 10
151.994305
 20
97.756072
 30
0.0
  0
SPLINE
  5
16a
100
AcDbEntity
  8
Layer_1
 62
7
100
AcDbSpline
 70
8
 71
3
 72
8
 73
4
 74
0
 40
0
 40
0
 40
0
 40
0
 40
1
 40
1
 40
1
 40
1
 10
151.994305
 20
97.756072
 30
0.0
 10
152.259854
 20
98.220381
 30
0.0
 10
153.276554
 20
99.441743
 30
0.0
 10
153.878909
 20
98.447296
 30
0.0
  0
SPLINE
  5
16b
100
AcDbEntity
  8
Layer_1
 62
7
100
AcDbSpline
 70
8
 71
3
 72
8
 73
4
 74
0
 40
0
 40
0
 40
0
 40
0
 40
1
 40
1
 40
1
 40
1
 10
153.878909
 20
98.447296
 30
0.0
 10
154.224346
 20
97.859958
 30
0.0
 10
154.085081
 20
96.980073
 30
0.0
 10
154.094987
 20
96.267790
 30
0.0
  0
SPLINE
  5
16c
100
AcDbEntity
  8
Layer_1
 62
7
100
AcDbSpline
 70
8
 71
3
 72
8
 73
4
 74
0
 40
0
 40
0
 40
0
 40
0
 40
1
 40
1
 40
1
 40
1
 10
154.094987
 20
96.267790
 30
0.0
 10
154.146755
 20
93.683565
 30
0.0
 10
155.512138
 20
91.651520
 30
0.0
 10
157.412202
 20
93.610380
 30
0.0
  0
SPLINE
  5
16d
100
AcDbEntity
  8
Layer_1
 62
7
100
AcDbSpline
 70
8
 71
3
 72
8
 73
4
 74
0
 40
0
 40
0
 40
0
 40
0
 40
1
 40
1
 40
1
 40
1
 10
157.412202
 20
93.610380
 30
0.0
 10
158.667724
 20
94.792408
 30
0.0
 10
159.456190
 20
97.398846
 30
0.0
 10
159.587847
 20
98.964336
 30
0.0
  0
SPLINE
  5
16e
100
AcDbEntity
  8
Layer_1
 62
7
100
AcDbSpline
 70
8
 71
3
 72
8
 73
4
 74
0
 40
0
 40
0
 40
0
 40
0
 40
1
 40
1
 40
1
 40
1
 10
159.587847
 20
98.964336
 30
0.0
 10
159.630987
 20
99.151593
 30
0.0
 10
159.600914
 20
99.229974
 30
0.0
 10
159.469887
 20
99.222304
 30
0.0
  0
SPLINE
  5
16f
100
AcDbEntity
  8
Layer_1
 62
7
100
AcDbSpline
 70
8
 71
3
 72
8
 73
4
 74
0
 40
0
 40
0
 40
0
 40
0
 40
1
 40
1
 40
1
 40
1
 10
159.469887
 20
99.222304
 30
0.0
 10
159.336954
 20
99.240837
 30
0.0
 10
159.366068
 20
99.189721
 30
0.0
 10
159.291294
 20
99.105997
 30
0.0
  0
SPLINE
  5
170
100
AcDbEntity
  8
Layer_1
 62
7
100
AcDbSpline
 70
8
 71
3
 72
8
 73
4
 74
0
 40
0
 40
0
 40
0
 40
0
 40
1
 40
1
 40
1
 40
1
 10
159.291294
 20
99.105997
 30
0.0
 10
159.328680
 20
98.369109
 30
0.0
 10
158.859894
 20
97.232603
 30
0.0
 10
158.686060
 20
96.509773
 30
0.0
  0
SPLINE
  5
171
100
AcDbEntity
  8
Layer_1
 62
7
100
AcDbSpline
 70
8
 71
3
 72
8
 73
4
 74
0
 40
0
 40
0
 40
0
 40
0
 40
1
 40
1
 40
1
 40
1
 10
158.686060
 20
96.509773
 30
0.0
 10
158.390471
 20
95.594893
 30
0.0
 10
157.468259
 20
94.062051
 30
0.0
 10
156.984457
 20
93.743775
 30
0.0
  0
SPLINE
  5
172
100
AcDbEntity
  8
Layer_1
 62
7
100
AcDbSpline
 70
8
 71
3
 72
8
 73
4
 74
0
 40
0
 40
0
 40
0
 40
0
 40
1
 40
1
 40
1
 40
1
 10
156.984457
 20
93.743775
 30
0.0
 10
155.087272
 20
92.761788
 30
0.0
 10
155.029394
 20
95.477833
 30
0.0
 10
154.978585
 20
96.478353
 30
0.0
  0
SPLINE
  5
173
100
AcDbEntity
  8
Layer_1
 62
7
100
AcDbSpline
 70
8
 71
3
 72
8
 73
4
 74
0
 40
0
 40
0
 40
0
 40
0
 40
1
 40
1
 40
1
 40
1
 10
154.978585
 20
96.478353
 30
0.0
 10
155.046330
 20
97.221314
 30
0.0
 10
155.056185
 20
98.066908
 30
0.0
 10
154.734395
 20
98.708572
 30
0.0
  0
SPLINE
  5
174
100
AcDbEntity
  8
Layer_1
 62
7
100
AcDbSpline
 70
8
 71
3
 72
8
 73
4
 74
0
 40
0
 40
0
 40
0
 40
0
 40
1
 40
1
 40
1
 40
1
 10
154.734395
 20
98.708572
 30
0.0
 10
154.583248
 20
99.095868
 30
0.0
 10
154.336707
 20
99.292170
 30
0.0
 10
153.991908
 20
99.351288
 30
0.0
  0
SPLINE
  5
175
100
AcDbEntity
  8
Layer_1
 62
7
100
AcDbSpline
 70
8
 71
3
 72
8
 73
4
 74
0
 40
0
 40
0
 40
0
 40
0
 40
1
 40
1
 40
1
 40
1
 10
153.991908
 20
99.351288
 30
0.0
 10
152.954321
 20
99.581048
 30
0.0
 10
152.254861
 20
98.853648
 30
0.0
 10
151.688932
 20
98.081288
 30
0.0
  0
SPLINE
  5
176
100
AcDbEntity
  8
Layer_1
 62
7
100
AcDbSpline
 70
8
 71
3
 72
8
 73
4
 74
0
 40
0
 40
0
 40
0
 40
0
 40
1
 40
1
 40
1
 40
1
 10
151.688932
 20
98.081288
 30
0.0
 10
151.027457
 20
97.118794
 30
0.0
 10
150.866114
 20
96.132585
 30
0.0
 10
150.498307
 20
95.081576
 30
0.0
  0
LWPOLYLINE
  5
177
100
AcDbEntity
  8
Layer_1
 62
7
100
AcDbPolyline
 90
2
 70
0
 10
113.616491
 20
97.815050
 30
0.0
 10
113.712405
 20
97.477157
 30
0.0
  0
SPLINE
  5
178
100
AcDbEntity
  8
Layer_1
 62
7
100
AcDbSpline
 70
8
 71
3
 72
8
 73
4
 74
0
 40
0
 40
0
 40
0
 40
0
 40
1
 40
1
 40
1
 40
1
 10
150.423894
 20
94.997790
 30
0.0
 10
150.397690
 20
94.996511
 30
0.0
 10
150.344127
 20
95.019916
 30
0.0
 10
150.288845
 20
95.069449
 30
0.0
  0
SPLINE
  5
179
100
AcDbEntity
  8
Layer_1
 62
7
100
AcDbSpline
 70
8
 71
3
 72
8
 73
4
 74
0
 40
0
 40
0
 40
0
 40
0
 40
1
 40
1
 40
1
 40
1
 10
150.288845
 20
95.069449
 30
0.0
 10
150.158788
 20
95.563476
 30
0.0
 10
150.054251
 20
96.058858
 30
0.0
 10
150.104740
 20
96.616159
 30
0.0
  0
SPLINE
  5
17a
100
AcDbEntity
  8
Layer_1
 62
7
100
AcDbSpline
 70
8
 71
3
 72
8
 73
4
 74
0
 40
0
 40
0
 40
0
 40
0
 40
1
 40
1
 40
1
 40
1
 10
150.104740
 20
96.616159
 30
0.0
 10
150.105762
 20
97.117857
 30
0.0
 10
150.056297
 20
97.590263
 30
0.0
 10
150.029773
 20
98.116565
 30
0.0
  0
SPLINE
  5
17b
100
AcDbEntity
  8
Layer_1
 62
7
100
AcDbSpline
 70
8
 71
3
 72
8
 73
4
 74
0
 40
0
 40
0
 40
0
 40
0
 40
1
 40
1
 40
1
 40
1
 10
150.029773
 20
98.116565
 30
0.0
 10
149.987592
 20
98.431325
 30
0.0
 10
150.072022
 20
98.832179
 30
0.0
 10
149.871023
 20
99.163875
 30
0.0
  0
SPLINE
  5
17c
100
AcDbEntity
  8
Layer_1
 62
7
100
AcDbSpline
 70
8
 71
3
 72
8
 73
4
 74
0
 40
0
 40
0
 40
0
 40
0
 40
1
 40
1
 40
1
 40
1
 10
149.871023
 20
99.163875
 30
0.0
 10
149.759819
 20
99.289139
 30
0.0
 10
149.625307
 20
99.334097
 30
0.0
 10
149.468086
 20
99.324829
 30
0.0
  0
SPLINE
  5
17d
100
AcDbEntity
  8
Layer_1
 62
7
100
AcDbSpline
 70
8
 71
3
 72
8
 73
4
 74
0
 40
0
 40
0
 40
0
 40
0
 40
1
 40
1
 40
1
 40
1
 10
149.468086
 20
99.324829
 30
0.0
 10
149.180807
 20
99.281689
 30
0.0
 10
149.005784
 20
99.113434
 30
0.0
 10
148.966479
 20
98.846925
 30
0.0
  0
SPLINE
  5
17e
100
AcDbEntity
  8
Layer_1
 62
7
100
AcDbSpline
 70
8
 71
3
 72
8
 73
4
 74
0
 40
0
 40
0
 40
0
 40
0
 40
1
 40
1
 40
1
 40
1
 10
148.966479
 20
98.846925
 30
0.0
 10
148.955308
 20
98.742752
 30
0.0
 10
148.953028
 20
98.638792
 30
0.0
 10
148.946636
 20
98.534937
 30
0.0
  0
LWPOLYLINE
  5
17f
100
AcDbEntity
  8
Layer_1
 62
7
100
AcDbPolyline
 90
3
 70
0
 10
150.498307
 20
95.081576
 30
0.0
 10
150.448698
 20
95.025902
 30
0.0
 10
150.423894
 20
94.997790
 30
0.0
  0
SPLINE
  5
180
100
AcDbEntity
  8
Layer_1
 62
7
100
AcDbSpline
 70
8
 71
3
 72
8
 73
4
 74
0
 40
0
 40
0
 40
0
 40
0
 40
1
 40
1
 40
1
 40
1
 10
148.884899
 20
98.393276
 30
0.0
 10
148.503993
 20
97.605577
 30
0.0
 10
147.538708
 20
97.443584
 30
0.0
 10
146.743979
 20
97.555429
 30
0.0
  0
SPLINE
  5
181
100
AcDbEntity
  8
Layer_1
 62
7
100
AcDbSpline
 70
8
 71
3
 72
8
 73
4
 74
0
 40
0
 40
0
 40
0
 40
0
 40
1
 40
1
 40
1
 40
1
 10
146.743979
 20
97.555429
 30
0.0
 10
146.398863
 20
97.614865
 30
0.0
 10
145.782493
 20
97.843061
 30
0.0
 10
145.453035
 20
98.114361
 30
0.0
  0
SPLINE
  5
182
100
AcDbEntity
  8
Layer_1
 62
7
100
AcDbSpline
 70
8
 71
3
 72
8
 73
4
 74
0
 40
0
 40
0
 40
0
 40
0
 40
1
 40
1
 40
1
 40
1
 10
145.453035
 20
98.114361
 30
0.0
 10
145.258745
 20
98.314081
 30
0.0
 10
145.383267
 20
98.453073
 30
0.0
 10
145.185144
 20
98.731722
 30
0.0
  0
SPLINE
  5
183
100
AcDbEntity
  8
Layer_1
 62
7
100
AcDbSpline
 70
8
 71
3
 72
8
 73
4
 74
0
 40
0
 40
0
 40
0
 40
0
 40
1
 40
1
 40
1
 40
1
 10
145.185144
 20
98.731722
 30
0.0
 10
144.987021
 20
99.010691
 30
0.0
 10
144.990416
 20
98.958386
 30
0.0
 10
144.797088
 20
99.131905
 30
0.0
  0
SPLINE
  5
184
100
AcDbEntity
  8
Layer_1
 62
7
100
AcDbSpline
 70
8
 71
3
 72
8
 73
4
 74
0
 40
0
 40
0
 40
0
 40
0
 40
1
 40
1
 40
1
 40
1
 10
144.797088
 20
99.131905
 30
0.0
 10
144.465071
 20
99.455611
 30
0.0
 10
143.939263
 20
99.451460
 30
0.0
 10
143.497322
 20
99.346326
 30
0.0
  0
SPLINE
  5
185
100
AcDbEntity
  8
Layer_1
 62
7
100
AcDbSpline
 70
8
 71
3
 72
8
 73
4
 74
0
 40
0
 40
0
 40
0
 40
0
 40
1
 40
1
 40
1
 40
1
 10
143.497322
 20
99.346326
 30
0.0
 10
143.081265
 20
99.243112
 30
0.0
 10
142.692252
 20
99.141046
 30
0.0
 10
142.305594
 20
98.986383
 30
0.0
  0
SPLINE
  5
186
100
AcDbEntity
  8
Layer_1
 62
7
100
AcDbSpline
 70
8
 71
3
 72
8
 73
4
 74
0
 40
0
 40
0
 40
0
 40
0
 40
1
 40
1
 40
1
 40
1
 10
142.305594
 20
98.986383
 30
0.0
 10
141.971663
 20
98.834595
 30
0.0
 10
141.720457
 20
98.582672
 30
0.0
 10
141.554287
 20
98.229564
 30
0.0
  0
SPLINE
  5
187
100
AcDbEntity
  8
Layer_1
 62
7
100
AcDbSpline
 70
8
 71
3
 72
8
 73
4
 74
0
 40
0
 40
0
 40
0
 40
0
 40
1
 40
1
 40
1
 40
1
 10
141.554287
 20
98.229564
 30
0.0
 10
141.435415
 20
98.023455
 30
0.0
 10
141.351172
 20
97.802187
 30
0.0
 10
141.293012
 20
97.573067
 30
0.0
  0
SPLINE
  5
188
100
AcDbEntity
  8
Layer_1
 62
7
100
AcDbSpline
 70
8
 71
3
 72
8
 73
4
 74
0
 40
0
 40
0
 40
0
 40
0
 40
1
 40
1
 40
1
 40
1
 10
141.293012
 20
97.573067
 30
0.0
 10
140.315820
 20
95.168433
 30
0.0
 10
139.511326
 20
93.758041
 30
0.0
 10
139.153745
 20
93.179330
 30
0.0
  0
SPLINE
  5
189
100
AcDbEntity
  8
Layer_1
 62
7
100
AcDbSpline
 70
8
 71
3
 72
8
 73
4
 74
0
 40
0
 40
0
 40
0
 40
0
 40
1
 40
1
 40
1
 40
1
 10
139.153745
 20
93.179330
 30
0.0
 10
138.687516
 20
92.518496
 30
0.0
 10
137.819310
 20
90.962765
 30
0.0
 10
136.780764
 20
90.691146
 30
0.0
  0
SPLINE
  5
18a
100
AcDbEntity
  8
Layer_1
 62
7
100
AcDbSpline
 70
8
 71
3
 72
8
 73
4
 74
0
 40
0
 40
0
 40
0
 40
0
 40
1
 40
1
 40
1
 40
1
 10
136.780764
 20
90.691146
 30
0.0
 10
135.045272
 20
90.167077
 30
0.0
 10
134.247334
 20
93.447938
 30
0.0
 10
134.063271
 20
94.492877
 30
0.0
  0
SPLINE
  5
18b
100
AcDbEntity
  8
Layer_1
 62
7
100
AcDbSpline
 70
8
 71
3
 72
8
 73
4
 74
0
 40
0
 40
0
 40
0
 40
0
 40
1
 40
1
 40
1
 40
1
 10
134.063271
 20
94.492877
 30
0.0
 10
133.811783
 20
95.824774
 30
0.0
 10
133.679489
 20
97.400847
 30
0.0
 10
133.716559
 20
98.749361
 30
0.0
  0
SPLINE
  5
18c
100
AcDbEntity
  8
Layer_1
 62
7
100
AcDbSpline
 70
8
 71
3
 72
8
 73
4
 74
0
 40
0
 40
0
 40
0
 40
0
 40
1
 40
1
 40
1
 40
1
 10
133.716559
 20
98.749361
 30
0.0
 10
133.762894
 20
99.385911
 30
0.0
 10
133.785220
 20
99.994023
 30
0.0
 10
134.071540
 20
100.565063
 30
0.0
  0
SPLINE
  5
18d
100
AcDbEntity
  8
Layer_1
 62
7
100
AcDbSpline
 70
8
 71
3
 72
8
 73
4
 74
0
 40
0
 40
0
 40
0
 40
0
 40
1
 40
1
 40
1
 40
1
 10
134.071540
 20
100.565063
 30
0.0
 10
134.380548
 20
101.216951
 30
0.0
 10
135.246426
 20
102.825624
 30
0.0
 10
135.366895
 20
103.043880
 30
0.0
  0
SPLINE
  5
18e
100
AcDbEntity
  8
Layer_1
 62
7
100
AcDbSpline
 70
8
 71
3
 72
8
 73
4
 74
0
 40
0
 40
0
 40
0
 40
0
 40
1
 40
1
 40
1
 40
1
 10
135.366895
 20
103.043880
 30
0.0
 10
135.460844
 20
103.260537
 30
0.0
 10
135.668125
 20
103.325524
 30
0.0
 10
135.902677
 20
103.365789
 30
0.0
  0
SPLINE
  5
18f
100
AcDbEntity
  8
Layer_1
 62
7
100
AcDbSpline
 70
8
 71
3
 72
8
 73
4
 74
0
 40
0
 40
0
 40
0
 40
0
 40
1
 40
1
 40
1
 40
1
 10
135.902677
 20
103.365789
 30
0.0
 10
136.112625
 20
103.377933
 30
0.0
 10
139.032022
 20
103.389004
 30
0.0
 10
140.043408
 20
103.157980
 30
0.0
  0
SPLINE
  5
190
100
AcDbEntity
  8
Layer_1
 62
7
100
AcDbSpline
 70
8
 71
3
 72
8
 73
4
 74
0
 40
0
 40
0
 40
0
 40
0
 40
1
 40
1
 40
1
 40
1
 10
140.043408
 20
103.157980
 30
0.0
 10
140.230984
 20
103.089276
 30
0.0
 10
140.218911
 20
103.326424
 30
0.0
 10
140.187273
 20
103.430282
 30
0.0
  0
SPLINE
  5
191
100
AcDbEntity
  8
Layer_1
 62
7
100
AcDbSpline
 70
8
 71
3
 72
8
 73
4
 74
0
 40
0
 40
0
 40
0
 40
0
 40
1
 40
1
 40
1
 40
1
 10
140.187273
 20
103.430282
 30
0.0
 10
140.176741
 20
103.640543
 30
0.0
 10
140.015459
 20
103.710817
 30
0.0
 10
139.827880
 20
103.779202
 30
0.0
  0
SPLINE
  5
192
100
AcDbEntity
  8
Layer_1
 62
7
100
AcDbSpline
 70
8
 71
3
 72
8
 73
4
 74
0
 40
0
 40
0
 40
0
 40
0
 40
1
 40
1
 40
1
 40
1
 10
139.827880
 20
103.779202
 30
0.0
 10
139.404474
 20
103.833524
 30
0.0
 10
136.529335
 20
103.982582
 30
0.0
 10
135.978745
 20
103.950629
 30
0.0
  0
SPLINE
  5
193
100
AcDbEntity
  8
Layer_1
 62
7
100
AcDbSpline
 70
8
 71
3
 72
8
 73
4
 74
0
 40
0
 40
0
 40
0
 40
0
 40
1
 40
1
 40
1
 40
1
 10
135.978745
 20
103.950629
 30
0.0
 10
135.900134
 20
103.945823
 30
0.0
 10
135.768814
 20
103.938463
 30
0.0
 10
135.686049
 20
104.012916
 30
0.0
  0
SPLINE
  5
194
100
AcDbEntity
  8
Layer_1
 62
7
100
AcDbSpline
 70
8
 71
3
 72
8
 73
4
 74
0
 40
0
 40
0
 40
0
 40
0
 40
1
 40
1
 40
1
 40
1
 10
135.686049
 20
104.012916
 30
0.0
 10
135.579959
 20
104.033035
 30
0.0
 10
135.523594
 20
104.108976
 30
0.0
 10
135.518480
 20
104.214109
 30
0.0
  0
SPLINE
  5
195
100
AcDbEntity
  8
Layer_1
 62
7
100
AcDbSpline
 70
8
 71
3
 72
8
 73
4
 74
0
 40
0
 40
0
 40
0
 40
0
 40
1
 40
1
 40
1
 40
1
 10
135.518480
 20
104.214109
 30
0.0
 10
135.509226
 20
104.398491
 30
0.0
 10
135.554757
 20
104.533305
 30
0.0
 10
135.545491
 20
104.717368
 30
0.0
  0
SPLINE
  5
196
100
AcDbEntity
  8
Layer_1
 62
7
100
AcDbSpline
 70
8
 71
3
 72
8
 73
4
 74
0
 40
0
 40
0
 40
0
 40
0
 40
1
 40
1
 40
1
 40
1
 10
135.545491
 20
104.717368
 30
0.0
 10
135.701111
 20
105.280740
 30
0.0
 10
135.539607
 20
105.878605
 30
0.0
 10
135.301854
 20
106.418970
 30
0.0
  0
SPLINE
  5
197
100
AcDbEntity
  8
Layer_1
 62
7
100
AcDbSpline
 70
8
 71
3
 72
8
 73
4
 74
0
 40
0
 40
0
 40
0
 40
0
 40
1
 40
1
 40
1
 40
1
 10
135.301854
 20
106.418970
 30
0.0
 10
135.145351
 20
106.785896
 30
0.0
 10
134.877398
 20
106.998392
 30
0.0
 10
134.546137
 20
107.013731
 30
0.0
  0
LWPOLYLINE
  5
198
100
AcDbEntity
  8
Layer_1
 62
7
100
AcDbPolyline
 90
2
 70
0
 10
148.946636
 20
98.534937
 30
0.0
 10
148.884899
 20
98.393276
 30
0.0
  0
SPLINE
  5
199
100
AcDbEntity
  8
Layer_1
 62
7
100
AcDbSpline
 70
8
 71
3
 72
8
 73
4
 74
0
 40
0
 40
0
 40
0
 40
0
 40
1
 40
1
 40
1
 40
1
 10
134.706540
 20
106.130133
 30
0.0
 10
134.776718
 20
106.133048
 30
0.0
 10
134.836986
 20
106.101448
 30
0.0
 10
134.900018
 20
106.025953
 30
0.0
  0
SPLINE
  5
19a
100
AcDbEntity
  8
Layer_1
 62
7
100
AcDbSpline
 70
8
 71
3
 72
8
 73
4
 74
0
 40
0
 40
0
 40
0
 40
0
 40
1
 40
1
 40
1
 40
1
 10
134.900018
 20
106.025953
 30
0.0
 10
135.019212
 20
105.742190
 30
0.0
 10
135.031940
 20
105.505414
 30
0.0
 10
135.046641
 20
105.216218
 30
0.0
  0
SPLINE
  5
19b
100
AcDbEntity
  8
Layer_1
 62
7
100
AcDbSpline
 70
8
 71
3
 72
8
 73
4
 74
0
 40
0
 40
0
 40
0
 40
0
 40
1
 40
1
 40
1
 40
1
 10
135.046641
 20
105.216218
 30
0.0
 10
135.063896
 20
104.873979
 30
0.0
 10
135.079765
 20
104.558268
 30
0.0
 10
134.911041
 20
104.258206
 30
0.0
  0
SPLINE
  5
19c
100
AcDbEntity
  8
Layer_1
 62
7
100
AcDbSpline
 70
8
 71
3
 72
8
 73
4
 74
0
 40
0
 40
0
 40
0
 40
0
 40
1
 40
1
 40
1
 40
1
 10
134.911041
 20
104.258206
 30
0.0
 10
134.865025
 20
104.123036
 30
0.0
 10
134.765547
 20
104.012125
 30
0.0
 10
134.637088
 20
103.951730
 30
0.0
  0
SPLINE
  5
19d
100
AcDbEntity
  8
Layer_1
 62
7
100
AcDbSpline
 70
8
 71
3
 72
8
 73
4
 74
0
 40
0
 40
0
 40
0
 40
0
 40
1
 40
1
 40
1
 40
1
 10
134.637088
 20
103.951730
 30
0.0
 10
134.454623
 20
103.914663
 30
0.0
 10
134.321059
 20
103.959420
 30
0.0
 10
134.262261
 20
104.087880
 30
0.0
  0
SPLINE
  5
19e
100
AcDbEntity
  8
Layer_1
 62
7
100
AcDbSpline
 70
8
 71
3
 72
8
 73
4
 74
0
 40
0
 40
0
 40
0
 40
0
 40
1
 40
1
 40
1
 40
1
 10
134.262261
 20
104.087880
 30
0.0
 10
134.230626
 20
104.191735
 30
0.0
 10
134.200725
 20
104.269309
 30
0.0
 10
134.225329
 20
104.296792
 30
0.0
  0
SPLINE
  5
19f
100
AcDbEntity
  8
Layer_1
 62
7
100
AcDbSpline
 70
8
 71
3
 72
8
 73
4
 74
0
 40
0
 40
0
 40
0
 40
0
 40
1
 40
1
 40
1
 40
1
 10
134.225329
 20
104.296792
 30
0.0
 10
134.221496
 20
104.376040
 30
0.0
 10
134.253362
 20
104.774244
 30
0.0
 10
134.269979
 20
104.959904
 30
0.0
  0
SPLINE
  5
1a0
100
AcDbEntity
  8
Layer_1
 62
7
100
AcDbSpline
 70
8
 71
3
 72
8
 73
4
 74
0
 40
0
 40
0
 40
0
 40
0
 40
1
 40
1
 40
1
 40
1
 10
134.269979
 20
104.959904
 30
0.0
 10
134.336764
 20
105.201167
 30
0.0
 10
134.349936
 20
105.466510
 30
0.0
 10
134.413845
 20
105.760820
 30
0.0
  0
SPLINE
  5
1a1
100
AcDbEntity
  8
Layer_1
 62
7
100
AcDbSpline
 70
8
 71
3
 72
8
 73
4
 74
0
 40
0
 40
0
 40
0
 40
0
 40
1
 40
1
 40
1
 40
1
 10
134.413845
 20
105.760820
 30
0.0
 10
134.484465
 20
105.923151
 30
0.0
 10
134.558221
 20
106.032718
 30
0.0
 10
134.632677
 20
106.115801
 30
0.0
  0
SPLINE
  5
1a2
100
AcDbEntity
  8
Layer_1
 62
7
100
AcDbSpline
 70
8
 71
3
 72
8
 73
4
 74
0
 40
0
 40
0
 40
0
 40
0
 40
1
 40
1
 40
1
 40
1
 10
134.632677
 20
106.115801
 30
0.0
 10
134.658563
 20
106.123958
 30
0.0
 10
134.683150
 20
106.129162
 30
0.0
 10
134.706540
 20
106.130133
 30
0.0
  0
LWPOLYLINE
  5
1a3
100
AcDbEntity
  8
Layer_1
 62
7
100
AcDbPolyline
 90
2
 70
0
 10
134.546137
 20
107.013731
 30
0.0
 10
134.546137
 20
107.013731
 30
0.0
  0
SPLINE
  5
1a4
100
AcDbEntity
  8
Layer_1
 62
7
100
AcDbSpline
 70
8
 71
3
 72
8
 73
4
 74
0
 40
0
 40
0
 40
0
 40
0
 40
1
 40
1
 40
1
 40
1
 10
126.952045
 20
105.812082
 30
0.0
 10
127.011689
 20
105.814382
 30
0.0
 10
127.063412
 20
105.787887
 30
0.0
 10
127.116857
 20
105.723888
 30
0.0
  0
SPLINE
  5
1a5
100
AcDbEntity
  8
Layer_1
 62
7
100
AcDbSpline
 70
8
 71
3
 72
8
 73
4
 74
0
 40
0
 40
0
 40
0
 40
0
 40
1
 40
1
 40
1
 40
1
 10
127.116857
 20
105.723888
 30
0.0
 10
127.218477
 20
105.482625
 30
0.0
 10
127.228970
 20
105.281245
 30
0.0
 10
127.241432
 20
105.034868
 30
0.0
  0
SPLINE
  5
1a6
100
AcDbEntity
  8
Layer_1
 62
7
100
AcDbSpline
 70
8
 71
3
 72
8
 73
4
 74
0
 40
0
 40
0
 40
0
 40
0
 40
1
 40
1
 40
1
 40
1
 10
127.241432
 20
105.034868
 30
0.0
 10
127.256131
 20
104.744074
 30
0.0
 10
127.269708
 20
104.475495
 30
0.0
 10
127.126229
 20
104.220174
 30
0.0
  0
SPLINE
  5
1a7
100
AcDbEntity
  8
Layer_1
 62
7
100
AcDbSpline
 70
8
 71
3
 72
8
 73
4
 74
0
 40
0
 40
0
 40
0
 40
0
 40
1
 40
1
 40
1
 40
1
 10
127.126229
 20
104.220174
 30
0.0
 10
127.087243
 20
104.105454
 30
0.0
 10
127.002351
 20
104.010895
 30
0.0
 10
126.893063
 20
103.959449
 30
0.0
  0
SPLINE
  5
1a8
100
AcDbEntity
  8
Layer_1
 62
7
100
AcDbSpline
 70
8
 71
3
 72
8
 73
4
 74
0
 40
0
 40
0
 40
0
 40
0
 40
1
 40
1
 40
1
 40
1
 10
126.893063
 20
103.959449
 30
0.0
 10
126.737762
 20
103.927812
 30
0.0
 10
126.623761
 20
103.965912
 30
0.0
 10
126.573909
 20
104.075202
 30
0.0
  0
SPLINE
  5
1a9
100
AcDbEntity
  8
Layer_1
 62
7
100
AcDbSpline
 70
8
 71
3
 72
8
 73
4
 74
0
 40
0
 40
0
 40
0
 40
0
 40
1
 40
1
 40
1
 40
1
 10
126.573909
 20
104.075202
 30
0.0
 10
126.546748
 20
104.163399
 30
0.0
 10
126.521402
 20
104.229600
 30
0.0
 10
126.542492
 20
104.253245
 30
0.0
  0
SPLINE
  5
1aa
100
AcDbEntity
  8
Layer_1
 62
7
100
AcDbSpline
 70
8
 71
3
 72
8
 73
4
 74
0
 40
0
 40
0
 40
0
 40
0
 40
1
 40
1
 40
1
 40
1
 10
126.542492
 20
104.253245
 30
0.0
 10
126.538964
 20
104.320673
 30
0.0
 10
126.566710
 20
104.658959
 30
0.0
 10
126.581075
 20
104.817139
 30
0.0
  0
SPLINE
  5
1ab
100
AcDbEntity
  8
Layer_1
 62
7
100
AcDbSpline
 70
8
 71
3
 72
8
 73
4
 74
0
 40
0
 40
0
 40
0
 40
0
 40
1
 40
1
 40
1
 40
1
 10
126.581075
 20
104.817139
 30
0.0
 10
126.637954
 20
105.022292
 30
0.0
 10
126.648571
 20
105.247680
 30
0.0
 10
126.702896
 20
105.497890
 30
0.0
  0
SPLINE
  5
1ac
100
AcDbEntity
  8
Layer_1
 62
7
100
AcDbSpline
 70
8
 71
3
 72
8
 73
4
 74
0
 40
0
 40
0
 40
0
 40
0
 40
1
 40
1
 40
1
 40
1
 10
126.702896
 20
105.497890
 30
0.0
 10
126.762970
 20
105.635936
 30
0.0
 10
126.825615
 20
105.729566
 30
0.0
 10
126.889205
 20
105.800506
 30
0.0
  0
SPLINE
  5
1ad
100
AcDbEntity
  8
Layer_1
 62
7
100
AcDbSpline
 70
8
 71
3
 72
8
 73
4
 74
0
 40
0
 40
0
 40
0
 40
0
 40
1
 40
1
 40
1
 40
1
 10
126.889205
 20
105.800506
 30
0.0
 10
126.911165
 20
105.807383
 30
0.0
 10
126.932162
 20
105.811289
 30
0.0
 10
126.952045
 20
105.812082
 30
0.0
  0
LWPOLYLINE
  5
1ae
100
AcDbEntity
  8
Layer_1
 62
7
100
AcDbPolyline
 90
2
 70
0
 10
134.706540
 20
106.130133
 30
0.0
 10
134.706540
 20
106.130133
 30
0.0
  0
SPLINE
  5
1af
100
AcDbEntity
  8
Layer_1
 62
7
100
AcDbSpline
 70
8
 71
3
 72
8
 73
4
 74
0
 40
0
 40
0
 40
0
 40
0
 40
1
 40
1
 40
1
 40
1
 10
130.434622
 20
103.306810
 30
0.0
 10
131.250123
 20
103.304764
 30
0.0
 10
132.040356
 20
103.285036
 30
0.0
 10
132.279539
 20
103.232947
 30
0.0
  0
SPLINE
  5
1b0
100
AcDbEntity
  8
Layer_1
 62
7
100
AcDbSpline
 70
8
 71
3
 72
8
 73
4
 74
0
 40
0
 40
0
 40
0
 40
0
 40
1
 40
1
 40
1
 40
1
 10
132.279539
 20
103.232947
 30
0.0
 10
132.467437
 20
103.165202
 30
0.0
 10
132.577476
 20
103.065589
 30
0.0
 10
132.585465
 20
102.907728
 30
0.0
  0
SPLINE
  5
1b1
100
AcDbEntity
  8
Layer_1
 62
7
100
AcDbSpline
 70
8
 71
3
 72
8
 73
4
 74
0
 40
0
 40
0
 40
0
 40
0
 40
1
 40
1
 40
1
 40
1
 10
132.585465
 20
102.907728
 30
0.0
 10
132.580989
 20
101.429157
 30
0.0
 10
132.487557
 20
100.156281
 30
0.0
 10
132.439943
 20
99.018353
 30
0.0
  0
SPLINE
  5
1b2
100
AcDbEntity
  8
Layer_1
 62
7
100
AcDbSpline
 70
8
 71
3
 72
8
 73
4
 74
0
 40
0
 40
0
 40
0
 40
0
 40
1
 40
1
 40
1
 40
1
 10
132.439943
 20
99.018353
 30
0.0
 10
132.418853
 20
98.731714
 30
0.0
 10
132.407519
 20
98.445560
 30
0.0
 10
132.400807
 20
98.159562
 30
0.0
  0
SPLINE
  5
1b3
100
AcDbEntity
  8
Layer_1
 62
7
100
AcDbSpline
 70
8
 71
3
 72
8
 73
4
 74
0
 40
0
 40
0
 40
0
 40
0
 40
1
 40
1
 40
1
 40
1
 10
132.400807
 20
98.159562
 30
0.0
 10
131.639632
 20
96.341625
 30
0.0
 10
131.019843
 20
95.259133
 30
0.0
 10
130.734483
 20
94.797700
 30
0.0
  0
SPLINE
  5
1b4
100
AcDbEntity
  8
Layer_1
 62
7
100
AcDbSpline
 70
8
 71
3
 72
8
 73
4
 74
0
 40
0
 40
0
 40
0
 40
0
 40
1
 40
1
 40
1
 40
1
 10
130.734483
 20
94.797700
 30
0.0
 10
130.337599
 20
94.235606
 30
0.0
 10
129.598713
 20
92.913172
 30
0.0
 10
128.714830
 20
92.682134
 30
0.0
  0
SPLINE
  5
1b5
100
AcDbEntity
  8
Layer_1
 62
7
100
AcDbSpline
 70
8
 71
3
 72
8
 73
4
 74
0
 40
0
 40
0
 40
0
 40
0
 40
1
 40
1
 40
1
 40
1
 10
128.714830
 20
92.682134
 30
0.0
 10
127.238176
 20
92.236677
 30
0.0
 10
126.560165
 20
95.026336
 30
0.0
 10
126.403585
 20
95.915012
 30
0.0
  0
SPLINE
  5
1b6
100
AcDbEntity
  8
Layer_1
 62
7
100
AcDbSpline
 70
8
 71
3
 72
8
 73
4
 74
0
 40
0
 40
0
 40
0
 40
0
 40
1
 40
1
 40
1
 40
1
 10
126.403585
 20
95.915012
 30
0.0
 10
126.189805
 20
97.047826
 30
0.0
 10
126.077599
 20
98.388518
 30
0.0
 10
126.109236
 20
99.535395
 30
0.0
  0
SPLINE
  5
1b7
100
AcDbEntity
  8
Layer_1
 62
7
100
AcDbSpline
 70
8
 71
3
 72
8
 73
4
 74
0
 40
0
 40
0
 40
0
 40
0
 40
1
 40
1
 40
1
 40
1
 10
126.109236
 20
99.535395
 30
0.0
 10
126.148860
 20
100.076717
 30
0.0
 10
126.167484
 20
100.593627
 30
0.0
 10
126.411301
 20
101.079348
 30
0.0
  0
SPLINE
  5
1b8
100
AcDbEntity
  8
Layer_1
 62
7
100
AcDbSpline
 70
8
 71
3
 72
8
 73
4
 74
0
 40
0
 40
0
 40
0
 40
0
 40
1
 40
1
 40
1
 40
1
 10
126.411301
 20
101.079348
 30
0.0
 10
126.674293
 20
101.633771
 30
0.0
 10
127.335960
 20
102.863179
 30
0.0
 10
127.438215
 20
103.048839
 30
0.0
  0
SPLINE
  5
1b9
100
AcDbEntity
  8
Layer_1
 62
7
100
AcDbSpline
 70
8
 71
3
 72
8
 73
4
 74
0
 40
0
 40
0
 40
0
 40
0
 40
1
 40
1
 40
1
 40
1
 10
127.438215
 20
103.048839
 30
0.0
 10
127.492540
 20
103.173147
 30
0.0
 10
127.632279
 20
103.232718
 30
0.0
 10
127.778315
 20
103.270429
 30
0.0
  0
SPLINE
  5
1ba
100
AcDbEntity
  8
Layer_1
 62
7
100
AcDbSpline
 70
8
 71
3
 72
8
 73
4
 74
0
 40
0
 40
0
 40
0
 40
0
 40
1
 40
1
 40
1
 40
1
 10
127.778315
 20
103.270429
 30
0.0
 10
128.121836
 20
103.273319
 30
0.0
 10
128.367996
 20
103.275051
 30
0.0
 10
128.437019
 20
103.273186
 30
0.0
  0
SPLINE
  5
1bb
100
AcDbEntity
  8
Layer_1
 62
7
100
AcDbSpline
 70
8
 71
3
 72
8
 73
4
 74
0
 40
0
 40
0
 40
0
 40
0
 40
1
 40
1
 40
1
 40
1
 10
128.437019
 20
103.273186
 30
0.0
 10
128.777822
 20
103.293150
 30
0.0
 10
129.619124
 20
103.308768
 30
0.0
 10
130.434622
 20
103.306810
 30
0.0
  0
LWPOLYLINE
  5
1bc
100
AcDbEntity
  8
Layer_1
 62
7
100
AcDbPolyline
 90
2
 70
0
 10
126.952045
 20
105.812082
 30
0.0
 10
126.952045
 20
105.812082
 30
0.0
  0
SPLINE
  5
1bd
100
AcDbEntity
  8
Layer_1
 62
7
100
AcDbSpline
 70
8
 71
3
 72
8
 73
4
 74
0
 40
0
 40
0
 40
0
 40
0
 40
1
 40
1
 40
1
 40
1
 10
126.745339
 20
103.235701
 30
0.0
 10
126.814241
 20
103.224045
 30
0.0
 10
126.864976
 20
103.182643
 30
0.0
 10
126.868812
 20
103.104513
 30
0.0
  0
SPLINE
  5
1be
100
AcDbEntity
  8
Layer_1
 62
7
100
AcDbSpline
 70
8
 71
3
 72
8
 73
4
 74
0
 40
0
 40
0
 40
0
 40
0
 40
1
 40
1
 40
1
 40
1
 10
126.868812
 20
103.104513
 30
0.0
 10
126.868812
 20
103.104513
 30
0.0
 10
126.856778
 20
103.024853
 30
0.0
 10
126.862196
 20
102.912689
 30
0.0
  0
SPLINE
  5
1bf
100
AcDbEntity
  8
Layer_1
 62
7
100
AcDbSpline
 70
8
 71
3
 72
8
 73
4
 74
0
 40
0
 40
0
 40
0
 40
0
 40
1
 40
1
 40
1
 40
1
 10
126.862196
 20
102.912689
 30
0.0
 10
126.723191
 20
102.567574
 30
0.0
 10
126.376368
 20
101.773736
 30
0.0
 10
126.379881
 20
101.706630
 30
0.0
  0
LWPOLYLINE
  5
1c0
100
AcDbEntity
  8
Layer_1
 62
7
100
AcDbPolyline
 90
2
 70
0
 10
130.434622
 20
103.306810
 30
0.0
 10
130.434622
 20
103.306810
 30
0.0
  0
SPLINE
  5
1c1
100
AcDbEntity
  8
Layer_1
 62
7
100
AcDbSpline
 70
8
 71
3
 72
8
 73
4
 74
0
 40
0
 40
0
 40
0
 40
0
 40
1
 40
1
 40
1
 40
1
 10
126.332479
 20
101.748523
 30
0.0
 10
126.328952
 20
101.815948
 30
0.0
 10
126.354117
 20
102.676472
 30
0.0
 10
126.393112
 20
102.790871
 30
0.0
  0
SPLINE
  5
1c2
100
AcDbEntity
  8
Layer_1
 62
7
100
AcDbSpline
 70
8
 71
3
 72
8
 73
4
 74
0
 40
0
 40
0
 40
0
 40
0
 40
1
 40
1
 40
1
 40
1
 10
126.393112
 20
102.790871
 30
0.0
 10
126.431458
 20
102.903672
 30
0.0
 10
126.447217
 20
103.165402
 30
0.0
 10
126.512726
 20
103.191604
 30
0.0
  0
SPLINE
  5
1c3
100
AcDbEntity
  8
Layer_1
 62
7
100
AcDbSpline
 70
8
 71
3
 72
8
 73
4
 74
0
 40
0
 40
0
 40
0
 40
0
 40
1
 40
1
 40
1
 40
1
 10
126.512726
 20
103.191604
 30
0.0
 10
126.589256
 20
103.229794
 30
0.0
 10
126.676435
 20
103.247365
 30
0.0
 10
126.745339
 20
103.235701
 30
0.0
  0
LWPOLYLINE
  5
1c4
100
AcDbEntity
  8
Layer_1
 62
7
100
AcDbPolyline
 90
2
 70
0
 10
126.379881
 20
101.706630
 30
0.0
 10
126.332479
 20
101.748523
 30
0.0
  0
SPLINE
  5
1c5
100
AcDbEntity
  8
Layer_1
 62
7
100
AcDbSpline
 70
8
 71
3
 72
8
 73
4
 74
0
 40
0
 40
0
 40
0
 40
0
 40
1
 40
1
 40
1
 40
1
 10
134.408883
 20
103.172864
 30
0.0
 10
134.523593
 20
103.174654
 30
0.0
 10
134.602025
 20
103.084362
 30
0.0
 10
134.608976
 20
102.946313
 30
0.0
  0
SPLINE
  5
1c6
100
AcDbEntity
  8
Layer_1
 62
7
100
AcDbSpline
 70
8
 71
3
 72
8
 73
4
 74
0
 40
0
 40
0
 40
0
 40
0
 40
1
 40
1
 40
1
 40
1
 10
134.608976
 20
102.946313
 30
0.0
 10
134.608976
 20
102.946313
 30
0.0
 10
134.611649
 20
102.894184
 30
0.0
 10
134.618346
 20
102.762208
 30
0.0
  0
SPLINE
  5
1c7
100
AcDbEntity
  8
Layer_1
 62
7
100
AcDbSpline
 70
8
 71
3
 72
8
 73
4
 74
0
 40
0
 40
0
 40
0
 40
0
 40
1
 40
1
 40
1
 40
1
 10
134.618346
 20
102.762208
 30
0.0
 10
134.454736
 20
102.356695
 30
0.0
 10
134.030773
 20
101.381521
 30
0.0
 10
134.034609
 20
101.302589
 30
0.0
  0
LWPOLYLINE
  5
1c8
100
AcDbEntity
  8
Layer_1
 62
7
100
AcDbPolyline
 90
2
 70
0
 10
126.745339
 20
103.235701
 30
0.0
 10
126.745339
 20
103.235701
 30
0.0
  0
SPLINE
  5
1c9
100
AcDbEntity
  8
Layer_1
 62
7
100
AcDbSpline
 70
8
 71
3
 72
8
 73
4
 74
0
 40
0
 40
0
 40
0
 40
0
 40
1
 40
1
 40
1
 40
1
 10
133.979488
 20
101.352201
 30
0.0
 10
133.975345
 20
101.431449
 30
0.0
 10
134.037420
 20
102.808245
 30
0.0
 10
134.083117
 20
102.942455
 30
0.0
  0
SPLINE
  5
1ca
100
AcDbEntity
  8
Layer_1
 62
7
100
AcDbSpline
 70
8
 71
3
 72
8
 73
4
 74
0
 40
0
 40
0
 40
0
 40
0
 40
1
 40
1
 40
1
 40
1
 10
134.083117
 20
102.942455
 30
0.0
 10
134.156295
 20
103.052381
 30
0.0
 10
134.206747
 20
103.107691
 30
0.0
 10
134.283757
 20
103.138687
 30
0.0
  0
SPLINE
  5
1cb
100
AcDbEntity
  8
Layer_1
 62
7
100
AcDbSpline
 70
8
 71
3
 72
8
 73
4
 74
0
 40
0
 40
0
 40
0
 40
0
 40
1
 40
1
 40
1
 40
1
 10
134.283757
 20
103.138687
 30
0.0
 10
134.328735
 20
103.161211
 30
0.0
 10
134.370648
 20
103.172266
 30
0.0
 10
134.408883
 20
103.172864
 30
0.0
  0
LWPOLYLINE
  5
1cc
100
AcDbEntity
  8
Layer_1
 62
7
100
AcDbPolyline
 90
2
 70
0
 10
134.034609
 20
101.302589
 30
0.0
 10
133.979488
 20
101.352201
 30
0.0
  0
SPLINE
  5
1cd
100
AcDbEntity
  8
Layer_1
 62
7
100
AcDbSpline
 70
8
 71
3
 72
8
 73
4
 74
0
 40
0
 40
0
 40
0
 40
0
 40
1
 40
1
 40
1
 40
1
 10
143.927821
 20
99.012291
 30
0.0
 10
144.231473
 20
99.013058
 30
0.0
 10
144.619187
 20
98.738631
 30
0.0
 10
144.724879
 20
98.467689
 30
0.0
  0
SPLINE
  5
1ce
100
AcDbEntity
  8
Layer_1
 62
7
100
AcDbSpline
 70
8
 71
3
 72
8
 73
4
 74
0
 40
0
 40
0
 40
0
 40
0
 40
1
 40
1
 40
1
 40
1
 10
144.724879
 20
98.467689
 30
0.0
 10
144.755235
 20
98.390358
 30
0.0
 10
144.763394
 20
98.231898
 30
0.0
 10
144.685743
 20
98.200902
 30
0.0
  0
SPLINE
  5
1cf
100
AcDbEntity
  8
Layer_1
 62
7
100
AcDbSpline
 70
8
 71
3
 72
8
 73
4
 74
0
 40
0
 40
0
 40
0
 40
0
 40
1
 40
1
 40
1
 40
1
 10
144.685743
 20
98.200902
 30
0.0
 10
144.558560
 20
98.114624
 30
0.0
 10
144.532748
 20
98.113396
 30
0.0
 10
144.350604
 20
98.076326
 30
0.0
  0
SPLINE
  5
1d0
100
AcDbEntity
  8
Layer_1
 62
7
100
AcDbSpline
 70
8
 71
3
 72
8
 73
4
 74
0
 40
0
 40
0
 40
0
 40
0
 40
1
 40
1
 40
1
 40
1
 10
144.350604
 20
98.076326
 30
0.0
 10
144.009321
 20
98.056514
 30
0.0
 10
143.740764
 20
98.172745
 30
0.0
 10
143.517716
 20
98.423592
 30
0.0
  0
SPLINE
  5
1d1
100
AcDbEntity
  8
Layer_1
 62
7
100
AcDbSpline
 70
8
 71
3
 72
8
 73
4
 74
0
 40
0
 40
0
 40
0
 40
0
 40
1
 40
1
 40
1
 40
1
 10
143.517716
 20
98.423592
 30
0.0
 10
143.403317
 20
98.601903
 30
0.0
 10
143.496670
 20
98.818274
 30
0.0
 10
143.673711
 20
98.960478
 30
0.0
  0
SPLINE
  5
1d2
100
AcDbEntity
  8
Layer_1
 62
7
100
AcDbSpline
 70
8
 71
3
 72
8
 73
4
 74
0
 40
0
 40
0
 40
0
 40
0
 40
1
 40
1
 40
1
 40
1
 10
143.673711
 20
98.960478
 30
0.0
 10
143.726436
 20
98.963672
 30
0.0
 10
143.779192
 20
98.966861
 30
0.0
 10
143.803799
 20
98.994652
 30
0.0
  0
SPLINE
  5
1d3
100
AcDbEntity
  8
Layer_1
 62
7
100
AcDbSpline
 70
8
 71
3
 72
8
 73
4
 74
0
 40
0
 40
0
 40
0
 40
0
 40
1
 40
1
 40
1
 40
1
 10
143.803799
 20
98.994652
 30
0.0
 10
143.842664
 20
99.006847
 30
0.0
 10
143.884444
 20
99.012189
 30
0.0
 10
143.927821
 20
99.012291
 30
0.0
  0
LWPOLYLINE
  5
1d4
100
AcDbEntity
  8
Layer_1
 62
7
100
AcDbPolyline
 90
2
 70
0
 10
134.408883
 20
103.172864
 30
0.0
 10
134.408883
 20
103.172864
 30
0.0
  0
SPLINE
  5
1d5
100
AcDbEntity
  8
Layer_1
 62
7
100
AcDbSpline
 70
8
 71
3
 72
8
 73
4
 74
0
 40
0
 40
0
 40
0
 40
0
 40
1
 40
1
 40
1
 40
1
 10
143.010599
 20
98.112707
 30
0.0
 10
143.050130
 20
98.110918
 30
0.0
 10
143.092771
 20
98.101613
 30
0.0
 10
143.139583
 20
98.084595
 30
0.0
  0
SPLINE
  5
1d6
100
AcDbEntity
  8
Layer_1
 62
7
100
AcDbSpline
 70
8
 71
3
 72
8
 73
4
 74
0
 40
0
 40
0
 40
0
 40
0
 40
1
 40
1
 40
1
 40
1
 10
143.139583
 20
98.084595
 30
0.0
 10
143.248552
 20
98.011737
 30
0.0
 10
143.381484
 20
97.993686
 30
0.0
 10
143.464249
 20
97.919230
 30
0.0
  0
SPLINE
  5
1d7
100
AcDbEntity
  8
Layer_1
 62
7
100
AcDbSpline
 70
8
 71
3
 72
8
 73
4
 74
0
 40
0
 40
0
 40
0
 40
0
 40
1
 40
1
 40
1
 40
1
 10
143.464249
 20
97.919230
 30
0.0
 10
143.789233
 20
97.727181
 30
0.0
 10
144.084508
 20
97.611500
 30
0.0
 10
144.476281
 20
97.660712
 30
0.0
  0
LWPOLYLINE
  5
1d8
100
AcDbEntity
  8
Layer_1
 62
7
100
AcDbPolyline
 90
2
 70
0
 10
143.927821
 20
99.012291
 30
0.0
 10
143.927821
 20
99.012291
 30
0.0
  0
SPLINE
  5
1d9
100
AcDbEntity
  8
Layer_1
 62
7
100
AcDbSpline
 70
8
 71
3
 72
8
 73
4
 74
0
 40
0
 40
0
 40
0
 40
0
 40
1
 40
1
 40
1
 40
1
 10
144.686294
 20
97.673389
 30
0.0
 10
144.818588
 20
97.654855
 30
0.0
 10
144.902673
 20
97.553862
 30
0.0
 10
144.914496
 20
97.316753
 30
0.0
  0
SPLINE
  5
1da
100
AcDbEntity
  8
Layer_1
 62
7
100
AcDbSpline
 70
8
 71
3
 72
8
 73
4
 74
0
 40
0
 40
0
 40
0
 40
0
 40
1
 40
1
 40
1
 40
1
 10
144.914496
 20
97.316753
 30
0.0
 10
144.952844
 20
97.081561
 30
0.0
 10
144.886234
 20
96.840170
 30
0.0
 10
144.869298
 20
96.654191
 30
0.0
  0
SPLINE
  5
1db
100
AcDbEntity
  8
Layer_1
 62
7
100
AcDbSpline
 70
8
 71
3
 72
8
 73
4
 74
0
 40
0
 40
0
 40
0
 40
0
 40
1
 40
1
 40
1
 40
1
 10
144.869298
 20
96.654191
 30
0.0
 10
144.789728
 20
96.148020
 30
0.0
 10
144.576921
 20
95.686468
 30
0.0
 10
144.229887
 20
95.270089
 30
0.0
  0
SPLINE
  5
1dc
100
AcDbEntity
  8
Layer_1
 62
7
100
AcDbSpline
 70
8
 71
3
 72
8
 73
4
 74
0
 40
0
 40
0
 40
0
 40
0
 40
1
 40
1
 40
1
 40
1
 10
144.229887
 20
95.270089
 30
0.0
 10
144.055411
 20
95.075164
 30
0.0
 10
143.930511
 20
94.936440
 30
0.0
 10
143.698516
 20
94.843451
 30
0.0
  0
SPLINE
  5
1dd
100
AcDbEntity
  8
Layer_1
 62
7
100
AcDbSpline
 70
8
 71
3
 72
8
 73
4
 74
0
 40
0
 40
0
 40
0
 40
0
 40
1
 40
1
 40
1
 40
1
 10
143.698516
 20
94.843451
 30
0.0
 10
143.311857
 20
94.688785
 30
0.0
 10
142.941853
 20
94.720622
 30
0.0
 10
142.738297
 20
95.104727
 30
0.0
  0
SPLINE
  5
1de
100
AcDbEntity
  8
Layer_1
 62
7
100
AcDbSpline
 70
8
 71
3
 72
8
 73
4
 74
0
 40
0
 40
0
 40
0
 40
0
 40
1
 40
1
 40
1
 40
1
 10
142.738297
 20
95.104727
 30
0.0
 10
142.560627
 20
95.490426
 30
0.0
 10
142.459766
 20
95.932989
 30
0.0
 10
142.432924
 20
96.459613
 30
0.0
  0
SPLINE
  5
1df
100
AcDbEntity
  8
Layer_1
 62
7
100
AcDbSpline
 70
8
 71
3
 72
8
 73
4
 74
0
 40
0
 40
0
 40
0
 40
0
 40
1
 40
1
 40
1
 40
1
 10
142.432924
 20
96.459613
 30
0.0
 10
142.411834
 20
96.880463
 30
0.0
 10
142.469150
 20
97.306404
 30
0.0
 10
142.606558
 20
97.710321
 30
0.0
  0
SPLINE
  5
1e0
100
AcDbEntity
  8
Layer_1
 62
7
100
AcDbSpline
 70
8
 71
3
 72
8
 73
4
 74
0
 40
0
 40
0
 40
0
 40
0
 40
1
 40
1
 40
1
 40
1
 10
142.606558
 20
97.710321
 30
0.0
 10
142.604002
 20
97.763045
 30
0.0
 10
142.652146
 20
97.845508
 30
0.0
 10
142.751528
 20
97.956715
 30
0.0
  0
SPLINE
  5
1e1
100
AcDbEntity
  8
Layer_1
 62
7
100
AcDbSpline
 70
8
 71
3
 72
8
 73
4
 74
0
 40
0
 40
0
 40
0
 40
0
 40
1
 40
1
 40
1
 40
1
 10
142.751528
 20
97.956715
 30
0.0
 10
142.805452
 20
98.058569
 30
0.0
 10
142.892012
 20
98.118070
 30
0.0
 10
143.010599
 20
98.112707
 30
0.0
  0
LWPOLYLINE
  5
1e2
100
AcDbEntity
  8
Layer_1
 62
7
100
AcDbPolyline
 90
2
 70
0
 10
144.476281
 20
97.660712
 30
0.0
 10
144.686294
 20
97.673389
 30
0.0
  0
SPLINE
  5
1e3
100
AcDbEntity
  8
Layer_1
 62
7
100
AcDbSpline
 70
8
 71
3
 72
8
 73
4
 74
0
 40
0
 40
0
 40
0
 40
0
 40
1
 40
1
 40
1
 40
1
 10
120.430617
 20
97.642520
 30
0.0
 10
120.734054
 20
97.643287
 30
0.0
 10
121.121980
 20
97.368310
 30
0.0
 10
121.227675
 20
97.097368
 30
0.0
  0
SPLINE
  5
1e4
100
AcDbEntity
  8
Layer_1
 62
7
100
AcDbSpline
 70
8
 71
3
 72
8
 73
4
 74
0
 40
0
 40
0
 40
0
 40
0
 40
1
 40
1
 40
1
 40
1
 10
121.227675
 20
97.097368
 30
0.0
 10
121.258031
 20
97.020036
 30
0.0
 10
121.266421
 20
96.862127
 30
0.0
 10
121.189089
 20
96.831131
 30
0.0
  0
SPLINE
  5
1e5
100
AcDbEntity
  8
Layer_1
 62
7
100
AcDbSpline
 70
8
 71
3
 72
8
 73
4
 74
0
 40
0
 40
0
 40
0
 40
0
 40
1
 40
1
 40
1
 40
1
 10
121.189089
 20
96.831131
 30
0.0
 10
121.061587
 20
96.744852
 30
0.0
 10
121.035312
 20
96.743393
 30
0.0
 10
120.852847
 20
96.706007
 30
0.0
  0
SPLINE
  5
1e6
100
AcDbEntity
  8
Layer_1
 62
7
100
AcDbSpline
 70
8
 71
3
 72
8
 73
4
 74
0
 40
0
 40
0
 40
0
 40
0
 40
1
 40
1
 40
1
 40
1
 10
120.852847
 20
96.706007
 30
0.0
 10
120.512205
 20
96.686193
 30
0.0
 10
120.243329
 20
96.802104
 30
0.0
 10
120.019961
 20
97.053271
 30
0.0
  0
SPLINE
  5
1e7
100
AcDbEntity
  8
Layer_1
 62
7
100
AcDbSpline
 70
8
 71
3
 72
8
 73
4
 74
0
 40
0
 40
0
 40
0
 40
0
 40
1
 40
1
 40
1
 40
1
 10
120.019961
 20
97.053271
 30
0.0
 10
119.905881
 20
97.231581
 30
0.0
 10
120.000336
 20
97.448509
 30
0.0
 10
120.177057
 20
97.590706
 30
0.0
  0
SPLINE
  5
1e8
100
AcDbEntity
  8
Layer_1
 62
7
100
AcDbSpline
 70
8
 71
3
 72
8
 73
4
 74
0
 40
0
 40
0
 40
0
 40
0
 40
1
 40
1
 40
1
 40
1
 10
120.177057
 20
97.590706
 30
0.0
 10
120.229782
 20
97.593596
 30
0.0
 10
120.281669
 20
97.596537
 30
0.0
 10
120.306592
 20
97.624330
 30
0.0
  0
SPLINE
  5
1e9
100
AcDbEntity
  8
Layer_1
 62
7
100
AcDbSpline
 70
8
 71
3
 72
8
 73
4
 74
0
 40
0
 40
0
 40
0
 40
0
 40
1
 40
1
 40
1
 40
1
 10
120.306592
 20
97.624330
 30
0.0
 10
120.345417
 20
97.636500
 30
0.0
 10
120.387271
 20
97.642418
 30
0.0
 10
120.430617
 20
97.642520
 30
0.0
  0
LWPOLYLINE
  5
1ea
100
AcDbEntity
  8
Layer_1
 62
7
100
AcDbPolyline
 90
2
 70
0
 10
143.010599
 20
98.112707
 30
0.0
 10
143.010599
 20
98.112707
 30
0.0
  0
LWPOLYLINE
  5
1eb
100
AcDbEntity
  8
Layer_1
 62
7
100
AcDbPolyline
 90
2
 70
0
 10
120.430617
 20
97.642520
 30
0.0
 10
120.430617
 20
97.642520
 30
0.0
  0
SPLINE
  5
1ec
100
AcDbEntity
  8
Layer_1
 62
7
100
AcDbSpline
 70
8
 71
3
 72
8
 73
4
 74
0
 40
0
 40
0
 40
0
 40
0
 40
1
 40
1
 40
1
 40
1
 10
119.512842
 20
96.742386
 30
0.0
 10
119.552347
 20
96.740597
 30
0.0
 10
119.595561
 20
96.731834
 30
0.0
 10
119.642379
 20
96.714824
 30
0.0
  0
SPLINE
  5
1ed
100
AcDbEntity
  8
Layer_1
 62
7
100
AcDbSpline
 70
8
 71
3
 72
8
 73
4
 74
0
 40
0
 40
0
 40
0
 40
0
 40
1
 40
1
 40
1
 40
1
 10
119.642379
 20
96.714824
 30
0.0
 10
119.751667
 20
96.641968
 30
0.0
 10
119.884049
 20
96.622495
 30
0.0
 10
119.966491
 20
96.548358
 30
0.0
  0
SPLINE
  5
1ee
100
AcDbEntity
  8
Layer_1
 62
7
100
AcDbSpline
 70
8
 71
3
 72
8
 73
4
 74
0
 40
0
 40
0
 40
0
 40
0
 40
1
 40
1
 40
1
 40
1
 10
119.966491
 20
96.548358
 30
0.0
 10
120.291798
 20
96.355987
 30
0.0
 10
120.586982
 20
96.241410
 30
0.0
 10
120.979077
 20
96.290940
 30
0.0
  0
LWPOLYLINE
  5
1ef
100
AcDbEntity
  8
Layer_1
 62
7
100
AcDbPolyline
 90
6
 70
0
 10
97.263591
 20
97.006969
 30
0.0
 10
97.263591
 20
95.944778
 30
0.0
 10
97.606445
 20
95.944778
 30
0.0
 10
97.606445
 20
97.006969
 30
0.0
 10
97.263591
 20
97.006969
 30
0.0
 10
97.263591
 20
97.006969
 30
0.0
  0
SPLINE
  5
1f0
100
AcDbEntity
  8
Layer_1
 62
7
100
AcDbSpline
 70
8
 71
3
 72
8
 73
4
 74
0
 40
0
 40
0
 40
0
 40
0
 40
1
 40
1
 40
1
 40
1
 10
121.189089
 20
96.303067
 30
0.0
 10
121.321703
 20
96.284201
 30
0.0
 10
121.405469
 20
96.184091
 30
0.0
 10
121.417292
 20
95.946982
 30
0.0
  0
SPLINE
  5
1f1
100
AcDbEntity
  8
Layer_1
 62
7
100
AcDbSpline
 70
8
 71
3
 72
8
 73
4
 74
0
 40
0
 40
0
 40
0
 40
0
 40
1
 40
1
 40
1
 40
1
 10
121.417292
 20
95.946982
 30
0.0
 10
121.455959
 20
95.711792
 30
0.0
 10
121.388708
 20
95.469852
 30
0.0
 10
121.372091
 20
95.283870
 30
0.0
  0
SPLINE
  5
1f2
100
AcDbEntity
  8
Layer_1
 62
7
100
AcDbSpline
 70
8
 71
3
 72
8
 73
4
 74
0
 40
0
 40
0
 40
0
 40
0
 40
1
 40
1
 40
1
 40
1
 10
121.372091
 20
95.283870
 30
0.0
 10
121.292205
 20
94.777699
 30
0.0
 10
121.079486
 20
94.316378
 30
0.0
 10
120.732132
 20
93.900321
 30
0.0
  0
SPLINE
  5
1f3
100
AcDbEntity
  8
Layer_1
 62
7
100
AcDbSpline
 70
8
 71
3
 72
8
 73
4
 74
0
 40
0
 40
0
 40
0
 40
0
 40
1
 40
1
 40
1
 40
1
 10
120.732132
 20
93.900321
 30
0.0
 10
120.557976
 20
93.705074
 30
0.0
 10
120.433075
 20
93.565800
 30
0.0
 10
120.200759
 20
93.473129
 30
0.0
  0
SPLINE
  5
1f4
100
AcDbEntity
  8
Layer_1
 62
7
100
AcDbSpline
 70
8
 71
3
 72
8
 73
4
 74
0
 40
0
 40
0
 40
0
 40
0
 40
1
 40
1
 40
1
 40
1
 10
120.200759
 20
93.473129
 30
0.0
 10
119.814419
 20
93.318466
 30
0.0
 10
119.444648
 20
93.349750
 30
0.0
 10
119.241093
 20
93.733852
 30
0.0
  0
SPLINE
  5
1f5
100
AcDbEntity
  8
Layer_1
 62
7
100
AcDbSpline
 70
8
 71
3
 72
8
 73
4
 74
0
 40
0
 40
0
 40
0
 40
0
 40
1
 40
1
 40
1
 40
1
 10
119.241093
 20
93.733852
 30
0.0
 10
119.063423
 20
94.119554
 30
0.0
 10
118.962565
 20
94.562349
 30
0.0
 10
118.935720
 20
95.089292
 30
0.0
  0
SPLINE
  5
1f6
100
AcDbEntity
  8
Layer_1
 62
7
100
AcDbSpline
 70
8
 71
3
 72
8
 73
4
 74
0
 40
0
 40
0
 40
0
 40
0
 40
1
 40
1
 40
1
 40
1
 10
118.935720
 20
95.089292
 30
0.0
 10
118.914630
 20
95.510142
 30
0.0
 10
118.971946
 20
95.936085
 30
0.0
 10
119.109354
 20
96.339999
 30
0.0
  0
SPLINE
  5
1f7
100
AcDbEntity
  8
Layer_1
 62
7
100
AcDbSpline
 70
8
 71
3
 72
8
 73
4
 74
0
 40
0
 40
0
 40
0
 40
0
 40
1
 40
1
 40
1
 40
1
 10
119.109354
 20
96.339999
 30
0.0
 10
119.106797
 20
96.392727
 30
0.0
 10
119.154623
 20
96.474636
 30
0.0
 10
119.254323
 20
96.585840
 30
0.0
  0
SPLINE
  5
1f8
100
AcDbEntity
  8
Layer_1
 62
7
100
AcDbSpline
 70
8
 71
3
 72
8
 73
4
 74
0
 40
0
 40
0
 40
0
 40
0
 40
1
 40
1
 40
1
 40
1
 10
119.254323
 20
96.585840
 30
0.0
 10
119.308488
 20
96.687937
 30
0.0
 10
119.394328
 20
96.747731
 30
0.0
 10
119.512842
 20
96.742386
 30
0.0
  0
LWPOLYLINE
  5
1f9
100
AcDbEntity
  8
Layer_1
 62
7
100
AcDbPolyline
 90
2
 70
0
 10
120.979077
 20
96.290940
 30
0.0
 10
121.189089
 20
96.303067
 30
0.0
  0
SPLINE
  5
1fa
100
AcDbEntity
  8
Layer_1
 62
7
100
AcDbSpline
 70
8
 71
3
 72
8
 73
4
 74
0
 40
0
 40
0
 40
0
 40
0
 40
1
 40
1
 40
1
 40
1
 10
171.403698
 20
96.649230
 30
0.0
 10
170.560718
 20
96.649230
 30
0.0
 10
169.973845
 20
95.929687
 30
0.0
 10
169.973845
 20
94.959204
 30
0.0
  0
LWPOLYLINE
  5
1fb
100
AcDbEntity
  8
Layer_1
 62
7
100
AcDbPolyline
 90
2
 70
0
 10
119.512842
 20
96.742386
 30
0.0
 10
119.512842
 20
96.742386
 30
0.0
  0
SPLINE
  5
1fc
100
AcDbEntity
  8
Layer_1
 62
7
100
AcDbSpline
 70
8
 71
3
 72
8
 73
4
 74
0
 40
0
 40
0
 40
0
 40
0
 40
1
 40
1
 40
1
 40
1
 10
169.973845
 20
94.916211
 30
0.0
 10
169.973845
 20
93.945727
 30
0.0
 10
170.551283
 20
93.231143
 30
0.0
 10
171.398737
 20
93.231146
 30
0.0
  0
SPLINE
  5
1fd
100
AcDbEntity
  8
Layer_1
 62
7
100
AcDbSpline
 70
8
 71
3
 72
8
 73
4
 74
0
 40
0
 40
0
 40
0
 40
0
 40
1
 40
1
 40
1
 40
1
 10
171.398737
 20
93.231146
 30
0.0
 10
172.246510
 20
93.231146
 30
0.0
 10
172.824179
 20
93.950689
 30
0.0
 10
172.824179
 20
94.921172
 30
0.0
  0
LWPOLYLINE
  5
1fe
100
AcDbEntity
  8
Layer_1
 62
7
100
AcDbPolyline
 90
2
 70
0
 10
169.973845
 20
94.959204
 30
0.0
 10
169.973845
 20
94.916211
 30
0.0
  0
SPLINE
  5
1ff
100
AcDbEntity
  8
Layer_1
 62
7
100
AcDbSpline
 70
8
 71
3
 72
8
 73
4
 74
0
 40
0
 40
0
 40
0
 40
0
 40
1
 40
1
 40
1
 40
1
 10
172.824179
 20
94.964166
 30
0.0
 10
172.824179
 20
95.934649
 30
0.0
 10
172.251152
 20
96.649230
 30
0.0
 10
171.403698
 20
96.649230
 30
0.0
  0
LWPOLYLINE
  5
200
100
AcDbEntity
  8
Layer_1
 62
7
100
AcDbPolyline
 90
2
 70
0
 10
172.824179
 20
94.921172
 30
0.0
 10
172.824179
 20
94.964166
 30
0.0
  0
LWPOLYLINE
  5
201
100
AcDbEntity
  8
Layer_1
 62
7
100
AcDbPolyline
 90
2
 70
0
 10
171.403698
 20
96.649230
 30
0.0
 10
171.403698
 20
96.649230
 30
0.0
  0
LWPOLYLINE
  5
202
100
AcDbEntity
  8
Layer_1
 62
7
100
AcDbPolyline
 90
6
 70
0
 10
92.703938
 20
96.597417
 30
0.0
 10
92.703938
 20
93.282959
 30
0.0
 10
93.063881
 20
93.282959
 30
0.0
 10
93.063881
 20
96.597417
 30
0.0
 10
92.703938
 20
96.597417
 30
0.0
 10
92.703938
 20
96.597417
 30
0.0
  0
LWPOLYLINE
  5
203
100
AcDbEntity
  8
Layer_1
 62
7
100
AcDbPolyline
 90
16
 70
0
 10
98.784943
 20
96.597417
 30
0.0
 10
98.784943
 20
93.282959
 30
0.0
 10
99.130555
 20
93.282959
 30
0.0
 10
99.130555
 20
95.953047
 30
0.0
 10
100.153061
 20
94.182543
 30
0.0
 10
100.172904
 20
94.182543
 30
0.0
 10
101.190447
 20
95.958006
 30
0.0
 10
101.190447
 20
93.282959
 30
0.0
 10
101.545429
 20
93.282959
 30
0.0
 10
101.545429
 20
96.597417
 30
0.0
 10
101.176116
 20
96.597417
 30
0.0
 10
100.163534
 20
94.821951
 30
0.0
 10
99.149848
 20
96.597417
 30
0.0
 10
98.785494
 20
96.597417
 30
0.0
 10
98.784943
 20
96.597417
 30
0.0
 10
98.784943
 20
96.597417
 30
0.0
  0
LWPOLYLINE
  5
204
100
AcDbEntity
  8
Layer_1
 62
7
100
AcDbPolyline
 90
11
 70
0
 10
165.251034
 20
96.597417
 30
0.0
 10
166.416301
 20
94.622965
 30
0.0
 10
166.416301
 20
93.282959
 30
0.0
 10
166.776245
 20
93.282959
 30
0.0
 10
166.776245
 20
94.627373
 30
0.0
 10
167.940964
 20
96.597417
 30
0.0
 10
167.538575
 20
96.597417
 30
0.0
 10
166.600959
 20
94.977947
 30
0.0
 10
165.663894
 20
96.597417
 30
0.0
 10
165.251034
 20
96.597417
 30
0.0
 10
165.251034
 20
96.597417
 30
0.0
  0
SPLINE
  5
205
100
AcDbEntity
  8
Layer_1
 62
7
100
AcDbSpline
 70
8
 71
3
 72
8
 73
4
 74
0
 40
0
 40
0
 40
0
 40
0
 40
1
 40
1
 40
1
 40
1
 10
175.349848
 20
94.518785
 30
0.0
 10
175.349848
 20
93.685710
 30
0.0
 10
175.827735
 20
93.231143
 30
0.0
 10
176.533307
 20
93.231146
 30
0.0
  0
SPLINE
  5
206
100
AcDbEntity
  8
Layer_1
 62
7
100
AcDbSpline
 70
8
 71
3
 72
8
 73
4
 74
0
 40
0
 40
0
 40
0
 40
0
 40
1
 40
1
 40
1
 40
1
 10
176.533307
 20
93.231146
 30
0.0
 10
177.248148
 20
93.231146
 30
0.0
 10
177.730548
 20
93.685829
 30
0.0
 10
177.730548
 20
94.538075
 30
0.0
  0
LWPOLYLINE
  5
207
100
AcDbEntity
  8
Layer_1
 62
7
100
AcDbPolyline
 90
2
 70
0
 10
175.349848
 20
96.597417
 30
0.0
 10
175.349848
 20
94.518785
 30
0.0
  0
SPLINE
  5
208
100
AcDbEntity
  8
Layer_1
 62
7
100
AcDbSpline
 70
8
 71
3
 72
8
 73
4
 74
0
 40
0
 40
0
 40
0
 40
0
 40
1
 40
1
 40
1
 40
1
 10
177.371155
 20
94.514374
 30
0.0
 10
177.371155
 20
93.880063
 30
0.0
 10
177.049489
 20
93.562424
 30
0.0
 10
176.542677
 20
93.562424
 30
0.0
  0
SPLINE
  5
209
100
AcDbEntity
  8
Layer_1
 62
7
100
AcDbSpline
 70
8
 71
3
 72
8
 73
4
 74
0
 40
0
 40
0
 40
0
 40
0
 40
1
 40
1
 40
1
 40
1
 10
176.542677
 20
93.562424
 30
0.0
 10
176.022127
 20
93.562424
 30
0.0
 10
175.704830
 20
93.903428
 30
0.0
 10
175.704830
 20
94.528155
 30
0.0
  0
LWPOLYLINE
  5
20a
100
AcDbEntity
  8
Layer_1
 62
7
100
AcDbPolyline
 90
4
 70
0
 10
177.730548
 20
94.538075
 30
0.0
 10
177.730548
 20
96.597417
 30
0.0
 10
177.371155
 20
96.597417
 30
0.0
 10
177.371155
 20
94.514374
 30
0.0
  0
SPLINE
  5
20b
100
AcDbEntity
  8
Layer_1
 62
7
100
AcDbSpline
 70
8
 71
3
 72
8
 73
4
 74
0
 40
0
 40
0
 40
0
 40
0
 40
1
 40
1
 40
1
 40
1
 10
171.398737
 20
96.322910
 30
0.0
 10
172.004928
 20
96.322910
 30
0.0
 10
172.454866
 20
95.754405
 30
0.0
 10
172.454866
 20
94.954243
 30
0.0
  0
LWPOLYLINE
  5
20c
100
AcDbEntity
  8
Layer_1
 62
7
100
AcDbPolyline
 90
4
 70
0
 10
175.704830
 20
94.528155
 30
0.0
 10
175.704830
 20
96.597417
 30
0.0
 10
175.349848
 20
96.597417
 30
0.0
 10
175.349848
 20
96.597417
 30
0.0
  0
SPLINE
  5
20d
100
AcDbEntity
  8
Layer_1
 62
7
100
AcDbSpline
 70
8
 71
3
 72
8
 73
4
 74
0
 40
0
 40
0
 40
0
 40
0
 40
1
 40
1
 40
1
 40
1
 10
172.454866
 20
94.921172
 30
0.0
 10
172.454866
 20
94.121010
 30
0.0
 10
172.009570
 20
93.557466
 30
0.0
 10
171.403698
 20
93.557463
 30
0.0
  0
SPLINE
  5
20e
100
AcDbEntity
  8
Layer_1
 62
7
100
AcDbSpline
 70
8
 71
3
 72
8
 73
4
 74
0
 40
0
 40
0
 40
0
 40
0
 40
1
 40
1
 40
1
 40
1
 10
171.403698
 20
93.557463
 30
0.0
 10
170.793032
 20
93.557463
 30
0.0
 10
170.343161
 20
94.125971
 30
0.0
 10
170.343158
 20
94.926131
 30
0.0
  0
LWPOLYLINE
  5
20f
100
AcDbEntity
  8
Layer_1
 62
7
100
AcDbPolyline
 90
2
 70
0
 10
172.454866
 20
94.954243
 30
0.0
 10
172.454866
 20
94.921172
 30
0.0
  0
SPLINE
  5
210
100
AcDbEntity
  8
Layer_1
 62
7
100
AcDbSpline
 70
8
 71
3
 72
8
 73
4
 74
0
 40
0
 40
0
 40
0
 40
0
 40
1
 40
1
 40
1
 40
1
 10
170.343158
 20
94.959204
 30
0.0
 10
170.343158
 20
95.759366
 30
0.0
 10
170.788070
 20
96.322910
 30
0.0
 10
171.398737
 20
96.322910
 30
0.0
  0
LWPOLYLINE
  5
211
100
AcDbEntity
  8
Layer_1
 62
7
100
AcDbPolyline
 90
2
 70
0
 10
170.343158
 20
94.926131
 30
0.0
 10
170.343158
 20
94.959204
 30
0.0
  0
LWPOLYLINE
  5
212
100
AcDbEntity
  8
Layer_1
 62
7
100
AcDbPolyline
 90
2
 70
0
 10
171.398737
 20
96.322910
 30
0.0
 10
171.398737
 20
96.322910
 30
0.0
  0
ENDSEC
  0
SECTION
  2
OBJECTS
  0
DICTIONARY
  5
C
330
0
100
AcDbDictionary
  3
ACAD_GROUP
350
D
  3
ACAD_MLINESTYLE
350
17
  0
DICTIONARY
  5
D
330
C
100
AcDbDictionary
  0
DICTIONARY
  5
1A
330
C
100
AcDbDictionary
  0
DICTIONARY
  5
17
330
C
100
AcDbDictionary
  3
STANDARD
350
18
  0
DICTIONARY
  5
19
330
C
100
AcDbDictionary
  0
ENDSEC
  0
EOF
