<?xml version="1.0" encoding="UTF-8" standalone="no"?>
<!-- Created with Inkscape (http://www.inkscape.org/) -->

<svg
   xmlns:dc="http://purl.org/dc/elements/1.1/"
   xmlns:cc="http://creativecommons.org/ns#"
   xmlns:rdf="http://www.w3.org/1999/02/22-rdf-syntax-ns#"
   xmlns:svg="http://www.w3.org/2000/svg"
   xmlns="http://www.w3.org/2000/svg"
   xmlns:sodipodi="http://sodipodi.sourceforge.net/DTD/sodipodi-0.dtd"
   xmlns:inkscape="http://www.inkscape.org/namespaces/inkscape"
   width="210mm"
   height="297mm"
   viewBox="0 0 744.09448819 1052.3622047"
   id="svg2"
   version="1.1"
   inkscape:version="0.91 r13725"
   sodipodi:docname="logo_im_cotton_you.svg">
  <defs
     id="defs4">
    <clipPath
       id="clipPath4147"
       clipPathUnits="userSpaceOnUse">
      <path
         inkscape:connector-curvature="0"
         id="path4149"
         d="m 0,595.28 841.89,0 L 841.89,0 0,0 0,595.28 Z" />
    </clipPath>
    <clipPath
       id="clipPath4182"
       clipPathUnits="userSpaceOnUse">
      <path
         inkscape:connector-curvature="0"
         id="path4184"
         d="m 0,595.28 841.89,0 L 841.89,0 0,0 0,595.28 Z" />
    </clipPath>
  </defs>
  <sodipodi:namedview
     id="base"
     pagecolor="#ffffff"
     bordercolor="#666666"
     borderopacity="1.0"
     inkscape:pageopacity="0.0"
     inkscape:pageshadow="2"
     inkscape:zoom="1.979899"
     inkscape:cx="357.81938"
     inkscape:cy="132.50863"
     inkscape:document-units="mm"
     inkscape:current-layer="layer1"
     showgrid="false"
     inkscape:window-width="1440"
     inkscape:window-height="837"
     inkscape:window-x="-4"
     inkscape:window-y="-4"
     inkscape:window-maximized="1" />
  <metadata
     id="metadata7">
    <rdf:RDF>
      <cc:Work
         rdf:about="">
        <dc:format>image/svg+xml</dc:format>
        <dc:type
           rdf:resource="http://purl.org/dc/dcmitype/StillImage" />
        <dc:title></dc:title>
      </cc:Work>
    </rdf:RDF>
  </metadata>
  <g
     inkscape:label="Layer 1"
     inkscape:groupmode="layer"
     id="layer1">
    <g
       transform="matrix(1.25,0,0,-1.25,-169.03833,1289.412)"
       inkscape:label="prezentare_Flori"
       id="g4176">
      <g
         id="g4178">
        <g
           clip-path="url(#clipPath4182)"
           id="g4180">
          <g
             transform="translate(450.5753,296.8528)"
             id="g4186" />
          <g
             transform="translate(306.9352,291.8337)"
             id="g4192" />
          <g
             transform="translate(518.5778,285.656)"
             id="g4196" />
          <g
             transform="translate(537.4743,286.5886)"
             id="g4200" />
          <g
             transform="translate(546.5339,285.3298)"
             id="g4204" />
          <path
             style="fill:#4e4b49;fill-opacity:1;fill-rule:nonzero;stroke:none"
             d="M 354.51758 883.87305 C 354.08564 883.85305 353.62711 883.91898 353.14648 884.07617 C 350.80773 884.62617 349.58727 886.96812 348.97852 889.17188 C 348.63227 890.43062 348.48828 891.68008 348.23828 892.83008 L 347.44531 895.45898 C 347.16281 895.99273 346.76766 896.32547 346.25391 896.35547 C 346.08641 896.36422 337.19078 896.45156 327.92578 896.60156 L 327.77539 896.45508 C 327.53914 896.02133 327.52922 895.29727 327.51172 894.94727 C 327.48172 894.33477 327.54352 893.85344 327.60352 893.27344 C 327.80977 891.23719 327.58422 889.41008 326.79297 887.61133 C 326.09922 885.98383 324.74758 885.27164 323.11133 885.80664 C 321.12008 886.27414 320.08391 888.26687 319.56641 890.14062 C 319.27016 891.21062 319.14734 892.2732 318.93359 893.25195 L 318.52734 895.57617 C 318.44859 895.92492 318.34891 896.46016 318.16016 896.78516 C 314.17266 896.87516 310.76789 896.9793 308.83789 897.0918 C 306.88789 897.20555 305.03727 897.20836 303.10352 897.63086 C 302.79602 897.64961 302.49352 897.77039 302.19727 897.99414 C 301.30977 898.76914 302.26383 899.33133 302.98633 899.39258 C 304.73633 899.39383 307.39773 899.13797 309.55273 899.01172 L 313.45117 898.7832 C 313.44992 898.7532 314.83586 898.71258 316.81836 898.67383 C 316.90961 898.72258 317.01797 898.76633 317.16797 898.79883 C 317.79297 899.02508 317.72109 899.38586 317.74609 899.91211 C 317.73234 904.83086 317.42438 908.44617 317.26562 912.23242 C 316.96938 916.26867 317.09008 920.27766 317.79883 924.25391 C 315.99508 926.20516 312.92391 926.59797 310.31641 926.23047 C 308.96641 925.99922 306.55633 925.10688 305.26758 924.04688 C 304.50758 923.26438 304.99375 922.71891 304.21875 921.62891 C 303.44375 920.53891 303.45422 920.74445 302.69922 920.06445 C 301.40047 918.7982 299.34273 918.81656 297.61523 919.22656 C 295.98898 919.63156 294.46563 920.02781 292.95312 920.63281 C 291.64562 921.22656 290.66758 922.2125 290.01758 923.59375 C 289.78008 924.005 289.58516 924.43625 289.41016 924.875 C 287.07891 929.06375 284.59859 932.89883 281.49609 936.17383 C 279.07234 939.10258 275.95672 942.59039 272.26172 942.80664 C 271.95547 942.82414 271.74508 942.73133 271.64258 942.73633 C 268.85758 942.59008 267.16656 939.69406 266.60156 938.69531 C 265.34781 936.28906 264.99648 933.41773 264.89648 929.39648 C 265.06398 926.59898 265.24625 924.11047 265.96875 922.10547 C 266.50625 920.52422 267.17187 919.45172 267.85938 918.79297 C 268.55062 918.23422 269.25758 917.9882 270.08008 917.93945 C 270.38758 917.92195 270.90117 917.89273 271.32617 918.17773 C 271.85492 918.45648 272.29148 918.94672 272.64648 919.85547 L 273.02148 921.17773 C 273.04273 921.58898 273.16008 921.89203 273.26758 921.98828 C 273.38633 922.29203 273.59773 922.38164 273.80273 922.36914 C 274.11023 922.35164 274.40703 922.12844 274.48828 921.71094 C 274.82078 920.14219 274.4425 918.71883 273.25 917.54883 C 272.27 916.47008 271.11508 916.02039 269.58008 916.21289 C 267.22633 916.45414 265.44266 917.79805 264.56641 918.7793 C 262.51516 920.9643 261.42859 923.91734 260.87109 927.15234 C 260.51984 930.37359 260.66664 933.25734 261.65039 936.40234 C 262.38539 938.73359 263.50867 940.63016 264.91992 942.09766 C 266.64617 943.65016 268.1607 945.11039 271.75195 944.90039 C 275.04945 945.01914 278.48445 941.7193 281.2207 938.87305 C 284.1332 935.7443 286.72836 932.03813 288.63086 929.04688 C 288.62461 929.97938 288.70742 930.91141 288.88867 931.81641 C 289.29492 933.75516 289.79523 935.48141 290.99023 936.75391 C 292.19773 938.23266 293.89648 939.27094 295.64648 939.27344 C 297.71273 939.46094 299.82 938.41039 301.28125 936.77539 C 302.74125 935.14164 303.77773 933.22141 304.39648 931.22266 C 304.82148 929.44266 304.91352 929.23016 304.97852 928.50391 C 305.04477 927.77641 305.09094 926.64047 305.05469 925.91797 C 305.79844 926.39297 307.80414 927.4093 309.46289 927.62305 C 312.55539 928.0593 315.89664 927.78773 318.11914 925.86523 C 318.19664 926.21773 318.26992 926.57133 318.35742 926.92383 C 319.56617 931.77133 320.91578 937.75312 325.11328 941.10938 C 327.75078 943.06312 330.55641 943.16469 333.16016 940.99219 C 335.09891 939.47344 337.43289 937.14297 339.40039 934.48047 C 342.26039 930.62172 344.00438 926.81664 346.14062 921.99414 C 346.26313 925.49039 346.7032 928.96883 347.56445 932.42383 C 348.98445 938.12383 350.57531 945.15797 355.50781 949.10547 C 358.60906 951.40297 361.90484 951.52055 364.96484 948.9668 C 367.24234 947.1818 369.98563 944.43859 372.29688 941.30859 C 375.85438 936.50484 377.94797 931.76883 380.66797 925.61133 C 380.70797 925.89508 380.74773 926.17828 380.80273 926.45703 C 381.21023 928.39578 381.7093 930.12203 382.9043 931.39453 C 384.1118 932.87328 385.81055 933.91156 387.56055 933.91406 C 389.6268 934.10156 391.73602 933.04977 393.19727 931.41602 C 394.65727 929.78227 395.69055 927.86078 396.31055 925.86328 C 396.7343 924.08328 396.82633 923.87008 396.89258 923.14258 C 396.96008 922.41633 397.00625 921.27914 396.96875 920.55664 C 397.71375 921.03039 399.7175 922.04992 401.375 922.26367 C 404.85625 922.75367 408.64984 922.34156 410.80859 919.69531 C 410.96109 924.21156 412.04703 928.70891 412.83203 933.16016 C 413.21828 934.68766 413.50125 936.22031 414.40625 937.82031 C 414.42125 938.12781 414.73891 938.31844 415.06641 938.71094 C 415.49891 939.09969 416.30234 938.7432 416.58984 938.31445 C 416.67734 937.9982 416.98109 937.87711 416.96484 937.56836 C 418.41734 931.69961 419.67578 926.04969 422.76953 920.08594 C 423.80828 918.26969 427.78633 913.49281 430.14258 917.38281 C 431.49383 919.68031 430.94758 923.12195 430.98633 925.9082 C 431.18883 936.01695 436.53039 943.96523 443.96289 936.30273 C 448.87414 931.67898 451.95766 921.48313 452.47266 915.35938 C 452.64141 914.62688 452.52422 914.32156 452.01172 914.35156 C 451.49172 914.27906 451.605 914.47914 451.3125 914.80664 C 451.45875 917.68914 449.62531 922.13539 448.94531 924.96289 C 447.78906 928.54164 444.18156 934.53625 442.28906 935.78125 C 434.86781 939.6225 434.64211 928.99773 434.44336 925.08398 C 434.70836 922.17773 434.74703 918.87133 433.48828 916.36133 C 432.89703 914.84633 431.93273 914.07891 430.58398 913.84766 C 426.52523 912.94891 423.78797 915.7932 421.57422 918.81445 C 418.98672 922.57945 418.35672 926.43758 416.91797 930.54883 L 416.72461 930.76562 L 416.62695 930.87695 C 416.52445 930.88195 416.31391 930.78945 416.09766 930.5957 C 415.58891 928.6632 415.18141 926.72492 415.37891 924.54492 C 415.38266 922.58242 415.18773 920.73453 415.08398 918.67578 C 414.91898 917.44453 415.25109 915.87758 414.46484 914.58008 C 414.02984 914.09008 413.50367 913.91297 412.88867 913.94922 C 411.76492 914.11797 411.07953 914.77781 410.92578 915.82031 C 410.88203 916.22781 410.87266 916.63281 410.84766 917.03906 L 410.60547 917.59375 C 409.11547 920.675 405.34117 921.30859 402.23242 920.87109 C 400.88242 920.63859 398.47039 919.7468 397.18164 918.68555 C 396.42164 917.9043 396.90977 917.35953 396.13477 916.26953 C 395.35977 915.17828 395.37148 915.38383 394.61523 914.70508 C 393.31648 913.43883 391.26 913.45398 389.53125 913.86523 C 387.90375 914.26898 386.38164 914.66844 384.86914 915.27344 C 383.56289 915.86719 382.58164 916.85313 381.93164 918.23438 C 381.46664 919.04062 381.13766 919.90648 380.91016 920.80273 C 377.08766 930.20898 373.93977 935.72648 372.54102 937.99023 C 370.71727 940.57523 367.32031 946.66016 363.25781 947.72266 C 356.46906 949.77266 353.34891 936.93906 352.62891 932.85156 C 351.64516 927.64156 351.12648 921.47617 351.27148 916.20117 C 351.45273 913.71117 351.54016 911.33141 352.66016 909.09766 C 353.86891 906.54766 357.25727 900.25609 357.72852 899.40234 C 358.09602 898.55484 358.90672 898.30008 359.82422 898.14258 C 360.64547 898.09508 372.06523 898.05133 376.02148 898.95508 C 376.75523 899.22383 376.70773 898.29688 376.58398 897.89062 C 376.54273 897.06813 375.91148 896.79289 375.17773 896.52539 C 373.52148 896.31289 362.27484 895.73047 360.12109 895.85547 C 359.81359 895.87422 359.30031 895.90258 358.97656 895.61133 C 358.56156 895.53258 358.34031 895.23547 358.32031 894.82422 C 358.28406 894.10297 358.46203 893.57547 358.42578 892.85547 C 359.03453 890.65172 358.40266 888.31297 357.47266 886.19922 C 356.86047 884.76391 355.81338 883.93305 354.51758 883.87305 z M 355.14453 887.33008 C 355.41904 887.31865 355.65578 887.44102 355.90234 887.73633 C 356.36859 888.84633 356.41711 889.77305 356.47461 890.9043 C 356.54211 892.24305 356.60531 893.47859 355.94531 894.65234 C 355.76531 895.18109 355.37555 895.61531 354.87305 895.85156 C 354.1593 895.99656 353.63625 895.82086 353.40625 895.31836 C 353.2825 894.91211 353.16547 894.60945 353.26172 894.50195 C 353.24672 894.19195 353.3725 892.63445 353.4375 891.9082 C 353.69875 890.96445 353.75 889.92664 354 888.77539 C 354.27625 888.14039 354.56422 887.70977 354.85547 887.38477 C 354.95672 887.35289 355.05303 887.33389 355.14453 887.33008 z M 324.8125 888.57422 C 325.04582 888.5649 325.24797 888.66766 325.45703 888.91797 C 325.85453 889.86172 325.89461 890.64953 325.94336 891.61328 C 326.00086 892.75078 326.05344 893.80203 325.49219 894.80078 C 325.33969 895.24953 325.00758 895.61906 324.58008 895.82031 C 323.97258 895.94406 323.52703 895.79469 323.33203 895.36719 C 323.22578 895.02219 323.12648 894.76437 323.20898 894.67188 C 323.19523 894.40812 323.30313 893.08555 323.35938 892.4668 C 323.58187 891.6643 323.62539 890.78148 323.83789 889.80273 C 324.07289 889.26273 324.31766 888.89664 324.56641 888.61914 C 324.65234 888.59227 324.73473 888.57732 324.8125 888.57422 z M 338.43359 898.37305 C 341.62359 898.3807 344.71477 898.45836 345.65039 898.66211 C 346.38539 898.92711 346.81641 899.31805 346.84766 899.93555 C 346.83016 905.7193 346.46555 910.69719 346.2793 915.14844 C 346.1968 916.26969 346.15125 917.38906 346.125 918.50781 C 343.1475 925.61906 340.72367 929.8532 339.60742 931.6582 C 338.05492 933.85695 335.16453 939.0318 331.70703 939.93555 C 325.93078 941.67805 323.27852 930.76531 322.66602 927.28906 C 321.82977 922.85781 321.38992 917.6132 321.51367 913.12695 C 321.66867 911.00945 321.74156 908.98594 322.69531 907.08594 C 323.72406 904.91719 326.31289 900.10906 326.71289 899.38281 C 326.92539 898.89656 327.47172 898.66313 328.04297 898.51562 C 329.38672 898.50437 330.35109 898.49836 330.62109 898.50586 C 331.95422 898.42773 335.24359 898.36539 338.43359 898.37305 z M 324.00195 898.65234 C 324.27148 898.69797 324.47133 898.85844 324.48633 899.16406 C 324.48633 899.16406 324.43773 899.47727 324.45898 899.91602 C 323.91523 901.26602 322.56047 904.37031 322.57422 904.63281 L 322.38867 904.46875 C 322.37492 904.205 322.4725 900.84008 322.625 900.39258 C 322.775 899.95133 322.8375 898.92672 323.09375 898.82422 C 323.39312 898.67484 323.73242 898.60672 324.00195 898.65234 z M 353.98047 898.89844 C 354.42918 898.89141 354.73648 899.2432 354.76367 899.7832 C 354.76367 899.7832 354.77258 899.98766 354.79883 900.50391 C 354.15883 902.09016 352.50062 905.90414 352.51562 906.21289 L 352.30078 906.01953 C 352.28453 905.70953 352.52633 900.32383 352.70508 899.79883 C 352.99133 899.36883 353.18898 899.1525 353.49023 899.03125 C 353.66617 898.94313 353.8309 898.90078 353.98047 898.89844 z M 391.21484 915.17188 C 392.40264 915.1687 393.92055 916.24289 394.33398 917.30273 C 394.45273 917.60523 394.48539 918.22445 394.18164 918.3457 C 393.68414 918.6832 393.58164 918.68898 392.86914 918.83398 C 391.53414 918.91148 390.48383 918.45781 389.61133 917.47656 C 389.16383 916.77906 389.53016 915.93125 390.22266 915.375 C 390.42891 915.3625 390.63422 915.35094 390.73047 915.24219 C 390.8825 915.19453 391.04516 915.17233 391.21484 915.17188 z M 387.62695 918.69141 C 387.78158 918.6984 387.94969 918.73422 388.13281 918.80078 C 388.55906 919.08578 389.07859 919.15797 389.40234 919.44922 C 390.67359 920.20047 391.82883 920.65148 393.36133 920.45898 L 394.18359 920.41016 C 394.70109 920.48266 395.02992 920.87719 395.07617 921.80469 C 395.22617 922.72469 394.96469 923.66898 394.89844 924.39648 C 394.58719 926.37648 393.75398 928.1818 392.39648 929.81055 C 391.71398 930.57305 391.22586 931.11672 390.31836 931.48047 C 388.80586 932.08547 387.35875 931.96148 386.5625 930.45898 C 385.8675 928.95023 385.47414 927.2182 385.36914 925.1582 C 385.28664 923.51195 385.50938 921.84562 386.04688 920.26562 C 386.03688 920.05937 386.22648 919.73773 386.61523 919.30273 C 386.82617 918.9043 387.16307 918.67043 387.62695 918.69141 z M 299.30078 920.53125 C 300.48774 920.52807 302.00648 921.60422 302.41992 922.66406 C 302.53867 922.96656 302.57008 923.58383 302.26758 923.70508 C 301.76883 924.04258 301.66687 924.04906 300.95312 924.19531 C 299.62063 924.27281 298.56906 923.81844 297.69531 922.83594 C 297.24906 922.13844 297.61734 921.29062 298.30859 920.73438 C 298.51484 920.72312 298.71891 920.71031 298.81641 920.60156 C 298.96828 920.55391 299.13122 920.5317 299.30078 920.53125 z M 208.67773 923.01758 L 208.67773 927.17188 L 210.01953 927.17188 L 210.01953 923.01758 L 208.67773 923.01758 z M 295.71094 924.05273 C 295.86547 924.05971 296.03562 924.09359 296.21875 924.16016 C 296.64625 924.44516 297.16383 924.52055 297.48633 924.81055 C 298.75883 925.56305 299.91352 926.01211 301.44727 925.81836 L 302.26758 925.77148 C 302.78633 925.84523 303.11391 926.23656 303.16016 927.16406 C 303.31141 928.08406 303.04938 929.03031 302.98438 929.75781 C 302.67188 931.73781 301.83922 933.54242 300.48047 935.16992 C 299.79922 935.93367 299.31109 936.47734 298.40234 936.83984 C 296.89109 937.44484 295.44469 937.32281 294.64844 935.82031 C 293.95344 934.31156 293.55813 932.57883 293.45312 930.51758 C 293.37063 928.87133 293.59531 927.20695 294.13281 925.62695 C 294.12281 925.4207 294.31117 925.09906 294.70117 924.66406 C 294.91305 924.26469 295.24734 924.03182 295.71094 924.05273 z M 498.69336 924.41602 C 495.39586 924.41602 493.09961 927.23109 493.09961 931.02734 L 493.09961 931.19531 C 493.09961 934.99156 495.35883 937.78711 498.67383 937.78711 C 501.99008 937.78711 504.25 934.97203 504.25 931.17578 L 504.25 931.00781 C 504.25 927.21156 502.00836 924.41602 498.69336 924.41602 z M 190.8418 924.61914 L 190.8418 937.58398 L 192.25 937.58398 L 192.25 924.61914 L 190.8418 924.61914 z M 214.63086 924.61914 L 214.63086 937.58398 L 215.98242 937.58398 L 215.98242 927.13867 L 219.98242 934.06445 L 220.05859 934.06445 L 224.03906 927.11914 L 224.03906 937.58398 L 225.42773 937.58398 L 225.42773 924.61914 L 223.98242 924.61914 L 220.02148 931.56445 L 216.05664 924.61914 L 214.63086 924.61914 z M 474.62695 924.61914 L 479.18359 932.3418 L 479.18359 937.58398 L 480.5918 937.58398 L 480.5918 932.32422 L 485.14844 924.61914 L 483.57422 924.61914 L 479.90625 930.95312 L 476.24023 924.61914 L 474.62695 924.61914 z M 514.12891 924.61914 L 514.12891 932.75 C 514.12891 936.00875 515.99977 937.78711 518.75977 937.78711 C 521.55602 937.78711 523.44336 936.00758 523.44336 932.67383 L 523.44336 924.61914 L 522.03711 924.61914 L 522.03711 932.76758 C 522.03711 935.24883 520.77742 936.49023 518.79492 936.49023 C 516.75867 936.49023 515.51758 935.15664 515.51758 932.71289 L 515.51758 924.61914 L 514.12891 924.61914 z M 498.67383 925.69336 C 501.04508 925.69336 502.80469 927.91688 502.80469 931.04688 L 502.80469 931.17578 C 502.80469 934.30578 501.06336 936.50977 498.69336 936.50977 C 496.30461 936.50977 494.54492 934.28625 494.54492 931.15625 L 494.54492 931.02734 C 494.54492 927.89734 496.28508 925.69336 498.67383 925.69336 z "
             transform="matrix(0.8,0,0,-0.8,135.23066,1031.5296)"
             id="path4208" />
        </g>
      </g>
    </g>
  </g>
</svg>
