<?xml version="1.0" encoding="UTF-8" standalone="no"?>
<!-- Created with Inkscape (http://www.inkscape.org/) -->

<svg
   xmlns:dc="http://purl.org/dc/elements/1.1/"
   xmlns:cc="http://creativecommons.org/ns#"
   xmlns:rdf="http://www.w3.org/1999/02/22-rdf-syntax-ns#"
   xmlns:svg="http://www.w3.org/2000/svg"
   xmlns="http://www.w3.org/2000/svg"
   xmlns:sodipodi="http://sodipodi.sourceforge.net/DTD/sodipodi-0.dtd"
   xmlns:inkscape="http://www.inkscape.org/namespaces/inkscape"
   id="svg5620"
   version="1.1"
   inkscape:version="0.91 r13725"
   width="1052.4"
   height="744"
   viewBox="0 0 1052.4 744"
   sodipodi:docname="Linie DA studio.svg">
  <sodipodi:namedview
     pagecolor="#ffffff"
     bordercolor="#666666"
     borderopacity="1"
     objecttolerance="10"
     gridtolerance="10"
     guidetolerance="10"
     inkscape:pageopacity="0"
     inkscape:pageshadow="2"
     inkscape:window-width="1440"
     inkscape:window-height="838"
     id="namedview5622"
     showgrid="false"
     inkscape:zoom="1.6394342"
     inkscape:cx="630.12314"
     inkscape:cy="372.63552"
     inkscape:window-x="-8"
     inkscape:window-y="-8"
     inkscape:window-maximized="1"
     inkscape:current-layer="svg5620" />
  <metadata
     id="metadata5626">
    <rdf:RDF>
      <cc:Work
         rdf:about="">
        <dc:format>image/svg+xml</dc:format>
        <dc:type
           rdf:resource="http://purl.org/dc/dcmitype/StillImage" />
        <dc:title></dc:title>
      </cc:Work>
    </rdf:RDF>
  </metadata>
  <defs
     id="defs5624" />
  <path
     id="path6170"
     d="M492.61719 318.17773L482.167738906 318.752578438L477.056018965 319.484786289L471.99624625 320.5185975L466.970878379 321.857822773L461.962372969 323.506272813L451.92578 327.74609L444.771669063 331.50541625L438.3899925 335.5358675L432.469082188 340.0542425L426.69727 345.27734L423.106006719 348.995102461L419.84839875 352.827511563L416.931753906 356.762202383L414.36338 360.78681L412.150584844 364.888969492L410.30067625 369.056315938L408.820962031 373.276484414L407.71875 377.53711L407.1992 381.361791406L406.98958 385.92097875L407.1001125 390.293601719L407.54102 393.55859L409.2078775 397.956285L410.37551375 399.791455625L411.78711 401.42383L414.9503475 403.88660625L419.0625 405.49805L422.133732188 406.041415156L425.9133375 406.21891625L429.890571562 406.031101719L433.55469 405.47852L438.843991699 403.956240293L444.206929219 401.726011094L449.572679941 398.838907285L454.87042125 395.34600375L460.029330527 391.298375371L464.978585156 386.747097031L469.64736252 381.743243613L473.96484 376.33789L476.952437812 372.025575508L479.57983875 367.687282188L481.846435313 363.324637773L483.75162 358.93927L485.294785313 354.532806602L486.47532375 350.106875313L487.292627812 345.663103867L487.74609 341.20312L487.94531 337.9375L486.84961 337.9375L485.89335125 338.100525L485.75391 339.2207L485.43945 343.04492L484.779243457 347.07151291L483.798657656 351.129591406L480.90469125 359.27459375L476.814236719 367.348704219L471.58398 375.2207L468.479045469 378.964849844L464.46906625 383.25107625L460.240178906 387.378559531L456.47852 390.64648L450.501389844 394.969192969L444.49396625 398.53641875L438.526182031 401.311020156L432.66797 403.25586L429.453169375 403.861799531L426.0671925 404.09495625L422.862464375 403.950557344L420.19141 403.42383L417.508908574 402.31133748L415.224431094 400.800771094L413.350584004 398.916668848L411.89997375 396.68356875L410.885206777 394.126008809L410.318889531 391.268527031L410.213628457 388.135661426L410.58203 384.75195L411.349412441 381.372512949L412.501145156 377.773570469L415.84783375 370.13271125L420.402440469 362.260456406L425.94531 354.58789L433.158855 346.720265L440.75391 339.72852L447.341338281 334.958261562L454.34664125 330.7177525L461.564856094 327.119832187L468.79102 324.27734L474.205421406 322.650751094L479.58517375 321.47353875L485.123999219 320.711412031L491.01562 320.33008L497.769230059 320.381756758L503.914363594 321.018112187L509.499093145 322.260922773L514.57149125 324.131965L519.179630449 326.653015352L523.371583281 329.845850312L527.195422285 333.732246367L530.69922 338.33398L532.69922 341.28906L531.50195 342.35352L518.97295375 354.29259875L507.15039 367.1875L500.673737969 374.93654875L494.67231875 382.6192L480.36133 402.73828L472.50957 413.61173875L465.57812 422.38867L458.769505 429.5274875L451.85547 435.78516L447.069532031 439.301607031L441.85543875 442.52979625L436.166263594 445.496507344L429.95508 448.22852L425.60547 449.98828L381.2793 450.00391L381.2793 455.07422L420.20508 455.08789L423.6543 456.0332L429.7066725 457.36550875L436.4043 458.23047L446.01722625 458.36183625L455.45508 457.81836L465.036819375 455.9354125L469.604254922 454.596587109L474.074295 452.9722475L482.876870625 448.80518625L491.75391 443.31055L496.07422 440.18945L497.625 439.10938L497.25977 440.83789L496.95712 442.73094375L496.94727 445.12109L497.2340075 447.61869375L498.02344 449.66992L499.393052949 451.814020195L501.238691719 453.680525938L503.531713691 455.258393711L506.24347625 456.53658L509.345336777 457.504041289L512.808652656 458.149734063L516.60478127 458.462614805L520.70508 458.43164L528.08938875 457.64735L535.461975 455.93012L543.33111375 453.1291775L552.20508 449.09375L562.6944725 443.424505L574.33789 436.38672L576.55029625 435.101125L577.63867 434.73047L580.27148 436.66211L587.64105625 441.5583475L591.259615156 443.483811875L594.6543 444.95703L600.64258 446.72852L604.76953 447.85352L602.45703 451.13086L600.05469 454.62891L653.66383125 454.8624425L820.4043 454.9375L852.27148 454.9375L852.27148 450.13867L827.73047 450.13867L657.878105 450.06340875L614.82812 449.76758L615.739465 449.40031625L617.99805 449.03906L624.457220156 447.76773375L630.85272375 445.3393975L637.772550469 441.476225L645.80469 435.90039L652.08010125 430.9600175L657.6543 425.98828L662.68164 421.36914L664.85742 419.47266L665.33984 420.62695L665.641005156 421.79982125L665.65351875 423.1184325L664.84375 425.86133L663.516688438 427.834474219L661.7940675 429.55007125L659.971287813 430.764070156L658.34375 431.23242L656.84167375 430.8356825L656.1543 429.94336L656.236805 429.5030525L656.74414 429.87891L657.513310156 430.210347188L658.18171875 429.9941625L658.508290469 429.421521563L658.25195 428.68359L657.439201406 428.232335156L656.53464625 428.39666625L655.829075469 429.032096719L655.61328 429.99414L656.011528555 430.838643359L656.888521563 431.3301175L658.128518789 431.490393516L659.61578 431.3413025L662.869133438 430.20234375L664.403745195 429.256138203L665.72266 428.08789L666.9562125 426.97749625L668.15039 426.73828L669.3073575 426.53677875L670.39453 425.80664L671.45508 424.55078L670.62891 425.01367L669.0056725 426.08400875L667.58984 426.29688L667.19845875 425.75432L667.07422 424.11523L666.88644125 422.2022275L666.2832 420.58789L665.52148 419.08789L666.23828 418.54883L666.92425 417.64711125L666.941452813 417.285267969L666.69141 417.13867L663.59961 419.91406L659.08134 423.7161775L650.13867 430.20898L638.96994 437.981185L633.05469 441.51367L628.67123 443.630737969L624.2617975 445.34617625L620.40799125 446.460791406L617.69141 446.77539L616.57812 446.6875L618.26953 444.4375L638.70898 418.03906L659.066774844 393.433277188L680.34335625 369.5239725L702.445817031 346.411764063L725.28125 324.19727L728.25586 321.40625L727.59766 320.74805L726.93945 320.08984L723.76172 320.92188L719.226870098 322.291928457L714.532441406 324.074891406L709.640747949 326.291581465L704.51410375 328.96281125L693.405219219 335.752140469L680.9043 344.60938L669.865054375 353.110413906L657.6211775 363.06280375L624.96289 391.10938L615.22266 399.64062L614.24609 396.41602L611.519233438 389.007102344L608.113355 382.45540375L604.112711562 376.898660781L599.60156 372.47461L595.1554825 369.497529687L590.385915 367.475445L585.2437025 366.392885313L579.67969 366.23438L575.708955937 366.686980156L572.3061875 367.63876625L569.326497813 369.145681719L566.625 371.26367L564.479036309 373.546728633L562.624357969 376.102644062L561.065499082 378.918369336L559.80699375 381.9808575L558.853376074 385.277061602L558.209180156 388.793934688L557.878940098 392.518429805L557.86719 396.4375L558.497841875 403.111585625L559.963405 409.10214L562.423828125 414.888304375L566.03906 420.94922L569.02387875 425.20460625L573.17773 430.29688L574.90194625 432.516355L574.976027031 432.945146875L574.69141 433.24414L558.25781 443.36328L550.983342656 447.176611563L543.34198375 450.640205L536.507660469 453.260745937L531.6543 454.54492L530.00391 454.94922L526.55469 455.67578L521.708487285 456.24525L517.196001406 456.381055L513.065847012 456.0956975L509.36663875 455.40168L506.14699127 454.311505L503.455519219 452.837675L501.340837246 450.9926925L499.85156 448.78906L499.2603225 447.0859375L499.11523 444.73828L499.226472031 442.807777969L499.60507875 441.16648625L500.307121094 439.650446406L501.38867 438.0957L502.33398 436.90234L502.85742 438.06836L503.753191406 439.451884062L504.98527875 440.35064L506.554804219 440.764993438L508.46289 440.69531L509.846369531 440.271111094L510.91779375 439.49975875L511.609423594 438.450694531L511.85352 437.19336L511.470992188 435.372417031L510.38947 433.97138125L508.703545312 433.069029844L506.50781 432.74414L504.91211 432.73828L508.07617 429.36328L513.970797637 422.582559883L519.376763594 415.366795937L524.243672441 407.816002773L528.52112875 400.030195L532.15873709 392.109387227L535.106102031 384.153594062L537.312828145 376.262830117L538.72852 368.53711L539.06687 360.0833275L538.86753625 355.606160313L538.44141 352.03711L535.65039 342.55664L538.76367 339.81641L548.46286375 333.25603625L553.098429844 330.590801094L557.39258 328.45703L560.13281 326.94336L559.68359 326.11719L559.1429975 325.6955375L557.84375 326.08594L553.385216875 328.068481719L548.1871425 330.85282125L542.930654375 334.049130156L538.29688 337.26758L534.50586 339.98047L532.31836 336.73438L527.726505 330.97358375L525.132706562 328.371401406L522.59375 326.22852L519.965080879 324.435219199L517.144160156 322.875861094L510.87466375 320.44398375L503.683460469 318.902909531L495.46875 318.22266L492.61719 318.17773L492.61719 318.17773M720.9668 324.23828L721.202457656 324.309444219L720.95007625 324.70648625L718.55469 327.0332L697.592565 347.0048775L683.77734 360.70117L666.92773 378.88867L643.4082 404.23828L624.28966875 424.91566L614.1582 436.48828L611.61523 439.55859L612.83789 435.91016L614.9093275 428.891786406L616.1960925 422.12910375L616.73051375 415.383414219L616.54492 408.41602L616.14062 402.71484L616.615556875 401.878606875L618.5526075 399.9160575L629.60938 389.96484L651.3301775 370.967785L668.1543 357.10352L676.973803594 350.262111094L686.00016375 343.64286625L694.616287031 337.685588281L702.20508 332.83008L707.316076406 329.947490469L712.53346125 327.36023125L717.198960469 325.373131406L720.6543 324.29102L720.9668 324.23828L720.9668 324.23828M533.5957 343.97852L534.82081625 347.51714625L536.21484 353.01172L536.739690469 357.013951094L536.91469125 361.66817875L536.739766406 366.400914531L536.21484 370.63867L533.764347031 380.5317075L530.05699375 390.731795L525.240576094 400.8862975L519.46289 410.64258L515.506504844 416.322624531L511.26901125 421.80946625L507.006874531 426.787082344L502.97656 430.93945L497.271624277 436.012178301L491.428924219 440.533331406L485.456949238 444.498601621L479.36418875 447.90368125L473.159132168 450.744262598L466.850268906 453.016037969L460.446088379 454.714699668L453.95508 455.83594L445.9092375 456.27427625L438.05469 456.11328L431.34853125 455.13778875L424.55469 453.80664L422.30469 453.26953L424.4043 452.70898L432.0699375 450.23168875L440.30469 447.08203L449.532245312 442.619020781L458.3062925 437.29632125L466.523385938 431.183371094L474.08008 424.34961L481.243587969 416.68649125L487.64282625 408.5421275L494.044871406 398.84838L501.2168 386.53711L508.881209219 373.40441375L515.75487375 362.8896225L522.028446406 354.721525L527.89258 348.62891L531.97667875 345.08267375L533.5957 343.97852L533.5957 343.97852M581.45508 368.39648L587.1628875 368.8325225L589.55646375 369.468970625L592.10547 370.47461L595.18999707 372.165968652L598.213188437 374.452871719L601.120429336 377.263453613L603.857105 380.52584875L606.368600664 384.168191543L608.600301563 388.118616406L610.49759293 392.305257754L612.00586 396.65625L612.8812275 399.580322969L612.95113 400.570264395L612.63386 401.49201875L610.4118475 403.870595156L605.36328 408.19531L582.00586 427.71289L577.4668 431.23828L575.17401 428.921345L571.45508 424.55664L566.446542344 417.474775469L564.531971504 414.024257988L562.98049875 410.55777875L561.769598652 407.018159043L560.876745781 403.348220156L560.279414707 399.490783379L559.95508 395.38867L559.92881625 391.5784L560.42969 388.07812L562.03536875 382.1611325L563.124741406 379.710142187L564.46484 377.43945L566.780723438 374.362724844L569.177215 372.03197125L571.815176563 370.317554531L574.85547 369.08984L577.47916125 368.5146275L581.45508 368.39648L581.45508 368.39648M613.70508 403.83984L613.9375 405.46289L614.1923475 413.30958L613.88672 421.48828L613.029307187 426.647520156L611.773305 431.87066875L610.128210312 437.123815469L608.10352 442.37305L606.40039 445.91602L602.9043 445.13867L597.5825775 443.616167031L592.5009525 441.49225125L587.38027875 438.630509844L581.94141 434.89453L579.2793 432.92188L580.16016 432.1543L587.31641 426.28711L610.4043 406.78516L613.70508 403.83984L613.70508 403.83984M769.27148 404.83789L761.80664 413.3125L753.5918 422.66602L752.8418 423.54492L752.98242 422.58984L752.991974688 421.631800156L752.631035 421.05650875L751.828600313 420.814290469L750.51367 420.85547L747.637195938 421.594820781L744.8634625 423.04268625L742.621865312 424.915008594L741.3418 426.92773L741.13819625 429.22242625L741.6543 431.08789L742.66051875 431.501807656L744.215535 431.18812125L746.12128125 430.220316719L748.17969 428.67188L749.75195 427.38867L749.29883 428.96875L749.0381775 431.086659375L749.408688359 431.490345391L750.1283875 431.45279L752.66124125 430.040768125L756.72852 426.82422L759.35547 424.29883L757.2793 425.85742L751.83567125 430.1855125L750.103294844 431.163687813L749.62376709 431.263473789L749.45508 431.06836L750.00754875 429.91994125L751.51953 427.93945L771.00977 405.66211L771.76758 404.83789L770.51953 404.83789L769.27148 404.83789L769.27148 404.83789M701.68555 410.83789L700.848764531 410.88597L700.15808375 411.201455L697.80273 413.66211L695.48056125 416.0883675L694.804603594 416.435094375L694.04688 416.51172L692.64258 416.77539L693.60156 416.91602L694.70508 416.82031L693.96094 417.35352L687.97662125 422.09812375L684.6543 425.30078L686.52148 423.89844L690.79688 420.36133L693.20508 418.51367L691.1582 420.70508L688.015373437 424.400701406L685.9268875 427.55892625L685.034625312 429.917180469L685.081416602 430.714264199L685.48047 431.21289L686.52447875 431.484775313L687.877 431.2518825L691.58789 429.24609L695.3199175 426.363465L697.23633 424.42773L696.42969 424.8418L690.99013375 429.0088L688.353749531 430.602115L686.72852 431.23828L685.967206875 430.961674375L686.420215 429.78517L692.32812 422.65234L697.27734 416.98828L699.5918 416.81836L701.9043 416.64844L699.84766 416.5918L697.79102 416.53711L699.98242 414.0625L702.62109 411.21289L702.72246875 410.908915L701.68555 410.83789L701.68555 410.83789M782.68359 414.50195L781.93945 414.82422L781.66211 415.78516L782.021511563 416.156753125L782.5437475 416.1890575L783.034832188 415.926150625L783.30078 415.41211L783.16797 414.76562625L782.68359 414.50195L782.68359 414.50195M717.28906 420.73828L715.923635 420.97737625L714.33789 421.86328L711.566685 423.8950975L710.45508 425.04883L711.73047 424.27344L713.9043 422.66211L714.80273 422.08789L714.05469 423.01367L712.00781 425.54297L710.624518594 427.454337187L709.80404125 429.0586375L709.562010781 430.313794063L709.91406 431.17773L710.82422 431.53906L712.408028437 431.008205781L714.75487 429.57478375L720.35547 424.95508L721.322526563 423.974592187L721.3709475 423.8085125L719.1543 425.66016L716.203842031 428.102065469L713.49137875 429.98283125L711.387231094 431.073841406L710.26172 431.14648L710.263492812 430.778895625L710.85296 429.8774425L714.7832 425.16406L718.57227 420.73828L717.28906 420.73828L717.28906 420.73828M725.66406 420.73828L724.37274 420.969295L723.05469 422.08789L721.95117 423.4375L720.6543 425.41797L718.264315 429.23458375L717.912188437 430.528913906L718.1543 431.33789L718.91658375 431.536881406L720.1962175 431.21574875L723.91992 429.16016L727.35662625 426.407665L729.35547 424.33008L727.62891 425.71289L724.595252344 428.23954125L721.65552375 430.174765L719.433933281 431.16469625L718.787505176 431.194594375L718.55469 430.85547L722.75195 425.60547L726.94727 420.73828L725.66406 420.73828L725.66406 420.73828M778.98633 420.74219L777.2361225 420.97445375L776.60547 421.60547L775.19531 423.5293L773.378904219 425.824474219L772.14549875 427.81960625L771.508776406 429.487942656L771.48242 430.80273L771.845547969 431.361133281L772.54795625 431.53216625L774.91406 430.71289L779.46321625 427.37698625L781.568787969 425.498055156L782.45508 424.4043L782.36752125 424.12691L782.00781 424.54297L779.014075 427.29271625L775.06445 430.19922L773.3980425 431.032902656L772.336555 431.21922375L771.9881375 430.777867969L772.46094 429.72852L780.00977 421.11328L780.102535 420.80949375L778.98633 420.74219L778.98633 420.74219M804.48438 420.78125L801.80078 421.33984L799.790375156 422.202996641L798.009934375 423.295719375L796.508978281 424.549559922L795.3370275 425.89607L794.543602656 427.266801328L794.178224375 428.593305625L794.290413281 429.807134609L794.92969 430.83984L795.8236475 431.45680875L797.19141 431.43945L800.11483 430.45276625L803.26172 428.19922L804.77247375 427.04152L805.91992 426.73828L808.25045375 425.894835L809.309926094 425.184607187L809.75391 424.58789L808.92969 424.99414L807.46737375 426.07549375L806.17383 426.4375L805.6054675 426.26697875L806.14844 424.89453L806.70937125 423.117049531L806.59471 421.81922125L805.84089875 421.030727344L804.48438 420.78125L804.48438 420.78125M805.01953 421.0625L806.13654375 421.55018375L806.35547 422.80664L805.465840937 424.698749688L803.702535 426.89208L801.463939063 428.962125313L799.14844 430.48438L797.0002125 431.20029125L795.49805 430.82031L795.0906925 430.3344125L795.30078 429.58594L796.61607625 427.525460937L798.6489725 425.1640575L800.90328 423.022872813L802.88281 421.62305L805.01953 421.0625L805.01953 421.0625M751.25781 421.08594L751.58984 421.08984L752.232327305 421.303094727L752.587934687 421.701144063L752.4581925 423.0049325L751.239979062 424.907817187L748.97266 427.31641L744.91406 430.45117L742.75210625 431.2001475L742.093926875 431.143593437L741.726605 430.818245L741.89151125 429.4168675L743.30078 427.10742L745.204065469 424.973900625L747.41441875 423.0777825L749.557210156 421.691113125L751.25781 421.08594L751.25781 421.08594M776.29492 421.67773L774.05915375 423.1605875L771.95508 425.00781L774.1875 423.53125L776.29492 421.67773L776.29492 421.67773"
     style="fill:#000000;stroke:#00ff00" />
</svg>
