<?xml version="1.0" encoding="UTF-8" standalone="no"?>
<svg
   xmlns:dc="http://purl.org/dc/elements/1.1/"
   xmlns:cc="http://creativecommons.org/ns#"
   xmlns:rdf="http://www.w3.org/1999/02/22-rdf-syntax-ns#"
   xmlns:svg="http://www.w3.org/2000/svg"
   xmlns="http://www.w3.org/2000/svg"
   xmlns:sodipodi="http://sodipodi.sourceforge.net/DTD/sodipodi-0.dtd"
   xmlns:inkscape="http://www.inkscape.org/namespaces/inkscape"
   version="1.1"
   width="752.7mm"
   height="372.7mm"
   viewBox=" 0 0 2667.049437 1320.591637"
   id="svg4133"
   inkscape:version="0.91 r13725"
   sodipodi:docname="caseplans.svg">
  <metadata
     id="metadata4163">
    <rdf:RDF>
      <cc:Work
         rdf:about="">
        <dc:format>image/svg+xml</dc:format>
        <dc:type
           rdf:resource="http://purl.org/dc/dcmitype/StillImage" />
        <dc:title></dc:title>
      </cc:Work>
    </rdf:RDF>
  </metadata>
  <defs
     id="defs4161" />
  <sodipodi:namedview
     pagecolor="#ffffff"
     bordercolor="#666666"
     borderopacity="1"
     objecttolerance="10"
     gridtolerance="10"
     guidetolerance="10"
     inkscape:pageopacity="0"
     inkscape:pageshadow="2"
     inkscape:window-width="1440"
     inkscape:window-height="837"
     id="namedview4159"
     showgrid="false"
     inkscape:zoom="0.25425699"
     inkscape:cx="1188.953"
     inkscape:cy="282.28769"
     inkscape:window-x="-4"
     inkscape:window-y="-4"
     inkscape:window-maximized="1"
     inkscape:current-layer="svg4133" />
  <!-- Front-->
  <path
     inkscape:connector-curvature="0"
     id="polygon4137"
     d="m 22.499877,22.5 0,42.519531 14.173828,0 0,42.519529 -14.173828,0 0,42.51953 14.173828,0 0,42.51953 -14.173828,0 0,42.51954 56.693359,0 0,-14.17188 56.693364,0 0,14.17188 42.51953,0 0,-14.17188 42.51953,0 0,14.17188 42.51953,0 0,-14.17188 42.51953,0 0,14.17188 42.51954,0 0,-14.17188 42.51953,0 0,14.17188 42.51953,0 0,-14.17188 42.51953,0 0,14.17188 42.51953,0 0,-14.17188 42.51953,0 0,14.17188 42.51953,0 0,-14.17188 42.52149,0 0,14.17188 42.51953,0 0,-14.17188 56.6914,0 0,14.17188 56.69336,0 0,-42.51954 -14.17382,0 0,-42.51953 14.17382,0 0,-42.51953 -14.17382,0 0,-42.519529 14.17382,0 0,-42.519531 -56.69336,0 0,14.173828 -56.6914,0 0,-14.173828 -42.51953,0 0,14.173828 -42.52149,0 0,-14.173828 -42.51953,0 0,14.173828 -42.51953,0 0,-14.173828 -42.51953,0 0,14.173828 -42.51953,0 0,-14.173828 -42.51953,0 0,14.173828 -42.51953,0 0,-14.173828 -42.51954,0 0,14.173828 -42.51953,0 0,-14.173828 -42.51953,0 0,14.173828 -42.51953,0 0,-14.173828 -42.51953,0 0,14.173828 -56.693364,0 0,-14.173828 -56.693359,0 z"
     style="fill:none;stroke:#000000;stroke-width:0.90000075" />
  <!-- Back-->
  <path
     inkscape:connector-curvature="0"
     id="polygon4141"
     d="m 802.02722,22.5 0,42.519531 14.17383,0 0,42.519529 -14.17383,0 0,42.51953 14.17383,0 0,42.51953 -14.17383,0 0,42.51954 56.69336,0 0,-14.17188 56.69336,0 0,14.17188 42.51953,0 0,-14.17188 42.51953,0 0,14.17188 42.5196,0 0,-14.17188 42.5195,0 0,14.17188 42.5195,0 0,-14.17188 42.5195,0 0,14.17188 42.5196,0 0,-14.17188 42.5195,0 0,14.17188 42.5195,0 0,-14.17188 42.5196,0 0,14.17188 42.5215,0 0,-14.17188 42.5195,0 0,14.17188 42.5195,0 0,-14.17188 56.6934,0 0,14.17188 56.6914,0 0,-42.51954 -14.1719,0 0,-42.51953 14.1719,0 0,-42.51953 -14.1719,0 0,-42.519529 14.1719,0 0,-42.519531 -56.6914,0 0,14.173828 -56.6934,0 0,-14.173828 -42.5195,0 0,14.173828 -42.5195,0 0,-14.173828 -42.5215,0 0,14.173828 -42.5196,0 0,-14.173828 -42.5195,0 0,14.173828 -42.5195,0 0,-14.173828 -42.5196,0 0,14.173828 -42.5195,0 0,-14.173828 -42.5195,0 0,14.173828 -42.5195,0 0,-14.173828 -42.5196,0 0,14.173828 -42.51953,0 0,-14.173828 -42.51953,0 0,14.173828 -56.69336,0 0,-14.173828 -56.69336,0 z"
     style="fill:none;stroke:#000000;stroke-width:0.90000075" />
  <!-- Left-->
  <path
     inkscape:connector-curvature="0"
     id="polygon4145"
     d="m 1595.7284,22.5 0,42.519531 -14.1738,0 0,42.519529 14.1738,0 0,42.51953 -14.1738,0 0,42.51953 14.1738,0 0,42.51954 49.6055,0 0,-14.17188 63.7812,0 0,14.17188 42.5196,0 0,-14.17188 42.5195,0 0,14.17188 42.5195,0 0,-14.17188 42.5196,0 0,14.17188 42.5195,0 0,-14.17188 42.5195,0 0,14.17188 42.5196,0 0,-14.17188 42.5195,0 0,14.17188 42.5195,0 0,-14.17188 42.5195,0 0,14.17188 42.5196,0 0,-14.17188 42.5195,0 0,14.17188 42.5215,0 0,-14.17188 42.5195,0 0,14.17188 42.5196,0 0,-14.17188 42.5195,0 0,14.17188 42.5195,0 0,-14.17188 42.5196,0 0,14.17188 42.5195,0 0,-14.17188 63.7793,0 0,14.17188 49.6074,0 0,-42.51954 14.1719,0 0,-42.51953 -14.1719,0 0,-42.51953 14.1719,0 0,-42.519529 -14.1719,0 0,-42.519531 -49.6074,0 0,14.173828 -63.7793,0 0,-14.173828 -42.5195,0 0,14.173828 -42.5196,0 0,-14.173828 -42.5195,0 0,14.173828 -42.5195,0 0,-14.173828 -42.5196,0 0,14.173828 -42.5195,0 0,-14.173828 -42.5215,0 0,14.173828 -42.5195,0 0,-14.173828 -42.5196,0 0,14.173828 -42.5195,0 0,-14.173828 -42.5195,0 0,14.173828 -42.5195,0 0,-14.173828 -42.5196,0 0,14.173828 -42.5195,0 0,-14.173828 -42.5195,0 0,14.173828 -42.5196,0 0,-14.173828 -42.5195,0 0,14.173828 -42.5195,0 0,-14.173828 -42.5196,0 0,14.173828 -63.7812,0 0,-14.173828 -49.6055,0 z"
     style="fill:none;stroke:#000000;stroke-width:0.90000075" />
  <!-- Right-->
  <polygon
     id="polygon4149"
     points="63.77958,14.17324 127.55916,14.17324 127.55916,0 170.07888,0 170.07888,14.17324 212.5986,14.17324 212.5986,0 255.11832,0 255.11832,14.17324 297.63804,14.17324 297.63804,0 340.15776,0 340.15776,14.17324 382.67748,14.17324 382.67748,0 425.1972,0 425.1972,14.17324 467.71692,14.17324 467.71692,0 510.23664,0 510.23664,14.17324 552.75636,14.17324 552.75636,0 595.27608,0 595.27608,14.17324 637.7958,14.17324 637.7958,0 680.31552,0 680.31552,14.17324 722.83524,14.17324 722.83524,0 765.35496,0 765.35496,14.17324 807.87468,14.17324 807.87468,0 850.3944,0 850.3944,14.17324 892.91412,14.17324 892.91412,0 935.43384,0 935.43384,14.17324 999.21342,14.17324 999.21342,0 1048.8198,0 1048.8198,42.51972 1062.993,42.51972 1062.993,85.03944 1048.8198,85.03944 1048.8198,127.55916 1062.993,127.55916 1062.993,170.07888 1048.8198,170.07888 1048.8198,212.5986 999.21342,212.5986 999.21342,198.42536 935.43384,198.42536 935.43384,212.5986 892.91412,212.5986 892.91412,198.42536 850.3944,198.42536 850.3944,212.5986 807.87468,212.5986 807.87468,198.42536 765.35496,198.42536 765.35496,212.5986 722.83524,212.5986 722.83524,198.42536 680.31552,198.42536 680.31552,212.5986 637.7958,212.5986 637.7958,198.42536 595.27608,198.42536 595.27608,212.5986 552.75636,212.5986 552.75636,198.42536 510.23664,198.42536 510.23664,212.5986 467.71692,212.5986 467.71692,198.42536 425.1972,198.42536 425.1972,212.5986 382.67748,212.5986 382.67748,198.42536 340.15776,198.42536 340.15776,212.5986 297.63804,212.5986 297.63804,198.42536 255.11832,198.42536 255.11832,212.5986 212.5986,212.5986 212.5986,198.42536 170.07888,198.42536 170.07888,212.5986 127.55916,212.5986 127.55916,198.42536 63.77958,198.42536 63.77958,212.5986 14.17324,212.5986 14.17324,170.07888 0,170.07888 0,127.55916 14.17324,127.55916 14.17324,85.03944 0,85.03944 0,42.51972 14.17324,42.51972 14.17324,0 63.77958,0 "
     style="fill:none;stroke:#000000;stroke-width:0.90000075"
     transform="translate(1581.5564,235.09862)" />
  <!-- Top-->
  <path
     inkscape:connector-curvature="0"
     id="polygon4153"
     d="m 79.193236,235.09766 0,14.17382 -42.519531,0 0,49.60743 -14.173828,0 0,63.77929 14.173828,0 0,42.51953 -14.173828,0 0,42.51954 14.173828,0 0,42.51953 -14.173828,0 0,42.51953 14.173828,0 0,42.51953 -14.173828,0 0,42.51953 14.173828,0 0,42.51953 -14.173828,0 0,42.51953 14.173828,0 0,42.51953 -14.173828,0 0,42.51954 14.173828,0 0,42.51953 -14.173828,0 0,42.52148 14.173828,0 0,42.51953 -14.173828,0 0,42.51953 14.173828,0 0,42.51951 -14.173828,0 0,42.5196 14.173828,0 0,42.5195 -14.173828,0 0,42.5195 14.173828,0 0,42.5195 -14.173828,0 0,63.7793 14.173828,0 0,49.6075 42.519531,0 0,14.1718 56.693364,0 0,-14.1718 42.51953,0 0,14.1718 42.51953,0 0,-14.1718 42.51953,0 0,14.1718 42.51953,0 0,-14.1718 42.51954,0 0,14.1718 42.51953,0 0,-14.1718 42.51953,0 0,14.1718 42.51953,0 0,-14.1718 42.51953,0 0,14.1718 42.51953,0 0,-14.1718 42.51953,0 0,14.1718 42.52149,0 0,-14.1718 42.51953,0 0,14.1718 56.6914,0 0,-14.1718 42.51954,0 0,-49.6075 14.17382,0 0,-63.7793 -14.17382,0 0,-42.5195 14.17382,0 0,-42.5195 -14.17382,0 0,-42.5195 14.17382,0 0,-42.5196 -14.17382,0 0,-42.51951 14.17382,0 0,-42.51953 -14.17382,0 0,-42.51953 14.17382,0 0,-42.52148 -14.17382,0 0,-42.51953 14.17382,0 0,-42.51954 -14.17382,0 0,-42.51953 14.17382,0 0,-42.51953 -14.17382,0 0,-42.51953 14.17382,0 0,-42.51953 -14.17382,0 0,-42.51953 14.17382,0 0,-42.51953 -14.17382,0 0,-42.51953 14.17382,0 0,-42.51954 -14.17382,0 0,-42.51953 14.17382,0 0,-63.77929 -14.17382,0 0,-49.60743 -42.51954,0 0,-14.17382 -56.6914,0 0,14.17382 -42.51953,0 0,-14.17382 -42.52149,0 0,14.17382 -42.51953,0 0,-14.17382 -42.51953,0 0,14.17382 -42.51953,0 0,-14.17382 -42.51953,0 0,14.17382 -42.51953,0 0,-14.17382 -42.51953,0 0,14.17382 -42.51954,0 0,-14.17382 -42.51953,0 0,14.17382 -42.51953,0 0,-14.17382 -42.51953,0 0,14.17382 -42.51953,0 0,-14.17382 -56.693364,0 z"
     style="fill:none;stroke:#000000;stroke-width:0.90000075" />
  <!-- Bottom-->
  <path
     inkscape:connector-curvature="0"
     id="polygon4157"
     d="m 858.72058,235.09766 0,14.17382 -42.51953,0 0,49.60743 -14.17383,0 0,63.77929 14.17383,0 0,42.51953 -14.17383,0 0,42.51954 14.17383,0 0,42.51953 -14.17383,0 0,42.51953 14.17383,0 0,42.51953 -14.17383,0 0,42.51953 14.17383,0 0,42.51953 -14.17383,0 0,42.51953 14.17383,0 0,42.51953 -14.17383,0 0,42.51954 14.17383,0 0,42.51953 -14.17383,0 0,42.52148 14.17383,0 0,42.51953 -14.17383,0 0,42.51953 14.17383,0 0,42.51951 -14.17383,0 0,42.5196 14.17383,0 0,42.5195 -14.17383,0 0,42.5195 14.17383,0 0,42.5195 -14.17383,0 0,63.7793 14.17383,0 0,49.6075 42.51953,0 0,14.1718 56.69336,0 0,-14.1718 42.51953,0 0,14.1718 42.51953,0 0,-14.1718 42.5196,0 0,14.1718 42.5195,0 0,-14.1718 42.5195,0 0,14.1718 42.5195,0 0,-14.1718 42.5196,0 0,14.1718 42.5195,0 0,-14.1718 42.5195,0 0,14.1718 42.5196,0 0,-14.1718 42.5215,0 0,14.1718 42.5195,0 0,-14.1718 42.5195,0 0,14.1718 56.6934,0 0,-14.1718 42.5195,0 0,-49.6075 14.1719,0 0,-63.7793 -14.1719,0 0,-42.5195 14.1719,0 0,-42.5195 -14.1719,0 0,-42.5195 14.1719,0 0,-42.5196 -14.1719,0 0,-42.51951 14.1719,0 0,-42.51953 -14.1719,0 0,-42.51953 14.1719,0 0,-42.52148 -14.1719,0 0,-42.51953 14.1719,0 0,-42.51954 -14.1719,0 0,-42.51953 14.1719,0 0,-42.51953 -14.1719,0 0,-42.51953 14.1719,0 0,-42.51953 -14.1719,0 0,-42.51953 14.1719,0 0,-42.51953 -14.1719,0 0,-42.51953 14.1719,0 0,-42.51954 -14.1719,0 0,-42.51953 14.1719,0 0,-63.77929 -14.1719,0 0,-49.60743 -42.5195,0 0,-14.17382 -56.6934,0 0,14.17382 -42.5195,0 0,-14.17382 -42.5195,0 0,14.17382 -42.5215,0 0,-14.17382 -42.5196,0 0,14.17382 -42.5195,0 0,-14.17382 -42.5195,0 0,14.17382 -42.5196,0 0,-14.17382 -42.5195,0 0,14.17382 -42.5195,0 0,-14.17382 -42.5195,0 0,14.17382 -42.5196,0 0,-14.17382 -42.51953,0 0,14.17382 -42.51953,0 0,-14.17382 -56.69336,0 z"
     style="fill:none;stroke:#000000;stroke-width:0.90000075" />
</svg>
