  0
SECTION
  2
HEADER
  9
$ACADVER
  1
AC1014
  9
$HANDSEED
  5
FFFF
  9
$MEASUREMENT
 70
     1
  0
ENDSEC
  0
SECTION
  2
TABLES
  0
TABLE
  2
VPORT
  5
8
330
0
100
AcDbSymbolTable
 70
     4
  0
VPORT
  5
2E
330
8
100
AcDbSymbolTableRecord
100
AcDbViewportTableRecord
  2
*ACTIVE
 70
     0
 10
0.0
 20
0.0
 11
1.0
 21
1.0
 12
210.0
 22
148.5
 13
0.0
 23
0.0
 14
10.0
 24
10.0
 15
10.0
 25
10.0
 16
0.0
 26
0.0
 36
1.0
 17
0.0
 27
0.0
 37
0.0
 40
341.0
 41
1.24
 42
50.0
 43
0.0
 44
0.0
 50
0.0
 51
0.0
 71
     0
 72
   100
 73
     1
 74
     3
 75
     0
 76
     0
 77
     0
 78
     0
  0
ENDTAB
  0
TABLE
  2
LTYPE
  5
5
330
0
100
AcDbSymbolTable
 70
     1
  0
LTYPE
  5
14
330
5
100
AcDbSymbolTableRecord
100
AcDbLinetypeTableRecord
  2
BYBLOCK
 70
     0
  3

 72
    65
 73
     0
 40
0.0
  0
LTYPE
  5
15
330
5
100
AcDbSymbolTableRecord
100
AcDbLinetypeTableRecord
  2
BYLAYER
 70
     0
  3

 72
    65
 73
     0
 40
0.0
  0
LTYPE
  5
16
330
5
100
AcDbSymbolTableRecord
100
AcDbLinetypeTableRecord
  2
CONTINUOUS
 70
     0
  3
Solid line
 72
    65
 73
     0
 40
0.0
  0
ENDTAB
  0
TABLE
  2
LAYER
  5
2
100
AcDbSymbolTable
 70
1
  0
LAYER
  5
50
100
AcDbSymbolTableRecord
100
AcDbLayerTableRecord
  2
0
 70
0
  6
CONTINUOUS
  0
ENDTAB
  0
TABLE
  2
STYLE
  5
3
330
0
100
AcDbSymbolTable
 70
     1
  0
STYLE
  5
11
330
3
100
AcDbSymbolTableRecord
100
AcDbTextStyleTableRecord
  2
STANDARD
 70
     0
 40
0.0
 41
1.0
 50
0.0
 71
     0
 42
2.5
  3
txt
  4

  0
ENDTAB
  0
TABLE
  2
VIEW
  5
6
330
0
100
AcDbSymbolTable
 70
     0
  0
ENDTAB
  0
TABLE
  2
UCS
  5
7
330
0
100
AcDbSymbolTable
 70
     0
  0
ENDTAB
  0
TABLE
  2
APPID
  5
9
330
0
100
AcDbSymbolTable
 70
     2
  0
APPID
  5
12
330
9
100
AcDbSymbolTableRecord
100
AcDbRegAppTableRecord
  2
ACAD
 70
     0
  0
ENDTAB
  0
TABLE
  2
DIMSTYLE
  5
A
330
0
100
AcDbSymbolTable
 70
     1
  0
DIMSTYLE
105
27
330
A
100
AcDbSymbolTableRecord
100
AcDbDimStyleTableRecord
  2
ISO-25
 70
     0
  3

  4

  5

  6

  7

 40
1.0
 41
2.5
 42
0.625
 43
3.75
 44
1.25
 45
0.0
 46
0.0
 47
0.0
 48
0.0
140
2.5
141
2.5
142
0.0
143
0.03937007874016
144
1.0
145
0.0
146
1.0
147
0.625
 71
     0
 72
     0
 73
     0
 74
     0
 75
     0
 76
     0
 77
     1
 78
     8
170
     0
171
     3
172
     1
173
     0
174
     0
175
     0
176
     0
177
     0
178
     0
270
     2
271
     2
272
     2
273
     2
274
     3
340
11
275
     0
280
     0
281
     0
282
     0
283
     0
284
     8
285
     0
286
     0
287
     3
288
     0
  0
ENDTAB
  0
TABLE
  2
BLOCK_RECORD
  5
1
330
0
100
AcDbSymbolTable
 70
     1
  0
BLOCK_RECORD
  5
1F
330
1
100
AcDbSymbolTableRecord
100
AcDbBlockTableRecord
  2
*MODEL_SPACE
  0
BLOCK_RECORD
  5
1B
330
1
100
AcDbSymbolTableRecord
100
AcDbBlockTableRecord
  2
*PAPER_SPACE
  0
ENDTAB
  0
ENDSEC
  0
SECTION
  2
BLOCKS
  0
BLOCK
  5
20
330
1F
100
AcDbEntity
  8
0
100
AcDbBlockBegin
  2
*MODEL_SPACE
 70
     0
 10
0.0
 20
0.0
 30
0.0
  3
*MODEL_SPACE
  1

  0
ENDBLK
  5
21
330
1F
100
AcDbEntity
  8
0
100
AcDbBlockEnd
  0
BLOCK
  5
1C
330
1B
100
AcDbEntity
 67
     1
  8
0
100
AcDbBlockBegin
  2
*PAPER_SPACE
  1

  0
ENDBLK
  5
1D
330
1B
100
AcDbEntity
 67
     1
  8
0
100
AcDbBlockEnd
  0
ENDSEC
  0
SECTION
  2
ENTITIES
  0
LWPOLYLINE
  5
100
100
AcDbEntity
  8
0
 62
7
100
AcDbPolyline
 90
86
 70
1
 10
6.349965
 20
366.350000
 30
0.0
 10
6.349965
 20
354.350043
 30
0.0
 10
10.350135
 20
354.350043
 30
0.0
 10
10.350135
 20
342.350088
 30
0.0
 10
6.349965
 20
342.350088
 30
0.0
 10
6.349965
 20
330.350131
 30
0.0
 10
10.350135
 20
330.350131
 30
0.0
 10
10.350135
 20
318.350175
 30
0.0
 10
6.349965
 20
318.350175
 30
0.0
 10
6.349965
 20
306.350216
 30
0.0
 10
22.350091
 20
306.350216
 30
0.0
 10
22.350091
 20
310.349835
 30
0.0
 10
38.350218
 20
310.349835
 30
0.0
 10
38.350218
 20
306.350216
 30
0.0
 10
50.350174
 20
306.350216
 30
0.0
 10
50.350174
 20
310.349835
 30
0.0
 10
62.350131
 20
310.349835
 30
0.0
 10
62.350131
 20
306.350216
 30
0.0
 10
74.350087
 20
306.350216
 30
0.0
 10
74.350087
 20
310.349835
 30
0.0
 10
86.350043
 20
310.349835
 30
0.0
 10
86.350043
 20
306.350216
 30
0.0
 10
98.350002
 20
306.350216
 30
0.0
 10
98.350002
 20
310.349835
 30
0.0
 10
110.349959
 20
310.349835
 30
0.0
 10
110.349959
 20
306.350216
 30
0.0
 10
122.349915
 20
306.350216
 30
0.0
 10
122.349915
 20
310.349835
 30
0.0
 10
134.349871
 20
310.349835
 30
0.0
 10
134.349871
 20
306.350216
 30
0.0
 10
146.349827
 20
306.350216
 30
0.0
 10
146.349827
 20
310.349835
 30
0.0
 10
158.349783
 20
310.349835
 30
0.0
 10
158.349783
 20
306.350216
 30
0.0
 10
170.349740
 20
306.350216
 30
0.0
 10
170.349740
 20
310.349835
 30
0.0
 10
182.350249
 20
310.349835
 30
0.0
 10
182.350249
 20
306.350216
 30
0.0
 10
194.350205
 20
306.350216
 30
0.0
 10
194.350205
 20
310.349835
 30
0.0
 10
210.349778
 20
310.349835
 30
0.0
 10
210.349778
 20
306.350216
 30
0.0
 10
226.349904
 20
306.350216
 30
0.0
 10
226.349904
 20
318.350175
 30
0.0
 10
222.349737
 20
318.350175
 30
0.0
 10
222.349737
 20
330.350131
 30
0.0
 10
226.349904
 20
330.350131
 30
0.0
 10
226.349904
 20
342.350088
 30
0.0
 10
222.349737
 20
342.350088
 30
0.0
 10
222.349737
 20
354.350043
 30
0.0
 10
226.349904
 20
354.350043
 30
0.0
 10
226.349904
 20
366.350000
 30
0.0
 10
210.349778
 20
366.350000
 30
0.0
 10
210.349778
 20
362.349831
 30
0.0
 10
194.350205
 20
362.349831
 30
0.0
 10
194.350205
 20
366.350000
 30
0.0
 10
182.350249
 20
366.350000
 30
0.0
 10
182.350249
 20
362.349831
 30
0.0
 10
170.349740
 20
362.349831
 30
0.0
 10
170.349740
 20
366.350000
 30
0.0
 10
158.349783
 20
366.350000
 30
0.0
 10
158.349783
 20
362.349831
 30
0.0
 10
146.349827
 20
362.349831
 30
0.0
 10
146.349827
 20
366.350000
 30
0.0
 10
134.349871
 20
366.350000
 30
0.0
 10
134.349871
 20
362.349831
 30
0.0
 10
122.349915
 20
362.349831
 30
0.0
 10
122.349915
 20
366.350000
 30
0.0
 10
110.349959
 20
366.350000
 30
0.0
 10
110.349959
 20
362.349831
 30
0.0
 10
98.350002
 20
362.349831
 30
0.0
 10
98.350002
 20
366.350000
 30
0.0
 10
86.350043
 20
366.350000
 30
0.0
 10
86.350043
 20
362.349831
 30
0.0
 10
74.350087
 20
362.349831
 30
0.0
 10
74.350087
 20
366.350000
 30
0.0
 10
62.350131
 20
366.350000
 30
0.0
 10
62.350131
 20
362.349831
 30
0.0
 10
50.350174
 20
362.349831
 30
0.0
 10
50.350174
 20
366.350000
 30
0.0
 10
38.350218
 20
366.350000
 30
0.0
 10
38.350218
 20
362.349831
 30
0.0
 10
22.350091
 20
362.349831
 30
0.0
 10
22.350091
 20
366.350000
 30
0.0
 10
6.349965
 20
366.350000
 30
0.0
 10
6.349965
 20
366.350000
 30
0.0
  0
LWPOLYLINE
  5
101
100
AcDbEntity
  8
0
 62
7
100
AcDbPolyline
 90
86
 70
1
 10
226.349904
 20
366.350000
 30
0.0
 10
226.349904
 20
354.350043
 30
0.0
 10
230.350074
 20
354.350043
 30
0.0
 10
230.350074
 20
342.350088
 30
0.0
 10
226.349904
 20
342.350088
 30
0.0
 10
226.349904
 20
330.350131
 30
0.0
 10
230.350074
 20
330.350131
 30
0.0
 10
230.350074
 20
318.350175
 30
0.0
 10
226.349904
 20
318.350175
 30
0.0
 10
226.349904
 20
306.350216
 30
0.0
 10
242.350030
 20
306.350216
 30
0.0
 10
242.350030
 20
310.349835
 30
0.0
 10
258.350156
 20
310.349835
 30
0.0
 10
258.350156
 20
306.350216
 30
0.0
 10
270.350113
 20
306.350216
 30
0.0
 10
270.350113
 20
310.349835
 30
0.0
 10
282.350069
 20
310.349835
 30
0.0
 10
282.350069
 20
306.350216
 30
0.0
 10
294.350045
 20
306.350216
 30
0.0
 10
294.350045
 20
310.349835
 30
0.0
 10
306.349993
 20
310.349835
 30
0.0
 10
306.349993
 20
306.350216
 30
0.0
 10
318.349940
 20
306.350216
 30
0.0
 10
318.349940
 20
310.349835
 30
0.0
 10
330.349888
 20
310.349835
 30
0.0
 10
330.349888
 20
306.350216
 30
0.0
 10
342.349864
 20
306.350216
 30
0.0
 10
342.349864
 20
310.349835
 30
0.0
 10
354.349812
 20
310.349835
 30
0.0
 10
354.349812
 20
306.350216
 30
0.0
 10
366.349760
 20
306.350216
 30
0.0
 10
366.349760
 20
310.349835
 30
0.0
 10
378.349736
 20
310.349835
 30
0.0
 10
378.349736
 20
306.350216
 30
0.0
 10
390.350248
 20
306.350216
 30
0.0
 10
390.350248
 20
310.349835
 30
0.0
 10
402.350196
 20
310.349835
 30
0.0
 10
402.350196
 20
306.350216
 30
0.0
 10
414.350144
 20
306.350216
 30
0.0
 10
414.350144
 20
310.349835
 30
0.0
 10
430.350281
 20
310.349835
 30
0.0
 10
430.350281
 20
306.350216
 30
0.0
 10
446.349854
 20
306.350216
 30
0.0
 10
446.349854
 20
318.350175
 30
0.0
 10
442.350229
 20
318.350175
 30
0.0
 10
442.350229
 20
330.350131
 30
0.0
 10
446.349854
 20
330.350131
 30
0.0
 10
446.349854
 20
342.350088
 30
0.0
 10
442.350229
 20
342.350088
 30
0.0
 10
442.350229
 20
354.350043
 30
0.0
 10
446.349854
 20
354.350043
 30
0.0
 10
446.349854
 20
366.350000
 30
0.0
 10
430.350281
 20
366.350000
 30
0.0
 10
430.350281
 20
362.349831
 30
0.0
 10
414.350144
 20
362.349831
 30
0.0
 10
414.350144
 20
366.350000
 30
0.0
 10
402.350196
 20
366.350000
 30
0.0
 10
402.350196
 20
362.349831
 30
0.0
 10
390.350248
 20
362.349831
 30
0.0
 10
390.350248
 20
366.350000
 30
0.0
 10
378.349736
 20
366.350000
 30
0.0
 10
378.349736
 20
362.349831
 30
0.0
 10
366.349760
 20
362.349831
 30
0.0
 10
366.349760
 20
366.350000
 30
0.0
 10
354.349812
 20
366.350000
 30
0.0
 10
354.349812
 20
362.349831
 30
0.0
 10
342.349864
 20
362.349831
 30
0.0
 10
342.349864
 20
366.350000
 30
0.0
 10
330.349888
 20
366.350000
 30
0.0
 10
330.349888
 20
362.349831
 30
0.0
 10
318.349940
 20
362.349831
 30
0.0
 10
318.349940
 20
366.350000
 30
0.0
 10
306.349993
 20
366.350000
 30
0.0
 10
306.349993
 20
362.349831
 30
0.0
 10
294.350045
 20
362.349831
 30
0.0
 10
294.350045
 20
366.350000
 30
0.0
 10
282.350069
 20
366.350000
 30
0.0
 10
282.350069
 20
362.349831
 30
0.0
 10
270.350113
 20
362.349831
 30
0.0
 10
270.350113
 20
366.350000
 30
0.0
 10
258.350156
 20
366.350000
 30
0.0
 10
258.350156
 20
362.349831
 30
0.0
 10
242.350030
 20
362.349831
 30
0.0
 10
242.350030
 20
366.350000
 30
0.0
 10
226.349904
 20
366.350000
 30
0.0
 10
226.349904
 20
366.350000
 30
0.0
  0
LWPOLYLINE
  5
102
100
AcDbEntity
  8
0
 62
7
100
AcDbPolyline
 90
110
 70
1
 10
450.350015
 20
366.350000
 30
0.0
 10
450.350015
 20
354.350043
 30
0.0
 10
446.349854
 20
354.350043
 30
0.0
 10
446.349854
 20
342.350088
 30
0.0
 10
450.350015
 20
342.350088
 30
0.0
 10
450.350015
 20
330.350131
 30
0.0
 10
446.349854
 20
330.350131
 30
0.0
 10
446.349854
 20
318.350175
 30
0.0
 10
450.350015
 20
318.350175
 30
0.0
 10
450.350015
 20
306.350216
 30
0.0
 10
464.349790
 20
306.350216
 30
0.0
 10
464.349790
 20
310.349835
 30
0.0
 10
482.350262
 20
310.349835
 30
0.0
 10
482.350262
 20
306.350216
 30
0.0
 10
494.350238
 20
306.350216
 30
0.0
 10
494.350238
 20
310.349835
 30
0.0
 10
506.350185
 20
310.349835
 30
0.0
 10
506.350185
 20
306.350216
 30
0.0
 10
518.350133
 20
306.350216
 30
0.0
 10
518.350133
 20
310.349835
 30
0.0
 10
530.350109
 20
310.349835
 30
0.0
 10
530.350109
 20
306.350216
 30
0.0
 10
542.350057
 20
306.350216
 30
0.0
 10
542.350057
 20
310.349835
 30
0.0
 10
554.350005
 20
310.349835
 30
0.0
 10
554.350005
 20
306.350216
 30
0.0
 10
566.349981
 20
306.350216
 30
0.0
 10
566.349981
 20
310.349835
 30
0.0
 10
578.349928
 20
310.349835
 30
0.0
 10
578.349928
 20
306.350216
 30
0.0
 10
590.349876
 20
306.350216
 30
0.0
 10
590.349876
 20
310.349835
 30
0.0
 10
602.349824
 20
310.349835
 30
0.0
 10
602.349824
 20
306.350216
 30
0.0
 10
614.349800
 20
306.350216
 30
0.0
 10
614.349800
 20
310.349835
 30
0.0
 10
626.349748
 20
310.349835
 30
0.0
 10
626.349748
 20
306.350216
 30
0.0
 10
638.350260
 20
306.350216
 30
0.0
 10
638.350260
 20
310.349835
 30
0.0
 10
650.350208
 20
310.349835
 30
0.0
 10
650.350208
 20
306.350216
 30
0.0
 10
662.350184
 20
306.350216
 30
0.0
 10
662.350184
 20
310.349835
 30
0.0
 10
674.350132
 20
310.349835
 30
0.0
 10
674.350132
 20
306.350216
 30
0.0
 10
686.350079
 20
306.350216
 30
0.0
 10
686.350079
 20
310.349835
 30
0.0
 10
698.350055
 20
310.349835
 30
0.0
 10
698.350055
 20
306.350216
 30
0.0
 10
710.350003
 20
306.350216
 30
0.0
 10
710.350003
 20
310.349835
 30
0.0
 10
728.349939
 20
310.349835
 30
0.0
 10
728.349939
 20
306.350216
 30
0.0
 10
742.350250
 20
306.350216
 30
0.0
 10
742.350250
 20
318.350175
 30
0.0
 10
746.349875
 20
318.350175
 30
0.0
 10
746.349875
 20
330.350131
 30
0.0
 10
742.350250
 20
330.350131
 30
0.0
 10
742.350250
 20
342.350088
 30
0.0
 10
746.349875
 20
342.350088
 30
0.0
 10
746.349875
 20
354.350043
 30
0.0
 10
742.350250
 20
354.350043
 30
0.0
 10
742.350250
 20
366.350000
 30
0.0
 10
728.349939
 20
366.350000
 30
0.0
 10
728.349939
 20
362.349831
 30
0.0
 10
710.350003
 20
362.349831
 30
0.0
 10
710.350003
 20
366.350000
 30
0.0
 10
698.350055
 20
366.350000
 30
0.0
 10
698.350055
 20
362.349831
 30
0.0
 10
686.350079
 20
362.349831
 30
0.0
 10
686.350079
 20
366.350000
 30
0.0
 10
674.350132
 20
366.350000
 30
0.0
 10
674.350132
 20
362.349831
 30
0.0
 10
662.350184
 20
362.349831
 30
0.0
 10
662.350184
 20
366.350000
 30
0.0
 10
650.350208
 20
366.350000
 30
0.0
 10
650.350208
 20
362.349831
 30
0.0
 10
638.350260
 20
362.349831
 30
0.0
 10
638.350260
 20
366.350000
 30
0.0
 10
626.349748
 20
366.350000
 30
0.0
 10
626.349748
 20
362.349831
 30
0.0
 10
614.349800
 20
362.349831
 30
0.0
 10
614.349800
 20
366.350000
 30
0.0
 10
602.349824
 20
366.350000
 30
0.0
 10
602.349824
 20
362.349831
 30
0.0
 10
590.349876
 20
362.349831
 30
0.0
 10
590.349876
 20
366.350000
 30
0.0
 10
578.349928
 20
366.350000
 30
0.0
 10
578.349928
 20
362.349831
 30
0.0
 10
566.349981
 20
362.349831
 30
0.0
 10
566.349981
 20
366.350000
 30
0.0
 10
554.350005
 20
366.350000
 30
0.0
 10
554.350005
 20
362.349831
 30
0.0
 10
542.350057
 20
362.349831
 30
0.0
 10
542.350057
 20
366.350000
 30
0.0
 10
530.350109
 20
366.350000
 30
0.0
 10
530.350109
 20
362.349831
 30
0.0
 10
518.350133
 20
362.349831
 30
0.0
 10
518.350133
 20
366.350000
 30
0.0
 10
506.350185
 20
366.350000
 30
0.0
 10
506.350185
 20
362.349831
 30
0.0
 10
494.350238
 20
362.349831
 30
0.0
 10
494.350238
 20
366.350000
 30
0.0
 10
482.350262
 20
366.350000
 30
0.0
 10
482.350262
 20
362.349831
 30
0.0
 10
464.349790
 20
362.349831
 30
0.0
 10
464.349790
 20
366.350000
 30
0.0
 10
450.350015
 20
366.350000
 30
0.0
 10
450.350015
 20
366.350000
 30
0.0
  0
LWPOLYLINE
  5
103
100
AcDbEntity
  8
0
 62
7
100
AcDbPolyline
 90
110
 70
0
 10
450.350009
 20
306.350216
 30
0.0
 10
450.350009
 20
294.350260
 30
0.0
 10
446.349848
 20
294.350260
 30
0.0
 10
446.349848
 20
282.349753
 30
0.0
 10
450.350009
 20
282.349753
 30
0.0
 10
450.350009
 20
270.349797
 30
0.0
 10
446.349848
 20
270.349797
 30
0.0
 10
446.349848
 20
258.349841
 30
0.0
 10
450.350009
 20
258.349841
 30
0.0
 10
450.350009
 20
246.349882
 30
0.0
 10
464.349783
 20
246.349882
 30
0.0
 10
464.349783
 20
250.350051
 30
0.0
 10
482.349719
 20
250.350051
 30
0.0
 10
482.349719
 20
246.349882
 30
0.0
 10
494.350231
 20
246.349882
 30
0.0
 10
494.350231
 20
250.350051
 30
0.0
 10
506.350179
 20
250.350051
 30
0.0
 10
506.350179
 20
246.349882
 30
0.0
 10
518.350127
 20
246.349882
 30
0.0
 10
518.350127
 20
250.350051
 30
0.0
 10
530.350103
 20
250.350051
 30
0.0
 10
530.350103
 20
246.349882
 30
0.0
 10
542.350051
 20
246.349882
 30
0.0
 10
542.350051
 20
250.350051
 30
0.0
 10
554.349998
 20
250.350051
 30
0.0
 10
554.349998
 20
246.349882
 30
0.0
 10
566.349974
 20
246.349882
 30
0.0
 10
566.349974
 20
250.350051
 30
0.0
 10
578.349922
 20
250.350051
 30
0.0
 10
578.349922
 20
246.349882
 30
0.0
 10
590.349870
 20
246.349882
 30
0.0
 10
590.349870
 20
250.350051
 30
0.0
 10
602.349818
 20
250.350051
 30
0.0
 10
602.349818
 20
246.349882
 30
0.0
 10
614.349794
 20
246.349882
 30
0.0
 10
614.349794
 20
250.350051
 30
0.0
 10
626.349742
 20
250.350051
 30
0.0
 10
626.349742
 20
246.349882
 30
0.0
 10
638.350254
 20
246.349882
 30
0.0
 10
638.350254
 20
250.350051
 30
0.0
 10
650.350202
 20
250.350051
 30
0.0
 10
650.350202
 20
246.349882
 30
0.0
 10
662.350178
 20
246.349882
 30
0.0
 10
662.350178
 20
250.350051
 30
0.0
 10
674.350125
 20
250.350051
 30
0.0
 10
674.350125
 20
246.349882
 30
0.0
 10
686.350073
 20
246.349882
 30
0.0
 10
686.350073
 20
250.350051
 30
0.0
 10
698.350049
 20
250.350051
 30
0.0
 10
698.350049
 20
246.349882
 30
0.0
 10
710.349997
 20
246.349882
 30
0.0
 10
710.349997
 20
250.350051
 30
0.0
 10
728.349933
 20
250.350051
 30
0.0
 10
728.349933
 20
246.349882
 30
0.0
 10
742.350243
 20
246.349882
 30
0.0
 10
742.350243
 20
258.349841
 30
0.0
 10
746.349868
 20
258.349841
 30
0.0
 10
746.349868
 20
270.349797
 30
0.0
 10
742.350243
 20
270.349797
 30
0.0
 10
742.350243
 20
282.349753
 30
0.0
 10
746.349868
 20
282.349753
 30
0.0
 10
746.349868
 20
294.350260
 30
0.0
 10
742.350243
 20
294.350260
 30
0.0
 10
742.350243
 20
306.350216
 30
0.0
 10
728.349933
 20
306.350216
 30
0.0
 10
728.349933
 20
302.350049
 30
0.0
 10
710.349997
 20
302.350049
 30
0.0
 10
710.349997
 20
306.350216
 30
0.0
 10
698.350049
 20
306.350216
 30
0.0
 10
698.350049
 20
302.350049
 30
0.0
 10
686.350073
 20
302.350049
 30
0.0
 10
686.350073
 20
306.350216
 30
0.0
 10
674.350125
 20
306.350216
 30
0.0
 10
674.350125
 20
302.350049
 30
0.0
 10
662.350178
 20
302.350049
 30
0.0
 10
662.350178
 20
306.350216
 30
0.0
 10
650.350202
 20
306.350216
 30
0.0
 10
650.350202
 20
302.350049
 30
0.0
 10
638.350254
 20
302.350049
 30
0.0
 10
638.350254
 20
306.350216
 30
0.0
 10
626.349742
 20
306.350216
 30
0.0
 10
626.349742
 20
302.350049
 30
0.0
 10
614.349794
 20
302.350049
 30
0.0
 10
614.349794
 20
306.350216
 30
0.0
 10
602.349818
 20
306.350216
 30
0.0
 10
602.349818
 20
302.350049
 30
0.0
 10
590.349870
 20
302.350049
 30
0.0
 10
590.349870
 20
306.350216
 30
0.0
 10
578.349922
 20
306.350216
 30
0.0
 10
578.349922
 20
302.350049
 30
0.0
 10
566.349974
 20
302.350049
 30
0.0
 10
566.349974
 20
306.350216
 30
0.0
 10
554.349998
 20
306.350216
 30
0.0
 10
554.349998
 20
302.350049
 30
0.0
 10
542.350051
 20
302.350049
 30
0.0
 10
542.350051
 20
306.350216
 30
0.0
 10
530.350103
 20
306.350216
 30
0.0
 10
530.350103
 20
302.350049
 30
0.0
 10
518.350127
 20
302.350049
 30
0.0
 10
518.350127
 20
306.350216
 30
0.0
 10
506.350179
 20
306.350216
 30
0.0
 10
506.350179
 20
302.350049
 30
0.0
 10
494.350231
 20
302.350049
 30
0.0
 10
494.350231
 20
306.350216
 30
0.0
 10
482.349719
 20
306.350216
 30
0.0
 10
482.349719
 20
302.350049
 30
0.0
 10
464.349783
 20
302.350049
 30
0.0
 10
464.349783
 20
306.350216
 30
0.0
 10
450.350009
 20
306.350216
 30
0.0
 10
450.350009
 20
306.350216
 30
0.0
  0
LWPOLYLINE
  5
104
100
AcDbEntity
  8
0
 62
7
100
AcDbPolyline
 90
158
 70
1
 10
22.350091
 20
306.350216
 30
0.0
 10
22.350091
 20
302.350049
 30
0.0
 10
10.350135
 20
302.350049
 30
0.0
 10
10.350135
 20
288.349730
 30
0.0
 10
6.349965
 20
288.349730
 30
0.0
 10
6.349965
 20
270.349797
 30
0.0
 10
10.350135
 20
270.349797
 30
0.0
 10
10.350135
 20
258.349841
 30
0.0
 10
6.349965
 20
258.349841
 30
0.0
 10
6.349965
 20
246.349882
 30
0.0
 10
10.350135
 20
246.349882
 30
0.0
 10
10.350135
 20
234.349925
 30
0.0
 10
6.349965
 20
234.349925
 30
0.0
 10
6.349965
 20
222.349969
 30
0.0
 10
10.350135
 20
222.349969
 30
0.0
 10
10.350135
 20
210.350013
 30
0.0
 10
6.349965
 20
210.350013
 30
0.0
 10
6.349965
 20
198.350057
 30
0.0
 10
10.350135
 20
198.350057
 30
0.0
 10
10.350135
 20
186.350100
 30
0.0
 10
6.349965
 20
186.350100
 30
0.0
 10
6.349965
 20
174.350144
 30
0.0
 10
10.350135
 20
174.350144
 30
0.0
 10
10.350135
 20
162.350188
 30
0.0
 10
6.349965
 20
162.350188
 30
0.0
 10
6.349965
 20
150.350229
 30
0.0
 10
10.350135
 20
150.350229
 30
0.0
 10
10.350135
 20
138.350273
 30
0.0
 10
6.349965
 20
138.350273
 30
0.0
 10
6.349965
 20
126.349766
 30
0.0
 10
10.350135
 20
126.349766
 30
0.0
 10
10.350135
 20
114.349810
 30
0.0
 10
6.349965
 20
114.349810
 30
0.0
 10
6.349965
 20
102.349853
 30
0.0
 10
10.350135
 20
102.349853
 30
0.0
 10
10.350135
 20
90.349903
 30
0.0
 10
6.349965
 20
90.349903
 30
0.0
 10
6.349965
 20
78.349927
 30
0.0
 10
10.350135
 20
78.349927
 30
0.0
 10
10.350135
 20
66.349979
 30
0.0
 10
6.349965
 20
66.349979
 30
0.0
 10
6.349965
 20
54.350031
 30
0.0
 10
10.350135
 20
54.350031
 30
0.0
 10
10.350135
 20
42.350084
 30
0.0
 10
6.349965
 20
42.350084
 30
0.0
 10
6.349965
 20
24.350148
 30
0.0
 10
10.350135
 20
24.350148
 30
0.0
 10
10.350135
 20
10.349809
 30
0.0
 10
22.350091
 20
10.349809
 30
0.0
 10
22.350091
 20
6.350212
 30
0.0
 10
38.350218
 20
6.350212
 30
0.0
 10
38.350218
 20
10.349809
 30
0.0
 10
50.350174
 20
10.349809
 30
0.0
 10
50.350174
 20
6.350212
 30
0.0
 10
62.350131
 20
6.350212
 30
0.0
 10
62.350131
 20
10.349809
 30
0.0
 10
74.350087
 20
10.349809
 30
0.0
 10
74.350087
 20
6.350212
 30
0.0
 10
86.350043
 20
6.350212
 30
0.0
 10
86.350043
 20
10.349809
 30
0.0
 10
98.350002
 20
10.349809
 30
0.0
 10
98.350002
 20
6.350212
 30
0.0
 10
110.349959
 20
6.350212
 30
0.0
 10
110.349959
 20
10.349809
 30
0.0
 10
122.349915
 20
10.349809
 30
0.0
 10
122.349915
 20
6.350212
 30
0.0
 10
134.349871
 20
6.350212
 30
0.0
 10
134.349871
 20
10.349809
 30
0.0
 10
146.349827
 20
10.349809
 30
0.0
 10
146.349827
 20
6.350212
 30
0.0
 10
158.349783
 20
6.350212
 30
0.0
 10
158.349783
 20
10.349809
 30
0.0
 10
170.349740
 20
10.349809
 30
0.0
 10
170.349740
 20
6.350212
 30
0.0
 10
182.350249
 20
6.350212
 30
0.0
 10
182.350249
 20
10.349809
 30
0.0
 10
194.350205
 20
10.349809
 30
0.0
 10
194.350205
 20
6.350212
 30
0.0
 10
210.349778
 20
6.350212
 30
0.0
 10
210.349778
 20
10.349809
 30
0.0
 10
222.349737
 20
10.349809
 30
0.0
 10
222.349737
 20
24.350148
 30
0.0
 10
226.349904
 20
24.350148
 30
0.0
 10
226.349904
 20
42.350084
 30
0.0
 10
222.349737
 20
42.350084
 30
0.0
 10
222.349737
 20
54.350031
 30
0.0
 10
226.349904
 20
54.350031
 30
0.0
 10
226.349904
 20
66.349979
 30
0.0
 10
222.349737
 20
66.349979
 30
0.0
 10
222.349737
 20
78.349927
 30
0.0
 10
226.349904
 20
78.349927
 30
0.0
 10
226.349904
 20
90.349903
 30
0.0
 10
222.349737
 20
90.349903
 30
0.0
 10
222.349737
 20
102.349853
 30
0.0
 10
226.349904
 20
102.349853
 30
0.0
 10
226.349904
 20
114.349810
 30
0.0
 10
222.349737
 20
114.349810
 30
0.0
 10
222.349737
 20
126.349766
 30
0.0
 10
226.349904
 20
126.349766
 30
0.0
 10
226.349904
 20
138.350273
 30
0.0
 10
222.349737
 20
138.350273
 30
0.0
 10
222.349737
 20
150.350229
 30
0.0
 10
226.349904
 20
150.350229
 30
0.0
 10
226.349904
 20
162.350188
 30
0.0
 10
222.349737
 20
162.350188
 30
0.0
 10
222.349737
 20
174.350144
 30
0.0
 10
226.349904
 20
174.350144
 30
0.0
 10
226.349904
 20
186.350100
 30
0.0
 10
222.349737
 20
186.350100
 30
0.0
 10
222.349737
 20
198.350057
 30
0.0
 10
226.349904
 20
198.350057
 30
0.0
 10
226.349904
 20
210.350013
 30
0.0
 10
222.349737
 20
210.350013
 30
0.0
 10
222.349737
 20
222.349969
 30
0.0
 10
226.349904
 20
222.349969
 30
0.0
 10
226.349904
 20
234.349925
 30
0.0
 10
222.349737
 20
234.349925
 30
0.0
 10
222.349737
 20
246.349882
 30
0.0
 10
226.349904
 20
246.349882
 30
0.0
 10
226.349904
 20
258.349841
 30
0.0
 10
222.349737
 20
258.349841
 30
0.0
 10
222.349737
 20
270.349797
 30
0.0
 10
226.349904
 20
270.349797
 30
0.0
 10
226.349904
 20
288.349730
 30
0.0
 10
222.349737
 20
288.349730
 30
0.0
 10
222.349737
 20
302.350049
 30
0.0
 10
210.349778
 20
302.350049
 30
0.0
 10
210.349778
 20
306.350216
 30
0.0
 10
194.350205
 20
306.350216
 30
0.0
 10
194.350205
 20
302.350049
 30
0.0
 10
182.350249
 20
302.350049
 30
0.0
 10
182.350249
 20
306.350216
 30
0.0
 10
170.349740
 20
306.350216
 30
0.0
 10
170.349740
 20
302.350049
 30
0.0
 10
158.349783
 20
302.350049
 30
0.0
 10
158.349783
 20
306.350216
 30
0.0
 10
146.349827
 20
306.350216
 30
0.0
 10
146.349827
 20
302.350049
 30
0.0
 10
134.349871
 20
302.350049
 30
0.0
 10
134.349871
 20
306.350216
 30
0.0
 10
122.349915
 20
306.350216
 30
0.0
 10
122.349915
 20
302.350049
 30
0.0
 10
110.349959
 20
302.350049
 30
0.0
 10
110.349959
 20
306.350216
 30
0.0
 10
98.350002
 20
306.350216
 30
0.0
 10
98.350002
 20
302.350049
 30
0.0
 10
86.350043
 20
302.350049
 30
0.0
 10
86.350043
 20
306.350216
 30
0.0
 10
74.350087
 20
306.350216
 30
0.0
 10
74.350087
 20
302.350049
 30
0.0
 10
62.350131
 20
302.350049
 30
0.0
 10
62.350131
 20
306.350216
 30
0.0
 10
50.350174
 20
306.350216
 30
0.0
 10
50.350174
 20
302.350049
 30
0.0
 10
38.350218
 20
302.350049
 30
0.0
 10
38.350218
 20
306.350216
 30
0.0
 10
22.350091
 20
306.350216
 30
0.0
 10
22.350091
 20
306.350216
 30
0.0
  0
LWPOLYLINE
  5
105
100
AcDbEntity
  8
0
 62
7
100
AcDbPolyline
 90
158
 70
1
 10
242.350030
 20
306.350216
 30
0.0
 10
242.350030
 20
302.350049
 30
0.0
 10
230.350074
 20
302.350049
 30
0.0
 10
230.350074
 20
288.349730
 30
0.0
 10
226.349904
 20
288.349730
 30
0.0
 10
226.349904
 20
270.349797
 30
0.0
 10
230.350074
 20
270.349797
 30
0.0
 10
230.350074
 20
258.349841
 30
0.0
 10
226.349904
 20
258.349841
 30
0.0
 10
226.349904
 20
246.349882
 30
0.0
 10
230.350074
 20
246.349882
 30
0.0
 10
230.350074
 20
234.349925
 30
0.0
 10
226.349904
 20
234.349925
 30
0.0
 10
226.349904
 20
222.349969
 30
0.0
 10
230.350074
 20
222.349969
 30
0.0
 10
230.350074
 20
210.350013
 30
0.0
 10
226.349904
 20
210.350013
 30
0.0
 10
226.349904
 20
198.350057
 30
0.0
 10
230.350074
 20
198.350057
 30
0.0
 10
230.350074
 20
186.350100
 30
0.0
 10
226.349904
 20
186.350100
 30
0.0
 10
226.349904
 20
174.350144
 30
0.0
 10
230.350074
 20
174.350144
 30
0.0
 10
230.350074
 20
162.350188
 30
0.0
 10
226.349904
 20
162.350188
 30
0.0
 10
226.349904
 20
150.350229
 30
0.0
 10
230.350074
 20
150.350229
 30
0.0
 10
230.350074
 20
138.350273
 30
0.0
 10
226.349904
 20
138.350273
 30
0.0
 10
226.349904
 20
126.349766
 30
0.0
 10
230.350074
 20
126.349766
 30
0.0
 10
230.350074
 20
114.349810
 30
0.0
 10
226.349904
 20
114.349810
 30
0.0
 10
226.349904
 20
102.349853
 30
0.0
 10
230.350074
 20
102.349853
 30
0.0
 10
230.350074
 20
90.349903
 30
0.0
 10
226.349904
 20
90.349903
 30
0.0
 10
226.349904
 20
78.349927
 30
0.0
 10
230.350074
 20
78.349927
 30
0.0
 10
230.350074
 20
66.349979
 30
0.0
 10
226.349904
 20
66.349979
 30
0.0
 10
226.349904
 20
54.350031
 30
0.0
 10
230.350074
 20
54.350031
 30
0.0
 10
230.350074
 20
42.350084
 30
0.0
 10
226.349904
 20
42.350084
 30
0.0
 10
226.349904
 20
24.350148
 30
0.0
 10
230.350074
 20
24.350148
 30
0.0
 10
230.350074
 20
10.349809
 30
0.0
 10
242.350030
 20
10.349809
 30
0.0
 10
242.350030
 20
6.350212
 30
0.0
 10
258.350156
 20
6.350212
 30
0.0
 10
258.350156
 20
10.349809
 30
0.0
 10
270.350113
 20
10.349809
 30
0.0
 10
270.350113
 20
6.350212
 30
0.0
 10
282.350069
 20
6.350212
 30
0.0
 10
282.350069
 20
10.349809
 30
0.0
 10
294.350045
 20
10.349809
 30
0.0
 10
294.350045
 20
6.350212
 30
0.0
 10
306.349993
 20
6.350212
 30
0.0
 10
306.349993
 20
10.349809
 30
0.0
 10
318.349940
 20
10.349809
 30
0.0
 10
318.349940
 20
6.350212
 30
0.0
 10
330.349888
 20
6.350212
 30
0.0
 10
330.349888
 20
10.349809
 30
0.0
 10
342.349864
 20
10.349809
 30
0.0
 10
342.349864
 20
6.350212
 30
0.0
 10
354.349812
 20
6.350212
 30
0.0
 10
354.349812
 20
10.349809
 30
0.0
 10
366.349760
 20
10.349809
 30
0.0
 10
366.349760
 20
6.350212
 30
0.0
 10
378.349736
 20
6.350212
 30
0.0
 10
378.349736
 20
10.349809
 30
0.0
 10
390.350248
 20
10.349809
 30
0.0
 10
390.350248
 20
6.350212
 30
0.0
 10
402.350196
 20
6.350212
 30
0.0
 10
402.350196
 20
10.349809
 30
0.0
 10
414.350144
 20
10.349809
 30
0.0
 10
414.350144
 20
6.350212
 30
0.0
 10
430.350281
 20
6.350212
 30
0.0
 10
430.350281
 20
10.349809
 30
0.0
 10
442.350229
 20
10.349809
 30
0.0
 10
442.350229
 20
24.350148
 30
0.0
 10
446.349854
 20
24.350148
 30
0.0
 10
446.349854
 20
42.350084
 30
0.0
 10
442.350229
 20
42.350084
 30
0.0
 10
442.350229
 20
54.350031
 30
0.0
 10
446.349854
 20
54.350031
 30
0.0
 10
446.349854
 20
66.349979
 30
0.0
 10
442.350229
 20
66.349979
 30
0.0
 10
442.350229
 20
78.349927
 30
0.0
 10
446.349854
 20
78.349927
 30
0.0
 10
446.349854
 20
90.349903
 30
0.0
 10
442.350229
 20
90.349903
 30
0.0
 10
442.350229
 20
102.349853
 30
0.0
 10
446.349854
 20
102.349853
 30
0.0
 10
446.349854
 20
114.349810
 30
0.0
 10
442.350229
 20
114.349810
 30
0.0
 10
442.350229
 20
126.349766
 30
0.0
 10
446.349854
 20
126.349766
 30
0.0
 10
446.349854
 20
138.350273
 30
0.0
 10
442.350229
 20
138.350273
 30
0.0
 10
442.350229
 20
150.350229
 30
0.0
 10
446.349854
 20
150.350229
 30
0.0
 10
446.349854
 20
162.350188
 30
0.0
 10
442.350229
 20
162.350188
 30
0.0
 10
442.350229
 20
174.350144
 30
0.0
 10
446.349854
 20
174.350144
 30
0.0
 10
446.349854
 20
186.350100
 30
0.0
 10
442.350229
 20
186.350100
 30
0.0
 10
442.350229
 20
198.350057
 30
0.0
 10
446.349854
 20
198.350057
 30
0.0
 10
446.349854
 20
210.350013
 30
0.0
 10
442.350229
 20
210.350013
 30
0.0
 10
442.350229
 20
222.349969
 30
0.0
 10
446.349854
 20
222.349969
 30
0.0
 10
446.349854
 20
234.349925
 30
0.0
 10
442.350229
 20
234.349925
 30
0.0
 10
442.350229
 20
246.349882
 30
0.0
 10
446.349854
 20
246.349882
 30
0.0
 10
446.349854
 20
258.349841
 30
0.0
 10
442.350229
 20
258.349841
 30
0.0
 10
442.350229
 20
270.349797
 30
0.0
 10
446.349854
 20
270.349797
 30
0.0
 10
446.349854
 20
288.349730
 30
0.0
 10
442.350229
 20
288.349730
 30
0.0
 10
442.350229
 20
302.350049
 30
0.0
 10
430.350281
 20
302.350049
 30
0.0
 10
430.350281
 20
306.350216
 30
0.0
 10
414.350144
 20
306.350216
 30
0.0
 10
414.350144
 20
302.350049
 30
0.0
 10
402.350196
 20
302.350049
 30
0.0
 10
402.350196
 20
306.350216
 30
0.0
 10
390.350248
 20
306.350216
 30
0.0
 10
390.350248
 20
302.350049
 30
0.0
 10
378.349736
 20
302.350049
 30
0.0
 10
378.349736
 20
306.350216
 30
0.0
 10
366.349760
 20
306.350216
 30
0.0
 10
366.349760
 20
302.350049
 30
0.0
 10
354.349812
 20
302.350049
 30
0.0
 10
354.349812
 20
306.350216
 30
0.0
 10
342.349864
 20
306.350216
 30
0.0
 10
342.349864
 20
302.350049
 30
0.0
 10
330.349888
 20
302.350049
 30
0.0
 10
330.349888
 20
306.350216
 30
0.0
 10
318.349940
 20
306.350216
 30
0.0
 10
318.349940
 20
302.350049
 30
0.0
 10
306.349993
 20
302.350049
 30
0.0
 10
306.349993
 20
306.350216
 30
0.0
 10
294.350045
 20
306.350216
 30
0.0
 10
294.350045
 20
302.350049
 30
0.0
 10
282.350069
 20
302.350049
 30
0.0
 10
282.350069
 20
306.350216
 30
0.0
 10
270.350113
 20
306.350216
 30
0.0
 10
270.350113
 20
302.350049
 30
0.0
 10
258.350156
 20
302.350049
 30
0.0
 10
258.350156
 20
306.350216
 30
0.0
 10
242.350030
 20
306.350216
 30
0.0
 10
242.350030
 20
306.350216
 30
0.0
  0
ENDSEC
  0
SECTION
  2
OBJECTS
  0
DICTIONARY
  5
C
330
0
100
AcDbDictionary
  3
ACAD_GROUP
350
D
  3
ACAD_MLINESTYLE
350
17
  0
DICTIONARY
  5
D
330
C
100
AcDbDictionary
  0
DICTIONARY
  5
1A
330
C
100
AcDbDictionary
  0
DICTIONARY
  5
17
330
C
100
AcDbDictionary
  3
STANDARD
350
18
  0
DICTIONARY
  5
19
330
C
100
AcDbDictionary
  0
ENDSEC
  0
EOF
