<?xml version="1.0" encoding="UTF-8" standalone="no"?>
<!-- Created with Inkscape (http://www.inkscape.org/) -->

<svg
   xmlns:dc="http://purl.org/dc/elements/1.1/"
   xmlns:cc="http://creativecommons.org/ns#"
   xmlns:rdf="http://www.w3.org/1999/02/22-rdf-syntax-ns#"
   xmlns:svg="http://www.w3.org/2000/svg"
   xmlns="http://www.w3.org/2000/svg"
   xmlns:sodipodi="http://sodipodi.sourceforge.net/DTD/sodipodi-0.dtd"
   xmlns:inkscape="http://www.inkscape.org/namespaces/inkscape"
   width="1052.3622"
   height="744.09448"
   id="svg2"
   version="1.1"
   inkscape:version="0.46+devel r21627"
   sodipodi:docname="Новый документ 1"
   inkscape:output_extension="org.inkscape.output.svg.inkscape">
  <defs
     id="defs4">
    <inkscape:perspective
       sodipodi:type="inkscape:persp3d"
       inkscape:vp_x="0 : 526.18109 : 1"
       inkscape:vp_y="0 : 1000 : 0"
       inkscape:vp_z="744.09448 : 526.18109 : 1"
       inkscape:persp3d-origin="372.04724 : 350.78739 : 1"
       id="perspective10" />
    <inkscape:perspective
       id="perspective200"
       inkscape:persp3d-origin="0.5 : 0.33333333 : 1"
       inkscape:vp_z="1 : 0.5 : 1"
       inkscape:vp_y="0 : 1000 : 0"
       inkscape:vp_x="0 : 0.5 : 1"
       sodipodi:type="inkscape:persp3d" />
  </defs>
  <sodipodi:namedview
     id="base"
     pagecolor="#ffffff"
     bordercolor="#666666"
     borderopacity="1.0"
     inkscape:pageopacity="1"
     inkscape:pageshadow="2"
     inkscape:zoom="0.42099381"
     inkscape:cx="519.38468"
     inkscape:cy="336.45437"
     inkscape:document-units="px"
     inkscape:current-layer="layer1"
     showgrid="false"
     inkscape:window-width="1152"
     inkscape:window-height="817"
     inkscape:window-x="-4"
     inkscape:window-y="-4"
     inkscape:window-maximized="1" />
  <metadata
     id="metadata7">
    <rdf:RDF>
      <cc:Work
         rdf:about="">
        <dc:format>image/svg+xml</dc:format>
        <dc:type
           rdf:resource="http://purl.org/dc/dcmitype/StillImage" />
        <dc:title></dc:title>
      </cc:Work>
    </rdf:RDF>
  </metadata>
  <g
     inkscape:label="Layer 1"
     inkscape:groupmode="layer"
     id="layer1"
     transform="translate(0,-308.2677)">
    <path
       style="fill:#000000;display:inline"
       d="M 584.68109,827.81496 L 584.68109,804.31496 L 577.18109,804.31496 L 569.68109,804.31496 L 569.68109,797.96856 C 569.68109,794.47806 569.38869,787.50306 569.03139,782.46856 L 568.38159,773.31496 L 561.03139,773.31496 L 553.68109,773.31496 L 553.68109,757.81496 L 553.68109,742.31496 L 545.68109,742.31496 L 537.68109,742.31496 L 537.68109,726.81496 L 537.68109,711.31496 L 530.18109,711.31496 L 522.68109,711.31496 L 522.68109,703.31496 L 522.68109,695.31496 L 514.68109,695.31496 L 506.68109,695.31496 L 506.68109,672.31496 L 506.68109,649.31496 L 530.18109,649.31496 L 553.68109,649.31496 L 553.68109,656.81496 L 553.68109,664.31496 L 561.68109,664.31496 L 569.68109,664.31496 L 569.68109,594.31493 L 569.68109,524.31493 L 577.18109,524.31493 L 584.68109,524.31493 L 584.68109,516.81493 L 584.68109,509.31493 L 600.18109,509.31493 L 615.68109,509.31493 L 615.68109,516.81493 L 615.68109,524.31493 L 623.68109,524.31493 L 631.68109,524.31493 L 631.68109,555.31493 L 631.68109,586.31493 L 647.18109,586.31493 L 662.68109,586.31493 L 662.68109,594.31493 L 662.68109,602.31496 L 685.68109,602.31496 L 708.68109,602.31496 L 708.68109,605.17536 C 708.68109,606.74856 708.96109,610.07876 709.30339,612.57576 L 709.92569,617.11586 L 725.30339,617.83656 L 740.68109,618.55726 L 740.68109,625.93606 L 740.68109,633.31496 L 748.18109,633.31496 L 755.68109,633.31496 L 755.68109,640.81496 L 755.68109,648.31496 L 748.18109,648.31496 L 740.68109,648.31496 L 740.68109,640.81496 L 740.68109,633.31496 L 732.68109,633.31496 L 724.68109,633.31496 L 724.68109,656.81496 L 724.68109,680.31496 L 717.18109,680.31496 L 709.68109,680.31496 L 709.68109,648.81496 L 709.68109,617.31496 L 693.68109,617.31496 L 677.68109,617.31496 L 677.68109,640.81496 L 677.68109,664.31496 L 670.18109,664.31496 L 662.68109,664.31496 L 662.68109,633.31496 L 662.68109,602.31496 L 647.18109,602.31496 L 631.68109,602.31496 L 631.68109,633.31496 L 631.68109,664.31496 L 623.68109,664.31496 L 615.68109,664.31496 L 615.68109,594.31493 L 615.68109,524.31493 L 600.18109,524.31493 L 584.68109,524.31493 L 584.68109,609.81496 L 584.68109,695.31496 L 577.18109,695.31496 L 569.68109,695.31496 L 569.68109,687.81496 L 569.68109,680.31496 L 561.68109,680.31496 L 553.68109,680.31496 L 553.68109,672.31496 L 553.68109,664.31496 L 538.18109,664.31496 L 522.68109,664.31496 L 522.68109,679.81496 L 522.68109,695.31496 L 530.18109,695.31496 L 537.68109,695.31496 L 537.68109,703.31496 L 537.68109,711.31496 L 545.68109,711.31496 L 553.68109,711.31496 L 553.68109,726.81496 L 553.68109,742.31496 L 561.68109,742.31496 L 569.68109,742.31496 L 569.68109,757.81496 L 569.68109,773.31496 L 577.18109,773.31496 L 584.68109,773.31496 L 584.68109,788.81496 L 584.68109,804.31496 L 592.68109,804.31496 L 600.68109,804.31496 L 600.68109,819.81496 L 600.68109,835.31496 L 662.68109,835.31496 L 724.68109,835.31496 L 724.68109,819.81496 L 724.68109,804.31496 L 732.68109,804.31496 L 740.68109,804.31496 L 740.67879,781.06496 L 740.67639,757.81496 L 748.17009,758.14366 L 755.66379,758.47236 L 755.92249,704.14366 L 756.18109,649.81496 L 763.93109,649.52286 L 771.68109,649.23076 L 771.68109,703.14376 L 771.68109,757.05666 L 763.68109,757.75456 L 755.68109,758.45236 L 755.68109,781.38366 L 755.68109,804.31496 L 748.18109,804.31496 L 740.68109,804.31496 L 740.68109,827.81496 L 740.68109,851.31496 L 662.68109,851.31496 L 584.68109,851.31496 L 584.68109,827.81496 z M 389.68109,827.95446 C 389.68109,826.10626 389.39489,822.50626 389.04519,819.95446 L 388.40929,815.31496 L 404.54519,815.31496 L 420.68109,815.31496 L 420.68109,799.81496 L 420.68109,784.31496 L 412.68109,784.31496 L 404.68109,784.31496 L 404.68109,768.81496 L 404.68109,753.31496 L 397.18109,753.31496 L 389.68109,753.31496 L 389.68109,737.81496 L 389.68109,722.31496 L 420.68109,722.31496 L 451.68109,722.31496 L 451.68109,714.31496 L 451.68109,706.31496 L 443.68109,706.31496 L 435.68109,706.31496 L 435.68109,698.81496 L 435.68109,691.31496 L 443.68109,691.31496 L 451.68109,691.31496 L 451.68109,698.81496 L 451.68109,706.31496 L 459.18109,706.31496 L 466.68109,706.31496 L 466.68109,721.81496 L 466.68109,737.31496 L 437.43109,737.46726 C 421.34359,737.55106 407.50609,737.66356 406.68109,737.71726 C 405.51239,737.79336 405.11659,739.52646 404.88899,745.56496 L 404.59699,753.31496 L 412.63899,753.31496 L 420.68109,753.31496 L 420.68109,768.81496 L 420.68109,784.31496 L 428.18109,784.31496 L 435.68109,784.31496 L 435.68109,799.81496 L 435.68109,815.31496 L 428.18109,815.31496 L 420.68109,815.31496 L 420.68109,823.31496 L 420.68109,831.31496 L 405.18109,831.31496 L 389.68109,831.31496 L 389.68109,827.95446 z M 373.68109,799.85696 L 373.68109,784.31496 L 365.68109,784.31496 L 357.68109,784.31496 L 357.68109,768.81496 L 357.68109,753.31496 L 350.18109,753.31496 L 342.68109,753.31496 L 342.68109,761.31496 L 342.68109,769.31496 L 335.29769,769.31496 C 326.85989,769.31496 326.71969,769.47386 326.69469,779.06496 L 326.68109,784.31496 L 319.22319,784.31496 L 311.76519,784.31496 L 311.47319,792.06496 L 311.18109,799.81496 L 295.93109,800.09096 L 280.68109,800.36706 L 280.68109,667.84096 L 280.68109,535.31493 L 288.18109,535.31493 L 295.68109,535.31493 L 295.68109,543.31493 L 295.68109,551.31493 L 303.68109,551.31493 L 311.68109,551.31493 L 311.68109,558.81493 L 311.68109,566.31493 L 319.18109,566.31493 L 326.68109,566.31493 L 326.68109,574.31493 L 326.68109,582.31493 L 334.68109,582.31493 L 342.68109,582.31493 L 342.68109,589.81493 L 342.68109,597.31493 L 350.18109,597.31493 L 357.68109,597.31493 L 357.68109,605.31496 L 357.68109,613.31496 L 350.18109,613.31496 L 342.68109,613.31496 L 342.68109,605.31496 L 342.68109,597.31493 L 334.68109,597.31493 L 326.68109,597.31493 L 326.68109,589.81493 L 326.68109,582.31493 L 319.18109,582.31493 L 311.68109,582.31493 L 311.68109,574.31493 L 311.68109,566.31493 L 303.68109,566.31493 L 295.68109,566.31493 L 295.68109,675.31496 L 295.68109,784.31496 L 303.68109,784.31496 L 311.68109,784.31496 L 311.68109,776.31496 L 311.68109,768.31496 L 319.18109,768.31496 L 326.68109,768.31496 L 326.68109,760.81496 L 326.68109,753.31496 L 334.68109,753.31496 L 342.68109,753.31496 L 342.68109,745.31496 L 342.68109,737.31496 L 350.18109,737.31496 L 357.68109,737.31496 L 357.68109,745.31496 L 357.68109,753.31496 L 365.68109,753.31496 L 373.68109,753.31496 L 373.68109,768.77286 L 373.68109,784.23076 L 381.43109,784.52286 L 389.18109,784.81496 L 389.18109,799.81496 L 389.18109,814.81496 L 381.43109,815.10696 L 373.68109,815.39906 L 373.68109,799.85696 z M 420.68109,683.38566 L 420.68109,675.31496 L 412.68109,675.31496 L 404.68109,675.31496 L 404.68109,667.81496 L 404.68109,660.31496 L 412.68109,660.31496 L 420.68109,660.31496 L 420.68109,667.81496 L 420.68109,675.31496 L 428.18109,675.31496 L 435.68109,675.31496 L 435.68109,682.70796 C 435.68109,687.71606 435.27789,690.24586 434.43109,690.55016 C 433.74359,690.79726 430.36859,691.10226 426.93109,691.22786 L 420.68109,691.45636 L 420.68109,683.38566 z M 389.68109,651.81496 L 389.68109,644.31496 L 381.68109,644.31496 L 373.68109,644.31496 L 373.68109,636.31496 L 373.68109,628.31496 L 365.93109,628.31726 L 358.18109,628.31956 L 358.51009,620.81726 L 358.83909,613.31496 L 366.26009,613.31496 L 373.68109,613.31496 L 373.68109,620.81496 L 373.68109,628.31496 L 381.18109,628.31496 L 388.68109,628.31496 L 388.68109,631.67536 C 388.68109,633.52356 388.96729,637.12356 389.31699,639.67536 L 389.95299,644.31496 L 397.31699,644.31496 L 404.68109,644.31496 L 404.68109,651.81496 L 404.68109,659.31496 L 397.18109,659.31496 L 389.68109,659.31496 L 389.68109,651.81496 z"
       id="path190" />
  </g>
</svg>
