<?xml version="1.0" encoding="UTF-8" standalone="no"?>
<svg
   xmlns:dc="http://purl.org/dc/elements/1.1/"
   xmlns:cc="http://creativecommons.org/ns#"
   xmlns:rdf="http://www.w3.org/1999/02/22-rdf-syntax-ns#"
   xmlns:svg="http://www.w3.org/2000/svg"
   xmlns="http://www.w3.org/2000/svg"
   xmlns:sodipodi="http://sodipodi.sourceforge.net/DTD/sodipodi-0.dtd"
   xmlns:inkscape="http://www.inkscape.org/namespaces/inkscape"
   width="340"
   height="440"
   id="Mano"
   version="1.0"
   inkscape:version="0.91 r13725"
   sodipodi:docname="dTronR4nc.svg">
  <defs
     id="defs10" />
  <sodipodi:namedview
     pagecolor="#ffffff"
     bordercolor="#666666"
     borderopacity="1"
     objecttolerance="10"
     gridtolerance="10"
     guidetolerance="10"
     inkscape:pageopacity="0"
     inkscape:pageshadow="2"
     inkscape:window-width="1360"
     inkscape:window-height="749"
     id="namedview8"
     showgrid="false"
     inkscape:zoom="1.0727273"
     inkscape:cx="197.75034"
     inkscape:cy="175.21591"
     inkscape:window-x="1436"
     inkscape:window-y="-4"
     inkscape:window-maximized="1"
     inkscape:current-layer="Mano" />
  <metadata
     id="Metadata">
    <rdf:RDF>
      <cc:Work
         rdf:about="">
        <dc:format>image/svg+xml</dc:format>
        <dc:type
           rdf:resource="http://purl.org/dc/dcmitype/StillImage" />
        <dc:title></dc:title>
      </cc:Work>
    </rdf:RDF>
  </metadata>
  <path
     style="fill:none;fill-opacity:1;fill-rule:evenodd;stroke:#ff0000"
     d="M 100 1.8652344 L 100 21.865234 L 80 21.865234 L 80 201.86523 L 60 201.86523 L 60 181.86523 L 0 181.86523 L 0 241.86523 L 20 241.86523 L 20 261.86523 L 40 261.86523 L 40 301.86523 L 60 301.86523 L 60 341.86523 L 80 341.86523 L 80 381.86523 L 100 381.86523 L 100 441.86523 L 300 441.86523 L 300 381.86523 L 320 381.86523 L 320 321.86523 L 340 321.86523 L 340 181.86523 L 320 181.86523 L 320 161.86523 L 300 161.86523 L 300 141.86523 L 260 141.86523 L 260 121.86523 L 200 121.86523 L 200 101.86523 L 160 101.86523 L 160 21.865234 L 140 21.865234 L 140 1.8652344 L 100 1.8652344 z "
     id="NigraBordero" />
</svg>
