<?xml version="1.0" encoding="UTF-8" standalone="no"?>
<!-- Generator: Adobe Illustrator 16.0.0, SVG Export Plug-In . SVG Version: 6.00 Build 0)  -->

<svg
   xmlns:dc="http://purl.org/dc/elements/1.1/"
   xmlns:cc="http://creativecommons.org/ns#"
   xmlns:rdf="http://www.w3.org/1999/02/22-rdf-syntax-ns#"
   xmlns:svg="http://www.w3.org/2000/svg"
   xmlns="http://www.w3.org/2000/svg"
   xmlns:sodipodi="http://sodipodi.sourceforge.net/DTD/sodipodi-0.dtd"
   xmlns:inkscape="http://www.inkscape.org/namespaces/inkscape"
   version="1.1"
   id="Capa_1"
   x="0px"
   y="0px"
   width="595.17px"
   height="595.17px"
   viewBox="0 0 595.17 595.17"
   style="enable-background:new 0 0 595.17 595.17;"
   xml:space="preserve"
   inkscape:version="0.91 r13725"
   sodipodi:docname="nes_gamepad.svg"><metadata
     id="metadata77"><rdf:RDF><cc:Work
         rdf:about=""><dc:format>image/svg+xml</dc:format><dc:type
           rdf:resource="http://purl.org/dc/dcmitype/StillImage" /><dc:title></dc:title></cc:Work></rdf:RDF></metadata><defs
     id="defs75" /><sodipodi:namedview
     pagecolor="#ffffff"
     bordercolor="#666666"
     borderopacity="1"
     objecttolerance="10"
     gridtolerance="10"
     guidetolerance="10"
     inkscape:pageopacity="0"
     inkscape:pageshadow="2"
     inkscape:window-width="1366"
     inkscape:window-height="716"
     id="namedview73"
     showgrid="false"
     inkscape:zoom="0.79305075"
     inkscape:cx="432.22931"
     inkscape:cy="109.88975"
     inkscape:window-x="-8"
     inkscape:window-y="-8"
     inkscape:window-maximized="1"
     inkscape:current-layer="Capa_1" /><g
     id="g4226"><g
       id="g3"><g
         id="g5"><path
           d="M 12.240234 265.63281 C 5.4782344 265.63281 0 271.11105 0 277.87305 L 0 481.42969 C 0 488.19269 5.4782344 493.66992 12.240234 493.66992 L 582.92969 493.66992 C 589.69269 493.66992 595.16992 488.19169 595.16992 481.42969 L 595.16992 277.87305 C 595.16992 271.11005 589.69169 265.63281 582.92969 265.63281 L 200.44727 265.63281 L 175.02539 265.63281 L 12.240234 265.63281 z M 16.896484 290.07617 L 578.65234 290.07617 C 583.46834 290.07617 587.37891 293.99273 587.37891 298.80273 L 587.37891 479.00781 C 587.37891 483.81781 583.46234 487.73438 578.65234 487.73438 L 360.33203 487.73438 L 360.33203 488.11328 L 208.01367 488.11328 L 208.01367 487.73438 L 16.896484 487.73438 C 12.085484 487.73438 8.1699219 483.81781 8.1699219 479.00781 L 8.1699219 298.80273 C 8.1699219 293.99273 12.085484 290.07617 16.896484 290.07617 z M 16.896484 296.20117 C 15.458484 296.20117 14.289063 297.37159 14.289062 298.80859 L 14.289062 479.00586 C 14.289062 480.43786 15.458484 481.61133 16.896484 481.61133 L 208.01758 481.61133 L 208.01758 471.45312 C 208.01758 466.64312 211.93509 462.72656 216.74609 462.72656 L 351.61133 462.72656 C 356.42233 462.72656 360.33984 466.64312 360.33984 471.45312 L 360.33984 481.61133 L 578.6582 481.61133 C 580.0962 481.61133 581.26562 480.44286 581.26562 479.00586 L 581.26562 298.80273 C 581.25963 297.37073 580.09034 296.20117 578.65234 296.20117 L 360.33203 296.20117 L 360.33203 315.05273 C 360.33203 319.86373 356.41647 323.7793 351.60547 323.7793 L 216.74023 323.7793 C 211.93023 323.7793 208.01367 319.86373 208.01367 315.05273 L 208.01367 296.20117 L 16.896484 296.20117 z M 214.13281 296.56836 L 214.13281 315.04688 C 214.13281 316.48388 215.30223 317.65234 216.74023 317.65234 L 351.60742 317.65234 C 353.04542 317.65234 354.21289 316.48388 354.21289 315.04688 L 354.21289 296.56836 L 214.13281 296.56836 z M 216.74023 326.71484 L 351.60742 326.71484 C 356.41842 326.71484 360.33398 330.63236 360.33398 335.44336 L 360.33398 351.3125 L 360.33203 351.3125 C 360.33203 356.1235 356.41647 360.03906 351.60547 360.03906 L 216.74023 360.03906 C 211.93023 360.03906 208.01367 356.1235 208.01367 351.3125 L 208.01367 335.44336 C 208.01367 330.63236 211.93023 326.71484 216.74023 326.71484 z M 216.74023 332.84375 C 215.30223 332.84375 214.13281 334.01222 214.13281 335.44922 L 214.13281 351.31836 C 214.13281 352.75136 215.30223 353.92578 216.74023 353.92578 L 351.60742 353.92578 C 353.04542 353.92578 354.21289 352.75636 354.21289 351.31836 L 354.21289 335.44922 C 354.21289 334.01222 353.04347 332.84375 351.60547 332.84375 L 216.74023 332.84375 z M 86.775391 333.17383 L 135.90039 333.17383 C 139.52339 333.17383 142.4668 336.11723 142.4668 339.74023 L 142.4668 371.18555 L 173.91016 371.18555 C 177.53316 371.18555 180.47852 374.12895 180.47852 377.75195 L 180.47852 426.87695 L 180.48438 426.87695 C 180.48438 430.49995 177.54097 433.44336 173.91797 433.44336 L 142.47461 433.44336 L 142.47461 464.89258 C 142.47461 468.51558 139.52925 471.46094 135.90625 471.46094 L 86.78125 471.46094 C 83.15825 471.46094 80.214844 468.51558 80.214844 464.89258 L 80.214844 433.44336 L 48.763672 433.44336 C 45.140672 433.44336 42.197266 430.49995 42.197266 426.87695 L 42.197266 377.75195 C 42.197266 374.12895 45.140672 371.18555 48.763672 371.18555 L 80.207031 371.18555 L 80.207031 339.74023 C 80.207031 336.11723 83.152391 333.17383 86.775391 333.17383 z M 400.09375 333.22266 C 400.44875 333.21666 400.65166 333.31481 400.84766 333.63281 C 403.39366 337.78181 405.95177 341.9185 408.50977 346.0625 C 408.59577 346.2035 408.68028 346.33698 408.86328 346.45898 L 408.86328 333.25195 L 414.71484 333.25195 L 414.71484 352.36523 L 413.66797 352.36523 C 412.21197 352.36523 410.74997 352.35209 409.29297 352.37109 C 408.97497 352.37709 408.80367 352.26691 408.63867 352.00391 C 406.06167 347.84291 403.47948 343.68139 400.89648 339.52539 C 400.81048 339.39039 400.72467 339.25509 400.63867 339.12109 C 400.60167 339.12809 400.5663 339.13953 400.5293 339.14453 L 400.5293 345.71875 L 400.5293 352.33984 L 394.69141 352.33984 L 394.69141 333.22852 L 395.13672 333.22852 C 396.78872 333.22852 398.44175 333.24166 400.09375 333.22266 z M 418.07422 333.22266 L 420.92773 333.22266 L 423.76758 333.22266 L 423.76758 337.05273 L 418.07617 337.05273 C 418.07517 335.77273 418.07422 334.52566 418.07422 333.22266 z M 503.03906 333.24023 L 508.66406 333.24023 L 508.66406 352.32812 L 503.0625 352.32812 C 503.0445 352.11413 503.02695 351.90767 503.00195 351.63867 C 501.06195 352.76467 499.05508 353.05112 496.95508 352.32812 C 495.57208 351.85012 494.48253 350.97134 493.64453 349.77734 C 492.04253 347.51934 492.07189 344.39517 493.71289 342.07617 C 494.39889 341.10317 495.26689 340.33878 496.33789 339.80078 C 497.39689 339.26878 498.51627 339.07248 499.69727 339.14648 C 500.89027 339.22048 501.95006 339.69116 503.03906 340.28516 L 503.03906 336.75391 L 503.03906 333.24023 z M 446.95703 335.23438 L 452.71094 335.23438 L 452.71094 337.76172 L 455.80078 337.76172 L 455.80078 339.64062 L 452.74023 339.64062 C 452.72723 343.87662 452.72656 348.08127 452.72656 352.32227 L 446.97461 352.32227 L 446.97461 339.64648 L 443.85352 339.64648 C 443.85352 339.05948 443.84009 338.50131 443.87109 337.94531 C 443.87109 337.88331 444.0987 337.78711 444.2207 337.78711 C 445.1147 337.77511 446.00803 337.78125 446.95703 337.78125 L 446.95703 335.23438 z M 518.97266 338.79297 C 521.16353 338.78297 523.35155 339.49795 524.99805 340.93945 C 528.24805 343.77945 528.17317 348.32583 524.82617 351.04883 C 523.12417 352.43183 521.15316 353.04478 518.78516 353.05078 C 516.66216 353.02678 514.58847 352.3463 512.85547 350.7793 C 509.82047 348.0453 509.86269 343.68714 512.92969 340.99414 C 514.58769 339.53764 516.78178 338.80297 518.97266 338.79297 z M 463.3457 338.87109 C 463.66182 338.86755 463.98227 338.87677 464.30664 338.90039 C 466.54064 339.05939 468.49203 339.88623 470.08203 341.49023 C 471.33103 342.74423 472.07872 344.50097 472.01172 346.04297 L 461.13672 346.04297 C 461.19172 347.29797 461.14931 348.50387 461.32031 349.67188 C 461.50431 350.90188 462.526 351.61245 463.75 351.56445 C 464.87 351.52145 465.77541 350.67084 465.94141 349.46484 C 466.00841 348.98184 466.0195 348.48555 466.0625 347.93555 L 468.85352 347.93555 L 471.68164 347.93555 C 471.60864 348.14355 471.55852 348.32133 471.47852 348.48633 C 470.48152 350.62833 468.76159 351.96763 466.55859 352.64062 C 463.35759 353.61462 460.33973 353.20461 457.67773 351.09961 C 455.89673 349.69061 454.96781 347.82472 455.13281 345.51172 C 455.25581 343.73072 456.07348 342.27923 457.39648 341.11523 C 459.12636 339.59536 461.13291 338.89589 463.3457 338.87109 z M 484.16602 339.09375 C 486.09318 339.06834 488.00512 339.84417 489.25781 341.37305 C 490.04181 342.32705 490.4993 343.43616 490.5293 344.66016 C 490.5843 347.13916 490.56627 349.61084 490.57227 352.08984 C 490.57227 352.15684 490.55497 352.22527 490.54297 352.32227 L 484.94141 352.32227 C 484.92941 352.16327 484.91211 351.98545 484.91211 351.81445 L 484.91211 344.38477 C 484.91211 343.07477 484.30011 342.16725 483.16211 341.78125 C 482.01111 341.39625 480.71461 341.78133 479.97461 342.73633 C 479.63161 343.17633 479.48423 343.67933 479.49023 344.23633 C 479.49723 346.74033 479.49609 349.24895 479.49609 351.75195 L 479.49609 352.32031 L 473.85352 352.32031 C 473.84652 348.11731 473.84766 343.91355 473.84766 339.68555 L 479.48438 339.68555 L 479.48438 341.01367 C 479.70538 340.82967 479.82136 340.73181 479.94336 340.63281 C 481.15873 339.61825 482.66711 339.11351 484.16602 339.09375 z M 437.73047 339.09766 C 439.35997 339.16728 440.95613 339.81494 442.14062 341.02344 C 443.24763 342.15644 443.73853 343.55761 443.76953 345.09961 C 443.81253 347.45061 443.78125 349.80525 443.78125 352.15625 C 443.78125 352.21125 443.76981 352.26194 443.75781 352.33594 L 438.11328 352.33594 L 438.11328 351.86328 L 438.11328 344.31055 C 438.11328 342.99455 437.31284 341.97298 436.08984 341.70898 C 434.76184 341.42798 433.37867 342.06342 432.88867 343.23242 C 432.74767 343.56242 432.69922 343.95541 432.69922 344.31641 C 432.68622 346.81941 432.69908 349.32203 432.70508 351.83203 L 432.70508 352.3457 L 427.0625 352.3457 C 427.0545 348.1177 427.05469 343.91945 427.05469 339.68945 L 432.69141 339.68945 L 432.69141 340.98242 C 432.89941 340.81642 433.01595 340.73067 433.12695 340.63867 C 434.43945 339.53667 436.10097 339.02803 437.73047 339.09766 z M 86.78125 339.29492 C 86.53025 339.29492 86.335938 339.49623 86.335938 339.74023 L 86.335938 377.30469 L 48.763672 377.30469 C 48.512672 377.30469 48.316406 377.50695 48.316406 377.75195 L 48.316406 426.87695 C 48.316406 427.12195 48.518672 427.32227 48.763672 427.32227 L 86.328125 427.32227 L 86.328125 464.89258 C 86.328125 465.13758 86.530391 465.33984 86.775391 465.33984 L 135.90039 465.33984 C 136.15039 465.33984 136.34766 465.13758 136.34766 464.89258 L 136.34766 427.32227 L 173.91016 427.32227 C 174.16116 427.32227 174.35742 427.12195 174.35742 426.87695 L 174.35742 377.75195 C 174.35742 377.50695 174.15516 377.30469 173.91016 377.30469 L 136.35352 377.30469 L 136.35352 339.74023 C 136.35352 339.49623 136.15125 339.29492 135.90625 339.29492 L 86.78125 339.29492 z M 418.10547 339.68945 L 423.78516 339.68945 L 423.78516 352.33594 L 418.10547 352.33594 L 418.10547 339.68945 z M 518.94531 340.32227 C 517.97831 340.32227 517.23277 340.78641 516.88477 341.69141 C 516.68977 342.19341 516.58427 342.75787 516.57227 343.29688 C 516.53527 345.04088 516.55259 346.79102 516.55859 348.54102 C 516.55859 348.84102 516.58853 349.14645 516.64453 349.43945 C 516.85253 350.62045 517.72769 351.44152 518.80469 351.47852 C 520.15169 351.52752 521.18648 350.61531 521.27148 349.19531 C 521.33848 348.09931 521.2832 346.99848 521.2832 345.89648 L 521.33203 345.89648 C 521.33203 345.07048 521.36931 344.24497 521.32031 343.41797 C 521.28931 342.84897 521.22234 342.25452 521.02734 341.72852 C 520.68434 340.79752 519.93031 340.32227 518.94531 340.32227 z M 463.68164 340.39062 C 462.54264 340.35363 461.52664 341.13639 461.30664 342.27539 C 461.21464 342.75839 461.23245 343.26 461.18945 343.75 C 461.16545 344.02 461.26906 344.11733 461.53906 344.11133 C 462.22506 344.09733 462.91752 344.10352 463.60352 344.10352 C 464.28952 344.10352 464.97906 344.09037 465.66406 344.10938 C 465.95706 344.11537 466.05625 344.01247 466.03125 343.73047 C 465.99425 343.29547 466.00045 342.84806 465.93945 342.41406 C 465.76745 341.26406 464.81364 340.42662 463.68164 340.39062 z M 500.76172 341.17188 C 499.50072 341.19588 498.57673 342.01777 498.55273 343.25977 C 498.50973 345.03377 498.50973 346.80803 498.55273 348.58203 C 498.58373 349.82403 499.50814 350.67589 500.74414 350.71289 C 501.96214 350.74889 502.93548 349.9225 503.02148 348.6875 C 503.08848 347.7875 503.0332 346.87684 503.0332 345.96484 C 503.0332 345.02784 503.08948 344.09016 503.02148 343.16016 C 502.93548 341.93516 501.99272 341.14687 500.76172 341.17188 z M 95.753906 344.2793 L 126.92188 344.2793 C 130.48388 344.2793 133.38477 347.18019 133.38477 350.74219 L 133.38477 380.26562 L 162.90625 380.26562 C 166.46825 380.26562 169.36914 383.16552 169.36914 386.72852 L 169.36914 417.89844 L 169.36523 417.89844 C 169.36523 421.46044 166.46334 424.36133 162.90234 424.36133 L 133.38672 424.36133 L 133.38672 453.87891 C 133.38672 457.44091 130.48483 460.3418 126.92383 460.3418 L 95.753906 460.3418 C 92.191906 460.3418 89.289063 457.44091 89.289062 453.87891 L 89.289062 424.36133 L 59.767578 424.36133 C 56.205578 424.36133 53.304687 421.46044 53.304688 417.89844 L 53.304688 386.72852 C 53.304688 383.16652 56.205578 380.26563 59.767578 380.26562 L 89.289062 380.26562 L 89.289062 350.74219 C 89.289062 347.18019 92.191906 344.2793 95.753906 344.2793 z M 95.759766 350.40625 L 95.417969 386.39258 L 59.773438 386.39258 L 59.431641 417.89844 L 95.410156 418.24023 L 95.410156 453.87891 L 126.91602 454.2207 C 127.10602 454.2207 127.25977 454.07491 127.25977 453.87891 L 127.25977 418.24023 L 162.90234 418.24023 L 163.24414 386.73438 L 127.26562 386.39258 L 127.26562 350.74805 L 95.759766 350.40625 z M 216.74023 362.98242 L 351.60742 362.98242 C 356.41842 362.98242 360.33398 366.89994 360.33398 371.71094 L 360.33398 387.58008 L 360.33203 387.58008 C 360.33203 392.39108 356.41647 396.30664 351.60547 396.30664 L 216.74023 396.30664 C 211.93023 396.30664 208.01367 392.39108 208.01367 387.58008 L 208.01367 371.71094 C 208.01367 366.89994 211.93023 362.98242 216.74023 362.98242 z M 216.74023 369.10938 C 215.30223 369.10938 214.13281 370.2788 214.13281 371.7168 L 214.13281 387.58594 C 214.13281 389.01794 215.30223 390.19141 216.74023 390.19141 L 351.60742 390.19141 C 353.04542 390.19141 354.21289 389.02394 354.21289 387.58594 L 354.21289 371.7168 C 354.21289 370.2788 353.04347 369.10938 351.60547 369.10938 L 216.74023 369.10938 z M 390.50977 395.2832 L 442.64648 395.2832 C 447.45748 395.2832 451.37305 399.20172 451.37305 404.01172 L 451.37305 456.14844 C 451.37305 460.95944 447.45748 464.875 442.64648 464.875 L 390.50977 464.875 C 385.69877 464.875 381.7832 460.95944 381.7832 456.14844 L 381.7832 404.01172 C 381.7832 399.20172 385.69977 395.2832 390.50977 395.2832 z M 472.11523 395.2832 L 524.25195 395.2832 C 529.06295 395.2832 532.97852 399.20172 532.97852 404.01172 L 532.97852 456.14844 C 532.97852 460.95944 529.06295 464.875 524.25195 464.875 L 472.11523 464.875 C 467.30423 464.875 463.38672 460.95944 463.38672 456.14844 L 463.38672 404.01172 C 463.38672 399.20172 467.30423 395.2832 472.11523 395.2832 z M 216.74023 400.38867 L 351.60742 400.38867 C 356.41842 400.38867 360.33398 404.30619 360.33398 409.11719 L 360.33398 452.18359 L 360.33203 452.18359 C 360.33203 456.99459 356.41647 460.91016 351.60547 460.91016 L 216.74023 460.91016 C 211.93023 460.91016 208.01367 456.99459 208.01367 452.18359 L 208.01367 409.11719 C 208.01367 404.30619 211.93023 400.38867 216.74023 400.38867 z M 390.51758 401.41016 C 389.07958 401.41016 387.91016 402.57958 387.91016 404.01758 L 387.91016 456.1543 C 387.91016 457.5873 389.07958 458.76172 390.51758 458.76172 L 442.65234 458.76172 C 444.09034 458.76172 445.25977 457.5923 445.25977 456.1543 L 445.25977 404.01758 C 445.25477 402.57958 444.08534 401.41016 442.65234 401.41016 L 390.51758 401.41016 z M 472.11523 401.41016 C 470.67723 401.41016 469.50781 402.57958 469.50781 404.01758 L 469.50781 456.1543 C 469.50781 457.5873 470.67723 458.76172 472.11523 458.76172 L 524.25195 458.76172 C 525.68995 458.76172 526.85742 457.5923 526.85742 456.1543 L 526.85742 404.01758 C 526.85742 402.57958 525.68995 401.41016 524.25195 401.41016 L 472.11523 401.41016 z M 416.58203 404.53711 C 430.66403 404.53711 442.12109 415.99417 442.12109 430.07617 C 442.12109 444.15817 430.66403 455.61523 416.58203 455.61523 C 402.50003 455.61523 391.04492 444.15817 391.04492 430.07617 C 391.04492 415.99417 402.50003 404.53711 416.58203 404.53711 z M 498.1875 404.53711 C 512.2695 404.53711 523.72461 415.99417 523.72461 430.07617 C 523.72461 444.15817 512.2695 455.61523 498.1875 455.61523 C 484.1055 455.61523 472.64844 444.15817 472.64844 430.07617 C 472.64844 415.99417 484.1055 404.53711 498.1875 404.53711 z M 216.74023 406.50977 C 215.30223 406.50977 214.13281 407.67723 214.13281 409.11523 L 214.13281 452.18164 C 214.13281 453.61364 215.30223 454.78906 216.74023 454.78906 L 351.60742 454.78906 C 353.04542 454.78906 354.21289 453.61964 354.21289 452.18164 L 354.21289 409.11523 C 354.21289 407.67723 353.04347 406.50977 351.60547 406.50977 L 216.74023 406.50977 z M 416.58203 410.66406 C 405.87203 410.66406 397.16211 419.37203 397.16211 430.08203 C 397.16211 440.79203 405.87203 449.50195 416.58203 449.50195 C 427.29203 449.50195 436.00195 440.79203 436.00195 430.08203 C 436.00195 419.37203 427.29203 410.66406 416.58203 410.66406 z M 498.1875 410.66406 C 487.4775 410.66406 478.76758 419.37203 478.76758 430.08203 C 478.76758 440.79203 487.4775 449.50195 498.1875 449.50195 C 508.8975 449.50195 517.60547 440.79203 517.60547 430.08203 C 517.60547 419.37203 508.8915 410.66406 498.1875 410.66406 z M 239.9707 416.82617 L 265.47266 416.82617 C 272.78566 416.82617 278.73437 422.77503 278.73438 430.08203 C 278.73438 437.39503 272.78666 443.3457 265.47266 443.3457 L 239.9707 443.3457 C 232.6577 443.3457 226.70898 437.39603 226.70898 430.08203 C 226.70898 422.77503 232.6577 416.82617 239.9707 416.82617 z M 303.44141 416.82617 L 328.94336 416.82617 C 336.25536 416.82617 342.20508 422.77503 342.20508 430.08203 C 342.19908 437.39503 336.25036 443.3457 328.94336 443.3457 L 303.44141 443.3457 C 296.12841 443.3457 290.17969 437.39603 290.17969 430.08203 C 290.17969 422.77503 296.12841 416.82617 303.44141 416.82617 z M 239.9707 422.94727 C 236.0357 422.94727 232.82813 426.14703 232.82812 430.08203 C 232.82812 434.02303 236.0297 437.22656 239.9707 437.22656 L 265.47266 437.22656 C 269.41366 437.22656 272.61523 434.02403 272.61523 430.08203 C 272.61523 426.14703 269.40866 422.94727 265.47266 422.94727 L 239.9707 422.94727 z M 303.44141 422.94727 C 299.50141 422.94727 296.29883 426.14703 296.29883 430.08203 C 296.29883 434.02303 299.50041 437.22656 303.44141 437.22656 L 328.94336 437.22656 C 332.87836 437.22656 336.08594 434.02403 336.08594 430.08203 C 336.07994 426.14703 332.87836 422.94727 328.94336 422.94727 L 303.44141 422.94727 z M 216.74023 468.84766 C 215.30223 468.84766 214.13281 470.01612 214.13281 471.45312 L 214.13281 481.61328 L 354.21289 481.61328 L 354.21289 471.45312 C 354.21289 470.01612 353.04347 468.84766 351.60547 468.84766 L 216.74023 468.84766 z "
           id="path41" /></g></g></g><g
     id="g43" /><g
     id="g45" /><g
     id="g47" /><g
     id="g49" /><g
     id="g51" /><g
     id="g53" /><g
     id="g55" /><g
     id="g57" /><g
     id="g59" /><g
     id="g61" /><g
     id="g63" /><g
     id="g65" /><g
     id="g67" /><g
     id="g69" /><g
     id="g71" /><path
     style="fill:none;stroke:#ff0000"
     d="M 12.240234 265.63281 C 5.4782344 265.63281 -1.1842379e-015 271.10909 0 277.87109 L 0 481.42969 C 0 488.19269 5.4782344 493.66992 12.240234 493.66992 L 582.92969 493.66992 C 589.69269 493.66992 595.16992 488.19169 595.16992 481.42969 L 595.16992 277.87109 C 595.16992 271.10809 589.69169 265.63281 582.92969 265.63281 L 200.44727 265.63281 L 175.02539 265.63281 L 12.240234 265.63281 z "
     id="path4223" /></svg>