<?xml version="1.0" encoding="UTF-8" standalone="no"?>
<svg
   xmlns:dc="http://purl.org/dc/elements/1.1/"
   xmlns:cc="http://creativecommons.org/ns#"
   xmlns:rdf="http://www.w3.org/1999/02/22-rdf-syntax-ns#"
   xmlns:svg="http://www.w3.org/2000/svg"
   xmlns="http://www.w3.org/2000/svg"
   xmlns:sodipodi="http://sodipodi.sourceforge.net/DTD/sodipodi-0.dtd"
   xmlns:inkscape="http://www.inkscape.org/namespaces/inkscape"
   version="1.0"
   width="1105.000000pt"
   height="2211.000000pt"
   viewBox="0 0 1105.000000 2211.000000"
   preserveAspectRatio="xMidYMid meet"
   id="svg2"
   inkscape:version="0.91 r13725"
   sodipodi:docname="tardis_1.svg">
  <defs
     id="defs28" />
  <sodipodi:namedview
     pagecolor="#ffffff"
     bordercolor="#666666"
     borderopacity="1"
     objecttolerance="10"
     gridtolerance="10"
     guidetolerance="10"
     inkscape:pageopacity="0"
     inkscape:pageshadow="2"
     inkscape:window-width="1366"
     inkscape:window-height="716"
     id="namedview26"
     showgrid="false"
     inkscape:zoom="0.24152286"
     inkscape:cx="531.89496"
     inkscape:cy="1734.4406"
     inkscape:window-x="-8"
     inkscape:window-y="-8"
     inkscape:window-maximized="1"
     inkscape:current-layer="svg2" />
  <metadata
     id="metadata4">
Created by potrace 1.11, written by Peter Selinger 2001-2013
<rdf:RDF>
  <cc:Work
     rdf:about="">
    <dc:format>image/svg+xml</dc:format>
    <dc:type
       rdf:resource="http://purl.org/dc/dcmitype/StillImage" />
    <dc:title></dc:title>
  </cc:Work>
</rdf:RDF>
</metadata>
  <path
     style="fill:#000000;stroke:none"
     d="M 684.89453 0 C 684.64453 0 667.64453 13.875 647.14453 30.875 L 609.89453 61.875 L 618.26953 62.25 L 626.64453 62.625 L 626.64453 132.5 L 626.64453 202.5 L 636.01953 202.5 L 645.39453 202.5 L 645.39453 214.375 L 645.39453 226.125 L 627.01953 226.5 L 608.51953 226.875 L 608.14453 247.75 L 607.89453 268.75 L 389.14453 268.75 L 170.39453 268.75 L 170.39453 305.625 L 170.39453 342.5 L 139.76953 342.5 L 109.14453 342.5 L 109.14453 382.5 L 109.14453 422.5 L 79.769531 422.5 L 50.394531 422.5 L 50.394531 442.5 L 50.394531 462.5 L 32.269531 462.5 L 14.144531 462.5 L 14.144531 536.875 L 14.144531 611.25 L 32.269531 611.25 L 50.394531 611.25 L 50.394531 1612.5 L 50.394531 2613.75 L 39.769531 2613.75 L 29.144531 2613.75 L 29.144531 2625 L 29.144531 2636.25 L 11.644531 2636.25 L -5.8554688 2636.25 L -5.8554688 2699.125 L -5.8554688 2762.125 L 36.394531 2762.875 C 91.394531 2764 1278.1445 2764 1333.2695 2762.875 L 1375.3945 2762.125 L 1375.3945 2699.125 L 1375.3945 2636.25 L 1357.8945 2636.25 L 1340.3945 2636.25 L 1340.3945 2625 L 1340.3945 2613.75 L 1329.7695 2613.75 L 1319.1445 2613.75 L 1319.1445 1612.5 L 1319.1445 611.25 L 1337.2695 611.25 L 1355.3945 611.25 L 1355.3945 536.875 L 1355.3945 462.5 L 1337.2695 462.5 L 1319.1445 462.5 L 1319.1445 442.5 L 1319.1445 422.5 L 1289.7695 422.5 L 1260.3945 422.5 L 1260.3945 382.5 L 1260.3945 342.5 L 1229.7695 342.5 L 1199.1445 342.5 L 1199.1445 305.625 L 1199.1445 268.75 L 980.39453 268.75 L 761.64453 268.75 L 761.39453 247.75 L 761.01953 226.875 L 742.64453 226.5 L 724.14453 226.125 L 724.14453 214.375 L 724.14453 202.5 L 733.51953 202.5 L 742.89453 202.5 L 742.89453 132.5 L 742.89453 62.5 L 752.39453 62.5 L 761.89453 62.5 L 723.64453 31.25 C 702.51953 14 685.14453 0 684.89453 0 z M 639.14453 61.25 L 685.39453 61.25 L 731.64453 61.25 L 731.64453 124.375 L 731.64453 187.5 L 685.39453 187.5 L 639.14453 187.5 L 639.14453 124.375 L 639.14453 61.25 z M 111.64453 483.75 L 684.76953 483.75 L 1257.8945 483.75 L 1257.8945 534.375 L 1257.8945 585 L 684.76953 585 L 111.64453 585 L 111.64453 534.375 L 111.64453 483.75 z M 152.89453 630 L 684.76953 630 L 1216.6445 630 L 1216.6445 1633.125 L 1216.6445 2636.25 L 684.76953 2636.25 L 152.89453 2636.25 L 152.89453 1633.125 L 152.89453 630 z M 162.89453 640 L 162.89453 1633.75 L 162.89453 2627.5 L 420.76953 2627.25 L 678.51953 2626.875 L 678.51953 1633.75 L 678.51953 640.625 L 420.76953 640.25 L 162.89453 640 z M 691.64453 640 L 691.64453 1633.75 L 691.64453 2627.5 L 949.51953 2627.25 L 1207.2695 2626.875 L 1207.2695 1633.75 L 1207.2695 640.625 L 949.51953 640.25 L 691.64453 640 z M 754.14453 676.25 L 814.14453 676.25 L 874.14453 676.25 L 874.14453 777.5 L 874.14453 878.75 L 814.14453 878.75 L 754.14453 878.75 L 754.14453 777.5 L 754.14453 676.25 z M 895.39453 676.25 L 954.76953 676.25 L 1014.1445 676.25 L 1014.1445 777.5 L 1014.1445 878.75 L 954.76953 878.75 L 895.39453 878.75 L 895.39453 777.5 L 895.39453 676.25 z M 1036.6445 676.25 L 1096.6445 676.25 L 1156.6445 676.25 L 1156.6445 777.5 L 1156.6445 878.75 L 1096.6445 878.75 L 1036.6445 878.75 L 1036.6445 777.5 L 1036.6445 676.25 z M 220.39453 678.75 L 279.76953 678.75 L 339.14453 678.75 L 339.14453 780 L 339.14453 881.25 L 279.76953 881.25 L 220.39453 881.25 L 220.39453 780 L 220.39453 678.75 z M 360.39453 678.75 L 419.76953 678.75 L 479.14453 678.75 L 479.14453 780 L 479.14453 881.25 L 419.76953 881.25 L 360.39453 881.25 L 360.39453 780 L 360.39453 678.75 z M 502.89453 678.75 L 562.26953 678.75 L 621.64453 678.75 L 621.64453 780 L 621.64453 881.25 L 562.26953 881.25 L 502.89453 881.25 L 502.89453 780 L 502.89453 678.75 z M 754.14453 895 L 814.14453 895 L 874.14453 895 L 874.14453 996.25 L 874.14453 1097.5 L 814.14453 1097.5 L 754.14453 1097.5 L 754.14453 996.25 L 754.14453 895 z M 895.39453 895 L 954.76953 895 L 1014.1445 895 L 1014.1445 996.25 L 1014.1445 1097.5 L 954.76953 1097.5 L 895.39453 1097.5 L 895.39453 996.25 L 895.39453 895 z M 1036.6445 895 L 1096.6445 895 L 1156.6445 895 L 1156.6445 996.25 L 1156.6445 1097.5 L 1096.6445 1097.5 L 1036.6445 1097.5 L 1036.6445 996.25 L 1036.6445 895 z M 220.39453 897.5 L 279.76953 897.5 L 339.14453 897.5 L 339.14453 998.75 L 339.14453 1100 L 279.76953 1100 L 220.39453 1100 L 220.39453 998.75 L 220.39453 897.5 z M 360.39453 897.5 L 419.76953 897.5 L 479.14453 897.5 L 479.14453 998.75 L 479.14453 1100 L 419.76953 1100 L 360.39453 1100 L 360.39453 998.75 L 360.39453 897.5 z M 502.89453 897.5 L 562.26953 897.5 L 621.64453 897.5 L 621.64453 998.75 L 621.64453 1100 L 562.26953 1100 L 502.89453 1100 L 502.89453 998.75 L 502.89453 897.5 z M 214.14453 1137.5 L 419.76953 1137.5 L 625.39453 1137.5 L 625.39453 1358.125 L 625.39453 1578.75 L 419.76953 1578.75 L 214.14453 1578.75 L 214.14453 1358.125 L 214.14453 1137.5 z M 749.14453 1137.5 L 954.14453 1137.5 L 1159.1445 1137.5 L 1159.1445 1358.125 L 1159.1445 1578.75 L 954.14453 1578.75 L 749.14453 1578.75 L 749.14453 1358.125 L 749.14453 1137.5 z M 420.64453 1146.25 C 313.51953 1146.25 225.39453 1146.625 225.01953 1147.125 C 224.51953 1147.5 224.14453 1242.625 224.14453 1358.375 L 224.14453 1568.75 L 419.76953 1568.75 L 615.39453 1568.75 L 615.39453 1357.5 L 615.39453 1146.25 L 420.64453 1146.25 z M 954.39453 1146.25 C 847.26953 1146.25 759.14453 1146.625 758.76953 1147.125 C 758.26953 1147.5 757.89453 1242.625 757.89453 1358.375 L 757.89453 1568.75 L 953.51953 1568.75 L 1149.1445 1568.75 L 1149.1445 1357.5 L 1149.1445 1146.25 L 954.39453 1146.25 z M 257.89453 1191.25 L 394.76953 1191.25 L 531.64453 1191.25 L 531.64453 1357.5 L 531.64453 1523.75 L 394.76953 1523.75 L 257.89453 1523.75 L 257.89453 1357.5 L 257.89453 1191.25 z M 214.14453 1617.5 L 419.76953 1617.5 L 625.39453 1617.5 L 625.39453 1838.75 L 625.39453 2060 L 419.76953 2060 L 214.14453 2060 L 214.14453 1838.75 L 214.14453 1617.5 z M 749.14453 1617.5 L 954.14453 1617.5 L 1159.1445 1617.5 L 1159.1445 1838.75 L 1159.1445 2060 L 954.14453 2060 L 749.14453 2060 L 749.14453 1838.75 L 749.14453 1617.5 z M 420.64453 1627.5 C 313.51953 1627.5 225.39453 1627.875 225.01953 1628.375 C 224.51953 1628.75 224.14453 1723.875 224.14453 1839.625 L 224.14453 2050 L 419.76953 2050 L 615.39453 2050 L 615.39453 1838.75 L 615.39453 1627.5 L 420.64453 1627.5 z M 954.39453 1627.5 C 847.26953 1627.5 759.14453 1627.875 758.76953 1628.375 C 758.26953 1628.75 757.89453 1723.875 757.89453 1839.625 L 757.89453 2050 L 953.51953 2050 L 1149.1445 2050 L 1149.1445 1838.75 L 1149.1445 1627.5 L 954.39453 1627.5 z M 214.14453 2100 L 419.76953 2100 L 625.39453 2100 L 625.39453 2321.25 L 625.39453 2542.5 L 419.76953 2542.5 L 214.14453 2542.5 L 214.14453 2321.25 L 214.14453 2100 z M 749.14453 2100 L 954.14453 2100 L 1159.1445 2100 L 1159.1445 2321.25 L 1159.1445 2542.5 L 954.14453 2542.5 L 749.14453 2542.5 L 749.14453 2321.25 L 749.14453 2100 z M 420.64453 2110 C 313.51953 2110 225.39453 2110.375 225.01953 2110.875 C 224.51953 2111.25 224.14453 2206.375 224.14453 2322.125 L 224.14453 2532.5 L 419.76953 2532.5 L 615.39453 2532.5 L 615.39453 2321.25 L 615.39453 2110 L 420.64453 2110 z M 954.39453 2110 C 847.26953 2110 759.14453 2110.375 758.76953 2110.875 C 758.26953 2111.25 757.89453 2206.375 757.89453 2322.125 L 757.89453 2532.5 L 953.51953 2532.5 L 1149.1445 2532.5 L 1149.1445 2321.25 L 1149.1445 2110 L 954.39453 2110 z "
     transform="scale(0.8,0.8)"
     id="path24" />
  <path
     style="fill:none;stroke:#ff0000;stroke-width:1"
     d="M 684.89453 -0.001953125 C 684.64453 -0.001953125 667.64453 13.873047 647.14453 30.873047 L 609.89453 61.873047 L 618.26953 62.248047 L 626.64453 62.623047 L 626.64453 132.49805 L 626.64453 202.49805 L 636.01953 202.49805 L 645.39453 202.49805 L 645.39453 214.37305 L 645.39453 226.12305 L 627.01953 226.49805 L 608.51953 226.87305 L 608.14453 247.74805 L 607.89453 268.74805 L 389.14453 268.74805 L 170.39453 268.74805 L 170.39453 305.62305 L 170.39453 342.49805 L 139.76953 342.49805 L 109.14453 342.49805 L 109.14453 382.49805 L 109.14453 422.49805 L 79.769531 422.49805 L 50.394531 422.49805 L 50.394531 442.49805 L 50.394531 462.49805 L 32.269531 462.49805 L 14.144531 462.49805 L 14.144531 536.87305 L 14.144531 611.24805 L 32.269531 611.24805 L 50.394531 611.24805 L 50.394531 1612.498 L 50.394531 2613.748 L 39.769531 2613.748 L 29.144531 2613.748 L 29.144531 2624.998 L 29.144531 2636.248 L 11.644531 2636.248 L -5.8554688 2636.248 L -5.8554688 2699.123 L -5.8554688 2762.123 L 36.394531 2762.873 C 91.394531 2763.998 1278.1445 2763.998 1333.2695 2762.873 L 1375.3945 2762.123 L 1375.3945 2699.123 L 1375.3945 2636.248 L 1357.8945 2636.248 L 1340.3945 2636.248 L 1340.3945 2624.998 L 1340.3945 2613.748 L 1329.7695 2613.748 L 1319.1445 2613.748 L 1319.1445 1612.498 L 1319.1445 611.24805 L 1337.2695 611.24805 L 1355.3945 611.24805 L 1355.3945 536.87305 L 1355.3945 462.49805 L 1337.2695 462.49805 L 1319.1445 462.49805 L 1319.1445 442.49805 L 1319.1445 422.49805 L 1289.7695 422.49805 L 1260.3945 422.49805 L 1260.3945 382.49805 L 1260.3945 342.49805 L 1229.7695 342.49805 L 1199.1445 342.49805 L 1199.1445 305.62305 L 1199.1445 268.74805 L 980.39453 268.74805 L 761.64453 268.74805 L 761.39453 247.74805 L 761.01953 226.87305 L 742.64453 226.49805 L 724.14453 226.12305 L 724.14453 214.37305 L 724.14453 202.49805 L 733.51953 202.49805 L 742.89453 202.49805 L 742.89453 132.49805 L 742.89453 62.498047 L 752.39453 62.498047 L 761.89453 62.498047 L 723.64453 31.248047 C 702.51953 13.998047 685.14453 -0.001953125 684.89453 -0.001953125 z "
     transform="scale(0.8,0.8)"
     id="path4187" />
</svg>
