<?xml version="1.0" encoding="UTF-8" standalone="no"?>
<!-- Created with Inkscape (http://www.inkscape.org/) -->

<svg
   xmlns:dc="http://purl.org/dc/elements/1.1/"
   xmlns:cc="http://creativecommons.org/ns#"
   xmlns:rdf="http://www.w3.org/1999/02/22-rdf-syntax-ns#"
   xmlns:svg="http://www.w3.org/2000/svg"
   xmlns="http://www.w3.org/2000/svg"
   xmlns:sodipodi="http://sodipodi.sourceforge.net/DTD/sodipodi-0.dtd"
   xmlns:inkscape="http://www.inkscape.org/namespaces/inkscape"
   width="400mm"
   height="297mm"
   viewBox="0 0 1417.3228 1052.3622"
   id="svg2"
   version="1.1"
   inkscape:version="0.91 r13725"
   sodipodi:docname="scirocco_chei.svg">
  <defs
     id="defs4" />
  <sodipodi:namedview
     id="base"
     pagecolor="#ffffff"
     bordercolor="#666666"
     borderopacity="1.0"
     inkscape:pageopacity="0.0"
     inkscape:pageshadow="2"
     inkscape:zoom="0.98994949"
     inkscape:cx="566.93742"
     inkscape:cy="278.38734"
     inkscape:document-units="mm"
     inkscape:current-layer="layer1"
     showgrid="false"
     inkscape:window-width="1440"
     inkscape:window-height="837"
     inkscape:window-x="-4"
     inkscape:window-y="-4"
     inkscape:window-maximized="1" />
  <metadata
     id="metadata7">
    <rdf:RDF>
      <cc:Work
         rdf:about="">
        <dc:format>image/svg+xml</dc:format>
        <dc:type
           rdf:resource="http://purl.org/dc/dcmitype/StillImage" />
        <dc:title></dc:title>
      </cc:Work>
    </rdf:RDF>
  </metadata>
  <g
     inkscape:label="Layer 1"
     inkscape:groupmode="layer"
     id="layer1">
    <path
       style="fill:#000000"
       d="M 887.33008 529.57812 C 886.94604 529.52323 886.43068 529.69473 885.70703 530.08203 C 884.64663 530.64953 884.04429 531.5401 884.36719 532.0625 C 885.70019 534.2193 889.06512 532.77649 888.16602 530.43359 C 887.96672 529.91419 887.71412 529.63312 887.33008 529.57812 z M 784.23438 530.01953 C 763.43112 529.99993 747.12705 530.39574 745.7793 531.33984 C 744.0029 532.58404 750.82236 532.79234 799.03906 532.96484 C 865.49836 533.20254 868.77627 533.35469 885.69727 536.99609 C 890.44797 538.01849 895.12344 539.16392 896.08594 539.54102 C 897.04844 539.91822 897.83594 539.78851 897.83594 539.25391 C 897.83594 537.84771 886.63374 534.42102 877.33594 532.98242 C 866.07675 531.24042 818.90647 530.05253 784.23438 530.01953 z M 733.71875 530.1543 C 715.23869 530.1825 677.2558 531.2444 675.85938 532.0625 C 674.14478 533.0675 681.74709 533.05327 718.62109 531.98438 C 731.97763 531.59717 743.22759 530.93688 743.62109 530.51758 C 743.87241 530.24928 739.87878 530.1443 733.71875 530.1543 z M 664.46289 531.96289 C 651.31448 532.04159 625.15712 536.47387 626.10547 539.32227 C 626.70177 541.11267 629.00137 541.14063 632.19727 539.39453 C 635.47707 537.60263 648.77434 535.48981 663.33594 534.44531 C 671.51154 533.85881 672.90794 533.53673 670.99414 532.67773 C 669.83858 532.15903 667.49713 531.94489 664.46289 531.96289 z M 776.06055 535.51172 C 730.18783 535.49692 682.15353 535.90474 667.33008 536.74414 C 638.54918 538.37384 635.66997 539.28179 611.63477 554.30469 C 604.31707 558.87849 587.08008 569.48746 573.33008 577.88086 C 559.58008 586.27416 542.25508 597.01761 534.83008 601.75391 C 523.07148 609.25471 517.51068 612.5809 503.33008 620.5957 L 500.33008 622.29102 L 505.83008 623.60742 C 513.35098 625.40892 513.42899 625.39711 514.80859 622.06641 C 515.59929 620.15751 518.98435 617.11286 524.43555 613.41016 C 529.06035 610.26886 533.34744 607.09262 533.96094 606.35352 C 534.57444 605.61432 535.65814 605.00977 536.36914 605.00977 C 537.08024 605.00977 554.68699 594.15462 575.49609 580.88672 C 614.51929 556.00562 627.07308 548.57155 634.83008 545.75195 C 648.62778 540.73655 672.25064 539.69419 773.83008 539.61719 C 837.08478 539.56929 862.40558 539.87722 868.05078 540.76562 C 879.90818 542.63193 894.70369 547.84609 930.33008 562.71289 C 950.07058 570.95049 1007.8818 599.10488 1009.7539 601.39258 C 1013.5129 605.98628 1011.6867 618.41113 1006.875 620.98633 C 1004.8954 622.04573 966.50848 624.43054 934.33008 625.49414 C 924.43009 625.82144 905.08008 626.51887 891.33008 627.04297 C 877.58008 627.56717 849.68008 628.44544 829.33008 628.99414 C 808.98008 629.54294 789.00249 630.26491 784.93359 630.59961 L 777.53516 631.20898 L 778.17773 642.35938 C 778.53113 648.49237 778.82617 655.65564 778.82617 658.27734 L 778.83594 663.04297 L 830.125 662.99219 C 871.1116 662.95139 881.93562 662.67075 884.01172 661.59375 C 885.44052 660.85245 888.95597 659.46762 891.82227 658.51562 C 914.72797 650.90753 941.42211 651.48 959.56641 659.9707 L 959.5625 659.9707 C 964.2708 662.174 967.36151 662.98816 970.25781 662.78906 C 972.49821 662.63496 986.70508 662.23243 1001.8301 661.89453 C 1016.9551 661.55663 1030.1017 661.21953 1031.043 661.14453 C 1032.1736 661.05493 1033.1236 659.56737 1033.8457 656.75977 C 1036.3056 647.19437 1040.0049 637.19889 1041.7969 635.27539 C 1043.2718 633.69229 1045.5377 633.06612 1051.8008 632.51172 C 1061.1449 631.68462 1060.8833 632.66277 1055.1387 620.00977 C 1049.7494 608.13947 1045.3194 604.35695 1025.3301 594.56055 C 1015.9801 589.97825 999.78008 582.55561 989.33008 578.06641 C 978.88008 573.57711 969.43008 569.49855 968.33008 569.00195 C 960.85798 565.62895 948.93837 561.0478 924.83008 552.2832 C 892.98278 540.705 886.54542 538.82645 871.82422 536.81055 C 865.64472 535.96445 821.93327 535.52672 776.06055 535.51172 z M 623.80469 540.01367 C 623.23749 540.01367 622.52305 540.66228 622.21875 541.45508 C 621.91416 542.24788 621.81795 543.62427 622.00195 544.51367 C 622.27065 545.81207 622.58224 545.88169 623.58594 544.87109 C 625.09484 543.35179 625.24519 540.01367 623.80469 540.01367 z M 752.14844 540.87695 C 736.51281 540.90945 708.46867 541.23563 699.83594 541.55273 C 645.55874 543.54633 639.47833 544.41763 624.95703 552.26953 C 618.92973 555.52863 551.73448 597.83773 543.36328 603.64453 C 541.99108 604.59633 541.83898 604.99131 542.86328 604.94531 C 543.67318 604.90871 555.81094 597.45802 569.83594 588.38672 C 594.43604 572.47542 602.66194 567.39962 613.33594 561.54492 C 616.08594 560.03662 621.03594 557.30215 624.33594 555.46875 C 636.54634 548.68475 644.11434 547.00127 666.83594 546.01367 C 678.11094 545.52357 704.73119 545.09641 725.99219 545.06641 C 764.1435 545.01251 764.6412 544.98552 764.125 543.01172 C 763.8374 541.91172 763.09205 540.98513 762.46875 540.95312 C 761.19283 540.88712 757.36032 540.86595 752.14844 540.87695 z M 778.58594 541.01172 C 766.87094 541.01282 765.83594 541.16222 765.83594 542.85352 C 765.83594 544.58322 767.56934 544.73421 794.58594 545.34961 C 834.92264 546.26841 868.58578 547.80051 876.95898 549.09961 C 880.87648 549.70741 886.57163 551.06218 889.61523 552.10938 C 892.65893 553.15657 895.3776 554.01172 895.6582 554.01172 C 896.9852 554.01172 894.53317 552.86745 884.85547 548.96875 C 877.85997 546.15055 871.87557 544.47222 866.85547 543.91992 C 858.42997 542.99302 798.23584 541.01172 778.58594 541.01172 z M 619.31445 542.5957 C 618.78987 542.6514 617.7131 543.22457 615.6582 544.35938 C 613.281 545.67227 605.71094 549.79935 598.83594 553.53125 C 585.55864 560.73835 549.34678 580.92961 518.95898 598.07031 C 503.61678 606.72431 500.97538 608.53729 502.95898 609.05859 C 511.18948 611.22169 508.09964 612.74436 565.33594 578.34766 C 603.88644 555.18036 619.4282 545.33449 619.6582 543.93359 C 619.8114 543.00079 619.83902 542.5397 619.31445 542.5957 z M 758.92969 547.01172 C 758.43119 547.01172 758.25918 547.91172 758.54688 549.01172 C 758.83448 550.11172 759.24233 551.01172 759.45312 551.01172 C 759.66402 551.01172 759.83594 550.11172 759.83594 549.01172 C 759.83594 547.91172 759.42819 547.01172 758.92969 547.01172 z M 788.79688 547.01172 L 789.49609 549.76172 C 789.87999 551.27422 791.18985 556.56172 792.40625 561.51172 C 794.86095 571.50112 795.63579 571.73702 793.43359 561.82422 C 792.66229 558.35262 791.74503 553.83837 791.39453 551.79297 L 790.75586 548.07422 L 803.04688 547.75977 L 815.33594 547.44531 L 802.06641 547.22852 L 788.79688 547.01172 z M 763.07812 547.99609 C 762.37874 547.93119 761.83984 548.63747 761.83984 550.25977 C 761.84164 551.49727 762.49372 556.33477 763.29102 561.00977 C 764.08842 565.68477 765.67747 579.40977 766.82227 591.50977 C 767.96717 603.60977 769.14581 615.87227 769.44141 618.75977 C 769.93431 623.57367 770.19103 624.00977 772.51953 624.00977 C 774.83063 624.00977 775.00871 623.71767 774.50781 620.75977 C 774.20521 618.97227 773.44175 611.65977 772.81055 604.50977 C 771.43865 588.97087 767.16932 557.02247 765.76172 551.75977 C 765.14061 549.43757 763.97732 548.07909 763.07812 547.99609 z M 777.04492 548.00977 C 767.32433 548.00977 766.73804 548.12482 767.30664 549.91602 C 769.24054 556.00922 775.67613 609.69977 775.79883 620.75977 L 775.83594 624.00977 L 783.08594 623.81836 C 787.07344 623.71236 793.13218 623.46628 796.55078 623.27148 C 802.69098 622.92158 802.76146 622.88329 802.28906 620.21289 C 797.87396 595.25499 795.38412 582.16007 793.88672 576.00977 C 792.88242 571.88477 791.01116 563.89727 789.72656 558.25977 L 787.39062 548.00977 L 777.04492 548.00977 z M 831.92773 548.125 L 831.92773 548.12695 C 829.75273 548.12715 827.61738 548.17834 826.04688 548.27734 C 822.90597 548.47514 825.73594 548.63477 832.33594 548.63477 C 838.93594 548.63277 841.50598 548.47119 838.04688 548.27539 C 836.31738 548.17599 834.10273 548.1248 831.92773 548.125 z M 651.83594 548.14453 C 651.38282 548.14453 650.92969 548.21472 650.58594 548.35352 C 649.89844 548.63092 650.46094 548.85742 651.83594 548.85742 C 653.21094 548.85742 653.77344 548.63092 653.08594 548.35352 C 652.74219 548.21452 652.28907 548.14453 651.83594 548.14453 z M 717.08594 549.01562 C 667.47994 549.01992 647.56245 550.09952 638.68555 553.26562 L 632.38672 555.51172 L 623.10352 587.51172 C 617.99732 605.11172 613.54233 620.74922 613.20312 622.26172 L 612.58594 625.01172 L 639.46094 624.81641 C 661.88974 624.65461 731.91386 623.6782 758.53906 623.1543 L 765.74219 623.01172 L 765.29883 618.26172 C 765.05503 615.64922 764.18398 606.98672 763.36328 599.01172 C 762.54258 591.03672 761.60229 581.58672 761.27539 578.01172 C 760.94839 574.43672 760.04041 567.04338 759.25781 561.58398 C 758.47531 556.12468 757.83594 551.06218 757.83594 550.33398 C 757.83594 549.25718 750.23368 549.01562 717.08594 549.01562 z M 853.94531 549.12109 C 852.49531 549.12269 851.08254 549.1757 850.05859 549.2832 C 848.01059 549.4981 849.93594 549.66602 854.33594 549.66602 C 858.73594 549.66232 860.41059 549.48659 858.05859 549.27539 C 856.88254 549.17109 855.39531 549.125 853.94531 549.125 L 853.94531 549.12109 z M 891.26367 549.25391 C 891.06207 549.45541 895.04649 551.36871 900.11719 553.50781 C 938.21868 569.58101 1001.7134 600.36463 1005.5859 604.64062 C 1008.1906 607.51672 1008.4635 611.57462 1006.3867 616.54492 C 1004.6515 620.69782 1004.991 620.90391 1007.7637 617.37891 C 1010.1917 614.29221 1010.5932 605.59531 1008.4395 602.75781 C 1007.7068 601.79251 996.35996 595.7846 983.22266 589.4043 C 942.28406 569.522 944.42451 570.48309 907.48242 555.37109 C 898.76332 551.80439 891.46517 549.05231 891.26367 549.25391 z M 799.63867 550.02539 C 795.39936 550.04769 792.83594 550.16319 792.83594 550.40039 C 792.83594 550.61279 794.65085 559.50029 796.86914 570.15039 C 802.99675 599.56919 805.66288 613.03512 806.39648 618.26562 C 806.96478 622.31693 807.37702 622.99152 809.19922 622.85352 C 814.69722 622.43712 900.28375 619.16141 962.83594 616.97461 C 980.16094 616.36891 995.28617 615.4942 996.44727 615.0293 C 997.60847 614.5645 998.80768 613.22709 999.11328 612.05859 C 999.55308 610.37649 998.80095 609.3811 995.50195 607.2793 C 984.55995 600.308 911.75068 564.98162 892.98828 557.54102 C 887.84758 555.50242 880.67172 553.41459 877.04102 552.90039 C 867.85693 551.59979 818.00901 549.92839 799.63867 550.02539 z M 871.91797 550.13672 C 871.57057 550.15112 871.27357 550.2421 871.10742 550.4082 C 870.77512 550.7405 871.36582 550.97659 872.41992 550.93359 C 873.58492 550.88559 873.82114 550.65123 873.02344 550.33203 C 872.66249 550.18763 872.26537 550.12272 871.91797 550.13672 z M 931.04492 552.45703 C 930.53438 552.49403 934.6449 554.1204 944.06445 557.5332 C 954.57165 561.3401 977.41934 570.77792 998.33594 579.95312 C 1007.2565 583.86613 1030.5393 594.91422 1035.6113 597.64062 C 1039.0626 599.49572 1042.2126 600.93389 1042.6113 600.83789 C 1043.01 600.74189 1046.0359 598.01022 1049.3359 594.76562 C 1052.6359 591.52112 1057.4675 587.8423 1060.0723 586.5918 C 1062.6771 585.3412 1064.5133 584.02502 1064.1543 583.66602 C 1063.7954 583.30712 1060.5408 583.01391 1056.9199 583.00391 C 1046.9497 582.98821 1028.5449 581.1943 1016.8184 579.0957 C 1009.8775 577.8535 993.69488 572.96038 968.92188 564.61328 C 945.582 556.74898 931.89582 552.39503 931.04492 552.45703 z M 760.36914 552.47656 C 760.30885 552.49906 760.24313 552.59187 760.17383 552.76367 C 759.89643 553.45117 759.89643 554.57617 760.17383 555.26367 C 760.45123 555.95117 760.67773 555.38867 760.67773 554.01367 C 760.67773 552.98247 760.55002 552.40956 760.36914 552.47656 z M 629.75781 554.08594 C 628.92884 554.22393 627.86988 555.25473 628.26172 555.88867 C 628.51392 556.29677 625.41535 567.85196 621.37695 581.56836 C 610.38185 618.91366 608.67334 624.39171 607.58594 625.75781 C 606.85384 626.67771 607.15088 627.00781 608.71289 627.00781 C 609.97958 627.00781 610.83594 626.37169 610.83594 625.42969 C 610.83594 624.56159 612.89717 616.79909 615.41797 608.17969 C 626.03797 571.86549 630.8209 554.66085 630.4082 554.24805 C 630.32182 554.16195 630.21462 554.10894 630.0957 554.08594 C 629.99165 554.06549 629.87624 554.06622 629.75781 554.08594 z M 897.33594 554.08594 C 896.78594 554.08594 897.46094 554.72767 898.83594 555.51367 C 900.21094 556.29967 901.78594 556.94336 902.33594 556.94336 C 902.88594 556.94336 902.21094 556.29967 900.83594 555.51367 C 899.46094 554.72767 897.88594 554.08594 897.33594 554.08594 z M 906.42773 558.32031 L 906.42773 558.32227 C 906.29754 558.29627 906.21761 558.29627 906.19141 558.32227 C 905.98191 558.53177 909.07767 560.20301 913.07227 562.03711 C 920.31987 565.36491 943.29524 576.32955 960.33594 584.59375 C 965.28594 586.99435 972.48594 590.68572 976.33594 592.79492 C 980.18594 594.90402 987.27886 598.77825 992.09766 601.40625 C 1001.4456 606.50425 1003.2773 608.5477 1002.6055 613.125 C 1002.1208 616.4275 1003.2748 616.92757 1004.8008 614.07617 C 1006.2018 611.45847 1006.1051 607.73587 1004.5859 605.79688 C 1003.0664 603.85757 956.91034 580.61043 936.83594 571.67383 C 928.86094 568.12363 918.78813 563.58168 914.45312 561.58008 C 910.66 559.82868 907.33905 558.48801 906.42773 558.32031 z M 625.41016 559.39844 L 625.41016 559.40039 C 622.86244 559.89289 592.29048 578.46912 572.83594 591.39062 C 560.25404 599.74732 553.17376 605.00681 554.50586 605.00781 C 556.43766 605.00981 556.75265 605.72132 557.36914 611.47852 C 557.7501 615.03612 557.87719 619.53612 557.65039 621.47852 L 557.23828 625.00977 L 581.85742 625.00977 L 606.47656 625.00977 L 609.20117 616.25977 C 617.67727 589.05067 626.06776 559.9077 625.56836 559.4082 C 625.54582 559.3832 625.49236 559.38244 625.41016 559.39844 z M 762.19922 566.86719 C 762.09556 566.81549 762.02616 567.16237 762.00586 568.00977 C 761.97306 569.38477 762.5765 575.00977 763.3457 580.50977 L 764.74414 590.50977 L 764.19727 582.00977 C 763.7352 574.82447 762.64833 567.09089 762.19922 566.86719 z M 796.4707 576.35742 C 796.37975 576.37122 796.27204 576.52317 796.15234 576.82227 C 795.86356 577.54407 795.90012 578.40803 796.23242 578.74023 C 796.56472 579.07253 796.79886 578.48193 796.75586 577.42773 C 796.72593 576.69963 796.62227 576.33442 796.4707 576.35742 z M 798.4707 585.35742 C 798.37975 585.37122 798.27204 585.52317 798.15234 585.82227 C 797.86356 586.54407 797.90012 587.40803 798.23242 587.74023 C 798.56472 588.07253 798.79886 587.48193 798.75586 586.42773 C 798.72593 585.69963 798.62227 585.33442 798.4707 585.35742 z M 960.41797 586.46289 C 960.18619 586.50937 960.14665 586.70266 960.34375 587.02148 C 960.67975 587.56518 961.37703 588.00977 961.89453 588.00977 C 963.33303 588.00977 963.0156 587.29371 961.2832 586.62891 C 961.0607 586.54381 960.8702 586.4898 960.71289 586.4668 C 960.59491 586.4492 960.49523 586.4474 960.41797 586.46289 z M 1060.7109 588.2168 C 1060.6093 588.1687 1060.0951 588.41257 1059.1074 588.91797 C 1057.8813 589.54547 1054.2813 592.50635 1051.1074 595.49805 C 1047.9334 598.48975 1045.6675 600.95461 1046.0742 600.97461 C 1046.7226 601.00661 1055.6602 593.40127 1059.8359 589.26367 C 1060.5005 588.60517 1060.8124 588.2648 1060.7109 588.2168 z M 528.53125 589.09375 C 526.89319 589.07625 515.93293 595.80915 512.38477 599.12305 C 510.53527 600.85045 512.42334 599.93632 519.83594 595.51172 C 523.96094 593.04952 527.74133 590.89426 528.23633 590.72266 C 528.73052 590.55116 528.95202 589.86211 528.72852 589.19141 C 528.70713 589.12741 528.64046 589.09375 528.53125 589.09375 z M 570.70508 590.26367 C 570.10761 590.22267 567.57725 591.67885 565.33594 593.40625 C 564.23594 594.25405 563.56094 594.95289 563.83594 594.96289 C 564.57814 594.98509 570.83594 590.88525 570.83594 590.37695 C 570.83594 590.30665 570.79048 590.27367 570.70508 590.26367 z M 799.08984 591.67383 C 799.04054 591.68423 799.00905 591.78987 798.99805 592.00977 C 798.95675 592.83477 799.53264 596.20977 800.27734 599.50977 C 801.02194 602.80977 801.63672 604.38477 801.63672 603.00977 C 801.64334 600.46757 799.56672 591.57353 799.08984 591.67383 z M 562.5293 595.47656 C 562.224 595.41256 559.27951 597.24177 552.35938 601.75977 C 549.62147 603.54727 547.82187 605.00781 548.35938 605.00781 C 549.40017 605.00521 560.65524 597.60205 562.33594 595.81445 C 562.53023 595.60785 562.5998 595.49156 562.5293 595.47656 z M 765.31836 595.56641 C 765.2581 595.57181 765.18899 595.79844 765.11719 596.27344 C 764.88766 597.79354 764.89541 600.04354 765.13281 601.27344 C 765.37011 602.50344 765.55883 601.25977 765.54883 598.50977 C 765.54368 596.61917 765.45094 595.55441 765.31836 595.56641 z M 1046.0625 602.00977 C 1045.3032 602.00977 1046.0282 603.14264 1047.6738 604.52734 C 1049.3194 605.91204 1051.8482 609.06204 1053.293 611.52734 C 1054.7377 613.99264 1056.5999 616.00977 1057.4297 616.00977 C 1058.5555 616.00977 1058.2412 615.05777 1056.1953 612.25977 C 1051.9041 606.39117 1047.5728 602.00977 1046.0625 602.00977 z M 766.29883 605.24219 C 766.24704 605.28259 766.19046 605.45047 766.13086 605.75977 C 765.89246 606.99727 765.89246 609.02227 766.13086 610.25977 C 766.36916 611.49727 766.5625 610.48477 766.5625 608.00977 C 766.5625 606.15357 766.45421 605.12089 766.29883 605.24219 z M 548.55469 606.00781 L 549.07812 614.42383 C 549.41492 619.82243 549.21493 623.22843 548.51953 623.92383 C 547.38193 625.06143 549.01214 625.18373 553.58594 624.30273 C 555.67584 623.90023 555.83594 623.34533 555.83594 616.51953 C 555.83594 607.16983 555.36598 606.00781 551.58789 606.00781 L 548.55469 606.00781 z M 544.74609 606.42578 C 544.37409 606.40278 543.95693 606.41803 543.49219 606.45703 C 541.75579 606.60383 539.30578 606.78723 538.04688 606.86523 C 535.82338 607.00353 535.76617 607.25719 536.04688 615.74609 C 536.35877 625.18179 536.35244 625.1735 542.33594 624.2793 C 546.97064 623.5867 547.83727 622.29957 547.82227 616.13477 C 547.80381 608.54507 547.35007 606.58638 544.74609 606.42578 z M 802.14844 606.89258 C 802.06796 606.90178 802.01705 607.09432 802.00195 607.51172 C 801.96225 608.61172 802.52987 612.43672 803.26367 616.01172 C 804.23847 620.76122 804.60409 621.56912 804.62109 619.01172 C 804.64288 615.72312 802.71183 606.82758 802.14844 606.89258 z M 498.37305 609.74023 C 497.83484 609.72223 497.46944 609.79234 497.36523 609.96094 C 497.08723 610.41074 498.85432 611.28093 501.29102 611.89453 C 503.72782 612.50813 506.7604 612.95853 508.0293 612.89453 C 510.043 612.79323 510.08154 612.72234 508.33594 612.33594 C 507.23594 612.09244 504.43122 611.27553 502.10352 610.51953 C 500.64864 610.04703 499.27007 609.77023 498.37305 609.74023 z M 489.58594 610.02539 C 488.62344 610.01699 487.83594 610.45977 487.83594 611.00977 C 487.83594 612.22937 487.94874 612.22937 489.83594 611.00977 C 491.11784 610.18127 491.08154 610.03839 489.58594 610.02539 z M 533.45117 610.2793 C 532.64776 610.1631 530.4779 611.42961 525.9668 614.53711 C 517.8264 620.14461 515.94623 622.23141 514.05273 627.75781 L 512.93945 631.00781 L 528.13867 630.77539 C 536.49757 630.64779 560.66094 630.30241 581.83594 630.00781 L 620.33594 629.4707 L 576.25977 629.24023 L 532.18359 629.00781 L 530.00977 626.69336 C 526.77467 623.24976 527.11944 618.45456 530.83594 615.19336 C 532.48594 613.74546 533.83594 611.78714 533.83594 610.83984 C 533.83594 610.51074 533.71897 610.3183 533.45117 610.2793 z M 492.83594 612.16211 C 492.01094 612.16211 489.76094 612.76847 487.83594 613.50977 C 485.91094 614.25107 485.01094 614.85938 485.83594 614.85938 C 486.66094 614.85938 488.91094 614.25107 490.83594 613.50977 C 492.76094 612.76847 493.66094 612.16211 492.83594 612.16211 z M 501.08984 613.75 C 497.10187 613.6631 489.51955 616.69085 490.44336 618.18555 C 491.31196 619.59095 495.11874 618.98568 500.33594 616.61328 L 505.33594 614.33984 L 501.83594 613.81055 C 501.6056 613.77555 501.3557 613.76 501.08984 613.75 z M 1000.4512 614.33594 C 1000.179 614.26384 999.77522 614.7242 999.49023 615.4668 C 998.81403 617.229 999.39092 617.53886 1000.377 615.94336 C 1000.7396 615.35686 1000.8207 614.66249 1000.5586 614.40039 C 1000.5262 614.36839 1000.4902 614.34594 1000.4512 614.33594 z M 767.31836 615.18945 C 767.2601 615.23268 767.19618 615.42356 767.12891 615.77344 C 766.88958 617.01734 766.89814 618.81734 767.14844 619.77344 C 767.39874 620.72954 767.59498 619.71172 767.58398 617.51172 C 767.57704 616.13672 767.49438 615.31411 767.375 615.19531 C 767.3571 615.17749 767.33778 615.17504 767.31836 615.18945 z M 532.71875 616.15039 C 532.1364 616.08809 531.3249 616.85924 530.27539 618.46094 C 528.79079 620.72664 528.7998 621.13917 530.4043 623.85547 C 531.6444 625.95467 533.17078 626.96592 535.73828 627.39062 C 541.59548 628.35943 555.21604 628.06063 556.83594 626.92773 C 557.90234 626.18203 555.58964 626.06292 548.83594 626.51562 C 543.01934 626.90562 538.26974 626.74707 536.58594 626.10547 C 534.14554 625.17557 533.83594 624.5486 533.83594 620.5332 C 533.83594 617.6888 533.4675 616.23039 532.71875 616.15039 z M 506.54297 616.17969 C 506.27316 616.10409 504.30104 616.84942 500.52734 618.38672 C 497.33274 619.68802 495.31181 620.97951 496.03711 621.25781 C 496.76231 621.53621 499.6014 620.47418 502.3457 618.89648 C 505.37995 617.15208 506.81279 616.25569 506.54297 616.17969 z M 480.83594 617.13281 C 480.20157 617.13281 479.56719 617.19451 479.08594 617.32031 C 478.12344 617.57191 478.91094 617.7793 480.83594 617.7793 C 482.76094 617.7793 483.54844 617.57191 482.58594 617.32031 C 482.10469 617.19481 481.47032 617.13281 480.83594 617.13281 z M 1057.918 618.13477 C 1057.5706 618.14917 1057.2736 618.24015 1057.1074 618.40625 C 1056.7751 618.73855 1057.3658 618.97464 1058.4199 618.93164 C 1059.5849 618.88364 1059.8211 618.64733 1059.0234 618.32812 C 1058.6624 618.18373 1058.2654 618.12077 1057.918 618.13477 z M 986.95703 619.12305 C 985.86953 619.12485 984.81966 619.18287 984.06836 619.29688 C 982.56566 619.52517 984.03594 619.71117 987.33594 619.70117 C 990.63594 619.69557 991.86566 619.50971 990.06836 619.28711 C 989.16966 619.17601 988.04453 619.12305 986.95703 619.12305 z M 938.9668 619.13281 C 938.2418 619.13641 937.55227 619.20303 937.07422 619.32812 C 936.11812 619.57842 937.13594 619.77272 939.33594 619.76172 C 941.53594 619.75062 942.31822 619.54584 941.07422 619.30664 C 940.45227 619.18684 939.6918 619.13281 938.9668 619.13281 z M 481.94531 619.4082 C 480.63371 619.4245 479.09813 619.46516 477.33594 619.53516 C 463.60724 620.08046 452.47604 620.9403 418.33594 624.0957 C 366.41424 628.8946 318.32175 636.14129 293.33594 642.92969 C 289.48594 643.97569 287.23594 644.8235 288.33594 644.8125 C 289.43594 644.8017 293.71094 643.93663 297.83594 642.89062 C 308.70475 640.13462 343.69604 634.26919 362.83594 631.99609 C 389.30474 628.85249 428.83217 625.17281 476.82227 621.38281 C 489.29513 620.39771 491.12646 619.2938 481.94531 619.4082 z M 968.93945 620.12109 C 967.3082 620.12259 965.71514 620.1744 964.55469 620.2793 C 962.23379 620.489 964.38594 620.65625 969.33594 620.65625 C 974.28594 620.65315 976.18379 620.48014 973.55469 620.27344 C 972.24014 620.17204 970.5707 620.125 968.93945 620.125 L 968.93945 620.12109 z M 915.83594 620.13477 C 915.02032 620.13477 914.20469 620.1933 913.58594 620.3125 C 912.34844 620.5509 913.36094 620.74609 915.83594 620.74609 C 918.31094 620.74609 919.32344 620.5509 918.08594 620.3125 C 917.46719 620.1937 916.65157 620.13477 915.83594 620.13477 z M 437.91797 620.14453 C 437.57057 620.15893 437.27357 620.24992 437.10742 620.41602 C 436.77512 620.74832 437.36582 620.98441 438.41992 620.94141 C 439.58492 620.89341 439.82114 620.65709 439.02344 620.33789 C 438.66249 620.19349 438.26537 620.13053 437.91797 620.14453 z M 1059.8223 621.01758 C 1058.5149 621.01758 1058.1669 621.56478 1058.5469 623.01758 C 1059.0813 625.06118 1059.439 625.2254 1061.5293 624.375 C 1063.2747 623.665 1061.9289 621.01758 1059.8223 621.01758 z M 947.94531 621.12695 C 946.49531 621.12855 945.08254 621.18362 944.05859 621.29102 C 942.01059 621.50592 943.93594 621.67578 948.33594 621.67578 C 952.73594 621.67208 954.41059 621.49636 952.05859 621.28516 C 950.88254 621.18086 949.39531 621.13086 947.94531 621.13086 L 947.94531 621.12695 z M 890.95703 621.13086 C 889.86953 621.13266 888.81966 621.19059 888.06836 621.30469 C 886.56566 621.53299 888.03594 621.71898 891.33594 621.70898 C 894.63594 621.70338 895.86566 621.51742 894.06836 621.29492 C 893.16966 621.18382 892.04453 621.13086 890.95703 621.13086 z M 914.93945 622.12305 C 913.3082 622.12465 911.71514 622.17645 910.55469 622.28125 C 908.23379 622.49095 910.38594 622.65625 915.33594 622.65625 C 920.28594 622.65325 922.18379 622.48209 919.55469 622.27539 C 918.24014 622.17389 916.5707 622.12695 914.93945 622.12695 L 914.93945 622.12305 z M 485.83594 622.12695 C 484.65782 622.12695 483.47969 622.18207 482.58594 622.29297 C 480.79844 622.51477 482.26094 622.69727 485.83594 622.69727 C 489.41094 622.69727 490.87344 622.51477 489.08594 622.29297 C 488.19219 622.18197 487.01407 622.12695 485.83594 622.12695 z M 855.83594 622.12695 C 854.65782 622.12695 853.47969 622.18207 852.58594 622.29297 C 850.79844 622.51477 852.26094 622.69727 855.83594 622.69727 C 859.41094 622.69727 860.87344 622.51477 859.08594 622.29297 C 858.19219 622.18197 857.01407 622.12695 855.83594 622.12695 z M 411.91797 622.14062 C 411.57057 622.15503 411.27357 622.24601 411.10742 622.41211 C 410.77512 622.74441 411.36582 622.9805 412.41992 622.9375 C 413.58492 622.8895 413.82114 622.65318 413.02344 622.33398 C 412.66249 622.18958 412.26537 622.12662 411.91797 622.14062 z M 890.94531 623.11914 C 889.49531 623.12074 888.08254 623.1758 887.05859 623.2832 C 885.01059 623.4981 886.93594 623.66797 891.33594 623.66797 C 895.73594 623.66427 897.41059 623.48854 895.05859 623.27734 C 893.88254 623.17304 892.39531 623.12305 890.94531 623.12305 L 890.94531 623.11914 z M 473.96289 623.13281 C 473.05663 623.13531 472.18727 623.19575 471.57227 623.31445 C 470.34237 623.55185 471.58594 623.74242 474.33594 623.73242 C 477.08594 623.72492 478.09237 623.53068 476.57227 623.30078 C 475.81227 623.18578 474.86913 623.13281 473.96289 623.13281 z M 403.91797 623.14453 C 403.57057 623.15883 403.27357 623.24992 403.10742 623.41602 C 402.77512 623.74832 403.36582 623.98441 404.41992 623.94141 C 405.58492 623.89341 405.82114 623.65524 405.02344 623.33594 C 404.66249 623.19164 404.26537 623.13053 403.91797 623.14453 z M 831.95508 623.14453 C 831.41133 623.15123 830.90491 623.22052 830.56641 623.35742 C 829.88931 623.63142 830.68594 623.84031 832.33594 623.82031 C 833.98594 623.79991 834.53931 623.57381 833.56641 623.32031 C 833.07991 623.19361 832.49883 623.13453 831.95508 623.14453 z M 805.75391 623.50781 C 805.21602 623.44901 804.83594 623.64532 804.83594 624.04492 C 804.83594 624.57762 805.51094 625.01562 806.33594 625.01562 C 807.16094 625.01563 807.83594 624.83719 807.83594 624.62109 C 807.83594 624.40489 807.16094 623.9709 806.33594 623.6543 C 806.12969 623.5748 805.93321 623.52781 805.75391 623.50781 z M 865.94531 624.12109 C 864.49531 624.12269 863.08254 624.1758 862.05859 624.2832 C 860.01059 624.4981 861.93594 624.66992 866.33594 624.66992 C 870.73594 624.66622 872.41059 624.4905 870.05859 624.2793 C 868.88254 624.175 867.39531 624.125 865.94531 624.125 L 865.94531 624.12109 z M 463.83594 624.13477 C 463.02032 624.13477 462.20469 624.19535 461.58594 624.31445 C 460.34844 624.55285 461.36094 624.74805 463.83594 624.74805 C 466.31094 624.74805 467.32344 624.55285 466.08594 624.31445 C 465.46719 624.19575 464.65157 624.13477 463.83594 624.13477 z M 395.91797 624.14453 C 395.57057 624.15883 395.27357 624.25177 395.10742 624.41797 C 394.77512 624.75027 395.36582 624.98636 396.41992 624.94336 C 397.58492 624.89536 397.82114 624.65709 397.02344 624.33789 C 396.66249 624.19349 396.26537 624.13053 395.91797 624.14453 z M 496.20508 624.35156 C 492.79013 624.32816 488.56973 624.53213 482.64062 624.95703 C 451.76123 627.17023 404.81234 631.40158 375.83594 634.58398 C 354.59884 636.91648 302.95289 644.57054 301.99609 645.52734 C 301.45879 646.06454 305.84164 645.97644 309.83594 645.36914 C 326.34734 642.85884 356.18534 639.80282 390.83594 637.07422 C 434.05194 633.67102 445.57394 632.96719 467.83594 632.37109 C 479.66094 632.05449 494.28594 631.5087 500.33594 631.1582 C 510.47574 630.5708 511.35861 630.35805 511.63281 628.43945 C 511.89621 626.59635 511.13095 626.21587 504.93945 625.10938 C 502.23085 624.62528 499.62003 624.37456 496.20508 624.35156 z M 743.91406 625.13672 L 743.91406 625.13867 C 740.83281 625.13887 737.79236 625.18534 735.53711 625.27734 C 731.02657 625.46224 734.98594 625.61233 744.33594 625.61133 C 753.68594 625.61023 757.37661 625.45909 752.53711 625.27539 C 750.11736 625.18269 746.99531 625.13662 743.91406 625.13672 z M 833.96289 625.13672 C 833.05663 625.13922 832.18727 625.19966 831.57227 625.31836 C 830.34237 625.55576 831.58594 625.74633 834.33594 625.73633 C 837.08594 625.72883 838.09237 625.53459 836.57227 625.30469 C 835.81227 625.18969 834.86913 625.13672 833.96289 625.13672 z M 449.95508 625.14648 C 449.41133 625.15318 448.90491 625.22443 448.56641 625.36133 C 447.88931 625.63523 448.68594 625.84227 450.33594 625.82227 C 451.98594 625.80187 452.53931 625.57782 451.56641 625.32422 C 451.07991 625.19752 450.49883 625.13648 449.95508 625.14648 z M 963.5293 626.06836 C 967.49184 626.11736 970.80228 626.45737 972.15234 627.16797 C 975.56164 628.96247 975.80431 629.86024 975.82031 640.71094 C 975.83441 650.11974 975.66478 651.02404 973.61328 652.46094 C 971.87418 653.67904 968.51855 654.01758 958.18555 654.01758 C 945.11115 654.01758 944.9603 653.99161 942.9082 651.38281 C 941.1524 649.15071 940.83856 647.35461 940.85156 639.63281 C 940.85996 634.61951 941.27654 629.86973 941.77734 629.07812 C 942.93076 627.25533 954.81171 625.96046 963.5293 626.06836 z M 802.93945 626.12305 C 801.3082 626.12455 799.71514 626.1784 798.55469 626.2832 C 796.23379 626.4929 798.38594 626.6582 803.33594 626.6582 C 808.28594 626.6552 810.18379 626.48404 807.55469 626.27734 C 806.24014 626.17594 804.5707 626.12695 802.93945 626.12695 L 802.93945 626.12305 z M 437.83594 626.13672 C 437.02032 626.13672 436.20469 626.19731 435.58594 626.31641 C 434.34844 626.55481 435.36094 626.75 437.83594 626.75 C 440.31094 626.75 441.32344 626.55481 440.08594 626.31641 C 439.46719 626.19771 438.65157 626.13672 437.83594 626.13672 z M 636.90625 626.14648 C 633.1 626.14668 629.33505 626.19225 626.53125 626.28125 C 620.92355 626.45915 625.78594 626.60432 637.33594 626.60352 C 648.88594 626.60272 653.47355 626.4564 647.53125 626.2793 C 644.56005 626.1905 640.7125 626.14628 636.90625 626.14648 z M 426.83594 627.13867 C 426.02032 627.13867 425.20469 627.19926 424.58594 627.31836 C 423.34844 627.55676 424.36094 627.75 426.83594 627.75 C 429.31094 627.75 430.32344 627.55676 429.08594 627.31836 C 428.46719 627.19966 427.65157 627.13867 426.83594 627.13867 z M 761.92383 627.13867 L 761.92383 627.14062 C 759.56758 627.14083 757.25222 627.19011 755.54492 627.28711 C 752.13032 627.48181 755.18594 627.63867 762.33594 627.63867 C 769.48594 627.63687 772.28032 627.47816 768.54492 627.28516 C 766.67722 627.18666 764.28008 627.13847 761.92383 627.13867 z M 780.96289 627.13867 C 780.05663 627.14117 779.18722 627.20171 778.57227 627.32031 C 777.34227 627.55761 778.58594 627.74828 781.33594 627.73828 C 784.08594 627.73078 785.09227 627.53654 783.57227 627.30664 C 782.81222 627.19174 781.86913 627.13867 780.96289 627.13867 z M 368.91797 627.14844 C 368.57057 627.16274 368.27357 627.25763 368.10742 627.42383 C 367.77512 627.75613 368.36582 627.99222 369.41992 627.94922 C 370.58492 627.90122 370.82114 627.661 370.02344 627.3418 C 369.66249 627.1974 369.26537 627.13444 368.91797 627.14844 z M 958.33594 628.02539 C 951.93864 628.02539 945.83333 628.49115 944.76953 629.06055 C 943.07633 629.96665 942.83594 631.22401 942.83594 639.12891 C 942.83594 644.09571 943.30169 649.028 943.87109 650.0918 C 944.81779 651.8607 946.08678 652.02539 958.70508 652.02539 C 966.29408 652.02539 972.80332 651.72803 973.16992 651.36133 C 973.53662 650.99463 973.83594 646.05853 973.83594 640.39453 C 973.83594 631.23653 973.62244 629.98105 971.90234 629.06055 C 970.83854 628.49115 964.73324 628.02539 958.33594 628.02539 z M 414.95508 628.15234 C 414.41133 628.15914 413.90491 628.23224 413.56641 628.36914 C 412.88931 628.64304 413.68594 628.85203 415.33594 628.83203 C 416.98594 628.81163 417.53931 628.58563 416.56641 628.33203 C 416.07991 628.20533 415.49883 628.14234 414.95508 628.15234 z M 673.83594 628.15234 C 667.22032 628.15234 660.60469 628.19144 655.58594 628.27344 C 645.54844 628.43654 653.76094 628.57031 673.83594 628.57031 C 693.91094 628.57031 702.12344 628.43654 692.08594 628.27344 C 687.06719 628.19134 680.45157 628.15234 673.83594 628.15234 z M 1063.3262 628.76758 C 1062.7752 628.72638 1062.2284 629.21944 1062.0254 630.27344 C 1061.8146 631.36804 1062.3059 632.02344 1063.3359 632.02344 C 1064.2966 632.02344 1064.8469 631.3766 1064.6582 630.4707 C 1064.4321 629.3846 1063.8771 628.80858 1063.3262 628.76758 z M 403.83594 629.14453 C 403.20157 629.14453 402.56719 629.20828 402.08594 629.33398 C 401.12344 629.58558 401.91094 629.79102 403.83594 629.79102 C 405.76094 629.79102 406.54844 629.58558 405.58594 629.33398 C 405.10469 629.20858 404.47032 629.14453 403.83594 629.14453 z M 394.83594 630.14453 C 394.20157 630.14453 393.56719 630.20828 393.08594 630.33398 C 392.12344 630.58558 392.91094 630.79102 394.83594 630.79102 C 396.76094 630.79102 397.54844 630.58558 396.58594 630.33398 C 396.10469 630.20858 395.47032 630.14453 394.83594 630.14453 z M 775.52539 630.9043 L 729.93164 631.51367 C 657.12984 632.48597 512.43058 635.09481 512.08398 635.44141 C 511.50388 636.02151 510.02235 647.40954 509.37305 656.27344 L 509.37695 656.27344 L 508.73633 665.02344 L 515.53906 664.82422 C 522.36156 664.62452 686.9973 663.43927 745.58984 663.16797 L 776.83984 663.02344 L 776.83008 656.77344 C 776.82728 653.33594 776.53308 646.11004 776.17578 640.71484 L 775.52539 630.9043 z M 620.93555 631.12891 C 619.12305 631.13041 617.34973 631.18256 616.05273 631.28516 C 613.45863 631.49046 615.83594 631.65234 621.33594 631.65234 C 626.83594 631.64974 628.95863 631.4819 626.05273 631.2793 C 624.59973 631.1809 622.74805 631.13281 620.93555 631.13281 L 620.93555 631.12891 z M 340.91797 631.14648 C 340.57057 631.16078 340.27357 631.25187 340.10742 631.41797 C 339.77512 631.75027 340.36582 631.98636 341.41992 631.94336 C 342.58492 631.89536 342.82114 631.65904 342.02344 631.33984 C 341.66249 631.19544 341.26537 631.13248 340.91797 631.14648 z M 385.83594 631.14648 C 385.20157 631.14648 384.56719 631.21024 384.08594 631.33594 C 383.12344 631.58744 383.91094 631.79297 385.83594 631.79297 C 387.76094 631.79297 388.54844 631.58744 387.58594 631.33594 C 387.10469 631.21054 386.47032 631.14648 385.83594 631.14648 z M 530.75977 632.14062 C 527.49727 632.14053 524.19437 632.18439 521.63672 632.27539 C 516.52142 632.45729 520.43594 632.60938 530.33594 632.60938 C 540.23594 632.61038 544.42142 632.46024 539.63672 632.27734 C 537.24437 632.18654 534.02227 632.14268 530.75977 632.14258 L 530.75977 632.14062 z M 333.83594 632.15234 C 333.38282 632.15234 332.92969 632.22263 332.58594 632.36133 C 331.89844 632.63873 332.46094 632.86523 333.83594 632.86523 C 335.21094 632.86523 335.77344 632.63873 335.08594 632.36133 C 334.74219 632.22233 334.28907 632.15234 333.83594 632.15234 z M 373.95508 632.15234 C 373.41133 632.15914 372.90491 632.23224 372.56641 632.36914 C 371.88931 632.64304 372.68594 632.85008 374.33594 632.83008 C 375.98594 632.80978 376.53931 632.58563 375.56641 632.33203 C 375.07991 632.20533 374.49883 632.14234 373.95508 632.15234 z M 508.83594 632.15234 C 508.38282 632.15234 507.92969 632.22263 507.58594 632.36133 C 506.89844 632.63873 507.46094 632.86523 508.83594 632.86523 C 510.21094 632.86523 510.77344 632.63873 510.08594 632.36133 C 509.74219 632.22233 509.28907 632.15234 508.83594 632.15234 z M 490.83594 633.13477 C 488.75157 633.13477 486.66719 633.1842 485.08594 633.2832 C 481.92344 633.4816 484.51094 633.64258 490.83594 633.64258 C 497.16094 633.64258 499.74844 633.4816 496.58594 633.2832 C 495.00469 633.1838 492.92032 633.13477 490.83594 633.13477 z M 328.91797 633.14453 C 328.57057 633.15883 328.27357 633.25177 328.10742 633.41797 C 327.77512 633.75027 328.36582 633.98636 329.41992 633.94336 C 330.58492 633.89546 330.82114 633.65709 330.02344 633.33789 C 329.66249 633.19349 329.26537 633.13053 328.91797 633.14453 z M 365.83594 633.1543 C 365.38282 633.1543 364.92969 633.22263 364.58594 633.36133 C 363.89844 633.63873 364.46094 633.86523 365.83594 633.86523 C 367.21094 633.86523 367.77344 633.63873 367.08594 633.36133 C 366.74219 633.22223 366.28907 633.1543 365.83594 633.1543 z M 462.83594 634.13281 C 461.47657 634.13281 460.11719 634.18702 459.08594 634.29492 C 457.02344 634.51072 458.71094 634.6875 462.83594 634.6875 C 466.96094 634.6875 468.64844 634.51072 466.58594 634.29492 C 465.55469 634.18682 464.19532 634.13281 462.83594 634.13281 z M 1053.957 634.13281 C 1052.8695 634.13461 1051.8197 634.19264 1051.0684 634.30664 C 1049.5657 634.53484 1051.0359 634.72289 1054.3359 634.71289 C 1057.6359 634.70729 1058.8657 634.51948 1057.0684 634.29688 C 1056.1697 634.18577 1055.0445 634.13281 1053.957 634.13281 z M 323.91797 634.14453 C 323.57057 634.15883 323.27357 634.25177 323.10742 634.41797 C 322.77512 634.75027 323.36582 634.98636 324.41992 634.94336 C 325.58492 634.89536 325.82114 634.65709 325.02344 634.33789 C 324.66249 634.19349 324.26537 634.13053 323.91797 634.14453 z M 357.91797 634.14453 C 357.57057 634.15883 357.27357 634.25177 357.10742 634.41797 C 356.77512 634.75027 357.36582 634.98636 358.41992 634.94336 C 359.58492 634.89536 359.82114 634.65709 359.02344 634.33789 C 358.66249 634.19349 358.26537 634.13053 357.91797 634.14453 z M 1062.918 634.14453 C 1062.5706 634.15883 1062.2736 634.25177 1062.1074 634.41797 C 1061.7751 634.75027 1062.3658 634.98636 1063.4199 634.94336 C 1064.5849 634.89536 1064.8211 634.65709 1064.0234 634.33789 C 1063.6624 634.19349 1063.2654 634.13053 1062.918 634.14453 z M 1045.1484 635.02148 C 1044.5606 635.02148 1043.5206 635.69648 1042.8359 636.52148 C 1041.2787 638.39788 1041.7689 638.38753 1044.2773 636.49023 C 1045.345 635.68273 1045.7362 635.02148 1045.1484 635.02148 z M 510.06055 635.06836 L 487.19727 635.58984 C 444.24967 636.56744 401.09284 639.31791 345.83594 644.59961 C 313.47774 647.69261 302.45982 649.11105 281.10742 652.93555 C 271.63172 654.63285 261.36813 656.02148 258.29883 656.02148 C 254.83313 656.02148 252.95214 656.40038 253.33594 657.02148 C 253.67584 657.57148 256.30178 658.02148 259.17188 658.02148 C 265.04607 658.02148 268.53518 659.88585 269.01758 663.28125 L 269.33594 665.52148 L 308.95312 665.7832 C 342.30703 666.0033 348.75911 665.81853 349.75781 664.61523 C 352.15071 661.73193 363.81171 654.85694 371.00781 652.08594 C 381.83471 647.91684 391.12038 646.73175 408.92188 647.24805 C 422.26077 647.63495 425.45568 648.06178 432.65039 650.42188 C 441.22809 653.23578 448.63957 657.12572 454.98047 662.14062 L 458.62305 665.02148 L 483.08398 665.02148 L 507.54492 665.02148 L 508.17578 652.77148 C 508.52278 646.03398 509.08899 639.29442 509.43359 637.79492 L 510.06055 635.06836 z M 349.95508 635.15039 C 349.41133 635.15709 348.90491 635.22833 348.56641 635.36523 C 347.88931 635.63913 348.68594 635.84617 350.33594 635.82617 C 351.98594 635.80577 352.53931 635.58173 351.56641 635.32812 C 351.07991 635.20142 350.49883 635.14039 349.95508 635.15039 z M 437.95508 635.15039 C 437.41133 635.15709 436.90491 635.22833 436.56641 635.36523 C 435.88931 635.63913 436.68594 635.84617 438.33594 635.82617 C 439.98594 635.80577 440.53931 635.58173 439.56641 635.32812 C 439.07991 635.20142 438.49883 635.14039 437.95508 635.15039 z M 750.61719 636.05078 C 753.64419 636.00458 754.40329 636.53289 756.07617 638.33789 C 758.03237 640.44869 759.52944 640.9663 764.39844 641.2168 C 770.04394 641.5073 770.35144 641.65628 770.65234 644.27148 C 770.96834 647.02148 770.95947 647.02148 764.57617 647.02148 C 759.05087 647.02148 757.86604 647.36048 755.83594 649.52148 C 753.73934 651.75318 752.68899 652.02148 746.05469 652.02148 C 739.31859 652.02148 738.43875 651.78748 736.65625 649.52148 C 735.52365 648.08148 733.66187 647.02148 732.26367 647.02148 C 730.23323 647.02148 729.83594 646.53088 729.83594 644.02148 C 729.83594 641.43288 730.20414 641.02148 732.52148 641.02148 C 733.99848 641.02148 736.22751 640.06223 737.47461 638.89062 C 739.19041 637.27863 741.4385 636.63942 746.7168 636.26172 C 748.34735 636.14482 749.60819 636.06578 750.61719 636.05078 z M 420.95508 636.15039 C 420.41133 636.15709 419.90491 636.22833 419.56641 636.36523 C 418.88931 636.63913 419.68594 636.84812 421.33594 636.82812 C 422.98594 636.80773 423.53931 636.58173 422.56641 636.32812 C 422.07991 636.20143 421.49883 636.14039 420.95508 636.15039 z M 343.83594 636.25781 C 342.46094 636.25781 339.98594 636.60158 338.33594 637.02148 C 335.65994 637.70318 335.60594 637.78711 337.83594 637.78711 C 339.21094 637.78711 341.68594 637.44128 343.33594 637.02148 C 346.01194 636.33978 346.06594 636.25781 343.83594 636.25781 z M 332.83594 638.15234 C 332.38282 638.15234 331.92969 638.22263 331.58594 638.36133 C 330.89844 638.63873 331.46094 638.86523 332.83594 638.86523 C 334.21094 638.86523 334.77344 638.63873 334.08594 638.36133 C 333.74219 638.22223 333.28907 638.15234 332.83594 638.15234 z M 746.83594 639.02148 C 743.60084 639.02148 740.67584 639.47148 740.33594 640.02148 C 739.94604 640.65238 742.34524 641.02148 746.83594 641.02148 C 751.32664 641.02148 753.72584 640.65238 753.33594 640.02148 C 752.99604 639.47148 750.07104 639.02148 746.83594 639.02148 z M 1056.4062 639.02148 C 1045.1387 639.02148 1045.3925 638.73718 1041.5234 655.77148 L 1040.1035 662.02148 L 1053.2188 662.02148 L 1066.3359 662.02148 L 1065.6797 652.77148 C 1065.3189 647.68388 1064.9817 642.50898 1064.9297 641.27148 C 1064.8401 639.12348 1064.4525 639.02148 1056.4062 639.02148 z M 324.83594 639.15234 C 324.38282 639.15234 323.92969 639.22263 323.58594 639.36133 C 322.89844 639.63873 323.46094 639.86523 324.83594 639.86523 C 326.21094 639.86523 326.77344 639.63873 326.08594 639.36133 C 325.74219 639.22223 325.28907 639.15234 324.83594 639.15234 z M 1041.3555 639.29883 C 1041.0738 639.42293 1040.4864 640.58837 1039.9473 642.13477 C 1039.3312 643.90197 1039.0009 645.52243 1039.2148 645.73633 C 1039.4287 645.95023 1040.1085 644.67931 1040.7246 642.91211 C 1041.3407 641.14481 1041.669 639.52445 1041.4551 639.31055 C 1041.4281 639.28355 1041.3955 639.28083 1041.3555 639.29883 z M 318.91797 640.14453 C 318.57057 640.15883 318.27357 640.25372 318.10742 640.41992 C 317.77512 640.75222 318.36582 640.98831 319.41992 640.94531 C 320.58492 640.89731 320.82114 640.65709 320.02344 640.33789 C 319.66249 640.19349 319.26537 640.13053 318.91797 640.14453 z M 368.91797 640.14453 C 368.57057 640.15883 368.27357 640.25372 368.10742 640.41992 C 367.77512 640.75222 368.36582 640.98831 369.41992 640.94531 C 370.58492 640.89731 370.82114 640.65709 370.02344 640.33789 C 369.66249 640.19349 369.26537 640.13053 368.91797 640.14453 z M 743.83594 643.02148 C 736.50264 643.02148 731.83594 643.41038 731.83594 644.02148 C 731.83594 644.63258 736.50264 645.02148 743.83594 645.02148 C 751.16924 645.02148 755.83594 644.63258 755.83594 644.02148 C 755.83594 643.41038 751.16924 643.02148 743.83594 643.02148 z M 758.83594 643.02148 C 758.28594 643.02148 757.83594 643.47148 757.83594 644.02148 C 757.83594 644.57148 758.28594 645.02148 758.83594 645.02148 C 759.38594 645.02148 759.83594 644.57148 759.83594 644.02148 C 759.83594 643.47148 759.38594 643.02148 758.83594 643.02148 z M 766.83594 643.02148 C 765.73594 643.02148 764.83594 643.47148 764.83594 644.02148 C 764.83594 644.57148 765.73594 645.02148 766.83594 645.02148 C 767.93594 645.02148 768.83594 644.57148 768.83594 644.02148 C 768.83594 643.47148 767.93594 643.02148 766.83594 643.02148 z M 283.91797 645.14453 C 283.57057 645.15883 283.27352 645.25372 283.10742 645.41992 C 282.77512 645.75222 283.36582 645.98831 284.41992 645.94531 C 285.58492 645.89731 285.82114 645.65709 285.02344 645.33789 C 284.66254 645.19349 284.26537 645.13053 283.91797 645.14453 z M 297.95508 646.15039 C 297.41138 646.15709 296.90491 646.22833 296.56641 646.36523 C 295.88931 646.63913 296.68594 646.84812 298.33594 646.82812 C 299.98595 646.80773 300.53929 646.58173 299.56641 646.32812 C 299.07991 646.20143 298.49888 646.14039 297.95508 646.15039 z M 746.52734 647.03711 C 741.57234 647.02741 738.94374 647.38698 739.33594 648.02148 C 740.12674 649.30108 750.85594 649.30108 752.83594 648.02148 C 753.87534 647.34978 751.93844 647.04811 746.52734 647.03711 z M 292.91797 647.14453 C 292.57057 647.15883 292.27352 647.25372 292.10742 647.41992 C 291.77512 647.75222 292.36582 647.98831 293.41992 647.94531 C 294.58492 647.89731 294.82114 647.65709 294.02344 647.33789 C 293.66254 647.19349 293.26537 647.13053 292.91797 647.14453 z M 1038.3926 648.4707 C 1038.1219 648.6154 1037.5627 649.92538 1036.8359 652.52148 C 1036.1342 655.02798 1035.7901 657.30759 1036.0703 657.58789 C 1036.3506 657.86819 1037.1066 656.0005 1037.752 653.4375 C 1038.6114 650.0246 1038.7406 648.2847 1038.3926 648.4707 z M 404.73438 649.02344 C 379.03928 649.02344 363.68307 655.00769 345.32617 672.17969 C 335.30947 681.54979 328.46745 691.25822 323.21875 703.54492 C 320.63925 709.58292 317.92073 715.23642 317.17773 716.10742 C 315.62653 717.92592 313.50976 724.84384 311.84766 733.52344 C 311.21576 736.82344 310.49289 740.25203 310.24219 741.14062 C 309.74399 742.90643 318.79498 749.51853 319.95508 748.23633 C 320.30998 747.84413 321.56273 742.65784 322.74023 736.71094 C 327.41403 713.10544 336.40331 694.75 350.19141 680.6582 C 365.56611 664.9448 377.70684 660.55711 405.83594 660.53711 C 420.57054 660.52661 423.12046 660.78033 429.66406 662.92383 C 447.59796 668.79863 465.17779 684.84102 474.24609 703.60352 C 481.23519 718.06412 484.27497 730.61961 485.10547 748.44531 C 485.31737 752.99461 486.87775 755.38269 488.21875 753.21289 C 488.52995 752.70929 490.82145 751.7262 493.31055 751.0293 C 495.79975 750.3324 497.83594 749.61233 497.83594 749.42773 C 497.83594 749.24313 497.13103 744.01304 496.26953 737.80664 C 495.02823 728.86494 494.23164 726.00434 492.43164 724.02344 C 491.18214 722.64844 488.67478 717.24844 486.85938 712.02344 C 477.81847 686.00224 469.55155 674.84292 449.62695 661.76172 C 434.63755 651.92072 424.42717 649.02344 404.73438 649.02344 z M 248.91797 652.51562 C 248.73867 652.53523 248.54224 652.58311 248.33594 652.66211 C 247.51094 652.97871 246.83594 653.41271 246.83594 653.62891 C 246.83594 653.84501 247.51094 654.02148 248.33594 654.02148 C 249.16094 654.02148 249.83594 653.58543 249.83594 653.05273 C 249.83594 652.65313 249.45587 652.45663 248.91797 652.51562 z M 254.14453 653.03711 C 253.48953 653.02871 252.67584 653.47148 252.33594 654.02148 C 251.56864 655.26298 251.91484 655.26298 253.83594 654.02148 C 254.73724 653.43898 254.86013 653.04711 254.14453 653.03711 z M 245.91992 655.57422 C 245.23772 655.58902 244.71136 655.74763 244.41016 656.04883 C 243.77816 656.68073 244.82187 656.99155 247.38477 656.93555 C 251.28847 656.85055 251.30048 656.83854 248.35938 655.96094 C 247.43917 655.68644 246.60212 655.55922 245.91992 655.57422 z M 924.33594 655.67969 C 915.11114 655.68889 909.44834 656.20382 904.83594 657.44922 C 886.38724 662.43072 877.49527 667.17991 864.95117 678.75781 C 854.44187 688.45761 846.96311 699.23254 838.91211 716.27344 L 832.88867 729.02344 L 826.36328 729.02344 L 819.83594 729.02344 L 819.83594 738.52344 L 819.83594 748.02344 L 823.1543 748.02344 C 827.3766 748.02344 836.85016 750.78544 838.91406 752.61914 C 841.31226 754.74984 841.66132 754.41324 842.35742 749.27344 C 845.13252 728.78404 847.67355 719.87193 854.31055 707.36523 C 864.06245 688.98873 879.04778 676.10083 898.20508 669.61523 C 900.88308 668.70863 903.80988 667.57104 904.70898 667.08984 C 905.60808 666.60864 910.67154 665.70181 915.96094 665.07031 C 942.65043 661.88361 969.5743 674.70732 988.7207 699.73242 C 993.5218 706.00762 1001.4988 722.76633 1003.9277 731.67773 C 1007.1202 743.39033 1007.1067 743.37473 1011.5996 740.80273 C 1013.655 739.62613 1015.4836 738.55659 1015.6641 738.42969 C 1015.8445 738.30279 1014.9862 734.22263 1013.7559 729.36133 C 1008.5304 708.71523 997.27474 690.59512 980.83594 676.35742 C 970.47504 667.38382 960.22751 661.89761 947.19141 658.34961 C 938.84211 656.07721 935.34873 655.66869 924.33594 655.67969 z M 1035.3203 658.52344 L 1034.5488 662.88672 C 1034.037 665.77862 1034.1638 667.71632 1034.9277 668.63672 C 1035.8238 669.71652 1039.1098 669.97631 1049.709 669.81641 L 1063.3359 669.61133 L 1049.8359 669.06641 L 1036.3359 668.52344 L 1035.8281 663.52344 L 1035.3203 658.52344 z M 253.07031 659.33203 C 252.81211 659.39333 253.79124 659.6025 255.83594 660 C 261.03714 661.0108 265.40373 661.259 264.64453 660.5 C 264.35653 660.212 261.24462 659.78263 257.72852 659.54883 C 254.82352 659.35603 253.32851 659.27103 253.07031 659.33203 z M 244.7168 661.02148 C 242.9714 661.02148 241.97634 661.43968 242.33594 662.02148 C 242.67584 662.57148 244.30312 663.02148 245.95312 663.02148 C 247.69852 663.02148 248.69554 662.60328 248.33594 662.02148 C 247.99604 661.47148 246.3668 661.02148 244.7168 661.02148 z M 251.83594 662.02344 L 251.83594 662.02539 L 251.72266 668.77539 C 251.66006 672.48789 251.52673 678.11289 251.42773 681.27539 L 251.24805 687.02539 L 256.57227 687.02539 C 259.93247 687.02539 262.05974 686.56409 262.33594 685.77539 C 264.15214 680.58829 267.59427 665.56151 267.20117 664.53711 C 266.67207 663.15831 261.54164 662.05216 255.58594 662.03516 L 251.83594 662.02344 z M 408.46289 662.13281 C 406.4505 662.15591 404.25614 662.2102 401.8418 662.2832 C 387.402 662.7221 384.33454 663.11824 377.33594 665.46484 C 366.71664 669.02534 361.67489 672.08203 353.62109 679.82812 C 338.57539 694.29913 328.58015 713.97214 324.31055 737.52344 C 323.41325 742.47344 322.2742 747.53594 321.7793 748.77344 L 320.87891 751.02344 L 291.85742 751.02344 C 275.75222 751.02344 262.83594 751.4145 262.83594 751.9043 C 262.83594 753.2318 274.62733 753.93584 302.03516 754.24414 C 317.59646 754.41924 327.06671 754.15344 327.63281 753.52344 C 328.12711 752.97344 329.10403 749.14844 329.80273 745.02344 C 335.69963 710.20784 346.87841 690.69721 368.88281 676.82031 C 378.19261 670.94911 385.60264 669.52344 406.83594 669.52344 L 425.33594 669.52344 L 433.99023 673.8125 C 438.75003 676.1716 444.46757 679.42191 446.69727 681.03711 C 456.07227 687.82831 467.26819 704.82751 471.99219 719.44141 C 474.06659 725.85861 477.82203 748.91314 477.83203 755.27344 L 477.82422 755.27344 L 477.83594 759.02344 L 494.83594 759.02344 C 505.50264 759.02344 511.83594 758.65084 511.83594 758.02344 C 511.83594 757.41204 507.14663 757.02344 499.76953 757.02344 C 493.13333 757.02344 486.87187 756.5771 485.85547 756.0332 C 484.40047 755.2545 483.8739 753.3941 483.375 747.2832 C 481.7252 727.0764 479.3381 717.83641 472 703.25781 C 464.4307 688.21991 451.81014 675.53959 436.71484 667.80469 C 427.70313 663.18709 422.5496 661.97111 408.46289 662.13281 z M 1064.1777 663.11133 C 1062.6874 663.11133 1060.7498 663.41388 1059.3359 664.02148 C 1057.7811 664.68958 1058.2691 664.89813 1061.5273 664.95312 C 1063.8323 664.99173 1065.996 664.57148 1066.3359 664.02148 C 1066.7114 663.41388 1065.6681 663.11133 1064.1777 663.11133 z M 1017.3438 663.22461 C 1010.9249 663.23101 1002.3162 663.4162 991.33594 663.7793 C 968.72014 664.5274 968.38826 664.5714 971.53516 666.2832 C 974.43516 667.8607 978.86342 668.5869 979.91992 667.6582 C 980.14912 667.4568 991.80032 666.98001 1005.8125 666.59961 C 1023.7971 666.11131 1031.5072 665.55634 1032.0293 664.71484 C 1032.6566 663.70374 1028.0416 663.21361 1017.3438 663.22461 z M 879.33594 663.83789 L 853.42383 664.42969 C 839.17213 664.75569 816.55963 665.02344 803.17383 665.02344 C 779.50273 665.02344 778.83594 665.07824 778.83594 667.02344 C 778.83594 668.97044 779.42534 669.01652 801.08594 668.79102 C 876.70184 668.00352 872.57184 668.16151 876.08984 665.91211 L 879.33594 663.83789 z M 248.95312 664.5 C 248.91493 664.491 248.87594 664.49844 248.83594 664.52344 C 248.26784 664.87454 247.83594 669.86673 247.83594 676.08203 C 247.83594 682.70933 248.23024 687.02344 248.83594 687.02344 C 249.44494 687.02344 249.83594 682.50219 249.83594 675.46289 C 249.83594 668.47719 249.52332 664.6261 248.95312 664.5 z M 776.83594 664.69531 L 701.08594 665.35742 C 659.42344 665.72242 599.08952 666.02118 567.01172 666.02148 C 512.00322 666.02218 508.7092 666.12284 509.0293 667.77344 C 509.4182 669.77754 502.96954 669.72153 678.08594 669.26953 L 776.83594 669.01562 L 776.83594 666.85352 L 776.83594 664.69531 z M 1042.3535 665.74414 C 1039.32 665.76234 1037.2937 665.96208 1037.4863 666.27148 C 1037.743 666.68398 1043.6645 666.9408 1050.6445 666.8418 C 1063.43 666.6602 1061.6567 666.28572 1045.6777 665.79102 C 1044.4873 665.75602 1043.3647 665.73414 1042.3535 665.74414 z M 243.45898 666.02344 C 242.56668 666.02344 241.83594 666.69844 241.83594 667.52344 C 241.83594 668.34844 242.00519 669.02344 242.21289 669.02344 C 242.42049 669.02344 243.15124 668.34844 243.83594 667.52344 C 244.85554 666.29494 244.78778 666.02344 243.45898 666.02344 z M 484.18164 666.02344 C 460.59004 666.02344 460.53084 666.02874 462.33594 668.02344 C 464.04064 669.90714 465.41523 670.02344 485.99023 670.02344 C 507.16853 670.02344 507.83594 669.96234 507.83594 668.02344 C 507.83594 666.07944 507.16994 666.02344 484.18164 666.02344 z M 919.98828 666.14453 C 913.34604 666.29114 908.3674 667.65656 898.6582 671.39062 C 885.7841 676.34182 878.83199 680.34215 872.74609 686.31055 C 856.94029 701.81175 848.36337 718.92448 845.29297 741.08398 C 843.06587 757.15658 843.1925 757.02344 830.3125 757.02344 C 823.9946 757.02344 819.83594 757.42034 819.83594 758.02344 C 819.83594 759.59564 847.80208 759.34974 848.27148 757.77344 C 848.47618 757.08594 849.60731 750.41643 850.78711 742.95312 C 854.15241 721.66512 858.26699 711.0599 868.18359 698.0957 C 876.53769 687.1741 894.53763 675.56882 909.51562 671.44922 C 919.54733 668.69002 932.70706 669.83371 945.78906 674.59961 C 958.84496 679.35611 968.20404 685.54614 978.27734 696.08984 C 988.59594 706.89014 994.65391 719.57671 999.81641 741.19141 C 1000.8773 745.63301 1001.9307 749.45203 1002.1562 749.67773 C 1002.3819 749.90333 1007.6896 749.43361 1013.9512 748.63281 C 1020.2129 747.83191 1030.3814 746.61399 1036.5488 745.92969 C 1047.2665 744.74049 1050.9476 743.80121 1049.7129 742.56641 C 1049.4017 742.25521 1045.813 742.42521 1041.7402 742.94531 C 1037.6673 743.46541 1028.3344 744.44851 1021 745.12891 C 1009.6097 746.18551 1007.5315 746.15921 1006.7422 744.94531 C 1006.2339 744.16371 1004.6184 739.69844 1003.1543 735.02344 C 997.33672 716.44744 991.17663 704.79971 981.08203 693.28711 C 967.51453 677.81371 946.75033 667.50891 926.74023 666.32031 C 925.39188 666.24021 924.14029 666.18134 922.95703 666.15234 C 921.92168 666.12696 920.93717 666.12359 919.98828 666.14453 z M 307.89453 667.02344 C 282.52182 667.02344 268.83594 667.37384 268.83594 668.02344 C 268.83594 668.67274 282.31662 669.02344 307.27734 669.02344 C 331.82594 669.02344 345.94124 668.66204 346.33594 668.02344 C 346.74394 667.36324 333.67923 667.02344 307.89453 667.02344 z M 1024.9395 668.14062 C 1020.831 668.13212 1014.5006 668.2962 1004.4824 668.5625 L 977.30859 669.2832 L 987.41211 679.40039 C 997.51391 689.51739 1003.3772 697.96903 1009.5273 711.26953 C 1011.204 714.89563 1012.7688 716.9773 1013.7617 716.9043 C 1016.7924 716.681 1018.8551 715.86442 1018.3691 715.07812 C 1017.8258 714.19912 1022.5672 700.6951 1025.9355 693.5293 C 1027.1229 691.0034 1029.2736 688.32838 1030.7148 687.58398 C 1033.6182 686.08438 1048.4925 684.02344 1056.4629 684.02344 L 1061.5898 684.02344 L 1063.1016 678.02344 L 1064.6133 672.02344 L 1050.2246 672.02344 C 1036.962 672.02344 1035.673 671.85854 1033.7461 669.93164 C 1032.4616 668.64714 1031.7869 668.15853 1024.9395 668.14453 L 1024.9395 668.14062 z M 779.03906 670.02344 L 778.45117 676.77344 C 778.12837 680.48594 777.38949 692.07344 776.80859 702.52344 C 776.22779 712.97344 775.6236 722.76094 775.4668 724.27344 L 775.18164 727.02344 L 802.98633 727.02344 L 830.78906 727.02344 L 832.32617 724.67773 C 833.17137 723.38773 834.96691 719.51401 836.31641 716.07031 C 838.96851 709.30311 841.64512 704.41844 848.66602 693.52344 C 854.91882 683.82004 859.29228 678.62689 865.11328 673.99219 L 870.09766 670.02344 L 824.56836 670.02344 L 779.03906 670.02344 z M 408.26172 670.04883 C 394.57812 670.01203 381.66692 672.45689 373.07422 676.71289 C 363.52812 681.44109 353.54544 690.60072 350.36914 697.54492 C 336.93024 726.92532 347.3877 760.0018 375.125 775.8457 C 379.2859 778.2225 385.08637 780.83348 388.01367 781.64648 C 401.08757 785.27738 411.16679 784.97671 424.30469 780.56641 C 438.48189 775.80731 448.63243 767.55569 456.95312 754.02539 C 463.54942 743.29919 466.93603 726.91121 464.99023 715.12891 C 462.98713 702.99961 460.47351 697.86817 452.25781 689.13477 C 446.01641 682.50017 443.32457 680.48993 435.57617 676.67773 C 424.31487 671.13723 419.96062 670.07983 408.26172 670.04883 z M 765.01562 670.34961 C 713.83947 670.30511 510.73085 671.79068 510.19141 672.33008 C 509.88211 672.63948 510.35168 683.38373 511.23438 696.20703 C 512.11718 709.03023 512.83594 720.53398 512.83594 721.77148 L 512.83594 724.02148 L 535.58594 724.04688 C 548.09808 724.06047 595.45823 724.72557 640.83203 725.52344 L 640.83594 725.52344 C 686.20981 726.32131 734.65243 726.986 748.48633 727 L 773.64062 727.02344 L 774.24805 716.27344 C 774.58295 710.36094 775.33783 697.72175 775.92383 688.18555 C 776.50983 678.64935 776.81958 670.67906 776.61328 670.47266 C 776.53729 670.39656 772.3265 670.36156 765.01562 670.35156 L 765.01562 670.34961 z M 304.88281 671.02539 C 284.50714 671.02539 267.83594 671.17823 267.83594 671.36523 C 267.83594 671.55223 266.94497 675.18942 265.85547 679.44922 C 263.88387 687.15702 263.88345 687.21218 265.84375 690.85938 C 267.90735 694.69877 274.44363 708.91049 275.92383 712.77539 C 276.77663 715.00239 276.98745 715.02539 296.21875 715.02539 L 315.65234 715.02539 L 319.44922 705.27539 C 323.97392 693.65549 327.52343 687.76254 335.76953 678.18164 L 341.92969 671.02539 L 304.88281 671.02539 z M 243.33594 672.02539 C 242.50264 672.02539 241.83594 672.91429 241.83594 674.02539 C 241.83594 675.12539 241.94844 675.98831 242.08594 675.94531 C 245.11554 674.98861 246.06054 672.02539 243.33594 672.02539 z M 467.84375 672.02539 L 472.91602 678.27539 C 478.69462 685.39589 485.33526 698.58229 489.41016 711.02539 C 490.94116 715.70039 493.09235 720.53789 494.18945 721.77539 C 495.93145 723.74019 497.15768 724.02539 503.86328 724.02539 L 511.54297 724.02539 L 511.17383 719.27539 C 509.21243 693.92479 507.83594 675.13467 507.83594 673.73047 C 507.83594 672.18047 506.01664 672.02539 487.83984 672.02539 L 467.84375 672.02539 z M 921.95117 672.10938 C 912.13522 672.05328 906.22546 673.72042 895.29102 679.07422 C 887.90452 682.69072 883.23574 685.84574 877.64844 690.99414 C 870.79364 697.31044 869.77086 698.75437 867.19336 705.75977 C 864.62006 712.75417 864.34895 714.66679 864.46875 725.02539 C 864.62805 738.80089 866.56433 746.3162 872.61523 756.6582 C 880.15183 769.5395 891.54926 778.80908 905.41406 783.33008 C 913.15096 785.85288 923.82895 787.26247 928.83594 786.42188 C 940.10224 784.53068 944.08844 783.45421 949.14844 780.94531 C 967.39934 771.89571 977.95973 759.06414 982.92773 739.89844 C 985.59173 729.62124 985.17083 717.15149 981.79883 706.52539 C 979.94463 700.68239 978.63127 698.59131 973.85547 693.88281 C 966.00127 686.13941 959.16744 681.84484 946.83594 676.89844 C 937.58234 673.18674 935.15943 672.63222 926.42383 672.23242 C 924.83611 672.15932 923.35344 672.11937 921.95117 672.10938 z M 405.40234 673.02539 C 425.22104 673.02539 445.35873 687.45507 451.61133 706.13867 C 456.75783 721.51677 456.1737 733.48186 449.625 746.81836 C 443.2773 759.74526 428.79174 770.60067 414.83594 772.88867 C 404.67304 774.55497 396.80115 774.17855 389.68164 771.68555 C 359.96472 761.27995 346.51532 729.43531 359.94922 701.28711 C 363.51232 693.82131 372.97957 683.79242 380.35547 679.66992 C 386.75247 676.09462 398.32254 673.02539 405.40234 673.02539 z M 497.24805 674.17969 C 499.06031 674.25669 500.63321 675.22364 501.49609 676.96094 C 502.95289 679.89374 501.75003 682.73163 498.51953 683.98633 C 493.47173 685.94673 489.08342 677.56664 493.82812 675.02734 C 494.98632 674.40754 496.1607 674.13369 497.24805 674.17969 z M 404.45898 675.05078 C 400.35233 675.06118 396.34649 675.57482 392.76758 676.63672 C 366.02928 684.56992 351.78302 709.26906 358.16602 736.63086 C 361.41942 750.57666 375.10204 764.78416 390.33594 770.03516 C 401.10174 773.74616 419.65902 771.76334 429.32422 765.86914 C 430.98092 764.85884 431.89296 764.0293 431.35156 764.0293 C 430.81016 764.0273 431.75432 763.23789 433.44922 762.27539 C 438.60032 759.35009 440.35837 757.73549 444.07227 752.52539 C 448.49567 746.31999 452.96253 735.50515 452.39453 732.37305 C 452.16043 731.08195 452.41795 730.02539 452.96875 730.02539 C 453.86705 730.02539 453.77466 727.58339 452.41406 715.52539 C 452.04656 712.26859 450.66716 708.02414 449.97656 708.02344 C 449.62366 708.02304 449.2685 706.87214 449.1875 705.46484 C 448.8701 699.97464 439.06564 688.16887 429.52734 681.79297 C 423.01273 677.43827 413.49361 675.02778 404.45898 675.05078 z M 496.79688 676.04492 C 495.04405 675.95362 493.75125 677.43447 494.01953 679.75977 C 494.39493 683.01307 496.89457 683.82408 499.25977 681.45898 C 501.13377 679.58488 500.95121 678.1314 498.66211 676.6875 C 498.01671 676.2804 497.38115 676.07492 496.79688 676.04492 z M 937.33594 676.52539 L 945.33594 680.48828 C 956.63744 686.08898 967.43241 697.08807 970.50781 706.13477 C 976.73141 724.44207 975.72704 738.52049 967.21484 752.30859 C 964.48854 756.72449 953.97886 768.02539 952.59766 768.02539 C 952.15706 768.02539 950.11801 769.08059 948.06641 770.37109 C 943.17291 773.44949 937.70634 775.20139 930.33594 776.05469 C 913.70605 777.98009 899.46102 772.7934 888.13672 760.6875 C 881.17612 753.2467 877.18729 745.3665 875.24609 735.2207 C 872.59959 721.3889 873.927 713.58916 881.0957 700.84766 C 885.8766 692.34996 894.15424 684.85687 903.83594 680.26367 C 911.18674 676.77637 911.59464 676.70423 924.33594 676.61523 L 937.33594 676.52539 z M 925.77539 677.62891 C 923.52056 677.64331 921.14615 677.83364 918.56055 678.18164 C 901.24605 680.51184 888.19808 690.04659 880.45508 706.02539 L 876.33594 714.52539 L 876.48828 726.02539 C 876.61808 735.83679 877.01794 738.46013 879.21094 743.89453 C 882.30654 751.56553 885.4493 755.92141 892.5918 762.44141 C 899.0399 768.32741 904.75055 771.50639 912.50195 773.52539 C 928.70694 777.74619 945.30454 772.96531 958.33594 760.32031 C 967.01544 751.89801 972.83398 739.16693 972.83398 728.61523 C 972.83248 722.22553 970.60043 710.77529 968.33203 705.52539 C 964.53123 696.72869 955.31304 687.54739 945.33594 682.62109 C 938.23141 679.11309 932.5399 677.58591 925.77539 677.62891 z M 243.33594 680.02539 C 242.50264 680.02539 241.83594 680.91429 241.83594 682.02539 C 241.83594 684.35639 242.02097 684.43802 243.63477 682.82422 C 245.26797 681.19102 245.14414 680.02539 243.33594 680.02539 z M 1059.3359 687.16992 C 1049.6922 687.01352 1033.7333 688.7275 1032.3984 690.0625 C 1031.8697 690.5919 1031.6373 690.96462 1031.8848 690.89062 C 1032.503 690.70683 1046.3459 689.26555 1057.8359 688.18945 L 1067.3359 687.30078 L 1059.3359 687.16992 z M 1069.8359 690.1543 C 1069.3827 690.1543 1068.9296 690.22458 1068.5859 690.36328 C 1067.8984 690.64068 1068.4609 690.86719 1069.8359 690.86719 C 1071.2109 690.86719 1071.7734 690.64068 1071.0859 690.36328 C 1070.7421 690.22428 1070.289 690.1543 1069.8359 690.1543 z M 1056.9668 691.14453 C 1056.2418 691.14813 1055.5523 691.21279 1055.0742 691.33789 C 1054.1182 691.58819 1055.1359 691.78444 1057.3359 691.77344 C 1059.5359 691.76234 1060.3182 691.55756 1059.0742 691.31836 C 1058.4523 691.19856 1057.6918 691.14453 1056.9668 691.14453 z M 1028.9375 691.56836 C 1028.9215 691.55736 1028.8992 691.56566 1028.8672 691.59766 C 1028.0186 692.45086 1021.9628 707.56619 1020.3828 712.77539 C 1020.0074 714.01289 1020.0731 715.02539 1020.5273 715.02539 C 1020.9816 715.02539 1023.2506 709.54446 1025.5703 702.84766 C 1027.745 696.56946 1029.1854 691.72946 1028.9395 691.56836 L 1028.9375 691.56836 z M 1040.9629 692.13867 C 1040.0567 692.14117 1039.1873 692.20161 1038.5723 692.32031 C 1037.3424 692.55771 1038.5859 692.74828 1041.3359 692.73828 C 1044.0859 692.73078 1045.0924 692.53654 1043.5723 692.30664 C 1042.8123 692.19164 1041.8692 692.13867 1040.9629 692.13867 z M 1072.6777 693.83398 L 1055.5059 694.66602 C 1046.0619 695.12332 1036.4258 695.49977 1034.0918 695.50977 L 1029.8477 695.52539 L 1027.4102 702.77539 C 1026.0695 706.76289 1025.0543 709.96744 1025.1543 709.89844 C 1025.254 709.82934 1032.5359 709.15062 1041.3359 708.39062 C 1050.1359 707.63062 1060.0593 706.76208 1063.3887 706.45898 L 1069.4434 705.9082 L 1071.0605 699.87109 L 1072.6777 693.83398 z M 263.21484 694.52539 L 244.77539 694.87891 C 234.63379 695.07431 226.19644 695.36448 226.02734 695.52148 C 225.85824 695.67858 227.33509 698.33102 229.30859 701.41602 L 232.89648 707.02539 L 250.36719 707.02539 C 259.97529 707.02539 267.83594 706.89578 267.83594 706.73828 C 267.83594 706.58088 266.79629 703.76838 265.52539 700.48828 L 263.21484 694.52539 z M 266.0332 696.22266 C 265.9282 696.22016 265.86719 696.31919 265.86719 696.52539 C 265.86719 697.07539 266.30274 698.20039 266.83594 699.02539 C 267.36914 699.85039 267.80469 700.07539 267.80469 699.52539 C 267.80469 698.97539 267.36914 697.85039 266.83594 697.02539 C 266.50274 696.50979 266.2078 696.22266 266.0332 696.22266 z M 268.17969 701.42383 C 268.04019 701.41133 268.1177 701.93949 268.4082 703.02539 C 268.776 704.40039 269.49421 706.20039 270.00391 707.02539 C 270.64801 708.06789 270.72642 707.76289 270.26172 706.02539 C 269.89392 704.65039 269.17767 702.85039 268.66797 702.02539 C 268.42647 701.63449 268.26369 701.43383 268.17969 701.42383 z M 345.49219 703.41406 C 344.27649 703.53326 337.72347 718.47888 335.80273 725.64648 C 334.28493 731.31028 329.85689 752.19069 329.83789 753.77539 C 329.83629 753.91289 334.38446 754.02539 339.94336 754.02539 C 349.16566 754.02539 349.98987 753.87219 349.35938 752.27539 C 344.38128 739.66749 342.83594 732.80509 342.83594 723.30469 C 342.83594 716.79859 343.39017 711.75084 344.44727 708.64844 C 345.33407 706.04564 345.85055 703.70602 345.59375 703.44922 C 345.56599 703.42422 345.53139 703.41406 345.49219 703.41406 z M 984.41406 706.1582 C 984.38476 706.1572 984.36084 706.1665 984.33984 706.1875 C 984.14084 706.3866 984.64905 709.91891 985.46875 714.03711 C 987.14195 722.44411 986.70598 733.18039 984.33398 742.02539 C 983.52278 745.05039 982.85766 747.63789 982.84766 747.77539 C 982.80986 748.56989 997.82528 747.85196 998.33008 747.03516 C 999.33158 745.41456 997.22148 736.16673 993.52148 725.95703 C 990.13919 716.62393 985.32216 706.1912 984.41406 706.1582 z M 864.24609 707.02539 C 863.34799 707.02539 857.17601 721.14539 855.50391 727.02539 C 854.21551 731.55629 850.83594 751.23127 850.83594 754.20117 C 850.83594 755.02457 863.95532 755.16495 866.88672 754.37305 C 868.22182 754.01245 868.0507 752.81003 865.6582 745.74023 C 863.2034 738.48623 862.87642 736.04094 862.85742 724.83984 C 862.84572 717.86314 863.27425 711.00064 863.81055 709.58984 C 864.34695 708.17904 864.54329 707.02539 864.24609 707.02539 z M 406.12109 707.34961 C 406.28842 707.33729 406.45609 707.33704 406.62305 707.34961 C 407.23949 707.39591 407.84472 707.61785 408.38281 708.06445 C 410.16261 709.54155 410.29654 713.67496 408.58594 714.35156 C 406.99514 714.98076 403.52818 714.0536 402.70898 712.7793 C 401.1876 710.41305 403.61118 707.53446 406.12109 707.34961 z M 1068.3359 707.76367 L 1061.3359 708.39844 C 1057.4859 708.74714 1047.8109 709.49941 1039.8359 710.07031 C 1025.0905 711.12581 1022.8359 711.87364 1022.8359 715.71484 C 1022.8359 717.46794 1029.1304 717.25458 1044.3359 714.98438 C 1050.9359 713.99897 1057.9455 713.15538 1059.9121 713.10938 C 1062.422 713.05037 1064.2104 712.24083 1065.9121 710.39453 L 1068.3359 707.76367 z M 251.71289 709.02539 C 234.71799 709.02539 234.54647 709.04637 236.29688 710.98047 C 237.28838 712.07607 239.88497 713.15489 242.20117 713.43359 C 250.45977 714.42729 269.727 715.00759 270.1582 714.27539 C 270.4014 713.86229 270.2177 712.51289 269.75 711.27539 C 268.9136 709.06239 268.61809 709.02539 251.71289 709.02539 z M 405.55273 709.4082 C 405.21879 709.4309 404.91369 709.5454 404.67969 709.7793 C 404.09099 710.3681 403.91165 711.3397 404.28125 711.9375 C 405.09115 713.2481 407.50443 713.37017 408.26562 712.13867 C 409.00419 710.94367 406.99981 709.3092 405.55273 709.4082 z M 926.42969 710.02539 C 929.07549 710.02539 930.20997 712.45726 928.79688 715.09766 C 927.20698 718.06856 921.83594 717.31169 921.83594 714.11719 C 921.83594 711.78309 923.8105 710.02539 926.42969 710.02539 z M 466.21484 710.58789 C 466.05041 710.49079 466.06092 710.80719 466.22852 711.52539 C 468.89592 722.95329 466.92602 736.63309 460.35742 752.27539 C 459.69262 753.85859 460.39432 754.02539 467.72852 754.02539 C 477.13302 754.02539 476.46743 755.43109 474.36133 740.02539 C 472.81503 728.71349 469.65976 716.32686 467.25586 712.13086 C 466.71961 711.19486 466.3793 710.68489 466.21484 710.58789 z M 926.0332 711.50781 C 924.99999 711.61806 923.83594 712.51812 923.83594 713.63086 C 923.83594 715.22976 926.41184 715.52049 927.33594 714.02539 C 927.6758 713.47539 927.68838 712.59436 927.36328 712.06836 C 927.15763 711.73566 926.83406 711.55972 926.46484 711.51172 C 926.32639 711.49361 926.18081 711.49206 926.0332 711.50781 z M 258.84766 715.97266 C 254.77726 715.98176 255.80979 717.49159 260.80859 729.52539 C 262.86479 734.47539 264.79561 739.24169 265.09961 740.11719 C 265.54201 741.39169 267.91374 741.83813 276.99414 742.36133 C 283.23224 742.72073 292.94844 743.01953 298.58594 743.01953 C 308.76495 743.02403 308.83594 743.00782 308.83594 740.60352 C 308.83594 738.53322 311.87228 724.19749 313.45898 718.77539 C 313.93328 717.15429 312.63841 717.02539 295.88477 717.02539 L 277.79688 717.02539 L 278.42578 719.52539 C 280.14788 726.38689 276.53885 728.75602 266.31445 727.47852 C 259.46925 726.62332 259.59762 725.03756 266.66602 723.13086 C 270.36722 722.13246 271.83594 721.24245 271.83594 720.00195 C 271.83594 717.19475 269.74829 716.32085 262.49609 716.09375 C 260.99939 716.04665 259.78706 715.97266 258.84766 715.97266 z M 393.58594 716.09961 C 394.25908 716.15291 394.93866 716.52841 395.63477 717.22461 C 396.92827 718.51811 397.25652 722.27092 396.16992 723.35742 C 394.96712 724.56032 391.10624 724.0553 389.83984 722.5293 C 388.83994 721.3245 388.91753 720.548 390.24023 718.5293 C 391.36204 716.8172 392.46405 716.01061 393.58594 716.09961 z M 1053.0137 716.14844 C 1051.8676 716.10854 1047.3838 716.47663 1042.1699 717.04883 C 1036.2112 717.70273 1028.7937 718.46554 1025.6875 718.74414 C 1020.359 719.22204 1020.006 719.41962 1019.4375 722.26172 C 1018.2268 728.31562 1018.0812 728.21446 1027.5098 727.88086 C 1033.0909 727.68336 1036.3134 727.9598 1036.5449 728.6543 C 1036.7773 729.3515 1033.2703 729.98491 1026.6426 730.44141 C 1020.9979 730.83021 1016.2555 731.27183 1016.1035 731.42383 C 1015.9515 731.57583 1016.3234 733.12408 1016.9297 734.86328 C 1017.7411 737.19078 1018.5995 737.98158 1020.1836 737.86328 C 1021.3673 737.77488 1027.8082 737.26707 1034.4961 736.73438 L 1046.6562 735.76562 L 1050.1191 726.14453 C 1052.0239 720.85313 1053.452 716.37441 1053.293 716.19141 C 1053.2731 716.16841 1053.1774 716.15844 1053.0137 716.14844 z M 273.64258 717.02539 C 273.34998 717.02539 273.31786 718.0976 273.56836 719.4082 C 274.07216 722.0436 273.07994 722.95422 267.83594 724.66992 L 264.33594 725.81445 L 269.33594 725.88867 C 275.03104 725.97347 277.83594 724.73446 277.83594 722.13086 C 277.83594 720.51266 274.97263 717.02539 273.64453 717.02539 L 273.64258 717.02539 z M 393.10938 718.20117 C 392.87514 718.21887 392.63744 718.27133 392.40234 718.36133 C 391.54034 718.69213 390.83594 719.65184 390.83594 720.49414 C 390.83594 722.24184 394.36997 722.5859 395.38867 720.9375 C 396.21563 719.5997 394.74899 718.07737 393.10938 718.20117 z M 1016.5508 719.04883 C 1016.1941 719.08873 1015.7039 719.29319 1015.0664 719.61719 C 1013.4979 720.41449 1013.413 721.05293 1014.3613 724.89453 L 1015.4395 729.26562 L 1016.5547 724.39648 C 1017.4972 720.29518 1017.6249 718.92903 1016.5547 719.04883 L 1016.5508 719.04883 z M 1055.5371 719.18555 C 1055.4445 719.18035 1055.3146 719.22858 1055.1504 719.33008 C 1054.5867 719.67848 1052.8815 723.37282 1051.3613 727.54102 C 1049.841 731.70912 1048.8659 735.38734 1049.1934 735.71484 C 1049.5208 736.04224 1050.0054 735.68417 1050.2695 734.91797 C 1052.4 728.73687 1054.7385 722.20213 1055.3906 720.61133 C 1055.7678 719.69133 1055.815 719.20155 1055.5371 719.18555 z M 912.67383 719.42383 C 913.21127 719.453 913.78126 719.58944 914.36523 719.85547 C 917.20093 721.14747 917.52807 723.18872 915.26367 725.45312 C 913.38467 727.33223 911.66496 727.45392 910.03516 725.82422 C 907.43337 723.22232 909.17597 719.65949 912.14844 719.42969 C 912.31993 719.41644 912.49468 719.4141 912.67383 719.42383 z M 912.27734 721.02539 C 911.48474 721.02539 910.83594 721.92539 910.83594 723.02539 C 910.83594 725.09569 913.24844 725.78499 914.33594 724.02539 C 915.17294 722.67099 914.04394 721.02539 912.27734 721.02539 z M 256.04102 722.96875 C 255.24242 722.76965 257.12591 729.84869 259.38281 735.27539 C 260.92681 738.98789 262.56127 742.02539 263.01367 742.02539 C 263.46607 742.02539 263.83594 741.88685 263.83594 741.71875 C 263.83594 741.14785 256.64238 723.52642 256.23828 723.10742 C 256.16048 723.02672 256.09402 722.98175 256.04102 722.96875 z M 416.83008 722.99609 C 417.84414 723.03899 418.84727 723.43701 419.63477 724.22461 C 421.26457 725.85431 421.14267 727.57412 419.26367 729.45312 C 417.33477 731.38193 415.91077 731.39587 413.41797 729.50977 C 411.79407 728.28097 411.67568 727.67172 412.64648 725.54102 C 413.42392 723.83472 415.13998 722.92605 416.83008 722.99805 L 416.83008 722.99609 z M 415.66406 724.375 C 415.30633 724.3736 414.97483 724.4861 414.71094 724.75 C 414.08438 725.3769 413.84118 726.59503 414.17188 727.45703 C 414.86397 729.26053 417.39643 729.54273 418.39453 727.92773 C 419.25318 726.53843 417.2142 724.385 415.66406 724.375 z M 936.14258 725.02539 C 938.47618 725.02539 940.11683 727.76612 939.42773 730.51172 C 938.79593 733.02892 936.72397 733.68657 933.41797 732.41797 C 930.22777 731.19377 932.50128 725.02539 936.14258 725.02539 z M 516.9043 725.46289 C 514.49011 725.44689 513.13707 725.44866 513.10547 725.47266 C 512.97907 725.57096 513.15273 728.60826 513.49023 732.22266 L 514.10352 738.79492 L 555.21875 739.38672 C 577.83265 739.71262 636.04844 740.20517 684.58594 740.48047 L 772.57031 740.97852 C 767.00322 742.83992 748.95103 742.41928 691.83594 741.92578 C 647.56094 741.54328 589.39844 741.18295 562.58594 741.12695 L 513.83594 741.02539 L 513.83594 744.52539 L 513.83594 748.02539 L 666.33594 748.02539 L 818.83594 748.02539 L 818.83594 738.52539 L 818.83594 729.02539 L 808.99219 729.02539 C 803.57849 729.02539 793.67859 729.31813 786.99219 729.67773 L 774.83594 730.33203 L 774.83594 734.98633 C 774.83594 737.95803 775.74355 739.78891 772.83594 740.88281 L 772.83594 738.12695 C 772.83594 736.55785 773.10289 733.93829 773.42969 732.30469 L 774.02344 729.33398 L 744.67969 728.67969 C 728.54035 728.31989 691.03594 727.75965 661.33594 727.43555 C 631.63594 727.11135 586.18594 726.49761 560.33594 726.07031 C 540.94844 725.74991 524.14686 725.51884 516.9043 725.46484 L 516.9043 725.46289 z M 496.04883 726.02539 L 496.8457 729.77539 C 497.2839 731.83789 497.94902 737.01289 498.32422 741.27539 C 499.08182 749.88179 498.11164 749.14627 507.58594 748.29297 L 511.83594 747.91016 L 511.83594 736.9668 L 511.83594 726.02539 L 503.94141 726.02539 L 496.04883 726.02539 z M 936.11719 727.17969 L 936.11719 727.18164 C 935.22699 727.25984 934.27444 727.98381 934.02344 729.28711 C 933.79234 730.48711 934.33062 731.02539 935.76172 731.02539 C 937.19282 731.02539 937.83594 730.38217 937.83594 728.95117 C 937.83594 727.66987 937.00739 727.10169 936.11719 727.17969 z M 402.89453 731.11133 C 405.47409 731.11683 407.67512 734.39428 406.45117 737.58398 C 405.85317 739.14228 403.08483 739.46864 401.11133 738.21484 C 399.15912 736.97474 399.14344 732.93327 401.08594 731.67188 C 401.68403 731.28357 402.29924 731.11133 402.89453 731.11133 z M 402.55273 733.4082 C 402.21879 733.4309 401.91369 733.5454 401.67969 733.7793 C 401.09099 734.3681 400.91165 735.3397 401.28125 735.9375 C 402.09115 737.2482 404.50443 737.37017 405.26562 736.13867 C 406.00418 734.94367 403.99981 733.3092 402.55273 733.4082 z M 923.53711 734.01172 C 924.87248 733.99442 926.0498 734.41756 926.4082 735.35156 C 926.6884 736.08176 926.45919 737.88176 925.90039 739.35156 C 924.6984 742.51296 921.88918 742.84739 919.42188 740.12109 C 917.95497 738.50019 917.89371 737.90499 919.00781 736.12109 C 919.84166 734.78579 921.82022 734.03372 923.53711 734.01172 z M 923.14062 735.30859 C 921.75425 735.40699 919.70769 738.00688 920.42773 739.17188 C 920.71753 739.64087 921.82703 740.02539 922.89453 740.02539 C 925.05083 740.02539 925.63288 736.63634 923.68359 735.43164 C 923.5225 735.33254 923.33867 735.29459 923.14062 735.30859 z M 1049.7168 738.02539 C 1049.1668 738.02539 1048.996 738.47539 1049.3359 739.02539 C 1049.6758 739.57539 1050.4031 740.02539 1050.9531 740.02539 C 1051.5031 740.02539 1051.6758 739.57539 1051.3359 739.02539 C 1050.996 738.47539 1050.2668 738.02539 1049.7168 738.02539 z M 1036.7422 738.58789 C 1025.398 738.65659 1013.9721 740.44596 1011.1348 742.59766 C 1009.5557 743.79476 1010.069 743.9467 1015.3359 743.8418 C 1018.6359 743.776 1027.3083 743.03015 1034.6074 742.18555 C 1050.8586 740.30505 1051.9322 738.49589 1036.7422 738.58789 z M 1057.8164 739.02539 C 1054.1585 739.02539 1053.8447 739.22749 1054.3262 741.27539 C 1054.6172 742.51289 1054.5136 744.03345 1054.0957 744.65625 C 1053.4002 745.69275 1026.6741 749.29631 1009.0859 750.72461 L 1001.8359 751.3125 L 1001.8359 754.66992 C 1001.8359 759.05572 1003.5759 759.03178 1015.1836 754.48828 L 1024.0293 751.02539 L 1042.9336 751.02539 L 1061.8359 751.02539 L 1061.8359 745.02539 L 1061.8359 739.02539 L 1057.8164 739.02539 z M 263.54297 743.91602 C 262.98717 743.82882 261.73721 745.09045 260.63281 747.03125 C 259.36031 749.26755 259.25676 750.02539 260.22266 750.02539 C 261.28976 750.02539 263.83594 746.11632 263.83594 744.47852 C 263.83594 744.12502 263.72827 743.94502 263.54297 743.91602 z M 266.15625 744.02539 L 264.99609 746.57227 C 264.35779 747.97317 263.83594 749.32317 263.83594 749.57227 C 263.83594 749.82137 275.76094 750.02539 290.33594 750.02539 C 304.91095 750.02539 316.83594 749.84184 316.83594 749.61914 C 316.83594 749.39644 314.8437 748.04644 312.4082 746.61914 C 308.0238 744.05034 307.77389 744.02539 287.06836 744.02539 L 266.15625 744.02539 z M 818.83594 748.70898 L 800.67578 749.36719 C 790.68758 749.72899 722.06258 750.02539 648.17578 750.02539 L 513.83594 750.02539 L 513.83594 752.52539 L 513.83594 755.02539 L 666.33594 755.02539 L 818.83594 755.02539 L 818.83594 751.86719 L 818.83594 748.70898 z M 996.61328 749.19141 C 996.33772 749.19991 995.99954 749.28363 995.58594 749.39453 C 994.34844 749.72613 990.7944 750.00172 987.6875 750.01172 C 982.0547 750.02532 982.03122 750.03759 979.85742 754.27539 C 978.65842 756.61289 976.28854 760.32539 974.58984 762.52539 C 972.89124 764.72539 971.07002 767.08789 970.54492 767.77539 C 969.35672 769.33079 971.66464 769.28224 985.33594 767.46484 C 990.83594 766.73374 995.89844 766.11008 996.58594 766.08008 C 997.48494 766.04038 997.83594 763.6054 997.83594 757.4082 C 997.83594 750.5444 997.80739 749.15441 996.61328 749.19141 z M 819.83594 749.36719 L 819.83594 752.19531 L 819.83594 755.02539 L 829.58594 755.00781 L 839.33594 754.99023 L 836.33594 753.07617 C 834.68594 752.02327 830.29844 750.75757 826.58594 750.26367 L 819.83594 749.36719 z M 511.83594 749.75391 L 505.08594 750.26953 C 501.37344 750.55313 496.08594 751.71421 493.33594 752.84961 L 488.33594 754.91406 L 500.08594 754.9668 L 511.83594 755.02539 L 511.83594 752.39062 L 511.83594 749.75586 L 511.83594 749.75391 z M 999.31445 750.60938 C 999.10005 750.47278 999.02954 752.47669 998.96094 757.27539 C 998.88584 762.52549 999.23594 766.02539 999.83594 766.02539 C 1001.0053 766.02539 1001.0308 759.45519 999.88672 753.02539 C 999.62324 751.54469 999.4431 750.69137 999.31445 750.60938 z M 259.83594 751.02539 C 259.28594 751.02539 258.83594 751.47539 258.83594 752.02539 C 258.83594 752.57539 259.28594 753.02539 259.83594 753.02539 C 260.38594 753.02539 260.83594 752.57539 260.83594 752.02539 C 260.83594 751.47539 260.38594 751.02539 259.83594 751.02539 z M 262.91992 754.83398 L 261.54883 758.17969 L 260.17773 761.52539 L 269.25781 762.26758 C 274.25111 762.67618 289.02289 763.35118 302.08594 763.76758 L 325.83789 764.52539 L 325.83594 760.83398 C 325.83544 758.80388 325.49844 756.94683 325.08594 756.70703 C 324.67344 756.46723 310.51658 755.94783 293.62695 755.55273 L 262.91992 754.83398 z M 666.33594 757.02539 C 565.33594 757.02539 513.83594 757.36309 513.83594 758.02539 C 513.83594 758.68769 565.33594 759.02539 666.33594 759.02539 C 767.33598 759.02539 818.83594 758.68769 818.83594 758.02539 C 818.83594 757.36309 767.33598 757.02539 666.33594 757.02539 z M 258.90625 758.02539 C 258.35625 758.02539 257.42464 758.92539 256.83594 760.02539 C 256.14814 761.31179 256.12243 762.02539 256.76562 762.02539 C 257.31562 762.02539 258.24724 761.12539 258.83594 760.02539 C 259.52374 758.73899 259.54945 758.02539 258.90625 758.02539 z "
       transform="translate(-6.1035156e-5,0)"
       id="path6090" />
    <path
       style="fill:none;fill-rule:evenodd;stroke:#ff0000;stroke-width:1px;stroke-linecap:butt;stroke-linejoin:miter;stroke-opacity:1"
       d="M 890.24414 525.50781 C 889.61123 525.42537 888.27446 526.04589 886.90625 526.29102 C 884.30438 526.75712 883.04679 529.23603 880.47852 529.86133 C 874.98212 531.19953 869.34018 528.73769 863.69141 528.43359 C 822.49898 526.21609 781.06928 527.49487 739.76367 528.07617 C 705.22666 528.56217 670.42548 526.70082 636.19141 531.29102 C 633.15785 531.69772 630.12817 532.35539 627.26367 533.43359 C 624.87148 534.33409 622.72321 535.78326 620.47852 537.00586 C 574.04161 562.29846 532.89403 599.60783 482.26367 614.86133 C 464.89234 620.09483 446.03783 617.05502 427.97852 618.79102 C 395.15686 621.94622 362.25149 624.94077 329.76367 630.57617 C 303.89837 635.06287 277.38502 638.40847 252.97852 648.07617 C 249.25792 649.54997 244.99459 650.92644 242.62109 654.14844 C 240.44599 657.10114 240.63139 661.22963 240.12109 664.86133 C 238.79429 674.30433 238.69141 693.43359 238.69141 693.43359 L 223.69141 694.14844 C 223.69141 694.14844 229.74862 708.34197 235.47852 713.07617 C 236.75682 714.13227 238.50269 714.50073 240.12109 714.86133 C 243.38299 715.58763 250.12109 715.57617 250.12109 715.57617 C 250.12109 715.57617 260.53352 732.78873 260.47852 742.36133 C 260.47112 743.64353 259.41913 744.70599 259.04883 745.93359 C 258.20603 748.72769 258.19957 751.74156 257.26367 754.50586 C 256.20497 757.63276 252.97852 763.43359 252.97852 763.43359 L 327.62109 767.00586 L 326.90625 755.93359 L 350.47852 756.29102 C 350.47852 756.29102 354.71187 762.25983 357.26367 764.86133 C 360.93547 768.60463 365.11649 771.84603 369.40625 774.86133 C 373.59873 777.80833 377.90584 780.71185 382.62109 782.71875 C 387.16528 784.65285 391.98841 786.19514 396.90625 786.64844 C 403.92549 787.29544 411.07905 786.30543 417.97852 784.86133 C 423.76371 783.65043 429.51683 781.86974 434.76367 779.14844 C 439.07587 776.91194 442.93712 773.82467 446.54883 770.57617 C 450.24627 767.25057 453.61365 763.52026 456.54883 759.50586 C 457.52498 758.17076 459.04883 755.21875 459.04883 755.21875 L 475.12109 755.57617 L 474.76367 760.93359 L 850.47852 762.00586 L 852.26367 756.64844 L 869.94141 756.64844 C 869.94141 756.64844 874.44438 764.30812 877.44141 767.54102 C 880.6646 771.01782 884.66498 773.70015 888.51367 776.46875 C 892.64218 779.43855 896.7362 782.59019 901.37109 784.68359 C 905.88666 786.72309 910.74542 788.13242 915.65625 788.79102 C 920.08132 789.38442 924.61574 789.14143 929.04883 788.61133 C 933.29272 788.10383 937.49994 787.12506 941.54883 785.75586 C 947.12546 783.87006 952.59495 781.49839 957.62109 778.43359 C 960.98644 776.38149 966.90625 771.11133 966.90625 771.11133 C 966.90625 771.11133 969.76652 771.21383 971.19141 771.11133 C 981.14938 770.39523 1000.834 766.82617 1000.834 766.82617 C 1000.834 766.82617 1002.0272 763.82402 1002.9785 762.54102 C 1003.9064 761.28962 1005.0583 760.16507 1006.3711 759.32617 C 1011.9316 755.77297 1024.7637 752.00586 1024.7637 752.00586 L 1063.8711 753.43359 L 1063.6914 735.04102 L 1051.7285 735.75586 C 1051.7285 735.75586 1053.6436 729.92646 1054.584 727.00586 C 1055.7898 723.26076 1058.1562 715.75586 1058.1562 715.75586 C 1058.1562 715.75586 1061.3259 715.27799 1062.7988 714.68359 C 1064.7299 713.90419 1066.7828 713.03405 1068.1562 711.46875 C 1070.1255 709.22455 1070.7612 706.08046 1071.7285 703.25586 C 1073.679 697.56046 1076.1914 685.75586 1076.1914 685.75586 L 1063.8711 686.11133 C 1063.8711 686.11133 1068.3642 673.44717 1069.0488 666.82617 C 1069.4841 662.61577 1068.6667 658.36824 1068.334 654.14844 C 1068.0095 650.03294 1067.6556 645.91467 1067.084 641.82617 C 1066.1463 635.11927 1066.0405 628.10927 1063.5137 621.82617 C 1061.4318 616.64907 1057.9534 612.05324 1054.2285 607.89844 C 1052.0002 605.41294 1047.875 601.5332 1047.875 601.5332 C 1047.875 601.5332 1053.633 595.95924 1056.9062 592.89844 C 1060.3199 589.70624 1066.5488 582.71875 1066.5488 582.71875 L 1065.834 581.64844 C 1065.834 581.64844 1049.1388 580.77183 1040.834 579.86133 C 1031.1439 578.79903 1021.4149 577.72317 1011.9062 575.57617 C 1000.0047 572.88887 988.50258 568.65493 976.90625 564.86133 C 950.42645 556.19883 922.36152 550.84053 897.97852 537.36133 C 896.64428 536.62373 890.71291 534.92623 889.94141 533.61133 C 888.84208 531.73763 890.47852 526.64844 890.47852 526.64844 C 890.75146 525.86037 890.62389 525.55728 890.24414 525.50781 z "
       transform="translate(-6.1035156e-5,0)"
       id="path8904" />
  </g>
</svg>
