<?xml version="1.0" encoding="UTF-8" standalone="no"?>
<!-- Created with Inkscape (http://www.inkscape.org/) -->

<svg
   xmlns:dc="http://purl.org/dc/elements/1.1/"
   xmlns:cc="http://creativecommons.org/ns#"
   xmlns:rdf="http://www.w3.org/1999/02/22-rdf-syntax-ns#"
   xmlns:svg="http://www.w3.org/2000/svg"
   xmlns="http://www.w3.org/2000/svg"
   xmlns:sodipodi="http://sodipodi.sourceforge.net/DTD/sodipodi-0.dtd"
   xmlns:inkscape="http://www.inkscape.org/namespaces/inkscape"
   width="210mm"
   height="297mm"
   viewBox="0 0 744.09448819 1052.3622047"
   id="svg2"
   version="1.1"
   inkscape:version="0.91 r13725"
   sodipodi:docname="private_banking.svg">
  <sodipodi:namedview
     id="base"
     pagecolor="#ffffff"
     bordercolor="#666666"
     borderopacity="1.0"
     inkscape:pageopacity="0.0"
     inkscape:pageshadow="2"
     inkscape:zoom="1.979899"
     inkscape:cx="200.13714"
     inkscape:cy="885.27643"
     inkscape:document-units="px"
     inkscape:current-layer="layer1"
     showgrid="false"
     inkscape:window-width="1360"
     inkscape:window-height="746"
     inkscape:window-x="1432"
     inkscape:window-y="-8"
     inkscape:window-maximized="1" />
  <defs
     id="defs4" />
  <metadata
     id="metadata7">
    <rdf:RDF>
      <cc:Work
         rdf:about="">
        <dc:format>image/svg+xml</dc:format>
        <dc:type
           rdf:resource="http://purl.org/dc/dcmitype/StillImage" />
        <dc:title></dc:title>
      </cc:Work>
    </rdf:RDF>
  </metadata>
  <g
     id="layer1"
     inkscape:groupmode="layer"
     inkscape:label="Layer 1">
    <g
       id="text4136"
       style="font-style:normal;font-weight:normal;font-size:40px;line-height:125%;font-family:sans-serif;letter-spacing:0px;word-spacing:0px;fill:none;fill-opacity:1;stroke:#00ff00;stroke-width:1px;stroke-linecap:butt;stroke-linejoin:miter;stroke-opacity:1">
      <path
         id="path4167"
         d="M80.201172 92.603516L79.21240225 92.92822275L78.882812 93.902344L79.212402625 94.89111325L80.201172 95.220703L81.17529325 94.89111325L81.5 93.902344L81.17529325 92.92822275L80.201172 92.603516L80.201172 92.603516M180.5625 92.603516L177.05664 94.048828L177.28125 94.498047L178.0918 94.283203L178.56787 94.44189425L178.84375 94.917969L179.01953 97.59375L179.01953 108.3457L178.63867 110.06445L177.05664 110.46484L177.05664 110.93359L183.07227 110.93359L183.07227 110.46484L182.06396625 110.3549825L181.5 110.04492L181.1582 108.27734L181.1582 104.36133L181.1582 92.603516L180.5625 92.603516L180.5625 92.603516M181.1582 104.36133L184.78125 108.99023L185.29883 109.9375L185.0888675 110.323255L184.45898 110.46484L184.45898 110.93359L190.20117 110.93359L190.20117 110.46484L188.50195 109.99609L186.29492 107.54492L183.25781 103.7168L186.29492 100.91406L187.837895 99.9057635L189.5957 99.537109L189.5957 99.126953L184.45898 99.126953L184.45898 99.537109L185.1474575 99.72509925L185.37695 100.19141L184.16602 101.61719L181.1582 104.36133L181.1582 104.36133M193.87305 92.603516L192.88427875 92.92822275L192.55469 93.902344L192.88427875 94.89111325L193.87305 95.220703L194.84717 94.89111325L195.17188 93.902344L194.84717 92.92822275L193.87305 92.603516L193.87305 92.603516M53.296875 93.453125L53.296875 93.931641L53.951172 93.931641L55.308594 94.371094L55.674804875 95.130370875L55.796875 96.548828L55.796875 107.83789L55.416016 109.9082L54.864258125 110.31836125L53.951172 110.45508L53.296875 110.45508L53.296875 110.93359L60.787109 110.93359L60.787109 110.45508L60.113281 110.45508L58.755859 110.01562L58.3896485 109.25146375L58.267578 107.83789L58.267578 102.75L61.207031 103.11133L63.4384765 102.7890675L65.152344 101.82227L66.2436525 100.293945125L66.607422 98.287109L66.19726575 96.42675775L64.966797 94.869141L62.8354495 93.807128875L59.703125 93.453125L53.296875 93.453125L53.296875 93.453125M134.78125 93.453125L134.78125 93.931641L135.43555 93.931641L136.80273 94.380859L137.1835925 95.14257825L137.31055 96.548828L137.31055 107.83789L137.17871375 109.2465775L136.7832 110.01562L135.43555 110.45508L134.78125 110.45508L134.78125 110.93359L143.0332 110.93359L146.98828 110.5332L148.3359375 109.92529625L149.46875 108.92188L150.24512125 107.62304875L150.50391 106.14844L150.256107812 104.652463594L149.5127 103.46532875L148.273684687 102.587034531L146.53906 102.01758L147.919067656 101.389525844L148.90478625 100.53076175L149.496216719 99.4412852813L149.69336 98.121094L149.233154531 96.0788572812L147.85253875 94.620117L145.551513594 93.7448729688L142.33008 93.453125L134.78125 93.453125L134.78125 93.453125M142.10547 94.3125L144.05370875 94.55664025L145.62109 95.289062L146.65380875 96.458495875L146.99805 98.013672L146.699587656 99.5389402188L145.80420125 100.62841775L144.311891719 101.282104406L142.22266 101.5L139.78125 101.31445L139.78125 94.605469L142.10547 94.3125L142.10547 94.3125M59.957031 94.498047L61.4340825 94.759277375L62.623047 95.542969L63.414062375 96.81005875L63.677734 98.541016L63.460449125 99.89355425L62.808594 101.11914L61.773437375 101.98339625L60.386719 102.27148L58.267578 102.01758L58.267578 94.742188L59.957031 94.498047L59.957031 94.498047M112.49609 95.25L110.9555675 98.038086L109.989381875 98.974365375L108.89258 99.605469L108.89258 100.02539L110.76758 100.02539L110.76758 107.96484L110.909181719 109.349120625L111.33398625 110.3378925L112.041992656 110.931155625L113.0332 111.12891L113.995729844 110.970217656L114.81299125 110.49414125L116.01172 108.58984L115.51367 108.58984L114.9277325 109.3735375L114.06836 109.63477L113.18945125 109.146485L112.89648 107.68164L112.89648 100.02539L115.65039 100.02539L115.65039 99.126953L112.89648 99.126953L112.89648 95.25L112.49609 95.25L112.49609 95.25M122.41797 98.765625L120.154785 99.21484325L118.42383 100.5625L117.325195 102.61084125L116.95898 105.18164L117.31543 107.5693375L118.38477 109.53711L120.0302725 110.85546625L122.11523 111.29492L123.797365 110.96288875L125.26953 109.9668L126.37793125 108.4628875L126.94922 106.62695L126.54883 106.37305L125.937866406 107.607785938L125.15966875 108.4897425L124.214234219 109.018917813L123.10156 109.19531L121.34131 108.7924775L119.9668 107.58398L119.0878875 105.7748975L118.79492 103.57031L126.94922 103.57031L126.6684575 101.785645L125.82617 100.2207L124.41260125 99.1293945L122.41797 98.765625L122.41797 98.765625M71.285156 98.775391L67.710938 100.2207L67.837891 100.68945L68.746094 100.49414L69.241699375 100.657715L69.517578 101.14844L69.693359 103.69727L69.693359 108.27734L69.576172 109.69336L69.019531 110.25L67.837891 110.46484L67.837891 110.93359L73.882812 110.93359L73.882812 110.46484L72.8256835 110.32324L72.212891 109.89844L71.822266 108.17969L71.822266 102.51562L72.7646485 101.01415875L73.521484 100.51367L74.351562 100.96289L75.367188 101.40234L76.216797 101.1044875L76.5 100.21094L75.982422 99.15625L74.869141 98.775391L74.092773625 98.9414065156L73.326172 99.439453125L71.822266 101.43164L71.822266 98.775391L71.285156 98.775391L71.285156 98.775391M80.708984 98.775391L77.144531 100.2207L77.330078 100.68945L78.199219 100.49414L78.71679725 100.64062375L78.980469 101.08008L79.126953 103.7168L79.126953 108.26758L78.765625 110.03516L78.230956875 110.3574225L77.330078 110.46484L77.330078 110.93359L83.0625 110.93359L83.0625 110.46484L82.166503625 110.3574225L81.626953 110.03516L81.275391 108.26758L81.275391 98.775391L80.708984 98.775391L80.708984 98.775391M102.63281 98.775391L101.019043 98.978027625L99.615234 99.585938L98.641113125 100.52587725L98.316406 101.74414L98.58496075 102.68163875L99.390625 102.99414L100.218260625 102.6840825L100.49414 101.75391L100.46484 101.01172L100.97266 99.986328L102.24219 99.566406L103.20349125 99.7586658438L103.890135 100.33544675L104.30212125 101.296750781L104.43945 102.64258L104.43945 103.11133L99.957031 105.13281L98.772949 106.0044L98.169922 106.76367L97.857422 108.14062L98.03320325 109.25879L98.560547 110.25L99.444337 110.94579875L100.66992 111.17773L102.19336 110.83594L104.43945 109.23438L104.7959025 110.6845725L105.82617 111.16797L107.17626875 110.6845725L108.58984 109.23438L108.58984 108.51172L107.18359 109.53711L106.67578 108.99023L106.55859 106.83203L106.55859 102.82812L106.30469 100.46484L105.88476625 99.795898625L105.11328 99.253906L102.63281 98.775391L102.63281 98.775391M157.63281 98.775391L156.01903875 98.978027625L154.61523 99.585938L153.641115 100.52587725L153.31641 101.74414L153.5849625 102.68163875L154.39062 102.99414L155.21826 102.6840825L155.49414 101.75391L155.46484 101.01172L155.97266 99.986328L157.24219 99.566406L158.20349125 99.7586658438L158.890135 100.33544675L159.30212125 101.296750781L159.43945 102.64258L159.43945 103.11133L154.95703 105.13281L153.77295125 106.0044L153.16992 106.76367L152.85742 108.14062L153.0332 109.25879L153.56055 110.25L154.44434 110.94579875L155.66992 111.17773L157.19336 110.83594L159.43945 109.23438L159.7959025 110.6845725L160.82617 111.16797L162.17626875 110.6845725L163.58984 109.23438L163.58984 108.51172L162.18359 109.53711L161.67578 108.99023L161.55859 106.83203L161.55859 102.82812L161.30469 100.46484L160.88476625 99.795898625L160.11328 99.253906L157.63281 98.775391L157.63281 98.775391M167.34961 98.775391L163.79492 100.2207L163.99023 100.68945L164.84961 100.49414L165.32568375 100.655275L165.60156 101.13867L165.77734 103.88281L165.77734 108.26758L165.46484 109.99609L165.0034175 110.3476525L164.24414 110.46484L163.99023 110.46484L163.99023 110.93359L169.83008 110.93359L169.83008 110.46484L168.7705075 110.35497875L168.20898 110.02539L167.90625 108.26758L167.90625 102.03711L169.4321325 100.78467L170.96289 100.36719L171.761840781 100.558840937L172.33251875 101.1337925L172.78906 103.43359L172.78906 108.26758L172.68164 109.67383L172.17383 110.24023L171.12891 110.46484L170.88477 110.46484L170.88477 110.93359L176.72461 110.93359L176.72461 110.46484L175.74804875 110.3476525L175.2207 109.99609L174.91797 108.26758L174.91797 103.22852L174.72693 101.280277188L174.15381 99.88867425L173.19861 99.0537119375L171.86133 98.775391L169.93017375 99.400390375L167.90625 101.27539L167.90625 98.775391L167.34961 98.775391L167.34961 98.775391M194.38086 98.775391L190.81641 100.2207L191.00195 100.68945L191.87109 100.49414L192.38867125 100.64062375L192.65234 101.08008L192.79883 103.7168L192.79883 108.26758L192.4375 110.03516L191.90283375 110.3574225L191.00195 110.46484L191.00195 110.93359L196.73438 110.93359L196.73438 110.46484L195.83837875 110.3574225L195.29883 110.03516L194.94727 108.26758L194.94727 98.775391L194.38086 98.775391L194.38086 98.775391M201.09961 98.775391L197.54492 100.2207L197.74023 100.68945L198.59961 100.49414L199.07568375 100.655275L199.35156 101.13867L199.52734 103.88281L199.52734 108.26758L199.21484 109.99609L198.7534175 110.3476525L197.99414 110.46484L197.74023 110.46484L197.74023 110.93359L203.58008 110.93359L203.58008 110.46484L202.5205075 110.35497875L201.95898 110.02539L201.65625 108.26758L201.65625 102.03711L203.1821325 100.78467L204.71289 100.36719L205.511840781 100.558840937L206.08251875 101.1337925L206.53906 103.43359L206.53906 108.26758L206.43164 109.67383L205.92383 110.24023L204.87891 110.46484L204.63477 110.46484L204.63477 110.93359L210.47461 110.93359L210.47461 110.46484L209.49804875 110.3476525L208.9707 109.99609L208.66797 108.26758L208.66797 103.22852L208.47693 101.280277188L207.90381 99.88867425L206.94861 99.0537119375L205.61133 98.775391L203.68017375 99.400390375L201.65625 101.27539L201.65625 98.775391L201.09961 98.775391L201.09961 98.775391M217.03711 98.775391L215.34277375 99.056152375L213.79492 99.898438L212.69629 101.24365475L212.33008 103.05273L212.470461094 104.206297344L212.89160375 105.18652375L213.593507031 105.993408281L214.57617 106.62695L213.03076125 108.17968625L212.51562 109.40039L212.8208 110.1083975L213.73633 110.82617L211.90039 112.97461L211.38281 114.16602L211.7661125 115.02783375L212.91602 115.83594L214.59082125 116.4291975L216.54883 116.62695L218.3872025 116.45605375L219.99609 115.94336L221.32422 115.16699125L222.32031 114.18555L222.9501975 113.10156125L223.16016 112.01758L222.9819375 110.9457975L222.44727 110.15234L221.63184 109.62255875L220.61133 109.36133L217.08594 109.16602L214.75195 108.96094L214.24414 108.35547L214.4858375 107.66210875L215.21094 106.87109L216.99805 107.13477L218.836425 106.85400375L220.32812 106.01172L221.3242175 104.72997875L221.65625 103.13086L221.47558375 101.81982375L220.93359 100.75781L222.4668 100.75781L223.19922 100.66992L223.31641 100.15234L223.20898 99.703125L222.4668 99.605469L219.9668 99.605469L218.61425625 98.98291025L217.03711 98.775391L217.03711 98.775391M83.931641 99.126953L83.931641 99.605469L85.137695 100.08154475L86.001953 101.33398L90.210938 111.29492L90.738281 111.29492L94.927734 101.1582L95.572266 100.04492L96.675781 99.605469L96.675781 99.126953L92.818359 99.126953L92.818359 99.605469L93.8364255 99.76171825L94.175781 100.23047L93.873047 101.33398L91.119141 108.10156L88.375 101.57812L88.101562 100.50391L88.357910125 99.830079875L89.126953 99.605469L89.488281 99.605469L89.488281 99.126953L83.931641 99.126953L83.931641 99.126953M216.82227 99.400391L217.73047 99.629882625L218.58008 100.31836L219.19531125 101.5561525L219.40039 103.45312L219.260008906 104.786132813L218.83886625 105.7382825L218.136962969 106.309570938L217.1543 106.5L216.099605 106.22656375L215.2793 105.40625L214.75195 104.12450875L214.57617 102.48633L214.71655125 101.136228594L215.137695 100.171873L215.83960125 99.5932611562L216.82227 99.400391L216.82227 99.400391M121.69531 99.683594L122.752442813 99.8801269688L123.5312525 100.46972575L124.031740938 101.452390156L124.25391 102.82812L118.79492 102.82812L119.0903325 101.5756875L119.72266 100.57227L120.61621375 99.90576325L121.69531 99.683594L121.69531 99.683594M142.06641 102.38867L144.3466775 102.64990125L146.07031 103.43359L147.15429625 104.68603375L147.51562 106.37305L147.1835925 107.90381125L146.1875 109.05859L144.66406125 109.7763625L142.73047 110.01562L139.78125 109.67383L139.78125 102.50586L142.06641 102.38867L142.06641 102.38867M104.43945 103.89258L104.43945 108.39453L102.9941425 109.36132375L101.86133 109.68359L101.09961125 109.5151375L100.51367 109.00977L100.02539 107.53516L100.2133775 106.66113375L100.77734 105.81641L102.068845 104.9204125L104.43945 103.89258L104.43945 103.89258M159.43945 103.89258L159.43945 108.39453L157.9941425 109.36132375L156.86133 109.68359L156.09961125 109.5151375L155.51367 109.00977L155.02539 107.53516L155.2133775 106.66113375L155.77734 105.81641L157.068845 104.9204125L159.43945 103.89258L159.43945 103.89258M214.44922 110.93359L218.90234 111.22656L221.53906 111.55859L222.0517625 111.9443375L222.22266 112.51562L221.87598 113.6289025L220.83594 114.42969L219.36132875 114.92040625L217.69141 115.08398L215.16211 114.79102L213.66797 114.06836L213.21875 113.19922L213.52636875 112.30078L214.44922 110.93359L214.44922 110.93359"
         style="font-style:normal;font-variant:normal;font-weight:normal;font-stretch:normal;font-family:'Angsana New';-inkscape-font-specification:'Angsana New';stroke:#00ff00;fill:none" />
    </g>
  </g>
</svg>
