  0
SECTION
  2
HEADER
  9
$ACADVER
  1
AC1014
  9
$HANDSEED
  5
FFFF
  9
$MEASUREMENT
 70
     1
  0
ENDSEC
  0
SECTION
  2
TABLES
  0
TABLE
  2
VPORT
  5
8
330
0
100
AcDbSymbolTable
 70
     4
  0
VPORT
  5
2E
330
8
100
AcDbSymbolTableRecord
100
AcDbViewportTableRecord
  2
*ACTIVE
 70
     0
 10
0.0
 20
0.0
 11
1.0
 21
1.0
 12
210.0
 22
148.5
 13
0.0
 23
0.0
 14
10.0
 24
10.0
 15
10.0
 25
10.0
 16
0.0
 26
0.0
 36
1.0
 17
0.0
 27
0.0
 37
0.0
 40
341.0
 41
1.24
 42
50.0
 43
0.0
 44
0.0
 50
0.0
 51
0.0
 71
     0
 72
   100
 73
     1
 74
     3
 75
     0
 76
     0
 77
     0
 78
     0
  0
ENDTAB
  0
TABLE
  2
LTYPE
  5
5
330
0
100
AcDbSymbolTable
 70
     1
  0
LTYPE
  5
14
330
5
100
AcDbSymbolTableRecord
100
AcDbLinetypeTableRecord
  2
BYBLOCK
 70
     0
  3

 72
    65
 73
     0
 40
0.0
  0
LTYPE
  5
15
330
5
100
AcDbSymbolTableRecord
100
AcDbLinetypeTableRecord
  2
BYLAYER
 70
     0
  3

 72
    65
 73
     0
 40
0.0
  0
LTYPE
  5
16
330
5
100
AcDbSymbolTableRecord
100
AcDbLinetypeTableRecord
  2
CONTINUOUS
 70
     0
  3
Solid line
 72
    65
 73
     0
 40
0.0
  0
ENDTAB
  0
TABLE
  2
LAYER
  5
2
100
AcDbSymbolTable
 70
2
  0
LAYER
  5
50
100
AcDbSymbolTableRecord
100
AcDbLayerTableRecord
  2
0
 70
0
  6
CONTINUOUS
  0
LAYER
  5
51
100
AcDbSymbolTableRecord
100
AcDbLayerTableRecord
  2
Layer_1
 70
0
  6
CONTINUOUS
  0
ENDTAB
  0
TABLE
  2
STYLE
  5
3
330
0
100
AcDbSymbolTable
 70
     1
  0
STYLE
  5
11
330
3
100
AcDbSymbolTableRecord
100
AcDbTextStyleTableRecord
  2
STANDARD
 70
     0
 40
0.0
 41
1.0
 50
0.0
 71
     0
 42
2.5
  3
txt
  4

  0
ENDTAB
  0
TABLE
  2
VIEW
  5
6
330
0
100
AcDbSymbolTable
 70
     0
  0
ENDTAB
  0
TABLE
  2
UCS
  5
7
330
0
100
AcDbSymbolTable
 70
     0
  0
ENDTAB
  0
TABLE
  2
APPID
  5
9
330
0
100
AcDbSymbolTable
 70
     2
  0
APPID
  5
12
330
9
100
AcDbSymbolTableRecord
100
AcDbRegAppTableRecord
  2
ACAD
 70
     0
  0
ENDTAB
  0
TABLE
  2
DIMSTYLE
  5
A
330
0
100
AcDbSymbolTable
 70
     1
  0
DIMSTYLE
105
27
330
A
100
AcDbSymbolTableRecord
100
AcDbDimStyleTableRecord
  2
ISO-25
 70
     0
  3

  4

  5

  6

  7

 40
1.0
 41
2.5
 42
0.625
 43
3.75
 44
1.25
 45
0.0
 46
0.0
 47
0.0
 48
0.0
140
2.5
141
2.5
142
0.0
143
0.03937007874016
144
1.0
145
0.0
146
1.0
147
0.625
 71
     0
 72
     0
 73
     0
 74
     0
 75
     0
 76
     0
 77
     1
 78
     8
170
     0
171
     3
172
     1
173
     0
174
     0
175
     0
176
     0
177
     0
178
     0
270
     2
271
     2
272
     2
273
     2
274
     3
340
11
275
     0
280
     0
281
     0
282
     0
283
     0
284
     8
285
     0
286
     0
287
     3
288
     0
  0
ENDTAB
  0
TABLE
  2
BLOCK_RECORD
  5
1
330
0
100
AcDbSymbolTable
 70
     1
  0
BLOCK_RECORD
  5
1F
330
1
100
AcDbSymbolTableRecord
100
AcDbBlockTableRecord
  2
*MODEL_SPACE
  0
BLOCK_RECORD
  5
1B
330
1
100
AcDbSymbolTableRecord
100
AcDbBlockTableRecord
  2
*PAPER_SPACE
  0
ENDTAB
  0
ENDSEC
  0
SECTION
  2
BLOCKS
  0
BLOCK
  5
20
330
1F
100
AcDbEntity
  8
0
100
AcDbBlockBegin
  2
*MODEL_SPACE
 70
     0
 10
0.0
 20
0.0
 30
0.0
  3
*MODEL_SPACE
  1

  0
ENDBLK
  5
21
330
1F
100
AcDbEntity
  8
0
100
AcDbBlockEnd
  0
BLOCK
  5
1C
330
1B
100
AcDbEntity
 67
     1
  8
0
100
AcDbBlockBegin
  2
*PAPER_SPACE
  1

  0
ENDBLK
  5
1D
330
1B
100
AcDbEntity
 67
     1
  8
0
100
AcDbBlockEnd
  0
ENDSEC
  0
SECTION
  2
ENTITIES
  0
LWPOLYLINE
  5
100
100
AcDbEntity
  8
Layer_1
 62
3
100
AcDbPolyline
 90
10
 70
0
 10
22.634553
 20
270.865230
 30
0.0
 10
22.355500
 20
270.773590
 30
0.0
 10
22.262482
 20
270.498672
 30
0.0
 10
22.355500
 20
270.219619
 30
0.0
 10
22.634553
 20
270.126602
 30
0.0
 10
22.909472
 20
270.219619
 30
0.0
 10
23.001111
 20
270.498672
 30
0.0
 10
22.909472
 20
270.773590
 30
0.0
 10
22.634553
 20
270.865230
 30
0.0
 10
22.634553
 20
270.865230
 30
0.0
  0
LWPOLYLINE
  5
101
100
AcDbEntity
  8
Layer_1
 62
3
100
AcDbPolyline
 90
20
 70
0
 10
50.958750
 20
270.865230
 30
0.0
 10
49.969318
 20
270.457331
 30
0.0
 10
50.032708
 20
270.330551
 30
0.0
 10
50.261464
 20
270.391185
 30
0.0
 10
50.395821
 20
270.346399
 30
0.0
 10
50.473681
 20
270.212040
 30
0.0
 10
50.523290
 20
269.456875
 30
0.0
 10
50.523290
 20
266.422436
 30
0.0
 10
50.415802
 20
265.937366
 30
0.0
 10
49.969318
 20
265.824367
 30
0.0
 10
49.969318
 20
265.692076
 30
0.0
 10
51.667063
 20
265.692076
 30
0.0
 10
51.667063
 20
265.824367
 30
0.0
 10
51.382497
 20
265.855372
 30
0.0
 10
51.223333
 20
265.942878
 30
0.0
 10
51.126870
 20
266.441728
 30
0.0
 10
51.126870
 20
267.546914
 30
0.0
 10
51.126870
 20
270.865230
 30
0.0
 10
50.958750
 20
270.865230
 30
0.0
 10
50.958750
 20
270.865230
 30
0.0
  0
LWPOLYLINE
  5
102
100
AcDbEntity
  8
Layer_1
 62
3
100
AcDbPolyline
 90
22
 70
0
 10
51.126870
 20
267.546914
 30
0.0
 10
52.149375
 20
266.240535
 30
0.0
 10
52.295448
 20
265.973194
 30
0.0
 10
52.236191
 20
265.864326
 30
0.0
 10
52.058423
 20
265.824367
 30
0.0
 10
52.058423
 20
265.692076
 30
0.0
 10
53.678997
 20
265.692076
 30
0.0
 10
53.678997
 20
265.824367
 30
0.0
 10
53.199439
 20
265.956659
 30
0.0
 10
52.576566
 20
266.648434
 30
0.0
 10
51.719426
 20
267.728814
 30
0.0
 10
52.576566
 20
268.519810
 30
0.0
 10
53.012028
 20
268.804373
 30
0.0
 10
53.508120
 20
268.908416
 30
0.0
 10
53.508120
 20
269.024171
 30
0.0
 10
52.058423
 20
269.024171
 30
0.0
 10
52.058423
 20
268.908416
 30
0.0
 10
52.252727
 20
268.855361
 30
0.0
 10
52.317495
 20
268.723758
 30
0.0
 10
51.975743
 20
268.321371
 30
0.0
 10
51.126870
 20
267.546914
 30
0.0
 10
51.126870
 20
267.546914
 30
0.0
  0
LWPOLYLINE
  5
103
100
AcDbEntity
  8
Layer_1
 62
3
100
AcDbPolyline
 90
10
 70
0
 10
54.715283
 20
270.865230
 30
0.0
 10
54.436230
 20
270.773590
 30
0.0
 10
54.343213
 20
270.498672
 30
0.0
 10
54.436230
 20
270.219619
 30
0.0
 10
54.715283
 20
270.126602
 30
0.0
 10
54.990201
 20
270.219619
 30
0.0
 10
55.081842
 20
270.498672
 30
0.0
 10
54.990201
 20
270.773590
 30
0.0
 10
54.715283
 20
270.865230
 30
0.0
 10
54.715283
 20
270.865230
 30
0.0
  0
LWPOLYLINE
  5
104
100
AcDbEntity
  8
Layer_1
 62
3
100
AcDbPolyline
 90
30
 70
0
 10
15.041563
 20
270.625451
 30
0.0
 10
15.041563
 20
270.490404
 30
0.0
 10
15.226220
 20
270.490404
 30
0.0
 10
15.609314
 20
270.366380
 30
0.0
 10
15.712667
 20
270.152095
 30
0.0
 10
15.747118
 20
269.751775
 30
0.0
 10
15.747118
 20
266.565751
 30
0.0
 10
15.639631
 20
265.981464
 30
0.0
 10
15.483913
 20
265.865707
 30
0.0
 10
15.226220
 20
265.827122
 30
0.0
 10
15.041563
 20
265.827122
 30
0.0
 10
15.041563
 20
265.692076
 30
0.0
 10
17.155473
 20
265.692076
 30
0.0
 10
17.155473
 20
265.827122
 30
0.0
 10
16.965304
 20
265.827122
 30
0.0
 10
16.582209
 20
265.951147
 30
0.0
 10
16.478856
 20
266.166809
 30
0.0
 10
16.444405
 20
266.565751
 30
0.0
 10
16.444405
 20
268.001667
 30
0.0
 10
17.273984
 20
267.899691
 30
0.0
 10
17.903748
 20
267.990641
 30
0.0
 10
18.387439
 20
268.263493
 30
0.0
 10
18.695431
 20
268.694820
 30
0.0
 10
18.798095
 20
269.261194
 30
0.0
 10
18.682339
 20
269.786226
 30
0.0
 10
18.335074
 20
270.225820
 30
0.0
 10
17.733560
 20
270.525544
 30
0.0
 10
16.849549
 20
270.625451
 30
0.0
 10
15.041563
 20
270.625451
 30
0.0
 10
15.041563
 20
270.625451
 30
0.0
  0
LWPOLYLINE
  5
105
100
AcDbEntity
  8
Layer_1
 62
3
100
AcDbPolyline
 90
32
 70
0
 10
38.038264
 20
270.625451
 30
0.0
 10
38.038264
 20
270.490404
 30
0.0
 10
38.222922
 20
270.490404
 30
0.0
 10
38.608770
 20
270.363624
 30
0.0
 10
38.716258
 20
270.148650
 30
0.0
 10
38.752089
 20
269.751775
 30
0.0
 10
38.752089
 20
266.565751
 30
0.0
 10
38.714881
 20
266.168188
 30
0.0
 10
38.603259
 20
265.951147
 30
0.0
 10
38.222922
 20
265.827122
 30
0.0
 10
38.038264
 20
265.827122
 30
0.0
 10
38.038264
 20
265.692076
 30
0.0
 10
40.367148
 20
265.692076
 30
0.0
 10
41.483359
 20
265.805075
 30
0.0
 10
41.863698
 20
265.976639
 30
0.0
 10
42.183403
 20
266.259825
 30
0.0
 10
42.402512
 20
266.626384
 30
0.0
 10
42.475548
 20
267.042551
 30
0.0
 10
42.405613
 20
267.464749
 30
0.0
 10
42.195806
 20
267.799785
 30
0.0
 10
41.846129
 20
268.047659
 30
0.0
 10
41.356579
 20
268.208372
 30
0.0
 10
41.746048
 20
268.385623
 30
0.0
 10
42.024240
 20
268.627985
 30
0.0
 10
42.191154
 20
268.935459
 30
0.0
 10
42.246793
 20
269.308047
 30
0.0
 10
42.116913
 20
269.884411
 30
0.0
 10
41.727272
 20
270.296100
 30
0.0
 10
41.077872
 20
270.543114
 30
0.0
 10
40.168711
 20
270.625451
 30
0.0
 10
38.038264
 20
270.625451
 30
0.0
 10
38.038264
 20
270.625451
 30
0.0
  0
LWPOLYLINE
  5
106
100
AcDbEntity
  8
Layer_1
 62
3
100
AcDbPolyline
 90
13
 70
0
 10
40.105322
 20
270.382917
 30
0.0
 10
40.655158
 20
270.314015
 30
0.0
 10
41.097508
 20
270.107309
 30
0.0
 10
41.388964
 20
269.777269
 30
0.0
 10
41.486116
 20
269.338364
 30
0.0
 10
41.401884
 20
268.907899
 30
0.0
 10
41.149186
 20
268.600424
 30
0.0
 10
40.728023
 20
268.415939
 30
0.0
 10
40.138395
 20
268.354444
 30
0.0
 10
39.449375
 20
268.406811
 30
0.0
 10
39.449375
 20
270.300234
 30
0.0
 10
40.105322
 20
270.382917
 30
0.0
 10
40.105322
 20
270.382917
 30
0.0
  0
LWPOLYLINE
  5
107
100
AcDbEntity
  8
Layer_1
 62
3
100
AcDbPolyline
 90
13
 70
0
 10
16.921207
 20
270.330551
 30
0.0
 10
17.338063
 20
270.256826
 30
0.0
 10
17.673615
 20
270.035651
 30
0.0
 10
17.896858
 20
269.678050
 30
0.0
 10
17.971272
 20
269.189535
 30
0.0
 10
17.909949
 20
268.807819
 30
0.0
 10
17.725981
 20
268.461932
 30
0.0
 10
17.433837
 20
268.218019
 30
0.0
 10
17.042474
 20
268.136716
 30
0.0
 10
16.444405
 20
268.208372
 30
0.0
 10
16.444405
 20
270.261649
 30
0.0
 10
16.921207
 20
270.330551
 30
0.0
 10
16.921207
 20
270.330551
 30
0.0
  0
LWPOLYLINE
  5
108
100
AcDbEntity
  8
Layer_1
 62
3
100
AcDbPolyline
 90
26
 70
0
 10
31.748897
 20
270.118333
 30
0.0
 10
31.314127
 20
269.331474
 30
0.0
 10
31.041448
 20
269.067235
 30
0.0
 10
30.731906
 20
268.889123
 30
0.0
 10
30.731906
 20
268.770612
 30
0.0
 10
31.261073
 20
268.770612
 30
0.0
 10
31.261073
 20
266.529923
 30
0.0
 10
31.301036
 20
266.139248
 30
0.0
 10
31.420925
 20
265.860195
 30
0.0
 10
31.620740
 20
265.692763
 30
0.0
 10
31.900481
 20
265.636952
 30
0.0
 10
32.172128
 20
265.681739
 30
0.0
 10
32.402778
 20
265.816098
 30
0.0
 10
32.741085
 20
266.353534
 30
0.0
 10
32.600525
 20
266.353534
 30
0.0
 10
32.435160
 20
266.132357
 30
0.0
 10
32.192626
 20
266.058632
 30
0.0
 10
31.944578
 20
266.196436
 30
0.0
 10
31.861895
 20
266.609848
 30
0.0
 10
31.861895
 20
268.770612
 30
0.0
 10
32.639110
 20
268.770612
 30
0.0
 10
32.639110
 20
269.024171
 30
0.0
 10
31.861895
 20
269.024171
 30
0.0
 10
31.861895
 20
270.118333
 30
0.0
 10
31.748897
 20
270.118333
 30
0.0
 10
31.748897
 20
270.118333
 30
0.0
  0
LWPOLYLINE
  5
109
100
AcDbEntity
  8
Layer_1
 62
3
100
AcDbPolyline
 90
28
 70
0
 10
34.549072
 20
269.126146
 30
0.0
 10
33.910350
 20
268.999366
 30
0.0
 10
33.421836
 20
268.619028
 30
0.0
 10
33.111777
 20
268.040940
 30
0.0
 10
33.008423
 20
267.315404
 30
0.0
 10
33.109021
 20
266.641543
 30
0.0
 10
33.410813
 20
266.086193
 30
0.0
 10
33.875210
 20
265.714124
 30
0.0
 10
34.463632
 20
265.590100
 30
0.0
 10
34.938367
 20
265.683807
 30
0.0
 10
35.353845
 20
265.964925
 30
0.0
 10
35.666661
 20
266.389363
 30
0.0
 10
35.827891
 20
266.907505
 30
0.0
 10
35.714892
 20
266.979161
 30
0.0
 10
35.542465
 20
266.630692
 30
0.0
 10
35.322840
 20
266.381784
 30
0.0
 10
35.056017
 20
266.232439
 30
0.0
 10
34.741996
 20
266.182657
 30
0.0
 10
34.245214
 20
266.296345
 30
0.0
 10
33.857297
 20
266.637410
 30
0.0
 10
33.609248
 20
267.147973
 30
0.0
 10
33.526566
 20
267.770157
 30
0.0
 10
35.827891
 20
267.770157
 30
0.0
 10
35.748654
 20
268.273829
 30
0.0
 10
35.510941
 20
268.715491
 30
0.0
 10
35.112001
 20
269.023482
 30
0.0
 10
34.549072
 20
269.126146
 30
0.0
 10
34.549072
 20
269.126146
 30
0.0
  0
LWPOLYLINE
  5
10a
100
AcDbEntity
  8
Layer_1
 62
3
100
AcDbPolyline
 90
32
 70
0
 10
20.118255
 20
269.123390
 30
0.0
 10
19.109531
 20
268.715491
 30
0.0
 10
19.145360
 20
268.583200
 30
0.0
 10
19.401675
 20
268.638320
 30
0.0
 10
19.541546
 20
268.592156
 30
0.0
 10
19.619405
 20
268.453662
 30
0.0
 10
19.669015
 20
267.734326
 30
0.0
 10
19.669015
 20
266.441728
 30
0.0
 10
19.635942
 20
266.042096
 30
0.0
 10
19.478845
 20
265.885000
 30
0.0
 10
19.145360
 20
265.824367
 30
0.0
 10
19.145360
 20
265.692076
 30
0.0
 10
20.851371
 20
265.692076
 30
0.0
 10
20.851371
 20
265.824367
 30
0.0
 10
20.553026
 20
265.864330
 30
0.0
 10
20.380083
 20
265.984218
 30
0.0
 10
20.269840
 20
266.469287
 30
0.0
 10
20.269840
 20
268.067814
 30
0.0
 10
20.535801
 20
268.491560
 30
0.0
 10
20.749397
 20
268.632809
 30
0.0
 10
20.983663
 20
268.506029
 30
0.0
 10
21.270295
 20
268.382006
 30
0.0
 10
21.510074
 20
268.466067
 30
0.0
 10
21.590000
 20
268.718246
 30
0.0
 10
21.443928
 20
269.015903
 30
0.0
 10
21.129735
 20
269.123390
 30
0.0
 10
20.910627
 20
269.076536
 30
0.0
 10
20.694275
 20
268.935977
 30
0.0
 10
20.269840
 20
268.373737
 30
0.0
 10
20.269840
 20
269.123390
 30
0.0
 10
20.118255
 20
269.123390
 30
0.0
 10
20.118255
 20
269.123390
 30
0.0
  0
LWPOLYLINE
  5
10b
100
AcDbEntity
  8
Layer_1
 62
3
100
AcDbPolyline
 90
20
 70
0
 10
22.777869
 20
269.123390
 30
0.0
 10
21.771901
 20
268.715491
 30
0.0
 10
21.824266
 20
268.583200
 30
0.0
 10
22.069557
 20
268.638320
 30
0.0
 10
22.215629
 20
268.596980
 30
0.0
 10
22.290043
 20
268.472955
 30
0.0
 10
22.331385
 20
267.728814
 30
0.0
 10
22.331385
 20
266.444483
 30
0.0
 10
22.229410
 20
265.945633
 30
0.0
 10
22.078514
 20
265.854683
 30
0.0
 10
21.824266
 20
265.824367
 30
0.0
 10
21.824266
 20
265.692076
 30
0.0
 10
23.442083
 20
265.692076
 30
0.0
 10
23.442083
 20
265.824367
 30
0.0
 10
23.189213
 20
265.854683
 30
0.0
 10
23.036940
 20
265.945633
 30
0.0
 10
22.937721
 20
266.444483
 30
0.0
 10
22.937721
 20
269.123390
 30
0.0
 10
22.777869
 20
269.123390
 30
0.0
 10
22.777869
 20
269.123390
 30
0.0
  0
LWPOLYLINE
  5
10c
100
AcDbEntity
  8
Layer_1
 62
3
100
AcDbPolyline
 90
41
 70
0
 10
28.965260
 20
269.123390
 30
0.0
 10
28.509819
 20
269.066201
 30
0.0
 10
28.113633
 20
268.894635
 30
0.0
 10
27.838714
 20
268.629364
 30
0.0
 10
27.747075
 20
268.285543
 30
0.0
 10
27.822867
 20
268.020960
 30
0.0
 10
28.050243
 20
267.932765
 30
0.0
 10
28.283820
 20
268.020270
 30
0.0
 10
28.361680
 20
268.282785
 30
0.0
 10
28.353410
 20
268.492248
 30
0.0
 10
28.496728
 20
268.781636
 30
0.0
 10
28.855018
 20
268.900148
 30
0.0
 10
29.126319
 20
268.845888
 30
0.0
 10
29.320105
 20
268.683107
 30
0.0
 10
29.436376
 20
268.411806
 30
0.0
 10
29.475134
 20
268.031983
 30
0.0
 10
29.475134
 20
267.899691
 30
0.0
 10
28.210095
 20
267.329185
 30
0.0
 10
27.875921
 20
267.083203
 30
0.0
 10
27.705734
 20
266.868920
 30
0.0
 10
27.617539
 20
266.480314
 30
0.0
 10
27.667148
 20
266.164741
 30
0.0
 10
27.815977
 20
265.885000
 30
0.0
 10
28.065402
 20
265.688630
 30
0.0
 10
28.411289
 20
265.623174
 30
0.0
 10
28.841237
 20
265.719635
 30
0.0
 10
29.475134
 20
266.171631
 30
0.0
 10
29.575732
 20
265.762354
 30
0.0
 10
29.866497
 20
265.625928
 30
0.0
 10
30.247525
 20
265.762354
 30
0.0
 10
30.646466
 20
266.171631
 30
0.0
 10
30.646466
 20
266.375581
 30
0.0
 10
30.249591
 20
266.086193
 30
0.0
 10
30.106276
 20
266.240535
 30
0.0
 10
30.073202
 20
266.849627
 30
0.0
 10
30.073202
 20
267.979619
 30
0.0
 10
30.001546
 20
268.646590
 30
0.0
 10
29.883034
 20
268.835380
 30
0.0
 10
29.665303
 20
268.988342
 30
0.0
 10
28.965260
 20
269.123390
 30
0.0
 10
28.965260
 20
269.123390
 30
0.0
  0
LWPOLYLINE
  5
10d
100
AcDbEntity
  8
Layer_1
 62
3
100
AcDbPolyline
 90
41
 70
0
 10
44.487482
 20
269.123390
 30
0.0
 10
44.032040
 20
269.066201
 30
0.0
 10
43.635854
 20
268.894635
 30
0.0
 10
43.360937
 20
268.629364
 30
0.0
 10
43.269298
 20
268.285543
 30
0.0
 10
43.345089
 20
268.020960
 30
0.0
 10
43.572464
 20
267.932765
 30
0.0
 10
43.806042
 20
268.020270
 30
0.0
 10
43.883902
 20
268.282785
 30
0.0
 10
43.875633
 20
268.492248
 30
0.0
 10
44.018951
 20
268.781636
 30
0.0
 10
44.377240
 20
268.900148
 30
0.0
 10
44.648541
 20
268.845888
 30
0.0
 10
44.842327
 20
268.683107
 30
0.0
 10
44.958599
 20
268.411806
 30
0.0
 10
44.997356
 20
268.031983
 30
0.0
 10
44.997356
 20
267.899691
 30
0.0
 10
43.732317
 20
267.329185
 30
0.0
 10
43.398144
 20
267.083203
 30
0.0
 10
43.227955
 20
266.868920
 30
0.0
 10
43.139761
 20
266.480314
 30
0.0
 10
43.189370
 20
266.164741
 30
0.0
 10
43.338200
 20
265.885000
 30
0.0
 10
43.587625
 20
265.688630
 30
0.0
 10
43.933511
 20
265.623174
 30
0.0
 10
44.363459
 20
265.719635
 30
0.0
 10
44.997356
 20
266.171631
 30
0.0
 10
45.097955
 20
265.762354
 30
0.0
 10
45.388719
 20
265.625928
 30
0.0
 10
45.769747
 20
265.762354
 30
0.0
 10
46.168688
 20
266.171631
 30
0.0
 10
46.168688
 20
266.375581
 30
0.0
 10
45.771813
 20
266.086193
 30
0.0
 10
45.628498
 20
266.240535
 30
0.0
 10
45.595424
 20
266.849627
 30
0.0
 10
45.595424
 20
267.979619
 30
0.0
 10
45.523768
 20
268.646590
 30
0.0
 10
45.405256
 20
268.835380
 30
0.0
 10
45.187526
 20
268.988342
 30
0.0
 10
44.487482
 20
269.123390
 30
0.0
 10
44.487482
 20
269.123390
 30
0.0
  0
LWPOLYLINE
  5
10e
100
AcDbEntity
  8
Layer_1
 62
3
100
AcDbPolyline
 90
45
 70
0
 10
47.229779
 20
269.123390
 30
0.0
 10
46.226566
 20
268.715491
 30
0.0
 10
46.281687
 20
268.583200
 30
0.0
 10
46.524223
 20
268.638320
 30
0.0
 10
46.658582
 20
268.592845
 30
0.0
 10
46.736440
 20
268.456420
 30
0.0
 10
46.786049
 20
267.681963
 30
0.0
 10
46.786049
 20
266.444483
 30
0.0
 10
46.697855
 20
265.956659
 30
0.0
 10
46.567631
 20
265.857440
 30
0.0
 10
46.353346
 20
265.824367
 30
0.0
 10
46.281687
 20
265.824367
 30
0.0
 10
46.281687
 20
265.692076
 30
0.0
 10
47.929823
 20
265.692076
 30
0.0
 10
47.929823
 20
265.824367
 30
0.0
 10
47.630788
 20
265.855373
 30
0.0
 10
47.472312
 20
265.948390
 30
0.0
 10
47.386875
 20
266.444483
 30
0.0
 10
47.386875
 20
268.202860
 30
0.0
 10
47.817513
 20
268.556326
 30
0.0
 10
48.249527
 20
268.674149
 30
0.0
 10
48.475008
 20
268.620060
 30
0.0
 10
48.636066
 20
268.457796
 30
0.0
 10
48.764912
 20
267.808742
 30
0.0
 10
48.764912
 20
266.444483
 30
0.0
 10
48.734596
 20
266.047608
 30
0.0
 10
48.591281
 20
265.887757
 30
0.0
 10
48.296381
 20
265.824367
 30
0.0
 10
48.227480
 20
265.824367
 30
0.0
 10
48.227480
 20
265.692076
 30
0.0
 10
49.875612
 20
265.692076
 30
0.0
 10
49.875612
 20
265.824367
 30
0.0
 10
49.600005
 20
265.857440
 30
0.0
 10
49.451175
 20
265.956659
 30
0.0
 10
49.365738
 20
266.444483
 30
0.0
 10
49.365738
 20
267.866618
 30
0.0
 10
49.311822
 20
268.416455
 30
0.0
 10
49.150075
 20
268.809196
 30
0.0
 10
48.880497
 20
269.044841
 30
0.0
 10
48.503086
 20
269.123390
 30
0.0
 10
47.958071
 20
268.947001
 30
0.0
 10
47.386875
 20
268.417834
 30
0.0
 10
47.386875
 20
269.123390
 30
0.0
 10
47.229779
 20
269.123390
 30
0.0
 10
47.229779
 20
269.123390
 30
0.0
  0
LWPOLYLINE
  5
10f
100
AcDbEntity
  8
Layer_1
 62
3
100
AcDbPolyline
 90
20
 70
0
 10
54.858598
 20
269.123390
 30
0.0
 10
53.852631
 20
268.715491
 30
0.0
 10
53.904995
 20
268.583200
 30
0.0
 10
54.150285
 20
268.638320
 30
0.0
 10
54.296358
 20
268.596980
 30
0.0
 10
54.370772
 20
268.472955
 30
0.0
 10
54.412114
 20
267.728814
 30
0.0
 10
54.412114
 20
266.444483
 30
0.0
 10
54.310139
 20
265.945633
 30
0.0
 10
54.159244
 20
265.854683
 30
0.0
 10
53.904995
 20
265.824367
 30
0.0
 10
53.904995
 20
265.692076
 30
0.0
 10
55.522814
 20
265.692076
 30
0.0
 10
55.522814
 20
265.824367
 30
0.0
 10
55.269942
 20
265.854683
 30
0.0
 10
55.117670
 20
265.945633
 30
0.0
 10
55.018452
 20
266.444483
 30
0.0
 10
55.018452
 20
269.123390
 30
0.0
 10
54.858598
 20
269.123390
 30
0.0
 10
54.858598
 20
269.123390
 30
0.0
  0
LWPOLYLINE
  5
110
100
AcDbEntity
  8
Layer_1
 62
3
100
AcDbPolyline
 90
45
 70
0
 10
56.754779
 20
269.123390
 30
0.0
 10
55.751566
 20
268.715491
 30
0.0
 10
55.806687
 20
268.583200
 30
0.0
 10
56.049223
 20
268.638320
 30
0.0
 10
56.183582
 20
268.592845
 30
0.0
 10
56.261440
 20
268.456420
 30
0.0
 10
56.311049
 20
267.681963
 30
0.0
 10
56.311049
 20
266.444483
 30
0.0
 10
56.222855
 20
265.956659
 30
0.0
 10
56.092631
 20
265.857440
 30
0.0
 10
55.878346
 20
265.824367
 30
0.0
 10
55.806687
 20
265.824367
 30
0.0
 10
55.806687
 20
265.692076
 30
0.0
 10
57.454823
 20
265.692076
 30
0.0
 10
57.454823
 20
265.824367
 30
0.0
 10
57.155788
 20
265.855373
 30
0.0
 10
56.997312
 20
265.948390
 30
0.0
 10
56.911875
 20
266.444483
 30
0.0
 10
56.911875
 20
268.202860
 30
0.0
 10
57.342513
 20
268.556326
 30
0.0
 10
57.774527
 20
268.674149
 30
0.0
 10
58.000008
 20
268.620060
 30
0.0
 10
58.161066
 20
268.457796
 30
0.0
 10
58.289912
 20
267.808742
 30
0.0
 10
58.289912
 20
266.444483
 30
0.0
 10
58.259596
 20
266.047608
 30
0.0
 10
58.116281
 20
265.887757
 30
0.0
 10
57.821381
 20
265.824367
 30
0.0
 10
57.752480
 20
265.824367
 30
0.0
 10
57.752480
 20
265.692076
 30
0.0
 10
59.400612
 20
265.692076
 30
0.0
 10
59.400612
 20
265.824367
 30
0.0
 10
59.125005
 20
265.857440
 30
0.0
 10
58.976175
 20
265.956659
 30
0.0
 10
58.890738
 20
266.444483
 30
0.0
 10
58.890738
 20
267.866618
 30
0.0
 10
58.836822
 20
268.416455
 30
0.0
 10
58.675075
 20
268.809196
 30
0.0
 10
58.405497
 20
269.044841
 30
0.0
 10
58.028086
 20
269.123390
 30
0.0
 10
57.483071
 20
268.947001
 30
0.0
 10
56.911875
 20
268.417834
 30
0.0
 10
56.911875
 20
269.123390
 30
0.0
 10
56.754779
 20
269.123390
 30
0.0
 10
56.754779
 20
269.123390
 30
0.0
  0
LWPOLYLINE
  5
111
100
AcDbEntity
  8
Layer_1
 62
3
100
AcDbPolyline
 90
50
 70
0
 10
61.252695
 20
269.123390
 30
0.0
 10
60.774516
 20
269.044153
 30
0.0
 10
60.337677
 20
268.806441
 30
0.0
 10
60.027620
 20
268.426791
 30
0.0
 10
59.924267
 20
267.916230
 30
0.0
 10
59.963886
 20
267.590667
 30
0.0
 10
60.082742
 20
267.314026
 30
0.0
 10
60.280834
 20
267.086305
 30
0.0
 10
60.558164
 20
266.907505
 30
0.0
 10
60.122015
 20
266.469289
 30
0.0
 10
59.976631
 20
266.124779
 30
0.0
 10
60.062759
 20
265.924963
 30
0.0
 10
60.321142
 20
265.722392
 30
0.0
 10
59.802999
 20
265.116055
 30
0.0
 10
59.656926
 20
264.779812
 30
0.0
 10
59.765103
 20
264.536589
 30
0.0
 10
60.089632
 20
264.308524
 30
0.0
 10
60.562298
 20
264.141093
 30
0.0
 10
61.114892
 20
264.085283
 30
0.0
 10
61.633722
 20
264.133514
 30
0.0
 10
62.087785
 20
264.278207
 30
0.0
 10
62.462613
 20
264.497316
 30
0.0
 10
62.743732
 20
264.774300
 30
0.0
 10
62.921500
 20
265.080226
 30
0.0
 10
62.980756
 20
265.386150
 30
0.0
 10
62.930458
 20
265.688630
 30
0.0
 10
62.779563
 20
265.912562
 30
0.0
 10
62.549430
 20
266.062078
 30
0.0
 10
62.261420
 20
266.135802
 30
0.0
 10
61.266476
 20
266.190923
 30
0.0
 10
60.607773
 20
266.248801
 30
0.0
 10
60.464457
 20
266.419678
 30
0.0
 10
60.532670
 20
266.615360
 30
0.0
 10
60.737310
 20
266.838603
 30
0.0
 10
61.241672
 20
266.764187
 30
0.0
 10
61.760502
 20
266.843426
 30
0.0
 10
62.181492
 20
267.081137
 30
0.0
 10
62.462612
 20
267.442873
 30
0.0
 10
62.556319
 20
267.894180
 30
0.0
 10
62.505331
 20
268.264183
 30
0.0
 10
62.352369
 20
268.563907
 30
0.0
 10
62.785075
 20
268.563907
 30
0.0
 10
62.991780
 20
268.588711
 30
0.0
 10
63.024853
 20
268.734784
 30
0.0
 10
62.994534
 20
268.861562
 30
0.0
 10
62.785075
 20
268.889123
 30
0.0
 10
62.079519
 20
268.889123
 30
0.0
 10
61.697801
 20
269.064823
 30
0.0
 10
61.252695
 20
269.123390
 30
0.0
 10
61.252695
 20
269.123390
 30
0.0
  0
LWPOLYLINE
  5
112
100
AcDbEntity
  8
Layer_1
 62
3
100
AcDbPolyline
 90
24
 70
0
 10
23.687374
 20
269.024171
 30
0.0
 10
23.687374
 20
268.889123
 30
0.0
 10
24.027749
 20
268.754764
 30
0.0
 10
24.271662
 20
268.401299
 30
0.0
 10
25.459531
 20
265.590100
 30
0.0
 10
25.608359
 20
265.590100
 30
0.0
 10
26.790716
 20
268.450908
 30
0.0
 10
26.972617
 20
268.765100
 30
0.0
 10
27.284054
 20
268.889123
 30
0.0
 10
27.284054
 20
269.024171
 30
0.0
 10
26.195404
 20
269.024171
 30
0.0
 10
26.195404
 20
268.889123
 30
0.0
 10
26.482725
 20
268.845026
 30
0.0
 10
26.578498
 20
268.712734
 30
0.0
 10
26.493060
 20
268.401299
 30
0.0
 10
25.715846
 20
266.491338
 30
0.0
 10
24.941389
 20
268.332397
 30
0.0
 10
24.864219
 20
268.635563
 30
0.0
 10
24.936566
 20
268.825733
 30
0.0
 10
25.153607
 20
268.889123
 30
0.0
 10
25.255582
 20
268.889123
 30
0.0
 10
25.255582
 20
269.024171
 30
0.0
 10
23.687374
 20
269.024171
 30
0.0
 10
23.687374
 20
269.024171
 30
0.0
  0
LWPOLYLINE
  5
113
100
AcDbEntity
  8
Layer_1
 62
3
100
AcDbPolyline
 90
18
 70
0
 10
61.192063
 20
268.947001
 30
0.0
 10
61.448377
 20
268.882233
 30
0.0
 10
61.688156
 20
268.687930
 30
0.0
 10
61.861788
 20
268.338597
 30
0.0
 10
61.919666
 20
267.803231
 30
0.0
 10
61.880047
 20
267.427025
 30
0.0
 10
61.761191
 20
267.158307
 30
0.0
 10
61.563098
 20
266.997077
 30
0.0
 10
61.285769
 20
266.943333
 30
0.0
 10
60.988111
 20
267.020503
 30
0.0
 10
60.756602
 20
267.252014
 30
0.0
 10
60.607773
 20
267.613750
 30
0.0
 10
60.558164
 20
268.076080
 30
0.0
 10
60.597782
 20
268.457109
 30
0.0
 10
60.716638
 20
268.729271
 30
0.0
 10
60.914732
 20
268.892569
 30
0.0
 10
61.192063
 20
268.947001
 30
0.0
 10
61.192063
 20
268.947001
 30
0.0
  0
LWPOLYLINE
  5
114
100
AcDbEntity
  8
Layer_1
 62
3
100
AcDbPolyline
 90
11
 70
0
 10
34.345121
 20
268.867075
 30
0.0
 10
34.643467
 20
268.811609
 30
0.0
 10
34.863265
 20
268.645211
 30
0.0
 10
35.004514
 20
268.367881
 30
0.0
 10
35.067215
 20
267.979619
 30
0.0
 10
33.526566
 20
267.979619
 30
0.0
 10
33.609938
 20
268.333084
 30
0.0
 10
33.788395
 20
268.616270
 30
0.0
 10
34.040576
 20
268.804373
 30
0.0
 10
34.345121
 20
268.867075
 30
0.0
 10
34.345121
 20
268.867075
 30
0.0
  0
LWPOLYLINE
  5
115
100
AcDbEntity
  8
Layer_1
 62
3
100
AcDbPolyline
 90
13
 70
0
 10
40.094298
 20
268.103642
 30
0.0
 10
40.737840
 20
268.029917
 30
0.0
 10
41.224287
 20
267.808742
 30
0.0
 10
41.530212
 20
267.455275
 30
0.0
 10
41.632186
 20
266.979161
 30
0.0
 10
41.538481
 20
266.547147
 30
0.0
 10
41.257361
 20
266.221242
 30
0.0
 10
40.827413
 20
266.018671
 30
0.0
 10
40.281710
 20
265.951147
 30
0.0
 10
39.449375
 20
266.047608
 30
0.0
 10
39.449375
 20
268.070568
 30
0.0
 10
40.094298
 20
268.103642
 30
0.0
 10
40.094298
 20
268.103642
 30
0.0
  0
LWPOLYLINE
  5
116
100
AcDbEntity
  8
Layer_1
 62
3
100
AcDbPolyline
 90
12
 70
0
 10
29.475134
 20
267.679205
 30
0.0
 10
29.475134
 20
266.408655
 30
0.0
 10
29.067236
 20
266.135804
 30
0.0
 10
28.747531
 20
266.044853
 30
0.0
 10
28.532557
 20
266.092395
 30
0.0
 10
28.367191
 20
266.235020
 30
0.0
 10
28.229388
 20
266.651188
 30
0.0
 10
28.282442
 20
266.897858
 30
0.0
 10
28.441605
 20
267.136258
 30
0.0
 10
28.806096
 20
267.389128
 30
0.0
 10
29.475134
 20
267.679205
 30
0.0
 10
29.475134
 20
267.679205
 30
0.0
  0
LWPOLYLINE
  5
117
100
AcDbEntity
  8
Layer_1
 62
3
100
AcDbPolyline
 90
12
 70
0
 10
44.997356
 20
267.679205
 30
0.0
 10
44.997356
 20
266.408655
 30
0.0
 10
44.589458
 20
266.135804
 30
0.0
 10
44.269753
 20
266.044853
 30
0.0
 10
44.054779
 20
266.092395
 30
0.0
 10
43.889414
 20
266.235020
 30
0.0
 10
43.751610
 20
266.651188
 30
0.0
 10
43.804664
 20
266.897858
 30
0.0
 10
43.963827
 20
267.136258
 30
0.0
 10
44.328318
 20
267.389128
 30
0.0
 10
44.997356
 20
267.679205
 30
0.0
 10
44.997356
 20
267.679205
 30
0.0
  0
LWPOLYLINE
  5
118
100
AcDbEntity
  8
Layer_1
 62
3
100
AcDbPolyline
 90
15
 70
0
 10
60.522335
 20
265.692076
 30
0.0
 10
61.779105
 20
265.609393
 30
0.0
 10
62.523246
 20
265.515687
 30
0.0
 10
62.667942
 20
265.406820
 30
0.0
 10
62.716173
 20
265.245592
 30
0.0
 10
62.618332
 20
264.931399
 30
0.0
 10
62.324810
 20
264.705399
 30
0.0
 10
61.908642
 20
264.566908
 30
0.0
 10
61.437353
 20
264.520743
 30
0.0
 10
60.723529
 20
264.603423
 30
0.0
 10
60.301849
 20
264.807374
 30
0.0
 10
60.175069
 20
265.052665
 30
0.0
 10
60.261886
 20
265.306224
 30
0.0
 10
60.522335
 20
265.692076
 30
0.0
 10
60.522335
 20
265.692076
 30
0.0
  0
ENDSEC
  0
SECTION
  2
OBJECTS
  0
DICTIONARY
  5
C
330
0
100
AcDbDictionary
  3
ACAD_GROUP
350
D
  3
ACAD_MLINESTYLE
350
17
  0
DICTIONARY
  5
D
330
C
100
AcDbDictionary
  0
DICTIONARY
  5
1A
330
C
100
AcDbDictionary
  0
DICTIONARY
  5
17
330
C
100
AcDbDictionary
  3
STANDARD
350
18
  0
DICTIONARY
  5
19
330
C
100
AcDbDictionary
  0
ENDSEC
  0
EOF
