  0
SECTION
  2
HEADER
  9
$ACADVER
  1
AC1014
  9
$HANDSEED
  5
FFFF
  9
$MEASUREMENT
 70
     1
  0
ENDSEC
  0
SECTION
  2
TABLES
  0
TABLE
  2
VPORT
  5
8
330
0
100
AcDbSymbolTable
 70
     4
  0
VPORT
  5
2E
330
8
100
AcDbSymbolTableRecord
100
AcDbViewportTableRecord
  2
*ACTIVE
 70
     0
 10
0.0
 20
0.0
 11
1.0
 21
1.0
 12
210.0
 22
148.5
 13
0.0
 23
0.0
 14
10.0
 24
10.0
 15
10.0
 25
10.0
 16
0.0
 26
0.0
 36
1.0
 17
0.0
 27
0.0
 37
0.0
 40
341.0
 41
1.24
 42
50.0
 43
0.0
 44
0.0
 50
0.0
 51
0.0
 71
     0
 72
   100
 73
     1
 74
     3
 75
     0
 76
     0
 77
     0
 78
     0
  0
ENDTAB
  0
TABLE
  2
LTYPE
  5
5
330
0
100
AcDbSymbolTable
 70
     1
  0
LTYPE
  5
14
330
5
100
AcDbSymbolTableRecord
100
AcDbLinetypeTableRecord
  2
BYBLOCK
 70
     0
  3

 72
    65
 73
     0
 40
0.0
  0
LTYPE
  5
15
330
5
100
AcDbSymbolTableRecord
100
AcDbLinetypeTableRecord
  2
BYLAYER
 70
     0
  3

 72
    65
 73
     0
 40
0.0
  0
LTYPE
  5
16
330
5
100
AcDbSymbolTableRecord
100
AcDbLinetypeTableRecord
  2
CONTINUOUS
 70
     0
  3
Solid line
 72
    65
 73
     0
 40
0.0
  0
ENDTAB
  0
TABLE
  2
LAYER
  5
2
100
AcDbSymbolTable
 70
2
  0
LAYER
  5
50
100
AcDbSymbolTableRecord
100
AcDbLayerTableRecord
  2
0
 70
0
  6
CONTINUOUS
  0
LAYER
  5
51
100
AcDbSymbolTableRecord
100
AcDbLayerTableRecord
  2
Layer_1
 70
0
  6
CONTINUOUS
  0
ENDTAB
  0
TABLE
  2
STYLE
  5
3
330
0
100
AcDbSymbolTable
 70
     1
  0
STYLE
  5
11
330
3
100
AcDbSymbolTableRecord
100
AcDbTextStyleTableRecord
  2
STANDARD
 70
     0
 40
0.0
 41
1.0
 50
0.0
 71
     0
 42
2.5
  3
txt
  4

  0
ENDTAB
  0
TABLE
  2
VIEW
  5
6
330
0
100
AcDbSymbolTable
 70
     0
  0
ENDTAB
  0
TABLE
  2
UCS
  5
7
330
0
100
AcDbSymbolTable
 70
     0
  0
ENDTAB
  0
TABLE
  2
APPID
  5
9
330
0
100
AcDbSymbolTable
 70
     2
  0
APPID
  5
12
330
9
100
AcDbSymbolTableRecord
100
AcDbRegAppTableRecord
  2
ACAD
 70
     0
  0
ENDTAB
  0
TABLE
  2
DIMSTYLE
  5
A
330
0
100
AcDbSymbolTable
 70
     1
  0
DIMSTYLE
105
27
330
A
100
AcDbSymbolTableRecord
100
AcDbDimStyleTableRecord
  2
ISO-25
 70
     0
  3

  4

  5

  6

  7

 40
1.0
 41
2.5
 42
0.625
 43
3.75
 44
1.25
 45
0.0
 46
0.0
 47
0.0
 48
0.0
140
2.5
141
2.5
142
0.0
143
0.03937007874016
144
1.0
145
0.0
146
1.0
147
0.625
 71
     0
 72
     0
 73
     0
 74
     0
 75
     0
 76
     0
 77
     1
 78
     8
170
     0
171
     3
172
     1
173
     0
174
     0
175
     0
176
     0
177
     0
178
     0
270
     2
271
     2
272
     2
273
     2
274
     3
340
11
275
     0
280
     0
281
     0
282
     0
283
     0
284
     8
285
     0
286
     0
287
     3
288
     0
  0
ENDTAB
  0
TABLE
  2
BLOCK_RECORD
  5
1
330
0
100
AcDbSymbolTable
 70
     1
  0
BLOCK_RECORD
  5
1F
330
1
100
AcDbSymbolTableRecord
100
AcDbBlockTableRecord
  2
*MODEL_SPACE
  0
BLOCK_RECORD
  5
1B
330
1
100
AcDbSymbolTableRecord
100
AcDbBlockTableRecord
  2
*PAPER_SPACE
  0
ENDTAB
  0
ENDSEC
  0
SECTION
  2
BLOCKS
  0
BLOCK
  5
20
330
1F
100
AcDbEntity
  8
0
100
AcDbBlockBegin
  2
*MODEL_SPACE
 70
     0
 10
0.0
 20
0.0
 30
0.0
  3
*MODEL_SPACE
  1

  0
ENDBLK
  5
21
330
1F
100
AcDbEntity
  8
0
100
AcDbBlockEnd
  0
BLOCK
  5
1C
330
1B
100
AcDbEntity
 67
     1
  8
0
100
AcDbBlockBegin
  2
*PAPER_SPACE
  1

  0
ENDBLK
  5
1D
330
1B
100
AcDbEntity
 67
     1
  8
0
100
AcDbBlockEnd
  0
ENDSEC
  0
SECTION
  2
ENTITIES
  0
SPLINE
  5
100
100
AcDbEntity
  8
Layer_1
 62
1
100
AcDbSpline
 70
8
 71
3
 72
8
 73
4
 74
0
 40
0
 40
0
 40
0
 40
0
 40
1
 40
1
 40
1
 40
1
 10
46.882513
 20
94.766281
 30
0.0
 10
45.629917
 20
94.766498
 30
0.0
 10
44.614349
 20
93.751176
 30
0.0
 10
44.614262
 20
92.498580
 30
0.0
  0
SPLINE
  5
101
100
AcDbEntity
  8
Layer_1
 62
1
100
AcDbSpline
 70
8
 71
3
 72
8
 73
4
 74
0
 40
0
 40
0
 40
0
 40
0
 40
1
 40
1
 40
1
 40
1
 10
44.614262
 20
92.498580
 30
0.0
 10
44.615108
 20
92.317394
 30
0.0
 10
44.637714
 20
92.136960
 30
0.0
 10
44.681510
 20
91.961147
 30
0.0
  0
SPLINE
  5
102
100
AcDbEntity
  8
Layer_1
 62
1
100
AcDbSpline
 70
8
 71
3
 72
8
 73
4
 74
0
 40
0
 40
0
 40
0
 40
0
 40
1
 40
1
 40
1
 40
1
 10
44.681510
 20
91.961147
 30
0.0
 10
44.661528
 20
91.958325
 30
0.0
 10
44.631861
 20
91.956279
 30
0.0
 10
44.613711
 20
91.953428
 30
0.0
  0
SPLINE
  5
103
100
AcDbEntity
  8
Layer_1
 62
1
100
AcDbSpline
 70
8
 71
3
 72
8
 73
4
 74
0
 40
0
 40
0
 40
0
 40
0
 40
1
 40
1
 40
1
 40
1
 10
44.613711
 20
91.953428
 30
0.0
 10
42.745271
 20
91.659234
 30
0.0
 10
41.076118
 20
91.092628
 30
0.0
 10
39.482999
 20
90.211590
 30
0.0
  0
SPLINE
  5
104
100
AcDbEntity
  8
Layer_1
 62
1
100
AcDbSpline
 70
8
 71
3
 72
8
 73
4
 74
0
 40
0
 40
0
 40
0
 40
0
 40
1
 40
1
 40
1
 40
1
 10
39.482999
 20
90.211590
 30
0.0
 10
37.864596
 20
89.316567
 30
0.0
 10
36.471188
 20
88.135659
 30
0.0
 10
35.121232
 20
86.514589
 30
0.0
  0
SPLINE
  5
105
100
AcDbEntity
  8
Layer_1
 62
1
100
AcDbSpline
 70
8
 71
3
 72
8
 73
4
 74
0
 40
0
 40
0
 40
0
 40
0
 40
1
 40
1
 40
1
 40
1
 10
35.121232
 20
86.514589
 30
0.0
 10
34.885523
 20
86.231542
 30
0.0
 10
34.188640
 20
85.225287
 30
0.0
 10
34.034236
 20
84.945278
 30
0.0
  0
SPLINE
  5
106
100
AcDbEntity
  8
Layer_1
 62
1
100
AcDbSpline
 70
8
 71
3
 72
8
 73
4
 74
0
 40
0
 40
0
 40
0
 40
0
 40
1
 40
1
 40
1
 40
1
 10
34.034236
 20
84.945278
 30
0.0
 10
33.993099
 20
84.870681
 30
0.0
 10
33.898535
 20
84.706258
 30
0.0
 10
33.824223
 20
84.579823
 30
0.0
  0
SPLINE
  5
107
100
AcDbEntity
  8
Layer_1
 62
1
100
AcDbSpline
 70
8
 71
3
 72
8
 73
4
 74
0
 40
0
 40
0
 40
0
 40
0
 40
1
 40
1
 40
1
 40
1
 10
33.824223
 20
84.579823
 30
0.0
 10
33.610818
 20
84.216724
 30
0.0
 10
33.096544
 20
83.151002
 30
0.0
 10
32.943933
 20
82.755851
 30
0.0
  0
SPLINE
  5
108
100
AcDbEntity
  8
Layer_1
 62
1
100
AcDbSpline
 70
8
 71
3
 72
8
 73
4
 74
0
 40
0
 40
0
 40
0
 40
0
 40
1
 40
1
 40
1
 40
1
 10
32.943933
 20
82.755851
 30
0.0
 10
32.434671
 20
81.437244
 30
0.0
 10
32.159507
 20
80.342792
 30
0.0
 10
31.982063
 20
78.928213
 30
0.0
  0
SPLINE
  5
109
100
AcDbEntity
  8
Layer_1
 62
1
100
AcDbSpline
 70
8
 71
3
 72
8
 73
4
 74
0
 40
0
 40
0
 40
0
 40
0
 40
1
 40
1
 40
1
 40
1
 10
31.982063
 20
78.928213
 30
0.0
 10
31.883037
 20
78.139249
 30
0.0
 10
31.882040
 20
75.960629
 30
0.0
 10
31.980409
 20
75.211919
 30
0.0
  0
SPLINE
  5
10a
100
AcDbEntity
  8
Layer_1
 62
1
100
AcDbSpline
 70
8
 71
3
 72
8
 73
4
 74
0
 40
0
 40
0
 40
0
 40
0
 40
1
 40
1
 40
1
 40
1
 10
31.980409
 20
75.211919
 30
0.0
 10
32.217606
 20
73.407271
 30
0.0
 10
32.686478
 20
71.830366
 30
0.0
 10
33.392070
 20
70.460993
 30
0.0
  0
SPLINE
  5
10b
100
AcDbEntity
  8
Layer_1
 62
1
100
AcDbSpline
 70
8
 71
3
 72
8
 73
4
 74
0
 40
0
 40
0
 40
0
 40
0
 40
1
 40
1
 40
1
 40
1
 10
33.392070
 20
70.460993
 30
0.0
 10
33.950549
 20
69.377124
 30
0.0
 10
34.369166
 20
68.732342
 30
0.0
 10
35.184072
 20
67.702160
 30
0.0
  0
SPLINE
  5
10c
100
AcDbEntity
  8
Layer_1
 62
1
100
AcDbSpline
 70
8
 71
3
 72
8
 73
4
 74
0
 40
0
 40
0
 40
0
 40
0
 40
1
 40
1
 40
1
 40
1
 10
35.184072
 20
67.702160
 30
0.0
 10
35.695083
 20
67.056151
 30
0.0
 10
36.641910
 20
66.117483
 30
0.0
 10
37.492009
 20
65.413516
 30
0.0
  0
SPLINE
  5
10d
100
AcDbEntity
  8
Layer_1
 62
1
100
AcDbSpline
 70
8
 71
3
 72
8
 73
4
 74
0
 40
0
 40
0
 40
0
 40
0
 40
1
 40
1
 40
1
 40
1
 10
37.492009
 20
65.413516
 30
0.0
 10
38.491860
 20
64.585538
 30
0.0
 10
40.029325
 20
63.656654
 30
0.0
 10
41.011520
 20
63.287480
 30
0.0
  0
SPLINE
  5
10e
100
AcDbEntity
  8
Layer_1
 62
1
100
AcDbSpline
 70
8
 71
3
 72
8
 73
4
 74
0
 40
0
 40
0
 40
0
 40
0
 40
1
 40
1
 40
1
 40
1
 10
41.011520
 20
63.287480
 30
0.0
 10
41.232557
 20
63.204399
 30
0.0
 10
41.456906
 20
63.111791
 30
0.0
 10
41.509817
 20
63.081875
 30
0.0
  0
SPLINE
  5
10f
100
AcDbEntity
  8
Layer_1
 62
1
100
AcDbSpline
 70
8
 71
3
 72
8
 73
4
 74
0
 40
0
 40
0
 40
0
 40
0
 40
1
 40
1
 40
1
 40
1
 10
41.509817
 20
63.081875
 30
0.0
 10
41.642541
 20
63.006832
 30
0.0
 10
42.589636
 20
62.691404
 30
0.0
 10
42.870216
 20
62.628776
 30
0.0
  0
SPLINE
  5
110
100
AcDbEntity
  8
Layer_1
 62
1
100
AcDbSpline
 70
8
 71
3
 72
8
 73
4
 74
0
 40
0
 40
0
 40
0
 40
0
 40
1
 40
1
 40
1
 40
1
 10
42.870216
 20
62.628776
 30
0.0
 10
42.996654
 20
62.600553
 30
0.0
 10
43.275298
 20
62.533351
 30
0.0
 10
43.489231
 20
62.479395
 30
0.0
  0
SPLINE
  5
111
100
AcDbEntity
  8
Layer_1
 62
1
100
AcDbSpline
 70
8
 71
3
 72
8
 73
4
 74
0
 40
0
 40
0
 40
0
 40
0
 40
1
 40
1
 40
1
 40
1
 10
43.489231
 20
62.479395
 30
0.0
 10
43.703167
 20
62.425440
 30
0.0
 10
44.021674
 20
62.361751
 30
0.0
 10
44.196993
 20
62.337734
 30
0.0
  0
SPLINE
  5
112
100
AcDbEntity
  8
Layer_1
 62
1
100
AcDbSpline
 70
8
 71
3
 72
8
 73
4
 74
0
 40
0
 40
0
 40
0
 40
0
 40
1
 40
1
 40
1
 40
1
 10
44.196993
 20
62.337734
 30
0.0
 10
44.372313
 20
62.313717
 30
0.0
 10
44.527589
 20
62.286387
 30
0.0
 10
44.542603
 20
62.277101
 30
0.0
  0
SPLINE
  5
113
100
AcDbEntity
  8
Layer_1
 62
1
100
AcDbSpline
 70
8
 71
3
 72
8
 73
4
 74
0
 40
0
 40
0
 40
0
 40
0
 40
1
 40
1
 40
1
 40
1
 10
44.542603
 20
62.277101
 30
0.0
 10
44.603410
 20
62.239526
 30
0.0
 10
45.510238
 20
62.138336
 30
0.0
 10
46.030885
 20
62.111186
 30
0.0
  0
SPLINE
  5
114
100
AcDbEntity
  8
Layer_1
 62
1
100
AcDbSpline
 70
8
 71
3
 72
8
 73
4
 74
0
 40
0
 40
0
 40
0
 40
0
 40
1
 40
1
 40
1
 40
1
 10
46.031438
 20
62.111186
 30
0.0
 10
46.845423
 20
62.068737
 30
0.0
 10
46.940414
 20
62.068457
 30
0.0
 10
47.714848
 20
62.107878
 30
0.0
  0
SPLINE
  5
115
100
AcDbEntity
  8
Layer_1
 62
1
100
AcDbSpline
 70
8
 71
3
 72
8
 73
4
 74
0
 40
0
 40
0
 40
0
 40
0
 40
1
 40
1
 40
1
 40
1
 10
47.714848
 20
62.107878
 30
0.0
 10
48.432091
 20
62.144381
 30
0.0
 10
49.112139
 20
62.220253
 30
0.0
 10
49.632526
 20
62.321749
 30
0.0
  0
SPLINE
  5
116
100
AcDbEntity
  8
Layer_1
 62
1
100
AcDbSpline
 70
8
 71
3
 72
8
 73
4
 74
0
 40
0
 40
0
 40
0
 40
0
 40
1
 40
1
 40
1
 40
1
 10
49.632526
 20
62.321749
 30
0.0
 10
50.415712
 20
62.474496
 30
0.0
 10
50.674168
 20
62.532100
 30
0.0
 10
50.973632
 20
62.620507
 30
0.0
  0
SPLINE
  5
117
100
AcDbEntity
  8
Layer_1
 62
1
100
AcDbSpline
 70
8
 71
3
 72
8
 73
4
 74
0
 40
0
 40
0
 40
0
 40
0
 40
1
 40
1
 40
1
 40
1
 10
50.973632
 20
62.620507
 30
0.0
 10
51.379004
 20
62.740180
 30
0.0
 10
52.116361
 20
62.979510
 30
0.0
 10
52.218827
 20
63.024547
 30
0.0
  0
SPLINE
  5
118
100
AcDbEntity
  8
Layer_1
 62
1
100
AcDbSpline
 70
8
 71
3
 72
8
 73
4
 74
0
 40
0
 40
0
 40
0
 40
0
 40
1
 40
1
 40
1
 40
1
 10
52.218827
 20
63.024547
 30
0.0
 10
52.260974
 20
63.043064
 30
0.0
 10
52.390111
 20
63.095811
 30
0.0
 10
52.506011
 20
63.141957
 30
0.0
  0
SPLINE
  5
119
100
AcDbEntity
  8
Layer_1
 62
1
100
AcDbSpline
 70
8
 71
3
 72
8
 73
4
 74
0
 40
0
 40
0
 40
0
 40
0
 40
1
 40
1
 40
1
 40
1
 10
52.506011
 20
63.141957
 30
0.0
 10
53.113954
 20
63.384008
 30
0.0
 10
53.680289
 20
63.646297
 30
0.0
 10
53.967284
 20
63.818297
 30
0.0
  0
SPLINE
  5
11a
100
AcDbEntity
  8
Layer_1
 62
1
100
AcDbSpline
 70
8
 71
3
 72
8
 73
4
 74
0
 40
0
 40
0
 40
0
 40
0
 40
1
 40
1
 40
1
 40
1
 10
53.967284
 20
63.818297
 30
0.0
 10
54.085942
 20
63.889414
 30
0.0
 10
54.205480
 20
63.947284
 30
0.0
 10
54.232968
 20
63.947284
 30
0.0
  0
SPLINE
  5
11b
100
AcDbEntity
  8
Layer_1
 62
1
100
AcDbSpline
 70
8
 71
3
 72
8
 73
4
 74
0
 40
0
 40
0
 40
0
 40
0
 40
1
 40
1
 40
1
 40
1
 10
54.232968
 20
63.947284
 30
0.0
 10
54.260456
 20
63.947284
 30
0.0
 10
54.318448
 20
63.979954
 30
0.0
 10
54.361952
 20
64.020044
 30
0.0
  0
SPLINE
  5
11c
100
AcDbEntity
  8
Layer_1
 62
1
100
AcDbSpline
 70
8
 71
3
 72
8
 73
4
 74
0
 40
0
 40
0
 40
0
 40
0
 40
1
 40
1
 40
1
 40
1
 10
54.361952
 20
64.020044
 30
0.0
 10
54.405457
 20
64.060133
 30
0.0
 10
54.536123
 20
64.143962
 30
0.0
 10
54.652443
 20
64.206353
 30
0.0
  0
SPLINE
  5
11d
100
AcDbEntity
  8
Layer_1
 62
1
100
AcDbSpline
 70
8
 71
3
 72
8
 73
4
 74
0
 40
0
 40
0
 40
0
 40
0
 40
1
 40
1
 40
1
 40
1
 10
54.652443
 20
64.206353
 30
0.0
 10
54.768764
 20
64.268752
 30
0.0
 10
55.024068
 20
64.430059
 30
0.0
 10
55.219645
 20
64.564645
 30
0.0
  0
SPLINE
  5
11e
100
AcDbEntity
  8
Layer_1
 62
1
100
AcDbSpline
 70
8
 71
3
 72
8
 73
4
 74
0
 40
0
 40
0
 40
0
 40
0
 40
1
 40
1
 40
1
 40
1
 10
55.219645
 20
64.564645
 30
0.0
 10
55.415220
 20
64.699228
 30
0.0
 10
55.637388
 20
64.846774
 30
0.0
 10
55.712981
 20
64.892065
 30
0.0
  0
SPLINE
  5
11f
100
AcDbEntity
  8
Layer_1
 62
1
100
AcDbSpline
 70
8
 71
3
 72
8
 73
4
 74
0
 40
0
 40
0
 40
0
 40
0
 40
1
 40
1
 40
1
 40
1
 10
55.712981
 20
64.892065
 30
0.0
 10
55.788574
 20
64.937356
 30
0.0
 10
55.954515
 20
65.066493
 30
0.0
 10
56.082297
 20
65.179249
 30
0.0
  0
SPLINE
  5
120
100
AcDbEntity
  8
Layer_1
 62
1
100
AcDbSpline
 70
8
 71
3
 72
8
 73
4
 74
0
 40
0
 40
0
 40
0
 40
0
 40
1
 40
1
 40
1
 40
1
 10
56.082297
 20
65.179249
 30
0.0
 10
56.210079
 20
65.292005
 30
0.0
 10
56.419129
 20
65.467471
 30
0.0
 10
56.546420
 20
65.569509
 30
0.0
  0
SPLINE
  5
121
100
AcDbEntity
  8
Layer_1
 62
1
100
AcDbSpline
 70
8
 71
3
 72
8
 73
4
 74
0
 40
0
 40
0
 40
0
 40
0
 40
1
 40
1
 40
1
 40
1
 10
56.546420
 20
65.569509
 30
0.0
 10
56.907986
 20
65.859334
 30
0.0
 10
57.578329
 20
66.499386
 30
0.0
 10
57.921703
 20
66.881952
 30
0.0
  0
SPLINE
  5
122
100
AcDbEntity
  8
Layer_1
 62
1
100
AcDbSpline
 70
8
 71
3
 72
8
 73
4
 74
0
 40
0
 40
0
 40
0
 40
0
 40
1
 40
1
 40
1
 40
1
 10
57.921703
 20
66.881952
 30
0.0
 10
58.813483
 20
67.875518
 30
0.0
 10
59.527276
 20
68.879055
 30
0.0
 10
60.017423
 20
69.828750
 30
0.0
  0
SPLINE
  5
123
100
AcDbEntity
  8
Layer_1
 62
1
100
AcDbSpline
 70
8
 71
3
 72
8
 73
4
 74
0
 40
0
 40
0
 40
0
 40
0
 40
1
 40
1
 40
1
 40
1
 10
60.017423
 20
69.828750
 30
0.0
 10
60.144350
 20
70.074678
 30
0.0
 10
60.272569
 20
70.312832
 30
0.0
 10
60.302400
 20
70.358467
 30
0.0
  0
SPLINE
  5
124
100
AcDbEntity
  8
Layer_1
 62
1
100
AcDbSpline
 70
8
 71
3
 72
8
 73
4
 74
0
 40
0
 40
0
 40
0
 40
0
 40
1
 40
1
 40
1
 40
1
 10
60.302400
 20
70.358467
 30
0.0
 10
60.332231
 20
70.404102
 30
0.0
 10
60.427822
 20
70.605313
 30
0.0
 10
60.514619
 20
70.805504
 30
0.0
  0
SPLINE
  5
125
100
AcDbEntity
  8
Layer_1
 62
1
100
AcDbSpline
 70
8
 71
3
 72
8
 73
4
 74
0
 40
0
 40
0
 40
0
 40
0
 40
1
 40
1
 40
1
 40
1
 10
60.514619
 20
70.805504
 30
0.0
 10
60.601414
 20
71.005696
 30
0.0
 10
60.687972
 20
71.204332
 30
0.0
 10
60.706993
 20
71.246476
 30
0.0
  0
SPLINE
  5
126
100
AcDbEntity
  8
Layer_1
 62
1
100
AcDbSpline
 70
8
 71
3
 72
8
 73
4
 74
0
 40
0
 40
0
 40
0
 40
0
 40
1
 40
1
 40
1
 40
1
 10
60.706993
 20
71.246476
 30
0.0
 10
60.967281
 20
71.823006
 30
0.0
 10
61.292303
 20
72.810120
 30
0.0
 10
61.451685
 20
73.507009
 30
0.0
  0
SPLINE
  5
127
100
AcDbEntity
  8
Layer_1
 62
1
100
AcDbSpline
 70
8
 71
3
 72
8
 73
4
 74
0
 40
0
 40
0
 40
0
 40
0
 40
1
 40
1
 40
1
 40
1
 10
61.451685
 20
73.507009
 30
0.0
 10
61.485422
 20
73.654518
 30
0.0
 10
61.546441
 20
73.912793
 30
0.0
 10
61.586731
 20
74.081376
 30
0.0
  0
SPLINE
  5
128
100
AcDbEntity
  8
Layer_1
 62
1
100
AcDbSpline
 70
8
 71
3
 72
8
 73
4
 74
0
 40
0
 40
0
 40
0
 40
0
 40
1
 40
1
 40
1
 40
1
 10
61.586731
 20
74.081376
 30
0.0
 10
61.732843
 20
74.692734
 30
0.0
 10
61.835276
 20
75.550283
 30
0.0
 10
61.845802
 20
76.245998
 30
0.0
  0
SPLINE
  5
129
100
AcDbEntity
  8
Layer_1
 62
1
100
AcDbSpline
 70
8
 71
3
 72
8
 73
4
 74
0
 40
0
 40
0
 40
0
 40
0
 40
1
 40
1
 40
1
 40
1
 10
61.845802
 20
76.245998
 30
0.0
 10
61.870666
 20
77.889067
 30
0.0
 10
61.862228
 20
78.112613
 30
0.0
 10
61.742726
 20
78.986641
 30
0.0
  0
SPLINE
  5
12a
100
AcDbEntity
  8
Layer_1
 62
1
100
AcDbSpline
 70
8
 71
3
 72
8
 73
4
 74
0
 40
0
 40
0
 40
0
 40
0
 40
1
 40
1
 40
1
 40
1
 10
61.742726
 20
78.986641
 30
0.0
 10
61.679390
 20
79.449833
 30
0.0
 10
61.602609
 20
79.940521
 30
0.0
 10
61.571849
 20
80.077495
 30
0.0
  0
SPLINE
  5
12b
100
AcDbEntity
  8
Layer_1
 62
1
100
AcDbSpline
 70
8
 71
3
 72
8
 73
4
 74
0
 40
0
 40
0
 40
0
 40
0
 40
1
 40
1
 40
1
 40
1
 10
61.571849
 20
80.077495
 30
0.0
 10
61.356762
 20
81.035275
 30
0.0
 10
61.325337
 20
81.156097
 30
0.0
 10
61.127019
 20
81.782405
 30
0.0
  0
SPLINE
  5
12c
100
AcDbEntity
  8
Layer_1
 62
1
100
AcDbSpline
 70
8
 71
3
 72
8
 73
4
 74
0
 40
0
 40
0
 40
0
 40
0
 40
1
 40
1
 40
1
 40
1
 10
61.127019
 20
81.782405
 30
0.0
 10
60.981483
 20
82.242024
 30
0.0
 10
60.917209
 20
82.408103
 30
0.0
 10
60.510208
 20
83.382032
 30
0.0
  0
SPLINE
  5
12d
100
AcDbEntity
  8
Layer_1
 62
1
100
AcDbSpline
 70
8
 71
3
 72
8
 73
4
 74
0
 40
0
 40
0
 40
0
 40
0
 40
1
 40
1
 40
1
 40
1
 10
60.510208
 20
83.382032
 30
0.0
 10
60.265643
 20
83.967268
 30
0.0
 10
59.523983
 20
85.269317
 30
0.0
 10
59.172960
 20
85.729105
 30
0.0
  0
SPLINE
  5
12e
100
AcDbEntity
  8
Layer_1
 62
1
100
AcDbSpline
 70
8
 71
3
 72
8
 73
4
 74
0
 40
0
 40
0
 40
0
 40
0
 40
1
 40
1
 40
1
 40
1
 10
59.172960
 20
85.729105
 30
0.0
 10
59.076432
 20
85.855543
 30
0.0
 10
58.939941
 20
86.044869
 30
0.0
 10
58.869792
 20
86.150234
 30
0.0
  0
SPLINE
  5
12f
100
AcDbEntity
  8
Layer_1
 62
1
100
AcDbSpline
 70
8
 71
3
 72
8
 73
4
 74
0
 40
0
 40
0
 40
0
 40
0
 40
1
 40
1
 40
1
 40
1
 10
58.869792
 20
86.150234
 30
0.0
 10
58.431501
 20
86.808557
 30
0.0
 10
57.332056
 20
87.970666
 30
0.0
 10
56.438382
 20
88.720550
 30
0.0
  0
SPLINE
  5
130
100
AcDbEntity
  8
Layer_1
 62
1
100
AcDbSpline
 70
8
 71
3
 72
8
 73
4
 74
0
 40
0
 40
0
 40
0
 40
0
 40
1
 40
1
 40
1
 40
1
 10
56.438382
 20
88.720550
 30
0.0
 10
55.801418
 20
89.255028
 30
0.0
 10
54.778865
 20
89.962661
 30
0.0
 10
54.172886
 20
90.287657
 30
0.0
  0
SPLINE
  5
131
100
AcDbEntity
  8
Layer_1
 62
1
100
AcDbSpline
 70
8
 71
3
 72
8
 73
4
 74
0
 40
0
 40
0
 40
0
 40
0
 40
1
 40
1
 40
1
 40
1
 10
54.172886
 20
90.287657
 30
0.0
 10
53.983232
 20
90.389373
 30
0.0
 10
53.751325
 20
90.513161
 30
0.0
 10
53.657500
 20
90.563264
 30
0.0
  0
SPLINE
  5
132
100
AcDbEntity
  8
Layer_1
 62
1
100
AcDbSpline
 70
8
 71
3
 72
8
 73
4
 74
0
 40
0
 40
0
 40
0
 40
0
 40
1
 40
1
 40
1
 40
1
 10
53.657500
 20
90.563264
 30
0.0
 10
53.323487
 20
90.741634
 30
0.0
 10
52.269963
 20
91.200042
 30
0.0
 10
52.084882
 20
91.247323
 30
0.0
  0
SPLINE
  5
133
100
AcDbEntity
  8
Layer_1
 62
1
100
AcDbSpline
 70
8
 71
3
 72
8
 73
4
 74
0
 40
0
 40
0
 40
0
 40
0
 40
1
 40
1
 40
1
 40
1
 10
52.084882
 20
91.247323
 30
0.0
 10
52.032202
 20
91.260785
 30
0.0
 10
51.807849
 20
91.328021
 30
0.0
 10
51.586584
 20
91.397253
 30
0.0
  0
SPLINE
  5
134
100
AcDbEntity
  8
Layer_1
 62
1
100
AcDbSpline
 70
8
 71
3
 72
8
 73
4
 74
0
 40
0
 40
0
 40
0
 40
0
 40
1
 40
1
 40
1
 40
1
 10
51.586584
 20
91.397253
 30
0.0
 10
50.707823
 20
91.672214
 30
0.0
 10
49.891586
 20
91.855300
 30
0.0
 10
49.084066
 20
91.966106
 30
0.0
  0
SPLINE
  5
135
100
AcDbEntity
  8
Layer_1
 62
1
100
AcDbSpline
 70
8
 71
3
 72
8
 73
4
 74
0
 40
0
 40
0
 40
0
 40
0
 40
1
 40
1
 40
1
 40
1
 10
49.084066
 20
91.966106
 30
0.0
 10
49.127108
 20
92.140356
 30
0.0
 10
49.149313
 20
92.319095
 30
0.0
 10
49.150214
 20
92.498580
 30
0.0
  0
SPLINE
  5
136
100
AcDbEntity
  8
Layer_1
 62
1
100
AcDbSpline
 70
8
 71
3
 72
8
 73
4
 74
0
 40
0
 40
0
 40
0
 40
0
 40
1
 40
1
 40
1
 40
1
 10
49.150214
 20
92.498580
 30
0.0
 10
49.150126
 20
93.750961
 30
0.0
 10
48.134894
 20
94.766193
 30
0.0
 10
46.882513
 20
94.766281
 30
0.0
  0
LWPOLYLINE
  5
137
100
AcDbEntity
  8
Layer_1
 62
1
100
AcDbPolyline
 90
2
 70
0
 10
46.030885
 20
62.111186
 30
0.0
 10
46.031438
 20
62.111186
 30
0.0
  0
SPLINE
  5
138
100
AcDbEntity
  8
Layer_1
 62
1
100
AcDbSpline
 70
8
 71
3
 72
8
 73
4
 74
0
 40
0
 40
0
 40
0
 40
0
 40
1
 40
1
 40
1
 40
1
 10
46.882513
 20
93.348004
 30
0.0
 10
47.351546
 20
93.347787
 30
0.0
 10
47.731720
 20
92.967614
 30
0.0
 10
47.731937
 20
92.498580
 30
0.0
  0
SPLINE
  5
139
100
AcDbEntity
  8
Layer_1
 62
1
100
AcDbSpline
 70
8
 71
3
 72
8
 73
4
 74
0
 40
0
 40
0
 40
0
 40
0
 40
1
 40
1
 40
1
 40
1
 10
47.731937
 20
92.498580
 30
0.0
 10
47.732024
 20
92.029332
 30
0.0
 10
47.351761
 20
91.648823
 30
0.0
 10
46.882513
 20
91.648606
 30
0.0
  0
SPLINE
  5
13a
100
AcDbEntity
  8
Layer_1
 62
1
100
AcDbSpline
 70
8
 71
3
 72
8
 73
4
 74
0
 40
0
 40
0
 40
0
 40
0
 40
1
 40
1
 40
1
 40
1
 10
46.882513
 20
91.648606
 30
0.0
 10
46.413050
 20
91.648518
 30
0.0
 10
46.032451
 20
92.029118
 30
0.0
 10
46.032539
 20
92.498580
 30
0.0
  0
SPLINE
  5
13b
100
AcDbEntity
  8
Layer_1
 62
1
100
AcDbSpline
 70
8
 71
3
 72
8
 73
4
 74
0
 40
0
 40
0
 40
0
 40
0
 40
1
 40
1
 40
1
 40
1
 10
46.032539
 20
92.498580
 30
0.0
 10
46.032756
 20
92.967828
 30
0.0
 10
46.413265
 20
93.348092
 30
0.0
 10
46.882513
 20
93.348004
 30
0.0
  0
LWPOLYLINE
  5
13c
100
AcDbEntity
  8
Layer_1
 62
1
100
AcDbPolyline
 90
2
 70
0
 10
46.882513
 20
94.766281
 30
0.0
 10
46.882513
 20
94.766281
 30
0.0
  0
SPLINE
  5
13d
100
AcDbEntity
  8
Layer_1
 62
1
100
AcDbSpline
 70
8
 71
3
 72
8
 73
4
 74
0
 40
0
 40
0
 40
0
 40
0
 40
1
 40
1
 40
1
 40
1
 10
46.609660
 20
89.945903
 30
0.0
 10
47.391729
 20
89.954200
 30
0.0
 10
48.213885
 20
89.910563
 30
0.0
 10
48.751132
 20
89.810854
 30
0.0
  0
SPLINE
  5
13e
100
AcDbEntity
  8
Layer_1
 62
1
100
AcDbSpline
 70
8
 71
3
 72
8
 73
4
 74
0
 40
0
 40
0
 40
0
 40
0
 40
1
 40
1
 40
1
 40
1
 10
48.751132
 20
89.810854
 30
0.0
 10
48.972397
 20
89.769788
 30
0.0
 10
49.265696
 20
89.718528
 30
0.0
 10
49.402670
 20
89.697305
 30
0.0
  0
SPLINE
  5
13f
100
AcDbEntity
  8
Layer_1
 62
1
100
AcDbSpline
 70
8
 71
3
 72
8
 73
4
 74
0
 40
0
 40
0
 40
0
 40
0
 40
1
 40
1
 40
1
 40
1
 10
49.402670
 20
89.697305
 30
0.0
 10
49.663203
 20
89.656919
 30
0.0
 10
50.513375
 20
89.439334
 30
0.0
 10
50.548647
 20
89.404059
 30
0.0
  0
SPLINE
  5
140
100
AcDbEntity
  8
Layer_1
 62
1
100
AcDbSpline
 70
8
 71
3
 72
8
 73
4
 74
0
 40
0
 40
0
 40
0
 40
0
 40
1
 40
1
 40
1
 40
1
 10
50.548647
 20
89.404059
 30
0.0
 10
50.559880
 20
89.392854
 30
0.0
 10
50.550346
 20
89.371851
 30
0.0
 10
50.527148
 20
89.357204
 30
0.0
  0
SPLINE
  5
141
100
AcDbEntity
  8
Layer_1
 62
1
100
AcDbSpline
 70
8
 71
3
 72
8
 73
4
 74
0
 40
0
 40
0
 40
0
 40
0
 40
1
 40
1
 40
1
 40
1
 10
50.527148
 20
89.357204
 30
0.0
 10
50.504062
 20
89.342557
 30
0.0
 10
50.472935
 20
89.273048
 30
0.0
 10
50.457695
 20
89.202865
 30
0.0
  0
SPLINE
  5
142
100
AcDbEntity
  8
Layer_1
 62
1
100
AcDbSpline
 70
8
 71
3
 72
8
 73
4
 74
0
 40
0
 40
0
 40
0
 40
0
 40
1
 40
1
 40
1
 40
1
 10
50.457695
 20
89.202865
 30
0.0
 10
50.431900
 20
89.084038
 30
0.0
 10
50.350756
 20
88.904469
 30
0.0
 10
49.824349
 20
87.797816
 30
0.0
  0
SPLINE
  5
143
100
AcDbEntity
  8
Layer_1
 62
1
100
AcDbSpline
 70
8
 71
3
 72
8
 73
4
 74
0
 40
0
 40
0
 40
0
 40
0
 40
1
 40
1
 40
1
 40
1
 10
49.824349
 20
87.797816
 30
0.0
 10
49.714088
 20
87.566016
 30
0.0
 10
49.567617
 20
87.255758
 30
0.0
 10
49.498580
 20
87.108246
 30
0.0
  0
SPLINE
  5
144
100
AcDbEntity
  8
Layer_1
 62
1
100
AcDbSpline
 70
8
 71
3
 72
8
 73
4
 74
0
 40
0
 40
0
 40
0
 40
0
 40
1
 40
1
 40
1
 40
1
 10
49.498580
 20
87.108246
 30
0.0
 10
49.429543
 20
86.960737
 30
0.0
 10
49.241682
 20
86.566515
 30
0.0
 10
49.081312
 20
86.231813
 30
0.0
  0
SPLINE
  5
145
100
AcDbEntity
  8
Layer_1
 62
1
100
AcDbSpline
 70
8
 71
3
 72
8
 73
4
 74
0
 40
0
 40
0
 40
0
 40
0
 40
1
 40
1
 40
1
 40
1
 10
49.081312
 20
86.231813
 30
0.0
 10
48.920942
 20
85.897112
 30
0.0
 10
48.789717
 20
85.618714
 30
0.0
 10
48.789717
 20
85.613351
 30
0.0
  0
SPLINE
  5
146
100
AcDbEntity
  8
Layer_1
 62
1
100
AcDbSpline
 70
8
 71
3
 72
8
 73
4
 74
0
 40
0
 40
0
 40
0
 40
0
 40
1
 40
1
 40
1
 40
1
 10
48.789717
 20
85.613351
 30
0.0
 10
48.789717
 20
85.607989
 30
0.0
 10
48.701805
 20
85.416168
 30
0.0
 10
48.594035
 20
85.187261
 30
0.0
  0
SPLINE
  5
147
100
AcDbEntity
  8
Layer_1
 62
1
100
AcDbSpline
 70
8
 71
3
 72
8
 73
4
 74
0
 40
0
 40
0
 40
0
 40
0
 40
1
 40
1
 40
1
 40
1
 10
48.594035
 20
85.187261
 30
0.0
 10
48.337287
 20
84.641906
 30
0.0
 10
48.169841
 20
84.281198
 30
0.0
 10
47.957382
 20
83.813081
 30
0.0
  0
SPLINE
  5
148
100
AcDbEntity
  8
Layer_1
 62
1
100
AcDbSpline
 70
8
 71
3
 72
8
 73
4
 74
0
 40
0
 40
0
 40
0
 40
0
 40
1
 40
1
 40
1
 40
1
 10
47.957382
 20
83.813081
 30
0.0
 10
47.861742
 20
83.602354
 30
0.0
 10
47.734025
 20
83.321179
 30
0.0
 10
47.673508
 20
83.188004
 30
0.0
  0
SPLINE
  5
149
100
AcDbEntity
  8
Layer_1
 62
1
100
AcDbSpline
 70
8
 71
3
 72
8
 73
4
 74
0
 40
0
 40
0
 40
0
 40
0
 40
1
 40
1
 40
1
 40
1
 10
47.673508
 20
83.188004
 30
0.0
 10
47.612986
 20
83.054829
 30
0.0
 10
47.563814
 20
82.938641
 30
0.0
 10
47.563814
 20
82.930036
 30
0.0
  0
SPLINE
  5
14a
100
AcDbEntity
  8
Layer_1
 62
1
100
AcDbSpline
 70
8
 71
3
 72
8
 73
4
 74
0
 40
0
 40
0
 40
0
 40
0
 40
1
 40
1
 40
1
 40
1
 10
47.563814
 20
82.930036
 30
0.0
 10
47.563814
 20
82.921428
 30
0.0
 10
47.501830
 20
82.780721
 30
0.0
 10
47.426564
 20
82.616944
 30
0.0
  0
SPLINE
  5
14b
100
AcDbEntity
  8
Layer_1
 62
1
100
AcDbSpline
 70
8
 71
3
 72
8
 73
4
 74
0
 40
0
 40
0
 40
0
 40
0
 40
1
 40
1
 40
1
 40
1
 10
47.426564
 20
82.616944
 30
0.0
 10
47.245174
 20
82.222259
 30
0.0
 10
47.206318
 20
82.134313
 30
0.0
 10
47.083706
 20
81.840283
 30
0.0
  0
SPLINE
  5
14c
100
AcDbEntity
  8
Layer_1
 62
1
100
AcDbSpline
 70
8
 71
3
 72
8
 73
4
 74
0
 40
0
 40
0
 40
0
 40
0
 40
1
 40
1
 40
1
 40
1
 10
47.083706
 20
81.840283
 30
0.0
 10
47.026590
 20
81.703309
 30
0.0
 10
46.945499
 20
81.517534
 30
0.0
 10
46.903459
 20
81.427973
 30
0.0
  0
SPLINE
  5
14d
100
AcDbEntity
  8
Layer_1
 62
1
100
AcDbSpline
 70
8
 71
3
 72
8
 73
4
 74
0
 40
0
 40
0
 40
0
 40
0
 40
1
 40
1
 40
1
 40
1
 10
46.903459
 20
81.427973
 30
0.0
 10
46.783286
 20
81.171950
 30
0.0
 10
46.791541
 20
81.164299
 30
0.0
 10
46.487842
 20
81.840283
 30
0.0
  0
SPLINE
  5
14e
100
AcDbEntity
  8
Layer_1
 62
1
100
AcDbSpline
 70
8
 71
3
 72
8
 73
4
 74
0
 40
0
 40
0
 40
0
 40
0
 40
1
 40
1
 40
1
 40
1
 10
46.487842
 20
81.840283
 30
0.0
 10
46.369501
 20
82.103692
 30
0.0
 10
46.233661
 20
82.405196
 30
0.0
 10
46.185777
 20
82.510561
 30
0.0
  0
SPLINE
  5
14f
100
AcDbEntity
  8
Layer_1
 62
1
100
AcDbSpline
 70
8
 71
3
 72
8
 73
4
 74
0
 40
0
 40
0
 40
0
 40
0
 40
1
 40
1
 40
1
 40
1
 10
46.185777
 20
82.510561
 30
0.0
 10
46.137892
 20
82.615923
 30
0.0
 10
46.024687
 20
82.865994
 30
0.0
 10
45.934424
 20
83.066186
 30
0.0
  0
SPLINE
  5
150
100
AcDbEntity
  8
Layer_1
 62
1
100
AcDbSpline
 70
8
 71
3
 72
8
 73
4
 74
0
 40
0
 40
0
 40
0
 40
0
 40
1
 40
1
 40
1
 40
1
 10
45.934424
 20
83.066186
 30
0.0
 10
45.844161
 20
83.266377
 30
0.0
 10
45.594075
 20
83.817950
 30
0.0
 10
45.378799
 20
84.292089
 30
0.0
  0
SPLINE
  5
151
100
AcDbEntity
  8
Layer_1
 62
1
100
AcDbSpline
 70
8
 71
3
 72
8
 73
4
 74
0
 40
0
 40
0
 40
0
 40
0
 40
1
 40
1
 40
1
 40
1
 10
45.378799
 20
84.292089
 30
0.0
 10
45.163523
 20
84.766225
 30
0.0
 10
44.931372
 20
85.292081
 30
0.0
 10
44.862310
 20
85.460664
 30
0.0
  0
SPLINE
  5
152
100
AcDbEntity
  8
Layer_1
 62
1
100
AcDbSpline
 70
8
 71
3
 72
8
 73
4
 74
0
 40
0
 40
0
 40
0
 40
0
 40
1
 40
1
 40
1
 40
1
 10
44.862310
 20
85.460664
 30
0.0
 10
44.793247
 20
85.629246
 30
0.0
 10
44.396818
 20
86.499834
 30
0.0
 10
43.981466
 20
87.395430
 30
0.0
  0
SPLINE
  5
153
100
AcDbEntity
  8
Layer_1
 62
1
100
AcDbSpline
 70
8
 71
3
 72
8
 73
4
 74
0
 40
0
 40
0
 40
0
 40
0
 40
1
 40
1
 40
1
 40
1
 10
43.981466
 20
87.395430
 30
0.0
 10
43.181851
 20
89.119584
 30
0.0
 10
43.111491
 20
89.284515
 30
0.0
 10
43.140864
 20
89.361062
 30
0.0
  0
SPLINE
  5
154
100
AcDbEntity
  8
Layer_1
 62
1
100
AcDbSpline
 70
8
 71
3
 72
8
 73
4
 74
0
 40
0
 40
0
 40
0
 40
0
 40
1
 40
1
 40
1
 40
1
 10
43.140864
 20
89.361062
 30
0.0
 10
43.172072
 20
89.442382
 30
0.0
 10
43.757142
 20
89.604826
 30
0.0
 10
44.345270
 20
89.695651
 30
0.0
  0
SPLINE
  5
155
100
AcDbEntity
  8
Layer_1
 62
1
100
AcDbSpline
 70
8
 71
3
 72
8
 73
4
 74
0
 40
0
 40
0
 40
0
 40
0
 40
1
 40
1
 40
1
 40
1
 10
44.345270
 20
89.695651
 30
0.0
 10
44.482244
 20
89.716789
 30
0.0
 10
44.645854
 20
89.749487
 30
0.0
 10
44.709072
 20
89.767860
 30
0.0
  0
SPLINE
  5
156
100
AcDbEntity
  8
Layer_1
 62
1
100
AcDbSpline
 70
8
 71
3
 72
8
 73
4
 74
0
 40
0
 40
0
 40
0
 40
0
 40
1
 40
1
 40
1
 40
1
 10
44.709072
 20
89.767860
 30
0.0
 10
45.085703
 20
89.877280
 30
0.0
 10
45.827594
 20
89.937591
 30
0.0
 10
46.609660
 20
89.945903
 30
0.0
  0
LWPOLYLINE
  5
157
100
AcDbEntity
  8
Layer_1
 62
1
100
AcDbPolyline
 90
2
 70
0
 10
46.882513
 20
93.348004
 30
0.0
 10
46.882513
 20
93.348004
 30
0.0
  0
SPLINE
  5
158
100
AcDbEntity
  8
Layer_1
 62
1
100
AcDbSpline
 70
8
 71
3
 72
8
 73
4
 74
0
 40
0
 40
0
 40
0
 40
0
 40
1
 40
1
 40
1
 40
1
 10
40.185247
 20
88.050273
 30
0.0
 10
40.276165
 20
88.034581
 30
0.0
 10
40.357007
 20
87.881473
 30
0.0
 10
40.493377
 20
87.529925
 30
0.0
  0
SPLINE
  5
159
100
AcDbEntity
  8
Layer_1
 62
1
100
AcDbSpline
 70
8
 71
3
 72
8
 73
4
 74
0
 40
0
 40
0
 40
0
 40
0
 40
1
 40
1
 40
1
 40
1
 10
40.493377
 20
87.529925
 30
0.0
 10
40.542424
 20
87.403490
 30
0.0
 10
40.625951
 20
87.204856
 30
0.0
 10
40.678585
 20
87.088953
 30
0.0
  0
SPLINE
  5
15a
100
AcDbEntity
  8
Layer_1
 62
1
100
AcDbSpline
 70
8
 71
3
 72
8
 73
4
 74
0
 40
0
 40
0
 40
0
 40
0
 40
1
 40
1
 40
1
 40
1
 10
40.678585
 20
87.088953
 30
0.0
 10
40.731220
 20
86.973053
 30
0.0
 10
40.898168
 20
86.585093
 30
0.0
 10
41.049552
 20
86.226855
 30
0.0
  0
SPLINE
  5
15b
100
AcDbEntity
  8
Layer_1
 62
1
100
AcDbSpline
 70
8
 71
3
 72
8
 73
4
 74
0
 40
0
 40
0
 40
0
 40
0
 40
1
 40
1
 40
1
 40
1
 10
41.049552
 20
86.226855
 30
0.0
 10
41.200936
 20
85.868616
 30
0.0
 10
41.347763
 20
85.523881
 30
0.0
 10
41.375872
 20
85.460664
 30
0.0
  0
SPLINE
  5
15c
100
AcDbEntity
  8
Layer_1
 62
1
100
AcDbSpline
 70
8
 71
3
 72
8
 73
4
 74
0
 40
0
 40
0
 40
0
 40
0
 40
1
 40
1
 40
1
 40
1
 10
41.375872
 20
85.460664
 30
0.0
 10
41.455114
 20
85.282468
 30
0.0
 10
41.914990
 20
84.215666
 30
0.0
 10
42.161353
 20
83.638346
 30
0.0
  0
SPLINE
  5
15d
100
AcDbEntity
  8
Layer_1
 62
1
100
AcDbSpline
 70
8
 71
3
 72
8
 73
4
 74
0
 40
0
 40
0
 40
0
 40
0
 40
1
 40
1
 40
1
 40
1
 10
42.161353
 20
83.638346
 30
0.0
 10
42.283380
 20
83.352393
 30
0.0
 10
42.417342
 20
83.042132
 30
0.0
 10
42.459563
 20
82.948776
 30
0.0
  0
SPLINE
  5
15e
100
AcDbEntity
  8
Layer_1
 62
1
100
AcDbSpline
 70
8
 71
3
 72
8
 73
4
 74
0
 40
0
 40
0
 40
0
 40
0
 40
1
 40
1
 40
1
 40
1
 10
42.459563
 20
82.948776
 30
0.0
 10
42.501783
 20
82.855417
 30
0.0
 10
42.582296
 20
82.669901
 30
0.0
 10
42.638156
 20
82.536466
 30
0.0
  0
SPLINE
  5
15f
100
AcDbEntity
  8
Layer_1
 62
1
100
AcDbSpline
 70
8
 71
3
 72
8
 73
4
 74
0
 40
0
 40
0
 40
0
 40
0
 40
1
 40
1
 40
1
 40
1
 10
42.638156
 20
82.536466
 30
0.0
 10
42.739245
 20
82.294988
 30
0.0
 10
43.519093
 20
80.512148
 30
0.0
 10
43.659007
 20
80.202621
 30
0.0
  0
SPLINE
  5
160
100
AcDbEntity
  8
Layer_1
 62
1
100
AcDbSpline
 70
8
 71
3
 72
8
 73
4
 74
0
 40
0
 40
0
 40
0
 40
0
 40
1
 40
1
 40
1
 40
1
 10
43.659007
 20
80.202621
 30
0.0
 10
43.699385
 20
80.113292
 30
0.0
 10
43.732317
 20
80.032706
 30
0.0
 10
43.732317
 20
80.023477
 30
0.0
  0
SPLINE
  5
161
100
AcDbEntity
  8
Layer_1
 62
1
100
AcDbSpline
 70
8
 71
3
 72
8
 73
4
 74
0
 40
0
 40
0
 40
0
 40
0
 40
1
 40
1
 40
1
 40
1
 10
43.732317
 20
80.023477
 30
0.0
 10
43.732317
 20
80.014249
 30
0.0
 10
43.790325
 20
79.880137
 30
0.0
 10
43.861301
 20
79.725820
 30
0.0
  0
SPLINE
  5
162
100
AcDbEntity
  8
Layer_1
 62
1
100
AcDbSpline
 70
8
 71
3
 72
8
 73
4
 74
0
 40
0
 40
0
 40
0
 40
0
 40
1
 40
1
 40
1
 40
1
 10
43.861301
 20
79.725820
 30
0.0
 10
43.932280
 20
79.571504
 30
0.0
 10
44.046529
 20
79.316116
 30
0.0
 10
44.115411
 20
79.158068
 30
0.0
  0
SPLINE
  5
163
100
AcDbEntity
  8
Layer_1
 62
1
100
AcDbSpline
 70
8
 71
3
 72
8
 73
4
 74
0
 40
0
 40
0
 40
0
 40
0
 40
1
 40
1
 40
1
 40
1
 10
44.115411
 20
79.158068
 30
0.0
 10
44.184293
 20
79.000024
 30
0.0
 10
44.280232
 20
78.784423
 30
0.0
 10
44.328182
 20
78.679064
 30
0.0
  0
SPLINE
  5
164
100
AcDbEntity
  8
Layer_1
 62
1
100
AcDbSpline
 70
8
 71
3
 72
8
 73
4
 74
0
 40
0
 40
0
 40
0
 40
0
 40
1
 40
1
 40
1
 40
1
 10
44.328182
 20
78.679064
 30
0.0
 10
44.376131
 20
78.573699
 30
0.0
 10
44.487132
 20
78.323628
 30
0.0
 10
44.575126
 20
78.123436
 30
0.0
  0
SPLINE
  5
165
100
AcDbEntity
  8
Layer_1
 62
1
100
AcDbSpline
 70
8
 71
3
 72
8
 73
4
 74
0
 40
0
 40
0
 40
0
 40
0
 40
1
 40
1
 40
1
 40
1
 10
44.575126
 20
78.123436
 30
0.0
 10
44.663123
 20
77.923247
 30
0.0
 10
44.753259
 20
77.738208
 30
0.0
 10
44.775216
 20
77.711680
 30
0.0
  0
SPLINE
  5
166
100
AcDbEntity
  8
Layer_1
 62
1
100
AcDbSpline
 70
8
 71
3
 72
8
 73
4
 74
0
 40
0
 40
0
 40
0
 40
0
 40
1
 40
1
 40
1
 40
1
 10
44.775216
 20
77.711680
 30
0.0
 10
44.806554
 20
77.673932
 30
0.0
 10
45.242788
 20
77.665305
 30
0.0
 10
46.807549
 20
77.673094
 30
0.0
  0
SPLINE
  5
167
100
AcDbEntity
  8
Layer_1
 62
1
100
AcDbSpline
 70
8
 71
3
 72
8
 73
4
 74
0
 40
0
 40
0
 40
0
 40
0
 40
1
 40
1
 40
1
 40
1
 10
46.807549
 20
77.673094
 30
0.0
 10
48.531769
 20
77.681674
 30
0.0
 10
48.804951
 20
77.690620
 30
0.0
 10
48.833264
 20
77.740342
 30
0.0
  0
SPLINE
  5
168
100
AcDbEntity
  8
Layer_1
 62
1
100
AcDbSpline
 70
8
 71
3
 72
8
 73
4
 74
0
 40
0
 40
0
 40
0
 40
0
 40
1
 40
1
 40
1
 40
1
 10
48.833264
 20
77.740342
 30
0.0
 10
48.851270
 20
77.771951
 30
0.0
 10
49.036930
 20
78.185632
 30
0.0
 10
49.245574
 20
78.659771
 30
0.0
  0
SPLINE
  5
169
100
AcDbEntity
  8
Layer_1
 62
1
100
AcDbSpline
 70
8
 71
3
 72
8
 73
4
 74
0
 40
0
 40
0
 40
0
 40
0
 40
1
 40
1
 40
1
 40
1
 10
49.245574
 20
78.659771
 30
0.0
 10
49.602384
 20
79.470613
 30
0.0
 10
50.900022
 20
82.405848
 30
0.0
 10
51.049702
 20
82.740417
 30
0.0
  0
SPLINE
  5
16a
100
AcDbEntity
  8
Layer_1
 62
1
100
AcDbSpline
 70
8
 71
3
 72
8
 73
4
 74
0
 40
0
 40
0
 40
0
 40
0
 40
1
 40
1
 40
1
 40
1
 10
51.049702
 20
82.740417
 30
0.0
 10
51.087412
 20
82.824708
 30
0.0
 10
51.328639
 20
83.376280
 30
0.0
 10
51.586034
 20
83.966319
 30
0.0
  0
SPLINE
  5
16b
100
AcDbEntity
  8
Layer_1
 62
1
100
AcDbSpline
 70
8
 71
3
 72
8
 73
4
 74
0
 40
0
 40
0
 40
0
 40
0
 40
1
 40
1
 40
1
 40
1
 10
51.586034
 20
83.966319
 30
0.0
 10
51.843432
 20
84.556356
 30
0.0
 10
52.097573
 20
85.134200
 30
0.0
 10
52.150478
 20
85.250100
 30
0.0
  0
SPLINE
  5
16c
100
AcDbEntity
  8
Layer_1
 62
1
100
AcDbSpline
 70
8
 71
3
 72
8
 73
4
 74
0
 40
0
 40
0
 40
0
 40
0
 40
1
 40
1
 40
1
 40
1
 10
52.150478
 20
85.250100
 30
0.0
 10
52.203384
 20
85.366001
 30
0.0
 10
52.391575
 20
85.797194
 30
0.0
 10
52.568850
 20
86.208112
 30
0.0
  0
SPLINE
  5
16d
100
AcDbEntity
  8
Layer_1
 62
1
100
AcDbSpline
 70
8
 71
3
 72
8
 73
4
 74
0
 40
0
 40
0
 40
0
 40
0
 40
1
 40
1
 40
1
 40
1
 10
52.568850
 20
86.208112
 30
0.0
 10
52.746123
 20
86.619031
 30
0.0
 10
52.906761
 20
86.989481
 30
0.0
 10
52.926036
 20
87.031628
 30
0.0
  0
SPLINE
  5
16e
100
AcDbEntity
  8
Layer_1
 62
1
100
AcDbSpline
 70
8
 71
3
 72
8
 73
4
 74
0
 40
0
 40
0
 40
0
 40
0
 40
1
 40
1
 40
1
 40
1
 10
52.926036
 20
87.031628
 30
0.0
 10
52.945312
 20
87.073772
 30
0.0
 10
53.024185
 20
87.254897
 30
0.0
 10
53.100772
 20
87.434015
 30
0.0
  0
SPLINE
  5
16f
100
AcDbEntity
  8
Layer_1
 62
1
100
AcDbSpline
 70
8
 71
3
 72
8
 73
4
 74
0
 40
0
 40
0
 40
0
 40
0
 40
1
 40
1
 40
1
 40
1
 10
53.100772
 20
87.434015
 30
0.0
 10
53.295426
 20
88.044109
 30
0.0
 10
53.682855
 20
87.588766
 30
0.0
 10
53.943030
 20
87.400941
 30
0.0
  0
SPLINE
  5
170
100
AcDbEntity
  8
Layer_1
 62
1
100
AcDbSpline
 70
8
 71
3
 72
8
 73
4
 74
0
 40
0
 40
0
 40
0
 40
0
 40
1
 40
1
 40
1
 40
1
 10
53.943030
 20
87.400941
 30
0.0
 10
54.762177
 20
86.807894
 30
0.0
 10
55.549123
 20
86.123191
 30
0.0
 10
56.066312
 20
85.553269
 30
0.0
  0
SPLINE
  5
171
100
AcDbEntity
  8
Layer_1
 62
1
100
AcDbSpline
 70
8
 71
3
 72
8
 73
4
 74
0
 40
0
 40
0
 40
0
 40
0
 40
1
 40
1
 40
1
 40
1
 10
56.066312
 20
85.553269
 30
0.0
 10
56.284549
 20
85.312779
 30
0.0
 10
56.526653
 20
85.047208
 30
0.0
 10
56.604848
 20
84.962917
 30
0.0
  0
SPLINE
  5
172
100
AcDbEntity
  8
Layer_1
 62
1
100
AcDbSpline
 70
8
 71
3
 72
8
 73
4
 74
0
 40
0
 40
0
 40
0
 40
0
 40
1
 40
1
 40
1
 40
1
 10
56.604848
 20
84.962917
 30
0.0
 10
56.799847
 20
84.752720
 30
0.0
 10
57.027078
 20
84.421070
 30
0.0
 10
57.027078
 20
84.346659
 30
0.0
  0
SPLINE
  5
173
100
AcDbEntity
  8
Layer_1
 62
1
100
AcDbSpline
 70
8
 71
3
 72
8
 73
4
 74
0
 40
0
 40
0
 40
0
 40
0
 40
1
 40
1
 40
1
 40
1
 10
57.027078
 20
84.346659
 30
0.0
 10
57.027078
 20
84.312880
 30
0.0
 10
56.924775
 20
84.023901
 30
0.0
 10
56.799426
 20
83.704493
 30
0.0
  0
SPLINE
  5
174
100
AcDbEntity
  8
Layer_1
 62
1
100
AcDbSpline
 70
8
 71
3
 72
8
 73
4
 74
0
 40
0
 40
0
 40
0
 40
0
 40
1
 40
1
 40
1
 40
1
 10
56.799426
 20
83.704493
 30
0.0
 10
56.674077
 20
83.385088
 30
0.0
 10
56.458344
 20
82.830762
 30
0.0
 10
56.319869
 20
82.472526
 30
0.0
  0
SPLINE
  5
175
100
AcDbEntity
  8
Layer_1
 62
1
100
AcDbSpline
 70
8
 71
3
 72
8
 73
4
 74
0
 40
0
 40
0
 40
0
 40
0
 40
1
 40
1
 40
1
 40
1
 10
56.319869
 20
82.472526
 30
0.0
 10
56.181391
 20
82.114287
 30
0.0
 10
56.031203
 20
81.734532
 30
0.0
 10
55.986384
 20
81.629167
 30
0.0
  0
SPLINE
  5
176
100
AcDbEntity
  8
Layer_1
 62
1
100
AcDbSpline
 70
8
 71
3
 72
8
 73
4
 74
0
 40
0
 40
0
 40
0
 40
0
 40
1
 40
1
 40
1
 40
1
 10
55.986384
 20
81.629167
 30
0.0
 10
55.860713
 20
81.333748
 30
0.0
 10
55.822890
 20
81.239587
 30
0.0
 10
55.648490
 20
80.786358
 30
0.0
  0
SPLINE
  5
177
100
AcDbEntity
  8
Layer_1
 62
1
100
AcDbSpline
 70
8
 71
3
 72
8
 73
4
 74
0
 40
0
 40
0
 40
0
 40
0
 40
1
 40
1
 40
1
 40
1
 10
55.648490
 20
80.786358
 30
0.0
 10
55.559297
 20
80.554558
 30
0.0
 10
55.452541
 20
80.289387
 30
0.0
 10
55.410916
 20
80.197109
 30
0.0
  0
SPLINE
  5
178
100
AcDbEntity
  8
Layer_1
 62
1
100
AcDbSpline
 70
8
 71
3
 72
8
 73
4
 74
0
 40
0
 40
0
 40
0
 40
0
 40
1
 40
1
 40
1
 40
1
 10
55.410916
 20
80.197109
 30
0.0
 10
55.369293
 20
80.104828
 30
0.0
 10
55.257364
 20
79.830550
 30
0.0
 10
55.162317
 20
79.587464
 30
0.0
  0
SPLINE
  5
179
100
AcDbEntity
  8
Layer_1
 62
1
100
AcDbSpline
 70
8
 71
3
 72
8
 73
4
 74
0
 40
0
 40
0
 40
0
 40
0
 40
1
 40
1
 40
1
 40
1
 10
55.162317
 20
79.587464
 30
0.0
 10
55.067271
 20
79.344386
 30
0.0
 10
54.974055
 20
79.118171
 30
0.0
 10
54.955062
 20
79.084758
 30
0.0
  0
SPLINE
  5
17a
100
AcDbEntity
  8
Layer_1
 62
1
100
AcDbSpline
 70
8
 71
3
 72
8
 73
4
 74
0
 40
0
 40
0
 40
0
 40
0
 40
1
 40
1
 40
1
 40
1
 10
54.955062
 20
79.084758
 30
0.0
 10
54.936068
 20
79.051346
 30
0.0
 10
54.861607
 20
78.877472
 30
0.0
 10
54.789697
 20
78.698354
 30
0.0
  0
SPLINE
  5
17b
100
AcDbEntity
  8
Layer_1
 62
1
100
AcDbSpline
 70
8
 71
3
 72
8
 73
4
 74
0
 40
0
 40
0
 40
0
 40
0
 40
1
 40
1
 40
1
 40
1
 10
54.789697
 20
78.698354
 30
0.0
 10
54.603681
 20
78.235030
 30
0.0
 10
54.463738
 20
77.899628
 30
0.0
 10
54.379591
 20
77.713884
 30
0.0
  0
SPLINE
  5
17c
100
AcDbEntity
  8
Layer_1
 62
1
100
AcDbSpline
 70
8
 71
3
 72
8
 73
4
 74
0
 40
0
 40
0
 40
0
 40
0
 40
1
 40
1
 40
1
 40
1
 10
54.379591
 20
77.713884
 30
0.0
 10
54.339541
 20
77.625480
 30
0.0
 10
54.306831
 20
77.544150
 30
0.0
 10
54.306831
 20
77.533086
 30
0.0
  0
SPLINE
  5
17d
100
AcDbEntity
  8
Layer_1
 62
1
100
AcDbSpline
 70
8
 71
3
 72
8
 73
4
 74
0
 40
0
 40
0
 40
0
 40
0
 40
1
 40
1
 40
1
 40
1
 10
54.306831
 20
77.533086
 30
0.0
 10
54.306831
 20
77.522023
 30
0.0
 10
54.265689
 20
77.421654
 30
0.0
 10
54.215329
 20
77.310396
 30
0.0
  0
SPLINE
  5
17e
100
AcDbEntity
  8
Layer_1
 62
1
100
AcDbSpline
 70
8
 71
3
 72
8
 73
4
 74
0
 40
0
 40
0
 40
0
 40
0
 40
1
 40
1
 40
1
 40
1
 10
54.215329
 20
77.310396
 30
0.0
 10
54.164969
 20
77.199141
 30
0.0
 10
53.999037
 20
76.815353
 30
0.0
 10
53.846566
 20
76.457114
 30
0.0
  0
SPLINE
  5
17f
100
AcDbEntity
  8
Layer_1
 62
1
100
AcDbSpline
 70
8
 71
3
 72
8
 73
4
 74
0
 40
0
 40
0
 40
0
 40
0
 40
1
 40
1
 40
1
 40
1
 10
53.846566
 20
76.457114
 30
0.0
 10
53.509957
 20
75.666229
 30
0.0
 10
52.709753
 20
73.831068
 30
0.0
 10
52.551762
 20
73.487716
 30
0.0
  0
SPLINE
  5
180
100
AcDbEntity
  8
Layer_1
 62
1
100
AcDbSpline
 70
8
 71
3
 72
8
 73
4
 74
0
 40
0
 40
0
 40
0
 40
0
 40
1
 40
1
 40
1
 40
1
 10
52.551762
 20
73.487716
 30
0.0
 10
52.488736
 20
73.350742
 30
0.0
 10
52.273485
 20
72.876321
 30
0.0
 10
52.073308
 20
72.433794
 30
0.0
  0
SPLINE
  5
181
100
AcDbEntity
  8
Layer_1
 62
1
100
AcDbSpline
 70
8
 71
3
 72
8
 73
4
 74
0
 40
0
 40
0
 40
0
 40
0
 40
1
 40
1
 40
1
 40
1
 10
52.073308
 20
72.433794
 30
0.0
 10
51.683982
 20
71.573123
 30
0.0
 10
51.471697
 20
71.137525
 30
0.0
 10
51.384287
 20
71.019925
 30
0.0
  0
SPLINE
  5
182
100
AcDbEntity
  8
Layer_1
 62
1
100
AcDbSpline
 70
8
 71
3
 72
8
 73
4
 74
0
 40
0
 40
0
 40
0
 40
0
 40
1
 40
1
 40
1
 40
1
 10
51.384287
 20
71.019925
 30
0.0
 10
51.333544
 20
70.951656
 30
0.0
 10
51.322918
 20
70.961799
 30
0.0
 10
51.224987
 20
71.173164
 30
0.0
  0
SPLINE
  5
183
100
AcDbEntity
  8
Layer_1
 62
1
100
AcDbSpline
 70
8
 71
3
 72
8
 73
4
 74
0
 40
0
 40
0
 40
0
 40
0
 40
1
 40
1
 40
1
 40
1
 10
51.224987
 20
71.173164
 30
0.0
 10
51.018194
 20
71.619490
 30
0.0
 10
50.977783
 20
71.709197
 30
0.0
 10
50.876618
 20
71.954786
 30
0.0
  0
SPLINE
  5
184
100
AcDbEntity
  8
Layer_1
 62
1
100
AcDbSpline
 70
8
 71
3
 72
8
 73
4
 74
0
 40
0
 40
0
 40
0
 40
0
 40
1
 40
1
 40
1
 40
1
 10
50.876618
 20
71.954786
 30
0.0
 10
50.820193
 20
72.091760
 30
0.0
 10
50.730446
 20
72.299151
 30
0.0
 10
50.677078
 20
72.415051
 30
0.0
  0
SPLINE
  5
185
100
AcDbEntity
  8
Layer_1
 62
1
100
AcDbSpline
 70
8
 71
3
 72
8
 73
4
 74
0
 40
0
 40
0
 40
0
 40
0
 40
1
 40
1
 40
1
 40
1
 10
50.677078
 20
72.415051
 30
0.0
 10
50.623713
 20
72.530952
 30
0.0
 10
50.506986
 20
72.797985
 30
0.0
 10
50.417456
 20
73.008711
 30
0.0
  0
SPLINE
  5
186
100
AcDbEntity
  8
Layer_1
 62
1
100
AcDbSpline
 70
8
 71
3
 72
8
 73
4
 74
0
 40
0
 40
0
 40
0
 40
0
 40
1
 40
1
 40
1
 40
1
 10
50.417456
 20
73.008711
 30
0.0
 10
50.195615
 20
73.530862
 30
0.0
 10
49.956141
 20
74.070807
 30
0.0
 10
49.817184
 20
74.363048
 30
0.0
  0
SPLINE
  5
187
100
AcDbEntity
  8
Layer_1
 62
1
100
AcDbSpline
 70
8
 71
3
 72
8
 73
4
 74
0
 40
0
 40
0
 40
0
 40
0
 40
1
 40
1
 40
1
 40
1
 10
49.817184
 20
74.363048
 30
0.0
 10
49.753591
 20
74.496787
 30
0.0
 10
49.576056
 20
74.893504
 30
0.0
 10
49.422513
 20
75.244439
 30
0.0
  0
SPLINE
  5
188
100
AcDbEntity
  8
Layer_1
 62
1
100
AcDbSpline
 70
8
 71
3
 72
8
 73
4
 74
0
 40
0
 40
0
 40
0
 40
0
 40
1
 40
1
 40
1
 40
1
 10
49.422513
 20
75.244439
 30
0.0
 10
49.268967
 20
75.595374
 30
0.0
 10
49.062036
 20
76.065102
 30
0.0
 10
48.962248
 20
76.288441
 30
0.0
  0
LWPOLYLINE
  5
189
100
AcDbEntity
  8
Layer_1
 62
1
100
AcDbPolyline
 90
2
 70
0
 10
46.609660
 20
89.945903
 30
0.0
 10
46.609660
 20
89.945903
 30
0.0
  0
SPLINE
  5
18a
100
AcDbEntity
  8
Layer_1
 62
1
100
AcDbSpline
 70
8
 71
3
 72
8
 73
4
 74
0
 40
0
 40
0
 40
0
 40
0
 40
1
 40
1
 40
1
 40
1
 10
46.821327
 20
76.716736
 30
0.0
 10
44.584964
 20
76.741995
 30
0.0
 10
44.814422
 20
76.778986
 30
0.0
 10
44.633555
 20
76.361201
 30
0.0
  0
SPLINE
  5
18b
100
AcDbEntity
  8
Layer_1
 62
1
100
AcDbSpline
 70
8
 71
3
 72
8
 73
4
 74
0
 40
0
 40
0
 40
0
 40
0
 40
1
 40
1
 40
1
 40
1
 10
44.633555
 20
76.361201
 30
0.0
 10
44.574257
 20
76.224227
 30
0.0
 10
44.486991
 20
76.026147
 30
0.0
 10
44.440077
 20
75.920782
 30
0.0
  0
SPLINE
  5
18c
100
AcDbEntity
  8
Layer_1
 62
1
100
AcDbSpline
 70
8
 71
3
 72
8
 73
4
 74
0
 40
0
 40
0
 40
0
 40
0
 40
1
 40
1
 40
1
 40
1
 10
44.440077
 20
75.920782
 30
0.0
 10
44.125233
 20
75.213705
 30
0.0
 10
44.025247
 20
74.984295
 30
0.0
 10
43.837047
 20
74.541091
 30
0.0
  0
SPLINE
  5
18d
100
AcDbEntity
  8
Layer_1
 62
1
100
AcDbSpline
 70
8
 71
3
 72
8
 73
4
 74
0
 40
0
 40
0
 40
0
 40
0
 40
1
 40
1
 40
1
 40
1
 10
43.837047
 20
74.541091
 30
0.0
 10
43.720724
 20
74.267143
 30
0.0
 10
43.492781
 20
73.741287
 30
0.0
 10
43.330481
 20
73.372513
 30
0.0
  0
SPLINE
  5
18e
100
AcDbEntity
  8
Layer_1
 62
1
100
AcDbSpline
 70
8
 71
3
 72
8
 73
4
 74
0
 40
0
 40
0
 40
0
 40
0
 40
1
 40
1
 40
1
 40
1
 10
43.330481
 20
73.372513
 30
0.0
 10
42.833279
 20
72.242800
 30
0.0
 10
42.770408
 20
72.099860
 30
0.0
 10
42.632644
 20
71.782809
 30
0.0
  0
SPLINE
  5
18f
100
AcDbEntity
  8
Layer_1
 62
1
100
AcDbSpline
 70
8
 71
3
 72
8
 73
4
 74
0
 40
0
 40
0
 40
0
 40
0
 40
1
 40
1
 40
1
 40
1
 10
42.632644
 20
71.782809
 30
0.0
 10
42.559391
 20
71.614226
 30
0.0
 10
42.441656
 20
71.351297
 30
0.0
 10
42.370815
 20
71.198521
 30
0.0
  0
SPLINE
  5
190
100
AcDbEntity
  8
Layer_1
 62
1
100
AcDbSpline
 70
8
 71
3
 72
8
 73
4
 74
0
 40
0
 40
0
 40
0
 40
0
 40
1
 40
1
 40
1
 40
1
 10
42.370815
 20
71.198521
 30
0.0
 10
42.299975
 20
71.045743
 30
0.0
 10
42.233760
 20
70.920707
 30
0.0
 10
42.224192
 20
70.920707
 30
0.0
  0
SPLINE
  5
191
100
AcDbEntity
  8
Layer_1
 62
1
100
AcDbSpline
 70
8
 71
3
 72
8
 73
4
 74
0
 40
0
 40
0
 40
0
 40
0
 40
1
 40
1
 40
1
 40
1
 10
42.224192
 20
70.920707
 30
0.0
 10
42.205679
 20
70.920707
 30
0.0
 10
42.008117
 20
71.247315
 30
0.0
 10
42.008117
 20
71.277896
 30
0.0
  0
SPLINE
  5
192
100
AcDbEntity
  8
Layer_1
 62
1
100
AcDbSpline
 70
8
 71
3
 72
8
 73
4
 74
0
 40
0
 40
0
 40
0
 40
0
 40
1
 40
1
 40
1
 40
1
 10
42.008117
 20
71.277896
 30
0.0
 10
42.008117
 20
71.287830
 30
0.0
 10
41.904697
 20
71.513574
 30
0.0
 10
41.778259
 20
71.779501
 30
0.0
  0
SPLINE
  5
193
100
AcDbEntity
  8
Layer_1
 62
1
100
AcDbSpline
 70
8
 71
3
 72
8
 73
4
 74
0
 40
0
 40
0
 40
0
 40
0
 40
1
 40
1
 40
1
 40
1
 10
41.778259
 20
71.779501
 30
0.0
 10
41.651823
 20
72.045428
 30
0.0
 10
41.548403
 20
72.272803
 30
0.0
 10
41.548403
 20
72.284964
 30
0.0
  0
SPLINE
  5
194
100
AcDbEntity
  8
Layer_1
 62
1
100
AcDbSpline
 70
8
 71
3
 72
8
 73
4
 74
0
 40
0
 40
0
 40
0
 40
0
 40
1
 40
1
 40
1
 40
1
 10
41.548403
 20
72.284964
 30
0.0
 10
41.548403
 20
72.297128
 30
0.0
 10
41.514793
 20
72.353891
 30
0.0
 10
41.473989
 20
72.411193
 30
0.0
  0
SPLINE
  5
195
100
AcDbEntity
  8
Layer_1
 62
1
100
AcDbSpline
 70
8
 71
3
 72
8
 73
4
 74
0
 40
0
 40
0
 40
0
 40
0
 40
1
 40
1
 40
1
 40
1
 10
41.473989
 20
72.411193
 30
0.0
 10
41.376529
 20
72.548066
 30
0.0
 10
40.478589
 20
74.520124
 30
0.0
 10
40.190208
 20
75.230658
 30
0.0
  0
SPLINE
  5
196
100
AcDbEntity
  8
Layer_1
 62
1
100
AcDbSpline
 70
8
 71
3
 72
8
 73
4
 74
0
 40
0
 40
0
 40
0
 40
0
 40
1
 40
1
 40
1
 40
1
 10
40.190208
 20
75.230658
 30
0.0
 10
40.121786
 20
75.399244
 30
0.0
 10
40.020158
 20
75.636931
 30
0.0
 10
39.964210
 20
75.758724
 30
0.0
  0
SPLINE
  5
197
100
AcDbEntity
  8
Layer_1
 62
1
100
AcDbSpline
 70
8
 71
3
 72
8
 73
4
 74
0
 40
0
 40
0
 40
0
 40
0
 40
1
 40
1
 40
1
 40
1
 10
39.964210
 20
75.758724
 30
0.0
 10
39.908263
 20
75.880517
 30
0.0
 10
39.862785
 20
75.987307
 30
0.0
 10
39.862785
 20
75.995746
 30
0.0
  0
SPLINE
  5
198
100
AcDbEntity
  8
Layer_1
 62
1
100
AcDbSpline
 70
8
 71
3
 72
8
 73
4
 74
0
 40
0
 40
0
 40
0
 40
0
 40
1
 40
1
 40
1
 40
1
 10
39.862785
 20
75.995746
 30
0.0
 10
39.862785
 20
76.004184
 30
0.0
 10
39.812513
 20
76.119989
 30
0.0
 10
39.751440
 20
76.253164
 30
0.0
  0
SPLINE
  5
199
100
AcDbEntity
  8
Layer_1
 62
1
100
AcDbSpline
 70
8
 71
3
 72
8
 73
4
 74
0
 40
0
 40
0
 40
0
 40
0
 40
1
 40
1
 40
1
 40
1
 10
39.751440
 20
76.253164
 30
0.0
 10
39.600011
 20
76.583375
 30
0.0
 10
39.388342
 20
77.087300
 30
0.0
 10
39.037618
 20
77.951458
 30
0.0
  0
SPLINE
  5
19a
100
AcDbEntity
  8
Layer_1
 62
1
100
AcDbSpline
 70
8
 71
3
 72
8
 73
4
 74
0
 40
0
 40
0
 40
0
 40
0
 40
1
 40
1
 40
1
 40
1
 10
39.037618
 20
77.951458
 30
0.0
 10
37.730241
 20
81.172763
 30
0.0
 10
37.674965
 20
81.311692
 30
0.0
 10
37.143092
 20
82.702382
 30
0.0
  0
SPLINE
  5
19b
100
AcDbEntity
  8
Layer_1
 62
1
100
AcDbSpline
 70
8
 71
3
 72
8
 73
4
 74
0
 40
0
 40
0
 40
0
 40
0
 40
1
 40
1
 40
1
 40
1
 10
37.143092
 20
82.702382
 30
0.0
 10
36.691468
 20
83.883216
 30
0.0
 10
36.491003
 20
84.457047
 30
0.0
 10
36.491003
 20
84.569900
 30
0.0
  0
SPLINE
  5
19c
100
AcDbEntity
  8
Layer_1
 62
1
100
AcDbSpline
 70
8
 71
3
 72
8
 73
4
 74
0
 40
0
 40
0
 40
0
 40
0
 40
1
 40
1
 40
1
 40
1
 10
36.491003
 20
84.569900
 30
0.0
 10
36.491003
 20
84.621371
 30
0.0
 10
36.525477
 20
84.694921
 30
0.0
 10
36.567621
 20
84.733061
 30
0.0
  0
SPLINE
  5
19d
100
AcDbEntity
  8
Layer_1
 62
1
100
AcDbSpline
 70
8
 71
3
 72
8
 73
4
 74
0
 40
0
 40
0
 40
0
 40
0
 40
1
 40
1
 40
1
 40
1
 10
36.567621
 20
84.733061
 30
0.0
 10
36.609768
 20
84.771203
 30
0.0
 10
36.644241
 20
84.822085
 30
0.0
 10
36.644241
 20
84.846610
 30
0.0
  0
SPLINE
  5
19e
100
AcDbEntity
  8
Layer_1
 62
1
100
AcDbSpline
 70
8
 71
3
 72
8
 73
4
 74
0
 40
0
 40
0
 40
0
 40
0
 40
1
 40
1
 40
1
 40
1
 10
36.644241
 20
84.846610
 30
0.0
 10
36.644241
 20
84.918644
 30
0.0
 10
36.927584
 20
85.278190
 30
0.0
 10
37.262703
 20
85.630990
 30
0.0
  0
SPLINE
  5
19f
100
AcDbEntity
  8
Layer_1
 62
1
100
AcDbSpline
 70
8
 71
3
 72
8
 73
4
 74
0
 40
0
 40
0
 40
0
 40
0
 40
1
 40
1
 40
1
 40
1
 10
37.262703
 20
85.630990
 30
0.0
 10
37.909751
 20
86.312176
 30
0.0
 10
38.163830
 20
86.566707
 30
0.0
 10
38.367891
 20
86.738933
 30
0.0
  0
SPLINE
  5
1a0
100
AcDbEntity
  8
Layer_1
 62
1
100
AcDbSpline
 70
8
 71
3
 72
8
 73
4
 74
0
 40
0
 40
0
 40
0
 40
0
 40
1
 40
1
 40
1
 40
1
 10
38.367891
 20
86.738933
 30
0.0
 10
38.483591
 20
86.836584
 30
0.0
 10
38.704822
 20
87.025614
 30
0.0
 10
38.859576
 20
87.158958
 30
0.0
  0
SPLINE
  5
1a1
100
AcDbEntity
  8
Layer_1
 62
1
100
AcDbSpline
 70
8
 71
3
 72
8
 73
4
 74
0
 40
0
 40
0
 40
0
 40
0
 40
1
 40
1
 40
1
 40
1
 10
38.859576
 20
87.158958
 30
0.0
 10
39.114555
 20
87.378668
 30
0.0
 10
39.856012
 20
87.893730
 30
0.0
 10
39.917356
 20
87.893730
 30
0.0
  0
SPLINE
  5
1a2
100
AcDbEntity
  8
Layer_1
 62
1
100
AcDbSpline
 70
8
 71
3
 72
8
 73
4
 74
0
 40
0
 40
0
 40
0
 40
0
 40
1
 40
1
 40
1
 40
1
 10
39.917356
 20
87.893730
 30
0.0
 10
39.931185
 20
87.893730
 30
0.0
 10
39.979606
 20
87.928200
 30
0.0
 10
40.024843
 20
87.970347
 30
0.0
  0
SPLINE
  5
1a3
100
AcDbEntity
  8
Layer_1
 62
1
100
AcDbSpline
 70
8
 71
3
 72
8
 73
4
 74
0
 40
0
 40
0
 40
0
 40
0
 40
1
 40
1
 40
1
 40
1
 10
40.024843
 20
87.970347
 30
0.0
 10
40.070323
 20
88.012717
 30
0.0
 10
40.109307
 20
88.040132
 30
0.0
 10
40.145561
 20
88.048619
 30
0.0
  0
SPLINE
  5
1a4
100
AcDbEntity
  8
Layer_1
 62
1
100
AcDbSpline
 70
8
 71
3
 72
8
 73
4
 74
0
 40
0
 40
0
 40
0
 40
0
 40
1
 40
1
 40
1
 40
1
 10
40.145561
 20
88.048619
 30
0.0
 10
40.159155
 20
88.051802
 30
0.0
 10
40.172259
 20
88.052516
 30
0.0
 10
40.185247
 20
88.050273
 30
0.0
  0
LWPOLYLINE
  5
1a5
100
AcDbEntity
  8
Layer_1
 62
1
100
AcDbPolyline
 90
3
 70
0
 10
48.962248
 20
76.288441
 30
0.0
 10
48.780347
 20
76.694136
 30
0.0
 10
46.821327
 20
76.716736
 30
0.0
  0
SPLINE
  5
1a6
100
AcDbEntity
  8
Layer_1
 62
1
100
AcDbSpline
 70
8
 71
3
 72
8
 73
4
 74
0
 40
0
 40
0
 40
0
 40
0
 40
1
 40
1
 40
1
 40
1
 10
34.797670
 20
80.476577
 30
0.0
 10
34.811640
 20
80.466417
 30
0.0
 10
34.834336
 20
80.425723
 30
0.0
 10
34.875391
 20
80.347590
 30
0.0
  0
SPLINE
  5
1a7
100
AcDbEntity
  8
Layer_1
 62
1
100
AcDbSpline
 70
8
 71
3
 72
8
 73
4
 74
0
 40
0
 40
0
 40
0
 40
0
 40
1
 40
1
 40
1
 40
1
 10
34.875391
 20
80.347590
 30
0.0
 10
34.924712
 20
80.253720
 30
0.0
 10
34.999572
 20
80.081353
 30
0.0
 10
35.041307
 20
79.964496
 30
0.0
  0
SPLINE
  5
1a8
100
AcDbEntity
  8
Layer_1
 62
1
100
AcDbSpline
 70
8
 71
3
 72
8
 73
4
 74
0
 40
0
 40
0
 40
0
 40
0
 40
1
 40
1
 40
1
 40
1
 10
35.041307
 20
79.964496
 30
0.0
 10
35.083044
 20
79.847639
 30
0.0
 10
35.131934
 20
79.717252
 30
0.0
 10
35.150448
 20
79.675108
 30
0.0
  0
SPLINE
  5
1a9
100
AcDbEntity
  8
Layer_1
 62
1
100
AcDbSpline
 70
8
 71
3
 72
8
 73
4
 74
0
 40
0
 40
0
 40
0
 40
0
 40
1
 40
1
 40
1
 40
1
 10
35.150448
 20
79.675108
 30
0.0
 10
35.168961
 20
79.632961
 30
0.0
 10
35.377027
 20
79.098903
 30
0.0
 10
35.612366
 20
78.487791
 30
0.0
  0
SPLINE
  5
1aa
100
AcDbEntity
  8
Layer_1
 62
1
100
AcDbSpline
 70
8
 71
3
 72
8
 73
4
 74
0
 40
0
 40
0
 40
0
 40
0
 40
1
 40
1
 40
1
 40
1
 10
35.612366
 20
78.487791
 30
0.0
 10
35.847703
 20
77.876681
 30
0.0
 10
36.063318
 20
77.324555
 30
0.0
 10
36.091371
 20
77.261338
 30
0.0
  0
SPLINE
  5
1ab
100
AcDbEntity
  8
Layer_1
 62
1
100
AcDbSpline
 70
8
 71
3
 72
8
 73
4
 74
0
 40
0
 40
0
 40
0
 40
0
 40
1
 40
1
 40
1
 40
1
 10
36.091371
 20
77.261338
 30
0.0
 10
36.119424
 20
77.198120
 30
0.0
 10
36.244956
 20
76.887859
 30
0.0
 10
36.370285
 20
76.571767
 30
0.0
  0
SPLINE
  5
1ac
100
AcDbEntity
  8
Layer_1
 62
1
100
AcDbSpline
 70
8
 71
3
 72
8
 73
4
 74
0
 40
0
 40
0
 40
0
 40
0
 40
1
 40
1
 40
1
 40
1
 10
36.370285
 20
76.571767
 30
0.0
 10
36.658818
 20
75.844046
 30
0.0
 10
37.040569
 20
74.910624
 30
0.0
 10
37.161831
 20
74.637001
 30
0.0
  0
SPLINE
  5
1ad
100
AcDbEntity
  8
Layer_1
 62
1
100
AcDbSpline
 70
8
 71
3
 72
8
 73
4
 74
0
 40
0
 40
0
 40
0
 40
0
 40
1
 40
1
 40
1
 40
1
 10
37.161831
 20
74.637001
 30
0.0
 10
37.213196
 20
74.521098
 30
0.0
 10
37.331670
 20
74.245313
 30
0.0
 10
37.424761
 20
74.024048
 30
0.0
  0
SPLINE
  5
1ae
100
AcDbEntity
  8
Layer_1
 62
1
100
AcDbSpline
 70
8
 71
3
 72
8
 73
4
 74
0
 40
0
 40
0
 40
0
 40
0
 40
1
 40
1
 40
1
 40
1
 10
37.424761
 20
74.024048
 30
0.0
 10
37.596231
 20
73.616477
 30
0.0
 10
37.833427
 20
73.065571
 30
0.0
 10
37.928019
 20
72.855473
 30
0.0
  0
SPLINE
  5
1af
100
AcDbEntity
  8
Layer_1
 62
1
100
AcDbSpline
 70
8
 71
3
 72
8
 73
4
 74
0
 40
0
 40
0
 40
0
 40
0
 40
1
 40
1
 40
1
 40
1
 10
37.928019
 20
72.855473
 30
0.0
 10
37.956507
 20
72.792213
 30
0.0
 10
38.013183
 20
72.662524
 30
0.0
 10
38.054249
 20
72.567739
 30
0.0
  0
SPLINE
  5
1b0
100
AcDbEntity
  8
Layer_1
 62
1
100
AcDbSpline
 70
8
 71
3
 72
8
 73
4
 74
0
 40
0
 40
0
 40
0
 40
0
 40
1
 40
1
 40
1
 40
1
 10
38.054249
 20
72.567739
 30
0.0
 10
38.135715
 20
72.379712
 30
0.0
 10
38.286992
 20
72.044736
 30
0.0
 10
38.425769
 20
71.744223
 30
0.0
  0
SPLINE
  5
1b1
100
AcDbEntity
  8
Layer_1
 62
1
100
AcDbSpline
 70
8
 71
3
 72
8
 73
4
 74
0
 40
0
 40
0
 40
0
 40
0
 40
1
 40
1
 40
1
 40
1
 10
38.425769
 20
71.744223
 30
0.0
 10
38.474427
 20
71.638858
 30
0.0
 10
38.568791
 20
71.432018
 30
0.0
 10
38.635782
 20
71.284509
 30
0.0
  0
SPLINE
  5
1b2
100
AcDbEntity
  8
Layer_1
 62
1
100
AcDbSpline
 70
8
 71
3
 72
8
 73
4
 74
0
 40
0
 40
0
 40
0
 40
0
 40
1
 40
1
 40
1
 40
1
 10
38.635782
 20
71.284509
 30
0.0
 10
39.318971
 20
69.780151
 30
0.0
 10
40.514693
 20
67.322755
 30
0.0
 10
40.927734
 20
66.574375
 30
0.0
  0
SPLINE
  5
1b3
100
AcDbEntity
  8
Layer_1
 62
1
100
AcDbSpline
 70
8
 71
3
 72
8
 73
4
 74
0
 40
0
 40
0
 40
0
 40
0
 40
1
 40
1
 40
1
 40
1
 10
40.927734
 20
66.574375
 30
0.0
 10
41.019987
 20
66.407226
 30
0.0
 10
41.136144
 20
66.178767
 30
0.0
 10
41.185702
 20
66.066705
 30
0.0
  0
SPLINE
  5
1b4
100
AcDbEntity
  8
Layer_1
 62
1
100
AcDbSpline
 70
8
 71
3
 72
8
 73
4
 74
0
 40
0
 40
0
 40
0
 40
0
 40
1
 40
1
 40
1
 40
1
 10
41.185702
 20
66.066705
 30
0.0
 10
41.235272
 20
65.954640
 30
0.0
 10
41.263739
 20
65.863564
 30
0.0
 10
41.249092
 20
65.864408
 30
0.0
  0
SPLINE
  5
1b5
100
AcDbEntity
  8
Layer_1
 62
1
100
AcDbSpline
 70
8
 71
3
 72
8
 73
4
 74
0
 40
0
 40
0
 40
0
 40
0
 40
1
 40
1
 40
1
 40
1
 10
41.249092
 20
65.864408
 30
0.0
 10
41.234445
 20
65.865258
 30
0.0
 10
41.110456
 20
65.925699
 30
0.0
 10
40.973485
 20
65.998907
 30
0.0
  0
SPLINE
  5
1b6
100
AcDbEntity
  8
Layer_1
 62
1
100
AcDbSpline
 70
8
 71
3
 72
8
 73
4
 74
0
 40
0
 40
0
 40
0
 40
0
 40
1
 40
1
 40
1
 40
1
 10
40.973485
 20
65.998907
 30
0.0
 10
40.836511
 20
66.072115
 30
0.0
 10
40.629671
 20
66.176171
 30
0.0
 10
40.513770
 20
66.230417
 30
0.0
  0
SPLINE
  5
1b7
100
AcDbEntity
  8
Layer_1
 62
1
100
AcDbSpline
 70
8
 71
3
 72
8
 73
4
 74
0
 40
0
 40
0
 40
0
 40
0
 40
1
 40
1
 40
1
 40
1
 10
40.513770
 20
66.230417
 30
0.0
 10
40.397870
 20
66.284660
 30
0.0
 10
40.268734
 20
66.361083
 30
0.0
 10
40.226590
 20
66.399640
 30
0.0
  0
SPLINE
  5
1b8
100
AcDbEntity
  8
Layer_1
 62
1
100
AcDbSpline
 70
8
 71
3
 72
8
 73
4
 74
0
 40
0
 40
0
 40
0
 40
0
 40
1
 40
1
 40
1
 40
1
 10
40.226590
 20
66.399640
 30
0.0
 10
40.184443
 20
66.438194
 30
0.0
 10
39.950415
 20
66.604361
 30
0.0
 10
39.706793
 20
66.769506
 30
0.0
  0
SPLINE
  5
1b9
100
AcDbEntity
  8
Layer_1
 62
1
100
AcDbSpline
 70
8
 71
3
 72
8
 73
4
 74
0
 40
0
 40
0
 40
0
 40
0
 40
1
 40
1
 40
1
 40
1
 10
39.706793
 20
66.769506
 30
0.0
 10
39.463173
 20
66.934651
 30
0.0
 10
39.156448
 20
67.156376
 30
0.0
 10
39.024938
 20
67.261741
 30
0.0
  0
SPLINE
  5
1ba
100
AcDbEntity
  8
Layer_1
 62
1
100
AcDbSpline
 70
8
 71
3
 72
8
 73
4
 74
0
 40
0
 40
0
 40
0
 40
0
 40
1
 40
1
 40
1
 40
1
 10
39.024938
 20
67.261741
 30
0.0
 10
38.516425
 20
67.669157
 30
0.0
 10
37.735273
 20
68.421353
 30
0.0
 10
37.340424
 20
68.884519
 30
0.0
  0
SPLINE
  5
1bb
100
AcDbEntity
  8
Layer_1
 62
1
100
AcDbSpline
 70
8
 71
3
 72
8
 73
4
 74
0
 40
0
 40
0
 40
0
 40
0
 40
1
 40
1
 40
1
 40
1
 10
37.340424
 20
68.884519
 30
0.0
 10
36.946603
 20
69.346480
 30
0.0
 10
36.375797
 20
70.086326
 30
0.0
 10
36.375797
 20
70.134673
 30
0.0
  0
SPLINE
  5
1bc
100
AcDbEntity
  8
Layer_1
 62
1
100
AcDbSpline
 70
8
 71
3
 72
8
 73
4
 74
0
 40
0
 40
0
 40
0
 40
0
 40
1
 40
1
 40
1
 40
1
 10
36.375797
 20
70.134673
 30
0.0
 10
36.375797
 20
70.147204
 30
0.0
 10
36.310257
 20
70.247080
 30
0.0
 10
36.229727
 20
70.356813
 30
0.0
  0
SPLINE
  5
1bd
100
AcDbEntity
  8
Layer_1
 62
1
100
AcDbSpline
 70
8
 71
3
 72
8
 73
4
 74
0
 40
0
 40
0
 40
0
 40
0
 40
1
 40
1
 40
1
 40
1
 10
36.229727
 20
70.356813
 30
0.0
 10
35.935934
 20
70.757145
 30
0.0
 10
35.673281
 20
71.256495
 30
0.0
 10
35.348333
 20
72.031957
 30
0.0
  0
SPLINE
  5
1be
100
AcDbEntity
  8
Layer_1
 62
1
100
AcDbSpline
 70
8
 71
3
 72
8
 73
4
 74
0
 40
0
 40
0
 40
0
 40
0
 40
1
 40
1
 40
1
 40
1
 10
35.348333
 20
72.031957
 30
0.0
 10
34.976751
 20
72.918719
 30
0.0
 10
34.723378
 20
73.742506
 30
0.0
 10
34.536944
 20
74.670075
 30
0.0
  0
SPLINE
  5
1bf
100
AcDbEntity
  8
Layer_1
 62
1
100
AcDbSpline
 70
8
 71
3
 72
8
 73
4
 74
0
 40
0
 40
0
 40
0
 40
0
 40
1
 40
1
 40
1
 40
1
 10
34.536944
 20
74.670075
 30
0.0
 10
34.330922
 20
75.695123
 30
0.0
 10
34.258092
 20
77.192187
 30
0.0
 10
34.362209
 20
78.257935
 30
0.0
  0
SPLINE
  5
1c0
100
AcDbEntity
  8
Layer_1
 62
1
100
AcDbSpline
 70
8
 71
3
 72
8
 73
4
 74
0
 40
0
 40
0
 40
0
 40
0
 40
1
 40
1
 40
1
 40
1
 10
34.362209
 20
78.257935
 30
0.0
 10
34.423615
 20
78.886500
 30
0.0
 10
34.671796
 20
80.268110
 30
0.0
 10
34.730422
 20
80.307353
 30
0.0
  0
SPLINE
  5
1c1
100
AcDbEntity
  8
Layer_1
 62
1
100
AcDbSpline
 70
8
 71
3
 72
8
 73
4
 74
0
 40
0
 40
0
 40
0
 40
0
 40
1
 40
1
 40
1
 40
1
 10
34.730422
 20
80.307353
 30
0.0
 10
34.746142
 20
80.317880
 30
0.0
 10
34.764918
 20
80.369874
 30
0.0
 10
34.772312
 20
80.422557
 30
0.0
  0
SPLINE
  5
1c2
100
AcDbEntity
  8
Layer_1
 62
1
100
AcDbSpline
 70
8
 71
3
 72
8
 73
4
 74
0
 40
0
 40
0
 40
0
 40
0
 40
1
 40
1
 40
1
 40
1
 10
34.772312
 20
80.422557
 30
0.0
 10
34.778465
 20
80.466405
 30
0.0
 10
34.783700
 20
80.486725
 30
0.0
 10
34.797670
 20
80.476577
 30
0.0
  0
LWPOLYLINE
  5
1c3
100
AcDbEntity
  8
Layer_1
 62
1
100
AcDbPolyline
 90
2
 70
0
 10
40.185247
 20
88.050273
 30
0.0
 10
40.185247
 20
88.050273
 30
0.0
  0
SPLINE
  5
1c4
100
AcDbEntity
  8
Layer_1
 62
1
100
AcDbSpline
 70
8
 71
3
 72
8
 73
4
 74
0
 40
0
 40
0
 40
0
 40
0
 40
1
 40
1
 40
1
 40
1
 10
58.865934
 20
80.422557
 30
0.0
 10
58.926024
 20
80.421992
 30
0.0
 10
59.204349
 20
79.520281
 30
0.0
 10
59.250131
 20
79.177361
 30
0.0
  0
SPLINE
  5
1c5
100
AcDbEntity
  8
Layer_1
 62
1
100
AcDbSpline
 70
8
 71
3
 72
8
 73
4
 74
0
 40
0
 40
0
 40
0
 40
0
 40
1
 40
1
 40
1
 40
1
 10
59.250131
 20
79.177361
 30
0.0
 10
59.269830
 20
79.029852
 30
0.0
 10
59.304738
 20
78.762269
 30
0.0
 10
59.327852
 20
78.583151
 30
0.0
  0
SPLINE
  5
1c6
100
AcDbEntity
  8
Layer_1
 62
1
100
AcDbSpline
 70
8
 71
3
 72
8
 73
4
 74
0
 40
0
 40
0
 40
0
 40
0
 40
1
 40
1
 40
1
 40
1
 10
59.327852
 20
78.583151
 30
0.0
 10
59.398298
 20
78.037322
 30
0.0
 10
59.416772
 20
76.816504
 30
0.0
 10
59.363681
 20
76.207966
 30
0.0
  0
SPLINE
  5
1c7
100
AcDbEntity
  8
Layer_1
 62
1
100
AcDbSpline
 70
8
 71
3
 72
8
 73
4
 74
0
 40
0
 40
0
 40
0
 40
0
 40
1
 40
1
 40
1
 40
1
 10
59.363681
 20
76.207966
 30
0.0
 10
59.337011
 20
75.902409
 30
0.0
 10
59.310995
 20
75.540163
 30
0.0
 10
59.305802
 20
75.403189
 30
0.0
  0
SPLINE
  5
1c8
100
AcDbEntity
  8
Layer_1
 62
1
100
AcDbSpline
 70
8
 71
3
 72
8
 73
4
 74
0
 40
0
 40
0
 40
0
 40
0
 40
1
 40
1
 40
1
 40
1
 10
59.305802
 20
75.403189
 30
0.0
 10
59.288728
 20
74.952303
 30
0.0
 10
58.915441
 20
73.315789
 30
0.0
 10
58.796479
 20
73.169666
 30
0.0
  0
SPLINE
  5
1c9
100
AcDbEntity
  8
Layer_1
 62
1
100
AcDbSpline
 70
8
 71
3
 72
8
 73
4
 74
0
 40
0
 40
0
 40
0
 40
0
 40
1
 40
1
 40
1
 40
1
 10
58.796479
 20
73.169666
 30
0.0
 10
58.775989
 20
73.144491
 30
0.0
 10
58.707488
 20
72.977263
 30
0.0
 10
58.644344
 20
72.798145
 30
0.0
  0
SPLINE
  5
1ca
100
AcDbEntity
  8
Layer_1
 62
1
100
AcDbSpline
 70
8
 71
3
 72
8
 73
4
 74
0
 40
0
 40
0
 40
0
 40
0
 40
1
 40
1
 40
1
 40
1
 10
58.644344
 20
72.798145
 30
0.0
 10
58.581200
 20
72.619027
 30
0.0
 10
58.486545
 20
72.375159
 30
0.0
 10
58.433781
 20
72.256301
 30
0.0
  0
SPLINE
  5
1cb
100
AcDbEntity
  8
Layer_1
 62
1
100
AcDbSpline
 70
8
 71
3
 72
8
 73
4
 74
0
 40
0
 40
0
 40
0
 40
0
 40
1
 40
1
 40
1
 40
1
 10
58.433781
 20
72.256301
 30
0.0
 10
58.381019
 20
72.137446
 30
0.0
 10
58.325323
 20
71.982041
 30
0.0
 10
58.310309
 20
71.911242
 30
0.0
  0
SPLINE
  5
1cc
100
AcDbEntity
  8
Layer_1
 62
1
100
AcDbSpline
 70
8
 71
3
 72
8
 73
4
 74
0
 40
0
 40
0
 40
0
 40
0
 40
1
 40
1
 40
1
 40
1
 10
58.310309
 20
71.911242
 30
0.0
 10
58.295266
 20
71.840444
 30
0.0
 10
58.245779
 20
71.730823
 30
0.0
 10
58.200064
 20
71.667603
 30
0.0
  0
SPLINE
  5
1cd
100
AcDbEntity
  8
Layer_1
 62
1
100
AcDbSpline
 70
8
 71
3
 72
8
 73
4
 74
0
 40
0
 40
0
 40
0
 40
0
 40
1
 40
1
 40
1
 40
1
 10
58.200064
 20
71.667603
 30
0.0
 10
58.109869
 20
71.542886
 30
0.0
 10
57.908472
 20
71.138580
 30
0.0
 10
57.908472
 20
71.082215
 30
0.0
  0
SPLINE
  5
1ce
100
AcDbEntity
  8
Layer_1
 62
1
100
AcDbSpline
 70
8
 71
3
 72
8
 73
4
 74
0
 40
0
 40
0
 40
0
 40
0
 40
1
 40
1
 40
1
 40
1
 10
57.908472
 20
71.082215
 30
0.0
 10
57.908472
 20
71.063080
 30
0.0
 10
57.875379
 20
71.017738
 30
0.0
 10
57.835159
 20
70.981340
 30
0.0
  0
SPLINE
  5
1cf
100
AcDbEntity
  8
Layer_1
 62
1
100
AcDbSpline
 70
8
 71
3
 72
8
 73
4
 74
0
 40
0
 40
0
 40
0
 40
0
 40
1
 40
1
 40
1
 40
1
 10
57.835159
 20
70.981340
 30
0.0
 10
57.794940
 20
70.944942
 30
0.0
 10
57.739912
 20
70.860340
 30
0.0
 10
57.712791
 20
70.793377
 30
0.0
  0
SPLINE
  5
1d0
100
AcDbEntity
  8
Layer_1
 62
1
100
AcDbSpline
 70
8
 71
3
 72
8
 73
4
 74
0
 40
0
 40
0
 40
0
 40
0
 40
1
 40
1
 40
1
 40
1
 10
57.712791
 20
70.793377
 30
0.0
 10
57.685669
 20
70.726414
 30
0.0
 10
57.616739
 20
70.611369
 30
0.0
 10
57.559552
 20
70.537613
 30
0.0
  0
SPLINE
  5
1d1
100
AcDbEntity
  8
Layer_1
 62
1
100
AcDbSpline
 70
8
 71
3
 72
8
 73
4
 74
0
 40
0
 40
0
 40
0
 40
0
 40
1
 40
1
 40
1
 40
1
 10
57.559552
 20
70.537613
 30
0.0
 10
57.502369
 20
70.463860
 30
0.0
 10
57.423770
 20
70.342928
 30
0.0
 10
57.384817
 20
70.269172
 30
0.0
  0
SPLINE
  5
1d2
100
AcDbEntity
  8
Layer_1
 62
1
100
AcDbSpline
 70
8
 71
3
 72
8
 73
4
 74
0
 40
0
 40
0
 40
0
 40
0
 40
1
 40
1
 40
1
 40
1
 10
57.384817
 20
70.269172
 30
0.0
 10
57.345865
 20
70.195419
 30
0.0
 10
57.241056
 20
70.038616
 30
0.0
 10
57.151654
 20
69.920802
 30
0.0
  0
SPLINE
  5
1d3
100
AcDbEntity
  8
Layer_1
 62
1
100
AcDbSpline
 70
8
 71
3
 72
8
 73
4
 74
0
 40
0
 40
0
 40
0
 40
0
 40
1
 40
1
 40
1
 40
1
 10
57.151654
 20
69.920802
 30
0.0
 10
57.062251
 20
69.802986
 30
0.0
 10
56.989046
 20
69.694810
 30
0.0
 10
56.989046
 20
69.680473
 30
0.0
  0
SPLINE
  5
1d4
100
AcDbEntity
  8
Layer_1
 62
1
100
AcDbSpline
 70
8
 71
3
 72
8
 73
4
 74
0
 40
0
 40
0
 40
0
 40
0
 40
1
 40
1
 40
1
 40
1
 10
56.989046
 20
69.680473
 30
0.0
 10
56.989046
 20
69.638972
 30
0.0
 10
56.601848
 20
69.157922
 30
0.0
 10
56.568467
 20
69.157922
 30
0.0
  0
SPLINE
  5
1d5
100
AcDbEntity
  8
Layer_1
 62
1
100
AcDbSpline
 70
8
 71
3
 72
8
 73
4
 74
0
 40
0
 40
0
 40
0
 40
0
 40
1
 40
1
 40
1
 40
1
 10
56.568467
 20
69.157922
 30
0.0
 10
56.551872
 20
69.157922
 30
0.0
 10
56.463870
 20
69.059155
 30
0.0
 10
56.372785
 20
68.937986
 30
0.0
  0
SPLINE
  5
1d6
100
AcDbEntity
  8
Layer_1
 62
1
100
AcDbSpline
 70
8
 71
3
 72
8
 73
4
 74
0
 40
0
 40
0
 40
0
 40
0
 40
1
 40
1
 40
1
 40
1
 10
56.372785
 20
68.937986
 30
0.0
 10
56.126095
 20
68.609824
 30
0.0
 10
55.122826
 20
67.628419
 30
0.0
 10
54.786939
 20
67.386867
 30
0.0
  0
SPLINE
  5
1d7
100
AcDbEntity
  8
Layer_1
 62
1
100
AcDbSpline
 70
8
 71
3
 72
8
 73
4
 74
0
 40
0
 40
0
 40
0
 40
0
 40
1
 40
1
 40
1
 40
1
 10
54.786939
 20
67.386867
 30
0.0
 10
54.765406
 20
67.371373
 30
0.0
 10
54.695818
 20
67.319540
 30
0.0
 10
54.632600
 20
67.271661
 30
0.0
  0
SPLINE
  5
1d8
100
AcDbEntity
  8
Layer_1
 62
1
100
AcDbSpline
 70
8
 71
3
 72
8
 73
4
 74
0
 40
0
 40
0
 40
0
 40
0
 40
1
 40
1
 40
1
 40
1
 10
54.632600
 20
67.271661
 30
0.0
 10
54.569383
 20
67.223782
 30
0.0
 10
54.394224
 20
67.101843
 30
0.0
 10
54.243441
 20
67.001016
 30
0.0
  0
SPLINE
  5
1d9
100
AcDbEntity
  8
Layer_1
 62
1
100
AcDbSpline
 70
8
 71
3
 72
8
 73
4
 74
0
 40
0
 40
0
 40
0
 40
0
 40
1
 40
1
 40
1
 40
1
 10
54.243441
 20
67.001016
 30
0.0
 10
54.092658
 20
66.900192
 30
0.0
 10
53.929049
 20
66.777696
 30
0.0
 10
53.879640
 20
66.728714
 30
0.0
  0
SPLINE
  5
1da
100
AcDbEntity
  8
Layer_1
 62
1
100
AcDbSpline
 70
8
 71
3
 72
8
 73
4
 74
0
 40
0
 40
0
 40
0
 40
0
 40
1
 40
1
 40
1
 40
1
 10
53.879640
 20
66.728714
 30
0.0
 10
53.806556
 20
66.656267
 30
0.0
 10
53.305761
 20
66.322926
 30
0.0
 10
53.010923
 20
66.150491
 30
0.0
  0
SPLINE
  5
1db
100
AcDbEntity
  8
Layer_1
 62
1
100
AcDbSpline
 70
8
 71
3
 72
8
 73
4
 74
0
 40
0
 40
0
 40
0
 40
0
 40
1
 40
1
 40
1
 40
1
 10
53.010923
 20
66.150491
 30
0.0
 10
52.974889
 20
66.129409
 30
0.0
 10
52.867752
 20
66.067244
 30
0.0
 10
52.773351
 20
66.012135
 30
0.0
  0
SPLINE
  5
1dc
100
AcDbEntity
  8
Layer_1
 62
1
100
AcDbSpline
 70
8
 71
3
 72
8
 73
4
 74
0
 40
0
 40
0
 40
0
 40
0
 40
1
 40
1
 40
1
 40
1
 10
52.773351
 20
66.012135
 30
0.0
 10
52.678954
 20
65.957025
 30
0.0
 10
52.538353
 20
65.900076
 30
0.0
 10
52.460260
 20
65.885908
 30
0.0
  0
LWPOLYLINE
  5
1dd
100
AcDbEntity
  8
Layer_1
 62
1
100
AcDbPolyline
 90
2
 70
0
 10
34.797670
 20
80.476577
 30
0.0
 10
34.797670
 20
80.476577
 30
0.0
  0
SPLINE
  5
1de
100
AcDbEntity
  8
Layer_1
 62
1
100
AcDbSpline
 70
8
 71
3
 72
8
 73
4
 74
0
 40
0
 40
0
 40
0
 40
0
 40
1
 40
1
 40
1
 40
1
 10
52.560581
 20
66.331289
 30
0.0
 10
52.693914
 20
66.590210
 30
0.0
 10
52.954648
 20
67.094776
 30
0.0
 10
53.139910
 20
67.453012
 30
0.0
  0
SPLINE
  5
1df
100
AcDbEntity
  8
Layer_1
 62
1
100
AcDbSpline
 70
8
 71
3
 72
8
 73
4
 74
0
 40
0
 40
0
 40
0
 40
0
 40
1
 40
1
 40
1
 40
1
 10
53.139910
 20
67.453012
 30
0.0
 10
53.675494
 20
68.488680
 30
0.0
 10
54.020709
 20
69.176495
 30
0.0
 10
54.284784
 20
69.732840
 30
0.0
  0
SPLINE
  5
1e0
100
AcDbEntity
  8
Layer_1
 62
1
100
AcDbSpline
 70
8
 71
3
 72
8
 73
4
 74
0
 40
0
 40
0
 40
0
 40
0
 40
1
 40
1
 40
1
 40
1
 10
54.284784
 20
69.732840
 30
0.0
 10
54.736187
 20
70.683833
 30
0.0
 10
54.928155
 20
71.092016
 30
0.0
 10
54.996402
 20
71.246476
 30
0.0
  0
SPLINE
  5
1e1
100
AcDbEntity
  8
Layer_1
 62
1
100
AcDbSpline
 70
8
 71
3
 72
8
 73
4
 74
0
 40
0
 40
0
 40
0
 40
0
 40
1
 40
1
 40
1
 40
1
 10
54.996402
 20
71.246476
 30
0.0
 10
55.033647
 20
71.330768
 30
0.0
 10
55.107222
 20
71.494378
 30
0.0
 10
55.160113
 20
71.610278
 30
0.0
  0
SPLINE
  5
1e2
100
AcDbEntity
  8
Layer_1
 62
1
100
AcDbSpline
 70
8
 71
3
 72
8
 73
4
 74
0
 40
0
 40
0
 40
0
 40
0
 40
1
 40
1
 40
1
 40
1
 10
55.160113
 20
71.610278
 30
0.0
 10
55.213007
 20
71.726178
 30
0.0
 10
55.290918
 20
71.898545
 30
0.0
 10
55.333194
 20
71.993372
 30
0.0
  0
SPLINE
  5
1e3
100
AcDbEntity
  8
Layer_1
 62
1
100
AcDbSpline
 70
8
 71
3
 72
8
 73
4
 74
0
 40
0
 40
0
 40
0
 40
0
 40
1
 40
1
 40
1
 40
1
 10
55.333194
 20
71.993372
 30
0.0
 10
55.375474
 20
72.088201
 30
0.0
 10
55.525588
 20
72.424178
 30
0.0
 10
55.666680
 20
72.740270
 30
0.0
  0
SPLINE
  5
1e4
100
AcDbEntity
  8
Layer_1
 62
1
100
AcDbSpline
 70
8
 71
3
 72
8
 73
4
 74
0
 40
0
 40
0
 40
0
 40
0
 40
1
 40
1
 40
1
 40
1
 10
55.666680
 20
72.740270
 30
0.0
 10
55.807768
 20
73.056362
 30
0.0
 10
55.945667
 20
73.367173
 30
0.0
 10
55.973156
 20
73.430391
 30
0.0
  0
SPLINE
  5
1e5
100
AcDbEntity
  8
Layer_1
 62
1
100
AcDbSpline
 70
8
 71
3
 72
8
 73
4
 74
0
 40
0
 40
0
 40
0
 40
0
 40
1
 40
1
 40
1
 40
1
 10
55.973156
 20
73.430391
 30
0.0
 10
56.000644
 20
73.493609
 30
0.0
 10
56.057501
 20
73.622748
 30
0.0
 10
56.099383
 20
73.717575
 30
0.0
  0
SPLINE
  5
1e6
100
AcDbEntity
  8
Layer_1
 62
1
100
AcDbSpline
 70
8
 71
3
 72
8
 73
4
 74
0
 40
0
 40
0
 40
0
 40
0
 40
1
 40
1
 40
1
 40
1
 10
56.099383
 20
73.717575
 30
0.0
 10
56.200398
 20
73.946304
 30
0.0
 10
56.625868
 20
74.958167
 30
0.0
 10
56.872739
 20
75.556427
 30
0.0
  0
SPLINE
  5
1e7
100
AcDbEntity
  8
Layer_1
 62
1
100
AcDbSpline
 70
8
 71
3
 72
8
 73
4
 74
0
 40
0
 40
0
 40
0
 40
0
 40
1
 40
1
 40
1
 40
1
 10
56.872739
 20
75.556427
 30
0.0
 10
56.981434
 20
75.819837
 30
0.0
 10
57.111347
 20
76.130098
 30
0.0
 10
57.161024
 20
76.245998
 30
0.0
  0
SPLINE
  5
1e8
100
AcDbEntity
  8
Layer_1
 62
1
100
AcDbSpline
 70
8
 71
3
 72
8
 73
4
 74
0
 40
0
 40
0
 40
0
 40
0
 40
1
 40
1
 40
1
 40
1
 10
57.161024
 20
76.245998
 30
0.0
 10
57.210703
 20
76.361898
 30
0.0
 10
57.314688
 20
76.620724
 30
0.0
 10
57.392536
 20
76.820916
 30
0.0
  0
SPLINE
  5
1e9
100
AcDbEntity
  8
Layer_1
 62
1
100
AcDbSpline
 70
8
 71
3
 72
8
 73
4
 74
0
 40
0
 40
0
 40
0
 40
0
 40
1
 40
1
 40
1
 40
1
 10
57.392536
 20
76.820916
 30
0.0
 10
57.470373
 20
77.021107
 30
0.0
 10
57.556970
 20
77.236705
 30
0.0
 10
57.584910
 20
77.299923
 30
0.0
  0
SPLINE
  5
1ea
100
AcDbEntity
  8
Layer_1
 62
1
100
AcDbSpline
 70
8
 71
3
 72
8
 73
4
 74
0
 40
0
 40
0
 40
0
 40
0
 40
1
 40
1
 40
1
 40
1
 10
57.584910
 20
77.299923
 30
0.0
 10
57.696250
 20
77.551888
 30
0.0
 10
58.199517
 20
78.796276
 30
0.0
 10
58.462994
 20
79.471160
 30
0.0
  0
SPLINE
  5
1eb
100
AcDbEntity
  8
Layer_1
 62
1
100
AcDbSpline
 70
8
 71
3
 72
8
 73
4
 74
0
 40
0
 40
0
 40
0
 40
0
 40
1
 40
1
 40
1
 40
1
 10
58.462994
 20
79.471160
 30
0.0
 10
58.781290
 20
80.286461
 30
0.0
 10
58.838784
 20
80.422749
 30
0.0
 10
58.865934
 20
80.422557
 30
0.0
  0
LWPOLYLINE
  5
1ec
100
AcDbEntity
  8
Layer_1
 62
1
100
AcDbPolyline
 90
3
 70
0
 10
52.460260
 20
65.885908
 30
0.0
 10
52.318048
 20
65.860000
 30
0.0
 10
52.560581
 20
66.331289
 30
0.0
  0
SPLINE
  5
1ed
100
AcDbEntity
  8
Layer_1
 62
1
100
AcDbSpline
 70
8
 71
3
 72
8
 73
4
 74
0
 40
0
 40
0
 40
0
 40
0
 40
1
 40
1
 40
1
 40
1
 10
46.804241
 20
73.019185
 30
0.0
 10
46.817788
 20
73.016363
 30
0.0
 10
46.830234
 20
72.999853
 30
0.0
 10
46.848889
 20
72.967922
 30
0.0
  0
SPLINE
  5
1ee
100
AcDbEntity
  8
Layer_1
 62
1
100
AcDbSpline
 70
8
 71
3
 72
8
 73
4
 74
0
 40
0
 40
0
 40
0
 40
0
 40
1
 40
1
 40
1
 40
1
 10
46.848889
 20
72.967922
 30
0.0
 10
46.913010
 20
72.858188
 30
0.0
 10
47.703884
 20
71.108509
 30
0.0
 10
47.869740
 20
70.709591
 30
0.0
  0
SPLINE
  5
1ef
100
AcDbEntity
  8
Layer_1
 62
1
100
AcDbSpline
 70
8
 71
3
 72
8
 73
4
 74
0
 40
0
 40
0
 40
0
 40
0
 40
1
 40
1
 40
1
 40
1
 10
47.869740
 20
70.709591
 30
0.0
 10
47.948590
 20
70.519935
 30
0.0
 10
48.103601
 20
70.175203
 30
0.0
 10
48.214249
 20
69.943403
 30
0.0
  0
SPLINE
  5
1f0
100
AcDbEntity
  8
Layer_1
 62
1
100
AcDbSpline
 70
8
 71
3
 72
8
 73
4
 74
0
 40
0
 40
0
 40
0
 40
0
 40
1
 40
1
 40
1
 40
1
 10
48.214249
 20
69.943403
 30
0.0
 10
48.324897
 20
69.711602
 30
0.0
 10
48.514886
 20
69.306678
 30
0.0
 10
48.636479
 20
69.043269
 30
0.0
  0
SPLINE
  5
1f1
100
AcDbEntity
  8
Layer_1
 62
1
100
AcDbSpline
 70
8
 71
3
 72
8
 73
4
 74
0
 40
0
 40
0
 40
0
 40
0
 40
1
 40
1
 40
1
 40
1
 10
48.636479
 20
69.043269
 30
0.0
 10
48.842117
 20
68.597779
 30
0.0
 10
49.209156
 20
67.812236
 30
0.0
 10
49.593940
 20
66.993297
 30
0.0
  0
SPLINE
  5
1f2
100
AcDbEntity
  8
Layer_1
 62
1
100
AcDbSpline
 70
8
 71
3
 72
8
 73
4
 74
0
 40
0
 40
0
 40
0
 40
0
 40
1
 40
1
 40
1
 40
1
 10
49.593940
 20
66.993297
 30
0.0
 10
49.683052
 20
66.803641
 30
0.0
 10
49.804317
 20
66.545371
 30
0.0
 10
49.863485
 20
66.418933
 30
0.0
  0
SPLINE
  5
1f3
100
AcDbEntity
  8
Layer_1
 62
1
100
AcDbSpline
 70
8
 71
3
 72
8
 73
4
 74
0
 40
0
 40
0
 40
0
 40
0
 40
1
 40
1
 40
1
 40
1
 10
49.863485
 20
66.418933
 30
0.0
 10
49.922653
 20
66.292497
 30
0.0
 10
50.068892
 20
65.981686
 30
0.0
 10
50.188701
 20
65.728812
 30
0.0
  0
SPLINE
  5
1f4
100
AcDbEntity
  8
Layer_1
 62
1
100
AcDbSpline
 70
8
 71
3
 72
8
 73
4
 74
0
 40
0
 40
0
 40
0
 40
0
 40
1
 40
1
 40
1
 40
1
 10
50.188701
 20
65.728812
 30
0.0
 10
50.475549
 20
65.123377
 30
0.0
 10
50.480694
 20
65.109613
 30
0.0
 10
50.425725
 20
65.066800
 30
0.0
  0
SPLINE
  5
1f5
100
AcDbEntity
  8
Layer_1
 62
1
100
AcDbSpline
 70
8
 71
3
 72
8
 73
4
 74
0
 40
0
 40
0
 40
0
 40
0
 40
1
 40
1
 40
1
 40
1
 10
50.425725
 20
65.066800
 30
0.0
 10
50.357391
 20
65.013579
 30
0.0
 10
49.092731
 20
64.712679
 30
0.0
 10
48.674514
 20
64.650082
 30
0.0
  0
SPLINE
  5
1f6
100
AcDbEntity
  8
Layer_1
 62
1
100
AcDbSpline
 70
8
 71
3
 72
8
 73
4
 74
0
 40
0
 40
0
 40
0
 40
0
 40
1
 40
1
 40
1
 40
1
 10
48.674514
 20
64.650082
 30
0.0
 10
48.474322
 20
64.620116
 30
0.0
 10
48.147100
 20
64.579764
 30
0.0
 10
47.946908
 20
64.560234
 30
0.0
  0
SPLINE
  5
1f7
100
AcDbEntity
  8
Layer_1
 62
1
100
AcDbSpline
 70
8
 71
3
 72
8
 73
4
 74
0
 40
0
 40
0
 40
0
 40
0
 40
1
 40
1
 40
1
 40
1
 10
47.946908
 20
64.560234
 30
0.0
 10
47.491297
 20
64.515826
 30
0.0
 10
45.503135
 20
64.519123
 30
0.0
 10
45.245404
 20
64.564645
 30
0.0
  0
SPLINE
  5
1f8
100
AcDbEntity
  8
Layer_1
 62
1
100
AcDbSpline
 70
8
 71
3
 72
8
 73
4
 74
0
 40
0
 40
0
 40
0
 40
0
 40
1
 40
1
 40
1
 40
1
 10
45.245404
 20
64.564645
 30
0.0
 10
45.140042
 20
64.583244
 30
0.0
 10
44.898725
 20
64.625856
 30
0.0
 10
44.709072
 20
64.659452
 30
0.0
  0
SPLINE
  5
1f9
100
AcDbEntity
  8
Layer_1
 62
1
100
AcDbSpline
 70
8
 71
3
 72
8
 73
4
 74
0
 40
0
 40
0
 40
0
 40
0
 40
1
 40
1
 40
1
 40
1
 10
44.709072
 20
64.659452
 30
0.0
 10
44.519415
 20
64.693048
 30
0.0
 10
44.148965
 20
64.787022
 30
0.0
 10
43.885556
 20
64.868364
 30
0.0
  0
SPLINE
  5
1fa
100
AcDbEntity
  8
Layer_1
 62
1
100
AcDbSpline
 70
8
 71
3
 72
8
 73
4
 74
0
 40
0
 40
0
 40
0
 40
0
 40
1
 40
1
 40
1
 40
1
 10
43.885556
 20
64.868364
 30
0.0
 10
43.622146
 20
64.949709
 30
0.0
 10
43.359217
 20
65.026143
 30
0.0
 10
43.301268
 20
65.038138
 30
0.0
  0
SPLINE
  5
1fb
100
AcDbEntity
  8
Layer_1
 62
1
100
AcDbSpline
 70
8
 71
3
 72
8
 73
4
 74
0
 40
0
 40
0
 40
0
 40
0
 40
1
 40
1
 40
1
 40
1
 10
43.301268
 20
65.038138
 30
0.0
 10
43.181092
 20
65.063030
 30
0.0
 10
43.166566
 20
65.139752
 30
0.0
 10
43.250005
 20
65.310990
 30
0.0
  0
SPLINE
  5
1fc
100
AcDbEntity
  8
Layer_1
 62
1
100
AcDbSpline
 70
8
 71
3
 72
8
 73
4
 74
0
 40
0
 40
0
 40
0
 40
0
 40
1
 40
1
 40
1
 40
1
 10
43.250005
 20
65.310990
 30
0.0
 10
43.308214
 20
65.430455
 30
0.0
 10
43.774970
 20
66.435544
 30
0.0
 10
43.933511
 20
66.782734
 30
0.0
  0
SPLINE
  5
1fd
100
AcDbEntity
  8
Layer_1
 62
1
100
AcDbSpline
 70
8
 71
3
 72
8
 73
4
 74
0
 40
0
 40
0
 40
0
 40
0
 40
1
 40
1
 40
1
 40
1
 10
43.933511
 20
66.782734
 30
0.0
 10
43.986433
 20
66.898634
 30
0.0
 10
44.102774
 20
67.148703
 30
0.0
 10
44.192032
 20
67.338359
 30
0.0
  0
SPLINE
  5
1fe
100
AcDbEntity
  8
Layer_1
 62
1
100
AcDbSpline
 70
8
 71
3
 72
8
 73
4
 74
0
 40
0
 40
0
 40
0
 40
0
 40
1
 40
1
 40
1
 40
1
 10
44.192032
 20
67.338359
 30
0.0
 10
44.416509
 20
67.815315
 30
0.0
 10
45.842284
 20
70.959815
 30
0.0
 10
45.972456
 20
71.265216
 30
0.0
  0
SPLINE
  5
1ff
100
AcDbEntity
  8
Layer_1
 62
1
100
AcDbSpline
 70
8
 71
3
 72
8
 73
4
 74
0
 40
0
 40
0
 40
0
 40
0
 40
1
 40
1
 40
1
 40
1
 10
45.972456
 20
71.265216
 30
0.0
 10
46.331412
 20
72.107390
 30
0.0
 10
46.708842
 20
72.939626
 30
0.0
 10
46.753529
 20
72.986661
 30
0.0
  0
SPLINE
  5
200
100
AcDbEntity
  8
Layer_1
 62
1
100
AcDbSpline
 70
8
 71
3
 72
8
 73
4
 74
0
 40
0
 40
0
 40
0
 40
0
 40
1
 40
1
 40
1
 40
1
 10
46.753529
 20
72.986661
 30
0.0
 10
46.776022
 20
73.010312
 30
0.0
 10
46.790700
 20
73.021905
 30
0.0
 10
46.804241
 20
73.019185
 30
0.0
  0
LWPOLYLINE
  5
201
100
AcDbEntity
  8
Layer_1
 62
1
100
AcDbPolyline
 90
2
 70
0
 10
58.865934
 20
80.422557
 30
0.0
 10
58.865934
 20
80.422557
 30
0.0
  0
LWPOLYLINE
  5
202
100
AcDbEntity
  8
Layer_1
 62
1
100
AcDbPolyline
 90
2
 70
0
 10
46.804241
 20
73.019185
 30
0.0
 10
46.804241
 20
73.019185
 30
0.0
  0
ENDSEC
  0
SECTION
  2
OBJECTS
  0
DICTIONARY
  5
C
330
0
100
AcDbDictionary
  3
ACAD_GROUP
350
D
  3
ACAD_MLINESTYLE
350
17
  0
DICTIONARY
  5
D
330
C
100
AcDbDictionary
  0
DICTIONARY
  5
1A
330
C
100
AcDbDictionary
  0
DICTIONARY
  5
17
330
C
100
AcDbDictionary
  3
STANDARD
350
18
  0
DICTIONARY
  5
19
330
C
100
AcDbDictionary
  0
ENDSEC
  0
EOF
