<?xml version="1.0" encoding="UTF-8" standalone="no"?>
<!-- Created with Inkscape (http://www.inkscape.org/) -->

<svg
   xmlns:dc="http://purl.org/dc/elements/1.1/"
   xmlns:cc="http://creativecommons.org/ns#"
   xmlns:rdf="http://www.w3.org/1999/02/22-rdf-syntax-ns#"
   xmlns:svg="http://www.w3.org/2000/svg"
   xmlns="http://www.w3.org/2000/svg"
   xmlns:sodipodi="http://sodipodi.sourceforge.net/DTD/sodipodi-0.dtd"
   xmlns:inkscape="http://www.inkscape.org/namespaces/inkscape"
   width="210mm"
   height="297mm"
   viewBox="0 0 744.09448819 1052.3622047"
   id="svg2"
   version="1.1"
   inkscape:version="0.91 r13725"
   sodipodi:docname="vw.svg">
  <defs
     id="defs4" />
  <sodipodi:namedview
     id="base"
     pagecolor="#ffffff"
     bordercolor="#666666"
     borderopacity="1.0"
     inkscape:pageopacity="0.0"
     inkscape:pageshadow="2"
     inkscape:zoom="3.959798"
     inkscape:cx="141.78067"
     inkscape:cy="300.31571"
     inkscape:document-units="mm"
     inkscape:current-layer="layer1"
     showgrid="false"
     inkscape:window-width="1440"
     inkscape:window-height="837"
     inkscape:window-x="-4"
     inkscape:window-y="-4"
     inkscape:window-maximized="1" />
  <metadata
     id="metadata7">
    <rdf:RDF>
      <cc:Work
         rdf:about="">
        <dc:format>image/svg+xml</dc:format>
        <dc:type
           rdf:resource="http://purl.org/dc/dcmitype/StillImage" />
        <dc:title></dc:title>
      </cc:Work>
    </rdf:RDF>
  </metadata>
  <g
     inkscape:label="Layer 1"
     inkscape:groupmode="layer"
     id="layer1">
    <path
       style="fill:#ff0000;stroke:#ff0000;stroke-width:1.00984251;stroke-linejoin:round;stroke-miterlimit:4;stroke-dasharray:none"
       d="m 166.11914,716.57617 c -4.43833,-7.7e-4 -8.0368,3.59683 -8.03711,8.03516 0.003,0.642 0.0831,1.28132 0.23828,1.90429 -0.0708,0.01 -0.17592,0.0172 -0.24023,0.0273 -6.62046,1.04242 -12.53478,3.05008 -18.17969,6.17187 -5.7345,3.17134 -10.67177,7.35566 -15.45508,13.09961 -0.83519,1.00292 -3.30446,4.56839 -3.85156,5.56055 -0.14576,0.26432 -0.48083,0.84692 -0.74414,1.29492 -0.75616,1.28657 -2.57839,5.06275 -3.11914,6.46289 -1.80447,4.67223 -2.77946,8.55021 -3.4082,13.5625 -0.35088,2.79554 -0.35455,10.51506 -0.006,13.16797 0.84046,6.39442 2.50182,11.98188 5.00195,16.83399 1.97886,3.84048 3.46215,6.12514 6.34961,9.77539 1.81067,2.28901 5.16557,5.615 8.17773,8.10937 3.54278,2.93378 8.99049,6.2251 12.47071,7.5332 0.7832,0.29438 1.57814,0.62252 1.76562,0.72852 0.47028,0.2659 3.82613,1.38356 4.82031,1.60547 0.44801,0.1 1.43533,0.33812 2.19336,0.5293 0.75804,0.19118 1.88661,0.41685 2.50782,0.50195 0.62121,0.0851 1.1714,0.18194 1.2246,0.21484 0.21545,0.13314 3.42863,0.49169 5.27344,0.58789 l 0.002,0 c 2.8842,0.15041 3.22078,0.15138 5.96484,0.0117 2.54141,-0.12934 4.95103,-0.39818 6.79492,-0.75781 2.77507,-0.54123 3.69086,-0.74534 4.75195,-1.05859 1.43636,-0.42404 4.04904,-1.27205 4.41211,-1.43164 0.14934,-0.0656 0.60691,-0.25251 1.01758,-0.41602 2.15413,-0.85766 4.16083,-1.78702 5.17774,-2.39648 0.42044,-0.25199 0.844,-0.45704 0.9414,-0.45704 0.0974,0 0.30288,-0.11576 0.45703,-0.25781 0.15415,-0.14205 0.61714,-0.43907 1.0293,-0.66015 0.41216,-0.2211 1.31678,-0.79266 2.00977,-1.26954 0.69298,-0.47687 1.48019,-0.99967 1.74804,-1.16015 0.26785,-0.16048 0.85583,-0.61805 1.3086,-1.01758 0.45277,-0.39953 1.1935,-1.02126 1.64453,-1.38281 1.28114,-1.02694 3.65637,-3.29484 4.87305,-4.65039 3.15985,-3.52051 5.68904,-7.07635 7.42578,-10.44141 0.44974,-0.8714 0.90406,-1.71525 1.00976,-1.87695 0.1057,-0.1617 0.44441,-0.87465 0.75196,-1.58399 0.30755,-0.70934 0.61424,-1.41317 0.68164,-1.5625 0.92228,-2.04282 2.07393,-5.54047 2.63867,-8.00976 0.11954,-0.52267 0.33575,-1.43782 0.47851,-2.03516 0.51772,-2.16623 0.88067,-5.20479 0.91797,-7.66992 0.0881,-5.8219 0.0582,-6.61399 -0.36523,-9.71094 -0.22442,-1.64123 -0.49648,-3.37989 -0.60547,-3.86523 -0.76212,-3.39371 -0.87347,-3.82182 -1.57617,-6.04102 -0.51568,-1.62857 -0.74342,-2.21704 -2.18555,-5.66797 -0.86657,-2.07367 -3.4945,-6.68723 -4.73828,-8.3164 -0.34203,-0.44801 -0.82566,-1.11885 -1.07422,-1.49219 -1.553,-2.33264 -5.44867,-6.45035 -8.61523,-9.10742 -2.25696,-1.89382 -5.88018,-4.40118 -8.02735,-5.55274 -0.672,-0.36041 -1.49372,-0.79903 -1.82617,-0.97656 -1.18351,-0.63202 -4.91647,-2.2563 -5.57227,-2.42383 -0.18666,-0.0477 -0.98161,-0.28594 -1.76562,-0.53125 -3.11372,-0.97427 -6.0059,-1.623 -8.86719,-2.01562 0.15251,-0.61742 0.23119,-1.25075 0.23438,-1.88672 -3.1e-4,-4.43757 -3.59759,-8.03485 -8.03516,-8.03516 z m 0,5.02539 c 1.66193,7.7e-4 3.009,1.34784 3.00977,3.00977 3.1e-4,1.66269 -1.34708,3.01095 -3.00977,3.01172 -1.66345,3.1e-4 -3.01203,-1.34827 -3.01172,-3.01172 7.7e-4,-1.66269 1.34903,-3.01008 3.01172,-3.00977 z m -0.9668,12.05469 c 2.77111,-0.0294 5.68426,0.12522 7.58789,0.47852 0.78401,0.14551 1.82326,0.32714 2.3086,0.40234 0.92315,0.1431 3.93557,0.91407 4.06055,1.03906 0.0398,0.0397 0.006,0.11412 -0.0762,0.16602 -0.0818,0.0519 -0.19209,0.29819 -0.24609,0.54687 -0.0914,0.42104 -0.37892,1.05731 -2.24414,4.97852 -0.39069,0.82134 -0.90968,1.92068 -1.1543,2.44336 -0.24462,0.52267 -0.91027,1.91952 -1.47851,3.10547 -0.56824,1.18595 -1.03321,2.1724 -1.03321,2.1914 0,0.019 -0.3115,0.69868 -0.69336,1.50977 -0.90974,1.93236 -1.50305,3.21046 -2.25586,4.86914 -0.33888,0.74667 -0.79141,1.74296 -1.00585,2.21484 -0.21445,0.47188 -0.38868,0.88357 -0.38868,0.91406 0,0.0305 -0.21963,0.52907 -0.48632,1.10938 -0.64272,1.39849 -0.7804,1.71011 -1.21485,2.75195 -0.20238,0.48534 -0.48971,1.1436 -0.63867,1.46094 -0.42581,0.90717 -0.39656,0.93428 -1.47266,-1.46094 -0.41932,-0.93334 -0.90064,-2.00166 -1.07031,-2.375 -0.16967,-0.37333 -0.57079,-1.25941 -0.89062,-1.96875 -0.31983,-0.70934 -1.20596,-2.66373 -1.96875,-4.34375 -0.76279,-1.68001 -1.58537,-3.54328 -1.83008,-4.14062 -0.24471,-0.59734 -1.64938,-3.6821 -3.1211,-6.85547 -2.83328,-6.10921 -3.08259,-6.69361 -2.97851,-6.96484 0.11058,-0.28814 2.18366,-0.86373 4.26758,-1.18555 0.48534,-0.0749 1.06506,-0.19076 1.28906,-0.25586 1.33452,-0.38771 3.96327,-0.60141 6.73437,-0.63086 z m -22.90429,6.72266 c 0.38537,-0.0902 0.68019,0.4143 1.23242,1.83789 0.17379,0.448 0.46975,1.15182 0.65625,1.5625 0.1865,0.41067 0.77805,1.78533 1.31445,3.05468 0.5364,1.26935 1.05665,2.49085 1.15625,2.71485 0.28078,0.6314 1.91025,4.41141 2.7832,6.45703 0.43238,1.01322 0.90705,2.11257 1.05665,2.44336 0.1496,0.3308 0.43488,0.98814 0.63281,1.46094 0.35819,0.85563 3.12143,7.17278 3.61719,8.26953 0.14307,0.31652 0.25976,0.60206 0.25976,0.63476 0,0.0327 0.20554,0.5079 0.45703,1.05469 0.2515,0.54679 0.65632,1.45171 0.90039,2.01172 0.24407,0.56 0.58401,1.32393 0.75391,1.69726 0.1699,0.37334 0.56321,1.25942 0.875,1.96876 0.3118,0.70933 0.63118,1.36498 0.70898,1.45898 0.11104,0.13375 1.65675,0.16432 7.20118,0.13672 6.10944,-0.0304 7.07741,-0.0621 7.17773,-0.23828 0.0638,-0.112 0.72165,-1.5778 1.46094,-3.25782 1.26429,-2.87306 5.86222,-13.2735 6.39258,-14.45898 0.13362,-0.29867 0.98836,-2.25306 1.90039,-4.34375 0.91204,-2.09068 1.81254,-4.13816 2,-4.54883 0.18746,-0.41067 0.85428,-1.93852 1.48242,-3.39453 0.62813,-1.45601 1.19732,-2.76863 1.26562,-2.91797 0.0683,-0.14933 0.34777,-0.79111 0.61914,-1.42578 0.68972,-2.16175 2.0625,-0.54833 2.98438,0.11719 2.90249,2.10135 5.69088,4.52746 7.52344,6.54687 0.77328,0.85213 1.63113,1.79313 1.9082,2.0918 0.69094,0.74479 1.49609,1.91993 1.49609,2.18359 0,0.11969 -0.36249,1.14363 -0.80664,2.27539 -0.44415,1.13175 -1.20856,3.0959 -1.69922,4.36524 -0.49067,1.26935 -1.02283,2.61494 -1.18164,2.98828 -0.44529,1.04676 -0.57931,1.3804 -1.19726,2.98633 -0.31604,0.82134 -0.69431,1.76092 -0.8418,2.08789 -0.14748,0.32698 -0.54408,1.29884 -0.88086,2.16016 -0.33678,0.8613 -0.66707,1.66285 -0.73437,1.78124 -0.0673,0.11839 -0.33114,0.73448 -0.58594,1.36915 -0.65911,1.6417 -1.15497,2.83013 -1.45313,3.48828 -0.14191,0.31324 -0.25781,0.60142 -0.25781,0.64062 0,0.0392 -0.14578,0.39484 -0.32422,0.78906 -0.17844,0.39421 -0.76639,1.75409 -1.30664,3.02344 -1.19271,2.80235 -4.02808,9.30489 -4.58789,10.52149 -0.22332,0.48534 -0.98602,2.16636 -1.69531,3.73437 -1.3795,3.04962 -2.13169,4.59308 -2.44141,5.00977 -0.1798,0.2419 -0.21745,0.20596 -0.56445,-0.54297 -0.73273,-1.58147 -0.87592,-1.89933 -1.23438,-2.76953 -0.19993,-0.48534 -0.51793,-1.22019 -0.70703,-1.63086 -0.18909,-0.41067 -0.60269,-1.35685 -0.91992,-2.10352 -0.78605,-1.85014 -1.63458,-3.76333 -2.12695,-4.79883 -0.22533,-0.47388 -0.85439,-1.87957 -1.39844,-3.12304 -0.54406,-1.24347 -1.27728,-2.90786 -1.63086,-3.69922 l -0.64453,-1.4375 -6.94141,-0.0801 c -7.92412,-0.0895 -7.11108,-0.22057 -7.75195,1.25977 -0.21011,0.48534 -0.51932,1.1872 -0.68555,1.56054 -1.11559,2.50539 -1.46988,3.31826 -2.13672,4.88867 -0.41217,0.97068 -1.21984,2.83395 -1.79492,4.14063 -1.76174,4.00292 -1.98451,4.5094 -2.47265,5.63281 -0.25956,0.59734 -0.67673,1.52898 -0.92774,2.07031 -0.25101,0.54134 -0.48563,0.98438 -0.51953,0.98438 -0.0656,0 -0.76562,-1.15727 -0.76562,-1.26563 0,-0.0352 -0.36645,-0.83508 -0.81446,-1.77734 -0.448,-0.94226 -0.81445,-1.74792 -0.81445,-1.79101 0,-0.0431 -0.11909,-0.24423 -0.26367,-0.44727 -0.34533,-0.48498 -3.52701,-7.47259 -4.54883,-9.99023 -0.24244,-0.59734 -0.60254,-1.43955 -0.80078,-1.8711 -0.19824,-0.43155 -0.35938,-0.80994 -0.35938,-0.83984 0,-0.0299 -0.17813,-0.44023 -0.39453,-0.91211 -0.53656,-1.17004 -1.28657,-2.9556 -2.52929,-6.01758 -4.63244,-11.41407 -4.82829,-11.90634 -6.71289,-16.83398 -1.60023,-4.18406 -2.31055,-6.21732 -2.31055,-6.61719 0,-0.18238 0.12215,-0.44299 0.27148,-0.57813 0.14934,-0.13515 0.27149,-0.31544 0.27149,-0.40234 0,-0.25524 1.00397,-1.52922 2.1914,-2.7793 2.29269,-2.41365 3.19297,-3.31553 3.91602,-3.92578 0.40996,-0.34601 1.19385,-1.0158 1.74219,-1.48828 0.90347,-0.7785 3.53068,-2.60352 3.74804,-2.60352 0.049,0 0.22057,-0.12214 0.38086,-0.27148 0.16115,-0.15013 0.29928,-0.24727 0.42774,-0.27734 z m -18.94922,26.83007 c 0.0495,0.036 0.12992,0.18019 0.27539,0.45704 0.17476,0.33261 0.44001,0.94336 0.58789,1.35742 0.14789,0.41406 0.32112,0.87606 0.38672,1.02539 0.0656,0.14934 0.80284,2.04167 1.63672,4.20703 0.83387,2.16535 1.59786,4.1217 1.69726,4.3457 0.0994,0.224 0.5442,1.32335 0.98828,2.44336 1.02236,2.57854 2.37502,5.88594 2.80469,6.85547 0.182,0.41068 0.60179,1.38787 0.93164,2.17188 0.60757,1.44415 1.44802,3.39618 1.7832,4.14062 0.10093,0.22415 0.30176,0.68368 0.44727,1.01953 0.28866,0.66624 0.82468,1.85316 1.31641,2.91797 0.17241,0.37334 0.50677,1.10624 0.74414,1.62891 2.42075,5.3304 6.65756,14.03771 8.12109,16.68945 0.32688,0.59226 0.73846,1.40176 0.91406,1.79883 0.17564,0.39708 0.27651,0.7198 0.22461,0.7168 -0.0519,-0.003 -0.49123,-0.21717 -0.97656,-0.47657 -0.48534,-0.2594 -1.21824,-0.6281 -1.62891,-0.82031 -0.41067,-0.1922 -0.86824,-0.46299 -1.01757,-0.59961 -0.14934,-0.13661 -0.97857,-0.72539 -1.8418,-1.31055 -0.86322,-0.58516 -1.95004,-1.3708 -2.41602,-1.74414 -1.80182,-1.4436 -4.56968,-4.10886 -5.96875,-5.75 -1.39543,-1.63687 -3.41797,-4.25837 -3.41797,-4.42968 0,-0.0444 -0.23223,-0.39829 -0.51757,-0.78711 -1.041,-1.4185 -1.97166,-3.18785 -3.12305,-5.93555 -1.31663,-3.14207 -2.21441,-6.061 -2.875,-9.34766 -0.73,-3.63206 -0.98806,-8.93662 -0.61914,-12.71289 0.21758,-2.2272 1.09696,-7.12267 1.30469,-7.26172 0.0557,-0.0373 0.12223,-0.22153 0.14843,-0.4082 0.0218,-0.15537 0.0403,-0.22737 0.0898,-0.19141 z m 85.28125,0.19141 c 0.21292,0.002 1.19911,3.19704 1.36133,4.41211 0.0698,0.52267 0.19349,1.4708 0.27539,2.10547 0.24961,1.93404 0.31507,6.25977 0.12695,8.41601 -0.0945,1.08268 -0.18668,2.36623 -0.20508,2.85157 -0.0605,1.59763 -1.38317,7.3963 -1.80469,7.91406 -0.0726,0.0892 -0.31532,0.68174 -0.53906,1.31641 -0.22374,0.63467 -0.55913,1.49877 -0.74609,1.91992 -0.18695,0.42114 -0.3843,0.97179 -0.4375,1.22265 -0.0533,0.25086 -0.22865,0.63928 -0.39063,0.86329 -0.31959,0.44192 -1.0332,1.87449 -1.0332,2.07421 0,0.0678 -0.11726,0.22846 -0.25977,0.35743 -0.14251,0.12897 -0.33749,0.42874 -0.43359,0.66601 -0.0961,0.23727 -0.34034,0.64491 -0.54297,0.90625 -0.20262,0.26133 -0.48112,0.68983 -0.61914,0.95117 -0.13802,0.26133 -0.50939,0.81693 -0.82617,1.23438 -0.31678,0.41746 -0.57617,0.80076 -0.57617,0.85156 0,0.14705 -1.37196,1.85156 -1.49024,1.85156 -0.0588,0 -0.37062,0.34996 -0.69336,0.7793 -0.8741,1.16278 -4.42899,4.6402 -5.61914,5.49609 -0.0763,0.0549 -0.32287,0.23856 -0.54687,0.40821 -0.224,0.16965 -0.84464,0.60172 -1.37891,0.95898 -0.53427,0.35725 -1.11399,0.7913 -1.28906,0.96485 -0.25896,0.25671 -2.03343,1.43783 -3.07813,2.04882 -0.12768,0.0747 -0.5073,0.29497 -0.84179,0.49024 -0.33448,0.19527 -0.83267,0.39706 -1.10938,0.44726 l -0.5039,0.0918 0.85937,-1.66992 c 0.47244,-0.91744 1.3963,-2.70527 2.05274,-3.97461 1.89774,-3.66969 3.12094,-6.10683 4.05664,-8.07813 1.59946,-3.36966 2.27966,-4.81598 2.52148,-5.36328 0.13197,-0.29867 0.39267,-0.87839 0.58008,-1.28906 0.18742,-0.41067 0.46348,-1.02142 0.61328,-1.35742 0.14981,-0.33601 0.68171,-1.52648 1.18164,-2.64649 0.49992,-1.12001 0.98854,-2.22131 1.08594,-2.44531 0.0974,-0.224 0.29886,-0.68158 0.44726,-1.01758 0.35793,-0.81046 1.8655,-4.3958 2.74024,-6.51562 0.38514,-0.93334 0.84546,-2.03269 1.02148,-2.44336 0.17603,-0.41067 0.54449,-1.32777 0.82032,-2.03711 0.2758,-0.70934 0.58264,-1.47327 0.68164,-1.69727 0.39451,-0.89279 2.17774,-5.30204 3.11132,-7.69336 1.12782,-2.88886 1.33154,-3.37177 1.42774,-3.37109 z m -42.73828,26.23242 c 0.048,0.01 0.0921,0.0685 0.1582,0.18164 0.2272,0.38882 3.02951,6.58847 3.61719,8.00196 0.27939,0.67201 0.82864,1.8935 1.2207,2.71484 0.39206,0.82134 1.06525,2.25611 1.49609,3.18945 0.72864,1.57851 2.02917,4.36194 3.39258,7.26368 0.31575,0.67201 0.74543,1.58714 0.95508,2.03515 0.20965,0.448 0.72782,1.5493 1.15234,2.44531 1.01639,2.14524 1.03462,2.19401 0.83985,2.34571 -0.24213,0.18858 -4.72321,1.25476 -6.20508,1.47656 -0.70934,0.10618 -1.86879,0.24916 -2.57813,0.31836 -1.61437,0.15735 -8.65904,0.1457 -9.57226,-0.0156 -0.37333,-0.0659 -1.22839,-0.21689 -1.90039,-0.33593 -0.67201,-0.11904 -1.98463,-0.45202 -2.91797,-0.74024 -0.93334,-0.28823 -1.86498,-0.55906 -2.07031,-0.60156 -0.42582,-0.0882 -0.47729,-0.36005 -0.18164,-0.9668 0.20625,-0.4233 1.86011,-3.98464 2.42187,-5.21484 0.18752,-0.41067 0.59975,-1.29674 0.91602,-1.96875 0.79539,-1.69 5.84735,-12.83193 6.30859,-13.91406 1.27189,-2.98408 2.60924,-5.93295 2.76758,-6.09961 0.0797,-0.0838 0.13171,-0.12488 0.17969,-0.11524 z"
       id="path4144"
       inkscape:connector-curvature="0"
       sodipodi:nodetypes="ccccsscsscssssssssccccssscscsscssscsssscsssssssssssccsccccccccssccccsssssscscccsssssscscscssscscscscssccscssssscccssssscscscsssssssssscssscccscsssssssscsssssssssssssccccccscssscssssccsccssssssssccccscccsscccsscscssscsscscccccsscccsccscccscccsssssscccssscccsscc" />
  </g>
</svg>
