  0
SECTION
  2
HEADER
  9
$ACADVER
  1
AC1014
  9
$HANDSEED
  5
FFFF
  9
$MEASUREMENT
 70
     1
  0
ENDSEC
  0
SECTION
  2
TABLES
  0
TABLE
  2
VPORT
  5
8
330
0
100
AcDbSymbolTable
 70
     4
  0
VPORT
  5
2E
330
8
100
AcDbSymbolTableRecord
100
AcDbViewportTableRecord
  2
*ACTIVE
 70
     0
 10
0.0
 20
0.0
 11
1.0
 21
1.0
 12
210.0
 22
148.5
 13
0.0
 23
0.0
 14
10.0
 24
10.0
 15
10.0
 25
10.0
 16
0.0
 26
0.0
 36
1.0
 17
0.0
 27
0.0
 37
0.0
 40
341.0
 41
1.24
 42
50.0
 43
0.0
 44
0.0
 50
0.0
 51
0.0
 71
     0
 72
   100
 73
     1
 74
     3
 75
     0
 76
     0
 77
     0
 78
     0
  0
ENDTAB
  0
TABLE
  2
LTYPE
  5
5
330
0
100
AcDbSymbolTable
 70
     1
  0
LTYPE
  5
14
330
5
100
AcDbSymbolTableRecord
100
AcDbLinetypeTableRecord
  2
BYBLOCK
 70
     0
  3

 72
    65
 73
     0
 40
0.0
  0
LTYPE
  5
15
330
5
100
AcDbSymbolTableRecord
100
AcDbLinetypeTableRecord
  2
BYLAYER
 70
     0
  3

 72
    65
 73
     0
 40
0.0
  0
LTYPE
  5
16
330
5
100
AcDbSymbolTableRecord
100
AcDbLinetypeTableRecord
  2
CONTINUOUS
 70
     0
  3
Solid line
 72
    65
 73
     0
 40
0.0
  0
ENDTAB
  0
TABLE
  2
LAYER
  5
2
100
AcDbSymbolTable
 70
2
  0
LAYER
  5
50
100
AcDbSymbolTableRecord
100
AcDbLayerTableRecord
  2
0
 70
0
  6
CONTINUOUS
  0
LAYER
  5
51
100
AcDbSymbolTableRecord
100
AcDbLayerTableRecord
  2
Layer_1
 70
0
  6
CONTINUOUS
  0
ENDTAB
  0
TABLE
  2
STYLE
  5
3
330
0
100
AcDbSymbolTable
 70
     1
  0
STYLE
  5
11
330
3
100
AcDbSymbolTableRecord
100
AcDbTextStyleTableRecord
  2
STANDARD
 70
     0
 40
0.0
 41
1.0
 50
0.0
 71
     0
 42
2.5
  3
txt
  4

  0
ENDTAB
  0
TABLE
  2
VIEW
  5
6
330
0
100
AcDbSymbolTable
 70
     0
  0
ENDTAB
  0
TABLE
  2
UCS
  5
7
330
0
100
AcDbSymbolTable
 70
     0
  0
ENDTAB
  0
TABLE
  2
APPID
  5
9
330
0
100
AcDbSymbolTable
 70
     2
  0
APPID
  5
12
330
9
100
AcDbSymbolTableRecord
100
AcDbRegAppTableRecord
  2
ACAD
 70
     0
  0
ENDTAB
  0
TABLE
  2
DIMSTYLE
  5
A
330
0
100
AcDbSymbolTable
 70
     1
  0
DIMSTYLE
105
27
330
A
100
AcDbSymbolTableRecord
100
AcDbDimStyleTableRecord
  2
ISO-25
 70
     0
  3

  4

  5

  6

  7

 40
1.0
 41
2.5
 42
0.625
 43
3.75
 44
1.25
 45
0.0
 46
0.0
 47
0.0
 48
0.0
140
2.5
141
2.5
142
0.0
143
0.03937007874016
144
1.0
145
0.0
146
1.0
147
0.625
 71
     0
 72
     0
 73
     0
 74
     0
 75
     0
 76
     0
 77
     1
 78
     8
170
     0
171
     3
172
     1
173
     0
174
     0
175
     0
176
     0
177
     0
178
     0
270
     2
271
     2
272
     2
273
     2
274
     3
340
11
275
     0
280
     0
281
     0
282
     0
283
     0
284
     8
285
     0
286
     0
287
     3
288
     0
  0
ENDTAB
  0
TABLE
  2
BLOCK_RECORD
  5
1
330
0
100
AcDbSymbolTable
 70
     1
  0
BLOCK_RECORD
  5
1F
330
1
100
AcDbSymbolTableRecord
100
AcDbBlockTableRecord
  2
*MODEL_SPACE
  0
BLOCK_RECORD
  5
1B
330
1
100
AcDbSymbolTableRecord
100
AcDbBlockTableRecord
  2
*PAPER_SPACE
  0
ENDTAB
  0
ENDSEC
  0
SECTION
  2
BLOCKS
  0
BLOCK
  5
20
330
1F
100
AcDbEntity
  8
0
100
AcDbBlockBegin
  2
*MODEL_SPACE
 70
     0
 10
0.0
 20
0.0
 30
0.0
  3
*MODEL_SPACE
  1

  0
ENDBLK
  5
21
330
1F
100
AcDbEntity
  8
0
100
AcDbBlockEnd
  0
BLOCK
  5
1C
330
1B
100
AcDbEntity
 67
     1
  8
0
100
AcDbBlockBegin
  2
*PAPER_SPACE
  1

  0
ENDBLK
  5
1D
330
1B
100
AcDbEntity
 67
     1
  8
0
100
AcDbBlockEnd
  0
ENDSEC
  0
SECTION
  2
ENTITIES
  0
SPLINE
  5
100
100
AcDbEntity
  8
Layer_1
 62
7
100
AcDbSpline
 70
8
 71
3
 72
8
 73
4
 74
0
 40
0
 40
0
 40
0
 40
0
 40
1
 40
1
 40
1
 40
1
 10
120.856155
 20
216.425556
 30
0.0
 10
119.936669
 20
216.425556
 30
0.0
 10
119.249368
 20
215.943893
 30
0.0
 10
116.968434
 20
213.699797
 30
0.0
  0
SPLINE
  5
101
100
AcDbEntity
  8
Layer_1
 62
7
100
AcDbSpline
 70
8
 71
3
 72
8
 73
4
 74
0
 40
0
 40
0
 40
0
 40
0
 40
1
 40
1
 40
1
 40
1
 10
113.088428
 20
213.199843
 30
0.0
 10
111.140850
 20
215.070003
 30
0.0
 10
110.302418
 20
215.279273
 30
0.0
 10
109.126294
 20
214.189275
 30
0.0
  0
SPLINE
  5
102
100
AcDbEntity
  8
Layer_1
 62
7
100
AcDbSpline
 70
8
 71
3
 72
8
 73
4
 74
0
 40
0
 40
0
 40
0
 40
0
 40
1
 40
1
 40
1
 40
1
 10
109.126294
 20
214.189275
 30
0.0
 10
107.936309
 20
213.086435
 30
0.0
 10
108.153499
 20
212.165874
 30
0.0
 10
110.076036
 20
210.163750
 30
0.0
  0
LWPOLYLINE
  5
103
100
AcDbEntity
  8
Layer_1
 62
7
100
AcDbPolyline
 90
3
 70
0
 10
116.968434
 20
213.699797
 30
0.0
 10
114.794992
 20
211.561080
 30
0.0
 10
113.088428
 20
213.199843
 30
0.0
  0
SPLINE
  5
104
100
AcDbEntity
  8
Layer_1
 62
7
100
AcDbSpline
 70
8
 71
3
 72
8
 73
4
 74
0
 40
0
 40
0
 40
0
 40
0
 40
1
 40
1
 40
1
 40
1
 10
103.622960
 20
200.463465
 30
0.0
 10
95.204844
 20
192.170082
 30
0.0
 10
93.814169
 20
190.614163
 30
0.0
 10
92.684092
 20
188.225381
 30
0.0
  0
SPLINE
  5
105
100
AcDbEntity
  8
Layer_1
 62
7
100
AcDbSpline
 70
8
 71
3
 72
8
 73
4
 74
0
 40
0
 40
0
 40
0
 40
0
 40
1
 40
1
 40
1
 40
1
 10
92.684092
 20
188.225381
 30
0.0
 10
91.378504
 20
185.465597
 30
0.0
 10
91.303746
 20
182.393354
 30
0.0
 10
92.495026
 20
180.453246
 30
0.0
  0
SPLINE
  5
106
100
AcDbEntity
  8
Layer_1
 62
7
100
AcDbSpline
 70
8
 71
3
 72
8
 73
4
 74
0
 40
0
 40
0
 40
0
 40
0
 40
1
 40
1
 40
1
 40
1
 10
92.495026
 20
180.453246
 30
0.0
 10
94.028435
 20
177.955955
 30
0.0
 10
94.828134
 20
176.927604
 30
0.0
 10
96.466533
 20
175.348992
 30
0.0
  0
SPLINE
  5
107
100
AcDbEntity
  8
Layer_1
 62
7
100
AcDbSpline
 70
8
 71
3
 72
8
 73
4
 74
0
 40
0
 40
0
 40
0
 40
0
 40
1
 40
1
 40
1
 40
1
 10
96.466533
 20
175.348992
 30
0.0
 10
97.880447
 20
173.986674
 30
0.0
 10
98.499137
 20
173.564630
 30
0.0
 10
99.073781
 20
173.569118
 30
0.0
  0
SPLINE
  5
108
100
AcDbEntity
  8
Layer_1
 62
7
100
AcDbSpline
 70
8
 71
3
 72
8
 73
4
 74
0
 40
0
 40
0
 40
0
 40
0
 40
1
 40
1
 40
1
 40
1
 10
99.073781
 20
173.569118
 30
0.0
 10
100.148794
 20
173.577514
 30
0.0
 10
101.005397
 20
174.340668
 30
0.0
 10
101.185486
 20
175.450417
 30
0.0
  0
SPLINE
  5
109
100
AcDbEntity
  8
Layer_1
 62
7
100
AcDbSpline
 70
8
 71
3
 72
8
 73
4
 74
0
 40
0
 40
0
 40
0
 40
0
 40
1
 40
1
 40
1
 40
1
 10
101.185486
 20
175.450417
 30
0.0
 10
101.331381
 20
176.349455
 30
0.0
 10
101.226564
 20
176.518267
 30
0.0
 10
99.176857
 20
178.694318
 30
0.0
  0
SPLINE
  5
10a
100
AcDbEntity
  8
Layer_1
 62
7
100
AcDbSpline
 70
8
 71
3
 72
8
 73
4
 74
0
 40
0
 40
0
 40
0
 40
0
 40
1
 40
1
 40
1
 40
1
 10
99.176857
 20
178.694318
 30
0.0
 10
95.814526
 20
182.263902
 30
0.0
 10
95.374418
 20
183.767017
 30
0.0
 10
96.803876
 20
186.792222
 30
0.0
  0
SPLINE
  5
10b
100
AcDbEntity
  8
Layer_1
 62
7
100
AcDbSpline
 70
8
 71
3
 72
8
 73
4
 74
0
 40
0
 40
0
 40
0
 40
0
 40
1
 40
1
 40
1
 40
1
 10
96.803876
 20
186.792222
 30
0.0
 10
97.515059
 20
188.297322
 30
0.0
 10
98.448012
 20
189.337748
 30
0.0
 10
104.281111
 20
195.126597
 30
0.0
  0
SPLINE
  5
10c
100
AcDbEntity
  8
Layer_1
 62
7
100
AcDbSpline
 70
8
 71
3
 72
8
 73
4
 74
0
 40
0
 40
0
 40
0
 40
0
 40
1
 40
1
 40
1
 40
1
 10
104.281111
 20
195.126597
 30
0.0
 10
107.946944
 20
198.764617
 30
0.0
 10
111.808836
 20
202.572520
 30
0.0
 10
112.862981
 20
203.588302
 30
0.0
  0
LWPOLYLINE
  5
10d
100
AcDbEntity
  8
Layer_1
 62
7
100
AcDbPolyline
 90
3
 70
0
 10
110.076036
 20
210.163750
 30
0.0
 10
111.725826
 20
208.445612
 30
0.0
 10
103.622960
 20
200.463465
 30
0.0
  0
SPLINE
  5
10e
100
AcDbEntity
  8
Layer_1
 62
7
100
AcDbSpline
 70
8
 71
3
 72
8
 73
4
 74
0
 40
0
 40
0
 40
0
 40
0
 40
1
 40
1
 40
1
 40
1
 10
118.683814
 20
201.537783
 30
0.0
 10
122.103405
 20
198.123896
 30
0.0
 10
122.693698
 20
197.640139
 30
0.0
 10
123.444110
 20
197.640139
 30
0.0
  0
SPLINE
  5
10f
100
AcDbEntity
  8
Layer_1
 62
7
100
AcDbSpline
 70
8
 71
3
 72
8
 73
4
 74
0
 40
0
 40
0
 40
0
 40
0
 40
1
 40
1
 40
1
 40
1
 10
123.444110
 20
197.640139
 30
0.0
 10
124.603767
 20
197.640139
 30
0.0
 10
125.359033
 20
198.437899
 30
0.0
 10
125.359033
 20
199.661996
 30
0.0
  0
SPLINE
  5
110
100
AcDbEntity
  8
Layer_1
 62
7
100
AcDbSpline
 70
8
 71
3
 72
8
 73
4
 74
0
 40
0
 40
0
 40
0
 40
0
 40
1
 40
1
 40
1
 40
1
 10
125.359033
 20
199.661996
 30
0.0
 10
125.359033
 20
200.520457
 30
0.0
 10
125.089621
 20
200.901352
 30
0.0
 10
122.878562
 20
203.167726
 30
0.0
  0
SPLINE
  5
111
100
AcDbEntity
  8
Layer_1
 62
7
100
AcDbSpline
 70
8
 71
3
 72
8
 73
4
 74
0
 40
0
 40
0
 40
0
 40
0
 40
1
 40
1
 40
1
 40
1
 10
122.878562
 20
203.167726
 30
0.0
 10
119.561635
 20
206.567629
 30
0.0
 10
117.950700
 20
208.305500
 30
0.0
 10
117.950700
 20
208.484198
 30
0.0
  0
SPLINE
  5
112
100
AcDbEntity
  8
Layer_1
 62
7
100
AcDbSpline
 70
8
 71
3
 72
8
 73
4
 74
0
 40
0
 40
0
 40
0
 40
0
 40
1
 40
1
 40
1
 40
1
 10
117.950700
 20
208.484198
 30
0.0
 10
117.950700
 20
208.565353
 30
0.0
 10
119.022264
 20
209.697979
 30
0.0
 10
120.331950
 20
211.001597
 30
0.0
  0
SPLINE
  5
113
100
AcDbEntity
  8
Layer_1
 62
7
100
AcDbSpline
 70
8
 71
3
 72
8
 73
4
 74
0
 40
0
 40
0
 40
0
 40
0
 40
1
 40
1
 40
1
 40
1
 10
120.331950
 20
211.001597
 30
0.0
 10
122.375388
 20
213.035567
 30
0.0
 10
122.713200
 20
213.496397
 30
0.0
 10
122.713200
 20
214.249357
 30
0.0
  0
SPLINE
  5
114
100
AcDbEntity
  8
Layer_1
 62
7
100
AcDbSpline
 70
8
 71
3
 72
8
 73
4
 74
0
 40
0
 40
0
 40
0
 40
0
 40
1
 40
1
 40
1
 40
1
 10
122.713200
 20
214.249357
 30
0.0
 10
122.713200
 20
215.268653
 30
0.0
 10
121.726113
 20
216.425556
 30
0.0
 10
120.856155
 20
216.425556
 30
0.0
  0
LWPOLYLINE
  5
115
100
AcDbEntity
  8
Layer_1
 62
7
100
AcDbPolyline
 90
3
 70
0
 10
112.862981
 20
203.588302
 30
0.0
 10
114.779558
 20
205.434874
 30
0.0
 10
118.683814
 20
201.537783
 30
0.0
  0
SPLINE
  5
116
100
AcDbEntity
  8
Layer_1
 62
7
100
AcDbSpline
 70
8
 71
3
 72
8
 73
4
 74
0
 40
0
 40
0
 40
0
 40
0
 40
1
 40
1
 40
1
 40
1
 10
132.037557
 20
193.914475
 30
0.0
 10
130.670311
 20
193.874126
 30
0.0
 10
129.415735
 20
192.369969
 30
0.0
 10
130.133107
 20
190.984216
 30
0.0
  0
SPLINE
  5
117
100
AcDbEntity
  8
Layer_1
 62
7
100
AcDbSpline
 70
8
 71
3
 72
8
 73
4
 74
0
 40
0
 40
0
 40
0
 40
0
 40
1
 40
1
 40
1
 40
1
 10
130.133107
 20
190.984216
 30
0.0
 10
130.309623
 20
190.643240
 30
0.0
 10
133.036208
 20
187.744722
 30
0.0
 10
136.192065
 20
184.543264
 30
0.0
  0
SPLINE
  5
118
100
AcDbEntity
  8
Layer_1
 62
7
100
AcDbSpline
 70
8
 71
3
 72
8
 73
4
 74
0
 40
0
 40
0
 40
0
 40
0
 40
1
 40
1
 40
1
 40
1
 10
136.192065
 20
184.543264
 30
0.0
 10
141.587274
 20
179.070092
 30
0.0
 10
141.958689
 20
178.630240
 30
0.0
 10
142.409223
 20
177.174066
 30
0.0
  0
SPLINE
  5
119
100
AcDbEntity
  8
Layer_1
 62
7
100
AcDbSpline
 70
8
 71
3
 72
8
 73
4
 74
0
 40
0
 40
0
 40
0
 40
0
 40
1
 40
1
 40
1
 40
1
 10
142.409223
 20
177.174066
 30
0.0
 10
143.068889
 20
175.041954
 30
0.0
 10
142.831459
 20
173.192577
 30
0.0
 10
141.572480
 20
170.652639
 30
0.0
  0
SPLINE
  5
11a
100
AcDbEntity
  8
Layer_1
 62
7
100
AcDbSpline
 70
8
 71
3
 72
8
 73
4
 74
0
 40
0
 40
0
 40
0
 40
0
 40
1
 40
1
 40
1
 40
1
 10
141.572480
 20
170.652639
 30
0.0
 10
140.716971
 20
168.926686
 30
0.0
 10
140.002093
 20
168.086401
 30
0.0
 10
136.082924
 20
164.198459
 30
0.0
  0
SPLINE
  5
11b
100
AcDbEntity
  8
Layer_1
 62
7
100
AcDbSpline
 70
8
 71
3
 72
8
 73
4
 74
0
 40
0
 40
0
 40
0
 40
0
 40
1
 40
1
 40
1
 40
1
 10
136.082924
 20
164.198459
 30
0.0
 10
130.426773
 20
158.587376
 30
0.0
 10
128.953331
 20
157.355372
 30
0.0
 10
127.029766
 20
156.629172
 30
0.0
  0
SPLINE
  5
11c
100
AcDbEntity
  8
Layer_1
 62
7
100
AcDbSpline
 70
8
 71
3
 72
8
 73
4
 74
0
 40
0
 40
0
 40
0
 40
0
 40
1
 40
1
 40
1
 40
1
 10
127.029766
 20
156.629172
 30
0.0
 10
125.127495
 20
155.911012
 30
0.0
 10
122.606429
 20
155.997271
 30
0.0
 10
120.993408
 20
156.836427
 30
0.0
  0
SPLINE
  5
11d
100
AcDbEntity
  8
Layer_1
 62
7
100
AcDbSpline
 70
8
 71
3
 72
8
 73
4
 74
0
 40
0
 40
0
 40
0
 40
0
 40
1
 40
1
 40
1
 40
1
 10
120.993408
 20
156.836427
 30
0.0
 10
120.408361
 20
157.140793
 30
0.0
 10
117.155567
 20
160.175751
 30
0.0
 10
113.719570
 20
163.622991
 30
0.0
  0
SPLINE
  5
11e
100
AcDbEntity
  8
Layer_1
 62
7
100
AcDbSpline
 70
8
 71
3
 72
8
 73
4
 74
0
 40
0
 40
0
 40
0
 40
0
 40
1
 40
1
 40
1
 40
1
 10
113.719570
 20
163.622991
 30
0.0
 10
110.264310
 20
167.089555
 30
0.0
 10
107.295233
 20
169.858889
 30
0.0
 10
107.033881
 20
169.858889
 30
0.0
  0
SPLINE
  5
11f
100
AcDbEntity
  8
Layer_1
 62
7
100
AcDbSpline
 70
8
 71
3
 72
8
 73
4
 74
0
 40
0
 40
0
 40
0
 40
0
 40
1
 40
1
 40
1
 40
1
 10
107.033881
 20
169.858889
 30
0.0
 10
106.769292
 20
169.858889
 30
0.0
 10
101.984785
 20
165.318534
 30
0.0
 10
96.090605
 20
159.473992
 30
0.0
  0
SPLINE
  5
120
100
AcDbEntity
  8
Layer_1
 62
7
100
AcDbSpline
 70
8
 71
3
 72
8
 73
4
 74
0
 40
0
 40
0
 40
0
 40
0
 40
1
 40
1
 40
1
 40
1
 10
96.090605
 20
159.473992
 30
0.0
 10
90.330395
 20
153.762302
 30
0.0
 10
85.512873
 20
149.023831
 30
0.0
 10
85.384900
 20
148.944128
 30
0.0
  0
SPLINE
  5
121
100
AcDbEntity
  8
Layer_1
 62
7
100
AcDbSpline
 70
8
 71
3
 72
8
 73
4
 74
0
 40
0
 40
0
 40
0
 40
0
 40
1
 40
1
 40
1
 40
1
 10
85.384900
 20
148.944128
 30
0.0
 10
85.256929
 20
148.864426
 30
0.0
 10
80.684322
 20
144.356603
 30
0.0
 10
75.223246
 20
138.926340
 30
0.0
  0
SPLINE
  5
122
100
AcDbEntity
  8
Layer_1
 62
7
100
AcDbSpline
 70
8
 71
3
 72
8
 73
4
 74
0
 40
0
 40
0
 40
0
 40
0
 40
1
 40
1
 40
1
 40
1
 10
75.223246
 20
138.926340
 30
0.0
 10
69.131643
 20
132.869106
 30
0.0
 10
65.227908
 20
128.790549
 30
0.0
 10
65.123328
 20
128.373876
 30
0.0
  0
SPLINE
  5
123
100
AcDbEntity
  8
Layer_1
 62
7
100
AcDbSpline
 70
8
 71
3
 72
8
 73
4
 74
0
 40
0
 40
0
 40
0
 40
0
 40
1
 40
1
 40
1
 40
1
 10
65.123328
 20
128.373876
 30
0.0
 10
64.760910
 20
126.929869
 30
0.0
 10
66.384799
 20
125.539583
 30
0.0
 10
67.795620
 20
126.085782
 30
0.0
  0
SPLINE
  5
124
100
AcDbEntity
  8
Layer_1
 62
7
100
AcDbSpline
 70
8
 71
3
 72
8
 73
4
 74
0
 40
0
 40
0
 40
0
 40
0
 40
1
 40
1
 40
1
 40
1
 10
67.795620
 20
126.085782
 30
0.0
 10
68.601421
 20
126.397748
 30
0.0
 10
70.096772
 20
127.836745
 30
0.0
 10
88.935828
 20
146.425625
 30
0.0
  0
SPLINE
  5
125
100
AcDbEntity
  8
Layer_1
 62
7
100
AcDbSpline
 70
8
 71
3
 72
8
 73
4
 74
0
 40
0
 40
0
 40
0
 40
0
 40
1
 40
1
 40
1
 40
1
 10
88.935828
 20
146.425625
 30
0.0
 10
97.352248
 20
154.730276
 30
0.0
 10
104.347171
 20
161.564200
 30
0.0
 10
104.480100
 20
161.612708
 30
0.0
  0
SPLINE
  5
126
100
AcDbEntity
  8
Layer_1
 62
7
100
AcDbSpline
 70
8
 71
3
 72
8
 73
4
 74
0
 40
0
 40
0
 40
0
 40
0
 40
1
 40
1
 40
1
 40
1
 10
104.480100
 20
161.612708
 30
0.0
 10
104.624401
 20
161.665365
 30
0.0
 10
104.721533
 20
154.729246
 30
0.0
 10
104.721533
 20
144.399357
 30
0.0
  0
SPLINE
  5
127
100
AcDbEntity
  8
Layer_1
 62
7
100
AcDbSpline
 70
8
 71
3
 72
8
 73
4
 74
0
 40
0
 40
0
 40
0
 40
0
 40
1
 40
1
 40
1
 40
1
 10
104.721533
 20
144.399357
 30
0.0
 10
104.721533
 20
126.162473
 30
0.0
 10
104.689633
 20
126.656232
 30
0.0
 10
105.912158
 20
125.972783
 30
0.0
  0
SPLINE
  5
128
100
AcDbEntity
  8
Layer_1
 62
7
100
AcDbSpline
 70
8
 71
3
 72
8
 73
4
 74
0
 40
0
 40
0
 40
0
 40
0
 40
1
 40
1
 40
1
 40
1
 10
105.912158
 20
125.972783
 30
0.0
 10
106.643878
 20
125.563719
 30
0.0
 10
107.651519
 20
125.831915
 30
0.0
 10
108.359552
 20
126.624318
 30
0.0
  0
LWPOLYLINE
  5
129
100
AcDbEntity
  8
Layer_1
 62
7
100
AcDbPolyline
 90
2
 70
0
 10
120.856155
 20
216.425556
 30
0.0
 10
120.856155
 20
216.425556
 30
0.0
  0
SPLINE
  5
12a
100
AcDbEntity
  8
Layer_1
 62
7
100
AcDbSpline
 70
8
 71
3
 72
8
 73
4
 74
0
 40
0
 40
0
 40
0
 40
0
 40
1
 40
1
 40
1
 40
1
 10
109.746963
 20
156.188200
 30
0.0
 10
111.675816
 20
152.003598
 30
0.0
 10
116.027056
 20
143.556797
 30
0.0
 10
116.549509
 20
142.982734
 30
0.0
  0
SPLINE
  5
12b
100
AcDbEntity
  8
Layer_1
 62
7
100
AcDbSpline
 70
8
 71
3
 72
8
 73
4
 74
0
 40
0
 40
0
 40
0
 40
0
 40
1
 40
1
 40
1
 40
1
 10
116.549509
 20
142.982734
 30
0.0
 10
117.736064
 20
141.678986
 30
0.0
 10
120.067366
 20
142.539360
 30
0.0
 10
120.067366
 20
144.280846
 30
0.0
  0
SPLINE
  5
12c
100
AcDbEntity
  8
Layer_1
 62
7
100
AcDbSpline
 70
8
 71
3
 72
8
 73
4
 74
0
 40
0
 40
0
 40
0
 40
0
 40
1
 40
1
 40
1
 40
1
 10
120.067366
 20
144.280846
 30
0.0
 10
120.067366
 20
144.759526
 30
0.0
 10
118.873857
 20
147.432605
 30
0.0
 10
117.024658
 20
151.096073
 30
0.0
  0
SPLINE
  5
12d
100
AcDbEntity
  8
Layer_1
 62
7
100
AcDbSpline
 70
8
 71
3
 72
8
 73
4
 74
0
 40
0
 40
0
 40
0
 40
0
 40
1
 40
1
 40
1
 40
1
 10
117.024658
 20
151.096073
 30
0.0
 10
115.351171
 20
154.411444
 30
0.0
 10
113.981950
 20
157.203260
 30
0.0
 10
113.981950
 20
157.300000
 30
0.0
  0
SPLINE
  5
12e
100
AcDbEntity
  8
Layer_1
 62
7
100
AcDbSpline
 70
8
 71
3
 72
8
 73
4
 74
0
 40
0
 40
0
 40
0
 40
0
 40
1
 40
1
 40
1
 40
1
 10
113.981950
 20
157.300000
 30
0.0
 10
113.981950
 20
157.396743
 30
0.0
 10
114.856844
 20
156.658690
 30
0.0
 10
115.926085
 20
155.660134
 30
0.0
  0
SPLINE
  5
12f
100
AcDbEntity
  8
Layer_1
 62
7
100
AcDbSpline
 70
8
 71
3
 72
8
 73
4
 74
0
 40
0
 40
0
 40
0
 40
0
 40
1
 40
1
 40
1
 40
1
 10
115.926085
 20
155.660134
 30
0.0
 10
120.378409
 20
151.502154
 30
0.0
 10
125.082306
 20
150.760493
 30
0.0
 10
130.253825
 20
153.400152
 30
0.0
  0
SPLINE
  5
130
100
AcDbEntity
  8
Layer_1
 62
7
100
AcDbSpline
 70
8
 71
3
 72
8
 73
4
 74
0
 40
0
 40
0
 40
0
 40
0
 40
1
 40
1
 40
1
 40
1
 10
130.253825
 20
153.400152
 30
0.0
 10
131.827648
 20
154.203463
 30
0.0
 10
132.985194
 20
155.222506
 30
0.0
 10
137.955954
 20
160.183958
 30
0.0
  0
SPLINE
  5
131
100
AcDbEntity
  8
Layer_1
 62
7
100
AcDbSpline
 70
8
 71
3
 72
8
 73
4
 74
0
 40
0
 40
0
 40
0
 40
0
 40
1
 40
1
 40
1
 40
1
 10
137.955954
 20
160.183958
 30
0.0
 10
144.191936
 20
166.408262
 30
0.0
 10
145.201866
 20
167.746890
 30
0.0
 10
146.318441
 20
171.268346
 30
0.0
  0
SPLINE
  5
132
100
AcDbEntity
  8
Layer_1
 62
7
100
AcDbSpline
 70
8
 71
3
 72
8
 73
4
 74
0
 40
0
 40
0
 40
0
 40
0
 40
1
 40
1
 40
1
 40
1
 10
146.318441
 20
171.268346
 30
0.0
 10
147.451741
 20
174.842538
 30
0.0
 10
146.850331
 20
179.004859
 30
0.0
 10
144.814727
 20
181.680252
 30
0.0
  0
SPLINE
  5
133
100
AcDbEntity
  8
Layer_1
 62
7
100
AcDbSpline
 70
8
 71
3
 72
8
 73
4
 74
0
 40
0
 40
0
 40
0
 40
0
 40
1
 40
1
 40
1
 40
1
 10
144.814727
 20
181.680252
 30
0.0
 10
143.811309
 20
182.999048
 30
0.0
 10
134.097073
 20
192.918920
 30
0.0
 10
133.171957
 20
193.569414
 30
0.0
  0
SPLINE
  5
134
100
AcDbEntity
  8
Layer_1
 62
7
100
AcDbSpline
 70
8
 71
3
 72
8
 73
4
 74
0
 40
0
 40
0
 40
0
 40
0
 40
1
 40
1
 40
1
 40
1
 10
133.171957
 20
193.569414
 30
0.0
 10
132.812279
 20
193.822324
 30
0.0
 10
132.420385
 20
193.925773
 30
0.0
 10
132.037557
 20
193.914475
 30
0.0
  0
LWPOLYLINE
  5
135
100
AcDbEntity
  8
Layer_1
 62
7
100
AcDbPolyline
 90
5
 70
0
 10
108.359552
 20
126.624318
 30
0.0
 10
108.954866
 20
127.290738
 30
0.0
 10
108.974709
 20
142.555543
 30
0.0
 10
108.994552
 20
157.820347
 30
0.0
 10
109.746963
 20
156.188200
 30
0.0
  0
SPLINE
  5
136
100
AcDbEntity
  8
Layer_1
 62
7
100
AcDbSpline
 70
8
 71
3
 72
8
 73
4
 74
0
 40
0
 40
0
 40
0
 40
0
 40
1
 40
1
 40
1
 40
1
 10
119.721754
 20
190.682701
 30
0.0
 10
113.783389
 20
190.660326
 30
0.0
 10
108.161116
 20
186.035692
 30
0.0
 10
108.161116
 20
179.139702
 30
0.0
  0
SPLINE
  5
137
100
AcDbEntity
  8
Layer_1
 62
7
100
AcDbSpline
 70
8
 71
3
 72
8
 73
4
 74
0
 40
0
 40
0
 40
0
 40
0
 40
1
 40
1
 40
1
 40
1
 10
108.161116
 20
179.139702
 30
0.0
 10
108.161116
 20
176.963142
 30
0.0
 10
108.691499
 20
175.100046
 30
0.0
 10
109.894686
 20
173.047119
 30
0.0
  0
SPLINE
  5
138
100
AcDbEntity
  8
Layer_1
 62
7
100
AcDbSpline
 70
8
 71
3
 72
8
 73
4
 74
0
 40
0
 40
0
 40
0
 40
0
 40
1
 40
1
 40
1
 40
1
 10
109.894686
 20
173.047119
 30
0.0
 10
111.282043
 20
170.679952
 30
0.0
 10
113.410729
 20
169.068195
 30
0.0
 10
116.367058
 20
168.147366
 30
0.0
  0
SPLINE
  5
139
100
AcDbEntity
  8
Layer_1
 62
7
100
AcDbSpline
 70
8
 71
3
 72
8
 73
4
 74
0
 40
0
 40
0
 40
0
 40
0
 40
1
 40
1
 40
1
 40
1
 10
116.367058
 20
168.147366
 30
0.0
 10
118.741695
 20
167.407721
 30
0.0
 10
122.132273
 20
167.651872
 30
0.0
 10
124.565283
 20
168.737166
 30
0.0
  0
SPLINE
  5
13a
100
AcDbEntity
  8
Layer_1
 62
7
100
AcDbSpline
 70
8
 71
3
 72
8
 73
4
 74
0
 40
0
 40
0
 40
0
 40
0
 40
1
 40
1
 40
1
 40
1
 10
124.565283
 20
168.737166
 30
0.0
 10
130.640929
 20
171.447334
 30
0.0
 10
132.975271
 20
179.187409
 30
0.0
 10
129.524565
 20
185.182675
 30
0.0
  0
SPLINE
  5
13b
100
AcDbEntity
  8
Layer_1
 62
7
100
AcDbSpline
 70
8
 71
3
 72
8
 73
4
 74
0
 40
0
 40
0
 40
0
 40
0
 40
1
 40
1
 40
1
 40
1
 10
129.524565
 20
185.182675
 30
0.0
 10
128.931921
 20
186.216418
 30
0.0
 10
128.826300
 20
186.332443
 30
0.0
 10
127.517590
 20
187.641646
 30
0.0
  0
SPLINE
  5
13c
100
AcDbEntity
  8
Layer_1
 62
7
100
AcDbSpline
 70
8
 71
3
 72
8
 73
4
 74
0
 40
0
 40
0
 40
0
 40
0
 40
1
 40
1
 40
1
 40
1
 10
127.517590
 20
187.641646
 30
0.0
 10
125.186036
 20
189.752073
 30
0.0
 10
122.421009
 20
190.692869
 30
0.0
 10
119.721754
 20
190.682701
 30
0.0
  0
LWPOLYLINE
  5
13d
100
AcDbEntity
  8
Layer_1
 62
7
100
AcDbPolyline
 90
2
 70
0
 10
132.037557
 20
193.914475
 30
0.0
 10
132.037557
 20
193.914475
 30
0.0
  0
LWPOLYLINE
  5
13e
100
AcDbEntity
  8
Layer_1
 62
7
100
AcDbPolyline
 90
2
 70
0
 10
119.721754
 20
190.682701
 30
0.0
 10
119.721754
 20
190.682701
 30
0.0
  0
ENDSEC
  0
SECTION
  2
OBJECTS
  0
DICTIONARY
  5
C
330
0
100
AcDbDictionary
  3
ACAD_GROUP
350
D
  3
ACAD_MLINESTYLE
350
17
  0
DICTIONARY
  5
D
330
C
100
AcDbDictionary
  0
DICTIONARY
  5
1A
330
C
100
AcDbDictionary
  0
DICTIONARY
  5
17
330
C
100
AcDbDictionary
  3
STANDARD
350
18
  0
DICTIONARY
  5
19
330
C
100
AcDbDictionary
  0
ENDSEC
  0
EOF
