<?xml version="1.0" encoding="UTF-8" standalone="no"?>
<!-- Created with Inkscape (http://www.inkscape.org/) -->

<svg
   xmlns:dc="http://purl.org/dc/elements/1.1/"
   xmlns:cc="http://creativecommons.org/ns#"
   xmlns:rdf="http://www.w3.org/1999/02/22-rdf-syntax-ns#"
   xmlns:svg="http://www.w3.org/2000/svg"
   xmlns="http://www.w3.org/2000/svg"
   xmlns:sodipodi="http://sodipodi.sourceforge.net/DTD/sodipodi-0.dtd"
   xmlns:inkscape="http://www.inkscape.org/namespaces/inkscape"
   width="210mm"
   height="297mm"
   viewBox="0 0 744.09448819 1052.3622047"
   id="svg2"
   version="1.1"
   inkscape:version="0.91 r13725"
   sodipodi:docname="balon.svg">
  <defs
     id="defs4" />
  <sodipodi:namedview
     id="base"
     pagecolor="#ffffff"
     bordercolor="#666666"
     borderopacity="1.0"
     inkscape:pageopacity="0.0"
     inkscape:pageshadow="2"
     inkscape:zoom="0.7"
     inkscape:cx="406.08748"
     inkscape:cy="627.19091"
     inkscape:document-units="mm"
     inkscape:current-layer="layer1"
     showgrid="false"
     inkscape:window-width="1440"
     inkscape:window-height="837"
     inkscape:window-x="-4"
     inkscape:window-y="-4"
     inkscape:window-maximized="1" />
  <metadata
     id="metadata7">
    <rdf:RDF>
      <cc:Work
         rdf:about="">
        <dc:format>image/svg+xml</dc:format>
        <dc:type
           rdf:resource="http://purl.org/dc/dcmitype/StillImage" />
        <dc:title></dc:title>
      </cc:Work>
    </rdf:RDF>
  </metadata>
  <g
     inkscape:label="Layer 1"
     inkscape:groupmode="layer"
     id="layer1">
    <g
       id="g4255"
       transform="matrix(0.55915512,0,0,0.55915512,441.20558,255.95411)">
      <path
         id="path4146"
         style="fill:#01539e"
         d="m -120.94126,1031.6328 c 0.2212,-6.3331 0.538,-12.6062 0.7039,-13.9404 0.2351,-1.8897 -0.5175,-4.2063 -3.4048,-10.4809 -4.0859,-8.87917 -19.8512,-38.28547 -21.3051,-39.73927 -0.5852,-0.5853 -3.584,-1.0828 -8.2887,-1.3752 -6.3591,-0.3952 -12.8149,-1.5049 -9.7658,-1.6786 0.5644,-0.032 6.5668,-0.5124 13.3388,-1.0673 24.7295,-2.0261 58.508803,-2.6828 91.319503,-1.7751 16.7419,0.4631 30.73221,1.1271 31.08962,1.4754 0.40648,0.3962 0.27839,0.6457 -0.34202,0.6661 -3.63732,0.1198 -15.1606,1.9012 -15.6327,2.4167 -0.3167,0.3459 -4.0566,16.7123 -8.311,36.36987 -6.2225,28.7521 -7.945,35.7401 -8.8086,35.736 -0.5904,0 -3.0743,-0.6162 -5.5198,-1.3629 -2.4454,-0.7467 -6.2183,-1.36 -8.3843,-1.3629 l -3.938,-0.01 0.3637,-4.9592 c 0.28,-3.8179 0.1982,-4.58 -0.3555,-3.3113 -0.3955,0.9064 -1.2365,2.0264 -1.8688,2.4886 -0.6323,0.4624 -1.4969,1.8755 -1.9215,3.1403 l -0.7718,2.2996 -8.1499,0.4187 c -4.4824,0.2303 -8.7991,0.6397 -9.592503,0.9097 -1.2039,0.4096 -1.5076,0.1664 -1.8347,-1.4689 -0.6262,-3.131 -4.7008,-8.7194 -6.5482,-8.9808 l -1.617,-0.2288 0.4902,6.849 0.4903,6.849 -4.6876,1.4367 c -2.5781,0.7902 -5.2415,1.6074 -5.9187,1.8162 -1.1625,0.3584 -1.2087,-0.2621 -0.829,-11.1351 z m 21.750503,-9.9755 c 3.6122,-2.4323 3.5015,-1.8394 1.7378,-9.3091 l -0.8656,-3.6658 2.2133,-1.9776 c 2.153,-1.9238 4.8235,-2.4996 7.2586,-1.5652 1.6089,0.6174 2.6317,5.4006 2.1121,9.8778 -0.3008,2.5912 -0.1985,4.0806 0.3014,4.3896 0.8724,0.5391 2.1858,-2.3021 3.8784,-8.3898 l 1.1518,-4.143 -2.4931,-2.3513 c -1.3712,-1.2932 -2.4931,-2.8536 -2.4931,-3.4676 0,-1.12857 -0.6682,-1.38397 -2.9813,-1.13947 -4.4306,0.46807 -5.9112,-1.9978 -5.9112,-9.8453 0,-6.1566 1.1832,-8.235 4.3595,-7.6581 1.1764,0.2136 4.6342,0.7816 7.6841,1.2621 3.0499,0.4804 6.0349,1.2826 6.6334,1.7825 0.5985,0.4999 1.6079,2.2699 2.2431,3.9333 0.6353,1.6633 1.5749,3.0242 2.0882,3.0242 1.357,0 1.3675,-23.4133 0.011,-24.5391 -1.4815,-1.2296 -38.527603,-0.8393 -39.570103,0.4168 -0.6038,0.7275 -0.6194,6.7743 -0.064,24.9597 l 0.7324,23.99947 3.6661,3.2849 c 2.0163,1.8067 3.9675,3.2982 4.336,3.3145 0.3684,0.016 2.1556,-0.9708 3.971503,-2.1935 z m 41.4567,-26.50657 c 4.6275,-21.8355 4.3987,-20.5212 3.5732,-20.5212 -1.0571,0 -1.7654,1.6004 -5.9648,13.4776 -3.1262,8.8423 -3.8868,11.8717 -4.1854,16.67157 -0.4012,6.4485 0.5184,9.868 2.1691,8.0659 0.471,-0.5142 2.4545,-8.4765 4.4079,-17.69387 z m -67.087003,-25.5333 c 0.1731,-1.4618 -0.067,-1.8283 -1.197,-1.8283 -1.0248,0 -1.4135,0.4389 -1.4135,1.596 0,3.1059 2.2467,3.3057 2.6105,0.2323 z m -73.3954,-99.6196 -5.8689,-11.72241 -38.7987,-40.50177 c -134.1618,-140.05068 -137.3462,-143.45126 -170.1927,-181.74426 -42.3779,-49.40504 -65.8282,-78.90648 -76.7268,-96.52552 -20.492,-33.12807 -43.2641,-72.66756 -43.2641,-75.12006 0,-3.0674 4.2224,-9.73025 7.4724,-11.79137 1.6808,-1.06593 3.4179,-1.93806 3.8601,-1.93806 0.4423,0 3.0477,3.77077 5.7898,8.37949 16.7712,28.18755 43.4627,68.93153 63.9689,97.6468 38.3183,53.65814 73.1287,96.169 113.1469,138.17621 25.8987,27.18597 74.6818,82.79615 107.4113,122.44328 19.6799,23.83943 30.0552,36.09881 32.0862,37.91281 1.4049,1.25474 1.5872,1.26274 3.8773,0.17067 3.0051,-1.43306 3.1414,-1.16601 -6.078,-11.90326 -3.9498,-4.60011 -13.5862,-16.14329 -21.4141,-25.65153 -37.4206,-45.45272 -80.8062,-94.7977 -119.3674,-135.7638 -57.1758,-60.74144 -116.9723,-140.92872 -166.5675,-223.36731 -7.6649,-12.7408 -9.8348,-17.68901 -9.8061,-22.36136 0.032,-5.15698 4.5602,-11.69253 10.9371,-15.78454 3.4854,-2.23661 17.0481,-8.21113 18.6008,-8.19389 0.4878,0.005 3.8887,5.93092 7.5574,13.16778 25.8975,51.08401 49.4639,91.91776 75.1376,130.1912 17.8699,26.63983 38.7385,55.01835 86.4738,117.59267 43.7624,57.36639 78.7754,104.53728 116.7735,157.32203 8.6912,12.07325 15.7938,21.30075 16.5003,21.43688 2.0593,0.39654 4.5525,-0.52282 4.5525,-1.67878 0,-2.94862 -77.5715,-108.34642 -138.8873,-188.70882 -46.0342,-60.33382 -63.6643,-84.48319 -83.432,-114.28383 -24.8057,-37.39568 -47.6447,-77.22432 -71.1044,-123.99836 -7.2106,-14.37636 -7.617,-15.40389 -6.8375,-17.28588 1.6368,-3.95142 7.9258,-7.81896 16.5148,-10.15602 4.1458,-1.12809 23.5106,-4.14725 36.995,-5.76788 3.8498,-0.46269 3.1065,-1.6608 9.0784,14.63471 13.667,37.29363 50.7975,114.10229 90.7705,187.76916 15.3024,28.20101 38.5494,67.95882 49.3962,84.47902 16.0763,24.48489 66.5203,105.37434 104.2118,167.1088 1.3315,2.18079 2.6444,4.10329 2.9177,4.27217 0.9133,0.56448 4.8547,-0.55338 5.2093,-1.47745 0.4988,-1.29996 -42.0634,-70.54984 -92.301,-150.176 -27.3128,-43.2906 -36.9455,-59.01458 -47.5664,-77.64552 -31.7472,-55.69021 -77.7215,-146.60567 -96.7951,-191.41482 -10.0954,-23.717 -15.8049,-39.59648 -14.8671,-41.34884 0.9907,-1.85122 7.1237,-7.18406 10.6149,-9.23002 4.4963,-2.635 14.3146,-6.26755 20.186,-7.46834 6.8149,-1.39376 20.7748,-2.42054 40.153,-2.95332 l 15.8696,-0.43633 0.6469,1.6467 c 1.7955,4.57 42.9211,130.08235 46.4914,141.8881 16.0314,53.01157 61.5539,168.83846 126.0147,320.63036 3.6618,8.62275 6.1589,13.64313 6.9035,13.87946 1.8015,0.57179 4.7032,-0.39626 4.7032,-1.56898 0,-0.57843 -5.1201,-13.08871 -11.378,-27.80051 -59.3996,-139.64457 -106.1494,-259.22205 -121.3189,-310.31217 -1.9502,-6.56824 -12.9076,-40.17949 -24.3498,-74.69167 -11.4421,-34.51219 -20.8039,-63.33103 -20.8039,-64.04188 0,-2.26283 14.4072,-8.41936 27.5631,-11.77837 13.0193,-3.3241 35.4325,-4.68736 56.057,-3.40959 11.9613,0.74105 24.8294,2.23602 25.5632,2.96984 0.176,0.17594 2.1367,12.4403 4.3572,27.25414 18.1506,121.09075 45.427,288.45153 61.2786,375.9902 8.8137,48.67209 16.2588,83.14001 18.2283,84.38968 1.1451,0.72659 3.371,0.7114 4.5426,-0.0308 0.7596,-0.48129 0.4851,-2.37574 -1.51,-10.42116 -11.8443,-47.76354 -38.2975,-203.96799 -75.2811,-444.5293 -3.3845,-22.01436 -4.875,-33.43404 -4.4333,-33.96622 0.8075,-0.97299 9.468,-4.48129 15.9144,-6.44679 18.2734,-5.5715 41.0869,-6.08607 71.556,-1.61397 12.4166,1.82245 27.588903,5.01008 28.163003,5.9169 0.3031,0.47879 0.3874,10.7207 0.1873,22.75982 -0.6331,38.0954 -4.4765,452.52312 -4.263,459.67531 l 0.2043,6.8404 2.1104,0.20597 c 1.1607,0.11328 2.4353,-0.19454 2.8324,-0.68404 0.4936,-0.60839 1.4766,-78.113 3.1069,-244.95147 1.3117,-134.23385 2.546,-244.22262 2.7429,-244.41952 0.8758,-0.87579 13.2877,-3.81842 22.6927,-5.38 25.4226,-4.22109 48.75615,-3.59237 74.47039,2.0066 7.65491,1.66677 20.72157,5.35112 21.40629,6.03583 1.41092,1.41093 -29.8912401,180.40508 -74.19288,424.2549 -6.3567,34.98867 -11.41,64.00055 -11.2298,64.47083 0.1823,0.47568 1.4762,0.85505 2.9165,0.85505 2.115,0 2.659,-0.28169 2.9724,-1.5391 0.3982,-1.59764 20.60198,-112.77668 32.53704,-179.04763 22.1873099,-123.19784 39.4276,-221.23511 47.21446,-268.48595 2.66603,-16.17756 5.22917,-31.71754 5.69585,-34.53329 l 0.84852,-5.11953 2.73616,-0.48371 c 1.50489,-0.26605 9.20034,-0.69819 17.10101,-0.96032 32.82103,-1.08895 53.820387,2.86249 79.161017,14.89571 6.02585,2.86141 7.37013,3.77006 7.37013,4.98167 0,3.6557 -14.89554,47.84062 -29.63716,87.91343 -29.648717,80.59538 -79.668667,207.31493 -138.089287,349.83268 -12.87097,31.39883 -13.64073,33.51997 -12.47409,34.37304 2.06533,1.51023 4.26398,1.10951 5.33366,-0.97195 0.53169,-1.03461 7.89478,-18.81112 16.36244,-39.50335 84.76204,-207.13127 144.775397,-363.03559 162.450257,-422.01744 3.06853,-10.23984 2.00998,-9.41941 13.66624,-10.59254 15.01168,-1.51083 29.13179,-0.63684 39.84359,2.46622 10.98733,3.18287 22.72075,9.72205 30.83929,17.18704 l 3.66208,3.36731 -5.71523,12.92131 C 207.05785,462.4168 126.6211,604.38189 8.1547629,801.22518 c -13.3589,22.19712 -24.7582099,41.15305 -25.3317799,42.12432 -1.58803,2.68903 -0.66426,4.17545 2.43563,3.91901 l 2.57065,-0.2126 17.2078199,-28.58025 C 130.09364,610.77089 215.3593,460.55035 239.24484,405.84969 c 1.97134,-4.51466 3.92243,-8.63714 4.33565,-9.16106 0.60757,-0.77021 2.65135,-0.87562 10.67631,-0.55061 16.46752,0.66693 26.24315,4.04788 33.96371,11.74652 4.24721,4.23507 9.82118,12.08636 9.82118,13.83365 0,2.37282 -32.21182,57.26 -52.309,89.13174 C 176.89282,620.02159 95.398213,728.55298 9.8081529,825.04526 c -20.6833499,23.31792 -19.8727199,22.3383 -19.1139,23.09711 0.37031,0.37034 1.75206,0.84834 3.07056,1.06231 2.35826,0.38272 2.54157,0.22916 11.25971,-9.43039 C 88.788393,746.9653 177.29155,630.29259 245.71197,522.47862 c 22.34268,-35.2067 49.43,-80.38039 55.68029,-92.85851 1.90361,-3.80046 2.3665,-4.27526 4.16813,-4.27526 5.19077,0 18.19788,6.82708 21.66329,11.37046 2.08694,2.73608 3.65196,7.68625 3.65196,11.55105 0,2.49306 -1.0617,4.52657 -8.14214,15.59482 -36.52571,57.09744 -96.52319,135.4627 -163.23692,213.21063 -28.83115,33.59973 -105.613527,117.77353 -145.465647,159.46882 -6.6983601,7.0082 -12.1788401,13.06941 -12.1788401,13.46944 0,0.97093 0.59165,1.28456 3.42542,1.81558 2.38423,0.44682 2.4186,0.41631 17.4791001,-15.49981 46.05084,-48.66717 112.439287,-121.50723 140.472637,-154.12373 49.40531,-57.4824 95.61937,-115.90179 132.17109,-167.07781 12.41513,-17.38246 31.73586,-46.00746 35.78086,-53.01195 2.25405,-3.90317 2.68103,-4.21374 4.47397,-3.25418 2.12148,1.13536 6.84916,7.46006 6.84916,9.16276 0,0.83093 -2.64211,6.26706 -5.87126,12.08029 -34.8139,62.67207 -90.09054,135.51706 -162.68634,214.39201 C 128.83357,743.50843 61.024753,810.04814 15.734153,849.74466 9.0215529,855.62817 4.2304229,861.59642 -2.3593571,872.2836 l -2.05847,3.33839 -4.90252,-0.43744 c -57.9827099,-5.17388 -112.4961129,-6.08824 -144.7888129,-2.42862 -12.7511,1.4451 -28.292,5.00882 -37.0753,8.5018 -0.9574,0.38074 -2.2012,-1.61078 -7.032,-11.25992 z M 274.44229,271.71284 c -1.88111,-1.69979 -5.8058,-4.79177 -8.72152,-6.87106 -2.91572,-2.0793 -5.30132,-3.8954 -5.30132,-4.03578 0,-0.14038 -0.94041,-4.80899 -2.08981,-10.37468 -3.13824,-15.19584 -7.88986,-33.50784 -11.67815,-45.00551 -5.53977,-16.81363 -14.03117,-32.49193 -17.59769,-32.49193 -1.40899,0 -17.45063,18.004 -17.76926,19.9429 -0.12429,0.75634 0.2269,1.88847 0.78035,2.51584 4.14283,4.69597 15.9898,26.64906 19.99547,37.05279 2.30987,5.99923 4.94493,16.80178 4.26445,17.48223 -0.21192,0.21193 -3.26534,-0.38867 -6.78541,-1.33467 -9.11026,-2.44831 -16.93192,-3.78386 -25.53545,-4.36017 l -7.47499,-0.50072 -5.56303,-9.42842 c -3.05971,-5.18564 -5.91401,-9.77935 -6.3429,-10.20824 -0.58369,-0.58372 -2.6694,1.08228 -8.29447,6.62533 l -7.51467,7.40513 -4.77309,-2.13422 c -4.30139,-1.92329 -17.46165,-6.06204 -23.15745,-7.28274 -1.22272,-0.26205 -2.22039,-0.68286 -2.21704,-0.93514 0,-0.25226 8.62828,-10.00104 19.16647,-21.66393 14.91353,-16.50513 19.08618,-21.51695 18.82542,-22.61146 -0.18435,-0.7734 -0.98912,-2.88471 -1.78849,-4.69181 -1.33457,-3.017 -1.87571,-3.48072 -6.61912,-5.67233 -6.90423,-3.18995 -19.77062,-7.36646 -26.80345,-8.70056 -8.06888,-1.53065 -16.84122,-2.1323 -17.4206,-1.1948 -0.25576,0.4138 -2.46522,13.91806 -4.90991,30.00947 -2.44469,16.0914 -4.66516,29.4629 -4.93439,29.71443 -0.26924,0.25153 -4.49114,0.0564 -9.38203,-0.43348 -4.890887,-0.48994 -12.971117,-1.11521 -17.956067,-1.38948 -4.98495,-0.27427 -9.06354,-0.78715 -9.06354,-1.13974 0,-0.35259 0.75132,-5.93077 1.66959,-12.39596 6.86327,-48.32163 10.19865,-101.32861 9.86443,-156.77151 -0.11594,-19.233633 0.0595,-30.774301 0.46761,-30.761777 13.639637,0.418702 29.924657,1.173164 31.627237,1.46525 1.79848,0.308536 3.31123,1.663169 7.61419,6.818387 25.19356,30.18337 47.12212,75.51 61.82031,127.78372 0.52322,1.86094 1.27423,3.49115 1.66885,3.6227 0.72591,0.24195 3.37472,-2.4074 11.10841,-11.11047 7.25726,-8.16691 7.26828,-6.30002 -0.10821,-18.28535 -5.62959,-9.14685 -7.04842,-12.13555 -11.42115,-24.05778 -10.25644,-27.96416 -23.37764,-56.52138 -32.18562,-70.049422 -2.27977,-3.501439 -4.14501,-6.502668 -4.14501,-6.669396 0,-1.292645 13.92871,3.214882 21.11093,6.831788 8.50365,4.282354 10.30254,6.520323 14.11771,17.56334 1.34858,3.90349 4.37485,8.14319 22.21593,31.12385 11.36013,14.63263 21.19643,26.69695 21.85858,26.80962 2.5919,0.44102 22.8512,-23.85084 34.84661,-41.78272 l 4.93398,-7.37584 3.49087,1.90352 c 1.91996,1.04693 5.6001,3.90819 8.17811,6.35834 5.61652,5.33791 5.64204,5.51486 2.25556,15.63774 -5.94541,17.7725 -16.94601,35.87795 -30.78976,50.67574 -3.17286,3.39148 -5.76879,6.37074 -5.76879,6.62059 0,0.24985 1.51658,3.75856 3.37027,7.79713 13.12557,28.59709 21.48345,62.15276 23.42114,94.03262 0.74635,12.28011 0.34414,29.10671 -0.6943,29.04545 -0.2451,-0.0144 -1.98468,-1.41702 -3.86579,-3.11681 z M 162.60164,139.43369 c 0,-2.98735 -7.02475,-18.48739 -13.18358,-29.08953 -6.23879,-10.73973 -21.3342,-32.14155 -25.02871,-35.48506 -2.08016,-1.88249 -2.33935,-0.37077 -1.18934,6.93521 1.45598,9.24948 2.44866,24.44788 2.45667,37.61339 l 0.007,11.11566 3.00328,0 c 5.48901,0 17.51041,3.68572 29.83067,9.14599 3.21047,1.42287 4.10424,1.37155 4.10424,-0.23566 z m -621.0674,130.75078 c -1.273,-4.79865 -4.047,-18.31162 -6.1325,-29.87259 -8.0939,-44.8704 -11.7763,-90.33492 -10.2876,-127.01797 0.6555,-16.15442 2.3422,-34.18317 3.3793,-36.12093 1.2143,-2.26895 14.267,-14.19786 18.9205,-17.29151 6.1229,-4.07045 15.16,-8.377 20.3871,-9.71519 4.6413,-1.18826 14.9483,-1.35126 19.5224,-0.30875 13.4478,3.06495 30.3312,19.80558 35.3053,35.00675 1.5769,4.81912 1.8512,6.84077 1.8797,13.85119 0.052,12.68649 -3.1094,22.21118 -11.6665,35.15213 -5.3153,8.03848 -20.0046,22.56282 -31.1618,30.8118 -4.7969,3.54651 -8.7215,6.82206 -8.7215,7.279 0,0.99453 45.4948,46.01049 61.7619,61.11182 l 11.4849,10.66186 -3.6185,0.5526 c -11.3722,1.73676 -29.0235,4.79089 -34.0347,5.8889 -3.185,0.69786 -6.1236,1.14113 -6.5304,0.98504 -0.4067,-0.15609 -8.0844,-7.89337 -17.0614,-17.19396 -22.6274,-23.443 -41.5791,-42.56169 -42.1901,-42.56169 -1.2768,0 -1.2105,2.07653 0.4301,13.47967 4.1495,28.84126 8.1558,48.55527 11.5801,56.98268 1.2018,2.95753 1.4549,4.24651 0.8721,4.44082 -0.4516,0.15057 -2.1072,0.60267 -3.679,1.00467 -1.5719,0.402 -4.4139,1.778 -6.3156,3.05777 l -3.4577,2.32686 z m 5.4735,-116.99467 c 13.0835,-4.44085 21.7293,-9.55587 28.7687,-17.02016 10.1791,-10.79354 13.2135,-22.36807 10.5373,-40.1951 -1.4416,-9.60335 -2.729,-12.96292 -6.4287,-16.77641 -6.4081,-6.60497 -15.7874,-6.47132 -30.1838,0.4301 -11.1163,5.32895 -11.6296,6.03054 -12.9658,17.71916 -1.2183,10.65673 -0.8015,24.99025 1.3725,47.1988 0.7354,7.51289 1.4808,10.60263 2.5578,10.60263 0.3137,0 3.1676,-0.88156 6.342,-1.95902 z m 100.9183,87.63511 c -3.2034,-9.71891 -6.3638,-28.87914 -8.2082,-49.76396 -2.1184,-23.98793 -2.739,-42.22529 -2.7349,-80.37477 0,-48.91146 1.2564,-70.701498 4.1857,-72.895709 2.655,-1.988772 15.983,-8.571877 22.1045,-10.918116 14.6821,-5.627322 36.3981,-9.800961 52.4829,-10.086829 l 8.7176,-0.154935 0,13.338792 0,13.338793 -9.5766,0.433935 c -5.2671,0.238668 -11.7313,0.790669 -14.3649,1.226662 -13.8406,2.291379 -35.628,8.223527 -37.0715,10.093567 -0.5763,0.74671 -0.7176,3.50615 -0.4791,9.35925 1.0744,26.36914 1.7272,37.73436 2.1942,38.20136 0.2894,0.28941 2.7716,-0.4172 5.5159,-1.57025 6.711,-2.81967 17.4625,-5.14675 29.6501,-6.41753 12.5095,-1.30436 18.3214,-1.36625 18.3071,-0.19496 0,0.47028 -0.6383,4.24106 -1.4058,8.3795 -1.736,9.36142 -2.4743,21.95017 -1.4581,24.86506 0.4073,1.16837 0.4897,2.27932 0.1831,2.46879 -0.3066,0.18947 -12.0273,2.10722 -26.0461,4.26167 -14.6963,2.25856 -25.8572,4.28558 -26.3588,4.78725 -1.9369,1.93688 -2.1201,24.26133 -0.3021,36.80958 1.2108,8.35683 2.7981,16.45107 3.4251,17.46557 0.5223,0.84512 1.2501,0.81596 5.2554,-0.21057 2.5571,-0.65535 5.0379,-1.18895 5.5129,-1.18579 0.5498,0.003 -0.01,1.74047 -1.5405,4.77968 -5.6722,11.26358 -9.4217,23.14086 -10.7994,34.20934 l -0.8931,7.17538 -6.4701,2.87711 c -3.5585,1.58241 -6.984,2.89381 -7.6122,2.91422 -0.7694,0.025 -1.4915,-1.02309 -2.2131,-3.21209 z m 72.3033,-15.44368 c 0.5918,-1.54228 10.1944,-14.91731 10.4945,-14.61727 0.5981,0.59812 2.2237,12.45138 1.7617,12.84568 -0.492,0.41988 -10.4992,2.67941 -11.8668,2.67941 -0.4058,0 -0.581,-0.40852 -0.3894,-0.90782 z m 29.2184,-3.70946 c 0,-0.28216 3.6417,-4.61491 8.0844,-9.62833 7.7528,-8.7487 8.1543,-9.35393 9.9833,-15.04889 19.5013,-60.721 60.3524,-123.27231 115.8777,-177.432024 6.4466,-6.288112 12.4199,-11.886458 13.274,-12.44077 1.38,-0.895717 3.367003,-0.828326 17.859203,0.605724 8.9685,0.887468 16.4537,1.760851 16.6337,1.940856 0.18,0.180006 -0.4829,30.41179 -1.4731,67.181734 -1.1406,42.35242 -1.5616,67.09328 -1.1488,67.50608 0.7506,0.75063 0.6392,0.89724 8.9506,-11.78067 10.6064,-16.17863 29.99068,-40.70887 57.5677999,-72.85033 C 10.989943,41.154583 35.398353,13.602952 38.192893,11.033866 l 1.62346,-1.492481 12.81756,4.912684 c 7.04965,2.701975 13.00617,5.374412 13.2367,5.938745 1.59666,3.908629 0.89684,72.743006 -1.43959,141.596416 -1.53667,45.28505 -1.71574,49.93617 -2.13043,55.33693 l -0.38851,5.05996 -9.00198,-0.45177 c -15.73782,-0.78982 -26.39224,-2.90793 -25.90192,-5.14933 0.50654,-2.31548 2.28911,-27.95014 3.21578,-46.24529 1.20285,-23.74756 2.393,-63.80889 2.40303,-80.8878 0.007,-11.18944 -0.0611,-11.7997 -1.30875,-11.7997 -1.91679,0 -6.95655,3.99425 -14.98342,11.87509 -19.9612201,19.59806 -49.3166,57.65512 -83.83598,108.68707 l -11.4519,16.93001 -13.9786,0 -13.978703,0 0,-70.40024 c 0,-38.72014 -0.1869,-70.88715 -0.4152,-71.48225 -0.2284,-0.59511 -0.7789,-1.08201 -1.2233,-1.08201 -2.7433,0 -25.0641,22.35823 -36.2134,36.27406 -21.6368,27.00563 -38.6582,54.3122 -63.4863,101.8479 l -2.294,4.39201 -9.5765,2.62677 c -6.3611,1.74477 -12.7921,2.96427 -19.1532,3.63195 -11.2537,1.18122 -11.2886,1.18282 -11.28,0.51918 z m 27.82829,-304.391706 c 0,-2.24164 1.6744,-11.42174 3.1877,-17.476694 6.75,-27.00828 24.5291,-52.77304 43.0279,-62.35433 12.788,-6.6234 23.0794,-9.30537 40.0645,-10.4409 18.7472,-1.25334 38.557305,1.59909 46.936805,6.75839 l 2.2232,1.36879 0,35.94365 c 0,30.048734 -0.1559,36.003484 -0.9505,36.308404 -0.5228,0.2006 -5.0631,-0.25948 -10.0896,-1.02241 -15.584405,-2.36542 -26.943705,-2.98771 -47.764005,-2.6166 -26.7377,0.47657 -42.8713,3.05339 -63.6392,10.1643 -12.2279,4.18682 -12.9968,4.38603 -12.9968,3.3674 z m 270.880205,0.55463 c -3.0255,-1.21535 -23.3238,-6.05621 -32.492,-7.74885 -21.7659004,-4.01845 -30.5035,-4.7729 -55.4073,-4.78417 -18.4571,-0.008 -24.9756,0.23433 -31.5822,1.17577 -4.5786,0.65246 -8.9678,1.18629 -9.7536,1.18629 l -1.4287,0 0.177,-36.425164 0.177,-36.42517 5.2957,-2.61073 c 6.6138,-3.26051 18.6609,-6.34639 28.7313,-7.35953 16.743,-1.68446 35.3134,1.3879 54.0812996,8.94743 7.8456004,3.16014 8.5997004,3.63494 12.6861004,7.98732 7.9139,8.42913 17.7609,24.76521 23.2215,38.52422 4.7158,11.88239 11.0877,35.953054 9.9882,37.731994 -0.4501,0.72828 -1.5301,0.66998 -3.6943,-0.19941 z m 120.177095,20.64027 c -23.4047,-11.42964 -62.1731,-18.44262 -102.207995,-18.48884 -8.1141,-0.009 -8.377,-0.0561 -8.7129,-1.54875 -0.1905,-0.8465 -0.9817,-4.77118 -1.7583,-8.72152 -4.9744,-25.304144 -15.8743,-49.836884 -29.8866,-67.266354 -2.3075,-2.87021 -3.515,-4.92142 -3.1261,-5.31036 0.3486,-0.34855 4.8187,-0.9929 9.9337,-1.4319 30.06,-2.57996 62.8635,8.06864 85.967495,27.90653 20.0301,17.19864 38.9478,41.159834 53.1401,67.307344 4.7858,8.81727 5.6303,10.97377 4.2641,10.88824 -0.4956,-0.0311 -3.9217,-1.5315 -7.6135,-3.33439 z m -515.8725,1.85171 c 3.8675,-18.18083 21.9943,-45.198264 43.5316,-64.882604 12.8564,-11.75022 16.9342,-14.84405 22.0374,-16.71974 2.6758,-0.98347 9.1745,-3.73679 14.4416,-6.11848 26.9402,-12.18188 43.412,-16.88278 59.1695,-16.88644 6.1128,-0.001 8.8893,0.32089 12.4548,1.44575 2.5236,0.79617 4.7839,1.76394 5.0229,2.15061 0.239,0.38666 -1.6931,3.07172 -4.2936,5.96679 -9.4794,10.55347 -14.4396,17.74587 -20.3389,29.49219 -5.5952,11.14069 -10.5356,27.676844 -11.7147,39.210504 -0.2592,2.53628 -0.8139,4.87435 -1.2326,5.1957 -0.4218,0.32383 -3.8104,0.30393 -7.6016,-0.0447 -8.8113,-0.81014 -28.4907,-0.21474 -38.9903,1.17966 -22.6413,3.00688 -44.7075,9.48068 -66.249,19.4362 -3.3294,1.5387 -6.2012,2.79763 -6.3817,2.79763 -0.1806,0 -0.1155,-1.00041 0.1446,-2.22313 z m -88.5127,32.34893 c 1.276,-3.66024 11.5091,-24.05979 15.2526,-30.4056 14.8105,-25.10641 38.9895,-46.788724 68.7916,-61.688184 16.5953,-8.29673 31.1682,-13.29102 51.8161,-17.75788 2.4404,-0.52793 1.8169,0.75708 -2.0521,4.22931 -7.2312,6.48968 -20.2225,20.05061 -25.5328,26.65241 -12.7525,15.853974 -20.6923,30.556394 -24.455,45.284164 l -1.5211,5.95413 -9.2171,0.43624 c -10.736,0.50813 -17.156,1.7326 -28.0283,5.34575 -13.3346,4.43147 -26.4156,11.15486 -38.8357,19.96091 -3.1129,2.20708 -5.9442,4.01286 -6.2918,4.01286 -0.3701,0 -0.3396,-0.83885 0.074,-2.02411 z m 700.3312,1.2197 c -21.0434,-12.71892 -46.4644,-22.08432 -67.4837,-24.8618 -4.8142,-0.63615 -9.3688,-1.26504 -10.1212,-1.39754 -1.0014,-0.17634 -2.4589,-2.56504 -5.4385,-8.91371 -10.8116,-23.03605 -27.6941,-47.125394 -46.8083,-66.789624 -10.5819,-10.88659 -10.5735,-10.91277 2.2711,-7.01939 24.6602,7.47481 51.9624,21.92732 72.549,38.403944 11.6311,9.30903 38.9879,40.98349 54.858,63.51607 4.9939,7.09056 6.6598,9.85047 6.2144,10.29586 -0.143,0.14306 -2.8614,-1.31215 -6.0408,-3.23381 z m 72.542,42.764689 c -18.5126,-15.86381975 -36.6676,-25.5432987 -47.9094,-25.5432987 -1.7227,0 -3.6063,-0.38477 -4.1858,-0.85505 -0.5794,-0.4702803 -2.3733,-3.3176003 -3.9864,-6.3273803 -8.2034,-15.30657 -27.4126,-40.93388 -47.9402,-63.9578 -8.0492,-9.02805 -7.9173,-9.71435 1.1911,-6.20175 22.6275,8.72605 53.5284,36.52023 86.7477,78.0260203 7.9491,9.932019 19.713,25.4471287 21.1351,27.8746587 1.0152,1.73281 -0.7189,0.69782 -5.0521,-3.0154 z m -864.5996,16.45223 c 1.9143,-5.03521 9.5435,-18.86448 14.8909,-26.9926897 20.339,-30.9157093 51.2991,-58.8308893 90.1303,-81.2659693 10.1567,-5.86808 12.2063,-6.66911 10.2914,-4.02205 -10.6814,14.76547 -22.0876,35.27222 -28.8208,51.81608 -1.7609,4.32656 -3.4021,8.07844 -3.6472,8.33752 -0.245,0.25908 -3.5229,0.96447 -7.2843,1.56754 -25.8055,4.13746 -51.4501,21.1771993 -71.3113,47.383349 -3.882,5.12219 -5.4284,6.27816 -4.2491,3.17622 z m 202.1386,196.563637 c 1.2471,-4.1138 9.3578,-23.487 14.82,-35.3991 20.3449,-44.36864 46.061,-84.02078 72.5766,-111.907427 3.9973,-4.20406 6.7143,-7.65705 6.9861,-8.87872 3.1412,-14.11895 13.3071,-33.87837 27.9137,-54.25598 10.1137,-14.1096197 28.5919,-36.408259 36.3089,-43.815899 l 2.4577,-2.35917 10.4297,0.84802 c 20.2606,1.64736 27.1887,2.37487 27.1887,2.855 0,0.26701 -3.309,2.90749 -7.3534,5.86774 -13.1088,9.5948703 -29.5554,26.6955193 -42.4189,44.105879 -17.8488,24.15771 -38.6277,62.07671 -51.5137,94.006187 -0.9111,2.25733 -11.6663,19.18734 -23.9005,37.62224 -12.2342,18.43489 -26.6682,40.4439 -32.0754,48.9089 -5.4072,8.465 -10.3769,15.97016 -11.0438,16.67813 -0.8474,0.89949 -5.1975,2.1801 -14.4423,4.2516 -15.7288,3.52438 -16.5792,3.60298 -15.9334,1.4726 z" />
    </g>
    <path
       style="fill:none;fill-rule:evenodd;stroke:#ff0000;stroke-width:0.56103849px;stroke-linecap:butt;stroke-linejoin:miter;stroke-opacity:1"
       d="M 424.92188 151.70312 C 421.23783 151.64178 417.51804 151.98336 413.86133 152.33398 C 409.66276 152.73654 405.43327 153.38182 401.43945 154.73828 C 398.89403 155.60282 396.88494 157.94596 394.22656 158.3457 C 393.42305 158.46651 392.60695 158.14875 391.82031 157.94531 C 387.56629 156.84519 383.72869 154.28261 379.39844 153.53711 C 372.81622 152.40391 365.99034 152.72103 359.36133 153.53711 C 354.98821 154.07546 350.76038 155.486 346.53711 156.74219 C 343.01435 157.79002 339.67895 159.44319 336.11719 160.34961 C 335.32977 160.55001 334.52293 160.81355 333.71289 160.75 C 330.3439 160.48567 327.46401 157.81806 324.0957 157.54492 C 319.91489 157.20587 315.75168 158.57452 311.67188 159.54883 C 305.26184 161.07963 298.95671 163.1108 292.83789 165.55859 C 288.01207 167.48911 283.62581 170.40967 278.8125 172.37109 C 277.24775 173.00873 275.64758 173.58303 274.00391 173.97461 C 269.53831 175.03851 264.8196 174.82243 260.37695 175.97852 C 253.46226 177.77793 246.70056 180.33719 240.33984 183.5918 C 234.0732 186.79828 228.25989 190.88588 222.70898 195.21484 C 219.27952 197.88938 216.67242 201.56556 213.08984 204.03125 C 211.85961 204.87798 210.46183 205.46167 209.08203 206.0332 C 206.35015 207.16477 203.31 207.51203 200.66797 208.83984 C 191.49628 213.44934 183.3925 220.00696 175.41992 226.47266 C 168.59365 232.00868 161.95537 237.87603 156.18555 244.50586 C 152.53592 248.6994 149.44689 253.37605 146.56641 258.13086 C 140.9635 267.37951 137.13703 277.61394 131.74023 286.98438 C 127.54226 294.27326 121.46665 300.50782 118.11523 308.22266 C 115.09455 315.17609 113.60831 322.76334 112.50391 330.26367 C 109.79657 348.65042 109.776 367.38462 110.09961 385.9668 C 110.39826 403.11462 111.16269 420.366 114.10742 437.26172 C 116.36644 450.22318 120.19697 462.90825 124.52734 475.33203 C 129.1169 488.4994 134.504 501.44335 140.95703 513.80469 C 147.9552 527.21033 156.45009 539.80333 165.00195 552.27539 C 172.93374 563.84318 181.44177 575.02069 190.24805 585.9375 C 203.56615 602.44742 217.634 618.35079 231.92578 634.02539 C 247.13918 650.7108 263.1754 666.627 278.8125 682.91602 C 295.23437 700.02253 314.30663 714.92476 328.10352 734.21094 C 330.81486 738.00103 334.51562 746.63477 334.51562 746.63477 L 346.53711 793.52148 L 355.35352 795.92578 L 368.57812 822.375 L 369.37891 876.875 C 369.37891 876.875 371.11385 878.67448 372.18555 879.28125 C 374.7587 880.73809 377.68087 881.61229 380.59961 882.08594 C 384.15975 882.66364 387.82023 882.30999 391.41992 882.08594 C 394.64455 881.88517 397.92637 881.74856 401.03906 880.88281 C 404.84155 879.82514 411.85742 876.07422 411.85742 876.07422 L 412.25977 840.00781 L 411.45703 835.19922 L 419.87305 795.125 C 419.87305 795.125 426.15308 794.90954 429.08984 793.92188 C 430.11065 793.57856 431.89453 792.31836 431.89453 792.31836 L 442.71484 741.82617 C 442.71484 741.82617 447.53622 734.93527 450.33008 731.80664 C 472.60744 706.85985 499.56201 686.47178 522.86328 662.47852 C 541.90678 642.86942 560.24899 622.55068 577.76562 601.56641 C 588.68956 588.47998 599.13737 574.97888 609.02344 561.0918 C 616.80167 550.1656 624.15413 538.92449 631.06445 527.42969 C 634.20637 522.20336 636.93854 516.73973 639.88086 511.39844 C 644.15031 503.64794 649.16416 496.26638 652.70312 488.15625 C 658.32901 475.26364 662.76834 461.78925 665.92773 448.08203 C 669.28828 433.50209 671.14274 418.54059 671.93945 403.59961 C 672.45179 393.99173 671.343 384.36543 671.13867 374.74609 C 670.94572 365.66367 672.01636 356.49019 670.73828 347.49609 C 668.32184 330.49155 663.93049 313.56833 657.11133 297.80469 C 650.70787 283.00193 641.49349 269.46652 631.86523 256.52734 C 621.58718 242.71493 609.8377 229.9639 597.40234 218.05664 C 592.535 213.39602 587.70081 208.43844 581.77344 205.23242 C 577.4628 202.90085 572.16196 202.94974 567.74609 200.82422 C 560.63547 197.40165 554.99059 191.46613 548.11133 187.59961 C 540.03516 183.06039 531.60291 179.05226 522.86328 175.97852 C 517.66761 174.15119 511.96614 173.96954 506.83398 171.9707 C 500.31723 169.43259 494.91713 164.49124 488.40039 161.95312 C 483.26823 159.95428 477.85489 158.4574 472.37109 157.94531 C 465.57624 157.31081 458.75309 158.94601 451.93164 159.14648 C 450.86348 159.17778 449.77633 159.34646 448.72656 159.14648 C 442.6591 157.99063 437.5616 153.48982 431.49414 152.33398 C 429.329 151.92151 427.1323 151.73993 424.92188 151.70312 z "
       id="path5197" />
  </g>
</svg>
