  0
SECTION
  2
HEADER
  9
$ACADVER
  1
AC1014
  9
$HANDSEED
  5
FFFF
  9
$MEASUREMENT
 70
     1
  0
ENDSEC
  0
SECTION
  2
TABLES
  0
TABLE
  2
VPORT
  5
8
330
0
100
AcDbSymbolTable
 70
     4
  0
VPORT
  5
2E
330
8
100
AcDbSymbolTableRecord
100
AcDbViewportTableRecord
  2
*ACTIVE
 70
     0
 10
0.0
 20
0.0
 11
1.0
 21
1.0
 12
210.0
 22
148.5
 13
0.0
 23
0.0
 14
10.0
 24
10.0
 15
10.0
 25
10.0
 16
0.0
 26
0.0
 36
1.0
 17
0.0
 27
0.0
 37
0.0
 40
341.0
 41
1.24
 42
50.0
 43
0.0
 44
0.0
 50
0.0
 51
0.0
 71
     0
 72
   100
 73
     1
 74
     3
 75
     0
 76
     0
 77
     0
 78
     0
  0
ENDTAB
  0
TABLE
  2
LTYPE
  5
5
330
0
100
AcDbSymbolTable
 70
     1
  0
LTYPE
  5
14
330
5
100
AcDbSymbolTableRecord
100
AcDbLinetypeTableRecord
  2
BYBLOCK
 70
     0
  3

 72
    65
 73
     0
 40
0.0
  0
LTYPE
  5
15
330
5
100
AcDbSymbolTableRecord
100
AcDbLinetypeTableRecord
  2
BYLAYER
 70
     0
  3

 72
    65
 73
     0
 40
0.0
  0
LTYPE
  5
16
330
5
100
AcDbSymbolTableRecord
100
AcDbLinetypeTableRecord
  2
CONTINUOUS
 70
     0
  3
Solid line
 72
    65
 73
     0
 40
0.0
  0
ENDTAB
  0
TABLE
  2
LAYER
  5
2
100
AcDbSymbolTable
 70
2
  0
LAYER
  5
50
100
AcDbSymbolTableRecord
100
AcDbLayerTableRecord
  2
0
 70
0
  6
CONTINUOUS
  0
LAYER
  5
51
100
AcDbSymbolTableRecord
100
AcDbLayerTableRecord
  2
Layer_1
 70
0
  6
CONTINUOUS
  0
ENDTAB
  0
TABLE
  2
STYLE
  5
3
330
0
100
AcDbSymbolTable
 70
     1
  0
STYLE
  5
11
330
3
100
AcDbSymbolTableRecord
100
AcDbTextStyleTableRecord
  2
STANDARD
 70
     0
 40
0.0
 41
1.0
 50
0.0
 71
     0
 42
2.5
  3
txt
  4

  0
ENDTAB
  0
TABLE
  2
VIEW
  5
6
330
0
100
AcDbSymbolTable
 70
     0
  0
ENDTAB
  0
TABLE
  2
UCS
  5
7
330
0
100
AcDbSymbolTable
 70
     0
  0
ENDTAB
  0
TABLE
  2
APPID
  5
9
330
0
100
AcDbSymbolTable
 70
     2
  0
APPID
  5
12
330
9
100
AcDbSymbolTableRecord
100
AcDbRegAppTableRecord
  2
ACAD
 70
     0
  0
ENDTAB
  0
TABLE
  2
DIMSTYLE
  5
A
330
0
100
AcDbSymbolTable
 70
     1
  0
DIMSTYLE
105
27
330
A
100
AcDbSymbolTableRecord
100
AcDbDimStyleTableRecord
  2
ISO-25
 70
     0
  3

  4

  5

  6

  7

 40
1.0
 41
2.5
 42
0.625
 43
3.75
 44
1.25
 45
0.0
 46
0.0
 47
0.0
 48
0.0
140
2.5
141
2.5
142
0.0
143
0.03937007874016
144
1.0
145
0.0
146
1.0
147
0.625
 71
     0
 72
     0
 73
     0
 74
     0
 75
     0
 76
     0
 77
     1
 78
     8
170
     0
171
     3
172
     1
173
     0
174
     0
175
     0
176
     0
177
     0
178
     0
270
     2
271
     2
272
     2
273
     2
274
     3
340
11
275
     0
280
     0
281
     0
282
     0
283
     0
284
     8
285
     0
286
     0
287
     3
288
     0
  0
ENDTAB
  0
TABLE
  2
BLOCK_RECORD
  5
1
330
0
100
AcDbSymbolTable
 70
     1
  0
BLOCK_RECORD
  5
1F
330
1
100
AcDbSymbolTableRecord
100
AcDbBlockTableRecord
  2
*MODEL_SPACE
  0
BLOCK_RECORD
  5
1B
330
1
100
AcDbSymbolTableRecord
100
AcDbBlockTableRecord
  2
*PAPER_SPACE
  0
ENDTAB
  0
ENDSEC
  0
SECTION
  2
BLOCKS
  0
BLOCK
  5
20
330
1F
100
AcDbEntity
  8
0
100
AcDbBlockBegin
  2
*MODEL_SPACE
 70
     0
 10
0.0
 20
0.0
 30
0.0
  3
*MODEL_SPACE
  1

  0
ENDBLK
  5
21
330
1F
100
AcDbEntity
  8
0
100
AcDbBlockEnd
  0
BLOCK
  5
1C
330
1B
100
AcDbEntity
 67
     1
  8
0
100
AcDbBlockBegin
  2
*PAPER_SPACE
  1

  0
ENDBLK
  5
1D
330
1B
100
AcDbEntity
 67
     1
  8
0
100
AcDbBlockEnd
  0
ENDSEC
  0
SECTION
  2
ENTITIES
  0
SPLINE
  5
100
100
AcDbEntity
  8
Layer_1
 62
7
100
AcDbSpline
 70
8
 71
3
 72
8
 73
4
 74
0
 40
0
 40
0
 40
0
 40
0
 40
1
 40
1
 40
1
 40
1
 10
118.438524
 20
252.475586
 30
0.0
 10
117.924540
 20
252.478245
 30
0.0
 10
117.418637
 20
252.454871
 30
0.0
 10
116.923233
 20
252.405031
 30
0.0
  0
SPLINE
  5
101
100
AcDbEntity
  8
Layer_1
 62
7
100
AcDbSpline
 70
8
 71
3
 72
8
 73
4
 74
0
 40
0
 40
0
 40
0
 40
0
 40
1
 40
1
 40
1
 40
1
 10
116.923233
 20
252.405031
 30
0.0
 10
115.334065
 20
252.245149
 30
0.0
 10
113.433185
 20
251.758147
 30
0.0
 10
112.389488
 20
251.243619
 30
0.0
  0
SPLINE
  5
102
100
AcDbEntity
  8
Layer_1
 62
7
100
AcDbSpline
 70
8
 71
3
 72
8
 73
4
 74
0
 40
0
 40
0
 40
0
 40
0
 40
1
 40
1
 40
1
 40
1
 10
111.723068
 20
239.335165
 30
0.0
 10
111.847071
 20
239.335165
 30
0.0
 10
112.540085
 20
239.419614
 30
0.0
 10
113.262613
 20
239.522577
 30
0.0
  0
SPLINE
  5
103
100
AcDbEntity
  8
Layer_1
 62
7
100
AcDbSpline
 70
8
 71
3
 72
8
 73
4
 74
0
 40
0
 40
0
 40
0
 40
0
 40
1
 40
1
 40
1
 40
1
 10
113.262613
 20
239.522577
 30
0.0
 10
114.305176
 20
239.671142
 30
0.0
 10
115.333509
 20
239.708914
 30
0.0
 10
118.246150
 20
239.707785
 30
0.0
  0
SPLINE
  5
104
100
AcDbEntity
  8
Layer_1
 62
7
100
AcDbSpline
 70
8
 71
3
 72
8
 73
4
 74
0
 40
0
 40
0
 40
0
 40
0
 40
1
 40
1
 40
1
 40
1
 10
118.246150
 20
239.707785
 30
0.0
 10
122.176119
 20
239.706007
 30
0.0
 10
123.555286
 20
239.587310
 30
0.0
 10
126.990077
 20
238.953174
 30
0.0
  0
SPLINE
  5
105
100
AcDbEntity
  8
Layer_1
 62
7
100
AcDbSpline
 70
8
 71
3
 72
8
 73
4
 74
0
 40
0
 40
0
 40
0
 40
0
 40
1
 40
1
 40
1
 40
1
 10
126.990077
 20
238.953174
 30
0.0
 10
128.436872
 20
238.686065
 30
0.0
 10
131.640038
 20
237.921815
 30
0.0
 10
132.117482
 20
237.730026
 30
0.0
  0
SPLINE
  5
106
100
AcDbEntity
  8
Layer_1
 62
7
100
AcDbSpline
 70
8
 71
3
 72
8
 73
4
 74
0
 40
0
 40
0
 40
0
 40
0
 40
1
 40
1
 40
1
 40
1
 10
132.117482
 20
237.730026
 30
0.0
 10
132.459005
 20
237.592832
 30
0.0
 10
132.629092
 20
237.583679
 30
0.0
 10
132.700118
 20
237.698606
 30
0.0
  0
SPLINE
  5
107
100
AcDbEntity
  8
Layer_1
 62
7
100
AcDbSpline
 70
8
 71
3
 72
8
 73
4
 74
0
 40
0
 40
0
 40
0
 40
0
 40
1
 40
1
 40
1
 40
1
 10
132.700118
 20
237.698606
 30
0.0
 10
132.873626
 20
237.979332
 30
0.0
 10
131.868373
 20
241.778272
 30
0.0
 10
131.124192
 20
243.653385
 30
0.0
  0
SPLINE
  5
108
100
AcDbEntity
  8
Layer_1
 62
7
100
AcDbSpline
 70
8
 71
3
 72
8
 73
4
 74
0
 40
0
 40
0
 40
0
 40
0
 40
1
 40
1
 40
1
 40
1
 10
131.124192
 20
243.653385
 30
0.0
 10
130.262478
 20
245.824639
 30
0.0
 10
128.708576
 20
248.402572
 30
0.0
 10
127.459715
 20
249.732739
 30
0.0
  0
SPLINE
  5
109
100
AcDbEntity
  8
Layer_1
 62
7
100
AcDbSpline
 70
8
 71
3
 72
8
 73
4
 74
0
 40
0
 40
0
 40
0
 40
0
 40
1
 40
1
 40
1
 40
1
 10
127.459715
 20
249.732739
 30
0.0
 10
126.814857
 20
250.419572
 30
0.0
 10
126.695784
 20
250.494130
 30
0.0
 10
125.457701
 20
250.992816
 30
0.0
  0
SPLINE
  5
10a
100
AcDbEntity
  8
Layer_1
 62
7
100
AcDbSpline
 70
8
 71
3
 72
8
 73
4
 74
0
 40
0
 40
0
 40
0
 40
0
 40
1
 40
1
 40
1
 40
1
 10
125.457701
 20
250.992816
 30
0.0
 10
123.051327
 20
251.962080
 30
0.0
 10
120.665785
 20
252.464063
 30
0.0
 10
118.438524
 20
252.475586
 30
0.0
  0
LWPOLYLINE
  5
10b
100
AcDbEntity
  8
Layer_1
 62
7
100
AcDbPolyline
 90
5
 70
0
 10
112.389488
 20
251.243619
 30
0.0
 10
111.553845
 20
250.831312
 30
0.0
 10
111.525733
 20
245.083238
 30
0.0
 10
111.497621
 20
239.335165
 30
0.0
 10
111.723068
 20
239.335165
 30
0.0
  0
SPLINE
  5
10c
100
AcDbEntity
  8
Layer_1
 62
7
100
AcDbSpline
 70
8
 71
3
 72
8
 73
4
 74
0
 40
0
 40
0
 40
0
 40
0
 40
1
 40
1
 40
1
 40
1
 10
104.655386
 20
252.107924
 30
0.0
 10
104.101886
 20
252.114528
 30
0.0
 10
103.541009
 20
252.100361
 30
0.0
 10
102.986307
 20
252.063277
 30
0.0
  0
SPLINE
  5
10d
100
AcDbEntity
  8
Layer_1
 62
7
100
AcDbSpline
 70
8
 71
3
 72
8
 73
4
 74
0
 40
0
 40
0
 40
0
 40
0
 40
1
 40
1
 40
1
 40
1
 10
102.986307
 20
252.063277
 30
0.0
 10
100.305957
 20
251.884085
 30
0.0
 10
98.681893
 20
251.460907
 30
0.0
 10
96.663868
 20
250.415694
 30
0.0
  0
SPLINE
  5
10e
100
AcDbEntity
  8
Layer_1
 62
7
100
AcDbSpline
 70
8
 71
3
 72
8
 73
4
 74
0
 40
0
 40
0
 40
0
 40
0
 40
1
 40
1
 40
1
 40
1
 10
96.663868
 20
250.415694
 30
0.0
 10
93.744646
 20
248.903709
 30
0.0
 10
90.939188
 20
244.838021
 30
0.0
 10
89.873997
 20
240.575952
 30
0.0
  0
SPLINE
  5
10f
100
AcDbEntity
  8
Layer_1
 62
7
100
AcDbSpline
 70
8
 71
3
 72
8
 73
4
 74
0
 40
0
 40
0
 40
0
 40
0
 40
1
 40
1
 40
1
 40
1
 10
89.873997
 20
240.575952
 30
0.0
 10
89.635189
 20
239.620443
 30
0.0
 10
89.370738
 20
238.171413
 30
0.0
 10
89.370738
 20
237.817670
 30
0.0
  0
SPLINE
  5
110
100
AcDbEntity
  8
Layer_1
 62
7
100
AcDbSpline
 70
8
 71
3
 72
8
 73
4
 74
0
 40
0
 40
0
 40
0
 40
0
 40
1
 40
1
 40
1
 40
1
 10
89.370738
 20
237.817670
 30
0.0
 10
89.370738
 20
237.656922
 30
0.0
 10
89.492176
 20
237.688336
 30
0.0
 10
91.421811
 20
238.349041
 30
0.0
  0
SPLINE
  5
111
100
AcDbEntity
  8
Layer_1
 62
7
100
AcDbSpline
 70
8
 71
3
 72
8
 73
4
 74
0
 40
0
 40
0
 40
0
 40
0
 40
1
 40
1
 40
1
 40
1
 10
91.421811
 20
238.349041
 30
0.0
 10
94.699111
 20
239.471187
 30
0.0
 10
97.245032
 20
239.877869
 30
0.0
 10
101.464401
 20
239.953076
 30
0.0
  0
SPLINE
  5
112
100
AcDbEntity
  8
Layer_1
 62
7
100
AcDbSpline
 70
8
 71
3
 72
8
 73
4
 74
0
 40
0
 40
0
 40
0
 40
0
 40
1
 40
1
 40
1
 40
1
 10
101.464401
 20
239.953076
 30
0.0
 10
104.749970
 20
240.011637
 30
0.0
 10
106.542405
 20
239.913494
 30
0.0
 10
109.001718
 20
239.540216
 30
0.0
  0
SPLINE
  5
113
100
AcDbEntity
  8
Layer_1
 62
7
100
AcDbSpline
 70
8
 71
3
 72
8
 73
4
 74
0
 40
0
 40
0
 40
0
 40
0
 40
1
 40
1
 40
1
 40
1
 10
109.001718
 20
239.540216
 30
0.0
 10
109.794929
 20
239.419820
 30
0.0
 10
110.511680
 20
239.347057
 30
0.0
 10
110.594180
 20
239.378711
 30
0.0
  0
SPLINE
  5
114
100
AcDbEntity
  8
Layer_1
 62
7
100
AcDbSpline
 70
8
 71
3
 72
8
 73
4
 74
0
 40
0
 40
0
 40
0
 40
0
 40
1
 40
1
 40
1
 40
1
 10
110.594180
 20
239.378711
 30
0.0
 10
110.719565
 20
239.426830
 30
0.0
 10
110.744110
 20
240.366723
 30
0.0
 10
110.744110
 20
245.108593
 30
0.0
  0
LWPOLYLINE
  5
115
100
AcDbEntity
  8
Layer_1
 62
7
100
AcDbPolyline
 90
2
 70
0
 10
118.438524
 20
252.475586
 30
0.0
 10
118.438524
 20
252.475586
 30
0.0
  0
SPLINE
  5
116
100
AcDbEntity
  8
Layer_1
 62
7
100
AcDbSpline
 70
8
 71
3
 72
8
 73
4
 74
0
 40
0
 40
0
 40
0
 40
0
 40
1
 40
1
 40
1
 40
1
 10
110.393536
 20
250.996674
 30
0.0
 10
109.319139
 20
251.658186
 30
0.0
 10
107.053894
 20
252.079324
 30
0.0
 10
104.655386
 20
252.107924
 30
0.0
  0
LWPOLYLINE
  5
117
100
AcDbEntity
  8
Layer_1
 62
7
100
AcDbPolyline
 90
3
 70
0
 10
110.744110
 20
245.108593
 30
0.0
 10
110.744110
 20
250.780599
 30
0.0
 10
110.393536
 20
250.996674
 30
0.0
  0
SPLINE
  5
118
100
AcDbEntity
  8
Layer_1
 62
7
100
AcDbSpline
 70
8
 71
3
 72
8
 73
4
 74
0
 40
0
 40
0
 40
0
 40
0
 40
1
 40
1
 40
1
 40
1
 10
131.453819
 20
250.746425
 30
0.0
 10
130.851168
 20
250.759520
 30
0.0
 10
130.251468
 20
250.741091
 30
0.0
 10
129.658511
 20
250.690201
 30
0.0
  0
SPLINE
  5
119
100
AcDbEntity
  8
Layer_1
 62
7
100
AcDbSpline
 70
8
 71
3
 72
8
 73
4
 74
0
 40
0
 40
0
 40
0
 40
0
 40
1
 40
1
 40
1
 40
1
 10
129.658511
 20
250.690201
 30
0.0
 10
128.851335
 20
250.620924
 30
0.0
 10
128.145867
 20
250.519758
 30
0.0
 10
128.090854
 20
250.464753
 30
0.0
  0
SPLINE
  5
11a
100
AcDbEntity
  8
Layer_1
 62
7
100
AcDbSpline
 70
8
 71
3
 72
8
 73
4
 74
0
 40
0
 40
0
 40
0
 40
0
 40
1
 40
1
 40
1
 40
1
 10
128.090854
 20
250.464753
 30
0.0
 10
128.029485
 20
250.403378
 30
0.0
 10
128.220055
 20
250.079291
 30
0.0
 10
128.584192
 20
249.626353
 30
0.0
  0
SPLINE
  5
11b
100
AcDbEntity
  8
Layer_1
 62
7
100
AcDbSpline
 70
8
 71
3
 72
8
 73
4
 74
0
 40
0
 40
0
 40
0
 40
0
 40
1
 40
1
 40
1
 40
1
 10
128.584192
 20
249.626353
 30
0.0
 10
130.795418
 20
246.875883
 30
0.0
 10
132.515401
 20
243.004748
 30
0.0
 10
133.300391
 20
239.011602
 30
0.0
  0
SPLINE
  5
11c
100
AcDbEntity
  8
Layer_1
 62
7
100
AcDbSpline
 70
8
 71
3
 72
8
 73
4
 74
0
 40
0
 40
0
 40
0
 40
0
 40
1
 40
1
 40
1
 40
1
 10
133.300391
 20
239.011602
 30
0.0
 10
133.422943
 20
238.388216
 30
0.0
 10
133.548140
 20
237.768797
 30
0.0
 10
133.578202
 20
237.635216
 30
0.0
  0
SPLINE
  5
11d
100
AcDbEntity
  8
Layer_1
 62
7
100
AcDbSpline
 70
8
 71
3
 72
8
 73
4
 74
0
 40
0
 40
0
 40
0
 40
0
 40
1
 40
1
 40
1
 40
1
 10
133.578202
 20
237.635216
 30
0.0
 10
133.631209
 20
237.399676
 30
0.0
 10
133.672481
 20
237.391890
 30
0.0
 10
134.952935
 20
237.390478
 30
0.0
  0
SPLINE
  5
11e
100
AcDbEntity
  8
Layer_1
 62
7
100
AcDbSpline
 70
8
 71
3
 72
8
 73
4
 74
0
 40
0
 40
0
 40
0
 40
0
 40
1
 40
1
 40
1
 40
1
 10
134.952935
 20
237.390478
 30
0.0
 10
141.270682
 20
237.383197
 30
0.0
 10
147.388645
 20
236.276561
 30
0.0
 10
151.082045
 20
234.472896
 30
0.0
  0
SPLINE
  5
11f
100
AcDbEntity
  8
Layer_1
 62
7
100
AcDbSpline
 70
8
 71
3
 72
8
 73
4
 74
0
 40
0
 40
0
 40
0
 40
0
 40
1
 40
1
 40
1
 40
1
 10
151.082045
 20
234.472896
 30
0.0
 10
151.664633
 20
234.188388
 30
0.0
 10
152.205484
 20
233.951945
 30
0.0
 10
152.283693
 20
233.947034
 30
0.0
  0
SPLINE
  5
120
100
AcDbEntity
  8
Layer_1
 62
7
100
AcDbSpline
 70
8
 71
3
 72
8
 73
4
 74
0
 40
0
 40
0
 40
0
 40
0
 40
1
 40
1
 40
1
 40
1
 10
152.283693
 20
233.947034
 30
0.0
 10
152.499289
 20
233.933544
 30
0.0
 10
152.365888
 20
234.273757
 30
0.0
 10
151.610658
 20
235.665175
 30
0.0
  0
SPLINE
  5
121
100
AcDbEntity
  8
Layer_1
 62
7
100
AcDbSpline
 70
8
 71
3
 72
8
 73
4
 74
0
 40
0
 40
0
 40
0
 40
0
 40
1
 40
1
 40
1
 40
1
 10
151.610658
 20
235.665175
 30
0.0
 10
149.371030
 20
239.791408
 30
0.0
 10
146.385890
 20
243.572491
 30
0.0
 10
143.225020
 20
246.286541
 30
0.0
  0
SPLINE
  5
122
100
AcDbEntity
  8
Layer_1
 62
7
100
AcDbSpline
 70
8
 71
3
 72
8
 73
4
 74
0
 40
0
 40
0
 40
0
 40
0
 40
1
 40
1
 40
1
 40
1
 10
143.225020
 20
246.286541
 30
0.0
 10
140.034814
 20
249.025761
 30
0.0
 10
135.672373
 20
250.654728
 30
0.0
 10
131.453819
 20
250.746425
 30
0.0
  0
LWPOLYLINE
  5
123
100
AcDbEntity
  8
Layer_1
 62
7
100
AcDbPolyline
 90
2
 70
0
 10
104.655386
 20
252.107924
 30
0.0
 10
104.655386
 20
252.107924
 30
0.0
  0
SPLINE
  5
124
100
AcDbEntity
  8
Layer_1
 62
7
100
AcDbSpline
 70
8
 71
3
 72
8
 73
4
 74
0
 40
0
 40
0
 40
0
 40
0
 40
1
 40
1
 40
1
 40
1
 10
91.637886
 20
250.688547
 30
0.0
 10
89.151257
 20
250.687982
 30
0.0
 10
86.551623
 20
249.946345
 30
0.0
 10
82.300298
 20
248.023971
 30
0.0
  0
SPLINE
  5
125
100
AcDbEntity
  8
Layer_1
 62
7
100
AcDbSpline
 70
8
 71
3
 72
8
 73
4
 74
0
 40
0
 40
0
 40
0
 40
0
 40
1
 40
1
 40
1
 40
1
 10
82.300298
 20
248.023971
 30
0.0
 10
81.469117
 20
247.648127
 30
0.0
 10
80.443832
 20
247.213443
 30
0.0
 10
80.021577
 20
247.058243
 30
0.0
  0
SPLINE
  5
126
100
AcDbEntity
  8
Layer_1
 62
7
100
AcDbSpline
 70
8
 71
3
 72
8
 73
4
 74
0
 40
0
 40
0
 40
0
 40
0
 40
1
 40
1
 40
1
 40
1
 10
80.021577
 20
247.058243
 30
0.0
 10
79.216261
 20
246.762249
 30
0.0
 10
78.572775
 20
246.273829
 30
0.0
 10
76.543958
 20
244.419576
 30
0.0
  0
SPLINE
  5
127
100
AcDbEntity
  8
Layer_1
 62
7
100
AcDbSpline
 70
8
 71
3
 72
8
 73
4
 74
0
 40
0
 40
0
 40
0
 40
0
 40
1
 40
1
 40
1
 40
1
 10
76.543958
 20
244.419576
 30
0.0
 10
73.145244
 20
241.313269
 30
0.0
 10
70.284478
 20
237.049794
 30
0.0
 10
69.674161
 20
234.180751
 30
0.0
  0
SPLINE
  5
128
100
AcDbEntity
  8
Layer_1
 62
7
100
AcDbSpline
 70
8
 71
3
 72
8
 73
4
 74
0
 40
0
 40
0
 40
0
 40
0
 40
1
 40
1
 40
1
 40
1
 10
69.674161
 20
234.180751
 30
0.0
 10
69.633126
 20
233.987799
 30
0.0
 10
69.623071
 20
233.830177
 30
0.0
 10
69.651564
 20
233.830177
 30
0.0
  0
SPLINE
  5
129
100
AcDbEntity
  8
Layer_1
 62
7
100
AcDbSpline
 70
8
 71
3
 72
8
 73
4
 74
0
 40
0
 40
0
 40
0
 40
0
 40
1
 40
1
 40
1
 40
1
 10
69.651564
 20
233.830177
 30
0.0
 10
69.680046
 20
233.830177
 30
0.0
 10
70.133233
 20
234.028884
 30
0.0
 10
70.658632
 20
234.271703
 30
0.0
  0
SPLINE
  5
12a
100
AcDbEntity
  8
Layer_1
 62
7
100
AcDbSpline
 70
8
 71
3
 72
8
 73
4
 74
0
 40
0
 40
0
 40
0
 40
0
 40
1
 40
1
 40
1
 40
1
 10
70.658632
 20
234.271703
 30
0.0
 10
74.058010
 20
235.842741
 30
0.0
 10
77.540048
 20
236.864159
 30
0.0
 10
81.112981
 20
237.338662
 30
0.0
  0
SPLINE
  5
12b
100
AcDbEntity
  8
Layer_1
 62
7
100
AcDbSpline
 70
8
 71
3
 72
8
 73
4
 74
0
 40
0
 40
0
 40
0
 40
0
 40
1
 40
1
 40
1
 40
1
 10
81.112981
 20
237.338662
 30
0.0
 10
82.769879
 20
237.558708
 30
0.0
 10
85.875170
 20
237.652818
 30
0.0
 10
87.265645
 20
237.524974
 30
0.0
  0
SPLINE
  5
12c
100
AcDbEntity
  8
Layer_1
 62
7
100
AcDbSpline
 70
8
 71
3
 72
8
 73
4
 74
0
 40
0
 40
0
 40
0
 40
0
 40
1
 40
1
 40
1
 40
1
 10
87.265645
 20
237.524974
 30
0.0
 10
87.863920
 20
237.469958
 30
0.0
 10
88.399081
 20
237.466710
 30
0.0
 10
88.465643
 20
237.517809
 30
0.0
  0
SPLINE
  5
12d
100
AcDbEntity
  8
Layer_1
 62
7
100
AcDbSpline
 70
8
 71
3
 72
8
 73
4
 74
0
 40
0
 40
0
 40
0
 40
0
 40
1
 40
1
 40
1
 40
1
 10
88.465643
 20
237.517809
 30
0.0
 10
88.531717
 20
237.568521
 30
0.0
 10
88.619319
 20
237.937222
 30
0.0
 10
88.660221
 20
238.337464
 30
0.0
  0
SPLINE
  5
12e
100
AcDbEntity
  8
Layer_1
 62
7
100
AcDbSpline
 70
8
 71
3
 72
8
 73
4
 74
0
 40
0
 40
0
 40
0
 40
0
 40
1
 40
1
 40
1
 40
1
 10
88.660221
 20
238.337464
 30
0.0
 10
88.846290
 20
240.157546
 30
0.0
 10
89.625489
 20
242.767342
 30
0.0
 10
90.508447
 20
244.525409
 30
0.0
  0
SPLINE
  5
12f
100
AcDbEntity
  8
Layer_1
 62
7
100
AcDbSpline
 70
8
 71
3
 72
8
 73
4
 74
0
 40
0
 40
0
 40
0
 40
0
 40
1
 40
1
 40
1
 40
1
 10
90.508447
 20
244.525409
 30
0.0
 10
91.439390
 20
246.379047
 30
0.0
 10
92.222266
 20
247.513917
 30
0.0
 10
93.718174
 20
249.179318
 30
0.0
  0
SPLINE
  5
130
100
AcDbEntity
  8
Layer_1
 62
7
100
AcDbSpline
 70
8
 71
3
 72
8
 73
4
 74
0
 40
0
 40
0
 40
0
 40
0
 40
1
 40
1
 40
1
 40
1
 10
93.718174
 20
249.179318
 30
0.0
 10
94.128548
 20
249.636177
 30
0.0
 10
94.433334
 20
250.059778
 30
0.0
 10
94.395617
 20
250.120795
 30
0.0
  0
SPLINE
  5
131
100
AcDbEntity
  8
Layer_1
 62
7
100
AcDbSpline
 70
8
 71
3
 72
8
 73
4
 74
0
 40
0
 40
0
 40
0
 40
0
 40
1
 40
1
 40
1
 40
1
 10
94.395617
 20
250.120795
 30
0.0
 10
94.357904
 20
250.181814
 30
0.0
 10
94.001209
 20
250.334702
 30
0.0
 10
93.602968
 20
250.460342
 30
0.0
  0
SPLINE
  5
132
100
AcDbEntity
  8
Layer_1
 62
7
100
AcDbSpline
 70
8
 71
3
 72
8
 73
4
 74
0
 40
0
 40
0
 40
0
 40
0
 40
1
 40
1
 40
1
 40
1
 10
93.602968
 20
250.460342
 30
0.0
 10
93.040313
 20
250.637854
 30
0.0
 10
92.602521
 20
250.688705
 30
0.0
 10
91.637886
 20
250.688547
 30
0.0
  0
LWPOLYLINE
  5
133
100
AcDbEntity
  8
Layer_1
 62
7
100
AcDbPolyline
 90
2
 70
0
 10
131.453819
 20
250.746425
 30
0.0
 10
131.453819
 20
250.746425
 30
0.0
  0
SPLINE
  5
134
100
AcDbEntity
  8
Layer_1
 62
7
100
AcDbSpline
 70
8
 71
3
 72
8
 73
4
 74
0
 40
0
 40
0
 40
0
 40
0
 40
1
 40
1
 40
1
 40
1
 10
144.645504
 20
246.454110
 30
0.0
 10
144.297022
 20
246.451852
 30
0.0
 10
144.687716
 20
246.047829
 30
0.0
 10
145.731397
 20
244.974097
 30
0.0
  0
SPLINE
  5
135
100
AcDbEntity
  8
Layer_1
 62
7
100
AcDbSpline
 70
8
 71
3
 72
8
 73
4
 74
0
 40
0
 40
0
 40
0
 40
0
 40
1
 40
1
 40
1
 40
1
 10
145.731397
 20
244.974097
 30
0.0
 10
148.747731
 20
241.870962
 30
0.0
 10
151.412098
 20
238.069536
 30
0.0
 10
153.118233
 20
234.434311
 30
0.0
  0
SPLINE
  5
136
100
AcDbEntity
  8
Layer_1
 62
7
100
AcDbSpline
 70
8
 71
3
 72
8
 73
4
 74
0
 40
0
 40
0
 40
0
 40
0
 40
1
 40
1
 40
1
 40
1
 10
153.118233
 20
234.434311
 30
0.0
 10
153.588432
 20
233.432450
 30
0.0
 10
153.818452
 20
233.055435
 30
0.0
 10
153.976476
 20
233.027608
 30
0.0
  0
SPLINE
  5
137
100
AcDbEntity
  8
Layer_1
 62
7
100
AcDbSpline
 70
8
 71
3
 72
8
 73
4
 74
0
 40
0
 40
0
 40
0
 40
0
 40
1
 40
1
 40
1
 40
1
 10
153.976476
 20
233.027608
 30
0.0
 10
154.095210
 20
233.006695
 30
0.0
 10
154.813638
 20
232.907508
 30
0.0
 10
155.573346
 20
232.807122
 30
0.0
  0
SPLINE
  5
138
100
AcDbEntity
  8
Layer_1
 62
7
100
AcDbSpline
 70
8
 71
3
 72
8
 73
4
 74
0
 40
0
 40
0
 40
0
 40
0
 40
1
 40
1
 40
1
 40
1
 10
155.573346
 20
232.807122
 30
0.0
 10
158.890318
 20
232.368819
 30
0.0
 10
162.902053
 20
230.890695
 30
0.0
 10
166.222827
 20
228.883573
 30
0.0
  0
SPLINE
  5
139
100
AcDbEntity
  8
Layer_1
 62
7
100
AcDbSpline
 70
8
 71
3
 72
8
 73
4
 74
0
 40
0
 40
0
 40
0
 40
0
 40
1
 40
1
 40
1
 40
1
 10
166.222827
 20
228.883573
 30
0.0
 10
166.724556
 20
228.580325
 30
0.0
 10
167.153878
 20
228.350568
 30
0.0
 10
167.176427
 20
228.373145
 30
0.0
  0
SPLINE
  5
13a
100
AcDbEntity
  8
Layer_1
 62
7
100
AcDbSpline
 70
8
 71
3
 72
8
 73
4
 74
0
 40
0
 40
0
 40
0
 40
0
 40
1
 40
1
 40
1
 40
1
 10
167.176427
 20
228.373145
 30
0.0
 10
167.246715
 20
228.443433
 30
0.0
 10
166.983334
 20
228.879195
 30
0.0
 10
166.195265
 20
229.998130
 30
0.0
  0
SPLINE
  5
13b
100
AcDbEntity
  8
Layer_1
 62
7
100
AcDbSpline
 70
8
 71
3
 72
8
 73
4
 74
0
 40
0
 40
0
 40
0
 40
0
 40
1
 40
1
 40
1
 40
1
 10
166.195265
 20
229.998130
 30
0.0
 10
163.690867
 20
233.553904
 30
0.0
 10
159.373886
 20
238.552407
 30
0.0
 10
157.538428
 20
240.021427
 30
0.0
  0
SPLINE
  5
13c
100
AcDbEntity
  8
Layer_1
 62
7
100
AcDbSpline
 70
8
 71
3
 72
8
 73
4
 74
0
 40
0
 40
0
 40
0
 40
0
 40
1
 40
1
 40
1
 40
1
 10
157.538428
 20
240.021427
 30
0.0
 10
154.289740
 20
242.621538
 30
0.0
 10
149.981217
 20
244.901922
 30
0.0
 10
146.089686
 20
246.081489
 30
0.0
  0
SPLINE
  5
13d
100
AcDbEntity
  8
Layer_1
 62
7
100
AcDbSpline
 70
8
 71
3
 72
8
 73
4
 74
0
 40
0
 40
0
 40
0
 40
0
 40
1
 40
1
 40
1
 40
1
 10
146.089686
 20
246.081489
 30
0.0
 10
145.329580
 20
246.311890
 30
0.0
 10
144.854594
 20
246.455434
 30
0.0
 10
144.645504
 20
246.454110
 30
0.0
  0
LWPOLYLINE
  5
13e
100
AcDbEntity
  8
Layer_1
 62
7
100
AcDbPolyline
 90
2
 70
0
 10
91.637886
 20
250.688547
 30
0.0
 10
91.637886
 20
250.688547
 30
0.0
  0
SPLINE
  5
13f
100
AcDbEntity
  8
Layer_1
 62
7
100
AcDbSpline
 70
8
 71
3
 72
8
 73
4
 74
0
 40
0
 40
0
 40
0
 40
0
 40
1
 40
1
 40
1
 40
1
 10
77.267703
 20
246.428755
 30
0.0
 10
77.234731
 20
246.427344
 30
0.0
 10
77.194023
 20
246.421530
 30
0.0
 10
77.145885
 20
246.411116
 30
0.0
  0
SPLINE
  5
140
100
AcDbEntity
  8
Layer_1
 62
7
100
AcDbSpline
 70
8
 71
3
 72
8
 73
4
 74
0
 40
0
 40
0
 40
0
 40
0
 40
1
 40
1
 40
1
 40
1
 10
77.145885
 20
246.411116
 30
0.0
 10
73.887522
 20
245.706218
 30
0.0
 10
71.587998
 20
244.918011
 30
0.0
 10
68.969159
 20
243.608737
 30
0.0
  0
SPLINE
  5
141
100
AcDbEntity
  8
Layer_1
 62
7
100
AcDbSpline
 70
8
 71
3
 72
8
 73
4
 74
0
 40
0
 40
0
 40
0
 40
0
 40
1
 40
1
 40
1
 40
1
 10
68.969159
 20
243.608737
 30
0.0
 10
64.266208
 20
241.257513
 30
0.0
 10
60.450710
 20
237.836217
 30
0.0
 10
58.113524
 20
233.874275
 30
0.0
  0
SPLINE
  5
142
100
AcDbEntity
  8
Layer_1
 62
7
100
AcDbSpline
 70
8
 71
3
 72
8
 73
4
 74
0
 40
0
 40
0
 40
0
 40
0
 40
1
 40
1
 40
1
 40
1
 10
58.113524
 20
233.874275
 30
0.0
 10
57.522779
 20
232.872868
 30
0.0
 10
55.907731
 20
229.653554
 30
0.0
 10
55.706368
 20
229.075947
 30
0.0
  0
SPLINE
  5
143
100
AcDbEntity
  8
Layer_1
 62
7
100
AcDbSpline
 70
8
 71
3
 72
8
 73
4
 74
0
 40
0
 40
0
 40
0
 40
0
 40
1
 40
1
 40
1
 40
1
 10
55.706368
 20
229.075947
 30
0.0
 10
55.641093
 20
228.888904
 30
0.0
 10
55.636383
 20
228.756793
 30
0.0
 10
55.694792
 20
228.756793
 30
0.0
  0
SPLINE
  5
144
100
AcDbEntity
  8
Layer_1
 62
7
100
AcDbSpline
 70
8
 71
3
 72
8
 73
4
 74
0
 40
0
 40
0
 40
0
 40
0
 40
1
 40
1
 40
1
 40
1
 10
55.694792
 20
228.756793
 30
0.0
 10
55.749644
 20
228.756793
 30
0.0
 10
56.196298
 20
229.041298
 30
0.0
 10
56.687531
 20
229.389589
 30
0.0
  0
SPLINE
  5
145
100
AcDbEntity
  8
Layer_1
 62
7
100
AcDbSpline
 70
8
 71
3
 72
8
 73
4
 74
0
 40
0
 40
0
 40
0
 40
0
 40
1
 40
1
 40
1
 40
1
 10
56.687531
 20
229.389589
 30
0.0
 10
58.647499
 20
230.779234
 30
0.0
 10
60.711661
 20
231.840471
 30
0.0
 10
62.815941
 20
232.539784
 30
0.0
  0
SPLINE
  5
146
100
AcDbEntity
  8
Layer_1
 62
7
100
AcDbSpline
 70
8
 71
3
 72
8
 73
4
 74
0
 40
0
 40
0
 40
0
 40
0
 40
1
 40
1
 40
1
 40
1
 10
62.815941
 20
232.539784
 30
0.0
 10
64.531658
 20
233.109960
 30
0.0
 10
65.545239
 20
233.302958
 30
0.0
 10
67.239444
 20
233.383143
 30
0.0
  0
LWPOLYLINE
  5
147
100
AcDbEntity
  8
Layer_1
 62
7
100
AcDbPolyline
 90
2
 70
0
 10
144.645504
 20
246.454110
 30
0.0
 10
144.645504
 20
246.454110
 30
0.0
  0
SPLINE
  5
148
100
AcDbEntity
  8
Layer_1
 62
7
100
AcDbSpline
 70
8
 71
3
 72
8
 73
4
 74
0
 40
0
 40
0
 40
0
 40
0
 40
1
 40
1
 40
1
 40
1
 10
68.933881
 20
234.391867
 30
0.0
 10
69.527657
 20
236.715998
 30
0.0
 10
70.780515
 20
239.035970
 30
0.0
 10
72.792937
 20
241.537822
 30
0.0
  0
SPLINE
  5
149
100
AcDbEntity
  8
Layer_1
 62
7
100
AcDbSpline
 70
8
 71
3
 72
8
 73
4
 74
0
 40
0
 40
0
 40
0
 40
0
 40
1
 40
1
 40
1
 40
1
 10
72.792937
 20
241.537822
 30
0.0
 10
73.630934
 20
242.579625
 30
0.0
 10
75.681197
 20
244.719482
 30
0.0
 10
76.822323
 20
245.743593
 30
0.0
  0
SPLINE
  5
14a
100
AcDbEntity
  8
Layer_1
 62
7
100
AcDbSpline
 70
8
 71
3
 72
8
 73
4
 74
0
 40
0
 40
0
 40
0
 40
0
 40
1
 40
1
 40
1
 40
1
 10
76.822323
 20
245.743593
 30
0.0
 10
77.356558
 20
246.223038
 30
0.0
 10
77.498516
 20
246.438260
 30
0.0
 10
77.267703
 20
246.428755
 30
0.0
  0
LWPOLYLINE
  5
14b
100
AcDbEntity
  8
Layer_1
 62
7
100
AcDbPolyline
 90
3
 70
0
 10
67.239444
 20
233.383143
 30
0.0
 10
68.693549
 20
233.452045
 30
0.0
 10
68.933881
 20
234.391867
 30
0.0
  0
SPLINE
  5
14c
100
AcDbEntity
  8
Layer_1
 62
7
100
AcDbSpline
 70
8
 71
3
 72
8
 73
4
 74
0
 40
0
 40
0
 40
0
 40
0
 40
1
 40
1
 40
1
 40
1
 10
160.416875
 20
238.680322
 30
0.0
 10
160.171500
 20
238.658703
 30
0.0
 10
160.461390
 20
238.282558
 30
0.0
 10
161.255273
 20
237.392132
 30
0.0
  0
SPLINE
  5
14d
100
AcDbEntity
  8
Layer_1
 62
7
100
AcDbSpline
 70
8
 71
3
 72
8
 73
4
 74
0
 40
0
 40
0
 40
0
 40
0
 40
1
 40
1
 40
1
 40
1
 10
161.255273
 20
237.392132
 30
0.0
 10
164.494650
 20
233.758820
 30
0.0
 10
167.526154
 20
229.714850
 30
0.0
 10
168.820702
 20
227.299380
 30
0.0
  0
SPLINE
  5
14e
100
AcDbEntity
  8
Layer_1
 62
7
100
AcDbSpline
 70
8
 71
3
 72
8
 73
4
 74
0
 40
0
 40
0
 40
0
 40
0
 40
1
 40
1
 40
1
 40
1
 10
168.820702
 20
227.299380
 30
0.0
 10
169.075258
 20
226.824417
 30
0.0
 10
169.358208
 20
226.374789
 30
0.0
 10
169.449640
 20
226.300576
 30
0.0
  0
SPLINE
  5
14f
100
AcDbEntity
  8
Layer_1
 62
7
100
AcDbSpline
 70
8
 71
3
 72
8
 73
4
 74
0
 40
0
 40
0
 40
0
 40
0
 40
1
 40
1
 40
1
 40
1
 10
169.449640
 20
226.300576
 30
0.0
 10
169.541088
 20
226.226363
 30
0.0
 10
169.838144
 20
226.166080
 30
0.0
 10
170.109995
 20
226.166080
 30
0.0
  0
SPLINE
  5
150
100
AcDbEntity
  8
Layer_1
 62
7
100
AcDbSpline
 70
8
 71
3
 72
8
 73
4
 74
0
 40
0
 40
0
 40
0
 40
0
 40
1
 40
1
 40
1
 40
1
 10
170.109995
 20
226.166080
 30
0.0
 10
171.884018
 20
226.166080
 30
0.0
 10
174.749068
 20
224.638451
 30
0.0
 10
177.670466
 20
222.135044
 30
0.0
  0
SPLINE
  5
151
100
AcDbEntity
  8
Layer_1
 62
7
100
AcDbSpline
 70
8
 71
3
 72
8
 73
4
 74
0
 40
0
 40
0
 40
0
 40
0
 40
1
 40
1
 40
1
 40
1
 10
177.670466
 20
222.135044
 30
0.0
 10
178.354270
 20
221.549074
 30
0.0
 10
178.627724
 20
221.385896
 30
0.0
 10
178.467520
 20
221.659344
 30
0.0
  0
SPLINE
  5
152
100
AcDbEntity
  8
Layer_1
 62
7
100
AcDbSpline
 70
8
 71
3
 72
8
 73
4
 74
0
 40
0
 40
0
 40
0
 40
0
 40
1
 40
1
 40
1
 40
1
 10
178.467520
 20
221.659344
 30
0.0
 10
178.243103
 20
222.042424
 30
0.0
 10
176.387085
 20
224.490710
 30
0.0
 10
175.132670
 20
226.058043
 30
0.0
  0
SPLINE
  5
153
100
AcDbEntity
  8
Layer_1
 62
7
100
AcDbSpline
 70
8
 71
3
 72
8
 73
4
 74
0
 40
0
 40
0
 40
0
 40
0
 40
1
 40
1
 40
1
 40
1
 10
175.132670
 20
226.058043
 30
0.0
 10
169.890465
 20
232.607907
 30
0.0
 10
165.013993
 20
236.994066
 30
0.0
 10
161.443238
 20
238.371091
 30
0.0
  0
SPLINE
  5
154
100
AcDbEntity
  8
Layer_1
 62
7
100
AcDbSpline
 70
8
 71
3
 72
8
 73
4
 74
0
 40
0
 40
0
 40
0
 40
0
 40
1
 40
1
 40
1
 40
1
 10
161.443238
 20
238.371091
 30
0.0
 10
160.904228
 20
238.578956
 30
0.0
 10
160.564102
 20
238.693290
 30
0.0
 10
160.416875
 20
238.680322
 30
0.0
  0
LWPOLYLINE
  5
155
100
AcDbEntity
  8
Layer_1
 62
7
100
AcDbPolyline
 90
2
 70
0
 10
77.267703
 20
246.428755
 30
0.0
 10
77.267703
 20
246.428755
 30
0.0
  0
SPLINE
  5
156
100
AcDbEntity
  8
Layer_1
 62
7
100
AcDbSpline
 70
8
 71
3
 72
8
 73
4
 74
0
 40
0
 40
0
 40
0
 40
0
 40
1
 40
1
 40
1
 40
1
 10
59.470064
 20
237.484185
 30
0.0
 10
59.308213
 20
237.467759
 30
0.0
 10
58.806035
 20
237.201395
 30
0.0
 10
57.804293
 20
236.622634
 30
0.0
  0
SPLINE
  5
157
100
AcDbEntity
  8
Layer_1
 62
7
100
AcDbSpline
 70
8
 71
3
 72
8
 73
4
 74
0
 40
0
 40
0
 40
0
 40
0
 40
1
 40
1
 40
1
 40
1
 10
57.804293
 20
236.622634
 30
0.0
 10
51.676498
 20
233.082243
 30
0.0
 10
46.790898
 20
228.677296
 30
0.0
 10
43.581286
 20
223.798611
 30
0.0
  0
SPLINE
  5
158
100
AcDbEntity
  8
Layer_1
 62
7
100
AcDbSpline
 70
8
 71
3
 72
8
 73
4
 74
0
 40
0
 40
0
 40
0
 40
0
 40
1
 40
1
 40
1
 40
1
 10
43.581286
 20
223.798611
 30
0.0
 10
42.737433
 20
222.515931
 30
0.0
 10
41.533541
 20
220.333405
 30
0.0
 10
41.231453
 20
219.538819
 30
0.0
  0
SPLINE
  5
159
100
AcDbEntity
  8
Layer_1
 62
7
100
AcDbSpline
 70
8
 71
3
 72
8
 73
4
 74
0
 40
0
 40
0
 40
0
 40
0
 40
1
 40
1
 40
1
 40
1
 10
41.231453
 20
219.538819
 30
0.0
 10
41.045353
 20
219.049316
 30
0.0
 10
41.289128
 20
219.231561
 30
0.0
 10
41.901731
 20
220.039874
 30
0.0
  0
SPLINE
  5
15a
100
AcDbEntity
  8
Layer_1
 62
7
100
AcDbSpline
 70
8
 71
3
 72
8
 73
4
 74
0
 40
0
 40
0
 40
0
 40
0
 40
1
 40
1
 40
1
 40
1
 10
41.901731
 20
220.039874
 30
0.0
 10
45.035947
 20
224.175361
 30
0.0
 10
49.083079
 20
226.864194
 30
0.0
 10
53.155342
 20
227.517109
 30
0.0
  0
SPLINE
  5
15b
100
AcDbEntity
  8
Layer_1
 62
7
100
AcDbSpline
 70
8
 71
3
 72
8
 73
4
 74
0
 40
0
 40
0
 40
0
 40
0
 40
1
 40
1
 40
1
 40
1
 10
53.155342
 20
227.517109
 30
0.0
 10
53.748912
 20
227.612277
 30
0.0
 10
54.265965
 20
227.723718
 30
0.0
 10
54.304627
 20
227.764604
 30
0.0
  0
SPLINE
  5
15c
100
AcDbEntity
  8
Layer_1
 62
7
100
AcDbSpline
 70
8
 71
3
 72
8
 73
4
 74
0
 40
0
 40
0
 40
0
 40
0
 40
1
 40
1
 40
1
 40
1
 10
54.304627
 20
227.764604
 30
0.0
 10
54.343306
 20
227.805489
 30
0.0
 10
54.602213
 20
228.397597
 30
0.0
 10
54.880095
 20
229.080355
 30
0.0
  0
SPLINE
  5
15d
100
AcDbEntity
  8
Layer_1
 62
7
100
AcDbSpline
 70
8
 71
3
 72
8
 73
4
 74
0
 40
0
 40
0
 40
0
 40
0
 40
1
 40
1
 40
1
 40
1
 10
54.880095
 20
229.080355
 30
0.0
 10
55.942634
 20
231.691074
 30
0.0
 10
57.743135
 20
234.927006
 30
0.0
 10
59.428724
 20
237.257083
 30
0.0
  0
SPLINE
  5
15e
100
AcDbEntity
  8
Layer_1
 62
7
100
AcDbSpline
 70
8
 71
3
 72
8
 73
4
 74
0
 40
0
 40
0
 40
0
 40
0
 40
1
 40
1
 40
1
 40
1
 10
59.428724
 20
237.257083
 30
0.0
 10
59.542042
 20
237.413731
 30
0.0
 10
59.567177
 20
237.494048
 30
0.0
 10
59.470064
 20
237.484185
 30
0.0
  0
LWPOLYLINE
  5
15f
100
AcDbEntity
  8
Layer_1
 62
7
100
AcDbPolyline
 90
2
 70
0
 10
160.416875
 20
238.680322
 30
0.0
 10
160.416875
 20
238.680322
 30
0.0
  0
LWPOLYLINE
  5
160
100
AcDbEntity
  8
Layer_1
 62
7
100
AcDbPolyline
 90
2
 70
0
 10
59.470064
 20
237.484185
 30
0.0
 10
59.470064
 20
237.484185
 30
0.0
  0
SPLINE
  5
161
100
AcDbEntity
  8
Layer_1
 62
7
100
AcDbSpline
 70
8
 71
3
 72
8
 73
4
 74
0
 40
0
 40
0
 40
0
 40
0
 40
1
 40
1
 40
1
 40
1
 10
98.158763
 20
228.643243
 30
0.0
 10
96.940974
 20
227.474273
 30
0.0
 10
94.025435
 20
223.955380
 30
0.0
 10
92.429432
 20
221.728799
 30
0.0
  0
SPLINE
  5
162
100
AcDbEntity
  8
Layer_1
 62
7
100
AcDbSpline
 70
8
 71
3
 72
8
 73
4
 74
0
 40
0
 40
0
 40
0
 40
0
 40
1
 40
1
 40
1
 40
1
 10
92.429432
 20
221.728799
 30
0.0
 10
90.124421
 20
218.513088
 30
0.0
 10
88.519818
 20
215.394824
 30
0.0
 10
88.024118
 20
213.166769
 30
0.0
  0
SPLINE
  5
163
100
AcDbEntity
  8
Layer_1
 62
7
100
AcDbSpline
 70
8
 71
3
 72
8
 73
4
 74
0
 40
0
 40
0
 40
0
 40
0
 40
1
 40
1
 40
1
 40
1
 10
88.024118
 20
213.166769
 30
0.0
 10
87.981226
 20
212.973983
 30
0.0
 10
87.552485
 20
212.429007
 30
0.0
 10
86.921687
 20
211.765581
 30
0.0
  0
SPLINE
  5
164
100
AcDbEntity
  8
Layer_1
 62
7
100
AcDbSpline
 70
8
 71
3
 72
8
 73
4
 74
0
 40
0
 40
0
 40
0
 40
0
 40
1
 40
1
 40
1
 40
1
 10
86.921687
 20
211.765581
 30
0.0
 10
82.737365
 20
207.364899
 30
0.0
 10
78.679085
 20
201.107939
 30
0.0
 10
75.468536
 20
194.106299
 30
0.0
  0
SPLINE
  5
165
100
AcDbEntity
  8
Layer_1
 62
7
100
AcDbSpline
 70
8
 71
3
 72
8
 73
4
 74
0
 40
0
 40
0
 40
0
 40
0
 40
1
 40
1
 40
1
 40
1
 10
75.468536
 20
194.106299
 30
0.0
 10
74.606568
 20
192.226499
 30
0.0
 10
73.327082
 20
189.168912
 30
0.0
 10
73.130283
 20
188.519730
 30
0.0
  0
SPLINE
  5
166
100
AcDbEntity
  8
Layer_1
 62
7
100
AcDbSpline
 70
8
 71
3
 72
8
 73
4
 74
0
 40
0
 40
0
 40
0
 40
0
 40
1
 40
1
 40
1
 40
1
 10
73.130283
 20
188.519730
 30
0.0
 10
73.028373
 20
188.183541
 30
0.0
 10
73.162276
 20
188.196173
 30
0.0
 10
75.644375
 20
188.752343
 30
0.0
  0
SPLINE
  5
167
100
AcDbEntity
  8
Layer_1
 62
7
100
AcDbSpline
 70
8
 71
3
 72
8
 73
4
 74
0
 40
0
 40
0
 40
0
 40
0
 40
1
 40
1
 40
1
 40
1
 10
75.644375
 20
188.752343
 30
0.0
 10
77.103261
 20
189.079238
 30
0.0
 10
77.789924
 20
189.281230
 30
0.0
 10
77.923650
 20
189.423174
 30
0.0
  0
SPLINE
  5
168
100
AcDbEntity
  8
Layer_1
 62
7
100
AcDbSpline
 70
8
 71
3
 72
8
 73
4
 74
0
 40
0
 40
0
 40
0
 40
0
 40
1
 40
1
 40
1
 40
1
 10
77.923650
 20
189.423174
 30
0.0
 10
78.028890
 20
189.534897
 30
0.0
 10
78.813302
 20
190.719401
 30
0.0
 10
79.666592
 20
192.055226
 30
0.0
  0
SPLINE
  5
169
100
AcDbEntity
  8
Layer_1
 62
7
100
AcDbSpline
 70
8
 71
3
 72
8
 73
4
 74
0
 40
0
 40
0
 40
0
 40
0
 40
1
 40
1
 40
1
 40
1
 10
79.666592
 20
192.055226
 30
0.0
 10
80.519880
 20
193.391055
 30
0.0
 10
82.797224
 20
196.864203
 30
0.0
 10
84.727852
 20
199.773341
 30
0.0
  0
SPLINE
  5
16a
100
AcDbEntity
  8
Layer_1
 62
7
100
AcDbSpline
 70
8
 71
3
 72
8
 73
4
 74
0
 40
0
 40
0
 40
0
 40
0
 40
1
 40
1
 40
1
 40
1
 10
84.727852
 20
199.773341
 30
0.0
 10
86.658484
 20
202.682479
 30
0.0
 10
88.356039
 20
205.353712
 30
0.0
 10
88.499817
 20
205.709931
 30
0.0
  0
SPLINE
  5
16b
100
AcDbEntity
  8
Layer_1
 62
7
100
AcDbSpline
 70
8
 71
3
 72
8
 73
4
 74
0
 40
0
 40
0
 40
0
 40
0
 40
1
 40
1
 40
1
 40
1
 10
88.499817
 20
205.709931
 30
0.0
 10
90.533305
 20
210.748593
 30
0.0
 10
93.812493
 20
216.732554
 30
0.0
 10
96.629141
 20
220.544786
 30
0.0
  0
SPLINE
  5
16c
100
AcDbEntity
  8
Layer_1
 62
7
100
AcDbSpline
 70
8
 71
3
 72
8
 73
4
 74
0
 40
0
 40
0
 40
0
 40
0
 40
1
 40
1
 40
1
 40
1
 10
96.629141
 20
220.544786
 30
0.0
 10
98.659078
 20
223.292245
 30
0.0
 10
101.254453
 20
225.990854
 30
0.0
 10
103.323099
 20
227.504982
 30
0.0
  0
SPLINE
  5
16d
100
AcDbEntity
  8
Layer_1
 62
7
100
AcDbSpline
 70
8
 71
3
 72
8
 73
4
 74
0
 40
0
 40
0
 40
0
 40
0
 40
1
 40
1
 40
1
 40
1
 10
103.323099
 20
227.504982
 30
0.0
 10
103.961331
 20
227.972127
 30
0.0
 10
104.483408
 20
228.388888
 30
0.0
 10
104.483408
 20
228.431024
 30
0.0
  0
SPLINE
  5
16e
100
AcDbEntity
  8
Layer_1
 62
7
100
AcDbSpline
 70
8
 71
3
 72
8
 73
4
 74
0
 40
0
 40
0
 40
0
 40
0
 40
1
 40
1
 40
1
 40
1
 10
104.483408
 20
228.431024
 30
0.0
 10
104.483408
 20
228.506792
 30
0.0
 10
103.389992
 20
228.621405
 30
0.0
 10
100.192747
 20
228.881368
 30
0.0
  0
LWPOLYLINE
  5
16f
100
AcDbEntity
  8
Layer_1
 62
7
100
AcDbPolyline
 90
2
 70
0
 10
98.546818
 20
229.015314
 30
0.0
 10
98.158763
 20
228.643243
 30
0.0
  0
SPLINE
  5
170
100
AcDbEntity
  8
Layer_1
 62
7
100
AcDbSpline
 70
8
 71
3
 72
8
 73
4
 74
0
 40
0
 40
0
 40
0
 40
0
 40
1
 40
1
 40
1
 40
1
 10
108.596024
 20
223.731914
 30
0.0
 10
108.388404
 20
223.724999
 30
0.0
 10
108.292942
 20
223.693418
 30
0.0
 10
108.211276
 20
223.640411
 30
0.0
  0
SPLINE
  5
171
100
AcDbEntity
  8
Layer_1
 62
7
100
AcDbSpline
 70
8
 71
3
 72
8
 73
4
 74
0
 40
0
 40
0
 40
0
 40
0
 40
1
 40
1
 40
1
 40
1
 10
108.211276
 20
223.640411
 30
0.0
 10
108.076495
 20
223.552939
 30
0.0
 10
107.133971
 20
222.669285
 30
0.0
 10
106.116659
 20
221.676983
 30
0.0
  0
SPLINE
  5
172
100
AcDbEntity
  8
Layer_1
 62
7
100
AcDbSpline
 70
8
 71
3
 72
8
 73
4
 74
0
 40
0
 40
0
 40
0
 40
0
 40
1
 40
1
 40
1
 40
1
 10
106.116659
 20
221.676983
 30
0.0
 10
97.354432
 20
213.130256
 30
0.0
 10
90.908065
 20
203.259039
 30
0.0
 10
87.830643
 20
193.676901
 30
0.0
  0
SPLINE
  5
173
100
AcDbEntity
  8
Layer_1
 62
7
100
AcDbSpline
 70
8
 71
3
 72
8
 73
4
 74
0
 40
0
 40
0
 40
0
 40
0
 40
1
 40
1
 40
1
 40
1
 10
87.830643
 20
193.676901
 30
0.0
 10
87.542014
 20
192.778201
 30
0.0
 10
87.478709
 20
192.682866
 30
0.0
 10
86.255270
 20
191.302266
 30
0.0
  0
SPLINE
  5
174
100
AcDbEntity
  8
Layer_1
 62
7
100
AcDbSpline
 70
8
 71
3
 72
8
 73
4
 74
0
 40
0
 40
0
 40
0
 40
0
 40
1
 40
1
 40
1
 40
1
 10
86.255270
 20
191.302266
 30
0.0
 10
85.554188
 20
190.511121
 30
0.0
 10
84.979205
 20
189.827646
 30
0.0
 10
84.979205
 20
189.783117
 30
0.0
  0
SPLINE
  5
175
100
AcDbEntity
  8
Layer_1
 62
7
100
AcDbSpline
 70
8
 71
3
 72
8
 73
4
 74
0
 40
0
 40
0
 40
0
 40
0
 40
1
 40
1
 40
1
 40
1
 10
84.979205
 20
189.783117
 30
0.0
 10
84.977794
 20
189.678393
 30
0.0
 10
84.983721
 20
189.678292
 30
0.0
 10
86.759632
 20
189.864697
 30
0.0
  0
SPLINE
  5
176
100
AcDbEntity
  8
Layer_1
 62
7
100
AcDbSpline
 70
8
 71
3
 72
8
 73
4
 74
0
 40
0
 40
0
 40
0
 40
0
 40
1
 40
1
 40
1
 40
1
 10
86.759632
 20
189.864697
 30
0.0
 10
87.763452
 20
189.970059
 30
0.0
 10
88.778125
 20
190.162624
 30
0.0
 10
89.781944
 20
190.437960
 30
0.0
  0
LWPOLYLINE
  5
177
100
AcDbEntity
  8
Layer_1
 62
7
100
AcDbPolyline
 90
3
 70
0
 10
100.192747
 20
228.881368
 30
0.0
 10
98.546818
 20
229.015314
 30
0.0
 10
98.546818
 20
229.015314
 30
0.0
  0
SPLINE
  5
178
100
AcDbEntity
  8
Layer_1
 62
7
100
AcDbSpline
 70
8
 71
3
 72
8
 73
4
 74
0
 40
0
 40
0
 40
0
 40
0
 40
1
 40
1
 40
1
 40
1
 10
91.654974
 20
191.545352
 30
0.0
 10
95.572998
 20
199.046771
 30
0.0
 10
98.259446
 20
203.356039
 30
0.0
 10
101.673863
 20
207.617688
 30
0.0
  0
SPLINE
  5
179
100
AcDbEntity
  8
Layer_1
 62
7
100
AcDbSpline
 70
8
 71
3
 72
8
 73
4
 74
0
 40
0
 40
0
 40
0
 40
0
 40
1
 40
1
 40
1
 40
1
 10
101.673863
 20
207.617688
 30
0.0
 10
103.433290
 20
209.813690
 30
0.0
 10
106.955404
 20
213.342058
 30
0.0
 10
107.388313
 20
213.342058
 30
0.0
  0
SPLINE
  5
17a
100
AcDbEntity
  8
Layer_1
 62
7
100
AcDbSpline
 70
8
 71
3
 72
8
 73
4
 74
0
 40
0
 40
0
 40
0
 40
0
 40
1
 40
1
 40
1
 40
1
 10
107.388313
 20
213.342058
 30
0.0
 10
107.458442
 20
213.342058
 30
0.0
 10
107.545195
 20
213.265093
 30
0.0
 10
107.581237
 20
213.171181
 30
0.0
  0
SPLINE
  5
17b
100
AcDbEntity
  8
Layer_1
 62
7
100
AcDbSpline
 70
8
 71
3
 72
8
 73
4
 74
0
 40
0
 40
0
 40
0
 40
0
 40
1
 40
1
 40
1
 40
1
 10
107.581237
 20
213.171181
 30
0.0
 10
107.617266
 20
213.077268
 30
0.0
 10
107.646831
 20
208.001383
 30
0.0
 10
107.646831
 20
201.891111
 30
0.0
  0
LWPOLYLINE
  5
17c
100
AcDbEntity
  8
Layer_1
 62
7
100
AcDbPolyline
 90
3
 70
0
 10
89.781944
 20
190.437960
 30
0.0
 10
91.293377
 20
190.852474
 30
0.0
 10
91.654974
 20
191.545352
 30
0.0
  0
SPLINE
  5
17d
100
AcDbEntity
  8
Layer_1
 62
7
100
AcDbSpline
 70
8
 71
3
 72
8
 73
4
 74
0
 40
0
 40
0
 40
0
 40
0
 40
1
 40
1
 40
1
 40
1
 10
113.866193
 20
193.453107
 30
0.0
 10
119.313559
 20
201.506253
 30
0.0
 10
123.945910
 20
207.512030
 30
0.0
 10
127.095910
 20
210.604722
 30
0.0
  0
SPLINE
  5
17e
100
AcDbEntity
  8
Layer_1
 62
7
100
AcDbSpline
 70
8
 71
3
 72
8
 73
4
 74
0
 40
0
 40
0
 40
0
 40
0
 40
1
 40
1
 40
1
 40
1
 10
127.095910
 20
210.604722
 30
0.0
 10
128.362600
 20
211.848365
 30
0.0
 10
129.157592
 20
212.478302
 30
0.0
 10
129.460075
 20
212.478302
 30
0.0
  0
SPLINE
  5
17f
100
AcDbEntity
  8
Layer_1
 62
7
100
AcDbSpline
 70
8
 71
3
 72
8
 73
4
 74
0
 40
0
 40
0
 40
0
 40
0
 40
1
 40
1
 40
1
 40
1
 10
129.460075
 20
212.478302
 30
0.0
 10
129.656950
 20
212.478302
 30
0.0
 10
129.667909
 20
212.382062
 30
0.0
 10
129.666780
 20
210.616299
 30
0.0
  0
SPLINE
  5
180
100
AcDbEntity
  8
Layer_1
 62
7
100
AcDbSpline
 70
8
 71
3
 72
8
 73
4
 74
0
 40
0
 40
0
 40
0
 40
0
 40
1
 40
1
 40
1
 40
1
 10
129.666780
 20
210.616299
 30
0.0
 10
129.665087
 20
207.921144
 30
0.0
 10
129.477361
 20
201.599313
 30
0.0
 10
129.287544
 20
197.851806
 30
0.0
  0
SPLINE
  5
181
100
AcDbEntity
  8
Layer_1
 62
7
100
AcDbSpline
 70
8
 71
3
 72
8
 73
4
 74
0
 40
0
 40
0
 40
0
 40
0
 40
1
 40
1
 40
1
 40
1
 10
129.287544
 20
197.851806
 30
0.0
 10
129.141310
 20
194.964720
 30
0.0
 10
128.859811
 20
190.919663
 30
0.0
 10
128.779874
 20
190.554267
 30
0.0
  0
SPLINE
  5
182
100
AcDbEntity
  8
Layer_1
 62
7
100
AcDbSpline
 70
8
 71
3
 72
8
 73
4
 74
0
 40
0
 40
0
 40
0
 40
0
 40
1
 40
1
 40
1
 40
1
 10
128.779874
 20
190.554267
 30
0.0
 10
128.702500
 20
190.200561
 30
0.0
 10
130.384166
 20
189.865862
 30
0.0
 10
132.867688
 20
189.741224
 30
0.0
  0
LWPOLYLINE
  5
183
100
AcDbEntity
  8
Layer_1
 62
7
100
AcDbPolyline
 90
5
 70
0
 10
107.646831
 20
201.891111
 30
0.0
 10
107.646831
 20
190.781368
 30
0.0
 10
109.852796
 20
190.781368
 30
0.0
 10
112.058758
 20
190.781368
 30
0.0
 10
113.866193
 20
193.453107
 30
0.0
  0
SPLINE
  5
184
100
AcDbEntity
  8
Layer_1
 62
7
100
AcDbSpline
 70
8
 71
3
 72
8
 73
4
 74
0
 40
0
 40
0
 40
0
 40
0
 40
1
 40
1
 40
1
 40
1
 10
134.349355
 20
190.468827
 30
0.0
 10
134.414793
 20
191.321101
 30
0.0
 10
134.443097
 20
192.054930
 30
0.0
 10
134.685594
 20
199.201181
 30
0.0
  0
SPLINE
  5
185
100
AcDbEntity
  8
Layer_1
 62
7
100
AcDbSpline
 70
8
 71
3
 72
8
 73
4
 74
0
 40
0
 40
0
 40
0
 40
0
 40
1
 40
1
 40
1
 40
1
 10
134.685594
 20
199.201181
 30
0.0
 10
135.054295
 20
210.066663
 30
0.0
 10
135.164658
 20
220.928990
 30
0.0
 10
134.912695
 20
221.545795
 30
0.0
  0
SPLINE
  5
186
100
AcDbEntity
  8
Layer_1
 62
7
100
AcDbSpline
 70
8
 71
3
 72
8
 73
4
 74
0
 40
0
 40
0
 40
0
 40
0
 40
1
 40
1
 40
1
 40
1
 10
134.912695
 20
221.545795
 30
0.0
 10
134.876317
 20
221.634850
 30
0.0
 10
133.936619
 20
222.056473
 30
0.0
 10
132.824141
 20
222.482860
 30
0.0
  0
LWPOLYLINE
  5
187
100
AcDbEntity
  8
Layer_1
 62
7
100
AcDbPolyline
 90
3
 70
0
 10
132.867688
 20
189.741224
 30
0.0
 10
134.288169
 20
189.670118
 30
0.0
 10
134.349355
 20
190.468827
 30
0.0
  0
SPLINE
  5
188
100
AcDbEntity
  8
Layer_1
 62
7
100
AcDbSpline
 70
8
 71
3
 72
8
 73
4
 74
0
 40
0
 40
0
 40
0
 40
0
 40
1
 40
1
 40
1
 40
1
 10
130.544866
 20
223.023050
 30
0.0
 10
130.103872
 20
222.617632
 30
0.0
 10
126.252295
 20
218.269655
 30
0.0
 10
123.737909
 20
215.339110
 30
0.0
  0
SPLINE
  5
189
100
AcDbEntity
  8
Layer_1
 62
7
100
AcDbSpline
 70
8
 71
3
 72
8
 73
4
 74
0
 40
0
 40
0
 40
0
 40
0
 40
1
 40
1
 40
1
 40
1
 10
123.737909
 20
215.339110
 30
0.0
 10
119.386073
 20
210.266993
 30
0.0
 10
116.327081
 20
206.396052
 30
0.0
 10
114.653328
 20
203.842966
 30
0.0
  0
SPLINE
  5
18a
100
AcDbEntity
  8
Layer_1
 62
7
100
AcDbSpline
 70
8
 71
3
 72
8
 73
4
 74
0
 40
0
 40
0
 40
0
 40
0
 40
1
 40
1
 40
1
 40
1
 10
114.653328
 20
203.842966
 30
0.0
 10
113.341740
 20
201.842315
 30
0.0
 10
113.359565
 20
201.865262
 30
0.0
 10
113.241116
 20
201.983714
 30
0.0
  0
SPLINE
  5
18b
100
AcDbEntity
  8
Layer_1
 62
7
100
AcDbSpline
 70
8
 71
3
 72
8
 73
4
 74
0
 40
0
 40
0
 40
0
 40
0
 40
1
 40
1
 40
1
 40
1
 10
113.241116
 20
201.983714
 30
0.0
 10
113.175974
 20
202.048862
 30
0.0
 10
113.242527
 20
205.953037
 30
0.0
 10
113.422464
 20
212.636502
 30
0.0
  0
SPLINE
  5
18c
100
AcDbEntity
  8
Layer_1
 62
7
100
AcDbSpline
 70
8
 71
3
 72
8
 73
4
 74
0
 40
0
 40
0
 40
0
 40
0
 40
1
 40
1
 40
1
 40
1
 10
113.422464
 20
212.636502
 30
0.0
 10
113.578730
 20
218.439019
 30
0.0
 10
113.682930
 20
223.210175
 30
0.0
 10
113.654527
 20
223.238575
 30
0.0
  0
SPLINE
  5
18d
100
AcDbEntity
  8
Layer_1
 62
7
100
AcDbSpline
 70
8
 71
3
 72
8
 73
4
 74
0
 40
0
 40
0
 40
0
 40
0
 40
1
 40
1
 40
1
 40
1
 10
113.654527
 20
223.238575
 30
0.0
 10
113.626121
 20
223.266981
 30
0.0
 10
112.444922
 20
223.404454
 30
0.0
 10
111.029640
 20
223.544501
 30
0.0
  0
SPLINE
  5
18e
100
AcDbEntity
  8
Layer_1
 62
7
100
AcDbSpline
 70
8
 71
3
 72
8
 73
4
 74
0
 40
0
 40
0
 40
0
 40
0
 40
1
 40
1
 40
1
 40
1
 10
111.029640
 20
223.544501
 30
0.0
 10
109.600292
 20
223.685940
 30
0.0
 10
108.942056
 20
223.743417
 30
0.0
 10
108.596024
 20
223.731914
 30
0.0
  0
LWPOLYLINE
  5
18f
100
AcDbEntity
  8
Layer_1
 62
7
100
AcDbPolyline
 90
3
 70
0
 10
132.824141
 20
222.482860
 30
0.0
 10
130.801181
 20
223.258421
 30
0.0
 10
130.544866
 20
223.023050
 30
0.0
  0
LWPOLYLINE
  5
190
100
AcDbEntity
  8
Layer_1
 62
7
100
AcDbPolyline
 90
2
 70
0
 10
108.596024
 20
223.731914
 30
0.0
 10
108.596024
 20
223.731914
 30
0.0
  0
SPLINE
  5
191
100
AcDbEntity
  8
Layer_1
 62
7
100
AcDbSpline
 70
8
 71
3
 72
8
 73
4
 74
0
 40
0
 40
0
 40
0
 40
0
 40
1
 40
1
 40
1
 40
1
 10
79.662734
 20
222.115201
 30
0.0
 10
77.124458
 20
222.070087
 30
0.0
 10
73.697648
 20
221.411313
 30
0.0
 10
71.380725
 20
220.523290
 30
0.0
  0
SPLINE
  5
192
100
AcDbEntity
  8
Layer_1
 62
7
100
AcDbSpline
 70
8
 71
3
 72
8
 73
4
 74
0
 40
0
 40
0
 40
0
 40
0
 40
1
 40
1
 40
1
 40
1
 10
71.380725
 20
220.523290
 30
0.0
 10
70.414715
 20
220.153037
 30
0.0
 10
68.311056
 20
219.114586
 30
0.0
 10
67.892083
 20
218.800743
 30
0.0
  0
SPLINE
  5
193
100
AcDbEntity
  8
Layer_1
 62
7
100
AcDbSpline
 70
8
 71
3
 72
8
 73
4
 74
0
 40
0
 40
0
 40
0
 40
0
 40
1
 40
1
 40
1
 40
1
 10
67.892083
 20
218.800743
 30
0.0
 10
67.429820
 20
218.454485
 30
0.0
 10
67.231728
 20
215.015401
 30
0.0
 10
67.231728
 20
207.296880
 30
0.0
  0
SPLINE
  5
194
100
AcDbEntity
  8
Layer_1
 62
7
100
AcDbSpline
 70
8
 71
3
 72
8
 73
4
 74
0
 40
0
 40
0
 40
0
 40
0
 40
1
 40
1
 40
1
 40
1
 10
67.231728
 20
207.296880
 30
0.0
 10
67.231164
 20
201.276663
 30
0.0
 10
67.329030
 20
198.398857
 30
0.0
 10
67.663328
 20
194.613416
 30
0.0
  0
SPLINE
  5
195
100
AcDbEntity
  8
Layer_1
 62
7
100
AcDbSpline
 70
8
 71
3
 72
8
 73
4
 74
0
 40
0
 40
0
 40
0
 40
0
 40
1
 40
1
 40
1
 40
1
 10
67.663328
 20
194.613416
 30
0.0
 10
67.954384
 20
191.317667
 30
0.0
 10
68.453172
 20
188.293955
 30
0.0
 10
68.958686
 20
186.760252
 30
0.0
  0
SPLINE
  5
196
100
AcDbEntity
  8
Layer_1
 62
7
100
AcDbSpline
 70
8
 71
3
 72
8
 73
4
 74
0
 40
0
 40
0
 40
0
 40
0
 40
1
 40
1
 40
1
 40
1
 10
68.958686
 20
186.760252
 30
0.0
 10
69.072560
 20
186.414815
 30
0.0
 10
69.186191
 20
186.249735
 30
0.0
 10
69.307603
 20
186.253686
 30
0.0
  0
SPLINE
  5
197
100
AcDbEntity
  8
Layer_1
 62
7
100
AcDbSpline
 70
8
 71
3
 72
8
 73
4
 74
0
 40
0
 40
0
 40
0
 40
0
 40
1
 40
1
 40
1
 40
1
 10
69.307603
 20
186.253686
 30
0.0
 10
69.406736
 20
186.256903
 30
0.0
 10
69.947703
 20
186.463685
 30
0.0
 10
70.509254
 20
186.713398
 30
0.0
  0
LWPOLYLINE
  5
198
100
AcDbEntity
  8
Layer_1
 62
7
100
AcDbPolyline
 90
2
 70
0
 10
81.038567
 20
222.139452
 30
0.0
 10
79.662734
 20
222.115201
 30
0.0
  0
SPLINE
  5
199
100
AcDbEntity
  8
Layer_1
 62
7
100
AcDbSpline
 70
8
 71
3
 72
8
 73
4
 74
0
 40
0
 40
0
 40
0
 40
0
 40
1
 40
1
 40
1
 40
1
 10
71.671214
 20
188.299797
 30
0.0
 10
71.888629
 20
190.046470
 30
0.0
 10
72.479913
 20
191.920937
 30
0.0
 10
73.375020
 20
193.698398
 30
0.0
  0
SPLINE
  5
19a
100
AcDbEntity
  8
Layer_1
 62
7
100
AcDbSpline
 70
8
 71
3
 72
8
 73
4
 74
0
 40
0
 40
0
 40
0
 40
0
 40
1
 40
1
 40
1
 40
1
 10
73.375020
 20
193.698398
 30
0.0
 10
73.616428
 20
194.178003
 30
0.0
 10
73.705421
 20
194.451897
 30
0.0
 10
73.618660
 20
194.452461
 30
0.0
  0
SPLINE
  5
19b
100
AcDbEntity
  8
Layer_1
 62
7
100
AcDbSpline
 70
8
 71
3
 72
8
 73
4
 74
0
 40
0
 40
0
 40
0
 40
0
 40
1
 40
1
 40
1
 40
1
 10
73.618660
 20
194.452461
 30
0.0
 10
73.543702
 20
194.453026
 30
0.0
 10
73.151817
 20
194.369020
 30
0.0
 10
72.748290
 20
194.265599
 30
0.0
  0
SPLINE
  5
19c
100
AcDbEntity
  8
Layer_1
 62
7
100
AcDbSpline
 70
8
 71
3
 72
8
 73
4
 74
0
 40
0
 40
0
 40
0
 40
0
 40
1
 40
1
 40
1
 40
1
 10
72.748290
 20
194.265599
 30
0.0
 10
72.116230
 20
194.103607
 30
0.0
 10
72.001685
 20
194.098611
 30
0.0
 10
71.919262
 20
194.231975
 30
0.0
  0
SPLINE
  5
19d
100
AcDbEntity
  8
Layer_1
 62
7
100
AcDbSpline
 70
8
 71
3
 72
8
 73
4
 74
0
 40
0
 40
0
 40
0
 40
0
 40
1
 40
1
 40
1
 40
1
 10
71.919262
 20
194.231975
 30
0.0
 10
71.820318
 20
194.392072
 30
0.0
 10
71.569591
 20
195.669291
 30
0.0
 10
71.378521
 20
196.988050
 30
0.0
  0
SPLINE
  5
19e
100
AcDbEntity
  8
Layer_1
 62
7
100
AcDbSpline
 70
8
 71
3
 72
8
 73
4
 74
0
 40
0
 40
0
 40
0
 40
0
 40
1
 40
1
 40
1
 40
1
 10
71.378521
 20
196.988050
 30
0.0
 10
71.091628
 20
198.968237
 30
0.0
 10
71.120821
 20
202.491657
 30
0.0
 10
71.426476
 20
202.797310
 30
0.0
  0
SPLINE
  5
19f
100
AcDbEntity
  8
Layer_1
 62
7
100
AcDbSpline
 70
8
 71
3
 72
8
 73
4
 74
0
 40
0
 40
0
 40
0
 40
0
 40
1
 40
1
 40
1
 40
1
 10
71.426476
 20
202.797310
 30
0.0
 10
71.505631
 20
202.876476
 30
0.0
 10
73.266780
 20
203.196059
 30
0.0
 10
75.585947
 20
203.552474
 30
0.0
  0
SPLINE
  5
1a0
100
AcDbEntity
  8
Layer_1
 62
7
100
AcDbSpline
 70
8
 71
3
 72
8
 73
4
 74
0
 40
0
 40
0
 40
0
 40
0
 40
1
 40
1
 40
1
 40
1
 10
75.585947
 20
203.552474
 30
0.0
 10
77.798196
 20
203.892459
 30
0.0
 10
79.647423
 20
204.195058
 30
0.0
 10
79.695808
 20
204.224956
 30
0.0
  0
SPLINE
  5
1a1
100
AcDbEntity
  8
Layer_1
 62
7
100
AcDbSpline
 70
8
 71
3
 72
8
 73
4
 74
0
 40
0
 40
0
 40
0
 40
0
 40
1
 40
1
 40
1
 40
1
 10
79.695808
 20
204.224956
 30
0.0
 10
79.744189
 20
204.254855
 30
0.0
 10
79.731421
 20
204.430290
 30
0.0
 10
79.667145
 20
204.614666
 30
0.0
  0
SPLINE
  5
1a2
100
AcDbEntity
  8
Layer_1
 62
7
100
AcDbSpline
 70
8
 71
3
 72
8
 73
4
 74
0
 40
0
 40
0
 40
0
 40
0
 40
1
 40
1
 40
1
 40
1
 10
79.667145
 20
204.614666
 30
0.0
 10
79.506784
 20
205.074651
 30
0.0
 10
79.623048
 20
207.060928
 30
0.0
 10
79.897001
 20
208.538215
 30
0.0
  0
SPLINE
  5
1a3
100
AcDbEntity
  8
Layer_1
 62
7
100
AcDbSpline
 70
8
 71
3
 72
8
 73
4
 74
0
 40
0
 40
0
 40
0
 40
0
 40
1
 40
1
 40
1
 40
1
 10
79.897001
 20
208.538215
 30
0.0
 10
80.018117
 20
209.191286
 30
0.0
 10
80.119141
 20
209.786368
 30
0.0
 10
80.119141
 20
209.860581
 30
0.0
  0
SPLINE
  5
1a4
100
AcDbEntity
  8
Layer_1
 62
7
100
AcDbSpline
 70
8
 71
3
 72
8
 73
4
 74
0
 40
0
 40
0
 40
0
 40
0
 40
1
 40
1
 40
1
 40
1
 10
80.119141
 20
209.860581
 30
0.0
 10
80.121399
 20
210.045420
 30
0.0
 10
79.204295
 20
210.036101
 30
0.0
 10
77.230221
 20
209.830265
 30
0.0
  0
SPLINE
  5
1a5
100
AcDbEntity
  8
Layer_1
 62
7
100
AcDbSpline
 70
8
 71
3
 72
8
 73
4
 74
0
 40
0
 40
0
 40
0
 40
0
 40
1
 40
1
 40
1
 40
1
 10
77.230221
 20
209.830265
 30
0.0
 10
75.306944
 20
209.629729
 30
0.0
 10
73.609990
 20
209.262092
 30
0.0
 10
72.550954
 20
208.817132
 30
0.0
  0
SPLINE
  5
1a6
100
AcDbEntity
  8
Layer_1
 62
7
100
AcDbSpline
 70
8
 71
3
 72
8
 73
4
 74
0
 40
0
 40
0
 40
0
 40
0
 40
1
 40
1
 40
1
 40
1
 10
72.550954
 20
208.817132
 30
0.0
 10
72.117890
 20
208.635172
 30
0.0
 10
71.726256
 20
208.523966
 30
0.0
 10
71.680586
 20
208.569635
 30
0.0
  0
SPLINE
  5
1a7
100
AcDbEntity
  8
Layer_1
 62
7
100
AcDbSpline
 70
8
 71
3
 72
8
 73
4
 74
0
 40
0
 40
0
 40
0
 40
0
 40
1
 40
1
 40
1
 40
1
 10
71.680586
 20
208.569635
 30
0.0
 10
71.606893
 20
208.643331
 30
0.0
 10
71.503972
 20
210.436518
 30
0.0
 10
71.334424
 20
214.597726
 30
0.0
  0
SPLINE
  5
1a8
100
AcDbEntity
  8
Layer_1
 62
7
100
AcDbSpline
 70
8
 71
3
 72
8
 73
4
 74
0
 40
0
 40
0
 40
0
 40
0
 40
1
 40
1
 40
1
 40
1
 10
71.334424
 20
214.597726
 30
0.0
 10
71.296787
 20
215.521380
 30
0.0
 10
71.318986
 20
215.957146
 30
0.0
 10
71.409938
 20
216.074982
 30
0.0
  0
SPLINE
  5
1a9
100
AcDbEntity
  8
Layer_1
 62
7
100
AcDbSpline
 70
8
 71
3
 72
8
 73
4
 74
0
 40
0
 40
0
 40
0
 40
0
 40
1
 40
1
 40
1
 40
1
 10
71.409938
 20
216.074982
 30
0.0
 10
71.637731
 20
216.370085
 30
0.0
 10
75.075858
 20
217.305849
 30
0.0
 10
77.259987
 20
217.667443
 30
0.0
  0
SPLINE
  5
1aa
100
AcDbEntity
  8
Layer_1
 62
7
100
AcDbSpline
 70
8
 71
3
 72
8
 73
4
 74
0
 40
0
 40
0
 40
0
 40
0
 40
1
 40
1
 40
1
 40
1
 10
77.259987
 20
217.667443
 30
0.0
 10
77.675585
 20
217.736246
 30
0.0
 10
78.695954
 20
217.823809
 30
0.0
 10
79.527135
 20
217.861471
 30
0.0
  0
LWPOLYLINE
  5
1ab
100
AcDbEntity
  8
Layer_1
 62
7
100
AcDbPolyline
 90
3
 70
0
 10
70.509254
 20
186.713398
 30
0.0
 10
71.530103
 20
187.167600
 30
0.0
 10
71.671214
 20
188.299797
 30
0.0
  0
SPLINE
  5
1ac
100
AcDbEntity
  8
Layer_1
 62
7
100
AcDbSpline
 70
8
 71
3
 72
8
 73
4
 74
0
 40
0
 40
0
 40
0
 40
0
 40
1
 40
1
 40
1
 40
1
 10
138.686314
 20
221.596507
 30
0.0
 10
138.621920
 20
221.598483
 30
0.0
 10
138.594163
 20
219.777687
 30
0.0
 10
138.612451
 20
216.742505
 30
0.0
  0
SPLINE
  5
1ad
100
AcDbEntity
  8
Layer_1
 62
7
100
AcDbSpline
 70
8
 71
3
 72
8
 73
4
 74
0
 40
0
 40
0
 40
0
 40
0
 40
1
 40
1
 40
1
 40
1
 10
138.612451
 20
216.742505
 30
0.0
 10
138.665193
 20
207.993283
 30
0.0
 10
138.138885
 20
199.628301
 30
0.0
 10
137.055820
 20
192.002860
 30
0.0
  0
SPLINE
  5
1ae
100
AcDbEntity
  8
Layer_1
 62
7
100
AcDbSpline
 70
8
 71
3
 72
8
 73
4
 74
0
 40
0
 40
0
 40
0
 40
0
 40
1
 40
1
 40
1
 40
1
 10
137.055820
 20
192.002860
 30
0.0
 10
136.910913
 20
190.982613
 30
0.0
 10
136.792341
 20
190.102240
 30
0.0
 10
136.792341
 20
190.046597
 30
0.0
  0
SPLINE
  5
1af
100
AcDbEntity
  8
Layer_1
 62
7
100
AcDbSpline
 70
8
 71
3
 72
8
 73
4
 74
0
 40
0
 40
0
 40
0
 40
0
 40
1
 40
1
 40
1
 40
1
 10
136.792341
 20
190.046597
 30
0.0
 10
136.792341
 20
189.990957
 30
0.0
 10
137.436090
 20
189.910182
 30
0.0
 10
138.222742
 20
189.866901
 30
0.0
  0
SPLINE
  5
1b0
100
AcDbEntity
  8
Layer_1
 62
7
100
AcDbSpline
 70
8
 71
3
 72
8
 73
4
 74
0
 40
0
 40
0
 40
0
 40
0
 40
1
 40
1
 40
1
 40
1
 10
138.222742
 20
189.866901
 30
0.0
 10
139.009402
 20
189.823619
 30
0.0
 10
140.284180
 20
189.724833
 30
0.0
 10
141.055990
 20
189.647518
 30
0.0
  0
SPLINE
  5
1b1
100
AcDbEntity
  8
Layer_1
 62
7
100
AcDbSpline
 70
8
 71
3
 72
8
 73
4
 74
0
 40
0
 40
0
 40
0
 40
0
 40
1
 40
1
 40
1
 40
1
 10
141.055990
 20
189.647518
 30
0.0
 10
141.827803
 20
189.570220
 30
0.0
 10
142.494068
 20
189.539475
 30
0.0
 10
142.536553
 20
189.579167
 30
0.0
  0
SPLINE
  5
1b2
100
AcDbEntity
  8
Layer_1
 62
7
100
AcDbSpline
 70
8
 71
3
 72
8
 73
4
 74
0
 40
0
 40
0
 40
0
 40
0
 40
1
 40
1
 40
1
 40
1
 10
142.536553
 20
189.579167
 30
0.0
 10
142.579042
 20
189.618861
 30
0.0
 10
142.929635
 20
191.729034
 30
0.0
 10
143.315422
 20
194.268354
 30
0.0
  0
SPLINE
  5
1b3
100
AcDbEntity
  8
Layer_1
 62
7
100
AcDbSpline
 70
8
 71
3
 72
8
 73
4
 74
0
 40
0
 40
0
 40
0
 40
0
 40
1
 40
1
 40
1
 40
1
 10
143.315422
 20
194.268354
 30
0.0
 10
143.701208
 20
196.807674
 30
0.0
 10
144.049521
 20
198.938545
 30
0.0
 10
144.089879
 20
199.003845
 30
0.0
  0
SPLINE
  5
1b4
100
AcDbEntity
  8
Layer_1
 62
7
100
AcDbSpline
 70
8
 71
3
 72
8
 73
4
 74
0
 40
0
 40
0
 40
0
 40
0
 40
1
 40
1
 40
1
 40
1
 10
144.089879
 20
199.003845
 30
0.0
 10
144.181311
 20
199.151789
 30
0.0
 10
145.566023
 20
199.056875
 30
0.0
 10
146.839342
 20
198.815329
 30
0.0
  0
SPLINE
  5
1b5
100
AcDbEntity
  8
Layer_1
 62
7
100
AcDbSpline
 70
8
 71
3
 72
8
 73
4
 74
0
 40
0
 40
0
 40
0
 40
0
 40
1
 40
1
 40
1
 40
1
 10
146.839342
 20
198.815329
 30
0.0
 10
147.949166
 20
198.604800
 30
0.0
 10
149.979284
 20
197.945644
 30
0.0
 10
151.068814
 20
197.442253
 30
0.0
  0
SPLINE
  5
1b6
100
AcDbEntity
  8
Layer_1
 62
7
100
AcDbSpline
 70
8
 71
3
 72
8
 73
4
 74
0
 40
0
 40
0
 40
0
 40
0
 40
1
 40
1
 40
1
 40
1
 10
151.068814
 20
197.442253
 30
0.0
 10
151.817352
 20
197.096404
 30
0.0
 10
151.902767
 20
197.023179
 30
0.0
 10
152.113369
 20
196.547078
 30
0.0
  0
SPLINE
  5
1b7
100
AcDbEntity
  8
Layer_1
 62
7
100
AcDbSpline
 70
8
 71
3
 72
8
 73
4
 74
0
 40
0
 40
0
 40
0
 40
0
 40
1
 40
1
 40
1
 40
1
 10
152.113369
 20
196.547078
 30
0.0
 10
152.239517
 20
196.261907
 30
0.0
 10
152.366500
 20
195.928845
 30
0.0
 10
152.395592
 20
195.806798
 30
0.0
  0
SPLINE
  5
1b8
100
AcDbEntity
  8
Layer_1
 62
7
100
AcDbSpline
 70
8
 71
3
 72
8
 73
4
 74
0
 40
0
 40
0
 40
0
 40
0
 40
1
 40
1
 40
1
 40
1
 10
152.395592
 20
195.806798
 30
0.0
 10
152.436737
 20
195.634075
 30
0.0
 10
151.778533
 20
194.843390
 30
0.0
 10
149.425090
 20
192.238781
 30
0.0
  0
SPLINE
  5
1b9
100
AcDbEntity
  8
Layer_1
 62
7
100
AcDbSpline
 70
8
 71
3
 72
8
 73
4
 74
0
 40
0
 40
0
 40
0
 40
0
 40
1
 40
1
 40
1
 40
1
 10
149.425090
 20
192.238781
 30
0.0
 10
147.762098
 20
190.398308
 30
0.0
 10
146.400574
 20
188.859954
 30
0.0
 10
146.400574
 20
188.820144
 30
0.0
  0
SPLINE
  5
1ba
100
AcDbEntity
  8
Layer_1
 62
7
100
AcDbSpline
 70
8
 71
3
 72
8
 73
4
 74
0
 40
0
 40
0
 40
0
 40
0
 40
1
 40
1
 40
1
 40
1
 10
146.400574
 20
188.820144
 30
0.0
 10
146.400009
 20
188.780334
 30
0.0
 10
146.557091
 20
188.713769
 30
0.0
 10
146.750044
 20
188.672418
 30
0.0
  0
SPLINE
  5
1bb
100
AcDbEntity
  8
Layer_1
 62
7
100
AcDbSpline
 70
8
 71
3
 72
8
 73
4
 74
0
 40
0
 40
0
 40
0
 40
0
 40
1
 40
1
 40
1
 40
1
 10
146.750044
 20
188.672418
 30
0.0
 10
147.648874
 20
188.479784
 30
0.0
 10
149.725817
 20
187.826637
 30
0.0
 10
150.404601
 20
187.523133
 30
0.0
  0
LWPOLYLINE
  5
1bc
100
AcDbEntity
  8
Layer_1
 62
7
100
AcDbPolyline
 90
5
 70
0
 10
79.527135
 20
217.861471
 30
0.0
 10
81.038567
 20
217.929823
 30
0.0
 10
81.038567
 20
220.034912
 30
0.0
 10
81.038567
 20
222.139452
 30
0.0
 10
81.038567
 20
222.139452
 30
0.0
  0
SPLINE
  5
1bd
100
AcDbEntity
  8
Layer_1
 62
7
100
AcDbSpline
 70
8
 71
3
 72
8
 73
4
 74
0
 40
0
 40
0
 40
0
 40
0
 40
1
 40
1
 40
1
 40
1
 10
152.343776
 20
188.354918
 30
0.0
 10
153.231444
 20
189.229646
 30
0.0
 10
153.560803
 20
189.492688
 30
0.0
 10
153.652911
 20
189.400574
 30
0.0
  0
SPLINE
  5
1be
100
AcDbEntity
  8
Layer_1
 62
7
100
AcDbSpline
 70
8
 71
3
 72
8
 73
4
 74
0
 40
0
 40
0
 40
0
 40
0
 40
1
 40
1
 40
1
 40
1
 10
153.652911
 20
189.400574
 30
0.0
 10
153.720594
 20
189.332891
 30
0.0
 10
154.170524
 20
188.607696
 30
0.0
 10
154.653369
 20
187.789370
 30
0.0
  0
LWPOLYLINE
  5
1bf
100
AcDbEntity
  8
Layer_1
 62
7
100
AcDbPolyline
 90
3
 70
0
 10
150.404601
 20
187.523133
 30
0.0
 10
151.158112
 20
187.186340
 30
0.0
 10
152.343776
 20
188.354918
 30
0.0
  0
SPLINE
  5
1c0
100
AcDbEntity
  8
Layer_1
 62
7
100
AcDbSpline
 70
8
 71
3
 72
8
 73
4
 74
0
 40
0
 40
0
 40
0
 40
0
 40
1
 40
1
 40
1
 40
1
 10
156.711055
 20
186.222816
 30
0.0
 10
158.068744
 20
186.131870
 30
0.0
 10
159.302783
 20
185.920706
 30
0.0
 10
160.740437
 20
185.534349
 30
0.0
  0
SPLINE
  5
1c1
100
AcDbEntity
  8
Layer_1
 62
7
100
AcDbSpline
 70
8
 71
3
 72
8
 73
4
 74
0
 40
0
 40
0
 40
0
 40
0
 40
1
 40
1
 40
1
 40
1
 10
160.740437
 20
185.534349
 30
0.0
 10
161.295927
 20
185.385065
 30
0.0
 10
161.778007
 20
185.290343
 30
0.0
 10
161.811451
 20
185.323786
 30
0.0
  0
SPLINE
  5
1c2
100
AcDbEntity
  8
Layer_1
 62
7
100
AcDbSpline
 70
8
 71
3
 72
8
 73
4
 74
0
 40
0
 40
0
 40
0
 40
0
 40
1
 40
1
 40
1
 40
1
 10
161.811451
 20
185.323786
 30
0.0
 10
161.918833
 20
185.431163
 30
0.0
 10
161.502925
 20
187.135904
 30
0.0
 10
161.138416
 20
188.082618
 30
0.0
  0
SPLINE
  5
1c3
100
AcDbEntity
  8
Layer_1
 62
7
100
AcDbSpline
 70
8
 71
3
 72
8
 73
4
 74
0
 40
0
 40
0
 40
0
 40
0
 40
1
 40
1
 40
1
 40
1
 10
161.138416
 20
188.082618
 30
0.0
 10
160.506297
 20
189.724390
 30
0.0
 10
158.637021
 20
193.188857
 30
0.0
 10
157.983259
 20
193.929910
 30
0.0
  0
SPLINE
  5
1c4
100
AcDbEntity
  8
Layer_1
 62
7
100
AcDbSpline
 70
8
 71
3
 72
8
 73
4
 74
0
 40
0
 40
0
 40
0
 40
0
 40
1
 40
1
 40
1
 40
1
 10
157.983259
 20
193.929910
 30
0.0
 10
157.895919
 20
194.028911
 30
0.0
 10
157.840172
 20
194.207430
 30
0.0
 10
157.859786
 20
194.326785
 30
0.0
  0
SPLINE
  5
1c5
100
AcDbEntity
  8
Layer_1
 62
7
100
AcDbSpline
 70
8
 71
3
 72
8
 73
4
 74
0
 40
0
 40
0
 40
0
 40
0
 40
1
 40
1
 40
1
 40
1
 10
157.859786
 20
194.326785
 30
0.0
 10
157.910070
 20
194.632756
 30
0.0
 10
160.441471
 20
197.474223
 30
0.0
 10
160.663819
 20
197.474223
 30
0.0
  0
SPLINE
  5
1c6
100
AcDbEntity
  8
Layer_1
 62
7
100
AcDbSpline
 70
8
 71
3
 72
8
 73
4
 74
0
 40
0
 40
0
 40
0
 40
0
 40
1
 40
1
 40
1
 40
1
 10
160.663819
 20
197.474223
 30
0.0
 10
161.226635
 20
197.474223
 30
0.0
 10
162.566632
 20
195.000108
 30
0.0
 10
163.440841
 20
192.346818
 30
0.0
  0
SPLINE
  5
1c7
100
AcDbEntity
  8
Layer_1
 62
7
100
AcDbSpline
 70
8
 71
3
 72
8
 73
4
 74
0
 40
0
 40
0
 40
0
 40
0
 40
1
 40
1
 40
1
 40
1
 10
163.440841
 20
192.346818
 30
0.0
 10
164.038658
 20
190.532417
 30
0.0
 10
164.788873
 20
187.642405
 30
0.0
 10
165.284105
 20
185.244408
 30
0.0
  0
SPLINE
  5
1c8
100
AcDbEntity
  8
Layer_1
 62
7
100
AcDbSpline
 70
8
 71
3
 72
8
 73
4
 74
0
 40
0
 40
0
 40
0
 40
0
 40
1
 40
1
 40
1
 40
1
 10
165.284105
 20
185.244408
 30
0.0
 10
165.465486
 20
184.366107
 30
0.0
 10
165.613732
 20
183.629454
 30
0.0
 10
165.613732
 20
183.607299
 30
0.0
  0
SPLINE
  5
1c9
100
AcDbEntity
  8
Layer_1
 62
7
100
AcDbSpline
 70
8
 71
3
 72
8
 73
4
 74
0
 40
0
 40
0
 40
0
 40
0
 40
1
 40
1
 40
1
 40
1
 10
165.613732
 20
183.607299
 30
0.0
 10
165.613732
 20
183.585145
 30
0.0
 10
165.990360
 20
183.298771
 30
0.0
 10
166.450478
 20
182.970645
 30
0.0
  0
SPLINE
  5
1ca
100
AcDbEntity
  8
Layer_1
 62
7
100
AcDbSpline
 70
8
 71
3
 72
8
 73
4
 74
0
 40
0
 40
0
 40
0
 40
0
 40
1
 40
1
 40
1
 40
1
 10
166.450478
 20
182.970645
 30
0.0
 10
166.910597
 20
182.642523
 30
0.0
 10
167.530012
 20
182.154645
 30
0.0
 10
167.826862
 20
181.886407
 30
0.0
  0
SPLINE
  5
1cb
100
AcDbEntity
  8
Layer_1
 62
7
100
AcDbSpline
 70
8
 71
3
 72
8
 73
4
 74
0
 40
0
 40
0
 40
0
 40
0
 40
1
 40
1
 40
1
 40
1
 10
167.826862
 20
181.886407
 30
0.0
 10
168.123712
 20
181.618172
 30
0.0
 10
168.397829
 20
181.396430
 30
0.0
 10
168.436507
 20
181.394172
 30
0.0
  0
SPLINE
  5
1cc
100
AcDbEntity
  8
Layer_1
 62
7
100
AcDbSpline
 70
8
 71
3
 72
8
 73
4
 74
0
 40
0
 40
0
 40
0
 40
0
 40
1
 40
1
 40
1
 40
1
 10
168.436507
 20
181.394172
 30
0.0
 10
168.600380
 20
181.384520
 30
0.0
 10
168.663976
 20
184.040200
 30
0.0
 10
168.546199
 20
185.978076
 30
0.0
  0
SPLINE
  5
1cd
100
AcDbEntity
  8
Layer_1
 62
7
100
AcDbSpline
 70
8
 71
3
 72
8
 73
4
 74
0
 40
0
 40
0
 40
0
 40
0
 40
1
 40
1
 40
1
 40
1
 10
168.546199
 20
185.978076
 30
0.0
 10
168.240419
 20
191.008907
 30
0.0
 10
166.921592
 20
196.304000
 30
0.0
 10
164.850298
 20
200.816793
 30
0.0
  0
SPLINE
  5
1ce
100
AcDbEntity
  8
Layer_1
 62
7
100
AcDbSpline
 70
8
 71
3
 72
8
 73
4
 74
0
 40
0
 40
0
 40
0
 40
0
 40
1
 40
1
 40
1
 40
1
 10
164.850298
 20
200.816793
 30
0.0
 10
164.557775
 20
201.454101
 30
0.0
 10
164.318377
 20
202.007677
 30
0.0
 10
164.318377
 20
202.047104
 30
0.0
  0
SPLINE
  5
1cf
100
AcDbEntity
  8
Layer_1
 62
7
100
AcDbSpline
 70
8
 71
3
 72
8
 73
4
 74
0
 40
0
 40
0
 40
0
 40
0
 40
1
 40
1
 40
1
 40
1
 10
164.318377
 20
202.047104
 30
0.0
 10
164.318377
 20
202.086533
 30
0.0
 10
164.728288
 20
202.557014
 30
0.0
 10
165.228984
 20
203.092209
 30
0.0
  0
SPLINE
  5
1d0
100
AcDbEntity
  8
Layer_1
 62
7
100
AcDbSpline
 70
8
 71
3
 72
8
 73
4
 74
0
 40
0
 40
0
 40
0
 40
0
 40
1
 40
1
 40
1
 40
1
 10
165.228984
 20
203.092209
 30
0.0
 10
167.413613
 20
205.427389
 30
0.0
 10
169.149172
 20
208.284079
 30
0.0
 10
170.087397
 20
211.088688
 30
0.0
  0
SPLINE
  5
1d1
100
AcDbEntity
  8
Layer_1
 62
7
100
AcDbSpline
 70
8
 71
3
 72
8
 73
4
 74
0
 40
0
 40
0
 40
0
 40
0
 40
1
 40
1
 40
1
 40
1
 10
170.087397
 20
211.088688
 30
0.0
 10
170.621799
 20
212.686139
 30
0.0
 10
170.618181
 20
212.714124
 30
0.0
 10
169.731862
 20
213.556479
 30
0.0
  0
SPLINE
  5
1d2
100
AcDbEntity
  8
Layer_1
 62
7
100
AcDbSpline
 70
8
 71
3
 72
8
 73
4
 74
0
 40
0
 40
0
 40
0
 40
0
 40
1
 40
1
 40
1
 40
1
 10
169.731862
 20
213.556479
 30
0.0
 10
169.325036
 20
213.943126
 30
0.0
 10
168.743895
 20
214.395032
 30
0.0
 10
168.440916
 20
214.560242
 30
0.0
  0
LWPOLYLINE
  5
1d3
100
AcDbEntity
  8
Layer_1
 62
7
100
AcDbPolyline
 90
3
 70
0
 10
154.653369
 20
187.789370
 30
0.0
 10
155.531453
 20
186.301641
 30
0.0
 10
156.711055
 20
186.222816
 30
0.0
  0
SPLINE
  5
1d4
100
AcDbEntity
  8
Layer_1
 62
7
100
AcDbSpline
 70
8
 71
3
 72
8
 73
4
 74
0
 40
0
 40
0
 40
0
 40
0
 40
1
 40
1
 40
1
 40
1
 10
167.111384
 20
213.696489
 30
0.0
 10
165.218435
 20
210.866732
 30
0.0
 10
162.021478
 20
207.033256
 30
0.0
 10
161.612461
 20
207.102852
 30
0.0
  0
SPLINE
  5
1d5
100
AcDbEntity
  8
Layer_1
 62
7
100
AcDbSpline
 70
8
 71
3
 72
8
 73
4
 74
0
 40
0
 40
0
 40
0
 40
0
 40
1
 40
1
 40
1
 40
1
 10
161.612461
 20
207.102852
 30
0.0
 10
161.507969
 20
207.120632
 30
0.0
 10
159.955653
 20
209.024312
 30
0.0
 10
158.162955
 20
211.333428
 30
0.0
  0
SPLINE
  5
1d6
100
AcDbEntity
  8
Layer_1
 62
7
100
AcDbSpline
 70
8
 71
3
 72
8
 73
4
 74
0
 40
0
 40
0
 40
0
 40
0
 40
1
 40
1
 40
1
 40
1
 10
158.162955
 20
211.333428
 30
0.0
 10
155.347526
 20
214.959913
 30
0.0
 10
154.870040
 20
215.629314
 30
0.0
 10
154.657227
 20
216.245309
 30
0.0
  0
SPLINE
  5
1d7
100
AcDbEntity
  8
Layer_1
 62
7
100
AcDbSpline
 70
8
 71
3
 72
8
 73
4
 74
0
 40
0
 40
0
 40
0
 40
0
 40
1
 40
1
 40
1
 40
1
 10
154.657227
 20
216.245309
 30
0.0
 10
154.055171
 20
217.987963
 30
0.0
 10
153.771693
 20
218.341037
 30
0.0
 10
152.429766
 20
219.016818
 30
0.0
  0
SPLINE
  5
1d8
100
AcDbEntity
  8
Layer_1
 62
7
100
AcDbSpline
 70
8
 71
3
 72
8
 73
4
 74
0
 40
0
 40
0
 40
0
 40
0
 40
1
 40
1
 40
1
 40
1
 10
152.429766
 20
219.016818
 30
0.0
 10
151.296367
 20
219.587587
 30
0.0
 10
149.098220
 20
220.298982
 30
0.0
 10
149.098220
 20
220.094995
 30
0.0
  0
SPLINE
  5
1d9
100
AcDbEntity
  8
Layer_1
 62
7
100
AcDbSpline
 70
8
 71
3
 72
8
 73
4
 74
0
 40
0
 40
0
 40
0
 40
0
 40
1
 40
1
 40
1
 40
1
 10
149.098220
 20
220.094995
 30
0.0
 10
149.098220
 20
220.068692
 30
0.0
 10
149.392200
 20
219.594722
 30
0.0
 10
149.751963
 20
219.042173
 30
0.0
  0
SPLINE
  5
1da
100
AcDbEntity
  8
Layer_1
 62
7
100
AcDbSpline
 70
8
 71
3
 72
8
 73
4
 74
0
 40
0
 40
0
 40
0
 40
0
 40
1
 40
1
 40
1
 40
1
 10
149.751963
 20
219.042173
 30
0.0
 10
151.141915
 20
216.907368
 30
0.0
 10
153.212882
 20
212.401016
 30
0.0
 10
154.831409
 20
207.988105
 30
0.0
  0
SPLINE
  5
1db
100
AcDbEntity
  8
Layer_1
 62
7
100
AcDbSpline
 70
8
 71
3
 72
8
 73
4
 74
0
 40
0
 40
0
 40
0
 40
0
 40
1
 40
1
 40
1
 40
1
 10
154.831409
 20
207.988105
 30
0.0
 10
155.521454
 20
206.106704
 30
0.0
 10
155.744949
 20
205.635311
 30
0.0
 10
156.633333
 20
204.191883
 30
0.0
  0
SPLINE
  5
1dc
100
AcDbEntity
  8
Layer_1
 62
7
100
AcDbSpline
 70
8
 71
3
 72
8
 73
4
 74
0
 40
0
 40
0
 40
0
 40
0
 40
1
 40
1
 40
1
 40
1
 10
156.633333
 20
204.191883
 30
0.0
 10
157.797387
 20
202.300525
 30
0.0
 10
157.795649
 20
202.595058
 30
0.0
 10
156.650422
 20
201.306270
 30
0.0
  0
SPLINE
  5
1dd
100
AcDbEntity
  8
Layer_1
 62
7
100
AcDbSpline
 70
8
 71
3
 72
8
 73
4
 74
0
 40
0
 40
0
 40
0
 40
0
 40
1
 40
1
 40
1
 40
1
 10
156.650422
 20
201.306270
 30
0.0
 10
155.430000
 20
199.932873
 30
0.0
 10
155.012111
 20
199.514676
 30
0.0
 10
154.897557
 20
199.552855
 30
0.0
  0
SPLINE
  5
1de
100
AcDbEntity
  8
Layer_1
 62
7
100
AcDbSpline
 70
8
 71
3
 72
8
 73
4
 74
0
 40
0
 40
0
 40
0
 40
0
 40
1
 40
1
 40
1
 40
1
 10
154.897557
 20
199.552855
 30
0.0
 10
154.835284
 20
199.573626
 30
0.0
 10
154.716644
 20
199.830796
 30
0.0
 10
154.634077
 20
200.124465
 30
0.0
  0
SPLINE
  5
1df
100
AcDbEntity
  8
Layer_1
 62
7
100
AcDbSpline
 70
8
 71
3
 72
8
 73
4
 74
0
 40
0
 40
0
 40
0
 40
0
 40
1
 40
1
 40
1
 40
1
 10
154.634077
 20
200.124465
 30
0.0
 10
152.314614
 20
208.373569
 30
0.0
 10
148.854363
 20
215.526458
 30
0.0
 10
144.878668
 20
220.289576
 30
0.0
  0
SPLINE
  5
1e0
100
AcDbEntity
  8
Layer_1
 62
7
100
AcDbSpline
 70
8
 71
3
 72
8
 73
4
 74
0
 40
0
 40
0
 40
0
 40
0
 40
1
 40
1
 40
1
 40
1
 10
144.878668
 20
220.289576
 30
0.0
 10
144.199635
 20
221.103098
 30
0.0
 10
143.960830
 20
221.316859
 30
0.0
 10
143.677019
 20
221.365548
 30
0.0
  0
SPLINE
  5
1e1
100
AcDbEntity
  8
Layer_1
 62
7
100
AcDbSpline
 70
8
 71
3
 72
8
 73
4
 74
0
 40
0
 40
0
 40
0
 40
0
 40
1
 40
1
 40
1
 40
1
 10
143.677019
 20
221.365548
 30
0.0
 10
143.408341
 20
221.411640
 30
0.0
 10
140.838730
 20
221.530433
 30
0.0
 10
138.686314
 20
221.596507
 30
0.0
  0
LWPOLYLINE
  5
1e2
100
AcDbEntity
  8
Layer_1
 62
7
100
AcDbPolyline
 90
3
 70
0
 10
168.440916
 20
214.560242
 30
0.0
 10
167.890252
 20
214.860656
 30
0.0
 10
167.111384
 20
213.696489
 30
0.0
  0
SPLINE
  5
1e3
100
AcDbEntity
  8
Layer_1
 62
7
100
AcDbSpline
 70
8
 71
3
 72
8
 73
4
 74
0
 40
0
 40
0
 40
0
 40
0
 40
1
 40
1
 40
1
 40
1
 10
57.858863
 20
217.003781
 30
0.0
 10
57.270455
 20
216.994468
 30
0.0
 10
56.680571
 20
216.941542
 30
0.0
 10
56.314357
 20
216.847785
 30
0.0
  0
SPLINE
  5
1e4
100
AcDbEntity
  8
Layer_1
 62
7
100
AcDbSpline
 70
8
 71
3
 72
8
 73
4
 74
0
 40
0
 40
0
 40
0
 40
0
 40
1
 40
1
 40
1
 40
1
 10
56.314357
 20
216.847785
 30
0.0
 10
55.489489
 20
216.636610
 30
0.0
 10
54.063697
 20
215.956646
 30
0.0
 10
53.097464
 20
215.314306
 30
0.0
  0
SPLINE
  5
1e5
100
AcDbEntity
  8
Layer_1
 62
7
100
AcDbSpline
 70
8
 71
3
 72
8
 73
4
 74
0
 40
0
 40
0
 40
0
 40
0
 40
1
 40
1
 40
1
 40
1
 10
53.097464
 20
215.314306
 30
0.0
 10
52.363113
 20
214.826109
 30
0.0
 10
50.303156
 20
212.943845
 30
0.0
 10
50.111533
 20
212.585790
 30
0.0
  0
SPLINE
  5
1e6
100
AcDbEntity
  8
Layer_1
 62
7
100
AcDbSpline
 70
8
 71
3
 72
8
 73
4
 74
0
 40
0
 40
0
 40
0
 40
0
 40
1
 40
1
 40
1
 40
1
 10
50.111533
 20
212.585790
 30
0.0
 10
49.947872
 20
212.279999
 30
0.0
 10
49.681398
 20
209.434939
 30
0.0
 10
49.577955
 20
206.885674
 30
0.0
  0
SPLINE
  5
1e7
100
AcDbEntity
  8
Layer_1
 62
7
100
AcDbSpline
 70
8
 71
3
 72
8
 73
4
 74
0
 40
0
 40
0
 40
0
 40
0
 40
1
 40
1
 40
1
 40
1
 10
49.577955
 20
206.885674
 30
0.0
 10
49.343031
 20
201.096867
 30
0.0
 10
49.924572
 20
193.922101
 30
0.0
 10
51.201836
 20
186.841281
 30
0.0
  0
SPLINE
  5
1e8
100
AcDbEntity
  8
Layer_1
 62
7
100
AcDbSpline
 70
8
 71
3
 72
8
 73
4
 74
0
 40
0
 40
0
 40
0
 40
0
 40
1
 40
1
 40
1
 40
1
 10
51.201836
 20
186.841281
 30
0.0
 10
51.530941
 20
185.016892
 30
0.0
 10
51.968332
 20
182.884542
 30
0.0
 10
52.169218
 20
182.127286
 30
0.0
  0
LWPOLYLINE
  5
1e9
100
AcDbEntity
  8
Layer_1
 62
7
100
AcDbPolyline
 90
2
 70
0
 10
138.686314
 20
221.596507
 30
0.0
 10
138.686314
 20
221.596507
 30
0.0
  0
SPLINE
  5
1ea
100
AcDbEntity
  8
Layer_1
 62
7
100
AcDbSpline
 70
8
 71
3
 72
8
 73
4
 74
0
 40
0
 40
0
 40
0
 40
0
 40
1
 40
1
 40
1
 40
1
 10
52.820203
 20
182.098074
 30
0.0
 10
53.120301
 20
182.300029
 30
0.0
 10
53.568744
 20
182.517498
 30
0.0
 10
53.816800
 20
182.580936
 30
0.0
  0
SPLINE
  5
1eb
100
AcDbEntity
  8
Layer_1
 62
7
100
AcDbSpline
 70
8
 71
3
 72
8
 73
4
 74
0
 40
0
 40
0
 40
0
 40
0
 40
1
 40
1
 40
1
 40
1
 10
53.816800
 20
182.580936
 30
0.0
 10
54.064840
 20
182.644377
 30
0.0
 10
54.325963
 20
182.715373
 30
0.0
 10
54.397230
 20
182.739136
 30
0.0
  0
SPLINE
  5
1ec
100
AcDbEntity
  8
Layer_1
 62
7
100
AcDbSpline
 70
8
 71
3
 72
8
 73
4
 74
0
 40
0
 40
0
 40
0
 40
0
 40
1
 40
1
 40
1
 40
1
 10
54.397230
 20
182.739136
 30
0.0
 10
54.489198
 20
182.769799
 30
0.0
 10
54.449630
 20
182.973566
 30
0.0
 10
54.259980
 20
183.440283
 30
0.0
  0
SPLINE
  5
1ed
100
AcDbEntity
  8
Layer_1
 62
7
100
AcDbSpline
 70
8
 71
3
 72
8
 73
4
 74
0
 40
0
 40
0
 40
0
 40
0
 40
1
 40
1
 40
1
 40
1
 10
54.259980
 20
183.440283
 30
0.0
 10
53.719603
 20
184.770179
 30
0.0
 10
53.086962
 20
187.880931
 30
0.0
 10
52.432148
 20
192.432258
 30
0.0
  0
SPLINE
  5
1ee
100
AcDbEntity
  8
Layer_1
 62
7
100
AcDbSpline
 70
8
 71
3
 72
8
 73
4
 74
0
 40
0
 40
0
 40
0
 40
0
 40
1
 40
1
 40
1
 40
1
 10
52.432148
 20
192.432258
 30
0.0
 10
52.173251
 20
194.231741
 30
0.0
 10
52.162865
 20
194.559395
 30
0.0
 10
52.364349
 20
194.559395
 30
0.0
  0
SPLINE
  5
1ef
100
AcDbEntity
  8
Layer_1
 62
7
100
AcDbSpline
 70
8
 71
3
 72
8
 73
4
 74
0
 40
0
 40
0
 40
0
 40
0
 40
1
 40
1
 40
1
 40
1
 10
52.364349
 20
194.559395
 30
0.0
 10
52.460771
 20
194.559395
 30
0.0
 10
55.451739
 20
191.542288
 30
0.0
 10
59.022480
 20
187.842840
 30
0.0
  0
SPLINE
  5
1f0
100
AcDbEntity
  8
Layer_1
 62
7
100
AcDbSpline
 70
8
 71
3
 72
8
 73
4
 74
0
 40
0
 40
0
 40
0
 40
0
 40
1
 40
1
 40
1
 40
1
 10
59.022480
 20
187.842840
 30
0.0
 10
60.439102
 20
186.375151
 30
0.0
 10
61.650437
 20
185.154394
 30
0.0
 10
61.714614
 20
185.129758
 30
0.0
  0
SPLINE
  5
1f1
100
AcDbEntity
  8
Layer_1
 62
7
100
AcDbSpline
 70
8
 71
3
 72
8
 73
4
 74
0
 40
0
 40
0
 40
0
 40
0
 40
1
 40
1
 40
1
 40
1
 10
61.714614
 20
185.129758
 30
0.0
 10
61.778811
 20
185.105118
 30
0.0
 10
62.242773
 20
185.175075
 30
0.0
 10
62.745386
 20
185.285201
 30
0.0
  0
SPLINE
  5
1f2
100
AcDbEntity
  8
Layer_1
 62
7
100
AcDbSpline
 70
8
 71
3
 72
8
 73
4
 74
0
 40
0
 40
0
 40
0
 40
0
 40
1
 40
1
 40
1
 40
1
 10
62.745386
 20
185.285201
 30
0.0
 10
63.536184
 20
185.458474
 30
0.0
 10
66.321274
 20
185.940478
 30
0.0
 10
68.115877
 20
186.214547
 30
0.0
  0
LWPOLYLINE
  5
1f3
100
AcDbEntity
  8
Layer_1
 62
7
100
AcDbPolyline
 90
3
 70
0
 10
52.169218
 20
182.127286
 30
0.0
 10
52.274501
 20
181.730965
 30
0.0
 10
52.820203
 20
182.098074
 30
0.0
  0
SPLINE
  5
1f4
100
AcDbEntity
  8
Layer_1
 62
7
100
AcDbSpline
 70
8
 71
3
 72
8
 73
4
 74
0
 40
0
 40
0
 40
0
 40
0
 40
1
 40
1
 40
1
 40
1
 10
66.874540
 20
187.983951
 30
0.0
 10
64.307494
 20
190.367032
 30
0.0
 10
57.128503
 20
197.471068
 30
0.0
 10
57.128503
 20
197.628012
 30
0.0
  0
SPLINE
  5
1f5
100
AcDbEntity
  8
Layer_1
 62
7
100
AcDbSpline
 70
8
 71
3
 72
8
 73
4
 74
0
 40
0
 40
0
 40
0
 40
0
 40
1
 40
1
 40
1
 40
1
 10
57.128503
 20
197.628012
 30
0.0
 10
57.128503
 20
197.700120
 30
0.0
 10
57.747908
 20
198.217083
 30
0.0
 10
58.504887
 20
198.776744
 30
0.0
  0
SPLINE
  5
1f6
100
AcDbEntity
  8
Layer_1
 62
7
100
AcDbSpline
 70
8
 71
3
 72
8
 73
4
 74
0
 40
0
 40
0
 40
0
 40
0
 40
1
 40
1
 40
1
 40
1
 10
58.504887
 20
198.776744
 30
0.0
 10
60.265558
 20
200.078482
 30
0.0
 10
62.583492
 20
202.370494
 30
0.0
 10
63.422279
 20
203.639015
 30
0.0
  0
SPLINE
  5
1f7
100
AcDbEntity
  8
Layer_1
 62
7
100
AcDbSpline
 70
8
 71
3
 72
8
 73
4
 74
0
 40
0
 40
0
 40
0
 40
0
 40
1
 40
1
 40
1
 40
1
 10
63.422279
 20
203.639015
 30
0.0
 10
64.772639
 20
205.681172
 30
0.0
 10
65.271551
 20
207.183890
 30
0.0
 10
65.263339
 20
209.185895
 30
0.0
  0
SPLINE
  5
1f8
100
AcDbEntity
  8
Layer_1
 62
7
100
AcDbSpline
 70
8
 71
3
 72
8
 73
4
 74
0
 40
0
 40
0
 40
0
 40
0
 40
1
 40
1
 40
1
 40
1
 10
65.263339
 20
209.185895
 30
0.0
 10
65.258851
 20
210.292181
 30
0.0
 10
65.215629
 20
210.611529
 30
0.0
 10
64.966785
 20
211.372014
 30
0.0
  0
SPLINE
  5
1f9
100
AcDbEntity
  8
Layer_1
 62
7
100
AcDbSpline
 70
8
 71
3
 72
8
 73
4
 74
0
 40
0
 40
0
 40
0
 40
0
 40
1
 40
1
 40
1
 40
1
 10
64.966785
 20
211.372014
 30
0.0
 10
64.181840
 20
213.770852
 30
0.0
 10
61.517242
 20
216.412624
 30
0.0
 10
59.395100
 20
216.896294
 30
0.0
  0
SPLINE
  5
1fa
100
AcDbEntity
  8
Layer_1
 62
7
100
AcDbSpline
 70
8
 71
3
 72
8
 73
4
 74
0
 40
0
 40
0
 40
0
 40
0
 40
1
 40
1
 40
1
 40
1
 10
59.395100
 20
216.896294
 30
0.0
 10
59.034189
 20
216.978550
 30
0.0
 10
58.447271
 20
217.013086
 30
0.0
 10
57.858863
 20
217.003781
 30
0.0
  0
LWPOLYLINE
  5
1fb
100
AcDbEntity
  8
Layer_1
 62
7
100
AcDbPolyline
 90
3
 70
0
 10
68.115877
 20
186.214547
 30
0.0
 10
68.686937
 20
186.301641
 30
0.0
 10
66.874540
 20
187.983951
 30
0.0
  0
SPLINE
  5
1fc
100
AcDbEntity
  8
Layer_1
 62
7
100
AcDbSpline
 70
8
 71
3
 72
8
 73
4
 74
0
 40
0
 40
0
 40
0
 40
0
 40
1
 40
1
 40
1
 40
1
 10
143.954280
 20
213.067551
 30
0.0
 10
144.001439
 20
213.066140
 30
0.0
 10
144.065140
 20
213.024961
 30
0.0
 10
144.147204
 20
212.950694
 30
0.0
  0
SPLINE
  5
1fd
100
AcDbEntity
  8
Layer_1
 62
7
100
AcDbSpline
 70
8
 71
3
 72
8
 73
4
 74
0
 40
0
 40
0
 40
0
 40
0
 40
1
 40
1
 40
1
 40
1
 10
144.147204
 20
212.950694
 30
0.0
 10
144.730222
 20
212.423069
 30
0.0
 10
147.112696
 20
209.045690
 30
0.0
 10
148.097215
 20
207.350898
 30
0.0
  0
SPLINE
  5
1fe
100
AcDbEntity
  8
Layer_1
 62
7
100
AcDbSpline
 70
8
 71
3
 72
8
 73
4
 74
0
 40
0
 40
0
 40
0
 40
0
 40
1
 40
1
 40
1
 40
1
 10
148.097215
 20
207.350898
 30
0.0
 10
149.069115
 20
205.677816
 30
0.0
 10
150.177500
 20
203.231799
 30
0.0
 10
150.177500
 20
202.760378
 30
0.0
  0
SPLINE
  5
1ff
100
AcDbEntity
  8
Layer_1
 62
7
100
AcDbSpline
 70
8
 71
3
 72
8
 73
4
 74
0
 40
0
 40
0
 40
0
 40
0
 40
1
 40
1
 40
1
 40
1
 10
150.177500
 20
202.760378
 30
0.0
 10
150.177500
 20
202.506751
 30
0.0
 10
150.036454
 20
202.498908
 30
0.0
 10
149.529823
 20
202.723447
 30
0.0
  0
SPLINE
  5
200
100
AcDbEntity
  8
Layer_1
 62
7
100
AcDbSpline
 70
8
 71
3
 72
8
 73
4
 74
0
 40
0
 40
0
 40
0
 40
0
 40
1
 40
1
 40
1
 40
1
 10
149.529823
 20
202.723447
 30
0.0
 10
147.585611
 20
203.585110
 30
0.0
 10
145.688643
 20
204.166528
 30
0.0
 10
144.822443
 20
204.166528
 30
0.0
  0
LWPOLYLINE
  5
201
100
AcDbEntity
  8
Layer_1
 62
7
100
AcDbPolyline
 90
2
 70
0
 10
57.858863
 20
217.003781
 30
0.0
 10
57.858863
 20
217.003781
 30
0.0
  0
SPLINE
  5
202
100
AcDbEntity
  8
Layer_1
 62
7
100
AcDbSpline
 70
8
 71
3
 72
8
 73
4
 74
0
 40
0
 40
0
 40
0
 40
0
 40
1
 40
1
 40
1
 40
1
 10
144.347297
 20
205.921047
 30
0.0
 10
144.346168
 20
207.998646
 30
0.0
 10
144.189554
 20
210.396911
 30
0.0
 10
143.959792
 20
211.856533
 30
0.0
  0
SPLINE
  5
203
100
AcDbEntity
  8
Layer_1
 62
7
100
AcDbSpline
 70
8
 71
3
 72
8
 73
4
 74
0
 40
0
 40
0
 40
0
 40
0
 40
1
 40
1
 40
1
 40
1
 10
143.959792
 20
211.856533
 30
0.0
 10
143.823682
 20
212.721228
 30
0.0
 10
143.812788
 20
213.071740
 30
0.0
 10
143.954280
 20
213.067551
 30
0.0
  0
LWPOLYLINE
  5
204
100
AcDbEntity
  8
Layer_1
 62
7
100
AcDbPolyline
 90
3
 70
0
 10
144.822443
 20
204.166528
 30
0.0
 10
144.348398
 20
204.166528
 30
0.0
 10
144.347297
 20
205.921047
 30
0.0
  0
SPLINE
  5
205
100
AcDbEntity
  8
Layer_1
 62
7
100
AcDbSpline
 70
8
 71
3
 72
8
 73
4
 74
0
 40
0
 40
0
 40
0
 40
0
 40
1
 40
1
 40
1
 40
1
 10
56.312703
 20
213.031723
 30
0.0
 10
57.093115
 20
213.042843
 30
0.0
 10
57.715940
 20
212.787237
 30
0.0
 10
58.221564
 20
212.266085
 30
0.0
  0
SPLINE
  5
206
100
AcDbEntity
  8
Layer_1
 62
7
100
AcDbSpline
 70
8
 71
3
 72
8
 73
4
 74
0
 40
0
 40
0
 40
0
 40
0
 40
1
 40
1
 40
1
 40
1
 10
58.221564
 20
212.266085
 30
0.0
 10
58.805400
 20
211.664295
 30
0.0
 10
59.008306
 20
211.134067
 30
0.0
 10
59.235797
 20
209.618598
 30
0.0
  0
SPLINE
  5
207
100
AcDbEntity
  8
Layer_1
 62
7
100
AcDbSpline
 70
8
 71
3
 72
8
 73
4
 74
0
 40
0
 40
0
 40
0
 40
0
 40
1
 40
1
 40
1
 40
1
 10
59.235797
 20
209.618598
 30
0.0
 10
59.658117
 20
206.805387
 30
0.0
 10
59.179107
 20
204.979048
 30
0.0
 10
57.572783
 20
203.275764
 30
0.0
  0
SPLINE
  5
208
100
AcDbEntity
  8
Layer_1
 62
7
100
AcDbSpline
 70
8
 71
3
 72
8
 73
4
 74
0
 40
0
 40
0
 40
0
 40
0
 40
1
 40
1
 40
1
 40
1
 10
57.572783
 20
203.275764
 30
0.0
 10
56.461925
 20
202.097853
 30
0.0
 10
55.097626
 20
201.290483
 30
0.0
 10
53.032973
 20
200.589691
 30
0.0
  0
SPLINE
  5
209
100
AcDbEntity
  8
Layer_1
 62
7
100
AcDbSpline
 70
8
 71
3
 72
8
 73
4
 74
0
 40
0
 40
0
 40
0
 40
0
 40
1
 40
1
 40
1
 40
1
 10
53.032973
 20
200.589691
 30
0.0
 10
52.532034
 20
200.419661
 30
0.0
 10
52.082020
 20
200.280460
 30
0.0
 10
52.032518
 20
200.280460
 30
0.0
  0
SPLINE
  5
20a
100
AcDbEntity
  8
Layer_1
 62
7
100
AcDbSpline
 70
8
 71
3
 72
8
 73
4
 74
0
 40
0
 40
0
 40
0
 40
0
 40
1
 40
1
 40
1
 40
1
 10
52.032518
 20
200.280460
 30
0.0
 10
51.862561
 20
200.280460
 30
0.0
 10
51.744527
 20
200.768372
 30
0.0
 10
51.628477
 20
201.953951
 30
0.0
  0
SPLINE
  5
20b
100
AcDbEntity
  8
Layer_1
 62
7
100
AcDbSpline
 70
8
 71
3
 72
8
 73
4
 74
0
 40
0
 40
0
 40
0
 40
0
 40
1
 40
1
 40
1
 40
1
 10
51.628477
 20
201.953951
 30
0.0
 10
51.285408
 20
205.458592
 30
0.0
 10
51.219594
 20
207.720273
 30
0.0
 10
51.411849
 20
209.401970
 30
0.0
  0
SPLINE
  5
20c
100
AcDbEntity
  8
Layer_1
 62
7
100
AcDbSpline
 70
8
 71
3
 72
8
 73
4
 74
0
 40
0
 40
0
 40
0
 40
0
 40
1
 40
1
 40
1
 40
1
 10
51.411849
 20
209.401970
 30
0.0
 10
51.622709
 20
211.246504
 30
0.0
 10
51.703743
 20
211.357344
 30
0.0
 10
53.457960
 20
212.198284
 30
0.0
  0
SPLINE
  5
20d
100
AcDbEntity
  8
Layer_1
 62
7
100
AcDbSpline
 70
8
 71
3
 72
8
 73
4
 74
0
 40
0
 40
0
 40
0
 40
0
 40
1
 40
1
 40
1
 40
1
 10
53.457960
 20
212.198284
 30
0.0
 10
54.593879
 20
212.742826
 30
0.0
 10
55.532291
 20
213.020604
 30
0.0
 10
56.312703
 20
213.031723
 30
0.0
  0
LWPOLYLINE
  5
20e
100
AcDbEntity
  8
Layer_1
 62
7
100
AcDbPolyline
 90
2
 70
0
 10
143.954280
 20
213.067551
 30
0.0
 10
143.954280
 20
213.067551
 30
0.0
  0
SPLINE
  5
20f
100
AcDbEntity
  8
Layer_1
 62
7
100
AcDbSpline
 70
8
 71
3
 72
8
 73
4
 74
0
 40
0
 40
0
 40
0
 40
0
 40
1
 40
1
 40
1
 40
1
 10
82.024691
 20
191.504010
 30
0.0
 10
81.977332
 20
191.551358
 30
0.0
 10
80.461680
 20
189.441109
 30
0.0
 10
80.368290
 20
189.197726
 30
0.0
  0
SPLINE
  5
210
100
AcDbEntity
  8
Layer_1
 62
7
100
AcDbSpline
 70
8
 71
3
 72
8
 73
4
 74
0
 40
0
 40
0
 40
0
 40
0
 40
1
 40
1
 40
1
 40
1
 10
80.368290
 20
189.197726
 30
0.0
 10
80.338055
 20
189.118936
 30
0.0
 10
80.366032
 20
189.054411
 30
0.0
 10
80.430026
 20
189.054408
 30
0.0
  0
SPLINE
  5
211
100
AcDbEntity
  8
Layer_1
 62
7
100
AcDbSpline
 70
8
 71
3
 72
8
 73
4
 74
0
 40
0
 40
0
 40
0
 40
0
 40
1
 40
1
 40
1
 40
1
 10
80.430026
 20
189.054408
 30
0.0
 10
80.645841
 20
189.054408
 30
0.0
 10
82.224866
 20
189.410934
 30
0.0
 10
82.302505
 20
189.477191
 30
0.0
  0
SPLINE
  5
212
100
AcDbEntity
  8
Layer_1
 62
7
100
AcDbSpline
 70
8
 71
3
 72
8
 73
4
 74
0
 40
0
 40
0
 40
0
 40
0
 40
1
 40
1
 40
1
 40
1
 10
82.302505
 20
189.477191
 30
0.0
 10
82.375412
 20
189.539416
 30
0.0
 10
82.119075
 20
191.409623
 30
0.0
 10
82.024691
 20
191.504010
 30
0.0
  0
LWPOLYLINE
  5
213
100
AcDbEntity
  8
Layer_1
 62
7
100
AcDbPolyline
 90
2
 70
0
 10
56.312703
 20
213.031723
 30
0.0
 10
56.312703
 20
213.031723
 30
0.0
  0
SPLINE
  5
214
100
AcDbEntity
  8
Layer_1
 62
7
100
AcDbSpline
 70
8
 71
3
 72
8
 73
4
 74
0
 40
0
 40
0
 40
0
 40
0
 40
1
 40
1
 40
1
 40
1
 10
99.720355
 20
170.898480
 30
0.0
 10
97.557418
 20
170.906947
 30
0.0
 10
95.708992
 20
170.664885
 30
0.0
 10
94.086937
 20
170.170327
 30
0.0
  0
SPLINE
  5
215
100
AcDbEntity
  8
Layer_1
 62
7
100
AcDbSpline
 70
8
 71
3
 72
8
 73
4
 74
0
 40
0
 40
0
 40
0
 40
0
 40
1
 40
1
 40
1
 40
1
 10
94.086937
 20
170.170327
 30
0.0
 10
93.069658
 20
169.860159
 30
0.0
 10
91.703025
 20
169.306876
 30
0.0
 10
91.575599
 20
169.153333
 30
0.0
  0
SPLINE
  5
216
100
AcDbEntity
  8
Layer_1
 62
7
100
AcDbSpline
 70
8
 71
3
 72
8
 73
4
 74
0
 40
0
 40
0
 40
0
 40
0
 40
1
 40
1
 40
1
 40
1
 10
91.575599
 20
169.153333
 30
0.0
 10
91.505896
 20
169.069352
 30
0.0
 10
91.740996
 20
167.267313
 30
0.0
 10
92.275090
 20
163.793315
 30
0.0
  0
SPLINE
  5
217
100
AcDbEntity
  8
Layer_1
 62
7
100
AcDbSpline
 70
8
 71
3
 72
8
 73
4
 74
0
 40
0
 40
0
 40
0
 40
0
 40
1
 40
1
 40
1
 40
1
 10
92.275090
 20
163.793315
 30
0.0
 10
98.111324
 20
125.831297
 30
0.0
 10
102.285780
 20
101.181381
 30
0.0
 10
104.154882
 20
93.644007
 30
0.0
  0
SPLINE
  5
218
100
AcDbEntity
  8
Layer_1
 62
7
100
AcDbSpline
 70
8
 71
3
 72
8
 73
4
 74
0
 40
0
 40
0
 40
0
 40
0
 40
1
 40
1
 40
1
 40
1
 10
104.154882
 20
93.644007
 30
0.0
 10
104.469720
 20
92.374391
 30
0.0
 10
104.512875
 20
92.075128
 30
0.0
 10
104.393007
 20
91.999180
 30
0.0
  0
SPLINE
  5
219
100
AcDbEntity
  8
Layer_1
 62
7
100
AcDbSpline
 70
8
 71
3
 72
8
 73
4
 74
0
 40
0
 40
0
 40
0
 40
0
 40
1
 40
1
 40
1
 40
1
 10
104.393007
 20
91.999180
 30
0.0
 10
104.208120
 20
91.882063
 30
0.0
 10
103.857131
 20
91.879565
 30
0.0
 10
103.676427
 20
91.994218
 30
0.0
  0
SPLINE
  5
21a
100
AcDbEntity
  8
Layer_1
 62
7
100
AcDbSpline
 70
8
 71
3
 72
8
 73
4
 74
0
 40
0
 40
0
 40
0
 40
0
 40
1
 40
1
 40
1
 40
1
 10
103.676427
 20
91.994218
 30
0.0
 10
103.365627
 20
92.191424
 30
0.0
 10
102.190491
 20
97.630831
 30
0.0
 10
100.799635
 20
105.311579
 30
0.0
  0
SPLINE
  5
21b
100
AcDbEntity
  8
Layer_1
 62
7
100
AcDbSpline
 70
8
 71
3
 72
8
 73
4
 74
0
 40
0
 40
0
 40
0
 40
0
 40
1
 40
1
 40
1
 40
1
 10
100.799635
 20
105.311579
 30
0.0
 10
98.298158
 20
119.125705
 30
0.0
 10
93.993939
 20
145.536097
 30
0.0
 10
91.129666
 20
164.644943
 30
0.0
  0
SPLINE
  5
21c
100
AcDbEntity
  8
Layer_1
 62
7
100
AcDbSpline
 70
8
 71
3
 72
8
 73
4
 74
0
 40
0
 40
0
 40
0
 40
0
 40
1
 40
1
 40
1
 40
1
 10
91.129666
 20
164.644943
 30
0.0
 10
90.779256
 20
166.982658
 30
0.0
 10
90.469520
 20
168.918307
 30
0.0
 10
90.441749
 20
168.946075
 30
0.0
  0
SPLINE
  5
21d
100
AcDbEntity
  8
Layer_1
 62
7
100
AcDbSpline
 70
8
 71
3
 72
8
 73
4
 74
0
 40
0
 40
0
 40
0
 40
0
 40
1
 40
1
 40
1
 40
1
 10
90.441749
 20
168.946075
 30
0.0
 10
90.325950
 20
169.061879
 30
0.0
 10
88.295520
 20
169.297667
 30
0.0
 10
86.407955
 20
169.414609
 30
0.0
  0
SPLINE
  5
21e
100
AcDbEntity
  8
Layer_1
 62
7
100
AcDbSpline
 70
8
 71
3
 72
8
 73
4
 74
0
 40
0
 40
0
 40
0
 40
0
 40
1
 40
1
 40
1
 40
1
 10
86.407955
 20
169.414609
 30
0.0
 10
83.153287
 20
169.616251
 30
0.0
 10
79.616577
 20
169.401175
 30
0.0
 10
77.562052
 20
168.876623
 30
0.0
  0
SPLINE
  5
21f
100
AcDbEntity
  8
Layer_1
 62
7
100
AcDbSpline
 70
8
 71
3
 72
8
 73
4
 74
0
 40
0
 40
0
 40
0
 40
0
 40
1
 40
1
 40
1
 40
1
 10
77.562052
 20
168.876623
 30
0.0
 10
75.485972
 20
168.346553
 30
0.0
 10
73.212412
 20
167.375012
 30
0.0
 10
73.212412
 20
167.017924
 30
0.0
  0
SPLINE
  5
220
100
AcDbEntity
  8
Layer_1
 62
7
100
AcDbSpline
 70
8
 71
3
 72
8
 73
4
 74
0
 40
0
 40
0
 40
0
 40
0
 40
1
 40
1
 40
1
 40
1
 10
73.212412
 20
167.017924
 30
0.0
 10
73.212412
 20
166.905747
 30
0.0
 10
74.689815
 20
162.358176
 30
0.0
 10
76.495453
 20
156.911944
 30
0.0
  0
SPLINE
  5
221
100
AcDbEntity
  8
Layer_1
 62
7
100
AcDbSpline
 70
8
 71
3
 72
8
 73
4
 74
0
 40
0
 40
0
 40
0
 40
0
 40
1
 40
1
 40
1
 40
1
 10
76.495453
 20
156.911944
 30
0.0
 10
78.301099
 20
151.465716
 30
0.0
 10
80.030218
 20
146.161267
 30
0.0
 10
80.337973
 20
145.124758
 30
0.0
  0
SPLINE
  5
222
100
AcDbEntity
  8
Layer_1
 62
7
100
AcDbSpline
 70
8
 71
3
 72
8
 73
4
 74
0
 40
0
 40
0
 40
0
 40
0
 40
1
 40
1
 40
1
 40
1
 10
80.337973
 20
145.124758
 30
0.0
 10
82.731810
 20
137.062429
 30
0.0
 10
90.109170
 20
118.192644
 30
0.0
 10
99.482783
 20
96.155895
 30
0.0
  0
SPLINE
  5
223
100
AcDbEntity
  8
Layer_1
 62
7
100
AcDbSpline
 70
8
 71
3
 72
8
 73
4
 74
0
 40
0
 40
0
 40
0
 40
0
 40
1
 40
1
 40
1
 40
1
 10
99.482783
 20
96.155895
 30
0.0
 10
100.470318
 20
93.834284
 30
0.0
 10
101.278089
 20
91.860050
 30
0.0
 10
101.278092
 20
91.768770
 30
0.0
  0
SPLINE
  5
224
100
AcDbEntity
  8
Layer_1
 62
7
100
AcDbSpline
 70
8
 71
3
 72
8
 73
4
 74
0
 40
0
 40
0
 40
0
 40
0
 40
1
 40
1
 40
1
 40
1
 10
101.278092
 20
91.768770
 30
0.0
 10
101.278092
 20
91.583709
 30
0.0
 10
100.820443
 20
91.431046
 30
0.0
 10
100.536155
 20
91.521276
 30
0.0
  0
SPLINE
  5
225
100
AcDbEntity
  8
Layer_1
 62
7
100
AcDbSpline
 70
8
 71
3
 72
8
 73
4
 74
0
 40
0
 40
0
 40
0
 40
0
 40
1
 40
1
 40
1
 40
1
 10
100.536155
 20
91.521276
 30
0.0
 10
100.418652
 20
91.558571
 30
0.0
 10
100.024257
 20
92.350532
 30
0.0
 10
99.446402
 20
93.711255
 30
0.0
  0
SPLINE
  5
226
100
AcDbEntity
  8
Layer_1
 62
7
100
AcDbSpline
 70
8
 71
3
 72
8
 73
4
 74
0
 40
0
 40
0
 40
0
 40
0
 40
1
 40
1
 40
1
 40
1
 10
99.446402
 20
93.711255
 30
0.0
 10
89.274102
 20
117.664926
 30
0.0
 10
82.090610
 20
135.943415
 30
0.0
 10
79.560759
 20
144.308958
 30
0.0
  0
SPLINE
  5
227
100
AcDbEntity
  8
Layer_1
 62
7
100
AcDbSpline
 70
8
 71
3
 72
8
 73
4
 74
0
 40
0
 40
0
 40
0
 40
0
 40
1
 40
1
 40
1
 40
1
 10
79.560759
 20
144.308958
 30
0.0
 10
78.997344
 20
146.171978
 30
0.0
 10
72.507427
 20
165.978150
 30
0.0
 10
72.224084
 20
166.699324
 30
0.0
  0
LWPOLYLINE
  5
228
100
AcDbEntity
  8
Layer_1
 62
7
100
AcDbPolyline
 90
2
 70
0
 10
82.024691
 20
191.504010
 30
0.0
 10
82.024691
 20
191.504010
 30
0.0
  0
SPLINE
  5
229
100
AcDbEntity
  8
Layer_1
 62
7
100
AcDbSpline
 70
8
 71
3
 72
8
 73
4
 74
0
 40
0
 40
0
 40
0
 40
0
 40
1
 40
1
 40
1
 40
1
 10
69.617387
 20
166.890594
 30
0.0
 10
66.559390
 20
166.806517
 30
0.0
 10
64.356601
 20
166.644211
 30
0.0
 10
63.281168
 20
166.424267
 30
0.0
  0
SPLINE
  5
22a
100
AcDbEntity
  8
Layer_1
 62
7
100
AcDbSpline
 70
8
 71
3
 72
8
 73
4
 74
0
 40
0
 40
0
 40
0
 40
0
 40
1
 40
1
 40
1
 40
1
 10
63.281168
 20
166.424267
 30
0.0
 10
62.354627
 20
166.234775
 30
0.0
 10
60.805238
 20
165.661587
 30
0.0
 10
60.095694
 20
165.245769
 30
0.0
  0
SPLINE
  5
22b
100
AcDbEntity
  8
Layer_1
 62
7
100
AcDbSpline
 70
8
 71
3
 72
8
 73
4
 74
0
 40
0
 40
0
 40
0
 40
0
 40
1
 40
1
 40
1
 40
1
 10
60.095694
 20
165.245769
 30
0.0
 10
59.544763
 20
164.922904
 30
0.0
 10
58.576890
 20
164.081591
 30
0.0
 10
58.420550
 20
163.789457
 30
0.0
  0
SPLINE
  5
22c
100
AcDbEntity
  8
Layer_1
 62
7
100
AcDbSpline
 70
8
 71
3
 72
8
 73
4
 74
0
 40
0
 40
0
 40
0
 40
0
 40
1
 40
1
 40
1
 40
1
 10
58.420550
 20
163.789457
 30
0.0
 10
58.272561
 20
163.512925
 30
0.0
 10
59.173406
 20
161.006856
 30
0.0
 10
60.766523
 20
157.264172
 30
0.0
  0
SPLINE
  5
22d
100
AcDbEntity
  8
Layer_1
 62
7
100
AcDbSpline
 70
8
 71
3
 72
8
 73
4
 74
0
 40
0
 40
0
 40
0
 40
0
 40
1
 40
1
 40
1
 40
1
 10
60.766523
 20
157.264172
 30
0.0
 10
63.776451
 20
150.193021
 30
0.0
 10
71.031902
 20
135.846373
 30
0.0
 10
76.041800
 20
127.058125
 30
0.0
  0
SPLINE
  5
22e
100
AcDbEntity
  8
Layer_1
 62
7
100
AcDbSpline
 70
8
 71
3
 72
8
 73
4
 74
0
 40
0
 40
0
 40
0
 40
0
 40
1
 40
1
 40
1
 40
1
 10
76.041800
 20
127.058125
 30
0.0
 10
77.717842
 20
124.118050
 30
0.0
 10
79.237578
 20
121.636676
 30
0.0
 10
83.547701
 20
114.805159
 30
0.0
  0
SPLINE
  5
22f
100
AcDbEntity
  8
Layer_1
 62
7
100
AcDbSpline
 70
8
 71
3
 72
8
 73
4
 74
0
 40
0
 40
0
 40
0
 40
0
 40
1
 40
1
 40
1
 40
1
 10
83.547701
 20
114.805159
 30
0.0
 10
91.475495
 20
102.239672
 30
0.0
 10
98.192274
 20
91.311353
 30
0.0
 10
98.113562
 20
91.106211
 30
0.0
  0
SPLINE
  5
230
100
AcDbEntity
  8
Layer_1
 62
7
100
AcDbSpline
 70
8
 71
3
 72
8
 73
4
 74
0
 40
0
 40
0
 40
0
 40
0
 40
1
 40
1
 40
1
 40
1
 10
98.113562
 20
91.106211
 30
0.0
 10
98.057603
 20
90.960387
 30
0.0
 10
97.435825
 20
90.783970
 30
0.0
 10
97.291703
 20
90.873048
 30
0.0
  0
SPLINE
  5
231
100
AcDbEntity
  8
Layer_1
 62
7
100
AcDbSpline
 70
8
 71
3
 72
8
 73
4
 74
0
 40
0
 40
0
 40
0
 40
0
 40
1
 40
1
 40
1
 40
1
 10
97.291703
 20
90.873048
 30
0.0
 10
97.248571
 20
90.899690
 30
0.0
 10
97.041005
 20
91.203042
 30
0.0
 10
96.830885
 20
91.547184
 30
0.0
  0
SPLINE
  5
232
100
AcDbEntity
  8
Layer_1
 62
7
100
AcDbSpline
 70
8
 71
3
 72
8
 73
4
 74
0
 40
0
 40
0
 40
0
 40
0
 40
1
 40
1
 40
1
 40
1
 10
96.830885
 20
91.547184
 30
0.0
 10
90.882941
 20
101.289252
 30
0.0
 10
82.922866
 20
114.054011
 30
0.0
 10
80.385928
 20
117.917873
 30
0.0
  0
SPLINE
  5
233
100
AcDbEntity
  8
Layer_1
 62
7
100
AcDbSpline
 70
8
 71
3
 72
8
 73
4
 74
0
 40
0
 40
0
 40
0
 40
0
 40
1
 40
1
 40
1
 40
1
 10
80.385928
 20
117.917873
 30
0.0
 10
78.674239
 20
120.524858
 30
0.0
 10
75.005455
 20
126.799276
 30
0.0
 10
72.590643
 20
131.249565
 30
0.0
  0
SPLINE
  5
234
100
AcDbEntity
  8
Layer_1
 62
7
100
AcDbSpline
 70
8
 71
3
 72
8
 73
4
 74
0
 40
0
 40
0
 40
0
 40
0
 40
1
 40
1
 40
1
 40
1
 10
72.590643
 20
131.249565
 30
0.0
 10
66.282663
 20
142.874637
 30
0.0
 10
60.423498
 20
154.995537
 30
0.0
 10
58.266762
 20
160.880694
 30
0.0
  0
SPLINE
  5
235
100
AcDbEntity
  8
Layer_1
 62
7
100
AcDbSpline
 70
8
 71
3
 72
8
 73
4
 74
0
 40
0
 40
0
 40
0
 40
0
 40
1
 40
1
 40
1
 40
1
 10
58.266762
 20
160.880694
 30
0.0
 10
57.324360
 20
163.452224
 30
0.0
 10
57.441674
 20
163.262749
 30
0.0
 10
56.834154
 20
163.189735
 30
0.0
  0
SPLINE
  5
236
100
AcDbEntity
  8
Layer_1
 62
7
100
AcDbSpline
 70
8
 71
3
 72
8
 73
4
 74
0
 40
0
 40
0
 40
0
 40
0
 40
1
 40
1
 40
1
 40
1
 10
56.834154
 20
163.189735
 30
0.0
 10
54.706235
 20
162.933988
 30
0.0
 10
51.650463
 20
162.457696
 30
0.0
 10
50.996232
 20
162.279678
 30
0.0
  0
SPLINE
  5
237
100
AcDbEntity
  8
Layer_1
 62
7
100
AcDbSpline
 70
8
 71
3
 72
8
 73
4
 74
0
 40
0
 40
0
 40
0
 40
0
 40
1
 40
1
 40
1
 40
1
 10
50.996232
 20
162.279678
 30
0.0
 10
49.640834
 20
161.910876
 30
0.0
 10
48.648386
 20
161.300853
 30
0.0
 10
48.390088
 20
160.677297
 30
0.0
  0
SPLINE
  5
238
100
AcDbEntity
  8
Layer_1
 62
7
100
AcDbSpline
 70
8
 71
3
 72
8
 73
4
 74
0
 40
0
 40
0
 40
0
 40
0
 40
1
 40
1
 40
1
 40
1
 10
48.390088
 20
160.677297
 30
0.0
 10
48.267078
 20
160.380306
 30
0.0
 10
48.330939
 20
160.218006
 30
0.0
 10
49.468814
 20
157.949331
 30
0.0
  0
SPLINE
  5
239
100
AcDbEntity
  8
Layer_1
 62
7
100
AcDbSpline
 70
8
 71
3
 72
8
 73
4
 74
0
 40
0
 40
0
 40
0
 40
0
 40
1
 40
1
 40
1
 40
1
 10
49.468814
 20
157.949331
 30
0.0
 10
53.170895
 20
150.568105
 30
0.0
 10
56.774867
 20
144.283005
 30
0.0
 10
60.689355
 20
138.381741
 30
0.0
  0
SPLINE
  5
23a
100
AcDbEntity
  8
Layer_1
 62
7
100
AcDbSpline
 70
8
 71
3
 72
8
 73
4
 74
0
 40
0
 40
0
 40
0
 40
0
 40
1
 40
1
 40
1
 40
1
 10
60.689355
 20
138.381741
 30
0.0
 10
63.808816
 20
133.679022
 30
0.0
 10
66.591208
 20
129.868119
 30
0.0
 10
73.855682
 20
120.347078
 30
0.0
  0
SPLINE
  5
23b
100
AcDbEntity
  8
Layer_1
 62
7
100
AcDbSpline
 70
8
 71
3
 72
8
 73
4
 74
0
 40
0
 40
0
 40
0
 40
0
 40
1
 40
1
 40
1
 40
1
 10
73.855682
 20
120.347078
 30
0.0
 10
83.531685
 20
107.665408
 30
0.0
 10
95.773105
 20
91.032980
 30
0.0
 10
95.773105
 20
90.567675
 30
0.0
  0
SPLINE
  5
23c
100
AcDbEntity
  8
Layer_1
 62
7
100
AcDbSpline
 70
8
 71
3
 72
8
 73
4
 74
0
 40
0
 40
0
 40
0
 40
0
 40
1
 40
1
 40
1
 40
1
 10
95.773105
 20
90.567675
 30
0.0
 10
95.773105
 20
90.385258
 30
0.0
 10
95.379289
 20
90.239961
 30
0.0
 10
95.054318
 20
90.302539
 30
0.0
  0
SPLINE
  5
23d
100
AcDbEntity
  8
Layer_1
 62
7
100
AcDbSpline
 70
8
 71
3
 72
8
 73
4
 74
0
 40
0
 40
0
 40
0
 40
0
 40
1
 40
1
 40
1
 40
1
 10
95.054318
 20
90.302539
 30
0.0
 10
94.942829
 20
90.324016
 30
0.0
 10
93.821902
 20
91.780116
 30
0.0
 10
92.450378
 20
93.685347
 30
0.0
  0
SPLINE
  5
23e
100
AcDbEntity
  8
Layer_1
 62
7
100
AcDbSpline
 70
8
 71
3
 72
8
 73
4
 74
0
 40
0
 40
0
 40
0
 40
0
 40
1
 40
1
 40
1
 40
1
 10
92.450378
 20
93.685347
 30
0.0
 10
86.454048
 20
102.015097
 30
0.0
 10
80.929220
 20
109.458773
 30
0.0
 10
74.023251
 20
118.511533
 30
0.0
  0
SPLINE
  5
23f
100
AcDbEntity
  8
Layer_1
 62
7
100
AcDbSpline
 70
8
 71
3
 72
8
 73
4
 74
0
 40
0
 40
0
 40
0
 40
0
 40
1
 40
1
 40
1
 40
1
 10
74.023251
 20
118.511533
 30
0.0
 10
66.490334
 20
128.386136
 30
0.0
 10
63.196789
 20
132.864822
 30
0.0
 10
60.376813
 20
137.068745
 30
0.0
  0
SPLINE
  5
240
100
AcDbEntity
  8
Layer_1
 62
7
100
AcDbSpline
 70
8
 71
3
 72
8
 73
4
 74
0
 40
0
 40
0
 40
0
 40
0
 40
1
 40
1
 40
1
 40
1
 10
60.376813
 20
137.068745
 30
0.0
 10
56.325349
 20
143.108523
 30
0.0
 10
52.606403
 20
149.552278
 30
0.0
 10
48.519622
 20
157.613642
 30
0.0
  0
SPLINE
  5
241
100
AcDbEntity
  8
Layer_1
 62
7
100
AcDbSpline
 70
8
 71
3
 72
8
 73
4
 74
0
 40
0
 40
0
 40
0
 40
0
 40
1
 40
1
 40
1
 40
1
 10
48.519622
 20
157.613642
 30
0.0
 10
47.940680
 20
158.755663
 30
0.0
 10
47.404319
 20
159.690877
 30
0.0
 10
47.327343
 20
159.691723
 30
0.0
  0
SPLINE
  5
242
100
AcDbEntity
  8
Layer_1
 62
7
100
AcDbSpline
 70
8
 71
3
 72
8
 73
4
 74
0
 40
0
 40
0
 40
0
 40
0
 40
1
 40
1
 40
1
 40
1
 10
47.327343
 20
159.691723
 30
0.0
 10
47.082318
 20
159.694545
 30
0.0
 10
44.942139
 20
158.751523
 30
0.0
 10
44.392122
 20
158.398573
 30
0.0
  0
SPLINE
  5
243
100
AcDbEntity
  8
Layer_1
 62
7
100
AcDbSpline
 70
8
 71
3
 72
8
 73
4
 74
0
 40
0
 40
0
 40
0
 40
0
 40
1
 40
1
 40
1
 40
1
 10
44.392122
 20
158.398573
 30
0.0
 10
43.385811
 20
157.752828
 30
0.0
 10
42.670767
 20
156.721433
 30
0.0
 10
42.665715
 20
155.907631
 30
0.0
  0
SPLINE
  5
244
100
AcDbEntity
  8
Layer_1
 62
7
100
AcDbSpline
 70
8
 71
3
 72
8
 73
4
 74
0
 40
0
 40
0
 40
0
 40
0
 40
1
 40
1
 40
1
 40
1
 10
42.665715
 20
155.907631
 30
0.0
 10
42.661171
 20
155.170306
 30
0.0
 10
43.003961
 20
154.389324
 30
0.0
 10
44.213529
 20
152.378750
 30
0.0
  0
SPLINE
  5
245
100
AcDbEntity
  8
Layer_1
 62
7
100
AcDbSpline
 70
8
 71
3
 72
8
 73
4
 74
0
 40
0
 40
0
 40
0
 40
0
 40
1
 40
1
 40
1
 40
1
 10
44.213529
 20
152.378750
 30
0.0
 10
52.039949
 20
139.369446
 30
0.0
 10
61.476097
 20
126.715550
 30
0.0
 10
70.498781
 20
117.130188
 30
0.0
  0
SPLINE
  5
246
100
AcDbEntity
  8
Layer_1
 62
7
100
AcDbSpline
 70
8
 71
3
 72
8
 73
4
 74
0
 40
0
 40
0
 40
0
 40
0
 40
1
 40
1
 40
1
 40
1
 10
70.498781
 20
117.130188
 30
0.0
 10
76.583969
 20
110.665490
 30
0.0
 10
83.430265
 20
102.878262
 30
0.0
 10
89.335460
 20
95.705550
 30
0.0
  0
SPLINE
  5
247
100
AcDbEntity
  8
Layer_1
 62
7
100
AcDbSpline
 70
8
 71
3
 72
8
 73
4
 74
0
 40
0
 40
0
 40
0
 40
0
 40
1
 40
1
 40
1
 40
1
 10
89.335460
 20
95.705550
 30
0.0
 10
90.570750
 20
94.205093
 30
0.0
 10
92.091657
 20
92.383902
 30
0.0
 10
92.714961
 20
91.657978
 30
0.0
  0
SPLINE
  5
248
100
AcDbEntity
  8
Layer_1
 62
7
100
AcDbSpline
 70
8
 71
3
 72
8
 73
4
 74
0
 40
0
 40
0
 40
0
 40
0
 40
1
 40
1
 40
1
 40
1
 10
92.714961
 20
91.657978
 30
0.0
 10
94.169837
 20
89.963576
 30
0.0
 10
94.148300
 20
90.005581
 30
0.0
 10
93.674077
 20
89.779437
 30
0.0
  0
SPLINE
  5
249
100
AcDbEntity
  8
Layer_1
 62
7
100
AcDbSpline
 70
8
 71
3
 72
8
 73
4
 74
0
 40
0
 40
0
 40
0
 40
0
 40
1
 40
1
 40
1
 40
1
 10
93.674077
 20
89.779437
 30
0.0
 10
93.312686
 20
89.607092
 30
0.0
 10
93.283930
 20
89.608438
 30
0.0
 10
93.062227
 20
89.806445
 30
0.0
  0
SPLINE
  5
24a
100
AcDbEntity
  8
Layer_1
 62
7
100
AcDbSpline
 70
8
 71
3
 72
8
 73
4
 74
0
 40
0
 40
0
 40
0
 40
0
 40
1
 40
1
 40
1
 40
1
 10
93.062227
 20
89.806445
 30
0.0
 10
92.741722
 20
90.092706
 30
0.0
 10
91.104367
 20
92.027331
 30
0.0
 10
87.998763
 20
95.789336
 30
0.0
  0
SPLINE
  5
24b
100
AcDbEntity
  8
Layer_1
 62
7
100
AcDbSpline
 70
8
 71
3
 72
8
 73
4
 74
0
 40
0
 40
0
 40
0
 40
0
 40
1
 40
1
 40
1
 40
1
 10
87.998763
 20
95.789336
 30
0.0
 10
82.833851
 20
102.045893
 30
0.0
 10
75.135864
 20
110.821525
 30
0.0
 10
71.048894
 20
115.111636
 30
0.0
  0
SPLINE
  5
24c
100
AcDbEntity
  8
Layer_1
 62
7
100
AcDbSpline
 70
8
 71
3
 72
8
 73
4
 74
0
 40
0
 40
0
 40
0
 40
0
 40
1
 40
1
 40
1
 40
1
 10
71.048894
 20
115.111636
 30
0.0
 10
64.733782
 20
121.740624
 30
0.0
 10
59.240234
 20
128.449035
 30
0.0
 10
53.193377
 20
136.916610
 30
0.0
  0
SPLINE
  5
24d
100
AcDbEntity
  8
Layer_1
 62
7
100
AcDbSpline
 70
8
 71
3
 72
8
 73
4
 74
0
 40
0
 40
0
 40
0
 40
0
 40
1
 40
1
 40
1
 40
1
 10
53.193377
 20
136.916610
 30
0.0
 10
49.957375
 20
141.448052
 30
0.0
 10
45.745567
 20
147.877670
 30
0.0
 10
43.098971
 20
152.325833
 30
0.0
  0
SPLINE
  5
24e
100
AcDbEntity
  8
Layer_1
 62
7
100
AcDbSpline
 70
8
 71
3
 72
8
 73
4
 74
0
 40
0
 40
0
 40
0
 40
0
 40
1
 40
1
 40
1
 40
1
 10
43.098971
 20
152.325833
 30
0.0
 10
42.666251
 20
153.053117
 30
0.0
 10
42.254856
 20
153.648200
 30
0.0
 10
42.185057
 20
153.648200
 30
0.0
  0
SPLINE
  5
24f
100
AcDbEntity
  8
Layer_1
 62
7
100
AcDbSpline
 70
8
 71
3
 72
8
 73
4
 74
0
 40
0
 40
0
 40
0
 40
0
 40
1
 40
1
 40
1
 40
1
 10
42.185057
 20
153.648200
 30
0.0
 10
42.115277
 20
153.648200
 30
0.0
 10
41.841206
 20
153.510484
 30
0.0
 10
41.575965
 20
153.342274
 30
0.0
  0
SPLINE
  5
250
100
AcDbEntity
  8
Layer_1
 62
7
100
AcDbSpline
 70
8
 71
3
 72
8
 73
4
 74
0
 40
0
 40
0
 40
0
 40
0
 40
1
 40
1
 40
1
 40
1
 10
41.575965
 20
153.342274
 30
0.0
 10
41.063096
 20
153.017015
 30
0.0
 10
40.396914
 20
151.965427
 30
0.0
 10
40.396914
 20
151.481371
 30
0.0
  0
SPLINE
  5
251
100
AcDbEntity
  8
Layer_1
 62
7
100
AcDbSpline
 70
8
 71
3
 72
8
 73
4
 74
0
 40
0
 40
0
 40
0
 40
0
 40
1
 40
1
 40
1
 40
1
 10
40.396914
 20
151.481371
 30
0.0
 10
40.396914
 20
151.094354
 30
0.0
 10
43.990506
 20
144.854745
 30
0.0
 10
47.224267
 20
139.626937
 30
0.0
  0
SPLINE
  5
252
100
AcDbEntity
  8
Layer_1
 62
7
100
AcDbSpline
 70
8
 71
3
 72
8
 73
4
 74
0
 40
0
 40
0
 40
0
 40
0
 40
1
 40
1
 40
1
 40
1
 10
47.224267
 20
139.626937
 30
0.0
 10
48.944132
 20
136.846546
 30
0.0
 10
52.644774
 20
132.191064
 30
0.0
 10
59.332261
 20
124.394653
 30
0.0
  0
SPLINE
  5
253
100
AcDbEntity
  8
Layer_1
 62
7
100
AcDbSpline
 70
8
 71
3
 72
8
 73
4
 74
0
 40
0
 40
0
 40
0
 40
0
 40
1
 40
1
 40
1
 40
1
 10
59.332261
 20
124.394653
 30
0.0
 10
64.515636
 20
118.351787
 30
0.0
 10
65.018138
 20
117.815206
 30
0.0
 10
86.189673
 20
95.714370
 30
0.0
  0
LWPOLYLINE
  5
254
100
AcDbEntity
  8
Layer_1
 62
7
100
AcDbPolyline
 90
3
 70
0
 10
72.224084
 20
166.699324
 30
0.0
 10
72.122109
 20
166.959496
 30
0.0
 10
69.617387
 20
166.890594
 30
0.0
  0
SPLINE
  5
255
100
AcDbEntity
  8
Layer_1
 62
7
100
AcDbSpline
 70
8
 71
3
 72
8
 73
4
 74
0
 40
0
 40
0
 40
0
 40
0
 40
1
 40
1
 40
1
 40
1
 10
93.238063
 20
87.473151
 30
0.0
 10
94.000393
 20
85.950457
 30
0.0
 10
94.197130
 20
85.635952
 30
0.0
 10
94.348213
 20
85.696034
 30
0.0
  0
SPLINE
  5
256
100
AcDbEntity
  8
Layer_1
 62
7
100
AcDbSpline
 70
8
 71
3
 72
8
 73
4
 74
0
 40
0
 40
0
 40
0
 40
0
 40
1
 40
1
 40
1
 40
1
 10
94.348213
 20
85.696034
 30
0.0
 10
95.734271
 20
86.247248
 30
0.0
 10
98.186613
 20
86.809646
 30
0.0
 10
100.198812
 20
87.037690
 30
0.0
  0
SPLINE
  5
257
100
AcDbEntity
  8
Layer_1
 62
7
100
AcDbSpline
 70
8
 71
3
 72
8
 73
4
 74
0
 40
0
 40
0
 40
0
 40
0
 40
1
 40
1
 40
1
 40
1
 10
100.198812
 20
87.037690
 30
0.0
 10
105.294794
 20
87.615202
 30
0.0
 10
113.897215
 20
87.471065
 30
0.0
 10
123.047235
 20
86.654596
 30
0.0
  0
LWPOLYLINE
  5
258
100
AcDbEntity
  8
Layer_1
 62
7
100
AcDbPolyline
 90
3
 70
0
 10
86.189673
 20
95.714370
 30
0.0
 10
92.312022
 20
89.323030
 30
0.0
 10
93.238063
 20
87.473151
 30
0.0
  0
SPLINE
  5
259
100
AcDbEntity
  8
Layer_1
 62
7
100
AcDbSpline
 70
8
 71
3
 72
8
 73
4
 74
0
 40
0
 40
0
 40
0
 40
0
 40
1
 40
1
 40
1
 40
1
 10
124.145808
 20
87.112657
 30
0.0
 10
125.185715
 20
88.799158
 30
0.0
 10
125.941816
 20
89.740645
 30
0.0
 10
127.001103
 20
90.669097
 30
0.0
  0
SPLINE
  5
25a
100
AcDbEntity
  8
Layer_1
 62
7
100
AcDbSpline
 70
8
 71
3
 72
8
 73
4
 74
0
 40
0
 40
0
 40
0
 40
0
 40
1
 40
1
 40
1
 40
1
 10
127.001103
 20
90.669097
 30
0.0
 10
134.148232
 20
96.933448
 30
0.0
 10
144.848721
 20
107.434071
 30
0.0
 10
151.967847
 20
115.168964
 30
0.0
  0
SPLINE
  5
25b
100
AcDbEntity
  8
Layer_1
 62
7
100
AcDbSpline
 70
8
 71
3
 72
8
 73
4
 74
0
 40
0
 40
0
 40
0
 40
0
 40
1
 40
1
 40
1
 40
1
 10
151.967847
 20
115.168964
 30
0.0
 10
163.423902
 20
127.615906
 30
0.0
 10
172.146857
 20
139.111427
 30
0.0
 10
177.640700
 20
149.001453
 30
0.0
  0
SPLINE
  5
25c
100
AcDbEntity
  8
Layer_1
 62
7
100
AcDbSpline
 70
8
 71
3
 72
8
 73
4
 74
0
 40
0
 40
0
 40
0
 40
0
 40
1
 40
1
 40
1
 40
1
 10
177.640700
 20
149.001453
 30
0.0
 10
178.150280
 20
149.918816
 30
0.0
 10
178.567292
 20
150.776431
 30
0.0
 10
178.567292
 20
150.907557
 30
0.0
  0
SPLINE
  5
25d
100
AcDbEntity
  8
Layer_1
 62
7
100
AcDbSpline
 70
8
 71
3
 72
8
 73
4
 74
0
 40
0
 40
0
 40
0
 40
0
 40
1
 40
1
 40
1
 40
1
 10
178.567292
 20
150.907557
 30
0.0
 10
178.567292
 20
151.176252
 30
0.0
 10
177.821138
 20
152.174229
 30
0.0
 10
177.486358
 20
152.353395
 30
0.0
  0
SPLINE
  5
25e
100
AcDbEntity
  8
Layer_1
 62
7
100
AcDbSpline
 70
8
 71
3
 72
8
 73
4
 74
0
 40
0
 40
0
 40
0
 40
0
 40
1
 40
1
 40
1
 40
1
 10
177.486358
 20
152.353395
 30
0.0
 10
177.203422
 20
152.504821
 30
0.0
 10
177.135957
 20
152.456158
 30
0.0
 10
176.780252
 20
151.840214
 30
0.0
  0
SPLINE
  5
25f
100
AcDbEntity
  8
Layer_1
 62
7
100
AcDbSpline
 70
8
 71
3
 72
8
 73
4
 74
0
 40
0
 40
0
 40
0
 40
0
 40
1
 40
1
 40
1
 40
1
 10
176.780252
 20
151.840214
 30
0.0
 10
176.141928
 20
150.734865
 30
0.0
 10
173.093338
 20
146.217475
 30
0.0
 10
171.134154
 20
143.474419
 30
0.0
  0
SPLINE
  5
260
100
AcDbEntity
  8
Layer_1
 62
7
100
AcDbSpline
 70
8
 71
3
 72
8
 73
4
 74
0
 40
0
 40
0
 40
0
 40
0
 40
1
 40
1
 40
1
 40
1
 10
171.134154
 20
143.474419
 30
0.0
 10
165.366073
 20
135.398537
 30
0.0
 10
158.073172
 20
126.179756
 30
0.0
 10
150.276718
 20
117.108688
 30
0.0
  0
SPLINE
  5
261
100
AcDbEntity
  8
Layer_1
 62
7
100
AcDbSpline
 70
8
 71
3
 72
8
 73
4
 74
0
 40
0
 40
0
 40
0
 40
0
 40
1
 40
1
 40
1
 40
1
 10
150.276718
 20
117.108688
 30
0.0
 10
145.852888
 20
111.961607
 30
0.0
 10
135.376144
 20
100.466840
 30
0.0
 10
128.109046
 20
92.786867
 30
0.0
  0
SPLINE
  5
262
100
AcDbEntity
  8
Layer_1
 62
7
100
AcDbSpline
 70
8
 71
3
 72
8
 73
4
 74
0
 40
0
 40
0
 40
0
 40
0
 40
1
 40
1
 40
1
 40
1
 10
128.109046
 20
92.786867
 30
0.0
 10
125.732407
 20
90.275208
 30
0.0
 10
125.727008
 20
90.270611
 30
0.0
 10
125.350764
 20
90.341124
 30
0.0
  0
SPLINE
  5
263
100
AcDbEntity
  8
Layer_1
 62
7
100
AcDbSpline
 70
8
 71
3
 72
8
 73
4
 74
0
 40
0
 40
0
 40
0
 40
0
 40
1
 40
1
 40
1
 40
1
 10
125.350764
 20
90.341124
 30
0.0
 10
124.903577
 20
90.424921
 30
0.0
 10
124.810020
 20
90.473986
 30
0.0
 10
124.810020
 20
90.627204
 30
0.0
  0
SPLINE
  5
264
100
AcDbEntity
  8
Layer_1
 62
7
100
AcDbSpline
 70
8
 71
3
 72
8
 73
4
 74
0
 40
0
 40
0
 40
0
 40
0
 40
1
 40
1
 40
1
 40
1
 10
124.810020
 20
90.627204
 30
0.0
 10
124.810020
 20
90.690332
 30
0.0
 10
125.675068
 20
91.646755
 30
0.0
 10
126.732109
 20
92.752690
 30
0.0
  0
SPLINE
  5
265
100
AcDbEntity
  8
Layer_1
 62
7
100
AcDbSpline
 70
8
 71
3
 72
8
 73
4
 74
0
 40
0
 40
0
 40
0
 40
0
 40
1
 40
1
 40
1
 40
1
 10
126.732109
 20
92.752690
 30
0.0
 10
133.021011
 20
99.332459
 30
0.0
 10
145.137739
 20
112.615634
 30
0.0
 10
149.687469
 20
117.917873
 30
0.0
  0
SPLINE
  5
266
100
AcDbEntity
  8
Layer_1
 62
7
100
AcDbSpline
 70
8
 71
3
 72
8
 73
4
 74
0
 40
0
 40
0
 40
0
 40
0
 40
1
 40
1
 40
1
 40
1
 10
149.687469
 20
117.917873
 30
0.0
 10
160.215295
 20
130.186962
 30
0.0
 10
169.683436
 20
142.553734
 30
0.0
 10
175.447412
 20
151.564053
 30
0.0
  0
SPLINE
  5
267
100
AcDbEntity
  8
Layer_1
 62
7
100
AcDbSpline
 70
8
 71
3
 72
8
 73
4
 74
0
 40
0
 40
0
 40
0
 40
0
 40
1
 40
1
 40
1
 40
1
 10
175.447412
 20
151.564053
 30
0.0
 10
176.564747
 20
153.310687
 30
0.0
 10
176.732297
 20
153.631258
 30
0.0
 10
176.732297
 20
154.024678
 30
0.0
  0
SPLINE
  5
268
100
AcDbEntity
  8
Layer_1
 62
7
100
AcDbSpline
 70
8
 71
3
 72
8
 73
4
 74
0
 40
0
 40
0
 40
0
 40
0
 40
1
 40
1
 40
1
 40
1
 10
176.732297
 20
154.024678
 30
0.0
 10
176.732297
 20
154.634566
 30
0.0
 10
176.485056
 20
155.415780
 30
0.0
 10
176.155725
 20
155.847549
 30
0.0
  0
SPLINE
  5
269
100
AcDbEntity
  8
Layer_1
 62
7
100
AcDbSpline
 70
8
 71
3
 72
8
 73
4
 74
0
 40
0
 40
0
 40
0
 40
0
 40
1
 40
1
 40
1
 40
1
 10
176.155725
 20
155.847549
 30
0.0
 10
175.608861
 20
156.564520
 30
0.0
 10
173.556222
 20
157.642305
 30
0.0
 10
172.737089
 20
157.642305
 30
0.0
  0
SPLINE
  5
26a
100
AcDbEntity
  8
Layer_1
 62
7
100
AcDbSpline
 70
8
 71
3
 72
8
 73
4
 74
0
 40
0
 40
0
 40
0
 40
0
 40
1
 40
1
 40
1
 40
1
 10
172.737089
 20
157.642305
 30
0.0
 10
172.452781
 20
157.642305
 30
0.0
 10
172.379888
 20
157.567352
 30
0.0
 10
172.079488
 20
156.967618
 30
0.0
  0
SPLINE
  5
26b
100
AcDbEntity
  8
Layer_1
 62
7
100
AcDbSpline
 70
8
 71
3
 72
8
 73
4
 74
0
 40
0
 40
0
 40
0
 40
0
 40
1
 40
1
 40
1
 40
1
 10
172.079488
 20
156.967618
 30
0.0
 10
171.093153
 20
154.998495
 30
0.0
 10
166.818925
 20
147.869389
 30
0.0
 10
163.293117
 20
142.313560
 30
0.0
  0
SPLINE
  5
26c
100
AcDbEntity
  8
Layer_1
 62
7
100
AcDbSpline
 70
8
 71
3
 72
8
 73
4
 74
0
 40
0
 40
0
 40
0
 40
0
 40
1
 40
1
 40
1
 40
1
 10
163.293117
 20
142.313560
 30
0.0
 10
152.495964
 20
125.299869
 30
0.0
 10
138.529520
 20
106.888631
 30
0.0
 10
125.311075
 20
92.242816
 30
0.0
  0
SPLINE
  5
26d
100
AcDbEntity
  8
Layer_1
 62
7
100
AcDbSpline
 70
8
 71
3
 72
8
 73
4
 74
0
 40
0
 40
0
 40
0
 40
0
 40
1
 40
1
 40
1
 40
1
 10
125.311075
 20
92.242816
 30
0.0
 10
123.935301
 20
90.718480
 30
0.0
 10
123.906108
 20
90.694139
 30
0.0
 10
123.533958
 20
90.754534
 30
0.0
  0
SPLINE
  5
26e
100
AcDbEntity
  8
Layer_1
 62
7
100
AcDbSpline
 70
8
 71
3
 72
8
 73
4
 74
0
 40
0
 40
0
 40
0
 40
0
 40
1
 40
1
 40
1
 40
1
 10
123.533958
 20
90.754534
 30
0.0
 10
123.325893
 20
90.788299
 30
0.0
 10
123.107876
 20
90.863661
 30
0.0
 10
123.049439
 20
90.922104
 30
0.0
  0
SPLINE
  5
26f
100
AcDbEntity
  8
Layer_1
 62
7
100
AcDbSpline
 70
8
 71
3
 72
8
 73
4
 74
0
 40
0
 40
0
 40
0
 40
0
 40
1
 40
1
 40
1
 40
1
 10
123.049439
 20
90.922104
 30
0.0
 10
122.929695
 20
91.041848
 30
0.0
 10
122.801733
 20
90.887032
 30
0.0
 10
126.065689
 20
94.566741
 30
0.0
  0
SPLINE
  5
270
100
AcDbEntity
  8
Layer_1
 62
7
100
AcDbSpline
 70
8
 71
3
 72
8
 73
4
 74
0
 40
0
 40
0
 40
0
 40
0
 40
1
 40
1
 40
1
 40
1
 10
126.065689
 20
94.566741
 30
0.0
 10
139.572314
 20
109.793801
 30
0.0
 10
152.432529
 20
126.921160
 30
0.0
 10
163.295872
 20
144.149105
 30
0.0
  0
SPLINE
  5
271
100
AcDbEntity
  8
Layer_1
 62
7
100
AcDbSpline
 70
8
 71
3
 72
8
 73
4
 74
0
 40
0
 40
0
 40
0
 40
0
 40
1
 40
1
 40
1
 40
1
 10
163.295872
 20
144.149105
 30
0.0
 10
166.467327
 20
149.178655
 30
0.0
 10
171.550872
 20
157.840021
 30
0.0
 10
171.550872
 20
158.214465
 30
0.0
  0
SPLINE
  5
272
100
AcDbEntity
  8
Layer_1
 62
7
100
AcDbSpline
 70
8
 71
3
 72
8
 73
4
 74
0
 40
0
 40
0
 40
0
 40
0
 40
1
 40
1
 40
1
 40
1
 10
171.550872
 20
158.214465
 30
0.0
 10
171.550872
 20
158.490199
 30
0.0
 10
170.671089
 20
159.728960
 30
0.0
 10
170.000854
 20
160.397279
 30
0.0
  0
SPLINE
  5
273
100
AcDbEntity
  8
Layer_1
 62
7
100
AcDbSpline
 70
8
 71
3
 72
8
 73
4
 74
0
 40
0
 40
0
 40
0
 40
0
 40
1
 40
1
 40
1
 40
1
 10
170.000854
 20
160.397279
 30
0.0
 10
168.782503
 20
161.612172
 30
0.0
 10
167.240063
 20
162.145770
 30
0.0
 10
164.641389
 20
162.251016
 30
0.0
  0
SPLINE
  5
274
100
AcDbEntity
  8
Layer_1
 62
7
100
AcDbSpline
 70
8
 71
3
 72
8
 73
4
 74
0
 40
0
 40
0
 40
0
 40
0
 40
1
 40
1
 40
1
 40
1
 10
164.641389
 20
162.251016
 30
0.0
 10
163.375001
 20
162.302304
 30
0.0
 10
163.052201
 20
162.286020
 30
0.0
 10
162.956325
 20
162.164475
 30
0.0
  0
SPLINE
  5
275
100
AcDbEntity
  8
Layer_1
 62
7
100
AcDbSpline
 70
8
 71
3
 72
8
 73
4
 74
0
 40
0
 40
0
 40
0
 40
0
 40
1
 40
1
 40
1
 40
1
 10
162.956325
 20
162.164475
 30
0.0
 10
162.891114
 20
162.081798
 30
0.0
 10
162.583354
 20
161.431076
 30
0.0
 10
162.272266
 20
160.718637
 30
0.0
  0
SPLINE
  5
276
100
AcDbEntity
  8
Layer_1
 62
7
100
AcDbSpline
 70
8
 71
3
 72
8
 73
4
 74
0
 40
0
 40
0
 40
0
 40
0
 40
1
 40
1
 40
1
 40
1
 10
162.272266
 20
160.718637
 30
0.0
 10
158.502985
 20
152.086543
 30
0.0
 10
145.047403
 20
128.380641
 30
0.0
 10
125.312729
 20
95.603575
 30
0.0
  0
LWPOLYLINE
  5
277
100
AcDbEntity
  8
Layer_1
 62
7
100
AcDbPolyline
 90
3
 70
0
 10
123.047235
 20
86.654596
 30
0.0
 10
123.820592
 20
86.585694
 30
0.0
 10
124.145808
 20
87.112657
 30
0.0
  0
SPLINE
  5
278
100
AcDbEntity
  8
Layer_1
 62
7
100
AcDbSpline
 70
8
 71
3
 72
8
 73
4
 74
0
 40
0
 40
0
 40
0
 40
0
 40
1
 40
1
 40
1
 40
1
 10
122.191749
 20
91.059910
 30
0.0
 10
121.702568
 20
91.019442
 30
0.0
 10
121.556952
 20
91.254025
 30
0.0
 10
121.807551
 20
91.678372
 30
0.0
  0
SPLINE
  5
279
100
AcDbEntity
  8
Layer_1
 62
7
100
AcDbSpline
 70
8
 71
3
 72
8
 73
4
 74
0
 40
0
 40
0
 40
0
 40
0
 40
1
 40
1
 40
1
 40
1
 10
121.807551
 20
91.678372
 30
0.0
 10
121.898066
 20
91.831644
 30
0.0
 10
123.696854
 20
94.823191
 30
0.0
 10
125.804964
 20
98.326029
 30
0.0
  0
SPLINE
  5
27a
100
AcDbEntity
  8
Layer_1
 62
7
100
AcDbSpline
 70
8
 71
3
 72
8
 73
4
 74
0
 40
0
 40
0
 40
0
 40
0
 40
1
 40
1
 40
1
 40
1
 10
125.804964
 20
98.326029
 30
0.0
 10
144.499666
 20
129.389080
 30
0.0
 10
157.192884
 20
151.791731
 30
0.0
 10
161.088256
 20
160.598472
 30
0.0
  0
LWPOLYLINE
  5
27b
100
AcDbEntity
  8
Layer_1
 62
7
100
AcDbPolyline
 90
3
 70
0
 10
125.312729
 20
95.603575
 30
0.0
 10
122.597443
 20
91.093534
 30
0.0
 10
122.191749
 20
91.059910
 30
0.0
  0
SPLINE
  5
27c
100
AcDbEntity
  8
Layer_1
 62
7
100
AcDbSpline
 70
8
 71
3
 72
8
 73
4
 74
0
 40
0
 40
0
 40
0
 40
0
 40
1
 40
1
 40
1
 40
1
 10
161.412369
 20
163.169342
 30
0.0
 10
160.131215
 20
164.347360
 30
0.0
 10
158.279555
 20
165.379046
 30
0.0
 10
156.545689
 20
165.881319
 30
0.0
  0
SPLINE
  5
27d
100
AcDbEntity
  8
Layer_1
 62
7
100
AcDbSpline
 70
8
 71
3
 72
8
 73
4
 74
0
 40
0
 40
0
 40
0
 40
0
 40
1
 40
1
 40
1
 40
1
 10
156.545689
 20
165.881319
 30
0.0
 10
154.855305
 20
166.371003
 30
0.0
 10
152.626909
 20
166.508897
 30
0.0
 10
150.257978
 20
166.270478
 30
0.0
  0
SPLINE
  5
27e
100
AcDbEntity
  8
Layer_1
 62
7
100
AcDbSpline
 70
8
 71
3
 72
8
 73
4
 74
0
 40
0
 40
0
 40
0
 40
0
 40
1
 40
1
 40
1
 40
1
 10
150.257978
 20
166.270478
 30
0.0
 10
148.418550
 20
166.085352
 30
0.0
 10
148.585854
 20
166.215101
 30
0.0
 10
148.101623
 20
164.599192
 30
0.0
  0
SPLINE
  5
27f
100
AcDbEntity
  8
Layer_1
 62
7
100
AcDbSpline
 70
8
 71
3
 72
8
 73
4
 74
0
 40
0
 40
0
 40
0
 40
0
 40
1
 40
1
 40
1
 40
1
 10
148.101623
 20
164.599192
 30
0.0
 10
145.312424
 20
155.291503
 30
0.0
 10
135.841661
 20
130.688471
 30
0.0
 10
122.465702
 20
98.001914
 30
0.0
  0
SPLINE
  5
280
100
AcDbEntity
  8
Layer_1
 62
7
100
AcDbSpline
 70
8
 71
3
 72
8
 73
4
 74
0
 40
0
 40
0
 40
0
 40
0
 40
1
 40
1
 40
1
 40
1
 10
122.465702
 20
98.001914
 30
0.0
 10
121.129456
 20
94.736554
 30
0.0
 10
119.967716
 20
91.931486
 30
0.0
 10
119.883812
 20
91.768220
 30
0.0
  0
SPLINE
  5
281
100
AcDbEntity
  8
Layer_1
 62
7
100
AcDbSpline
 70
8
 71
3
 72
8
 73
4
 74
0
 40
0
 40
0
 40
0
 40
0
 40
1
 40
1
 40
1
 40
1
 10
119.883812
 20
91.768220
 30
0.0
 10
119.715012
 20
91.439753
 30
0.0
 10
119.368025
 20
91.376657
 30
0.0
 10
119.042104
 20
91.614982
 30
0.0
  0
SPLINE
  5
282
100
AcDbEntity
  8
Layer_1
 62
7
100
AcDbSpline
 70
8
 71
3
 72
8
 73
4
 74
0
 40
0
 40
0
 40
0
 40
0
 40
1
 40
1
 40
1
 40
1
 10
119.042104
 20
91.614982
 30
0.0
 10
118.858002
 20
91.749599
 30
0.0
 10
118.979377
 20
92.084016
 30
0.0
 10
121.010494
 20
97.038940
 30
0.0
  0
SPLINE
  5
283
100
AcDbEntity
  8
Layer_1
 62
7
100
AcDbSpline
 70
8
 71
3
 72
8
 73
4
 74
0
 40
0
 40
0
 40
0
 40
0
 40
1
 40
1
 40
1
 40
1
 10
121.010494
 20
97.038940
 30
0.0
 10
130.229618
 20
119.529097
 30
0.0
 10
138.123495
 20
139.526370
 30
0.0
 10
142.802240
 20
152.244805
 30
0.0
  0
SPLINE
  5
284
100
AcDbEntity
  8
Layer_1
 62
7
100
AcDbSpline
 70
8
 71
3
 72
8
 73
4
 74
0
 40
0
 40
0
 40
0
 40
0
 40
1
 40
1
 40
1
 40
1
 10
142.802240
 20
152.244805
 30
0.0
 10
145.128556
 20
158.568535
 30
0.0
 10
147.478750
 20
165.540897
 30
0.0
 10
147.478750
 20
166.117791
 30
0.0
  0
SPLINE
  5
285
100
AcDbEntity
  8
Layer_1
 62
7
100
AcDbSpline
 70
8
 71
3
 72
8
 73
4
 74
0
 40
0
 40
0
 40
0
 40
0
 40
1
 40
1
 40
1
 40
1
 10
147.478750
 20
166.117791
 30
0.0
 10
147.478750
 20
166.308988
 30
0.0
 10
147.266601
 20
166.452828
 30
0.0
 10
146.315687
 20
166.904375
 30
0.0
  0
SPLINE
  5
286
100
AcDbEntity
  8
Layer_1
 62
7
100
AcDbSpline
 70
8
 71
3
 72
8
 73
4
 74
0
 40
0
 40
0
 40
0
 40
0
 40
1
 40
1
 40
1
 40
1
 10
146.315687
 20
166.904375
 30
0.0
 10
142.316781
 20
168.803290
 30
0.0
 10
139.002849
 20
169.426598
 30
0.0
 10
133.823493
 20
169.254758
 30
0.0
  0
SPLINE
  5
287
100
AcDbEntity
  8
Layer_1
 62
7
100
AcDbSpline
 70
8
 71
3
 72
8
 73
4
 74
0
 40
0
 40
0
 40
0
 40
0
 40
1
 40
1
 40
1
 40
1
 10
133.823493
 20
169.254758
 30
0.0
 10
132.576720
 20
169.213385
 30
0.0
 10
131.362777
 20
169.145157
 30
0.0
 10
131.125296
 20
169.103174
 30
0.0
  0
LWPOLYLINE
  5
288
100
AcDbEntity
  8
Layer_1
 62
7
100
AcDbPolyline
 90
3
 70
0
 10
161.088256
 20
160.598472
 30
0.0
 10
161.990044
 20
162.637968
 30
0.0
 10
161.412369
 20
163.169342
 30
0.0
  0
SPLINE
  5
289
100
AcDbEntity
  8
Layer_1
 62
7
100
AcDbSpline
 70
8
 71
3
 72
8
 73
4
 74
0
 40
0
 40
0
 40
0
 40
0
 40
1
 40
1
 40
1
 40
1
 10
130.559198
 20
168.219023
 30
0.0
 10
130.485552
 20
167.774681
 30
0.0
 10
130.081429
 20
165.322627
 30
0.0
 10
129.660715
 20
162.769709
 30
0.0
  0
SPLINE
  5
28a
100
AcDbEntity
  8
Layer_1
 62
7
100
AcDbSpline
 70
8
 71
3
 72
8
 73
4
 74
0
 40
0
 40
0
 40
0
 40
0
 40
1
 40
1
 40
1
 40
1
 10
129.660715
 20
162.769709
 30
0.0
 10
128.431900
 20
155.313243
 30
0.0
 10
125.711229
 20
139.841905
 30
0.0
 10
122.209938
 20
120.400548
 30
0.0
  0
SPLINE
  5
28b
100
AcDbEntity
  8
Layer_1
 62
7
100
AcDbSpline
 70
8
 71
3
 72
8
 73
4
 74
0
 40
0
 40
0
 40
0
 40
0
 40
1
 40
1
 40
1
 40
1
 10
122.209938
 20
120.400548
 30
0.0
 10
120.326514
 20
109.942595
 30
0.0
 10
117.138204
 20
92.397920
 30
0.0
 10
117.075368
 20
92.145802
 30
0.0
  0
SPLINE
  5
28c
100
AcDbEntity
  8
Layer_1
 62
7
100
AcDbSpline
 70
8
 71
3
 72
8
 73
4
 74
0
 40
0
 40
0
 40
0
 40
0
 40
1
 40
1
 40
1
 40
1
 10
117.075368
 20
92.145802
 30
0.0
 10
117.025911
 20
91.947375
 30
0.0
 10
116.940042
 20
91.903269
 30
0.0
 10
116.606286
 20
91.903269
 30
0.0
  0
SPLINE
  5
28d
100
AcDbEntity
  8
Layer_1
 62
7
100
AcDbSpline
 70
8
 71
3
 72
8
 73
4
 74
0
 40
0
 40
0
 40
0
 40
0
 40
1
 40
1
 40
1
 40
1
 10
116.606286
 20
91.903269
 30
0.0
 10
116.378993
 20
91.903269
 30
0.0
 10
116.174788
 20
91.963250
 30
0.0
 10
116.146021
 20
92.038315
 30
0.0
  0
SPLINE
  5
28e
100
AcDbEntity
  8
Layer_1
 62
7
100
AcDbSpline
 70
8
 71
3
 72
8
 73
4
 74
0
 40
0
 40
0
 40
0
 40
0
 40
1
 40
1
 40
1
 40
1
 10
116.146021
 20
92.038315
 30
0.0
 10
116.117584
 20
92.112528
 30
0.0
 10
116.915051
 20
96.690675
 30
0.0
 10
117.918176
 20
102.212096
 30
0.0
  0
SPLINE
  5
28f
100
AcDbEntity
  8
Layer_1
 62
7
100
AcDbSpline
 70
8
 71
3
 72
8
 73
4
 74
0
 40
0
 40
0
 40
0
 40
0
 40
1
 40
1
 40
1
 40
1
 10
117.918176
 20
102.212096
 30
0.0
 10
124.909241
 20
140.693062
 30
0.0
 10
129.848641
 20
168.939499
 30
0.0
 10
129.625990
 20
169.162153
 30
0.0
  0
SPLINE
  5
290
100
AcDbEntity
  8
Layer_1
 62
7
100
AcDbSpline
 70
8
 71
3
 72
8
 73
4
 74
0
 40
0
 40
0
 40
0
 40
0
 40
1
 40
1
 40
1
 40
1
 10
129.625990
 20
169.162153
 30
0.0
 10
129.517936
 20
169.270204
 30
0.0
 10
127.456133
 20
169.851624
 30
0.0
 10
126.248143
 20
170.114653
 30
0.0
  0
SPLINE
  5
291
100
AcDbEntity
  8
Layer_1
 62
7
100
AcDbSpline
 70
8
 71
3
 72
8
 73
4
 74
0
 40
0
 40
0
 40
0
 40
0
 40
1
 40
1
 40
1
 40
1
 10
126.248143
 20
170.114653
 30
0.0
 10
122.190281
 20
170.998203
 30
0.0
 10
118.508072
 20
171.097161
 30
0.0
 10
114.496232
 20
170.431049
 30
0.0
  0
SPLINE
  5
292
100
AcDbEntity
  8
Layer_1
 62
7
100
AcDbSpline
 70
8
 71
3
 72
8
 73
4
 74
0
 40
0
 40
0
 40
0
 40
0
 40
1
 40
1
 40
1
 40
1
 10
114.496232
 20
170.431049
 30
0.0
 10
113.012068
 20
170.184621
 30
0.0
 10
111.053745
 20
169.720386
 30
0.0
 10
110.915537
 20
169.582178
 30
0.0
  0
SPLINE
  5
293
100
AcDbEntity
  8
Layer_1
 62
7
100
AcDbSpline
 70
8
 71
3
 72
8
 73
4
 74
0
 40
0
 40
0
 40
0
 40
0
 40
1
 40
1
 40
1
 40
1
 10
110.915537
 20
169.582178
 30
0.0
 10
110.884465
 20
169.551109
 30
0.0
 10
110.689280
 20
152.194346
 30
0.0
 10
110.482284
 20
131.011440
 30
0.0
  0
SPLINE
  5
294
100
AcDbEntity
  8
Layer_1
 62
7
100
AcDbSpline
 70
8
 71
3
 72
8
 73
4
 74
0
 40
0
 40
0
 40
0
 40
0
 40
1
 40
1
 40
1
 40
1
 10
110.482284
 20
131.011440
 30
0.0
 10
110.225013
 20
104.683327
 30
0.0
 10
110.070146
 20
92.452375
 30
0.0
 10
109.992253
 20
92.356368
 30
0.0
  0
SPLINE
  5
295
100
AcDbEntity
  8
Layer_1
 62
7
100
AcDbSpline
 70
8
 71
3
 72
8
 73
4
 74
0
 40
0
 40
0
 40
0
 40
0
 40
1
 40
1
 40
1
 40
1
 10
109.992253
 20
92.356368
 30
0.0
 10
109.929589
 20
92.279121
 30
0.0
 10
109.728381
 20
92.230463
 30
0.0
 10
109.545216
 20
92.248328
 30
0.0
  0
LWPOLYLINE
  5
296
100
AcDbEntity
  8
Layer_1
 62
7
100
AcDbPolyline
 90
3
 70
0
 10
131.125296
 20
169.103174
 30
0.0
 10
130.693143
 20
169.027104
 30
0.0
 10
130.559198
 20
168.219023
 30
0.0
  0
SPLINE
  5
297
100
AcDbEntity
  8
Layer_1
 62
7
100
AcDbSpline
 70
8
 71
3
 72
8
 73
4
 74
0
 40
0
 40
0
 40
0
 40
0
 40
1
 40
1
 40
1
 40
1
 10
109.179761
 20
93.360131
 30
0.0
 10
109.146069
 20
94.488789
 30
0.0
 10
109.752886
 20
159.888379
 30
0.0
 10
109.852796
 20
165.900062
 30
0.0
  0
SPLINE
  5
298
100
AcDbEntity
  8
Layer_1
 62
7
100
AcDbSpline
 70
8
 71
3
 72
8
 73
4
 74
0
 40
0
 40
0
 40
0
 40
0
 40
1
 40
1
 40
1
 40
1
 10
109.852796
 20
165.900062
 30
0.0
 10
109.884371
 20
167.799908
 30
0.0
 10
109.870858
 20
169.416223
 30
0.0
 10
109.823030
 20
169.491780
 30
0.0
  0
SPLINE
  5
299
100
AcDbEntity
  8
Layer_1
 62
7
100
AcDbSpline
 70
8
 71
3
 72
8
 73
4
 74
0
 40
0
 40
0
 40
0
 40
0
 40
1
 40
1
 40
1
 40
1
 10
109.823030
 20
169.491780
 30
0.0
 10
109.732431
 20
169.634881
 30
0.0
 10
107.337993
 20
170.137942
 30
0.0
 10
105.378580
 20
170.425537
 30
0.0
  0
SPLINE
  5
29a
100
AcDbEntity
  8
Layer_1
 62
7
100
AcDbSpline
 70
8
 71
3
 72
8
 73
4
 74
0
 40
0
 40
0
 40
0
 40
0
 40
1
 40
1
 40
1
 40
1
 10
105.378580
 20
170.425537
 30
0.0
 10
103.274992
 20
170.734291
 30
0.0
 10
101.402642
 20
170.891901
 30
0.0
 10
99.720355
 20
170.898480
 30
0.0
  0
LWPOLYLINE
  5
29b
100
AcDbEntity
  8
Layer_1
 62
7
100
AcDbPolyline
 90
3
 70
0
 10
109.545216
 20
92.248328
 30
0.0
 10
109.212284
 20
92.280851
 30
0.0
 10
109.179761
 20
93.360131
 30
0.0
  0
SPLINE
  5
29c
100
AcDbEntity
  8
Layer_1
 62
7
100
AcDbSpline
 70
8
 71
3
 72
8
 73
4
 74
0
 40
0
 40
0
 40
0
 40
0
 40
1
 40
1
 40
1
 40
1
 10
111.423758
 20
73.083125
 30
0.0
 10
107.557254
 20
73.099409
 30
0.0
 10
103.827357
 20
72.981169
 30
0.0
 10
100.900507
 20
72.741371
 30
0.0
  0
SPLINE
  5
29d
100
AcDbEntity
  8
Layer_1
 62
7
100
AcDbSpline
 70
8
 71
3
 72
8
 73
4
 74
0
 40
0
 40
0
 40
0
 40
0
 40
1
 40
1
 40
1
 40
1
 10
100.900507
 20
72.741371
 30
0.0
 10
99.831844
 20
72.653806
 30
0.0
 10
98.884483
 20
72.578303
 30
0.0
 10
98.795417
 20
72.573251
 30
0.0
  0
SPLINE
  5
29e
100
AcDbEntity
  8
Layer_1
 62
7
100
AcDbSpline
 70
8
 71
3
 72
8
 73
4
 74
0
 40
0
 40
0
 40
0
 40
0
 40
1
 40
1
 40
1
 40
1
 10
98.795417
 20
72.573251
 30
0.0
 10
98.314250
 20
72.545847
 30
0.0
 10
99.333112
 20
72.370483
 30
0.0
 10
100.336615
 20
72.308117
 30
0.0
  0
SPLINE
  5
29f
100
AcDbEntity
  8
Layer_1
 62
7
100
AcDbSpline
 70
8
 71
3
 72
8
 73
4
 74
0
 40
0
 40
0
 40
0
 40
0
 40
1
 40
1
 40
1
 40
1
 10
100.336615
 20
72.308117
 30
0.0
 10
101.079046
 20
72.261974
 30
0.0
 10
101.552299
 20
72.183299
 30
0.0
 10
101.644648
 20
72.090936
 30
0.0
  0
SPLINE
  5
2a0
100
AcDbEntity
  8
Layer_1
 62
7
100
AcDbSpline
 70
8
 71
3
 72
8
 73
4
 74
0
 40
0
 40
0
 40
0
 40
0
 40
1
 40
1
 40
1
 40
1
 10
101.644648
 20
72.090936
 30
0.0
 10
101.874080
 20
71.861520
 30
0.0
 10
104.361731
 20
67.221496
 30
0.0
 10
105.006510
 20
65.820314
 30
0.0
  0
SPLINE
  5
2a1
100
AcDbEntity
  8
Layer_1
 62
7
100
AcDbSpline
 70
8
 71
3
 72
8
 73
4
 74
0
 40
0
 40
0
 40
0
 40
0
 40
1
 40
1
 40
1
 40
1
 10
105.006510
 20
65.820314
 30
0.0
 10
105.462143
 20
64.830143
 30
0.0
 10
105.581046
 20
64.464324
 30
0.0
 10
105.543945
 20
64.166116
 30
0.0
  0
SPLINE
  5
2a2
100
AcDbEntity
  8
Layer_1
 62
7
100
AcDbSpline
 70
8
 71
3
 72
8
 73
4
 74
0
 40
0
 40
0
 40
0
 40
0
 40
1
 40
1
 40
1
 40
1
 10
105.543945
 20
64.166116
 30
0.0
 10
105.517755
 20
63.955573
 30
0.0
 10
105.467506
 20
62.965619
 30
0.0
 10
105.432600
 20
61.966214
 30
0.0
  0
SPLINE
  5
2a3
100
AcDbEntity
  8
Layer_1
 62
7
100
AcDbSpline
 70
8
 71
3
 72
8
 73
4
 74
0
 40
0
 40
0
 40
0
 40
0
 40
1
 40
1
 40
1
 40
1
 10
105.432600
 20
61.966214
 30
0.0
 10
105.372733
 20
60.251748
 30
0.0
 10
105.380392
 20
60.153501
 30
0.0
 10
105.563789
 20
60.210044
 30
0.0
  0
SPLINE
  5
2a4
100
AcDbEntity
  8
Layer_1
 62
7
100
AcDbSpline
 70
8
 71
3
 72
8
 73
4
 74
0
 40
0
 40
0
 40
0
 40
0
 40
1
 40
1
 40
1
 40
1
 10
105.563789
 20
60.210044
 30
0.0
 10
105.670655
 20
60.242996
 30
0.0
 10
106.090709
 20
60.371977
 30
0.0
 10
106.497549
 20
60.496674
 30
0.0
  0
LWPOLYLINE
  5
2a5
100
AcDbEntity
  8
Layer_1
 62
7
100
AcDbPolyline
 90
2
 70
0
 10
99.720355
 20
170.898480
 30
0.0
 10
99.720355
 20
170.898480
 30
0.0
  0
SPLINE
  5
2a6
100
AcDbEntity
  8
Layer_1
 62
7
100
AcDbSpline
 70
8
 71
3
 72
8
 73
4
 74
0
 40
0
 40
0
 40
0
 40
0
 40
1
 40
1
 40
1
 40
1
 10
107.337600
 20
62.848711
 30
0.0
 10
107.629133
 20
62.807462
 30
0.0
 10
108.272312
 20
61.925627
 30
0.0
 10
108.371129
 20
61.431535
 30
0.0
  0
SPLINE
  5
2a7
100
AcDbEntity
  8
Layer_1
 62
7
100
AcDbSpline
 70
8
 71
3
 72
8
 73
4
 74
0
 40
0
 40
0
 40
0
 40
0
 40
1
 40
1
 40
1
 40
1
 10
108.371129
 20
61.431535
 30
0.0
 10
108.422748
 20
61.173488
 30
0.0
 10
108.470533
 20
61.134838
 30
0.0
 10
108.660517
 20
61.199475
 30
0.0
  0
SPLINE
  5
2a8
100
AcDbEntity
  8
Layer_1
 62
7
100
AcDbSpline
 70
8
 71
3
 72
8
 73
4
 74
0
 40
0
 40
0
 40
0
 40
0
 40
1
 40
1
 40
1
 40
1
 10
108.660517
 20
61.199475
 30
0.0
 10
108.785719
 20
61.242082
 30
0.0
 10
109.466806
 20
61.306999
 30
0.0
 10
110.174154
 20
61.343341
 30
0.0
  0
LWPOLYLINE
  5
2a9
100
AcDbEntity
  8
Layer_1
 62
7
100
AcDbPolyline
 90
5
 70
0
 10
106.497549
 20
60.496674
 30
0.0
 10
107.237279
 20
60.723225
 30
0.0
 10
107.160108
 20
61.804159
 30
0.0
 10
107.082387
 20
62.885090
 30
0.0
 10
107.337600
 20
62.848711
 30
0.0
  0
SPLINE
  5
2aa
100
AcDbEntity
  8
Layer_1
 62
7
100
AcDbSpline
 70
8
 71
3
 72
8
 73
4
 74
0
 40
0
 40
0
 40
0
 40
0
 40
1
 40
1
 40
1
 40
1
 10
111.582508
 20
61.772186
 30
0.0
 10
111.649510
 20
61.971782
 30
0.0
 10
111.785897
 20
62.194757
 30
0.0
 10
111.885676
 20
62.267729
 30
0.0
  0
SPLINE
  5
2ab
100
AcDbEntity
  8
Layer_1
 62
7
100
AcDbSpline
 70
8
 71
3
 72
8
 73
4
 74
0
 40
0
 40
0
 40
0
 40
0
 40
1
 40
1
 40
1
 40
1
 10
111.885676
 20
62.267729
 30
0.0
 10
111.985459
 20
62.340666
 30
0.0
 10
112.118165
 20
62.517710
 30
0.0
 10
112.180576
 20
62.660746
 30
0.0
  0
SPLINE
  5
2ac
100
AcDbEntity
  8
Layer_1
 62
7
100
AcDbSpline
 70
8
 71
3
 72
8
 73
4
 74
0
 40
0
 40
0
 40
0
 40
0
 40
1
 40
1
 40
1
 40
1
 10
112.180576
 20
62.660746
 30
0.0
 10
112.267955
 20
62.860954
 30
0.0
 10
112.280438
 20
62.740682
 30
0.0
 10
112.236250
 20
62.138194
 30
0.0
  0
LWPOLYLINE
  5
2ad
100
AcDbEntity
  8
Layer_1
 62
7
100
AcDbPolyline
 90
3
 70
0
 10
110.174154
 20
61.343341
 30
0.0
 10
111.460689
 20
61.409488
 30
0.0
 10
111.582508
 20
61.772186
 30
0.0
  0
SPLINE
  5
2ae
100
AcDbEntity
  8
Layer_1
 62
7
100
AcDbSpline
 70
8
 71
3
 72
8
 73
4
 74
0
 40
0
 40
0
 40
0
 40
0
 40
1
 40
1
 40
1
 40
1
 10
112.800694
 20
61.353814
 30
0.0
 10
113.142502
 20
61.353250
 30
0.0
 10
113.737715
 20
61.256676
 30
0.0
 10
114.123611
 20
61.138840
 30
0.0
  0
SPLINE
  5
2af
100
AcDbEntity
  8
Layer_1
 62
7
100
AcDbSpline
 70
8
 71
3
 72
8
 73
4
 74
0
 40
0
 40
0
 40
0
 40
0
 40
1
 40
1
 40
1
 40
1
 10
114.123611
 20
61.138840
 30
0.0
 10
114.509527
 20
61.021006
 30
0.0
 10
114.901362
 20
60.923315
 30
0.0
 10
114.994532
 20
60.923315
 30
0.0
  0
SPLINE
  5
2b0
100
AcDbEntity
  8
Layer_1
 62
7
100
AcDbSpline
 70
8
 71
3
 72
8
 73
4
 74
0
 40
0
 40
0
 40
0
 40
0
 40
1
 40
1
 40
1
 40
1
 10
114.994532
 20
60.923315
 30
0.0
 10
115.130814
 20
60.922751
 30
0.0
 10
115.402749
 20
62.025545
 30
0.0
 10
116.384697
 20
66.562798
 30
0.0
  0
SPLINE
  5
2b1
100
AcDbEntity
  8
Layer_1
 62
7
100
AcDbSpline
 70
8
 71
3
 72
8
 73
4
 74
0
 40
0
 40
0
 40
0
 40
0
 40
1
 40
1
 40
1
 40
1
 10
116.384697
 20
66.562798
 30
0.0
 10
117.056067
 20
69.664880
 30
0.0
 10
117.646061
 20
72.247468
 30
0.0
 10
117.696036
 20
72.302052
 30
0.0
  0
SPLINE
  5
2b2
100
AcDbEntity
  8
Layer_1
 62
7
100
AcDbSpline
 70
8
 71
3
 72
8
 73
4
 74
0
 40
0
 40
0
 40
0
 40
0
 40
1
 40
1
 40
1
 40
1
 10
117.696036
 20
72.302052
 30
0.0
 10
117.770537
 20
72.383400
 30
0.0
 10
119.589285
 20
72.664584
 30
0.0
 10
120.163277
 20
72.683493
 30
0.0
  0
SPLINE
  5
2b3
100
AcDbEntity
  8
Layer_1
 62
7
100
AcDbSpline
 70
8
 71
3
 72
8
 73
4
 74
0
 40
0
 40
0
 40
0
 40
0
 40
1
 40
1
 40
1
 40
1
 10
120.163277
 20
72.683493
 30
0.0
 10
120.261180
 20
72.686710
 30
0.0
 10
120.281440
 20
72.726252
 30
0.0
 10
120.217297
 20
72.788776
 30
0.0
  0
SPLINE
  5
2b4
100
AcDbEntity
  8
Layer_1
 62
7
100
AcDbSpline
 70
8
 71
3
 72
8
 73
4
 74
0
 40
0
 40
0
 40
0
 40
0
 40
1
 40
1
 40
1
 40
1
 10
120.217297
 20
72.788776
 30
0.0
 10
120.160895
 20
72.843741
 30
0.0
 10
117.952901
 20
72.948307
 30
0.0
 10
115.310928
 20
73.021389
 30
0.0
  0
SPLINE
  5
2b5
100
AcDbEntity
  8
Layer_1
 62
7
100
AcDbSpline
 70
8
 71
3
 72
8
 73
4
 74
0
 40
0
 40
0
 40
0
 40
0
 40
1
 40
1
 40
1
 40
1
 10
115.310928
 20
73.021389
 30
0.0
 10
114.016496
 20
73.057197
 30
0.0
 10
112.712593
 20
73.077692
 30
0.0
 10
111.423758
 20
73.083125
 30
0.0
  0
LWPOLYLINE
  5
2b6
100
AcDbEntity
  8
Layer_1
 62
7
100
AcDbPolyline
 90
3
 70
0
 10
112.236250
 20
62.138194
 30
0.0
 10
112.178925
 20
61.355468
 30
0.0
 10
112.800694
 20
61.353814
 30
0.0
  0
SPLINE
  5
2b7
100
AcDbEntity
  8
Layer_1
 62
7
100
AcDbSpline
 70
8
 71
3
 72
8
 73
4
 74
0
 40
0
 40
0
 40
0
 40
0
 40
1
 40
1
 40
1
 40
1
 10
111.079249
 20
72.144406
 30
0.0
 10
112.149805
 20
72.137266
 30
0.0
 10
113.026664
 20
72.100312
 30
0.0
 10
113.114336
 20
72.027549
 30
0.0
  0
SPLINE
  5
2b8
100
AcDbEntity
  8
Layer_1
 62
7
100
AcDbSpline
 70
8
 71
3
 72
8
 73
4
 74
0
 40
0
 40
0
 40
0
 40
0
 40
1
 40
1
 40
1
 40
1
 10
113.114336
 20
72.027549
 30
0.0
 10
113.328444
 20
71.849890
 30
0.0
 10
113.326867
 20
68.155260
 30
0.0
 10
113.112683
 20
68.155260
 30
0.0
  0
SPLINE
  5
2b9
100
AcDbEntity
  8
Layer_1
 62
7
100
AcDbSpline
 70
8
 71
3
 72
8
 73
4
 74
0
 40
0
 40
0
 40
0
 40
0
 40
1
 40
1
 40
1
 40
1
 10
113.112683
 20
68.155260
 30
0.0
 10
113.031682
 20
68.155260
 30
0.0
 10
112.883312
 20
68.369585
 30
0.0
 10
112.783056
 20
68.632063
 30
0.0
  0
SPLINE
  5
2ba
100
AcDbEntity
  8
Layer_1
 62
7
100
AcDbSpline
 70
8
 71
3
 72
8
 73
4
 74
0
 40
0
 40
0
 40
0
 40
0
 40
1
 40
1
 40
1
 40
1
 10
112.783056
 20
68.632063
 30
0.0
 10
112.682819
 20
68.894558
 30
0.0
 10
112.523623
 20
69.174392
 30
0.0
 10
112.429174
 20
69.253282
 30
0.0
  0
SPLINE
  5
2bb
100
AcDbEntity
  8
Layer_1
 62
7
100
AcDbSpline
 70
8
 71
3
 72
8
 73
4
 74
0
 40
0
 40
0
 40
0
 40
0
 40
1
 40
1
 40
1
 40
1
 10
112.429174
 20
69.253282
 30
0.0
 10
112.334729
 20
69.332169
 30
0.0
 10
111.863711
 20
69.458590
 30
0.0
 10
111.382418
 20
69.534401
 30
0.0
  0
SPLINE
  5
2bc
100
AcDbEntity
  8
Layer_1
 62
7
100
AcDbSpline
 70
8
 71
3
 72
8
 73
4
 74
0
 40
0
 40
0
 40
0
 40
0
 40
1
 40
1
 40
1
 40
1
 10
111.382418
 20
69.534401
 30
0.0
 10
110.901127
 20
69.610225
 30
0.0
 10
110.355386
 20
69.699681
 30
0.0
 10
110.169743
 20
69.733390
 30
0.0
  0
SPLINE
  5
2bd
100
AcDbEntity
  8
Layer_1
 62
7
100
AcDbSpline
 70
8
 71
3
 72
8
 73
4
 74
0
 40
0
 40
0
 40
0
 40
0
 40
1
 40
1
 40
1
 40
1
 10
110.169743
 20
69.733390
 30
0.0
 10
109.668505
 20
69.824429
 30
0.0
 10
109.481826
 20
69.496676
 30
0.0
 10
109.481826
 20
68.525126
 30
0.0
  0
SPLINE
  5
2be
100
AcDbEntity
  8
Layer_1
 62
7
100
AcDbSpline
 70
8
 71
3
 72
8
 73
4
 74
0
 40
0
 40
0
 40
0
 40
0
 40
1
 40
1
 40
1
 40
1
 10
109.481826
 20
68.525126
 30
0.0
 10
109.481826
 20
67.286743
 30
0.0
 10
109.715859
 20
66.897387
 30
0.0
 10
110.415036
 20
66.971250
 30
0.0
  0
SPLINE
  5
2bf
100
AcDbEntity
  8
Layer_1
 62
7
100
AcDbSpline
 70
8
 71
3
 72
8
 73
4
 74
0
 40
0
 40
0
 40
0
 40
0
 40
1
 40
1
 40
1
 40
1
 10
110.415036
 20
66.971250
 30
0.0
 10
110.780057
 20
67.009835
 30
0.0
 10
110.885221
 20
66.969557
 30
0.0
 10
110.885221
 20
66.791553
 30
0.0
  0
SPLINE
  5
2c0
100
AcDbEntity
  8
Layer_1
 62
7
100
AcDbSpline
 70
8
 71
3
 72
8
 73
4
 74
0
 40
0
 40
0
 40
0
 40
0
 40
1
 40
1
 40
1
 40
1
 10
110.885221
 20
66.791553
 30
0.0
 10
110.885221
 20
66.694661
 30
0.0
 10
111.062406
 20
66.448272
 30
0.0
 10
111.278789
 20
66.244198
 30
0.0
  0
LWPOLYLINE
  5
2c1
100
AcDbEntity
  8
Layer_1
 62
7
100
AcDbPolyline
 90
2
 70
0
 10
111.423758
 20
73.083125
 30
0.0
 10
111.423758
 20
73.083125
 30
0.0
  0
SPLINE
  5
2c2
100
AcDbEntity
  8
Layer_1
 62
7
100
AcDbSpline
 70
8
 71
3
 72
8
 73
4
 74
0
 40
0
 40
0
 40
0
 40
0
 40
1
 40
1
 40
1
 40
1
 10
111.490455
 20
65.219488
 30
0.0
 10
111.223354
 20
64.258812
 30
0.0
 10
111.016274
 20
63.810395
 30
0.0
 10
110.878606
 20
63.895468
 30
0.0
  0
SPLINE
  5
2c3
100
AcDbEntity
  8
Layer_1
 62
7
100
AcDbSpline
 70
8
 71
3
 72
8
 73
4
 74
0
 40
0
 40
0
 40
0
 40
0
 40
1
 40
1
 40
1
 40
1
 10
110.878606
 20
63.895468
 30
0.0
 10
110.799719
 20
63.944230
 30
0.0
 10
110.783181
 20
64.179440
 30
0.0
 10
110.830651
 20
64.588346
 30
0.0
  0
SPLINE
  5
2c4
100
AcDbEntity
  8
Layer_1
 62
7
100
AcDbSpline
 70
8
 71
3
 72
8
 73
4
 74
0
 40
0
 40
0
 40
0
 40
0
 40
1
 40
1
 40
1
 40
1
 10
110.830651
 20
64.588346
 30
0.0
 10
110.912648
 20
65.294875
 30
0.0
 10
110.751609
 20
66.049752
 30
0.0
 10
110.497716
 20
66.147184
 30
0.0
  0
SPLINE
  5
2c5
100
AcDbEntity
  8
Layer_1
 62
7
100
AcDbSpline
 70
8
 71
3
 72
8
 73
4
 74
0
 40
0
 40
0
 40
0
 40
0
 40
1
 40
1
 40
1
 40
1
 10
110.497716
 20
66.147184
 30
0.0
 10
110.113442
 20
66.294636
 30
0.0
 10
109.692048
 20
66.203826
 30
0.0
 10
109.352292
 20
65.900239
 30
0.0
  0
LWPOLYLINE
  5
2c6
100
AcDbEntity
  8
Layer_1
 62
7
100
AcDbPolyline
 90
3
 70
0
 10
111.278789
 20
66.244198
 30
0.0
 10
111.672356
 20
65.873231
 30
0.0
 10
111.490455
 20
65.219488
 30
0.0
  0
SPLINE
  5
2c7
100
AcDbEntity
  8
Layer_1
 62
7
100
AcDbSpline
 70
8
 71
3
 72
8
 73
4
 74
0
 40
0
 40
0
 40
0
 40
0
 40
1
 40
1
 40
1
 40
1
 10
109.139522
 20
65.009475
 30
0.0
 10
109.417843
 20
63.830712
 30
0.0
 10
109.435045
 20
63.924317
 30
0.0
 10
108.865018
 20
63.540486
 30
0.0
  0
SPLINE
  5
2c8
100
AcDbEntity
  8
Layer_1
 62
7
100
AcDbSpline
 70
8
 71
3
 72
8
 73
4
 74
0
 40
0
 40
0
 40
0
 40
0
 40
1
 40
1
 40
1
 40
1
 10
108.865018
 20
63.540486
 30
0.0
 10
108.578458
 20
63.347536
 30
0.0
 10
108.296419
 20
63.191784
 30
0.0
 10
108.238284
 20
63.194324
 30
0.0
  0
SPLINE
  5
2c9
100
AcDbEntity
  8
Layer_1
 62
7
100
AcDbSpline
 70
8
 71
3
 72
8
 73
4
 74
0
 40
0
 40
0
 40
0
 40
0
 40
1
 40
1
 40
1
 40
1
 10
108.238284
 20
63.194324
 30
0.0
 10
108.180132
 20
63.196864
 30
0.0
 10
107.872411
 20
63.432319
 30
0.0
 10
107.554228
 20
63.717425
 30
0.0
  0
LWPOLYLINE
  5
2ca
100
AcDbEntity
  8
Layer_1
 62
7
100
AcDbPolyline
 90
3
 70
0
 10
109.352292
 20
65.900239
 30
0.0
 10
109.002822
 20
65.587701
 30
0.0
 10
109.139522
 20
65.009475
 30
0.0
  0
SPLINE
  5
2cb
100
AcDbEntity
  8
Layer_1
 62
7
100
AcDbSpline
 70
8
 71
3
 72
8
 73
4
 74
0
 40
0
 40
0
 40
0
 40
0
 40
1
 40
1
 40
1
 40
1
 10
106.860247
 20
68.022968
 30
0.0
 10
106.772606
 20
70.892733
 30
0.0
 10
106.774875
 20
71.847150
 30
0.0
 10
106.870170
 20
71.961952
 30
0.0
  0
SPLINE
  5
2cc
100
AcDbEntity
  8
Layer_1
 62
7
100
AcDbSpline
 70
8
 71
3
 72
8
 73
4
 74
0
 40
0
 40
0
 40
0
 40
0
 40
1
 40
1
 40
1
 40
1
 10
106.870170
 20
71.961952
 30
0.0
 10
106.972989
 20
72.085842
 30
0.0
 10
109.294989
 20
72.156313
 30
0.0
 10
111.079249
 20
72.144406
 30
0.0
  0
LWPOLYLINE
  5
2cd
100
AcDbEntity
  8
Layer_1
 62
7
100
AcDbPolyline
 90
3
 70
0
 10
107.554228
 20
63.717425
 30
0.0
 10
106.975453
 20
64.235568
 30
0.0
 10
106.860247
 20
68.022968
 30
0.0
  0
SPLINE
  5
2ce
100
AcDbEntity
  8
Layer_1
 62
7
100
AcDbSpline
 70
8
 71
3
 72
8
 73
4
 74
0
 40
0
 40
0
 40
0
 40
0
 40
1
 40
1
 40
1
 40
1
 10
104.631685
 20
72.041327
 30
0.0
 10
104.809996
 20
72.041327
 30
0.0
 10
104.848070
 20
71.983172
 30
0.0
 10
104.820751
 20
71.752492
 30
0.0
  0
SPLINE
  5
2cf
100
AcDbEntity
  8
Layer_1
 62
7
100
AcDbSpline
 70
8
 71
3
 72
8
 73
4
 74
0
 40
0
 40
0
 40
0
 40
0
 40
1
 40
1
 40
1
 40
1
 10
104.820751
 20
71.752492
 30
0.0
 10
104.763339
 20
71.267491
 30
0.0
 10
104.408441
 20
71.299294
 30
0.0
 10
104.408441
 20
71.789424
 30
0.0
  0
SPLINE
  5
2d0
100
AcDbEntity
  8
Layer_1
 62
7
100
AcDbSpline
 70
8
 71
3
 72
8
 73
4
 74
0
 40
0
 40
0
 40
0
 40
0
 40
1
 40
1
 40
1
 40
1
 10
104.408441
 20
71.789424
 30
0.0
 10
104.408441
 20
71.972022
 30
0.0
 10
104.469963
 20
72.041327
 30
0.0
 10
104.631685
 20
72.041327
 30
0.0
  0
LWPOLYLINE
  5
2d1
100
AcDbEntity
  8
Layer_1
 62
7
100
AcDbPolyline
 90
2
 70
0
 10
111.079249
 20
72.144406
 30
0.0
 10
111.079249
 20
72.144406
 30
0.0
  0
SPLINE
  5
2d2
100
AcDbEntity
  8
Layer_1
 62
7
100
AcDbSpline
 70
8
 71
3
 72
8
 73
4
 74
0
 40
0
 40
0
 40
0
 40
0
 40
1
 40
1
 40
1
 40
1
 10
116.014280
 20
70.963701
 30
0.0
 10
116.098475
 20
70.956279
 30
0.0
 10
116.046357
 20
70.738160
 30
0.0
 10
115.407392
 20
67.723107
 30
0.0
  0
SPLINE
  5
2d3
100
AcDbEntity
  8
Layer_1
 62
7
100
AcDbSpline
 70
8
 71
3
 72
8
 73
4
 74
0
 40
0
 40
0
 40
0
 40
0
 40
1
 40
1
 40
1
 40
1
 10
115.407392
 20
67.723107
 30
0.0
 10
115.099132
 20
66.268551
 30
0.0
 10
114.786083
 20
65.012343
 30
0.0
 10
114.711757
 20
64.931201
 30
0.0
  0
SPLINE
  5
2d4
100
AcDbEntity
  8
Layer_1
 62
7
100
AcDbSpline
 70
8
 71
3
 72
8
 73
4
 74
0
 40
0
 40
0
 40
0
 40
0
 40
1
 40
1
 40
1
 40
1
 10
114.711757
 20
64.931201
 30
0.0
 10
114.451265
 20
64.646817
 30
0.0
 10
114.306141
 20
65.186344
 30
0.0
 10
114.369452
 20
66.203958
 30
0.0
  0
SPLINE
  5
2d5
100
AcDbEntity
  8
Layer_1
 62
7
100
AcDbSpline
 70
8
 71
3
 72
8
 73
4
 74
0
 40
0
 40
0
 40
0
 40
0
 40
1
 40
1
 40
1
 40
1
 10
114.369452
 20
66.203958
 30
0.0
 10
114.416575
 20
66.961406
 30
0.0
 10
114.536477
 20
67.439541
 30
0.0
 10
115.029810
 20
68.834910
 30
0.0
  0
SPLINE
  5
2d6
100
AcDbEntity
  8
Layer_1
 62
7
100
AcDbSpline
 70
8
 71
3
 72
8
 73
4
 74
0
 40
0
 40
0
 40
0
 40
0
 40
1
 40
1
 40
1
 40
1
 10
115.029810
 20
68.834910
 30
0.0
 10
115.692501
 20
70.709204
 30
0.0
 10
115.804470
 20
70.961497
 30
0.0
 10
115.971286
 20
70.961497
 30
0.0
  0
SPLINE
  5
2d7
100
AcDbEntity
  8
Layer_1
 62
7
100
AcDbSpline
 70
8
 71
3
 72
8
 73
4
 74
0
 40
0
 40
0
 40
0
 40
0
 40
1
 40
1
 40
1
 40
1
 10
115.971286
 20
70.961497
 30
0.0
 10
115.987570
 20
70.961497
 30
0.0
 10
116.002252
 20
70.964717
 30
0.0
 10
116.014280
 20
70.963701
 30
0.0
  0
LWPOLYLINE
  5
2d8
100
AcDbEntity
  8
Layer_1
 62
7
100
AcDbPolyline
 90
2
 70
0
 10
104.631685
 20
72.041327
 30
0.0
 10
104.631685
 20
72.041327
 30
0.0
  0
SPLINE
  5
2d9
100
AcDbEntity
  8
Layer_1
 62
1
100
AcDbSpline
 70
8
 71
3
 72
8
 73
4
 74
0
 40
0
 40
0
 40
0
 40
0
 40
1
 40
1
 40
1
 40
1
 10
119.922397
 20
254.186008
 30
0.0
 10
118.882676
 20
254.203320
 30
0.0
 10
117.832869
 20
254.106918
 30
0.0
 10
116.800864
 20
254.007966
 30
0.0
  0
SPLINE
  5
2da
100
AcDbEntity
  8
Layer_1
 62
1
100
AcDbSpline
 70
8
 71
3
 72
8
 73
4
 74
0
 40
0
 40
0
 40
0
 40
0
 40
1
 40
1
 40
1
 40
1
 10
116.800864
 20
254.007966
 30
0.0
 10
115.615934
 20
253.894354
 30
0.0
 10
114.422278
 20
253.712242
 30
0.0
 10
113.295134
 20
253.329419
 30
0.0
  0
SPLINE
  5
2db
100
AcDbEntity
  8
Layer_1
 62
1
100
AcDbSpline
 70
8
 71
3
 72
8
 73
4
 74
0
 40
0
 40
0
 40
0
 40
0
 40
1
 40
1
 40
1
 40
1
 10
113.295134
 20
253.329419
 30
0.0
 10
112.576760
 20
253.085426
 30
0.0
 10
112.009750
 20
252.424140
 30
0.0
 10
111.259496
 20
252.311325
 30
0.0
  0
SPLINE
  5
2dc
100
AcDbEntity
  8
Layer_1
 62
1
100
AcDbSpline
 70
8
 71
3
 72
8
 73
4
 74
0
 40
0
 40
0
 40
0
 40
0
 40
1
 40
1
 40
1
 40
1
 10
111.259496
 20
252.311325
 30
0.0
 10
111.032727
 20
252.277229
 30
0.0
 10
110.802406
 20
252.366908
 30
0.0
 10
110.580399
 20
252.424324
 30
0.0
  0
SPLINE
  5
2dd
100
AcDbEntity
  8
Layer_1
 62
1
100
AcDbSpline
 70
8
 71
3
 72
8
 73
4
 74
0
 40
0
 40
0
 40
0
 40
0
 40
1
 40
1
 40
1
 40
1
 10
110.580399
 20
252.424324
 30
0.0
 10
109.379820
 20
252.734802
 30
0.0
 10
108.296764
 20
253.458019
 30
0.0
 10
107.074671
 20
253.668416
 30
0.0
  0
SPLINE
  5
2de
100
AcDbEntity
  8
Layer_1
 62
1
100
AcDbSpline
 70
8
 71
3
 72
8
 73
4
 74
0
 40
0
 40
0
 40
0
 40
0
 40
1
 40
1
 40
1
 40
1
 10
107.074671
 20
253.668416
 30
0.0
 10
105.217022
 20
253.988230
 30
0.0
 10
103.290607
 20
253.898732
 30
0.0
 10
101.419753
 20
253.668416
 30
0.0
  0
SPLINE
  5
2df
100
AcDbEntity
  8
Layer_1
 62
1
100
AcDbSpline
 70
8
 71
3
 72
8
 73
4
 74
0
 40
0
 40
0
 40
0
 40
0
 40
1
 40
1
 40
1
 40
1
 10
101.419753
 20
253.668416
 30
0.0
 10
100.185561
 20
253.516481
 30
0.0
 10
98.992374
 20
253.118396
 30
0.0
 10
97.800473
 20
252.763871
 30
0.0
  0
SPLINE
  5
2e0
100
AcDbEntity
  8
Layer_1
 62
1
100
AcDbSpline
 70
8
 71
3
 72
8
 73
4
 74
0
 40
0
 40
0
 40
0
 40
0
 40
1
 40
1
 40
1
 40
1
 10
97.800473
 20
252.763871
 30
0.0
 10
96.806272
 20
252.468150
 30
0.0
 10
95.864948
 20
252.001589
 30
0.0
 10
94.859740
 20
251.745777
 30
0.0
  0
SPLINE
  5
2e1
100
AcDbEntity
  8
Layer_1
 62
1
100
AcDbSpline
 70
8
 71
3
 72
8
 73
4
 74
0
 40
0
 40
0
 40
0
 40
0
 40
1
 40
1
 40
1
 40
1
 10
94.859740
 20
251.745777
 30
0.0
 10
94.637513
 20
251.689219
 30
0.0
 10
94.409805
 20
251.614843
 30
0.0
 10
94.181193
 20
251.632778
 30
0.0
  0
SPLINE
  5
2e2
100
AcDbEntity
  8
Layer_1
 62
1
100
AcDbSpline
 70
8
 71
3
 72
8
 73
4
 74
0
 40
0
 40
0
 40
0
 40
0
 40
1
 40
1
 40
1
 40
1
 10
94.181193
 20
251.632778
 30
0.0
 10
93.230390
 20
251.707378
 30
0.0
 10
92.417621
 20
252.460236
 30
0.0
 10
91.467009
 20
252.537323
 30
0.0
  0
SPLINE
  5
2e3
100
AcDbEntity
  8
Layer_1
 62
1
100
AcDbSpline
 70
8
 71
3
 72
8
 73
4
 74
0
 40
0
 40
0
 40
0
 40
0
 40
1
 40
1
 40
1
 40
1
 10
91.467009
 20
252.537323
 30
0.0
 10
90.287091
 20
252.633010
 30
0.0
 10
89.112141
 20
252.246747
 30
0.0
 10
87.960731
 20
251.971775
 30
0.0
  0
SPLINE
  5
2e4
100
AcDbEntity
  8
Layer_1
 62
1
100
AcDbSpline
 70
8
 71
3
 72
8
 73
4
 74
0
 40
0
 40
0
 40
0
 40
0
 40
1
 40
1
 40
1
 40
1
 10
87.960731
 20
251.971775
 30
0.0
 10
86.151675
 20
251.539749
 30
0.0
 10
84.372227
 20
250.966508
 30
0.0
 10
82.645360
 20
250.275687
 30
0.0
  0
SPLINE
  5
2e5
100
AcDbEntity
  8
Layer_1
 62
1
100
AcDbSpline
 70
8
 71
3
 72
8
 73
4
 74
0
 40
0
 40
0
 40
0
 40
0
 40
1
 40
1
 40
1
 40
1
 10
82.645360
 20
250.275687
 30
0.0
 10
81.283406
 20
249.730851
 30
0.0
 10
80.045506
 20
248.906604
 30
0.0
 10
78.687083
 20
248.353048
 30
0.0
  0
SPLINE
  5
2e6
100
AcDbEntity
  8
Layer_1
 62
1
100
AcDbSpline
 70
8
 71
3
 72
8
 73
4
 74
0
 40
0
 40
0
 40
0
 40
0
 40
1
 40
1
 40
1
 40
1
 10
78.687083
 20
248.353048
 30
0.0
 10
78.245476
 20
248.173092
 30
0.0
 10
77.793873
 20
248.011012
 30
0.0
 10
77.329992
 20
247.900499
 30
0.0
  0
SPLINE
  5
2e7
100
AcDbEntity
  8
Layer_1
 62
1
100
AcDbSpline
 70
8
 71
3
 72
8
 73
4
 74
0
 40
0
 40
0
 40
0
 40
0
 40
1
 40
1
 40
1
 40
1
 10
77.329992
 20
247.900499
 30
0.0
 10
76.069701
 20
247.600243
 30
0.0
 10
74.737976
 20
247.661225
 30
0.0
 10
73.484161
 20
247.334951
 30
0.0
  0
SPLINE
  5
2e8
100
AcDbEntity
  8
Layer_1
 62
1
100
AcDbSpline
 70
8
 71
3
 72
8
 73
4
 74
0
 40
0
 40
0
 40
0
 40
0
 40
1
 40
1
 40
1
 40
1
 10
73.484161
 20
247.334951
 30
0.0
 10
71.532682
 20
246.827118
 30
0.0
 10
69.624380
 20
246.104837
 30
0.0
 10
67.829244
 20
245.186314
 30
0.0
  0
SPLINE
  5
2e9
100
AcDbEntity
  8
Layer_1
 62
1
100
AcDbSpline
 70
8
 71
3
 72
8
 73
4
 74
0
 40
0
 40
0
 40
0
 40
0
 40
1
 40
1
 40
1
 40
1
 10
67.829244
 20
245.186314
 30
0.0
 10
66.060659
 20
244.281374
 30
0.0
 10
64.420013
 20
243.127763
 30
0.0
 10
62.853423
 20
241.906034
 30
0.0
  0
SPLINE
  5
2ea
100
AcDbEntity
  8
Layer_1
 62
1
100
AcDbSpline
 70
8
 71
3
 72
8
 73
4
 74
0
 40
0
 40
0
 40
0
 40
0
 40
1
 40
1
 40
1
 40
1
 10
62.853423
 20
241.906034
 30
0.0
 10
61.885553
 20
241.151219
 30
0.0
 10
61.149772
 20
240.113720
 30
0.0
 10
60.138688
 20
239.417847
 30
0.0
  0
SPLINE
  5
2eb
100
AcDbEntity
  8
Layer_1
 62
1
100
AcDbSpline
 70
8
 71
3
 72
8
 73
4
 74
0
 40
0
 40
0
 40
0
 40
0
 40
1
 40
1
 40
1
 40
1
 10
60.138688
 20
239.417847
 30
0.0
 10
59.791490
 20
239.178881
 30
0.0
 10
59.397005
 20
239.014151
 30
0.0
 10
59.007595
 20
238.852852
 30
0.0
  0
SPLINE
  5
2ec
100
AcDbEntity
  8
Layer_1
 62
1
100
AcDbSpline
 70
8
 71
3
 72
8
 73
4
 74
0
 40
0
 40
0
 40
0
 40
0
 40
1
 40
1
 40
1
 40
1
 10
59.007595
 20
238.852852
 30
0.0
 10
58.236598
 20
238.533498
 30
0.0
 10
57.378600
 20
238.435494
 30
0.0
 10
56.632960
 20
238.060756
 30
0.0
  0
SPLINE
  5
2ed
100
AcDbEntity
  8
Layer_1
 62
1
100
AcDbSpline
 70
8
 71
3
 72
8
 73
4
 74
0
 40
0
 40
0
 40
0
 40
0
 40
1
 40
1
 40
1
 40
1
 10
56.632960
 20
238.060756
 30
0.0
 10
54.044506
 20
236.759853
 30
0.0
 10
51.757439
 20
234.909147
 30
0.0
 10
49.507400
 20
233.084383
 30
0.0
  0
SPLINE
  5
2ee
100
AcDbEntity
  8
Layer_1
 62
1
100
AcDbSpline
 70
8
 71
3
 72
8
 73
4
 74
0
 40
0
 40
0
 40
0
 40
0
 40
1
 40
1
 40
1
 40
1
 10
49.507400
 20
233.084383
 30
0.0
 10
47.580875
 20
231.521995
 30
0.0
 10
45.707404
 20
229.866098
 30
0.0
 10
44.079033
 20
227.995013
 30
0.0
  0
SPLINE
  5
2ef
100
AcDbEntity
  8
Layer_1
 62
1
100
AcDbSpline
 70
8
 71
3
 72
8
 73
4
 74
0
 40
0
 40
0
 40
0
 40
0
 40
1
 40
1
 40
1
 40
1
 10
44.079033
 20
227.995013
 30
0.0
 10
43.049026
 20
226.811503
 30
0.0
 10
42.177233
 20
225.491648
 30
0.0
 10
41.364298
 20
224.149735
 30
0.0
  0
SPLINE
  5
2f0
100
AcDbEntity
  8
Layer_1
 62
1
100
AcDbSpline
 70
8
 71
3
 72
8
 73
4
 74
0
 40
0
 40
0
 40
0
 40
0
 40
1
 40
1
 40
1
 40
1
 10
41.364298
 20
224.149735
 30
0.0
 10
39.783032
 20
221.539561
 30
0.0
 10
38.703117
 20
218.651177
 30
0.0
 10
37.180020
 20
216.006631
 30
0.0
  0
SPLINE
  5
2f1
100
AcDbEntity
  8
Layer_1
 62
1
100
AcDbSpline
 70
8
 71
3
 72
8
 73
4
 74
0
 40
0
 40
0
 40
0
 40
0
 40
1
 40
1
 40
1
 40
1
 10
37.180020
 20
216.006631
 30
0.0
 10
35.995260
 20
213.949547
 30
0.0
 10
34.280588
 20
212.190015
 30
0.0
 10
33.334743
 20
210.012716
 30
0.0
  0
SPLINE
  5
2f2
100
AcDbEntity
  8
Layer_1
 62
1
100
AcDbSpline
 70
8
 71
3
 72
8
 73
4
 74
0
 40
0
 40
0
 40
0
 40
0
 40
1
 40
1
 40
1
 40
1
 10
33.334743
 20
210.012716
 30
0.0
 10
32.482240
 20
208.050303
 30
0.0
 10
32.062790
 20
205.909013
 30
0.0
 10
31.751103
 20
203.792253
 30
0.0
  0
SPLINE
  5
2f3
100
AcDbEntity
  8
Layer_1
 62
1
100
AcDbSpline
 70
8
 71
3
 72
8
 73
4
 74
0
 40
0
 40
0
 40
0
 40
0
 40
1
 40
1
 40
1
 40
1
 10
31.751103
 20
203.792253
 30
0.0
 10
30.987032
 20
198.603104
 30
0.0
 10
30.981227
 20
193.315896
 30
0.0
 10
31.072557
 20
188.071592
 30
0.0
  0
SPLINE
  5
2f4
100
AcDbEntity
  8
Layer_1
 62
1
100
AcDbSpline
 70
8
 71
3
 72
8
 73
4
 74
0
 40
0
 40
0
 40
0
 40
0
 40
1
 40
1
 40
1
 40
1
 10
31.072557
 20
188.071592
 30
0.0
 10
31.156842
 20
183.232096
 30
0.0
 10
31.372581
 20
178.363373
 30
0.0
 10
32.203650
 20
173.595026
 30
0.0
  0
SPLINE
  5
2f5
100
AcDbEntity
  8
Layer_1
 62
1
100
AcDbSpline
 70
8
 71
3
 72
8
 73
4
 74
0
 40
0
 40
0
 40
0
 40
0
 40
1
 40
1
 40
1
 40
1
 10
32.203650
 20
173.595026
 30
0.0
 10
32.841195
 20
169.937014
 30
0.0
 10
33.922256
 20
166.357005
 30
0.0
 10
35.144383
 20
162.850738
 30
0.0
  0
SPLINE
  5
2f6
100
AcDbEntity
  8
Layer_1
 62
1
100
AcDbSpline
 70
8
 71
3
 72
8
 73
4
 74
0
 40
0
 40
0
 40
0
 40
0
 40
1
 40
1
 40
1
 40
1
 10
35.144383
 20
162.850738
 30
0.0
 10
36.439658
 20
159.134614
 30
0.0
 10
37.960018
 20
155.481543
 30
0.0
 10
39.781206
 20
151.992899
 30
0.0
  0
SPLINE
  5
2f7
100
AcDbEntity
  8
Layer_1
 62
1
100
AcDbSpline
 70
8
 71
3
 72
8
 73
4
 74
0
 40
0
 40
0
 40
0
 40
0
 40
1
 40
1
 40
1
 40
1
 10
39.781206
 20
151.992899
 30
0.0
 10
41.756245
 20
148.209529
 30
0.0
 10
44.153692
 20
144.655505
 30
0.0
 10
46.567217
 20
141.135612
 30
0.0
  0
SPLINE
  5
2f8
100
AcDbEntity
  8
Layer_1
 62
1
100
AcDbSpline
 70
8
 71
3
 72
8
 73
4
 74
0
 40
0
 40
0
 40
0
 40
0
 40
1
 40
1
 40
1
 40
1
 10
46.567217
 20
141.135612
 30
0.0
 10
48.805744
 20
137.870925
 30
0.0
 10
51.206900
 20
134.716383
 30
0.0
 10
53.692227
 20
131.635417
 30
0.0
  0
SPLINE
  5
2f9
100
AcDbEntity
  8
Layer_1
 62
1
100
AcDbSpline
 70
8
 71
3
 72
8
 73
4
 74
0
 40
0
 40
0
 40
0
 40
0
 40
1
 40
1
 40
1
 40
1
 10
53.692227
 20
131.635417
 30
0.0
 10
57.450891
 20
126.975950
 30
0.0
 10
61.421151
 20
122.487666
 30
0.0
 10
65.454609
 20
118.063945
 30
0.0
  0
SPLINE
  5
2fa
100
AcDbEntity
  8
Layer_1
 62
1
100
AcDbSpline
 70
8
 71
3
 72
8
 73
4
 74
0
 40
0
 40
0
 40
0
 40
0
 40
1
 40
1
 40
1
 40
1
 10
65.454609
 20
118.063945
 30
0.0
 10
69.748169
 20
113.354952
 30
0.0
 10
74.273946
 20
108.863047
 30
0.0
 10
78.687083
 20
104.265923
 30
0.0
  0
SPLINE
  5
2fb
100
AcDbEntity
  8
Layer_1
 62
1
100
AcDbSpline
 70
8
 71
3
 72
8
 73
4
 74
0
 40
0
 40
0
 40
0
 40
0
 40
1
 40
1
 40
1
 40
1
 10
78.687083
 20
104.265923
 30
0.0
 10
83.321700
 20
99.438086
 30
0.0
 10
88.704316
 20
95.232346
 30
0.0
 10
92.598105
 20
89.789357
 30
0.0
  0
SPLINE
  5
2fc
100
AcDbEntity
  8
Layer_1
 62
1
100
AcDbSpline
 70
8
 71
3
 72
8
 73
4
 74
0
 40
0
 40
0
 40
0
 40
0
 40
1
 40
1
 40
1
 40
1
 10
92.598105
 20
89.789357
 30
0.0
 10
93.363305
 20
88.719709
 30
0.0
 10
94.407742
 20
86.283076
 30
0.0
 10
94.407742
 20
86.283076
 30
0.0
  0
LWPOLYLINE
  5
2fd
100
AcDbEntity
  8
Layer_1
 62
7
100
AcDbPolyline
 90
2
 70
0
 10
116.014280
 20
70.963701
 30
0.0
 10
116.014280
 20
70.963701
 30
0.0
  0
SPLINE
  5
2fe
100
AcDbEntity
  8
Layer_1
 62
1
100
AcDbSpline
 70
8
 71
3
 72
8
 73
4
 74
0
 40
0
 40
0
 40
0
 40
0
 40
1
 40
1
 40
1
 40
1
 10
104.246937
 20
49.526389
 30
0.0
 10
104.246937
 20
49.526389
 30
0.0
 10
104.736575
 20
49.018536
 30
0.0
 10
105.039033
 20
48.847292
 30
0.0
  0
SPLINE
  5
2ff
100
AcDbEntity
  8
Layer_1
 62
1
100
AcDbSpline
 70
8
 71
3
 72
8
 73
4
 74
0
 40
0
 40
0
 40
0
 40
0
 40
1
 40
1
 40
1
 40
1
 10
105.039033
 20
48.847292
 30
0.0
 10
105.765233
 20
48.436139
 30
0.0
 10
106.589934
 20
48.189420
 30
0.0
 10
107.413668
 20
48.055746
 30
0.0
  0
SPLINE
  5
300
100
AcDbEntity
  8
Layer_1
 62
1
100
AcDbSpline
 70
8
 71
3
 72
8
 73
4
 74
0
 40
0
 40
0
 40
0
 40
0
 40
1
 40
1
 40
1
 40
1
 10
107.413668
 20
48.055746
 30
0.0
 10
108.418418
 20
47.892706
 30
0.0
 10
109.451487
 20
47.992514
 30
0.0
 10
110.467400
 20
48.055746
 30
0.0
  0
SPLINE
  5
301
100
AcDbEntity
  8
Layer_1
 62
1
100
AcDbSpline
 70
8
 71
3
 72
8
 73
4
 74
0
 40
0
 40
0
 40
0
 40
0
 40
1
 40
1
 40
1
 40
1
 10
110.467400
 20
48.055746
 30
0.0
 10
111.377462
 20
48.112408
 30
0.0
 10
112.303664
 20
48.150962
 30
0.0
 10
113.182135
 20
48.395296
 30
0.0
  0
SPLINE
  5
302
100
AcDbEntity
  8
Layer_1
 62
1
100
AcDbSpline
 70
8
 71
3
 72
8
 73
4
 74
0
 40
0
 40
0
 40
0
 40
0
 40
1
 40
1
 40
1
 40
1
 10
113.182135
 20
48.395296
 30
0.0
 10
114.255282
 20
48.693794
 30
0.0
 10
116.235316
 20
49.752387
 30
0.0
 10
116.235316
 20
49.752387
 30
0.0
  0
LWPOLYLINE
  5
303
100
AcDbEntity
  8
Layer_1
 62
1
100
AcDbPolyline
 90
5
 70
0
 10
94.407742
 20
86.283076
 30
0.0
 10
97.800473
 20
73.050605
 30
0.0
 10
100.288660
 20
72.372058
 30
0.0
 10
104.020936
 20
64.907500
 30
0.0
 10
104.246937
 20
49.526389
 30
0.0
  0
SPLINE
  5
304
100
AcDbEntity
  8
Layer_1
 62
1
100
AcDbSpline
 70
8
 71
3
 72
8
 73
4
 74
0
 40
0
 40
0
 40
0
 40
0
 40
1
 40
1
 40
1
 40
1
 10
118.497505
 20
72.598056
 30
0.0
 10
118.497505
 20
72.598056
 30
0.0
 10
120.269869
 20
72.658863
 30
0.0
 10
121.098688
 20
72.937603
 30
0.0
  0
SPLINE
  5
305
100
AcDbEntity
  8
Layer_1
 62
1
100
AcDbSpline
 70
8
 71
3
 72
8
 73
4
 74
0
 40
0
 40
0
 40
0
 40
0
 40
1
 40
1
 40
1
 40
1
 10
121.098688
 20
72.937603
 30
0.0
 10
121.386783
 20
73.034495
 30
0.0
 10
121.890234
 20
73.390152
 30
0.0
 10
121.890234
 20
73.390152
 30
0.0
  0
LWPOLYLINE
  5
306
100
AcDbEntity
  8
Layer_1
 62
1
100
AcDbPolyline
 90
4
 70
0
 10
116.235316
 20
49.752387
 30
0.0
 10
116.348868
 20
59.931129
 30
0.0
 10
116.122317
 20
61.288220
 30
0.0
 10
118.497505
 20
72.598056
 30
0.0
  0
SPLINE
  5
307
100
AcDbEntity
  8
Layer_1
 62
1
100
AcDbSpline
 70
8
 71
3
 72
8
 73
4
 74
0
 40
0
 40
0
 40
0
 40
0
 40
1
 40
1
 40
1
 40
1
 10
124.943966
 20
87.640170
 30
0.0
 10
124.943966
 20
87.640170
 30
0.0
 10
126.304667
 20
89.584935
 30
0.0
 10
127.093156
 20
90.467904
 30
0.0
  0
SPLINE
  5
308
100
AcDbEntity
  8
Layer_1
 62
1
100
AcDbSpline
 70
8
 71
3
 72
8
 73
4
 74
0
 40
0
 40
0
 40
0
 40
0
 40
1
 40
1
 40
1
 40
1
 10
127.093156
 20
90.467904
 30
0.0
 10
133.380322
 20
97.508442
 30
0.0
 10
140.987501
 20
103.262409
 30
0.0
 10
147.563637
 20
110.033840
 30
0.0
  0
SPLINE
  5
309
100
AcDbEntity
  8
Layer_1
 62
1
100
AcDbSpline
 70
8
 71
3
 72
8
 73
4
 74
0
 40
0
 40
0
 40
0
 40
0
 40
1
 40
1
 40
1
 40
1
 10
147.563637
 20
110.033840
 30
0.0
 10
152.938136
 20
115.567964
 30
0.0
 10
158.114715
 20
121.302364
 30
0.0
 10
163.058297
 20
127.224591
 30
0.0
  0
SPLINE
  5
30a
100
AcDbEntity
  8
Layer_1
 62
1
100
AcDbSpline
 70
8
 71
3
 72
8
 73
4
 74
0
 40
0
 40
0
 40
0
 40
0
 40
1
 40
1
 40
1
 40
1
 10
163.058297
 20
127.224591
 30
0.0
 10
166.141276
 20
130.917872
 30
0.0
 10
169.089880
 20
134.728183
 30
0.0
 10
171.879949
 20
138.647425
 30
0.0
  0
SPLINE
  5
30b
100
AcDbEntity
  8
Layer_1
 62
1
100
AcDbSpline
 70
8
 71
3
 72
8
 73
4
 74
0
 40
0
 40
0
 40
0
 40
0
 40
1
 40
1
 40
1
 40
1
 10
171.879949
 20
138.647425
 30
0.0
 10
174.075138
 20
141.731042
 30
0.0
 10
176.150166
 20
144.903533
 30
0.0
 10
178.100411
 20
148.147621
 30
0.0
  0
SPLINE
  5
30c
100
AcDbEntity
  8
Layer_1
 62
1
100
AcDbSpline
 70
8
 71
3
 72
8
 73
4
 74
0
 40
0
 40
0
 40
0
 40
0
 40
1
 40
1
 40
1
 40
1
 10
178.100411
 20
148.147621
 30
0.0
 10
178.987131
 20
149.622607
 30
0.0
 10
179.758210
 20
151.164565
 30
0.0
 10
180.588598
 20
152.671996
 30
0.0
  0
SPLINE
  5
30d
100
AcDbEntity
  8
Layer_1
 62
1
100
AcDbSpline
 70
8
 71
3
 72
8
 73
4
 74
0
 40
0
 40
0
 40
0
 40
0
 40
1
 40
1
 40
1
 40
1
 10
180.588598
 20
152.671996
 30
0.0
 10
181.793532
 20
154.859359
 30
0.0
 10
183.208552
 20
156.942599
 30
0.0
 10
184.207325
 20
159.231458
 30
0.0
  0
SPLINE
  5
30e
100
AcDbEntity
  8
Layer_1
 62
1
100
AcDbSpline
 70
8
 71
3
 72
8
 73
4
 74
0
 40
0
 40
0
 40
0
 40
0
 40
1
 40
1
 40
1
 40
1
 10
184.207325
 20
159.231458
 30
0.0
 10
185.795076
 20
162.870039
 30
0.0
 10
187.047954
 20
166.672812
 30
0.0
 10
187.939604
 20
170.541294
 30
0.0
  0
SPLINE
  5
30f
100
AcDbEntity
  8
Layer_1
 62
1
100
AcDbSpline
 70
8
 71
3
 72
8
 73
4
 74
0
 40
0
 40
0
 40
0
 40
0
 40
1
 40
1
 40
1
 40
1
 10
187.939604
 20
170.541294
 30
0.0
 10
188.888026
 20
174.656077
 30
0.0
 10
189.411396
 20
178.878545
 30
0.0
 10
189.636245
 20
183.095221
 30
0.0
  0
SPLINE
  5
310
100
AcDbEntity
  8
Layer_1
 62
1
100
AcDbSpline
 70
8
 71
3
 72
8
 73
4
 74
0
 40
0
 40
0
 40
0
 40
0
 40
1
 40
1
 40
1
 40
1
 10
189.636245
 20
183.095221
 30
0.0
 10
189.780839
 20
185.806778
 30
0.0
 10
189.467913
 20
188.523534
 30
0.0
 10
189.410247
 20
191.238326
 30
0.0
  0
SPLINE
  5
311
100
AcDbEntity
  8
Layer_1
 62
1
100
AcDbSpline
 70
8
 71
3
 72
8
 73
4
 74
0
 40
0
 40
0
 40
0
 40
0
 40
1
 40
1
 40
1
 40
1
 10
189.410247
 20
191.238326
 30
0.0
 10
189.355792
 20
193.801586
 30
0.0
 10
189.657950
 20
196.390546
 30
0.0
 10
189.297248
 20
198.928881
 30
0.0
  0
SPLINE
  5
312
100
AcDbEntity
  8
Layer_1
 62
1
100
AcDbSpline
 70
8
 71
3
 72
8
 73
4
 74
0
 40
0
 40
0
 40
0
 40
0
 40
1
 40
1
 40
1
 40
1
 10
189.297248
 20
198.928881
 30
0.0
 10
188.615275
 20
203.727940
 30
0.0
 10
187.375938
 20
208.504049
 30
0.0
 10
185.451420
 20
212.952899
 30
0.0
  0
SPLINE
  5
313
100
AcDbEntity
  8
Layer_1
 62
1
100
AcDbSpline
 70
8
 71
3
 72
8
 73
4
 74
0
 40
0
 40
0
 40
0
 40
0
 40
1
 40
1
 40
1
 40
1
 10
185.451420
 20
212.952899
 30
0.0
 10
183.644221
 20
217.130566
 30
0.0
 10
181.043718
 20
220.950560
 30
0.0
 10
178.326409
 20
224.602284
 30
0.0
  0
SPLINE
  5
314
100
AcDbEntity
  8
Layer_1
 62
1
100
AcDbSpline
 70
8
 71
3
 72
8
 73
4
 74
0
 40
0
 40
0
 40
0
 40
0
 40
1
 40
1
 40
1
 40
1
 10
178.326409
 20
224.602284
 30
0.0
 10
175.425715
 20
228.500453
 30
0.0
 10
172.109751
 20
232.099077
 30
0.0
 10
168.600216
 20
235.459570
 30
0.0
  0
SPLINE
  5
315
100
AcDbEntity
  8
Layer_1
 62
1
100
AcDbSpline
 70
8
 71
3
 72
8
 73
4
 74
0
 40
0
 40
0
 40
0
 40
0
 40
1
 40
1
 40
1
 40
1
 10
168.600216
 20
235.459570
 30
0.0
 10
167.226544
 20
236.774901
 30
0.0
 10
165.862229
 20
238.174040
 30
0.0
 10
164.189393
 20
239.078850
 30
0.0
  0
SPLINE
  5
316
100
AcDbEntity
  8
Layer_1
 62
1
100
AcDbSpline
 70
8
 71
3
 72
8
 73
4
 74
0
 40
0
 40
0
 40
0
 40
0
 40
1
 40
1
 40
1
 40
1
 10
164.189393
 20
239.078850
 30
0.0
 10
162.972835
 20
239.736871
 30
0.0
 10
161.476820
 20
239.723073
 30
0.0
 10
160.230563
 20
240.322942
 30
0.0
  0
SPLINE
  5
317
100
AcDbEntity
  8
Layer_1
 62
1
100
AcDbSpline
 70
8
 71
3
 72
8
 73
4
 74
0
 40
0
 40
0
 40
0
 40
0
 40
1
 40
1
 40
1
 40
1
 10
160.230563
 20
240.322942
 30
0.0
 10
158.223788
 20
241.288868
 30
0.0
 10
156.630678
 20
242.964003
 30
0.0
 10
154.689198
 20
244.055221
 30
0.0
  0
SPLINE
  5
318
100
AcDbEntity
  8
Layer_1
 62
1
100
AcDbSpline
 70
8
 71
3
 72
8
 73
4
 74
0
 40
0
 40
0
 40
0
 40
0
 40
1
 40
1
 40
1
 40
1
 10
154.689198
 20
244.055221
 30
0.0
 10
152.409923
 20
245.336290
 30
0.0
 10
150.030155
 20
246.467473
 30
0.0
 10
147.563637
 20
247.334951
 30
0.0
  0
SPLINE
  5
319
100
AcDbEntity
  8
Layer_1
 62
1
100
AcDbSpline
 70
8
 71
3
 72
8
 73
4
 74
0
 40
0
 40
0
 40
0
 40
0
 40
1
 40
1
 40
1
 40
1
 10
147.563637
 20
247.334951
 30
0.0
 10
146.097303
 20
247.850664
 30
0.0
 10
144.488222
 20
247.901930
 30
0.0
 10
143.039812
 20
248.466047
 30
0.0
  0
SPLINE
  5
31a
100
AcDbEntity
  8
Layer_1
 62
1
100
AcDbSpline
 70
8
 71
3
 72
8
 73
4
 74
0
 40
0
 40
0
 40
0
 40
0
 40
1
 40
1
 40
1
 40
1
 10
143.039812
 20
248.466047
 30
0.0
 10
141.200640
 20
249.182358
 30
0.0
 10
139.676612
 20
250.576917
 30
0.0
 10
137.837443
 20
251.293231
 30
0.0
  0
SPLINE
  5
31b
100
AcDbEntity
  8
Layer_1
 62
1
100
AcDbSpline
 70
8
 71
3
 72
8
 73
4
 74
0
 40
0
 40
0
 40
0
 40
0
 40
1
 40
1
 40
1
 40
1
 10
137.837443
 20
251.293231
 30
0.0
 10
136.389034
 20
251.857348
 30
0.0
 10
134.861269
 20
252.279800
 30
0.0
 10
133.313619
 20
252.424324
 30
0.0
  0
SPLINE
  5
31c
100
AcDbEntity
  8
Layer_1
 62
1
100
AcDbSpline
 70
8
 71
3
 72
8
 73
4
 74
0
 40
0
 40
0
 40
0
 40
0
 40
1
 40
1
 40
1
 40
1
 10
133.313619
 20
252.424324
 30
0.0
 10
131.395961
 20
252.603394
 30
0.0
 10
129.470317
 20
252.141904
 30
0.0
 10
127.545152
 20
252.085327
 30
0.0
  0
SPLINE
  5
31d
100
AcDbEntity
  8
Layer_1
 62
1
100
AcDbSpline
 70
8
 71
3
 72
8
 73
4
 74
0
 40
0
 40
0
 40
0
 40
0
 40
1
 40
1
 40
1
 40
1
 10
127.545152
 20
252.085327
 30
0.0
 10
127.243693
 20
252.076493
 30
0.0
 10
126.936875
 20
252.028888
 30
0.0
 10
126.640607
 20
252.085327
 30
0.0
  0
SPLINE
  5
31e
100
AcDbEntity
  8
Layer_1
 62
1
100
AcDbSpline
 70
8
 71
3
 72
8
 73
4
 74
0
 40
0
 40
0
 40
0
 40
0
 40
1
 40
1
 40
1
 40
1
 10
126.640607
 20
252.085327
 30
0.0
 10
124.928235
 20
252.411533
 30
0.0
 10
123.489607
 20
253.681762
 30
0.0
 10
121.777235
 20
254.007966
 30
0.0
  0
SPLINE
  5
31f
100
AcDbEntity
  8
Layer_1
 62
1
100
AcDbSpline
 70
8
 71
3
 72
8
 73
4
 74
0
 40
0
 40
0
 40
0
 40
0
 40
1
 40
1
 40
1
 40
1
 10
121.777235
 20
254.007966
 30
0.0
 10
121.166184
 20
254.124374
 30
0.0
 10
120.546227
 20
254.175620
 30
0.0
 10
119.922397
 20
254.186008
 30
0.0
  0
LWPOLYLINE
  5
320
100
AcDbEntity
  8
Layer_1
 62
1
100
AcDbPolyline
 90
2
 70
0
 10
121.890234
 20
73.390152
 30
0.0
 10
124.943966
 20
87.640170
 30
0.0
  0
LWPOLYLINE
  5
321
100
AcDbEntity
  8
Layer_1
 62
1
100
AcDbPolyline
 90
2
 70
0
 10
119.922397
 20
254.186008
 30
0.0
 10
119.922397
 20
254.186008
 30
0.0
  0
ENDSEC
  0
SECTION
  2
OBJECTS
  0
DICTIONARY
  5
C
330
0
100
AcDbDictionary
  3
ACAD_GROUP
350
D
  3
ACAD_MLINESTYLE
350
17
  0
DICTIONARY
  5
D
330
C
100
AcDbDictionary
  0
DICTIONARY
  5
1A
330
C
100
AcDbDictionary
  0
DICTIONARY
  5
17
330
C
100
AcDbDictionary
  3
STANDARD
350
18
  0
DICTIONARY
  5
19
330
C
100
AcDbDictionary
  0
ENDSEC
  0
EOF
