<?xml version="1.0" encoding="UTF-8" standalone="no"?>
<!-- Created with Inkscape (http://www.inkscape.org/) -->

<svg
   xmlns:dc="http://purl.org/dc/elements/1.1/"
   xmlns:cc="http://creativecommons.org/ns#"
   xmlns:rdf="http://www.w3.org/1999/02/22-rdf-syntax-ns#"
   xmlns:svg="http://www.w3.org/2000/svg"
   xmlns="http://www.w3.org/2000/svg"
   xmlns:sodipodi="http://sodipodi.sourceforge.net/DTD/sodipodi-0.dtd"
   xmlns:inkscape="http://www.inkscape.org/namespaces/inkscape"
   width="210mm"
   height="297mm"
   viewBox="0 0 744.09448819 1052.3622047"
   id="svg2"
   version="1.1"
   inkscape:version="0.91 r13725"
   sodipodi:docname="suit.svg">
  <defs
     id="defs4" />
  <sodipodi:namedview
     id="base"
     pagecolor="#ffffff"
     bordercolor="#666666"
     borderopacity="1.0"
     inkscape:pageopacity="0.0"
     inkscape:pageshadow="2"
     inkscape:zoom="0.7"
     inkscape:cx="225.85844"
     inkscape:cy="557.0503"
     inkscape:document-units="mm"
     inkscape:current-layer="layer1"
     showgrid="false"
     inkscape:window-width="1440"
     inkscape:window-height="837"
     inkscape:window-x="-4"
     inkscape:window-y="-4"
     inkscape:window-maximized="1" />
  <metadata
     id="metadata7">
    <rdf:RDF>
      <cc:Work
         rdf:about="">
        <dc:format>image/svg+xml</dc:format>
        <dc:type
           rdf:resource="http://purl.org/dc/dcmitype/StillImage" />
        <dc:title></dc:title>
      </cc:Work>
    </rdf:RDF>
  </metadata>
  <g
     inkscape:label="Layer 1"
     inkscape:groupmode="layer"
     id="layer1">
    <path
       style="fill:#000000"
       d="M 194.91406 515.6875 C 194.86132 515.67192 194.81969 515.68112 194.78906 515.71484 C 194.60931 515.91273 192.805 518.76026 190.7793 522.04102 C 171.60379 553.09689 148.4005 585.73792 123.25781 617.03125 C 115.57439 626.59423 102.75573 641.9415 99.310547 645.70117 L 98.595703 646.48242 L 102.56445 651.07227 C 136.49474 690.31699 168.72533 734.24016 191.55469 772.34766 C 193.34809 775.34136 194.89393 777.79102 194.99023 777.79102 C 195.08642 777.79102 196.68925 775.27495 198.55273 772.19922 C 222.51437 732.65107 250.60291 694.26674 285.43164 653.47852 C 290.78751 647.20627 291.32407 646.48063 290.9375 646.02344 C 290.70197 645.74482 288.9038 643.6364 286.93945 641.33984 C 283.66047 637.50624 277.5252 630.17913 272.33203 623.89258 C 246.94405 593.15951 219.30258 554.56906 198.37305 520.63672 C 196.2361 517.17211 195.28326 515.79658 194.91406 515.6875 z "
       id="path4152" />
    <path
       style="fill:#000000"
       d="M 528.26562 517.72656 C 525.12421 517.72656 521.98215 517.82722 520.35352 518.0293 C 506.39337 519.76134 494.76047 525.6792 484.86328 536.08594 C 476.82098 544.54228 472.04607 554.32057 470.38672 565.73047 C 469.68629 570.54684 469.90174 579.23505 470.83008 583.62891 C 472.59352 591.97436 476.69957 601.35224 482.22461 609.65234 C 483.18002 611.08762 483.90378 612.26172 483.83398 612.26172 C 483.76424 612.26172 482.85924 611.61886 481.82227 610.83398 C 475.82699 606.29617 469.64585 603.62146 462.40039 602.42969 C 458.96138 601.86451 452.09437 601.58201 448.08789 601.8418 C 440.78038 602.31576 435.09984 603.85704 428.35156 607.19531 C 415.95367 613.32836 406.49696 624.49571 401.83203 638.51562 C 399.47047 645.61289 398.66097 650.85222 398.66797 659.08594 C 398.67346 671.74644 401.95422 683.18669 408.37695 692.93945 C 415.32704 703.49309 425.65602 711.41587 437.52148 715.29297 C 452.81542 720.29024 470.67954 718.76739 486.21094 711.14258 C 501.53539 703.61939 514.08915 690.83933 523.04102 673.64844 L 525.42188 669.07812 L 525.42188 671.31445 C 525.43122 680.17851 523.51579 695.27909 521.21484 704.48438 C 518.08633 717.00031 512.9639 727.5991 505.73438 736.51367 C 500.16853 743.37676 490.42609 751.64949 483.375 755.5 C 475.62871 759.7302 462.4284 763.88726 445.19141 767.52539 L 439.96289 768.62891 L 439.24805 771.79297 C 438.85537 773.53332 438.47745 775.12505 438.40625 775.33008 L 438.4082 775.33008 C 438.30493 775.6278 456.39844 775.70312 528.23242 775.70312 C 577.70751 775.70312 618.1875 775.63749 618.1875 775.55859 C 618.1875 775.35397 616.63496 768.70745 616.56836 768.62695 C 616.53799 768.59019 614.20671 768.08471 611.38672 767.50391 C 591.23031 763.35231 577.31288 758.55312 568.93164 752.86133 C 554.95164 743.36733 544.85003 731.00948 539.04102 716.29297 C 534.67072 705.22119 531.83387 689.60291 531.24805 673.40234 L 531.08008 668.7793 L 532.23047 671.16602 C 532.86315 672.47831 534.29349 675.16239 535.41016 677.13086 C 548.02359 699.36506 567.71406 713.8918 590.00391 717.41016 C 594.07545 718.05288 602.96439 718.29992 606.82617 717.87695 C 617.98253 716.6548 627.633 712.78406 636.19336 706.09961 C 639.37876 703.61224 644.39643 698.35075 646.76953 695.00781 C 656.53528 681.25098 660.17761 663.59016 656.81055 646.32617 C 654.51041 634.53252 649.25473 624.50199 641.15039 616.4375 C 637.15491 612.46167 633.4527 609.82197 628.17969 607.19141 C 621.54066 603.87939 615.86245 602.32957 608.63086 601.85547 C 604.59512 601.59087 597.53155 601.86914 594.17383 602.42383 C 586.94781 603.6174 580.94733 606.19625 575.05469 610.64062 C 573.66662 611.68756 572.62617 612.37843 572.74414 612.17773 C 572.86219 611.9771 573.58757 610.87484 574.35547 609.72656 C 578.74666 603.15995 582.57765 595.14431 584.46875 588.56836 C 590.00176 569.32909 585.24757 550.14741 571.39062 535.80078 C 561.38405 525.44055 550.12678 519.76017 536.17578 518.0293 C 534.54715 517.82722 531.40704 517.72656 528.26562 517.72656 z "
       id="path4150" />
    <path
       style="fill:#000000"
       d="M 195.0332 208.57812 L 194.67383 209.91992 C 188.44142 233.13021 180.63991 248.0153 165.70703 265.1875 C 160.43966 271.24476 147.15682 284.46341 136.0625 294.68945 C 118.85753 310.54777 108.37541 321.83978 102.6582 330.67773 C 100.5745 333.89879 97.599845 340.24966 96.261719 344.33398 C 90.963632 360.50576 93.030674 377.22708 101.85352 389.58594 C 103.92712 392.49058 109.08117 397.75515 111.86914 399.81445 C 117.8577 404.23793 123.90801 406.81368 131.43945 408.14844 C 135.38203 408.84729 143.1263 408.83848 147.09766 408.12891 C 158.70607 406.05497 168.22427 400.72911 178.28711 390.67773 C 183.15831 385.81211 186.0595 382.35846 189.45117 377.38867 C 190.57059 375.74829 191.61503 374.27144 191.77148 374.10742 C 192.27361 373.58083 191.29454 386.09147 190.32422 392.59961 C 189.70356 396.76295 188.22847 403.99395 187.3125 407.36328 C 182.28912 425.84186 172.35789 440.18459 156.64062 451.66602 C 148.76117 457.42192 138.54144 461.58898 122.78906 465.46875 C 117.34923 466.80853 108.18215 468.80273 107.46289 468.80273 C 107.20977 468.80273 106.88173 469.03715 106.73242 469.32422 C 106.43566 469.89499 105.19336 475.14956 105.19336 475.83398 C 105.19336 476.20048 117.48238 476.25781 194.9668 476.25781 C 280.26918 476.25781 284.74138 476.23228 284.73438 475.73633 C 284.71831 474.4485 283.31888 469.2676 282.93164 469.0625 C 282.69658 468.938 280.1539 468.35157 277.2832 467.75977 C 262.50994 464.71448 249.40564 460.69849 241.86328 456.90625 C 232.46692 452.18189 222.57477 443.70646 215.54492 434.35352 C 205.47272 420.95274 200.10292 404.05105 198.25586 379.9375 C 197.73813 373.17864 197.59765 373.38102 200.2168 377.12695 C 211.91749 393.86133 225.93726 404.47575 240.55469 407.66602 C 247.0609 409.08641 254.53573 409.08025 261.0293 407.65039 C 269.79518 405.72012 277.37219 401.39192 283.91406 394.57617 C 290.16969 388.05869 293.79586 381.18668 295.66992 372.29492 C 296.40011 368.8307 296.48405 367.80734 296.50195 362.17773 C 296.52284 355.64114 296.32811 353.87628 295.00586 348.56445 C 292.89179 340.07129 288.98081 332.23429 283.04297 324.59766 C 277.33633 317.25847 267.73389 307.34156 254.61523 295.23438 C 224.75753 267.67881 214.60236 255.74696 205.60156 237.65625 C 201.51813 229.44885 198.7479 222.1393 196.21875 212.90234 L 195.0332 208.57812 z "
       id="path4148" />
    <path
       style="fill:#000000"
       d="M 588.44727 210.82812 C 585.97615 210.79804 583.64555 210.88118 581.9043 211.0957 C 571.66555 212.35715 562.83934 215.92122 554.50977 222.16016 C 546.83707 227.90713 541.11766 234.87024 536.27148 244.36719 C 533.87625 249.06105 531.323 255.31612 529.84766 260.10156 C 529.30403 261.86493 528.77317 263.30657 528.66797 263.30664 C 528.56271 263.30664 528.38523 262.93748 528.27344 262.48633 C 527.27358 258.45148 521.79923 246.27901 518.58203 240.9375 C 508.63887 224.42884 493.71567 214.0418 476.3418 211.53711 C 469.96923 210.61839 460.02044 211.03764 454.36328 212.46289 C 436.58238 216.94257 422.38457 230.24405 416.75977 247.69336 C 414.78477 253.82009 414.34294 257.07385 414.33594 265.54297 C 414.32955 273.3755 414.52326 275.39498 415.86523 281.5 C 417.88207 290.67552 422.07175 300.56094 428.40625 311.08984 C 433.56198 319.65928 437.80503 325.57349 461.30273 356.95703 C 485.33239 389.05111 495.33935 403.14471 504.63086 417.96875 C 514.28839 433.37675 522.08237 450.6783 527.02344 467.67969 C 527.86899 470.589 528.64153 472.97266 528.74023 472.97266 C 528.8389 472.975 529.16 472.0721 529.45312 470.96484 C 531.48612 463.28574 536.5147 449.84955 540.61133 441.15039 C 550.70647 419.71329 567.07822 395.31502 596.70898 357.55664 C 611.45654 338.76378 618.85294 328.41685 625.79883 316.85352 C 634.83453 301.81105 640.10605 287.42322 641.91992 272.85156 C 642.53238 267.93131 642.52673 259.62569 641.9082 255.49609 C 640.31289 244.84591 635.75131 235.75989 627.89453 227.58203 C 619.61395 218.96305 611.14717 214.20348 599.89062 211.83594 C 597.07236 211.24318 592.56579 210.87826 588.44727 210.82812 z "
       id="path4144" />
  </g>
</svg>
