<?xml version="1.0" encoding="UTF-8" standalone="no"?>
<!-- Created with Inkscape (http://www.inkscape.org/) -->

<svg
   xmlns:dc="http://purl.org/dc/elements/1.1/"
   xmlns:cc="http://creativecommons.org/ns#"
   xmlns:rdf="http://www.w3.org/1999/02/22-rdf-syntax-ns#"
   xmlns:svg="http://www.w3.org/2000/svg"
   xmlns="http://www.w3.org/2000/svg"
   xmlns:sodipodi="http://sodipodi.sourceforge.net/DTD/sodipodi-0.dtd"
   xmlns:inkscape="http://www.inkscape.org/namespaces/inkscape"
   width="210mm"
   height="297mm"
   viewBox="0 0 744.09448819 1052.3622047"
   id="svg2"
   version="1.1"
   inkscape:version="0.91 r13725"
   sodipodi:docname="suzuki.svg">
  <defs
     id="defs4" />
  <sodipodi:namedview
     id="base"
     pagecolor="#ffffff"
     bordercolor="#666666"
     borderopacity="1.0"
     inkscape:pageopacity="0.0"
     inkscape:pageshadow="2"
     inkscape:zoom="0.49497475"
     inkscape:cx="138.06071"
     inkscape:cy="407.66898"
     inkscape:document-units="mm"
     inkscape:current-layer="layer1"
     showgrid="false"
     inkscape:window-width="1440"
     inkscape:window-height="837"
     inkscape:window-x="-4"
     inkscape:window-y="-4"
     inkscape:window-maximized="1" />
  <metadata
     id="metadata7">
    <rdf:RDF>
      <cc:Work
         rdf:about="">
        <dc:format>image/svg+xml</dc:format>
        <dc:type
           rdf:resource="http://purl.org/dc/dcmitype/StillImage" />
        <dc:title></dc:title>
      </cc:Work>
    </rdf:RDF>
  </metadata>
  <g
     inkscape:label="Layer 1"
     inkscape:groupmode="layer"
     id="layer1">
    <path
       style="fill:none;fill-rule:evenodd;stroke:#ff0000;stroke-width:1px;stroke-linecap:butt;stroke-linejoin:miter;stroke-opacity:1"
       d="M 388.13867 541.57617 C 381.62135 541.62696 372.14258 543.07617 372.14258 543.07617 L 195.71484 601.64844 C 195.71484 601.64844 185.76135 607.34955 182.14258 611.64844 C 178.37111 616.12874 175.50654 621.63374 174.28516 627.36133 C 173.14199 632.72216 173.21421 638.60871 175 643.79102 C 177.66912 651.53673 189.28516 663.79102 189.28516 663.79102 L 222.14258 683.07617 C 222.14258 683.07617 225.57339 685.70836 226.07227 687.89844 C 226.55113 690.00063 226.29011 693.49129 225 695.21875 C 222.06292 699.1515 215.98507 699.64567 211.42773 701.46875 C 204.5712 704.21158 195.75179 706.26396 188.75 708.61133 C 181.74119 710.96105 175.4619 713.58987 170.17773 719.32617 C 166.5706 723.24194 164.8396 727.11359 163.21484 732.18359 C 161.81716 736.54496 161.71109 743.74447 162.5 748.25586 C 163.43615 753.60925 166.56568 759.75803 171.05273 762.82422 C 223.90013 798.93712 260.24652 820.51043 306.42773 848.07617 C 317.50926 854.69078 327.83797 863.04413 340 867.36133 C 348.41044 870.34681 357.50339 871.57954 366.42773 871.64844 C 376.29332 871.72467 386.54802 871.00894 395.71484 867.36133 C 447.7245 846.66591 552.14258 807.36133 552.14258 807.36133 C 552.14258 807.36133 570.5875 799.5783 575.71484 791.64844 C 580.43308 784.35128 580.63313 774.60016 580 765.93359 C 579.48979 758.94961 577.48874 751.73855 573.57227 745.93359 C 569.41209 739.76742 562.43095 736.04049 556.42773 731.64844 C 548.21872 725.6426 536.74226 723.41193 530.71484 715.21875 C 529.10615 713.03203 527.87549 709.98509 528.57227 707.36133 C 529.43652 704.10696 532.85055 701.98898 535.71484 700.21875 C 541.47911 696.65624 548.75354 696.41782 555 693.79102 C 564.12882 689.95211 575.43284 688.10125 581.42773 680.21875 C 585.69605 674.60645 586.89524 666.45735 585.71484 659.50586 C 584.55275 652.66221 575 641.64844 575 641.64844 C 575 641.64844 524.59749 611.99559 499.28516 597.36133 C 469.37212 580.06718 409.28516 545.93359 409.28516 545.93359 C 409.28516 545.93359 397.05014 542.12457 390.71484 541.64844 C 389.94093 541.59028 389.06972 541.56892 388.13867 541.57617 z M 381.14453 569.60547 C 383.23851 569.60832 385.32689 569.73499 387.39258 570.01367 C 394.20068 570.93217 403.55626 573.04571 407.0918 576.07617 C 410.62733 579.10663 545.98828 654.36133 545.98828 654.36133 C 545.98828 654.36133 548.68578 659.41333 548.00781 661.9375 C 547.32844 664.4669 544.67467 666.11014 542.45117 667.49414 C 535.35477 671.91124 526.85623 673.69053 518.71289 675.57617 C 510.94144 677.3757 502.94947 678.41746 494.97461 678.60547 C 486.53212 678.80451 477.98476 678.32391 469.7207 676.58594 C 461.69662 674.89844 446.48828 668.50391 446.48828 668.50391 L 326.25195 599.21875 C 326.25195 599.21875 324.08291 597.74736 323.24805 597.28906 C 321.88739 596.54213 320.25428 596.2228 318.70312 596.2793 C 315.19002 596.40721 312.38238 598.10263 309.04883 599.21875 C 304.45218 600.75776 298.75316 602.01572 293.17969 604.89453 C 290.83833 606.10389 291.00757 608.82849 291.42969 611.42969 C 292.03991 615.19002 299.50977 619.51172 299.50977 619.51172 L 525.2793 748.30664 C 525.2793 748.30664 536.85118 754.66219 540.43164 759.92383 C 542.50026 762.96376 544.20063 766.92706 543.46289 770.5293 C 542.76652 773.92953 536.89648 778.61133 536.89648 778.61133 L 386.88867 835.68359 C 386.88867 835.68359 375.83954 838.27728 370.2207 838.20898 C 364.40848 838.13836 358.57777 836.9735 353.04883 835.17969 C 346.45964 833.0419 334.36133 826.08789 334.36133 826.08789 L 202.53516 749.31641 C 202.53516 749.31641 199.82132 745.08738 200.00977 742.75 C 200.19773 740.41865 201.80276 738.25003 203.54492 736.68945 C 209.72033 731.15771 218.33293 728.97203 226.27344 726.58789 C 236.08173 723.64295 246.33828 721.6809 256.57812 721.53711 C 266.4344 721.39871 276.37549 722.93958 285.87305 725.57812 C 294.52081 727.98057 302.59584 732.16476 310.62109 736.18359 C 352.16659 756.98847 431.33594 805.88477 431.33594 805.88477 C 431.33594 805.88477 434.22345 806.95394 437.06445 806.56836 C 441.51975 805.96367 445.89418 804.26506 449.97656 802.11133 C 454.66102 799.63996 448.96672 802.36443 462.02734 796.56641 C 462.95429 796.15491 463.70457 794.30104 463.57227 793.44141 C 463.39012 792.25784 463.05125 791.68168 462.76758 790.31445 C 462.17913 787.4783 458.60938 784.67188 458.60938 784.67188 L 215.66797 645.27148 C 215.66797 645.27148 211.33473 640.6444 210.61719 637.69531 C 209.89634 634.73264 210.19304 631.29442 211.62695 628.60352 C 212.97524 626.07329 218.19336 623.04688 218.19336 623.04688 L 354.56445 575.57031 C 354.56445 575.57031 365.16029 571.45549 370.72656 570.51953 C 374.15246 569.94347 377.65456 569.60071 381.14453 569.60547 z "
       id="path4146" />
  </g>
</svg>
