  0
SECTION
  2
HEADER
  9
$ACADVER
  1
AC1014
  9
$HANDSEED
  5
FFFF
  9
$MEASUREMENT
 70
     1
  0
ENDSEC
  0
SECTION
  2
TABLES
  0
TABLE
  2
VPORT
  5
8
330
0
100
AcDbSymbolTable
 70
     4
  0
VPORT
  5
2E
330
8
100
AcDbSymbolTableRecord
100
AcDbViewportTableRecord
  2
*ACTIVE
 70
     0
 10
0.0
 20
0.0
 11
1.0
 21
1.0
 12
210.0
 22
148.5
 13
0.0
 23
0.0
 14
10.0
 24
10.0
 15
10.0
 25
10.0
 16
0.0
 26
0.0
 36
1.0
 17
0.0
 27
0.0
 37
0.0
 40
341.0
 41
1.24
 42
50.0
 43
0.0
 44
0.0
 50
0.0
 51
0.0
 71
     0
 72
   100
 73
     1
 74
     3
 75
     0
 76
     0
 77
     0
 78
     0
  0
ENDTAB
  0
TABLE
  2
LTYPE
  5
5
330
0
100
AcDbSymbolTable
 70
     1
  0
LTYPE
  5
14
330
5
100
AcDbSymbolTableRecord
100
AcDbLinetypeTableRecord
  2
BYBLOCK
 70
     0
  3

 72
    65
 73
     0
 40
0.0
  0
LTYPE
  5
15
330
5
100
AcDbSymbolTableRecord
100
AcDbLinetypeTableRecord
  2
BYLAYER
 70
     0
  3

 72
    65
 73
     0
 40
0.0
  0
LTYPE
  5
16
330
5
100
AcDbSymbolTableRecord
100
AcDbLinetypeTableRecord
  2
CONTINUOUS
 70
     0
  3
Solid line
 72
    65
 73
     0
 40
0.0
  0
ENDTAB
  0
TABLE
  2
LAYER
  5
2
100
AcDbSymbolTable
 70
2
  0
LAYER
  5
50
100
AcDbSymbolTableRecord
100
AcDbLayerTableRecord
  2
0
 70
0
  6
CONTINUOUS
  0
LAYER
  5
51
100
AcDbSymbolTableRecord
100
AcDbLayerTableRecord
  2
Layer_1
 70
0
  6
CONTINUOUS
  0
ENDTAB
  0
TABLE
  2
STYLE
  5
3
330
0
100
AcDbSymbolTable
 70
     1
  0
STYLE
  5
11
330
3
100
AcDbSymbolTableRecord
100
AcDbTextStyleTableRecord
  2
STANDARD
 70
     0
 40
0.0
 41
1.0
 50
0.0
 71
     0
 42
2.5
  3
txt
  4

  0
ENDTAB
  0
TABLE
  2
VIEW
  5
6
330
0
100
AcDbSymbolTable
 70
     0
  0
ENDTAB
  0
TABLE
  2
UCS
  5
7
330
0
100
AcDbSymbolTable
 70
     0
  0
ENDTAB
  0
TABLE
  2
APPID
  5
9
330
0
100
AcDbSymbolTable
 70
     2
  0
APPID
  5
12
330
9
100
AcDbSymbolTableRecord
100
AcDbRegAppTableRecord
  2
ACAD
 70
     0
  0
ENDTAB
  0
TABLE
  2
DIMSTYLE
  5
A
330
0
100
AcDbSymbolTable
 70
     1
  0
DIMSTYLE
105
27
330
A
100
AcDbSymbolTableRecord
100
AcDbDimStyleTableRecord
  2
ISO-25
 70
     0
  3

  4

  5

  6

  7

 40
1.0
 41
2.5
 42
0.625
 43
3.75
 44
1.25
 45
0.0
 46
0.0
 47
0.0
 48
0.0
140
2.5
141
2.5
142
0.0
143
0.03937007874016
144
1.0
145
0.0
146
1.0
147
0.625
 71
     0
 72
     0
 73
     0
 74
     0
 75
     0
 76
     0
 77
     1
 78
     8
170
     0
171
     3
172
     1
173
     0
174
     0
175
     0
176
     0
177
     0
178
     0
270
     2
271
     2
272
     2
273
     2
274
     3
340
11
275
     0
280
     0
281
     0
282
     0
283
     0
284
     8
285
     0
286
     0
287
     3
288
     0
  0
ENDTAB
  0
TABLE
  2
BLOCK_RECORD
  5
1
330
0
100
AcDbSymbolTable
 70
     1
  0
BLOCK_RECORD
  5
1F
330
1
100
AcDbSymbolTableRecord
100
AcDbBlockTableRecord
  2
*MODEL_SPACE
  0
BLOCK_RECORD
  5
1B
330
1
100
AcDbSymbolTableRecord
100
AcDbBlockTableRecord
  2
*PAPER_SPACE
  0
ENDTAB
  0
ENDSEC
  0
SECTION
  2
BLOCKS
  0
BLOCK
  5
20
330
1F
100
AcDbEntity
  8
0
100
AcDbBlockBegin
  2
*MODEL_SPACE
 70
     0
 10
0.0
 20
0.0
 30
0.0
  3
*MODEL_SPACE
  1

  0
ENDBLK
  5
21
330
1F
100
AcDbEntity
  8
0
100
AcDbBlockEnd
  0
BLOCK
  5
1C
330
1B
100
AcDbEntity
 67
     1
  8
0
100
AcDbBlockBegin
  2
*PAPER_SPACE
  1

  0
ENDBLK
  5
1D
330
1B
100
AcDbEntity
 67
     1
  8
0
100
AcDbBlockEnd
  0
ENDSEC
  0
SECTION
  2
ENTITIES
  0
SPLINE
  5
100
100
AcDbEntity
  8
Layer_1
 62
1
100
AcDbSpline
 70
8
 71
3
 72
8
 73
4
 74
0
 40
0
 40
0
 40
0
 40
0
 40
1
 40
1
 40
1
 40
1
 10
109.541358
 20
144.155170
 30
0.0
 10
107.702025
 20
144.140836
 30
0.0
 10
105.026906
 20
143.731836
 30
0.0
 10
105.026906
 20
143.731836
 30
0.0
  0
SPLINE
  5
101
100
AcDbEntity
  8
Layer_1
 62
1
100
AcDbSpline
 70
8
 71
3
 72
8
 73
4
 74
0
 40
0
 40
0
 40
0
 40
0
 40
1
 40
1
 40
1
 40
1
 10
55.235077
 20
127.201440
 30
0.0
 10
55.235077
 20
127.201440
 30
0.0
 10
52.425981
 20
125.592460
 30
0.0
 10
51.404684
 20
124.379218
 30
0.0
  0
SPLINE
  5
102
100
AcDbEntity
  8
Layer_1
 62
1
100
AcDbSpline
 70
8
 71
3
 72
8
 73
4
 74
0
 40
0
 40
0
 40
0
 40
0
 40
1
 40
1
 40
1
 40
1
 10
51.404684
 20
124.379218
 30
0.0
 10
50.340291
 20
123.114778
 30
0.0
 10
49.531846
 20
121.561144
 30
0.0
 10
49.187145
 20
119.944691
 30
0.0
  0
SPLINE
  5
103
100
AcDbEntity
  8
Layer_1
 62
1
100
AcDbSpline
 70
8
 71
3
 72
8
 73
4
 74
0
 40
0
 40
0
 40
0
 40
0
 40
1
 40
1
 40
1
 40
1
 10
49.187145
 20
119.944691
 30
0.0
 10
48.864517
 20
118.431746
 30
0.0
 10
48.884899
 20
116.770431
 30
0.0
 10
49.388889
 20
115.307868
 30
0.0
  0
SPLINE
  5
104
100
AcDbEntity
  8
Layer_1
 62
1
100
AcDbSpline
 70
8
 71
3
 72
8
 73
4
 74
0
 40
0
 40
0
 40
0
 40
0
 40
1
 40
1
 40
1
 40
1
 10
49.388889
 20
115.307868
 30
0.0
 10
50.142174
 20
113.121856
 30
0.0
 10
53.420478
 20
109.663423
 30
0.0
 10
53.420478
 20
109.663423
 30
0.0
  0
LWPOLYLINE
  5
105
100
AcDbEntity
  8
Layer_1
 62
1
100
AcDbPolyline
 90
2
 70
0
 10
105.026906
 20
143.731836
 30
0.0
 10
55.235077
 20
127.201440
 30
0.0
  0
SPLINE
  5
106
100
AcDbEntity
  8
Layer_1
 62
1
100
AcDbSpline
 70
8
 71
3
 72
8
 73
4
 74
0
 40
0
 40
0
 40
0
 40
0
 40
1
 40
1
 40
1
 40
1
 10
62.693573
 20
104.220725
 30
0.0
 10
62.693573
 20
104.220725
 30
0.0
 10
63.661823
 20
103.477863
 30
0.0
 10
63.802618
 20
102.859774
 30
0.0
  0
SPLINE
  5
107
100
AcDbEntity
  8
Layer_1
 62
1
100
AcDbSpline
 70
8
 71
3
 72
8
 73
4
 74
0
 40
0
 40
0
 40
0
 40
0
 40
1
 40
1
 40
1
 40
1
 10
63.802618
 20
102.859774
 30
0.0
 10
63.937763
 20
102.266489
 30
0.0
 10
63.864098
 20
101.281347
 30
0.0
 10
63.500000
 20
100.793819
 30
0.0
  0
SPLINE
  5
108
100
AcDbEntity
  8
Layer_1
 62
1
100
AcDbSpline
 70
8
 71
3
 72
8
 73
4
 74
0
 40
0
 40
0
 40
0
 40
0
 40
1
 40
1
 40
1
 40
1
 10
63.500000
 20
100.793819
 30
0.0
 10
62.671091
 20
99.683910
 30
0.0
 10
60.955786
 20
99.544444
 30
0.0
 10
59.669604
 20
99.029931
 30
0.0
  0
SPLINE
  5
109
100
AcDbEntity
  8
Layer_1
 62
1
100
AcDbSpline
 70
8
 71
3
 72
8
 73
4
 74
0
 40
0
 40
0
 40
0
 40
0
 40
1
 40
1
 40
1
 40
1
 10
59.669604
 20
99.029931
 30
0.0
 10
57.734539
 20
98.255843
 30
0.0
 10
55.245505
 20
97.676616
 30
0.0
 10
53.269444
 20
97.014136
 30
0.0
  0
SPLINE
  5
10a
100
AcDbEntity
  8
Layer_1
 62
1
100
AcDbSpline
 70
8
 71
3
 72
8
 73
4
 74
0
 40
0
 40
0
 40
0
 40
0
 40
1
 40
1
 40
1
 40
1
 10
53.269444
 20
97.014136
 30
0.0
 10
51.291403
 20
96.350993
 30
0.0
 10
49.519247
 20
95.609081
 30
0.0
 10
48.027937
 20
93.990170
 30
0.0
  0
SPLINE
  5
10b
100
AcDbEntity
  8
Layer_1
 62
1
100
AcDbSpline
 70
8
 71
3
 72
8
 73
4
 74
0
 40
0
 40
0
 40
0
 40
0
 40
1
 40
1
 40
1
 40
1
 10
48.027937
 20
93.990170
 30
0.0
 10
47.009925
 20
92.885052
 30
0.0
 10
46.521398
 20
91.792387
 30
0.0
 10
46.062855
 20
90.361520
 30
0.0
  0
SPLINE
  5
10c
100
AcDbEntity
  8
Layer_1
 62
1
100
AcDbSpline
 70
8
 71
3
 72
8
 73
4
 74
0
 40
0
 40
0
 40
0
 40
0
 40
1
 40
1
 40
1
 40
1
 10
46.062855
 20
90.361520
 30
0.0
 10
45.668398
 20
89.130645
 30
0.0
 10
45.638463
 20
87.098783
 30
0.0
 10
45.861111
 20
85.825568
 30
0.0
  0
SPLINE
  5
10d
100
AcDbEntity
  8
Layer_1
 62
1
100
AcDbSpline
 70
8
 71
3
 72
8
 73
4
 74
0
 40
0
 40
0
 40
0
 40
0
 40
1
 40
1
 40
1
 40
1
 10
45.861111
 20
85.825568
 30
0.0
 10
46.125313
 20
84.314723
 30
0.0
 10
47.008536
 20
82.579400
 30
0.0
 10
48.274882
 20
81.714053
 30
0.0
  0
SPLINE
  5
10e
100
AcDbEntity
  8
Layer_1
 62
1
100
AcDbSpline
 70
8
 71
3
 72
8
 73
4
 74
0
 40
0
 40
0
 40
0
 40
0
 40
1
 40
1
 40
1
 40
1
 10
48.274882
 20
81.714053
 30
0.0
 10
63.189592
 20
71.522191
 30
0.0
 10
73.447351
 20
65.433723
 30
0.0
 10
86.480715
 20
57.654059
 30
0.0
  0
SPLINE
  5
10f
100
AcDbEntity
  8
Layer_1
 62
1
100
AcDbSpline
 70
8
 71
3
 72
8
 73
4
 74
0
 40
0
 40
0
 40
0
 40
0
 40
1
 40
1
 40
1
 40
1
 10
86.480715
 20
57.654059
 30
0.0
 10
89.608169
 20
55.787269
 30
0.0
 10
92.523160
 20
53.429768
 30
0.0
 10
95.955556
 20
52.211358
 30
0.0
  0
SPLINE
  5
110
100
AcDbEntity
  8
Layer_1
 62
1
100
AcDbSpline
 70
8
 71
3
 72
8
 73
4
 74
0
 40
0
 40
0
 40
0
 40
0
 40
1
 40
1
 40
1
 40
1
 10
95.955556
 20
52.211358
 30
0.0
 10
98.329169
 20
51.368789
 30
0.0
 10
100.895401
 20
51.020885
 30
0.0
 10
103.414048
 20
51.001440
 30
0.0
  0
SPLINE
  5
111
100
AcDbEntity
  8
Layer_1
 62
1
100
AcDbSpline
 70
8
 71
3
 72
8
 73
4
 74
0
 40
0
 40
0
 40
0
 40
0
 40
1
 40
1
 40
1
 40
1
 10
103.414048
 20
51.001440
 30
0.0
 10
106.198337
 20
50.979926
 30
0.0
 10
109.092441
 20
51.181921
 30
0.0
 10
111.679522
 20
52.211358
 30
0.0
  0
SPLINE
  5
112
100
AcDbEntity
  8
Layer_1
 62
1
100
AcDbSpline
 70
8
 71
3
 72
8
 73
4
 74
0
 40
0
 40
0
 40
0
 40
0
 40
1
 40
1
 40
1
 40
1
 10
111.679522
 20
52.211358
 30
0.0
 10
126.357803
 20
58.052065
 30
0.0
 10
155.826906
 20
69.144691
 30
0.0
 10
155.826906
 20
69.144691
 30
0.0
  0
SPLINE
  5
113
100
AcDbEntity
  8
Layer_1
 62
1
100
AcDbSpline
 70
8
 71
3
 72
8
 73
4
 74
0
 40
0
 40
0
 40
0
 40
0
 40
1
 40
1
 40
1
 40
1
 10
155.826906
 20
69.144691
 30
0.0
 10
155.826906
 20
69.144691
 30
0.0
 10
161.032472
 20
71.341235
 30
0.0
 10
162.479522
 20
73.579218
 30
0.0
  0
SPLINE
  5
114
100
AcDbEntity
  8
Layer_1
 62
1
100
AcDbSpline
 70
8
 71
3
 72
8
 73
4
 74
0
 40
0
 40
0
 40
0
 40
0
 40
1
 40
1
 40
1
 40
1
 10
162.479522
 20
73.579218
 30
0.0
 10
163.811114
 20
75.638639
 30
0.0
 10
163.867572
 20
78.390622
 30
0.0
 10
163.688889
 20
80.836520
 30
0.0
  0
SPLINE
  5
115
100
AcDbEntity
  8
Layer_1
 62
1
100
AcDbSpline
 70
8
 71
3
 72
8
 73
4
 74
0
 40
0
 40
0
 40
0
 40
0
 40
1
 40
1
 40
1
 40
1
 10
163.688889
 20
80.836520
 30
0.0
 10
163.544896
 20
82.807555
 30
0.0
 10
162.980156
 20
84.842676
 30
0.0
 10
161.874841
 20
86.480965
 30
0.0
  0
SPLINE
  5
116
100
AcDbEntity
  8
Layer_1
 62
1
100
AcDbSpline
 70
8
 71
3
 72
8
 73
4
 74
0
 40
0
 40
0
 40
0
 40
0
 40
1
 40
1
 40
1
 40
1
 10
161.874841
 20
86.480965
 30
0.0
 10
160.700745
 20
88.221195
 30
0.0
 10
158.730513
 20
89.273017
 30
0.0
 10
157.036270
 20
90.512551
 30
0.0
  0
SPLINE
  5
117
100
AcDbEntity
  8
Layer_1
 62
1
100
AcDbSpline
 70
8
 71
3
 72
8
 73
4
 74
0
 40
0
 40
0
 40
0
 40
0
 40
1
 40
1
 40
1
 40
1
 10
157.036270
 20
90.512551
 30
0.0
 10
154.719505
 20
92.207533
 30
0.0
 10
151.480593
 20
92.837078
 30
0.0
 10
149.779522
 20
95.149375
 30
0.0
  0
SPLINE
  5
118
100
AcDbEntity
  8
Layer_1
 62
1
100
AcDbSpline
 70
8
 71
3
 72
8
 73
4
 74
0
 40
0
 40
0
 40
0
 40
0
 40
1
 40
1
 40
1
 40
1
 10
149.779522
 20
95.149375
 30
0.0
 10
149.325513
 20
95.766516
 30
0.0
 10
148.978194
 20
96.626430
 30
0.0
 10
149.174841
 20
97.366914
 30
0.0
  0
SPLINE
  5
119
100
AcDbEntity
  8
Layer_1
 62
1
100
AcDbSpline
 70
8
 71
3
 72
8
 73
4
 74
0
 40
0
 40
0
 40
0
 40
0
 40
1
 40
1
 40
1
 40
1
 10
149.174841
 20
97.366914
 30
0.0
 10
149.418751
 20
98.285369
 30
0.0
 10
150.382266
 20
98.883110
 30
0.0
 10
151.190633
 20
99.382708
 30
0.0
  0
SPLINE
  5
11a
100
AcDbEntity
  8
Layer_1
 62
1
100
AcDbSpline
 70
8
 71
3
 72
8
 73
4
 74
0
 40
0
 40
0
 40
0
 40
0
 40
1
 40
1
 40
1
 40
1
 10
151.190633
 20
99.382708
 30
0.0
 10
152.817438
 20
100.388128
 30
0.0
 10
154.870444
 20
100.455415
 30
0.0
 10
156.633333
 20
101.196757
 30
0.0
  0
SPLINE
  5
11b
100
AcDbEntity
  8
Layer_1
 62
1
100
AcDbSpline
 70
8
 71
3
 72
8
 73
4
 74
0
 40
0
 40
0
 40
0
 40
0
 40
1
 40
1
 40
1
 40
1
 10
156.633333
 20
101.196757
 30
0.0
 10
159.209689
 20
102.280182
 30
0.0
 10
162.399935
 20
102.802536
 30
0.0
 10
164.091826
 20
105.027153
 30
0.0
  0
SPLINE
  5
11c
100
AcDbEntity
  8
Layer_1
 62
1
100
AcDbSpline
 70
8
 71
3
 72
8
 73
4
 74
0
 40
0
 40
0
 40
0
 40
0
 40
1
 40
1
 40
1
 40
1
 10
164.091826
 20
105.027153
 30
0.0
 10
165.296441
 20
106.611069
 30
0.0
 10
165.634879
 20
108.910926
 30
0.0
 10
165.301744
 20
110.872791
 30
0.0
  0
SPLINE
  5
11d
100
AcDbEntity
  8
Layer_1
 62
1
100
AcDbSpline
 70
8
 71
3
 72
8
 73
4
 74
0
 40
0
 40
0
 40
0
 40
0
 40
1
 40
1
 40
1
 40
1
 10
165.301744
 20
110.872791
 30
0.0
 10
164.973776
 20
112.804221
 30
0.0
 10
162.277778
 20
115.912551
 30
0.0
 10
162.277778
 20
115.912551
 30
0.0
  0
SPLINE
  5
11e
100
AcDbEntity
  8
Layer_1
 62
1
100
AcDbSpline
 70
8
 71
3
 72
8
 73
4
 74
0
 40
0
 40
0
 40
0
 40
0
 40
1
 40
1
 40
1
 40
1
 10
162.277778
 20
115.912551
 30
0.0
 10
162.277778
 20
115.912551
 30
0.0
 10
148.053069
 20
124.281245
 30
0.0
 10
140.909367
 20
128.411358
 30
0.0
  0
SPLINE
  5
11f
100
AcDbEntity
  8
Layer_1
 62
1
100
AcDbSpline
 70
8
 71
3
 72
8
 73
4
 74
0
 40
0
 40
0
 40
0
 40
0
 40
1
 40
1
 40
1
 40
1
 10
140.909367
 20
128.411358
 30
0.0
 10
132.467243
 20
133.292151
 30
0.0
 10
115.509367
 20
142.925409
 30
0.0
 10
115.509367
 20
142.925409
 30
0.0
  0
SPLINE
  5
120
100
AcDbEntity
  8
Layer_1
 62
1
100
AcDbSpline
 70
8
 71
3
 72
8
 73
4
 74
0
 40
0
 40
0
 40
0
 40
0
 40
1
 40
1
 40
1
 40
1
 10
115.509367
 20
142.925409
 30
0.0
 10
115.509367
 20
142.925409
 30
0.0
 10
112.056373
 20
144.000399
 30
0.0
 10
110.268410
 20
144.134774
 30
0.0
  0
SPLINE
  5
121
100
AcDbEntity
  8
Layer_1
 62
1
100
AcDbSpline
 70
8
 71
3
 72
8
 73
4
 74
0
 40
0
 40
0
 40
0
 40
0
 40
1
 40
1
 40
1
 40
1
 10
110.268410
 20
144.134774
 30
0.0
 10
110.049996
 20
144.151188
 30
0.0
 10
109.804121
 20
144.157216
 30
0.0
 10
109.541358
 20
144.155170
 30
0.0
  0
LWPOLYLINE
  5
122
100
AcDbEntity
  8
Layer_1
 62
1
100
AcDbPolyline
 90
2
 70
0
 10
53.420478
 20
109.663423
 30
0.0
 10
62.693573
 20
104.220725
 30
0.0
  0
SPLINE
  5
123
100
AcDbEntity
  8
Layer_1
 62
1
100
AcDbSpline
 70
8
 71
3
 72
8
 73
4
 74
0
 40
0
 40
0
 40
0
 40
0
 40
1
 40
1
 40
1
 40
1
 10
107.567456
 20
136.244678
 30
0.0
 10
108.158424
 20
136.243874
 30
0.0
 10
108.747811
 20
136.208125
 30
0.0
 10
109.330795
 20
136.129475
 30
0.0
  0
SPLINE
  5
124
100
AcDbEntity
  8
Layer_1
 62
1
100
AcDbSpline
 70
8
 71
3
 72
8
 73
4
 74
0
 40
0
 40
0
 40
0
 40
0
 40
1
 40
1
 40
1
 40
1
 10
109.330795
 20
136.129475
 30
0.0
 10
111.252192
 20
135.870254
 30
0.0
 10
113.892544
 20
135.273766
 30
0.0
 10
114.890352
 20
134.418503
 30
0.0
  0
SPLINE
  5
125
100
AcDbEntity
  8
Layer_1
 62
1
100
AcDbSpline
 70
8
 71
3
 72
8
 73
4
 74
0
 40
0
 40
0
 40
0
 40
0
 40
1
 40
1
 40
1
 40
1
 10
114.890352
 20
134.418503
 30
0.0
 10
115.888158
 20
133.563240
 30
0.0
 10
154.090026
 20
112.324691
 30
0.0
 10
154.090026
 20
112.324691
 30
0.0
  0
SPLINE
  5
126
100
AcDbEntity
  8
Layer_1
 62
1
100
AcDbSpline
 70
8
 71
3
 72
8
 73
4
 74
0
 40
0
 40
0
 40
0
 40
0
 40
1
 40
1
 40
1
 40
1
 10
154.090026
 20
112.324691
 30
0.0
 10
154.090026
 20
112.324691
 30
0.0
 10
154.851320
 20
110.898905
 30
0.0
 10
154.659982
 20
110.186528
 30
0.0
  0
SPLINE
  5
127
100
AcDbEntity
  8
Layer_1
 62
1
100
AcDbSpline
 70
8
 71
3
 72
8
 73
4
 74
0
 40
0
 40
0
 40
0
 40
0
 40
1
 40
1
 40
1
 40
1
 10
154.659982
 20
110.186528
 30
0.0
 10
154.468249
 20
109.472675
 30
0.0
 10
153.719296
 20
109.008916
 30
0.0
 10
153.091775
 20
108.618320
 30
0.0
  0
SPLINE
  5
128
100
AcDbEntity
  8
Layer_1
 62
1
100
AcDbSpline
 70
8
 71
3
 72
8
 73
4
 74
0
 40
0
 40
0
 40
0
 40
0
 40
1
 40
1
 40
1
 40
1
 10
153.091775
 20
108.618320
 30
0.0
 10
151.089013
 20
107.371717
 30
0.0
 10
148.690536
 20
106.869562
 30
0.0
 10
146.392305
 20
106.337392
 30
0.0
  0
SPLINE
  5
129
100
AcDbEntity
  8
Layer_1
 62
1
100
AcDbSpline
 70
8
 71
3
 72
8
 73
4
 74
0
 40
0
 40
0
 40
0
 40
0
 40
1
 40
1
 40
1
 40
1
 10
146.392305
 20
106.337392
 30
0.0
 10
144.199029
 20
105.829525
 30
0.0
 10
141.943517
 20
105.535517
 30
0.0
 10
139.692834
 20
105.482456
 30
0.0
  0
SPLINE
  5
12a
100
AcDbEntity
  8
Layer_1
 62
1
100
AcDbSpline
 70
8
 71
3
 72
8
 73
4
 74
0
 40
0
 40
0
 40
0
 40
0
 40
1
 40
1
 40
1
 40
1
 10
139.692834
 20
105.482456
 30
0.0
 10
137.310176
 20
105.426283
 30
0.0
 10
134.897921
 20
105.561919
 30
0.0
 10
132.565620
 20
106.052412
 30
0.0
  0
SPLINE
  5
12b
100
AcDbEntity
  8
Layer_1
 62
1
100
AcDbSpline
 70
8
 71
3
 72
8
 73
4
 74
0
 40
0
 40
0
 40
0
 40
0
 40
1
 40
1
 40
1
 40
1
 10
132.565620
 20
106.052412
 30
0.0
 10
130.301046
 20
106.528662
 30
0.0
 10
126.008915
 20
108.333341
 30
0.0
 10
126.008915
 20
108.333341
 30
0.0
  0
LWPOLYLINE
  5
12c
100
AcDbEntity
  8
Layer_1
 62
1
100
AcDbPolyline
 90
2
 70
0
 10
109.541358
 20
144.155170
 30
0.0
 10
109.541358
 20
144.155170
 30
0.0
  0
SPLINE
  5
12d
100
AcDbEntity
  8
Layer_1
 62
1
100
AcDbSpline
 70
8
 71
3
 72
8
 73
4
 74
0
 40
0
 40
0
 40
0
 40
0
 40
1
 40
1
 40
1
 40
1
 10
92.075550
 20
127.887153
 30
0.0
 10
92.075550
 20
127.887153
 30
0.0
 10
91.463399
 20
128.302412
 30
0.0
 10
91.227783
 20
128.431754
 30
0.0
  0
SPLINE
  5
12e
100
AcDbEntity
  8
Layer_1
 62
1
100
AcDbSpline
 70
8
 71
3
 72
8
 73
4
 74
0
 40
0
 40
0
 40
0
 40
0
 40
1
 40
1
 40
1
 40
1
 10
91.227783
 20
128.431754
 30
0.0
 10
90.843775
 20
128.642554
 30
0.0
 10
90.382875
 20
128.732676
 30
0.0
 10
89.945103
 20
128.716731
 30
0.0
  0
SPLINE
  5
12f
100
AcDbEntity
  8
Layer_1
 62
1
100
AcDbSpline
 70
8
 71
3
 72
8
 73
4
 74
0
 40
0
 40
0
 40
0
 40
0
 40
1
 40
1
 40
1
 40
1
 10
89.945103
 20
128.716731
 30
0.0
 10
88.953628
 20
128.680632
 30
0.0
 10
88.161249
 20
128.202147
 30
0.0
 10
87.220448
 20
127.887153
 30
0.0
  0
SPLINE
  5
130
100
AcDbEntity
  8
Layer_1
 62
1
100
AcDbSpline
 70
8
 71
3
 72
8
 73
4
 74
0
 40
0
 40
0
 40
0
 40
0
 40
1
 40
1
 40
1
 40
1
 10
87.220448
 20
127.887153
 30
0.0
 10
85.923171
 20
127.452810
 30
0.0
 10
84.314781
 20
127.097786
 30
0.0
 10
82.741824
 20
126.285322
 30
0.0
  0
SPLINE
  5
131
100
AcDbEntity
  8
Layer_1
 62
1
100
AcDbSpline
 70
8
 71
3
 72
8
 73
4
 74
0
 40
0
 40
0
 40
0
 40
0
 40
1
 40
1
 40
1
 40
1
 10
82.741824
 20
126.285322
 30
0.0
 10
82.081040
 20
125.944013
 30
0.0
 10
82.128803
 20
125.175071
 30
0.0
 10
82.247935
 20
124.440954
 30
0.0
  0
SPLINE
  5
132
100
AcDbEntity
  8
Layer_1
 62
1
100
AcDbSpline
 70
8
 71
3
 72
8
 73
4
 74
0
 40
0
 40
0
 40
0
 40
0
 40
1
 40
1
 40
1
 40
1
 10
82.247935
 20
124.440954
 30
0.0
 10
82.420152
 20
123.379705
 30
0.0
 10
84.528313
 20
122.160026
 30
0.0
 10
84.528313
 20
122.160026
 30
0.0
  0
LWPOLYLINE
  5
133
100
AcDbEntity
  8
Layer_1
 62
1
100
AcDbPolyline
 90
2
 70
0
 10
126.008915
 20
108.333341
 30
0.0
 10
92.075550
 20
127.887153
 30
0.0
  0
SPLINE
  5
134
100
AcDbEntity
  8
Layer_1
 62
1
100
AcDbSpline
 70
8
 71
3
 72
8
 73
4
 74
0
 40
0
 40
0
 40
0
 40
0
 40
1
 40
1
 40
1
 40
1
 10
148.245491
 20
85.811237
 30
0.0
 10
148.245491
 20
85.811237
 30
0.0
 10
151.511333
 20
84.017560
 30
0.0
 10
152.521818
 20
82.532608
 30
0.0
  0
SPLINE
  5
135
100
AcDbEntity
  8
Layer_1
 62
1
100
AcDbSpline
 70
8
 71
3
 72
8
 73
4
 74
0
 40
0
 40
0
 40
0
 40
0
 40
1
 40
1
 40
1
 40
1
 10
152.521818
 20
82.532608
 30
0.0
 10
153.105629
 20
81.674672
 30
0.0
 10
153.585511
 20
80.556141
 30
0.0
 10
153.377305
 20
79.539509
 30
0.0
  0
SPLINE
  5
136
100
AcDbEntity
  8
Layer_1
 62
1
100
AcDbSpline
 70
8
 71
3
 72
8
 73
4
 74
0
 40
0
 40
0
 40
0
 40
0
 40
1
 40
1
 40
1
 40
1
 10
153.377305
 20
79.539509
 30
0.0
 10
153.180773
 20
78.579888
 30
0.0
 10
151.524118
 20
77.258580
 30
0.0
 10
151.524118
 20
77.258580
 30
0.0
  0
LWPOLYLINE
  5
137
100
AcDbEntity
  8
Layer_1
 62
1
100
AcDbPolyline
 90
2
 70
0
 10
84.528313
 20
122.160026
 30
0.0
 10
148.245491
 20
85.811237
 30
0.0
  0
SPLINE
  5
138
100
AcDbEntity
  8
Layer_1
 62
1
100
AcDbSpline
 70
8
 71
3
 72
8
 73
4
 74
0
 40
0
 40
0
 40
0
 40
0
 40
1
 40
1
 40
1
 40
1
 10
109.188580
 20
61.151520
 30
0.0
 10
109.188580
 20
61.151520
 30
0.0
 10
106.070270
 20
60.419523
 30
0.0
 10
104.484509
 20
60.438799
 30
0.0
  0
SPLINE
  5
139
100
AcDbEntity
  8
Layer_1
 62
1
100
AcDbSpline
 70
8
 71
3
 72
8
 73
4
 74
0
 40
0
 40
0
 40
0
 40
0
 40
1
 40
1
 40
1
 40
1
 10
104.484509
 20
60.438799
 30
0.0
 10
102.844171
 20
60.458730
 30
0.0
 10
101.198615
 20
60.787479
 30
0.0
 10
99.638225
 20
61.293732
 30
0.0
  0
SPLINE
  5
13a
100
AcDbEntity
  8
Layer_1
 62
1
100
AcDbSpline
 70
8
 71
3
 72
8
 73
4
 74
0
 40
0
 40
0
 40
0
 40
0
 40
1
 40
1
 40
1
 40
1
 10
99.638225
 20
61.293732
 30
0.0
 10
97.778610
 20
61.897064
 30
0.0
 10
94.364198
 20
63.859640
 30
0.0
 10
94.364198
 20
63.859640
 30
0.0
  0
LWPOLYLINE
  5
13b
100
AcDbEntity
  8
Layer_1
 62
1
100
AcDbPolyline
 90
2
 70
0
 10
151.524118
 20
77.258580
 30
0.0
 10
109.188580
 20
61.151520
 30
0.0
  0
SPLINE
  5
13c
100
AcDbEntity
  8
Layer_1
 62
1
100
AcDbSpline
 70
8
 71
3
 72
8
 73
4
 74
0
 40
0
 40
0
 40
0
 40
0
 40
1
 40
1
 40
1
 40
1
 10
57.159923
 20
85.526258
 30
0.0
 10
57.159923
 20
85.526258
 30
0.0
 10
56.394017
 20
86.719784
 30
0.0
 10
56.447202
 20
87.379444
 30
0.0
  0
SPLINE
  5
13d
100
AcDbEntity
  8
Layer_1
 62
1
100
AcDbSpline
 70
8
 71
3
 72
8
 73
4
 74
0
 40
0
 40
0
 40
0
 40
0
 40
1
 40
1
 40
1
 40
1
 10
56.447202
 20
87.379444
 30
0.0
 10
56.500248
 20
88.037403
 30
0.0
 10
56.953223
 20
88.649436
 30
0.0
 10
57.444900
 20
89.089866
 30
0.0
  0
SPLINE
  5
13e
100
AcDbEntity
  8
Layer_1
 62
1
100
AcDbSpline
 70
8
 71
3
 72
8
 73
4
 74
0
 40
0
 40
0
 40
0
 40
0
 40
1
 40
1
 40
1
 40
1
 10
57.444900
 20
89.089866
 30
0.0
 10
59.187738
 20
90.651046
 30
0.0
 10
61.618405
 20
91.267894
 30
0.0
 10
63.859393
 20
91.940751
 30
0.0
  0
SPLINE
  5
13f
100
AcDbEntity
  8
Layer_1
 62
1
100
AcDbSpline
 70
8
 71
3
 72
8
 73
4
 74
0
 40
0
 40
0
 40
0
 40
0
 40
1
 40
1
 40
1
 40
1
 10
63.859393
 20
91.940751
 30
0.0
 10
66.627510
 20
92.771879
 30
0.0
 10
69.522137
 20
93.325613
 30
0.0
 10
72.412047
 20
93.366193
 30
0.0
  0
SPLINE
  5
140
100
AcDbEntity
  8
Layer_1
 62
1
100
AcDbSpline
 70
8
 71
3
 72
8
 73
4
 74
0
 40
0
 40
0
 40
0
 40
0
 40
1
 40
1
 40
1
 40
1
 10
72.412047
 20
93.366193
 30
0.0
 10
75.193708
 20
93.405253
 30
0.0
 10
77.999305
 20
92.970385
 30
0.0
 10
80.679727
 20
92.225731
 30
0.0
  0
SPLINE
  5
141
100
AcDbEntity
  8
Layer_1
 62
1
100
AcDbSpline
 70
8
 71
3
 72
8
 73
4
 74
0
 40
0
 40
0
 40
0
 40
0
 40
1
 40
1
 40
1
 40
1
 10
80.679727
 20
92.225731
 30
0.0
 10
83.120317
 20
91.547706
 30
0.0
 10
85.399270
 20
90.366834
 30
0.0
 10
87.664174
 20
89.232631
 30
0.0
  0
SPLINE
  5
142
100
AcDbEntity
  8
Layer_1
 62
1
100
AcDbSpline
 70
8
 71
3
 72
8
 73
4
 74
0
 40
0
 40
0
 40
0
 40
0
 40
1
 40
1
 40
1
 40
1
 10
87.664174
 20
89.232631
 30
0.0
 10
99.389238
 20
83.361032
 30
0.0
 10
121.732588
 20
69.561409
 30
0.0
 10
121.732588
 20
69.561409
 30
0.0
  0
SPLINE
  5
143
100
AcDbEntity
  8
Layer_1
 62
1
100
AcDbSpline
 70
8
 71
3
 72
8
 73
4
 74
0
 40
0
 40
0
 40
0
 40
0
 40
1
 40
1
 40
1
 40
1
 10
121.732588
 20
69.561409
 30
0.0
 10
121.732588
 20
69.561409
 30
0.0
 10
122.547507
 20
69.259666
 30
0.0
 10
123.349300
 20
69.368485
 30
0.0
  0
SPLINE
  5
144
100
AcDbEntity
  8
Layer_1
 62
1
100
AcDbSpline
 70
8
 71
3
 72
8
 73
4
 74
0
 40
0
 40
0
 40
0
 40
0
 40
1
 40
1
 40
1
 40
1
 10
123.349300
 20
69.368485
 30
0.0
 10
124.606685
 20
69.539142
 30
0.0
 10
125.841246
 20
70.018528
 30
0.0
 10
126.993385
 20
70.626358
 30
0.0
  0
SPLINE
  5
145
100
AcDbEntity
  8
Layer_1
 62
1
100
AcDbSpline
 70
8
 71
3
 72
8
 73
4
 74
0
 40
0
 40
0
 40
0
 40
0
 40
1
 40
1
 40
1
 40
1
 10
126.993385
 20
70.626358
 30
0.0
 10
128.315443
 20
71.323834
 30
0.0
 10
126.708385
 20
70.554928
 30
0.0
 10
130.394383
 20
72.191258
 30
0.0
  0
SPLINE
  5
146
100
AcDbEntity
  8
Layer_1
 62
1
100
AcDbSpline
 70
8
 71
3
 72
8
 73
4
 74
0
 40
0
 40
0
 40
0
 40
0
 40
1
 40
1
 40
1
 40
1
 10
130.394383
 20
72.191258
 30
0.0
 10
130.655989
 20
72.307392
 30
0.0
 10
130.867734
 20
72.830595
 30
0.0
 10
130.830396
 20
73.073202
 30
0.0
  0
SPLINE
  5
147
100
AcDbEntity
  8
Layer_1
 62
1
100
AcDbSpline
 70
8
 71
3
 72
8
 73
4
 74
0
 40
0
 40
0
 40
0
 40
0
 40
1
 40
1
 40
1
 40
1
 10
130.830396
 20
73.073202
 30
0.0
 10
130.778989
 20
73.407232
 30
0.0
 10
130.683353
 20
73.569837
 30
0.0
 10
130.603295
 20
73.955700
 30
0.0
  0
SPLINE
  5
148
100
AcDbEntity
  8
Layer_1
 62
1
100
AcDbSpline
 70
8
 71
3
 72
8
 73
4
 74
0
 40
0
 40
0
 40
0
 40
0
 40
1
 40
1
 40
1
 40
1
 10
130.603295
 20
73.955700
 30
0.0
 10
130.437221
 20
74.756124
 30
0.0
 10
129.429758
 20
75.548158
 30
0.0
 10
129.429758
 20
75.548158
 30
0.0
  0
LWPOLYLINE
  5
149
100
AcDbEntity
  8
Layer_1
 62
1
100
AcDbPolyline
 90
2
 70
0
 10
94.364198
 20
63.859640
 30
0.0
 10
57.159923
 20
85.526258
 30
0.0
  0
SPLINE
  5
14a
100
AcDbEntity
  8
Layer_1
 62
1
100
AcDbSpline
 70
8
 71
3
 72
8
 73
4
 74
0
 40
0
 40
0
 40
0
 40
0
 40
1
 40
1
 40
1
 40
1
 10
60.866294
 20
114.890049
 30
0.0
 10
60.866294
 20
114.890049
 30
0.0
 10
59.643357
 20
116.195914
 30
0.0
 10
59.440851
 20
117.028213
 30
0.0
  0
SPLINE
  5
14b
100
AcDbEntity
  8
Layer_1
 62
1
100
AcDbSpline
 70
8
 71
3
 72
8
 73
4
 74
0
 40
0
 40
0
 40
0
 40
0
 40
1
 40
1
 40
1
 40
1
 10
59.440851
 20
117.028213
 30
0.0
 10
59.237412
 20
117.864344
 30
0.0
 10
59.321147
 20
118.834686
 30
0.0
 10
59.725828
 20
119.594118
 30
0.0
  0
SPLINE
  5
14c
100
AcDbEntity
  8
Layer_1
 62
1
100
AcDbSpline
 70
8
 71
3
 72
8
 73
4
 74
0
 40
0
 40
0
 40
0
 40
0
 40
1
 40
1
 40
1
 40
1
 10
59.725828
 20
119.594118
 30
0.0
 10
60.106346
 20
120.308205
 30
0.0
 10
61.579015
 20
121.162325
 30
0.0
 10
61.579015
 20
121.162325
 30
0.0
  0
LWPOLYLINE
  5
14d
100
AcDbEntity
  8
Layer_1
 62
1
100
AcDbPolyline
 90
2
 70
0
 10
129.429758
 20
75.548158
 30
0.0
 10
60.866294
 20
114.890049
 30
0.0
  0
SPLINE
  5
14e
100
AcDbEntity
  8
Layer_1
 62
1
100
AcDbSpline
 70
8
 71
3
 72
8
 73
4
 74
0
 40
0
 40
0
 40
0
 40
0
 40
1
 40
1
 40
1
 40
1
 10
100.065967
 20
134.561268
 30
0.0
 10
100.065967
 20
134.561268
 30
0.0
 10
103.056349
 20
135.722562
 30
0.0
 10
104.627274
 20
135.986710
 30
0.0
  0
SPLINE
  5
14f
100
AcDbEntity
  8
Layer_1
 62
1
100
AcDbSpline
 70
8
 71
3
 72
8
 73
4
 74
0
 40
0
 40
0
 40
0
 40
0
 40
1
 40
1
 40
1
 40
1
 10
104.627274
 20
135.986710
 30
0.0
 10
105.594139
 20
136.149287
 30
0.0
 10
106.582509
 20
136.246022
 30
0.0
 10
107.567456
 20
136.244678
 30
0.0
  0
LWPOLYLINE
  5
150
100
AcDbEntity
  8
Layer_1
 62
1
100
AcDbPolyline
 90
2
 70
0
 10
61.579015
 20
121.162325
 30
0.0
 10
100.065967
 20
134.561268
 30
0.0
  0
LWPOLYLINE
  5
151
100
AcDbEntity
  8
Layer_1
 62
1
100
AcDbPolyline
 90
2
 70
0
 10
107.567456
 20
136.244678
 30
0.0
 10
107.567456
 20
136.244678
 30
0.0
  0
ENDSEC
  0
SECTION
  2
OBJECTS
  0
DICTIONARY
  5
C
330
0
100
AcDbDictionary
  3
ACAD_GROUP
350
D
  3
ACAD_MLINESTYLE
350
17
  0
DICTIONARY
  5
D
330
C
100
AcDbDictionary
  0
DICTIONARY
  5
1A
330
C
100
AcDbDictionary
  0
DICTIONARY
  5
17
330
C
100
AcDbDictionary
  3
STANDARD
350
18
  0
DICTIONARY
  5
19
330
C
100
AcDbDictionary
  0
ENDSEC
  0
EOF
