<?xml version="1.0" encoding="UTF-8" standalone="no"?>
<!-- Created with Inkscape (http://www.inkscape.org/) -->

<svg
   xmlns:dc="http://purl.org/dc/elements/1.1/"
   xmlns:cc="http://creativecommons.org/ns#"
   xmlns:rdf="http://www.w3.org/1999/02/22-rdf-syntax-ns#"
   xmlns:svg="http://www.w3.org/2000/svg"
   xmlns="http://www.w3.org/2000/svg"
   xmlns:sodipodi="http://sodipodi.sourceforge.net/DTD/sodipodi-0.dtd"
   xmlns:inkscape="http://www.inkscape.org/namespaces/inkscape"
   width="210mm"
   height="297mm"
   viewBox="0 0 744.09448819 1052.3622047"
   id="svg2"
   version="1.1"
   inkscape:version="0.91 r13725"
   sodipodi:docname="bone.svg">
  <defs
     id="defs4" />
  <sodipodi:namedview
     id="base"
     pagecolor="#ffffff"
     bordercolor="#666666"
     borderopacity="1.0"
     inkscape:pageopacity="0.0"
     inkscape:pageshadow="2"
     inkscape:zoom="2.8"
     inkscape:cx="-855.711"
     inkscape:cy="534.51914"
     inkscape:document-units="mm"
     inkscape:current-layer="layer1"
     showgrid="false"
     inkscape:window-width="1440"
     inkscape:window-height="837"
     inkscape:window-x="-4"
     inkscape:window-y="-4"
     inkscape:window-maximized="1" />
  <metadata
     id="metadata7">
    <rdf:RDF>
      <cc:Work
         rdf:about="">
        <dc:format>image/svg+xml</dc:format>
        <dc:type
           rdf:resource="http://purl.org/dc/dcmitype/StillImage" />
        <dc:title></dc:title>
      </cc:Work>
    </rdf:RDF>
  </metadata>
  <g
     inkscape:label="Layer 1"
     inkscape:groupmode="layer"
     id="layer1">
    <path
       style="fill:#000000"
       d="M -903.18945 458.96875 C -910.70188 459.00195 -918.28642 460.85331 -924.39453 464.43359 C -929.11538 467.20074 -936.42759 474.77498 -938.7793 479.33398 C -941.98822 485.55478 -942.72448 488.77153 -942.71484 496.51367 C -942.70684 502.5465 -942.53159 503.83235 -941.18945 507.69336 C -940.35528 510.09303 -939.15749 512.91695 -938.52734 513.9668 C -936.40433 517.50384 -932.1658 522.40287 -929.14844 524.80664 L -926.15039 527.19531 L -928.17969 528.67188 C -932.16427 531.57172 -936.8982 537.2639 -939.18359 541.90039 C -945.96304 555.65424 -943.59368 571.40638 -933.07812 582.47656 C -927.1862 588.67921 -920.27866 592.5903 -912.12305 594.33984 C -901.38384 596.64367 -889.03788 594.3492 -879.99805 588.36914 C -873.25002 583.90504 -865.65713 574.01034 -863.61914 567.02344 C -862.88082 564.49221 -862.59823 564.1442 -861.05078 563.86914 C -860.09425 563.69912 -859.12688 563.42432 -832.33594 563.61328 L -810.4668 563.76758 L -809.23438 567.65234 C -807.11766 574.24277 -799.93291 583.53437 -793.43945 588.00195 C -782.52471 595.51149 -766.28502 597.17762 -754.24414 592.14453 C -743.35477 587.59278 -732.58234 577.85893 -731.20898 566.76758 C -730.51761 561.18396 -729.59936 550.29241 -732.24609 545.22461 C -735.68543 538.63911 -740.16526 531.63599 -745.6543 527.88477 L -747.00195 526.95508 L -745.6543 526.02344 C -740.36238 522.36584 -734.70696 515.56076 -732.17969 508.60742 C -731.21774 505.96079 -730.70247 504.93247 -730.27539 501.37891 C -730.11505 500.04484 -729.97592 498.36341 -729.97852 496.0625 C -729.98852 487.60974 -732.13096 481.30938 -735.77148 475.13281 C -740.85159 466.5138 -746.38784 464.12023 -758.21289 460.35156 C -763.38697 458.70257 -775.08968 458.53087 -780.57422 460.01562 C -789.12577 462.33071 -797.66366 468.04389 -802.79102 474.94922 C -805.83611 479.05021 -809.24515 485.752 -809.80859 488.62109 L -810.14648 490.41797 L -817.83789 490.37305 L -817.83789 505.28906 C -817.83789 507.36541 -819.5096 509.03711 -821.58594 509.03711 C -823.66227 509.03711 -825.33398 507.36541 -825.33398 505.28906 L -825.33398 490.32812 L -833.73633 490.2793 L -844.75977 490.26562 L -844.75977 505.28906 C -844.75977 507.3654 -846.43147 509.03711 -848.50781 509.03711 C -850.58416 509.03711 -852.25586 507.3654 -852.25586 505.28906 L -852.25586 490.25586 L -862.43359 490.24219 L -863.37109 487.24219 C -863.88578 485.59241 -864.746 483.38384 -865.28516 482.33398 C -866.6108 479.75261 -871.11381 473.69949 -873.15625 471.75195 C -876.04506 468.82479 -875.54025 469.49036 -876.04492 468.82422 C -876.94486 467.59225 -882.9812 463.79456 -886.51953 462.23438 C -891.54683 460.01765 -897.34645 458.94296 -903.18945 458.96875 z M -902.5625 467.13867 A 28.75321 28.75321 0 0 1 -873.80859 495.89062 A 28.75321 28.75321 0 0 1 -902.5625 524.64453 A 28.75321 28.75321 0 0 1 -931.31445 495.89062 A 28.75321 28.75321 0 0 1 -902.5625 467.13867 z M -902.5625 530.15625 A 28.75321 28.75321 0 0 1 -873.80859 558.9082 A 28.75321 28.75321 0 0 1 -902.5625 587.66211 A 28.75321 28.75321 0 0 1 -931.31445 558.9082 A 28.75321 28.75321 0 0 1 -902.5625 530.15625 z "
       id="path4148" />
    <circle
       style="fill:none;stroke:#ff0000;stroke-width:1.00984251;stroke-linejoin:round;stroke-miterlimit:4;stroke-dasharray:none"
       id="path4151"
       cx="-358.60416"
       cy="930.13373"
       r="57.578693" />
  </g>
</svg>
