<?xml version="1.0" encoding="UTF-8" standalone="no"?>
<!-- Created with Inkscape (http://www.inkscape.org/) -->

<svg
   xmlns:dc="http://purl.org/dc/elements/1.1/"
   xmlns:cc="http://creativecommons.org/ns#"
   xmlns:rdf="http://www.w3.org/1999/02/22-rdf-syntax-ns#"
   xmlns:svg="http://www.w3.org/2000/svg"
   xmlns="http://www.w3.org/2000/svg"
   xmlns:sodipodi="http://sodipodi.sourceforge.net/DTD/sodipodi-0.dtd"
   xmlns:inkscape="http://www.inkscape.org/namespaces/inkscape"
   width="210mm"
   height="297mm"
   viewBox="0 0 744.09448819 1052.3622047"
   id="svg2"
   version="1.1"
   inkscape:version="0.91 r13725"
   sodipodi:docname="fluture.svg">
  <defs
     id="defs4" />
  <sodipodi:namedview
     id="base"
     pagecolor="#ffffff"
     bordercolor="#666666"
     borderopacity="1.0"
     inkscape:pageopacity="0.0"
     inkscape:pageshadow="2"
     inkscape:zoom="2.8"
     inkscape:cx="381.56341"
     inkscape:cy="621.34505"
     inkscape:document-units="mm"
     inkscape:current-layer="layer1"
     showgrid="false"
     inkscape:window-width="1440"
     inkscape:window-height="837"
     inkscape:window-x="-4"
     inkscape:window-y="-4"
     inkscape:window-maximized="1" />
  <metadata
     id="metadata7">
    <rdf:RDF>
      <cc:Work
         rdf:about="">
        <dc:format>image/svg+xml</dc:format>
        <dc:type
           rdf:resource="http://purl.org/dc/dcmitype/StillImage" />
        <dc:title></dc:title>
      </cc:Work>
    </rdf:RDF>
  </metadata>
  <g
     inkscape:label="Layer 1"
     inkscape:groupmode="layer"
     id="layer1">
    <path
       style="fill:#000000"
       d="M 317.57812 398.67969 C 316.84913 398.71448 316.21502 398.82919 315.70117 399.02734 C 314.28157 399.57481 313.33802 400.67713 312.91602 402.2793 C 312.72242 403.01442 312.68299 404.39853 312.80859 406.10547 C 312.91239 407.51513 312.97945 407.81063 313.43945 408.86523 C 313.91485 409.95541 314.02721 410.15367 314.38281 410.5293 C 314.56201 410.71865 315.22858 411.519 315.86328 412.30859 C 316.81048 413.48706 317.01233 413.76846 316.98633 413.87891 C 316.88403 414.3202 316.66203 416.85954 316.58203 418.49609 C 316.48493 420.48382 316.49488 421.20524 316.64648 423.00586 C 316.82118 425.08146 317.21784 427.34125 317.86914 429.97266 C 319.34234 435.92457 322.02691 440.93512 324.75391 442.82031 C 325.58411 443.39421 326.42301 443.73434 327.31641 443.86133 L 327.82812 443.93359 L 327.3457 444.27539 C 325.3677 445.66877 323.87177 447.25326 323.07227 448.80664 C 322.66267 449.60251 322.43784 450.22731 322.24414 451.10156 C 322.03994 452.02298 321.98863 452.45267 321.89062 454.13086 C 321.73442 456.79599 321.96407 458.77444 322.69727 461.08984 C 323.71507 464.30414 325.27182 467.08471 327.35352 469.40625 C 329.82362 472.16105 333.55161 474.36516 337.03711 475.13281 C 340.74871 475.95027 344.07206 475.62372 347.72656 474.08008 C 349.74906 473.22578 351.07841 472.43987 354.22461 470.23633 L 356.10742 468.91602 L 357.04883 467.92969 C 357.56623 467.38678 359.05708 465.8036 360.36328 464.41211 C 361.66948 463.02062 362.75344 461.87709 362.77344 461.87109 C 362.79314 461.86512 363.48741 463.54077 364.31641 465.59375 C 365.14541 467.64672 365.83752 469.33937 365.85352 469.35547 C 365.88102 469.38293 366.38929 468.35729 368.40039 464.2168 C 368.85419 463.28255 369.24267 462.51758 369.26367 462.51758 C 369.28427 462.51758 370.66985 463.95043 372.34375 465.70117 C 375.57665 469.08228 375.98613 469.48147 376.70703 469.96875 C 376.95823 470.13859 377.72902 470.71848 378.41992 471.25781 C 380.53722 472.91067 382.02904 473.82594 383.96094 474.65234 C 385.75814 475.42113 388.1337 475.98685 390.125 476.12305 C 390.7888 476.16845 392.39867 476.15827 392.98047 476.10547 C 396.09747 475.82249 398.71571 474.8394 401.44141 472.92773 C 403.61971 471.40006 405.56852 469.28357 406.97852 466.91406 C 408.57682 464.22809 409.67055 461.23202 410.06445 458.46289 C 410.14345 457.90352 410.16211 457.39149 410.16211 456.09375 C 410.15601 453.50096 410.02255 452.31676 409.59375 451.00781 C 408.83805 448.70094 407.16208 446.65083 404.67188 444.98828 C 404.31968 444.75316 404.0293 444.53907 404.0293 444.51367 C 404.0283 444.48867 404.04631 444.47889 404.07031 444.49219 C 404.14131 444.53227 404.90401 444.43156 405.31641 444.32812 C 408.52381 443.52375 411.32175 439.56335 413.50195 432.74023 C 413.91635 431.4435 414.82208 426.93706 415.05078 425.0332 C 415.29148 423.02676 415.4337 419.89465 415.3457 418.55859 C 415.266 417.35378 415.14915 416.42077 414.93555 415.26953 L 414.77734 414.41211 L 415.74219 413.19922 C 417.86559 410.52822 418.60821 409.35174 418.82031 408.31641 C 418.98201 407.5294 419.06439 406.25838 419.02539 405.2207 C 418.91699 402.36436 418.08587 400.67296 416.38867 399.85547 C 415.55147 399.45215 415.22618 399.39544 413.73438 399.39844 C 412.58958 399.40069 412.35695 399.41784 411.59375 399.55664 C 408.99225 400.02975 406.13384 401.10838 402.74414 402.89453 C 400.68774 403.97814 398.27748 405.32209 396.83398 406.19141 C 395.05328 407.26382 382.40309 415.3076 381.61719 415.86719 C 379.77799 417.17679 377.54262 418.81021 377.10742 419.16211 C 376.85622 419.36529 375.82727 420.2416 374.82227 421.10938 C 372.91987 422.75225 371.72357 423.88139 370.98047 424.73438 L 370.54492 425.23633 L 370.43555 425.02344 C 370.34155 424.84184 370.33123 424.74084 370.36523 424.32227 C 370.55573 421.95299 371.57732 419.01682 373.54102 415.19336 C 374.75712 412.82552 375.65372 411.5062 376.85352 410.32031 C 377.69322 409.49032 377.92284 409.11514 378.21484 408.0918 C 378.45744 407.24187 378.46204 407.06852 378.24414 406.92578 C 378.11814 406.84328 378.05835 406.83928 377.81055 406.89648 C 377.03945 407.07447 375.35533 408.15636 374.29883 409.15234 C 373.17693 410.21006 371.96973 411.79938 370.86523 413.67383 C 370.18643 414.82575 368.7817 417.52685 368.0918 419.00781 C 367.3553 420.58874 366.82191 422.05149 366.28711 423.94922 C 366.09241 424.64009 365.91267 425.2396 365.88867 425.2832 C 365.85997 425.3348 365.82039 425.25498 365.77539 425.05469 C 365.65379 424.51778 365.37349 423.52134 365.08789 422.60742 C 364.93579 422.12067 364.75455 421.5285 364.68555 421.29297 C 364.61655 421.05745 364.31713 420.26142 364.01953 419.52344 C 362.42553 415.5712 361.15413 413.10318 359.29883 410.35938 C 357.67413 407.95659 356.0146 406.48611 354.5918 406.18945 C 354.1227 406.09164 353.99007 406.1282 353.79688 406.41016 C 353.64918 406.62563 353.66429 406.71607 353.99609 407.56055 C 354.25889 408.22919 354.66496 408.777 355.47266 409.54883 C 356.45686 410.4893 357.17944 411.44308 357.80664 412.63086 C 357.97614 412.95198 358.47893 414.06135 358.92383 415.09766 C 359.77013 417.06914 360.79202 419.96867 361.22852 421.63672 C 361.44872 422.47836 361.71875 423.96121 361.71875 424.32812 L 361.71875 424.56055 L 361.44922 424.25391 C 360.65882 423.35435 359.58862 422.34832 357.63672 420.67188 C 356.44342 419.64695 355.15805 418.56125 354.78125 418.25977 C 352.52575 416.45539 349.74203 414.58716 343.04883 410.38672 C 340.96053 409.07616 338.54524 407.52299 337.68164 406.93555 C 333.07014 403.79868 329.48077 401.80786 325.94727 400.42383 C 322.79907 399.19071 319.7651 398.57531 317.57812 398.67969 z "
       id="path4144" />
  </g>
</svg>
