<?xml version="1.0" encoding="UTF-8" standalone="no"?>
<!-- Created with Inkscape (http://www.inkscape.org/) -->

<svg
   xmlns:dc="http://purl.org/dc/elements/1.1/"
   xmlns:cc="http://creativecommons.org/ns#"
   xmlns:rdf="http://www.w3.org/1999/02/22-rdf-syntax-ns#"
   xmlns:svg="http://www.w3.org/2000/svg"
   xmlns="http://www.w3.org/2000/svg"
   xmlns:sodipodi="http://sodipodi.sourceforge.net/DTD/sodipodi-0.dtd"
   xmlns:inkscape="http://www.inkscape.org/namespaces/inkscape"
   width="210mm"
   height="297mm"
   viewBox="0 0 744.09448819 1052.3622047"
   id="svg2"
   version="1.1"
   inkscape:version="0.91 r13725"
   sodipodi:docname="cs_logo.svg">
  <defs
     id="defs4" />
  <sodipodi:namedview
     id="base"
     pagecolor="#ffffff"
     bordercolor="#666666"
     borderopacity="1.0"
     inkscape:pageopacity="0.0"
     inkscape:pageshadow="2"
     inkscape:zoom="1.979899"
     inkscape:cx="194.86804"
     inkscape:cy="631.02142"
     inkscape:document-units="mm"
     inkscape:current-layer="layer1"
     showgrid="false"
     inkscape:window-width="1440"
     inkscape:window-height="837"
     inkscape:window-x="-4"
     inkscape:window-y="-4"
     inkscape:window-maximized="1" />
  <metadata
     id="metadata7">
    <rdf:RDF>
      <cc:Work
         rdf:about="">
        <dc:format>image/svg+xml</dc:format>
        <dc:type
           rdf:resource="http://purl.org/dc/dcmitype/StillImage" />
        <dc:title></dc:title>
      </cc:Work>
    </rdf:RDF>
  </metadata>
  <g
     inkscape:label="Layer 1"
     inkscape:groupmode="layer"
     id="layer1">
    <path
       style="fill:#ff0000"
       d="M 163.86914 320.30859 C 162.54201 320.30547 161.18483 320.31029 159.80664 320.32227 C 154.29367 320.37017 148.58637 320.5379 143.625 320.84375 C 141.14432 320.99667 138.87267 321.17879 136.67188 321.44727 C 134.47108 321.71574 133.46743 321.24295 128.04688 323.50781 C 122.65299 325.76154 120.80833 327.69709 118.11523 329.96875 C 115.42214 332.24041 112.66321 334.85058 109.59766 337.92773 C 103.46655 344.08205 96.18884 352.07237 87.966797 361.64844 A 20.236885 20.236885 0 0 0 87.964844 361.64844 L 76.21875 375.33008 A 20.236885 20.236885 0 0 0 75.841797 375.81641 A 20.236885 20.236885 0 0 0 64.611328 382.52344 L 56.111328 392.5918 C 53.610958 395.55306 51.352867 398.3323 49.554688 400.66016 C 48.655465 401.82425 47.89085 402.83758 47.107422 403.96875 C 46.715708 404.53434 46.33469 405.08328 45.753906 406.08203 C 45.463514 406.58141 45.120785 407.16166 44.609375 408.31836 C 44.097965 409.47506 42.837891 410.36258 42.837891 416.64844 C 42.837891 422.93429 44.097963 423.82182 44.609375 424.97852 C 45.120787 426.13521 45.463514 426.71547 45.753906 427.21484 C 46.334691 428.21359 46.715708 428.76255 47.107422 429.32812 C 47.89085 430.4593 48.655467 431.47263 49.554688 432.63672 C 51.353127 434.96491 53.610526 437.74529 56.111328 440.70703 L 64.611328 450.77344 A 20.236885 20.236885 0 0 0 75.847656 457.47852 A 20.236885 20.236885 0 0 0 76.228516 457.96484 L 88.427734 472.15234 A 20.236885 20.236885 0 0 0 88.429688 472.15234 C 96.507614 481.54621 103.65338 489.39354 109.66016 495.44336 C 112.66354 498.46827 115.36285 501.03615 117.98828 503.27148 C 120.61372 505.50682 122.39265 507.3901 127.62695 509.66211 C 137.11807 513.78173 142.03467 512.81436 151.21094 512.84375 L 163.41602 512.88281 A 20.236885 20.236885 0 0 0 169.10352 512.07227 A 20.236885 20.236885 0 0 0 174.69727 512.88281 L 192.45312 512.88281 C 203.27204 512.88281 210.55237 512.84741 218.30469 511.15039 C 226.05701 509.45339 233.62089 504.87109 238.33594 500.7207 C 247.40231 492.7402 253.84345 478.98023 254.52344 466.77344 C 254.74073 462.87187 254.72231 457.98674 253.78711 453.17383 C 252.85191 448.36092 251.46681 444.11938 249.29688 437.41602 C 245.62493 426.07268 237.76109 405.11905 230.6582 386.88281 L 234.57031 386.88281 A 20.236885 20.236885 0 0 0 254.80469 366.64844 L 254.80469 353.64844 L 254.80469 340.64844 A 20.236885 20.236885 0 0 0 234.57031 320.41406 L 216.58203 320.41406 C 208.79035 320.41406 203.84094 320.44646 199.24219 320.83008 C 195.18297 321.16866 191.06633 322.1295 187.75195 323.24219 C 183.94633 320.65929 182.83734 321.6579 181.62891 321.40234 C 178.49708 320.74004 176.94186 320.7223 174.79102 320.59375 C 171.56474 320.40093 167.85052 320.31796 163.86914 320.30859 z M 159.98242 340.55664 C 170.39757 340.46615 179.80632 340.85571 178.07227 341.81055 C 171.62917 345.35835 165.79451 353.37612 164.07031 361.05469 L 162.92773 366.14844 L 153.73047 366.64844 L 144.5332 367.14844 L 130.05273 384.07812 L 115.57227 401.00586 L 115.57227 416.64062 L 115.57227 432.27539 L 130.25977 449.46094 L 144.94727 466.64844 L 153.78516 466.64844 C 162.49916 466.64844 162.63566 466.68576 163.66406 469.39062 C 164.97426 472.83657 165.32094 483.94487 164.27344 488.89844 L 163.48047 492.64844 L 151.27539 492.60938 C 142.81229 492.58227 138.03339 492.11954 135.68359 491.09961 C 131.41279 489.24582 119.48538 477.23276 103.77148 458.95898 L 91.572266 444.77148 L 91.572266 416.64062 L 91.572266 388.51172 L 103.31836 374.83008 C 119.30646 356.20903 131.45726 344.01217 135.84766 342.17773 C 138.14461 341.218 149.56727 340.64713 159.98242 340.55664 z M 216.58203 340.64844 L 234.57031 340.64844 L 234.57031 353.64844 L 234.57031 366.64844 L 217.66406 366.64844 L 200.75586 366.64844 L 204.0918 374.55469 C 210.7952 390.44897 225.47382 429.52739 230.04492 443.64844 C 234.31052 456.82572 234.69991 458.83261 234.32031 465.64844 C 233.80961 474.81628 231.456 479.81925 224.9668 485.53125 C 218.0179 491.64797 213.44812 492.64844 192.45312 492.64844 L 174.69727 492.64844 L 175.38477 488.89844 C 176.27477 484.04105 176.25714 477.35864 175.33984 471.39844 L 174.60938 466.64844 L 191.03906 466.64844 L 207.46875 466.64844 L 201.625 449.39844 C 198.4108 439.91094 191.28361 420.89844 185.78711 407.14844 C 180.29061 393.39844 175.23945 379.74303 174.56055 376.80273 C 171.25225 362.47408 179.27964 347.98596 193.52734 342.57227 C 197.84584 340.93134 201.24753 340.64844 216.58203 340.64844 z M 156.42188 386.76758 C 157.2311 389.17507 158.12824 391.53623 159.38867 394.94336 C 161.49999 400.65056 164.18582 407.6251 166.99805 414.66016 C 171.11681 424.96362 175.39073 436.68077 178.90625 446.41406 L 174.60938 446.41406 A 20.236885 20.236885 0 0 0 167.49023 447.73438 C 167.35068 447.69058 167.15151 447.54498 167.01758 447.50781 C 160.23442 445.62533 158.26064 446.33436 154.25781 446.39844 L 145.64258 436.31445 L 135.80664 424.80664 L 135.80664 416.64062 L 135.80664 408.48047 L 145.42969 397.23242 A 20.236885 20.236885 0 0 0 145.42969 397.23047 L 154.28125 386.88281 L 154.82812 386.85352 L 156.42188 386.76758 z M 80.072266 395.57617 L 80.355469 406.11328 C 80.511569 411.9078 80.511569 421.38907 80.355469 427.18359 L 80.072266 437.71875 L 71.572266 427.65234 C 66.897266 422.11566 63.072266 417.16413 63.072266 416.64844 C 63.072266 416.13275 66.897266 411.18121 71.572266 405.64453 L 80.072266 395.57617 z "
       id="path4746" />
  </g>
</svg>
