<?xml version="1.0" encoding="UTF-8" standalone="no"?>
<!-- Created with Inkscape (http://www.inkscape.org/) -->

<svg
   xmlns:dc="http://purl.org/dc/elements/1.1/"
   xmlns:cc="http://creativecommons.org/ns#"
   xmlns:rdf="http://www.w3.org/1999/02/22-rdf-syntax-ns#"
   xmlns:svg="http://www.w3.org/2000/svg"
   xmlns="http://www.w3.org/2000/svg"
   xmlns:sodipodi="http://sodipodi.sourceforge.net/DTD/sodipodi-0.dtd"
   xmlns:inkscape="http://www.inkscape.org/namespaces/inkscape"
   width="210mm"
   height="297mm"
   viewBox="0 0 744.09448819 1052.3622047"
   id="svg2"
   version="1.1"
   inkscape:version="0.91 r13725"
   sodipodi:docname="topsecret50x15.svg">
  <sodipodi:namedview
     id="base"
     pagecolor="#ffffff"
     bordercolor="#666666"
     borderopacity="1.0"
     inkscape:pageopacity="0.0"
     inkscape:pageshadow="2"
     inkscape:zoom="1.979899"
     inkscape:cx="361.82593"
     inkscape:cy="636.91448"
     inkscape:document-units="px"
     inkscape:current-layer="layer1"
     showgrid="false"
     inkscape:window-width="1360"
     inkscape:window-height="746"
     inkscape:window-x="1432"
     inkscape:window-y="-8"
     inkscape:window-maximized="1" />
  <defs
     id="defs4" />
  <metadata
     id="metadata7">
    <rdf:RDF>
      <cc:Work
         rdf:about="">
        <dc:format>image/svg+xml</dc:format>
        <dc:type
           rdf:resource="http://purl.org/dc/dcmitype/StillImage" />
        <dc:title></dc:title>
      </cc:Work>
    </rdf:RDF>
  </metadata>
  <g
     inkscape:label="Layer 1"
     inkscape:groupmode="layer"
     id="layer1">
    <path
       style="font-style:normal;font-variant:normal;font-weight:normal;font-stretch:condensed;font-size:medium;line-height:125%;font-family:Impact;-inkscape-font-specification:'Impact Condensed';letter-spacing:0px;word-spacing:0px;fill:none;fill-opacity:1;stroke:#000000;stroke-width:1px;stroke-linecap:butt;stroke-linejoin:miter;stroke-opacity:1"
       d="M 213.91602 367.73242 L 211.71289 367.87695 L 209.80273 368.31055 L 208.2168 369.01367 L 206.99219 369.9668 L 206.16992 371.10547 L 205.75781 372.35742 L 205.56836 376.78906 L 205.56836 380.34766 L 205.77539 384.84375 L 206.19922 386.08008 L 207.06055 387.2207 L 208.31055 388.17773 L 209.9043 388.86523 L 213.91602 389.4043 L 216.11719 389.25977 L 218.0293 388.82617 L 219.60938 388.12305 L 220.82227 387.16992 L 221.6543 386.03516 L 222.05664 384.79297 L 222.26172 380.34766 L 222.26172 376.78906 L 222.05664 372.29297 L 221.63281 371.05664 L 220.77148 369.91602 L 219.51562 368.96289 L 217.9082 368.28516 L 216.02734 367.87109 L 213.91602 367.73242 z M 255.99023 367.73242 L 253.60938 367.89062 L 251.60352 368.36133 L 250.03516 369.09961 L 248.96484 370.08398 L 248.35938 371.50977 L 248.1582 373.57812 L 248.30078 375.08789 L 248.72461 376.30078 L 250.18164 377.9707 L 253.74609 379.91016 L 257.12109 381.79883 L 257.62305 382.68359 L 257.79102 384.20117 L 257.42969 385.46094 L 256.36719 385.88477 L 255.35742 385.55078 L 255.08203 384.04688 L 255.08203 381.51758 L 248.38086 381.51758 L 248.38086 382.87891 L 248.53906 384.95117 L 249.01562 386.48828 L 250 387.64844 L 251.68945 388.58203 L 253.95508 389.19922 L 256.64258 389.4043 L 259.11914 389.22852 L 261.26953 388.69922 L 262.93164 387.89453 L 263.94336 386.92578 L 264.4707 385.58008 L 264.64648 383.65039 L 264.33203 381.01367 L 263.39453 379.2168 L 261.25195 377.65039 L 257.32812 375.69727 L 255.28711 374.42578 L 254.91016 372.85742 L 255.23633 371.65039 L 256.23047 371.25195 L 257.08789 371.54688 L 257.34375 372.92188 L 257.34375 374.46484 L 264.04492 374.46484 L 264.04492 373.64258 L 263.88281 371.52539 L 263.39453 370.13477 L 262.42188 369.18359 L 260.77148 368.41406 L 258.5918 367.90234 L 255.99023 367.73242 z M 289.73633 367.73242 L 287.52148 367.88281 L 285.57227 368.33594 L 283.96484 369.03906 L 282.74414 369.9668 L 281.93359 371.03125 L 281.52734 372.13867 L 281.32227 375.50391 L 281.32227 381.58203 L 281.48828 384.25586 L 281.99023 386.16797 L 283.00586 387.51953 L 284.71484 388.54492 L 287.05078 389.18945 L 289.94141 389.4043 L 292.74805 389.15039 L 295.06641 388.39062 L 296.78516 387.29102 L 297.75781 386.02539 L 298.2207 384.20898 L 298.375 381.45312 L 298.375 380.64258 L 291.1582 380.64258 L 291.1582 383.25195 L 290.90234 385.42188 L 290.52148 385.76953 L 289.85742 385.88477 L 289.16602 385.76953 L 288.77734 385.42188 L 288.53711 383.44336 L 288.53711 373.7832 L 288.77734 371.72852 L 289.17969 371.37109 L 289.9082 371.25195 L 290.91992 371.65039 L 291.1582 373.61523 L 291.1582 377.23828 L 298.375 377.23828 L 298.375 375.25977 L 298.21094 372.73047 L 297.72266 370.96875 L 296.7168 369.69727 L 294.99805 368.6582 L 292.64648 367.96289 L 289.73633 367.73242 z M 188.36133 368.16992 L 188.36133 372.33203 L 192.62891 372.33203 L 192.62891 388.96875 L 199.8457 388.96875 L 199.8457 372.33203 L 204.12891 372.33203 L 204.12891 368.16992 L 188.36133 368.16992 z M 224.9707 368.16992 L 224.9707 388.96875 L 232.18555 388.96875 L 232.18555 380.5918 L 234.12109 380.5918 L 237.94336 380.10352 L 239.18555 379.50977 L 239.9668 378.70312 L 240.37695 377.52148 L 240.51562 375.80078 L 240.51562 373.98828 L 240.22266 371.11133 L 239.14453 369.51758 L 236.76172 368.51562 L 232.23633 368.16992 L 224.9707 368.16992 z M 266.92578 368.16992 L 266.92578 388.96875 L 279.43555 388.96875 L 279.43555 384.80664 L 274.14062 384.80664 L 274.14062 380.23242 L 278.64844 380.23242 L 278.64844 376.27539 L 274.14062 376.27539 L 274.14062 372.33203 L 278.95703 372.33203 L 278.95703 368.16992 L 266.92578 368.16992 z M 300.99609 368.16992 L 300.99609 388.96875 L 308.21094 388.96875 L 308.21094 379.58984 L 309.41602 379.68945 L 310.04492 379.98828 L 310.40625 382.05664 L 310.40625 388.96875 L 317.10742 388.96875 L 317.10742 383.48242 L 316.91797 380.41211 L 316.00977 379.17969 L 314.92188 378.57812 L 313.13086 378.11328 L 315.10547 377.7793 L 316.30078 377.11133 L 316.90625 375.87695 L 317.10742 373.84766 L 316.82031 371.55078 L 315.95898 369.98047 L 314.65625 368.99219 L 313.00977 368.46484 L 306.10352 368.16992 L 300.99609 368.16992 z M 319.91797 368.16992 L 319.91797 388.96875 L 332.42773 388.96875 L 332.42773 384.80664 L 327.13281 384.80664 L 327.13281 380.23242 L 331.64062 380.23242 L 331.64062 376.27539 L 327.13281 376.27539 L 327.13281 372.33203 L 331.94922 372.33203 L 331.94922 368.16992 L 319.91797 368.16992 z M 333.28516 368.16992 L 333.28516 372.33203 L 337.55273 372.33203 L 337.55273 388.96875 L 344.76758 388.96875 L 344.76758 372.33203 L 349.05273 372.33203 L 349.05273 368.16992 L 333.28516 368.16992 z M 213.94922 371.25195 L 214.82422 371.66406 L 215.04688 373.51367 L 215.04688 383.07227 L 214.8418 385.39648 L 214.50195 385.76367 L 213.89844 385.88477 L 212.97266 385.46094 L 212.78516 383.22656 L 212.78516 373.51367 L 213.07617 371.58594 L 213.94922 371.25195 z M 232.18555 371.72852 L 234.03711 372.04883 L 234.37109 372.55664 L 234.48242 373.43555 L 234.48242 375.14453 L 234.08789 376.67383 L 232.7168 377.0332 L 232.18555 377.02148 L 232.18555 371.72852 z M 308.21094 371.72852 L 309.92578 372.03516 L 310.28516 372.51367 L 310.40625 373.33398 L 310.40625 374.47656 L 310.28125 375.57227 L 309.9082 376.10938 L 308.21094 376.35156 L 308.21094 371.72852 z "
       id="path4184" />
    <path
       id="rect4142"
       style="fill:none;stroke:#000000;stroke-width:0.33681729;stroke-linejoin:round;stroke-miterlimit:4;stroke-dasharray:none"
       d="M183.83657 355.70558L353.57848 355.70558L353.57848 401.43175L183.83657 401.43175L183.83657 355.70558M180.20535 352.07435L357.20972 352.07435L357.20972 405.06297L180.20534 405.06297L180.20535 352.07435"
       inkscape:connector-curvature="0" />
  </g>
</svg>
