<?xml version="1.0" encoding="UTF-8" standalone="no"?>
<!-- Created with Inkscape (http://www.inkscape.org/) -->

<svg
   xmlns:dc="http://purl.org/dc/elements/1.1/"
   xmlns:cc="http://creativecommons.org/ns#"
   xmlns:rdf="http://www.w3.org/1999/02/22-rdf-syntax-ns#"
   xmlns:svg="http://www.w3.org/2000/svg"
   xmlns="http://www.w3.org/2000/svg"
   xmlns:sodipodi="http://sodipodi.sourceforge.net/DTD/sodipodi-0.dtd"
   xmlns:inkscape="http://www.inkscape.org/namespaces/inkscape"
   width="210mm"
   height="297mm"
   viewBox="0 0 744.09448819 1052.3622047"
   id="svg2"
   version="1.1"
   inkscape:version="0.91 r13725"
   sodipodi:docname="wedding.svg">
  <defs
     id="defs4" />
  <sodipodi:namedview
     id="base"
     pagecolor="#ffffff"
     bordercolor="#666666"
     borderopacity="1.0"
     inkscape:pageopacity="0.0"
     inkscape:pageshadow="2"
     inkscape:zoom="1.4"
     inkscape:cx="-652.39174"
     inkscape:cy="935.27313"
     inkscape:document-units="mm"
     inkscape:current-layer="layer1"
     showgrid="false"
     inkscape:window-width="1440"
     inkscape:window-height="838"
     inkscape:window-x="-8"
     inkscape:window-y="-8"
     inkscape:window-maximized="1" />
  <metadata
     id="metadata7">
    <rdf:RDF>
      <cc:Work
         rdf:about="">
        <dc:format>image/svg+xml</dc:format>
        <dc:type
           rdf:resource="http://purl.org/dc/dcmitype/StillImage" />
        <dc:title></dc:title>
      </cc:Work>
    </rdf:RDF>
  </metadata>
  <g
     inkscape:label="Layer 1"
     inkscape:groupmode="layer"
     id="layer1">
    <g
       transform="matrix(-0.94875844,0,0,-0.94875844,-1364.9257,274.71997)"
       style="font-style:normal;font-weight:normal;font-size:15px;line-height:125%;font-family:sans-serif;letter-spacing:0px;word-spacing:0px;fill:#000000;fill-opacity:1;stroke:none;stroke-width:1px;stroke-linecap:butt;stroke-linejoin:miter;stroke-opacity:1"
       id="text5186">
      <path
         style="font-style:normal;font-variant:normal;font-weight:normal;font-stretch:condensed;font-family:Impact;-inkscape-font-specification:'Impact Condensed'"
         d="M -789.83789 65.341797 C -791.00991 65.330689 -792.18191 65.338298 -793.33203 65.369141 C -811.27171 65.850237 -828.91988 73.830681 -841.70312 87.242188 C -846.74589 92.532778 -851.50758 98.840707 -851.54297 100.27539 C -851.55827 100.89556 -852.21945 101.94014 -853.01172 102.59766 C -854.9808 104.23185 -859.27541 115.74974 -861.06445 124.19531 C -867.32185 153.7345 -851.71122 186.53198 -824.76758 200.45898 C -817.78838 204.06648 -807.99402 207.04988 -800.07227 207.98047 C -794.17087 208.67372 -781.95255 207.44297 -775.07227 205.46289 C -752.25036 198.89497 -733.73076 181.0586 -726.08398 158.2793 C -716.46992 129.63951 -723.14776 103.40704 -745.4043 82.390625 C -750.48192 77.595932 -766.10374 68.648438 -769.39648 68.648438 C -770.37302 68.648438 -771.59859 68.229117 -772.12109 67.716797 C -773.39345 66.469252 -781.63374 65.419549 -789.83789 65.341797 z M -793.54297 68.617188 C -782.80634 68.465206 -770.46686 71.056874 -761.22852 75.724609 C -743.23541 84.815774 -731.70142 99.414541 -726.52344 119.64844 C -724.69814 126.78115 -724.44184 129.83743 -724.92969 138.64844 C -725.89625 156.10566 -731.82007 170.27203 -743.36914 182.74609 C -752.81733 192.95101 -762.75555 199.2242 -775.57227 203.07422 C -778.59727 203.9829 -785.34726 204.92937 -790.57227 205.17578 C -809.67744 206.07679 -825.55876 199.88513 -839.12695 186.24609 C -853.22715 172.07226 -858.9713 157.82931 -858.93164 137.14844 C -858.91178 126.79945 -858.54305 124.08025 -856.24609 117.38477 C -848.03756 93.457524 -827.8208 75.158795 -803.57227 69.708984 C -800.52362 69.023805 -797.12184 68.667848 -793.54297 68.617188 z M -790.20117 69.777344 C -796.66224 69.684023 -803.19321 70.61547 -809.57227 72.693359 C -841.63422 83.137103 -862.74555 116.50698 -857.16992 147.92773 C -854.34234 163.86218 -848.82983 174.5479 -837.65625 185.75586 C -831.68181 191.74868 -828.26741 194.22678 -821.57227 197.42188 C -814.0802 200.99728 -808.24481 202.74351 -799.57227 204.00977 C -791.70114 205.15901 -779.03492 203.35625 -769.42578 199.71875 C -750.74913 192.64878 -735.0059 175.05477 -728.75391 154.26562 C -725.6655 143.99604 -725.28959 128.51489 -727.89062 118.64844 C -735.49162 89.815643 -762.20323 70.181736 -790.20117 69.777344 z M -795.75195 71.648438 C -795.16707 71.648438 -794.39379 72.128255 -794.03125 72.714844 C -792.95498 74.45629 -794.17925 74.824479 -795.55078 73.171875 C -796.33953 72.221494 -796.41505 71.648438 -795.75195 71.648438 z M -791.63086 71.648438 C -791.11331 71.648438 -790.41218 72.098442 -790.07227 72.648438 C -789.73234 73.198442 -790.15426 73.648438 -791.01172 73.648438 C -791.86918 73.648438 -792.57227 73.198442 -792.57227 72.648438 C -792.57227 72.098442 -792.1484 71.648438 -791.63086 71.648438 z M -787.68945 71.648438 C -787.13945 71.648438 -786.41219 72.098442 -786.07227 72.648438 C -785.73234 73.198442 -785.90312 73.648438 -786.45312 73.648438 C -787.00312 73.648438 -787.73234 73.198442 -788.07227 72.648438 C -788.41219 72.098442 -788.23945 71.648438 -787.68945 71.648438 z M -783.19727 71.996094 C -782.87076 71.930801 -782.20056 72.389539 -781.5918 73.123047 C -780.80305 74.073428 -780.72752 74.648438 -781.39062 74.648438 C -782.59917 74.648438 -784.00794 72.750145 -783.31445 72.056641 C -783.28299 72.025179 -783.24391 72.005421 -783.19727 71.996094 z M -800.01562 72.132812 C -799.77115 72.096223 -799.45333 72.14088 -799.07227 72.287109 C -798.24726 72.603691 -797.57227 73.264706 -797.57227 73.755859 C -797.57227 74.804266 -798.94861 74.936163 -799.9043 73.980469 C -800.8153 73.069476 -800.74904 72.24258 -800.01562 72.132812 z M -803.63086 72.648438 C -803.11331 72.648438 -802.41219 73.098442 -802.07227 73.648438 C -801.73235 74.198442 -802.15425 74.648438 -803.01172 74.648438 C -803.86918 74.648438 -804.57227 74.198442 -804.57227 73.648438 C -804.57227 73.098442 -804.1484 72.648438 -803.63086 72.648438 z M -779.24805 72.851562 C -779.04191 72.877692 -778.74745 73.072863 -778.38867 73.431641 C -777.73784 74.082479 -777.43654 74.846697 -777.7207 75.130859 C -778.3881 75.798254 -779.57227 74.61603 -779.57227 73.28125 C -779.57227 72.967951 -779.45418 72.825433 -779.24805 72.851562 z M -807.63086 73.648438 C -807.11332 73.648438 -806.41219 74.098442 -806.07227 74.648438 C -805.73234 75.198442 -806.15426 75.648438 -807.01172 75.648438 C -807.86918 75.648438 -808.57227 75.198442 -808.57227 74.648438 C -808.57227 74.098442 -808.1484 73.648438 -807.63086 73.648438 z M -774.27344 74.048828 C -773.00978 74.139561 -771.13872 74.810948 -770.13867 75.744141 C -769.62534 76.223159 -769.46635 76.876509 -769.78711 77.197266 C -770.10788 77.518031 -770.66872 77.301433 -771.03125 76.714844 C -771.39379 76.128245 -772.56333 75.648438 -773.63086 75.648438 C -774.6984 75.648438 -775.57227 75.167141 -775.57227 74.580078 C -775.57227 74.148608 -775.03163 73.994389 -774.27344 74.048828 z M -812.32227 75.664062 C -811.35976 75.655638 -810.57227 76.098442 -810.57227 76.648438 C -810.57227 77.868047 -810.68505 77.868047 -812.57227 76.648438 C -813.85416 75.82001 -813.81781 75.677155 -812.32227 75.664062 z M -790.80078 75.859375 C -782.17047 75.916714 -773.42778 77.967651 -764.96875 82.037109 C -734.65559 96.620105 -723.18683 131.96615 -738.58789 163.33789 C -746.49009 179.43454 -762.11557 192.32538 -778.46094 196.23438 C -785.45316 197.90658 -801.55255 197.8889 -807.67188 196.20117 C -824.25969 191.62619 -838.63128 179.47468 -845.65234 164.08984 C -859.06993 134.68865 -849.89781 103.27802 -822.69531 85.476562 C -812.80912 79.006988 -801.8969 75.785654 -790.80078 75.859375 z M -768.19727 75.996094 C -767.87077 75.930801 -767.20055 76.389547 -766.5918 77.123047 C -765.80305 78.073437 -765.72753 78.648438 -766.39062 78.648438 C -767.59917 78.648438 -769.00795 76.750136 -768.31445 76.056641 C -768.28299 76.025179 -768.24391 76.005421 -768.19727 75.996094 z M -816.07227 76.648438 C -815.24726 76.648438 -814.57227 77.098433 -814.57227 77.648438 C -814.57227 78.198433 -815.24726 78.648438 -816.07227 78.648438 C -816.89727 78.648438 -817.57227 78.198433 -817.57227 77.648438 C -817.57227 77.098433 -816.89727 76.648438 -816.07227 76.648438 z M -763.98438 77.652344 C -763.4173 77.591458 -762.58936 78.157204 -762.20898 79.148438 C -761.89241 79.97344 -761.99448 80.648438 -762.43555 80.648438 C -763.47774 80.648438 -764.57227 79.537983 -764.57227 78.480469 C -764.57227 77.950154 -764.32462 77.688875 -763.98438 77.652344 z M -819.57227 78.648438 C -819.02227 78.648438 -818.57227 79.098433 -818.57227 79.648438 C -818.57227 80.198433 -819.02227 80.648438 -819.57227 80.648438 C -820.12227 80.648438 -820.57227 80.198433 -820.57227 79.648438 C -820.57227 79.098433 -820.12227 78.648438 -819.57227 78.648438 z M -760.24805 79.851562 C -760.04191 79.877692 -759.74745 80.072858 -759.38867 80.431641 C -758.73784 81.08247 -758.43653 81.846697 -758.7207 82.130859 C -759.3881 82.798254 -760.57227 81.61603 -760.57227 80.28125 C -760.57227 79.967946 -760.45418 79.825433 -760.24805 79.851562 z M -787.61328 80.541016 C -788.246 80.491415 -788.80879 80.552114 -789.30078 80.722656 C -789.79277 80.893199 -790.19568 81.161484 -790.50781 81.527344 C -790.81533 81.893571 -791.01507 82.308652 -791.10742 82.775391 C -791.19479 83.237872 -791.28276 84.033259 -791.37109 85.160156 L -791.52148 87.080078 C -791.612 88.234686 -791.64618 89.043577 -791.62695 89.509766 C -791.60774 89.975954 -791.46918 90.416652 -791.20898 90.832031 C -790.9488 91.247404 -790.58904 91.574667 -790.12891 91.810547 C -789.66379 92.042183 -789.1297 92.181457 -788.5293 92.228516 C -787.89657 92.27811 -787.33379 92.217411 -786.8418 92.046875 C -786.3498 91.876333 -785.9501 91.606461 -785.64258 91.240234 C -785.33044 90.874368 -785.13229 90.460522 -785.04492 89.998047 C -784.95258 89.531308 -784.86177 88.734326 -784.77344 87.607422 L -784.62305 85.689453 C -784.53253 84.534846 -784.4964 83.724001 -784.51562 83.257812 C -784.53484 82.791618 -784.67536 82.35092 -784.93555 81.935547 C -785.19573 81.520174 -785.55832 81.196474 -786.02344 80.964844 C -786.48357 80.728957 -787.01288 80.588074 -787.61328 80.541016 z M -796.19727 80.603516 C -796.52456 80.571052 -796.87749 80.571756 -797.25586 80.605469 C -797.94801 80.667138 -798.52908 80.833834 -798.99805 81.103516 C -799.46744 81.36858 -799.79434 81.708432 -799.98047 82.125 C -800.16199 82.541157 -800.21514 83.178844 -800.13867 84.037109 C -800.08564 84.632354 -799.9657 85.114947 -799.7793 85.484375 C -799.58829 85.853385 -799.36403 86.136125 -799.10938 86.332031 C -798.85472 86.527937 -798.34534 86.832706 -797.57812 87.248047 C -796.81133 87.658777 -796.32571 87.957942 -796.12305 88.144531 C -795.92503 88.331525 -795.7971 88.754214 -795.73828 89.414062 C -795.71156 89.713997 -795.73893 89.944566 -795.82227 90.105469 C -795.90099 90.265967 -796.03862 90.355779 -796.23242 90.373047 C -796.42623 90.390314 -796.56712 90.3415 -796.65625 90.228516 C -796.74073 90.11512 -796.8024 89.849589 -796.83984 89.429688 L -796.96094 88.066406 L -799.66602 88.306641 L -799.60156 89.041016 C -799.52674 89.880825 -799.3833 90.521288 -799.17188 90.962891 C -798.96044 91.4045 -798.5676 91.747748 -797.99219 91.994141 C -797.41215 92.240122 -796.73099 92.32924 -795.95117 92.259766 C -795.24056 92.196452 -794.62984 92.014374 -794.11719 91.712891 C -793.60495 91.406802 -793.27391 91.054979 -793.12305 90.660156 C -792.96757 90.264929 -792.92497 89.669373 -792.99609 88.871094 C -793.09394 87.772881 -793.33401 86.991065 -793.71484 86.527344 C -794.09568 86.063622 -794.9687 85.504676 -796.33398 84.849609 C -796.81003 84.622268 -797.10499 84.418836 -797.21875 84.238281 C -797.33716 84.058137 -797.41204 83.78001 -797.44531 83.40625 C -797.47122 83.11555 -797.44602 82.895 -797.37109 82.744141 C -797.29155 82.592877 -797.16558 82.509764 -796.99023 82.494141 C -796.82873 82.479751 -796.70758 82.523086 -796.62891 82.623047 C -796.55024 82.723008 -796.49352 82.96591 -796.45898 83.353516 L -796.38477 84.183594 L -793.67969 83.943359 L -793.71875 83.5 C -793.7981 82.609432 -793.94216 81.988286 -794.15039 81.634766 C -794.35442 81.276217 -794.73396 80.997655 -795.29102 80.800781 C -795.56723 80.702142 -795.86997 80.635979 -796.19727 80.603516 z M -823.57227 80.748047 C -823.2056 80.748047 -822.83776 80.9806 -822.37109 81.447266 C -821.43776 82.380607 -821.70559 82.648438 -823.57227 82.648438 C -825.43894 82.648438 -825.70482 82.380607 -824.77148 81.447266 C -824.30482 80.9806 -823.93893 80.748047 -823.57227 80.748047 z M -756.67383 81.591797 C -756.46528 81.570184 -756.22093 81.663839 -755.9668 81.917969 C -755.6345 82.250262 -755.5516 83.090371 -755.7832 83.785156 C -756.12193 84.801561 -756.35825 84.800662 -756.98828 83.78125 C -757.6138 82.769129 -757.29947 81.656637 -756.67383 81.591797 z M -778.82812 82.007812 C -779.11422 81.989977 -779.38932 82.003017 -779.6543 82.046875 C -780.17861 82.13127 -780.6232 82.319678 -780.98633 82.613281 C -781.34497 82.908048 -781.60183 83.246223 -781.75781 83.626953 C -781.91264 84.003193 -782.09175 84.582349 -782.29492 85.367188 L -783.11914 88.550781 C -783.39546 89.61816 -783.51526 90.440567 -783.47852 91.019531 C -783.4406 91.594017 -783.19085 92.101215 -782.73047 92.541016 C -782.27008 92.980816 -781.6246 93.308658 -780.79492 93.523438 C -779.99663 93.730109 -779.28086 93.725537 -778.64648 93.511719 C -778.00762 93.299064 -777.5484 92.977137 -777.26953 92.546875 C -776.98618 92.117771 -776.69961 91.34052 -776.4082 90.214844 L -776.29688 89.791016 L -779.12891 89.058594 L -779.48242 90.423828 C -779.63684 91.0203 -779.76984 91.391116 -779.87891 91.535156 C -779.98349 91.680373 -780.14078 91.72646 -780.35156 91.671875 C -780.57131 91.614981 -780.69189 91.496062 -780.71289 91.318359 C -780.73388 91.140651 -780.67606 90.787011 -780.53906 90.257812 L -779.22852 85.199219 C -779.08571 84.647592 -778.96121 84.29812 -778.85547 84.148438 C -778.74973 83.998787 -778.58087 83.953331 -778.34766 84.013672 C -778.14138 84.067074 -778.02623 84.172049 -778.00391 84.326172 C -777.97595 84.476968 -778.03493 84.827279 -778.17773 85.378906 L -778.66797 87.275391 L -775.83594 88.009766 L -775.56836 86.972656 C -775.30483 85.954613 -775.19601 85.184149 -775.24219 84.660156 C -775.28722 84.131685 -775.53898 83.635261 -775.99805 83.171875 C -776.45711 82.708495 -777.10333 82.368294 -777.9375 82.152344 C -778.24471 82.072816 -778.54203 82.025648 -778.82812 82.007812 z M -805.54688 82.175781 L -810.29492 83.595703 L -807.07031 94.373047 L -804.26758 93.535156 L -805.62109 89.007812 L -803.89062 88.490234 L -804.50391 86.439453 L -806.23438 86.957031 L -806.8457 84.914062 L -804.90234 84.332031 L -805.54688 82.175781 z M -787.74805 82.439453 C -787.56793 82.453577 -787.45594 82.537323 -787.41211 82.689453 C -787.36328 82.837333 -787.35947 83.171479 -787.40039 83.693359 L -787.80469 88.847656 C -787.85646 89.508093 -787.91715 89.924547 -787.98633 90.095703 C -788.05551 90.266853 -788.19008 90.343685 -788.38867 90.328125 C -788.58267 90.31292 -788.70069 90.227066 -788.74414 90.070312 C -788.78298 89.913919 -788.77761 89.510571 -788.72656 88.859375 L -788.31445 83.623047 C -788.2692 83.04574 -788.2028 82.7011 -788.11523 82.591797 C -788.02269 82.478224 -787.90046 82.427499 -787.74805 82.439453 z M -826.57227 83.777344 C -826.11914 83.777344 -825.66602 83.847624 -825.32227 83.986328 C -824.63477 84.263745 -825.19726 84.490234 -826.57227 84.490234 C -827.94726 84.490234 -828.50976 84.263745 -827.82227 83.986328 C -827.47852 83.847624 -827.02539 83.777344 -826.57227 83.777344 z M -754.0918 83.939453 C -752.99284 83.863115 -748.61537 87.705875 -748.58789 88.898438 C -748.55787 90.201424 -749.99063 89.518083 -752.48438 87.039062 C -753.81137 85.719918 -754.61282 84.355011 -754.26562 84.007812 C -754.22376 83.965944 -754.16506 83.944542 -754.0918 83.939453 z M -772.19727 84.201172 L -776.45312 94.617188 L -773.74609 95.722656 L -769.49023 85.308594 L -772.19727 84.201172 z M -814.51367 85.332031 C -815.03019 85.355927 -815.55907 85.496464 -816.10352 85.753906 C -816.67727 86.02522 -817.13627 86.357562 -817.47852 86.75 C -817.82076 87.142432 -818.03588 87.574279 -818.125 88.046875 C -818.20993 88.517484 -818.17713 88.978743 -818.02539 89.429688 C -817.87144 89.874453 -817.55352 90.607036 -817.07031 91.628906 L -816.24609 93.369141 C -815.751 94.41614 -815.37915 95.138172 -815.13086 95.533203 C -814.88257 95.928241 -814.54351 96.241437 -814.11133 96.472656 C -813.67916 96.703888 -813.20402 96.807112 -812.6875 96.783203 C -812.16877 96.75314 -811.63819 96.609011 -811.09375 96.351562 C -810.52 96.080256 -810.061 95.747907 -809.71875 95.355469 C -809.3765 94.963031 -809.16305 94.531156 -809.07812 94.060547 C -808.989 93.587951 -809.02183 93.130319 -809.17578 92.685547 C -809.32752 92.234608 -809.6457 91.498432 -810.12891 90.476562 L -810.95117 88.736328 C -811.44627 87.689335 -811.81812 86.967303 -812.06641 86.572266 C -812.3147 86.177234 -812.65376 85.864031 -813.08594 85.632812 C -813.51811 85.401613 -813.99495 85.301987 -814.51367 85.332031 z M -830.07227 85.648438 C -829.24726 85.648438 -828.57227 86.098442 -828.57227 86.648438 C -828.57227 87.198442 -829.24726 87.648438 -830.07227 87.648438 C -830.89727 87.648438 -831.57227 87.198442 -831.57227 86.648438 C -831.57227 86.098442 -830.89727 85.648438 -830.07227 85.648438 z M -766.40234 86.753906 L -773.23438 95.814453 L -770.5957 97.304688 L -769.44922 95.630859 L -768.53711 96.146484 L -769.4043 97.978516 L -766.79883 99.453125 L -762.71875 88.835938 L -766.40234 86.753906 z M -815.05078 87.423828 C -814.98154 87.432082 -814.9201 87.464405 -814.86328 87.519531 C -814.74744 87.623616 -814.5773 87.911525 -814.35352 88.384766 L -812.14258 93.058594 C -811.85937 93.657475 -811.70662 94.047561 -811.68164 94.230469 C -811.65664 94.413377 -811.73398 94.547658 -811.91406 94.632812 C -812.08996 94.716006 -812.234 94.700377 -812.34961 94.585938 C -812.46103 94.469512 -812.65827 94.115892 -812.9375 93.525391 L -815.18164 88.777344 C -815.4292 88.253844 -815.54318 87.92157 -815.52148 87.783203 C -815.49759 87.638669 -815.41555 87.5341 -815.27734 87.46875 C -815.19568 87.430132 -815.12002 87.415574 -815.05078 87.423828 z M -833.07227 88.648438 C -832.24727 88.648437 -831.57227 89.098433 -831.57227 89.648438 C -831.57227 90.198433 -832.24727 90.648438 -833.07227 90.648438 C -833.89727 90.648437 -834.57227 90.198433 -834.57227 89.648438 C -834.57227 89.098433 -833.89727 88.648438 -833.07227 88.648438 z M -747.10547 89.109375 C -747.04518 89.131836 -746.97755 89.226563 -746.9082 89.398438 C -746.6308 90.085936 -746.6308 91.210939 -746.9082 91.898438 C -747.18561 92.585936 -747.41406 92.023435 -747.41406 90.648438 C -747.41406 89.617189 -747.28634 89.041993 -747.10547 89.109375 z M -765.69336 90.044922 C -766.48551 91.747058 -767.12895 93.189162 -767.62695 94.371094 L -768.49805 93.876953 C -767.94328 93.046429 -767.00945 91.770119 -765.69336 90.044922 z M -824.2793 90.667969 L -826.57031 92.486328 L -821.41406 98.978516 C -821.0655 99.417494 -820.866 99.714847 -820.81445 99.869141 C -820.76217 100.01693 -820.808 100.14844 -820.95312 100.26367 C -821.0801 100.36448 -821.20886 100.37923 -821.33594 100.30859 C -821.46227 100.23145 -821.67706 100.00175 -821.98242 99.617188 L -827.22852 93.009766 L -829.51953 94.828125 L -825.37891 100.04297 C -824.58956 101.03703 -824.05356 101.67579 -823.76953 101.95898 C -823.48838 102.23855 -823.13815 102.43769 -822.7168 102.55859 C -822.29543 102.67949 -821.81442 102.66711 -821.27344 102.52148 C -820.73246 102.37586 -820.19793 102.09545 -819.67188 101.67773 C -819.19662 101.30035 -818.84243 100.90019 -818.60938 100.47852 C -818.37561 100.05033 -818.26476 99.6092 -818.27539 99.15625 C -818.28893 98.699676 -818.37918 98.320618 -818.54883 98.017578 C -818.72135 97.710914 -819.07344 97.224187 -819.60352 96.556641 L -824.2793 90.667969 z M -759.57617 90.908203 L -766.43359 99.828125 L -762.70508 102.69531 L -761.33203 100.91016 L -762.74219 99.826172 L -757.25781 92.693359 L -759.57617 90.908203 z M -836.01172 91.648438 C -835.15423 91.648438 -834.73234 92.098433 -835.07227 92.648438 C -835.41219 93.198433 -836.11332 93.648438 -836.63086 93.648438 C -837.14841 93.648438 -837.57227 93.198433 -837.57227 92.648438 C -837.57227 92.098433 -836.86919 91.648438 -836.01172 91.648438 z M -745.16992 91.837891 C -744.99829 91.878492 -744.76523 92.055076 -744.45898 92.361328 C -743.84711 92.973201 -743.51965 93.990548 -743.73047 94.623047 C -744.22745 96.113945 -745.57227 94.769108 -745.57227 92.78125 C -745.57227 92.077752 -745.45597 91.770222 -745.16992 91.837891 z M -839.01172 94.648438 C -838.21918 94.648438 -837.57227 95.098442 -837.57227 95.648438 C -837.57227 96.198442 -838.4984 96.648438 -839.63086 96.648438 C -840.76332 96.648438 -841.41219 96.198442 -841.07227 95.648438 C -840.73234 95.098442 -839.80426 94.648438 -839.01172 94.648438 z M -741.75195 94.771484 C -741.58856 94.809723 -741.39944 95.343214 -741.06055 96.398438 C -740.66309 97.635941 -739.94093 98.648438 -739.45508 98.648438 C -738.96923 98.648438 -738.57227 99.323435 -738.57227 100.14844 C -738.57227 100.97343 -739.02226 101.64844 -739.57227 101.64844 C -740.12226 101.64844 -740.57227 101.00964 -740.57227 100.23047 C -740.57227 99.451301 -741.07276 98.647618 -741.68555 98.443359 C -742.29819 98.239101 -742.57049 97.188445 -742.29102 96.109375 C -742.0527 95.189241 -741.91534 94.733246 -741.75195 94.771484 z M -841.51172 97.648438 C -840.99418 97.648438 -840.57227 98.098442 -840.57227 98.648438 C -840.57227 99.198442 -841.2734 99.648438 -842.13086 99.648438 C -842.98836 99.648438 -843.41218 99.198442 -843.07227 98.648438 C -842.73234 98.098442 -842.02927 97.648438 -841.51172 97.648438 z M -832.36914 97.658203 L -835.20117 100.80273 L -827.83789 109.4375 L -825.80859 107.18555 L -827.19531 105.70312 L -826.49414 104.92383 L -824.89258 106.16797 L -822.88867 103.94336 L -832.36914 97.658203 z M -751.31641 98.076172 L -760.75781 104.37109 L -758.76172 106.65039 L -757.12695 105.44727 L -756.43555 106.23828 L -757.85938 107.67969 L -755.88672 109.93164 L -748.52734 101.25977 L -751.31641 98.076172 z M -831.83398 100.82422 C -830.3441 101.96659 -829.07708 102.90796 -828.03125 103.65039 L -828.70117 104.39453 C -829.39165 103.67289 -830.4352 102.48307 -831.83398 100.82422 z M -751.73438 101.41602 C -753.04438 102.76088 -754.12972 103.91028 -754.99023 104.86133 L -755.65039 104.10742 C -754.8524 103.5068 -753.54652 102.60955 -751.73438 101.41602 z M -844.01172 101.64844 C -843.15423 101.64844 -842.73234 102.09843 -843.07227 102.64844 C -843.41218 103.19843 -844.11332 103.64844 -844.63086 103.64844 C -845.1484 103.64844 -845.57227 103.19843 -845.57227 102.64844 C -845.57227 102.09843 -844.86918 101.64844 -844.01172 101.64844 z M -737.36719 102.0625 C -736.91427 101.96761 -736.57227 102.55506 -736.57227 103.50586 C -736.57227 104.59249 -736.05437 105.65439 -735.42188 105.86523 C -734.78942 106.07606 -734.49093 106.89977 -734.75977 107.69727 C -735.09177 108.68215 -735.7804 108.12403 -736.90625 105.95508 C -737.94079 103.96203 -738.19022 102.53082 -737.56836 102.14648 C -737.49986 102.10415 -737.43189 102.07606 -737.36719 102.0625 z M -837.37109 103.5625 L -840.07422 107.625 L -830.70703 113.85742 L -827.89648 109.63281 L -829.77148 108.38672 L -830.96094 110.17383 L -833.02148 108.80273 L -832.00781 107.28125 L -833.79102 106.0957 L -834.80273 107.61719 L -836.57812 106.43555 L -835.49805 104.81055 L -837.37109 103.5625 z M -746.22656 104.27148 L -755.66016 110.40039 L -754.06641 112.85547 L -750.10352 110.2793 L -749.11914 111.79492 L -747.32617 110.62891 L -748.31055 109.11328 L -746.52148 107.95117 L -745.41602 109.6543 L -743.52734 108.42773 L -746.22656 104.27148 z M -846.07227 104.64844 C -845.24727 104.64844 -844.57227 105.09844 -844.57227 105.64844 C -844.57227 106.19844 -845.24727 106.64844 -846.07227 106.64844 C -846.89727 106.64844 -847.57227 106.19844 -847.57227 105.64844 C -847.57227 105.09844 -846.89727 104.64844 -846.07227 104.64844 z M -778.40234 106.06445 C -779.89833 106.02946 -779.68683 106.82357 -778.20703 109.08203 C -776.16055 112.2053 -776.06324 114.90464 -778.09375 112.2207 C -780.10099 109.56754 -781.02547 110.90329 -779.73828 114.5957 C -778.74123 117.45585 -778.82824 117.64844 -781.12305 117.64844 C -782.46944 117.64844 -783.57227 118.0454 -783.57227 118.53125 C -783.57227 119.01711 -784.51653 119.66121 -785.67188 119.96289 C -788.74349 120.76614 -787.2146 122.28844 -782.59375 123.02734 C -777.93026 123.77307 -777.20394 126.06756 -781.07227 127.83008 C -783.67872 129.01766 -784.28765 130.2407 -782.56055 130.81641 C -782.00512 131.00155 -782.40777 131.68702 -783.45312 132.33984 C -785.10579 133.37195 -785.28689 133.27501 -784.8457 131.58789 C -784.56664 130.52076 -784.84093 129.64648 -785.45508 129.64648 C -786.06923 129.64648 -786.61704 130.20899 -786.67188 130.89648 C -786.72669 131.58398 -787.06419 131.10785 -787.42188 129.83789 C -788.15466 127.23691 -790.19548 127.23142 -789.8457 129.83203 C -789.70344 130.88977 -790.44685 131.65304 -791.8457 131.88477 C -793.59233 132.17413 -793.14213 132.54879 -789.75977 133.62695 C -787.38843 134.38284 -783.69419 136.7031 -781.55078 138.7832 C -777.89423 142.33178 -773.57227 149.27942 -773.57227 151.60742 C -773.57227 153.67728 -776.56432 152.58479 -778.25195 149.89844 C -784.58691 139.8145 -791.57677 134.56202 -796.55664 136.14258 C -799.2528 136.99831 -799.09532 136.05803 -795.91602 132.29297 C -789.31552 124.47641 -786.545 112.79267 -790.45312 109.25586 C -793.23693 106.73653 -799.37836 105.2427 -801.0957 106.66797 C -801.8591 107.30146 -802.92025 107.55004 -803.45312 107.2207 C -804.67874 106.46322 -809.57227 108.64057 -809.57227 109.94336 C -809.57227 110.47951 -810.64985 111.91831 -811.96875 113.14062 C -820.58933 121.1299 -825.94276 133.96098 -823.60742 141.03711 C -821.15276 148.47483 -814.16885 148.47036 -803.82227 141.02344 C -801.61391 139.43398 -801.57136 139.46584 -801.56055 142.77539 C -801.5545 144.62997 -801.30189 147.72344 -801 149.64844 C -800.46 153.09186 -800.5417 153.18628 -806.01172 155.52148 C -809.06965 156.82695 -811.57227 158.34249 -811.57227 158.88867 C -811.57227 159.87022 -809.96198 159.63143 -806.07227 158.07422 C -804.30944 157.36848 -804.23075 157.46887 -805.41211 158.92188 C -806.14927 159.82856 -807.61177 160.84242 -808.66211 161.17578 C -809.71244 161.50914 -810.57227 162.4269 -810.57227 163.21484 C -810.57227 165.22833 -809.75115 165.02127 -805.81055 162.01562 C -802.57134 159.54498 -802.43283 159.51996 -803.54688 161.60156 C -805.63308 165.49968 -803.95954 164.8332 -801.20312 160.66797 C -799.73984 158.45679 -798.34282 156.64844 -798.09766 156.64844 C -797.85251 156.64844 -795.59138 158.84998 -793.07422 161.54102 C -790.55706 164.23207 -787.05253 167.14616 -785.28516 168.01758 C -774.57328 173.2992 -766.53384 164.3699 -770.83789 151.9707 C -772.12008 148.27704 -772.11149 147.61539 -770.76562 146.26953 C -769.51347 145.01738 -769.47098 144.47245 -770.5293 143.19727 C -771.23689 142.34465 -771.36641 141.64844 -770.81641 141.64844 C -770.26641 141.64844 -769.25696 142.32344 -768.57227 143.14844 C -766.81739 145.26292 -765.66338 145.0112 -766.28125 142.64844 C -766.72524 140.95061 -766.29549 140.63534 -763.4375 140.56836 C -761.58585 140.52493 -760.63477 140.26179 -761.32227 139.98438 C -762.00976 139.70697 -762.57227 138.85525 -762.57227 138.08984 C -762.57227 137.0605 -763.39518 136.86341 -765.73828 137.33203 C -768.46664 137.8777 -768.81405 137.7231 -768.23828 136.22266 C -767.21864 133.56554 -769.83883 134.84976 -771.30664 137.72656 C -771.98603 139.05814 -772.54905 139.58594 -772.55664 138.89844 C -772.56475 138.21094 -773.02227 137.64844 -773.57227 137.64844 C -774.12227 137.64844 -774.57227 138.32344 -774.57227 139.14844 C -774.57227 139.97344 -775.05847 140.64844 -775.6543 140.64844 C -776.25015 140.64844 -776.47673 140.08594 -776.15625 139.39844 C -775.83577 138.71094 -775.29458 137.36094 -774.95508 136.39844 C -774.61558 135.43594 -773.74695 134.64844 -773.02539 134.64844 C -772.30382 134.64844 -771.11937 134.06006 -770.39258 133.3418 C -769.66579 132.62351 -768.17227 131.66056 -767.07227 131.20312 C -765.16423 130.40968 -765.18191 130.34298 -767.45508 129.74219 C -769.39986 129.22818 -769.58366 128.9065 -768.45508 127.98828 C -767.69457 127.36953 -766.20872 126.70254 -765.1543 126.50586 C -764.09987 126.30916 -763.06214 125.62078 -762.84766 124.97656 C -762.59583 124.22016 -763.2738 123.983 -764.76367 124.30859 C -766.80849 124.75546 -766.701 124.4913 -763.8125 121.98047 C -762.02004 120.42239 -760.55776 118.88503 -760.5625 118.56445 C -760.58058 117.39528 -764.75649 118.3284 -765.59766 119.68945 C -766.07378 120.45986 -766.78453 120.76819 -767.17773 120.375 C -767.57094 119.9818 -767.14571 118.83339 -766.23242 117.82422 C -763.98466 115.34047 -764.14021 114.34684 -766.57227 115.64844 C -768.86205 116.87388 -768.92726 116.71516 -767.5957 113.21289 C -766.75285 110.99601 -766.8886 110.64844 -768.5957 110.64844 C -769.68209 110.64844 -770.51821 110.31094 -770.45312 109.89844 C -770.14424 107.94216 -770.70244 107.51159 -772.07227 108.64844 C -773.29265 109.66128 -773.57227 109.61189 -773.57227 108.38672 C -773.57227 107.53869 -774.7736 106.64906 -776.32227 106.35156 C -777.21695 106.17969 -777.90368 106.07612 -778.40234 106.06445 z M -847.76172 108.66406 C -846.30445 108.67726 -846.27957 108.81304 -847.57227 109.64844 C -849.53064 110.91404 -850.85444 110.91404 -850.07227 109.64844 C -849.73234 109.09844 -848.69176 108.65647 -847.76172 108.66406 z M -800.45508 109.65039 C -799.65768 109.54198 -800.26976 110.60652 -802.57227 112.40625 C -808.09567 116.72357 -810.56821 119.72466 -813.69141 125.89844 C -816.39338 131.23958 -817.57227 132.75235 -817.57227 130.88281 C -817.57227 130.46217 -816.64439 128.38873 -815.51172 126.27539 C -811.96592 119.65972 -814.19772 120.82805 -819.35742 128.28906 C -820.06424 129.31114 -819.42539 127.77999 -817.93945 124.88477 C -814.73386 118.63897 -808.13686 111.18029 -806.63672 112.10742 C -806.05297 112.46819 -804.57491 112.06195 -803.35156 111.20508 C -801.91998 110.20236 -800.93352 109.71544 -800.45508 109.65039 z M -733.95898 110.03125 C -733.83945 110.02596 -733.70977 110.06346 -733.57227 110.14844 C -733.02227 110.48835 -732.57227 111.18949 -732.57227 111.70703 C -732.57227 112.22457 -733.02227 112.64844 -733.57227 112.64844 C -734.12227 112.64844 -734.57227 111.9473 -734.57227 111.08984 C -734.57227 110.44673 -734.31758 110.04713 -733.95898 110.03125 z M -742.49805 110.31055 L -752.63086 115.19922 L -751.36133 117.83398 L -747.10547 115.78125 L -746.32031 117.4082 L -744.39258 116.47852 L -745.17773 114.85156 L -743.25586 113.92383 L -742.37305 115.75195 L -740.3457 114.77344 L -742.49805 110.31055 z M -795.50586 110.64844 C -791.60388 110.64844 -799.94319 126.13536 -808.28125 134.375 C -811.19097 137.25037 -813.57227 139.83788 -813.57227 140.125 C -813.57227 141.54445 -811.29481 140.21656 -806.42969 135.95703 L -801.07227 131.26562 L -805.02344 135.45703 C -809.46379 140.16502 -808.47624 141.06957 -803.39844 136.94531 L -800.07227 134.24414 L -802.57227 137.03711 C -803.94726 138.57372 -805.92177 140.28974 -806.96094 140.84961 C -817.44992 146.50084 -819.07629 140.67053 -810.87109 126.83203 C -807.13506 120.53102 -797.75159 110.64844 -795.50586 110.64844 z M -840.41211 110.89062 C -840.56503 110.8837 -840.70841 110.89351 -840.83984 110.91797 C -841.36782 111.00966 -841.78423 111.25395 -842.08789 111.6543 C -842.38959 112.05045 -842.83005 112.87514 -843.41211 114.12695 L -844.28516 116.00586 L -834.08398 120.74805 L -832.85156 118.0957 L -837.45117 115.95703 C -837.28124 115.59157 -837.11069 115.39651 -836.94141 115.37305 C -836.77017 115.34538 -836.41133 115.45898 -835.86523 115.71289 L -832.47656 117.28906 L -831.33008 114.82617 L -834.02148 113.57422 C -834.84482 113.19137 -835.35648 112.98112 -835.55859 112.94336 C -835.76296 112.89939 -836.01593 112.91702 -836.31836 112.99609 C -836.62079 113.07516 -836.95961 113.346 -837.33398 113.81055 C -837.11903 113.20545 -837.10196 112.74236 -837.2832 112.41797 C -837.46445 112.09358 -837.95216 111.74611 -838.74609 111.37695 C -839.39826 111.07372 -839.95334 110.91139 -840.41211 110.89062 z M -850.01172 112.64844 C -849.15423 112.64844 -848.73234 113.09843 -849.07227 113.64844 C -849.41219 114.19843 -850.11332 114.64844 -850.63086 114.64844 C -851.1484 114.64844 -851.57227 114.19843 -851.57227 113.64844 C -851.57227 113.09843 -850.86918 112.64844 -850.01172 112.64844 z M -840.56641 113.58008 C -840.44667 113.59999 -840.30626 113.64746 -840.14453 113.72266 L -839.58398 113.98438 C -839.13453 114.19337 -838.89653 114.37818 -838.86914 114.53906 C -838.84401 114.69379 -838.90039 114.9205 -839.03906 115.21875 L -841.30664 114.16406 C -841.16405 113.8574 -841.01683 113.67006 -840.86328 113.60352 C -840.78553 113.56814 -840.68615 113.56017 -840.56641 113.58008 z M -774.18359 113.98633 C -773.825 113.91705 -773.57227 114.1168 -773.57227 114.5293 C -773.57227 115.0793 -774.02227 115.80852 -774.57227 116.14844 C -775.12227 116.48836 -775.57227 116.31563 -775.57227 115.76562 C -775.57227 115.21563 -775.12227 114.48836 -774.57227 114.14844 C -774.43477 114.06346 -774.30312 114.00942 -774.18359 113.98633 z M -732.18359 114.03125 C -731.825 114.04713 -731.57227 114.44675 -731.57227 115.08984 C -731.57227 115.9473 -732.02227 116.64844 -732.57227 116.64844 C -733.12227 116.64844 -733.57227 116.22458 -733.57227 115.70703 C -733.57227 115.18949 -733.12227 114.48836 -732.57227 114.14844 C -732.43477 114.06346 -732.30312 114.02596 -732.18359 114.03125 z M -771.21875 115.06445 C -770.83857 115.09194 -770.59528 115.56376 -770.61328 116.33984 C -770.63634 117.3348 -771.46641 119.66821 -772.45703 121.52734 C -773.79026 124.02949 -774.41127 124.51025 -774.84766 123.37305 C -775.17559 122.51848 -774.60975 121.08735 -773.57227 120.14844 C -772.54645 119.22009 -771.93164 117.87199 -772.20703 117.1543 C -772.48245 116.43661 -772.22617 115.55255 -771.63867 115.18945 C -771.48592 115.09505 -771.34548 115.05529 -771.21875 115.06445 z M -850.96875 116.22461 C -850.10373 116.13161 -849.48707 116.70356 -850.11328 117.7168 C -850.42972 118.22878 -851.39207 118.64844 -852.25195 118.64844 C -853.52314 118.64844 -853.58483 118.36888 -852.58008 117.1582 C -852.09589 116.57481 -851.48776 116.28041 -850.96875 116.22461 z M -739.21094 117.73438 L -750.39062 119.68945 L -749.48047 122.58008 L -747.5 122.14062 L -747.18555 123.14062 L -749.07031 123.88672 L -748.17188 126.74414 L -737.94141 121.77148 L -739.21094 117.73438 z M -730.94922 118.03711 C -730.82774 118.03302 -730.69443 118.07184 -730.55469 118.1582 C -729.99573 118.50367 -729.79684 119.2048 -730.11328 119.7168 C -730.97051 121.10384 -731.57227 120.84638 -731.57227 119.08984 C -731.57227 118.44674 -731.31366 118.04938 -730.94922 118.03711 z M -845.35156 118.91406 L -846.10742 121.74023 L -838.09961 123.88477 C -837.55815 124.02979 -837.22118 124.14894 -837.08789 124.24219 C -836.95787 124.32976 -836.9169 124.46163 -836.96484 124.64062 C -837.00679 124.79728 -837.09999 124.88538 -837.24414 124.9043 C -837.39157 124.91757 -837.70339 124.86141 -838.17773 124.73438 L -846.32617 122.55273 L -847.08203 125.37695 L -840.65234 127.09961 C -839.42622 127.42799 -838.61362 127.62137 -838.2168 127.67969 C -837.82444 127.73681 -837.42416 127.68899 -837.01367 127.53516 C -836.60319 127.38132 -836.22282 127.08372 -835.875 126.64453 C -835.52717 126.20534 -835.26753 125.66253 -835.09375 125.01367 C -834.93675 124.42747 -834.88918 123.8955 -834.95312 123.41797 C -835.02034 122.93477 -835.19432 122.51375 -835.47266 122.15625 C -835.75546 121.79755 -836.05433 121.54668 -836.37109 121.4043 C -836.69233 121.26071 -837.26451 121.07989 -838.08789 120.85938 L -845.35156 118.91406 z M -781.84961 119.69922 C -781.37163 119.69922 -780.55145 120.01564 -779.57227 120.64844 C -778.27957 121.48384 -778.30445 121.61962 -779.76172 121.63281 C -780.69176 121.64124 -781.73234 121.19844 -782.07227 120.64844 C -782.46336 120.01564 -782.32759 119.69922 -781.84961 119.69922 z M -740.93945 120.62305 C -742.68038 121.32586 -744.13776 121.93933 -745.30859 122.46289 L -745.60742 121.50781 C -744.63504 121.27976 -743.07894 120.98499 -740.93945 120.62305 z M -769.99023 120.66797 C -769.42696 120.57594 -768.60095 121.12698 -768.20898 122.14844 C -767.89241 122.97343 -767.73328 123.61172 -767.85352 123.56836 C -769.8713 122.83968 -770.57227 122.32345 -770.57227 121.56445 C -770.57227 121.00967 -770.3282 120.72319 -769.99023 120.66797 z M -852.66016 120.77344 C -852.35813 120.74478 -852.0605 120.82621 -851.82227 121.06445 C -851.48302 121.40369 -851.68664 122.16319 -852.27539 122.75195 C -852.99357 123.47007 -853.55249 123.48769 -853.97461 122.80469 C -854.50725 121.94286 -853.56623 120.8594 -852.66016 120.77344 z M -729.84961 122.12109 C -729.71154 122.11255 -729.57651 122.14519 -729.45117 122.22266 C -728.94983 122.5325 -728.79684 123.2048 -729.11328 123.7168 C -730.05364 125.23834 -731.55724 124.77443 -730.93555 123.1543 C -730.69901 122.53792 -730.26383 122.14672 -729.84961 122.12109 z M -784.31641 123.64844 C -785.53636 123.64844 -785.58473 123.92849 -784.57227 125.14844 C -783.88758 125.97344 -782.65116 126.64844 -781.82617 126.64844 C -780.60622 126.64844 -780.5598 126.36839 -781.57227 125.14844 C -782.25696 124.32344 -783.4914 123.64844 -784.31641 123.64844 z M -771.10547 124.10938 C -771.04518 124.13184 -770.97755 124.22656 -770.9082 124.39844 C -770.63079 125.08594 -770.63079 126.21094 -770.9082 126.89844 C -771.18561 127.58594 -771.41406 127.02344 -771.41406 125.64844 C -771.41406 124.61718 -771.28634 124.04199 -771.10547 124.10938 z M -853.39648 124.67773 C -852.86755 124.58095 -852.5008 124.93601 -852.80078 125.83594 C -853.01848 126.48907 -853.73127 127.20209 -854.38477 127.41992 C -855.11552 127.66351 -855.33858 127.20633 -854.96484 126.23242 C -854.61608 125.32357 -853.92542 124.77452 -853.39648 124.67773 z M -737.11523 125.28125 L -748.18945 127.26953 L -747.67188 130.14844 L -736.59961 128.16211 L -737.11523 125.28125 z M -729.18359 126.03125 C -728.825 126.04713 -728.57227 126.44675 -728.57227 127.08984 C -728.57227 127.9473 -729.02226 128.64844 -729.57227 128.64844 C -730.12226 128.64844 -730.57227 128.22457 -730.57227 127.70703 C -730.57227 127.18949 -730.12226 126.48836 -729.57227 126.14844 C -729.43476 126.06346 -729.30313 126.02596 -729.18359 126.03125 z M -845.11523 128.78125 C -845.74649 128.78126 -846.23378 128.8747 -846.57812 129.06445 C -847.04187 129.31706 -847.36635 129.67575 -847.55078 130.13867 C -847.73481 130.59697 -847.86735 131.28471 -847.94727 132.20312 L -848.19922 135.11133 L -836.99219 136.08594 L -836.69922 132.71484 C -836.59704 131.54259 -836.59636 130.76119 -836.69727 130.37109 C -836.79818 129.981 -837.0233 129.68491 -837.37305 129.48242 C -837.72239 129.27533 -838.27436 129.13812 -839.03125 129.07227 L -840.07031 128.98242 C -840.79951 128.91898 -841.34907 128.9917 -841.7207 129.20117 C -842.09695 129.41024 -842.39063 129.8453 -842.60156 130.50586 C -842.68742 129.88923 -842.85102 129.46775 -843.0918 129.24219 C -843.33218 129.01199 -843.7802 128.86949 -844.43555 128.8125 C -844.67784 128.79142 -844.90482 128.78125 -845.11523 128.78125 z M -853.94922 129.64844 C -852.62043 129.64844 -852.55269 129.91993 -853.57227 131.14844 C -854.25696 131.97343 -854.9857 132.64844 -855.19336 132.64844 C -855.40101 132.64844 -855.57227 131.97343 -855.57227 131.14844 C -855.57227 130.32344 -854.84156 129.64844 -853.94922 129.64844 z M -773.13477 129.83984 C -773.05952 129.8563 -772.99598 129.89074 -772.94336 129.94336 C -772.5224 130.3643 -773.39167 131.9229 -774.875 133.40625 C -777.96947 136.50072 -778.4558 135.35657 -775.61719 131.66211 C -774.6983 130.46618 -773.66151 129.72465 -773.13477 129.83984 z M -728.84961 130.12109 C -728.71154 130.11255 -728.57651 130.14519 -728.45117 130.22266 C -727.94983 130.5325 -727.79684 131.2048 -728.11328 131.7168 C -729.05364 133.23834 -730.55724 132.77443 -729.93555 131.1543 C -729.69901 130.53791 -729.26383 130.14672 -728.84961 130.12109 z M -736.18945 130.76562 L -747.42773 131.29492 L -747.28906 134.2168 L -742.22266 133.97852 C -742.20371 134.38111 -742.26324 134.63312 -742.40234 134.73242 C -742.54122 134.83632 -742.9121 134.90135 -743.51367 134.92969 L -747.24805 135.10547 L -747.12109 137.82031 L -744.15625 137.67969 C -743.24926 137.63701 -742.69854 137.58567 -742.50195 137.52539 C -742.30052 137.46953 -742.08283 137.33725 -741.85156 137.12695 C -741.6203 136.91665 -741.44631 136.51878 -741.33008 135.93359 C -741.23987 136.56936 -741.03954 136.98807 -740.72852 137.19141 C -740.41749 137.39476 -739.82577 137.47672 -738.95117 137.43555 C -737.99329 137.39047 -737.30321 137.20356 -736.88281 136.87305 C -736.45757 136.54695 -736.20445 136.13615 -736.12109 135.64062 C -736.03754 135.14973 -736.0269 134.21493 -736.0918 132.83594 L -736.18945 130.76562 z M -778.18359 131.02539 C -777.825 131.03228 -777.57227 131.41055 -777.57227 132.0293 C -777.57227 132.8543 -778.02226 133.80853 -778.57227 134.14844 C -779.12226 134.48836 -779.57227 134.09063 -779.57227 133.26562 C -779.57227 132.44062 -779.12226 131.48836 -778.57227 131.14844 C -778.43476 131.06346 -778.30313 131.02309 -778.18359 131.02539 z M -845.32812 131.48633 C -845.20442 131.48081 -845.05428 131.48472 -844.87891 131.5 C -844.21432 131.55782 -843.81398 131.6337 -843.67773 131.72461 C -843.54608 131.81511 -843.49266 132.00292 -843.51758 132.28906 C -843.52352 132.35829 -843.52883 132.45507 -843.53516 132.58008 L -846.02734 132.36328 C -845.9966 132.06369 -845.95979 131.86394 -845.91406 131.76562 C -845.8679 131.6627 -845.76978 131.58538 -845.62109 131.5332 C -845.54905 131.50689 -845.45183 131.49185 -845.32812 131.48633 z M -841.24414 131.85547 C -841.09655 131.84274 -840.9021 131.84631 -840.66211 131.86719 L -839.61719 131.95898 C -839.1649 131.99834 -838.88659 132.07966 -838.78125 132.20508 C -838.67552 132.32588 -838.63437 132.5939 -838.65625 133.00586 L -841.79102 132.73242 C -841.73942 132.2998 -841.65919 132.03606 -841.54883 131.94336 C -841.49365 131.89703 -841.39173 131.8682 -841.24414 131.85547 z M -854.57227 133.64844 C -854.02226 133.64844 -853.57227 134.09843 -853.57227 134.64844 C -853.57227 135.19843 -854.02226 135.64844 -854.57227 135.64844 C -855.12226 135.64844 -855.57227 135.19843 -855.57227 134.64844 C -855.57227 134.09843 -855.12226 133.64844 -854.57227 133.64844 z M -737.97461 133.7793 C -737.95871 134.11711 -738.0042 134.3503 -738.10938 134.48047 C -738.21434 134.61527 -738.44447 134.69222 -738.80078 134.70898 L -739.41797 134.73828 C -739.91311 134.76158 -740.20973 134.70797 -740.30859 134.57812 C -740.40258 134.45269 -740.45716 134.22503 -740.47266 133.89648 L -737.97461 133.7793 z M -728.18359 133.98633 C -727.825 133.91705 -727.57227 134.1168 -727.57227 134.5293 C -727.57227 135.0793 -728.02226 135.80852 -728.57227 136.14844 C -729.12226 136.48836 -729.57227 136.31563 -729.57227 135.76562 C -729.57227 135.21563 -729.12226 134.48836 -728.57227 134.14844 C -728.43476 134.06346 -728.30313 134.00942 -728.18359 133.98633 z M -854.45312 137.64844 C -853.90312 137.64844 -853.73234 138.09844 -854.07227 138.64844 C -854.41218 139.19844 -855.13946 139.64844 -855.68945 139.64844 C -856.23946 139.64844 -856.41219 139.19844 -856.07227 138.64844 C -855.73234 138.09844 -855.00312 137.64844 -854.45312 137.64844 z M -793.57422 138.64844 C -791.17691 138.64844 -786.83629 142.25414 -787.95898 143.3125 C -788.44678 143.77233 -789.0463 143.5835 -789.29297 142.89258 C -789.92541 141.12115 -791.57227 142.38938 -791.57227 144.64844 C -791.57227 147.96355 -793.48459 147.84528 -794.89844 144.44336 C -796.50318 140.58208 -796.06029 138.64844 -793.57422 138.64844 z M -728.51172 138.64844 C -727.92926 138.64844 -727.73234 139.09844 -728.07227 139.64844 C -728.41219 140.19844 -728.88832 140.64844 -729.13086 140.64844 C -729.3734 140.64844 -729.57227 140.19844 -729.57227 139.64844 C -729.57227 139.09844 -729.09418 138.64844 -728.51172 138.64844 z M -745.00586 139.14258 C -745.33409 139.14648 -745.6176 139.1765 -745.85547 139.23438 C -746.3312 139.35012 -746.74954 139.66555 -747.10938 140.17773 C -747.46976 140.69452 -747.69612 141.33981 -747.78906 142.11719 C -747.87376 142.82557 -747.82201 143.46156 -747.63281 144.02539 C -747.43902 144.58977 -747.16378 144.9877 -746.80859 145.2168 C -746.45395 145.45049 -745.87976 145.61384 -745.08398 145.70898 C -743.98922 145.83988 -743.17491 145.76718 -742.64258 145.49023 C -742.11025 145.21329 -741.38366 144.47415 -740.46094 143.27344 C -740.14025 142.85455 -739.87983 142.6092 -739.67969 142.53516 C -739.47899 142.45654 -739.19095 142.43985 -738.81836 142.48438 C -738.52857 142.51902 -738.31769 142.58696 -738.18555 142.69141 C -738.05397 142.80045 -737.99866 142.94239 -738.01953 143.11719 C -738.03878 143.27817 -738.10666 143.387 -738.2207 143.44336 C -738.33475 143.49972 -738.58431 143.50516 -738.9707 143.45898 L -739.79883 143.36133 L -740.12109 146.05859 L -739.67969 146.11133 C -738.79192 146.21746 -738.15451 146.20501 -737.76562 146.07422 C -737.37269 145.94857 -737.02243 145.63334 -736.71484 145.12891 C -736.40781 144.62908 -736.20738 144.00242 -736.11719 143.24805 C -736.03469 142.55807 -736.07705 141.95594 -736.24414 141.44141 C -736.40664 140.92743 -736.67378 140.53567 -737.04297 140.26758 C -737.41271 140.00409 -738.02529 139.82105 -738.88086 139.71875 C -739.47424 139.64783 -739.97115 139.66534 -740.37109 139.77148 C -740.77158 139.88223 -741.09365 140.04321 -741.33789 140.25195 C -741.58213 140.46069 -741.98605 140.89752 -742.55078 141.5625 C -743.11091 142.22803 -743.50412 142.63903 -743.72852 142.79883 C -743.95235 142.95403 -744.393 142.99271 -745.05078 142.91406 C -745.34977 142.87831 -745.56874 142.8042 -745.70898 142.68945 C -745.84977 142.5793 -745.90785 142.42757 -745.88477 142.23438 C -745.86167 142.04118 -745.78715 141.91155 -745.6582 141.84766 C -745.52981 141.78839 -745.25648 141.78395 -744.83789 141.83398 L -743.47852 141.99609 L -743.1543 139.29883 L -743.88672 139.21094 C -744.3053 139.16088 -744.67763 139.13867 -745.00586 139.14258 z M -853.45312 141.64844 C -852.90312 141.64844 -852.73234 142.09844 -853.07227 142.64844 C -853.41219 143.19844 -854.13946 143.64844 -854.68945 143.64844 C -855.23946 143.64844 -855.41219 143.19844 -855.07227 142.64844 C -854.73235 142.09844 -854.00312 141.64844 -853.45312 141.64844 z M -729.18359 142.03125 C -728.825 142.04713 -728.57227 142.44675 -728.57227 143.08984 C -728.57227 143.9473 -729.02226 144.64844 -729.57227 144.64844 C -730.12226 144.64844 -730.57227 144.22457 -730.57227 143.70703 C -730.57227 143.18949 -730.12226 142.48835 -729.57227 142.14844 C -729.43476 142.06346 -729.30313 142.02596 -729.18359 142.03125 z M -842.12305 142.91602 C -843.55414 142.91602 -844.19727 143.55718 -844.19727 144.98828 C -844.19727 147.55093 -840.88677 147.26103 -840.38477 144.6543 C -840.15367 143.4543 -840.69194 142.91602 -842.12305 142.91602 z M -773.13086 143.64844 C -772.2734 143.64844 -771.57227 144.09843 -771.57227 144.64844 C -771.57227 145.19843 -771.99418 145.64844 -772.51172 145.64844 C -773.02926 145.64844 -773.73234 145.19843 -774.07227 144.64844 C -774.41219 144.09843 -773.98832 143.64844 -773.13086 143.64844 z M -786.07227 144.67773 C -785.52226 144.67773 -785.74726 145.11527 -786.57227 145.64844 C -787.39727 146.18159 -788.52227 146.61719 -789.07227 146.61719 C -789.62227 146.61719 -789.39727 146.18159 -788.57227 145.64844 C -787.74726 145.11527 -786.62226 144.67773 -786.07227 144.67773 z M -853.39453 145.64453 C -853.27266 145.66932 -853.15792 145.72685 -853.05859 145.82617 C -852.85009 146.03468 -853.04866 146.80292 -853.5 147.5332 C -854.03134 148.39294 -854.54766 148.49609 -854.96289 147.82422 C -855.49708 146.95991 -854.24761 145.47098 -853.39453 145.64453 z M -730.01172 146.64844 C -729.76918 146.64844 -729.57227 147.09843 -729.57227 147.64844 C -729.57227 148.19843 -730.0484 148.64844 -730.63086 148.64844 C -731.21332 148.64844 -731.41219 148.19843 -731.07227 147.64844 C -730.73234 147.09843 -730.25426 146.64844 -730.01172 146.64844 z M -784.96289 146.72266 C -784.82785 146.7208 -784.65914 146.74685 -784.46094 146.80664 C -782.84268 147.29481 -777.82446 157.03356 -777.37695 160.55469 C -777.20607 161.89923 -777.65848 163.16269 -778.40234 163.41602 C -780.01581 163.96549 -791.83725 151.95263 -791.29883 150.31055 C -791.08931 149.67161 -789.4802 149.0071 -787.72461 148.83398 C -785.77779 148.64199 -784.78998 148.10265 -785.19141 147.45312 C -785.47312 146.99732 -785.36801 146.72824 -784.96289 146.72266 z M -834.81055 150.54688 L -845.23047 154.78906 L -844.30664 157.05469 L -839.61523 155.14453 L -843.68945 158.57227 L -842.76562 160.83789 L -832.34766 156.5957 L -833.26953 154.33008 L -838.00586 156.25977 L -833.84375 152.92188 L -834.81055 150.54688 z M -730.45312 150.64844 C -729.90313 150.64844 -729.73234 151.09844 -730.07227 151.64844 C -730.41219 152.19844 -731.13945 152.64844 -731.68945 152.64844 C -732.23945 152.64844 -732.41219 152.19844 -732.07227 151.64844 C -731.73234 151.09844 -731.00313 150.64844 -730.45312 150.64844 z M -853.18359 150.67383 C -853.02328 150.69159 -852.85075 150.72948 -852.66602 150.79297 C -852.06076 151.00099 -851.98339 151.70699 -852.47852 152.50391 C -853.10353 153.50989 -853.50921 153.55745 -854.04688 152.6875 C -854.78893 151.48683 -854.30578 150.54948 -853.18359 150.67383 z M -744.23242 151.17188 C -745.56575 151.17188 -746.23242 151.83855 -746.23242 153.17188 C -746.23242 154.5052 -745.56575 155.17188 -744.23242 155.17188 C -742.89908 155.17188 -742.23242 154.5052 -742.23242 153.17188 C -742.23242 151.83855 -742.89908 151.17188 -744.23242 151.17188 z M -731.45312 154.64844 C -730.90312 154.64844 -730.73234 155.09843 -731.07227 155.64844 C -731.41219 156.19843 -732.13945 156.64844 -732.68945 156.64844 C -733.23945 156.64844 -733.41219 156.19843 -733.07227 155.64844 C -732.73234 155.09843 -732.00312 154.64844 -731.45312 154.64844 z M -852.18359 155.03125 C -851.825 155.04713 -851.57227 155.44674 -851.57227 156.08984 C -851.57227 156.9473 -852.02227 157.64844 -852.57227 157.64844 C -853.12227 157.64844 -853.57227 157.22457 -853.57227 156.70703 C -853.57227 156.18948 -853.12227 155.48836 -852.57227 155.14844 C -852.43477 155.06346 -852.30312 155.02596 -852.18359 155.03125 z M -832.36133 158.60156 C -832.84113 158.56879 -833.29328 158.65601 -833.7168 158.86133 C -834.1467 159.06518 -834.83911 159.46608 -835.79688 160.06641 L -837.42773 161.08984 C -838.40905 161.70493 -839.0823 162.15804 -839.44531 162.45117 C -839.80831 162.74431 -840.07917 163.11976 -840.25781 163.57617 C -840.43646 164.03259 -840.47968 164.51578 -840.38867 165.02734 C -840.30404 165.53744 -840.10305 166.04831 -839.7832 166.55859 C -839.44613 167.09636 -839.06091 167.5111 -838.63086 167.80469 C -838.20081 168.09828 -837.74738 168.26216 -837.26758 168.29492 C -836.79023 168.32377 -836.33615 168.23706 -835.90625 168.0332 C -835.48274 167.82789 -834.79176 167.42454 -833.83398 166.82422 L -832.20312 165.80273 C -831.22181 165.18765 -830.55051 164.73259 -830.1875 164.43945 C -829.8245 164.14632 -829.55364 163.77088 -829.375 163.31445 C -829.19636 162.85803 -829.14779 162.37533 -829.23242 161.86523 C -829.32343 161.35367 -829.52976 160.84232 -829.84961 160.33203 C -830.18668 159.79427 -830.56995 159.37952 -831 159.08594 C -831.43005 158.79234 -831.88399 158.6304 -832.36133 158.60156 z M -850.57227 158.64844 C -850.02227 158.64844 -849.57227 159.07231 -849.57227 159.58984 C -849.57227 160.10738 -850.02227 160.80852 -850.57227 161.14844 C -851.12227 161.48836 -851.57227 161.06449 -851.57227 160.20703 C -851.57227 159.34957 -851.12227 158.64844 -850.57227 158.64844 z M -733.57227 158.64844 C -733.02227 158.64844 -732.57227 159.09844 -732.57227 159.64844 C -732.57227 160.19844 -733.02227 160.64844 -733.57227 160.64844 C -734.12227 160.64844 -734.57227 160.19844 -734.57227 159.64844 C -734.57227 159.09844 -734.12227 158.64844 -733.57227 158.64844 z M -752.74219 158.70117 L -754.82812 161.67773 C -752.62583 163.74168 -751.17239 165.09003 -750.46875 165.72461 C -752.41697 164.67032 -754.19432 163.785 -755.80078 163.06641 L -757.90039 166.05859 L -749.43164 173.58008 L -747.80078 171.25195 C -749.71479 169.44662 -751.73923 167.69741 -753.87305 166.00391 L -750.18945 168.19531 C -748.33462 169.28598 -747.26007 169.90787 -746.9668 170.0625 L -745.2207 167.57031 C -747.57966 165.3909 -749.53066 163.69631 -751.07422 162.48438 L -747.79883 164.40625 L -744.41211 166.41602 L -742.7793 164.08789 L -752.74219 158.70117 z M -831.88477 161.16602 C -831.70608 161.11963 -831.56478 161.18082 -831.45898 161.34961 C -831.35582 161.51447 -831.35312 161.66077 -831.45312 161.78906 C -831.5556 161.91343 -831.88404 162.14918 -832.4375 162.49609 L -836.88867 165.28711 C -837.37933 165.59449 -837.69598 165.74529 -837.83594 165.74023 C -837.98228 165.73355 -838.09459 165.66469 -838.17578 165.53516 C -838.27174 165.38207 -838.27187 165.24302 -838.17578 165.11719 C -838.08609 164.98989 -837.82051 164.78779 -837.37695 164.50977 L -832.99609 161.76367 C -832.43478 161.41188 -832.06345 161.21244 -831.88477 161.16602 z M -849.57227 162.64844 C -849.02227 162.64844 -848.57227 163.32344 -848.57227 164.14844 C -848.57227 164.97343 -849.02227 165.64844 -849.57227 165.64844 C -850.12227 165.64844 -850.57227 164.97343 -850.57227 164.14844 C -850.57227 163.32344 -850.12227 162.64844 -849.57227 162.64844 z M -735.01172 162.64844 C -734.15423 162.64844 -733.73234 163.09844 -734.07227 163.64844 C -734.41219 164.19844 -735.11332 164.64844 -735.63086 164.64844 C -736.1484 164.64844 -736.57227 164.19844 -736.57227 163.64844 C -736.57227 163.09844 -735.86918 162.64844 -735.01172 162.64844 z M -773.01172 163.64844 C -772.76918 163.64844 -772.57227 164.09844 -772.57227 164.64844 C -772.57227 165.19844 -773.0484 165.64844 -773.63086 165.64844 C -774.21332 165.64844 -774.41219 165.19844 -774.07227 164.64844 C -773.73234 164.09844 -773.25426 163.64844 -773.01172 163.64844 z M -827.51367 164.12891 L -836.17773 171.30664 L -834.31055 173.55859 L -825.64844 166.38086 L -827.51367 164.12891 z M -736.01172 165.64844 C -735.76918 165.64844 -735.57227 166.09843 -735.57227 166.64844 C -735.57227 167.19843 -736.0484 167.64844 -736.63086 167.64844 C -737.21332 167.64844 -737.41219 167.19843 -737.07227 166.64844 C -736.73235 166.09843 -736.25426 165.64844 -736.01172 165.64844 z M -847.57227 166.64844 C -847.02226 166.64844 -846.57227 167.32344 -846.57227 168.14844 C -846.57227 168.97344 -847.02226 169.64844 -847.57227 169.64844 C -848.12226 169.64844 -848.57227 168.97344 -848.57227 168.14844 C -848.57227 167.32344 -848.12226 166.64844 -847.57227 166.64844 z M -759.29492 167.36914 L -762.95312 170.88281 L -761.39453 172.50586 L -759.8457 171.01953 L -758.13086 172.80273 L -759.44922 174.06836 L -757.9668 175.61328 L -756.64844 174.34766 L -755.17188 175.88672 L -756.58008 177.23828 L -755.02148 178.86328 L -751.50195 175.48438 L -759.29492 167.36914 z M -824.98633 168.03906 C -825.22745 168.03241 -825.44713 168.06713 -825.64453 168.14258 C -826.04272 168.29031 -826.5151 168.6568 -827.0625 169.24219 C -827.81555 170.04751 -828.23658 170.74681 -828.32812 171.33984 C -828.41967 171.93288 -828.25445 172.95596 -827.83203 174.41016 C -827.68392 174.91649 -827.64052 175.27138 -827.69922 175.47656 C -827.75451 175.6849 -827.90972 175.92709 -828.16602 176.20117 C -828.36535 176.41434 -828.5466 176.54311 -828.70898 176.58789 C -828.87475 176.62951 -829.02181 176.59094 -829.15039 176.4707 C -829.26881 176.35996 -829.31693 176.24052 -829.29492 176.11523 C -829.2729 175.98995 -829.12907 175.78618 -828.86328 175.50195 L -828.29297 174.89258 L -830.27734 173.03711 L -830.58203 173.36133 C -831.19271 174.01438 -831.55905 174.5368 -831.68359 174.92773 C -831.81469 175.31889 -831.76778 175.78761 -831.54297 176.33398 C -831.32153 176.87719 -830.93384 177.40882 -830.37891 177.92773 C -829.87135 178.40235 -829.36137 178.72299 -828.84766 178.89258 C -828.3371 179.06554 -827.86422 179.08248 -827.42969 178.94336 C -826.99854 178.80107 -826.48891 178.41648 -825.90039 177.78711 C -825.49222 177.35061 -825.21345 176.93995 -825.0625 176.55469 C -824.91494 176.16626 -824.85311 175.81064 -824.87695 175.49023 C -824.90081 175.16983 -825.01267 174.585 -825.21484 173.73633 C -825.42011 172.89104 -825.52137 172.33208 -825.51758 172.05664 C -825.51032 171.78435 -825.28059 171.40574 -824.82812 170.92188 C -824.62246 170.70194 -824.43134 170.56866 -824.25586 170.52344 C -824.08377 170.47506 -823.92727 170.5175 -823.78516 170.65039 C -823.64305 170.78329 -823.58464 170.92074 -823.60938 171.0625 C -823.6375 171.2011 -823.7941 171.4245 -824.08203 171.73242 L -825.01758 172.73242 L -823.0332 174.58789 L -822.5293 174.05078 C -821.95343 173.43495 -821.57282 172.90128 -821.38477 172.44922 C -821.19668 171.99716 -821.20218 171.47394 -821.40234 170.88086 C -821.60588 170.28461 -821.99456 169.71833 -822.56641 169.18359 C -823.0875 168.69632 -823.63072 168.36257 -824.19727 168.18164 C -824.48211 168.09287 -824.7452 168.04572 -824.98633 168.03906 z M -738.57227 169.64844 C -738.02226 169.64844 -737.57227 170.09843 -737.57227 170.64844 C -737.57227 171.19843 -738.02226 171.64844 -738.57227 171.64844 C -739.12226 171.64844 -739.57227 171.19843 -739.57227 170.64844 C -739.57227 170.09843 -739.12226 169.64844 -738.57227 169.64844 z M -844.89062 170.06836 C -844.67879 170.10884 -844.48648 170.42516 -844.25391 171.03125 C -843.92639 171.88475 -844.05889 172.83122 -844.54688 173.13281 C -845.82254 173.92122 -846.58197 172.28242 -845.64453 170.76562 C -845.33409 170.26332 -845.10246 170.02787 -844.89062 170.06836 z M -763.58398 171.4668 L -766.60352 173.58594 C -767.17609 173.9878 -767.58436 174.31981 -767.82617 174.58008 C -768.06532 174.84414 -768.22627 175.12091 -768.31055 175.41211 C -768.39218 175.7071 -768.3743 176.01958 -768.25586 176.34961 C -768.13855 176.6861 -767.78916 177.26712 -767.20898 178.09375 L -764.94531 181.32031 C -764.33321 182.19245 -763.89739 182.75712 -763.63672 183.01562 C -763.37339 183.27793 -763.05063 183.45518 -762.66797 183.54883 C -762.2853 183.64247 -761.85123 183.59922 -761.36719 183.41797 C -760.88694 183.23938 -760.06863 182.74335 -758.91211 181.93164 L -757.12109 180.67578 L -763.58398 171.4668 z M -819.42578 172.20117 L -826.00586 181.32617 L -823.63281 183.03711 L -817.05273 173.91211 L -819.42578 172.20117 z M -740.51172 172.64844 C -739.99418 172.64844 -739.57227 173.09844 -739.57227 173.64844 C -739.57227 174.19844 -740.2734 174.64844 -741.13086 174.64844 C -741.98835 174.64844 -742.41219 174.19844 -742.07227 173.64844 C -741.73234 173.09844 -741.02926 172.64844 -740.51172 172.64844 z M -842.57227 174.64844 C -842.02227 174.64844 -841.57227 175.32344 -841.57227 176.14844 C -841.57227 176.97343 -842.02227 177.64844 -842.57227 177.64844 C -843.12227 177.64844 -843.57227 176.97343 -843.57227 176.14844 C -843.57227 175.32344 -843.12227 174.64844 -842.57227 174.64844 z M -764.87305 174.72266 L -760.62109 180.7793 C -760.88273 180.96293 -761.08208 181.06066 -761.2168 181.07031 C -761.34885 181.08376 -761.46907 181.04033 -761.57812 180.94141 C -761.68717 180.84249 -761.88694 180.58508 -762.17969 180.16797 L -764.69141 176.58984 C -765.12253 175.97555 -765.34834 175.57118 -765.36719 175.375 C -765.38336 175.1826 -765.2181 174.96484 -764.87305 174.72266 z M -815.39648 175.01758 L -822.05859 184.20312 L -819.3457 185.67188 L -818.17188 183.92969 C -817.22474 182.53017 -816.1701 180.91383 -815.00586 179.08398 C -815.89018 181.039 -816.9127 183.46595 -818.07422 186.36133 L -815.36133 187.82812 L -811.49023 177.13086 L -815.39648 175.01758 z M -770.0918 175.9082 L -773.43555 177.4668 C -774.06955 177.76239 -774.52892 178.01842 -774.8125 178.23242 C -775.09412 178.45062 -775.30168 178.69481 -775.43555 178.9668 C -775.56747 179.24298 -775.60387 179.55474 -775.54492 179.90039 C -775.48823 180.2522 -775.24512 180.88547 -774.81836 181.80078 L -773.1543 185.37109 C -772.70405 186.33679 -772.37358 186.96944 -772.16211 187.26953 C -771.94868 187.57382 -771.6612 187.80575 -771.30078 187.96484 C -770.94037 188.12393 -770.50632 188.15636 -769.99805 188.0625 C -769.49398 187.9706 -768.60091 187.62637 -767.32031 187.0293 L -765.33789 186.10547 L -770.0918 175.9082 z M -743.07227 176.64844 C -742.24726 176.64844 -741.57227 176.82486 -741.57227 177.04102 C -741.57227 177.25717 -742.24726 177.69317 -743.07227 178.00977 C -743.89727 178.32635 -744.57227 178.14992 -744.57227 177.61719 C -744.57227 177.08445 -743.89727 176.64844 -743.07227 176.64844 z M -809.48828 178.00781 L -813.52344 188.50977 L -810.79297 189.55859 L -806.75781 179.05664 L -809.48828 178.00781 z M -839.95898 178.03125 C -839.83945 178.02596 -839.70977 178.06346 -839.57227 178.14844 C -839.02227 178.48836 -838.57227 179.18949 -838.57227 179.70703 C -838.57227 180.22458 -839.02227 180.64844 -839.57227 180.64844 C -840.12227 180.64844 -840.57227 179.94731 -840.57227 179.08984 C -840.57227 178.44673 -840.31758 178.04713 -839.95898 178.03125 z M -771.92969 178.88867 L -768.80273 185.5957 C -769.09245 185.73078 -769.30317 185.79139 -769.4375 185.77734 C -769.56988 185.7675 -769.68141 185.70435 -769.77148 185.58789 C -769.86156 185.47143 -770.01513 185.18256 -770.23047 184.7207 L -772.07617 180.75977 C -772.39332 180.07958 -772.54505 179.64178 -772.5293 179.44531 C -772.5116 179.25305 -772.31177 179.06682 -771.92969 178.88867 z M -777.30273 179.04492 L -780.0957 179.91406 L -776.74805 190.65625 L -773.95508 189.78516 L -777.30273 179.04492 z M -746.07227 179.64844 C -745.24726 179.64844 -744.57227 179.82487 -744.57227 180.04102 C -744.57227 180.25718 -745.24726 180.69318 -746.07227 181.00977 C -746.89726 181.32635 -747.57227 181.14992 -747.57227 180.61719 C -747.57227 180.08445 -746.89726 179.64844 -746.07227 179.64844 z M -804.29883 179.96484 C -804.65507 179.96141 -804.97046 180.02392 -805.24414 180.1543 C -805.51888 180.28918 -805.74011 180.51063 -805.9082 180.81836 C -806.08187 181.12953 -806.28484 181.77704 -806.51758 182.75977 L -807.42578 186.59375 C -807.67131 187.63057 -807.80404 188.3307 -807.82422 188.69727 C -807.84545 189.06834 -807.7642 189.42905 -807.58008 189.77734 C -807.39596 190.12564 -807.0761 190.42059 -806.61914 190.66211 C -806.16668 190.90256 -805.25187 191.18611 -803.87695 191.51172 L -801.74805 192.01562 L -799.1543 181.06836 L -802.74609 180.2168 C -803.42679 180.05559 -803.94365 179.97279 -804.29883 179.96484 z M -781.20117 180.30273 L -783.61328 180.7168 L -782.74805 185.75781 L -785.11328 180.97266 L -787.64062 181.40625 L -785.73828 192.49609 L -783.32812 192.08203 L -784.18359 187.08789 L -781.71094 191.80469 L -779.30078 191.39062 L -781.20117 180.30273 z M -791.58984 181.26562 C -792.00214 181.26466 -792.36059 181.34883 -792.66211 181.51953 C -792.96827 181.69486 -793.21991 181.95771 -793.41992 182.30469 L -793.68945 181.49805 L -795.53125 181.49219 L -795.54492 187.53125 L -792.11914 187.53906 L -792.11523 185.83008 L -792.70703 185.82812 L -792.70312 184.49414 C -792.7019 183.97066 -792.66121 183.61994 -792.58203 183.43945 C -792.50749 183.25895 -792.36349 183.16747 -792.15039 183.16797 C -791.95583 183.16842 -791.82621 183.24859 -791.76172 183.40625 C -791.69715 183.56854 -791.6667 183.9013 -791.66797 184.40625 L -791.67969 189.80664 C -791.68103 190.38108 -791.71412 190.73617 -791.7793 190.875 C -791.84448 191.01383 -791.96777 191.08441 -792.14844 191.08398 C -792.35691 191.0835 -792.4897 191.00211 -792.54492 190.83984 C -792.59989 190.67757 -792.62627 190.27479 -792.625 189.63086 L -792.62109 188.60938 L -795.54688 188.60156 L -795.54883 189.08789 C -795.55098 190.00978 -795.46716 190.71117 -795.29688 191.19336 C -795.1266 191.68018 -794.75967 192.10168 -794.19531 192.45508 C -793.63095 192.80845 -792.91953 192.98626 -792.0625 192.98828 C -791.19157 192.99031 -790.47996 192.78724 -789.92773 192.38086 C -789.38014 191.9791 -789.04858 191.53498 -788.93164 191.04883 C -788.81472 190.56268 -788.75448 189.78179 -788.75195 188.70703 L -788.74414 185.36523 C -788.74231 184.59159 -788.76951 184.01036 -788.82422 183.62109 C -788.87891 183.23646 -789.01674 182.86822 -789.23828 182.51562 C -789.45983 182.16303 -789.78335 181.86493 -790.20898 181.62305 C -790.63927 181.38577 -791.09879 181.26676 -791.58984 181.26562 z M -837.16992 181.83789 C -836.99829 181.87849 -836.76524 182.05508 -836.45898 182.36133 C -835.8471 182.9732 -835.51964 183.99055 -835.73047 184.62305 C -836.22744 186.11394 -837.57227 184.76911 -837.57227 182.78125 C -837.57227 182.07776 -837.45597 181.77022 -837.16992 181.83789 z M -802.95703 182.20898 C -802.8212 182.19831 -802.65042 182.219 -802.44531 182.26758 L -804.15039 189.46875 C -804.46144 189.39509 -804.66503 189.3111 -804.76172 189.2168 C -804.85919 189.127 -804.90752 189.00855 -804.90625 188.86133 C -804.90471 188.71411 -804.84595 188.39236 -804.72852 187.89648 L -803.7207 183.64258 C -803.54775 182.91229 -803.39393 182.47445 -803.25977 182.33008 C -803.19321 182.26015 -803.09286 182.21966 -802.95703 182.20898 z M -748.6543 182.77148 C -748.3069 182.78579 -748.00794 182.87682 -747.8418 183.04297 C -747.5095 183.37526 -748.10014 183.61176 -749.1543 183.56836 C -750.31925 183.52038 -750.5575 183.28406 -749.75977 182.96484 C -749.39883 182.82039 -749.00169 182.75718 -748.6543 182.77148 z M -751.51172 184.64844 C -750.99418 184.64844 -750.57227 185.09844 -750.57227 185.64844 C -750.57227 186.19844 -751.2734 186.64844 -752.13086 186.64844 C -752.98835 186.64844 -753.41219 186.19844 -753.07227 185.64844 C -752.73234 185.09844 -752.02926 184.64844 -751.51172 184.64844 z M -833.95898 185.03125 C -833.83945 185.02596 -833.70976 185.06346 -833.57227 185.14844 C -833.02226 185.48836 -832.57227 186.18949 -832.57227 186.70703 C -832.57227 187.22457 -833.02226 187.64844 -833.57227 187.64844 C -834.12226 187.64844 -834.57227 186.9473 -834.57227 186.08984 C -834.57227 185.44673 -834.31758 185.04713 -833.95898 185.03125 z M -830.57227 186.64844 C -830.02227 186.64844 -829.57227 187.32344 -829.57227 188.14844 C -829.57227 188.97344 -830.02227 189.64844 -830.57227 189.64844 C -831.12227 189.64844 -831.57227 188.97344 -831.57227 188.14844 C -831.57227 187.32344 -831.12227 186.64844 -830.57227 186.64844 z M -755.01172 187.64844 C -754.15423 187.64844 -753.73234 188.09844 -754.07227 188.64844 C -754.41219 189.19844 -755.11332 189.64844 -755.63086 189.64844 C -756.1484 189.64844 -756.57227 189.19844 -756.57227 188.64844 C -756.57227 188.09844 -755.86918 187.64844 -755.01172 187.64844 z M -758.63086 189.64844 C -758.11332 189.64844 -757.41218 190.09844 -757.07227 190.64844 C -756.73234 191.19844 -757.15426 191.64844 -758.01172 191.64844 C -758.86918 191.64844 -759.57227 191.19844 -759.57227 190.64844 C -759.57227 190.09844 -759.1484 189.64844 -758.63086 189.64844 z M -826.94922 190.03711 C -826.82774 190.03302 -826.69443 190.07184 -826.55469 190.1582 C -825.99572 190.50366 -825.79685 191.2048 -826.11328 191.7168 C -826.97052 193.10384 -827.57227 192.84637 -827.57227 191.08984 C -827.57227 190.44672 -827.31366 190.04937 -826.94922 190.03711 z M -823.67383 191.5918 C -823.46528 191.57018 -823.22093 191.66384 -822.9668 191.91797 C -822.6345 192.25026 -822.5516 193.09037 -822.7832 193.78516 C -823.12192 194.80138 -823.35826 194.80067 -823.98828 193.78125 C -824.61381 192.76913 -824.29947 191.65664 -823.67383 191.5918 z M -761.74805 192.24023 C -760.7408 192.25288 -759.57227 192.66297 -759.57227 193.25586 C -759.57227 193.47201 -760.4984 193.64844 -761.63086 193.64844 C -762.76333 193.64844 -763.42274 193.21739 -763.09766 192.69141 C -762.89755 192.36763 -762.35239 192.23264 -761.74805 192.24023 z M -765.63086 193.64844 C -765.11332 193.64844 -764.41219 194.09844 -764.07227 194.64844 C -763.73234 195.19844 -764.15426 195.64844 -765.01172 195.64844 C -765.86918 195.64844 -766.57227 195.19844 -766.57227 194.64844 C -766.57227 194.09844 -766.1484 193.64844 -765.63086 193.64844 z M -819.95898 194.03125 C -819.83945 194.02596 -819.70977 194.06346 -819.57227 194.14844 C -819.02227 194.48836 -818.57227 195.18949 -818.57227 195.70703 C -818.57227 196.22457 -819.02227 196.64844 -819.57227 196.64844 C -820.12227 196.64844 -820.57227 195.9473 -820.57227 195.08984 C -820.57227 194.44673 -820.31758 194.04713 -819.95898 194.03125 z M -769.13086 195.64844 C -768.2734 195.64844 -767.57227 196.09844 -767.57227 196.64844 C -767.57227 197.19844 -767.99418 197.64844 -768.51172 197.64844 C -769.02926 197.64844 -769.73234 197.19844 -770.07227 196.64844 C -770.41219 196.09844 -769.98832 195.64844 -769.13086 195.64844 z M -816.24805 195.85156 C -816.04191 195.87769 -815.74745 196.07286 -815.38867 196.43164 C -814.73785 197.08248 -814.43653 197.8467 -814.7207 198.13086 C -815.38809 198.79825 -816.57227 197.61603 -816.57227 196.28125 C -816.57227 195.96795 -816.45418 195.82543 -816.24805 195.85156 z M -773.13086 196.64844 C -772.2734 196.64844 -771.57227 197.09844 -771.57227 197.64844 C -771.57227 198.19844 -771.99418 198.64844 -772.51172 198.64844 C -773.02926 198.64844 -773.73234 198.19844 -774.07227 197.64844 C -774.41219 197.09844 -773.98832 196.64844 -773.13086 196.64844 z M -813.21484 196.90625 C -813.08493 196.85132 -812.73042 197.10052 -812.09375 197.62891 C -811.25616 198.32405 -810.57227 199.06188 -810.57227 199.26953 C -810.57227 200.38987 -812.44844 199.40759 -812.98633 198.00586 C -813.24967 197.31962 -813.34476 196.96118 -813.21484 196.90625 z M -808.98438 197.65234 C -808.4173 197.59146 -807.58936 198.1572 -807.20898 199.14844 C -806.8924 199.97344 -806.99447 200.64844 -807.43555 200.64844 C -808.47773 200.64844 -809.57227 199.53799 -809.57227 198.48047 C -809.57227 197.95016 -809.32462 197.68887 -808.98438 197.65234 z M -777.02344 198.12891 C -776.32184 198.1261 -775.57227 198.54736 -775.57227 199.20703 C -775.57227 199.44957 -776.2734 199.64844 -777.13086 199.64844 C -777.98833 199.64844 -778.40601 199.18983 -778.06055 198.63086 C -777.84649 198.28452 -777.4444 198.13059 -777.02344 198.12891 z M -805.24805 198.85156 C -805.04191 198.87769 -804.74745 199.07286 -804.38867 199.43164 C -803.73776 200.08248 -803.43653 200.8467 -803.7207 201.13086 C -804.38809 201.79825 -805.57227 200.61603 -805.57227 199.28125 C -805.57227 198.96795 -805.45418 198.82543 -805.24805 198.85156 z M -780.95898 198.99219 C -780.83945 199.01228 -780.70976 199.06346 -780.57227 199.14844 C -780.02226 199.48836 -779.57227 199.96449 -779.57227 200.20703 C -779.57227 200.44957 -780.02226 200.64844 -780.57227 200.64844 C -781.12226 200.64844 -781.57227 200.1723 -781.57227 199.58984 C -781.57227 199.153 -781.31758 198.9319 -780.95898 198.99219 z M -801.13086 199.64844 C -800.2734 199.64844 -799.57227 200.09844 -799.57227 200.64844 C -799.57227 201.19844 -799.99418 201.64844 -800.51172 201.64844 C -801.02926 201.64844 -801.73234 201.19844 -802.07227 200.64844 C -802.41219 200.09844 -801.98832 199.64844 -801.13086 199.64844 z M -789.68945 199.64844 C -789.13946 199.64844 -788.41218 200.09844 -788.07227 200.64844 C -787.73234 201.19844 -787.90312 201.64844 -788.45312 201.64844 C -789.00312 201.64844 -789.73235 201.19844 -790.07227 200.64844 C -790.41219 200.09844 -790.23946 199.64844 -789.68945 199.64844 z M -785.13086 199.64844 C -784.2734 199.64844 -783.57227 200.09844 -783.57227 200.64844 C -783.57227 201.19844 -783.99417 201.64844 -784.51172 201.64844 C -785.02926 201.64844 -785.73234 201.19844 -786.07227 200.64844 C -786.41219 200.09844 -785.98832 199.64844 -785.13086 199.64844 z M -797.24805 199.85156 C -797.04191 199.87769 -796.74745 200.07286 -796.38867 200.43164 C -795.73785 201.08248 -795.43653 201.8467 -795.7207 202.13086 C -796.38809 202.79825 -797.57227 201.61603 -797.57227 200.28125 C -797.57227 199.96795 -797.45418 199.82543 -797.24805 199.85156 z M -793.24805 199.85156 C -793.04191 199.87769 -792.74745 200.07286 -792.38867 200.43164 C -791.73784 201.08248 -791.43653 201.8467 -791.7207 202.13086 C -792.00488 202.41503 -792.53764 202.34714 -792.9043 201.98047 C -793.27096 201.61381 -793.57227 200.84959 -793.57227 200.28125 C -793.57227 199.96795 -793.45418 199.82543 -793.24805 199.85156 z "
         transform="matrix(-1.0540091,0,0,-1.0540091,-1438.6441,289.55734)"
         id="path5270" />
    </g>
  </g>
</svg>
