  0
SECTION
  2
HEADER
  9
$ACADVER
  1
AC1014
  9
$HANDSEED
  5
FFFF
  9
$MEASUREMENT
 70
     1
  0
ENDSEC
  0
SECTION
  2
TABLES
  0
TABLE
  2
VPORT
  5
8
330
0
100
AcDbSymbolTable
 70
     4
  0
VPORT
  5
2E
330
8
100
AcDbSymbolTableRecord
100
AcDbViewportTableRecord
  2
*ACTIVE
 70
     0
 10
0.0
 20
0.0
 11
1.0
 21
1.0
 12
210.0
 22
148.5
 13
0.0
 23
0.0
 14
10.0
 24
10.0
 15
10.0
 25
10.0
 16
0.0
 26
0.0
 36
1.0
 17
0.0
 27
0.0
 37
0.0
 40
341.0
 41
1.24
 42
50.0
 43
0.0
 44
0.0
 50
0.0
 51
0.0
 71
     0
 72
   100
 73
     1
 74
     3
 75
     0
 76
     0
 77
     0
 78
     0
  0
ENDTAB
  0
TABLE
  2
LTYPE
  5
5
330
0
100
AcDbSymbolTable
 70
     1
  0
LTYPE
  5
14
330
5
100
AcDbSymbolTableRecord
100
AcDbLinetypeTableRecord
  2
BYBLOCK
 70
     0
  3

 72
    65
 73
     0
 40
0.0
  0
LTYPE
  5
15
330
5
100
AcDbSymbolTableRecord
100
AcDbLinetypeTableRecord
  2
BYLAYER
 70
     0
  3

 72
    65
 73
     0
 40
0.0
  0
LTYPE
  5
16
330
5
100
AcDbSymbolTableRecord
100
AcDbLinetypeTableRecord
  2
CONTINUOUS
 70
     0
  3
Solid line
 72
    65
 73
     0
 40
0.0
  0
ENDTAB
  0
TABLE
  2
LAYER
  5
2
100
AcDbSymbolTable
 70
2
  0
LAYER
  5
50
100
AcDbSymbolTableRecord
100
AcDbLayerTableRecord
  2
0
 70
0
  6
CONTINUOUS
  0
LAYER
  5
51
100
AcDbSymbolTableRecord
100
AcDbLayerTableRecord
  2
Layer_1
 70
0
  6
CONTINUOUS
  0
ENDTAB
  0
TABLE
  2
STYLE
  5
3
330
0
100
AcDbSymbolTable
 70
     1
  0
STYLE
  5
11
330
3
100
AcDbSymbolTableRecord
100
AcDbTextStyleTableRecord
  2
STANDARD
 70
     0
 40
0.0
 41
1.0
 50
0.0
 71
     0
 42
2.5
  3
txt
  4

  0
ENDTAB
  0
TABLE
  2
VIEW
  5
6
330
0
100
AcDbSymbolTable
 70
     0
  0
ENDTAB
  0
TABLE
  2
UCS
  5
7
330
0
100
AcDbSymbolTable
 70
     0
  0
ENDTAB
  0
TABLE
  2
APPID
  5
9
330
0
100
AcDbSymbolTable
 70
     2
  0
APPID
  5
12
330
9
100
AcDbSymbolTableRecord
100
AcDbRegAppTableRecord
  2
ACAD
 70
     0
  0
ENDTAB
  0
TABLE
  2
DIMSTYLE
  5
A
330
0
100
AcDbSymbolTable
 70
     1
  0
DIMSTYLE
105
27
330
A
100
AcDbSymbolTableRecord
100
AcDbDimStyleTableRecord
  2
ISO-25
 70
     0
  3

  4

  5

  6

  7

 40
1.0
 41
2.5
 42
0.625
 43
3.75
 44
1.25
 45
0.0
 46
0.0
 47
0.0
 48
0.0
140
2.5
141
2.5
142
0.0
143
0.03937007874016
144
1.0
145
0.0
146
1.0
147
0.625
 71
     0
 72
     0
 73
     0
 74
     0
 75
     0
 76
     0
 77
     1
 78
     8
170
     0
171
     3
172
     1
173
     0
174
     0
175
     0
176
     0
177
     0
178
     0
270
     2
271
     2
272
     2
273
     2
274
     3
340
11
275
     0
280
     0
281
     0
282
     0
283
     0
284
     8
285
     0
286
     0
287
     3
288
     0
  0
ENDTAB
  0
TABLE
  2
BLOCK_RECORD
  5
1
330
0
100
AcDbSymbolTable
 70
     1
  0
BLOCK_RECORD
  5
1F
330
1
100
AcDbSymbolTableRecord
100
AcDbBlockTableRecord
  2
*MODEL_SPACE
  0
BLOCK_RECORD
  5
1B
330
1
100
AcDbSymbolTableRecord
100
AcDbBlockTableRecord
  2
*PAPER_SPACE
  0
ENDTAB
  0
ENDSEC
  0
SECTION
  2
BLOCKS
  0
BLOCK
  5
20
330
1F
100
AcDbEntity
  8
0
100
AcDbBlockBegin
  2
*MODEL_SPACE
 70
     0
 10
0.0
 20
0.0
 30
0.0
  3
*MODEL_SPACE
  1

  0
ENDBLK
  5
21
330
1F
100
AcDbEntity
  8
0
100
AcDbBlockEnd
  0
BLOCK
  5
1C
330
1B
100
AcDbEntity
 67
     1
  8
0
100
AcDbBlockBegin
  2
*PAPER_SPACE
  1

  0
ENDBLK
  5
1D
330
1B
100
AcDbEntity
 67
     1
  8
0
100
AcDbBlockEnd
  0
ENDSEC
  0
SECTION
  2
ENTITIES
  0
LWPOLYLINE
  5
100
100
AcDbEntity
  8
Layer_1
 62
7
100
AcDbPolyline
 90
21
 70
0
 10
3.354644
 20
277.781026
 30
0.0
 10
46.534200
 20
277.783026
 30
0.0
 10
46.535000
 20
272.783018
 30
0.0
 10
82.382755
 20
272.784018
 30
0.0
 10
82.382655
 20
274.900021
 30
0.0
 10
104.123688
 20
274.901021
 30
0.0
 10
104.123688
 20
272.785018
 30
0.0
 10
142.034746
 20
272.785018
 30
0.0
 10
142.034746
 20
277.783026
 30
0.0
 10
184.284811
 20
277.783026
 30
0.0
 10
184.288811
 20
194.288898
 30
0.0
 10
118.977711
 20
194.288898
 30
0.0
 10
118.978711
 20
180.396877
 30
0.0
 10
108.434695
 20
180.395877
 30
0.0
 10
108.435695
 20
169.887861
 30
0.0
 10
77.133047
 20
169.886861
 30
0.0
 10
77.132547
 20
180.394877
 30
0.0
 10
67.206832
 20
180.393877
 30
0.0
 10
67.206832
 20
194.283898
 30
0.0
 10
3.358534
 20
194.280898
 30
0.0
 10
3.354644
 20
277.781026
 30
0.0
  0
LWPOLYLINE
  5
101
100
AcDbEntity
  8
Layer_1
 62
7
100
AcDbPolyline
 90
21
 70
0
 10
3.359854
 20
165.772855
 30
0.0
 10
48.539303
 20
165.774855
 30
0.0
 10
48.540103
 20
160.774847
 30
0.0
 10
82.387955
 20
160.776847
 30
0.0
 10
82.387855
 20
162.891850
 30
0.0
 10
106.128691
 20
162.892850
 30
0.0
 10
106.128691
 20
160.777847
 30
0.0
 10
142.040746
 20
160.777847
 30
0.0
 10
142.039746
 20
165.774855
 30
0.0
 10
186.289814
 20
165.774855
 30
0.0
 10
186.293814
 20
80.280724
 30
0.0
 10
120.983714
 20
80.280724
 30
0.0
 10
120.983714
 20
66.388703
 30
0.0
 10
110.439698
 20
66.388703
 30
0.0
 10
110.440698
 20
55.880687
 30
0.0
 10
77.138347
 20
55.878687
 30
0.0
 10
77.137847
 20
66.386703
 30
0.0
 10
67.212132
 20
66.386703
 30
0.0
 10
67.212132
 20
80.275724
 30
0.0
 10
3.363834
 20
80.272724
 30
0.0
 10
3.359854
 20
165.772855
 30
0.0
  0
LWPOLYLINE
  5
102
100
AcDbEntity
  8
Layer_1
 62
7
100
AcDbPolyline
 90
5
 70
0
 10
-1.650973
 20
398.362210
 30
0.0
 10
598.349443
 20
398.362210
 30
0.0
 10
598.349443
 20
-1.638401
 30
0.0
 10
-1.650973
 20
-1.638401
 30
0.0
 10
-1.650973
 20
398.362210
 30
0.0
  0
LWPOLYLINE
  5
103
100
AcDbEntity
  8
Layer_1
 62
7
100
AcDbPolyline
 90
13
 70
0
 10
189.275819
 20
161.395848
 30
0.0
 10
189.278819
 20
90.770740
 30
0.0
 10
260.626928
 20
90.773740
 30
0.0
 10
260.627928
 20
76.950719
 30
0.0
 10
270.552943
 20
76.950719
 30
0.0
 10
270.553943
 20
66.442703
 30
0.0
 10
288.855971
 20
66.443703
 30
0.0
 10
288.854971
 20
76.951719
 30
0.0
 10
299.398987
 20
76.951719
 30
0.0
 10
299.398987
 20
90.775740
 30
0.0
 10
372.209098
 20
90.778740
 30
0.0
 10
372.206098
 20
161.403848
 30
0.0
 10
189.275819
 20
161.395848
 30
0.0
  0
LWPOLYLINE
  5
104
100
AcDbEntity
  8
Layer_1
 62
7
100
AcDbPolyline
 90
13
 70
0
 10
189.286819
 20
247.204979
 30
0.0
 10
189.288819
 20
191.448894
 30
0.0
 10
268.136939
 20
191.451894
 30
0.0
 10
268.137939
 20
177.694873
 30
0.0
 10
278.062954
 20
177.694873
 30
0.0
 10
278.063954
 20
167.186857
 30
0.0
 10
281.365959
 20
167.186857
 30
0.0
 10
281.364959
 20
177.694873
 30
0.0
 10
291.908975
 20
177.695873
 30
0.0
 10
291.908975
 20
191.452894
 30
0.0
 10
372.219098
 20
191.456894
 30
0.0
 10
372.217098
 20
247.213979
 30
0.0
 10
189.286819
 20
247.204979
 30
0.0
  0
LWPOLYLINE
  5
105
100
AcDbEntity
  8
Layer_1
 62
7
100
AcDbPolyline
 90
9
 70
0
 10
189.283819
 20
308.752973
 30
0.0
 10
189.285819
 20
267.865011
 30
0.0
 10
275.633950
 20
267.869011
 30
0.0
 10
275.633950
 20
254.176990
 30
0.0
 10
284.405964
 20
254.176990
 30
0.0
 10
284.404964
 20
267.869011
 30
0.0
 10
372.216098
 20
267.873011
 30
0.0
 10
372.214098
 20
308.761473
 30
0.0
 10
189.283819
 20
308.752973
 30
0.0
  0
LWPOLYLINE
  5
106
100
AcDbEntity
  8
Layer_1
 62
7
100
AcDbPolyline
 90
5
 70
0
 10
189.281819
 20
342.580525
 30
0.0
 10
189.282819
 20
316.560685
 30
0.0
 10
372.213098
 20
316.569185
 30
0.0
 10
372.212098
 20
342.589025
 30
0.0
 10
189.281819
 20
342.580525
 30
0.0
  0
LWPOLYLINE
  5
107
100
AcDbEntity
  8
Layer_1
 62
7
100
AcDbPolyline
 90
5
 70
0
 10
189.280819
 20
359.798051
 30
0.0
 10
189.281819
 20
348.646734
 30
0.0
 10
372.212098
 20
348.655234
 30
0.0
 10
372.211098
 20
359.806551
 30
0.0
 10
189.280819
 20
359.798051
 30
0.0
  0
LWPOLYLINE
  5
108
100
AcDbEntity
  8
Layer_1
 62
7
100
AcDbPolyline
 90
5
 70
0
 10
189.280819
 20
366.142261
 30
0.0
 10
189.280819
 20
362.990856
 30
0.0
 10
372.211098
 20
362.999356
 30
0.0
 10
372.211098
 20
366.150761
 30
0.0
 10
189.280819
 20
366.142261
 30
0.0
  0
LWPOLYLINE
  5
109
100
AcDbEntity
  8
Layer_1
 62
7
100
AcDbPolyline
 90
4
 70
0
 10
327.961030
 20
375.339075
 30
0.0
 10
372.211098
 20
375.339075
 30
0.0
 10
350.086064
 20
385.339090
 30
0.0
 10
327.961030
 20
375.339075
 30
0.0
  0
LWPOLYLINE
  5
10a
100
AcDbEntity
  8
Layer_1
 62
7
100
AcDbPolyline
 90
4
 70
0
 10
189.280819
 20
375.332575
 30
0.0
 10
234.474888
 20
375.332575
 30
0.0
 10
211.877853
 20
385.545890
 30
0.0
 10
189.280819
 20
375.332575
 30
0.0
  0
LWPOLYLINE
  5
10b
100
AcDbEntity
  8
Layer_1
 62
7
100
AcDbPolyline
 90
25
 70
0
 10
3.349264
 20
393.362442
 30
0.0
 10
46.528800
 20
393.364512
 30
0.0
 10
46.529600
 20
388.364495
 30
0.0
 10
82.377455
 20
388.366095
 30
0.0
 10
82.377355
 20
390.481698
 30
0.0
 10
88.813665
 20
390.481998
 30
0.0
 10
88.813765
 20
387.366393
 30
0.0
 10
97.813779
 20
387.366793
 30
0.0
 10
97.813679
 20
390.482418
 30
0.0
 10
104.117688
 20
390.482708
 30
0.0
 10
104.117688
 20
388.367195
 30
0.0
 10
142.029746
 20
388.367195
 30
0.0
 10
142.029746
 20
393.364462
 30
0.0
 10
184.279811
 20
393.364462
 30
0.0
 10
184.283811
 20
309.870675
 30
0.0
 10
118.972711
 20
309.870675
 30
0.0
 10
118.973711
 20
295.978054
 30
0.0
 10
108.429695
 20
295.978054
 30
0.0
 10
108.429695
 20
285.470038
 30
0.0
 10
77.127647
 20
285.468038
 30
0.0
 10
77.127147
 20
295.976054
 30
0.0
 10
67.201432
 20
295.976054
 30
0.0
 10
67.201432
 20
309.865275
 30
0.0
 10
3.353154
 20
309.862275
 30
0.0
 10
3.349264
 20
393.362442
 30
0.0
  0
LWPOLYLINE
  5
10c
100
AcDbEntity
  8
Layer_1
 62
7
100
AcDbPolyline
 90
5
 70
0
 10
3.363834
 20
32.018650
 30
0.0
 10
3.363834
 20
49.518677
 30
0.0
 10
36.543485
 20
49.518677
 30
0.0
 10
36.543485
 20
32.018650
 30
0.0
 10
3.363834
 20
32.018650
 30
0.0
  0
LWPOLYLINE
  5
10d
100
AcDbEntity
  8
Layer_1
 62
7
100
AcDbPolyline
 90
5
 70
0
 10
11.697247
 20
34.018653
 30
0.0
 10
11.697247
 20
44.768670
 30
0.0
 10
17.447156
 20
44.768670
 30
0.0
 10
17.447156
 20
34.018653
 30
0.0
 10
11.697247
 20
34.018653
 30
0.0
  0
LWPOLYLINE
  5
10e
100
AcDbEntity
  8
Layer_1
 62
7
100
AcDbPolyline
 90
5
 70
0
 10
21.570062
 20
34.018653
 30
0.0
 10
21.570062
 20
44.768670
 30
0.0
 10
27.319971
 20
44.768670
 30
0.0
 10
27.319971
 20
34.018653
 30
0.0
 10
21.570062
 20
34.018653
 30
0.0
  0
LWPOLYLINE
  5
10f
100
AcDbEntity
  8
Layer_1
 62
7
100
AcDbPolyline
 90
6
 70
0
 10
98.827680
 20
32.018650
 30
0.0
 10
55.542814
 20
32.018650
 30
0.0
 10
55.542814
 20
49.518677
 30
0.0
 10
153.043763
 20
49.518677
 30
0.0
 10
153.043763
 20
32.018650
 30
0.0
 10
107.827694
 20
32.018650
 30
0.0
  0
LWPOLYLINE
  5
110
100
AcDbEntity
  8
Layer_1
 62
7
100
AcDbPolyline
 90
5
 70
0
 10
57.221817
 20
34.018653
 30
0.0
 10
57.221817
 20
44.768670
 30
0.0
 10
62.971726
 20
44.768670
 30
0.0
 10
62.971726
 20
34.018653
 30
0.0
 10
57.221817
 20
34.018653
 30
0.0
  0
LWPOLYLINE
  5
111
100
AcDbEntity
  8
Layer_1
 62
7
100
AcDbPolyline
 90
5
 70
0
 10
70.933638
 20
34.018653
 30
0.0
 10
70.933638
 20
44.768670
 30
0.0
 10
76.683546
 20
44.768670
 30
0.0
 10
76.683546
 20
34.018653
 30
0.0
 10
70.933638
 20
34.018653
 30
0.0
  0
LWPOLYLINE
  5
112
100
AcDbEntity
  8
Layer_1
 62
7
100
AcDbPolyline
 90
5
 70
0
 10
85.314260
 20
34.018653
 30
0.0
 10
85.314260
 20
44.768670
 30
0.0
 10
91.064268
 20
44.768670
 30
0.0
 10
91.064268
 20
34.018653
 30
0.0
 10
85.314260
 20
34.018653
 30
0.0
  0
LWPOLYLINE
  5
113
100
AcDbEntity
  8
Layer_1
 62
7
100
AcDbPolyline
 90
5
 70
0
 10
114.910705
 20
34.018653
 30
0.0
 10
114.910705
 20
44.768670
 30
0.0
 10
120.660714
 20
44.768670
 30
0.0
 10
120.660714
 20
34.018653
 30
0.0
 10
114.910705
 20
34.018653
 30
0.0
  0
LWPOLYLINE
  5
114
100
AcDbEntity
  8
Layer_1
 62
7
100
AcDbPolyline
 90
5
 70
0
 10
128.621726
 20
34.018653
 30
0.0
 10
128.621726
 20
44.768670
 30
0.0
 10
134.371735
 20
44.768670
 30
0.0
 10
134.371735
 20
34.018653
 30
0.0
 10
128.621726
 20
34.018653
 30
0.0
  0
LWPOLYLINE
  5
115
100
AcDbEntity
  8
Layer_1
 62
7
100
AcDbPolyline
 90
5
 70
0
 10
143.002748
 20
34.018653
 30
0.0
 10
143.002748
 20
44.768670
 30
0.0
 10
148.752757
 20
44.768670
 30
0.0
 10
148.752757
 20
34.018653
 30
0.0
 10
143.002748
 20
34.018653
 30
0.0
  0
LWPOLYLINE
  5
116
100
AcDbEntity
  8
Layer_1
 62
7
100
AcDbPolyline
 90
4
 70
0
 10
98.827680
 20
32.018650
 30
0.0
 10
98.827680
 20
44.768670
 30
0.0
 10
107.827694
 20
44.768670
 30
0.0
 10
107.827694
 20
32.018650
 30
0.0
  0
LWPOLYLINE
  5
117
100
AcDbEntity
  8
Layer_1
 62
7
100
AcDbPolyline
 90
5
 70
0
 10
41.543493
 20
32.018650
 30
0.0
 10
41.543493
 20
49.518677
 30
0.0
 10
50.542807
 20
49.518677
 30
0.0
 10
50.542807
 20
32.018650
 30
0.0
 10
41.543493
 20
32.018650
 30
0.0
  0
LWPOLYLINE
  5
118
100
AcDbEntity
  8
Layer_1
 62
7
100
AcDbPolyline
 90
5
 70
0
 10
158.043771
 20
32.018650
 30
0.0
 10
158.043771
 20
49.518677
 30
0.0
 10
167.042785
 20
49.518677
 30
0.0
 10
167.042785
 20
32.018650
 30
0.0
 10
158.043771
 20
32.018650
 30
0.0
  0
LWPOLYLINE
  5
119
100
AcDbEntity
  8
Layer_1
 62
7
100
AcDbPolyline
 90
5
 70
0
 10
172.042792
 20
32.018650
 30
0.0
 10
172.042792
 20
49.518677
 30
0.0
 10
204.292841
 20
49.518677
 30
0.0
 10
204.292841
 20
32.018650
 30
0.0
 10
172.042792
 20
32.018650
 30
0.0
  0
LWPOLYLINE
  5
11a
100
AcDbEntity
  8
Layer_1
 62
7
100
AcDbPolyline
 90
5
 70
0
 10
179.016803
 20
34.018653
 30
0.0
 10
179.016803
 20
44.768670
 30
0.0
 10
184.766812
 20
44.768670
 30
0.0
 10
184.766812
 20
34.018653
 30
0.0
 10
179.016803
 20
34.018653
 30
0.0
  0
LWPOLYLINE
  5
11b
100
AcDbEntity
  8
Layer_1
 62
7
100
AcDbPolyline
 90
5
 70
0
 10
188.889818
 20
34.018653
 30
0.0
 10
188.889818
 20
44.768670
 30
0.0
 10
194.639827
 20
44.768670
 30
0.0
 10
194.639827
 20
34.018653
 30
0.0
 10
188.889818
 20
34.018653
 30
0.0
  0
LWPOLYLINE
  5
11c
100
AcDbEntity
  8
Layer_1
 62
7
100
AcDbPolyline
 90
5
 70
0
 10
209.292849
 20
32.018650
 30
0.0
 10
209.292849
 20
49.518677
 30
0.0
 10
290.786974
 20
49.518677
 30
0.0
 10
290.786974
 20
32.018650
 30
0.0
 10
209.292849
 20
32.018650
 30
0.0
  0
LWPOLYLINE
  5
11d
100
AcDbEntity
  8
Layer_1
 62
7
100
AcDbPolyline
 90
5
 70
0
 10
250.101911
 20
34.018653
 30
0.0
 10
250.101911
 20
44.768670
 30
0.0
 10
255.850920
 20
44.768670
 30
0.0
 10
255.850920
 20
34.018653
 30
0.0
 10
250.101911
 20
34.018653
 30
0.0
  0
LWPOLYLINE
  5
11e
100
AcDbEntity
  8
Layer_1
 62
7
100
AcDbPolyline
 90
5
 70
0
 10
227.979878
 20
34.018653
 30
0.0
 10
227.979878
 20
44.768670
 30
0.0
 10
233.729886
 20
44.768670
 30
0.0
 10
233.729886
 20
34.018653
 30
0.0
 10
227.979878
 20
34.018653
 30
0.0
  0
LWPOLYLINE
  5
11f
100
AcDbEntity
  8
Layer_1
 62
7
100
AcDbPolyline
 90
5
 70
0
 10
272.126945
 20
34.018653
 30
0.0
 10
272.126945
 20
44.768670
 30
0.0
 10
277.876954
 20
44.768670
 30
0.0
 10
277.876954
 20
34.018653
 30
0.0
 10
272.126945
 20
34.018653
 30
0.0
  0
LWPOLYLINE
  5
120
100
AcDbEntity
  8
Layer_1
 62
7
100
AcDbPolyline
 90
5
 70
0
 10
295.786981
 20
32.018650
 30
0.0
 10
295.786981
 20
49.518677
 30
0.0
 10
353.093069
 20
49.518677
 30
0.0
 10
353.093069
 20
32.018650
 30
0.0
 10
295.786981
 20
32.018650
 30
0.0
  0
LWPOLYLINE
  5
121
100
AcDbEntity
  8
Layer_1
 62
7
100
AcDbPolyline
 90
5
 70
0
 10
318.938017
 20
34.018653
 30
0.0
 10
318.938017
 20
44.768670
 30
0.0
 10
324.688025
 20
44.768670
 30
0.0
 10
324.688025
 20
34.018653
 30
0.0
 10
318.938017
 20
34.018653
 30
0.0
  0
LWPOLYLINE
  5
122
100
AcDbEntity
  8
Layer_1
 62
7
100
AcDbPolyline
 90
5
 70
0
 10
338.324046
 20
34.018653
 30
0.0
 10
338.324046
 20
44.768670
 30
0.0
 10
344.074055
 20
44.768670
 30
0.0
 10
344.074055
 20
34.018653
 30
0.0
 10
338.324046
 20
34.018653
 30
0.0
  0
LWPOLYLINE
  5
123
100
AcDbEntity
  8
Layer_1
 62
7
100
AcDbPolyline
 90
5
 70
0
 10
300.009988
 20
34.018653
 30
0.0
 10
300.009988
 20
44.768670
 30
0.0
 10
305.759996
 20
44.768670
 30
0.0
 10
305.759996
 20
34.018653
 30
0.0
 10
300.009988
 20
34.018653
 30
0.0
  0
LWPOLYLINE
  5
124
100
AcDbEntity
  8
Layer_1
 62
7
100
AcDbPolyline
 90
5
 70
0
 10
571.511402
 20
32.018650
 30
0.0
 10
571.511402
 20
49.518677
 30
0.0
 10
515.659317
 20
49.518677
 30
0.0
 10
515.659317
 20
32.018650
 30
0.0
 10
571.511402
 20
32.018650
 30
0.0
  0
LWPOLYLINE
  5
125
100
AcDbEntity
  8
Layer_1
 62
7
100
AcDbPolyline
 90
5
 70
0
 10
545.703363
 20
34.018653
 30
0.0
 10
545.703363
 20
44.768670
 30
0.0
 10
539.953354
 20
44.768670
 30
0.0
 10
539.953354
 20
34.018653
 30
0.0
 10
545.703363
 20
34.018653
 30
0.0
  0
LWPOLYLINE
  5
126
100
AcDbEntity
  8
Layer_1
 62
7
100
AcDbPolyline
 90
5
 70
0
 10
525.605332
 20
34.018653
 30
0.0
 10
525.605332
 20
44.768670
 30
0.0
 10
519.855324
 20
44.768670
 30
0.0
 10
519.855324
 20
34.018653
 30
0.0
 10
525.605332
 20
34.018653
 30
0.0
  0
LWPOLYLINE
  5
127
100
AcDbEntity
  8
Layer_1
 62
7
100
AcDbPolyline
 90
5
 70
0
 10
565.062393
 20
34.018653
 30
0.0
 10
565.062393
 20
44.768670
 30
0.0
 10
559.312384
 20
44.768670
 30
0.0
 10
559.312384
 20
34.018653
 30
0.0
 10
565.062393
 20
34.018653
 30
0.0
  0
LWPOLYLINE
  5
128
100
AcDbEntity
  8
Layer_1
 62
7
100
AcDbPolyline
 90
5
 70
0
 10
492.770282
 20
49.518677
 30
0.0
 10
492.770282
 20
32.018650
 30
0.0
 10
510.659310
 20
32.018650
 30
0.0
 10
510.659310
 20
49.518677
 30
0.0
 10
492.770282
 20
49.518677
 30
0.0
  0
LWPOLYLINE
  5
129
100
AcDbEntity
  8
Layer_1
 62
7
100
AcDbPolyline
 90
5
 70
0
 10
375.983104
 20
32.018650
 30
0.0
 10
375.983104
 20
49.518677
 30
0.0
 10
358.093076
 20
49.518677
 30
0.0
 10
358.093076
 20
32.018650
 30
0.0
 10
375.983104
 20
32.018650
 30
0.0
  0
LWPOLYLINE
  5
12a
100
AcDbEntity
  8
Layer_1
 62
7
100
AcDbPolyline
 90
5
 70
0
 10
395.527134
 20
32.018650
 30
0.0
 10
395.527134
 20
49.518677
 30
0.0
 10
380.983111
 20
49.518677
 30
0.0
 10
380.983111
 20
32.018650
 30
0.0
 10
395.527134
 20
32.018650
 30
0.0
  0
LWPOLYLINE
  5
12b
100
AcDbEntity
  8
Layer_1
 62
7
100
AcDbPolyline
 90
5
 70
0
 10
487.770275
 20
32.018650
 30
0.0
 10
487.770275
 20
49.518677
 30
0.0
 10
473.844253
 20
49.518677
 30
0.0
 10
473.844253
 20
32.018650
 30
0.0
 10
487.770275
 20
32.018650
 30
0.0
  0
LWPOLYLINE
  5
12c
100
AcDbEntity
  8
Layer_1
 62
7
100
AcDbPolyline
 90
5
 70
0
 10
415.035163
 20
32.018650
 30
0.0
 10
415.035163
 20
49.518677
 30
0.0
 10
400.527141
 20
49.518677
 30
0.0
 10
400.527141
 20
32.018650
 30
0.0
 10
415.035163
 20
32.018650
 30
0.0
  0
LWPOLYLINE
  5
12d
100
AcDbEntity
  8
Layer_1
 62
7
100
AcDbPolyline
 90
5
 70
0
 10
454.336223
 20
49.518677
 30
0.0
 10
454.336223
 20
32.018650
 30
0.0
 10
468.844246
 20
32.018650
 30
0.0
 10
468.844246
 20
49.518677
 30
0.0
 10
454.336223
 20
49.518677
 30
0.0
  0
LWPOLYLINE
  5
12e
100
AcDbEntity
  8
Layer_1
 62
7
100
AcDbPolyline
 90
9
 70
0
 10
449.336216
 20
49.518677
 30
0.0
 10
449.336216
 20
32.018650
 30
0.0
 10
438.436199
 20
32.018650
 30
0.0
 10
438.436199
 20
42.018666
 30
0.0
 10
430.936188
 20
42.018666
 30
0.0
 10
430.936188
 20
32.018650
 30
0.0
 10
420.035171
 20
32.018650
 30
0.0
 10
420.035171
 20
49.518677
 30
0.0
 10
449.336216
 20
49.518677
 30
0.0
  0
LWPOLYLINE
  5
12f
100
AcDbEntity
  8
Layer_1
 62
7
100
AcDbPolyline
 90
5
 70
0
 10
268.307939
 20
375.336275
 30
0.0
 10
292.048976
 20
375.337375
 30
0.0
 10
292.048976
 20
385.337390
 30
0.0
 10
268.307939
 20
385.336290
 30
0.0
 10
268.307939
 20
375.336275
 30
0.0
  0
LWPOLYLINE
  5
130
100
AcDbEntity
  8
Layer_1
 62
7
100
AcDbPolyline
 90
5
 70
0
 10
3.363834
 20
2.694606
 30
0.0
 10
3.363834
 20
25.194640
 30
0.0
 10
36.543485
 20
25.194640
 30
0.0
 10
36.543485
 20
2.694606
 30
0.0
 10
3.363834
 20
2.694606
 30
0.0
  0
LWPOLYLINE
  5
131
100
AcDbEntity
  8
Layer_1
 62
7
100
AcDbPolyline
 90
5
 70
0
 10
11.697247
 20
4.694609
 30
0.0
 10
11.697247
 20
15.444625
 30
0.0
 10
17.447156
 20
15.444625
 30
0.0
 10
17.447156
 20
4.694609
 30
0.0
 10
11.697247
 20
4.694609
 30
0.0
  0
LWPOLYLINE
  5
132
100
AcDbEntity
  8
Layer_1
 62
7
100
AcDbPolyline
 90
5
 70
0
 10
21.570062
 20
4.694609
 30
0.0
 10
21.570062
 20
15.444625
 30
0.0
 10
27.319971
 20
15.444625
 30
0.0
 10
27.319971
 20
4.694609
 30
0.0
 10
21.570062
 20
4.694609
 30
0.0
  0
LWPOLYLINE
  5
133
100
AcDbEntity
  8
Layer_1
 62
7
100
AcDbPolyline
 90
6
 70
0
 10
98.827680
 20
2.694606
 30
0.0
 10
55.542814
 20
2.694606
 30
0.0
 10
55.542814
 20
25.194640
 30
0.0
 10
153.043763
 20
25.194640
 30
0.0
 10
153.043763
 20
2.694606
 30
0.0
 10
107.827694
 20
2.694606
 30
0.0
  0
LWPOLYLINE
  5
134
100
AcDbEntity
  8
Layer_1
 62
7
100
AcDbPolyline
 90
5
 70
0
 10
57.221817
 20
4.694609
 30
0.0
 10
57.221817
 20
15.444625
 30
0.0
 10
62.971726
 20
15.444625
 30
0.0
 10
62.971726
 20
4.694609
 30
0.0
 10
57.221817
 20
4.694609
 30
0.0
  0
LWPOLYLINE
  5
135
100
AcDbEntity
  8
Layer_1
 62
7
100
AcDbPolyline
 90
5
 70
0
 10
70.933638
 20
4.694609
 30
0.0
 10
70.933638
 20
15.444625
 30
0.0
 10
76.683546
 20
15.444625
 30
0.0
 10
76.683546
 20
4.694609
 30
0.0
 10
70.933638
 20
4.694609
 30
0.0
  0
LWPOLYLINE
  5
136
100
AcDbEntity
  8
Layer_1
 62
7
100
AcDbPolyline
 90
5
 70
0
 10
85.314260
 20
4.694609
 30
0.0
 10
85.314260
 20
15.444625
 30
0.0
 10
91.064268
 20
15.444625
 30
0.0
 10
91.064268
 20
4.694609
 30
0.0
 10
85.314260
 20
4.694609
 30
0.0
  0
LWPOLYLINE
  5
137
100
AcDbEntity
  8
Layer_1
 62
7
100
AcDbPolyline
 90
5
 70
0
 10
114.910705
 20
4.694609
 30
0.0
 10
114.910705
 20
15.444625
 30
0.0
 10
120.660714
 20
15.444625
 30
0.0
 10
120.660714
 20
4.694609
 30
0.0
 10
114.910705
 20
4.694609
 30
0.0
  0
LWPOLYLINE
  5
138
100
AcDbEntity
  8
Layer_1
 62
7
100
AcDbPolyline
 90
5
 70
0
 10
128.621726
 20
4.694609
 30
0.0
 10
128.621726
 20
15.444625
 30
0.0
 10
134.371735
 20
15.444625
 30
0.0
 10
134.371735
 20
4.694609
 30
0.0
 10
128.621726
 20
4.694609
 30
0.0
  0
LWPOLYLINE
  5
139
100
AcDbEntity
  8
Layer_1
 62
7
100
AcDbPolyline
 90
5
 70
0
 10
143.002748
 20
4.694609
 30
0.0
 10
143.002748
 20
15.444625
 30
0.0
 10
148.752757
 20
15.444625
 30
0.0
 10
148.752757
 20
4.694609
 30
0.0
 10
143.002748
 20
4.694609
 30
0.0
  0
LWPOLYLINE
  5
13a
100
AcDbEntity
  8
Layer_1
 62
7
100
AcDbPolyline
 90
4
 70
0
 10
98.827680
 20
2.694606
 30
0.0
 10
98.827680
 20
15.444625
 30
0.0
 10
107.827694
 20
15.444625
 30
0.0
 10
107.827694
 20
2.694606
 30
0.0
  0
LWPOLYLINE
  5
13b
100
AcDbEntity
  8
Layer_1
 62
7
100
AcDbPolyline
 90
5
 70
0
 10
41.543493
 20
2.694606
 30
0.0
 10
41.543493
 20
25.194640
 30
0.0
 10
50.542807
 20
25.194640
 30
0.0
 10
50.542807
 20
2.694606
 30
0.0
 10
41.543493
 20
2.694606
 30
0.0
  0
LWPOLYLINE
  5
13c
100
AcDbEntity
  8
Layer_1
 62
7
100
AcDbPolyline
 90
5
 70
0
 10
158.043771
 20
2.694606
 30
0.0
 10
158.043771
 20
25.194640
 30
0.0
 10
167.042785
 20
25.194640
 30
0.0
 10
167.042785
 20
2.694606
 30
0.0
 10
158.043771
 20
2.694606
 30
0.0
  0
LWPOLYLINE
  5
13d
100
AcDbEntity
  8
Layer_1
 62
7
100
AcDbPolyline
 90
5
 70
0
 10
172.042792
 20
2.694606
 30
0.0
 10
172.042792
 20
25.194640
 30
0.0
 10
204.292841
 20
25.194640
 30
0.0
 10
204.292841
 20
2.694606
 30
0.0
 10
172.042792
 20
2.694606
 30
0.0
  0
LWPOLYLINE
  5
13e
100
AcDbEntity
  8
Layer_1
 62
7
100
AcDbPolyline
 90
5
 70
0
 10
179.016803
 20
4.694609
 30
0.0
 10
179.016803
 20
15.444625
 30
0.0
 10
184.766812
 20
15.444625
 30
0.0
 10
184.766812
 20
4.694609
 30
0.0
 10
179.016803
 20
4.694609
 30
0.0
  0
LWPOLYLINE
  5
13f
100
AcDbEntity
  8
Layer_1
 62
7
100
AcDbPolyline
 90
5
 70
0
 10
188.889818
 20
4.694609
 30
0.0
 10
188.889818
 20
15.444625
 30
0.0
 10
194.639827
 20
15.444625
 30
0.0
 10
194.639827
 20
4.694609
 30
0.0
 10
188.889818
 20
4.694609
 30
0.0
  0
LWPOLYLINE
  5
140
100
AcDbEntity
  8
Layer_1
 62
7
100
AcDbPolyline
 90
5
 70
0
 10
209.292849
 20
2.694606
 30
0.0
 10
209.292849
 20
25.194640
 30
0.0
 10
290.786974
 20
25.194640
 30
0.0
 10
290.786974
 20
2.694606
 30
0.0
 10
209.292849
 20
2.694606
 30
0.0
  0
LWPOLYLINE
  5
141
100
AcDbEntity
  8
Layer_1
 62
7
100
AcDbPolyline
 90
5
 70
0
 10
227.979878
 20
4.694609
 30
0.0
 10
227.979878
 20
15.444625
 30
0.0
 10
233.729886
 20
15.444625
 30
0.0
 10
233.729886
 20
4.694609
 30
0.0
 10
227.979878
 20
4.694609
 30
0.0
  0
LWPOLYLINE
  5
142
100
AcDbEntity
  8
Layer_1
 62
7
100
AcDbPolyline
 90
5
 70
0
 10
272.126945
 20
4.694609
 30
0.0
 10
272.126945
 20
15.444625
 30
0.0
 10
277.876954
 20
15.444625
 30
0.0
 10
277.876954
 20
4.694609
 30
0.0
 10
272.126945
 20
4.694609
 30
0.0
  0
LWPOLYLINE
  5
143
100
AcDbEntity
  8
Layer_1
 62
7
100
AcDbPolyline
 90
5
 70
0
 10
295.786981
 20
2.694606
 30
0.0
 10
295.786981
 20
25.194640
 30
0.0
 10
353.093069
 20
25.194640
 30
0.0
 10
353.093069
 20
2.694606
 30
0.0
 10
295.786981
 20
2.694606
 30
0.0
  0
LWPOLYLINE
  5
144
100
AcDbEntity
  8
Layer_1
 62
7
100
AcDbPolyline
 90
5
 70
0
 10
318.938017
 20
4.694609
 30
0.0
 10
318.938017
 20
15.444625
 30
0.0
 10
324.688025
 20
15.444625
 30
0.0
 10
324.688025
 20
4.694609
 30
0.0
 10
318.938017
 20
4.694609
 30
0.0
  0
LWPOLYLINE
  5
145
100
AcDbEntity
  8
Layer_1
 62
7
100
AcDbPolyline
 90
5
 70
0
 10
338.324046
 20
4.694609
 30
0.0
 10
338.324046
 20
15.444625
 30
0.0
 10
344.074055
 20
15.444625
 30
0.0
 10
344.074055
 20
4.694609
 30
0.0
 10
338.324046
 20
4.694609
 30
0.0
  0
LWPOLYLINE
  5
146
100
AcDbEntity
  8
Layer_1
 62
7
100
AcDbPolyline
 90
5
 70
0
 10
300.009988
 20
4.694609
 30
0.0
 10
300.009988
 20
15.444625
 30
0.0
 10
305.759996
 20
15.444625
 30
0.0
 10
305.759996
 20
4.694609
 30
0.0
 10
300.009988
 20
4.694609
 30
0.0
  0
LWPOLYLINE
  5
147
100
AcDbEntity
  8
Layer_1
 62
7
100
AcDbPolyline
 90
5
 70
0
 10
571.511402
 20
2.694606
 30
0.0
 10
571.511402
 20
25.194640
 30
0.0
 10
515.659317
 20
25.194640
 30
0.0
 10
515.659317
 20
2.694606
 30
0.0
 10
571.511402
 20
2.694606
 30
0.0
  0
LWPOLYLINE
  5
148
100
AcDbEntity
  8
Layer_1
 62
7
100
AcDbPolyline
 90
5
 70
0
 10
545.703363
 20
4.694609
 30
0.0
 10
545.703363
 20
15.444625
 30
0.0
 10
539.953354
 20
15.444625
 30
0.0
 10
539.953354
 20
4.694609
 30
0.0
 10
545.703363
 20
4.694609
 30
0.0
  0
LWPOLYLINE
  5
149
100
AcDbEntity
  8
Layer_1
 62
7
100
AcDbPolyline
 90
5
 70
0
 10
525.605332
 20
4.694609
 30
0.0
 10
525.605332
 20
15.444625
 30
0.0
 10
519.855324
 20
15.444625
 30
0.0
 10
519.855324
 20
4.694609
 30
0.0
 10
525.605332
 20
4.694609
 30
0.0
  0
LWPOLYLINE
  5
14a
100
AcDbEntity
  8
Layer_1
 62
7
100
AcDbPolyline
 90
5
 70
0
 10
565.062393
 20
4.694609
 30
0.0
 10
565.062393
 20
15.444625
 30
0.0
 10
559.312384
 20
15.444625
 30
0.0
 10
559.312384
 20
4.694609
 30
0.0
 10
565.062393
 20
4.694609
 30
0.0
  0
LWPOLYLINE
  5
14b
100
AcDbEntity
  8
Layer_1
 62
7
100
AcDbPolyline
 90
5
 70
0
 10
492.770282
 20
25.194640
 30
0.0
 10
492.770282
 20
2.694606
 30
0.0
 10
510.659310
 20
2.694606
 30
0.0
 10
510.659310
 20
25.194640
 30
0.0
 10
492.770282
 20
25.194640
 30
0.0
  0
LWPOLYLINE
  5
14c
100
AcDbEntity
  8
Layer_1
 62
7
100
AcDbPolyline
 90
5
 70
0
 10
375.983104
 20
2.694606
 30
0.0
 10
375.983104
 20
25.194640
 30
0.0
 10
358.093076
 20
25.194640
 30
0.0
 10
358.093076
 20
2.694606
 30
0.0
 10
375.983104
 20
2.694606
 30
0.0
  0
LWPOLYLINE
  5
14d
100
AcDbEntity
  8
Layer_1
 62
7
100
AcDbPolyline
 90
5
 70
0
 10
395.527134
 20
2.694606
 30
0.0
 10
395.527134
 20
25.194640
 30
0.0
 10
380.983111
 20
25.194640
 30
0.0
 10
380.983111
 20
2.694606
 30
0.0
 10
395.527134
 20
2.694606
 30
0.0
  0
LWPOLYLINE
  5
14e
100
AcDbEntity
  8
Layer_1
 62
7
100
AcDbPolyline
 90
5
 70
0
 10
487.770275
 20
2.694606
 30
0.0
 10
487.770275
 20
25.194640
 30
0.0
 10
473.844253
 20
25.194640
 30
0.0
 10
473.844253
 20
2.694606
 30
0.0
 10
487.770275
 20
2.694606
 30
0.0
  0
LWPOLYLINE
  5
14f
100
AcDbEntity
  8
Layer_1
 62
7
100
AcDbPolyline
 90
5
 70
0
 10
415.035163
 20
2.694606
 30
0.0
 10
415.035163
 20
25.194640
 30
0.0
 10
400.527141
 20
25.194640
 30
0.0
 10
400.527141
 20
2.694606
 30
0.0
 10
415.035163
 20
2.694606
 30
0.0
  0
LWPOLYLINE
  5
150
100
AcDbEntity
  8
Layer_1
 62
7
100
AcDbPolyline
 90
5
 70
0
 10
454.336223
 20
25.194640
 30
0.0
 10
454.336223
 20
2.694606
 30
0.0
 10
468.844246
 20
2.694606
 30
0.0
 10
468.844246
 20
25.194640
 30
0.0
 10
454.336223
 20
25.194640
 30
0.0
  0
LWPOLYLINE
  5
151
100
AcDbEntity
  8
Layer_1
 62
7
100
AcDbPolyline
 90
9
 70
0
 10
449.336216
 20
25.194640
 30
0.0
 10
449.336216
 20
2.694606
 30
0.0
 10
438.436199
 20
2.694606
 30
0.0
 10
438.436199
 20
12.694621
 30
0.0
 10
430.936188
 20
12.694621
 30
0.0
 10
430.936188
 20
2.694606
 30
0.0
 10
420.035171
 20
2.694606
 30
0.0
 10
420.035171
 20
25.194640
 30
0.0
 10
449.336216
 20
25.194640
 30
0.0
  0
LWPOLYLINE
  5
152
100
AcDbEntity
  8
Layer_1
 62
7
100
AcDbPolyline
 90
11
 70
0
 10
503.698299
 20
305.456968
 30
0.0
 10
585.182423
 20
305.460768
 30
0.0
 10
585.194423
 20
56.530688
 30
0.0
 10
483.710268
 20
56.530688
 30
0.0
 10
483.706268
 20
133.053805
 30
0.0
 10
468.706245
 20
133.052805
 30
0.0
 10
468.705245
 20
157.793842
 30
0.0
 10
483.705268
 20
157.793842
 30
0.0
 10
483.701268
 20
250.455984
 30
0.0
 10
503.701299
 20
250.455984
 30
0.0
 10
503.698299
 20
305.456968
 30
0.0
  0
LWPOLYLINE
  5
153
100
AcDbEntity
  8
Layer_1
 62
7
100
AcDbPolyline
 90
11
 70
0
 10
458.706230
 20
138.996814
 30
0.0
 10
377.222106
 20
138.992814
 30
0.0
 10
377.211106
 20
387.923194
 30
0.0
 10
478.694261
 20
387.923194
 30
0.0
 10
478.698261
 20
311.400077
 30
0.0
 10
493.698284
 20
311.400777
 30
0.0
 10
493.699284
 20
286.660039
 30
0.0
 10
478.699261
 20
286.659039
 30
0.0
 10
478.703261
 20
193.997898
 30
0.0
 10
458.703230
 20
193.997898
 30
0.0
 10
458.706230
 20
138.996814
 30
0.0
  0
LWPOLYLINE
  5
154
100
AcDbEntity
  8
Layer_1
 62
7
100
AcDbPolyline
 90
7
 70
0
 10
560.007385
 20
387.459693
 30
0.0
 10
501.245295
 20
379.365181
 30
0.0
 10
501.248295
 20
361.955654
 30
0.0
 10
525.946333
 20
361.960254
 30
0.0
 10
525.949333
 20
355.733545
 30
0.0
 10
560.009385
 20
355.733545
 30
0.0
 10
560.007385
 20
387.459693
 30
0.0
  0
LWPOLYLINE
  5
155
100
AcDbEntity
  8
Layer_1
 62
7
100
AcDbPolyline
 90
7
 70
0
 10
502.411297
 20
310.456876
 30
0.0
 10
558.319382
 20
310.456876
 30
0.0
 10
558.316382
 20
346.161330
 30
0.0
 10
531.219341
 20
346.159330
 30
0.0
 10
531.219341
 20
350.733537
 30
0.0
 10
502.408297
 20
347.015332
 30
0.0
 10
502.411297
 20
310.456876
 30
0.0
  0
LWPOLYLINE
  5
156
100
AcDbEntity
  8
Layer_1
 62
7
100
AcDbPolyline
 90
7
 70
0
 10
467.237243
 20
61.897696
 30
0.0
 10
467.236243
 20
109.851769
 30
0.0
 10
440.919203
 20
109.852769
 30
0.0
 10
440.919203
 20
113.723775
 30
0.0
 10
411.566158
 20
110.686771
 30
0.0
 10
412.425159
 20
61.897696
 30
0.0
 10
467.237243
 20
61.897696
 30
0.0
  0
LWPOLYLINE
  5
157
100
AcDbEntity
  8
Layer_1
 62
7
100
AcDbPolyline
 90
5
 70
0
 10
585.179423
 20
313.252880
 30
0.0
 10
574.181407
 20
313.253480
 30
0.0
 10
566.055394
 20
389.135136
 30
0.0
 10
585.176423
 20
389.136536
 30
0.0
 10
585.179423
 20
313.252880
 30
0.0
  0
LWPOLYLINE
  5
158
100
AcDbEntity
  8
Layer_1
 62
7
100
AcDbPolyline
 90
6
 70
0
 10
187.591816
 20
57.126689
 30
0.0
 10
176.046798
 20
57.126689
 30
0.0
 10
176.046798
 20
74.626715
 30
0.0
 10
257.546923
 20
74.626715
 30
0.0
 10
257.546923
 20
57.126689
 30
0.0
 10
196.090829
 20
57.126689
 30
0.0
  0
LWPOLYLINE
  5
159
100
AcDbEntity
  8
Layer_1
 62
7
100
AcDbPolyline
 90
5
 70
0
 10
227.364877
 20
59.126692
 30
0.0
 10
227.364877
 20
69.876708
 30
0.0
 10
233.114885
 20
69.876708
 30
0.0
 10
233.114885
 20
59.126692
 30
0.0
 10
227.364877
 20
59.126692
 30
0.0
  0
LWPOLYLINE
  5
15a
100
AcDbEntity
  8
Layer_1
 62
7
100
AcDbPolyline
 90
5
 70
0
 10
208.126847
 20
59.126692
 30
0.0
 10
208.126847
 20
69.876708
 30
0.0
 10
213.876856
 20
69.876708
 30
0.0
 10
213.876856
 20
59.126692
 30
0.0
 10
208.126847
 20
59.126692
 30
0.0
  0
LWPOLYLINE
  5
15b
100
AcDbEntity
  8
Layer_1
 62
7
100
AcDbPolyline
 90
4
 70
0
 10
187.591816
 20
57.126689
 30
0.0
 10
187.591816
 20
69.876708
 30
0.0
 10
196.090829
 20
69.876708
 30
0.0
 10
196.090829
 20
57.126689
 30
0.0
  0
LWPOLYLINE
  5
15c
100
AcDbEntity
  8
Layer_1
 62
7
100
AcDbPolyline
 90
6
 70
0
 10
329.693033
 20
56.952688
 30
0.0
 10
318.148015
 20
56.952688
 30
0.0
 10
318.148015
 20
79.452723
 30
0.0
 10
399.648140
 20
79.452723
 30
0.0
 10
399.648140
 20
56.952688
 30
0.0
 10
338.192046
 20
56.952688
 30
0.0
  0
LWPOLYLINE
  5
15d
100
AcDbEntity
  8
Layer_1
 62
7
100
AcDbPolyline
 90
5
 70
0
 10
369.466094
 20
58.952691
 30
0.0
 10
369.466094
 20
69.702708
 30
0.0
 10
375.216103
 20
69.702708
 30
0.0
 10
375.216103
 20
58.952691
 30
0.0
 10
369.466094
 20
58.952691
 30
0.0
  0
LWPOLYLINE
  5
15e
100
AcDbEntity
  8
Layer_1
 62
7
100
AcDbPolyline
 90
5
 70
0
 10
350.228064
 20
58.952691
 30
0.0
 10
350.228064
 20
69.702708
 30
0.0
 10
355.978073
 20
69.702708
 30
0.0
 10
355.978073
 20
58.952691
 30
0.0
 10
350.228064
 20
58.952691
 30
0.0
  0
LWPOLYLINE
  5
15f
100
AcDbEntity
  8
Layer_1
 62
7
100
AcDbPolyline
 90
4
 70
0
 10
329.693033
 20
56.952688
 30
0.0
 10
329.693033
 20
69.702708
 30
0.0
 10
338.192046
 20
69.702708
 30
0.0
 10
338.192046
 20
56.952688
 30
0.0
  0
ENDSEC
  0
SECTION
  2
OBJECTS
  0
DICTIONARY
  5
C
330
0
100
AcDbDictionary
  3
ACAD_GROUP
350
D
  3
ACAD_MLINESTYLE
350
17
  0
DICTIONARY
  5
D
330
C
100
AcDbDictionary
  0
DICTIONARY
  5
1A
330
C
100
AcDbDictionary
  0
DICTIONARY
  5
17
330
C
100
AcDbDictionary
  3
STANDARD
350
18
  0
DICTIONARY
  5
19
330
C
100
AcDbDictionary
  0
ENDSEC
  0
EOF
