  0
SECTION
  2
HEADER
  9
$ACADVER
  1
AC1014
  9
$HANDSEED
  5
FFFF
  9
$MEASUREMENT
 70
     1
  0
ENDSEC
  0
SECTION
  2
TABLES
  0
TABLE
  2
VPORT
  5
8
330
0
100
AcDbSymbolTable
 70
     4
  0
VPORT
  5
2E
330
8
100
AcDbSymbolTableRecord
100
AcDbViewportTableRecord
  2
*ACTIVE
 70
     0
 10
0.0
 20
0.0
 11
1.0
 21
1.0
 12
210.0
 22
148.5
 13
0.0
 23
0.0
 14
10.0
 24
10.0
 15
10.0
 25
10.0
 16
0.0
 26
0.0
 36
1.0
 17
0.0
 27
0.0
 37
0.0
 40
341.0
 41
1.24
 42
50.0
 43
0.0
 44
0.0
 50
0.0
 51
0.0
 71
     0
 72
   100
 73
     1
 74
     3
 75
     0
 76
     0
 77
     0
 78
     0
  0
ENDTAB
  0
TABLE
  2
LTYPE
  5
5
330
0
100
AcDbSymbolTable
 70
     1
  0
LTYPE
  5
14
330
5
100
AcDbSymbolTableRecord
100
AcDbLinetypeTableRecord
  2
BYBLOCK
 70
     0
  3

 72
    65
 73
     0
 40
0.0
  0
LTYPE
  5
15
330
5
100
AcDbSymbolTableRecord
100
AcDbLinetypeTableRecord
  2
BYLAYER
 70
     0
  3

 72
    65
 73
     0
 40
0.0
  0
LTYPE
  5
16
330
5
100
AcDbSymbolTableRecord
100
AcDbLinetypeTableRecord
  2
CONTINUOUS
 70
     0
  3
Solid line
 72
    65
 73
     0
 40
0.0
  0
ENDTAB
  0
TABLE
  2
LAYER
  5
2
100
AcDbSymbolTable
 70
2
  0
LAYER
  5
50
100
AcDbSymbolTableRecord
100
AcDbLayerTableRecord
  2
0
 70
0
  6
CONTINUOUS
  0
LAYER
  5
51
100
AcDbSymbolTableRecord
100
AcDbLayerTableRecord
  2
Layer_1
 70
0
  6
CONTINUOUS
  0
ENDTAB
  0
TABLE
  2
STYLE
  5
3
330
0
100
AcDbSymbolTable
 70
     1
  0
STYLE
  5
11
330
3
100
AcDbSymbolTableRecord
100
AcDbTextStyleTableRecord
  2
STANDARD
 70
     0
 40
0.0
 41
1.0
 50
0.0
 71
     0
 42
2.5
  3
txt
  4

  0
ENDTAB
  0
TABLE
  2
VIEW
  5
6
330
0
100
AcDbSymbolTable
 70
     0
  0
ENDTAB
  0
TABLE
  2
UCS
  5
7
330
0
100
AcDbSymbolTable
 70
     0
  0
ENDTAB
  0
TABLE
  2
APPID
  5
9
330
0
100
AcDbSymbolTable
 70
     2
  0
APPID
  5
12
330
9
100
AcDbSymbolTableRecord
100
AcDbRegAppTableRecord
  2
ACAD
 70
     0
  0
ENDTAB
  0
TABLE
  2
DIMSTYLE
  5
A
330
0
100
AcDbSymbolTable
 70
     1
  0
DIMSTYLE
105
27
330
A
100
AcDbSymbolTableRecord
100
AcDbDimStyleTableRecord
  2
ISO-25
 70
     0
  3

  4

  5

  6

  7

 40
1.0
 41
2.5
 42
0.625
 43
3.75
 44
1.25
 45
0.0
 46
0.0
 47
0.0
 48
0.0
140
2.5
141
2.5
142
0.0
143
0.03937007874016
144
1.0
145
0.0
146
1.0
147
0.625
 71
     0
 72
     0
 73
     0
 74
     0
 75
     0
 76
     0
 77
     1
 78
     8
170
     0
171
     3
172
     1
173
     0
174
     0
175
     0
176
     0
177
     0
178
     0
270
     2
271
     2
272
     2
273
     2
274
     3
340
11
275
     0
280
     0
281
     0
282
     0
283
     0
284
     8
285
     0
286
     0
287
     3
288
     0
  0
ENDTAB
  0
TABLE
  2
BLOCK_RECORD
  5
1
330
0
100
AcDbSymbolTable
 70
     1
  0
BLOCK_RECORD
  5
1F
330
1
100
AcDbSymbolTableRecord
100
AcDbBlockTableRecord
  2
*MODEL_SPACE
  0
BLOCK_RECORD
  5
1B
330
1
100
AcDbSymbolTableRecord
100
AcDbBlockTableRecord
  2
*PAPER_SPACE
  0
ENDTAB
  0
ENDSEC
  0
SECTION
  2
BLOCKS
  0
BLOCK
  5
20
330
1F
100
AcDbEntity
  8
0
100
AcDbBlockBegin
  2
*MODEL_SPACE
 70
     0
 10
0.0
 20
0.0
 30
0.0
  3
*MODEL_SPACE
  1

  0
ENDBLK
  5
21
330
1F
100
AcDbEntity
  8
0
100
AcDbBlockEnd
  0
BLOCK
  5
1C
330
1B
100
AcDbEntity
 67
     1
  8
0
100
AcDbBlockBegin
  2
*PAPER_SPACE
  1

  0
ENDBLK
  5
1D
330
1B
100
AcDbEntity
 67
     1
  8
0
100
AcDbBlockEnd
  0
ENDSEC
  0
SECTION
  2
ENTITIES
  0
LWPOLYLINE
  5
100
100
AcDbEntity
  8
Layer_1
 62
7
100
AcDbPolyline
 90
11
 70
0
 10
253.888609
 20
352.477776
 30
0.0
 10
253.892609
 20
270.994045
 30
0.0
 10
4.961709
 20
270.982045
 30
0.0
 10
4.961709
 20
372.466208
 30
0.0
 10
81.484932
 20
372.469808
 30
0.0
 10
81.484232
 20
387.469832
 30
0.0
 10
106.225372
 20
387.471032
 30
0.0
 10
106.225372
 20
372.471008
 30
0.0
 10
198.887521
 20
372.475308
 30
0.0
 10
198.887521
 20
352.475276
 30
0.0
 10
253.888609
 20
352.477776
 30
0.0
  0
LWPOLYLINE
  5
101
100
AcDbEntity
  8
Layer_1
 62
7
100
AcDbPolyline
 90
11
 70
0
 10
253.888609
 20
225.855972
 30
0.0
 10
253.892609
 20
144.371841
 30
0.0
 10
4.961709
 20
144.359841
 30
0.0
 10
4.961709
 20
245.844004
 30
0.0
 10
81.484932
 20
245.848004
 30
0.0
 10
81.484232
 20
260.848028
 30
0.0
 10
106.225372
 20
260.849028
 30
0.0
 10
106.225372
 20
245.849004
 30
0.0
 10
198.887521
 20
245.853004
 30
0.0
 10
198.887521
 20
225.852972
 30
0.0
 10
253.888609
 20
225.855972
 30
0.0
  0
LWPOLYLINE
  5
102
100
AcDbEntity
  8
Layer_1
 62
7
100
AcDbPolyline
 90
11
 70
0
 10
253.888609
 20
95.519763
 30
0.0
 10
253.892609
 20
14.035632
 30
0.0
 10
4.961709
 20
14.024632
 30
0.0
 10
4.961709
 20
115.507795
 30
0.0
 10
81.484932
 20
115.511795
 30
0.0
 10
81.484232
 20
130.511819
 30
0.0
 10
106.225372
 20
130.512819
 30
0.0
 10
106.225372
 20
115.512795
 30
0.0
 10
198.887521
 20
115.516795
 30
0.0
 10
198.887521
 20
95.516763
 30
0.0
 10
253.888609
 20
95.519763
 30
0.0
  0
LWPOLYLINE
  5
103
100
AcDbEntity
  8
Layer_1
 62
7
100
AcDbPolyline
 90
5
 70
0
 10
-0.038299
 20
398.362250
 30
0.0
 10
599.962166
 20
398.362250
 30
0.0
 10
599.962166
 20
-1.638394
 30
0.0
 10
-0.038299
 20
-1.638394
 30
0.0
 10
-0.038299
 20
398.362250
 30
0.0
  0
LWPOLYLINE
  5
104
100
AcDbEntity
  8
Layer_1
 62
7
100
AcDbPolyline
 90
7
 70
0
 10
323.536721
 20
387.486532
 30
0.0
 10
264.774627
 20
379.392019
 30
0.0
 10
264.777627
 20
361.982491
 30
0.0
 10
289.475667
 20
361.987091
 30
0.0
 10
289.478667
 20
355.760381
 30
0.0
 10
323.538721
 20
355.760381
 30
0.0
 10
323.536721
 20
387.486532
 30
0.0
  0
LWPOLYLINE
  5
105
100
AcDbEntity
  8
Layer_1
 62
7
100
AcDbPolyline
 90
5
 70
0
 10
476.497967
 20
306.207301
 30
0.0
 10
465.499950
 20
306.207801
 30
0.0
 10
457.373936
 20
382.089523
 30
0.0
 10
476.494967
 20
382.090923
 30
0.0
 10
476.497967
 20
306.207301
 30
0.0
  0
LWPOLYLINE
  5
106
100
AcDbEntity
  8
Layer_1
 62
7
100
AcDbPolyline
 90
7
 70
0
 10
265.940629
 20
304.816999
 30
0.0
 10
321.848719
 20
304.816999
 30
0.0
 10
321.845719
 20
340.521457
 30
0.0
 10
294.748675
 20
340.519357
 30
0.0
 10
294.748675
 20
345.093664
 30
0.0
 10
265.937629
 20
341.375458
 30
0.0
 10
265.940629
 20
304.816999
 30
0.0
  0
LWPOLYLINE
  5
107
100
AcDbEntity
  8
Layer_1
 62
7
100
AcDbPolyline
 90
7
 70
0
 10
387.196824
 20
332.672244
 30
0.0
 10
387.195824
 20
380.627121
 30
0.0
 10
360.878781
 20
380.628221
 30
0.0
 10
360.878781
 20
384.498827
 30
0.0
 10
331.525734
 20
381.462322
 30
0.0
 10
332.384736
 20
332.672244
 30
0.0
 10
387.196824
 20
332.672244
 30
0.0
  0
LWPOLYLINE
  5
108
100
AcDbEntity
  8
Layer_1
 62
7
100
AcDbPolyline
 90
9
 70
0
 10
449.501924
 20
362.988493
 30
0.0
 10
442.397912
 20
362.988493
 30
0.0
 10
442.397912
 20
384.802528
 30
0.0
 10
400.901846
 20
384.803428
 30
0.0
 10
400.904846
 20
306.048901
 30
0.0
 10
453.688931
 20
306.048901
 30
0.0
 10
453.690931
 20
339.220654
 30
0.0
 10
449.505924
 20
339.219754
 30
0.0
 10
449.501924
 20
362.988493
 30
0.0
  0
LWPOLYLINE
  5
109
100
AcDbEntity
  8
Layer_1
 62
7
100
AcDbPolyline
 90
5
 70
0
 10
487.897986
 20
190.358915
 30
0.0
 10
486.100983
 20
137.491830
 30
0.0
 10
581.610136
 20
136.995829
 30
0.0
 10
581.610136
 20
190.358915
 30
0.0
 10
487.897986
 20
190.358915
 30
0.0
  0
LWPOLYLINE
  5
10a
100
AcDbEntity
  8
Layer_1
 62
7
100
AcDbPolyline
 90
7
 70
0
 10
323.543721
 20
293.174080
 30
0.0
 10
264.782627
 20
285.080067
 30
0.0
 10
264.784627
 20
267.670039
 30
0.0
 10
289.483667
 20
267.675039
 30
0.0
 10
289.485667
 20
261.448029
 30
0.0
 10
323.546721
 20
261.448029
 30
0.0
 10
323.543721
 20
293.174080
 30
0.0
  0
LWPOLYLINE
  5
10b
100
AcDbEntity
  8
Layer_1
 62
7
100
AcDbPolyline
 90
5
 70
0
 10
476.505967
 20
211.894950
 30
0.0
 10
465.507950
 20
211.894950
 30
0.0
 10
457.381936
 20
287.777072
 30
0.0
 10
476.502967
 20
287.778072
 30
0.0
 10
476.505967
 20
211.894950
 30
0.0
  0
LWPOLYLINE
  5
10c
100
AcDbEntity
  8
Layer_1
 62
7
100
AcDbPolyline
 90
7
 70
0
 10
265.948629
 20
210.504948
 30
0.0
 10
321.855719
 20
210.504948
 30
0.0
 10
321.853719
 20
246.209005
 30
0.0
 10
294.756675
 20
246.207005
 30
0.0
 10
294.756675
 20
250.781012
 30
0.0
 10
265.945629
 20
247.063006
 30
0.0
 10
265.948629
 20
210.504948
 30
0.0
  0
LWPOLYLINE
  5
10d
100
AcDbEntity
  8
Layer_1
 62
7
100
AcDbPolyline
 90
7
 70
0
 10
387.204824
 20
267.435039
 30
0.0
 10
387.202824
 20
315.389516
 30
0.0
 10
360.886781
 20
315.390616
 30
0.0
 10
360.886781
 20
319.261222
 30
0.0
 10
331.533734
 20
316.224717
 30
0.0
 10
332.391736
 20
267.435039
 30
0.0
 10
387.204824
 20
267.435039
 30
0.0
  0
LWPOLYLINE
  5
10e
100
AcDbEntity
  8
Layer_1
 62
7
100
AcDbPolyline
 90
9
 70
0
 10
449.509924
 20
268.676041
 30
0.0
 10
442.405912
 20
268.676041
 30
0.0
 10
442.405912
 20
290.490076
 30
0.0
 10
400.908846
 20
290.491076
 30
0.0
 10
400.911846
 20
211.736949
 30
0.0
 10
453.696931
 20
211.736949
 30
0.0
 10
453.698931
 20
244.908003
 30
0.0
 10
449.513924
 20
244.907003
 30
0.0
 10
449.509924
 20
268.676041
 30
0.0
  0
LWPOLYLINE
  5
10f
100
AcDbEntity
  8
Layer_1
 62
7
100
AcDbPolyline
 90
7
 70
0
 10
323.551721
 20
199.274929
 30
0.0
 10
264.790627
 20
191.180916
 30
0.0
 10
264.792627
 20
173.770888
 30
0.0
 10
289.491667
 20
173.775888
 30
0.0
 10
289.493667
 20
167.548878
 30
0.0
 10
323.553721
 20
167.548878
 30
0.0
 10
323.551721
 20
199.274929
 30
0.0
  0
LWPOLYLINE
  5
110
100
AcDbEntity
  8
Layer_1
 62
7
100
AcDbPolyline
 90
5
 70
0
 10
476.512967
 20
117.995799
 30
0.0
 10
465.514950
 20
117.996799
 30
0.0
 10
457.388937
 20
193.877921
 30
0.0
 10
476.510967
 20
193.879921
 30
0.0
 10
476.512967
 20
117.995799
 30
0.0
  0
LWPOLYLINE
  5
111
100
AcDbEntity
  8
Layer_1
 62
7
100
AcDbPolyline
 90
7
 70
0
 10
265.955629
 20
116.605797
 30
0.0
 10
321.863719
 20
116.605797
 30
0.0
 10
321.860719
 20
152.309854
 30
0.0
 10
294.763675
 20
152.307854
 30
0.0
 10
294.764675
 20
156.881861
 30
0.0
 10
265.952629
 20
153.163855
 30
0.0
 10
265.955629
 20
116.605797
 30
0.0
  0
LWPOLYLINE
  5
112
100
AcDbEntity
  8
Layer_1
 62
7
100
AcDbPolyline
 90
7
 70
0
 10
387.212824
 20
203.200936
 30
0.0
 10
387.210824
 20
251.156013
 30
0.0
 10
360.894781
 20
251.157013
 30
0.0
 10
360.894781
 20
255.027019
 30
0.0
 10
331.541734
 20
251.991014
 30
0.0
 10
332.399736
 20
203.200936
 30
0.0
 10
387.212824
 20
203.200936
 30
0.0
  0
LWPOLYLINE
  5
113
100
AcDbEntity
  8
Layer_1
 62
7
100
AcDbPolyline
 90
9
 70
0
 10
449.516924
 20
174.776890
 30
0.0
 10
442.413912
 20
174.776890
 30
0.0
 10
442.412912
 20
196.590925
 30
0.0
 10
400.916846
 20
196.591925
 30
0.0
 10
400.919846
 20
117.837799
 30
0.0
 10
453.704931
 20
117.837799
 30
0.0
 10
453.705931
 20
151.008852
 30
0.0
 10
449.521924
 20
151.008852
 30
0.0
 10
449.516924
 20
174.776890
 30
0.0
  0
LWPOLYLINE
  5
114
100
AcDbEntity
  8
Layer_1
 62
7
100
AcDbPolyline
 90
7
 70
0
 10
323.559721
 20
104.005776
 30
0.0
 10
264.797627
 20
95.910763
 30
0.0
 10
264.800627
 20
78.501735
 30
0.0
 10
289.498667
 20
78.505735
 30
0.0
 10
289.501667
 20
72.279725
 30
0.0
 10
323.561721
 20
72.279725
 30
0.0
 10
323.559721
 20
104.005776
 30
0.0
  0
LWPOLYLINE
  5
115
100
AcDbEntity
  8
Layer_1
 62
7
100
AcDbPolyline
 90
5
 70
0
 10
476.520967
 20
22.726646
 30
0.0
 10
465.522950
 20
22.726646
 30
0.0
 10
457.396937
 20
98.608768
 30
0.0
 10
476.517967
 20
98.609768
 30
0.0
 10
476.520967
 20
22.726646
 30
0.0
  0
LWPOLYLINE
  5
116
100
AcDbEntity
  8
Layer_1
 62
7
100
AcDbPolyline
 90
7
 70
0
 10
265.963629
 20
21.335643
 30
0.0
 10
321.871719
 20
21.335643
 30
0.0
 10
321.868719
 20
57.040701
 30
0.0
 10
294.771675
 20
57.038701
 30
0.0
 10
294.771675
 20
61.612708
 30
0.0
 10
265.960629
 20
57.894702
 30
0.0
 10
265.963629
 20
21.335643
 30
0.0
  0
LWPOLYLINE
  5
117
100
AcDbEntity
  8
Layer_1
 62
7
100
AcDbPolyline
 90
7
 70
0
 10
387.219824
 20
140.973836
 30
0.0
 10
387.218824
 20
188.928913
 30
0.0
 10
360.901781
 20
188.929913
 30
0.0
 10
360.901781
 20
192.800919
 30
0.0
 10
331.548734
 20
189.763914
 30
0.0
 10
332.406736
 20
140.973836
 30
0.0
 10
387.219824
 20
140.973836
 30
0.0
  0
LWPOLYLINE
  5
118
100
AcDbEntity
  8
Layer_1
 62
7
100
AcDbPolyline
 90
9
 70
0
 10
449.524924
 20
79.507737
 30
0.0
 10
442.420912
 20
79.507737
 30
0.0
 10
442.420912
 20
101.321772
 30
0.0
 10
400.924846
 20
101.322772
 30
0.0
 10
400.926846
 20
22.567645
 30
0.0
 10
453.711931
 20
22.567645
 30
0.0
 10
453.713931
 20
55.739699
 30
0.0
 10
449.528924
 20
55.738699
 30
0.0
 10
449.524924
 20
79.507737
 30
0.0
  0
LWPOLYLINE
  5
119
100
AcDbEntity
  8
Layer_1
 62
7
100
AcDbPolyline
 90
9
 70
0
 10
383.149817
 20
82.272741
 30
0.0
 10
376.045806
 20
82.272741
 30
0.0
 10
376.045806
 20
104.086776
 30
0.0
 10
334.548739
 20
104.087776
 30
0.0
 10
334.551739
 20
25.332650
 30
0.0
 10
387.336824
 20
25.332650
 30
0.0
 10
387.338824
 20
58.504703
 30
0.0
 10
383.153817
 20
58.503703
 30
0.0
 10
383.149817
 20
82.272741
 30
0.0
  0
LWPOLYLINE
  5
11a
100
AcDbEntity
  8
Layer_1
 62
7
100
AcDbPolyline
 90
5
 70
0
 10
486.521983
 20
197.107926
 30
0.0
 10
536.414064
 20
197.107926
 30
0.0
 10
536.414064
 20
390.042066
 30
0.0
 10
486.521983
 20
390.042066
 30
0.0
 10
486.521983
 20
197.107926
 30
0.0
  0
LWPOLYLINE
  5
11b
100
AcDbEntity
  8
Layer_1
 62
7
100
AcDbPolyline
 90
5
 70
0
 10
545.144078
 20
195.976924
 30
0.0
 10
595.036158
 20
195.976924
 30
0.0
 10
595.036158
 20
388.911414
 30
0.0
 10
545.144078
 20
388.911414
 30
0.0
 10
545.144078
 20
195.976924
 30
0.0
  0
LWPOLYLINE
  5
11c
100
AcDbEntity
  8
Layer_1
 62
7
100
AcDbPolyline
 90
5
 70
0
 10
487.897986
 20
131.886821
 30
0.0
 10
486.100983
 20
79.019736
 30
0.0
 10
581.610136
 20
78.523735
 30
0.0
 10
581.610136
 20
131.886821
 30
0.0
 10
487.897986
 20
131.886821
 30
0.0
  0
LWPOLYLINE
  5
11d
100
AcDbEntity
  8
Layer_1
 62
7
100
AcDbPolyline
 90
5
 70
0
 10
487.897986
 20
71.788724
 30
0.0
 10
486.100983
 20
18.921639
 30
0.0
 10
581.610136
 20
18.424639
 30
0.0
 10
581.610136
 20
71.788724
 30
0.0
 10
487.897986
 20
71.788724
 30
0.0
  0
ENDSEC
  0
SECTION
  2
OBJECTS
  0
DICTIONARY
  5
C
330
0
100
AcDbDictionary
  3
ACAD_GROUP
350
D
  3
ACAD_MLINESTYLE
350
17
  0
DICTIONARY
  5
D
330
C
100
AcDbDictionary
  0
DICTIONARY
  5
1A
330
C
100
AcDbDictionary
  0
DICTIONARY
  5
17
330
C
100
AcDbDictionary
  3
STANDARD
350
18
  0
DICTIONARY
  5
19
330
C
100
AcDbDictionary
  0
ENDSEC
  0
EOF
