  0
SECTION
  2
HEADER
  9
$ACADVER
  1
AC1014
  9
$HANDSEED
  5
FFFF
  9
$MEASUREMENT
 70
     1
  0
ENDSEC
  0
SECTION
  2
TABLES
  0
TABLE
  2
VPORT
  5
8
330
0
100
AcDbSymbolTable
 70
     4
  0
VPORT
  5
2E
330
8
100
AcDbSymbolTableRecord
100
AcDbViewportTableRecord
  2
*ACTIVE
 70
     0
 10
0.0
 20
0.0
 11
1.0
 21
1.0
 12
210.0
 22
148.5
 13
0.0
 23
0.0
 14
10.0
 24
10.0
 15
10.0
 25
10.0
 16
0.0
 26
0.0
 36
1.0
 17
0.0
 27
0.0
 37
0.0
 40
341.0
 41
1.24
 42
50.0
 43
0.0
 44
0.0
 50
0.0
 51
0.0
 71
     0
 72
   100
 73
     1
 74
     3
 75
     0
 76
     0
 77
     0
 78
     0
  0
ENDTAB
  0
TABLE
  2
LTYPE
  5
5
330
0
100
AcDbSymbolTable
 70
     1
  0
LTYPE
  5
14
330
5
100
AcDbSymbolTableRecord
100
AcDbLinetypeTableRecord
  2
BYBLOCK
 70
     0
  3

 72
    65
 73
     0
 40
0.0
  0
LTYPE
  5
15
330
5
100
AcDbSymbolTableRecord
100
AcDbLinetypeTableRecord
  2
BYLAYER
 70
     0
  3

 72
    65
 73
     0
 40
0.0
  0
LTYPE
  5
16
330
5
100
AcDbSymbolTableRecord
100
AcDbLinetypeTableRecord
  2
CONTINUOUS
 70
     0
  3
Solid line
 72
    65
 73
     0
 40
0.0
  0
ENDTAB
  0
TABLE
  2
LAYER
  5
2
100
AcDbSymbolTable
 70
2
  0
LAYER
  5
50
100
AcDbSymbolTableRecord
100
AcDbLayerTableRecord
  2
0
 70
0
  6
CONTINUOUS
  0
LAYER
  5
51
100
AcDbSymbolTableRecord
100
AcDbLayerTableRecord
  2
Layer_1
 70
0
  6
CONTINUOUS
  0
ENDTAB
  0
TABLE
  2
STYLE
  5
3
330
0
100
AcDbSymbolTable
 70
     1
  0
STYLE
  5
11
330
3
100
AcDbSymbolTableRecord
100
AcDbTextStyleTableRecord
  2
STANDARD
 70
     0
 40
0.0
 41
1.0
 50
0.0
 71
     0
 42
2.5
  3
txt
  4

  0
ENDTAB
  0
TABLE
  2
VIEW
  5
6
330
0
100
AcDbSymbolTable
 70
     0
  0
ENDTAB
  0
TABLE
  2
UCS
  5
7
330
0
100
AcDbSymbolTable
 70
     0
  0
ENDTAB
  0
TABLE
  2
APPID
  5
9
330
0
100
AcDbSymbolTable
 70
     2
  0
APPID
  5
12
330
9
100
AcDbSymbolTableRecord
100
AcDbRegAppTableRecord
  2
ACAD
 70
     0
  0
ENDTAB
  0
TABLE
  2
DIMSTYLE
  5
A
330
0
100
AcDbSymbolTable
 70
     1
  0
DIMSTYLE
105
27
330
A
100
AcDbSymbolTableRecord
100
AcDbDimStyleTableRecord
  2
ISO-25
 70
     0
  3

  4

  5

  6

  7

 40
1.0
 41
2.5
 42
0.625
 43
3.75
 44
1.25
 45
0.0
 46
0.0
 47
0.0
 48
0.0
140
2.5
141
2.5
142
0.0
143
0.03937007874016
144
1.0
145
0.0
146
1.0
147
0.625
 71
     0
 72
     0
 73
     0
 74
     0
 75
     0
 76
     0
 77
     1
 78
     8
170
     0
171
     3
172
     1
173
     0
174
     0
175
     0
176
     0
177
     0
178
     0
270
     2
271
     2
272
     2
273
     2
274
     3
340
11
275
     0
280
     0
281
     0
282
     0
283
     0
284
     8
285
     0
286
     0
287
     3
288
     0
  0
ENDTAB
  0
TABLE
  2
BLOCK_RECORD
  5
1
330
0
100
AcDbSymbolTable
 70
     1
  0
BLOCK_RECORD
  5
1F
330
1
100
AcDbSymbolTableRecord
100
AcDbBlockTableRecord
  2
*MODEL_SPACE
  0
BLOCK_RECORD
  5
1B
330
1
100
AcDbSymbolTableRecord
100
AcDbBlockTableRecord
  2
*PAPER_SPACE
  0
ENDTAB
  0
ENDSEC
  0
SECTION
  2
BLOCKS
  0
BLOCK
  5
20
330
1F
100
AcDbEntity
  8
0
100
AcDbBlockBegin
  2
*MODEL_SPACE
 70
     0
 10
0.0
 20
0.0
 30
0.0
  3
*MODEL_SPACE
  1

  0
ENDBLK
  5
21
330
1F
100
AcDbEntity
  8
0
100
AcDbBlockEnd
  0
BLOCK
  5
1C
330
1B
100
AcDbEntity
 67
     1
  8
0
100
AcDbBlockBegin
  2
*PAPER_SPACE
  1

  0
ENDBLK
  5
1D
330
1B
100
AcDbEntity
 67
     1
  8
0
100
AcDbBlockEnd
  0
ENDSEC
  0
SECTION
  2
ENTITIES
  0
LWPOLYLINE
  5
100
100
AcDbEntity
  8
Layer_1
 62
7
100
AcDbPolyline
 90
5
 70
0
 10
428.928892
 20
343.469961
 30
0.0
 10
428.928892
 20
393.362241
 30
0.0
 10
235.994582
 20
393.362241
 30
0.0
 10
235.994582
 20
343.469961
 30
0.0
 10
428.928892
 20
343.469961
 30
0.0
  0
LWPOLYLINE
  5
101
100
AcDbEntity
  8
Layer_1
 62
7
100
AcDbPolyline
 90
5
 70
0
 10
428.928892
 20
288.578073
 30
0.0
 10
428.928892
 20
338.469953
 30
0.0
 10
235.994582
 20
338.469953
 30
0.0
 10
235.994582
 20
288.578073
 30
0.0
 10
428.928892
 20
288.578073
 30
0.0
  0
LWPOLYLINE
  5
102
100
AcDbEntity
  8
Layer_1
 62
7
100
AcDbPolyline
 90
5
 70
0
 10
428.928892
 20
233.684985
 30
0.0
 10
428.928892
 20
283.578065
 30
0.0
 10
235.994582
 20
283.578065
 30
0.0
 10
235.994582
 20
233.684985
 30
0.0
 10
428.928892
 20
233.684985
 30
0.0
  0
LWPOLYLINE
  5
103
100
AcDbEntity
  8
Layer_1
 62
7
100
AcDbPolyline
 90
5
 70
0
 10
-0.038298
 20
398.362250
 30
0.0
 10
599.962167
 20
398.362250
 30
0.0
 10
599.962167
 20
-1.638394
 30
0.0
 10
-0.038298
 20
-1.638394
 30
0.0
 10
-0.038298
 20
398.362250
 30
0.0
  0
LWPOLYLINE
  5
104
100
AcDbEntity
  8
Layer_1
 62
7
100
AcDbPolyline
 90
7
 70
0
 10
71.988018
 20
387.490332
 30
0.0
 10
13.226724
 20
379.395819
 30
0.0
 10
13.228924
 20
361.986291
 30
0.0
 10
37.927763
 20
361.990891
 30
0.0
 10
37.930163
 20
355.764181
 30
0.0
 10
71.990618
 20
355.764181
 30
0.0
 10
71.988018
 20
387.490332
 30
0.0
  0
LWPOLYLINE
  5
105
100
AcDbEntity
  8
Layer_1
 62
7
100
AcDbPolyline
 90
5
 70
0
 10
230.995574
 20
306.211101
 30
0.0
 10
219.997556
 20
306.211601
 30
0.0
 10
211.871543
 20
382.093323
 30
0.0
 10
230.993574
 20
382.094723
 30
0.0
 10
230.995574
 20
306.211101
 30
0.0
  0
LWPOLYLINE
  5
106
100
AcDbEntity
  8
Layer_1
 62
7
100
AcDbPolyline
 90
7
 70
0
 10
14.392326
 20
304.820799
 30
0.0
 10
70.300115
 20
304.820799
 30
0.0
 10
70.297315
 20
340.525257
 30
0.0
 10
43.200272
 20
340.523157
 30
0.0
 10
43.200672
 20
345.097464
 30
0.0
 10
14.389226
 20
341.379258
 30
0.0
 10
14.392326
 20
304.820799
 30
0.0
  0
LWPOLYLINE
  5
107
100
AcDbEntity
  8
Layer_1
 62
7
100
AcDbPolyline
 90
7
 70
0
 10
135.648421
 20
332.676044
 30
0.0
 10
135.647421
 20
380.630921
 30
0.0
 10
109.330378
 20
380.632021
 30
0.0
 10
109.330378
 20
384.502627
 30
0.0
 10
79.977631
 20
381.466022
 30
0.0
 10
80.835932
 20
332.676044
 30
0.0
 10
135.648421
 20
332.676044
 30
0.0
  0
LWPOLYLINE
  5
108
100
AcDbEntity
  8
Layer_1
 62
7
100
AcDbPolyline
 90
9
 70
0
 10
197.953521
 20
362.992293
 30
0.0
 10
190.850509
 20
362.992293
 30
0.0
 10
190.849509
 20
384.806328
 30
0.0
 10
149.353443
 20
384.807228
 30
0.0
 10
149.356443
 20
306.052701
 30
0.0
 10
202.140527
 20
306.052701
 30
0.0
 10
202.142527
 20
339.224454
 30
0.0
 10
197.957521
 20
339.223554
 30
0.0
 10
197.953521
 20
362.992293
 30
0.0
  0
LWPOLYLINE
  5
109
100
AcDbEntity
  8
Layer_1
 62
7
100
AcDbPolyline
 90
7
 70
0
 10
71.995818
 20
290.728076
 30
0.0
 10
13.234524
 20
282.634063
 30
0.0
 10
13.236724
 20
265.224035
 30
0.0
 10
37.935563
 20
265.229035
 30
0.0
 10
37.937963
 20
259.002025
 30
0.0
 10
71.998418
 20
259.002025
 30
0.0
 10
71.995818
 20
290.728076
 30
0.0
  0
LWPOLYLINE
  5
10a
100
AcDbEntity
  8
Layer_1
 62
7
100
AcDbPolyline
 90
5
 70
0
 10
231.003574
 20
209.448946
 30
0.0
 10
220.005556
 20
209.449946
 30
0.0
 10
211.879543
 20
285.331068
 30
0.0
 10
231.000574
 20
285.333068
 30
0.0
 10
231.003574
 20
209.448946
 30
0.0
  0
LWPOLYLINE
  5
10b
100
AcDbEntity
  8
Layer_1
 62
7
100
AcDbPolyline
 90
7
 70
0
 10
14.400126
 20
208.058944
 30
0.0
 10
70.307916
 20
208.058944
 30
0.0
 10
70.305215
 20
243.763001
 30
0.0
 10
43.208072
 20
243.761001
 30
0.0
 10
43.208472
 20
248.336008
 30
0.0
 10
14.397026
 20
244.617002
 30
0.0
 10
14.400126
 20
208.058944
 30
0.0
  0
LWPOLYLINE
  5
10c
100
AcDbEntity
  8
Layer_1
 62
7
100
AcDbPolyline
 90
7
 70
0
 10
135.656421
 20
269.879043
 30
0.0
 10
135.654421
 20
317.833620
 30
0.0
 10
109.338378
 20
317.834720
 30
0.0
 10
109.338378
 20
321.705326
 30
0.0
 10
79.985531
 20
318.668721
 30
0.0
 10
80.843732
 20
269.879043
 30
0.0
 10
135.656421
 20
269.879043
 30
0.0
  0
LWPOLYLINE
  5
10d
100
AcDbEntity
  8
Layer_1
 62
7
100
AcDbPolyline
 90
9
 70
0
 10
197.961521
 20
266.230037
 30
0.0
 10
190.857509
 20
266.230037
 30
0.0
 10
190.857509
 20
288.044072
 30
0.0
 10
149.361443
 20
288.045072
 30
0.0
 10
149.363443
 20
209.290946
 30
0.0
 10
202.148527
 20
209.290946
 30
0.0
 10
202.150527
 20
242.462999
 30
0.0
 10
197.965521
 20
242.461999
 30
0.0
 10
197.961521
 20
266.230037
 30
0.0
  0
LWPOLYLINE
  5
10e
100
AcDbEntity
  8
Layer_1
 62
7
100
AcDbPolyline
 90
7
 70
0
 10
72.003518
 20
195.241923
 30
0.0
 10
13.242224
 20
187.146910
 30
0.0
 10
13.244424
 20
169.737882
 30
0.0
 10
37.943263
 20
169.741882
 30
0.0
 10
37.945663
 20
163.514872
 30
0.0
 10
72.006118
 20
163.514872
 30
0.0
 10
72.003518
 20
195.241923
 30
0.0
  0
LWPOLYLINE
  5
10f
100
AcDbEntity
  8
Layer_1
 62
7
100
AcDbPolyline
 90
5
 70
0
 10
231.011574
 20
113.961792
 30
0.0
 10
220.013556
 20
113.962792
 30
0.0
 10
211.887543
 20
189.844914
 30
0.0
 10
231.008574
 20
189.845914
 30
0.0
 10
231.011574
 20
113.961792
 30
0.0
  0
LWPOLYLINE
  5
110
100
AcDbEntity
  8
Layer_1
 62
7
100
AcDbPolyline
 90
7
 70
0
 10
14.407926
 20
112.571790
 30
0.0
 10
70.315616
 20
112.571790
 30
0.0
 10
70.312916
 20
148.276847
 30
0.0
 10
43.215772
 20
148.274847
 30
0.0
 10
43.216272
 20
152.848855
 30
0.0
 10
14.404726
 20
149.130849
 30
0.0
 10
14.407926
 20
112.571790
 30
0.0
  0
LWPOLYLINE
  5
111
100
AcDbEntity
  8
Layer_1
 62
7
100
AcDbPolyline
 90
7
 70
0
 10
135.664421
 20
207.846943
 30
0.0
 10
135.662421
 20
255.802020
 30
0.0
 10
109.346378
 20
255.803020
 30
0.0
 10
109.346378
 20
259.674027
 30
0.0
 10
79.993231
 20
256.637022
 30
0.0
 10
80.851432
 20
207.846943
 30
0.0
 10
135.664421
 20
207.846943
 30
0.0
  0
LWPOLYLINE
  5
112
100
AcDbEntity
  8
Layer_1
 62
7
100
AcDbPolyline
 90
9
 70
0
 10
197.969521
 20
170.743884
 30
0.0
 10
190.865509
 20
170.743884
 30
0.0
 10
190.865509
 20
192.557919
 30
0.0
 10
149.368443
 20
192.557919
 30
0.0
 10
149.371443
 20
113.803792
 30
0.0
 10
202.156527
 20
113.803792
 30
0.0
 10
202.158527
 20
146.975845
 30
0.0
 10
197.973521
 20
146.974845
 30
0.0
 10
197.969521
 20
170.743884
 30
0.0
  0
LWPOLYLINE
  5
113
100
AcDbEntity
  8
Layer_1
 62
7
100
AcDbPolyline
 90
5
 70
0
 10
428.928892
 20
178.792897
 30
0.0
 10
428.928892
 20
228.684977
 30
0.0
 10
235.994582
 20
228.684977
 30
0.0
 10
235.994582
 20
178.792897
 30
0.0
 10
428.928892
 20
178.792897
 30
0.0
  0
LWPOLYLINE
  5
114
100
AcDbEntity
  8
Layer_1
 62
7
100
AcDbPolyline
 90
5
 70
0
 10
428.928892
 20
123.900808
 30
0.0
 10
428.928892
 20
173.792888
 30
0.0
 10
235.994582
 20
173.792888
 30
0.0
 10
235.994582
 20
123.900808
 30
0.0
 10
428.928892
 20
123.900808
 30
0.0
  0
LWPOLYLINE
  5
115
100
AcDbEntity
  8
Layer_1
 62
7
100
AcDbPolyline
 90
5
 70
0
 10
428.928892
 20
69.008720
 30
0.0
 10
428.928892
 20
118.900800
 30
0.0
 10
235.994582
 20
118.900800
 30
0.0
 10
235.994582
 20
69.008720
 30
0.0
 10
428.928892
 20
69.008720
 30
0.0
  0
LWPOLYLINE
  5
116
100
AcDbEntity
  8
Layer_1
 62
7
100
AcDbPolyline
 90
5
 70
0
 10
428.928892
 20
14.116632
 30
0.0
 10
428.928892
 20
64.008712
 30
0.0
 10
235.994582
 20
64.008712
 30
0.0
 10
235.994582
 20
14.116632
 30
0.0
 10
428.928892
 20
14.116632
 30
0.0
  0
LWPOLYLINE
  5
117
100
AcDbEntity
  8
Layer_1
 62
7
100
AcDbPolyline
 90
5
 70
0
 10
434.928902
 20
391.164618
 30
0.0
 10
433.131899
 20
338.297553
 30
0.0
 10
528.641052
 20
337.800952
 30
0.0
 10
528.641052
 20
391.164618
 30
0.0
 10
434.928902
 20
391.164618
 30
0.0
  0
LWPOLYLINE
  5
118
100
AcDbEntity
  8
Layer_1
 62
7
100
AcDbPolyline
 90
5
 70
0
 10
434.928902
 20
332.692544
 30
0.0
 10
433.131899
 20
279.825059
 30
0.0
 10
528.641052
 20
279.329058
 30
0.0
 10
528.641052
 20
332.692544
 30
0.0
 10
434.928902
 20
332.692544
 30
0.0
  0
LWPOLYLINE
  5
119
100
AcDbEntity
  8
Layer_1
 62
7
100
AcDbPolyline
 90
5
 70
0
 10
434.928902
 20
272.594047
 30
0.0
 10
433.131899
 20
219.726962
 30
0.0
 10
528.641052
 20
219.229962
 30
0.0
 10
528.641052
 20
272.594047
 30
0.0
 10
434.928902
 20
272.594047
 30
0.0
  0
LWPOLYLINE
  5
11a
100
AcDbEntity
  8
Layer_1
 62
7
100
AcDbPolyline
 90
5
 70
0
 10
434.928902
 20
207.997943
 30
0.0
 10
433.131899
 20
155.130858
 30
0.0
 10
528.641052
 20
154.633858
 30
0.0
 10
528.641052
 20
207.997943
 30
0.0
 10
434.928902
 20
207.997943
 30
0.0
  0
LWPOLYLINE
  5
11b
100
AcDbEntity
  8
Layer_1
 62
7
100
AcDbPolyline
 90
5
 70
0
 10
434.928902
 20
149.525849
 30
0.0
 10
433.131899
 20
96.658764
 30
0.0
 10
528.641052
 20
96.161764
 30
0.0
 10
528.641052
 20
149.525849
 30
0.0
 10
434.928902
 20
149.525849
 30
0.0
  0
LWPOLYLINE
  5
11c
100
AcDbEntity
  8
Layer_1
 62
7
100
AcDbPolyline
 90
5
 70
0
 10
434.928902
 20
89.426753
 30
0.0
 10
433.131899
 20
36.559668
 30
0.0
 10
528.641052
 20
36.062667
 30
0.0
 10
528.641052
 20
89.426753
 30
0.0
 10
434.928902
 20
89.426753
 30
0.0
  0
LWPOLYLINE
  5
11d
100
AcDbEntity
  8
Layer_1
 62
7
100
AcDbPolyline
 90
5
 70
0
 10
83.370937
 20
106.487780
 30
0.0
 10
136.238422
 20
104.690777
 30
0.0
 10
136.734422
 20
200.199931
 30
0.0
 10
83.370937
 20
200.199931
 30
0.0
 10
83.370937
 20
106.487780
 30
0.0
  0
LWPOLYLINE
  5
11e
100
AcDbEntity
  8
Layer_1
 62
7
100
AcDbPolyline
 90
5
 70
0
 10
11.542321
 20
97.840766
 30
0.0
 10
9.745698
 20
44.973681
 30
0.0
 10
105.254372
 20
44.477681
 30
0.0
 10
105.254372
 20
97.840766
 30
0.0
 10
11.542321
 20
97.840766
 30
0.0
  0
LWPOLYLINE
  5
11f
100
AcDbEntity
  8
Layer_1
 62
7
100
AcDbPolyline
 90
5
 70
0
 10
125.847405
 20
97.840766
 30
0.0
 10
124.051402
 20
44.973681
 30
0.0
 10
219.559555
 20
44.477681
 30
0.0
 10
219.559555
 20
97.840766
 30
0.0
 10
125.847405
 20
97.840766
 30
0.0
  0
LWPOLYLINE
  5
120
100
AcDbEntity
  8
Layer_1
 62
7
100
AcDbPolyline
 90
5
 70
0
 10
533.641060
 20
297.452087
 30
0.0
 10
586.508145
 20
295.656084
 30
0.0
 10
587.004146
 20
391.164618
 30
0.0
 10
533.641060
 20
391.164618
 30
0.0
 10
533.641060
 20
297.452087
 30
0.0
  0
LWPOLYLINE
  5
121
100
AcDbEntity
  8
Layer_1
 62
7
100
AcDbPolyline
 90
5
 70
0
 10
533.080060
 20
189.638914
 30
0.0
 10
585.947145
 20
187.841911
 30
0.0
 10
586.444145
 20
283.351065
 30
0.0
 10
533.080060
 20
283.351065
 30
0.0
 10
533.080060
 20
189.638914
 30
0.0
  0
LWPOLYLINE
  5
122
100
AcDbEntity
  8
Layer_1
 62
7
100
AcDbPolyline
 90
5
 70
0
 10
532.532059
 20
84.231744
 30
0.0
 10
585.399144
 20
82.434742
 30
0.0
 10
585.896144
 20
177.943895
 30
0.0
 10
532.532059
 20
177.943895
 30
0.0
 10
532.532059
 20
84.231744
 30
0.0
  0
ENDSEC
  0
SECTION
  2
OBJECTS
  0
DICTIONARY
  5
C
330
0
100
AcDbDictionary
  3
ACAD_GROUP
350
D
  3
ACAD_MLINESTYLE
350
17
  0
DICTIONARY
  5
D
330
C
100
AcDbDictionary
  0
DICTIONARY
  5
1A
330
C
100
AcDbDictionary
  0
DICTIONARY
  5
17
330
C
100
AcDbDictionary
  3
STANDARD
350
18
  0
DICTIONARY
  5
19
330
C
100
AcDbDictionary
  0
ENDSEC
  0
EOF
