  0
SECTION
  2
HEADER
  9
$ACADVER
  1
AC1014
  9
$HANDSEED
  5
FFFF
  9
$MEASUREMENT
 70
     1
  0
ENDSEC
  0
SECTION
  2
TABLES
  0
TABLE
  2
VPORT
  5
8
330
0
100
AcDbSymbolTable
 70
     4
  0
VPORT
  5
2E
330
8
100
AcDbSymbolTableRecord
100
AcDbViewportTableRecord
  2
*ACTIVE
 70
     0
 10
0.0
 20
0.0
 11
1.0
 21
1.0
 12
210.0
 22
148.5
 13
0.0
 23
0.0
 14
10.0
 24
10.0
 15
10.0
 25
10.0
 16
0.0
 26
0.0
 36
1.0
 17
0.0
 27
0.0
 37
0.0
 40
341.0
 41
1.24
 42
50.0
 43
0.0
 44
0.0
 50
0.0
 51
0.0
 71
     0
 72
   100
 73
     1
 74
     3
 75
     0
 76
     0
 77
     0
 78
     0
  0
ENDTAB
  0
TABLE
  2
LTYPE
  5
5
330
0
100
AcDbSymbolTable
 70
     1
  0
LTYPE
  5
14
330
5
100
AcDbSymbolTableRecord
100
AcDbLinetypeTableRecord
  2
BYBLOCK
 70
     0
  3

 72
    65
 73
     0
 40
0.0
  0
LTYPE
  5
15
330
5
100
AcDbSymbolTableRecord
100
AcDbLinetypeTableRecord
  2
BYLAYER
 70
     0
  3

 72
    65
 73
     0
 40
0.0
  0
LTYPE
  5
16
330
5
100
AcDbSymbolTableRecord
100
AcDbLinetypeTableRecord
  2
CONTINUOUS
 70
     0
  3
Solid line
 72
    65
 73
     0
 40
0.0
  0
ENDTAB
  0
TABLE
  2
LAYER
  5
2
100
AcDbSymbolTable
 70
2
  0
LAYER
  5
50
100
AcDbSymbolTableRecord
100
AcDbLayerTableRecord
  2
0
 70
0
  6
CONTINUOUS
  0
LAYER
  5
51
100
AcDbSymbolTableRecord
100
AcDbLayerTableRecord
  2
Layer_1
 70
0
  6
CONTINUOUS
  0
ENDTAB
  0
TABLE
  2
STYLE
  5
3
330
0
100
AcDbSymbolTable
 70
     1
  0
STYLE
  5
11
330
3
100
AcDbSymbolTableRecord
100
AcDbTextStyleTableRecord
  2
STANDARD
 70
     0
 40
0.0
 41
1.0
 50
0.0
 71
     0
 42
2.5
  3
txt
  4

  0
ENDTAB
  0
TABLE
  2
VIEW
  5
6
330
0
100
AcDbSymbolTable
 70
     0
  0
ENDTAB
  0
TABLE
  2
UCS
  5
7
330
0
100
AcDbSymbolTable
 70
     0
  0
ENDTAB
  0
TABLE
  2
APPID
  5
9
330
0
100
AcDbSymbolTable
 70
     2
  0
APPID
  5
12
330
9
100
AcDbSymbolTableRecord
100
AcDbRegAppTableRecord
  2
ACAD
 70
     0
  0
ENDTAB
  0
TABLE
  2
DIMSTYLE
  5
A
330
0
100
AcDbSymbolTable
 70
     1
  0
DIMSTYLE
105
27
330
A
100
AcDbSymbolTableRecord
100
AcDbDimStyleTableRecord
  2
ISO-25
 70
     0
  3

  4

  5

  6

  7

 40
1.0
 41
2.5
 42
0.625
 43
3.75
 44
1.25
 45
0.0
 46
0.0
 47
0.0
 48
0.0
140
2.5
141
2.5
142
0.0
143
0.03937007874016
144
1.0
145
0.0
146
1.0
147
0.625
 71
     0
 72
     0
 73
     0
 74
     0
 75
     0
 76
     0
 77
     1
 78
     8
170
     0
171
     3
172
     1
173
     0
174
     0
175
     0
176
     0
177
     0
178
     0
270
     2
271
     2
272
     2
273
     2
274
     3
340
11
275
     0
280
     0
281
     0
282
     0
283
     0
284
     8
285
     0
286
     0
287
     3
288
     0
  0
ENDTAB
  0
TABLE
  2
BLOCK_RECORD
  5
1
330
0
100
AcDbSymbolTable
 70
     1
  0
BLOCK_RECORD
  5
1F
330
1
100
AcDbSymbolTableRecord
100
AcDbBlockTableRecord
  2
*MODEL_SPACE
  0
BLOCK_RECORD
  5
1B
330
1
100
AcDbSymbolTableRecord
100
AcDbBlockTableRecord
  2
*PAPER_SPACE
  0
ENDTAB
  0
ENDSEC
  0
SECTION
  2
BLOCKS
  0
BLOCK
  5
20
330
1F
100
AcDbEntity
  8
0
100
AcDbBlockBegin
  2
*MODEL_SPACE
 70
     0
 10
0.0
 20
0.0
 30
0.0
  3
*MODEL_SPACE
  1

  0
ENDBLK
  5
21
330
1F
100
AcDbEntity
  8
0
100
AcDbBlockEnd
  0
BLOCK
  5
1C
330
1B
100
AcDbEntity
 67
     1
  8
0
100
AcDbBlockBegin
  2
*PAPER_SPACE
  1

  0
ENDBLK
  5
1D
330
1B
100
AcDbEntity
 67
     1
  8
0
100
AcDbBlockEnd
  0
ENDSEC
  0
SECTION
  2
ENTITIES
  0
LWPOLYLINE
  5
100
100
AcDbEntity
  8
Layer_1
 62
7
100
AcDbPolyline
 90
5
 70
0
 10
77.235939
 20
303.474791
 30
0.0
 10
1.735818
 20
303.474791
 30
0.0
 10
1.735818
 20
392.491454
 30
0.0
 10
77.235939
 20
384.556122
 30
0.0
 10
77.235939
 20
345.974860
 30
0.0
  0
LWPOLYLINE
  5
101
100
AcDbEntity
  8
Layer_1
 62
7
100
AcDbPolyline
 90
5
 70
0
 10
6.735826
 20
381.349916
 30
0.0
 10
6.735826
 20
367.974895
 30
0.0
 10
47.110891
 20
367.974895
 30
0.0
 10
47.110891
 20
381.349916
 30
0.0
 10
6.735826
 20
381.349916
 30
0.0
  0
LWPOLYLINE
  5
102
100
AcDbEntity
  8
Layer_1
 62
7
100
AcDbPolyline
 90
5
 70
0
 10
6.735826
 20
359.849882
 30
0.0
 10
6.735826
 20
346.474860
 30
0.0
 10
47.110891
 20
346.474860
 30
0.0
 10
47.110891
 20
359.849882
 30
0.0
 10
6.735826
 20
359.849882
 30
0.0
  0
LWPOLYLINE
  5
103
100
AcDbEntity
  8
Layer_1
 62
7
100
AcDbPolyline
 90
5
 70
0
 10
6.735826
 20
338.349847
 30
0.0
 10
6.735826
 20
330.849835
 30
0.0
 10
47.110891
 20
330.849835
 30
0.0
 10
47.110891
 20
338.349847
 30
0.0
 10
6.735826
 20
338.349847
 30
0.0
  0
LWPOLYLINE
  5
104
100
AcDbEntity
  8
Layer_1
 62
7
100
AcDbPolyline
 90
4
 70
0
 10
106.736487
 20
303.474791
 30
0.0
 10
106.736487
 20
337.499846
 30
0.0
 10
77.235939
 20
337.499846
 30
0.0
 10
77.235939
 20
303.474791
 30
0.0
  0
LWPOLYLINE
  5
105
100
AcDbEntity
  8
Layer_1
 62
7
100
AcDbPolyline
 90
8
 70
0
 10
77.235939
 20
345.974860
 30
0.0
 10
106.736487
 20
345.974860
 30
0.0
 10
106.736487
 20
394.974938
 30
0.0
 10
319.736829
 20
394.974938
 30
0.0
 10
319.736829
 20
341.974853
 30
0.0
 10
284.336772
 20
341.974853
 30
0.0
 10
284.336772
 20
303.474791
 30
0.0
 10
254.486724
 20
303.474791
 30
0.0
  0
LWPOLYLINE
  5
106
100
AcDbEntity
  8
Layer_1
 62
7
100
AcDbPolyline
 90
5
 70
0
 10
143.236545
 20
386.624925
 30
0.0
 10
143.236545
 20
371.724901
 30
0.0
 10
175.486597
 20
371.724901
 30
0.0
 10
175.486597
 20
386.624925
 30
0.0
 10
143.236545
 20
386.624925
 30
0.0
  0
LWPOLYLINE
  5
107
100
AcDbEntity
  8
Layer_1
 62
7
100
AcDbPolyline
 90
5
 70
0
 10
178.486602
 20
366.224892
 30
0.0
 10
178.486602
 20
350.224866
 30
0.0
 10
210.486654
 20
350.224866
 30
0.0
 10
210.486654
 20
366.224892
 30
0.0
 10
178.486602
 20
366.224892
 30
0.0
  0
LWPOLYLINE
  5
108
100
AcDbEntity
  8
Layer_1
 62
7
100
AcDbPolyline
 90
5
 70
0
 10
143.236545
 20
344.724858
 30
0.0
 10
143.236545
 20
327.724830
 30
0.0
 10
175.486597
 20
327.724830
 30
0.0
 10
175.486597
 20
344.724858
 30
0.0
 10
143.236545
 20
344.724858
 30
0.0
  0
LWPOLYLINE
  5
109
100
AcDbEntity
  8
Layer_1
 62
7
100
AcDbPolyline
 90
6
 70
0
 10
210.486654
 20
303.474791
 30
0.0
 10
210.486654
 20
320.724819
 30
0.0
 10
178.486602
 20
320.724819
 30
0.0
 10
178.486602
 20
306.224796
 30
0.0
 10
204.486644
 20
306.224796
 30
0.0
 10
204.486644
 20
303.474791
 30
0.0
  0
LWPOLYLINE
  5
10a
100
AcDbEntity
  8
Layer_1
 62
7
100
AcDbPolyline
 90
5
 70
0
 10
213.486658
 20
344.724858
 30
0.0
 10
231.236687
 20
344.724858
 30
0.0
 10
231.236687
 20
327.724830
 30
0.0
 10
213.486658
 20
327.724830
 30
0.0
 10
213.486658
 20
344.724858
 30
0.0
  0
LWPOLYLINE
  5
10b
100
AcDbEntity
  8
Layer_1
 62
7
100
AcDbPolyline
 90
5
 70
0
 10
232.766689
 20
344.724858
 30
0.0
 10
245.736710
 20
344.724858
 30
0.0
 10
245.736710
 20
327.724830
 30
0.0
 10
232.766689
 20
327.724830
 30
0.0
 10
232.766689
 20
344.724858
 30
0.0
  0
LWPOLYLINE
  5
10c
100
AcDbEntity
  8
Layer_1
 62
7
100
AcDbPolyline
 90
5
 70
0
 10
213.486658
 20
386.624925
 30
0.0
 10
245.486710
 20
386.624925
 30
0.0
 10
245.486710
 20
371.724901
 30
0.0
 10
213.486658
 20
371.724901
 30
0.0
 10
213.486658
 20
386.624925
 30
0.0
  0
LWPOLYLINE
  5
10d
100
AcDbEntity
  8
Layer_1
 62
7
100
AcDbPolyline
 90
5
 70
0
 10
248.486715
 20
366.224892
 30
0.0
 10
280.486766
 20
366.224892
 30
0.0
 10
280.486766
 20
350.224866
 30
0.0
 10
248.486715
 20
350.224866
 30
0.0
 10
248.486715
 20
366.224892
 30
0.0
  0
LWPOLYLINE
  5
10e
100
AcDbEntity
  8
Layer_1
 62
7
100
AcDbPolyline
 90
6
 70
0
 10
248.486715
 20
303.474791
 30
0.0
 10
248.486715
 20
320.724819
 30
0.0
 10
279.435764
 20
320.724819
 30
0.0
 10
279.435764
 20
306.224796
 30
0.0
 10
254.486724
 20
306.224796
 30
0.0
 10
254.486724
 20
303.474791
 30
0.0
  0
LWPOLYLINE
  5
10f
100
AcDbEntity
  8
Layer_1
 62
7
100
AcDbPolyline
 90
5
 70
0
 10
283.486771
 20
386.624925
 30
0.0
 10
315.736823
 20
386.624925
 30
0.0
 10
315.736823
 20
371.724901
 30
0.0
 10
283.486771
 20
371.724901
 30
0.0
 10
283.486771
 20
386.624925
 30
0.0
  0
LWPOLYLINE
  5
110
100
AcDbEntity
  8
Layer_1
 62
7
100
AcDbPolyline
 90
20
 70
0
 10
30.935865
 20
206.974636
 30
0.0
 10
1.735818
 20
206.974636
 30
0.0
 10
1.735818
 20
298.474783
 30
0.0
 10
4.485822
 20
298.474783
 30
0.0
 10
4.485822
 20
275.199746
 30
0.0
 10
36.735874
 20
275.224746
 30
0.0
 10
36.735874
 20
295.474778
 30
0.0
 10
74.735935
 20
295.474778
 30
0.0
 10
74.735935
 20
275.224746
 30
0.0
 10
106.736487
 20
275.224746
 30
0.0
 10
106.736487
 20
295.474778
 30
0.0
 10
144.735548
 20
295.474778
 30
0.0
 10
144.735548
 20
275.224746
 30
0.0
 10
180.986606
 20
275.199746
 30
0.0
 10
180.966606
 20
245.474698
 30
0.0
 10
145.586549
 20
245.498698
 30
0.0
 10
145.586549
 20
226.974668
 30
0.0
 10
109.735492
 20
226.974668
 30
0.0
 10
109.735492
 20
206.974636
 30
0.0
 10
106.985487
 20
206.974636
 30
0.0
  0
LWPOLYLINE
  5
111
100
AcDbEntity
  8
Layer_1
 62
7
100
AcDbPolyline
 90
5
 70
0
 10
141.736543
 20
272.474741
 30
0.0
 10
109.735492
 20
272.474741
 30
0.0
 10
109.735492
 20
253.724711
 30
0.0
 10
141.736543
 20
253.724711
 30
0.0
 10
141.736543
 20
272.474741
 30
0.0
  0
LWPOLYLINE
  5
112
100
AcDbEntity
  8
Layer_1
 62
7
100
AcDbPolyline
 90
5
 70
0
 10
74.735935
 20
250.974707
 30
0.0
 10
106.985487
 20
250.974707
 30
0.0
 10
106.985487
 20
231.224675
 30
0.0
 10
74.735935
 20
231.224675
 30
0.0
 10
74.735935
 20
250.974707
 30
0.0
  0
LWPOLYLINE
  5
113
100
AcDbEntity
  8
Layer_1
 62
7
100
AcDbPolyline
 90
5
 70
0
 10
71.735931
 20
272.474741
 30
0.0
 10
39.735879
 20
272.474741
 30
0.0
 10
39.735879
 20
253.724711
 30
0.0
 10
71.735931
 20
253.724711
 30
0.0
 10
71.735931
 20
272.474741
 30
0.0
  0
LWPOLYLINE
  5
114
100
AcDbEntity
  8
Layer_1
 62
7
100
AcDbPolyline
 90
5
 70
0
 10
4.485822
 20
250.974707
 30
0.0
 10
36.735874
 20
250.974707
 30
0.0
 10
36.735874
 20
231.224675
 30
0.0
 10
4.485822
 20
231.224675
 30
0.0
 10
4.485822
 20
250.974707
 30
0.0
  0
LWPOLYLINE
  5
115
100
AcDbEntity
  8
Layer_1
 62
7
100
AcDbPolyline
 90
5
 70
0
 10
4.485822
 20
269.724737
 30
0.0
 10
36.985875
 20
269.724737
 30
0.0
 10
36.985875
 20
253.724711
 30
0.0
 10
4.485822
 20
253.724711
 30
0.0
 10
4.485822
 20
269.724737
 30
0.0
  0
LWPOLYLINE
  5
116
100
AcDbEntity
  8
Layer_1
 62
7
100
AcDbPolyline
 90
6
 70
0
 10
30.935865
 20
206.974636
 30
0.0
 10
30.935865
 20
209.723640
 30
0.0
 10
4.485822
 20
209.723640
 30
0.0
 10
4.485822
 20
224.224664
 30
0.0
 10
36.935875
 20
224.224664
 30
0.0
 10
36.935875
 20
206.974636
 30
0.0
  0
LWPOLYLINE
  5
117
100
AcDbEntity
  8
Layer_1
 62
7
100
AcDbPolyline
 90
5
 70
0
 10
39.485879
 20
231.224675
 30
0.0
 10
71.985931
 20
231.224675
 30
0.0
 10
71.985931
 20
248.224702
 30
0.0
 10
39.485879
 20
248.224702
 30
0.0
 10
39.485879
 20
231.224675
 30
0.0
  0
LWPOLYLINE
  5
118
100
AcDbEntity
  8
Layer_1
 62
7
100
AcDbPolyline
 90
5
 70
0
 10
39.485879
 20
275.224746
 30
0.0
 10
71.985931
 20
275.224746
 30
0.0
 10
71.985931
 20
290.124770
 30
0.0
 10
39.485879
 20
290.124770
 30
0.0
 10
39.485879
 20
275.224746
 30
0.0
  0
LWPOLYLINE
  5
119
100
AcDbEntity
  8
Layer_1
 62
7
100
AcDbPolyline
 90
5
 70
0
 10
74.485935
 20
269.724737
 30
0.0
 10
106.985487
 20
269.724737
 30
0.0
 10
106.985487
 20
253.724711
 30
0.0
 10
74.485935
 20
253.724711
 30
0.0
 10
74.485935
 20
269.724737
 30
0.0
  0
LWPOLYLINE
  5
11a
100
AcDbEntity
  8
Layer_1
 62
7
100
AcDbPolyline
 90
6
 70
0
 10
100.985478
 20
206.974636
 30
0.0
 10
100.985478
 20
209.724640
 30
0.0
 10
74.485935
 20
209.724640
 30
0.0
 10
74.485935
 20
224.224664
 30
0.0
 10
106.985487
 20
224.224664
 30
0.0
 10
106.985487
 20
206.974636
 30
0.0
  0
LWPOLYLINE
  5
11b
100
AcDbEntity
  8
Layer_1
 62
7
100
AcDbPolyline
 90
5
 70
0
 10
109.735492
 20
231.224675
 30
0.0
 10
141.685543
 20
231.224675
 30
0.0
 10
141.685543
 20
248.224702
 30
0.0
 10
109.735492
 20
248.224702
 30
0.0
 10
109.735492
 20
231.224675
 30
0.0
  0
LWPOLYLINE
  5
11c
100
AcDbEntity
  8
Layer_1
 62
7
100
AcDbPolyline
 90
5
 70
0
 10
109.486491
 20
290.124770
 30
0.0
 10
141.985543
 20
290.124770
 30
0.0
 10
141.985543
 20
275.224746
 30
0.0
 10
109.486491
 20
275.224746
 30
0.0
 10
109.486491
 20
290.124770
 30
0.0
  0
LWPOLYLINE
  5
11d
100
AcDbEntity
  8
Layer_1
 62
7
100
AcDbPolyline
 90
5
 70
0
 10
144.486547
 20
269.724737
 30
0.0
 10
170.486589
 20
269.724737
 30
0.0
 10
170.486589
 20
253.724711
 30
0.0
 10
144.486547
 20
253.724711
 30
0.0
 10
144.486547
 20
269.724737
 30
0.0
  0
LWPOLYLINE
  5
11e
100
AcDbEntity
  8
Layer_1
 62
7
100
AcDbPolyline
 90
6
 70
0
 10
100.985478
 20
206.974636
 30
0.0
 10
71.735931
 20
206.974636
 30
0.0
 10
71.735931
 20
226.974668
 30
0.0
 10
39.735879
 20
226.974668
 30
0.0
 10
39.735879
 20
206.974636
 30
0.0
 10
36.935875
 20
206.974636
 30
0.0
  0
LWPOLYLINE
  5
11f
100
AcDbEntity
  8
Layer_1
 62
7
100
AcDbPolyline
 90
5
 70
0
 10
-3.264190
 20
399.974946
 30
0.0
 10
596.737275
 20
399.974946
 30
0.0
 10
596.737275
 20
-0.025697
 30
0.0
 10
-3.264190
 20
-0.025697
 30
0.0
 10
-3.264190
 20
399.974946
 30
0.0
  0
LWPOLYLINE
  5
120
100
AcDbEntity
  8
Layer_1
 62
7
100
AcDbPolyline
 90
20
 70
0
 10
30.935865
 20
110.474481
 30
0.0
 10
1.735818
 20
110.474481
 30
0.0
 10
1.735818
 20
201.974628
 30
0.0
 10
4.485822
 20
201.974628
 30
0.0
 10
4.485822
 20
178.699591
 30
0.0
 10
36.735874
 20
178.724591
 30
0.0
 10
36.735874
 20
198.974623
 30
0.0
 10
74.735935
 20
198.974623
 30
0.0
 10
74.735935
 20
178.724591
 30
0.0
 10
106.736487
 20
178.724591
 30
0.0
 10
106.736487
 20
198.974623
 30
0.0
 10
144.735548
 20
198.974623
 30
0.0
 10
144.735548
 20
178.724591
 30
0.0
 10
180.986606
 20
178.699591
 30
0.0
 10
180.966606
 20
148.974543
 30
0.0
 10
145.586549
 20
148.998543
 30
0.0
 10
145.586549
 20
130.474513
 30
0.0
 10
109.735492
 20
130.474513
 30
0.0
 10
109.735492
 20
110.474481
 30
0.0
 10
106.985487
 20
110.474481
 30
0.0
  0
LWPOLYLINE
  5
121
100
AcDbEntity
  8
Layer_1
 62
7
100
AcDbPolyline
 90
5
 70
0
 10
141.736543
 20
175.974586
 30
0.0
 10
109.735492
 20
175.974586
 30
0.0
 10
109.735492
 20
157.224556
 30
0.0
 10
141.736543
 20
157.224556
 30
0.0
 10
141.736543
 20
175.974586
 30
0.0
  0
LWPOLYLINE
  5
122
100
AcDbEntity
  8
Layer_1
 62
7
100
AcDbPolyline
 90
5
 70
0
 10
74.735935
 20
154.474552
 30
0.0
 10
106.985487
 20
154.474552
 30
0.0
 10
106.985487
 20
134.724520
 30
0.0
 10
74.735935
 20
134.724520
 30
0.0
 10
74.735935
 20
154.474552
 30
0.0
  0
LWPOLYLINE
  5
123
100
AcDbEntity
  8
Layer_1
 62
7
100
AcDbPolyline
 90
5
 70
0
 10
71.735931
 20
175.974586
 30
0.0
 10
39.735879
 20
175.974586
 30
0.0
 10
39.735879
 20
157.224556
 30
0.0
 10
71.735931
 20
157.224556
 30
0.0
 10
71.735931
 20
175.974586
 30
0.0
  0
LWPOLYLINE
  5
124
100
AcDbEntity
  8
Layer_1
 62
7
100
AcDbPolyline
 90
5
 70
0
 10
4.485822
 20
154.474552
 30
0.0
 10
36.735874
 20
154.474552
 30
0.0
 10
36.735874
 20
134.724520
 30
0.0
 10
4.485822
 20
134.724520
 30
0.0
 10
4.485822
 20
154.474552
 30
0.0
  0
LWPOLYLINE
  5
125
100
AcDbEntity
  8
Layer_1
 62
7
100
AcDbPolyline
 90
5
 70
0
 10
4.485822
 20
173.224582
 30
0.0
 10
36.985875
 20
173.224582
 30
0.0
 10
36.985875
 20
157.224556
 30
0.0
 10
4.485822
 20
157.224556
 30
0.0
 10
4.485822
 20
173.224582
 30
0.0
  0
LWPOLYLINE
  5
126
100
AcDbEntity
  8
Layer_1
 62
7
100
AcDbPolyline
 90
6
 70
0
 10
30.935865
 20
110.474481
 30
0.0
 10
30.935865
 20
113.223485
 30
0.0
 10
4.485822
 20
113.223485
 30
0.0
 10
4.485822
 20
127.724509
 30
0.0
 10
36.935875
 20
127.724509
 30
0.0
 10
36.935875
 20
110.474481
 30
0.0
  0
LWPOLYLINE
  5
127
100
AcDbEntity
  8
Layer_1
 62
7
100
AcDbPolyline
 90
5
 70
0
 10
39.485879
 20
134.724520
 30
0.0
 10
71.985931
 20
134.724520
 30
0.0
 10
71.985931
 20
151.724547
 30
0.0
 10
39.485879
 20
151.724547
 30
0.0
 10
39.485879
 20
134.724520
 30
0.0
  0
LWPOLYLINE
  5
128
100
AcDbEntity
  8
Layer_1
 62
7
100
AcDbPolyline
 90
5
 70
0
 10
39.485879
 20
178.724591
 30
0.0
 10
71.985931
 20
178.724591
 30
0.0
 10
71.985931
 20
193.624615
 30
0.0
 10
39.485879
 20
193.624615
 30
0.0
 10
39.485879
 20
178.724591
 30
0.0
  0
LWPOLYLINE
  5
129
100
AcDbEntity
  8
Layer_1
 62
7
100
AcDbPolyline
 90
5
 70
0
 10
74.485935
 20
173.224582
 30
0.0
 10
106.985487
 20
173.224582
 30
0.0
 10
106.985487
 20
157.224556
 30
0.0
 10
74.485935
 20
157.224556
 30
0.0
 10
74.485935
 20
173.224582
 30
0.0
  0
LWPOLYLINE
  5
12a
100
AcDbEntity
  8
Layer_1
 62
7
100
AcDbPolyline
 90
6
 70
0
 10
100.985478
 20
110.474481
 30
0.0
 10
100.985478
 20
113.224485
 30
0.0
 10
74.485935
 20
113.224485
 30
0.0
 10
74.485935
 20
127.724509
 30
0.0
 10
106.985487
 20
127.724509
 30
0.0
 10
106.985487
 20
110.474481
 30
0.0
  0
LWPOLYLINE
  5
12b
100
AcDbEntity
  8
Layer_1
 62
7
100
AcDbPolyline
 90
5
 70
0
 10
109.735492
 20
134.724520
 30
0.0
 10
141.685543
 20
134.724520
 30
0.0
 10
141.685543
 20
151.724547
 30
0.0
 10
109.735492
 20
151.724547
 30
0.0
 10
109.735492
 20
134.724520
 30
0.0
  0
LWPOLYLINE
  5
12c
100
AcDbEntity
  8
Layer_1
 62
7
100
AcDbPolyline
 90
5
 70
0
 10
109.486491
 20
193.624615
 30
0.0
 10
141.985543
 20
193.624615
 30
0.0
 10
141.985543
 20
178.724591
 30
0.0
 10
109.486491
 20
178.724591
 30
0.0
 10
109.486491
 20
193.624615
 30
0.0
  0
LWPOLYLINE
  5
12d
100
AcDbEntity
  8
Layer_1
 62
7
100
AcDbPolyline
 90
5
 70
0
 10
144.486547
 20
173.224582
 30
0.0
 10
170.486589
 20
173.224582
 30
0.0
 10
170.486589
 20
157.224556
 30
0.0
 10
144.486547
 20
157.224556
 30
0.0
 10
144.486547
 20
173.224582
 30
0.0
  0
LWPOLYLINE
  5
12e
100
AcDbEntity
  8
Layer_1
 62
7
100
AcDbPolyline
 90
6
 70
0
 10
100.985478
 20
110.474481
 30
0.0
 10
71.735931
 20
110.474481
 30
0.0
 10
71.735931
 20
130.474513
 30
0.0
 10
39.735879
 20
130.474513
 30
0.0
 10
39.735879
 20
110.474481
 30
0.0
 10
36.935875
 20
110.474481
 30
0.0
  0
LWPOLYLINE
  5
12f
100
AcDbEntity
  8
Layer_1
 62
7
100
AcDbPolyline
 90
20
 70
0
 10
30.935865
 20
13.974326
 30
0.0
 10
1.735818
 20
13.974326
 30
0.0
 10
1.735818
 20
105.474473
 30
0.0
 10
4.485822
 20
105.474473
 30
0.0
 10
4.485822
 20
82.199435
 30
0.0
 10
36.735874
 20
82.224435
 30
0.0
 10
36.735874
 20
102.474468
 30
0.0
 10
74.735935
 20
102.474468
 30
0.0
 10
74.735935
 20
82.224435
 30
0.0
 10
106.736487
 20
82.224435
 30
0.0
 10
106.736487
 20
102.474468
 30
0.0
 10
144.735548
 20
102.474468
 30
0.0
 10
144.735548
 20
82.224435
 30
0.0
 10
180.986606
 20
82.199435
 30
0.0
 10
180.966606
 20
52.474388
 30
0.0
 10
145.586549
 20
52.498388
 30
0.0
 10
145.586549
 20
33.974358
 30
0.0
 10
109.735492
 20
33.974358
 30
0.0
 10
109.735492
 20
13.974326
 30
0.0
 10
106.985487
 20
13.974326
 30
0.0
  0
LWPOLYLINE
  5
130
100
AcDbEntity
  8
Layer_1
 62
7
100
AcDbPolyline
 90
5
 70
0
 10
141.736543
 20
79.474431
 30
0.0
 10
109.735492
 20
79.474431
 30
0.0
 10
109.735492
 20
60.724401
 30
0.0
 10
141.736543
 20
60.724401
 30
0.0
 10
141.736543
 20
79.474431
 30
0.0
  0
LWPOLYLINE
  5
131
100
AcDbEntity
  8
Layer_1
 62
7
100
AcDbPolyline
 90
5
 70
0
 10
74.735935
 20
57.974396
 30
0.0
 10
106.985487
 20
57.974396
 30
0.0
 10
106.985487
 20
38.224365
 30
0.0
 10
74.735935
 20
38.224365
 30
0.0
 10
74.735935
 20
57.974396
 30
0.0
  0
LWPOLYLINE
  5
132
100
AcDbEntity
  8
Layer_1
 62
7
100
AcDbPolyline
 90
5
 70
0
 10
71.735931
 20
79.474431
 30
0.0
 10
39.735879
 20
79.474431
 30
0.0
 10
39.735879
 20
60.724401
 30
0.0
 10
71.735931
 20
60.724401
 30
0.0
 10
71.735931
 20
79.474431
 30
0.0
  0
LWPOLYLINE
  5
133
100
AcDbEntity
  8
Layer_1
 62
7
100
AcDbPolyline
 90
5
 70
0
 10
4.485822
 20
57.974396
 30
0.0
 10
36.735874
 20
57.974396
 30
0.0
 10
36.735874
 20
38.224365
 30
0.0
 10
4.485822
 20
38.224365
 30
0.0
 10
4.485822
 20
57.974396
 30
0.0
  0
LWPOLYLINE
  5
134
100
AcDbEntity
  8
Layer_1
 62
7
100
AcDbPolyline
 90
5
 70
0
 10
4.485822
 20
76.724427
 30
0.0
 10
36.985875
 20
76.724427
 30
0.0
 10
36.985875
 20
60.724401
 30
0.0
 10
4.485822
 20
60.724401
 30
0.0
 10
4.485822
 20
76.724427
 30
0.0
  0
LWPOLYLINE
  5
135
100
AcDbEntity
  8
Layer_1
 62
7
100
AcDbPolyline
 90
6
 70
0
 10
30.935865
 20
13.974326
 30
0.0
 10
30.935865
 20
16.723330
 30
0.0
 10
4.485822
 20
16.723330
 30
0.0
 10
4.485822
 20
31.224353
 30
0.0
 10
36.935875
 20
31.224353
 30
0.0
 10
36.935875
 20
13.974326
 30
0.0
  0
LWPOLYLINE
  5
136
100
AcDbEntity
  8
Layer_1
 62
7
100
AcDbPolyline
 90
5
 70
0
 10
39.485879
 20
38.224365
 30
0.0
 10
71.985931
 20
38.224365
 30
0.0
 10
71.985931
 20
55.224392
 30
0.0
 10
39.485879
 20
55.224392
 30
0.0
 10
39.485879
 20
38.224365
 30
0.0
  0
LWPOLYLINE
  5
137
100
AcDbEntity
  8
Layer_1
 62
7
100
AcDbPolyline
 90
5
 70
0
 10
39.485879
 20
82.224435
 30
0.0
 10
71.985931
 20
82.224435
 30
0.0
 10
71.985931
 20
97.124459
 30
0.0
 10
39.485879
 20
97.124459
 30
0.0
 10
39.485879
 20
82.224435
 30
0.0
  0
LWPOLYLINE
  5
138
100
AcDbEntity
  8
Layer_1
 62
7
100
AcDbPolyline
 90
5
 70
0
 10
74.485935
 20
76.724427
 30
0.0
 10
106.985487
 20
76.724427
 30
0.0
 10
106.985487
 20
60.724401
 30
0.0
 10
74.485935
 20
60.724401
 30
0.0
 10
74.485935
 20
76.724427
 30
0.0
  0
LWPOLYLINE
  5
139
100
AcDbEntity
  8
Layer_1
 62
7
100
AcDbPolyline
 90
6
 70
0
 10
100.985478
 20
13.974326
 30
0.0
 10
100.985478
 20
16.724330
 30
0.0
 10
74.485935
 20
16.724330
 30
0.0
 10
74.485935
 20
31.224353
 30
0.0
 10
106.985487
 20
31.224353
 30
0.0
 10
106.985487
 20
13.974326
 30
0.0
  0
LWPOLYLINE
  5
13a
100
AcDbEntity
  8
Layer_1
 62
7
100
AcDbPolyline
 90
5
 70
0
 10
109.735492
 20
38.224365
 30
0.0
 10
141.685543
 20
38.224365
 30
0.0
 10
141.685543
 20
55.224392
 30
0.0
 10
109.735492
 20
55.224392
 30
0.0
 10
109.735492
 20
38.224365
 30
0.0
  0
LWPOLYLINE
  5
13b
100
AcDbEntity
  8
Layer_1
 62
7
100
AcDbPolyline
 90
5
 70
0
 10
109.486491
 20
97.124459
 30
0.0
 10
141.985543
 20
97.124459
 30
0.0
 10
141.985543
 20
82.224435
 30
0.0
 10
109.486491
 20
82.224435
 30
0.0
 10
109.486491
 20
97.124459
 30
0.0
  0
LWPOLYLINE
  5
13c
100
AcDbEntity
  8
Layer_1
 62
7
100
AcDbPolyline
 90
5
 70
0
 10
144.486547
 20
76.724427
 30
0.0
 10
170.486589
 20
76.724427
 30
0.0
 10
170.486589
 20
60.724401
 30
0.0
 10
144.486547
 20
60.724401
 30
0.0
 10
144.486547
 20
76.724427
 30
0.0
  0
LWPOLYLINE
  5
13d
100
AcDbEntity
  8
Layer_1
 62
7
100
AcDbPolyline
 90
6
 70
0
 10
100.985478
 20
13.974326
 30
0.0
 10
71.735931
 20
13.974326
 30
0.0
 10
71.735931
 20
33.974358
 30
0.0
 10
39.735879
 20
33.974358
 30
0.0
 10
39.735879
 20
13.974326
 30
0.0
 10
36.935875
 20
13.974326
 30
0.0
  0
LWPOLYLINE
  5
13e
100
AcDbEntity
  8
Layer_1
 62
7
100
AcDbPolyline
 90
20
 70
0
 10
215.186661
 20
110.474481
 30
0.0
 10
185.986614
 20
110.474481
 30
0.0
 10
185.986614
 20
201.974628
 30
0.0
 10
188.736619
 20
201.974628
 30
0.0
 10
188.736619
 20
178.699591
 30
0.0
 10
220.986670
 20
178.724591
 30
0.0
 10
220.986670
 20
198.974623
 30
0.0
 10
258.986732
 20
198.974623
 30
0.0
 10
258.986732
 20
178.724591
 30
0.0
 10
290.986783
 20
178.724591
 30
0.0
 10
290.986783
 20
198.974623
 30
0.0
 10
328.986844
 20
198.974623
 30
0.0
 10
328.986844
 20
178.724591
 30
0.0
 10
365.237902
 20
178.699591
 30
0.0
 10
365.217902
 20
148.974543
 30
0.0
 10
329.836845
 20
148.998543
 30
0.0
 10
329.836845
 20
130.474513
 30
0.0
 10
293.986788
 20
130.474513
 30
0.0
 10
293.986788
 20
110.474481
 30
0.0
 10
291.236783
 20
110.474481
 30
0.0
  0
LWPOLYLINE
  5
13f
100
AcDbEntity
  8
Layer_1
 62
7
100
AcDbPolyline
 90
5
 70
0
 10
325.986839
 20
175.974586
 30
0.0
 10
293.986788
 20
175.974586
 30
0.0
 10
293.986788
 20
157.224556
 30
0.0
 10
325.986839
 20
157.224556
 30
0.0
 10
325.986839
 20
175.974586
 30
0.0
  0
LWPOLYLINE
  5
140
100
AcDbEntity
  8
Layer_1
 62
7
100
AcDbPolyline
 90
5
 70
0
 10
258.986732
 20
154.474552
 30
0.0
 10
291.236783
 20
154.474552
 30
0.0
 10
291.236783
 20
134.724520
 30
0.0
 10
258.986732
 20
134.724520
 30
0.0
 10
258.986732
 20
154.474552
 30
0.0
  0
LWPOLYLINE
  5
141
100
AcDbEntity
  8
Layer_1
 62
7
100
AcDbPolyline
 90
5
 70
0
 10
255.986727
 20
175.974586
 30
0.0
 10
223.986675
 20
175.974586
 30
0.0
 10
223.986675
 20
157.224556
 30
0.0
 10
255.986727
 20
157.224556
 30
0.0
 10
255.986727
 20
175.974586
 30
0.0
  0
LWPOLYLINE
  5
142
100
AcDbEntity
  8
Layer_1
 62
7
100
AcDbPolyline
 90
5
 70
0
 10
188.736619
 20
154.474552
 30
0.0
 10
220.986670
 20
154.474552
 30
0.0
 10
220.986670
 20
134.724520
 30
0.0
 10
188.736619
 20
134.724520
 30
0.0
 10
188.736619
 20
154.474552
 30
0.0
  0
LWPOLYLINE
  5
143
100
AcDbEntity
  8
Layer_1
 62
7
100
AcDbPolyline
 90
5
 70
0
 10
188.736619
 20
173.224582
 30
0.0
 10
221.236671
 20
173.224582
 30
0.0
 10
221.236671
 20
157.224556
 30
0.0
 10
188.736619
 20
157.224556
 30
0.0
 10
188.736619
 20
173.224582
 30
0.0
  0
LWPOLYLINE
  5
144
100
AcDbEntity
  8
Layer_1
 62
7
100
AcDbPolyline
 90
6
 70
0
 10
215.186661
 20
110.474481
 30
0.0
 10
215.186661
 20
113.223485
 30
0.0
 10
188.736619
 20
113.223485
 30
0.0
 10
188.736619
 20
127.724509
 30
0.0
 10
221.186671
 20
127.724509
 30
0.0
 10
221.186671
 20
110.474481
 30
0.0
  0
LWPOLYLINE
  5
145
100
AcDbEntity
  8
Layer_1
 62
7
100
AcDbPolyline
 90
5
 70
0
 10
223.736675
 20
134.724520
 30
0.0
 10
256.236727
 20
134.724520
 30
0.0
 10
256.236727
 20
151.724547
 30
0.0
 10
223.736675
 20
151.724547
 30
0.0
 10
223.736675
 20
134.724520
 30
0.0
  0
LWPOLYLINE
  5
146
100
AcDbEntity
  8
Layer_1
 62
7
100
AcDbPolyline
 90
5
 70
0
 10
223.736675
 20
178.724591
 30
0.0
 10
256.236727
 20
178.724591
 30
0.0
 10
256.236727
 20
193.624615
 30
0.0
 10
223.736675
 20
193.624615
 30
0.0
 10
223.736675
 20
178.724591
 30
0.0
  0
LWPOLYLINE
  5
147
100
AcDbEntity
  8
Layer_1
 62
7
100
AcDbPolyline
 90
5
 70
0
 10
258.736731
 20
173.224582
 30
0.0
 10
291.236783
 20
173.224582
 30
0.0
 10
291.236783
 20
157.224556
 30
0.0
 10
258.736731
 20
157.224556
 30
0.0
 10
258.736731
 20
173.224582
 30
0.0
  0
LWPOLYLINE
  5
148
100
AcDbEntity
  8
Layer_1
 62
7
100
AcDbPolyline
 90
6
 70
0
 10
285.236774
 20
110.474481
 30
0.0
 10
285.236774
 20
113.224485
 30
0.0
 10
258.736731
 20
113.224485
 30
0.0
 10
258.736731
 20
127.724509
 30
0.0
 10
291.236783
 20
127.724509
 30
0.0
 10
291.236783
 20
110.474481
 30
0.0
  0
LWPOLYLINE
  5
149
100
AcDbEntity
  8
Layer_1
 62
7
100
AcDbPolyline
 90
5
 70
0
 10
293.986788
 20
134.724520
 30
0.0
 10
325.936839
 20
134.724520
 30
0.0
 10
325.936839
 20
151.724547
 30
0.0
 10
293.986788
 20
151.724547
 30
0.0
 10
293.986788
 20
134.724520
 30
0.0
  0
LWPOLYLINE
  5
14a
100
AcDbEntity
  8
Layer_1
 62
7
100
AcDbPolyline
 90
5
 70
0
 10
293.736787
 20
193.624615
 30
0.0
 10
326.236840
 20
193.624615
 30
0.0
 10
326.236840
 20
178.724591
 30
0.0
 10
293.736787
 20
178.724591
 30
0.0
 10
293.736787
 20
193.624615
 30
0.0
  0
LWPOLYLINE
  5
14b
100
AcDbEntity
  8
Layer_1
 62
7
100
AcDbPolyline
 90
5
 70
0
 10
328.736844
 20
173.224582
 30
0.0
 10
354.736886
 20
173.224582
 30
0.0
 10
354.736886
 20
157.224556
 30
0.0
 10
328.736844
 20
157.224556
 30
0.0
 10
328.736844
 20
173.224582
 30
0.0
  0
LWPOLYLINE
  5
14c
100
AcDbEntity
  8
Layer_1
 62
7
100
AcDbPolyline
 90
6
 70
0
 10
285.236774
 20
110.474481
 30
0.0
 10
255.986727
 20
110.474481
 30
0.0
 10
255.986727
 20
130.474513
 30
0.0
 10
223.986675
 20
130.474513
 30
0.0
 10
223.986675
 20
110.474481
 30
0.0
 10
221.186671
 20
110.474481
 30
0.0
  0
LWPOLYLINE
  5
14d
100
AcDbEntity
  8
Layer_1
 62
7
100
AcDbPolyline
 90
20
 70
0
 10
215.186661
 20
13.974326
 30
0.0
 10
185.986614
 20
13.974326
 30
0.0
 10
185.986614
 20
105.474473
 30
0.0
 10
188.736619
 20
105.474473
 30
0.0
 10
188.736619
 20
82.199435
 30
0.0
 10
220.986670
 20
82.224435
 30
0.0
 10
220.986670
 20
102.474468
 30
0.0
 10
258.986732
 20
102.474468
 30
0.0
 10
258.986732
 20
82.224435
 30
0.0
 10
290.986783
 20
82.224435
 30
0.0
 10
290.986783
 20
102.474468
 30
0.0
 10
328.986844
 20
102.474468
 30
0.0
 10
328.986844
 20
82.224435
 30
0.0
 10
365.237902
 20
82.199435
 30
0.0
 10
365.217902
 20
52.474388
 30
0.0
 10
329.836845
 20
52.498388
 30
0.0
 10
329.836845
 20
33.974358
 30
0.0
 10
293.986788
 20
33.974358
 30
0.0
 10
293.986788
 20
13.974326
 30
0.0
 10
291.236783
 20
13.974326
 30
0.0
  0
LWPOLYLINE
  5
14e
100
AcDbEntity
  8
Layer_1
 62
7
100
AcDbPolyline
 90
5
 70
0
 10
325.986839
 20
79.474431
 30
0.0
 10
293.986788
 20
79.474431
 30
0.0
 10
293.986788
 20
60.724401
 30
0.0
 10
325.986839
 20
60.724401
 30
0.0
 10
325.986839
 20
79.474431
 30
0.0
  0
LWPOLYLINE
  5
14f
100
AcDbEntity
  8
Layer_1
 62
7
100
AcDbPolyline
 90
5
 70
0
 10
258.986732
 20
57.974396
 30
0.0
 10
291.236783
 20
57.974396
 30
0.0
 10
291.236783
 20
38.224365
 30
0.0
 10
258.986732
 20
38.224365
 30
0.0
 10
258.986732
 20
57.974396
 30
0.0
  0
LWPOLYLINE
  5
150
100
AcDbEntity
  8
Layer_1
 62
7
100
AcDbPolyline
 90
5
 70
0
 10
255.986727
 20
79.474431
 30
0.0
 10
223.986675
 20
79.474431
 30
0.0
 10
223.986675
 20
60.724401
 30
0.0
 10
255.986727
 20
60.724401
 30
0.0
 10
255.986727
 20
79.474431
 30
0.0
  0
LWPOLYLINE
  5
151
100
AcDbEntity
  8
Layer_1
 62
7
100
AcDbPolyline
 90
5
 70
0
 10
188.736619
 20
57.974396
 30
0.0
 10
220.986670
 20
57.974396
 30
0.0
 10
220.986670
 20
38.224365
 30
0.0
 10
188.736619
 20
38.224365
 30
0.0
 10
188.736619
 20
57.974396
 30
0.0
  0
LWPOLYLINE
  5
152
100
AcDbEntity
  8
Layer_1
 62
7
100
AcDbPolyline
 90
5
 70
0
 10
188.736619
 20
76.724427
 30
0.0
 10
221.236671
 20
76.724427
 30
0.0
 10
221.236671
 20
60.724401
 30
0.0
 10
188.736619
 20
60.724401
 30
0.0
 10
188.736619
 20
76.724427
 30
0.0
  0
LWPOLYLINE
  5
153
100
AcDbEntity
  8
Layer_1
 62
7
100
AcDbPolyline
 90
6
 70
0
 10
215.186661
 20
13.974326
 30
0.0
 10
215.186661
 20
16.723330
 30
0.0
 10
188.736619
 20
16.723330
 30
0.0
 10
188.736619
 20
31.224353
 30
0.0
 10
221.186671
 20
31.224353
 30
0.0
 10
221.186671
 20
13.974326
 30
0.0
  0
LWPOLYLINE
  5
154
100
AcDbEntity
  8
Layer_1
 62
7
100
AcDbPolyline
 90
5
 70
0
 10
223.736675
 20
38.224365
 30
0.0
 10
256.236727
 20
38.224365
 30
0.0
 10
256.236727
 20
55.224392
 30
0.0
 10
223.736675
 20
55.224392
 30
0.0
 10
223.736675
 20
38.224365
 30
0.0
  0
LWPOLYLINE
  5
155
100
AcDbEntity
  8
Layer_1
 62
7
100
AcDbPolyline
 90
5
 70
0
 10
223.736675
 20
82.224435
 30
0.0
 10
256.236727
 20
82.224435
 30
0.0
 10
256.236727
 20
97.124459
 30
0.0
 10
223.736675
 20
97.124459
 30
0.0
 10
223.736675
 20
82.224435
 30
0.0
  0
LWPOLYLINE
  5
156
100
AcDbEntity
  8
Layer_1
 62
7
100
AcDbPolyline
 90
5
 70
0
 10
258.736731
 20
76.724427
 30
0.0
 10
291.236783
 20
76.724427
 30
0.0
 10
291.236783
 20
60.724401
 30
0.0
 10
258.736731
 20
60.724401
 30
0.0
 10
258.736731
 20
76.724427
 30
0.0
  0
LWPOLYLINE
  5
157
100
AcDbEntity
  8
Layer_1
 62
7
100
AcDbPolyline
 90
6
 70
0
 10
285.236774
 20
13.974326
 30
0.0
 10
285.236774
 20
16.724330
 30
0.0
 10
258.736731
 20
16.724330
 30
0.0
 10
258.736731
 20
31.224353
 30
0.0
 10
291.236783
 20
31.224353
 30
0.0
 10
291.236783
 20
13.974326
 30
0.0
  0
LWPOLYLINE
  5
158
100
AcDbEntity
  8
Layer_1
 62
7
100
AcDbPolyline
 90
5
 70
0
 10
293.986788
 20
38.224365
 30
0.0
 10
325.936839
 20
38.224365
 30
0.0
 10
325.936839
 20
55.224392
 30
0.0
 10
293.986788
 20
55.224392
 30
0.0
 10
293.986788
 20
38.224365
 30
0.0
  0
LWPOLYLINE
  5
159
100
AcDbEntity
  8
Layer_1
 62
7
100
AcDbPolyline
 90
5
 70
0
 10
293.736787
 20
97.124459
 30
0.0
 10
326.236840
 20
97.124459
 30
0.0
 10
326.236840
 20
82.224435
 30
0.0
 10
293.736787
 20
82.224435
 30
0.0
 10
293.736787
 20
97.124459
 30
0.0
  0
LWPOLYLINE
  5
15a
100
AcDbEntity
  8
Layer_1
 62
7
100
AcDbPolyline
 90
5
 70
0
 10
328.736844
 20
76.724427
 30
0.0
 10
354.736886
 20
76.724427
 30
0.0
 10
354.736886
 20
60.724401
 30
0.0
 10
328.736844
 20
60.724401
 30
0.0
 10
328.736844
 20
76.724427
 30
0.0
  0
LWPOLYLINE
  5
15b
100
AcDbEntity
  8
Layer_1
 62
7
100
AcDbPolyline
 90
6
 70
0
 10
285.236774
 20
13.974326
 30
0.0
 10
255.986727
 20
13.974326
 30
0.0
 10
255.986727
 20
33.974358
 30
0.0
 10
223.986675
 20
33.974358
 30
0.0
 10
223.986675
 20
13.974326
 30
0.0
 10
221.186671
 20
13.974326
 30
0.0
  0
LWPOLYLINE
  5
15c
100
AcDbEntity
  8
Layer_1
 62
7
100
AcDbPolyline
 90
33
 70
0
 10
336.436856
 20
370.533399
 30
0.0
 10
336.436856
 20
391.088902
 30
0.0
 10
367.436906
 20
391.088902
 30
0.0
 10
367.436906
 20
380.952316
 30
0.0
 10
372.686914
 20
380.952316
 30
0.0
 10
372.686914
 20
391.088902
 30
0.0
 10
399.686958
 20
391.088902
 30
0.0
 10
399.686958
 20
380.954016
 30
0.0
 10
402.436962
 20
380.954016
 30
0.0
 10
402.436962
 20
391.088902
 30
0.0
 10
434.937014
 20
391.088902
 30
0.0
 10
434.937014
 20
380.952316
 30
0.0
 10
437.437018
 20
380.952316
 30
0.0
 10
437.437018
 20
391.088902
 30
0.0
 10
469.937071
 20
391.088902
 30
0.0
 10
469.937071
 20
380.952316
 30
0.0
 10
472.437075
 20
380.952316
 30
0.0
 10
472.437075
 20
391.088902
 30
0.0
 10
504.937127
 20
391.088902
 30
0.0
 10
504.937127
 20
380.952316
 30
0.0
 10
507.437131
 20
380.952316
 30
0.0
 10
507.437131
 20
391.088902
 30
0.0
 10
539.937183
 20
391.088902
 30
0.0
 10
539.937183
 20
380.952316
 30
0.0
 10
542.562188
 20
380.952316
 30
0.0
 10
542.562188
 20
391.088902
 30
0.0
 10
573.937238
 20
391.088902
 30
0.0
 10
573.937238
 20
380.952316
 30
0.0
 10
577.937244
 20
380.952316
 30
0.0
 10
577.937244
 20
396.454091
 30
0.0
 10
332.560850
 20
396.454091
 30
0.0
 10
332.560850
 20
370.547899
 30
0.0
 10
336.436856
 20
370.533399
 30
0.0
  0
LWPOLYLINE
  5
15d
100
AcDbEntity
  8
Layer_1
 62
7
100
AcDbPolyline
 90
9
 70
0
 10
534.879175
 20
193.153614
 30
0.0
 10
534.879175
 20
211.592643
 30
0.0
 10
580.879249
 20
211.592643
 30
0.0
 10
580.879249
 20
193.153614
 30
0.0
 10
572.629236
 20
193.153614
 30
0.0
 10
572.629236
 20
152.694549
 30
0.0
 10
543.129188
 20
152.694549
 30
0.0
 10
543.129188
 20
193.153614
 30
0.0
 10
534.879175
 20
193.153614
 30
0.0
  0
LWPOLYLINE
  5
15e
100
AcDbEntity
  8
Layer_1
 62
7
100
AcDbPolyline
 90
9
 70
0
 10
472.603075
 20
193.153614
 30
0.0
 10
472.603075
 20
211.592643
 30
0.0
 10
518.603149
 20
211.592643
 30
0.0
 10
518.603149
 20
193.153614
 30
0.0
 10
510.353136
 20
193.153614
 30
0.0
 10
510.353136
 20
152.694549
 30
0.0
 10
480.853088
 20
152.694549
 30
0.0
 10
480.853088
 20
193.153614
 30
0.0
 10
472.603075
 20
193.153614
 30
0.0
  0
LWPOLYLINE
  5
15f
100
AcDbEntity
  8
Layer_1
 62
7
100
AcDbPolyline
 90
5
 70
0
 10
371.984913
 20
327.533930
 30
0.0
 10
412.442978
 20
327.533930
 30
0.0
 10
412.442978
 20
376.534009
 30
0.0
 10
371.984913
 20
376.534009
 30
0.0
 10
371.984913
 20
327.533930
 30
0.0
  0
LWPOLYLINE
  5
160
100
AcDbEntity
  8
Layer_1
 62
7
100
AcDbPolyline
 90
5
 70
0
 10
287.739778
 20
299.756785
 30
0.0
 10
328.198843
 20
299.756785
 30
0.0
 10
328.198843
 20
338.256847
 30
0.0
 10
287.739778
 20
338.256847
 30
0.0
 10
287.739778
 20
299.756785
 30
0.0
  0
LWPOLYLINE
  5
161
100
AcDbEntity
  8
Layer_1
 62
7
100
AcDbPolyline
 90
17
 70
0
 10
369.327909
 20
244.422696
 30
0.0
 10
412.656979
 20
244.422696
 30
0.0
 10
412.656979
 20
259.422720
 30
0.0
 10
448.407036
 20
259.422720
 30
0.0
 10
448.407036
 20
264.422728
 30
0.0
 10
412.656979
 20
264.422728
 30
0.0
 10
412.656979
 20
281.922757
 30
0.0
 10
448.407036
 20
281.922757
 30
0.0
 10
448.407036
 20
284.422761
 30
0.0
 10
412.656979
 20
284.422761
 30
0.0
 10
412.656979
 20
310.422602
 30
0.0
 10
448.407036
 20
310.422602
 30
0.0
 10
448.407036
 20
312.922606
 30
0.0
 10
410.156975
 20
312.922606
 30
0.0
 10
410.156975
 20
297.422781
 30
0.0
 10
369.327909
 20
297.422781
 30
0.0
 10
369.327909
 20
244.422696
 30
0.0
  0
LWPOLYLINE
  5
162
100
AcDbEntity
  8
Layer_1
 62
7
100
AcDbPolyline
 90
5
 70
0
 10
473.140076
 20
261.922724
 30
0.0
 10
516.640146
 20
261.922724
 30
0.0
 10
516.640146
 20
330.422635
 30
0.0
 10
473.140076
 20
330.422635
 30
0.0
 10
473.140076
 20
261.922724
 30
0.0
  0
LWPOLYLINE
  5
163
100
AcDbEntity
  8
Layer_1
 62
7
100
AcDbPolyline
 90
5
 70
0
 10
453.001044
 20
261.922724
 30
0.0
 10
468.001068
 20
261.922724
 30
0.0
 10
468.001068
 20
330.422635
 30
0.0
 10
453.001044
 20
330.422635
 30
0.0
 10
453.001044
 20
261.922724
 30
0.0
  0
LWPOLYLINE
  5
164
100
AcDbEntity
  8
Layer_1
 62
7
100
AcDbPolyline
 90
7
 70
0
 10
465.459064
 20
151.475547
 30
0.0
 10
465.459064
 20
240.491690
 30
0.0
 10
339.958862
 20
240.491690
 30
0.0
 10
339.958862
 20
213.975647
 30
0.0
 10
379.958926
 20
213.975647
 30
0.0
 10
379.958926
 20
151.475547
 30
0.0
 10
465.459064
 20
151.475547
 30
0.0
  0
LWPOLYLINE
  5
165
100
AcDbEntity
  8
Layer_1
 62
7
100
AcDbPolyline
 90
5
 70
0
 10
451.459041
 20
229.350672
 30
0.0
 10
457.459051
 20
229.350672
 30
0.0
 10
457.459051
 20
215.975651
 30
0.0
 10
451.459041
 20
215.975651
 30
0.0
 10
451.459041
 20
229.350672
 30
0.0
  0
LWPOLYLINE
  5
166
100
AcDbEntity
  8
Layer_1
 62
7
100
AcDbPolyline
 90
5
 70
0
 10
439.459022
 20
229.350672
 30
0.0
 10
445.459031
 20
229.350672
 30
0.0
 10
445.459031
 20
215.975651
 30
0.0
 10
439.459022
 20
215.975651
 30
0.0
 10
439.459022
 20
229.350672
 30
0.0
  0
LWPOLYLINE
  5
167
100
AcDbEntity
  8
Layer_1
 62
7
100
AcDbPolyline
 90
5
 70
0
 10
427.459002
 20
229.350672
 30
0.0
 10
433.459012
 20
229.350672
 30
0.0
 10
433.459012
 20
215.975651
 30
0.0
 10
427.459002
 20
215.975651
 30
0.0
 10
427.459002
 20
229.350672
 30
0.0
  0
LWPOLYLINE
  5
168
100
AcDbEntity
  8
Layer_1
 62
7
100
AcDbPolyline
 90
5
 70
0
 10
415.458983
 20
229.350672
 30
0.0
 10
421.458993
 20
229.350672
 30
0.0
 10
421.458993
 20
215.975651
 30
0.0
 10
415.458983
 20
215.975651
 30
0.0
 10
415.458983
 20
229.350672
 30
0.0
  0
LWPOLYLINE
  5
169
100
AcDbEntity
  8
Layer_1
 62
7
100
AcDbPolyline
 90
5
 70
0
 10
397.458954
 20
229.350672
 30
0.0
 10
403.458964
 20
229.350672
 30
0.0
 10
403.458964
 20
215.975651
 30
0.0
 10
397.458954
 20
215.975651
 30
0.0
 10
397.458954
 20
229.350672
 30
0.0
  0
LWPOLYLINE
  5
16a
100
AcDbEntity
  8
Layer_1
 62
7
100
AcDbPolyline
 90
5
 70
0
 10
384.208933
 20
229.350672
 30
0.0
 10
392.708947
 20
229.350672
 30
0.0
 10
392.708947
 20
213.975647
 30
0.0
 10
384.208933
 20
213.975647
 30
0.0
 10
384.208933
 20
229.350672
 30
0.0
  0
LWPOLYLINE
  5
16b
100
AcDbEntity
  8
Layer_1
 62
7
100
AcDbPolyline
 90
9
 70
0
 10
366.718905
 20
362.771287
 30
0.0
 10
332.560850
 20
362.771287
 30
0.0
 10
332.560850
 20
365.896292
 30
0.0
 10
369.218909
 20
365.896292
 30
0.0
 10
369.218909
 20
304.396193
 30
0.0
 10
332.560850
 20
304.396193
 30
0.0
 10
332.560850
 20
342.396254
 30
0.0
 10
366.718905
 20
342.396254
 30
0.0
 10
366.718905
 20
362.771287
 30
0.0
  0
LWPOLYLINE
  5
16c
100
AcDbEntity
  8
Layer_1
 62
7
100
AcDbPolyline
 90
7
 70
0
 10
584.542255
 20
255.551714
 30
0.0
 10
475.570080
 20
255.551714
 30
0.0
 10
475.570080
 20
240.563690
 30
0.0
 10
515.570144
 20
240.563690
 30
0.0
 10
515.570144
 20
218.309654
 30
0.0
 10
584.542255
 20
218.309654
 30
0.0
 10
584.542255
 20
255.551714
 30
0.0
  0
LWPOLYLINE
  5
16d
100
AcDbEntity
  8
Layer_1
 62
7
100
AcDbPolyline
 90
10
 70
0
 10
544.573191
 20
359.247881
 30
0.0
 10
544.573191
 20
362.372886
 30
0.0
 10
504.573126
 20
362.372886
 30
0.0
 10
504.573126
 20
372.928803
 30
0.0
 10
477.148082
 20
372.928803
 30
0.0
 10
416.322985
 20
365.816091
 30
0.0
 10
416.322985
 20
338.922848
 30
0.0
 10
510.241136
 20
338.922848
 30
0.0
 10
510.241136
 20
359.247881
 30
0.0
 10
544.573191
 20
359.247881
 30
0.0
  0
LWPOLYLINE
  5
16e
100
AcDbEntity
  8
Layer_1
 62
7
100
AcDbPolyline
 90
5
 70
0
 10
589.637263
 20
345.083158
 30
0.0
 10
589.637263
 20
264.582729
 30
0.0
 10
562.211219
 20
264.582729
 30
0.0
 10
562.211219
 20
345.083158
 30
0.0
 10
589.637263
 20
345.083158
 30
0.0
  0
LWPOLYLINE
  5
16f
100
AcDbEntity
  8
Layer_1
 62
7
100
AcDbPolyline
 90
6
 70
0
 10
521.899154
 20
263.706727
 30
0.0
 10
555.905209
 20
263.706727
 30
0.0
 10
555.905209
 20
291.132771
 30
0.0
 10
548.793198
 20
351.957269
 30
0.0
 10
521.899154
 20
351.957269
 30
0.0
 10
521.899154
 20
263.706727
 30
0.0
  0
LWPOLYLINE
  5
170
100
AcDbEntity
  8
Layer_1
 62
7
100
AcDbPolyline
 90
7
 70
0
 10
373.543916
 20
300.055586
 30
0.0
 10
376.043920
 20
300.055586
 30
0.0
 10
376.043920
 20
320.380618
 30
0.0
 10
395.796952
 20
320.380618
 30
0.0
 10
395.796952
 20
323.505623
 30
0.0
 10
373.543916
 20
323.505623
 30
0.0
 10
373.543916
 20
300.055586
 30
0.0
  0
LWPOLYLINE
  5
171
100
AcDbEntity
  8
Layer_1
 62
7
100
AcDbPolyline
 90
20
 70
0
 10
215.207661
 20
206.974636
 30
0.0
 10
186.007614
 20
206.974636
 30
0.0
 10
186.007614
 20
298.474783
 30
0.0
 10
188.757619
 20
298.474783
 30
0.0
 10
188.757619
 20
275.199746
 30
0.0
 10
221.007671
 20
275.224746
 30
0.0
 10
221.007671
 20
295.474778
 30
0.0
 10
259.007732
 20
295.474778
 30
0.0
 10
259.007732
 20
275.224746
 30
0.0
 10
291.007783
 20
275.224746
 30
0.0
 10
291.007783
 20
295.474778
 30
0.0
 10
329.007844
 20
295.474778
 30
0.0
 10
329.007844
 20
275.224746
 30
0.0
 10
365.258902
 20
275.199746
 30
0.0
 10
365.237902
 20
245.474698
 30
0.0
 10
329.857846
 20
245.498698
 30
0.0
 10
329.857846
 20
226.974668
 30
0.0
 10
294.007788
 20
226.974668
 30
0.0
 10
294.007788
 20
206.974636
 30
0.0
 10
291.257783
 20
206.974636
 30
0.0
  0
LWPOLYLINE
  5
172
100
AcDbEntity
  8
Layer_1
 62
7
100
AcDbPolyline
 90
5
 70
0
 10
326.007839
 20
272.474741
 30
0.0
 10
294.007788
 20
272.474741
 30
0.0
 10
294.007788
 20
253.724711
 30
0.0
 10
326.007839
 20
253.724711
 30
0.0
 10
326.007839
 20
272.474741
 30
0.0
  0
LWPOLYLINE
  5
173
100
AcDbEntity
  8
Layer_1
 62
7
100
AcDbPolyline
 90
5
 70
0
 10
259.007732
 20
250.974707
 30
0.0
 10
291.257783
 20
250.974707
 30
0.0
 10
291.257783
 20
231.224675
 30
0.0
 10
259.007732
 20
231.224675
 30
0.0
 10
259.007732
 20
250.974707
 30
0.0
  0
LWPOLYLINE
  5
174
100
AcDbEntity
  8
Layer_1
 62
7
100
AcDbPolyline
 90
5
 70
0
 10
256.007727
 20
272.474741
 30
0.0
 10
224.007675
 20
272.474741
 30
0.0
 10
224.007675
 20
253.724711
 30
0.0
 10
256.007727
 20
253.724711
 30
0.0
 10
256.007727
 20
272.474741
 30
0.0
  0
LWPOLYLINE
  5
175
100
AcDbEntity
  8
Layer_1
 62
7
100
AcDbPolyline
 90
5
 70
0
 10
188.757619
 20
250.974707
 30
0.0
 10
221.007671
 20
250.974707
 30
0.0
 10
221.007671
 20
231.224675
 30
0.0
 10
188.757619
 20
231.224675
 30
0.0
 10
188.757619
 20
250.974707
 30
0.0
  0
LWPOLYLINE
  5
176
100
AcDbEntity
  8
Layer_1
 62
7
100
AcDbPolyline
 90
5
 70
0
 10
188.757619
 20
269.724737
 30
0.0
 10
221.257671
 20
269.724737
 30
0.0
 10
221.257671
 20
253.724711
 30
0.0
 10
188.757619
 20
253.724711
 30
0.0
 10
188.757619
 20
269.724737
 30
0.0
  0
LWPOLYLINE
  5
177
100
AcDbEntity
  8
Layer_1
 62
7
100
AcDbPolyline
 90
6
 70
0
 10
215.207661
 20
206.974636
 30
0.0
 10
215.207661
 20
209.723640
 30
0.0
 10
188.757619
 20
209.723640
 30
0.0
 10
188.757619
 20
224.224664
 30
0.0
 10
221.207671
 20
224.224664
 30
0.0
 10
221.207671
 20
206.974636
 30
0.0
  0
LWPOLYLINE
  5
178
100
AcDbEntity
  8
Layer_1
 62
7
100
AcDbPolyline
 90
5
 70
0
 10
223.757675
 20
231.224675
 30
0.0
 10
256.257727
 20
231.224675
 30
0.0
 10
256.257727
 20
248.224702
 30
0.0
 10
223.757675
 20
248.224702
 30
0.0
 10
223.757675
 20
231.224675
 30
0.0
  0
LWPOLYLINE
  5
179
100
AcDbEntity
  8
Layer_1
 62
7
100
AcDbPolyline
 90
5
 70
0
 10
223.757675
 20
275.224746
 30
0.0
 10
256.257727
 20
275.224746
 30
0.0
 10
256.257727
 20
290.124770
 30
0.0
 10
223.757675
 20
290.124770
 30
0.0
 10
223.757675
 20
275.224746
 30
0.0
  0
LWPOLYLINE
  5
17a
100
AcDbEntity
  8
Layer_1
 62
7
100
AcDbPolyline
 90
5
 70
0
 10
258.757731
 20
269.724737
 30
0.0
 10
291.257783
 20
269.724737
 30
0.0
 10
291.257783
 20
253.724711
 30
0.0
 10
258.757731
 20
253.724711
 30
0.0
 10
258.757731
 20
269.724737
 30
0.0
  0
LWPOLYLINE
  5
17b
100
AcDbEntity
  8
Layer_1
 62
7
100
AcDbPolyline
 90
6
 70
0
 10
285.257774
 20
206.974636
 30
0.0
 10
285.257774
 20
209.724640
 30
0.0
 10
258.757731
 20
209.724640
 30
0.0
 10
258.757731
 20
224.224664
 30
0.0
 10
291.257783
 20
224.224664
 30
0.0
 10
291.257783
 20
206.974636
 30
0.0
  0
LWPOLYLINE
  5
17c
100
AcDbEntity
  8
Layer_1
 62
7
100
AcDbPolyline
 90
5
 70
0
 10
294.007788
 20
231.224675
 30
0.0
 10
325.957839
 20
231.224675
 30
0.0
 10
325.957839
 20
248.224702
 30
0.0
 10
294.007788
 20
248.224702
 30
0.0
 10
294.007788
 20
231.224675
 30
0.0
  0
LWPOLYLINE
  5
17d
100
AcDbEntity
  8
Layer_1
 62
7
100
AcDbPolyline
 90
5
 70
0
 10
293.757787
 20
290.124770
 30
0.0
 10
326.257840
 20
290.124770
 30
0.0
 10
326.257840
 20
275.224746
 30
0.0
 10
293.757787
 20
275.224746
 30
0.0
 10
293.757787
 20
290.124770
 30
0.0
  0
LWPOLYLINE
  5
17e
100
AcDbEntity
  8
Layer_1
 62
7
100
AcDbPolyline
 90
5
 70
0
 10
328.757844
 20
269.724737
 30
0.0
 10
354.757886
 20
269.724737
 30
0.0
 10
354.757886
 20
253.724711
 30
0.0
 10
328.757844
 20
253.724711
 30
0.0
 10
328.757844
 20
269.724737
 30
0.0
  0
LWPOLYLINE
  5
17f
100
AcDbEntity
  8
Layer_1
 62
7
100
AcDbPolyline
 90
6
 70
0
 10
285.257774
 20
206.974636
 30
0.0
 10
256.007727
 20
206.974636
 30
0.0
 10
256.007727
 20
226.974668
 30
0.0
 10
224.007675
 20
226.974668
 30
0.0
 10
224.007675
 20
206.974636
 30
0.0
 10
221.207671
 20
206.974636
 30
0.0
  0
LWPOLYLINE
  5
180
100
AcDbEntity
  8
Layer_1
 62
7
100
AcDbPolyline
 90
2
 70
0
 10
204.486644
 20
303.474791
 30
0.0
 10
106.736487
 20
303.474791
 30
0.0
  0
LWPOLYLINE
  5
181
100
AcDbEntity
  8
Layer_1
 62
7
100
AcDbPolyline
 90
2
 70
0
 10
248.486715
 20
303.474791
 30
0.0
 10
210.486654
 20
303.474791
 30
0.0
  0
LWPOLYLINE
  5
182
100
AcDbEntity
  8
Layer_1
 62
7
100
AcDbPolyline
 90
5
 70
0
 10
373.718916
 20
147.921541
 30
0.0
 10
373.718916
 20
104.592471
 30
0.0
 10
584.719255
 20
104.592471
 30
0.0
 10
584.719255
 20
147.921541
 30
0.0
 10
373.718916
 20
147.921541
 30
0.0
  0
LWPOLYLINE
  5
183
100
AcDbEntity
  8
Layer_1
 62
7
100
AcDbPolyline
 90
5
 70
0
 10
152.316560
 20
3.319309
 30
0.0
 10
152.316560
 20
18.819334
 30
0.0
 10
177.316600
 20
18.819334
 30
0.0
 10
177.316600
 20
3.319309
 30
0.0
 10
152.316560
 20
3.319309
 30
0.0
  0
LWPOLYLINE
  5
184
100
AcDbEntity
  8
Layer_1
 62
7
100
AcDbPolyline
 90
5
 70
0
 10
152.316560
 20
23.819342
 30
0.0
 10
152.316560
 20
45.819377
 30
0.0
 10
177.316600
 20
45.819377
 30
0.0
 10
177.316600
 20
23.819342
 30
0.0
 10
152.316560
 20
23.819342
 30
0.0
  0
LWPOLYLINE
  5
185
100
AcDbEntity
  8
Layer_1
 62
7
100
AcDbPolyline
 90
5
 70
0
 10
152.505560
 20
187.415605
 30
0.0
 10
152.505560
 20
207.915638
 30
0.0
 10
177.505601
 20
207.915638
 30
0.0
 10
177.505601
 20
187.415605
 30
0.0
 10
152.505560
 20
187.415605
 30
0.0
  0
LWPOLYLINE
  5
186
100
AcDbEntity
  8
Layer_1
 62
7
100
AcDbPolyline
 90
5
 70
0
 10
152.505560
 20
212.915646
 30
0.0
 10
152.505560
 20
235.886683
 30
0.0
 10
177.505601
 20
235.886683
 30
0.0
 10
177.505601
 20
212.915646
 30
0.0
 10
152.505560
 20
212.915646
 30
0.0
  0
LWPOLYLINE
  5
187
100
AcDbEntity
  8
Layer_1
 62
7
100
AcDbPolyline
 90
5
 70
0
 10
152.649561
 20
90.449449
 30
0.0
 10
152.649561
 20
110.949482
 30
0.0
 10
177.649601
 20
110.949482
 30
0.0
 10
177.649601
 20
90.449449
 30
0.0
 10
152.649561
 20
90.449449
 30
0.0
  0
LWPOLYLINE
  5
188
100
AcDbEntity
  8
Layer_1
 62
7
100
AcDbPolyline
 90
5
 70
0
 10
152.649561
 20
115.949490
 30
0.0
 10
152.649561
 20
138.920527
 30
0.0
 10
177.649601
 20
138.920527
 30
0.0
 10
177.649601
 20
115.949490
 30
0.0
 10
152.649561
 20
115.949490
 30
0.0
  0
LWPOLYLINE
  5
189
100
AcDbEntity
  8
Layer_1
 62
7
100
AcDbPolyline
 90
5
 70
0
 10
373.718916
 20
99.592463
 30
0.0
 10
373.718916
 20
56.263394
 30
0.0
 10
584.719255
 20
56.263394
 30
0.0
 10
584.719255
 20
99.592463
 30
0.0
 10
373.718916
 20
99.592463
 30
0.0
  0
LWPOLYLINE
  5
18a
100
AcDbEntity
  8
Layer_1
 62
7
100
AcDbPolyline
 90
5
 70
0
 10
373.718916
 20
51.263386
 30
0.0
 10
373.718916
 20
7.934316
 30
0.0
 10
584.719255
 20
7.934316
 30
0.0
 10
584.719255
 20
51.263386
 30
0.0
 10
373.718916
 20
51.263386
 30
0.0
  0
LWPOLYLINE
  5
18b
100
AcDbEntity
  8
Layer_1
 62
7
100
AcDbPolyline
 90
5
 70
0
 10
336.194856
 20
3.319309
 30
0.0
 10
336.194856
 20
18.819334
 30
0.0
 10
361.194896
 20
18.819334
 30
0.0
 10
361.194896
 20
3.319309
 30
0.0
 10
336.194856
 20
3.319309
 30
0.0
  0
LWPOLYLINE
  5
18c
100
AcDbEntity
  8
Layer_1
 62
7
100
AcDbPolyline
 90
5
 70
0
 10
336.194856
 20
23.819342
 30
0.0
 10
336.194856
 20
45.819377
 30
0.0
 10
361.194896
 20
45.819377
 30
0.0
 10
361.194896
 20
23.819342
 30
0.0
 10
336.194856
 20
23.819342
 30
0.0
  0
ENDSEC
  0
SECTION
  2
OBJECTS
  0
DICTIONARY
  5
C
330
0
100
AcDbDictionary
  3
ACAD_GROUP
350
D
  3
ACAD_MLINESTYLE
350
17
  0
DICTIONARY
  5
D
330
C
100
AcDbDictionary
  0
DICTIONARY
  5
1A
330
C
100
AcDbDictionary
  0
DICTIONARY
  5
17
330
C
100
AcDbDictionary
  3
STANDARD
350
18
  0
DICTIONARY
  5
19
330
C
100
AcDbDictionary
  0
ENDSEC
  0
EOF
