<?xml version="1.0" encoding="UTF-8" standalone="no"?>
<!-- Created with Inkscape (http://www.inkscape.org/) -->

<svg
   xmlns:dc="http://purl.org/dc/elements/1.1/"
   xmlns:cc="http://creativecommons.org/ns#"
   xmlns:rdf="http://www.w3.org/1999/02/22-rdf-syntax-ns#"
   xmlns:svg="http://www.w3.org/2000/svg"
   xmlns="http://www.w3.org/2000/svg"
   xmlns:sodipodi="http://sodipodi.sourceforge.net/DTD/sodipodi-0.dtd"
   xmlns:inkscape="http://www.inkscape.org/namespaces/inkscape"
   width="210mm"
   height="297mm"
   viewBox="0 0 744.09448819 1052.3622047"
   id="svg2"
   version="1.1"
   inkscape:version="0.91 r13725"
   sodipodi:docname="fluture.svg">
  <defs
     id="defs4" />
  <sodipodi:namedview
     id="base"
     pagecolor="#ffffff"
     bordercolor="#666666"
     borderopacity="1.0"
     inkscape:pageopacity="0.0"
     inkscape:pageshadow="2"
     inkscape:zoom="1.979899"
     inkscape:cx="185.16493"
     inkscape:cy="547.9373"
     inkscape:document-units="mm"
     inkscape:current-layer="layer1"
     showgrid="false"
     inkscape:window-width="1440"
     inkscape:window-height="837"
     inkscape:window-x="-4"
     inkscape:window-y="-4"
     inkscape:window-maximized="1" />
  <metadata
     id="metadata7">
    <rdf:RDF>
      <cc:Work
         rdf:about="">
        <dc:format>image/svg+xml</dc:format>
        <dc:type
           rdf:resource="http://purl.org/dc/dcmitype/StillImage" />
        <dc:title></dc:title>
      </cc:Work>
    </rdf:RDF>
  </metadata>
  <g
     inkscape:label="Layer 1"
     inkscape:groupmode="layer"
     id="layer1">
    <path
       style="fill:#000000"
       d="M 88.980469 409.20703 C 82.715057 409.28854 78.948056 411.52755 78.421875 415.98047 C 78.148125 418.29712 79.287767 419.99559 85.060547 425.88086 C 88.893337 429.78835 92.535607 433.97851 93.154297 435.19336 C 93.772987 436.40821 94.224003 441.23512 94.158203 445.91797 C 94.044733 453.98832 94.234759 454.78539 97.787109 461.20898 C 101.18798 467.35864 101.59592 468.91721 102.19531 478.05859 C 102.74141 486.3873 103.30954 488.9083 105.47852 492.60938 C 108.41286 497.61646 115.102 501.87814 121.75195 502.97852 C 128.53313 504.10061 128.53316 504.10206 125.81836 508.21484 C 119.70074 517.48272 118.36749 531.28937 122.59766 541.57227 C 127.58992 553.70767 137.38961 564.35428 146.91797 567.99609 C 149.4462 568.9624 153.47741 569.36151 158.75195 569.16602 C 165.5796 568.91297 167.67166 568.38005 173.02344 565.52734 C 184.1742 559.58355 196.66287 543.68367 198.87695 532.61328 C 199.22112 530.89241 199.83945 529.48438 200.25195 529.48438 C 200.66445 529.48438 201.28474 530.89241 201.62891 532.61328 C 203.83748 543.65613 216.33341 559.58483 227.42773 565.49805 C 234.60689 569.3245 245.12819 570.62244 251.86523 568.51367 C 262.01908 565.3354 272.64618 554.36143 277.87109 541.6582 C 282.13697 531.28666 280.82581 517.51703 274.68555 508.21484 C 271.97075 504.10206 271.97077 504.10061 278.75195 502.97852 C 285.4019 501.87814 292.09105 497.61645 295.02539 492.60938 C 297.19437 488.90829 297.76249 486.3873 298.30859 478.05859 C 298.90798 468.91721 299.31593 467.35864 302.7168 461.20898 C 306.26914 454.78539 306.45917 453.98832 306.3457 445.91797 C 306.27986 441.23512 306.73287 436.40821 307.35156 435.19336 C 307.97025 433.97851 311.61252 429.78835 315.44531 425.88086 C 321.21809 419.99559 322.35578 418.29712 322.08203 415.98047 C 320.87933 405.80238 302.74582 407.1906 276.54492 419.46875 C 255.17683 429.48218 217.11099 459.67927 208.04297 473.81055 C 203.17044 481.40374 203.49297 480.50853 208.77344 467.94922 C 214.00845 455.49805 216.74929 455.8721 214.35352 451.33398 C 214.35352 451.33398 213.7361 449.52926 212.0918 454.59766 C 211.05263 457.80078 210.94092 455.98079 208.83594 461.01562 C 206.76644 465.96562 204.24677 469.23438 203.23828 471.98438 C 202.2298 474.73438 200.88624 476.98438 200.25195 476.98438 C 199.61766 476.98438 198.2741 474.73438 197.26562 471.98438 C 196.25713 469.23437 193.73942 465.96562 191.66992 461.01562 C 189.56494 455.98079 189.69243 457.08287 188.91797 454.0918 C 187.67481 449.2906 186.17788 448.89392 186.02344 452.34375 C 185.83271 456.60405 186.49546 455.49805 191.73047 467.94922 C 197.01094 480.50853 197.33347 481.40374 192.46094 473.81055 C 183.39292 459.67927 145.32707 429.48218 123.95898 419.46875 C 109.22098 412.56229 97.035998 409.10224 88.980469 409.20703 z "
       id="path4144" />
  </g>
</svg>
