  0
SECTION
  2
HEADER
  9
$ACADVER
  1
AC1014
  9
$HANDSEED
  5
FFFF
  9
$MEASUREMENT
 70
     1
  0
ENDSEC
  0
SECTION
  2
TABLES
  0
TABLE
  2
VPORT
  5
8
330
0
100
AcDbSymbolTable
 70
     4
  0
VPORT
  5
2E
330
8
100
AcDbSymbolTableRecord
100
AcDbViewportTableRecord
  2
*ACTIVE
 70
     0
 10
0.0
 20
0.0
 11
1.0
 21
1.0
 12
210.0
 22
148.5
 13
0.0
 23
0.0
 14
10.0
 24
10.0
 15
10.0
 25
10.0
 16
0.0
 26
0.0
 36
1.0
 17
0.0
 27
0.0
 37
0.0
 40
341.0
 41
1.24
 42
50.0
 43
0.0
 44
0.0
 50
0.0
 51
0.0
 71
     0
 72
   100
 73
     1
 74
     3
 75
     0
 76
     0
 77
     0
 78
     0
  0
ENDTAB
  0
TABLE
  2
LTYPE
  5
5
330
0
100
AcDbSymbolTable
 70
     1
  0
LTYPE
  5
14
330
5
100
AcDbSymbolTableRecord
100
AcDbLinetypeTableRecord
  2
BYBLOCK
 70
     0
  3

 72
    65
 73
     0
 40
0.0
  0
LTYPE
  5
15
330
5
100
AcDbSymbolTableRecord
100
AcDbLinetypeTableRecord
  2
BYLAYER
 70
     0
  3

 72
    65
 73
     0
 40
0.0
  0
LTYPE
  5
16
330
5
100
AcDbSymbolTableRecord
100
AcDbLinetypeTableRecord
  2
CONTINUOUS
 70
     0
  3
Solid line
 72
    65
 73
     0
 40
0.0
  0
ENDTAB
  0
TABLE
  2
LAYER
  5
2
100
AcDbSymbolTable
 70
2
  0
LAYER
  5
50
100
AcDbSymbolTableRecord
100
AcDbLayerTableRecord
  2
0
 70
0
  6
CONTINUOUS
  0
LAYER
  5
51
100
AcDbSymbolTableRecord
100
AcDbLayerTableRecord
  2
Mansoane
 70
0
  6
CONTINUOUS
  0
ENDTAB
  0
TABLE
  2
STYLE
  5
3
330
0
100
AcDbSymbolTable
 70
     1
  0
STYLE
  5
11
330
3
100
AcDbSymbolTableRecord
100
AcDbTextStyleTableRecord
  2
STANDARD
 70
     0
 40
0.0
 41
1.0
 50
0.0
 71
     0
 42
2.5
  3
txt
  4

  0
ENDTAB
  0
TABLE
  2
VIEW
  5
6
330
0
100
AcDbSymbolTable
 70
     0
  0
ENDTAB
  0
TABLE
  2
UCS
  5
7
330
0
100
AcDbSymbolTable
 70
     0
  0
ENDTAB
  0
TABLE
  2
APPID
  5
9
330
0
100
AcDbSymbolTable
 70
     2
  0
APPID
  5
12
330
9
100
AcDbSymbolTableRecord
100
AcDbRegAppTableRecord
  2
ACAD
 70
     0
  0
ENDTAB
  0
TABLE
  2
DIMSTYLE
  5
A
330
0
100
AcDbSymbolTable
 70
     1
  0
DIMSTYLE
105
27
330
A
100
AcDbSymbolTableRecord
100
AcDbDimStyleTableRecord
  2
ISO-25
 70
     0
  3

  4

  5

  6

  7

 40
1.0
 41
2.5
 42
0.625
 43
3.75
 44
1.25
 45
0.0
 46
0.0
 47
0.0
 48
0.0
140
2.5
141
2.5
142
0.0
143
0.03937007874016
144
1.0
145
0.0
146
1.0
147
0.625
 71
     0
 72
     0
 73
     0
 74
     0
 75
     0
 76
     0
 77
     1
 78
     8
170
     0
171
     3
172
     1
173
     0
174
     0
175
     0
176
     0
177
     0
178
     0
270
     2
271
     2
272
     2
273
     2
274
     3
340
11
275
     0
280
     0
281
     0
282
     0
283
     0
284
     8
285
     0
286
     0
287
     3
288
     0
  0
ENDTAB
  0
TABLE
  2
BLOCK_RECORD
  5
1
330
0
100
AcDbSymbolTable
 70
     1
  0
BLOCK_RECORD
  5
1F
330
1
100
AcDbSymbolTableRecord
100
AcDbBlockTableRecord
  2
*MODEL_SPACE
  0
BLOCK_RECORD
  5
1B
330
1
100
AcDbSymbolTableRecord
100
AcDbBlockTableRecord
  2
*PAPER_SPACE
  0
ENDTAB
  0
ENDSEC
  0
SECTION
  2
BLOCKS
  0
BLOCK
  5
20
330
1F
100
AcDbEntity
  8
0
100
AcDbBlockBegin
  2
*MODEL_SPACE
 70
     0
 10
0.0
 20
0.0
 30
0.0
  3
*MODEL_SPACE
  1

  0
ENDBLK
  5
21
330
1F
100
AcDbEntity
  8
0
100
AcDbBlockEnd
  0
BLOCK
  5
1C
330
1B
100
AcDbEntity
 67
     1
  8
0
100
AcDbBlockBegin
  2
*PAPER_SPACE
  1

  0
ENDBLK
  5
1D
330
1B
100
AcDbEntity
 67
     1
  8
0
100
AcDbBlockEnd
  0
ENDSEC
  0
SECTION
  2
ENTITIES
  0
SPLINE
  5
100
100
AcDbEntity
  8
Mansoane
 62
7
100
AcDbSpline
 70
8
 71
3
 72
8
 73
4
 74
0
 40
0
 40
0
 40
0
 40
0
 40
1
 40
1
 40
1
 40
1
 10
53.866409
 20
286.079877
 30
0.0
 10
48.944454
 20
286.079877
 30
0.0
 10
44.916175
 20
284.107563
 30
0.0
 10
41.891811
 20
281.808510
 30
0.0
  0
SPLINE
  5
101
100
AcDbEntity
  8
Mansoane
 62
7
100
AcDbSpline
 70
8
 71
3
 72
8
 73
4
 74
0
 40
0
 40
0
 40
0
 40
0
 40
1
 40
1
 40
1
 40
1
 10
41.891811
 20
281.808510
 30
0.0
 10
41.539033
 20
281.540399
 30
0.0
 10
41.730591
 20
280.976682
 30
0.0
 10
42.174033
 20
280.975624
 30
0.0
  0
SPLINE
  5
102
100
AcDbEntity
  8
Mansoane
 62
7
100
AcDbSpline
 70
8
 71
3
 72
8
 73
4
 74
0
 40
0
 40
0
 40
0
 40
0
 40
1
 40
1
 40
1
 40
1
 10
44.157855
 20
280.970663
 30
0.0
 10
46.577910
 20
280.970663
 30
0.0
 10
47.787608
 20
279.648187
 30
0.0
 10
47.787608
 20
277.004117
 30
0.0
  0
LWPOLYLINE
  5
103
100
AcDbEntity
  8
Mansoane
 62
7
100
AcDbPolyline
 90
2
 70
0
 10
42.174033
 20
280.975624
 30
0.0
 10
44.157855
 20
280.970663
 30
0.0
  0
SPLINE
  5
104
100
AcDbEntity
  8
Mansoane
 62
7
100
AcDbSpline
 70
8
 71
3
 72
8
 73
4
 74
0
 40
0
 40
0
 40
0
 40
0
 40
1
 40
1
 40
1
 40
1
 10
47.787608
 20
274.163155
 30
0.0
 10
47.787608
 20
272.727349
 30
0.0
 10
47.254386
 20
271.715140
 30
0.0
 10
46.186880
 20
271.127059
 30
0.0
  0
SPLINE
  5
105
100
AcDbEntity
  8
Mansoane
 62
7
100
AcDbSpline
 70
8
 71
3
 72
8
 73
4
 74
0
 40
0
 40
0
 40
0
 40
0
 40
1
 40
1
 40
1
 40
1
 10
46.186880
 20
271.127059
 30
0.0
 10
45.882433
 20
270.958784
 30
0.0
 10
45.737992
 20
270.600562
 30
0.0
 10
45.852292
 20
270.272126
 30
0.0
  0
LWPOLYLINE
  5
106
100
AcDbEntity
  8
Mansoane
 62
7
100
AcDbPolyline
 90
2
 70
0
 10
47.787608
 20
277.004117
 30
0.0
 10
47.787608
 20
274.163155
 30
0.0
  0
SPLINE
  5
107
100
AcDbEntity
  8
Mansoane
 62
7
100
AcDbSpline
 70
8
 71
3
 72
8
 73
4
 74
0
 40
0
 40
0
 40
0
 40
0
 40
1
 40
1
 40
1
 40
1
 10
47.998174
 20
264.112846
 30
0.0
 10
48.091660
 20
263.924816
 30
0.0
 10
48.197801
 20
263.736322
 30
0.0
 10
48.244015
 20
263.550056
 30
0.0
  0
SPLINE
  5
108
100
AcDbEntity
  8
Mansoane
 62
7
100
AcDbSpline
 70
8
 71
3
 72
8
 73
4
 74
0
 40
0
 40
0
 40
0
 40
0
 40
1
 40
1
 40
1
 40
1
 10
48.244015
 20
263.550056
 30
0.0
 10
48.255304
 20
263.505253
 30
0.0
 10
48.253605
 20
263.460317
 30
0.0
 10
48.241258
 20
263.414456
 30
0.0
  0
LWPOLYLINE
  5
109
100
AcDbEntity
  8
Mansoane
 62
7
100
AcDbPolyline
 90
4
 70
0
 10
45.852292
 20
270.272126
 30
0.0
 10
47.349393
 20
265.974299
 30
0.0
 10
47.349393
 20
265.973749
 30
0.0
 10
47.998174
 20
264.112846
 30
0.0
  0
SPLINE
  5
10a
100
AcDbEntity
  8
Mansoane
 62
7
100
AcDbSpline
 70
8
 71
3
 72
8
 73
4
 74
0
 40
0
 40
0
 40
0
 40
0
 40
1
 40
1
 40
1
 40
1
 10
48.298585
 20
263.249641
 30
0.0
 10
48.437933
 20
262.848889
 30
0.0
 10
48.268402
 20
262.436181
 30
0.0
 10
47.945257
 20
262.227689
 30
0.0
  0
SPLINE
  5
10b
100
AcDbEntity
  8
Mansoane
 62
7
100
AcDbSpline
 70
8
 71
3
 72
8
 73
4
 74
0
 40
0
 40
0
 40
0
 40
0
 40
1
 40
1
 40
1
 40
1
 10
47.945257
 20
262.227689
 30
0.0
 10
47.942435
 20
262.188884
 30
0.0
 10
47.937736
 20
262.149440
 30
0.0
 10
47.929269
 20
262.110282
 30
0.0
  0
SPLINE
  5
10c
100
AcDbEntity
  8
Mansoane
 62
7
100
AcDbSpline
 70
8
 71
3
 72
8
 73
4
 74
0
 40
0
 40
0
 40
0
 40
0
 40
1
 40
1
 40
1
 40
1
 10
47.929269
 20
262.110282
 30
0.0
 10
47.900342
 20
261.979754
 30
0.0
 10
47.764192
 20
261.930586
 30
0.0
 10
47.643189
 20
262.001141
 30
0.0
  0
SPLINE
  5
10d
100
AcDbEntity
  8
Mansoane
 62
7
100
AcDbSpline
 70
8
 71
3
 72
8
 73
4
 74
0
 40
0
 40
0
 40
0
 40
0
 40
1
 40
1
 40
1
 40
1
 10
47.643189
 20
262.001141
 30
0.0
 10
47.604384
 20
262.023366
 30
0.0
 10
47.579689
 20
262.058269
 30
0.0
 10
47.554995
 20
262.093194
 30
0.0
  0
SPLINE
  5
10e
100
AcDbEntity
  8
Mansoane
 62
7
100
AcDbSpline
 70
8
 71
3
 72
8
 73
4
 74
0
 40
0
 40
0
 40
0
 40
0
 40
1
 40
1
 40
1
 40
1
 10
47.554995
 20
262.093194
 30
0.0
 10
47.528184
 20
262.090371
 30
0.0
 10
47.500735
 20
262.088232
 30
0.0
 10
47.472865
 20
262.088232
 30
0.0
  0
LWPOLYLINE
  5
10f
100
AcDbEntity
  8
Mansoane
 62
7
100
AcDbPolyline
 90
2
 70
0
 10
48.241258
 20
263.414456
 30
0.0
 10
48.298585
 20
263.249641
 30
0.0
  0
SPLINE
  5
110
100
AcDbEntity
  8
Mansoane
 62
7
100
AcDbSpline
 70
8
 71
3
 72
8
 73
4
 74
0
 40
0
 40
0
 40
0
 40
0
 40
1
 40
1
 40
1
 40
1
 10
47.088668
 20
262.088232
 30
0.0
 10
47.119359
 20
261.952413
 30
0.0
 10
47.131684
 20
261.798006
 30
0.0
 10
47.233637
 20
261.707342
 30
0.0
  0
SPLINE
  5
111
100
AcDbEntity
  8
Mansoane
 62
7
100
AcDbSpline
 70
8
 71
3
 72
8
 73
4
 74
0
 40
0
 40
0
 40
0
 40
0
 40
1
 40
1
 40
1
 40
1
 10
47.233637
 20
261.707342
 30
0.0
 10
47.394151
 20
261.564114
 30
0.0
 10
47.417809
 20
261.384395
 30
0.0
 10
47.423807
 20
261.196365
 30
0.0
  0
SPLINE
  5
112
100
AcDbEntity
  8
Mansoane
 62
7
100
AcDbSpline
 70
8
 71
3
 72
8
 73
4
 74
0
 40
0
 40
0
 40
0
 40
0
 40
1
 40
1
 40
1
 40
1
 10
47.423807
 20
261.196365
 30
0.0
 10
47.425923
 20
261.134981
 30
0.0
 10
47.350429
 20
261.019933
 30
0.0
 10
47.282695
 20
260.992417
 30
0.0
  0
SPLINE
  5
113
100
AcDbEntity
  8
Mansoane
 62
7
100
AcDbSpline
 70
8
 71
3
 72
8
 73
4
 74
0
 40
0
 40
0
 40
0
 40
0
 40
1
 40
1
 40
1
 40
1
 10
47.282695
 20
260.992417
 30
0.0
 10
47.211434
 20
260.963489
 30
0.0
 10
47.064481
 20
260.984698
 30
0.0
 10
47.026381
 20
261.028795
 30
0.0
  0
SPLINE
  5
114
100
AcDbEntity
  8
Mansoane
 62
7
100
AcDbSpline
 70
8
 71
3
 72
8
 73
4
 74
0
 40
0
 40
0
 40
0
 40
0
 40
1
 40
1
 40
1
 40
1
 10
47.026381
 20
261.028795
 30
0.0
 10
46.947006
 20
261.121576
 30
0.0
 10
46.910913
 20
261.241323
 30
0.0
 10
46.869285
 20
261.354564
 30
0.0
  0
SPLINE
  5
115
100
AcDbEntity
  8
Mansoane
 62
7
100
AcDbSpline
 70
8
 71
3
 72
8
 73
4
 74
0
 40
0
 40
0
 40
0
 40
0
 40
1
 40
1
 40
1
 40
1
 10
46.869285
 20
261.354564
 30
0.0
 10
46.810724
 20
261.511550
 30
0.0
 10
46.762546
 20
261.672660
 30
0.0
 10
46.709982
 20
261.832468
 30
0.0
  0
SPLINE
  5
116
100
AcDbEntity
  8
Mansoane
 62
7
100
AcDbSpline
 70
8
 71
3
 72
8
 73
4
 74
0
 40
0
 40
0
 40
0
 40
0
 40
1
 40
1
 40
1
 40
1
 10
46.709982
 20
261.832468
 30
0.0
 10
46.659535
 20
261.828588
 30
0.0
 10
46.666173
 20
261.828830
 30
0.0
 10
46.615725
 20
261.825303
 30
0.0
  0
SPLINE
  5
117
100
AcDbEntity
  8
Mansoane
 62
7
100
AcDbSpline
 70
8
 71
3
 72
8
 73
4
 74
0
 40
0
 40
0
 40
0
 40
0
 40
1
 40
1
 40
1
 40
1
 10
46.615725
 20
261.825303
 30
0.0
 10
46.595617
 20
261.718058
 30
0.0
 10
46.584438
 20
261.611739
 30
0.0
 10
46.552335
 20
261.504495
 30
0.0
  0
SPLINE
  5
118
100
AcDbEntity
  8
Mansoane
 62
7
100
AcDbSpline
 70
8
 71
3
 72
8
 73
4
 74
0
 40
0
 40
0
 40
0
 40
0
 40
1
 40
1
 40
1
 40
1
 10
46.552335
 20
261.504495
 30
0.0
 10
46.535755
 20
261.448756
 30
0.0
 10
46.497720
 20
261.367484
 30
0.0
 10
46.443745
 20
261.342437
 30
0.0
  0
SPLINE
  5
119
100
AcDbEntity
  8
Mansoane
 62
7
100
AcDbSpline
 70
8
 71
3
 72
8
 73
4
 74
0
 40
0
 40
0
 40
0
 40
0
 40
1
 40
1
 40
1
 40
1
 10
46.443745
 20
261.342437
 30
0.0
 10
46.385536
 20
261.315273
 30
0.0
 10
46.265107
 20
261.316309
 30
0.0
 10
46.228770
 20
261.346295
 30
0.0
  0
SPLINE
  5
11a
100
AcDbEntity
  8
Mansoane
 62
7
100
AcDbSpline
 70
8
 71
3
 72
8
 73
4
 74
0
 40
0
 40
0
 40
0
 40
0
 40
1
 40
1
 40
1
 40
1
 10
46.228770
 20
261.346295
 30
0.0
 10
46.141282
 20
261.418262
 30
0.0
 10
46.076438
 20
261.509279
 30
0.0
 10
46.023169
 20
261.602059
 30
0.0
  0
SPLINE
  5
11b
100
AcDbEntity
  8
Mansoane
 62
7
100
AcDbSpline
 70
8
 71
3
 72
8
 73
4
 74
0
 40
0
 40
0
 40
0
 40
0
 40
1
 40
1
 40
1
 40
1
 10
46.023169
 20
261.602059
 30
0.0
 10
45.986127
 20
261.666617
 30
0.0
 10
45.988266
 20
261.748177
 30
0.0
 10
45.966394
 20
261.819791
 30
0.0
  0
SPLINE
  5
11c
100
AcDbEntity
  8
Mansoane
 62
7
100
AcDbSpline
 70
8
 71
3
 72
8
 73
4
 74
0
 40
0
 40
0
 40
0
 40
0
 40
1
 40
1
 40
1
 40
1
 10
45.966394
 20
261.819791
 30
0.0
 10
45.907833
 20
262.014524
 30
0.0
 10
45.677864
 20
262.409700
 30
0.0
 10
45.473606
 20
262.778353
 30
0.0
  0
SPLINE
  5
11d
100
AcDbEntity
  8
Mansoane
 62
7
100
AcDbSpline
 70
8
 71
3
 72
8
 73
4
 74
0
 40
0
 40
0
 40
0
 40
0
 40
1
 40
1
 40
1
 40
1
 10
45.473606
 20
262.778353
 30
0.0
 10
45.407989
 20
262.829858
 30
0.0
 10
45.357367
 20
262.893821
 30
0.0
 10
45.328086
 20
262.970727
 30
0.0
  0
LWPOLYLINE
  5
11e
100
AcDbEntity
  8
Mansoane
 62
7
100
AcDbPolyline
 90
2
 70
0
 10
47.472865
 20
262.088232
 30
0.0
 10
47.088668
 20
262.088232
 30
0.0
  0
SPLINE
  5
11f
100
AcDbEntity
  8
Mansoane
 62
7
100
AcDbSpline
 70
8
 71
3
 72
8
 73
4
 74
0
 40
0
 40
0
 40
0
 40
0
 40
1
 40
1
 40
1
 40
1
 10
45.202960
 20
263.298700
 30
0.0
 10
45.172974
 20
263.365375
 30
0.0
 10
45.150264
 20
263.424312
 30
0.0
 10
45.137917
 20
263.471231
 30
0.0
  0
LWPOLYLINE
  5
120
100
AcDbEntity
  8
Mansoane
 62
7
100
AcDbPolyline
 90
2
 70
0
 10
45.328086
 20
262.970727
 30
0.0
 10
45.202960
 20
263.298700
 30
0.0
  0
SPLINE
  5
121
100
AcDbEntity
  8
Mansoane
 62
7
100
AcDbSpline
 70
8
 71
3
 72
8
 73
4
 74
0
 40
0
 40
0
 40
0
 40
0
 40
1
 40
1
 40
1
 40
1
 10
43.840908
 20
269.274976
 30
0.0
 10
43.835616
 20
269.316251
 30
0.0
 10
43.826046
 20
269.369390
 30
0.0
 10
43.813346
 20
269.430421
 30
0.0
  0
LWPOLYLINE
  5
122
100
AcDbEntity
  8
Mansoane
 62
7
100
AcDbPolyline
 90
4
 70
0
 10
45.137917
 20
263.471231
 30
0.0
 10
44.764743
 20
265.313945
 30
0.0
 10
44.062495
 20
267.689683
 30
0.0
 10
43.840908
 20
269.274976
 30
0.0
  0
SPLINE
  5
123
100
AcDbEntity
  8
Mansoane
 62
7
100
AcDbSpline
 70
8
 71
3
 72
8
 73
4
 74
0
 40
0
 40
0
 40
0
 40
0
 40
1
 40
1
 40
1
 40
1
 10
43.761533
 20
269.725871
 30
0.0
 10
43.749186
 20
269.794663
 30
0.0
 10
43.728217
 20
269.859244
 30
0.0
 10
43.700347
 20
269.916041
 30
0.0
  0
SPLINE
  5
124
100
AcDbEntity
  8
Mansoane
 62
7
100
AcDbSpline
 70
8
 71
3
 72
8
 73
4
 74
0
 40
0
 40
0
 40
0
 40
0
 40
1
 40
1
 40
1
 40
1
 10
43.700347
 20
269.916041
 30
0.0
 10
43.614269
 20
270.262821
 30
0.0
 10
43.517984
 20
270.637559
 30
0.0
 10
43.493642
 20
270.809009
 30
0.0
  0
SPLINE
  5
125
100
AcDbEntity
  8
Mansoane
 62
7
100
AcDbSpline
 70
8
 71
3
 72
8
 73
4
 74
0
 40
0
 40
0
 40
0
 40
0
 40
1
 40
1
 40
1
 40
1
 10
43.493642
 20
270.809009
 30
0.0
 10
43.484823
 20
270.872156
 30
0.0
 10
43.486014
 20
270.938303
 30
0.0
 10
43.470491
 20
270.998628
 30
0.0
  0
SPLINE
  5
126
100
AcDbEntity
  8
Mansoane
 62
7
100
AcDbSpline
 70
8
 71
3
 72
8
 73
4
 74
0
 40
0
 40
0
 40
0
 40
0
 40
1
 40
1
 40
1
 40
1
 10
43.470491
 20
270.998628
 30
0.0
 10
43.448266
 20
271.086470
 30
0.0
 10
43.420439
 20
271.175170
 30
0.0
 10
43.383398
 20
271.253839
 30
0.0
  0
SPLINE
  5
127
100
AcDbEntity
  8
Mansoane
 62
7
100
AcDbSpline
 70
8
 71
3
 72
8
 73
4
 74
0
 40
0
 40
0
 40
0
 40
0
 40
1
 40
1
 40
1
 40
1
 10
43.383398
 20
271.253839
 30
0.0
 10
43.368228
 20
271.286647
 30
0.0
 10
43.317496
 20
271.316679
 30
0.0
 10
43.292449
 20
271.307859
 30
0.0
  0
SPLINE
  5
128
100
AcDbEntity
  8
Mansoane
 62
7
100
AcDbSpline
 70
8
 71
3
 72
8
 73
4
 74
0
 40
0
 40
0
 40
0
 40
0
 40
1
 40
1
 40
1
 40
1
 10
43.292449
 20
271.307859
 30
0.0
 10
43.269518
 20
271.300098
 30
0.0
 10
43.252099
 20
271.243654
 30
0.0
 10
43.245044
 20
271.202026
 30
0.0
  0
SPLINE
  5
129
100
AcDbEntity
  8
Mansoane
 62
7
100
AcDbSpline
 70
8
 71
3
 72
8
 73
4
 74
0
 40
0
 40
0
 40
0
 40
0
 40
1
 40
1
 40
1
 40
1
 10
43.245044
 20
271.202026
 30
0.0
 10
43.230580
 20
271.123004
 30
0.0
 10
43.225906
 20
271.038580
 30
0.0
 10
43.216381
 20
270.956735
 30
0.0
  0
SPLINE
  5
12a
100
AcDbEntity
  8
Mansoane
 62
7
100
AcDbSpline
 70
8
 71
3
 72
8
 73
4
 74
0
 40
0
 40
0
 40
0
 40
0
 40
1
 40
1
 40
1
 40
1
 10
43.216381
 20
270.956735
 30
0.0
 10
43.194509
 20
270.956382
 30
0.0
 10
43.201474
 20
270.956538
 30
0.0
 10
43.178897
 20
270.956185
 30
0.0
  0
SPLINE
  5
12b
100
AcDbEntity
  8
Mansoane
 62
7
100
AcDbSpline
 70
8
 71
3
 72
8
 73
4
 74
0
 40
0
 40
0
 40
0
 40
0
 40
1
 40
1
 40
1
 40
1
 10
43.178897
 20
270.956185
 30
0.0
 10
43.156319
 20
271.103293
 30
0.0
 10
43.135395
 20
271.250599
 30
0.0
 10
43.109995
 20
271.397707
 30
0.0
  0
SPLINE
  5
12c
100
AcDbEntity
  8
Mansoane
 62
7
100
AcDbSpline
 70
8
 71
3
 72
8
 73
4
 74
0
 40
0
 40
0
 40
0
 40
0
 40
1
 40
1
 40
1
 40
1
 10
43.109995
 20
271.397707
 30
0.0
 10
43.092709
 20
271.498955
 30
0.0
 10
43.077915
 20
271.604478
 30
0.0
 10
43.044401
 20
271.698669
 30
0.0
  0
SPLINE
  5
12d
100
AcDbEntity
  8
Mansoane
 62
7
100
AcDbSpline
 70
8
 71
3
 72
8
 73
4
 74
0
 40
0
 40
0
 40
0
 40
0
 40
1
 40
1
 40
1
 40
1
 10
43.044401
 20
271.698669
 30
0.0
 10
43.028526
 20
271.743119
 30
0.0
 10
42.966152
 20
271.795023
 30
0.0
 10
42.935813
 20
271.787967
 30
0.0
  0
SPLINE
  5
12e
100
AcDbEntity
  8
Mansoane
 62
7
100
AcDbSpline
 70
8
 71
3
 72
8
 73
4
 74
0
 40
0
 40
0
 40
0
 40
0
 40
1
 40
1
 40
1
 40
1
 10
42.935813
 20
271.787967
 30
0.0
 10
42.906885
 20
271.781617
 30
0.0
 10
42.873724
 20
271.705220
 30
0.0
 10
42.874077
 20
271.655125
 30
0.0
  0
SPLINE
  5
12f
100
AcDbEntity
  8
Mansoane
 62
7
100
AcDbSpline
 70
8
 71
3
 72
8
 73
4
 74
0
 40
0
 40
0
 40
0
 40
0
 40
1
 40
1
 40
1
 40
1
 10
42.874077
 20
271.655125
 30
0.0
 10
42.876193
 20
271.500961
 30
0.0
 10
42.885366
 20
271.350125
 30
0.0
 10
42.953452
 20
271.195964
 30
0.0
  0
SPLINE
  5
130
100
AcDbEntity
  8
Mansoane
 62
7
100
AcDbSpline
 70
8
 71
3
 72
8
 73
4
 74
0
 40
0
 40
0
 40
0
 40
0
 40
1
 40
1
 40
1
 40
1
 10
42.953452
 20
271.195964
 30
0.0
 10
42.998255
 20
271.094364
 30
0.0
 10
43.001980
 20
270.957726
 30
0.0
 10
43.015738
 20
270.836017
 30
0.0
  0
SPLINE
  5
131
100
AcDbEntity
  8
Mansoane
 62
7
100
AcDbSpline
 70
8
 71
3
 72
8
 73
4
 74
0
 40
0
 40
0
 40
0
 40
0
 40
1
 40
1
 40
1
 40
1
 10
43.015738
 20
270.836017
 30
0.0
 10
43.033730
 20
270.681501
 30
0.0
 10
43.044226
 20
270.526324
 30
0.0
 10
43.057631
 20
270.369690
 30
0.0
  0
LWPOLYLINE
  5
132
100
AcDbEntity
  8
Mansoane
 62
7
100
AcDbPolyline
 90
2
 70
0
 10
43.813346
 20
269.430421
 30
0.0
 10
43.761533
 20
269.725871
 30
0.0
  0
SPLINE
  5
133
100
AcDbEntity
  8
Mansoane
 62
7
100
AcDbSpline
 70
8
 71
3
 72
8
 73
4
 74
0
 40
0
 40
0
 40
0
 40
0
 40
1
 40
1
 40
1
 40
1
 10
43.017942
 20
270.364179
 30
0.0
 10
42.953737
 20
270.549034
 30
0.0
 10
42.890525
 20
270.734595
 30
0.0
 10
42.826672
 20
270.919804
 30
0.0
  0
SPLINE
  5
134
100
AcDbEntity
  8
Mansoane
 62
7
100
AcDbSpline
 70
8
 71
3
 72
8
 73
4
 74
0
 40
0
 40
0
 40
0
 40
0
 40
1
 40
1
 40
1
 40
1
 10
42.826672
 20
270.919804
 30
0.0
 10
42.811150
 20
270.964959
 30
0.0
 10
42.800191
 20
271.016002
 30
0.0
 10
42.777613
 20
271.053749
 30
0.0
  0
SPLINE
  5
135
100
AcDbEntity
  8
Mansoane
 62
7
100
AcDbSpline
 70
8
 71
3
 72
8
 73
4
 74
0
 40
0
 40
0
 40
0
 40
0
 40
1
 40
1
 40
1
 40
1
 10
42.777613
 20
271.053749
 30
0.0
 10
42.726460
 20
271.138769
 30
0.0
 10
42.667744
 20
271.130279
 30
0.0
 10
42.654691
 20
271.031149
 30
0.0
  0
SPLINE
  5
136
100
AcDbEntity
  8
Mansoane
 62
7
100
AcDbSpline
 70
8
 71
3
 72
8
 73
4
 74
0
 40
0
 40
0
 40
0
 40
0
 40
1
 40
1
 40
1
 40
1
 10
42.654691
 20
271.031149
 30
0.0
 10
42.643050
 20
270.939074
 30
0.0
 10
42.645497
 20
270.839325
 30
0.0
 10
42.649730
 20
270.742311
 30
0.0
  0
SPLINE
  5
137
100
AcDbEntity
  8
Mansoane
 62
7
100
AcDbSpline
 70
8
 71
3
 72
8
 73
4
 74
0
 40
0
 40
0
 40
0
 40
0
 40
1
 40
1
 40
1
 40
1
 10
42.649730
 20
270.742311
 30
0.0
 10
42.655022
 20
270.615311
 30
0.0
 10
42.672308
 20
270.487518
 30
0.0
 10
42.676188
 20
270.360871
 30
0.0
  0
SPLINE
  5
138
100
AcDbEntity
  8
Mansoane
 62
7
100
AcDbSpline
 70
8
 71
3
 72
8
 73
4
 74
0
 40
0
 40
0
 40
0
 40
0
 40
1
 40
1
 40
1
 40
1
 10
42.676188
 20
270.360871
 30
0.0
 10
42.677952
 20
270.317127
 30
0.0
 10
42.664789
 20
270.252413
 30
0.0
 10
42.642564
 20
270.237949
 30
0.0
  0
SPLINE
  5
139
100
AcDbEntity
  8
Mansoane
 62
7
100
AcDbSpline
 70
8
 71
3
 72
8
 73
4
 74
0
 40
0
 40
0
 40
0
 40
0
 40
1
 40
1
 40
1
 40
1
 10
42.642564
 20
270.237949
 30
0.0
 10
42.539200
 20
270.171980
 30
0.0
 10
42.499867
 20
270.066810
 30
0.0
 10
42.514684
 20
269.936987
 30
0.0
  0
SPLINE
  5
13a
100
AcDbEntity
  8
Mansoane
 62
7
100
AcDbSpline
 70
8
 71
3
 72
8
 73
4
 74
0
 40
0
 40
0
 40
0
 40
0
 40
1
 40
1
 40
1
 40
1
 10
42.514684
 20
269.936987
 30
0.0
 10
42.534439
 20
269.766243
 30
0.0
 10
42.583255
 20
269.578785
 30
0.0
 10
42.623825
 20
269.395694
 30
0.0
  0
LWPOLYLINE
  5
13b
100
AcDbEntity
  8
Mansoane
 62
7
100
AcDbPolyline
 90
2
 70
0
 10
43.057631
 20
270.369690
 30
0.0
 10
43.017942
 20
270.364179
 30
0.0
  0
SPLINE
  5
13c
100
AcDbEntity
  8
Mansoane
 62
7
100
AcDbSpline
 70
8
 71
3
 72
8
 73
4
 74
0
 40
0
 40
0
 40
0
 40
0
 40
1
 40
1
 40
1
 40
1
 10
42.915967
 20
263.227594
 30
0.0
 10
42.915967
 20
262.598239
 30
0.0
 10
42.406161
 20
262.088232
 30
0.0
 10
41.777158
 20
262.088232
 30
0.0
  0
LWPOLYLINE
  5
13d
100
AcDbEntity
  8
Mansoane
 62
7
100
AcDbPolyline
 90
4
 70
0
 10
42.623825
 20
269.395694
 30
0.0
 10
42.914866
 20
267.740946
 30
0.0
 10
42.915967
 20
267.740392
 30
0.0
 10
42.915967
 20
263.227594
 30
0.0
  0
SPLINE
  5
13e
100
AcDbEntity
  8
Mansoane
 62
7
100
AcDbSpline
 70
8
 71
3
 72
8
 73
4
 74
0
 40
0
 40
0
 40
0
 40
0
 40
1
 40
1
 40
1
 40
1
 10
41.213264
 20
262.088232
 30
0.0
 10
40.648467
 20
262.088232
 30
0.0
 10
40.190759
 20
262.545940
 30
0.0
 10
40.190759
 20
263.110737
 30
0.0
  0
LWPOLYLINE
  5
13f
100
AcDbEntity
  8
Mansoane
 62
7
100
AcDbPolyline
 90
2
 70
0
 10
41.777158
 20
262.088232
 30
0.0
 10
41.213264
 20
262.088232
 30
0.0
  0
SPLINE
  5
140
100
AcDbEntity
  8
Mansoane
 62
7
100
AcDbSpline
 70
8
 71
3
 72
8
 73
4
 74
0
 40
0
 40
0
 40
0
 40
0
 40
1
 40
1
 40
1
 40
1
 10
40.190759
 20
278.845177
 30
0.0
 10
40.190759
 20
279.438902
 30
0.0
 10
39.471490
 20
279.732126
 30
0.0
 10
39.054154
 20
279.309851
 30
0.0
  0
SPLINE
  5
141
100
AcDbEntity
  8
Mansoane
 62
7
100
AcDbSpline
 70
8
 71
3
 72
8
 73
4
 74
0
 40
0
 40
0
 40
0
 40
0
 40
1
 40
1
 40
1
 40
1
 10
39.054154
 20
279.309851
 30
0.0
 10
36.656323
 20
276.884153
 30
0.0
 10
35.394084
 20
274.736969
 30
0.0
 10
35.394084
 20
274.736969
 30
0.0
  0
SPLINE
  5
142
100
AcDbEntity
  8
Mansoane
 62
7
100
AcDbSpline
 70
8
 71
3
 72
8
 73
4
 74
0
 40
0
 40
0
 40
0
 40
0
 40
1
 40
1
 40
1
 40
1
 10
35.394084
 20
274.736969
 30
0.0
 10
32.163345
 20
268.877330
 30
0.0
 10
31.665621
 20
264.083190
 30
0.0
 10
32.167271
 20
260.500732
 30
0.0
  0
LWPOLYLINE
  5
143
100
AcDbEntity
  8
Mansoane
 62
7
100
AcDbPolyline
 90
2
 70
0
 10
40.190759
 20
263.110737
 30
0.0
 10
40.190759
 20
278.845177
 30
0.0
  0
SPLINE
  5
144
100
AcDbEntity
  8
Mansoane
 62
7
100
AcDbSpline
 70
8
 71
3
 72
8
 73
4
 74
0
 40
0
 40
0
 40
0
 40
0
 40
1
 40
1
 40
1
 40
1
 10
32.522803
 20
258.847088
 30
0.0
 10
32.529859
 20
258.822040
 30
0.0
 10
32.855761
 20
257.303837
 30
0.0
 10
32.860700
 20
257.276673
 30
0.0
  0
SPLINE
  5
145
100
AcDbEntity
  8
Mansoane
 62
7
100
AcDbSpline
 70
8
 71
3
 72
8
 73
4
 74
0
 40
0
 40
0
 40
0
 40
0
 40
1
 40
1
 40
1
 40
1
 10
32.860700
 20
257.276673
 30
0.0
 10
32.919614
 20
256.952118
 30
0.0
 10
32.979981
 20
256.626989
 30
0.0
 10
33.029370
 20
256.301023
 30
0.0
  0
SPLINE
  5
146
100
AcDbEntity
  8
Mansoane
 62
7
100
AcDbSpline
 70
8
 71
3
 72
8
 73
4
 74
0
 40
0
 40
0
 40
0
 40
0
 40
1
 40
1
 40
1
 40
1
 10
33.029370
 20
256.301023
 30
0.0
 10
33.062178
 20
256.083359
 30
0.0
 10
33.165587
 20
256.024578
 30
0.0
 10
33.356793
 20
256.066205
 30
0.0
  0
SPLINE
  5
147
100
AcDbEntity
  8
Mansoane
 62
7
100
AcDbSpline
 70
8
 71
3
 72
8
 73
4
 74
0
 40
0
 40
0
 40
0
 40
0
 40
1
 40
1
 40
1
 40
1
 10
33.356793
 20
256.066205
 30
0.0
 10
33.373020
 20
255.712016
 30
0.0
 10
33.382720
 20
255.379677
 30
0.0
 10
33.405298
 20
255.047008
 30
0.0
  0
SPLINE
  5
148
100
AcDbEntity
  8
Mansoane
 62
7
100
AcDbSpline
 70
8
 71
3
 72
8
 73
4
 74
0
 40
0
 40
0
 40
0
 40
0
 40
1
 40
1
 40
1
 40
1
 10
33.405298
 20
255.047008
 30
0.0
 10
33.422232
 20
254.801122
 30
0.0
 10
33.441152
 20
254.552238
 30
0.0
 10
33.490188
 20
254.310586
 30
0.0
  0
SPLINE
  5
149
100
AcDbEntity
  8
Mansoane
 62
7
100
AcDbSpline
 70
8
 71
3
 72
8
 73
4
 74
0
 40
0
 40
0
 40
0
 40
0
 40
1
 40
1
 40
1
 40
1
 10
33.490188
 20
254.310586
 30
0.0
 10
33.508532
 20
254.219922
 30
0.0
 10
33.614233
 20
254.086989
 30
0.0
 10
33.680908
 20
254.078523
 30
0.0
  0
SPLINE
  5
14a
100
AcDbEntity
  8
Mansoane
 62
7
100
AcDbSpline
 70
8
 71
3
 72
8
 73
4
 74
0
 40
0
 40
0
 40
0
 40
0
 40
1
 40
1
 40
1
 40
1
 10
33.680908
 20
254.078523
 30
0.0
 10
33.824841
 20
254.059825
 30
0.0
 10
33.804335
 20
254.230505
 30
0.0
 10
33.803277
 20
254.354683
 30
0.0
  0
SPLINE
  5
14b
100
AcDbEntity
  8
Mansoane
 62
7
100
AcDbSpline
 70
8
 71
3
 72
8
 73
4
 74
0
 40
0
 40
0
 40
0
 40
0
 40
1
 40
1
 40
1
 40
1
 10
33.803277
 20
254.354683
 30
0.0
 10
33.797280
 20
254.965341
 30
0.0
 10
33.788725
 20
255.575712
 30
0.0
 10
33.783434
 20
256.186370
 30
0.0
  0
SPLINE
  5
14c
100
AcDbEntity
  8
Mansoane
 62
7
100
AcDbSpline
 70
8
 71
3
 72
8
 73
4
 74
0
 40
0
 40
0
 40
0
 40
0
 40
1
 40
1
 40
1
 40
1
 10
33.783434
 20
256.186370
 30
0.0
 10
33.782728
 20
256.253045
 30
0.0
 10
33.784977
 20
256.324746
 30
0.0
 10
33.804380
 20
256.382602
 30
0.0
  0
SPLINE
  5
14d
100
AcDbEntity
  8
Mansoane
 62
7
100
AcDbSpline
 70
8
 71
3
 72
8
 73
4
 74
0
 40
0
 40
0
 40
0
 40
0
 40
1
 40
1
 40
1
 40
1
 10
33.804380
 20
256.382602
 30
0.0
 10
33.827664
 20
256.451394
 30
0.0
 10
33.871431
 20
256.508081
 30
0.0
 10
33.906353
 20
256.569464
 30
0.0
  0
SPLINE
  5
14e
100
AcDbEntity
  8
Mansoane
 62
7
100
AcDbSpline
 70
8
 71
3
 72
8
 73
4
 74
0
 40
0
 40
0
 40
0
 40
0
 40
1
 40
1
 40
1
 40
1
 10
33.906353
 20
256.569464
 30
0.0
 10
33.937047
 20
256.491147
 30
0.0
 10
33.988595
 20
256.413119
 30
0.0
 10
33.995651
 20
256.334096
 30
0.0
  0
SPLINE
  5
14f
100
AcDbEntity
  8
Mansoane
 62
7
100
AcDbSpline
 70
8
 71
3
 72
8
 73
4
 74
0
 40
0
 40
0
 40
0
 40
0
 40
1
 40
1
 40
1
 40
1
 10
33.995651
 20
256.334096
 30
0.0
 10
34.022462
 20
256.035999
 30
0.0
 10
34.032670
 20
255.736821
 30
0.0
 10
34.052425
 20
255.438371
 30
0.0
  0
SPLINE
  5
150
100
AcDbEntity
  8
Mansoane
 62
7
100
AcDbSpline
 70
8
 71
3
 72
8
 73
4
 74
0
 40
0
 40
0
 40
0
 40
0
 40
1
 40
1
 40
1
 40
1
 10
34.052425
 20
255.438371
 30
0.0
 10
34.056659
 20
255.379104
 30
0.0
 10
34.058180
 20
255.306477
 30
0.0
 10
34.086049
 20
255.263086
 30
0.0
  0
SPLINE
  5
151
100
AcDbEntity
  8
Mansoane
 62
7
100
AcDbSpline
 70
8
 71
3
 72
8
 73
4
 74
0
 40
0
 40
0
 40
0
 40
0
 40
1
 40
1
 40
1
 40
1
 10
34.086049
 20
255.263086
 30
0.0
 10
34.136497
 20
255.184769
 30
0.0
 10
34.210560
 20
255.070909
 30
0.0
 10
34.266299
 20
255.071262
 30
0.0
  0
SPLINE
  5
152
100
AcDbEntity
  8
Mansoane
 62
7
100
AcDbSpline
 70
8
 71
3
 72
8
 73
4
 74
0
 40
0
 40
0
 40
0
 40
0
 40
1
 40
1
 40
1
 40
1
 10
34.266299
 20
255.071262
 30
0.0
 10
34.323096
 20
255.071615
 30
0.0
 10
34.394005
 20
255.179982
 30
0.0
 10
34.416230
 20
255.262532
 30
0.0
  0
SPLINE
  5
153
100
AcDbEntity
  8
Mansoane
 62
7
100
AcDbSpline
 70
8
 71
3
 72
8
 73
4
 74
0
 40
0
 40
0
 40
0
 40
0
 40
1
 40
1
 40
1
 40
1
 10
34.416230
 20
255.262532
 30
0.0
 10
34.539702
 20
255.720085
 30
0.0
 10
34.651863
 20
256.183790
 30
0.0
 10
34.764046
 20
256.646635
 30
0.0
  0
SPLINE
  5
154
100
AcDbEntity
  8
Mansoane
 62
7
100
AcDbSpline
 70
8
 71
3
 72
8
 73
4
 74
0
 40
0
 40
0
 40
0
 40
0
 40
1
 40
1
 40
1
 40
1
 10
34.764046
 20
256.646635
 30
0.0
 10
34.796501
 20
256.781749
 30
0.0
 10
34.853451
 20
256.776104
 30
0.0
 10
34.966340
 20
256.752468
 30
0.0
  0
SPLINE
  5
155
100
AcDbEntity
  8
Mansoane
 62
7
100
AcDbSpline
 70
8
 71
3
 72
8
 73
4
 74
0
 40
0
 40
0
 40
0
 40
0
 40
1
 40
1
 40
1
 40
1
 10
34.966340
 20
256.752468
 30
0.0
 10
35.318059
 20
256.678385
 30
0.0
 10
35.512553
 20
256.375789
 30
0.0
 10
35.705519
 20
256.049117
 30
0.0
  0
SPLINE
  5
156
100
AcDbEntity
  8
Mansoane
 62
7
100
AcDbSpline
 70
8
 71
3
 72
8
 73
4
 74
0
 40
0
 40
0
 40
0
 40
0
 40
1
 40
1
 40
1
 40
1
 10
35.705519
 20
256.049117
 30
0.0
 10
35.790894
 20
255.904125
 30
0.0
 10
35.891501
 20
255.769827
 30
0.0
 10
35.993807
 20
255.641769
 30
0.0
  0
SPLINE
  5
157
100
AcDbEntity
  8
Mansoane
 62
7
100
AcDbSpline
 70
8
 71
3
 72
8
 73
4
 74
0
 40
0
 40
0
 40
0
 40
0
 40
1
 40
1
 40
1
 40
1
 10
35.993807
 20
255.641769
 30
0.0
 10
36.026615
 20
255.600846
 30
0.0
 10
36.103080
 20
255.563342
 30
0.0
 10
36.132714
 20
255.581686
 30
0.0
  0
SPLINE
  5
158
100
AcDbEntity
  8
Mansoane
 62
7
100
AcDbSpline
 70
8
 71
3
 72
8
 73
4
 74
0
 40
0
 40
0
 40
0
 40
0
 40
1
 40
1
 40
1
 40
1
 10
36.132714
 20
255.581686
 30
0.0
 10
36.164816
 20
255.601795
 30
0.0
 10
36.188009
 20
255.696009
 30
0.0
 10
36.174604
 20
255.745398
 30
0.0
  0
SPLINE
  5
159
100
AcDbEntity
  8
Mansoane
 62
7
100
AcDbSpline
 70
8
 71
3
 72
8
 73
4
 74
0
 40
0
 40
0
 40
0
 40
0
 40
1
 40
1
 40
1
 40
1
 10
36.174604
 20
255.745398
 30
0.0
 10
36.149557
 20
255.835356
 30
0.0
 10
36.100520
 20
255.920243
 30
0.0
 10
36.051132
 20
255.997854
 30
0.0
  0
SPLINE
  5
15a
100
AcDbEntity
  8
Mansoane
 62
7
100
AcDbSpline
 70
8
 71
3
 72
8
 73
4
 74
0
 40
0
 40
0
 40
0
 40
0
 40
1
 40
1
 40
1
 40
1
 10
36.051132
 20
255.997854
 30
0.0
 10
35.878270
 20
256.268082
 30
0.0
 10
35.699943
 20
256.533306
 30
0.0
 10
35.526376
 20
256.803181
 30
0.0
  0
SPLINE
  5
15b
100
AcDbEntity
  8
Mansoane
 62
7
100
AcDbSpline
 70
8
 71
3
 72
8
 73
4
 74
0
 40
0
 40
0
 40
0
 40
0
 40
1
 40
1
 40
1
 40
1
 10
35.526376
 20
256.803181
 30
0.0
 10
35.504151
 20
256.837400
 30
0.0
 10
35.498066
 20
256.885796
 30
0.0
 10
35.480075
 20
256.941534
 30
0.0
  0
SPLINE
  5
15c
100
AcDbEntity
  8
Mansoane
 62
7
100
AcDbSpline
 70
8
 71
3
 72
8
 73
4
 74
0
 40
0
 40
0
 40
0
 40
0
 40
1
 40
1
 40
1
 40
1
 10
35.480075
 20
256.941534
 30
0.0
 10
35.519586
 20
256.964112
 30
0.0
 10
35.555039
 20
256.984111
 30
0.0
 10
35.590316
 20
257.004924
 30
0.0
  0
SPLINE
  5
15d
100
AcDbEntity
  8
Mansoane
 62
7
100
AcDbSpline
 70
8
 71
3
 72
8
 73
4
 74
0
 40
0
 40
0
 40
0
 40
0
 40
1
 40
1
 40
1
 40
1
 10
35.590316
 20
257.004924
 30
0.0
 10
35.746244
 20
257.097352
 30
0.0
 10
35.758879
 20
257.282275
 30
0.0
 10
35.619532
 20
257.434323
 30
0.0
  0
SPLINE
  5
15e
100
AcDbEntity
  8
Mansoane
 62
7
100
AcDbSpline
 70
8
 71
3
 72
8
 73
4
 74
0
 40
0
 40
0
 40
0
 40
0
 40
1
 40
1
 40
1
 40
1
 10
35.619532
 20
257.434323
 30
0.0
 10
35.586371
 20
257.471012
 30
0.0
 10
35.548203
 20
257.501150
 30
0.0
 10
35.516453
 20
257.539603
 30
0.0
  0
SPLINE
  5
15f
100
AcDbEntity
  8
Mansoane
 62
7
100
AcDbSpline
 70
8
 71
3
 72
8
 73
4
 74
0
 40
0
 40
0
 40
0
 40
0
 40
1
 40
1
 40
1
 40
1
 10
35.516453
 20
257.539603
 30
0.0
 10
35.469886
 20
257.596047
 30
0.0
 10
35.438072
 20
257.648016
 30
0.0
 10
35.422197
 20
257.696699
 30
0.0
  0
LWPOLYLINE
  5
160
100
AcDbEntity
  8
Mansoane
 62
7
100
AcDbPolyline
 90
2
 70
0
 10
32.167271
 20
260.500732
 30
0.0
 10
32.522803
 20
258.847088
 30
0.0
  0
SPLINE
  5
161
100
AcDbEntity
  8
Mansoane
 62
7
100
AcDbSpline
 70
8
 71
3
 72
8
 73
4
 74
0
 40
0
 40
0
 40
0
 40
0
 40
1
 40
1
 40
1
 40
1
 10
35.422197
 20
257.697252
 30
0.0
 10
35.422197
 20
257.697252
 30
0.0
 10
34.511567
 20
260.932399
 30
0.0
 10
34.480170
 20
260.991313
 30
0.0
  0
SPLINE
  5
162
100
AcDbEntity
  8
Mansoane
 62
7
100
AcDbSpline
 70
8
 71
3
 72
8
 73
4
 74
0
 40
0
 40
0
 40
0
 40
0
 40
1
 40
1
 40
1
 40
1
 10
34.480170
 20
260.991313
 30
0.0
 10
34.459356
 20
261.030119
 30
0.0
 10
34.402006
 20
261.147727
 30
0.0
 10
34.364964
 20
261.223927
 30
0.0
  0
SPLINE
  5
163
100
AcDbEntity
  8
Mansoane
 62
7
100
AcDbSpline
 70
8
 71
3
 72
8
 73
4
 74
0
 40
0
 40
0
 40
0
 40
0
 40
1
 40
1
 40
1
 40
1
 10
34.364964
 20
261.223927
 30
0.0
 10
34.367436
 20
261.224985
 30
0.0
 10
34.370764
 20
261.226176
 30
0.0
 10
34.373233
 20
261.227234
 30
0.0
  0
SPLINE
  5
164
100
AcDbEntity
  8
Mansoane
 62
7
100
AcDbSpline
 70
8
 71
3
 72
8
 73
4
 74
0
 40
0
 40
0
 40
0
 40
0
 40
1
 40
1
 40
1
 40
1
 10
34.373233
 20
261.227234
 30
0.0
 10
34.307264
 20
261.542970
 30
0.0
 10
34.250136
 20
261.893919
 30
0.0
 10
34.210625
 20
262.279503
 30
0.0
  0
SPLINE
  5
165
100
AcDbEntity
  8
Mansoane
 62
7
100
AcDbSpline
 70
8
 71
3
 72
8
 73
4
 74
0
 40
0
 40
0
 40
0
 40
0
 40
1
 40
1
 40
1
 40
1
 10
34.210625
 20
262.279503
 30
0.0
 10
34.038117
 20
263.970016
 30
0.0
 10
34.190472
 20
266.673505
 30
0.0
 10
35.894035
 20
269.951869
 30
0.0
  0
SPLINE
  5
166
100
AcDbEntity
  8
Mansoane
 62
7
100
AcDbSpline
 70
8
 71
3
 72
8
 73
4
 74
0
 40
0
 40
0
 40
0
 40
0
 40
1
 40
1
 40
1
 40
1
 10
35.894035
 20
269.951869
 30
0.0
 10
35.989285
 20
270.135666
 30
0.0
 10
36.219982
 20
270.203577
 30
0.0
 10
36.400605
 20
270.097391
 30
0.0
  0
SPLINE
  5
167
100
AcDbEntity
  8
Mansoane
 62
7
100
AcDbSpline
 70
8
 71
3
 72
8
 73
4
 74
0
 40
0
 40
0
 40
0
 40
0
 40
1
 40
1
 40
1
 40
1
 10
36.400605
 20
270.097391
 30
0.0
 10
36.570643
 20
269.997908
 30
0.0
 10
36.618599
 20
269.772415
 30
0.0
 10
36.527935
 20
269.597437
 30
0.0
  0
SPLINE
  5
168
100
AcDbEntity
  8
Mansoane
 62
7
100
AcDbSpline
 70
8
 71
3
 72
8
 73
4
 74
0
 40
0
 40
0
 40
0
 40
0
 40
1
 40
1
 40
1
 40
1
 10
36.527935
 20
269.597437
 30
0.0
 10
33.503218
 20
263.758965
 30
0.0
 10
35.563042
 20
259.843572
 30
0.0
 10
35.653706
 20
259.677769
 30
0.0
  0
SPLINE
  5
169
100
AcDbEntity
  8
Mansoane
 62
7
100
AcDbSpline
 70
8
 71
3
 72
8
 73
4
 74
0
 40
0
 40
0
 40
0
 40
0
 40
1
 40
1
 40
1
 40
1
 10
35.653706
 20
259.677769
 30
0.0
 10
36.676409
 20
258.049344
 30
0.0
 10
36.699517
 20
256.132285
 30
0.0
 10
35.719853
 20
254.133093
 30
0.0
  0
SPLINE
  5
16a
100
AcDbEntity
  8
Mansoane
 62
7
100
AcDbSpline
 70
8
 71
3
 72
8
 73
4
 74
0
 40
0
 40
0
 40
0
 40
0
 40
1
 40
1
 40
1
 40
1
 10
35.719853
 20
254.133093
 30
0.0
 10
35.459151
 20
253.601457
 30
0.0
 10
35.161736
 20
253.132771
 30
0.0
 10
34.885864
 20
252.747890
 30
0.0
  0
SPLINE
  5
16b
100
AcDbEntity
  8
Mansoane
 62
7
100
AcDbSpline
 70
8
 71
3
 72
8
 73
4
 74
0
 40
0
 40
0
 40
0
 40
0
 40
1
 40
1
 40
1
 40
1
 10
34.885864
 20
252.747890
 30
0.0
 10
34.609992
 20
252.363362
 30
0.0
 10
34.355837
 20
252.062728
 30
0.0
 10
34.180859
 20
251.868700
 30
0.0
  0
SPLINE
  5
16c
100
AcDbEntity
  8
Mansoane
 62
7
100
AcDbSpline
 70
8
 71
3
 72
8
 73
4
 74
0
 40
0
 40
0
 40
0
 40
0
 40
1
 40
1
 40
1
 40
1
 10
34.180859
 20
251.868700
 30
0.0
 10
34.180859
 20
251.868700
 30
0.0
 10
32.918267
 20
251.316956
 30
0.0
 10
32.258220
 20
249.972520
 30
0.0
  0
SPLINE
  5
16d
100
AcDbEntity
  8
Mansoane
 62
7
100
AcDbSpline
 70
8
 71
3
 72
8
 73
4
 74
0
 40
0
 40
0
 40
0
 40
0
 40
1
 40
1
 40
1
 40
1
 10
32.258220
 20
249.972520
 30
0.0
 10
32.412384
 20
249.941828
 30
0.0
 10
32.965650
 20
249.806737
 30
0.0
 10
33.588302
 20
249.360120
 30
0.0
  0
SPLINE
  5
16e
100
AcDbEntity
  8
Mansoane
 62
7
100
AcDbSpline
 70
8
 71
3
 72
8
 73
4
 74
0
 40
0
 40
0
 40
0
 40
0
 40
1
 40
1
 40
1
 40
1
 10
33.588302
 20
249.360120
 30
0.0
 10
33.588302
 20
249.360120
 30
0.0
 10
33.300811
 20
249.313841
 30
0.0
 10
32.728958
 20
249.098294
 30
0.0
  0
SPLINE
  5
16f
100
AcDbEntity
  8
Mansoane
 62
7
100
AcDbSpline
 70
8
 71
3
 72
8
 73
4
 74
0
 40
0
 40
0
 40
0
 40
0
 40
1
 40
1
 40
1
 40
1
 10
32.728958
 20
249.098294
 30
0.0
 10
32.157458
 20
248.883099
 30
0.0
 10
32.595563
 20
247.726869
 30
0.0
 10
32.595563
 20
247.726869
 30
0.0
  0
SPLINE
  5
170
100
AcDbEntity
  8
Mansoane
 62
7
100
AcDbSpline
 70
8
 71
3
 72
8
 73
4
 74
0
 40
0
 40
0
 40
0
 40
0
 40
1
 40
1
 40
1
 40
1
 10
32.595563
 20
247.726869
 30
0.0
 10
32.595563
 20
247.726869
 30
0.0
 10
32.831264
 20
247.367168
 30
0.0
 10
32.975903
 20
246.477815
 30
0.0
  0
SPLINE
  5
171
100
AcDbEntity
  8
Mansoane
 62
7
100
AcDbSpline
 70
8
 71
3
 72
8
 73
4
 74
0
 40
0
 40
0
 40
0
 40
0
 40
1
 40
1
 40
1
 40
1
 10
32.975903
 20
246.477815
 30
0.0
 10
33.120542
 20
245.588463
 30
0.0
 10
33.325923
 20
245.507677
 30
0.0
 10
33.325923
 20
245.507677
 30
0.0
  0
LWPOLYLINE
  5
172
100
AcDbEntity
  8
Mansoane
 62
7
100
AcDbPolyline
 90
2
 70
0
 10
35.422197
 20
257.696699
 30
0.0
 10
35.422197
 20
257.697252
 30
0.0
  0
SPLINE
  5
173
100
AcDbEntity
  8
Mansoane
 62
7
100
AcDbSpline
 70
8
 71
3
 72
8
 73
4
 74
0
 40
0
 40
0
 40
0
 40
0
 40
1
 40
1
 40
1
 40
1
 10
32.904797
 20
244.730462
 30
0.0
 10
32.875516
 20
244.676487
 30
0.0
 10
32.850799
 20
244.630671
 30
0.0
 10
32.829280
 20
244.590454
 30
0.0
  0
LWPOLYLINE
  5
174
100
AcDbEntity
  8
Mansoane
 62
7
100
AcDbPolyline
 90
2
 70
0
 10
33.325923
 20
245.507677
 30
0.0
 10
32.904797
 20
244.730462
 30
0.0
  0
SPLINE
  5
175
100
AcDbEntity
  8
Mansoane
 62
7
100
AcDbSpline
 70
8
 71
3
 72
8
 73
4
 74
0
 40
0
 40
0
 40
0
 40
0
 40
1
 40
1
 40
1
 40
1
 10
32.920782
 20
244.319256
 30
0.0
 10
33.089410
 20
244.295972
 30
0.0
 10
33.367023
 20
244.220390
 30
0.0
 10
33.718390
 20
243.831982
 30
0.0
  0
SPLINE
  5
176
100
AcDbEntity
  8
Mansoane
 62
7
100
AcDbSpline
 70
8
 71
3
 72
8
 73
4
 74
0
 40
0
 40
0
 40
0
 40
0
 40
1
 40
1
 40
1
 40
1
 10
33.718390
 20
243.831982
 30
0.0
 10
34.531895
 20
242.933457
 30
0.0
 10
33.768925
 20
243.344951
 30
0.0
 10
34.099830
 20
242.579071
 30
0.0
  0
SPLINE
  5
177
100
AcDbEntity
  8
Mansoane
 62
7
100
AcDbSpline
 70
8
 71
3
 72
8
 73
4
 74
0
 40
0
 40
0
 40
0
 40
0
 40
1
 40
1
 40
1
 40
1
 10
34.099830
 20
242.579071
 30
0.0
 10
34.430736
 20
241.813190
 30
0.0
 10
34.483367
 20
242.413417
 30
0.0
 10
35.040756
 20
241.290879
 30
0.0
  0
SPLINE
  5
178
100
AcDbEntity
  8
Mansoane
 62
7
100
AcDbSpline
 70
8
 71
3
 72
8
 73
4
 74
0
 40
0
 40
0
 40
0
 40
0
 40
1
 40
1
 40
1
 40
1
 10
35.040756
 20
241.290879
 30
0.0
 10
35.597792
 20
240.167987
 30
0.0
 10
35.040491
 20
241.290594
 30
0.0
 10
35.263447
 20
239.850555
 30
0.0
  0
SPLINE
  5
179
100
AcDbEntity
  8
Mansoane
 62
7
100
AcDbSpline
 70
8
 71
3
 72
8
 73
4
 74
0
 40
0
 40
0
 40
0
 40
0
 40
1
 40
1
 40
1
 40
1
 10
35.263447
 20
239.850555
 30
0.0
 10
35.486755
 20
238.410869
 30
0.0
 10
35.565512
 20
238.974365
 30
0.0
 10
36.262248
 20
238.570081
 30
0.0
  0
LWPOLYLINE
  5
17a
100
AcDbEntity
  8
Mansoane
 62
7
100
AcDbPolyline
 90
2
 70
0
 10
32.829280
 20
244.590454
 30
0.0
 10
32.920782
 20
244.319256
 30
0.0
  0
SPLINE
  5
17b
100
AcDbEntity
  8
Mansoane
 62
7
100
AcDbSpline
 70
8
 71
3
 72
8
 73
4
 74
0
 40
0
 40
0
 40
0
 40
0
 40
1
 40
1
 40
1
 40
1
 10
36.365327
 20
237.004078
 30
0.0
 10
36.918482
 20
236.519714
 30
0.0
 10
37.589375
 20
236.110515
 30
0.0
 10
38.356314
 20
235.977165
 30
0.0
  0
SPLINE
  5
17c
100
AcDbEntity
  8
Mansoane
 62
7
100
AcDbSpline
 70
8
 71
3
 72
8
 73
4
 74
0
 40
0
 40
0
 40
0
 40
0
 40
1
 40
1
 40
1
 40
1
 10
38.356314
 20
235.977165
 30
0.0
 10
38.391239
 20
235.966229
 30
0.0
 10
38.427863
 20
235.960076
 30
0.0
 10
38.464905
 20
235.960076
 30
0.0
  0
SPLINE
  5
17d
100
AcDbEntity
  8
Mansoane
 62
7
100
AcDbSpline
 70
8
 71
3
 72
8
 73
4
 74
0
 40
0
 40
0
 40
0
 40
0
 40
1
 40
1
 40
1
 40
1
 10
38.464905
 20
235.960076
 30
0.0
 10
39.155291
 20
235.864826
 30
0.0
 10
39.571986
 20
235.880439
 30
0.0
 10
39.855620
 20
235.900547
 30
0.0
  0
SPLINE
  5
17e
100
AcDbEntity
  8
Mansoane
 62
7
100
AcDbSpline
 70
8
 71
3
 72
8
 73
4
 74
0
 40
0
 40
0
 40
0
 40
0
 40
1
 40
1
 40
1
 40
1
 10
39.855620
 20
235.900547
 30
0.0
 10
40.137136
 20
235.855039
 30
0.0
 10
40.412193
 20
235.783930
 30
0.0
 10
40.677482
 20
235.688327
 30
0.0
  0
SPLINE
  5
17f
100
AcDbEntity
  8
Mansoane
 62
7
100
AcDbSpline
 70
8
 71
3
 72
8
 73
4
 74
0
 40
0
 40
0
 40
0
 40
0
 40
1
 40
1
 40
1
 40
1
 10
40.677482
 20
235.688327
 30
0.0
 10
40.860574
 20
235.504177
 30
0.0
 10
41.108071
 20
235.182599
 30
0.0
 10
41.542341
 20
234.629444
 30
0.0
  0
SPLINE
  5
180
100
AcDbEntity
  8
Mansoane
 62
7
100
AcDbSpline
 70
8
 71
3
 72
8
 73
4
 74
0
 40
0
 40
0
 40
0
 40
0
 40
1
 40
1
 40
1
 40
1
 10
41.542341
 20
234.629444
 30
0.0
 10
43.091035
 20
232.656005
 30
0.0
 10
42.261344
 20
232.082741
 30
0.0
 10
43.624830
 20
232.406944
 30
0.0
  0
SPLINE
  5
181
100
AcDbEntity
  8
Mansoane
 62
7
100
AcDbSpline
 70
8
 71
3
 72
8
 73
4
 74
0
 40
0
 40
0
 40
0
 40
0
 40
1
 40
1
 40
1
 40
1
 10
43.624830
 20
232.406944
 30
0.0
 10
43.696797
 20
232.165291
 30
0.0
 10
43.753727
 20
231.916958
 30
0.0
 10
43.795707
 20
231.662252
 30
0.0
  0
SPLINE
  5
182
100
AcDbEntity
  8
Mansoane
 62
7
100
AcDbSpline
 70
8
 71
3
 72
8
 73
4
 74
0
 40
0
 40
0
 40
0
 40
0
 40
1
 40
1
 40
1
 40
1
 10
43.795707
 20
231.662252
 30
0.0
 10
43.797471
 20
231.650611
 30
0.0
 10
43.799102
 20
231.638616
 30
0.0
 10
43.801219
 20
231.626974
 30
0.0
  0
SPLINE
  5
183
100
AcDbEntity
  8
Mansoane
 62
7
100
AcDbSpline
 70
8
 71
3
 72
8
 73
4
 74
0
 40
0
 40
0
 40
0
 40
0
 40
1
 40
1
 40
1
 40
1
 10
43.801219
 20
231.626974
 30
0.0
 10
43.982194
 20
230.480094
 30
0.0
 10
43.705089
 20
229.308584
 30
0.0
 10
43.047158
 20
228.352203
 30
0.0
  0
LWPOLYLINE
  5
184
100
AcDbEntity
  8
Mansoane
 62
7
100
AcDbPolyline
 90
2
 70
0
 10
36.262248
 20
238.570081
 30
0.0
 10
36.365327
 20
237.004078
 30
0.0
  0
SPLINE
  5
185
100
AcDbEntity
  8
Mansoane
 62
7
100
AcDbSpline
 70
8
 71
3
 72
8
 73
4
 74
0
 40
0
 40
0
 40
0
 40
0
 40
1
 40
1
 40
1
 40
1
 10
42.177341
 20
227.087165
 30
0.0
 10
41.822093
 20
226.571404
 30
0.0
 10
41.602245
 20
225.620645
 30
0.0
 10
42.118359
 20
225.265398
 30
0.0
  0
SPLINE
  5
186
100
AcDbEntity
  8
Mansoane
 62
7
100
AcDbSpline
 70
8
 71
3
 72
8
 73
4
 74
0
 40
0
 40
0
 40
0
 40
0
 40
1
 40
1
 40
1
 40
1
 10
42.118359
 20
225.265398
 30
0.0
 10
42.314856
 20
225.130284
 30
0.0
 10
42.960307
 20
226.329243
 30
0.0
 10
43.182204
 20
226.329243
 30
0.0
  0
SPLINE
  5
187
100
AcDbEntity
  8
Mansoane
 62
7
100
AcDbSpline
 70
8
 71
3
 72
8
 73
4
 74
0
 40
0
 40
0
 40
0
 40
0
 40
1
 40
1
 40
1
 40
1
 10
43.182204
 20
226.329243
 30
0.0
 10
43.542743
 20
226.329243
 30
0.0
 10
43.477832
 20
224.921705
 30
0.0
 10
44.046510
 20
225.801180
 30
0.0
  0
LWPOLYLINE
  5
188
100
AcDbEntity
  8
Mansoane
 62
7
100
AcDbPolyline
 90
2
 70
0
 10
43.047158
 20
228.352203
 30
0.0
 10
42.177341
 20
227.087165
 30
0.0
  0
SPLINE
  5
189
100
AcDbEntity
  8
Mansoane
 62
7
100
AcDbSpline
 70
8
 71
3
 72
8
 73
4
 74
0
 40
0
 40
0
 40
0
 40
0
 40
1
 40
1
 40
1
 40
1
 10
44.354090
 20
226.248767
 30
0.0
 10
44.652540
 20
226.682684
 30
0.0
 10
45.264939
 20
226.753437
 30
0.0
 10
45.654406
 20
226.399248
 30
0.0
  0
LWPOLYLINE
  5
18a
100
AcDbEntity
  8
Mansoane
 62
7
100
AcDbPolyline
 90
2
 70
0
 10
44.046510
 20
225.801180
 30
0.0
 10
44.354090
 20
226.248767
 30
0.0
  0
SPLINE
  5
18b
100
AcDbEntity
  8
Mansoane
 62
7
100
AcDbSpline
 70
8
 71
3
 72
8
 73
4
 74
0
 40
0
 40
0
 40
0
 40
0
 40
1
 40
1
 40
1
 40
1
 10
45.664879
 20
226.389325
 30
0.0
 10
45.857143
 20
226.213995
 30
0.0
 10
45.923265
 20
225.939666
 30
0.0
 10
45.831895
 20
225.695897
 30
0.0
  0
LWPOLYLINE
  5
18c
100
AcDbEntity
  8
Mansoane
 62
7
100
AcDbPolyline
 90
2
 70
0
 10
45.654406
 20
226.399248
 30
0.0
 10
45.664879
 20
226.389325
 30
0.0
  0
SPLINE
  5
18d
100
AcDbEntity
  8
Mansoane
 62
7
100
AcDbSpline
 70
8
 71
3
 72
8
 73
4
 74
0
 40
0
 40
0
 40
0
 40
0
 40
1
 40
1
 40
1
 40
1
 10
45.458724
 20
224.703711
 30
0.0
 10
45.458724
 20
224.703711
 30
0.0
 10
45.187746
 20
224.046706
 30
0.0
 10
44.954912
 20
223.792000
 30
0.0
  0
SPLINE
  5
18e
100
AcDbEntity
  8
Mansoane
 62
7
100
AcDbSpline
 70
8
 71
3
 72
8
 73
4
 74
0
 40
0
 40
0
 40
0
 40
0
 40
1
 40
1
 40
1
 40
1
 10
44.954912
 20
223.792000
 30
0.0
 10
44.722079
 20
223.536942
 30
0.0
 10
44.799470
 20
222.462248
 30
0.0
 10
45.619678
 20
222.650984
 30
0.0
  0
SPLINE
  5
18f
100
AcDbEntity
  8
Mansoane
 62
7
100
AcDbSpline
 70
8
 71
3
 72
8
 73
4
 74
0
 40
0
 40
0
 40
0
 40
0
 40
1
 40
1
 40
1
 40
1
 10
45.619678
 20
222.650984
 30
0.0
 10
46.439887
 20
222.839367
 30
0.0
 10
46.018981
 20
222.938718
 30
0.0
 10
46.694547
 20
222.938718
 30
0.0
  0
SPLINE
  5
190
100
AcDbEntity
  8
Mansoane
 62
7
100
AcDbSpline
 70
8
 71
3
 72
8
 73
4
 74
0
 40
0
 40
0
 40
0
 40
0
 40
1
 40
1
 40
1
 40
1
 10
46.694547
 20
222.938718
 30
0.0
 10
47.370472
 20
222.938718
 30
0.0
 10
47.318986
 20
223.205331
 30
0.0
 10
47.519717
 20
223.739083
 30
0.0
  0
LWPOLYLINE
  5
191
100
AcDbEntity
  8
Mansoane
 62
7
100
AcDbPolyline
 90
2
 70
0
 10
45.831895
 20
225.695897
 30
0.0
 10
45.458724
 20
224.703711
 30
0.0
  0
SPLINE
  5
192
100
AcDbEntity
  8
Mansoane
 62
7
100
AcDbSpline
 70
8
 71
3
 72
8
 73
4
 74
0
 40
0
 40
0
 40
0
 40
0
 40
1
 40
1
 40
1
 40
1
 10
47.720360
 20
224.272658
 30
0.0
 10
47.844538
 20
224.603564
 30
0.0
 10
48.216586
 20
224.770826
 30
0.0
 10
48.546080
 20
224.644179
 30
0.0
  0
LWPOLYLINE
  5
193
100
AcDbEntity
  8
Mansoane
 62
7
100
AcDbPolyline
 90
2
 70
0
 10
47.519717
 20
223.739083
 30
0.0
 10
47.720360
 20
224.272658
 30
0.0
  0
SPLINE
  5
194
100
AcDbEntity
  8
Mansoane
 62
7
100
AcDbSpline
 70
8
 71
3
 72
8
 73
4
 74
0
 40
0
 40
0
 40
0
 40
0
 40
1
 40
1
 40
1
 40
1
 10
48.557104
 20
224.639767
 30
0.0
 10
48.833682
 20
224.533581
 30
0.0
 10
49.001053
 20
224.252530
 30
0.0
 10
48.962248
 20
223.959019
 30
0.0
  0
LWPOLYLINE
  5
195
100
AcDbEntity
  8
Mansoane
 62
7
100
AcDbPolyline
 90
2
 70
0
 10
48.546080
 20
224.644179
 30
0.0
 10
48.557104
 20
224.639767
 30
0.0
  0
SPLINE
  5
196
100
AcDbEntity
  8
Mansoane
 62
7
100
AcDbSpline
 70
8
 71
3
 72
8
 73
4
 74
0
 40
0
 40
0
 40
0
 40
0
 40
1
 40
1
 40
1
 40
1
 10
48.820586
 20
222.877532
 30
0.0
 10
48.820586
 20
222.877532
 30
0.0
 10
48.604509
 20
221.867287
 30
0.0
 10
48.516314
 20
221.306017
 30
0.0
  0
SPLINE
  5
197
100
AcDbEntity
  8
Mansoane
 62
7
100
AcDbSpline
 70
8
 71
3
 72
8
 73
4
 74
0
 40
0
 40
0
 40
0
 40
0
 40
1
 40
1
 40
1
 40
1
 10
48.516314
 20
221.306017
 30
0.0
 10
48.427414
 20
220.744395
 30
0.0
 10
48.274399
 20
220.567433
 30
0.0
 10
48.668452
 20
220.788978
 30
0.0
  0
SPLINE
  5
198
100
AcDbEntity
  8
Mansoane
 62
7
100
AcDbSpline
 70
8
 71
3
 72
8
 73
4
 74
0
 40
0
 40
0
 40
0
 40
0
 40
1
 40
1
 40
1
 40
1
 10
48.668452
 20
220.788978
 30
0.0
 10
49.062857
 20
221.010522
 30
0.0
 10
48.845766
 20
221.630596
 30
0.0
 10
49.308964
 20
221.734312
 30
0.0
  0
SPLINE
  5
199
100
AcDbEntity
  8
Mansoane
 62
7
100
AcDbSpline
 70
8
 71
3
 72
8
 73
4
 74
0
 40
0
 40
0
 40
0
 40
0
 40
1
 40
1
 40
1
 40
1
 10
49.308964
 20
221.734312
 30
0.0
 10
49.771808
 20
221.837323
 30
0.0
 10
49.712739
 20
221.690063
 30
0.0
 10
49.609375
 20
221.232157
 30
0.0
  0
SPLINE
  5
19a
100
AcDbEntity
  8
Mansoane
 62
7
100
AcDbSpline
 70
8
 71
3
 72
8
 73
4
 74
0
 40
0
 40
0
 40
0
 40
0
 40
1
 40
1
 40
1
 40
1
 10
49.609375
 20
221.232157
 30
0.0
 10
49.505658
 20
220.773899
 30
0.0
 10
49.505924
 20
220.470397
 30
0.0
 10
49.757101
 20
220.695825
 30
0.0
  0
SPLINE
  5
19b
100
AcDbEntity
  8
Mansoane
 62
7
100
AcDbSpline
 70
8
 71
3
 72
8
 73
4
 74
0
 40
0
 40
0
 40
0
 40
0
 40
1
 40
1
 40
1
 40
1
 10
49.757101
 20
220.695825
 30
0.0
 10
50.008279
 20
220.921600
 30
0.0
 10
49.964049
 20
222.591255
 30
0.0
 10
50.230044
 20
222.546805
 30
0.0
  0
SPLINE
  5
19c
100
AcDbEntity
  8
Mansoane
 62
7
100
AcDbSpline
 70
8
 71
3
 72
8
 73
4
 74
0
 40
0
 40
0
 40
0
 40
0
 40
1
 40
1
 40
1
 40
1
 10
50.230044
 20
222.546805
 30
0.0
 10
50.496038
 20
222.502355
 30
0.0
 10
51.020441
 20
222.206462
 30
0.0
 10
51.072299
 20
222.601925
 30
0.0
  0
LWPOLYLINE
  5
19d
100
AcDbEntity
  8
Mansoane
 62
7
100
AcDbPolyline
 90
2
 70
0
 10
48.962248
 20
223.959019
 30
0.0
 10
48.820586
 20
222.877532
 30
0.0
  0
SPLINE
  5
19e
100
AcDbEntity
  8
Mansoane
 62
7
100
AcDbSpline
 70
8
 71
3
 72
8
 73
4
 74
0
 40
0
 40
0
 40
0
 40
0
 40
1
 40
1
 40
1
 40
1
 10
51.159393
 20
223.264487
 30
0.0
 10
51.209135
 20
223.645487
 30
0.0
 10
51.553093
 20
223.917741
 30
0.0
 10
51.935504
 20
223.879641
 30
0.0
  0
LWPOLYLINE
  5
19f
100
AcDbEntity
  8
Mansoane
 62
7
100
AcDbPolyline
 90
2
 70
0
 10
51.072299
 20
222.601925
 30
0.0
 10
51.159393
 20
223.264487
 30
0.0
  0
SPLINE
  5
1a0
100
AcDbEntity
  8
Mansoane
 62
7
100
AcDbSpline
 70
8
 71
3
 72
8
 73
4
 74
0
 40
0
 40
0
 40
0
 40
0
 40
1
 40
1
 40
1
 40
1
 10
51.951489
 20
223.877990
 30
0.0
 10
52.453492
 20
223.827896
 30
0.0
 10
52.836188
 20
223.405511
 30
0.0
 10
52.836188
 20
222.900686
 30
0.0
  0
LWPOLYLINE
  5
1a1
100
AcDbEntity
  8
Mansoane
 62
7
100
AcDbPolyline
 90
2
 70
0
 10
51.935504
 20
223.879641
 30
0.0
 10
51.951489
 20
223.877990
 30
0.0
  0
SPLINE
  5
1a2
100
AcDbEntity
  8
Mansoane
 62
7
100
AcDbSpline
 70
8
 71
3
 72
8
 73
4
 74
0
 40
0
 40
0
 40
0
 40
0
 40
1
 40
1
 40
1
 40
1
 10
52.836188
 20
221.896920
 30
0.0
 10
52.836188
 20
221.896920
 30
0.0
 10
52.815947
 20
221.394678
 30
0.0
 10
52.727047
 20
220.995686
 30
0.0
  0
SPLINE
  5
1a3
100
AcDbEntity
  8
Mansoane
 62
7
100
AcDbSpline
 70
8
 71
3
 72
8
 73
4
 74
0
 40
0
 40
0
 40
0
 40
0
 40
1
 40
1
 40
1
 40
1
 10
52.727047
 20
220.995686
 30
0.0
 10
52.638503
 20
220.597044
 30
0.0
 10
52.623376
 20
220.372347
 30
0.0
 10
52.992734
 20
220.233353
 30
0.0
  0
SPLINE
  5
1a4
100
AcDbEntity
  8
Mansoane
 62
7
100
AcDbSpline
 70
8
 71
3
 72
8
 73
4
 74
0
 40
0
 40
0
 40
0
 40
0
 40
1
 40
1
 40
1
 40
1
 10
52.992734
 20
220.233353
 30
0.0
 10
53.362445
 20
220.094358
 30
0.0
 10
52.992932
 20
220.617816
 30
0.0
 10
53.584187
 20
220.112638
 30
0.0
  0
SPLINE
  5
1a5
100
AcDbEntity
  8
Mansoane
 62
7
100
AcDbSpline
 70
8
 71
3
 72
8
 73
4
 74
0
 40
0
 40
0
 40
0
 40
0
 40
1
 40
1
 40
1
 40
1
 10
53.584187
 20
220.112638
 30
0.0
 10
54.175090
 20
219.606755
 30
0.0
 10
54.189667
 20
218.853089
 30
0.0
 10
54.455658
 20
219.606622
 30
0.0
  0
SPLINE
  5
1a6
100
AcDbEntity
  8
Mansoane
 62
7
100
AcDbSpline
 70
8
 71
3
 72
8
 73
4
 74
0
 40
0
 40
0
 40
0
 40
0
 40
1
 40
1
 40
1
 40
1
 10
54.455658
 20
219.606622
 30
0.0
 10
54.721653
 20
220.360508
 30
0.0
 10
54.219342
 20
220.478203
 30
0.0
 10
54.677248
 20
220.670467
 30
0.0
  0
SPLINE
  5
1a7
100
AcDbEntity
  8
Mansoane
 62
7
100
AcDbSpline
 70
8
 71
3
 72
8
 73
4
 74
0
 40
0
 40
0
 40
0
 40
0
 40
1
 40
1
 40
1
 40
1
 10
54.677248
 20
220.670467
 30
0.0
 10
55.135153
 20
220.862378
 30
0.0
 10
55.104992
 20
221.217470
 30
0.0
 10
55.104992
 20
221.896920
 30
0.0
  0
LWPOLYLINE
  5
1a8
100
AcDbEntity
  8
Mansoane
 62
7
100
AcDbPolyline
 90
2
 70
0
 10
52.836188
 20
222.900686
 30
0.0
 10
52.836188
 20
221.896920
 30
0.0
  0
SPLINE
  5
1a9
100
AcDbEntity
  8
Mansoane
 62
7
100
AcDbSpline
 70
8
 71
3
 72
8
 73
4
 74
0
 40
0
 40
0
 40
0
 40
0
 40
1
 40
1
 40
1
 40
1
 10
55.104992
 20
222.902337
 30
0.0
 10
55.104992
 20
223.406104
 30
0.0
 10
55.486543
 20
223.827741
 30
0.0
 10
55.987487
 20
223.878541
 30
0.0
  0
LWPOLYLINE
  5
1aa
100
AcDbEntity
  8
Mansoane
 62
7
100
AcDbPolyline
 90
2
 70
0
 10
55.104992
 20
221.896920
 30
0.0
 10
55.104992
 20
222.902337
 30
0.0
  0
SPLINE
  5
1ab
100
AcDbEntity
  8
Mansoane
 62
7
100
AcDbSpline
 70
8
 71
3
 72
8
 73
4
 74
0
 40
0
 40
0
 40
0
 40
0
 40
1
 40
1
 40
1
 40
1
 10
56.004023
 20
223.880195
 30
0.0
 10
56.344453
 20
223.914767
 30
0.0
 10
56.650444
 20
223.671858
 30
0.0
 10
56.695247
 20
223.332836
 30
0.0
  0
LWPOLYLINE
  5
1ac
100
AcDbEntity
  8
Mansoane
 62
7
100
AcDbPolyline
 90
2
 70
0
 10
55.987487
 20
223.878541
 30
0.0
 10
56.004023
 20
223.880195
 30
0.0
  0
SPLINE
  5
1ad
100
AcDbEntity
  8
Mansoane
 62
7
100
AcDbSpline
 70
8
 71
3
 72
8
 73
4
 74
0
 40
0
 40
0
 40
0
 40
0
 40
1
 40
1
 40
1
 40
1
 10
56.812657
 20
222.440421
 30
0.0
 10
56.812657
 20
222.440421
 30
0.0
 10
56.867888
 20
220.832942
 30
0.0
 10
56.945499
 20
220.688656
 30
0.0
  0
SPLINE
  5
1ae
100
AcDbEntity
  8
Mansoane
 62
7
100
AcDbSpline
 70
8
 71
3
 72
8
 73
4
 74
0
 40
0
 40
0
 40
0
 40
0
 40
1
 40
1
 40
1
 40
1
 10
56.945499
 20
220.688656
 30
0.0
 10
57.022757
 20
220.544370
 30
0.0
 10
57.798648
 20
220.289953
 30
0.0
 10
57.998320
 20
220.744330
 30
0.0
  0
SPLINE
  5
1af
100
AcDbEntity
  8
Mansoane
 62
7
100
AcDbSpline
 70
8
 71
3
 72
8
 73
4
 74
0
 40
0
 40
0
 40
0
 40
0
 40
1
 40
1
 40
1
 40
1
 10
57.998320
 20
220.744330
 30
0.0
 10
58.197993
 20
221.198708
 30
0.0
 10
58.097804
 20
221.442413
 30
0.0
 10
58.430473
 20
221.232157
 30
0.0
  0
SPLINE
  5
1b0
100
AcDbEntity
  8
Mansoane
 62
7
100
AcDbSpline
 70
8
 71
3
 72
8
 73
4
 74
0
 40
0
 40
0
 40
0
 40
0
 40
1
 40
1
 40
1
 40
1
 10
58.430473
 20
221.232157
 30
0.0
 10
58.762790
 20
221.021549
 30
0.0
 10
58.865426
 20
220.145799
 30
0.0
 10
59.113428
 20
220.112638
 30
0.0
  0
SPLINE
  5
1b1
100
AcDbEntity
  8
Mansoane
 62
7
100
AcDbSpline
 70
8
 71
3
 72
8
 73
4
 74
0
 40
0
 40
0
 40
0
 40
0
 40
1
 40
1
 40
1
 40
1
 10
59.113428
 20
220.112638
 30
0.0
 10
59.360726
 20
220.079477
 30
0.0
 10
59.172012
 20
221.898134
 30
0.0
 10
59.065473
 20
222.707759
 30
0.0
  0
LWPOLYLINE
  5
1b2
100
AcDbEntity
  8
Mansoane
 62
7
100
AcDbPolyline
 90
2
 70
0
 10
56.695247
 20
223.332836
 30
0.0
 10
56.812657
 20
222.440421
 30
0.0
  0
SPLINE
  5
1b3
100
AcDbEntity
  8
Mansoane
 62
7
100
AcDbSpline
 70
8
 71
3
 72
8
 73
4
 74
0
 40
0
 40
0
 40
0
 40
0
 40
1
 40
1
 40
1
 40
1
 10
58.900658
 20
223.962324
 30
0.0
 10
58.863619
 20
224.241019
 30
0.0
 10
59.024441
 20
224.508071
 30
0.0
 10
59.287613
 20
224.606144
 30
0.0
  0
LWPOLYLINE
  5
1b4
100
AcDbEntity
  8
Mansoane
 62
7
100
AcDbPolyline
 90
2
 70
0
 10
59.065473
 20
222.707759
 30
0.0
 10
58.900658
 20
223.962324
 30
0.0
  0
SPLINE
  5
1b5
100
AcDbEntity
  8
Mansoane
 62
7
100
AcDbSpline
 70
8
 71
3
 72
8
 73
4
 74
0
 40
0
 40
0
 40
0
 40
0
 40
1
 40
1
 40
1
 40
1
 10
59.297536
 20
224.610555
 30
0.0
 10
59.601628
 20
224.724502
 30
0.0
 10
59.940605
 20
224.570140
 30
0.0
 10
60.054905
 20
224.266046
 30
0.0
  0
LWPOLYLINE
  5
1b6
100
AcDbEntity
  8
Mansoane
 62
7
100
AcDbPolyline
 90
2
 70
0
 10
59.287613
 20
224.606144
 30
0.0
 10
59.297536
 20
224.610555
 30
0.0
  0
SPLINE
  5
1b7
100
AcDbEntity
  8
Mansoane
 62
7
100
AcDbSpline
 70
8
 71
3
 72
8
 73
4
 74
0
 40
0
 40
0
 40
0
 40
0
 40
1
 40
1
 40
1
 40
1
 10
60.398863
 20
223.351578
 30
0.0
 10
60.510694
 20
223.007973
 30
0.0
 10
60.597652
 20
222.657532
 30
0.0
 10
60.764869
 20
222.325215
 30
0.0
  0
SPLINE
  5
1b8
100
AcDbEntity
  8
Mansoane
 62
7
100
AcDbSpline
 70
8
 71
3
 72
8
 73
4
 74
0
 40
0
 40
0
 40
0
 40
0
 40
1
 40
1
 40
1
 40
1
 10
60.764869
 20
222.325215
 30
0.0
 10
60.848124
 20
222.159057
 30
0.0
 10
61.075514
 20
222.031286
 30
0.0
 10
61.312227
 20
222.054570
 30
0.0
  0
SPLINE
  5
1b9
100
AcDbEntity
  8
Mansoane
 62
7
100
AcDbSpline
 70
8
 71
3
 72
8
 73
4
 74
0
 40
0
 40
0
 40
0
 40
0
 40
1
 40
1
 40
1
 40
1
 10
61.312227
 20
222.054570
 30
0.0
 10
61.364439
 20
222.059861
 30
0.0
 10
61.441367
 20
221.996536
 30
0.0
 10
61.475936
 20
221.944325
 30
0.0
  0
SPLINE
  5
1ba
100
AcDbEntity
  8
Mansoane
 62
7
100
AcDbSpline
 70
8
 71
3
 72
8
 73
4
 74
0
 40
0
 40
0
 40
0
 40
0
 40
1
 40
1
 40
1
 40
1
 10
61.475936
 20
221.944325
 30
0.0
 10
61.575419
 20
221.793336
 30
0.0
 10
61.653826
 20
221.628346
 30
0.0
 10
61.751546
 20
221.475241
 30
0.0
  0
SPLINE
  5
1bb
100
AcDbEntity
  8
Mansoane
 62
7
100
AcDbSpline
 70
8
 71
3
 72
8
 73
4
 74
0
 40
0
 40
0
 40
0
 40
0
 40
1
 40
1
 40
1
 40
1
 10
61.751546
 20
221.475241
 30
0.0
 10
61.825982
 20
221.358119
 30
0.0
 10
61.906328
 20
221.240116
 30
0.0
 10
62.005103
 20
221.144513
 30
0.0
  0
SPLINE
  5
1bc
100
AcDbEntity
  8
Mansoane
 62
7
100
AcDbSpline
 70
8
 71
3
 72
8
 73
4
 74
0
 40
0
 40
0
 40
0
 40
0
 40
1
 40
1
 40
1
 40
1
 10
62.005103
 20
221.144513
 30
0.0
 10
62.111642
 20
221.041502
 30
0.0
 10
62.220630
 20
221.088596
 30
0.0
 10
62.238269
 20
221.237116
 30
0.0
  0
SPLINE
  5
1bd
100
AcDbEntity
  8
Mansoane
 62
7
100
AcDbSpline
 70
8
 71
3
 72
8
 73
4
 74
0
 40
0
 40
0
 40
0
 40
0
 40
1
 40
1
 40
1
 40
1
 10
62.238269
 20
221.237116
 30
0.0
 10
62.246383
 20
221.303438
 30
0.0
 10
62.222394
 20
221.373531
 30
0.0
 10
62.211811
 20
221.441617
 30
0.0
  0
SPLINE
  5
1be
100
AcDbEntity
  8
Mansoane
 62
7
100
AcDbSpline
 70
8
 71
3
 72
8
 73
4
 74
0
 40
0
 40
0
 40
0
 40
0
 40
1
 40
1
 40
1
 40
1
 10
62.211811
 20
221.441617
 30
0.0
 10
62.166655
 20
221.720664
 30
0.0
 10
62.120859
 20
221.999316
 30
0.0
 10
62.076762
 20
222.278363
 30
0.0
  0
SPLINE
  5
1bf
100
AcDbEntity
  8
Mansoane
 62
7
100
AcDbSpline
 70
8
 71
3
 72
8
 73
4
 74
0
 40
0
 40
0
 40
0
 40
0
 40
1
 40
1
 40
1
 40
1
 10
62.076762
 20
222.278363
 30
0.0
 10
62.076409
 20
222.284008
 30
0.0
 10
62.097708
 20
222.293180
 30
0.0
 10
62.141806
 20
222.322461
 30
0.0
  0
SPLINE
  5
1c0
100
AcDbEntity
  8
Mansoane
 62
7
100
AcDbSpline
 70
8
 71
3
 72
8
 73
4
 74
0
 40
0
 40
0
 40
0
 40
0
 40
1
 40
1
 40
1
 40
1
 10
62.141806
 20
222.322461
 30
0.0
 10
62.253636
 20
222.121024
 30
0.0
 10
62.369875
 20
221.924285
 30
0.0
 10
62.472536
 20
221.721085
 30
0.0
  0
SPLINE
  5
1c1
100
AcDbEntity
  8
Mansoane
 62
7
100
AcDbSpline
 70
8
 71
3
 72
8
 73
4
 74
0
 40
0
 40
0
 40
0
 40
0
 40
1
 40
1
 40
1
 40
1
 10
62.472536
 20
221.721085
 30
0.0
 10
62.550853
 20
221.566215
 30
0.0
 10
62.660962
 20
221.404510
 30
0.0
 10
62.667665
 20
221.241527
 30
0.0
  0
SPLINE
  5
1c2
100
AcDbEntity
  8
Mansoane
 62
7
100
AcDbSpline
 70
8
 71
3
 72
8
 73
4
 74
0
 40
0
 40
0
 40
0
 40
0
 40
1
 40
1
 40
1
 40
1
 10
62.667665
 20
221.241527
 30
0.0
 10
62.678601
 20
220.997052
 30
0.0
 10
62.789460
 20
220.812857
 30
0.0
 10
62.916813
 20
220.631882
 30
0.0
  0
SPLINE
  5
1c3
100
AcDbEntity
  8
Mansoane
 62
7
100
AcDbSpline
 70
8
 71
3
 72
8
 73
4
 74
0
 40
0
 40
0
 40
0
 40
0
 40
1
 40
1
 40
1
 40
1
 10
62.916813
 20
220.631882
 30
0.0
 10
62.958088
 20
220.572968
 30
0.0
 10
63.079754
 20
220.515708
 30
0.0
 10
63.136199
 20
220.536522
 30
0.0
  0
SPLINE
  5
1c4
100
AcDbEntity
  8
Mansoane
 62
7
100
AcDbSpline
 70
8
 71
3
 72
8
 73
4
 74
0
 40
0
 40
0
 40
0
 40
0
 40
1
 40
1
 40
1
 40
1
 10
63.136199
 20
220.536522
 30
0.0
 10
63.195465
 20
220.558394
 30
0.0
 10
63.261477
 20
220.679507
 30
0.0
 10
63.251952
 20
220.746534
 30
0.0
  0
SPLINE
  5
1c5
100
AcDbEntity
  8
Mansoane
 62
7
100
AcDbSpline
 70
8
 71
3
 72
8
 73
4
 74
0
 40
0
 40
0
 40
0
 40
0
 40
1
 40
1
 40
1
 40
1
 10
63.251952
 20
220.746534
 30
0.0
 10
63.231138
 20
220.887998
 30
0.0
 10
63.168081
 20
221.025187
 30
0.0
 10
63.113048
 20
221.159948
 30
0.0
  0
SPLINE
  5
1c6
100
AcDbEntity
  8
Mansoane
 62
7
100
AcDbSpline
 70
8
 71
3
 72
8
 73
4
 74
0
 40
0
 40
0
 40
0
 40
0
 40
1
 40
1
 40
1
 40
1
 10
63.113048
 20
221.159948
 30
0.0
 10
63.034378
 20
221.353270
 30
0.0
 10
62.946955
 20
221.542006
 30
0.0
 10
62.863346
 20
221.733212
 30
0.0
  0
SPLINE
  5
1c7
100
AcDbEntity
  8
Mansoane
 62
7
100
AcDbSpline
 70
8
 71
3
 72
8
 73
4
 74
0
 40
0
 40
0
 40
0
 40
0
 40
1
 40
1
 40
1
 40
1
 10
62.863346
 20
221.733212
 30
0.0
 10
62.899330
 20
221.757200
 30
0.0
 10
62.890950
 20
221.751666
 30
0.0
 10
62.927286
 20
221.775655
 30
0.0
  0
SPLINE
  5
1c8
100
AcDbEntity
  8
Mansoane
 62
7
100
AcDbSpline
 70
8
 71
3
 72
8
 73
4
 74
0
 40
0
 40
0
 40
0
 40
0
 40
1
 40
1
 40
1
 40
1
 10
62.927286
 20
221.775655
 30
0.0
 10
63.011953
 20
221.689224
 30
0.0
 10
63.091881
 20
221.596907
 30
0.0
 10
63.183603
 20
221.518237
 30
0.0
  0
SPLINE
  5
1c9
100
AcDbEntity
  8
Mansoane
 62
7
100
AcDbSpline
 70
8
 71
3
 72
8
 73
4
 74
0
 40
0
 40
0
 40
0
 40
0
 40
1
 40
1
 40
1
 40
1
 10
63.183603
 20
221.518237
 30
0.0
 10
63.231228
 20
221.477668
 30
0.0
 10
63.308662
 20
221.427661
 30
0.0
 10
63.355581
 20
221.441066
 30
0.0
  0
SPLINE
  5
1ca
100
AcDbEntity
  8
Mansoane
 62
7
100
AcDbSpline
 70
8
 71
3
 72
8
 73
4
 74
0
 40
0
 40
0
 40
0
 40
0
 40
1
 40
1
 40
1
 40
1
 10
63.355581
 20
221.441066
 30
0.0
 10
63.406734
 20
221.455178
 30
0.0
 10
63.471690
 20
221.539537
 30
0.0
 10
63.471338
 20
221.592100
 30
0.0
  0
SPLINE
  5
1cb
100
AcDbEntity
  8
Mansoane
 62
7
100
AcDbSpline
 70
8
 71
3
 72
8
 73
4
 74
0
 40
0
 40
0
 40
0
 40
0
 40
1
 40
1
 40
1
 40
1
 10
63.471338
 20
221.592100
 30
0.0
 10
63.469574
 20
221.720159
 30
0.0
 10
63.442322
 20
221.850069
 30
0.0
 10
63.407397
 20
221.973541
 30
0.0
  0
SPLINE
  5
1cc
100
AcDbEntity
  8
Mansoane
 62
7
100
AcDbSpline
 70
8
 71
3
 72
8
 73
4
 74
0
 40
0
 40
0
 40
0
 40
0
 40
1
 40
1
 40
1
 40
1
 10
63.407397
 20
221.973541
 30
0.0
 10
63.383053
 20
222.059266
 30
0.0
 10
63.324977
 20
222.134430
 30
0.0
 10
63.287230
 20
222.216627
 30
0.0
  0
SPLINE
  5
1cd
100
AcDbEntity
  8
Mansoane
 62
7
100
AcDbSpline
 70
8
 71
3
 72
8
 73
4
 74
0
 40
0
 40
0
 40
0
 40
0
 40
1
 40
1
 40
1
 40
1
 10
63.287230
 20
222.216627
 30
0.0
 10
63.107313
 20
222.609269
 30
0.0
 10
62.625486
 20
223.989378
 30
0.0
 10
62.437809
 20
224.378492
 30
0.0
  0
LWPOLYLINE
  5
1ce
100
AcDbEntity
  8
Mansoane
 62
7
100
AcDbPolyline
 90
2
 70
0
 10
60.054905
 20
224.266046
 30
0.0
 10
60.398863
 20
223.351578
 30
0.0
  0
SPLINE
  5
1cf
100
AcDbEntity
  8
Mansoane
 62
7
100
AcDbSpline
 70
8
 71
3
 72
8
 73
4
 74
0
 40
0
 40
0
 40
0
 40
0
 40
1
 40
1
 40
1
 40
1
 10
62.122513
 20
225.214135
 30
0.0
 10
61.949652
 20
225.674157
 30
0.0
 10
62.067480
 20
226.193666
 30
0.0
 10
62.422374
 20
226.533744
 30
0.0
  0
LWPOLYLINE
  5
1d0
100
AcDbEntity
  8
Mansoane
 62
7
100
AcDbPolyline
 90
3
 70
0
 10
62.437809
 20
224.378492
 30
0.0
 10
62.436705
 20
224.378492
 30
0.0
 10
62.122513
 20
225.214135
 30
0.0
  0
SPLINE
  5
1d1
100
AcDbEntity
  8
Mansoane
 62
7
100
AcDbSpline
 70
8
 71
3
 72
8
 73
4
 74
0
 40
0
 40
0
 40
0
 40
0
 40
1
 40
1
 40
1
 40
1
 10
62.433951
 20
226.544767
 30
0.0
 10
62.730990
 20
226.829459
 30
0.0
 10
63.212794
 20
226.780161
 30
0.0
 10
63.445980
 20
226.441141
 30
0.0
  0
LWPOLYLINE
  5
1d2
100
AcDbEntity
  8
Mansoane
 62
7
100
AcDbPolyline
 90
2
 70
0
 10
62.422374
 20
226.533744
 30
0.0
 10
62.433951
 20
226.544767
 30
0.0
  0
SPLINE
  5
1d3
100
AcDbEntity
  8
Mansoane
 62
7
100
AcDbSpline
 70
8
 71
3
 72
8
 73
4
 74
0
 40
0
 40
0
 40
0
 40
0
 40
1
 40
1
 40
1
 40
1
 10
63.492284
 20
226.373893
 30
0.0
 10
63.744520
 20
225.953029
 30
0.0
 10
63.694073
 20
226.008325
 30
0.0
 10
64.347770
 20
225.498561
 30
0.0
  0
SPLINE
  5
1d4
100
AcDbEntity
  8
Mansoane
 62
7
100
AcDbSpline
 70
8
 71
3
 72
8
 73
4
 74
0
 40
0
 40
0
 40
0
 40
0
 40
1
 40
1
 40
1
 40
1
 10
64.347770
 20
225.498561
 30
0.0
 10
65.001820
 20
224.989150
 30
0.0
 10
65.145864
 20
225.719953
 30
0.0
 10
65.272158
 20
226.019462
 30
0.0
  0
SPLINE
  5
1d5
100
AcDbEntity
  8
Mansoane
 62
7
100
AcDbSpline
 70
8
 71
3
 72
8
 73
4
 74
0
 40
0
 40
0
 40
0
 40
0
 40
1
 40
1
 40
1
 40
1
 10
65.272158
 20
226.019462
 30
0.0
 10
65.399158
 20
226.318617
 30
0.0
 10
65.400569
 20
226.019572
 30
0.0
 10
65.766047
 20
225.709127
 30
0.0
  0
SPLINE
  5
1d6
100
AcDbEntity
  8
Mansoane
 62
7
100
AcDbSpline
 70
8
 71
3
 72
8
 73
4
 74
0
 40
0
 40
0
 40
0
 40
0
 40
1
 40
1
 40
1
 40
1
 10
65.766047
 20
225.709127
 30
0.0
 10
66.131877
 20
225.399036
 30
0.0
 10
66.065730
 20
225.188074
 30
0.0
 10
66.608302
 20
224.844822
 30
0.0
  0
SPLINE
  5
1d7
100
AcDbEntity
  8
Mansoane
 62
7
100
AcDbSpline
 70
8
 71
3
 72
8
 73
4
 74
0
 40
0
 40
0
 40
0
 40
0
 40
1
 40
1
 40
1
 40
1
 10
66.608302
 20
224.844822
 30
0.0
 10
67.151580
 20
224.501216
 30
0.0
 10
67.007715
 20
224.844799
 30
0.0
 10
66.852492
 20
225.166180
 30
0.0
  0
SPLINE
  5
1d8
100
AcDbEntity
  8
Mansoane
 62
7
100
AcDbSpline
 70
8
 71
3
 72
8
 73
4
 74
0
 40
0
 40
0
 40
0
 40
0
 40
1
 40
1
 40
1
 40
1
 10
66.852492
 20
225.166180
 30
0.0
 10
66.697270
 20
225.487560
 30
0.0
 10
65.943847
 20
226.030065
 30
0.0
 10
66.065908
 20
226.218448
 30
0.0
  0
SPLINE
  5
1d9
100
AcDbEntity
  8
Mansoane
 62
7
100
AcDbSpline
 70
8
 71
3
 72
8
 73
4
 74
0
 40
0
 40
0
 40
0
 40
0
 40
1
 40
1
 40
1
 40
1
 10
66.065908
 20
226.218448
 30
0.0
 10
66.187616
 20
226.406831
 30
0.0
 10
66.475658
 20
226.041354
 30
0.0
 10
66.608302
 20
226.130254
 30
0.0
  0
SPLINE
  5
1da
100
AcDbEntity
  8
Mansoane
 62
7
100
AcDbSpline
 70
8
 71
3
 72
8
 73
4
 74
0
 40
0
 40
0
 40
0
 40
0
 40
1
 40
1
 40
1
 40
1
 10
66.608302
 20
226.130254
 30
0.0
 10
66.741652
 20
226.218801
 30
0.0
 10
66.331925
 20
226.606549
 30
0.0
 10
66.176703
 20
226.783996
 30
0.0
  0
SPLINE
  5
1db
100
AcDbEntity
  8
Mansoane
 62
7
100
AcDbSpline
 70
8
 71
3
 72
8
 73
4
 74
0
 40
0
 40
0
 40
0
 40
0
 40
1
 40
1
 40
1
 40
1
 10
66.176703
 20
226.783996
 30
0.0
 10
66.021478
 20
226.961443
 30
0.0
 10
65.272158
 20
227.788309
 30
0.0
 10
65.272158
 20
227.788309
 30
0.0
  0
LWPOLYLINE
  5
1dc
100
AcDbEntity
  8
Mansoane
 62
7
100
AcDbPolyline
 90
2
 70
0
 10
63.445980
 20
226.441141
 30
0.0
 10
63.492284
 20
226.373893
 30
0.0
  0
SPLINE
  5
1dd
100
AcDbEntity
  8
Mansoane
 62
7
100
AcDbSpline
 70
8
 71
3
 72
8
 73
4
 74
0
 40
0
 40
0
 40
0
 40
0
 40
1
 40
1
 40
1
 40
1
 10
64.885203
 20
228.352203
 30
0.0
 10
64.227273
 20
229.308584
 30
0.0
 10
63.950365
 20
230.480094
 30
0.0
 10
64.131692
 20
231.626974
 30
0.0
  0
SPLINE
  5
1de
100
AcDbEntity
  8
Mansoane
 62
7
100
AcDbSpline
 70
8
 71
3
 72
8
 73
4
 74
0
 40
0
 40
0
 40
0
 40
0
 40
1
 40
1
 40
1
 40
1
 10
64.131692
 20
231.626974
 30
0.0
 10
64.133809
 20
231.638616
 30
0.0
 10
64.135087
 20
231.650611
 30
0.0
 10
64.137204
 20
231.662252
 30
0.0
  0
SPLINE
  5
1df
100
AcDbEntity
  8
Mansoane
 62
7
100
AcDbSpline
 70
8
 71
3
 72
8
 73
4
 74
0
 40
0
 40
0
 40
0
 40
0
 40
1
 40
1
 40
1
 40
1
 10
64.137204
 20
231.662252
 30
0.0
 10
64.262440
 20
232.425663
 30
0.0
 10
64.523120
 20
233.131481
 30
0.0
 10
64.917173
 20
233.776712
 30
0.0
  0
SPLINE
  5
1e0
100
AcDbEntity
  8
Mansoane
 62
7
100
AcDbSpline
 70
8
 71
3
 72
8
 73
4
 74
0
 40
0
 40
0
 40
0
 40
0
 40
1
 40
1
 40
1
 40
1
 10
64.917173
 20
233.776712
 30
0.0
 10
65.750434
 20
235.141256
 30
0.0
 10
67.246898
 20
235.960076
 30
0.0
 10
68.845687
 20
235.960076
 30
0.0
  0
LWPOLYLINE
  5
1e1
100
AcDbEntity
  8
Mansoane
 62
7
100
AcDbPolyline
 90
2
 70
0
 10
65.272158
 20
227.788309
 30
0.0
 10
64.885203
 20
228.352203
 30
0.0
  0
SPLINE
  5
1e2
100
AcDbEntity
  8
Mansoane
 62
7
100
AcDbSpline
 70
8
 71
3
 72
8
 73
4
 74
0
 40
0
 40
0
 40
0
 40
0
 40
1
 40
1
 40
1
 40
1
 10
69.467456
 20
235.960076
 30
0.0
 10
69.554945
 20
235.960076
 30
0.0
 10
69.639061
 20
235.991674
 30
0.0
 10
69.705031
 20
236.048824
 30
0.0
  0
LWPOLYLINE
  5
1e3
100
AcDbEntity
  8
Mansoane
 62
7
100
AcDbPolyline
 90
2
 70
0
 10
68.845687
 20
235.960076
 30
0.0
 10
69.467456
 20
235.960076
 30
0.0
  0
SPLINE
  5
1e4
100
AcDbEntity
  8
Mansoane
 62
7
100
AcDbSpline
 70
8
 71
3
 72
8
 73
4
 74
0
 40
0
 40
0
 40
0
 40
0
 40
1
 40
1
 40
1
 40
1
 10
69.798187
 20
236.128749
 30
0.0
 10
69.787603
 20
235.822185
 30
0.0
 10
69.790889
 20
235.545562
 30
0.0
 10
69.928825
 20
235.430909
 30
0.0
  0
SPLINE
  5
1e5
100
AcDbEntity
  8
Mansoane
 62
7
100
AcDbSpline
 70
8
 71
3
 72
8
 73
4
 74
0
 40
0
 40
0
 40
0
 40
0
 40
1
 40
1
 40
1
 40
1
 10
69.928825
 20
235.430909
 30
0.0
 10
70.270666
 20
235.148687
 30
0.0
 10
70.854954
 20
235.090214
 30
0.0
 10
71.342140
 20
235.071519
 30
0.0
  0
SPLINE
  5
1e6
100
AcDbEntity
  8
Mansoane
 62
7
100
AcDbSpline
 70
8
 71
3
 72
8
 73
4
 74
0
 40
0
 40
0
 40
0
 40
0
 40
1
 40
1
 40
1
 40
1
 10
71.342140
 20
235.071519
 30
0.0
 10
71.856137
 20
235.051764
 30
0.0
 10
72.383452
 20
235.161034
 30
0.0
 10
72.892158
 20
235.272159
 30
0.0
  0
SPLINE
  5
1e7
100
AcDbEntity
  8
Mansoane
 62
7
100
AcDbSpline
 70
8
 71
3
 72
8
 73
4
 74
0
 40
0
 40
0
 40
0
 40
0
 40
1
 40
1
 40
1
 40
1
 10
72.892158
 20
235.272159
 30
0.0
 10
73.102061
 20
235.318373
 30
0.0
 10
73.430122
 20
235.502854
 30
0.0
 10
73.442822
 20
235.646434
 30
0.0
  0
SPLINE
  5
1e8
100
AcDbEntity
  8
Mansoane
 62
7
100
AcDbSpline
 70
8
 71
3
 72
8
 73
4
 74
0
 40
0
 40
0
 40
0
 40
0
 40
1
 40
1
 40
1
 40
1
 10
73.442822
 20
235.646434
 30
0.0
 10
73.477747
 20
236.059537
 30
0.0
 10
73.631490
 20
236.513762
 30
0.0
 10
73.154534
 20
236.872890
 30
0.0
  0
SPLINE
  5
1e9
100
AcDbEntity
  8
Mansoane
 62
7
100
AcDbSpline
 70
8
 71
3
 72
8
 73
4
 74
0
 40
0
 40
0
 40
0
 40
0
 40
1
 40
1
 40
1
 40
1
 10
73.154534
 20
236.872890
 30
0.0
 10
72.953804
 20
237.023879
 30
0.0
 10
72.784758
 20
237.548129
 30
0.0
 10
72.892708
 20
237.715699
 30
0.0
  0
SPLINE
  5
1ea
100
AcDbEntity
  8
Mansoane
 62
7
100
AcDbSpline
 70
8
 71
3
 72
8
 73
4
 74
0
 40
0
 40
0
 40
0
 40
0
 40
1
 40
1
 40
1
 40
1
 10
72.892708
 20
237.715699
 30
0.0
 10
73.216558
 20
238.220524
 30
0.0
 10
73.656760
 20
238.662464
 30
0.0
 10
74.103730
 20
239.071686
 30
0.0
  0
SPLINE
  5
1eb
100
AcDbEntity
  8
Mansoane
 62
7
100
AcDbSpline
 70
8
 71
3
 72
8
 73
4
 74
0
 40
0
 40
0
 40
0
 40
0
 40
1
 40
1
 40
1
 40
1
 10
74.103730
 20
239.071686
 30
0.0
 10
74.435341
 20
239.375781
 30
0.0
 10
74.538614
 20
239.808972
 30
0.0
 10
74.172078
 20
239.939853
 30
0.0
  0
LWPOLYLINE
  5
1ec
100
AcDbEntity
  8
Mansoane
 62
7
100
AcDbPolyline
 90
2
 70
0
 10
69.705031
 20
236.048824
 30
0.0
 10
69.798187
 20
236.128749
 30
0.0
  0
SPLINE
  5
1ed
100
AcDbEntity
  8
Mansoane
 62
7
100
AcDbSpline
 70
8
 71
3
 72
8
 73
4
 74
0
 40
0
 40
0
 40
0
 40
0
 40
1
 40
1
 40
1
 40
1
 10
74.166566
 20
239.941504
 30
0.0
 10
73.859297
 20
240.048042
 30
0.0
 10
73.688377
 20
240.375663
 30
0.0
 10
73.791741
 20
240.683991
 30
0.0
  0
LWPOLYLINE
  5
1ee
100
AcDbEntity
  8
Mansoane
 62
7
100
AcDbPolyline
 90
2
 70
0
 10
74.172078
 20
239.939853
 30
0.0
 10
74.166566
 20
239.941504
 30
0.0
  0
SPLINE
  5
1ef
100
AcDbEntity
  8
Mansoane
 62
7
100
AcDbSpline
 70
8
 71
3
 72
8
 73
4
 74
0
 40
0
 40
0
 40
0
 40
0
 40
1
 40
1
 40
1
 40
1
 10
73.843555
 20
240.836679
 30
0.0
 10
73.898588
 20
241.001073
 30
0.0
 10
74.098833
 20
241.062722
 30
0.0
 10
74.237122
 20
240.957947
 30
0.0
  0
LWPOLYLINE
  5
1f0
100
AcDbEntity
  8
Mansoane
 62
7
100
AcDbPolyline
 90
2
 70
0
 10
73.791741
 20
240.683991
 30
0.0
 10
73.843555
 20
240.836679
 30
0.0
  0
SPLINE
  5
1f1
100
AcDbEntity
  8
Mansoane
 62
7
100
AcDbSpline
 70
8
 71
3
 72
8
 73
4
 74
0
 40
0
 40
0
 40
0
 40
0
 40
1
 40
1
 40
1
 40
1
 10
74.239879
 20
240.955740
 30
0.0
 10
74.547149
 20
240.868251
 30
0.0
 10
74.854108
 20
240.712323
 30
0.0
 10
75.158202
 20
240.717615
 30
0.0
  0
SPLINE
  5
1f2
100
AcDbEntity
  8
Mansoane
 62
7
100
AcDbSpline
 70
8
 71
3
 72
8
 73
4
 74
0
 40
0
 40
0
 40
0
 40
0
 40
1
 40
1
 40
1
 40
1
 10
75.158202
 20
240.717615
 30
0.0
 10
75.192774
 20
240.718320
 30
0.0
 10
75.227612
 20
240.725068
 30
0.0
 10
75.261831
 20
240.736357
 30
0.0
  0
SPLINE
  5
1f3
100
AcDbEntity
  8
Mansoane
 62
7
100
AcDbSpline
 70
8
 71
3
 72
8
 73
4
 74
0
 40
0
 40
0
 40
0
 40
0
 40
1
 40
1
 40
1
 40
1
 10
75.261831
 20
240.736357
 30
0.0
 10
75.568748
 20
240.839015
 30
0.0
 10
75.669688
 20
241.225307
 30
0.0
 10
75.465782
 20
241.477190
 30
0.0
  0
SPLINE
  5
1f4
100
AcDbEntity
  8
Mansoane
 62
7
100
AcDbSpline
 70
8
 71
3
 72
8
 73
4
 74
0
 40
0
 40
0
 40
0
 40
0
 40
1
 40
1
 40
1
 40
1
 10
75.465782
 20
241.477190
 30
0.0
 10
75.392404
 20
241.568207
 30
0.0
 10
75.315188
 20
241.655100
 30
0.0
 10
75.228758
 20
241.731300
 30
0.0
  0
SPLINE
  5
1f5
100
AcDbEntity
  8
Mansoane
 62
7
100
AcDbSpline
 70
8
 71
3
 72
8
 73
4
 74
0
 40
0
 40
0
 40
0
 40
0
 40
1
 40
1
 40
1
 40
1
 10
75.228758
 20
241.731300
 30
0.0
 10
75.069655
 20
241.872412
 30
0.0
 10
74.801016
 20
241.894129
 30
0.0
 10
74.651085
 20
242.040531
 30
0.0
  0
SPLINE
  5
1f6
100
AcDbEntity
  8
Mansoane
 62
7
100
AcDbSpline
 70
8
 71
3
 72
8
 73
4
 74
0
 40
0
 40
0
 40
0
 40
0
 40
1
 40
1
 40
1
 40
1
 10
74.651085
 20
242.040531
 30
0.0
 10
74.545252
 20
242.144248
 30
0.0
 10
74.435693
 20
242.220558
 30
0.0
 10
74.324216
 20
242.268186
 30
0.0
  0
SPLINE
  5
1f7
100
AcDbEntity
  8
Mansoane
 62
7
100
AcDbSpline
 70
8
 71
3
 72
8
 73
4
 74
0
 40
0
 40
0
 40
0
 40
0
 40
1
 40
1
 40
1
 40
1
 10
74.324216
 20
242.268186
 30
0.0
 10
74.245193
 20
242.668939
 30
0.0
 10
74.461026
 20
242.510191
 30
0.0
 10
74.909053
 20
242.806169
 30
0.0
  0
SPLINE
  5
1f8
100
AcDbEntity
  8
Mansoane
 62
7
100
AcDbSpline
 70
8
 71
3
 72
8
 73
4
 74
0
 40
0
 40
0
 40
0
 40
0
 40
1
 40
1
 40
1
 40
1
 10
74.909053
 20
242.806169
 30
0.0
 10
75.229023
 20
242.911653
 30
0.0
 10
75.528246
 20
242.965978
 30
0.0
 10
75.779424
 20
243.106030
 30
0.0
  0
SPLINE
  5
1f9
100
AcDbEntity
  8
Mansoane
 62
7
100
AcDbSpline
 70
8
 71
3
 72
8
 73
4
 74
0
 40
0
 40
0
 40
0
 40
0
 40
1
 40
1
 40
1
 40
1
 10
75.779424
 20
243.106030
 30
0.0
 10
76.049652
 20
243.256666
 30
0.0
 10
76.287797
 20
243.474683
 30
0.0
 10
76.516397
 20
243.688114
 30
0.0
  0
SPLINE
  5
1fa
100
AcDbEntity
  8
Mansoane
 62
7
100
AcDbSpline
 70
8
 71
3
 72
8
 73
4
 74
0
 40
0
 40
0
 40
0
 40
0
 40
1
 40
1
 40
1
 40
1
 10
76.516397
 20
243.688114
 30
0.0
 10
76.517808
 20
243.689525
 30
0.0
 10
76.519044
 20
243.691311
 30
0.0
 10
76.520808
 20
243.693075
 30
0.0
  0
SPLINE
  5
1fb
100
AcDbEntity
  8
Mansoane
 62
7
100
AcDbSpline
 70
8
 71
3
 72
8
 73
4
 74
0
 40
0
 40
0
 40
0
 40
0
 40
1
 40
1
 40
1
 40
1
 10
76.520808
 20
243.693075
 30
0.0
 10
76.787155
 20
243.944253
 30
0.0
 10
76.682092
 20
244.393649
 30
0.0
 10
76.332842
 20
244.503363
 30
0.0
  0
SPLINE
  5
1fc
100
AcDbEntity
  8
Mansoane
 62
7
100
AcDbSpline
 70
8
 71
3
 72
8
 73
4
 74
0
 40
0
 40
0
 40
0
 40
0
 40
1
 40
1
 40
1
 40
1
 10
76.332842
 20
244.503363
 30
0.0
 10
76.278161
 20
244.520649
 30
0.0
 10
76.224497
 20
244.533039
 30
0.0
 10
76.172991
 20
244.539742
 30
0.0
  0
SPLINE
  5
1fd
100
AcDbEntity
  8
Mansoane
 62
7
100
AcDbSpline
 70
8
 71
3
 72
8
 73
4
 74
0
 40
0
 40
0
 40
0
 40
0
 40
1
 40
1
 40
1
 40
1
 10
76.172991
 20
244.539742
 30
0.0
 10
76.039289
 20
244.556675
 30
0.0
 10
75.472727
 20
244.885024
 30
0.0
 10
75.573269
 20
245.992746
 30
0.0
  0
SPLINE
  5
1fe
100
AcDbEntity
  8
Mansoane
 62
7
100
AcDbSpline
 70
8
 71
3
 72
8
 73
4
 74
0
 40
0
 40
0
 40
0
 40
0
 40
1
 40
1
 40
1
 40
1
 10
75.573269
 20
245.992746
 30
0.0
 10
75.585969
 20
246.029788
 30
0.0
 10
75.593112
 20
246.068991
 30
0.0
 10
75.593112
 20
246.108502
 30
0.0
  0
LWPOLYLINE
  5
1ff
100
AcDbEntity
  8
Mansoane
 62
7
100
AcDbPolyline
 90
2
 70
0
 10
74.237122
 20
240.957947
 30
0.0
 10
74.239879
 20
240.955740
 30
0.0
  0
SPLINE
  5
200
100
AcDbEntity
  8
Mansoane
 62
7
100
AcDbSpline
 70
8
 71
3
 72
8
 73
4
 74
0
 40
0
 40
0
 40
0
 40
0
 40
1
 40
1
 40
1
 40
1
 10
75.593112
 20
249.102152
 30
0.0
 10
75.593112
 20
249.176235
 30
0.0
 10
75.569851
 20
249.248730
 30
0.0
 10
75.527518
 20
249.309407
 30
0.0
  0
LWPOLYLINE
  5
201
100
AcDbEntity
  8
Mansoane
 62
7
100
AcDbPolyline
 90
2
 70
0
 10
75.593112
 20
246.108502
 30
0.0
 10
75.593112
 20
249.102152
 30
0.0
  0
SPLINE
  5
202
100
AcDbEntity
  8
Mansoane
 62
7
100
AcDbSpline
 70
8
 71
3
 72
8
 73
4
 74
0
 40
0
 40
0
 40
0
 40
0
 40
1
 40
1
 40
1
 40
1
 10
73.302814
 20
252.515277
 30
0.0
 10
73.140536
 20
252.729060
 30
0.0
 10
72.965556
 20
252.977128
 30
0.0
 10
72.791286
 20
253.253353
 30
0.0
  0
LWPOLYLINE
  5
203
100
AcDbEntity
  8
Mansoane
 62
7
100
AcDbPolyline
 90
2
 70
0
 10
75.527518
 20
249.309407
 30
0.0
 10
73.302814
 20
252.515277
 30
0.0
  0
SPLINE
  5
204
100
AcDbEntity
  8
Mansoane
 62
7
100
AcDbSpline
 70
8
 71
3
 72
8
 73
4
 74
0
 40
0
 40
0
 40
0
 40
0
 40
1
 40
1
 40
1
 40
1
 10
72.784671
 20
253.263826
 30
0.0
 10
72.617101
 20
253.529115
 30
0.0
 10
72.451053
 20
253.820179
 30
0.0
 10
72.297948
 20
254.133093
 30
0.0
  0
SPLINE
  5
205
100
AcDbEntity
  8
Mansoane
 62
7
100
AcDbSpline
 70
8
 71
3
 72
8
 73
4
 74
0
 40
0
 40
0
 40
0
 40
0
 40
1
 40
1
 40
1
 40
1
 10
72.297948
 20
254.133093
 30
0.0
 10
71.318284
 20
256.132285
 30
0.0
 10
71.341389
 20
258.049347
 30
0.0
 10
72.364092
 20
259.677769
 30
0.0
  0
SPLINE
  5
206
100
AcDbEntity
  8
Mansoane
 62
7
100
AcDbSpline
 70
8
 71
3
 72
8
 73
4
 74
0
 40
0
 40
0
 40
0
 40
0
 40
1
 40
1
 40
1
 40
1
 10
72.364092
 20
259.677769
 30
0.0
 10
72.406425
 20
259.755028
 30
0.0
 10
72.927568
 20
260.742848
 30
0.0
 10
73.089493
 20
262.395259
 30
0.0
  0
SPLINE
  5
207
100
AcDbEntity
  8
Mansoane
 62
7
100
AcDbSpline
 70
8
 71
3
 72
8
 73
4
 74
0
 40
0
 40
0
 40
0
 40
0
 40
1
 40
1
 40
1
 40
1
 10
73.089493
 20
262.395259
 30
0.0
 10
73.244363
 20
263.979584
 30
0.0
 10
73.090176
 20
266.517775
 30
0.0
 10
71.479393
 20
269.617280
 30
0.0
  0
SPLINE
  5
208
100
AcDbEntity
  8
Mansoane
 62
7
100
AcDbSpline
 70
8
 71
3
 72
8
 73
4
 74
0
 40
0
 40
0
 40
0
 40
0
 40
1
 40
1
 40
1
 40
1
 10
71.479393
 20
269.617280
 30
0.0
 10
71.386965
 20
269.795083
 30
0.0
 10
71.456485
 20
270.014333
 30
0.0
 10
71.634285
 20
270.106761
 30
0.0
  0
SPLINE
  5
209
100
AcDbEntity
  8
Mansoane
 62
7
100
AcDbSpline
 70
8
 71
3
 72
8
 73
4
 74
0
 40
0
 40
0
 40
0
 40
0
 40
1
 40
1
 40
1
 40
1
 10
71.634285
 20
270.106761
 30
0.0
 10
71.811732
 20
270.199189
 30
0.0
 10
72.031533
 20
270.130022
 30
0.0
 10
72.124313
 20
269.951869
 30
0.0
  0
SPLINE
  5
20a
100
AcDbEntity
  8
Mansoane
 62
7
100
AcDbSpline
 70
8
 71
3
 72
8
 73
4
 74
0
 40
0
 40
0
 40
0
 40
0
 40
1
 40
1
 40
1
 40
1
 10
72.124313
 20
269.951869
 30
0.0
 10
73.827877
 20
266.673505
 30
0.0
 10
73.979484
 20
263.970016
 30
0.0
 10
73.806623
 20
262.279503
 30
0.0
  0
SPLINE
  5
20b
100
AcDbEntity
  8
Mansoane
 62
7
100
AcDbSpline
 70
8
 71
3
 72
8
 73
4
 74
0
 40
0
 40
0
 40
0
 40
0
 40
1
 40
1
 40
1
 40
1
 10
73.806623
 20
262.279503
 30
0.0
 10
73.763584
 20
261.857583
 30
0.0
 10
73.699356
 20
261.476450
 30
0.0
 10
73.625273
 20
261.138489
 30
0.0
  0
LWPOLYLINE
  5
20c
100
AcDbEntity
  8
Mansoane
 62
7
100
AcDbPolyline
 90
3
 70
0
 10
72.791286
 20
253.253353
 30
0.0
 10
72.784118
 20
253.263826
 30
0.0
 10
72.784671
 20
253.263826
 30
0.0
  0
SPLINE
  5
20d
100
AcDbEntity
  8
Mansoane
 62
7
100
AcDbSpline
 70
8
 71
3
 72
8
 73
4
 74
0
 40
0
 40
0
 40
0
 40
0
 40
1
 40
1
 40
1
 40
1
 10
72.888297
 20
259.159626
 30
0.0
 10
72.866072
 20
259.098948
 30
0.0
 10
72.842481
 20
259.018800
 30
0.0
 10
72.818845
 20
258.924256
 30
0.0
  0
LWPOLYLINE
  5
20e
100
AcDbEntity
  8
Mansoane
 62
7
100
AcDbPolyline
 90
2
 70
0
 10
73.625273
 20
261.138489
 30
0.0
 10
72.888297
 20
259.159626
 30
0.0
  0
SPLINE
  5
20f
100
AcDbEntity
  8
Mansoane
 62
7
100
AcDbSpline
 70
8
 71
3
 72
8
 73
4
 74
0
 40
0
 40
0
 40
0
 40
0
 40
1
 40
1
 40
1
 40
1
 10
72.686553
 20
258.475017
 30
0.0
 10
72.655509
 20
258.370595
 30
0.0
 10
72.647703
 20
258.264584
 30
0.0
 10
72.658992
 20
258.161925
 30
0.0
  0
SPLINE
  5
210
100
AcDbEntity
  8
Mansoane
 62
7
100
AcDbSpline
 70
8
 71
3
 72
8
 73
4
 74
0
 40
0
 40
0
 40
0
 40
0
 40
1
 40
1
 40
1
 40
1
 10
72.658992
 20
258.161925
 30
0.0
 10
72.555275
 20
257.613003
 30
0.0
 10
72.450985
 20
257.016699
 30
0.0
 10
72.362438
 20
256.761288
 30
0.0
  0
SPLINE
  5
211
100
AcDbEntity
  8
Mansoane
 62
7
100
AcDbSpline
 70
8
 71
3
 72
8
 73
4
 74
0
 40
0
 40
0
 40
0
 40
0
 40
1
 40
1
 40
1
 40
1
 10
72.362438
 20
256.761288
 30
0.0
 10
72.329630
 20
256.667096
 30
0.0
 10
72.273538
 20
256.578681
 30
0.0
 10
72.256605
 20
256.482373
 30
0.0
  0
SPLINE
  5
212
100
AcDbEntity
  8
Mansoane
 62
7
100
AcDbSpline
 70
8
 71
3
 72
8
 73
4
 74
0
 40
0
 40
0
 40
0
 40
0
 40
1
 40
1
 40
1
 40
1
 10
72.256605
 20
256.482373
 30
0.0
 10
72.231558
 20
256.342673
 30
0.0
 10
72.216346
 20
256.197041
 30
0.0
 10
72.229046
 20
256.056282
 30
0.0
  0
SPLINE
  5
213
100
AcDbEntity
  8
Mansoane
 62
7
100
AcDbSpline
 70
8
 71
3
 72
8
 73
4
 74
0
 40
0
 40
0
 40
0
 40
0
 40
1
 40
1
 40
1
 40
1
 10
72.229046
 20
256.056282
 30
0.0
 10
72.234338
 20
255.998074
 30
0.0
 10
72.317305
 20
255.912329
 30
0.0
 10
72.376219
 20
255.901393
 30
0.0
  0
SPLINE
  5
214
100
AcDbEntity
  8
Mansoane
 62
7
100
AcDbSpline
 70
8
 71
3
 72
8
 73
4
 74
0
 40
0
 40
0
 40
0
 40
0
 40
1
 40
1
 40
1
 40
1
 10
72.376219
 20
255.901393
 30
0.0
 10
72.430900
 20
255.891163
 30
0.0
 10
72.511841
 20
255.953624
 30
0.0
 10
72.560877
 20
256.003366
 30
0.0
  0
SPLINE
  5
215
100
AcDbEntity
  8
Mansoane
 62
7
100
AcDbSpline
 70
8
 71
3
 72
8
 73
4
 74
0
 40
0
 40
0
 40
0
 40
0
 40
1
 40
1
 40
1
 40
1
 10
72.560877
 20
256.003366
 30
0.0
 10
72.654716
 20
256.098616
 30
0.0
 10
72.733826
 20
256.207582
 30
0.0
 10
72.818845
 20
256.310946
 30
0.0
  0
SPLINE
  5
216
100
AcDbEntity
  8
Mansoane
 62
7
100
AcDbSpline
 70
8
 71
3
 72
8
 73
4
 74
0
 40
0
 40
0
 40
0
 40
0
 40
1
 40
1
 40
1
 40
1
 10
72.818845
 20
256.310946
 30
0.0
 10
72.862237
 20
256.287662
 30
0.0
 10
72.852780
 20
256.292886
 30
0.0
 10
72.895466
 20
256.269603
 30
0.0
  0
SPLINE
  5
217
100
AcDbEntity
  8
Mansoane
 62
7
100
AcDbSpline
 70
8
 71
3
 72
8
 73
4
 74
0
 40
0
 40
0
 40
0
 40
0
 40
1
 40
1
 40
1
 40
1
 10
72.895466
 20
256.269603
 30
0.0
 10
72.823499
 20
256.051939
 30
0.0
 10
72.747762
 20
255.835291
 30
0.0
 10
72.682145
 20
255.615863
 30
0.0
  0
SPLINE
  5
218
100
AcDbEntity
  8
Mansoane
 62
7
100
AcDbSpline
 70
8
 71
3
 72
8
 73
4
 74
0
 40
0
 40
0
 40
0
 40
0
 40
1
 40
1
 40
1
 40
1
 10
72.682145
 20
255.615863
 30
0.0
 10
72.635578
 20
255.462052
 30
0.0
 10
72.580808
 20
255.305571
 30
0.0
 10
72.574105
 20
255.147880
 30
0.0
  0
SPLINE
  5
219
100
AcDbEntity
  8
Mansoane
 62
7
100
AcDbSpline
 70
8
 71
3
 72
8
 73
4
 74
0
 40
0
 40
0
 40
0
 40
0
 40
1
 40
1
 40
1
 40
1
 10
72.574105
 20
255.147880
 30
0.0
 10
72.571283
 20
255.073091
 30
0.0
 10
72.659852
 20
254.945938
 30
0.0
 10
72.728997
 20
254.927947
 30
0.0
  0
SPLINE
  5
21a
100
AcDbEntity
  8
Mansoane
 62
7
100
AcDbSpline
 70
8
 71
3
 72
8
 73
4
 74
0
 40
0
 40
0
 40
0
 40
0
 40
1
 40
1
 40
1
 40
1
 10
72.728997
 20
254.927947
 30
0.0
 10
72.794614
 20
254.910661
 30
0.0
 10
72.924856
 20
254.985382
 30
0.0
 10
72.964367
 20
255.054173
 30
0.0
  0
SPLINE
  5
21b
100
AcDbEntity
  8
Mansoane
 62
7
100
AcDbSpline
 70
8
 71
3
 72
8
 73
4
 74
0
 40
0
 40
0
 40
0
 40
0
 40
1
 40
1
 40
1
 40
1
 10
72.964367
 20
255.054173
 30
0.0
 10
73.086428
 20
255.265487
 30
0.0
 10
73.189857
 20
255.479028
 30
0.0
 10
73.173277
 20
255.749256
 30
0.0
  0
SPLINE
  5
21c
100
AcDbEntity
  8
Mansoane
 62
7
100
AcDbSpline
 70
8
 71
3
 72
8
 73
4
 74
0
 40
0
 40
0
 40
0
 40
0
 40
1
 40
1
 40
1
 40
1
 10
73.173277
 20
255.749256
 30
0.0
 10
73.162341
 20
255.928820
 30
0.0
 10
73.267491
 20
256.117358
 30
0.0
 10
73.336988
 20
256.295511
 30
0.0
  0
SPLINE
  5
21d
100
AcDbEntity
  8
Mansoane
 62
7
100
AcDbSpline
 70
8
 71
3
 72
8
 73
4
 74
0
 40
0
 40
0
 40
0
 40
0
 40
1
 40
1
 40
1
 40
1
 10
73.336988
 20
256.295511
 30
0.0
 10
73.428710
 20
256.529050
 30
0.0
 10
73.536000
 20
256.755908
 30
0.0
 10
73.637953
 20
256.988389
 30
0.0
  0
SPLINE
  5
21e
100
AcDbEntity
  8
Mansoane
 62
7
100
AcDbSpline
 70
8
 71
3
 72
8
 73
4
 74
0
 40
0
 40
0
 40
0
 40
0
 40
1
 40
1
 40
1
 40
1
 10
73.637953
 20
256.988389
 30
0.0
 10
73.690869
 20
256.960872
 30
0.0
 10
73.716577
 20
256.952493
 30
0.0
 10
73.716224
 20
256.946496
 30
0.0
  0
SPLINE
  5
21f
100
AcDbEntity
  8
Mansoane
 62
7
100
AcDbSpline
 70
8
 71
3
 72
8
 73
4
 74
0
 40
0
 40
0
 40
0
 40
0
 40
1
 40
1
 40
1
 40
1
 10
73.716224
 20
256.946496
 30
0.0
 10
73.699644
 20
256.634993
 30
0.0
 10
73.681102
 20
256.324241
 30
0.0
 10
73.662757
 20
256.012738
 30
0.0
  0
SPLINE
  5
220
100
AcDbEntity
  8
Mansoane
 62
7
100
AcDbSpline
 70
8
 71
3
 72
8
 73
4
 74
0
 40
0
 40
0
 40
0
 40
0
 40
1
 40
1
 40
1
 40
1
 10
73.662757
 20
256.012738
 30
0.0
 10
73.658524
 20
255.936891
 30
0.0
 10
73.639759
 20
255.857801
 30
0.0
 10
73.656692
 20
255.786187
 30
0.0
  0
SPLINE
  5
221
100
AcDbEntity
  8
Mansoane
 62
7
100
AcDbSpline
 70
8
 71
3
 72
8
 73
4
 74
0
 40
0
 40
0
 40
0
 40
0
 40
1
 40
1
 40
1
 40
1
 10
73.656692
 20
255.786187
 30
0.0
 10
73.694440
 20
255.623909
 30
0.0
 10
73.822498
 20
255.582790
 30
0.0
 10
73.930095
 20
255.706262
 30
0.0
  0
SPLINE
  5
222
100
AcDbEntity
  8
Mansoane
 62
7
100
AcDbSpline
 70
8
 71
3
 72
8
 73
4
 74
0
 40
0
 40
0
 40
0
 40
0
 40
1
 40
1
 40
1
 40
1
 10
73.930095
 20
255.706262
 30
0.0
 10
74.030284
 20
255.820915
 30
0.0
 10
74.106286
 20
255.959249
 30
0.0
 10
74.176489
 20
256.095421
 30
0.0
  0
SPLINE
  5
223
100
AcDbEntity
  8
Mansoane
 62
7
100
AcDbSpline
 70
8
 71
3
 72
8
 73
4
 74
0
 40
0
 40
0
 40
0
 40
0
 40
1
 40
1
 40
1
 40
1
 10
74.176489
 20
256.095421
 30
0.0
 10
74.268564
 20
256.272515
 30
0.0
 10
74.337158
 20
256.461779
 30
0.0
 10
74.431703
 20
256.637815
 30
0.0
  0
SPLINE
  5
224
100
AcDbEntity
  8
Mansoane
 62
7
100
AcDbSpline
 70
8
 71
3
 72
8
 73
4
 74
0
 40
0
 40
0
 40
0
 40
0
 40
1
 40
1
 40
1
 40
1
 10
74.431703
 20
256.637815
 30
0.0
 10
74.464508
 20
256.698140
 30
0.0
 10
74.543663
 20
256.775421
 30
0.0
 10
74.602577
 20
256.775069
 30
0.0
  0
SPLINE
  5
225
100
AcDbEntity
  8
Mansoane
 62
7
100
AcDbSpline
 70
8
 71
3
 72
8
 73
4
 74
0
 40
0
 40
0
 40
0
 40
0
 40
1
 40
1
 40
1
 40
1
 10
74.602577
 20
256.775069
 30
0.0
 10
74.871394
 20
256.772246
 30
0.0
 10
75.040022
 20
256.880019
 30
0.0
 10
75.114105
 20
257.070519
 30
0.0
  0
SPLINE
  5
226
100
AcDbEntity
  8
Mansoane
 62
7
100
AcDbSpline
 70
8
 71
3
 72
8
 73
4
 74
0
 40
0
 40
0
 40
0
 40
0
 40
1
 40
1
 40
1
 40
1
 10
75.114105
 20
257.070519
 30
0.0
 10
75.211824
 20
257.320285
 30
0.0
 10
75.263220
 20
257.618758
 30
0.0
 10
75.327425
 20
257.904508
 30
0.0
  0
LWPOLYLINE
  5
227
100
AcDbEntity
  8
Mansoane
 62
7
100
AcDbPolyline
 90
2
 70
0
 10
72.818845
 20
258.924256
 30
0.0
 10
72.686553
 20
258.475017
 30
0.0
  0
SPLINE
  5
228
100
AcDbEntity
  8
Mansoane
 62
7
100
AcDbSpline
 70
8
 71
3
 72
8
 73
4
 74
0
 40
0
 40
0
 40
0
 40
0
 40
1
 40
1
 40
1
 40
1
 10
75.766744
 20
260.507347
 30
0.0
 10
75.981938
 20
262.050397
 30
0.0
 10
76.011552
 20
263.817966
 30
0.0
 10
75.717688
 20
265.798464
 30
0.0
  0
SPLINE
  5
229
100
AcDbEntity
  8
Mansoane
 62
7
100
AcDbSpline
 70
8
 71
3
 72
8
 73
4
 74
0
 40
0
 40
0
 40
0
 40
0
 40
1
 40
1
 40
1
 40
1
 10
75.717688
 20
265.798464
 30
0.0
 10
75.784363
 20
266.264480
 30
0.0
 10
75.845018
 20
266.696348
 30
0.0
 10
75.933213
 20
267.480220
 30
0.0
  0
SPLINE
  5
22a
100
AcDbEntity
  8
Mansoane
 62
7
100
AcDbSpline
 70
8
 71
3
 72
8
 73
4
 74
0
 40
0
 40
0
 40
0
 40
0
 40
1
 40
1
 40
1
 40
1
 10
75.933213
 20
267.480220
 30
0.0
 10
76.134296
 20
269.267040
 30
0.0
 10
74.520778
 20
271.498382
 30
0.0
 10
73.562986
 20
272.723932
 30
0.0
  0
LWPOLYLINE
  5
22b
100
AcDbEntity
  8
Mansoane
 62
7
100
AcDbPolyline
 90
2
 70
0
 10
75.327425
 20
257.904508
 30
0.0
 10
75.766744
 20
260.507347
 30
0.0
  0
SPLINE
  5
22c
100
AcDbEntity
  8
Mansoane
 62
7
100
AcDbSpline
 70
8
 71
3
 72
8
 73
4
 74
0
 40
0
 40
0
 40
0
 40
0
 40
1
 40
1
 40
1
 40
1
 10
73.562986
 20
272.724482
 30
0.0
 10
73.257128
 20
273.380296
 30
0.0
 10
72.916455
 20
274.051522
 30
0.0
 10
72.538277
 20
274.736969
 30
0.0
  0
SPLINE
  5
22d
100
AcDbEntity
  8
Mansoane
 62
7
100
AcDbSpline
 70
8
 71
3
 72
8
 73
4
 74
0
 40
0
 40
0
 40
0
 40
0
 40
1
 40
1
 40
1
 40
1
 10
72.538277
 20
274.736969
 30
0.0
 10
72.538277
 20
274.736969
 30
0.0
 10
71.899089
 20
275.817087
 30
0.0
 10
70.669658
 20
277.310042
 30
0.0
  0
SPLINE
  5
22e
100
AcDbEntity
  8
Mansoane
 62
7
100
AcDbSpline
 70
8
 71
3
 72
8
 73
4
 74
0
 40
0
 40
0
 40
0
 40
0
 40
1
 40
1
 40
1
 40
1
 10
70.669658
 20
277.310042
 30
0.0
 10
70.254791
 20
277.991962
 30
0.0
 10
69.833640
 20
278.671632
 30
0.0
 10
69.423359
 20
279.299929
 30
0.0
  0
SPLINE
  5
22f
100
AcDbEntity
  8
Mansoane
 62
7
100
AcDbSpline
 70
8
 71
3
 72
8
 73
4
 74
0
 40
0
 40
0
 40
0
 40
0
 40
1
 40
1
 40
1
 40
1
 10
69.423359
 20
279.299929
 30
0.0
 10
67.906062
 20
281.623324
 30
0.0
 10
69.068885
 20
280.585319
 30
0.0
 10
67.162827
 20
282.092386
 30
0.0
  0
SPLINE
  5
230
100
AcDbEntity
  8
Mansoane
 62
7
100
AcDbSpline
 70
8
 71
3
 72
8
 73
4
 74
0
 40
0
 40
0
 40
0
 40
0
 40
1
 40
1
 40
1
 40
1
 10
67.162827
 20
282.092386
 30
0.0
 10
65.257121
 20
283.599453
 30
0.0
 10
61.111584
 20
284.652229
 30
0.0
 10
61.111584
 20
284.652229
 30
0.0
  0
LWPOLYLINE
  5
231
100
AcDbEntity
  8
Mansoane
 62
7
100
AcDbPolyline
 90
2
 70
0
 10
73.562986
 20
272.723932
 30
0.0
 10
73.562986
 20
272.724482
 30
0.0
  0
SPLINE
  5
232
100
AcDbEntity
  8
Mansoane
 62
7
100
AcDbSpline
 70
8
 71
3
 72
8
 73
4
 74
0
 40
0
 40
0
 40
0
 40
0
 40
1
 40
1
 40
1
 40
1
 10
61.111034
 20
284.652229
 30
0.0
 10
59.011653
 20
285.520768
 30
0.0
 10
56.644182
 20
286.079877
 30
0.0
 10
54.025159
 20
286.079877
 30
0.0
  0
LWPOLYLINE
  5
233
100
AcDbEntity
  8
Mansoane
 62
7
100
AcDbPolyline
 90
2
 70
0
 10
61.111584
 20
284.652229
 30
0.0
 10
61.111034
 20
284.652229
 30
0.0
  0
LWPOLYLINE
  5
234
100
AcDbEntity
  8
Mansoane
 62
7
100
AcDbPolyline
 90
3
 70
0
 10
54.025159
 20
286.079877
 30
0.0
 10
53.866409
 20
286.079877
 30
0.0
 10
53.866409
 20
286.079877
 30
0.0
  0
SPLINE
  5
235
100
AcDbEntity
  8
Mansoane
 62
7
100
AcDbSpline
 70
8
 71
3
 72
8
 73
4
 74
0
 40
0
 40
0
 40
0
 40
0
 40
1
 40
1
 40
1
 40
1
 10
65.880700
 20
281.909382
 30
0.0
 10
65.877877
 20
281.911499
 30
0.0
 10
65.875803
 20
281.913682
 30
0.0
 10
65.872981
 20
281.915446
 30
0.0
  0
LWPOLYLINE
  5
236
100
AcDbEntity
  8
Mansoane
 62
7
100
AcDbPolyline
 90
3
 70
0
 10
65.872981
 20
281.915446
 30
0.0
 10
65.876842
 20
281.914895
 30
0.0
 10
65.880700
 20
281.909382
 30
0.0
  0
LWPOLYLINE
  5
237
100
AcDbEntity
  8
Mansoane
 62
7
100
AcDbPolyline
 90
2
 70
0
 10
65.872981
 20
281.915446
 30
0.0
 10
65.872981
 20
281.915446
 30
0.0
  0
SPLINE
  5
238
100
AcDbEntity
  8
Mansoane
 62
7
100
AcDbSpline
 70
8
 71
3
 72
8
 73
4
 74
0
 40
0
 40
0
 40
0
 40
0
 40
1
 40
1
 40
1
 40
1
 10
56.432868
 20
280.980034
 30
0.0
 10
56.848087
 20
280.980034
 30
0.0
 10
57.184174
 20
280.643594
 30
0.0
 10
57.184174
 20
280.228727
 30
0.0
  0
LWPOLYLINE
  5
239
100
AcDbEntity
  8
Mansoane
 62
7
100
AcDbPolyline
 90
2
 70
0
 10
51.211206
 20
280.980034
 30
0.0
 10
56.432868
 20
280.980034
 30
0.0
  0
SPLINE
  5
23a
100
AcDbEntity
  8
Mansoane
 62
7
100
AcDbSpline
 70
8
 71
3
 72
8
 73
4
 74
0
 40
0
 40
0
 40
0
 40
0
 40
1
 40
1
 40
1
 40
1
 10
57.184174
 20
279.948710
 30
0.0
 10
57.184174
 20
279.034662
 30
0.0
 10
56.443121
 20
278.293410
 30
0.0
 10
55.529426
 20
278.293410
 30
0.0
  0
LWPOLYLINE
  5
23b
100
AcDbEntity
  8
Mansoane
 62
7
100
AcDbPolyline
 90
2
 70
0
 10
57.184174
 20
280.228727
 30
0.0
 10
57.184174
 20
279.948710
 30
0.0
  0
SPLINE
  5
23c
100
AcDbEntity
  8
Mansoane
 62
7
100
AcDbSpline
 70
8
 71
3
 72
8
 73
4
 74
0
 40
0
 40
0
 40
0
 40
0
 40
1
 40
1
 40
1
 40
1
 10
53.682305
 20
278.293410
 30
0.0
 10
53.217696
 20
278.293410
 30
0.0
 10
52.841703
 20
277.917062
 30
0.0
 10
52.841703
 20
277.452807
 30
0.0
  0
LWPOLYLINE
  5
23d
100
AcDbEntity
  8
Mansoane
 62
7
100
AcDbPolyline
 90
2
 70
0
 10
55.529426
 20
278.293410
 30
0.0
 10
53.682305
 20
278.293410
 30
0.0
  0
SPLINE
  5
23e
100
AcDbEntity
  8
Mansoane
 62
7
100
AcDbSpline
 70
8
 71
3
 72
8
 73
4
 74
0
 40
0
 40
0
 40
0
 40
0
 40
1
 40
1
 40
1
 40
1
 10
52.841703
 20
273.680290
 30
0.0
 10
52.841703
 20
273.253429
 30
0.0
 10
53.177347
 20
272.905149
 30
0.0
 10
53.599622
 20
272.884336
 30
0.0
  0
LWPOLYLINE
  5
23f
100
AcDbEntity
  8
Mansoane
 62
7
100
AcDbPolyline
 90
2
 70
0
 10
52.841703
 20
277.452807
 30
0.0
 10
52.841703
 20
273.680290
 30
0.0
  0
SPLINE
  5
240
100
AcDbEntity
  8
Mansoane
 62
7
100
AcDbSpline
 70
8
 71
3
 72
8
 73
4
 74
0
 40
0
 40
0
 40
0
 40
0
 40
1
 40
1
 40
1
 40
1
 10
54.158004
 20
272.884336
 30
0.0
 10
54.450810
 20
272.903386
 30
0.0
 10
54.751752
 20
272.938133
 30
0.0
 10
55.018452
 20
272.915202
 30
0.0
  0
SPLINE
  5
241
100
AcDbEntity
  8
Mansoane
 62
7
100
AcDbSpline
 70
8
 71
3
 72
8
 73
4
 74
0
 40
0
 40
0
 40
0
 40
0
 40
1
 40
1
 40
1
 40
1
 10
55.018452
 20
272.915202
 30
0.0
 10
55.222357
 20
272.897916
 30
0.0
 10
55.373214
 20
272.767346
 30
0.0
 10
55.447297
 20
272.508407
 30
0.0
  0
SPLINE
  5
242
100
AcDbEntity
  8
Mansoane
 62
7
100
AcDbSpline
 70
8
 71
3
 72
8
 73
4
 74
0
 40
0
 40
0
 40
0
 40
0
 40
1
 40
1
 40
1
 40
1
 10
55.447297
 20
272.508407
 30
0.0
 10
55.463525
 20
272.451963
 30
0.0
 10
55.559613
 20
272.396839
 30
0.0
 10
55.626993
 20
272.382728
 30
0.0
  0
SPLINE
  5
243
100
AcDbEntity
  8
Mansoane
 62
7
100
AcDbSpline
 70
8
 71
3
 72
8
 73
4
 74
0
 40
0
 40
0
 40
0
 40
0
 40
1
 40
1
 40
1
 40
1
 10
55.626993
 20
272.382728
 30
0.0
 10
55.822432
 20
272.342158
 30
0.0
 10
56.023205
 20
272.330077
 30
0.0
 10
56.218997
 20
272.292329
 30
0.0
  0
SPLINE
  5
244
100
AcDbEntity
  8
Mansoane
 62
7
100
AcDbSpline
 70
8
 71
3
 72
8
 73
4
 74
0
 40
0
 40
0
 40
0
 40
0
 40
1
 40
1
 40
1
 40
1
 10
56.218997
 20
272.292329
 30
0.0
 10
56.369633
 20
272.263049
 30
0.0
 10
56.523884
 20
272.229049
 30
0.0
 10
56.662173
 20
272.165549
 30
0.0
  0
SPLINE
  5
245
100
AcDbEntity
  8
Mansoane
 62
7
100
AcDbSpline
 70
8
 71
3
 72
8
 73
4
 74
0
 40
0
 40
0
 40
0
 40
0
 40
1
 40
1
 40
1
 40
1
 10
56.662173
 20
272.165549
 30
0.0
 10
56.811045
 20
272.097111
 30
0.0
 10
56.807916
 20
271.962770
 30
0.0
 10
56.663277
 20
271.880573
 30
0.0
  0
SPLINE
  5
246
100
AcDbEntity
  8
Mansoane
 62
7
100
AcDbSpline
 70
8
 71
3
 72
8
 73
4
 74
0
 40
0
 40
0
 40
0
 40
0
 40
1
 40
1
 40
1
 40
1
 10
56.663277
 20
271.880573
 30
0.0
 10
56.599071
 20
271.844589
 30
0.0
 10
56.517424
 20
271.839430
 30
0.0
 10
56.443341
 20
271.822141
 30
0.0
  0
SPLINE
  5
247
100
AcDbEntity
  8
Mansoane
 62
7
100
AcDbSpline
 70
8
 71
3
 72
8
 73
4
 74
0
 40
0
 40
0
 40
0
 40
0
 40
1
 40
1
 40
1
 40
1
 10
56.443341
 20
271.822141
 30
0.0
 10
56.184755
 20
271.762169
 30
0.0
 10
55.925266
 20
271.702177
 30
0.0
 10
55.666680
 20
271.640794
 30
0.0
  0
SPLINE
  5
248
100
AcDbEntity
  8
Mansoane
 62
7
100
AcDbSpline
 70
8
 71
3
 72
8
 73
4
 74
0
 40
0
 40
0
 40
0
 40
0
 40
1
 40
1
 40
1
 40
1
 10
55.666680
 20
271.640794
 30
0.0
 10
55.674793
 20
271.594580
 30
0.0
 10
55.681341
 20
271.548408
 30
0.0
 10
55.684869
 20
271.500783
 30
0.0
  0
SPLINE
  5
249
100
AcDbEntity
  8
Mansoane
 62
7
100
AcDbSpline
 70
8
 71
3
 72
8
 73
4
 74
0
 40
0
 40
0
 40
0
 40
0
 40
1
 40
1
 40
1
 40
1
 10
55.684869
 20
271.500783
 30
0.0
 10
55.878897
 20
271.474325
 30
0.0
 10
56.071426
 20
271.447161
 30
0.0
 10
56.264748
 20
271.430228
 30
0.0
  0
SPLINE
  5
24a
100
AcDbEntity
  8
Mansoane
 62
7
100
AcDbSpline
 70
8
 71
3
 72
8
 73
4
 74
0
 40
0
 40
0
 40
0
 40
0
 40
1
 40
1
 40
1
 40
1
 10
56.264748
 20
271.430228
 30
0.0
 10
56.455601
 20
271.414000
 30
0.0
 10
56.666277
 20
271.366288
 30
0.0
 10
56.835257
 20
271.428024
 30
0.0
  0
SPLINE
  5
24b
100
AcDbEntity
  8
Mansoane
 62
7
100
AcDbSpline
 70
8
 71
3
 72
8
 73
4
 74
0
 40
0
 40
0
 40
0
 40
0
 40
1
 40
1
 40
1
 40
1
 10
56.835257
 20
271.428024
 30
0.0
 10
57.089963
 20
271.520099
 30
0.0
 10
57.323236
 20
271.481316
 30
0.0
 10
57.560656
 20
271.424166
 30
0.0
  0
SPLINE
  5
24c
100
AcDbEntity
  8
Mansoane
 62
7
100
AcDbSpline
 70
8
 71
3
 72
8
 73
4
 74
0
 40
0
 40
0
 40
0
 40
0
 40
1
 40
1
 40
1
 40
1
 10
57.560656
 20
271.424166
 30
0.0
 10
57.637914
 20
271.405469
 30
0.0
 10
57.746149
 20
271.301729
 30
0.0
 10
57.748619
 20
271.233996
 30
0.0
  0
SPLINE
  5
24d
100
AcDbEntity
  8
Mansoane
 62
7
100
AcDbSpline
 70
8
 71
3
 72
8
 73
4
 74
0
 40
0
 40
0
 40
0
 40
0
 40
1
 40
1
 40
1
 40
1
 10
57.748619
 20
271.233996
 30
0.0
 10
57.750383
 20
271.162029
 30
0.0
 10
57.653722
 20
271.041424
 30
0.0
 10
57.581049
 20
271.023433
 30
0.0
  0
SPLINE
  5
24e
100
AcDbEntity
  8
Mansoane
 62
7
100
AcDbSpline
 70
8
 71
3
 72
8
 73
4
 74
0
 40
0
 40
0
 40
0
 40
0
 40
1
 40
1
 40
1
 40
1
 10
57.581049
 20
271.023433
 30
0.0
 10
57.428297
 20
270.984980
 30
0.0
 10
57.262358
 20
270.993512
 30
0.0
 10
57.101492
 20
270.994217
 30
0.0
  0
SPLINE
  5
24f
100
AcDbEntity
  8
Mansoane
 62
7
100
AcDbSpline
 70
8
 71
3
 72
8
 73
4
 74
0
 40
0
 40
0
 40
0
 40
0
 40
1
 40
1
 40
1
 40
1
 10
57.101492
 20
270.994217
 30
0.0
 10
56.873950
 20
270.995628
 30
0.0
 10
56.646078
 20
271.007005
 30
0.0
 10
56.418536
 20
271.014060
 30
0.0
  0
SPLINE
  5
250
100
AcDbEntity
  8
Mansoane
 62
7
100
AcDbSpline
 70
8
 71
3
 72
8
 73
4
 74
0
 40
0
 40
0
 40
0
 40
0
 40
1
 40
1
 40
1
 40
1
 10
56.418536
 20
271.014060
 30
0.0
 10
56.411128
 20
270.985838
 30
0.0
 10
56.403545
 20
270.957396
 30
0.0
 10
56.396489
 20
270.929173
 30
0.0
  0
SPLINE
  5
251
100
AcDbEntity
  8
Mansoane
 62
7
100
AcDbSpline
 70
8
 71
3
 72
8
 73
4
 74
0
 40
0
 40
0
 40
0
 40
0
 40
1
 40
1
 40
1
 40
1
 10
56.396489
 20
270.929173
 30
0.0
 10
56.519609
 20
270.876257
 30
0.0
 10
56.646521
 20
270.831366
 30
0.0
 10
56.764702
 20
270.768219
 30
0.0
  0
SPLINE
  5
252
100
AcDbEntity
  8
Mansoane
 62
7
100
AcDbSpline
 70
8
 71
3
 72
8
 73
4
 74
0
 40
0
 40
0
 40
0
 40
0
 40
1
 40
1
 40
1
 40
1
 10
56.764702
 20
270.768219
 30
0.0
 10
56.826085
 20
270.735764
 30
0.0
 10
56.908988
 20
270.675329
 30
0.0
 10
56.914632
 20
270.619942
 30
0.0
  0
SPLINE
  5
253
100
AcDbEntity
  8
Mansoane
 62
7
100
AcDbSpline
 70
8
 71
3
 72
8
 73
4
 74
0
 40
0
 40
0
 40
0
 40
0
 40
1
 40
1
 40
1
 40
1
 10
56.914632
 20
270.619942
 30
0.0
 10
56.920982
 20
270.560676
 30
0.0
 10
56.862023
 20
270.456451
 30
0.0
 10
56.807695
 20
270.435284
 30
0.0
  0
SPLINE
  5
254
100
AcDbEntity
  8
Mansoane
 62
7
100
AcDbSpline
 70
8
 71
3
 72
8
 73
4
 74
0
 40
0
 40
0
 40
0
 40
0
 40
1
 40
1
 40
1
 40
1
 10
56.807695
 20
270.435284
 30
0.0
 10
56.676462
 20
270.382721
 30
0.0
 10
56.532639
 20
270.355997
 30
0.0
 10
56.391528
 20
270.340475
 30
0.0
  0
SPLINE
  5
255
100
AcDbEntity
  8
Mansoane
 62
7
100
AcDbSpline
 70
8
 71
3
 72
8
 73
4
 74
0
 40
0
 40
0
 40
0
 40
0
 40
1
 40
1
 40
1
 40
1
 10
56.391528
 20
270.340475
 30
0.0
 10
56.294161
 20
270.329539
 30
0.0
 10
56.193707
 20
270.358489
 30
0.0
 10
56.093871
 20
270.363075
 30
0.0
  0
SPLINE
  5
256
100
AcDbEntity
  8
Mansoane
 62
7
100
AcDbSpline
 70
8
 71
3
 72
8
 73
4
 74
0
 40
0
 40
0
 40
0
 40
0
 40
1
 40
1
 40
1
 40
1
 10
56.093871
 20
270.363075
 30
0.0
 10
55.872326
 20
270.374011
 30
0.0
 10
55.428357
 20
270.330069
 30
0.0
 10
54.969393
 20
270.283150
 30
0.0
  0
SPLINE
  5
257
100
AcDbEntity
  8
Mansoane
 62
7
100
AcDbSpline
 70
8
 71
3
 72
8
 73
4
 74
0
 40
0
 40
0
 40
0
 40
0
 40
1
 40
1
 40
1
 40
1
 10
54.969393
 20
270.283150
 30
0.0
 10
54.824754
 20
270.221061
 30
0.0
 10
54.665519
 20
270.186136
 30
0.0
 10
54.498655
 20
270.186136
 30
0.0
  0
LWPOLYLINE
  5
258
100
AcDbEntity
  8
Mansoane
 62
7
100
AcDbPolyline
 90
2
 70
0
 10
53.599622
 20
272.884336
 30
0.0
 10
54.158004
 20
272.884336
 30
0.0
  0
SPLINE
  5
259
100
AcDbEntity
  8
Mansoane
 62
7
100
AcDbSpline
 70
8
 71
3
 72
8
 73
4
 74
0
 40
0
 40
0
 40
0
 40
0
 40
1
 40
1
 40
1
 40
1
 10
53.928699
 20
270.186136
 30
0.0
 10
53.928699
 20
270.186136
 30
0.0
 10
52.490709
 20
270.358997
 30
0.0
 10
52.246939
 20
270.186136
 30
0.0
  0
SPLINE
  5
25a
100
AcDbEntity
  8
Mansoane
 62
7
100
AcDbSpline
 70
8
 71
3
 72
8
 73
4
 74
0
 40
0
 40
0
 40
0
 40
0
 40
1
 40
1
 40
1
 40
1
 10
52.246939
 20
270.186136
 30
0.0
 10
52.002817
 20
270.013628
 30
0.0
 10
51.870108
 20
269.968890
 30
0.0
 10
52.002752
 20
269.724767
 30
0.0
  0
SPLINE
  5
25b
100
AcDbEntity
  8
Mansoane
 62
7
100
AcDbSpline
 70
8
 71
3
 72
8
 73
4
 74
0
 40
0
 40
0
 40
0
 40
0
 40
1
 40
1
 40
1
 40
1
 10
52.002752
 20
269.724767
 30
0.0
 10
52.136102
 20
269.481351
 30
0.0
 10
52.446679
 20
269.193552
 30
0.0
 10
52.535226
 20
269.060555
 30
0.0
  0
SPLINE
  5
25c
100
AcDbEntity
  8
Mansoane
 62
7
100
AcDbSpline
 70
8
 71
3
 72
8
 73
4
 74
0
 40
0
 40
0
 40
0
 40
0
 40
1
 40
1
 40
1
 40
1
 10
52.535226
 20
269.060555
 30
0.0
 10
52.623774
 20
268.927557
 30
0.0
 10
52.690096
 20
268.661628
 30
0.0
 10
52.623421
 20
268.484533
 30
0.0
  0
SPLINE
  5
25d
100
AcDbEntity
  8
Mansoane
 62
7
100
AcDbSpline
 70
8
 71
3
 72
8
 73
4
 74
0
 40
0
 40
0
 40
0
 40
0
 40
1
 40
1
 40
1
 40
1
 10
52.623421
 20
268.484533
 30
0.0
 10
52.557099
 20
268.306733
 30
0.0
 10
52.268989
 20
268.129552
 30
0.0
 10
52.268989
 20
268.129552
 30
0.0
  0
LWPOLYLINE
  5
25e
100
AcDbEntity
  8
Mansoane
 62
7
100
AcDbPolyline
 90
2
 70
0
 10
54.498655
 20
270.186136
 30
0.0
 10
53.928699
 20
270.186136
 30
0.0
  0
SPLINE
  5
25f
100
AcDbEntity
  8
Mansoane
 62
7
100
AcDbSpline
 70
8
 71
3
 72
8
 73
4
 74
0
 40
0
 40
0
 40
0
 40
0
 40
1
 40
1
 40
1
 40
1
 10
50.850713
 20
267.996156
 30
0.0
 10
50.850713
 20
267.996156
 30
0.0
 10
50.385178
 20
267.641903
 30
0.0
 10
50.739367
 20
267.619678
 30
0.0
  0
SPLINE
  5
260
100
AcDbEntity
  8
Mansoane
 62
7
100
AcDbSpline
 70
8
 71
3
 72
8
 73
4
 74
0
 40
0
 40
0
 40
0
 40
0
 40
1
 40
1
 40
1
 40
1
 10
50.739367
 20
267.619678
 30
0.0
 10
51.094262
 20
267.597805
 30
0.0
 10
50.717317
 20
268.063119
 30
0.0
 10
51.537526
 20
267.619678
 30
0.0
  0
SPLINE
  5
261
100
AcDbEntity
  8
Mansoane
 62
7
100
AcDbSpline
 70
8
 71
3
 72
8
 73
4
 74
0
 40
0
 40
0
 40
0
 40
0
 40
1
 40
1
 40
1
 40
1
 10
51.537526
 20
267.619678
 30
0.0
 10
52.357381
 20
267.176589
 30
0.0
 10
52.712120
 20
267.419895
 30
0.0
 10
52.446479
 20
267.065706
 30
0.0
  0
SPLINE
  5
262
100
AcDbEntity
  8
Mansoane
 62
7
100
AcDbSpline
 70
8
 71
3
 72
8
 73
4
 74
0
 40
0
 40
0
 40
0
 40
0
 40
1
 40
1
 40
1
 40
1
 10
52.446479
 20
267.065706
 30
0.0
 10
52.180484
 20
266.710812
 30
0.0
 10
51.493318
 20
266.932421
 30
0.0
 10
51.847860
 20
266.577880
 30
0.0
  0
SPLINE
  5
263
100
AcDbEntity
  8
Mansoane
 62
7
100
AcDbSpline
 70
8
 71
3
 72
8
 73
4
 74
0
 40
0
 40
0
 40
0
 40
0
 40
1
 40
1
 40
1
 40
1
 10
51.847860
 20
266.577880
 30
0.0
 10
52.202402
 20
266.223691
 30
0.0
 10
52.690073
 20
266.556117
 30
0.0
 10
52.512626
 20
266.179351
 30
0.0
  0
SPLINE
  5
264
100
AcDbEntity
  8
Mansoane
 62
7
100
AcDbSpline
 70
8
 71
3
 72
8
 73
4
 74
0
 40
0
 40
0
 40
0
 40
0
 40
1
 40
1
 40
1
 40
1
 10
52.512626
 20
266.179351
 30
0.0
 10
52.335532
 20
265.802584
 30
0.0
 10
52.091565
 20
266.223538
 30
0.0
 10
52.335687
 20
265.802322
 30
0.0
  0
SPLINE
  5
265
100
AcDbEntity
  8
Mansoane
 62
7
100
AcDbSpline
 70
8
 71
3
 72
8
 73
4
 74
0
 40
0
 40
0
 40
0
 40
0
 40
1
 40
1
 40
1
 40
1
 10
52.335687
 20
265.802322
 30
0.0
 10
52.579103
 20
265.381105
 30
0.0
 10
52.601416
 20
265.270750
 30
0.0
 10
52.778863
 20
265.182203
 30
0.0
  0
SPLINE
  5
266
100
AcDbEntity
  8
Mansoane
 62
7
100
AcDbSpline
 70
8
 71
3
 72
8
 73
4
 74
0
 40
0
 40
0
 40
0
 40
0
 40
1
 40
1
 40
1
 40
1
 10
52.778863
 20
265.182203
 30
0.0
 10
52.956310
 20
265.093303
 30
0.0
 10
51.673698
 20
264.774855
 30
0.0
 10
53.804123
 20
264.774855
 30
0.0
  0
LWPOLYLINE
  5
267
100
AcDbEntity
  8
Mansoane
 62
7
100
AcDbPolyline
 90
3
 70
0
 10
52.268989
 20
268.129552
 30
0.0
 10
51.648320
 20
267.996156
 30
0.0
 10
50.850713
 20
267.996156
 30
0.0
  0
SPLINE
  5
268
100
AcDbEntity
  8
Mansoane
 62
7
100
AcDbSpline
 70
8
 71
3
 72
8
 73
4
 74
0
 40
0
 40
0
 40
0
 40
0
 40
1
 40
1
 40
1
 40
1
 10
55.934570
 20
264.774855
 30
0.0
 10
56.624604
 20
264.774855
 30
0.0
 10
57.184174
 20
264.215482
 30
0.0
 10
57.184174
 20
263.525802
 30
0.0
  0
LWPOLYLINE
  5
269
100
AcDbEntity
  8
Mansoane
 62
7
100
AcDbPolyline
 90
2
 70
0
 10
53.804123
 20
264.774855
 30
0.0
 10
55.934570
 20
264.774855
 30
0.0
  0
SPLINE
  5
26a
100
AcDbEntity
  8
Mansoane
 62
7
100
AcDbSpline
 70
8
 71
3
 72
8
 73
4
 74
0
 40
0
 40
0
 40
0
 40
0
 40
1
 40
1
 40
1
 40
1
 10
57.184174
 20
263.233656
 30
0.0
 10
57.184174
 20
262.601126
 30
0.0
 10
56.670730
 20
262.088232
 30
0.0
 10
56.038200
 20
262.088232
 30
0.0
  0
LWPOLYLINE
  5
26b
100
AcDbEntity
  8
Mansoane
 62
7
100
AcDbPolyline
 90
2
 70
0
 10
57.184174
 20
263.525802
 30
0.0
 10
57.184174
 20
263.233656
 30
0.0
  0
SPLINE
  5
26c
100
AcDbEntity
  8
Mansoane
 62
7
100
AcDbSpline
 70
8
 71
3
 72
8
 73
4
 74
0
 40
0
 40
0
 40
0
 40
0
 40
1
 40
1
 40
1
 40
1
 10
51.239318
 20
262.088232
 30
0.0
 10
50.619135
 20
262.088232
 30
0.0
 10
50.116492
 20
262.590875
 30
0.0
 10
50.116492
 20
263.211059
 30
0.0
  0
LWPOLYLINE
  5
26d
100
AcDbEntity
  8
Mansoane
 62
7
100
AcDbPolyline
 90
2
 70
0
 10
56.038200
 20
262.088232
 30
0.0
 10
51.239318
 20
262.088232
 30
0.0
  0
SPLINE
  5
26e
100
AcDbEntity
  8
Mansoane
 62
7
100
AcDbSpline
 70
8
 71
3
 72
8
 73
4
 74
0
 40
0
 40
0
 40
0
 40
0
 40
1
 40
1
 40
1
 40
1
 10
50.116492
 20
279.885320
 30
0.0
 10
50.116492
 20
280.489981
 30
0.0
 10
50.606545
 20
280.980034
 30
0.0
 10
51.211206
 20
280.980034
 30
0.0
  0
LWPOLYLINE
  5
26f
100
AcDbEntity
  8
Mansoane
 62
7
100
AcDbPolyline
 90
2
 70
0
 10
50.116492
 20
263.211059
 30
0.0
 10
50.116492
 20
279.885320
 30
0.0
  0
LWPOLYLINE
  5
270
100
AcDbEntity
  8
Mansoane
 62
7
100
AcDbPolyline
 90
2
 70
0
 10
51.211206
 20
280.980034
 30
0.0
 10
51.211206
 20
280.980034
 30
0.0
  0
SPLINE
  5
271
100
AcDbEntity
  8
Mansoane
 62
7
100
AcDbSpline
 70
8
 71
3
 72
8
 73
4
 74
0
 40
0
 40
0
 40
0
 40
0
 40
1
 40
1
 40
1
 40
1
 10
64.111849
 20
280.970663
 30
0.0
 10
66.531905
 20
280.970663
 30
0.0
 10
67.741602
 20
279.648341
 30
0.0
 10
67.741602
 20
277.003566
 30
0.0
  0
LWPOLYLINE
  5
272
100
AcDbEntity
  8
Mansoane
 62
7
100
AcDbPolyline
 90
2
 70
0
 10
61.019532
 20
280.977829
 30
0.0
 10
64.111849
 20
280.970663
 30
0.0
  0
SPLINE
  5
273
100
AcDbEntity
  8
Mansoane
 62
7
100
AcDbSpline
 70
8
 71
3
 72
8
 73
4
 74
0
 40
0
 40
0
 40
0
 40
0
 40
1
 40
1
 40
1
 40
1
 10
67.741602
 20
274.163155
 30
0.0
 10
67.741602
 20
272.924199
 30
0.0
 10
67.244296
 20
272.047854
 30
0.0
 10
66.249463
 20
271.533857
 30
0.0
  0
SPLINE
  5
274
100
AcDbEntity
  8
Mansoane
 62
7
100
AcDbSpline
 70
8
 71
3
 72
8
 73
4
 74
0
 40
0
 40
0
 40
0
 40
0
 40
1
 40
1
 40
1
 40
1
 10
66.249463
 20
271.533857
 30
0.0
 10
67.244296
 20
271.020565
 30
0.0
 10
67.741602
 20
270.144265
 30
0.0
 10
67.741602
 20
268.905663
 30
0.0
  0
LWPOLYLINE
  5
275
100
AcDbEntity
  8
Mansoane
 62
7
100
AcDbPolyline
 90
2
 70
0
 10
67.741602
 20
277.003566
 30
0.0
 10
67.741602
 20
274.163155
 30
0.0
  0
SPLINE
  5
276
100
AcDbEntity
  8
Mansoane
 62
7
100
AcDbSpline
 70
8
 71
3
 72
8
 73
4
 74
0
 40
0
 40
0
 40
0
 40
0
 40
1
 40
1
 40
1
 40
1
 10
67.741602
 20
266.055328
 30
0.0
 10
67.741602
 20
263.417256
 30
0.0
 10
66.531905
 20
262.098155
 30
0.0
 10
64.111849
 20
262.098155
 30
0.0
  0
SPLINE
  5
277
100
AcDbEntity
  8
Mansoane
 62
7
100
AcDbSpline
 70
8
 71
3
 72
8
 73
4
 74
0
 40
0
 40
0
 40
0
 40
0
 40
1
 40
1
 40
1
 40
1
 10
64.111849
 20
262.098155
 30
0.0
 10
64.073397
 20
262.098155
 30
0.0
 10
64.016026
 20
262.094582
 30
0.0
 10
63.938768
 20
262.088232
 30
0.0
  0
LWPOLYLINE
  5
278
100
AcDbEntity
  8
Mansoane
 62
7
100
AcDbPolyline
 90
2
 70
0
 10
67.741602
 20
268.905663
 30
0.0
 10
67.741602
 20
266.055328
 30
0.0
  0
SPLINE
  5
279
100
AcDbEntity
  8
Mansoane
 62
7
100
AcDbSpline
 70
8
 71
3
 72
8
 73
4
 74
0
 40
0
 40
0
 40
0
 40
0
 40
1
 40
1
 40
1
 40
1
 10
61.746584
 20
262.088232
 30
0.0
 10
60.906620
 20
262.088232
 30
0.0
 10
60.200405
 20
262.653359
 30
0.0
 10
59.983799
 20
263.423826
 30
0.0
  0
SPLINE
  5
27a
100
AcDbEntity
  8
Mansoane
 62
7
100
AcDbSpline
 70
8
 71
3
 72
8
 73
4
 74
0
 40
0
 40
0
 40
0
 40
0
 40
1
 40
1
 40
1
 40
1
 10
59.983799
 20
263.423826
 30
0.0
 10
60.082577
 20
263.577637
 30
0.0
 10
60.168609
 20
263.675732
 30
0.0
 10
60.220820
 20
263.631635
 30
0.0
  0
SPLINE
  5
27b
100
AcDbEntity
  8
Mansoane
 62
7
100
AcDbSpline
 70
8
 71
3
 72
8
 73
4
 74
0
 40
0
 40
0
 40
0
 40
0
 40
1
 40
1
 40
1
 40
1
 10
60.220820
 20
263.631635
 30
0.0
 10
60.258215
 20
263.600590
 30
0.0
 10
60.296027
 20
263.413311
 30
0.0
 10
60.332716
 20
263.482808
 30
0.0
  0
SPLINE
  5
27c
100
AcDbEntity
  8
Mansoane
 62
7
100
AcDbSpline
 70
8
 71
3
 72
8
 73
4
 74
0
 40
0
 40
0
 40
0
 40
0
 40
1
 40
1
 40
1
 40
1
 10
60.332716
 20
263.482808
 30
0.0
 10
60.385985
 20
263.583702
 30
0.0
 10
60.440226
 20
263.756783
 30
0.0
 10
60.489262
 20
264.096861
 30
0.0
  0
SPLINE
  5
27d
100
AcDbEntity
  8
Mansoane
 62
7
100
AcDbSpline
 70
8
 71
3
 72
8
 73
4
 74
0
 40
0
 40
0
 40
0
 40
0
 40
1
 40
1
 40
1
 40
1
 10
60.489262
 20
264.096861
 30
0.0
 10
60.509723
 20
264.236914
 30
0.0
 10
60.532521
 20
264.913917
 30
0.0
 10
60.530051
 20
265.301267
 30
0.0
  0
SPLINE
  5
27e
100
AcDbEntity
  8
Mansoane
 62
7
100
AcDbSpline
 70
8
 71
3
 72
8
 73
4
 74
0
 40
0
 40
0
 40
0
 40
0
 40
1
 40
1
 40
1
 40
1
 10
60.530051
 20
265.301267
 30
0.0
 10
60.527582
 20
265.660395
 30
0.0
 10
60.496758
 20
266.051007
 30
0.0
 10
60.473827
 20
266.264791
 30
0.0
  0
SPLINE
  5
27f
100
AcDbEntity
  8
Mansoane
 62
7
100
AcDbSpline
 70
8
 71
3
 72
8
 73
4
 74
0
 40
0
 40
0
 40
0
 40
0
 40
1
 40
1
 40
1
 40
1
 10
60.473827
 20
266.264791
 30
0.0
 10
60.429024
 20
266.674719
 30
0.0
 10
60.380936
 20
266.969353
 30
0.0
 10
60.334370
 20
267.311547
 30
0.0
  0
LWPOLYLINE
  5
280
100
AcDbEntity
  8
Mansoane
 62
7
100
AcDbPolyline
 90
2
 70
0
 10
63.938768
 20
262.088232
 30
0.0
 10
61.746584
 20
262.088232
 30
0.0
  0
SPLINE
  5
281
100
AcDbEntity
  8
Mansoane
 62
7
100
AcDbSpline
 70
8
 71
3
 72
8
 73
4
 74
0
 40
0
 40
0
 40
0
 40
0
 40
1
 40
1
 40
1
 40
1
 10
60.343189
 20
267.863865
 30
0.0
 10
60.428914
 20
267.816945
 30
0.0
 10
60.514332
 20
267.741188
 30
0.0
 10
60.600057
 20
267.733780
 30
0.0
  0
SPLINE
  5
282
100
AcDbEntity
  8
Mansoane
 62
7
100
AcDbSpline
 70
8
 71
3
 72
8
 73
4
 74
0
 40
0
 40
0
 40
0
 40
0
 40
1
 40
1
 40
1
 40
1
 10
60.600057
 20
267.733780
 30
0.0
 10
60.660734
 20
267.728841
 30
0.0
 10
60.723351
 20
267.673983
 30
0.0
 10
60.780854
 20
267.923397
 30
0.0
  0
SPLINE
  5
283
100
AcDbEntity
  8
Mansoane
 62
7
100
AcDbSpline
 70
8
 71
3
 72
8
 73
4
 74
0
 40
0
 40
0
 40
0
 40
0
 40
1
 40
1
 40
1
 40
1
 10
60.780854
 20
267.923397
 30
0.0
 10
60.808370
 20
268.041930
 30
0.0
 10
60.844949
 20
268.829155
 30
0.0
 10
60.844244
 20
269.294822
 30
0.0
  0
SPLINE
  5
284
100
AcDbEntity
  8
Mansoane
 62
7
100
AcDbSpline
 70
8
 71
3
 72
8
 73
4
 74
0
 40
0
 40
0
 40
0
 40
0
 40
1
 40
1
 40
1
 40
1
 10
60.844244
 20
269.294822
 30
0.0
 10
60.843185
 20
269.735794
 30
0.0
 10
60.802616
 20
270.410548
 30
0.0
 10
60.773688
 20
270.531198
 30
0.0
  0
SPLINE
  5
285
100
AcDbEntity
  8
Mansoane
 62
7
100
AcDbSpline
 70
8
 71
3
 72
8
 73
4
 74
0
 40
0
 40
0
 40
0
 40
0
 40
1
 40
1
 40
1
 40
1
 10
60.773688
 20
270.531198
 30
0.0
 10
60.684083
 20
270.902320
 30
0.0
 10
60.595691
 20
271.154576
 30
0.0
 10
60.499735
 20
270.553795
 30
0.0
  0
SPLINE
  5
286
100
AcDbEntity
  8
Mansoane
 62
7
100
AcDbSpline
 70
8
 71
3
 72
8
 73
4
 74
0
 40
0
 40
0
 40
0
 40
0
 40
1
 40
1
 40
1
 40
1
 10
60.499735
 20
270.553795
 30
0.0
 10
60.436235
 20
270.154804
 30
0.0
 10
60.356925
 20
270.463287
 30
0.0
 10
60.285314
 20
270.570884
 30
0.0
  0
SPLINE
  5
287
100
AcDbEntity
  8
Mansoane
 62
7
100
AcDbSpline
 70
8
 71
3
 72
8
 73
4
 74
0
 40
0
 40
0
 40
0
 40
0
 40
1
 40
1
 40
1
 40
1
 10
60.285314
 20
270.570884
 30
0.0
 10
60.191119
 20
270.711995
 30
0.0
 10
60.097083
 20
270.967076
 30
0.0
 10
60.002539
 20
271.175567
 30
0.0
  0
SPLINE
  5
288
100
AcDbEntity
  8
Mansoane
 62
7
100
AcDbSpline
 70
8
 71
3
 72
8
 73
4
 74
0
 40
0
 40
0
 40
0
 40
0
 40
1
 40
1
 40
1
 40
1
 10
60.002539
 20
271.175567
 30
0.0
 10
60.006772
 20
271.557626
 30
0.0
 10
60.007235
 20
271.731390
 30
0.0
 10
60.009704
 20
271.740562
 30
0.0
  0
SPLINE
  5
289
100
AcDbEntity
  8
Mansoane
 62
7
100
AcDbSpline
 70
8
 71
3
 72
8
 73
4
 74
0
 40
0
 40
0
 40
0
 40
0
 40
1
 40
1
 40
1
 40
1
 10
60.009704
 20
271.740562
 30
0.0
 10
60.123651
 20
272.209757
 30
0.0
 10
60.237909
 20
272.663144
 30
0.0
 10
60.352562
 20
273.122461
 30
0.0
  0
SPLINE
  5
28a
100
AcDbEntity
  8
Mansoane
 62
7
100
AcDbSpline
 70
8
 71
3
 72
8
 73
4
 74
0
 40
0
 40
0
 40
0
 40
0
 40
1
 40
1
 40
1
 40
1
 10
60.352562
 20
273.122461
 30
0.0
 10
60.380431
 20
273.234644
 30
0.0
 10
60.411253
 20
273.265135
 30
0.0
 10
60.435242
 20
273.501144
 30
0.0
  0
SPLINE
  5
28b
100
AcDbEntity
  8
Mansoane
 62
7
100
AcDbSpline
 70
8
 71
3
 72
8
 73
4
 74
0
 40
0
 40
0
 40
0
 40
0
 40
1
 40
1
 40
1
 40
1
 10
60.435242
 20
273.501144
 30
0.0
 10
60.489569
 20
274.034544
 30
0.0
 10
60.490783
 20
274.910733
 30
0.0
 10
60.434691
 20
275.354881
 30
0.0
  0
SPLINE
  5
28c
100
AcDbEntity
  8
Mansoane
 62
7
100
AcDbSpline
 70
8
 71
3
 72
8
 73
4
 74
0
 40
0
 40
0
 40
0
 40
0
 40
1
 40
1
 40
1
 40
1
 10
60.434691
 20
275.354881
 30
0.0
 10
60.382480
 20
275.768689
 30
0.0
 10
60.324117
 20
275.988052
 30
0.0
 10
60.267675
 20
276.177846
 30
0.0
  0
SPLINE
  5
28d
100
AcDbEntity
  8
Mansoane
 62
7
100
AcDbSpline
 70
8
 71
3
 72
8
 73
4
 74
0
 40
0
 40
0
 40
0
 40
0
 40
1
 40
1
 40
1
 40
1
 10
60.267675
 20
276.177846
 30
0.0
 10
60.193592
 20
276.424791
 30
0.0
 10
60.118162
 20
276.504761
 30
0.0
 10
60.044432
 20
276.770403
 30
0.0
  0
SPLINE
  5
28e
100
AcDbEntity
  8
Mansoane
 62
7
100
AcDbSpline
 70
8
 71
3
 72
8
 73
4
 74
0
 40
0
 40
0
 40
0
 40
0
 40
1
 40
1
 40
1
 40
1
 10
60.044432
 20
276.770403
 30
0.0
 10
60.019032
 20
276.861772
 30
0.0
 10
59.982981
 20
277.218959
 30
0.0
 10
59.976631
 20
277.586201
 30
0.0
  0
SPLINE
  5
28f
100
AcDbEntity
  8
Mansoane
 62
7
100
AcDbSpline
 70
8
 71
3
 72
8
 73
4
 74
0
 40
0
 40
0
 40
0
 40
0
 40
1
 40
1
 40
1
 40
1
 10
59.976631
 20
277.586201
 30
0.0
 10
59.962872
 20
278.438159
 30
0.0
 10
59.941663
 20
279.075254
 30
0.0
 10
59.913794
 20
279.512698
 30
0.0
  0
LWPOLYLINE
  5
290
100
AcDbEntity
  8
Mansoane
 62
7
100
AcDbPolyline
 90
2
 70
0
 10
60.334370
 20
267.311547
 30
0.0
 10
60.343189
 20
267.863865
 30
0.0
  0
SPLINE
  5
291
100
AcDbEntity
  8
Mansoane
 62
7
100
AcDbSpline
 70
8
 71
3
 72
8
 73
4
 74
0
 40
0
 40
0
 40
0
 40
0
 40
1
 40
1
 40
1
 40
1
 10
59.913794
 20
279.874847
 30
0.0
 10
59.913794
 20
280.484800
 30
0.0
 10
60.409579
 20
280.979592
 30
0.0
 10
61.019532
 20
280.977829
 30
0.0
  0
LWPOLYLINE
  5
292
100
AcDbEntity
  8
Mansoane
 62
7
100
AcDbPolyline
 90
2
 70
0
 10
59.913794
 20
279.512698
 30
0.0
 10
59.913794
 20
279.874847
 30
0.0
  0
SPLINE
  5
293
100
AcDbEntity
  8
Mansoane
 62
7
100
AcDbSpline
 70
8
 71
3
 72
8
 73
4
 74
0
 40
0
 40
0
 40
0
 40
0
 40
1
 40
1
 40
1
 40
1
 10
63.377631
 20
278.293962
 30
0.0
 10
62.969820
 20
278.293962
 30
0.0
 10
62.639002
 20
277.963144
 30
0.0
 10
62.639002
 20
277.555333
 30
0.0
  0
LWPOLYLINE
  5
294
100
AcDbEntity
  8
Mansoane
 62
7
100
AcDbPolyline
 90
2
 70
0
 10
61.019532
 20
280.977829
 30
0.0
 10
61.019532
 20
280.977829
 30
0.0
  0
SPLINE
  5
295
100
AcDbEntity
  8
Mansoane
 62
7
100
AcDbSpline
 70
8
 71
3
 72
8
 73
4
 74
0
 40
0
 40
0
 40
0
 40
0
 40
1
 40
1
 40
1
 40
1
 10
62.639002
 20
273.719976
 30
0.0
 10
62.639002
 20
273.257484
 30
0.0
 10
63.013807
 20
272.882129
 30
0.0
 10
63.476299
 20
272.882129
 30
0.0
  0
LWPOLYLINE
  5
296
100
AcDbEntity
  8
Mansoane
 62
7
100
AcDbPolyline
 90
2
 70
0
 10
62.639002
 20
277.555333
 30
0.0
 10
62.639002
 20
273.719976
 30
0.0
  0
SPLINE
  5
297
100
AcDbEntity
  8
Mansoane
 62
7
100
AcDbSpline
 70
8
 71
3
 72
8
 73
4
 74
0
 40
0
 40
0
 40
0
 40
0
 40
1
 40
1
 40
1
 40
1
 10
63.495592
 20
272.882129
 30
0.0
 10
63.874475
 20
272.882129
 30
0.0
 10
64.134097
 20
272.908147
 30
0.0
 10
64.275561
 20
272.959299
 30
0.0
  0
SPLINE
  5
298
100
AcDbEntity
  8
Mansoane
 62
7
100
AcDbSpline
 70
8
 71
3
 72
8
 73
4
 74
0
 40
0
 40
0
 40
0
 40
0
 40
1
 40
1
 40
1
 40
1
 10
64.275561
 20
272.959299
 30
0.0
 10
64.769802
 20
273.158266
 30
0.0
 10
65.017495
 20
273.559352
 30
0.0
 10
65.017495
 20
274.162602
 30
0.0
  0
LWPOLYLINE
  5
299
100
AcDbEntity
  8
Mansoane
 62
7
100
AcDbPolyline
 90
2
 70
0
 10
63.476299
 20
272.882129
 30
0.0
 10
63.495592
 20
272.882129
 30
0.0
  0
SPLINE
  5
29a
100
AcDbEntity
  8
Mansoane
 62
7
100
AcDbSpline
 70
8
 71
3
 72
8
 73
4
 74
0
 40
0
 40
0
 40
0
 40
0
 40
1
 40
1
 40
1
 40
1
 10
65.017495
 20
277.003566
 30
0.0
 10
65.017495
 20
277.863639
 30
0.0
 10
64.621898
 20
278.293962
 30
0.0
 10
63.832382
 20
278.293962
 30
0.0
  0
LWPOLYLINE
  5
29b
100
AcDbEntity
  8
Mansoane
 62
7
100
AcDbPolyline
 90
2
 70
0
 10
65.017495
 20
274.162602
 30
0.0
 10
65.017495
 20
277.003566
 30
0.0
  0
SPLINE
  5
29c
100
AcDbEntity
  8
Mansoane
 62
7
100
AcDbSpline
 70
8
 71
3
 72
8
 73
4
 74
0
 40
0
 40
0
 40
0
 40
0
 40
1
 40
1
 40
1
 40
1
 10
43.878390
 20
278.293410
 30
0.0
 10
43.346754
 20
278.293410
 30
0.0
 10
42.915967
 20
277.862624
 30
0.0
 10
42.915967
 20
277.330988
 30
0.0
  0
LWPOLYLINE
  5
29d
100
AcDbEntity
  8
Mansoane
 62
7
100
AcDbPolyline
 90
3
 70
0
 10
63.832382
 20
278.293962
 30
0.0
 10
63.377631
 20
278.293962
 30
0.0
 10
63.377631
 20
278.293962
 30
0.0
  0
SPLINE
  5
29e
100
AcDbEntity
  8
Mansoane
 62
7
100
AcDbSpline
 70
8
 71
3
 72
8
 73
4
 74
0
 40
0
 40
0
 40
0
 40
0
 40
1
 40
1
 40
1
 40
1
 10
42.915967
 20
273.507759
 30
0.0
 10
42.915967
 20
273.162037
 30
0.0
 10
43.195875
 20
272.882129
 30
0.0
 10
43.541597
 20
272.882129
 30
0.0
  0
SPLINE
  5
29f
100
AcDbEntity
  8
Mansoane
 62
7
100
AcDbSpline
 70
8
 71
3
 72
8
 73
4
 74
0
 40
0
 40
0
 40
0
 40
0
 40
1
 40
1
 40
1
 40
1
 10
43.541597
 20
272.882129
 30
0.0
 10
43.920128
 20
272.882129
 30
0.0
 10
44.180455
 20
272.908147
 30
0.0
 10
44.321566
 20
272.959299
 30
0.0
  0
SPLINE
  5
2a0
100
AcDbEntity
  8
Mansoane
 62
7
100
AcDbSpline
 70
8
 71
3
 72
8
 73
4
 74
0
 40
0
 40
0
 40
0
 40
0
 40
1
 40
1
 40
1
 40
1
 10
44.321566
 20
272.959299
 30
0.0
 10
44.816161
 20
273.158266
 30
0.0
 10
45.063503
 20
273.559705
 30
0.0
 10
45.063503
 20
274.162602
 30
0.0
  0
LWPOLYLINE
  5
2a1
100
AcDbEntity
  8
Mansoane
 62
7
100
AcDbPolyline
 90
2
 70
0
 10
42.915967
 20
277.330988
 30
0.0
 10
42.915967
 20
273.507759
 30
0.0
  0
SPLINE
  5
2a2
100
AcDbEntity
  8
Mansoane
 62
7
100
AcDbSpline
 70
8
 71
3
 72
8
 73
4
 74
0
 40
0
 40
0
 40
0
 40
0
 40
1
 40
1
 40
1
 40
1
 10
45.063503
 20
277.004117
 30
0.0
 10
45.063503
 20
277.863837
 30
0.0
 10
44.667907
 20
278.293410
 30
0.0
 10
43.878390
 20
278.293410
 30
0.0
  0
LWPOLYLINE
  5
2a3
100
AcDbEntity
  8
Mansoane
 62
7
100
AcDbPolyline
 90
2
 70
0
 10
45.063503
 20
274.162602
 30
0.0
 10
45.063503
 20
277.004117
 30
0.0
  0
SPLINE
  5
2a4
100
AcDbEntity
  8
Mansoane
 62
7
100
AcDbSpline
 70
8
 71
3
 72
8
 73
4
 74
0
 40
0
 40
0
 40
0
 40
0
 40
1
 40
1
 40
1
 40
1
 10
64.137757
 20
271.844191
 30
0.0
 10
64.078843
 20
271.842780
 30
0.0
 10
63.987319
 20
271.749162
 30
0.0
 10
63.970738
 20
271.682134
 30
0.0
  0
SPLINE
  5
2a5
100
AcDbEntity
  8
Mansoane
 62
7
100
AcDbSpline
 70
8
 71
3
 72
8
 73
4
 74
0
 40
0
 40
0
 40
0
 40
0
 40
1
 40
1
 40
1
 40
1
 10
63.970738
 20
271.682134
 30
0.0
 10
63.918880
 20
271.475759
 30
0.0
 10
63.883602
 20
271.272494
 30
0.0
 10
63.961919
 20
271.049891
 30
0.0
  0
SPLINE
  5
2a6
100
AcDbEntity
  8
Mansoane
 62
7
100
AcDbSpline
 70
8
 71
3
 72
8
 73
4
 74
0
 40
0
 40
0
 40
0
 40
0
 40
1
 40
1
 40
1
 40
1
 10
63.961919
 20
271.049891
 30
0.0
 10
64.014130
 20
270.902077
 30
0.0
 10
63.970981
 20
270.718500
 30
0.0
 10
63.954753
 20
270.552695
 30
0.0
  0
SPLINE
  5
2a7
100
AcDbEntity
  8
Mansoane
 62
7
100
AcDbSpline
 70
8
 71
3
 72
8
 73
4
 74
0
 40
0
 40
0
 40
0
 40
0
 40
1
 40
1
 40
1
 40
1
 10
63.954753
 20
270.552695
 30
0.0
 10
63.942759
 20
270.425342
 30
0.0
 10
63.924942
 20
270.298054
 30
0.0
 10
63.906245
 20
270.170701
 30
0.0
  0
SPLINE
  5
2a8
100
AcDbEntity
  8
Mansoane
 62
7
100
AcDbSpline
 70
8
 71
3
 72
8
 73
4
 74
0
 40
0
 40
0
 40
0
 40
0
 40
1
 40
1
 40
1
 40
1
 10
63.906245
 20
270.170701
 30
0.0
 10
63.852623
 20
270.175287
 30
0.0
 10
63.795055
 20
270.179255
 30
0.0
 10
63.732613
 20
270.181725
 30
0.0
  0
LWPOLYLINE
  5
2a9
100
AcDbEntity
  8
Mansoane
 62
7
100
AcDbPolyline
 90
2
 70
0
 10
43.878390
 20
278.293410
 30
0.0
 10
43.878390
 20
278.293410
 30
0.0
  0
SPLINE
  5
2aa
100
AcDbEntity
  8
Mansoane
 62
7
100
AcDbSpline
 70
8
 71
3
 72
8
 73
4
 74
0
 40
0
 40
0
 40
0
 40
0
 40
1
 40
1
 40
1
 40
1
 10
63.614102
 20
270.711995
 30
0.0
 10
63.599639
 20
270.776553
 30
0.0
 10
63.596639
 20
270.847727
 30
0.0
 10
63.565594
 20
270.903819
 30
0.0
  0
SPLINE
  5
2ab
100
AcDbEntity
  8
Mansoane
 62
7
100
AcDbSpline
 70
8
 71
3
 72
8
 73
4
 74
0
 40
0
 40
0
 40
0
 40
0
 40
1
 40
1
 40
1
 40
1
 10
63.565594
 20
270.903819
 30
0.0
 10
63.495391
 20
271.030466
 30
0.0
 10
63.378227
 20
271.034036
 30
0.0
 10
63.317549
 20
270.904919
 30
0.0
  0
SPLINE
  5
2ac
100
AcDbEntity
  8
Mansoane
 62
7
100
AcDbSpline
 70
8
 71
3
 72
8
 73
4
 74
0
 40
0
 40
0
 40
0
 40
0
 40
1
 40
1
 40
1
 40
1
 10
63.317549
 20
270.904919
 30
0.0
 10
63.261105
 20
270.784975
 30
0.0
 10
63.230258
 20
270.650699
 30
0.0
 10
63.203447
 20
270.520171
 30
0.0
  0
SPLINE
  5
2ad
100
AcDbEntity
  8
Mansoane
 62
7
100
AcDbSpline
 70
8
 71
3
 72
8
 73
4
 74
0
 40
0
 40
0
 40
0
 40
0
 40
1
 40
1
 40
1
 40
1
 10
63.203447
 20
270.520171
 30
0.0
 10
63.178047
 20
270.393877
 30
0.0
 10
63.164023
 20
270.265731
 30
0.0
 10
63.143915
 20
270.138731
 30
0.0
  0
SPLINE
  5
2ae
100
AcDbEntity
  8
Mansoane
 62
7
100
AcDbSpline
 70
8
 71
3
 72
8
 73
4
 74
0
 40
0
 40
0
 40
0
 40
0
 40
1
 40
1
 40
1
 40
1
 10
63.143915
 20
270.138731
 30
0.0
 10
62.848992
 20
270.030781
 30
0.0
 10
62.639002
 20
269.748404
 30
0.0
 10
62.639002
 20
269.416087
 30
0.0
  0
LWPOLYLINE
  5
2af
100
AcDbEntity
  8
Mansoane
 62
7
100
AcDbPolyline
 90
2
 70
0
 10
63.732613
 20
270.181725
 30
0.0
 10
63.614102
 20
270.711995
 30
0.0
  0
SPLINE
  5
2b0
100
AcDbEntity
  8
Mansoane
 62
7
100
AcDbSpline
 70
8
 71
3
 72
8
 73
4
 74
0
 40
0
 40
0
 40
0
 40
0
 40
1
 40
1
 40
1
 40
1
 10
62.639002
 20
265.968788
 30
0.0
 10
62.639002
 20
265.309446
 30
0.0
 10
63.173593
 20
264.774305
 30
0.0
 10
63.832935
 20
264.774305
 30
0.0
  0
SPLINE
  5
2b1
100
AcDbEntity
  8
Mansoane
 62
7
100
AcDbSpline
 70
8
 71
3
 72
8
 73
4
 74
0
 40
0
 40
0
 40
0
 40
0
 40
1
 40
1
 40
1
 40
1
 10
63.832935
 20
264.774305
 30
0.0
 10
64.622451
 20
264.774305
 30
0.0
 10
65.016944
 20
265.201606
 30
0.0
 10
65.016944
 20
266.055328
 30
0.0
  0
LWPOLYLINE
  5
2b2
100
AcDbEntity
  8
Mansoane
 62
7
100
AcDbPolyline
 90
2
 70
0
 10
62.639002
 20
269.416087
 30
0.0
 10
62.639002
 20
265.968788
 30
0.0
  0
SPLINE
  5
2b3
100
AcDbEntity
  8
Mansoane
 62
7
100
AcDbSpline
 70
8
 71
3
 72
8
 73
4
 74
0
 40
0
 40
0
 40
0
 40
0
 40
1
 40
1
 40
1
 40
1
 10
65.016944
 20
268.302082
 30
0.0
 10
65.018708
 20
268.346180
 30
0.0
 10
65.018356
 20
268.398368
 30
0.0
 10
65.016944
 20
268.455871
 30
0.0
  0
LWPOLYLINE
  5
2b4
100
AcDbEntity
  8
Mansoane
 62
7
100
AcDbPolyline
 90
2
 70
0
 10
65.016944
 20
266.055328
 30
0.0
 10
65.016944
 20
268.302082
 30
0.0
  0
SPLINE
  5
2b5
100
AcDbEntity
  8
Mansoane
 62
7
100
AcDbSpline
 70
8
 71
3
 72
8
 73
4
 74
0
 40
0
 40
0
 40
0
 40
0
 40
1
 40
1
 40
1
 40
1
 10
65.020252
 20
268.881408
 30
0.0
 10
65.020605
 20
268.909983
 30
0.0
 10
65.018663
 20
268.937875
 30
0.0
 10
65.015841
 20
268.965745
 30
0.0
  0
SPLINE
  5
2b6
100
AcDbEntity
  8
Mansoane
 62
7
100
AcDbSpline
 70
8
 71
3
 72
8
 73
4
 74
0
 40
0
 40
0
 40
0
 40
0
 40
1
 40
1
 40
1
 40
1
 10
65.015841
 20
268.965745
 30
0.0
 10
65.011255
 20
269.130492
 30
0.0
 10
64.987224
 20
269.279937
 30
0.0
 10
64.944185
 20
269.412229
 30
0.0
  0
SPLINE
  5
2b7
100
AcDbEntity
  8
Mansoane
 62
7
100
AcDbSpline
 70
8
 71
3
 72
8
 73
4
 74
0
 40
0
 40
0
 40
0
 40
0
 40
1
 40
1
 40
1
 40
1
 10
64.944185
 20
269.412229
 30
0.0
 10
64.906438
 20
269.813337
 30
0.0
 10
64.872063
 20
270.201723
 30
0.0
 10
64.882999
 20
270.395045
 30
0.0
  0
SPLINE
  5
2b8
100
AcDbEntity
  8
Mansoane
 62
7
100
AcDbSpline
 70
8
 71
3
 72
8
 73
4
 74
0
 40
0
 40
0
 40
0
 40
0
 40
1
 40
1
 40
1
 40
1
 10
64.882999
 20
270.395045
 30
0.0
 10
64.887938
 20
270.481829
 30
0.0
 10
64.914066
 20
270.569298
 30
0.0
 10
64.905599
 20
270.654670
 30
0.0
  0
SPLINE
  5
2b9
100
AcDbEntity
  8
Mansoane
 62
7
100
AcDbSpline
 70
8
 71
3
 72
8
 73
4
 74
0
 40
0
 40
0
 40
0
 40
0
 40
1
 40
1
 40
1
 40
1
 10
64.905599
 20
270.654670
 30
0.0
 10
64.892899
 20
270.777437
 30
0.0
 10
64.870674
 20
270.902915
 30
0.0
 10
64.826224
 20
271.017921
 30
0.0
  0
SPLINE
  5
2ba
100
AcDbEntity
  8
Mansoane
 62
7
100
AcDbSpline
 70
8
 71
3
 72
8
 73
4
 74
0
 40
0
 40
0
 40
0
 40
0
 40
1
 40
1
 40
1
 40
1
 10
64.826224
 20
271.017921
 30
0.0
 10
64.807880
 20
271.065193
 30
0.0
 10
64.717679
 20
271.117667
 30
0.0
 10
64.665820
 20
271.112728
 30
0.0
  0
SPLINE
  5
2bb
100
AcDbEntity
  8
Mansoane
 62
7
100
AcDbSpline
 70
8
 71
3
 72
8
 73
4
 74
0
 40
0
 40
0
 40
0
 40
0
 40
1
 40
1
 40
1
 40
1
 10
64.665820
 20
271.112728
 30
0.0
 10
64.617843
 20
271.108142
 30
0.0
 10
64.564661
 20
271.036463
 30
0.0
 10
64.535733
 20
270.983194
 30
0.0
  0
SPLINE
  5
2bc
100
AcDbEntity
  8
Mansoane
 62
7
100
AcDbSpline
 70
8
 71
3
 72
8
 73
4
 74
0
 40
0
 40
0
 40
0
 40
0
 40
1
 40
1
 40
1
 40
1
 10
64.535733
 20
270.983194
 30
0.0
 10
64.479994
 20
270.880888
 30
0.0
 10
64.439337
 20
270.770381
 30
0.0
 10
64.392418
 20
270.663489
 30
0.0
  0
SPLINE
  5
2bd
100
AcDbEntity
  8
Mansoane
 62
7
100
AcDbSpline
 70
8
 71
3
 72
8
 73
4
 74
0
 40
0
 40
0
 40
0
 40
0
 40
1
 40
1
 40
1
 40
1
 10
64.392418
 20
270.663489
 30
0.0
 10
64.367723
 20
270.669839
 30
0.0
 10
64.343799
 20
270.676630
 30
0.0
 10
64.319105
 20
270.683332
 30
0.0
  0
SPLINE
  5
2be
100
AcDbEntity
  8
Mansoane
 62
7
100
AcDbSpline
 70
8
 71
3
 72
8
 73
4
 74
0
 40
0
 40
0
 40
0
 40
0
 40
1
 40
1
 40
1
 40
1
 10
64.319105
 20
270.683332
 30
0.0
 10
64.326866
 20
270.881946
 30
0.0
 10
64.338883
 20
271.080382
 30
0.0
 10
64.341705
 20
271.278644
 30
0.0
  0
SPLINE
  5
2bf
100
AcDbEntity
  8
Mansoane
 62
7
100
AcDbSpline
 70
8
 71
3
 72
8
 73
4
 74
0
 40
0
 40
0
 40
0
 40
0
 40
1
 40
1
 40
1
 40
1
 10
64.341705
 20
271.278644
 30
0.0
 10
64.343822
 20
271.418696
 30
0.0
 10
64.352311
 20
271.563115
 30
0.0
 10
64.320208
 20
271.696465
 30
0.0
  0
SPLINE
  5
2c0
100
AcDbEntity
  8
Mansoane
 62
7
100
AcDbSpline
 70
8
 71
3
 72
8
 73
4
 74
0
 40
0
 40
0
 40
0
 40
0
 40
1
 40
1
 40
1
 40
1
 10
64.320208
 20
271.696465
 30
0.0
 10
64.305039
 20
271.760318
 30
0.0
 10
64.200199
 20
271.845603
 30
0.0
 10
64.137757
 20
271.844191
 30
0.0
  0
LWPOLYLINE
  5
2c1
100
AcDbEntity
  8
Mansoane
 62
7
100
AcDbPolyline
 90
3
 70
0
 10
65.016944
 20
268.455871
 30
0.0
 10
65.016944
 20
268.516504
 30
0.0
 10
65.020252
 20
268.881408
 30
0.0
  0
SPLINE
  5
2c2
100
AcDbEntity
  8
Mansoane
 62
7
100
AcDbSpline
 70
8
 71
3
 72
8
 73
4
 74
0
 40
0
 40
0
 40
0
 40
0
 40
1
 40
1
 40
1
 40
1
 10
44.099980
 20
260.979186
 30
0.0
 10
46.712652
 20
260.979186
 30
0.0
 10
48.019118
 20
259.656315
 30
0.0
 10
48.019118
 20
257.011540
 30
0.0
  0
LWPOLYLINE
  5
2c3
100
AcDbEntity
  8
Mansoane
 62
7
100
AcDbPolyline
 90
2
 70
0
 10
64.137757
 20
271.844191
 30
0.0
 10
64.137757
 20
271.844191
 30
0.0
  0
SPLINE
  5
2c4
100
AcDbEntity
  8
Mansoane
 62
7
100
AcDbSpline
 70
8
 71
3
 72
8
 73
4
 74
0
 40
0
 40
0
 40
0
 40
0
 40
1
 40
1
 40
1
 40
1
 10
48.019118
 20
251.341187
 30
0.0
 10
48.019118
 20
251.145396
 30
0.0
 10
48.114876
 20
250.963495
 30
0.0
 10
48.274331
 20
250.850606
 30
0.0
  0
SPLINE
  5
2c5
100
AcDbEntity
  8
Mansoane
 62
7
100
AcDbSpline
 70
8
 71
3
 72
8
 73
4
 74
0
 40
0
 40
0
 40
0
 40
0
 40
1
 40
1
 40
1
 40
1
 10
48.274331
 20
250.850606
 30
0.0
 10
48.843009
 20
250.447381
 30
0.0
 10
49.343646
 20
249.956159
 30
0.0
 10
49.757101
 20
249.395948
 30
0.0
  0
SPLINE
  5
2c6
100
AcDbEntity
  8
Mansoane
 62
7
100
AcDbSpline
 70
8
 71
3
 72
8
 73
4
 74
0
 40
0
 40
0
 40
0
 40
0
 40
1
 40
1
 40
1
 40
1
 10
49.757101
 20
249.395948
 30
0.0
 10
49.871754
 20
249.241079
 30
0.0
 10
50.116492
 20
249.321645
 30
0.0
 10
50.116492
 20
249.513908
 30
0.0
  0
LWPOLYLINE
  5
2c7
100
AcDbEntity
  8
Mansoane
 62
7
100
AcDbPolyline
 90
2
 70
0
 10
48.019118
 20
257.011540
 30
0.0
 10
48.019118
 20
251.341187
 30
0.0
  0
SPLINE
  5
2c8
100
AcDbEntity
  8
Mansoane
 62
7
100
AcDbSpline
 70
8
 71
3
 72
8
 73
4
 74
0
 40
0
 40
0
 40
0
 40
0
 40
1
 40
1
 40
1
 40
1
 10
50.116492
 20
259.622095
 30
0.0
 10
50.116492
 20
260.203826
 30
0.0
 10
50.588489
 20
260.674674
 30
0.0
 10
51.169866
 20
260.673263
 30
0.0
  0
LWPOLYLINE
  5
2c9
100
AcDbEntity
  8
Mansoane
 62
7
100
AcDbPolyline
 90
2
 70
0
 10
50.116492
 20
249.513908
 30
0.0
 10
50.116492
 20
259.622095
 30
0.0
  0
SPLINE
  5
2ca
100
AcDbEntity
  8
Mansoane
 62
7
100
AcDbSpline
 70
8
 71
3
 72
8
 73
4
 74
0
 40
0
 40
0
 40
0
 40
0
 40
1
 40
1
 40
1
 40
1
 10
54.083591
 20
260.666648
 30
0.0
 10
56.503646
 20
260.666648
 30
0.0
 10
57.713341
 20
259.343974
 30
0.0
 10
57.713341
 20
256.699552
 30
0.0
  0
LWPOLYLINE
  5
2cb
100
AcDbEntity
  8
Mansoane
 62
7
100
AcDbPolyline
 90
2
 70
0
 10
51.169866
 20
260.673263
 30
0.0
 10
54.083591
 20
260.666648
 30
0.0
  0
SPLINE
  5
2cc
100
AcDbEntity
  8
Mansoane
 62
7
100
AcDbSpline
 70
8
 71
3
 72
8
 73
4
 74
0
 40
0
 40
0
 40
0
 40
0
 40
1
 40
1
 40
1
 40
1
 10
57.713341
 20
253.858587
 30
0.0
 10
57.713341
 20
252.334940
 30
0.0
 10
57.112385
 20
251.288248
 30
0.0
 10
55.909766
 20
250.718865
 30
0.0
  0
SPLINE
  5
2cd
100
AcDbEntity
  8
Mansoane
 62
7
100
AcDbSpline
 70
8
 71
3
 72
8
 73
4
 74
0
 40
0
 40
0
 40
0
 40
0
 40
1
 40
1
 40
1
 40
1
 10
55.909766
 20
250.718865
 30
0.0
 10
55.717502
 20
250.627495
 30
0.0
 10
55.625340
 20
250.405115
 30
0.0
 10
55.695895
 20
250.204032
 30
0.0
  0
LWPOLYLINE
  5
2ce
100
AcDbEntity
  8
Mansoane
 62
7
100
AcDbPolyline
 90
2
 70
0
 10
57.713341
 20
256.699552
 30
0.0
 10
57.713341
 20
253.858587
 30
0.0
  0
SPLINE
  5
2cf
100
AcDbEntity
  8
Mansoane
 62
7
100
AcDbSpline
 70
8
 71
3
 72
8
 73
4
 74
0
 40
0
 40
0
 40
0
 40
0
 40
1
 40
1
 40
1
 40
1
 10
56.699105
 20
247.323379
 30
0.0
 10
56.776010
 20
247.102892
 30
0.0
 10
57.092057
 20
247.108935
 30
0.0
 10
57.156615
 20
247.333302
 30
0.0
  0
SPLINE
  5
2d0
100
AcDbEntity
  8
Mansoane
 62
7
100
AcDbSpline
 70
8
 71
3
 72
8
 73
4
 74
0
 40
0
 40
0
 40
0
 40
0
 40
1
 40
1
 40
1
 40
1
 10
57.156615
 20
247.333302
 30
0.0
 10
57.564779
 20
248.750057
 30
0.0
 10
58.438234
 20
249.967979
 30
0.0
 10
59.603459
 20
250.811470
 30
0.0
  0
SPLINE
  5
2d1
100
AcDbEntity
  8
Mansoane
 62
7
100
AcDbSpline
 70
8
 71
3
 72
8
 73
4
 74
0
 40
0
 40
0
 40
0
 40
0
 40
1
 40
1
 40
1
 40
1
 10
59.603459
 20
250.811470
 30
0.0
 10
59.782318
 20
250.940940
 30
0.0
 10
59.894964
 20
251.140259
 30
0.0
 10
59.910486
 20
251.358276
 30
0.0
  0
SPLINE
  5
2d2
100
AcDbEntity
  8
Mansoane
 62
7
100
AcDbSpline
 70
8
 71
3
 72
8
 73
4
 74
0
 40
0
 40
0
 40
0
 40
0
 40
1
 40
1
 40
1
 40
1
 10
59.910486
 20
251.358276
 30
0.0
 10
60.344756
 20
251.515967
 30
0.0
 10
59.927662
 20
251.965649
 30
0.0
 10
60.000334
 20
252.109582
 30
0.0
  0
SPLINE
  5
2d3
100
AcDbEntity
  8
Mansoane
 62
7
100
AcDbSpline
 70
8
 71
3
 72
8
 73
4
 74
0
 40
0
 40
0
 40
0
 40
0
 40
1
 40
1
 40
1
 40
1
 10
60.000334
 20
252.109582
 30
0.0
 10
60.088882
 20
252.285266
 30
0.0
 10
60.099863
 20
252.504671
 30
0.0
 10
60.221924
 20
253.339343
 30
0.0
  0
SPLINE
  5
2d4
100
AcDbEntity
  8
Mansoane
 62
7
100
AcDbSpline
 70
8
 71
3
 72
8
 73
4
 74
0
 40
0
 40
0
 40
0
 40
0
 40
1
 40
1
 40
1
 40
1
 10
60.221924
 20
253.339343
 30
0.0
 10
60.343632
 20
254.173663
 30
0.0
 10
60.222076
 20
253.339211
 30
0.0
 10
60.133176
 20
254.085688
 30
0.0
  0
SPLINE
  5
2d5
100
AcDbEntity
  8
Mansoane
 62
7
100
AcDbSpline
 70
8
 71
3
 72
8
 73
4
 74
0
 40
0
 40
0
 40
0
 40
0
 40
1
 40
1
 40
1
 40
1
 10
60.133176
 20
254.085688
 30
0.0
 10
60.044276
 20
254.832166
 30
0.0
 10
60.288466
 20
254.173397
 30
0.0
 10
60.465561
 20
254.876131
 30
0.0
  0
SPLINE
  5
2d6
100
AcDbEntity
  8
Mansoane
 62
7
100
AcDbSpline
 70
8
 71
3
 72
8
 73
4
 74
0
 40
0
 40
0
 40
0
 40
0
 40
1
 40
1
 40
1
 40
1
 10
60.465561
 20
254.876131
 30
0.0
 10
60.643008
 20
255.578511
 30
0.0
 10
60.299600
 20
255.139678
 30
0.0
 10
60.166250
 20
255.842412
 30
0.0
  0
SPLINE
  5
2d7
100
AcDbEntity
  8
Mansoane
 62
7
100
AcDbSpline
 70
8
 71
3
 72
8
 73
4
 74
0
 40
0
 40
0
 40
0
 40
0
 40
1
 40
1
 40
1
 40
1
 10
60.166250
 20
255.842412
 30
0.0
 10
60.033606
 20
256.544792
 30
0.0
 10
60.210522
 20
256.061817
 30
0.0
 10
60.620453
 20
256.939881
 30
0.0
  0
SPLINE
  5
2d8
100
AcDbEntity
  8
Mansoane
 62
7
100
AcDbSpline
 70
8
 71
3
 72
8
 73
4
 74
0
 40
0
 40
0
 40
0
 40
0
 40
1
 40
1
 40
1
 40
1
 10
60.620453
 20
256.939881
 30
0.0
 10
61.030731
 20
257.818297
 30
0.0
 10
60.842085
 20
256.895783
 30
0.0
 10
61.019532
 20
256.939881
 30
0.0
  0
SPLINE
  5
2d9
100
AcDbEntity
  8
Mansoane
 62
7
100
AcDbSpline
 70
8
 71
3
 72
8
 73
4
 74
0
 40
0
 40
0
 40
0
 40
0
 40
1
 40
1
 40
1
 40
1
 10
61.019532
 20
256.939881
 30
0.0
 10
61.196626
 20
256.983978
 30
0.0
 10
60.964408
 20
257.686226
 30
0.0
 10
60.964408
 20
257.686226
 30
0.0
  0
LWPOLYLINE
  5
2da
100
AcDbEntity
  8
Mansoane
 62
7
100
AcDbPolyline
 90
2
 70
0
 10
55.695895
 20
250.204032
 30
0.0
 10
56.699105
 20
247.323379
 30
0.0
  0
SPLINE
  5
2db
100
AcDbEntity
  8
Mansoane
 62
7
100
AcDbSpline
 70
8
 71
3
 72
8
 73
4
 74
0
 40
0
 40
0
 40
0
 40
0
 40
1
 40
1
 40
1
 40
1
 10
60.254995
 20
257.950259
 30
0.0
 10
60.254995
 20
257.950259
 30
0.0
 10
60.111019
 20
258.301140
 30
0.0
 10
60.077505
 20
258.652507
 30
0.0
  0
SPLINE
  5
2dc
100
AcDbEntity
  8
Mansoane
 62
7
100
AcDbSpline
 70
8
 71
3
 72
8
 73
4
 74
0
 40
0
 40
0
 40
0
 40
0
 40
1
 40
1
 40
1
 40
1
 10
60.077505
 20
258.652507
 30
0.0
 10
60.043991
 20
259.003873
 30
0.0
 10
60.077505
 20
259.530548
 30
0.0
 10
60.121602
 20
259.794073
 30
0.0
  0
SPLINE
  5
2dd
100
AcDbEntity
  8
Mansoane
 62
7
100
AcDbSpline
 70
8
 71
3
 72
8
 73
4
 74
0
 40
0
 40
0
 40
0
 40
0
 40
1
 40
1
 40
1
 40
1
 10
60.121602
 20
259.794073
 30
0.0
 10
60.135008
 20
259.871331
 30
0.0
 10
60.157981
 20
259.974740
 30
0.0
 10
60.184439
 20
260.095038
 30
0.0
  0
SPLINE
  5
2de
100
AcDbEntity
  8
Mansoane
 62
7
100
AcDbSpline
 70
8
 71
3
 72
8
 73
4
 74
0
 40
0
 40
0
 40
0
 40
0
 40
1
 40
1
 40
1
 40
1
 10
60.184439
 20
260.095038
 30
0.0
 10
60.440909
 20
260.446404
 30
0.0
 10
60.854762
 20
260.676017
 30
0.0
 10
61.323251
 20
260.676017
 30
0.0
  0
LWPOLYLINE
  5
2df
100
AcDbEntity
  8
Mansoane
 62
7
100
AcDbPolyline
 90
3
 70
0
 10
60.964408
 20
257.686226
 30
0.0
 10
60.565329
 20
257.686226
 30
0.0
 10
60.254995
 20
257.950259
 30
0.0
  0
SPLINE
  5
2e0
100
AcDbEntity
  8
Mansoane
 62
7
100
AcDbSpline
 70
8
 71
3
 72
8
 73
4
 74
0
 40
0
 40
0
 40
0
 40
0
 40
1
 40
1
 40
1
 40
1
 10
61.657840
 20
260.676017
 30
0.0
 10
62.232515
 20
260.676017
 30
0.0
 10
62.732310
 20
260.280269
 30
0.0
 10
62.863897
 20
259.720763
 30
0.0
  0
LWPOLYLINE
  5
2e1
100
AcDbEntity
  8
Mansoane
 62
7
100
AcDbPolyline
 90
2
 70
0
 10
61.323251
 20
260.676017
 30
0.0
 10
61.657840
 20
260.676017
 30
0.0
  0
SPLINE
  5
2e2
100
AcDbEntity
  8
Mansoane
 62
7
100
AcDbSpline
 70
8
 71
3
 72
8
 73
4
 74
0
 40
0
 40
0
 40
0
 40
0
 40
1
 40
1
 40
1
 40
1
 10
64.660309
 20
252.090840
 30
0.0
 10
64.683239
 20
251.994532
 30
0.0
 10
64.758226
 20
251.918840
 30
0.0
 10
64.854887
 20
251.896262
 30
0.0
  0
SPLINE
  5
2e3
100
AcDbEntity
  8
Mansoane
 62
7
100
AcDbSpline
 70
8
 71
3
 72
8
 73
4
 74
0
 40
0
 40
0
 40
0
 40
0
 40
1
 40
1
 40
1
 40
1
 10
64.854887
 20
251.896262
 30
0.0
 10
64.883462
 20
251.889912
 30
0.0
 10
64.912302
 20
251.882724
 30
0.0
 10
64.940877
 20
251.875315
 30
0.0
  0
SPLINE
  5
2e4
100
AcDbEntity
  8
Mansoane
 62
7
100
AcDbSpline
 70
8
 71
3
 72
8
 73
4
 74
0
 40
0
 40
0
 40
0
 40
0
 40
1
 40
1
 40
1
 40
1
 10
64.940877
 20
251.875315
 30
0.0
 10
65.082694
 20
251.840743
 30
0.0
 10
65.219241
 20
251.948648
 30
0.0
 10
65.219241
 20
252.094698
 30
0.0
  0
LWPOLYLINE
  5
2e5
100
AcDbEntity
  8
Mansoane
 62
7
100
AcDbPolyline
 90
2
 70
0
 10
62.863897
 20
259.720763
 30
0.0
 10
64.660309
 20
252.090840
 30
0.0
  0
SPLINE
  5
2e6
100
AcDbEntity
  8
Mansoane
 62
7
100
AcDbSpline
 70
8
 71
3
 72
8
 73
4
 74
0
 40
0
 40
0
 40
0
 40
0
 40
1
 40
1
 40
1
 40
1
 10
65.219241
 20
259.506339
 30
0.0
 10
65.219241
 20
260.129345
 30
0.0
 10
65.717406
 20
260.637367
 30
0.0
 10
66.340411
 20
260.649009
 30
0.0
  0
LWPOLYLINE
  5
2e7
100
AcDbEntity
  8
Mansoane
 62
7
100
AcDbPolyline
 90
2
 70
0
 10
65.219241
 20
252.094698
 30
0.0
 10
65.219241
 20
259.506339
 30
0.0
  0
SPLINE
  5
2e8
100
AcDbEntity
  8
Mansoane
 62
7
100
AcDbSpline
 70
8
 71
3
 72
8
 73
4
 74
0
 40
0
 40
0
 40
0
 40
0
 40
1
 40
1
 40
1
 40
1
 10
66.593971
 20
260.653970
 30
0.0
 10
67.224385
 20
260.665965
 30
0.0
 10
67.741602
 20
260.158253
 30
0.0
 10
67.741602
 20
259.527836
 30
0.0
  0
LWPOLYLINE
  5
2e9
100
AcDbEntity
  8
Mansoane
 62
7
100
AcDbPolyline
 90
2
 70
0
 10
66.340411
 20
260.649009
 30
0.0
 10
66.593971
 20
260.653970
 30
0.0
  0
SPLINE
  5
2ea
100
AcDbEntity
  8
Mansoane
 62
7
100
AcDbSpline
 70
8
 71
3
 72
8
 73
4
 74
0
 40
0
 40
0
 40
0
 40
0
 40
1
 40
1
 40
1
 40
1
 10
67.741602
 20
250.422311
 30
0.0
 10
69.102972
 20
249.224278
 30
0.0
 10
69.966857
 20
247.474500
 30
0.0
 10
69.966857
 20
245.518700
 30
0.0
  0
SPLINE
  5
2eb
100
AcDbEntity
  8
Mansoane
 62
7
100
AcDbSpline
 70
8
 71
3
 72
8
 73
4
 74
0
 40
0
 40
0
 40
0
 40
0
 40
1
 40
1
 40
1
 40
1
 10
69.966857
 20
245.518700
 30
0.0
 10
69.966857
 20
241.908372
 30
0.0
 10
67.039970
 20
238.981288
 30
0.0
 10
63.429995
 20
238.981288
 30
0.0
  0
SPLINE
  5
2ec
100
AcDbEntity
  8
Mansoane
 62
7
100
AcDbSpline
 70
8
 71
3
 72
8
 73
4
 74
0
 40
0
 40
0
 40
0
 40
0
 40
1
 40
1
 40
1
 40
1
 10
63.429995
 20
238.981288
 30
0.0
 10
61.292161
 20
238.981288
 30
0.0
 10
59.396664
 20
240.010010
 30
0.0
 10
58.203925
 20
241.596805
 30
0.0
  0
SPLINE
  5
2ed
100
AcDbEntity
  8
Mansoane
 62
7
100
AcDbSpline
 70
8
 71
3
 72
8
 73
4
 74
0
 40
0
 40
0
 40
0
 40
0
 40
1
 40
1
 40
1
 40
1
 10
58.203925
 20
241.596805
 30
0.0
 10
58.115025
 20
241.714985
 30
0.0
 10
57.974859
 20
241.784217
 30
0.0
 10
57.826340
 20
241.784217
 30
0.0
  0
LWPOLYLINE
  5
2ee
100
AcDbEntity
  8
Mansoane
 62
7
100
AcDbPolyline
 90
2
 70
0
 10
67.741602
 20
259.527836
 30
0.0
 10
67.741602
 20
250.422311
 30
0.0
  0
SPLINE
  5
2ef
100
AcDbEntity
  8
Mansoane
 62
7
100
AcDbSpline
 70
8
 71
3
 72
8
 73
4
 74
0
 40
0
 40
0
 40
0
 40
0
 40
1
 40
1
 40
1
 40
1
 10
56.252621
 20
241.784217
 30
0.0
 10
55.891376
 20
241.784217
 30
0.0
 10
55.573303
 20
242.021879
 30
0.0
 10
55.470998
 20
242.367954
 30
0.0
  0
LWPOLYLINE
  5
2f0
100
AcDbEntity
  8
Mansoane
 62
7
100
AcDbPolyline
 90
2
 70
0
 10
57.826340
 20
241.784217
 30
0.0
 10
56.252621
 20
241.784217
 30
0.0
  0
SPLINE
  5
2f1
100
AcDbEntity
  8
Mansoane
 62
7
100
AcDbSpline
 70
8
 71
3
 72
8
 73
4
 74
0
 40
0
 40
0
 40
0
 40
0
 40
1
 40
1
 40
1
 40
1
 10
53.224797
 20
249.969765
 30
0.0
 10
53.203630
 20
250.041026
 30
0.0
 10
53.133712
 20
250.086379
 30
0.0
 10
53.059982
 20
250.076149
 30
0.0
  0
LWPOLYLINE
  5
2f2
100
AcDbEntity
  8
Mansoane
 62
7
100
AcDbPolyline
 90
2
 70
0
 10
55.470998
 20
242.367954
 30
0.0
 10
53.224797
 20
249.969765
 30
0.0
  0
SPLINE
  5
2f3
100
AcDbEntity
  8
Mansoane
 62
7
100
AcDbSpline
 70
8
 71
3
 72
8
 73
4
 74
0
 40
0
 40
0
 40
0
 40
0
 40
1
 40
1
 40
1
 40
1
 10
52.966276
 20
250.062921
 30
0.0
 10
52.894662
 20
250.053043
 30
0.0
 10
52.841703
 20
249.991922
 30
0.0
 10
52.841703
 20
249.919603
 30
0.0
  0
LWPOLYLINE
  5
2f4
100
AcDbEntity
  8
Mansoane
 62
7
100
AcDbPolyline
 90
2
 70
0
 10
53.059982
 20
250.076149
 30
0.0
 10
52.966276
 20
250.062921
 30
0.0
  0
SPLINE
  5
2f5
100
AcDbEntity
  8
Mansoane
 62
7
100
AcDbSpline
 70
8
 71
3
 72
8
 73
4
 74
0
 40
0
 40
0
 40
0
 40
0
 40
1
 40
1
 40
1
 40
1
 10
52.841703
 20
242.412052
 30
0.0
 10
52.841703
 20
242.064918
 30
0.0
 10
52.559898
 20
241.784217
 30
0.0
 10
52.212765
 20
241.784217
 30
0.0
  0
LWPOLYLINE
  5
2f6
100
AcDbEntity
  8
Mansoane
 62
7
100
AcDbPolyline
 90
2
 70
0
 10
52.841703
 20
249.919603
 30
0.0
 10
52.841703
 20
242.412052
 30
0.0
  0
SPLINE
  5
2f7
100
AcDbEntity
  8
Mansoane
 62
7
100
AcDbSpline
 70
8
 71
3
 72
8
 73
4
 74
0
 40
0
 40
0
 40
0
 40
0
 40
1
 40
1
 40
1
 40
1
 10
50.116492
 20
241.784217
 30
0.0
 10
50.116492
 20
241.897812
 30
0.0
 10
49.969781
 20
241.944203
 30
0.0
 10
49.905928
 20
241.850364
 30
0.0
  0
SPLINE
  5
2f8
100
AcDbEntity
  8
Mansoane
 62
7
100
AcDbSpline
 70
8
 71
3
 72
8
 73
4
 74
0
 40
0
 40
0
 40
0
 40
0
 40
1
 40
1
 40
1
 40
1
 10
49.905928
 20
241.850364
 30
0.0
 10
48.730473
 20
240.121400
 30
0.0
 10
46.752626
 20
238.981640
 30
0.0
 10
44.504020
 20
238.981288
 30
0.0
  0
SPLINE
  5
2f9
100
AcDbEntity
  8
Mansoane
 62
7
100
AcDbSpline
 70
8
 71
3
 72
8
 73
4
 74
0
 40
0
 40
0
 40
0
 40
0
 40
1
 40
1
 40
1
 40
1
 10
44.504020
 20
238.981288
 30
0.0
 10
40.887695
 20
238.980582
 30
0.0
 10
37.936619
 20
241.956042
 30
0.0
 10
37.966605
 20
245.572720
 30
0.0
  0
SPLINE
  5
2fa
100
AcDbEntity
  8
Mansoane
 62
7
100
AcDbSpline
 70
8
 71
3
 72
8
 73
4
 74
0
 40
0
 40
0
 40
0
 40
0
 40
1
 40
1
 40
1
 40
1
 10
37.966605
 20
245.572720
 30
0.0
 10
37.981774
 20
247.420570
 30
0.0
 10
38.767611
 20
249.081270
 30
0.0
 10
40.013269
 20
250.260254
 30
0.0
  0
SPLINE
  5
2fb
100
AcDbEntity
  8
Mansoane
 62
7
100
AcDbSpline
 70
8
 71
3
 72
8
 73
4
 74
0
 40
0
 40
0
 40
0
 40
0
 40
1
 40
1
 40
1
 40
1
 10
40.013269
 20
250.260254
 30
0.0
 10
40.108872
 20
250.350917
 30
0.0
 10
40.167961
 20
250.471438
 30
0.0
 10
40.185247
 20
250.600907
 30
0.0
  0
SPLINE
  5
2fc
100
AcDbEntity
  8
Mansoane
 62
7
100
AcDbSpline
 70
8
 71
3
 72
8
 73
4
 74
0
 40
0
 40
0
 40
0
 40
0
 40
1
 40
1
 40
1
 40
1
 10
40.185247
 20
250.600907
 30
0.0
 10
40.253686
 20
250.587854
 30
0.0
 10
40.323095
 20
250.581281
 30
0.0
 10
40.385890
 20
250.586573
 30
0.0
  0
SPLINE
  5
2fd
100
AcDbEntity
  8
Mansoane
 62
7
100
AcDbSpline
 70
8
 71
3
 72
8
 73
4
 74
0
 40
0
 40
0
 40
0
 40
0
 40
1
 40
1
 40
1
 40
1
 10
40.385890
 20
250.586573
 30
0.0
 10
40.379893
 20
250.581634
 30
0.0
 10
40.373698
 20
250.577381
 30
0.0
 10
40.367701
 20
250.572795
 30
0.0
  0
SPLINE
  5
2fe
100
AcDbEntity
  8
Mansoane
 62
7
100
AcDbSpline
 70
8
 71
3
 72
8
 73
4
 74
0
 40
0
 40
0
 40
0
 40
0
 40
1
 40
1
 40
1
 40
1
 10
40.367701
 20
250.572795
 30
0.0
 10
40.256576
 20
250.481425
 30
0.0
 10
40.190759
 20
250.345758
 30
0.0
 10
40.190759
 20
250.201825
 30
0.0
  0
LWPOLYLINE
  5
2ff
100
AcDbEntity
  8
Mansoane
 62
7
100
AcDbPolyline
 90
2
 70
0
 10
52.212765
 20
241.784217
 30
0.0
 10
50.116492
 20
241.784217
 30
0.0
  0
SPLINE
  5
300
100
AcDbEntity
  8
Mansoane
 62
7
100
AcDbSpline
 70
8
 71
3
 72
8
 73
4
 74
0
 40
0
 40
0
 40
0
 40
0
 40
1
 40
1
 40
1
 40
1
 10
40.190759
 20
245.457517
 30
0.0
 10
40.190759
 20
242.806039
 30
0.0
 10
41.493657
 20
241.480498
 30
0.0
 10
44.099980
 20
241.480498
 30
0.0
  0
SPLINE
  5
301
100
AcDbEntity
  8
Mansoane
 62
7
100
AcDbSpline
 70
8
 71
3
 72
8
 73
4
 74
0
 40
0
 40
0
 40
0
 40
0
 40
1
 40
1
 40
1
 40
1
 10
44.099980
 20
241.480498
 30
0.0
 10
46.712652
 20
241.486848
 30
0.0
 10
48.019118
 20
242.812742
 30
0.0
 10
48.019118
 20
245.457517
 30
0.0
  0
LWPOLYLINE
  5
302
100
AcDbEntity
  8
Mansoane
 62
7
100
AcDbPolyline
 90
2
 70
0
 10
40.190759
 20
250.201825
 30
0.0
 10
40.190759
 20
245.457517
 30
0.0
  0
SPLINE
  5
303
100
AcDbEntity
  8
Mansoane
 62
7
100
AcDbSpline
 70
8
 71
3
 72
8
 73
4
 74
0
 40
0
 40
0
 40
0
 40
0
 40
1
 40
1
 40
1
 40
1
 10
48.019118
 20
250.755246
 30
0.0
 10
48.019118
 20
250.925285
 30
0.0
 10
47.928654
 20
251.082381
 30
0.0
 10
47.781546
 20
251.168106
 30
0.0
  0
SPLINE
  5
304
100
AcDbEntity
  8
Mansoane
 62
7
100
AcDbSpline
 70
8
 71
3
 72
8
 73
4
 74
0
 40
0
 40
0
 40
0
 40
0
 40
1
 40
1
 40
1
 40
1
 10
47.781546
 20
251.168106
 30
0.0
 10
47.196993
 20
251.508184
 30
0.0
 10
46.554805
 20
251.759934
 30
0.0
 10
45.873238
 20
251.905632
 30
0.0
  0
SPLINE
  5
305
100
AcDbEntity
  8
Mansoane
 62
7
100
AcDbSpline
 70
8
 71
3
 72
8
 73
4
 74
0
 40
0
 40
0
 40
0
 40
0
 40
1
 40
1
 40
1
 40
1
 10
45.873238
 20
251.905632
 30
0.0
 10
45.575494
 20
251.969132
 30
0.0
 10
45.294463
 20
251.746154
 30
0.0
 10
45.294463
 20
251.442059
 30
0.0
  0
LWPOLYLINE
  5
306
100
AcDbEntity
  8
Mansoane
 62
7
100
AcDbPolyline
 90
2
 70
0
 10
48.019118
 20
245.457517
 30
0.0
 10
48.019118
 20
250.755246
 30
0.0
  0
SPLINE
  5
307
100
AcDbEntity
  8
Mansoane
 62
7
100
AcDbSpline
 70
8
 71
3
 72
8
 73
4
 74
0
 40
0
 40
0
 40
0
 40
0
 40
1
 40
1
 40
1
 40
1
 10
45.294463
 20
245.457517
 30
0.0
 10
45.294463
 20
244.603795
 30
0.0
 10
44.896199
 20
244.176491
 30
0.0
 10
44.099980
 20
244.176491
 30
0.0
  0
SPLINE
  5
308
100
AcDbEntity
  8
Mansoane
 62
7
100
AcDbSpline
 70
8
 71
3
 72
8
 73
4
 74
0
 40
0
 40
0
 40
0
 40
0
 40
1
 40
1
 40
1
 40
1
 10
44.099980
 20
244.176491
 30
0.0
 10
43.310463
 20
244.176491
 30
0.0
 10
42.915967
 20
244.603795
 30
0.0
 10
42.915967
 20
245.457517
 30
0.0
  0
LWPOLYLINE
  5
309
100
AcDbEntity
  8
Mansoane
 62
7
100
AcDbPolyline
 90
2
 70
0
 10
45.294463
 20
251.442059
 30
0.0
 10
45.294463
 20
245.457517
 30
0.0
  0
SPLINE
  5
30a
100
AcDbEntity
  8
Mansoane
 62
7
100
AcDbSpline
 70
8
 71
3
 72
8
 73
4
 74
0
 40
0
 40
0
 40
0
 40
0
 40
1
 40
1
 40
1
 40
1
 10
42.915967
 20
250.378767
 30
0.0
 10
42.915967
 20
251.150645
 30
0.0
 10
42.091506
 20
251.636462
 30
0.0
 10
41.411703
 20
251.270632
 30
0.0
  0
SPLINE
  5
30b
100
AcDbEntity
  8
Mansoane
 62
7
100
AcDbSpline
 70
8
 71
3
 72
8
 73
4
 74
0
 40
0
 40
0
 40
0
 40
0
 40
1
 40
1
 40
1
 40
1
 10
41.411703
 20
251.270632
 30
0.0
 10
41.138297
 20
251.124229
 30
0.0
 10
40.877332
 20
250.958181
 30
0.0
 10
40.628976
 20
250.775089
 30
0.0
  0
SPLINE
  5
30c
100
AcDbEntity
  8
Mansoane
 62
7
100
AcDbSpline
 70
8
 71
3
 72
8
 73
4
 74
0
 40
0
 40
0
 40
0
 40
0
 40
1
 40
1
 40
1
 40
1
 10
40.628976
 20
250.775089
 30
0.0
 10
40.741865
 20
251.085886
 30
0.0
 10
40.800316
 20
251.185415
 30
0.0
 10
40.736464
 20
251.649317
 30
0.0
  0
SPLINE
  5
30d
100
AcDbEntity
  8
Mansoane
 62
7
100
AcDbSpline
 70
8
 71
3
 72
8
 73
4
 74
0
 40
0
 40
0
 40
0
 40
0
 40
1
 40
1
 40
1
 40
1
 10
40.736464
 20
251.649317
 30
0.0
 10
40.669789
 20
252.132270
 30
0.0
 10
40.515227
 20
252.703197
 30
0.0
 10
40.470777
 20
252.966722
 30
0.0
  0
SPLINE
  5
30e
100
AcDbEntity
  8
Mansoane
 62
7
100
AcDbSpline
 70
8
 71
3
 72
8
 73
4
 74
0
 40
0
 40
0
 40
0
 40
0
 40
1
 40
1
 40
1
 40
1
 10
40.470777
 20
252.966722
 30
0.0
 10
40.426327
 20
253.230600
 30
0.0
 10
40.392968
 20
253.757275
 30
0.0
 10
40.426129
 20
254.108289
 30
0.0
  0
SPLINE
  5
30f
100
AcDbEntity
  8
Mansoane
 62
7
100
AcDbSpline
 70
8
 71
3
 72
8
 73
4
 74
0
 40
0
 40
0
 40
0
 40
0
 40
1
 40
1
 40
1
 40
1
 10
40.426129
 20
254.108289
 30
0.0
 10
40.437065
 20
254.221178
 30
0.0
 10
40.458960
 20
254.334264
 30
0.0
 10
40.484007
 20
254.435158
 30
0.0
  0
SPLINE
  5
310
100
AcDbEntity
  8
Mansoane
 62
7
100
AcDbSpline
 70
8
 71
3
 72
8
 73
4
 74
0
 40
0
 40
0
 40
0
 40
0
 40
1
 40
1
 40
1
 40
1
 10
40.484007
 20
254.435158
 30
0.0
 10
40.540099
 20
254.661642
 30
0.0
 10
40.666348
 20
254.864246
 30
0.0
 10
40.844501
 20
255.015588
 30
0.0
  0
SPLINE
  5
311
100
AcDbEntity
  8
Mansoane
 62
7
100
AcDbSpline
 70
8
 71
3
 72
8
 73
4
 74
0
 40
0
 40
0
 40
0
 40
0
 40
1
 40
1
 40
1
 40
1
 10
40.844501
 20
255.015588
 30
0.0
 10
40.893890
 20
255.057216
 30
0.0
 10
40.931615
 20
255.111103
 30
0.0
 10
40.954192
 20
255.172134
 30
0.0
  0
SPLINE
  5
312
100
AcDbEntity
  8
Mansoane
 62
7
100
AcDbSpline
 70
8
 71
3
 72
8
 73
4
 74
0
 40
0
 40
0
 40
0
 40
0
 40
1
 40
1
 40
1
 40
1
 10
40.954192
 20
255.172134
 30
0.0
 10
41.008167
 20
255.319595
 30
0.0
 10
41.085338
 20
255.605367
 30
0.0
 10
40.969627
 20
255.820915
 30
0.0
  0
SPLINE
  5
313
100
AcDbEntity
  8
Mansoane
 62
7
100
AcDbSpline
 70
8
 71
3
 72
8
 73
4
 74
0
 40
0
 40
0
 40
0
 40
0
 40
1
 40
1
 40
1
 40
1
 10
40.969627
 20
255.820915
 30
0.0
 10
40.510310
 20
256.674284
 30
0.0
 10
40.382074
 20
256.216201
 30
0.0
 10
40.515424
 20
256.918934
 30
0.0
  0
SPLINE
  5
314
100
AcDbEntity
  8
Mansoane
 62
7
100
AcDbSpline
 70
8
 71
3
 72
8
 73
4
 74
0
 40
0
 40
0
 40
0
 40
0
 40
1
 40
1
 40
1
 40
1
 10
40.515424
 20
256.918934
 30
0.0
 10
40.648069
 20
257.621667
 30
0.0
 10
40.991279
 20
257.181931
 30
0.0
 10
40.814185
 20
257.884665
 30
0.0
  0
SPLINE
  5
315
100
AcDbEntity
  8
Mansoane
 62
7
100
AcDbSpline
 70
8
 71
3
 72
8
 73
4
 74
0
 40
0
 40
0
 40
0
 40
0
 40
1
 40
1
 40
1
 40
1
 10
40.814185
 20
257.884665
 30
0.0
 10
40.636385
 20
258.587398
 30
0.0
 10
40.393253
 20
257.928629
 30
0.0
 10
40.481800
 20
258.675107
 30
0.0
  0
SPLINE
  5
316
100
AcDbEntity
  8
Mansoane
 62
7
100
AcDbSpline
 70
8
 71
3
 72
8
 73
4
 74
0
 40
0
 40
0
 40
0
 40
0
 40
1
 40
1
 40
1
 40
1
 10
40.481800
 20
258.675107
 30
0.0
 10
40.558706
 20
259.324218
 30
0.0
 10
40.661057
 20
258.778649
 30
0.0
 10
40.606376
 20
259.173407
 30
0.0
  0
SPLINE
  5
317
100
AcDbEntity
  8
Mansoane
 62
7
100
AcDbSpline
 70
8
 71
3
 72
8
 73
4
 74
0
 40
0
 40
0
 40
0
 40
0
 40
1
 40
1
 40
1
 40
1
 10
40.606376
 20
259.173407
 30
0.0
 10
41.178582
 20
260.376379
 30
0.0
 10
42.342441
 20
260.979186
 30
0.0
 10
44.099980
 20
260.979186
 30
0.0
  0
LWPOLYLINE
  5
318
100
AcDbEntity
  8
Mansoane
 62
7
100
AcDbPolyline
 90
2
 70
0
 10
42.915967
 20
245.457517
 30
0.0
 10
42.915967
 20
250.378767
 30
0.0
  0
SPLINE
  5
319
100
AcDbEntity
  8
Mansoane
 62
7
100
AcDbSpline
 70
8
 71
3
 72
8
 73
4
 74
0
 40
0
 40
0
 40
0
 40
0
 40
1
 40
1
 40
1
 40
1
 10
67.741602
 20
250.422311
 30
0.0
 10
67.070972
 20
251.012508
 30
0.0
 10
66.280772
 20
251.466644
 30
0.0
 10
65.409408
 20
251.743574
 30
0.0
  0
SPLINE
  5
31a
100
AcDbEntity
  8
Mansoane
 62
7
100
AcDbSpline
 70
8
 71
3
 72
8
 73
4
 74
0
 40
0
 40
0
 40
0
 40
0
 40
1
 40
1
 40
1
 40
1
 10
65.409408
 20
251.743574
 30
0.0
 10
65.315219
 20
251.773207
 30
0.0
 10
65.219241
 20
251.704548
 30
0.0
 10
65.219241
 20
251.605771
 30
0.0
  0
LWPOLYLINE
  5
31b
100
AcDbEntity
  8
Mansoane
 62
7
100
AcDbPolyline
 90
2
 70
0
 10
44.099980
 20
260.979186
 30
0.0
 10
44.099980
 20
260.979186
 30
0.0
  0
SPLINE
  5
31c
100
AcDbEntity
  8
Mansoane
 62
7
100
AcDbSpline
 70
8
 71
3
 72
8
 73
4
 74
0
 40
0
 40
0
 40
0
 40
0
 40
1
 40
1
 40
1
 40
1
 10
65.219241
 20
250.291673
 30
0.0
 10
65.219241
 20
250.212651
 30
0.0
 10
65.105844
 20
250.199333
 30
0.0
 10
65.087500
 20
250.276241
 30
0.0
  0
LWPOLYLINE
  5
31d
100
AcDbEntity
  8
Mansoane
 62
7
100
AcDbPolyline
 90
2
 70
0
 10
65.219241
 20
251.605771
 30
0.0
 10
65.219241
 20
250.291673
 30
0.0
  0
SPLINE
  5
31e
100
AcDbEntity
  8
Mansoane
 62
7
100
AcDbSpline
 70
8
 71
3
 72
8
 73
4
 74
0
 40
0
 40
0
 40
0
 40
0
 40
1
 40
1
 40
1
 40
1
 10
64.739131
 20
251.757355
 30
0.0
 10
64.714436
 20
251.862130
 30
0.0
 10
64.629992
 20
251.943864
 30
0.0
 10
64.524159
 20
251.961856
 30
0.0
  0
SPLINE
  5
31f
100
AcDbEntity
  8
Mansoane
 62
7
100
AcDbSpline
 70
8
 71
3
 72
8
 73
4
 74
0
 40
0
 40
0
 40
0
 40
0
 40
1
 40
1
 40
1
 40
1
 10
64.524159
 20
251.961856
 30
0.0
 10
64.167853
 20
252.022534
 30
0.0
 10
63.802881
 20
252.055012
 30
0.0
 10
63.429995
 20
252.055012
 30
0.0
  0
SPLINE
  5
320
100
AcDbEntity
  8
Mansoane
 62
7
100
AcDbSpline
 70
8
 71
3
 72
8
 73
4
 74
0
 40
0
 40
0
 40
0
 40
0
 40
1
 40
1
 40
1
 40
1
 10
63.429995
 20
252.055012
 30
0.0
 10
63.156592
 20
252.055012
 30
0.0
 10
62.889452
 20
252.032897
 30
0.0
 10
62.625221
 20
252.000441
 30
0.0
  0
LWPOLYLINE
  5
321
100
AcDbEntity
  8
Mansoane
 62
7
100
AcDbPolyline
 90
2
 70
0
 10
65.087500
 20
250.276241
 30
0.0
 10
64.739131
 20
251.757355
 30
0.0
  0
SPLINE
  5
322
100
AcDbEntity
  8
Mansoane
 62
7
100
AcDbSpline
 70
8
 71
3
 72
8
 73
4
 74
0
 40
0
 40
0
 40
0
 40
0
 40
1
 40
1
 40
1
 40
1
 10
64.804727
 20
242.691519
 30
0.0
 10
64.928905
 20
242.159880
 30
0.0
 10
65.403103
 20
241.784217
 30
0.0
 10
65.948498
 20
241.784217
 30
0.0
  0
LWPOLYLINE
  5
323
100
AcDbEntity
  8
Mansoane
 62
7
100
AcDbPolyline
 90
2
 70
0
 10
62.625221
 20
252.000441
 30
0.0
 10
64.804727
 20
242.691519
 30
0.0
  0
SPLINE
  5
324
100
AcDbEntity
  8
Mansoane
 62
7
100
AcDbSpline
 70
8
 71
3
 72
8
 73
4
 74
0
 40
0
 40
0
 40
0
 40
0
 40
1
 40
1
 40
1
 40
1
 10
66.869578
 20
241.784217
 30
0.0
 10
67.351473
 20
241.784217
 30
0.0
 10
67.741602
 20
242.174344
 30
0.0
 10
67.741602
 20
242.656241
 30
0.0
  0
LWPOLYLINE
  5
325
100
AcDbEntity
  8
Mansoane
 62
7
100
AcDbPolyline
 90
2
 70
0
 10
65.948498
 20
241.784217
 30
0.0
 10
66.869578
 20
241.784217
 30
0.0
  0
LWPOLYLINE
  5
326
100
AcDbEntity
  8
Mansoane
 62
7
100
AcDbPolyline
 90
3
 70
0
 10
67.741602
 20
242.656241
 30
0.0
 10
67.741602
 20
250.422311
 30
0.0
 10
67.741602
 20
250.422311
 30
0.0
  0
SPLINE
  5
327
100
AcDbEntity
  8
Mansoane
 62
7
100
AcDbSpline
 70
8
 71
3
 72
8
 73
4
 74
0
 40
0
 40
0
 40
0
 40
0
 40
1
 40
1
 40
1
 40
1
 10
62.532618
 20
251.986110
 30
0.0
 10
62.563663
 20
251.990696
 30
0.0
 10
62.593824
 20
251.996561
 30
0.0
 10
62.625221
 20
252.000441
 30
0.0
  0
LWPOLYLINE
  5
328
100
AcDbEntity
  8
Mansoane
 62
7
100
AcDbPolyline
 90
3
 70
0
 10
62.625221
 20
252.000441
 30
0.0
 10
62.532618
 20
252.394559
 30
0.0
 10
62.532618
 20
251.986110
 30
0.0
  0
SPLINE
  5
329
100
AcDbEntity
  8
Mansoane
 62
7
100
AcDbSpline
 70
8
 71
3
 72
8
 73
4
 74
0
 40
0
 40
0
 40
0
 40
0
 40
1
 40
1
 40
1
 40
1
 10
62.532618
 20
251.986110
 30
0.0
 10
61.733930
 20
251.876396
 30
0.0
 10
60.982047
 20
251.623762
 30
0.0
 10
60.302953
 20
251.252993
 30
0.0
  0
SPLINE
  5
32a
100
AcDbEntity
  8
Mansoane
 62
7
100
AcDbSpline
 70
8
 71
3
 72
8
 73
4
 74
0
 40
0
 40
0
 40
0
 40
0
 40
1
 40
1
 40
1
 40
1
 10
60.302953
 20
251.252993
 30
0.0
 10
60.063769
 20
251.122818
 30
0.0
 10
59.913794
 20
250.873802
 30
0.0
 10
59.913794
 20
250.601457
 30
0.0
  0
LWPOLYLINE
  5
32b
100
AcDbEntity
  8
Mansoane
 62
7
100
AcDbPolyline
 90
2
 70
0
 10
62.625221
 20
252.000441
 30
0.0
 10
62.625221
 20
252.000441
 30
0.0
  0
SPLINE
  5
32c
100
AcDbEntity
  8
Mansoane
 62
7
100
AcDbSpline
 70
8
 71
3
 72
8
 73
4
 74
0
 40
0
 40
0
 40
0
 40
0
 40
1
 40
1
 40
1
 40
1
 10
59.913794
 20
245.079382
 30
0.0
 10
59.909560
 20
245.014823
 30
0.0
 10
59.909913
 20
244.931458
 30
0.0
 10
59.913794
 20
244.834091
 30
0.0
  0
LWPOLYLINE
  5
32d
100
AcDbEntity
  8
Mansoane
 62
7
100
AcDbPolyline
 90
2
 70
0
 10
59.913794
 20
250.601457
 30
0.0
 10
59.913794
 20
245.079382
 30
0.0
  0
SPLINE
  5
32e
100
AcDbEntity
  8
Mansoane
 62
7
100
AcDbSpline
 70
8
 71
3
 72
8
 73
4
 74
0
 40
0
 40
0
 40
0
 40
0
 40
1
 40
1
 40
1
 40
1
 10
59.913794
 20
244.366110
 30
0.0
 10
59.913794
 20
244.256749
 30
0.0
 10
59.935268
 20
244.153230
 30
0.0
 10
59.974426
 20
244.057980
 30
0.0
  0
SPLINE
  5
32f
100
AcDbEntity
  8
Mansoane
 62
7
100
AcDbSpline
 70
8
 71
3
 72
8
 73
4
 74
0
 40
0
 40
0
 40
0
 40
0
 40
1
 40
1
 40
1
 40
1
 10
59.974426
 20
244.057980
 30
0.0
 10
60.028401
 20
243.502002
 30
0.0
 10
60.095717
 20
242.900561
 30
0.0
 10
60.083017
 20
242.630333
 30
0.0
  0
SPLINE
  5
330
100
AcDbEntity
  8
Mansoane
 62
7
100
AcDbSpline
 70
8
 71
3
 72
8
 73
4
 74
0
 40
0
 40
0
 40
0
 40
0
 40
1
 40
1
 40
1
 40
1
 10
60.083017
 20
242.630333
 30
0.0
 10
60.078431
 20
242.530850
 30
0.0
 10
60.050736
 20
242.429690
 30
0.0
 10
60.060967
 20
242.332677
 30
0.0
  0
SPLINE
  5
331
100
AcDbEntity
  8
Mansoane
 62
7
100
AcDbSpline
 70
8
 71
3
 72
8
 73
4
 74
0
 40
0
 40
0
 40
0
 40
0
 40
1
 40
1
 40
1
 40
1
 10
60.060967
 20
242.332677
 30
0.0
 10
60.075784
 20
242.191565
 30
0.0
 10
60.101669
 20
242.047389
 30
0.0
 10
60.152469
 20
241.916509
 30
0.0
  0
SPLINE
  5
332
100
AcDbEntity
  8
Mansoane
 62
7
100
AcDbSpline
 70
8
 71
3
 72
8
 73
4
 74
0
 40
0
 40
0
 40
0
 40
0
 40
1
 40
1
 40
1
 40
1
 10
60.152469
 20
241.916509
 30
0.0
 10
60.173283
 20
241.862181
 30
0.0
 10
60.274310
 20
241.803225
 30
0.0
 10
60.332166
 20
241.809575
 30
0.0
  0
SPLINE
  5
333
100
AcDbEntity
  8
Mansoane
 62
7
100
AcDbSpline
 70
8
 71
3
 72
8
 73
4
 74
0
 40
0
 40
0
 40
0
 40
0
 40
1
 40
1
 40
1
 40
1
 10
60.332166
 20
241.809575
 30
0.0
 10
60.386141
 20
241.814866
 30
0.0
 10
60.443931
 20
241.897769
 30
0.0
 10
60.476034
 20
241.959503
 30
0.0
  0
SPLINE
  5
334
100
AcDbEntity
  8
Mansoane
 62
7
100
AcDbSpline
 70
8
 71
3
 72
8
 73
4
 74
0
 40
0
 40
0
 40
0
 40
0
 40
1
 40
1
 40
1
 40
1
 10
60.476034
 20
241.959503
 30
0.0
 10
60.537065
 20
242.077333
 30
0.0
 10
60.581424
 20
242.204243
 30
0.0
 10
60.632577
 20
242.327715
 30
0.0
  0
SPLINE
  5
335
100
AcDbEntity
  8
Mansoane
 62
7
100
AcDbSpline
 70
8
 71
3
 72
8
 73
4
 74
0
 40
0
 40
0
 40
0
 40
0
 40
1
 40
1
 40
1
 40
1
 10
60.632577
 20
242.327715
 30
0.0
 10
60.660094
 20
242.320307
 30
0.0
 10
60.687743
 20
242.312876
 30
0.0
 10
60.715260
 20
242.305115
 30
0.0
  0
SPLINE
  5
336
100
AcDbEntity
  8
Mansoane
 62
7
100
AcDbSpline
 70
8
 71
3
 72
8
 73
4
 74
0
 40
0
 40
0
 40
0
 40
0
 40
1
 40
1
 40
1
 40
1
 10
60.715260
 20
242.305115
 30
0.0
 10
60.708204
 20
242.077573
 30
0.0
 10
60.697025
 20
241.849701
 30
0.0
 10
60.695967
 20
241.622159
 30
0.0
  0
SPLINE
  5
337
100
AcDbEntity
  8
Mansoane
 62
7
100
AcDbSpline
 70
8
 71
3
 72
8
 73
4
 74
0
 40
0
 40
0
 40
0
 40
0
 40
1
 40
1
 40
1
 40
1
 10
60.695967
 20
241.622159
 30
0.0
 10
60.695261
 20
241.461646
 30
0.0
 10
60.686685
 20
241.296261
 30
0.0
 10
60.724079
 20
241.143155
 30
0.0
  0
SPLINE
  5
338
100
AcDbEntity
  8
Mansoane
 62
7
100
AcDbSpline
 70
8
 71
3
 72
8
 73
4
 74
0
 40
0
 40
0
 40
0
 40
0
 40
1
 40
1
 40
1
 40
1
 10
60.724079
 20
241.143155
 30
0.0
 10
60.742071
 20
241.070483
 30
0.0
 10
60.859633
 20
240.973469
 30
0.0
 10
60.929131
 20
240.975586
 30
0.0
  0
SPLINE
  5
339
100
AcDbEntity
  8
Mansoane
 62
7
100
AcDbSpline
 70
8
 71
3
 72
8
 73
4
 74
0
 40
0
 40
0
 40
0
 40
0
 40
1
 40
1
 40
1
 40
1
 10
60.929131
 20
240.975586
 30
0.0
 10
60.995103
 20
240.977702
 30
0.0
 10
61.095797
 20
241.086290
 30
0.0
 10
61.113789
 20
241.163548
 30
0.0
  0
SPLINE
  5
33a
100
AcDbEntity
  8
Mansoane
 62
7
100
AcDbSpline
 70
8
 71
3
 72
8
 73
4
 74
0
 40
0
 40
0
 40
0
 40
0
 40
1
 40
1
 40
1
 40
1
 10
61.113789
 20
241.163548
 30
0.0
 10
61.169175
 20
241.400615
 30
0.0
 10
61.207055
 20
241.634597
 30
0.0
 10
61.117096
 20
241.888947
 30
0.0
  0
SPLINE
  5
33b
100
AcDbEntity
  8
Mansoane
 62
7
100
AcDbSpline
 70
8
 71
3
 72
8
 73
4
 74
0
 40
0
 40
0
 40
0
 40
0
 40
1
 40
1
 40
1
 40
1
 10
61.117096
 20
241.888947
 30
0.0
 10
61.057830
 20
242.057930
 30
0.0
 10
61.103425
 20
242.268956
 30
0.0
 10
61.119300
 20
242.459456
 30
0.0
  0
SPLINE
  5
33c
100
AcDbEntity
  8
Mansoane
 62
7
100
AcDbSpline
 70
8
 71
3
 72
8
 73
4
 74
0
 40
0
 40
0
 40
0
 40
0
 40
1
 40
1
 40
1
 40
1
 10
61.119300
 20
242.459456
 30
0.0
 10
61.140467
 20
242.709223
 30
0.0
 10
61.178657
 20
242.957226
 30
0.0
 10
61.209702
 20
243.209109
 30
0.0
  0
SPLINE
  5
33d
100
AcDbEntity
  8
Mansoane
 62
7
100
AcDbSpline
 70
8
 71
3
 72
8
 73
4
 74
0
 40
0
 40
0
 40
0
 40
0
 40
1
 40
1
 40
1
 40
1
 10
61.209702
 20
243.209109
 30
0.0
 10
61.266852
 20
243.197820
 30
0.0
 10
61.293177
 20
243.197270
 30
0.0
 10
61.294589
 20
243.190920
 30
0.0
  0
SPLINE
  5
33e
100
AcDbEntity
  8
Mansoane
 62
7
100
AcDbSpline
 70
8
 71
3
 72
8
 73
4
 74
0
 40
0
 40
0
 40
0
 40
0
 40
1
 40
1
 40
1
 40
1
 10
61.294589
 20
243.190920
 30
0.0
 10
61.364439
 20
242.887884
 30
0.0
 10
61.431952
 20
242.584605
 30
0.0
 10
61.500743
 20
242.280863
 30
0.0
  0
SPLINE
  5
33f
100
AcDbEntity
  8
Mansoane
 62
7
100
AcDbSpline
 70
8
 71
3
 72
8
 73
4
 74
0
 40
0
 40
0
 40
0
 40
0
 40
1
 40
1
 40
1
 40
1
 10
61.500743
 20
242.280863
 30
0.0
 10
61.517677
 20
242.207133
 30
0.0
 10
61.522040
 20
242.125331
 30
0.0
 10
61.556965
 20
242.061478
 30
0.0
  0
SPLINE
  5
340
100
AcDbEntity
  8
Mansoane
 62
7
100
AcDbSpline
 70
8
 71
3
 72
8
 73
4
 74
0
 40
0
 40
0
 40
0
 40
0
 40
1
 40
1
 40
1
 40
1
 10
61.556965
 20
242.061478
 30
0.0
 10
61.636693
 20
241.916839
 30
0.0
 10
61.767906
 20
241.913159
 30
0.0
 10
61.834228
 20
242.062031
 30
0.0
  0
SPLINE
  5
341
100
AcDbEntity
  8
Mansoane
 62
7
100
AcDbSpline
 70
8
 71
3
 72
8
 73
4
 74
0
 40
0
 40
0
 40
0
 40
0
 40
1
 40
1
 40
1
 40
1
 10
61.834228
 20
242.062031
 30
0.0
 10
61.895965
 20
242.200673
 30
0.0
 10
61.928925
 20
242.354571
 30
0.0
 10
61.957148
 20
242.505207
 30
0.0
  0
SPLINE
  5
342
100
AcDbEntity
  8
Mansoane
 62
7
100
AcDbSpline
 70
8
 71
3
 72
8
 73
4
 74
0
 40
0
 40
0
 40
0
 40
0
 40
1
 40
1
 40
1
 40
1
 10
61.957148
 20
242.505207
 30
0.0
 10
61.994189
 20
242.701352
 30
0.0
 10
62.006384
 20
242.901972
 30
0.0
 10
62.045895
 20
243.097764
 30
0.0
  0
SPLINE
  5
343
100
AcDbEntity
  8
Mansoane
 62
7
100
AcDbSpline
 70
8
 71
3
 72
8
 73
4
 74
0
 40
0
 40
0
 40
0
 40
0
 40
1
 40
1
 40
1
 40
1
 10
62.045895
 20
243.097764
 30
0.0
 10
62.059653
 20
243.165145
 30
0.0
 10
62.113033
 20
243.261233
 30
0.0
 10
62.167714
 20
243.277461
 30
0.0
  0
SPLINE
  5
344
100
AcDbEntity
  8
Mansoane
 62
7
100
AcDbSpline
 70
8
 71
3
 72
8
 73
4
 74
0
 40
0
 40
0
 40
0
 40
0
 40
1
 40
1
 40
1
 40
1
 10
62.167714
 20
243.277461
 30
0.0
 10
62.419244
 20
243.350838
 30
0.0
 10
62.546001
 20
243.501847
 30
0.0
 10
62.562935
 20
243.705753
 30
0.0
  0
SPLINE
  5
345
100
AcDbEntity
  8
Mansoane
 62
7
100
AcDbSpline
 70
8
 71
3
 72
8
 73
4
 74
0
 40
0
 40
0
 40
0
 40
0
 40
1
 40
1
 40
1
 40
1
 10
62.562935
 20
243.705753
 30
0.0
 10
62.585160
 20
243.973158
 30
0.0
 10
62.550963
 20
244.273747
 30
0.0
 10
62.532618
 20
244.566200
 30
0.0
  0
LWPOLYLINE
  5
346
100
AcDbEntity
  8
Mansoane
 62
7
100
AcDbPolyline
 90
2
 70
0
 10
59.913794
 20
244.834091
 30
0.0
 10
59.913794
 20
244.366110
 30
0.0
  0
SPLINE
  5
347
100
AcDbEntity
  8
Mansoane
 62
7
100
AcDbSpline
 70
8
 71
3
 72
8
 73
4
 74
0
 40
0
 40
0
 40
0
 40
0
 40
1
 40
1
 40
1
 40
1
 10
44.090607
 20
258.292563
 30
0.0
 10
43.307087
 20
258.292563
 30
0.0
 10
42.915967
 20
257.865812
 30
0.0
 10
42.915967
 20
257.012090
 30
0.0
  0
LWPOLYLINE
  5
348
100
AcDbEntity
  8
Mansoane
 62
7
100
AcDbPolyline
 90
3
 70
0
 10
62.532618
 20
244.566200
 30
0.0
 10
62.532618
 20
251.986110
 30
0.0
 10
62.532618
 20
251.986110
 30
0.0
  0
SPLINE
  5
349
100
AcDbEntity
  8
Mansoane
 62
7
100
AcDbSpline
 70
8
 71
3
 72
8
 73
4
 74
0
 40
0
 40
0
 40
0
 40
0
 40
1
 40
1
 40
1
 40
1
 10
42.915967
 20
251.852715
 30
0.0
 10
43.424673
 20
251.980068
 30
0.0
 10
43.954347
 20
252.055012
 30
0.0
 10
44.502917
 20
252.055012
 30
0.0
  0
SPLINE
  5
34a
100
AcDbEntity
  8
Mansoane
 62
7
100
AcDbSpline
 70
8
 71
3
 72
8
 73
4
 74
0
 40
0
 40
0
 40
0
 40
0
 40
1
 40
1
 40
1
 40
1
 10
44.502917
 20
252.055012
 30
0.0
 10
44.771028
 20
252.055012
 30
0.0
 10
45.033912
 20
252.033845
 30
0.0
 10
45.293909
 20
252.002095
 30
0.0
  0
LWPOLYLINE
  5
34b
100
AcDbEntity
  8
Mansoane
 62
7
100
AcDbPolyline
 90
2
 70
0
 10
42.915967
 20
257.012090
 30
0.0
 10
42.915967
 20
251.852715
 30
0.0
  0
SPLINE
  5
34c
100
AcDbEntity
  8
Mansoane
 62
7
100
AcDbSpline
 70
8
 71
3
 72
8
 73
4
 74
0
 40
0
 40
0
 40
0
 40
0
 40
1
 40
1
 40
1
 40
1
 10
45.293909
 20
257.012090
 30
0.0
 10
45.293909
 20
257.859109
 30
0.0
 10
44.899416
 20
258.285861
 30
0.0
 10
44.109900
 20
258.292563
 30
0.0
  0
LWPOLYLINE
  5
34d
100
AcDbEntity
  8
Mansoane
 62
7
100
AcDbPolyline
 90
2
 70
0
 10
45.293909
 20
252.002095
 30
0.0
 10
45.293909
 20
257.012090
 30
0.0
  0
SPLINE
  5
34e
100
AcDbEntity
  8
Mansoane
 62
7
100
AcDbSpline
 70
8
 71
3
 72
8
 73
4
 74
0
 40
0
 40
0
 40
0
 40
0
 40
1
 40
1
 40
1
 40
1
 10
53.564897
 20
257.989395
 30
0.0
 10
53.165550
 20
257.989395
 30
0.0
 10
52.841703
 20
257.665347
 30
0.0
 10
52.841703
 20
257.265650
 30
0.0
  0
LWPOLYLINE
  5
34f
100
AcDbEntity
  8
Mansoane
 62
7
100
AcDbPolyline
 90
3
 70
0
 10
44.109900
 20
258.292563
 30
0.0
 10
44.090607
 20
258.292563
 30
0.0
 10
44.090607
 20
258.292563
 30
0.0
  0
SPLINE
  5
350
100
AcDbEntity
  8
Mansoane
 62
7
100
AcDbSpline
 70
8
 71
3
 72
8
 73
4
 74
0
 40
0
 40
0
 40
0
 40
0
 40
1
 40
1
 40
1
 40
1
 10
52.841703
 20
253.204297
 30
0.0
 10
52.841703
 20
252.858575
 30
0.0
 10
53.121608
 20
252.578116
 30
0.0
 10
53.467330
 20
252.578114
 30
0.0
  0
SPLINE
  5
351
100
AcDbEntity
  8
Mansoane
 62
7
100
AcDbSpline
 70
8
 71
3
 72
8
 73
4
 74
0
 40
0
 40
0
 40
0
 40
0
 40
1
 40
1
 40
1
 40
1
 10
53.467330
 20
252.578114
 30
0.0
 10
53.845508
 20
252.578114
 30
0.0
 10
54.106188
 20
252.603779
 30
0.0
 10
54.247299
 20
252.655284
 30
0.0
  0
SPLINE
  5
352
100
AcDbEntity
  8
Mansoane
 62
7
100
AcDbSpline
 70
8
 71
3
 72
8
 73
4
 74
0
 40
0
 40
0
 40
0
 40
0
 40
1
 40
1
 40
1
 40
1
 10
54.247299
 20
252.655284
 30
0.0
 10
54.741541
 20
252.854251
 30
0.0
 10
54.988686
 20
253.255337
 30
0.0
 10
54.988686
 20
253.858587
 30
0.0
  0
LWPOLYLINE
  5
353
100
AcDbEntity
  8
Mansoane
 62
7
100
AcDbPolyline
 90
2
 70
0
 10
52.841703
 20
257.265650
 30
0.0
 10
52.841703
 20
253.204297
 30
0.0
  0
SPLINE
  5
354
100
AcDbEntity
  8
Mansoane
 62
7
100
AcDbSpline
 70
8
 71
3
 72
8
 73
4
 74
0
 40
0
 40
0
 40
0
 40
0
 40
1
 40
1
 40
1
 40
1
 10
54.988686
 20
256.699552
 30
0.0
 10
54.988686
 20
257.559624
 30
0.0
 10
54.593640
 20
257.989395
 30
0.0
 10
53.804123
 20
257.989395
 30
0.0
  0
LWPOLYLINE
  5
355
100
AcDbEntity
  8
Mansoane
 62
7
100
AcDbPolyline
 90
2
 70
0
 10
54.988686
 20
253.858587
 30
0.0
 10
54.988686
 20
256.699552
 30
0.0
  0
LWPOLYLINE
  5
356
100
AcDbEntity
  8
Mansoane
 62
7
100
AcDbPolyline
 90
3
 70
0
 10
53.804123
 20
257.989395
 30
0.0
 10
53.564897
 20
257.989395
 30
0.0
 10
53.564897
 20
257.989395
 30
0.0
  0
SPLINE
  5
357
100
AcDbEntity
  8
Mansoane
 62
7
100
AcDbSpline
 70
8
 71
3
 72
8
 73
4
 74
0
 40
0
 40
0
 40
0
 40
0
 40
1
 40
1
 40
1
 40
1
 10
50.116492
 20
242.835385
 30
0.0
 10
50.116492
 20
242.661465
 30
0.0
 10
50.352743
 20
242.609144
 30
0.0
 10
50.426826
 20
242.766483
 30
0.0
  0
SPLINE
  5
358
100
AcDbEntity
  8
Mansoane
 62
7
100
AcDbSpline
 70
8
 71
3
 72
8
 73
4
 74
0
 40
0
 40
0
 40
0
 40
0
 40
1
 40
1
 40
1
 40
1
 10
50.426826
 20
242.766483
 30
0.0
 10
50.818057
 20
243.602919
 30
0.0
 10
51.039779
 20
244.533547
 30
0.0
 10
51.039779
 20
245.518150
 30
0.0
  0
SPLINE
  5
359
100
AcDbEntity
  8
Mansoane
 62
7
100
AcDbSpline
 70
8
 71
3
 72
8
 73
4
 74
0
 40
0
 40
0
 40
0
 40
0
 40
1
 40
1
 40
1
 40
1
 10
51.039779
 20
245.518150
 30
0.0
 10
51.039779
 20
246.738761
 30
0.0
 10
50.698931
 20
247.877660
 30
0.0
 10
50.116492
 20
248.855207
 30
0.0
  0
LWPOLYLINE
  5
35a
100
AcDbEntity
  8
Mansoane
 62
7
100
AcDbPolyline
 90
2
 70
0
 10
50.116492
 20
248.855207
 30
0.0
 10
50.116492
 20
242.835385
 30
0.0
  0
SPLINE
  5
35b
100
AcDbEntity
  8
Mansoane
 62
7
100
AcDbSpline
 70
8
 71
3
 72
8
 73
4
 74
0
 40
0
 40
0
 40
0
 40
0
 40
1
 40
1
 40
1
 40
1
 10
57.033693
 20
245.989438
 30
0.0
 10
56.967989
 20
245.979871
 30
0.0
 10
56.907994
 20
245.929929
 30
0.0
 10
56.903056
 20
245.846673
 30
0.0
  0
SPLINE
  5
35c
100
AcDbEntity
  8
Mansoane
 62
7
100
AcDbSpline
 70
8
 71
3
 72
8
 73
4
 74
0
 40
0
 40
0
 40
0
 40
0
 40
1
 40
1
 40
1
 40
1
 10
56.903056
 20
245.846673
 30
0.0
 10
56.896353
 20
245.738018
 30
0.0
 10
56.893133
 20
245.628767
 30
0.0
 10
56.893133
 20
245.518700
 30
0.0
  0
SPLINE
  5
35d
100
AcDbEntity
  8
Mansoane
 62
7
100
AcDbSpline
 70
8
 71
3
 72
8
 73
4
 74
0
 40
0
 40
0
 40
0
 40
0
 40
1
 40
1
 40
1
 40
1
 10
56.893133
 20
245.518700
 30
0.0
 10
56.893133
 20
244.129108
 30
0.0
 10
57.329807
 20
242.843256
 30
0.0
 10
58.068876
 20
241.784217
 30
0.0
  0
SPLINE
  5
35e
100
AcDbEntity
  8
Mansoane
 62
7
100
AcDbSpline
 70
8
 71
3
 72
8
 73
4
 74
0
 40
0
 40
0
 40
0
 40
0
 40
1
 40
1
 40
1
 40
1
 10
58.068876
 20
241.784217
 30
0.0
 10
58.342632
 20
241.784217
 30
0.0
 10
58.533860
 20
242.054050
 30
0.0
 10
58.444254
 20
242.312280
 30
0.0
  0
LWPOLYLINE
  5
35f
100
AcDbEntity
  8
Mansoane
 62
7
100
AcDbPolyline
 90
2
 70
0
 10
50.116492
 20
248.855207
 30
0.0
 10
50.116492
 20
248.855207
 30
0.0
  0
SPLINE
  5
360
100
AcDbEntity
  8
Mansoane
 62
7
100
AcDbSpline
 70
8
 71
3
 72
8
 73
4
 74
0
 40
0
 40
0
 40
0
 40
0
 40
1
 40
1
 40
1
 40
1
 10
57.198508
 20
245.889117
 30
0.0
 10
57.170992
 20
245.967964
 30
0.0
 10
57.099398
 20
245.999008
 30
0.0
 10
57.033693
 20
245.989438
 30
0.0
  0
LWPOLYLINE
  5
361
100
AcDbEntity
  8
Mansoane
 62
7
100
AcDbPolyline
 90
2
 70
0
 10
58.444254
 20
242.312280
 30
0.0
 10
57.198508
 20
245.889117
 30
0.0
  0
LWPOLYLINE
  5
362
100
AcDbEntity
  8
Mansoane
 62
7
100
AcDbPolyline
 90
2
 70
0
 10
57.033693
 20
245.989438
 30
0.0
 10
57.033693
 20
245.989438
 30
0.0
  0
SPLINE
  5
363
100
AcDbEntity
  8
Mansoane
 62
7
100
AcDbSpline
 70
8
 71
3
 72
8
 73
4
 74
0
 40
0
 40
0
 40
0
 40
0
 40
1
 40
1
 40
1
 40
1
 10
55.488086
 20
237.760346
 30
0.0
 10
55.802411
 20
237.760346
 30
0.0
 10
56.085582
 20
237.569626
 30
0.0
 10
56.204115
 20
237.278585
 30
0.0
  0
LWPOLYLINE
  5
364
100
AcDbEntity
  8
Mansoane
 62
7
100
AcDbPolyline
 90
6
 70
0
 10
52.366553
 20
237.760346
 30
0.0
 10
53.387405
 20
237.760346
 30
0.0
 10
53.960669
 20
237.760346
 30
0.0
 10
53.963423
 20
237.760346
 30
0.0
 10
54.536137
 20
237.760346
 30
0.0
 10
55.488086
 20
237.760346
 30
0.0
  0
SPLINE
  5
365
100
AcDbEntity
  8
Mansoane
 62
7
100
AcDbSpline
 70
8
 71
3
 72
8
 73
4
 74
0
 40
0
 40
0
 40
0
 40
0
 40
1
 40
1
 40
1
 40
1
 10
58.163133
 20
232.467026
 30
0.0
 10
58.304949
 20
232.118834
 30
0.0
 10
58.223525
 20
231.718982
 30
0.0
 10
57.957531
 20
231.453340
 30
0.0
  0
LWPOLYLINE
  5
366
100
AcDbEntity
  8
Mansoane
 62
7
100
AcDbPolyline
 90
2
 70
0
 10
56.204115
 20
237.278585
 30
0.0
 10
58.163133
 20
232.467026
 30
0.0
  0
SPLINE
  5
367
100
AcDbEntity
  8
Mansoane
 62
7
100
AcDbSpline
 70
8
 71
3
 72
8
 73
4
 74
0
 40
0
 40
0
 40
0
 40
0
 40
1
 40
1
 40
1
 40
1
 10
54.541098
 20
228.042972
 30
0.0
 10
54.221129
 20
227.724061
 30
0.0
 10
53.703361
 20
227.724259
 30
0.0
 10
53.384097
 20
228.043523
 30
0.0
  0
LWPOLYLINE
  5
368
100
AcDbEntity
  8
Mansoane
 62
7
100
AcDbPolyline
 90
2
 70
0
 10
57.957531
 20
231.453340
 30
0.0
 10
54.541098
 20
228.042972
 30
0.0
  0
SPLINE
  5
369
100
AcDbEntity
  8
Mansoane
 62
7
100
AcDbSpline
 70
8
 71
3
 72
8
 73
4
 74
0
 40
0
 40
0
 40
0
 40
0
 40
1
 40
1
 40
1
 40
1
 10
49.885535
 20
231.542088
 30
0.0
 10
49.673516
 20
231.754460
 30
0.0
 10
49.609683
 20
232.072533
 30
0.0
 10
49.722924
 20
232.350169
 30
0.0
  0
LWPOLYLINE
  5
36a
100
AcDbEntity
  8
Mansoane
 62
7
100
AcDbPolyline
 90
2
 70
0
 10
53.384097
 20
228.043523
 30
0.0
 10
49.885535
 20
231.542088
 30
0.0
  0
SPLINE
  5
36b
100
AcDbEntity
  8
Mansoane
 62
7
100
AcDbSpline
 70
8
 71
3
 72
8
 73
4
 74
0
 40
0
 40
0
 40
0
 40
0
 40
1
 40
1
 40
1
 40
1
 10
51.758562
 20
237.350794
 30
0.0
 10
51.859104
 20
237.598091
 30
0.0
 10
52.099501
 20
237.760346
 30
0.0
 10
52.366553
 20
237.760346
 30
0.0
  0
LWPOLYLINE
  5
36c
100
AcDbEntity
  8
Mansoane
 62
7
100
AcDbPolyline
 90
2
 70
0
 10
49.722924
 20
232.350169
 30
0.0
 10
51.758562
 20
237.350794
 30
0.0
  0
SPLINE
  5
36d
100
AcDbEntity
  8
Mansoane
 62
7
100
AcDbSpline
 70
8
 71
3
 72
8
 73
4
 74
0
 40
0
 40
0
 40
0
 40
0
 40
1
 40
1
 40
1
 40
1
 10
52.931548
 20
237.034395
 30
0.0
 10
52.618282
 20
237.034395
 30
0.0
 10
52.336260
 20
236.844270
 30
0.0
 10
52.217726
 20
236.554287
 30
0.0
  0
LWPOLYLINE
  5
36e
100
AcDbEntity
  8
Mansoane
 62
7
100
AcDbPolyline
 90
2
 70
0
 10
52.366553
 20
237.760346
 30
0.0
 10
52.366553
 20
237.760346
 30
0.0
  0
SPLINE
  5
36f
100
AcDbEntity
  8
Mansoane
 62
7
100
AcDbSpline
 70
8
 71
3
 72
8
 73
4
 74
0
 40
0
 40
0
 40
0
 40
0
 40
1
 40
1
 40
1
 40
1
 10
50.733302
 20
232.908548
 30
0.0
 10
50.598894
 20
232.577643
 30
0.0
 10
50.789944
 20
231.444851
 30
0.0
 10
51.042536
 20
231.192615
 30
0.0
  0
LWPOLYLINE
  5
370
100
AcDbEntity
  8
Mansoane
 62
7
100
AcDbPolyline
 90
2
 70
0
 10
52.217726
 20
236.554287
 30
0.0
 10
50.733302
 20
232.908548
 30
0.0
  0
SPLINE
  5
371
100
AcDbEntity
  8
Mansoane
 62
7
100
AcDbSpline
 70
8
 71
3
 72
8
 73
4
 74
0
 40
0
 40
0
 40
0
 40
0
 40
1
 40
1
 40
1
 40
1
 10
53.465676
 20
228.988307
 30
0.0
 10
53.740137
 20
228.713846
 30
0.0
 10
54.185058
 20
228.713292
 30
0.0
 10
54.459519
 20
228.987754
 30
0.0
  0
LWPOLYLINE
  5
372
100
AcDbEntity
  8
Mansoane
 62
7
100
AcDbPolyline
 90
2
 70
0
 10
51.042536
 20
231.192615
 30
0.0
 10
53.465676
 20
228.988307
 30
0.0
  0
SPLINE
  5
373
100
AcDbEntity
  8
Mansoane
 62
7
100
AcDbSpline
 70
8
 71
3
 72
8
 73
4
 74
0
 40
0
 40
0
 40
0
 40
0
 40
1
 40
1
 40
1
 40
1
 10
55.918585
 20
230.838186
 30
0.0
 10
56.182110
 20
231.101003
 30
0.0
 10
57.853879
 20
231.694950
 30
0.0
 10
57.310954
 20
232.634045
 30
0.0
  0
LWPOLYLINE
  5
374
100
AcDbEntity
  8
Mansoane
 62
7
100
AcDbPolyline
 90
2
 70
0
 10
54.459519
 20
228.987754
 30
0.0
 10
55.918585
 20
230.838186
 30
0.0
  0
SPLINE
  5
375
100
AcDbEntity
  8
Mansoane
 62
7
100
AcDbSpline
 70
8
 71
3
 72
8
 73
4
 74
0
 40
0
 40
0
 40
0
 40
0
 40
1
 40
1
 40
1
 40
1
 10
55.703611
 20
236.581848
 30
0.0
 10
55.592133
 20
236.855251
 30
0.0
 10
55.326404
 20
237.034395
 30
0.0
 10
55.031129
 20
237.034395
 30
0.0
  0
SPLINE
  5
376
100
AcDbEntity
  8
Mansoane
 62
7
100
AcDbSpline
 70
8
 71
3
 72
8
 73
4
 74
0
 40
0
 40
0
 40
0
 40
0
 40
1
 40
1
 40
1
 40
1
 10
55.031129
 20
237.034395
 30
0.0
 10
54.716451
 20
237.034395
 30
0.0
 10
54.453454
 20
236.792942
 30
0.0
 10
54.426996
 20
236.479323
 30
0.0
  0
SPLINE
  5
377
100
AcDbEntity
  8
Mansoane
 62
7
100
AcDbSpline
 70
8
 71
3
 72
8
 73
4
 74
0
 40
0
 40
0
 40
0
 40
0
 40
1
 40
1
 40
1
 40
1
 10
54.426996
 20
236.479323
 30
0.0
 10
54.426996
 20
236.479323
 30
0.0
 10
54.573399
 20
234.561357
 30
0.0
 10
54.329982
 20
234.073819
 30
0.0
  0
SPLINE
  5
378
100
AcDbEntity
  8
Mansoane
 62
7
100
AcDbSpline
 70
8
 71
3
 72
8
 73
4
 74
0
 40
0
 40
0
 40
0
 40
0
 40
1
 40
1
 40
1
 40
1
 10
54.329982
 20
234.073819
 30
0.0
 10
54.086212
 20
233.586632
 30
0.0
 10
53.879442
 20
233.719342
 30
0.0
 10
53.949645
 20
234.318006
 30
0.0
  0
SPLINE
  5
379
100
AcDbEntity
  8
Mansoane
 62
7
100
AcDbSpline
 70
8
 71
3
 72
8
 73
4
 74
0
 40
0
 40
0
 40
0
 40
0
 40
1
 40
1
 40
1
 40
1
 10
53.949645
 20
234.318006
 30
0.0
 10
54.019848
 20
234.916317
 30
0.0
 10
53.480451
 20
234.162608
 30
0.0
 10
53.949645
 20
231.791236
 30
0.0
  0
SPLINE
  5
37a
100
AcDbEntity
  8
Mansoane
 62
7
100
AcDbSpline
 70
8
 71
3
 72
8
 73
4
 74
0
 40
0
 40
0
 40
0
 40
0
 40
1
 40
1
 40
1
 40
1
 10
53.949645
 20
231.791236
 30
0.0
 10
54.418840
 20
229.419864
 30
0.0
 10
52.833544
 20
232.445791
 30
0.0
 10
53.493238
 20
236.517908
 30
0.0
  0
SPLINE
  5
37b
100
AcDbEntity
  8
Mansoane
 62
7
100
AcDbSpline
 70
8
 71
3
 72
8
 73
4
 74
0
 40
0
 40
0
 40
0
 40
0
 40
1
 40
1
 40
1
 40
1
 10
53.493238
 20
236.517908
 30
0.0
 10
53.539805
 20
236.806830
 30
0.0
 10
53.224354
 20
237.034395
 30
0.0
 10
52.931548
 20
237.034395
 30
0.0
  0
LWPOLYLINE
  5
37c
100
AcDbEntity
  8
Mansoane
 62
7
100
AcDbPolyline
 90
2
 70
0
 10
57.310954
 20
232.634045
 30
0.0
 10
55.703611
 20
236.581848
 30
0.0
  0
SPLINE
  5
37d
100
AcDbEntity
  8
Mansoane
 62
1
100
AcDbSpline
 70
8
 71
3
 72
8
 73
4
 74
0
 40
0
 40
0
 40
0
 40
0
 40
1
 40
1
 40
1
 40
1
 10
54.907657
 20
290.007837
 30
0.0
 10
34.294146
 20
290.007837
 30
0.0
 10
17.583767
 20
273.297461
 30
0.0
 10
17.583768
 20
252.683947
 30
0.0
  0
SPLINE
  5
37e
100
AcDbEntity
  8
Mansoane
 62
1
100
AcDbSpline
 70
8
 71
3
 72
8
 73
4
 74
0
 40
0
 40
0
 40
0
 40
0
 40
1
 40
1
 40
1
 40
1
 10
17.583768
 20
252.683947
 30
0.0
 10
17.583768
 20
232.070436
 30
0.0
 10
34.294146
 20
215.360058
 30
0.0
 10
54.907657
 20
215.360058
 30
0.0
  0
SPLINE
  5
37f
100
AcDbEntity
  8
Mansoane
 62
1
100
AcDbSpline
 70
8
 71
3
 72
8
 73
4
 74
0
 40
0
 40
0
 40
0
 40
0
 40
1
 40
1
 40
1
 40
1
 10
54.907657
 20
215.360058
 30
0.0
 10
75.520815
 20
215.360058
 30
0.0
 10
92.231546
 20
232.070439
 30
0.0
 10
92.231546
 20
252.683947
 30
0.0
  0
SPLINE
  5
380
100
AcDbEntity
  8
Mansoane
 62
1
100
AcDbSpline
 70
8
 71
3
 72
8
 73
4
 74
0
 40
0
 40
0
 40
0
 40
0
 40
1
 40
1
 40
1
 40
1
 10
92.231546
 20
252.683947
 30
0.0
 10
92.231546
 20
273.297461
 30
0.0
 10
75.520815
 20
290.007837
 30
0.0
 10
54.907657
 20
290.007837
 30
0.0
  0
LWPOLYLINE
  5
381
100
AcDbEntity
  8
Mansoane
 62
7
100
AcDbPolyline
 90
2
 70
0
 10
52.931548
 20
237.034395
 30
0.0
 10
52.931548
 20
237.034395
 30
0.0
  0
LWPOLYLINE
  5
382
100
AcDbEntity
  8
Mansoane
 62
1
100
AcDbPolyline
 90
2
 70
0
 10
54.907657
 20
290.007837
 30
0.0
 10
54.907657
 20
290.007837
 30
0.0
  0
ENDSEC
  0
SECTION
  2
OBJECTS
  0
DICTIONARY
  5
C
330
0
100
AcDbDictionary
  3
ACAD_GROUP
350
D
  3
ACAD_MLINESTYLE
350
17
  0
DICTIONARY
  5
D
330
C
100
AcDbDictionary
  0
DICTIONARY
  5
1A
330
C
100
AcDbDictionary
  0
DICTIONARY
  5
17
330
C
100
AcDbDictionary
  3
STANDARD
350
18
  0
DICTIONARY
  5
19
330
C
100
AcDbDictionary
  0
ENDSEC
  0
EOF
