<?xml version="1.0" encoding="UTF-8" standalone="no"?>
<!-- Created with Inkscape (http://www.inkscape.org/) -->

<svg
   xmlns:dc="http://purl.org/dc/elements/1.1/"
   xmlns:cc="http://creativecommons.org/ns#"
   xmlns:rdf="http://www.w3.org/1999/02/22-rdf-syntax-ns#"
   xmlns:svg="http://www.w3.org/2000/svg"
   xmlns="http://www.w3.org/2000/svg"
   xmlns:sodipodi="http://sodipodi.sourceforge.net/DTD/sodipodi-0.dtd"
   xmlns:inkscape="http://www.inkscape.org/namespaces/inkscape"
   id="svg5899"
   version="1.1"
   inkscape:version="0.91 r13725"
   xml:space="preserve"
   width="1346.1875"
   height="1081.8212"
   viewBox="0 0 1346.1875 1081.8212"
   sodipodi:docname="dopuri.svg"><metadata
     id="metadata5905"><rdf:RDF><cc:Work
         rdf:about=""><dc:format>image/svg+xml</dc:format><dc:type
           rdf:resource="http://purl.org/dc/dcmitype/StillImage" /><dc:title></dc:title></cc:Work></rdf:RDF></metadata><defs
     id="defs5903"><clipPath
       clipPathUnits="userSpaceOnUse"
       id="clipPath5913"><path
         d="m 0,865.457 1076.946,0 L 1076.946,0 0,0 0,865.457 Z"
         id="path5915"
         inkscape:connector-curvature="0" /></clipPath></defs><sodipodi:namedview
     pagecolor="#ffffff"
     bordercolor="#666666"
     borderopacity="1"
     objecttolerance="10"
     gridtolerance="10"
     guidetolerance="10"
     inkscape:pageopacity="0"
     inkscape:pageshadow="2"
     inkscape:window-width="1440"
     inkscape:window-height="837"
     id="namedview5901"
     showgrid="false"
     inkscape:zoom="1.2340465"
     inkscape:cx="160.20713"
     inkscape:cy="822.54696"
     inkscape:window-x="-4"
     inkscape:window-y="-4"
     inkscape:window-maximized="1"
     inkscape:current-layer="g5907" /><g
     id="g5907"
     inkscape:groupmode="layer"
     inkscape:label="Mansoane"
     transform="matrix(1.25,0,0,-1.25,0,1081.8213)"><g
       id="g6341"
       transform="translate(179.9328,773.5246)" /><g
       id="g6345"
       transform="translate(123.4253,773.5239)" /><g
       id="g6349"
       transform="translate(125.0356,732.1684)" /><g
       id="g6353"
       transform="translate(152.5163,731.3088)" /><g
       id="g6357"
       transform="translate(157.8999,670.6259)" /><g
       id="g6361"
       transform="translate(162.1375,697.0092)" /><g
       id="g6365"
       transform="translate(142.0624,688.3528)" /><g
       id="g6369"
       transform="translate(184.8729,713.2139)" /><g
       id="g6373"
       transform="translate(184.3101,762.183)" /><g
       id="g6377"
       transform="translate(179.8011,677.428)"><path
         style="fill:#121110;fill-opacity:1;fill-rule:nonzero;stroke:none"
         d="M 190.86523 68.152344 C 173.42523 68.152344 159.1518 75.140859 148.43555 83.287109 C 147.18555 84.237109 147.8643 86.234531 149.43555 86.238281 L 156.46484 86.255859 C 165.03984 86.255859 169.32617 90.941797 169.32617 100.31055 L 169.32617 110.37695 C 169.32617 115.46445 167.4368 119.05102 163.6543 121.13477 C 162.57555 121.73102 162.06375 123.00031 162.46875 124.16406 L 167.77344 139.39258 L 167.77344 139.39453 L 170.07227 145.98828 C 170.40352 146.65453 170.77961 147.32242 170.94336 147.98242 C 170.98336 148.14117 170.97734 148.30039 170.93359 148.46289 L 171.13672 149.04688 C 171.63047 150.46687 171.02977 151.92922 169.88477 152.66797 C 169.87477 152.80547 169.85812 152.94523 169.82812 153.08398 C 169.72562 153.54648 169.2432 153.7207 168.81445 153.4707 C 168.67695 153.39195 168.58945 153.26828 168.50195 153.14453 C 168.40695 153.15453 168.30969 153.16211 168.21094 153.16211 L 166.84961 153.16211 C 166.95836 153.64336 167.00203 154.19047 167.36328 154.51172 C 167.93203 155.01922 168.01586 155.65602 168.03711 156.32227 C 168.04461 156.53977 167.77711 156.94742 167.53711 157.04492 C 167.28461 157.14742 166.76391 157.07227 166.62891 156.91602 C 166.34766 156.58727 166.21977 156.16297 166.07227 155.76172 C 165.86477 155.20547 165.69406 154.63461 165.50781 154.06836 C 165.32906 154.08211 165.35258 154.08125 165.17383 154.09375 C 165.10258 154.47375 165.06297 154.85047 164.94922 155.23047 C 164.89047 155.42797 164.7557 155.71594 164.56445 155.80469 C 164.3582 155.90094 163.93148 155.89727 163.80273 155.79102 C 163.49273 155.53602 163.26297 155.21352 163.07422 154.88477 C 162.94297 154.65602 162.95055 154.36703 162.87305 154.11328 C 162.66555 153.42328 161.8507 152.02305 161.12695 150.7168 C 160.89445 150.5343 160.71508 150.30766 160.61133 150.03516 L 160.16797 148.87305 C 160.06172 148.6368 159.98125 148.42797 159.9375 148.26172 L 158.61523 141.73242 L 156.12695 133.31445 L 155.3418 127.69727 C 155.32305 127.55102 155.28914 127.36273 155.24414 127.14648 L 155.06055 126.09961 C 155.0168 125.85586 154.9425 125.62703 154.84375 125.42578 C 154.53875 124.19703 154.19758 122.86922 154.11133 122.26172 C 154.08008 122.03797 154.0843 121.80359 154.0293 121.58984 C 153.95055 121.27859 153.85195 120.9643 153.7207 120.68555 C 153.66695 120.5693 153.48719 120.46289 153.39844 120.49414 C 153.31719 120.52164 153.25547 120.72164 153.23047 120.86914 C 153.17922 121.14914 153.16266 121.44828 153.12891 121.73828 C 153.05141 121.73953 153.07609 121.73898 152.99609 121.74023 C 152.91609 121.21898 152.84195 120.69703 152.75195 120.17578 C 152.6907 119.81703 152.63828 119.44313 152.51953 119.10938 C 152.46328 118.95188 152.24227 118.76797 152.13477 118.79297 C 152.03227 118.81547 151.91477 119.08617 151.91602 119.26367 C 151.92352 119.80992 151.95602 120.34438 152.19727 120.89062 C 152.35602 121.25062 152.36922 121.73477 152.41797 122.16602 C 152.48172 122.71352 152.51891 123.26336 152.56641 123.81836 L 152.42578 123.83789 C 152.19828 123.18289 151.9743 122.52539 151.74805 121.86914 C 151.69305 121.70914 151.65422 121.52828 151.57422 121.39453 C 151.39297 121.09328 151.18492 121.12336 151.13867 121.47461 C 151.09742 121.80086 151.10609 122.1543 151.12109 122.49805 C 151.13984 122.94805 151.20109 123.40086 151.21484 123.84961 C 151.22109 124.00461 151.17445 124.23391 151.0957 124.28516 C 150.72945 124.51891 150.59008 124.89156 150.64258 125.35156 C 150.71258 125.95656 150.88555 126.62078 151.0293 127.26953 L 152.06055 133.13281 L 152.06445 133.13477 L 152.06445 149.125 C 152.06445 151.355 150.25805 153.16211 148.0293 153.16211 L 146.03125 153.16211 C 144.03 153.16211 142.4082 151.54031 142.4082 149.53906 L 142.4082 93.787109 C 142.4082 91.683359 139.85961 90.644375 138.38086 92.140625 C 129.88461 100.73562 125.41211 108.34375 125.41211 108.34375 C 113.96461 129.10625 112.20102 146.09336 113.97852 158.78711 L 115.23828 164.64648 C 115.26328 164.73523 116.41805 170.11469 116.43555 170.21094 C 116.6443 171.36094 116.8582 172.51297 117.0332 173.66797 C 117.14945 174.43922 117.51586 174.6475 118.19336 174.5 C 118.25086 175.755 118.28523 176.93258 118.36523 178.11133 C 118.42523 178.98258 118.49227 179.86445 118.66602 180.7207 C 118.73102 181.04195 119.10555 181.51297 119.3418 181.54297 C 119.8518 181.60922 119.77914 181.00445 119.77539 180.56445 C 119.75414 178.4007 119.72383 176.23797 119.70508 174.07422 C 119.70258 173.83797 119.71055 173.58391 119.7793 173.37891 C 119.8618 173.13516 120.01688 172.9343 120.14062 172.7168 C 120.24938 172.9943 120.43203 173.27078 120.45703 173.55078 C 120.55203 174.60703 120.5882 175.66711 120.6582 176.72461 C 120.6732 176.93461 120.67859 177.19195 120.77734 177.3457 C 120.95609 177.6232 121.21852 178.02664 121.41602 178.02539 C 121.61727 178.02414 121.86852 177.64016 121.94727 177.34766 C 122.38477 175.72641 122.78219 174.08336 123.17969 172.44336 C 123.29469 171.96461 123.49648 171.98461 123.89648 172.06836 C 125.14273 172.33086 125.83188 173.40305 126.51562 174.56055 C 126.81813 175.0743 127.17461 175.55016 127.53711 176.00391 C 127.65336 176.14891 127.9243 176.2818 128.0293 176.2168 C 128.14305 176.14555 128.22523 175.81172 128.17773 175.63672 C 128.08898 175.31797 127.91523 175.01719 127.74023 174.74219 C 127.12773 173.78469 126.49586 172.84492 125.88086 171.88867 C 125.80211 171.76742 125.78055 171.59594 125.7168 171.39844 C 125.8568 171.31844 125.98242 171.24758 126.10742 171.17383 C 126.65992 170.84633 126.70469 170.19109 126.21094 169.65234 C 126.09344 169.52234 125.9582 169.41555 125.8457 169.2793 C 125.6807 169.0793 125.56797 168.89516 125.51172 168.72266 L 125.51172 168.7207 C 125.51172 168.7207 122.28508 157.25758 122.17383 157.04883 C 122.10008 156.91133 121.89687 156.49461 121.76562 156.22461 C 121.77438 156.22086 121.78617 156.21664 121.79492 156.21289 C 121.56117 155.09414 121.35875 153.85062 121.21875 152.48438 C 120.6075 146.49437 121.14734 136.91508 127.18359 125.29883 C 127.52109 124.64758 128.33852 124.40695 128.97852 124.7832 C 129.58102 125.1357 129.75094 125.93469 129.42969 126.55469 C 118.71219 147.24219 126.01078 161.11563 126.33203 161.70312 C 129.95578 167.47313 130.03766 174.26586 126.56641 181.34961 C 125.64266 183.23336 124.58883 184.89406 123.61133 186.25781 C 122.63383 187.62031 121.73328 188.68555 121.11328 189.37305 C 121.11328 189.37305 116.63953 191.32805 114.30078 196.0918 C 114.84703 196.20055 116.80742 196.67922 119.01367 198.26172 C 119.01367 198.26172 117.995 198.4257 115.96875 199.18945 C 113.94375 199.95195 115.49609 204.04883 115.49609 204.04883 C 115.49609 204.04883 116.33125 205.32336 116.84375 208.47461 C 117.35625 211.62586 118.08398 211.91211 118.08398 211.91211 L 116.5918 214.66602 C 116.48805 214.85727 116.40047 215.01961 116.32422 215.16211 L 116.64844 216.12305 C 117.24594 216.20555 118.22961 216.47336 119.47461 217.84961 C 122.35711 221.03336 119.65367 219.57531 120.82617 222.28906 C 121.99867 225.00281 122.18516 222.87602 124.16016 226.85352 C 126.13391 230.83227 124.15922 226.85453 124.94922 231.95703 C 125.74047 237.05828 126.01953 235.06164 128.48828 236.49414 L 128.85352 242.04297 C 130.81352 243.75922 133.1907 245.20914 135.9082 245.68164 C 136.03195 245.72039 136.16172 245.74219 136.29297 245.74219 C 138.73922 246.07969 140.2157 246.02437 141.2207 245.95312 C 142.2182 246.11437 143.19281 246.36633 144.13281 246.70508 C 144.78156 247.35758 145.65852 248.49703 147.19727 250.45703 C 152.68477 257.44953 149.74492 259.48078 154.57617 258.33203 C 154.83117 259.18828 155.03289 260.0682 155.18164 260.9707 C 155.18789 261.01195 155.19367 261.05445 155.20117 261.0957 C 155.84242 265.15945 154.86055 269.31047 152.5293 272.69922 L 149.44727 277.18164 C 148.18852 279.00914 147.40953 282.37797 149.23828 283.63672 C 149.93453 284.11547 152.22156 279.86719 153.00781 279.86719 C 154.28531 279.86719 154.05531 284.85453 156.07031 281.73828 L 157.16016 280.15234 C 158.21766 278.61484 160.38758 278.36414 161.76758 279.61914 L 161.80469 279.6543 C 162.48594 280.27555 162.72023 281.24758 162.39648 282.11133 L 161.07422 285.62695 C 161.07422 285.62695 160.11406 287.95492 159.28906 288.85742 C 158.46406 289.76117 158.73828 293.56914 161.64453 292.90039 C 164.55078 292.23289 163.05938 291.88086 165.45312 291.88086 C 167.84813 291.88086 167.6657 290.93617 168.37695 289.04492 L 169.08789 287.1543 C 169.52789 285.9818 170.84617 285.38914 172.01367 285.83789 L 172.05273 285.85352 C 173.03273 286.22977 173.62578 287.22562 173.48828 288.26562 L 172.98633 292.09766 C 172.98633 292.09766 172.2207 295.67727 171.9082 297.66602 C 171.5932 299.65602 171.05102 300.28305 172.44727 299.49805 C 173.84477 298.71305 173.07555 296.51594 174.7168 296.14844 C 176.3568 295.78344 176.1475 296.30523 175.78125 297.92773 C 175.41375 299.55148 175.41469 300.62688 176.30469 299.82812 C 177.19469 299.02813 177.03797 293.11203 177.98047 293.26953 C 178.92297 293.42703 180.78109 294.47547 180.96484 293.07422 L 181.27344 290.72656 C 181.44969 289.37656 182.66844 288.41188 184.02344 288.54688 L 184.08008 288.55273 C 185.85883 288.73023 187.21484 290.22687 187.21484 292.01562 L 187.21484 295.57227 C 187.21484 295.57227 187.14312 297.35187 186.82812 298.76562 C 186.51438 300.17813 186.46078 300.9743 187.76953 301.4668 C 189.07953 301.9593 187.77023 300.10453 189.86523 301.89453 C 191.95898 303.68703 192.01063 306.3575 192.95312 303.6875 C 193.89562 301.01625 192.11578 300.59922 193.73828 299.91797 C 195.36078 299.23797 195.25391 297.97977 195.25391 295.57227 L 195.25391 292.00977 C 195.25391 290.22477 196.60586 288.73078 198.38086 288.55078 L 198.43945 288.54492 C 199.6457 288.42242 200.72992 289.28312 200.88867 290.48438 L 201.30469 293.64648 C 201.30469 293.64648 201.50039 299.34227 201.77539 299.85352 C 202.04914 300.36477 204.79836 301.26625 205.50586 299.65625 C 206.21336 298.04625 205.85836 297.18273 207.03711 297.92773 C 208.21461 298.67398 208.57828 301.77703 209.45703 301.89453 C 210.33328 302.01203 209.66461 295.56797 209.28711 292.69922 L 208.70312 288.25391 C 208.57188 287.26641 209.14172 286.32016 210.07422 285.97266 L 210.10938 285.95703 C 211.18687 285.55328 212.38797 286.10023 212.79297 287.17773 L 214.01172 290.41797 C 214.40797 291.63547 214.71609 292.87719 215.30859 294.05469 C 215.60359 294.64344 216.4093 295.09617 217.24805 295.01367 C 217.43305 294.99492 217.70563 295.2193 217.82812 295.4043 C 218.18062 295.9393 218.45844 296.52391 218.80469 297.06641 C 219.06844 297.48141 219.35313 297.89953 219.70312 298.23828 C 220.08062 298.60328 220.4668 298.43641 220.5293 297.91016 C 220.55805 297.67516 220.47305 297.4268 220.43555 297.18555 C 220.27555 296.1968 220.11328 295.20945 219.95703 294.2207 C 219.95578 294.2007 220.03125 294.1682 220.1875 294.06445 C 220.58375 294.7782 220.99562 295.47531 221.35938 296.19531 C 221.63688 296.74406 222.02703 297.31703 222.05078 297.89453 C 222.08953 298.76078 222.48234 299.41344 222.93359 300.05469 C 223.07984 300.26344 223.51094 300.46633 223.71094 300.39258 C 223.92094 300.31508 224.15484 299.88594 224.12109 299.64844 C 224.04734 299.14719 223.82391 298.66109 223.62891 298.18359 C 223.35016 297.49859 223.04039 296.82984 222.74414 296.15234 C 222.87164 296.06734 222.84195 296.08695 222.9707 296.00195 C 223.2707 296.3082 223.55391 296.63531 223.87891 296.91406 C 224.04766 297.05781 224.32203 297.235 224.48828 297.1875 C 224.66953 297.1375 224.89969 296.83859 224.89844 296.65234 C 224.89219 296.19859 224.79563 295.73828 224.67188 295.30078 C 224.58562 294.99703 224.37984 294.7307 224.24609 294.43945 C 223.60859 293.0482 221.90133 288.15805 221.23633 286.7793 L 221.23242 286.7793 L 220.11914 283.81836 C 219.50664 282.18836 219.92414 280.34758 221.18164 279.14258 L 221.22266 279.10352 C 222.27516 278.09477 223.98234 278.26945 224.80859 279.4707 L 224.97266 279.70898 C 225.86641 281.20023 225.68766 281.0043 228.00391 282.81055 C 230.32141 284.61555 230.8318 282.02609 231.2793 280.96484 C 231.7293 279.90484 231.7343 280.96445 233.0293 282.06445 C 234.32555 283.1632 234.09117 283.9107 236.01367 285.12695 C 237.93867 286.34445 237.42891 285.12703 236.87891 283.98828 C 236.32891 282.84953 233.6593 280.92727 234.0918 280.25977 C 234.52305 279.59227 235.54367 280.88727 236.01367 280.57227 C 236.48617 280.25852 235.03438 278.88461 234.48438 278.25586 C 233.93437 277.62711 231.2793 274.69727 231.2793 274.69727 L 229.9082 272.69922 C 227.57695 269.31047 226.59578 265.15945 227.23828 261.0957 C 227.24578 261.05445 227.25031 261.01195 227.25781 260.9707 C 227.70156 258.2657 228.62523 255.76477 230.02148 253.47852 C 232.97398 248.64352 238.27641 245.74219 243.94141 245.74219 L 246.14453 245.74219 C 246.45453 245.74219 246.75258 245.63023 246.98633 245.42773 L 247.31641 245.14453 C 247.27891 246.23078 247.29055 247.21094 247.7793 247.61719 C 248.99055 248.61719 251.06086 248.82438 252.78711 248.89062 C 254.60836 248.96062 256.4768 248.57344 258.2793 248.17969 C 259.02305 248.01594 260.18547 247.36227 260.23047 246.85352 C 260.35422 245.38977 260.89898 243.78031 259.20898 242.50781 C 258.49773 241.97281 257.89875 240.11523 258.28125 239.52148 C 259.42875 237.73273 260.98852 236.1668 262.57227 234.7168 C 263.74727 233.6393 264.1132 232.10437 262.81445 231.64062 L 262.79492 231.63477 C 261.70617 231.25727 261.10055 230.09641 261.4668 229.00391 L 261.65039 228.46289 C 261.84539 227.88039 262.55492 227.66195 263.04492 228.0332 L 263.05469 228.04102 C 264.14344 228.35102 265.23109 228.90352 266.30859 228.88477 C 266.43109 228.88227 266.55453 228.85836 266.67578 228.81836 C 267.76328 228.45461 268.12094 227.08586 267.39844 226.19336 C 267.13844 225.87086 266.86484 225.56297 266.55859 225.29297 C 265.99484 224.79297 265.04297 224.71602 264.51172 224.19727 C 264.13672 223.82977 263.74852 223.55938 263.35352 223.39062 C 263.07352 221.97063 263.83828 222.53312 265.42578 221.48438 C 266.55953 221.11062 267.61977 220.91813 268.50977 220.42188 C 269.46727 219.88813 270.31109 219.11563 271.12109 218.35938 C 271.12609 218.35438 271.13047 218.34805 271.13672 218.3418 C 272.08047 217.4518 271.7082 215.85945 270.4707 215.4707 C 270.27695 215.40945 270.0868 215.36555 269.9043 215.3418 C 269.43055 215.2818 267.42305 214.11836 267.7793 210.19336 C 267.8243 210.06211 267.84961 209.9232 267.84961 209.7832 L 267.84961 199.17578 C 267.84961 198.91328 267.76719 198.65641 267.61719 198.44141 L 259.73438 187.08203 C 259.15938 186.32453 258.53937 185.44555 257.92188 184.4668 L 257.89648 184.42969 L 257.89844 184.42969 C 257.30469 183.48969 256.71633 182.45836 256.17383 181.34961 C 252.70258 174.26586 252.78445 167.47312 256.4082 161.70312 C 256.5582 161.42937 258.40477 157.92922 258.97852 152.07422 C 259.52727 146.46047 258.98094 137.46688 253.27344 126.48438 C 252.94594 125.85437 253.19227 125.0775 253.82227 124.75 C 254.45102 124.4225 255.22984 124.66758 255.55859 125.29883 C 261.59484 136.91508 262.13203 146.49437 261.51953 152.48438 C 261.36703 153.97937 261.13945 155.32984 260.87695 156.52734 L 258.26562 163.53906 C 258.18687 163.75406 258.10328 164.03805 258.01953 164.37305 L 257.55078 165.96484 C 257.44078 166.33484 257.41312 166.71047 257.45312 167.07422 C 257.08562 169.01922 256.71609 171.13211 256.40234 172.03711 C 256.28609 172.37086 256.08734 172.68414 256.02734 173.02539 C 255.93859 173.52039 255.88469 174.03641 255.92969 174.53516 C 255.94844 174.74141 256.24242 175.04523 256.45117 175.08398 C 256.64492 175.12023 256.93172 174.89891 257.10547 174.72266 C 257.43797 174.38516 257.71828 173.99906 258.01953 173.63281 C 258.17328 173.71531 258.13977 173.6968 258.29102 173.7793 C 258.03602 174.55055 257.76766 175.3182 257.53516 176.0957 C 257.37016 176.6407 257.17609 177.19516 257.15234 177.75391 C 257.14234 178.01891 257.45617 178.46945 257.70117 178.5332 C 257.93367 178.59445 258.39516 178.32969 258.53516 178.08594 C 258.96766 177.33719 259.33414 176.58055 259.27539 175.62305 C 259.23664 174.9868 259.60922 174.31875 259.85547 173.6875 C 260.18047 172.86 260.56063 172.05617 260.92188 171.23242 C 261.10938 171.32992 261.20047 171.35961 261.19922 171.38086 C 261.14047 172.48461 261.07477 173.5857 261.00977 174.68945 C 260.99477 174.9582 260.92828 175.23844 260.98828 175.49219 C 261.12203 176.06719 261.57578 176.21289 261.95703 175.77539 C 262.31203 175.36914 262.58133 174.87898 262.83008 174.39648 C 263.15633 173.76898 263.39938 173.09836 263.73438 172.47461 C 263.85062 172.26086 264.13109 171.98703 264.33984 171.98828 C 265.29234 171.99828 265.88984 171.61641 266.15234 170.94141 C 266.49859 170.05641 266.6807 168.99883 266.9082 167.98633 L 268.46484 158.76367 C 269.22734 153.29617 269.33227 147.03313 268.29102 140.01562 C 268.52727 138.36438 268.74219 136.83414 269.05469 134.05664 C 269.76719 127.72539 264.05 119.81906 260.65625 115.47656 L 260.65625 115.47461 C 259.5725 113.15086 258.36539 110.7725 257.02539 108.34375 C 257.02539 108.34375 254.76055 104.51656 250.4043 99.226562 C 248.9343 96.810312 247.44203 94.402031 245.98828 92.175781 C 240.61203 83.943281 244.73227 87.62125 237.97852 82.28125 C 231.22602 76.94125 216.53711 73.210938 216.53711 73.210938 L 216.53516 73.210938 C 209.09641 70.133438 200.70773 68.152344 191.42773 68.152344 L 190.86523 68.152344 z M 233.4082 82.908203 L 233.42188 82.910156 L 233.43555 82.929688 C 233.42555 82.922188 233.4182 82.914453 233.4082 82.908203 z M 181.45703 86.222656 L 199.95898 86.222656 C 201.43023 86.222656 202.62109 87.414766 202.62109 88.884766 L 202.62109 89.876953 C 202.62109 93.115703 199.99531 95.742188 196.75781 95.742188 L 190.21289 95.742188 C 188.56664 95.742188 187.23438 97.075703 187.23438 98.720703 L 187.23438 112.08789 C 187.23438 113.60039 188.42367 114.83445 189.91992 114.9082 L 191.89844 114.9082 C 192.93594 114.8407 194.00227 114.71758 194.94727 114.79883 C 195.66977 114.86008 196.2043 115.32273 196.4668 116.24023 C 196.5243 116.44023 196.86477 116.63555 197.10352 116.68555 C 197.79602 116.8293 198.50742 116.87211 199.20117 117.00586 C 199.73492 117.10961 200.28148 117.23008 200.77148 117.45508 C 201.29898 117.69758 201.28789 118.17359 200.77539 118.46484 C 200.54789 118.59234 200.25859 118.61062 199.99609 118.67188 C 199.07984 118.88438 198.16039 119.09695 197.24414 119.31445 C 197.27289 119.4782 197.29609 119.6418 197.30859 119.81055 C 197.99609 119.9043 198.67828 120.00055 199.36328 120.06055 C 200.03953 120.11805 200.78602 120.28711 201.38477 120.06836 C 202.28727 119.74211 203.11383 119.87953 203.95508 120.08203 C 204.22883 120.14828 204.61234 120.51586 204.62109 120.75586 C 204.62734 121.01086 204.28484 121.4382 204.02734 121.50195 C 203.48609 121.6382 202.89812 121.60797 202.32812 121.60547 C 201.52187 121.60047 200.71445 121.56016 199.9082 121.53516 C 199.88195 121.63516 199.85508 121.73594 199.83008 121.83594 C 200.26633 122.02344 200.71602 122.1825 201.13477 122.40625 C 201.35227 122.52125 201.64602 122.73539 201.66602 122.93164 C 201.68852 123.14164 201.47961 123.51094 201.28711 123.58594 C 200.82211 123.77219 200.3125 123.86688 199.8125 123.92188 C 199.4675 123.96063 199.11156 123.85805 198.75781 123.8418 C 197.97281 123.80305 196.39969 123.95875 194.77344 124.125 C 194.26094 124.345 193.69672 124.46875 193.10547 124.46875 L 191.08594 124.46875 C 191.08594 124.46875 185.9907 123.85625 185.12695 124.46875 C 184.26195 125.08 183.79172 125.23852 184.26172 126.10352 C 184.73422 126.96602 185.83469 127.98578 186.14844 128.45703 C 186.46219 128.92828 186.69719 129.87055 186.46094 130.49805 C 186.22594 131.12805 185.20508 131.75586 185.20508 131.75586 L 183.00586 132.22852 L 180.17969 132.22852 C 180.17969 132.22852 178.53016 133.48375 179.78516 133.5625 C 181.04266 133.64 179.70703 131.99125 182.61328 133.5625 C 185.51828 135.1325 186.77523 134.27039 185.83398 135.52539 C 184.89148 136.78289 182.45664 135.99766 183.71289 137.25391 C 184.96914 138.50891 186.69711 137.33102 186.06836 138.66602 C 185.44086 140.00102 184.57641 138.50945 185.44141 140.00195 C 186.30391 141.49445 186.38297 141.88547 187.01172 142.19922 C 187.64047 142.51422 183.09578 143.64258 190.64453 143.64258 L 198.19336 143.64258 C 200.63836 143.64258 202.62109 145.62461 202.62109 148.06836 L 202.62109 149.10352 C 202.62109 151.34477 200.8018 153.16211 198.56055 153.16211 L 181.55664 153.16211 C 179.35914 153.16211 177.57812 151.38109 177.57812 149.18359 L 177.57812 90.101562 C 177.57812 87.959062 179.31453 86.222656 181.45703 86.222656 z M 216.21094 86.230469 L 227.16797 86.255859 C 235.74297 86.255859 240.0293 90.94125 240.0293 100.3125 L 240.0293 110.37695 C 240.0293 114.76695 238.26719 117.87211 234.74219 119.69336 C 238.26719 121.51211 240.0293 124.61711 240.0293 129.00586 L 240.0293 139.10547 C 240.0293 148.45297 235.74297 153.12695 227.16797 153.12695 C 227.03172 153.12695 226.82844 153.13961 226.55469 153.16211 L 218.78711 153.16211 C 215.81086 153.16211 213.30852 151.15969 212.54102 148.42969 C 212.89102 147.88469 213.19586 147.53711 213.38086 147.69336 C 213.51336 147.80336 213.64734 148.46695 213.77734 148.2207 C 213.96609 147.8632 214.15828 147.24992 214.33203 146.04492 C 214.40453 145.54867 214.48531 143.14984 214.47656 141.77734 C 214.46781 140.50484 214.35859 139.12078 214.27734 138.36328 C 214.11859 136.91078 213.9482 135.8668 213.7832 134.6543 L 213.81445 132.69727 C 214.1182 132.86352 214.42086 133.13195 214.72461 133.1582 C 214.93961 133.1757 215.16148 133.37008 215.36523 132.48633 C 215.46273 132.06633 215.59234 129.27695 215.58984 127.62695 C 215.58609 126.06445 215.44234 123.67359 215.33984 123.24609 C 215.02234 121.93109 214.70914 121.03727 214.36914 123.16602 C 214.14414 124.57977 213.86312 123.48672 213.60938 123.10547 C 213.27562 122.60547 212.94242 121.70164 212.60742 120.96289 C 212.62242 119.60914 212.62406 118.99344 212.63281 118.96094 C 213.03656 117.29844 213.44141 115.69195 213.84766 114.06445 C 213.94641 113.66695 214.05562 113.55891 214.14062 112.72266 C 214.33312 110.83266 214.33742 107.72805 214.13867 106.1543 C 213.95367 104.68805 213.74687 103.91078 213.54688 103.23828 C 213.28438 102.36328 213.01711 102.07992 212.75586 101.13867 C 212.66586 100.81492 212.53812 99.549297 212.51562 98.248047 C 212.46687 95.229297 212.39172 92.971875 212.29297 91.421875 L 212.29297 90.138672 C 212.29297 87.977422 214.04969 86.224219 216.21094 86.230469 z M 224.56641 95.740234 C 223.12141 95.740234 221.94922 96.912422 221.94922 98.357422 L 221.94922 111.94727 C 221.94922 113.58602 223.27727 114.91602 224.91602 114.91602 L 224.98438 114.91602 C 226.32688 114.91602 227.2468 114.82383 227.74805 114.64258 C 229.4993 113.93758 230.37695 112.51641 230.37695 110.37891 L 230.37695 100.3125 C 230.37695 97.265 228.97523 95.740234 226.17773 95.740234 L 224.56641 95.740234 z M 155.47461 95.742188 C 153.59086 95.742188 152.06445 97.268594 152.06445 99.152344 L 152.06445 112.69922 C 152.06445 113.92422 153.05625 114.91602 154.28125 114.91602 C 155.6225 114.91602 156.54492 114.82383 157.04492 114.64258 C 158.79742 113.93758 159.67383 112.51516 159.67383 110.37891 L 159.67383 100.31055 C 159.67383 97.264297 158.27211 95.742188 155.47461 95.742188 z M 227.25977 118.59375 C 227.05102 118.59875 226.72672 118.93047 226.66797 119.16797 C 226.48422 119.89922 226.35922 120.61945 226.63672 121.4082 C 226.82172 121.93195 226.66883 122.58242 226.61133 123.16992 C 226.56883 123.62117 226.5057 124.07219 226.43945 124.52344 C 226.24945 124.50719 226.04547 124.49313 225.82422 124.48438 L 225.4043 122.60547 C 225.35305 122.37672 225.34242 122.12453 225.23242 121.92578 C 224.98367 121.47703 224.56852 121.46438 224.35352 121.92188 C 224.15352 122.34688 224.04422 122.82266 223.94922 123.28516 C 223.85922 123.73266 223.80953 124.18672 223.73828 124.63672 C 222.69328 125.01922 221.94922 126.01977 221.94922 127.19727 L 221.94922 139.41211 C 221.94922 141.74836 223.84344 143.64453 226.17969 143.64453 C 228.97719 143.64453 230.375 142.13047 230.375 139.10547 L 230.375 131.14453 C 230.38125 130.98828 230.38 130.80336 230.375 130.59961 L 230.375 130.38477 L 230.38672 129.0918 C 230.38797 128.99055 230.38109 128.89172 230.37109 128.79297 C 230.35484 128.20922 230.26969 127.67969 230.11719 127.21094 C 229.98344 125.78969 229.86164 124.41352 229.90039 123.72852 C 229.91789 123.42102 230.01047 123.11109 229.98047 122.80859 C 229.93547 122.37359 229.85672 121.92898 229.69922 121.52148 C 229.63422 121.35398 229.31461 121.16805 229.13086 121.18555 C 228.96086 121.2018 228.77242 121.45578 228.66992 121.64453 C 228.47242 122.00703 228.32836 122.39859 228.16211 122.77734 C 228.07461 122.75484 227.98984 122.73078 227.90234 122.70703 C 227.92984 122.00328 227.97242 121.30016 227.98242 120.59766 C 227.98992 120.10141 228.02 119.58969 227.90625 119.11719 C 227.8525 118.89094 227.48102 118.58875 227.25977 118.59375 z M 156.25977 157.0918 C 165.51727 157.0918 170.14648 161.77914 170.14648 171.15039 L 170.14648 191.24219 C 170.14648 191.93594 170.48578 192.58047 171.05078 192.98047 C 173.06578 194.40922 174.83969 196.14977 176.30469 198.13477 C 176.71094 198.68352 177.57812 198.39805 177.57812 197.7168 L 177.57812 161.90039 C 177.57812 159.83914 179.25055 158.17078 181.31055 158.17578 L 191.63477 158.19922 C 200.20977 158.19922 204.49609 162.88586 204.49609 172.25586 L 204.49609 182.32227 C 204.49609 187.72102 202.36672 191.42977 198.10547 193.44727 C 197.42422 193.77102 197.09766 194.55898 197.34766 195.27148 L 200.90234 205.47852 C 201.17484 206.25977 202.29469 206.23836 202.52344 205.44336 C 203.96969 200.42336 207.06461 196.10789 211.19336 193.11914 C 211.82711 192.66039 212.22625 191.95414 212.28125 191.18164 C 213.82 190.62289 212.34211 189.02953 212.59961 188.51953 C 212.91336 187.89703 212.95227 187.11961 213.38477 184.16211 C 213.81602 181.20586 213.38531 184.16258 213.07031 181.51758 C 212.75531 178.87258 213.62055 181.2068 214.24805 178.7168 C 214.8768 176.22805 213.66 177.78297 213.1875 175.29297 C 212.7175 172.80422 213.34437 174.51555 214.79688 171.4043 C 216.25062 168.2918 215.58219 171.56055 216.21094 171.4043 C 216.83844 171.24805 216.01562 168.75977 216.01562 168.75977 L 214.60156 168.75977 L 213.50195 167.82422 C 213.50195 167.82422 212.9918 166.58094 212.87305 165.33594 C 212.7543 164.09094 212.87305 162.22477 213.0293 161.29102 C 213.0768 161.01727 213.1582 160.65086 213.25195 160.22461 C 214.1607 158.97961 215.62711 158.16602 217.28711 158.16602 L 218.47266 158.16602 C 220.50891 158.16602 222.27984 159.56828 222.74609 161.55078 L 229.11133 188.58594 C 229.19258 188.92719 229.45828 189.19539 229.80078 189.27539 C 229.90203 189.29789 230.00422 189.32336 230.10547 189.34961 C 230.60797 189.47211 231.0918 189.08977 231.0918 188.57227 L 231.0918 162.31055 C 231.0918 160.10305 232.85695 158.30297 235.06445 158.26172 L 235.96289 158.24414 C 238.19664 158.20164 240.0293 160.00062 240.0293 162.23438 L 240.0293 194.49805 C 244.85305 198.74305 247.91406 204.94305 247.91406 211.87305 C 247.91406 224.66555 237.5432 235.03711 224.75195 235.03711 C 217.17695 235.03711 210.46062 231.39203 206.23438 225.76953 C 205.91938 225.35078 205.42273 225.10547 204.89648 225.10547 L 199.32031 225.10547 C 198.04031 225.10547 196.91328 224.26336 196.55078 223.03711 L 188.5918 196.10156 C 188.5168 195.84906 188.26906 195.68836 188.00781 195.72461 L 187.67578 195.77148 C 187.42203 195.80648 187.23438 196.02305 187.23438 196.2793 L 187.23438 222.88086 C 187.23438 224.11086 186.23586 225.10547 185.00586 225.10547 L 177.57812 225.10547 C 177.57812 224.70297 177.05828 224.53859 176.83203 224.87109 C 172.66703 230.99734 165.65891 235.03586 157.69141 235.03711 C 144.87766 235.03961 134.42109 224.49664 134.52734 211.68164 C 134.58109 205.13414 137.36555 199.24977 141.7793 195.07227 C 142.11805 194.75102 142.32742 194.32398 142.38867 193.86523 C 142.63117 193.91148 142.87711 193.93477 143.09961 193.91602 C 143.07836 193.93352 143.05641 193.94859 143.03516 193.96484 C 142.64141 194.28859 142.4082 194.7693 142.4082 195.2793 L 142.4082 212.08984 C 142.4082 221.48484 147.02477 226.18164 156.25977 226.18164 C 165.51727 226.15914 170.14648 221.46109 170.14648 212.08984 L 170.14648 193.31836 C 170.14648 192.71586 169.82594 192.15922 169.30469 191.85547 C 167.23344 190.65047 164.95797 189.75844 162.54297 189.24219 C 161.48797 189.01719 160.49219 189.80727 160.49219 190.88477 L 160.49219 212.08984 C 160.49219 215.11484 159.08102 216.62891 156.25977 216.62891 C 153.46227 216.62891 152.06445 215.11484 152.06445 212.08984 L 152.06445 194.65234 C 152.06445 191.91734 149.14313 190.19594 146.73438 191.49219 C 145.76562 192.01094 144.84094 192.5993 143.96094 193.24805 C 144.36094 192.1468 144.56805 191.79414 144.3418 190.15039 C 144.10555 188.43914 143.55789 186.41617 143.40039 185.48242 C 143.24289 184.54742 143.12469 182.68125 143.24219 181.4375 C 143.28094 181.0375 143.35852 180.6368 143.44727 180.2793 C 143.64602 179.4768 144.09336 178.75891 144.72461 178.22266 C 144.89961 178.07516 145.03328 177.88422 145.11328 177.66797 C 145.30453 177.14547 145.57797 176.13289 145.16797 175.36914 C 143.54047 172.34539 143.08609 173.96852 143.55859 171.47852 C 144.02859 168.98852 145.24469 170.54664 144.61719 168.05664 C 143.98719 165.56664 143.1257 167.90086 143.43945 165.25586 C 143.71195 162.95586 144.07461 164.88898 143.88086 163.49023 C 145.90836 159.22773 150.03227 157.0918 156.25977 157.0918 z M 240.0293 194.49805 C 237.65305 192.4068 234.85313 190.79766 231.76562 189.81641 C 231.43188 189.71141 231.0918 189.95469 231.0918 190.30469 L 231.0918 194.96094 C 231.0918 195.24094 230.69 195.28813 230.625 195.01562 L 229.39062 189.76758 C 229.30312 189.39633 229.00391 189.10672 228.62891 189.04297 C 227.36641 188.82797 226.0732 188.71289 224.75195 188.71289 C 223.7832 188.71289 222.83664 188.79125 221.90039 188.90625 L 229.62305 221.89062 C 230.06305 223.77438 231.74328 225.10547 233.67578 225.10547 L 236.93945 225.10547 C 238.64695 225.10547 240.0293 223.72313 240.0293 222.01562 L 240.0293 194.49805 z M 221.90039 188.90625 L 221.57227 187.50977 L 221.57227 188.95703 C 221.68227 188.94078 221.78914 188.92 221.90039 188.90625 z M 221.57227 188.95703 C 218.74227 189.34578 216.07812 190.24094 213.67188 191.55469 C 212.82438 192.01594 212.29297 192.89828 212.29297 193.86328 L 212.29297 213.42969 C 212.27797 213.65844 212.27922 213.95383 212.29297 214.29883 L 212.29297 215.95703 C 212.29297 216.34453 212.36906 216.71133 212.50781 217.04883 C 212.69906 219.01883 212.93758 221.14992 212.89258 222.10742 C 212.87633 222.45992 212.7782 222.81836 212.81445 223.16211 C 212.86695 223.66211 212.95867 224.17297 213.13867 224.63672 C 213.21242 224.82922 213.57039 225.03812 213.77539 225.01562 C 213.96664 224.99687 214.17141 224.70312 214.28516 224.48438 C 214.50141 224.06687 214.65859 223.61719 214.83984 223.17969 C 214.93734 223.20594 215.03531 223.23227 215.13281 223.25977 C 215.10781 224.06602 215.0682 224.87344 215.06445 225.67969 C 215.06195 226.24844 215.03156 226.83445 215.16406 227.37695 C 215.22781 227.63445 215.64437 227.9782 215.89062 227.9707 C 216.12438 227.9632 216.48117 227.57844 216.54492 227.30469 C 216.74117 226.46469 216.87539 225.63562 216.55664 224.73438 C 216.34664 224.13562 216.5082 223.38789 216.56445 222.71289 C 216.63945 221.82789 216.77477 220.94914 216.88477 220.05664 C 217.08727 220.09664 217.18055 220.09859 217.18555 220.12109 C 217.43305 221.19484 217.67227 222.26945 217.91602 223.3457 C 217.97602 223.60695 217.99148 223.8968 218.11523 224.12305 C 218.39773 224.63555 218.86266 224.64859 219.09766 224.12109 C 219.31641 223.62984 219.4332 223.08453 219.5332 222.55078 C 219.66445 221.85578 219.70766 221.14492 219.84766 220.45117 C 219.89641 220.21242 220.08555 219.87195 220.2793 219.81445 C 221.17055 219.55445 221.61969 219.01938 221.67969 218.29688 C 221.75844 217.34938 221.63727 216.2843 221.57227 215.24805 L 221.57227 188.95703 z M 156.22656 166.61133 C 153.45031 166.61133 152.06445 168.12344 152.06445 171.14844 L 152.06445 189.42969 C 153.86695 188.97844 155.74375 188.71289 157.6875 188.71289 C 158.6375 188.71289 159.56898 188.78789 160.49023 188.90039 L 160.49023 171.14844 C 160.49023 168.14719 159.09242 166.63508 156.29492 166.61133 L 156.22656 166.61133 z M 189.79688 167.68555 C 188.38187 167.68555 187.23438 168.83375 187.23438 170.25 L 187.23438 184.64062 C 187.23438 185.86562 188.22617 186.85937 189.45117 186.85938 C 190.79117 186.85938 191.71484 186.76844 192.21484 186.58594 C 193.96609 185.88094 194.8418 184.45977 194.8418 182.32227 L 194.8418 172.25586 C 194.8418 169.20836 193.44203 167.68555 190.64453 167.68555 L 189.79688 167.68555 z M 177.57812 200.05078 L 177.57812 221.38086 C 177.57812 221.99711 178.41523 222.1825 178.67773 221.625 C 180.06398 218.66125 180.84961 215.36375 180.84961 211.875 C 180.84961 207.55 179.64188 203.51453 177.57812 200.05078 z M 202.08789 210.20508 C 201.85508 210.23898 201.6425 210.41594 201.625 210.71094 C 201.60125 211.09594 201.58984 211.48305 201.58984 211.87305 C 201.58984 216.7968 203.13711 221.35297 205.75586 225.10547 C 206.72586 225.10547 207.40344 224.14937 207.08594 223.23438 L 202.67188 210.56055 C 202.57438 210.28117 202.3207 210.17117 202.08789 210.20508 z M 185.55078 239.36328 L 189.16797 239.36328 L 191.19922 239.36328 L 191.20898 239.36328 L 193.23828 239.36328 L 196.61133 239.36328 C 197.72508 239.36328 198.72844 240.03906 199.14844 241.07031 L 206.08984 258.11914 C 206.59234 259.35289 206.30383 260.76969 205.36133 261.71094 L 193.25586 273.79492 C 192.12211 274.92492 190.2875 274.92422 189.15625 273.79297 L 176.75977 261.39648 C 176.00852 260.64398 175.78234 259.51695 176.18359 258.5332 L 183.39648 240.81445 C 183.75273 239.9382 184.60453 239.36328 185.55078 239.36328 z M 187.55273 241.93555 C 186.44273 241.93555 185.44344 242.60922 185.02344 243.63672 L 179.76367 256.55469 C 179.28742 257.72719 179.96437 261.74102 180.85938 262.63477 L 189.44531 270.44531 C 190.41781 271.41781 191.9943 271.41977 192.9668 270.44727 L 198.13672 263.89062 C 199.07047 262.95938 204.99406 260.85484 203.07031 257.52734 L 197.375 243.53906 C 196.98 242.57031 196.03844 241.93555 194.99219 241.93555 C 193.87719 241.93555 192.94531 242.79109 192.85156 243.90234 C 192.85156 243.90234 193.37031 250.69828 192.50781 252.42578 C 191.64406 254.15203 190.91141 253.6818 191.16016 251.56055 C 191.40891 249.44055 189.49766 252.11117 191.16016 260.51367 C 192.82266 268.91617 187.20547 258.19438 189.54297 243.76562 C 189.70797 242.74188 188.59023 241.93555 187.55273 241.93555 z "
         transform="matrix(0.8,0,0,-0.8,-179.8011,188.02904)"
         id="path6379" /></g><g
       id="g6965"
       transform="translate(49.8434,716.2693)"><path
         style="fill:none;stroke:#231f20;stroke-width:1.25;stroke-linecap:butt;stroke-linejoin:miter;stroke-miterlimit:10;stroke-dasharray:none;stroke-opacity:1"
         d="M 194.55469 54.234375 C 121.51469 54.234375 62.304687 113.44437 62.304688 186.48438 C 62.304688 259.52438 121.51469 318.73438 194.55469 318.73438 C 267.59344 318.73438 326.80469 259.52437 326.80469 186.48438 C 326.80469 113.44437 267.59344 54.234375 194.55469 54.234375 z "
         transform="matrix(0.8,0,0,-0.8,-49.8434,149.18774)"
         id="path6967" /></g></g></svg>