<?xml version="1.0" encoding="UTF-8" standalone="no"?>
<!-- Created with Inkscape (http://www.inkscape.org/) -->

<svg
   xmlns:dc="http://purl.org/dc/elements/1.1/"
   xmlns:cc="http://creativecommons.org/ns#"
   xmlns:rdf="http://www.w3.org/1999/02/22-rdf-syntax-ns#"
   xmlns:svg="http://www.w3.org/2000/svg"
   xmlns="http://www.w3.org/2000/svg"
   xmlns:sodipodi="http://sodipodi.sourceforge.net/DTD/sodipodi-0.dtd"
   xmlns:inkscape="http://www.inkscape.org/namespaces/inkscape"
   width="600mm"
   height="400mm"
   viewBox="0 0 2125.9843 1417.3228"
   id="svg2"
   version="1.1"
   inkscape:version="0.91 r13725"
   sodipodi:docname="placheta.svg">
  <sodipodi:namedview
     id="base"
     pagecolor="#ffffff"
     bordercolor="#666666"
     borderopacity="1.0"
     inkscape:pageopacity="0.0"
     inkscape:pageshadow="2"
     inkscape:zoom="0.98994949"
     inkscape:cx="513.08429"
     inkscape:cy="899.31852"
     inkscape:document-units="mm"
     inkscape:current-layer="layer1"
     showgrid="false"
     inkscape:window-width="1440"
     inkscape:window-height="837"
     inkscape:window-x="-4"
     inkscape:window-y="-4"
     inkscape:window-maximized="1" />
  <defs
     id="defs4" />
  <metadata
     id="metadata7">
    <rdf:RDF>
      <cc:Work
         rdf:about="">
        <dc:format>image/svg+xml</dc:format>
        <dc:type
           rdf:resource="http://purl.org/dc/dcmitype/StillImage" />
        <dc:title />
      </cc:Work>
    </rdf:RDF>
  </metadata>
  <g
     transform="translate(0,364.96067)"
     id="layer1"
     inkscape:groupmode="layer"
     inkscape:label="Layer 1">
    <rect
       y="-12.733416"
       x="208.56174"
       height="247.9623"
       width="517.25366"
       id="rect4133"
       style="fill:none;stroke:#000000;stroke-width:1.13385837;stroke-miterlimit:4;stroke-dasharray:none" />
    <path
       id="rect4135"
       transform="translate(0,-364.96079)"
       d="M500.42969 453.54492L497.948582598 453.793573594L495.640446406 454.507100625L493.553931699 455.636850469L491.73768875 457.1341725L490.240367832 458.950416094L489.110619219 461.036930625L488.397093184 463.345065469L488.14844 465.82617L488.14844 569.74023L488.397093184 572.221334531L489.110619219 574.529469375L490.240367832 576.615983906L491.73768875 578.4322275L493.553931699 579.929549531L495.640446406 581.059299375L497.948582598 581.772826406L500.42969 582.02148L687.49219 582.02148L689.973294531 581.772826406L692.281429375 581.059299375L694.367943906 579.929549531L696.1841875 578.4322275L697.681509531 576.615983906L698.811259375 574.529469375L699.524786406 572.221334531L699.77344 569.74023L699.77344 465.82617L699.524786406 463.345065469L698.811259375 461.036930625L697.681509531 458.950416094L696.1841875 457.1341725L694.367943906 455.636850469L692.281429375 454.507100625L689.973294531 453.793573594L687.49219 453.54492L500.42969 453.54492L500.42969 453.54492"
       style="fill:none;stroke:#ff0000;stroke-width:0.97365856;stroke-miterlimit:4;stroke-dasharray:none" />
    <path
       id="path4251"
       transform="translate(0,-364.96079)"
       d="M570.53516 471.69531L570.11577375 471.77695625L569.76367 472.02148L569.52384625 472.3735875L569.44336 472.79297L569.52384625 473.21332375L569.76367 473.56641L570.11577375 473.80525875L570.53516 473.88477L570.9545375 473.80525875L571.30664 473.56641L571.55116375 473.21332375L571.63281 472.79297L571.55329875 472.3735875L571.31445 472.02148L570.9602125 471.77695625L570.53516 471.69531L570.53516 471.69531M654.77734 471.69531L654.3579625 471.77695625L654.00586 472.02148L653.76701125 472.3735875L653.6875 472.79297L653.76701125 473.21332375L654.00586 473.56641L654.3579625 473.80525875L654.77734 473.88477L655.19770125 473.80525875L655.55078 473.56641L655.79432875 473.21332375L655.875 472.79297L655.79548875 472.3735875L655.55664 472.02148L655.20240125 471.77695625L654.77734 471.69531L654.77734 471.69531M528.08789 471.70312L527.6857225 471.78147875L527.34375 472.01562L527.11527625 472.353085L527.03906 472.75781L527.17969 473.69336L527.91797 476.41992L528.26367 476.41992L528.96484 473.70703L529.13477 472.72266L528.85938 472.0293L528.52852 471.7847675L528.08789 471.70312L528.08789 471.70312M531.51367 471.70312L531.10565 471.78147875L530.75781 472.01562L530.523665 472.351195L530.44531 472.73633L530.61523 473.70117L531.33008 476.41992L531.68555 476.41992L532.36523 473.70117L532.54883 472.7168L532.2793 472.03711L531.95668 471.78690625L531.51367 471.70312L531.51367 471.70312M601.8418 471.92188L601.8418 472.2207L602.48047 472.32031L602.73438 472.62305L602.79883 473.53711L602.79883 475.53516L602.01172 474.89062L601.16992 474.70508L600.45647625 474.8138825L599.78906 475.13867L599.218855 475.6748425L598.7832 476.41992L598.5075475 477.31932375L598.41602 478.33203L598.5641775 479.5663675L599.00977 480.5918L599.87894 481.4414725L600.413089375 481.65383375L601.01367 481.72461L601.89844 481.50391L602.79883 480.67578L602.79883 481.72461L605.5957 481.17773L605.5957 480.94531L605.03711 480.80273L604.82422 480.45703L604.78125 479.54297L604.78125 471.92383L604.78125 471.92188L601.8418 471.92188L601.8418 471.92188M534.12695 471.92383L534.12695 472.18555L534.43164 472.18555L535.07617 472.32617L535.39453 472.64453L535.47266 473.55078L535.47266 479.62695L535.45898 480.34961L535.24023 480.86719L534.82227 481.16406L534.22656 481.26367L534.12695 481.26367L534.12695 481.52539L537.41406 481.52539L537.41406 481.26367L536.44336 481.04492L536.04688 480.46289L536.01172 479.5918L536.01172 472.83008L539.75 481.52539L539.91992 481.52539L543.60352 472.76562L543.60352 479.88281L543.52539 480.77539L543.24219 481.11523L542.5625 481.26367L542.25 481.26367L542.25 481.52539L547.26367 481.52539L547.26367 481.26367L546.95312 481.26367L546.30859 481.12891L545.99023 480.80273L545.91211 479.88281L545.91211 473.55078L545.99023 472.66602L546.27344 472.33398L546.95312 472.18555L547.26367 472.18555L547.26367 471.92383L543.35547 471.92383L540.75 478.25391L538.05078 471.92383L534.12695 471.92383L534.12695 471.92383M650.73438 472.48242L649.63672 474.0332L648.12109 475.35742L648.12109 475.60547L648.98633 475.60547L648.98633 479.18164L649.05664 480.48438L649.25511125 480.8974075L649.60938 481.27148L650.09575 481.5310875L650.67773 481.61719L651.27758875 481.532257813L651.78819 481.2774225L652.20938375 480.852625937L652.54102 480.25781L652.32812 480.10156L651.90496875 480.62742L651.45703 480.80273L651.20898 480.70508L651.01758 480.43555L650.96875 479.69141L650.96875 475.60547L652.54102 475.60547L652.54102 474.9043L650.96875 474.9043L650.96875 472.48242L650.73438 472.48242L650.73438 472.48242M551.33594 474.70508L549.83398 474.95312L549.191815 475.25663875L548.70898 475.66992L548.4059225 476.141905L548.30469 476.63867L548.37974625 476.9771175L548.60352 477.26953L548.943105 477.47157375L549.35352 477.53906L550.02539 477.29883L550.28906 476.70312L550.01953 476.11523L549.82031 475.74609L550.00391 475.44922L550.76172 475.24414L551.27344 475.39258L551.57617 475.73242L551.66211 476.67383L551.66211 477.33984L549.85800625 478.2466025L548.82227 478.95508L548.3332175 479.59582125L548.16992 480.31445L548.2645675 480.82826L548.54688 481.25L548.969775 481.52565375L549.48828 481.61719L550.51323 481.35034L551.66211 480.54883L551.79448 481.019425L552.05078 481.35547L552.432175 481.551835L552.9375 481.61719L553.79297 481.38477L554.5293 480.61914L554.31836 480.44922L553.94141 480.71094L553.7793 480.6543L553.67383 480.48438L553.63867 479.91016L553.63867 477.33984L553.53906 475.97266L553.27901625 475.5233125L552.82422 475.10938L552.1792225 474.8063175L551.33594 474.70508L551.33594 474.70508M560.11719 474.70508L559.6485 474.7909975L559.16211 475.04688L558.625685 475.55306375L558.00781 476.40625L558.00781 474.9043L555.30273 474.9043L555.30273 475.16602L555.77539 475.29297L555.98242 475.58398L556.03906 476.30664L556.03906 479.9668L555.88281 481.03711L555.30273 481.27148L555.30273 481.52539L558.87891 481.52539L558.87891 481.27148L558.3125 481.16406L558.06445 480.88086L558.01367 480.36328L558.00781 479.9668L558.00781 478.44531L558.23438 476.92969L558.67188 476.24219L559.0625 476.08789L559.22461 476.12891L559.55078 476.39844L560.20312 476.63867L560.75391 476.37695L560.98828 475.64062L560.74805 474.95312L560.11719 474.70508L560.11719 474.70508M564.57812 474.70508L563.4452875 474.884665L562.53906 475.42188L561.94429 476.19524L561.74609 477.09961L561.85275875 477.79914625L562.17188 478.41016L562.72738625 478.92109625L563.54492 479.32227L562.840425 479.69255875L562.35547 480.12305L562.0741375 480.59057625L561.98047 481.07227L562.2102775 481.79066875L562.90039 482.33203L561.98633 482.76562L561.74609 483.35352L561.82560125 483.684635L562.06445 483.99805L562.48831375 484.2736925L563.12109 484.47852L564.74805 484.65625L565.86885 484.5691725L566.85156 484.30859L567.39534 484.00983625L567.82227 483.58008L568.09889875 483.06250375L568.19141 482.48828L567.99107375 481.668855L567.39062 481.09375L566.59911125 480.84922625L565.34375 480.76758L564.11914 480.78125L563.48047 480.61914L563.29102 480.20117L563.50195 479.70508L564.04102 479.49414L564.89062 479.5293L566.08789 479.23828L566.69465875 478.88593625L567.15625 478.42383L567.4536325 477.85364375L567.55273 477.19141L567.38281 476.39062L566.90234 475.76172L568.16992 475.76172L568.16992 474.98242L565.93945 474.98242L564.57812 474.70508L564.57812 474.70508M577.65234 474.70508L576.64648 474.96094L575.66797 475.76172L575.66797 474.9043L572.9707 474.9043L572.9707 475.16602L573.54492 475.40625L573.68555 476.3418L573.68555 480.08008L573.56641 481.00195L572.9707 481.27148L572.9707 481.52539L576.32031 481.52539L576.32031 481.27148L575.80273 481.02344L575.66797 480.08008L575.66797 476.5332L576.21411 475.87989625L576.80273 475.66211L577.13477 475.7832L577.35352 476.10742L577.41797 477.13477L577.41797 480.08008L577.30469 480.95898L576.76562 481.27148L576.76562 481.52539L580.11523 481.52539L580.11523 481.27148L579.53516 481.03711L579.40039 480.08008L579.40039 477.50391L579.28711 475.95312L579.07472 475.46551125L578.7207 475.06641L578.241405 474.7954525L577.65234 474.70508L577.65234 474.70508M584.10352 474.70508L582.9756275 474.95117875L582.0 475.68945L581.3306375 476.8368775L581.10742 478.32422L581.2598525 479.5677725L581.7168 480.5918L582.140331563 481.0874775L582.65322 481.4414725L583.255515937 481.65383375L583.94727 481.72461L584.7525125 481.611355L585.45508 481.27148L586.07812875 480.6515225L586.64453 479.71289L586.4043 479.55664L585.66016 480.41406L584.88867 480.64844L584.2512125 480.50143875L583.71289 480.06055L583.21888625 479.157625L583.01172 477.97852L586.64453 477.97852L586.41684625 476.5567775L585.8457 475.53516L585.04188125 474.9129775L584.10352 474.70508L584.10352 474.70508M590.79492 474.70508L589.29492 474.95312L588.65178 475.25663875L588.16797 475.66992L587.8649075 476.141905L587.76367 476.63867L587.83872625 476.9771175L588.0625 477.26953L588.4020925 477.47157375L588.8125 477.53906L589.48438 477.29883L589.74805 476.70312L589.47852 476.11523L589.2793 475.74609L589.46484 475.44922L590.2207 475.24414L590.73242 475.39258L591.03516 475.73242L591.12109 476.67383L591.12109 477.33984L589.31699 478.2466025L588.28125 478.95508L587.7922025 479.59582125L587.62891 480.31445L587.7235525 480.82826L588.00586 481.25L588.42875625 481.52565375L588.94727 481.61719L589.97221875 481.35034L591.12109 480.54883L591.25346875 481.019425L591.50977 481.35547L591.89116375 481.551835L592.39648 481.61719L593.25195 481.38477L593.98828 480.61914L593.77734 480.44922L593.40039 480.71094L593.23828 480.6543L593.13281 480.48438L593.09766 479.91016L593.09766 477.33984L592.99805 475.97266L592.7379975 475.5233125L592.2832 475.10938L591.63821 474.8063175L590.79492 474.70508L590.79492 474.70508M609.48438 474.70508L608.3564875 474.95117875L607.38086 475.68945L606.7114975 476.8368775L606.48828 478.32422L606.6407125 479.5677725L607.09766 480.5918L607.521191406 481.0874775L608.03407875 481.4414725L608.636371719 481.65383375L609.32812 481.72461L610.13337125 481.611355L610.83594 481.27148L611.45898875 480.6515225L612.02539 479.71289L611.78516 479.55664L611.04102 480.41406L610.26953 480.64844L609.63206875 480.50143875L609.09375 480.06055L608.5997425 479.157625L608.39258 477.97852L612.02539 477.97852L611.79770625 476.5567775L611.22656 475.53516L610.42274125 474.9129775L609.48438 474.70508L609.48438 474.70508M621.33203 474.70508L620.86236875 474.7909975L620.375 475.04688L619.8385675 475.55306375L619.2207 476.40625L619.2207 474.9043L616.51562 474.9043L616.51562 475.16602L616.99023 475.29297L617.19531 475.58398L617.25195 476.30664L617.25195 479.9668L617.0957 481.03711L616.51562 481.27148L616.51562 481.52539L620.0918 481.52539L620.0918 481.27148L619.52539 481.16406L619.27734 480.88086L619.22852 480.36328L619.2207 479.9668L619.2207 478.44531L619.44727 476.92969L619.88672 476.24219L620.27539 476.08594L620.43945 476.12891L620.76562 476.39844L621.41602 476.63867L621.96875 476.37695L622.20312 475.64062L621.96094 474.95312L621.33203 474.70508L621.33203 474.70508M625.71484 474.70508L624.58695625 474.95117875L623.61133 475.68945L622.9419675 476.8368775L622.71875 478.32422L622.87118125 479.5677725L623.32812 480.5918L623.751652969 481.0874775L624.26454375 481.4414725L624.866840156 481.65383375L625.55859 481.72461L626.36481625 481.611355L627.06836 481.27148L627.6914125 480.6515225L628.25781 479.71289L628.01562 479.55664L627.27344 480.41406L626.50195 480.64844L625.8644925 480.50143875L625.32617 480.06055L624.83216625 479.157625L624.625 477.97852L628.25781 477.97852L628.029155 476.5567775L627.45703 475.53516L626.65321375 474.9129775L625.71484 474.70508L625.71484 474.70508M638.54688 474.70508L637.41899125 474.95117875L636.44336 475.68945L635.7739975 476.8368775L635.55078 478.32422L635.7032125 479.5677725L636.16016 480.5918L636.583691406 481.0874775L637.09657875 481.4414725L637.698871719 481.65383375L638.39062 481.72461L639.19685 481.611355L639.90039 481.27148L640.52344625 480.6515225L641.08984 479.71289L640.84766 479.55664L640.10547 480.41406L639.33398 480.64844L638.6965225 480.50143875L638.1582 480.06055L637.66419625 479.157625L637.45703 477.97852L641.08984 477.97852L640.861185 476.5567775L640.28906 475.53516L639.485245 474.9129775L638.54688 474.70508L638.54688 474.70508M645.09766 474.70508L644.374047344 474.782682969L643.73281375 475.01537375L643.173905781 475.402975156L642.69727 475.94531L642.155355 477.05332625L641.97461 478.32422L642.17280625 479.625335L642.76758 480.72461L643.69339125 481.47424L644.88477 481.72461L645.6480175 481.6179425L646.36523 481.29883L647.00764375 480.75508375L647.5332 479.98828L647.31445 479.81836L646.57812 480.43555L645.91992 480.59766L645.4235775 480.52144375L644.99805 480.29297L644.53593875 479.7671725L644.18359 479.02539L643.9608 478.14935875L643.88672 477.23438L643.9782525 476.25326625L644.25391 475.5625L644.5201375 475.29154625L644.83594 475.20117L645.21875 475.37891L645.42383 476.00195L645.53849625 476.6021325L645.75586 476.98633L646.06712875 477.19307L646.44922 477.26172L647.08789 477.02148L647.33594 476.37695L647.1835075 475.7697075L646.72656 475.22266L646.0183325 474.83463L645.09766 474.70508L645.09766 474.70508M660.27344 474.70508L659.14555125 474.95117875L658.16992 475.68945L657.5005575 476.8368775L657.27734 478.32422L657.42977625 479.5677725L657.88672 480.5918L658.310251563 481.0874775L658.82314 481.4414725L659.425435937 481.65383375L660.11719 481.72461L660.92341125 481.611355L661.62695 481.27148L662.25001125 480.6515225L662.81641 479.71289L662.57422 479.55664L661.83203 480.41406L661.06055 480.64844L660.42308875 480.50143875L659.88477 480.06055L659.39076125 479.157625L659.18359 477.97852L662.81641 477.97852L662.58774625 476.5567775L662.01562 475.53516L661.21180875 474.9129775L660.27344 474.70508L660.27344 474.70508M568.75 474.9043L568.75 475.16602L569.38086 475.39258L569.54297 476.28516L569.54297 480.15234L569.40234 481.01562L568.75 481.27148L568.75 481.52539L572.32617 481.52539L572.32617 481.27148L571.68945 481.05078L571.52539 480.15234L571.52539 474.9043L568.75 474.9043L568.75 474.9043M629.2207 474.9043L629.2207 476.83008L629.46875 476.83008L629.85156 475.85938L630.33203 475.46289L631.31641 475.33594L632.37891 475.33594L628.73828 481.36914L628.73828 481.52539L634.50391 481.52539L634.70117 479.25977L634.50391 479.25977L634.12514375 480.1327875L633.59766 480.68359L632.80564625 480.9753025L631.63477 481.07227L631.18164 481.07227L634.79297 475.0957L634.79297 474.9043L629.2207 474.9043L629.2207 474.9043M652.99414 474.9043L652.99414 475.16602L653.62305 475.39258L653.78711 476.28516L653.78711 480.15234L653.64453 481.01562L652.99414 481.27148L652.99414 481.52539L656.57031 481.52539L656.57031 481.27148L655.93164 481.05078L655.76953 480.15234L655.76953 474.9043L652.99414 474.9043L652.99414 474.9043M564.71289 475.14453L565.07826 475.2294725L565.35156 475.48438L565.5904125 476.14680625L565.66992 477.21289L565.59913875 478.15483L565.38672 478.72852L565.0676325 479.0202275L564.67773 479.11719L564.3199375 479.0202275L564.01172 478.72852L563.80497625 478.16758125L563.73633 477.27734L563.80711125 476.19685125L564.01953 475.5625L564.33434625 475.24905875L564.71289 475.14453L564.71289 475.14453M583.99609 475.16602L584.39258 475.29297L584.77539 475.9375L584.9043 477.50391L582.97656 477.50391L582.97656 477.25586L583.08108875 476.27475375L583.39453 475.52734L583.66166875 475.25639125L583.99609 475.16602L583.99609 475.16602M609.37695 475.16602L609.77344 475.29297L610.15625 475.9375L610.2832 477.50391L608.35742 477.50391L608.35742 477.25586L608.46194875 476.27475375L608.77539 475.52734L609.04252875 475.25639125L609.37695 475.16602L609.37695 475.16602M625.60938 475.16602L626.00586 475.29297L626.38867 475.9375L626.51562 477.50391L624.58984 477.50391L624.58984 477.25586L624.6943725 476.27475375L625.00781 475.52734L625.2749575 475.25639125L625.60938 475.16602L625.60938 475.16602M638.44141 475.16602L638.83789 475.29297L639.2207 475.9375L639.34766 477.50391L637.42188 477.50391L637.42188 477.25586L637.525425 476.27475375L637.83789 475.52734L638.10600875 475.25639125L638.44141 475.16602L638.44141 475.16602M660.16797 475.16602L660.56445 475.29297L660.94727 475.9375L661.07422 477.50391L659.14844 477.50391L659.14844 477.25586L659.2519925 476.27475375L659.56445 475.52734L659.8325725 475.25639125L660.16797 475.16602L660.16797 475.16602M601.51758 475.40625L602.21663 475.65778L602.79883 476.41211L602.79883 479.89648L602.22864375 480.63006L601.62305 480.875L601.17773 480.74023L600.67383 479.86914L600.49023 478.01367L600.65234 476.32031L601.08594 475.54883L601.51758 475.40625L601.51758 475.40625M551.66211 477.81445L551.66211 480.03125L551.22265125 480.3286325L550.83984 480.42773L550.3457 480.23633L550.11133 479.66406L550.38672 478.89062L550.9146525 478.33483125L551.66211 477.81445L551.66211 477.81445M591.12109 477.81445L591.12109 480.03125L590.6816325 480.3286325L590.29883 480.42773L589.80469 480.23633L589.57031 479.66406L589.8457 478.89062L590.3736325 478.33483125L591.12109 477.81445L591.12109 477.81445M564.29492 482.50195L566.34961 482.58008L566.92969 482.87109L567.03711 483.16797L566.89553875 483.58924625L566.4707 483.9043L565.80447 484.10164L564.92578 484.16797L563.955525 484.09291375L563.35352 483.86914L563.04007875 483.5616525L562.93555 483.21875L563.0367825 482.88194875L563.33984 482.62305L564.29492 482.50195L564.29492 482.50195M498.20312 489.82617L497.78276375 489.90684125L497.42969 490.15039L497.1908375 490.50346875L497.11133 490.92383L497.1908375 491.34321125L497.42969 491.69531L497.78276375 491.9341625L498.20312 492.01367L498.62250625 491.9341625L498.97461 491.69531L499.21913375 491.34321125L499.30078 490.92383L499.22029375 490.50346875L498.98047 490.15039L498.62720625 489.90684125L498.20312 489.82617L498.20312 489.82617M657.85156 489.82617L657.43218625 489.90684125L657.08008 490.15039L656.8412275 490.50346875L656.76172 490.92383L656.8412275 491.34321125L657.08008 491.69531L657.43218625 491.9341625L657.85156 492.01367L658.27094625 491.9341625L658.62305 491.69531L658.86757375 491.34321125L658.94922 490.92383L658.86970875 490.50346875L658.63086 490.15039L658.27662125 489.90684125L657.85156 489.82617L657.85156 489.82617M582.2832 490.05273L582.2832 490.31445L582.91406 490.54102L583.07617 491.42578L583.07617 498.28125L582.93555 499.14453L582.2832 499.40039L582.2832 499.6543L585.85938 499.6543L585.85938 499.40039L585.22266 499.17969L585.05859 498.28125L585.05859 490.05273L582.2832 490.05273L582.2832 490.05273M612.16797 490.05273L612.16797 490.34961L612.80469 490.44922L613.06055 490.75391L613.12305 491.66602L613.12305 493.66406L612.33789 493.01953L611.49414 492.83594L610.7806925 492.94376375L610.11328 493.26758L609.54405125 493.80374875L609.10938 494.54883L608.8327425 495.44823L608.74023 496.46094L608.8893675 497.6952725L609.33594 498.7207L610.20510625 499.5703775L610.739257969 499.782742187L611.33984 499.85352L612.22461 499.63281L613.12305 498.80469L613.12305 499.85352L615.92188 499.30859L615.92188 499.07422L615.36133 498.93164L615.14844 498.58594L615.10742 497.67188L615.10742 490.05273L612.16797 490.05273L612.16797 490.05273M643.97852 490.05273L643.97852 490.31445L644.60938 490.54102L644.77148 491.42578L644.77148 498.28125L644.63086 499.14453L643.97852 499.40039L643.97852 499.6543L647.55469 499.6543L647.55469 499.40039L646.91797 499.17969L646.75391 498.28125L646.75391 490.05273L643.97852 490.05273L643.97852 490.05273M667.4043 490.05273L667.4043 490.34961L668.04297 490.44922L668.29688 490.75391L668.36133 491.66602L668.36133 493.66406L667.57422 493.01953L666.73242 492.83594L666.01897625 492.94376375L665.35156 493.26758L664.781355 493.80374875L664.3457 494.54883L664.0690675 495.44823L663.97656 496.46094L664.1256975 497.6952725L664.57227 498.7207L665.44144 499.5703775L665.975589375 499.782742187L666.57617 499.85352L667.46094 499.63281L668.36133 498.80469L668.36133 499.85352L671.1582 499.30859L671.1582 499.07422L670.59961 498.93164L670.38672 498.58594L670.34375 497.67188L670.34375 490.05273L667.4043 490.05273L667.4043 490.05273M681.85156 490.05273L681.85156 490.31445L682.48242 490.54102L682.64453 491.42578L682.64453 498.28125L682.50391 499.14453L681.85156 499.40039L681.85156 499.6543L685.42773 499.6543L685.42773 499.40039L684.79102 499.17969L684.62695 498.28125L684.62695 490.05273L681.85156 490.05273L681.85156 490.05273M514.72461 490.61133L513.62695 492.16211L512.11133 493.48633L512.11133 493.73438L512.97461 493.73438L512.97461 497.31055L513.04492 498.61328L513.24339125 499.0263125L513.59766 499.40039L514.08501 499.6599925L514.66797 499.74609L515.267516875 499.661159375L515.7774425 499.4063275L516.197964375 498.981534375L516.5293 498.38672L516.31836 498.23047L515.895205 498.75632625L515.44727 498.93164L515.19922 498.83398L515.00781 498.56445L514.95703 497.82031L514.95703 493.73438L516.5293 493.73438L516.5293 493.0332L514.95703 493.0332L514.95703 490.61133L514.72461 490.61133L514.72461 490.61133M533.25 490.61133L532.15234 492.16211L530.63672 493.48633L530.63672 493.73438L531.5 493.73438L531.5 497.31055L531.57227 498.61328L531.7697575 499.0263125L532.12305 499.40039L532.6104 499.6599925L533.19336 499.74609L533.792906875 499.661159375L534.3028325 499.4063275L534.723354375 498.981534375L535.05469 498.38672L534.84375 498.23047L534.420595 498.75632625L533.97266 498.93164L533.72461 498.83398L533.5332 498.56445L533.48242 497.82031L533.48242 493.73438L535.05469 493.73438L535.05469 493.0332L533.48242 493.0332L533.48242 490.61133L533.25 490.61133L533.25 490.61133M571.94336 490.61133L570.8457 492.16211L569.33008 493.48633L569.33008 493.73438L570.19531 493.73438L570.19531 497.31055L570.26562 498.61328L570.46409125 499.0263125L570.81836 499.40039L571.30473875 499.6599925L571.88672 499.74609L572.486572969 499.661159375L572.99717125 499.4063275L573.418363906 498.981534375L573.75 498.38672L573.53711 498.23047L573.113955 498.75632625L572.66602 498.93164L572.41797 498.83398L572.22656 498.56445L572.17773 497.82031L572.17773 493.73438L573.75 493.73438L573.75 493.0332L572.17773 493.0332L572.17773 490.61133L571.94336 490.61133L571.94336 490.61133M598.14648 490.61133L597.04883 492.16211L595.5332 493.48633L595.5332 493.73438L596.39648 493.73438L596.39648 497.31055L596.4668 498.61328L596.66526625 499.0263125L597.01953 499.40039L597.5068875 499.6599925L598.08984 499.74609L598.689393906 499.661159375L599.19932375 499.4063275L599.619844219 498.981534375L599.95117 498.38672L599.74023 498.23047L599.31707875 498.75632625L598.86914 498.93164L598.62109 498.83398L598.42969 498.56445L598.37891 497.82031L598.37891 493.73438L599.95117 493.73438L599.95117 493.0332L598.37891 493.0332L598.37891 490.61133L598.14648 490.61133L598.14648 490.61133M633.63867 490.61133L632.54102 492.16211L631.02539 493.48633L631.02539 493.73438L631.89062 493.73438L631.89062 497.31055L631.96094 498.61328L632.15941 499.0263125L632.51367 499.40039L633.00004875 499.6599925L633.58203 499.74609L634.181888594 499.661159375L634.69248875 499.4063275L635.113679531 498.981534375L635.44531 498.38672L635.23242 498.23047L634.809265 498.75632625L634.36133 498.93164L634.11328 498.83398L633.92188 498.56445L633.87305 497.82031L633.87305 493.73438L635.44531 493.73438L635.44531 493.0332L633.87305 493.0332L633.87305 490.61133L633.63867 490.61133L633.63867 490.61133M505.32031 492.83594L504.31445 493.08984L503.33594 493.89062L503.33594 493.0332L500.63867 493.0332L500.63867 493.29492L501.21289 493.53711L501.35352 494.4707L501.35352 498.21094L501.23438 499.13086L500.63867 499.40039L500.63867 499.6543L503.98828 499.6543L503.98828 499.40039L503.4707 499.15234L503.33594 498.21094L503.33594 494.66211L503.88207625 494.00880625L504.4707 493.79102L504.80273 493.91211L505.02148 494.23633L505.08594 495.26367L505.08594 498.21094L504.97266 499.08789L504.43359 499.40039L504.43359 499.6543L507.7832 499.6543L507.7832 499.40039L507.20312 499.16602L507.06836 498.21094L507.06836 495.63281L506.95508 494.08203L506.74269375 493.59440875L506.38867 493.19531L505.90937125 492.9253325L505.32031 492.83594L505.32031 492.83594M522.0332 492.83594L521.56353875 492.92088125L521.07617 493.17578L520.53974625 493.68196875L519.92188 494.53516L519.92188 493.0332L517.2168 493.0332L517.2168 493.29492L517.69141 493.42188L517.89648 493.71289L517.95312 494.43555L517.95312 498.09766L517.79688 499.16602L517.2168 499.40039L517.2168 499.6543L520.79297 499.6543L520.79297 499.40039L520.22656 499.29297L519.97852 499.00977L519.92969 498.49414L519.92188 498.09766L519.92188 496.57422L520.14844 495.05859L520.58789 494.37109L520.97656 494.2168L521.14062 494.25781L521.46484 494.52734L522.11719 494.76758L522.66992 494.50586L522.90234 493.76953L522.66211 493.08203L522.0332 492.83594L522.0332 492.83594M526.93359 492.83594L525.43164 493.08203L524.78849625 493.385545L524.30469 493.79883L524.00259875 494.27081125L523.90234 494.76758L523.97642125 495.10602L524.19922 495.39844L524.5388125 495.60048L524.94922 495.66797L525.62305 495.42773L525.88477 494.83203L525.61523 494.24414L525.41797 493.87695L525.60156 493.57812L526.35938 493.37305L526.86914 493.52148L527.17383 493.86133L527.25781 494.80469L527.25781 495.46875L525.45371375 496.3755075L524.41797 497.08398L523.9298975 497.7247225L523.76758 498.44336L523.8612475 498.95716625L524.14258 499.37891L524.5654825 499.6545625L525.08398 499.74609L526.1089375 499.4792475L527.25781 498.67773L527.39116 499.14833375L527.64844 499.48438L528.02885125 499.68074L528.5332 499.74609L529.39062 499.51367L530.12695 498.74805L529.91406 498.57812L529.53906 498.83984L529.375 498.7832L529.26953 498.61328L529.23438 498.04102L529.23438 495.46875L529.13477 494.10352L528.8747175 493.6531925L528.41992 493.23828L527.77590125 492.93619375L526.93359 492.83594L526.93359 492.83594M539.02734 492.83594L537.52734 493.08203L536.88419625 493.385545L536.40039 493.79883L536.09830375 494.27081125L535.99805 494.76758L536.07213 495.10602L536.29492 495.39844L536.6345125 495.60048L537.04492 495.66797L537.71875 495.42773L537.98047 494.83203L537.71094 494.24414L537.51367 493.87695L537.69727 493.57812L538.45508 493.37305L538.96484 493.52148L539.26953 493.86133L539.35352 494.80469L539.35352 495.46875L537.54941875 496.3755075L536.51367 497.08398L536.0255975 497.7247225L535.86328 498.44336L535.9569475 498.95716625L536.23828 499.37891L536.66118375 499.6545625L537.17969 499.74609L538.20464 499.4792475L539.35352 498.67773L539.486865 499.14833375L539.74414 499.48438L540.12456 499.68074L540.62891 499.74609L541.48633 499.51367L542.22266 498.74805L542.00977 498.57812L541.63477 498.83984L541.4707 498.7832L541.36523 498.61328L541.33008 498.04102L541.33008 495.46875L541.23047 494.10352L540.9704175 493.6531925L540.51562 493.23828L539.87062625 492.93619375L539.02734 492.83594L539.02734 492.83594M547.72461 492.83594L546.70508 493.07617L545.69922 493.9043L545.69922 493.0332L543.00195 493.0332L543.00195 493.29492L543.57422 493.53711L543.7168 494.4707L543.7168 498.21094L543.5957 499.13086L543.00195 499.40039L543.00195 499.6543L546.41406 499.6543L546.41406 499.40039L545.83398 499.13867L545.69922 498.21094L545.69922 494.6543L546.4082 493.9043L546.92383 493.75586L547.2793 493.88281L547.51953 494.23633L547.58984 495.36328L547.58984 498.21094L547.5332 498.96875L547.32031 499.26562L546.88867 499.40039L546.88867 499.6543L550.31641 499.6543L550.31641 499.40039L549.9305225 499.31331L549.69336 499.10938L549.57227 498.21094L549.57227 494.6543L550.20312 493.99023L550.81836 493.76367L551.17383 493.88281L551.40039 494.23633L551.4707 495.36328L551.4707 498.21094L551.34375 499.08789L551.09901125 499.30433875L550.74805 499.40039L550.74805 499.6543L554.16797 499.6543L554.16797 499.40039L553.58789 499.1582L553.45312 498.21094L553.45312 495.49805L553.29102 493.95312L553.07155 493.50944875L552.72461 493.1543L552.2495325 492.9154475L551.63281 492.83594L550.54297 493.11914L549.45898 494.03906L549.17555 493.50803625L548.79297 493.13281L548.31013125 492.91002L547.72461 492.83594L547.72461 492.83594M558.11328 492.83594L556.98539625 493.08203875L556.00977 493.82031L555.3404075 494.96676125L555.11719 496.45312L555.26962125 497.69668L555.72656 498.7207L556.150092969 499.216379062L556.66298375 499.5703775L557.265280156 499.782742187L557.95703 499.85352L558.76325625 499.74026125L559.4668 499.40039L560.08984875 498.7804325L560.65625 497.8418L560.41406 497.68555L559.67188 498.54297L558.90039 498.77734L558.26292875 498.6303425L557.72461 498.18945L557.2306025 497.28652875L557.02344 496.10742L560.65625 496.10742L560.4275875 494.68568125L559.85547 493.66406L559.05165 493.04286125L558.11328 492.83594L558.11328 492.83594M566.16602 492.83594L565.16016 493.08984L564.18164 493.89062L564.18164 493.0332L561.48438 493.0332L561.48438 493.29492L562.05859 493.53711L562.19922 494.4707L562.19922 498.21094L562.08008 499.13086L561.48438 499.40039L561.48438 499.6543L564.83398 499.6543L564.83398 499.40039L564.31641 499.15234L564.18164 498.21094L564.18164 494.66211L564.7277775 494.00880625L565.31641 493.79102L565.64844 493.91211L565.86719 494.23633L565.93164 495.26367L565.93164 498.21094L565.81836 499.08789L565.2793 499.40039L565.2793 499.6543L568.62891 499.6543L568.62891 499.40039L568.04883 499.16602L567.91406 498.21094L567.91406 495.63281L567.80078 494.08203L567.588395 493.59440875L567.23438 493.19531L566.75508125 492.9253325L566.16602 492.83594L566.16602 492.83594M592.25391 492.83594L591.37241 492.9916625L590.72461 493.45898L590.33187625 494.1122325L590.20117 494.83984L590.31772375 495.5105625L590.66797 496.12109L592.07031 497.26758L593.01953 498.01953L593.23047 498.60742L593.01172 499.11719L592.45898 499.32227L591.94757 499.20571625L591.4043 498.85547L590.91032875 498.271145L590.5332 497.45312L590.29297 497.45312L590.40625 499.83203L590.63867 499.83203L590.8145075 499.5667525L591.0293 499.47852L591.32031 499.55469L592.58789 499.85352L593.17010875 499.78273375L593.69922 499.57031L594.145525 499.22505375L594.47852 498.75586L594.75391 497.67188L594.67110375 497.09294875L594.42188 496.57422L593.9170925 496.02693L593.05469 495.37695L591.78711 494.37891L591.64453 494.00977L591.84961 493.56445L592.3457 493.36523L592.80664 493.4577425L593.26758 493.73438L593.72565 494.26155875L594.16602 495.10742L594.40625 495.10742L594.30078 492.84961L594.06055 492.84961L593.8125 493.1543L593.60742 493.20312L593.29492 493.09766L592.25391 492.83594L592.25391 492.83594M619.80859 492.83594L618.68070625 493.08203875L617.70508 493.82031L617.0357175 494.96676125L616.8125 496.45312L616.9649325 497.69668L617.42188 498.7207L617.845407187 499.216379062L618.358295 499.5703775L618.960590313 499.782742187L619.65234 499.85352L620.45856625 499.74026125L621.16211 499.40039L621.7851625 498.7804325L622.35156 497.8418L622.11133 497.68555L621.36719 498.54297L620.5957 498.77734L619.9582425 498.6303425L619.41992 498.18945L618.92591625 497.28652875L618.71875 496.10742L622.35156 496.10742L622.122905 494.68568125L621.55078 493.66406L620.74696375 493.04286125L619.80859 492.83594L619.80859 492.83594M627.86133 492.83594L626.85547 493.08984L625.87695 493.89062L625.87695 493.0332L623.17969 493.0332L623.17969 493.29492L623.75391 493.53711L623.89453 494.4707L623.89453 498.21094L623.77539 499.13086L623.17969 499.40039L623.17969 499.6543L626.5293 499.6543L626.5293 499.40039L626.01172 499.15234L625.87891 498.21094L625.87891 494.66211L626.42407125 494.00880625L627.01172 493.79102L627.34375 493.91211L627.5625 494.23633L627.62695 495.26367L627.62695 498.21094L627.51367 499.08789L626.97461 499.40039L626.97461 499.6543L630.32422 499.6543L630.32422 499.40039L629.74414 499.16602L629.60938 498.21094L629.60938 495.63281L629.49609 494.08203L629.283705 493.59440875L628.92969 493.19531L628.45039125 492.9253325L627.86133 492.83594L627.86133 492.83594M675.04688 492.83594L673.91899125 493.08203875L672.94336 493.82031L672.2739975 494.96676125L672.05078 496.45312L672.2032125 497.69668L672.66016 498.7207L673.083691406 499.216379062L673.59657875 499.5703775L674.198871719 499.782742187L674.89062 499.85352L675.695875 499.74026125L676.39844 499.40039L677.0214925 498.7804325L677.58789 497.8418L677.34766 497.68555L676.60352 498.54297L675.83203 498.77734L675.19456875 498.6303425L674.65625 498.18945L674.1622425 497.28652875L673.95508 496.10742L677.58789 496.10742L677.3592275 494.68568125L676.78711 493.66406L675.98426625 493.04286125L675.04688 492.83594L675.04688 492.83594M689.38672 492.83594L687.88477 493.08203L687.2425975 493.385545L686.75977 493.79883L686.4567075 494.27081125L686.35547 494.76758L686.42955 495.10602L686.65234 495.39844L686.99290875 495.60048L687.4043 495.66797L688.07617 495.42773L688.33789 494.83203L688.06836 494.24414L687.87109 493.87695L688.05469 493.57812L688.8125 493.37305L689.32227 493.52148L689.62695 493.86133L689.71289 494.80469L689.71289 495.46875L687.90878625 496.3755075L686.87305 497.08398L686.3839975 497.7247225L686.2207 498.44336L686.3143675 498.95716625L686.5957 499.37891L687.01860375 499.6545625L687.53711 499.74609L688.563035 499.4792475L689.71289 498.67773L689.84526375 499.14833375L690.10156 499.48438L690.48198375 499.68074L690.98633 499.74609L691.84375 499.51367L692.58008 498.74805L692.36719 498.57812L691.99219 498.83984L691.83008 498.7832L691.72266 498.61328L691.6875 498.04102L691.6875 495.46875L691.58789 494.10352L691.3278425 493.6531925L690.87305 493.23828L690.2290275 492.93619375L689.38672 492.83594L689.38672 492.83594M496.41797 493.0332L496.41797 493.29492L497.04883 493.52148L497.21094 494.41406L497.21094 498.28125L497.07031 499.14453L496.41797 499.40039L496.41797 499.6543L499.99414 499.6543L499.99414 499.40039L499.35742 499.17969L499.19336 498.28125L499.19336 493.0332L496.41797 493.0332L496.41797 493.0332M574.35156 493.0332L574.35156 493.29492L574.92578 493.53711L575.06641 494.4707L575.06641 497.09766L575.21484 498.70508L575.79688 499.51367L576.26579875 499.7685775L576.79492 499.85352L577.85742 499.59766L578.80664 498.76953L578.80664 499.6543L581.50391 499.6543L581.50391 499.40039L580.92969 499.16602L580.78906 498.2168L580.78906 493.0332L578.08984 493.0332L578.08984 493.29492L578.66406 493.53711L578.80664 494.4707L578.80664 498.01172L578.12695 498.75586L577.66602 498.89062L577.32617 498.7832L577.11328 498.47266L577.04883 497.55859L577.04883 493.0332L574.35156 493.0332L574.35156 493.0332M600.55469 493.0332L600.55469 493.29492L601.12695 493.53711L601.26953 494.4707L601.26953 497.09766L601.41797 498.70508L601.99805 499.51367L602.4669725 499.7685775L602.99609 499.85352L604.05859 499.59766L605.00781 498.76953L605.00781 499.6543L607.70703 499.6543L607.70703 499.40039L607.13281 499.16602L606.99023 498.2168L606.99023 493.0332L604.29297 493.0332L604.29297 493.29492L604.86719 493.53711L605.00781 494.4707L605.00781 498.01172L604.32812 498.75586L603.86719 498.89062L603.52734 498.7832L603.31641 498.47266L603.25195 497.55859L603.25195 493.0332L600.55469 493.0332L600.55469 493.0332M636.04688 493.0332L636.04688 493.29492L636.62109 493.53711L636.76172 494.4707L636.76172 497.09766L636.91211 498.70508L637.49219 499.51367L637.9611125 499.7685775L638.49023 499.85352L639.55273 499.59766L640.50195 498.76953L640.50195 499.6543L643.19922 499.6543L643.19922 499.40039L642.62695 499.16602L642.48438 498.2168L642.48438 493.0332L639.78711 493.0332L639.78711 493.29492L640.35938 493.53711L640.50195 494.4707L640.50195 498.01172L639.82227 498.75586L639.36133 498.89062L639.02148 498.7832L638.80859 498.47266L638.74609 497.55859L638.74609 493.0332L636.04688 493.0332L636.04688 493.0332M648.14258 493.0332L648.14258 493.29492L648.7168 493.53711L648.85742 494.4707L648.85742 497.09766L649.00586 498.70508L649.58789 499.51367L650.0568175 499.7685775L650.58594 499.85352L651.64844 499.59766L652.59766 498.76953L652.59766 499.6543L655.29492 499.6543L655.29492 499.40039L654.7207 499.16602L654.58008 498.2168L654.58008 493.0332L651.88086 493.0332L651.88086 493.29492L652.45508 493.53711L652.59766 494.4707L652.59766 498.01172L651.91797 498.75586L651.45703 498.89062L651.11719 498.7832L650.9043 498.47266L650.83984 497.55859L650.83984 493.0332L648.14258 493.0332L648.14258 493.0332M656.06641 493.0332L656.06641 493.29492L656.69727 493.52148L656.85938 494.41406L656.85938 498.28125L656.71875 499.14453L656.06641 499.40039L656.06641 499.6543L659.64258 499.6543L659.64258 499.40039L659.00586 499.17969L658.84375 498.28125L658.84375 493.0332L656.06641 493.0332L656.06641 493.0332M558.00781 493.29492L558.4043 493.42383L558.78711 494.06641L558.91406 495.63281L556.98828 495.63281L556.98828 495.38477L557.09183375 494.40366375L557.4043 493.65625L557.67241375 493.3852925L558.00781 493.29492L558.00781 493.29492M619.70312 493.29492L620.09961 493.42383L620.48242 494.06641L620.60938 495.63281L618.68359 495.63281L618.68359 495.38477L618.7881225 494.40366375L619.10156 493.65625L619.36870625 493.3852925L619.70312 493.29492L619.70312 493.29492M674.93945 493.29492L675.33594 493.42383L675.71875 494.06641L675.8457 495.63281L673.91992 495.63281L673.91992 495.38477L674.02444875 494.40366375L674.33789 493.65625L674.60502875 493.3852925L674.93945 493.29492L674.93945 493.29492M611.8418 493.53711L612.54085 493.787665L613.12305 494.54102L613.12305 498.02539L612.55383875 498.75896625L611.94922 499.00391L611.50195 498.86914L611.0 497.99805L610.81445 496.14258L610.97852 494.44922L611.41016 493.67773L611.8418 493.53711L611.8418 493.53711M667.07812 493.53711L667.77814625 493.787665L668.36133 494.54102L668.36133 498.02539L667.79114375 498.75896625L667.18555 499.00391L666.73828 498.86914L666.23633 497.99805L666.05273 496.14258L666.21484 494.44922L666.64648 493.67773L667.07812 493.53711L667.07812 493.53711M527.25781 495.94336L527.25781 498.16016L526.8193275 498.4575425L526.4375 498.55664L525.94141 498.36523L525.70703 497.79297L525.98438 497.01953L526.51132875 496.46374125L527.25781 495.94336L527.25781 495.94336M539.35352 495.94336L539.35352 498.16016L538.9150325 498.4575425L538.5332 498.55664L538.03711 498.36523L537.80273 497.79297L538.08008 497.01953L538.60703 496.46374125L539.35352 495.94336L539.35352 495.94336M689.71289 495.94336L689.71289 498.16016L689.27343125 498.4575425L688.89062 498.55664L688.39453 498.36523L688.16211 497.79297L688.4375 497.01953L688.9654325 496.46374125L689.71289 495.94336L689.71289 495.94336M609.25781 507.96094L608.85565 508.03929125L608.51367 508.27344L608.2852 508.611865L608.20898 509.01758L608.35156 509.95117L609.08789 512.67773L609.43359 512.67773L610.13477 509.96484L610.30469 508.98047L610.0293 508.28711L609.69843625 508.04258625L609.25781 507.96094L609.25781 507.96094M612.68555 507.96094L612.27653875 508.03929125L611.92773 508.27344L611.69358125 508.6099775L611.61523 508.99609L611.78516 509.95898L612.5 512.67773L612.85547 512.67773L613.53516 509.95898L613.71875 508.97461L613.44922 508.29492L613.12758 508.044725L612.68555 507.96094L612.68555 507.96094M574.27344 508.18164L574.27344 508.44336L575.10938 508.55664L575.42773 508.88281L575.51953 509.9082L575.51953 514.61133L575.6153325 515.68563125L575.90234 516.51562L576.42129125 517.16041L577.21289 517.67773L578.03415 517.9269625L579.13867 518.00977L580.47495125 517.8528825L581.49609 517.38086L582.1991925 516.7205275L582.58008 516.0L582.75001125 515.01379L582.80664 513.55664L582.80664 509.9082L582.89844 509.09375L583.28906 508.60547L583.96094 508.44336L584.16016 508.44336L584.16016 508.18164L580.83789 508.18164L580.83789 508.44336L581.73828 508.60547L582.07812 508.98828L582.21289 509.9082L582.21289 513.82422L582.143265 515.1258425L581.93555 515.9707L581.59620875 516.52156L581.11523 516.94141L580.51155 517.20198375L579.79102 517.28906L579.16911875 517.21943875L578.66406 517.01172L578.01953 516.31836L577.82812 514.61133L577.82812 509.9082L577.91406 508.88281L578.21094 508.5625L578.98242 508.44336L579.23047 508.44336L579.23047 508.18164L574.27344 508.18164L574.27344 508.18164M584.70508 508.18164L584.70508 508.44336L585.00977 508.44336L585.6543 508.58398L585.97266 508.9043L586.05078 509.81055L586.05078 515.88672L586.03711 516.60742L585.81641 517.125L585.39844 517.42188L584.80469 517.52148L584.70508 517.52148L584.70508 517.7832L587.99023 517.7832L587.99023 517.52148L587.02148 517.30273L586.625 516.7207L586.58789 515.84961L586.58789 509.08789L590.32812 517.7832L590.49805 517.7832L594.17969 509.02344L594.17969 516.14062L594.10156 517.0332L593.81836 517.37305L593.13867 517.52148L592.82812 517.52148L592.82812 517.7832L597.8418 517.7832L597.8418 517.52148L597.5293 517.52148L596.88477 517.38672L596.56641 517.06055L596.48828 516.14062L596.48828 509.81055L596.56641 508.92383L596.84961 508.5918L597.5293 508.44336L597.8418 508.44336L597.8418 508.18164L593.93164 508.18164L591.32617 514.51172L588.62891 508.18164L584.70508 508.18164L584.70508 508.18164M598.42188 508.18164L598.42188 508.44336L598.74023 508.44336L599.37891 508.58398L599.69727 508.9043L599.77539 509.82422L599.77539 516.14062L599.69727 517.0332L599.41406 517.37305L598.74023 517.52148L598.42188 517.52148L598.42188 517.7832L603.44336 517.7832L603.44336 517.52148L603.125 517.52148L602.48047 517.38672L602.16211 517.06055L602.08398 516.14062L602.08398 513.20117L602.35938 513.20117L603.0768525 513.31112875L603.71289 513.64062L604.19790125 514.3063425L604.44922 515.43945L604.69727 515.43945L604.69727 510.61719L604.44922 510.61719L604.08008 511.8418L603.40039 512.48633L602.35938 512.67773L602.08398 512.67773L602.08398 508.73438L602.97656 508.73438L604.54883 508.83984L605.2278075 509.0999L605.72266 509.49805L606.05546125 510.09109625L606.23242 510.93555L606.52344 510.93555L606.52344 508.18164L598.42188 508.18164L598.42188 508.18164"
       style="font-style:normal;font-variant:normal;font-weight:bold;font-stretch:normal;font-size:14.50326633px;line-height:125%;font-family:'Times New Roman';-inkscape-font-specification:'Times New Roman,  Bold';text-align:center;letter-spacing:0px;word-spacing:0px;text-anchor:middle;fill:#000000;fill-opacity:1;stroke:none;stroke-width:1px;stroke-linecap:butt;stroke-linejoin:miter;stroke-opacity:1" />
    <path
       id="path4339"
       transform="translate(0,-364.96079)"
       d="M575.35742 543.08008L574.85732 543.17724125L574.4375 543.46875L574.1520075 543.8895525L574.05664 544.39062L574.1520075 544.89072125L574.4375 545.31055L574.85732 545.59603875L575.35742 545.69141L575.85849625 545.59603875L576.2793 545.31055L576.570805 544.89072125L576.66797 544.39062L576.57259875 543.8895525L576.28711 543.46875L575.8645125 543.17724125L575.35742 543.08008L575.35742 543.08008M597.60742 543.08984L596.0122775 543.29231875L594.50586 543.90039L593.20076125 544.87624L592.19141 546.18164L591.55129 547.69407875L591.33789 549.29102L591.52944375 550.8012025L592.10547 552.22266L593.043555 553.439845L594.30273 554.33594L595.83219 554.88690875L597.56445 555.07031L598.86997125 554.95864L599.99805 554.62305L601.02503 554.02989L602.00977 553.16211L602.00977 552.17188L601.03535625 553.15841375L600.10742 553.80273L599.1656175 554.15833625L598.13086 554.27734L596.9350925 554.11660375L595.98438 553.63477L595.2661275 552.83178625L594.76758 551.72461L594.4760675 550.38986625L594.37891 548.91992L594.51242625 547.42817625L594.91211 546.08008L595.44599625 545.17837375L596.2207 544.4668L597.16071625 544.00399375L598.18945 543.84961L599.40646625 544.0566475L600.48828 544.67773L601.342185 545.6874675L601.875 547.06055L602.20312 547.06055L602.20312 543.08984L601.875 543.08984L601.61133 543.72266L601.14648 543.91797L600.1582 543.61328L598.849015 543.2205875L597.60742 543.08984L597.60742 543.08984M511.33398 543.11523L507.23438 552.25781L506.25586 553.99023L505.80297125 554.32341L505.24023 554.49609L505.24023 554.80859L509.05273 554.80859L509.05273 554.49609L507.92773 554.29297L507.636225 554.00185L507.53906 553.58398L507.77539 552.66211L508.25781 551.54688L512.30469 551.54688L512.91406 552.97461L513.16797 553.60938L513.21875 553.92188L513.03125 554.31055L512.09375 554.49609L511.86523 554.49609L511.86523 554.80859L517.4082 554.80859L517.4082 554.49609L516.59766 554.19141L516.16511625 553.59872L515.62695 552.51172L511.49414 543.11523L511.33398 543.11523L511.33398 543.11523M540.57031 543.35156L540.57031 543.66406L540.93359 543.66406L541.70312 543.83203L542.08203 544.21289L542.17578 545.29492L542.17578 552.54492L542.1582 553.40625L541.89648 554.02344L541.39844 554.37891L540.6875 554.49609L540.57031 554.49609L540.57031 554.80859L544.49023 554.80859L544.49023 554.49609L543.80859375 554.4307175L543.33398 554.23438L542.85938 553.54102L542.81836 552.50195L542.81836 544.43359L547.2793 554.80859L547.48242 554.80859L551.87695 544.35742L551.87695 552.84961L551.7832 553.91406L551.44531 554.31836L550.63477 554.49609L550.26172 554.49609L550.26172 554.80859L556.24414 554.80859L556.24414 554.49609L555.87305 554.49609L555.10352 554.33594L554.72461 553.94727L554.63086 552.84961L554.63086 545.29492L554.72461 544.23828L555.0625 543.8418L555.87305 543.66406L556.24414 543.66406L556.24414 543.35156L551.58008 543.35156L548.4707 550.90625L545.25195 543.35156L540.57031 543.35156L540.57031 543.35156M646.29492 543.35156L646.29492 543.66406L646.6582 543.66406L647.42773 543.83203L647.80859 544.21289L647.90039 545.29492L647.90039 552.54492L647.88281 553.40625L647.62109 554.02344L647.12305 554.37891L646.41406 554.49609L646.29492 554.49609L646.29492 554.80859L650.2168 554.80859L650.2168 554.49609L649.53418375 554.4307175L649.05859 554.23438L648.58594 553.54102L648.54297 552.50195L648.54297 544.43359L653.00391 554.80859L653.20703 554.80859L657.60156 544.35742L657.60156 552.84961L657.50781 553.91406L657.16992 554.31836L656.35938 554.49609L655.98633 554.49609L655.98633 554.80859L661.9707 554.80859L661.9707 554.49609L661.59766 554.49609L660.82812 554.33594L660.44922 553.94727L660.35547 552.84961L660.35547 545.29492L660.44922 544.23828L660.78711 543.8418L661.59766 543.66406L661.9707 543.66406L661.9707 543.35156L657.30469 543.35156L654.19531 550.90625L650.97656 543.35156L646.29492 543.35156L646.29492 543.35156M666.82812 543.35156L666.82812 543.66406L667.20898 543.66406L667.96875 543.83203L668.34961 544.21289L668.44336 545.31055L668.44336 552.84961L668.36719 553.91406L667.96875 554.34375L667.20898 554.49609L666.82812 554.49609L666.82812 554.80859L671.95703 554.80859L673.58008 554.70703L675.54883 554.0918L676.31128375 553.62196625L676.97656 553.02539L677.5365275 552.27118L677.98242 551.34375L678.2739325 550.2749925L678.37109 549.11328L678.17220375 547.45506L677.57617 545.97852L676.60484 544.768025L675.26172 543.9082L673.81006 543.490455L671.95703 543.35156L666.82812 543.35156L666.82812 543.35156M671.19727 544.00195L672.40772 544.0613075L673.2168 544.25586L674.00003625 544.7922625L674.62695 545.6582L675.14685375 547.198115L675.32031 549.18164L675.06697125 551.5602925L674.750209219 552.480277812L674.30664 553.2207L673.39637625 553.94297L672.15234 554.18359L671.49219 554.05664L671.26367 553.8125L671.19727 552.94141L671.19727 544.00195L671.19727 544.00195M523.78906 546.67188L523.16735125 546.74817L522.58789 546.97656L521.42188 547.93164L521.42188 546.9082L518.20312 546.9082L518.20312 547.2207L518.88672 547.50781L519.05664 548.62305L519.05664 553.08594L518.91211 554.18359L518.6294425 554.3996475L518.20312 554.50586L518.20312 554.80859L522.19922 554.80859L522.19922 554.50586L521.58398 554.20898L521.42188 553.08594L521.42188 548.85156L522.073285 548.0722L522.77539 547.8125L523.17188 547.95703L523.43359 548.3457L523.50977 549.57031L523.50977 553.08594L523.375 554.13281L523.11708125 554.3827325L522.73242 554.50586L522.73242 554.80859L526.72852 554.80859L526.72852 554.50586L526.03711 554.22656L525.875 553.08594L525.875 550.00977L525.74023 548.1582L525.4868425 547.57804875L525.06445 547.10352L524.49224125 546.7799625L523.78906 546.67188L523.78906 546.67188M531.79883 546.67188L530.8864225 546.74540125L530.00781 546.9668L529.24087625 547.328065L528.66406 547.82031L528.30244125 548.384625L528.18164 548.97852L528.27065375 549.38196L528.53711 549.73047L528.9431025 549.97187625L529.43359 550.05273L529.88354875 549.9800275L530.23633 549.76367L530.47074125 549.43875625L530.54883 549.05469L530.22656 548.35352L529.99023 547.91406L530.21094 547.55859L531.11523 547.31445L531.72266 547.49219L532.08594 547.89648L532.1875 549.02148L532.1875 549.81445L530.0347575 550.89662125L528.79883 551.74219L528.2158075 552.5062575L528.02148 553.36328L528.13413 553.97680125L528.4707 554.48047L528.9751875 554.81004375L529.59375 554.91992L530.81669 554.6002325L532.1875 553.64258L532.345985 554.20430125L532.65234 554.60547L533.106725 554.84085625L533.70898 554.91992L534.25140875 554.8499825L534.73047 554.64062L535.60938 553.72852L535.35742 553.52539L534.9082 553.83789L534.71484 553.76953L534.58789 553.56641L534.54492 552.88281L534.54492 549.81445L534.42773 548.18359L534.11716125 547.64782125L533.57422 547.1543L532.8048225 546.7926775L531.79883 546.67188L531.79883 546.67188M561.10352 546.67188L560.19110875 546.74540125L559.3125 546.9668L558.54556625 547.328065L557.96875 547.82031L557.60713125 548.384625L557.48633 548.97852L557.57534 549.38196L557.8418 549.73047L558.247785 549.97187625L558.73828 550.05273L559.188235 549.9800275L559.54102 549.76367L559.7754275 549.43875625L559.85352 549.05469L559.53125 548.35352L559.29492 547.91406L559.51562 547.55859L560.41797 547.31445L561.02734 547.49219L561.39062 547.89648L561.49219 549.02148L561.49219 549.81445L559.3394475 550.89662125L558.10352 551.74219L557.5204975 552.5062575L557.32617 553.36328L557.43784125 553.97680125L557.77344 554.48047L558.2789025 554.81004375L558.89844 554.91992L560.12137625 554.6002325L561.49219 553.64258L561.650675 554.20430125L561.95703 554.60547L562.411415 554.84085625L563.01367 554.91992L563.55609875 554.8499825L564.03516 554.64062L564.91406 553.72852L564.66016 553.52539L564.21289 553.83789L564.01758 553.76953L563.89258 553.56641L563.84961 552.88281L563.84961 549.81445L563.73047 548.18359L563.4199 547.64782125L562.87695 547.1543L562.1085325 546.7926775L561.10352 546.67188L561.10352 546.67188M571.58203 546.67188L571.02227625 546.7736L570.44141 547.07812L569.80054 547.68164375L569.0625 548.69922L569.0625 546.9082L565.83398 546.9082L565.83398 547.2207L566.40039 547.37305L566.64648 547.71875L566.71289 548.58203L566.71289 552.95117L566.52734 554.22656L566.26515875 554.41482125L565.83398 554.50586L565.83398 554.80859L570.10156 554.80859L570.10156 554.50586L569.42578 554.37891L569.13086 554.04102L569.07031 553.42383L569.0625 552.95117L569.0625 551.13281L569.33398 549.32617L569.85742 548.50586L570.32227 548.32031L570.51562 548.37109L570.9043 548.69141L571.26436875 548.906785L571.68359 548.97852L572.0422675 548.9004275L572.3418 548.66602L572.55115375 548.28993625L572.62109 547.78711L572.54935875 547.3156875L572.33398 546.9668L572.00659 546.74540125L571.58203 546.67188L571.58203 546.67188M582.22852 546.67188L581.31610875 546.74540125L580.4375 546.9668L579.6705625 547.328065L579.09375 547.82031L578.7321275 548.384625L578.61133 548.97852L578.70034 549.38196L578.9668 549.73047L579.37181 549.97187625L579.86133 550.05273L580.31128 549.9800275L580.66406 549.76367L580.89847125 549.43875625L580.97656 549.05469L580.65625 548.35352L580.41992 547.91406L580.63867 547.55859L581.54297 547.31445L582.15234 547.49219L582.51562 547.89648L582.61719 549.02148L582.61719 549.81445L580.4644475 550.89662125L579.22852 551.74219L578.6454975 552.5062575L578.45117 553.36328L578.56284125 553.97680125L578.89844 554.48047L579.4039025 554.81004375L580.02344 554.91992L581.24637625 554.6002325L582.61719 553.64258L582.77567125 554.20430125L583.08203 554.60547L583.53641125 554.84085625L584.13867 554.91992L584.68110625 554.8499825L585.16016 554.64062L586.03906 553.72852L585.78516 553.52539L585.33789 553.83789L585.14258 553.76953L585.01758 553.56641L584.97461 552.88281L584.97461 549.81445L584.85547 548.18359L584.5449 547.64782125L584.00195 547.1543L583.2335325 546.7926775L582.22852 546.67188L582.22852 546.67188M607.46875 546.67188L606.656332031 546.751106875L605.93454125 546.98879L605.303584844 547.384910625L604.76367 547.93945L604.0283875 549.30812L603.7832 550.89648L604.02382375 552.44498875L604.74609 553.79492L605.27925125 554.341962344L605.9152075 554.73256875L606.6536175 554.966850781L607.49414 555.04492L608.353394844 554.959630937L609.11442875 554.70355L609.777233281 554.276356563L610.3418 553.67773L610.981915 552.40781875L611.19531 550.86328L611.07907625 549.7435625L610.73047 548.7168L610.16632875 547.84898L609.38672 547.20508L608.463645 546.8053925L607.46875 546.67188L607.46875 546.67188M614.94531 546.67188L613.89377875 546.8580475L613.12109 547.41602L612.6522675 548.1948975L612.49609 549.0625L612.63498875 549.86306L613.05273 550.5918L614.72656 551.96094L615.85938 552.85742L616.11133 553.55859L615.84961 554.16602L615.19141 554.41211L614.5805375 554.27223625L613.93164 553.85352L613.34240125 553.15700125L612.89258 552.18164L612.60547 552.18164L612.74023 555.01953L613.01953 555.01953L613.22871625 554.70296875L613.48438 554.59766L613.83008 554.69141L615.34375 555.04492L616.0385225 554.96047375L616.66992 554.70703L617.20236625 554.295615L617.59961 553.73633L617.8470375 553.09617875L617.92969 552.44336L617.82975875 551.752175L617.53125 551.13281L616.92918 550.480205L615.90039 549.70508L614.38867 548.51367L614.21875 548.07422L614.46484 547.54297L615.05664 547.30664L615.60547 547.41554125L616.1543 547.74414L616.70197375 548.37433L617.22852 549.38477L617.51562 549.38477L617.38867 546.68945L617.10156 546.68945L616.80469 547.05273L616.56055 547.11133L616.1875 546.98438L615.57696875 546.749965L614.94531 546.67188L614.94531 546.67188M624.81641 546.67188L624.18265625 546.7436025L623.59961 546.95898L622.39844 547.94727L622.39844 546.9082L619.17969 546.9082L619.17969 547.2207L619.86328 547.50781L620.0332 548.62305L620.0332 553.08594L619.88867 554.18359L619.60600375 554.3996475L619.17969 554.50586L619.17969 554.80859L623.25195 554.80859L623.25195 554.50586L622.81654875 554.4014425L622.55859 554.19141L622.39844 553.08594L622.39844 548.84375L623.24414 547.94727L623.86133 547.76953L624.2832 547.92188L624.57031 548.3457L624.6543 549.68945L624.6543 553.08594L624.58789 553.99023L624.33398 554.34375L623.81836 554.50586L623.81836 554.80859L627.9082 554.80859L627.9082 554.50586L627.44740875 554.4017425L627.16406 554.1582L627.02148 553.08594L627.02148 548.84375L627.77344 548.04883L628.50781 547.7793L628.92969 547.92188L629.20117 548.3457L629.28516 549.68945L629.28516 553.08594L629.13281 554.13281L628.84169125 554.391185L628.42383 554.50586L628.42383 554.80859L632.50586 554.80859L632.50586 554.50586L631.8125 554.2168L631.65234 553.08594L631.65234 549.84961L631.45703 548.00781L631.19519 547.47745875L630.78125 547.05273L630.21535875 546.7672425L629.48047 546.67188L628.816425 546.75631875L628.17773 547.00977L626.88672 548.10938L626.5484125 547.4754125L626.0918 547.02734L625.515365 546.760885L624.81641 546.67188L624.81641 546.67188M637.52344 546.67188L636.6110325 546.74540125L635.73242 546.9668L634.96548625 547.328065L634.38867 547.82031L634.02802625 548.384625L633.9082 548.97852L633.99623875 549.38196L634.26172 549.73047L634.6677125 549.97187625L635.1582 550.05273L635.608155 549.9800275L635.96094 549.76367L636.19535125 549.43875625L636.27344 549.05469L635.95312 548.35352L635.7168 547.91406L635.93555 547.55859L636.83984 547.31445L637.44727 547.49219L637.81055 547.89648L637.91211 549.02148L637.91211 549.81445L635.7603425 550.89662125L634.52539 551.74219L633.9423725 552.5062575L633.74805 553.36328L633.85972 553.97680125L634.19531 554.48047L634.69980125 554.81004375L635.31836 554.91992L636.54129625 554.6002325L637.91211 553.64258L638.07059125 554.20430125L638.37695 554.60547L638.831335 554.84085625L639.43359 554.91992L639.9769975 554.8499825L640.45703 554.64062L641.33594 553.72852L641.08203 553.52539L640.63477 553.83789L640.43945 553.76953L640.3125 553.56641L640.26953 552.88281L640.26953 549.81445L640.15234 548.18359L639.84177125 547.64782125L639.29883 547.1543L638.5294325 546.7926775L637.52344 546.67188L637.52344 546.67188M573.22852 546.9082L573.22852 547.2207L573.695335 547.305745L573.98047 547.49219L574.12671375 547.87231875L574.17578 548.55664L574.17578 553.16992L574.00586 554.20117L573.68479125 554.4211125L573.22852 554.50586L573.22852 554.80859L577.49609 554.80859L577.49609 554.50586L577.0232625 554.42261L576.73633 554.24219L576.54102 553.16992L576.54102 546.9082L573.22852 546.9082L573.22852 546.9082M510.31055 546.97656L512.01758 550.92188L508.55273 550.92188L510.31055 546.97656L510.31055 546.97656M607.50195 547.27148L608.07617 547.44922L608.54883 548.23438L608.71094 550.20312L608.54102 553.44922L608.37621625 553.9076225L608.10156 554.25195L607.46875 554.46289L607.1009425 554.38480125L606.77539 554.15039L606.5243125 553.76615875L606.37891 553.23828L606.25977 551.54688L606.35352 548.88672L606.504965 548.083595L606.75781 547.60156L607.10030375 547.3541325L607.50195 547.27148L607.50195 547.27148M532.1875 550.38086L532.1875 553.02539L531.66347 553.38099625L531.20703 553.5L530.61523 553.27148L530.33789 552.58594L530.4195675 552.12386125L530.66602 551.66602L531.29578375 551.00231625L532.1875 550.38086L532.1875 550.38086M561.49219 550.38086L561.49219 553.02539L560.96815625 553.38099625L560.51172 553.5L559.91992 553.27148L559.64062 552.58594L559.7232725 552.12386125L559.9707 551.66602L560.60046875 551.00231625L561.49219 550.38086L561.49219 550.38086M582.61719 550.38086L582.61719 553.02539L582.09315625 553.38099625L581.63672 553.5L581.04492 553.27148L580.76562 552.58594L580.84827625 552.12386125L581.0957 551.66602L581.72546875 551.00231625L582.61719 550.38086L582.61719 550.38086M637.91211 550.38086L637.91211 553.02539L637.3890475 553.38099625L636.93359 553.5L636.3418 553.27148L636.0625 552.58594L636.1451525 552.12386125L636.39258 551.66602L637.02136875 551.00231625L637.91211 550.38086L637.91211 550.38086M664.4375 552.20703L663.89623125 552.31054875L663.43945 552.62109L663.13590875 553.07688875L663.03516 553.61719L663.13590875 554.158465L663.43945 554.61523L663.89623125 554.91878L664.4375 555.01953L664.9777925 554.91878L665.43359 554.61523L665.74413625 554.158465L665.84766 553.61719L665.74413625 553.07688875L665.43359 552.62109L664.98201875 552.31054875L664.4375 552.20703L664.4375 552.20703M681.26953 552.20703L680.72826125 552.31054875L680.27148 552.62109L679.96793875 553.07688875L679.86719 553.61719L679.96793875 554.158465L680.27148 554.61523L680.72826125 554.91878L681.26953 555.01953L681.8098225 554.91878L682.26562 554.61523L682.57616625 554.158465L682.67969 553.61719L682.57616625 553.07688875L682.26562 552.62109L681.8140525 552.31054875L681.26953 552.20703L681.26953 552.20703"
       style="font-style:normal;font-variant:normal;font-weight:bold;font-stretch:normal;font-size:medium;line-height:125%;font-family:'Times New Roman';-inkscape-font-specification:'Times New Roman,  Bold';letter-spacing:0px;word-spacing:0px;fill:#000000;fill-opacity:1;stroke:none;stroke-width:1px;stroke-linecap:butt;stroke-linejoin:miter;stroke-opacity:1" />
  </g>
</svg>
