  0
SECTION
  2
HEADER
  9
$ACADVER
  1
AC1014
  9
$HANDSEED
  5
FFFF
  9
$MEASUREMENT
 70
     1
  0
ENDSEC
  0
SECTION
  2
TABLES
  0
TABLE
  2
VPORT
  5
8
330
0
100
AcDbSymbolTable
 70
     4
  0
VPORT
  5
2E
330
8
100
AcDbSymbolTableRecord
100
AcDbViewportTableRecord
  2
*ACTIVE
 70
     0
 10
0.0
 20
0.0
 11
1.0
 21
1.0
 12
210.0
 22
148.5
 13
0.0
 23
0.0
 14
10.0
 24
10.0
 15
10.0
 25
10.0
 16
0.0
 26
0.0
 36
1.0
 17
0.0
 27
0.0
 37
0.0
 40
341.0
 41
1.24
 42
50.0
 43
0.0
 44
0.0
 50
0.0
 51
0.0
 71
     0
 72
   100
 73
     1
 74
     3
 75
     0
 76
     0
 77
     0
 78
     0
  0
ENDTAB
  0
TABLE
  2
LTYPE
  5
5
330
0
100
AcDbSymbolTable
 70
     1
  0
LTYPE
  5
14
330
5
100
AcDbSymbolTableRecord
100
AcDbLinetypeTableRecord
  2
BYBLOCK
 70
     0
  3

 72
    65
 73
     0
 40
0.0
  0
LTYPE
  5
15
330
5
100
AcDbSymbolTableRecord
100
AcDbLinetypeTableRecord
  2
BYLAYER
 70
     0
  3

 72
    65
 73
     0
 40
0.0
  0
LTYPE
  5
16
330
5
100
AcDbSymbolTableRecord
100
AcDbLinetypeTableRecord
  2
CONTINUOUS
 70
     0
  3
Solid line
 72
    65
 73
     0
 40
0.0
  0
ENDTAB
  0
TABLE
  2
LAYER
  5
2
100
AcDbSymbolTable
 70
2
  0
LAYER
  5
50
100
AcDbSymbolTableRecord
100
AcDbLayerTableRecord
  2
0
 70
0
  6
CONTINUOUS
  0
LAYER
  5
51
100
AcDbSymbolTableRecord
100
AcDbLayerTableRecord
  2
Layer_1
 70
0
  6
CONTINUOUS
  0
ENDTAB
  0
TABLE
  2
STYLE
  5
3
330
0
100
AcDbSymbolTable
 70
     1
  0
STYLE
  5
11
330
3
100
AcDbSymbolTableRecord
100
AcDbTextStyleTableRecord
  2
STANDARD
 70
     0
 40
0.0
 41
1.0
 50
0.0
 71
     0
 42
2.5
  3
txt
  4

  0
ENDTAB
  0
TABLE
  2
VIEW
  5
6
330
0
100
AcDbSymbolTable
 70
     0
  0
ENDTAB
  0
TABLE
  2
UCS
  5
7
330
0
100
AcDbSymbolTable
 70
     0
  0
ENDTAB
  0
TABLE
  2
APPID
  5
9
330
0
100
AcDbSymbolTable
 70
     2
  0
APPID
  5
12
330
9
100
AcDbSymbolTableRecord
100
AcDbRegAppTableRecord
  2
ACAD
 70
     0
  0
ENDTAB
  0
TABLE
  2
DIMSTYLE
  5
A
330
0
100
AcDbSymbolTable
 70
     1
  0
DIMSTYLE
105
27
330
A
100
AcDbSymbolTableRecord
100
AcDbDimStyleTableRecord
  2
ISO-25
 70
     0
  3

  4

  5

  6

  7

 40
1.0
 41
2.5
 42
0.625
 43
3.75
 44
1.25
 45
0.0
 46
0.0
 47
0.0
 48
0.0
140
2.5
141
2.5
142
0.0
143
0.03937007874016
144
1.0
145
0.0
146
1.0
147
0.625
 71
     0
 72
     0
 73
     0
 74
     0
 75
     0
 76
     0
 77
     1
 78
     8
170
     0
171
     3
172
     1
173
     0
174
     0
175
     0
176
     0
177
     0
178
     0
270
     2
271
     2
272
     2
273
     2
274
     3
340
11
275
     0
280
     0
281
     0
282
     0
283
     0
284
     8
285
     0
286
     0
287
     3
288
     0
  0
ENDTAB
  0
TABLE
  2
BLOCK_RECORD
  5
1
330
0
100
AcDbSymbolTable
 70
     1
  0
BLOCK_RECORD
  5
1F
330
1
100
AcDbSymbolTableRecord
100
AcDbBlockTableRecord
  2
*MODEL_SPACE
  0
BLOCK_RECORD
  5
1B
330
1
100
AcDbSymbolTableRecord
100
AcDbBlockTableRecord
  2
*PAPER_SPACE
  0
ENDTAB
  0
ENDSEC
  0
SECTION
  2
BLOCKS
  0
BLOCK
  5
20
330
1F
100
AcDbEntity
  8
0
100
AcDbBlockBegin
  2
*MODEL_SPACE
 70
     0
 10
0.0
 20
0.0
 30
0.0
  3
*MODEL_SPACE
  1

  0
ENDBLK
  5
21
330
1F
100
AcDbEntity
  8
0
100
AcDbBlockEnd
  0
BLOCK
  5
1C
330
1B
100
AcDbEntity
 67
     1
  8
0
100
AcDbBlockBegin
  2
*PAPER_SPACE
  1

  0
ENDBLK
  5
1D
330
1B
100
AcDbEntity
 67
     1
  8
0
100
AcDbBlockEnd
  0
ENDSEC
  0
SECTION
  2
ENTITIES
  0
SPLINE
  5
100
100
AcDbEntity
  8
Layer_1
 62
7
100
AcDbSpline
 70
8
 71
3
 72
8
 73
4
 74
0
 40
0
 40
0
 40
0
 40
0
 40
1
 40
1
 40
1
 40
1
 10
96.333688
 20
224.468889
 30
0.0
 10
93.519566
 20
224.468889
 30
0.0
 10
90.301905
 20
222.200985
 30
0.0
 10
89.294118
 20
219.507400
 30
0.0
  0
SPLINE
  5
101
100
AcDbEntity
  8
Layer_1
 62
7
100
AcDbSpline
 70
8
 71
3
 72
8
 73
4
 74
0
 40
0
 40
0
 40
0
 40
0
 40
1
 40
1
 40
1
 40
1
 10
89.294118
 20
219.507400
 30
0.0
 10
88.225032
 20
216.650055
 30
0.0
 10
88.673855
 20
214.336041
 30
0.0
 10
90.690898
 20
212.310183
 30
0.0
  0
SPLINE
  5
102
100
AcDbEntity
  8
Layer_1
 62
7
100
AcDbSpline
 70
8
 71
3
 72
8
 73
4
 74
0
 40
0
 40
0
 40
0
 40
0
 40
1
 40
1
 40
1
 40
1
 10
91.344640
 20
209.571193
 30
0.0
 10
90.169833
 20
206.890635
 30
0.0
 10
89.798926
 20
204.822861
 30
0.0
 10
89.803441
 20
200.975543
 30
0.0
  0
SPLINE
  5
103
100
AcDbEntity
  8
Layer_1
 62
7
100
AcDbSpline
 70
8
 71
3
 72
8
 73
4
 74
0
 40
0
 40
0
 40
0
 40
0
 40
1
 40
1
 40
1
 40
1
 10
89.803441
 20
200.975543
 30
0.0
 10
89.808154
 20
196.827940
 30
0.0
 10
90.148831
 20
195.450521
 30
0.0
 10
91.685841
 20
193.355543
 30
0.0
  0
SPLINE
  5
104
100
AcDbEntity
  8
Layer_1
 62
7
100
AcDbSpline
 70
8
 71
3
 72
8
 73
4
 74
0
 40
0
 40
0
 40
0
 40
0
 40
1
 40
1
 40
1
 40
1
 10
91.685841
 20
193.355543
 30
0.0
 10
92.727439
 20
191.935824
 30
0.0
 10
94.922746
 20
190.152464
 30
0.0
 10
95.980910
 20
189.866350
 30
0.0
  0
SPLINE
  5
105
100
AcDbEntity
  8
Layer_1
 62
7
100
AcDbSpline
 70
8
 71
3
 72
8
 73
4
 74
0
 40
0
 40
0
 40
0
 40
0
 40
1
 40
1
 40
1
 40
1
 10
95.980910
 20
189.866350
 30
0.0
 10
96.859855
 20
189.628702
 30
0.0
 10
96.775008
 20
189.325833
 30
0.0
 10
95.705854
 20
188.882981
 30
0.0
  0
SPLINE
  5
106
100
AcDbEntity
  8
Layer_1
 62
7
100
AcDbSpline
 70
8
 71
3
 72
8
 73
4
 74
0
 40
0
 40
0
 40
0
 40
0
 40
1
 40
1
 40
1
 40
1
 10
95.705854
 20
188.882981
 30
0.0
 10
94.573889
 20
188.414097
 30
0.0
 10
92.111833
 20
186.436696
 30
0.0
 10
90.313315
 20
184.552083
 30
0.0
  0
SPLINE
  5
107
100
AcDbEntity
  8
Layer_1
 62
7
100
AcDbSpline
 70
8
 71
3
 72
8
 73
4
 74
0
 40
0
 40
0
 40
0
 40
0
 40
1
 40
1
 40
1
 40
1
 10
90.313315
 20
184.552083
 30
0.0
 10
85.976265
 20
180.007388
 30
0.0
 10
79.598658
 20
167.788168
 30
0.0
 10
77.698202
 20
160.382397
 30
0.0
  0
SPLINE
  5
108
100
AcDbEntity
  8
Layer_1
 62
7
100
AcDbSpline
 70
8
 71
3
 72
8
 73
4
 74
0
 40
0
 40
0
 40
0
 40
0
 40
1
 40
1
 40
1
 40
1
 10
77.698202
 20
160.382397
 30
0.0
 10
76.817358
 20
156.949841
 30
0.0
 10
76.981572
 20
153.233804
 30
0.0
 10
78.104450
 20
151.181510
 30
0.0
  0
SPLINE
  5
109
100
AcDbEntity
  8
Layer_1
 62
7
100
AcDbSpline
 70
8
 71
3
 72
8
 73
4
 74
0
 40
0
 40
0
 40
0
 40
0
 40
1
 40
1
 40
1
 40
1
 10
78.104450
 20
151.181510
 30
0.0
 10
79.019668
 20
149.508677
 30
0.0
 10
80.442489
 20
148.263665
 30
0.0
 10
82.574254
 20
147.271188
 30
0.0
  0
SPLINE
  5
10a
100
AcDbEntity
  8
Layer_1
 62
7
100
AcDbSpline
 70
8
 71
3
 72
8
 73
4
 74
0
 40
0
 40
0
 40
0
 40
0
 40
1
 40
1
 40
1
 40
1
 10
82.574254
 20
147.271188
 30
0.0
 10
85.153483
 20
146.070381
 30
0.0
 10
87.951290
 20
146.434247
 30
0.0
 10
90.563567
 20
148.310229
 30
0.0
  0
LWPOLYLINE
  5
10b
100
AcDbEntity
  8
Layer_1
 62
7
100
AcDbPolyline
 90
3
 70
0
 10
90.690898
 20
212.310183
 30
0.0
 10
91.978536
 20
211.017032
 30
0.0
 10
91.344640
 20
209.571193
 30
0.0
  0
SPLINE
  5
10c
100
AcDbEntity
  8
Layer_1
 62
7
100
AcDbSpline
 70
8
 71
3
 72
8
 73
4
 74
0
 40
0
 40
0
 40
0
 40
0
 40
1
 40
1
 40
1
 40
1
 10
93.019231
 20
148.618359
 30
0.0
 10
96.076530
 20
146.992296
 30
0.0
 10
94.446976
 20
146.568943
 30
0.0
 10
94.367505
 20
146.315934
 30
0.0
  0
SPLINE
  5
10d
100
AcDbEntity
  8
Layer_1
 62
7
100
AcDbSpline
 70
8
 71
3
 72
8
 73
4
 74
0
 40
0
 40
0
 40
0
 40
0
 40
1
 40
1
 40
1
 40
1
 10
94.367505
 20
146.315934
 30
0.0
 10
94.294734
 20
146.084257
 30
0.0
 10
93.359331
 20
145.822045
 30
0.0
 10
93.359331
 20
145.822045
 30
0.0
  0
SPLINE
  5
10e
100
AcDbEntity
  8
Layer_1
 62
7
100
AcDbSpline
 70
8
 71
3
 72
8
 73
4
 74
0
 40
0
 40
0
 40
0
 40
0
 40
1
 40
1
 40
1
 40
1
 10
93.359331
 20
145.822045
 30
0.0
 10
91.740507
 20
145.834886
 30
0.0
 10
90.437341
 20
144.518926
 30
0.0
 10
90.437341
 20
142.900051
 30
0.0
  0
LWPOLYLINE
  5
10f
100
AcDbEntity
  8
Layer_1
 62
7
100
AcDbPolyline
 90
3
 70
0
 10
90.563567
 20
148.310229
 30
0.0
 10
91.821440
 20
149.213673
 30
0.0
 10
93.019231
 20
148.618359
 30
0.0
  0
SPLINE
  5
110
100
AcDbEntity
  8
Layer_1
 62
7
100
AcDbSpline
 70
8
 71
3
 72
8
 73
4
 74
0
 40
0
 40
0
 40
0
 40
0
 40
1
 40
1
 40
1
 40
1
 10
90.437341
 20
136.913302
 30
0.0
 10
90.437341
 20
135.294431
 30
0.0
 10
91.740457
 20
133.991312
 30
0.0
 10
93.359331
 20
133.991312
 30
0.0
  0
LWPOLYLINE
  5
111
100
AcDbEntity
  8
Layer_1
 62
7
100
AcDbPolyline
 90
2
 70
0
 10
90.437341
 20
142.900051
 30
0.0
 10
90.437341
 20
136.913302
 30
0.0
  0
SPLINE
  5
112
100
AcDbEntity
  8
Layer_1
 62
7
100
AcDbSpline
 70
8
 71
3
 72
8
 73
4
 74
0
 40
0
 40
0
 40
0
 40
0
 40
1
 40
1
 40
1
 40
1
 10
134.839383
 20
133.991312
 30
0.0
 10
136.458257
 20
133.991312
 30
0.0
 10
137.761926
 20
135.294431
 30
0.0
 10
137.761926
 20
136.913302
 30
0.0
  0
LWPOLYLINE
  5
113
100
AcDbEntity
  8
Layer_1
 62
7
100
AcDbPolyline
 90
2
 70
0
 10
93.359331
 20
133.991312
 30
0.0
 10
134.839383
 20
133.991312
 30
0.0
  0
SPLINE
  5
114
100
AcDbEntity
  8
Layer_1
 62
7
100
AcDbSpline
 70
8
 71
3
 72
8
 73
4
 74
0
 40
0
 40
0
 40
0
 40
0
 40
1
 40
1
 40
1
 40
1
 10
137.761926
 20
142.900051
 30
0.0
 10
137.761926
 20
144.518926
 30
0.0
 10
136.458257
 20
145.822045
 30
0.0
 10
134.839383
 20
145.822045
 30
0.0
  0
SPLINE
  5
115
100
AcDbEntity
  8
Layer_1
 62
7
100
AcDbSpline
 70
8
 71
3
 72
8
 73
4
 74
0
 40
0
 40
0
 40
0
 40
0
 40
1
 40
1
 40
1
 40
1
 10
134.839383
 20
145.822045
 30
0.0
 10
134.839383
 20
145.822045
 30
0.0
 10
132.998125
 20
146.205286
 30
0.0
 10
132.918398
 20
146.621307
 30
0.0
  0
SPLINE
  5
116
100
AcDbEntity
  8
Layer_1
 62
7
100
AcDbSpline
 70
8
 71
3
 72
8
 73
4
 74
0
 40
0
 40
0
 40
0
 40
0
 40
1
 40
1
 40
1
 40
1
 10
132.918398
 20
146.621307
 30
0.0
 10
132.833446
 20
146.954583
 30
0.0
 10
131.657536
 20
147.110516
 30
0.0
 10
134.516924
 20
148.346060
 30
0.0
  0
LWPOLYLINE
  5
117
100
AcDbEntity
  8
Layer_1
 62
7
100
AcDbPolyline
 90
2
 70
0
 10
137.761926
 20
136.913302
 30
0.0
 10
137.761926
 20
142.900051
 30
0.0
  0
SPLINE
  5
118
100
AcDbEntity
  8
Layer_1
 62
7
100
AcDbSpline
 70
8
 71
3
 72
8
 73
4
 74
0
 40
0
 40
0
 40
0
 40
0
 40
1
 40
1
 40
1
 40
1
 10
137.285126
 20
148.574262
 30
0.0
 10
138.951118
 20
147.342540
 30
0.0
 10
140.994700
 20
146.581192
 30
0.0
 10
142.643490
 20
146.578313
 30
0.0
  0
SPLINE
  5
119
100
AcDbEntity
  8
Layer_1
 62
7
100
AcDbSpline
 70
8
 71
3
 72
8
 73
4
 74
0
 40
0
 40
0
 40
0
 40
0
 40
1
 40
1
 40
1
 40
1
 10
142.643490
 20
146.578313
 30
0.0
 10
145.485908
 20
146.573346
 30
0.0
 10
148.876015
 20
148.734059
 30
0.0
 10
150.289949
 20
151.451605
 30
0.0
  0
SPLINE
  5
11a
100
AcDbEntity
  8
Layer_1
 62
7
100
AcDbSpline
 70
8
 71
3
 72
8
 73
4
 74
0
 40
0
 40
0
 40
0
 40
0
 40
1
 40
1
 40
1
 40
1
 10
150.289949
 20
151.451605
 30
0.0
 10
151.270408
 20
153.336022
 30
0.0
 10
151.325501
 20
157.225084
 30
0.0
 10
150.421137
 20
160.734622
 30
0.0
  0
SPLINE
  5
11b
100
AcDbEntity
  8
Layer_1
 62
7
100
AcDbSpline
 70
8
 71
3
 72
8
 73
4
 74
0
 40
0
 40
0
 40
0
 40
0
 40
1
 40
1
 40
1
 40
1
 10
150.421137
 20
160.734622
 30
0.0
 10
148.852419
 20
166.822313
 30
0.0
 10
144.131817
 20
176.487073
 30
0.0
 10
140.175147
 20
181.712222
 30
0.0
  0
SPLINE
  5
11c
100
AcDbEntity
  8
Layer_1
 62
7
100
AcDbSpline
 70
8
 71
3
 72
8
 73
4
 74
0
 40
0
 40
0
 40
0
 40
0
 40
1
 40
1
 40
1
 40
1
 10
140.175147
 20
181.712222
 30
0.0
 10
139.148603
 20
183.067366
 30
0.0
 10
135.894798
 20
186.541377
 30
0.0
 10
132.807603
 20
188.734704
 30
0.0
  0
LWPOLYLINE
  5
11d
100
AcDbEntity
  8
Layer_1
 62
7
100
AcDbPolyline
 90
3
 70
0
 10
134.516924
 20
148.346060
 30
0.0
 10
136.435152
 20
149.202647
 30
0.0
 10
137.285126
 20
148.574262
 30
0.0
  0
SPLINE
  5
11e
100
AcDbEntity
  8
Layer_1
 62
7
100
AcDbSpline
 70
8
 71
3
 72
8
 73
4
 74
0
 40
0
 40
0
 40
0
 40
0
 40
1
 40
1
 40
1
 40
1
 10
133.084313
 20
190.250548
 30
0.0
 10
134.863640
 20
191.254740
 30
0.0
 10
136.661810
 20
193.176755
 30
0.0
 10
137.595460
 20
195.072027
 30
0.0
  0
SPLINE
  5
11f
100
AcDbEntity
  8
Layer_1
 62
7
100
AcDbSpline
 70
8
 71
3
 72
8
 73
4
 74
0
 40
0
 40
0
 40
0
 40
0
 40
1
 40
1
 40
1
 40
1
 10
137.595460
 20
195.072027
 30
0.0
 10
138.158152
 20
196.214265
 30
0.0
 10
138.256086
 20
196.903587
 30
0.0
 10
138.336294
 20
200.297549
 30
0.0
  0
SPLINE
  5
120
100
AcDbEntity
  8
Layer_1
 62
7
100
AcDbSpline
 70
8
 71
3
 72
8
 73
4
 74
0
 40
0
 40
0
 40
0
 40
0
 40
1
 40
1
 40
1
 40
1
 10
138.336294
 20
200.297549
 30
0.0
 10
138.436621
 20
204.542894
 30
0.0
 10
138.047256
 20
207.021191
 30
0.0
 10
136.869509
 20
209.640095
 30
0.0
  0
LWPOLYLINE
  5
121
100
AcDbEntity
  8
Layer_1
 62
7
100
AcDbPolyline
 90
3
 70
0
 10
132.807603
 20
188.734704
 30
0.0
 10
131.539257
 20
189.379077
 30
0.0
 10
133.084313
 20
190.250548
 30
0.0
  0
SPLINE
  5
122
100
AcDbEntity
  8
Layer_1
 62
7
100
AcDbSpline
 70
8
 71
3
 72
8
 73
4
 74
0
 40
0
 40
0
 40
0
 40
0
 40
1
 40
1
 40
1
 40
1
 10
137.216224
 20
211.896219
 30
0.0
 10
138.449406
 20
212.978967
 30
0.0
 10
139.507349
 20
215.224782
 30
0.0
 10
139.510934
 20
216.767860
 30
0.0
  0
SPLINE
  5
123
100
AcDbEntity
  8
Layer_1
 62
7
100
AcDbSpline
 70
8
 71
3
 72
8
 73
4
 74
0
 40
0
 40
0
 40
0
 40
0
 40
1
 40
1
 40
1
 40
1
 10
139.510934
 20
216.767860
 30
0.0
 10
139.518159
 20
219.882352
 30
0.0
 10
137.074281
 20
223.151408
 30
0.0
 10
134.072644
 20
224.042798
 30
0.0
  0
SPLINE
  5
124
100
AcDbEntity
  8
Layer_1
 62
7
100
AcDbSpline
 70
8
 71
3
 72
8
 73
4
 74
0
 40
0
 40
0
 40
0
 40
0
 40
1
 40
1
 40
1
 40
1
 10
134.072644
 20
224.042798
 30
0.0
 10
132.276500
 20
224.576195
 30
0.0
 10
131.514190
 20
224.577149
 30
0.0
 10
129.733477
 20
224.048313
 30
0.0
  0
SPLINE
  5
125
100
AcDbEntity
  8
Layer_1
 62
7
100
AcDbSpline
 70
8
 71
3
 72
8
 73
4
 74
0
 40
0
 40
0
 40
0
 40
0
 40
1
 40
1
 40
1
 40
1
 10
129.733477
 20
224.048313
 30
0.0
 10
128.236895
 20
223.603875
 30
0.0
 10
126.555943
 20
222.212452
 30
0.0
 10
125.836937
 20
220.822047
 30
0.0
  0
LWPOLYLINE
  5
126
100
AcDbEntity
  8
Layer_1
 62
7
100
AcDbPolyline
 90
3
 70
0
 10
136.869509
 20
209.640095
 30
0.0
 10
136.240574
 20
211.039079
 30
0.0
 10
137.216224
 20
211.896219
 30
0.0
  0
SPLINE
  5
127
100
AcDbEntity
  8
Layer_1
 62
7
100
AcDbSpline
 70
8
 71
3
 72
8
 73
4
 74
0
 40
0
 40
0
 40
0
 40
0
 40
1
 40
1
 40
1
 40
1
 10
123.508603
 20
220.603768
 30
0.0
 10
121.782504
 20
221.126715
 30
0.0
 10
120.852020
 20
221.184198
 30
0.0
 10
114.113688
 20
221.184198
 30
0.0
  0
SPLINE
  5
128
100
AcDbEntity
  8
Layer_1
 62
7
100
AcDbSpline
 70
8
 71
3
 72
8
 73
4
 74
0
 40
0
 40
0
 40
0
 40
0
 40
1
 40
1
 40
1
 40
1
 10
114.113688
 20
221.184198
 30
0.0
 10
107.375356
 20
221.184198
 30
0.0
 10
106.444875
 20
221.126715
 30
0.0
 10
104.718776
 20
220.603768
 30
0.0
  0
LWPOLYLINE
  5
129
100
AcDbEntity
  8
Layer_1
 62
7
100
AcDbPolyline
 90
3
 70
0
 10
125.836937
 20
220.822047
 30
0.0
 10
125.424077
 20
220.023339
 30
0.0
 10
123.508603
 20
220.603768
 30
0.0
  0
SPLINE
  5
12a
100
AcDbEntity
  8
Layer_1
 62
7
100
AcDbSpline
 70
8
 71
3
 72
8
 73
4
 74
0
 40
0
 40
0
 40
0
 40
0
 40
1
 40
1
 40
1
 40
1
 10
102.362881
 20
220.874964
 30
0.0
 10
101.351684
 20
222.830431
 30
0.0
 10
98.602803
 20
224.468889
 30
0.0
 10
96.333688
 20
224.468889
 30
0.0
  0
LWPOLYLINE
  5
12b
100
AcDbEntity
  8
Layer_1
 62
7
100
AcDbPolyline
 90
3
 70
0
 10
104.718776
 20
220.603768
 30
0.0
 10
102.803302
 20
220.023339
 30
0.0
 10
102.362881
 20
220.874964
 30
0.0
  0
SPLINE
  5
12c
100
AcDbEntity
  8
Layer_1
 62
7
100
AcDbSpline
 70
8
 71
3
 72
8
 73
4
 74
0
 40
0
 40
0
 40
0
 40
0
 40
1
 40
1
 40
1
 40
1
 10
120.965846
 20
209.228889
 30
0.0
 10
122.363044
 20
209.228889
 30
0.0
 10
123.133395
 20
207.251251
 30
0.0
 10
122.086466
 20
206.352096
 30
0.0
  0
SPLINE
  5
12d
100
AcDbEntity
  8
Layer_1
 62
7
100
AcDbSpline
 70
8
 71
3
 72
8
 73
4
 74
0
 40
0
 40
0
 40
0
 40
0
 40
1
 40
1
 40
1
 40
1
 10
122.086466
 20
206.352096
 30
0.0
 10
121.028477
 20
205.443439
 30
0.0
 10
120.034101
 20
205.520339
 30
0.0
 10
119.350784
 20
206.563213
 30
0.0
  0
SPLINE
  5
12e
100
AcDbEntity
  8
Layer_1
 62
7
100
AcDbSpline
 70
8
 71
3
 72
8
 73
4
 74
0
 40
0
 40
0
 40
0
 40
0
 40
1
 40
1
 40
1
 40
1
 10
119.350784
 20
206.563213
 30
0.0
 10
118.511331
 20
207.844377
 30
0.0
 10
119.350197
 20
209.228889
 30
0.0
 10
120.965846
 20
209.228889
 30
0.0
  0
LWPOLYLINE
  5
12f
100
AcDbEntity
  8
Layer_1
 62
7
100
AcDbPolyline
 90
2
 70
0
 10
96.333688
 20
224.468889
 30
0.0
 10
96.333688
 20
224.468889
 30
0.0
  0
SPLINE
  5
130
100
AcDbEntity
  8
Layer_1
 62
7
100
AcDbSpline
 70
8
 71
3
 72
8
 73
4
 74
0
 40
0
 40
0
 40
0
 40
0
 40
1
 40
1
 40
1
 40
1
 10
107.188770
 20
209.186996
 30
0.0
 10
107.468791
 20
209.187258
 30
0.0
 10
107.763985
 20
209.126899
 30
0.0
 10
108.059141
 20
208.992418
 30
0.0
  0
SPLINE
  5
131
100
AcDbEntity
  8
Layer_1
 62
7
100
AcDbSpline
 70
8
 71
3
 72
8
 73
4
 74
0
 40
0
 40
0
 40
0
 40
0
 40
1
 40
1
 40
1
 40
1
 10
108.059141
 20
208.992418
 30
0.0
 10
108.942398
 20
208.589980
 30
0.0
 10
109.226471
 20
207.449046
 30
0.0
 10
108.659414
 20
206.583606
 30
0.0
  0
SPLINE
  5
132
100
AcDbEntity
  8
Layer_1
 62
7
100
AcDbSpline
 70
8
 71
3
 72
8
 73
4
 74
0
 40
0
 40
0
 40
0
 40
0
 40
1
 40
1
 40
1
 40
1
 10
108.659414
 20
206.583606
 30
0.0
 10
107.858727
 20
205.361603
 30
0.0
 10
106.206344
 20
205.490102
 30
0.0
 10
105.599619
 20
206.821731
 30
0.0
  0
SPLINE
  5
133
100
AcDbEntity
  8
Layer_1
 62
7
100
AcDbSpline
 70
8
 71
3
 72
8
 73
4
 74
0
 40
0
 40
0
 40
0
 40
0
 40
1
 40
1
 40
1
 40
1
 10
105.599619
 20
206.821731
 30
0.0
 10
105.043458
 20
208.042356
 30
0.0
 10
105.975350
 20
209.185861
 30
0.0
 10
107.188770
 20
209.186996
 30
0.0
  0
LWPOLYLINE
  5
134
100
AcDbEntity
  8
Layer_1
 62
7
100
AcDbPolyline
 90
2
 70
0
 10
120.965846
 20
209.228889
 30
0.0
 10
120.965846
 20
209.228889
 30
0.0
  0
SPLINE
  5
135
100
AcDbEntity
  8
Layer_1
 62
7
100
AcDbSpline
 70
8
 71
3
 72
8
 73
4
 74
0
 40
0
 40
0
 40
0
 40
0
 40
1
 40
1
 40
1
 40
1
 10
107.179951
 20
208.520576
 30
0.0
 10
107.134914
 20
208.523765
 30
0.0
 10
107.090831
 20
208.523497
 30
0.0
 10
107.047659
 20
208.520026
 30
0.0
  0
SPLINE
  5
136
100
AcDbEntity
  8
Layer_1
 62
7
100
AcDbSpline
 70
8
 71
3
 72
8
 73
4
 74
0
 40
0
 40
0
 40
0
 40
0
 40
1
 40
1
 40
1
 40
1
 10
107.047659
 20
208.520026
 30
0.0
 10
106.299356
 20
208.459932
 30
0.0
 10
105.857568
 20
207.438011
 30
0.0
 10
106.549912
 20
206.745664
 30
0.0
  0
SPLINE
  5
137
100
AcDbEntity
  8
Layer_1
 62
7
100
AcDbSpline
 70
8
 71
3
 72
8
 73
4
 74
0
 40
0
 40
0
 40
0
 40
0
 40
1
 40
1
 40
1
 40
1
 10
106.549912
 20
206.745664
 30
0.0
 10
106.736179
 20
206.559397
 30
0.0
 10
107.028499
 20
206.406667
 30
0.0
 10
107.199244
 20
206.406667
 30
0.0
  0
SPLINE
  5
138
100
AcDbEntity
  8
Layer_1
 62
7
100
AcDbSpline
 70
8
 71
3
 72
8
 73
4
 74
0
 40
0
 40
0
 40
0
 40
0
 40
1
 40
1
 40
1
 40
1
 10
107.199244
 20
206.406667
 30
0.0
 10
108.197577
 20
206.406667
 30
0.0
 10
108.504386
 20
207.910479
 30
0.0
 10
107.604388
 20
208.392145
 30
0.0
  0
SPLINE
  5
139
100
AcDbEntity
  8
Layer_1
 62
7
100
AcDbSpline
 70
8
 71
3
 72
8
 73
4
 74
0
 40
0
 40
0
 40
0
 40
0
 40
1
 40
1
 40
1
 40
1
 10
107.604388
 20
208.392145
 30
0.0
 10
107.457994
 20
208.470490
 30
0.0
 10
107.315068
 20
208.511045
 30
0.0
 10
107.179951
 20
208.520576
 30
0.0
  0
LWPOLYLINE
  5
13a
100
AcDbEntity
  8
Layer_1
 62
7
100
AcDbPolyline
 90
2
 70
0
 10
107.188770
 20
209.186996
 30
0.0
 10
107.188770
 20
209.186996
 30
0.0
  0
SPLINE
  5
13b
100
AcDbEntity
  8
Layer_1
 62
7
100
AcDbSpline
 70
8
 71
3
 72
8
 73
4
 74
0
 40
0
 40
0
 40
0
 40
0
 40
1
 40
1
 40
1
 40
1
 10
120.667639
 20
208.480340
 30
0.0
 10
119.900494
 20
208.429359
 30
0.0
 10
119.411970
 20
207.430275
 30
0.0
 10
120.096579
 20
206.745664
 30
0.0
  0
SPLINE
  5
13c
100
AcDbEntity
  8
Layer_1
 62
7
100
AcDbSpline
 70
8
 71
3
 72
8
 73
4
 74
0
 40
0
 40
0
 40
0
 40
0
 40
1
 40
1
 40
1
 40
1
 10
120.096579
 20
206.745664
 30
0.0
 10
120.481000
 20
206.361243
 30
0.0
 10
120.657098
 20
206.336300
 30
0.0
 10
121.287204
 20
206.578094
 30
0.0
  0
SPLINE
  5
13d
100
AcDbEntity
  8
Layer_1
 62
7
100
AcDbSpline
 70
8
 71
3
 72
8
 73
4
 74
0
 40
0
 40
0
 40
0
 40
0
 40
1
 40
1
 40
1
 40
1
 10
121.287204
 20
206.578094
 30
0.0
 10
121.891295
 20
206.809906
 30
0.0
 10
121.854183
 20
208.015957
 30
0.0
 10
121.232634
 20
208.348598
 30
0.0
  0
SPLINE
  5
13e
100
AcDbEntity
  8
Layer_1
 62
7
100
AcDbSpline
 70
8
 71
3
 72
8
 73
4
 74
0
 40
0
 40
0
 40
0
 40
0
 40
1
 40
1
 40
1
 40
1
 10
121.232634
 20
208.348598
 30
0.0
 10
121.036924
 20
208.453339
 30
0.0
 10
120.844671
 20
208.492103
 30
0.0
 10
120.667639
 20
208.480340
 30
0.0
  0
LWPOLYLINE
  5
13f
100
AcDbEntity
  8
Layer_1
 62
7
100
AcDbPolyline
 90
2
 70
0
 10
107.179951
 20
208.520576
 30
0.0
 10
107.179951
 20
208.520576
 30
0.0
  0
SPLINE
  5
140
100
AcDbEntity
  8
Layer_1
 62
7
100
AcDbSpline
 70
8
 71
3
 72
8
 73
4
 74
0
 40
0
 40
0
 40
0
 40
0
 40
1
 40
1
 40
1
 40
1
 10
112.663992
 20
204.696798
 30
0.0
 10
113.258817
 20
204.695387
 30
0.0
 10
113.953059
 20
204.678058
 30
0.0
 10
114.803259
 20
204.649943
 30
0.0
  0
SPLINE
  5
141
100
AcDbEntity
  8
Layer_1
 62
7
100
AcDbSpline
 70
8
 71
3
 72
8
 73
4
 74
0
 40
0
 40
0
 40
0
 40
0
 40
1
 40
1
 40
1
 40
1
 10
114.803259
 20
204.649943
 30
0.0
 10
118.152342
 20
204.539191
 30
0.0
 10
119.117062
 20
204.400349
 30
0.0
 10
120.997266
 20
203.758076
 30
0.0
  0
SPLINE
  5
142
100
AcDbEntity
  8
Layer_1
 62
7
100
AcDbSpline
 70
8
 71
3
 72
8
 73
4
 74
0
 40
0
 40
0
 40
0
 40
0
 40
1
 40
1
 40
1
 40
1
 10
120.997266
 20
203.758076
 30
0.0
 10
126.276035
 20
201.954854
 30
0.0
 10
128.718556
 20
198.951919
 30
0.0
 10
128.439774
 20
194.607904
 30
0.0
  0
SPLINE
  5
143
100
AcDbEntity
  8
Layer_1
 62
7
100
AcDbSpline
 70
8
 71
3
 72
8
 73
4
 74
0
 40
0
 40
0
 40
0
 40
0
 40
1
 40
1
 40
1
 40
1
 10
128.439774
 20
194.607904
 30
0.0
 10
128.330551
 20
192.905968
 30
0.0
 10
128.161915
 20
192.335981
 30
0.0
 10
127.479558
 20
191.365103
 30
0.0
  0
SPLINE
  5
144
100
AcDbEntity
  8
Layer_1
 62
7
100
AcDbSpline
 70
8
 71
3
 72
8
 73
4
 74
0
 40
0
 40
0
 40
0
 40
0
 40
1
 40
1
 40
1
 40
1
 10
127.479558
 20
191.365103
 30
0.0
 10
125.997019
 20
189.255712
 30
0.0
 10
124.024785
 20
188.342331
 30
0.0
 10
119.758133
 20
187.789370
 30
0.0
  0
LWPOLYLINE
  5
145
100
AcDbEntity
  8
Layer_1
 62
7
100
AcDbPolyline
 90
2
 70
0
 10
120.667639
 20
208.480340
 30
0.0
 10
120.667639
 20
208.480340
 30
0.0
  0
SPLINE
  5
146
100
AcDbEntity
  8
Layer_1
 62
7
100
AcDbSpline
 70
8
 71
3
 72
8
 73
4
 74
0
 40
0
 40
0
 40
0
 40
0
 40
1
 40
1
 40
1
 40
1
 10
119.758133
 20
187.789923
 30
0.0
 10
117.302311
 20
187.471588
 30
0.0
 10
110.872857
 20
187.472581
 30
0.0
 10
108.133555
 20
187.792127
 30
0.0
  0
SPLINE
  5
147
100
AcDbEntity
  8
Layer_1
 62
7
100
AcDbSpline
 70
8
 71
3
 72
8
 73
4
 74
0
 40
0
 40
0
 40
0
 40
0
 40
1
 40
1
 40
1
 40
1
 10
108.133555
 20
187.792127
 30
0.0
 10
103.968736
 20
188.277798
 30
0.0
 10
101.342644
 20
189.622959
 30
0.0
 10
100.168493
 20
191.872222
 30
0.0
  0
SPLINE
  5
148
100
AcDbEntity
  8
Layer_1
 62
7
100
AcDbSpline
 70
8
 71
3
 72
8
 73
4
 74
0
 40
0
 40
0
 40
0
 40
0
 40
1
 40
1
 40
1
 40
1
 10
100.168493
 20
191.872222
 30
0.0
 10
99.329325
 20
193.479768
 30
0.0
 10
99.345428
 20
197.050701
 30
0.0
 10
100.198812
 20
198.645556
 30
0.0
  0
SPLINE
  5
149
100
AcDbEntity
  8
Layer_1
 62
7
100
AcDbSpline
 70
8
 71
3
 72
8
 73
4
 74
0
 40
0
 40
0
 40
0
 40
0
 40
1
 40
1
 40
1
 40
1
 10
100.198812
 20
198.645556
 30
0.0
 10
101.599472
 20
201.263198
 30
0.0
 10
104.435374
 20
203.162443
 30
0.0
 10
108.464835
 20
204.181409
 30
0.0
  0
SPLINE
  5
14a
100
AcDbEntity
  8
Layer_1
 62
7
100
AcDbSpline
 70
8
 71
3
 72
8
 73
4
 74
0
 40
0
 40
0
 40
0
 40
0
 40
1
 40
1
 40
1
 40
1
 10
108.464835
 20
204.181409
 30
0.0
 10
109.989674
 20
204.567010
 30
0.0
 10
110.879523
 20
204.701333
 30
0.0
 10
112.663992
 20
204.696798
 30
0.0
  0
LWPOLYLINE
  5
14b
100
AcDbEntity
  8
Layer_1
 62
7
100
AcDbPolyline
 90
2
 70
0
 10
119.758133
 20
187.789370
 30
0.0
 10
119.758133
 20
187.789923
 30
0.0
  0
SPLINE
  5
14c
100
AcDbEntity
  8
Layer_1
 62
7
100
AcDbSpline
 70
8
 71
3
 72
8
 73
4
 74
0
 40
0
 40
0
 40
0
 40
0
 40
1
 40
1
 40
1
 40
1
 10
114.077860
 20
204.472451
 30
0.0
 10
113.960927
 20
204.474709
 30
0.0
 10
113.843452
 20
204.474441
 30
0.0
 10
113.725082
 20
204.471901
 30
0.0
  0
SPLINE
  5
14d
100
AcDbEntity
  8
Layer_1
 62
7
100
AcDbSpline
 70
8
 71
3
 72
8
 73
4
 74
0
 40
0
 40
0
 40
0
 40
0
 40
1
 40
1
 40
1
 40
1
 10
113.725082
 20
204.471901
 30
0.0
 10
113.023639
 20
204.456745
 30
0.0
 10
112.299039
 20
204.355131
 30
0.0
 10
111.573688
 20
204.153297
 30
0.0
  0
SPLINE
  5
14e
100
AcDbEntity
  8
Layer_1
 62
7
100
AcDbSpline
 70
8
 71
3
 72
8
 73
4
 74
0
 40
0
 40
0
 40
0
 40
0
 40
1
 40
1
 40
1
 40
1
 10
111.573688
 20
204.153297
 30
0.0
 10
110.088567
 20
203.740067
 30
0.0
 10
108.522273
 20
202.321223
 30
0.0
 10
108.311597
 20
201.198233
 30
0.0
  0
SPLINE
  5
14f
100
AcDbEntity
  8
Layer_1
 62
7
100
AcDbSpline
 70
8
 71
3
 72
8
 73
4
 74
0
 40
0
 40
0
 40
0
 40
0
 40
1
 40
1
 40
1
 40
1
 10
108.311597
 20
201.198233
 30
0.0
 10
108.077756
 20
199.951756
 30
0.0
 10
108.311315
 20
199.290515
 30
0.0
 10
109.339064
 20
198.285612
 30
0.0
  0
SPLINE
  5
150
100
AcDbEntity
  8
Layer_1
 62
7
100
AcDbSpline
 70
8
 71
3
 72
8
 73
4
 74
0
 40
0
 40
0
 40
0
 40
0
 40
1
 40
1
 40
1
 40
1
 10
109.339064
 20
198.285612
 30
0.0
 10
110.095673
 20
197.545882
 30
0.0
 10
110.793059
 20
197.229088
 30
0.0
 10
112.914244
 20
196.661181
 30
0.0
  0
SPLINE
  5
151
100
AcDbEntity
  8
Layer_1
 62
7
100
AcDbSpline
 70
8
 71
3
 72
8
 73
4
 74
0
 40
0
 40
0
 40
0
 40
0
 40
1
 40
1
 40
1
 40
1
 10
112.914244
 20
196.661181
 30
0.0
 10
113.471571
 20
196.511967
 30
0.0
 10
113.549244
 20
196.307988
 30
0.0
 10
113.549244
 20
194.994306
 30
0.0
  0
SPLINE
  5
152
100
AcDbEntity
  8
Layer_1
 62
7
100
AcDbSpline
 70
8
 71
3
 72
8
 73
4
 74
0
 40
0
 40
0
 40
0
 40
0
 40
1
 40
1
 40
1
 40
1
 10
113.549244
 20
194.994306
 30
0.0
 10
113.549244
 20
194.994306
 30
0.0
 10
113.660321
 20
194.134654
 30
0.0
 10
113.388840
 20
193.871479
 30
0.0
  0
SPLINE
  5
153
100
AcDbEntity
  8
Layer_1
 62
7
100
AcDbSpline
 70
8
 71
3
 72
8
 73
4
 74
0
 40
0
 40
0
 40
0
 40
0
 40
1
 40
1
 40
1
 40
1
 10
113.388840
 20
193.871479
 30
0.0
 10
113.111006
 20
193.602146
 30
0.0
 10
112.235147
 20
193.743048
 30
0.0
 10
112.235147
 20
193.743048
 30
0.0
  0
SPLINE
  5
154
100
AcDbEntity
  8
Layer_1
 62
7
100
AcDbSpline
 70
8
 71
3
 72
8
 73
4
 74
0
 40
0
 40
0
 40
0
 40
0
 40
1
 40
1
 40
1
 40
1
 10
112.235147
 20
193.743048
 30
0.0
 10
111.737998
 20
193.734468
 30
0.0
 10
110.763648
 20
193.743189
 30
0.0
 10
109.765702
 20
193.935422
 30
0.0
  0
SPLINE
  5
155
100
AcDbEntity
  8
Layer_1
 62
7
100
AcDbSpline
 70
8
 71
3
 72
8
 73
4
 74
0
 40
0
 40
0
 40
0
 40
0
 40
1
 40
1
 40
1
 40
1
 10
109.765702
 20
193.935422
 30
0.0
 10
108.879612
 20
194.106107
 30
0.0
 10
108.063705
 20
194.329192
 30
0.0
 10
107.338151
 20
194.672948
 30
0.0
  0
SPLINE
  5
156
100
AcDbEntity
  8
Layer_1
 62
7
100
AcDbSpline
 70
8
 71
3
 72
8
 73
4
 74
0
 40
0
 40
0
 40
0
 40
0
 40
1
 40
1
 40
1
 40
1
 10
107.338151
 20
194.672948
 30
0.0
 10
105.896241
 20
195.356098
 30
0.0
 10
105.745252
 20
196.376091
 30
0.0
 10
105.500399
 20
196.898755
 30
0.0
  0
SPLINE
  5
157
100
AcDbEntity
  8
Layer_1
 62
7
100
AcDbSpline
 70
8
 71
3
 72
8
 73
4
 74
0
 40
0
 40
0
 40
0
 40
0
 40
1
 40
1
 40
1
 40
1
 10
105.500399
 20
196.898755
 30
0.0
 10
105.021462
 20
197.921088
 30
0.0
 10
104.472740
 20
197.950998
 30
0.0
 10
104.590342
 20
196.948364
 30
0.0
  0
SPLINE
  5
158
100
AcDbEntity
  8
Layer_1
 62
7
100
AcDbSpline
 70
8
 71
3
 72
8
 73
4
 74
0
 40
0
 40
0
 40
0
 40
0
 40
1
 40
1
 40
1
 40
1
 10
104.590342
 20
196.948364
 30
0.0
 10
104.679603
 20
196.187338
 30
0.0
 10
105.119861
 20
194.857628
 30
0.0
 10
106.958915
 20
193.957469
 30
0.0
  0
SPLINE
  5
159
100
AcDbEntity
  8
Layer_1
 62
7
100
AcDbSpline
 70
8
 71
3
 72
8
 73
4
 74
0
 40
0
 40
0
 40
0
 40
0
 40
1
 40
1
 40
1
 40
1
 10
106.958915
 20
193.957469
 30
0.0
 10
107.755267
 20
193.567678
 30
0.0
 10
108.648147
 20
193.309120
 30
0.0
 10
109.631757
 20
193.115214
 30
0.0
  0
SPLINE
  5
15a
100
AcDbEntity
  8
Layer_1
 62
7
100
AcDbSpline
 70
8
 71
3
 72
8
 73
4
 74
0
 40
0
 40
0
 40
0
 40
0
 40
1
 40
1
 40
1
 40
1
 10
109.631757
 20
193.115214
 30
0.0
 10
110.756014
 20
192.893579
 30
0.0
 10
111.582364
 20
192.851770
 30
0.0
 10
112.258850
 20
192.836849
 30
0.0
  0
SPLINE
  5
15b
100
AcDbEntity
  8
Layer_1
 62
7
100
AcDbSpline
 70
8
 71
3
 72
8
 73
4
 74
0
 40
0
 40
0
 40
0
 40
0
 40
1
 40
1
 40
1
 40
1
 10
112.258850
 20
192.836849
 30
0.0
 10
114.212652
 20
192.793757
 30
0.0
 10
116.680784
 20
192.938215
 30
0.0
 10
117.852032
 20
193.133403
 30
0.0
  0
SPLINE
  5
15c
100
AcDbEntity
  8
Layer_1
 62
7
100
AcDbSpline
 70
8
 71
3
 72
8
 73
4
 74
0
 40
0
 40
0
 40
0
 40
0
 40
1
 40
1
 40
1
 40
1
 10
117.852032
 20
193.133403
 30
0.0
 10
119.372027
 20
193.386709
 30
0.0
 10
119.671933
 20
193.481752
 30
0.0
 10
120.776780
 20
194.024717
 30
0.0
  0
SPLINE
  5
15d
100
AcDbEntity
  8
Layer_1
 62
7
100
AcDbSpline
 70
8
 71
3
 72
8
 73
4
 74
0
 40
0
 40
0
 40
0
 40
0
 40
1
 40
1
 40
1
 40
1
 10
120.776780
 20
194.024717
 30
0.0
 10
122.123310
 20
194.686455
 30
0.0
 10
123.026675
 20
196.018781
 30
0.0
 10
123.077001
 20
196.447860
 30
0.0
  0
SPLINE
  5
15e
100
AcDbEntity
  8
Layer_1
 62
7
100
AcDbSpline
 70
8
 71
3
 72
8
 73
4
 74
0
 40
0
 40
0
 40
0
 40
0
 40
1
 40
1
 40
1
 40
1
 10
123.077001
 20
196.447860
 30
0.0
 10
123.194964
 20
197.453567
 30
0.0
 10
122.644913
 20
197.419148
 30
0.0
 10
122.166944
 20
196.391085
 30
0.0
  0
SPLINE
  5
15f
100
AcDbEntity
  8
Layer_1
 62
7
100
AcDbSpline
 70
8
 71
3
 72
8
 73
4
 74
0
 40
0
 40
0
 40
0
 40
0
 40
1
 40
1
 40
1
 40
1
 10
122.166944
 20
196.391085
 30
0.0
 10
121.982442
 20
195.994236
 30
0.0
 10
121.438958
 20
195.141448
 30
0.0
 10
120.376047
 20
194.669640
 30
0.0
  0
SPLINE
  5
160
100
AcDbEntity
  8
Layer_1
 62
7
100
AcDbSpline
 70
8
 71
3
 72
8
 73
4
 74
0
 40
0
 40
0
 40
0
 40
0
 40
1
 40
1
 40
1
 40
1
 10
120.376047
 20
194.669640
 30
0.0
 10
118.575712
 20
193.870499
 30
0.0
 10
116.204004
 20
193.706667
 30
0.0
 10
115.323606
 20
193.706667
 30
0.0
  0
SPLINE
  5
161
100
AcDbEntity
  8
Layer_1
 62
7
100
AcDbSpline
 70
8
 71
3
 72
8
 73
4
 74
0
 40
0
 40
0
 40
0
 40
0
 40
1
 40
1
 40
1
 40
1
 10
115.323606
 20
193.706667
 30
0.0
 10
114.398648
 20
193.706667
 30
0.0
 10
114.395910
 20
193.711126
 30
0.0
 10
114.395910
 20
195.112266
 30
0.0
  0
SPLINE
  5
162
100
AcDbEntity
  8
Layer_1
 62
7
100
AcDbSpline
 70
8
 71
3
 72
8
 73
4
 74
0
 40
0
 40
0
 40
0
 40
0
 40
1
 40
1
 40
1
 40
1
 10
114.395910
 20
195.112266
 30
0.0
 10
114.395910
 20
196.416477
 30
0.0
 10
114.451963
 20
196.530633
 30
0.0
 10
115.172022
 20
196.688189
 30
0.0
  0
SPLINE
  5
163
100
AcDbEntity
  8
Layer_1
 62
7
100
AcDbSpline
 70
8
 71
3
 72
8
 73
4
 74
0
 40
0
 40
0
 40
0
 40
0
 40
1
 40
1
 40
1
 40
1
 10
115.172022
 20
196.688189
 30
0.0
 10
117.586303
 20
197.216458
 30
0.0
 10
118.936539
 20
198.048799
 30
0.0
 10
119.470952
 20
199.338984
 30
0.0
  0
SPLINE
  5
164
100
AcDbEntity
  8
Layer_1
 62
7
100
AcDbSpline
 70
8
 71
3
 72
8
 73
4
 74
0
 40
0
 40
0
 40
0
 40
0
 40
1
 40
1
 40
1
 40
1
 10
119.470952
 20
199.338984
 30
0.0
 10
120.585063
 20
202.028697
 30
0.0
 10
117.702751
 20
204.401201
 30
0.0
 10
114.077860
 20
204.472451
 30
0.0
  0
LWPOLYLINE
  5
165
100
AcDbEntity
  8
Layer_1
 62
7
100
AcDbPolyline
 90
2
 70
0
 10
112.663992
 20
204.696798
 30
0.0
 10
112.663992
 20
204.696798
 30
0.0
  0
SPLINE
  5
166
100
AcDbEntity
  8
Layer_1
 62
7
100
AcDbSpline
 70
8
 71
3
 72
8
 73
4
 74
0
 40
0
 40
0
 40
0
 40
0
 40
1
 40
1
 40
1
 40
1
 10
103.143953
 20
170.846667
 30
0.0
 10
109.177410
 20
170.846667
 30
0.0
 10
113.004419
 20
166.702247
 30
0.0
 10
113.047639
 20
160.122222
 30
0.0
  0
SPLINE
  5
167
100
AcDbEntity
  8
Layer_1
 62
7
100
AcDbSpline
 70
8
 71
3
 72
8
 73
4
 74
0
 40
0
 40
0
 40
0
 40
0
 40
1
 40
1
 40
1
 40
1
 10
113.047639
 20
160.122222
 30
0.0
 10
113.085840
 20
154.305738
 30
0.0
 10
110.376281
 20
148.804352
 30
0.0
 10
106.634799
 20
147.101965
 30
0.0
  0
SPLINE
  5
168
100
AcDbEntity
  8
Layer_1
 62
7
100
AcDbSpline
 70
8
 71
3
 72
8
 73
4
 74
0
 40
0
 40
0
 40
0
 40
0
 40
1
 40
1
 40
1
 40
1
 10
106.634799
 20
147.101965
 30
0.0
 10
105.982615
 20
146.805220
 30
0.0
 10
104.839807
 20
146.585202
 30
0.0
 10
103.928333
 20
146.581618
 30
0.0
  0
SPLINE
  5
169
100
AcDbEntity
  8
Layer_1
 62
7
100
AcDbSpline
 70
8
 71
3
 72
8
 73
4
 74
0
 40
0
 40
0
 40
0
 40
0
 40
1
 40
1
 40
1
 40
1
 10
103.928333
 20
146.581618
 30
0.0
 10
97.449420
 20
146.556161
 30
0.0
 10
90.608726
 20
157.281825
 30
0.0
 10
92.849457
 20
163.952618
 30
0.0
  0
SPLINE
  5
16a
100
AcDbEntity
  8
Layer_1
 62
7
100
AcDbSpline
 70
8
 71
3
 72
8
 73
4
 74
0
 40
0
 40
0
 40
0
 40
0
 40
1
 40
1
 40
1
 40
1
 10
92.849457
 20
163.952618
 30
0.0
 10
94.276373
 20
168.200554
 30
0.0
 10
98.228037
 20
170.846667
 30
0.0
 10
103.143953
 20
170.846667
 30
0.0
  0
LWPOLYLINE
  5
16b
100
AcDbEntity
  8
Layer_1
 62
7
100
AcDbPolyline
 90
2
 70
0
 10
114.077860
 20
204.472451
 30
0.0
 10
114.077860
 20
204.472451
 30
0.0
  0
SPLINE
  5
16c
100
AcDbEntity
  8
Layer_1
 62
7
100
AcDbSpline
 70
8
 71
3
 72
8
 73
4
 74
0
 40
0
 40
0
 40
0
 40
0
 40
1
 40
1
 40
1
 40
1
 10
125.117600
 20
170.700594
 30
0.0
 10
127.724947
 20
170.695937
 30
0.0
 10
128.277572
 20
170.604661
 30
0.0
 10
129.685519
 20
169.949287
 30
0.0
  0
SPLINE
  5
16d
100
AcDbEntity
  8
Layer_1
 62
7
100
AcDbSpline
 70
8
 71
3
 72
8
 73
4
 74
0
 40
0
 40
0
 40
0
 40
0
 40
1
 40
1
 40
1
 40
1
 10
129.685519
 20
169.949287
 30
0.0
 10
135.348946
 20
167.313092
 30
0.0
 10
137.053046
 20
161.406407
 30
0.0
 10
134.026893
 20
154.901111
 30
0.0
  0
SPLINE
  5
16e
100
AcDbEntity
  8
Layer_1
 62
7
100
AcDbSpline
 70
8
 71
3
 72
8
 73
4
 74
0
 40
0
 40
0
 40
0
 40
0
 40
1
 40
1
 40
1
 40
1
 10
134.026893
 20
154.901111
 30
0.0
 10
132.332891
 20
151.259536
 30
0.0
 10
129.918234
 20
148.646598
 30
0.0
 10
126.954799
 20
147.247487
 30
0.0
  0
SPLINE
  5
16f
100
AcDbEntity
  8
Layer_1
 62
7
100
AcDbSpline
 70
8
 71
3
 72
8
 73
4
 74
0
 40
0
 40
0
 40
0
 40
0
 40
1
 40
1
 40
1
 40
1
 10
126.954799
 20
147.247487
 30
0.0
 10
125.130210
 20
146.386055
 30
0.0
 10
122.892868
 20
146.351677
 30
0.0
 10
121.260195
 20
147.159843
 30
0.0
  0
SPLINE
  5
170
100
AcDbEntity
  8
Layer_1
 62
7
100
AcDbSpline
 70
8
 71
3
 72
8
 73
4
 74
0
 40
0
 40
0
 40
0
 40
0
 40
1
 40
1
 40
1
 40
1
 10
121.260195
 20
147.159843
 30
0.0
 10
118.688731
 20
148.432705
 30
0.0
 10
116.327005
 20
151.904227
 30
0.0
 10
115.384792
 20
155.796286
 30
0.0
  0
SPLINE
  5
171
100
AcDbEntity
  8
Layer_1
 62
7
100
AcDbSpline
 70
8
 71
3
 72
8
 73
4
 74
0
 40
0
 40
0
 40
0
 40
0
 40
1
 40
1
 40
1
 40
1
 10
115.384792
 20
155.796286
 30
0.0
 10
114.700990
 20
158.620902
 30
0.0
 10
114.880921
 20
163.096740
 30
0.0
 10
115.756312
 20
165.038511
 30
0.0
  0
SPLINE
  5
172
100
AcDbEntity
  8
Layer_1
 62
7
100
AcDbSpline
 70
8
 71
3
 72
8
 73
4
 74
0
 40
0
 40
0
 40
0
 40
0
 40
1
 40
1
 40
1
 40
1
 10
115.756312
 20
165.038511
 30
0.0
 10
116.768431
 20
167.283563
 30
0.0
 10
118.152220
 20
168.740414
 30
0.0
 10
120.256433
 20
169.774552
 30
0.0
  0
SPLINE
  5
173
100
AcDbEntity
  8
Layer_1
 62
7
100
AcDbSpline
 70
8
 71
3
 72
8
 73
4
 74
0
 40
0
 40
0
 40
0
 40
0
 40
1
 40
1
 40
1
 40
1
 10
120.256433
 20
169.774552
 30
0.0
 10
122.038742
 20
170.650491
 30
0.0
 10
122.327797
 20
170.705561
 30
0.0
 10
125.117600
 20
170.700594
 30
0.0
  0
LWPOLYLINE
  5
174
100
AcDbEntity
  8
Layer_1
 62
7
100
AcDbPolyline
 90
2
 70
0
 10
103.143953
 20
170.846667
 30
0.0
 10
103.143953
 20
170.846667
 30
0.0
  0
SPLINE
  5
175
100
AcDbEntity
  8
Layer_1
 62
7
100
AcDbSpline
 70
8
 71
3
 72
8
 73
4
 74
0
 40
0
 40
0
 40
0
 40
0
 40
1
 40
1
 40
1
 40
1
 10
103.127968
 20
169.955903
 30
0.0
 10
102.860876
 20
169.953363
 30
0.0
 10
102.588486
 20
169.942215
 30
0.0
 10
102.311067
 20
169.922279
 30
0.0
  0
SPLINE
  5
176
100
AcDbEntity
  8
Layer_1
 62
7
100
AcDbSpline
 70
8
 71
3
 72
8
 73
4
 74
0
 40
0
 40
0
 40
0
 40
0
 40
1
 40
1
 40
1
 40
1
 10
102.311067
 20
169.922279
 30
0.0
 10
96.074490
 20
169.473989
 30
0.0
 10
92.316325
 20
164.745400
 30
0.0
 10
93.502647
 20
158.839545
 30
0.0
  0
SPLINE
  5
177
100
AcDbEntity
  8
Layer_1
 62
7
100
AcDbSpline
 70
8
 71
3
 72
8
 73
4
 74
0
 40
0
 40
0
 40
0
 40
0
 40
1
 40
1
 40
1
 40
1
 10
93.502647
 20
158.839545
 30
0.0
 10
94.450744
 20
154.119779
 30
0.0
 10
98.526086
 20
148.722685
 30
0.0
 10
101.911438
 20
147.703341
 30
0.0
  0
SPLINE
  5
178
100
AcDbEntity
  8
Layer_1
 62
7
100
AcDbSpline
 70
8
 71
3
 72
8
 73
4
 74
0
 40
0
 40
0
 40
0
 40
0
 40
1
 40
1
 40
1
 40
1
 10
101.911438
 20
147.703341
 30
0.0
 10
104.115949
 20
147.039554
 30
0.0
 10
106.684298
 20
147.676191
 30
0.0
 10
108.300574
 20
149.286983
 30
0.0
  0
SPLINE
  5
179
100
AcDbEntity
  8
Layer_1
 62
7
100
AcDbSpline
 70
8
 71
3
 72
8
 73
4
 74
0
 40
0
 40
0
 40
0
 40
0
 40
1
 40
1
 40
1
 40
1
 10
108.300574
 20
149.286983
 30
0.0
 10
111.726828
 20
152.701595
 30
0.0
 10
113.268066
 20
159.919589
 30
0.0
 10
111.503686
 20
164.287757
 30
0.0
  0
SPLINE
  5
17a
100
AcDbEntity
  8
Layer_1
 62
7
100
AcDbSpline
 70
8
 71
3
 72
8
 73
4
 74
0
 40
0
 40
0
 40
0
 40
0
 40
1
 40
1
 40
1
 40
1
 10
111.503686
 20
164.287757
 30
0.0
 10
109.974013
 20
168.074847
 30
0.0
 10
107.134364
 20
169.993749
 30
0.0
 10
103.127968
 20
169.955903
 30
0.0
  0
LWPOLYLINE
  5
17b
100
AcDbEntity
  8
Layer_1
 62
7
100
AcDbPolyline
 90
2
 70
0
 10
125.117600
 20
170.700594
 30
0.0
 10
125.117600
 20
170.700594
 30
0.0
  0
SPLINE
  5
17c
100
AcDbEntity
  8
Layer_1
 62
7
100
AcDbSpline
 70
8
 71
3
 72
8
 73
4
 74
0
 40
0
 40
0
 40
0
 40
0
 40
1
 40
1
 40
1
 40
1
 10
124.994128
 20
169.852274
 30
0.0
 10
122.479999
 20
169.846262
 30
0.0
 10
121.996446
 20
169.760608
 30
0.0
 10
120.745910
 20
169.100417
 30
0.0
  0
SPLINE
  5
17d
100
AcDbEntity
  8
Layer_1
 62
7
100
AcDbSpline
 70
8
 71
3
 72
8
 73
4
 74
0
 40
0
 40
0
 40
0
 40
0
 40
1
 40
1
 40
1
 40
1
 10
120.745910
 20
169.100417
 30
0.0
 10
117.453754
 20
167.362405
 30
0.0
 10
116.038229
 20
164.877559
 30
0.0
 10
115.862145
 20
160.528467
 30
0.0
  0
SPLINE
  5
17e
100
AcDbEntity
  8
Layer_1
 62
7
100
AcDbSpline
 70
8
 71
3
 72
8
 73
4
 74
0
 40
0
 40
0
 40
0
 40
0
 40
1
 40
1
 40
1
 40
1
 10
115.862145
 20
160.528467
 30
0.0
 10
115.629224
 20
154.775677
 30
0.0
 10
118.096786
 20
149.510813
 30
0.0
 10
121.819678
 20
147.818547
 30
0.0
  0
SPLINE
  5
17f
100
AcDbEntity
  8
Layer_1
 62
7
100
AcDbSpline
 70
8
 71
3
 72
8
 73
4
 74
0
 40
0
 40
0
 40
0
 40
0
 40
1
 40
1
 40
1
 40
1
 10
121.819678
 20
147.818547
 30
0.0
 10
123.176397
 20
147.201841
 30
0.0
 10
125.933567
 20
147.464366
 30
0.0
 10
127.437665
 20
148.353225
 30
0.0
  0
SPLINE
  5
180
100
AcDbEntity
  8
Layer_1
 62
7
100
AcDbSpline
 70
8
 71
3
 72
8
 73
4
 74
0
 40
0
 40
0
 40
0
 40
0
 40
1
 40
1
 40
1
 40
1
 10
127.437665
 20
148.353225
 30
0.0
 10
130.050128
 20
149.897088
 30
0.0
 10
132.220547
 20
152.599978
 30
0.0
 10
133.645453
 20
156.083467
 30
0.0
  0
SPLINE
  5
181
100
AcDbEntity
  8
Layer_1
 62
7
100
AcDbSpline
 70
8
 71
3
 72
8
 73
4
 74
0
 40
0
 40
0
 40
0
 40
0
 40
1
 40
1
 40
1
 40
1
 10
133.645453
 20
156.083467
 30
0.0
 10
134.422910
 20
157.984138
 30
0.0
 10
134.549083
 20
158.638021
 30
0.0
 10
134.561021
 20
160.827778
 30
0.0
  0
SPLINE
  5
182
100
AcDbEntity
  8
Layer_1
 62
7
100
AcDbSpline
 70
8
 71
3
 72
8
 73
4
 74
0
 40
0
 40
0
 40
0
 40
0
 40
1
 40
1
 40
1
 40
1
 10
134.561021
 20
160.827778
 30
0.0
 10
134.573298
 20
163.074851
 30
0.0
 10
134.482806
 20
163.546789
 30
0.0
 10
133.778295
 20
164.920000
 30
0.0
  0
SPLINE
  5
183
100
AcDbEntity
  8
Layer_1
 62
7
100
AcDbSpline
 70
8
 71
3
 72
8
 73
4
 74
0
 40
0
 40
0
 40
0
 40
0
 40
1
 40
1
 40
1
 40
1
 10
133.778295
 20
164.920000
 30
0.0
 10
132.707778
 20
167.006624
 30
0.0
 10
131.906876
 20
167.790273
 30
0.0
 10
129.697096
 20
168.911901
 30
0.0
  0
SPLINE
  5
184
100
AcDbEntity
  8
Layer_1
 62
7
100
AcDbSpline
 70
8
 71
3
 72
8
 73
4
 74
0
 40
0
 40
0
 40
0
 40
0
 40
1
 40
1
 40
1
 40
1
 10
129.697096
 20
168.911901
 30
0.0
 10
127.942758
 20
169.802354
 30
0.0
 10
127.661004
 20
169.858624
 30
0.0
 10
124.994128
 20
169.852274
 30
0.0
  0
LWPOLYLINE
  5
185
100
AcDbEntity
  8
Layer_1
 62
7
100
AcDbPolyline
 90
2
 70
0
 10
103.127968
 20
169.955903
 30
0.0
 10
103.127968
 20
169.955903
 30
0.0
  0
SPLINE
  5
186
100
AcDbEntity
  8
Layer_1
 62
7
100
AcDbSpline
 70
8
 71
3
 72
8
 73
4
 74
0
 40
0
 40
0
 40
0
 40
0
 40
1
 40
1
 40
1
 40
1
 10
145.312474
 20
157.618603
 30
0.0
 10
145.336125
 20
157.624304
 30
0.0
 10
145.302599
 20
157.557291
 30
0.0
 10
145.225381
 20
157.420165
 30
0.0
  0
SPLINE
  5
187
100
AcDbEntity
  8
Layer_1
 62
7
100
AcDbSpline
 70
8
 71
3
 72
8
 73
4
 74
0
 40
0
 40
0
 40
0
 40
0
 40
1
 40
1
 40
1
 40
1
 10
145.225381
 20
157.420165
 30
0.0
 10
144.910525
 20
156.860950
 30
0.0
 10
144.720276
 20
156.384937
 30
0.0
 10
144.632827
 20
155.938498
 30
0.0
  0
SPLINE
  5
188
100
AcDbEntity
  8
Layer_1
 62
7
100
AcDbSpline
 70
8
 71
3
 72
8
 73
4
 74
0
 40
0
 40
0
 40
0
 40
0
 40
1
 40
1
 40
1
 40
1
 10
144.632827
 20
155.938498
 30
0.0
 10
144.534165
 20
155.434819
 30
0.0
 10
144.584380
 20
155.015747
 30
0.0
 10
144.801497
 20
154.532899
 30
0.0
  0
SPLINE
  5
189
100
AcDbEntity
  8
Layer_1
 62
7
100
AcDbSpline
 70
8
 71
3
 72
8
 73
4
 74
0
 40
0
 40
0
 40
0
 40
0
 40
1
 40
1
 40
1
 40
1
 10
144.801497
 20
154.532899
 30
0.0
 10
145.015071
 20
154.057919
 30
0.0
 10
145.393915
 20
153.635192
 30
0.0
 10
145.872508
 20
153.337865
 30
0.0
  0
SPLINE
  5
18a
100
AcDbEntity
  8
Layer_1
 62
7
100
AcDbSpline
 70
8
 71
3
 72
8
 73
4
 74
0
 40
0
 40
0
 40
0
 40
0
 40
1
 40
1
 40
1
 40
1
 10
145.872508
 20
153.337865
 30
0.0
 10
146.036496
 20
153.235986
 30
0.0
 10
146.113525
 20
153.172040
 30
0.0
 10
146.095751
 20
153.153207
 30
0.0
  0
SPLINE
  5
18b
100
AcDbEntity
  8
Layer_1
 62
7
100
AcDbSpline
 70
8
 71
3
 72
8
 73
4
 74
0
 40
0
 40
0
 40
0
 40
0
 40
1
 40
1
 40
1
 40
1
 10
146.095751
 20
153.153207
 30
0.0
 10
146.050395
 20
153.105134
 30
0.0
 10
145.662551
 20
152.803771
 30
0.0
 10
145.611232
 20
152.776728
 30
0.0
  0
SPLINE
  5
18c
100
AcDbEntity
  8
Layer_1
 62
7
100
AcDbSpline
 70
8
 71
3
 72
8
 73
4
 74
0
 40
0
 40
0
 40
0
 40
0
 40
1
 40
1
 40
1
 40
1
 10
145.611232
 20
152.776728
 30
0.0
 10
145.509206
 20
152.722968
 30
0.0
 10
144.975936
 20
153.086352
 30
0.0
 10
144.654874
 20
153.428264
 30
0.0
  0
SPLINE
  5
18d
100
AcDbEntity
  8
Layer_1
 62
7
100
AcDbSpline
 70
8
 71
3
 72
8
 73
4
 74
0
 40
0
 40
0
 40
0
 40
0
 40
1
 40
1
 40
1
 40
1
 10
144.654874
 20
153.428264
 30
0.0
 10
144.466005
 20
153.629398
 30
0.0
 10
144.092699
 20
154.335481
 30
0.0
 10
144.036963
 20
154.596842
 30
0.0
  0
SPLINE
  5
18e
100
AcDbEntity
  8
Layer_1
 62
7
100
AcDbSpline
 70
8
 71
3
 72
8
 73
4
 74
0
 40
0
 40
0
 40
0
 40
0
 40
1
 40
1
 40
1
 40
1
 10
144.036963
 20
154.596842
 30
0.0
 10
144.015119
 20
154.699336
 30
0.0
 10
143.984424
 20
154.786752
 30
0.0
 10
143.968611
 20
154.790869
 30
0.0
  0
SPLINE
  5
18f
100
AcDbEntity
  8
Layer_1
 62
7
100
AcDbSpline
 70
8
 71
3
 72
8
 73
4
 74
0
 40
0
 40
0
 40
0
 40
0
 40
1
 40
1
 40
1
 40
1
 10
143.968611
 20
154.790869
 30
0.0
 10
143.892803
 20
154.810566
 30
0.0
 10
143.308589
 20
154.684280
 30
0.0
 10
143.091628
 20
154.601250
 30
0.0
  0
SPLINE
  5
190
100
AcDbEntity
  8
Layer_1
 62
7
100
AcDbSpline
 70
8
 71
3
 72
8
 73
4
 74
0
 40
0
 40
0
 40
0
 40
0
 40
1
 40
1
 40
1
 40
1
 10
143.091628
 20
154.601250
 30
0.0
 10
142.508224
 20
154.377984
 30
0.0
 10
141.845609
 20
153.954058
 30
0.0
 10
141.234583
 20
153.413382
 30
0.0
  0
SPLINE
  5
191
100
AcDbEntity
  8
Layer_1
 62
7
100
AcDbSpline
 70
8
 71
3
 72
8
 73
4
 74
0
 40
0
 40
0
 40
0
 40
0
 40
1
 40
1
 40
1
 40
1
 10
141.234583
 20
153.413382
 30
0.0
 10
141.024618
 20
153.227590
 30
0.0
 10
140.843802
 20
153.070838
 30
0.0
 10
140.832747
 20
153.065013
 30
0.0
  0
SPLINE
  5
192
100
AcDbEntity
  8
Layer_1
 62
7
100
AcDbSpline
 70
8
 71
3
 72
8
 73
4
 74
0
 40
0
 40
0
 40
0
 40
0
 40
1
 40
1
 40
1
 40
1
 10
140.832747
 20
153.065013
 30
0.0
 10
140.821684
 20
153.059199
 30
0.0
 10
140.843641
 20
153.117272
 30
0.0
 10
140.881806
 20
153.194547
 30
0.0
  0
SPLINE
  5
193
100
AcDbEntity
  8
Layer_1
 62
7
100
AcDbSpline
 70
8
 71
3
 72
8
 73
4
 74
0
 40
0
 40
0
 40
0
 40
0
 40
1
 40
1
 40
1
 40
1
 10
140.881806
 20
153.194547
 30
0.0
 10
140.919990
 20
153.271828
 30
0.0
 10
140.956199
 20
153.337967
 30
0.0
 10
140.962284
 20
153.341173
 30
0.0
  0
SPLINE
  5
194
100
AcDbEntity
  8
Layer_1
 62
7
100
AcDbSpline
 70
8
 71
3
 72
8
 73
4
 74
0
 40
0
 40
0
 40
0
 40
0
 40
1
 40
1
 40
1
 40
1
 10
140.962284
 20
153.341173
 30
0.0
 10
140.968380
 20
153.344362
 30
0.0
 10
141.015218
 20
153.425758
 30
0.0
 10
141.066464
 20
153.521970
 30
0.0
  0
SPLINE
  5
195
100
AcDbEntity
  8
Layer_1
 62
7
100
AcDbSpline
 70
8
 71
3
 72
8
 73
4
 74
0
 40
0
 40
0
 40
0
 40
0
 40
1
 40
1
 40
1
 40
1
 10
141.066464
 20
153.521970
 30
0.0
 10
141.164220
 20
153.705502
 30
0.0
 10
141.336700
 20
153.943458
 30
0.0
 10
141.607204
 20
154.267765
 30
0.0
  0
SPLINE
  5
196
100
AcDbEntity
  8
Layer_1
 62
7
100
AcDbSpline
 70
8
 71
3
 72
8
 73
4
 74
0
 40
0
 40
0
 40
0
 40
0
 40
1
 40
1
 40
1
 40
1
 10
141.607204
 20
154.267765
 30
0.0
 10
142.176294
 20
154.950051
 30
0.0
 10
143.052769
 20
155.516821
 30
0.0
 10
143.893647
 20
155.747227
 30
0.0
  0
LWPOLYLINE
  5
197
100
AcDbEntity
  8
Layer_1
 62
7
100
AcDbPolyline
 90
2
 70
0
 10
124.994128
 20
169.852274
 30
0.0
 10
124.994128
 20
169.852274
 30
0.0
  0
SPLINE
  5
198
100
AcDbEntity
  8
Layer_1
 62
7
100
AcDbSpline
 70
8
 71
3
 72
8
 73
4
 74
0
 40
0
 40
0
 40
0
 40
0
 40
1
 40
1
 40
1
 40
1
 10
144.167047
 20
156.059766
 30
0.0
 10
144.370908
 20
156.523293
 30
0.0
 10
144.706504
 20
157.021235
 30
0.0
 10
145.056710
 20
157.379375
 30
0.0
  0
SPLINE
  5
199
100
AcDbEntity
  8
Layer_1
 62
7
100
AcDbSpline
 70
8
 71
3
 72
8
 73
4
 74
0
 40
0
 40
0
 40
0
 40
0
 40
1
 40
1
 40
1
 40
1
 10
145.056710
 20
157.379375
 30
0.0
 10
145.208354
 20
157.534456
 30
0.0
 10
145.288824
 20
157.612897
 30
0.0
 10
145.312474
 20
157.618603
 30
0.0
  0
LWPOLYLINE
  5
19a
100
AcDbEntity
  8
Layer_1
 62
7
100
AcDbPolyline
 90
3
 70
0
 10
143.893647
 20
155.747227
 30
0.0
 10
144.047986
 20
155.789671
 30
0.0
 10
144.167047
 20
156.059766
 30
0.0
  0
SPLINE
  5
19b
100
AcDbEntity
  8
Layer_1
 62
7
100
AcDbSpline
 70
8
 71
3
 72
8
 73
4
 74
0
 40
0
 40
0
 40
0
 40
0
 40
1
 40
1
 40
1
 40
1
 10
146.549951
 20
157.496232
 30
0.0
 10
147.407932
 20
157.484153
 30
0.0
 10
148.413405
 20
157.281715
 30
0.0
 10
149.011129
 20
157.001242
 30
0.0
  0
LWPOLYLINE
  5
19c
100
AcDbEntity
  8
Layer_1
 62
7
100
AcDbPolyline
 90
2
 70
0
 10
145.312474
 20
157.618603
 30
0.0
 10
145.312474
 20
157.618603
 30
0.0
  0
SPLINE
  5
19d
100
AcDbEntity
  8
Layer_1
 62
7
100
AcDbSpline
 70
8
 71
3
 72
8
 73
4
 74
0
 40
0
 40
0
 40
0
 40
0
 40
1
 40
1
 40
1
 40
1
 10
149.151137
 20
156.607675
 30
0.0
 10
148.809927
 20
155.334133
 30
0.0
 10
148.065936
 20
153.929440
 30
0.0
 10
147.245586
 20
153.009892
 30
0.0
  0
SPLINE
  5
19e
100
AcDbEntity
  8
Layer_1
 62
7
100
AcDbSpline
 70
8
 71
3
 72
8
 73
4
 74
0
 40
0
 40
0
 40
0
 40
0
 40
1
 40
1
 40
1
 40
1
 10
147.245586
 20
153.009892
 30
0.0
 10
146.793670
 20
152.503337
 30
0.0
 10
146.291721
 20
152.083873
 30
0.0
 10
145.736908
 20
151.749262
 30
0.0
  0
SPLINE
  5
19f
100
AcDbEntity
  8
Layer_1
 62
7
100
AcDbSpline
 70
8
 71
3
 72
8
 73
4
 74
0
 40
0
 40
0
 40
0
 40
0
 40
1
 40
1
 40
1
 40
1
 10
145.736908
 20
151.749262
 30
0.0
 10
145.480972
 20
151.594909
 30
0.0
 10
145.408272
 20
151.535910
 30
0.0
 10
145.263966
 20
151.364514
 30
0.0
  0
SPLINE
  5
1a0
100
AcDbEntity
  8
Layer_1
 62
7
100
AcDbSpline
 70
8
 71
3
 72
8
 73
4
 74
0
 40
0
 40
0
 40
0
 40
0
 40
1
 40
1
 40
1
 40
1
 10
145.263966
 20
151.364514
 30
0.0
 10
144.899970
 20
150.932189
 30
0.0
 10
144.553384
 20
150.657522
 30
0.0
 10
144.016566
 20
150.375633
 30
0.0
  0
SPLINE
  5
1a1
100
AcDbEntity
  8
Layer_1
 62
7
100
AcDbSpline
 70
8
 71
3
 72
8
 73
4
 74
0
 40
0
 40
0
 40
0
 40
0
 40
1
 40
1
 40
1
 40
1
 10
144.016566
 20
150.375633
 30
0.0
 10
143.466185
 20
150.086719
 30
0.0
 10
143.037777
 20
149.942873
 30
0.0
 10
142.503480
 20
149.867966
 30
0.0
  0
LWPOLYLINE
  5
1a2
100
AcDbEntity
  8
Layer_1
 62
7
100
AcDbPolyline
 90
3
 70
0
 10
149.011129
 20
157.001242
 30
0.0
 10
149.229408
 20
156.899267
 30
0.0
 10
149.151137
 20
156.607675
 30
0.0
  0
SPLINE
  5
1a3
100
AcDbEntity
  8
Layer_1
 62
7
100
AcDbSpline
 70
8
 71
3
 72
8
 73
4
 74
0
 40
0
 40
0
 40
0
 40
0
 40
1
 40
1
 40
1
 40
1
 10
142.383868
 20
149.955057
 30
0.0
 10
142.596066
 20
150.128841
 30
0.0
 10
142.744348
 20
150.286146
 30
0.0
 10
142.896497
 20
150.499105
 30
0.0
  0
SPLINE
  5
1a4
100
AcDbEntity
  8
Layer_1
 62
7
100
AcDbSpline
 70
8
 71
3
 72
8
 73
4
 74
0
 40
0
 40
0
 40
0
 40
0
 40
1
 40
1
 40
1
 40
1
 10
142.896497
 20
150.499105
 30
0.0
 10
143.012953
 20
150.662102
 30
0.0
 10
143.123632
 20
150.925029
 30
0.0
 10
143.080051
 20
150.935669
 30
0.0
  0
SPLINE
  5
1a5
100
AcDbEntity
  8
Layer_1
 62
7
100
AcDbSpline
 70
8
 71
3
 72
8
 73
4
 74
0
 40
0
 40
0
 40
0
 40
0
 40
1
 40
1
 40
1
 40
1
 10
143.080051
 20
150.935669
 30
0.0
 10
143.070710
 20
150.937927
 30
0.0
 10
142.919969
 20
150.929784
 30
0.0
 10
142.745466
 20
150.917480
 30
0.0
  0
SPLINE
  5
1a6
100
AcDbEntity
  8
Layer_1
 62
7
100
AcDbSpline
 70
8
 71
3
 72
8
 73
4
 74
0
 40
0
 40
0
 40
0
 40
0
 40
1
 40
1
 40
1
 40
1
 10
142.745466
 20
150.917480
 30
0.0
 10
142.229422
 20
150.880980
 30
0.0
 10
141.469401
 20
150.916633
 30
0.0
 10
140.845424
 20
151.006224
 30
0.0
  0
SPLINE
  5
1a7
100
AcDbEntity
  8
Layer_1
 62
7
100
AcDbSpline
 70
8
 71
3
 72
8
 73
4
 74
0
 40
0
 40
0
 40
0
 40
0
 40
1
 40
1
 40
1
 40
1
 10
140.845424
 20
151.006224
 30
0.0
 10
140.701130
 20
151.026939
 30
0.0
 10
140.573684
 20
151.046966
 30
0.0
 10
140.562101
 20
151.050872
 30
0.0
  0
SPLINE
  5
1a8
100
AcDbEntity
  8
Layer_1
 62
7
100
AcDbSpline
 70
8
 71
3
 72
8
 73
4
 74
0
 40
0
 40
0
 40
0
 40
0
 40
1
 40
1
 40
1
 40
1
 10
140.562101
 20
151.050872
 30
0.0
 10
140.484852
 20
151.076921
 30
0.0
 10
140.215654
 20
151.111750
 30
0.0
 10
140.191132
 20
151.098827
 30
0.0
  0
SPLINE
  5
1a9
100
AcDbEntity
  8
Layer_1
 62
7
100
AcDbSpline
 70
8
 71
3
 72
8
 73
4
 74
0
 40
0
 40
0
 40
0
 40
0
 40
1
 40
1
 40
1
 40
1
 10
140.191132
 20
151.098827
 30
0.0
 10
140.174706
 20
151.090191
 30
0.0
 10
140.132003
 20
150.999022
 30
0.0
 10
140.096325
 20
150.896533
 30
0.0
  0
SPLINE
  5
1aa
100
AcDbEntity
  8
Layer_1
 62
7
100
AcDbSpline
 70
8
 71
3
 72
8
 73
4
 74
0
 40
0
 40
0
 40
0
 40
0
 40
1
 40
1
 40
1
 40
1
 10
140.096325
 20
150.896533
 30
0.0
 10
139.967301
 20
150.525891
 30
0.0
 10
139.652034
 20
149.953284
 30
0.0
 10
139.344465
 20
149.530620
 30
0.0
  0
SPLINE
  5
1ab
100
AcDbEntity
  8
Layer_1
 62
7
100
AcDbSpline
 70
8
 71
3
 72
8
 73
4
 74
0
 40
0
 40
0
 40
0
 40
0
 40
1
 40
1
 40
1
 40
1
 10
139.344465
 20
149.530620
 30
0.0
 10
139.071607
 20
149.155651
 30
0.0
 10
138.794603
 20
148.823523
 30
0.0
 10
138.762935
 20
148.833333
 30
0.0
  0
SPLINE
  5
1ac
100
AcDbEntity
  8
Layer_1
 62
7
100
AcDbSpline
 70
8
 71
3
 72
8
 73
4
 74
0
 40
0
 40
0
 40
0
 40
0
 40
1
 40
1
 40
1
 40
1
 10
138.762935
 20
148.833333
 30
0.0
 10
138.756613
 20
148.835309
 30
0.0
 10
138.788448
 20
149.019016
 30
0.0
 10
138.833490
 20
149.241785
 30
0.0
  0
SPLINE
  5
1ad
100
AcDbEntity
  8
Layer_1
 62
7
100
AcDbSpline
 70
8
 71
3
 72
8
 73
4
 74
0
 40
0
 40
0
 40
0
 40
0
 40
1
 40
1
 40
1
 40
1
 10
138.833490
 20
149.241785
 30
0.0
 10
138.974316
 20
149.938374
 30
0.0
 10
139.034111
 20
150.594050
 30
0.0
 10
138.983421
 20
150.888814
 30
0.0
  0
SPLINE
  5
1ae
100
AcDbEntity
  8
Layer_1
 62
7
100
AcDbSpline
 70
8
 71
3
 72
8
 73
4
 74
0
 40
0
 40
0
 40
0
 40
0
 40
1
 40
1
 40
1
 40
1
 10
138.983421
 20
150.888814
 30
0.0
 10
138.958670
 20
151.032717
 30
0.0
 10
138.914288
 20
151.075442
 30
0.0
 10
138.574419
 20
151.286242
 30
0.0
  0
SPLINE
  5
1af
100
AcDbEntity
  8
Layer_1
 62
7
100
AcDbSpline
 70
8
 71
3
 72
8
 73
4
 74
0
 40
0
 40
0
 40
0
 40
0
 40
1
 40
1
 40
1
 40
1
 10
138.574419
 20
151.286242
 30
0.0
 10
138.324804
 20
151.441064
 30
0.0
 10
137.433648
 20
151.869209
 30
0.0
 10
137.085586
 20
152.001718
 30
0.0
  0
SPLINE
  5
1b0
100
AcDbEntity
  8
Layer_1
 62
7
100
AcDbSpline
 70
8
 71
3
 72
8
 73
4
 74
0
 40
0
 40
0
 40
0
 40
0
 40
1
 40
1
 40
1
 40
1
 10
137.085586
 20
152.001718
 30
0.0
 10
136.963664
 20
152.048135
 30
0.0
 10
136.862055
 20
152.090195
 30
0.0
 10
136.859589
 20
152.094874
 30
0.0
  0
SPLINE
  5
1b1
100
AcDbEntity
  8
Layer_1
 62
7
100
AcDbSpline
 70
8
 71
3
 72
8
 73
4
 74
0
 40
0
 40
0
 40
0
 40
0
 40
1
 40
1
 40
1
 40
1
 10
136.859589
 20
152.094874
 30
0.0
 10
136.854113
 20
152.105232
 30
0.0
 10
137.398433
 20
152.169996
 30
0.0
 10
137.739879
 20
152.199604
 30
0.0
  0
SPLINE
  5
1b2
100
AcDbEntity
  8
Layer_1
 62
7
100
AcDbSpline
 70
8
 71
3
 72
8
 73
4
 74
0
 40
0
 40
0
 40
0
 40
0
 40
1
 40
1
 40
1
 40
1
 10
137.739879
 20
152.199604
 30
0.0
 10
138.310281
 20
152.249069
 30
0.0
 10
139.207308
 20
152.197910
 30
0.0
 10
139.487230
 20
152.099835
 30
0.0
  0
SPLINE
  5
1b3
100
AcDbEntity
  8
Layer_1
 62
7
100
AcDbSpline
 70
8
 71
3
 72
8
 73
4
 74
0
 40
0
 40
0
 40
0
 40
0
 40
1
 40
1
 40
1
 40
1
 10
139.487230
 20
152.099835
 30
0.0
 10
139.543869
 20
152.080023
 30
0.0
 10
139.598022
 20
152.067885
 30
0.0
 10
139.607397
 20
152.072827
 30
0.0
  0
SPLINE
  5
1b4
100
AcDbEntity
  8
Layer_1
 62
7
100
AcDbSpline
 70
8
 71
3
 72
8
 73
4
 74
0
 40
0
 40
0
 40
0
 40
0
 40
1
 40
1
 40
1
 40
1
 10
139.607397
 20
152.072827
 30
0.0
 10
139.616767
 20
152.077766
 30
0.0
 10
139.685271
 20
152.274703
 30
0.0
 10
139.760082
 20
152.510491
 30
0.0
  0
SPLINE
  5
1b5
100
AcDbEntity
  8
Layer_1
 62
7
100
AcDbSpline
 70
8
 71
3
 72
8
 73
4
 74
0
 40
0
 40
0
 40
0
 40
0
 40
1
 40
1
 40
1
 40
1
 10
139.760082
 20
152.510491
 30
0.0
 10
139.834897
 20
152.746277
 30
0.0
 10
139.933717
 20
153.030686
 30
0.0
 10
139.979465
 20
153.142734
 30
0.0
  0
SPLINE
  5
1b6
100
AcDbEntity
  8
Layer_1
 62
7
100
AcDbSpline
 70
8
 71
3
 72
8
 73
4
 74
0
 40
0
 40
0
 40
0
 40
0
 40
1
 40
1
 40
1
 40
1
 10
139.979465
 20
153.142734
 30
0.0
 10
140.094171
 20
153.423683
 30
0.0
 10
140.202550
 20
153.665771
 30
0.0
 10
140.212078
 20
153.662531
 30
0.0
  0
SPLINE
  5
1b7
100
AcDbEntity
  8
Layer_1
 62
7
100
AcDbSpline
 70
8
 71
3
 72
8
 73
4
 74
0
 40
0
 40
0
 40
0
 40
0
 40
1
 40
1
 40
1
 40
1
 10
140.212078
 20
153.662531
 30
0.0
 10
140.216453
 20
153.660838
 30
0.0
 10
140.226762
 20
153.472911
 30
0.0
 10
140.235229
 20
153.244159
 30
0.0
  0
SPLINE
  5
1b8
100
AcDbEntity
  8
Layer_1
 62
7
100
AcDbSpline
 70
8
 71
3
 72
8
 73
4
 74
0
 40
0
 40
0
 40
0
 40
0
 40
1
 40
1
 40
1
 40
1
 10
140.235229
 20
153.244159
 30
0.0
 10
140.249509
 20
152.858878
 30
0.0
 10
140.335471
 20
152.206575
 30
0.0
 10
140.401147
 20
151.982425
 30
0.0
  0
SPLINE
  5
1b9
100
AcDbEntity
  8
Layer_1
 62
7
100
AcDbSpline
 70
8
 71
3
 72
8
 73
4
 74
0
 40
0
 40
0
 40
0
 40
0
 40
1
 40
1
 40
1
 40
1
 10
140.401147
 20
151.982425
 30
0.0
 10
140.428495
 20
151.889075
 30
0.0
 10
140.438971
 20
151.884872
 30
0.0
 10
140.854797
 20
151.822022
 30
0.0
  0
SPLINE
  5
1ba
100
AcDbEntity
  8
Layer_1
 62
7
100
AcDbSpline
 70
8
 71
3
 72
8
 73
4
 74
0
 40
0
 40
0
 40
0
 40
0
 40
1
 40
1
 40
1
 40
1
 10
140.854797
 20
151.822022
 30
0.0
 10
142.180877
 20
151.621584
 30
0.0
 10
143.352359
 20
151.689741
 30
0.0
 10
144.390841
 20
152.027076
 30
0.0
  0
SPLINE
  5
1bb
100
AcDbEntity
  8
Layer_1
 62
7
100
AcDbSpline
 70
8
 71
3
 72
8
 73
4
 74
0
 40
0
 40
0
 40
0
 40
0
 40
1
 40
1
 40
1
 40
1
 10
144.390841
 20
152.027076
 30
0.0
 10
144.698150
 20
152.126898
 30
0.0
 10
144.822768
 20
152.184463
 30
0.0
 10
145.257904
 20
152.428359
 30
0.0
  0
SPLINE
  5
1bc
100
AcDbEntity
  8
Layer_1
 62
7
100
AcDbSpline
 70
8
 71
3
 72
8
 73
4
 74
0
 40
0
 40
0
 40
0
 40
0
 40
1
 40
1
 40
1
 40
1
 10
145.257904
 20
152.428359
 30
0.0
 10
145.773577
 20
152.717403
 30
0.0
 10
145.966815
 20
152.859222
 30
0.0
 10
146.344349
 20
153.226520
 30
0.0
  0
SPLINE
  5
1bd
100
AcDbEntity
  8
Layer_1
 62
7
100
AcDbSpline
 70
8
 71
3
 72
8
 73
4
 74
0
 40
0
 40
0
 40
0
 40
0
 40
1
 40
1
 40
1
 40
1
 10
146.344349
 20
153.226520
 30
0.0
 10
147.046112
 20
153.909258
 30
0.0
 10
147.743982
 20
155.035384
 30
0.0
 10
148.160605
 20
156.155676
 30
0.0
  0
LWPOLYLINE
  5
1be
100
AcDbEntity
  8
Layer_1
 62
7
100
AcDbPolyline
 90
3
 70
0
 10
142.503480
 20
149.867966
 30
0.0
 10
142.230630
 20
149.829380
 30
0.0
 10
142.383868
 20
149.955057
 30
0.0
  0
SPLINE
  5
1bf
100
AcDbEntity
  8
Layer_1
 62
7
100
AcDbSpline
 70
8
 71
3
 72
8
 73
4
 74
0
 40
0
 40
0
 40
0
 40
0
 40
1
 40
1
 40
1
 40
1
 10
148.133593
 20
156.414198
 30
0.0
 10
147.850970
 20
156.679176
 30
0.0
 10
147.172821
 20
157.081574
 30
0.0
 10
146.568143
 20
157.342994
 30
0.0
  0
SPLINE
  5
1c0
100
AcDbEntity
  8
Layer_1
 62
7
100
AcDbSpline
 70
8
 71
3
 72
8
 73
4
 74
0
 40
0
 40
0
 40
0
 40
0
 40
1
 40
1
 40
1
 40
1
 10
146.568143
 20
157.342994
 30
0.0
 10
146.394351
 20
157.418130
 30
0.0
 10
146.261195
 20
157.484116
 30
0.0
 10
146.272140
 20
157.489619
 30
0.0
  0
SPLINE
  5
1c1
100
AcDbEntity
  8
Layer_1
 62
7
100
AcDbSpline
 70
8
 71
3
 72
8
 73
4
 74
0
 40
0
 40
0
 40
0
 40
0
 40
1
 40
1
 40
1
 40
1
 10
146.272140
 20
157.489619
 30
0.0
 10
146.283062
 20
157.495151
 30
0.0
 10
146.408084
 20
157.498236
 30
0.0
 10
146.549951
 20
157.496232
 30
0.0
  0
LWPOLYLINE
  5
1c2
100
AcDbEntity
  8
Layer_1
 62
7
100
AcDbPolyline
 90
3
 70
0
 10
148.160605
 20
156.155676
 30
0.0
 10
148.225095
 20
156.328758
 30
0.0
 10
148.133593
 20
156.414198
 30
0.0
  0
SPLINE
  5
1c3
100
AcDbEntity
  8
Layer_1
 62
7
100
AcDbSpline
 70
8
 71
3
 72
8
 73
4
 74
0
 40
0
 40
0
 40
0
 40
0
 40
1
 40
1
 40
1
 40
1
 10
146.700435
 20
155.507449
 30
0.0
 10
147.073535
 20
155.514674
 30
0.0
 10
147.295687
 20
155.082876
 30
0.0
 10
147.069198
 20
154.790869
 30
0.0
  0
SPLINE
  5
1c4
100
AcDbEntity
  8
Layer_1
 62
7
100
AcDbSpline
 70
8
 71
3
 72
8
 73
4
 74
0
 40
0
 40
0
 40
0
 40
0
 40
1
 40
1
 40
1
 40
1
 10
147.069198
 20
154.790869
 30
0.0
 10
146.967742
 20
154.660057
 30
0.0
 10
146.941859
 20
154.643914
 30
0.0
 10
146.783668
 20
154.609519
 30
0.0
  0
SPLINE
  5
1c5
100
AcDbEntity
  8
Layer_1
 62
7
100
AcDbSpline
 70
8
 71
3
 72
8
 73
4
 74
0
 40
0
 40
0
 40
0
 40
0
 40
1
 40
1
 40
1
 40
1
 10
146.783668
 20
154.609519
 30
0.0
 10
146.519350
 20
154.552045
 30
0.0
 10
146.237319
 20
154.819792
 30
0.0
 10
146.266628
 20
155.100651
 30
0.0
  0
SPLINE
  5
1c6
100
AcDbEntity
  8
Layer_1
 62
7
100
AcDbSpline
 70
8
 71
3
 72
8
 73
4
 74
0
 40
0
 40
0
 40
0
 40
0
 40
1
 40
1
 40
1
 40
1
 10
146.266628
 20
155.100651
 30
0.0
 10
146.281614
 20
155.244276
 30
0.0
 10
146.382328
 20
155.400348
 30
0.0
 10
146.499792
 20
155.462248
 30
0.0
  0
SPLINE
  5
1c7
100
AcDbEntity
  8
Layer_1
 62
7
100
AcDbSpline
 70
8
 71
3
 72
8
 73
4
 74
0
 40
0
 40
0
 40
0
 40
0
 40
1
 40
1
 40
1
 40
1
 10
146.499792
 20
155.462248
 30
0.0
 10
146.544530
 20
155.485813
 30
0.0
 10
146.634801
 20
155.506173
 30
0.0
 10
146.700435
 20
155.507449
 30
0.0
  0
LWPOLYLINE
  5
1c8
100
AcDbEntity
  8
Layer_1
 62
7
100
AcDbPolyline
 90
2
 70
0
 10
146.549951
 20
157.496232
 30
0.0
 10
146.549951
 20
157.496232
 30
0.0
  0
LWPOLYLINE
  5
1c9
100
AcDbEntity
  8
Layer_1
 62
7
100
AcDbPolyline
 90
2
 70
0
 10
146.700435
 20
155.507449
 30
0.0
 10
146.700435
 20
155.507449
 30
0.0
  0
ENDSEC
  0
SECTION
  2
OBJECTS
  0
DICTIONARY
  5
C
330
0
100
AcDbDictionary
  3
ACAD_GROUP
350
D
  3
ACAD_MLINESTYLE
350
17
  0
DICTIONARY
  5
D
330
C
100
AcDbDictionary
  0
DICTIONARY
  5
1A
330
C
100
AcDbDictionary
  0
DICTIONARY
  5
17
330
C
100
AcDbDictionary
  3
STANDARD
350
18
  0
DICTIONARY
  5
19
330
C
100
AcDbDictionary
  0
ENDSEC
  0
EOF
