<?xml version="1.0" encoding="UTF-8" standalone="no"?>
<!-- Created with Inkscape (http://www.inkscape.org/) -->

<svg
   xmlns:dc="http://purl.org/dc/elements/1.1/"
   xmlns:cc="http://creativecommons.org/ns#"
   xmlns:rdf="http://www.w3.org/1999/02/22-rdf-syntax-ns#"
   xmlns:svg="http://www.w3.org/2000/svg"
   xmlns="http://www.w3.org/2000/svg"
   xmlns:sodipodi="http://sodipodi.sourceforge.net/DTD/sodipodi-0.dtd"
   xmlns:inkscape="http://www.inkscape.org/namespaces/inkscape"
   width="210mm"
   height="297mm"
   viewBox="0 0 744.09448819 1052.3622047"
   id="svg2"
   version="1.1"
   inkscape:version="0.91 r13725"
   sodipodi:docname="bear.svg">
  <defs
     id="defs4" />
  <sodipodi:namedview
     id="base"
     pagecolor="#ffffff"
     bordercolor="#666666"
     borderopacity="1.0"
     inkscape:pageopacity="0.0"
     inkscape:pageshadow="2"
     inkscape:zoom="1.4"
     inkscape:cx="456.83827"
     inkscape:cy="603.83303"
     inkscape:document-units="mm"
     inkscape:current-layer="layer1"
     showgrid="false"
     inkscape:window-width="1440"
     inkscape:window-height="837"
     inkscape:window-x="-4"
     inkscape:window-y="-4"
     inkscape:window-maximized="1" />
  <metadata
     id="metadata7">
    <rdf:RDF>
      <cc:Work
         rdf:about="">
        <dc:format>image/svg+xml</dc:format>
        <dc:type
           rdf:resource="http://purl.org/dc/dcmitype/StillImage" />
        <dc:title></dc:title>
      </cc:Work>
    </rdf:RDF>
  </metadata>
  <g
     inkscape:label="Layer 1"
     inkscape:groupmode="layer"
     id="layer1">
    <path
       style="fill:#ff0000"
       d="M 341.33984 257 C 331.36854 257 319.96738 265.03588 316.39648 274.58008 C 312.60838 284.70453 314.1987 292.90379 321.3457 300.08203 L 325.9082 304.66406 L 323.66211 309.78711 C 319.49941 319.28515 318.18517 326.61191 318.20117 340.24414 C 318.21787 354.94037 319.42499 359.82099 324.87109 367.24414 C 328.56179 372.27464 336.34044 378.59363 340.08984 379.60742 C 343.20421 380.44948 342.90357 381.52264 339.11523 383.0918 C 335.10433 384.7532 326.38051 391.75974 320.00781 398.4375 C 304.64031 414.54075 282.04249 457.8372 275.30859 484.07812 C 272.18749 496.24072 272.76935 509.40778 276.74805 516.67969 C 279.99095 522.60705 285.03244 527.01851 292.58594 530.53516 C 301.72494 534.78999 311.63843 533.5007 320.89453 526.85352 L 325.35156 523.65234 L 329.5957 525.76172 C 340.42865 531.52336 334.65464 533.02343 334.37305 533.91992 C 334.1152 534.74082 330.80078 535.66992 330.80078 535.66992 C 325.06479 535.62442 320.44727 540.28727 320.44727 546.02344 L 320.44727 567.23633 C 320.44727 572.97249 325.06461 577.58984 330.80078 577.58984 L 477.77734 577.58984 C 483.51351 577.58984 488.13281 572.97249 488.13281 567.23633 L 488.13281 546.02344 C 488.13281 540.28727 483.51351 535.66992 477.77734 535.66992 C 477.77734 535.66992 471.2532 534.31198 470.9707 532.83789 C 470.66969 531.65699 466.50308 531.10447 476.63477 526.72656 L 483.43164 523.69141 L 486.44336 525.91797 C 492.34648 530.28234 499.58752 532.98003 505.42969 532.99023 C 515.50125 533.00783 527.51344 525.35176 532.52344 515.72266 C 535.99751 509.04559 536.19272 495.26545 532.98828 482.83008 C 527.42983 461.25952 510.70329 427.01431 496.68359 408.5 C 493.04623 403.69831 481.517 391.38882 470.57812 383.61719 L 466.08398 381.33398 L 471.55859 378.24609 C 477.86329 374.68793 484.23476 367.87764 487.54297 361.16211 C 489.53676 357.11481 489.88377 354.67233 490.16797 342.64648 C 490.52346 327.60392 489.14382 318.82255 484.9707 309.54297 L 482.74219 304.58594 L 486.19922 301.54883 C 490.56876 297.71232 494.31738 289.75471 494.33008 284.28711 C 494.35568 273.25151 485.69627 261.66824 475.06055 258.50977 C 468.69626 256.61978 465.99516 256.6164 459.68555 258.49023 C 454.3827 260.06501 448.42657 264.99525 445.87891 269.92188 L 444.41602 272.75195 L 437.62891 270.69531 C 431.51281 268.84235 428.21582 268.63867 404.33984 268.63867 C 380.46386 268.63867 377.16688 268.84235 371.05078 270.69531 L 364.26367 272.75195 L 362.70312 269.73438 C 359.12014 262.80556 349.38001 257 341.33984 257 z M 428.61914 311 C 433.56984 311 436.29943 318.00738 432.58984 321.19336 C 428.84106 324.41301 425.31768 324.14053 422.89648 320.44531 C 419.92204 315.90575 422.8944 311 428.61914 311 z M 379.80273 311.14844 C 380.79493 311.14751 381.84089 311.36138 382.88672 311.83789 C 386.01637 313.26385 387.02293 317.30653 385.01367 320.37305 C 382.17659 324.70298 376.32169 324.24767 374.17188 319.5293 C 372.20123 315.20425 375.50321 311.15246 379.80273 311.14844 z M 379.77148 313.50977 C 379.6119 313.49847 379.4557 313.49942 379.30273 313.51172 C 376.65126 313.72465 375.08587 317.34563 377.53906 319.79883 C 378.19906 320.45883 379.23484 321 379.83984 321 C 383.37724 321 384.46436 315.67153 381.27539 313.96484 C 380.75667 313.68724 380.25024 313.54354 379.77148 313.50977 z M 427.5625 313.65234 C 424.84427 313.83298 423.11328 317.37304 425.53906 319.79883 C 426.90118 321.16095 427.52515 321.24933 429.75781 320.39258 C 431.89829 319.5712 431.76679 315.29779 429.56445 314.11914 C 428.87099 313.74801 428.18978 313.61066 427.5625 313.65234 z M 399.20312 327.05859 C 401.31077 327.06359 403.77068 327.12499 406.7832 327.22461 C 418.65003 327.61704 422.06833 328.109 428.73047 330.38477 C 447.43477 336.77414 456.08937 347.41446 455.10156 362.80664 C 454.71455 368.83712 454.11702 370.85676 451.69922 374.29688 C 446.44613 381.7711 439.4579 385.00749 424.33984 386.9668 L 424.33984 386.96484 C 415.63811 388.0928 392.85658 388.08928 383.15039 386.95703 C 368.39316 385.23615 359.08811 380.46983 354.92773 372.5 C 351.9543 366.80397 352.01136 354.15106 355.03516 348.5 C 359.99813 339.22489 370.0466 332.49528 384.32422 328.88477 C 389.72719 327.51847 392.8802 327.04252 399.20312 327.05859 z M 404.21289 327.85352 C 403.79856 327.84552 403.38231 327.84647 402.96289 327.85547 C 400.47746 327.90917 397.90998 328.26922 395.33984 328.98438 C 390.0776 330.44858 384.52774 335.47598 383.78125 339.45508 C 382.95268 343.87173 383.78025 346.21471 387.42188 349.77539 C 390.10278 352.39648 392.57383 353.51898 400.08984 355.53125 C 402.06462 356.05996 402.33984 356.78272 402.33984 361.4375 C 402.33984 361.4375 402.73342 364.48351 401.77148 365.41602 C 400.78703 366.37035 397.68359 365.87109 397.68359 365.87109 C 395.92204 365.90149 392.46962 365.87059 388.93359 365.18945 C 385.7939 364.58466 382.90289 363.7942 380.33203 362.57617 C 375.2229 360.15556 374.6879 356.54141 373.82031 354.68945 C 372.12329 351.06701 370.179 350.96103 370.5957 354.51367 C 370.91198 357.21022 372.47195 361.92179 378.98828 365.11133 C 381.81 366.49248 384.97375 367.40863 388.45898 368.0957 C 392.44257 368.88102 395.37058 369.02916 397.76758 369.08203 C 404.6905 369.23472 413.43585 368.72286 417.58594 368.03125 C 422.97175 367.13371 424.03441 366.79694 427.94922 364.87305 C 432.72039 362.52831 435.92129 357.80747 436.09961 356.28711 C 436.51759 352.72358 434.56859 352.84554 432.875 356.48828 C 432.22125 357.89444 430.29552 360.91613 426.5293 362.58789 C 420.15016 365.41949 411.74647 366 408.62695 366 C 405.34954 366 405.33984 365.9842 405.33984 361.01953 C 405.33984 356.39831 405.53845 355.99382 408.08984 355.43555 C 416.64438 353.56373 421.42868 350.61449 423.32227 346.04297 C 427.26991 336.51249 417.05699 328.10598 404.21289 327.85352 z M 365.4707 447 C 386.84909 447 400.40936 461.68495 400.5625 485 C 400.69786 505.60959 391.09706 525.10269 377.83984 531.13477 C 375.52895 532.18623 371.47963 532.96582 368.25 532.97852 C 345.29322 533.06872 321.05454 495.0644 328.99414 471.42773 C 334.05014 456.37599 348.0521 447 365.4707 447 z M 443.33008 447.51758 C 452.56871 447.53408 454.52683 447.8575 459.51562 450.17969 C 479.58288 459.52054 485.62103 480.44974 474.89844 503.5 C 468.89607 516.40322 460.3402 525.66166 449.83984 530.61914 C 443.37476 533.67146 435.44717 533.79327 429.66211 530.92969 C 420.55062 526.41955 412.1823 514.11888 408.84375 500.32812 C 406.42083 490.31964 407.05838 474.46037 410.16016 467.58008 C 413.74641 459.62517 418.6496 454.4631 426.10547 450.79883 C 432.42074 447.69511 433.44495 447.49998 443.33008 447.51758 z M 365.41406 450.15625 C 364.46767 450.16525 363.50251 450.20475 362.51953 450.27539 C 340.42142 451.86382 327.10509 468.61866 331.30859 489.54492 C 334.66799 506.2685 349.10818 525.39206 361.10352 529.00391 C 368.91478 531.35591 378.01523 529.10011 383.74219 523.39258 C 395.88246 511.29356 401.34354 485.71799 395.0918 470.24023 C 389.6717 456.82141 379.60995 450.02215 365.41406 450.15625 z M 442.89258 450.52344 C 433.98425 450.54474 432.27087 450.84824 427.83984 453.1875 C 416.17472 459.34581 411.15908 468.15038 410.53516 483.56055 C 409.70985 503.94445 418.45318 522.59948 431.64453 528.5957 C 436.4518 530.78088 446.2213 529.85067 451.55078 526.70117 C 460.80754 521.23079 468.498 511.65362 473.54688 499.31055 C 476.30165 492.57589 476.74872 490.25898 476.79102 482.5 C 476.83452 474.53793 476.51388 472.86571 474.01758 468 C 470.22441 460.60645 467.38657 457.82974 459.55664 453.85547 C 453.34048 450.70032 452.34214 450.50094 442.89258 450.52344 z M 514.88672 493.87109 C 514.97052 493.85089 514.85173 494.08834 514.57812 494.57422 C 513.46249 496.55569 512.78838 498.24235 512.47852 499.82422 C 512.12893 501.60891 512.30686 503.09381 513.07617 504.80469 C 513.83293 506.48769 515.17529 507.98554 516.87109 509.03906 C 517.45215 509.40005 517.72509 509.62663 517.66211 509.69336 C 517.5014 509.8637 516.12715 510.93152 515.94531 511.02734 C 515.5838 511.21783 513.69426 509.93025 512.55664 508.71875 C 511.88742 508.00607 510.56468 505.5042 510.36719 504.57812 C 510.28979 504.21495 510.18103 503.90521 510.125 503.89062 C 509.85639 503.82083 507.78634 504.2683 507.01758 504.5625 C 504.9504 505.3536 502.60255 506.8557 500.4375 508.77148 C 499.69353 509.4298 499.05284 509.98522 499.01367 510.00586 C 498.97447 510.02646 499.05227 509.82069 499.1875 509.54688 C 499.3228 509.27305 499.4511 509.0387 499.47266 509.02734 C 499.49426 509.01604 499.66022 508.72763 499.8418 508.38672 C 500.18818 507.73641 500.79933 506.89326 501.75781 505.74414 C 503.77427 503.32659 506.87989 501.31835 509.85938 500.50195 L 510.40625 500.35156 L 510.82812 499.39453 C 511.55046 497.75211 512.73958 495.98775 513.98047 494.71875 C 514.51779 494.16925 514.80292 493.89131 514.88672 493.87109 z M 519.27148 494.30469 C 522.31157 494.34749 525.87427 495.06479 527.99219 496.05859 L 528.76562 496.41992 L 528.48828 497.45312 C 527.27927 501.96567 524.64308 506.94293 521.73633 510.20117 C 520.13505 511.99605 518.35649 513.48234 516.39062 514.66797 C 515.48376 515.21489 515.22616 515.42394 514.71484 516.03125 C 513.42509 517.56311 512.19703 518.53634 510.29492 519.53516 C 508.34475 520.55887 506.82677 521.06856 504.93359 521.33398 L 503.9668 521.4707 L 504.50977 521.02539 C 505.26165 520.40962 505.78706 519.85224 506.32617 519.09766 C 506.73881 518.52011 507.13098 517.58848 506.97656 517.55078 C 506.94346 517.54278 506.40934 517.57163 505.79102 517.61523 C 503.96252 517.74456 501.26953 517.61823 499.05859 517.30078 C 498.54731 517.22738 498.09573 517.15642 498.05469 517.14258 C 497.78097 517.05028 496.82712 516.92687 496.74023 516.97266 C 496.68203 517.00326 496.53072 517.3263 496.4043 517.68945 C 495.94713 519.00275 494.83004 521.03167 493.74023 522.5293 C 492.77341 523.85793 491.7919 525.03476 491.67969 525 C 491.65729 524.993 491.77009 524.34207 491.92969 523.55273 C 492.42868 521.0845 492.64055 518.76124 492.46094 517.7168 C 492.37324 517.20691 492.21598 517.05552 491.01172 516.30859 C 490.12726 515.76001 486.96962 514.24296 485.73633 513.77344 C 485.30432 513.60897 484.94429 513.45994 484.93555 513.44336 C 484.91615 513.40666 486.84484 513.17718 488.05469 513.07227 C 490.0758 512.897 493.25424 513.07827 494.24609 513.42578 C 494.44678 513.49598 494.63866 513.53899 494.67188 513.52148 C 494.70508 513.50398 494.94781 512.80617 495.21289 511.9707 C 495.47798 511.13524 495.82813 510.12749 495.99023 509.73047 C 496.39667 508.73498 496.78069 507.87719 496.81445 507.88867 C 496.82995 507.89467 496.86648 508.56055 496.89648 509.37109 C 496.94708 510.73626 497.25167 513.04757 497.48438 513.8418 C 497.58128 514.17257 497.6184 514.18746 499.0918 514.41016 C 503.79051 515.12037 507.94143 514.87887 511.62109 513.68359 C 512.70998 513.32989 513.15154 513.12592 514.69336 512.26172 C 516.52055 511.23755 517.20525 510.73504 518.54297 509.43359 C 521.02953 507.01444 523.5023 503.02423 524.97852 499.05469 L 525.20703 498.44141 L 524.88281 498.13867 C 523.88139 497.19977 521.4785 495.77395 519.33594 494.84766 C 518.72014 494.58143 518.24833 494.34762 518.28711 494.32812 C 518.32581 494.30852 518.7688 494.29759 519.27148 494.30469 z M 519.80469 501.35156 C 521.1267 501.32596 521.91385 502.85595 521.11133 503.89062 C 520.75184 504.35413 520.66013 504.41133 520.09961 504.5332 C 519.16305 504.73685 518.16373 503.78814 518.26758 502.79297 C 518.32068 502.28406 518.67754 501.73105 519.09375 501.51172 C 519.25227 501.42822 519.57213 501.35608 519.80469 501.35156 z "
       id="path4144" />
  </g>
</svg>
