  0
SECTION
  2
HEADER
  9
$ACADVER
  1
AC1014
  9
$HANDSEED
  5
FFFF
  9
$MEASUREMENT
 70
     1
  0
ENDSEC
  0
SECTION
  2
TABLES
  0
TABLE
  2
VPORT
  5
8
330
0
100
AcDbSymbolTable
 70
     4
  0
VPORT
  5
2E
330
8
100
AcDbSymbolTableRecord
100
AcDbViewportTableRecord
  2
*ACTIVE
 70
     0
 10
0.0
 20
0.0
 11
1.0
 21
1.0
 12
210.0
 22
148.5
 13
0.0
 23
0.0
 14
10.0
 24
10.0
 15
10.0
 25
10.0
 16
0.0
 26
0.0
 36
1.0
 17
0.0
 27
0.0
 37
0.0
 40
341.0
 41
1.24
 42
50.0
 43
0.0
 44
0.0
 50
0.0
 51
0.0
 71
     0
 72
   100
 73
     1
 74
     3
 75
     0
 76
     0
 77
     0
 78
     0
  0
ENDTAB
  0
TABLE
  2
LTYPE
  5
5
330
0
100
AcDbSymbolTable
 70
     1
  0
LTYPE
  5
14
330
5
100
AcDbSymbolTableRecord
100
AcDbLinetypeTableRecord
  2
BYBLOCK
 70
     0
  3

 72
    65
 73
     0
 40
0.0
  0
LTYPE
  5
15
330
5
100
AcDbSymbolTableRecord
100
AcDbLinetypeTableRecord
  2
BYLAYER
 70
     0
  3

 72
    65
 73
     0
 40
0.0
  0
LTYPE
  5
16
330
5
100
AcDbSymbolTableRecord
100
AcDbLinetypeTableRecord
  2
CONTINUOUS
 70
     0
  3
Solid line
 72
    65
 73
     0
 40
0.0
  0
ENDTAB
  0
TABLE
  2
LAYER
  5
2
100
AcDbSymbolTable
 70
2
  0
LAYER
  5
50
100
AcDbSymbolTableRecord
100
AcDbLayerTableRecord
  2
0
 70
0
  6
CONTINUOUS
  0
LAYER
  5
51
100
AcDbSymbolTableRecord
100
AcDbLayerTableRecord
  2
Layer_1
 70
0
  6
CONTINUOUS
  0
ENDTAB
  0
TABLE
  2
STYLE
  5
3
330
0
100
AcDbSymbolTable
 70
     1
  0
STYLE
  5
11
330
3
100
AcDbSymbolTableRecord
100
AcDbTextStyleTableRecord
  2
STANDARD
 70
     0
 40
0.0
 41
1.0
 50
0.0
 71
     0
 42
2.5
  3
txt
  4

  0
ENDTAB
  0
TABLE
  2
VIEW
  5
6
330
0
100
AcDbSymbolTable
 70
     0
  0
ENDTAB
  0
TABLE
  2
UCS
  5
7
330
0
100
AcDbSymbolTable
 70
     0
  0
ENDTAB
  0
TABLE
  2
APPID
  5
9
330
0
100
AcDbSymbolTable
 70
     2
  0
APPID
  5
12
330
9
100
AcDbSymbolTableRecord
100
AcDbRegAppTableRecord
  2
ACAD
 70
     0
  0
ENDTAB
  0
TABLE
  2
DIMSTYLE
  5
A
330
0
100
AcDbSymbolTable
 70
     1
  0
DIMSTYLE
105
27
330
A
100
AcDbSymbolTableRecord
100
AcDbDimStyleTableRecord
  2
ISO-25
 70
     0
  3

  4

  5

  6

  7

 40
1.0
 41
2.5
 42
0.625
 43
3.75
 44
1.25
 45
0.0
 46
0.0
 47
0.0
 48
0.0
140
2.5
141
2.5
142
0.0
143
0.03937007874016
144
1.0
145
0.0
146
1.0
147
0.625
 71
     0
 72
     0
 73
     0
 74
     0
 75
     0
 76
     0
 77
     1
 78
     8
170
     0
171
     3
172
     1
173
     0
174
     0
175
     0
176
     0
177
     0
178
     0
270
     2
271
     2
272
     2
273
     2
274
     3
340
11
275
     0
280
     0
281
     0
282
     0
283
     0
284
     8
285
     0
286
     0
287
     3
288
     0
  0
ENDTAB
  0
TABLE
  2
BLOCK_RECORD
  5
1
330
0
100
AcDbSymbolTable
 70
     1
  0
BLOCK_RECORD
  5
1F
330
1
100
AcDbSymbolTableRecord
100
AcDbBlockTableRecord
  2
*MODEL_SPACE
  0
BLOCK_RECORD
  5
1B
330
1
100
AcDbSymbolTableRecord
100
AcDbBlockTableRecord
  2
*PAPER_SPACE
  0
ENDTAB
  0
ENDSEC
  0
SECTION
  2
BLOCKS
  0
BLOCK
  5
20
330
1F
100
AcDbEntity
  8
0
100
AcDbBlockBegin
  2
*MODEL_SPACE
 70
     0
 10
0.0
 20
0.0
 30
0.0
  3
*MODEL_SPACE
  1

  0
ENDBLK
  5
21
330
1F
100
AcDbEntity
  8
0
100
AcDbBlockEnd
  0
BLOCK
  5
1C
330
1B
100
AcDbEntity
 67
     1
  8
0
100
AcDbBlockBegin
  2
*PAPER_SPACE
  1

  0
ENDBLK
  5
1D
330
1B
100
AcDbEntity
 67
     1
  8
0
100
AcDbBlockEnd
  0
ENDSEC
  0
SECTION
  2
ENTITIES
  0
SPLINE
  5
100
100
AcDbEntity
  8
Layer_1
 62
7
100
AcDbSpline
 70
8
 71
3
 72
8
 73
4
 74
0
 40
0
 40
0
 40
0
 40
0
 40
1
 40
1
 40
1
 40
1
 10
62.659949
 20
187.076098
 30
0.0
 10
59.145864
 20
187.076098
 30
0.0
 10
56.009402
 20
186.483412
 30
0.0
 10
53.251255
 20
185.298428
 30
0.0
  0
SPLINE
  5
101
100
AcDbEntity
  8
Layer_1
 62
7
100
AcDbSpline
 70
8
 71
3
 72
8
 73
4
 74
0
 40
0
 40
0
 40
0
 40
0
 40
1
 40
1
 40
1
 40
1
 10
53.251255
 20
185.298428
 30
0.0
 10
51.923256
 20
184.726370
 30
0.0
 10
50.728547
 20
183.980431
 30
0.0
 10
49.666150
 20
183.061047
 30
0.0
  0
SPLINE
  5
102
100
AcDbEntity
  8
Layer_1
 62
7
100
AcDbSpline
 70
8
 71
3
 72
8
 73
4
 74
0
 40
0
 40
0
 40
0
 40
0
 40
1
 40
1
 40
1
 40
1
 10
49.666150
 20
183.061047
 30
0.0
 10
48.236000
 20
181.814770
 30
0.0
 10
47.520820
 20
180.487132
 30
0.0
 10
47.520820
 20
179.077412
 30
0.0
  0
SPLINE
  5
103
100
AcDbEntity
  8
Layer_1
 62
7
100
AcDbSpline
 70
8
 71
3
 72
8
 73
4
 74
0
 40
0
 40
0
 40
0
 40
0
 40
1
 40
1
 40
1
 40
1
 10
47.520820
 20
179.077412
 30
0.0
 10
47.520820
 20
177.667693
 30
0.0
 10
48.154155
 20
176.819584
 30
0.0
 10
49.420859
 20
176.533555
 30
0.0
  0
SPLINE
  5
104
100
AcDbEntity
  8
Layer_1
 62
7
100
AcDbSpline
 70
8
 71
3
 72
8
 73
4
 74
0
 40
0
 40
0
 40
0
 40
0
 40
1
 40
1
 40
1
 40
1
 10
49.420859
 20
176.533555
 30
0.0
 10
49.645598
 20
176.533555
 30
0.0
 10
49.706570
 20
176.564317
 30
0.0
 10
49.604414
 20
176.625607
 30
0.0
  0
SPLINE
  5
105
100
AcDbEntity
  8
Layer_1
 62
7
100
AcDbSpline
 70
8
 71
3
 72
8
 73
4
 74
0
 40
0
 40
0
 40
0
 40
0
 40
1
 40
1
 40
1
 40
1
 10
49.604414
 20
176.625607
 30
0.0
 10
49.297954
 20
176.870779
 30
0.0
 10
49.083728
 20
177.075114
 30
0.0
 10
48.961147
 20
177.238560
 30
0.0
  0
SPLINE
  5
106
100
AcDbEntity
  8
Layer_1
 62
7
100
AcDbSpline
 70
8
 71
3
 72
8
 73
4
 74
0
 40
0
 40
0
 40
0
 40
0
 40
1
 40
1
 40
1
 40
1
 10
48.961147
 20
177.238560
 30
0.0
 10
48.654676
 20
177.626745
 30
0.0
 10
48.501433
 20
178.117261
 30
0.0
 10
48.501433
 20
178.709753
 30
0.0
  0
SPLINE
  5
107
100
AcDbEntity
  8
Layer_1
 62
7
100
AcDbSpline
 70
8
 71
3
 72
8
 73
4
 74
0
 40
0
 40
0
 40
0
 40
0
 40
1
 40
1
 40
1
 40
1
 10
48.501433
 20
178.709753
 30
0.0
 10
48.501433
 20
179.567844
 30
0.0
 10
49.083682
 20
180.599417
 30
0.0
 10
50.248233
 20
181.804825
 30
0.0
  0
SPLINE
  5
108
100
AcDbEntity
  8
Layer_1
 62
7
100
AcDbSpline
 70
8
 71
3
 72
8
 73
4
 74
0
 40
0
 40
0
 40
0
 40
0
 40
1
 40
1
 40
1
 40
1
 10
50.248233
 20
181.804825
 30
0.0
 10
51.433216
 20
183.010244
 30
0.0
 10
52.679560
 20
183.919319
 30
0.0
 10
53.987127
 20
184.532240
 30
0.0
  0
SPLINE
  5
109
100
AcDbEntity
  8
Layer_1
 62
7
100
AcDbSpline
 70
8
 71
3
 72
8
 73
4
 74
0
 40
0
 40
0
 40
0
 40
0
 40
1
 40
1
 40
1
 40
1
 10
53.987127
 20
184.532240
 30
0.0
 10
56.561400
 20
185.758084
 30
0.0
 10
59.472647
 20
186.371093
 30
0.0
 10
62.721132
 20
186.371093
 30
0.0
  0
SPLINE
  5
10a
100
AcDbEntity
  8
Layer_1
 62
7
100
AcDbSpline
 70
8
 71
3
 72
8
 73
4
 74
0
 40
0
 40
0
 40
0
 40
0
 40
1
 40
1
 40
1
 40
1
 10
62.721132
 20
186.371093
 30
0.0
 10
64.784636
 20
186.371093
 30
0.0
 10
66.408895
 20
186.064588
 30
0.0
 10
67.593876
 20
185.451667
 30
0.0
  0
SPLINE
  5
10b
100
AcDbEntity
  8
Layer_1
 62
7
100
AcDbSpline
 70
8
 71
3
 72
8
 73
4
 74
0
 40
0
 40
0
 40
0
 40
0
 40
1
 40
1
 40
1
 40
1
 10
67.593876
 20
185.451667
 30
0.0
 10
68.962736
 20
184.757022
 30
0.0
 10
69.647153
 20
183.704578
 30
0.0
 10
69.647153
 20
182.294856
 30
0.0
  0
SPLINE
  5
10c
100
AcDbEntity
  8
Layer_1
 62
7
100
AcDbSpline
 70
8
 71
3
 72
8
 73
4
 74
0
 40
0
 40
0
 40
0
 40
0
 40
1
 40
1
 40
1
 40
1
 10
69.647153
 20
182.294856
 30
0.0
 10
69.647153
 20
181.722797
 30
0.0
 10
69.524660
 20
181.079576
 30
0.0
 10
69.279493
 20
180.364501
 30
0.0
  0
SPLINE
  5
10d
100
AcDbEntity
  8
Layer_1
 62
7
100
AcDbSpline
 70
8
 71
3
 72
8
 73
4
 74
0
 40
0
 40
0
 40
0
 40
0
 40
1
 40
1
 40
1
 40
1
 10
69.279493
 20
180.364501
 30
0.0
 10
68.891308
 20
179.261241
 30
0.0
 10
67.992103
 20
178.433458
 30
0.0
 10
66.582397
 20
177.881826
 30
0.0
  0
SPLINE
  5
10e
100
AcDbEntity
  8
Layer_1
 62
7
100
AcDbSpline
 70
8
 71
3
 72
8
 73
4
 74
0
 40
0
 40
0
 40
0
 40
0
 40
1
 40
1
 40
1
 40
1
 10
66.582397
 20
177.881826
 30
0.0
 10
65.479137
 20
177.452781
 30
0.0
 10
64.253666
 20
177.238560
 30
0.0
 10
62.905239
 20
177.238560
 30
0.0
  0
SPLINE
  5
10f
100
AcDbEntity
  8
Layer_1
 62
7
100
AcDbSpline
 70
8
 71
3
 72
8
 73
4
 74
0
 40
0
 40
0
 40
0
 40
0
 40
1
 40
1
 40
1
 40
1
 10
62.905239
 20
177.238560
 30
0.0
 10
62.578347
 20
177.238560
 30
0.0
 10
62.190006
 20
177.258880
 30
0.0
 10
61.740519
 20
177.299743
 30
0.0
  0
SPLINE
  5
110
100
AcDbEntity
  8
Layer_1
 62
7
100
AcDbSpline
 70
8
 71
3
 72
8
 73
4
 74
0
 40
0
 40
0
 40
0
 40
0
 40
1
 40
1
 40
1
 40
1
 10
61.740519
 20
177.299743
 30
0.0
 10
61.577085
 20
177.361036
 30
0.0
 10
61.434260
 20
177.412121
 30
0.0
 10
61.311674
 20
177.452981
 30
0.0
  0
SPLINE
  5
111
100
AcDbEntity
  8
Layer_1
 62
7
100
AcDbSpline
 70
8
 71
3
 72
8
 73
4
 74
0
 40
0
 40
0
 40
0
 40
0
 40
1
 40
1
 40
1
 40
1
 10
61.311674
 20
177.452981
 30
0.0
 10
61.189091
 20
177.493844
 30
0.0
 10
61.014966
 20
177.555363
 30
0.0
 10
60.790226
 20
177.637089
 30
0.0
  0
SPLINE
  5
112
100
AcDbEntity
  8
Layer_1
 62
7
100
AcDbSpline
 70
8
 71
3
 72
8
 73
4
 74
0
 40
0
 40
0
 40
0
 40
0
 40
1
 40
1
 40
1
 40
1
 10
60.790226
 20
177.637089
 30
0.0
 10
60.585920
 20
177.718809
 30
0.0
 10
60.371696
 20
177.759457
 30
0.0
 10
60.146957
 20
177.759457
 30
0.0
  0
SPLINE
  5
113
100
AcDbEntity
  8
Layer_1
 62
7
100
AcDbSpline
 70
8
 71
3
 72
8
 73
4
 74
0
 40
0
 40
0
 40
0
 40
0
 40
1
 40
1
 40
1
 40
1
 10
60.146957
 20
177.759457
 30
0.0
 10
59.758775
 20
177.759457
 30
0.0
 10
59.441831
 20
177.616642
 30
0.0
 10
59.196661
 20
177.330612
 30
0.0
  0
SPLINE
  5
114
100
AcDbEntity
  8
Layer_1
 62
7
100
AcDbSpline
 70
8
 71
3
 72
8
 73
4
 74
0
 40
0
 40
0
 40
0
 40
0
 40
1
 40
1
 40
1
 40
1
 10
59.196661
 20
177.330612
 30
0.0
 10
59.114941
 20
177.248889
 30
0.0
 10
59.074293
 20
177.156608
 30
0.0
 10
59.074293
 20
177.054452
 30
0.0
  0
SPLINE
  5
115
100
AcDbEntity
  8
Layer_1
 62
7
100
AcDbSpline
 70
8
 71
3
 72
8
 73
4
 74
0
 40
0
 40
0
 40
0
 40
0
 40
1
 40
1
 40
1
 40
1
 10
59.074293
 20
177.054452
 30
0.0
 10
59.074293
 20
176.788853
 30
0.0
 10
59.523613
 20
176.594955
 30
0.0
 10
60.422564
 20
176.472369
 30
0.0
  0
SPLINE
  5
116
100
AcDbEntity
  8
Layer_1
 62
7
100
AcDbSpline
 70
8
 71
3
 72
8
 73
4
 74
0
 40
0
 40
0
 40
0
 40
0
 40
1
 40
1
 40
1
 40
1
 10
60.422564
 20
176.472369
 30
0.0
 10
61.321518
 20
176.370216
 30
0.0
 10
61.975176
 20
176.288371
 30
0.0
 10
62.383789
 20
176.227078
 30
0.0
  0
SPLINE
  5
117
100
AcDbEntity
  8
Layer_1
 62
7
100
AcDbSpline
 70
8
 71
3
 72
8
 73
4
 74
0
 40
0
 40
0
 40
0
 40
0
 40
1
 40
1
 40
1
 40
1
 10
62.383789
 20
176.227078
 30
0.0
 10
63.262310
 20
175.920619
 30
0.0
 10
63.987926
 20
175.430102
 30
0.0
 10
64.559987
 20
174.755885
 30
0.0
  0
SPLINE
  5
118
100
AcDbEntity
  8
Layer_1
 62
7
100
AcDbSpline
 70
8
 71
3
 72
8
 73
4
 74
0
 40
0
 40
0
 40
0
 40
0
 40
1
 40
1
 40
1
 40
1
 10
64.559987
 20
174.755885
 30
0.0
 10
65.152479
 20
174.102103
 30
0.0
 10
65.448547
 20
173.407797
 30
0.0
 10
65.448547
 20
172.672292
 30
0.0
  0
SPLINE
  5
119
100
AcDbEntity
  8
Layer_1
 62
7
100
AcDbSpline
 70
8
 71
3
 72
8
 73
4
 74
0
 40
0
 40
0
 40
0
 40
0
 40
1
 40
1
 40
1
 40
1
 10
65.448547
 20
172.672292
 30
0.0
 10
65.448547
 20
171.936784
 30
0.0
 10
65.285408
 20
171.272692
 30
0.0
 10
64.958516
 20
170.680201
 30
0.0
  0
SPLINE
  5
11a
100
AcDbEntity
  8
Layer_1
 62
7
100
AcDbSpline
 70
8
 71
3
 72
8
 73
4
 74
0
 40
0
 40
0
 40
0
 40
0
 40
1
 40
1
 40
1
 40
1
 10
64.958516
 20
170.680201
 30
0.0
 10
64.223008
 20
169.290911
 30
0.0
 10
63.109043
 20
168.115975
 30
0.0
 10
61.617600
 20
167.155731
 30
0.0
  0
SPLINE
  5
11b
100
AcDbEntity
  8
Layer_1
 62
7
100
AcDbSpline
 70
8
 71
3
 72
8
 73
4
 74
0
 40
0
 40
0
 40
0
 40
0
 40
1
 40
1
 40
1
 40
1
 10
61.617600
 20
167.155731
 30
0.0
 10
61.395257
 20
167.015621
 30
0.0
 10
61.172877
 20
166.889649
 30
0.0
 10
60.950077
 20
166.770430
 30
0.0
  0
SPLINE
  5
11c
100
AcDbEntity
  8
Layer_1
 62
7
100
AcDbSpline
 70
8
 71
3
 72
8
 73
4
 74
0
 40
0
 40
0
 40
0
 40
0
 40
1
 40
1
 40
1
 40
1
 10
53.706008
 20
166.770430
 30
0.0
 10
52.832037
 20
167.386955
 30
0.0
 10
52.096839
 20
168.279235
 30
0.0
 10
51.504452
 20
169.454298
 30
0.0
  0
SPLINE
  5
11d
100
AcDbEntity
  8
Layer_1
 62
7
100
AcDbSpline
 70
8
 71
3
 72
8
 73
4
 74
0
 40
0
 40
0
 40
0
 40
0
 40
1
 40
1
 40
1
 40
1
 10
51.504452
 20
169.454298
 30
0.0
 10
53.445373
 20
171.170480
 30
0.0
 10
55.560146
 20
173.621969
 30
0.0
 10
57.848390
 20
176.809161
 30
0.0
  0
SPLINE
  5
11e
100
AcDbEntity
  8
Layer_1
 62
7
100
AcDbSpline
 70
8
 71
3
 72
8
 73
4
 74
0
 40
0
 40
0
 40
0
 40
0
 40
1
 40
1
 40
1
 40
1
 10
57.848390
 20
176.809161
 30
0.0
 10
58.175279
 20
177.258637
 30
0.0
 10
59.196963
 20
178.321508
 30
0.0
 10
60.913145
 20
179.996842
 30
0.0
  0
SPLINE
  5
11f
100
AcDbEntity
  8
Layer_1
 62
7
100
AcDbSpline
 70
8
 71
3
 72
8
 73
4
 74
0
 40
0
 40
0
 40
0
 40
0
 40
1
 40
1
 40
1
 40
1
 10
60.913145
 20
179.996842
 30
0.0
 10
62.649758
 20
181.692588
 30
0.0
 10
63.824144
 20
182.713724
 30
0.0
 10
64.437065
 20
183.061047
 30
0.0
  0
SPLINE
  5
120
100
AcDbEntity
  8
Layer_1
 62
7
100
AcDbSpline
 70
8
 71
3
 72
8
 73
4
 74
0
 40
0
 40
0
 40
0
 40
0
 40
1
 40
1
 40
1
 40
1
 10
64.437065
 20
183.061047
 30
0.0
 10
65.029557
 20
183.122340
 30
0.0
 10
65.326175
 20
183.337114
 30
0.0
 10
65.326175
 20
183.704866
 30
0.0
  0
SPLINE
  5
121
100
AcDbEntity
  8
Layer_1
 62
7
100
AcDbSpline
 70
8
 71
3
 72
8
 73
4
 74
0
 40
0
 40
0
 40
0
 40
0
 40
1
 40
1
 40
1
 40
1
 10
65.326175
 20
183.704866
 30
0.0
 10
65.326175
 20
183.950033
 30
0.0
 10
65.193246
 20
184.154370
 30
0.0
 10
64.927647
 20
184.317816
 30
0.0
  0
SPLINE
  5
122
100
AcDbEntity
  8
Layer_1
 62
7
100
AcDbSpline
 70
8
 71
3
 72
8
 73
4
 74
0
 40
0
 40
0
 40
0
 40
0
 40
1
 40
1
 40
1
 40
1
 10
64.927647
 20
184.317816
 30
0.0
 10
64.682480
 20
184.481262
 30
0.0
 10
64.365536
 20
184.563107
 30
0.0
 10
63.977353
 20
184.563107
 30
0.0
  0
SPLINE
  5
123
100
AcDbEntity
  8
Layer_1
 62
7
100
AcDbSpline
 70
8
 71
3
 72
8
 73
4
 74
0
 40
0
 40
0
 40
0
 40
0
 40
1
 40
1
 40
1
 40
1
 10
63.977353
 20
184.563107
 30
0.0
 10
63.589168
 20
184.563107
 30
0.0
 10
63.211256
 20
184.491149
 30
0.0
 10
62.843503
 20
184.348133
 30
0.0
  0
SPLINE
  5
124
100
AcDbEntity
  8
Layer_1
 62
7
100
AcDbSpline
 70
8
 71
3
 72
8
 73
4
 74
0
 40
0
 40
0
 40
0
 40
0
 40
1
 40
1
 40
1
 40
1
 10
62.843503
 20
184.348133
 30
0.0
 10
61.801536
 20
183.939520
 30
0.0
 10
59.605466
 20
181.559436
 30
0.0
 10
56.254825
 20
177.207690
 30
0.0
  0
LWPOLYLINE
  5
125
100
AcDbEntity
  8
Layer_1
 62
7
100
AcDbPolyline
 90
2
 70
0
 10
60.950077
 20
166.770430
 30
0.0
 10
53.706008
 20
166.770430
 30
0.0
  0
SPLINE
  5
126
100
AcDbEntity
  8
Layer_1
 62
7
100
AcDbSpline
 70
8
 71
3
 72
8
 73
4
 74
0
 40
0
 40
0
 40
0
 40
0
 40
1
 40
1
 40
1
 40
1
 10
53.527412
 20
173.530535
 30
0.0
 10
52.505878
 20
172.141245
 30
0.0
 10
51.698968
 20
171.129448
 30
0.0
 10
51.106476
 20
170.496093
 30
0.0
  0
LWPOLYLINE
  5
127
100
AcDbEntity
  8
Layer_1
 62
7
100
AcDbPolyline
 90
2
 70
0
 10
56.254825
 20
177.207690
 30
0.0
 10
53.527412
 20
173.530535
 30
0.0
  0
SPLINE
  5
128
100
AcDbEntity
  8
Layer_1
 62
7
100
AcDbSpline
 70
8
 71
3
 72
8
 73
4
 74
0
 40
0
 40
0
 40
0
 40
0
 40
1
 40
1
 40
1
 40
1
 10
50.187047
 20
173.438480
 30
0.0
 10
49.880588
 20
174.419157
 30
0.0
 10
49.430717
 20
174.909123
 30
0.0
 10
48.838225
 20
174.909123
 30
0.0
  0
SPLINE
  5
129
100
AcDbEntity
  8
Layer_1
 62
7
100
AcDbSpline
 70
8
 71
3
 72
8
 73
4
 74
0
 40
0
 40
0
 40
0
 40
0
 40
1
 40
1
 40
1
 40
1
 10
48.838225
 20
174.909123
 30
0.0
 10
48.674779
 20
174.909123
 30
0.0
 10
48.440230
 20
174.858041
 30
0.0
 10
48.133770
 20
174.755885
 30
0.0
  0
SPLINE
  5
12a
100
AcDbEntity
  8
Layer_1
 62
7
100
AcDbSpline
 70
8
 71
3
 72
8
 73
4
 74
0
 40
0
 40
0
 40
0
 40
0
 40
1
 40
1
 40
1
 40
1
 10
48.133770
 20
174.755885
 30
0.0
 10
47.459556
 20
174.469858
 30
0.0
 10
46.672971
 20
173.540455
 30
0.0
 10
45.774020
 20
171.967286
 30
0.0
  0
SPLINE
  5
12b
100
AcDbEntity
  8
Layer_1
 62
7
100
AcDbSpline
 70
8
 71
3
 72
8
 73
4
 74
0
 40
0
 40
0
 40
0
 40
0
 40
1
 40
1
 40
1
 40
1
 10
45.774020
 20
171.967286
 30
0.0
 10
44.875069
 20
170.394121
 30
0.0
 10
44.425195
 20
169.065932
 30
0.0
 10
44.425195
 20
167.983105
 30
0.0
  0
SPLINE
  5
12c
100
AcDbEntity
  8
Layer_1
 62
7
100
AcDbSpline
 70
8
 71
3
 72
8
 73
4
 74
0
 40
0
 40
0
 40
0
 40
0
 40
1
 40
1
 40
1
 40
1
 10
44.425195
 20
167.983105
 30
0.0
 10
44.425195
 20
166.900274
 30
0.0
 10
44.731703
 20
166.195532
 30
0.0
 10
45.344622
 20
165.868642
 30
0.0
  0
SPLINE
  5
12d
100
AcDbEntity
  8
Layer_1
 62
7
100
AcDbSpline
 70
8
 71
3
 72
8
 73
4
 74
0
 40
0
 40
0
 40
0
 40
0
 40
1
 40
1
 40
1
 40
1
 10
45.344622
 20
165.868642
 30
0.0
 10
45.424584
 20
165.828660
 30
0.0
 10
45.516817
 20
165.806474
 30
0.0
 10
45.614167
 20
165.792575
 30
0.0
  0
LWPOLYLINE
  5
12e
100
AcDbEntity
  8
Layer_1
 62
7
100
AcDbPolyline
 90
2
 70
0
 10
51.106476
 20
170.496093
 30
0.0
 10
50.187047
 20
173.438480
 30
0.0
  0
SPLINE
  5
12f
100
AcDbEntity
  8
Layer_1
 62
7
100
AcDbSpline
 70
8
 71
3
 72
8
 73
4
 74
0
 40
0
 40
0
 40
0
 40
0
 40
1
 40
1
 40
1
 40
1
 10
118.541049
 20
166.770430
 30
0.0
 10
119.868744
 20
167.188799
 30
0.0
 10
121.656864
 20
168.898413
 30
0.0
 10
123.908233
 20
171.906103
 30
0.0
  0
SPLINE
  5
130
100
AcDbEntity
  8
Layer_1
 62
7
100
AcDbSpline
 70
8
 71
3
 72
8
 73
4
 74
0
 40
0
 40
0
 40
0
 40
0
 40
1
 40
1
 40
1
 40
1
 10
123.908233
 20
171.906103
 30
0.0
 10
124.092112
 20
172.151270
 30
0.0
 10
124.184393
 20
172.345171
 30
0.0
 10
124.184393
 20
172.488187
 30
0.0
  0
SPLINE
  5
131
100
AcDbEntity
  8
Layer_1
 62
7
100
AcDbSpline
 70
8
 71
3
 72
8
 73
4
 74
0
 40
0
 40
0
 40
0
 40
0
 40
1
 40
1
 40
1
 40
1
 10
124.184393
 20
172.488187
 30
0.0
 10
124.184393
 20
172.651633
 30
0.0
 10
124.143194
 20
172.733477
 30
0.0
 10
124.061471
 20
172.733477
 30
0.0
  0
SPLINE
  5
132
100
AcDbEntity
  8
Layer_1
 62
7
100
AcDbSpline
 70
8
 71
3
 72
8
 73
4
 74
0
 40
0
 40
0
 40
0
 40
0
 40
1
 40
1
 40
1
 40
1
 10
124.061471
 20
172.733477
 30
0.0
 10
123.979748
 20
172.733477
 30
0.0
 10
123.908346
 20
172.692829
 30
0.0
 10
123.847047
 20
172.611106
 30
0.0
  0
SPLINE
  5
133
100
AcDbEntity
  8
Layer_1
 62
7
100
AcDbSpline
 70
8
 71
3
 72
8
 73
4
 74
0
 40
0
 40
0
 40
0
 40
0
 40
1
 40
1
 40
1
 40
1
 10
123.847047
 20
172.611106
 30
0.0
 10
121.027611
 20
169.097022
 30
0.0
 10
119.086960
 20
167.339835
 30
0.0
 10
118.024563
 20
167.339835
 30
0.0
  0
SPLINE
  5
134
100
AcDbEntity
  8
Layer_1
 62
7
100
AcDbSpline
 70
8
 71
3
 72
8
 73
4
 74
0
 40
0
 40
0
 40
0
 40
0
 40
1
 40
1
 40
1
 40
1
 10
118.024563
 20
167.339835
 30
0.0
 10
117.677238
 20
167.339835
 30
0.0
 10
117.452577
 20
167.574932
 30
0.0
 10
117.350424
 20
168.044841
 30
0.0
  0
SPLINE
  5
135
100
AcDbEntity
  8
Layer_1
 62
7
100
AcDbSpline
 70
8
 71
3
 72
8
 73
4
 74
0
 40
0
 40
0
 40
0
 40
0
 40
1
 40
1
 40
1
 40
1
 10
117.350424
 20
168.044841
 30
0.0
 10
117.329991
 20
168.106134
 30
0.0
 10
117.319558
 20
168.167102
 30
0.0
 10
117.319558
 20
168.228395
 30
0.0
  0
SPLINE
  5
136
100
AcDbEntity
  8
Layer_1
 62
7
100
AcDbSpline
 70
8
 71
3
 72
8
 73
4
 74
0
 40
0
 40
0
 40
0
 40
0
 40
1
 40
1
 40
1
 40
1
 10
117.319558
 20
168.228395
 30
0.0
 10
117.319558
 20
168.963900
 30
0.0
 10
117.952890
 20
170.261329
 30
0.0
 10
119.219596
 20
172.120525
 30
0.0
  0
SPLINE
  5
137
100
AcDbEntity
  8
Layer_1
 62
7
100
AcDbSpline
 70
8
 71
3
 72
8
 73
4
 74
0
 40
0
 40
0
 40
0
 40
0
 40
1
 40
1
 40
1
 40
1
 10
119.219596
 20
172.120525
 30
0.0
 10
120.486303
 20
174.000153
 30
0.0
 10
121.119635
 20
174.991069
 30
0.0
 10
121.119635
 20
175.093231
 30
0.0
  0
SPLINE
  5
138
100
AcDbEntity
  8
Layer_1
 62
7
100
AcDbSpline
 70
8
 71
3
 72
8
 73
4
 74
0
 40
0
 40
0
 40
0
 40
0
 40
1
 40
1
 40
1
 40
1
 10
121.119635
 20
175.093231
 30
0.0
 10
121.119635
 20
175.195378
 30
0.0
 10
121.017476
 20
175.338197
 30
0.0
 10
120.813158
 20
175.522076
 30
0.0
  0
SPLINE
  5
139
100
AcDbEntity
  8
Layer_1
 62
7
100
AcDbSpline
 70
8
 71
3
 72
8
 73
4
 74
0
 40
0
 40
0
 40
0
 40
0
 40
1
 40
1
 40
1
 40
1
 10
120.813158
 20
175.522076
 30
0.0
 10
120.608858
 20
175.705949
 30
0.0
 10
120.394067
 20
175.798233
 30
0.0
 10
120.169342
 20
175.798233
 30
0.0
  0
LWPOLYLINE
  5
13a
100
AcDbEntity
  8
Layer_1
 62
7
100
AcDbPolyline
 90
11
 70
0
 10
45.614167
 20
165.792575
 30
0.0
 10
45.614167
 20
165.350499
 30
0.0
 10
45.614167
 20
165.060008
 30
0.0
 10
46.041358
 20
165.060008
 30
0.0
 10
120.262495
 20
165.060008
 30
0.0
 10
120.592122
 20
165.060008
 30
0.0
 10
120.592122
 20
165.377508
 30
0.0
 10
120.592122
 20
166.428675
 30
0.0
 10
120.592122
 20
166.770430
 30
0.0
 10
120.217847
 20
166.770430
 30
0.0
 10
118.541049
 20
166.770430
 30
0.0
  0
SPLINE
  5
13b
100
AcDbEntity
  8
Layer_1
 62
7
100
AcDbSpline
 70
8
 71
3
 72
8
 73
4
 74
0
 40
0
 40
0
 40
0
 40
0
 40
1
 40
1
 40
1
 40
1
 10
119.740494
 20
175.706181
 30
0.0
 10
119.720061
 20
175.706181
 30
0.0
 10
119.689304
 20
175.757266
 30
0.0
 10
119.648441
 20
175.859419
 30
0.0
  0
SPLINE
  5
13c
100
AcDbEntity
  8
Layer_1
 62
7
100
AcDbSpline
 70
8
 71
3
 72
8
 73
4
 74
0
 40
0
 40
0
 40
0
 40
0
 40
1
 40
1
 40
1
 40
1
 10
119.648441
 20
175.859419
 30
0.0
 10
119.607581
 20
175.982002
 30
0.0
 10
119.556496
 20
176.124818
 30
0.0
 10
119.495203
 20
176.288264
 30
0.0
  0
SPLINE
  5
13d
100
AcDbEntity
  8
Layer_1
 62
7
100
AcDbSpline
 70
8
 71
3
 72
8
 73
4
 74
0
 40
0
 40
0
 40
0
 40
0
 40
1
 40
1
 40
1
 40
1
 10
119.495203
 20
176.288264
 30
0.0
 10
119.270464
 20
176.758172
 30
0.0
 10
118.821146
 20
176.993269
 30
0.0
 10
118.146932
 20
176.993269
 30
0.0
  0
SPLINE
  5
13e
100
AcDbEntity
  8
Layer_1
 62
7
100
AcDbSpline
 70
8
 71
3
 72
8
 73
4
 74
0
 40
0
 40
0
 40
0
 40
0
 40
1
 40
1
 40
1
 40
1
 10
118.146932
 20
176.993269
 30
0.0
 10
116.410319
 20
176.993269
 30
0.0
 10
114.499881
 20
175.951265
 30
0.0
 10
112.415947
 20
173.867325
 30
0.0
  0
SPLINE
  5
13f
100
AcDbEntity
  8
Layer_1
 62
7
100
AcDbSpline
 70
8
 71
3
 72
8
 73
4
 74
0
 40
0
 40
0
 40
0
 40
0
 40
1
 40
1
 40
1
 40
1
 10
112.415947
 20
173.867325
 30
0.0
 10
111.784658
 20
173.242231
 30
0.0
 10
111.250860
 20
172.644069
 30
0.0
 10
110.810808
 20
172.071466
 30
0.0
  0
SPLINE
  5
140
100
AcDbEntity
  8
Layer_1
 62
7
100
AcDbSpline
 70
8
 71
3
 72
8
 73
4
 74
0
 40
0
 40
0
 40
0
 40
0
 40
1
 40
1
 40
1
 40
1
 10
110.810808
 20
172.071466
 30
0.0
 10
110.769569
 20
172.043441
 30
0.0
 10
110.730078
 20
172.010639
 30
0.0
 10
110.693951
 20
171.967286
 30
0.0
  0
SPLINE
  5
141
100
AcDbEntity
  8
Layer_1
 62
7
100
AcDbSpline
 70
8
 71
3
 72
8
 73
4
 74
0
 40
0
 40
0
 40
0
 40
0
 40
1
 40
1
 40
1
 40
1
 10
110.693951
 20
171.967286
 30
0.0
 10
109.876720
 20
170.884459
 30
0.0
 10
108.712220
 20
169.740282
 30
0.0
 10
107.200347
 20
168.534869
 30
0.0
  0
SPLINE
  5
142
100
AcDbEntity
  8
Layer_1
 62
7
100
AcDbSpline
 70
8
 71
3
 72
8
 73
4
 74
0
 40
0
 40
0
 40
0
 40
0
 40
1
 40
1
 40
1
 40
1
 10
107.200347
 20
168.534869
 30
0.0
 10
105.775311
 20
167.417949
 30
0.0
 10
104.570474
 20
166.834581
 30
0.0
 10
103.581067
 20
166.770430
 30
0.0
  0
LWPOLYLINE
  5
143
100
AcDbEntity
  8
Layer_1
 62
7
100
AcDbPolyline
 90
2
 70
0
 10
120.169342
 20
175.798233
 30
0.0
 10
119.740494
 20
175.706181
 30
0.0
  0
SPLINE
  5
144
100
AcDbEntity
  8
Layer_1
 62
7
100
AcDbSpline
 70
8
 71
3
 72
8
 73
4
 74
0
 40
0
 40
0
 40
0
 40
0
 40
1
 40
1
 40
1
 40
1
 10
103.178681
 20
166.770430
 30
0.0
 10
102.813479
 20
166.809529
 30
0.0
 10
102.518938
 20
166.947301
 30
0.0
 10
102.296736
 20
167.186597
 30
0.0
  0
SPLINE
  5
145
100
AcDbEntity
  8
Layer_1
 62
7
100
AcDbSpline
 70
8
 71
3
 72
8
 73
4
 74
0
 40
0
 40
0
 40
0
 40
0
 40
1
 40
1
 40
1
 40
1
 10
102.296736
 20
167.186597
 30
0.0
 10
102.051567
 20
167.472627
 30
0.0
 10
101.929077
 20
167.728049
 30
0.0
 10
101.929077
 20
167.952785
 30
0.0
  0
SPLINE
  5
146
100
AcDbEntity
  8
Layer_1
 62
7
100
AcDbSpline
 70
8
 71
3
 72
8
 73
4
 74
0
 40
0
 40
0
 40
0
 40
0
 40
1
 40
1
 40
1
 40
1
 10
101.929077
 20
167.952785
 30
0.0
 10
101.929077
 20
168.177525
 30
0.0
 10
101.969722
 20
168.514789
 30
0.0
 10
102.051445
 20
168.964267
 30
0.0
  0
SPLINE
  5
147
100
AcDbEntity
  8
Layer_1
 62
7
100
AcDbSpline
 70
8
 71
3
 72
8
 73
4
 74
0
 40
0
 40
0
 40
0
 40
0
 40
1
 40
1
 40
1
 40
1
 10
102.051445
 20
168.964267
 30
0.0
 10
102.153601
 20
169.413740
 30
0.0
 10
102.306854
 20
169.801541
 30
0.0
 10
102.511160
 20
170.128434
 30
0.0
  0
LWPOLYLINE
  5
148
100
AcDbEntity
  8
Layer_1
 62
7
100
AcDbPolyline
 90
2
 70
0
 10
103.581067
 20
166.770430
 30
0.0
 10
103.178681
 20
166.770430
 30
0.0
  0
SPLINE
  5
149
100
AcDbEntity
  8
Layer_1
 62
7
100
AcDbSpline
 70
8
 71
3
 72
8
 73
4
 74
0
 40
0
 40
0
 40
0
 40
0
 40
1
 40
1
 40
1
 40
1
 10
103.706193
 20
171.875234
 30
0.0
 10
104.073949
 20
172.386003
 30
0.0
 10
104.748480
 20
173.019338
 30
0.0
 10
105.729154
 20
173.775273
 30
0.0
  0
SPLINE
  5
14a
100
AcDbEntity
  8
Layer_1
 62
7
100
AcDbSpline
 70
8
 71
3
 72
8
 73
4
 74
0
 40
0
 40
0
 40
0
 40
0
 40
1
 40
1
 40
1
 40
1
 10
105.729154
 20
173.775273
 30
0.0
 10
106.730261
 20
174.531210
 30
0.0
 10
107.516845
 20
174.939885
 30
0.0
 10
108.088907
 20
175.001175
 30
0.0
  0
SPLINE
  5
14b
100
AcDbEntity
  8
Layer_1
 62
7
100
AcDbSpline
 70
8
 71
3
 72
8
 73
4
 74
0
 40
0
 40
0
 40
0
 40
0
 40
1
 40
1
 40
1
 40
1
 10
108.088907
 20
175.001175
 30
0.0
 10
108.150200
 20
175.001175
 30
0.0
 10
108.180959
 20
174.980855
 30
0.0
 10
108.180959
 20
174.939992
 30
0.0
  0
SPLINE
  5
14c
100
AcDbEntity
  8
Layer_1
 62
7
100
AcDbSpline
 70
8
 71
3
 72
8
 73
4
 74
0
 40
0
 40
0
 40
0
 40
0
 40
1
 40
1
 40
1
 40
1
 10
108.180959
 20
174.939992
 30
0.0
 10
108.180959
 20
174.919559
 30
0.0
 10
108.037585
 20
174.674576
 30
0.0
 10
107.751564
 20
174.204671
 30
0.0
  0
SPLINE
  5
14d
100
AcDbEntity
  8
Layer_1
 62
7
100
AcDbSpline
 70
8
 71
3
 72
8
 73
4
 74
0
 40
0
 40
0
 40
0
 40
0
 40
1
 40
1
 40
1
 40
1
 10
107.751564
 20
174.204671
 30
0.0
 10
107.485962
 20
173.755192
 30
0.0
 10
107.353585
 20
173.417928
 30
0.0
 10
107.353585
 20
173.193189
 30
0.0
  0
SPLINE
  5
14e
100
AcDbEntity
  8
Layer_1
 62
7
100
AcDbSpline
 70
8
 71
3
 72
8
 73
4
 74
0
 40
0
 40
0
 40
0
 40
0
 40
1
 40
1
 40
1
 40
1
 10
107.353585
 20
173.193189
 30
0.0
 10
107.353585
 20
172.866297
 30
0.0
 10
107.618891
 20
172.702608
 30
0.0
 10
108.150090
 20
172.702608
 30
0.0
  0
SPLINE
  5
14f
100
AcDbEntity
  8
Layer_1
 62
7
100
AcDbSpline
 70
8
 71
3
 72
8
 73
4
 74
0
 40
0
 40
0
 40
0
 40
0
 40
1
 40
1
 40
1
 40
1
 10
108.150090
 20
172.702608
 30
0.0
 10
108.681289
 20
172.702608
 30
0.0
 10
109.079527
 20
172.937705
 30
0.0
 10
109.345126
 20
173.407613
 30
0.0
  0
SPLINE
  5
150
100
AcDbEntity
  8
Layer_1
 62
7
100
AcDbSpline
 70
8
 71
3
 72
8
 73
4
 74
0
 40
0
 40
0
 40
0
 40
0
 40
1
 40
1
 40
1
 40
1
 10
109.345126
 20
173.407613
 30
0.0
 10
109.610725
 20
173.897949
 30
0.0
 10
109.743655
 20
174.357709
 30
0.0
 10
109.743655
 20
174.786754
 30
0.0
  0
SPLINE
  5
151
100
AcDbEntity
  8
Layer_1
 62
7
100
AcDbSpline
 70
8
 71
3
 72
8
 73
4
 74
0
 40
0
 40
0
 40
0
 40
0
 40
1
 40
1
 40
1
 40
1
 10
109.743655
 20
174.786754
 30
0.0
 10
109.743655
 20
175.236230
 30
0.0
 10
109.590403
 20
175.583383
 30
0.0
 10
109.283940
 20
175.828549
 30
0.0
  0
SPLINE
  5
152
100
AcDbEntity
  8
Layer_1
 62
7
100
AcDbSpline
 70
8
 71
3
 72
8
 73
4
 74
0
 40
0
 40
0
 40
0
 40
0
 40
1
 40
1
 40
1
 40
1
 10
109.283940
 20
175.828549
 30
0.0
 10
108.997911
 20
176.094149
 30
0.0
 10
108.619996
 20
176.227078
 30
0.0
 10
108.150090
 20
176.227078
 30
0.0
  0
SPLINE
  5
153
100
AcDbEntity
  8
Layer_1
 62
7
100
AcDbSpline
 70
8
 71
3
 72
8
 73
4
 74
0
 40
0
 40
0
 40
0
 40
0
 40
1
 40
1
 40
1
 40
1
 10
108.150090
 20
176.227078
 30
0.0
 10
106.719940
 20
176.227078
 30
0.0
 10
105.106120
 20
175.287239
 30
0.0
 10
103.308215
 20
173.407613
 30
0.0
  0
SPLINE
  5
154
100
AcDbEntity
  8
Layer_1
 62
7
100
AcDbSpline
 70
8
 71
3
 72
8
 73
4
 74
0
 40
0
 40
0
 40
0
 40
0
 40
1
 40
1
 40
1
 40
1
 10
103.308215
 20
173.407613
 30
0.0
 10
102.801296
 20
172.877651
 30
0.0
 10
102.368587
 20
172.366160
 30
0.0
 10
102.004591
 20
171.871926
 30
0.0
  0
SPLINE
  5
155
100
AcDbEntity
  8
Layer_1
 62
7
100
AcDbSpline
 70
8
 71
3
 72
8
 73
4
 74
0
 40
0
 40
0
 40
0
 40
0
 40
1
 40
1
 40
1
 40
1
 10
102.004591
 20
171.871926
 30
0.0
 10
101.913004
 20
171.804012
 30
0.0
 10
101.751632
 20
171.632207
 30
0.0
 10
101.520075
 20
171.354336
 30
0.0
  0
SPLINE
  5
156
100
AcDbEntity
  8
Layer_1
 62
7
100
AcDbSpline
 70
8
 71
3
 72
8
 73
4
 74
0
 40
0
 40
0
 40
0
 40
0
 40
1
 40
1
 40
1
 40
1
 10
101.520075
 20
171.354336
 30
0.0
 10
101.417922
 20
171.211320
 30
0.0
 10
101.346514
 20
171.119590
 30
0.0
 10
101.305651
 20
171.078730
 30
0.0
  0
SPLINE
  5
157
100
AcDbEntity
  8
Layer_1
 62
7
100
AcDbSpline
 70
8
 71
3
 72
8
 73
4
 74
0
 40
0
 40
0
 40
0
 40
0
 40
1
 40
1
 40
1
 40
1
 10
101.305651
 20
171.078730
 30
0.0
 10
99.078700
 20
168.606610
 30
0.0
 10
97.515415
 20
167.370702
 30
0.0
 10
96.616464
 20
167.370702
 30
0.0
  0
SPLINE
  5
158
100
AcDbEntity
  8
Layer_1
 62
7
100
AcDbSpline
 70
8
 71
3
 72
8
 73
4
 74
0
 40
0
 40
0
 40
0
 40
0
 40
1
 40
1
 40
1
 40
1
 10
96.616464
 20
167.370702
 30
0.0
 10
96.330431
 20
167.370702
 30
0.0
 10
96.187618
 20
167.697532
 30
0.0
 10
96.187618
 20
168.351314
 30
0.0
  0
SPLINE
  5
159
100
AcDbEntity
  8
Layer_1
 62
7
100
AcDbSpline
 70
8
 71
3
 72
8
 73
4
 74
0
 40
0
 40
0
 40
0
 40
0
 40
1
 40
1
 40
1
 40
1
 10
96.187618
 20
168.351314
 30
0.0
 10
96.187618
 20
169.005099
 30
0.0
 10
96.494123
 20
169.821895
 30
0.0
 10
97.107045
 20
170.802569
 30
0.0
  0
SPLINE
  5
15a
100
AcDbEntity
  8
Layer_1
 62
7
100
AcDbSpline
 70
8
 71
3
 72
8
 73
4
 74
0
 40
0
 40
0
 40
0
 40
0
 40
1
 40
1
 40
1
 40
1
 10
97.107045
 20
170.802569
 30
0.0
 10
97.740397
 20
171.783244
 30
0.0
 10
98.506661
 20
172.804930
 30
0.0
 10
99.405612
 20
173.867325
 30
0.0
  0
SPLINE
  5
15b
100
AcDbEntity
  8
Layer_1
 62
7
100
AcDbSpline
 70
8
 71
3
 72
8
 73
4
 74
0
 40
0
 40
0
 40
0
 40
0
 40
1
 40
1
 40
1
 40
1
 10
99.405612
 20
173.867325
 30
0.0
 10
100.181980
 20
174.868435
 30
0.0
 10
100.590655
 20
175.419923
 30
0.0
 10
100.631515
 20
175.522076
 30
0.0
  0
SPLINE
  5
15c
100
AcDbEntity
  8
Layer_1
 62
7
100
AcDbSpline
 70
8
 71
3
 72
8
 73
4
 74
0
 40
0
 40
0
 40
0
 40
0
 40
1
 40
1
 40
1
 40
1
 10
100.631515
 20
175.522076
 30
0.0
 10
100.672378
 20
175.624229
 30
0.0
 10
100.692701
 20
175.726396
 30
0.0
 10
100.692701
 20
175.828549
 30
0.0
  0
SPLINE
  5
15d
100
AcDbEntity
  8
Layer_1
 62
7
100
AcDbSpline
 70
8
 71
3
 72
8
 73
4
 74
0
 40
0
 40
0
 40
0
 40
0
 40
1
 40
1
 40
1
 40
1
 10
100.692701
 20
175.828549
 30
0.0
 10
100.692701
 20
176.339321
 30
0.0
 10
100.406519
 20
176.594740
 30
0.0
 10
99.834457
 20
176.594740
 30
0.0
  0
SPLINE
  5
15e
100
AcDbEntity
  8
Layer_1
 62
7
100
AcDbSpline
 70
8
 71
3
 72
8
 73
4
 74
0
 40
0
 40
0
 40
0
 40
0
 40
1
 40
1
 40
1
 40
1
 10
99.834457
 20
176.594740
 30
0.0
 10
99.752734
 20
176.594740
 30
0.0
 10
99.661004
 20
176.584863
 30
0.0
 10
99.558850
 20
176.564424
 30
0.0
  0
SPLINE
  5
15f
100
AcDbEntity
  8
Layer_1
 62
7
100
AcDbSpline
 70
8
 71
3
 72
8
 73
4
 74
0
 40
0
 40
0
 40
0
 40
0
 40
1
 40
1
 40
1
 40
1
 10
99.558850
 20
176.564424
 30
0.0
 10
98.537313
 20
176.564424
 30
0.0
 10
95.646387
 20
174.184340
 30
0.0
 10
90.886029
 20
169.423979
 30
0.0
  0
SPLINE
  5
160
100
AcDbEntity
  8
Layer_1
 62
7
100
AcDbSpline
 70
8
 71
3
 72
8
 73
4
 74
0
 40
0
 40
0
 40
0
 40
0
 40
1
 40
1
 40
1
 40
1
 10
90.886029
 20
169.423979
 30
0.0
 10
91.253781
 20
170.731548
 30
0.0
 10
92.356759
 20
172.661759
 30
0.0
 10
94.195525
 20
175.215599
 30
0.0
  0
SPLINE
  5
161
100
AcDbEntity
  8
Layer_1
 62
7
100
AcDbSpline
 70
8
 71
3
 72
8
 73
4
 74
0
 40
0
 40
0
 40
0
 40
0
 40
1
 40
1
 40
1
 40
1
 10
94.195525
 20
175.215599
 30
0.0
 10
94.256818
 20
175.338183
 30
0.0
 10
94.287577
 20
175.461226
 30
0.0
 10
94.287577
 20
175.583812
 30
0.0
  0
SPLINE
  5
162
100
AcDbEntity
  8
Layer_1
 62
7
100
AcDbSpline
 70
8
 71
3
 72
8
 73
4
 74
0
 40
0
 40
0
 40
0
 40
0
 40
1
 40
1
 40
1
 40
1
 10
94.287577
 20
175.583812
 30
0.0
 10
94.287577
 20
176.012857
 30
0.0
 10
94.011835
 20
176.227078
 30
0.0
 10
93.460203
 20
176.227078
 30
0.0
  0
SPLINE
  5
163
100
AcDbEntity
  8
Layer_1
 62
7
100
AcDbSpline
 70
8
 71
3
 72
8
 73
4
 74
0
 40
0
 40
0
 40
0
 40
0
 40
1
 40
1
 40
1
 40
1
 10
93.460203
 20
176.227078
 30
0.0
 10
93.255897
 20
176.227078
 30
0.0
 10
93.061446
 20
176.104588
 30
0.0
 10
92.877569
 20
175.859419
 30
0.0
  0
SPLINE
  5
164
100
AcDbEntity
  8
Layer_1
 62
7
100
AcDbSpline
 70
8
 71
3
 72
8
 73
4
 74
0
 40
0
 40
0
 40
0
 40
0
 40
1
 40
1
 40
1
 40
1
 10
92.877569
 20
175.859419
 30
0.0
 10
91.222680
 20
173.898067
 30
0.0
 10
90.130139
 20
172.569879
 30
0.0
 10
89.598940
 20
171.875234
 30
0.0
  0
SPLINE
  5
165
100
AcDbEntity
  8
Layer_1
 62
7
100
AcDbSpline
 70
8
 71
3
 72
8
 73
4
 74
0
 40
0
 40
0
 40
0
 40
0
 40
1
 40
1
 40
1
 40
1
 10
89.598940
 20
171.875234
 30
0.0
 10
89.047312
 20
171.180589
 30
0.0
 10
88.393103
 20
170.455524
 30
0.0
 10
87.637166
 20
169.699589
 30
0.0
  0
SPLINE
  5
166
100
AcDbEntity
  8
Layer_1
 62
7
100
AcDbSpline
 70
8
 71
3
 72
8
 73
4
 74
0
 40
0
 40
0
 40
0
 40
0
 40
1
 40
1
 40
1
 40
1
 10
87.637166
 20
169.699589
 30
0.0
 10
87.546674
 20
169.609097
 30
0.0
 10
87.484080
 20
169.521989
 30
0.0
 10
87.443688
 20
169.437760
 30
0.0
  0
SPLINE
  5
167
100
AcDbEntity
  8
Layer_1
 62
7
100
AcDbSpline
 70
8
 71
3
 72
8
 73
4
 74
0
 40
0
 40
0
 40
0
 40
0
 40
1
 40
1
 40
1
 40
1
 10
87.443688
 20
169.437760
 30
0.0
 10
86.075670
 20
168.041208
 30
0.0
 10
85.055292
 20
167.339835
 30
0.0
 10
84.385548
 20
167.339835
 30
0.0
  0
SPLINE
  5
168
100
AcDbEntity
  8
Layer_1
 62
7
100
AcDbSpline
 70
8
 71
3
 72
8
 73
4
 74
0
 40
0
 40
0
 40
0
 40
0
 40
1
 40
1
 40
1
 40
1
 10
84.385548
 20
167.339835
 30
0.0
 10
84.038226
 20
167.339835
 30
0.0
 10
83.813563
 20
167.574932
 30
0.0
 10
83.711409
 20
168.044841
 30
0.0
  0
SPLINE
  5
169
100
AcDbEntity
  8
Layer_1
 62
7
100
AcDbSpline
 70
8
 71
3
 72
8
 73
4
 74
0
 40
0
 40
0
 40
0
 40
0
 40
1
 40
1
 40
1
 40
1
 10
83.711409
 20
168.044841
 30
0.0
 10
83.690976
 20
168.106134
 30
0.0
 10
83.680543
 20
168.167102
 30
0.0
 10
83.680543
 20
168.228395
 30
0.0
  0
SPLINE
  5
16a
100
AcDbEntity
  8
Layer_1
 62
7
100
AcDbSpline
 70
8
 71
3
 72
8
 73
4
 74
0
 40
0
 40
0
 40
0
 40
0
 40
1
 40
1
 40
1
 40
1
 10
83.680543
 20
168.228395
 30
0.0
 10
83.680543
 20
168.963900
 30
0.0
 10
84.313875
 20
170.261329
 30
0.0
 10
85.580581
 20
172.120525
 30
0.0
  0
SPLINE
  5
16b
100
AcDbEntity
  8
Layer_1
 62
7
100
AcDbSpline
 70
8
 71
3
 72
8
 73
4
 74
0
 40
0
 40
0
 40
0
 40
0
 40
1
 40
1
 40
1
 40
1
 10
85.580581
 20
172.120525
 30
0.0
 10
86.847285
 20
174.000153
 30
0.0
 10
87.480620
 20
174.991072
 30
0.0
 10
87.480620
 20
175.093231
 30
0.0
  0
SPLINE
  5
16c
100
AcDbEntity
  8
Layer_1
 62
7
100
AcDbSpline
 70
8
 71
3
 72
8
 73
4
 74
0
 40
0
 40
0
 40
0
 40
0
 40
1
 40
1
 40
1
 40
1
 10
87.480620
 20
175.093231
 30
0.0
 10
87.480620
 20
175.195378
 30
0.0
 10
87.378453
 20
175.338197
 30
0.0
 10
87.174146
 20
175.522076
 30
0.0
  0
SPLINE
  5
16d
100
AcDbEntity
  8
Layer_1
 62
7
100
AcDbSpline
 70
8
 71
3
 72
8
 73
4
 74
0
 40
0
 40
0
 40
0
 40
0
 40
1
 40
1
 40
1
 40
1
 10
87.174146
 20
175.522076
 30
0.0
 10
86.969837
 20
175.705949
 30
0.0
 10
86.755613
 20
175.798233
 30
0.0
 10
86.530877
 20
175.798233
 30
0.0
  0
LWPOLYLINE
  5
16e
100
AcDbEntity
  8
Layer_1
 62
7
100
AcDbPolyline
 90
2
 70
0
 10
102.511160
 20
170.128434
 30
0.0
 10
103.706193
 20
171.875234
 30
0.0
  0
SPLINE
  5
16f
100
AcDbEntity
  8
Layer_1
 62
7
100
AcDbSpline
 70
8
 71
3
 72
8
 73
4
 74
0
 40
0
 40
0
 40
0
 40
0
 40
1
 40
1
 40
1
 40
1
 10
86.101479
 20
175.706181
 30
0.0
 10
86.081046
 20
175.706181
 30
0.0
 10
86.050840
 20
175.757266
 30
0.0
 10
86.009980
 20
175.859419
 30
0.0
  0
SPLINE
  5
170
100
AcDbEntity
  8
Layer_1
 62
7
100
AcDbSpline
 70
8
 71
3
 72
8
 73
4
 74
0
 40
0
 40
0
 40
0
 40
0
 40
1
 40
1
 40
1
 40
1
 10
86.009980
 20
175.859419
 30
0.0
 10
85.969119
 20
175.982002
 30
0.0
 10
85.918034
 20
176.124818
 30
0.0
 10
85.856741
 20
176.288264
 30
0.0
  0
SPLINE
  5
171
100
AcDbEntity
  8
Layer_1
 62
7
100
AcDbSpline
 70
8
 71
3
 72
8
 73
4
 74
0
 40
0
 40
0
 40
0
 40
0
 40
1
 40
1
 40
1
 40
1
 10
85.856741
 20
176.288264
 30
0.0
 10
85.632002
 20
176.758172
 30
0.0
 10
85.182131
 20
176.993269
 30
0.0
 10
84.507917
 20
176.993269
 30
0.0
  0
SPLINE
  5
172
100
AcDbEntity
  8
Layer_1
 62
7
100
AcDbSpline
 70
8
 71
3
 72
8
 73
4
 74
0
 40
0
 40
0
 40
0
 40
0
 40
1
 40
1
 40
1
 40
1
 10
84.507917
 20
176.993269
 30
0.0
 10
82.771305
 20
176.993269
 30
0.0
 10
80.861416
 20
175.951268
 30
0.0
 10
78.777482
 20
173.867325
 30
0.0
  0
SPLINE
  5
173
100
AcDbEntity
  8
Layer_1
 62
7
100
AcDbSpline
 70
8
 71
3
 72
8
 73
4
 74
0
 40
0
 40
0
 40
0
 40
0
 40
1
 40
1
 40
1
 40
1
 10
78.777482
 20
173.867325
 30
0.0
 10
78.004185
 20
173.101611
 30
0.0
 10
77.374815
 20
172.375868
 30
0.0
 10
76.888467
 20
171.688925
 30
0.0
  0
SPLINE
  5
174
100
AcDbEntity
  8
Layer_1
 62
7
100
AcDbSpline
 70
8
 71
3
 72
8
 73
4
 74
0
 40
0
 40
0
 40
0
 40
0
 40
1
 40
1
 40
1
 40
1
 10
76.888467
 20
171.688925
 30
0.0
 10
76.750980
 20
171.611339
 30
0.0
 10
76.537888
 20
171.389420
 30
0.0
 10
76.246855
 20
171.017544
 30
0.0
  0
SPLINE
  5
175
100
AcDbEntity
  8
Layer_1
 62
7
100
AcDbSpline
 70
8
 71
3
 72
8
 73
4
 74
0
 40
0
 40
0
 40
0
 40
0
 40
1
 40
1
 40
1
 40
1
 10
76.246855
 20
171.017544
 30
0.0
 10
75.245747
 20
169.750837
 30
0.0
 10
73.887347
 20
168.585790
 30
0.0
 10
72.171168
 20
167.523390
 30
0.0
  0
SPLINE
  5
176
100
AcDbEntity
  8
Layer_1
 62
7
100
AcDbSpline
 70
8
 71
3
 72
8
 73
4
 74
0
 40
0
 40
0
 40
0
 40
0
 40
1
 40
1
 40
1
 40
1
 10
72.171168
 20
167.523390
 30
0.0
 10
71.435660
 20
167.053484
 30
0.0
 10
70.853413
 20
166.818938
 30
0.0
 10
70.424367
 20
166.818938
 30
0.0
  0
SPLINE
  5
177
100
AcDbEntity
  8
Layer_1
 62
7
100
AcDbSpline
 70
8
 71
3
 72
8
 73
4
 74
0
 40
0
 40
0
 40
0
 40
0
 40
1
 40
1
 40
1
 40
1
 10
70.424367
 20
166.818938
 30
0.0
 10
69.913599
 20
166.818938
 30
0.0
 10
69.658176
 20
167.186411
 30
0.0
 10
69.658176
 20
167.921919
 30
0.0
  0
SPLINE
  5
178
100
AcDbEntity
  8
Layer_1
 62
7
100
AcDbSpline
 70
8
 71
3
 72
8
 73
4
 74
0
 40
0
 40
0
 40
0
 40
0
 40
1
 40
1
 40
1
 40
1
 10
69.658176
 20
167.921919
 30
0.0
 10
69.658176
 20
168.677854
 30
0.0
 10
70.424441
 20
170.046691
 30
0.0
 10
71.956744
 20
172.028472
 30
0.0
  0
SPLINE
  5
179
100
AcDbEntity
  8
Layer_1
 62
7
100
AcDbSpline
 70
8
 71
3
 72
8
 73
4
 74
0
 40
0
 40
0
 40
0
 40
0
 40
1
 40
1
 40
1
 40
1
 10
71.956744
 20
172.028472
 30
0.0
 10
72.222343
 20
172.375795
 30
0.0
 10
72.498088
 20
172.733384
 30
0.0
 10
72.784118
 20
173.101137
 30
0.0
  0
SPLINE
  5
17a
100
AcDbEntity
  8
Layer_1
 62
7
100
AcDbSpline
 70
8
 71
3
 72
8
 73
4
 74
0
 40
0
 40
0
 40
0
 40
0
 40
1
 40
1
 40
1
 40
1
 10
72.784118
 20
173.101137
 30
0.0
 10
73.070150
 20
173.489322
 30
0.0
 10
73.294810
 20
173.785941
 30
0.0
 10
73.458256
 20
173.990247
 30
0.0
  0
SPLINE
  5
17b
100
AcDbEntity
  8
Layer_1
 62
7
100
AcDbSpline
 70
8
 71
3
 72
8
 73
4
 74
0
 40
0
 40
0
 40
0
 40
0
 40
1
 40
1
 40
1
 40
1
 10
73.458256
 20
173.990247
 30
0.0
 10
73.621702
 20
174.194556
 30
0.0
 10
73.774955
 20
174.378017
 30
0.0
 10
73.917968
 20
174.541464
 30
0.0
  0
SPLINE
  5
17c
100
AcDbEntity
  8
Layer_1
 62
7
100
AcDbSpline
 70
8
 71
3
 72
8
 73
4
 74
0
 40
0
 40
0
 40
0
 40
0
 40
1
 40
1
 40
1
 40
1
 10
73.917968
 20
174.541464
 30
0.0
 10
74.060984
 20
174.725337
 30
0.0
 10
74.183474
 20
174.889029
 30
0.0
 10
74.285630
 20
175.032045
 30
0.0
  0
SPLINE
  5
17d
100
AcDbEntity
  8
Layer_1
 62
7
100
AcDbSpline
 70
8
 71
3
 72
8
 73
4
 74
0
 40
0
 40
0
 40
0
 40
0
 40
1
 40
1
 40
1
 40
1
 10
74.285630
 20
175.032045
 30
0.0
 10
74.285630
 20
175.176881
 30
0.0
 10
74.175058
 20
175.321622
 30
0.0
 10
73.966476
 20
175.466402
 30
0.0
  0
SPLINE
  5
17e
100
AcDbEntity
  8
Layer_1
 62
7
100
AcDbSpline
 70
8
 71
3
 72
8
 73
4
 74
0
 40
0
 40
0
 40
0
 40
0
 40
1
 40
1
 40
1
 40
1
 10
73.966476
 20
175.466402
 30
0.0
 10
74.110108
 20
175.721539
 30
0.0
 10
74.361286
 20
176.165779
 30
0.0
 10
74.587145
 20
176.439298
 30
0.0
  0
SPLINE
  5
17f
100
AcDbEntity
  8
Layer_1
 62
7
100
AcDbSpline
 70
8
 71
3
 72
8
 73
4
 74
0
 40
0
 40
0
 40
0
 40
0
 40
1
 40
1
 40
1
 40
1
 10
74.587145
 20
176.439298
 30
0.0
 10
74.723134
 20
176.603980
 30
0.0
 10
74.723363
 20
176.590419
 30
0.0
 10
74.778416
 20
176.595841
 30
0.0
  0
SPLINE
  5
180
100
AcDbEntity
  8
Layer_1
 62
7
100
AcDbSpline
 70
8
 71
3
 72
8
 73
4
 74
0
 40
0
 40
0
 40
0
 40
0
 40
1
 40
1
 40
1
 40
1
 10
74.778416
 20
176.595841
 30
0.0
 10
74.794474
 20
176.597534
 30
0.0
 10
75.011006
 20
176.530797
 30
0.0
 10
75.135605
 20
176.530797
 30
0.0
  0
SPLINE
  5
181
100
AcDbEntity
  8
Layer_1
 62
7
100
AcDbSpline
 70
8
 71
3
 72
8
 73
4
 74
0
 40
0
 40
0
 40
0
 40
0
 40
1
 40
1
 40
1
 40
1
 10
75.135605
 20
176.530797
 30
0.0
 10
75.442064
 20
176.530797
 30
0.0
 10
75.717809
 20
176.622531
 30
0.0
 10
75.962978
 20
176.806407
 30
0.0
  0
SPLINE
  5
182
100
AcDbEntity
  8
Layer_1
 62
7
100
AcDbSpline
 70
8
 71
3
 72
8
 73
4
 74
0
 40
0
 40
0
 40
0
 40
0
 40
1
 40
1
 40
1
 40
1
 10
75.962978
 20
176.806407
 30
0.0
 10
76.228578
 20
177.010713
 30
0.0
 10
76.361507
 20
177.245810
 30
0.0
 10
76.361507
 20
177.511409
 30
0.0
  0
SPLINE
  5
183
100
AcDbEntity
  8
Layer_1
 62
7
100
AcDbSpline
 70
8
 71
3
 72
8
 73
4
 74
0
 40
0
 40
0
 40
0
 40
0
 40
1
 40
1
 40
1
 40
1
 10
76.361507
 20
177.511409
 30
0.0
 10
76.361507
 20
177.777009
 30
0.0
 10
76.218692
 20
178.001672
 30
0.0
 10
75.932659
 20
178.185548
 30
0.0
  0
SPLINE
  5
184
100
AcDbEntity
  8
Layer_1
 62
7
100
AcDbSpline
 70
8
 71
3
 72
8
 73
4
 74
0
 40
0
 40
0
 40
0
 40
0
 40
1
 40
1
 40
1
 40
1
 10
75.932659
 20
178.185548
 30
0.0
 10
75.667060
 20
178.389857
 30
0.0
 10
75.380881
 20
178.492022
 30
0.0
 10
75.074419
 20
178.492022
 30
0.0
  0
SPLINE
  5
185
100
AcDbEntity
  8
Layer_1
 62
7
100
AcDbSpline
 70
8
 71
3
 72
8
 73
4
 74
0
 40
0
 40
0
 40
0
 40
0
 40
1
 40
1
 40
1
 40
1
 10
75.074419
 20
178.492022
 30
0.0
 10
74.298051
 20
178.492022
 30
0.0
 10
73.909702
 20
178.205843
 30
0.0
 10
73.909702
 20
177.633781
 30
0.0
  0
SPLINE
  5
186
100
AcDbEntity
  8
Layer_1
 62
7
100
AcDbSpline
 70
8
 71
3
 72
8
 73
4
 74
0
 40
0
 40
0
 40
0
 40
0
 40
1
 40
1
 40
1
 40
1
 10
73.909702
 20
177.633781
 30
0.0
 10
74.080946
 20
176.964409
 30
0.0
 10
74.251543
 20
177.032210
 30
0.0
 10
74.057978
 20
176.817431
 30
0.0
  0
SPLINE
  5
187
100
AcDbEntity
  8
Layer_1
 62
7
100
AcDbSpline
 70
8
 71
3
 72
8
 73
4
 74
0
 40
0
 40
0
 40
0
 40
0
 40
1
 40
1
 40
1
 40
1
 10
74.057978
 20
176.817431
 30
0.0
 10
73.774181
 20
176.496798
 30
0.0
 10
73.341673
 20
175.796627
 30
0.0
 10
73.317145
 20
175.756893
 30
0.0
  0
SPLINE
  5
188
100
AcDbEntity
  8
Layer_1
 62
7
100
AcDbSpline
 70
8
 71
3
 72
8
 73
4
 74
0
 40
0
 40
0
 40
0
 40
0
 40
1
 40
1
 40
1
 40
1
 10
73.317145
 20
175.756893
 30
0.0
 10
73.282144
 20
175.761380
 30
0.0
 10
73.246844
 20
175.767366
 30
0.0
 10
73.212966
 20
175.767366
 30
0.0
  0
SPLINE
  5
189
100
AcDbEntity
  8
Layer_1
 62
7
100
AcDbSpline
 70
8
 71
3
 72
8
 73
4
 74
0
 40
0
 40
0
 40
0
 40
0
 40
1
 40
1
 40
1
 40
1
 10
73.212966
 20
175.767366
 30
0.0
 10
72.477458
 20
175.746933
 30
0.0
 10
71.506859
 20
174.756012
 30
0.0
 10
70.301445
 20
172.794660
 30
0.0
  0
SPLINE
  5
18a
100
AcDbEntity
  8
Layer_1
 62
7
100
AcDbSpline
 70
8
 71
3
 72
8
 73
4
 74
0
 40
0
 40
0
 40
0
 40
0
 40
1
 40
1
 40
1
 40
1
 10
70.301445
 20
172.794660
 30
0.0
 10
69.096032
 20
170.853742
 30
0.0
 10
68.493459
 20
169.331653
 30
0.0
 10
68.493459
 20
168.228395
 30
0.0
  0
SPLINE
  5
18b
100
AcDbEntity
  8
Layer_1
 62
7
100
AcDbSpline
 70
8
 71
3
 72
8
 73
4
 74
0
 40
0
 40
0
 40
0
 40
0
 40
1
 40
1
 40
1
 40
1
 10
68.493459
 20
168.228395
 30
0.0
 10
68.493459
 20
167.591171
 30
0.0
 10
68.611341
 20
167.106522
 30
0.0
 10
68.844033
 20
166.770430
 30
0.0
  0
LWPOLYLINE
  5
18c
100
AcDbEntity
  8
Layer_1
 62
7
100
AcDbPolyline
 90
2
 70
0
 10
86.530877
 20
175.798233
 30
0.0
 10
86.101479
 20
175.706181
 30
0.0
  0
SPLINE
  5
18d
100
AcDbEntity
  8
Layer_1
 62
7
100
AcDbSpline
 70
8
 71
3
 72
8
 73
4
 74
0
 40
0
 40
0
 40
0
 40
0
 40
1
 40
1
 40
1
 40
1
 10
63.363297
 20
166.770430
 30
0.0
 10
65.120531
 20
167.717226
 30
0.0
 10
66.331352
 20
168.875802
 30
0.0
 10
66.980923
 20
170.251353
 30
0.0
  0
SPLINE
  5
18e
100
AcDbEntity
  8
Layer_1
 62
7
100
AcDbSpline
 70
8
 71
3
 72
8
 73
4
 74
0
 40
0
 40
0
 40
0
 40
0
 40
1
 40
1
 40
1
 40
1
 10
66.980923
 20
170.251353
 30
0.0
 10
67.307816
 20
170.905143
 30
0.0
 10
67.471507
 20
171.599444
 30
0.0
 10
67.471507
 20
172.334949
 30
0.0
  0
SPLINE
  5
18f
100
AcDbEntity
  8
Layer_1
 62
7
100
AcDbSpline
 70
8
 71
3
 72
8
 73
4
 74
0
 40
0
 40
0
 40
0
 40
0
 40
1
 40
1
 40
1
 40
1
 10
67.471507
 20
172.334949
 30
0.0
 10
67.471507
 20
173.560792
 30
0.0
 10
67.052396
 20
174.582476
 30
0.0
 10
66.214735
 20
175.399704
 30
0.0
  0
SPLINE
  5
190
100
AcDbEntity
  8
Layer_1
 62
7
100
AcDbSpline
 70
8
 71
3
 72
8
 73
4
 74
0
 40
0
 40
0
 40
0
 40
0
 40
1
 40
1
 40
1
 40
1
 10
66.214735
 20
175.399704
 30
0.0
 10
65.397507
 20
176.237365
 30
0.0
 10
64.386260
 20
176.686685
 30
0.0
 10
63.180846
 20
176.747978
 30
0.0
  0
SPLINE
  5
191
100
AcDbEntity
  8
Layer_1
 62
7
100
AcDbSpline
 70
8
 71
3
 72
8
 73
4
 74
0
 40
0
 40
0
 40
0
 40
0
 40
1
 40
1
 40
1
 40
1
 10
63.180846
 20
176.747978
 30
0.0
 10
64.733579
 20
176.768411
 30
0.0
 10
66.184261
 20
177.013945
 30
0.0
 10
67.532690
 20
177.483850
 30
0.0
  0
SPLINE
  5
192
100
AcDbEntity
  8
Layer_1
 62
7
100
AcDbSpline
 70
8
 71
3
 72
8
 73
4
 74
0
 40
0
 40
0
 40
0
 40
0
 40
1
 40
1
 40
1
 40
1
 10
67.532690
 20
177.483850
 30
0.0
 10
69.330595
 20
178.117202
 30
0.0
 10
70.444013
 20
179.046605
 30
0.0
 10
70.873056
 20
180.272449
 30
0.0
  0
SPLINE
  5
193
100
AcDbEntity
  8
Layer_1
 62
7
100
AcDbSpline
 70
8
 71
3
 72
8
 73
4
 74
0
 40
0
 40
0
 40
0
 40
0
 40
1
 40
1
 40
1
 40
1
 10
70.873056
 20
180.272449
 30
0.0
 10
71.138658
 20
180.946661
 30
0.0
 10
71.271584
 20
181.610758
 30
0.0
 10
71.271584
 20
182.264540
 30
0.0
  0
SPLINE
  5
194
100
AcDbEntity
  8
Layer_1
 62
7
100
AcDbSpline
 70
8
 71
3
 72
8
 73
4
 74
0
 40
0
 40
0
 40
0
 40
0
 40
1
 40
1
 40
1
 40
1
 10
71.271584
 20
182.264540
 30
0.0
 10
71.271584
 20
183.919429
 30
0.0
 10
70.403153
 20
185.155336
 30
0.0
 10
68.666541
 20
185.972564
 30
0.0
  0
SPLINE
  5
195
100
AcDbEntity
  8
Layer_1
 62
7
100
AcDbSpline
 70
8
 71
3
 72
8
 73
4
 74
0
 40
0
 40
0
 40
0
 40
0
 40
1
 40
1
 40
1
 40
1
 10
68.666541
 20
185.972564
 30
0.0
 10
67.175098
 20
186.708072
 30
0.0
 10
65.172929
 20
187.076098
 30
0.0
 10
62.659949
 20
187.076098
 30
0.0
  0
LWPOLYLINE
  5
196
100
AcDbEntity
  8
Layer_1
 62
7
100
AcDbPolyline
 90
2
 70
0
 10
68.844033
 20
166.770430
 30
0.0
 10
63.363297
 20
166.770430
 30
0.0
  0
SPLINE
  5
197
100
AcDbEntity
  8
Layer_1
 62
7
100
AcDbSpline
 70
8
 71
3
 72
8
 73
4
 74
0
 40
0
 40
0
 40
0
 40
0
 40
1
 40
1
 40
1
 40
1
 10
84.998498
 20
175.859419
 30
0.0
 10
85.366253
 20
175.859419
 30
0.0
 10
85.631559
 20
175.716603
 30
0.0
 10
85.795005
 20
175.430574
 30
0.0
  0
LWPOLYLINE
  5
198
100
AcDbEntity
  8
Layer_1
 62
7
100
AcDbPolyline
 90
2
 70
0
 10
62.659949
 20
187.076098
 30
0.0
 10
62.659949
 20
187.076098
 30
0.0
  0
SPLINE
  5
199
100
AcDbEntity
  8
Layer_1
 62
7
100
AcDbSpline
 70
8
 71
3
 72
8
 73
4
 74
0
 40
0
 40
0
 40
0
 40
0
 40
1
 40
1
 40
1
 40
1
 10
82.546692
 20
170.955808
 30
0.0
 10
80.503621
 20
168.361105
 30
0.0
 10
78.889798
 20
167.064228
 30
0.0
 10
77.704817
 20
167.064228
 30
0.0
  0
SPLINE
  5
19a
100
AcDbEntity
  8
Layer_1
 62
7
100
AcDbSpline
 70
8
 71
3
 72
8
 73
4
 74
0
 40
0
 40
0
 40
0
 40
0
 40
1
 40
1
 40
1
 40
1
 10
77.704817
 20
167.064228
 30
0.0
 10
77.194049
 20
167.064228
 30
0.0
 10
76.938629
 20
167.431704
 30
0.0
 10
76.938629
 20
168.167209
 30
0.0
  0
SPLINE
  5
19b
100
AcDbEntity
  8
Layer_1
 62
7
100
AcDbSpline
 70
8
 71
3
 72
8
 73
4
 74
0
 40
0
 40
0
 40
0
 40
0
 40
1
 40
1
 40
1
 40
1
 10
76.938629
 20
168.167209
 30
0.0
 10
76.938629
 20
169.433916
 30
0.0
 10
77.970199
 20
171.027410
 30
0.0
 10
80.033701
 20
172.947899
 30
0.0
  0
SPLINE
  5
19c
100
AcDbEntity
  8
Layer_1
 62
7
100
AcDbSpline
 70
8
 71
3
 72
8
 73
4
 74
0
 40
0
 40
0
 40
0
 40
0
 40
1
 40
1
 40
1
 40
1
 10
80.033701
 20
172.947899
 30
0.0
 10
82.097205
 20
174.888820
 30
0.0
 10
83.752224
 20
175.859419
 30
0.0
 10
84.998498
 20
175.859419
 30
0.0
  0
LWPOLYLINE
  5
19d
100
AcDbEntity
  8
Layer_1
 62
7
100
AcDbPolyline
 90
2
 70
0
 10
85.795005
 20
175.430574
 30
0.0
 10
82.546692
 20
170.955808
 30
0.0
  0
SPLINE
  5
19e
100
AcDbEntity
  8
Layer_1
 62
7
100
AcDbSpline
 70
8
 71
3
 72
8
 73
4
 74
0
 40
0
 40
0
 40
0
 40
0
 40
1
 40
1
 40
1
 40
1
 10
118.637513
 20
175.859419
 30
0.0
 10
119.005265
 20
175.859419
 30
0.0
 10
119.270574
 20
175.716603
 30
0.0
 10
119.434020
 20
175.430574
 30
0.0
  0
LWPOLYLINE
  5
19f
100
AcDbEntity
  8
Layer_1
 62
7
100
AcDbPolyline
 90
2
 70
0
 10
84.998498
 20
175.859419
 30
0.0
 10
84.998498
 20
175.859419
 30
0.0
  0
SPLINE
  5
1a0
100
AcDbEntity
  8
Layer_1
 62
7
100
AcDbSpline
 70
8
 71
3
 72
8
 73
4
 74
0
 40
0
 40
0
 40
0
 40
0
 40
1
 40
1
 40
1
 40
1
 10
116.185707
 20
170.955808
 30
0.0
 10
114.142636
 20
168.361105
 30
0.0
 10
112.528265
 20
167.064228
 30
0.0
 10
111.343282
 20
167.064228
 30
0.0
  0
SPLINE
  5
1a1
100
AcDbEntity
  8
Layer_1
 62
7
100
AcDbSpline
 70
8
 71
3
 72
8
 73
4
 74
0
 40
0
 40
0
 40
0
 40
0
 40
1
 40
1
 40
1
 40
1
 10
111.343282
 20
167.064228
 30
0.0
 10
110.832513
 20
167.064228
 30
0.0
 10
110.577644
 20
167.431704
 30
0.0
 10
110.577644
 20
168.167209
 30
0.0
  0
SPLINE
  5
1a2
100
AcDbEntity
  8
Layer_1
 62
7
100
AcDbSpline
 70
8
 71
3
 72
8
 73
4
 74
0
 40
0
 40
0
 40
0
 40
0
 40
1
 40
1
 40
1
 40
1
 10
110.577644
 20
168.167209
 30
0.0
 10
110.577644
 20
169.433916
 30
0.0
 10
111.609214
 20
171.027410
 30
0.0
 10
113.672716
 20
172.947899
 30
0.0
  0
SPLINE
  5
1a3
100
AcDbEntity
  8
Layer_1
 62
7
100
AcDbSpline
 70
8
 71
3
 72
8
 73
4
 74
0
 40
0
 40
0
 40
0
 40
0
 40
1
 40
1
 40
1
 40
1
 10
113.672716
 20
172.947899
 30
0.0
 10
115.736220
 20
174.888820
 30
0.0
 10
117.391239
 20
175.859419
 30
0.0
 10
118.637513
 20
175.859419
 30
0.0
  0
LWPOLYLINE
  5
1a4
100
AcDbEntity
  8
Layer_1
 62
7
100
AcDbPolyline
 90
2
 70
0
 10
119.434020
 20
175.430574
 30
0.0
 10
116.185707
 20
170.955808
 30
0.0
  0
LWPOLYLINE
  5
1a5
100
AcDbEntity
  8
Layer_1
 62
7
100
AcDbPolyline
 90
2
 70
0
 10
118.637513
 20
175.859419
 30
0.0
 10
118.637513
 20
175.859419
 30
0.0
  0
SPLINE
  5
1a6
100
AcDbEntity
  8
Layer_1
 62
7
100
AcDbSpline
 70
8
 71
3
 72
8
 73
4
 74
0
 40
0
 40
0
 40
0
 40
0
 40
1
 40
1
 40
1
 40
1
 10
96.065247
 20
171.936970
 30
0.0
 10
95.248019
 20
170.506820
 30
0.0
 10
94.839344
 20
169.239600
 30
0.0
 10
94.839344
 20
168.136340
 30
0.0
  0
SPLINE
  5
1a7
100
AcDbEntity
  8
Layer_1
 62
7
100
AcDbSpline
 70
8
 71
3
 72
8
 73
4
 74
0
 40
0
 40
0
 40
0
 40
0
 40
1
 40
1
 40
1
 40
1
 10
94.839344
 20
168.136340
 30
0.0
 10
94.839344
 20
167.492845
 30
0.0
 10
95.010839
 20
167.038594
 30
0.0
 10
95.351425
 20
166.770430
 30
0.0
  0
LWPOLYLINE
  5
1a8
100
AcDbEntity
  8
Layer_1
 62
7
100
AcDbPolyline
 90
2
 70
0
 10
98.026471
 20
175.124097
 30
0.0
 10
96.065247
 20
171.936970
 30
0.0
  0
SPLINE
  5
1a9
100
AcDbEntity
  8
Layer_1
 62
7
100
AcDbSpline
 70
8
 71
3
 72
8
 73
4
 74
0
 40
0
 40
0
 40
0
 40
0
 40
1
 40
1
 40
1
 40
1
 10
90.136376
 20
166.770430
 30
0.0
 10
90.397782
 20
167.036283
 30
0.0
 10
90.789816
 20
167.504396
 30
0.0
 10
91.345743
 20
168.228395
 30
0.0
  0
SPLINE
  5
1aa
100
AcDbEntity
  8
Layer_1
 62
7
100
AcDbSpline
 70
8
 71
3
 72
8
 73
4
 74
0
 40
0
 40
0
 40
0
 40
0
 40
1
 40
1
 40
1
 40
1
 10
91.345743
 20
168.228395
 30
0.0
 10
92.244695
 20
169.372516
 30
0.0
 10
93.235619
 20
170.547452
 30
0.0
 10
94.318447
 20
171.752865
 30
0.0
  0
SPLINE
  5
1ab
100
AcDbEntity
  8
Layer_1
 62
7
100
AcDbSpline
 70
8
 71
3
 72
8
 73
4
 74
0
 40
0
 40
0
 40
0
 40
0
 40
1
 40
1
 40
1
 40
1
 10
94.318447
 20
171.752865
 30
0.0
 10
95.401274
 20
172.978709
 30
0.0
 10
96.637181
 20
174.102560
 30
0.0
 10
98.026471
 20
175.124097
 30
0.0
  0
LWPOLYLINE
  5
1ac
100
AcDbEntity
  8
Layer_1
 62
7
100
AcDbPolyline
 90
2
 70
0
 10
95.351425
 20
166.770430
 30
0.0
 10
90.136376
 20
166.770430
 30
0.0
  0
SPLINE
  5
1ad
100
AcDbEntity
  8
Layer_1
 62
7
100
AcDbSpline
 70
8
 71
3
 72
8
 73
4
 74
0
 40
0
 40
0
 40
0
 40
0
 40
1
 40
1
 40
1
 40
1
 10
47.888480
 20
173.468799
 30
0.0
 10
48.378818
 20
173.468799
 30
0.0
 10
49.032476
 20
172.110401
 30
0.0
 10
49.849704
 20
169.393112
 30
0.0
  0
LWPOLYLINE
  5
1ae
100
AcDbEntity
  8
Layer_1
 62
7
100
AcDbPolyline
 90
2
 70
0
 10
98.026471
 20
175.124097
 30
0.0
 10
98.026471
 20
175.124097
 30
0.0
  0
SPLINE
  5
1af
100
AcDbEntity
  8
Layer_1
 62
7
100
AcDbSpline
 70
8
 71
3
 72
8
 73
4
 74
0
 40
0
 40
0
 40
0
 40
0
 40
1
 40
1
 40
1
 40
1
 10
49.941757
 20
169.270743
 30
0.0
 10
48.669377
 20
167.998364
 30
0.0
 10
47.686234
 20
167.172029
 30
0.0
 10
46.978423
 20
166.770430
 30
0.0
  0
LWPOLYLINE
  5
1b0
100
AcDbEntity
  8
Layer_1
 62
7
100
AcDbPolyline
 90
2
 70
0
 10
49.849704
 20
169.393112
 30
0.0
 10
49.941757
 20
169.270743
 30
0.0
  0
SPLINE
  5
1b1
100
AcDbEntity
  8
Layer_1
 62
7
100
AcDbSpline
 70
8
 71
3
 72
8
 73
4
 74
0
 40
0
 40
0
 40
0
 40
0
 40
1
 40
1
 40
1
 40
1
 10
45.797171
 20
166.770430
 30
0.0
 10
45.581000
 20
167.184946
 30
0.0
 10
45.467544
 20
167.638683
 30
0.0
 10
45.467544
 20
168.136340
 30
0.0
  0
SPLINE
  5
1b2
100
AcDbEntity
  8
Layer_1
 62
7
100
AcDbSpline
 70
8
 71
3
 72
8
 73
4
 74
0
 40
0
 40
0
 40
0
 40
0
 40
1
 40
1
 40
1
 40
1
 10
45.467544
 20
168.136340
 30
0.0
 10
45.467544
 20
169.464337
 30
0.0
 10
46.223372
 20
171.221526
 30
0.0
 10
47.735242
 20
173.407613
 30
0.0
  0
SPLINE
  5
1b3
100
AcDbEntity
  8
Layer_1
 62
7
100
AcDbSpline
 70
8
 71
3
 72
8
 73
4
 74
0
 40
0
 40
0
 40
0
 40
0
 40
1
 40
1
 40
1
 40
1
 10
47.735242
 20
173.407613
 30
0.0
 10
47.816979
 20
173.448476
 30
0.0
 10
47.868050
 20
173.468799
 30
0.0
 10
47.888480
 20
173.468799
 30
0.0
  0
LWPOLYLINE
  5
1b4
100
AcDbEntity
  8
Layer_1
 62
7
100
AcDbPolyline
 90
2
 70
0
 10
46.978423
 20
166.770430
 30
0.0
 10
45.797171
 20
166.770430
 30
0.0
  0
SPLINE
  5
1b5
100
AcDbEntity
  8
Layer_1
 62
7
100
AcDbSpline
 70
8
 71
3
 72
8
 73
4
 74
0
 40
0
 40
0
 40
0
 40
0
 40
1
 40
1
 40
1
 40
1
 10
90.242209
 20
171.660813
 30
0.0
 10
89.833594
 20
170.761862
 30
0.0
 10
89.496316
 20
169.995595
 30
0.0
 10
89.230731
 20
169.362243
 30
0.0
  0
SPLINE
  5
1b6
100
AcDbEntity
  8
Layer_1
 62
7
100
AcDbSpline
 70
8
 71
3
 72
8
 73
4
 74
0
 40
0
 40
0
 40
0
 40
0
 40
1
 40
1
 40
1
 40
1
 10
89.230731
 20
169.362243
 30
0.0
 10
88.965128
 20
168.728891
 30
0.0
 10
88.832752
 20
168.218049
 30
0.0
 10
88.832752
 20
167.829866
 30
0.0
  0
SPLINE
  5
1b7
100
AcDbEntity
  8
Layer_1
 62
7
100
AcDbSpline
 70
8
 71
3
 72
8
 73
4
 74
0
 40
0
 40
0
 40
0
 40
0
 40
1
 40
1
 40
1
 40
1
 10
88.832752
 20
167.829866
 30
0.0
 10
88.832752
 20
167.462114
 30
0.0
 10
88.914046
 20
167.145720
 30
0.0
 10
89.077492
 20
166.880121
 30
0.0
  0
SPLINE
  5
1b8
100
AcDbEntity
  8
Layer_1
 62
7
100
AcDbSpline
 70
8
 71
3
 72
8
 73
4
 74
0
 40
0
 40
0
 40
0
 40
0
 40
1
 40
1
 40
1
 40
1
 10
89.077492
 20
166.880121
 30
0.0
 10
89.108844
 20
166.838318
 30
0.0
 10
89.144548
 20
166.805106
 30
0.0
 10
89.179465
 20
166.770430
 30
0.0
  0
LWPOLYLINE
  5
1b9
100
AcDbEntity
  8
Layer_1
 62
7
100
AcDbPolyline
 90
2
 70
0
 10
47.888480
 20
173.468799
 30
0.0
 10
47.888480
 20
173.468799
 30
0.0
  0
SPLINE
  5
1ba
100
AcDbEntity
  8
Layer_1
 62
7
100
AcDbSpline
 70
8
 71
3
 72
8
 73
4
 74
0
 40
0
 40
0
 40
0
 40
0
 40
1
 40
1
 40
1
 40
1
 10
84.902034
 20
166.770430
 30
0.0
 10
86.047679
 20
167.131431
 30
0.0
 10
87.537908
 20
168.457424
 30
0.0
 10
89.371289
 20
170.746345
 30
0.0
  0
LWPOLYLINE
  5
1bb
100
AcDbEntity
  8
Layer_1
 62
7
100
AcDbPolyline
 90
2
 70
0
 10
89.179465
 20
166.770430
 30
0.0
 10
84.902034
 20
166.770430
 30
0.0
  0
SPLINE
  5
1bc
100
AcDbEntity
  8
Layer_1
 62
7
100
AcDbSpline
 70
8
 71
3
 72
8
 73
4
 74
0
 40
0
 40
0
 40
0
 40
0
 40
1
 40
1
 40
1
 40
1
 10
109.559547
 20
169.916214
 30
0.0
 10
109.381691
 20
169.431681
 30
0.0
 10
109.290005
 20
168.970583
 30
0.0
 10
109.290005
 20
168.534869
 30
0.0
  0
SPLINE
  5
1bd
100
AcDbEntity
  8
Layer_1
 62
7
100
AcDbSpline
 70
8
 71
3
 72
8
 73
4
 74
0
 40
0
 40
0
 40
0
 40
0
 40
1
 40
1
 40
1
 40
1
 10
109.290005
 20
168.534869
 30
0.0
 10
109.290005
 20
167.860654
 30
0.0
 10
109.566301
 20
167.319603
 30
0.0
 10
110.117930
 20
166.910990
 30
0.0
  0
SPLINE
  5
1be
100
AcDbEntity
  8
Layer_1
 62
7
100
AcDbSpline
 70
8
 71
3
 72
8
 73
4
 74
0
 40
0
 40
0
 40
0
 40
0
 40
1
 40
1
 40
1
 40
1
 10
110.117930
 20
166.910990
 30
0.0
 10
110.189721
 20
166.860139
 30
0.0
 10
110.261891
 20
166.813835
 30
0.0
 10
110.334558
 20
166.770430
 30
0.0
  0
LWPOLYLINE
  5
1bf
100
AcDbEntity
  8
Layer_1
 62
7
100
AcDbPolyline
 90
3
 70
0
 10
89.371289
 20
170.746345
 30
0.0
 10
90.242209
 20
171.660813
 30
0.0
 10
90.242209
 20
171.660813
 30
0.0
  0
SPLINE
  5
1c0
100
AcDbEntity
  8
Layer_1
 62
7
100
AcDbSpline
 70
8
 71
3
 72
8
 73
4
 74
0
 40
0
 40
0
 40
0
 40
0
 40
1
 40
1
 40
1
 40
1
 10
105.395118
 20
166.770430
 30
0.0
 10
105.918279
 20
167.031886
 30
0.0
 10
106.478194
 20
167.373787
 30
0.0
 10
107.077425
 20
167.799547
 30
0.0
  0
SPLINE
  5
1c1
100
AcDbEntity
  8
Layer_1
 62
7
100
AcDbSpline
 70
8
 71
3
 72
8
 73
4
 74
0
 40
0
 40
0
 40
0
 40
0
 40
1
 40
1
 40
1
 40
1
 10
107.077425
 20
167.799547
 30
0.0
 10
107.979554
 20
168.443928
 30
0.0
 10
108.805235
 20
169.150906
 30
0.0
 10
109.559547
 20
169.916214
 30
0.0
  0
LWPOLYLINE
  5
1c2
100
AcDbEntity
  8
Layer_1
 62
7
100
AcDbPolyline
 90
2
 70
0
 10
110.334558
 20
166.770430
 30
0.0
 10
105.395118
 20
166.770430
 30
0.0
  0
SPLINE
  5
1c3
100
AcDbEntity
  8
Layer_1
 62
7
100
AcDbSpline
 70
8
 71
3
 72
8
 73
4
 74
0
 40
0
 40
0
 40
0
 40
0
 40
1
 40
1
 40
1
 40
1
 10
75.917227
 20
169.905743
 30
0.0
 10
75.741931
 20
169.425057
 30
0.0
 10
75.651541
 20
168.967436
 30
0.0
 10
75.651541
 20
168.534869
 30
0.0
  0
SPLINE
  5
1c4
100
AcDbEntity
  8
Layer_1
 62
7
100
AcDbSpline
 70
8
 71
3
 72
8
 73
4
 74
0
 40
0
 40
0
 40
0
 40
0
 40
1
 40
1
 40
1
 40
1
 10
75.651541
 20
168.534869
 30
0.0
 10
75.651541
 20
167.860654
 30
0.0
 10
75.927286
 20
167.319603
 30
0.0
 10
76.478915
 20
166.910990
 30
0.0
  0
SPLINE
  5
1c5
100
AcDbEntity
  8
Layer_1
 62
7
100
AcDbSpline
 70
8
 71
3
 72
8
 73
4
 74
0
 40
0
 40
0
 40
0
 40
0
 40
1
 40
1
 40
1
 40
1
 10
76.478915
 20
166.910990
 30
0.0
 10
76.550706
 20
166.860139
 30
0.0
 10
76.622876
 20
166.813835
 30
0.0
 10
76.695543
 20
166.770430
 30
0.0
  0
LWPOLYLINE
  5
1c6
100
AcDbEntity
  8
Layer_1
 62
7
100
AcDbPolyline
 90
2
 70
0
 10
109.559547
 20
169.916214
 30
0.0
 10
109.559547
 20
169.916214
 30
0.0
  0
SPLINE
  5
1c7
100
AcDbEntity
  8
Layer_1
 62
7
100
AcDbSpline
 70
8
 71
3
 72
8
 73
4
 74
0
 40
0
 40
0
 40
0
 40
0
 40
1
 40
1
 40
1
 40
1
 10
72.252747
 20
166.770430
 30
0.0
 10
72.264770
 20
166.775284
 30
0.0
 10
72.281720
 20
166.783327
 30
0.0
 10
72.293536
 20
166.788068
 30
0.0
  0
SPLINE
  5
1c8
100
AcDbEntity
  8
Layer_1
 62
7
100
AcDbSpline
 70
8
 71
3
 72
8
 73
4
 74
0
 40
0
 40
0
 40
0
 40
0
 40
1
 40
1
 40
1
 40
1
 10
72.293536
 20
166.788068
 30
0.0
 10
72.497846
 20
166.890222
 30
0.0
 10
72.732942
 20
167.043474
 30
0.0
 10
72.998542
 20
167.247783
 30
0.0
  0
SPLINE
  5
1c9
100
AcDbEntity
  8
Layer_1
 62
7
100
AcDbSpline
 70
8
 71
3
 72
8
 73
4
 74
0
 40
0
 40
0
 40
0
 40
0
 40
1
 40
1
 40
1
 40
1
 10
72.998542
 20
167.247783
 30
0.0
 10
73.264141
 20
167.452089
 30
0.0
 10
73.468478
 20
167.605342
 30
0.0
 10
73.611492
 20
167.707495
 30
0.0
  0
SPLINE
  5
1ca
100
AcDbEntity
  8
Layer_1
 62
7
100
AcDbSpline
 70
8
 71
3
 72
8
 73
4
 74
0
 40
0
 40
0
 40
0
 40
0
 40
1
 40
1
 40
1
 40
1
 10
73.611492
 20
167.707495
 30
0.0
 10
73.754511
 20
167.809648
 30
0.0
 10
73.958845
 20
167.983226
 30
0.0
 10
74.224444
 20
168.228395
 30
0.0
  0
SPLINE
  5
1cb
100
AcDbEntity
  8
Layer_1
 62
7
100
AcDbSpline
 70
8
 71
3
 72
8
 73
4
 74
0
 40
0
 40
0
 40
0
 40
0
 40
1
 40
1
 40
1
 40
1
 10
74.224444
 20
168.228395
 30
0.0
 10
74.510474
 20
168.493994
 30
0.0
 10
74.704375
 20
168.667570
 30
0.0
 10
74.806528
 20
168.749293
 30
0.0
  0
SPLINE
  5
1cc
100
AcDbEntity
  8
Layer_1
 62
7
100
AcDbSpline
 70
8
 71
3
 72
8
 73
4
 74
0
 40
0
 40
0
 40
0
 40
0
 40
1
 40
1
 40
1
 40
1
 10
74.806528
 20
168.749293
 30
0.0
 10
74.908681
 20
168.851446
 30
0.0
 10
75.092693
 20
169.045897
 30
0.0
 10
75.358295
 20
169.331926
 30
0.0
  0
SPLINE
  5
1cd
100
AcDbEntity
  8
Layer_1
 62
7
100
AcDbSpline
 70
8
 71
3
 72
8
 73
4
 74
0
 40
0
 40
0
 40
0
 40
0
 40
1
 40
1
 40
1
 40
1
 10
75.358295
 20
169.331926
 30
0.0
 10
75.499285
 20
169.472919
 30
0.0
 10
75.731559
 20
169.715111
 30
0.0
 10
75.917227
 20
169.905743
 30
0.0
  0
LWPOLYLINE
  5
1ce
100
AcDbEntity
  8
Layer_1
 62
7
100
AcDbPolyline
 90
2
 70
0
 10
76.695543
 20
166.770430
 30
0.0
 10
72.252747
 20
166.770430
 30
0.0
  0
SPLINE
  5
1cf
100
AcDbEntity
  8
Layer_1
 62
7
100
AcDbSpline
 70
8
 71
3
 72
8
 73
4
 74
0
 40
0
 40
0
 40
0
 40
0
 40
1
 40
1
 40
1
 40
1
 10
100.876255
 20
169.853377
 30
0.0
 10
100.699753
 20
169.361153
 30
0.0
 10
100.611119
 20
168.890915
 30
0.0
 10
100.611119
 20
168.442816
 30
0.0
  0
SPLINE
  5
1d0
100
AcDbEntity
  8
Layer_1
 62
7
100
AcDbSpline
 70
8
 71
3
 72
8
 73
4
 74
0
 40
0
 40
0
 40
0
 40
0
 40
1
 40
1
 40
1
 40
1
 10
100.611119
 20
168.442816
 30
0.0
 10
100.611119
 20
167.732720
 30
0.0
 10
100.883585
 20
167.175830
 30
0.0
 10
101.425265
 20
166.770430
 30
0.0
  0
LWPOLYLINE
  5
1d1
100
AcDbEntity
  8
Layer_1
 62
7
100
AcDbPolyline
 90
2
 70
0
 10
75.917227
 20
169.905743
 30
0.0
 10
75.917227
 20
169.905743
 30
0.0
  0
SPLINE
  5
1d2
100
AcDbEntity
  8
Layer_1
 62
7
100
AcDbSpline
 70
8
 71
3
 72
8
 73
4
 74
0
 40
0
 40
0
 40
0
 40
0
 40
1
 40
1
 40
1
 40
1
 10
97.309892
 20
166.770430
 30
0.0
 10
98.210988
 20
167.234516
 30
0.0
 10
99.400337
 20
168.263602
 30
0.0
 10
100.876255
 20
169.853377
 30
0.0
  0
LWPOLYLINE
  5
1d3
100
AcDbEntity
  8
Layer_1
 62
7
100
AcDbPolyline
 90
2
 70
0
 10
101.425265
 20
166.770430
 30
0.0
 10
97.309892
 20
166.770430
 30
0.0
  0
SPLINE
  5
1d4
100
AcDbEntity
  8
Layer_1
 62
7
100
AcDbSpline
 70
8
 71
3
 72
8
 73
4
 74
0
 40
0
 40
0
 40
0
 40
0
 40
1
 40
1
 40
1
 40
1
 10
82.546692
 20
169.821957
 30
0.0
 10
82.464969
 20
169.474635
 30
0.0
 10
82.424324
 20
169.127485
 30
0.0
 10
82.424324
 20
168.780159
 30
0.0
  0
SPLINE
  5
1d5
100
AcDbEntity
  8
Layer_1
 62
7
100
AcDbSpline
 70
8
 71
3
 72
8
 73
4
 74
0
 40
0
 40
0
 40
0
 40
0
 40
1
 40
1
 40
1
 40
1
 10
82.424324
 20
168.780159
 30
0.0
 10
82.424324
 20
167.789971
 30
0.0
 10
82.865581
 20
167.121017
 30
0.0
 10
83.745036
 20
166.770430
 30
0.0
  0
LWPOLYLINE
  5
1d6
100
AcDbEntity
  8
Layer_1
 62
7
100
AcDbPolyline
 90
2
 70
0
 10
100.876255
 20
169.853377
 30
0.0
 10
100.876255
 20
169.853377
 30
0.0
  0
SPLINE
  5
1d7
100
AcDbEntity
  8
Layer_1
 62
7
100
AcDbSpline
 70
8
 71
3
 72
8
 73
4
 74
0
 40
0
 40
0
 40
0
 40
0
 40
1
 40
1
 40
1
 40
1
 10
79.051988
 20
166.770430
 30
0.0
 10
79.498150
 20
167.035857
 30
0.0
 10
80.028632
 20
167.438407
 30
0.0
 10
80.646654
 20
167.983105
 30
0.0
  0
LWPOLYLINE
  5
1d8
100
AcDbEntity
  8
Layer_1
 62
7
100
AcDbPolyline
 90
2
 70
0
 10
83.745036
 20
166.770430
 30
0.0
 10
79.051988
 20
166.770430
 30
0.0
  0
SPLINE
  5
1d9
100
AcDbEntity
  8
Layer_1
 62
7
100
AcDbSpline
 70
8
 71
3
 72
8
 73
4
 74
0
 40
0
 40
0
 40
0
 40
0
 40
1
 40
1
 40
1
 40
1
 10
116.185707
 20
169.821957
 30
0.0
 10
116.103984
 20
169.474635
 30
0.0
 10
116.062785
 20
169.127485
 30
0.0
 10
116.062785
 20
168.780159
 30
0.0
  0
SPLINE
  5
1da
100
AcDbEntity
  8
Layer_1
 62
7
100
AcDbSpline
 70
8
 71
3
 72
8
 73
4
 74
0
 40
0
 40
0
 40
0
 40
0
 40
1
 40
1
 40
1
 40
1
 10
116.062785
 20
168.780159
 30
0.0
 10
116.062785
 20
167.789957
 30
0.0
 10
116.504568
 20
167.121012
 30
0.0
 10
117.384048
 20
166.770430
 30
0.0
  0
LWPOLYLINE
  5
1db
100
AcDbEntity
  8
Layer_1
 62
7
100
AcDbPolyline
 90
3
 70
0
 10
80.646654
 20
167.983105
 30
0.0
 10
82.546692
 20
169.821957
 30
0.0
 10
82.546692
 20
169.821957
 30
0.0
  0
SPLINE
  5
1dc
100
AcDbEntity
  8
Layer_1
 62
7
100
AcDbSpline
 70
8
 71
3
 72
8
 73
4
 74
0
 40
0
 40
0
 40
0
 40
0
 40
1
 40
1
 40
1
 40
1
 10
112.690453
 20
166.770430
 30
0.0
 10
113.136615
 20
167.035857
 30
0.0
 10
113.667647
 20
167.438407
 30
0.0
 10
114.285669
 20
167.983105
 30
0.0
  0
LWPOLYLINE
  5
1dd
100
AcDbEntity
  8
Layer_1
 62
7
100
AcDbPolyline
 90
2
 70
0
 10
117.384048
 20
166.770430
 30
0.0
 10
112.690453
 20
166.770430
 30
0.0
  0
SPLINE
  5
1de
100
AcDbEntity
  8
Layer_1
 62
7
100
AcDbSpline
 70
8
 71
3
 72
8
 73
4
 74
0
 40
0
 40
0
 40
0
 40
0
 40
1
 40
1
 40
1
 40
1
 10
50.278549
 20
168.412500
 30
0.0
 10
50.617162
 20
167.770919
 30
0.0
 10
51.045951
 20
167.225462
 30
0.0
 10
51.559023
 20
166.770430
 30
0.0
  0
LWPOLYLINE
  5
1df
100
AcDbEntity
  8
Layer_1
 62
7
100
AcDbPolyline
 90
3
 70
0
 10
114.285669
 20
167.983105
 30
0.0
 10
116.185707
 20
169.821957
 30
0.0
 10
116.185707
 20
169.821957
 30
0.0
  0
SPLINE
  5
1e0
100
AcDbEntity
  8
Layer_1
 62
7
100
AcDbSpline
 70
8
 71
3
 72
8
 73
4
 74
0
 40
0
 40
0
 40
0
 40
0
 40
1
 40
1
 40
1
 40
1
 10
48.108416
 20
166.770430
 30
0.0
 10
48.742400
 20
167.187297
 30
0.0
 10
49.463932
 20
167.732333
 30
0.0
 10
50.278549
 20
168.412500
 30
0.0
  0
LWPOLYLINE
  5
1e1
100
AcDbEntity
  8
Layer_1
 62
7
100
AcDbPolyline
 90
2
 70
0
 10
51.559023
 20
166.770430
 30
0.0
 10
48.108416
 20
166.770430
 30
0.0
  0
LWPOLYLINE
  5
1e2
100
AcDbEntity
  8
Layer_1
 62
7
100
AcDbPolyline
 90
2
 70
0
 10
50.278549
 20
168.412500
 30
0.0
 10
50.278549
 20
168.412500
 30
0.0
  0
ENDSEC
  0
SECTION
  2
OBJECTS
  0
DICTIONARY
  5
C
330
0
100
AcDbDictionary
  3
ACAD_GROUP
350
D
  3
ACAD_MLINESTYLE
350
17
  0
DICTIONARY
  5
D
330
C
100
AcDbDictionary
  0
DICTIONARY
  5
1A
330
C
100
AcDbDictionary
  0
DICTIONARY
  5
17
330
C
100
AcDbDictionary
  3
STANDARD
350
18
  0
DICTIONARY
  5
19
330
C
100
AcDbDictionary
  0
ENDSEC
  0
EOF
