<?xml version="1.0" encoding="UTF-8" standalone="no"?>
<!-- Created with Inkscape (http://www.inkscape.org/) -->

<svg
   xmlns:dc="http://purl.org/dc/elements/1.1/"
   xmlns:cc="http://creativecommons.org/ns#"
   xmlns:rdf="http://www.w3.org/1999/02/22-rdf-syntax-ns#"
   xmlns:svg="http://www.w3.org/2000/svg"
   xmlns="http://www.w3.org/2000/svg"
   xmlns:sodipodi="http://sodipodi.sourceforge.net/DTD/sodipodi-0.dtd"
   xmlns:inkscape="http://www.inkscape.org/namespaces/inkscape"
   width="210mm"
   height="297mm"
   viewBox="0 0 744.09448819 1052.3622047"
   id="svg2"
   version="1.1"
   inkscape:version="0.91 r13725"
   sodipodi:docname="bianca_text.svg">
  <defs
     id="defs4" />
  <sodipodi:namedview
     id="base"
     pagecolor="#ffffff"
     bordercolor="#666666"
     borderopacity="1.0"
     inkscape:pageopacity="0.0"
     inkscape:pageshadow="2"
     inkscape:zoom="1.979899"
     inkscape:cx="254.1115"
     inkscape:cy="618.40842"
     inkscape:document-units="mm"
     inkscape:current-layer="layer1"
     showgrid="false"
     inkscape:window-width="1440"
     inkscape:window-height="837"
     inkscape:window-x="-4"
     inkscape:window-y="-4"
     inkscape:window-maximized="1" />
  <metadata
     id="metadata7">
    <rdf:RDF>
      <cc:Work
         rdf:about="">
        <dc:format>image/svg+xml</dc:format>
        <dc:type
           rdf:resource="http://purl.org/dc/dcmitype/StillImage" />
        <dc:title></dc:title>
      </cc:Work>
    </rdf:RDF>
  </metadata>
  <g
     inkscape:label="Layer 1"
     inkscape:groupmode="layer"
     id="layer1">
    <path
       style="font-style:normal;font-variant:normal;font-weight:normal;font-stretch:normal;font-size:medium;line-height:125%;font-family:'Alex Brush';-inkscape-font-specification:'Alex Brush';letter-spacing:0px;word-spacing:0px;fill:#000000;fill-opacity:1;stroke:none;stroke-width:1px;stroke-linecap:butt;stroke-linejoin:miter;stroke-opacity:1"
       d="M 222.02344 389.49414 C 209.57196 389.49414 198.45851 391.59421 188.68555 395.79297 C 183.98004 397.81995 179.74682 400.46304 175.98242 403.7207 C 170.91496 408.13664 168.38086 412.84087 168.38086 417.83594 C 168.38086 422.83101 170.62496 425.83612 175.11328 426.84961 C 175.9096 426.84961 176.12564 426.74061 175.76367 426.52344 C 174.67779 425.65472 173.91872 424.9307 173.48438 424.35156 C 172.39848 422.9761 171.85547 421.23805 171.85547 419.13867 C 171.85547 416.09819 173.91856 412.44302 178.04492 408.17188 C 182.24368 403.90071 186.65986 400.67958 191.29297 398.50781 C 200.41441 394.16427 210.72985 391.99219 222.24023 391.99219 C 229.55186 391.99219 235.30711 393.07823 239.50586 395.25 C 244.35615 397.71134 246.78125 401.44047 246.78125 406.43555 C 246.78125 408.46253 246.34722 410.74166 245.47852 413.27539 C 244.10306 417.18458 240.91694 420.11767 235.92188 422.07227 C 232.01269 423.59251 227.67047 424.35156 222.89258 424.35156 C 221.7343 424.35156 220.35826 424.27956 218.76562 424.13477 C 218.18649 423.91759 217.68045 423.73658 217.24609 423.5918 C 216.81174 423.44701 216.19476 423.22903 215.39844 422.93945 C 214.67452 422.64989 213.91546 422.50586 213.11914 422.50586 C 211.74369 422.50586 210.62066 423.0119 209.75195 424.02539 C 209.46239 424.31496 209.31836 424.64194 209.31836 425.00391 C 209.31836 425.94501 210.91044 426.63205 214.0957 427.06641 C 217.28097 427.42837 219.59708 427.71837 221.04492 427.93555 C 224.15779 429.02143 226.72887 430.75948 228.75586 433.14844 C 230.85524 435.46499 231.9043 437.92513 231.9043 440.53125 C 231.9043 443.13738 231.32625 445.49046 230.16797 447.58984 C 227.56184 452.51252 223.61472 456.67568 218.33008 460.07812 C 217.54225 460.57457 216.75429 461.02093 215.96484 461.44336 L 190.29688 461.44336 C 187.20014 459.25882 184.5951 456.0972 182.49609 451.93359 C 189.37337 445.85263 196.86666 437.16625 204.97461 425.87305 C 206.13288 424.28042 209.75302 420.51431 215.83398 414.57812 C 221.98733 408.56957 226.14854 404.95137 228.32031 403.7207 C 230.41969 403.50352 231.4707 402.74251 231.4707 401.43945 C 231.4707 400.57075 230.99969 399.84672 230.05859 399.26758 C 229.18989 398.68844 228.06686 398.39844 226.69141 398.39844 C 225.31595 398.39844 223.97689 398.65341 222.67383 399.16016 C 218.98182 400.608 211.20047 409.04137 199.32812 424.46094 L 189.66406 437.49023 C 186.04445 442.41291 183.18532 445.99802 181.08594 448.24219 L 177.82812 437.81641 C 176.74224 434.34157 175.14821 432.60547 173.04883 432.60547 C 172.46969 432.60547 171.63861 432.78647 170.55273 433.14844 C 168.16378 434.16192 165.37667 437.45508 162.19141 443.0293 C 159.00615 448.60351 157.41211 453.30969 157.41211 457.14648 C 157.41211 460.98328 158.49816 463.4804 160.66992 464.63867 C 160.95325 464.78034 161.28006 464.85895 161.625 464.9082 L 161.625 467.50391 L 427.29492 467.50391 L 427.29492 461.44336 L 420.02734 461.44336 C 424.73177 459.96095 431.06763 453.90326 439.04492 443.24609 C 439.69646 442.37739 440.02344 441.69034 440.02344 441.18359 C 440.02344 440.60445 439.87746 440.31445 439.58789 440.31445 C 439.29832 440.31445 439.0453 440.45848 438.82812 440.74805 C 428.83799 453.19953 421.96167 459.42578 418.19727 459.42578 C 416.96659 459.42578 416.17055 458.59276 415.80859 456.92773 C 415.73619 456.71055 415.69922 456.49452 415.69922 456.27734 C 415.69922 453.67122 417.94331 449.07403 422.43164 442.48633 C 426.91997 435.82623 429.16406 432.31509 429.16406 431.95312 C 429.16406 431.59118 428.80205 431.08513 428.07812 430.43359 C 427.35422 429.78207 426.59318 429.45508 425.79688 429.45508 L 424.27734 429.78125 C 424.20494 429.78125 424.09596 429.60024 423.95117 429.23828 C 423.80639 428.80393 423.62538 428.29789 423.4082 427.71875 C 422.61188 426.05372 421.01981 425.2207 418.63086 425.2207 C 412.47751 425.2207 405.70824 428.91285 398.32422 436.29688 C 396.08737 438.51178 394.19596 440.63125 392.63672 442.66016 C 392.4906 442.75946 392.35067 442.87569 392.22266 443.0293 C 389.32696 446.86609 385.20078 450.92026 379.84375 455.19141 C 374.79441 459.149 370.5253 461.21605 367.01953 461.44336 L 365.59375 461.44336 C 364.29973 461.30482 363.25608 460.81665 362.46875 459.96875 C 361.60004 458.95526 361.16602 458.05022 361.16602 457.25391 C 361.16602 456.45759 361.31004 455.26256 361.59961 453.66992 C 361.96158 452.0773 362.5046 450.7032 363.22852 449.54492 L 367.46289 443.35547 C 368.76596 441.54566 371.15603 439.30156 374.63086 436.62305 C 378.17809 433.94453 380.9652 432.49647 382.99219 432.2793 C 383.20937 432.2793 383.31836 432.3513 383.31836 432.49609 C 383.31836 432.56849 382.81037 433.43654 381.79688 435.10156 C 380.85577 436.6942 380.38672 437.88923 380.38672 438.68555 C 380.38672 439.84383 381.32678 440.42383 383.20898 440.42383 C 385.09118 440.42383 386.50226 439.59081 387.44336 437.92578 C 388.38446 436.18837 388.85547 434.5593 388.85547 433.03906 C 388.85547 431.44643 388.31245 430.21636 387.22656 429.34766 C 386.21307 428.40656 384.874 427.93555 383.20898 427.93555 C 378.14152 427.93555 372.42326 431.26569 366.05273 437.92578 C 364.25656 439.8036 362.72334 441.61597 361.43359 443.36719 C 361.10907 443.60783 360.53728 444.21659 359.7168 445.20117 C 359.35484 445.70792 359.10182 446.03295 358.95703 446.17773 C 351.06626 454.93721 345.52706 459.31641 342.3418 459.31641 C 341.3283 459.31641 340.82227 458.15835 340.82227 455.8418 C 340.82227 453.52524 341.90831 450.63108 344.08008 447.15625 C 346.32424 443.68142 349.03935 440.06128 352.22461 436.29688 C 354.97552 432.74964 356.42358 430.79555 356.56836 430.43359 C 356.71315 430.07163 356.78516 429.70962 356.78516 429.34766 C 356.78516 427.53784 355.77113 426.63281 353.74414 426.63281 C 353.45457 426.63281 353.12954 426.66781 352.76758 426.74023 C 349.14796 426.74023 338.90452 435.1736 322.03711 452.04102 C 323.34017 447.4079 327.24836 440.56857 333.76367 431.51953 C 333.98085 431.08518 334.08984 430.6492 334.08984 430.21484 C 334.08984 428.6946 333.1128 427.93555 331.1582 427.93555 C 330.43428 427.93555 329.74528 428.36957 329.09375 429.23828 C 323.22997 436.18795 319.35876 440.89413 317.47656 443.35547 C 315.52197 445.81681 313.20391 448.38594 310.52539 451.06445 C 310.20475 451.38509 309.98296 451.69374 309.83984 451.99219 C 304.99253 456.9406 301.37702 459.42578 299.00391 459.42578 C 297.77324 459.42578 296.97719 458.59276 296.61523 456.92773 C 296.54283 456.71055 296.50586 456.49452 296.50586 456.27734 C 296.50586 453.67122 298.74995 449.07403 303.23828 442.48633 C 307.7266 435.82623 309.9707 432.31509 309.9707 431.95312 C 309.9707 431.59118 309.60869 431.08513 308.88477 430.43359 C 308.16084 429.78207 307.40178 429.45508 306.60547 429.45508 L 305.08398 429.78125 C 305.01158 429.78125 304.90455 429.60024 304.75977 429.23828 C 304.61499 428.80393 304.43398 428.29789 304.2168 427.71875 C 303.42048 426.05372 301.82645 425.2207 299.4375 425.2207 C 293.28415 425.2207 286.51683 428.91285 279.13281 436.29688 C 276.39278 439.01004 274.16273 441.58156 272.43945 444.01562 C 271.95229 444.29052 271.19724 445.07686 270.16602 446.39453 C 266.61879 450.88286 261.80556 455.01098 255.72461 458.77539 C 253.11848 460.44041 251.0554 461.27148 249.53516 461.27148 C 247.72535 461.27148 246.82031 459.96941 246.82031 457.36328 C 246.82031 454.68477 249.53542 449.83456 254.96484 442.8125 C 255.90594 441.58183 256.88299 440.31478 257.89648 439.01172 C 258.90998 437.63626 259.70602 436.58525 260.28516 435.86133 C 260.8643 435.1374 261.40732 434.48734 261.91406 433.9082 C 262.42081 433.25668 262.85483 432.67667 263.2168 432.16992 C 263.2168 431.59078 262.74579 431.01273 261.80469 430.43359 C 260.93597 429.85445 260.13994 429.56445 259.41602 429.56445 C 256.80989 429.63685 253.37076 433.14799 249.09961 440.09766 C 244.82846 446.97493 242.69336 452.36816 242.69336 456.27734 C 242.69336 458.53522 243.11105 460.25248 243.93555 461.44336 L 224.51562 461.44336 C 230.74204 458.08857 235.03235 453.98342 237.33398 449.10938 C 238.49226 446.7928 239.07227 444.33268 239.07227 441.72656 C 239.07227 437.38302 237.58723 433.76288 234.61914 430.86719 C 231.72345 427.8991 228.14029 426.30702 223.86914 426.08984 C 229.37095 426.01744 234.51116 425.14744 239.28906 423.48242 C 245.65959 421.23826 249.60477 417.9451 251.125 413.60156 C 252.06611 411.21262 252.53711 408.85952 252.53711 406.54297 C 252.53711 400.67919 249.45999 396.29999 243.30664 393.4043 C 238.022 390.79817 230.9277 389.49414 222.02344 389.49414 z M 267.88672 417.94531 C 265.13581 417.94531 263.75977 418.95934 263.75977 420.98633 C 263.75977 421.99982 264.19379 422.90486 265.0625 423.70117 C 266.0036 424.49749 267.01763 424.89453 268.10352 424.89453 C 269.1894 424.89453 270.16645 424.5695 271.03516 423.91797 C 271.97626 423.19405 272.44727 422.36102 272.44727 421.41992 C 272.44727 420.47882 271.94123 419.68278 270.92773 419.03125 C 269.98663 418.30732 268.97261 417.94531 267.88672 417.94531 z M 301.17578 429.23828 C 302.47885 429.23828 303.41891 429.74432 303.99805 430.75781 L 292.48828 446.61328 C 285.24905 455.80711 279.53078 460.40234 275.33203 460.40234 C 273.52222 460.40234 272.61719 459.10026 272.61719 456.49414 C 272.61719 452.00581 276.27236 446.35957 283.58398 439.55469 C 290.89561 432.67741 296.75985 429.23828 301.17578 429.23828 z M 420.36914 429.23828 C 421.6722 429.23828 422.61227 429.74432 423.19141 430.75781 L 411.68164 446.61328 C 404.44241 455.80711 398.7222 460.40234 394.52344 460.40234 C 392.71363 460.40234 391.81055 459.10026 391.81055 456.49414 C 391.81055 452.00581 395.46572 446.35957 402.77734 439.55469 C 410.08897 432.67741 415.95321 429.23828 420.36914 429.23828 z M 347.33789 431.84375 L 340.38867 443.13672 C 337.49298 448.20418 336.04492 452.69433 336.04492 456.60352 C 336.04492 458.88362 336.65259 460.49317 337.85938 461.44336 L 319.38086 461.44336 C 320.3071 460.50136 321.6962 458.84269 323.66602 456.27734 C 326.85128 452.22337 330.36243 448.06021 334.19922 443.78906 C 338.03601 439.44552 342.41521 435.46337 347.33789 431.84375 z M 169.68359 437.70898 C 171.42101 437.70898 173.73712 442.5222 176.63281 452.15039 L 176.95898 452.58398 C 172.45055 457.09241 168.96697 460.02037 166.45898 461.44336 L 162.27344 461.44336 C 161.50748 459.9746 161.10547 458.36687 161.10547 456.60352 C 161.10547 451.89802 163.78359 445.67176 169.14062 437.92578 C 169.43021 437.78099 169.6112 437.70898 169.68359 437.70898 z M 319.75586 444.11523 C 318.30801 447.30049 317.11296 450.01561 316.17188 452.25977 C 315.23077 454.50393 314.76172 456.314 314.76172 457.68945 C 314.76172 458.99251 315.04977 460.11359 315.62891 461.05469 C 315.74 461.20281 315.86651 461.32049 315.99023 461.44336 L 300.83398 461.44336 C 304.89335 460.16422 310.17369 455.46582 316.66992 447.35547 L 319.75586 444.11523 z M 388.20312 450.29688 C 387.57292 452.01373 387.24805 453.64754 387.24805 455.19141 C 387.24805 457.58036 388.22705 459.49747 390.18164 460.94531 C 390.43602 461.12549 390.69174 461.28956 390.94922 461.44336 L 373.44727 461.44336 C 375.30099 460.51694 377.28494 459.3055 379.4082 457.79688 C 382.60472 455.51364 385.53034 453.0086 388.20312 450.29688 z M 268.99805 450.33398 C 268.37692 452.0372 268.05664 453.65869 268.05664 455.19141 C 268.05664 457.58036 269.03369 459.49747 270.98828 460.94531 C 271.24266 461.12549 271.49838 461.28956 271.75586 461.44336 L 256.01367 461.44336 C 256.05627 461.42616 256.11633 461.39766 256.1582 461.38086 C 256.88213 461.0189 257.71515 460.47588 258.65625 459.75195 C 259.59735 459.02803 260.32138 458.48501 260.82812 458.12305 C 261.33488 457.76109 262.0589 457.14605 263 456.27734 C 264.01349 455.33624 264.70054 454.72121 265.0625 454.43164 C 265.42446 454.06968 266.07647 453.38068 267.01758 452.36719 C 267.51715 451.86761 268.34017 451.00945 268.99805 450.33398 z M 357.43555 450.51953 C 356.81015 452.26363 356.49609 453.92983 356.49609 455.51758 C 356.49609 458.03367 357.46152 460.0069 359.38086 461.44336 L 344.79883 461.44336 C 347.99169 459.79896 352.20592 456.15259 357.43555 450.51953 z M 292.48828 450.63086 C 292.19871 451.86153 292.05469 453.09159 292.05469 454.32227 C 292.05469 457.83081 293.6182 460.20112 296.73438 461.44336 L 280.10547 461.44336 C 281.68636 460.50287 283.56602 459.07651 285.75586 457.14648 L 292.48828 450.63086 z M 411.68164 450.63086 C 411.39207 451.86153 411.24609 453.09159 411.24609 454.32227 C 411.24609 457.83086 412.81146 460.20114 415.92773 461.44336 L 399.29688 461.44336 C 400.87777 460.50287 402.75938 459.07651 404.94922 457.14648 L 411.68164 450.63086 z M 178.15234 455.625 C 179.35215 457.89832 180.87148 459.83104 182.68945 461.44336 L 170.46289 461.44336 C 172.70929 459.96627 175.2659 458.03504 178.15234 455.625 z "
       id="path4150" />
  </g>
</svg>
