<?xml version="1.0" encoding="UTF-8" standalone="no"?>
<!-- Created with Inkscape (http://www.inkscape.org/) -->

<svg
   xmlns:dc="http://purl.org/dc/elements/1.1/"
   xmlns:cc="http://creativecommons.org/ns#"
   xmlns:rdf="http://www.w3.org/1999/02/22-rdf-syntax-ns#"
   xmlns:svg="http://www.w3.org/2000/svg"
   xmlns="http://www.w3.org/2000/svg"
   xmlns:sodipodi="http://sodipodi.sourceforge.net/DTD/sodipodi-0.dtd"
   xmlns:inkscape="http://www.inkscape.org/namespaces/inkscape"
   id="svg4166"
   version="1.1"
   inkscape:version="0.91 r13725"
   width="287.5"
   height="323.75"
   viewBox="0 0 287.5 323.75"
   sodipodi:docname="agnes-silhouette-image-2.svg">
  <sodipodi:namedview
     pagecolor="#ffffff"
     bordercolor="#666666"
     borderopacity="1"
     objecttolerance="10"
     gridtolerance="10"
     guidetolerance="10"
     inkscape:pageopacity="0"
     inkscape:pageshadow="2"
     inkscape:window-width="1360"
     inkscape:window-height="746"
     id="namedview4168"
     showgrid="false"
     inkscape:zoom="1.4579151"
     inkscape:cx="207.72462"
     inkscape:cy="124.12502"
     inkscape:window-x="1432"
     inkscape:window-y="-8"
     inkscape:window-maximized="1"
     inkscape:current-layer="svg4166" />
  <metadata
     id="metadata4172">
    <rdf:RDF>
      <cc:Work
         rdf:about="">
        <dc:format>image/svg+xml</dc:format>
        <dc:type
           rdf:resource="http://purl.org/dc/dcmitype/StillImage" />
        <dc:title></dc:title>
      </cc:Work>
    </rdf:RDF>
  </metadata>
  <defs
     id="defs4170" />
  <path
     id="path4716"
     d="M53.261719 235.83008L50.367188 236.21484L48.561620125 236.983501406L46.9689225 238.13375625L45.501627125 239.744475469L44.072266 241.89453L42.599609 244.08594L41.763898375 245.49522625L41.486328 247.92578L41.310525375 249.8070125L41.0251577344 250.006450625L40.544922 249.83984L39.86656325 248.97949375L39.626953 247.44336L39.55155675 246.71228375L39.220703 246.54688L38.629991875 246.92357125L38.388672 247.8457L37.940867 248.8899475L36.914062 249.51172L35.892578 249.96875L34.849609 250.34766L33.994141 250.43359L33.890625 251.02148L34.0437182656 251.448112969L34.475006125 251.70603625L36.740234 251.88867L38.994141 252.16797L40.09375 253.45312L41.291016 255.10938L41.888672 255.73438L41.376953 256.69727L40.898317375 257.9245525L41.351562 258.88086L41.839844 259.54102L41.488281 260.85156L40.667969 262.91992L40.32141125 263.67892875L40.386719 264.44141L40.421875 266.0293L40.321699 270.74541375L40.988281 274.97852L41.419922 277.06055L41.963319125 279.20723375L42.830078 280.4375L44.076172 280.56641L44.986328 280.56641L44.986328 281.375L45.302734 282.50195L45.507812 283.28906L45.885007875 284.59725375L47.03125 285.86914L48.535156 286.33789L49.730109 286.57209875L50.566406 287.49414L51.875 288.62695L52.9476616875 288.943630469L54.0198745 288.93496375L55.0533415625 288.607252656L56.009766 287.9668L57.1110473125 286.302385L57.268022 284.224705L56.5087591875 281.9379925L54.861328 279.64648L53.638672 277.85938L53.337891 276.85352L53.035156 275.45117L52.632812 272.56445L52.13503575 267.47933125L52.1875 263.67969L53.541016 263.51172L55.0 263.52148L55.421875 262.39062L55.890625 260.98242L57.6356395 260.24907375L60.349609 259.5957L60.8904165156 259.743032187L61.320320125 260.20816L62.21875 261.08984L63.529297 261.50195L65.154297 261.63281L66.79660225 261.66438L67.488281 260.80078L67.553055875 260.30589375L67.244141 259.83398L66.806641 259.36914L67.236328 259.23242L67.6510985 258.7514075L67.408203 258.14258L65.992188 257.60352L65.0230498281 257.276308281L64.600495625 256.90202375L64.6579671094 256.304267344L65.128906 255.30664L65.9540981875 253.403114844L66.3675115 251.58062625L66.3837900625 249.714407031L66.017578 247.67969L65.630296125 245.98229125L65.6705960781 245.784820156L65.851562 245.84961L68.376953 246.02148L70.45657775 246.13059875L71.884766 246.53125L73.535156 247.53711L75.579734125 249.308395L77.820312 249.95312L78.278501 249.86403875L78.388672 249.46484L78.492271875 249.07135L79.019531 249.0957L79.52381775 249.13207125L79.521484 248.8125L79.489641625 248.51386L79.748047 248.54102L80.01043525 248.56163L79.984375 248.22266L79.964343125 247.8735525L80.291016 247.90039L80.6337355 247.8870875L80.603516 247.19922L80.728516 246.27344L80.712891 245.91797L80.699219 245.35938L80.708984 244.70117L80.679688 244.13086L80.253906 243.25781L79.625 242.37109L79.285156 241.91016L79.118348875 241.68179875L79.607422 241.5293L80.1302575 241.20065125L79.560547 240.97656L78.91662875 240.8171375L78.697266 240.36133L78.119141 239.98438L77.351562 239.41797L77.059947625 239.02113375L76.486328 238.91406L76.04774775 238.86859375L76.087891 238.73633L76.18406325 238.5695575L75.830078 238.42578L75.294922 237.98633L75.043306625 237.74599125L74.109375 237.68164L69.908402875 238.65589375L65.236328 240.45703L63.525391 241.18555L62.435547 240.22266L61.2343703281 238.973682656L59.697566125 237.82434375L56.134766 236.1582L53.261719 235.83008L53.261719 235.83008"
     style="fill:none;stroke:#ff0000" />
</svg>
