  0
SECTION
  2
HEADER
  9
$ACADVER
  1
AC1014
  9
$HANDSEED
  5
FFFF
  9
$MEASUREMENT
 70
     1
  0
ENDSEC
  0
SECTION
  2
TABLES
  0
TABLE
  2
VPORT
  5
8
330
0
100
AcDbSymbolTable
 70
     4
  0
VPORT
  5
2E
330
8
100
AcDbSymbolTableRecord
100
AcDbViewportTableRecord
  2
*ACTIVE
 70
     0
 10
0.0
 20
0.0
 11
1.0
 21
1.0
 12
210.0
 22
148.5
 13
0.0
 23
0.0
 14
10.0
 24
10.0
 15
10.0
 25
10.0
 16
0.0
 26
0.0
 36
1.0
 17
0.0
 27
0.0
 37
0.0
 40
341.0
 41
1.24
 42
50.0
 43
0.0
 44
0.0
 50
0.0
 51
0.0
 71
     0
 72
   100
 73
     1
 74
     3
 75
     0
 76
     0
 77
     0
 78
     0
  0
ENDTAB
  0
TABLE
  2
LTYPE
  5
5
330
0
100
AcDbSymbolTable
 70
     1
  0
LTYPE
  5
14
330
5
100
AcDbSymbolTableRecord
100
AcDbLinetypeTableRecord
  2
BYBLOCK
 70
     0
  3

 72
    65
 73
     0
 40
0.0
  0
LTYPE
  5
15
330
5
100
AcDbSymbolTableRecord
100
AcDbLinetypeTableRecord
  2
BYLAYER
 70
     0
  3

 72
    65
 73
     0
 40
0.0
  0
LTYPE
  5
16
330
5
100
AcDbSymbolTableRecord
100
AcDbLinetypeTableRecord
  2
CONTINUOUS
 70
     0
  3
Solid line
 72
    65
 73
     0
 40
0.0
  0
ENDTAB
  0
TABLE
  2
LAYER
  5
2
100
AcDbSymbolTable
 70
2
  0
LAYER
  5
50
100
AcDbSymbolTableRecord
100
AcDbLayerTableRecord
  2
0
 70
0
  6
CONTINUOUS
  0
LAYER
  5
51
100
AcDbSymbolTableRecord
100
AcDbLayerTableRecord
  2
Layer_1
 70
0
  6
CONTINUOUS
  0
ENDTAB
  0
TABLE
  2
STYLE
  5
3
330
0
100
AcDbSymbolTable
 70
     1
  0
STYLE
  5
11
330
3
100
AcDbSymbolTableRecord
100
AcDbTextStyleTableRecord
  2
STANDARD
 70
     0
 40
0.0
 41
1.0
 50
0.0
 71
     0
 42
2.5
  3
txt
  4

  0
ENDTAB
  0
TABLE
  2
VIEW
  5
6
330
0
100
AcDbSymbolTable
 70
     0
  0
ENDTAB
  0
TABLE
  2
UCS
  5
7
330
0
100
AcDbSymbolTable
 70
     0
  0
ENDTAB
  0
TABLE
  2
APPID
  5
9
330
0
100
AcDbSymbolTable
 70
     2
  0
APPID
  5
12
330
9
100
AcDbSymbolTableRecord
100
AcDbRegAppTableRecord
  2
ACAD
 70
     0
  0
ENDTAB
  0
TABLE
  2
DIMSTYLE
  5
A
330
0
100
AcDbSymbolTable
 70
     1
  0
DIMSTYLE
105
27
330
A
100
AcDbSymbolTableRecord
100
AcDbDimStyleTableRecord
  2
ISO-25
 70
     0
  3

  4

  5

  6

  7

 40
1.0
 41
2.5
 42
0.625
 43
3.75
 44
1.25
 45
0.0
 46
0.0
 47
0.0
 48
0.0
140
2.5
141
2.5
142
0.0
143
0.03937007874016
144
1.0
145
0.0
146
1.0
147
0.625
 71
     0
 72
     0
 73
     0
 74
     0
 75
     0
 76
     0
 77
     1
 78
     8
170
     0
171
     3
172
     1
173
     0
174
     0
175
     0
176
     0
177
     0
178
     0
270
     2
271
     2
272
     2
273
     2
274
     3
340
11
275
     0
280
     0
281
     0
282
     0
283
     0
284
     8
285
     0
286
     0
287
     3
288
     0
  0
ENDTAB
  0
TABLE
  2
BLOCK_RECORD
  5
1
330
0
100
AcDbSymbolTable
 70
     1
  0
BLOCK_RECORD
  5
1F
330
1
100
AcDbSymbolTableRecord
100
AcDbBlockTableRecord
  2
*MODEL_SPACE
  0
BLOCK_RECORD
  5
1B
330
1
100
AcDbSymbolTableRecord
100
AcDbBlockTableRecord
  2
*PAPER_SPACE
  0
ENDTAB
  0
ENDSEC
  0
SECTION
  2
BLOCKS
  0
BLOCK
  5
20
330
1F
100
AcDbEntity
  8
0
100
AcDbBlockBegin
  2
*MODEL_SPACE
 70
     0
 10
0.0
 20
0.0
 30
0.0
  3
*MODEL_SPACE
  1

  0
ENDBLK
  5
21
330
1F
100
AcDbEntity
  8
0
100
AcDbBlockEnd
  0
BLOCK
  5
1C
330
1B
100
AcDbEntity
 67
     1
  8
0
100
AcDbBlockBegin
  2
*PAPER_SPACE
  1

  0
ENDBLK
  5
1D
330
1B
100
AcDbEntity
 67
     1
  8
0
100
AcDbBlockEnd
  0
ENDSEC
  0
SECTION
  2
ENTITIES
  0
LWPOLYLINE
  5
100
100
AcDbEntity
  8
Layer_1
 62
3
100
AcDbPolyline
 90
8
 70
0
 10
13.495528
 20
237.076654
 30
0.0
 10
13.114383
 20
236.695510
 30
0.0
 10
12.923811
 20
236.123793
 30
0.0
 10
12.923811
 20
235.742648
 30
0.0
 10
13.114383
 20
235.361503
 30
0.0
 10
13.495528
 20
235.361503
 30
0.0
 10
13.876673
 20
235.552076
 30
0.0
 10
14.257817
 20
235.933220
 30
0.0
  0
LWPOLYLINE
  5
101
100
AcDbEntity
  8
Layer_1
 62
3
100
AcDbPolyline
 90
13
 70
0
 10
14.638962
 20
237.076654
 30
0.0
 10
14.257817
 20
235.933220
 30
0.0
 10
14.257817
 20
235.552076
 30
0.0
 10
14.448389
 20
235.361503
 30
0.0
 10
14.829534
 20
235.361503
 30
0.0
 10
15.210679
 20
235.552076
 30
0.0
 10
15.591823
 20
235.933220
 30
0.0
 10
15.782396
 20
236.504937
 30
0.0
 10
15.782396
 20
237.076654
 30
0.0
 10
15.972968
 20
236.314365
 30
0.0
 10
16.163540
 20
236.123793
 30
0.0
 10
16.544685
 20
236.123793
 30
0.0
 10
16.925830
 20
236.314365
 30
0.0
  0
LWPOLYLINE
  5
102
100
AcDbEntity
  8
Layer_1
 62
3
100
AcDbPolyline
 90
8
 70
0
 10
17.497547
 20
237.076654
 30
0.0
 10
17.116402
 20
236.695510
 30
0.0
 10
16.925830
 20
236.123793
 30
0.0
 10
16.925830
 20
235.742648
 30
0.0
 10
17.116402
 20
235.361503
 30
0.0
 10
17.497547
 20
235.361503
 30
0.0
 10
17.878691
 20
235.552076
 30
0.0
 10
18.259836
 20
235.933220
 30
0.0
  0
LWPOLYLINE
  5
103
100
AcDbEntity
  8
Layer_1
 62
3
100
AcDbPolyline
 90
13
 70
0
 10
18.640981
 20
237.076654
 30
0.0
 10
18.259836
 20
235.933220
 30
0.0
 10
18.259836
 20
235.552076
 30
0.0
 10
18.450408
 20
235.361503
 30
0.0
 10
18.831553
 20
235.361503
 30
0.0
 10
19.212698
 20
235.552076
 30
0.0
 10
19.593842
 20
235.933220
 30
0.0
 10
19.784415
 20
236.504937
 30
0.0
 10
19.784415
 20
237.076654
 30
0.0
 10
19.974987
 20
236.314365
 30
0.0
 10
20.165559
 20
236.123793
 30
0.0
 10
20.546704
 20
236.123793
 30
0.0
 10
20.927849
 20
236.314365
 30
0.0
  0
LWPOLYLINE
  5
104
100
AcDbEntity
  8
Layer_1
 62
3
100
AcDbPolyline
 90
8
 70
0
 10
21.499566
 20
237.076654
 30
0.0
 10
21.118421
 20
236.695510
 30
0.0
 10
20.927849
 20
236.123793
 30
0.0
 10
20.927849
 20
235.742648
 30
0.0
 10
21.118421
 20
235.361503
 30
0.0
 10
21.499566
 20
235.361503
 30
0.0
 10
21.880710
 20
235.552076
 30
0.0
 10
22.261855
 20
235.933220
 30
0.0
  0
LWPOLYLINE
  5
105
100
AcDbEntity
  8
Layer_1
 62
3
100
AcDbPolyline
 90
13
 70
0
 10
22.643000
 20
237.076654
 30
0.0
 10
22.261855
 20
235.933220
 30
0.0
 10
22.261855
 20
235.552076
 30
0.0
 10
22.452427
 20
235.361503
 30
0.0
 10
22.833572
 20
235.361503
 30
0.0
 10
23.214717
 20
235.552076
 30
0.0
 10
23.595861
 20
235.933220
 30
0.0
 10
23.786434
 20
236.504937
 30
0.0
 10
23.786434
 20
237.076654
 30
0.0
 10
23.977006
 20
236.314365
 30
0.0
 10
24.167578
 20
236.123793
 30
0.0
 10
24.548723
 20
236.123793
 30
0.0
 10
24.929868
 20
236.314365
 30
0.0
  0
LWPOLYLINE
  5
106
100
AcDbEntity
  8
Layer_1
 62
3
100
AcDbPolyline
 90
5
 70
0
 10
25.882729
 20
235.742648
 30
0.0
 10
25.692157
 20
235.552076
 30
0.0
 10
25.882729
 20
235.361503
 30
0.0
 10
26.073301
 20
235.552076
 30
0.0
 10
25.882729
 20
235.742648
 30
0.0
  0
LWPOLYLINE
  5
107
100
AcDbEntity
  8
Layer_1
 62
3
100
AcDbPolyline
 90
27
 70
0
 10
28.550742
 20
236.504937
 30
0.0
 10
28.360169
 20
236.886082
 30
0.0
 10
27.979025
 20
237.076654
 30
0.0
 10
27.597880
 20
237.076654
 30
0.0
 10
27.216735
 20
236.886082
 30
0.0
 10
27.026163
 20
236.695510
 30
0.0
 10
26.835591
 20
236.314365
 30
0.0
 10
26.835591
 20
235.933220
 30
0.0
 10
27.026163
 20
235.552076
 30
0.0
 10
27.407308
 20
235.361503
 30
0.0
 10
27.788452
 20
235.361503
 30
0.0
 10
28.169597
 20
235.552076
 30
0.0
 10
28.360169
 20
235.933220
 30
0.0
 10
28.741314
 20
237.076654
 30
0.0
 10
28.550742
 20
236.123793
 30
0.0
 10
28.550742
 20
235.552076
 30
0.0
 10
28.741314
 20
235.361503
 30
0.0
 10
28.931886
 20
235.361503
 30
0.0
 10
29.313031
 20
235.552076
 30
0.0
 10
29.503603
 20
235.742648
 30
0.0
 10
29.884748
 20
236.314365
 30
0.0
 10
30.265893
 20
236.886082
 30
0.0
 10
30.647037
 20
237.076654
 30
0.0
 10
30.837610
 20
236.886082
 30
0.0
 10
30.837610
 20
236.695510
 30
0.0
 10
30.647037
 20
235.933220
 30
0.0
 10
30.456465
 20
235.361503
 30
0.0
  0
LWPOLYLINE
  5
108
100
AcDbEntity
  8
Layer_1
 62
3
100
AcDbPolyline
 90
14
 70
0
 10
30.647037
 20
235.933220
 30
0.0
 10
30.837610
 20
236.314365
 30
0.0
 10
31.218754
 20
236.886082
 30
0.0
 10
31.599899
 20
237.076654
 30
0.0
 10
31.981044
 20
237.076654
 30
0.0
 10
32.171616
 20
236.886082
 30
0.0
 10
32.171616
 20
236.504937
 30
0.0
 10
31.981044
 20
235.933220
 30
0.0
 10
31.981044
 20
235.552076
 30
0.0
 10
32.171616
 20
235.361503
 30
0.0
 10
32.362188
 20
235.361503
 30
0.0
 10
32.743333
 20
235.552076
 30
0.0
 10
32.933905
 20
235.742648
 30
0.0
 10
33.315050
 20
236.314365
 30
0.0
  0
LWPOLYLINE
  5
109
100
AcDbEntity
  8
Layer_1
 62
3
100
AcDbPolyline
 90
59
 70
0
 10
35.030201
 20
236.504937
 30
0.0
 10
34.839629
 20
236.886082
 30
0.0
 10
34.458484
 20
237.076654
 30
0.0
 10
34.077339
 20
237.076654
 30
0.0
 10
33.696195
 20
236.886082
 30
0.0
 10
33.505622
 20
236.695510
 30
0.0
 10
33.315050
 20
236.314365
 30
0.0
 10
33.315050
 20
235.933220
 30
0.0
 10
33.505622
 20
235.552076
 30
0.0
 10
33.886767
 20
235.361503
 30
0.0
 10
34.267912
 20
235.361503
 30
0.0
 10
34.649056
 20
235.552076
 30
0.0
 10
34.839629
 20
235.933220
 30
0.0
 10
35.220773
 20
237.076654
 30
0.0
 10
35.030201
 20
236.123793
 30
0.0
 10
35.030201
 20
235.552076
 30
0.0
 10
35.220773
 20
235.361503
 30
0.0
 10
35.411346
 20
235.361503
 30
0.0
 10
35.792490
 20
235.552076
 30
0.0
 10
35.983063
 20
235.742648
 30
0.0
 10
36.364207
 20
236.314365
 30
0.0
 10
37.126497
 20
237.267227
 30
0.0
 10
37.507641
 20
237.838944
 30
0.0
 10
37.698214
 20
238.220088
 30
0.0
 10
37.888786
 20
238.791805
 30
0.0
 10
37.888786
 20
239.172950
 30
0.0
 10
37.698214
 20
239.363522
 30
0.0
 10
37.317069
 20
239.172950
 30
0.0
 10
37.126497
 20
238.791805
 30
0.0
 10
36.745352
 20
237.267227
 30
0.0
 10
36.173635
 20
235.552076
 30
0.0
 10
35.601918
 20
234.218069
 30
0.0
 10
35.411346
 20
233.646352
 30
0.0
 10
35.411346
 20
233.265208
 30
0.0
 10
35.601918
 20
233.074635
 30
0.0
 10
35.983063
 20
233.265208
 30
0.0
 10
36.173635
 20
233.836925
 30
0.0
 10
36.364207
 20
235.552076
 30
0.0
 10
36.554780
 20
235.361503
 30
0.0
 10
36.935924
 20
235.361503
 30
0.0
 10
37.317069
 20
235.552076
 30
0.0
 10
37.507641
 20
235.742648
 30
0.0
 10
37.888786
 20
236.314365
 30
0.0
 10
38.269930
 20
236.886082
 30
0.0
 10
38.841647
 20
237.838944
 30
0.0
 10
39.032220
 20
238.220088
 30
0.0
 10
39.222792
 20
238.791805
 30
0.0
 10
39.222792
 20
239.172950
 30
0.0
 10
39.032220
 20
239.363522
 30
0.0
 10
38.651075
 20
239.172950
 30
0.0
 10
38.460503
 20
238.791805
 30
0.0
 10
38.269930
 20
238.029516
 30
0.0
 10
38.079358
 20
236.695510
 30
0.0
 10
38.079358
 20
235.552076
 30
0.0
 10
38.269930
 20
235.361503
 30
0.0
 10
38.460503
 20
235.361503
 30
0.0
 10
38.841647
 20
235.552076
 30
0.0
 10
39.032220
 20
235.742648
 30
0.0
 10
39.413364
 20
236.314365
 30
0.0
  0
LWPOLYLINE
  5
10a
100
AcDbEntity
  8
Layer_1
 62
3
100
AcDbPolyline
 90
35
 70
0
 10
40.556798
 20
237.076654
 30
0.0
 10
40.175654
 20
237.076654
 30
0.0
 10
39.794509
 20
236.886082
 30
0.0
 10
39.603937
 20
236.695510
 30
0.0
 10
39.413364
 20
236.314365
 30
0.0
 10
39.413364
 20
235.933220
 30
0.0
 10
39.603937
 20
235.552076
 30
0.0
 10
39.985081
 20
235.361503
 30
0.0
 10
40.366226
 20
235.361503
 30
0.0
 10
40.747371
 20
235.552076
 30
0.0
 10
40.937943
 20
235.742648
 30
0.0
 10
41.128515
 20
236.123793
 30
0.0
 10
41.128515
 20
236.504937
 30
0.0
 10
40.937943
 20
236.886082
 30
0.0
 10
40.556798
 20
237.076654
 30
0.0
 10
40.366226
 20
236.886082
 30
0.0
 10
40.366226
 20
236.504937
 30
0.0
 10
40.556798
 20
236.123793
 30
0.0
 10
40.937943
 20
235.933220
 30
0.0
 10
41.509660
 20
235.933220
 30
0.0
 10
41.890805
 20
236.123793
 30
0.0
 10
42.081377
 20
236.314365
 30
0.0
 10
42.462522
 20
236.886082
 30
0.0
 10
42.653094
 20
237.267227
 30
0.0
 10
42.653094
 20
236.886082
 30
0.0
 10
43.224811
 20
236.886082
 30
0.0
 10
43.415383
 20
236.695510
 30
0.0
 10
43.415383
 20
236.314365
 30
0.0
 10
43.224811
 20
235.742648
 30
0.0
 10
43.224811
 20
235.552076
 30
0.0
 10
43.415383
 20
235.361503
 30
0.0
 10
43.605956
 20
235.361503
 30
0.0
 10
43.987100
 20
235.552076
 30
0.0
 10
44.177673
 20
235.742648
 30
0.0
 10
44.558817
 20
236.314365
 30
0.0
  0
LWPOLYLINE
  5
10b
100
AcDbEntity
  8
Layer_1
 62
3
100
AcDbPolyline
 90
5
 70
0
 10
45.511679
 20
235.742648
 30
0.0
 10
45.321107
 20
235.552076
 30
0.0
 10
45.511679
 20
235.361503
 30
0.0
 10
45.702251
 20
235.552076
 30
0.0
 10
45.511679
 20
235.742648
 30
0.0
  0
LWPOLYLINE
  5
10c
100
AcDbEntity
  8
Layer_1
 62
3
100
AcDbPolyline
 90
14
 70
0
 10
46.464541
 20
236.314365
 30
0.0
 10
46.845685
 20
236.886082
 30
0.0
 10
47.036258
 20
237.267227
 30
0.0
 10
47.036258
 20
236.886082
 30
0.0
 10
47.607975
 20
236.886082
 30
0.0
 10
47.798547
 20
236.695510
 30
0.0
 10
47.798547
 20
236.314365
 30
0.0
 10
47.607975
 20
235.742648
 30
0.0
 10
47.607975
 20
235.552076
 30
0.0
 10
47.798547
 20
235.361503
 30
0.0
 10
47.989119
 20
235.361503
 30
0.0
 10
48.370264
 20
235.552076
 30
0.0
 10
48.560836
 20
235.742648
 30
0.0
 10
48.941981
 20
236.314365
 30
0.0
  0
LWPOLYLINE
  5
10d
100
AcDbEntity
  8
Layer_1
 62
3
100
AcDbPolyline
 90
22
 70
0
 10
50.085415
 20
237.076654
 30
0.0
 10
49.704270
 20
237.076654
 30
0.0
 10
49.323126
 20
236.886082
 30
0.0
 10
49.132553
 20
236.695510
 30
0.0
 10
48.941981
 20
236.314365
 30
0.0
 10
48.941981
 20
235.933220
 30
0.0
 10
49.132553
 20
235.552076
 30
0.0
 10
49.513698
 20
235.361503
 30
0.0
 10
49.894842
 20
235.361503
 30
0.0
 10
50.275987
 20
235.552076
 30
0.0
 10
50.466559
 20
235.742648
 30
0.0
 10
50.657132
 20
236.123793
 30
0.0
 10
50.657132
 20
236.504937
 30
0.0
 10
50.466559
 20
236.886082
 30
0.0
 10
50.085415
 20
237.076654
 30
0.0
 10
49.894842
 20
236.886082
 30
0.0
 10
49.894842
 20
236.504937
 30
0.0
 10
50.085415
 20
236.123793
 30
0.0
 10
50.466559
 20
235.933220
 30
0.0
 10
51.038276
 20
235.933220
 30
0.0
 10
51.419421
 20
236.123793
 30
0.0
 10
51.609993
 20
236.314365
 30
0.0
  0
LWPOLYLINE
  5
10e
100
AcDbEntity
  8
Layer_1
 62
3
100
AcDbPolyline
 90
953
 70
0
 10
20.932421
 20
240.857499
 30
0.0
 10
20.931517
 20
240.944904
 30
0.0
 10
20.956170
 20
241.138804
 30
0.0
 10
21.325386
 20
242.280032
 30
0.0
 10
21.408577
 20
242.483672
 30
0.0
 10
21.827926
 20
243.547876
 30
0.0
 10
21.869927
 20
243.611181
 30
0.0
 10
22.150089
 20
244.209123
 30
0.0
 10
22.293231
 20
244.469007
 30
0.0
 10
22.432969
 20
244.716482
 30
0.0
 10
22.531662
 20
244.875384
 30
0.0
 10
22.629529
 20
245.034527
 30
0.0
 10
22.748122
 20
245.214435
 30
0.0
 10
22.870122
 20
245.393352
 30
0.0
 10
22.965772
 20
245.528548
 30
0.0
 10
23.082147
 20
245.691845
 30
0.0
 10
23.166522
 20
245.800396
 30
0.0
 10
23.247694
 20
245.907934
 30
0.0
 10
23.376451
 20
246.070155
 30
0.0
 10
23.485893
 20
246.205814
 30
0.0
 10
23.591669
 20
246.335836
 30
0.0
 10
23.696868
 20
246.466028
 30
0.0
 10
23.794878
 20
246.571506
 30
0.0
 10
23.893250
 20
246.676877
 30
0.0
 10
23.964927
 20
246.749817
 30
0.0
 10
24.036602
 20
246.822754
 30
0.0
 10
24.134974
 20
246.928125
 30
0.0
 10
24.235697
 20
247.032810
 30
0.0
 10
24.295149
 20
247.098638
 30
0.0
 10
24.386997
 20
247.199431
 30
0.0
 10
24.517223
 20
247.319592
 30
0.0
 10
24.611130
 20
247.405936
 30
0.0
 10
24.686631
 20
247.477761
 30
0.0
 10
24.763069
 20
247.549310
 30
0.0
 10
24.846612
 20
247.618788
 30
0.0
 10
24.931358
 20
247.687915
 30
0.0
 10
25.028126
 20
247.780348
 30
0.0
 10
25.128006
 20
247.871876
 30
0.0
 10
25.191105
 20
247.920503
 30
0.0
 10
25.256770
 20
247.968385
 30
0.0
 10
25.351024
 20
248.041438
 30
0.0
 10
25.459101
 20
248.131910
 30
0.0
 10
25.507126
 20
248.176707
 30
0.0
 10
25.569938
 20
248.231198
 30
0.0
 10
25.740959
 20
248.363420
 30
0.0
 10
25.822800
 20
248.414804
 30
0.0
 10
25.883557
 20
248.456192
 30
0.0
 10
25.963282
 20
248.522711
 30
0.0
 10
26.117666
 20
248.632932
 30
0.0
 10
26.101255
 20
248.697032
 30
0.0
 10
26.077266
 20
248.752728
 30
0.0
 10
26.009744
 20
248.914021
 30
0.0
 10
25.918392
 20
249.129424
 30
0.0
 10
25.869680
 20
249.259100
 30
0.0
 10
25.846002
 20
249.338797
 30
0.0
 10
25.814441
 20
249.414452
 30
0.0
 10
25.783289
 20
249.491507
 30
0.0
 10
25.760853
 20
249.587844
 30
0.0
 10
25.724438
 20
249.745927
 30
0.0
 10
25.701973
 20
249.849424
 30
0.0
 10
25.667242
 20
249.973500
 30
0.0
 10
25.639585
 20
250.108922
 30
0.0
 10
25.622764
 20
250.267999
 30
0.0
 10
25.598550
 20
250.415819
 30
0.0
 10
25.590986
 20
250.578898
 30
0.0
 10
25.586104
 20
250.741193
 30
0.0
 10
25.595756
 20
251.113743
 30
0.0
 10
25.596320
 20
251.248168
 30
0.0
 10
25.710372
 20
251.999128
 30
0.0
 10
25.716157
 20
252.110921
 30
0.0
 10
25.910803
 20
252.870331
 30
0.0
 10
26.159325
 20
253.630601
 30
0.0
 10
26.217660
 20
253.740944
 30
0.0
 10
26.723143
 20
255.101695
 30
0.0
 10
27.268546
 20
256.697910
 30
0.0
 10
27.545674
 20
257.918358
 30
0.0
 10
27.571187
 20
258.232655
 30
0.0
 10
27.594442
 20
258.547617
 30
0.0
 10
27.593878
 20
258.668394
 30
0.0
 10
27.608327
 20
258.724506
 30
0.0
 10
27.628534
 20
258.671696
 30
0.0
 10
27.657349
 20
258.529233
 30
0.0
 10
27.683088
 20
258.387668
 30
0.0
 10
27.708827
 20
258.246100
 30
0.0
 10
27.735130
 20
258.104370
 30
0.0
 10
27.756353
 20
258.004337
 30
0.0
 10
27.777350
 20
257.904371
 30
0.0
 10
27.801593
 20
257.749837
 30
0.0
 10
27.826372
 20
257.595148
 30
0.0
 10
27.852901
 20
257.454740
 30
0.0
 10
27.882805
 20
257.325609
 30
0.0
 10
27.907726
 20
257.236526
 30
0.0
 10
27.928977
 20
257.136244
 30
0.0
 10
27.955280
 20
256.994512
 30
0.0
 10
27.980849
 20
256.853000
 30
0.0
 10
28.011439
 20
256.723423
 30
0.0
 10
28.040974
 20
256.594160
 30
0.0
 10
28.065471
 20
256.452956
 30
0.0
 10
28.091492
 20
256.311311
 30
0.0
 10
28.117823
 20
256.209793
 30
0.0
 10
28.144154
 20
256.108272
 30
0.0
 10
28.170175
 20
255.966630
 30
0.0
 10
28.195039
 20
255.825316
 30
0.0
 10
28.221624
 20
255.690210
 30
0.0
 10
28.245021
 20
255.542628
 30
0.0
 10
28.268417
 20
255.395048
 30
0.0
 10
28.295905
 20
255.259672
 30
0.0
 10
28.317100
 20
255.146241
 30
0.0
 10
28.339170
 20
255.032559
 30
0.0
 10
28.365840
 20
254.890726
 30
0.0
 10
28.392312
 20
254.748946
 30
0.0
 10
28.410262
 20
254.596247
 30
0.0
 10
28.430187
 20
254.442969
 30
0.0
 10
28.449321
 20
254.263109
 30
0.0
 10
28.465013
 20
254.084259
 30
0.0
 10
28.480309
 20
253.959144
 30
0.0
 10
28.495578
 20
253.834041
 30
0.0
 10
28.504242
 20
253.630431
 30
0.0
 10
28.513499
 20
253.426641
 30
0.0
 10
28.515474
 20
253.198171
 30
0.0
 10
28.516603
 20
252.969981
 30
0.0
 10
28.507262
 20
252.758212
 30
0.0
 10
28.498682
 20
252.546221
 30
0.0
 10
28.280948
 20
251.483626
 30
0.0
 10
27.902370
 20
250.494917
 30
0.0
 10
27.797406
 20
250.324271
 30
0.0
 10
27.693596
 20
250.153456
 30
0.0
 10
27.580396
 20
249.992082
 30
0.0
 10
27.470222
 20
249.843235
 30
0.0
 10
27.360384
 20
249.700989
 30
0.0
 10
27.248785
 20
249.559257
 30
0.0
 10
27.176195
 20
249.486588
 30
0.0
 10
27.103593
 20
249.413916
 30
0.0
 10
27.022559
 20
249.328989
 30
0.0
 10
26.928776
 20
249.228984
 30
0.0
 10
26.826651
 20
249.146533
 30
0.0
 10
26.756116
 20
249.073666
 30
0.0
 10
26.826934
 20
249.106231
 30
0.0
 10
27.114704
 20
249.275726
 30
0.0
 10
27.159216
 20
249.290458
 30
0.0
 10
27.204883
 20
249.309141
 30
0.0
 10
28.440313
 20
249.990580
 30
0.0
 10
28.685634
 20
250.105464
 30
0.0
 10
28.841232
 20
250.180742
 30
0.0
 10
28.999751
 20
250.255454
 30
0.0
 10
29.129734
 20
250.311391
 30
0.0
 10
29.257939
 20
250.367559
 30
0.0
 10
29.615300
 20
250.531634
 30
0.0
 10
29.702927
 20
250.559518
 30
0.0
 10
29.788745
 20
250.587655
 30
0.0
 10
30.126605
 20
250.730776
 30
0.0
 10
30.196858
 20
250.764039
 30
0.0
 10
30.269979
 20
250.796336
 30
0.0
 10
30.369003
 20
250.827787
 30
0.0
 10
30.521405
 20
250.897293
 30
0.0
 10
30.656728
 20
250.951671
 30
0.0
 10
30.806537
 20
250.998828
 30
0.0
 10
30.958302
 20
251.048408
 30
0.0
 10
31.095047
 20
251.105372
 30
0.0
 10
31.228471
 20
251.160304
 30
0.0
 10
31.379923
 20
251.207881
 30
0.0
 10
31.507972
 20
251.257676
 30
0.0
 10
31.571741
 20
251.274694
 30
0.0
 10
31.651076
 20
251.298486
 30
0.0
 10
31.780904
 20
251.347719
 30
0.0
 10
31.894611
 20
251.388289
 30
0.0
 10
31.946659
 20
251.406661
 30
0.0
 10
32.313183
 20
251.534471
 30
0.0
 10
32.387941
 20
251.559504
 30
0.0
 10
32.828755
 20
251.792911
 30
0.0
 10
33.413387
 20
252.150162
 30
0.0
 10
33.515230
 20
252.217427
 30
0.0
 10
33.562672
 20
252.262974
 30
0.0
 10
33.630001
 20
252.309978
 30
0.0
 10
33.696332
 20
252.353554
 30
0.0
 10
33.766969
 20
252.421671
 30
0.0
 10
33.896092
 20
252.529835
 30
0.0
 10
33.983843
 20
252.608970
 30
0.0
 10
34.085119
 20
252.706052
 30
0.0
 10
34.175771
 20
252.778363
 30
0.0
 10
34.240005
 20
252.840805
 30
0.0
 10
34.312711
 20
252.915238
 30
0.0
 10
34.411082
 20
253.020611
 30
0.0
 10
34.509634
 20
253.125928
 30
0.0
 10
34.617133
 20
253.253315
 30
0.0
 10
34.719723
 20
253.371349
 30
0.0
 10
34.799146
 20
253.464270
 30
0.0
 10
34.884397
 20
253.579688
 30
0.0
 10
35.074750
 20
253.862401
 30
0.0
 10
35.104722
 20
253.890798
 30
0.0
 10
35.237268
 20
254.100154
 30
0.0
 10
35.369882
 20
254.322892
 30
0.0
 10
35.643919
 20
254.921547
 30
0.0
 10
35.740524
 20
255.121279
 30
0.0
 10
35.836655
 20
255.373190
 30
0.0
 10
35.896994
 20
255.670633
 30
0.0
 10
35.900578
 20
255.774891
 30
0.0
 10
35.976549
 20
256.296737
 30
0.0
 10
35.852846
 20
256.299644
 30
0.0
 10
35.731202
 20
256.295495
 30
0.0
 10
35.420332
 20
256.426571
 30
0.0
 10
35.345596
 20
256.502731
 30
0.0
 10
35.230444
 20
256.612126
 30
0.0
 10
34.989130
 20
257.062558
 30
0.0
 10
34.955497
 20
257.131116
 30
0.0
 10
34.923271
 20
257.204485
 30
0.0
 10
34.903571
 20
257.273847
 30
0.0
 10
34.895782
 20
257.333218
 30
0.0
 10
34.884324
 20
257.375320
 30
0.0
 10
34.837334
 20
257.516188
 30
0.0
 10
34.799711
 20
257.658327
 30
0.0
 10
34.773690
 20
257.793274
 30
0.0
 10
34.753003
 20
257.907865
 30
0.0
 10
34.735421
 20
258.026940
 30
0.0
 10
34.717302
 20
258.160716
 30
0.0
 10
34.706126
 20
258.365065
 30
0.0
 10
34.699917
 20
258.566828
 30
0.0
 10
34.696813
 20
258.648165
 30
0.0
 10
34.632424
 20
258.465855
 30
0.0
 10
34.388098
 20
257.933840
 30
0.0
 10
34.281788
 20
257.795269
 30
0.0
 10
34.133951
 20
257.630593
 30
0.0
 10
34.061691
 20
257.559823
 30
0.0
 10
34.025561
 20
257.530141
 30
0.0
 10
33.958310
 20
257.482037
 30
0.0
 10
33.874759
 20
257.423100
 30
0.0
 10
33.824822
 20
257.391155
 30
0.0
 10
33.551682
 20
257.225942
 30
0.0
 10
33.358337
 20
257.141564
 30
0.0
 10
33.258340
 20
257.110398
 30
0.0
 10
33.194216
 20
257.091489
 30
0.0
 10
32.857782
 20
257.066343
 30
0.0
 10
32.814376
 20
257.052204
 30
0.0
 10
32.621844
 20
257.081538
 30
0.0
 10
32.442822
 20
257.157204
 30
0.0
 10
32.374330
 20
257.221139
 30
0.0
 10
32.282695
 20
257.274677
 30
0.0
 10
32.245893
 20
257.295081
 30
0.0
 10
32.172134
 20
257.386936
 30
0.0
 10
32.100645
 20
257.474812
 30
0.0
 10
31.902048
 20
257.903510
 30
0.0
 10
31.877353
 20
257.997321
 30
0.0
 10
31.877390
 20
258.164882
 30
0.0
 10
32.071689
 20
258.599126
 30
0.0
 10
32.128266
 20
258.652875
 30
0.0
 10
32.377019
 20
258.816332
 30
0.0
 10
32.535196
 20
258.876056
 30
0.0
 10
32.573756
 20
258.893356
 30
0.0
 10
32.663004
 20
258.923574
 30
0.0
 10
32.750574
 20
258.948043
 30
0.0
 10
32.886690
 20
258.978082
 30
0.0
 10
33.033920
 20
259.000265
 30
0.0
 10
33.212473
 20
259.014912
 30
0.0
 10
33.391253
 20
259.030350
 30
0.0
 10
33.619457
 20
259.031479
 30
0.0
 10
33.850634
 20
259.035515
 30
0.0
 10
34.046138
 20
259.033821
 30
0.0
 10
34.208706
 20
259.039212
 30
0.0
 10
34.283955
 20
259.036672
 30
0.0
 10
34.375330
 20
258.969808
 30
0.0
 10
34.414819
 20
258.918076
 30
0.0
 10
34.481130
 20
258.852426
 30
0.0
 10
34.737254
 20
258.727122
 30
0.0
 10
35.020584
 20
258.695112
 30
0.0
 10
35.101099
 20
258.717944
 30
0.0
 10
35.358212
 20
258.874719
 30
0.0
 10
35.436757
 20
258.901304
 30
0.0
 10
35.661606
 20
258.793851
 30
0.0
 10
35.838201
 20
258.686886
 30
0.0
 10
35.874783
 20
258.651427
 30
0.0
 10
36.138076
 20
258.466800
 30
0.0
 10
36.222712
 20
258.393507
 30
0.0
 10
36.305400
 20
258.312845
 30
0.0
 10
36.348402
 20
258.252732
 30
0.0
 10
36.453386
 20
258.139072
 30
0.0
 10
36.515080
 20
258.064300
 30
0.0
 10
36.703971
 20
257.702266
 30
0.0
 10
36.726013
 20
257.645116
 30
0.0
 10
36.757763
 20
257.505633
 30
0.0
 10
36.778591
 20
257.365058
 30
0.0
 10
36.605970
 20
256.783291
 30
0.0
 10
36.499566
 20
256.681239
 30
0.0
 10
36.406608
 20
256.594476
 30
0.0
 10
36.352783
 20
256.550551
 30
0.0
 10
36.178073
 20
256.425823
 30
0.0
 10
36.036829
 20
256.350958
 30
0.0
 10
36.009764
 20
256.192676
 30
0.0
 10
35.999068
 20
256.015743
 30
0.0
 10
35.745590
 20
255.010506
 30
0.0
 10
35.617523
 20
254.721536
 30
0.0
 10
35.576319
 20
254.662939
 30
0.0
 10
35.307592
 20
254.099744
 30
0.0
 10
35.183889
 20
253.907921
 30
0.0
 10
35.057061
 20
253.716433
 30
0.0
 10
35.002061
 20
253.652038
 30
0.0
 10
34.823547
 20
253.382925
 30
0.0
 10
34.742931
 20
253.285784
 30
0.0
 10
34.662712
 20
253.188525
 30
0.0
 10
34.562351
 20
253.077640
 30
0.0
 10
34.439725
 20
252.937917
 30
0.0
 10
34.342435
 20
252.824111
 30
0.0
 10
34.270911
 20
252.751445
 30
0.0
 10
34.193684
 20
252.680934
 30
0.0
 10
34.110733
 20
252.598768
 30
0.0
 10
34.027359
 20
252.529237
 30
0.0
 10
33.947775
 20
252.458506
 30
0.0
 10
33.852883
 20
252.367721
 30
0.0
 10
33.736800
 20
252.268458
 30
0.0
 10
33.688111
 20
252.233539
 30
0.0
 10
33.604071
 20
252.152211
 30
0.0
 10
33.351916
 20
251.970894
 30
0.0
 10
33.166189
 20
251.845779
 30
0.0
 10
33.043481
 20
251.769777
 30
0.0
 10
33.094614
 20
251.761226
 30
0.0
 10
33.154347
 20
251.782166
 30
0.0
 10
33.229517
 20
251.810078
 30
0.0
 10
33.304430
 20
251.837115
 30
0.0
 10
33.422560
 20
251.874436
 30
0.0
 10
33.539690
 20
251.908323
 30
0.0
 10
33.637116
 20
251.943609
 30
0.0
 10
33.886330
 20
252.014009
 30
0.0
 10
33.961689
 20
252.025552
 30
0.0
 10
34.019378
 20
252.048948
 30
0.0
 10
34.081023
 20
252.071187
 30
0.0
 10
34.146406
 20
252.085637
 30
0.0
 10
34.275528
 20
252.133099
 30
0.0
 10
34.393181
 20
252.168780
 30
0.0
 10
34.502785
 20
252.199850
 30
0.0
 10
34.600770
 20
252.237044
 30
0.0
 10
34.702827
 20
252.265210
 30
0.0
 10
34.803936
 20
252.290130
 30
0.0
 10
34.908730
 20
252.327694
 30
0.0
 10
35.013206
 20
252.364165
 30
0.0
 10
35.129942
 20
252.397758
 30
0.0
 10
35.247617
 20
252.433524
 30
0.0
 10
35.351424
 20
252.466637
 30
0.0
 10
35.455386
 20
252.501351
 30
0.0
 10
35.543984
 20
252.529347
 30
0.0
 10
35.633517
 20
252.560549
 30
0.0
 10
35.738478
 20
252.598681
 30
0.0
 10
35.842525
 20
252.633676
 30
0.0
 10
35.953280
 20
252.668697
 30
0.0
 10
36.087660
 20
252.711205
 30
0.0
 10
36.151787
 20
252.727461
 30
0.0
 10
36.227614
 20
252.758971
 30
0.0
 10
36.303272
 20
252.790532
 30
0.0
 10
36.383294
 20
252.815340
 30
0.0
 10
36.533806
 20
252.866546
 30
0.0
 10
36.646136
 20
252.906963
 30
0.0
 10
36.722508
 20
252.936653
 30
0.0
 10
36.817120
 20
252.975427
 30
0.0
 10
36.875424
 20
252.999049
 30
0.0
 10
36.953817
 20
253.024873
 30
0.0
 10
37.041470
 20
253.067392
 30
0.0
 10
37.203584
 20
253.117625
 30
0.0
 10
37.267253
 20
253.152073
 30
0.0
 10
37.622856
 20
253.297209
 30
0.0
 10
37.765708
 20
253.356221
 30
0.0
 10
37.894359
 20
253.405842
 30
0.0
 10
38.155071
 20
253.524070
 30
0.0
 10
38.726912
 20
253.798503
 30
0.0
 10
38.977683
 20
253.914254
 30
0.0
 10
40.314477
 20
254.638047
 30
0.0
 10
40.389729
 20
254.709943
 30
0.0
 10
40.413802
 20
254.701984
 30
0.0
 10
40.439005
 20
254.697864
 30
0.0
 10
40.577835
 20
254.804843
 30
0.0
 10
40.710277
 20
254.891239
 30
0.0
 10
40.827650
 20
254.971850
 30
0.0
 10
40.946158
 20
255.056435
 30
0.0
 10
41.026535
 20
255.102215
 30
0.0
 10
41.108489
 20
255.153393
 30
0.0
 10
41.207792
 20
255.241079
 30
0.0
 10
41.367262
 20
255.351199
 30
0.0
 10
41.490903
 20
255.435290
 30
0.0
 10
41.610137
 20
255.535575
 30
0.0
 10
41.735709
 20
255.639495
 30
0.0
 10
41.806823
 20
255.709260
 30
0.0
 10
41.854273
 20
255.745571
 30
0.0
 10
41.964357
 20
255.833277
 30
0.0
 10
42.054631
 20
255.912619
 30
0.0
 10
42.124913
 20
255.972557
 30
0.0
 10
42.193882
 20
256.032882
 30
0.0
 10
42.288813
 20
256.125849
 30
0.0
 10
42.385632
 20
256.218268
 30
0.0
 10
42.482260
 20
256.310642
 30
0.0
 10
42.576926
 20
256.403688
 30
0.0
 10
42.670567
 20
256.510540
 30
0.0
 10
42.766407
 20
256.616650
 30
0.0
 10
42.846617
 20
256.700504
 30
0.0
 10
42.925605
 20
256.784716
 30
0.0
 10
43.007856
 20
256.883562
 30
0.0
 10
43.109008
 20
257.008233
 30
0.0
 10
43.317849
 20
257.305066
 30
0.0
 10
43.344604
 20
257.322620
 30
0.0
 10
43.436315
 20
257.441758
 30
0.0
 10
43.530154
 20
257.573646
 30
0.0
 10
43.656431
 20
257.771424
 30
0.0
 10
43.783874
 20
257.982267
 30
0.0
 10
44.034143
 20
258.506213
 30
0.0
 10
44.126114
 20
258.687839
 30
0.0
 10
44.242635
 20
258.975599
 30
0.0
 10
44.267701
 20
259.044305
 30
0.0
 10
44.198456
 20
258.815717
 30
0.0
 10
44.036666
 20
258.366882
 30
0.0
 10
43.874363
 20
258.050412
 30
0.0
 10
43.714120
 20
257.735184
 30
0.0
 10
43.580163
 20
257.512141
 30
0.0
 10
43.451826
 20
257.301561
 30
0.0
 10
43.363897
 20
257.179393
 30
0.0
 10
43.274940
 20
257.072857
 30
0.0
 10
43.245789
 20
257.057984
 30
0.0
 10
43.054304
 20
256.774014
 30
0.0
 10
42.954068
 20
256.649083
 30
0.0
 10
42.854728
 20
256.537289
 30
0.0
 10
42.777478
 20
256.452572
 30
0.0
 10
42.700203
 20
256.367857
 30
0.0
 10
42.600906
 20
256.262755
 30
0.0
 10
42.503184
 20
256.157195
 30
0.0
 10
42.429594
 20
256.085096
 30
0.0
 10
42.334748
 20
255.985401
 30
0.0
 10
42.218035
 20
255.878393
 30
0.0
 10
42.103201
 20
255.783191
 30
0.0
 10
42.056615
 20
255.738366
 30
0.0
 10
42.001570
 20
255.679557
 30
0.0
 10
41.882196
 20
255.579102
 30
0.0
 10
41.799954
 20
255.517934
 30
0.0
 10
41.718682
 20
255.445329
 30
0.0
 10
41.635147
 20
255.376853
 30
0.0
 10
41.550404
 20
255.309481
 30
0.0
 10
41.451302
 20
255.230609
 30
0.0
 10
41.385194
 20
255.182857
 30
0.0
 10
41.318372
 20
255.135316
 30
0.0
 10
41.282764
 20
255.107433
 30
0.0
 10
41.196531
 20
255.041585
 30
0.0
 10
41.114021
 20
254.989966
 30
0.0
 10
40.824723
 20
254.783264
 30
0.0
 10
40.538728
 20
254.578732
 30
0.0
 10
40.512143
 20
254.579296
 30
0.0
 10
40.481852
 20
254.567358
 30
0.0
 10
40.217175
 20
254.410592
 30
0.0
 10
40.189094
 20
254.390837
 30
0.0
 10
39.531053
 20
253.999934
 30
0.0
 10
38.517599
 20
253.478830
 30
0.0
 10
38.314856
 20
253.381218
 30
0.0
 10
38.119844
 20
253.294245
 30
0.0
 10
38.031251
 20
253.241885
 30
0.0
 10
38.049483
 20
253.235422
 30
0.0
 10
38.205806
 20
253.267209
 30
0.0
 10
38.341535
 20
253.295919
 30
0.0
 10
38.437338
 20
253.305599
 30
0.0
 10
38.568382
 20
253.318243
 30
0.0
 10
38.776978
 20
253.341046
 30
0.0
 10
38.949535
 20
253.358121
 30
0.0
 10
39.151922
 20
253.366108
 30
0.0
 10
39.344347
 20
253.377566
 30
0.0
 10
39.573195
 20
253.377346
 30
0.0
 10
39.812587
 20
253.375652
 30
0.0
 10
40.018708
 20
253.369923
 30
0.0
 10
40.237357
 20
253.361062
 30
0.0
 10
41.038829
 20
253.232676
 30
0.0
 10
41.162411
 20
253.223475
 30
0.0
 10
41.615863
 20
253.118048
 30
0.0
 10
42.039625
 20
252.967661
 30
0.0
 10
42.153767
 20
252.907564
 30
0.0
 10
42.807013
 20
252.611045
 30
0.0
 10
42.971653
 20
252.509061
 30
0.0
 10
43.123968
 20
252.410768
 30
0.0
 10
43.259570
 20
252.316501
 30
0.0
 10
43.424134
 20
252.197821
 30
0.0
 10
43.474164
 20
252.147145
 30
0.0
 10
43.489827
 20
252.102362
 30
0.0
 10
43.454309
 20
252.072503
 30
0.0
 10
43.417951
 20
252.039759
 30
0.0
 10
43.355046
 20
252.030926
 30
0.0
 10
43.271551
 20
252.071820
 30
0.0
 10
43.258314
 20
252.098715
 30
0.0
 10
43.087669
 20
252.220666
 30
0.0
 10
42.890505
 20
252.345660
 30
0.0
 10
42.383558
 20
252.599327
 30
0.0
 10
42.304005
 20
252.655986
 30
0.0
 10
41.528462
 20
252.915667
 30
0.0
 10
40.734903
 20
253.113567
 30
0.0
 10
40.652878
 20
253.103971
 30
0.0
 10
40.024993
 20
253.183476
 30
0.0
 10
39.753811
 20
253.193213
 30
0.0
 10
39.505459
 20
253.198518
 30
0.0
 10
39.288912
 20
253.195301
 30
0.0
 10
39.062031
 20
253.192281
 30
0.0
 10
38.929855
 20
253.175771
 30
0.0
 10
38.766863
 20
253.157822
 30
0.0
 10
38.582290
 20
253.145517
 30
0.0
 10
38.428473
 20
253.134426
 30
0.0
 10
38.286634
 20
253.107756
 30
0.0
 10
38.145280
 20
253.082751
 30
0.0
 10
38.020160
 20
253.067426
 30
0.0
 10
37.894396
 20
253.049900
 30
0.0
 10
37.778535
 20
253.020360
 30
0.0
 10
37.660897
 20
252.984727
 30
0.0
 10
37.631941
 20
252.966128
 30
0.0
 10
37.509970
 20
252.961161
 30
0.0
 10
37.397304
 20
252.953795
 30
0.0
 10
37.321081
 20
252.922708
 30
0.0
 10
37.220181
 20
252.898494
 30
0.0
 10
37.175734
 20
252.883987
 30
0.0
 10
37.099020
 20
252.853132
 30
0.0
 10
37.004504
 20
252.814487
 30
0.0
 10
36.963892
 20
252.798485
 30
0.0
 10
36.890024
 20
252.779661
 30
0.0
 10
36.804293
 20
252.751665
 30
0.0
 10
36.731725
 20
252.719201
 30
0.0
 10
36.650465
 20
252.689277
 30
0.0
 10
36.573616
 20
252.658063
 30
0.0
 10
36.495785
 20
252.627140
 30
0.0
 10
36.435423
 20
252.607158
 30
0.0
 10
36.366400
 20
252.574440
 30
0.0
 10
36.158964
 20
252.504159
 30
0.0
 10
36.077249
 20
252.481073
 30
0.0
 10
36.015775
 20
252.458777
 30
0.0
 10
35.957722
 20
252.435494
 30
0.0
 10
35.879473
 20
252.410179
 30
0.0
 10
35.728964
 20
252.358969
 30
0.0
 10
35.617972
 20
252.323144
 30
0.0
 10
35.499935
 20
252.285089
 30
0.0
 10
35.382105
 20
252.248796
 30
0.0
 10
35.284323
 20
252.213354
 30
0.0
 10
35.162451
 20
252.167772
 30
0.0
 10
35.098248
 20
252.149908
 30
0.0
 10
35.034483
 20
252.133539
 30
0.0
 10
34.900103
 20
252.091030
 30
0.0
 10
34.789345
 20
252.056012
 30
0.0
 10
34.685301
 20
252.021017
 30
0.0
 10
34.580808
 20
251.984497
 30
0.0
 10
34.478449
 20
251.955284
 30
0.0
 10
34.376691
 20
251.928135
 30
0.0
 10
34.322081
 20
251.908520
 30
0.0
 10
34.212483
 20
251.877473
 30
0.0
 10
34.046745
 20
251.831013
 30
0.0
 10
33.936066
 20
251.797136
 30
0.0
 10
33.805577
 20
251.763410
 30
0.0
 10
33.674623
 20
251.727204
 30
0.0
 10
33.600227
 20
251.701945
 30
0.0
 10
33.525314
 20
251.674908
 30
0.0
 10
33.407184
 20
251.637592
 30
0.0
 10
33.290570
 20
251.605467
 30
0.0
 10
33.185846
 20
251.572831
 30
0.0
 10
32.939505
 20
251.491565
 30
0.0
 10
32.781613
 20
251.449215
 30
0.0
 10
32.671950
 20
251.414897
 30
0.0
 10
32.586476
 20
251.386626
 30
0.0
 10
32.417422
 20
251.335575
 30
0.0
 10
32.299061
 20
251.303890
 30
0.0
 10
32.240613
 20
251.287352
 30
0.0
 10
32.126906
 20
251.246780
 30
0.0
 10
31.997078
 20
251.197546
 30
0.0
 10
31.917742
 20
251.173755
 30
0.0
 10
31.854536
 20
251.158684
 30
0.0
 10
31.727344
 20
251.111036
 30
0.0
 10
31.570315
 20
251.062985
 30
0.0
 10
31.429636
 20
251.001102
 30
0.0
 10
31.317884
 20
250.973360
 30
0.0
 10
31.259275
 20
250.956257
 30
0.0
 10
31.143175
 20
250.905121
 30
0.0
 10
30.994291
 20
250.848637
 30
0.0
 10
30.902806
 20
250.826257
 30
0.0
 10
30.847762
 20
250.801704
 30
0.0
 10
30.753152
 20
250.762929
 30
0.0
 10
30.678075
 20
250.737699
 30
0.0
 10
30.572262
 20
250.696641
 30
0.0
 10
30.467337
 20
250.658629
 30
0.0
 10
30.315442
 20
250.597900
 30
0.0
 10
30.128496
 20
250.513095
 30
0.0
 10
30.070967
 20
250.491900
 30
0.0
 10
29.986487
 20
250.463664
 30
0.0
 10
29.896413
 20
250.422646
 30
0.0
 10
29.779708
 20
250.376988
 30
0.0
 10
29.657975
 20
250.332052
 30
0.0
 10
29.571383
 20
250.289699
 30
0.0
 10
29.493529
 20
250.252079
 30
0.0
 10
29.396171
 20
250.219973
 30
0.0
 10
29.213695
 20
250.133972
 30
0.0
 10
28.801241
 20
249.944815
 30
0.0
 10
28.643152
 20
249.876966
 30
0.0
 10
28.471967
 20
249.792390
 30
0.0
 10
28.305306
 20
249.706930
 30
0.0
 10
27.003768
 20
248.987012
 30
0.0
 10
26.976534
 20
248.980888
 30
0.0
 10
26.911056
 20
248.954641
 30
0.0
 10
26.742834
 20
248.842105
 30
0.0
 10
26.614161
 20
248.754218
 30
0.0
 10
26.538737
 20
248.702453
 30
0.0
 10
26.378971
 20
248.606337
 30
0.0
 10
26.194671
 20
248.480025
 30
0.0
 10
26.032693
 20
248.369253
 30
0.0
 10
25.891068
 20
248.274353
 30
0.0
 10
25.811690
 20
248.209021
 30
0.0
 10
25.750933
 20
248.167634
 30
0.0
 10
25.667963
 20
248.116577
 30
0.0
 10
25.537536
 20
248.007148
 30
0.0
 10
25.467345
 20
247.953884
 30
0.0
 10
25.373379
 20
247.880436
 30
0.0
 10
25.280463
 20
247.801778
 30
0.0
 10
25.168037
 20
247.715059
 30
0.0
 10
25.119825
 20
247.675336
 30
0.0
 10
25.071068
 20
247.628386
 30
0.0
 10
24.946412
 20
247.522646
 30
0.0
 10
24.866269
 20
247.452175
 30
0.0
 10
24.778515
 20
247.383925
 30
0.0
 10
24.644742
 20
247.257413
 30
0.0
 10
24.575641
 20
247.188376
 30
0.0
 10
24.543874
 20
247.157422
 30
0.0
 10
24.446001
 20
247.072013
 30
0.0
 10
24.336794
 20
246.971113
 30
0.0
 10
24.242307
 20
246.871314
 30
0.0
 10
24.161838
 20
246.786224
 30
0.0
 10
24.063106
 20
246.680957
 30
0.0
 10
23.964734
 20
246.575584
 30
0.0
 10
23.893059
 20
246.502647
 30
0.0
 10
23.821618
 20
246.429639
 30
0.0
 10
23.718112
 20
246.312358
 30
0.0
 10
23.613885
 20
246.195290
 30
0.0
 10
23.510055
 20
246.071400
 30
0.0
 10
23.403425
 20
245.934920
 30
0.0
 10
23.298771
 20
245.804573
 30
0.0
 10
23.195623
 20
245.673783
 30
0.0
 10
23.109438
 20
245.558153
 30
0.0
 10
23.025577
 20
245.455255
 30
0.0
 10
22.908020
 20
245.288450
 30
0.0
 10
22.791213
 20
245.121426
 30
0.0
 10
22.669272
 20
244.929086
 30
0.0
 10
22.547059
 20
244.736825
 30
0.0
 10
22.447096
 20
244.578295
 30
0.0
 10
22.347571
 20
244.419638
 30
0.0
 10
22.213068
 20
244.184042
 30
0.0
 10
22.074254
 20
243.936298
 30
0.0
 10
21.773405
 20
243.280005
 30
0.0
 10
21.736542
 20
243.230430
 30
0.0
 10
21.473792
 20
242.593265
 30
0.0
 10
21.539091
 20
242.710331
 30
0.0
 10
21.613539
 20
242.837311
 30
0.0
 10
21.738204
 20
243.028858
 30
0.0
 10
21.862286
 20
243.220572
 30
0.0
 10
21.965092
 20
243.344761
 30
0.0
 10
22.070240
 20
243.481669
 30
0.0
 10
22.167007
 20
243.571865
 30
0.0
 10
22.446479
 20
243.835531
 30
0.0
 10
22.519237
 20
243.906270
 30
0.0
 10
22.570127
 20
243.942866
 30
0.0
 10
22.620969
 20
243.979301
 30
0.0
 10
22.683687
 20
244.031873
 30
0.0
 10
22.794919
 20
244.102409
 30
0.0
 10
23.521419
 20
244.506734
 30
0.0
 10
23.635385
 20
244.547233
 30
0.0
 10
23.942724
 20
244.666447
 30
0.0
 10
24.039217
 20
244.705326
 30
0.0
 10
24.156038
 20
244.739206
 30
0.0
 10
24.274053
 20
244.776135
 30
0.0
 10
24.312150
 20
244.785138
 30
0.0
 10
24.405163
 20
244.805261
 30
0.0
 10
24.584399
 20
244.850902
 30
0.0
 10
24.707717
 20
244.883027
 30
0.0
 10
24.848913
 20
244.907496
 30
0.0
 10
24.990478
 20
244.933234
 30
0.0
 10
25.132045
 20
244.958973
 30
0.0
 10
25.274099
 20
244.986377
 30
0.0
 10
25.399919
 20
245.004100
 30
0.0
 10
25.525308
 20
245.020328
 30
0.0
 10
25.704431
 20
245.036951
 30
0.0
 10
25.883420
 20
245.053122
 30
0.0
 10
26.061691
 20
245.066838
 30
0.0
 10
26.239973
 20
245.080582
 30
0.0
 10
26.390373
 20
245.090630
 30
0.0
 10
26.540478
 20
245.099689
 30
0.0
 10
26.860874
 20
245.104261
 30
0.0
 10
26.918407
 20
245.117666
 30
0.0
 10
27.063506
 20
245.146597
 30
0.0
 10
27.204953
 20
245.171941
 30
0.0
 10
27.329504
 20
245.202271
 30
0.0
 10
27.442463
 20
245.301991
 30
0.0
 10
27.430920
 20
245.398655
 30
0.0
 10
27.434081
 20
245.598819
 30
0.0
 10
27.433517
 20
245.810999
 30
0.0
 10
27.761750
 20
246.937167
 30
0.0
 10
27.865695
 20
247.080155
 30
0.0
 10
27.955086
 20
247.208482
 30
0.0
 10
28.061235
 20
247.338397
 30
0.0
 10
28.167481
 20
247.468053
 30
0.0
 10
28.264816
 20
247.573663
 30
0.0
 10
28.362882
 20
247.664620
 30
0.0
 10
28.414950
 20
247.703832
 30
0.0
 10
28.503220
 20
247.773973
 30
0.0
 10
28.567214
 20
247.820111
 30
0.0
 10
28.636686
 20
247.875045
 30
0.0
 10
28.687257
 20
247.911147
 30
0.0
 10
28.791166
 20
247.991064
 30
0.0
 10
28.908483
 20
248.070922
 30
0.0
 10
29.885776
 20
248.602479
 30
0.0
 10
30.105957
 20
248.712545
 30
0.0
 10
30.328650
 20
248.821881
 30
0.0
 10
30.510373
 20
248.909647
 30
0.0
 10
30.748984
 20
249.038887
 30
0.0
 10
31.230091
 20
249.320350
 30
0.0
 10
31.345683
 20
249.394933
 30
0.0
 10
31.463703
 20
249.477850
 30
0.0
 10
31.524220
 20
249.524473
 30
0.0
 10
31.695932
 20
249.663194
 30
0.0
 10
31.746176
 20
249.695463
 30
0.0
 10
31.815485
 20
249.753536
 30
0.0
 10
31.895607
 20
249.821162
 30
0.0
 10
31.992616
 20
249.915673
 30
0.0
 10
32.073066
 20
250.002307
 30
0.0
 10
32.172817
 20
250.120685
 30
0.0
 10
32.277609
 20
250.237590
 30
0.0
 10
32.313008
 20
250.274188
 30
0.0
 10
32.362733
 20
250.346821
 30
0.0
 10
32.047107
 20
249.218937
 30
0.0
 10
31.526910
 20
247.683608
 30
0.0
 10
31.485420
 20
247.621449
 30
0.0
 10
31.200765
 20
246.999561
 30
0.0
 10
31.078639
 20
246.801317
 30
0.0
 10
30.940522
 20
246.579185
 30
0.0
 10
30.851651
 20
246.463748
 30
0.0
 10
30.771663
 20
246.360074
 30
0.0
 10
30.689220
 20
246.261982
 30
0.0
 10
30.585007
 20
246.138188
 30
0.0
 10
30.467814
 20
246.012974
 30
0.0
 10
30.373448
 20
245.913155
 30
0.0
 10
30.303592
 20
245.852937
 30
0.0
 10
30.232853
 20
245.806238
 30
0.0
 10
30.139039
 20
245.704533
 30
0.0
 10
30.077267
 20
245.665968
 30
0.0
 10
30.017780
 20
245.622878
 30
0.0
 10
29.924723
 20
245.556618
 30
0.0
 10
29.768360
 20
245.470430
 30
0.0
 10
29.454684
 20
245.323110
 30
0.0
 10
29.370924
 20
245.280678
 30
0.0
 10
29.296245
 20
245.242033
 30
0.0
 10
29.171302
 20
245.211274
 30
0.0
 10
29.034137
 20
245.177633
 30
0.0
 10
28.999248
 20
245.164256
 30
0.0
 10
28.908943
 20
245.133358
 30
0.0
 10
28.844755
 20
245.111124
 30
0.0
 10
29.064789
 20
245.084336
 30
0.0
 10
29.284349
 20
245.081401
 30
0.0
 10
29.482145
 20
245.072200
 30
0.0
 10
29.694136
 20
245.064693
 30
0.0
 10
29.959143
 20
245.054025
 30
0.0
 10
30.224197
 20
245.043527
 30
0.0
 10
30.501918
 20
245.030488
 30
0.0
 10
30.779348
 20
245.016462
 30
0.0
 10
31.044676
 20
245.006894
 30
0.0
 10
31.309844
 20
244.996791
 30
0.0
 10
31.497177
 20
244.995662
 30
0.0
 10
31.684342
 20
244.993968
 30
0.0
 10
31.924575
 20
244.990300
 30
0.0
 10
32.164735
 20
244.986348
 30
0.0
 10
32.392801
 20
244.986913
 30
0.0
 10
32.621491
 20
244.989735
 30
0.0
 10
32.784156
 20
244.995859
 30
0.0
 10
32.946606
 20
245.001278
 30
0.0
 10
33.150407
 20
245.010591
 30
0.0
 10
33.353452
 20
245.017308
 30
0.0
 10
33.544499
 20
245.028851
 30
0.0
 10
33.736097
 20
245.042285
 30
0.0
 10
33.914936
 20
245.057920
 30
0.0
 10
34.094356
 20
245.075559
 30
0.0
 10
34.219109
 20
245.089614
 30
0.0
 10
34.344151
 20
245.104656
 30
0.0
 10
34.498202
 20
245.127234
 30
0.0
 10
34.652216
 20
245.149699
 30
0.0
 10
34.793375
 20
245.174054
 30
0.0
 10
34.934071
 20
245.196830
 30
0.0
 10
35.040683
 20
245.221016
 30
0.0
 10
35.185463
 20
245.251214
 30
0.0
 10
35.258765
 20
245.266256
 30
0.0
 10
35.639116
 20
245.361981
 30
0.0
 10
35.754466
 20
245.389780
 30
0.0
 10
35.868176
 20
245.430355
 30
0.0
 10
35.931391
 20
245.445482
 30
0.0
 10
36.011102
 20
245.469160
 30
0.0
 10
36.210901
 20
245.542456
 30
0.0
 10
37.196610
 20
246.059840
 30
0.0
 10
37.265650
 20
246.114509
 30
0.0
 10
37.540207
 20
246.317642
 30
0.0
 10
37.610018
 20
246.376984
 30
0.0
 10
37.705158
 20
246.463189
 30
0.0
 10
37.821247
 20
246.577083
 30
0.0
 10
37.916474
 20
246.676668
 30
0.0
 10
37.988636
 20
246.749182
 30
0.0
 10
38.066444
 20
246.840441
 30
0.0
 10
38.149051
 20
246.943709
 30
0.0
 10
38.344622
 20
247.238307
 30
0.0
 10
38.380634
 20
247.278349
 30
0.0
 10
38.514517
 20
247.500720
 30
0.0
 10
38.663356
 20
247.772353
 30
0.0
 10
38.783306
 20
248.018894
 30
0.0
 10
38.840429
 20
248.150457
 30
0.0
 10
38.834645
 20
248.103411
 30
0.0
 10
38.588728
 20
247.512819
 30
0.0
 10
38.452434
 20
247.277519
 30
0.0
 10
38.320918
 20
247.054459
 30
0.0
 10
38.209300
 20
246.899327
 30
0.0
 10
38.094819
 20
246.745028
 30
0.0
 10
38.011781
 20
246.648592
 30
0.0
 10
37.929202
 20
246.552021
 30
0.0
 10
37.829728
 20
246.446970
 30
0.0
 10
37.729773
 20
246.342059
 30
0.0
 10
37.649331
 20
246.272308
 30
0.0
 10
37.521521
 20
246.157060
 30
0.0
 10
37.447613
 20
246.093097
 30
0.0
 10
37.254610
 20
245.959925
 30
0.0
 10
37.175390
 20
245.895135
 30
0.0
 10
36.385910
 20
245.459934
 30
0.0
 10
36.274627
 20
245.408200
 30
0.0
 10
36.209924
 20
245.391069
 30
0.0
 10
36.116165
 20
245.351380
 30
0.0
 10
36.024677
 20
245.311031
 30
0.0
 10
35.962842
 20
245.295283
 30
0.0
 10
35.827161
 20
245.248318
 30
0.0
 10
35.715846
 20
245.211384
 30
0.0
 10
35.592854
 20
245.179614
 30
0.0
 10
35.418277
 20
245.132613
 30
0.0
 10
35.327799
 20
245.112067
 30
0.0
 10
35.271600
 20
245.093469
 30
0.0
 10
35.138592
 20
245.060937
 30
0.0
 10
35.022031
 20
245.038754
 30
0.0
 10
34.880195
 20
245.012084
 30
0.0
 10
34.739058
 20
244.987813
 30
0.0
 10
34.626076
 20
244.968142
 30
0.0
 10
34.512098
 20
244.945057
 30
0.0
 10
34.347148
 20
244.925019
 30
0.0
 10
34.192625
 20
244.906872
 30
0.0
 10
34.031917
 20
244.888697
 30
0.0
 10
33.807406
 20
244.871284
 30
0.0
 10
33.609317
 20
244.860390
 30
0.0
 10
33.464898
 20
244.847859
 30
0.0
 10
33.314796
 20
244.838800
 30
0.0
 10
33.163959
 20
244.827229
 30
0.0
 10
33.125320
 20
244.815940
 30
0.0
 10
32.808633
 20
244.803974
 30
0.0
 10
33.311316
 20
244.619973
 30
0.0
 10
34.539423
 20
244.163233
 30
0.0
 10
34.903078
 20
244.004613
 30
0.0
 10
35.288393
 20
243.837501
 30
0.0
 10
35.720862
 20
243.642578
 30
0.0
 10
36.141455
 20
243.452897
 30
0.0
 10
36.549864
 20
243.267409
 30
0.0
 10
36.970341
 20
243.077332
 30
0.0
 10
37.434123
 20
242.874863
 30
0.0
 10
37.898045
 20
242.672863
 30
0.0
 10
38.570917
 20
242.405889
 30
0.0
 10
38.858555
 20
242.282304
 30
0.0
 10
39.564584
 20
242.037104
 30
0.0
 10
40.267984
 20
241.809274
 30
0.0
 10
40.044627
 20
241.847837
 30
0.0
 10
39.810609
 20
241.876031
 30
0.0
 10
39.633305
 20
241.888646
 30
0.0
 10
39.131359
 20
241.937268
 30
0.0
 10
38.889195
 20
241.957305
 30
0.0
 10
38.658707
 20
241.971416
 30
0.0
 10
38.356174
 20
241.990749
 30
0.0
 10
38.068197
 20
242.010109
 30
0.0
 10
37.537269
 20
242.056317
 30
0.0
 10
37.450178
 20
242.056481
 30
0.0
 10
37.140414
 20
242.074572
 30
0.0
 10
36.819691
 20
242.101044
 30
0.0
 10
36.521134
 20
242.134566
 30
0.0
 10
36.222492
 20
242.167801
 30
0.0
 10
35.198268
 20
242.388242
 30
0.0
 10
34.369398
 20
242.708860
 30
0.0
 10
34.180196
 20
242.818569
 30
0.0
 10
34.002786
 20
242.922742
 30
0.0
 10
33.848314
 20
243.036625
 30
0.0
 10
33.693690
 20
243.149988
 30
0.0
 10
33.575786
 20
243.251354
 30
0.0
 10
33.458469
 20
243.354732
 30
0.0
 10
33.364777
 20
243.447176
 30
0.0
 10
33.271317
 20
243.540420
 30
0.0
 10
33.205881
 20
243.614842
 30
0.0
 10
33.115775
 20
243.724804
 30
0.0
 10
33.069045
 20
243.786701
 30
0.0
 10
33.013103
 20
243.842496
 30
0.0
 10
32.912364
 20
243.999228
 30
0.0
 10
32.495905
 20
244.750837
 30
0.0
 10
32.405326
 20
244.823554
 30
0.0
 10
32.302126
 20
244.813987
 30
0.0
 10
32.121385
 20
244.813140
 30
0.0
 10
31.965635
 20
244.802275
 30
0.0
 10
31.928074
 20
244.790167
 30
0.0
 10
31.471475
 20
244.815821
 30
0.0
 10
31.201538
 20
244.828719
 30
0.0
 10
30.954882
 20
244.827872
 30
0.0
 10
30.916982
 20
244.816668
 30
0.0
 10
30.386052
 20
244.863266
 30
0.0
 10
30.199364
 20
244.866681
 30
0.0
 10
29.999385
 20
244.870491
 30
0.0
 10
29.708789
 20
244.885364
 30
0.0
 10
29.431410
 20
244.899560
 30
0.0
 10
29.160239
 20
244.912062
 30
0.0
 10
28.901309
 20
244.920557
 30
0.0
 10
28.701871
 20
244.926230
 30
0.0
 10
28.502489
 20
244.932072
 30
0.0
 10
28.255723
 20
244.936333
 30
0.0
 10
27.996671
 20
244.944433
 30
0.0
 10
27.756540
 20
244.948469
 30
0.0
 10
27.515895
 20
244.950726
 30
0.0
 10
27.294452
 20
244.949880
 30
0.0
 10
27.084540
 20
244.942598
 30
0.0
 10
26.974234
 20
244.933934
 30
0.0
 10
26.825048
 20
244.921460
 30
0.0
 10
26.747494
 20
244.906530
 30
0.0
 10
26.351361
 20
244.910820
 30
0.0
 10
26.162159
 20
244.899447
 30
0.0
 10
25.983597
 20
244.884969
 30
0.0
 10
25.857080
 20
244.871027
 30
0.0
 10
25.720055
 20
244.860641
 30
0.0
 10
25.551851
 20
244.843087
 30
0.0
 10
25.398584
 20
244.823980
 30
0.0
 10
25.252794
 20
244.799145
 30
0.0
 10
25.079520
 20
244.778825
 30
0.0
 10
24.931874
 20
244.755203
 30
0.0
 10
24.795612
 20
244.724661
 30
0.0
 10
24.694751
 20
244.700587
 30
0.0
 10
24.594772
 20
244.679533
 30
0.0
 10
24.465033
 20
244.648376
 30
0.0
 10
24.336045
 20
244.619793
 30
0.0
 10
24.220296
 20
244.590639
 30
0.0
 10
24.102615
 20
244.554853
 30
0.0
 10
24.015167
 20
244.524198
 30
0.0
 10
23.910566
 20
244.484419
 30
0.0
 10
23.855390
 20
244.462716
 30
0.0
 10
23.741432
 20
244.435623
 30
0.0
 10
23.561544
 20
244.360758
 30
0.0
 10
23.312197
 20
244.239086
 30
0.0
 10
23.134161
 20
244.163651
 30
0.0
 10
23.068042
 20
244.130665
 30
0.0
 10
22.891090
 20
244.009800
 30
0.0
 10
22.669210
 20
243.868796
 30
0.0
 10
22.548287
 20
243.786992
 30
0.0
 10
22.443185
 20
243.693551
 30
0.0
 10
22.337590
 20
243.605003
 30
0.0
 10
22.242050
 20
243.512212
 30
0.0
 10
22.140150
 20
243.411340
 30
0.0
 10
22.062149
 20
243.320140
 30
0.0
 10
22.006811
 20
243.259072
 30
0.0
 10
21.903978
 20
243.141594
 30
0.0
 10
21.803900
 20
243.023315
 30
0.0
 10
21.676489
 20
242.819167
 30
0.0
 10
21.549818
 20
242.614798
 30
0.0
 10
21.125934
 20
241.471561
 30
0.0
 10
20.905379
 20
240.738232
 30
0.0
 10
20.932704
 20
240.857621
 30
0.0
 10
20.932421
 20
240.857499
 30
0.0
  0
LWPOLYLINE
  5
10f
100
AcDbEntity
  8
Layer_1
 62
3
100
AcDbPolyline
 90
47
 70
0
 10
43.314140
 20
247.118554
 30
0.0
 10
43.096097
 20
247.390534
 30
0.0
 10
42.974946
 20
247.671131
 30
0.0
 10
42.954654
 20
247.721556
 30
0.0
 10
42.922119
 20
247.854562
 30
0.0
 10
42.903323
 20
247.970134
 30
0.0
 10
42.889890
 20
248.155035
 30
0.0
 10
42.876089
 20
248.354055
 30
0.0
 10
42.882552
 20
248.606879
 30
0.0
 10
42.889720
 20
248.859118
 30
0.0
 10
42.999268
 20
249.502883
 30
0.0
 10
43.002231
 20
249.603617
 30
0.0
 10
43.120643
 20
250.100198
 30
0.0
 10
43.294074
 20
250.604380
 30
0.0
 10
43.347595
 20
250.695975
 30
0.0
 10
43.552522
 20
251.117988
 30
0.0
 10
43.614145
 20
251.195706
 30
0.0
 10
43.660176
 20
251.290727
 30
0.0
 10
43.847247
 20
251.228398
 30
0.0
 10
44.027386
 20
251.141268
 30
0.0
 10
44.086060
 20
250.997696
 30
0.0
 10
44.145414
 20
250.857465
 30
0.0
 10
44.187872
 20
250.750221
 30
0.0
 10
44.311454
 20
250.468828
 30
0.0
 10
44.404255
 20
250.228039
 30
0.0
 10
44.475281
 20
249.998514
 30
0.0
 10
44.499637
 20
249.944493
 30
0.0
 10
44.527549
 20
249.869324
 30
0.0
 10
44.556674
 20
249.793801
 30
0.0
 10
44.581510
 20
249.737667
 30
0.0
 10
44.612560
 20
249.628069
 30
0.0
 10
44.659017
 20
249.462328
 30
0.0
 10
44.694258
 20
249.351508
 30
0.0
 10
44.721323
 20
249.209556
 30
0.0
 10
44.747993
 20
249.067716
 30
0.0
 10
44.770063
 20
248.954037
 30
0.0
 10
44.793346
 20
248.840000
 30
0.0
 10
44.811182
 20
248.673929
 30
0.0
 10
44.827015
 20
248.508439
 30
0.0
 10
44.719133
 20
247.844249
 30
0.0
 10
44.506679
 20
247.395332
 30
0.0
 10
44.428732
 20
247.317521
 30
0.0
 10
44.325309
 20
247.206918
 30
0.0
 10
43.923297
 20
247.038733
 30
0.0
 10
43.857497
 20
247.019937
 30
0.0
 10
43.314120
 20
247.118549
 30
0.0
 10
43.314140
 20
247.118554
 30
0.0
  0
LWPOLYLINE
  5
110
100
AcDbEntity
  8
Layer_1
 62
3
100
AcDbPolyline
 90
5
 70
0
 10
38.977347
 20
248.551989
 30
0.0
 10
39.010740
 20
248.629389
 30
0.0
 10
38.963899
 20
248.468773
 30
0.0
 10
38.977361
 20
248.551989
 30
0.0
 10
38.977347
 20
248.551989
 30
0.0
  0
LWPOLYLINE
  5
111
100
AcDbEntity
  8
Layer_1
 62
3
100
AcDbPolyline
 90
5
 70
0
 10
39.097269
 20
249.066655
 30
0.0
 10
39.118464
 20
249.093495
 30
0.0
 10
39.095999
 20
249.019612
 30
0.0
 10
39.097410
 20
249.066647
 30
0.0
 10
39.097269
 20
249.066655
 30
0.0
  0
LWPOLYLINE
  5
112
100
AcDbEntity
  8
Layer_1
 62
3
100
AcDbPolyline
 90
48
 70
0
 10
41.125016
 20
250.289764
 30
0.0
 10
41.001061
 20
250.370381
 30
0.0
 10
40.934047
 20
250.441320
 30
0.0
 10
40.882161
 20
250.516230
 30
0.0
 10
40.857325
 20
250.550859
 30
0.0
 10
40.626408
 20
250.931458
 30
0.0
 10
40.603915
 20
251.308998
 30
0.0
 10
40.604480
 20
251.402188
 30
0.0
 10
40.646291
 20
251.522624
 30
0.0
 10
40.650919
 20
251.538456
 30
0.0
 10
40.622578
 20
251.556208
 30
0.0
 10
40.661212
 20
251.573762
 30
0.0
 10
40.662058
 20
251.599896
 30
0.0
 10
40.662905
 20
251.626030
 30
0.0
 10
40.708546
 20
251.667615
 30
0.0
 10
40.995211
 20
251.949637
 30
0.0
 10
41.157189
 20
252.018533
 30
0.0
 10
41.236417
 20
252.042353
 30
0.0
 10
41.461614
 20
252.090633
 30
0.0
 10
41.505234
 20
252.101047
 30
0.0
 10
41.659824
 20
252.125487
 30
0.0
 10
41.813556
 20
252.146964
 30
0.0
 10
42.036148
 20
252.151734
 30
0.0
 10
42.271987
 20
252.153145
 30
0.0
 10
42.483899
 20
252.144311
 30
0.0
 10
42.697564
 20
252.137510
 30
0.0
 10
43.048047
 20
252.075172
 30
0.0
 10
43.378171
 20
251.995792
 30
0.0
 10
43.352489
 20
251.898594
 30
0.0
 10
43.329145
 20
251.738763
 30
0.0
 10
43.344163
 20
251.702492
 30
0.0
 10
43.374649
 20
251.622460
 30
0.0
 10
43.437085
 20
251.475524
 30
0.0
 10
43.484142
 20
251.390194
 30
0.0
 10
43.281529
 20
251.023655
 30
0.0
 10
43.183226
 20
250.911562
 30
0.0
 10
43.087885
 20
250.812011
 30
0.0
 10
43.005234
 20
250.743098
 30
0.0
 10
42.602441
 20
250.470962
 30
0.0
 10
42.206892
 20
250.300884
 30
0.0
 10
42.153569
 20
250.278927
 30
0.0
 10
42.037483
 20
250.244275
 30
0.0
 10
41.933509
 20
250.206980
 30
0.0
 10
41.846562
 20
250.193490
 30
0.0
 10
41.710585
 20
250.179237
 30
0.0
 10
41.289904
 20
250.213440
 30
0.0
 10
41.125047
 20
250.289778
 30
0.0
 10
41.125016
 20
250.289764
 30
0.0
  0
LWPOLYLINE
  5
113
100
AcDbEntity
  8
Layer_1
 62
3
100
AcDbPolyline
 90
49
 70
0
 10
46.023598
 20
249.250876
 30
0.0
 10
45.871014
 20
249.325264
 30
0.0
 10
45.654152
 20
249.455970
 30
0.0
 10
45.438376
 20
249.589480
 30
0.0
 10
45.334820
 20
249.672380
 30
0.0
 10
45.243160
 20
249.748812
 30
0.0
 10
45.113840
 20
249.857007
 30
0.0
 10
44.984007
 20
249.963433
 30
0.0
 10
44.902498
 20
250.051687
 30
0.0
 10
44.822277
 20
250.144366
 30
0.0
 10
44.772526
 20
250.197190
 30
0.0
 10
44.692917
 20
250.273457
 30
0.0
 10
44.601785
 20
250.381117
 30
0.0
 10
44.540077
 20
250.463839
 30
0.0
 10
44.484383
 20
250.547780
 30
0.0
 10
44.152157
 20
251.161151
 30
0.0
 10
44.180664
 20
251.256525
 30
0.0
 10
44.252605
 20
251.276675
 30
0.0
 10
44.341189
 20
251.344685
 30
0.0
 10
44.422469
 20
251.414823
 30
0.0
 10
44.486751
 20
251.583437
 30
0.0
 10
44.528901
 20
251.758508
 30
0.0
 10
44.677053
 20
251.760766
 30
0.0
 10
44.842255
 20
251.775639
 30
0.0
 10
45.094988
 20
251.768865
 30
0.0
 10
45.348852
 20
251.764378
 30
0.0
 10
45.647438
 20
251.730949
 30
0.0
 10
45.945840
 20
251.697342
 30
0.0
 10
46.419578
 20
251.610000
 30
0.0
 10
47.452616
 20
251.257307
 30
0.0
 10
47.567726
 20
251.169064
 30
0.0
 10
47.671177
 20
251.087098
 30
0.0
 10
47.728576
 20
251.019436
 30
0.0
 10
47.876413
 20
250.811266
 30
0.0
 10
47.932639
 20
250.551991
 30
0.0
 10
47.954286
 20
250.459512
 30
0.0
 10
47.752452
 20
249.780057
 30
0.0
 10
47.707979
 20
249.742230
 30
0.0
 10
47.526437
 20
249.490737
 30
0.0
 10
47.468206
 20
249.426373
 30
0.0
 10
47.357936
 20
249.334247
 30
0.0
 10
47.294461
 20
249.296850
 30
0.0
 10
47.184699
 20
249.228436
 30
0.0
 10
47.102339
 20
249.198831
 30
0.0
 10
46.990155
 20
249.146682
 30
0.0
 10
46.646177
 20
249.130765
 30
0.0
 10
46.585062
 20
249.124838
 30
0.0
 10
46.023643
 20
249.250780
 30
0.0
 10
46.023598
 20
249.250876
 30
0.0
  0
LWPOLYLINE
  5
114
100
AcDbEntity
  8
Layer_1
 62
3
100
AcDbPolyline
 90
43
 70
0
 10
44.450206
 20
251.911687
 30
0.0
 10
44.229457
 20
252.143885
 30
0.0
 10
43.895264
 20
252.241867
 30
0.0
 10
43.741196
 20
252.229477
 30
0.0
 10
43.637062
 20
252.458142
 30
0.0
 10
43.599089
 20
252.566555
 30
0.0
 10
43.572503
 20
252.708361
 30
0.0
 10
43.544761
 20
252.850507
 30
0.0
 10
43.529239
 20
252.881778
 30
0.0
 10
43.508552
 20
253.082192
 30
0.0
 10
43.494582
 20
253.367857
 30
0.0
 10
43.489474
 20
253.483295
 30
0.0
 10
43.625335
 20
254.261432
 30
0.0
 10
43.910258
 20
254.915660
 30
0.0
 10
43.945892
 20
254.952191
 30
0.0
 10
44.197655
 20
255.208022
 30
0.0
 10
44.531291
 20
255.367218
 30
0.0
 10
44.609814
 20
255.385902
 30
0.0
 10
45.145666
 20
255.374838
 30
0.0
 10
45.410456
 20
255.287420
 30
0.0
 10
45.991478
 20
254.976067
 30
0.0
 10
46.113740
 20
254.876228
 30
0.0
 10
46.232002
 20
254.761214
 30
0.0
 10
46.266896
 20
254.710417
 30
0.0
 10
46.474309
 20
254.338482
 30
0.0
 10
46.502306
 20
254.262883
 30
0.0
 10
46.521723
 20
254.036772
 30
0.0
 10
46.526718
 20
253.857722
 30
0.0
 10
46.361480
 20
253.284777
 30
0.0
 10
46.230746
 20
253.073031
 30
0.0
 10
46.097817
 20
252.857083
 30
0.0
 10
46.012636
 20
252.760896
 30
0.0
 10
45.915151
 20
252.655266
 30
0.0
 10
45.819215
 20
252.555890
 30
0.0
 10
45.740131
 20
252.478409
 30
0.0
 10
45.654606
 20
252.408547
 30
0.0
 10
45.578395
 20
252.350178
 30
0.0
 10
45.445573
 20
252.246086
 30
0.0
 10
44.858260
 20
251.925648
 30
0.0
 10
44.706035
 20
251.886335
 30
0.0
 10
44.594613
 20
251.845985
 30
0.0
 10
44.450231
 20
251.911690
 30
0.0
 10
44.450206
 20
251.911687
 30
0.0
  0
LWPOLYLINE
  5
115
100
AcDbEntity
  8
Layer_1
 62
3
100
AcDbPolyline
 90
53
 70
0
 10
33.054569
 20
259.602629
 30
0.0
 10
32.948129
 20
259.668923
 30
0.0
 10
32.908062
 20
259.705996
 30
0.0
 10
32.592936
 20
259.879026
 30
0.0
 10
32.466904
 20
259.978278
 30
0.0
 10
32.228798
 20
260.252635
 30
0.0
 10
32.158376
 20
260.333249
 30
0.0
 10
32.130746
 20
260.381520
 30
0.0
 10
32.092197
 20
260.499602
 30
0.0
 10
31.994258
 20
260.820158
 30
0.0
 10
31.966402
 20
260.975846
 30
0.0
 10
31.972273
 20
261.181928
 30
0.0
 10
31.976675
 20
261.371812
 30
0.0
 10
32.029493
 20
261.624525
 30
0.0
 10
32.120628
 20
261.866065
 30
0.0
 10
32.219623
 20
262.017367
 30
0.0
 10
32.323013
 20
262.181604
 30
0.0
 10
32.425042
 20
262.293420
 30
0.0
 10
32.523797
 20
262.391978
 30
0.0
 10
32.612440
 20
262.463064
 30
0.0
 10
33.132220
 20
262.750784
 30
0.0
 10
33.158354
 20
262.758178
 30
0.0
 10
33.316839
 20
262.857800
 30
0.0
 10
33.596814
 20
262.909401
 30
0.0
 10
33.731570
 20
262.929185
 30
0.0
 10
33.861948
 20
262.943099
 30
0.0
 10
34.049442
 20
262.942534
 30
0.0
 10
34.241511
 20
262.945723
 30
0.0
 10
34.851933
 20
262.766557
 30
0.0
 10
34.954461
 20
262.690419
 30
0.0
 10
35.343265
 20
262.340546
 30
0.0
 10
35.392281
 20
262.278776
 30
0.0
 10
35.470442
 20
262.161267
 30
0.0
 10
35.564945
 20
261.953286
 30
0.0
 10
35.608604
 20
261.795902
 30
0.0
 10
35.634766
 20
261.716682
 30
0.0
 10
35.653816
 20
261.602806
 30
0.0
 10
35.666319
 20
261.469664
 30
0.0
 10
35.649583
 20
261.074584
 30
0.0
 10
35.657259
 20
261.008948
 30
0.0
 10
35.570705
 20
260.620190
 30
0.0
 10
35.430271
 20
260.230573
 30
0.0
 10
35.385146
 20
260.167768
 30
0.0
 10
35.210417
 20
259.838888
 30
0.0
 10
35.101248
 20
259.696448
 30
0.0
 10
34.980962
 20
259.555043
 30
0.0
 10
34.593496
 20
259.567743
 30
0.0
 10
34.502130
 20
259.527374
 30
0.0
 10
34.342747
 20
259.366985
 30
0.0
 10
34.269355
 20
259.228538
 30
0.0
 10
33.725829
 20
259.392001
 30
0.0
 10
33.054584
 20
259.602587
 30
0.0
 10
33.054569
 20
259.602629
 30
0.0
  0
LWPOLYLINE
  5
116
100
AcDbEntity
  8
Layer_1
 62
3
100
AcDbPolyline
 90
44
 70
0
 10
35.958345
 20
258.785796
 30
0.0
 10
35.797846
 20
258.872447
 30
0.0
 10
35.488447
 20
259.007043
 30
0.0
 10
35.423232
 20
259.116397
 30
0.0
 10
35.310183
 20
259.326339
 30
0.0
 10
35.278763
 20
259.376611
 30
0.0
 10
35.225152
 20
259.432463
 30
0.0
 10
35.197776
 20
259.525348
 30
0.0
 10
35.231784
 20
259.583201
 30
0.0
 10
35.322741
 20
259.649608
 30
0.0
 10
35.654553
 20
259.893628
 30
0.0
 10
35.788795
 20
259.988537
 30
0.0
 10
35.944192
 20
260.084693
 30
0.0
 10
36.233343
 20
260.248382
 30
0.0
 10
36.393521
 20
260.325081
 30
0.0
 10
36.599571
 20
260.411929
 30
0.0
 10
36.927384
 20
260.554028
 30
0.0
 10
36.998173
 20
260.583921
 30
0.0
 10
37.166437
 20
260.644768
 30
0.0
 10
37.277974
 20
260.682462
 30
0.0
 10
37.365802
 20
260.707805
 30
0.0
 10
37.453880
 20
260.734024
 30
0.0
 10
37.616124
 20
260.761710
 30
0.0
 10
37.793487
 20
260.784090
 30
0.0
 10
38.253238
 20
260.747534
 30
0.0
 10
38.402491
 20
260.737938
 30
0.0
 10
38.416913
 20
260.733733
 30
0.0
 10
38.483486
 20
260.680802
 30
0.0
 10
38.813215
 20
260.384940
 30
0.0
 10
38.908914
 20
260.023157
 30
0.0
 10
38.922912
 20
259.989612
 30
0.0
 10
38.841451
 20
259.383297
 30
0.0
 10
38.597326
 20
258.865047
 30
0.0
 10
38.549047
 20
258.826041
 30
0.0
 10
38.433725
 20
258.719093
 30
0.0
 10
38.117170
 20
258.562259
 30
0.0
 10
38.077227
 20
258.550293
 30
0.0
 10
37.583152
 20
258.464082
 30
0.0
 10
37.483900
 20
258.450225
 30
0.0
 10
37.202852
 20
258.475766
 30
0.0
 10
36.936330
 20
258.499529
 30
0.0
 10
36.434782
 20
258.623894
 30
0.0
 10
35.958357
 20
258.785787
 30
0.0
 10
35.958345
 20
258.785796
 30
0.0
  0
LWPOLYLINE
  5
117
100
AcDbEntity
  8
Layer_1
 62
3
100
AcDbPolyline
 90
78
 70
0
 10
39.613022
 20
260.208128
 30
0.0
 10
39.542861
 20
260.266342
 30
0.0
 10
39.513408
 20
260.300045
 30
0.0
 10
39.254216
 20
260.499319
 30
0.0
 10
39.209480
 20
260.549549
 30
0.0
 10
39.162474
 20
260.616879
 30
0.0
 10
39.124831
 20
260.681480
 30
0.0
 10
39.053002
 20
260.793133
 30
0.0
 10
39.018498
 20
260.881680
 30
0.0
 10
38.934139
 20
261.169953
 30
0.0
 10
38.918391
 20
261.251103
 30
0.0
 10
38.905296
 20
261.536447
 30
0.0
 10
38.894769
 20
261.665891
 30
0.0
 10
39.128406
 20
262.471093
 30
0.0
 10
39.232357
 20
262.614087
 30
0.0
 10
39.344092
 20
262.769185
 30
0.0
 10
39.443127
 20
262.866501
 30
0.0
 10
39.860056
 20
263.154943
 30
0.0
 10
40.158568
 20
263.302495
 30
0.0
 10
40.211392
 20
263.327443
 30
0.0
 10
40.338669
 20
263.376019
 30
0.0
 10
40.469987
 20
263.418033
 30
0.0
 10
40.530323
 20
263.435390
 30
0.0
 10
40.623318
 20
263.457403
 30
0.0
 10
40.814794
 20
263.499048
 30
0.0
 10
40.949745
 20
263.527725
 30
0.0
 10
41.075308
 20
263.544573
 30
0.0
 10
41.200959
 20
263.561704
 30
0.0
 10
41.380368
 20
263.579287
 30
0.0
 10
41.559277
 20
263.595176
 30
0.0
 10
41.762226
 20
263.601554
 30
0.0
 10
41.965527
 20
263.609146
 30
0.0
 10
42.152748
 20
263.607453
 30
0.0
 10
42.340109
 20
263.606324
 30
0.0
 10
42.480862
 20
263.606287
 30
0.0
 10
42.629641
 20
263.587830
 30
0.0
 10
42.803208
 20
263.562401
 30
0.0
 10
42.969640
 20
263.558507
 30
0.0
 10
43.087109
 20
263.547585
 30
0.0
 10
43.187863
 20
263.498106
 30
0.0
 10
43.157354
 20
263.205371
 30
0.0
 10
43.191687
 20
263.084879
 30
0.0
 10
43.381117
 20
262.720976
 30
0.0
 10
43.434993
 20
262.663710
 30
0.0
 10
43.791926
 20
262.457592
 30
0.0
 10
43.897558
 20
262.387095
 30
0.0
 10
43.667039
 20
261.908303
 30
0.0
 10
43.627943
 20
261.862458
 30
0.0
 10
43.434152
 20
261.569574
 30
0.0
 10
43.336145
 20
261.457393
 30
0.0
 10
43.238908
 20
261.358395
 30
0.0
 10
43.189186
 20
261.310807
 30
0.0
 10
43.091202
 20
261.214629
 30
0.0
 10
43.015442
 20
261.141220
 30
0.0
 10
42.960919
 20
261.091154
 30
0.0
 10
42.923629
 20
261.040980
 30
0.0
 10
42.910873
 20
261.034094
 30
0.0
 10
42.825676
 20
260.985563
 30
0.0
 10
42.720297
 20
260.910125
 30
0.0
 10
42.670549
 20
260.877870
 30
0.0
 10
42.590215
 20
260.809270
 30
0.0
 10
42.337321
 20
260.654595
 30
0.0
 10
42.082147
 20
260.505161
 30
0.0
 10
41.931426
 20
260.425908
 30
0.0
 10
41.836281
 20
260.385409
 30
0.0
 10
41.680706
 20
260.317966
 30
0.0
 10
41.491882
 20
260.245085
 30
0.0
 10
41.434921
 20
260.226430
 30
0.0
 10
41.322944
 20
260.187224
 30
0.0
 10
41.176318
 20
260.145085
 30
0.0
 10
41.041264
 20
260.118698
 30
0.0
 10
40.940465
 20
260.093862
 30
0.0
 10
40.821737
 20
260.077465
 30
0.0
 10
40.689205
 20
260.062648
 30
0.0
 10
40.312518
 20
260.066853
 30
0.0
 10
40.254022
 20
260.055565
 30
0.0
 10
39.613047
 20
260.207967
 30
0.0
 10
39.613022
 20
260.208128
 30
0.0
  0
LWPOLYLINE
  5
118
100
AcDbEntity
  8
Layer_1
 62
3
100
AcDbPolyline
 90
5
 70
0
 10
44.385111
 20
259.469220
 30
0.0
 10
44.412035
 20
259.521693
 30
0.0
 10
44.379611
 20
259.410498
 30
0.0
 10
44.385114
 20
259.469220
 30
0.0
 10
44.385111
 20
259.469220
 30
0.0
  0
LWPOLYLINE
  5
119
100
AcDbEntity
  8
Layer_1
 62
3
100
AcDbPolyline
 90
56
 70
0
 10
44.448219
 20
260.006813
 30
0.0
 10
44.479199
 20
260.376496
 30
0.0
 10
44.423463
 20
260.448765
 30
0.0
 10
44.295153
 20
260.579011
 30
0.0
 10
44.236462
 20
260.672172
 30
0.0
 10
44.170089
 20
260.765260
 30
0.0
 10
44.149431
 20
260.839411
 30
0.0
 10
44.123607
 20
260.898949
 30
0.0
 10
44.089509
 20
260.963033
 30
0.0
 10
44.060274
 20
261.028461
 30
0.0
 10
44.025151
 20
261.156076
 30
0.0
 10
43.994414
 20
261.284905
 30
0.0
 10
43.973671
 20
261.440087
 30
0.0
 10
43.953803
 20
261.605876
 30
0.0
 10
44.002602
 20
262.136166
 30
0.0
 10
43.993740
 20
262.197496
 30
0.0
 10
43.993175
 20
262.287767
 30
0.0
 10
44.106928
 20
262.379030
 30
0.0
 10
44.372863
 20
262.394552
 30
0.0
 10
44.483895
 20
262.430518
 30
0.0
 10
44.713531
 20
262.554462
 30
0.0
 10
44.760094
 20
262.585574
 30
0.0
 10
44.864065
 20
262.692180
 30
0.0
 10
44.949847
 20
262.790047
 30
0.0
 10
44.987168
 20
262.846192
 30
0.0
 10
45.031313
 20
262.900350
 30
0.0
 10
45.403640
 20
262.711335
 30
0.0
 10
45.587028
 20
262.607500
 30
0.0
 10
45.770049
 20
262.499567
 30
0.0
 10
45.907359
 20
262.392971
 30
0.0
 10
46.031898
 20
262.291366
 30
0.0
 10
46.136913
 20
262.191769
 30
0.0
 10
46.242241
 20
262.093260
 30
0.0
 10
46.293191
 20
262.020765
 30
0.0
 10
46.491912
 20
261.662244
 30
0.0
 10
46.508930
 20
261.648161
 30
0.0
 10
46.543620
 20
261.565897
 30
0.0
 10
46.575997
 20
261.439215
 30
0.0
 10
46.597079
 20
261.278902
 30
0.0
 10
46.614012
 20
261.151831
 30
0.0
 10
46.559120
 20
260.688406
 30
0.0
 10
46.365239
 20
260.116629
 30
0.0
 10
46.031274
 20
259.912850
 30
0.0
 10
45.927699
 20
259.887987
 30
0.0
 10
45.757716
 20
259.884007
 30
0.0
 10
45.624202
 20
259.882032
 30
0.0
 10
45.307589
 20
259.951007
 30
0.0
 10
45.019730
 20
260.061762
 30
0.0
 10
44.958384
 20
260.106463
 30
0.0
 10
44.631477
 20
260.285807
 30
0.0
 10
44.597972
 20
260.318816
 30
0.0
 10
44.506763
 20
260.137621
 30
0.0
 10
44.487685
 20
259.926456
 30
0.0
 10
44.409984
 20
259.649718
 30
0.0
 10
44.448149
 20
260.006907
 30
0.0
 10
44.448219
 20
260.006813
 30
0.0
  0
LWPOLYLINE
  5
11a
100
AcDbEntity
  8
Layer_1
 62
3
100
AcDbPolyline
 90
69
 70
0
 10
45.083549
 20
263.176457
 30
0.0
 10
45.117450
 20
263.384652
 30
0.0
 10
45.103903
 20
263.430152
 30
0.0
 10
45.037692
 20
263.717496
 30
0.0
 10
44.865894
 20
263.979588
 30
0.0
 10
44.823634
 20
264.032062
 30
0.0
 10
44.786389
 20
264.078044
 30
0.0
 10
44.802702
 20
264.210468
 30
0.0
 10
44.878560
 20
264.312286
 30
0.0
 10
44.994415
 20
264.478083
 30
0.0
 10
45.106776
 20
264.634338
 30
0.0
 10
45.186707
 20
264.733183
 30
0.0
 10
45.271253
 20
264.841249
 30
0.0
 10
45.381551
 20
264.983359
 30
0.0
 10
45.492585
 20
265.125255
 30
0.0
 10
45.591307
 20
265.230527
 30
0.0
 10
45.688913
 20
265.336120
 30
0.0
 10
45.738646
 20
265.386771
 30
0.0
 10
45.812027
 20
265.465917
 30
0.0
 10
45.930013
 20
265.580849
 30
0.0
 10
46.022534
 20
265.667816
 30
0.0
 10
46.113511
 20
265.741829
 30
0.0
 10
46.226044
 20
265.830997
 30
0.0
 10
46.271335
 20
265.870468
 30
0.0
 10
46.342289
 20
265.935583
 30
0.0
 10
46.570146
 20
266.071168
 30
0.0
 10
46.956432
 20
266.280258
 30
0.0
 10
47.064143
 20
266.317748
 30
0.0
 10
47.328012
 20
266.413924
 30
0.0
 10
47.441513
 20
266.453793
 30
0.0
 10
47.504364
 20
266.469033
 30
0.0
 10
47.580632
 20
266.482241
 30
0.0
 10
47.753256
 20
266.515978
 30
0.0
 10
47.888993
 20
266.544779
 30
0.0
 10
48.123407
 20
266.544215
 30
0.0
 10
48.395046
 20
266.542239
 30
0.0
 10
49.207485
 20
266.303699
 30
0.0
 10
49.313567
 20
266.224683
 30
0.0
 10
49.598845
 20
265.996995
 30
0.0
 10
49.837665
 20
265.656922
 30
0.0
 10
49.945177
 20
265.367179
 30
0.0
 10
49.980184
 20
265.243128
 30
0.0
 10
49.994577
 20
265.111567
 30
0.0
 10
50.011511
 20
264.987367
 30
0.0
 10
49.896248
 20
264.283657
 30
0.0
 10
49.613930
 20
263.643918
 30
0.0
 10
49.582180
 20
263.616740
 30
0.0
 10
49.246130
 20
263.259049
 30
0.0
 10
49.197486
 20
263.216981
 30
0.0
 10
48.723575
 20
262.956140
 30
0.0
 10
48.600549
 20
262.899111
 30
0.0
 10
48.519086
 20
262.875489
 30
0.0
 10
48.459726
 20
262.855988
 30
0.0
 10
48.313856
 20
262.812596
 30
0.0
 10
48.185733
 20
262.781611
 30
0.0
 10
48.085753
 20
262.760557
 30
0.0
 10
47.985468
 20
262.738459
 30
0.0
 10
47.824128
 20
262.713850
 30
0.0
 10
47.631522
 20
262.689353
 30
0.0
 10
47.435177
 20
262.682636
 30
0.0
 10
47.270495
 20
262.677189
 30
0.0
 10
47.113605
 20
262.667847
 30
0.0
 10
46.943778
 20
262.661413
 30
0.0
 10
46.637296
 20
262.682382
 30
0.0
 10
46.353761
 20
262.699992
 30
0.0
 10
45.405720
 20
262.879398
 30
0.0
 10
45.024929
 20
262.975701
 30
0.0
 10
45.083541
 20
263.176688
 30
0.0
 10
45.083549
 20
263.176457
 30
0.0
  0
LWPOLYLINE
  5
11b
100
AcDbEntity
  8
Layer_1
 62
3
100
AcDbPolyline
 90
88
 70
0
 10
42.798184
 20
263.829926
 30
0.0
 10
42.607411
 20
263.931875
 30
0.0
 10
42.476970
 20
264.004477
 30
0.0
 10
42.129956
 20
264.173029
 30
0.0
 10
41.888726
 20
264.311191
 30
0.0
 10
41.647339
 20
264.448828
 30
0.0
 10
41.449306
 20
264.574233
 30
0.0
 10
41.263948
 20
264.697124
 30
0.0
 10
41.199268
 20
264.751147
 30
0.0
 10
41.038297
 20
264.865721
 30
0.0
 10
40.851198
 20
265.005629
 30
0.0
 10
40.760605
 20
265.085733
 30
0.0
 10
40.655353
 20
265.184508
 30
0.0
 10
40.549666
 20
265.281798
 30
0.0
 10
40.490958
 20
265.349698
 30
0.0
 10
40.424140
 20
265.439464
 30
0.0
 10
40.384493
 20
265.488791
 30
0.0
 10
40.329031
 20
265.554332
 30
0.0
 10
40.259607
 20
265.658299
 30
0.0
 10
40.029932
 20
266.073894
 30
0.0
 10
40.007721
 20
266.134651
 30
0.0
 10
39.998633
 20
266.192862
 30
0.0
 10
39.975152
 20
266.251240
 30
0.0
 10
39.943058
 20
266.327643
 30
0.0
 10
39.925786
 20
266.392060
 30
0.0
 10
39.888290
 20
266.551792
 30
0.0
 10
39.859653
 20
266.687499
 30
0.0
 10
39.845203
 20
266.872687
 30
0.0
 10
39.835128
 20
267.070147
 30
0.0
 10
39.943614
 20
267.708666
 30
0.0
 10
40.196739
 20
268.305008
 30
0.0
 10
40.302124
 20
268.441984
 30
0.0
 10
40.403645
 20
268.566546
 30
0.0
 10
40.477178
 20
268.635594
 30
0.0
 10
40.605117
 20
268.757049
 30
0.0
 10
40.774899
 20
268.871757
 30
0.0
 10
40.903062
 20
268.930326
 30
0.0
 10
40.960190
 20
268.954287
 30
0.0
 10
41.054802
 20
268.993061
 30
0.0
 10
41.130731
 20
269.021229
 30
0.0
 10
41.254528
 20
269.055256
 30
0.0
 10
41.388896
 20
269.079309
 30
0.0
 10
41.573473
 20
269.110186
 30
0.0
 10
41.605621
 20
269.123100
 30
0.0
 10
41.752785
 20
269.150481
 30
0.0
 10
41.925457
 20
269.170070
 30
0.0
 10
42.186338
 20
269.166049
 30
0.0
 10
42.417946
 20
269.164666
 30
0.0
 10
42.603807
 20
269.145940
 30
0.0
 10
43.367709
 20
268.889802
 30
0.0
 10
43.523507
 20
268.783204
 30
0.0
 10
43.691533
 20
268.666458
 30
0.0
 10
43.797474
 20
268.566063
 30
0.0
 10
43.885189
 20
268.469653
 30
0.0
 10
43.922256
 20
268.425231
 30
0.0
 10
43.972920
 20
268.356832
 30
0.0
 10
44.014748
 20
268.291012
 30
0.0
 10
44.311121
 20
267.699105
 30
0.0
 10
44.326389
 20
267.663892
 30
0.0
 10
44.365759
 20
267.558572
 30
0.0
 10
44.401430
 20
267.454328
 30
0.0
 10
44.431320
 20
267.324960
 30
0.0
 10
44.457736
 20
267.196600
 30
0.0
 10
44.480257
 20
267.089488
 30
0.0
 10
44.504105
 20
266.966594
 30
0.0
 10
44.520474
 20
266.787544
 30
0.0
 10
44.539608
 20
266.590948
 30
0.0
 10
44.543418
 20
266.382050
 30
0.0
 10
44.545958
 20
266.205678
 30
0.0
 10
44.547369
 20
266.024237
 30
0.0
 10
44.545958
 20
265.829608
 30
0.0
 10
44.513802
 20
265.485320
 30
0.0
 10
44.484592
 20
265.165023
 30
0.0
 10
44.427668
 20
264.797973
 30
0.0
 10
44.342835
 20
264.365885
 30
0.0
 10
44.283594
 20
264.302660
 30
0.0
 10
44.094826
 20
264.312966
 30
0.0
 10
43.932472
 20
264.311837
 30
0.0
 10
43.729001
 20
264.254913
 30
0.0
 10
43.676931
 20
264.237358
 30
0.0
 10
43.591062
 20
264.168843
 30
0.0
 10
43.457653
 20
264.040175
 30
0.0
 10
43.385475
 20
263.970227
 30
0.0
 10
43.322457
 20
263.888058
 30
0.0
 10
43.216453
 20
263.697080
 30
0.0
 10
43.110799
 20
263.705305
 30
0.0
 10
42.798182
 20
263.829985
 30
0.0
 10
42.798184
 20
263.829926
 30
0.0
  0
LWPOLYLINE
  5
11c
100
AcDbEntity
  8
Layer_1
 62
1
100
AcDbPolyline
 90
18
 70
0
 10
12.051317
 20
277.941816
 30
0.0
 10
11.977443
 20
277.575907
 30
0.0
 10
11.775983
 20
277.277102
 30
0.0
 10
11.477178
 20
277.075642
 30
0.0
 10
11.111270
 20
277.001769
 30
0.0
 10
10.751529
 20
277.073325
 30
0.0
 10
10.446556
 20
277.277102
 30
0.0
 10
10.242779
 20
277.582075
 30
0.0
 10
10.171222
 20
277.941816
 30
0.0
 10
10.242779
 20
278.301556
 30
0.0
 10
10.446556
 20
278.606530
 30
0.0
 10
10.751529
 20
278.810306
 30
0.0
 10
11.111270
 20
278.881863
 30
0.0
 10
11.477178
 20
278.807989
 30
0.0
 10
11.775983
 20
278.606530
 30
0.0
 10
11.977443
 20
278.307725
 30
0.0
 10
12.051317
 20
277.941816
 30
0.0
 10
12.051317
 20
277.941816
 30
0.0
  0
LWPOLYLINE
  5
11d
100
AcDbEntity
  8
Layer_1
 62
1
100
AcDbPolyline
 90
5
 70
0
 10
7.252947
 20
281.981851
 30
0.0
 10
57.252949
 20
281.981851
 30
0.0
 10
57.252949
 20
231.981850
 30
0.0
 10
7.252947
 20
231.981850
 30
0.0
 10
7.252947
 20
281.981851
 30
0.0
  0
LWPOLYLINE
  5
11e
100
AcDbEntity
  8
Layer_1
 62
1
100
AcDbPolyline
 90
39
 70
0
 10
71.264585
 20
248.224992
 30
0.0
 10
71.391429
 20
248.560672
 30
0.0
 10
71.428402
 20
249.412345
 30
0.0
 10
71.229815
 20
253.070943
 30
0.0
 10
70.982106
 20
257.822470
 30
0.0
 10
77.848051
 20
259.780449
 30
0.0
 10
83.580043
 20
261.244346
 30
0.0
 10
85.181072
 20
261.526817
 30
0.0
 10
86.320938
 20
261.591313
 30
0.0
 10
87.767021
 20
261.662464
 30
0.0
 10
88.192738
 20
261.806938
 30
0.0
 10
88.506915
 20
262.041876
 30
0.0
 10
88.763788
 20
262.328533
 30
0.0
 10
88.831287
 20
262.538508
 30
0.0
 10
88.696201
 20
262.755220
 30
0.0
 10
88.345315
 20
263.062086
 30
0.0
 10
87.906933
 20
263.316565
 30
0.0
 10
87.366865
 20
263.474927
 30
0.0
 10
86.774469
 20
263.542263
 30
0.0
 10
86.179102
 20
263.523664
 30
0.0
 10
85.630120
 20
263.424221
 30
0.0
 10
85.176881
 20
263.249026
 30
0.0
 10
84.868743
 20
263.003171
 30
0.0
 10
84.755061
 20
262.691746
 30
0.0
 10
84.303824
 20
262.407512
 30
0.0
 10
82.936957
 20
261.922045
 30
0.0
 10
77.377394
 20
260.322061
 30
0.0
 10
71.530906
 20
258.643503
 30
0.0
 10
70.343711
 20
258.186541
 30
0.0
 10
70.081303
 20
258.019611
 30
0.0
 10
70.000518
 20
257.880752
 30
0.0
 10
69.688908
 20
253.163035
 30
0.0
 10
69.517158
 20
250.012999
 30
0.0
 10
69.542917
 20
248.449526
 30
0.0
 10
69.807845
 20
248.175891
 30
0.0
 10
70.264093
 20
248.036693
 30
0.0
 10
70.790170
 20
248.047779
 30
0.0
 10
71.264585
 20
248.224992
 30
0.0
 10
71.264585
 20
248.224992
 30
0.0
  0
LWPOLYLINE
  5
11f
100
AcDbEntity
  8
Layer_1
 62
1
100
AcDbPolyline
 90
53
 70
0
 10
86.723144
 20
269.372990
 30
0.0
 10
74.266922
 20
266.003832
 30
0.0
 10
65.468539
 20
263.582792
 30
0.0
 10
61.806432
 20
262.493251
 30
0.0
 10
62.886940
 20
261.853295
 30
0.0
 10
65.490999
 20
260.513278
 30
0.0
 10
67.373412
 20
259.551647
 30
0.0
 10
68.496904
 20
258.901421
 30
0.0
 10
69.040586
 20
258.443518
 30
0.0
 10
69.183569
 20
258.058854
 30
0.0
 10
68.863354
 20
252.824464
 30
0.0
 10
68.539944
 20
248.205951
 30
0.0
 10
69.163286
 20
247.701084
 30
0.0
 10
69.814326
 20
247.341223
 30
0.0
 10
70.536403
 20
247.216315
 30
0.0
 10
71.250502
 20
247.327124
 30
0.0
 10
71.877611
 20
247.674414
 30
0.0
 10
72.200069
 20
248.024569
 30
0.0
 10
72.327343
 20
248.667645
 30
0.0
 10
72.276582
 20
250.060128
 30
0.0
 10
72.064936
 20
252.658500
 30
0.0
 10
71.766605
 20
257.251399
 30
0.0
 10
74.942034
 20
255.765620
 30
0.0
 10
74.576994
 20
253.071041
 30
0.0
 10
74.166055
 20
249.792076
 30
0.0
 10
74.883862
 20
249.016631
 30
0.0
 10
75.693192
 20
248.225703
 30
0.0
 10
76.652318
 20
247.428022
 30
0.0
 10
78.870754
 20
245.903526
 30
0.0
 10
81.240759
 20
244.625383
 30
0.0
 10
82.389348
 20
244.135646
 30
0.0
 10
83.463926
 20
243.775838
 30
0.0
 10
85.125450
 20
243.504346
 30
0.0
 10
87.214134
 20
243.467903
 30
0.0
 10
88.612055
 20
243.585303
 30
0.0
 10
89.958484
 20
243.827229
 30
0.0
 10
91.263604
 20
244.198311
 30
0.0
 10
92.537599
 20
244.703181
 30
0.0
 10
93.790653
 20
245.346467
 30
0.0
 10
95.032950
 20
246.132800
 30
0.0
 10
96.274674
 20
247.066810
 30
0.0
 10
97.526009
 20
248.153127
 30
0.0
 10
99.301046
 20
249.793677
 30
0.0
 10
98.982970
 20
252.388456
 30
0.0
 10
98.521331
 20
255.726659
 30
0.0
 10
98.498922
 20
255.843536
 30
0.0
 10
99.099319
 20
256.143468
 30
0.0
 10
107.880759
 20
260.575094
 30
0.0
 10
111.533127
 20
262.502332
 30
0.0
 10
107.889200
 20
263.592065
 30
0.0
 10
99.128140
 20
266.009714
 30
0.0
 10
86.723144
 20
269.372990
 30
0.0
 10
86.723144
 20
269.372990
 30
0.0
  0
LWPOLYLINE
  5
120
100
AcDbEntity
  8
Layer_1
 62
3
100
AcDbPolyline
 90
8
 70
0
 10
83.007307
 20
267.861347
 30
0.0
 10
82.710905
 20
267.692941
 30
0.0
 10
82.498707
 20
267.376334
 30
0.0
 10
82.434709
 20
267.143930
 30
0.0
 10
82.486913
 20
266.879527
 30
0.0
 10
82.719317
 20
266.815529
 30
0.0
 10
82.983720
 20
266.867734
 30
0.0
 10
83.280122
 20
267.036140
 30
0.0
  0
LWPOLYLINE
  5
121
100
AcDbEntity
  8
Layer_1
 62
3
100
AcDbPolyline
 90
13
 70
0
 10
83.704519
 20
267.669354
 30
0.0
 10
83.280122
 20
267.036140
 30
0.0
 10
83.216124
 20
266.803736
 30
0.0
 10
83.300327
 20
266.655535
 30
0.0
 10
83.532731
 20
266.591537
 30
0.0
 10
83.797134
 20
266.643742
 30
0.0
 10
84.093536
 20
266.812148
 30
0.0
 10
84.305734
 20
267.128755
 30
0.0
 10
84.401731
 20
267.477361
 30
0.0
 10
84.389937
 20
266.980554
 30
0.0
 10
84.474140
 20
266.832353
 30
0.0
 10
84.706544
 20
266.768356
 30
0.0
 10
84.970947
 20
266.820560
 30
0.0
  0
LWPOLYLINE
  5
122
100
AcDbEntity
  8
Layer_1
 62
3
100
AcDbPolyline
 90
8
 70
0
 10
85.447548
 20
267.189371
 30
0.0
 10
85.151147
 20
267.020965
 30
0.0
 10
84.938948
 20
266.704358
 30
0.0
 10
84.874951
 20
266.471954
 30
0.0
 10
84.927155
 20
266.207551
 30
0.0
 10
85.159559
 20
266.143554
 30
0.0
 10
85.423962
 20
266.195758
 30
0.0
 10
85.720363
 20
266.364164
 30
0.0
  0
LWPOLYLINE
  5
123
100
AcDbEntity
  8
Layer_1
 62
3
100
AcDbPolyline
 90
13
 70
0
 10
86.144760
 20
266.997378
 30
0.0
 10
85.720363
 20
266.364164
 30
0.0
 10
85.656366
 20
266.131760
 30
0.0
 10
85.740569
 20
265.983559
 30
0.0
 10
85.972973
 20
265.919562
 30
0.0
 10
86.237376
 20
265.971766
 30
0.0
 10
86.533777
 20
266.140172
 30
0.0
 10
86.745976
 20
266.456779
 30
0.0
 10
86.841972
 20
266.805385
 30
0.0
 10
86.830179
 20
266.308579
 30
0.0
 10
86.914382
 20
266.160378
 30
0.0
 10
87.146786
 20
266.096380
 30
0.0
 10
87.411189
 20
266.148584
 30
0.0
  0
LWPOLYLINE
  5
124
100
AcDbEntity
  8
Layer_1
 62
3
100
AcDbPolyline
 90
8
 70
0
 10
87.887790
 20
266.517396
 30
0.0
 10
87.591389
 20
266.348990
 30
0.0
 10
87.379190
 20
266.032382
 30
0.0
 10
87.315192
 20
265.799978
 30
0.0
 10
87.367397
 20
265.535576
 30
0.0
 10
87.599801
 20
265.471578
 30
0.0
 10
87.864203
 20
265.523782
 30
0.0
 10
88.160605
 20
265.692189
 30
0.0
  0
LWPOLYLINE
  5
125
100
AcDbEntity
  8
Layer_1
 62
3
100
AcDbPolyline
 90
13
 70
0
 10
88.585002
 20
266.325403
 30
0.0
 10
88.160605
 20
265.692189
 30
0.0
 10
88.096607
 20
265.459785
 30
0.0
 10
88.180811
 20
265.311584
 30
0.0
 10
88.413215
 20
265.247586
 30
0.0
 10
88.677617
 20
265.299790
 30
0.0
 10
88.974019
 20
265.468197
 30
0.0
 10
89.186218
 20
265.784804
 30
0.0
 10
89.282214
 20
266.133410
 30
0.0
 10
89.270421
 20
265.636603
 30
0.0
 10
89.354624
 20
265.488402
 30
0.0
 10
89.587028
 20
265.424404
 30
0.0
 10
89.851431
 20
265.476609
 30
0.0
  0
LWPOLYLINE
  5
126
100
AcDbEntity
  8
Layer_1
 62
3
100
AcDbPolyline
 90
5
 70
0
 10
90.336444
 20
264.968009
 30
0.0
 10
90.188243
 20
264.883805
 30
0.0
 10
90.272446
 20
264.735605
 30
0.0
 10
90.420647
 20
264.819808
 30
0.0
 10
90.336444
 20
264.968009
 30
0.0
  0
LWPOLYLINE
  5
127
100
AcDbEntity
  8
Layer_1
 62
3
100
AcDbPolyline
 90
27
 70
0
 10
92.091267
 20
264.984833
 30
0.0
 10
92.039063
 20
265.249236
 30
0.0
 10
91.838658
 20
265.429435
 30
0.0
 10
91.606254
 20
265.493433
 30
0.0
 10
91.341851
 20
265.441229
 30
0.0
 10
91.193650
 20
265.357025
 30
0.0
 10
91.013451
 20
265.156620
 30
0.0
 10
90.949453
 20
264.924216
 30
0.0
 10
91.001657
 20
264.659814
 30
0.0
 10
91.202062
 20
264.479614
 30
0.0
 10
91.434466
 20
264.415616
 30
0.0
 10
91.698869
 20
264.467820
 30
0.0
 10
91.879069
 20
264.668226
 30
0.0
 10
92.303466
 20
265.301440
 30
0.0
 10
92.027270
 20
264.752429
 30
0.0
 10
91.931273
 20
264.403823
 30
0.0
 10
92.015476
 20
264.255622
 30
0.0
 10
92.131678
 20
264.223623
 30
0.0
 10
92.396081
 20
264.275827
 30
0.0
 10
92.544282
 20
264.360031
 30
0.0
 10
92.872682
 20
264.644639
 30
0.0
 10
93.201083
 20
264.929247
 30
0.0
 10
93.465486
 20
264.981451
 30
0.0
 10
93.549689
 20
264.833251
 30
0.0
 10
93.517690
 20
264.717049
 30
0.0
 10
93.273493
 20
264.284240
 30
0.0
 10
93.061294
 20
263.967632
 30
0.0
  0
LWPOLYLINE
  5
128
100
AcDbEntity
  8
Layer_1
 62
3
100
AcDbPolyline
 90
14
 70
0
 10
93.273493
 20
264.284240
 30
0.0
 10
93.453692
 20
264.484645
 30
0.0
 10
93.782093
 20
264.769253
 30
0.0
 10
94.046496
 20
264.821457
 30
0.0
 10
94.278900
 20
264.757460
 30
0.0
 10
94.363103
 20
264.609259
 30
0.0
 10
94.299105
 20
264.376855
 30
0.0
 10
94.086907
 20
264.060248
 30
0.0
 10
94.022909
 20
263.827844
 30
0.0
 10
94.107112
 20
263.679643
 30
0.0
 10
94.223314
 20
263.647644
 30
0.0
 10
94.487717
 20
263.699848
 30
0.0
 10
94.635918
 20
263.784051
 30
0.0
 10
94.964318
 20
264.068660
 30
0.0
  0
LWPOLYLINE
  5
129
100
AcDbEntity
  8
Layer_1
 62
3
100
AcDbPolyline
 90
59
 70
0
 10
96.042135
 20
263.896872
 30
0.0
 10
95.989931
 20
264.161275
 30
0.0
 10
95.789525
 20
264.341475
 30
0.0
 10
95.557121
 20
264.405472
 30
0.0
 10
95.292719
 20
264.353268
 30
0.0
 10
95.144518
 20
264.269065
 30
0.0
 10
94.964318
 20
264.068660
 30
0.0
 10
94.900320
 20
263.836256
 30
0.0
 10
94.952525
 20
263.571853
 30
0.0
 10
95.152930
 20
263.391653
 30
0.0
 10
95.385334
 20
263.327656
 30
0.0
 10
95.649737
 20
263.379860
 30
0.0
 10
95.829936
 20
263.580265
 30
0.0
 10
96.254333
 20
264.213479
 30
0.0
 10
95.978137
 20
263.664468
 30
0.0
 10
95.882141
 20
263.315862
 30
0.0
 10
95.966344
 20
263.167661
 30
0.0
 10
96.082546
 20
263.135663
 30
0.0
 10
96.346949
 20
263.187867
 30
0.0
 10
96.495149
 20
263.272070
 30
0.0
 10
96.823550
 20
263.556678
 30
0.0
 10
97.448352
 20
264.009693
 30
0.0
 10
97.776753
 20
264.294301
 30
0.0
 10
97.956952
 20
264.494706
 30
0.0
 10
98.169151
 20
264.811313
 30
0.0
 10
98.233148
 20
265.043717
 30
0.0
 10
98.148945
 20
265.191918
 30
0.0
 10
97.884543
 20
265.139714
 30
0.0
 10
97.704343
 20
264.939309
 30
0.0
 10
97.215948
 20
264.073691
 30
0.0
 10
96.579353
 20
263.123869
 30
0.0
 10
96.006755
 20
262.406452
 30
0.0
 10
95.794556
 20
262.089845
 30
0.0
 10
95.730559
 20
261.857441
 30
0.0
 10
95.814762
 20
261.709240
 30
0.0
 10
96.079165
 20
261.761444
 30
0.0
 10
96.291363
 20
262.078051
 30
0.0
 10
96.695555
 20
263.091870
 30
0.0
 10
96.779758
 20
262.943669
 30
0.0
 10
97.012162
 20
262.879672
 30
0.0
 10
97.276565
 20
262.931876
 30
0.0
 10
97.424765
 20
263.016079
 30
0.0
 10
97.753166
 20
263.300688
 30
0.0
 10
98.081566
 20
263.585296
 30
0.0
 10
98.590167
 20
264.070309
 30
0.0
 10
98.770366
 20
264.270714
 30
0.0
 10
98.982565
 20
264.587322
 30
0.0
 10
99.046562
 20
264.819725
 30
0.0
 10
98.962359
 20
264.967926
 30
0.0
 10
98.697956
 20
264.915722
 30
0.0
 10
98.517757
 20
264.715317
 30
0.0
 10
98.273559
 20
264.282508
 30
0.0
 10
97.933366
 20
263.501093
 30
0.0
 10
97.741372
 20
262.803881
 30
0.0
 10
97.825576
 20
262.655680
 30
0.0
 10
97.941778
 20
262.623681
 30
0.0
 10
98.206180
 20
262.675885
 30
0.0
 10
98.354381
 20
262.760089
 30
0.0
 10
98.682782
 20
263.044697
 30
0.0
  0
LWPOLYLINE
  5
12a
100
AcDbEntity
  8
Layer_1
 62
3
100
AcDbPolyline
 90
35
 70
0
 10
99.507989
 20
263.317512
 30
0.0
 10
99.275585
 20
263.381509
 30
0.0
 10
99.011182
 20
263.329305
 30
0.0
 10
98.862981
 20
263.245102
 30
0.0
 10
98.682782
 20
263.044697
 30
0.0
 10
98.618784
 20
262.812293
 30
0.0
 10
98.670988
 20
262.547890
 30
0.0
 10
98.871394
 20
262.367690
 30
0.0
 10
99.103798
 20
262.303693
 30
0.0
 10
99.368200
 20
262.355897
 30
0.0
 10
99.516401
 20
262.440100
 30
0.0
 10
99.696601
 20
262.640505
 30
0.0
 10
99.760599
 20
262.872909
 30
0.0
 10
99.708394
 20
263.137312
 30
0.0
 10
99.507989
 20
263.317512
 30
0.0
 10
99.359788
 20
263.233309
 30
0.0
 10
99.295791
 20
263.000905
 30
0.0
 10
99.347995
 20
262.736502
 30
0.0
 10
99.548400
 20
262.556302
 30
0.0
 10
99.897006
 20
262.460306
 30
0.0
 10
100.161409
 20
262.512510
 30
0.0
 10
100.309610
 20
262.596713
 30
0.0
 10
100.638010
 20
262.881321
 30
0.0
 10
100.818210
 20
263.081726
 30
0.0
 10
100.754212
 20
262.849322
 30
0.0
 10
101.102818
 20
262.753326
 30
0.0
 10
101.187021
 20
262.605125
 30
0.0
 10
101.123024
 20
262.372721
 30
0.0
 10
100.910825
 20
262.056114
 30
0.0
 10
100.878826
 20
261.939912
 30
0.0
 10
100.963029
 20
261.791711
 30
0.0
 10
101.079231
 20
261.759712
 30
0.0
 10
101.343634
 20
261.811917
 30
0.0
 10
101.491835
 20
261.896120
 30
0.0
 10
101.820235
 20
262.180728
 30
0.0
  0
LWPOLYLINE
  5
12b
100
AcDbEntity
  8
Layer_1
 62
3
100
AcDbPolyline
 90
5
 70
0
 10
102.305249
 20
261.672128
 30
0.0
 10
102.157048
 20
261.587925
 30
0.0
 10
102.241251
 20
261.439724
 30
0.0
 10
102.389452
 20
261.523927
 30
0.0
 10
102.305249
 20
261.672128
 30
0.0
  0
LWPOLYLINE
  5
12c
100
AcDbEntity
  8
Layer_1
 62
3
100
AcDbPolyline
 90
14
 70
0
 10
102.982255
 20
261.860740
 30
0.0
 10
103.310656
 20
262.145348
 30
0.0
 10
103.490856
 20
262.345753
 30
0.0
 10
103.426858
 20
262.113349
 30
0.0
 10
103.775464
 20
262.017353
 30
0.0
 10
103.859667
 20
261.869152
 30
0.0
 10
103.795669
 20
261.636748
 30
0.0
 10
103.583471
 20
261.320141
 30
0.0
 10
103.551472
 20
261.203939
 30
0.0
 10
103.635675
 20
261.055738
 30
0.0
 10
103.751877
 20
261.023739
 30
0.0
 10
104.016280
 20
261.075943
 30
0.0
 10
104.164481
 20
261.160146
 30
0.0
 10
104.492881
 20
261.444755
 30
0.0
  0
LWPOLYLINE
  5
12d
100
AcDbEntity
  8
Layer_1
 62
3
100
AcDbPolyline
 90
22
 70
0
 10
105.318089
 20
261.717570
 30
0.0
 10
105.085685
 20
261.781567
 30
0.0
 10
104.821282
 20
261.729363
 30
0.0
 10
104.673081
 20
261.645160
 30
0.0
 10
104.492881
 20
261.444755
 30
0.0
 10
104.428884
 20
261.212351
 30
0.0
 10
104.481088
 20
260.947948
 30
0.0
 10
104.681493
 20
260.767748
 30
0.0
 10
104.913897
 20
260.703751
 30
0.0
 10
105.178300
 20
260.755955
 30
0.0
 10
105.326501
 20
260.840158
 30
0.0
 10
105.506700
 20
261.040563
 30
0.0
 10
105.570698
 20
261.272967
 30
0.0
 10
105.518494
 20
261.537370
 30
0.0
 10
105.318089
 20
261.717570
 30
0.0
 10
105.169888
 20
261.633367
 30
0.0
 10
105.105890
 20
261.400963
 30
0.0
 10
105.158094
 20
261.136560
 30
0.0
 10
105.358499
 20
260.956360
 30
0.0
 10
105.707105
 20
260.860364
 30
0.0
 10
105.971508
 20
260.912568
 30
0.0
 10
106.119709
 20
260.996771
 30
0.0
  0
LWPOLYLINE
  5
12e
100
AcDbEntity
  8
Layer_1
 62
3
100
AcDbPolyline
 90
10
 70
0
 10
77.774046
 20
253.142292
 30
0.0
 10
77.411223
 20
253.142292
 30
0.0
 10
77.048400
 20
253.323703
 30
0.0
 10
76.866988
 20
253.686526
 30
0.0
 10
77.048400
 20
254.049350
 30
0.0
 10
77.592635
 20
254.230761
 30
0.0
 10
78.136869
 20
254.230761
 30
0.0
 10
78.862516
 20
254.049350
 30
0.0
 10
79.406750
 20
254.049350
 30
0.0
 10
79.769574
 20
254.230761
 30
0.0
  0
LWPOLYLINE
  5
12f
100
AcDbEntity
  8
Layer_1
 62
3
100
AcDbPolyline
 90
13
 70
0
 10
78.862516
 20
254.049350
 30
0.0
 10
78.499693
 20
252.779469
 30
0.0
 10
78.136869
 20
251.690999
 30
0.0
 10
77.774046
 20
250.965353
 30
0.0
 10
77.411223
 20
250.602530
 30
0.0
 10
77.048400
 20
250.421118
 30
0.0
 10
76.685577
 20
250.421118
 30
0.0
 10
76.322754
 20
250.602530
 30
0.0
 10
76.141342
 20
250.965353
 30
0.0
 10
76.141342
 20
251.328176
 30
0.0
 10
76.322754
 20
251.509588
 30
0.0
 10
76.685577
 20
251.509588
 30
0.0
 10
77.048400
 20
251.328176
 30
0.0
  0
LWPOLYLINE
  5
130
100
AcDbEntity
  8
Layer_1
 62
3
100
AcDbPolyline
 90
2
 70
0
 10
77.592635
 20
252.416645
 30
0.0
 10
79.225339
 20
252.416645
 30
0.0
  0
LWPOLYLINE
  5
131
100
AcDbEntity
  8
Layer_1
 62
3
100
AcDbPolyline
 90
32
 70
0
 10
79.769574
 20
250.783941
 30
0.0
 10
80.132397
 20
250.965353
 30
0.0
 10
80.313808
 20
251.146764
 30
0.0
 10
80.495220
 20
251.509588
 30
0.0
 10
80.495220
 20
251.872411
 30
0.0
 10
80.313808
 20
252.053822
 30
0.0
 10
80.132397
 20
252.053822
 30
0.0
 10
79.769574
 20
251.872411
 30
0.0
 10
79.588162
 20
251.509588
 30
0.0
 10
79.588162
 20
250.965353
 30
0.0
 10
79.769574
 20
250.602530
 30
0.0
 10
80.132397
 20
250.421118
 30
0.0
 10
80.495220
 20
250.421118
 30
0.0
 10
80.858043
 20
250.602530
 30
0.0
 10
81.039455
 20
250.783941
 30
0.0
 10
81.402278
 20
251.328176
 30
0.0
 10
81.765101
 20
251.872411
 30
0.0
 10
82.309336
 20
252.779469
 30
0.0
 10
82.490747
 20
253.142292
 30
0.0
 10
82.672159
 20
253.686526
 30
0.0
 10
82.672159
 20
254.049350
 30
0.0
 10
82.490747
 20
254.230761
 30
0.0
 10
82.127924
 20
254.049350
 30
0.0
 10
81.946513
 20
253.686526
 30
0.0
 10
81.765101
 20
252.960880
 30
0.0
 10
81.583689
 20
251.690999
 30
0.0
 10
81.583689
 20
250.602530
 30
0.0
 10
81.765101
 20
250.421118
 30
0.0
 10
81.946513
 20
250.421118
 30
0.0
 10
82.309336
 20
250.602530
 30
0.0
 10
82.490747
 20
250.783941
 30
0.0
 10
82.853570
 20
251.328176
 30
0.0
  0
LWPOLYLINE
  5
132
100
AcDbEntity
  8
Layer_1
 62
3
100
AcDbPolyline
 90
5
 70
0
 10
83.397805
 20
252.960880
 30
0.0
 10
83.397805
 20
252.779469
 30
0.0
 10
83.579217
 20
252.779469
 30
0.0
 10
83.579217
 20
252.960880
 30
0.0
 10
83.397805
 20
252.960880
 30
0.0
  0
LWPOLYLINE
  5
133
100
AcDbEntity
  8
Layer_1
 62
3
100
AcDbPolyline
 90
9
 70
0
 10
82.853570
 20
251.328176
 30
0.0
 10
83.216394
 20
252.053822
 30
0.0
 10
82.853570
 20
250.965353
 30
0.0
 10
82.853570
 20
250.602530
 30
0.0
 10
83.034982
 20
250.421118
 30
0.0
 10
83.216394
 20
250.421118
 30
0.0
 10
83.579217
 20
250.602530
 30
0.0
 10
83.760628
 20
250.783941
 30
0.0
 10
84.123451
 20
251.328176
 30
0.0
  0
LWPOLYLINE
  5
134
100
AcDbEntity
  8
Layer_1
 62
3
100
AcDbPolyline
 90
13
 70
0
 10
85.393333
 20
251.690999
 30
0.0
 10
85.393333
 20
251.872411
 30
0.0
 10
85.211921
 20
252.053822
 30
0.0
 10
84.849098
 20
252.053822
 30
0.0
 10
84.486275
 20
251.872411
 30
0.0
 10
84.304863
 20
251.690999
 30
0.0
 10
84.123451
 20
251.328176
 30
0.0
 10
84.123451
 20
250.965353
 30
0.0
 10
84.304863
 20
250.602530
 30
0.0
 10
84.667686
 20
250.421118
 30
0.0
 10
85.211921
 20
250.421118
 30
0.0
 10
85.756156
 20
250.783941
 30
0.0
 10
86.118979
 20
251.328176
 30
0.0
  0
LWPOLYLINE
  5
135
100
AcDbEntity
  8
Layer_1
 62
3
100
AcDbPolyline
 90
5
 70
0
 10
86.663214
 20
252.960880
 30
0.0
 10
86.663214
 20
252.779469
 30
0.0
 10
86.844625
 20
252.779469
 30
0.0
 10
86.844625
 20
252.960880
 30
0.0
 10
86.663214
 20
252.960880
 30
0.0
  0
LWPOLYLINE
  5
136
100
AcDbEntity
  8
Layer_1
 62
3
100
AcDbPolyline
 90
11
 70
0
 10
86.118979
 20
251.328176
 30
0.0
 10
86.481802
 20
252.053822
 30
0.0
 10
86.118979
 20
250.965353
 30
0.0
 10
86.118979
 20
250.602530
 30
0.0
 10
86.300390
 20
250.421118
 30
0.0
 10
86.481802
 20
250.421118
 30
0.0
 10
86.844625
 20
250.602530
 30
0.0
 10
87.026037
 20
250.783941
 30
0.0
 10
87.388860
 20
251.328176
 30
0.0
 10
87.751683
 20
251.872411
 30
0.0
 10
88.114506
 20
252.598057
 30
0.0
  0
LWPOLYLINE
  5
137
100
AcDbEntity
  8
Layer_1
 62
3
100
AcDbPolyline
 90
8
 70
0
 10
88.658741
 20
254.230761
 30
0.0
 10
87.570271
 20
250.965353
 30
0.0
 10
87.570271
 20
250.602530
 30
0.0
 10
87.751683
 20
250.421118
 30
0.0
 10
88.114506
 20
250.421118
 30
0.0
 10
88.477329
 20
250.602530
 30
0.0
 10
88.658741
 20
250.783941
 30
0.0
 10
89.021564
 20
251.328176
 30
0.0
  0
LWPOLYLINE
  5
138
100
AcDbEntity
  8
Layer_1
 62
3
100
AcDbPolyline
 90
2
 70
0
 10
87.570271
 20
252.779469
 30
0.0
 10
88.840153
 20
252.779469
 30
0.0
  0
LWPOLYLINE
  5
139
100
AcDbEntity
  8
Layer_1
 62
3
100
AcDbPolyline
 90
34
 70
0
 10
90.654268
 20
251.509588
 30
0.0
 10
90.472857
 20
251.872411
 30
0.0
 10
90.110034
 20
252.053822
 30
0.0
 10
89.747210
 20
252.053822
 30
0.0
 10
89.384387
 20
251.872411
 30
0.0
 10
89.202976
 20
251.690999
 30
0.0
 10
89.021564
 20
251.328176
 30
0.0
 10
89.021564
 20
250.965353
 30
0.0
 10
89.202976
 20
250.602530
 30
0.0
 10
89.565799
 20
250.421118
 30
0.0
 10
89.928622
 20
250.421118
 30
0.0
 10
90.291445
 20
250.602530
 30
0.0
 10
90.472857
 20
250.965353
 30
0.0
 10
90.835680
 20
252.053822
 30
0.0
 10
90.654268
 20
251.146764
 30
0.0
 10
90.654268
 20
250.602530
 30
0.0
 10
90.835680
 20
250.421118
 30
0.0
 10
91.017091
 20
250.421118
 30
0.0
 10
91.379915
 20
250.602530
 30
0.0
 10
91.561326
 20
250.783941
 30
0.0
 10
91.924149
 20
251.328176
 30
0.0
 10
92.286973
 20
251.872411
 30
0.0
 10
92.468384
 20
252.235234
 30
0.0
 10
92.468384
 20
251.872411
 30
0.0
 10
93.012619
 20
251.872411
 30
0.0
 10
93.194030
 20
251.690999
 30
0.0
 10
93.194030
 20
251.328176
 30
0.0
 10
93.012619
 20
250.783941
 30
0.0
 10
93.012619
 20
250.602530
 30
0.0
 10
93.194030
 20
250.421118
 30
0.0
 10
93.375442
 20
250.421118
 30
0.0
 10
93.738265
 20
250.602530
 30
0.0
 10
93.919677
 20
250.783941
 30
0.0
 10
94.282500
 20
251.328176
 30
0.0
  0
LWPOLYLINE
  5
13a
100
AcDbEntity
  8
Layer_1
 62
3
100
AcDbPolyline
 90
5
 70
0
 10
94.826735
 20
252.960880
 30
0.0
 10
94.826735
 20
252.779469
 30
0.0
 10
95.008146
 20
252.779469
 30
0.0
 10
95.008146
 20
252.960880
 30
0.0
 10
94.826735
 20
252.960880
 30
0.0
  0
LWPOLYLINE
  5
13b
100
AcDbEntity
  8
Layer_1
 62
3
100
AcDbPolyline
 90
9
 70
0
 10
94.282500
 20
251.328176
 30
0.0
 10
94.645323
 20
252.053822
 30
0.0
 10
94.282500
 20
250.965353
 30
0.0
 10
94.282500
 20
250.602530
 30
0.0
 10
94.463911
 20
250.421118
 30
0.0
 10
94.645323
 20
250.421118
 30
0.0
 10
95.008146
 20
250.602530
 30
0.0
 10
95.189558
 20
250.783941
 30
0.0
 10
95.552381
 20
251.328176
 30
0.0
  0
LWPOLYLINE
  5
13c
100
AcDbEntity
  8
Layer_1
 62
3
100
AcDbPolyline
 90
3
 70
0
 10
97.003674
 20
254.230761
 30
0.0
 10
96.822262
 20
254.049350
 30
0.0
 10
96.459439
 20
251.872411
 30
0.0
  0
LWPOLYLINE
  5
13d
100
AcDbEntity
  8
Layer_1
 62
3
100
AcDbPolyline
 90
2
 70
0
 10
97.003674
 20
254.049350
 30
0.0
 10
96.459439
 20
251.872411
 30
0.0
  0
LWPOLYLINE
  5
13e
100
AcDbEntity
  8
Layer_1
 62
3
100
AcDbPolyline
 90
3
 70
0
 10
97.003674
 20
254.230761
 30
0.0
 10
97.185085
 20
254.049350
 30
0.0
 10
96.459439
 20
251.872411
 30
0.0
  0
LWPOLYLINE
  5
13f
100
AcDbEntity
  8
Layer_1
 62
3
100
AcDbPolyline
 90
5
 70
0
 10
96.096616
 20
250.783941
 30
0.0
 10
95.915204
 20
250.602530
 30
0.0
 10
96.096616
 20
250.421118
 30
0.0
 10
96.278027
 20
250.602530
 30
0.0
 10
96.096616
 20
250.783941
 30
0.0
  0
LWPOLYLINE
  5
140
100
AcDbEntity
  8
Layer_1
 62
7
100
AcDbPolyline
 90
10
 70
0
 10
121.043968
 20
261.018330
 30
0.0
 10
120.390097
 20
261.018330
 30
0.0
 10
119.736225
 20
261.345266
 30
0.0
 10
119.409289
 20
261.999138
 30
0.0
 10
119.736225
 20
262.653009
 30
0.0
 10
120.717033
 20
262.979945
 30
0.0
 10
121.697840
 20
262.979945
 30
0.0
 10
123.005583
 20
262.653009
 30
0.0
 10
123.986391
 20
262.653009
 30
0.0
 10
124.640263
 20
262.979945
 30
0.0
  0
LWPOLYLINE
  5
141
100
AcDbEntity
  8
Layer_1
 62
7
100
AcDbPolyline
 90
13
 70
0
 10
123.005583
 20
262.653009
 30
0.0
 10
122.351712
 20
260.364459
 30
0.0
 10
121.697840
 20
258.402843
 30
0.0
 10
121.043968
 20
257.095100
 30
0.0
 10
120.390097
 20
256.441228
 30
0.0
 10
119.736225
 20
256.114293
 30
0.0
 10
119.082353
 20
256.114293
 30
0.0
 10
118.428482
 20
256.441228
 30
0.0
 10
118.101546
 20
257.095100
 30
0.0
 10
118.101546
 20
257.748972
 30
0.0
 10
118.428482
 20
258.075908
 30
0.0
 10
119.082353
 20
258.075908
 30
0.0
 10
119.736225
 20
257.748972
 30
0.0
  0
LWPOLYLINE
  5
142
100
AcDbEntity
  8
Layer_1
 62
7
100
AcDbPolyline
 90
16
 70
0
 10
124.313327
 20
256.768164
 30
0.0
 10
124.967199
 20
257.095100
 30
0.0
 10
125.294134
 20
257.422036
 30
0.0
 10
125.621070
 20
258.075908
 30
0.0
 10
125.621070
 20
258.729779
 30
0.0
 10
125.294134
 20
259.056715
 30
0.0
 10
124.967199
 20
259.056715
 30
0.0
 10
124.313327
 20
258.729779
 30
0.0
 10
123.986391
 20
258.075908
 30
0.0
 10
123.986391
 20
257.095100
 30
0.0
 10
124.313327
 20
256.441228
 30
0.0
 10
124.967199
 20
256.114293
 30
0.0
 10
125.621070
 20
256.114293
 30
0.0
 10
126.274942
 20
256.441228
 30
0.0
 10
126.601878
 20
256.768164
 30
0.0
 10
127.255749
 20
257.748972
 30
0.0
  0
LWPOLYLINE
  5
143
100
AcDbEntity
  8
Layer_1
 62
7
100
AcDbPolyline
 90
5
 70
0
 10
133.467531
 20
260.691394
 30
0.0
 10
133.467531
 20
260.364459
 30
0.0
 10
133.794466
 20
260.364459
 30
0.0
 10
133.794466
 20
260.691394
 30
0.0
 10
133.467531
 20
260.691394
 30
0.0
  0
LWPOLYLINE
  5
144
100
AcDbEntity
  8
Layer_1
 62
7
100
AcDbPolyline
 90
17
 70
0
 10
132.486723
 20
257.748972
 30
0.0
 10
133.140595
 20
259.056715
 30
0.0
 10
132.486723
 20
257.095100
 30
0.0
 10
132.486723
 20
256.441228
 30
0.0
 10
132.813659
 20
256.114293
 30
0.0
 10
133.140595
 20
256.114293
 30
0.0
 10
133.794466
 20
256.441228
 30
0.0
 10
134.121402
 20
256.768164
 30
0.0
 10
134.775274
 20
257.748972
 30
0.0
 10
135.429146
 20
259.056715
 30
0.0
 10
134.775274
 20
257.095100
 30
0.0
 10
134.775274
 20
256.441228
 30
0.0
 10
135.102210
 20
256.114293
 30
0.0
 10
135.756081
 20
256.114293
 30
0.0
 10
136.409953
 20
256.441228
 30
0.0
 10
137.063825
 20
257.095100
 30
0.0
 10
137.717697
 20
258.075908
 30
0.0
  0
LWPOLYLINE
  5
145
100
AcDbEntity
  8
Layer_1
 62
7
100
AcDbPolyline
 90
29
 70
0
 10
138.044632
 20
259.056715
 30
0.0
 10
137.390761
 20
257.095100
 30
0.0
 10
137.390761
 20
256.441228
 30
0.0
 10
137.717697
 20
256.114293
 30
0.0
 10
138.044632
 20
256.114293
 30
0.0
 10
138.698504
 20
256.441228
 30
0.0
 10
139.025440
 20
256.768164
 30
0.0
 10
139.679312
 20
257.748972
 30
0.0
 10
140.333183
 20
258.729779
 30
0.0
 10
141.313991
 20
260.364459
 30
0.0
 10
141.640927
 20
261.018330
 30
0.0
 10
141.967863
 20
261.999138
 30
0.0
 10
141.967863
 20
262.653009
 30
0.0
 10
141.640927
 20
262.979945
 30
0.0
 10
140.987055
 20
262.653009
 30
0.0
 10
140.660119
 20
261.999138
 30
0.0
 10
140.333183
 20
260.691394
 30
0.0
 10
140.006247
 20
258.402843
 30
0.0
 10
140.006247
 20
256.441228
 30
0.0
 10
140.333183
 20
256.114293
 30
0.0
 10
140.660119
 20
256.114293
 30
0.0
 10
141.313991
 20
256.441228
 30
0.0
 10
141.967863
 20
257.095100
 30
0.0
 10
142.294798
 20
258.075908
 30
0.0
 10
142.294798
 20
259.056715
 30
0.0
 10
142.621734
 20
257.748972
 30
0.0
 10
142.948670
 20
257.422036
 30
0.0
 10
143.602542
 20
257.422036
 30
0.0
 10
144.256413
 20
257.748972
 30
0.0
  0
LWPOLYLINE
  5
146
100
AcDbEntity
  8
Layer_1
 62
7
100
AcDbPolyline
 90
23
 70
0
 10
144.583349
 20
256.768164
 30
0.0
 10
145.237221
 20
257.095100
 30
0.0
 10
145.564157
 20
257.422036
 30
0.0
 10
145.891093
 20
258.075908
 30
0.0
 10
145.891093
 20
258.729779
 30
0.0
 10
145.564157
 20
259.056715
 30
0.0
 10
145.237221
 20
259.056715
 30
0.0
 10
144.583349
 20
258.729779
 30
0.0
 10
144.256413
 20
258.075908
 30
0.0
 10
144.256413
 20
257.095100
 30
0.0
 10
144.583349
 20
256.441228
 30
0.0
 10
145.237221
 20
256.114293
 30
0.0
 10
145.891093
 20
256.114293
 30
0.0
 10
146.544964
 20
256.441228
 30
0.0
 10
146.871900
 20
256.768164
 30
0.0
 10
147.525772
 20
257.748972
 30
0.0
 10
148.179644
 20
258.729779
 30
0.0
 10
148.506579
 20
259.383651
 30
0.0
 10
148.506579
 20
258.729779
 30
0.0
 10
149.160451
 20
257.748972
 30
0.0
 10
149.487387
 20
257.095100
 30
0.0
 10
149.487387
 20
256.441228
 30
0.0
 10
148.833515
 20
256.114293
 30
0.0
  0
LWPOLYLINE
  5
147
100
AcDbEntity
  8
Layer_1
 62
7
100
AcDbPolyline
 90
6
 70
0
 10
147.525772
 20
256.441228
 30
0.0
 10
148.179644
 20
256.114293
 30
0.0
 10
149.487387
 20
256.114293
 30
0.0
 10
150.141259
 20
256.441228
 30
0.0
 10
150.468195
 20
256.768164
 30
0.0
 10
151.122066
 20
257.748972
 30
0.0
  0
LWPOLYLINE
  5
148
100
AcDbEntity
  8
Layer_1
 62
7
100
AcDbPolyline
 90
13
 70
0
 10
153.410617
 20
258.402843
 30
0.0
 10
153.410617
 20
258.729779
 30
0.0
 10
153.083681
 20
259.056715
 30
0.0
 10
152.429810
 20
259.056715
 30
0.0
 10
151.775938
 20
258.729779
 30
0.0
 10
151.449002
 20
258.402843
 30
0.0
 10
151.122066
 20
257.748972
 30
0.0
 10
151.122066
 20
257.095100
 30
0.0
 10
151.449002
 20
256.441228
 30
0.0
 10
152.102874
 20
256.114293
 30
0.0
 10
153.083681
 20
256.114293
 30
0.0
 10
154.064489
 20
256.768164
 30
0.0
 10
154.718361
 20
257.748972
 30
0.0
  0
LWPOLYLINE
  5
149
100
AcDbEntity
  8
Layer_1
 62
7
100
AcDbPolyline
 90
3
 70
0
 10
157.333847
 20
262.979945
 30
0.0
 10
157.006911
 20
262.653009
 30
0.0
 10
156.353040
 20
258.729779
 30
0.0
  0
LWPOLYLINE
  5
14a
100
AcDbEntity
  8
Layer_1
 62
7
100
AcDbPolyline
 90
2
 70
0
 10
157.333847
 20
262.653009
 30
0.0
 10
156.353040
 20
258.729779
 30
0.0
  0
LWPOLYLINE
  5
14b
100
AcDbEntity
  8
Layer_1
 62
7
100
AcDbPolyline
 90
3
 70
0
 10
157.333847
 20
262.979945
 30
0.0
 10
157.660783
 20
262.653009
 30
0.0
 10
156.353040
 20
258.729779
 30
0.0
  0
LWPOLYLINE
  5
14c
100
AcDbEntity
  8
Layer_1
 62
7
100
AcDbPolyline
 90
5
 70
0
 10
155.699168
 20
256.768164
 30
0.0
 10
155.372232
 20
256.441228
 30
0.0
 10
155.699168
 20
256.114293
 30
0.0
 10
156.026104
 20
256.441228
 30
0.0
 10
155.699168
 20
256.768164
 30
0.0
  0
LWPOLYLINE
  5
14d
100
AcDbEntity
  8
Layer_1
 62
3
100
AcDbPolyline
 90
8
 70
0
 10
116.768282
 20
267.094634
 30
0.0
 10
116.530168
 20
266.850674
 30
0.0
 10
116.414034
 20
266.487658
 30
0.0
 10
116.416957
 20
266.246621
 30
0.0
 10
116.540399
 20
266.007045
 30
0.0
 10
116.781436
 20
266.009968
 30
0.0
 10
117.021011
 20
266.133410
 30
0.0
 10
117.259125
 20
266.377370
 30
0.0
  0
LWPOLYLINE
  5
14e
100
AcDbEntity
  8
Layer_1
 62
3
100
AcDbPolyline
 90
13
 70
0
 10
117.491393
 20
267.103403
 30
0.0
 10
117.259125
 20
266.377370
 30
0.0
 10
117.262048
 20
266.136333
 30
0.0
 10
117.384028
 20
266.017276
 30
0.0
 10
117.625065
 20
266.020199
 30
0.0
 10
117.864640
 20
266.143641
 30
0.0
 10
118.102754
 20
266.387601
 30
0.0
 10
118.218888
 20
266.750617
 30
0.0
 10
118.214503
 20
267.112173
 30
0.0
 10
118.340868
 20
266.631560
 30
0.0
 10
118.462848
 20
266.512504
 30
0.0
 10
118.703885
 20
266.515427
 30
0.0
 10
118.943460
 20
266.638868
 30
0.0
  0
LWPOLYLINE
  5
14f
100
AcDbEntity
  8
Layer_1
 62
3
100
AcDbPolyline
 90
8
 70
0
 10
119.299169
 20
267.125326
 30
0.0
 10
119.061055
 20
266.881366
 30
0.0
 10
118.944921
 20
266.518350
 30
0.0
 10
118.947845
 20
266.277313
 30
0.0
 10
119.071286
 20
266.037737
 30
0.0
 10
119.312323
 20
266.040661
 30
0.0
 10
119.551898
 20
266.164102
 30
0.0
 10
119.790012
 20
266.408062
 30
0.0
  0
LWPOLYLINE
  5
150
100
AcDbEntity
  8
Layer_1
 62
3
100
AcDbPolyline
 90
13
 70
0
 10
120.022280
 20
267.134096
 30
0.0
 10
119.790012
 20
266.408062
 30
0.0
 10
119.792935
 20
266.167025
 30
0.0
 10
119.914915
 20
266.047968
 30
0.0
 10
120.155952
 20
266.050891
 30
0.0
 10
120.395527
 20
266.174333
 30
0.0
 10
120.633641
 20
266.418293
 30
0.0
 10
120.749775
 20
266.781309
 30
0.0
 10
120.745390
 20
267.142865
 30
0.0
 10
120.871755
 20
266.662253
 30
0.0
 10
120.993735
 20
266.543196
 30
0.0
 10
121.234772
 20
266.546119
 30
0.0
 10
121.474347
 20
266.669560
 30
0.0
  0
LWPOLYLINE
  5
151
100
AcDbEntity
  8
Layer_1
 62
3
100
AcDbPolyline
 90
8
 70
0
 10
121.830056
 20
267.156018
 30
0.0
 10
121.591942
 20
266.912059
 30
0.0
 10
121.475809
 20
266.549042
 30
0.0
 10
121.478732
 20
266.308005
 30
0.0
 10
121.602173
 20
266.068430
 30
0.0
 10
121.843210
 20
266.071353
 30
0.0
 10
122.082785
 20
266.194794
 30
0.0
 10
122.320899
 20
266.438754
 30
0.0
  0
LWPOLYLINE
  5
152
100
AcDbEntity
  8
Layer_1
 62
3
100
AcDbPolyline
 90
13
 70
0
 10
122.553167
 20
267.164788
 30
0.0
 10
122.320899
 20
266.438754
 30
0.0
 10
122.323822
 20
266.197717
 30
0.0
 10
122.445802
 20
266.078660
 30
0.0
 10
122.686839
 20
266.081583
 30
0.0
 10
122.926414
 20
266.205025
 30
0.0
 10
123.164528
 20
266.448985
 30
0.0
 10
123.280662
 20
266.812002
 30
0.0
 10
123.276277
 20
267.173557
 30
0.0
 10
123.402642
 20
266.692945
 30
0.0
 10
123.524622
 20
266.573888
 30
0.0
 10
123.765659
 20
266.576811
 30
0.0
 10
124.005234
 20
266.700252
 30
0.0
  0
LWPOLYLINE
  5
153
100
AcDbEntity
  8
Layer_1
 62
3
100
AcDbPolyline
 90
5
 70
0
 10
124.612211
 20
266.346005
 30
0.0
 10
124.493154
 20
266.224025
 30
0.0
 10
124.615134
 20
266.104968
 30
0.0
 10
124.734191
 20
266.226948
 30
0.0
 10
124.612211
 20
266.346005
 30
0.0
  0
LWPOLYLINE
  5
154
100
AcDbEntity
  8
Layer_1
 62
3
100
AcDbPolyline
 90
27
 70
0
 10
126.293623
 20
266.848540
 30
0.0
 10
126.170181
 20
267.088115
 30
0.0
 10
125.927683
 20
267.205710
 30
0.0
 10
125.686646
 20
267.202787
 30
0.0
 10
125.447071
 20
267.079346
 30
0.0
 10
125.328014
 20
266.957366
 30
0.0
 10
125.210418
 20
266.714868
 30
0.0
 10
125.213341
 20
266.473831
 30
0.0
 10
125.336783
 20
266.234255
 30
0.0
 10
125.579281
 20
266.116660
 30
0.0
 10
125.820318
 20
266.119583
 30
0.0
 10
126.059893
 20
266.243024
 30
0.0
 10
126.177489
 20
266.485523
 30
0.0
 10
126.409757
 20
267.211557
 30
0.0
 10
126.296546
 20
266.607503
 30
0.0
 10
126.300930
 20
266.245948
 30
0.0
 10
126.422910
 20
266.126891
 30
0.0
 10
126.543429
 20
266.128352
 30
0.0
 10
126.783004
 20
266.251794
 30
0.0
 10
126.902061
 20
266.373774
 30
0.0
 10
127.138713
 20
266.738252
 30
0.0
 10
127.375366
 20
267.102730
 30
0.0
 10
127.614941
 20
267.226172
 30
0.0
 10
127.736921
 20
267.107115
 30
0.0
 10
127.738382
 20
266.986596
 30
0.0
 10
127.623710
 20
266.503061
 30
0.0
 10
127.507576
 20
266.140044
 30
0.0
  0
LWPOLYLINE
  5
155
100
AcDbEntity
  8
Layer_1
 62
3
100
AcDbPolyline
 90
14
 70
0
 10
127.623710
 20
266.503061
 30
0.0
 10
127.741305
 20
266.745560
 30
0.0
 10
127.977958
 20
267.110038
 30
0.0
 10
128.217533
 20
267.233479
 30
0.0
 10
128.458570
 20
267.236402
 30
0.0
 10
128.580550
 20
267.117346
 30
0.0
 10
128.583473
 20
266.876309
 30
0.0
 10
128.467339
 20
266.513292
 30
0.0
 10
128.470262
 20
266.272255
 30
0.0
 10
128.592242
 20
266.153198
 30
0.0
 10
128.712760
 20
266.154660
 30
0.0
 10
128.952336
 20
266.278101
 30
0.0
 10
129.071393
 20
266.400081
 30
0.0
 10
129.308045
 20
266.764559
 30
0.0
  0
LWPOLYLINE
  5
156
100
AcDbEntity
  8
Layer_1
 62
3
100
AcDbPolyline
 90
59
 70
0
 10
130.391249
 20
266.898232
 30
0.0
 10
130.267808
 20
267.137807
 30
0.0
 10
130.025309
 20
267.255402
 30
0.0
 10
129.784273
 20
267.252479
 30
0.0
 10
129.544697
 20
267.129038
 30
0.0
 10
129.425640
 20
267.007058
 30
0.0
 10
129.308045
 20
266.764559
 30
0.0
 10
129.310968
 20
266.523523
 30
0.0
 10
129.434410
 20
266.283947
 30
0.0
 10
129.676908
 20
266.166352
 30
0.0
 10
129.917945
 20
266.169275
 30
0.0
 10
130.157520
 20
266.292716
 30
0.0
 10
130.275116
 20
266.535215
 30
0.0
 10
130.507383
 20
267.261248
 30
0.0
 10
130.394172
 20
266.657195
 30
0.0
 10
130.398557
 20
266.295639
 30
0.0
 10
130.520537
 20
266.176583
 30
0.0
 10
130.641055
 20
266.178044
 30
0.0
 10
130.880631
 20
266.301486
 30
0.0
 10
130.999688
 20
266.423466
 30
0.0
 10
131.236340
 20
266.787944
 30
0.0
 10
131.711106
 20
267.396382
 30
0.0
 10
131.947758
 20
267.760860
 30
0.0
 10
132.065354
 20
268.003359
 30
0.0
 10
132.181487
 20
268.366376
 30
0.0
 10
132.178564
 20
268.607413
 30
0.0
 10
132.056584
 20
268.726469
 30
0.0
 10
131.817009
 20
268.603028
 30
0.0
 10
131.699414
 20
268.360530
 30
0.0
 10
131.470069
 20
267.393459
 30
0.0
 10
131.121668
 20
266.304409
 30
0.0
 10
130.770343
 20
265.456395
 30
0.0
 10
130.654209
 20
265.093378
 30
0.0
 10
130.657132
 20
264.852341
 30
0.0
 10
130.779112
 20
264.733284
 30
0.0
 10
131.018687
 20
264.856726
 30
0.0
 10
131.134821
 20
265.219743
 30
0.0
 10
131.242186
 20
266.305870
 30
0.0
 10
131.364166
 20
266.186813
 30
0.0
 10
131.605203
 20
266.189736
 30
0.0
 10
131.844778
 20
266.313178
 30
0.0
 10
131.963835
 20
266.435158
 30
0.0
 10
132.200487
 20
266.799636
 30
0.0
 10
132.437140
 20
267.164114
 30
0.0
 10
132.791387
 20
267.771091
 30
0.0
 10
132.908983
 20
268.013590
 30
0.0
 10
133.025117
 20
268.376606
 30
0.0
 10
133.022193
 20
268.617643
 30
0.0
 10
132.900213
 20
268.736700
 30
0.0
 10
132.660638
 20
268.613259
 30
0.0
 10
132.543043
 20
268.370760
 30
0.0
 10
132.428370
 20
267.887225
 30
0.0
 10
132.318083
 20
267.042134
 30
0.0
 10
132.326852
 20
266.319024
 30
0.0
 10
132.448832
 20
266.199967
 30
0.0
 10
132.569350
 20
266.201429
 30
0.0
 10
132.808926
 20
266.324870
 30
0.0
 10
132.927983
 20
266.446850
 30
0.0
 10
133.164635
 20
266.811328
 30
0.0
  0
LWPOLYLINE
  5
157
100
AcDbEntity
  8
Layer_1
 62
3
100
AcDbPolyline
 90
35
 70
0
 10
133.881899
 20
267.302171
 30
0.0
 10
133.640862
 20
267.299248
 30
0.0
 10
133.401287
 20
267.175807
 30
0.0
 10
133.282230
 20
267.053827
 30
0.0
 10
133.164635
 20
266.811328
 30
0.0
 10
133.167558
 20
266.570291
 30
0.0
 10
133.290999
 20
266.330716
 30
0.0
 10
133.533498
 20
266.213121
 30
0.0
 10
133.774535
 20
266.216044
 30
0.0
 10
134.014110
 20
266.339485
 30
0.0
 10
134.133167
 20
266.461465
 30
0.0
 10
134.250762
 20
266.703964
 30
0.0
 10
134.247839
 20
266.945001
 30
0.0
 10
134.124398
 20
267.184576
 30
0.0
 10
133.881899
 20
267.302171
 30
0.0
 10
133.762842
 20
267.180191
 30
0.0
 10
133.765765
 20
266.939154
 30
0.0
 10
133.889207
 20
266.699579
 30
0.0
 10
134.131705
 20
266.581984
 30
0.0
 10
134.493261
 20
266.586368
 30
0.0
 10
134.732836
 20
266.709810
 30
0.0
 10
134.851893
 20
266.831790
 30
0.0
 10
135.088545
 20
267.196268
 30
0.0
 10
135.206140
 20
267.438766
 30
0.0
 10
135.209064
 20
267.197730
 30
0.0
 10
135.570619
 20
267.202114
 30
0.0
 10
135.692599
 20
267.083057
 30
0.0
 10
135.695522
 20
266.842020
 30
0.0
 10
135.579388
 20
266.479004
 30
0.0
 10
135.580850
 20
266.358485
 30
0.0
 10
135.702829
 20
266.239428
 30
0.0
 10
135.823348
 20
266.240890
 30
0.0
 10
136.062923
 20
266.364331
 30
0.0
 10
136.181980
 20
266.486311
 30
0.0
 10
136.418632
 20
266.850790
 30
0.0
  0
LWPOLYLINE
  5
158
100
AcDbEntity
  8
Layer_1
 62
3
100
AcDbPolyline
 90
5
 70
0
 10
137.025609
 20
266.496542
 30
0.0
 10
136.906552
 20
266.374562
 30
0.0
 10
137.028532
 20
266.255505
 30
0.0
 10
137.147589
 20
266.377485
 30
0.0
 10
137.025609
 20
266.496542
 30
0.0
  0
LWPOLYLINE
  5
159
100
AcDbEntity
  8
Layer_1
 62
3
100
AcDbPolyline
 90
14
 70
0
 10
137.623817
 20
266.865405
 30
0.0
 10
137.860469
 20
267.229883
 30
0.0
 10
137.978064
 20
267.472382
 30
0.0
 10
137.980987
 20
267.231345
 30
0.0
 10
138.342543
 20
267.235729
 30
0.0
 10
138.464523
 20
267.116672
 30
0.0
 10
138.467446
 20
266.875636
 30
0.0
 10
138.351312
 20
266.512619
 30
0.0
 10
138.352773
 20
266.392100
 30
0.0
 10
138.474753
 20
266.273043
 30
0.0
 10
138.595272
 20
266.274505
 30
0.0
 10
138.834847
 20
266.397946
 30
0.0
 10
138.953904
 20
266.519926
 30
0.0
 10
139.190556
 20
266.884405
 30
0.0
  0
LWPOLYLINE
  5
15a
100
AcDbEntity
  8
Layer_1
 62
3
100
AcDbPolyline
 90
22
 70
0
 10
139.907821
 20
267.375248
 30
0.0
 10
139.666784
 20
267.372325
 30
0.0
 10
139.427209
 20
267.248883
 30
0.0
 10
139.308152
 20
267.126903
 30
0.0
 10
139.190556
 20
266.884405
 30
0.0
 10
139.193479
 20
266.643368
 30
0.0
 10
139.316921
 20
266.403792
 30
0.0
 10
139.559419
 20
266.286197
 30
0.0
 10
139.800456
 20
266.289120
 30
0.0
 10
140.040031
 20
266.412562
 30
0.0
 10
140.159088
 20
266.534542
 30
0.0
 10
140.276684
 20
266.777040
 30
0.0
 10
140.273761
 20
267.018077
 30
0.0
 10
140.150319
 20
267.257652
 30
0.0
 10
139.907821
 20
267.375248
 30
0.0
 10
139.788764
 20
267.253268
 30
0.0
 10
139.791687
 20
267.012231
 30
0.0
 10
139.915128
 20
266.772655
 30
0.0
 10
140.157627
 20
266.655060
 30
0.0
 10
140.519182
 20
266.659445
 30
0.0
 10
140.758757
 20
266.782886
 30
0.0
 10
140.877814
 20
266.904866
 30
0.0
  0
SPLINE
  5
15b
100
AcDbEntity
  8
Layer_1
 62
3
100
AcDbSpline
 70
8
 71
3
 72
8
 73
4
 74
0
 40
0
 40
0
 40
0
 40
0
 40
1
 40
1
 40
1
 40
1
 10
38.824879
 20
275.955024
 30
0.0
 10
38.962701
 20
276.087386
 30
0.0
 10
39.117343
 20
276.151835
 30
0.0
 10
39.288805
 20
276.148371
 30
0.0
  0
SPLINE
  5
15c
100
AcDbEntity
  8
Layer_1
 62
3
100
AcDbSpline
 70
8
 71
3
 72
8
 73
4
 74
0
 40
0
 40
0
 40
0
 40
0
 40
1
 40
1
 40
1
 40
1
 10
39.288805
 20
276.148371
 30
0.0
 10
39.460373
 20
276.150102
 30
0.0
 10
39.613611
 20
276.080732
 30
0.0
 10
39.748518
 20
275.940261
 30
0.0
  0
SPLINE
  5
15d
100
AcDbEntity
  8
Layer_1
 62
3
100
AcDbSpline
 70
8
 71
3
 72
8
 73
4
 74
0
 40
0
 40
0
 40
0
 40
0
 40
1
 40
1
 40
1
 40
1
 10
39.748518
 20
275.940261
 30
0.0
 10
39.883426
 20
275.799788
 30
0.0
 10
39.949095
 20
275.641223
 30
0.0
 10
39.945526
 20
275.464564
 30
0.0
  0
SPLINE
  5
15e
100
AcDbEntity
  8
Layer_1
 62
3
100
AcDbSpline
 70
8
 71
3
 72
8
 73
4
 74
0
 40
0
 40
0
 40
0
 40
0
 40
1
 40
1
 40
1
 40
1
 10
39.945526
 20
275.464564
 30
0.0
 10
39.942061
 20
275.293101
 30
0.0
 10
39.871418
 20
275.141189
 30
0.0
 10
39.733596
 20
275.008827
 30
0.0
  0
SPLINE
  5
15f
100
AcDbEntity
  8
Layer_1
 62
3
100
AcDbSpline
 70
8
 71
3
 72
8
 73
4
 74
0
 40
0
 40
0
 40
0
 40
0
 40
1
 40
1
 40
1
 40
1
 10
39.733596
 20
275.008827
 30
0.0
 10
39.587823
 20
274.868828
 30
0.0
 10
39.429205
 20
274.800561
 30
0.0
 10
39.257743
 20
274.804025
 30
0.0
  0
SPLINE
  5
160
100
AcDbEntity
  8
Layer_1
 62
3
100
AcDbSpline
 70
8
 71
3
 72
8
 73
4
 74
0
 40
0
 40
0
 40
0
 40
0
 40
1
 40
1
 40
1
 40
1
 10
39.257743
 20
274.804025
 30
0.0
 10
39.083734
 20
274.810140
 30
0.0
 10
38.929276
 20
274.883433
 30
0.0
 10
38.794368
 20
275.023906
 30
0.0
  0
SPLINE
  5
161
100
AcDbEntity
  8
Layer_1
 62
3
100
AcDbSpline
 70
8
 71
3
 72
8
 73
4
 74
0
 40
0
 40
0
 40
0
 40
0
 40
1
 40
1
 40
1
 40
1
 10
38.794368
 20
275.023906
 30
0.0
 10
38.659461
 20
275.164377
 30
0.0
 10
38.595012
 20
275.319019
 30
0.0
 10
38.601022
 20
275.487831
 30
0.0
  0
SPLINE
  5
162
100
AcDbEntity
  8
Layer_1
 62
3
100
AcDbSpline
 70
8
 71
3
 72
8
 73
4
 74
0
 40
0
 40
0
 40
0
 40
0
 40
1
 40
1
 40
1
 40
1
 10
38.601022
 20
275.487831
 30
0.0
 10
38.604487
 20
275.659294
 30
0.0
 10
38.679106
 20
275.815025
 30
0.0
 10
38.824879
 20
275.955024
 30
0.0
  0
LWPOLYLINE
  5
163
100
AcDbEntity
  8
Layer_1
 62
3
100
AcDbPolyline
 90
7
 70
1
 10
37.991458
 20
276.576129
 30
0.0
 10
34.027395
 20
280.082985
 30
0.0
 10
34.879752
 20
280.978007
 30
0.0
 10
34.946078
 20
280.980566
 30
0.0
 10
38.226493
 20
276.824780
 30
0.0
 10
37.991460
 20
276.576127
 30
0.0
 10
37.991458
 20
276.576129
 30
0.0
  0
SPLINE
  5
164
100
AcDbEntity
  8
Layer_1
 62
3
100
AcDbSpline
 70
8
 71
3
 72
8
 73
4
 74
0
 40
0
 40
0
 40
0
 40
0
 40
1
 40
1
 40
1
 40
1
 10
33.656899
 20
275.638411
 30
0.0
 10
34.501352
 20
274.727298
 30
0.0
 10
35.187030
 20
273.997423
 30
0.0
 10
35.713934
 20
273.448787
 30
0.0
  0
SPLINE
  5
165
100
AcDbEntity
  8
Layer_1
 62
3
100
AcDbSpline
 70
8
 71
3
 72
8
 73
4
 74
0
 40
0
 40
0
 40
0
 40
0
 40
1
 40
1
 40
1
 40
1
 10
35.713934
 20
273.448787
 30
0.0
 10
35.978659
 20
273.173143
 30
0.0
 10
36.203012
 20
273.021768
 30
0.0
 10
36.386992
 20
272.994659
 30
0.0
  0
SPLINE
  5
166
100
AcDbEntity
  8
Layer_1
 62
3
100
AcDbSpline
 70
8
 71
3
 72
8
 73
4
 74
0
 40
0
 40
0
 40
0
 40
0
 40
1
 40
1
 40
1
 40
1
 10
36.386992
 20
272.994659
 30
0.0
 10
36.568427
 20
272.970201
 30
0.0
 10
36.774437
 20
273.068699
 30
0.0
 10
37.005023
 20
273.290151
 30
0.0
  0
SPLINE
  5
167
100
AcDbEntity
  8
Layer_1
 62
3
100
AcDbSpline
 70
8
 71
3
 72
8
 73
4
 74
0
 40
0
 40
0
 40
0
 40
0
 40
1
 40
1
 40
1
 40
1
 10
37.005023
 20
273.290151
 30
0.0
 10
37.187902
 20
273.465786
 30
0.0
 10
37.403530
 20
273.718729
 30
0.0
 10
37.651908
 20
274.048980
 30
0.0
  0
LWPOLYLINE
  5
168
100
AcDbEntity
  8
Layer_1
 62
3
100
AcDbPolyline
 90
2
 70
1
 10
38.824879
 20
275.955024
 30
0.0
 10
38.824879
 20
275.955024
 30
0.0
  0
SPLINE
  5
169
100
AcDbEntity
  8
Layer_1
 62
3
100
AcDbSpline
 70
8
 71
3
 72
8
 73
4
 74
0
 40
0
 40
0
 40
0
 40
0
 40
1
 40
1
 40
1
 40
1
 10
37.847579
 20
273.892985
 30
0.0
 10
37.610509
 20
273.222039
 30
0.0
 10
37.311746
 20
272.713477
 30
0.0
 10
36.951290
 20
272.367298
 30
0.0
  0
SPLINE
  5
16a
100
AcDbEntity
  8
Layer_1
 62
3
100
AcDbSpline
 70
8
 71
3
 72
8
 73
4
 74
0
 40
0
 40
0
 40
0
 40
0
 40
1
 40
1
 40
1
 40
1
 10
36.951290
 20
272.367298
 30
0.0
 10
36.662394
 20
272.089846
 30
0.0
 10
36.373893
 20
271.960528
 30
0.0
 10
36.085787
 20
271.979344
 30
0.0
  0
SPLINE
  5
16b
100
AcDbEntity
  8
Layer_1
 62
3
100
AcDbSpline
 70
8
 71
3
 72
8
 73
4
 74
0
 40
0
 40
0
 40
0
 40
0
 40
1
 40
1
 40
1
 40
1
 10
36.085787
 20
271.979344
 30
0.0
 10
35.795133
 20
272.000812
 30
0.0
 10
35.499626
 20
272.167921
 30
0.0
 10
35.199265
 20
272.480670
 30
0.0
  0
SPLINE
  5
16c
100
AcDbEntity
  8
Layer_1
 62
3
100
AcDbSpline
 70
8
 71
3
 72
8
 73
4
 74
0
 40
0
 40
0
 40
0
 40
0
 40
1
 40
1
 40
1
 40
1
 10
35.199265
 20
272.480670
 30
0.0
 10
34.705452
 20
272.994850
 30
0.0
 10
33.934554
 20
273.816112
 30
0.0
 10
32.886572
 20
274.944454
 30
0.0
  0
LWPOLYLINE
  5
16d
100
AcDbEntity
  8
Layer_1
 62
3
100
AcDbPolyline
 90
2
 70
1
 10
37.651908
 20
274.048980
 30
0.0
 10
37.847579
 20
273.892985
 30
0.0
  0
SPLINE
  5
16e
100
AcDbEntity
  8
Layer_1
 62
3
100
AcDbSpline
 70
8
 71
3
 72
8
 73
4
 74
0
 40
0
 40
0
 40
0
 40
0
 40
1
 40
1
 40
1
 40
1
 10
31.940659
 20
276.558043
 30
0.0
 10
32.050900
 20
276.740343
 30
0.0
 10
32.149163
 20
276.908591
 30
0.0
 10
32.235446
 20
277.062787
 30
0.0
  0
LWPOLYLINE
  5
16f
100
AcDbEntity
  8
Layer_1
 62
3
100
AcDbPolyline
 90
5
 70
1
 10
32.886572
 20
274.944454
 30
0.0
 10
32.208119
 20
274.552720
 30
0.0
 10
32.027720
 20
274.692814
 30
0.0
 10
32.590332
 20
275.332490
 30
0.0
 10
31.940659
 20
276.558043
 30
0.0
  0
SPLINE
  5
170
100
AcDbEntity
  8
Layer_1
 62
3
100
AcDbSpline
 70
8
 71
3
 72
8
 73
4
 74
0
 40
0
 40
0
 40
0
 40
0
 40
1
 40
1
 40
1
 40
1
 10
32.301929
 20
277.073139
 30
0.0
 10
32.601975
 20
276.744803
 30
0.0
 10
32.885633
 20
276.441488
 30
0.0
 10
33.152903
 20
276.163195
 30
0.0
  0
LWPOLYLINE
  5
171
100
AcDbEntity
  8
Layer_1
 62
3
100
AcDbPolyline
 90
2
 70
1
 10
32.235446
 20
277.062787
 30
0.0
 10
32.301929
 20
277.073139
 30
0.0
  0
SPLINE
  5
172
100
AcDbEntity
  8
Layer_1
 62
3
100
AcDbSpline
 70
8
 71
3
 72
8
 73
4
 74
0
 40
0
 40
0
 40
0
 40
0
 40
1
 40
1
 40
1
 40
1
 10
34.831340
 20
271.057362
 30
0.0
 10
34.773922
 20
270.788229
 30
0.0
 10
34.660203
 20
270.498141
 30
0.0
 10
34.490182
 20
270.187098
 30
0.0
  0
SPLINE
  5
173
100
AcDbEntity
  8
Layer_1
 62
3
100
AcDbSpline
 70
8
 71
3
 72
8
 73
4
 74
0
 40
0
 40
0
 40
0
 40
0
 40
1
 40
1
 40
1
 40
1
 10
34.490182
 20
270.187098
 30
0.0
 10
34.320266
 20
269.881253
 30
0.0
 10
34.116039
 20
269.613786
 30
0.0
 10
33.877501
 20
269.384697
 30
0.0
  0
SPLINE
  5
174
100
AcDbEntity
  8
Layer_1
 62
3
100
AcDbSpline
 70
8
 71
3
 72
8
 73
4
 74
0
 40
0
 40
0
 40
0
 40
0
 40
1
 40
1
 40
1
 40
1
 10
33.877501
 20
269.384697
 30
0.0
 10
33.305011
 20
268.834884
 30
0.0
 10
32.691428
 20
268.566592
 30
0.0
 10
32.036753
 20
268.579819
 30
0.0
  0
SPLINE
  5
175
100
AcDbEntity
  8
Layer_1
 62
3
100
AcDbSpline
 70
8
 71
3
 72
8
 73
4
 74
0
 40
0
 40
0
 40
0
 40
0
 40
1
 40
1
 40
1
 40
1
 10
32.036753
 20
268.579819
 30
0.0
 10
31.379530
 20
268.595698
 30
0.0
 10
30.782376
 20
268.883256
 30
0.0
 10
30.245289
 20
269.442495
 30
0.0
  0
SPLINE
  5
176
100
AcDbEntity
  8
Layer_1
 62
3
100
AcDbSpline
 70
8
 71
3
 72
8
 73
4
 74
0
 40
0
 40
0
 40
0
 40
0
 40
1
 40
1
 40
1
 40
1
 10
30.245289
 20
269.442495
 30
0.0
 10
29.662386
 20
270.049439
 30
0.0
 10
29.379714
 20
270.723090
 30
0.0
 10
29.397272
 20
271.463446
 30
0.0
  0
SPLINE
  5
177
100
AcDbEntity
  8
Layer_1
 62
3
100
AcDbSpline
 70
8
 71
3
 72
8
 73
4
 74
0
 40
0
 40
0
 40
0
 40
0
 40
1
 40
1
 40
1
 40
1
 10
29.397272
 20
271.463446
 30
0.0
 10
29.412285
 20
272.206452
 30
0.0
 10
29.720614
 20
272.866862
 30
0.0
 10
30.322258
 20
273.444674
 30
0.0
  0
SPLINE
  5
178
100
AcDbEntity
  8
Layer_1
 62
3
100
AcDbSpline
 70
8
 71
3
 72
8
 73
4
 74
0
 40
0
 40
0
 40
0
 40
0
 40
1
 40
1
 40
1
 40
1
 10
30.322258
 20
273.444674
 30
0.0
 10
30.711869
 20
273.818853
 30
0.0
 10
31.165917
 20
274.102064
 30
0.0
 10
31.684401
 20
274.294307
 30
0.0
  0
SPLINE
  5
179
100
AcDbEntity
  8
Layer_1
 62
3
100
AcDbSpline
 70
8
 71
3
 72
8
 73
4
 74
0
 40
0
 40
0
 40
0
 40
0
 40
1
 40
1
 40
1
 40
1
 10
31.684401
 20
274.294307
 30
0.0
 10
31.938024
 20
273.855153
 30
0.0
 10
32.208560
 20
273.416956
 30
0.0
 10
32.496010
 20
272.979716
 30
0.0
  0
LWPOLYLINE
  5
17a
100
AcDbEntity
  8
Layer_1
 62
3
100
AcDbPolyline
 90
6
 70
1
 10
33.152903
 20
276.163195
 30
0.0
 10
33.294176
 20
276.016096
 30
0.0
 10
34.490838
 20
277.165358
 30
0.0
 10
34.853563
 20
276.787673
 30
0.0
 10
33.656900
 20
275.638411
 30
0.0
 10
33.656899
 20
275.638411
 30
0.0
  0
SPLINE
  5
17b
100
AcDbEntity
  8
Layer_1
 62
3
100
AcDbSpline
 70
8
 71
3
 72
8
 73
4
 74
0
 40
0
 40
0
 40
0
 40
0
 40
1
 40
1
 40
1
 40
1
 10
31.125490
 20
273.451834
 30
0.0
 10
30.962844
 20
273.377151
 30
0.0
 10
30.804659
 20
273.265992
 30
0.0
 10
30.650935
 20
273.118357
 30
0.0
  0
SPLINE
  5
17c
100
AcDbEntity
  8
Layer_1
 62
3
100
AcDbSpline
 70
8
 71
3
 72
8
 73
4
 74
0
 40
0
 40
0
 40
0
 40
0
 40
1
 40
1
 40
1
 40
1
 10
30.650935
 20
273.118357
 30
0.0
 10
30.256023
 20
272.739088
 30
0.0
 10
30.079611
 20
272.304724
 30
0.0
 10
30.121701
 20
271.815264
 30
0.0
  0
SPLINE
  5
17d
100
AcDbEntity
  8
Layer_1
 62
3
100
AcDbSpline
 70
8
 71
3
 72
8
 73
4
 74
0
 40
0
 40
0
 40
0
 40
0
 40
1
 40
1
 40
1
 40
1
 10
30.121701
 20
271.815264
 30
0.0
 10
30.163791
 20
271.325805
 30
0.0
 10
30.402470
 20
270.854465
 30
0.0
 10
30.837738
 20
270.401244
 30
0.0
  0
SPLINE
  5
17e
100
AcDbEntity
  8
Layer_1
 62
3
100
AcDbSpline
 70
8
 71
3
 72
8
 73
4
 74
0
 40
0
 40
0
 40
0
 40
0
 40
1
 40
1
 40
1
 40
1
 10
30.837738
 20
270.401244
 30
0.0
 10
31.349370
 20
269.868510
 30
0.0
 10
31.853261
 20
269.595832
 30
0.0
 10
32.349412
 20
269.583208
 30
0.0
  0
SPLINE
  5
17f
100
AcDbEntity
  8
Layer_1
 62
3
100
AcDbSpline
 70
8
 71
3
 72
8
 73
4
 74
0
 40
0
 40
0
 40
0
 40
0
 40
1
 40
1
 40
1
 40
1
 10
32.349412
 20
269.583208
 30
0.0
 10
32.845562
 20
269.570584
 30
0.0
 10
33.366631
 20
269.826451
 30
0.0
 10
33.912617
 20
270.350810
 30
0.0
  0
SPLINE
  5
180
100
AcDbEntity
  8
Layer_1
 62
3
100
AcDbSpline
 70
8
 71
3
 72
8
 73
4
 74
0
 40
0
 40
0
 40
0
 40
0
 40
1
 40
1
 40
1
 40
1
 10
33.912617
 20
270.350810
 30
0.0
 10
34.164406
 20
270.592626
 30
0.0
 10
34.409242
 20
270.876165
 30
0.0
 10
34.647124
 20
271.201429
 30
0.0
  0
LWPOLYLINE
  5
181
100
AcDbEntity
  8
Layer_1
 62
3
100
AcDbPolyline
 90
3
 70
1
 10
32.496010
 20
272.979716
 30
0.0
 10
32.363870
 20
272.806954
 30
0.0
 10
31.125490
 20
273.451834
 30
0.0
  0
SPLINE
  5
182
100
AcDbEntity
  8
Layer_1
 62
3
100
AcDbSpline
 70
8
 71
3
 72
8
 73
4
 74
0
 40
0
 40
0
 40
0
 40
0
 40
1
 40
1
 40
1
 40
1
 10
31.022691
 20
267.399579
 30
0.0
 10
30.932314
 20
267.042744
 30
0.0
 10
30.797129
 20
266.719304
 30
0.0
 10
30.617135
 20
266.429257
 30
0.0
  0
SPLINE
  5
183
100
AcDbEntity
  8
Layer_1
 62
3
100
AcDbSpline
 70
8
 71
3
 72
8
 73
4
 74
0
 40
0
 40
0
 40
0
 40
0
 40
1
 40
1
 40
1
 40
1
 10
30.617135
 20
266.429257
 30
0.0
 10
30.437143
 20
266.139208
 30
0.0
 10
30.245106
 20
265.896185
 30
0.0
 10
30.041024
 20
265.700187
 30
0.0
  0
SPLINE
  5
184
100
AcDbEntity
  8
Layer_1
 62
3
100
AcDbSpline
 70
8
 71
3
 72
8
 73
4
 74
0
 40
0
 40
0
 40
0
 40
0
 40
1
 40
1
 40
1
 40
1
 10
30.041024
 20
265.700187
 30
0.0
 10
29.457932
 20
265.140192
 30
0.0
 10
28.833695
 20
264.859119
 30
0.0
 10
28.168312
 20
264.856969
 30
0.0
  0
SPLINE
  5
185
100
AcDbEntity
  8
Layer_1
 62
3
100
AcDbSpline
 70
8
 71
3
 72
8
 73
4
 74
0
 40
0
 40
0
 40
0
 40
0
 40
1
 40
1
 40
1
 40
1
 10
28.168312
 20
264.856969
 30
0.0
 10
27.500383
 20
264.857471
 30
0.0
 10
26.882603
 20
265.153243
 30
0.0
 10
26.314972
 20
265.744286
 30
0.0
  0
SPLINE
  5
186
100
AcDbEntity
  8
Layer_1
 62
3
100
AcDbSpline
 70
8
 71
3
 72
8
 73
4
 74
0
 40
0
 40
0
 40
0
 40
0
 40
1
 40
1
 40
1
 40
1
 10
26.314972
 20
265.744286
 30
0.0
 10
25.749886
 20
266.332679
 30
0.0
 10
25.453542
 20
266.972818
 30
0.0
 10
25.425939
 20
267.664705
 30
0.0
  0
SPLINE
  5
187
100
AcDbEntity
  8
Layer_1
 62
3
100
AcDbSpline
 70
8
 71
3
 72
8
 73
4
 74
0
 40
0
 40
0
 40
0
 40
0
 40
1
 40
1
 40
1
 40
1
 10
25.425939
 20
267.664705
 30
0.0
 10
25.400985
 20
268.359138
 30
0.0
 10
25.666802
 20
268.973625
 30
0.0
 10
26.223389
 20
269.508166
 30
0.0
  0
SPLINE
  5
188
100
AcDbEntity
  8
Layer_1
 62
3
100
AcDbSpline
 70
8
 71
3
 72
8
 73
4
 74
0
 40
0
 40
0
 40
0
 40
0
 40
1
 40
1
 40
1
 40
1
 10
26.223389
 20
269.508166
 30
0.0
 10
26.689863
 20
269.956162
 30
0.0
 10
27.187877
 20
270.164414
 30
0.0
 10
27.717433
 20
270.132922
 30
0.0
  0
SPLINE
  5
189
100
AcDbEntity
  8
Layer_1
 62
3
100
AcDbSpline
 70
8
 71
3
 72
8
 73
4
 74
0
 40
0
 40
0
 40
0
 40
0
 40
1
 40
1
 40
1
 40
1
 10
27.717433
 20
270.132922
 30
0.0
 10
28.244444
 20
270.104081
 30
0.0
 10
28.744675
 20
269.843171
 30
0.0
 10
29.218126
 20
269.350192
 30
0.0
  0
SPLINE
  5
18a
100
AcDbEntity
  8
Layer_1
 62
3
100
AcDbSpline
 70
8
 71
3
 72
8
 73
4
 74
0
 40
0
 40
0
 40
0
 40
0
 40
1
 40
1
 40
1
 40
1
 10
29.218126
 20
269.350192
 30
0.0
 10
29.289398
 20
269.275981
 30
0.0
 10
29.357967
 20
269.196627
 30
0.0
 10
29.423833
 20
269.112128
 30
0.0
  0
LWPOLYLINE
  5
18b
100
AcDbEntity
  8
Layer_1
 62
3
100
AcDbPolyline
 90
3
 70
1
 10
34.647124
 20
271.201429
 30
0.0
 10
34.831340
 20
271.057362
 30
0.0
 10
34.831340
 20
271.057362
 30
0.0
  0
SPLINE
  5
18c
100
AcDbEntity
  8
Layer_1
 62
3
100
AcDbSpline
 70
8
 71
3
 72
8
 73
4
 74
0
 40
0
 40
0
 40
0
 40
0
 40
1
 40
1
 40
1
 40
1
 10
26.903287
 20
266.691423
 30
0.0
 10
27.450555
 20
266.121583
 30
0.0
 10
27.976397
 20
265.841964
 30
0.0
 10
28.480813
 20
265.852565
 30
0.0
  0
SPLINE
  5
18d
100
AcDbEntity
  8
Layer_1
 62
3
100
AcDbSpline
 70
8
 71
3
 72
8
 73
4
 74
0
 40
0
 40
0
 40
0
 40
0
 40
1
 40
1
 40
1
 40
1
 10
28.480813
 20
265.852565
 30
0.0
 10
28.982686
 20
265.865814
 30
0.0
 10
29.518542
 20
266.146073
 30
0.0
 10
30.088381
 20
266.693340
 30
0.0
  0
SPLINE
  5
18e
100
AcDbEntity
  8
Layer_1
 62
3
100
AcDbSpline
 70
8
 71
3
 72
8
 73
4
 74
0
 40
0
 40
0
 40
0
 40
0
 40
1
 40
1
 40
1
 40
1
 10
30.088381
 20
266.693340
 30
0.0
 10
30.342821
 20
266.937702
 30
0.0
 10
30.591580
 20
267.222462
 30
0.0
 10
30.834658
 20
267.547621
 30
0.0
  0
LWPOLYLINE
  5
18f
100
AcDbEntity
  8
Layer_1
 62
3
100
AcDbPolyline
 90
2
 70
1
 10
29.423833
 20
269.112128
 30
0.0
 10
26.903287
 20
266.691423
 30
0.0
  0
LWPOLYLINE
  5
190
100
AcDbEntity
  8
Layer_1
 62
3
100
AcDbPolyline
 90
3
 70
1
 10
30.834658
 20
267.547621
 30
0.0
 10
31.022691
 20
267.399579
 30
0.0
 10
31.022691
 20
267.399579
 30
0.0
  0
SPLINE
  5
191
100
AcDbEntity
  8
Layer_1
 62
3
100
AcDbSpline
 70
8
 71
3
 72
8
 73
4
 74
0
 40
0
 40
0
 40
0
 40
0
 40
1
 40
1
 40
1
 40
1
 10
28.213161
 20
268.813016
 30
0.0
 10
27.851709
 20
269.189376
 30
0.0
 10
27.532388
 20
269.399849
 30
0.0
 10
27.255197
 20
269.444435
 30
0.0
  0
SPLINE
  5
192
100
AcDbEntity
  8
Layer_1
 62
3
100
AcDbSpline
 70
8
 71
3
 72
8
 73
4
 74
0
 40
0
 40
0
 40
0
 40
0
 40
1
 40
1
 40
1
 40
1
 10
27.255197
 20
269.444435
 30
0.0
 10
26.980658
 20
269.491565
 30
0.0
 10
26.724120
 20
269.400586
 30
0.0
 10
26.485582
 20
269.171497
 30
0.0
  0
SPLINE
  5
193
100
AcDbEntity
  8
Layer_1
 62
3
100
AcDbSpline
 70
8
 71
3
 72
8
 73
4
 74
0
 40
0
 40
0
 40
0
 40
0
 40
1
 40
1
 40
1
 40
1
 10
26.485582
 20
269.171497
 30
0.0
 10
26.170183
 20
268.868591
 30
0.0
 10
26.038448
 20
268.522989
 30
0.0
 10
26.090378
 20
268.134692
 30
0.0
  0
SPLINE
  5
194
100
AcDbEntity
  8
Layer_1
 62
3
100
AcDbSpline
 70
8
 71
3
 72
8
 73
4
 74
0
 40
0
 40
0
 40
0
 40
0
 40
1
 40
1
 40
1
 40
1
 10
26.090378
 20
268.134692
 30
0.0
 10
26.142309
 20
267.746394
 30
0.0
 10
26.312944
 20
267.380388
 30
0.0
 10
26.602283
 20
267.036674
 30
0.0
  0
LWPOLYLINE
  5
195
100
AcDbEntity
  8
Layer_1
 62
3
100
AcDbPolyline
 90
2
 70
1
 10
28.327704
 20
268.693749
 30
0.0
 10
28.213161
 20
268.813016
 30
0.0
  0
LWPOLYLINE
  5
196
100
AcDbEntity
  8
Layer_1
 62
3
100
AcDbPolyline
 90
3
 70
1
 10
26.602283
 20
267.036674
 30
0.0
 10
28.327704
 20
268.693749
 30
0.0
 10
28.327704
 20
268.693749
 30
0.0
  0
SPLINE
  5
197
100
AcDbEntity
  8
Layer_1
 62
3
100
AcDbSpline
 70
8
 71
3
 72
8
 73
4
 74
0
 40
0
 40
0
 40
0
 40
0
 40
1
 40
1
 40
1
 40
1
 10
19.934854
 20
262.933748
 30
0.0
 10
20.298671
 20
263.446194
 30
0.0
 10
20.629671
 20
263.942409
 30
0.0
 10
20.927857
 20
264.422395
 30
0.0
  0
LWPOLYLINE
  5
198
100
AcDbEntity
  8
Layer_1
 62
3
100
AcDbPolyline
 90
2
 70
1
 10
20.084550
 20
262.817669
 30
0.0
 10
19.934854
 20
262.933748
 30
0.0
  0
SPLINE
  5
199
100
AcDbEntity
  8
Layer_1
 62
3
100
AcDbSpline
 70
8
 71
3
 72
8
 73
4
 74
0
 40
0
 40
0
 40
0
 40
0
 40
1
 40
1
 40
1
 40
1
 10
21.368518
 20
264.043136
 30
0.0
 10
21.506762
 20
264.710880
 30
0.0
 10
21.765388
 20
265.226751
 30
0.0
 10
22.144398
 20
265.590747
 30
0.0
  0
SPLINE
  5
19a
100
AcDbEntity
  8
Layer_1
 62
3
100
AcDbSpline
 70
8
 71
3
 72
8
 73
4
 74
0
 40
0
 40
0
 40
0
 40
0
 40
1
 40
1
 40
1
 40
1
 10
22.144398
 20
265.590747
 30
0.0
 10
22.637375
 20
266.064197
 30
0.0
 10
23.187401
 20
266.273997
 30
0.0
 10
23.794476
 20
266.220147
 30
0.0
  0
SPLINE
  5
19b
100
AcDbEntity
  8
Layer_1
 62
3
100
AcDbSpline
 70
8
 71
3
 72
8
 73
4
 74
0
 40
0
 40
0
 40
0
 40
0
 40
1
 40
1
 40
1
 40
1
 10
23.794476
 20
266.220147
 30
0.0
 10
24.401654
 20
266.171493
 30
0.0
 10
24.958514
 20
265.883450
 30
0.0
 10
25.465055
 20
265.356017
 30
0.0
  0
SPLINE
  5
19c
100
AcDbEntity
  8
Layer_1
 62
3
100
AcDbSpline
 70
8
 71
3
 72
8
 73
4
 74
0
 40
0
 40
0
 40
0
 40
0
 40
1
 40
1
 40
1
 40
1
 10
25.465055
 20
265.356017
 30
0.0
 10
26.088686
 20
264.706664
 30
0.0
 10
26.395646
 20
264.013030
 30
0.0
 10
26.385933
 20
263.275115
 30
0.0
  0
SPLINE
  5
19d
100
AcDbEntity
  8
Layer_1
 62
3
100
AcDbSpline
 70
8
 71
3
 72
8
 73
4
 74
0
 40
0
 40
0
 40
0
 40
0
 40
1
 40
1
 40
1
 40
1
 10
26.385933
 20
263.275115
 30
0.0
 10
26.373675
 20
262.539851
 30
0.0
 10
26.024317
 20
261.842586
 30
0.0
 10
25.337859
 20
261.183319
 30
0.0
  0
SPLINE
  5
19e
100
AcDbEntity
  8
Layer_1
 62
3
100
AcDbSpline
 70
8
 71
3
 72
8
 73
4
 74
0
 40
0
 40
0
 40
0
 40
0
 40
1
 40
1
 40
1
 40
1
 10
25.337859
 20
261.183319
 30
0.0
 10
25.133777
 20
260.987321
 30
0.0
 10
24.902653
 20
260.803565
 30
0.0
 10
24.644487
 20
260.632050
 30
0.0
  0
LWPOLYLINE
  5
19f
100
AcDbEntity
  8
Layer_1
 62
3
100
AcDbPolyline
 90
3
 70
1
 10
20.927857
 20
264.422395
 30
0.0
 10
20.994340
 20
264.432746
 30
0.0
 10
21.368518
 20
264.043136
 30
0.0
  0
SPLINE
  5
1a0
100
AcDbEntity
  8
Layer_1
 62
3
100
AcDbSpline
 70
8
 71
3
 72
8
 73
4
 74
0
 40
0
 40
0
 40
0
 40
0
 40
1
 40
1
 40
1
 40
1
 10
25.480662
 20
259.761387
 30
0.0
 10
25.735204
 20
259.496347
 30
0.0
 10
25.916034
 20
259.313363
 30
0.0
 10
26.023152
 20
259.212437
 30
0.0
  0
SPLINE
  5
1a1
100
AcDbEntity
  8
Layer_1
 62
3
100
AcDbSpline
 70
8
 71
3
 72
8
 73
4
 74
0
 40
0
 40
0
 40
0
 40
0
 40
1
 40
1
 40
1
 40
1
 10
26.023152
 20
259.212437
 30
0.0
 10
26.104816
 20
259.138015
 30
0.0
 10
26.186414
 20
259.124670
 30
0.0
 10
26.267948
 20
259.172403
 30
0.0
  0
LWPOLYLINE
  5
1a2
100
AcDbEntity
  8
Layer_1
 62
3
100
AcDbPolyline
 90
2
 70
1
 10
24.644487
 20
260.632050
 30
0.0
 10
25.480662
 20
259.761387
 30
0.0
  0
SPLINE
  5
1a3
100
AcDbEntity
  8
Layer_1
 62
3
100
AcDbSpline
 70
8
 71
3
 72
8
 73
4
 74
0
 40
0
 40
0
 40
0
 40
0
 40
1
 40
1
 40
1
 40
1
 10
27.098497
 20
259.373935
 30
0.0
 10
26.677395
 20
258.984800
 30
0.0
 10
26.336973
 20
258.665506
 30
0.0
 10
26.077233
 20
258.416054
 30
0.0
  0
SPLINE
  5
1a4
100
AcDbEntity
  8
Layer_1
 62
3
100
AcDbSpline
 70
8
 71
3
 72
8
 73
4
 74
0
 40
0
 40
0
 40
0
 40
0
 40
1
 40
1
 40
1
 40
1
 10
26.077233
 20
258.416054
 30
0.0
 10
25.817492
 20
258.166602
 30
0.0
 10
25.513862
 20
257.867356
 30
0.0
 10
25.166343
 20
257.518316
 30
0.0
  0
LWPOLYLINE
  5
1a5
100
AcDbEntity
  8
Layer_1
 62
3
100
AcDbPolyline
 90
3
 70
1
 10
26.267948
 20
259.172403
 30
0.0
 10
26.930025
 20
259.525483
 30
0.0
 10
27.098497
 20
259.373935
 30
0.0
  0
SPLINE
  5
1a6
100
AcDbEntity
  8
Layer_1
 62
3
100
AcDbSpline
 70
8
 71
3
 72
8
 73
4
 74
0
 40
0
 40
0
 40
0
 40
0
 40
1
 40
1
 40
1
 40
1
 10
25.321274
 20
258.240302
 30
0.0
 10
25.367066
 20
258.319946
 30
0.0
 10
25.360742
 20
258.392845
 30
0.0
 10
25.302302
 20
258.459001
 30
0.0
  0
SPLINE
  5
1a7
100
AcDbEntity
  8
Layer_1
 62
3
100
AcDbSpline
 70
8
 71
3
 72
8
 73
4
 74
0
 40
0
 40
0
 40
0
 40
0
 40
1
 40
1
 40
1
 40
1
 10
25.302302
 20
258.459001
 30
0.0
 10
25.121787
 20
258.657571
 30
0.0
 10
24.843167
 20
258.952987
 30
0.0
 10
24.466444
 20
259.345248
 30
0.0
  0
LWPOLYLINE
  5
1a8
100
AcDbEntity
  8
Layer_1
 62
3
100
AcDbPolyline
 90
3
 70
1
 10
25.166343
 20
257.518316
 30
0.0
 10
24.993894
 20
257.666045
 30
0.0
 10
25.321274
 20
258.240302
 30
0.0
  0
SPLINE
  5
1a9
100
AcDbEntity
  8
Layer_1
 62
3
100
AcDbSpline
 70
8
 71
3
 72
8
 73
4
 74
0
 40
0
 40
0
 40
0
 40
0
 40
1
 40
1
 40
1
 40
1
 10
22.912458
 20
260.963328
 30
0.0
 10
21.784832
 20
262.137463
 30
0.0
 10
21.066810
 20
262.874488
 30
0.0
 10
20.758393
 20
263.174404
 30
0.0
  0
LWPOLYLINE
  5
1aa
100
AcDbEntity
  8
Layer_1
 62
3
100
AcDbPolyline
 90
2
 70
1
 10
24.466444
 20
259.345248
 30
0.0
 10
22.912458
 20
260.963328
 30
0.0
  0
SPLINE
  5
1ab
100
AcDbEntity
  8
Layer_1
 62
3
100
AcDbSpline
 70
8
 71
3
 72
8
 73
4
 74
0
 40
0
 40
0
 40
0
 40
0
 40
1
 40
1
 40
1
 40
1
 10
24.300855
 20
260.989857
 30
0.0
 10
24.579805
 20
261.160951
 30
0.0
 10
24.826622
 20
261.349588
 30
0.0
 10
25.041306
 20
261.555767
 30
0.0
  0
SPLINE
  5
1ac
100
AcDbEntity
  8
Layer_1
 62
3
100
AcDbSpline
 70
8
 71
3
 72
8
 73
4
 74
0
 40
0
 40
0
 40
0
 40
0
 40
1
 40
1
 40
1
 40
1
 10
25.041306
 20
261.555767
 30
0.0
 10
25.481275
 20
261.978309
 30
0.0
 10
25.680214
 20
262.434309
 30
0.0
 10
25.638125
 20
262.923769
 30
0.0
  0
SPLINE
  5
1ad
100
AcDbEntity
  8
Layer_1
 62
3
100
AcDbSpline
 70
8
 71
3
 72
8
 73
4
 74
0
 40
0
 40
0
 40
0
 40
0
 40
1
 40
1
 40
1
 40
1
 10
25.638125
 20
262.923769
 30
0.0
 10
25.596035
 20
263.413228
 30
0.0
 10
25.328083
 20
263.915049
 30
0.0
 10
24.834268
 20
264.429231
 30
0.0
  0
SPLINE
  5
1ae
100
AcDbEntity
  8
Layer_1
 62
3
100
AcDbSpline
 70
8
 71
3
 72
8
 73
4
 74
0
 40
0
 40
0
 40
0
 40
0
 40
1
 40
1
 40
1
 40
1
 10
24.834268
 20
264.429231
 30
0.0
 10
24.368454
 20
264.914257
 30
0.0
 10
23.911168
 20
265.178197
 30
0.0
 10
23.462411
 20
265.221050
 30
0.0
  0
SPLINE
  5
1af
100
AcDbEntity
  8
Layer_1
 62
3
100
AcDbSpline
 70
8
 71
3
 72
8
 73
4
 74
0
 40
0
 40
0
 40
0
 40
0
 40
1
 40
1
 40
1
 40
1
 10
23.462411
 20
265.221050
 30
0.0
 10
23.013652
 20
265.263905
 30
0.0
 10
22.590491
 20
265.094425
 30
0.0
 10
22.192929
 20
264.712611
 30
0.0
  0
SPLINE
  5
1b0
100
AcDbEntity
  8
Layer_1
 62
3
100
AcDbSpline
 70
8
 71
3
 72
8
 73
4
 74
0
 40
0
 40
0
 40
0
 40
0
 40
1
 40
1
 40
1
 40
1
 10
22.192929
 20
264.712611
 30
0.0
 10
21.906684
 20
264.437704
 30
0.0
 10
21.708244
 20
264.135033
 30
0.0
 10
21.597608
 20
263.804598
 30
0.0
  0
LWPOLYLINE
  5
1b1
100
AcDbEntity
  8
Layer_1
 62
3
100
AcDbPolyline
 90
3
 70
1
 10
20.758393
 20
263.174404
 30
0.0
 10
20.084545
 20
262.817665
 30
0.0
 10
20.084550
 20
262.817669
 30
0.0
  0
SPLINE
  5
1b2
100
AcDbEntity
  8
Layer_1
 62
3
100
AcDbSpline
 70
8
 71
3
 72
8
 73
4
 74
0
 40
0
 40
0
 40
0
 40
0
 40
1
 40
1
 40
1
 40
1
 10
18.880409
 20
261.684151
 30
0.0
 10
18.685958
 20
261.578923
 30
0.0
 10
18.498618
 20
261.439764
 30
0.0
 10
18.318390
 20
261.266675
 30
0.0
  0
SPLINE
  5
1b3
100
AcDbEntity
  8
Layer_1
 62
3
100
AcDbSpline
 70
8
 71
3
 72
8
 73
4
 74
0
 40
0
 40
0
 40
0
 40
0
 40
1
 40
1
 40
1
 40
1
 10
18.318390
 20
261.266675
 30
0.0
 10
18.069251
 20
261.027404
 30
0.0
 10
17.914909
 20
260.784919
 30
0.0
 10
17.855365
 20
260.539220
 30
0.0
  0
SPLINE
  5
1b4
100
AcDbEntity
  8
Layer_1
 62
3
100
AcDbSpline
 70
8
 71
3
 72
8
 73
4
 74
0
 40
0
 40
0
 40
0
 40
0
 40
1
 40
1
 40
1
 40
1
 10
17.855365
 20
260.539220
 30
0.0
 10
17.795927
 20
260.298715
 30
0.0
 10
17.846390
 20
260.094974
 30
0.0
 10
18.006752
 20
259.927998
 30
0.0
  0
SPLINE
  5
1b5
100
AcDbEntity
  8
Layer_1
 62
3
100
AcDbSpline
 70
8
 71
3
 72
8
 73
4
 74
0
 40
0
 40
0
 40
0
 40
0
 40
1
 40
1
 40
1
 40
1
 10
18.006752
 20
259.927998
 30
0.0
 10
18.162022
 20
259.766323
 30
0.0
 10
18.333236
 20
259.686193
 30
0.0
 10
18.520392
 20
259.687609
 30
0.0
  0
SPLINE
  5
1b6
100
AcDbEntity
  8
Layer_1
 62
3
100
AcDbSpline
 70
8
 71
3
 72
8
 73
4
 74
0
 40
0
 40
0
 40
0
 40
0
 40
1
 40
1
 40
1
 40
1
 10
18.520392
 20
259.687609
 30
0.0
 10
18.710198
 20
259.691571
 30
0.0
 10
18.983544
 20
259.778312
 30
0.0
 10
19.340430
 20
259.947833
 30
0.0
  0
LWPOLYLINE
  5
1b7
100
AcDbEntity
  8
Layer_1
 62
3
100
AcDbPolyline
 90
3
 70
1
 10
21.597608
 20
263.804598
 30
0.0
 10
24.300855
 20
260.989857
 30
0.0
 10
24.300855
 20
260.989857
 30
0.0
  0
SPLINE
  5
1b8
100
AcDbEntity
  8
Layer_1
 62
3
100
AcDbSpline
 70
8
 71
3
 72
8
 73
4
 74
0
 40
0
 40
0
 40
0
 40
0
 40
1
 40
1
 40
1
 40
1
 10
19.773341
 20
260.149602
 30
0.0
 10
20.258733
 20
260.376302
 30
0.0
 10
20.663878
 20
260.490268
 30
0.0
 10
20.988776
 20
260.491501
 30
0.0
  0
SPLINE
  5
1b9
100
AcDbEntity
  8
Layer_1
 62
3
100
AcDbSpline
 70
8
 71
3
 72
8
 73
4
 74
0
 40
0
 40
0
 40
0
 40
0
 40
1
 40
1
 40
1
 40
1
 10
20.988776
 20
260.491501
 30
0.0
 10
21.313779
 20
260.497928
 30
0.0
 10
21.601007
 20
260.371272
 30
0.0
 10
21.850459
 20
260.111532
 30
0.0
  0
SPLINE
  5
1ba
100
AcDbEntity
  8
Layer_1
 62
3
100
AcDbSpline
 70
8
 71
3
 72
8
 73
4
 74
0
 40
0
 40
0
 40
0
 40
0
 40
1
 40
1
 40
1
 40
1
 10
21.850459
 20
260.111532
 30
0.0
 10
22.204273
 20
259.743124
 30
0.0
 10
22.339875
 20
259.315451
 30
0.0
 10
22.257265
 20
258.828511
 30
0.0
  0
SPLINE
  5
1bb
100
AcDbEntity
  8
Layer_1
 62
3
100
AcDbSpline
 70
8
 71
3
 72
8
 73
4
 74
0
 40
0
 40
0
 40
0
 40
0
 40
1
 40
1
 40
1
 40
1
 10
22.257265
 20
258.828511
 30
0.0
 10
22.172109
 20
258.344221
 30
0.0
 10
21.910872
 20
257.892078
 30
0.0
 10
21.473553
 20
257.472082
 30
0.0
  0
SPLINE
  5
1bc
100
AcDbEntity
  8
Layer_1
 62
3
100
AcDbSpline
 70
8
 71
3
 72
8
 73
4
 74
0
 40
0
 40
0
 40
0
 40
0
 40
1
 40
1
 40
1
 40
1
 10
21.473553
 20
257.472082
 30
0.0
 10
21.070689
 20
257.085177
 30
0.0
 10
20.579642
 20
256.771525
 30
0.0
 10
20.000410
 20
256.531126
 30
0.0
  0
SPLINE
  5
1bd
100
AcDbEntity
  8
Layer_1
 62
3
100
AcDbSpline
 70
8
 71
3
 72
8
 73
4
 74
0
 40
0
 40
0
 40
0
 40
0
 40
1
 40
1
 40
1
 40
1
 10
20.000410
 20
256.531126
 30
0.0
 10
19.759617
 20
256.962226
 30
0.0
 10
19.509234
 20
257.368828
 30
0.0
 10
19.249260
 20
257.750933
 30
0.0
  0
LWPOLYLINE
  5
1be
100
AcDbEntity
  8
Layer_1
 62
3
100
AcDbPolyline
 90
2
 70
1
 10
19.340430
 20
259.947833
 30
0.0
 10
19.773341
 20
260.149602
 30
0.0
  0
SPLINE
  5
1bf
100
AcDbEntity
  8
Layer_1
 62
3
100
AcDbSpline
 70
8
 71
3
 72
8
 73
4
 74
0
 40
0
 40
0
 40
0
 40
0
 40
1
 40
1
 40
1
 40
1
 10
20.488546
 20
257.343842
 30
0.0
 10
20.695620
 20
257.430622
 30
0.0
 10
20.915775
 20
257.586011
 30
0.0
 10
21.149012
 20
257.810009
 30
0.0
  0
SPLINE
  5
1c0
100
AcDbEntity
  8
Layer_1
 62
3
100
AcDbSpline
 70
8
 71
3
 72
8
 73
4
 74
0
 40
0
 40
0
 40
0
 40
0
 40
1
 40
1
 40
1
 40
1
 10
21.149012
 20
257.810009
 30
0.0
 10
21.395500
 20
258.046734
 30
0.0
 10
21.543268
 20
258.285454
 30
0.0
 10
21.592314
 20
258.526169
 30
0.0
  0
SPLINE
  5
1c1
100
AcDbEntity
  8
Layer_1
 62
3
100
AcDbSpline
 70
8
 71
3
 72
8
 73
4
 74
0
 40
0
 40
0
 40
0
 40
0
 40
1
 40
1
 40
1
 40
1
 10
21.592314
 20
258.526169
 30
0.0
 10
21.644011
 20
258.769429
 30
0.0
 10
21.582042
 20
258.982498
 30
0.0
 10
21.406408
 20
259.165376
 30
0.0
  0
SPLINE
  5
1c2
100
AcDbEntity
  8
Layer_1
 62
3
100
AcDbSpline
 70
8
 71
3
 72
8
 73
4
 74
0
 40
0
 40
0
 40
0
 40
0
 40
1
 40
1
 40
1
 40
1
 10
21.406408
 20
259.165376
 30
0.0
 10
21.243500
 20
259.335003
 30
0.0
 10
21.064598
 20
259.420486
 30
0.0
 10
20.869701
 20
259.421825
 30
0.0
  0
SPLINE
  5
1c3
100
AcDbEntity
  8
Layer_1
 62
3
100
AcDbSpline
 70
8
 71
3
 72
8
 73
4
 74
0
 40
0
 40
0
 40
0
 40
0
 40
1
 40
1
 40
1
 40
1
 10
20.869701
 20
259.421825
 30
0.0
 10
20.677454
 20
259.425710
 30
0.0
 10
20.438301
 20
259.359071
 30
0.0
 10
20.152240
 20
259.221906
 30
0.0
  0
LWPOLYLINE
  5
1c4
100
AcDbEntity
  8
Layer_1
 62
3
100
AcDbPolyline
 90
3
 70
1
 10
19.249260
 20
257.750933
 30
0.0
 10
19.381400
 20
257.923695
 30
0.0
 10
20.488546
 20
257.343842
 30
0.0
  0
SPLINE
  5
1c5
100
AcDbEntity
  8
Layer_1
 62
3
100
AcDbSpline
 70
8
 71
3
 72
8
 73
4
 74
0
 40
0
 40
0
 40
0
 40
0
 40
1
 40
1
 40
1
 40
1
 10
19.605141
 20
258.963965
 30
0.0
 10
19.132790
 20
258.739601
 30
0.0
 10
18.747522
 20
258.644726
 30
0.0
 10
18.449338
 20
258.679340
 30
0.0
  0
SPLINE
  5
1c6
100
AcDbEntity
  8
Layer_1
 62
3
100
AcDbSpline
 70
8
 71
3
 72
8
 73
4
 74
0
 40
0
 40
0
 40
0
 40
0
 40
1
 40
1
 40
1
 40
1
 10
18.449338
 20
258.679340
 30
0.0
 10
18.151260
 20
258.719150
 30
0.0
 10
17.882585
 20
258.863624
 30
0.0
 10
17.643314
 20
259.112764
 30
0.0
  0
SPLINE
  5
1c7
100
AcDbEntity
  8
Layer_1
 62
3
100
AcDbSpline
 70
8
 71
3
 72
8
 73
4
 74
0
 40
0
 40
0
 40
0
 40
0
 40
1
 40
1
 40
1
 40
1
 10
17.643314
 20
259.112764
 30
0.0
 10
17.309863
 20
259.459968
 30
0.0
 10
17.178880
 20
259.858959
 30
0.0
 10
17.250364
 20
260.309737
 30
0.0
  0
SPLINE
  5
1c8
100
AcDbEntity
  8
Layer_1
 62
3
100
AcDbSpline
 70
8
 71
3
 72
8
 73
4
 74
0
 40
0
 40
0
 40
0
 40
0
 40
1
 40
1
 40
1
 40
1
 10
17.250364
 20
260.309737
 30
0.0
 10
17.321952
 20
260.765713
 30
0.0
 10
17.573756
 20
261.201153
 30
0.0
 10
18.005773
 20
261.616058
 30
0.0
  0
SPLINE
  5
1c9
100
AcDbEntity
  8
Layer_1
 62
3
100
AcDbSpline
 70
8
 71
3
 72
8
 73
4
 74
0
 40
0
 40
0
 40
0
 40
0
 40
1
 40
1
 40
1
 40
1
 10
18.005773
 20
261.616058
 30
0.0
 10
18.408637
 20
262.002964
 30
0.0
 10
18.830394
 20
262.295924
 30
0.0
 10
19.271045
 20
262.494938
 30
0.0
  0
SPLINE
  5
1ca
100
AcDbEntity
  8
Layer_1
 62
3
100
AcDbSpline
 70
8
 71
3
 72
8
 73
4
 74
0
 40
0
 40
0
 40
0
 40
0
 40
1
 40
1
 40
1
 40
1
 10
19.271045
 20
262.494938
 30
0.0
 10
19.487012
 20
262.121519
 30
0.0
 10
19.726151
 20
261.737235
 30
0.0
 10
19.988461
 20
261.342087
 30
0.0
  0
LWPOLYLINE
  5
1cb
100
AcDbEntity
  8
Layer_1
 62
3
100
AcDbPolyline
 90
2
 70
1
 10
20.152240
 20
259.221906
 30
0.0
 10
19.605141
 20
258.963965
 30
0.0
  0
SPLINE
  5
1cc
100
AcDbEntity
  8
Layer_1
 62
3
100
AcDbSpline
 70
8
 71
3
 72
8
 73
4
 74
0
 40
0
 40
0
 40
0
 40
0
 40
1
 40
1
 40
1
 40
1
 10
19.270746
 20
256.113139
 30
0.0
 10
19.180368
 20
255.756305
 30
0.0
 10
19.045183
 20
255.432864
 30
0.0
 10
18.865189
 20
255.142817
 30
0.0
  0
SPLINE
  5
1cd
100
AcDbEntity
  8
Layer_1
 62
3
100
AcDbSpline
 70
8
 71
3
 72
8
 73
4
 74
0
 40
0
 40
0
 40
0
 40
0
 40
1
 40
1
 40
1
 40
1
 10
18.865189
 20
255.142817
 30
0.0
 10
18.685197
 20
254.852769
 30
0.0
 10
18.493160
 20
254.609745
 30
0.0
 10
18.289078
 20
254.413747
 30
0.0
  0
SPLINE
  5
1ce
100
AcDbEntity
  8
Layer_1
 62
3
100
AcDbSpline
 70
8
 71
3
 72
8
 73
4
 74
0
 40
0
 40
0
 40
0
 40
0
 40
1
 40
1
 40
1
 40
1
 10
18.289078
 20
254.413747
 30
0.0
 10
17.705986
 20
253.853753
 30
0.0
 10
17.081749
 20
253.572680
 30
0.0
 10
16.416366
 20
253.570530
 30
0.0
  0
SPLINE
  5
1cf
100
AcDbEntity
  8
Layer_1
 62
3
100
AcDbSpline
 70
8
 71
3
 72
8
 73
4
 74
0
 40
0
 40
0
 40
0
 40
0
 40
1
 40
1
 40
1
 40
1
 10
16.416366
 20
253.570530
 30
0.0
 10
15.748437
 20
253.571031
 30
0.0
 10
15.130657
 20
253.866804
 30
0.0
 10
14.563026
 20
254.457847
 30
0.0
  0
SPLINE
  5
1d0
100
AcDbEntity
  8
Layer_1
 62
3
100
AcDbSpline
 70
8
 71
3
 72
8
 73
4
 74
0
 40
0
 40
0
 40
0
 40
0
 40
1
 40
1
 40
1
 40
1
 10
14.563026
 20
254.457847
 30
0.0
 10
13.997940
 20
255.046239
 30
0.0
 10
13.701596
 20
255.686379
 30
0.0
 10
13.673993
 20
256.378266
 30
0.0
  0
SPLINE
  5
1d1
100
AcDbEntity
  8
Layer_1
 62
3
100
AcDbSpline
 70
8
 71
3
 72
8
 73
4
 74
0
 40
0
 40
0
 40
0
 40
0
 40
1
 40
1
 40
1
 40
1
 10
13.673993
 20
256.378266
 30
0.0
 10
13.649039
 20
257.072699
 30
0.0
 10
13.914856
 20
257.687186
 30
0.0
 10
14.471443
 20
258.221727
 30
0.0
  0
SPLINE
  5
1d2
100
AcDbEntity
  8
Layer_1
 62
3
100
AcDbSpline
 70
8
 71
3
 72
8
 73
4
 74
0
 40
0
 40
0
 40
0
 40
0
 40
1
 40
1
 40
1
 40
1
 10
14.471443
 20
258.221727
 30
0.0
 10
14.937917
 20
258.669722
 30
0.0
 10
15.435931
 20
258.877974
 30
0.0
 10
15.965487
 20
258.846483
 30
0.0
  0
SPLINE
  5
1d3
100
AcDbEntity
  8
Layer_1
 62
3
100
AcDbSpline
 70
8
 71
3
 72
8
 73
4
 74
0
 40
0
 40
0
 40
0
 40
0
 40
1
 40
1
 40
1
 40
1
 10
15.965487
 20
258.846483
 30
0.0
 10
16.492498
 20
258.817641
 30
0.0
 10
16.992729
 20
258.556732
 30
0.0
 10
17.466180
 20
258.063753
 30
0.0
  0
SPLINE
  5
1d4
100
AcDbEntity
  8
Layer_1
 62
3
100
AcDbSpline
 70
8
 71
3
 72
8
 73
4
 74
0
 40
0
 40
0
 40
0
 40
0
 40
1
 40
1
 40
1
 40
1
 10
17.466180
 20
258.063753
 30
0.0
 10
17.537452
 20
257.989542
 30
0.0
 10
17.606021
 20
257.910188
 30
0.0
 10
17.671888
 20
257.825689
 30
0.0
  0
LWPOLYLINE
  5
1d5
100
AcDbEntity
  8
Layer_1
 62
3
100
AcDbPolyline
 90
4
 70
1
 10
19.988461
 20
261.342087
 30
0.0
 10
19.864115
 20
261.169168
 30
0.0
 10
18.880409
 20
261.684151
 30
0.0
 10
18.880409
 20
261.684151
 30
0.0
  0
SPLINE
  5
1d6
100
AcDbEntity
  8
Layer_1
 62
3
100
AcDbSpline
 70
8
 71
3
 72
8
 73
4
 74
0
 40
0
 40
0
 40
0
 40
0
 40
1
 40
1
 40
1
 40
1
 10
15.151342
 20
255.404985
 30
0.0
 10
15.698610
 20
254.835145
 30
0.0
 10
16.224452
 20
254.555525
 30
0.0
 10
16.728868
 20
254.566126
 30
0.0
  0
SPLINE
  5
1d7
100
AcDbEntity
  8
Layer_1
 62
3
100
AcDbSpline
 70
8
 71
3
 72
8
 73
4
 74
0
 40
0
 40
0
 40
0
 40
0
 40
1
 40
1
 40
1
 40
1
 10
16.728868
 20
254.566126
 30
0.0
 10
17.230741
 20
254.579376
 30
0.0
 10
17.766597
 20
254.859634
 30
0.0
 10
18.336436
 20
255.406902
 30
0.0
  0
SPLINE
  5
1d8
100
AcDbEntity
  8
Layer_1
 62
3
100
AcDbSpline
 70
8
 71
3
 72
8
 73
4
 74
0
 40
0
 40
0
 40
0
 40
0
 40
1
 40
1
 40
1
 40
1
 10
18.336436
 20
255.406902
 30
0.0
 10
18.590876
 20
255.651263
 30
0.0
 10
18.839635
 20
255.936023
 30
0.0
 10
19.082713
 20
256.261182
 30
0.0
  0
LWPOLYLINE
  5
1d9
100
AcDbEntity
  8
Layer_1
 62
3
100
AcDbPolyline
 90
2
 70
1
 10
17.671888
 20
257.825689
 30
0.0
 10
15.151342
 20
255.404985
 30
0.0
  0
LWPOLYLINE
  5
1da
100
AcDbEntity
  8
Layer_1
 62
3
100
AcDbPolyline
 90
3
 70
1
 10
19.082713
 20
256.261182
 30
0.0
 10
19.270746
 20
256.113140
 30
0.0
 10
19.270746
 20
256.113139
 30
0.0
  0
SPLINE
  5
1db
100
AcDbEntity
  8
Layer_1
 62
3
100
AcDbSpline
 70
8
 71
3
 72
8
 73
4
 74
0
 40
0
 40
0
 40
0
 40
0
 40
1
 40
1
 40
1
 40
1
 10
16.461215
 20
257.526577
 30
0.0
 10
16.099763
 20
257.902937
 30
0.0
 10
15.780442
 20
258.113409
 30
0.0
 10
15.503251
 20
258.157995
 30
0.0
  0
SPLINE
  5
1dc
100
AcDbEntity
  8
Layer_1
 62
3
100
AcDbSpline
 70
8
 71
3
 72
8
 73
4
 74
0
 40
0
 40
0
 40
0
 40
0
 40
1
 40
1
 40
1
 40
1
 10
15.503251
 20
258.157995
 30
0.0
 10
15.228712
 20
258.205126
 30
0.0
 10
14.972174
 20
258.114146
 30
0.0
 10
14.733636
 20
257.885058
 30
0.0
  0
SPLINE
  5
1dd
100
AcDbEntity
  8
Layer_1
 62
3
100
AcDbSpline
 70
8
 71
3
 72
8
 73
4
 74
0
 40
0
 40
0
 40
0
 40
0
 40
1
 40
1
 40
1
 40
1
 10
14.733636
 20
257.885058
 30
0.0
 10
14.418237
 20
257.582151
 30
0.0
 10
14.286502
 20
257.236550
 30
0.0
 10
14.338432
 20
256.848253
 30
0.0
  0
SPLINE
  5
1de
100
AcDbEntity
  8
Layer_1
 62
3
100
AcDbSpline
 70
8
 71
3
 72
8
 73
4
 74
0
 40
0
 40
0
 40
0
 40
0
 40
1
 40
1
 40
1
 40
1
 10
14.338432
 20
256.848253
 30
0.0
 10
14.390363
 20
256.459955
 30
0.0
 10
14.560998
 20
256.093949
 30
0.0
 10
14.850337
 20
255.750235
 30
0.0
  0
LWPOLYLINE
  5
1df
100
AcDbEntity
  8
Layer_1
 62
3
100
AcDbPolyline
 90
2
 70
1
 10
16.575758
 20
257.407310
 30
0.0
 10
16.461215
 20
257.526577
 30
0.0
  0
SPLINE
  5
1e0
100
AcDbEntity
  8
Layer_1
 62
3
100
AcDbSpline
 70
8
 71
3
 72
8
 73
4
 74
0
 40
0
 40
0
 40
0
 40
0
 40
1
 40
1
 40
1
 40
1
 10
9.820867
 20
253.220386
 30
0.0
 10
10.182032
 20
253.730286
 30
0.0
 10
10.513033
 20
254.226502
 30
0.0
 10
10.813869
 20
254.709032
 30
0.0
  0
LWPOLYLINE
  5
1e1
100
AcDbEntity
  8
Layer_1
 62
3
100
AcDbPolyline
 90
3
 70
1
 10
14.850337
 20
255.750235
 30
0.0
 10
16.575758
 20
257.407310
 30
0.0
 10
16.575758
 20
257.407310
 30
0.0
  0
SPLINE
  5
1e2
100
AcDbEntity
  8
Layer_1
 62
3
100
AcDbSpline
 70
8
 71
3
 72
8
 73
4
 74
0
 40
0
 40
0
 40
0
 40
0
 40
1
 40
1
 40
1
 40
1
 10
11.327076
 20
254.254235
 30
0.0
 10
11.501769
 20
255.053792
 30
0.0
 10
11.825003
 20
255.680114
 30
0.0
 10
12.296777
 20
256.133201
 30
0.0
  0
LWPOLYLINE
  5
1e3
100
AcDbEntity
  8
Layer_1
 62
3
100
AcDbPolyline
 90
3
 70
1
 10
10.813869
 20
254.709032
 30
0.0
 10
10.880352
 20
254.719384
 30
0.0
 10
11.327076
 20
254.254235
 30
0.0
  0
SPLINE
  5
1e4
100
AcDbEntity
  8
Layer_1
 62
3
100
AcDbSpline
 70
8
 71
3
 72
8
 73
4
 74
0
 40
0
 40
0
 40
0
 40
0
 40
1
 40
1
 40
1
 40
1
 10
12.339565
 20
256.128438
 30
0.0
 10
12.641971
 20
255.659709
 30
0.0
 10
12.959703
 20
255.177676
 30
0.0
 10
13.292760
 20
254.682337
 30
0.0
  0
LWPOLYLINE
  5
1e5
100
AcDbEntity
  8
Layer_1
 62
3
100
AcDbPolyline
 90
2
 70
1
 10
12.296777
 20
256.133201
 30
0.0
 10
12.339565
 20
256.128438
 30
0.0
  0
SPLINE
  5
1e6
100
AcDbEntity
  8
Layer_1
 62
3
100
AcDbSpline
 70
8
 71
3
 72
8
 73
4
 74
0
 40
0
 40
0
 40
0
 40
0
 40
1
 40
1
 40
1
 40
1
 10
13.160463
 20
254.501781
 30
0.0
 10
12.869890
 20
254.655794
 30
0.0
 10
12.625240
 20
254.767296
 30
0.0
 10
12.426511
 20
254.836287
 30
0.0
  0
SPLINE
  5
1e7
100
AcDbEntity
  8
Layer_1
 62
3
100
AcDbSpline
 70
8
 71
3
 72
8
 73
4
 74
0
 40
0
 40
0
 40
0
 40
0
 40
1
 40
1
 40
1
 40
1
 10
12.426511
 20
254.836287
 30
0.0
 10
12.225238
 20
254.907926
 30
0.0
 10
12.050390
 20
254.872474
 30
0.0
 10
11.901967
 20
254.729930
 30
0.0
  0
SPLINE
  5
1e8
100
AcDbEntity
  8
Layer_1
 62
3
100
AcDbSpline
 70
8
 71
3
 72
8
 73
4
 74
0
 40
0
 40
0
 40
0
 40
0
 40
1
 40
1
 40
1
 40
1
 10
11.901967
 20
254.729930
 30
0.0
 10
11.758845
 20
254.592477
 30
0.0
 10
11.643577
 20
254.354400
 30
0.0
 10
11.556165
 20
254.015700
 30
0.0
  0
LWPOLYLINE
  5
1e9
100
AcDbEntity
  8
Layer_1
 62
3
100
AcDbPolyline
 90
2
 70
1
 10
13.292760
 20
254.682337
 30
0.0
 10
13.160463
 20
254.501781
 30
0.0
  0
SPLINE
  5
1ea
100
AcDbEntity
  8
Layer_1
 62
3
100
AcDbSpline
 70
8
 71
3
 72
8
 73
4
 74
0
 40
0
 40
0
 40
0
 40
0
 40
1
 40
1
 40
1
 40
1
 10
13.209422
 20
252.294254
 30
0.0
 10
13.606509
 20
251.880789
 30
0.0
 10
13.892975
 20
251.587813
 30
0.0
 10
14.068819
 20
251.415326
 30
0.0
  0
SPLINE
  5
1eb
100
AcDbEntity
  8
Layer_1
 62
3
100
AcDbSpline
 70
8
 71
3
 72
8
 73
4
 74
0
 40
0
 40
0
 40
0
 40
0
 40
1
 40
1
 40
1
 40
1
 10
14.068819
 20
251.415326
 30
0.0
 10
14.140195
 20
251.346310
 30
0.0
 10
14.216598
 20
251.333071
 30
0.0
 10
14.298026
 20
251.375609
 30
0.0
  0
LWPOLYLINE
  5
1ec
100
AcDbEntity
  8
Layer_1
 62
3
100
AcDbPolyline
 90
2
 70
1
 10
11.556165
 20
254.015700
 30
0.0
 10
13.209422
 20
252.294254
 30
0.0
  0
SPLINE
  5
1ed
100
AcDbEntity
  8
Layer_1
 62
3
100
AcDbSpline
 70
8
 71
3
 72
8
 73
4
 74
0
 40
0
 40
0
 40
0
 40
0
 40
1
 40
1
 40
1
 40
1
 10
15.140344
 20
251.580801
 30
0.0
 10
14.719242
 20
251.191666
 30
0.0
 10
14.378821
 20
250.872372
 30
0.0
 10
14.119080
 20
250.622920
 30
0.0
  0
SPLINE
  5
1ee
100
AcDbEntity
  8
Layer_1
 62
3
100
AcDbSpline
 70
8
 71
3
 72
8
 73
4
 74
0
 40
0
 40
0
 40
0
 40
0
 40
1
 40
1
 40
1
 40
1
 10
14.119080
 20
250.622920
 30
0.0
 10
13.859339
 20
250.373468
 30
0.0
 10
13.555709
 20
250.074222
 30
0.0
 10
13.208191
 20
249.725182
 30
0.0
  0
LWPOLYLINE
  5
1ef
100
AcDbEntity
  8
Layer_1
 62
3
100
AcDbPolyline
 90
3
 70
1
 10
14.298026
 20
251.375609
 30
0.0
 10
14.971874
 20
251.732348
 30
0.0
 10
15.140344
 20
251.580801
 30
0.0
  0
SPLINE
  5
1f0
100
AcDbEntity
  8
Layer_1
 62
3
100
AcDbSpline
 70
8
 71
3
 72
8
 73
4
 74
0
 40
0
 40
0
 40
0
 40
0
 40
1
 40
1
 40
1
 40
1
 10
13.367099
 20
250.450985
 30
0.0
 10
13.410346
 20
250.533278
 30
0.0
 10
13.404022
 20
250.606178
 30
0.0
 10
13.348127
 20
250.669683
 30
0.0
  0
SPLINE
  5
1f1
100
AcDbEntity
  8
Layer_1
 62
3
100
AcDbSpline
 70
8
 71
3
 72
8
 73
4
 74
0
 40
0
 40
0
 40
0
 40
0
 40
1
 40
1
 40
1
 40
1
 10
13.348127
 20
250.669683
 30
0.0
 10
13.241324
 20
250.786196
 30
0.0
 10
13.086106
 20
250.950469
 30
0.0
 10
12.882471
 20
251.162502
 30
0.0
  0
LWPOLYLINE
  5
1f2
100
AcDbEntity
  8
Layer_1
 62
3
100
AcDbPolyline
 90
3
 70
1
 10
13.208191
 20
249.725182
 30
0.0
 10
13.035743
 20
249.872909
 30
0.0
 10
13.367099
 20
250.450985
 30
0.0
  0
SPLINE
  5
1f3
100
AcDbEntity
  8
Layer_1
 62
3
100
AcDbSpline
 70
8
 71
3
 72
8
 73
4
 74
0
 40
0
 40
0
 40
0
 40
0
 40
1
 40
1
 40
1
 40
1
 10
11.580483
 20
252.518191
 30
0.0
 10
11.165578
 20
252.950208
 30
0.0
 10
10.851007
 20
253.267142
 30
0.0
 10
10.636770
 20
253.468993
 30
0.0
  0
LWPOLYLINE
  5
1f4
100
AcDbEntity
  8
Layer_1
 62
3
100
AcDbPolyline
 90
2
 70
1
 10
12.882471
 20
251.162502
 30
0.0
 10
11.580483
 20
252.518191
 30
0.0
  0
SPLINE
  5
1f5
100
AcDbEntity
  8
Layer_1
 62
3
100
AcDbSpline
 70
8
 71
3
 72
8
 73
4
 74
0
 40
0
 40
0
 40
0
 40
0
 40
1
 40
1
 40
1
 40
1
 10
21.987165
 20
272.144446
 30
0.0
 10
21.849266
 20
271.443501
 30
0.0
 10
21.568100
 20
270.900358
 30
0.0
 10
21.143667
 20
270.515018
 30
0.0
  0
SPLINE
  5
1f6
100
AcDbEntity
  8
Layer_1
 62
3
100
AcDbSpline
 70
8
 71
3
 72
8
 73
4
 74
0
 40
0
 40
0
 40
0
 40
0
 40
1
 40
1
 40
1
 40
1
 10
21.143667
 20
270.515018
 30
0.0
 10
20.716520
 20
270.127199
 30
0.0
 10
20.296669
 20
269.944552
 30
0.0
 10
19.884114
 20
269.967076
 30
0.0
  0
SPLINE
  5
1f7
100
AcDbEntity
  8
Layer_1
 62
3
100
AcDbSpline
 70
8
 71
3
 72
8
 73
4
 74
0
 40
0
 40
0
 40
0
 40
0
 40
1
 40
1
 40
1
 40
1
 10
19.884114
 20
269.967076
 30
0.0
 10
19.474286
 20
269.992064
 30
0.0
 10
19.090287
 20
270.201810
 30
0.0
 10
18.732117
 20
270.596315
 30
0.0
  0
LWPOLYLINE
  5
1f8
100
AcDbEntity
  8
Layer_1
 62
3
100
AcDbPolyline
 90
4
 70
1
 10
10.636770
 20
253.468993
 30
0.0
 10
9.970558
 20
253.104303
 30
0.0
 10
9.820863
 20
253.220382
 30
0.0
 10
9.820867
 20
253.220386
 30
0.0
  0
SPLINE
  5
1f9
100
AcDbEntity
  8
Layer_1
 62
3
100
AcDbSpline
 70
8
 71
3
 72
8
 73
4
 74
0
 40
0
 40
0
 40
0
 40
0
 40
1
 40
1
 40
1
 40
1
 10
17.946615
 20
271.461504
 30
0.0
 10
17.418005
 20
272.043740
 30
0.0
 10
17.016106
 20
272.475476
 30
0.0
 10
16.740918
 20
272.756712
 30
0.0
  0
LWPOLYLINE
  5
1fa
100
AcDbEntity
  8
Layer_1
 62
3
100
AcDbPolyline
 90
2
 70
1
 10
18.732117
 20
270.596315
 30
0.0
 10
17.946615
 20
271.461504
 30
0.0
  0
SPLINE
  5
1fb
100
AcDbEntity
  8
Layer_1
 62
3
100
AcDbSpline
 70
8
 71
3
 72
8
 73
4
 74
0
 40
0
 40
0
 40
0
 40
0
 40
1
 40
1
 40
1
 40
1
 10
15.918363
 20
272.531069
 30
0.0
 10
16.315445
 20
273.050407
 30
0.0
 10
16.669748
 20
273.545794
 30
0.0
 10
16.981271
 20
274.017232
 30
0.0
  0
LWPOLYLINE
  5
1fc
100
AcDbEntity
  8
Layer_1
 62
3
100
AcDbPolyline
 90
3
 70
1
 10
16.740918
 20
272.756712
 30
0.0
 10
16.064747
 20
272.410839
 30
0.0
 10
15.918363
 20
272.531069
 30
0.0
  0
SPLINE
  5
1fd
100
AcDbEntity
  8
Layer_1
 62
3
100
AcDbSpline
 70
8
 71
3
 72
8
 73
4
 74
0
 40
0
 40
0
 40
0
 40
0
 40
1
 40
1
 40
1
 40
1
 10
17.043937
 20
274.022012
 30
0.0
 10
17.316619
 20
273.688865
 30
0.0
 10
17.680213
 20
273.271985
 30
0.0
 10
18.134718
 20
272.771371
 30
0.0
  0
LWPOLYLINE
  5
1fe
100
AcDbEntity
  8
Layer_1
 62
3
100
AcDbPolyline
 90
2
 70
1
 10
16.981271
 20
274.017232
 30
0.0
 10
17.043937
 20
274.022012
 30
0.0
  0
SPLINE
  5
1ff
100
AcDbEntity
  8
Layer_1
 62
3
100
AcDbSpline
 70
8
 71
3
 72
8
 73
4
 74
0
 40
0
 40
0
 40
0
 40
0
 40
1
 40
1
 40
1
 40
1
 10
19.312972
 20
271.473586
 30
0.0
 10
19.611859
 20
271.144377
 30
0.0
 10
19.906772
 20
270.975352
 30
0.0
 10
20.197709
 20
270.966512
 30
0.0
  0
SPLINE
  5
200
100
AcDbEntity
  8
Layer_1
 62
3
100
AcDbSpline
 70
8
 71
3
 72
8
 73
4
 74
0
 40
0
 40
0
 40
0
 40
0
 40
1
 40
1
 40
1
 40
1
 10
20.197709
 20
270.966512
 30
0.0
 10
20.486178
 20
270.960391
 30
0.0
 10
20.771890
 20
271.085777
 30
0.0
 10
21.054846
 20
271.342671
 30
0.0
  0
SPLINE
  5
201
100
AcDbEntity
  8
Layer_1
 62
3
100
AcDbSpline
 70
8
 71
3
 72
8
 73
4
 74
0
 40
0
 40
0
 40
0
 40
0
 40
1
 40
1
 40
1
 40
1
 10
21.054846
 20
271.342671
 30
0.0
 10
21.337797
 20
271.599571
 30
0.0
 10
21.559625
 20
271.937460
 30
0.0
 10
21.720332
 20
272.356339
 30
0.0
  0
LWPOLYLINE
  5
202
100
AcDbEntity
  8
Layer_1
 62
3
100
AcDbPolyline
 90
2
 70
1
 10
18.134718
 20
272.771371
 30
0.0
 10
19.312972
 20
271.473586
 30
0.0
  0
SPLINE
  5
203
100
AcDbEntity
  8
Layer_1
 62
3
100
AcDbSpline
 70
8
 71
3
 72
8
 73
4
 74
0
 40
0
 40
0
 40
0
 40
0
 40
1
 40
1
 40
1
 40
1
 10
20.141916
 20
274.094882
 30
0.0
 10
19.796097
 20
274.475784
 30
0.0
 10
19.500414
 20
274.790529
 30
0.0
 10
19.254868
 20
275.039117
 30
0.0
  0
LWPOLYLINE
  5
204
100
AcDbEntity
  8
Layer_1
 62
3
100
AcDbPolyline
 90
2
 70
1
 10
21.720332
 20
272.356339
 30
0.0
 10
20.141916
 20
274.094882
 30
0.0
  0
SPLINE
  5
205
100
AcDbEntity
  8
Layer_1
 62
3
100
AcDbSpline
 70
8
 71
3
 72
8
 73
4
 74
0
 40
0
 40
0
 40
0
 40
0
 40
1
 40
1
 40
1
 40
1
 10
18.436394
 20
274.817181
 30
0.0
 10
18.830756
 20
275.334048
 30
0.0
 10
19.183699
 20
275.828200
 30
0.0
 10
19.495222
 20
276.299638
 30
0.0
  0
LWPOLYLINE
  5
206
100
AcDbEntity
  8
Layer_1
 62
3
100
AcDbPolyline
 90
3
 70
1
 10
19.254868
 20
275.039117
 30
0.0
 10
18.582776
 20
274.696950
 30
0.0
 10
18.436394
 20
274.817181
 30
0.0
  0
SPLINE
  5
207
100
AcDbEntity
  8
Layer_1
 62
3
100
AcDbSpline
 70
8
 71
3
 72
8
 73
4
 74
0
 40
0
 40
0
 40
0
 40
0
 40
1
 40
1
 40
1
 40
1
 10
19.557888
 20
276.304418
 30
0.0
 10
19.837979
 20
275.963110
 30
0.0
 10
20.208983
 20
275.538069
 30
0.0
 10
20.670899
 20
275.029293
 30
0.0
  0
SPLINE
  5
208
100
AcDbEntity
  8
Layer_1
 62
3
100
AcDbSpline
 70
8
 71
3
 72
8
 73
4
 74
0
 40
0
 40
0
 40
0
 40
0
 40
1
 40
1
 40
1
 40
1
 10
20.670899
 20
275.029293
 30
0.0
 10
21.567558
 20
274.041669
 30
0.0
 10
22.117415
 20
273.441498
 30
0.0
 10
22.320467
 20
273.228781
 30
0.0
  0
SPLINE
  5
209
100
AcDbEntity
  8
Layer_1
 62
3
100
AcDbSpline
 70
8
 71
3
 72
8
 73
4
 74
0
 40
0
 40
0
 40
0
 40
0
 40
1
 40
1
 40
1
 40
1
 10
22.320467
 20
273.228781
 30
0.0
 10
22.424464
 20
273.119701
 30
0.0
 10
22.514141
 20
273.037327
 30
0.0
 10
22.589497
 20
272.981660
 30
0.0
  0
SPLINE
  5
20a
100
AcDbEntity
  8
Layer_1
 62
3
100
AcDbSpline
 70
8
 71
3
 72
8
 73
4
 74
0
 40
0
 40
0
 40
0
 40
0
 40
1
 40
1
 40
1
 40
1
 10
22.589497
 20
272.981660
 30
0.0
 10
22.664854
 20
272.925992
 30
0.0
 10
22.738869
 20
272.896404
 30
0.0
 10
22.811542
 20
272.892895
 30
0.0
  0
SPLINE
  5
20b
100
AcDbEntity
  8
Layer_1
 62
3
100
AcDbSpline
 70
8
 71
3
 72
8
 73
4
 74
0
 40
0
 40
0
 40
0
 40
0
 40
1
 40
1
 40
1
 40
1
 10
22.811542
 20
272.892895
 30
0.0
 10
22.881744
 20
272.892108
 30
0.0
 10
22.960985
 20
272.916899
 30
0.0
 10
23.049265
 20
272.967269
 30
0.0
  0
SPLINE
  5
20c
100
AcDbEntity
  8
Layer_1
 62
3
100
AcDbSpline
 70
8
 71
3
 72
8
 73
4
 74
0
 40
0
 40
0
 40
0
 40
0
 40
1
 40
1
 40
1
 40
1
 10
23.049265
 20
272.967269
 30
0.0
 10
23.137801
 20
273.022823
 30
0.0
 10
23.245878
 20
273.106056
 30
0.0
 10
23.373496
 20
273.216968
 30
0.0
  0
LWPOLYLINE
  5
20d
100
AcDbEntity
  8
Layer_1
 62
3
100
AcDbPolyline
 90
2
 70
1
 10
19.495222
 20
276.299638
 30
0.0
 10
19.557888
 20
276.304418
 30
0.0
  0
SPLINE
  5
20e
100
AcDbEntity
  8
Layer_1
 62
3
100
AcDbSpline
 70
8
 71
3
 72
8
 73
4
 74
0
 40
0
 40
0
 40
0
 40
0
 40
1
 40
1
 40
1
 40
1
 10
23.538405
 20
273.076331
 30
0.0
 10
23.457714
 20
272.913732
 30
0.0
 10
23.355508
 20
272.736562
 30
0.0
 10
23.231786
 20
272.544822
 30
0.0
  0
SPLINE
  5
20f
100
AcDbEntity
  8
Layer_1
 62
3
100
AcDbSpline
 70
8
 71
3
 72
8
 73
4
 74
0
 40
0
 40
0
 40
0
 40
0
 40
1
 40
1
 40
1
 40
1
 10
23.231786
 20
272.544822
 30
0.0
 10
23.110535
 20
272.350362
 30
0.0
 10
23.019981
 20
272.225961
 30
0.0
 10
22.960124
 20
272.171618
 30
0.0
  0
SPLINE
  5
210
100
AcDbEntity
  8
Layer_1
 62
3
100
AcDbSpline
 70
8
 71
3
 72
8
 73
4
 74
0
 40
0
 40
0
 40
0
 40
0
 40
1
 40
1
 40
1
 40
1
 10
22.960124
 20
272.171618
 30
0.0
 10
22.685330
 20
271.922135
 30
0.0
 10
22.361009
 20
271.913078
 30
0.0
 10
21.987160
 20
272.144445
 30
0.0
  0
LWPOLYLINE
  5
211
100
AcDbEntity
  8
Layer_1
 62
3
100
AcDbPolyline
 90
2
 70
1
 10
23.373496
 20
273.216968
 30
0.0
 10
23.538405
 20
273.076331
 30
0.0
  0
LWPOLYLINE
  5
212
100
AcDbEntity
  8
Layer_1
 62
3
100
AcDbPolyline
 90
2
 70
1
 10
21.987160
 20
272.144445
 30
0.0
 10
21.987165
 20
272.144446
 30
0.0
  0
SPLINE
  5
213
100
AcDbEntity
  8
Layer_1
 62
3
100
AcDbSpline
 70
8
 71
3
 72
8
 73
4
 74
0
 40
0
 40
0
 40
0
 40
0
 40
1
 40
1
 40
1
 40
1
 10
13.275535
 20
273.318130
 30
0.0
 10
12.861591
 20
273.096175
 30
0.0
 10
12.517222
 20
272.860456
 30
0.0
 10
12.242429
 20
272.610972
 30
0.0
  0
SPLINE
  5
214
100
AcDbEntity
  8
Layer_1
 62
3
100
AcDbSpline
 70
8
 71
3
 72
8
 73
4
 74
0
 40
0
 40
0
 40
0
 40
0
 40
1
 40
1
 40
1
 40
1
 10
12.242429
 20
272.610972
 30
0.0
 10
11.575851
 20
272.005789
 30
0.0
 10
11.263308
 20
271.297666
 30
0.0
 10
11.304800
 20
270.486602
 30
0.0
  0
SPLINE
  5
215
100
AcDbEntity
  8
Layer_1
 62
3
100
AcDbSpline
 70
8
 71
3
 72
8
 73
4
 74
0
 40
0
 40
0
 40
0
 40
0
 40
1
 40
1
 40
1
 40
1
 10
11.304800
 20
270.486602
 30
0.0
 10
11.346292
 20
269.675539
 30
0.0
 10
11.704210
 20
268.898629
 30
0.0
 10
12.378556
 20
268.155872
 30
0.0
  0
SPLINE
  5
216
100
AcDbEntity
  8
Layer_1
 62
3
100
AcDbSpline
 70
8
 71
3
 72
8
 73
4
 74
0
 40
0
 40
0
 40
0
 40
0
 40
1
 40
1
 40
1
 40
1
 10
12.378556
 20
268.155872
 30
0.0
 10
13.099837
 20
267.361419
 30
0.0
 10
13.893037
 20
266.925101
 30
0.0
 10
14.758157
 20
266.846916
 30
0.0
  0
SPLINE
  5
217
100
AcDbEntity
  8
Layer_1
 62
3
100
AcDbSpline
 70
8
 71
3
 72
8
 73
4
 74
0
 40
0
 40
0
 40
0
 40
0
 40
1
 40
1
 40
1
 40
1
 10
14.758157
 20
266.846916
 30
0.0
 10
15.623278
 20
266.768732
 30
0.0
 10
16.440820
 20
267.079164
 30
0.0
 10
17.210784
 20
267.778214
 30
0.0
  0
SPLINE
  5
218
100
AcDbEntity
  8
Layer_1
 62
3
100
AcDbSpline
 70
8
 71
3
 72
8
 73
4
 74
0
 40
0
 40
0
 40
0
 40
0
 40
1
 40
1
 40
1
 40
1
 10
17.210784
 20
267.778214
 30
0.0
 10
17.643386
 20
268.170959
 30
0.0
 10
18.023769
 20
268.667688
 30
0.0
 10
18.351934
 20
269.268401
 30
0.0
  0
LWPOLYLINE
  5
219
100
AcDbEntity
  8
Layer_1
 62
3
100
AcDbPolyline
 90
3
 70
1
 10
14.688936
 20
272.687978
 30
0.0
 10
14.547923
 20
272.515283
 30
0.0
 10
13.275535
 20
273.318130
 30
0.0
  0
SPLINE
  5
21a
100
AcDbEntity
  8
Layer_1
 62
3
100
AcDbSpline
 70
8
 71
3
 72
8
 73
4
 74
0
 40
0
 40
0
 40
0
 40
0
 40
1
 40
1
 40
1
 40
1
 10
18.563558
 20
269.125512
 30
0.0
 10
18.363514
 20
268.268876
 30
0.0
 10
17.924762
 20
267.533026
 30
0.0
 10
17.247300
 20
266.917963
 30
0.0
  0
SPLINE
  5
21b
100
AcDbEntity
  8
Layer_1
 62
3
100
AcDbSpline
 70
8
 71
3
 72
8
 73
4
 74
0
 40
0
 40
0
 40
0
 40
0
 40
1
 40
1
 40
1
 40
1
 10
17.247300
 20
266.917963
 30
0.0
 10
16.368506
 20
266.120108
 30
0.0
 10
15.416449
 20
265.744628
 30
0.0
 10
14.391129
 20
265.791523
 30
0.0
  0
SPLINE
  5
21c
100
AcDbEntity
  8
Layer_1
 62
3
100
AcDbSpline
 70
8
 71
3
 72
8
 73
4
 74
0
 40
0
 40
0
 40
0
 40
0
 40
1
 40
1
 40
1
 40
1
 10
14.391129
 20
265.791523
 30
0.0
 10
13.365808
 20
265.838420
 30
0.0
 10
12.455456
 20
266.299905
 30
0.0
 10
11.660072
 20
267.175978
 30
0.0
  0
SPLINE
  5
21d
100
AcDbEntity
  8
Layer_1
 62
3
100
AcDbSpline
 70
8
 71
3
 72
8
 73
4
 74
0
 40
0
 40
0
 40
0
 40
0
 40
1
 40
1
 40
1
 40
1
 10
11.660072
 20
267.175978
 30
0.0
 10
10.812815
 20
268.109187
 30
0.0
 10
10.438732
 20
269.117109
 30
0.0
 10
10.537823
 20
270.199744
 30
0.0
  0
SPLINE
  5
21e
100
AcDbEntity
  8
Layer_1
 62
3
100
AcDbSpline
 70
8
 71
3
 72
8
 73
4
 74
0
 40
0
 40
0
 40
0
 40
0
 40
1
 40
1
 40
1
 40
1
 10
10.537823
 20
270.199744
 30
0.0
 10
10.636914
 20
271.282379
 30
0.0
 10
11.165307
 20
272.258440
 30
0.0
 10
12.123003
 20
273.127929
 30
0.0
  0
SPLINE
  5
21f
100
AcDbEntity
  8
Layer_1
 62
3
100
AcDbSpline
 70
8
 71
3
 72
8
 73
4
 74
0
 40
0
 40
0
 40
0
 40
0
 40
1
 40
1
 40
1
 40
1
 10
12.123003
 20
273.127929
 30
0.0
 10
12.582805
 20
273.545382
 30
0.0
 10
13.104128
 20
273.916941
 30
0.0
 10
13.686973
 20
274.242605
 30
0.0
  0
LWPOLYLINE
  5
220
100
AcDbEntity
  8
Layer_1
 62
3
100
AcDbPolyline
 90
2
 70
1
 10
18.351934
 20
269.268401
 30
0.0
 10
18.563558
 20
269.125512
 30
0.0
  0
LWPOLYLINE
  5
221
100
AcDbEntity
  8
Layer_1
 62
3
100
AcDbPolyline
 90
4
 70
1
 10
13.686973
 20
274.242605
 30
0.0
 10
13.745182
 20
274.235893
 30
0.0
 10
14.688936
 20
272.687978
 30
0.0
 10
14.688936
 20
272.687978
 30
0.0
  0
LWPOLYLINE
  5
222
100
AcDbEntity
  8
Layer_1
 62
1
100
AcDbPolyline
 90
108
 70
1
 10
145.780097
 20
253.572398
 30
0.0
 10
145.482773
 20
253.536451
 30
0.0
 10
145.175385
 20
253.423689
 30
0.0
 10
144.871028
 20
253.249019
 30
0.0
 10
144.577240
 20
253.017532
 30
0.0
 10
144.301543
 20
252.734336
 30
0.0
 10
144.123850
 20
252.509397
 30
0.0
 10
143.880750
 20
252.147500
 30
0.0
 10
143.795837
 20
252.034194
 30
0.0
 10
143.558421
 20
252.215222
 30
0.0
 10
143.163171
 20
252.508722
 30
0.0
 10
142.796102
 20
252.733044
 30
0.0
 10
142.450445
 20
252.891816
 30
0.0
 10
142.119454
 20
252.988686
 30
0.0
 10
141.936422
 20
253.012562
 30
0.0
 10
141.731382
 20
253.017586
 30
0.0
 10
141.532841
 20
253.004321
 30
0.0
 10
141.369302
 20
252.973367
 30
0.0
 10
141.194911
 20
252.906641
 30
0.0
 10
141.021607
 20
252.811205
 30
0.0
 10
140.863554
 20
252.696044
 30
0.0
 10
140.734929
 20
252.570159
 30
0.0
 10
140.593346
 20
252.373340
 30
0.0
 10
140.475383
 20
252.146075
 30
0.0
 10
140.382106
 20
251.893918
 30
0.0
 10
140.314604
 20
251.622440
 30
0.0
 10
140.273953
 20
251.337201
 30
0.0
 10
140.261224
 20
251.043752
 30
0.0
 10
140.277509
 20
250.747664
 30
0.0
 10
140.323895
 20
250.454494
 30
0.0
 10
140.435087
 20
250.071762
 30
0.0
 10
140.602750
 20
249.680889
 30
0.0
 10
140.815068
 20
249.305683
 30
0.0
 10
141.060243
 20
248.969949
 30
0.0
 10
141.395202
 20
248.611877
 30
0.0
 10
141.855845
 20
248.230214
 30
0.0
 10
142.298335
 20
247.898089
 30
0.0
 10
142.686007
 20
247.634505
 30
0.0
 10
143.066524
 20
247.409113
 30
0.0
 10
143.487558
 20
247.191591
 30
0.0
 10
143.865676
 20
247.022376
 30
0.0
 10
144.266753
 20
246.902468
 30
0.0
 10
144.450384
 20
246.854152
 30
0.0
 10
144.524747
 20
246.897261
 30
0.0
 10
145.105727
 20
247.301900
 30
0.0
 10
145.374140
 20
247.540750
 30
0.0
 10
145.524302
 20
247.684791
 30
0.0
 10
145.592413
 20
247.564194
 30
0.0
 10
146.019664
 20
246.851877
 30
0.0
 10
146.403258
 20
246.294141
 30
0.0
 10
146.818612
 20
245.794179
 30
0.0
 10
147.140775
 20
245.459074
 30
0.0
 10
147.320759
 20
245.316602
 30
0.0
 10
147.519627
 20
245.163835
 30
0.0
 10
147.582297
 20
245.131112
 30
0.0
 10
147.639967
 20
245.129983
 30
0.0
 10
148.252282
 20
245.260310
 30
0.0
 10
148.804396
 20
245.446546
 30
0.0
 10
149.356183
 20
245.713254
 30
0.0
 10
149.967521
 20
246.084994
 30
0.0
 10
150.613051
 20
246.532960
 30
0.0
 10
150.827478
 20
246.711418
 30
0.0
 10
151.015136
 20
246.894662
 30
0.0
 10
151.200333
 20
247.103374
 30
0.0
 10
151.371300
 20
247.326033
 30
0.0
 10
151.666324
 20
247.805252
 30
0.0
 10
151.891828
 20
248.316382
 30
0.0
 10
151.975893
 20
248.578939
 30
0.0
 10
152.039430
 20
248.843499
 30
0.0
 10
152.068835
 20
249.049798
 30
0.0
 10
152.074592
 20
249.351804
 30
0.0
 10
152.067847
 20
249.647381
 30
0.0
 10
152.039549
 20
249.824035
 30
0.0
 10
151.971903
 20
250.059911
 30
0.0
 10
151.888853
 20
250.255844
 30
0.0
 10
151.784750
 20
250.422823
 30
0.0
 10
151.653926
 20
250.571845
 30
0.0
 10
151.447150
 20
250.741410
 30
0.0
 10
151.216464
 20
250.846769
 30
0.0
 10
150.998245
 20
250.899813
 30
0.0
 10
150.761988
 20
250.918665
 30
0.0
 10
150.509207
 20
250.903284
 30
0.0
 10
150.241398
 20
250.853672
 30
0.0
 10
149.950136
 20
250.767112
 30
0.0
 10
149.666729
 20
250.646518
 30
0.0
 10
149.365383
 20
250.479214
 30
0.0
 10
149.020316
 20
250.252508
 30
0.0
 10
148.887347
 20
250.173455
 30
0.0
 10
148.759455
 20
250.378706
 30
0.0
 10
148.429825
 20
250.926068
 30
0.0
 10
148.260249
 20
251.156531
 30
0.0
 10
148.087148
 20
251.358557
 30
0.0
 10
147.910259
 20
251.532422
 30
0.0
 10
147.729318
 20
251.678407
 30
0.0
 10
147.544059
 20
251.796797
 30
0.0
 10
147.354222
 20
251.887867
 30
0.0
 10
147.227372
 20
251.939048
 30
0.0
 10
147.199110
 20
252.068763
 30
0.0
 10
147.123963
 20
252.349509
 30
0.0
 10
147.026328
 20
252.607091
 30
0.0
 10
146.907865
 20
252.839343
 30
0.0
 10
146.770245
 20
253.044103
 30
0.0
 10
146.615130
 20
253.219211
 30
0.0
 10
146.444194
 20
253.362501
 30
0.0
 10
146.259096
 20
253.471811
 30
0.0
 10
146.061506
 20
253.544974
 30
0.0
 10
145.780071
 20
253.572463
 30
0.0
 10
145.780071
 20
253.572463
 30
0.0
  0
SPLINE
  5
223
100
AcDbEntity
  8
Layer_1
 62
1
100
AcDbSpline
 70
8
 71
3
 72
8
 73
4
 74
0
 40
0
 40
0
 40
0
 40
0
 40
1
 40
1
 40
1
 40
1
 10
117.399923
 20
270.192349
 30
0.0
 10
117.399923
 20
269.676614
 30
0.0
 10
116.981836
 20
269.258527
 30
0.0
 10
116.466101
 20
269.258527
 30
0.0
  0
SPLINE
  5
224
100
AcDbEntity
  8
Layer_1
 62
1
100
AcDbSpline
 70
8
 71
3
 72
8
 73
4
 74
0
 40
0
 40
0
 40
0
 40
0
 40
1
 40
1
 40
1
 40
1
 10
116.466101
 20
269.258527
 30
0.0
 10
116.218435
 20
269.258526
 30
0.0
 10
115.980913
 20
269.356911
 30
0.0
 10
115.805787
 20
269.532036
 30
0.0
  0
SPLINE
  5
225
100
AcDbEntity
  8
Layer_1
 62
1
100
AcDbSpline
 70
8
 71
3
 72
8
 73
4
 74
0
 40
0
 40
0
 40
0
 40
0
 40
1
 40
1
 40
1
 40
1
 10
115.805787
 20
269.532036
 30
0.0
 10
115.630661
 20
269.707162
 30
0.0
 10
115.532276
 20
269.944684
 30
0.0
 10
115.532275
 20
270.192349
 30
0.0
  0
SPLINE
  5
226
100
AcDbEntity
  8
Layer_1
 62
1
100
AcDbSpline
 70
8
 71
3
 72
8
 73
4
 74
0
 40
0
 40
0
 40
0
 40
0
 40
1
 40
1
 40
1
 40
1
 10
115.532275
 20
270.192349
 30
0.0
 10
115.532276
 20
270.440015
 30
0.0
 10
115.630661
 20
270.677536
 30
0.0
 10
115.805787
 20
270.852662
 30
0.0
  0
SPLINE
  5
227
100
AcDbEntity
  8
Layer_1
 62
1
100
AcDbSpline
 70
8
 71
3
 72
8
 73
4
 74
0
 40
0
 40
0
 40
0
 40
0
 40
1
 40
1
 40
1
 40
1
 10
115.805787
 20
270.852662
 30
0.0
 10
115.980913
 20
271.027788
 30
0.0
 10
116.218435
 20
271.126172
 30
0.0
 10
116.466101
 20
271.126172
 30
0.0
  0
SPLINE
  5
228
100
AcDbEntity
  8
Layer_1
 62
1
100
AcDbSpline
 70
8
 71
3
 72
8
 73
4
 74
0
 40
0
 40
0
 40
0
 40
0
 40
1
 40
1
 40
1
 40
1
 10
116.466101
 20
271.126172
 30
0.0
 10
116.981836
 20
271.126171
 30
0.0
 10
117.399923
 20
270.708085
 30
0.0
 10
117.399923
 20
270.192349
 30
0.0
  0
LWPOLYLINE
  5
229
100
AcDbEntity
  8
Layer_1
 62
1
100
AcDbPolyline
 90
108
 70
1
 10
135.337161
 20
276.993687
 30
0.0
 10
134.078737
 20
276.841552
 30
0.0
 10
132.777727
 20
276.364285
 30
0.0
 10
131.489560
 20
275.624986
 30
0.0
 10
130.246103
 20
274.645236
 30
0.0
 10
129.079216
 20
273.446617
 30
0.0
 10
128.327150
 20
272.494563
 30
0.0
 10
127.298238
 20
270.962841
 30
0.0
 10
126.938845
 20
270.483284
 30
0.0
 10
125.933979
 20
271.249472
 30
0.0
 10
124.261104
 20
272.491713
 30
0.0
 10
122.707479
 20
273.441134
 30
0.0
 10
121.244512
 20
274.113141
 30
0.0
 10
119.843604
 20
274.523140
 30
0.0
 10
119.068926
 20
274.624107
 30
0.0
 10
118.201096
 20
274.645271
 30
0.0
 10
117.360771
 20
274.589109
 30
0.0
 10
116.668604
 20
274.458095
 30
0.0
 10
115.930499
 20
274.175687
 30
0.0
 10
115.196987
 20
273.771752
 30
0.0
 10
114.528041
 20
273.284347
 30
0.0
 10
113.983632
 20
272.751533
 30
0.0
 10
113.384401
 20
271.918504
 30
0.0
 10
112.885107
 20
270.956604
 30
0.0
 10
112.490321
 20
269.889372
 30
0.0
 10
112.204613
 20
268.740344
 30
0.0
 10
112.032556
 20
267.533062
 30
0.0
 10
111.978719
 20
266.291056
 30
0.0
 10
112.047675
 20
265.037870
 30
0.0
 10
112.243997
 20
263.797038
 30
0.0
 10
112.714634
 20
262.177131
 30
0.0
 10
113.424245
 20
260.522778
 30
0.0
 10
114.322877
 20
258.934727
 30
0.0
 10
115.360569
 20
257.513736
 30
0.0
 10
116.778278
 20
255.998225
 30
0.0
 10
118.727942
 20
254.382833
 30
0.0
 10
120.600769
 20
252.977135
 30
0.0
 10
122.241575
 20
251.861502
 30
0.0
 10
123.852107
 20
250.907549
 30
0.0
 10
125.634118
 20
249.986894
 30
0.0
 10
127.234501
 20
249.270705
 30
0.0
 10
128.932040
 20
248.763196
 30
0.0
 10
129.709254
 20
248.558695
 30
0.0
 10
130.023997
 20
248.741149
 30
0.0
 10
132.482968
 20
250.453775
 30
0.0
 10
133.619023
 20
251.464703
 30
0.0
 10
134.254576
 20
252.074345
 30
0.0
 10
134.542860
 20
251.563921
 30
0.0
 10
136.351196
 20
248.549060
 30
0.0
 10
137.974728
 20
246.188468
 30
0.0
 10
139.732715
 20
244.072389
 30
0.0
 10
141.096258
 20
242.654078
 30
0.0
 10
141.858038
 20
242.051048
 30
0.0
 10
142.699743
 20
241.404472
 30
0.0
 10
142.964984
 20
241.265977
 30
0.0
 10
143.209066
 20
241.261151
 30
0.0
 10
145.800682
 20
241.812757
 30
0.0
 10
148.137485
 20
242.601001
 30
0.0
 10
150.472908
 20
243.729833
 30
0.0
 10
153.060386
 20
245.303213
 30
0.0
 10
155.792568
 20
247.199208
 30
0.0
 10
156.700130
 20
247.954533
 30
0.0
 10
157.494362
 20
248.730114
 30
0.0
 10
158.278220
 20
249.613464
 30
0.0
 10
159.001821
 20
250.555871
 30
0.0
 10
160.250513
 20
252.584149
 30
0.0
 10
161.204958
 20
254.747506
 30
0.0
 10
161.560747
 20
255.858765
 30
0.0
 10
161.829671
 20
256.978501
 30
0.0
 10
161.954125
 20
257.851663
 30
0.0
 10
161.978509
 20
259.129893
 30
0.0
 10
161.950005
 20
260.380919
 30
0.0
 10
161.830233
 20
261.128599
 30
0.0
 10
161.543915
 20
262.126935
 30
0.0
 10
161.192424
 20
262.956211
 30
0.0
 10
160.751802
 20
263.662949
 30
0.0
 10
160.198085
 20
264.293679
 30
0.0
 10
159.322908
 20
265.011373
 30
0.0
 10
158.346552
 20
265.457292
 30
0.0
 10
157.422932
 20
265.681792
 30
0.0
 10
156.422993
 20
265.761556
 30
0.0
 10
155.353094
 20
265.696492
 30
0.0
 10
154.219602
 20
265.486508
 30
0.0
 10
152.986859
 20
265.120144
 30
0.0
 10
151.787338
 20
264.609748
 30
0.0
 10
150.511899
 20
263.901630
 30
0.0
 10
149.051408
 20
262.942100
 30
0.0
 10
148.488617
 20
262.607511
 30
0.0
 10
147.947324
 20
263.476225
 30
0.0
 10
146.552172
 20
265.792925
 30
0.0
 10
145.834450
 20
266.768356
 30
0.0
 10
145.101807
 20
267.623421
 30
0.0
 10
144.353128
 20
268.359301
 30
0.0
 10
143.587298
 20
268.977188
 30
0.0
 10
142.803197
 20
269.478262
 30
0.0
 10
141.999710
 20
269.863710
 30
0.0
 10
141.462828
 20
270.080335
 30
0.0
 10
141.343213
 20
270.629348
 30
0.0
 10
141.025152
 20
271.817602
 30
0.0
 10
140.611908
 20
272.907804
 30
0.0
 10
140.110520
 20
273.890805
 30
0.0
 10
139.528045
 20
274.757451
 30
0.0
 10
138.871537
 20
275.498587
 30
0.0
 10
138.148046
 20
276.105057
 30
0.0
 10
137.364628
 20
276.567707
 30
0.0
 10
136.528339
 20
276.877381
 30
0.0
 10
135.337161
 20
276.993687
 30
0.0
 10
135.337161
 20
276.993687
 30
0.0
  0
LWPOLYLINE
  5
22a
100
AcDbEntity
  8
Layer_1
 62
1
100
AcDbPolyline
 90
2
 70
1
 10
117.399923
 20
270.192349
 30
0.0
 10
117.399923
 20
270.192349
 30
0.0
  0
ENDSEC
  0
SECTION
  2
OBJECTS
  0
DICTIONARY
  5
C
330
0
100
AcDbDictionary
  3
ACAD_GROUP
350
D
  3
ACAD_MLINESTYLE
350
17
  0
DICTIONARY
  5
D
330
C
100
AcDbDictionary
  0
DICTIONARY
  5
1A
330
C
100
AcDbDictionary
  0
DICTIONARY
  5
17
330
C
100
AcDbDictionary
  3
STANDARD
350
18
  0
DICTIONARY
  5
19
330
C
100
AcDbDictionary
  0
ENDSEC
  0
EOF
