  0
SECTION
  2
HEADER
  9
$ACADVER
  1
AC1014
  9
$HANDSEED
  5
FFFF
  9
$MEASUREMENT
 70
     1
  0
ENDSEC
  0
SECTION
  2
TABLES
  0
TABLE
  2
VPORT
  5
8
330
0
100
AcDbSymbolTable
 70
     4
  0
VPORT
  5
2E
330
8
100
AcDbSymbolTableRecord
100
AcDbViewportTableRecord
  2
*ACTIVE
 70
     0
 10
0.0
 20
0.0
 11
1.0
 21
1.0
 12
210.0
 22
148.5
 13
0.0
 23
0.0
 14
10.0
 24
10.0
 15
10.0
 25
10.0
 16
0.0
 26
0.0
 36
1.0
 17
0.0
 27
0.0
 37
0.0
 40
341.0
 41
1.24
 42
50.0
 43
0.0
 44
0.0
 50
0.0
 51
0.0
 71
     0
 72
   100
 73
     1
 74
     3
 75
     0
 76
     0
 77
     0
 78
     0
  0
ENDTAB
  0
TABLE
  2
LTYPE
  5
5
330
0
100
AcDbSymbolTable
 70
     1
  0
LTYPE
  5
14
330
5
100
AcDbSymbolTableRecord
100
AcDbLinetypeTableRecord
  2
BYBLOCK
 70
     0
  3

 72
    65
 73
     0
 40
0.0
  0
LTYPE
  5
15
330
5
100
AcDbSymbolTableRecord
100
AcDbLinetypeTableRecord
  2
BYLAYER
 70
     0
  3

 72
    65
 73
     0
 40
0.0
  0
LTYPE
  5
16
330
5
100
AcDbSymbolTableRecord
100
AcDbLinetypeTableRecord
  2
CONTINUOUS
 70
     0
  3
Solid line
 72
    65
 73
     0
 40
0.0
  0
ENDTAB
  0
TABLE
  2
LAYER
  5
2
100
AcDbSymbolTable
 70
1
  0
LAYER
  5
50
100
AcDbSymbolTableRecord
100
AcDbLayerTableRecord
  2
0
 70
0
  6
CONTINUOUS
  0
ENDTAB
  0
TABLE
  2
STYLE
  5
3
330
0
100
AcDbSymbolTable
 70
     1
  0
STYLE
  5
11
330
3
100
AcDbSymbolTableRecord
100
AcDbTextStyleTableRecord
  2
STANDARD
 70
     0
 40
0.0
 41
1.0
 50
0.0
 71
     0
 42
2.5
  3
txt
  4

  0
ENDTAB
  0
TABLE
  2
VIEW
  5
6
330
0
100
AcDbSymbolTable
 70
     0
  0
ENDTAB
  0
TABLE
  2
UCS
  5
7
330
0
100
AcDbSymbolTable
 70
     0
  0
ENDTAB
  0
TABLE
  2
APPID
  5
9
330
0
100
AcDbSymbolTable
 70
     2
  0
APPID
  5
12
330
9
100
AcDbSymbolTableRecord
100
AcDbRegAppTableRecord
  2
ACAD
 70
     0
  0
ENDTAB
  0
TABLE
  2
DIMSTYLE
  5
A
330
0
100
AcDbSymbolTable
 70
     1
  0
DIMSTYLE
105
27
330
A
100
AcDbSymbolTableRecord
100
AcDbDimStyleTableRecord
  2
ISO-25
 70
     0
  3

  4

  5

  6

  7

 40
1.0
 41
2.5
 42
0.625
 43
3.75
 44
1.25
 45
0.0
 46
0.0
 47
0.0
 48
0.0
140
2.5
141
2.5
142
0.0
143
0.03937007874016
144
1.0
145
0.0
146
1.0
147
0.625
 71
     0
 72
     0
 73
     0
 74
     0
 75
     0
 76
     0
 77
     1
 78
     8
170
     0
171
     3
172
     1
173
     0
174
     0
175
     0
176
     0
177
     0
178
     0
270
     2
271
     2
272
     2
273
     2
274
     3
340
11
275
     0
280
     0
281
     0
282
     0
283
     0
284
     8
285
     0
286
     0
287
     3
288
     0
  0
ENDTAB
  0
TABLE
  2
BLOCK_RECORD
  5
1
330
0
100
AcDbSymbolTable
 70
     1
  0
BLOCK_RECORD
  5
1F
330
1
100
AcDbSymbolTableRecord
100
AcDbBlockTableRecord
  2
*MODEL_SPACE
  0
BLOCK_RECORD
  5
1B
330
1
100
AcDbSymbolTableRecord
100
AcDbBlockTableRecord
  2
*PAPER_SPACE
  0
ENDTAB
  0
ENDSEC
  0
SECTION
  2
BLOCKS
  0
BLOCK
  5
20
330
1F
100
AcDbEntity
  8
0
100
AcDbBlockBegin
  2
*MODEL_SPACE
 70
     0
 10
0.0
 20
0.0
 30
0.0
  3
*MODEL_SPACE
  1

  0
ENDBLK
  5
21
330
1F
100
AcDbEntity
  8
0
100
AcDbBlockEnd
  0
BLOCK
  5
1C
330
1B
100
AcDbEntity
 67
     1
  8
0
100
AcDbBlockBegin
  2
*PAPER_SPACE
  1

  0
ENDBLK
  5
1D
330
1B
100
AcDbEntity
 67
     1
  8
0
100
AcDbBlockEnd
  0
ENDSEC
  0
SECTION
  2
ENTITIES
  0
LWPOLYLINE
  5
100
100
AcDbEntity
  8
0
 62
7
100
AcDbPolyline
 90
54
 70
1
 10
-110.590719
 20
106.914931
 30
0.0
 10
-110.590719
 20
98.915144
 30
0.0
 10
-107.590454
 20
98.915144
 30
0.0
 10
-107.590454
 20
90.914805
 30
0.0
 10
-110.590719
 20
90.914805
 30
0.0
 10
-110.590719
 20
84.914828
 30
0.0
 10
-107.590454
 20
84.914828
 30
0.0
 10
-107.590454
 20
78.914849
 30
0.0
 10
-110.590719
 20
78.914849
 30
0.0
 10
-110.590719
 20
72.914869
 30
0.0
 10
-107.590454
 20
72.914869
 30
0.0
 10
-107.590454
 20
64.915083
 30
0.0
 10
-110.590719
 20
64.915083
 30
0.0
 10
-110.590719
 20
56.914743
 30
0.0
 10
-102.590932
 20
56.914743
 30
0.0
 10
-102.590932
 20
59.915008
 30
0.0
 10
-94.590593
 20
59.915008
 30
0.0
 10
-94.590593
 20
56.914743
 30
0.0
 10
-88.590616
 20
56.914743
 30
0.0
 10
-88.590616
 20
59.915008
 30
0.0
 10
-82.590637
 20
59.915008
 30
0.0
 10
-82.590637
 20
56.914743
 30
0.0
 10
-76.590657
 20
56.914743
 30
0.0
 10
-76.590657
 20
59.915008
 30
0.0
 10
-68.590871
 20
59.915008
 30
0.0
 10
-68.590871
 20
56.914743
 30
0.0
 10
-60.590531
 20
56.914743
 30
0.0
 10
-60.590531
 20
64.915083
 30
0.0
 10
-63.590796
 20
64.915083
 30
0.0
 10
-63.590796
 20
72.914869
 30
0.0
 10
-60.590531
 20
72.914869
 30
0.0
 10
-60.590531
 20
78.914849
 30
0.0
 10
-63.590796
 20
78.914849
 30
0.0
 10
-63.590796
 20
84.914828
 30
0.0
 10
-60.590531
 20
84.914828
 30
0.0
 10
-60.590531
 20
90.914805
 30
0.0
 10
-63.590796
 20
90.914805
 30
0.0
 10
-63.590796
 20
98.915144
 30
0.0
 10
-60.590531
 20
98.915144
 30
0.0
 10
-60.590531
 20
106.914931
 30
0.0
 10
-68.590871
 20
106.914931
 30
0.0
 10
-68.590871
 20
103.914666
 30
0.0
 10
-76.590657
 20
103.914666
 30
0.0
 10
-76.590657
 20
106.914931
 30
0.0
 10
-82.590637
 20
106.914931
 30
0.0
 10
-82.590637
 20
103.914666
 30
0.0
 10
-88.590616
 20
103.914666
 30
0.0
 10
-88.590616
 20
106.914931
 30
0.0
 10
-94.590593
 20
106.914931
 30
0.0
 10
-94.590593
 20
103.914666
 30
0.0
 10
-102.590932
 20
103.914666
 30
0.0
 10
-102.590932
 20
106.914931
 30
0.0
 10
-110.590719
 20
106.914931
 30
0.0
 10
-110.590719
 20
106.914931
 30
0.0
  0
LWPOLYLINE
  5
101
100
AcDbEntity
  8
0
 62
7
100
AcDbPolyline
 90
53
 70
1
 10
12.376398
 20
103.349992
 30
0.0
 10
20.376405
 20
103.349992
 30
0.0
 10
20.376405
 20
106.349995
 30
0.0
 10
26.376410
 20
106.349995
 30
0.0
 10
26.376410
 20
103.349992
 30
0.0
 10
32.376415
 20
103.349992
 30
0.0
 10
32.376415
 20
106.349995
 30
0.0
 10
38.376420
 20
106.349995
 30
0.0
 10
38.376420
 20
103.349992
 30
0.0
 10
46.376426
 20
103.349992
 30
0.0
 10
46.376426
 20
106.349995
 30
0.0
 10
54.376433
 20
106.349995
 30
0.0
 10
54.376433
 20
98.349988
 30
0.0
 10
51.376430
 20
98.349988
 30
0.0
 10
51.376430
 20
90.349982
 30
0.0
 10
54.376433
 20
90.349982
 30
0.0
 10
54.376433
 20
84.349977
 30
0.0
 10
51.376430
 20
84.349977
 30
0.0
 10
51.376430
 20
78.349972
 30
0.0
 10
54.376433
 20
78.349972
 30
0.0
 10
54.376433
 20
72.349967
 30
0.0
 10
51.376430
 20
72.349967
 30
0.0
 10
51.376430
 20
64.349960
 30
0.0
 10
54.376433
 20
64.349960
 30
0.0
 10
54.376433
 20
56.349954
 30
0.0
 10
46.376426
 20
56.349954
 30
0.0
 10
46.376426
 20
59.349956
 30
0.0
 10
38.376420
 20
59.349956
 30
0.0
 10
38.376420
 20
56.349954
 30
0.0
 10
32.376415
 20
56.349954
 30
0.0
 10
32.376415
 20
59.349956
 30
0.0
 10
26.376410
 20
59.349956
 30
0.0
 10
26.376410
 20
56.349954
 30
0.0
 10
20.376405
 20
56.349954
 30
0.0
 10
20.376405
 20
59.349956
 30
0.0
 10
12.376398
 20
59.349956
 30
0.0
 10
12.376398
 20
56.349954
 30
0.0
 10
4.376392
 20
56.349954
 30
0.0
 10
4.376392
 20
64.349960
 30
0.0
 10
7.376394
 20
64.349960
 30
0.0
 10
7.376394
 20
72.349967
 30
0.0
 10
4.376392
 20
72.349967
 30
0.0
 10
4.376392
 20
78.349972
 30
0.0
 10
7.376394
 20
78.349972
 30
0.0
 10
7.376394
 20
84.349977
 30
0.0
 10
4.376392
 20
84.349977
 30
0.0
 10
4.376392
 20
90.349982
 30
0.0
 10
7.376394
 20
90.349982
 30
0.0
 10
7.376394
 20
98.349988
 30
0.0
 10
4.376392
 20
98.349988
 30
0.0
 10
4.376392
 20
106.349995
 30
0.0
 10
12.376398
 20
106.349995
 30
0.0
 10
12.376398
 20
103.349992
 30
0.0
  0
LWPOLYLINE
  5
102
100
AcDbEntity
  8
0
 62
7
100
AcDbPolyline
 90
53
 70
1
 10
62.376439
 20
103.349992
 30
0.0
 10
70.376446
 20
103.349992
 30
0.0
 10
70.376446
 20
106.349995
 30
0.0
 10
76.376451
 20
106.349995
 30
0.0
 10
76.376451
 20
103.349992
 30
0.0
 10
82.376456
 20
103.349992
 30
0.0
 10
82.376456
 20
106.349995
 30
0.0
 10
88.376461
 20
106.349995
 30
0.0
 10
88.376461
 20
103.349992
 30
0.0
 10
96.376467
 20
103.349992
 30
0.0
 10
96.376467
 20
106.349995
 30
0.0
 10
101.376472
 20
106.349995
 30
0.0
 10
101.376472
 20
98.349988
 30
0.0
 10
104.376474
 20
98.349988
 30
0.0
 10
104.376474
 20
90.349982
 30
0.0
 10
101.376472
 20
90.349982
 30
0.0
 10
101.376472
 20
84.349977
 30
0.0
 10
104.376474
 20
84.349977
 30
0.0
 10
104.376474
 20
78.349972
 30
0.0
 10
101.376472
 20
78.349972
 30
0.0
 10
101.376472
 20
72.349967
 30
0.0
 10
104.376474
 20
72.349967
 30
0.0
 10
104.376474
 20
64.349960
 30
0.0
 10
101.376472
 20
64.349960
 30
0.0
 10
101.376472
 20
56.349954
 30
0.0
 10
96.376467
 20
56.349954
 30
0.0
 10
96.376467
 20
59.349956
 30
0.0
 10
88.376461
 20
59.349956
 30
0.0
 10
88.376461
 20
56.349954
 30
0.0
 10
82.376456
 20
56.349954
 30
0.0
 10
82.376456
 20
59.349956
 30
0.0
 10
76.376451
 20
59.349956
 30
0.0
 10
76.376451
 20
56.349954
 30
0.0
 10
70.376446
 20
56.349954
 30
0.0
 10
70.376446
 20
59.349956
 30
0.0
 10
62.376439
 20
59.349956
 30
0.0
 10
62.376439
 20
56.349954
 30
0.0
 10
57.376435
 20
56.349954
 30
0.0
 10
57.376435
 20
64.349960
 30
0.0
 10
54.376433
 20
64.349960
 30
0.0
 10
54.376433
 20
72.349967
 30
0.0
 10
57.376435
 20
72.349967
 30
0.0
 10
57.376435
 20
78.349972
 30
0.0
 10
54.376433
 20
78.349972
 30
0.0
 10
54.376433
 20
84.349977
 30
0.0
 10
57.376435
 20
84.349977
 30
0.0
 10
57.376435
 20
90.349982
 30
0.0
 10
54.376433
 20
90.349982
 30
0.0
 10
54.376433
 20
98.349988
 30
0.0
 10
57.376435
 20
98.349988
 30
0.0
 10
57.376435
 20
106.349995
 30
0.0
 10
62.376439
 20
106.349995
 30
0.0
 10
62.376439
 20
103.349992
 30
0.0
  0
LWPOLYLINE
  5
103
100
AcDbEntity
  8
0
 62
7
100
AcDbPolyline
 90
53
 70
1
 10
62.376439
 20
53.349951
 30
0.0
 10
70.376446
 20
53.349951
 30
0.0
 10
70.376446
 20
56.349953
 30
0.0
 10
76.376451
 20
56.349953
 30
0.0
 10
76.376451
 20
53.349951
 30
0.0
 10
82.376456
 20
53.349951
 30
0.0
 10
82.376456
 20
56.349953
 30
0.0
 10
88.376461
 20
56.349953
 30
0.0
 10
88.376461
 20
53.349951
 30
0.0
 10
96.376467
 20
53.349951
 30
0.0
 10
96.376467
 20
56.349953
 30
0.0
 10
101.376472
 20
56.349953
 30
0.0
 10
101.376472
 20
48.349947
 30
0.0
 10
104.376474
 20
48.349947
 30
0.0
 10
104.376474
 20
40.349940
 30
0.0
 10
101.376472
 20
40.349940
 30
0.0
 10
101.376472
 20
34.349935
 30
0.0
 10
104.376474
 20
34.349935
 30
0.0
 10
104.376474
 20
28.349930
 30
0.0
 10
101.376472
 20
28.349930
 30
0.0
 10
101.376472
 20
22.349925
 30
0.0
 10
104.376474
 20
22.349925
 30
0.0
 10
104.376474
 20
14.349919
 30
0.0
 10
101.376472
 20
14.349919
 30
0.0
 10
101.376472
 20
6.349912
 30
0.0
 10
96.376467
 20
6.349912
 30
0.0
 10
96.376467
 20
9.349915
 30
0.0
 10
88.376461
 20
9.349915
 30
0.0
 10
88.376461
 20
6.349912
 30
0.0
 10
82.376456
 20
6.349912
 30
0.0
 10
82.376456
 20
9.349915
 30
0.0
 10
76.376451
 20
9.349915
 30
0.0
 10
76.376451
 20
6.349912
 30
0.0
 10
70.376446
 20
6.349912
 30
0.0
 10
70.376446
 20
9.349915
 30
0.0
 10
62.376439
 20
9.349915
 30
0.0
 10
62.376439
 20
6.349912
 30
0.0
 10
57.376435
 20
6.349912
 30
0.0
 10
57.376435
 20
14.349919
 30
0.0
 10
54.376433
 20
14.349919
 30
0.0
 10
54.376433
 20
22.349925
 30
0.0
 10
57.376435
 20
22.349925
 30
0.0
 10
57.376435
 20
28.349930
 30
0.0
 10
54.376433
 20
28.349930
 30
0.0
 10
54.376433
 20
34.349935
 30
0.0
 10
57.376435
 20
34.349935
 30
0.0
 10
57.376435
 20
40.349940
 30
0.0
 10
54.376433
 20
40.349940
 30
0.0
 10
54.376433
 20
48.349947
 30
0.0
 10
57.376435
 20
48.349947
 30
0.0
 10
57.376435
 20
56.349953
 30
0.0
 10
62.376439
 20
56.349953
 30
0.0
 10
62.376439
 20
53.349951
 30
0.0
  0
LWPOLYLINE
  5
104
100
AcDbEntity
  8
0
 62
7
100
AcDbPolyline
 90
54
 70
1
 10
-102.590932
 20
56.914745
 30
0.0
 10
-102.590932
 20
53.915033
 30
0.0
 10
-107.590454
 20
53.915033
 30
0.0
 10
-107.590454
 20
48.914958
 30
0.0
 10
-110.590719
 20
48.914958
 30
0.0
 10
-110.590719
 20
40.915172
 30
0.0
 10
-107.590454
 20
40.915172
 30
0.0
 10
-107.590454
 20
34.915192
 30
0.0
 10
-110.590719
 20
34.915192
 30
0.0
 10
-110.590719
 20
28.914663
 30
0.0
 10
-107.590454
 20
28.914663
 30
0.0
 10
-107.590454
 20
22.914686
 30
0.0
 10
-110.590719
 20
22.914686
 30
0.0
 10
-110.590719
 20
14.914897
 30
0.0
 10
-107.590454
 20
14.914897
 30
0.0
 10
-107.590454
 20
9.914825
 30
0.0
 10
-102.590932
 20
9.914825
 30
0.0
 10
-102.590932
 20
6.915110
 30
0.0
 10
-94.590593
 20
6.915110
 30
0.0
 10
-94.590593
 20
9.914825
 30
0.0
 10
-88.590616
 20
9.914825
 30
0.0
 10
-88.590616
 20
6.915110
 30
0.0
 10
-82.590637
 20
6.915110
 30
0.0
 10
-82.590637
 20
9.914825
 30
0.0
 10
-76.590657
 20
9.914825
 30
0.0
 10
-76.590657
 20
6.915110
 30
0.0
 10
-68.590871
 20
6.915110
 30
0.0
 10
-68.590871
 20
9.914825
 30
0.0
 10
-63.590796
 20
9.914825
 30
0.0
 10
-63.590796
 20
14.914897
 30
0.0
 10
-60.590531
 20
14.914897
 30
0.0
 10
-60.590531
 20
22.914686
 30
0.0
 10
-63.590796
 20
22.914686
 30
0.0
 10
-63.590796
 20
28.914663
 30
0.0
 10
-60.590531
 20
28.914663
 30
0.0
 10
-60.590531
 20
34.915192
 30
0.0
 10
-63.590796
 20
34.915192
 30
0.0
 10
-63.590796
 20
40.915172
 30
0.0
 10
-60.590531
 20
40.915172
 30
0.0
 10
-60.590531
 20
48.914958
 30
0.0
 10
-63.590796
 20
48.914958
 30
0.0
 10
-63.590796
 20
53.915033
 30
0.0
 10
-68.590871
 20
53.915033
 30
0.0
 10
-68.590871
 20
56.914745
 30
0.0
 10
-76.590657
 20
56.914745
 30
0.0
 10
-76.590657
 20
53.915033
 30
0.0
 10
-82.590637
 20
53.915033
 30
0.0
 10
-82.590637
 20
56.914745
 30
0.0
 10
-88.590616
 20
56.914745
 30
0.0
 10
-88.590616
 20
53.915033
 30
0.0
 10
-94.590593
 20
53.915033
 30
0.0
 10
-94.590593
 20
56.914745
 30
0.0
 10
-102.590932
 20
56.914745
 30
0.0
 10
-102.590932
 20
56.914745
 30
0.0
  0
LWPOLYLINE
  5
105
100
AcDbEntity
  8
0
 62
7
100
AcDbPolyline
 90
53
 70
1
 10
12.376398
 20
56.349953
 30
0.0
 10
20.376405
 20
56.349953
 30
0.0
 10
20.376405
 20
53.349951
 30
0.0
 10
26.376410
 20
53.349951
 30
0.0
 10
26.376410
 20
56.349953
 30
0.0
 10
32.376415
 20
56.349953
 30
0.0
 10
32.376415
 20
53.349951
 30
0.0
 10
38.376420
 20
53.349951
 30
0.0
 10
38.376420
 20
56.349953
 30
0.0
 10
46.376426
 20
56.349953
 30
0.0
 10
46.376426
 20
53.349951
 30
0.0
 10
51.376430
 20
53.349951
 30
0.0
 10
51.376430
 20
48.349947
 30
0.0
 10
54.376433
 20
48.349947
 30
0.0
 10
54.376433
 20
40.349940
 30
0.0
 10
51.376430
 20
40.349940
 30
0.0
 10
51.376430
 20
34.349935
 30
0.0
 10
54.376433
 20
34.349935
 30
0.0
 10
54.376433
 20
28.349930
 30
0.0
 10
51.376430
 20
28.349930
 30
0.0
 10
51.376430
 20
22.349925
 30
0.0
 10
54.376433
 20
22.349925
 30
0.0
 10
54.376433
 20
14.349919
 30
0.0
 10
51.376430
 20
14.349919
 30
0.0
 10
51.376430
 20
9.349915
 30
0.0
 10
46.376426
 20
9.349915
 30
0.0
 10
46.376426
 20
6.349912
 30
0.0
 10
38.376420
 20
6.349912
 30
0.0
 10
38.376420
 20
9.349915
 30
0.0
 10
32.376415
 20
9.349915
 30
0.0
 10
32.376415
 20
6.349912
 30
0.0
 10
26.376410
 20
6.349912
 30
0.0
 10
26.376410
 20
9.349915
 30
0.0
 10
20.376405
 20
9.349915
 30
0.0
 10
20.376405
 20
6.349912
 30
0.0
 10
12.376398
 20
6.349912
 30
0.0
 10
12.376398
 20
9.349915
 30
0.0
 10
7.376394
 20
9.349915
 30
0.0
 10
7.376394
 20
14.349919
 30
0.0
 10
4.376392
 20
14.349919
 30
0.0
 10
4.376392
 20
22.349925
 30
0.0
 10
7.376394
 20
22.349925
 30
0.0
 10
7.376394
 20
28.349930
 30
0.0
 10
4.376392
 20
28.349930
 30
0.0
 10
4.376392
 20
34.349935
 30
0.0
 10
7.376394
 20
34.349935
 30
0.0
 10
7.376394
 20
40.349940
 30
0.0
 10
4.376392
 20
40.349940
 30
0.0
 10
4.376392
 20
48.349947
 30
0.0
 10
7.376394
 20
48.349947
 30
0.0
 10
7.376394
 20
53.349951
 30
0.0
 10
12.376398
 20
53.349951
 30
0.0
 10
12.376398
 20
56.349953
 30
0.0
  0
ENDSEC
  0
SECTION
  2
OBJECTS
  0
DICTIONARY
  5
C
330
0
100
AcDbDictionary
  3
ACAD_GROUP
350
D
  3
ACAD_MLINESTYLE
350
17
  0
DICTIONARY
  5
D
330
C
100
AcDbDictionary
  0
DICTIONARY
  5
1A
330
C
100
AcDbDictionary
  0
DICTIONARY
  5
17
330
C
100
AcDbDictionary
  3
STANDARD
350
18
  0
DICTIONARY
  5
19
330
C
100
AcDbDictionary
  0
ENDSEC
  0
EOF
