  0
SECTION
  2
HEADER
  9
$ACADVER
  1
AC1014
  9
$HANDSEED
  5
FFFF
  9
$MEASUREMENT
 70
     1
  0
ENDSEC
  0
SECTION
  2
TABLES
  0
TABLE
  2
VPORT
  5
8
330
0
100
AcDbSymbolTable
 70
     4
  0
VPORT
  5
2E
330
8
100
AcDbSymbolTableRecord
100
AcDbViewportTableRecord
  2
*ACTIVE
 70
     0
 10
0.0
 20
0.0
 11
1.0
 21
1.0
 12
210.0
 22
148.5
 13
0.0
 23
0.0
 14
10.0
 24
10.0
 15
10.0
 25
10.0
 16
0.0
 26
0.0
 36
1.0
 17
0.0
 27
0.0
 37
0.0
 40
341.0
 41
1.24
 42
50.0
 43
0.0
 44
0.0
 50
0.0
 51
0.0
 71
     0
 72
   100
 73
     1
 74
     3
 75
     0
 76
     0
 77
     0
 78
     0
  0
ENDTAB
  0
TABLE
  2
LTYPE
  5
5
330
0
100
AcDbSymbolTable
 70
     1
  0
LTYPE
  5
14
330
5
100
AcDbSymbolTableRecord
100
AcDbLinetypeTableRecord
  2
BYBLOCK
 70
     0
  3

 72
    65
 73
     0
 40
0.0
  0
LTYPE
  5
15
330
5
100
AcDbSymbolTableRecord
100
AcDbLinetypeTableRecord
  2
BYLAYER
 70
     0
  3

 72
    65
 73
     0
 40
0.0
  0
LTYPE
  5
16
330
5
100
AcDbSymbolTableRecord
100
AcDbLinetypeTableRecord
  2
CONTINUOUS
 70
     0
  3
Solid line
 72
    65
 73
     0
 40
0.0
  0
ENDTAB
  0
TABLE
  2
LAYER
  5
2
100
AcDbSymbolTable
 70
2
  0
LAYER
  5
50
100
AcDbSymbolTableRecord
100
AcDbLayerTableRecord
  2
0
 70
0
  6
CONTINUOUS
  0
LAYER
  5
51
100
AcDbSymbolTableRecord
100
AcDbLayerTableRecord
  2
Layer_1
 70
0
  6
CONTINUOUS
  0
ENDTAB
  0
TABLE
  2
STYLE
  5
3
330
0
100
AcDbSymbolTable
 70
     1
  0
STYLE
  5
11
330
3
100
AcDbSymbolTableRecord
100
AcDbTextStyleTableRecord
  2
STANDARD
 70
     0
 40
0.0
 41
1.0
 50
0.0
 71
     0
 42
2.5
  3
txt
  4

  0
ENDTAB
  0
TABLE
  2
VIEW
  5
6
330
0
100
AcDbSymbolTable
 70
     0
  0
ENDTAB
  0
TABLE
  2
UCS
  5
7
330
0
100
AcDbSymbolTable
 70
     0
  0
ENDTAB
  0
TABLE
  2
APPID
  5
9
330
0
100
AcDbSymbolTable
 70
     2
  0
APPID
  5
12
330
9
100
AcDbSymbolTableRecord
100
AcDbRegAppTableRecord
  2
ACAD
 70
     0
  0
ENDTAB
  0
TABLE
  2
DIMSTYLE
  5
A
330
0
100
AcDbSymbolTable
 70
     1
  0
DIMSTYLE
105
27
330
A
100
AcDbSymbolTableRecord
100
AcDbDimStyleTableRecord
  2
ISO-25
 70
     0
  3

  4

  5

  6

  7

 40
1.0
 41
2.5
 42
0.625
 43
3.75
 44
1.25
 45
0.0
 46
0.0
 47
0.0
 48
0.0
140
2.5
141
2.5
142
0.0
143
0.03937007874016
144
1.0
145
0.0
146
1.0
147
0.625
 71
     0
 72
     0
 73
     0
 74
     0
 75
     0
 76
     0
 77
     1
 78
     8
170
     0
171
     3
172
     1
173
     0
174
     0
175
     0
176
     0
177
     0
178
     0
270
     2
271
     2
272
     2
273
     2
274
     3
340
11
275
     0
280
     0
281
     0
282
     0
283
     0
284
     8
285
     0
286
     0
287
     3
288
     0
  0
ENDTAB
  0
TABLE
  2
BLOCK_RECORD
  5
1
330
0
100
AcDbSymbolTable
 70
     1
  0
BLOCK_RECORD
  5
1F
330
1
100
AcDbSymbolTableRecord
100
AcDbBlockTableRecord
  2
*MODEL_SPACE
  0
BLOCK_RECORD
  5
1B
330
1
100
AcDbSymbolTableRecord
100
AcDbBlockTableRecord
  2
*PAPER_SPACE
  0
ENDTAB
  0
ENDSEC
  0
SECTION
  2
BLOCKS
  0
BLOCK
  5
20
330
1F
100
AcDbEntity
  8
0
100
AcDbBlockBegin
  2
*MODEL_SPACE
 70
     0
 10
0.0
 20
0.0
 30
0.0
  3
*MODEL_SPACE
  1

  0
ENDBLK
  5
21
330
1F
100
AcDbEntity
  8
0
100
AcDbBlockEnd
  0
BLOCK
  5
1C
330
1B
100
AcDbEntity
 67
     1
  8
0
100
AcDbBlockBegin
  2
*PAPER_SPACE
  1

  0
ENDBLK
  5
1D
330
1B
100
AcDbEntity
 67
     1
  8
0
100
AcDbBlockEnd
  0
ENDSEC
  0
SECTION
  2
ENTITIES
  0
LWPOLYLINE
  5
100
100
AcDbEntity
  8
Layer_1
 62
1
100
AcDbPolyline
 90
230
 70
0
 10
129.076690
 20
50.508508
 30
0.0
 10
129.001464
 20
50.483814
 30
0.0
 10
128.910941
 20
50.399697
 30
0.0
 10
128.814342
 20
50.264462
 30
0.0
 10
128.746800
 20
50.107222
 30
0.0
 10
128.695289
 20
49.877208
 30
0.0
 10
128.646705
 20
49.565118
 30
0.0
 10
128.576764
 20
48.832904
 30
0.0
 10
128.556388
 20
48.599309
 30
0.0
 10
128.533641
 20
48.503813
 30
0.0
 10
128.523057
 20
48.509712
 30
0.0
 10
128.513885
 20
48.552344
 30
0.0
 10
128.502455
 20
48.750789
 30
0.0
 10
128.482558
 20
49.050119
 30
0.0
 10
128.440747
 20
49.398209
 30
0.0
 10
128.389132
 20
49.709622
 30
0.0
 10
128.339816
 20
49.898919
 30
0.0
 10
128.270333
 20
50.013708
 30
0.0
 10
128.170257
 20
50.127565
 30
0.0
 10
128.056592
 20
50.223774
 30
0.0
 10
127.946350
 20
50.285632
 30
0.0
 10
127.857400
 20
50.302960
 30
0.0
 10
127.764167
 20
50.289639
 30
0.0
 10
127.667461
 20
50.246360
 30
0.0
 10
127.568091
 20
50.173826
 30
0.0
 10
127.466866
 20
50.072734
 30
0.0
 10
127.364597
 20
49.943793
 30
0.0
 10
127.160167
 20
49.605149
 30
0.0
 10
126.975814
 20
49.194956
 30
0.0
 10
126.849005
 20
48.779852
 30
0.0
 10
126.775447
 20
48.341448
 30
0.0
 10
126.750837
 20
47.861351
 30
0.0
 10
126.770141
 20
47.453032
 30
0.0
 10
126.869100
 20
46.993902
 30
0.0
 10
127.004338
 20
46.515196
 30
0.0
 10
127.152434
 20
46.096500
 30
0.0
 10
127.312149
 20
45.740945
 30
0.0
 10
127.482244
 20
45.451659
 30
0.0
 10
127.576270
 20
45.314428
 30
0.0
 10
127.410735
 20
45.195531
 30
0.0
 10
127.313755
 20
45.117736
 30
0.0
 10
127.228501
 20
45.026866
 30
0.0
 10
127.031417
 20
44.730017
 30
0.0
 10
127.004267
 20
44.706028
 30
0.0
 10
126.956422
 20
44.720534
 30
0.0
 10
126.718582
 20
44.911412
 30
0.0
 10
126.430656
 20
45.143689
 30
0.0
 10
126.125057
 20
45.358661
 30
0.0
 10
125.803719
 20
45.555378
 30
0.0
 10
125.468580
 20
45.732890
 30
0.0
 10
125.121568
 20
45.890252
 30
0.0
 10
124.764619
 20
46.026512
 30
0.0
 10
124.399664
 20
46.140724
 30
0.0
 10
124.028640
 20
46.231938
 30
0.0
 10
123.638691
 20
46.291030
 30
0.0
 10
123.197499
 20
46.320294
 30
0.0
 10
122.762168
 20
46.318036
 30
0.0
 10
122.389801
 20
46.282386
 30
0.0
 10
122.068584
 20
46.214362
 30
0.0
 10
121.724426
 20
46.113651
 30
0.0
 10
121.371456
 20
45.984898
 30
0.0
 10
121.023817
 20
45.832741
 30
0.0
 10
120.597309
 20
45.604200
 30
0.0
 10
120.201619
 20
45.341158
 30
0.0
 10
119.839133
 20
45.046224
 30
0.0
 10
119.512227
 20
44.722007
 30
0.0
 10
119.223282
 20
44.371117
 30
0.0
 10
118.974678
 20
43.996165
 30
0.0
 10
118.768794
 20
43.599756
 30
0.0
 10
118.608015
 20
43.184503
 30
0.0
 10
118.506821
 20
42.838501
 30
0.0
 10
118.444848
 20
42.523146
 30
0.0
 10
118.413694
 20
42.178934
 30
0.0
 10
118.404945
 20
41.746366
 30
0.0
 10
118.404380
 20
41.131505
 30
0.0
 10
118.272724
 20
41.092694
 30
0.0
 10
118.120962
 20
41.037240
 30
0.0
 10
117.968257
 20
40.961495
 30
0.0
 10
117.675821
 20
40.762023
 30
0.0
 10
117.427019
 20
40.520057
 30
0.0
 10
117.328860
 20
40.391194
 30
0.0
 10
117.253461
 20
40.261375
 30
0.0
 10
117.189329
 20
40.099676
 30
0.0
 10
117.144224
 20
39.921647
 30
0.0
 10
117.118090
 20
39.732434
 30
0.0
 10
117.110866
 20
39.537181
 30
0.0
 10
117.122493
 20
39.341037
 30
0.0
 10
117.152908
 20
39.149143
 30
0.0
 10
117.202057
 20
38.966644
 30
0.0
 10
117.269884
 20
38.798685
 30
0.0
 10
117.408057
 20
38.589366
 30
0.0
 10
117.613317
 20
38.365036
 30
0.0
 10
117.847669
 20
38.162593
 30
0.0
 10
118.073114
 20
38.018936
 30
0.0
 10
118.264562
 20
37.939496
 30
0.0
 10
118.449968
 20
37.890793
 30
0.0
 10
118.627615
 20
37.872533
 30
0.0
 10
118.795797
 20
37.884443
 30
0.0
 10
118.952797
 20
37.926254
 30
0.0
 10
119.096909
 20
37.997670
 30
0.0
 10
119.226415
 20
38.098410
 30
0.0
 10
119.339606
 20
38.228189
 30
0.0
 10
119.430413
 20
38.353519
 30
0.0
 10
119.566679
 20
38.195384
 30
0.0
 10
119.704398
 20
38.064086
 30
0.0
 10
119.844143
 20
37.970560
 30
0.0
 10
119.961513
 20
37.930784
 30
0.0
 10
120.127587
 20
37.895402
 30
0.0
 10
120.528261
 20
37.851341
 30
0.0
 10
120.570346
 20
37.811550
 30
0.0
 10
120.598915
 20
37.697598
 30
0.0
 10
120.628664
 20
37.563113
 30
0.0
 10
120.676608
 20
37.445141
 30
0.0
 10
120.742225
 20
37.344114
 30
0.0
 10
120.824989
 20
37.260458
 30
0.0
 10
120.924385
 20
37.194604
 30
0.0
 10
121.039887
 20
37.146982
 30
0.0
 10
121.170974
 20
37.118020
 30
0.0
 10
121.317125
 20
37.108143
 30
0.0
 10
122.041770
 20
37.193806
 30
0.0
 10
122.378848
 20
37.240344
 30
0.0
 10
122.652491
 20
37.263938
 30
0.0
 10
123.410650
 20
37.262527
 30
0.0
 10
124.161155
 20
37.230698
 30
0.0
 10
124.810407
 20
37.161426
 30
0.0
 10
125.518539
 20
37.064615
 30
0.0
 10
125.803338
 20
37.046723
 30
0.0
 10
126.085134
 20
37.061680
 30
0.0
 10
126.331159
 20
37.105817
 30
0.0
 10
126.508640
 20
37.175455
 30
0.0
 10
126.603292
 20
37.254105
 30
0.0
 10
126.666433
 20
37.350995
 30
0.0
 10
126.698623
 20
37.461087
 30
0.0
 10
126.700317
 20
37.579344
 30
0.0
 10
126.672264
 20
37.700725
 30
0.0
 10
126.614908
 20
37.820195
 30
0.0
 10
126.528813
 20
37.932720
 30
0.0
 10
126.414524
 20
38.033256
 30
0.0
 10
126.285475
 20
38.105070
 30
0.0
 10
126.162362
 20
38.128890
 30
0.0
 10
126.075866
 20
38.137610
 30
0.0
 10
126.013506
 20
38.163546
 30
0.0
 10
125.975745
 20
38.206416
 30
0.0
 10
125.963045
 20
38.265900
 30
0.0
 10
125.973657
 20
38.297455
 30
0.0
 10
126.004628
 20
38.324746
 30
0.0
 10
126.122503
 20
38.365510
 30
0.0
 10
126.306380
 20
38.386084
 30
0.0
 10
126.545958
 20
38.384391
 30
0.0
 10
126.825894
 20
38.352091
 30
0.0
 10
127.041636
 20
38.279410
 30
0.0
 10
127.219115
 20
38.153240
 30
0.0
 10
127.384246
 20
37.960476
 30
0.0
 10
127.521394
 20
37.792190
 30
0.0
 10
127.675372
 20
37.666231
 30
0.0
 10
127.897405
 20
37.549518
 30
0.0
 10
128.238724
 20
37.408977
 30
0.0
 10
128.866042
 20
37.181718
 30
0.0
 10
129.044804
 20
37.142678
 30
0.0
 10
129.203416
 20
37.133449
 30
0.0
 10
129.356728
 20
37.142311
 30
0.0
 10
129.482997
 20
37.168643
 30
0.0
 10
129.587755
 20
37.214148
 30
0.0
 10
129.676542
 20
37.280547
 30
0.0
 10
129.713426
 20
37.323029
 30
0.0
 10
129.736088
 20
37.373045
 30
0.0
 10
129.750622
 20
37.536892
 30
0.0
 10
129.728158
 20
37.709917
 30
0.0
 10
129.658686
 20
37.855436
 30
0.0
 10
129.539035
 20
37.977920
 30
0.0
 10
129.366044
 20
38.081849
 30
0.0
 10
129.166417
 20
38.178338
 30
0.0
 10
129.107342
 20
38.460628
 30
0.0
 10
129.041522
 20
38.746778
 30
0.0
 10
128.955315
 20
39.044932
 30
0.0
 10
128.866223
 20
39.359920
 30
0.0
 10
129.121879
 20
39.555004
 30
0.0
 10
129.342343
 20
39.756620
 30
0.0
 10
129.529103
 20
39.967220
 30
0.0
 10
129.683648
 20
40.189247
 30
0.0
 10
129.807462
 20
40.425143
 30
0.0
 10
129.902037
 20
40.677359
 30
0.0
 10
129.968862
 20
40.948335
 30
0.0
 10
130.009423
 20
41.240519
 30
0.0
 10
130.030533
 20
41.470169
 30
0.0
 10
130.178807
 20
41.493650
 30
0.0
 10
130.424067
 20
41.585931
 30
0.0
 10
130.838987
 20
41.779104
 30
0.0
 10
131.273733
 20
42.000123
 30
0.0
 10
131.578457
 20
42.175945
 30
0.0
 10
131.682606
 20
42.259203
 30
0.0
 10
131.775987
 20
42.359260
 30
0.0
 10
131.857626
 20
42.474039
 30
0.0
 10
131.926556
 20
42.601466
 30
0.0
 10
131.981804
 20
42.739467
 30
0.0
 10
132.022401
 20
42.885968
 30
0.0
 10
132.047378
 20
43.038896
 30
0.0
 10
132.055760
 20
43.196173
 30
0.0
 10
132.038206
 20
43.388614
 30
0.0
 10
131.983144
 20
43.566502
 30
0.0
 10
131.886127
 20
43.740145
 30
0.0
 10
131.742705
 20
43.919853
 30
0.0
 10
131.610142
 20
44.094317
 30
0.0
 10
131.577698
 20
44.173376
 30
0.0
 10
131.557773
 20
44.265716
 30
0.0
 10
131.521338
 20
44.416493
 30
0.0
 10
131.459489
 20
44.575263
 30
0.0
 10
131.375333
 20
44.737591
 30
0.0
 10
131.271986
 20
44.899042
 30
0.0
 10
131.020165
 20
45.201553
 30
0.0
 10
130.877914
 20
45.333741
 30
0.0
 10
130.728920
 20
45.447298
 30
0.0
 10
130.466756
 20
45.600263
 30
0.0
 10
130.115668
 20
45.778475
 30
0.0
 10
129.694006
 20
45.981105
 30
0.0
 10
129.847639
 20
46.809103
 30
0.0
 10
129.980676
 20
47.507368
 30
0.0
 10
130.051711
 20
47.954995
 30
0.0
 10
130.075841
 20
48.273421
 30
0.0
 10
130.068165
 20
48.584100
 30
0.0
 10
130.035853
 20
48.993960
 30
0.0
 10
129.984260
 20
49.315380
 30
0.0
 10
129.907157
 20
49.576554
 30
0.0
 10
129.798315
 20
49.805670
 30
0.0
 10
129.613496
 20
50.104185
 30
0.0
 10
129.447547
 20
50.314455
 30
0.0
 10
129.292841
 20
50.444551
 30
0.0
 10
129.141748
 20
50.502545
 30
0.0
 10
129.076563
 20
50.508556
 30
0.0
 10
129.076563
 20
50.508556
 30
0.0
  0
ENDSEC
  0
SECTION
  2
OBJECTS
  0
DICTIONARY
  5
C
330
0
100
AcDbDictionary
  3
ACAD_GROUP
350
D
  3
ACAD_MLINESTYLE
350
17
  0
DICTIONARY
  5
D
330
C
100
AcDbDictionary
  0
DICTIONARY
  5
1A
330
C
100
AcDbDictionary
  0
DICTIONARY
  5
17
330
C
100
AcDbDictionary
  3
STANDARD
350
18
  0
DICTIONARY
  5
19
330
C
100
AcDbDictionary
  0
ENDSEC
  0
EOF
