<?xml version="1.0" encoding="UTF-8" standalone="no"?>
<!-- Created with Inkscape (http://www.inkscape.org/) -->

<svg
   xmlns:dc="http://purl.org/dc/elements/1.1/"
   xmlns:cc="http://creativecommons.org/ns#"
   xmlns:rdf="http://www.w3.org/1999/02/22-rdf-syntax-ns#"
   xmlns:svg="http://www.w3.org/2000/svg"
   xmlns="http://www.w3.org/2000/svg"
   xmlns:sodipodi="http://sodipodi.sourceforge.net/DTD/sodipodi-0.dtd"
   xmlns:inkscape="http://www.inkscape.org/namespaces/inkscape"
   width="210mm"
   height="297mm"
   viewBox="0 0 744.09448819 1052.3622047"
   id="svg2"
   version="1.1"
   inkscape:version="0.91 r13725"
   sodipodi:docname="bunny.svg">
  <sodipodi:namedview
     id="base"
     pagecolor="#ffffff"
     bordercolor="#666666"
     borderopacity="1.0"
     inkscape:pageopacity="0.0"
     inkscape:pageshadow="2"
     inkscape:zoom="3.959798"
     inkscape:cx="498.30191"
     inkscape:cy="166.83624"
     inkscape:document-units="px"
     inkscape:current-layer="layer1"
     showgrid="false"
     inkscape:window-width="1360"
     inkscape:window-height="746"
     inkscape:window-x="1432"
     inkscape:window-y="-8"
     inkscape:window-maximized="1" />
  <defs
     id="defs4" />
  <metadata
     id="metadata7">
    <rdf:RDF>
      <cc:Work
         rdf:about="">
        <dc:format>image/svg+xml</dc:format>
        <dc:type
           rdf:resource="http://purl.org/dc/dcmitype/StillImage" />
        <dc:title></dc:title>
      </cc:Work>
    </rdf:RDF>
  </metadata>
  <g
     id="layer1"
     inkscape:groupmode="layer"
     inkscape:label="Layer 1">
    <path
       id="path4153"
       d="m 457.35835,873.39505 -0.26655,0.0875 -0.32075,0.29805 -0.34228,0.47918 -0.23932,0.55715 -0.18252,0.81501 -0.17215,1.10583 -0.24782,2.59446 -0.0722,0.8277 -0.0806,0.33837 -0.0375,-0.0209 -0.0325,-0.15106 -0.0405,-0.70315 -0.0705,-1.06062 -0.14815,-1.23339 -0.18289,-1.10343 -0.17474,-0.67074 -0.2462,-0.40673 -0.3546,-0.40343 -0.40275,-0.3409 -0.39062,-0.21918 -0.31518,-0.0614 -0.33035,0.0472 -0.34266,0.15335 -0.3521,0.25701 -0.35867,0.3582 -0.36237,0.45688 -0.72436,1.19992 -0.65322,1.45344 -0.44932,1.47084 -0.26064,1.5534 -0.0872,1.70113 0.0684,1.4468 0.35064,1.62684 0.47919,1.6962 0.52475,1.48357 0.56592,1.25984 0.6027,1.02503 0.33316,0.48625 -0.58654,0.42129 -0.34363,0.27565 -0.30208,0.32198 -0.69833,1.05183 -0.0962,0.085 -0.16953,-0.0514 -0.84274,-0.67634 -1.02021,-0.82303 -1.08283,-0.76171 -1.1386,-0.69703 -1.1875,-0.62898 -1.22957,-0.55758 -1.26478,-0.48281 -1.29315,-0.40469 -1.31465,-0.3232 -1.38171,-0.20938 -1.56328,-0.10369 -1.54251,0.008 -1.31941,0.12632 -1.13817,0.24103 -1.21946,0.35685 -1.25068,0.45621 -1.23179,0.53914 -1.51125,0.80979 -1.40205,0.93204 -1.2844,1.04504 -1.15833,1.1488 -1.02382,1.24331 -0.88088,1.32857 -0.72951,1.4046 -0.56969,1.47137 -0.35856,1.22599 -0.21959,1.1174 -0.11039,1.21965 -0.031,1.53272 -0.002,2.17864 -0.4665,0.13752 -0.53774,0.19649 -0.54108,0.26839 -1.03619,0.70679 -0.88158,0.85736 -0.34781,0.4566 -0.26716,0.45999 -0.22724,0.57295 -0.15982,0.63081 -0.0926,0.67044 -0.0256,0.69184 0.0412,0.695 0.10777,0.67994 0.17415,0.64665 0.24033,0.59513 0.48959,0.74168 0.7273,0.79487 0.83038,0.71732 0.79882,0.50902 0.67836,0.28148 0.65695,0.17257 0.62946,0.0647 0.59592,-0.0422 0.5563,-0.14815 0.51063,-0.25305 0.45888,-0.35695 0.40107,-0.45985 0.32176,-0.44408 0.48283,0.56032 0.48798,0.46523 0.49516,0.33139 0.41588,0.14094 0.58845,0.12537 1.41971,0.15612 0.14912,0.14099 0.10123,0.40377 0.10541,0.47652 0.16988,0.41801 0.2325,0.35797 0.29326,0.29642 0.35219,0.23334 0.40926,0.16874 0.46448,0.10262 0.51786,0.035 2.56764,-0.30353 1.19437,-0.1649 0.9696,-0.0836 2.68639,0.005 2.65927,0.11278 2.3005,0.24545 2.50913,0.34303 1.00913,0.0634 0.99849,-0.053 0.87174,-0.15639 0.62887,-0.24675 0.33538,-0.27868 0.22373,-0.34331 0.11406,-0.39009 0.006,-0.41902 -0.0994,-0.43009 -0.20323,-0.42332 -0.30506,-0.39871 -0.40496,-0.35623 -0.45726,-0.25446 -0.43623,-0.0844 -0.30648,-0.0309 -0.22096,-0.0919 -0.1338,-0.1519 -0.045,-0.21077 0.0376,-0.11181 0.10974,-0.0967 0.41767,-0.14444 0.65153,-0.0729 0.8489,0.006 0.9919,0.11445 0.76444,0.25753 0.62886,0.44706 0.58511,0.68302 0.48596,0.59629 0.54559,0.44631 0.78673,0.41355 1.2094,0.49798 2.22278,0.80525 0.63341,0.13833 0.56201,0.0327 0.54323,-0.0314 0.44741,-0.0933 0.37119,-0.16124 0.3146,-0.23527 0.13069,-0.15053 0.0803,-0.17722 0.0515,-0.58056 -0.0796,-0.61308 -0.24616,-0.51562 -0.42396,-0.434 -0.61296,-0.36825 -0.70734,-0.34189 -0.20932,-1.00024 -0.23322,-1.01392 -0.30546,-1.05645 -0.31568,-1.1161 0.90587,-0.69124 0.78117,-0.71439 0.66175,-0.74622 0.5476,-0.78671 0.43871,-0.83585 0.33511,-0.89368 0.23678,-0.96015 0.14372,-1.0353 0.0748,-0.81372 0.52538,-0.0832 0.86903,-0.32698 1.47019,-0.68447 1.54044,-0.78314 1.07973,-0.62299 0.36903,-0.29501 0.33088,-0.35453 0.28927,-0.4067 0.24424,-0.45151 0.19576,-0.48898 0.14385,-0.5191 0.0885,-0.54187 0.0297,-0.55728 -0.0622,-0.68188 -0.1951,-0.63031 -0.34376,-0.61527 -0.50819,-0.63676 -0.46971,-0.61818 -0.11496,-0.28013 -0.0706,-0.32719 -0.1291,-0.53425 -0.21915,-0.56257 -0.29819,-0.57518 -0.36619,-0.57207 -0.89228,-1.07189 -0.50404,-0.46838 -0.52793,-0.40237 -0.92893,-0.542 -1.24401,-0.63146 -1.49408,-0.71798 0.54437,-2.93385 0.47139,-2.47417 0.2517,-1.58608 0.0855,-1.12828 -0.0272,-1.10083 -0.11449,-1.45226 -0.18281,-1.13889 -0.2732,-0.92542 -0.38566,-0.81183 -0.65487,-1.05773 -0.58801,-0.74505 -0.54817,-0.46097 -0.53537,-0.20549 -0.23097,-0.0213 0,0"
       style="fill:none;stroke:#ff0000;stroke-width:0.19450067"
       inkscape:connector-curvature="0" />
  </g>
</svg>
