  0
SECTION
  2
HEADER
  9
$ACADVER
  1
AC1014
  9
$HANDSEED
  5
FFFF
  9
$MEASUREMENT
 70
     1
  0
ENDSEC
  0
SECTION
  2
TABLES
  0
TABLE
  2
VPORT
  5
8
330
0
100
AcDbSymbolTable
 70
     4
  0
VPORT
  5
2E
330
8
100
AcDbSymbolTableRecord
100
AcDbViewportTableRecord
  2
*ACTIVE
 70
     0
 10
0.0
 20
0.0
 11
1.0
 21
1.0
 12
210.0
 22
148.5
 13
0.0
 23
0.0
 14
10.0
 24
10.0
 15
10.0
 25
10.0
 16
0.0
 26
0.0
 36
1.0
 17
0.0
 27
0.0
 37
0.0
 40
341.0
 41
1.24
 42
50.0
 43
0.0
 44
0.0
 50
0.0
 51
0.0
 71
     0
 72
   100
 73
     1
 74
     3
 75
     0
 76
     0
 77
     0
 78
     0
  0
ENDTAB
  0
TABLE
  2
LTYPE
  5
5
330
0
100
AcDbSymbolTable
 70
     1
  0
LTYPE
  5
14
330
5
100
AcDbSymbolTableRecord
100
AcDbLinetypeTableRecord
  2
BYBLOCK
 70
     0
  3

 72
    65
 73
     0
 40
0.0
  0
LTYPE
  5
15
330
5
100
AcDbSymbolTableRecord
100
AcDbLinetypeTableRecord
  2
BYLAYER
 70
     0
  3

 72
    65
 73
     0
 40
0.0
  0
LTYPE
  5
16
330
5
100
AcDbSymbolTableRecord
100
AcDbLinetypeTableRecord
  2
CONTINUOUS
 70
     0
  3
Solid line
 72
    65
 73
     0
 40
0.0
  0
ENDTAB
  0
TABLE
  2
LAYER
  5
2
100
AcDbSymbolTable
 70
1
  0
LAYER
  5
50
100
AcDbSymbolTableRecord
100
AcDbLayerTableRecord
  2
0
 70
0
  6
CONTINUOUS
  0
ENDTAB
  0
TABLE
  2
STYLE
  5
3
330
0
100
AcDbSymbolTable
 70
     1
  0
STYLE
  5
11
330
3
100
AcDbSymbolTableRecord
100
AcDbTextStyleTableRecord
  2
STANDARD
 70
     0
 40
0.0
 41
1.0
 50
0.0
 71
     0
 42
2.5
  3
txt
  4

  0
ENDTAB
  0
TABLE
  2
VIEW
  5
6
330
0
100
AcDbSymbolTable
 70
     0
  0
ENDTAB
  0
TABLE
  2
UCS
  5
7
330
0
100
AcDbSymbolTable
 70
     0
  0
ENDTAB
  0
TABLE
  2
APPID
  5
9
330
0
100
AcDbSymbolTable
 70
     2
  0
APPID
  5
12
330
9
100
AcDbSymbolTableRecord
100
AcDbRegAppTableRecord
  2
ACAD
 70
     0
  0
ENDTAB
  0
TABLE
  2
DIMSTYLE
  5
A
330
0
100
AcDbSymbolTable
 70
     1
  0
DIMSTYLE
105
27
330
A
100
AcDbSymbolTableRecord
100
AcDbDimStyleTableRecord
  2
ISO-25
 70
     0
  3

  4

  5

  6

  7

 40
1.0
 41
2.5
 42
0.625
 43
3.75
 44
1.25
 45
0.0
 46
0.0
 47
0.0
 48
0.0
140
2.5
141
2.5
142
0.0
143
0.03937007874016
144
1.0
145
0.0
146
1.0
147
0.625
 71
     0
 72
     0
 73
     0
 74
     0
 75
     0
 76
     0
 77
     1
 78
     8
170
     0
171
     3
172
     1
173
     0
174
     0
175
     0
176
     0
177
     0
178
     0
270
     2
271
     2
272
     2
273
     2
274
     3
340
11
275
     0
280
     0
281
     0
282
     0
283
     0
284
     8
285
     0
286
     0
287
     3
288
     0
  0
ENDTAB
  0
TABLE
  2
BLOCK_RECORD
  5
1
330
0
100
AcDbSymbolTable
 70
     1
  0
BLOCK_RECORD
  5
1F
330
1
100
AcDbSymbolTableRecord
100
AcDbBlockTableRecord
  2
*MODEL_SPACE
  0
BLOCK_RECORD
  5
1B
330
1
100
AcDbSymbolTableRecord
100
AcDbBlockTableRecord
  2
*PAPER_SPACE
  0
ENDTAB
  0
ENDSEC
  0
SECTION
  2
BLOCKS
  0
BLOCK
  5
20
330
1F
100
AcDbEntity
  8
0
100
AcDbBlockBegin
  2
*MODEL_SPACE
 70
     0
 10
0.0
 20
0.0
 30
0.0
  3
*MODEL_SPACE
  1

  0
ENDBLK
  5
21
330
1F
100
AcDbEntity
  8
0
100
AcDbBlockEnd
  0
BLOCK
  5
1C
330
1B
100
AcDbEntity
 67
     1
  8
0
100
AcDbBlockBegin
  2
*PAPER_SPACE
  1

  0
ENDBLK
  5
1D
330
1B
100
AcDbEntity
 67
     1
  8
0
100
AcDbBlockEnd
  0
ENDSEC
  0
SECTION
  2
ENTITIES
  0
LWPOLYLINE
  5
100
100
AcDbEntity
  8
0
 62
7
100
AcDbPolyline
 90
133
 70
0
 10
111.036806
 20
108.245451
 30
0.0
 10
109.932721
 20
108.117569
 30
0.0
 10
108.316008
 20
107.825977
 30
0.0
 10
106.724648
 20
107.410912
 30
0.0
 10
105.174079
 20
106.880091
 30
0.0
 10
103.681939
 20
106.241784
 30
0.0
 10
102.264766
 20
105.503707
 30
0.0
 10
100.938542
 20
104.673576
 30
0.0
 10
99.720355
 20
103.759660
 30
0.0
 10
98.626193
 20
102.769128
 30
0.0
 10
97.764092
 20
101.807809
 30
0.0
 10
96.992942
 20
100.695455
 30
0.0
 10
96.208012
 20
99.257886
 30
0.0
 10
95.301813
 20
97.321466
 30
0.0
 10
94.190013
 20
94.961162
 30
0.0
 10
94.063786
 20
95.089046
 30
0.0
 10
93.937006
 20
95.607186
 30
0.0
 10
93.776602
 20
96.277464
 30
0.0
 10
93.548398
 20
96.783480
 30
0.0
 10
93.281610
 20
97.078933
 30
0.0
 10
93.004349
 20
97.117518
 30
0.0
 10
92.710550
 20
96.768048
 30
0.0
 10
92.383130
 20
96.072966
 30
0.0
 10
92.032557
 20
95.132040
 30
0.0
 10
90.719563
 20
97.718894
 30
0.0
 10
89.182222
 20
100.476073
 30
0.0
 10
88.446350
 20
101.548737
 30
0.0
 10
87.693940
 20
102.458794
 30
0.0
 10
86.896883
 20
103.236559
 30
0.0
 10
86.027065
 20
103.914002
 30
0.0
 10
85.056376
 20
104.520890
 30
0.0
 10
83.956150
 20
105.088090
 30
0.0
 10
82.507557
 20
105.712617
 30
0.0
 10
80.920057
 20
106.257218
 30
0.0
 10
79.041515
 20
106.768746
 30
0.0
 10
76.719797
 20
107.293503
 30
0.0
 10
75.109146
 20
107.607144
 30
0.0
 10
74.210113
 20
107.632500
 30
0.0
 10
73.931199
 20
107.516194
 30
0.0
 10
73.715674
 20
107.302873
 30
0.0
 10
73.320453
 20
106.552118
 30
0.0
 10
73.071301
 20
105.820104
 30
0.0
 10
73.002953
 20
105.050607
 30
0.0
 10
73.118706
 20
104.146063
 30
0.0
 10
73.420772
 20
103.009457
 30
0.0
 10
73.787330
 20
101.377860
 30
0.0
 10
73.957657
 20
99.262847
 30
0.0
 10
74.125226
 20
97.372729
 30
0.0
 10
74.468081
 20
95.573562
 30
0.0
 10
74.978508
 20
93.881332
 30
0.0
 10
75.648233
 20
92.312575
 30
0.0
 10
76.468992
 20
90.883272
 30
0.0
 10
77.433068
 20
89.609964
 30
0.0
 10
78.532191
 20
88.508637
 30
0.0
 10
79.758094
 20
87.595273
 30
0.0
 10
80.572791
 20
87.031381
 30
0.0
 10
80.911787
 20
86.699547
 30
0.0
 10
79.979131
 20
85.378284
 30
0.0
 10
78.968202
 20
83.950638
 30
0.0
 10
78.273120
 20
82.583074
 30
0.0
 10
77.892783
 20
81.302047
 30
0.0
 10
77.824432
 20
80.132922
 30
0.0
 10
78.066965
 20
79.101597
 30
0.0
 10
78.303436
 20
78.646294
 30
0.0
 10
78.617078
 20
78.234534
 30
0.0
 10
79.007341
 20
77.870733
 30
0.0
 10
79.474218
 20
77.557644
 30
0.0
 10
80.634527
 20
77.096826
 30
0.0
 10
81.297089
 20
76.995954
 30
0.0
 10
82.056661
 20
77.005327
 30
0.0
 10
82.890100
 20
77.118326
 30
0.0
 10
83.772595
 20
77.328339
 30
0.0
 10
85.588297
 20
78.010743
 30
0.0
 10
86.472449
 20
78.469905
 30
0.0
 10
87.309192
 20
78.997968
 30
0.0
 10
88.851492
 20
80.174812
 30
0.0
 10
90.280795
 20
81.456939
 30
0.0
 10
91.482994
 20
82.734105
 30
0.0
 10
92.345095
 20
83.896618
 30
0.0
 10
92.560069
 20
84.112695
 30
0.0
 10
92.840638
 20
83.808423
 30
0.0
 10
93.143256
 20
83.510769
 30
0.0
 10
93.454691
 20
83.408243
 30
0.0
 10
93.721479
 20
83.502500
 30
0.0
 10
93.890152
 20
83.792991
 30
0.0
 10
94.000396
 20
83.945676
 30
0.0
 10
94.264426
 20
83.821103
 30
0.0
 10
95.683807
 20
82.408339
 30
0.0
 10
97.635658
 20
80.560664
 30
0.0
 10
98.615170
 20
79.796129
 30
0.0
 10
99.601844
 20
79.135772
 30
0.0
 10
100.597341
 20
78.576842
 30
0.0
 10
101.606615
 20
78.118231
 30
0.0
 10
102.631875
 20
77.757184
 30
0.0
 10
103.676981
 20
77.492047
 30
0.0
 10
104.469627
 20
77.382356
 30
0.0
 10
105.160298
 20
77.369128
 30
0.0
 10
106.033976
 20
77.487089
 30
0.0
 10
106.991438
 20
77.799077
 30
0.0
 10
107.409257
 20
78.031687
 30
0.0
 10
107.768099
 20
78.396042
 30
0.0
 10
108.187575
 20
78.956628
 30
0.0
 10
108.561849
 20
79.565720
 30
0.0
 10
108.812652
 20
80.267418
 30
0.0
 10
108.861710
 20
81.107469
 30
0.0
 10
108.799424
 20
82.185645
 30
0.0
 10
108.562400
 20
83.073655
 30
0.0
 10
108.062449
 20
83.988120
 30
0.0
 10
107.210820
 20
85.146224
 30
0.0
 10
105.994841
 20
86.932160
 30
0.0
 10
105.644817
 20
87.611258
 30
0.0
 10
106.251155
 20
87.986085
 30
0.0
 10
106.995296
 20
88.580296
 30
0.0
 10
107.948897
 20
89.512953
 30
0.0
 10
108.900296
 20
90.563567
 30
0.0
 10
109.638372
 20
91.512760
 30
0.0
 10
110.792618
 20
93.444771
 30
0.0
 10
111.224771
 20
94.395617
 30
0.0
 10
111.572034
 20
95.373472
 30
0.0
 10
111.841579
 20
96.404797
 30
0.0
 10
112.043326
 20
97.517148
 30
0.0
 10
112.273182
 20
100.093529
 30
0.0
 10
112.450674
 20
102.521080
 30
0.0
 10
112.714704
 20
103.853369
 30
0.0
 10
112.946214
 20
104.662552
 30
0.0
 10
112.997480
 20
105.421024
 30
0.0
 10
112.865738
 20
106.172882
 30
0.0
 10
112.549892
 20
106.962222
 30
0.0
 10
112.110574
 20
107.770855
 30
0.0
 10
111.910481
 20
108.013390
 30
0.0
 10
111.684483
 20
108.164423
 30
0.0
 10
111.036806
 20
108.245451
 30
0.0
 10
111.036806
 20
108.245451
 30
0.0
  0
LWPOLYLINE
  5
101
100
AcDbEntity
  8
0
 62
7
100
AcDbPolyline
 90
88
 70
0
 10
108.993452
 20
75.842261
 30
0.0
 10
108.579488
 20
75.794306
 30
0.0
 10
107.376736
 20
75.529722
 30
0.0
 10
106.235720
 20
75.090954
 30
0.0
 10
105.206602
 20
74.502809
 30
0.0
 10
104.340090
 20
73.788984
 30
0.0
 10
103.727140
 20
73.011219
 30
0.0
 10
103.093243
 20
71.746181
 30
0.0
 10
102.675972
 20
70.860928
 30
0.0
 10
102.581162
 20
71.102911
 30
0.0
 10
102.435643
 20
71.544437
 30
0.0
 10
102.335322
 20
71.655229
 30
0.0
 10
102.231692
 20
71.669563
 30
0.0
 10
101.998529
 20
71.277647
 30
0.0
 10
101.866787
 20
70.924869
 30
0.0
 10
101.374552
 20
71.895008
 30
0.0
 10
100.798534
 20
72.929090
 30
0.0
 10
100.240152
 20
73.672677
 30
0.0
 10
99.615075
 20
74.218382
 30
0.0
 10
98.838410
 20
74.658801
 30
0.0
 10
97.700152
 20
75.097019
 30
0.0
 10
96.124779
 20
75.485625
 30
0.0
 10
95.520645
 20
75.603035
 30
0.0
 10
95.183853
 20
75.612955
 30
0.0
 10
94.998094
 20
75.488933
 30
0.0
 10
94.850368
 20
75.207261
 30
0.0
 10
94.731307
 20
74.644470
 30
0.0
 10
94.887852
 20
73.878832
 30
0.0
 10
95.025103
 20
73.266983
 30
0.0
 10
95.089046
 20
72.474336
 30
0.0
 10
95.280316
 20
71.090784
 30
0.0
 10
95.722942
 20
69.867639
 30
0.0
 10
96.392119
 20
68.853953
 30
0.0
 10
96.804426
 20
68.441093
 30
0.0
 10
97.264141
 20
68.098789
 30
0.0
 10
97.696844
 20
67.762549
 30
0.0
 10
97.347374
 20
67.267006
 30
0.0
 10
96.968138
 20
66.731775
 30
0.0
 10
96.707412
 20
66.219146
 30
0.0
 10
96.564648
 20
65.738485
 30
0.0
 10
96.539293
 20
65.300270
 30
0.0
 10
96.630242
 20
64.913868
 30
0.0
 10
96.836397
 20
64.588650
 30
0.0
 10
97.157757
 20
64.334540
 30
0.0
 10
97.592665
 20
64.162009
 30
0.0
 10
97.593215
 20
64.162009
 30
0.0
 10
98.126242
 20
64.127834
 30
0.0
 10
98.769509
 20
64.248549
 30
0.0
 10
99.450260
 20
64.504866
 30
0.0
 10
100.095733
 20
64.874730
 30
0.0
 10
101.210291
 20
65.796914
 30
0.0
 10
101.984198
 20
66.711932
 30
0.0
 10
102.064673
 20
66.792960
 30
0.0
 10
102.169956
 20
66.678858
 30
0.0
 10
102.400365
 20
66.528927
 30
0.0
 10
102.563524
 20
66.673346
 30
0.0
 10
102.604866
 20
66.730121
 30
0.0
 10
102.704084
 20
66.683819
 30
0.0
 10
103.236008
 20
66.153549
 30
0.0
 10
103.968573
 20
65.460674
 30
0.0
 10
104.705548
 20
64.926546
 30
0.0
 10
105.457405
 20
64.545103
 30
0.0
 10
106.234066
 20
64.310285
 30
0.0
 10
106.790242
 20
64.263984
 30
0.0
 10
107.117665
 20
64.308081
 30
0.0
 10
107.476507
 20
64.424938
 30
0.0
 10
107.768099
 20
64.648732
 30
0.0
 10
108.065756
 20
65.087500
 30
0.0
 10
108.159463
 20
65.350980
 30
0.0
 10
108.178202
 20
65.665725
 30
0.0
 10
108.065756
 20
66.403251
 30
0.0
 10
107.558637
 20
67.180466
 30
0.0
 10
107.102783
 20
67.850190
 30
0.0
 10
106.971592
 20
68.104853
 30
0.0
 10
107.199244
 20
68.245411
 30
0.0
 10
107.835898
 20
68.817575
 30
0.0
 10
108.469244
 20
69.567778
 30
0.0
 10
108.901950
 20
70.292076
 30
0.0
 10
109.194092
 20
71.015820
 30
0.0
 10
109.371034
 20
71.819493
 30
0.0
 10
109.457575
 20
72.785772
 30
0.0
 10
109.622937
 20
74.195782
 30
0.0
 10
109.728770
 20
74.783377
 30
0.0
 10
109.561201
 20
75.361049
 30
0.0
 10
109.396389
 20
75.664771
 30
0.0
 10
109.236535
 20
75.811944
 30
0.0
 10
108.993452
 20
75.842261
 30
0.0
 10
108.993452
 20
75.842261
 30
0.0
  0
LWPOLYLINE
  5
102
100
AcDbEntity
  8
0
 62
7
100
AcDbPolyline
 90
88
 70
0
 10
92.531407
 20
75.537991
 30
0.0
 10
92.117443
 20
75.490036
 30
0.0
 10
90.914141
 20
75.224900
 30
0.0
 10
89.773125
 20
74.786685
 30
0.0
 10
88.744558
 20
74.198536
 30
0.0
 10
87.877495
 20
73.484161
 30
0.0
 10
87.265095
 20
72.706950
 30
0.0
 10
86.630645
 20
71.441358
 30
0.0
 10
86.213377
 20
70.556659
 30
0.0
 10
86.119118
 20
70.798642
 30
0.0
 10
85.973048
 20
71.239614
 30
0.0
 10
85.873277
 20
71.350409
 30
0.0
 10
85.769097
 20
71.365291
 30
0.0
 10
85.536484
 20
70.973377
 30
0.0
 10
85.404743
 20
70.620599
 30
0.0
 10
84.912508
 20
71.590738
 30
0.0
 10
84.335936
 20
72.624267
 30
0.0
 10
83.777557
 20
73.367855
 30
0.0
 10
83.152480
 20
73.913560
 30
0.0
 10
82.375815
 20
74.353979
 30
0.0
 10
81.237557
 20
74.792747
 30
0.0
 10
79.662184
 20
75.180802
 30
0.0
 10
79.058603
 20
75.298763
 30
0.0
 10
78.721258
 20
75.308133
 30
0.0
 10
78.536049
 20
75.184660
 30
0.0
 10
78.387773
 20
74.902991
 30
0.0
 10
78.268711
 20
74.340201
 30
0.0
 10
78.425257
 20
73.574563
 30
0.0
 10
78.562508
 20
72.962714
 30
0.0
 10
78.626451
 20
72.169514
 30
0.0
 10
78.817721
 20
70.785965
 30
0.0
 10
79.260347
 20
69.563369
 30
0.0
 10
79.930075
 20
68.549684
 30
0.0
 10
80.341831
 20
68.136824
 30
0.0
 10
80.801546
 20
67.794519
 30
0.0
 10
81.234249
 20
67.458277
 30
0.0
 10
80.884779
 20
66.962734
 30
0.0
 10
80.505543
 20
66.427505
 30
0.0
 10
80.244817
 20
65.914874
 30
0.0
 10
80.102052
 20
65.434216
 30
0.0
 10
80.076698
 20
64.995998
 30
0.0
 10
80.167647
 20
64.609046
 30
0.0
 10
80.373801
 20
64.283827
 30
0.0
 10
80.695159
 20
64.030270
 30
0.0
 10
81.130620
 20
63.857186
 30
0.0
 10
81.130620
 20
63.857739
 30
0.0
 10
81.663647
 20
63.823012
 30
0.0
 10
82.307464
 20
63.944280
 30
0.0
 10
82.988215
 20
64.200044
 30
0.0
 10
83.633688
 20
64.570460
 30
0.0
 10
84.747695
 20
65.492644
 30
0.0
 10
85.522153
 20
66.407109
 30
0.0
 10
85.602631
 20
66.488688
 30
0.0
 10
85.707911
 20
66.374589
 30
0.0
 10
85.938320
 20
66.224105
 30
0.0
 10
86.101479
 20
66.368524
 30
0.0
 10
86.142822
 20
66.425851
 30
0.0
 10
86.241489
 20
66.378997
 30
0.0
 10
86.773964
 20
65.849280
 30
0.0
 10
87.505977
 20
65.156402
 30
0.0
 10
88.242953
 20
64.622274
 30
0.0
 10
88.994810
 20
64.240283
 30
0.0
 10
89.771471
 20
64.005466
 30
0.0
 10
90.327647
 20
63.959715
 30
0.0
 10
90.655069
 20
64.003812
 30
0.0
 10
91.013909
 20
64.120669
 30
0.0
 10
91.305504
 20
64.344463
 30
0.0
 10
91.603158
 20
64.783231
 30
0.0
 10
91.696867
 20
65.046160
 30
0.0
 10
91.715607
 20
65.361453
 30
0.0
 10
91.603158
 20
66.098428
 30
0.0
 10
91.096592
 20
66.876193
 30
0.0
 10
90.640738
 20
67.545921
 30
0.0
 10
90.508997
 20
67.800031
 30
0.0
 10
90.736649
 20
67.940592
 30
0.0
 10
91.373302
 20
68.513302
 30
0.0
 10
92.006649
 20
69.263508
 30
0.0
 10
92.439355
 20
69.987803
 30
0.0
 10
92.732047
 20
70.710998
 30
0.0
 10
92.908436
 20
71.515221
 30
0.0
 10
92.994980
 20
72.480952
 30
0.0
 10
93.160342
 20
73.890959
 30
0.0
 10
93.266175
 20
74.479105
 30
0.0
 10
93.098606
 20
75.056780
 30
0.0
 10
92.933794
 20
75.359949
 30
0.0
 10
92.773940
 20
75.507675
 30
0.0
 10
92.531407
 20
75.537991
 30
0.0
 10
92.531407
 20
75.537991
 30
0.0
  0
ENDSEC
  0
SECTION
  2
OBJECTS
  0
DICTIONARY
  5
C
330
0
100
AcDbDictionary
  3
ACAD_GROUP
350
D
  3
ACAD_MLINESTYLE
350
17
  0
DICTIONARY
  5
D
330
C
100
AcDbDictionary
  0
DICTIONARY
  5
1A
330
C
100
AcDbDictionary
  0
DICTIONARY
  5
17
330
C
100
AcDbDictionary
  3
STANDARD
350
18
  0
DICTIONARY
  5
19
330
C
100
AcDbDictionary
  0
ENDSEC
  0
EOF
