<?xml version="1.0" encoding="UTF-8" standalone="no"?>
<!-- Created with Inkscape (http://www.inkscape.org/) -->

<svg
   xmlns:dc="http://purl.org/dc/elements/1.1/"
   xmlns:cc="http://creativecommons.org/ns#"
   xmlns:rdf="http://www.w3.org/1999/02/22-rdf-syntax-ns#"
   xmlns:svg="http://www.w3.org/2000/svg"
   xmlns="http://www.w3.org/2000/svg"
   xmlns:sodipodi="http://sodipodi.sourceforge.net/DTD/sodipodi-0.dtd"
   xmlns:inkscape="http://www.inkscape.org/namespaces/inkscape"
   id="svg6310"
   version="1.1"
   inkscape:version="0.91 r13725"
   width="450"
   height="468"
   viewBox="0 0 450 468"
   sodipodi:docname="butterfly.svg">
  <sodipodi:namedview
     pagecolor="#ffffff"
     bordercolor="#666666"
     borderopacity="1"
     objecttolerance="10"
     gridtolerance="10"
     guidetolerance="10"
     inkscape:pageopacity="0"
     inkscape:pageshadow="2"
     inkscape:window-width="1360"
     inkscape:window-height="746"
     id="namedview6312"
     showgrid="false"
     inkscape:zoom="2.017094"
     inkscape:cx="345.51985"
     inkscape:cy="287.23988"
     inkscape:window-x="1432"
     inkscape:window-y="-8"
     inkscape:window-maximized="1"
     inkscape:current-layer="svg6310" />
  <metadata
     id="metadata6316">
    <rdf:RDF>
      <cc:Work
         rdf:about="">
        <dc:format>image/svg+xml</dc:format>
        <dc:type
           rdf:resource="http://purl.org/dc/dcmitype/StillImage" />
        <dc:title></dc:title>
      </cc:Work>
    </rdf:RDF>
  </metadata>
  <defs
     id="defs6314" />
  <path
     style="fill:#000000"
     d="M 393.4375 84.453125 L 389.52539 84.90625 L 383.79688 85.939453 L 378.1582 87.410156 L 372.66406 89.291016 L 367.37695 91.552734 L 362.35547 94.167969 L 357.65625 97.109375 L 353.33984 100.34766 L 349.46289 103.85742 L 346.4082 107.26367 L 343.67578 111.20508 L 340.89453 116.29883 L 337.68359 123.16016 L 333.74414 131.52344 L 333.29688 131.07031 L 332.84766 129.23438 L 332.2793 126.85938 L 331.4707 125.06641 L 330.52539 124.01953 L 329.54297 123.88281 L 328.50195 125.12109 L 327.3418 127.58398 L 326.09961 130.91797 L 321.44727 121.75195 L 316 111.98242 L 313.39258 108.18164 L 310.72656 104.95703 L 307.90234 102.20117 L 304.82031 99.800781 L 301.38086 97.650391 L 297.48242 95.640625 L 292.34961 93.427734 L 286.72461 91.498047 L 280.06836 89.685547 L 271.8418 87.826172 L 266.13477 86.714844 L 262.94922 86.625 L 261.96094 87.037109 L 261.19727 87.792969 L 259.79688 90.453125 L 258.91406 93.046875 L 258.67188 95.773438 L 259.08203 98.978516 L 260.15234 103.00586 L 261.45117 108.78711 L 262.05469 116.28125 L 262.64844 122.97852 L 263.86328 129.35352 L 265.67188 135.34961 L 268.04492 140.9082 L 270.95312 145.97266 L 274.36914 150.48438 L 278.26367 154.38672 L 282.60742 157.62305 L 285.49414 159.62109 L 286.69531 160.79688 L 283.39062 165.47852 L 279.80859 170.53711 L 277.3457 175.38281 L 275.99805 179.92188 L 275.75586 184.06445 L 276.61523 187.71875 L 277.45312 189.33203 L 278.56445 190.79102 L 279.94727 192.08008 L 281.60156 193.18945 L 285.71289 194.82227 L 288.06055 195.17969 L 290.75195 195.14648 L 293.70508 194.74609 L 296.83203 194.00195 L 303.26562 191.58398 L 306.39844 189.95703 L 309.36328 188.08594 L 314.82812 183.91602 L 319.89258 179.37305 L 324.15234 174.84766 L 327.20703 170.72852 L 327.96875 169.96289 L 328.96289 171.04102 L 330.03516 172.0957 L 331.13867 172.45898 L 332.08398 172.125 L 332.68164 171.0957 L 333.07227 170.55469 L 334.00781 170.99609 L 339.03711 176.00195 L 345.95312 182.54883 L 349.42383 185.25781 L 352.91992 187.59766 L 356.44727 189.57812 L 360.02344 191.20312 L 363.65625 192.48242 L 367.35938 193.42188 L 370.16797 193.81055 L 372.61523 193.85742 L 375.71094 193.43945 L 379.10352 192.33398 L 380.58398 191.50977 L 381.85547 190.21875 L 383.3418 188.23242 L 384.66797 186.07422 L 385.55664 183.58789 L 385.73047 180.61133 L 385.50977 176.79102 L 384.66992 173.64453 L 382.89844 170.4043 L 379.88086 166.30078 L 375.57227 159.97266 L 374.33203 157.56641 L 376.48047 156.23828 L 379.11719 154.13281 L 382.49609 150.82812 L 385.86719 147.10547 L 388.48242 143.74219 L 392.57227 136.89648 L 394.10352 133.52734 L 395.33398 130.0625 L 396.28906 126.4082 L 397.00391 122.4668 L 397.81836 113.33789 L 398.44727 104.73633 L 399.38281 100.01562 L 400.20312 97.148438 L 400.38477 94.460938 L 399.91797 91.796875 L 398.79883 89 L 397.24219 86.134766 L 396.5332 85.275391 L 395.73242 84.740234 L 393.4375 84.453125 z "
     id="path6860" />
  <path
     style="fill:#000000"
     d="M 386.19727 199.26758 L 384.73047 199.4375 L 380.46875 200.375 L 376.42578 201.92969 L 372.7793 204.01367 L 369.70898 206.54297 L 367.53711 209.29883 L 365.29102 213.78125 L 363.8125 216.91797 L 363.47656 216.06055 L 362.96094 214.49609 L 362.60547 214.10352 L 362.23828 214.05273 L 361.41211 215.44141 L 360.94531 216.69141 L 359.20117 213.25391 L 357.16016 209.58984 L 355.18164 206.95508 L 352.9668 205.02148 L 350.21484 203.46094 L 346.18164 201.9082 L 340.59961 200.53125 L 338.45898 200.11523 L 337.26562 200.08008 L 336.60742 200.51953 L 336.08398 201.51758 L 335.66211 203.51172 L 336.2168 206.22461 L 336.70312 208.39258 L 336.92969 211.20117 L 337.60742 216.10352 L 339.17578 220.4375 L 341.54688 224.0293 L 343.00781 225.49219 L 344.63672 226.70508 L 346.16992 227.89648 L 344.93164 229.65234 L 343.58789 231.54883 L 342.66406 233.36523 L 342.1582 235.06836 L 342.06836 236.62109 L 342.39062 237.99023 L 343.12109 239.14258 L 344.25977 240.04297 L 345.80078 240.6543 L 345.80273 240.6543 L 347.69141 240.77539 L 349.9707 240.34766 L 352.38281 239.43945 L 354.66992 238.12891 L 358.61914 234.86133 L 361.36133 231.61914 L 361.64648 231.33203 L 362.01953 231.73633 L 362.83594 232.26758 L 363.41406 231.75586 L 363.56055 231.55469 L 363.91211 231.71875 L 365.79688 233.59766 L 368.39258 236.05273 L 371.00391 237.94531 L 373.66797 239.29688 L 376.41992 240.12891 L 378.39062 240.29297 L 379.55078 240.13672 L 380.82227 239.72266 L 381.85547 238.92969 L 382.91016 237.375 L 383.24219 236.44141 L 383.30859 235.32617 L 382.91016 232.71289 L 381.11328 229.95898 L 379.49805 227.58594 L 379.0332 226.68359 L 379.83984 226.18555 L 382.0957 224.1582 L 384.33984 221.5 L 385.87305 218.93359 L 386.9082 216.36914 L 387.53516 213.52148 L 387.8418 210.09766 L 388.42773 205.10156 L 388.80273 203.01953 L 388.20898 200.97266 L 387.625 199.89648 L 387.05859 199.375 L 386.19727 199.26758 z "
     id="path6860-4" />
  <path
     style="fill:#000000"
     d="M 327.86719 200.3457 L 326.40039 200.51562 L 322.13672 201.45508 L 318.09375 203.00781 L 314.44922 205.0918 L 311.37695 207.62305 L 309.20703 210.37695 L 306.95898 214.86133 L 305.48047 217.99609 L 305.14648 217.13867 L 304.62891 215.57617 L 304.27539 215.18359 L 303.90625 215.13086 L 303.08203 216.51953 L 302.61523 217.76953 L 300.87109 214.33203 L 298.82812 210.66992 L 296.84961 208.03516 L 294.63477 206.10156 L 291.88281 204.54102 L 287.84961 202.98633 L 282.26758 201.61133 L 280.12891 201.19336 L 278.93359 201.16016 L 278.27734 201.59766 L 277.75195 202.5957 L 277.33008 204.58984 L 277.88477 207.30273 L 278.37109 209.4707 L 278.59766 212.28125 L 279.27539 217.18359 L 280.84375 221.51562 L 283.2168 225.10742 L 284.67578 226.57031 L 286.30469 227.7832 L 287.83789 228.97461 L 286.59961 230.73047 L 285.25586 232.62695 L 284.33203 234.44336 L 283.82617 236.14648 L 283.73633 237.69922 L 284.05859 239.07031 L 284.78906 240.22266 L 285.92773 241.12109 L 287.4707 241.73438 L 287.4707 241.73242 L 289.35938 241.85547 L 291.64062 241.42578 L 294.05273 240.51953 L 296.33984 239.20703 L 300.28711 235.93945 L 303.03125 232.69922 L 303.31641 232.41016 L 303.68945 232.81445 L 304.50586 233.34766 L 305.08398 232.83594 L 305.23047 232.63281 L 305.58008 232.79883 L 307.4668 234.67578 L 310.06055 237.13086 L 312.67188 239.02344 L 315.33594 240.37695 L 318.08789 241.20898 L 320.05859 241.37109 L 321.21875 241.21484 L 322.49023 240.80078 L 323.52344 240.00781 L 324.57812 238.45312 L 324.91016 237.52148 L 324.97656 236.4043 L 324.57812 233.79297 L 322.7832 231.03711 L 321.16797 228.66406 L 320.70117 227.76367 L 321.50781 227.26562 L 323.76367 225.23633 L 326.00781 222.57812 L 327.54102 220.01172 L 328.57812 217.44922 L 329.20312 214.59961 L 329.50977 211.17773 L 330.0957 206.18164 L 330.4707 204.09766 L 329.87695 202.05078 L 329.29297 200.97656 L 328.72656 200.45312 L 327.86719 200.3457 z "
     id="path6860-4-9" />
</svg>
