<?xml version="1.0" encoding="UTF-8" standalone="no"?>
<!-- Created with Inkscape (http://www.inkscape.org/) -->

<svg
   xmlns:dc="http://purl.org/dc/elements/1.1/"
   xmlns:cc="http://creativecommons.org/ns#"
   xmlns:rdf="http://www.w3.org/1999/02/22-rdf-syntax-ns#"
   xmlns:svg="http://www.w3.org/2000/svg"
   xmlns="http://www.w3.org/2000/svg"
   xmlns:sodipodi="http://sodipodi.sourceforge.net/DTD/sodipodi-0.dtd"
   xmlns:inkscape="http://www.inkscape.org/namespaces/inkscape"
   id="svg4150"
   version="1.1"
   inkscape:version="0.91 r13725"
   width="300mm"
   height="300mm"
   viewBox="0 0 1062.9922 1062.9921"
   sodipodi:docname="cake_topper.svg">
  <sodipodi:namedview
     pagecolor="#ffffff"
     bordercolor="#666666"
     borderopacity="1"
     objecttolerance="10"
     gridtolerance="10"
     guidetolerance="10"
     inkscape:pageopacity="0"
     inkscape:pageshadow="2"
     inkscape:window-width="1360"
     inkscape:window-height="746"
     id="namedview4152"
     showgrid="false"
     units="mm"
     inkscape:zoom="0.41511741"
     inkscape:cx="493.82575"
     inkscape:cy="373.10684"
     inkscape:window-x="1432"
     inkscape:window-y="-8"
     inkscape:window-maximized="1"
     inkscape:current-layer="svg4150" />
  <metadata
     id="metadata4156">
    <rdf:RDF>
      <cc:Work
         rdf:about="">
        <dc:format>image/svg+xml</dc:format>
        <dc:type
           rdf:resource="http://purl.org/dc/dcmitype/StillImage" />
        <dc:title></dc:title>
      </cc:Work>
    </rdf:RDF>
  </metadata>
  <defs
     id="defs4154" />
  <path
     d="M431.19141 15.45697L426.83941 15.8327425L421.1543 17.134705L415.717809219 18.7624437441L410.05196375 20.7869264531L399.42533 25.352583125L395.161102344 27.5569867676L392.06064125 29.4845937344L390.472227031 30.9670188652L390.353875098 31.4886678796L390.74414 31.835877L391.433344688 32.3456985957L392.008770625 33.3235901406L392.8365825 36.817584125L393.264168125 42.5858610469L393.32812 50.896423L392.759043906 66.6289822031L392.176387715 72.523768498L391.37465125 77.194668125L390.338583379 80.7095127363L389.052932969 83.1361339844L387.502448887 84.5423635215L385.67188 84.996033L383.503470273 84.5763461191L381.107491563 83.4373730156L378.66576707 81.759244998L376.36012 79.722093375L374.372373555 77.5060494551L372.884350938 75.2912445469L372.077875352 73.257809959L372.13477 71.585877L372.207392629 70.8581500781L371.934173691 70.0286798438L370.489002656 68.146577625L368.07683998 66.1037067188L364.97526875 64.0642035L361.461872051 62.1922043437L357.814232969 60.651845625L354.30993459 59.6072637187L351.22656 59.222595L348.877124219 59.4715651563L346.32670625 60.1493735L343.882955156 61.1523668438L341.85352 62.376892L339.537287969 63.6064971563L336.31263625 64.623506L332.606471406 65.3223835938L328.8457 65.597595L324.659079375 65.929715625L320.7543875 66.84420825L317.203946875 68.3180115L314.08008 70.328064L310.969013164 73.2987537656L308.011182813 77.1156481875L305.28593918 81.5958813281L302.8726325 86.55658725L300.850613008 91.8149000156L299.299230938 97.1879536875L298.297836523 102.492882328L297.92578 107.54682L297.567708594 112.469997969L296.64038625 117.87678625L295.279100781 123.137633906L293.61914 127.62299L291.90687375 131.867729551L290.854945 135.617691406L290.46746375 138.890302871L290.74854 141.70299125L291.70228375 144.073183848L293.332805 146.018307969L295.64421375 147.555790918L298.64062 148.70306L301.426808828 149.716712051L303.55856875 150.999093906L305.047083672 152.594310371L305.9035375 154.54646625L306.139114141 156.899666348L305.7649975 159.698015469L304.792371484 162.985618418L303.23242 166.80658L299.50586 175.07025L305.94336 181.08392L308.563343125 183.797285156L310.9373 186.73897375L312.804031875 189.554307969L313.90234 191.88861L314.794046406 193.748148906L316.09835875 195.27091625L317.640111719 196.299795469L319.24414 196.67767L320.401656699 196.870133926L321.327652969 197.617366406L322.063489316 199.174128496L322.65052625 201.79518125L323.543643906 211.249202969L324.33789 228.01752L325.60742 259.35736L303.89062 303.72455L282.17383 348.09369L280.83398 337.86713L280.035488594 333.217547559L278.96359125 329.373780469L277.615643281 326.333091582L275.989 324.09274375L274.081016719 322.649999824L271.88904875 322.002122656L269.410451406 322.146375098L266.64258 323.08002L264.117907812 323.988097187L261.454165 324.5427725L258.968614687 324.700056563L256.97852 324.41596L254.692198437 324.002985703L252.39366875 324.13617875L250.200459687 324.739914297L248.2301 325.7385675L246.600118437 327.056513516L245.42804375 328.6181275L244.831404687 330.347784609L244.92773 332.16986L245.200844062 334.042274062L244.8545425 335.318875L243.855872187 336.048800937L242.17188 336.28119L240.033913105 336.533715273L238.160418594 337.233643437L236.609035723 338.294503008L235.43740375 339.6298225L234.703161934 341.15313043L234.463949531 342.777955313L234.777405801 344.417825664L235.70117 345.98627L236.908597656 347.779337344L237.19804875 349.36919125L236.535935469 351.054694531L234.88867 353.13471L232.471389844 356.395863125L231.815374082 357.859846406L231.52761125 359.2142575L231.607978887 360.460213906L232.056354531 361.598833125L232.872615723 362.631232656L234.05664 363.55853L235.098883125 364.629527656L235.9521525 366.27601625L236.528563125 368.273724219L236.74023 370.39838L237.06726002 373.08394375L238.035129531 375.12929625L239.624007715 376.531019375L241.81406375 377.285695L244.585466816 377.389905L247.918386094 376.84023125L251.792990762 375.633255625L256.18945 373.76556L264.095254375 370.328190625L267.077675312 369.369864375L269.5927375 368.9007275L271.7751625 368.907492813L273.759671875 369.376873125L275.680987187 370.29558125L277.67383 371.65033L279.663934062 372.88015375L282.000645 373.897795L284.392698437 374.59736875L286.54883 374.87299L288.89460627 375.025341562L290.576075781 375.466353125L291.59491959 376.28851L291.95281875 377.5842975L291.651454316 379.446200938L290.692507344 381.966705625L286.80859 389.35346L283.176344219 395.125770313L279.50801875 399.3467L275.121326406 402.654017188L269.33398 405.68549L261.663403105 409.923555156L252.128477969 416.20266L241.61906166 423.809339844L231.02501125 432.03013L221.236183809 440.151565781L213.142436406 447.4601825L207.633626113 453.242515469L206.126652717 455.338367832L205.59961 456.7851L205.947363164 457.637646895L206.878192813 458.230341406L209.8145025 458.65224625L213.059380937 458.082960469L214.375921523 457.436666699L215.26367 456.55463L216.005162969 455.720596406L217.04288625 455.03744125L219.45703 454.40619L220.036990449 454.621878184L220.302416719 455.275139219L219.87859625 457.93155875L218.163427656 462.449806406L215.13477 468.90424L211.805886562 476.143142656L208.0559925 485.13628125L201.13086 503.80463L197.325635625 515.811547187L196.168009687 520.502318398L195.4289925 524.956335L195.0500475 529.652374727L194.972638125 535.069215313L195.48828 549.98041L196.179592104 560.547790225L197.272643555 570.871547422L198.753364556 580.918475752L200.607685312 590.655369375L202.82153603 600.049022451L205.380846914 609.066229141L208.271548169 617.673783604L211.47957 625.83848L214.990842612 633.52711249L218.791296211 640.706475234L222.866861001 647.343362393L227.203467188 653.404568125L231.787044976 658.856886592L236.60352457 663.667111953L241.638836177 667.802038369L246.87891 671.22846L258.21875 677.73041L232.98242 677.74991L222.912859707 677.876995645L215.036700781 678.333927656L209.091712402 679.261218652L204.81566375 680.79938125L203.22154469 681.841449592L201.946324004 683.088928066L200.957222839 684.55938075L200.221462344 686.270371719L199.378847949 690.484224824L199.15625 695.871L199.206847187 701.385365293L199.45380582 703.600080403L200.0118375 705.487906094L201.003416992 707.07490907L202.551019063 708.387156035L204.777118477 709.450713694L207.80419 710.29164875L211.754708398 710.936027908L216.751148437 711.409917871L230.3716925 711.950497031L275.55273 712.13272L305.419728594 712.273257188L327.25199875 712.6865225L340.646744531 713.359996562L344.054172051 713.79039957L345.20117 714.28116L346.516013438 753.188888438L348.211057227 792.522894492L350.6436175 837.50166L353.848020586 882.418683633L355.750390161 903.070760581L357.858592812 921.567464062L360.176919331 937.195481411L362.709660508 949.241499961L364.057777465 953.698349478L365.461107134 956.992207046L366.920185862 959.033908581L367.670798733 959.55733706L368.43555 959.73429L369.205536694 959.55733706L369.971637244 959.033908581L371.491125215 956.992207046L372.991904524 953.698349478L374.471865781 949.241499961L377.360896582 937.195481411L380.1413425 921.567464062L382.796328418 903.070760581L385.308979219 882.418683633L389.839775 837.50166L393.598728906 792.522894492L396.45084 753.188888438L398.89453 714.28116L401.335863535 713.783627617L408.626318906 713.350228437L437.55332375 712.6785475L485.273001719 712.271552812L551.38281 712.13468L617.49292875 712.271552812L665.21328 712.6785475L694.14095625 713.350228437L701.431632656 713.783627617L703.87305 714.28116L705.685301875 753.563212187L707.875087031 793.282824961L710.8535075 838.70402L714.570210156 884.063690664L716.689681953 904.91948353L718.974841875 923.598730312L721.419395781 939.381042681L724.017049531 951.546032305L725.371321929 956.046909734L726.761508984 959.373310854L728.186823931 961.435187123L728.912408498 961.96378827L729.64648 962.14249L730.380551004 961.96378827L731.106132264 961.435187123L732.531432524 959.373310854L733.921594736 956.046909734L735.275832852 951.546032305L737.873392612 939.381042681L740.317823437 923.598730312L742.602836958 904.91948353L744.722144805 884.063690664L748.43849 838.70402L751.41655207 793.282824961L753.606024062 753.563212187L755.41797 714.28116L756.581761914 713.790285684L760.039565937 713.360011719L773.63578 712.68724375L795.803751562 712.274813906L826.14062 712.13468L872.229402969 711.961815156L886.052820723 711.407085371L891.103908206 710.913873591L895.08396125 710.23913625L898.120014724 709.35465262L900.339103496 708.232201973L901.868262434 706.843563582L902.834526406 705.160516719L903.364930281 703.154840657L903.586508926 700.798314668L903.61133 694.91983L903.374697598 690.458820703L902.623173906 686.76796625L901.294319199 683.793219297L899.32569375 681.4805325L896.654857832 679.775858516L893.219371719 678.62515L888.956795684 677.974359609L883.80469 677.76944L876.5575475 677.57275375L873.54297 677.09952L877.62695 667.97257L881.011591191 660.557183613L883.719038281 653.566350781L885.817224043 646.603064746L887.37408125 639.27031875L888.457542676 631.171106035L889.135541094 621.908419844L889.476009277 611.085253418L889.54688 598.3046L889.305761563 580.589961406L888.6286475 567.20985125L887.403324688 556.758950469L885.51758 547.83194L883.203166804 539.709765398L880.563814277 531.825338965L877.604091135 524.184752385L874.328566094 516.794097344L870.741807869 509.659465525L866.848385176 502.786948613L862.652866731 496.182638293L858.15982125 489.85262625L853.373817449 483.803004167L848.299424043 478.03986373L842.941209749 472.569296624L837.303743281 467.397394531L831.391593357 462.530249138L825.209328691 457.973952129L818.761518 453.734595188L812.05273 449.81827L800.8743925 443.18599125L797.473649688 440.781537344L796.22461 439.43936L796.47898 438.572153906L797.171485 437.46048625L799.44727 435.07608L801.722075 432.63403125L802.41390625 431.460277969L802.66797 430.51749L802.439970061 429.995793889L801.779437051 429.563321426L799.301572656 428.960060156L795.515978496 428.695731621L790.70425625 428.75836125L779.128834219 429.816596719L772.928337793 430.788253418L766.82812 432.03897L752.19727 435.44327L743.60547 425.94913L739.704597969 421.260032969L735.43408375 415.51136875L731.310785156 409.431780156L727.85156 403.74991L709.536097656 371.15852875L704.098759824 361.077405625L700.58547375 353.886685L698.579081582 348.646885L697.662425469 344.41852375L697.418347559 340.262119375L697.42969 335.23819L697.248506094 327.313549219L696.938953926 324.480797441L696.40958625 322.16308625L695.605021543 320.181911777L694.469878281 318.358770156L690.98633 314.47257L688.48453125 311.579981719L686.43574 308.46711375L685.05140375 305.507851406L684.54297 303.07608L684.313038574 301.083330234L683.572138594 299.446160625L682.243611504 298.136205703L680.25079875 297.1251L677.517041777 296.384478047L673.965682031 295.885974375L664.10352 295.50186L653.32812 295.47256L638.86719 266.45888L628.6542775 245.355345L625.547355938 238.459399063L624.40625 235.36123L627.264716562 232.102494063L635.0477075 224.769325L660.63281 202.22842L685.338074219 180.618716563L694.246204941 172.340700039L701.30897625 165.27249L706.864619277 159.058023711L711.251365156 153.341238438L714.80744502 147.766071445L717.87109 141.97646L719.861138352 137.465167734L721.586568379 132.676316969L723.047340662 127.656223625L724.243415781 122.451203625L725.841316855 111.671647344L726.37995625 100.7081755L725.859018613 89.9313154688L724.278188594 79.711594625L723.090215393 74.9264512031L721.63715084 70.4195403438L719.918955515 66.2371779688L717.93559 62.42568L713.456897053 55.535733865L708.596256426 49.4667951387L703.383489187 44.2218380266L697.848416406 39.8038367344L692.020859153 36.2157654675L685.930638496 33.4605984316L679.607575505 31.5413098323L673.08149125 30.460873875L666.382206799 30.2222647654L659.539543223 30.828456709L652.583321589 32.2824239114L645.543362969 34.5871405781L638.44948843 37.7455809148L631.331519043 41.760719127L624.219275876 46.6355294202L617.14258 52.372986L604.50977 63.429627L593.0625 52.968689L586.706588379 47.4644976562L580.630280156 42.86352625L574.713821543 39.1135847187L568.83745875 36.162483L562.881437988 33.9580310313L556.726005469 32.44803875L550.251407402 31.5803160938L543.33789 31.302673L537.437533945 31.4253923418L532.294155938 31.8418157969L527.703159961 32.6243415098L523.45995 33.845367625L519.359930039 35.5772922871L515.198504062 37.8925136406L510.771076055 40.8634298301L505.87305 44.562439L502.349402402 47.8669847344L498.788229844 52.1826515L495.313653926 57.2770575156L492.04979625 62.917821L489.120778418 68.8725601719L486.650722031 74.90889325L484.763748691 80.7944384531L483.58398 86.296814L482.619775 91.8349050937L482.064216797 93.5261467227L481.3193525 94.63572475L480.279930391 95.2662934336L478.84069875 95.5205070312L474.3418 95.310486L471.422537773 95.046222207L469.282114687 94.4970245312L468.481514038 93.9687558169L467.848678633 93.1930700273L467.0503775 90.66453575L466.81535918 86.4415987539L467.071771563 80.0544360937L468.77148 58.908142L469.46407125 44.117273125L469.347571406 38.3134511406L468.91602 34.632751L467.856851777 32.3632655723L465.893882344 29.8375050156L463.285142051 27.2489602949L460.28866125 24.791122375L457.162470293 22.6574822207L454.164599531 21.0415307969L451.553079316 20.1367590684L449.58594 20.136658L448.205221875 20.1320689531L445.87167 19.647008625L439.65039 17.572205L435.14865 16.02933675L431.19141 15.45697L431.19141 15.45697M422.51984 675.67141L422.038762188 673.926665156L420.69744 672.266015L418.648740312 670.752953594L416.04553 669.450975L413.040675938 668.423573281L409.787045 667.7342425L406.437504063 667.446476719L403.14492 667.62377L399.10451 668.014259531L396.4675225 667.86693625L395.03282625 667.138499844L394.59929 665.78565L394.456910156 664.99388918L393.991279375 664.379382187L391.8593175 663.6510825L387.741509375 663.538656562L381.17596 663.98001L369.615254844 665.154958594L362.56239375 666.36193125L360.422312246 667.054925918L359.044280781 667.848925781L358.306662363 668.774930566L358.08782 669.86394L358.370484238 672.131928633L359.367608906 673.932614062L361.302891934 675.316823086L364.40003125 676.3353825L368.882724785 677.039119102L374.974670469 677.478859687L392.88111 677.76966L405.047300469 677.6196175L414.39837625 677.1946925L420.400501406 676.53268875L421.97888377 676.124596016L422.51984 675.67141L422.51984 675.67141M527.75881 673.72471L527.504745293 672.211480859L526.748703594 670.884688125L525.499913535 669.748280078L523.76760375 668.806205L521.561002871 668.062411172L518.889339531 667.520846875L512.18774 667.0602L509.4482325 667.257747656L507.6198025 667.92940125L506.59877375 669.143501719L506.28147 670.96839L506.380844609 672.917554629L506.730848125 674.465750156L507.409300078 675.656460293L508.49402 676.53316875L510.062827422 677.139359238L512.193541875 677.518515469L518.45197 677.76966L523.147382969 677.607200313L525.98647375 676.999355L526.839829668 676.47194418L527.385022656 675.765424687L527.75881 673.72471L527.75881 673.72471M699.09053 675.62794L749.07532 675.62794L740.45713 664.72519L735.87090623 658.41780875L731.312087344 651.19143375L726.881056973 643.258980625L722.67819875 634.833365L718.803896309 626.1275025L715.358533281 617.35430875L712.442493301 608.726699375L710.15616 600.45759L706.53584 585.648572812L705.333770156 581.377047539L704.341375 578.819025L703.411865469 577.693140586L702.3984525 577.718029687L701.154347031 578.612327695L699.53276 580.09467L698.137620586 581.267478242L697.081465938 581.648943438L696.310837695 580.830012539L695.7722775 578.4016325L695.177527813 567.080312812L694.86955 544.41256L694.6668 499.51409L695.47195 472.66742L696.06728 451.19007L683.91733 428.21774L679.109605781 419.44377375L675.00091625 412.5362725L672.027406094 408.1883975L671.102638496 407.190932734L670.62522 407.09331L668.204941426 413.208222578L664.603967031 424.9584875L655.59560375 458.5209775L647.071476094 494.09258625L644.07579623 508.354249609L642.50293 517.98512L641.047382656 526.276013125L638.07970875 539.483295L634.031942969 555.789434375L629.33612 573.3769L624.068854687 593.24029375L620.17039 609.822985L617.620980313 623.21677375L616.40088 633.51346L615.485476895 642.582585176L613.953423906 650.160987031L611.735483027 656.335431309L610.347667751 658.92328365L608.76241625 661.19268375L606.971073772 663.154477327L604.964985566 664.819510098L602.735496882 666.198627781L600.273952969 667.302676094L597.571699075 668.142500754L594.620080449 668.72894748L587.93413 669.18509L580.66861125 669.745620625L574.4817575 671.24064L572.044526484 672.251127109L570.1789975 673.390289375L568.985849141 674.623144453L568.56576 675.91471L569.050943652 676.556805469L570.588800469 677.04896375L577.31636875 677.59737L589.736135156 677.58773125L608.83577 677.04785L651.95948375 676.05212125L699.09053 675.63447L699.09053 675.62794M823.8922 652.84856L822.725329688 647.690024922L821.278544375 643.18956375L819.55873375 639.356340078L817.5727875 636.1995175L815.327595312 633.728259609L812.830046875 631.95173L810.087031875 630.879092266L807.10544 630.51951L806.707476445 630.8606255L806.33431375 631.826781348L805.67685375 635.291070156L804.818635 645.94554875L804.76218875 656.992642969L805.106944375 660.947701309L805.73892 662.94205L806.846945625 663.240519375L809.1819525 663.37145L816.16455 663.10872L825.66779 662.35289L823.8922 652.84873L823.8922 652.84856M592.93371 654.51022L594.139406055 652.598440078L595.342404687 649.455205625L596.570317852 644.936899609L597.8507575 638.899905L600.679664063 621.695381875L604.05002 596.6927L604.659875996 588.896841465L604.490575999 586.777971838L604.050014844 585.741524844L603.371860662 585.709787634L602.489781582 586.605047363L600.24852125 590.86570625L597.595578887 597.90179873L594.800299531 607.091622031L592.132028223 617.813473379L589.86011 629.44565L587.2207975 641.76711125L585.743819375 646.841183281L584.40081 650.27936L582.318325 654.72211625L581.45216 657.25949L581.81236334 658.095188379L582.789656719 658.519710156L584.229065176 658.570164043L585.97561375 658.28365875L589.770231406 656.848205469L591.508350566 655.773474902L592.93371 654.51022L592.93371 654.51022M796.22557 648.80206L795.999683281 643.389060469L795.598809824 641.435587598L794.90063625 639.80053625L793.82615252 638.346209121L792.296348594 636.934908906L787.55474 633.6906L781.577135313 630.312218281L779.451082695 629.609284746L777.749205 629.59772875L776.358258555 630.302954785L775.164999688 631.750367344L774.056184727 633.965370918L772.91857 636.97337L771.877854219 640.768262188L771.939936191 642.223317148L772.51469625 643.578875L773.695423027 644.981508477L775.575405156 646.577790313L781.80629 650.93759L790.15574125 656.236225L793.070474844 657.848074063L794.58609 658.44006L795.222667656 657.679568594L795.74397125 655.60891625L796.22557 648.80206L796.22557 648.80206M844.39652 645.71001L845.407813574 643.440031523L846.030204844 641.352902813L846.249857129 639.384167695L846.05293375 637.46937L845.425598027 635.544053555L844.354013281 633.543762188L840.82275 629.06043L838.4553825 626.760973594L836.4051225 625.68028125L834.21581625 625.704663281L831.43131 626.72043L829.367086836 627.860912305L827.871106563 629.203147188L826.939580508 630.839932852L826.56872 632.8640675L826.754736367 635.368349336L827.493840938 638.445576563L830.61616 646.69006L832.981989375 651.841553281L834.7646975 654.50815875L835.569732656 655.03603666L836.387809375 655.094382344L838.27485 654.00473L841.44934375 650.42591875L844.39652 645.71001L844.39652 645.71001M861.27259 620.38736L861.510280313 617.522506562L861.332675 614.0367075L860.784472188 610.370402188L859.91037 606.96403L858.517262598 603.557005605L856.887819531 601.045089219L855.072000762 599.434452285L853.11976625 598.73126625L851.081075957 598.941702559L849.005889844 600.071932656L846.944167871 602.128127988L844.94587 605.11646L841.04669 612.02804L849.24134 619.04546L855.4284375 624.0250225L858.79642 626.14329L859.412687969 625.714202656L860.08496875 624.48587125L861.27259 620.38736L861.27259 620.38736M770.04767 617.04274L769.770458535 613.833245449L768.431635781 610.256037969L766.311426699 606.626689316L763.69005625 603.26077125L760.847749395 600.473855527L758.064731094 598.581513906L756.783025452 598.069424558L755.621226309 597.899318145L754.614361785 598.110641135L753.79746 598.74284L753.188134141 599.681114082L752.869848125 600.733774531L752.861661797 601.963147402L753.182635 603.43155875L754.888299375 607.334801094L758.13932 612.94211L762.945754531 619.889701563L764.849828105 621.868491758L766.44343625 622.85829L767.743301738 622.864855117L768.766147344 621.893945938L769.52869584 619.951321289L770.04767 617.04274L770.04767 617.04274M752.19116 574.9054L750.8440875 565.9293125L749.7079 561.25509L749.038673379 560.717362285L747.856422031 560.262917031L744.69535125 559.67805125L741.709699844 559.648847344L740.746722715 559.888979434L740.38448 560.32366L741.160152812 565.524429844L742.9233525 574.63719125L744.828350938 583.514259531L746.02942 588.00795L746.658030312 588.495170625L747.677805 588.7003575L750.32681 588.23493L751.248988027 587.763466895L751.954132344 587.094630156L752.452312051 586.156431152L752.75359625 584.87688125L752.805754531 581.005774219L752.19116 574.9054L752.19116 574.9054M858.50986 572.53069L858.348778906 567.429767656L857.81184375 564.11868375L856.818516719 562.328935469L856.125538184 561.920655059L855.28826 561.79202L853.785880781 562.284212031L852.78945625 563.88009375L852.237033594 566.758623594L852.06666 571.09876L852.48725875 578.09235875L852.942535781 580.547141406L853.49849 581.83743L854.716683867 582.849756816L855.755109062 583.260317031L856.619110977 583.059184043L857.314035 582.23643125L857.845226523 580.782132051L858.218030938 578.686359844L858.50986 572.53069L858.50986 572.53069M232.28599 573.24529L232.69243002 571.550594219L232.641447031 569.96527375L232.209397715 568.573188906L231.47263875 567.4582L230.507526816 566.704167344L229.390418594 566.39495125L228.197670762 566.614412031L227.00564 567.44641L226.31204918 568.519949883L225.960991562 569.897225937L226.156185 573.012045L226.637290586 574.474117227L227.330638437 575.688984062L228.20365582 576.518910117L229.22377 576.82616L229.987674062 576.543618437L230.819665 575.77431L232.28599 573.24529L232.28599 573.24529M222.78057 551.05335L222.52888 549.375424531L221.84093 548.01071875L220.8174 547.093461094L219.55897 546.75788L218.436007422 546.95820625L217.532055625 547.5086325L216.866072266 548.33333L216.457015 549.35647L216.323841484 550.50222375L216.485509375 551.6947625L216.960976328 552.8582575L217.7692 553.91688L219.700941562 555.219921094L220.551406914 555.335666895L221.295965 555.11078625L221.912888086 554.557696699L222.380448437 553.688815781L222.78057 551.05335L222.78057 551.05335M852.06666 542.25005L851.770674238 540.396002578L850.972962031 537.94566625L848.41382875 532.2960525L845.472201094 527.38106L844.196370918 525.849000234L843.23102 525.28054L842.331686016 525.43639457L841.743690625 525.919717187L841.470489922 526.754146211L841.51554 527.96332L842.574216875 531.600455312L844.94737 537.02023L847.542822656 541.620917656L849.82529375 544.19563875L850.740986895 544.643798457L851.448625469 544.490110469L851.904939746 543.702789434L852.06666 542.25005L852.06666 542.25005M594.46582 534.50858L598.073253535 530.986651055L601.136690156 527.074394687L603.563765137 523.036854102L605.26211375 519.1390725L606.13937127 515.646093086L606.103172969 512.822959062L605.713663909 511.745410073L605.061154121 510.934713633L604.134098015 510.424000142L602.92095 510.2464L601.494936406 511.206067812L599.01881125 513.81903L592.30904 522.40859L588.245301855 528.423030605L585.444949844 533.293089219L583.895338848 536.947822285L583.58382375 539.31628625L583.888400564 539.995997458L584.497759434 540.327537559L585.410319719 540.302038606L586.624500781 539.910632656L589.951402676 537.994627988L594.46582 534.50858L594.46582 534.50858M228.1499 530.62033L227.839090156 528.733118594L226.91837375 527.26666375L225.405320469 526.238957031L223.3175 525.66799L221.061064531 525.56291625L219.56674625 526.0501625L218.739704844 527.1964825L218.4851 529.06863L218.9275125 532.39733625L219.99118 534.6615L221.159741836 535.480602676L222.467927187 535.831151406L223.82467832 535.758244746L225.1389375 535.30698125L226.319646992 534.522459473L227.275749062 533.449777969L227.916185977 532.134035293L228.1499 530.62033L228.1499 530.62033M240.88545 523.82524L241.107566934 522.307699707L240.807650469 520.582593281L240.101669707 518.812066152L239.10559375 517.15826375L237.935391699 515.783331504L236.707032656 514.849414844L235.536485723 514.518659199L234.53972 514.95321L234.114615488 515.968692109L234.050845156 517.60692875L234.76170125 521.8169575L236.181076719 525.71388L237.002955605 526.960733828L237.81776 527.42828L238.581150469 527.14399L239.41400125 526.36992L240.88545 523.82524L240.88545 523.82524M633.78036 499.50773L638.558785 480.99688625L642.32102 465.14399L644.92701375 454.18042625L646.92556 447.42518L647.426309375 445.781950156L647.36796 444.60082625L646.751280625 443.883999219L645.57704 443.63366L642.5974375 443.02803375L639.52638 441.61702L638.031710781 440.439668438L637.61806625 439.243325L638.320761094 437.692314063L640.17511 435.45096L642.16415875 433.007476094L642.541721172 432.093224707L642.4615825 431.26638125L641.888947891 430.438756387L640.7890225 429.522160781L636.86812 427.0693L621.201507187 417.961112031L615.779584727 415.181862168L611.2076225 413.33306125L606.917398711 412.225123926L602.340691563 411.668464844L590.05494 411.45064L570.42819 411.45064L571.10776 417.3569L571.721963594 420.659884688L572.302798457 421.681501602L573.22620625 422.3565925L574.612250137 422.740200586L576.580993281 422.887369063L582.74683 422.69256L588.830154844 422.682921719L594.02097875 423.59957375L599.480998281 425.780348906L606.37191 429.56308L615.156321387 434.838779863L621.748091719 439.249286406L626.349340254 443.203791309L627.966681116 445.137915544L629.16218625 447.11148625L629.961120564 449.175652385L630.388748965 451.38156291L630.47033636 453.780366785L630.231147656 456.423212969L628.891501582 462.645628105L626.57193 470.458L624.078987969 479.21895L622.82171875 486.5625425L622.612550156 494.43509125L623.26391 504.78291L624.007638594 511.933178438L624.87578375 517.5138L625.760404531 520.968389063L626.175161738 521.724550898L626.55356 521.74056L627.65739875 519.420272187L629.3879 514.4550175L633.78038 499.50773L633.78036 499.50773M825.38491 508.41757L823.7228875 505.756363438L821.53873 503.03775L819.11614 500.580474063L816.73882 498.70328L813.621581406 496.759152031L811.98937375 496.29219125L811.580129863 496.65845627L811.362111719 497.448982344L811.25971 500.37611L811.64895502 502.547396387L812.721988281 504.885577344L814.33675709 507.249981816L816.35120875 509.49993875L818.623290566 511.49477709L821.010949844 513.093825781L823.372133887 514.15641377L825.56479 514.54187L826.96920375 514.308310469L827.311801797 513.960407598L827.4131975 513.40868625L826.8879925 511.544578906L825.38481 508.41757L825.38491 508.41757M729.64581 443.3828L729.476340469 440.151002813L729.01491375 437.3050375L728.332002656 435.152713438L727.49808 434.00184L726.664157344 433.196330937L725.98124625 431.98435L725.519819531 430.530104062L725.35035 428.9978L724.573139375 426.242437969L722.4569725 421.45830625L715.50056 408.49467L705.6508 391.66829L700.42598 399.35735L695.20116 407.04623L704.95204 425.0805L713.0869925 439.256445L716.533225937 444.689030625L718.95276 448.01469L720.608288125 450.187914375L721.9742825 452.4828825L722.909053125 454.626241875L723.27091 456.34464L723.588391719 458.297077656L723.915558027 458.652478887L724.330995 458.64282875L725.354642031 457.674855469L726.515255 455.68612L727.668756094 452.969584531L728.6710675 449.81821125L729.378111406 446.524962344L729.64581 443.3828L729.64581 443.3828M519.16787 425.67379L518.956153105 422.845845508L518.326637344 420.606895937L517.287775098 418.960813398L515.84801875 417.91147L514.015820684 417.462737852L511.799633281 417.618489063L509.207908926 418.382595742L506.2491 419.75893L502.842834531 421.747184102L500.335900625 423.545658437L498.738224531 425.103536055L498.0597325 426.37L498.310350781 427.29423332L499.500005625 427.825419062L501.638623281 427.912740273L504.73613 427.50538L507.941786719 427.087644687L510.59410375 427.1138475L512.553238906 427.569361563L513.67935 428.43956L514.634115332 429.701921133L515.593318906 430.463907813L516.51635584 430.745981211L517.36262125 430.5686025L518.091510254 429.952232852L518.662417969 428.917333438L519.034739512 427.48436543L519.16787 425.67379L519.16787 425.67379M536.34975 418.91444L535.913575 417.50772543L534.726340625 416.102985937L532.969982813 414.783316602L530.8264375 413.6318125L528.477640625 412.731568711L526.105528125 412.165680313L523.892035938 412.017242383L522.0191 412.36935L520.569588184 413.190830078L519.651288594 414.268293125L519.24104627 415.504682109L519.31570625 416.80294L519.852113574 418.066009766L520.827113281 419.196834375L522.21755041 420.098356797L524.00027 420.67352L529.98115875 421.631434531L533.77615 421.69414625L534.974348906 421.372650957L535.77057125 420.806774844L536.212982969 419.989657871L536.34975 418.91444L536.34975 418.91444M648.56191 407.56307L647.886855 404.185827656L646.9984025 402.23309875L646.429572891 401.735348613L645.75389875 401.527032969L644.01069 401.88978L633.61231 405.3198L630.071688477 406.482428711L627.598347188 407.641942813L626.198583555 408.835561758L625.878695 410.100505L626.644978945 411.473991992L628.503732813 412.993242188L631.461254023 414.695475039L635.52384 416.61791L641.669199375 419.215478906L645.29796 420.27436375L646.425020859 420.258134707L647.230618125 419.894836719L648.28767 418.17717L648.720665781 416.255275625L648.91670375 413.6134675L648.56191 407.56307L648.56191 407.56307M545.78476 410.201L546.770526406 407.364390781L546.87208875 405.80411375L546.547872207 405.385011816L545.950499219 405.143887344L543.86681 405.00743L542.60838 405.343011094L541.58485 406.26026875L540.8969 407.624974531L540.64521 409.3029L540.790519766 411.008526836L541.18930375 412.278377187L541.785843984 413.10271582L542.5244225 413.4718075L543.349321328 413.375916992L544.2048225 412.805309062L545.035208047 411.750248477L545.78476 410.201L545.78476 410.201M660.84221 391.94199L660.592347656 385.176543438L660.211681777 382.904519414L659.64248125 381.3400475L658.871212441 380.458442148L657.884341719 380.235017813L656.668335449 380.645088945L655.20966 381.66397L654.161464609 382.949633437L653.351508125 384.828869375L652.783851328 387.2379625L652.462555 390.1131975L652.575286875 397.007231875L653.72219 405.00125L655.11702 411.97537L657.94156 406.8806L659.044285625 404.125613438L659.9587575 400.3907275L660.589793125 396.166125313L660.84221 391.94199L660.84221 391.94199M638.58252 388.32951L639.88616918 387.22754084L641.122459688 385.759392969L643.1940675 382.16851375L644.399549063 378.444777656L644.553181758 376.810558691L644.34111 375.47609L643.509028926 373.936108379L642.406707031 373.049380156L641.106326309 372.785600293L639.68006875 373.11446375L638.200116348 374.005665488L636.738651094 375.428900469L635.36785498 377.353863652L634.15991 379.75025L633.018080137 382.85057418L632.394714844 385.437987188L632.272675566 387.479242227L632.63482375 388.9410925L633.46402084 389.790291211L634.743128281 389.993591563L636.45500752 389.517746758L638.58252 388.32951L638.58252 388.32951M695.28207 378.86195L694.975419531 375.579593906L694.532535762 374.296730762L693.84366125 373.18589875L691.569084844 371.279791719L687.83398 369.4602L683.210955098 367.633982168L679.785635781 366.573697969L677.523886387 366.347015098L676.818683015 366.567420315L676.39157125 367.02160125L676.354554707 368.665124121L677.378701094 371.345251406L682.47394 380.08599L685.900982188 385.190910313L688.357935 387.936445L689.361469883 388.534696836L690.289092813 388.675407188L691.196340586 388.402677695L692.13875 387.76061L693.359239688 386.251345156L694.3587175 384.07048625L695.034041563 381.510024219L695.28207 378.86195L695.28207 378.86195M310.82014 353.99875L322.95425375 337.0084975L335.96526 319.53346L343.150593438 309.914373906L346.8272525 304.09917625L347.558628555 302.192971035L347.663395313 300.727660469L347.225072539 299.53321873L346.32718 298.43962L344.996976008 296.839498464L344.000371504 295.055814121L343.327758943 293.112974241L342.969530781 291.035386094L343.15779748 286.573594082L344.48831125 281.86569625L346.884211738 277.106950762L350.268638594 272.492615781L354.564731465 268.217949473L359.69563 264.47821L370.678 257.61532L370.244118906 255.903006094L368.48789125 251.66000375L362.13028 238.13829L352.8049 219.22837L351.46142 237.48411L350.229522852 247.603877832L347.982026563 257.829399531L344.658965117 268.292094902L340.2003725 279.12338375L334.546282695 290.454685879L327.636729688 302.417421094L319.411747461 315.143009199L309.81137 328.76287L304.429319922 336.367768437L300.037875 343.1022L296.621094453 349.004109062L294.1630375 354.11144L292.647763359 358.462137187L292.05933125 362.094145L292.381800391 365.045407813L293.59923 367.35387L295.9653075 369.67731625L297.81999 370.64369L299.306905469 369.330293594L302.25361625 365.75422125L310.82014 353.99875L310.82014 353.99875M410.56036 338.00449L409.854961992 328.966164766L409.101414688 322.542364375L408.335844414 318.728435547L407.959840142 317.798718818L407.5943775 317.519725L407.24397228 317.890872432L406.913140273 318.911579453L406.328259063 322.899345625L405.875860195 329.478370234L405.59207 338.644L406.022136563 348.732185313L407.38294 357.924895L408.279793242 361.550589648L409.250240938 364.190587188L410.241253164 365.590944883L410.727899126 365.746901685L411.1998 365.49772L411.480282344 362.997404219L411.45321875 356.98034125L410.56036 338.00449L410.56036 338.00449M525.7231 323.98391L533.980491094 313.310117344L536.408019707 309.702888066L537.75310625 307.11521875L538.054502637 305.44694584L537.825926995 304.926281926L537.350960781 304.597905781L535.681232598 304.46793502L533.08407 304.95687L530.911080801 305.27400707L528.595337656 305.224790937L524.06879125 304.219855L522.124588848 303.360413164L520.570834219 302.327174062L519.540827793 301.16827668L519.16787 299.93186L519.744651719 299.111870469L521.31509625 298.23435875L523.639352656 297.404492656L526.47757 296.72744L529.411579844 295.945358437L531.99662125 294.8297275L533.953022031 293.529337812L535.00111 292.19298L536.076962656 290.807985742L537.94143 289.832141562L540.380791094 289.262827852L543.181325 289.097425L546.129310781 289.333313398L549.0110275 289.967873437L551.612754219 290.998485508L553.72077 292.42253L555.724924531 293.938141719L557.57938375 294.60777875L559.507836094 294.462448906L561.73397 293.53316L564.071047266 291.831820332L566.881688125 289.033065781L573.520695 280.70241875L580.845059375 269.659432344L588.04885 257.02232L595.28702 243.27065L581.38945 230.44413L565.89623 216.62959L548.16228 201.42764L530.99886625 186.603085L516.87734 173.69586L504.92197 162.15405L505.83232 174.73928L505.803402656 182.66757875L504.70383875 193.5098L502.459180469 207.82601375L498.99498 226.17629L495.305017656 245.777506875L492.91434125 261.4379275L491.622836719 274.731126875L491.23039 287.23068L491.401461719 300.005013281L491.745574082 304.68854373L492.36926875 308.76676125L493.352944199 312.637499238L494.776998906 316.698591094L499.26784 326.98317L502.292362715 333.604449824L504.665646719 338.309799219L506.753652051 341.057728066L507.805037727 341.684694124L508.92233875 341.80674625L510.151300125 341.418698181L511.537666855 340.515363652L514.965596406 337.142090156L525.7231 323.98391L525.7231 323.98391M583.5999 331.74049L590.835293281 330.917448437L598.62806125 330.4082725L606.041736094 330.253827812L612.13985 330.49498L619.097910625 331.014494375L622.641405 330.793815L623.418248828 330.314026484L623.684121875 329.538938125L623.13985 326.95586L620.689316406 320.583726719L617.36275375 313.84254375L613.865309219 308.029536406L610.90213 304.44193L609.046705469 303.352323906L606.85364125 303.08810875L603.978161406 303.670949219L600.07549 305.12251L596.415981719 306.379300156L592.17857125 307.40853375L587.888422656 308.103977969L584.0707 308.3594L579.771026563 308.668979844L576.21774 309.73785875L572.949385938 311.776245781L569.50451 314.99435L563.31445875 320.58640875L560.081196406 322.992848281L557.29015 324.71431L554.85030875 326.308055L552.9885825 328.1895375L551.8010725 330.23496625L551.38388 332.32055L551.630787969 334.688306094L552.035598301 335.414093457L552.71346875 335.86783625L555.144857656 336.059235781L559.43789 335.4626L583.5999 331.74049L583.5999 331.74049M641.57275 308.89633L640.723490449 307.008657031L638.482511094 303.6728475L631.54873875 294.752495L624.218124531 286.326625L621.481092832 283.608918594L619.93736 282.58659L618.424421699 283.008838633L617.742979219 284.196628438L617.839677441 286.031525273L618.66116125 288.395095L620.154075527 291.168903477L622.265065156 294.234516563L624.94077502 297.473500117L628.12785 300.76742L634.346590937 306.466675938L638.519315 309.6359925L639.904517383 310.311886211L640.857531563 310.403250313L641.404796211 309.926069883L641.57275 308.89633L641.57275 308.89633M628.97509 270.23712L627.518676484 267.962126016L625.606796875 265.580705625L621.1159 261.10545L616.900920625 258.025081875L615.333937891 257.387270859L614.36038 257.55333L614.212662715 258.001886738L614.361087969 258.715668906L615.45150375 260.79195125L617.441902656 263.488260469L620.14256 266.51068L625.267284063 271.339423125L628.71435 273.682595L629.683728555 273.869349141L630.083653438 273.371419375L629.864111602 272.167708672L628.97509 270.23712L628.97509 270.23712M621.11851 195.18105L632.55954 185.09397L626.92483 182.17064L624.018799219 180.913945L621.43356125 180.3958725L618.938805156 180.60228875L616.30422 181.51906L613.225807812 182.606784688L609.70863625 183.320446875L605.918886563 183.66802375L602.02274 183.6574925L598.186377813 183.296830313L594.57598125 182.594014375L591.357731563 181.557021875L588.69781 180.19383L584.885013594 177.074464629L582.27619875 173.593932656L580.859424531 169.882714043L580.62275 166.07128875L581.554234219 162.290136738L583.64193625 158.669737969L586.873915156 155.340572402L591.23823 152.43312L594.14327582 150.717213555L596.056744063 149.231923438L596.978283398 147.976685977L596.9075425 146.9509375L595.844170039 146.154114336L593.787814688 145.585652813L586.69475 145.13156L580.933326719 144.832769219L579.081830879 144.438285957L577.89248625 143.86174875L577.34729834 143.089161074L577.428272656 142.106526406L578.117414707 140.899848223L579.39673 139.45513L580.251919531 137.214730469L580.83043875 132.77040625L581.094803594 126.594423906L581.00753 119.15905L580.37829 101.10301L573.418 112.37861L567.9439425 120.3420075L565.844156875 122.764503125L564.55688 123.65422L563.247001406 122.811240469L561.08564875 120.51600125L555.40917 112.97094L549.81788125 105.40959125L547.748745469 103.096746094L546.55148 102.23227L546.227901387 102.595082402L545.926032344 103.656515469L545.41384875 107.57551875L544.94068 120.5L545.090342344 129.455774375L545.60824625 135.2825075L546.597767031 138.607836875L547.301688535 139.528611875L548.16228 140.0594L549.989074004 140.929794688L551.052215781 141.8106275L551.38807248 142.662911563L551.03301125 143.44766L550.023399238 144.125885938L548.395603594 144.6586025L543.43093 145.13156L535.47799 145.13156L543.96786 153.90885L548.959017031 158.634405938L556.27280875 165.0125475L573.93509 179.38311L590.30531375 192.5248175L599.50385 200.67409L601.586805938 202.790455918L603.544586875 204.182713594L605.52819125 204.81248916L607.6886175 204.64140875L610.176864062 203.631098496L613.143929375 201.743184531L621.11851 195.18105L621.11851 195.18105M421.93383 181.93834L420.485998457 181.635062852L419.228558281 181.885057188L418.209782402 182.58743793L417.47794375 183.64132L417.081315254 184.94581832L417.068169844 186.400047813L417.486780449 187.903123398L418.38542 189.35416L420.04077375 191.167580469L420.626292031 191.559338066L421.100005 191.58998625L421.86091625 190.514531406L422.62131 187.83437L422.9538225 185.78593L422.9350425 183.99147L422.58752625 182.6444525L421.93383 181.93834L421.93383 181.93834M615.81591 175.07389L615.266887656 173.480761406L613.77202625 170.82379625L608.85802 163.79829L601.39284 153.95337L600.937575625 153.840419531L600.0729875 154.15605375L597.61207 155.82714L596.202439258 157.409707852L595.209219063 159.395374688L594.630597461 161.67066668L594.4647625 164.12211L594.709902227 166.63623082L595.364204687 169.099555313L596.42585793 171.398609648L597.89305 173.41992L599.762480234 174.8647475L602.308805625 176.008523125L605.246568203 176.824904063L608.29031 177.2875475L611.154573047 177.370110625L613.553899375 177.046250625L615.202831016 176.289624688L615.656693213 175.740792363L615.81591 175.07389L615.81591 175.07389M655.97441 166.89094L666.304465 157.84586375L673.64217 150.78294L678.84896 145.13156L670.9575 145.13156L666.232582969 144.687949531L664.620145957 144.173946465L663.54624375 143.50115375L663.039766699 142.696578066L663.129605156 141.787226094L663.844649473 140.800104512L665.21379 139.76222L665.65281303 139.089066121L666.044671738 137.709773809L666.680983906 133.246544844L667.32260125 120.39790625L667.044045469 107.836639531L666.53014123 103.73262541L666.174359275 102.586822747L665.75072 102.18308L664.701602656 102.979710625L663.03585125 105.14466L658.77059 112.25686L654.27184625 119.58762625L652.353369219 121.989332031L650.99564 123.07528L650.364240996 122.99483625L649.488788594 122.472715625L647.16428625 120.2770275L644.339258281 116.835383125L641.33083 112.49495L634.07165 101.16377L633.44241 119.18944L633.355243281 126.611266563L633.61969625 132.77788L634.198206094 137.216695938L635.05321 139.45513L636.336313691 140.904556816L637.023708906 142.113445156L637.096160605 143.096368105L636.53443375 143.86789875L635.319293301 144.442610176L633.431504219 144.835075469L627.56104 145.13156L623.562808555 145.306799629L620.463953437 145.846758281L618.251963477 146.772795605L616.9143275 148.10627125L616.438534336 149.868544863L616.812072812 152.080976094L618.022431758 154.76492459L620.0571 157.94175L623.505318438 162.260280625L624.887301914 163.492412109L626.0841125 164.11904L627.127933398 164.149603516L628.050947813 163.593541875L628.885338945 162.460294297L629.66329 160.7593L630.005476094 159.015458438L629.71411375 157.3119725L628.815227031 155.721350313L627.33484 154.3161L625.676310469 152.881707656L625.493238379 152.40074584L625.79038625 152.05115625L627.973616406 151.667741719L632.52255 151.57476L641.45927 151.57476L636.15464 159.39155L632.692240938 164.969631719L631.691301289 167.127299082L631.1584725 168.96966375L631.079707773 170.575935449L631.440960313 172.025323906L632.22818332 173.397038848L633.42733 174.77029L635.197503691 176.190008652L637.108425781 176.978161094L639.239466543 177.107010801L641.66999625 176.54882125L644.479385176 175.275855918L647.747003594 173.260378281L655.97441 166.89094L655.97441 166.89094M407.65888 157.71235L411.353567461 156.196616816L415.435288438 153.834930156L419.68031957 150.825635605L423.8649375 147.36707875L427.765418867 143.657605176L431.158040313 139.895560469L433.819078477 136.279290215L435.52481 133.00714L436.072381934 130.617544141L436.267439219 127.50573625L435.75273375 120.2098675L434.286141406 113.3083L433.291340098 110.689368672L432.17311 108.9898L430.669873594 108.429274531L427.66123625 107.97025875L418.87335 107.54621L407.04041 107.54621L402.79512 96.814055L399.791743281 89.4630728594L397.84941125 85.793638125L397.07993377 85.0853645605L396.340273594 84.9925140781L394.63648 86.246464L394.273355898 86.899744916L394.146187188 87.8832128281L394.5822925 90.773069625L395.909949063 94.7807543594L398.09431 99.770987L403.59108 111.25654L393.57969 120.14006L389.88019252 123.793864102L386.739471406 127.670635937L384.178734902 131.716446055L382.21919125 135.877365L380.882048691 140.09946332L380.188515469 144.328811562L380.159799824 148.511480273L380.81711 152.59354L381.913460098 155.149655195L383.755083906 157.177314063L386.292040449 158.666992773L389.47438875 159.6091675L393.252187832 159.994314414L397.575496719 159.812909688L402.394374434 159.055429492L407.65888 157.71235L407.65888 157.71235M621.33094 130.5565L620.039248574 127.885969199L618.216430469 125.969284844L616.039787441 124.808251504L613.68662125 124.40467375L611.334233652 124.760356152L609.159926406 125.877103281L607.34100127 127.756719707L606.05476 130.40101L605.79946875 132.490551875L606.13664 134.9822025L607.00514875 137.616101875L608.34387 140.13239L611.96672 145.66155L617.34037 140.28789L619.678206719 137.61529875L621.10029625 135.1568775L621.640065156 132.83112L621.33094 130.55652L621.33094 130.5565M538.49748 116.13715L538.1982375 98.6935215L537.87432 93.387108625L537.47877 91.438208L536.824660625 91.9381994375L535.7967475 93.29956325L533.1833 97.774745L532.204587178 100.080144535L531.408487109 102.799018389L530.341690625 109.166889297L529.938041328 116.257758213L530.15267 123.451025625L530.940707422 130.126092021L532.257284375 135.662357891L533.099753545 137.80950328L534.057531641 139.439223721L535.12501001 140.473944274L536.29658 140.83609L536.785959766 140.407753574L537.220599375 139.146981719L537.9127 134.27355625L538.346965625 126.506662656L538.49748 116.13715L538.49748 116.13715M683.18971 133.85596L683.969768301 129.820751008L684.427781406 125.008214313L684.44747125 114.4097095L684.044047598 109.303017227L683.388377969 104.777548938L682.497912168 101.172942555L681.3901 98.828836L680.438863984 97.7045041426L679.697336875 97.2452407031L679.139026328 97.5977953809L678.73744 98.908917875L678.298470625 104.993865109L678.16849 116.67408L678.5146375 129.627052656L678.957806875 134.085620449L679.55821 137.12079875L680.298724375 138.674004707L680.7161725 138.876560916L681.1622275 138.686655469L682.131596875 137.100168184L683.18971 133.85596L683.18971 133.85596M611.33219 119.35875L613.912597188 119.622564688L616.7428125 120.34087L619.479971563 121.403957813L621.78121 122.70212L626.55458 126.04552L626.55458 106.52673L626.448079473 99.0823498555L626.076698281 93.3652668438L625.362617012 89.2701587227L624.22801625 86.69170325L623.478702493 85.9383070562L622.595076582 85.5245781836L621.567411091 85.4373513521L620.385978594 85.6634612813L617.522902871 87.0030303008L613.92803 89.437963L610.200283125 92.021451125L608.819817734 92.7143890938L607.604695 93.024591L606.437217891 92.9644078437L605.199689375 92.546190625L602.04369 90.685058L597.8878725 88.18329775L595.488 87.14274L595.041696406 88.7650001719L594.67621375 93.182047125L594.33857 107.7021L594.33857 128.26145L599.99755 123.81011L602.642666094 122.081725313L605.66142375 120.6663325L608.681904531 119.709988438L611.33219 119.35875L611.33219 119.35875M576.10346 93.249847L578.346334531 89.2893098438L580.59621875 85.8986465L582.591671094 83.4381901563L584.07125 82.268274L585.53607959 81.5364823789L586.022655469 80.7668266563L585.591637051 79.986069293L584.30368375 79.22097275L579.399610156 77.8448119688L571.79571 76.852444L566.607339375 76.6618047813L561.533175 76.90530775L557.041768125 77.5399638438L553.60167 78.522784L547.20683 81.171614L553.92043 91.137302L559.62270375 99.294561125L563.90483 104.9123L565.161849277 106.304748686L566.226447969 107.139956359L567.233094863 107.289364197L568.31625875 106.624413375L569.610408418 105.016545068L571.250012656 102.337200453L576.10346 93.249847L576.10346 93.249847M660.02906 96.27061L666.87638 82.680414L666.987196765 81.8462584336L666.54245834 81.0440607188L664.211061094 79.56848025L660.331678613 78.3195554062L655.35380125 77.363169L649.726919355 76.7652038437L643.900523281 76.59154275L638.324103379 76.9080685313L633.44715 77.780664L630.769058906 78.5808813438L629.78003625 79.31113775L630.408517969 80.3158247813L632.58294 81.939334L634.727747969 83.9829162969L637.56944375 87.447127875L640.737897656 91.8476310156L643.86298 96.700088L649.36032625 105.11858475L651.340220781 107.679519031L652.43266 108.62008L653.448319063 107.645628437L655.21911 104.99242L660.02906 96.27061L660.02906 96.27061"
     style="fill:none;stroke:#ff0000"
     id="path4723" />
</svg>
