<?xml version="1.0" encoding="UTF-8" standalone="no"?>
<!-- Created with Inkscape (http://www.inkscape.org/) -->

<svg
   xmlns:dc="http://purl.org/dc/elements/1.1/"
   xmlns:cc="http://creativecommons.org/ns#"
   xmlns:rdf="http://www.w3.org/1999/02/22-rdf-syntax-ns#"
   xmlns:svg="http://www.w3.org/2000/svg"
   xmlns="http://www.w3.org/2000/svg"
   xmlns:sodipodi="http://sodipodi.sourceforge.net/DTD/sodipodi-0.dtd"
   xmlns:inkscape="http://www.inkscape.org/namespaces/inkscape"
   id="svg6573"
   version="1.1"
   inkscape:version="0.91 r13725"
   width="750"
   height="750"
   viewBox="0 0 750 750"
   sodipodi:docname="hare_hat.svg">
  <metadata
     id="metadata6579">
    <rdf:RDF>
      <cc:Work
         rdf:about="">
        <dc:format>image/svg+xml</dc:format>
        <dc:type
           rdf:resource="http://purl.org/dc/dcmitype/StillImage" />
        <dc:title></dc:title>
      </cc:Work>
    </rdf:RDF>
  </metadata>
  <defs
     id="defs6577">
    <filter
       inkscape:label="Invert"
       inkscape:menu="Image Effects"
       inkscape:menu-tooltip="Sharpen edges and boundaries within the object, force=0.15"
       style="color-interpolation-filters:sRGB;"
       id="filter7123">
      <feConvolveMatrix
         order="3 3"
         kernelMatrix="0 -0.15 0 -0.15 1.6 -0.15 0 -0.15 0"
         divisor="1"
         in="SourceGraphic"
         targetX="1"
         targetY="1"
         id="feConvolveMatrix7125"
         result="fbSourceGraphic" />
      <feColorMatrix
         result="fbSourceGraphicAlpha"
         in="fbSourceGraphic"
         values="0 0 0 -1 0 0 0 0 -1 0 0 0 0 -1 0 0 0 0 1 0"
         id="feColorMatrix7191" />
      <feColorMatrix
         id="feColorMatrix7193"
         type="hueRotate"
         values="180"
         result="color1"
         in="fbSourceGraphic" />
      <feColorMatrix
         id="feColorMatrix7195"
         values="-1 0 0 0 1 0 -1 0 0 1 0 0 -1 0 1 -0.21 -0.72 -0.07 2 0 "
         result="color2" />
    </filter>
  </defs>
  <sodipodi:namedview
     pagecolor="#ffffff"
     bordercolor="#666666"
     borderopacity="1"
     objecttolerance="10"
     gridtolerance="10"
     guidetolerance="10"
     inkscape:pageopacity="0"
     inkscape:pageshadow="2"
     inkscape:window-width="1360"
     inkscape:window-height="746"
     id="namedview6575"
     showgrid="false"
     inkscape:zoom="1.7800235"
     inkscape:cx="145.19942"
     inkscape:cy="313.40762"
     inkscape:window-x="1432"
     inkscape:window-y="-8"
     inkscape:window-maximized="1"
     inkscape:current-layer="svg6573" />
  <g
     id="g7232"
     transform="matrix(0.81964504,0.44560497,-0.44560497,0.81964504,104.72908,9.0886772)" />
  <path
     inkscape:connector-curvature="0"
     id="path7207"
     style="fill:none;stroke:#ff0000;stroke-width:0.33057019;stroke-miterlimit:4;stroke-dasharray:none"
     d="m 256.68277,486.18874 a 3.4067678,3.4067678 0 0 1 -4.62023,1.36587 3.4067678,3.4067678 0 0 1 -1.36586,-4.62024 3.4067678,3.4067678 0 0 1 4.62023,-1.36586 3.4067678,3.4067678 0 0 1 1.36586,4.62023 z m 5.15178,155.67077 c -0.0428,1.5742 -0.23868,3.17432 -0.74646,4.66499 -0.73233,2.14987 -2.28158,3.93379 -3.25437,5.98609 -0.67759,1.42958 -2.00338,2.82664 -1.79256,4.39456 0.11464,0.85266 0.75327,1.78143 1.57144,2.04745 1.29229,0.4202 2.63855,-0.67462 3.90943,-1.15572 2.33654,-0.88452 4.43266,-2.3482 6.79285,-3.16754 2.1039,-0.73037 4.28315,-1.34821 6.50231,-1.53578 2.68707,-0.22713 5.51741,-0.34682 8.07375,0.51167 1.91178,0.64203 3.66275,1.8709 5.04506,3.33934 1.26304,1.34175 2.3484,2.99115 2.76736,4.7856 0.28436,1.21795 0.99983,3.63123 -0.24578,3.74406 -8.08293,0.73216 -16.27021,0.36598 -24.40672,0.45215 -27.48026,0.29101 -82.44509,0.21893 -82.44509,0.21893 0,0 -2.06706,-0.53626 -2.53257,-1.37685 -0.70052,-1.26493 -0.35917,-3.02582 0.26588,-4.32969 0.91952,-1.91817 2.88,-3.22795 4.72074,-4.29405 2.19212,-1.26961 4.70002,-2.31729 7.23322,-2.33155 2.67245,-0.015 5.12116,1.53313 7.65804,2.37364 2.09938,0.69556 4.19884,1.39768 6.25654,2.20827 1.87636,0.73916 3.52902,2.41898 5.54572,2.4184 0.99598,-2.8e-4 2.22171,-0.3443 2.73815,-1.19592 0.5906,-0.97385 0.20187,-2.35684 -0.23478,-3.40876 -0.96424,-2.32292 -3.72716,-3.49228 -4.96465,-5.68189 -1.30718,-2.31291 -2.01358,-4.96578 -2.43662,-7.58862 -0.42963,-2.66364 -0.43274,-5.41975 -0.074,-8.09385 0.36915,-2.75147 1.30177,-5.41111 2.26857,-8.01344 0.97538,-2.62543 2.28462,-5.11667 3.54492,-7.61784 0.62897,-1.24813 1.7196,-2.31507 2.00269,-3.68375 0.31897,-1.54214 -0.21932,-3.14388 -0.42481,-4.7052 -0.34892,-2.65105 -1.22558,-5.23383 -1.37042,-7.90382 -0.14607,-2.69269 -0.0302,-5.43211 0.51167,-8.07375 0.67528,-3.29199 1.88275,-6.48886 3.37498,-9.49991 1.4399,-2.90544 4.41067,-5.03118 5.32194,-8.14316 0.50548,-1.72623 0.0134,-3.59829 -0.0493,-5.39591 -0.0288,-0.82359 0.32669,-1.79537 -0.14983,-2.46772 -0.50763,-0.71624 -1.55449,-0.9292 -2.42752,-1.02144 -1.23465,-0.13044 -2.45013,0.97773 -3.65909,0.69525 -1.72027,-0.40196 -2.98041,-1.94448 -4.22918,-3.19406 -0.74611,-0.74658 -1.26762,-1.68803 -1.90674,-2.52803 -0.52094,-0.68468 -0.0623,-0.97942 -0.86451,-1.29028 -0.52155,-0.20209 -1.09558,0.053 -1.42275,-0.40063 -0.91974,-1.27529 0.76486,-2.73344 1.31701,-4.20566 0.44664,-1.19088 0.42604,-2.51841 0.83142,-3.72395 0.80932,-2.40683 1.89515,-4.73076 3.16941,-6.92713 1.06023,-1.82752 2.20212,-3.65482 3.69474,-5.15013 1.84931,-1.85264 4.07205,-3.34026 6.3726,-4.58914 2.6147,-1.41942 5.62567,-1.96962 8.31952,-3.23239 1.03127,-0.48341 2.46402,-0.6454 2.9885,-1.6564 0.63604,-1.226 -0.24653,-2.75271 -0.44493,-4.11956 -0.49971,-3.44272 -1.57123,-6.80102 -1.87564,-10.26647 -0.35565,-4.04891 -0.762,-8.2142 0.0667,-12.19331 0.76919,-3.69315 2.55722,-7.14414 4.4613,-10.40075 1.42804,-2.44236 3.17105,-4.72616 5.15656,-6.74166 0.46687,-0.47392 0.92665,-1.05532 1.56687,-1.23613 0.90541,-0.2557 2.80302,0.33075 2.80302,0.33075 0,0 -0.76907,-2.19943 -0.59019,-3.3037 0.23746,-1.46589 1.11112,-2.83164 2.12786,-3.91398 1.09793,-1.16877 2.4914,-2.3036 4.07481,-2.55724 2.05022,-0.32841 4.13748,0.12375 5.8022,1.36471 1.22512,0.91325 2.15361,2.61251 2.5712,4.08239 0.38492,1.35491 0.56446,2.8986 0.0895,4.22463 -0.42173,1.17746 -2.44306,2.84777 -2.44306,2.84777 0,0 1.91675,-1.91702 2.86333,-1.42616 2.43499,1.26274 1.16009,5.39244 1.24524,8.13406 0.10933,3.51961 -0.32535,7.05544 -0.94747,10.52136 -0.60268,3.35758 -1.41367,6.70964 -2.6843,9.87542 -1.39911,3.48588 -3.40841,6.70431 -5.38223,9.90007 -1.24701,2.01899 -3.07927,3.6846 -4.07024,5.84083 -0.90243,1.96355 -1.51976,4.11809 -1.62264,6.27664 -0.13641,2.86214 0.82023,5.67352 1.35031,8.48945 0.46975,2.49542 1.30398,4.92393 1.62075,7.44335 0.27847,2.21477 0.54224,4.48078 0.23935,6.69235 -0.31383,2.2914 -2.1032,6.61193 -2.1032,6.61193 l -1.12652,2.07211 c 0,0 2.79772,1.14848 3.91398,2.12786 1.52727,1.33998 2.81646,3.04934 3.58324,4.93088 1.31866,3.23574 1.12349,6.90001 1.52024,10.37154 0.68776,6.01786 0.94298,12.07763 1.48914,18.10998 0.77119,8.51773 1.65823,17.02463 2.52427,25.53324 0.34349,3.37473 1.15192,6.73027 1.05976,10.1212 z" />
  <path
     inkscape:connector-curvature="0"
     style="fill:none;fill-rule:evenodd;stroke:#000000;stroke-width:0.93294257px;stroke-linecap:butt;stroke-linejoin:miter;stroke-opacity:1"
     d="m 247.70348,489.90716 c -0.2261,-0.005 -0.43181,0.0736 -0.61406,0.27332 -0.68289,0.74832 0.92385,1.81308 1.22995,2.77879 0.29155,0.91974 0.54654,1.87245 0.56669,2.83709 0.0192,0.91805 -0.83135,1.89908 -0.42456,2.7223 0.27363,0.55375 1.03485,1.06068 1.62718,0.88556 0.82928,-0.24515 0.81258,-1.52724 1.23907,-2.27951 0.36169,-0.6379 0.33415,-1.48723 0.71246,-2.11552 0.51448,-0.85447 1.26263,-1.61119 1.92783,-2.35423 0,0 1.53018,-0.87534 1.10605,-1.48323 -0.17671,-0.2533 -0.65727,-0.39507 -0.96027,-0.33527 -0.98651,0.1946 -1.9217,0.76818 -2.92637,0.72703 -1.17064,-0.0479 -2.50415,-1.63413 -3.48397,-1.65633 z m -5.58125,4.3021 c -0.27712,0.004 -0.55071,0.0871 -0.73615,0.25328 -0.64076,0.57411 -0.27748,1.70004 -0.3371,2.5583 -0.0728,1.04753 0.209,2.12697 -0.0256,3.1505 -0.49738,2.17083 -2.11359,3.93881 -2.86078,6.03681 -0.89972,2.52631 -1.74758,5.13574 -1.92601,7.81156 -0.24509,3.67571 0.21995,7.43437 1.19897,10.98577 0.24622,0.89318 0.27575,2.2415 1.15707,2.52732 0.5543,0.17977 1.26514,-0.33493 1.52149,-0.85823 0.40759,-0.83205 -0.44934,-1.82611 -0.40269,-2.75145 0.11237,-2.22938 0.99533,-4.35487 1.63265,-6.49416 0.7509,-2.52057 2.00985,-4.88799 2.57652,-7.45625 0.62039,-2.81172 1.11767,-5.72588 0.87647,-8.5951 -0.20128,-2.39415 0.01,-5.5127 -1.91691,-6.94786 -0.1997,-0.14875 -0.4809,-0.22404 -0.75802,-0.22049 z m 13.88117,4.40233 c -0.73043,0.14037 -0.70966,1.32365 -0.90015,2.04263 -0.20565,0.77621 -0.3172,1.23574 -0.64687,1.96793 -0.31366,0.69667 -0.63476,1.55282 -1.15159,2.11552 -1.55049,1.68807 -3.31754,3.2007 -4.65014,5.06558 -1.72377,2.41227 -3.18898,5.04461 -4.24927,7.81339 -1.09848,2.86855 -1.91182,5.90123 -2.13191,8.965 -0.12767,1.77708 0.57847,3.54534 0.48104,5.32433 -0.0459,0.83888 -0.94495,1.75684 -0.49926,2.46902 0.2702,0.43181 1.02313,0.60867 1.47958,0.38265 0.5563,-0.27545 0.49498,-1.13853 0.72158,-1.71646 0.456,-1.16297 0.63614,-2.45053 1.28097,-3.52041 1.08271,-1.7963 2.92672,-3.01646 4.22375,-4.66471 1.91941,-2.43915 3.94995,-4.87499 5.2387,-7.69859 1.08234,-2.3714 1.74075,-4.96475 2.00254,-7.5583 0.21172,-2.09761 -0.33989,-4.20746 -0.36443,-6.31559 -0.0145,-1.24297 0.58875,-2.57197 0.12755,-3.7263 -0.16682,-0.4176 -0.52049,-1.03059 -0.96209,-0.94569 z m -27.05352,46.53051 c -0.40792,0.0166 -0.82333,0.0961 -1.20991,0.18039 -0.90048,0.19626 -1.83692,0.53708 -2.50182,1.17528 -0.86666,0.83187 -2.01464,2.04901 -1.66362,3.19789 0.18505,0.60567 1.09682,0.63613 1.66909,0.90743 0.53609,0.25411 1.0634,0.56515 1.64723,0.67055 0.59712,0.10784 1.26639,0.19298 1.82033,-0.0547 0.84631,-0.37836 1.46274,-1.20612 1.91508,-2.0153 0.40575,-0.72589 0.81019,-1.59683 0.63958,-2.41071 -0.12648,-0.60341 -0.5975,-1.17646 -1.1516,-1.44679 -0.35559,-0.17349 -0.75645,-0.22068 -1.16436,-0.20408 z"
     id="path7209" />
  <path
     style="fill:none;stroke:#ff0000;stroke-width:0.96521723;stroke-miterlimit:4;stroke-dasharray:none"
     d="M 243.1875 337.36719 C 240.12619 337.40439 236.01032 338.07321 224.13867 340.46289 C 218.24761 341.71458 209.11979 346.51396 204.69336 350.6875 C 199.65847 355.43472 194.80957 357.61046 197.29297 367.07422 C 203.31036 411.01398 200.26057 410.67838 198.80469 420.57812 C 197.25994 427.26373 197.03776 427.305 191.53125 430.92773 C 184.6818 435.16092 182.01478 438.86932 182.14844 443.9668 C 182.41123 453.98872 199.42227 463.87997 219.46289 466.27734 C 239.50351 468.67471 262.91937 468.7682 282.73633 461.46484 C 285.17416 460.5664 288.55031 459.20715 289.58398 458.78711 C 292.45045 457.6223 291.51103 458.12736 295.08984 455.82422 C 299.95918 452.69056 302.67375 448.48815 302.66797 444.73047 C 302.66297 441.55935 298.72906 436.19168 296.7793 434.58594 C 292.7235 431.69853 290.40229 427.73462 287.81836 421.39844 C 285.88005 411.32286 286.17277 384.96489 288.35547 373.07227 C 289.37681 367.50766 289.88094 361.63066 289.47461 360.01172 C 288.34076 355.49405 280.00222 347.19099 273.31641 343.91992 C 270.01316 342.30382 263.96451 340.3002 259.87305 339.4668 L 252.43359 337.95117 C 248.38165 337.77607 246.44116 337.47124 244.45508 337.38867 C 244.04131 337.37147 243.62484 337.36189 243.1875 337.36719 z M 242.40625 341.0293 A 3.0606983 3.0606985 0 0 1 245.4668 344.08984 A 3.0606983 3.0606985 0 0 1 242.40625 347.15039 A 3.0606983 3.0606985 0 0 1 239.3457 344.08984 A 3.0606983 3.0606985 0 0 1 242.40625 341.0293 z M 244.39844 428.46094 C 261.77089 428.44744 278.30213 431.30857 282.875 436.80469 C 287.25767 440.86466 290.27103 447.62905 285.91016 452.40039 C 281.5493 457.17175 263.92773 461.34961 263.92773 461.34961 C 257.37232 463.14546 232.97944 464.20325 223.08984 462.35938 C 206.84937 459.33137 195.26367 452.59511 195.26367 446.18164 C 195.26367 442.61185 199.04211 437.98622 204.08789 435.37695 C 213.08791 430.72285 229.06982 428.47281 244.39844 428.46094 z "
     id="path7293" />
</svg>
