  0
SECTION
  2
HEADER
  9
$ACADVER
  1
AC1014
  9
$HANDSEED
  5
FFFF
  9
$MEASUREMENT
 70
     1
  0
ENDSEC
  0
SECTION
  2
TABLES
  0
TABLE
  2
VPORT
  5
8
330
0
100
AcDbSymbolTable
 70
     4
  0
VPORT
  5
2E
330
8
100
AcDbSymbolTableRecord
100
AcDbViewportTableRecord
  2
*ACTIVE
 70
     0
 10
0.0
 20
0.0
 11
1.0
 21
1.0
 12
210.0
 22
148.5
 13
0.0
 23
0.0
 14
10.0
 24
10.0
 15
10.0
 25
10.0
 16
0.0
 26
0.0
 36
1.0
 17
0.0
 27
0.0
 37
0.0
 40
341.0
 41
1.24
 42
50.0
 43
0.0
 44
0.0
 50
0.0
 51
0.0
 71
     0
 72
   100
 73
     1
 74
     3
 75
     0
 76
     0
 77
     0
 78
     0
  0
ENDTAB
  0
TABLE
  2
LTYPE
  5
5
330
0
100
AcDbSymbolTable
 70
     1
  0
LTYPE
  5
14
330
5
100
AcDbSymbolTableRecord
100
AcDbLinetypeTableRecord
  2
BYBLOCK
 70
     0
  3

 72
    65
 73
     0
 40
0.0
  0
LTYPE
  5
15
330
5
100
AcDbSymbolTableRecord
100
AcDbLinetypeTableRecord
  2
BYLAYER
 70
     0
  3

 72
    65
 73
     0
 40
0.0
  0
LTYPE
  5
16
330
5
100
AcDbSymbolTableRecord
100
AcDbLinetypeTableRecord
  2
CONTINUOUS
 70
     0
  3
Solid line
 72
    65
 73
     0
 40
0.0
  0
ENDTAB
  0
TABLE
  2
LAYER
  5
2
100
AcDbSymbolTable
 70
1
  0
LAYER
  5
50
100
AcDbSymbolTableRecord
100
AcDbLayerTableRecord
  2
0
 70
0
  6
CONTINUOUS
  0
ENDTAB
  0
TABLE
  2
STYLE
  5
3
330
0
100
AcDbSymbolTable
 70
     1
  0
STYLE
  5
11
330
3
100
AcDbSymbolTableRecord
100
AcDbTextStyleTableRecord
  2
STANDARD
 70
     0
 40
0.0
 41
1.0
 50
0.0
 71
     0
 42
2.5
  3
txt
  4

  0
ENDTAB
  0
TABLE
  2
VIEW
  5
6
330
0
100
AcDbSymbolTable
 70
     0
  0
ENDTAB
  0
TABLE
  2
UCS
  5
7
330
0
100
AcDbSymbolTable
 70
     0
  0
ENDTAB
  0
TABLE
  2
APPID
  5
9
330
0
100
AcDbSymbolTable
 70
     2
  0
APPID
  5
12
330
9
100
AcDbSymbolTableRecord
100
AcDbRegAppTableRecord
  2
ACAD
 70
     0
  0
ENDTAB
  0
TABLE
  2
DIMSTYLE
  5
A
330
0
100
AcDbSymbolTable
 70
     1
  0
DIMSTYLE
105
27
330
A
100
AcDbSymbolTableRecord
100
AcDbDimStyleTableRecord
  2
ISO-25
 70
     0
  3

  4

  5

  6

  7

 40
1.0
 41
2.5
 42
0.625
 43
3.75
 44
1.25
 45
0.0
 46
0.0
 47
0.0
 48
0.0
140
2.5
141
2.5
142
0.0
143
0.03937007874016
144
1.0
145
0.0
146
1.0
147
0.625
 71
     0
 72
     0
 73
     0
 74
     0
 75
     0
 76
     0
 77
     1
 78
     8
170
     0
171
     3
172
     1
173
     0
174
     0
175
     0
176
     0
177
     0
178
     0
270
     2
271
     2
272
     2
273
     2
274
     3
340
11
275
     0
280
     0
281
     0
282
     0
283
     0
284
     8
285
     0
286
     0
287
     3
288
     0
  0
ENDTAB
  0
TABLE
  2
BLOCK_RECORD
  5
1
330
0
100
AcDbSymbolTable
 70
     1
  0
BLOCK_RECORD
  5
1F
330
1
100
AcDbSymbolTableRecord
100
AcDbBlockTableRecord
  2
*MODEL_SPACE
  0
BLOCK_RECORD
  5
1B
330
1
100
AcDbSymbolTableRecord
100
AcDbBlockTableRecord
  2
*PAPER_SPACE
  0
ENDTAB
  0
ENDSEC
  0
SECTION
  2
BLOCKS
  0
BLOCK
  5
20
330
1F
100
AcDbEntity
  8
0
100
AcDbBlockBegin
  2
*MODEL_SPACE
 70
     0
 10
0.0
 20
0.0
 30
0.0
  3
*MODEL_SPACE
  1

  0
ENDBLK
  5
21
330
1F
100
AcDbEntity
  8
0
100
AcDbBlockEnd
  0
BLOCK
  5
1C
330
1B
100
AcDbEntity
 67
     1
  8
0
100
AcDbBlockBegin
  2
*PAPER_SPACE
  1

  0
ENDBLK
  5
1D
330
1B
100
AcDbEntity
 67
     1
  8
0
100
AcDbBlockEnd
  0
ENDSEC
  0
SECTION
  2
ENTITIES
  0
SPLINE
  5
100
100
AcDbEntity
  8
0
 62
1
100
AcDbSpline
 70
8
 71
3
 72
8
 73
4
 74
0
 40
0
 40
0
 40
0
 40
0
 40
1
 40
1
 40
1
 40
1
 10
72.441582
 20
74.453400
 30
0.0
 10
72.187958
 20
73.986882
 30
0.0
 10
71.604168
 20
73.814298
 30
0.0
 10
71.137650
 20
74.067921
 30
0.0
  0
SPLINE
  5
101
100
AcDbEntity
  8
0
 62
1
100
AcDbSpline
 70
8
 71
3
 72
8
 73
4
 74
0
 40
0
 40
0
 40
0
 40
0
 40
1
 40
1
 40
1
 40
1
 10
71.137650
 20
74.067921
 30
0.0
 10
70.913620
 20
74.189716
 30
0.0
 10
70.747149
 20
74.395518
 30
0.0
 10
70.674858
 20
74.640054
 30
0.0
  0
SPLINE
  5
102
100
AcDbEntity
  8
0
 62
1
100
AcDbSpline
 70
8
 71
3
 72
8
 73
4
 74
0
 40
0
 40
0
 40
0
 40
0
 40
1
 40
1
 40
1
 40
1
 10
70.674858
 20
74.640054
 30
0.0
 10
70.602567
 20
74.884589
 30
0.0
 10
70.630379
 20
75.147826
 30
0.0
 10
70.752174
 20
75.371856
 30
0.0
  0
SPLINE
  5
103
100
AcDbEntity
  8
0
 62
1
100
AcDbSpline
 70
8
 71
3
 72
8
 73
4
 74
0
 40
0
 40
0
 40
0
 40
0
 40
1
 40
1
 40
1
 40
1
 10
70.752174
 20
75.371856
 30
0.0
 10
71.005799
 20
75.838372
 30
0.0
 10
71.589589
 20
76.010956
 30
0.0
 10
72.056106
 20
75.757332
 30
0.0
  0
SPLINE
  5
104
100
AcDbEntity
  8
0
 62
1
100
AcDbSpline
 70
8
 71
3
 72
8
 73
4
 74
0
 40
0
 40
0
 40
0
 40
0
 40
1
 40
1
 40
1
 40
1
 10
72.056106
 20
75.757332
 30
0.0
 10
72.522622
 20
75.503707
 30
0.0
 10
72.695206
 20
74.919917
 30
0.0
 10
72.441582
 20
74.453400
 30
0.0
  0
SPLINE
  5
105
100
AcDbEntity
  8
0
 62
1
100
AcDbSpline
 70
8
 71
3
 72
8
 73
4
 74
0
 40
0
 40
0
 40
0
 40
0
 40
1
 40
1
 40
1
 40
1
 10
73.895529
 20
30.519649
 30
0.0
 10
73.883449
 20
30.075375
 30
0.0
 10
73.828168
 20
29.623786
 30
0.0
 10
73.684861
 20
29.203086
 30
0.0
  0
SPLINE
  5
106
100
AcDbEntity
  8
0
 62
1
100
AcDbSpline
 70
8
 71
3
 72
8
 73
4
 74
0
 40
0
 40
0
 40
0
 40
0
 40
1
 40
1
 40
1
 40
1
 10
73.684861
 20
29.203086
 30
0.0
 10
73.478181
 20
28.596344
 30
0.0
 10
73.040948
 20
28.092883
 30
0.0
 10
72.766405
 20
27.513678
 30
0.0
  0
SPLINE
  5
107
100
AcDbEntity
  8
0
 62
1
100
AcDbSpline
 70
8
 71
3
 72
8
 73
4
 74
0
 40
0
 40
0
 40
0
 40
0
 40
1
 40
1
 40
1
 40
1
 10
72.766405
 20
27.513678
 30
0.0
 10
72.575174
 20
27.110219
 30
0.0
 10
72.201007
 20
26.715937
 30
0.0
 10
72.260505
 20
26.273435
 30
0.0
  0
SPLINE
  5
108
100
AcDbEntity
  8
0
 62
1
100
AcDbSpline
 70
8
 71
3
 72
8
 73
4
 74
0
 40
0
 40
0
 40
0
 40
0
 40
1
 40
1
 40
1
 40
1
 10
72.260505
 20
26.273435
 30
0.0
 10
72.292859
 20
26.032796
 30
0.0
 10
72.473095
 20
25.770676
 30
0.0
 10
72.704000
 20
25.695600
 30
0.0
  0
SPLINE
  5
109
100
AcDbEntity
  8
0
 62
1
100
AcDbSpline
 70
8
 71
3
 72
8
 73
4
 74
0
 40
0
 40
0
 40
0
 40
0
 40
1
 40
1
 40
1
 40
1
 10
72.704000
 20
25.695600
 30
0.0
 10
73.068713
 20
25.577010
 30
0.0
 10
73.448658
 20
25.885992
 30
0.0
 10
73.807328
 20
26.021769
 30
0.0
  0
SPLINE
  5
10a
100
AcDbEntity
  8
0
 62
1
100
AcDbSpline
 70
8
 71
3
 72
8
 73
4
 74
0
 40
0
 40
0
 40
0
 40
0
 40
1
 40
1
 40
1
 40
1
 10
73.807328
 20
26.021769
 30
0.0
 10
74.466752
 20
26.271401
 30
0.0
 10
75.058324
 20
26.684484
 30
0.0
 10
75.724422
 20
26.915720
 30
0.0
  0
SPLINE
  5
10b
100
AcDbEntity
  8
0
 62
1
100
AcDbSpline
 70
8
 71
3
 72
8
 73
4
 74
0
 40
0
 40
0
 40
0
 40
0
 40
1
 40
1
 40
1
 40
1
 10
75.724422
 20
26.915720
 30
0.0
 10
76.318189
 20
27.121846
 30
0.0
 10
76.933222
 20
27.296214
 30
0.0
 10
77.559518
 20
27.349151
 30
0.0
  0
SPLINE
  5
10c
100
AcDbEntity
  8
0
 62
1
100
AcDbSpline
 70
8
 71
3
 72
8
 73
4
 74
0
 40
0
 40
0
 40
0
 40
0
 40
1
 40
1
 40
1
 40
1
 10
77.559518
 20
27.349151
 30
0.0
 10
78.317869
 20
27.413252
 30
0.0
 10
79.116654
 20
27.447031
 30
0.0
 10
79.838110
 20
27.204746
 30
0.0
  0
SPLINE
  5
10d
100
AcDbEntity
  8
0
 62
1
100
AcDbSpline
 70
8
 71
3
 72
8
 73
4
 74
0
 40
0
 40
0
 40
0
 40
0
 40
1
 40
1
 40
1
 40
1
 10
79.838110
 20
27.204746
 30
0.0
 10
80.377657
 20
27.023551
 30
0.0
 10
80.871819
 20
26.676737
 30
0.0
 10
81.261938
 20
26.262310
 30
0.0
  0
SPLINE
  5
10e
100
AcDbEntity
  8
0
 62
1
100
AcDbSpline
 70
8
 71
3
 72
8
 73
4
 74
0
 40
0
 40
0
 40
0
 40
0
 40
1
 40
1
 40
1
 40
1
 10
81.261938
 20
26.262310
 30
0.0
 10
81.618396
 20
25.883639
 30
0.0
 10
81.924708
 20
25.418141
 30
0.0
 10
82.042948
 20
24.911708
 30
0.0
  0
SPLINE
  5
10f
100
AcDbEntity
  8
0
 62
1
100
AcDbSpline
 70
8
 71
3
 72
8
 73
4
 74
0
 40
0
 40
0
 40
0
 40
0
 40
1
 40
1
 40
1
 40
1
 10
82.042948
 20
24.911708
 30
0.0
 10
82.123201
 20
24.567975
 30
0.0
 10
82.325123
 20
23.886894
 30
0.0
 10
81.973584
 20
23.855051
 30
0.0
  0
SPLINE
  5
110
100
AcDbEntity
  8
0
 62
1
100
AcDbSpline
 70
8
 71
3
 72
8
 73
4
 74
0
 40
0
 40
0
 40
0
 40
0
 40
1
 40
1
 40
1
 40
1
 10
81.973584
 20
23.855051
 30
0.0
 10
79.692401
 20
23.648419
 30
0.0
 10
77.381769
 20
23.751763
 30
0.0
 10
75.085465
 20
23.727444
 30
0.0
  0
SPLINE
  5
111
100
AcDbEntity
  8
0
 62
1
100
AcDbSpline
 70
8
 71
3
 72
8
 73
4
 74
0
 40
0
 40
0
 40
0
 40
0
 40
1
 40
1
 40
1
 40
1
 10
75.085465
 20
23.727444
 30
0.0
 10
67.329925
 20
23.645314
 30
0.0
 10
51.817628
 20
23.665657
 30
0.0
 10
51.817628
 20
23.665657
 30
0.0
  0
SPLINE
  5
112
100
AcDbEntity
  8
0
 62
1
100
AcDbSpline
 70
8
 71
3
 72
8
 73
4
 74
0
 40
0
 40
0
 40
0
 40
0
 40
1
 40
1
 40
1
 40
1
 10
51.817628
 20
23.665657
 30
0.0
 10
51.817628
 20
23.665657
 30
0.0
 10
51.234258
 20
23.817001
 30
0.0
 10
51.102881
 20
24.054235
 30
0.0
  0
SPLINE
  5
113
100
AcDbEntity
  8
0
 62
1
100
AcDbSpline
 70
8
 71
3
 72
8
 73
4
 74
0
 40
0
 40
0
 40
0
 40
0
 40
1
 40
1
 40
1
 40
1
 10
51.102881
 20
24.054235
 30
0.0
 10
50.905179
 20
24.411226
 30
0.0
 10
51.001515
 20
24.908188
 30
0.0
 10
51.177918
 20
25.276169
 30
0.0
  0
SPLINE
  5
114
100
AcDbEntity
  8
0
 62
1
100
AcDbSpline
 70
8
 71
3
 72
8
 73
4
 74
0
 40
0
 40
0
 40
0
 40
0
 40
1
 40
1
 40
1
 40
1
 10
51.177918
 20
25.276169
 30
0.0
 10
51.437427
 20
25.817520
 30
0.0
 10
51.990718
 20
26.187169
 30
0.0
 10
52.510216
 20
26.488046
 30
0.0
  0
SPLINE
  5
115
100
AcDbEntity
  8
0
 62
1
100
AcDbSpline
 70
8
 71
3
 72
8
 73
4
 74
0
 40
0
 40
0
 40
0
 40
0
 40
1
 40
1
 40
1
 40
1
 10
52.510216
 20
26.488046
 30
0.0
 10
53.128881
 20
26.846358
 30
0.0
 10
53.836666
 20
27.142036
 30
0.0
 10
54.551591
 20
27.146061
 30
0.0
  0
SPLINE
  5
116
100
AcDbEntity
  8
0
 62
1
100
AcDbSpline
 70
8
 71
3
 72
8
 73
4
 74
0
 40
0
 40
0
 40
0
 40
0
 40
1
 40
1
 40
1
 40
1
 10
54.551591
 20
27.146061
 30
0.0
 10
55.305816
 20
27.150294
 30
0.0
 10
55.996896
 20
26.713378
 30
0.0
 10
56.712860
 20
26.476167
 30
0.0
  0
SPLINE
  5
117
100
AcDbEntity
  8
0
 62
1
100
AcDbSpline
 70
8
 71
3
 72
8
 73
4
 74
0
 40
0
 40
0
 40
0
 40
0
 40
1
 40
1
 40
1
 40
1
 10
56.712860
 20
26.476167
 30
0.0
 10
57.305352
 20
26.279864
 30
0.0
 10
57.897866
 20
26.081711
 30
0.0
 10
58.478595
 20
25.852944
 30
0.0
  0
SPLINE
  5
118
100
AcDbEntity
  8
0
 62
1
100
AcDbSpline
 70
8
 71
3
 72
8
 73
4
 74
0
 40
0
 40
0
 40
0
 40
0
 40
1
 40
1
 40
1
 40
1
 10
58.478595
 20
25.852944
 30
0.0
 10
59.008145
 20
25.644337
 30
0.0
 10
59.474563
 20
25.170254
 30
0.0
 10
60.043720
 20
25.170418
 30
0.0
  0
SPLINE
  5
119
100
AcDbEntity
  8
0
 62
1
100
AcDbSpline
 70
8
 71
3
 72
8
 73
4
 74
0
 40
0
 40
0
 40
0
 40
0
 40
1
 40
1
 40
1
 40
1
 10
60.043720
 20
25.170418
 30
0.0
 10
60.324808
 20
25.170497
 30
0.0
 10
60.670736
 20
25.267587
 30
0.0
 10
60.816487
 20
25.507933
 30
0.0
  0
SPLINE
  5
11a
100
AcDbEntity
  8
0
 62
1
100
AcDbSpline
 70
8
 71
3
 72
8
 73
4
 74
0
 40
0
 40
0
 40
0
 40
0
 40
1
 40
1
 40
1
 40
1
 10
60.816487
 20
25.507933
 30
0.0
 10
60.983168
 20
25.782775
 30
0.0
 10
60.873459
 20
26.173086
 30
0.0
 10
60.750227
 20
26.469961
 30
0.0
  0
SPLINE
  5
11b
100
AcDbEntity
  8
0
 62
1
100
AcDbSpline
 70
8
 71
3
 72
8
 73
4
 74
0
 40
0
 40
0
 40
0
 40
0
 40
1
 40
1
 40
1
 40
1
 10
60.750227
 20
26.469961
 30
0.0
 10
60.478097
 20
27.125541
 30
0.0
 10
59.698340
 20
27.455560
 30
0.0
 10
59.349092
 20
28.073517
 30
0.0
  0
SPLINE
  5
11c
100
AcDbEntity
  8
0
 62
1
100
AcDbSpline
 70
8
 71
3
 72
8
 73
4
 74
0
 40
0
 40
0
 40
0
 40
0
 40
1
 40
1
 40
1
 40
1
 10
59.349092
 20
28.073517
 30
0.0
 10
58.980177
 20
28.726271
 30
0.0
 10
58.780815
 20
29.474970
 30
0.0
 10
58.661424
 20
30.215194
 30
0.0
  0
SPLINE
  5
11d
100
AcDbEntity
  8
0
 62
1
100
AcDbSpline
 70
8
 71
3
 72
8
 73
4
 74
0
 40
0
 40
0
 40
0
 40
0
 40
1
 40
1
 40
1
 40
1
 10
58.661424
 20
30.215194
 30
0.0
 10
58.540173
 20
30.966932
 30
0.0
 10
58.539295
 20
31.744768
 30
0.0
 10
58.640540
 20
32.499458
 30
0.0
  0
SPLINE
  5
11e
100
AcDbEntity
  8
0
 62
1
100
AcDbSpline
 70
8
 71
3
 72
8
 73
4
 74
0
 40
0
 40
0
 40
0
 40
0
 40
1
 40
1
 40
1
 40
1
 10
58.640540
 20
32.499458
 30
0.0
 10
58.744722
 20
33.275984
 30
0.0
 10
59.007928
 20
34.026594
 30
0.0
 10
59.280781
 20
34.761029
 30
0.0
  0
SPLINE
  5
11f
100
AcDbEntity
  8
0
 62
1
100
AcDbSpline
 70
8
 71
3
 72
8
 73
4
 74
0
 40
0
 40
0
 40
0
 40
0
 40
1
 40
1
 40
1
 40
1
 10
59.280781
 20
34.761029
 30
0.0
 10
59.556055
 20
35.501984
 30
0.0
 10
59.925551
 20
36.205067
 30
0.0
 10
60.281236
 20
36.910953
 30
0.0
  0
SPLINE
  5
120
100
AcDbEntity
  8
0
 62
1
100
AcDbSpline
 70
8
 71
3
 72
8
 73
4
 74
0
 40
0
 40
0
 40
0
 40
0
 40
1
 40
1
 40
1
 40
1
 10
60.281236
 20
36.910953
 30
0.0
 10
60.458745
 20
37.263203
 30
0.0
 10
60.766545
 20
37.564317
 30
0.0
 10
60.846439
 20
37.950589
 30
0.0
  0
SPLINE
  5
121
100
AcDbEntity
  8
0
 62
1
100
AcDbSpline
 70
8
 71
3
 72
8
 73
4
 74
0
 40
0
 40
0
 40
0
 40
0
 40
1
 40
1
 40
1
 40
1
 10
60.846439
 20
37.950589
 30
0.0
 10
60.936460
 20
38.385815
 30
0.0
 10
60.784542
 20
38.837862
 30
0.0
 10
60.726549
 20
39.278501
 30
0.0
  0
SPLINE
  5
122
100
AcDbEntity
  8
0
 62
1
100
AcDbSpline
 70
8
 71
3
 72
8
 73
4
 74
0
 40
0
 40
0
 40
0
 40
0
 40
1
 40
1
 40
1
 40
1
 10
60.726549
 20
39.278501
 30
0.0
 10
60.628076
 20
40.026686
 30
0.0
 10
60.380663
 20
40.755604
 30
0.0
 10
60.339786
 20
41.509134
 30
0.0
  0
SPLINE
  5
123
100
AcDbEntity
  8
0
 62
1
100
AcDbSpline
 70
8
 71
3
 72
8
 73
4
 74
0
 40
0
 40
0
 40
0
 40
0
 40
1
 40
1
 40
1
 40
1
 10
60.339786
 20
41.509134
 30
0.0
 10
60.298561
 20
42.269071
 30
0.0
 10
60.331263
 20
43.042197
 30
0.0
 10
60.484190
 20
43.787726
 30
0.0
  0
SPLINE
  5
124
100
AcDbEntity
  8
0
 62
1
100
AcDbSpline
 70
8
 71
3
 72
8
 73
4
 74
0
 40
0
 40
0
 40
0
 40
0
 40
1
 40
1
 40
1
 40
1
 10
60.484190
 20
43.787726
 30
0.0
 10
60.674769
 20
44.716799
 30
0.0
 10
61.015544
 20
45.619027
 30
0.0
 10
61.436685
 20
46.468812
 30
0.0
  0
SPLINE
  5
125
100
AcDbEntity
  8
0
 62
1
100
AcDbSpline
 70
8
 71
3
 72
8
 73
4
 74
0
 40
0
 40
0
 40
0
 40
0
 40
1
 40
1
 40
1
 40
1
 10
61.436685
 20
46.468812
 30
0.0
 10
61.843056
 20
47.288791
 30
0.0
 10
62.681474
 20
47.888723
 30
0.0
 10
62.938654
 20
48.766992
 30
0.0
  0
SPLINE
  5
126
100
AcDbEntity
  8
0
 62
1
100
AcDbSpline
 70
8
 71
3
 72
8
 73
4
 74
0
 40
0
 40
0
 40
0
 40
0
 40
1
 40
1
 40
1
 40
1
 10
62.938654
 20
48.766992
 30
0.0
 10
63.081312
 20
49.254173
 30
0.0
 10
62.942436
 20
49.782510
 30
0.0
 10
62.924741
 20
50.289838
 30
0.0
  0
SPLINE
  5
127
100
AcDbEntity
  8
0
 62
1
100
AcDbSpline
 70
8
 71
3
 72
8
 73
4
 74
0
 40
0
 40
0
 40
0
 40
0
 40
1
 40
1
 40
1
 40
1
 10
62.924741
 20
50.289838
 30
0.0
 10
62.916613
 20
50.522274
 30
0.0
 10
63.016940
 20
50.796531
 30
0.0
 10
62.882455
 20
50.986284
 30
0.0
  0
SPLINE
  5
128
100
AcDbEntity
  8
0
 62
1
100
AcDbSpline
 70
8
 71
3
 72
8
 73
4
 74
0
 40
0
 40
0
 40
0
 40
0
 40
1
 40
1
 40
1
 40
1
 10
62.882455
 20
50.986284
 30
0.0
 10
62.739191
 20
51.188422
 30
0.0
 10
62.443744
 20
51.248524
 30
0.0
 10
62.197355
 20
51.274557
 30
0.0
  0
SPLINE
  5
129
100
AcDbEntity
  8
0
 62
1
100
AcDbSpline
 70
8
 71
3
 72
8
 73
4
 74
0
 40
0
 40
0
 40
0
 40
0
 40
1
 40
1
 40
1
 40
1
 10
62.197355
 20
51.274557
 30
0.0
 10
61.848910
 20
51.311370
 30
0.0
 10
61.505874
 20
50.998620
 30
0.0
 10
61.164679
 20
51.078342
 30
0.0
  0
SPLINE
  5
12a
100
AcDbEntity
  8
0
 62
1
100
AcDbSpline
 70
8
 71
3
 72
8
 73
4
 74
0
 40
0
 40
0
 40
0
 40
0
 40
1
 40
1
 40
1
 40
1
 10
61.164679
 20
51.078342
 30
0.0
 10
60.679180
 20
51.191784
 30
0.0
 10
60.323541
 20
51.627117
 30
0.0
 10
59.971110
 20
51.979776
 30
0.0
  0
SPLINE
  5
12b
100
AcDbEntity
  8
0
 62
1
100
AcDbSpline
 70
8
 71
3
 72
8
 73
4
 74
0
 40
0
 40
0
 40
0
 40
0
 40
1
 40
1
 40
1
 40
1
 10
59.971110
 20
51.979776
 30
0.0
 10
59.760541
 20
52.190478
 30
0.0
 10
59.613360
 20
52.456176
 30
0.0
 10
59.432986
 20
52.693243
 30
0.0
  0
SPLINE
  5
12c
100
AcDbEntity
  8
0
 62
1
100
AcDbSpline
 70
8
 71
3
 72
8
 73
4
 74
0
 40
0
 40
0
 40
0
 40
0
 40
1
 40
1
 40
1
 40
1
 10
59.432986
 20
52.693243
 30
0.0
 10
59.285965
 20
52.886475
 30
0.0
 10
59.415403
 20
52.969657
 30
0.0
 10
59.189002
 20
53.057388
 30
0.0
  0
SPLINE
  5
12d
100
AcDbEntity
  8
0
 62
1
100
AcDbSpline
 70
8
 71
3
 72
8
 73
4
 74
0
 40
0
 40
0
 40
0
 40
0
 40
1
 40
1
 40
1
 40
1
 10
59.189002
 20
53.057388
 30
0.0
 10
59.041809
 20
53.114423
 30
0.0
 10
58.879805
 20
53.042431
 30
0.0
 10
58.787470
 20
53.170455
 30
0.0
  0
SPLINE
  5
12e
100
AcDbEntity
  8
0
 62
1
100
AcDbSpline
 70
8
 71
3
 72
8
 73
4
 74
0
 40
0
 40
0
 40
0
 40
0
 40
1
 40
1
 40
1
 40
1
 10
58.787470
 20
53.170455
 30
0.0
 10
58.527899
 20
53.530370
 30
0.0
 10
59.003331
 20
53.941893
 30
0.0
 10
59.159160
 20
54.357386
 30
0.0
  0
SPLINE
  5
12f
100
AcDbEntity
  8
0
 62
1
100
AcDbSpline
 70
8
 71
3
 72
8
 73
4
 74
0
 40
0
 40
0
 40
0
 40
0
 40
1
 40
1
 40
1
 40
1
 10
59.159160
 20
54.357386
 30
0.0
 10
59.285211
 20
54.693479
 30
0.0
 10
59.279398
 20
55.068137
 30
0.0
 10
59.393805
 20
55.408367
 30
0.0
  0
SPLINE
  5
130
100
AcDbEntity
  8
0
 62
1
100
AcDbSpline
 70
8
 71
3
 72
8
 73
4
 74
0
 40
0
 40
0
 40
0
 40
0
 40
1
 40
1
 40
1
 40
1
 10
59.393805
 20
55.408367
 30
0.0
 10
59.622213
 20
56.087628
 30
0.0
 10
59.928658
 20
56.743493
 30
0.0
 10
60.288283
 20
57.363357
 30
0.0
  0
SPLINE
  5
131
100
AcDbEntity
  8
0
 62
1
100
AcDbSpline
 70
8
 71
3
 72
8
 73
4
 74
0
 40
0
 40
0
 40
0
 40
0
 40
1
 40
1
 40
1
 40
1
 10
60.288283
 20
57.363357
 30
0.0
 10
60.587503
 20
57.879124
 30
0.0
 10
60.909770
 20
58.394829
 30
0.0
 10
61.331021
 20
58.816838
 30
0.0
  0
SPLINE
  5
132
100
AcDbEntity
  8
0
 62
1
100
AcDbSpline
 70
8
 71
3
 72
8
 73
4
 74
0
 40
0
 40
0
 40
0
 40
0
 40
1
 40
1
 40
1
 40
1
 10
61.331021
 20
58.816838
 30
0.0
 10
61.852937
 20
59.339694
 30
0.0
 10
62.480244
 20
59.759534
 30
0.0
 10
63.129510
 20
60.111996
 30
0.0
  0
SPLINE
  5
133
100
AcDbEntity
  8
0
 62
1
100
AcDbSpline
 70
8
 71
3
 72
8
 73
4
 74
0
 40
0
 40
0
 40
0
 40
0
 40
1
 40
1
 40
1
 40
1
 10
63.129510
 20
60.111996
 30
0.0
 10
63.867436
 20
60.512587
 30
0.0
 10
64.717199
 20
60.667866
 30
0.0
 10
65.477463
 20
61.024248
 30
0.0
  0
SPLINE
  5
134
100
AcDbEntity
  8
0
 62
1
100
AcDbSpline
 70
8
 71
3
 72
8
 73
4
 74
0
 40
0
 40
0
 40
0
 40
0
 40
1
 40
1
 40
1
 40
1
 10
65.477463
 20
61.024248
 30
0.0
 10
65.768511
 20
61.160677
 30
0.0
 10
66.172865
 20
61.206394
 30
0.0
 10
66.320884
 20
61.491721
 30
0.0
  0
SPLINE
  5
135
100
AcDbEntity
  8
0
 62
1
100
AcDbSpline
 70
8
 71
3
 72
8
 73
4
 74
0
 40
0
 40
0
 40
0
 40
0
 40
1
 40
1
 40
1
 40
1
 10
66.320884
 20
61.491721
 30
0.0
 10
66.500389
 20
61.837725
 30
0.0
 10
66.251308
 20
62.268597
 30
0.0
 10
66.195315
 20
62.654352
 30
0.0
  0
SPLINE
  5
136
100
AcDbEntity
  8
0
 62
1
100
AcDbSpline
 70
8
 71
3
 72
8
 73
4
 74
0
 40
0
 40
0
 40
0
 40
0
 40
1
 40
1
 40
1
 40
1
 10
66.195315
 20
62.654352
 30
0.0
 10
66.054286
 20
63.625964
 30
0.0
 10
65.751879
 20
64.573751
 30
0.0
 10
65.665968
 20
65.551778
 30
0.0
  0
SPLINE
  5
137
100
AcDbEntity
  8
0
 62
1
100
AcDbSpline
 70
8
 71
3
 72
8
 73
4
 74
0
 40
0
 40
0
 40
0
 40
0
 40
1
 40
1
 40
1
 40
1
 10
65.665968
 20
65.551778
 30
0.0
 10
65.565596
 20
66.694471
 30
0.0
 10
65.450915
 20
67.870008
 30
0.0
 10
65.684792
 20
68.993001
 30
0.0
  0
SPLINE
  5
138
100
AcDbEntity
  8
0
 62
1
100
AcDbSpline
 70
8
 71
3
 72
8
 73
4
 74
0
 40
0
 40
0
 40
0
 40
0
 40
1
 40
1
 40
1
 40
1
 10
65.684792
 20
68.993001
 30
0.0
 10
65.901875
 20
70.035290
 30
0.0
 10
66.406497
 20
71.009236
 30
0.0
 10
66.943870
 20
71.928324
 30
0.0
  0
SPLINE
  5
139
100
AcDbEntity
  8
0
 62
1
100
AcDbSpline
 70
8
 71
3
 72
8
 73
4
 74
0
 40
0
 40
0
 40
0
 40
0
 40
1
 40
1
 40
1
 40
1
 10
66.943870
 20
71.928324
 30
0.0
 10
67.346895
 20
72.617612
 30
0.0
 10
67.838811
 20
73.262151
 30
0.0
 10
68.399166
 20
73.830970
 30
0.0
  0
SPLINE
  5
13a
100
AcDbEntity
  8
0
 62
1
100
AcDbSpline
 70
8
 71
3
 72
8
 73
4
 74
0
 40
0
 40
0
 40
0
 40
0
 40
1
 40
1
 40
1
 40
1
 10
68.399166
 20
73.830970
 30
0.0
 10
68.530927
 20
73.964721
 30
0.0
 10
68.660687
 20
74.128805
 30
0.0
 10
68.841372
 20
74.179834
 30
0.0
  0
SPLINE
  5
13b
100
AcDbEntity
  8
0
 62
1
100
AcDbSpline
 70
8
 71
3
 72
8
 73
4
 74
0
 40
0
 40
0
 40
0
 40
0
 40
1
 40
1
 40
1
 40
1
 10
68.841372
 20
74.179834
 30
0.0
 10
69.096898
 20
74.251998
 30
0.0
 10
69.632446
 20
74.086489
 30
0.0
 10
69.632446
 20
74.086489
 30
0.0
  0
SPLINE
  5
13c
100
AcDbEntity
  8
0
 62
1
100
AcDbSpline
 70
8
 71
3
 72
8
 73
4
 74
0
 40
0
 40
0
 40
0
 40
0
 40
1
 40
1
 40
1
 40
1
 10
69.632446
 20
74.086489
 30
0.0
 10
69.632446
 20
74.086489
 30
0.0
 10
69.415398
 20
74.707217
 30
0.0
 10
69.465881
 20
75.018866
 30
0.0
  0
SPLINE
  5
13d
100
AcDbEntity
  8
0
 62
1
100
AcDbSpline
 70
8
 71
3
 72
8
 73
4
 74
0
 40
0
 40
0
 40
0
 40
0
 40
1
 40
1
 40
1
 40
1
 10
69.465881
 20
75.018866
 30
0.0
 10
69.532898
 20
75.432573
 30
0.0
 10
69.779464
 20
75.818018
 30
0.0
 10
70.066411
 20
76.123478
 30
0.0
  0
SPLINE
  5
13e
100
AcDbEntity
  8
0
 62
1
100
AcDbSpline
 70
8
 71
3
 72
8
 73
4
 74
0
 40
0
 40
0
 40
0
 40
0
 40
1
 40
1
 40
1
 40
1
 10
70.066411
 20
76.123478
 30
0.0
 10
70.376271
 20
76.453331
 30
0.0
 10
70.769539
 20
76.773605
 30
0.0
 10
71.216413
 20
76.845188
 30
0.0
  0
SPLINE
  5
13f
100
AcDbEntity
  8
0
 62
1
100
AcDbSpline
 70
8
 71
3
 72
8
 73
4
 74
0
 40
0
 40
0
 40
0
 40
0
 40
1
 40
1
 40
1
 40
1
 10
71.216413
 20
76.845188
 30
0.0
 10
71.795030
 20
76.937873
 30
0.0
 10
72.384102
 20
76.810263
 30
0.0
 10
72.853923
 20
76.460037
 30
0.0
  0
SPLINE
  5
140
100
AcDbEntity
  8
0
 62
1
100
AcDbSpline
 70
8
 71
3
 72
8
 73
4
 74
0
 40
0
 40
0
 40
0
 40
0
 40
1
 40
1
 40
1
 40
1
 10
72.853923
 20
76.460037
 30
0.0
 10
73.199679
 20
76.202297
 30
0.0
 10
73.461719
 20
75.722728
 30
0.0
 10
73.579572
 20
75.307896
 30
0.0
  0
SPLINE
  5
141
100
AcDbEntity
  8
0
 62
1
100
AcDbSpline
 70
8
 71
3
 72
8
 73
4
 74
0
 40
0
 40
0
 40
0
 40
0
 40
1
 40
1
 40
1
 40
1
 10
73.579572
 20
75.307896
 30
0.0
 10
73.688205
 20
74.925510
 30
0.0
 10
73.738875
 20
74.489846
 30
0.0
 10
73.604831
 20
74.115611
 30
0.0
  0
SPLINE
  5
142
100
AcDbEntity
  8
0
 62
1
100
AcDbSpline
 70
8
 71
3
 72
8
 73
4
 74
0
 40
0
 40
0
 40
0
 40
0
 40
1
 40
1
 40
1
 40
1
 10
73.604831
 20
74.115611
 30
0.0
 10
73.485810
 20
73.783306
 30
0.0
 10
72.915345
 20
73.311907
 30
0.0
 10
72.915345
 20
73.311907
 30
0.0
  0
SPLINE
  5
143
100
AcDbEntity
  8
0
 62
1
100
AcDbSpline
 70
8
 71
3
 72
8
 73
4
 74
0
 40
0
 40
0
 40
0
 40
0
 40
1
 40
1
 40
1
 40
1
 10
72.915345
 20
73.311907
 30
0.0
 10
72.915345
 20
73.311907
 30
0.0
 10
73.456295
 20
73.852933
 30
0.0
 10
73.723441
 20
73.714401
 30
0.0
  0
SPLINE
  5
144
100
AcDbEntity
  8
0
 62
1
100
AcDbSpline
 70
8
 71
3
 72
8
 73
4
 74
0
 40
0
 40
0
 40
0
 40
0
 40
1
 40
1
 40
1
 40
1
 10
73.723441
 20
73.714401
 30
0.0
 10
74.410649
 20
73.358028
 30
0.0
 10
74.050844
 20
72.192535
 30
0.0
 10
74.074875
 20
71.418789
 30
0.0
  0
SPLINE
  5
145
100
AcDbEntity
  8
0
 62
1
100
AcDbSpline
 70
8
 71
3
 72
8
 73
4
 74
0
 40
0
 40
0
 40
0
 40
0
 40
1
 40
1
 40
1
 40
1
 10
74.074875
 20
71.418789
 30
0.0
 10
74.105730
 20
70.425477
 30
0.0
 10
73.983054
 20
69.427587
 30
0.0
 10
73.807478
 20
68.449427
 30
0.0
  0
SPLINE
  5
146
100
AcDbEntity
  8
0
 62
1
100
AcDbSpline
 70
8
 71
3
 72
8
 73
4
 74
0
 40
0
 40
0
 40
0
 40
0
 40
1
 40
1
 40
1
 40
1
 10
73.807478
 20
68.449427
 30
0.0
 10
73.637388
 20
67.501843
 30
0.0
 10
73.408509
 20
66.555818
 30
0.0
 10
73.049909
 20
65.662364
 30
0.0
  0
SPLINE
  5
147
100
AcDbEntity
  8
0
 62
1
100
AcDbSpline
 70
8
 71
3
 72
8
 73
4
 74
0
 40
0
 40
0
 40
0
 40
0
 40
1
 40
1
 40
1
 40
1
 10
73.049909
 20
65.662364
 30
0.0
 10
72.655049
 20
64.678571
 30
0.0
 10
72.087980
 20
63.770259
 30
0.0
 10
71.530924
 20
62.868344
 30
0.0
  0
SPLINE
  5
148
100
AcDbEntity
  8
0
 62
1
100
AcDbSpline
 70
8
 71
3
 72
8
 73
4
 74
0
 40
0
 40
0
 40
0
 40
0
 40
1
 40
1
 40
1
 40
1
 10
71.530924
 20
62.868344
 30
0.0
 10
71.178990
 20
62.298540
 30
0.0
 10
70.661886
 20
61.828468
 30
0.0
 10
70.382212
 20
61.219932
 30
0.0
  0
SPLINE
  5
149
100
AcDbEntity
  8
0
 62
1
100
AcDbSpline
 70
8
 71
3
 72
8
 73
4
 74
0
 40
0
 40
0
 40
0
 40
0
 40
1
 40
1
 40
1
 40
1
 10
70.382212
 20
61.219932
 30
0.0
 10
70.127526
 20
60.665775
 30
0.0
 10
69.953302
 20
60.057716
 30
0.0
 10
69.924267
 20
59.448525
 30
0.0
  0
SPLINE
  5
14a
100
AcDbEntity
  8
0
 62
1
100
AcDbSpline
 70
8
 71
3
 72
8
 73
4
 74
0
 40
0
 40
0
 40
0
 40
0
 40
1
 40
1
 40
1
 40
1
 10
69.924267
 20
59.448525
 30
0.0
 10
69.885769
 20
58.640766
 30
0.0
 10
70.155754
 20
57.847332
 30
0.0
 10
70.305354
 20
57.052614
 30
0.0
  0
SPLINE
  5
14b
100
AcDbEntity
  8
0
 62
1
100
AcDbSpline
 70
8
 71
3
 72
8
 73
4
 74
0
 40
0
 40
0
 40
0
 40
0
 40
1
 40
1
 40
1
 40
1
 10
70.305354
 20
57.052614
 30
0.0
 10
70.437928
 20
56.348351
 30
0.0
 10
70.673366
 20
55.662971
 30
0.0
 10
70.762766
 20
54.951935
 30
0.0
  0
SPLINE
  5
14c
100
AcDbEntity
  8
0
 62
1
100
AcDbSpline
 70
8
 71
3
 72
8
 73
4
 74
0
 40
0
 40
0
 40
0
 40
0
 40
1
 40
1
 40
1
 40
1
 10
70.762766
 20
54.951935
 30
0.0
 10
70.841356
 20
54.326877
 30
0.0
 10
70.915798
 20
53.687359
 30
0.0
 10
70.830316
 20
53.063205
 30
0.0
  0
SPLINE
  5
14d
100
AcDbEntity
  8
0
 62
1
100
AcDbSpline
 70
8
 71
3
 72
8
 73
4
 74
0
 40
0
 40
0
 40
0
 40
0
 40
1
 40
1
 40
1
 40
1
 10
70.830316
 20
53.063205
 30
0.0
 10
70.741746
 20
52.416521
 30
0.0
 10
70.236746
 20
51.197171
 30
0.0
 10
70.236746
 20
51.197171
 30
0.0
  0
LWPOLYLINE
  5
14e
100
AcDbEntity
  8
0
 62
1
100
AcDbPolyline
 90
2
 70
1
 10
72.441582
 20
74.453400
 30
0.0
 10
72.441582
 20
74.453400
 30
0.0
  0
SPLINE
  5
14f
100
AcDbEntity
  8
0
 62
1
100
AcDbSpline
 70
8
 71
3
 72
8
 73
4
 74
0
 40
0
 40
0
 40
0
 40
0
 40
1
 40
1
 40
1
 40
1
 10
69.918817
 20
50.612376
 30
0.0
 10
69.918817
 20
50.612376
 30
0.0
 10
70.708396
 20
50.288249
 30
0.0
 10
71.023429
 20
50.011846
 30
0.0
  0
SPLINE
  5
150
100
AcDbEntity
  8
0
 62
1
100
AcDbSpline
 70
8
 71
3
 72
8
 73
4
 74
0
 40
0
 40
0
 40
0
 40
0
 40
1
 40
1
 40
1
 40
1
 10
71.023429
 20
50.011846
 30
0.0
 10
71.454459
 20
49.633674
 30
0.0
 10
71.818297
 20
49.151255
 30
0.0
 10
72.034699
 20
48.620243
 30
0.0
  0
SPLINE
  5
151
100
AcDbEntity
  8
0
 62
1
100
AcDbSpline
 70
8
 71
3
 72
8
 73
4
 74
0
 40
0
 40
0
 40
0
 40
0
 40
1
 40
1
 40
1
 40
1
 10
72.034699
 20
48.620243
 30
0.0
 10
72.406854
 20
47.707045
 30
0.0
 10
72.351773
 20
46.672906
 30
0.0
 10
72.463745
 20
45.693163
 30
0.0
  0
SPLINE
  5
152
100
AcDbEntity
  8
0
 62
1
100
AcDbSpline
 70
8
 71
3
 72
8
 73
4
 74
0
 40
0
 40
0
 40
0
 40
0
 40
1
 40
1
 40
1
 40
1
 10
72.463745
 20
45.693163
 30
0.0
 10
72.657846
 20
43.994790
 30
0.0
 10
72.729875
 20
42.284588
 30
0.0
 10
72.884013
 20
40.582125
 30
0.0
  0
SPLINE
  5
153
100
AcDbEntity
  8
0
 62
1
100
AcDbSpline
 70
8
 71
3
 72
8
 73
4
 74
0
 40
0
 40
0
 40
0
 40
0
 40
1
 40
1
 40
1
 40
1
 10
72.884013
 20
40.582125
 30
0.0
 10
73.101660
 20
38.178232
 30
0.0
 10
73.352002
 20
35.777396
 30
0.0
 10
73.596418
 20
33.376077
 30
0.0
  0
SPLINE
  5
154
100
AcDbEntity
  8
0
 62
1
100
AcDbSpline
 70
8
 71
3
 72
8
 73
4
 74
0
 40
0
 40
0
 40
0
 40
0
 40
1
 40
1
 40
1
 40
1
 10
73.596418
 20
33.376077
 30
0.0
 10
73.693359
 20
32.423653
 30
0.0
 10
73.921516
 20
31.476645
 30
0.0
 10
73.895506
 20
30.519649
 30
0.0
  0
LWPOLYLINE
  5
155
100
AcDbEntity
  8
0
 62
1
100
AcDbPolyline
 90
2
 70
1
 10
70.236746
 20
51.197171
 30
0.0
 10
69.918817
 20
50.612376
 30
0.0
  0
SPLINE
  5
156
100
AcDbEntity
  8
0
 62
7
100
AcDbSpline
 70
8
 71
3
 72
8
 73
4
 74
0
 40
0
 40
0
 40
0
 40
0
 40
1
 40
1
 40
1
 40
1
 10
69.907427
 20
73.403979
 30
0.0
 10
69.843616
 20
73.405390
 30
0.0
 10
69.785560
 20
73.383208
 30
0.0
 10
69.734125
 20
73.326842
 30
0.0
  0
SPLINE
  5
157
100
AcDbEntity
  8
0
 62
7
100
AcDbSpline
 70
8
 71
3
 72
8
 73
4
 74
0
 40
0
 40
0
 40
0
 40
0
 40
1
 40
1
 40
1
 40
1
 10
69.734125
 20
73.326842
 30
0.0
 10
69.541398
 20
73.115650
 30
0.0
 10
69.994856
 20
72.815151
 30
0.0
 10
70.081244
 20
72.542606
 30
0.0
  0
SPLINE
  5
158
100
AcDbEntity
  8
0
 62
7
100
AcDbSpline
 70
8
 71
3
 72
8
 73
4
 74
0
 40
0
 40
0
 40
0
 40
0
 40
1
 40
1
 40
1
 40
1
 10
70.081244
 20
72.542606
 30
0.0
 10
70.163526
 20
72.283035
 30
0.0
 10
70.235490
 20
72.014159
 30
0.0
 10
70.241177
 20
71.741916
 30
0.0
  0
SPLINE
  5
159
100
AcDbEntity
  8
0
 62
7
100
AcDbSpline
 70
8
 71
3
 72
8
 73
4
 74
0
 40
0
 40
0
 40
0
 40
0
 40
1
 40
1
 40
1
 40
1
 10
70.241177
 20
71.741916
 30
0.0
 10
70.246596
 20
71.482822
 30
0.0
 10
70.006551
 20
71.205954
 30
0.0
 10
70.121357
 20
70.973623
 30
0.0
  0
SPLINE
  5
15a
100
AcDbEntity
  8
0
 62
7
100
AcDbSpline
 70
8
 71
3
 72
8
 73
4
 74
0
 40
0
 40
0
 40
0
 40
0
 40
1
 40
1
 40
1
 40
1
 10
70.121357
 20
70.973623
 30
0.0
 10
70.198581
 20
70.817342
 30
0.0
 10
70.413414
 20
70.674275
 30
0.0
 10
70.580583
 20
70.723698
 30
0.0
  0
SPLINE
  5
15b
100
AcDbEntity
  8
0
 62
7
100
AcDbSpline
 70
8
 71
3
 72
8
 73
4
 74
0
 40
0
 40
0
 40
0
 40
0
 40
1
 40
1
 40
1
 40
1
 10
70.580583
 20
70.723698
 30
0.0
 10
70.814624
 20
70.792885
 30
0.0
 10
70.809911
 20
71.154719
 30
0.0
 10
70.930276
 20
71.367026
 30
0.0
  0
SPLINE
  5
15c
100
AcDbEntity
  8
0
 62
7
100
AcDbSpline
 70
8
 71
3
 72
8
 73
4
 74
0
 40
0
 40
0
 40
0
 40
0
 40
1
 40
1
 40
1
 40
1
 10
70.930276
 20
71.367026
 30
0.0
 10
71.032353
 20
71.547056
 30
0.0
 10
71.024581
 20
71.786756
 30
0.0
 10
71.131348
 20
71.964073
 30
0.0
  0
SPLINE
  5
15d
100
AcDbEntity
  8
0
 62
7
100
AcDbSpline
 70
8
 71
3
 72
8
 73
4
 74
0
 40
0
 40
0
 40
0
 40
0
 40
1
 40
1
 40
1
 40
1
 10
71.131348
 20
71.964073
 30
0.0
 10
71.276546
 20
72.205223
 30
0.0
 10
71.487690
 20
72.418787
 30
0.0
 10
71.675425
 20
72.628489
 30
0.0
  0
SPLINE
  5
15e
100
AcDbEntity
  8
0
 62
7
100
AcDbSpline
 70
8
 71
3
 72
8
 73
4
 74
0
 40
0
 40
0
 40
0
 40
0
 40
1
 40
1
 40
1
 40
1
 10
71.675425
 20
72.628489
 30
0.0
 10
71.675425
 20
72.628489
 30
0.0
 10
72.107275
 20
72.875529
 30
0.0
 10
71.987577
 20
73.047090
 30
0.0
  0
SPLINE
  5
15f
100
AcDbEntity
  8
0
 62
7
100
AcDbSpline
 70
8
 71
3
 72
8
 73
4
 74
0
 40
0
 40
0
 40
0
 40
0
 40
1
 40
1
 40
1
 40
1
 10
71.987577
 20
73.047090
 30
0.0
 10
71.937705
 20
73.118576
 30
0.0
 10
71.802080
 20
73.158587
 30
0.0
 10
71.716567
 20
73.141710
 30
0.0
  0
SPLINE
  5
160
100
AcDbEntity
  8
0
 62
7
100
AcDbSpline
 70
8
 71
3
 72
8
 73
4
 74
0
 40
0
 40
0
 40
0
 40
0
 40
1
 40
1
 40
1
 40
1
 10
71.716567
 20
73.141710
 30
0.0
 10
71.438152
 20
73.086790
 30
0.0
 10
71.174221
 20
72.924913
 30
0.0
 10
70.890680
 20
72.936526
 30
0.0
  0
SPLINE
  5
161
100
AcDbEntity
  8
0
 62
7
100
AcDbSpline
 70
8
 71
3
 72
8
 73
4
 74
0
 40
0
 40
0
 40
0
 40
0
 40
1
 40
1
 40
1
 40
1
 10
70.890680
 20
72.936526
 30
0.0
 10
70.560300
 20
72.950045
 30
0.0
 10
70.183954
 20
73.397714
 30
0.0
 10
69.907427
 20
73.403979
 30
0.0
  0
LWPOLYLINE
  5
162
100
AcDbEntity
  8
0
 62
1
100
AcDbPolyline
 90
2
 70
1
 10
73.895506
 20
30.519649
 30
0.0
 10
73.895529
 20
30.519649
 30
0.0
  0
SPLINE
  5
163
100
AcDbEntity
  8
0
 62
7
100
AcDbSpline
 70
8
 71
3
 72
8
 73
4
 74
0
 40
0
 40
0
 40
0
 40
0
 40
1
 40
1
 40
1
 40
1
 10
68.332274
 20
72.189831
 30
0.0
 10
68.254064
 20
72.188702
 30
0.0
 10
68.176851
 20
72.165250
 30
0.0
 10
68.124516
 20
72.118350
 30
0.0
  0
SPLINE
  5
164
100
AcDbEntity
  8
0
 62
7
100
AcDbSpline
 70
8
 71
3
 72
8
 73
4
 74
0
 40
0
 40
0
 40
0
 40
0
 40
1
 40
1
 40
1
 40
1
 10
68.124516
 20
72.118350
 30
0.0
 10
67.943679
 20
71.956323
 30
0.0
 10
68.046205
 20
71.638561
 30
0.0
 10
68.029379
 20
71.396341
 30
0.0
  0
SPLINE
  5
165
100
AcDbEntity
  8
0
 62
7
100
AcDbSpline
 70
8
 71
3
 72
8
 73
4
 74
0
 40
0
 40
0
 40
0
 40
0
 40
1
 40
1
 40
1
 40
1
 10
68.029379
 20
71.396341
 30
0.0
 10
68.008833
 20
71.100704
 30
0.0
 10
68.088363
 20
70.796063
 30
0.0
 10
68.022154
 20
70.507200
 30
0.0
  0
SPLINE
  5
166
100
AcDbEntity
  8
0
 62
7
100
AcDbSpline
 70
8
 71
3
 72
8
 73
4
 74
0
 40
0
 40
0
 40
0
 40
0
 40
1
 40
1
 40
1
 40
1
 10
68.022154
 20
70.507200
 30
0.0
 10
67.881782
 20
69.894543
 30
0.0
 10
67.425652
 20
69.395580
 30
0.0
 10
67.214778
 20
68.803478
 30
0.0
  0
SPLINE
  5
167
100
AcDbEntity
  8
0
 62
7
100
AcDbSpline
 70
8
 71
3
 72
8
 73
4
 74
0
 40
0
 40
0
 40
0
 40
0
 40
1
 40
1
 40
1
 40
1
 10
67.214778
 20
68.803478
 30
0.0
 10
66.960857
 20
68.090497
 30
0.0
 10
66.721572
 20
67.354058
 30
0.0
 10
66.671215
 20
66.598882
 30
0.0
  0
SPLINE
  5
168
100
AcDbEntity
  8
0
 62
7
100
AcDbSpline
 70
8
 71
3
 72
8
 73
4
 74
0
 40
0
 40
0
 40
0
 40
0
 40
1
 40
1
 40
1
 40
1
 10
66.671215
 20
66.598882
 30
0.0
 10
66.602046
 20
65.561515
 30
0.0
 10
66.733290
 20
64.500737
 30
0.0
 10
67.009591
 20
63.498453
 30
0.0
  0
SPLINE
  5
169
100
AcDbEntity
  8
0
 62
7
100
AcDbSpline
 70
8
 71
3
 72
8
 73
4
 74
0
 40
0
 40
0
 40
0
 40
0
 40
1
 40
1
 40
1
 40
1
 10
67.009591
 20
63.498453
 30
0.0
 10
67.079080
 20
63.246378
 30
0.0
 10
67.087414
 20
62.865852
 30
0.0
 10
67.336142
 20
62.785188
 30
0.0
  0
SPLINE
  5
16a
100
AcDbEntity
  8
0
 62
7
100
AcDbSpline
 70
8
 71
3
 72
8
 73
4
 74
0
 40
0
 40
0
 40
0
 40
0
 40
1
 40
1
 40
1
 40
1
 10
67.336142
 20
62.785188
 30
0.0
 10
67.492578
 20
62.734452
 30
0.0
 10
67.693193
 20
62.879712
 30
0.0
 10
67.765541
 20
63.027399
 30
0.0
  0
SPLINE
  5
16b
100
AcDbEntity
  8
0
 62
7
100
AcDbSpline
 70
8
 71
3
 72
8
 73
4
 74
0
 40
0
 40
0
 40
0
 40
0
 40
1
 40
1
 40
1
 40
1
 10
67.765541
 20
63.027399
 30
0.0
 10
67.880571
 20
63.262222
 30
0.0
 10
67.638727
 20
63.542768
 30
0.0
 10
67.651892
 20
63.803919
 30
0.0
  0
SPLINE
  5
16c
100
AcDbEntity
  8
0
 62
7
100
AcDbSpline
 70
8
 71
3
 72
8
 73
4
 74
0
 40
0
 40
0
 40
0
 40
0
 40
1
 40
1
 40
1
 40
1
 10
67.651892
 20
63.803919
 30
0.0
 10
67.683606
 20
64.433100
 30
0.0
 10
67.932797
 20
65.032961
 30
0.0
 10
68.112663
 20
65.636716
 30
0.0
  0
SPLINE
  5
16d
100
AcDbEntity
  8
0
 62
7
100
AcDbSpline
 70
8
 71
3
 72
8
 73
4
 74
0
 40
0
 40
0
 40
0
 40
0
 40
1
 40
1
 40
1
 40
1
 10
68.112663
 20
65.636716
 30
0.0
 10
68.324583
 20
66.348077
 30
0.0
 10
68.679887
 20
67.016215
 30
0.0
 10
68.839814
 20
67.741035
 30
0.0
  0
SPLINE
  5
16e
100
AcDbEntity
  8
0
 62
7
100
AcDbSpline
 70
8
 71
3
 72
8
 73
4
 74
0
 40
0
 40
0
 40
0
 40
0
 40
1
 40
1
 40
1
 40
1
 10
68.839814
 20
67.741035
 30
0.0
 10
69.014902
 20
68.534565
 30
0.0
 10
69.155245
 20
69.357006
 30
0.0
 10
69.087173
 20
70.166763
 30
0.0
  0
SPLINE
  5
16f
100
AcDbEntity
  8
0
 62
7
100
AcDbSpline
 70
8
 71
3
 72
8
 73
4
 74
0
 40
0
 40
0
 40
0
 40
0
 40
1
 40
1
 40
1
 40
1
 10
69.087173
 20
70.166763
 30
0.0
 10
69.030367
 20
70.842446
 30
0.0
 10
69.089995
 20
71.722570
 30
0.0
 10
68.546178
 20
72.127604
 30
0.0
  0
SPLINE
  5
170
100
AcDbEntity
  8
0
 62
7
100
AcDbSpline
 70
8
 71
3
 72
8
 73
4
 74
0
 40
0
 40
0
 40
0
 40
0
 40
1
 40
1
 40
1
 40
1
 10
68.546178
 20
72.127604
 30
0.0
 10
68.489819
 20
72.169584
 30
0.0
 10
68.410458
 20
72.190833
 30
0.0
 10
68.332248
 20
72.189831
 30
0.0
  0
LWPOLYLINE
  5
171
100
AcDbEntity
  8
0
 62
7
100
AcDbPolyline
 90
2
 70
1
 10
69.907427
 20
73.403979
 30
0.0
 10
69.907427
 20
73.403979
 30
0.0
  0
SPLINE
  5
172
100
AcDbEntity
  8
0
 62
7
100
AcDbSpline
 70
8
 71
3
 72
8
 73
4
 74
0
 40
0
 40
0
 40
0
 40
0
 40
1
 40
1
 40
1
 40
1
 10
72.249848
 20
70.947396
 30
0.0
 10
72.043705
 20
70.907780
 30
0.0
 10
72.049567
 20
70.573832
 30
0.0
 10
71.995806
 20
70.370920
 30
0.0
  0
SPLINE
  5
173
100
AcDbEntity
  8
0
 62
7
100
AcDbSpline
 70
8
 71
3
 72
8
 73
4
 74
0
 40
0
 40
0
 40
0
 40
0
 40
1
 40
1
 40
1
 40
1
 10
71.995806
 20
70.370920
 30
0.0
 10
71.937767
 20
70.151856
 30
0.0
 10
71.906285
 20
70.022167
 30
0.0
 10
71.813245
 20
69.815527
 30
0.0
  0
SPLINE
  5
174
100
AcDbEntity
  8
0
 62
7
100
AcDbSpline
 70
8
 71
3
 72
8
 73
4
 74
0
 40
0
 40
0
 40
0
 40
0
 40
1
 40
1
 40
1
 40
1
 10
71.813245
 20
69.815527
 30
0.0
 10
71.724723
 20
69.618911
 30
0.0
 10
71.634102
 20
69.377286
 30
0.0
 10
71.488241
 20
69.218480
 30
0.0
  0
SPLINE
  5
175
100
AcDbEntity
  8
0
 62
7
100
AcDbSpline
 70
8
 71
3
 72
8
 73
4
 74
0
 40
0
 40
0
 40
0
 40
0
 40
1
 40
1
 40
1
 40
1
 10
71.488241
 20
69.218480
 30
0.0
 10
71.050658
 20
68.742069
 30
0.0
 10
70.551957
 20
68.315171
 30
0.0
 10
70.175868
 20
67.788861
 30
0.0
  0
SPLINE
  5
176
100
AcDbEntity
  8
0
 62
7
100
AcDbSpline
 70
8
 71
3
 72
8
 73
4
 74
0
 40
0
 40
0
 40
0
 40
0
 40
1
 40
1
 40
1
 40
1
 10
70.175868
 20
67.788861
 30
0.0
 10
69.689382
 20
67.108064
 30
0.0
 10
69.275867
 20
66.365160
 30
0.0
 10
68.976629
 20
65.583748
 30
0.0
  0
SPLINE
  5
177
100
AcDbEntity
  8
0
 62
7
100
AcDbSpline
 70
8
 71
3
 72
8
 73
4
 74
0
 40
0
 40
0
 40
0
 40
0
 40
1
 40
1
 40
1
 40
1
 10
68.976629
 20
65.583748
 30
0.0
 10
68.666614
 20
64.774180
 30
0.0
 10
68.437071
 20
63.918290
 30
0.0
 10
68.374957
 20
63.053626
 30
0.0
  0
SPLINE
  5
178
100
AcDbEntity
  8
0
 62
7
100
AcDbSpline
 70
8
 71
3
 72
8
 73
4
 74
0
 40
0
 40
0
 40
0
 40
0
 40
1
 40
1
 40
1
 40
1
 10
68.374957
 20
63.053626
 30
0.0
 10
68.338926
 20
62.552095
 30
0.0
 10
68.538214
 20
62.053052
 30
0.0
 10
68.510717
 20
61.550982
 30
0.0
  0
SPLINE
  5
179
100
AcDbEntity
  8
0
 62
7
100
AcDbSpline
 70
8
 71
3
 72
8
 73
4
 74
0
 40
0
 40
0
 40
0
 40
0
 40
1
 40
1
 40
1
 40
1
 10
68.510717
 20
61.550982
 30
0.0
 10
68.497763
 20
61.314231
 30
0.0
 10
68.244031
 20
61.055163
 30
0.0
 10
68.369815
 20
60.854169
 30
0.0
  0
SPLINE
  5
17a
100
AcDbEntity
  8
0
 62
7
100
AcDbSpline
 70
8
 71
3
 72
8
 73
4
 74
0
 40
0
 40
0
 40
0
 40
0
 40
1
 40
1
 40
1
 40
1
 10
68.369815
 20
60.854169
 30
0.0
 10
68.446071
 20
60.732303
 30
0.0
 10
68.658565
 20
60.682389
 30
0.0
 10
68.787385
 20
60.746177
 30
0.0
  0
SPLINE
  5
17b
100
AcDbEntity
  8
0
 62
7
100
AcDbSpline
 70
8
 71
3
 72
8
 73
4
 74
0
 40
0
 40
0
 40
0
 40
0
 40
1
 40
1
 40
1
 40
1
 10
68.787385
 20
60.746177
 30
0.0
 10
68.944386
 20
60.823915
 30
0.0
 10
68.927080
 20
61.067496
 30
0.0
 10
68.991031
 20
61.230600
 30
0.0
  0
SPLINE
  5
17c
100
AcDbEntity
  8
0
 62
7
100
AcDbSpline
 70
8
 71
3
 72
8
 73
4
 74
0
 40
0
 40
0
 40
0
 40
0
 40
1
 40
1
 40
1
 40
1
 10
68.991031
 20
61.230600
 30
0.0
 10
69.119725
 20
61.558816
 30
0.0
 10
69.170564
 20
61.922194
 30
0.0
 10
69.352549
 20
62.224138
 30
0.0
  0
SPLINE
  5
17d
100
AcDbEntity
  8
0
 62
7
100
AcDbSpline
 70
8
 71
3
 72
8
 73
4
 74
0
 40
0
 40
0
 40
0
 40
0
 40
1
 40
1
 40
1
 40
1
 10
69.352549
 20
62.224138
 30
0.0
 10
69.658114
 20
62.731094
 30
0.0
 10
70.178535
 20
63.075450
 30
0.0
 10
70.544586
 20
63.540623
 30
0.0
  0
SPLINE
  5
17e
100
AcDbEntity
  8
0
 62
7
100
AcDbSpline
 70
8
 71
3
 72
8
 73
4
 74
0
 40
0
 40
0
 40
0
 40
0
 40
1
 40
1
 40
1
 40
1
 10
70.544586
 20
63.540623
 30
0.0
 10
71.086286
 20
64.229005
 30
0.0
 10
71.659349
 20
64.916454
 30
0.0
 10
72.023063
 20
65.713336
 30
0.0
  0
SPLINE
  5
17f
100
AcDbEntity
  8
0
 62
7
100
AcDbSpline
 70
8
 71
3
 72
8
 73
4
 74
0
 40
0
 40
0
 40
0
 40
0
 40
1
 40
1
 40
1
 40
1
 10
72.023063
 20
65.713336
 30
0.0
 10
72.328524
 20
66.382598
 30
0.0
 10
72.514341
 20
67.114499
 30
0.0
 10
72.588224
 20
67.846456
 30
0.0
  0
SPLINE
  5
180
100
AcDbEntity
  8
0
 62
7
100
AcDbSpline
 70
8
 71
3
 72
8
 73
4
 74
0
 40
0
 40
0
 40
0
 40
0
 40
1
 40
1
 40
1
 40
1
 10
72.588224
 20
67.846456
 30
0.0
 10
72.647977
 20
68.438449
 30
0.0
 10
72.492300
 20
69.033895
 30
0.0
 10
72.485374
 20
69.628856
 30
0.0
  0
SPLINE
  5
181
100
AcDbEntity
  8
0
 62
7
100
AcDbSpline
 70
8
 71
3
 72
8
 73
4
 74
0
 40
0
 40
0
 40
0
 40
0
 40
1
 40
1
 40
1
 40
1
 10
72.485374
 20
69.628856
 30
0.0
 10
72.481282
 20
69.979650
 30
0.0
 10
72.651533
 20
70.354723
 30
0.0
 10
72.521372
 20
70.680501
 30
0.0
  0
SPLINE
  5
182
100
AcDbEntity
  8
0
 62
7
100
AcDbSpline
 70
8
 71
3
 72
8
 73
4
 74
0
 40
0
 40
0
 40
0
 40
0
 40
1
 40
1
 40
1
 40
1
 10
72.521372
 20
70.680501
 30
0.0
 10
72.474291
 20
70.798357
 30
0.0
 10
72.374478
 20
70.971356
 30
0.0
 10
72.249848
 20
70.947396
 30
0.0
  0
LWPOLYLINE
  5
183
100
AcDbEntity
  8
0
 62
7
100
AcDbPolyline
 90
2
 70
1
 10
68.332248
 20
72.189831
 30
0.0
 10
68.332274
 20
72.189831
 30
0.0
  0
SPLINE
  5
184
100
AcDbEntity
  8
0
 62
7
100
AcDbSpline
 70
8
 71
3
 72
8
 73
4
 74
0
 40
0
 40
0
 40
0
 40
0
 40
1
 40
1
 40
1
 40
1
 10
64.614744
 20
57.815452
 30
0.0
 10
64.499620
 20
57.810767
 30
0.0
 10
64.382382
 20
57.788330
 30
0.0
 10
64.273280
 20
57.764542
 30
0.0
  0
SPLINE
  5
185
100
AcDbEntity
  8
0
 62
7
100
AcDbSpline
 70
8
 71
3
 72
8
 73
4
 74
0
 40
0
 40
0
 40
0
 40
0
 40
1
 40
1
 40
1
 40
1
 10
64.273280
 20
57.764542
 30
0.0
 10
64.019145
 20
57.709153
 30
0.0
 10
63.754861
 20
57.612966
 30
0.0
 10
63.567211
 20
57.432852
 30
0.0
  0
SPLINE
  5
186
100
AcDbEntity
  8
0
 62
7
100
AcDbSpline
 70
8
 71
3
 72
8
 73
4
 74
0
 40
0
 40
0
 40
0
 40
0
 40
1
 40
1
 40
1
 40
1
 10
63.567211
 20
57.432852
 30
0.0
 10
63.322621
 20
57.198079
 30
0.0
 10
62.998635
 20
56.854575
 30
0.0
 10
63.097701
 20
56.530336
 30
0.0
  0
SPLINE
  5
187
100
AcDbEntity
  8
0
 62
7
100
AcDbSpline
 70
8
 71
3
 72
8
 73
4
 74
0
 40
0
 40
0
 40
0
 40
0
 40
1
 40
1
 40
1
 40
1
 10
63.097701
 20
56.530336
 30
0.0
 10
63.149926
 20
56.359402
 30
0.0
 10
63.407248
 20
56.350806
 30
0.0
 10
63.568755
 20
56.274239
 30
0.0
  0
SPLINE
  5
188
100
AcDbEntity
  8
0
 62
7
100
AcDbSpline
 70
8
 71
3
 72
8
 73
4
 74
0
 40
0
 40
0
 40
0
 40
0
 40
1
 40
1
 40
1
 40
1
 10
63.568755
 20
56.274239
 30
0.0
 10
63.720051
 20
56.202524
 30
0.0
 10
63.868870
 20
56.114741
 30
0.0
 10
64.033640
 20
56.084995
 30
0.0
  0
SPLINE
  5
189
100
AcDbEntity
  8
0
 62
7
100
AcDbSpline
 70
8
 71
3
 72
8
 73
4
 74
0
 40
0
 40
0
 40
0
 40
0
 40
1
 40
1
 40
1
 40
1
 10
64.033640
 20
56.084995
 30
0.0
 10
64.202160
 20
56.054560
 30
0.0
 10
64.391043
 20
56.030532
 30
0.0
 10
64.547377
 20
56.100432
 30
0.0
  0
SPLINE
  5
18a
100
AcDbEntity
  8
0
 62
7
100
AcDbSpline
 70
8
 71
3
 72
8
 73
4
 74
0
 40
0
 40
0
 40
0
 40
0
 40
1
 40
1
 40
1
 40
1
 10
64.547377
 20
56.100432
 30
0.0
 10
64.786225
 20
56.207214
 30
0.0
 10
64.960195
 20
56.440826
 30
0.0
 10
65.087856
 20
56.669195
 30
0.0
  0
SPLINE
  5
18b
100
AcDbEntity
  8
0
 62
7
100
AcDbSpline
 70
8
 71
3
 72
8
 73
4
 74
0
 40
0
 40
0
 40
0
 40
0
 40
1
 40
1
 40
1
 40
1
 10
65.087856
 20
56.669195
 30
0.0
 10
65.202367
 20
56.874057
 30
0.0
 10
65.316509
 20
57.119856
 30
0.0
 10
65.268359
 20
57.349551
 30
0.0
  0
SPLINE
  5
18c
100
AcDbEntity
  8
0
 62
7
100
AcDbSpline
 70
8
 71
3
 72
8
 73
4
 74
0
 40
0
 40
0
 40
0
 40
0
 40
1
 40
1
 40
1
 40
1
 10
65.268359
 20
57.349551
 30
0.0
 10
65.232664
 20
57.519847
 30
0.0
 10
65.099732
 20
57.681574
 30
0.0
 10
64.943352
 20
57.757867
 30
0.0
  0
SPLINE
  5
18d
100
AcDbEntity
  8
0
 62
7
100
AcDbSpline
 70
8
 71
3
 72
8
 73
4
 74
0
 40
0
 40
0
 40
0
 40
0
 40
1
 40
1
 40
1
 40
1
 10
64.943352
 20
57.757867
 30
0.0
 10
64.842997
 20
57.806830
 30
0.0
 10
64.729865
 20
57.820148
 30
0.0
 10
64.614744
 20
57.815463
 30
0.0
  0
LWPOLYLINE
  5
18e
100
AcDbEntity
  8
0
 62
7
100
AcDbPolyline
 90
2
 70
1
 10
72.249848
 20
70.947396
 30
0.0
 10
72.249848
 20
70.947396
 30
0.0
  0
SPLINE
  5
18f
100
AcDbEntity
  8
0
 62
1
100
AcDbSpline
 70
8
 71
3
 72
8
 73
4
 74
0
 40
0
 40
0
 40
0
 40
0
 40
1
 40
1
 40
1
 40
1
 10
68.632917
 20
116.454149
 30
0.0
 10
67.768947
 20
116.443650
 30
0.0
 10
66.607357
 20
116.254894
 30
0.0
 10
63.256914
 20
115.580473
 30
0.0
  0
SPLINE
  5
190
100
AcDbEntity
  8
0
 62
1
100
AcDbSpline
 70
8
 71
3
 72
8
 73
4
 74
0
 40
0
 40
0
 40
0
 40
0
 40
1
 40
1
 40
1
 40
1
 10
63.256914
 20
115.580473
 30
0.0
 10
61.594325
 20
115.227219
 30
0.0
 10
59.018252
 20
113.872727
 30
0.0
 10
57.769015
 20
112.694861
 30
0.0
  0
SPLINE
  5
191
100
AcDbEntity
  8
0
 62
1
100
AcDbSpline
 70
8
 71
3
 72
8
 73
4
 74
0
 40
0
 40
0
 40
0
 40
0
 40
1
 40
1
 40
1
 40
1
 10
57.769015
 20
112.694861
 30
0.0
 10
56.348057
 20
111.355090
 30
0.0
 10
54.979590
 20
110.741048
 30
0.0
 10
55.680460
 20
108.070165
 30
0.0
  0
SPLINE
  5
192
100
AcDbEntity
  8
0
 62
1
100
AcDbSpline
 70
8
 71
3
 72
8
 73
4
 74
0
 40
0
 40
0
 40
0
 40
0
 40
1
 40
1
 40
1
 40
1
 10
55.680460
 20
108.070165
 30
0.0
 10
57.378702
 20
95.669388
 30
0.0
 10
56.517983
 20
95.764102
 30
0.0
 10
56.107101
 20
92.970175
 30
0.0
  0
SPLINE
  5
193
100
AcDbEntity
  8
0
 62
1
100
AcDbSpline
 70
8
 71
3
 72
8
 73
4
 74
0
 40
0
 40
0
 40
0
 40
0
 40
1
 40
1
 40
1
 40
1
 10
56.107101
 20
92.970175
 30
0.0
 10
55.671139
 20
91.083347
 30
0.0
 10
55.608434
 20
91.071700
 30
0.0
 10
54.054375
 20
90.049285
 30
0.0
  0
SPLINE
  5
194
100
AcDbEntity
  8
0
 62
1
100
AcDbSpline
 70
8
 71
3
 72
8
 73
4
 74
0
 40
0
 40
0
 40
0
 40
0
 40
1
 40
1
 40
1
 40
1
 10
54.054375
 20
90.049285
 30
0.0
 10
52.121308
 20
88.854585
 30
0.0
 10
51.368616
 20
87.807992
 30
0.0
 10
51.406338
 20
86.369370
 30
0.0
  0
SPLINE
  5
195
100
AcDbEntity
  8
0
 62
1
100
AcDbSpline
 70
8
 71
3
 72
8
 73
4
 74
0
 40
0
 40
0
 40
0
 40
0
 40
1
 40
1
 40
1
 40
1
 10
51.406338
 20
86.369370
 30
0.0
 10
51.480503
 20
83.540961
 30
0.0
 10
56.281396
 20
80.749431
 30
0.0
 10
61.937305
 20
80.072840
 30
0.0
  0
SPLINE
  5
196
100
AcDbEntity
  8
0
 62
1
100
AcDbSpline
 70
8
 71
3
 72
8
 73
4
 74
0
 40
0
 40
0
 40
0
 40
0
 40
1
 40
1
 40
1
 40
1
 10
61.937305
 20
80.072840
 30
0.0
 10
67.593213
 20
79.396249
 30
0.0
 10
74.201689
 20
79.369864
 30
0.0
 10
79.794475
 20
81.431034
 30
0.0
  0
SPLINE
  5
197
100
AcDbEntity
  8
0
 62
1
100
AcDbSpline
 70
8
 71
3
 72
8
 73
4
 74
0
 40
0
 40
0
 40
0
 40
0
 40
1
 40
1
 40
1
 40
1
 10
79.794475
 20
81.431034
 30
0.0
 10
80.482485
 20
81.684594
 30
0.0
 10
81.435310
 20
82.068204
 30
0.0
 10
81.727034
 20
82.186749
 30
0.0
  0
SPLINE
  5
198
100
AcDbEntity
  8
0
 62
1
100
AcDbSpline
 70
8
 71
3
 72
8
 73
4
 74
0
 40
0
 40
0
 40
0
 40
0
 40
1
 40
1
 40
1
 40
1
 10
81.727034
 20
82.186749
 30
0.0
 10
82.536016
 20
82.515484
 30
0.0
 10
82.270891
 20
82.372945
 30
0.0
 10
83.280910
 20
83.022942
 30
0.0
  0
SPLINE
  5
199
100
AcDbEntity
  8
0
 62
1
100
AcDbSpline
 70
8
 71
3
 72
8
 73
4
 74
0
 40
0
 40
0
 40
0
 40
0
 40
1
 40
1
 40
1
 40
1
 10
83.280910
 20
83.022942
 30
0.0
 10
84.655146
 20
83.907331
 30
0.0
 10
85.421258
 20
85.093344
 30
0.0
 10
85.419627
 20
86.153845
 30
0.0
  0
SPLINE
  5
19a
100
AcDbEntity
  8
0
 62
1
100
AcDbSpline
 70
8
 71
3
 72
8
 73
4
 74
0
 40
0
 40
0
 40
0
 40
0
 40
1
 40
1
 40
1
 40
1
 10
85.419627
 20
86.153845
 30
0.0
 10
85.418216
 20
87.048806
 30
0.0
 10
84.307979
 20
88.563681
 30
0.0
 10
83.757714
 20
89.016857
 30
0.0
  0
SPLINE
  5
19b
100
AcDbEntity
  8
0
 62
1
100
AcDbSpline
 70
8
 71
3
 72
8
 73
4
 74
0
 40
0
 40
0
 40
0
 40
0
 40
1
 40
1
 40
1
 40
1
 10
83.757714
 20
89.016857
 30
0.0
 10
82.613077
 20
89.831748
 30
0.0
 10
81.957980
 20
90.950452
 30
0.0
 10
81.228737
 20
92.738662
 30
0.0
  0
SPLINE
  5
19c
100
AcDbEntity
  8
0
 62
1
100
AcDbSpline
 70
8
 71
3
 72
8
 73
4
 74
0
 40
0
 40
0
 40
0
 40
0
 40
1
 40
1
 40
1
 40
1
 10
81.228737
 20
92.738662
 30
0.0
 10
80.681703
 20
95.582215
 30
0.0
 10
80.764315
 20
103.021020
 30
0.0
 10
81.380322
 20
106.377382
 30
0.0
  0
SPLINE
  5
19d
100
AcDbEntity
  8
0
 62
1
100
AcDbSpline
 70
8
 71
3
 72
8
 73
4
 74
0
 40
0
 40
0
 40
0
 40
0
 40
1
 40
1
 40
1
 40
1
 10
81.380322
 20
106.377382
 30
0.0
 10
81.668566
 20
107.947838
 30
0.0
 10
81.810843
 20
109.606458
 30
0.0
 10
81.696168
 20
110.063359
 30
0.0
  0
SPLINE
  5
19e
100
AcDbEntity
  8
0
 62
1
100
AcDbSpline
 70
8
 71
3
 72
8
 73
4
 74
0
 40
0
 40
0
 40
0
 40
0
 40
1
 40
1
 40
1
 40
1
 10
81.696168
 20
110.063359
 30
0.0
 10
81.376170
 20
111.338346
 30
0.0
 10
79.022849
 20
113.681654
 30
0.0
 10
77.135965
 20
114.604823
 30
0.0
  0
SPLINE
  5
19f
100
AcDbEntity
  8
0
 62
1
100
AcDbSpline
 70
8
 71
3
 72
8
 73
4
 74
0
 40
0
 40
0
 40
0
 40
0
 40
1
 40
1
 40
1
 40
1
 10
77.135965
 20
114.604823
 30
0.0
 10
76.203714
 20
115.060922
 30
0.0
 10
74.496651
 20
115.626388
 30
0.0
 10
73.341950
 20
115.861592
 30
0.0
  0
LWPOLYLINE
  5
1a0
100
AcDbEntity
  8
0
 62
7
100
AcDbPolyline
 90
2
 70
1
 10
64.614744
 20
57.815463
 30
0.0
 10
64.614744
 20
57.815452
 30
0.0
  0
SPLINE
  5
1a1
100
AcDbEntity
  8
0
 62
1
100
AcDbSpline
 70
8
 71
3
 72
8
 73
4
 74
0
 40
0
 40
0
 40
0
 40
0
 40
1
 40
1
 40
1
 40
1
 10
71.242369
 20
116.289336
 30
0.0
 10
70.098821
 20
116.338754
 30
0.0
 10
69.551172
 20
116.424783
 30
0.0
 10
68.990656
 20
116.448086
 30
0.0
  0
SPLINE
  5
1a2
100
AcDbEntity
  8
0
 62
1
100
AcDbSpline
 70
8
 71
3
 72
8
 73
4
 74
0
 40
0
 40
0
 40
0
 40
0
 40
1
 40
1
 40
1
 40
1
 10
68.990656
 20
116.448086
 30
0.0
 10
68.873881
 20
116.452941
 30
0.0
 10
68.756344
 20
116.455644
 30
0.0
 10
68.632917
 20
116.454149
 30
0.0
  0
LWPOLYLINE
  5
1a3
100
AcDbEntity
  8
0
 62
1
100
AcDbPolyline
 90
2
 70
0
 10
73.341950
 20
115.861592
 30
0.0
 10
71.242369
 20
116.289336
 30
0.0
  0
SPLINE
  5
1a4
100
AcDbEntity
  8
0
 62
1
100
AcDbSpline
 70
8
 71
3
 72
8
 73
4
 74
0
 40
0
 40
0
 40
0
 40
0
 40
1
 40
1
 40
1
 40
1
 10
68.412431
 20
115.420620
 30
0.0
 10
68.889459
 20
115.420597
 30
0.0
 10
69.276161
 20
115.033896
 30
0.0
 10
69.276186
 20
114.556867
 30
0.0
  0
SPLINE
  5
1a5
100
AcDbEntity
  8
0
 62
1
100
AcDbSpline
 70
8
 71
3
 72
8
 73
4
 74
0
 40
0
 40
0
 40
0
 40
0
 40
1
 40
1
 40
1
 40
1
 10
69.276186
 20
114.556867
 30
0.0
 10
69.276163
 20
114.079838
 30
0.0
 10
68.889460
 20
113.693135
 30
0.0
 10
68.412431
 20
113.693112
 30
0.0
  0
SPLINE
  5
1a6
100
AcDbEntity
  8
0
 62
1
100
AcDbSpline
 70
8
 71
3
 72
8
 73
4
 74
0
 40
0
 40
0
 40
0
 40
0
 40
1
 40
1
 40
1
 40
1
 10
68.412431
 20
113.693112
 30
0.0
 10
67.935401
 20
113.693135
 30
0.0
 10
67.548698
 20
114.079838
 30
0.0
 10
67.548675
 20
114.556867
 30
0.0
  0
SPLINE
  5
1a7
100
AcDbEntity
  8
0
 62
1
100
AcDbSpline
 70
8
 71
3
 72
8
 73
4
 74
0
 40
0
 40
0
 40
0
 40
0
 40
1
 40
1
 40
1
 40
1
 10
67.548675
 20
114.556867
 30
0.0
 10
67.548700
 20
115.033896
 30
0.0
 10
67.935402
 20
115.420597
 30
0.0
 10
68.412431
 20
115.420620
 30
0.0
  0
LWPOLYLINE
  5
1a8
100
AcDbEntity
  8
0
 62
1
100
AcDbPolyline
 90
2
 70
0
 10
68.632917
 20
116.454149
 30
0.0
 10
68.632917
 20
116.454149
 30
0.0
  0
SPLINE
  5
1a9
100
AcDbEntity
  8
0
 62
1
100
AcDbSpline
 70
8
 71
3
 72
8
 73
4
 74
0
 40
0
 40
0
 40
0
 40
0
 40
1
 40
1
 40
1
 40
1
 10
68.974671
 20
90.745468
 30
0.0
 10
73.877562
 20
90.749278
 30
0.0
 10
78.543046
 20
89.941804
 30
0.0
 10
79.833611
 20
88.390676
 30
0.0
  0
SPLINE
  5
1aa
100
AcDbEntity
  8
0
 62
1
100
AcDbSpline
 70
8
 71
3
 72
8
 73
4
 74
0
 40
0
 40
0
 40
0
 40
0
 40
1
 40
1
 40
1
 40
1
 10
79.833611
 20
88.390676
 30
0.0
 10
81.070498
 20
87.244863
 30
0.0
 10
81.920935
 20
85.335801
 30
0.0
 10
80.690201
 20
83.989223
 30
0.0
  0
SPLINE
  5
1ab
100
AcDbEntity
  8
0
 62
1
100
AcDbSpline
 70
8
 71
3
 72
8
 73
4
 74
0
 40
0
 40
0
 40
0
 40
0
 40
1
 40
1
 40
1
 40
1
 10
80.690201
 20
83.989223
 30
0.0
 10
79.459469
 20
82.642639
 30
0.0
 10
74.486270
 20
81.463555
 30
0.0
 10
74.486270
 20
81.463555
 30
0.0
  0
SPLINE
  5
1ac
100
AcDbEntity
  8
0
 62
1
100
AcDbSpline
 70
8
 71
3
 72
8
 73
4
 74
0
 40
0
 40
0
 40
0
 40
0
 40
1
 40
1
 40
1
 40
1
 10
74.486270
 20
81.463555
 30
0.0
 10
72.636188
 20
80.956726
 30
0.0
 10
65.751975
 20
80.658194
 30
0.0
 10
62.960910
 20
81.178575
 30
0.0
  0
SPLINE
  5
1ad
100
AcDbEntity
  8
0
 62
1
100
AcDbSpline
 70
8
 71
3
 72
8
 73
4
 74
0
 40
0
 40
0
 40
0
 40
0
 40
1
 40
1
 40
1
 40
1
 10
62.960910
 20
81.178575
 30
0.0
 10
58.377489
 20
82.033147
 30
0.0
 10
55.107747
 20
83.934269
 30
0.0
 10
55.107747
 20
85.744293
 30
0.0
  0
SPLINE
  5
1ae
100
AcDbEntity
  8
0
 62
1
100
AcDbSpline
 70
8
 71
3
 72
8
 73
4
 74
0
 40
0
 40
0
 40
0
 40
0
 40
1
 40
1
 40
1
 40
1
 10
55.107747
 20
85.744293
 30
0.0
 10
55.107747
 20
86.751767
 30
0.0
 10
56.174107
 20
88.057222
 30
0.0
 10
57.598138
 20
88.793616
 30
0.0
  0
SPLINE
  5
1af
100
AcDbEntity
  8
0
 62
1
100
AcDbSpline
 70
8
 71
3
 72
8
 73
4
 74
0
 40
0
 40
0
 40
0
 40
0
 40
1
 40
1
 40
1
 40
1
 10
57.598138
 20
88.793616
 30
0.0
 10
60.138143
 20
90.107107
 30
0.0
 10
64.648594
 20
90.742118
 30
0.0
 10
68.974671
 20
90.745468
 30
0.0
  0
LWPOLYLINE
  5
1b0
100
AcDbEntity
  8
0
 62
1
100
AcDbPolyline
 90
2
 70
0
 10
68.412431
 20
115.420620
 30
0.0
 10
68.412431
 20
115.420620
 30
0.0
  0
LWPOLYLINE
  5
1b1
100
AcDbEntity
  8
0
 62
1
100
AcDbPolyline
 90
2
 70
0
 10
68.974671
 20
90.745468
 30
0.0
 10
68.974671
 20
90.745468
 30
0.0
  0
ENDSEC
  0
SECTION
  2
OBJECTS
  0
DICTIONARY
  5
C
330
0
100
AcDbDictionary
  3
ACAD_GROUP
350
D
  3
ACAD_MLINESTYLE
350
17
  0
DICTIONARY
  5
D
330
C
100
AcDbDictionary
  0
DICTIONARY
  5
1A
330
C
100
AcDbDictionary
  0
DICTIONARY
  5
17
330
C
100
AcDbDictionary
  3
STANDARD
350
18
  0
DICTIONARY
  5
19
330
C
100
AcDbDictionary
  0
ENDSEC
  0
EOF
