  0
SECTION
  2
HEADER
  9
$ACADVER
  1
AC1014
  9
$HANDSEED
  5
FFFF
  9
$MEASUREMENT
 70
     1
  0
ENDSEC
  0
SECTION
  2
TABLES
  0
TABLE
  2
VPORT
  5
8
330
0
100
AcDbSymbolTable
 70
     4
  0
VPORT
  5
2E
330
8
100
AcDbSymbolTableRecord
100
AcDbViewportTableRecord
  2
*ACTIVE
 70
     0
 10
0.0
 20
0.0
 11
1.0
 21
1.0
 12
210.0
 22
148.5
 13
0.0
 23
0.0
 14
10.0
 24
10.0
 15
10.0
 25
10.0
 16
0.0
 26
0.0
 36
1.0
 17
0.0
 27
0.0
 37
0.0
 40
341.0
 41
1.24
 42
50.0
 43
0.0
 44
0.0
 50
0.0
 51
0.0
 71
     0
 72
   100
 73
     1
 74
     3
 75
     0
 76
     0
 77
     0
 78
     0
  0
ENDTAB
  0
TABLE
  2
LTYPE
  5
5
330
0
100
AcDbSymbolTable
 70
     1
  0
LTYPE
  5
14
330
5
100
AcDbSymbolTableRecord
100
AcDbLinetypeTableRecord
  2
BYBLOCK
 70
     0
  3

 72
    65
 73
     0
 40
0.0
  0
LTYPE
  5
15
330
5
100
AcDbSymbolTableRecord
100
AcDbLinetypeTableRecord
  2
BYLAYER
 70
     0
  3

 72
    65
 73
     0
 40
0.0
  0
LTYPE
  5
16
330
5
100
AcDbSymbolTableRecord
100
AcDbLinetypeTableRecord
  2
CONTINUOUS
 70
     0
  3
Solid line
 72
    65
 73
     0
 40
0.0
  0
ENDTAB
  0
TABLE
  2
LAYER
  5
2
100
AcDbSymbolTable
 70
1
  0
LAYER
  5
50
100
AcDbSymbolTableRecord
100
AcDbLayerTableRecord
  2
0
 70
0
  6
CONTINUOUS
  0
ENDTAB
  0
TABLE
  2
STYLE
  5
3
330
0
100
AcDbSymbolTable
 70
     1
  0
STYLE
  5
11
330
3
100
AcDbSymbolTableRecord
100
AcDbTextStyleTableRecord
  2
STANDARD
 70
     0
 40
0.0
 41
1.0
 50
0.0
 71
     0
 42
2.5
  3
txt
  4

  0
ENDTAB
  0
TABLE
  2
VIEW
  5
6
330
0
100
AcDbSymbolTable
 70
     0
  0
ENDTAB
  0
TABLE
  2
UCS
  5
7
330
0
100
AcDbSymbolTable
 70
     0
  0
ENDTAB
  0
TABLE
  2
APPID
  5
9
330
0
100
AcDbSymbolTable
 70
     2
  0
APPID
  5
12
330
9
100
AcDbSymbolTableRecord
100
AcDbRegAppTableRecord
  2
ACAD
 70
     0
  0
ENDTAB
  0
TABLE
  2
DIMSTYLE
  5
A
330
0
100
AcDbSymbolTable
 70
     1
  0
DIMSTYLE
105
27
330
A
100
AcDbSymbolTableRecord
100
AcDbDimStyleTableRecord
  2
ISO-25
 70
     0
  3

  4

  5

  6

  7

 40
1.0
 41
2.5
 42
0.625
 43
3.75
 44
1.25
 45
0.0
 46
0.0
 47
0.0
 48
0.0
140
2.5
141
2.5
142
0.0
143
0.03937007874016
144
1.0
145
0.0
146
1.0
147
0.625
 71
     0
 72
     0
 73
     0
 74
     0
 75
     0
 76
     0
 77
     1
 78
     8
170
     0
171
     3
172
     1
173
     0
174
     0
175
     0
176
     0
177
     0
178
     0
270
     2
271
     2
272
     2
273
     2
274
     3
340
11
275
     0
280
     0
281
     0
282
     0
283
     0
284
     8
285
     0
286
     0
287
     3
288
     0
  0
ENDTAB
  0
TABLE
  2
BLOCK_RECORD
  5
1
330
0
100
AcDbSymbolTable
 70
     1
  0
BLOCK_RECORD
  5
1F
330
1
100
AcDbSymbolTableRecord
100
AcDbBlockTableRecord
  2
*MODEL_SPACE
  0
BLOCK_RECORD
  5
1B
330
1
100
AcDbSymbolTableRecord
100
AcDbBlockTableRecord
  2
*PAPER_SPACE
  0
ENDTAB
  0
ENDSEC
  0
SECTION
  2
BLOCKS
  0
BLOCK
  5
20
330
1F
100
AcDbEntity
  8
0
100
AcDbBlockBegin
  2
*MODEL_SPACE
 70
     0
 10
0.0
 20
0.0
 30
0.0
  3
*MODEL_SPACE
  1

  0
ENDBLK
  5
21
330
1F
100
AcDbEntity
  8
0
100
AcDbBlockEnd
  0
BLOCK
  5
1C
330
1B
100
AcDbEntity
 67
     1
  8
0
100
AcDbBlockBegin
  2
*PAPER_SPACE
  1

  0
ENDBLK
  5
1D
330
1B
100
AcDbEntity
 67
     1
  8
0
100
AcDbBlockEnd
  0
ENDSEC
  0
SECTION
  2
ENTITIES
  0
SPLINE
  5
100
100
AcDbEntity
  8
0
 62
7
100
AcDbSpline
 70
8
 71
3
 72
8
 73
4
 74
0
 40
0
 40
0
 40
0
 40
0
 40
1
 40
1
 40
1
 40
1
 10
19.425809
 20
89.297973
 30
0.0
 10
19.331640
 20
88.485390
 30
0.0
 10
19.596686
 20
88.213337
 30
0.0
 10
21.542476
 20
87.125082
 30
0.0
  0
SPLINE
  5
101
100
AcDbEntity
  8
0
 62
7
100
AcDbSpline
 70
8
 71
3
 72
8
 73
4
 74
0
 40
0
 40
0
 40
0
 40
0
 40
1
 40
1
 40
1
 40
1
 10
21.542476
 20
87.125082
 30
0.0
 10
24.002996
 20
85.748944
 30
0.0
 10
28.447661
 20
82.325236
 30
0.0
 10
30.168446
 20
80.480734
 30
0.0
  0
SPLINE
  5
102
100
AcDbEntity
  8
0
 62
7
100
AcDbSpline
 70
8
 71
3
 72
8
 73
4
 74
0
 40
0
 40
0
 40
0
 40
0
 40
1
 40
1
 40
1
 40
1
 10
30.168446
 20
80.480734
 30
0.0
 10
32.305712
 20
78.189812
 30
0.0
 10
34.731085
 20
74.677544
 30
0.0
 10
36.349223
 20
71.529549
 30
0.0
  0
SPLINE
  5
103
100
AcDbEntity
  8
0
 62
7
100
AcDbSpline
 70
8
 71
3
 72
8
 73
4
 74
0
 40
0
 40
0
 40
0
 40
0
 40
1
 40
1
 40
1
 40
1
 10
36.349223
 20
71.529549
 30
0.0
 10
38.047964
 20
68.224755
 30
0.0
 10
39.818019
 20
63.154596
 30
0.0
 10
39.818019
 20
61.593893
 30
0.0
  0
SPLINE
  5
104
100
AcDbEntity
  8
0
 62
7
100
AcDbSpline
 70
8
 71
3
 72
8
 73
4
 74
0
 40
0
 40
0
 40
0
 40
0
 40
1
 40
1
 40
1
 40
1
 10
39.818019
 20
61.593893
 30
0.0
 10
39.818019
 20
60.715691
 30
0.0
 10
39.770583
 20
60.697107
 30
0.0
 10
38.142325
 20
60.940704
 30
0.0
  0
SPLINE
  5
105
100
AcDbEntity
  8
0
 62
7
100
AcDbSpline
 70
8
 71
3
 72
8
 73
4
 74
0
 40
0
 40
0
 40
0
 40
0
 40
1
 40
1
 40
1
 40
1
 10
38.142325
 20
60.940704
 30
0.0
 10
35.349584
 20
61.358514
 30
0.0
 10
30.973607
 20
62.866637
 30
0.0
 10
28.176352
 20
64.375876
 30
0.0
  0
SPLINE
  5
106
100
AcDbEntity
  8
0
 62
7
100
AcDbSpline
 70
8
 71
3
 72
8
 73
4
 74
0
 40
0
 40
0
 40
0
 40
0
 40
1
 40
1
 40
1
 40
1
 10
28.176352
 20
64.375876
 30
0.0
 10
21.980784
 20
67.718652
 30
0.0
 10
15.623624
 20
74.881324
 30
0.0
 10
13.436856
 20
80.982339
 30
0.0
  0
SPLINE
  5
107
100
AcDbEntity
  8
0
 62
7
100
AcDbSpline
 70
8
 71
3
 72
8
 73
4
 74
0
 40
0
 40
0
 40
0
 40
0
 40
1
 40
1
 40
1
 40
1
 10
13.436856
 20
80.982339
 30
0.0
 10
12.878753
 20
82.539435
 30
0.0
 10
12.746478
 20
82.665496
 30
0.0
 10
11.772185
 20
82.569839
 30
0.0
  0
LWPOLYLINE
  5
108
100
AcDbEntity
  8
0
 62
7
100
AcDbPolyline
 90
2
 70
1
 10
19.533296
 20
90.226771
 30
0.0
 10
19.425809
 20
89.297973
 30
0.0
  0
SPLINE
  5
109
100
AcDbEntity
  8
0
 62
7
100
AcDbSpline
 70
8
 71
3
 72
8
 73
4
 74
0
 40
0
 40
0
 40
0
 40
0
 40
1
 40
1
 40
1
 40
1
 10
11.302550
 20
19.730195
 30
0.0
 10
11.725322
 20
19.619654
 30
0.0
 10
12.203522
 20
19.610945
 30
0.0
 10
12.365292
 20
19.710891
 30
0.0
  0
SPLINE
  5
10a
100
AcDbEntity
  8
0
 62
7
100
AcDbSpline
 70
8
 71
3
 72
8
 73
4
 74
0
 40
0
 40
0
 40
0
 40
0
 40
1
 40
1
 40
1
 40
1
 10
12.365292
 20
19.710891
 30
0.0
 10
12.527062
 20
19.810868
 30
0.0
 10
13.559572
 20
21.271580
 30
0.0
 10
14.659451
 20
22.956999
 30
0.0
  0
SPLINE
  5
10b
100
AcDbEntity
  8
0
 62
7
100
AcDbSpline
 70
8
 71
3
 72
8
 73
4
 74
0
 40
0
 40
0
 40
0
 40
0
 40
1
 40
1
 40
1
 40
1
 10
14.659451
 20
22.956999
 30
0.0
 10
18.334876
 20
28.589099
 30
0.0
 10
25.015336
 20
34.501940
 30
0.0
 10
31.174964
 20
37.574126
 30
0.0
  0
SPLINE
  5
10c
100
AcDbEntity
  8
0
 62
7
100
AcDbSpline
 70
8
 71
3
 72
8
 73
4
 74
0
 40
0
 40
0
 40
0
 40
0
 40
1
 40
1
 40
1
 40
1
 10
31.174964
 20
37.574126
 30
0.0
 10
32.918787
 20
38.443876
 30
0.0
 10
37.292596
 20
40.009529
 30
0.0
 10
39.232078
 20
40.458635
 30
0.0
  0
SPLINE
  5
10d
100
AcDbEntity
  8
0
 62
7
100
AcDbSpline
 70
8
 71
3
 72
8
 73
4
 74
0
 40
0
 40
0
 40
0
 40
0
 40
1
 40
1
 40
1
 40
1
 10
39.232078
 20
40.458635
 30
0.0
 10
40.208558
 20
40.684749
 30
0.0
 10
40.227092
 20
40.662069
 30
0.0
 10
39.986142
 20
39.529836
 30
0.0
  0
SPLINE
  5
10e
100
AcDbEntity
  8
0
 62
7
100
AcDbSpline
 70
8
 71
3
 72
8
 73
4
 74
0
 40
0
 40
0
 40
0
 40
0
 40
1
 40
1
 40
1
 40
1
 10
39.986142
 20
39.529836
 30
0.0
 10
39.252494
 20
36.082407
 30
0.0
 10
36.378196
 20
29.599675
 30
0.0
 10
34.090892
 20
26.233975
 30
0.0
  0
SPLINE
  5
10f
100
AcDbEntity
  8
0
 62
7
100
AcDbSpline
 70
8
 71
3
 72
8
 73
4
 74
0
 40
0
 40
0
 40
0
 40
0
 40
1
 40
1
 40
1
 40
1
 10
34.090892
 20
26.233975
 30
0.0
 10
31.130799
 20
21.878278
 30
0.0
 10
25.583805
 20
16.655914
 30
0.0
 10
21.336321
 20
14.225749
 30
0.0
  0
SPLINE
  5
110
100
AcDbEntity
  8
0
 62
7
100
AcDbSpline
 70
8
 71
3
 72
8
 73
4
 74
0
 40
0
 40
0
 40
0
 40
0
 40
1
 40
1
 40
1
 40
1
 10
21.336321
 20
14.225749
 30
0.0
 10
19.850424
 20
13.375606
 30
0.0
 10
19.356907
 20
12.894470
 30
0.0
 10
19.356907
 20
12.295945
 30
0.0
  0
SPLINE
  5
111
100
AcDbEntity
  8
0
 62
7
100
AcDbSpline
 70
8
 71
3
 72
8
 73
4
 74
0
 40
0
 40
0
 40
0
 40
0
 40
1
 40
1
 40
1
 40
1
 10
19.356907
 20
12.295945
 30
0.0
 10
19.356907
 20
11.857451
 30
0.0
 10
19.462924
 20
11.392865
 30
0.0
 10
19.592278
 20
11.263517
 30
0.0
  0
SPLINE
  5
112
100
AcDbEntity
  8
0
 62
7
100
AcDbSpline
 70
8
 71
3
 72
8
 73
4
 74
0
 40
0
 40
0
 40
0
 40
0
 40
1
 40
1
 40
1
 40
1
 10
19.592278
 20
11.263517
 30
0.0
 10
19.721629
 20
11.134160
 30
0.0
 10
33.833655
 20
11.028149
 30
0.0
 10
50.952016
 20
11.028149
 30
0.0
  0
SPLINE
  5
113
100
AcDbEntity
  8
0
 62
7
100
AcDbSpline
 70
8
 71
3
 72
8
 73
4
 74
0
 40
0
 40
0
 40
0
 40
0
 40
1
 40
1
 40
1
 40
1
 10
50.952016
 20
11.028149
 30
0.0
 10
79.007866
 20
11.028149
 30
0.0
 10
82.097237
 20
11.083524
 30
0.0
 10
82.290260
 20
11.586531
 30
0.0
  0
SPLINE
  5
114
100
AcDbEntity
  8
0
 62
7
100
AcDbSpline
 70
8
 71
3
 72
8
 73
4
 74
0
 40
0
 40
0
 40
0
 40
0
 40
1
 40
1
 40
1
 40
1
 10
82.290260
 20
11.586531
 30
0.0
 10
82.739540
 20
12.757336
 30
0.0
 10
82.425359
 20
13.104009
 30
0.0
 10
79.778922
 20
14.360793
 30
0.0
  0
SPLINE
  5
115
100
AcDbEntity
  8
0
 62
7
100
AcDbSpline
 70
8
 71
3
 72
8
 73
4
 74
0
 40
0
 40
0
 40
0
 40
0
 40
1
 40
1
 40
1
 40
1
 10
79.778922
 20
14.360793
 30
0.0
 10
71.434712
 20
18.323444
 30
0.0
 10
65.568587
 20
24.365367
 30
0.0
 10
62.427217
 20
32.231197
 30
0.0
  0
SPLINE
  5
116
100
AcDbEntity
  8
0
 62
7
100
AcDbSpline
 70
8
 71
3
 72
8
 73
4
 74
0
 40
0
 40
0
 40
0
 40
0
 40
1
 40
1
 40
1
 40
1
 10
62.427217
 20
32.231197
 30
0.0
 10
61.238206
 20
35.208413
 30
0.0
 10
60.279130
 20
38.613715
 30
0.0
 10
60.279130
 20
39.860564
 30
0.0
  0
SPLINE
  5
117
100
AcDbEntity
  8
0
 62
7
100
AcDbSpline
 70
8
 71
3
 72
8
 73
4
 74
0
 40
0
 40
0
 40
0
 40
0
 40
1
 40
1
 40
1
 40
1
 10
60.279130
 20
39.860564
 30
0.0
 10
60.279130
 20
40.811574
 30
0.0
 10
60.642424
 20
40.767779
 30
0.0
 10
64.688853
 20
39.331948
 30
0.0
  0
SPLINE
  5
118
100
AcDbEntity
  8
0
 62
7
100
AcDbSpline
 70
8
 71
3
 72
8
 73
4
 74
0
 40
0
 40
0
 40
0
 40
0
 40
1
 40
1
 40
1
 40
1
 10
64.688853
 20
39.331948
 30
0.0
 10
73.111828
 20
36.343144
 30
0.0
 10
80.946323
 20
30.233481
 30
0.0
 10
86.007654
 20
22.706194
 30
0.0
  0
SPLINE
  5
119
100
AcDbEntity
  8
0
 62
7
100
AcDbSpline
 70
8
 71
3
 72
8
 73
4
 74
0
 40
0
 40
0
 40
0
 40
0
 40
1
 40
1
 40
1
 40
1
 10
86.007654
 20
22.706194
 30
0.0
 10
87.195271
 20
20.939954
 30
0.0
 10
88.282015
 20
19.497505
 30
0.0
 10
88.422531
 20
19.500325
 30
0.0
  0
SPLINE
  5
11a
100
AcDbEntity
  8
0
 62
7
100
AcDbSpline
 70
8
 71
3
 72
8
 73
4
 74
0
 40
0
 40
0
 40
0
 40
0
 40
1
 40
1
 40
1
 40
1
 10
88.422531
 20
19.500325
 30
0.0
 10
88.563049
 20
19.503288
 30
0.0
 10
88.915867
 20
19.656498
 30
0.0
 10
89.206908
 20
19.840425
 30
0.0
  0
SPLINE
  5
11b
100
AcDbEntity
  8
0
 62
7
100
AcDbSpline
 70
8
 71
3
 72
8
 73
4
 74
0
 40
0
 40
0
 40
0
 40
0
 40
1
 40
1
 40
1
 40
1
 10
89.206908
 20
19.840425
 30
0.0
 10
89.670757
 20
20.133564
 30
0.0
 10
89.736075
 20
24.019160
 30
0.0
 10
89.736075
 20
51.320330
 30
0.0
  0
LWPOLYLINE
  5
11c
100
AcDbEntity
  8
0
 62
7
100
AcDbPolyline
 90
5
 70
1
 10
11.772185
 20
82.569839
 30
0.0
 10
10.713852
 20
82.465660
 30
0.0
 10
10.624004
 20
51.198526
 30
0.0
 10
10.534155
 20
19.930838
 30
0.0
 10
11.302550
 20
19.730195
 30
0.0
  0
SPLINE
  5
11d
100
AcDbEntity
  8
0
 62
7
100
AcDbSpline
 70
8
 71
3
 72
8
 73
4
 74
0
 40
0
 40
0
 40
0
 40
0
 40
1
 40
1
 40
1
 40
1
 10
88.823814
 20
82.572033
 30
0.0
 10
88.000086
 20
82.667774
 30
0.0
 10
87.674758
 20
82.277433
 30
0.0
 10
85.486756
 20
78.570210
 30
0.0
  0
SPLINE
  5
11e
100
AcDbEntity
  8
0
 62
7
100
AcDbSpline
 70
8
 71
3
 72
8
 73
4
 74
0
 40
0
 40
0
 40
0
 40
0
 40
1
 40
1
 40
1
 40
1
 10
85.486756
 20
78.570210
 30
0.0
 10
81.554670
 20
71.907910
 30
0.0
 10
76.345153
 20
66.849831
 30
0.0
 10
70.333297
 20
63.856068
 30
0.0
  0
SPLINE
  5
11f
100
AcDbEntity
  8
0
 62
7
100
AcDbSpline
 70
8
 71
3
 72
8
 73
4
 74
0
 40
0
 40
0
 40
0
 40
0
 40
1
 40
1
 40
1
 40
1
 10
70.333297
 20
63.856068
 30
0.0
 10
67.175642
 20
62.283630
 30
0.0
 10
62.770187
 20
60.769813
 30
0.0
 10
61.350694
 20
60.769813
 30
0.0
  0
SPLINE
  5
120
100
AcDbEntity
  8
0
 62
7
100
AcDbSpline
 70
8
 71
3
 72
8
 73
4
 74
0
 40
0
 40
0
 40
0
 40
0
 40
1
 40
1
 40
1
 40
1
 10
61.350694
 20
60.769813
 30
0.0
 10
60.268276
 20
60.769813
 30
0.0
 10
60.251693
 20
60.794790
 30
0.0
 10
60.487489
 20
62.092730
 30
0.0
  0
SPLINE
  5
121
100
AcDbEntity
  8
0
 62
7
100
AcDbSpline
 70
8
 71
3
 72
8
 73
4
 74
0
 40
0
 40
0
 40
0
 40
0
 40
1
 40
1
 40
1
 40
1
 10
60.487489
 20
62.092730
 30
0.0
 10
61.093071
 20
65.426124
 30
0.0
 10
63.442175
 20
70.792786
 30
0.0
 10
66.085082
 20
74.880926
 30
0.0
  0
SPLINE
  5
122
100
AcDbEntity
  8
0
 62
7
100
AcDbSpline
 70
8
 71
3
 72
8
 73
4
 74
0
 40
0
 40
0
 40
0
 40
0
 40
1
 40
1
 40
1
 40
1
 10
66.085082
 20
74.880926
 30
0.0
 10
69.143671
 20
79.612060
 30
0.0
 10
74.638589
 20
84.579100
 30
0.0
 10
79.516543
 20
87.022545
 30
0.0
  0
SPLINE
  5
123
100
AcDbEntity
  8
0
 62
7
100
AcDbSpline
 70
8
 71
3
 72
8
 73
4
 74
0
 40
0
 40
0
 40
0
 40
0
 40
1
 40
1
 40
1
 40
1
 10
79.516543
 20
87.022545
 30
0.0
 10
81.929035
 20
88.231002
 30
0.0
 10
82.180382
 20
88.453867
 30
0.0
 10
82.083004
 20
89.294654
 30
0.0
  0
LWPOLYLINE
  5
124
100
AcDbEntity
  8
0
 62
7
100
AcDbPolyline
 90
3
 70
1
 10
89.736075
 20
51.320330
 30
0.0
 10
89.736075
 20
82.465648
 30
0.0
 10
88.823814
 20
82.572033
 30
0.0
  0
SPLINE
  5
125
100
AcDbEntity
  8
0
 62
7
100
AcDbSpline
 70
8
 71
3
 72
8
 73
4
 74
0
 40
0
 40
0
 40
0
 40
0
 40
1
 40
1
 40
1
 40
1
 10
50.052986
 20
88.593520
 30
0.0
 10
54.954164
 20
88.593520
 30
0.0
 10
59.868776
 20
88.580885
 30
0.0
 10
63.613434
 20
88.555486
 30
0.0
  0
LWPOLYLINE
  5
126
100
AcDbEntity
  8
0
 62
7
100
AcDbPolyline
 90
5
 70
1
 10
82.083004
 20
89.294654
 30
0.0
 10
81.974964
 20
90.226760
 30
0.0
 10
50.754130
 20
90.226760
 30
0.0
 10
19.533296
 20
90.226760
 30
0.0
 10
19.533296
 20
90.226771
 30
0.0
  0
SPLINE
  5
127
100
AcDbEntity
  8
0
 62
7
100
AcDbSpline
 70
8
 71
3
 72
8
 73
4
 74
0
 40
0
 40
0
 40
0
 40
0
 40
1
 40
1
 40
1
 40
1
 10
73.632873
 20
85.817049
 30
0.0
 10
67.866590
 20
81.576397
 30
0.0
 10
63.237895
 20
75.679795
 30
0.0
 10
60.588364
 20
69.198459
 30
0.0
  0
SPLINE
  5
128
100
AcDbEntity
  8
0
 62
7
100
AcDbSpline
 70
8
 71
3
 72
8
 73
4
 74
0
 40
0
 40
0
 40
0
 40
0
 40
1
 40
1
 40
1
 40
1
 10
60.588364
 20
69.198459
 30
0.0
 10
59.336601
 20
66.136647
 30
0.0
 10
57.812201
 20
60.669723
 30
0.0
 10
57.810789
 20
59.237448
 30
0.0
  0
LWPOLYLINE
  5
129
100
AcDbEntity
  8
0
 62
7
100
AcDbPolyline
 90
3
 70
1
 10
63.613434
 20
88.555486
 30
0.0
 10
77.230103
 20
88.462882
 30
0.0
 10
73.632873
 20
85.817049
 30
0.0
  0
SPLINE
  5
12a
100
AcDbEntity
  8
0
 62
7
100
AcDbSpline
 70
8
 71
3
 72
8
 73
4
 74
0
 40
0
 40
0
 40
0
 40
0
 40
1
 40
1
 40
1
 40
1
 10
59.661744
 20
58.468502
 30
0.0
 10
67.314058
 20
59.435655
 30
0.0
 10
76.286061
 20
64.144465
 30
0.0
 10
81.565936
 20
69.964647
 30
0.0
  0
SPLINE
  5
12b
100
AcDbEntity
  8
0
 62
7
100
AcDbSpline
 70
8
 71
3
 72
8
 73
4
 74
0
 40
0
 40
0
 40
0
 40
0
 40
1
 40
1
 40
1
 40
1
 10
81.565936
 20
69.964647
 30
0.0
 10
82.698960
 20
71.213618
 30
0.0
 10
84.564274
 20
73.634602
 30
0.0
 10
85.711075
 20
75.345061
 30
0.0
  0
LWPOLYLINE
  5
12c
100
AcDbEntity
  8
0
 62
7
100
AcDbPolyline
 90
3
 70
1
 10
57.810789
 20
59.237448
 30
0.0
 10
57.809661
 20
58.234238
 30
0.0
 10
59.661744
 20
58.468502
 30
0.0
  0
SPLINE
  5
12d
100
AcDbEntity
  8
0
 62
7
100
AcDbSpline
 70
8
 71
3
 72
8
 73
4
 74
0
 40
0
 40
0
 40
0
 40
0
 40
1
 40
1
 40
1
 40
1
 10
87.795772
 20
51.091586
 30
0.0
 10
87.795772
 20
36.041716
 30
0.0
 10
87.743586
 20
23.728160
 30
0.0
 10
87.679465
 20
23.728160
 30
0.0
  0
SPLINE
  5
12e
100
AcDbEntity
  8
0
 62
7
100
AcDbSpline
 70
8
 71
3
 72
8
 73
4
 74
0
 40
0
 40
0
 40
0
 40
0
 40
1
 40
1
 40
1
 40
1
 10
87.679465
 20
23.728160
 30
0.0
 10
87.615344
 20
23.728160
 30
0.0
 10
87.029445
 20
24.482224
 30
0.0
 10
86.377495
 20
25.403855
 30
0.0
  0
SPLINE
  5
12f
100
AcDbEntity
  8
0
 62
7
100
AcDbSpline
 70
8
 71
3
 72
8
 73
4
 74
0
 40
0
 40
0
 40
0
 40
0
 40
1
 40
1
 40
1
 40
1
 10
86.377495
 20
25.403855
 30
0.0
 10
84.781791
 20
27.659612
 30
0.0
 10
79.956477
 20
32.627999
 30
0.0
 10
77.565216
 20
34.477409
 30
0.0
  0
SPLINE
  5
130
100
AcDbEntity
  8
0
 62
7
100
AcDbSpline
 70
8
 71
3
 72
8
 73
4
 74
0
 40
0
 40
0
 40
0
 40
0
 40
1
 40
1
 40
1
 40
1
 10
77.565216
 20
34.477409
 30
0.0
 10
73.022906
 20
37.990441
 30
0.0
 10
66.477481
 20
41.175169
 30
0.0
 10
61.196327
 20
42.441368
 30
0.0
  0
SPLINE
  5
131
100
AcDbEntity
  8
0
 62
7
100
AcDbSpline
 70
8
 71
3
 72
8
 73
4
 74
0
 40
0
 40
0
 40
0
 40
0
 40
1
 40
1
 40
1
 40
1
 10
61.196327
 20
42.441368
 30
0.0
 10
57.633021
 20
43.295699
 30
0.0
 10
57.809661
 20
43.307327
 30
0.0
 10
57.809661
 20
42.216473
 30
0.0
  0
SPLINE
  5
132
100
AcDbEntity
  8
0
 62
7
100
AcDbSpline
 70
8
 71
3
 72
8
 73
4
 74
0
 40
0
 40
0
 40
0
 40
0
 40
1
 40
1
 40
1
 40
1
 10
57.809661
 20
42.216473
 30
0.0
 10
57.809661
 20
38.505618
 30
0.0
 10
60.469416
 20
30.427752
 30
0.0
 10
63.158102
 20
25.971604
 30
0.0
  0
SPLINE
  5
133
100
AcDbEntity
  8
0
 62
7
100
AcDbSpline
 70
8
 71
3
 72
8
 73
4
 74
0
 40
0
 40
0
 40
0
 40
0
 40
1
 40
1
 40
1
 40
1
 10
63.158102
 20
25.971604
 30
0.0
 10
65.566482
 20
21.980022
 30
0.0
 10
71.498816
 20
16.353626
 30
0.0
 10
75.584699
 20
14.186069
 30
0.0
  0
SPLINE
  5
134
100
AcDbEntity
  8
0
 62
7
100
AcDbSpline
 70
8
 71
3
 72
8
 73
4
 74
0
 40
0
 40
0
 40
0
 40
0
 40
1
 40
1
 40
1
 40
1
 10
75.584699
 20
14.186069
 30
0.0
 10
76.480151
 20
13.711033
 30
0.0
 10
77.212438
 20
13.207187
 30
0.0
 10
77.212438
 20
13.066000
 30
0.0
  0
SPLINE
  5
135
100
AcDbEntity
  8
0
 62
7
100
AcDbSpline
 70
8
 71
3
 72
8
 73
4
 74
0
 40
0
 40
0
 40
0
 40
0
 40
1
 40
1
 40
1
 40
1
 10
77.212438
 20
13.066000
 30
0.0
 10
77.212438
 20
12.924821
 30
0.0
 10
65.147438
 20
12.803375
 30
0.0
 10
50.401327
 20
12.796460
 30
0.0
  0
SPLINE
  5
136
100
AcDbEntity
  8
0
 62
7
100
AcDbSpline
 70
8
 71
3
 72
8
 73
4
 74
0
 40
0
 40
0
 40
0
 40
0
 40
1
 40
1
 40
1
 40
1
 10
50.401327
 20
12.796460
 30
0.0
 10
35.655216
 20
12.789546
 30
0.0
 10
23.590215
 20
12.906310
 30
0.0
 10
23.590215
 20
13.056082
 30
0.0
  0
SPLINE
  5
137
100
AcDbEntity
  8
0
 62
7
100
AcDbSpline
 70
8
 71
3
 72
8
 73
4
 74
0
 40
0
 40
0
 40
0
 40
0
 40
1
 40
1
 40
1
 40
1
 10
23.590215
 20
13.056082
 30
0.0
 10
23.590215
 20
13.205852
 30
0.0
 10
24.676435
 20
14.156873
 30
0.0
 10
26.003435
 20
15.168891
 30
0.0
  0
SPLINE
  5
138
100
AcDbEntity
  8
0
 62
7
100
AcDbSpline
 70
8
 71
3
 72
8
 73
4
 74
0
 40
0
 40
0
 40
0
 40
0
 40
1
 40
1
 40
1
 40
1
 10
26.003435
 20
15.168891
 30
0.0
 10
31.172266
 20
19.110799
 30
0.0
 10
36.144731
 20
25.182138
 30
0.0
 10
38.936049
 20
30.960105
 30
0.0
  0
SPLINE
  5
139
100
AcDbEntity
  8
0
 62
7
100
AcDbSpline
 70
8
 71
3
 72
8
 73
4
 74
0
 40
0
 40
0
 40
0
 40
0
 40
1
 40
1
 40
1
 40
1
 10
38.936049
 20
30.960105
 30
0.0
 10
40.791613
 20
34.801073
 30
0.0
 10
42.985687
 20
43.130938
 30
0.0
 10
42.141919
 20
43.130938
 30
0.0
  0
SPLINE
  5
13a
100
AcDbEntity
  8
0
 62
7
100
AcDbSpline
 70
8
 71
3
 72
8
 73
4
 74
0
 40
0
 40
0
 40
0
 40
0
 40
1
 40
1
 40
1
 40
1
 10
42.141919
 20
43.130938
 30
0.0
 10
40.339174
 20
43.130938
 30
0.0
 10
32.987595
 20
40.702681
 30
0.0
 10
29.234661
 20
38.867288
 30
0.0
  0
SPLINE
  5
13b
100
AcDbEntity
  8
0
 62
7
100
AcDbSpline
 70
8
 71
3
 72
8
 73
4
 74
0
 40
0
 40
0
 40
0
 40
0
 40
1
 40
1
 40
1
 40
1
 10
29.234661
 20
38.867288
 30
0.0
 10
24.276106
 20
36.442283
 30
0.0
 10
18.446845
 20
31.577584
 30
0.0
 10
14.951571
 20
26.948361
 30
0.0
  0
LWPOLYLINE
  5
13c
100
AcDbEntity
  8
0
 62
7
100
AcDbPolyline
 90
3
 70
1
 10
85.711075
 20
75.345061
 30
0.0
 10
87.795772
 20
78.455017
 30
0.0
 10
87.795772
 20
51.091586
 30
0.0
  0
SPLINE
  5
13d
100
AcDbEntity
  8
0
 62
7
100
AcDbSpline
 70
8
 71
3
 72
8
 73
4
 74
0
 40
0
 40
0
 40
0
 40
0
 40
1
 40
1
 40
1
 40
1
 10
12.387317
 20
50.391545
 30
0.0
 10
12.337581
 20
65.087133
 30
0.0
 10
12.399226
 20
77.204553
 30
0.0
 10
12.524017
 20
77.318962
 30
0.0
  0
SPLINE
  5
13e
100
AcDbEntity
  8
0
 62
7
100
AcDbSpline
 70
8
 71
3
 72
8
 73
4
 74
0
 40
0
 40
0
 40
0
 40
0
 40
1
 40
1
 40
1
 40
1
 10
12.524017
 20
77.318962
 30
0.0
 10
12.648824
 20
77.433373
 30
0.0
 10
12.813492
 20
77.353196
 30
0.0
 10
12.890025
 20
77.140920
 30
0.0
  0
SPLINE
  5
13f
100
AcDbEntity
  8
0
 62
7
100
AcDbSpline
 70
8
 71
3
 72
8
 73
4
 74
0
 40
0
 40
0
 40
0
 40
0
 40
1
 40
1
 40
1
 40
1
 10
12.890025
 20
77.140920
 30
0.0
 10
13.411174
 20
75.695446
 30
0.0
 10
17.122780
 20
70.736629
 30
0.0
 10
19.342551
 20
68.519912
 30
0.0
  0
SPLINE
  5
140
100
AcDbEntity
  8
0
 62
7
100
AcDbSpline
 70
8
 71
3
 72
8
 73
4
 74
0
 40
0
 40
0
 40
0
 40
0
 40
1
 40
1
 40
1
 40
1
 10
19.342551
 20
68.519912
 30
0.0
 10
24.943189
 20
62.926976
 30
0.0
 10
31.316041
 20
59.869758
 30
0.0
 10
39.788781
 20
58.711038
 30
0.0
  0
LWPOLYLINE
  5
141
100
AcDbEntity
  8
0
 62
7
100
AcDbPolyline
 90
3
 70
1
 10
14.951571
 20
26.948361
 30
0.0
 10
12.477715
 20
23.672486
 30
0.0
 10
12.387317
 20
50.391545
 30
0.0
  0
SPLINE
  5
142
100
AcDbEntity
  8
0
 62
7
100
AcDbSpline
 70
8
 71
3
 72
8
 73
4
 74
0
 40
0
 40
0
 40
0
 40
0
 40
1
 40
1
 40
1
 40
1
 10
41.934661
 20
59.702674
 30
0.0
 10
41.934661
 20
62.654521
 30
0.0
 10
39.647870
 20
69.606574
 30
0.0
 10
37.289571
 20
73.822604
 30
0.0
  0
SPLINE
  5
143
100
AcDbEntity
  8
0
 62
7
100
AcDbSpline
 70
8
 71
3
 72
8
 73
4
 74
0
 40
0
 40
0
 40
0
 40
0
 40
1
 40
1
 40
1
 40
1
 10
37.289571
 20
73.822604
 30
0.0
 10
34.638973
 20
78.561290
 30
0.0
 10
29.070862
 20
84.625912
 30
0.0
 10
24.875650
 20
87.343915
 30
0.0
  0
LWPOLYLINE
  5
144
100
AcDbEntity
  8
0
 62
7
100
AcDbPolyline
 90
3
 70
1
 10
39.788781
 20
58.711038
 30
0.0
 10
41.934661
 20
58.417239
 30
0.0
 10
41.934661
 20
59.702674
 30
0.0
  0
SPLINE
  5
145
100
AcDbEntity
  8
0
 62
7
100
AcDbSpline
 70
8
 71
3
 72
8
 73
4
 74
0
 40
0
 40
0
 40
0
 40
0
 40
1
 40
1
 40
1
 40
1
 10
36.572438
 20
88.555486
 30
0.0
 10
40.264055
 20
88.580886
 30
0.0
 10
45.151782
 20
88.593520
 30
0.0
 10
50.052961
 20
88.593520
 30
0.0
  0
LWPOLYLINE
  5
146
100
AcDbEntity
  8
0
 62
7
100
AcDbPolyline
 90
3
 70
1
 10
24.875650
 20
87.343915
 30
0.0
 10
23.148142
 20
88.462882
 30
0.0
 10
36.572438
 20
88.555486
 30
0.0
  0
LWPOLYLINE
  5
147
100
AcDbEntity
  8
0
 62
7
100
AcDbPolyline
 90
2
 70
1
 10
50.052961
 20
88.593520
 30
0.0
 10
50.052986
 20
88.593520
 30
0.0
  0
SPLINE
  5
148
100
AcDbEntity
  8
0
 62
7
100
AcDbSpline
 70
8
 71
3
 72
8
 73
4
 74
0
 40
0
 40
0
 40
0
 40
0
 40
1
 40
1
 40
1
 40
1
 10
31.437893
 20
83.227990
 30
0.0
 10
35.954586
 20
78.677262
 30
0.0
 10
38.907576
 20
74.191144
 30
0.0
 10
41.032898
 20
68.652203
 30
0.0
  0
SPLINE
  5
149
100
AcDbEntity
  8
0
 62
7
100
AcDbSpline
 70
8
 71
3
 72
8
 73
4
 74
0
 40
0
 40
0
 40
0
 40
0
 40
1
 40
1
 40
1
 40
1
 10
41.032898
 20
68.652203
 30
0.0
 10
42.206266
 20
65.594218
 30
0.0
 10
43.345797
 20
60.470996
 30
0.0
 10
43.345797
 20
58.254081
 30
0.0
  0
SPLINE
  5
14a
100
AcDbEntity
  8
0
 62
7
100
AcDbSpline
 70
8
 71
3
 72
8
 73
4
 74
0
 40
0
 40
0
 40
0
 40
0
 40
1
 40
1
 40
1
 40
1
 10
43.345797
 20
58.254081
 30
0.0
 10
43.345797
 20
57.298115
 30
0.0
 10
43.262609
 20
57.242267
 30
0.0
 10
41.846492
 20
57.244807
 30
0.0
  0
SPLINE
  5
14b
100
AcDbEntity
  8
0
 62
7
100
AcDbSpline
 70
8
 71
3
 72
8
 73
4
 74
0
 40
0
 40
0
 40
0
 40
0
 40
1
 40
1
 40
1
 40
1
 10
41.846492
 20
57.244807
 30
0.0
 10
32.784858
 20
57.260921
 30
0.0
 10
20.957426
 20
63.365382
 30
0.0
 10
15.651087
 20
70.765012
 30
0.0
  0
SPLINE
  5
14c
100
AcDbEntity
  8
0
 62
7
100
AcDbSpline
 70
8
 71
3
 72
8
 73
4
 74
0
 40
0
 40
0
 40
0
 40
0
 40
1
 40
1
 40
1
 40
1
 10
15.651087
 20
70.765012
 30
0.0
 10
14.875890
 20
71.846020
 30
0.0
 10
14.122568
 20
72.738424
 30
0.0
 10
13.977046
 20
72.747734
 30
0.0
  0
SPLINE
  5
14d
100
AcDbEntity
  8
0
 62
7
100
AcDbSpline
 70
8
 71
3
 72
8
 73
4
 74
0
 40
0
 40
0
 40
0
 40
0
 40
1
 40
1
 40
1
 40
1
 10
13.977046
 20
72.747734
 30
0.0
 10
13.831527
 20
72.757048
 30
0.0
 10
13.712463
 20
62.683646
 30
0.0
 10
13.712463
 20
50.362883
 30
0.0
  0
SPLINE
  5
14e
100
AcDbEntity
  8
0
 62
7
100
AcDbSpline
 70
8
 71
3
 72
8
 73
4
 74
0
 40
0
 40
0
 40
0
 40
0
 40
1
 40
1
 40
1
 40
1
 10
13.712463
 20
50.362883
 30
0.0
 10
13.712463
 20
35.663804
 30
0.0
 10
13.833759
 20
27.961494
 30
0.0
 10
14.065241
 20
27.961494
 30
0.0
  0
SPLINE
  5
14f
100
AcDbEntity
  8
0
 62
7
100
AcDbSpline
 70
8
 71
3
 72
8
 73
4
 74
0
 40
0
 40
0
 40
0
 40
0
 40
1
 40
1
 40
1
 40
1
 10
14.065241
 20
27.961494
 30
0.0
 10
14.259268
 20
27.961494
 30
0.0
 10
14.418018
 20
28.098459
 30
0.0
 10
14.418018
 20
28.265766
 30
0.0
  0
SPLINE
  5
150
100
AcDbEntity
  8
0
 62
7
100
AcDbSpline
 70
8
 71
3
 72
8
 73
4
 74
0
 40
0
 40
0
 40
0
 40
0
 40
1
 40
1
 40
1
 40
1
 10
14.418018
 20
28.265766
 30
0.0
 10
14.418018
 20
28.866772
 30
0.0
 10
20.510451
 20
34.619147
 30
0.0
 10
23.190611
 20
36.548875
 30
0.0
  0
SPLINE
  5
151
100
AcDbEntity
  8
0
 62
7
100
AcDbSpline
 70
8
 71
3
 72
8
 73
4
 74
0
 40
0
 40
0
 40
0
 40
0
 40
1
 40
1
 40
1
 40
1
 10
23.190611
 20
36.548875
 30
0.0
 10
28.147836
 20
40.118109
 30
0.0
 10
34.833978
 20
43.010263
 30
0.0
 10
40.546175
 20
44.055326
 30
0.0
  0
SPLINE
  5
152
100
AcDbEntity
  8
0
 62
7
100
AcDbSpline
 70
8
 71
3
 72
8
 73
4
 74
0
 40
0
 40
0
 40
0
 40
0
 40
1
 40
1
 40
1
 40
1
 10
40.546175
 20
44.055326
 30
0.0
 10
42.293032
 20
44.374917
 30
0.0
 10
43.785432
 20
44.573153
 30
0.0
 10
43.862286
 20
44.496298
 30
0.0
  0
SPLINE
  5
153
100
AcDbEntity
  8
0
 62
7
100
AcDbSpline
 70
8
 71
3
 72
8
 73
4
 74
0
 40
0
 40
0
 40
0
 40
0
 40
1
 40
1
 40
1
 40
1
 10
43.862286
 20
44.496298
 30
0.0
 10
44.105545
 20
44.253040
 30
0.0
 10
42.383888
 20
36.340807
 30
0.0
 10
41.615532
 20
34.170933
 30
0.0
  0
SPLINE
  5
154
100
AcDbEntity
  8
0
 62
7
100
AcDbSpline
 70
8
 71
3
 72
8
 73
4
 74
0
 40
0
 40
0
 40
0
 40
0
 40
1
 40
1
 40
1
 40
1
 10
41.615532
 20
34.170933
 30
0.0
 10
40.770121
 20
31.783454
 30
0.0
 10
38.375387
 20
27.172869
 30
0.0
 10
36.429699
 20
24.186771
 30
0.0
  0
SPLINE
  5
155
100
AcDbEntity
  8
0
 62
7
100
AcDbSpline
 70
8
 71
3
 72
8
 73
4
 74
0
 40
0
 40
0
 40
0
 40
0
 40
1
 40
1
 40
1
 40
1
 10
36.429699
 20
24.186771
 30
0.0
 10
35.696429
 20
23.061399
 30
0.0
 10
33.380505
 20
20.409712
 30
0.0
 10
31.283554
 20
18.293729
 30
0.0
  0
SPLINE
  5
156
100
AcDbEntity
  8
0
 62
7
100
AcDbSpline
 70
8
 71
3
 72
8
 73
4
 74
0
 40
0
 40
0
 40
0
 40
0
 40
1
 40
1
 40
1
 40
1
 10
31.283554
 20
18.293729
 30
0.0
 10
29.186607
 20
16.177751
 30
0.0
 10
27.470796
 20
14.391812
 30
0.0
 10
27.470796
 20
14.324979
 30
0.0
  0
SPLINE
  5
157
100
AcDbEntity
  8
0
 62
7
100
AcDbSpline
 70
8
 71
3
 72
8
 73
4
 74
0
 40
0
 40
0
 40
0
 40
0
 40
1
 40
1
 40
1
 40
1
 10
27.470796
 20
14.324979
 30
0.0
 10
27.470796
 20
14.258149
 30
0.0
 10
37.551422
 20
14.203160
 30
0.0
 10
49.872186
 20
14.203160
 30
0.0
  0
SPLINE
  5
158
100
AcDbEntity
  8
0
 62
7
100
AcDbSpline
 70
8
 71
3
 72
8
 73
4
 74
0
 40
0
 40
0
 40
0
 40
0
 40
1
 40
1
 40
1
 40
1
 10
49.872186
 20
14.203160
 30
0.0
 10
62.560019
 20
14.203160
 30
0.0
 10
72.273575
 20
14.337952
 30
0.0
 10
72.273575
 20
14.514045
 30
0.0
  0
SPLINE
  5
159
100
AcDbEntity
  8
0
 62
7
100
AcDbSpline
 70
8
 71
3
 72
8
 73
4
 74
0
 40
0
 40
0
 40
0
 40
0
 40
1
 40
1
 40
1
 40
1
 10
72.273575
 20
14.514045
 30
0.0
 10
72.273575
 20
14.685043
 30
0.0
 10
71.678264
 20
15.274767
 30
0.0
 10
70.950658
 20
15.824284
 30
0.0
  0
SPLINE
  5
15a
100
AcDbEntity
  8
0
 62
7
100
AcDbSpline
 70
8
 71
3
 72
8
 73
4
 74
0
 40
0
 40
0
 40
0
 40
0
 40
1
 40
1
 40
1
 40
1
 10
70.950658
 20
15.824284
 30
0.0
 10
66.903058
 20
18.881214
 30
0.0
 10
62.652518
 20
23.940784
 30
0.0
 10
60.467646
 20
28.302698
 30
0.0
  0
SPLINE
  5
15b
100
AcDbEntity
  8
0
 62
7
100
AcDbSpline
 70
8
 71
3
 72
8
 73
4
 74
0
 40
0
 40
0
 40
0
 40
0
 40
1
 40
1
 40
1
 40
1
 10
60.467646
 20
28.302698
 30
0.0
 10
58.249752
 20
32.730521
 30
0.0
 10
57.158094
 20
36.733276
 30
0.0
 10
56.591502
 20
42.513577
 30
0.0
  0
SPLINE
  5
15c
100
AcDbEntity
  8
0
 62
7
100
AcDbSpline
 70
8
 71
3
 72
8
 73
4
 74
0
 40
0
 40
0
 40
0
 40
0
 40
1
 40
1
 40
1
 40
1
 10
56.591502
 20
42.513577
 30
0.0
 10
56.356834
 20
44.907626
 30
0.0
 10
56.247936
 20
44.870056
 30
0.0
 10
60.455519
 20
43.859644
 30
0.0
  0
SPLINE
  5
15d
100
AcDbEntity
  8
0
 62
7
100
AcDbSpline
 70
8
 71
3
 72
8
 73
4
 74
0
 40
0
 40
0
 40
0
 40
0
 40
1
 40
1
 40
1
 40
1
 10
60.455519
 20
43.859644
 30
0.0
 10
70.051820
 20
41.555179
 30
0.0
 10
77.113613
 20
37.427021
 30
0.0
 10
84.349598
 20
29.890748
 30
0.0
  0
LWPOLYLINE
  5
15e
100
AcDbEntity
  8
0
 62
7
100
AcDbPolyline
 90
2
 70
1
 10
27.467489
 20
87.228160
 30
0.0
 10
31.437893
 20
83.227990
 30
0.0
  0
SPLINE
  5
15f
100
AcDbEntity
  8
0
 62
7
100
AcDbSpline
 70
8
 71
3
 72
8
 73
4
 74
0
 40
0
 40
0
 40
0
 40
0
 40
1
 40
1
 40
1
 40
1
 10
86.421067
 20
34.487883
 30
0.0
 10
86.556813
 20
52.508708
 30
0.0
 10
86.545217
 20
63.213355
 30
0.0
 10
86.384686
 20
68.307695
 30
0.0
  0
LWPOLYLINE
  5
160
100
AcDbEntity
  8
0
 62
7
100
AcDbPolyline
 90
3
 70
1
 10
84.349598
 20
29.890748
 30
0.0
 10
86.370905
 20
27.785105
 30
0.0
 10
86.421067
 20
34.487883
 30
0.0
  0
SPLINE
  5
161
100
AcDbEntity
  8
0
 62
7
100
AcDbSpline
 70
8
 71
3
 72
8
 73
4
 74
0
 40
0
 40
0
 40
0
 40
0
 40
1
 40
1
 40
1
 40
1
 10
84.977986
 20
72.188251
 30
0.0
 10
84.301070
 20
71.243915
 30
0.0
 10
82.514333
 20
69.253023
 30
0.0
 10
81.007582
 20
67.763646
 30
0.0
  0
SPLINE
  5
162
100
AcDbEntity
  8
0
 62
7
100
AcDbSpline
 70
8
 71
3
 72
8
 73
4
 74
0
 40
0
 40
0
 40
0
 40
0
 40
1
 40
1
 40
1
 40
1
 10
81.007582
 20
67.763646
 30
0.0
 10
76.736358
 20
63.541656
 30
0.0
 10
72.003618
 20
60.671489
 30
0.0
 10
65.990823
 20
58.657018
 30
0.0
  0
SPLINE
  5
163
100
AcDbEntity
  8
0
 62
7
100
AcDbSpline
 70
8
 71
3
 72
8
 73
4
 74
0
 40
0
 40
0
 40
0
 40
0
 40
1
 40
1
 40
1
 40
1
 10
65.990823
 20
58.657018
 30
0.0
 10
62.958864
 20
57.641219
 30
0.0
 10
56.845973
 20
56.742897
 30
0.0
 10
56.297153
 20
57.232679
 30
0.0
  0
SPLINE
  5
164
100
AcDbEntity
  8
0
 62
7
100
AcDbSpline
 70
8
 71
3
 72
8
 73
4
 74
0
 40
0
 40
0
 40
0
 40
0
 40
1
 40
1
 40
1
 40
1
 10
56.297153
 20
57.232679
 30
0.0
 10
55.609292
 20
57.846549
 30
0.0
 10
58.536685
 20
68.263420
 30
0.0
 10
60.472058
 20
72.088481
 30
0.0
  0
SPLINE
  5
165
100
AcDbEntity
  8
0
 62
7
100
AcDbSpline
 70
8
 71
3
 72
8
 73
4
 74
0
 40
0
 40
0
 40
0
 40
0
 40
1
 40
1
 40
1
 40
1
 10
60.472058
 20
72.088481
 30
0.0
 10
62.871054
 20
76.829832
 30
0.0
 10
67.745737
 20
82.883789
 30
0.0
 10
71.423050
 20
85.688615
 30
0.0
  0
SPLINE
  5
166
100
AcDbEntity
  8
0
 62
7
100
AcDbSpline
 70
8
 71
3
 72
8
 73
4
 74
0
 40
0
 40
0
 40
0
 40
0
 40
1
 40
1
 40
1
 40
1
 10
71.423050
 20
85.688615
 30
0.0
 10
72.085042
 20
86.193539
 30
0.0
 10
72.626353
 20
86.746275
 30
0.0
 10
72.626353
 20
86.917274
 30
0.0
  0
SPLINE
  5
167
100
AcDbEntity
  8
0
 62
7
100
AcDbSpline
 70
8
 71
3
 72
8
 73
4
 74
0
 40
0
 40
0
 40
0
 40
0
 40
1
 40
1
 40
1
 40
1
 10
72.626353
 20
86.917274
 30
0.0
 10
72.626353
 20
87.093393
 30
0.0
 10
62.837574
 20
87.228160
 30
0.0
 10
50.046921
 20
87.228160
 30
0.0
  0
LWPOLYLINE
  5
168
100
AcDbEntity
  8
0
 62
7
100
AcDbPolyline
 90
3
 70
1
 10
86.384686
 20
68.307695
 30
0.0
 10
86.208297
 20
73.905286
 30
0.0
 10
84.977986
 20
72.188251
 30
0.0
  0
LWPOLYLINE
  5
169
100
AcDbEntity
  8
0
 62
7
100
AcDbPolyline
 90
3
 70
1
 10
50.046921
 20
87.228160
 30
0.0
 10
27.467489
 20
87.228160
 30
0.0
 10
27.467489
 20
87.228160
 30
0.0
  0
SPLINE
  5
16a
100
AcDbEntity
  8
0
 62
1
100
AcDbSpline
 70
8
 71
3
 72
8
 73
4
 74
0
 40
0
 40
0
 40
0
 40
0
 40
1
 40
1
 40
1
 40
1
 10
19.425809
 20
89.297977
 30
0.0
 10
19.331640
 20
88.485391
 30
0.0
 10
19.596683
 20
88.213340
 30
0.0
 10
21.542476
 20
87.125086
 30
0.0
  0
SPLINE
  5
16b
100
AcDbEntity
  8
0
 62
1
100
AcDbSpline
 70
8
 71
3
 72
8
 73
4
 74
0
 40
0
 40
0
 40
0
 40
0
 40
1
 40
1
 40
1
 40
1
 10
21.542476
 20
87.125086
 30
0.0
 10
24.002996
 20
85.748947
 30
0.0
 10
28.447659
 20
82.325239
 30
0.0
 10
30.168444
 20
80.480736
 30
0.0
  0
SPLINE
  5
16c
100
AcDbEntity
  8
0
 62
1
100
AcDbSpline
 70
8
 71
3
 72
8
 73
4
 74
0
 40
0
 40
0
 40
0
 40
0
 40
1
 40
1
 40
1
 40
1
 10
30.168444
 20
80.480736
 30
0.0
 10
32.305710
 20
78.189814
 30
0.0
 10
34.731082
 20
74.677544
 30
0.0
 10
36.349220
 20
71.529549
 30
0.0
  0
SPLINE
  5
16d
100
AcDbEntity
  8
0
 62
1
100
AcDbSpline
 70
8
 71
3
 72
8
 73
4
 74
0
 40
0
 40
0
 40
0
 40
0
 40
1
 40
1
 40
1
 40
1
 10
36.349220
 20
71.529549
 30
0.0
 10
38.047961
 20
68.224752
 30
0.0
 10
39.818016
 20
63.154593
 30
0.0
 10
39.818016
 20
61.593890
 30
0.0
  0
SPLINE
  5
16e
100
AcDbEntity
  8
0
 62
1
100
AcDbSpline
 70
8
 71
3
 72
8
 73
4
 74
0
 40
0
 40
0
 40
0
 40
0
 40
1
 40
1
 40
1
 40
1
 10
39.818016
 20
61.593890
 30
0.0
 10
39.818016
 20
60.715688
 30
0.0
 10
39.770581
 20
60.697104
 30
0.0
 10
38.142322
 20
60.940701
 30
0.0
  0
SPLINE
  5
16f
100
AcDbEntity
  8
0
 62
1
100
AcDbSpline
 70
8
 71
3
 72
8
 73
4
 74
0
 40
0
 40
0
 40
0
 40
0
 40
1
 40
1
 40
1
 40
1
 10
38.142322
 20
60.940701
 30
0.0
 10
35.349581
 20
61.358512
 30
0.0
 10
30.973604
 20
62.866634
 30
0.0
 10
28.176349
 20
64.375873
 30
0.0
  0
SPLINE
  5
170
100
AcDbEntity
  8
0
 62
1
100
AcDbSpline
 70
8
 71
3
 72
8
 73
4
 74
0
 40
0
 40
0
 40
0
 40
0
 40
1
 40
1
 40
1
 40
1
 10
28.176349
 20
64.375873
 30
0.0
 10
21.980781
 20
67.718655
 30
0.0
 10
15.623621
 20
74.881323
 30
0.0
 10
13.436853
 20
80.982341
 30
0.0
  0
SPLINE
  5
171
100
AcDbEntity
  8
0
 62
1
100
AcDbSpline
 70
8
 71
3
 72
8
 73
4
 74
0
 40
0
 40
0
 40
0
 40
0
 40
1
 40
1
 40
1
 40
1
 10
13.436853
 20
80.982341
 30
0.0
 10
12.878750
 20
82.539434
 30
0.0
 10
12.746476
 20
82.665497
 30
0.0
 10
11.772182
 20
82.569841
 30
0.0
  0
LWPOLYLINE
  5
172
100
AcDbEntity
  8
0
 62
1
100
AcDbPolyline
 90
2
 70
1
 10
19.533293
 20
90.226773
 30
0.0
 10
19.425809
 20
89.297977
 30
0.0
  0
SPLINE
  5
173
100
AcDbEntity
  8
0
 62
1
100
AcDbSpline
 70
8
 71
3
 72
8
 73
4
 74
0
 40
0
 40
0
 40
0
 40
0
 40
1
 40
1
 40
1
 40
1
 10
11.302548
 20
19.730192
 30
0.0
 10
11.725319
 20
19.619648
 30
0.0
 10
12.203522
 20
19.610930
 30
0.0
 10
12.365292
 20
19.710888
 30
0.0
  0
SPLINE
  5
174
100
AcDbEntity
  8
0
 62
1
100
AcDbSpline
 70
8
 71
3
 72
8
 73
4
 74
0
 40
0
 40
0
 40
0
 40
0
 40
1
 40
1
 40
1
 40
1
 10
12.365292
 20
19.710888
 30
0.0
 10
12.527062
 20
19.810865
 30
0.0
 10
13.559569
 20
21.271580
 30
0.0
 10
14.659448
 20
22.956997
 30
0.0
  0
SPLINE
  5
175
100
AcDbEntity
  8
0
 62
1
100
AcDbSpline
 70
8
 71
3
 72
8
 73
4
 74
0
 40
0
 40
0
 40
0
 40
0
 40
1
 40
1
 40
1
 40
1
 10
14.659448
 20
22.956997
 30
0.0
 10
18.334873
 20
28.589097
 30
0.0
 10
25.015333
 20
34.501934
 30
0.0
 10
31.174961
 20
37.574121
 30
0.0
  0
SPLINE
  5
176
100
AcDbEntity
  8
0
 62
1
100
AcDbSpline
 70
8
 71
3
 72
8
 73
4
 74
0
 40
0
 40
0
 40
0
 40
0
 40
1
 40
1
 40
1
 40
1
 10
31.174961
 20
37.574121
 30
0.0
 10
32.918784
 20
38.443873
 30
0.0
 10
37.292593
 20
40.009526
 30
0.0
 10
39.232075
 20
40.458632
 30
0.0
  0
SPLINE
  5
177
100
AcDbEntity
  8
0
 62
1
100
AcDbSpline
 70
8
 71
3
 72
8
 73
4
 74
0
 40
0
 40
0
 40
0
 40
0
 40
1
 40
1
 40
1
 40
1
 10
39.232075
 20
40.458632
 30
0.0
 10
40.208556
 20
40.684746
 30
0.0
 10
40.227089
 20
40.662064
 30
0.0
 10
39.986139
 20
39.529833
 30
0.0
  0
SPLINE
  5
178
100
AcDbEntity
  8
0
 62
1
100
AcDbSpline
 70
8
 71
3
 72
8
 73
4
 74
0
 40
0
 40
0
 40
0
 40
0
 40
1
 40
1
 40
1
 40
1
 10
39.986139
 20
39.529833
 30
0.0
 10
39.252491
 20
36.082407
 30
0.0
 10
36.378196
 20
29.599669
 30
0.0
 10
34.090892
 20
26.233969
 30
0.0
  0
SPLINE
  5
179
100
AcDbEntity
  8
0
 62
1
100
AcDbSpline
 70
8
 71
3
 72
8
 73
4
 74
0
 40
0
 40
0
 40
0
 40
0
 40
1
 40
1
 40
1
 40
1
 10
34.090892
 20
26.233969
 30
0.0
 10
31.130799
 20
21.878276
 30
0.0
 10
25.583805
 20
16.655911
 30
0.0
 10
21.336321
 20
14.225747
 30
0.0
  0
SPLINE
  5
17a
100
AcDbEntity
  8
0
 62
1
100
AcDbSpline
 70
8
 71
3
 72
8
 73
4
 74
0
 40
0
 40
0
 40
0
 40
0
 40
1
 40
1
 40
1
 40
1
 10
21.336321
 20
14.225747
 30
0.0
 10
19.850424
 20
13.375603
 30
0.0
 10
19.356905
 20
12.894470
 30
0.0
 10
19.356905
 20
12.295942
 30
0.0
  0
SPLINE
  5
17b
100
AcDbEntity
  8
0
 62
1
100
AcDbSpline
 70
8
 71
3
 72
8
 73
4
 74
0
 40
0
 40
0
 40
0
 40
0
 40
1
 40
1
 40
1
 40
1
 10
19.356905
 20
12.295942
 30
0.0
 10
19.356905
 20
11.857451
 30
0.0
 10
19.462921
 20
11.392862
 30
0.0
 10
19.592275
 20
11.263514
 30
0.0
  0
SPLINE
  5
17c
100
AcDbEntity
  8
0
 62
1
100
AcDbSpline
 70
8
 71
3
 72
8
 73
4
 74
0
 40
0
 40
0
 40
0
 40
0
 40
1
 40
1
 40
1
 40
1
 10
19.592275
 20
11.263514
 30
0.0
 10
19.721626
 20
11.134160
 30
0.0
 10
33.833655
 20
11.028146
 30
0.0
 10
50.952016
 20
11.028146
 30
0.0
  0
SPLINE
  5
17d
100
AcDbEntity
  8
0
 62
1
100
AcDbSpline
 70
8
 71
3
 72
8
 73
4
 74
0
 40
0
 40
0
 40
0
 40
0
 40
1
 40
1
 40
1
 40
1
 10
50.952016
 20
11.028146
 30
0.0
 10
79.007866
 20
11.028146
 30
0.0
 10
82.097234
 20
11.083518
 30
0.0
 10
82.290257
 20
11.586526
 30
0.0
  0
SPLINE
  5
17e
100
AcDbEntity
  8
0
 62
1
100
AcDbSpline
 70
8
 71
3
 72
8
 73
4
 74
0
 40
0
 40
0
 40
0
 40
0
 40
1
 40
1
 40
1
 40
1
 10
82.290257
 20
11.586526
 30
0.0
 10
82.739538
 20
12.757330
 30
0.0
 10
82.425357
 20
13.104006
 30
0.0
 10
79.778919
 20
14.360793
 30
0.0
  0
SPLINE
  5
17f
100
AcDbEntity
  8
0
 62
1
100
AcDbSpline
 70
8
 71
3
 72
8
 73
4
 74
0
 40
0
 40
0
 40
0
 40
0
 40
1
 40
1
 40
1
 40
1
 10
79.778919
 20
14.360793
 30
0.0
 10
71.434709
 20
18.323441
 30
0.0
 10
65.568584
 20
24.365364
 30
0.0
 10
62.427214
 20
32.231191
 30
0.0
  0
SPLINE
  5
180
100
AcDbEntity
  8
0
 62
1
100
AcDbSpline
 70
8
 71
3
 72
8
 73
4
 74
0
 40
0
 40
0
 40
0
 40
0
 40
1
 40
1
 40
1
 40
1
 10
62.427214
 20
32.231191
 30
0.0
 10
61.238203
 20
35.208407
 30
0.0
 10
60.279128
 20
38.613715
 30
0.0
 10
60.279128
 20
39.860564
 30
0.0
  0
SPLINE
  5
181
100
AcDbEntity
  8
0
 62
1
100
AcDbSpline
 70
8
 71
3
 72
8
 73
4
 74
0
 40
0
 40
0
 40
0
 40
0
 40
1
 40
1
 40
1
 40
1
 10
60.279128
 20
39.860564
 30
0.0
 10
60.279128
 20
40.811574
 30
0.0
 10
60.642421
 20
40.767779
 30
0.0
 10
64.688850
 20
39.331948
 30
0.0
  0
SPLINE
  5
182
100
AcDbEntity
  8
0
 62
1
100
AcDbSpline
 70
8
 71
3
 72
8
 73
4
 74
0
 40
0
 40
0
 40
0
 40
0
 40
1
 40
1
 40
1
 40
1
 10
64.688850
 20
39.331948
 30
0.0
 10
73.111826
 20
36.343144
 30
0.0
 10
80.946320
 20
30.233476
 30
0.0
 10
86.007654
 20
22.706191
 30
0.0
  0
SPLINE
  5
183
100
AcDbEntity
  8
0
 62
1
100
AcDbSpline
 70
8
 71
3
 72
8
 73
4
 74
0
 40
0
 40
0
 40
0
 40
0
 40
1
 40
1
 40
1
 40
1
 10
86.007654
 20
22.706191
 30
0.0
 10
87.195271
 20
20.939952
 30
0.0
 10
88.282012
 20
19.497505
 30
0.0
 10
88.422528
 20
19.500325
 30
0.0
  0
SPLINE
  5
184
100
AcDbEntity
  8
0
 62
1
100
AcDbSpline
 70
8
 71
3
 72
8
 73
4
 74
0
 40
0
 40
0
 40
0
 40
0
 40
1
 40
1
 40
1
 40
1
 10
88.422528
 20
19.500325
 30
0.0
 10
88.563046
 20
19.503288
 30
0.0
 10
88.915864
 20
19.656498
 30
0.0
 10
89.206905
 20
19.840425
 30
0.0
  0
SPLINE
  5
185
100
AcDbEntity
  8
0
 62
1
100
AcDbSpline
 70
8
 71
3
 72
8
 73
4
 74
0
 40
0
 40
0
 40
0
 40
0
 40
1
 40
1
 40
1
 40
1
 10
89.206905
 20
19.840425
 30
0.0
 10
89.670755
 20
20.133564
 30
0.0
 10
89.736072
 20
24.019160
 30
0.0
 10
89.736072
 20
51.320330
 30
0.0
  0
LWPOLYLINE
  5
186
100
AcDbEntity
  8
0
 62
1
100
AcDbPolyline
 90
5
 70
1
 10
11.772182
 20
82.569841
 30
0.0
 10
10.713849
 20
82.465661
 30
0.0
 10
10.624004
 20
51.198523
 30
0.0
 10
10.534155
 20
19.930835
 30
0.0
 10
11.302548
 20
19.730192
 30
0.0
  0
SPLINE
  5
187
100
AcDbEntity
  8
0
 62
1
100
AcDbSpline
 70
8
 71
3
 72
8
 73
4
 74
0
 40
0
 40
0
 40
0
 40
0
 40
1
 40
1
 40
1
 40
1
 10
88.823814
 20
82.572034
 30
0.0
 10
88.000084
 20
82.667777
 30
0.0
 10
87.674752
 20
82.277436
 30
0.0
 10
85.486754
 20
78.570213
 30
0.0
  0
SPLINE
  5
188
100
AcDbEntity
  8
0
 62
1
100
AcDbSpline
 70
8
 71
3
 72
8
 73
4
 74
0
 40
0
 40
0
 40
0
 40
0
 40
1
 40
1
 40
1
 40
1
 10
85.486754
 20
78.570213
 30
0.0
 10
81.554667
 20
71.907913
 30
0.0
 10
76.345150
 20
66.849831
 30
0.0
 10
70.333294
 20
63.856065
 30
0.0
  0
SPLINE
  5
189
100
AcDbEntity
  8
0
 62
1
100
AcDbSpline
 70
8
 71
3
 72
8
 73
4
 74
0
 40
0
 40
0
 40
0
 40
0
 40
1
 40
1
 40
1
 40
1
 10
70.333294
 20
63.856065
 30
0.0
 10
67.175640
 20
62.283630
 30
0.0
 10
62.770185
 20
60.769813
 30
0.0
 10
61.350692
 20
60.769813
 30
0.0
  0
SPLINE
  5
18a
100
AcDbEntity
  8
0
 62
1
100
AcDbSpline
 70
8
 71
3
 72
8
 73
4
 74
0
 40
0
 40
0
 40
0
 40
0
 40
1
 40
1
 40
1
 40
1
 10
61.350692
 20
60.769813
 30
0.0
 10
60.268273
 20
60.769813
 30
0.0
 10
60.251693
 20
60.794790
 30
0.0
 10
60.487489
 20
62.092730
 30
0.0
  0
SPLINE
  5
18b
100
AcDbEntity
  8
0
 62
1
100
AcDbSpline
 70
8
 71
3
 72
8
 73
4
 74
0
 40
0
 40
0
 40
0
 40
0
 40
1
 40
1
 40
1
 40
1
 10
60.487489
 20
62.092730
 30
0.0
 10
61.093071
 20
65.426124
 30
0.0
 10
63.442173
 20
70.792788
 30
0.0
 10
66.085079
 20
74.880928
 30
0.0
  0
SPLINE
  5
18c
100
AcDbEntity
  8
0
 62
1
100
AcDbSpline
 70
8
 71
3
 72
8
 73
4
 74
0
 40
0
 40
0
 40
0
 40
0
 40
1
 40
1
 40
1
 40
1
 10
66.085079
 20
74.880928
 30
0.0
 10
69.143668
 20
79.612059
 30
0.0
 10
74.638589
 20
84.579102
 30
0.0
 10
79.516543
 20
87.022549
 30
0.0
  0
SPLINE
  5
18d
100
AcDbEntity
  8
0
 62
1
100
AcDbSpline
 70
8
 71
3
 72
8
 73
4
 74
0
 40
0
 40
0
 40
0
 40
0
 40
1
 40
1
 40
1
 40
1
 10
79.516543
 20
87.022549
 30
0.0
 10
81.929035
 20
88.231005
 30
0.0
 10
82.180382
 20
88.453870
 30
0.0
 10
82.083001
 20
89.294658
 30
0.0
  0
LWPOLYLINE
  5
18e
100
AcDbEntity
  8
0
 62
1
100
AcDbPolyline
 90
3
 70
1
 10
89.736072
 20
51.320330
 30
0.0
 10
89.736072
 20
82.465650
 30
0.0
 10
88.823814
 20
82.572034
 30
0.0
  0
LWPOLYLINE
  5
18f
100
AcDbEntity
  8
0
 62
1
100
AcDbPolyline
 90
5
 70
1
 10
82.083001
 20
89.294658
 30
0.0
 10
81.974961
 20
90.226762
 30
0.0
 10
50.754128
 20
90.226762
 30
0.0
 10
19.533293
 20
90.226762
 30
0.0
 10
19.533293
 20
90.226773
 30
0.0
  0
ENDSEC
  0
SECTION
  2
OBJECTS
  0
DICTIONARY
  5
C
330
0
100
AcDbDictionary
  3
ACAD_GROUP
350
D
  3
ACAD_MLINESTYLE
350
17
  0
DICTIONARY
  5
D
330
C
100
AcDbDictionary
  0
DICTIONARY
  5
1A
330
C
100
AcDbDictionary
  0
DICTIONARY
  5
17
330
C
100
AcDbDictionary
  3
STANDARD
350
18
  0
DICTIONARY
  5
19
330
C
100
AcDbDictionary
  0
ENDSEC
  0
EOF
