<?xml version="1.0" encoding="UTF-8" standalone="no"?>
<!-- Created with Inkscape (http://www.inkscape.org/) -->

<svg
   xmlns:dc="http://purl.org/dc/elements/1.1/"
   xmlns:cc="http://creativecommons.org/ns#"
   xmlns:rdf="http://www.w3.org/1999/02/22-rdf-syntax-ns#"
   xmlns:svg="http://www.w3.org/2000/svg"
   xmlns="http://www.w3.org/2000/svg"
   xmlns:sodipodi="http://sodipodi.sourceforge.net/DTD/sodipodi-0.dtd"
   xmlns:inkscape="http://www.inkscape.org/namespaces/inkscape"
   id="svg37593"
   version="1.1"
   inkscape:version="0.91 r13725"
   width="100mm"
   height="100mm"
   viewBox="0 0 354.33071 354.33071"
   sodipodi:docname="iron_cross2.svg">
  <sodipodi:namedview
     pagecolor="#ffffff"
     bordercolor="#666666"
     borderopacity="1"
     objecttolerance="10"
     gridtolerance="10"
     guidetolerance="10"
     inkscape:pageopacity="0"
     inkscape:pageshadow="2"
     inkscape:window-width="1360"
     inkscape:window-height="746"
     id="namedview37595"
     showgrid="false"
     units="mm"
     inkscape:zoom="1.6782222"
     inkscape:cx="41.966525"
     inkscape:cy="96.64794"
     inkscape:window-x="1432"
     inkscape:window-y="-8"
     inkscape:window-maximized="1"
     inkscape:current-layer="svg37593" />
  <metadata
     id="metadata37599">
    <rdf:RDF>
      <cc:Work
         rdf:about="">
        <dc:format>image/svg+xml</dc:format>
        <dc:type
           rdf:resource="http://purl.org/dc/dcmitype/StillImage" />
        <dc:title />
      </cc:Work>
    </rdf:RDF>
  </metadata>
  <defs
     id="defs37597" />
  <g
     transform="matrix(0.37742843,0,0,0.37714827,22.867858,188.91393)"
     id="g38195">
    <path
       inkscape:connector-curvature="0"
       id="path38143"
       transform="matrix(1.7726081,0,0,1.7726081,-28.348428,-230.19247)"
       d="m 55.039062,149.39648 -0.214843,1.85743 c -0.188237,1.62429 0.340985,2.16646 4.230469,4.34179 4.918391,2.7508 13.80247,9.59619 17.242187,13.28321 4.27223,4.57937 9.120935,11.59997 12.355469,17.89257 3.395635,6.60603 6.933594,16.73965 6.933594,19.85938 0,1.75546 -0.09485,1.79357 -3.34961,1.30664 -5.582475,-0.83517 -14.33038,-3.85033 -19.921875,-6.86719 -12.384463,-6.68195 -25.09171,-20.99985 -29.462891,-33.19531 -1.115604,-3.11252 -1.378634,-3.36504 -3.326171,-3.17383 l -2.117188,0.20899 -0.179687,62.5 -0.179688,62.50195 1.53711,0.40234 c 0.845088,0.22097 1.801634,0.23683 2.125,0.0371 0.323365,-0.19984 2.38541,-3.11925 4.583984,-6.48828 7.346892,-11.25813 20.701052,-23.07768 33.013672,-29.21875 3.485767,-1.73856 12.228594,-4.8679 16.105468,-5.76562 1.95191,-0.45199 1.989454,-0.40583 1.507813,1.85742 -1.466506,6.89114 -7.211059,19.84839 -11.783203,26.57617 -5.916999,8.7067 -17.005699,19.14619 -25.496094,24.00391 -2.970193,1.69937 -3.957031,2.66101 -3.957031,3.85742 0,0.87651 0.212135,1.80589 0.470703,2.06445 0.258563,0.25858 28.467262,0.4707 62.68555,0.4707 56.08148,0 62.25674,-0.11171 62.64258,-1.11718 0.89807,-2.34035 0.27049,-3.03271 -5.01954,-5.54492 -16.67943,-7.92104 -28.40619,-19.99947 -34.68554,-35.72266 -2.37674,-5.95123 -4.29297,-12.75765 -4.29297,-15.25 0,-1.901 0.72595,-1.81348 8.81445,1.05664 16.83688,5.97439 32.49802,18.18791 42.61524,33.23437 2.37395,3.53058 4.54529,6.41384 4.82617,6.40821 0.28088,-0.006 0.98659,-0.31203 1.56836,-0.67969 0.9272,-0.58596 1.05859,-8.35285 1.05859,-62.92578 l 0,-62.25781 -1.82422,-0.21289 c -1.64657,-0.19138 -2.29627,0.58954 -6.66992,8 -7.85994,13.31742 -18.27378,23.4278 -30.29102,29.41211 -6.3119,3.14318 -15.11762,6.16992 -17.95507,6.16992 -2.16367,0 -2.19791,-0.05 -1.72657,-2.64453 1.21051,-6.6632 5.90649,-17.39063 11.18946,-25.5625 6.11388,-9.45718 17.097,-19.38723 26.84765,-24.27149 4.82239,-2.41561 5.32551,-2.86035 5.13086,-4.54101 l -0.21679,-1.86329 -62.40625,0 -62.408208,0 z m 61.005858,3.26563 c 9.79708,0 19.62019,0.0234 27.10547,0.0742 l 27.21875,0.18555 -7.18945,5.28906 c -11.52636,8.47673 -20.77997,20.26306 -26.07617,33.21875 -2.50218,6.12032 -5.54796,17.0491 -5.55079,19.91211 l -0.004,2.00586 3.70312,-0.46875 c 15.29639,-1.93327 33.2311,-11.34638 43.78516,-22.98047 2.26483,-2.4966 5.99279,-7.33483 8.28516,-10.75391 l 4.16796,-6.2168 0,54.69727 c 0,30.08353 -0.10424,54.69727 -0.23242,54.69727 -0.12817,0 -1.30031,-1.50735 -2.60351,-3.34961 -3.18969,-4.50909 -12.83529,-14.43989 -17.61524,-18.13672 -9.07973,-7.02228 -22.16213,-13.38889 -32.71875,-15.91992 -7.12277,-1.70775 -6.77148,-1.73132 -6.77148,0.44921 0,7.41772 5.31693,23.56516 10.6914,32.47266 4.81417,7.97887 16.67248,19.22581 24.83985,23.55859 1.78994,0.94957 3.2539,1.95606 3.2539,2.23829 0,0.2822 -24.11741,0.52524 -53.59375,0.53906 -29.476336,0.0138 -53.591793,-0.22015 -53.591792,-0.51953 0,-0.29938 2.169694,-2.19971 4.822265,-4.22266 10.332091,-7.87957 20.271931,-20.0167 25.851563,-31.56641 3.709127,-7.6778 8.094834,-24.32812 6.408204,-24.32812 -3.60355,0 -18.298955,4.85463 -25.800782,8.52344 -9.911768,4.8474 -21.563998,14.57075 -28.550782,23.82422 l -4.943359,6.54882 -0.181641,-53.41015 c -0.09942,-29.37535 0.02399,-53.59748 0.273438,-53.82617 0.24948,-0.2287 0.579438,-0.0669 0.732422,0.35742 1.041736,2.88939 8.459333,12.80137 12.896484,17.23242 11.195244,11.17985 23.934739,17.29123 40.871094,19.60742 l 4.289062,0.58594 0,-2.56836 c 0,-5.90052 -4.571097,-19.79709 -9.285156,-28.22461 -5.298187,-9.47227 -16.428549,-21.59622 -24.814453,-27.0293 l -3.453125,-2.23632 26.833984,-0.18555 c 7.379257,-0.0508 17.150184,-0.0742 26.947264,-0.0742 z m -45.146482,2.72851 7.935546,7.9961 c 9.028522,9.09655 14.931332,18.06285 19.179688,29.13476 2.345468,6.11268 4.623048,16.35372 4.623048,20.78516 0,1.9109 -0.16538,2.02266 -2.996095,2.01758 -18.113507,-0.0322 -41.756318,-12.2341 -52.363281,-27.02539 -1.549559,-2.16085 -3.054816,-3.94428 -3.345703,-3.96289 -0.290882,-0.0186 -0.529297,20.11783 -0.529297,44.74609 0,29.38233 0.242364,44.77735 0.705078,44.77735 0.387846,0 0.705078,-0.27299 0.705078,-0.60743 0,-1.20136 12.179676,-12.69926 17.537109,-16.55664 9.909111,-7.13462 23.273164,-12.91686 34.691407,-15.00586 3.491834,-0.63884 6.475284,-1.03448 6.628904,-0.88086 0.48626,0.48626 -2.95435,16.30126 -4.490232,20.63868 -1.689912,4.77238 -6.477908,13.99 -10.367188,19.95898 -1.46575,2.24953 -6.095467,7.54961 -10.287109,11.7793 -4.191637,4.22967 -7.621094,7.8 -7.621094,7.93359 0,0.13359 20.151039,0.24219 44.779293,0.24219 25.36201,0 44.7793,-0.2691 44.7793,-0.6211 0,-0.34181 -1.1901,-1.52069 -2.64453,-2.61914 -8.09084,-6.11056 -16.58769,-16.22423 -20.95508,-24.94336 -4.4334,-8.85087 -6.61547,-16.85187 -7.74805,-28.40625 -0.46908,-4.78551 -0.68797,-4.71115 7.72266,-2.6914 19.18227,4.60645 33.29949,12.8594 47.76367,27.92383 l 4.03906,4.20898 0.10157,-13.39844 c 0.27134,-36.02224 0.24862,-57.42032 -0.0723,-67.60351 l -0.35351,-11.18946 -2.45899,3.43164 c -1.3531,1.88766 -4.92562,5.86856 -7.9375,8.84571 -8.53785,8.43943 -17.99846,14.17635 -30.01758,18.20312 -6.06065,2.03051 -18.27795,3.8267 -19.375,2.84766 -1.37498,-1.22708 4.47509,-22.04931 8.34375,-29.69531 4.79541,-9.4776 14.53996,-21.57892 21.89063,-27.18555 1.32327,-1.0093 2.40625,-2.11522 2.40625,-2.45703 0,-0.35205 -19.56724,-0.6211 -45.13477,-0.6211 l -45.134762,0 z"
       style="fill:#000000;stroke:#000000;stroke-width:0.5641405" />
  </g>
  <path
     inkscape:connector-curvature="0"
     id="path38170"
     d="M48.991287 201.97418L48.84755 203.21594L48.8707248906 203.923082188L49.239661875 204.529115L51.677872 206.11859L57.816646 210.32402375L63.21346 214.99889L67.60691125 220.550295L71.479672 226.96072L74.650999125 234.47309125L75.7131334844 237.904111094L76.118474 240.23743L76.0745343281 240.914806406L75.814551625 241.23636875L73.877475 241.11096L70.7453351094 240.441695156L67.215546625 239.36242875L60.549089 236.52L57.4431769238 234.618276328L54.3849064531 232.31442L51.4421649746 229.684881797L48.682839875 226.8061125L46.174818541 223.754562891L43.9859883594 220.60668375L42.1842367168 217.438925859L40.837451 214.32774L39.933514125 212.4385825L39.4045695781 212.190909375L38.612134 212.20592L37.195666 212.34564L37.07545 254.12914L36.955232 295.91395L37.983609 296.18293L39.405304 296.20773L42.472139 291.87008L46.8385094219 286.220034375L52.269912375 280.8203275L58.3242351406 276.062046875L64.559365 272.33628L69.8487835 270.198225L75.33445 268.48176L76.44938525 268.4219275L76.343226 269.72351L75.1276942187 273.81069625L73.18071725 278.6480325L70.8441576562 283.46489L68.459878 287.49064L64.9233462344 291.996996719L60.576649375 296.47932625L55.9071365781 300.479182656L51.402157 303.53812L49.333281625 304.953625L48.754774 306.11695L49.06969 307.49711L91.008373 307.81178L125.936664125 307.69040875L131.537269891 307.465180156L132.9183 307.06491L133.144761563 306.061804219L132.7917075 305.25450375L131.662392188 304.425661406L129.56007 303.35793L125.531381348 301.242506797L121.817211406 298.8705325L118.421439199 296.246023828L115.34794375 293.3729975L112.600604082 290.255470234L110.183299219 286.89745875L108.099908184 283.302979766L106.35431 279.47605L104.321945 273.5113175L103.48217 269.28087L103.642613281 268.585259844L104.40144875 268.43794375L109.37933 269.98727L113.560907656 271.676126406L117.63449375 273.7293375L121.565840469 276.120217344L125.3207 278.82208L128.864824531 281.808239531L132.16396625 285.05201L135.183877344 288.526705469L137.89031 292.20564L141.11918 296.48976L142.16846 296.03537L142.540828438 294.427514375L142.7552075 288.53588L142.8767 253.96721L142.8767 212.34562L141.65624 212.20329L140.9057325 212.288306875L140.1092275 212.9716475L137.19384 217.55158L132.939490469 223.817359531L128.10401375 229.22152875L122.747030156 233.706488594L116.92816 237.21464L110.05019625 240.065045L106.999611719 240.990455L104.91563 241.33946L103.67696875 241.10590125L103.76049 239.57149L104.774828125 235.790244375L106.481825 231.40499L108.699684375 226.830623125L111.24661 222.48204L114.861430937 217.738566094L119.31517 213.22242375L124.225119062 209.279497031L129.20857 206.25567L132.18363875 204.55350625L132.613566719 203.941104844L132.64128 203.21984L132.49624 201.97416L90.74442 201.97416L48.991287 201.97416L48.991287 201.97418"
     style="fill:none;stroke:#ff0000;stroke-width:0.37728834" />
  <path
     inkscape:connector-curvature="0"
     id="path38205"
     d="M109.30485 208.2848L108.409018707 208.465902888L107.677562019 208.959039651L107.184471822 209.690231589L107.00374 210.5855L107.184846199 211.480351169L107.678021776 212.211120109L108.409333965 212.703928995L109.30485 212.8849L110.200783277 212.704302816L110.932518464 212.211579184L111.426021919 211.48066596L111.60726 210.5855L111.43207131 209.705018286L110.93297835 208.958580447L110.185985827 208.459858271L109.30485 208.2848L109.30485 208.2848"
     style="fill:#000000;stroke:#ff0000;stroke-width:0.13684496;stroke-miterlimit:4;stroke-dasharray:none" />
</svg>
