  0
SECTION
  2
HEADER
  9
$ACADVER
  1
AC1014
  9
$HANDSEED
  5
FFFF
  9
$MEASUREMENT
 70
     1
  0
ENDSEC
  0
SECTION
  2
TABLES
  0
TABLE
  2
VPORT
  5
8
330
0
100
AcDbSymbolTable
 70
     4
  0
VPORT
  5
2E
330
8
100
AcDbSymbolTableRecord
100
AcDbViewportTableRecord
  2
*ACTIVE
 70
     0
 10
0.0
 20
0.0
 11
1.0
 21
1.0
 12
210.0
 22
148.5
 13
0.0
 23
0.0
 14
10.0
 24
10.0
 15
10.0
 25
10.0
 16
0.0
 26
0.0
 36
1.0
 17
0.0
 27
0.0
 37
0.0
 40
341.0
 41
1.24
 42
50.0
 43
0.0
 44
0.0
 50
0.0
 51
0.0
 71
     0
 72
   100
 73
     1
 74
     3
 75
     0
 76
     0
 77
     0
 78
     0
  0
ENDTAB
  0
TABLE
  2
LTYPE
  5
5
330
0
100
AcDbSymbolTable
 70
     1
  0
LTYPE
  5
14
330
5
100
AcDbSymbolTableRecord
100
AcDbLinetypeTableRecord
  2
BYBLOCK
 70
     0
  3

 72
    65
 73
     0
 40
0.0
  0
LTYPE
  5
15
330
5
100
AcDbSymbolTableRecord
100
AcDbLinetypeTableRecord
  2
BYLAYER
 70
     0
  3

 72
    65
 73
     0
 40
0.0
  0
LTYPE
  5
16
330
5
100
AcDbSymbolTableRecord
100
AcDbLinetypeTableRecord
  2
CONTINUOUS
 70
     0
  3
Solid line
 72
    65
 73
     0
 40
0.0
  0
ENDTAB
  0
TABLE
  2
LAYER
  5
2
100
AcDbSymbolTable
 70
1
  0
LAYER
  5
50
100
AcDbSymbolTableRecord
100
AcDbLayerTableRecord
  2
0
 70
0
  6
CONTINUOUS
  0
ENDTAB
  0
TABLE
  2
STYLE
  5
3
330
0
100
AcDbSymbolTable
 70
     1
  0
STYLE
  5
11
330
3
100
AcDbSymbolTableRecord
100
AcDbTextStyleTableRecord
  2
STANDARD
 70
     0
 40
0.0
 41
1.0
 50
0.0
 71
     0
 42
2.5
  3
txt
  4

  0
ENDTAB
  0
TABLE
  2
VIEW
  5
6
330
0
100
AcDbSymbolTable
 70
     0
  0
ENDTAB
  0
TABLE
  2
UCS
  5
7
330
0
100
AcDbSymbolTable
 70
     0
  0
ENDTAB
  0
TABLE
  2
APPID
  5
9
330
0
100
AcDbSymbolTable
 70
     2
  0
APPID
  5
12
330
9
100
AcDbSymbolTableRecord
100
AcDbRegAppTableRecord
  2
ACAD
 70
     0
  0
ENDTAB
  0
TABLE
  2
DIMSTYLE
  5
A
330
0
100
AcDbSymbolTable
 70
     1
  0
DIMSTYLE
105
27
330
A
100
AcDbSymbolTableRecord
100
AcDbDimStyleTableRecord
  2
ISO-25
 70
     0
  3

  4

  5

  6

  7

 40
1.0
 41
2.5
 42
0.625
 43
3.75
 44
1.25
 45
0.0
 46
0.0
 47
0.0
 48
0.0
140
2.5
141
2.5
142
0.0
143
0.03937007874016
144
1.0
145
0.0
146
1.0
147
0.625
 71
     0
 72
     0
 73
     0
 74
     0
 75
     0
 76
     0
 77
     1
 78
     8
170
     0
171
     3
172
     1
173
     0
174
     0
175
     0
176
     0
177
     0
178
     0
270
     2
271
     2
272
     2
273
     2
274
     3
340
11
275
     0
280
     0
281
     0
282
     0
283
     0
284
     8
285
     0
286
     0
287
     3
288
     0
  0
ENDTAB
  0
TABLE
  2
BLOCK_RECORD
  5
1
330
0
100
AcDbSymbolTable
 70
     1
  0
BLOCK_RECORD
  5
1F
330
1
100
AcDbSymbolTableRecord
100
AcDbBlockTableRecord
  2
*MODEL_SPACE
  0
BLOCK_RECORD
  5
1B
330
1
100
AcDbSymbolTableRecord
100
AcDbBlockTableRecord
  2
*PAPER_SPACE
  0
ENDTAB
  0
ENDSEC
  0
SECTION
  2
BLOCKS
  0
BLOCK
  5
20
330
1F
100
AcDbEntity
  8
0
100
AcDbBlockBegin
  2
*MODEL_SPACE
 70
     0
 10
0.0
 20
0.0
 30
0.0
  3
*MODEL_SPACE
  1

  0
ENDBLK
  5
21
330
1F
100
AcDbEntity
  8
0
100
AcDbBlockEnd
  0
BLOCK
  5
1C
330
1B
100
AcDbEntity
 67
     1
  8
0
100
AcDbBlockBegin
  2
*PAPER_SPACE
  1

  0
ENDBLK
  5
1D
330
1B
100
AcDbEntity
 67
     1
  8
0
100
AcDbBlockEnd
  0
ENDSEC
  0
SECTION
  2
ENTITIES
  0
LWPOLYLINE
  5
100
100
AcDbEntity
  8
0
 62
1
100
AcDbPolyline
 90
129
 70
0
 10
5.516495
 20
2.011639
 30
0.0
 10
5.314154
 20
2.164355
 30
0.0
 10
5.160887
 20
2.501642
 30
0.0
 10
5.061683
 20
3.359127
 30
0.0
 10
5.105790
 20
3.675459
 30
0.0
 10
5.439610
 20
4.680943
 30
0.0
 10
5.764140
 20
5.691730
 30
0.0
 10
6.014486
 20
6.140480
 30
0.0
 10
6.401156
 20
6.370924
 30
0.0
 10
6.589450
 20
6.451460
 30
0.0
 10
6.854185
 20
6.642358
 30
0.0
 10
6.896412
 20
6.689404
 30
0.0
 10
6.857050
 20
6.677161
 30
0.0
 10
6.720171
 20
6.654498
 30
0.0
 10
6.560277
 20
6.678696
 30
0.0
 10
6.094889
 20
6.960073
 30
0.0
 10
5.697988
 20
7.396126
 30
0.0
 10
5.477762
 20
7.780931
 30
0.0
 10
5.420751
 20
8.044369
 30
0.0
 10
5.469344
 20
8.245506
 30
0.0
 10
5.615730
 20
8.402837
 30
0.0
 10
6.203995
 20
8.587505
 30
0.0
 10
6.891027
 20
8.586913
 30
0.0
 10
6.994350
 20
8.576380
 30
0.0
 10
7.035619
 20
8.611637
 30
0.0
 10
7.389980
 20
9.090773
 30
0.0
 10
7.546436
 20
9.343085
 30
0.0
 10
7.813721
 20
9.688645
 30
0.0
 10
8.087195
 20
9.900054
 30
0.0
 10
8.275487
 20
10.044858
 30
0.0
 10
8.776077
 20
10.514784
 30
0.0
 10
9.864411
 20
11.438514
 30
0.0
 10
10.583590
 20
11.809052
 30
0.0
 10
10.794292
 20
11.897569
 30
0.0
 10
12.075093
 20
12.335930
 30
0.0
 10
13.344064
 20
12.451446
 30
0.0
 10
13.509762
 20
12.454698
 30
0.0
 10
14.097236
 20
12.548501
 30
0.0
 10
14.944554
 20
12.521529
 30
0.0
 10
15.983931
 20
12.437631
 30
0.0
 10
16.540088
 20
12.466266
 30
0.0
 10
17.006354
 20
12.577841
 30
0.0
 10
17.059878
 20
12.685134
 30
0.0
 10
16.992561
 20
12.899709
 30
0.0
 10
16.790666
 20
13.179906
 30
0.0
 10
16.348698
 20
13.651231
 30
0.0
 10
15.828987
 20
14.208579
 30
0.0
 10
15.238609
 20
15.063852
 30
0.0
 10
14.993694
 20
15.876854
 30
0.0
 10
14.993694
 20
16.264737
 30
0.0
 10
15.076728
 20
16.674549
 30
0.0
 10
15.205343
 20
16.934638
 30
0.0
 10
15.354033
 20
17.004846
 30
0.0
 10
15.540397
 20
16.914603
 30
0.0
 10
15.839007
 20
16.575987
 30
0.0
 10
16.061768
 20
16.321135
 30
0.0
 10
16.150123
 20
16.321812
 30
0.0
 10
16.390664
 20
16.439137
 30
0.0
 10
16.767250
 20
16.439119
 30
0.0
 10
17.229570
 20
16.300529
 30
0.0
 10
17.663524
 20
16.062612
 30
0.0
 10
17.902766
 20
15.841210
 30
0.0
 10
18.343229
 20
15.172647
 30
0.0
 10
18.842258
 20
14.163417
 30
0.0
 10
19.161532
 20
13.483145
 30
0.0
 10
19.286610
 20
13.444372
 30
0.0
 10
19.779937
 20
13.276976
 30
0.0
 10
20.277378
 20
13.037837
 30
0.0
 10
20.917254
 20
12.555838
 30
0.0
 10
21.360481
 20
11.960876
 30
0.0
 10
21.442793
 20
11.828585
 30
0.0
 10
21.662301
 20
11.431200
 30
0.0
 10
21.791350
 20
10.943831
 30
0.0
 10
21.794088
 20
10.564699
 30
0.0
 10
21.632894
 20
10.174045
 30
0.0
 10
21.294650
 20
9.975274
 30
0.0
 10
21.120056
 20
9.957099
 30
0.0
 10
20.623507
 20
9.828418
 30
0.0
 10
20.340741
 20
9.629183
 30
0.0
 10
20.229312
 20
9.413616
 30
0.0
 10
20.242700
 20
9.328998
 30
0.0
 10
20.381602
 20
9.207352
 30
0.0
 10
20.646562
 20
9.132329
 30
0.0
 10
21.494391
 20
8.860342
 30
0.0
 10
21.768329
 20
8.746729
 30
0.0
 10
21.885071
 20
8.695848
 30
0.0
 10
22.416058
 20
8.624286
 30
0.0
 10
22.907177
 20
8.565997
 30
0.0
 10
23.073767
 20
8.397020
 30
0.0
 10
23.131967
 20
8.167986
 30
0.0
 10
23.136953
 20
8.115080
 30
0.0
 10
23.091476
 20
8.047092
 30
0.0
 10
22.776697
 20
7.787467
 30
0.0
 10
22.453720
 20
7.738869
 30
0.0
 10
21.604494
 20
7.904995
 30
0.0
 10
21.128139
 20
8.028952
 30
0.0
 10
20.906279
 20
8.076983
 30
0.0
 10
20.670205
 20
8.100808
 30
0.0
 10
20.883725
 20
7.849259
 30
0.0
 10
21.244088
 20
7.375084
 30
0.0
 10
21.241049
 20
7.136323
 30
0.0
 10
21.082066
 20
6.909434
 30
0.0
 10
20.742118
 20
6.860127
 30
0.0
 10
20.226880
 20
6.987880
 30
0.0
 10
19.542027
 20
7.292173
 30
0.0
 10
19.252757
 20
7.413132
 30
0.0
 10
17.953536
 20
7.663355
 30
0.0
 10
16.978178
 20
7.799796
 30
0.0
 10
16.624188
 20
7.886909
 30
0.0
 10
16.152613
 20
7.896513
 30
0.0
 10
15.264713
 20
7.786955
 30
0.0
 10
13.579325
 20
7.443710
 30
0.0
 10
12.437661
 20
7.067184
 30
0.0
 10
12.143924
 20
6.907337
 30
0.0
 10
11.050789
 20
6.372353
 30
0.0
 10
10.468310
 20
5.933345
 30
0.0
 10
9.887067
 20
5.471972
 30
0.0
 10
9.176021
 20
5.158400
 30
0.0
 10
8.817563
 20
5.149542
 30
0.0
 10
7.850471
 20
5.050308
 30
0.0
 10
7.478148
 20
4.889241
 30
0.0
 10
7.171769
 20
4.651391
 30
0.0
 10
6.825968
 20
4.153762
 30
0.0
 10
6.482740
 20
3.208531
 30
0.0
 10
6.243881
 20
2.599915
 30
0.0
 10
5.970829
 20
2.221310
 30
0.0
 10
5.742884
 20
2.044153
 30
0.0
 10
5.516543
 20
2.011677
 30
0.0
 10
5.516495
 20
2.011640
 30
0.0
  0
ENDSEC
  0
SECTION
  2
OBJECTS
  0
DICTIONARY
  5
C
330
0
100
AcDbDictionary
  3
ACAD_GROUP
350
D
  3
ACAD_MLINESTYLE
350
17
  0
DICTIONARY
  5
D
330
C
100
AcDbDictionary
  0
DICTIONARY
  5
1A
330
C
100
AcDbDictionary
  0
DICTIONARY
  5
17
330
C
100
AcDbDictionary
  3
STANDARD
350
18
  0
DICTIONARY
  5
19
330
C
100
AcDbDictionary
  0
ENDSEC
  0
EOF
