<?xml version="1.0" encoding="UTF-8" standalone="no"?>
<!-- Created with Inkscape (http://www.inkscape.org/) -->

<svg
   xmlns:dc="http://purl.org/dc/elements/1.1/"
   xmlns:cc="http://creativecommons.org/ns#"
   xmlns:rdf="http://www.w3.org/1999/02/22-rdf-syntax-ns#"
   xmlns:svg="http://www.w3.org/2000/svg"
   xmlns="http://www.w3.org/2000/svg"
   xmlns:sodipodi="http://sodipodi.sourceforge.net/DTD/sodipodi-0.dtd"
   xmlns:inkscape="http://www.inkscape.org/namespaces/inkscape"
   id="svg6805"
   version="1.1"
   inkscape:version="0.91 r13725"
   width="106.17381"
   height="88.12426"
   viewBox="0 0 106.17381 88.12426"
   sodipodi:docname="jumping-rabbit.svg">
  <sodipodi:namedview
     pagecolor="#ffffff"
     bordercolor="#666666"
     borderopacity="1"
     objecttolerance="10"
     gridtolerance="10"
     guidetolerance="10"
     inkscape:pageopacity="0"
     inkscape:pageshadow="2"
     inkscape:window-width="1360"
     inkscape:window-height="746"
     id="namedview6807"
     showgrid="false"
     inkscape:zoom="7.5746316"
     inkscape:cx="33.171625"
     inkscape:cy="36.03025"
     inkscape:window-x="1432"
     inkscape:window-y="-8"
     inkscape:window-maximized="1"
     inkscape:current-layer="svg6805" />
  <metadata
     id="metadata6811">
    <rdf:RDF>
      <cc:Work
         rdf:about="">
        <dc:format>image/svg+xml</dc:format>
        <dc:type
           rdf:resource="http://purl.org/dc/dcmitype/StillImage" />
        <dc:title></dc:title>
      </cc:Work>
    </rdf:RDF>
  </metadata>
  <defs
     id="defs6809" />
  <path
     id="path7355"
     style="fill:none;stroke:#ff0000"
     d="m 19.546636,80.996404 -0.716958,-0.541117 -0.543072,-1.195114 -0.351507,-3.038331 0.156283,-1.120861 1.182826,-3.562739 1.149909,-3.581529 0.887053,-1.590059 1.370093,-0.816535 0.667181,-0.285364 0.93804,-0.676409 0.149623,-0.166697 -0.139473,0.04338 -0.485005,0.0803 -0.566554,-0.08574 -1.64901,-0.997006 -1.406344,-1.545067 -0.780328,-1.363485 -0.202009,-0.933441 0.17218,-0.712691 0.518692,-0.55747 2.084405,-0.654338 2.434364,0.0021 0.366105,0.03732 0.146228,-0.124924 1.255609,-1.697728 0.554373,-0.89402 0.947074,-1.224424 0.969002,-0.749087 0.667176,-0.513086 1.773745,-1.665091 3.8563,-3.273057 2.548272,-1.312931 0.746582,-0.313644 4.538272,-1.553246 4.496354,-0.409311 0.587119,-0.01152 2.081601,-0.332374 3.002307,0.09557 3.682833,0.297277 1.970634,-0.101464 1.652122,-0.395344 0.189652,-0.380173 -0.238523,-0.760306 -0.715375,-0.992822 -1.566028,-1.670051 -1.841498,-1.974852 -2.09189,-3.030495 -0.867808,-2.880717 0,-1.37439 0.294215,-1.452087 0.455722,-0.921576 0.526853,-0.248768 0.660347,0.319758 1.058067,1.199821 0.789311,0.903019 0.313067,-0.0024 0.852312,-0.415717 1.33436,6.1e-5 1.638141,0.491068 1.537633,0.843013 0.847708,0.784494 1.560694,2.368926 1.768215,3.57601 1.131284,2.410415 0.443189,0.137382 1.748011,0.593137 1.762584,0.847343 2.26728,1.707872 1.570487,2.108131 0.291656,0.468747 0.777786,1.408057 0.45726,1.726899 0.0097,1.34338 -0.57116,1.384207 -1.198499,0.704308 -0.618643,0.0644 -1.759423,0.455957 -1.00193,0.705949 -0.394827,0.76382 0.04744,0.299827 0.492173,0.43103 0.938833,0.265831 3.004119,0.963734 0.970647,0.402565 0.413651,0.180285 1.88145,0.253569 1.740185,0.206534 0.59028,0.598736 0.20622,0.811539 0.01767,0.187464 -0.161141,0.240902 -1.115358,0.919931 -1.144407,0.172197 -3.009069,-0.588637 -1.687873,-0.439215 -0.786115,-0.170189 -0.836483,-0.08442 0.756565,0.891314 1.276878,1.680148 -0.01077,0.846005 -0.563325,0.803936 -1.20454,0.174712 -1.825647,-0.452668 -2.426645,-1.078204 -1.024969,-0.428597 -4.603541,-0.886617 -3.455991,-0.483452 -1.254297,-0.308669 -1.670934,-0.03403 -3.146103,0.3882 -5.971848,1.216221 -4.045264,1.334148 -1.040802,0.566386 -3.873312,1.895614 -2.063902,1.555538 -2.059524,1.634787 -2.519452,1.111081 -1.270128,0.03139 -3.426706,0.351616 -1.319254,0.570709 -1.085594,0.842774 -1.225278,1.763254 -1.216162,3.349242 -0.846352,2.156516 -0.967509,1.341512 -0.807679,0.627723 -0.801995,0.11507 -1.69e-4,1.32e-4" />
</svg>
