  0
SECTION
  2
HEADER
  9
$ACADVER
  1
AC1014
  9
$HANDSEED
  5
FFFF
  9
$MEASUREMENT
 70
     1
  0
ENDSEC
  0
SECTION
  2
TABLES
  0
TABLE
  2
VPORT
  5
8
330
0
100
AcDbSymbolTable
 70
     4
  0
VPORT
  5
2E
330
8
100
AcDbSymbolTableRecord
100
AcDbViewportTableRecord
  2
*ACTIVE
 70
     0
 10
0.0
 20
0.0
 11
1.0
 21
1.0
 12
210.0
 22
148.5
 13
0.0
 23
0.0
 14
10.0
 24
10.0
 15
10.0
 25
10.0
 16
0.0
 26
0.0
 36
1.0
 17
0.0
 27
0.0
 37
0.0
 40
341.0
 41
1.24
 42
50.0
 43
0.0
 44
0.0
 50
0.0
 51
0.0
 71
     0
 72
   100
 73
     1
 74
     3
 75
     0
 76
     0
 77
     0
 78
     0
  0
ENDTAB
  0
TABLE
  2
LTYPE
  5
5
330
0
100
AcDbSymbolTable
 70
     1
  0
LTYPE
  5
14
330
5
100
AcDbSymbolTableRecord
100
AcDbLinetypeTableRecord
  2
BYBLOCK
 70
     0
  3

 72
    65
 73
     0
 40
0.0
  0
LTYPE
  5
15
330
5
100
AcDbSymbolTableRecord
100
AcDbLinetypeTableRecord
  2
BYLAYER
 70
     0
  3

 72
    65
 73
     0
 40
0.0
  0
LTYPE
  5
16
330
5
100
AcDbSymbolTableRecord
100
AcDbLinetypeTableRecord
  2
CONTINUOUS
 70
     0
  3
Solid line
 72
    65
 73
     0
 40
0.0
  0
ENDTAB
  0
TABLE
  2
LAYER
  5
2
100
AcDbSymbolTable
 70
1
  0
LAYER
  5
50
100
AcDbSymbolTableRecord
100
AcDbLayerTableRecord
  2
0
 70
0
  6
CONTINUOUS
  0
ENDTAB
  0
TABLE
  2
STYLE
  5
3
330
0
100
AcDbSymbolTable
 70
     1
  0
STYLE
  5
11
330
3
100
AcDbSymbolTableRecord
100
AcDbTextStyleTableRecord
  2
STANDARD
 70
     0
 40
0.0
 41
1.0
 50
0.0
 71
     0
 42
2.5
  3
txt
  4

  0
ENDTAB
  0
TABLE
  2
VIEW
  5
6
330
0
100
AcDbSymbolTable
 70
     0
  0
ENDTAB
  0
TABLE
  2
UCS
  5
7
330
0
100
AcDbSymbolTable
 70
     0
  0
ENDTAB
  0
TABLE
  2
APPID
  5
9
330
0
100
AcDbSymbolTable
 70
     2
  0
APPID
  5
12
330
9
100
AcDbSymbolTableRecord
100
AcDbRegAppTableRecord
  2
ACAD
 70
     0
  0
ENDTAB
  0
TABLE
  2
DIMSTYLE
  5
A
330
0
100
AcDbSymbolTable
 70
     1
  0
DIMSTYLE
105
27
330
A
100
AcDbSymbolTableRecord
100
AcDbDimStyleTableRecord
  2
ISO-25
 70
     0
  3

  4

  5

  6

  7

 40
1.0
 41
2.5
 42
0.625
 43
3.75
 44
1.25
 45
0.0
 46
0.0
 47
0.0
 48
0.0
140
2.5
141
2.5
142
0.0
143
0.03937007874016
144
1.0
145
0.0
146
1.0
147
0.625
 71
     0
 72
     0
 73
     0
 74
     0
 75
     0
 76
     0
 77
     1
 78
     8
170
     0
171
     3
172
     1
173
     0
174
     0
175
     0
176
     0
177
     0
178
     0
270
     2
271
     2
272
     2
273
     2
274
     3
340
11
275
     0
280
     0
281
     0
282
     0
283
     0
284
     8
285
     0
286
     0
287
     3
288
     0
  0
ENDTAB
  0
TABLE
  2
BLOCK_RECORD
  5
1
330
0
100
AcDbSymbolTable
 70
     1
  0
BLOCK_RECORD
  5
1F
330
1
100
AcDbSymbolTableRecord
100
AcDbBlockTableRecord
  2
*MODEL_SPACE
  0
BLOCK_RECORD
  5
1B
330
1
100
AcDbSymbolTableRecord
100
AcDbBlockTableRecord
  2
*PAPER_SPACE
  0
ENDTAB
  0
ENDSEC
  0
SECTION
  2
BLOCKS
  0
BLOCK
  5
20
330
1F
100
AcDbEntity
  8
0
100
AcDbBlockBegin
  2
*MODEL_SPACE
 70
     0
 10
0.0
 20
0.0
 30
0.0
  3
*MODEL_SPACE
  1

  0
ENDBLK
  5
21
330
1F
100
AcDbEntity
  8
0
100
AcDbBlockEnd
  0
BLOCK
  5
1C
330
1B
100
AcDbEntity
 67
     1
  8
0
100
AcDbBlockBegin
  2
*PAPER_SPACE
  1

  0
ENDBLK
  5
1D
330
1B
100
AcDbEntity
 67
     1
  8
0
100
AcDbBlockEnd
  0
ENDSEC
  0
SECTION
  2
ENTITIES
  0
SPLINE
  5
100
100
AcDbEntity
  8
0
 62
1
100
AcDbSpline
 70
8
 71
3
 72
8
 73
4
 74
0
 40
0
 40
0
 40
0
 40
0
 40
1
 40
1
 40
1
 40
1
 10
18.196167
 20
40.873164
 30
0.0
 10
17.352218
 20
40.867209
 30
0.0
 10
16.518314
 20
40.784752
 30
0.0
 10
15.744913
 20
40.623465
 30
0.0
  0
SPLINE
  5
101
100
AcDbEntity
  8
0
 62
1
100
AcDbSpline
 70
8
 71
3
 72
8
 73
4
 74
0
 40
0
 40
0
 40
0
 40
0
 40
1
 40
1
 40
1
 40
1
 10
15.744913
 20
40.623465
 30
0.0
 10
14.880119
 20
40.443116
 30
0.0
 10
13.185156
 20
39.775364
 30
0.0
 10
12.469041
 20
39.332518
 30
0.0
  0
SPLINE
  5
102
100
AcDbEntity
  8
0
 62
1
100
AcDbSpline
 70
8
 71
3
 72
8
 73
4
 74
0
 40
0
 40
0
 40
0
 40
0
 40
1
 40
1
 40
1
 40
1
 10
12.469041
 20
39.332518
 30
0.0
 10
12.145999
 20
39.132756
 30
0.0
 10
11.992343
 20
39.091246
 30
0.0
 10
11.444332
 20
39.056908
 30
0.0
  0
SPLINE
  5
103
100
AcDbEntity
  8
0
 62
1
100
AcDbSpline
 70
8
 71
3
 72
8
 73
4
 74
0
 40
0
 40
0
 40
0
 40
0
 40
1
 40
1
 40
1
 40
1
 10
11.444332
 20
39.056908
 30
0.0
 10
10.644589
 20
39.006811
 30
0.0
 10
9.886506
 20
38.752693
 30
0.0
 10
9.071350
 20
38.260954
 30
0.0
  0
SPLINE
  5
104
100
AcDbEntity
  8
0
 62
1
100
AcDbSpline
 70
8
 71
3
 72
8
 73
4
 74
0
 40
0
 40
0
 40
0
 40
0
 40
1
 40
1
 40
1
 40
1
 10
9.071350
 20
38.260954
 30
0.0
 10
7.964810
 20
37.593439
 30
0.0
 10
7.689653
 20
37.085310
 30
0.0
 10
8.209249
 20
36.670700
 30
0.0
  0
SPLINE
  5
105
100
AcDbEntity
  8
0
 62
1
100
AcDbSpline
 70
8
 71
3
 72
8
 73
4
 74
0
 40
0
 40
0
 40
0
 40
0
 40
1
 40
1
 40
1
 40
1
 10
8.209249
 20
36.670700
 30
0.0
 10
8.525275
 20
36.418537
 30
0.0
 10
8.515365
 20
36.320786
 30
0.0
 10
8.096801
 20
35.521415
 30
0.0
  0
SPLINE
  5
106
100
AcDbEntity
  8
0
 62
1
100
AcDbSpline
 70
8
 71
3
 72
8
 73
4
 74
0
 40
0
 40
0
 40
0
 40
0
 40
1
 40
1
 40
1
 40
1
 10
8.096801
 20
35.521415
 30
0.0
 10
7.917576
 20
35.179130
 30
0.0
 10
7.800848
 20
34.858836
 30
0.0
 10
7.814028
 20
34.745854
 30
0.0
  0
SPLINE
  5
107
100
AcDbEntity
  8
0
 62
1
100
AcDbSpline
 70
8
 71
3
 72
8
 73
4
 74
0
 40
0
 40
0
 40
0
 40
0
 40
1
 40
1
 40
1
 40
1
 10
7.814028
 20
34.745854
 30
0.0
 10
7.833978
 20
34.574836
 30
0.0
 10
7.870289
 20
34.553855
 30
0.0
 10
8.140347
 20
34.557891
 30
0.0
  0
SPLINE
  5
108
100
AcDbEntity
  8
0
 62
1
100
AcDbSpline
 70
8
 71
3
 72
8
 73
4
 74
0
 40
0
 40
0
 40
0
 40
0
 40
1
 40
1
 40
1
 40
1
 10
8.140347
 20
34.557891
 30
0.0
 10
8.307478
 20
34.560431
 30
0.0
 10
8.532389
 20
34.588145
 30
0.0
 10
8.639748
 20
34.619627
 30
0.0
  0
SPLINE
  5
109
100
AcDbEntity
  8
0
 62
1
100
AcDbSpline
 70
8
 71
3
 72
8
 73
4
 74
0
 40
0
 40
0
 40
0
 40
0
 40
1
 40
1
 40
1
 40
1
 10
8.639748
 20
34.619627
 30
0.0
 10
8.830814
 20
34.675659
 30
0.0
 10
8.834604
 20
34.669552
 30
0.0
 10
8.816688
 20
34.330239
 30
0.0
  0
SPLINE
  5
10a
100
AcDbEntity
  8
0
 62
1
100
AcDbSpline
 70
8
 71
3
 72
8
 73
4
 74
0
 40
0
 40
0
 40
0
 40
0
 40
1
 40
1
 40
1
 40
1
 10
8.816688
 20
34.330239
 30
0.0
 10
8.806621
 20
34.139581
 30
0.0
 10
8.829603
 20
33.983524
 30
0.0
 10
8.867951
 20
33.983524
 30
0.0
  0
SPLINE
  5
10b
100
AcDbEntity
  8
0
 62
1
100
AcDbSpline
 70
8
 71
3
 72
8
 73
4
 74
0
 40
0
 40
0
 40
0
 40
0
 40
1
 40
1
 40
1
 40
1
 10
8.867951
 20
33.983524
 30
0.0
 10
8.907914
 20
33.983524
 30
0.0
 10
8.936073
 20
33.375606
 30
0.0
 10
8.934097
 20
32.559185
 30
0.0
  0
SPLINE
  5
10c
100
AcDbEntity
  8
0
 62
1
100
AcDbSpline
 70
8
 71
3
 72
8
 73
4
 74
0
 40
0
 40
0
 40
0
 40
0
 40
1
 40
1
 40
1
 40
1
 10
8.934097
 20
32.559185
 30
0.0
 10
8.930315
 20
30.984642
 30
0.0
 10
9.042552
 20
30.224572
 30
0.0
 10
9.447279
 20
29.083220
 30
0.0
  0
SPLINE
  5
10d
100
AcDbEntity
  8
0
 62
1
100
AcDbSpline
 70
8
 71
3
 72
8
 73
4
 74
0
 40
0
 40
0
 40
0
 40
0
 40
1
 40
1
 40
1
 40
1
 10
9.447279
 20
29.083220
 30
0.0
 10
10.045112
 20
27.397295
 30
0.0
 10
11.507277
 20
25.962570
 30
0.0
 10
13.658563
 20
24.950759
 30
0.0
  0
SPLINE
  5
10e
100
AcDbEntity
  8
0
 62
1
100
AcDbSpline
 70
8
 71
3
 72
8
 73
4
 74
0
 40
0
 40
0
 40
0
 40
0
 40
1
 40
1
 40
1
 40
1
 10
13.658563
 20
24.950759
 30
0.0
 10
14.697617
 20
24.462057
 30
0.0
 10
15.615523
 20
24.174614
 30
0.0
 10
16.269119
 20
24.133858
 30
0.0
  0
SPLINE
  5
10f
100
AcDbEntity
  8
0
 62
1
100
AcDbSpline
 70
8
 71
3
 72
8
 73
4
 74
0
 40
0
 40
0
 40
0
 40
0
 40
1
 40
1
 40
1
 40
1
 10
16.269119
 20
24.133858
 30
0.0
 10
17.149150
 20
24.078983
 30
0.0
 10
17.294931
 20
24.042723
 30
0.0
 10
17.294931
 20
23.877544
 30
0.0
  0
SPLINE
  5
110
100
AcDbEntity
  8
0
 62
1
100
AcDbSpline
 70
8
 71
3
 72
8
 73
4
 74
0
 40
0
 40
0
 40
0
 40
0
 40
1
 40
1
 40
1
 40
1
 10
17.294931
 20
23.877544
 30
0.0
 10
17.294931
 20
23.718252
 30
0.0
 10
16.862114
 20
22.968591
 30
0.0
 10
16.770174
 20
22.968591
 30
0.0
  0
SPLINE
  5
111
100
AcDbEntity
  8
0
 62
1
100
AcDbSpline
 70
8
 71
3
 72
8
 73
4
 74
0
 40
0
 40
0
 40
0
 40
0
 40
1
 40
1
 40
1
 40
1
 10
16.770174
 20
22.968591
 30
0.0
 10
16.661794
 20
22.968591
 30
0.0
 10
16.375713
 20
22.287978
 30
0.0
 10
16.307153
 20
21.866710
 30
0.0
  0
SPLINE
  5
112
100
AcDbEntity
  8
0
 62
1
100
AcDbSpline
 70
8
 71
3
 72
8
 73
4
 74
0
 40
0
 40
0
 40
0
 40
0
 40
1
 40
1
 40
1
 40
1
 10
16.307153
 20
21.866710
 30
0.0
 10
16.225575
 20
21.365475
 30
0.0
 10
16.264464
 20
20.810536
 30
0.0
 10
16.462595
 20
19.658542
 30
0.0
  0
SPLINE
  5
113
100
AcDbEntity
  8
0
 62
1
100
AcDbSpline
 70
8
 71
3
 72
8
 73
4
 74
0
 40
0
 40
0
 40
0
 40
0
 40
1
 40
1
 40
1
 40
1
 10
16.462595
 20
19.658542
 30
0.0
 10
16.766937
 20
17.889068
 30
0.0
 10
16.725027
 20
17.267592
 30
0.0
 10
16.217856
 20
16.035954
 30
0.0
  0
SPLINE
  5
114
100
AcDbEntity
  8
0
 62
1
100
AcDbSpline
 70
8
 71
3
 72
8
 73
4
 74
0
 40
0
 40
0
 40
0
 40
0
 40
1
 40
1
 40
1
 40
1
 10
16.134071
 20
15.048730
 30
0.0
 10
16.253123
 20
14.749732
 30
0.0
 10
16.303828
 20
14.408342
 30
0.0
 10
16.336367
 20
13.683920
 30
0.0
  0
SPLINE
  5
115
100
AcDbEntity
  8
0
 62
1
100
AcDbSpline
 70
8
 71
3
 72
8
 73
4
 74
0
 40
0
 40
0
 40
0
 40
0
 40
1
 40
1
 40
1
 40
1
 10
16.336367
 20
13.683920
 30
0.0
 10
16.381328
 20
12.682928
 30
0.0
 10
16.489794
 20
12.225141
 30
0.0
 10
16.889236
 20
11.350075
 30
0.0
  0
SPLINE
  5
116
100
AcDbEntity
  8
0
 62
1
100
AcDbSpline
 70
8
 71
3
 72
8
 73
4
 74
0
 40
0
 40
0
 40
0
 40
0
 40
1
 40
1
 40
1
 40
1
 10
16.889236
 20
11.350075
 30
0.0
 10
16.992863
 20
11.123052
 30
0.0
 10
17.115179
 20
10.750781
 30
0.0
 10
17.160985
 20
10.522701
 30
0.0
  0
SPLINE
  5
117
100
AcDbEntity
  8
0
 62
1
100
AcDbSpline
 70
8
 71
3
 72
8
 73
4
 74
0
 40
0
 40
0
 40
0
 40
0
 40
1
 40
1
 40
1
 40
1
 10
17.160985
 20
10.522701
 30
0.0
 10
17.227248
 20
10.192746
 30
0.0
 10
17.287824
 20
10.083001
 30
0.0
 10
17.458090
 20
9.985815
 30
0.0
  0
SPLINE
  5
118
100
AcDbEntity
  8
0
 62
1
100
AcDbSpline
 70
8
 71
3
 72
8
 73
4
 74
0
 40
0
 40
0
 40
0
 40
0
 40
1
 40
1
 40
1
 40
1
 10
17.458090
 20
9.985815
 30
0.0
 10
17.638081
 20
9.883072
 30
0.0
 10
17.689557
 20
9.779367
 30
0.0
 10
17.781102
 20
9.332076
 30
0.0
  0
SPLINE
  5
119
100
AcDbEntity
  8
0
 62
1
100
AcDbSpline
 70
8
 71
3
 72
8
 73
4
 74
0
 40
0
 40
0
 40
0
 40
0
 40
1
 40
1
 40
1
 40
1
 10
17.781102
 20
9.332076
 30
0.0
 10
17.917505
 20
8.665611
 30
0.0
 10
18.055649
 20
7.047247
 30
0.0
 10
18.055056
 20
6.120144
 30
0.0
  0
LWPOLYLINE
  5
11a
100
AcDbEntity
  8
0
 62
1
100
AcDbPolyline
 90
3
 70
0
 10
16.217856
 20
16.035954
 30
0.0
 10
15.975321
 20
15.447258
 30
0.0
 10
16.134071
 20
15.048730
 30
0.0
  0
SPLINE
  5
11b
100
AcDbEntity
  8
0
 62
1
100
AcDbSpline
 70
8
 71
3
 72
8
 73
4
 74
0
 40
0
 40
0
 40
0
 40
0
 40
1
 40
1
 40
1
 40
1
 10
19.212057
 20
5.436636
 30
0.0
 10
20.263845
 20
5.455686
 30
0.0
 10
20.371830
 20
5.470234
 30
0.0
 10
20.396068
 20
5.596489
 30
0.0
  0
SPLINE
  5
11c
100
AcDbEntity
  8
0
 62
1
100
AcDbSpline
 70
8
 71
3
 72
8
 73
4
 74
0
 40
0
 40
0
 40
0
 40
0
 40
1
 40
1
 40
1
 40
1
 10
20.396068
 20
5.596489
 30
0.0
 10
20.440075
 20
5.825716
 30
0.0
 10
20.249982
 20
6.179024
 30
0.0
 10
20.018485
 20
6.298737
 30
0.0
  0
SPLINE
  5
11d
100
AcDbEntity
  8
0
 62
1
100
AcDbSpline
 70
8
 71
3
 72
8
 73
4
 74
0
 40
0
 40
0
 40
0
 40
0
 40
1
 40
1
 40
1
 40
1
 10
20.018485
 20
6.298737
 30
0.0
 10
19.860051
 20
6.380663
 30
0.0
 10
19.801857
 20
6.466930
 30
0.0
 10
19.801857
 20
6.617891
 30
0.0
  0
SPLINE
  5
11e
100
AcDbEntity
  8
0
 62
1
100
AcDbSpline
 70
8
 71
3
 72
8
 73
4
 74
0
 40
0
 40
0
 40
0
 40
0
 40
1
 40
1
 40
1
 40
1
 10
19.801857
 20
6.617891
 30
0.0
 10
19.802059
 20
6.833481
 30
0.0
 10
20.019670
 20
7.681471
 30
0.0
 10
20.391107
 20
8.914254
 30
0.0
  0
SPLINE
  5
11f
100
AcDbEntity
  8
0
 62
1
100
AcDbSpline
 70
8
 71
3
 72
8
 73
4
 74
0
 40
0
 40
0
 40
0
 40
0
 40
1
 40
1
 40
1
 40
1
 10
20.391107
 20
8.914254
 30
0.0
 10
20.592472
 20
9.582565
 30
0.0
 10
20.624312
 20
9.638654
 30
0.0
 10
20.825465
 20
9.673827
 30
0.0
  0
SPLINE
  5
120
100
AcDbEntity
  8
0
 62
1
100
AcDbSpline
 70
8
 71
3
 72
8
 73
4
 74
0
 40
0
 40
0
 40
0
 40
0
 40
1
 40
1
 40
1
 40
1
 10
20.825465
 20
9.673827
 30
0.0
 10
21.027583
 20
9.709170
 30
0.0
 10
21.053958
 20
9.756498
 30
0.0
 10
21.207457
 20
10.357335
 30
0.0
  0
SPLINE
  5
121
100
AcDbEntity
  8
0
 62
1
100
AcDbSpline
 70
8
 71
3
 72
8
 73
4
 74
0
 40
0
 40
0
 40
0
 40
0
 40
1
 40
1
 40
1
 40
1
 10
21.207457
 20
10.357335
 30
0.0
 10
21.617632
 20
11.962926
 30
0.0
 10
21.814418
 20
12.633269
 30
0.0
 10
22.009475
 20
13.092464
 30
0.0
  0
SPLINE
  5
122
100
AcDbEntity
  8
0
 62
1
100
AcDbSpline
 70
8
 71
3
 72
8
 73
4
 74
0
 40
0
 40
0
 40
0
 40
0
 40
1
 40
1
 40
1
 40
1
 10
22.009475
 20
13.092464
 30
0.0
 10
22.124856
 20
13.364086
 30
0.0
 10
22.242322
 20
13.711132
 30
0.0
 10
22.270751
 20
13.863616
 30
0.0
  0
SPLINE
  5
123
100
AcDbEntity
  8
0
 62
1
100
AcDbSpline
 70
8
 71
3
 72
8
 73
4
 74
0
 40
0
 40
0
 40
0
 40
0
 40
1
 40
1
 40
1
 40
1
 10
22.270751
 20
13.863616
 30
0.0
 10
22.316326
 20
14.108097
 30
0.0
 10
22.364429
 20
14.156298
 30
0.0
 10
22.676445
 20
14.272065
 30
0.0
  0
SPLINE
  5
124
100
AcDbEntity
  8
0
 62
1
100
AcDbSpline
 70
8
 71
3
 72
8
 73
4
 74
0
 40
0
 40
0
 40
0
 40
0
 40
1
 40
1
 40
1
 40
1
 10
22.676445
 20
14.272065
 30
0.0
 10
22.871052
 20
14.344272
 30
0.0
 10
23.084507
 20
14.471170
 30
0.0
 10
23.151042
 20
14.554287
 30
0.0
  0
SPLINE
  5
125
100
AcDbEntity
  8
0
 62
1
100
AcDbSpline
 70
8
 71
3
 72
8
 73
4
 74
0
 40
0
 40
0
 40
0
 40
0
 40
1
 40
1
 40
1
 40
1
 10
23.151042
 20
14.554287
 30
0.0
 10
23.267864
 20
14.700225
 30
0.0
 10
23.286380
 20
14.701221
 30
0.0
 10
23.695091
 20
14.582400
 30
0.0
  0
SPLINE
  5
126
100
AcDbEntity
  8
0
 62
1
100
AcDbSpline
 70
8
 71
3
 72
8
 73
4
 74
0
 40
0
 40
0
 40
0
 40
0
 40
1
 40
1
 40
1
 40
1
 10
23.695091
 20
14.582400
 30
0.0
 10
23.988627
 20
14.497070
 30
0.0
 10
24.181776
 20
14.383625
 30
0.0
 10
24.324579
 20
14.212536
 30
0.0
  0
SPLINE
  5
127
100
AcDbEntity
  8
0
 62
1
100
AcDbSpline
 70
8
 71
3
 72
8
 73
4
 74
0
 40
0
 40
0
 40
0
 40
0
 40
1
 40
1
 40
1
 40
1
 10
24.324579
 20
14.212536
 30
0.0
 10
24.605923
 20
13.875453
 30
0.0
 10
24.793938
 20
13.781890
 30
0.0
 10
25.196602
 20
13.778730
 30
0.0
  0
SPLINE
  5
128
100
AcDbEntity
  8
0
 62
1
100
AcDbSpline
 70
8
 71
3
 72
8
 73
4
 74
0
 40
0
 40
0
 40
0
 40
0
 40
1
 40
1
 40
1
 40
1
 10
25.196602
 20
13.778730
 30
0.0
 10
25.593779
 20
13.775625
 30
0.0
 10
26.521241
 20
14.017247
 30
0.0
 10
26.947261
 20
14.234583
 30
0.0
  0
SPLINE
  5
129
100
AcDbEntity
  8
0
 62
1
100
AcDbSpline
 70
8
 71
3
 72
8
 73
4
 74
0
 40
0
 40
0
 40
0
 40
0
 40
1
 40
1
 40
1
 40
1
 10
26.947261
 20
14.234583
 30
0.0
 10
27.477568
 20
14.505130
 30
0.0
 10
27.499430
 20
14.480252
 30
0.0
 10
27.440048
 20
13.681162
 30
0.0
  0
SPLINE
  5
12a
100
AcDbEntity
  8
0
 62
1
100
AcDbSpline
 70
8
 71
3
 72
8
 73
4
 74
0
 40
0
 40
0
 40
0
 40
0
 40
1
 40
1
 40
1
 40
1
 10
27.440048
 20
13.681162
 30
0.0
 10
27.324498
 20
12.126381
 30
0.0
 10
27.325149
 20
11.481743
 30
0.0
 10
27.441701
 20
11.526464
 30
0.0
  0
SPLINE
  5
12b
100
AcDbEntity
  8
0
 62
1
100
AcDbSpline
 70
8
 71
3
 72
8
 73
4
 74
0
 40
0
 40
0
 40
0
 40
0
 40
1
 40
1
 40
1
 40
1
 10
27.441701
 20
11.526464
 30
0.0
 10
27.526080
 20
11.558843
 30
0.0
 10
27.550291
 20
11.491979
 30
0.0
 10
27.550291
 20
11.226602
 30
0.0
  0
SPLINE
  5
12c
100
AcDbEntity
  8
0
 62
1
100
AcDbSpline
 70
8
 71
3
 72
8
 73
4
 74
0
 40
0
 40
0
 40
0
 40
0
 40
1
 40
1
 40
1
 40
1
 10
27.550291
 20
11.226602
 30
0.0
 10
27.550291
 20
10.436815
 30
0.0
 10
27.955302
 20
10.087206
 30
0.0
 10
28.605316
 20
10.316546
 30
0.0
  0
SPLINE
  5
12d
100
AcDbEntity
  8
0
 62
1
100
AcDbSpline
 70
8
 71
3
 72
8
 73
4
 74
0
 40
0
 40
0
 40
0
 40
0
 40
1
 40
1
 40
1
 40
1
 10
28.605316
 20
10.316546
 30
0.0
 10
29.044166
 20
10.470284
 30
0.0
 10
29.577634
 20
9.842517
 30
0.0
 10
29.547896
 20
9.902032
 30
0.0
  0
SPLINE
  5
12e
100
AcDbEntity
  8
0
 62
1
100
AcDbSpline
 70
8
 71
3
 72
8
 73
4
 74
0
 40
0
 40
0
 40
0
 40
0
 40
1
 40
1
 40
1
 40
1
 10
29.547896
 20
9.902032
 30
0.0
 10
29.644879
 20
9.731237
 30
0.0
 10
29.743039
 20
9.200323
 30
0.0
 10
30.090841
 20
6.976731
 30
0.0
  0
LWPOLYLINE
  5
12f
100
AcDbEntity
  8
0
 62
1
100
AcDbPolyline
 90
3
 70
0
 10
18.055056
 20
6.120144
 30
0.0
 10
18.053954
 20
5.415689
 30
0.0
 10
19.212057
 20
5.436636
 30
0.0
  0
SPLINE
  5
130
100
AcDbEntity
  8
0
 62
1
100
AcDbSpline
 70
8
 71
3
 72
8
 73
4
 74
0
 40
0
 40
0
 40
0
 40
0
 40
1
 40
1
 40
1
 40
1
 10
29.861535
 20
6.000530
 30
0.0
 10
29.637056
 20
5.805060
 30
0.0
 10
29.525296
 20
5.646533
 30
0.0
 10
29.525296
 20
5.523730
 30
0.0
  0
LWPOLYLINE
  5
131
100
AcDbEntity
  8
0
 62
1
100
AcDbPolyline
 90
3
 70
0
 10
30.090841
 20
6.976731
 30
0.0
 10
30.197778
 20
6.293225
 30
0.0
 10
29.861535
 20
6.000530
 30
0.0
  0
SPLINE
  5
132
100
AcDbEntity
  8
0
 62
1
100
AcDbSpline
 70
8
 71
3
 72
8
 73
4
 74
0
 40
0
 40
0
 40
0
 40
0
 40
1
 40
1
 40
1
 40
1
 10
31.926939
 20
5.837369
 30
0.0
 10
31.933938
 20
6.224798
 30
0.0
 10
32.319076
 20
8.983495
 30
0.0
 10
32.375630
 20
9.050954
 30
0.0
  0
SPLINE
  5
133
100
AcDbEntity
  8
0
 62
1
100
AcDbSpline
 70
8
 71
3
 72
8
 73
4
 74
0
 40
0
 40
0
 40
0
 40
0
 40
1
 40
1
 40
1
 40
1
 10
32.375630
 20
9.050954
 30
0.0
 10
32.422818
 20
9.107238
 30
0.0
 10
35.175582
 20
9.284713
 30
0.0
 10
35.376996
 20
9.244432
 30
0.0
  0
SPLINE
  5
134
100
AcDbEntity
  8
0
 62
1
100
AcDbSpline
 70
8
 71
3
 72
8
 73
4
 74
0
 40
0
 40
0
 40
0
 40
0
 40
1
 40
1
 40
1
 40
1
 10
35.376996
 20
9.244432
 30
0.0
 10
35.529077
 20
9.214017
 30
0.0
 10
35.655394
 20
9.109707
 30
0.0
 10
35.766155
 20
8.923624
 30
0.0
  0
SPLINE
  5
135
100
AcDbEntity
  8
0
 62
1
100
AcDbSpline
 70
8
 71
3
 72
8
 73
4
 74
0
 40
0
 40
0
 40
0
 40
0
 40
1
 40
1
 40
1
 40
1
 10
35.766155
 20
8.923624
 30
0.0
 10
35.946667
 20
8.620359
 30
0.0
 10
36.116263
 20
8.458398
 30
0.0
 10
36.252878
 20
8.458398
 30
0.0
  0
SPLINE
  5
136
100
AcDbEntity
  8
0
 62
1
100
AcDbSpline
 70
8
 71
3
 72
8
 73
4
 74
0
 40
0
 40
0
 40
0
 40
0
 40
1
 40
1
 40
1
 40
1
 10
36.252878
 20
8.458398
 30
0.0
 10
36.351043
 20
8.458398
 30
0.0
 10
36.461274
 20
8.938771
 30
0.0
 10
36.627153
 20
10.089444
 30
0.0
  0
SPLINE
  5
137
100
AcDbEntity
  8
0
 62
1
100
AcDbSpline
 70
8
 71
3
 72
8
 73
4
 74
0
 40
0
 40
0
 40
0
 40
0
 40
1
 40
1
 40
1
 40
1
 10
36.627153
 20
10.089444
 30
0.0
 10
36.747986
 20
10.927619
 30
0.0
 10
36.735456
 20
10.962248
 30
0.0
 10
36.310203
 20
10.964223
 30
0.0
  0
SPLINE
  5
138
100
AcDbEntity
  8
0
 62
1
100
AcDbSpline
 70
8
 71
3
 72
8
 73
4
 74
0
 40
0
 40
0
 40
0
 40
0
 40
1
 40
1
 40
1
 40
1
 10
36.310203
 20
10.964223
 30
0.0
 10
36.032036
 20
10.965634
 30
0.0
 10
34.995556
 20
11.330644
 30
0.0
 10
34.995556
 20
11.427243
 30
0.0
  0
SPLINE
  5
139
100
AcDbEntity
  8
0
 62
1
100
AcDbSpline
 70
8
 71
3
 72
8
 73
4
 74
0
 40
0
 40
0
 40
0
 40
0
 40
1
 40
1
 40
1
 40
1
 10
34.995556
 20
11.427243
 30
0.0
 10
34.995556
 20
11.462614
 30
0.0
 10
35.178230
 20
11.489315
 30
0.0
 10
35.401800
 20
11.486775
 30
0.0
  0
SPLINE
  5
13a
100
AcDbEntity
  8
0
 62
1
100
AcDbSpline
 70
8
 71
3
 72
8
 73
4
 74
0
 40
0
 40
0
 40
0
 40
0
 40
1
 40
1
 40
1
 40
1
 10
35.401800
 20
11.486775
 30
0.0
 10
35.852470
 20
11.481384
 30
0.0
 10
36.082724
 20
11.588118
 30
0.0
 10
36.206577
 20
11.859949
 30
0.0
  0
SPLINE
  5
13b
100
AcDbEntity
  8
0
 62
1
100
AcDbSpline
 70
8
 71
3
 72
8
 73
4
 74
0
 40
0
 40
0
 40
0
 40
0
 40
1
 40
1
 40
1
 40
1
 10
36.206577
 20
11.859949
 30
0.0
 10
36.276255
 20
12.012879
 30
0.0
 10
36.324656
 20
12.032559
 30
0.0
 10
36.520769
 20
11.989483
 30
0.0
  0
SPLINE
  5
13c
100
AcDbEntity
  8
0
 62
1
100
AcDbSpline
 70
8
 71
3
 72
8
 73
4
 74
0
 40
0
 40
0
 40
0
 40
0
 40
1
 40
1
 40
1
 40
1
 10
36.520769
 20
11.989483
 30
0.0
 10
36.892498
 20
11.907839
 30
0.0
 10
37.184214
 20
12.073063
 30
0.0
 10
37.277034
 20
12.417778
 30
0.0
  0
SPLINE
  5
13d
100
AcDbEntity
  8
0
 62
1
100
AcDbSpline
 70
8
 71
3
 72
8
 73
4
 74
0
 40
0
 40
0
 40
0
 40
0
 40
1
 40
1
 40
1
 40
1
 10
37.277034
 20
12.417778
 30
0.0
 10
37.348518
 20
12.683253
 30
0.0
 10
37.380723
 20
12.712677
 30
0.0
 10
37.602253
 20
12.712677
 30
0.0
  0
SPLINE
  5
13e
100
AcDbEntity
  8
0
 62
1
100
AcDbSpline
 70
8
 71
3
 72
8
 73
4
 74
0
 40
0
 40
0
 40
0
 40
0
 40
1
 40
1
 40
1
 40
1
 10
37.602253
 20
12.712677
 30
0.0
 10
37.919375
 20
12.712677
 30
0.0
 10
38.174419
 20
12.894606
 30
0.0
 10
38.308909
 20
13.216489
 30
0.0
  0
SPLINE
  5
13f
100
AcDbEntity
  8
0
 62
1
100
AcDbSpline
 70
8
 71
3
 72
8
 73
4
 74
0
 40
0
 40
0
 40
0
 40
0
 40
1
 40
1
 40
1
 40
1
 10
38.308909
 20
13.216489
 30
0.0
 10
38.386385
 20
13.401909
 30
0.0
 10
38.464036
 20
13.472253
 30
0.0
 10
38.590581
 20
13.472253
 30
0.0
  0
SPLINE
  5
140
100
AcDbEntity
  8
0
 62
1
100
AcDbSpline
 70
8
 71
3
 72
8
 73
4
 74
0
 40
0
 40
0
 40
0
 40
0
 40
1
 40
1
 40
1
 40
1
 10
38.590581
 20
13.472253
 30
0.0
 10
38.780915
 20
13.472253
 30
0.0
 10
39.128519
 20
13.797782
 30
0.0
 10
39.202981
 20
14.045517
 30
0.0
  0
SPLINE
  5
141
100
AcDbEntity
  8
0
 62
1
100
AcDbSpline
 70
8
 71
3
 72
8
 73
4
 74
0
 40
0
 40
0
 40
0
 40
0
 40
1
 40
1
 40
1
 40
1
 10
39.202981
 20
14.045517
 30
0.0
 10
39.229764
 20
14.134648
 30
0.0
 10
39.354419
 20
14.231465
 30
0.0
 10
39.495126
 20
14.273169
 30
0.0
  0
SPLINE
  5
142
100
AcDbEntity
  8
0
 62
1
100
AcDbSpline
 70
8
 71
3
 72
8
 73
4
 74
0
 40
0
 40
0
 40
0
 40
0
 40
1
 40
1
 40
1
 40
1
 10
39.495126
 20
14.273169
 30
0.0
 10
39.631538
 20
14.313600
 30
0.0
 10
39.789317
 20
14.435057
 30
0.0
 10
39.851211
 20
14.546572
 30
0.0
  0
SPLINE
  5
143
100
AcDbEntity
  8
0
 62
1
100
AcDbSpline
 70
8
 71
3
 72
8
 73
4
 74
0
 40
0
 40
0
 40
0
 40
0
 40
1
 40
1
 40
1
 40
1
 10
39.851211
 20
14.546572
 30
0.0
 10
40.062161
 20
14.926680
 30
0.0
 10
39.875087
 20
15.266851
 30
0.0
 10
38.897608
 20
16.280694
 30
0.0
  0
LWPOLYLINE
  5
144
100
AcDbEntity
  8
0
 62
1
100
AcDbPolyline
 90
6
 70
0
 10
29.525296
 20
5.523730
 30
0.0
 10
29.525846
 20
5.523730
 30
0.0
 10
29.525846
 20
5.339622
 30
0.0
 10
30.721983
 20
5.360568
 30
0.0
 10
31.918673
 20
5.381515
 30
0.0
 10
31.926939
 20
5.837369
 30
0.0
  0
SPLINE
  5
145
100
AcDbEntity
  8
0
 62
1
100
AcDbSpline
 70
8
 71
3
 72
8
 73
4
 74
0
 40
0
 40
0
 40
0
 40
0
 40
1
 40
1
 40
1
 40
1
 10
38.173313
 20
17.515967
 30
0.0
 10
38.257991
 20
17.694331
 30
0.0
 10
38.337922
 20
17.923279
 30
0.0
 10
38.351353
 20
18.024187
 30
0.0
  0
SPLINE
  5
146
100
AcDbEntity
  8
0
 62
1
100
AcDbSpline
 70
8
 71
3
 72
8
 73
4
 74
0
 40
0
 40
0
 40
0
 40
0
 40
1
 40
1
 40
1
 40
1
 10
38.351353
 20
18.024187
 30
0.0
 10
38.373338
 20
18.189166
 30
0.0
 10
38.335210
 20
18.216705
 30
0.0
 10
37.971566
 20
18.299244
 30
0.0
  0
SPLINE
  5
147
100
AcDbEntity
  8
0
 62
1
100
AcDbSpline
 70
8
 71
3
 72
8
 73
4
 74
0
 40
0
 40
0
 40
0
 40
0
 40
1
 40
1
 40
1
 40
1
 10
37.971566
 20
18.299244
 30
0.0
 10
37.508454
 20
18.404360
 30
0.0
 10
37.355007
 20
18.516055
 30
0.0
 10
37.466103
 20
18.667456
 30
0.0
  0
SPLINE
  5
148
100
AcDbEntity
  8
0
 62
1
100
AcDbSpline
 70
8
 71
3
 72
8
 73
4
 74
0
 40
0
 40
0
 40
0
 40
0
 40
1
 40
1
 40
1
 40
1
 10
37.466103
 20
18.667456
 30
0.0
 10
37.818791
 20
19.148115
 30
0.0
 10
37.844174
 20
19.214476
 30
0.0
 10
37.844236
 20
19.660195
 30
0.0
  0
SPLINE
  5
149
100
AcDbEntity
  8
0
 62
1
100
AcDbSpline
 70
8
 71
3
 72
8
 73
4
 74
0
 40
0
 40
0
 40
0
 40
0
 40
1
 40
1
 40
1
 40
1
 10
37.844236
 20
19.660195
 30
0.0
 10
37.844326
 20
20.076736
 30
0.0
 10
37.829899
 20
20.117542
 30
0.0
 10
37.692101
 20
20.096206
 30
0.0
  0
SPLINE
  5
14a
100
AcDbEntity
  8
0
 62
1
100
AcDbSpline
 70
8
 71
3
 72
8
 73
4
 74
0
 40
0
 40
0
 40
0
 40
0
 40
1
 40
1
 40
1
 40
1
 10
37.692101
 20
20.096206
 30
0.0
 10
37.608535
 20
20.083252
 30
0.0
 10
37.181073
 20
20.054124
 30
0.0
 10
36.742356
 20
20.031716
 30
0.0
  0
SPLINE
  5
14b
100
AcDbEntity
  8
0
 62
1
100
AcDbSpline
 70
8
 71
3
 72
8
 73
4
 74
0
 40
0
 40
0
 40
0
 40
0
 40
1
 40
1
 40
1
 40
1
 10
36.742356
 20
20.031716
 30
0.0
 10
35.625413
 20
19.974684
 30
0.0
 10
35.215661
 20
20.146267
 30
0.0
 10
35.818521
 20
20.418117
 30
0.0
  0
SPLINE
  5
14c
100
AcDbEntity
  8
0
 62
1
100
AcDbSpline
 70
8
 71
3
 72
8
 73
4
 74
0
 40
0
 40
0
 40
0
 40
0
 40
1
 40
1
 40
1
 40
1
 10
35.818521
 20
20.418117
 30
0.0
 10
35.978869
 20
20.490423
 30
0.0
 10
36.200582
 20
20.626618
 30
0.0
 10
36.310756
 20
20.721286
 30
0.0
  0
LWPOLYLINE
  5
14d
100
AcDbEntity
  8
0
 62
1
100
AcDbPolyline
 90
3
 70
0
 10
38.897608
 20
16.280694
 30
0.0
 10
38.018971
 20
17.191855
 30
0.0
 10
38.173313
 20
17.515967
 30
0.0
  0
SPLINE
  5
14e
100
AcDbEntity
  8
0
 62
1
100
AcDbSpline
 70
8
 71
3
 72
8
 73
4
 74
0
 40
0
 40
0
 40
0
 40
0
 40
1
 40
1
 40
1
 40
1
 10
36.296425
 20
21.228403
 30
0.0
 10
36.018010
 20
21.663087
 30
0.0
 10
35.297288
 20
22.337426
 30
0.0
 10
34.960828
 20
22.478007
 30
0.0
  0
SPLINE
  5
14f
100
AcDbEntity
  8
0
 62
1
100
AcDbSpline
 70
8
 71
3
 72
8
 73
4
 74
0
 40
0
 40
0
 40
0
 40
0
 40
1
 40
1
 40
1
 40
1
 10
34.960828
 20
22.478007
 30
0.0
 10
34.815484
 20
22.538735
 30
0.0
 10
34.596711
 20
22.588801
 30
0.0
 10
34.474658
 20
22.588801
 30
0.0
  0
SPLINE
  5
150
100
AcDbEntity
  8
0
 62
1
100
AcDbSpline
 70
8
 71
3
 72
8
 73
4
 74
0
 40
0
 40
0
 40
0
 40
0
 40
1
 40
1
 40
1
 40
1
 10
34.474658
 20
22.588801
 30
0.0
 10
34.289749
 20
22.588801
 30
0.0
 10
34.228320
 20
22.537270
 30
0.0
 10
34.107549
 20
22.280674
 30
0.0
  0
LWPOLYLINE
  5
151
100
AcDbEntity
  8
0
 62
1
100
AcDbPolyline
 90
3
 70
0
 10
36.310756
 20
20.721286
 30
0.0
 10
36.510846
 20
20.893814
 30
0.0
 10
36.296425
 20
21.228403
 30
0.0
  0
SPLINE
  5
152
100
AcDbEntity
  8
0
 62
1
100
AcDbSpline
 70
8
 71
3
 72
8
 73
4
 74
0
 40
0
 40
0
 40
0
 40
0
 40
1
 40
1
 40
1
 40
1
 10
33.770756
 20
22.123575
 30
0.0
 10
33.562699
 20
22.287233
 30
0.0
 10
32.943933
 20
23.426784
 30
0.0
 10
32.943933
 20
23.646584
 30
0.0
  0
SPLINE
  5
153
100
AcDbEntity
  8
0
 62
1
100
AcDbSpline
 70
8
 71
3
 72
8
 73
4
 74
0
 40
0
 40
0
 40
0
 40
0
 40
1
 40
1
 40
1
 40
1
 10
32.943933
 20
23.646584
 30
0.0
 10
32.943933
 20
23.763673
 30
0.0
 10
33.046630
 20
23.788525
 30
0.0
 10
33.722798
 20
23.832343
 30
0.0
  0
SPLINE
  5
154
100
AcDbEntity
  8
0
 62
1
100
AcDbSpline
 70
8
 71
3
 72
8
 73
4
 74
0
 40
0
 40
0
 40
0
 40
0
 40
1
 40
1
 40
1
 40
1
 10
33.722798
 20
23.832343
 30
0.0
 10
36.295508
 20
23.999063
 30
0.0
 10
38.732694
 20
25.139890
 30
0.0
 10
40.076106
 20
26.806703
 30
0.0
  0
SPLINE
  5
155
100
AcDbEntity
  8
0
 62
1
100
AcDbSpline
 70
8
 71
3
 72
8
 73
4
 74
0
 40
0
 40
0
 40
0
 40
0
 40
1
 40
1
 40
1
 40
1
 10
40.076106
 20
26.806703
 30
0.0
 10
40.931321
 20
27.867791
 30
0.0
 10
41.460623
 20
29.221777
 30
0.0
 10
41.567695
 20
30.621111
 30
0.0
  0
SPLINE
  5
156
100
AcDbEntity
  8
0
 62
1
100
AcDbSpline
 70
8
 71
3
 72
8
 73
4
 74
0
 40
0
 40
0
 40
0
 40
0
 40
1
 40
1
 40
1
 40
1
 10
41.567695
 20
30.621111
 30
0.0
 10
41.656945
 20
31.787547
 30
0.0
 10
41.377108
 20
33.897372
 30
0.0
 10
40.982855
 20
35.027526
 30
0.0
  0
SPLINE
  5
157
100
AcDbEntity
  8
0
 62
1
100
AcDbSpline
 70
8
 71
3
 72
8
 73
4
 74
0
 40
0
 40
0
 40
0
 40
0
 40
1
 40
1
 40
1
 40
1
 10
40.982855
 20
35.027526
 30
0.0
 10
40.891957
 20
35.288104
 30
0.0
 10
40.834499
 20
35.518578
 30
0.0
 10
40.855525
 20
35.539604
 30
0.0
  0
SPLINE
  5
158
100
AcDbEntity
  8
0
 62
1
100
AcDbSpline
 70
8
 71
3
 72
8
 73
4
 74
0
 40
0
 40
0
 40
0
 40
0
 40
1
 40
1
 40
1
 40
1
 10
40.855525
 20
35.539604
 30
0.0
 10
40.876550
 20
35.560629
 30
0.0
 10
41.007871
 20
35.600496
 30
0.0
 10
41.147119
 20
35.628351
 30
0.0
  0
SPLINE
  5
159
100
AcDbEntity
  8
0
 62
1
100
AcDbSpline
 70
8
 71
3
 72
8
 73
4
 74
0
 40
0
 40
0
 40
0
 40
0
 40
1
 40
1
 40
1
 40
1
 10
41.147119
 20
35.628351
 30
0.0
 10
41.329356
 20
35.664795
 30
0.0
 10
41.385171
 20
35.654087
 30
0.0
 10
41.346106
 20
35.590869
 30
0.0
  0
SPLINE
  5
15a
100
AcDbEntity
  8
0
 62
1
100
AcDbSpline
 70
8
 71
3
 72
8
 73
4
 74
0
 40
0
 40
0
 40
0
 40
0
 40
1
 40
1
 40
1
 40
1
 10
41.346106
 20
35.590869
 30
0.0
 10
41.316252
 20
35.542561
 30
0.0
 10
41.329624
 20
35.503225
 30
0.0
 10
41.375872
 20
35.503225
 30
0.0
  0
SPLINE
  5
15b
100
AcDbEntity
  8
0
 62
1
100
AcDbSpline
 70
8
 71
3
 72
8
 73
4
 74
0
 40
0
 40
0
 40
0
 40
0
 40
1
 40
1
 40
1
 40
1
 10
41.375872
 20
35.503225
 30
0.0
 10
41.422128
 20
35.503225
 30
0.0
 10
41.645047
 20
35.384551
 30
0.0
 10
41.871415
 20
35.239743
 30
0.0
  0
SPLINE
  5
15c
100
AcDbEntity
  8
0
 62
1
100
AcDbSpline
 70
8
 71
3
 72
8
 73
4
 74
0
 40
0
 40
0
 40
0
 40
0
 40
1
 40
1
 40
1
 40
1
 10
41.871415
 20
35.239743
 30
0.0
 10
42.353360
 20
34.931449
 30
0.0
 10
42.655326
 20
34.496237
 30
0.0
 10
42.794702
 20
33.908007
 30
0.0
  0
SPLINE
  5
15d
100
AcDbEntity
  8
0
 62
1
100
AcDbSpline
 70
8
 71
3
 72
8
 73
4
 74
0
 40
0
 40
0
 40
0
 40
0
 40
1
 40
1
 40
1
 40
1
 10
42.794702
 20
33.908007
 30
0.0
 10
42.930211
 20
33.336080
 30
0.0
 10
42.921247
 20
32.951361
 30
0.0
 10
42.745090
 20
31.810082
 30
0.0
  0
SPLINE
  5
15e
100
AcDbEntity
  8
0
 62
1
100
AcDbSpline
 70
8
 71
3
 72
8
 73
4
 74
0
 40
0
 40
0
 40
0
 40
0
 40
1
 40
1
 40
1
 40
1
 10
42.745090
 20
31.810082
 30
0.0
 10
42.556416
 20
30.587654
 30
0.0
 10
42.553340
 20
29.981327
 30
0.0
 10
42.732966
 20
29.297091
 30
0.0
  0
SPLINE
  5
15f
100
AcDbEntity
  8
0
 62
1
100
AcDbSpline
 70
8
 71
3
 72
8
 73
4
 74
0
 40
0
 40
0
 40
0
 40
0
 40
1
 40
1
 40
1
 40
1
 10
42.732966
 20
29.297091
 30
0.0
 10
42.853607
 20
28.837585
 30
0.0
 10
43.363896
 20
27.830309
 30
0.0
 10
43.476003
 20
27.830309
 30
0.0
  0
SPLINE
  5
160
100
AcDbEntity
  8
0
 62
1
100
AcDbSpline
 70
8
 71
3
 72
8
 73
4
 74
0
 40
0
 40
0
 40
0
 40
0
 40
1
 40
1
 40
1
 40
1
 10
43.476003
 20
27.830309
 30
0.0
 10
43.496323
 20
27.830309
 30
0.0
 10
43.491353
 20
27.864593
 30
0.0
 10
43.465530
 20
27.906376
 30
0.0
  0
SPLINE
  5
161
100
AcDbEntity
  8
0
 62
1
100
AcDbSpline
 70
8
 71
3
 72
8
 73
4
 74
0
 40
0
 40
0
 40
0
 40
0
 40
1
 40
1
 40
1
 40
1
 10
43.465530
 20
27.906376
 30
0.0
 10
43.439819
 20
27.948156
 30
0.0
 10
43.440979
 20
28.017524
 30
0.0
 10
43.467734
 20
28.060715
 30
0.0
  0
SPLINE
  5
162
100
AcDbEntity
  8
0
 62
1
100
AcDbSpline
 70
8
 71
3
 72
8
 73
4
 74
0
 40
0
 40
0
 40
0
 40
0
 40
1
 40
1
 40
1
 40
1
 10
43.467734
 20
28.060715
 30
0.0
 10
43.495448
 20
28.105568
 30
0.0
 10
43.706138
 20
27.963374
 30
0.0
 10
43.959419
 20
27.728884
 30
0.0
  0
SPLINE
  5
163
100
AcDbEntity
  8
0
 62
1
100
AcDbSpline
 70
8
 71
3
 72
8
 73
4
 74
0
 40
0
 40
0
 40
0
 40
0
 40
1
 40
1
 40
1
 40
1
 10
43.959419
 20
27.728884
 30
0.0
 10
44.534348
 20
27.196598
 30
0.0
 10
45.005854
 20
26.970414
 30
0.0
 10
45.623536
 20
26.930725
 30
0.0
  0
SPLINE
  5
164
100
AcDbEntity
  8
0
 62
1
100
AcDbSpline
 70
8
 71
3
 72
8
 73
4
 74
0
 40
0
 40
0
 40
0
 40
0
 40
1
 40
1
 40
1
 40
1
 10
45.623536
 20
26.930725
 30
0.0
 10
46.351351
 20
26.883958
 30
0.0
 10
46.845547
 20
27.021753
 30
0.0
 10
47.260645
 20
27.387132
 30
0.0
  0
SPLINE
  5
165
100
AcDbEntity
  8
0
 62
1
100
AcDbSpline
 70
8
 71
3
 72
8
 73
4
 74
0
 40
0
 40
0
 40
0
 40
0
 40
1
 40
1
 40
1
 40
1
 10
47.260645
 20
27.387132
 30
0.0
 10
47.787354
 20
27.850767
 30
0.0
 10
48.027934
 20
28.404428
 30
0.0
 10
47.573187
 20
28.106466
 30
0.0
  0
SPLINE
  5
166
100
AcDbEntity
  8
0
 62
1
100
AcDbSpline
 70
8
 71
3
 72
8
 73
4
 74
0
 40
0
 40
0
 40
0
 40
0
 40
1
 40
1
 40
1
 40
1
 10
47.573187
 20
28.106466
 30
0.0
 10
47.447375
 20
28.024034
 30
0.0
 10
47.219435
 20
27.982443
 30
0.0
 10
46.895743
 20
27.982443
 30
0.0
  0
SPLINE
  5
167
100
AcDbEntity
  8
0
 62
1
100
AcDbSpline
 70
8
 71
3
 72
8
 73
4
 74
0
 40
0
 40
0
 40
0
 40
0
 40
1
 40
1
 40
1
 40
1
 10
46.895743
 20
27.982443
 30
0.0
 10
46.471662
 20
27.982443
 30
0.0
 10
46.359403
 20
28.014778
 30
0.0
 10
46.038603
 20
28.229388
 30
0.0
  0
SPLINE
  5
168
100
AcDbEntity
  8
0
 62
1
100
AcDbSpline
 70
8
 71
3
 72
8
 73
4
 74
0
 40
0
 40
0
 40
0
 40
0
 40
1
 40
1
 40
1
 40
1
 10
46.038603
 20
28.229388
 30
0.0
 10
45.532940
 20
28.567671
 30
0.0
 10
45.365018
 20
28.922861
 30
0.0
 10
45.365018
 20
29.653730
 30
0.0
  0
SPLINE
  5
169
100
AcDbEntity
  8
0
 62
1
100
AcDbSpline
 70
8
 71
3
 72
8
 73
4
 74
0
 40
0
 40
0
 40
0
 40
0
 40
1
 40
1
 40
1
 40
1
 10
45.365018
 20
29.653730
 30
0.0
 10
45.365018
 20
30.144968
 30
0.0
 10
45.395673
 20
30.275979
 30
0.0
 10
45.586055
 20
30.603472
 30
0.0
  0
SPLINE
  5
16a
100
AcDbEntity
  8
0
 62
1
100
AcDbSpline
 70
8
 71
3
 72
8
 73
4
 74
0
 40
0
 40
0
 40
0
 40
0
 40
1
 40
1
 40
1
 40
1
 10
45.586055
 20
30.603472
 30
0.0
 10
45.809126
 20
30.987187
 30
0.0
 10
46.207039
 20
31.500191
 30
0.0
 10
46.694547
 20
32.033326
 30
0.0
  0
SPLINE
  5
16b
100
AcDbEntity
  8
0
 62
1
100
AcDbSpline
 70
8
 71
3
 72
8
 73
4
 74
0
 40
0
 40
0
 40
0
 40
0
 40
1
 40
1
 40
1
 40
1
 10
46.694547
 20
32.033326
 30
0.0
 10
47.456056
 20
32.866099
 30
0.0
 10
47.761184
 20
33.683945
 30
0.0
 10
47.764457
 20
34.901849
 30
0.0
  0
SPLINE
  5
16c
100
AcDbEntity
  8
0
 62
1
100
AcDbSpline
 70
8
 71
3
 72
8
 73
4
 74
0
 40
0
 40
0
 40
0
 40
0
 40
1
 40
1
 40
1
 40
1
 10
47.764457
 20
34.901849
 30
0.0
 10
47.768042
 20
36.215619
 30
0.0
 10
47.439560
 20
37.142412
 30
0.0
 10
46.674704
 20
37.979285
 30
0.0
  0
SPLINE
  5
16d
100
AcDbEntity
  8
0
 62
1
100
AcDbSpline
 70
8
 71
3
 72
8
 73
4
 74
0
 40
0
 40
0
 40
0
 40
0
 40
1
 40
1
 40
1
 40
1
 10
46.674704
 20
37.979285
 30
0.0
 10
44.732002
 20
40.104909
 30
0.0
 10
41.244094
 20
39.723413
 30
0.0
 10
40.156584
 20
37.266564
 30
0.0
  0
SPLINE
  5
16e
100
AcDbEntity
  8
0
 62
1
100
AcDbSpline
 70
8
 71
3
 72
8
 73
4
 74
0
 40
0
 40
0
 40
0
 40
0
 40
1
 40
1
 40
1
 40
1
 10
40.156584
 20
37.266564
 30
0.0
 10
40.097115
 20
37.132220
 30
0.0
 10
40.013961
 20
37.024527
 30
0.0
 10
39.971926
 20
37.026785
 30
0.0
  0
SPLINE
  5
16f
100
AcDbEntity
  8
0
 62
1
100
AcDbSpline
 70
8
 71
3
 72
8
 73
4
 74
0
 40
0
 40
0
 40
0
 40
0
 40
1
 40
1
 40
1
 40
1
 10
39.971926
 20
37.026785
 30
0.0
 10
39.929903
 20
37.029043
 30
0.0
 10
39.725126
 20
37.240151
 30
0.0
 10
39.517173
 20
37.495869
 30
0.0
  0
SPLINE
  5
170
100
AcDbEntity
  8
0
 62
1
100
AcDbSpline
 70
8
 71
3
 72
8
 73
4
 74
0
 40
0
 40
0
 40
0
 40
0
 40
1
 40
1
 40
1
 40
1
 10
39.517173
 20
37.495869
 30
0.0
 10
38.685258
 20
38.518877
 30
0.0
 10
37.021389
 20
39.543431
 30
0.0
 10
35.527480
 20
39.952083
 30
0.0
  0
SPLINE
  5
171
100
AcDbEntity
  8
0
 62
1
100
AcDbSpline
 70
8
 71
3
 72
8
 73
4
 74
0
 40
0
 40
0
 40
0
 40
0
 40
1
 40
1
 40
1
 40
1
 10
35.527480
 20
39.952083
 30
0.0
 10
34.638234
 20
40.195328
 30
0.0
 10
32.945011
 20
40.285365
 30
0.0
 10
31.946785
 20
40.142253
 30
0.0
  0
SPLINE
  5
172
100
AcDbEntity
  8
0
 62
1
100
AcDbSpline
 70
8
 71
3
 72
8
 73
4
 74
0
 40
0
 40
0
 40
0
 40
0
 40
1
 40
1
 40
1
 40
1
 10
31.946785
 20
40.142253
 30
0.0
 10
30.146619
 20
39.884167
 30
0.0
 10
28.471441
 20
39.218404
 30
0.0
 10
27.524935
 20
38.384980
 30
0.0
  0
SPLINE
  5
173
100
AcDbEntity
  8
0
 62
1
100
AcDbSpline
 70
8
 71
3
 72
8
 73
4
 74
0
 40
0
 40
0
 40
0
 40
0
 40
1
 40
1
 40
1
 40
1
 10
27.524935
 20
38.384980
 30
0.0
 10
26.694053
 20
37.653364
 30
0.0
 10
26.307125
 20
36.926416
 30
0.0
 10
25.760495
 20
35.067765
 30
0.0
  0
SPLINE
  5
174
100
AcDbEntity
  8
0
 62
1
100
AcDbSpline
 70
8
 71
3
 72
8
 73
4
 74
0
 40
0
 40
0
 40
0
 40
0
 40
1
 40
1
 40
1
 40
1
 10
25.760495
 20
35.067765
 30
0.0
 10
25.745345
 20
35.016220
 30
0.0
 10
25.683346
 20
34.993219
 30
0.0
 10
25.622691
 20
35.016502
 30
0.0
  0
SPLINE
  5
175
100
AcDbEntity
  8
0
 62
1
100
AcDbSpline
 70
8
 71
3
 72
8
 73
4
 74
0
 40
0
 40
0
 40
0
 40
0
 40
1
 40
1
 40
1
 40
1
 10
25.622691
 20
35.016502
 30
0.0
 10
25.407110
 20
35.099227
 30
0.0
 10
25.299140
 20
34.135684
 30
0.0
 10
25.340469
 20
32.502410
 30
0.0
  0
SPLINE
  5
176
100
AcDbEntity
  8
0
 62
1
100
AcDbSpline
 70
8
 71
3
 72
8
 73
4
 74
0
 40
0
 40
0
 40
0
 40
0
 40
1
 40
1
 40
1
 40
1
 10
25.340469
 20
32.502410
 30
0.0
 10
25.357504
 20
31.829344
 30
0.0
 10
25.284701
 20
31.410176
 30
0.0
 10
25.116124
 20
31.207052
 30
0.0
  0
SPLINE
  5
177
100
AcDbEntity
  8
0
 62
1
100
AcDbSpline
 70
8
 71
3
 72
8
 73
4
 74
0
 40
0
 40
0
 40
0
 40
0
 40
1
 40
1
 40
1
 40
1
 10
25.116124
 20
31.207052
 30
0.0
 10
25.068987
 20
31.150258
 30
0.0
 10
25.054622
 20
31.064663
 30
0.0
 10
25.084154
 20
31.016883
 30
0.0
  0
SPLINE
  5
178
100
AcDbEntity
  8
0
 62
1
100
AcDbSpline
 70
8
 71
3
 72
8
 73
4
 74
0
 40
0
 40
0
 40
0
 40
0
 40
1
 40
1
 40
1
 40
1
 10
25.084154
 20
31.016883
 30
0.0
 10
25.123919
 20
30.952533
 30
0.0
 10
25.095157
 20
30.952779
 30
0.0
 10
24.973359
 20
31.017986
 30
0.0
  0
SPLINE
  5
179
100
AcDbEntity
  8
0
 62
1
100
AcDbSpline
 70
8
 71
3
 72
8
 73
4
 74
0
 40
0
 40
0
 40
0
 40
0
 40
1
 40
1
 40
1
 40
1
 10
24.973359
 20
31.017986
 30
0.0
 10
24.882901
 20
31.066399
 30
0.0
 10
24.752558
 20
31.224680
 30
0.0
 10
24.683420
 20
31.369660
 30
0.0
  0
SPLINE
  5
17a
100
AcDbEntity
  8
0
 62
1
100
AcDbSpline
 70
8
 71
3
 72
8
 73
4
 74
0
 40
0
 40
0
 40
0
 40
0
 40
1
 40
1
 40
1
 40
1
 10
24.683420
 20
31.369660
 30
0.0
 10
24.575175
 20
31.596655
 30
0.0
 10
24.570993
 20
31.677802
 30
0.0
 10
24.654206
 20
31.953951
 30
0.0
  0
SPLINE
  5
17b
100
AcDbEntity
  8
0
 62
1
100
AcDbSpline
 70
8
 71
3
 72
8
 73
4
 74
0
 40
0
 40
0
 40
0
 40
0
 40
1
 40
1
 40
1
 40
1
 10
24.654206
 20
31.953951
 30
0.0
 10
25.037056
 20
33.224419
 30
0.0
 10
25.106281
 20
33.904199
 30
0.0
 10
24.966745
 20
35.017052
 30
0.0
  0
SPLINE
  5
17c
100
AcDbEntity
  8
0
 62
1
100
AcDbSpline
 70
8
 71
3
 72
8
 73
4
 74
0
 40
0
 40
0
 40
0
 40
0
 40
1
 40
1
 40
1
 40
1
 10
24.966745
 20
35.017052
 30
0.0
 10
24.857313
 20
35.889771
 30
0.0
 10
24.700055
 20
36.439379
 30
0.0
 10
24.354896
 20
37.154115
 30
0.0
  0
LWPOLYLINE
  5
17d
100
AcDbEntity
  8
0
 62
1
100
AcDbPolyline
 90
3
 70
0
 10
34.107549
 20
22.280674
 30
0.0
 10
33.962577
 20
21.972544
 30
0.0
 10
33.770756
 20
22.123575
 30
0.0
  0
SPLINE
  5
17e
100
AcDbEntity
  8
0
 62
1
100
AcDbSpline
 70
8
 71
3
 72
8
 73
4
 74
0
 40
0
 40
0
 40
0
 40
0
 40
1
 40
1
 40
1
 40
1
 10
24.358203
 20
38.055903
 30
0.0
 10
24.614946
 20
38.287853
 30
0.0
 10
24.663576
 20
38.378607
 30
0.0
 10
24.663576
 20
38.626409
 30
0.0
  0
SPLINE
  5
17f
100
AcDbEntity
  8
0
 62
1
100
AcDbSpline
 70
8
 71
3
 72
8
 73
4
 74
0
 40
0
 40
0
 40
0
 40
0
 40
1
 40
1
 40
1
 40
1
 10
24.663576
 20
38.626409
 30
0.0
 10
24.663576
 20
39.245560
 30
0.0
 10
23.972522
 20
39.721999
 30
0.0
 10
22.267444
 20
40.278953
 30
0.0
  0
SPLINE
  5
180
100
AcDbEntity
  8
0
 62
1
100
AcDbSpline
 70
8
 71
3
 72
8
 73
4
 74
0
 40
0
 40
0
 40
0
 40
0
 40
1
 40
1
 40
1
 40
1
 10
22.267444
 20
40.278953
 30
0.0
 10
21.037160
 20
40.680815
 30
0.0
 10
19.602750
 20
40.883101
 30
0.0
 10
18.196167
 20
40.873164
 30
0.0
  0
LWPOLYLINE
  5
181
100
AcDbEntity
  8
0
 62
1
100
AcDbPolyline
 90
3
 70
0
 10
24.354896
 20
37.154115
 30
0.0
 10
24.052830
 20
37.779743
 30
0.0
 10
24.358203
 20
38.055903
 30
0.0
  0
SPLINE
  5
182
100
AcDbEntity
  8
0
 62
1
100
AcDbSpline
 70
8
 71
3
 72
8
 73
4
 74
0
 40
0
 40
0
 40
0
 40
0
 40
1
 40
1
 40
1
 40
1
 10
17.681884
 20
39.435044
 30
0.0
 10
18.171662
 20
39.434995
 30
0.0
 10
18.568703
 20
39.053253
 30
0.0
 10
18.568789
 20
38.582312
 30
0.0
  0
SPLINE
  5
183
100
AcDbEntity
  8
0
 62
1
100
AcDbSpline
 70
8
 71
3
 72
8
 73
4
 74
0
 40
0
 40
0
 40
0
 40
0
 40
1
 40
1
 40
1
 40
1
 10
18.568789
 20
38.582312
 30
0.0
 10
18.568899
 20
38.356060
 30
0.0
 10
18.475508
 20
38.139038
 30
0.0
 10
18.309172
 20
37.979008
 30
0.0
  0
SPLINE
  5
184
100
AcDbEntity
  8
0
 62
1
100
AcDbSpline
 70
8
 71
3
 72
8
 73
4
 74
0
 40
0
 40
0
 40
0
 40
0
 40
1
 40
1
 40
1
 40
1
 10
18.309172
 20
37.979008
 30
0.0
 10
18.142836
 20
37.818978
 30
0.0
 10
17.917186
 20
37.729057
 30
0.0
 10
17.681884
 20
37.729033
 30
0.0
  0
SPLINE
  5
185
100
AcDbEntity
  8
0
 62
1
100
AcDbSpline
 70
8
 71
3
 72
8
 73
4
 74
0
 40
0
 40
0
 40
0
 40
0
 40
1
 40
1
 40
1
 40
1
 10
17.681884
 20
37.729033
 30
0.0
 10
17.446582
 20
37.729057
 30
0.0
 10
17.220932
 20
37.818978
 30
0.0
 10
17.054595
 20
37.979008
 30
0.0
  0
SPLINE
  5
186
100
AcDbEntity
  8
0
 62
1
100
AcDbSpline
 70
8
 71
3
 72
8
 73
4
 74
0
 40
0
 40
0
 40
0
 40
0
 40
1
 40
1
 40
1
 40
1
 10
17.054595
 20
37.979008
 30
0.0
 10
16.888259
 20
38.139038
 30
0.0
 10
16.794869
 20
38.356060
 30
0.0
 10
16.794978
 20
38.582312
 30
0.0
  0
SPLINE
  5
187
100
AcDbEntity
  8
0
 62
1
100
AcDbSpline
 70
8
 71
3
 72
8
 73
4
 74
0
 40
0
 40
0
 40
0
 40
0
 40
1
 40
1
 40
1
 40
1
 10
16.794978
 20
38.582312
 30
0.0
 10
16.795065
 20
39.053253
 30
0.0
 10
17.192106
 20
39.434995
 30
0.0
 10
17.681884
 20
39.435044
 30
0.0
  0
LWPOLYLINE
  5
188
100
AcDbEntity
  8
0
 62
1
100
AcDbPolyline
 90
2
 70
0
 10
18.196167
 20
40.873164
 30
0.0
 10
18.196167
 20
40.873164
 30
0.0
  0
SPLINE
  5
189
100
AcDbEntity
  8
0
 62
1
100
AcDbSpline
 70
8
 71
3
 72
8
 73
4
 74
0
 40
0
 40
0
 40
0
 40
0
 40
1
 40
1
 40
1
 40
1
 10
33.016142
 20
39.435044
 30
0.0
 10
33.251441
 20
39.435161
 30
0.0
 10
33.477146
 20
39.345376
 30
0.0
 10
33.643585
 20
39.185450
 30
0.0
  0
SPLINE
  5
18a
100
AcDbEntity
  8
0
 62
1
100
AcDbSpline
 70
8
 71
3
 72
8
 73
4
 74
0
 40
0
 40
0
 40
0
 40
0
 40
1
 40
1
 40
1
 40
1
 10
33.643585
 20
39.185450
 30
0.0
 10
33.810024
 20
39.025523
 30
0.0
 10
33.903557
 20
38.808561
 30
0.0
 10
33.903598
 20
38.582312
 30
0.0
  0
SPLINE
  5
18b
100
AcDbEntity
  8
0
 62
1
100
AcDbSpline
 70
8
 71
3
 72
8
 73
4
 74
0
 40
0
 40
0
 40
0
 40
0
 40
1
 40
1
 40
1
 40
1
 10
33.903598
 20
38.582312
 30
0.0
 10
33.903708
 20
38.355969
 30
0.0
 10
33.810242
 20
38.138866
 30
0.0
 10
33.643787
 20
37.978821
 30
0.0
  0
SPLINE
  5
18c
100
AcDbEntity
  8
0
 62
1
100
AcDbSpline
 70
8
 71
3
 72
8
 73
4
 74
0
 40
0
 40
0
 40
0
 40
0
 40
1
 40
1
 40
1
 40
1
 10
33.643787
 20
37.978821
 30
0.0
 10
33.477331
 20
37.818776
 30
0.0
 10
33.251539
 20
37.728916
 30
0.0
 10
33.016142
 20
37.729033
 30
0.0
  0
SPLINE
  5
18d
100
AcDbEntity
  8
0
 62
1
100
AcDbSpline
 70
8
 71
3
 72
8
 73
4
 74
0
 40
0
 40
0
 40
0
 40
0
 40
1
 40
1
 40
1
 40
1
 10
33.016142
 20
37.729033
 30
0.0
 10
32.780840
 20
37.729056
 30
0.0
 10
32.555190
 20
37.818978
 30
0.0
 10
32.388853
 20
37.979008
 30
0.0
  0
SPLINE
  5
18e
100
AcDbEntity
  8
0
 62
1
100
AcDbSpline
 70
8
 71
3
 72
8
 73
4
 74
0
 40
0
 40
0
 40
0
 40
0
 40
1
 40
1
 40
1
 40
1
 10
32.388853
 20
37.979008
 30
0.0
 10
32.222517
 20
38.139038
 30
0.0
 10
32.129127
 20
38.356060
 30
0.0
 10
32.129236
 20
38.582312
 30
0.0
  0
SPLINE
  5
18f
100
AcDbEntity
  8
0
 62
1
100
AcDbSpline
 70
8
 71
3
 72
8
 73
4
 74
0
 40
0
 40
0
 40
0
 40
0
 40
1
 40
1
 40
1
 40
1
 10
32.129236
 20
38.582312
 30
0.0
 10
32.129323
 20
39.053253
 30
0.0
 10
32.526364
 20
39.434995
 30
0.0
 10
33.016142
 20
39.435044
 30
0.0
  0
LWPOLYLINE
  5
190
100
AcDbEntity
  8
0
 62
1
100
AcDbPolyline
 90
2
 70
0
 10
17.681884
 20
39.435044
 30
0.0
 10
17.681884
 20
39.435044
 30
0.0
  0
SPLINE
  5
191
100
AcDbEntity
  8
0
 62
1
100
AcDbSpline
 70
8
 71
3
 72
8
 73
4
 74
0
 40
0
 40
0
 40
0
 40
0
 40
1
 40
1
 40
1
 40
1
 10
24.984935
 20
26.752132
 30
0.0
 10
25.038968
 20
26.747617
 30
0.0
 10
25.102089
 20
26.690709
 30
0.0
 10
25.194397
 20
26.587317
 30
0.0
  0
SPLINE
  5
192
100
AcDbEntity
  8
0
 62
1
100
AcDbSpline
 70
8
 71
3
 72
8
 73
4
 74
0
 40
0
 40
0
 40
0
 40
0
 40
1
 40
1
 40
1
 40
1
 10
25.194397
 20
26.587317
 30
0.0
 10
25.373345
 20
26.459482
 30
0.0
 10
25.472498
 20
26.475436
 30
0.0
 10
25.731832
 20
26.295175
 30
0.0
  0
SPLINE
  5
193
100
AcDbEntity
  8
0
 62
1
100
AcDbSpline
 70
8
 71
3
 72
8
 73
4
 74
0
 40
0
 40
0
 40
0
 40
0
 40
1
 40
1
 40
1
 40
1
 10
25.731832
 20
26.295175
 30
0.0
 10
25.875390
 20
26.186771
 30
0.0
 10
26.454307
 20
25.873442
 30
0.0
 10
27.018368
 20
25.598989
 30
0.0
  0
SPLINE
  5
194
100
AcDbEntity
  8
0
 62
1
100
AcDbSpline
 70
8
 71
3
 72
8
 73
4
 74
0
 40
0
 40
0
 40
0
 40
0
 40
1
 40
1
 40
1
 40
1
 10
27.018368
 20
25.598989
 30
0.0
 10
27.638137
 20
25.297435
 30
0.0
 10
28.085492
 20
25.031708
 30
0.0
 10
28.148910
 20
24.927058
 30
0.0
  0
SPLINE
  5
195
100
AcDbEntity
  8
0
 62
1
100
AcDbSpline
 70
8
 71
3
 72
8
 73
4
 74
0
 40
0
 40
0
 40
0
 40
0
 40
1
 40
1
 40
1
 40
1
 10
28.148910
 20
24.927058
 30
0.0
 10
28.600993
 20
24.127181
 30
0.0
 10
28.659590
 20
22.901303
 30
0.0
 10
28.660437
 20
22.360599
 30
0.0
  0
SPLINE
  5
196
100
AcDbEntity
  8
0
 62
1
100
AcDbSpline
 70
8
 71
3
 72
8
 73
4
 74
0
 40
0
 40
0
 40
0
 40
0
 40
1
 40
1
 40
1
 40
1
 10
28.660437
 20
22.360599
 30
0.0
 10
28.495385
 20
20.726962
 30
0.0
 10
28.442347
 20
20.251601
 30
0.0
 10
28.340733
 20
19.511919
 30
0.0
  0
SPLINE
  5
197
100
AcDbEntity
  8
0
 62
1
100
AcDbSpline
 70
8
 71
3
 72
8
 73
4
 74
0
 40
0
 40
0
 40
0
 40
0
 40
1
 40
1
 40
1
 40
1
 10
28.340733
 20
19.511919
 30
0.0
 10
28.159428
 20
18.206489
 30
0.0
 10
28.161674
 20
18.099679
 30
0.0
 10
27.421306
 20
16.772930
 30
0.0
  0
SPLINE
  5
198
100
AcDbEntity
  8
0
 62
1
100
AcDbSpline
 70
8
 71
3
 72
8
 73
4
 74
0
 40
0
 40
0
 40
0
 40
0
 40
1
 40
1
 40
1
 40
1
 10
27.421306
 20
16.772930
 30
0.0
 10
26.717980
 20
15.797798
 30
0.0
 10
26.560210
 20
15.646733
 30
0.0
 10
26.444002
 20
15.834761
 30
0.0
  0
SPLINE
  5
199
100
AcDbEntity
  8
0
 62
1
100
AcDbSpline
 70
8
 71
3
 72
8
 73
4
 74
0
 40
0
 40
0
 40
0
 40
0
 40
1
 40
1
 40
1
 40
1
 10
26.444002
 20
15.834761
 30
0.0
 10
26.288822
 20
16.085857
 30
0.0
 10
25.651139
 20
16.134396
 30
0.0
 10
25.042261
 20
15.941147
 30
0.0
  0
SPLINE
  5
19a
100
AcDbEntity
  8
0
 62
1
100
AcDbSpline
 70
8
 71
3
 72
8
 73
4
 74
0
 40
0
 40
0
 40
0
 40
0
 40
1
 40
1
 40
1
 40
1
 10
25.042261
 20
15.941147
 30
0.0
 10
24.850960
 20
15.880427
 30
0.0
 10
24.393981
 20
16.335118
 30
0.0
 10
23.680760
 20
17.296584
 30
0.0
  0
SPLINE
  5
19b
100
AcDbEntity
  8
0
 62
1
100
AcDbSpline
 70
8
 71
3
 72
8
 73
4
 74
0
 40
0
 40
0
 40
0
 40
0
 40
1
 40
1
 40
1
 40
1
 10
23.680760
 20
17.296584
 30
0.0
 10
23.212150
 20
17.928294
 30
0.0
 10
23.143690
 20
18.062118
 30
0.0
 10
23.142222
 20
18.348302
 30
0.0
  0
SPLINE
  5
19c
100
AcDbEntity
  8
0
 62
1
100
AcDbSpline
 70
8
 71
3
 72
8
 73
4
 74
0
 40
0
 40
0
 40
0
 40
0
 40
1
 40
1
 40
1
 40
1
 10
23.142222
 20
18.348302
 30
0.0
 10
23.136770
 20
19.435589
 30
0.0
 10
22.329073
 20
21.630857
 30
0.0
 10
21.555825
 20
22.658807
 30
0.0
  0
SPLINE
  5
19d
100
AcDbEntity
  8
0
 62
1
100
AcDbSpline
 70
8
 71
3
 72
8
 73
4
 74
0
 40
0
 40
0
 40
0
 40
0
 40
1
 40
1
 40
1
 40
1
 10
21.555825
 20
22.658807
 30
0.0
 10
21.118787
 20
23.239798
 30
0.0
 10
20.926666
 20
23.667172
 30
0.0
 10
20.955000
 20
23.997708
 30
0.0
  0
LWPOLYLINE
  5
19e
100
AcDbEntity
  8
0
 62
1
100
AcDbPolyline
 90
2
 70
0
 10
33.016142
 20
39.435044
 30
0.0
 10
33.016142
 20
39.435044
 30
0.0
  0
SPLINE
  5
19f
100
AcDbEntity
  8
0
 62
1
100
AcDbSpline
 70
8
 71
3
 72
8
 73
4
 74
0
 40
0
 40
0
 40
0
 40
0
 40
1
 40
1
 40
1
 40
1
 10
22.042548
 20
24.676255
 30
0.0
 10
23.445326
 20
25.204962
 30
0.0
 10
24.210113
 20
25.565235
 30
0.0
 10
24.402300
 20
25.787505
 30
0.0
  0
SPLINE
  5
1a0
100
AcDbEntity
  8
0
 62
1
100
AcDbSpline
 70
8
 71
3
 72
8
 73
4
 74
0
 40
0
 40
0
 40
0
 40
0
 40
1
 40
1
 40
1
 40
1
 10
24.402300
 20
25.787505
 30
0.0
 10
24.488582
 20
25.887288
 30
0.0
 10
24.623515
 20
26.123138
 30
0.0
 10
24.701610
 20
26.311160
 30
0.0
  0
SPLINE
  5
1a1
100
AcDbEntity
  8
0
 62
1
100
AcDbSpline
 70
8
 71
3
 72
8
 73
4
 74
0
 40
0
 40
0
 40
0
 40
0
 40
1
 40
1
 40
1
 40
1
 10
24.701610
 20
26.311160
 30
0.0
 10
24.830728
 20
26.622025
 30
0.0
 10
24.894880
 20
26.759645
 30
0.0
 10
24.984935
 20
26.752132
 30
0.0
  0
LWPOLYLINE
  5
1a2
100
AcDbEntity
  8
0
 62
1
100
AcDbPolyline
 90
3
 70
0
 10
20.955000
 20
23.997708
 30
0.0
 10
20.979254
 20
24.275519
 30
0.0
 10
22.042548
 20
24.676255
 30
0.0
  0
LWPOLYLINE
  5
1a3
100
AcDbEntity
  8
0
 62
1
100
AcDbPolyline
 90
2
 70
0
 10
24.984935
 20
26.752132
 30
0.0
 10
24.984935
 20
26.752132
 30
0.0
  0
ENDSEC
  0
SECTION
  2
OBJECTS
  0
DICTIONARY
  5
C
330
0
100
AcDbDictionary
  3
ACAD_GROUP
350
D
  3
ACAD_MLINESTYLE
350
17
  0
DICTIONARY
  5
D
330
C
100
AcDbDictionary
  0
DICTIONARY
  5
1A
330
C
100
AcDbDictionary
  0
DICTIONARY
  5
17
330
C
100
AcDbDictionary
  3
STANDARD
350
18
  0
DICTIONARY
  5
19
330
C
100
AcDbDictionary
  0
ENDSEC
  0
EOF
