<?xml version="1.0" encoding="UTF-8" standalone="no"?>
<!-- Created with Inkscape (http://www.inkscape.org/) -->

<svg
   xmlns:dc="http://purl.org/dc/elements/1.1/"
   xmlns:cc="http://creativecommons.org/ns#"
   xmlns:rdf="http://www.w3.org/1999/02/22-rdf-syntax-ns#"
   xmlns:svg="http://www.w3.org/2000/svg"
   xmlns="http://www.w3.org/2000/svg"
   xmlns:sodipodi="http://sodipodi.sourceforge.net/DTD/sodipodi-0.dtd"
   xmlns:inkscape="http://www.inkscape.org/namespaces/inkscape"
   id="svg5440"
   version="1.1"
   inkscape:version="0.91 r13725"
   width="712.5"
   height="685"
   viewBox="0 0 712.5 685"
   sodipodi:docname="kissing_kids.svg">
  <metadata
     id="metadata5446">
    <rdf:RDF>
      <cc:Work
         rdf:about="">
        <dc:format>image/svg+xml</dc:format>
        <dc:type
           rdf:resource="http://purl.org/dc/dcmitype/StillImage" />
        <dc:title></dc:title>
      </cc:Work>
    </rdf:RDF>
  </metadata>
  <defs
     id="defs5444" />
  <sodipodi:namedview
     pagecolor="#ffffff"
     bordercolor="#666666"
     borderopacity="1"
     objecttolerance="10"
     gridtolerance="10"
     guidetolerance="10"
     inkscape:pageopacity="0"
     inkscape:pageshadow="2"
     inkscape:window-width="1360"
     inkscape:window-height="746"
     id="namedview5442"
     showgrid="false"
     inkscape:zoom="3.8978616"
     inkscape:cx="108.76954"
     inkscape:cy="99.461191"
     inkscape:window-x="1432"
     inkscape:window-y="-8"
     inkscape:window-maximized="1"
     inkscape:current-layer="svg5440" />
  <path
     style="fill:none;stroke:#ff0000;stroke-width:0.33390513;stroke-miterlimit:4;stroke-dasharray:none"
     d="M 64.474609 540.17383 C 61.484238 540.19493 58.52946 540.4871 55.789062 541.05859 C 52.724832 541.69762 46.719057 544.06367 44.181641 545.63281 C 43.037004 546.34063 42.492555 546.48771 40.550781 546.60938 C 37.717047 546.78689 35.030925 547.68731 32.142578 549.42969 C 28.221769 551.7949 27.246802 553.59536 29.087891 555.06445 C 30.207669 555.95794 30.172552 556.3043 28.689453 559.13672 C 28.054404 560.34954 27.6408 561.48444 27.6875 561.88477 C 27.75819 562.49074 27.88685 562.56508 28.84375 562.55078 C 29.435946 562.54178 30.232875 562.44358 30.613281 562.33203 C 31.290286 562.13349 31.303714 562.15513 31.240234 563.35742 C 31.204564 564.03298 31.285994 564.58594 31.421875 564.58594 C 31.563476 564.58594 31.66325 566.73998 31.65625 569.63281 C 31.64285 575.2119 32.040539 577.90506 33.474609 581.94922 C 35.592916 587.92297 40.773815 593.00664 48.396484 596.5918 C 52.07817 598.32342 55.330592 599.34192 57.646484 599.48633 C 60.764703 599.68077 61.28125 599.80925 61.28125 600.39453 C 61.28125 600.95895 59.747647 603.61523 59.421875 603.61523 C 59.037852 603.61523 58.024179 606.02685 57.78125 607.51953 C 57.492194 609.29556 57.629989 611.26188 58.332031 615.34375 C 59.410407 621.61354 59.261907 623.81562 57.464844 628.17969 L 56.605469 630.26562 L 57.167969 631.67773 C 57.589806 632.73717 57.769471 633.94682 57.884766 636.51367 C 58.044077 640.06049 58.428404 641.68257 59.84375 644.7832 C 60.210932 645.58761 60.644336 646.90668 60.806641 647.71484 C 61.04143 648.88397 61.256068 649.27283 61.859375 649.61719 C 62.497136 649.98124 62.679534 650.3487 63.003906 651.93359 C 63.487224 654.29508 63.976709 660.02944 63.974609 663.31445 L 63.970703 665.81055 L 68.074219 665.73633 C 71.801024 665.66883 72.183651 665.61728 72.269531 665.16992 C 72.425463 664.3577 71.751905 663.10582 70.931641 662.68164 C 70.370259 662.39135 70.164062 662.08568 70.164062 661.55078 C 70.164776 660.78688 70.935837 657.78219 72.251953 653.41406 C 72.965451 651.04603 73.07827 650.84729 73.791016 650.72266 C 74.507184 650.59743 74.60064 650.42973 75.144531 648.30078 C 76.597909 642.61168 77.295181 640.23645 77.986328 638.60938 C 78.39516 637.64694 78.811377 636.41725 78.912109 635.87695 C 79.073596 635.01068 79.244038 634.83989 80.349609 634.42969 C 81.039162 634.17384 81.795498 633.7242 82.03125 633.42969 C 82.445189 632.91259 82.510797 632.90906 83.958984 633.33008 C 84.999071 633.63243 85.68346 634.0344 86.189453 634.64062 C 87.186342 635.83501 87.852537 636.16653 89.279297 636.17773 C 90.686617 636.18873 93.972902 635.33259 95.482422 634.5625 C 97.361462 633.60387 97.438926 633.69202 97.228516 636.52344 C 96.819086 642.03251 96.821394 644.31666 97.234375 644.1582 C 97.533355 644.04347 97.619141 644.28039 97.619141 645.2207 C 97.619141 648.01916 99.05422 649.25793 101.35742 648.44531 C 102.9124 647.90057 104.80264 650.12494 104.69727 649.91406 C 105.04091 650.51924 105.38872 652.40043 106.62109 660.2793 L 107 662.70117 L 105.80859 663.73828 C 105.01319 664.43089 104.61719 664.9926 104.61719 665.42773 L 104.61914 665.42773 L 104.61914 666.08008 L 108.85742 666.00586 L 113.09766 665.93164 L 113.12695 664.31641 C 113.15175 662.94363 114.51641 653.16872 114.7168 652.92969 C 114.884 652.73026 124.63789 652.10141 125.35156 652.24414 C 125.89043 652.35191 126.33801 652.72151 126.73047 653.38086 C 127.37008 654.45542 127.97101 655.0293 128.45508 655.0293 C 128.80291 655.0293 129.19349 653.32719 129.78125 649.25 C 130.2094 646.28009 130.165 646.15739 128.6582 646.15039 C 127.67257 646.14539 124 644.85205 124 644.50977 C 124 644.38444 124.64727 644.28983 125.43945 644.29883 C 127.03631 644.31793 127.85217 643.93974 128.29102 642.97656 C 128.53791 642.43468 128.70941 642.36495 129.4043 642.51758 C 130.72145 642.80687 131.75509 642.22143 132.08398 641 C 132.33727 640.05934 132.45138 639.95508 133.23633 639.95508 C 134.35999 639.95508 135.26369 639.31045 135.74023 638.16992 C 136.01475 637.51292 136.28989 637.26367 136.73828 637.26367 C 137.41269 637.26367 138.64436 636.11022 138.9082 635.23242 C 139.0031 634.9166 139.44479 634.57355 139.94336 634.42578 C 140.42671 634.28252 140.98577 633.85216 141.20508 633.45703 C 141.95254 632.11019 141.28968 630.90486 137.82617 627.3125 L 134.71289 624.08398 L 135.25977 622.93555 C 135.55981 622.30355 135.84303 621.49232 135.89062 621.13477 C 135.96852 620.5502 135.83342 620.45262 134.54492 620.16016 C 132.90397 619.7877 132.36026 619.39193 132.75391 618.85547 C 134.00359 617.15235 134.09353 616.91721 134.09375 615.33789 C 134.09407 613.86196 134.04295 613.71737 133.55469 613.79297 C 133.25859 613.83887 131.74396 613.94208 130.18945 614.02148 C 126.23178 614.22356 124.7799 613.61559 126.91602 612.65234 C 127.48418 612.39614 128.26978 611.91356 128.66016 611.57812 L 129.36914 610.9668 L 128.60938 609.78125 C 127.62287 608.24103 125.06913 605.85164 123.87695 605.35352 C 123.36195 605.13834 122.58677 604.96094 122.1543 604.96094 C 121.49911 604.96094 121.28145 605.14353 120.85352 606.05273 L 120.33984 607.14453 L 119.66016 606.60938 C 118.92295 606.02949 116.73047 601.99171 116.73047 601.21289 C 116.73047 600.79801 117.09436 600.70995 119.49023 600.55469 C 128.60613 599.96395 137.24183 595.92165 142.00195 590.01562 C 145.03224 586.25586 146.90772 581.45827 147.28711 576.5 C 147.60335 572.36696 146.6118 564.8912 145.21484 560.88672 C 144.89276 559.96341 144.68917 559.14677 144.76367 559.07227 C 144.83817 558.99777 145.30348 558.85651 145.79688 558.75781 C 146.4426 558.62868 146.64037 558.66662 146.50195 558.89062 C 146.39617 559.06179 146.44355 559.20117 146.60742 559.20117 C 146.77132 559.20117 147.56119 559.62167 148.36328 560.13477 C 150.07096 561.22715 151.14092 562.76924 151.63477 564.85352 C 152.11492 566.88003 152.08316 568.24321 151.45898 572.28711 C 150.79045 576.61855 150.77955 578.76695 151.41602 581.19141 C 151.84349 582.81958 153.6516 586.38867 154.04883 586.38867 C 154.12083 586.38867 154.10322 586.26719 154.01172 586.11914 C 153.92062 585.9711 153.92473 585.72531 154.01953 585.57227 C 154.11773 585.41334 154.86427 585.91718 155.76172 586.74805 C 157.79887 588.6341 159.46956 589.43554 161.6582 589.57617 C 164.23707 589.74188 165.98816 589.25363 167.45898 587.95898 C 169.32527 586.31618 170.17772 584.35439 168.56641 585.41016 C 168.12062 585.70224 167.31296 585.84961 166.16602 585.84961 C 164.66337 585.84961 164.2656 585.73504 163.12891 584.97461 C 161.33719 583.77597 160.74219 582.51742 160.74219 579.92773 C 160.74219 578.18712 160.85081 577.72291 161.52539 576.5625 C 162.3158 575.20288 163.72573 573.38515 165.45312 571.49609 C 168.15138 568.54532 169.23254 565.64744 169.24414 561.33203 C 169.25684 556.67694 168.09293 553.39303 165.38281 550.42773 C 158.49922 542.89599 146.14049 544.24775 142.28711 552.95312 C 142.07639 553.42914 141.78175 553.81073 141.63281 553.80273 C 141.48391 553.79473 140.75832 553.04671 140.02148 552.14062 C 137.07375 548.51579 131.17815 544.88548 125.88477 543.4375 C 122.7339 542.57561 116.73429 542.25658 113.19727 542.76367 C 106.81873 543.67815 100.88306 546.03715 97.529297 548.99023 C 94.585227 551.58257 93.214224 554.15837 91.277344 560.74414 C 91.223664 560.92678 91.003983 561.00828 90.789062 560.92578 C 90.025194 560.63266 89.642623 564.04679 89.789062 569.83398 C 89.849423 572.21886 89.591461 573.7041 88.994141 574.42383 C 88.827121 574.62507 88.776219 574.92836 88.880859 575.09766 C 89.021759 575.32567 88.919849 575.3248 88.488281 575.09375 C 88.167761 574.92221 87.705915 574.36137 87.460938 573.84766 C 87.077393 573.04335 87.062574 572.75582 87.357422 571.77734 C 88.713979 567.27568 88.959264 564.86701 88.464844 560.92383 C 88.077094 557.83152 87.519879 555.88409 86.296875 553.35156 L 85.226562 551.13477 L 86.308594 550.15625 C 87.218314 549.33438 87.390625 549.01281 87.390625 548.13477 C 87.390625 545.94093 84.942007 544.25276 78.900391 542.2793 C 74.541119 540.85538 69.458562 540.13862 64.474609 540.17383 z M 62.652344 545.26953 A 3.1429048 3.0220239 0 0 1 65.794922 548.29102 A 3.1429048 3.0220239 0 0 1 62.652344 551.31445 A 3.1429048 3.0220239 0 0 1 59.509766 548.29102 A 3.1429048 3.0220239 0 0 1 62.652344 545.26953 z M 116.98633 545.26953 A 3.1429048 3.0220239 0 0 1 120.13086 548.29102 A 3.1429048 3.0220239 0 0 1 116.98633 551.31445 A 3.1429048 3.0220239 0 0 1 113.84375 548.29102 A 3.1429048 3.0220239 0 0 1 116.98633 545.26953 z M 88.529297 590.20898 C 88.720753 590.22498 88.944409 590.42662 89.271484 590.79297 C 89.905554 591.24593 90.256881 591.1894 91.175781 591.82812 C 91.684451 592.21223 93.735735 593.32245 95.734375 594.29492 C 97.930405 595.36342 99.515524 596.30497 99.740234 596.67578 C 101.3421 599.50999 101.54973 603.85365 101.55273 605.76953 C 100.9679 611.55801 100.77997 613.24236 100.41992 615.86328 C 99.7775 620.48882 99.785459 620.86728 97.162109 625.56836 C 94.670009 629.02355 94.110979 629.55882 93.699219 628.89258 C 93.149369 628.00287 90.889862 627.83088 88.732422 628.51562 C 88.054582 628.73077 86.435366 627.11966 83.908203 623.71289 C 82.247775 621.47455 82.0052 621.00037 82 619.98633 C 81.98068 616.13374 79.118763 608.35523 76.378906 604.71289 C 74.830349 602.65426 74.149605 601.13994 74.25 599.96875 L 74.335938 598.98438 L 78.103516 597.56445 C 83.073991 595.69108 85.783865 594.41452 86.464844 593.62695 C 86.770566 593.27339 87.248676 592.4377 87.525391 591.77148 C 87.982893 590.66999 88.210203 590.18236 88.529297 590.20898 z "
     id="path6000-6" />
</svg>
