<?xml version="1.0" encoding="UTF-8" standalone="no"?>
<!-- Created with Inkscape (http://www.inkscape.org/) -->

<svg
   xmlns:dc="http://purl.org/dc/elements/1.1/"
   xmlns:cc="http://creativecommons.org/ns#"
   xmlns:rdf="http://www.w3.org/1999/02/22-rdf-syntax-ns#"
   xmlns:svg="http://www.w3.org/2000/svg"
   xmlns="http://www.w3.org/2000/svg"
   xmlns:sodipodi="http://sodipodi.sourceforge.net/DTD/sodipodi-0.dtd"
   xmlns:inkscape="http://www.inkscape.org/namespaces/inkscape"
   id="svg4241"
   version="1.1"
   inkscape:version="0.91 r13725"
   width="612"
   height="600"
   viewBox="0 0 612 600"
   sodipodi:docname="lionel.svg">
  <sodipodi:namedview
     pagecolor="#ffffff"
     bordercolor="#666666"
     borderopacity="1"
     objecttolerance="10"
     gridtolerance="10"
     guidetolerance="10"
     inkscape:pageopacity="0"
     inkscape:pageshadow="2"
     inkscape:window-width="1360"
     inkscape:window-height="746"
     id="namedview4243"
     showgrid="false"
     inkscape:zoom="0.55625733"
     inkscape:cx="376.86765"
     inkscape:cy="237.89741"
     inkscape:window-x="1432"
     inkscape:window-y="-8"
     inkscape:window-maximized="1"
     inkscape:current-layer="svg4241" />
  <metadata
     id="metadata4247">
    <rdf:RDF>
      <cc:Work
         rdf:about="">
        <dc:format>image/svg+xml</dc:format>
        <dc:type
           rdf:resource="http://purl.org/dc/dcmitype/StillImage" />
        <dc:title></dc:title>
      </cc:Work>
    </rdf:RDF>
  </metadata>
  <defs
     id="defs4245" />
  <path
     id="path4791"
     d="M381.89844 61.933594L376.949617813 62.2981943906L372.8673175 63.475343375L369.657998438 65.4621839219L367.32812 68.255859L365.081248437 71.2299698125L362.137445 73.93634525L358.844644063 76.1032588125L355.55078 77.458984L350.8718975 78.0795065L345.08594 78.09375L341.408264844 77.71776825L338.13813125 76.965957L334.554304531 75.6169095L329.93555 73.449219L322.018485469 69.9484629219L314.85311125 67.763573125L307.655713906 66.7183812656L299.64258 66.636719L292.778856094 67.1615851719L290.194531348 67.7061094238L287.92222875 68.559018875L285.772196309 69.8105568418L283.554682031 71.5509666406L278.1582 76.859375L272.235044219 82.3895244531L269.354628691 84.5557956465L266.49490625 86.341591875L263.630815527 87.7609586816L260.737295156 88.8279416094L257.78928377 89.5565862012L254.76172 89.960938L249.42122125 89.981630375L245.06641 89.162109L240.496832969 88.1781087656L235.42200625 87.929889375L230.523873906 88.4022720469L226.48438 89.580078L223.334548594 91.4443985781L220.83793625 94.014457625L218.806633281 97.5435973594L217.05273 102.28516L216.0540075 105.07529625L214.8946425 107.4341225L213.51061125 109.471885L211.83789 111.29883L208.964037031 113.646647344L205.72747375 115.28299875L201.466041094 116.456073281L195.51758 117.41406L190.395288438 118.351987969L186.2765925 119.78972625L182.619210313 121.980548906L178.88086 125.17773L175.517043438 128.840560313L173.25784 132.52266L171.879481562 136.708077188L171.1582 141.88086L170.23447625 147.72612625L168.61719 152.375L165.922480781 156.705235937L161.50233375 162.8716275L156.243617344 169.684725313L151.0332 175.95508L147.9649375 180.048725L145.62305 184.125L144.67024125 186.575141563L144.2271325 189.0203125L144.22661 192.325932188L144.60156 197.35742L145.16012875 206.26680125L145.37891 214.8125L145.283394063 219.750922969L144.71232 223.31121625L143.188408438 227.185138906L140.23438 233.06445L136.451967656 240.893065938L133.96571375 247.276415L132.601585469 252.751536563L132.18555 257.85547L132.349999688 260.647601406L132.9663675 263.31371125L134.219181563 266.425015469L136.29297 270.55273L139.290234062 277.001600781L140.074741523 279.65240623L140.3897225 282.11564125L140.240094414 284.537442988L139.630774688 287.063948594L137.05273 293.01562L135.323328906 296.667254688L134.24870125 299.7381175L133.642982969 302.920876563L133.32031 306.9082L133.310166602 312.332856309L133.852259688 317.747311094L134.94811293 323.155814395L136.59925 328.56261625L138.80719457 333.971966699L141.573470312 339.388115781L144.899600898 344.815313535L148.78711 350.25781L153.949505625 357.231191094L156.618875 361.79284875L157.199032266 363.594441934L157.372361875 365.303297031L156.78711 369.12305L156.287161719 371.705723066L156.121135 374.041402031L156.321873281 376.214604043L156.92222 378.30984625L157.955018594 380.411645801L159.4531125 382.604519844L163.97656 387.60156L169.34086625 392.69629625L173.69727 396.45508L177.33594 399.26172L175.15039 405.55859L172.73215625 411.76440625L169.98828 417.84375L167.4373825 423.4496925L165.48242 428.51562L164.781263047 430.990757285L164.477721875 433.148465156L164.641924766 435.127258887L165.344 437.06565375L166.654075859 439.10216502L168.642280625 441.375307969L174.93359 447.18555L182.187339375 453.899188125L184.754958828 456.706578281L186.706105 459.2818875L188.108050547 461.725769531L189.028068125 464.138878125L189.533430391 466.621867031L189.69141 469.27539L189.890037227 472.98289168L190.510230313 475.988506562L191.618111367 478.341666914L193.2798025 480.091805L195.56142582 481.288353086L198.529103438 481.980743438L202.248957461 482.21840832L206.78711 482.05078L215.22656 481.44922L218.97461 484.83594L222.4654925 487.59529625L225.59375 489.47266L229.10897875 490.36444875L233.53125 490.75586L236.21225 490.659824375L238.3974475 490.2641225L240.43079625 489.471711875L242.65625 488.18555L246.918689687 485.132767656L251.0407875 481.69038375L254.152256562 478.639625469L255.38281 476.76172L249.00586 456.40039L244.27296 441.419281563L240.5113475 428.1513325L238.02872875 417.762307188L237.13281 411.41797L236.94139125 409.701064375L236.3471325 407.8796875L233.83008 403.63867L227.390743906 394.413410781L221.15063875 384.89695375L215.872811719 376.289929844L212.32031 369.79297L210.30294125 365.361151563L209.1109025 361.4977825L208.36976 356.484644688L207.70508 348.60352L207.12783375 338.69041375L207.21289 334.24219L209.098475 334.31961125L212.84961 335.28711L215.740327031 336.28433125L217.43342625 337.307885L218.479637344 338.87915625L219.42969 341.51953L221.61523 346.90039L223.185955 347.13787375L226.00195 346.6543L227.784947187 346.033499844L229.252065 345.19816125L230.464242813 344.104562031L231.48242 342.70898L233.596084531 338.557921875L234.90366875 334.030045L235.582661094 328.199545625L235.81055 320.14062L236.61719 283.63867L236.94738875 262.4388675L236.603879844 256.641631562L235.86914 251.82617L234.859311719 245.658540313L234.45816375 240.8085725L234.667776406 237.374630938L235.49023 235.45508L237.83090625 234.6813675L241.92188 234.35938L245.746853594 234.040644844L249.19462875 233.21238125L251.687179531 232.066502031L252.394612676 231.434429316L252.64648 230.79492L253.142511875 229.515026406L254.502748125 227.937815L259.0486775 224.39713L264.749955625 221.1842475L267.554377812 220.016789219L270.07227 219.31055L271.985551875 219.138576406L273.8095125 219.68545625L276.250201875 221.310995469L280.01367 224.375L285.58456625 228.7087575L289.48633 231.17773L291.052310156 231.720364531L292.33533875 231.72668625L293.763685469 231.098179844L295.76562 229.73633L299.24905 227.59329625L302.61719 226.06836L304.417533906 225.544469219L305.60011125 225.46570625L306.470915469 225.882117656L307.33594 226.84375L311.31055 231.97656L313.120914121 234.04032127L314.825774219 235.381858906L316.468038145 235.987348652L318.09061375 235.84296625L319.736408887 234.934887441L321.448331406 233.249287969L323.26928916 230.772343574L325.24219 227.49023L328.07633125 222.96820875L330.5332 219.88672L331.766500469 218.804072344L332.61269125 218.37568625L333.337106406 218.560239531L334.20508 219.31641L335.25344125 220.58473125L335.68945 221.54883L337.15674375 223.56668375L340.68359 227.36914L343.214448984 229.834262422L345.40774375 231.614626875L347.463597266 232.720436641L349.5821325 233.161895L351.963472422 232.949205234L354.80774 232.092570625L362.68555 228.48828L367.830572187 225.823669063L371.4057675 223.68529L373.797121563 221.813640938L375.39062 219.94922L376.99903875 217.12352L377.66797 215.03711L378.012728281 213.332565625L378.432357402 213.057401797L379.00675875 213.162435L380.589694844 214.499466875L382.70117 217.31641L385.843205469 221.546858125L387.267517754 222.704076484L388.83145625 223.259605L390.71309334 223.241179141L393.090501406 222.676534375L400.04492 220.01953L409.99414 215.91602L412.64453 218.97852L417.140968906 224.08356875L419.93153375 226.7607325L422.045394219 227.7870225L424.51172 227.93945L428.405194844 227.591748281L433.01802375 226.75257625L437.323013281 225.646001094L440.29297 224.49609L442.70589375 221.99836625L446.10938 217.33594L449.864158594 212.426081719L453.73239625 208.77294875L457.532288281 206.516546406L459.349790723 205.955870879L461.08203 205.79688L464.73122125 206.2853625L469.17188 207.33789L472.090186563 208.288525625L473.9532 209.47711L475.501723438 211.629286875L477.47656 215.4707L480.24206125 221.95113375L482.25781 228.1543L483.049102813 231.75077125L483.2425575 234.76336L482.784948438 238.56467875L481.62305 244.52734L479.9946525 255.03083875L479.46289 265.84375L479.502088281 271.791306094L479.76348625 275.53678625L480.376051094 277.996783281L481.46875 280.08789L484.110637656 284.97468875L485.018156465 287.451986719L485.70632125 290.237635L486.593376719 297.59123625L487.10938 308.75L487.8957425 323.6561525L488.534575 327.034765625L489.52344 329.2832L490.571974844 330.855075781L491.63577125 331.87140875L492.892912031 332.454967344L494.52148 332.72852L497.363535313 332.45141L500.270745 331.005485L503.506447187 328.208675L507.33398 323.87891L510.519869375 320.192762188L512.800175 318.1131275L514.366428125 317.506226562L514.941638516 317.713245195L515.41016 318.23828L515.789175586 319.438685488L515.808909063 321.235741406L514.78479 326.56631125L512.366323437 334.123002969L508.58203 343.79883L507.150405937 347.513791406L506.5894625 350.70834375L506.826560313 355.075091719L507.78906 362.30664L508.00247 364.608553594L507.8700325 366.52605375L507.33382875 368.387069531L506.33594 370.51953L499.77344 384.93359L496.03101375 392.9446425L493.35742 397.46875L492.343036875 398.981264844L491.587625 401.41033125L490.29102 411.61523L488.8162675 422.54462375L487.833865313 427.048732344L486.66797 431.01953L485.224177402 435.965394512L484.246979844 440.786671719L483.730471426 445.342625879L483.66874625 449.49252125L484.055898418 453.09562209L484.886022031 456.011192656L486.153211191 458.098497207L487.85156 459.2168L492.671650938 459.882026719L501.5680725 460.66504375L518.66992 461.58984L523.212395937 461.206061719L524.965341602 460.675568848L526.4368125 459.87421125L527.674848711 458.768142246L528.727490313 457.323515156L530.46875 453.2832L532.9342525 447.51703625L536.70312 440.25586L540.336982344 433.48819875L543.12378625 427.619045L544.914614531 422.98968625L545.56055 419.94141L544.6145625 417.16712L542.31055 413.23633L539.94218125 409.12636375L539.512890156 407.631873906L539.55469 406.43164L540.304287344 405.073212656L541.96488625 402.89007875L547.03711 397.25391L554.00586 390.125L553.38477 383.01172L553.176021562 378.816659844L553.4161725 374.53015125L554.223139687 369.053762031L555.71484 361.28906L557.306678594 353.132462969L558.04145375 348.11950125L558.049447031 344.782138906L557.46094 341.65234L556.731156875 335.61338625L556.8209625 328.375535L557.626264375 321.57247375L558.2646975 318.844516719L559.04297 316.83789L564.14844 307.85352L568.212759219 299.9011625L571.38539125 291.5785L573.540132656 283.2790875L574.55078 275.39648L574.753082969 270.320905156L574.52491875 267.00773375L573.623162656 264.124287969L571.80469 260.33789L569.65787668 255.716067793L567.964095938 251.283097344L566.725394102 247.05336916L565.9438175 243.04127375L565.621412461 239.261201621L565.760225313 235.727543281L566.362302383 232.454689238L567.42969 229.45703L568.884163008 224.734618066L569.684901563 218.764014531L569.874958711 212.014809043L569.4973875 204.95659125L568.595240977 198.058950801L567.211572188 191.791477344L565.38943418 186.623760527L564.327393296 184.599057625L563.17188 183.02539L560.80852875 181.141215L557.40234 179.12891L554.193674512 177.235775137L551.172455469 174.911507344L548.348987754 172.169883066L545.73357625 169.02467875L543.33652584 165.48967084L541.168141406 161.578635781L539.238727832 157.30535002L537.55859 152.68359L535.162663906 145.901232031L532.65521375 140.20527625L529.753749219 135.027287344L526.17578 129.79883L522.483752344 125.283199844L518.23924375 121.29971625L512.625600781 117.176629531L504.82617 112.24219L490.829355 103.285089719L479.9211 95.30251375L475.668734062 91.7115236523L472.24077 88.4059861563L469.654628438 85.3998417695L467.92773 82.707031L466.802468389 80.8385119382L465.427176172 79.1456470059L461.955518125 76.2922187969L457.570792266 74.1574249082L452.331035 72.751943875L446.294282734 72.0864542324L439.518571875 72.1716345156L432.061938828 73.0181632598L423.98242 74.636719L416.56320625 76.0035305L409.93555 76.599609L405.200377812 76.2724589688L403.364539258 75.7906519102L401.823795 75.06022925L400.533591992 74.0538453086L399.449377188 72.7441544063L397.7207 69.105469L396.854085781 66.9802796562L395.84946125 65.54484525L394.411803594 64.5000742188L392.24609 63.546875L387.54257125 62.413419375L381.89844 61.933594L381.89844 61.933594M455.84961 300.27539L451.595533906 300.443654375L446.84218375 301.0489625L434.63672 303.65234L425.430585 305.74454L418.76953 306.99023L415.990022188 307.52388875L413.581155 308.5403225L410.842647812 310.43552L407.07422 313.60547L400.22852 319.57617L403.77734 320.67578L407.63113 321.587225469L411.5651625 321.68865125L416.63214125 320.899363906L423.88477 319.13867L443.221363281 314.224619844L449.825391777 312.774865801L455.04283375 311.91462125L459.365883379 311.582382793L463.286734844 311.716647031L471.89062 313.13867L479.4635125 314.56184L482.61328 314.90039L478.1543 308.86328L473.69336 303.25781L465.81836 301.53125L460.7180275 300.62097125L455.84961 300.27539L455.84961 300.27539M272.98047 302.16992L270.0746375 302.4788175L265.87891 303.36523L262.041628125 304.344645156L259.230605 305.38733125L256.948811875 306.725609219L254.69922 308.5918L251.95984125 311.3244575L250.82031 312.88281L251.6920025 313.91482625L253.78711 315.38281L255.60677875 316.310082031L257.5328425 316.73300625L260.266705 316.712277344L264.50977 316.30859L273.04494875 315.823516875L282.1347675 316.0312225L290.4301525 316.851734375L296.58203 318.20508L306.25 322.30273L308.913646406 323.504463437L311.45093375 324.2494675L314.348204219 324.639267812L318.0918 324.77539L324.526455 325.27026875L329.75781 326.5293L333.488284219 327.816420781L335.55381375 328.21574125L336.071736855 328.078554395L336.304838906 327.714711094L336.0918 326.30078L335.109635625 323.675102344L333.846915 321.29551375L332.267671875 319.104105781L330.33594 317.04297L328.642829219 315.649423438L326.78721125 314.75335L324.233300156 314.175426562L320.44531 313.73633L312.077476094 312.696960781L304.08388375 311.22144875L296.944832031 309.414022344L291.14062 307.37891L285.0915275 305.0966775L279.11133 303.24805L275.6442375 302.42953125L272.98047 302.16992L272.98047 302.16992M445.58984 322.87891L438.2025 323.298020625L430.0357375 324.4242725L422.22659375 326.061045625L415.91211 328.01172L410.338087812 330.651365156L405.20782 333.88736625L401.073739688 337.321774219L399.552905195 338.989021699L398.48828 340.55664L397.959541406 341.610407344L398.009571934 341.792661504L398.38152625 341.69523375L404.77344 337.75977L410.05859 334.74219L409.78583875 335.88171625L408.37305 338.62109L405.48828 344.69727L405.559047656 345.30429125L406.48898625 344.8080025L411.10938 340.36328L415.259014844 336.320709844L418.12906625 334.30248625L419.19799123 334.001294355L420.083512031 334.144737031L420.831125879 334.712330254L421.48633 335.68359L423.451866719 338.023099688L426.49529125 340.38897L429.771540156 342.220022813L432.43555 342.95508L435.020108125 342.412615937L437.459335 340.8262175L439.684031875 338.257375313L441.625 334.76758L443.66406 330.25391L447.85352 330.75L451.589711719 331.250387656L453.46565875 331.77629125L453.841988262 332.126146191L453.916393906 332.575181719L453.37695 333.89453L452.802265 335.39844375L452.86133 336.32227L453.714084023 336.487311445L455.451183438 336.385271563L460.4537175 335.5992375L465.619530313 334.402747187L468.69922 333.23438L469.475752812 332.468030312L469.4985225 331.6857675L468.622615937 330.565505938L466.70312 328.78516L462.86125625 326.084489219L458.2466975 324.25175125L452.58203 323.209155156L445.58984 322.87891L445.58984 322.87891M393.93945 327.43359L392.039367188 328.102516719L389.58018 329.66742625L387.124360313 331.745300156L385.23438 333.95312L384.199310938 335.972359902L383.35498 338.619334219L382.235075 345.83540875L381.86775 355.679188906L382.24609 368.22852L383.208589375 384.8581025L384.2462725 394.0003L385.012247031 396.862545781L386.059744375 399.171645L389.34961 403.88867L392.98539375 408.47822625L394.70312 410.18164L394.1349375 407.8949725L392.27539 402.89062L390.547666621 397.917594336L389.151323594 392.462279062L388.087410332 386.537216758L387.35697625 380.15495L386.961070762 373.328021367L386.900743281 366.068973438L387.177043223 358.390348789L387.79102 350.30469L388.419080313 344.558760313L389.15467 340.568155L390.245542188 337.356949687L391.93945 333.94922L394.0086725 329.686855L394.55664 327.60156L393.93945 327.43359L393.93945 327.43359M279.39258 328.35352L274.00391 331.84766L270.216574844 334.464160156L267.71127375 336.53688125L266.658443281 337.901221719L266.729965957 338.26631123L267.22852 338.39258L270.26177875 339.4444325L275.98438 341.97266L282.09868125 344.60113625L282.753163281 344.487759219L282.31055 343.54883L281.30753 341.2028675L280.73828 338.37305L280.658491094 336.553988125L281.01537375 335.5776525L282.127752031 335.135733125L284.31445 334.91992L286.507116406 334.844875781L287.88339375 335.21498375L288.920024219 336.321837344L290.09375 338.45703L292.3208375 342.138712344L294.698195 344.67212875L297.323135 346.135105781L300.29297 346.60547L303.008668906 346.399095781L305.40027875 345.71610875L307.699659219 344.460712344L310.13867 342.53711L313.202149844 340.487837656L316.97579625 338.87217875L320.736154531 337.935177969L323.75977 337.92188L326.285535937 339.24083625L329.43893 341.87149L332.489559063 345.12157625L334.70703 348.29883L335.715048125 349.958402813L335.967855469 350.146415742L336.0532225 349.9027125L334.7207 344.55273L332.8530275 339.88934875L331.784936563 338.093647969L330.74219 336.87695L328.093122715 335.081895488L324.512485469 333.446952031L320.116508926 331.996400996L315.02142375 330.75452375L309.343460605 329.74560166L303.198850156 328.993916094L296.703823066 328.523748418L289.97461 328.35938L279.39258 328.35352L279.39258 328.35352M340.62695 333.20703L340.5293 333.24805L341.1693675 335.36385L343.26172 339.89648L345.357349219 345.071688281L347.00411375 351.11072875L348.080951406 357.463544844L348.4668 363.58008L348.6984975 365.7042225L348.949382813 366.238851563L349.25586 366.30273L349.921883438 363.248250937L350.460885 356.809815L350.706944063 349.824869062L350.49414 345.13086L348.950913594 342.343613438L345.86595625 338.32284L342.628293281 334.725119062L341.386267598 333.602584336L340.62695 333.20703L340.62695 333.20703M410.70703 413.02734L410.553040313 413.257373594L410.7059675 414.08955125L411.97461 417.57031L413.50107375 422.0131325L414.14844 425.34375L413.998606992 427.361665293L413.523332813 429.332506719L412.736053477 431.236898848L411.650205 433.05546625L408.636544688 436.357625156L404.58984 439.08398L402.773103906 440.275637031L402.804444434 440.505503809L403.35663125 440.50620375L405.706665469 439.864526094L409.18945 438.43945L412.89689 436.22759875L415.34961 433.91797L416.146757383 432.371633145L416.668258438 430.617604531L416.896675 426.65419875L416.059566563 422.363206094L414.18164 418.08008L411.89379 414.3639025L410.70703 413.02734L410.70703 413.02734M326.98828 418.05859L326.69336 418.24219L325.229294531 420.976305469L323.70122875 425.59718375L322.503701094 430.697302656L322.03125 434.86914L322.244155938 437.8175325L322.91609 440.030445L324.164646563 441.748155L326.10742 443.21094L328.9438475 443.837352344L333.355845 443.87709875L337.85701 443.402613281L340.96094 442.48633L341.584470156 442.033014844L341.52533625 441.74757125L339.08203 441.54102L336.03032207 441.287518848L333.348003437 440.586888906L331.046556836 439.450966699L329.137465 437.89158875L327.632210664 435.920591582L326.542276562 433.549811719L325.87914543 430.791085684L325.6543 427.65625L325.93693125 423.237195L326.62109 419.89844L326.98828 418.05859L326.98828 418.05859M390.79883 430.73242L390.54321875 431.0288825L390.44336 431.77734L390.165115469 432.895608652L389.39350125 434.245682969L386.74888 437.27676875L383.26692875 440.141637656L379.70508 442.11133L375.101220156 443.358578594L370.38291875 443.61410875L365.503432969 442.875572031L360.41602 441.14062L355.284823906 439.319587031L349.16206125 437.67040625L343.320085469 436.493637344L339.03125 436.08984L338.899288101 436.19544926L339.243244648 436.476214707L341.137744063 437.471895156L348.204905 440.56062125L356.694028438 443.894914219L363.06641 446.01367L366.75589457 446.711589922L370.376775938 446.981836875L373.863358086 446.839597891L377.149945 446.30006L380.170840664 445.378410234L382.860349063 444.089835625L385.15277418 442.449523203L386.98242 440.47266L388.859768281 437.545457812L390.31382125 434.5948725L391.112428594 432.174488437L391.02344 430.83789L390.79883 430.73242L390.79883 430.73242M400.40625 440.71289L399.39844 440.89062L399.00217125 441.25883125L399.94922 441.44141L401.023295 441.32975125L401.14844 440.96094L400.40625 440.71289L400.40625 440.71289M390.95508 447.39062L388.5590925 447.797505L384.48828 448.9375L380.315366563 450.076056719L377.1533875 450.50764375L373.481119687 450.276228906L367.77734 449.42578L358.54737125 448.3392675L350.01953 447.89258L345.322012031 447.975050625L342.11360125 448.44877L339.071534844 449.673201875L334.87305 452.00781L329.0591925 454.91649875L326.695965 455.795784844L325.10547 456.11914L323.716189219 456.328704219L322.20819375 456.95573625L318.80664 459.47852L307.89648 468.37305L304.186806094 471.319789531L301.80967125 473.57058625L300.390003281 475.542437344L299.55273 477.65234L299.025960625 479.80110625L299.0169275 481.4332575L299.628335625 483.1134275L300.96289 485.40625L302.98901625 489.04684875L304.35938 492.16016L305.64665 494.42493125L307.47266 496.02539L308.98309125 496.803525313L310.24561 497.03555L316.79688 495.6875L321.900156875 494.147103281L325.8491275 492.17852125L328.398436875 489.940503594L329.071545156 488.770065684L329.30273 487.5918L329.558305313 486.42312125L330.687715 485.5225225L333.234984688 484.6238475L337.74414 483.46094L346.74755125 480.8392625L356.54102 477.42773L363.599814219 474.908689687L368.63080625 473.72371L372.671102656 473.739375312L376.75781 474.82227L382.32829125 476.21027375L390.26953 477.62305L397.84343125 479.03215625L402.5293 480.41211L403.981620938 481.048535937L405.2822675 481.29889L406.682015312 481.175189063L408.43164 480.68945L410.260867813 480.158577187L411.4585 480.1114675L412.378542187 480.625811563L413.375 481.7793L415.0625 484.56055L416.75263 485.8507425L420.78711 488.0918L423.8909575 489.539640625L426.7228325 490.494645L429.72405375 491.072931875L433.33594 491.39062L438.901392344 491.437468438L440.699748613 491.122141914L441.93176125 490.5087225L442.66485748 489.543015898L442.966464531 488.170827813L442.54492 483.99023L441.371072813 479.080705781L439.6786775 475.21778125L437.074188438 471.728876094L433.16406 467.94141L428.12757 463.6873275L423.8571525 460.5410925L420.29780625 458.46610875L417.39453 457.42578L414.50216625 456.40162L411.43359 454.74023L407.56917625 452.92702L402.76367 451.53906L398.0419925 450.2520775L394.37891 448.68164L392.58971125 447.6932975L390.95508 447.39062L390.95508 447.39062M398.36328 491.49414L394.345369375 491.781123906L390.1362275 492.46253375L385.875571875 493.528886719L381.70312 494.9707L376.996511719 496.501930781L372.69665375 497.07009875L368.355108906 496.684759844L363.52344 495.35547L357.8241275 493.99466L351.28906 493.61914L340.077775 494.33436125L335.948900313 494.858061719L335.050946992 495.080584824L335.23438 495.24609L348.00977 497.1543L358.26505375 499.06433125L366.26172 501.18359L371.68325125 502.7194075L373.799871094 503.0087L375.38672 502.95312L377.153701094 502.460990156L379.15454625 501.38884875L386.4082 495.86328L387.923777031 494.943080469L390.08795875 494.40562375L399.13867 494.0918L406.69618375 493.8785775L408.160229219 493.6080275L408.325405059 493.430594766L408.11719 493.22461L406.209849844 492.410785781L403.90434875 491.85386375L398.36328 491.49414L398.36328 491.49414M462.31055 491.57227L462.21484 491.59375L459.296655781 495.252240313L454.41496875 502.47879L448.704702344 511.529422188L443.30078 520.66016L437.667939531 530.215624375L431.59169625 539.8031175L425.068724844 549.427529375L418.0957 559.09375L413.637248125 564.96869875L410.5485775 568.42657L407.647043125 570.57447625L403.75 572.51953L395.20913125 576.081526875L387.4838425 578.286215L379.3179025 579.395648125L369.45508 579.67188L362.224190625 579.558794844L357.114215 579.20368375L352.863146875 578.458158281L348.20898 577.17383L339.315672188 574.033899062L331.597575 570.373995L325.046020312 566.189203437L319.65234 561.47461L312.8343075 553.785736875L304.585725 543.3849575L295.156095 530.599316875L284.79492 515.75586L272.04102 497.57812L273.25977 502.72852L275.338421875 508.427470879L278.449709375 514.847497656L282.568101562 521.951691543L287.6680675 529.70314375L293.72407625 538.064945488L300.710596875 547.000187969L308.602098437 556.471962402L317.37305 566.44336L321.19207291 570.44288584L324.994367656 573.925743594L328.846832012 576.930922363L332.81636375 579.49741125L336.969860645 581.664199355L341.374220469 583.470275781L346.096340996 584.954629629L351.20312 586.15625L359.33741502 587.179175312L368.367665781 587.26761L377.84481084 586.511117188L387.31978875 584.99926L396.343538066 582.821601563L404.466997344 580.067705L411.241105137 576.827133437L413.981820525 575.052333008L416.2168 573.18945L419.805061738 569.368240605L423.745325781 564.592344844L431.83994875 553.42747875L438.816844844 542.196820781L441.359950293 537.338685176L442.99219 533.40234L446.89715625 524.4356925L454.10156 509.53125L460.1407025 496.99596875L462.31055 491.57227L462.31055 491.57227M419.99805 499.00586L419.09385916 499.392388047L417.643252656 500.459551875L413.66696375 504.081265L409.197525469 508.761955625L405.36328 513.39258L400.790751562 518.764636094L395.6002325 523.46256125L390.015847188 527.308600781L384.26172 530.125L381.300156348 531.049084492L377.926899531 531.710943437L370.46478125 532.2471775L362.914314844 531.732087812L359.430622871 531.07979207L356.31445 530.16406L348.411642969 526.7201L340.50220125 522.102045L332.512556406 516.26158L324.36914 509.15039L319.89453 504.9375L323.0 509.49023L327.4664475 515.05075L333.4222825 521.2272525L339.65232875 526.84383875L344.94141 530.72461L349.93619875 533.34881375L354.91211 535.48242L359.002364316 536.630187539L363.328048906 537.214605937L367.89391373 537.234870117L372.70470875 536.690175L377.765183926 535.579715508L383.080089219 533.902686562L388.65417459 531.658283086L394.49219 528.8457L400.69231375 525.034283125L406.7586675 520.2732575L411.9588725 515.201773125L414.005300859 512.749343281L415.56055 510.45898L417.35788875 506.976884375L418.9598675 503.227935L419.9715625 500.231228125L419.99805 499.00586L419.99805 499.00586"
     style="fill:#000000" />
</svg>
