  0
SECTION
  2
HEADER
  9
$ACADVER
  1
AC1014
  9
$HANDSEED
  5
FFFF
  9
$MEASUREMENT
 70
     1
  0
ENDSEC
  0
SECTION
  2
TABLES
  0
TABLE
  2
VPORT
  5
8
330
0
100
AcDbSymbolTable
 70
     4
  0
VPORT
  5
2E
330
8
100
AcDbSymbolTableRecord
100
AcDbViewportTableRecord
  2
*ACTIVE
 70
     0
 10
0.0
 20
0.0
 11
1.0
 21
1.0
 12
210.0
 22
148.5
 13
0.0
 23
0.0
 14
10.0
 24
10.0
 15
10.0
 25
10.0
 16
0.0
 26
0.0
 36
1.0
 17
0.0
 27
0.0
 37
0.0
 40
341.0
 41
1.24
 42
50.0
 43
0.0
 44
0.0
 50
0.0
 51
0.0
 71
     0
 72
   100
 73
     1
 74
     3
 75
     0
 76
     0
 77
     0
 78
     0
  0
ENDTAB
  0
TABLE
  2
LTYPE
  5
5
330
0
100
AcDbSymbolTable
 70
     1
  0
LTYPE
  5
14
330
5
100
AcDbSymbolTableRecord
100
AcDbLinetypeTableRecord
  2
BYBLOCK
 70
     0
  3

 72
    65
 73
     0
 40
0.0
  0
LTYPE
  5
15
330
5
100
AcDbSymbolTableRecord
100
AcDbLinetypeTableRecord
  2
BYLAYER
 70
     0
  3

 72
    65
 73
     0
 40
0.0
  0
LTYPE
  5
16
330
5
100
AcDbSymbolTableRecord
100
AcDbLinetypeTableRecord
  2
CONTINUOUS
 70
     0
  3
Solid line
 72
    65
 73
     0
 40
0.0
  0
ENDTAB
  0
TABLE
  2
LAYER
  5
2
100
AcDbSymbolTable
 70
1
  0
LAYER
  5
50
100
AcDbSymbolTableRecord
100
AcDbLayerTableRecord
  2
0
 70
0
  6
CONTINUOUS
  0
ENDTAB
  0
TABLE
  2
STYLE
  5
3
330
0
100
AcDbSymbolTable
 70
     1
  0
STYLE
  5
11
330
3
100
AcDbSymbolTableRecord
100
AcDbTextStyleTableRecord
  2
STANDARD
 70
     0
 40
0.0
 41
1.0
 50
0.0
 71
     0
 42
2.5
  3
txt
  4

  0
ENDTAB
  0
TABLE
  2
VIEW
  5
6
330
0
100
AcDbSymbolTable
 70
     0
  0
ENDTAB
  0
TABLE
  2
UCS
  5
7
330
0
100
AcDbSymbolTable
 70
     0
  0
ENDTAB
  0
TABLE
  2
APPID
  5
9
330
0
100
AcDbSymbolTable
 70
     2
  0
APPID
  5
12
330
9
100
AcDbSymbolTableRecord
100
AcDbRegAppTableRecord
  2
ACAD
 70
     0
  0
ENDTAB
  0
TABLE
  2
DIMSTYLE
  5
A
330
0
100
AcDbSymbolTable
 70
     1
  0
DIMSTYLE
105
27
330
A
100
AcDbSymbolTableRecord
100
AcDbDimStyleTableRecord
  2
ISO-25
 70
     0
  3

  4

  5

  6

  7

 40
1.0
 41
2.5
 42
0.625
 43
3.75
 44
1.25
 45
0.0
 46
0.0
 47
0.0
 48
0.0
140
2.5
141
2.5
142
0.0
143
0.03937007874016
144
1.0
145
0.0
146
1.0
147
0.625
 71
     0
 72
     0
 73
     0
 74
     0
 75
     0
 76
     0
 77
     1
 78
     8
170
     0
171
     3
172
     1
173
     0
174
     0
175
     0
176
     0
177
     0
178
     0
270
     2
271
     2
272
     2
273
     2
274
     3
340
11
275
     0
280
     0
281
     0
282
     0
283
     0
284
     8
285
     0
286
     0
287
     3
288
     0
  0
ENDTAB
  0
TABLE
  2
BLOCK_RECORD
  5
1
330
0
100
AcDbSymbolTable
 70
     1
  0
BLOCK_RECORD
  5
1F
330
1
100
AcDbSymbolTableRecord
100
AcDbBlockTableRecord
  2
*MODEL_SPACE
  0
BLOCK_RECORD
  5
1B
330
1
100
AcDbSymbolTableRecord
100
AcDbBlockTableRecord
  2
*PAPER_SPACE
  0
ENDTAB
  0
ENDSEC
  0
SECTION
  2
BLOCKS
  0
BLOCK
  5
20
330
1F
100
AcDbEntity
  8
0
100
AcDbBlockBegin
  2
*MODEL_SPACE
 70
     0
 10
0.0
 20
0.0
 30
0.0
  3
*MODEL_SPACE
  1

  0
ENDBLK
  5
21
330
1F
100
AcDbEntity
  8
0
100
AcDbBlockEnd
  0
BLOCK
  5
1C
330
1B
100
AcDbEntity
 67
     1
  8
0
100
AcDbBlockBegin
  2
*PAPER_SPACE
  1

  0
ENDBLK
  5
1D
330
1B
100
AcDbEntity
 67
     1
  8
0
100
AcDbBlockEnd
  0
ENDSEC
  0
SECTION
  2
ENTITIES
  0
SPLINE
  5
100
100
AcDbEntity
  8
0
 62
7
100
AcDbSpline
 70
8
 71
3
 72
8
 73
4
 74
0
 40
0
 40
0
 40
0
 40
0
 40
1
 40
1
 40
1
 40
1
 10
28.455839
 20
21.500227
 30
0.0
 10
28.375277
 20
21.497114
 30
0.0
 10
28.295948
 20
21.480185
 30
0.0
 10
28.226782
 20
21.450160
 30
0.0
  0
SPLINE
  5
101
100
AcDbEntity
  8
0
 62
7
100
AcDbSpline
 70
8
 71
3
 72
8
 73
4
 74
0
 40
0
 40
0
 40
0
 40
0
 40
1
 40
1
 40
1
 40
1
 10
28.226782
 20
21.450160
 30
0.0
 10
28.036386
 20
21.367512
 30
0.0
 10
27.913730
 20
21.154277
 30
0.0
 10
27.844485
 20
20.958608
 30
0.0
  0
SPLINE
  5
102
100
AcDbEntity
  8
0
 62
7
100
AcDbSpline
 70
8
 71
3
 72
8
 73
4
 74
0
 40
0
 40
0
 40
0
 40
0
 40
1
 40
1
 40
1
 40
1
 10
27.844485
 20
20.958608
 30
0.0
 10
27.686552
 20
20.512329
 30
0.0
 10
27.817126
 20
19.538670
 30
0.0
 10
27.817126
 20
19.538670
 30
0.0
  0
SPLINE
  5
103
100
AcDbEntity
  8
0
 62
7
100
AcDbSpline
 70
8
 71
3
 72
8
 73
4
 74
0
 40
0
 40
0
 40
0
 40
0
 40
1
 40
1
 40
1
 40
1
 10
27.817126
 20
19.538670
 30
0.0
 10
27.817126
 20
19.538670
 30
0.0
 10
28.177606
 20
19.775893
 30
0.0
 10
28.336036
 20
19.920969
 30
0.0
  0
SPLINE
  5
104
100
AcDbEntity
  8
0
 62
7
100
AcDbSpline
 70
8
 71
3
 72
8
 73
4
 74
0
 40
0
 40
0
 40
0
 40
0
 40
1
 40
1
 40
1
 40
1
 10
28.336036
 20
19.920969
 30
0.0
 10
28.488228
 20
20.060331
 30
0.0
 10
28.694752
 20
20.202848
 30
0.0
 10
28.813819
 20
20.371394
 30
0.0
  0
SPLINE
  5
105
100
AcDbEntity
  8
0
 62
7
100
AcDbSpline
 70
8
 71
3
 72
8
 73
4
 74
0
 40
0
 40
0
 40
0
 40
0
 40
1
 40
1
 40
1
 40
1
 10
28.813819
 20
20.371394
 30
0.0
 10
28.921962
 20
20.524471
 30
0.0
 10
29.004127
 20
20.689844
 30
0.0
 10
29.018556
 20
20.876713
 30
0.0
  0
SPLINE
  5
106
100
AcDbEntity
  8
0
 62
7
100
AcDbSpline
 70
8
 71
3
 72
8
 73
4
 74
0
 40
0
 40
0
 40
0
 40
0
 40
1
 40
1
 40
1
 40
1
 10
29.018556
 20
20.876713
 30
0.0
 10
29.032743
 20
21.060469
 30
0.0
 10
28.973655
 20
21.283285
 30
0.0
 10
28.827408
 20
21.395443
 30
0.0
  0
SPLINE
  5
107
100
AcDbEntity
  8
0
 62
7
100
AcDbSpline
 70
8
 71
3
 72
8
 73
4
 74
0
 40
0
 40
0
 40
0
 40
0
 40
1
 40
1
 40
1
 40
1
 10
28.827408
 20
21.395443
 30
0.0
 10
28.727685
 20
21.471919
 30
0.0
 10
28.590110
 20
21.505411
 30
0.0
 10
28.455839
 20
21.500227
 30
0.0
  0
SPLINE
  5
108
100
AcDbEntity
  8
0
 62
7
100
AcDbSpline
 70
8
 71
3
 72
8
 73
4
 74
0
 40
0
 40
0
 40
0
 40
0
 40
1
 40
1
 40
1
 40
1
 10
26.450474
 20
21.471796
 30
0.0
 10
26.403232
 20
21.473050
 30
0.0
 10
26.356844
 20
21.467273
 30
0.0
 10
26.312969
 20
21.453199
 30
0.0
  0
SPLINE
  5
109
100
AcDbEntity
  8
0
 62
7
100
AcDbSpline
 70
8
 71
3
 72
8
 73
4
 74
0
 40
0
 40
0
 40
0
 40
0
 40
1
 40
1
 40
1
 40
1
 10
26.312969
 20
21.453199
 30
0.0
 10
26.121500
 20
21.391797
 30
0.0
 10
25.964957
 20
21.187812
 30
0.0
 10
25.925664
 20
20.990616
 30
0.0
  0
SPLINE
  5
10a
100
AcDbEntity
  8
0
 62
7
100
AcDbSpline
 70
8
 71
3
 72
8
 73
4
 74
0
 40
0
 40
0
 40
0
 40
0
 40
1
 40
1
 40
1
 40
1
 10
25.925664
 20
20.990616
 30
0.0
 10
25.885104
 20
20.787057
 30
0.0
 10
25.990458
 20
20.564822
 30
0.0
 10
26.111806
 20
20.396427
 30
0.0
  0
SPLINE
  5
10b
100
AcDbEntity
  8
0
 62
7
100
AcDbSpline
 70
8
 71
3
 72
8
 73
4
 74
0
 40
0
 40
0
 40
0
 40
0
 40
1
 40
1
 40
1
 40
1
 10
26.111806
 20
20.396427
 30
0.0
 10
26.388571
 20
20.012362
 30
0.0
 10
27.263170
 20
19.564956
 30
0.0
 10
27.263170
 20
19.564956
 30
0.0
  0
SPLINE
  5
10c
100
AcDbEntity
  8
0
 62
7
100
AcDbSpline
 70
8
 71
3
 72
8
 73
4
 74
0
 40
0
 40
0
 40
0
 40
0
 40
1
 40
1
 40
1
 40
1
 10
27.263170
 20
19.564956
 30
0.0
 10
27.263170
 20
19.564956
 30
0.0
 10
27.273527
 20
19.996354
 30
0.0
 10
27.244573
 20
20.209211
 30
0.0
  0
SPLINE
  5
10d
100
AcDbEntity
  8
0
 62
7
100
AcDbSpline
 70
8
 71
3
 72
8
 73
4
 74
0
 40
0
 40
0
 40
0
 40
0
 40
1
 40
1
 40
1
 40
1
 10
27.244573
 20
20.209211
 30
0.0
 10
27.216759
 20
20.413689
 30
0.0
 10
27.217255
 20
20.664771
 30
0.0
 10
27.146585
 20
20.858653
 30
0.0
  0
SPLINE
  5
10e
100
AcDbEntity
  8
0
 62
7
100
AcDbSpline
 70
8
 71
3
 72
8
 73
4
 74
0
 40
0
 40
0
 40
0
 40
0
 40
1
 40
1
 40
1
 40
1
 10
27.146585
 20
20.858653
 30
0.0
 10
27.082402
 20
21.034744
 30
0.0
 10
26.993498
 20
21.196471
 30
0.0
 10
26.848149
 20
21.314799
 30
0.0
  0
SPLINE
  5
10f
100
AcDbEntity
  8
0
 62
7
100
AcDbSpline
 70
8
 71
3
 72
8
 73
4
 74
0
 40
0
 40
0
 40
0
 40
0
 40
1
 40
1
 40
1
 40
1
 10
26.848149
 20
21.314799
 30
0.0
 10
26.740953
 20
21.402069
 30
0.0
 10
26.592202
 20
21.468021
 30
0.0
 10
26.450474
 20
21.471796
 30
0.0
  0
LWPOLYLINE
  5
110
100
AcDbEntity
  8
0
 62
7
100
AcDbPolyline
 90
2
 70
1
 10
28.455839
 20
21.500227
 30
0.0
 10
28.455839
 20
21.500227
 30
0.0
  0
SPLINE
  5
111
100
AcDbEntity
  8
0
 62
7
100
AcDbSpline
 70
8
 71
3
 72
8
 73
4
 74
0
 40
0
 40
0
 40
0
 40
0
 40
1
 40
1
 40
1
 40
1
 10
25.774211
 20
19.774343
 30
0.0
 10
25.683107
 20
19.771258
 30
0.0
 10
25.593121
 20
19.755616
 30
0.0
 10
25.505459
 20
19.722489
 30
0.0
  0
SPLINE
  5
112
100
AcDbEntity
  8
0
 62
7
100
AcDbSpline
 70
8
 71
3
 72
8
 73
4
 74
0
 40
0
 40
0
 40
0
 40
0
 40
1
 40
1
 40
1
 40
1
 10
25.505459
 20
19.722489
 30
0.0
 10
25.333054
 20
19.657337
 30
0.0
 10
25.156203
 20
19.509310
 30
0.0
 10
25.116723
 20
19.329283
 30
0.0
  0
SPLINE
  5
113
100
AcDbEntity
  8
0
 62
7
100
AcDbSpline
 70
8
 71
3
 72
8
 73
4
 74
0
 40
0
 40
0
 40
0
 40
0
 40
1
 40
1
 40
1
 40
1
 10
25.116723
 20
19.329283
 30
0.0
 10
25.073652
 20
19.132878
 30
0.0
 10
25.171573
 20
18.895116
 30
0.0
 10
25.322356
 20
18.762095
 30
0.0
  0
SPLINE
  5
114
100
AcDbEntity
  8
0
 62
7
100
AcDbSpline
 70
8
 71
3
 72
8
 73
4
 74
0
 40
0
 40
0
 40
0
 40
0
 40
1
 40
1
 40
1
 40
1
 10
25.322356
 20
18.762095
 30
0.0
 10
25.478007
 20
18.624850
 30
0.0
 10
25.723038
 20
18.604236
 30
0.0
 10
25.929598
 20
18.624589
 30
0.0
  0
SPLINE
  5
115
100
AcDbEntity
  8
0
 62
7
100
AcDbSpline
 70
8
 71
3
 72
8
 73
4
 74
0
 40
0
 40
0
 40
0
 40
0
 40
1
 40
1
 40
1
 40
1
 10
25.929598
 20
18.624589
 30
0.0
 10
26.400716
 20
18.671011
 30
0.0
 10
27.226871
 20
19.202685
 30
0.0
 10
27.226871
 20
19.202685
 30
0.0
  0
SPLINE
  5
116
100
AcDbEntity
  8
0
 62
7
100
AcDbSpline
 70
8
 71
3
 72
8
 73
4
 74
0
 40
0
 40
0
 40
0
 40
0
 40
1
 40
1
 40
1
 40
1
 10
27.226871
 20
19.202685
 30
0.0
 10
27.226871
 20
19.202685
 30
0.0
 10
26.859179
 20
19.428188
 30
0.0
 10
26.660578
 20
19.510061
 30
0.0
  0
SPLINE
  5
117
100
AcDbEntity
  8
0
 62
7
100
AcDbSpline
 70
8
 71
3
 72
8
 73
4
 74
0
 40
0
 40
0
 40
0
 40
0
 40
1
 40
1
 40
1
 40
1
 10
26.660578
 20
19.510061
 30
0.0
 10
26.469792
 20
19.588710
 30
0.0
 10
26.252906
 20
19.715365
 30
0.0
 10
26.049759
 20
19.751635
 30
0.0
  0
SPLINE
  5
118
100
AcDbEntity
  8
0
 62
7
100
AcDbSpline
 70
8
 71
3
 72
8
 73
4
 74
0
 40
0
 40
0
 40
0
 40
0
 40
1
 40
1
 40
1
 40
1
 10
26.049759
 20
19.751635
 30
0.0
 10
25.957505
 20
19.768107
 30
0.0
 10
25.865315
 20
19.777426
 30
0.0
 10
25.774211
 20
19.774343
 30
0.0
  0
LWPOLYLINE
  5
119
100
AcDbEntity
  8
0
 62
7
100
AcDbPolyline
 90
2
 70
1
 10
26.450474
 20
21.471796
 30
0.0
 10
26.450474
 20
21.471796
 30
0.0
  0
SPLINE
  5
11a
100
AcDbEntity
  8
0
 62
7
100
AcDbSpline
 70
8
 71
3
 72
8
 73
4
 74
0
 40
0
 40
0
 40
0
 40
0
 40
1
 40
1
 40
1
 40
1
 10
29.354363
 20
19.638626
 30
0.0
 10
29.327567
 20
19.638901
 30
0.0
 10
29.301066
 20
19.638443
 30
0.0
 10
29.275151
 20
19.637198
 30
0.0
  0
SPLINE
  5
11b
100
AcDbEntity
  8
0
 62
7
100
AcDbSpline
 70
8
 71
3
 72
8
 73
4
 74
0
 40
0
 40
0
 40
0
 40
0
 40
1
 40
1
 40
1
 40
1
 10
29.275151
 20
19.637198
 30
0.0
 10
28.802292
 20
19.614585
 30
0.0
 10
27.950341
 20
19.125262
 30
0.0
 10
27.950341
 20
19.125262
 30
0.0
  0
SPLINE
  5
11c
100
AcDbEntity
  8
0
 62
7
100
AcDbSpline
 70
8
 71
3
 72
8
 73
4
 74
0
 40
0
 40
0
 40
0
 40
0
 40
1
 40
1
 40
1
 40
1
 10
27.950341
 20
19.125262
 30
0.0
 10
27.950341
 20
19.125262
 30
0.0
 10
28.306318
 20
18.881416
 30
0.0
 10
28.500541
 20
18.789633
 30
0.0
  0
SPLINE
  5
11d
100
AcDbEntity
  8
0
 62
7
100
AcDbSpline
 70
8
 71
3
 72
8
 73
4
 74
0
 40
0
 40
0
 40
0
 40
0
 40
1
 40
1
 40
1
 40
1
 10
28.500541
 20
18.789633
 30
0.0
 10
28.687118
 20
18.701466
 30
0.0
 10
28.897246
 20
18.564127
 30
0.0
 10
29.098307
 20
18.517662
 30
0.0
  0
SPLINE
  5
11e
100
AcDbEntity
  8
0
 62
7
100
AcDbSpline
 70
8
 71
3
 72
8
 73
4
 74
0
 40
0
 40
0
 40
0
 40
0
 40
1
 40
1
 40
1
 40
1
 10
29.098307
 20
18.517662
 30
0.0
 10
29.280916
 20
18.475463
 30
0.0
 10
29.464881
 20
18.461940
 30
0.0
 10
29.643322
 20
18.519273
 30
0.0
  0
SPLINE
  5
11f
100
AcDbEntity
  8
0
 62
7
100
AcDbSpline
 70
8
 71
3
 72
8
 73
4
 74
0
 40
0
 40
0
 40
0
 40
0
 40
1
 40
1
 40
1
 40
1
 10
29.643322
 20
18.519273
 30
0.0
 10
29.818791
 20
18.575649
 30
0.0
 10
30.002865
 20
18.714644
 30
0.0
 10
30.051368
 20
18.892452
 30
0.0
  0
SPLINE
  5
120
100
AcDbEntity
  8
0
 62
7
100
AcDbSpline
 70
8
 71
3
 72
8
 73
4
 74
0
 40
0
 40
0
 40
0
 40
0
 40
1
 40
1
 40
1
 40
1
 10
30.051368
 20
18.892452
 30
0.0
 10
30.104286
 20
19.086436
 30
0.0
 10
30.018590
 20
19.328661
 30
0.0
 10
29.874704
 20
19.469117
 30
0.0
  0
SPLINE
  5
121
100
AcDbEntity
  8
0
 62
7
100
AcDbSpline
 70
8
 71
3
 72
8
 73
4
 74
0
 40
0
 40
0
 40
0
 40
0
 40
1
 40
1
 40
1
 40
1
 10
29.874704
 20
19.469117
 30
0.0
 10
29.744741
 20
19.595978
 30
0.0
 10
29.541940
 20
19.636991
 30
0.0
 10
29.354363
 20
19.638630
 30
0.0
  0
LWPOLYLINE
  5
122
100
AcDbEntity
  8
0
 62
7
100
AcDbPolyline
 90
2
 70
1
 10
25.774211
 20
19.774343
 30
0.0
 10
25.774211
 20
19.774343
 30
0.0
  0
SPLINE
  5
123
100
AcDbEntity
  8
0
 62
7
100
AcDbSpline
 70
8
 71
3
 72
8
 73
4
 74
0
 40
0
 40
0
 40
0
 40
0
 40
1
 40
1
 40
1
 40
1
 10
27.373496
 20
18.719717
 30
0.0
 10
27.373496
 20
18.719717
 30
0.0
 10
27.014212
 20
18.480994
 30
0.0
 10
26.856375
 20
18.335273
 30
0.0
  0
SPLINE
  5
124
100
AcDbEntity
  8
0
 62
7
100
AcDbSpline
 70
8
 71
3
 72
8
 73
4
 74
0
 40
0
 40
0
 40
0
 40
0
 40
1
 40
1
 40
1
 40
1
 10
26.856375
 20
18.335273
 30
0.0
 10
26.704756
 20
18.195291
 30
0.0
 10
26.498758
 20
18.051911
 30
0.0
 10
26.380381
 20
17.882882
 30
0.0
  0
SPLINE
  5
125
100
AcDbEntity
  8
0
 62
7
100
AcDbSpline
 70
8
 71
3
 72
8
 73
4
 74
0
 40
0
 40
0
 40
0
 40
0
 40
1
 40
1
 40
1
 40
1
 10
26.380381
 20
17.882882
 30
0.0
 10
26.272863
 20
17.729362
 30
0.0
 10
26.191271
 20
17.563772
 30
0.0
 10
26.177608
 20
17.376846
 30
0.0
  0
SPLINE
  5
126
100
AcDbEntity
  8
0
 62
7
100
AcDbSpline
 70
8
 71
3
 72
8
 73
4
 74
0
 40
0
 40
0
 40
0
 40
0
 40
1
 40
1
 40
1
 40
1
 10
26.177608
 20
17.376846
 30
0.0
 10
26.164171
 20
17.193033
 30
0.0
 10
26.224198
 20
16.970392
 30
0.0
 10
26.370903
 20
16.858831
 30
0.0
  0
SPLINE
  5
127
100
AcDbEntity
  8
0
 62
7
100
AcDbSpline
 70
8
 71
3
 72
8
 73
4
 74
0
 40
0
 40
0
 40
0
 40
0
 40
1
 40
1
 40
1
 40
1
 10
26.370903
 20
16.858831
 30
0.0
 10
26.530954
 20
16.737121
 30
0.0
 10
26.787592
 20
16.725800
 30
0.0
 10
26.971708
 20
16.806619
 30
0.0
  0
SPLINE
  5
128
100
AcDbEntity
  8
0
 62
7
100
AcDbSpline
 70
8
 71
3
 72
8
 73
4
 74
0
 40
0
 40
0
 40
0
 40
0
 40
1
 40
1
 40
1
 40
1
 10
26.971708
 20
16.806619
 30
0.0
 10
27.161764
 20
16.890046
 30
0.0
 10
27.283593
 20
17.103830
 30
0.0
 10
27.352039
 20
17.299780
 30
0.0
  0
SPLINE
  5
129
100
AcDbEntity
  8
0
 62
7
100
AcDbSpline
 70
8
 71
3
 72
8
 73
4
 74
0
 40
0
 40
0
 40
0
 40
0
 40
1
 40
1
 40
1
 40
1
 10
27.352039
 20
17.299780
 30
0.0
 10
27.508148
 20
17.746699
 30
0.0
 10
27.373496
 20
18.719717
 30
0.0
 10
27.373496
 20
18.719717
 30
0.0
  0
LWPOLYLINE
  5
12a
100
AcDbEntity
  8
0
 62
7
100
AcDbPolyline
 90
2
 70
1
 10
29.354363
 20
19.638630
 30
0.0
 10
29.354363
 20
19.638626
 30
0.0
  0
SPLINE
  5
12b
100
AcDbEntity
  8
0
 62
7
100
AcDbSpline
 70
8
 71
3
 72
8
 73
4
 74
0
 40
0
 40
0
 40
0
 40
0
 40
1
 40
1
 40
1
 40
1
 10
27.841981
 20
18.715780
 30
0.0
 10
27.841981
 20
18.715780
 30
0.0
 10
27.826921
 20
18.284500
 30
0.0
 10
27.853603
 20
18.071346
 30
0.0
  0
SPLINE
  5
12c
100
AcDbEntity
  8
0
 62
7
100
AcDbSpline
 70
8
 71
3
 72
8
 73
4
 74
0
 40
0
 40
0
 40
0
 40
0
 40
1
 40
1
 40
1
 40
1
 10
27.853603
 20
18.071346
 30
0.0
 10
27.879238
 20
17.866585
 30
0.0
 10
27.876199
 20
17.615633
 30
0.0
 10
27.944797
 20
17.421011
 30
0.0
  0
SPLINE
  5
12d
100
AcDbEntity
  8
0
 62
7
100
AcDbSpline
 70
8
 71
3
 72
8
 73
4
 74
0
 40
0
 40
0
 40
0
 40
0
 40
1
 40
1
 40
1
 40
1
 10
27.944797
 20
17.421011
 30
0.0
 10
28.007102
 20
17.244245
 30
0.0
 10
28.094326
 20
17.081517
 30
0.0
 10
28.238405
 20
16.961645
 30
0.0
  0
SPLINE
  5
12e
100
AcDbEntity
  8
0
 62
7
100
AcDbSpline
 70
8
 71
3
 72
8
 73
4
 74
0
 40
0
 40
0
 40
0
 40
0
 40
1
 40
1
 40
1
 40
1
 10
28.238405
 20
16.961645
 30
0.0
 10
28.380085
 20
16.843770
 30
0.0
 10
28.596064
 20
16.762936
 30
0.0
 10
28.772156
 20
16.817344
 30
0.0
  0
SPLINE
  5
12f
100
AcDbEntity
  8
0
 62
7
100
AcDbSpline
 70
8
 71
3
 72
8
 73
4
 74
0
 40
0
 40
0
 40
0
 40
0
 40
1
 40
1
 40
1
 40
1
 10
28.772156
 20
16.817344
 30
0.0
 10
28.964267
 20
16.876705
 30
0.0
 10
29.122714
 20
17.079050
 30
0.0
 10
29.164109
 20
17.275816
 30
0.0
  0
SPLINE
  5
130
100
AcDbEntity
  8
0
 62
7
100
AcDbSpline
 70
8
 71
3
 72
8
 73
4
 74
0
 40
0
 40
0
 40
0
 40
0
 40
1
 40
1
 40
1
 40
1
 10
29.164109
 20
17.275816
 30
0.0
 10
29.206835
 20
17.478933
 30
0.0
 10
29.103950
 20
17.702296
 30
0.0
 10
28.984404
 20
17.871972
 30
0.0
  0
SPLINE
  5
131
100
AcDbEntity
  8
0
 62
7
100
AcDbSpline
 70
8
 71
3
 72
8
 73
4
 74
0
 40
0
 40
0
 40
0
 40
0
 40
1
 40
1
 40
1
 40
1
 10
28.984404
 20
17.871972
 30
0.0
 10
28.711747
 20
18.258968
 30
0.0
 10
27.841981
 20
18.715780
 30
0.0
 10
27.841981
 20
18.715780
 30
0.0
  0
LWPOLYLINE
  5
132
100
AcDbEntity
  8
0
 62
7
100
AcDbPolyline
 90
2
 70
1
 10
27.373496
 20
18.719717
 30
0.0
 10
27.373496
 20
18.719717
 30
0.0
  0
SPLINE
  5
133
100
AcDbEntity
  8
0
 62
1
100
AcDbSpline
 70
8
 71
3
 72
8
 73
4
 74
0
 40
0
 40
0
 40
0
 40
0
 40
1
 40
1
 40
1
 40
1
 10
28.859951
 20
28.344394
 30
0.0
 10
28.521468
 20
28.386471
 30
0.0
 10
28.257262
 20
27.941083
 30
0.0
 10
28.050234
 20
27.670031
 30
0.0
  0
SPLINE
  5
134
100
AcDbEntity
  8
0
 62
1
100
AcDbSpline
 70
8
 71
3
 72
8
 73
4
 74
0
 40
0
 40
0
 40
0
 40
0
 40
1
 40
1
 40
1
 40
1
 10
28.050234
 20
27.670031
 30
0.0
 10
27.755173
 20
27.283721
 30
0.0
 10
27.579470
 20
26.811301
 30
0.0
 10
27.413013
 20
26.354586
 30
0.0
  0
SPLINE
  5
135
100
AcDbEntity
  8
0
 62
1
100
AcDbSpline
 70
8
 71
3
 72
8
 73
4
 74
0
 40
0
 40
0
 40
0
 40
0
 40
1
 40
1
 40
1
 40
1
 10
27.413013
 20
26.354586
 30
0.0
 10
27.239890
 20
25.879573
 30
0.0
 10
27.141757
 20
24.862408
 30
0.0
 10
27.141757
 20
24.862408
 30
0.0
  0
LWPOLYLINE
  5
136
100
AcDbEntity
  8
0
 62
7
100
AcDbPolyline
 90
2
 70
1
 10
27.841981
 20
18.715780
 30
0.0
 10
27.841981
 20
18.715780
 30
0.0
  0
SPLINE
  5
137
100
AcDbEntity
  8
0
 62
1
100
AcDbSpline
 70
8
 71
3
 72
8
 73
4
 74
0
 40
0
 40
0
 40
0
 40
0
 40
1
 40
1
 40
1
 40
1
 10
26.960800
 20
25.269382
 30
0.0
 10
26.779919
 20
25.676365
 30
0.0
 10
26.678165
 20
26.128745
 30
0.0
 10
26.418110
 20
26.490304
 30
0.0
  0
SPLINE
  5
138
100
AcDbEntity
  8
0
 62
1
100
AcDbSpline
 70
8
 71
3
 72
8
 73
4
 74
0
 40
0
 40
0
 40
0
 40
0
 40
1
 40
1
 40
1
 40
1
 10
26.418110
 20
26.490304
 30
0.0
 10
26.131553
 20
26.888707
 30
0.0
 10
25.802762
 20
27.274467
 30
0.0
 10
25.394512
 20
27.546814
 30
0.0
  0
SPLINE
  5
139
100
AcDbEntity
  8
0
 62
1
100
AcDbSpline
 70
8
 71
3
 72
8
 73
4
 74
0
 40
0
 40
0
 40
0
 40
0
 40
1
 40
1
 40
1
 40
1
 10
25.394512
 20
27.546814
 30
0.0
 10
25.007416
 20
27.805049
 30
0.0
 10
24.506327
 20
27.981928
 30
0.0
 10
24.066745
 20
28.134565
 30
0.0
  0
SPLINE
  5
13a
100
AcDbEntity
  8
0
 62
1
100
AcDbSpline
 70
8
 71
3
 72
8
 73
4
 74
0
 40
0
 40
0
 40
0
 40
0
 40
1
 40
1
 40
1
 40
1
 10
24.066745
 20
28.134565
 30
0.0
 10
23.759359
 20
28.241300
 30
0.0
 10
23.117081
 20
28.299155
 30
0.0
 10
23.117081
 20
28.299155
 30
0.0
  0
SPLINE
  5
13b
100
AcDbEntity
  8
0
 62
1
100
AcDbSpline
 70
8
 71
3
 72
8
 73
4
 74
0
 40
0
 40
0
 40
0
 40
0
 40
1
 40
1
 40
1
 40
1
 10
23.117081
 20
28.299155
 30
0.0
 10
23.117081
 20
28.299155
 30
0.0
 10
23.126656
 20
27.610665
 30
0.0
 10
23.236252
 20
27.291930
 30
0.0
  0
SPLINE
  5
13c
100
AcDbEntity
  8
0
 62
1
100
AcDbSpline
 70
8
 71
3
 72
8
 73
4
 74
0
 40
0
 40
0
 40
0
 40
0
 40
1
 40
1
 40
1
 40
1
 10
23.236252
 20
27.291930
 30
0.0
 10
23.352446
 20
26.954010
 30
0.0
 10
23.507358
 20
26.615688
 30
0.0
 10
23.684419
 20
26.305301
 30
0.0
  0
SPLINE
  5
13d
100
AcDbEntity
  8
0
 62
1
100
AcDbSpline
 70
8
 71
3
 72
8
 73
4
 74
0
 40
0
 40
0
 40
0
 40
0
 40
1
 40
1
 40
1
 40
1
 10
23.684419
 20
26.305301
 30
0.0
 10
23.868887
 20
25.981930
 30
0.0
 10
24.019204
 20
25.702895
 30
0.0
 10
24.299982
 20
25.458436
 30
0.0
  0
SPLINE
  5
13e
100
AcDbEntity
  8
0
 62
1
100
AcDbSpline
 70
8
 71
3
 72
8
 73
4
 74
0
 40
0
 40
0
 40
0
 40
0
 40
1
 40
1
 40
1
 40
1
 10
24.299982
 20
25.458436
 30
0.0
 10
24.403801
 20
25.368045
 30
0.0
 10
24.699844
 20
25.219789
 30
0.0
 10
24.654498
 20
25.088426
 30
0.0
  0
SPLINE
  5
13f
100
AcDbEntity
  8
0
 62
1
100
AcDbSpline
 70
8
 71
3
 72
8
 73
4
 74
0
 40
0
 40
0
 40
0
 40
0
 40
1
 40
1
 40
1
 40
1
 10
24.654498
 20
25.088426
 30
0.0
 10
24.629418
 20
25.015773
 30
0.0
 10
24.505125
 20
25.048935
 30
0.0
 10
24.428481
 20
25.043186
 30
0.0
  0
SPLINE
  5
140
100
AcDbEntity
  8
0
 62
1
100
AcDbSpline
 70
8
 71
3
 72
8
 73
4
 74
0
 40
0
 40
0
 40
0
 40
0
 40
1
 40
1
 40
1
 40
1
 10
24.428481
 20
25.043186
 30
0.0
 10
24.112469
 20
25.019471
 30
0.0
 10
23.795449
 20
25.101434
 30
0.0
 10
23.478816
 20
25.088426
 30
0.0
  0
SPLINE
  5
141
100
AcDbEntity
  8
0
 62
1
100
AcDbSpline
 70
8
 71
3
 72
8
 73
4
 74
0
 40
0
 40
0
 40
0
 40
0
 40
1
 40
1
 40
1
 40
1
 10
23.478816
 20
25.088426
 30
0.0
 10
23.129485
 20
25.074074
 30
0.0
 10
22.675205
 20
25.017360
 30
0.0
 10
22.369151
 20
24.848338
 30
0.0
  0
SPLINE
  5
142
100
AcDbEntity
  8
0
 62
1
100
AcDbSpline
 70
8
 71
3
 72
8
 73
4
 74
0
 40
0
 40
0
 40
0
 40
0
 40
1
 40
1
 40
1
 40
1
 10
22.369151
 20
24.848338
 30
0.0
 10
21.872454
 20
24.574029
 30
0.0
 10
21.622202
 20
24.141225
 30
0.0
 10
21.353468
 20
23.641488
 30
0.0
  0
SPLINE
  5
143
100
AcDbEntity
  8
0
 62
1
100
AcDbSpline
 70
8
 71
3
 72
8
 73
4
 74
0
 40
0
 40
0
 40
0
 40
0
 40
1
 40
1
 40
1
 40
1
 10
21.353468
 20
23.641488
 30
0.0
 10
21.010203
 20
23.003151
 30
0.0
 10
20.745782
 20
22.285717
 30
0.0
 10
20.720478
 20
21.561380
 30
0.0
  0
SPLINE
  5
144
100
AcDbEntity
  8
0
 62
1
100
AcDbSpline
 70
8
 71
3
 72
8
 73
4
 74
0
 40
0
 40
0
 40
0
 40
0
 40
1
 40
1
 40
1
 40
1
 10
20.720478
 20
21.561380
 30
0.0
 10
20.687541
 20
20.618571
 30
0.0
 10
20.973244
 20
19.666231
 30
0.0
 10
21.353468
 20
18.802863
 30
0.0
  0
SPLINE
  5
145
100
AcDbEntity
  8
0
 62
1
100
AcDbSpline
 70
8
 71
3
 72
8
 73
4
 74
0
 40
0
 40
0
 40
0
 40
0
 40
1
 40
1
 40
1
 40
1
 10
21.353468
 20
18.802863
 30
0.0
 10
21.877561
 20
17.612819
 30
0.0
 10
22.718030
 20
16.575105
 30
0.0
 10
23.569294
 20
15.592135
 30
0.0
  0
SPLINE
  5
146
100
AcDbEntity
  8
0
 62
1
100
AcDbSpline
 70
8
 71
3
 72
8
 73
4
 74
0
 40
0
 40
0
 40
0
 40
0
 40
1
 40
1
 40
1
 40
1
 10
23.569294
 20
15.592135
 30
0.0
 10
24.120919
 20
14.955162
 30
0.0
 10
24.610873
 20
14.097213
 30
0.0
 10
25.423384
 20
13.873940
 30
0.0
  0
SPLINE
  5
147
100
AcDbEntity
  8
0
 62
1
100
AcDbSpline
 70
8
 71
3
 72
8
 73
4
 74
0
 40
0
 40
0
 40
0
 40
0
 40
1
 40
1
 40
1
 40
1
 10
25.423384
 20
13.873940
 30
0.0
 10
25.631488
 20
13.816755
 30
0.0
 10
25.852722
 20
13.938042
 30
0.0
 10
26.056375
 20
14.009479
 30
0.0
  0
SPLINE
  5
148
100
AcDbEntity
  8
0
 62
1
100
AcDbSpline
 70
8
 71
3
 72
8
 73
4
 74
0
 40
0
 40
0
 40
0
 40
0
 40
1
 40
1
 40
1
 40
1
 10
26.056375
 20
14.009479
 30
0.0
 10
26.438038
 20
14.143359
 30
0.0
 10
26.777867
 20
14.375609
 30
0.0
 10
27.141757
 20
14.552171
 30
0.0
  0
SPLINE
  5
149
100
AcDbEntity
  8
0
 62
1
100
AcDbSpline
 70
8
 71
3
 72
8
 73
4
 74
0
 40
0
 40
0
 40
0
 40
0
 40
1
 40
1
 40
1
 40
1
 10
27.141757
 20
14.552171
 30
0.0
 10
27.396551
 20
14.675800
 30
0.0
 10
27.627620
 20
14.928141
 30
0.0
 10
27.910466
 20
14.913905
 30
0.0
  0
SPLINE
  5
14a
100
AcDbEntity
  8
0
 62
1
100
AcDbSpline
 70
8
 71
3
 72
8
 73
4
 74
0
 40
0
 40
0
 40
0
 40
0
 40
1
 40
1
 40
1
 40
1
 10
27.910466
 20
14.913905
 30
0.0
 10
27.998247
 20
14.909483
 30
0.0
 10
28.060490
 20
14.822347
 30
0.0
 10
28.136483
 20
14.778188
 30
0.0
  0
SPLINE
  5
14b
100
AcDbEntity
  8
0
 62
1
100
AcDbSpline
 70
8
 71
3
 72
8
 73
4
 74
0
 40
0
 40
0
 40
0
 40
0
 40
1
 40
1
 40
1
 40
1
 10
28.136483
 20
14.778188
 30
0.0
 10
28.375732
 20
14.639161
 30
0.0
 10
28.618419
 20
14.506236
 30
0.0
 10
28.859951
 20
14.371214
 30
0.0
  0
SPLINE
  5
14c
100
AcDbEntity
  8
0
 62
1
100
AcDbSpline
 70
8
 71
3
 72
8
 73
4
 74
0
 40
0
 40
0
 40
0
 40
0
 40
1
 40
1
 40
1
 40
1
 10
28.859951
 20
14.371214
 30
0.0
 10
29.130873
 20
14.219763
 30
0.0
 10
29.373620
 20
13.996857
 30
0.0
 10
29.674078
 20
13.919001
 30
0.0
  0
SPLINE
  5
14d
100
AcDbEntity
  8
0
 62
1
100
AcDbSpline
 70
8
 71
3
 72
8
 73
4
 74
0
 40
0
 40
0
 40
0
 40
0
 40
1
 40
1
 40
1
 40
1
 10
29.674078
 20
13.919001
 30
0.0
 10
29.951316
 20
13.847161
 30
0.0
 10
30.271642
 20
13.802484
 30
0.0
 10
30.533265
 20
13.919001
 30
0.0
  0
SPLINE
  5
14e
100
AcDbEntity
  8
0
 62
1
100
AcDbSpline
 70
8
 71
3
 72
8
 73
4
 74
0
 40
0
 40
0
 40
0
 40
0
 40
1
 40
1
 40
1
 40
1
 10
30.533265
 20
13.919001
 30
0.0
 10
30.903766
 20
14.084008
 30
0.0
 10
31.084035
 20
14.514822
 30
0.0
 10
31.347211
 20
14.823427
 30
0.0
  0
SPLINE
  5
14f
100
AcDbEntity
  8
0
 62
1
100
AcDbSpline
 70
8
 71
3
 72
8
 73
4
 74
0
 40
0
 40
0
 40
0
 40
0
 40
1
 40
1
 40
1
 40
1
 10
31.347211
 20
14.823427
 30
0.0
 10
31.674103
 20
15.206745
 30
0.0
 10
32.003867
 20
15.589359
 30
0.0
 10
32.296698
 20
15.999287
 30
0.0
  0
SPLINE
  5
150
100
AcDbEntity
  8
0
 62
1
100
AcDbSpline
 70
8
 71
3
 72
8
 73
4
 74
0
 40
0
 40
0
 40
0
 40
0
 40
1
 40
1
 40
1
 40
1
 10
32.296698
 20
15.999287
 30
0.0
 10
32.658908
 20
16.506340
 30
0.0
 10
33.015856
 20
17.023138
 30
0.0
 10
33.291601
 20
17.581943
 30
0.0
  0
SPLINE
  5
151
100
AcDbEntity
  8
0
 62
1
100
AcDbSpline
 70
8
 71
3
 72
8
 73
4
 74
0
 40
0
 40
0
 40
0
 40
0
 40
1
 40
1
 40
1
 40
1
 10
33.291601
 20
17.581943
 30
0.0
 10
33.540642
 20
18.086628
 30
0.0
 10
33.733379
 20
18.621121
 30
0.0
 10
33.879532
 20
19.164599
 30
0.0
  0
SPLINE
  5
152
100
AcDbEntity
  8
0
 62
1
100
AcDbSpline
 70
8
 71
3
 72
8
 73
4
 74
0
 40
0
 40
0
 40
0
 40
0
 40
1
 40
1
 40
1
 40
1
 10
33.879532
 20
19.164599
 30
0.0
 10
34.018538
 20
19.681499
 30
0.0
 10
34.124908
 20
20.212614
 30
0.0
 10
34.150788
 20
20.747254
 30
0.0
  0
SPLINE
  5
153
100
AcDbEntity
  8
0
 62
1
100
AcDbSpline
 70
8
 71
3
 72
8
 73
4
 74
0
 40
0
 40
0
 40
0
 40
0
 40
1
 40
1
 40
1
 40
1
 10
34.150788
 20
20.747254
 30
0.0
 10
34.180749
 20
21.366192
 30
0.0
 10
34.179365
 20
22.003859
 30
0.0
 10
34.015071
 20
22.601344
 30
0.0
  0
SPLINE
  5
154
100
AcDbEntity
  8
0
 62
1
100
AcDbSpline
 70
8
 71
3
 72
8
 73
4
 74
0
 40
0
 40
0
 40
0
 40
0
 40
1
 40
1
 40
1
 40
1
 10
34.015071
 20
22.601344
 30
0.0
 10
33.863152
 20
23.153827
 30
0.0
 10
33.634577
 20
23.717507
 30
0.0
 10
33.246362
 20
24.138939
 30
0.0
  0
SPLINE
  5
155
100
AcDbEntity
  8
0
 62
1
100
AcDbSpline
 70
8
 71
3
 72
8
 73
4
 74
0
 40
0
 40
0
 40
0
 40
0
 40
1
 40
1
 40
1
 40
1
 10
33.246362
 20
24.138939
 30
0.0
 10
32.911830
 20
24.502096
 30
0.0
 10
32.441825
 20
24.732439
 30
0.0
 10
31.980202
 20
24.907648
 30
0.0
  0
SPLINE
  5
156
100
AcDbEntity
  8
0
 62
1
100
AcDbSpline
 70
8
 71
3
 72
8
 73
4
 74
0
 40
0
 40
0
 40
0
 40
0
 40
1
 40
1
 40
1
 40
1
 10
31.980202
 20
24.907648
 30
0.0
 10
31.507526
 20
25.087053
 30
0.0
 10
30.993603
 20
25.179454
 30
0.0
 10
30.488025
 20
25.178904
 30
0.0
  0
SPLINE
  5
157
100
AcDbEntity
  8
0
 62
1
100
AcDbSpline
 70
8
 71
3
 72
8
 73
4
 74
0
 40
0
 40
0
 40
0
 40
0
 40
1
 40
1
 40
1
 40
1
 10
30.488025
 20
25.178904
 30
0.0
 10
29.905599
 20
25.178263
 30
0.0
 10
29.304133
 20
25.093820
 30
0.0
 10
28.769652
 20
24.862408
 30
0.0
  0
SPLINE
  5
158
100
AcDbEntity
  8
0
 62
1
100
AcDbSpline
 70
8
 71
3
 72
8
 73
4
 74
0
 40
0
 40
0
 40
0
 40
0
 40
1
 40
1
 40
1
 40
1
 10
28.769652
 20
24.862408
 30
0.0
 10
28.443192
 20
24.721062
 30
0.0
 10
28.144570
 20
24.524950
 30
0.0
 10
28.144570
 20
24.524950
 30
0.0
  0
SPLINE
  5
159
100
AcDbEntity
  8
0
 62
1
100
AcDbSpline
 70
8
 71
3
 72
8
 73
4
 74
0
 40
0
 40
0
 40
0
 40
0
 40
1
 40
1
 40
1
 40
1
 10
28.144570
 20
24.524950
 30
0.0
 10
28.144570
 20
24.524950
 30
0.0
 10
28.242714
 20
24.825978
 30
0.0
 10
28.303874
 20
25.134721
 30
0.0
  0
SPLINE
  5
15a
100
AcDbEntity
  8
0
 62
1
100
AcDbSpline
 70
8
 71
3
 72
8
 73
4
 74
0
 40
0
 40
0
 40
0
 40
0
 40
1
 40
1
 40
1
 40
1
 10
28.303874
 20
25.134721
 30
0.0
 10
28.362747
 20
25.431918
 30
0.0
 10
28.468576
 20
25.756790
 30
0.0
 10
28.543267
 20
26.050411
 30
0.0
  0
SPLINE
  5
15b
100
AcDbEntity
  8
0
 62
1
100
AcDbSpline
 70
8
 71
3
 72
8
 73
4
 74
0
 40
0
 40
0
 40
0
 40
0
 40
1
 40
1
 40
1
 40
1
 10
28.543267
 20
26.050411
 30
0.0
 10
28.619875
 20
26.351567
 30
0.0
 10
28.775774
 20
26.618280
 30
0.0
 10
28.954287
 20
26.872635
 30
0.0
  0
SPLINE
  5
15c
100
AcDbEntity
  8
0
 62
1
100
AcDbSpline
 70
8
 71
3
 72
8
 73
4
 74
0
 40
0
 40
0
 40
0
 40
0
 40
1
 40
1
 40
1
 40
1
 10
28.954287
 20
26.872635
 30
0.0
 10
29.107483
 20
27.090918
 30
0.0
 10
29.443648
 20
27.366040
 30
0.0
 10
29.443648
 20
27.366040
 30
0.0
  0
SPLINE
  5
15d
100
AcDbEntity
  8
0
 62
1
100
AcDbSpline
 70
8
 71
3
 72
8
 73
4
 74
0
 40
0
 40
0
 40
0
 40
0
 40
1
 40
1
 40
1
 40
1
 10
29.443648
 20
27.366040
 30
0.0
 10
29.443648
 20
27.366040
 30
0.0
 10
29.236799
 20
28.297548
 30
0.0
 10
28.859951
 20
28.344394
 30
0.0
  0
LWPOLYLINE
  5
15e
100
AcDbEntity
  8
0
 62
1
100
AcDbPolyline
 90
2
 70
1
 10
27.141757
 20
24.862408
 30
0.0
 10
26.960800
 20
25.269382
 30
0.0
  0
SPLINE
  5
15f
100
AcDbEntity
  8
0
 62
7
100
AcDbSpline
 70
8
 71
3
 72
8
 73
4
 74
0
 40
0
 40
0
 40
0
 40
0
 40
1
 40
1
 40
1
 40
1
 10
29.103616
 20
28.881478
 30
0.0
 10
29.103616
 20
28.881478
 30
0.0
 10
28.658117
 20
28.607401
 30
0.0
 10
28.464205
 20
28.433890
 30
0.0
  0
SPLINE
  5
160
100
AcDbEntity
  8
0
 62
7
100
AcDbSpline
 70
8
 71
3
 72
8
 73
4
 74
0
 40
0
 40
0
 40
0
 40
0
 40
1
 40
1
 40
1
 40
1
 10
28.464205
 20
28.433890
 30
0.0
 10
28.199694
 20
28.197205
 30
0.0
 10
27.954492
 20
27.932105
 30
0.0
 10
27.760855
 20
27.634629
 30
0.0
  0
SPLINE
  5
161
100
AcDbEntity
  8
0
 62
7
100
AcDbSpline
 70
8
 71
3
 72
8
 73
4
 74
0
 40
0
 40
0
 40
0
 40
0
 40
1
 40
1
 40
1
 40
1
 10
27.760855
 20
27.634629
 30
0.0
 10
27.594350
 20
27.378834
 30
0.0
 10
27.487513
 20
27.087767
 30
0.0
 10
27.376658
 20
26.803397
 30
0.0
  0
SPLINE
  5
162
100
AcDbEntity
  8
0
 62
7
100
AcDbSpline
 70
8
 71
3
 72
8
 73
4
 74
0
 40
0
 40
0
 40
0
 40
0
 40
1
 40
1
 40
1
 40
1
 10
27.376658
 20
26.803397
 30
0.0
 10
27.262802
 20
26.511325
 30
0.0
 10
27.137473
 20
26.217915
 30
0.0
 10
27.088924
 20
25.908222
 30
0.0
  0
SPLINE
  5
163
100
AcDbEntity
  8
0
 62
7
100
AcDbSpline
 70
8
 71
3
 72
8
 73
4
 74
0
 40
0
 40
0
 40
0
 40
0
 40
1
 40
1
 40
1
 40
1
 10
27.088924
 20
25.908222
 30
0.0
 10
27.062513
 20
25.739743
 30
0.0
 10
27.088924
 20
25.396694
 30
0.0
 10
27.088924
 20
25.396694
 30
0.0
  0
SPLINE
  5
164
100
AcDbEntity
  8
0
 62
7
100
AcDbSpline
 70
8
 71
3
 72
8
 73
4
 74
0
 40
0
 40
0
 40
0
 40
0
 40
1
 40
1
 40
1
 40
1
 10
27.088924
 20
25.396694
 30
0.0
 10
27.088924
 20
25.396694
 30
0.0
 10
26.937662
 20
26.256044
 30
0.0
 10
26.705278
 20
26.611573
 30
0.0
  0
SPLINE
  5
165
100
AcDbEntity
  8
0
 62
7
100
AcDbSpline
 70
8
 71
3
 72
8
 73
4
 74
0
 40
0
 40
0
 40
0
 40
0
 40
1
 40
1
 40
1
 40
1
 10
26.705278
 20
26.611573
 30
0.0
 10
26.395328
 20
27.085768
 30
0.0
 10
25.894628
 20
27.411560
 30
0.0
 10
25.426458
 20
27.730539
 30
0.0
  0
SPLINE
  5
166
100
AcDbEntity
  8
0
 62
7
100
AcDbSpline
 70
8
 71
3
 72
8
 73
4
 74
0
 40
0
 40
0
 40
0
 40
0
 40
1
 40
1
 40
1
 40
1
 10
25.426458
 20
27.730539
 30
0.0
 10
25.138868
 20
27.926483
 30
0.0
 10
24.823740
 20
28.084200
 30
0.0
 10
24.499314
 20
28.210097
 30
0.0
  0
SPLINE
  5
167
100
AcDbEntity
  8
0
 62
7
100
AcDbSpline
 70
8
 71
3
 72
8
 73
4
 74
0
 40
0
 40
0
 40
0
 40
0
 40
1
 40
1
 40
1
 40
1
 10
24.499314
 20
28.210097
 30
0.0
 10
24.231764
 20
28.313923
 30
0.0
 10
23.949413
 20
28.379989
 30
0.0
 10
23.667530
 20
28.433890
 30
0.0
  0
SPLINE
  5
168
100
AcDbEntity
  8
0
 62
7
100
AcDbSpline
 70
8
 71
3
 72
8
 73
4
 74
0
 40
0
 40
0
 40
0
 40
0
 40
1
 40
1
 40
1
 40
1
 10
23.667530
 20
28.433890
 30
0.0
 10
23.393534
 20
28.486282
 30
0.0
 10
22.836298
 20
28.529801
 30
0.0
 10
22.836298
 20
28.529801
 30
0.0
  0
SPLINE
  5
169
100
AcDbEntity
  8
0
 62
7
100
AcDbSpline
 70
8
 71
3
 72
8
 73
4
 74
0
 40
0
 40
0
 40
0
 40
0
 40
1
 40
1
 40
1
 40
1
 10
22.836298
 20
28.529801
 30
0.0
 10
22.836298
 20
28.529801
 30
0.0
 10
22.929985
 20
27.642813
 30
0.0
 10
23.060091
 20
27.219011
 30
0.0
  0
SPLINE
  5
16a
100
AcDbEntity
  8
0
 62
7
100
AcDbSpline
 70
8
 71
3
 72
8
 73
4
 74
0
 40
0
 40
0
 40
0
 40
0
 40
1
 40
1
 40
1
 40
1
 10
23.060091
 20
27.219011
 30
0.0
 10
23.135684
 20
26.972781
 30
0.0
 10
23.255559
 20
26.741299
 30
0.0
 10
23.379796
 20
26.515660
 30
0.0
  0
SPLINE
  5
16b
100
AcDbEntity
  8
0
 62
7
100
AcDbSpline
 70
8
 71
3
 72
8
 73
4
 74
0
 40
0
 40
0
 40
0
 40
0
 40
1
 40
1
 40
1
 40
1
 10
23.379796
 20
26.515660
 30
0.0
 10
23.558031
 20
26.191959
 30
0.0
 10
23.743823
 20
25.866066
 30
0.0
 10
23.987786
 20
25.588517
 30
0.0
  0
SPLINE
  5
16c
100
AcDbEntity
  8
0
 62
7
100
AcDbSpline
 70
8
 71
3
 72
8
 73
4
 74
0
 40
0
 40
0
 40
0
 40
0
 40
1
 40
1
 40
1
 40
1
 10
23.987786
 20
25.588517
 30
0.0
 10
24.182414
 20
25.367097
 30
0.0
 10
24.398031
 20
25.149854
 30
0.0
 10
24.659167
 20
25.013049
 30
0.0
  0
SPLINE
  5
16d
100
AcDbEntity
  8
0
 62
7
100
AcDbSpline
 70
8
 71
3
 72
8
 73
4
 74
0
 40
0
 40
0
 40
0
 40
0
 40
1
 40
1
 40
1
 40
1
 10
24.659167
 20
25.013049
 30
0.0
 10
25.254572
 20
24.701126
 30
0.0
 10
26.087486
 20
24.924578
 30
0.0
 10
26.609366
 20
24.500969
 30
0.0
  0
SPLINE
  5
16e
100
AcDbEntity
  8
0
 62
7
100
AcDbSpline
 70
8
 71
3
 72
8
 73
4
 74
0
 40
0
 40
0
 40
0
 40
0
 40
1
 40
1
 40
1
 40
1
 10
26.609366
 20
24.500969
 30
0.0
 10
26.738897
 20
24.395829
 30
0.0
 10
26.695364
 20
24.147432
 30
0.0
 10
26.833160
 20
24.053384
 30
0.0
  0
SPLINE
  5
16f
100
AcDbEntity
  8
0
 62
7
100
AcDbSpline
 70
8
 71
3
 72
8
 73
4
 74
0
 40
0
 40
0
 40
0
 40
0
 40
1
 40
1
 40
1
 40
1
 10
26.833160
 20
24.053384
 30
0.0
 10
27.027634
 20
23.920649
 30
0.0
 10
27.303014
 20
23.959139
 30
0.0
 10
27.536510
 20
23.989441
 30
0.0
  0
SPLINE
  5
170
100
AcDbEntity
  8
0
 62
7
100
AcDbSpline
 70
8
 71
3
 72
8
 73
4
 74
0
 40
0
 40
0
 40
0
 40
0
 40
1
 40
1
 40
1
 40
1
 10
27.536510
 20
23.989441
 30
0.0
 10
27.660228
 20
24.005499
 30
0.0
 10
27.796406
 20
24.033428
 30
0.0
 10
27.888737
 20
24.117324
 30
0.0
  0
SPLINE
  5
171
100
AcDbEntity
  8
0
 62
7
100
AcDbSpline
 70
8
 71
3
 72
8
 73
4
 74
0
 40
0
 40
0
 40
0
 40
0
 40
1
 40
1
 40
1
 40
1
 10
27.888737
 20
24.117324
 30
0.0
 10
28.072217
 20
24.284041
 30
0.0
 10
28.473648
 20
24.607524
 30
0.0
 10
28.556811
 20
24.841069
 30
0.0
  0
SPLINE
  5
172
100
AcDbEntity
  8
0
 62
7
100
AcDbSpline
 70
8
 71
3
 72
8
 73
4
 74
0
 40
0
 40
0
 40
0
 40
0
 40
1
 40
1
 40
1
 40
1
 10
28.556811
 20
24.841069
 30
0.0
 10
28.722441
 20
25.306216
 30
0.0
 10
28.588098
 20
25.688768
 30
0.0
 10
28.786667
 20
26.140835
 30
0.0
  0
SPLINE
  5
173
100
AcDbEntity
  8
0
 62
7
100
AcDbSpline
 70
8
 71
3
 72
8
 73
4
 74
0
 40
0
 40
0
 40
0
 40
0
 40
1
 40
1
 40
1
 40
1
 10
28.786667
 20
26.140835
 30
0.0
 10
28.925760
 20
26.457502
 30
0.0
 10
29.002629
 20
26.648047
 30
0.0
 10
29.240316
 20
26.899307
 30
0.0
  0
SPLINE
  5
174
100
AcDbEntity
  8
0
 62
7
100
AcDbSpline
 70
8
 71
3
 72
8
 73
4
 74
0
 40
0
 40
0
 40
0
 40
0
 40
1
 40
1
 40
1
 40
1
 10
29.240316
 20
26.899307
 30
0.0
 10
29.386809
 20
27.054162
 30
0.0
 10
29.751844
 20
27.213499
 30
0.0
 10
29.751844
 20
27.213499
 30
0.0
  0
LWPOLYLINE
  5
175
100
AcDbEntity
  8
0
 62
1
100
AcDbPolyline
 90
2
 70
1
 10
28.859951
 20
28.344394
 30
0.0
 10
28.859951
 20
28.344394
 30
0.0
  0
LWPOLYLINE
  5
176
100
AcDbEntity
  8
0
 62
7
100
AcDbPolyline
 90
3
 70
0
 10
29.751844
 20
27.213499
 30
0.0
 10
29.103616
 20
28.881478
 30
0.0
 10
29.103616
 20
28.881478
 30
0.0
  0
ENDSEC
  0
SECTION
  2
OBJECTS
  0
DICTIONARY
  5
C
330
0
100
AcDbDictionary
  3
ACAD_GROUP
350
D
  3
ACAD_MLINESTYLE
350
17
  0
DICTIONARY
  5
D
330
C
100
AcDbDictionary
  0
DICTIONARY
  5
1A
330
C
100
AcDbDictionary
  0
DICTIONARY
  5
17
330
C
100
AcDbDictionary
  3
STANDARD
350
18
  0
DICTIONARY
  5
19
330
C
100
AcDbDictionary
  0
ENDSEC
  0
EOF
