  0
SECTION
  2
HEADER
  9
$ACADVER
  1
AC1014
  9
$HANDSEED
  5
FFFF
  9
$MEASUREMENT
 70
     1
  0
ENDSEC
  0
SECTION
  2
TABLES
  0
TABLE
  2
VPORT
  5
8
330
0
100
AcDbSymbolTable
 70
     4
  0
VPORT
  5
2E
330
8
100
AcDbSymbolTableRecord
100
AcDbViewportTableRecord
  2
*ACTIVE
 70
     0
 10
0.0
 20
0.0
 11
1.0
 21
1.0
 12
210.0
 22
148.5
 13
0.0
 23
0.0
 14
10.0
 24
10.0
 15
10.0
 25
10.0
 16
0.0
 26
0.0
 36
1.0
 17
0.0
 27
0.0
 37
0.0
 40
341.0
 41
1.24
 42
50.0
 43
0.0
 44
0.0
 50
0.0
 51
0.0
 71
     0
 72
   100
 73
     1
 74
     3
 75
     0
 76
     0
 77
     0
 78
     0
  0
ENDTAB
  0
TABLE
  2
LTYPE
  5
5
330
0
100
AcDbSymbolTable
 70
     1
  0
LTYPE
  5
14
330
5
100
AcDbSymbolTableRecord
100
AcDbLinetypeTableRecord
  2
BYBLOCK
 70
     0
  3

 72
    65
 73
     0
 40
0.0
  0
LTYPE
  5
15
330
5
100
AcDbSymbolTableRecord
100
AcDbLinetypeTableRecord
  2
BYLAYER
 70
     0
  3

 72
    65
 73
     0
 40
0.0
  0
LTYPE
  5
16
330
5
100
AcDbSymbolTableRecord
100
AcDbLinetypeTableRecord
  2
CONTINUOUS
 70
     0
  3
Solid line
 72
    65
 73
     0
 40
0.0
  0
ENDTAB
  0
TABLE
  2
LAYER
  5
2
100
AcDbSymbolTable
 70
1
  0
LAYER
  5
50
100
AcDbSymbolTableRecord
100
AcDbLayerTableRecord
  2
0
 70
0
  6
CONTINUOUS
  0
ENDTAB
  0
TABLE
  2
STYLE
  5
3
330
0
100
AcDbSymbolTable
 70
     1
  0
STYLE
  5
11
330
3
100
AcDbSymbolTableRecord
100
AcDbTextStyleTableRecord
  2
STANDARD
 70
     0
 40
0.0
 41
1.0
 50
0.0
 71
     0
 42
2.5
  3
txt
  4

  0
ENDTAB
  0
TABLE
  2
VIEW
  5
6
330
0
100
AcDbSymbolTable
 70
     0
  0
ENDTAB
  0
TABLE
  2
UCS
  5
7
330
0
100
AcDbSymbolTable
 70
     0
  0
ENDTAB
  0
TABLE
  2
APPID
  5
9
330
0
100
AcDbSymbolTable
 70
     2
  0
APPID
  5
12
330
9
100
AcDbSymbolTableRecord
100
AcDbRegAppTableRecord
  2
ACAD
 70
     0
  0
ENDTAB
  0
TABLE
  2
DIMSTYLE
  5
A
330
0
100
AcDbSymbolTable
 70
     1
  0
DIMSTYLE
105
27
330
A
100
AcDbSymbolTableRecord
100
AcDbDimStyleTableRecord
  2
ISO-25
 70
     0
  3

  4

  5

  6

  7

 40
1.0
 41
2.5
 42
0.625
 43
3.75
 44
1.25
 45
0.0
 46
0.0
 47
0.0
 48
0.0
140
2.5
141
2.5
142
0.0
143
0.03937007874016
144
1.0
145
0.0
146
1.0
147
0.625
 71
     0
 72
     0
 73
     0
 74
     0
 75
     0
 76
     0
 77
     1
 78
     8
170
     0
171
     3
172
     1
173
     0
174
     0
175
     0
176
     0
177
     0
178
     0
270
     2
271
     2
272
     2
273
     2
274
     3
340
11
275
     0
280
     0
281
     0
282
     0
283
     0
284
     8
285
     0
286
     0
287
     3
288
     0
  0
ENDTAB
  0
TABLE
  2
BLOCK_RECORD
  5
1
330
0
100
AcDbSymbolTable
 70
     1
  0
BLOCK_RECORD
  5
1F
330
1
100
AcDbSymbolTableRecord
100
AcDbBlockTableRecord
  2
*MODEL_SPACE
  0
BLOCK_RECORD
  5
1B
330
1
100
AcDbSymbolTableRecord
100
AcDbBlockTableRecord
  2
*PAPER_SPACE
  0
ENDTAB
  0
ENDSEC
  0
SECTION
  2
BLOCKS
  0
BLOCK
  5
20
330
1F
100
AcDbEntity
  8
0
100
AcDbBlockBegin
  2
*MODEL_SPACE
 70
     0
 10
0.0
 20
0.0
 30
0.0
  3
*MODEL_SPACE
  1

  0
ENDBLK
  5
21
330
1F
100
AcDbEntity
  8
0
100
AcDbBlockEnd
  0
BLOCK
  5
1C
330
1B
100
AcDbEntity
 67
     1
  8
0
100
AcDbBlockBegin
  2
*PAPER_SPACE
  1

  0
ENDBLK
  5
1D
330
1B
100
AcDbEntity
 67
     1
  8
0
100
AcDbBlockEnd
  0
ENDSEC
  0
SECTION
  2
ENTITIES
  0
LWPOLYLINE
  5
100
100
AcDbEntity
  8
0
 62
1
100
AcDbPolyline
 90
45
 70
0
 10
45.048068
 20
45.961433
 30
0.0
 10
44.666670
 20
44.915476
 30
0.0
 10
44.347383
 20
43.783369
 30
0.0
 10
44.133550
 20
42.608445
 30
0.0
 10
44.068513
 20
41.434041
 30
0.0
 10
44.195614
 20
40.303490
 30
0.0
 10
44.558197
 20
39.260129
 30
0.0
 10
44.841339
 20
38.784687
 30
0.0
 10
45.199604
 20
38.347292
 30
0.0
 10
45.638410
 20
37.953363
 30
0.0
 10
46.163176
 20
37.608315
 30
0.0
 10
47.063964
 20
37.261158
 30
0.0
 10
47.996219
 20
37.166407
 30
0.0
 10
48.917245
 20
37.300939
 30
0.0
 10
49.784340
 20
37.641634
 30
0.0
 10
50.554806
 20
38.165370
 30
0.0
 10
51.185943
 20
38.849027
 30
0.0
 10
51.635054
 20
39.669484
 30
0.0
 10
51.859437
 20
40.603619
 30
0.0
 10
51.879905
 20
42.046268
 30
0.0
 10
51.665964
 20
43.486313
 30
0.0
 10
51.287208
 20
44.882203
 30
0.0
 10
50.813231
 20
46.192392
 30
0.0
 10
51.213301
 20
44.282389
 30
0.0
 10
51.367361
 20
43.269240
 30
0.0
 10
51.433046
 20
42.255986
 30
0.0
 10
51.367062
 20
41.271625
 30
0.0
 10
51.126117
 20
40.345152
 30
0.0
 10
50.666917
 20
39.505563
 30
0.0
 10
49.946168
 20
38.781855
 30
0.0
 10
49.146157
 20
38.319225
 30
0.0
 10
48.279043
 20
38.135949
 30
0.0
 10
47.397382
 20
38.203787
 30
0.0
 10
46.553734
 20
38.494499
 30
0.0
 10
45.800654
 20
38.979845
 30
0.0
 10
45.190701
 20
39.631588
 30
0.0
 10
44.776432
 20
40.421486
 30
0.0
 10
44.610404
 20
41.321301
 30
0.0
 10
44.587049
 20
42.599268
 30
0.0
 10
44.695259
 20
43.868479
 30
0.0
 10
44.908354
 20
45.126385
 30
0.0
 10
45.199653
 20
46.370435
 30
0.0
 10
45.101575
 20
46.105801
 30
0.0
 10
45.048068
 20
45.961433
 30
0.0
 10
45.048068
 20
45.961433
 30
0.0
  0
LWPOLYLINE
  5
101
100
AcDbEntity
  8
0
 62
1
100
AcDbPolyline
 90
42
 70
0
 10
39.352911
 20
50.846301
 30
0.0
 10
37.372270
 20
49.837231
 30
0.0
 10
36.397784
 20
49.202205
 30
0.0
 10
35.513620
 20
48.471443
 30
0.0
 10
34.779603
 20
47.638390
 30
0.0
 10
34.255558
 20
46.696490
 30
0.0
 10
34.001309
 20
45.639186
 30
0.0
 10
33.994053
 20
45.065209
 30
0.0
 10
34.076680
 20
44.459923
 30
0.0
 10
34.223856
 20
43.918120
 30
0.0
 10
34.448570
 20
43.422797
 30
0.0
 10
35.095847
 20
42.580872
 30
0.0
 10
35.948988
 20
41.952708
 30
0.0
 10
36.938469
 20
41.556865
 30
0.0
 10
37.994764
 20
41.411905
 30
0.0
 10
39.048352
 20
41.536387
 30
0.0
 10
40.029707
 20
41.948872
 30
0.0
 10
40.471571
 20
42.268917
 30
0.0
 10
40.869306
 20
42.667922
 30
0.0
 10
41.721467
 20
43.656858
 30
0.0
 10
42.445094
 20
44.743683
 30
0.0
 10
43.643019
 20
47.062209
 30
0.0
 10
42.554509
 20
45.380774
 30
0.0
 10
41.937478
 20
44.534661
 30
0.0
 10
41.257038
 20
43.751873
 30
0.0
 10
40.502017
 20
43.082602
 30
0.0
 10
39.661245
 20
42.577041
 30
0.0
 10
38.723553
 20
42.285382
 30
0.0
 10
37.677770
 20
42.257816
 30
0.0
 10
36.835199
 20
42.463270
 30
0.0
 10
36.114631
 20
42.891200
 30
0.0
 10
35.535182
 20
43.493964
 30
0.0
 10
35.115972
 20
44.223925
 30
0.0
 10
34.876116
 20
45.033443
 30
0.0
 10
34.834732
 20
45.874878
 30
0.0
 10
35.010938
 20
46.700591
 30
0.0
 10
35.423850
 20
47.462942
 30
0.0
 10
36.283618
 20
48.504229
 30
0.0
 10
37.298221
 20
49.394721
 30
0.0
 10
39.530954
 20
50.927330
 30
0.0
 10
39.352911
 20
50.846301
 30
0.0
 10
39.352911
 20
50.846301
 30
0.0
  0
LWPOLYLINE
  5
102
100
AcDbEntity
  8
0
 62
1
100
AcDbPolyline
 90
42
 70
0
 10
56.802184
 20
50.715664
 30
0.0
 10
58.377695
 20
49.635589
 30
0.0
 10
59.160997
 20
49.016705
 30
0.0
 10
59.875759
 20
48.335893
 30
0.0
 10
60.472802
 20
47.586133
 30
0.0
 10
60.902948
 20
46.760401
 30
0.0
 10
61.117018
 20
45.851676
 30
0.0
 10
61.065833
 20
44.852937
 30
0.0
 10
60.796600
 20
44.005387
 30
0.0
 10
60.304706
 20
43.306487
 30
0.0
 10
59.642054
 20
42.770095
 30
0.0
 10
58.860546
 20
42.410068
 30
0.0
 10
58.012084
 20
42.240265
 30
0.0
 10
57.148571
 20
42.274543
 30
0.0
 10
56.321908
 20
42.526761
 30
0.0
 10
55.583997
 20
43.010777
 30
0.0
 10
54.663194
 20
43.849345
 30
0.0
 10
53.859512
 20
44.800371
 30
0.0
 10
52.452544
 20
46.861016
 30
0.0
 10
53.448591
 20
44.894679
 30
0.0
 10
54.060346
 20
43.923688
 30
0.0
 10
54.761605
 20
43.036087
 30
0.0
 10
55.562632
 20
42.288328
 30
0.0
 10
56.473689
 20
41.736864
 30
0.0
 10
57.505039
 20
41.438147
 30
0.0
 10
58.069031
 20
41.401211
 30
0.0
 10
58.666944
 20
41.448632
 30
0.0
 10
59.674693
 20
41.731176
 30
0.0
 10
60.535114
 20
42.277381
 30
0.0
 10
61.221581
 20
43.028044
 30
0.0
 10
61.707468
 20
43.923958
 30
0.0
 10
61.966148
 20
44.905919
 30
0.0
 10
61.970995
 20
45.914722
 30
0.0
 10
61.695384
 20
46.891162
 30
0.0
 10
61.444086
 20
47.348744
 30
0.0
 10
61.112688
 20
47.776034
 30
0.0
 10
60.144792
 20
48.745282
 30
0.0
 10
59.032570
 20
49.550078
 30
0.0
 10
57.837995
 20
50.231285
 30
0.0
 10
56.623037
 20
50.829766
 30
0.0
 10
56.802184
 20
50.715664
 30
0.0
 10
56.802184
 20
50.715664
 30
0.0
  0
LWPOLYLINE
  5
103
100
AcDbEntity
  8
0
 62
1
100
AcDbPolyline
 90
42
 70
0
 10
61.690360
 20
59.325645
 30
0.0
 10
60.402189
 20
59.178021
 30
0.0
 10
59.140046
 20
58.886059
 30
0.0
 10
56.682019
 20
58.054545
 30
0.0
 10
58.642724
 20
58.507170
 30
0.0
 10
59.675281
 20
58.707018
 30
0.0
 10
60.711045
 20
58.826818
 30
0.0
 10
61.726321
 20
58.819768
 30
0.0
 10
62.697413
 20
58.639062
 30
0.0
 10
63.600625
 20
58.237899
 30
0.0
 10
64.412261
 20
57.569475
 30
0.0
 10
64.910938
 20
56.828177
 30
0.0
 10
65.163609
 20
55.999879
 30
0.0
 10
65.188047
 20
55.135442
 30
0.0
 10
65.002030
 20
54.285725
 30
0.0
 10
64.623332
 20
53.501589
 30
0.0
 10
64.069730
 20
52.833892
 30
0.0
 10
63.358999
 20
52.333495
 30
0.0
 10
62.508915
 20
52.051258
 30
0.0
 10
61.785349
 20
51.928217
 30
0.0
 10
61.060646
 20
51.897235
 30
0.0
 10
59.612205
 20
52.040831
 30
0.0
 10
56.749817
 20
52.655941
 30
0.0
 10
58.869666
 20
51.921853
 30
0.0
 10
60.000304
 20
51.648251
 30
0.0
 10
61.142482
 20
51.492354
 30
0.0
 10
62.269498
 20
51.495720
 30
0.0
 10
63.354649
 20
51.699908
 30
0.0
 10
64.371234
 20
52.146475
 30
0.0
 10
65.292551
 20
52.876981
 30
0.0
 10
65.619579
 20
53.311167
 30
0.0
 10
65.866530
 20
53.779670
 30
0.0
 10
66.132641
 20
54.786321
 30
0.0
 10
66.115772
 20
55.830326
 30
0.0
 10
65.840808
 20
56.845075
 30
0.0
 10
65.332637
 20
57.763960
 30
0.0
 10
64.616145
 20
58.520372
 30
0.0
 10
63.716217
 20
59.047703
 30
0.0
 10
63.205243
 20
59.204648
 30
0.0
 10
62.657742
 20
59.279344
 30
0.0
 10
61.690360
 20
59.325645
 30
0.0
 10
61.690360
 20
59.325645
 30
0.0
  0
LWPOLYLINE
  5
104
100
AcDbEntity
  8
0
 62
1
100
AcDbPolyline
 90
44
 70
0
 10
33.758076
 20
59.323952
 30
0.0
 10
33.131147
 20
59.304284
 30
0.0
 10
32.545754
 20
59.179859
 30
0.0
 10
32.006036
 20
58.961557
 30
0.0
 10
31.516132
 20
58.660258
 30
0.0
 10
31.080182
 20
58.286843
 30
0.0
 10
30.702325
 20
57.852191
 30
0.0
 10
30.137450
 20
56.842700
 30
0.0
 10
29.854620
 20
55.718826
 30
0.0
 10
29.886952
 20
54.567612
 30
0.0
 10
30.031652
 20
54.008953
 30
0.0
 10
30.267561
 20
53.476099
 30
0.0
 10
30.598818
 20
52.979931
 30
0.0
 10
31.029563
 20
52.531329
 30
0.0
 10
31.945435
 20
51.887824
 30
0.0
 10
32.939487
 20
51.522279
 30
0.0
 10
33.989151
 20
51.390241
 30
0.0
 10
35.071860
 20
51.447259
 30
0.0
 10
36.165047
 20
51.648881
 30
0.0
 10
37.246145
 20
51.950654
 30
0.0
 10
39.281806
 20
52.676848
 30
0.0
 10
37.315803
 20
52.223371
 30
0.0
 10
36.282013
 20
52.025197
 30
0.0
 10
35.246202
 20
51.908715
 30
0.0
 10
34.232254
 20
51.920909
 30
0.0
 10
33.264047
 20
52.108764
 30
0.0
 10
32.365462
 20
52.519266
 30
0.0
 10
31.560381
 20
53.199400
 30
0.0
 10
31.036167
 20
53.973983
 30
0.0
 10
30.789776
 20
54.832537
 30
0.0
 10
30.796201
 20
55.721729
 30
0.0
 10
31.030438
 20
56.588226
 30
0.0
 10
31.467482
 20
57.378696
 30
0.0
 10
32.082326
 20
58.039805
 30
0.0
 10
32.849967
 20
58.518221
 30
0.0
 10
33.745399
 20
58.760611
 30
0.0
 10
35.117952
 20
58.844888
 30
0.0
 10
36.485103
 20
58.689324
 30
0.0
 10
39.181484
 20
58.088680
 30
0.0
 10
37.866537
 20
58.561545
 30
0.0
 10
36.523103
 20
58.964818
 30
0.0
 10
35.153008
 20
59.238840
 30
0.0
 10
33.758076
 20
59.323952
 30
0.0
 10
33.758076
 20
59.323952
 30
0.0
  0
LWPOLYLINE
  5
105
100
AcDbEntity
  8
0
 62
1
100
AcDbPolyline
 90
45
 70
0
 10
57.796024
 20
69.335125
 30
0.0
 10
56.759991
 20
69.111528
 30
0.0
 10
55.857380
 20
68.662289
 30
0.0
 10
55.072039
 20
68.030373
 30
0.0
 10
54.387813
 20
67.258748
 30
0.0
 10
53.788549
 20
66.390377
 30
0.0
 10
53.258093
 20
65.468228
 30
0.0
 10
52.338992
 20
63.634456
 30
0.0
 10
53.430515
 20
65.337304
 30
0.0
 10
54.056272
 20
66.192717
 30
0.0
 10
54.748186
 20
66.982368
 30
0.0
 10
55.515879
 20
67.654942
 30
0.0
 10
56.368972
 20
68.159122
 30
0.0
 10
57.317085
 20
68.443593
 30
0.0
 10
58.369841
 20
68.457039
 30
0.0
 10
59.071555
 20
68.267608
 30
0.0
 10
59.694479
 20
67.931004
 30
0.0
 10
60.224694
 20
67.471275
 30
0.0
 10
60.648284
 20
66.912470
 30
0.0
 10
60.951330
 20
66.278639
 30
0.0
 10
61.119916
 20
65.593832
 30
0.0
 10
61.140123
 20
64.882096
 30
0.0
 10
60.998035
 20
64.167481
 30
0.0
 10
60.615784
 20
63.397044
 30
0.0
 10
60.122317
 20
62.708890
 30
0.0
 10
59.539724
 20
62.090281
 30
0.0
 10
58.890095
 20
61.528479
 30
0.0
 10
57.478085
 20
60.524349
 30
0.0
 10
56.063004
 20
59.594600
 30
0.0
 10
58.025425
 20
60.574447
 30
0.0
 10
59.017439
 20
61.146668
 30
0.0
 10
59.947344
 20
61.796405
 30
0.0
 10
60.763156
 20
62.540643
 30
0.0
 10
61.412893
 20
63.396371
 30
0.0
 10
61.844571
 20
64.380576
 30
0.0
 10
62.006206
 20
65.510243
 30
0.0
 10
61.903322
 20
66.307486
 30
0.0
 10
61.639744
 20
67.054714
 30
0.0
 10
61.235333
 20
67.731343
 30
0.0
 10
60.709955
 20
68.316792
 30
0.0
 10
60.083471
 20
68.790477
 30
0.0
 10
59.375746
 20
69.131816
 30
0.0
 10
58.606642
 20
69.320226
 30
0.0
 10
57.796024
 20
69.335125
 30
0.0
 10
57.796024
 20
69.335125
 30
0.0
  0
LWPOLYLINE
  5
106
100
AcDbEntity
  8
0
 62
1
100
AcDbPolyline
 90
42
 70
0
 10
37.750530
 20
69.343930
 30
0.0
 10
37.181886
 20
69.293980
 30
0.0
 10
36.646491
 20
69.156681
 30
0.0
 10
35.691542
 20
68.654570
 30
0.0
 10
34.917870
 20
67.906674
 30
0.0
 10
34.357663
 20
66.982066
 30
0.0
 10
34.043108
 20
65.949822
 30
0.0
 10
34.006393
 20
64.879016
 30
0.0
 10
34.102284
 20
64.350739
 30
0.0
 10
34.279706
 20
63.838724
 30
0.0
 10
34.542681
 20
63.351606
 30
0.0
 10
34.895234
 20
62.898020
 30
0.0
 10
35.901858
 20
61.909405
 30
0.0
 10
37.037778
 20
61.101841
 30
0.0
 10
38.260529
 20
60.419286
 30
0.0
 10
39.527647
 20
59.805703
 30
0.0
 10
37.932692
 20
60.889146
 30
0.0
 10
37.119451
 20
61.488350
 30
0.0
 10
36.361564
 20
62.142840
 30
0.0
 10
35.708431
 20
62.865337
 30
0.0
 10
35.209449
 20
63.668566
 30
0.0
 10
34.914017
 20
64.565247
 30
0.0
 10
34.871533
 20
65.568105
 30
0.0
 10
35.063820
 20
66.478904
 30
0.0
 10
35.517730
 20
67.242462
 30
0.0
 10
36.173640
 20
67.840456
 30
0.0
 10
36.971927
 20
68.254564
 30
0.0
 10
37.852966
 20
68.466466
 30
0.0
 10
38.757134
 20
68.457840
 30
0.0
 10
39.624807
 20
68.210364
 30
0.0
 10
40.396363
 20
67.705718
 30
0.0
 10
41.371278
 20
66.817451
 30
0.0
 10
42.208881
 20
65.798988
 30
0.0
 10
43.674439
 20
63.598064
 30
0.0
 10
42.695627
 20
65.527543
 30
0.0
 10
42.119935
 20
66.501720
 30
0.0
 10
41.465783
 20
67.411420
 30
0.0
 10
40.717468
 20
68.203568
 30
0.0
 10
39.859289
 20
68.825086
 30
0.0
 10
38.875544
 20
69.222899
 30
0.0
 10
37.750530
 20
69.343930
 30
0.0
 10
37.750530
 20
69.343930
 30
0.0
  0
LWPOLYLINE
  5
107
100
AcDbEntity
  8
0
 62
1
100
AcDbPolyline
 90
42
 70
0
 10
47.704375
 20
73.498439
 30
0.0
 10
46.788549
 20
73.375713
 30
0.0
 10
45.987934
 20
73.027145
 30
0.0
 10
45.311440
 20
72.491863
 30
0.0
 10
44.767981
 20
71.808997
 30
0.0
 10
44.366468
 20
71.017675
 30
0.0
 10
44.115815
 20
70.157026
 30
0.0
 10
44.024933
 20
69.266180
 30
0.0
 10
44.102734
 20
68.384265
 30
0.0
 10
44.255029
 20
67.341369
 30
0.0
 10
44.516804
 20
66.324248
 30
0.0
 10
45.204064
 20
64.324013
 30
0.0
 10
44.792434
 20
66.268014
 30
0.0
 10
44.626607
 20
67.297719
 30
0.0
 10
44.545746
 20
68.328814
 30
0.0
 10
44.593579
 20
69.333493
 30
0.0
 10
44.813838
 20
70.283946
 30
0.0
 10
45.250251
 20
71.152364
 30
0.0
 10
45.946548
 20
71.910939
 30
0.0
 10
46.725239
 20
72.368077
 30
0.0
 10
47.571727
 20
72.569865
 30
0.0
 10
48.437414
 20
72.538040
 30
0.0
 10
49.273700
 20
72.294338
 30
0.0
 10
50.031988
 20
71.860499
 30
0.0
 10
50.663677
 20
71.258258
 30
0.0
 10
51.120170
 20
70.509353
 30
0.0
 10
51.352868
 20
69.635522
 30
0.0
 10
51.438535
 20
68.339045
 30
0.0
 10
51.294933
 20
66.958645
 30
0.0
 10
50.870005
 20
64.649782
 30
0.0
 10
51.536278
 20
66.700665
 30
0.0
 10
51.773969
 20
67.796756
 30
0.0
 10
51.893268
 20
68.898947
 30
0.0
 10
51.853101
 20
69.976491
 30
0.0
 10
51.612398
 20
70.998638
 30
0.0
 10
51.130085
 20
71.934640
 30
0.0
 10
50.365090
 20
72.753748
 30
0.0
 10
49.765700
 20
73.126008
 30
0.0
 10
49.105137
 20
73.366075
 30
0.0
 10
48.409372
 20
73.486150
 30
0.0
 10
47.704375
 20
73.498439
 30
0.0
 10
47.704375
 20
73.498439
 30
0.0
  0
LWPOLYLINE
  5
108
100
AcDbEntity
  8
0
 62
1
100
AcDbPolyline
 90
154
 70
0
 10
48.171255
 20
75.363203
 30
0.0
 10
46.995721
 20
75.285118
 30
0.0
 10
45.856150
 20
74.991132
 30
0.0
 10
45.113394
 20
74.657626
 30
0.0
 10
44.439530
 20
74.228581
 30
0.0
 10
43.841049
 20
73.712643
 30
0.0
 10
43.324442
 20
73.118458
 30
0.0
 10
42.896198
 20
72.454671
 30
0.0
 10
42.562809
 20
71.729931
 30
0.0
 10
42.330764
 20
70.952881
 30
0.0
 10
42.206553
 20
70.132169
 30
0.0
 10
42.111744
 20
69.424959
 30
0.0
 10
41.582577
 20
69.870343
 30
0.0
 10
40.488738
 20
70.621106
 30
0.0
 10
39.300548
 20
71.097899
 30
0.0
 10
38.005257
 20
71.215951
 30
0.0
 10
36.652508
 20
71.100721
 30
0.0
 10
35.468169
 20
70.678161
 30
0.0
 10
34.351471
 20
69.957795
 30
0.0
 10
33.397376
 20
69.015832
 30
0.0
 10
32.700846
 20
67.928479
 30
0.0
 10
32.366924
 20
67.044820
 30
0.0
 10
32.174841
 20
66.121573
 30
0.0
 10
32.128213
 20
65.187451
 30
0.0
 10
32.230658
 20
64.271164
 30
0.0
 10
32.425604
 20
63.577734
 30
0.0
 10
32.726057
 20
62.859654
 30
0.0
 10
33.096311
 20
62.190831
 30
0.0
 10
33.500658
 20
61.645173
 30
0.0
 10
33.906906
 20
61.189870
 30
0.0
 10
33.436168
 20
61.140261
 30
0.0
 10
32.197034
 20
60.840400
 30
0.0
 10
30.687089
 20
60.186448
 30
0.0
 10
30.057761
 20
59.779440
 30
0.0
 10
29.511207
 20
59.318132
 30
0.0
 10
29.046684
 20
58.801816
 30
0.0
 10
28.663451
 20
58.229786
 30
0.0
 10
28.360766
 20
57.601332
 30
0.0
 10
28.137886
 20
56.915747
 30
0.0
 10
27.999337
 20
55.480942
 30
0.0
 10
28.097648
 20
54.033443
 30
0.0
 10
28.338861
 20
53.223265
 30
0.0
 10
28.690944
 20
52.472464
 30
0.0
 10
29.159377
 20
51.771379
 30
0.0
 10
29.749640
 20
51.110348
 30
0.0
 10
30.507044
 20
50.472858
 30
0.0
 10
31.315718
 20
50.010212
 30
0.0
 10
32.192429
 20
49.714815
 30
0.0
 10
33.153945
 20
49.579073
 30
0.0
 10
33.907456
 20
49.534976
 30
0.0
 10
33.495147
 20
49.075811
 30
0.0
 10
33.093581
 20
48.535717
 30
0.0
 10
32.726100
 20
47.870864
 30
0.0
 10
32.427159
 20
47.152814
 30
0.0
 10
32.231211
 20
46.453131
 30
0.0
 10
32.137031
 20
45.121986
 30
0.0
 10
32.323264
 20
43.792967
 30
0.0
 10
32.583433
 20
43.050428
 30
0.0
 10
32.946748
 20
42.349411
 30
0.0
 10
33.402022
 20
41.700669
 30
0.0
 10
33.938071
 20
41.114958
 30
0.0
 10
34.543707
 20
40.603031
 30
0.0
 10
35.207746
 20
40.175645
 30
0.0
 10
35.919002
 20
39.843552
 30
0.0
 10
36.666289
 20
39.617509
 30
0.0
 10
37.402532
 20
39.520433
 30
0.0
 10
38.241863
 20
39.511559
 30
0.0
 10
39.056565
 20
39.585840
 30
0.0
 10
39.718920
 20
39.738227
 30
0.0
 10
40.695457
 20
40.199905
 30
0.0
 10
41.639355
 20
40.896881
 30
0.0
 10
42.127178
 20
41.324073
 30
0.0
 10
42.223092
 20
40.473548
 30
0.0
 10
42.359447
 20
39.622653
 30
0.0
 10
42.575170
 20
38.901310
 30
0.0
 10
42.898592
 20
38.236414
 30
0.0
 10
43.358043
 20
37.554862
 30
0.0
 10
44.062506
 20
36.791982
 30
0.0
 10
44.912660
 20
36.169576
 30
0.0
 10
45.879301
 20
35.705133
 30
0.0
 10
46.933225
 20
35.416146
 30
0.0
 10
48.221965
 20
35.372048
 30
0.0
 10
49.377626
 20
35.502878
 30
0.0
 10
50.386937
 20
35.812502
 30
0.0
 10
51.295339
 20
36.320271
 30
0.0
 10
52.148272
 20
37.045539
 30
0.0
 10
52.854606
 20
37.884192
 30
0.0
 10
53.365909
 20
38.787710
 30
0.0
 10
53.676707
 20
39.743842
 30
0.0
 10
53.781523
 20
40.740336
 30
0.0
 10
53.829481
 20
41.299268
 30
0.0
 10
54.381245
 20
40.848923
 30
0.0
 10
55.551170
 20
40.077760
 30
0.0
 10
56.214295
 20
39.770669
 30
0.0
 10
56.790057
 20
39.588846
 30
0.0
 10
57.724799
 20
39.491301
 30
0.0
 10
58.723432
 20
39.544833
 30
0.0
 10
59.692443
 20
39.737781
 30
0.0
 10
60.538320
 20
40.058481
 30
0.0
 10
61.693815
 20
40.813540
 30
0.0
 10
62.612720
 20
41.763671
 30
0.0
 10
63.284483
 20
42.862547
 30
0.0
 10
63.698550
 20
44.063842
 30
0.0
 10
63.844368
 20
45.321228
 30
0.0
 10
63.711383
 20
46.588380
 30
0.0
 10
63.289042
 20
47.818970
 30
0.0
 10
62.566793
 20
48.966673
 30
0.0
 10
62.125270
 20
49.516233
 30
0.0
 10
62.571754
 20
49.574662
 30
0.0
 10
64.027293
 20
49.974218
 30
0.0
 10
65.429805
 20
50.609294
 30
0.0
 10
66.405909
 20
51.345712
 30
0.0
 10
67.139110
 20
52.205809
 30
0.0
 10
67.642736
 20
53.209675
 30
0.0
 10
67.930118
 20
54.377401
 30
0.0
 10
67.995496
 20
55.669209
 30
0.0
 10
67.817306
 20
56.908710
 30
0.0
 10
67.405997
 20
58.053475
 30
0.0
 10
66.772014
 20
59.061076
 30
0.0
 10
65.950781
 20
59.914497
 30
0.0
 10
65.032569
 20
60.545742
 30
0.0
 10
64.012700
 20
60.957344
 30
0.0
 10
62.886497
 20
61.151838
 30
0.0
 10
62.125270
 20
61.208062
 30
0.0
 10
62.568997
 20
61.760379
 30
0.0
 10
63.290392
 20
62.910685
 30
0.0
 10
63.710476
 20
64.147257
 30
0.0
 10
63.840379
 20
65.421570
 30
0.0
 10
63.691232
 20
66.685099
 30
0.0
 10
63.274165
 20
67.889317
 30
0.0
 10
62.600308
 20
68.985699
 30
0.0
 10
61.680791
 20
69.925720
 30
0.0
 10
60.526744
 20
70.660853
 30
0.0
 10
59.864940
 20
70.938810
 30
0.0
 10
59.210746
 20
71.114509
 30
0.0
 10
58.509272
 20
71.198565
 30
0.0
 10
57.705625
 20
71.201593
 30
0.0
 10
56.845151
 20
71.130585
 30
0.0
 10
56.214589
 20
70.959610
 30
0.0
 10
55.212415
 20
70.475167
 30
0.0
 10
54.313997
 20
69.813083
 30
0.0
 10
53.829481
 20
69.425027
 30
0.0
 10
53.781523
 20
69.983960
 30
0.0
 10
53.610154
 20
71.187819
 30
0.0
 10
53.151484
 20
72.392771
 30
0.0
 10
52.760960
 20
72.983829
 30
0.0
 10
52.216989
 20
73.605558
 30
0.0
 10
51.602831
 20
74.172521
 30
0.0
 10
51.001744
 20
74.599284
 30
0.0
 10
50.350888
 20
74.918070
 30
0.0
 10
49.653155
 20
75.152377
 30
0.0
 10
48.922095
 20
75.301134
 30
0.0
 10
48.171255
 20
75.363270
 30
0.0
 10
48.171255
 20
75.363203
 30
0.0
  0
ENDSEC
  0
SECTION
  2
OBJECTS
  0
DICTIONARY
  5
C
330
0
100
AcDbDictionary
  3
ACAD_GROUP
350
D
  3
ACAD_MLINESTYLE
350
17
  0
DICTIONARY
  5
D
330
C
100
AcDbDictionary
  0
DICTIONARY
  5
1A
330
C
100
AcDbDictionary
  0
DICTIONARY
  5
17
330
C
100
AcDbDictionary
  3
STANDARD
350
18
  0
DICTIONARY
  5
19
330
C
100
AcDbDictionary
  0
ENDSEC
  0
EOF
