<?xml version="1.0" encoding="UTF-8" standalone="no"?>
<!-- Created with Inkscape (http://www.inkscape.org/) -->

<svg
   xmlns:dc="http://purl.org/dc/elements/1.1/"
   xmlns:cc="http://creativecommons.org/ns#"
   xmlns:rdf="http://www.w3.org/1999/02/22-rdf-syntax-ns#"
   xmlns:svg="http://www.w3.org/2000/svg"
   xmlns="http://www.w3.org/2000/svg"
   xmlns:sodipodi="http://sodipodi.sourceforge.net/DTD/sodipodi-0.dtd"
   xmlns:inkscape="http://www.inkscape.org/namespaces/inkscape"
   id="svg5102"
   version="1.1"
   inkscape:version="0.91 r13725"
   width="361"
   height="388"
   viewBox="0 0 361 388"
   sodipodi:docname="martisor_1_40mm.svg">
  <sodipodi:namedview
     pagecolor="#ffffff"
     bordercolor="#666666"
     borderopacity="1"
     objecttolerance="10"
     gridtolerance="10"
     guidetolerance="10"
     inkscape:pageopacity="0"
     inkscape:pageshadow="2"
     inkscape:window-width="1360"
     inkscape:window-height="746"
     id="namedview5104"
     showgrid="false"
     inkscape:zoom="3.440767"
     inkscape:cx="202.32755"
     inkscape:cy="192.18675"
     inkscape:window-x="1432"
     inkscape:window-y="-8"
     inkscape:window-maximized="1"
     inkscape:current-layer="svg5102" />
  <metadata
     id="metadata5108">
    <rdf:RDF>
      <cc:Work
         rdf:about="">
        <dc:format>image/svg+xml</dc:format>
        <dc:type
           rdf:resource="http://purl.org/dc/dcmitype/StillImage" />
        <dc:title></dc:title>
      </cc:Work>
    </rdf:RDF>
  </metadata>
  <defs
     id="defs5106" />
  <path
     d="M159.61914 225.14453L158.267728926 228.850674492L157.136397031 232.862079062L156.378720059 237.025194102L156.14827375 241.18647L156.598633848 245.192357148L157.883376094 248.889305938L158.886632942 250.573944194L160.15607623 252.123766758L161.710902927 253.519579927L163.57031 254.74219L166.762075957 255.972273438L170.065344531 256.308008125L173.328819277 255.831319375L176.40120375 254.6241325L179.131201504 252.768372812L181.367516094 250.345965625L182.958851074 247.43883625L183.75391 244.12891L183.826435625 239.017159688L183.0683775 233.91464L181.726328125 228.968570312L180.04688 224.32617L181.46445125 231.093896406L182.010332656 234.683795918L182.243075 238.27406375L182.009276094 241.761957988L181.15553375 245.044736719L179.528445781 248.019658027L176.97461 250.58398L174.139925508 252.223217109L171.067473437 252.872620625L167.943480898 252.632251328L164.954175 251.60217L162.285782852 249.882437422L160.124531562 247.573114375L158.656648242 244.774261641L158.06836 241.58594L157.985606094 237.057712656L158.36902875 232.56050625L159.124089531 228.103359219L160.15625 223.69531L159.80873 224.63299L159.61914 225.14453L159.61914 225.14453M139.43945 207.83594L132.421427656 211.411387188L128.968524277 213.661480039L125.83566125 216.2507925L123.234814941 219.202554648L121.377961719 222.539996562L120.477077949 226.28634832L120.451367224 228.32012479L120.74414 230.46484L121.265631689 232.384613745L122.061861797 234.139694492L124.355365 237.122894063L127.378305078 239.348672852L130.8843375 240.751265L134.627117734 241.264904648L138.36030125 240.823825937L141.837543516 239.362263008L143.403204014 238.22824813L144.8125 236.81445L147.831968125 233.310344375L150.3960025 229.45939L154.64062 221.24414L150.783692031 227.201980156L148.597363809 230.200020137L146.18635375 232.97367875L143.511082598 235.34511002L140.531971094 237.136467969L137.20943998 238.169906621L133.50391 238.26758L130.518421973 237.539593047L127.965227031 236.02330875L125.912063887 233.887528203L124.42667125 231.3010525L123.576787832 228.432682734L123.430152344 225.45122L124.054503496 222.525465391L125.51758 219.82422L128.563999844 216.134621875L132.15905125 212.979335L140.07031 207.54883L139.43945 207.83594L139.43945 207.83594M201.26758 208.29883L206.850098906 212.12586625L209.62557959 214.318763359L212.15820125 216.7310875L214.273709004 219.387719453L215.797847969 222.31354L216.556363262 225.533429922L216.375 229.07227L215.421022734 232.075399434L213.678091875 234.551817344L211.330112578 236.452420645L208.56099 237.72810625L205.554629297 238.329771074L202.494935625 238.208312031L199.565814141 237.314626035L196.95117 235.59961L193.688482187 232.628306094L190.84079 229.25852625L185.85547 221.95703L189.384771406 228.924365937L191.552406543 232.364883477L194.03718375 235.5099275L196.875467363 238.159468086L200.103621719 240.113475312L203.758011152 241.171919258L205.756407878 241.302795649L207.875 241.13477L211.445763203 240.133629629L214.49449875 238.198255156L216.926861797 235.538427793L218.6485075 232.36392875L219.565091016 228.884539238L219.5822675 225.310040469L218.605692109 221.850213652L217.715264697 220.228858855L216.54102 218.71484L213.111466094 215.280498125L209.17052375 212.4288575L204.937777031 210.015130625L200.63281 207.89453L201.26758 208.29883L201.26758 208.29883M218.58789 177.79102L214.02350375 178.314100469L209.551345 179.34860875L200.8418 182.29492L207.789180156 180.69112875L211.447844902 179.983006328L215.11787625 179.5585175L218.715311816 179.583500859L222.156189219 180.223795L225.356546074 181.645238516L228.23242 184.01367L229.99938791 186.640318945L230.894676406 189.575232187L230.981270137 192.638198086L230.32215375 195.649005L228.980311895 198.427441289L227.018729219 200.793295312L224.500390371 202.56635543L221.48828 203.56641L218.924465215 204.002381582L216.356620469 204.112159531L211.22434875 203.60335375L201.08203 201.42383L208.593305 204.024930781L212.599502969 204.994387871L216.64659 205.54677875L220.639952656 205.53485041L224.4849775 204.811349844L228.087051094 203.229024043L231.35156 200.64062L232.510320488 199.102164009L233.385341563 197.442113945L234.328255625 193.875239062L234.2684825 190.176010273L233.2942025 186.5804425L231.493595938 183.324550664L228.954843125 180.644349687L225.766124375 178.775854492L223.955584121 178.219751226L222.01562 177.95508L218.58789 177.79102L218.58789 177.79102M119.61523 177.79702L117.393828801 177.866709709L115.319600879 178.30758627L113.407213494 179.081097703L111.671333906 180.148692031L110.126629377 181.471817278L108.787767168 183.011921465L106.78623875 186.58885875L105.784086738 190.571088066L105.898649219 194.650193594L106.411366545 196.629694993L107.247264277 198.517759512L108.421009675 200.275835173L109.94727 201.86537L113.192486211 204.145504746L116.714716563 205.440743594L120.433998633 205.908593457L124.27037 205.70656125L128.143868242 204.992153887L131.974530937 203.922878281L139.1875 201.34975L132.221350781 202.956560937L128.55831209 203.65874957L124.88811875 204.0714825L121.295386816 204.028276367L117.864732344 203.362647812L114.680771387 201.908113477L111.82812 199.49819L109.970670645 196.75360291L109.097630156 193.711482031L109.120397402 190.560801699L109.95037125 187.49053625L111.498950566 184.68966002L113.677534219 182.347147344L116.397521074 180.651972559L119.57031 179.79311L124.433689375 179.494492812L129.277925 180.0457025L138.83203 182.17397L134.172769375 180.498462812L129.41257 179.0695425L124.557900625 178.098598437L119.61523 177.79702L119.61523 177.79702M204.78906 142.32436L201.118076699 143.116633711L197.919851094 144.708425937L195.137145879 146.94749582L192.71272375 149.6816025L190.589347402 152.758505117L188.709779531 156.025962812L185.45312 162.52358L189.32072375 156.489866875L191.537970781 153.458876328L193.989635 150.6609L196.709806719 148.277765547L199.73257625 146.491300625L203.092033906 145.483332891L206.82227 145.43569L209.308660254 146.106900547L211.515870156 147.299593125L213.394585918 148.928554141L214.89549375 150.90857L215.969279863 153.154427109L216.566630469 155.580911875L216.638231777 158.102810703L216.13477 160.63491L214.780336758 163.364803652L213.031832188 165.803145469L210.967526523 167.995067988L208.66569 169.98570375L203.662505313 173.543645156L198.64844 176.83803L205.601900937 173.366133281L209.116909883 171.338577012L212.4118475 169.03636125L215.302521055 166.399295332L217.604737813 163.367188594L219.134305039 159.879850371L219.70703 155.87709L219.342481094 153.052213555L218.408540625 150.404557187L216.975590469 148.007051602L215.1140125 145.9326275L212.894188594 144.254215586L210.386500625 143.044746562L207.661330469 142.377151133L204.78906 142.32436L204.78906 142.32436M133.76172 142.29316L131.746840864 142.470148669L129.849772695 142.956643574L126.466094688 144.735775469L123.724736836 147.385802441L121.73975 150.66197125L120.625185039 154.319528652L120.495092813 158.113721406L120.834864868 159.985570652L121.46352418 161.79979627L122.395327104 163.525804104L123.64453 165.133L127.211309375 168.635965625L131.2362225 171.497415L135.568804375 173.915914375L140.05859 176.09003L134.407177031 172.251057187L131.525613184 170.127892461L128.84018875 167.808835L126.525936973 165.248804414L124.757891094 162.402720312L123.711084355 159.225502305L123.56055 155.67207L124.241882227 152.444826621L125.850225938 149.739307969L128.17431668 147.62043252L131.00289 146.15311875L134.124681445 145.402285137L137.328426563 145.432850156L140.402860898 146.309732285L143.13672 148.09785L146.591140938 151.245253594L149.5590275 154.85398125L154.75195 162.65253L151.28371875 155.815793594L149.243864922 152.363984707L146.9260025 149.14063625L144.274494141 146.333813887L141.2337025 144.131583281L137.747990234 142.722010098L133.76172 142.29316L133.76172 142.29316M169.03125 127.57246L165.786198301 128.007315L162.949370781 129.242399375L160.552346309 131.139067187L158.62670375 133.5586725L157.204021973 136.362569375L156.315879844 139.412111875L155.99385623 142.568654063L156.26953 145.69355L156.809156563 149.388850781L157.7367075 152.99282125L160.17188 160.08027L158.713347969 153.192076563L158.125773066 149.543516836L157.83925625 145.8900275L158.008745527 142.330142852L158.789188906 138.962397187L160.335534395 135.885324805L162.80273 133.19746L165.561870879 131.577679082L168.561238281 130.862683281L171.628631855 130.975450527L174.59185125 131.83895875L177.278696113 133.376185879L179.516966094 135.510109844L181.13446084 138.163708574L181.95898 141.25996L182.262527031 145.853777969L181.75370125 150.74495875L180.24805 158.92597L182.608858906 151.659060937L183.45107248 147.775275508L183.87378375 143.8698725L183.731461426 140.05180418L182.878574219 136.430022812L181.16959084 133.113480664L178.45898 130.21113L176.335157813 128.89209625L173.99458 128.0414675L171.529269688 127.6160025L169.03125 127.57246L169.03125 127.57246M170.68555 120.96503L166.5202725 121.24170625L162.48242 122.28339L159.850607617 123.465104199L157.462902188 124.985342969L155.342301289 126.813470566L153.5118025 128.91885125L151.994403398 131.270849277L150.813101563 133.838828906L149.99089457 136.592154395L149.55078 139.50019L149.21484 142.00605L147.33984 140.42792L143.46403125 137.76773375L139.25391 136.07831L134.6642975 135.660015L129.87109 136.06831L125.674616094 137.565571719L121.71781125 140.11804875L118.337158281 143.455713906L115.86914 147.30854L114.685951719 150.439615781L114.00534125 153.71096125L113.840125156 157.020843594L114.20312 160.26753L114.893871406 162.724565781L115.95846875 165.26894375L117.270391719 167.638787344L118.70312 169.57222L120.14258 171.1855L118.47461 171.36128L114.08398 172.42378L108.733780969 174.740931094L106.503878113 176.18308791L104.56726775 177.81764375L102.921320918 179.647107246L101.563408656 181.673987031L100.490902004 183.900791738L99.701172 186.33003L99.2102505 191.41398625L99.558594 196.54292L100.413288094 199.413626719L101.66082675 202.07394625L103.320628031 204.558107656L105.41211 206.90034L108.095823906 209.15916625L110.96120375 210.7984625L114.067661719 211.8451425L117.47461 212.32612L120.14453 212.48237L118.68359 214.10933L117.260719219 216.023049375L115.95862375 218.37883L114.899383906 220.923100625L114.20508 223.40229L113.87136875 228.11894875L114.53125 232.82807L115.453109551 235.459111621L116.740445156 237.943031719L118.353622246 240.241723145L120.25300625 242.31707875L122.398962598 244.130991387L124.751856719 245.645353906L127.272054043 246.82205916L129.91992 247.623L132.52865625 247.966970625L135.502665 247.9984125L138.38940375 247.735213125L140.73633 247.19526L144.1965 245.55939L147.54102 243.08979L149.26953 241.57612L149.60938 244.58979L150.092528281 247.604772969L150.85690125 250.16071375L152.002883594 252.516642656L153.63086 254.93159L156.126989219 257.634708281L159.13934625 259.84008625L162.564452656 261.485748594L166.29883 262.50972L170.86523 262.66597L174.960090781 262.202400469L178.53639125 261.10530875L181.755138594 259.306125156L184.77734 256.73628L187.280098281 253.764674844L189.09180375 250.56323125L190.193054844 247.175362031L190.56445 243.64448L190.73438 241.66401L192.68945 243.25972L196.834855 245.9921875L199.184508125 247.080307187L201.22461 247.72456L204.536689375 248.070194375L208.0751525 247.8805125L211.508656875 247.196839375L214.50586 246.0605L218.60013082 243.385093047L221.856094063 240.0184875L224.236355898 236.124832578L225.7035225 231.8682775L226.220200039 227.412971484L225.748994688 222.92306375L224.252512617 218.562703516L221.69336 214.49604L220.12891 212.54878L221.71094 212.34175L226.86836 210.92599875L231.83789 208.67573L235.296528906 206.066373125L237.89448375 203.0187875L239.678986719 199.461783125L240.69727 195.32417L240.928923438 190.746895625L240.2975425 186.354965L238.840145313 182.298711875L236.59375 178.72847L233.683869844 175.704539687L230.43036125 173.467845L226.816652031 172.009410312L222.82617 171.32026L220.12891 171.12104L221.70117 169.16401L224.257293398 165.088125039L225.745780313 160.706570312L226.20606832 156.191287305L225.677595 151.7142175L224.19979793 147.447302383L221.812114688 143.562483437L218.553982852 140.231702148L214.46484 137.6269L212.119866563 136.642010312L209.8018575 136.019455L207.316317188 135.721619688L204.46875 135.71089L201.419825 135.962495L199.18555 136.56831L195.6345425 138.28484125L192.45117 140.63081L190.73438 142.00581L190.56445 140.02534L189.95723875 135.759695L188.33203 131.49018L186.948282188 129.395882031L185.0208275 127.19290625L182.844676563 125.183979844L180.71484 123.67183L178.408658125 122.542272031L175.9363775 121.71205125L173.346005625 121.184959844L170.68555 120.96479L170.68555 120.96503"
     style="fill:none;stroke:#ff0000"
     id="path5734" />
</svg>
