  0
SECTION
  2
HEADER
  9
$ACADVER
  1
AC1014
  9
$HANDSEED
  5
FFFF
  9
$MEASUREMENT
 70
     1
  0
ENDSEC
  0
SECTION
  2
TABLES
  0
TABLE
  2
VPORT
  5
8
330
0
100
AcDbSymbolTable
 70
     4
  0
VPORT
  5
2E
330
8
100
AcDbSymbolTableRecord
100
AcDbViewportTableRecord
  2
*ACTIVE
 70
     0
 10
0.0
 20
0.0
 11
1.0
 21
1.0
 12
210.0
 22
148.5
 13
0.0
 23
0.0
 14
10.0
 24
10.0
 15
10.0
 25
10.0
 16
0.0
 26
0.0
 36
1.0
 17
0.0
 27
0.0
 37
0.0
 40
341.0
 41
1.24
 42
50.0
 43
0.0
 44
0.0
 50
0.0
 51
0.0
 71
     0
 72
   100
 73
     1
 74
     3
 75
     0
 76
     0
 77
     0
 78
     0
  0
ENDTAB
  0
TABLE
  2
LTYPE
  5
5
330
0
100
AcDbSymbolTable
 70
     1
  0
LTYPE
  5
14
330
5
100
AcDbSymbolTableRecord
100
AcDbLinetypeTableRecord
  2
BYBLOCK
 70
     0
  3

 72
    65
 73
     0
 40
0.0
  0
LTYPE
  5
15
330
5
100
AcDbSymbolTableRecord
100
AcDbLinetypeTableRecord
  2
BYLAYER
 70
     0
  3

 72
    65
 73
     0
 40
0.0
  0
LTYPE
  5
16
330
5
100
AcDbSymbolTableRecord
100
AcDbLinetypeTableRecord
  2
CONTINUOUS
 70
     0
  3
Solid line
 72
    65
 73
     0
 40
0.0
  0
ENDTAB
  0
TABLE
  2
LAYER
  5
2
100
AcDbSymbolTable
 70
1
  0
LAYER
  5
50
100
AcDbSymbolTableRecord
100
AcDbLayerTableRecord
  2
0
 70
0
  6
CONTINUOUS
  0
ENDTAB
  0
TABLE
  2
STYLE
  5
3
330
0
100
AcDbSymbolTable
 70
     1
  0
STYLE
  5
11
330
3
100
AcDbSymbolTableRecord
100
AcDbTextStyleTableRecord
  2
STANDARD
 70
     0
 40
0.0
 41
1.0
 50
0.0
 71
     0
 42
2.5
  3
txt
  4

  0
ENDTAB
  0
TABLE
  2
VIEW
  5
6
330
0
100
AcDbSymbolTable
 70
     0
  0
ENDTAB
  0
TABLE
  2
UCS
  5
7
330
0
100
AcDbSymbolTable
 70
     0
  0
ENDTAB
  0
TABLE
  2
APPID
  5
9
330
0
100
AcDbSymbolTable
 70
     2
  0
APPID
  5
12
330
9
100
AcDbSymbolTableRecord
100
AcDbRegAppTableRecord
  2
ACAD
 70
     0
  0
ENDTAB
  0
TABLE
  2
DIMSTYLE
  5
A
330
0
100
AcDbSymbolTable
 70
     1
  0
DIMSTYLE
105
27
330
A
100
AcDbSymbolTableRecord
100
AcDbDimStyleTableRecord
  2
ISO-25
 70
     0
  3

  4

  5

  6

  7

 40
1.0
 41
2.5
 42
0.625
 43
3.75
 44
1.25
 45
0.0
 46
0.0
 47
0.0
 48
0.0
140
2.5
141
2.5
142
0.0
143
0.03937007874016
144
1.0
145
0.0
146
1.0
147
0.625
 71
     0
 72
     0
 73
     0
 74
     0
 75
     0
 76
     0
 77
     1
 78
     8
170
     0
171
     3
172
     1
173
     0
174
     0
175
     0
176
     0
177
     0
178
     0
270
     2
271
     2
272
     2
273
     2
274
     3
340
11
275
     0
280
     0
281
     0
282
     0
283
     0
284
     8
285
     0
286
     0
287
     3
288
     0
  0
ENDTAB
  0
TABLE
  2
BLOCK_RECORD
  5
1
330
0
100
AcDbSymbolTable
 70
     1
  0
BLOCK_RECORD
  5
1F
330
1
100
AcDbSymbolTableRecord
100
AcDbBlockTableRecord
  2
*MODEL_SPACE
  0
BLOCK_RECORD
  5
1B
330
1
100
AcDbSymbolTableRecord
100
AcDbBlockTableRecord
  2
*PAPER_SPACE
  0
ENDTAB
  0
ENDSEC
  0
SECTION
  2
BLOCKS
  0
BLOCK
  5
20
330
1F
100
AcDbEntity
  8
0
100
AcDbBlockBegin
  2
*MODEL_SPACE
 70
     0
 10
0.0
 20
0.0
 30
0.0
  3
*MODEL_SPACE
  1

  0
ENDBLK
  5
21
330
1F
100
AcDbEntity
  8
0
100
AcDbBlockEnd
  0
BLOCK
  5
1C
330
1B
100
AcDbEntity
 67
     1
  8
0
100
AcDbBlockBegin
  2
*PAPER_SPACE
  1

  0
ENDBLK
  5
1D
330
1B
100
AcDbEntity
 67
     1
  8
0
100
AcDbBlockEnd
  0
ENDSEC
  0
SECTION
  2
ENTITIES
  0
LWPOLYLINE
  5
100
100
AcDbEntity
  8
0
 62
1
100
AcDbPolyline
 90
109
 70
1
 10
254.850211
 20
142.349783
 30
0.0
 10
265.850220
 20
142.349783
 30
0.0
 10
265.850220
 20
138.349780
 30
0.0
 10
276.850229
 20
138.349780
 30
0.0
 10
276.850229
 20
142.349783
 30
0.0
 10
287.850236
 20
142.349783
 30
0.0
 10
287.850236
 20
138.349780
 30
0.0
 10
298.850245
 20
138.349780
 30
0.0
 10
298.850245
 20
142.349783
 30
0.0
 10
309.850257
 20
142.349783
 30
0.0
 10
309.850257
 20
138.349780
 30
0.0
 10
320.850266
 20
138.349780
 30
0.0
 10
320.850266
 20
142.349783
 30
0.0
 10
331.850272
 20
142.349783
 30
0.0
 10
331.850272
 20
138.349780
 30
0.0
 10
342.850281
 20
138.349780
 30
0.0
 10
342.850281
 20
142.349783
 30
0.0
 10
353.850290
 20
142.349783
 30
0.0
 10
353.850290
 20
138.349780
 30
0.0
 10
364.850302
 20
138.349780
 30
0.0
 10
364.850302
 20
142.349783
 30
0.0
 10
375.850311
 20
142.349783
 30
0.0
 10
375.850311
 20
138.349780
 30
0.0
 10
386.850317
 20
138.349780
 30
0.0
 10
386.850317
 20
142.349783
 30
0.0
 10
402.600332
 20
142.349783
 30
0.0
 10
402.600332
 20
138.349780
 30
0.0
 10
414.350341
 20
138.349780
 30
0.0
 10
414.350341
 20
127.599771
 30
0.0
 10
418.350344
 20
127.599771
 30
0.0
 10
418.350344
 20
112.849760
 30
0.0
 10
414.350341
 20
112.849760
 30
0.0
 10
414.350341
 20
101.849751
 30
0.0
 10
418.350344
 20
101.849751
 30
0.0
 10
418.350344
 20
90.849742
 30
0.0
 10
414.350341
 20
90.849742
 30
0.0
 10
414.350341
 20
79.849733
 30
0.0
 10
418.350344
 20
79.849733
 30
0.0
 10
418.350344
 20
68.849721
 30
0.0
 10
414.350341
 20
68.849721
 30
0.0
 10
414.350341
 20
57.849715
 30
0.0
 10
418.350344
 20
57.849715
 30
0.0
 10
418.350344
 20
46.849706
 30
0.0
 10
414.350341
 20
46.849706
 30
0.0
 10
414.350341
 20
35.849694
 30
0.0
 10
418.350344
 20
35.849694
 30
0.0
 10
418.350344
 20
21.099683
 30
0.0
 10
414.350341
 20
21.099683
 30
0.0
 10
414.350341
 20
10.349674
 30
0.0
 10
402.600332
 20
10.349674
 30
0.0
 10
402.600332
 20
6.349671
 30
0.0
 10
386.850317
 20
6.349671
 30
0.0
 10
386.850317
 20
10.349674
 30
0.0
 10
375.850311
 20
10.349674
 30
0.0
 10
375.850311
 20
6.349671
 30
0.0
 10
364.850302
 20
6.349671
 30
0.0
 10
364.850302
 20
10.349674
 30
0.0
 10
353.850290
 20
10.349674
 30
0.0
 10
353.850290
 20
6.349671
 30
0.0
 10
342.850281
 20
6.349671
 30
0.0
 10
342.850281
 20
10.349674
 30
0.0
 10
331.850272
 20
10.349674
 30
0.0
 10
331.850272
 20
6.349671
 30
0.0
 10
320.850266
 20
6.349671
 30
0.0
 10
320.850266
 20
10.349674
 30
0.0
 10
309.850257
 20
10.349674
 30
0.0
 10
309.850257
 20
6.349671
 30
0.0
 10
298.850245
 20
6.349671
 30
0.0
 10
298.850245
 20
10.349674
 30
0.0
 10
287.850236
 20
10.349674
 30
0.0
 10
287.850236
 20
6.349671
 30
0.0
 10
276.850229
 20
6.349671
 30
0.0
 10
276.850229
 20
10.349674
 30
0.0
 10
265.850220
 20
10.349674
 30
0.0
 10
265.850220
 20
6.349671
 30
0.0
 10
254.850211
 20
6.349671
 30
0.0
 10
254.850211
 20
10.349674
 30
0.0
 10
243.850202
 20
10.349674
 30
0.0
 10
243.850202
 20
6.349671
 30
0.0
 10
228.100188
 20
6.349671
 30
0.0
 10
228.100188
 20
10.349674
 30
0.0
 10
216.350178
 20
10.349674
 30
0.0
 10
216.350178
 20
21.099683
 30
0.0
 10
212.350175
 20
21.099683
 30
0.0
 10
212.350175
 20
35.849694
 30
0.0
 10
216.350178
 20
35.849694
 30
0.0
 10
216.350178
 20
46.849706
 30
0.0
 10
212.350175
 20
46.849706
 30
0.0
 10
212.350175
 20
57.849715
 30
0.0
 10
216.350178
 20
57.849715
 30
0.0
 10
216.350178
 20
68.849721
 30
0.0
 10
212.350175
 20
68.849721
 30
0.0
 10
212.350175
 20
79.849733
 30
0.0
 10
216.350178
 20
79.849733
 30
0.0
 10
216.350178
 20
90.849742
 30
0.0
 10
212.350175
 20
90.849742
 30
0.0
 10
212.350175
 20
101.849751
 30
0.0
 10
216.350178
 20
101.849751
 30
0.0
 10
216.350178
 20
112.849760
 30
0.0
 10
212.350175
 20
112.849760
 30
0.0
 10
212.350175
 20
127.599771
 30
0.0
 10
216.350178
 20
127.599771
 30
0.0
 10
216.350178
 20
138.349780
 30
0.0
 10
228.100188
 20
138.349780
 30
0.0
 10
228.100188
 20
142.349783
 30
0.0
 10
243.850202
 20
142.349783
 30
0.0
 10
243.850202
 20
138.349780
 30
0.0
 10
254.850211
 20
138.349780
 30
0.0
 10
254.850211
 20
142.349783
 30
0.0
  0
LWPOLYLINE
  5
101
100
AcDbEntity
  8
0
 62
1
100
AcDbPolyline
 90
109
 70
1
 10
48.850042
 20
142.349783
 30
0.0
 10
59.850051
 20
142.349783
 30
0.0
 10
59.850051
 20
138.349780
 30
0.0
 10
70.850060
 20
138.349780
 30
0.0
 10
70.850060
 20
142.349783
 30
0.0
 10
81.850066
 20
142.349783
 30
0.0
 10
81.850066
 20
138.349780
 30
0.0
 10
92.850075
 20
138.349780
 30
0.0
 10
92.850075
 20
142.349783
 30
0.0
 10
103.850087
 20
142.349783
 30
0.0
 10
103.850087
 20
138.349780
 30
0.0
 10
114.850096
 20
138.349780
 30
0.0
 10
114.850096
 20
142.349783
 30
0.0
 10
125.850102
 20
142.349783
 30
0.0
 10
125.850102
 20
138.349780
 30
0.0
 10
136.850112
 20
138.349780
 30
0.0
 10
136.850112
 20
142.349783
 30
0.0
 10
147.850121
 20
142.349783
 30
0.0
 10
147.850121
 20
138.349780
 30
0.0
 10
158.850132
 20
138.349780
 30
0.0
 10
158.850132
 20
142.349783
 30
0.0
 10
169.850141
 20
142.349783
 30
0.0
 10
169.850141
 20
138.349780
 30
0.0
 10
180.850148
 20
138.349780
 30
0.0
 10
180.850148
 20
142.349783
 30
0.0
 10
196.600162
 20
142.349783
 30
0.0
 10
196.600162
 20
138.349780
 30
0.0
 10
208.350171
 20
138.349780
 30
0.0
 10
208.350171
 20
127.599771
 30
0.0
 10
212.350174
 20
127.599771
 30
0.0
 10
212.350174
 20
112.849760
 30
0.0
 10
208.350171
 20
112.849760
 30
0.0
 10
208.350171
 20
101.849751
 30
0.0
 10
212.350174
 20
101.849751
 30
0.0
 10
212.350174
 20
90.849742
 30
0.0
 10
208.350171
 20
90.849742
 30
0.0
 10
208.350171
 20
79.849733
 30
0.0
 10
212.350174
 20
79.849733
 30
0.0
 10
212.350174
 20
68.849721
 30
0.0
 10
208.350171
 20
68.849721
 30
0.0
 10
208.350171
 20
57.849715
 30
0.0
 10
212.350174
 20
57.849715
 30
0.0
 10
212.350174
 20
46.849706
 30
0.0
 10
208.350171
 20
46.849706
 30
0.0
 10
208.350171
 20
35.849694
 30
0.0
 10
212.350174
 20
35.849694
 30
0.0
 10
212.350174
 20
21.099683
 30
0.0
 10
208.350171
 20
21.099683
 30
0.0
 10
208.350171
 20
10.349674
 30
0.0
 10
196.600162
 20
10.349674
 30
0.0
 10
196.600162
 20
6.349671
 30
0.0
 10
180.850148
 20
6.349671
 30
0.0
 10
180.850148
 20
10.349674
 30
0.0
 10
169.850141
 20
10.349674
 30
0.0
 10
169.850141
 20
6.349671
 30
0.0
 10
158.850132
 20
6.349671
 30
0.0
 10
158.850132
 20
10.349674
 30
0.0
 10
147.850121
 20
10.349674
 30
0.0
 10
147.850121
 20
6.349671
 30
0.0
 10
136.850112
 20
6.349671
 30
0.0
 10
136.850112
 20
10.349674
 30
0.0
 10
125.850102
 20
10.349674
 30
0.0
 10
125.850102
 20
6.349671
 30
0.0
 10
114.850096
 20
6.349671
 30
0.0
 10
114.850096
 20
10.349674
 30
0.0
 10
103.850087
 20
10.349674
 30
0.0
 10
103.850087
 20
6.349671
 30
0.0
 10
92.850075
 20
6.349671
 30
0.0
 10
92.850075
 20
10.349674
 30
0.0
 10
81.850066
 20
10.349674
 30
0.0
 10
81.850066
 20
6.349671
 30
0.0
 10
70.850060
 20
6.349671
 30
0.0
 10
70.850060
 20
10.349674
 30
0.0
 10
59.850051
 20
10.349674
 30
0.0
 10
59.850051
 20
6.349671
 30
0.0
 10
48.850042
 20
6.349671
 30
0.0
 10
48.850042
 20
10.349674
 30
0.0
 10
37.850033
 20
10.349674
 30
0.0
 10
37.850033
 20
6.349671
 30
0.0
 10
22.100018
 20
6.349671
 30
0.0
 10
22.100018
 20
10.349674
 30
0.0
 10
10.350009
 20
10.349674
 30
0.0
 10
10.350009
 20
21.099683
 30
0.0
 10
6.350006
 20
21.099683
 30
0.0
 10
6.350006
 20
35.849694
 30
0.0
 10
10.350009
 20
35.849694
 30
0.0
 10
10.350009
 20
46.849706
 30
0.0
 10
6.350006
 20
46.849706
 30
0.0
 10
6.350006
 20
57.849715
 30
0.0
 10
10.350009
 20
57.849715
 30
0.0
 10
10.350009
 20
68.849721
 30
0.0
 10
6.350006
 20
68.849721
 30
0.0
 10
6.350006
 20
79.849733
 30
0.0
 10
10.350009
 20
79.849733
 30
0.0
 10
10.350009
 20
90.849742
 30
0.0
 10
6.350006
 20
90.849742
 30
0.0
 10
6.350006
 20
101.849751
 30
0.0
 10
10.350009
 20
101.849751
 30
0.0
 10
10.350009
 20
112.849760
 30
0.0
 10
6.350006
 20
112.849760
 30
0.0
 10
6.350006
 20
127.599771
 30
0.0
 10
10.350009
 20
127.599771
 30
0.0
 10
10.350009
 20
138.349780
 30
0.0
 10
22.100018
 20
138.349780
 30
0.0
 10
22.100018
 20
142.349783
 30
0.0
 10
37.850033
 20
142.349783
 30
0.0
 10
37.850033
 20
138.349780
 30
0.0
 10
48.850042
 20
138.349780
 30
0.0
 10
48.850042
 20
142.349783
 30
0.0
  0
LWPOLYLINE
  5
102
100
AcDbEntity
  8
0
 62
1
100
AcDbPolyline
 90
61
 70
1
 10
332.892397
 20
255.085775
 30
0.0
 10
332.892397
 20
259.085778
 30
0.0
 10
343.892406
 20
259.085778
 30
0.0
 10
343.892406
 20
255.085775
 30
0.0
 10
354.892418
 20
255.085775
 30
0.0
 10
354.892418
 20
259.085778
 30
0.0
 10
365.892424
 20
259.085778
 30
0.0
 10
365.892424
 20
255.085775
 30
0.0
 10
376.892433
 20
255.085775
 30
0.0
 10
376.892433
 20
259.085778
 30
0.0
 10
387.892445
 20
259.085778
 30
0.0
 10
387.892445
 20
255.085775
 30
0.0
 10
402.642457
 20
255.085775
 30
0.0
 10
402.642457
 20
259.085778
 30
0.0
 10
413.392465
 20
259.085778
 30
0.0
 10
413.392465
 20
247.885770
 30
0.0
 10
417.392468
 20
247.885770
 30
0.0
 10
417.392468
 20
236.685761
 30
0.0
 10
413.392465
 20
236.685761
 30
0.0
 10
413.392465
 20
225.485750
 30
0.0
 10
417.392468
 20
225.485750
 30
0.0
 10
417.392468
 20
214.285741
 30
0.0
 10
413.392465
 20
214.285741
 30
0.0
 10
413.392465
 20
203.085732
 30
0.0
 10
402.642457
 20
203.085732
 30
0.0
 10
402.642457
 20
207.085736
 30
0.0
 10
387.892445
 20
207.085736
 30
0.0
 10
387.892445
 20
203.085732
 30
0.0
 10
376.892433
 20
203.085732
 30
0.0
 10
376.892433
 20
207.085736
 30
0.0
 10
365.892424
 20
207.085736
 30
0.0
 10
365.892424
 20
203.085732
 30
0.0
 10
354.892418
 20
203.085732
 30
0.0
 10
354.892418
 20
207.085736
 30
0.0
 10
343.892406
 20
207.085736
 30
0.0
 10
343.892406
 20
203.085732
 30
0.0
 10
332.892397
 20
203.085732
 30
0.0
 10
332.892397
 20
207.085736
 30
0.0
 10
321.892388
 20
207.085736
 30
0.0
 10
321.892388
 20
203.085732
 30
0.0
 10
310.892379
 20
203.085732
 30
0.0
 10
310.892379
 20
207.085736
 30
0.0
 10
296.142368
 20
207.085736
 30
0.0
 10
296.142368
 20
203.085732
 30
0.0
 10
285.392360
 20
203.085732
 30
0.0
 10
285.392360
 20
214.285741
 30
0.0
 10
281.392356
 20
214.285741
 30
0.0
 10
281.392356
 20
225.485750
 30
0.0
 10
285.392360
 20
225.485750
 30
0.0
 10
285.392360
 20
236.685761
 30
0.0
 10
281.392356
 20
236.685761
 30
0.0
 10
281.392356
 20
247.885770
 30
0.0
 10
285.392360
 20
247.885770
 30
0.0
 10
285.392360
 20
259.085778
 30
0.0
 10
296.142368
 20
259.085778
 30
0.0
 10
296.142368
 20
255.085775
 30
0.0
 10
310.892379
 20
255.085775
 30
0.0
 10
310.892379
 20
259.085778
 30
0.0
 10
321.892388
 20
259.085778
 30
0.0
 10
321.892388
 20
255.085775
 30
0.0
 10
332.892397
 20
255.085775
 30
0.0
  0
LWPOLYLINE
  5
103
100
AcDbEntity
  8
0
 62
1
100
AcDbPolyline
 90
61
 70
1
 10
195.015239
 20
258.096598
 30
0.0
 10
206.015249
 20
258.096598
 30
0.0
 10
206.015249
 20
254.096595
 30
0.0
 10
217.015260
 20
254.096595
 30
0.0
 10
217.015260
 20
258.096598
 30
0.0
 10
228.015267
 20
258.096598
 30
0.0
 10
228.015267
 20
254.096595
 30
0.0
 10
239.015276
 20
254.096595
 30
0.0
 10
239.015276
 20
258.096598
 30
0.0
 10
250.015288
 20
258.096598
 30
0.0
 10
250.015288
 20
254.096595
 30
0.0
 10
264.765299
 20
254.096595
 30
0.0
 10
264.765299
 20
258.096598
 30
0.0
 10
275.515307
 20
258.096598
 30
0.0
 10
275.515307
 20
246.896589
 30
0.0
 10
279.515310
 20
246.896589
 30
0.0
 10
279.515310
 20
235.696581
 30
0.0
 10
275.515307
 20
235.696581
 30
0.0
 10
275.515307
 20
224.496569
 30
0.0
 10
279.515310
 20
224.496569
 30
0.0
 10
279.515310
 20
213.296561
 30
0.0
 10
275.515307
 20
213.296561
 30
0.0
 10
275.515307
 20
202.096552
 30
0.0
 10
264.765299
 20
202.096552
 30
0.0
 10
264.765299
 20
206.096555
 30
0.0
 10
250.015288
 20
206.096555
 30
0.0
 10
250.015288
 20
202.096552
 30
0.0
 10
239.015276
 20
202.096552
 30
0.0
 10
239.015276
 20
206.096555
 30
0.0
 10
228.015267
 20
206.096555
 30
0.0
 10
228.015267
 20
202.096552
 30
0.0
 10
217.015260
 20
202.096552
 30
0.0
 10
217.015260
 20
206.096555
 30
0.0
 10
206.015249
 20
206.096555
 30
0.0
 10
206.015249
 20
202.096552
 30
0.0
 10
195.015239
 20
202.096552
 30
0.0
 10
195.015239
 20
206.096555
 30
0.0
 10
184.015230
 20
206.096555
 30
0.0
 10
184.015230
 20
202.096552
 30
0.0
 10
173.015221
 20
202.096552
 30
0.0
 10
173.015221
 20
206.096555
 30
0.0
 10
158.265210
 20
206.096555
 30
0.0
 10
158.265210
 20
202.096552
 30
0.0
 10
147.515202
 20
202.096552
 30
0.0
 10
147.515202
 20
213.296561
 30
0.0
 10
143.515199
 20
213.296561
 30
0.0
 10
143.515199
 20
224.496569
 30
0.0
 10
147.515202
 20
224.496569
 30
0.0
 10
147.515202
 20
235.696581
 30
0.0
 10
143.515199
 20
235.696581
 30
0.0
 10
143.515199
 20
246.896589
 30
0.0
 10
147.515202
 20
246.896589
 30
0.0
 10
147.515202
 20
258.096598
 30
0.0
 10
158.265210
 20
258.096598
 30
0.0
 10
158.265210
 20
254.096595
 30
0.0
 10
173.015221
 20
254.096595
 30
0.0
 10
173.015221
 20
258.096598
 30
0.0
 10
184.015230
 20
258.096598
 30
0.0
 10
184.015230
 20
254.096595
 30
0.0
 10
195.015239
 20
254.096595
 30
0.0
 10
195.015239
 20
258.096598
 30
0.0
  0
LWPOLYLINE
  5
104
100
AcDbEntity
  8
0
 62
1
100
AcDbPolyline
 90
85
 70
1
 10
254.850211
 20
194.349826
 30
0.0
 10
265.850220
 20
194.349826
 30
0.0
 10
265.850220
 20
198.349829
 30
0.0
 10
276.850229
 20
198.349829
 30
0.0
 10
276.850229
 20
194.349826
 30
0.0
 10
287.850236
 20
194.349826
 30
0.0
 10
287.850236
 20
198.349829
 30
0.0
 10
298.850245
 20
198.349829
 30
0.0
 10
298.850245
 20
194.349826
 30
0.0
 10
309.850257
 20
194.349826
 30
0.0
 10
309.850257
 20
198.349829
 30
0.0
 10
320.850266
 20
198.349829
 30
0.0
 10
320.850266
 20
194.349826
 30
0.0
 10
331.850272
 20
194.349826
 30
0.0
 10
331.850272
 20
198.349829
 30
0.0
 10
342.850281
 20
198.349829
 30
0.0
 10
342.850281
 20
194.349826
 30
0.0
 10
353.850290
 20
194.349826
 30
0.0
 10
353.850290
 20
198.349829
 30
0.0
 10
364.850302
 20
198.349829
 30
0.0
 10
364.850302
 20
194.349826
 30
0.0
 10
375.850311
 20
194.349826
 30
0.0
 10
375.850311
 20
198.349829
 30
0.0
 10
386.850317
 20
198.349829
 30
0.0
 10
386.850317
 20
194.349826
 30
0.0
 10
402.600332
 20
194.349826
 30
0.0
 10
402.600332
 20
198.349829
 30
0.0
 10
418.350344
 20
198.349829
 30
0.0
 10
418.350344
 20
187.149820
 30
0.0
 10
414.350341
 20
187.149820
 30
0.0
 10
414.350341
 20
175.949812
 30
0.0
 10
418.350344
 20
175.949812
 30
0.0
 10
418.350344
 20
164.749800
 30
0.0
 10
414.350341
 20
164.749800
 30
0.0
 10
414.350341
 20
153.549792
 30
0.0
 10
418.350344
 20
153.549792
 30
0.0
 10
418.350344
 20
142.349783
 30
0.0
 10
402.600332
 20
142.349783
 30
0.0
 10
402.600332
 20
146.349786
 30
0.0
 10
386.850317
 20
146.349786
 30
0.0
 10
386.850317
 20
142.349783
 30
0.0
 10
375.850311
 20
142.349783
 30
0.0
 10
375.850311
 20
146.349786
 30
0.0
 10
364.850302
 20
146.349786
 30
0.0
 10
364.850302
 20
142.349783
 30
0.0
 10
353.850290
 20
142.349783
 30
0.0
 10
353.850290
 20
146.349786
 30
0.0
 10
342.850281
 20
146.349786
 30
0.0
 10
342.850281
 20
142.349783
 30
0.0
 10
331.850272
 20
142.349783
 30
0.0
 10
331.850272
 20
146.349786
 30
0.0
 10
320.850266
 20
146.349786
 30
0.0
 10
320.850266
 20
142.349783
 30
0.0
 10
309.850257
 20
142.349783
 30
0.0
 10
309.850257
 20
146.349786
 30
0.0
 10
298.850245
 20
146.349786
 30
0.0
 10
298.850245
 20
142.349783
 30
0.0
 10
287.850236
 20
142.349783
 30
0.0
 10
287.850236
 20
146.349786
 30
0.0
 10
276.850229
 20
146.349786
 30
0.0
 10
276.850229
 20
142.349783
 30
0.0
 10
265.850220
 20
142.349783
 30
0.0
 10
265.850220
 20
146.349786
 30
0.0
 10
254.850211
 20
146.349786
 30
0.0
 10
254.850211
 20
142.349783
 30
0.0
 10
243.850202
 20
142.349783
 30
0.0
 10
243.850202
 20
146.349786
 30
0.0
 10
228.100188
 20
146.349786
 30
0.0
 10
228.100188
 20
142.349783
 30
0.0
 10
212.350175
 20
142.349783
 30
0.0
 10
212.350175
 20
153.549792
 30
0.0
 10
216.350178
 20
153.549792
 30
0.0
 10
216.350178
 20
164.749800
 30
0.0
 10
212.350175
 20
164.749800
 30
0.0
 10
212.350175
 20
175.949812
 30
0.0
 10
216.350178
 20
175.949812
 30
0.0
 10
216.350178
 20
187.149820
 30
0.0
 10
212.350175
 20
187.149820
 30
0.0
 10
212.350175
 20
198.349829
 30
0.0
 10
228.100188
 20
198.349829
 30
0.0
 10
228.100188
 20
194.349826
 30
0.0
 10
243.850202
 20
194.349826
 30
0.0
 10
243.850202
 20
198.349829
 30
0.0
 10
254.850211
 20
198.349829
 30
0.0
 10
254.850211
 20
194.349826
 30
0.0
  0
LWPOLYLINE
  5
105
100
AcDbEntity
  8
0
 62
1
100
AcDbPolyline
 90
85
 70
1
 10
48.850042
 20
194.349826
 30
0.0
 10
59.850051
 20
194.349826
 30
0.0
 10
59.850051
 20
198.349829
 30
0.0
 10
70.850060
 20
198.349829
 30
0.0
 10
70.850060
 20
194.349826
 30
0.0
 10
81.850066
 20
194.349826
 30
0.0
 10
81.850066
 20
198.349829
 30
0.0
 10
92.850075
 20
198.349829
 30
0.0
 10
92.850075
 20
194.349826
 30
0.0
 10
103.850087
 20
194.349826
 30
0.0
 10
103.850087
 20
198.349829
 30
0.0
 10
114.850096
 20
198.349829
 30
0.0
 10
114.850096
 20
194.349826
 30
0.0
 10
125.850102
 20
194.349826
 30
0.0
 10
125.850102
 20
198.349829
 30
0.0
 10
136.850112
 20
198.349829
 30
0.0
 10
136.850112
 20
194.349826
 30
0.0
 10
147.850121
 20
194.349826
 30
0.0
 10
147.850121
 20
198.349829
 30
0.0
 10
158.850132
 20
198.349829
 30
0.0
 10
158.850132
 20
194.349826
 30
0.0
 10
169.850141
 20
194.349826
 30
0.0
 10
169.850141
 20
198.349829
 30
0.0
 10
180.850148
 20
198.349829
 30
0.0
 10
180.850148
 20
194.349826
 30
0.0
 10
196.600162
 20
194.349826
 30
0.0
 10
196.600162
 20
198.349829
 30
0.0
 10
212.350174
 20
198.349829
 30
0.0
 10
212.350174
 20
187.149820
 30
0.0
 10
208.350171
 20
187.149820
 30
0.0
 10
208.350171
 20
175.949812
 30
0.0
 10
212.350174
 20
175.949812
 30
0.0
 10
212.350174
 20
164.749800
 30
0.0
 10
208.350171
 20
164.749800
 30
0.0
 10
208.350171
 20
153.549792
 30
0.0
 10
212.350174
 20
153.549792
 30
0.0
 10
212.350174
 20
142.349783
 30
0.0
 10
196.600162
 20
142.349783
 30
0.0
 10
196.600162
 20
146.349786
 30
0.0
 10
180.850148
 20
146.349786
 30
0.0
 10
180.850148
 20
142.349783
 30
0.0
 10
169.850141
 20
142.349783
 30
0.0
 10
169.850141
 20
146.349786
 30
0.0
 10
158.850132
 20
146.349786
 30
0.0
 10
158.850132
 20
142.349783
 30
0.0
 10
147.850121
 20
142.349783
 30
0.0
 10
147.850121
 20
146.349786
 30
0.0
 10
136.850112
 20
146.349786
 30
0.0
 10
136.850112
 20
142.349783
 30
0.0
 10
125.850102
 20
142.349783
 30
0.0
 10
125.850102
 20
146.349786
 30
0.0
 10
114.850096
 20
146.349786
 30
0.0
 10
114.850096
 20
142.349783
 30
0.0
 10
103.850087
 20
142.349783
 30
0.0
 10
103.850087
 20
146.349786
 30
0.0
 10
92.850075
 20
146.349786
 30
0.0
 10
92.850075
 20
142.349783
 30
0.0
 10
81.850066
 20
142.349783
 30
0.0
 10
81.850066
 20
146.349786
 30
0.0
 10
70.850060
 20
146.349786
 30
0.0
 10
70.850060
 20
142.349783
 30
0.0
 10
59.850051
 20
142.349783
 30
0.0
 10
59.850051
 20
146.349786
 30
0.0
 10
48.850042
 20
146.349786
 30
0.0
 10
48.850042
 20
142.349783
 30
0.0
 10
37.850033
 20
142.349783
 30
0.0
 10
37.850033
 20
146.349786
 30
0.0
 10
22.100018
 20
146.349786
 30
0.0
 10
22.100018
 20
142.349783
 30
0.0
 10
6.350006
 20
142.349783
 30
0.0
 10
6.350006
 20
153.549792
 30
0.0
 10
10.350009
 20
153.549792
 30
0.0
 10
10.350009
 20
164.749800
 30
0.0
 10
6.350006
 20
164.749800
 30
0.0
 10
6.350006
 20
175.949812
 30
0.0
 10
10.350009
 20
175.949812
 30
0.0
 10
10.350009
 20
187.149820
 30
0.0
 10
6.350006
 20
187.149820
 30
0.0
 10
6.350006
 20
198.349829
 30
0.0
 10
22.100018
 20
198.349829
 30
0.0
 10
22.100018
 20
194.349826
 30
0.0
 10
37.850033
 20
194.349826
 30
0.0
 10
37.850033
 20
198.349829
 30
0.0
 10
48.850042
 20
198.349829
 30
0.0
 10
48.850042
 20
194.349826
 30
0.0
  0
LWPOLYLINE
  5
106
100
AcDbEntity
  8
0
 62
3
100
AcDbPolyline
 90
10
 70
0
 10
363.926936
 20
76.175685
 30
0.0
 10
365.865689
 20
81.673882
 30
0.0
 10
368.667817
 20
81.673882
 30
0.0
 10
363.942091
 20
70.048923
 30
0.0
 10
360.988523
 20
70.048923
 30
0.0
 10
362.336585
 20
73.229680
 30
0.0
 10
359.027050
 20
81.673882
 30
0.0
 10
361.889743
 20
81.673882
 30
0.0
 10
363.926936
 20
76.175685
 30
0.0
 10
363.926936
 20
76.175685
 30
0.0
  0
LWPOLYLINE
  5
107
100
AcDbEntity
  8
0
 62
3
100
AcDbPolyline
 90
33
 70
0
 10
358.466641
 20
73.244835
 30
0.0
 10
357.535139
 20
73.070676
 30
0.0
 10
356.330981
 20
73.002519
 30
0.0
 10
355.586438
 20
73.042750
 30
0.0
 10
354.943188
 20
73.163443
 30
0.0
 10
354.401232
 20
73.364596
 30
0.0
 10
353.960568
 20
73.646212
 30
0.0
 10
353.622600
 20
74.025356
 30
0.0
 10
353.381194
 20
74.519041
 30
0.0
 10
353.236351
 20
75.127265
 30
0.0
 10
353.188070
 20
75.850029
 30
0.0
 10
353.188070
 20
79.825975
 30
0.0
 10
352.067252
 20
79.825975
 30
0.0
 10
352.067252
 20
81.673882
 30
0.0
 10
353.188070
 20
81.673882
 30
0.0
 10
353.188070
 20
84.104888
 30
0.0
 10
355.914477
 20
84.104888
 30
0.0
 10
355.914477
 20
81.673882
 30
0.0
 10
358.466641
 20
81.673882
 30
0.0
 10
358.466641
 20
79.825975
 30
0.0
 10
355.914477
 20
79.825975
 30
0.0
 10
355.914477
 20
76.811842
 30
0.0
 10
355.921815
 20
76.031808
 30
0.0
 10
356.042973
 20
75.433497
 30
0.0
 10
356.188762
 20
75.194949
 30
0.0
 10
356.414067
 20
75.009430
 30
0.0
 10
356.747301
 20
74.895807
 30
0.0
 10
357.201693
 20
74.857933
 30
0.0
 10
357.754538
 20
74.948809
 30
0.0
 10
358.239227
 20
75.115433
 30
0.0
 10
358.466415
 20
75.115433
 30
0.0
 10
358.466415
 20
73.244835
 30
0.0
 10
358.466641
 20
73.244835
 30
0.0
  0
LWPOLYLINE
  5
108
100
AcDbEntity
  8
0
 62
3
100
AcDbPolyline
 90
6
 70
0
 10
350.454127
 20
73.169115
 30
0.0
 10
347.727775
 20
73.169115
 30
0.0
 10
347.727775
 20
81.673882
 30
0.0
 10
350.454127
 20
81.673882
 30
0.0
 10
350.454127
 20
73.169115
 30
0.0
 10
350.454127
 20
73.169115
 30
0.0
  0
LWPOLYLINE
  5
109
100
AcDbEntity
  8
0
 62
3
100
AcDbPolyline
 90
6
 70
0
 10
350.529903
 20
82.885603
 30
0.0
 10
347.652055
 20
82.885603
 30
0.0
 10
347.652055
 20
84.953078
 30
0.0
 10
350.529903
 20
84.953078
 30
0.0
 10
350.529903
 20
82.885603
 30
0.0
 10
350.529903
 20
82.885603
 30
0.0
  0
LWPOLYLINE
  5
10a
100
AcDbEntity
  8
0
 62
3
100
AcDbPolyline
 90
19
 70
0
 10
346.167707
 20
79.076252
 30
0.0
 10
345.925363
 20
79.076252
 30
0.0
 10
345.364926
 20
79.167099
 30
0.0
 10
344.721205
 20
79.197354
 30
0.0
 10
343.691235
 20
79.121605
 30
0.0
 10
342.729450
 20
78.864134
 30
0.0
 10
342.729450
 20
73.169031
 30
0.0
 10
340.003071
 20
73.169031
 30
0.0
 10
340.003071
 20
81.673797
 30
0.0
 10
342.729450
 20
81.673797
 30
0.0
 10
342.729450
 20
80.424202
 30
0.0
 10
343.571954
 20
81.066032
 30
0.0
 10
344.297082
 20
81.446580
 30
0.0
 10
344.937035
 20
81.639705
 30
0.0
 10
345.523958
 20
81.704080
 30
0.0
 10
345.849615
 20
81.696742
 30
0.0
 10
346.167707
 20
81.673882
 30
0.0
 10
346.167707
 20
79.076252
 30
0.0
 10
346.167707
 20
79.076252
 30
0.0
  0
LWPOLYLINE
  5
10b
100
AcDbEntity
  8
0
 62
3
100
AcDbPolyline
 90
28
 70
0
 10
337.420596
 20
73.169115
 30
0.0
 10
334.694225
 20
73.169115
 30
0.0
 10
334.694225
 20
74.108210
 30
0.0
 10
333.308317
 20
73.229680
 30
0.0
 10
332.619158
 20
73.008171
 30
0.0
 10
331.808813
 20
72.934335
 30
0.0
 10
331.144745
 20
72.984983
 30
0.0
 10
330.561137
 20
73.136928
 30
0.0
 10
330.057991
 20
73.390169
 30
0.0
 10
329.635307
 20
73.744707
 30
0.0
 10
329.303982
 20
74.198145
 30
0.0
 10
329.067321
 20
74.748142
 30
0.0
 10
328.925324
 20
75.394697
 30
0.0
 10
328.877992
 20
76.137811
 30
0.0
 10
328.877992
 20
81.673882
 30
0.0
 10
331.619499
 20
81.673882
 30
0.0
 10
331.619499
 20
77.455591
 30
0.0
 10
331.657373
 20
76.380155
 30
0.0
 10
331.854279
 20
75.675841
 30
0.0
 10
332.034154
 20
75.433511
 30
0.0
 10
332.285967
 20
75.266901
 30
0.0
 10
333.103875
 20
75.138151
 30
0.0
 10
333.876345
 20
75.266901
 30
0.0
 10
334.694253
 20
75.645559
 30
0.0
 10
334.694253
 20
81.673882
 30
0.0
 10
337.420596
 20
81.673882
 30
0.0
 10
337.420596
 20
73.169115
 30
0.0
 10
337.420596
 20
73.169115
 30
0.0
  0
LWPOLYLINE
  5
10c
100
AcDbEntity
  8
0
 62
3
100
AcDbPolyline
 90
50
 70
0
 10
324.258297
 20
72.941898
 30
0.0
 10
323.192371
 20
73.008164
 30
0.0
 10
322.221104
 20
73.206961
 30
0.0
 10
321.363427
 20
73.543977
 30
0.0
 10
320.623139
 20
74.024898
 30
0.0
 10
320.024854
 20
74.649688
 30
0.0
 10
319.578033
 20
75.418370
 30
0.0
 10
319.299717
 20
76.330943
 30
0.0
 10
319.206945
 20
77.387406
 30
0.0
 10
319.305397
 20
78.495001
 30
0.0
 10
319.600755
 20
79.439783
 30
0.0
 10
320.079761
 20
80.229278
 30
0.0
 10
320.714020
 20
80.871129
 30
0.0
 10
321.456201
 20
81.336873
 30
0.0
 10
322.304416
 20
81.658727
 30
0.0
 10
323.222654
 20
81.846157
 30
0.0
 10
324.174985
 20
81.908634
 30
0.0
 10
325.011837
 20
81.861306
 30
0.0
 10
325.780519
 20
81.719320
 30
0.0
 10
327.151272
 20
81.227039
 30
0.0
 10
327.151272
 20
78.902036
 30
0.0
 10
326.765051
 20
78.902036
 30
0.0
 10
326.378801
 20
79.220129
 30
0.0
 10
325.833520
 20
79.576068
 30
0.0
 10
325.151953
 20
79.848694
 30
0.0
 10
324.288579
 20
79.962317
 30
0.0
 10
323.774550
 20
79.918770
 30
0.0
 10
323.322998
 20
79.788129
 30
0.0
 10
322.933923
 20
79.570395
 30
0.0
 10
322.607325
 20
79.265567
 30
0.0
 10
322.352205
 20
78.889747
 30
0.0
 10
322.169977
 20
78.451447
 30
0.0
 10
322.024194
 20
77.387406
 30
0.0
 10
322.173766
 20
76.308217
 30
0.0
 10
322.360730
 20
75.879387
 30
0.0
 10
322.622480
 20
75.524401
 30
0.0
 10
322.956645
 20
75.246082
 30
0.0
 10
323.353295
 20
75.047283
 30
0.0
 10
323.812428
 20
74.928004
 30
0.0
 10
324.334045
 20
74.888244
 30
0.0
 10
325.257956
 20
75.001810
 30
0.0
 10
325.947143
 20
75.282057
 30
0.0
 10
326.401520
 20
75.600121
 30
0.0
 10
326.765051
 20
75.925805
 30
0.0
 10
327.151272
 20
75.925805
 30
0.0
 10
327.151272
 20
73.600802
 30
0.0
 10
325.803237
 20
73.123677
 30
0.0
 10
325.068641
 20
72.987343
 30
0.0
 10
324.258297
 20
72.941898
 30
0.0
 10
324.258297
 20
72.941898
 30
0.0
  0
LWPOLYLINE
  5
10d
100
AcDbEntity
  8
0
 62
3
100
AcDbPolyline
 90
44
 70
0
 10
317.904348
 20
76.917845
 30
0.0
 10
311.663994
 20
76.917845
 30
0.0
 10
311.734046
 20
76.447361
 30
0.0
 10
311.883617
 20
76.035569
 30
0.0
 10
312.112707
 20
75.682468
 30
0.0
 10
312.421315
 20
75.388059
 30
0.0
 10
312.814651
 20
75.156129
 30
0.0
 10
313.290347
 20
74.990465
 30
0.0
 10
314.488813
 20
74.857933
 30
0.0
 10
315.338909
 20
74.935558
 30
0.0
 10
316.162501
 20
75.168434
 30
0.0
 10
316.887638
 20
75.490315
 30
0.0
 10
317.442379
 20
75.834902
 30
0.0
 10
317.745308
 20
75.834902
 30
0.0
 10
317.745308
 20
73.646212
 30
0.0
 10
316.003460
 20
73.108522
 30
0.0
 10
315.142004
 20
72.983554
 30
0.0
 10
314.193453
 20
72.941898
 30
0.0
 10
312.988362
 20
73.013845
 30
0.0
 10
311.932841
 20
73.229687
 30
0.0
 10
311.026893
 20
73.589424
 30
0.0
 10
310.270517
 20
74.093054
 30
0.0
 10
309.674122
 20
74.729667
 30
0.0
 10
309.248126
 20
75.488403
 30
0.0
 10
308.992529
 20
76.369265
 30
0.0
 10
308.907330
 20
77.372251
 30
0.0
 10
308.987795
 20
78.370033
 30
0.0
 10
309.229193
 20
79.258003
 30
0.0
 10
309.631522
 20
80.036160
 30
0.0
 10
310.194782
 20
80.704505
 30
0.0
 10
310.901935
 20
81.244573
 30
0.0
 10
311.728366
 20
81.630335
 30
0.0
 10
312.674075
 20
81.861793
 30
0.0
 10
313.739062
 20
81.938945
 30
0.0
 10
314.712224
 20
81.873152
 30
0.0
 10
315.556640
 20
81.675773
 30
0.0
 10
316.272311
 20
81.346808
 30
0.0
 10
316.859237
 20
80.886256
 30
0.0
 10
317.316473
 20
80.305949
 30
0.0
 10
317.643070
 20
79.610153
 30
0.0
 10
317.839029
 20
78.798868
 30
0.0
 10
317.904348
 20
77.872095
 30
0.0
 10
317.904348
 20
76.917845
 30
0.0
 10
317.904348
 20
76.917845
 30
0.0
  0
LWPOLYLINE
  5
10e
100
AcDbEntity
  8
0
 62
3
100
AcDbPolyline
 90
11
 70
0
 10
315.193124
 20
78.515815
 30
0.0
 10
315.075739
 20
79.265588
 30
0.0
 10
314.769023
 20
79.803285
 30
0.0
 10
314.255935
 20
80.127029
 30
0.0
 10
313.519436
 20
80.234944
 30
0.0
 10
312.801871
 20
80.132702
 30
0.0
 10
312.224412
 20
79.825975
 30
0.0
 10
311.828709
 20
79.293980
 30
0.0
 10
311.656417
 20
78.515815
 30
0.0
 10
315.193124
 20
78.515815
 30
0.0
 10
315.193124
 20
78.515815
 30
0.0
  0
LWPOLYLINE
  5
10f
100
AcDbEntity
  8
0
 62
3
100
AcDbPolyline
 90
71
 70
0
 10
307.680464
 20
76.713403
 30
0.0
 10
307.591952
 20
75.919152
 30
0.0
 10
307.326415
 20
75.202526
 30
0.0
 10
306.883852
 20
74.563526
 30
0.0
 10
306.264265
 20
74.002151
 30
0.0
 10
305.496528
 20
73.548230
 30
0.0
 10
304.601939
 20
73.224000
 30
0.0
 10
303.580497
 20
73.029463
 30
0.0
 10
302.432204
 20
72.964617
 30
0.0
 10
301.120140
 20
73.025203
 30
0.0
 10
299.986048
 20
73.206961
 30
0.0
 10
298.039725
 20
73.835555
 30
0.0
 10
298.039725
 20
76.539215
 30
0.0
 10
298.357798
 20
76.539215
 30
0.0
 10
299.312027
 20
75.903051
 30
0.0
 10
300.372280
 20
75.433497
 30
0.0
 10
301.470403
 20
75.143831
 30
0.0
 10
302.523085
 20
75.047276
 30
0.0
 10
303.219821
 20
75.092714
 30
0.0
 10
303.924135
 20
75.244154
 30
0.0
 10
304.469408
 20
75.584966
 30
0.0
 10
304.634125
 20
75.838676
 30
0.0
 10
304.689030
 20
76.190812
 30
0.0
 10
304.609511
 20
76.535420
 30
0.0
 10
304.370954
 20
76.826997
 30
0.0
 10
303.986614
 20
77.067444
 30
0.0
 10
303.454593
 20
77.243529
 30
0.0
 10
302.106556
 20
77.523719
 30
0.0
 10
300.781237
 20
77.864531
 30
0.0
 10
299.556264
 20
78.407908
 30
0.0
 10
299.092876
 20
78.740651
 30
0.0
 10
298.728886
 20
79.114098
 30
0.0
 10
298.457197
 20
79.535370
 30
0.0
 10
298.263133
 20
80.003966
 30
0.0
 10
298.107882
 20
81.083134
 30
0.0
 10
298.195921
 20
81.834313
 30
0.0
 10
298.460038
 20
82.512597
 30
0.0
 10
298.900233
 20
83.117987
 30
0.0
 10
299.516506
 20
83.650482
 30
0.0
 10
300.274777
 20
84.087845
 30
0.0
 10
301.133393
 20
84.400247
 30
0.0
 10
302.092355
 20
84.587689
 30
0.0
 10
303.151664
 20
84.650169
 30
0.0
 10
304.257357
 20
84.595256
 30
0.0
 10
305.347903
 20
84.430516
 30
0.0
 10
306.364611
 20
84.190076
 30
0.0
 10
307.233642
 20
83.892826
 30
0.0
 10
307.233642
 20
81.295196
 30
0.0
 10
306.923138
 20
81.295196
 30
0.0
 10
306.163922
 20
81.795054
 30
0.0
 10
305.249453
 20
82.204008
 30
0.0
 10
304.253570
 20
82.482329
 30
0.0
 10
303.234968
 20
82.575102
 30
0.0
 10
302.507935
 20
82.522073
 30
0.0
 10
301.818771
 20
82.340293
 30
0.0
 10
301.311366
 20
81.991946
 30
0.0
 10
301.152326
 20
81.747697
 30
0.0
 10
301.099313
 20
81.469384
 30
0.0
 10
301.184512
 20
81.073687
 30
0.0
 10
301.440111
 20
80.780225
 30
0.0
 10
301.932370
 20
80.554913
 30
0.0
 10
302.727560
 20
80.348538
 30
0.0
 10
303.916563
 20
80.098630
 30
0.0
 10
305.151000
 20
79.765411
 30
0.0
 10
306.275627
 20
79.263669
 30
0.0
 10
307.059460
 20
78.606691
 30
0.0
 10
307.331149
 20
78.215723
 30
0.0
 10
307.525213
 20
77.769853
 30
0.0
 10
307.641652
 20
77.269079
 30
0.0
 10
307.680464
 20
76.713403
 30
0.0
 10
307.680464
 20
76.713403
 30
0.0
  0
LWPOLYLINE
  5
110
100
AcDbEntity
  8
0
 62
3
100
AcDbPolyline
 90
15
 70
0
 10
290.481622
 20
73.169115
 30
0.0
 10
287.588641
 20
73.169115
 30
0.0
 10
287.588641
 20
80.719632
 30
0.0
 10
285.498430
 20
75.819746
 30
0.0
 10
283.491519
 20
75.819746
 30
0.0
 10
281.401300
 20
80.719632
 30
0.0
 10
281.401300
 20
73.169115
 30
0.0
 10
278.659788
 20
73.169115
 30
0.0
 10
278.659788
 20
84.445671
 30
0.0
 10
282.037457
 20
84.445671
 30
0.0
 10
284.574491
 20
78.788470
 30
0.0
 10
287.103955
 20
84.445671
 30
0.0
 10
290.481622
 20
84.445671
 30
0.0
 10
290.481622
 20
73.169115
 30
0.0
 10
290.481622
 20
73.169115
 30
0.0
  0
LWPOLYLINE
  5
111
100
AcDbEntity
  8
0
 62
3
100
AcDbPolyline
 90
15
 70
0
 10
275.789525
 20
73.169115
 30
0.0
 10
272.896547
 20
73.169115
 30
0.0
 10
272.896547
 20
80.719632
 30
0.0
 10
270.806331
 20
75.819746
 30
0.0
 10
268.799420
 20
75.819746
 30
0.0
 10
266.709206
 20
80.719632
 30
0.0
 10
266.709206
 20
73.169115
 30
0.0
 10
263.967688
 20
73.169115
 30
0.0
 10
263.967688
 20
84.445671
 30
0.0
 10
267.345358
 20
84.445671
 30
0.0
 10
269.882394
 20
78.788470
 30
0.0
 10
272.411859
 20
84.445671
 30
0.0
 10
275.789525
 20
84.445671
 30
0.0
 10
275.789525
 20
73.169115
 30
0.0
 10
275.789525
 20
73.169115
 30
0.0
  0
ENDSEC
  0
SECTION
  2
OBJECTS
  0
DICTIONARY
  5
C
330
0
100
AcDbDictionary
  3
ACAD_GROUP
350
D
  3
ACAD_MLINESTYLE
350
17
  0
DICTIONARY
  5
D
330
C
100
AcDbDictionary
  0
DICTIONARY
  5
1A
330
C
100
AcDbDictionary
  0
DICTIONARY
  5
17
330
C
100
AcDbDictionary
  3
STANDARD
350
18
  0
DICTIONARY
  5
19
330
C
100
AcDbDictionary
  0
ENDSEC
  0
EOF
