  0
SECTION
  2
HEADER
  9
$ACADVER
  1
AC1014
  9
$HANDSEED
  5
FFFF
  9
$MEASUREMENT
 70
     1
  0
ENDSEC
  0
SECTION
  2
TABLES
  0
TABLE
  2
VPORT
  5
8
330
0
100
AcDbSymbolTable
 70
     4
  0
VPORT
  5
2E
330
8
100
AcDbSymbolTableRecord
100
AcDbViewportTableRecord
  2
*ACTIVE
 70
     0
 10
0.0
 20
0.0
 11
1.0
 21
1.0
 12
210.0
 22
148.5
 13
0.0
 23
0.0
 14
10.0
 24
10.0
 15
10.0
 25
10.0
 16
0.0
 26
0.0
 36
1.0
 17
0.0
 27
0.0
 37
0.0
 40
341.0
 41
1.24
 42
50.0
 43
0.0
 44
0.0
 50
0.0
 51
0.0
 71
     0
 72
   100
 73
     1
 74
     3
 75
     0
 76
     0
 77
     0
 78
     0
  0
ENDTAB
  0
TABLE
  2
LTYPE
  5
5
330
0
100
AcDbSymbolTable
 70
     1
  0
LTYPE
  5
14
330
5
100
AcDbSymbolTableRecord
100
AcDbLinetypeTableRecord
  2
BYBLOCK
 70
     0
  3

 72
    65
 73
     0
 40
0.0
  0
LTYPE
  5
15
330
5
100
AcDbSymbolTableRecord
100
AcDbLinetypeTableRecord
  2
BYLAYER
 70
     0
  3

 72
    65
 73
     0
 40
0.0
  0
LTYPE
  5
16
330
5
100
AcDbSymbolTableRecord
100
AcDbLinetypeTableRecord
  2
CONTINUOUS
 70
     0
  3
Solid line
 72
    65
 73
     0
 40
0.0
  0
ENDTAB
  0
TABLE
  2
LAYER
  5
2
100
AcDbSymbolTable
 70
1
  0
LAYER
  5
50
100
AcDbSymbolTableRecord
100
AcDbLayerTableRecord
  2
0
 70
0
  6
CONTINUOUS
  0
ENDTAB
  0
TABLE
  2
STYLE
  5
3
330
0
100
AcDbSymbolTable
 70
     1
  0
STYLE
  5
11
330
3
100
AcDbSymbolTableRecord
100
AcDbTextStyleTableRecord
  2
STANDARD
 70
     0
 40
0.0
 41
1.0
 50
0.0
 71
     0
 42
2.5
  3
txt
  4

  0
ENDTAB
  0
TABLE
  2
VIEW
  5
6
330
0
100
AcDbSymbolTable
 70
     0
  0
ENDTAB
  0
TABLE
  2
UCS
  5
7
330
0
100
AcDbSymbolTable
 70
     0
  0
ENDTAB
  0
TABLE
  2
APPID
  5
9
330
0
100
AcDbSymbolTable
 70
     2
  0
APPID
  5
12
330
9
100
AcDbSymbolTableRecord
100
AcDbRegAppTableRecord
  2
ACAD
 70
     0
  0
ENDTAB
  0
TABLE
  2
DIMSTYLE
  5
A
330
0
100
AcDbSymbolTable
 70
     1
  0
DIMSTYLE
105
27
330
A
100
AcDbSymbolTableRecord
100
AcDbDimStyleTableRecord
  2
ISO-25
 70
     0
  3

  4

  5

  6

  7

 40
1.0
 41
2.5
 42
0.625
 43
3.75
 44
1.25
 45
0.0
 46
0.0
 47
0.0
 48
0.0
140
2.5
141
2.5
142
0.0
143
0.03937007874016
144
1.0
145
0.0
146
1.0
147
0.625
 71
     0
 72
     0
 73
     0
 74
     0
 75
     0
 76
     0
 77
     1
 78
     8
170
     0
171
     3
172
     1
173
     0
174
     0
175
     0
176
     0
177
     0
178
     0
270
     2
271
     2
272
     2
273
     2
274
     3
340
11
275
     0
280
     0
281
     0
282
     0
283
     0
284
     8
285
     0
286
     0
287
     3
288
     0
  0
ENDTAB
  0
TABLE
  2
BLOCK_RECORD
  5
1
330
0
100
AcDbSymbolTable
 70
     1
  0
BLOCK_RECORD
  5
1F
330
1
100
AcDbSymbolTableRecord
100
AcDbBlockTableRecord
  2
*MODEL_SPACE
  0
BLOCK_RECORD
  5
1B
330
1
100
AcDbSymbolTableRecord
100
AcDbBlockTableRecord
  2
*PAPER_SPACE
  0
ENDTAB
  0
ENDSEC
  0
SECTION
  2
BLOCKS
  0
BLOCK
  5
20
330
1F
100
AcDbEntity
  8
0
100
AcDbBlockBegin
  2
*MODEL_SPACE
 70
     0
 10
0.0
 20
0.0
 30
0.0
  3
*MODEL_SPACE
  1

  0
ENDBLK
  5
21
330
1F
100
AcDbEntity
  8
0
100
AcDbBlockEnd
  0
BLOCK
  5
1C
330
1B
100
AcDbEntity
 67
     1
  8
0
100
AcDbBlockBegin
  2
*PAPER_SPACE
  1

  0
ENDBLK
  5
1D
330
1B
100
AcDbEntity
 67
     1
  8
0
100
AcDbBlockEnd
  0
ENDSEC
  0
SECTION
  2
ENTITIES
  0
LWPOLYLINE
  5
100
100
AcDbEntity
  8
0
 62
1
100
AcDbPolyline
 90
36
 70
0
 10
5.486581
 20
6.197069
 30
0.0
 10
5.069591
 20
6.573087
 30
0.0
 10
4.693001
 20
7.090937
 30
0.0
 10
4.345180
 20
7.709802
 30
0.0
 10
4.345180
 20
53.300051
 30
0.0
 10
4.345180
 20
98.890299
 30
0.0
 10
4.779355
 20
99.529244
 30
0.0
 10
5.016628
 20
99.924638
 30
0.0
 10
5.386886
 20
100.215510
 30
0.0
 10
6.302127
 20
100.419196
 30
0.0
 10
8.174352
 20
100.553034
 30
0.0
 10
16.437751
 20
100.680502
 30
0.0
 10
33.473080
 20
100.736608
 30
0.0
 10
115.864166
 20
100.893583
 30
0.0
 10
181.722214
 20
100.990823
 30
0.0
 10
192.280218
 20
101.011255
 30
0.0
 10
192.879311
 20
100.640997
 30
0.0
 10
193.397598
 20
100.192924
 30
0.0
 10
193.802440
 20
99.635586
 30
0.0
 10
193.907822
 20
99.302956
 30
0.0
 10
193.989029
 20
98.432543
 30
0.0
 10
194.098003
 20
93.042609
 30
0.0
 10
194.235815
 20
53.415903
 30
0.0
 10
194.345179
 20
7.831361
 30
0.0
 10
193.948372
 20
7.261148
 30
0.0
 10
193.496348
 20
6.773539
 30
0.0
 10
192.966808
 20
6.401914
 30
0.0
 10
192.383918
 20
6.310818
 30
0.0
 10
190.440970
 20
6.239495
 30
0.0
 10
178.827407
 20
6.141211
 30
0.0
 10
99.157200
 20
6.017465
 30
0.0
 10
20.094548
 20
5.978592
 30
0.0
 10
8.153490
 20
6.049100
 30
0.0
 10
6.088237
 20
6.112574
 30
0.0
 10
5.486581
 20
6.197052
 30
0.0
 10
5.486581
 20
6.197069
 30
0.0
  0
LWPOLYLINE
  5
101
100
AcDbEntity
  8
0
 62
1
100
AcDbPolyline
 90
21
 70
0
 10
20.851661
 20
17.471296
 30
0.0
 10
20.984564
 20
18.484863
 30
0.0
 10
21.055628
 20
20.547535
 30
0.0
 10
21.049478
 20
22.668365
 30
0.0
 10
20.950736
 20
23.856396
 30
0.0
 10
20.743194
 20
23.995715
 30
0.0
 10
20.061901
 20
24.075666
 30
0.0
 10
16.123591
 20
24.120666
 30
0.0
 10
12.185281
 20
24.075657
 30
0.0
 10
11.503988
 20
23.995707
 30
0.0
 10
11.296446
 20
23.856396
 30
0.0
 10
11.210858
 20
22.775849
 30
0.0
 10
11.198593
 20
20.788251
 30
0.0
 10
11.250635
 20
18.795469
 30
0.0
 10
11.357972
 20
17.699366
 30
0.0
 10
11.520907
 20
17.270811
 30
0.0
 10
16.086044
 20
17.270811
 30
0.0
 10
19.662011
 20
17.316255
 30
0.0
 10
20.513365
 20
17.378321
 30
0.0
 10
20.851663
 20
17.471296
 30
0.0
 10
20.851663
 20
17.471296
 30
0.0
  0
LWPOLYLINE
  5
102
100
AcDbEntity
  8
0
 62
1
100
AcDbPolyline
 90
21
 70
0
 10
41.713302
 20
17.402239
 30
0.0
 10
41.803492
 20
17.720710
 30
0.0
 10
41.876534
 20
18.460889
 30
0.0
 10
41.961824
 20
20.649767
 30
0.0
 10
41.950451
 20
22.855701
 30
0.0
 10
41.823691
 20
23.965517
 30
0.0
 10
39.866734
 20
24.126011
 30
0.0
 10
35.767732
 20
24.221755
 30
0.0
 10
31.631681
 20
24.226948
 30
0.0
 10
29.563568
 20
24.115784
 30
0.0
 10
29.384662
 20
23.944599
 30
0.0
 10
29.287501
 20
23.513166
 30
0.0
 10
29.241118
 20
20.898702
 30
0.0
 10
29.278984
 20
18.695494
 30
0.0
 10
29.366419
 20
17.671773
 30
0.0
 10
29.739768
 20
17.397825
 30
0.0
 10
31.741737
 20
17.320632
 30
0.0
 10
35.787618
 20
17.296163
 30
0.0
 10
39.802957
 20
17.323652
 30
0.0
 10
41.713302
 20
17.402346
 30
0.0
 10
41.713302
 20
17.402248
 30
0.0
  0
LWPOLYLINE
  5
103
100
AcDbEntity
  8
0
 62
1
100
AcDbPolyline
 90
19
 70
0
 10
68.924447
 20
17.616037
 30
0.0
 10
69.002210
 20
18.652862
 30
0.0
 10
69.034553
 20
20.895479
 30
0.0
 10
68.987718
 20
23.384077
 30
0.0
 10
68.918430
 20
23.929805
 30
0.0
 10
68.809009
 20
24.147522
 30
0.0
 10
66.345305
 20
24.212696
 30
0.0
 10
61.127581
 20
24.196440
 30
0.0
 10
55.905129
 20
24.122503
 30
0.0
 10
53.427255
 20
24.014641
 30
0.0
 10
53.335219
 20
22.985289
 30
0.0
 10
53.299058
 20
20.804366
 30
0.0
 10
53.322172
 20
18.612239
 30
0.0
 10
53.407953
 20
17.549274
 30
0.0
 10
55.898161
 20
17.448885
 30
0.0
 10
61.194047
 20
17.434633
 30
0.0
 10
66.476002
 20
17.494393
 30
0.0
 10
68.924430
 20
17.616031
 30
0.0
 10
68.924449
 20
17.616031
 30
0.0
  0
LWPOLYLINE
  5
104
100
AcDbEntity
  8
0
 62
1
100
AcDbPolyline
 90
19
 70
0
 10
90.013900
 20
20.674098
 30
0.0
 10
90.002555
 20
23.124777
 30
0.0
 10
89.868155
 20
24.057256
 30
0.0
 10
89.523643
 20
24.162587
 30
0.0
 10
88.778046
 20
24.239501
 30
0.0
 10
86.622184
 20
24.306264
 30
0.0
 10
84.477747
 20
24.253929
 30
0.0
 10
83.746436
 20
24.181968
 30
0.0
 10
83.421926
 20
24.078875
 30
0.0
 10
83.290116
 20
23.005874
 30
0.0
 10
83.230889
 20
20.950021
 30
0.0
 10
83.253016
 20
18.883708
 30
0.0
 10
83.365227
 20
17.779325
 30
0.0
 10
83.535201
 20
17.583417
 30
0.0
 10
83.965965
 20
17.484696
 30
0.0
 10
86.760101
 20
17.476032
 30
0.0
 10
89.968397
 20
17.521385
 30
0.0
 10
90.013917
 20
20.674064
 30
0.0
 10
90.013923
 20
20.674087
 30
0.0
  0
LWPOLYLINE
  5
105
100
AcDbEntity
  8
0
 62
1
100
AcDbPolyline
 90
16
 70
0
 10
125.620345
 20
17.542983
 30
0.0
 10
126.145897
 20
17.648094
 30
0.0
 10
126.100659
 20
20.926145
 30
0.0
 10
126.055419
 20
24.204193
 30
0.0
 10
111.102685
 20
24.249091
 30
0.0
 10
95.774044
 20
24.204136
 30
0.0
 10
95.557631
 20
24.099381
 30
0.0
 10
95.445933
 20
23.715409
 30
0.0
 10
95.398136
 20
20.887441
 30
0.0
 10
95.430848
 20
18.575773
 30
0.0
 10
95.509520
 20
17.549235
 30
0.0
 10
100.174651
 20
17.468666
 30
0.0
 10
110.352959
 20
17.440012
 30
0.0
 10
120.637246
 20
17.464396
 30
0.0
 10
125.620323
 20
17.542941
 30
0.0
 10
125.620345
 20
17.542983
 30
0.0
  0
LWPOLYLINE
  5
106
100
AcDbEntity
  8
0
 62
1
100
AcDbPolyline
 90
27
 70
0
 10
134.837582
 20
17.610824
 30
0.0
 10
135.012441
 20
17.766978
 30
0.0
 10
135.109709
 20
18.109767
 30
0.0
 10
135.160735
 20
20.021205
 30
0.0
 10
135.104810
 20
22.007841
 30
0.0
 10
134.978442
 20
22.361406
 30
0.0
 10
134.736281
 20
22.592515
 30
0.0
 10
134.191750
 20
22.894247
 30
0.0
 10
133.477121
 20
23.107274
 30
0.0
 10
132.650349
 20
23.232042
 30
0.0
 10
131.769381
 20
23.268987
 30
0.0
 10
130.892169
 20
23.218563
 30
0.0
 10
130.076668
 20
23.081211
 30
0.0
 10
129.380829
 20
22.857377
 30
0.0
 10
128.862605
 20
22.547503
 30
0.0
 10
128.624307
 20
22.299932
 30
0.0
 10
128.483992
 20
21.973675
 30
0.0
 10
128.348853
 20
20.490792
 30
0.0
 10
128.318853
 20
19.206793
 30
0.0
 10
128.376305
 20
18.314514
 30
0.0
 10
128.526766
 20
17.775678
 30
0.0
 10
128.775793
 20
17.552014
 30
0.0
 10
129.933909
 20
17.470650
 30
0.0
 10
131.915885
 20
17.459022
 30
0.0
 10
133.843262
 20
17.508597
 30
0.0
 10
134.837582
 20
17.610852
 30
0.0
 10
134.837582
 20
17.610824
 30
0.0
  0
LWPOLYLINE
  5
107
100
AcDbEntity
  8
0
 62
1
100
AcDbPolyline
 90
23
 70
0
 10
150.405840
 20
17.629789
 30
0.0
 10
150.555698
 20
17.767850
 30
0.0
 10
150.644626
 20
18.044681
 30
0.0
 10
150.698214
 20
19.361225
 30
0.0
 10
150.636645
 20
20.764000
 30
0.0
 10
150.501920
 20
21.036053
 30
0.0
 10
150.246557
 20
21.234882
 30
0.0
 10
149.457306
 20
21.497758
 30
0.0
 10
148.322885
 20
21.607788
 30
0.0
 10
147.153466
 20
21.556996
 30
0.0
 10
146.259225
 20
21.337410
 30
0.0
 10
145.885699
 20
21.143258
 30
0.0
 10
145.680221
 20
20.935201
 30
0.0
 10
145.579200
 20
20.600678
 30
0.0
 10
145.519055
 20
20.027123
 30
0.0
 10
145.493345
 20
18.324561
 30
0.0
 10
145.617503
 20
17.733791
 30
0.0
 10
145.759768
 20
17.617578
 30
0.0
 10
145.994549
 20
17.561322
 30
0.0
 10
148.437922
 20
17.491492
 30
0.0
 10
149.726675
 20
17.538434
 30
0.0
 10
150.405832
 20
17.629789
 30
0.0
 10
150.405840
 20
17.629789
 30
0.0
  0
LWPOLYLINE
  5
108
100
AcDbEntity
  8
0
 62
1
100
AcDbPolyline
 90
13
 70
0
 10
164.217353
 20
17.543793
 30
0.0
 10
164.746850
 20
17.649692
 30
0.0
 10
164.697650
 20
18.671511
 30
0.0
 10
164.648507
 20
19.693336
 30
0.0
 10
162.142461
 20
19.693336
 30
0.0
 10
159.636415
 20
19.693336
 30
0.0
 10
159.587046
 20
18.662867
 30
0.0
 10
159.600931
 20
17.805159
 30
0.0
 10
159.684949
 20
17.632490
 30
0.0
 10
159.837645
 20
17.554529
 30
0.0
 10
161.980285
 20
17.459389
 30
0.0
 10
164.217339
 20
17.543833
 30
0.0
 10
164.217350
 20
17.543793
 30
0.0
  0
LWPOLYLINE
  5
109
100
AcDbEntity
  8
0
 62
1
100
AcDbPolyline
 90
31
 70
0
 10
170.942237
 20
17.876912
 30
0.0
 10
171.371627
 20
18.195507
 30
0.0
 10
171.777321
 20
18.646633
 30
0.0
 10
172.084822
 20
19.285861
 30
0.0
 10
172.122321
 20
20.236315
 30
0.0
 10
172.062493
 20
21.739938
 30
0.0
 10
172.168817
 20
22.897952
 30
0.0
 10
172.193004
 20
23.601222
 30
0.0
 10
171.934093
 20
24.318047
 30
0.0
 10
171.563194
 20
24.918864
 30
0.0
 10
171.120300
 20
25.346834
 30
0.0
 10
170.581487
 20
25.619026
 30
0.0
 10
169.922822
 20
25.752509
 30
0.0
 10
169.173085
 20
25.739244
 30
0.0
 10
168.513306
 20
25.548615
 30
0.0
 10
167.948525
 20
25.182900
 30
0.0
 10
167.483790
 20
24.644389
 30
0.0
 10
167.250663
 20
24.257087
 30
0.0
 10
167.129694
 20
23.922631
 30
0.0
 10
167.137879
 20
23.002313
 30
0.0
 10
167.239439
 20
21.626578
 30
0.0
 10
167.144906
 20
20.430698
 30
0.0
 10
167.156816
 20
19.477701
 30
0.0
 10
167.443311
 20
18.706938
 30
0.0
 10
168.008385
 20
18.112028
 30
0.0
 10
168.856019
 20
17.686581
 30
0.0
 10
169.367152
 20
17.565877
 30
0.0
 10
169.882879
 20
17.557157
 30
0.0
 10
170.406740
 20
17.660721
 30
0.0
 10
170.942279
 20
17.876906
 30
0.0
 10
170.942257
 20
17.876906
 30
0.0
  0
LWPOLYLINE
  5
10a
100
AcDbEntity
  8
0
 62
1
100
AcDbPolyline
 90
36
 70
0
 10
184.112160
 20
18.011975
 30
0.0
 10
184.884627
 20
18.485484
 30
0.0
 10
185.562971
 20
19.055895
 30
0.0
 10
186.143482
 20
19.719577
 30
0.0
 10
186.622467
 20
20.472904
 30
0.0
 10
186.932457
 20
21.090762
 30
0.0
 10
187.102462
 20
21.599149
 30
0.0
 10
187.187245
 20
23.034723
 30
0.0
 10
187.112797
 20
24.389175
 30
0.0
 10
186.806245
 20
25.265007
 30
0.0
 10
186.322919
 20
26.031898
 30
0.0
 10
185.716630
 20
26.743662
 30
0.0
 10
185.036629
 20
27.349844
 30
0.0
 10
184.332160
 20
27.799983
 30
0.0
 10
183.371253
 20
28.124598
 30
0.0
 10
182.203017
 20
28.281528
 30
0.0
 10
181.003902
 20
28.260643
 30
0.0
 10
179.950353
 20
28.051782
 30
0.0
 10
179.095403
 20
27.636576
 30
0.0
 10
178.263982
 20
26.996643
 30
0.0
 10
177.532747
 20
26.202340
 30
0.0
 10
176.978352
 20
25.324022
 30
0.0
 10
176.594158
 20
24.288439
 30
0.0
 10
176.514599
 20
22.951199
 30
0.0
 10
176.594265
 20
21.660352
 30
0.0
 10
176.899965
 20
20.756552
 30
0.0
 10
177.393067
 20
19.915230
 30
0.0
 10
177.985637
 20
19.194455
 30
0.0
 10
178.680183
 20
18.591636
 30
0.0
 10
179.479217
 20
18.104196
 30
0.0
 10
180.091695
 20
17.814114
 30
0.0
 10
180.587763
 20
17.664587
 30
0.0
 10
182.023791
 20
17.643646
 30
0.0
 10
183.301375
 20
17.767511
 30
0.0
 10
184.112160
 20
18.011989
 30
0.0
 10
184.112160
 20
18.011989
 30
0.0
  0
LWPOLYLINE
  5
10b
100
AcDbEntity
  8
0
 62
1
100
AcDbPolyline
 90
22
 70
0
 10
155.979083
 20
18.205317
 30
0.0
 10
156.155613
 20
18.294527
 30
0.0
 10
156.297283
 20
18.470978
 30
0.0
 10
156.527700
 20
19.177095
 30
0.0
 10
156.636624
 20
19.874082
 30
0.0
 10
156.622823
 20
20.317979
 30
0.0
 10
156.401846
 20
20.592406
 30
0.0
 10
156.008270
 20
20.800138
 30
0.0
 10
155.492797
 20
20.938661
 30
0.0
 10
154.906119
 20
21.005455
 30
0.0
 10
153.721932
 20
20.913767
 30
0.0
 10
153.225819
 20
20.750247
 30
0.0
 10
152.861284
 20
20.504920
 30
0.0
 10
152.711271
 20
20.311710
 30
0.0
 10
152.635520
 20
20.081482
 30
0.0
 10
152.671580
 20
19.283061
 30
0.0
 10
152.840278
 20
18.512674
 30
0.0
 10
152.983356
 20
18.347926
 30
0.0
 10
153.204266
 20
18.255530
 30
0.0
 10
154.609941
 20
18.128620
 30
0.0
 10
155.979072
 20
18.205311
 30
0.0
 10
155.979072
 20
18.205317
 30
0.0
  0
LWPOLYLINE
  5
10c
100
AcDbEntity
  8
0
 62
1
100
AcDbPolyline
 90
15
 70
0
 10
24.456414
 20
18.864300
 30
0.0
 10
24.448300
 20
19.083304
 30
0.0
 10
24.265452
 20
19.240203
 30
0.0
 10
23.726070
 20
19.338845
 30
0.0
 10
22.976585
 20
19.353775
 30
0.0
 10
22.274426
 20
19.293089
 30
0.0
 10
21.877023
 20
19.164912
 30
0.0
 10
21.741913
 20
18.918831
 30
0.0
 10
21.903965
 20
18.744844
 30
0.0
 10
22.366424
 20
18.641508
 30
0.0
 10
23.132534
 20
18.607382
 30
0.0
 10
24.121517
 20
18.661266
 30
0.0
 10
24.350735
 20
18.740263
 30
0.0
 10
24.456414
 20
18.864311
 30
0.0
 10
24.456414
 20
18.864311
 30
0.0
  0
LWPOLYLINE
  5
10d
100
AcDbEntity
  8
0
 62
1
100
AcDbPolyline
 90
25
 70
0
 10
28.310236
 20
18.978696
 30
0.0
 10
28.510907
 20
19.606694
 30
0.0
 10
28.570312
 20
20.845077
 30
0.0
 10
28.525563
 20
21.992713
 30
0.0
 10
28.447122
 20
22.364129
 30
0.0
 10
28.311303
 20
22.625741
 30
0.0
 10
28.103102
 20
22.796403
 30
0.0
 10
27.807515
 20
22.894967
 30
0.0
 10
26.894179
 20
22.951194
 30
0.0
 10
26.032325
 20
22.901178
 30
0.0
 10
25.753209
 20
22.809744
 30
0.0
 10
25.554574
 20
22.648324
 30
0.0
 10
25.420874
 20
22.397637
 30
0.0
 10
25.336562
 20
22.038411
 30
0.0
 10
25.253924
 20
20.917229
 30
0.0
 10
25.256981
 20
19.681192
 30
0.0
 10
25.326895
 20
19.274792
 30
0.0
 10
25.460190
 20
18.984419
 30
0.0
 10
25.670205
 20
18.791280
 30
0.0
 10
25.970284
 20
18.676588
 30
0.0
 10
26.893995
 20
18.607382
 30
0.0
 10
27.894315
 20
18.671948
 30
0.0
 10
28.134918
 20
18.784454
 30
0.0
 10
28.310237
 20
18.978696
 30
0.0
 10
28.310237
 20
18.978696
 30
0.0
  0
LWPOLYLINE
  5
10e
100
AcDbEntity
  8
0
 62
1
100
AcDbPolyline
 90
16
 70
0
 10
47.177888
 20
18.864311
 30
0.0
 10
47.169760
 20
19.083316
 30
0.0
 10
46.986911
 20
19.240214
 30
0.0
 10
46.203250
 20
19.327232
 30
0.0
 10
44.834204
 20
19.356439
 30
0.0
 10
43.506750
 20
19.327678
 30
0.0
 10
42.847862
 20
19.240779
 30
0.0
 10
42.793639
 20
19.081639
 30
0.0
 10
42.828869
 20
18.864867
 30
0.0
 10
43.051816
 20
18.739484
 30
0.0
 10
43.549633
 20
18.649862
 30
0.0
 10
45.003377
 20
18.577980
 30
0.0
 10
46.457118
 20
18.649399
 30
0.0
 10
46.954929
 20
18.738906
 30
0.0
 10
47.177868
 20
18.864303
 30
0.0
 10
47.177874
 20
18.864311
 30
0.0
  0
LWPOLYLINE
  5
10f
100
AcDbEntity
  8
0
 62
1
100
AcDbPolyline
 90
21
 70
0
 10
52.315503
 20
18.885139
 30
0.0
 10
52.489222
 20
19.585030
 30
0.0
 10
52.544679
 20
20.785703
 30
0.0
 10
52.483146
 20
21.986431
 30
0.0
 10
52.305880
 20
22.686481
 30
0.0
 10
52.119091
 20
22.816986
 30
0.0
 10
51.772350
 20
22.898074
 30
0.0
 10
50.302294
 20
22.951182
 30
0.0
 10
48.922422
 20
22.900027
 30
0.0
 10
48.317910
 20
22.750697
 30
0.0
 10
48.168522
 20
22.143592
 30
0.0
 10
48.117431
 20
20.754164
 30
0.0
 10
48.169958
 20
19.250191
 30
0.0
 10
48.258754
 20
18.940675
 30
0.0
 10
48.409802
 20
18.787823
 30
0.0
 10
49.113317
 20
18.666061
 30
0.0
 10
50.394180
 20
18.612450
 30
0.0
 10
51.801695
 20
18.662463
 30
0.0
 10
52.130318
 20
18.746520
 30
0.0
 10
52.315486
 20
18.885139
 30
0.0
 10
52.315503
 20
18.885139
 30
0.0
  0
LWPOLYLINE
  5
110
100
AcDbEntity
  8
0
 62
1
100
AcDbPolyline
 90
16
 70
0
 10
73.433021
 20
18.781755
 30
0.0
 10
73.449842
 20
18.976384
 30
0.0
 10
73.338900
 20
19.199433
 30
0.0
 10
72.871611
 20
19.357108
 30
0.0
 10
71.989677
 20
19.441715
 30
0.0
 10
71.000737
 20
19.439740
 30
0.0
 10
70.212417
 20
19.337479
 30
0.0
 10
69.967417
 20
19.214089
 30
0.0
 10
69.849448
 20
19.038369
 30
0.0
 10
69.871207
 20
18.857354
 30
0.0
 10
70.045358
 20
18.718078
 30
0.0
 10
70.731985
 20
18.633871
 30
0.0
 10
71.852029
 20
18.622582
 30
0.0
 10
72.915657
 20
18.674971
 30
0.0
 10
73.433035
 20
18.781832
 30
0.0
 10
73.433035
 20
18.781832
 30
0.0
  0
LWPOLYLINE
  5
111
100
AcDbEntity
  8
0
 62
1
100
AcDbPolyline
 90
24
 70
0
 10
77.150407
 20
18.867523
 30
0.0
 10
77.353093
 20
19.054975
 30
0.0
 10
77.464659
 20
19.352615
 30
0.0
 10
77.521718
 20
20.851906
 30
0.0
 10
77.486573
 20
22.068693
 30
0.0
 10
77.418250
 20
22.453856
 30
0.0
 10
77.294414
 20
22.719687
 30
0.0
 10
77.098803
 20
22.888292
 30
0.0
 10
76.815158
 20
22.981792
 30
0.0
 10
75.918716
 20
23.031926
 30
0.0
 10
75.015997
 20
22.975174
 30
0.0
 10
74.724179
 20
22.872606
 30
0.0
 10
74.519173
 20
22.694436
 30
0.0
 10
74.386314
 20
22.421065
 30
0.0
 10
74.310941
 20
22.032885
 30
0.0
 10
74.274007
 20
20.833692
 30
0.0
 10
74.343010
 20
19.433144
 30
0.0
 10
74.459954
 20
19.131688
 30
0.0
 10
74.668418
 20
18.918608
 30
0.0
 10
75.186835
 20
18.691574
 30
0.0
 10
75.892133
 20
18.604938
 30
0.0
 10
76.606074
 20
18.662370
 30
0.0
 10
77.150407
 20
18.867540
 30
0.0
 10
77.150407
 20
18.867523
 30
0.0
  0
LWPOLYLINE
  5
112
100
AcDbEntity
  8
0
 62
1
100
AcDbPolyline
 90
23
 70
0
 10
82.108267
 20
18.801336
 30
0.0
 10
82.350879
 20
18.944626
 30
0.0
 10
82.477589
 20
19.206147
 30
0.0
 10
82.533804
 20
20.785714
 30
0.0
 10
82.481119
 20
22.251427
 30
0.0
 10
82.402523
 20
22.602929
 30
0.0
 10
82.277767
 20
22.788696
 30
0.0
 10
81.678155
 20
22.950220
 30
0.0
 10
80.446647
 20
23.017993
 30
0.0
 10
79.263727
 20
22.992452
 30
0.0
 10
78.892353
 20
22.917637
 30
0.0
 10
78.637523
 20
22.774161
 30
0.0
 10
78.476595
 20
22.541540
 30
0.0
 10
78.386933
 20
22.199294
 30
0.0
 10
78.330858
 20
21.104021
 30
0.0
 10
78.365278
 20
19.226541
 30
0.0
 10
78.490621
 20
18.921690
 30
0.0
 10
78.732971
 20
18.779726
 30
0.0
 10
79.421195
 20
18.658498
 30
0.0
 10
80.439284
 20
18.623138
 30
0.0
 10
81.448039
 20
18.671477
 30
0.0
 10
82.108267
 20
18.801345
 30
0.0
 10
82.108267
 20
18.801342
 30
0.0
  0
LWPOLYLINE
  5
113
100
AcDbEntity
  8
0
 62
1
100
AcDbPolyline
 90
20
 70
0
 10
92.223845
 20
18.941589
 30
0.0
 10
92.461386
 20
19.235035
 30
0.0
 10
92.538831
 20
19.509200
 30
0.0
 10
92.455756
 20
19.807185
 30
0.0
 10
92.211738
 20
20.172081
 30
0.0
 10
91.918653
 20
20.464731
 30
0.0
 10
91.619461
 20
20.590478
 30
0.0
 10
91.294595
 20
20.552059
 30
0.0
 10
90.924483
 20
20.352212
 30
0.0
 10
90.702303
 20
20.128463
 30
0.0
 10
90.584840
 20
19.860982
 30
0.0
 10
90.563419
 20
19.572438
 30
0.0
 10
90.629335
 20
19.285511
 30
0.0
 10
90.773914
 20
19.022872
 30
0.0
 10
90.988471
 20
18.807201
 30
0.0
 10
91.264318
 20
18.661168
 30
0.0
 10
91.592771
 20
18.607452
 30
0.0
 10
91.900656
 20
18.705606
 30
0.0
 10
92.223873
 20
18.941589
 30
0.0
 10
92.223854
 20
18.941589
 30
0.0
  0
LWPOLYLINE
  5
114
100
AcDbEntity
  8
0
 62
1
100
AcDbPolyline
 90
18
 70
0
 10
94.525655
 20
18.867528
 30
0.0
 10
94.789386
 20
19.162578
 30
0.0
 10
94.884348
 20
19.528349
 30
0.0
 10
94.809260
 20
19.916365
 30
0.0
 10
94.562855
 20
20.278151
 30
0.0
 10
94.231218
 20
20.520693
 30
0.0
 10
93.893791
 20
20.596168
 30
0.0
 10
93.558387
 20
20.504764
 30
0.0
 10
93.232812
 20
20.246669
 30
0.0
 10
92.990273
 20
19.907735
 30
0.0
 10
92.908358
 20
19.580636
 30
0.0
 10
92.987042
 20
19.260289
 30
0.0
 10
93.226293
 20
18.941612
 30
0.0
 10
93.528383
 20
18.711474
 30
0.0
 10
93.839102
 20
18.622791
 30
0.0
 10
94.168260
 20
18.675002
 30
0.0
 10
94.525672
 20
18.867551
 30
0.0
 10
94.525655
 20
18.867528
 30
0.0
  0
LWPOLYLINE
  5
115
100
AcDbEntity
  8
0
 62
1
100
AcDbPolyline
 90
16
 70
0
 10
142.071514
 20
18.737907
 30
0.0
 10
142.269214
 20
20.463269
 30
0.0
 10
142.386288
 20
22.058169
 30
0.0
 10
141.822541
 20
22.295882
 30
0.0
 10
140.984934
 20
22.465845
 30
0.0
 10
139.781642
 20
22.527039
 30
0.0
 10
138.585127
 20
22.477636
 30
0.0
 10
137.767857
 20
22.315807
 30
0.0
 10
137.284170
 20
22.105760
 30
0.0
 10
137.378184
 20
20.530001
 30
0.0
 10
137.579352
 20
18.780855
 30
0.0
 10
138.316734
 20
18.660329
 30
0.0
 10
139.825985
 20
18.608082
 30
0.0
 10
141.334960
 20
18.631478
 30
0.0
 10
142.071514
 20
18.737926
 30
0.0
 10
142.071514
 20
18.737895
 30
0.0
  0
LWPOLYLINE
  5
116
100
AcDbEntity
  8
0
 62
1
100
AcDbPolyline
 90
14
 70
0
 10
24.347112
 20
19.964363
 30
0.0
 10
24.511850
 20
20.243531
 30
0.0
 10
24.376722
 20
20.446486
 30
0.0
 10
23.946680
 20
20.570356
 30
0.0
 10
23.226676
 20
20.612283
 30
0.0
 10
22.466265
 20
20.567542
 30
0.0
 10
21.982760
 20
20.439740
 30
0.0
 10
21.795776
 20
20.238499
 30
0.0
 10
21.924924
 20
19.973442
 30
0.0
 10
22.374071
 20
19.831453
 30
0.0
 10
23.136719
 20
19.781827
 30
0.0
 10
23.899016
 20
19.825743
 30
0.0
 10
24.347112
 20
19.964382
 30
0.0
 10
24.347112
 20
19.964363
 30
0.0
  0
LWPOLYLINE
  5
117
100
AcDbEntity
  8
0
 62
1
100
AcDbPolyline
 90
16
 70
0
 10
47.077662
 20
19.973422
 30
0.0
 10
47.188220
 20
20.175504
 30
0.0
 10
47.090644
 20
20.391094
 30
0.0
 10
46.898251
 20
20.493515
 30
0.0
 10
46.496626
 20
20.562002
 30
0.0
 10
44.917460
 20
20.612269
 30
0.0
 10
43.277323
 20
20.562741
 30
0.0
 10
42.953597
 20
20.481326
 30
0.0
 10
42.825203
 20
20.344804
 30
0.0
 10
42.821195
 20
20.112532
 30
0.0
 10
42.955742
 20
19.929686
 30
0.0
 10
43.718329
 20
19.807842
 30
0.0
 10
45.063702
 20
19.778810
 30
0.0
 10
46.385580
 20
19.836157
 30
0.0
 10
47.077673
 20
19.973450
 30
0.0
 10
47.077657
 20
19.973422
 30
0.0
  0
LWPOLYLINE
  5
118
100
AcDbEntity
  8
0
 62
1
100
AcDbPolyline
 90
14
 70
0
 10
73.490925
 20
20.042061
 30
0.0
 10
73.452142
 20
20.360329
 30
0.0
 10
73.256991
 20
20.488175
 30
0.0
 10
72.838173
 20
20.570658
 30
0.0
 10
71.632522
 20
20.609111
 30
0.0
 10
70.441158
 20
20.494853
 30
0.0
 10
70.040199
 20
20.386446
 30
0.0
 10
69.870047
 20
20.247048
 30
0.0
 10
69.875156
 20
20.108722
 30
0.0
 10
69.963203
 20
20.010661
 30
0.0
 10
70.452825
 20
19.896367
 30
0.0
 10
72.164099
 20
19.904325
 30
0.0
 10
73.490911
 20
20.042064
 30
0.0
 10
73.490916
 20
20.042064
 30
0.0
  0
LWPOLYLINE
  5
119
100
AcDbEntity
  8
0
 62
1
100
AcDbPolyline
 90
25
 70
0
 10
164.162055
 20
21.216814
 30
0.0
 10
164.214681
 20
21.954396
 30
0.0
 10
164.171936
 20
22.871779
 30
0.0
 10
164.054410
 20
23.739638
 30
0.0
 10
163.882686
 20
24.328639
 30
0.0
 10
163.588645
 20
24.800658
 30
0.0
 10
163.250294
 20
25.172178
 30
0.0
 10
162.878808
 20
25.440210
 30
0.0
 10
162.485359
 20
25.601760
 30
0.0
 10
162.081115
 20
25.653836
 30
0.0
 10
161.677247
 20
25.593446
 30
0.0
 10
161.284930
 20
25.417596
 30
0.0
 10
160.915329
 20
25.123300
 30
0.0
 10
160.495997
 20
24.594678
 30
0.0
 10
160.206302
 20
23.964264
 30
0.0
 10
160.036748
 20
23.203283
 30
0.0
 10
159.977846
 20
22.282962
 30
0.0
 10
159.996613
 20
21.297614
 30
0.0
 10
160.067536
 20
20.999861
 30
0.0
 10
160.215886
 20
20.803787
 30
0.0
 10
160.468969
 20
20.688195
 30
0.0
 10
160.854089
 20
20.631875
 30
0.0
 10
162.129663
 20
20.612260
 30
0.0
 10
164.048642
 20
20.612260
 30
0.0
 10
164.162047
 20
21.216811
 30
0.0
  0
LWPOLYLINE
  5
11a
100
AcDbEntity
  8
0
 62
1
100
AcDbPolyline
 90
15
 70
0
 10
24.310023
 20
21.364103
 30
0.0
 10
24.275372
 20
21.542332
 30
0.0
 10
24.127126
 20
21.649224
 30
0.0
 10
23.224071
 20
21.741327
 30
0.0
 10
22.432004
 20
21.737206
 30
0.0
 10
21.948805
 20
21.647824
 30
0.0
 10
21.767916
 20
21.470546
 30
0.0
 10
21.882784
 20
21.202737
 30
0.0
 10
22.043261
 20
21.074385
 30
0.0
 10
22.290764
 20
20.999178
 30
0.0
 10
23.208598
 20
20.981173
 30
0.0
 10
24.124477
 20
21.078042
 30
0.0
 10
24.274863
 20
21.185719
 30
0.0
 10
24.310023
 20
21.364114
 30
0.0
 10
24.310023
 20
21.364114
 30
0.0
  0
LWPOLYLINE
  5
11b
100
AcDbEntity
  8
0
 62
1
100
AcDbPolyline
 90
16
 70
0
 10
47.077640
 20
21.142948
 30
0.0
 10
47.188197
 20
21.345036
 30
0.0
 10
47.090622
 20
21.560626
 30
0.0
 10
46.904211
 20
21.662358
 30
0.0
 10
46.522633
 20
21.730458
 30
0.0
 10
45.047993
 20
21.779232
 30
0.0
 10
43.814366
 20
21.751038
 30
0.0
 10
43.094352
 20
21.658712
 30
0.0
 10
42.821096
 20
21.484282
 30
0.0
 10
42.927745
 20
21.209781
 30
0.0
 10
43.117145
 20
21.079620
 30
0.0
 10
43.475307
 20
20.998986
 30
0.0
 10
45.013723
 20
20.946445
 30
0.0
 10
46.451259
 20
20.997000
 30
0.0
 10
47.077665
 20
21.142948
 30
0.0
 10
47.077640
 20
21.142948
 30
0.0
  0
LWPOLYLINE
  5
11c
100
AcDbEntity
  8
0
 62
1
100
AcDbPolyline
 90
15
 70
0
 10
73.428503
 20
21.447649
 30
0.0
 10
73.358091
 20
21.574059
 30
0.0
 10
73.094744
 20
21.650511
 30
0.0
 10
71.676560
 20
21.698251
 30
0.0
 10
70.222738
 20
21.648414
 30
0.0
 10
69.959097
 20
21.562387
 30
0.0
 10
69.869974
 20
21.414533
 30
0.0
 10
69.880247
 20
21.268548
 30
0.0
 10
70.007890
 20
21.174605
 30
0.0
 10
70.786573
 20
21.080396
 30
0.0
 10
71.845843
 20
21.063068
 30
0.0
 10
72.682177
 20
21.124471
 30
0.0
 10
73.231193
 20
21.255642
 30
0.0
 10
73.428506
 20
21.447638
 30
0.0
 10
73.428506
 20
21.447638
 30
0.0
  0
LWPOLYLINE
  5
11d
100
AcDbEntity
  8
0
 62
1
100
AcDbPolyline
 90
18
 70
0
 10
92.223834
 20
21.447638
 30
0.0
 10
92.459820
 20
21.781778
 30
0.0
 10
92.557971
 20
22.115918
 30
0.0
 10
92.463229
 20
22.447258
 30
0.0
 10
92.224892
 20
22.772426
 30
0.0
 10
91.911784
 20
23.019943
 30
0.0
 10
91.592731
 20
23.118334
 30
0.0
 10
91.222950
 20
23.034997
 30
0.0
 10
90.888629
 20
22.818741
 30
0.0
 10
90.646460
 20
22.520192
 30
0.0
 10
90.553138
 20
22.189981
 30
0.0
 10
90.645136
 20
21.813564
 30
0.0
 10
90.882000
 20
21.466660
 30
0.0
 10
91.205037
 20
21.212296
 30
0.0
 10
91.555554
 20
21.113501
 30
0.0
 10
91.889694
 20
21.211652
 30
0.0
 10
92.223834
 20
21.447638
 30
0.0
 10
92.223834
 20
21.447638
 30
0.0
  0
LWPOLYLINE
  5
11e
100
AcDbEntity
  8
0
 62
1
100
AcDbPolyline
 90
18
 70
0
 10
94.562807
 20
21.447638
 30
0.0
 10
94.794994
 20
21.749254
 30
0.0
 10
94.881870
 20
22.046883
 30
0.0
 10
94.823625
 20
22.344413
 30
0.0
 10
94.620448
 20
22.645739
 30
0.0
 10
94.387626
 20
22.826547
 30
0.0
 10
94.117412
 20
22.916585
 30
0.0
 10
93.549180
 20
22.856102
 30
0.0
 10
93.084499
 20
22.527807
 30
0.0
 10
92.943721
 20
22.283075
 30
0.0
 10
92.892108
 20
21.995208
 30
0.0
 10
92.996203
 20
21.718820
 30
0.0
 10
93.253231
 20
21.431134
 30
0.0
 10
93.580301
 20
21.205059
 30
0.0
 10
93.894530
 20
21.113501
 30
0.0
 10
94.228670
 20
21.211652
 30
0.0
 10
94.562807
 20
21.447638
 30
0.0
 10
94.562807
 20
21.447638
 30
0.0
  0
LWPOLYLINE
  5
11f
100
AcDbEntity
  8
0
 62
1
100
AcDbPolyline
 90
15
 70
0
 10
24.129292
 20
22.217323
 30
0.0
 10
24.315932
 20
22.381844
 30
0.0
 10
24.393561
 20
22.635000
 30
0.0
 10
24.355000
 20
22.803467
 30
0.0
 10
24.186313
 20
22.898954
 30
0.0
 10
23.140538
 20
22.951264
 30
0.0
 10
22.089919
 20
22.898627
 30
0.0
 10
21.924260
 20
22.800416
 30
0.0
 10
21.887516
 20
22.625461
 30
0.0
 10
21.922240
 20
22.454985
 30
0.0
 10
22.060166
 20
22.347379
 30
0.0
 10
22.848166
 20
22.239376
 30
0.0
 10
23.836920
 20
22.147501
 30
0.0
 10
24.129292
 20
22.217323
 30
0.0
 10
24.129292
 20
22.217323
 30
0.0
  0
LWPOLYLINE
  5
120
100
AcDbEntity
  8
0
 62
1
100
AcDbPolyline
 90
15
 70
0
 10
47.084012
 20
22.347348
 30
0.0
 10
47.185959
 20
22.499486
 30
0.0
 10
47.173400
 20
22.706010
 30
0.0
 10
47.037544
 20
22.827597
 30
0.0
 10
46.687535
 20
22.902651
 30
0.0
 10
45.008790
 20
22.951264
 30
0.0
 10
43.247766
 20
22.902987
 30
0.0
 10
42.989642
 20
22.806098
 30
0.0
 10
42.938295
 20
22.628219
 30
0.0
 10
43.049795
 20
22.364188
 30
0.0
 10
43.397736
 20
22.225290
 30
0.0
 10
45.394723
 20
22.192837
 30
0.0
 10
46.502530
 20
22.254161
 30
0.0
 10
47.084015
 20
22.347348
 30
0.0
 10
47.084015
 20
22.347348
 30
0.0
  0
LWPOLYLINE
  5
121
100
AcDbEntity
  8
0
 62
1
100
AcDbPolyline
 90
14
 70
0
 10
73.428508
 20
22.617122
 30
0.0
 10
73.358088
 20
22.743828
 30
0.0
 10
73.102719
 20
22.827896
 30
0.0
 10
71.772538
 20
22.915871
 30
0.0
 10
70.769377
 20
22.918411
 30
0.0
 10
70.150500
 20
22.849249
 30
0.0
 10
69.878150
 20
22.699217
 30
0.0
 10
69.914568
 20
22.459032
 30
0.0
 10
70.429590
 20
22.330912
 30
0.0
 10
71.729423
 20
22.319171
 30
0.0
 10
73.095650
 20
22.406434
 30
0.0
 10
73.356782
 20
22.490345
 30
0.0
 10
73.428508
 20
22.617237
 30
0.0
 10
73.428508
 20
22.617237
 30
0.0
  0
LWPOLYLINE
  5
122
100
AcDbEntity
  8
0
 62
1
100
AcDbPolyline
 90
38
 70
0
 10
169.242944
 20
28.933024
 30
0.0
 10
170.231967
 20
29.443089
 30
0.0
 10
171.109046
 20
30.136013
 30
0.0
 10
171.857513
 20
30.979699
 30
0.0
 10
172.460707
 20
31.942051
 30
0.0
 10
172.901955
 20
32.990976
 30
0.0
 10
173.164597
 20
34.094377
 30
0.0
 10
173.231961
 20
35.220161
 30
0.0
 10
173.087384
 20
36.336232
 30
0.0
 10
172.671450
 20
37.552587
 30
0.0
 10
172.040139
 20
38.633975
 30
0.0
 10
171.226828
 20
39.559170
 30
0.0
 10
170.264879
 20
40.306949
 30
0.0
 10
169.187671
 20
40.856086
 30
0.0
 10
168.028570
 20
41.185363
 30
0.0
 10
166.820944
 20
41.273549
 30
0.0
 10
165.598169
 20
41.099426
 30
0.0
 10
164.595230
 20
40.779290
 30
0.0
 10
163.698531
 20
40.359753
 30
0.0
 10
162.907662
 20
39.840385
 30
0.0
 10
162.222212
 20
39.220746
 30
0.0
 10
161.641771
 20
38.500405
 30
0.0
 10
161.165928
 20
37.678927
 30
0.0
 10
160.794269
 20
36.755874
 30
0.0
 10
160.526387
 20
35.730814
 30
0.0
 10
160.426212
 20
34.638860
 30
0.0
 10
160.548891
 20
33.549922
 30
0.0
 10
160.876249
 20
32.492918
 30
0.0
 10
161.390105
 20
31.496764
 30
0.0
 10
162.072279
 20
30.590382
 30
0.0
 10
162.904592
 20
29.802686
 30
0.0
 10
163.868863
 20
29.162597
 30
0.0
 10
164.946915
 20
28.699033
 30
0.0
 10
165.887074
 20
28.533809
 30
0.0
 10
167.049361
 20
28.524975
 30
0.0
 10
168.234432
 20
28.661667
 30
0.0
 10
169.242944
 20
28.933026
 30
0.0
 10
169.242944
 20
28.933026
 30
0.0
  0
LWPOLYLINE
  5
123
100
AcDbEntity
  8
0
 62
1
100
AcDbPolyline
 90
37
 70
0
 10
183.404765
 20
30.254896
 30
0.0
 10
184.244088
 20
30.629405
 30
0.0
 10
185.029095
 20
31.189523
 30
0.0
 10
185.712702
 20
31.894689
 30
0.0
 10
186.247841
 20
32.704351
 30
0.0
 10
186.480479
 20
33.198341
 30
0.0
 10
186.616889
 20
33.661028
 30
0.0
 10
186.697376
 20
34.980397
 30
0.0
 10
186.632679
 20
36.076632
 30
0.0
 10
186.403433
 20
36.934215
 30
0.0
 10
185.956909
 20
37.677803
 30
0.0
 10
185.240378
 20
38.432048
 30
0.0
 10
184.633659
 20
38.915777
 30
0.0
 10
183.983580
 20
39.293176
 30
0.0
 10
183.299327
 20
39.562892
 30
0.0
 10
182.590080
 20
39.723576
 30
0.0
 10
181.865020
 20
39.773873
 30
0.0
 10
181.133328
 20
39.712439
 30
0.0
 10
180.404190
 20
39.537916
 30
0.0
 10
179.686784
 20
39.248960
 30
0.0
 10
178.712409
 20
38.620228
 30
0.0
 10
177.943201
 20
37.814179
 30
0.0
 10
177.388166
 20
36.874717
 30
0.0
 10
177.056312
 20
35.845758
 30
0.0
 10
176.956642
 20
34.771205
 30
0.0
 10
177.098171
 20
33.694976
 30
0.0
 10
177.489901
 20
32.660973
 30
0.0
 10
178.140838
 20
31.713110
 30
0.0
 10
178.675536
 20
31.182939
 30
0.0
 10
179.258670
 20
30.748503
 30
0.0
 10
179.883637
 20
30.411639
 30
0.0
 10
180.543833
 20
30.174172
 30
0.0
 10
181.232647
 20
30.037935
 30
0.0
 10
181.943478
 20
30.004757
 30
0.0
 10
182.669720
 20
30.076467
 30
0.0
 10
183.404765
 20
30.254896
 30
0.0
 10
183.404765
 20
30.254896
 30
0.0
  0
LWPOLYLINE
  5
124
100
AcDbEntity
  8
0
 62
1
100
AcDbPolyline
 90
16
 70
0
 10
97.523383
 20
45.308031
 30
0.0
 10
97.511897
 20
55.909517
 30
0.0
 10
97.432490
 20
60.678437
 30
0.0
 10
97.304743
 20
61.293865
 30
0.0
 10
94.012479
 20
61.339159
 30
0.0
 10
90.720213
 20
61.384453
 30
0.0
 10
90.720213
 20
46.127458
 30
0.0
 10
90.763097
 20
34.035455
 30
0.0
 10
90.825821
 20
31.491029
 30
0.0
 10
90.924172
 20
30.666509
 30
0.0
 10
91.187980
 20
30.573928
 30
0.0
 10
91.797385
 20
30.518604
 30
0.0
 10
94.307334
 20
30.507795
 30
0.0
 10
97.486533
 20
30.553033
 30
0.0
 10
97.523391
 20
45.308014
 30
0.0
 10
97.523386
 20
45.308037
 30
0.0
  0
LWPOLYLINE
  5
125
100
AcDbEntity
  8
0
 62
1
100
AcDbPolyline
 90
15
 70
0
 10
105.944809
 20
45.923465
 30
0.0
 10
105.856948
 20
57.089276
 30
0.0
 10
105.727312
 20
61.392618
 30
0.0
 10
105.013583
 20
61.474843
 30
0.0
 10
103.603889
 20
61.516815
 30
0.0
 10
101.203832
 20
61.448839
 30
0.0
 10
100.744391
 20
61.350871
 30
0.0
 10
100.744391
 20
46.174473
 30
0.0
 10
100.847430
 20
30.729557
 30
0.0
 10
100.987582
 20
30.590805
 30
0.0
 10
101.373337
 20
30.515884
 30
0.0
 10
103.478777
 20
30.507050
 30
0.0
 10
106.007085
 20
30.553081
 30
0.0
 10
105.944809
 20
45.923490
 30
0.0
 10
105.944809
 20
45.923456
 30
0.0
  0
LWPOLYLINE
  5
126
100
AcDbEntity
  8
0
 62
1
100
AcDbPolyline
 90
17
 70
0
 10
120.920472
 20
30.608732
 30
0.0
 10
121.020833
 20
30.919117
 30
0.0
 10
121.078618
 20
31.806881
 30
0.0
 10
121.087536
 20
35.994167
 30
0.0
 10
121.043317
 20
41.245501
 30
0.0
 10
115.819158
 20
41.289664
 30
0.0
 10
110.595008
 20
41.333826
 30
0.0
 10
110.431166
 20
40.902889
 30
0.0
 10
110.310370
 20
39.180905
 30
0.0
 10
110.269896
 20
35.900385
 30
0.0
 10
110.309918
 20
32.619913
 30
0.0
 10
110.430602
 20
30.898078
 30
0.0
 10
110.593532
 20
30.469532
 30
0.0
 10
115.651527
 20
30.472354
 30
0.0
 10
119.285790
 20
30.513451
 30
0.0
 10
120.920776
 20
30.609011
 30
0.0
 10
120.920494
 20
30.608732
 30
0.0
  0
LWPOLYLINE
  5
127
100
AcDbEntity
  8
0
 62
1
100
AcDbPolyline
 90
18
 70
0
 10
146.481197
 20
30.608168
 30
0.0
 10
146.581979
 20
31.083193
 30
0.0
 10
146.639623
 20
32.558072
 30
0.0
 10
146.648259
 20
39.752667
 30
0.0
 10
146.605002
 20
48.763741
 30
0.0
 10
142.644584
 20
48.808526
 30
0.0
 10
139.274464
 20
48.800737
 30
0.0
 10
138.725784
 20
48.717676
 30
0.0
 10
138.543217
 20
48.557919
 30
0.0
 10
138.413536
 20
45.691145
 30
0.0
 10
138.354100
 20
39.782549
 30
0.0
 10
138.374787
 20
33.854426
 30
0.0
 10
138.485509
 20
30.929063
 30
0.0
 10
138.660918
 20
30.469625
 30
0.0
 10
142.465886
 20
30.472447
 30
0.0
 10
145.214923
 20
30.513369
 30
0.0
 10
146.481160
 20
30.608518
 30
0.0
 10
146.481183
 20
30.608235
 30
0.0
  0
LWPOLYLINE
  5
128
100
AcDbEntity
  8
0
 62
1
100
AcDbPolyline
 90
20
 70
0
 10
39.423860
 20
31.076202
 30
0.0
 10
39.496002
 20
34.287775
 30
0.0
 10
39.511270
 20
41.245033
 30
0.0
 10
39.475199
 20
48.239335
 30
0.0
 10
39.393316
 20
51.562047
 30
0.0
 10
39.309899
 20
51.653253
 30
0.0
 10
39.079182
 20
51.723286
 30
0.0
 10
37.786890
 20
51.810947
 30
0.0
 10
29.156164
 20
51.854418
 30
0.0
 10
19.039073
 20
51.854418
 30
0.0
 10
18.876138
 20
51.425864
 30
0.0
 10
18.762732
 20
48.091704
 30
0.0
 10
18.716194
 20
41.229790
 30
0.0
 10
18.741941
 20
34.406571
 30
0.0
 10
18.845393
 20
31.188493
 30
0.0
 10
19.249832
 20
31.031947
 30
0.0
 10
20.054091
 20
30.937888
 30
0.0
 10
30.370594
 20
30.939299
 30
0.0
 10
39.423854
 20
31.076117
 30
0.0
 10
39.423854
 20
31.076117
 30
0.0
  0
LWPOLYLINE
  5
129
100
AcDbEntity
  8
0
 62
1
100
AcDbPolyline
 90
27
 70
0
 10
133.256717
 20
31.645473
 30
0.0
 10
133.758841
 20
31.917196
 30
0.0
 10
133.916804
 20
32.140832
 30
0.0
 10
134.025279
 20
32.483379
 30
0.0
 10
134.131510
 20
33.706375
 30
0.0
 10
134.153015
 20
35.948540
 30
0.0
 10
134.158124
 20
39.506448
 30
0.0
 10
133.748046
 20
39.916525
 30
0.0
 10
133.456434
 20
40.153030
 30
0.0
 10
132.957392
 20
40.274835
 30
0.0
 10
129.913307
 20
40.326606
 30
0.0
 10
127.783754
 20
40.301770
 30
0.0
 10
126.490606
 20
40.206040
 30
0.0
 10
125.821807
 20
40.007630
 30
0.0
 10
125.655270
 20
39.859988
 30
0.0
 10
125.565301
 20
39.674751
 30
0.0
 10
125.444772
 20
35.963278
 30
0.0
 10
125.459278
 20
33.045566
 30
0.0
 10
125.538357
 20
32.432387
 30
0.0
 10
125.683222
 20
32.091068
 30
0.0
 10
125.992797
 20
31.767542
 30
0.0
 10
126.343517
 20
31.590372
 30
0.0
 10
127.706033
 20
31.509568
 30
0.0
 10
129.941537
 20
31.496868
 30
0.0
 10
132.106286
 20
31.544716
 30
0.0
 10
133.256536
 20
31.645585
 30
0.0
 10
133.256737
 20
31.645495
 30
0.0
  0
LWPOLYLINE
  5
12a
100
AcDbEntity
  8
0
 62
1
100
AcDbPolyline
 90
21
 70
0
 10
63.987271
 20
32.136796
 30
0.0
 10
64.098207
 20
35.194183
 30
0.0
 10
64.140653
 20
41.622014
 30
0.0
 10
64.111262
 20
48.111342
 30
0.0
 10
64.006688
 20
51.353223
 30
0.0
 10
63.890531
 20
51.770897
 30
0.0
 10
56.222889
 20
51.814382
 30
0.0
 10
50.766452
 20
51.803912
 30
0.0
 10
48.415107
 20
51.717701
 30
0.0
 10
48.318141
 20
48.754114
 30
0.0
 10
48.281821
 20
41.825697
 30
0.0
 10
48.330412
 20
34.095655
 30
0.0
 10
48.394874
 20
32.471444
 30
0.0
 10
48.494535
 20
31.946609
 30
0.0
 10
50.860365
 20
31.857032
 30
0.0
 10
56.259369
 20
31.820301
 30
0.0
 10
62.777415
 20
31.865431
 30
0.0
 10
63.729565
 20
31.959927
 30
0.0
 10
63.905678
 20
32.036455
 30
0.0
 10
63.987251
 20
32.136802
 30
0.0
 10
63.987271
 20
32.136790
 30
0.0
  0
LWPOLYLINE
  5
12b
100
AcDbEntity
  8
0
 62
1
100
AcDbPolyline
 90
17
 70
0
 10
82.496474
 20
41.579644
 30
0.0
 10
82.451519
 20
51.478518
 30
0.0
 10
82.360386
 20
51.854427
 30
0.0
 10
77.693926
 20
51.854427
 30
0.0
 10
73.796370
 20
51.808935
 30
0.0
 10
73.108809
 20
51.728079
 30
0.0
 10
72.877883
 20
51.587151
 30
0.0
 10
72.806357
 20
48.511013
 30
0.0
 10
72.798765
 20
41.957754
 30
0.0
 10
72.844993
 20
35.367250
 30
0.0
 10
72.934932
 20
32.179366
 30
0.0
 10
73.186307
 20
32.078616
 30
0.0
 10
73.964972
 20
32.020806
 30
0.0
 10
77.726331
 20
32.012311
 30
0.0
 10
82.450285
 20
32.056699
 30
0.0
 10
82.496485
 20
41.579667
 30
0.0
 10
82.496474
 20
41.579655
 30
0.0
  0
LWPOLYLINE
  5
12c
100
AcDbEntity
  8
0
 62
1
100
AcDbPolyline
 90
26
 70
0
 10
155.888272
 20
32.647249
 30
0.0
 10
156.069298
 20
32.864949
 30
0.0
 10
156.165288
 20
33.587241
 30
0.0
 10
156.206766
 20
38.452382
 30
0.0
 10
156.155655
 20
42.648860
 30
0.0
 10
156.035412
 20
44.704073
 30
0.0
 10
155.742112
 20
45.388255
 30
0.0
 10
155.285465
 20
45.953849
 30
0.0
 10
154.702883
 20
46.389216
 30
0.0
 10
154.031772
 20
46.682713
 30
0.0
 10
153.309549
 20
46.822704
 30
0.0
 10
152.573626
 20
46.797558
 30
0.0
 10
151.861413
 20
46.595616
 30
0.0
 10
151.210320
 20
46.205249
 30
0.0
 10
150.803263
 20
45.862499
 30
0.0
 10
150.496863
 20
45.518721
 30
0.0
 10
150.277441
 20
45.087387
 30
0.0
 10
150.131312
 20
44.481961
 30
0.0
 10
150.004224
 20
42.402711
 30
0.0
 10
150.006200
 20
38.588712
 30
0.0
 10
150.129277
 20
32.615973
 30
0.0
 10
151.027979
 20
32.505257
 30
0.0
 10
152.910794
 20
32.476956
 30
0.0
 10
154.842611
 20
32.525992
 30
0.0
 10
155.888317
 20
32.647282
 30
0.0
 10
155.888317
 20
32.647260
 30
0.0
  0
LWPOLYLINE
  5
12d
100
AcDbEntity
  8
0
 62
1
100
AcDbPolyline
 90
31
 70
0
 10
183.256496
 20
41.589093
 30
0.0
 10
184.052879
 20
41.929509
 30
0.0
 10
184.769218
 20
42.446159
 30
0.0
 10
185.385865
 20
43.121466
 30
0.0
 10
185.883166
 20
43.937859
 30
0.0
 10
186.239031
 20
44.900657
 30
0.0
 10
186.248486
 20
46.077160
 30
0.0
 10
186.091844
 20
47.202067
 30
0.0
 10
185.733854
 20
48.051581
 30
0.0
 10
185.111669
 20
48.866526
 30
0.0
 10
184.338112
 20
49.489800
 30
0.0
 10
183.454466
 20
49.916234
 30
0.0
 10
182.502003
 20
50.140672
 30
0.0
 10
181.522000
 20
50.157944
 30
0.0
 10
180.555736
 20
49.962894
 30
0.0
 10
179.644492
 20
49.550356
 30
0.0
 10
178.829538
 20
48.915167
 30
0.0
 10
178.405909
 20
48.433936
 30
0.0
 10
178.065461
 20
47.920971
 30
0.0
 10
177.625945
 20
46.829164
 30
0.0
 10
177.494669
 20
45.698367
 30
0.0
 10
177.655313
 20
44.587207
 30
0.0
 10
178.091558
 20
43.554308
 30
0.0
 10
178.787078
 20
42.658295
 30
0.0
 10
179.725557
 20
41.957794
 30
0.0
 10
180.280807
 20
41.699179
 30
0.0
 10
180.890675
 20
41.511428
 30
0.0
 10
181.524904
 20
41.389152
 30
0.0
 10
182.067979
 20
41.359282
 30
0.0
 10
183.256482
 20
41.589090
 30
0.0
 10
183.256482
 20
41.589090
 30
0.0
  0
LWPOLYLINE
  5
12e
100
AcDbEntity
  8
0
 62
1
100
AcDbPolyline
 90
38
 70
0
 10
169.280453
 20
43.463370
 30
0.0
 10
170.145648
 20
43.965384
 30
0.0
 10
170.958118
 20
44.660077
 30
0.0
 10
171.657755
 20
45.486957
 30
0.0
 10
172.184444
 20
46.385536
 30
0.0
 10
172.576685
 20
47.495795
 30
0.0
 10
172.665520
 20
48.847191
 30
0.0
 10
172.580997
 20
50.201471
 30
0.0
 10
172.182553
 20
51.318399
 30
0.0
 10
171.555303
 20
52.365531
 30
0.0
 10
170.743603
 20
53.235140
 30
0.0
 10
169.784748
 20
53.914753
 30
0.0
 10
168.716043
 20
54.391889
 30
0.0
 10
167.574781
 20
54.654068
 30
0.0
 10
166.398265
 20
54.688818
 30
0.0
 10
165.223791
 20
54.483657
 30
0.0
 10
164.088662
 20
54.026107
 30
0.0
 10
163.352723
 20
53.564081
 30
0.0
 10
162.715544
 20
53.022818
 30
0.0
 10
162.177072
 20
52.413785
 30
0.0
 10
161.737260
 20
51.748461
 30
0.0
 10
161.396053
 20
51.038313
 30
0.0
 10
161.153402
 20
50.294819
 30
0.0
 10
161.009248
 20
49.529446
 30
0.0
 10
160.963548
 20
48.753671
 30
0.0
 10
161.016244
 20
47.978965
 30
0.0
 10
161.167290
 20
47.216801
 30
0.0
 10
161.416627
 20
46.478652
 30
0.0
 10
161.764212
 20
45.775989
 30
0.0
 10
162.209985
 20
45.120288
 30
0.0
 10
162.753901
 20
44.523016
 30
0.0
 10
163.395903
 20
43.995653
 30
0.0
 10
164.135940
 20
43.549665
 30
0.0
 10
165.336353
 20
43.124751
 30
0.0
 10
166.668876
 20
42.967475
 30
0.0
 10
168.021059
 20
43.079717
 30
0.0
 10
169.280453
 20
43.463370
 30
0.0
 10
169.280453
 20
43.463370
 30
0.0
  0
LWPOLYLINE
  5
12f
100
AcDbEntity
  8
0
 62
1
100
AcDbPolyline
 90
18
 70
0
 10
119.918294
 20
45.756877
 30
0.0
 10
120.018985
 20
46.012102
 30
0.0
 10
120.076798
 20
46.793646
 30
0.0
 10
120.085350
 20
50.555414
 30
0.0
 10
120.040962
 20
55.279374
 30
0.0
 10
115.290973
 20
55.323762
 30
0.0
 10
111.504659
 20
55.314759
 30
0.0
 10
110.695150
 20
55.256949
 30
0.0
 10
110.406744
 20
55.156703
 30
0.0
 10
110.310493
 20
53.635229
 30
0.0
 10
110.275181
 20
50.526523
 30
0.0
 10
110.302782
 20
47.418365
 30
0.0
 10
110.395261
 20
45.898530
 30
0.0
 10
110.604641
 20
45.745718
 30
0.0
 10
110.935683
 20
45.647928
 30
0.0
 10
115.547222
 20
45.637486
 30
0.0
 10
119.918282
 20
45.756866
 30
0.0
 10
119.918285
 20
45.756897
 30
0.0
  0
LWPOLYLINE
  5
130
100
AcDbEntity
  8
0
 62
1
100
AcDbPolyline
 90
24
 70
0
 10
17.220599
 20
46.514116
 30
0.0
 10
17.396098
 20
46.673120
 30
0.0
 10
17.493293
 20
47.032206
 30
0.0
 10
17.543755
 20
49.070279
 30
0.0
 10
17.494961
 20
50.922255
 30
0.0
 10
17.343271
 20
51.653981
 30
0.0
 10
17.094694
 20
51.744143
 30
0.0
 10
16.542343
 20
51.806522
 30
0.0
 10
14.431486
 20
51.854466
 30
0.0
 10
12.185207
 20
51.804600
 30
0.0
 10
11.698609
 20
51.724528
 30
0.0
 10
11.457646
 20
51.591929
 30
0.0
 10
11.331220
 20
51.282771
 30
0.0
 10
11.240914
 20
50.704151
 30
0.0
 10
11.168671
 20
49.097815
 30
0.0
 10
11.240914
 20
47.491480
 30
0.0
 10
11.331220
 20
46.912862
 30
0.0
 10
11.457646
 20
46.603705
 30
0.0
 10
11.694692
 20
46.471526
 30
0.0
 10
12.165307
 20
46.391406
 30
0.0
 10
14.308814
 20
46.341165
 30
0.0
 10
16.245471
 20
46.390937
 30
0.0
 10
17.220599
 20
46.514116
 30
0.0
 10
17.220599
 20
46.514116
 30
0.0
  0
LWPOLYLINE
  5
131
100
AcDbEntity
  8
0
 62
1
100
AcDbPolyline
 90
17
 70
0
 10
47.048293
 20
46.933146
 30
0.0
 10
47.112033
 20
47.919365
 30
0.0
 10
47.080571
 20
49.478567
 30
0.0
 10
46.982019
 20
50.954443
 30
0.0
 10
46.844492
 20
51.690676
 30
0.0
 10
45.950333
 20
51.805193
 30
0.0
 10
43.761265
 20
51.816764
 30
0.0
 10
40.849971
 20
51.770903
 30
0.0
 10
40.803477
 20
49.471548
 30
0.0
 10
40.817983
 20
47.707600
 30
0.0
 10
40.934651
 20
46.840196
 30
0.0
 10
41.103282
 20
46.656785
 30
0.0
 10
41.516876
 20
46.557282
 30
0.0
 10
44.026983
 20
46.508212
 30
0.0
 10
46.941641
 20
46.508212
 30
0.0
 10
47.048287
 20
46.933117
 30
0.0
 10
47.048287
 20
46.933140
 30
0.0
  0
LWPOLYLINE
  5
132
100
AcDbEntity
  8
0
 62
1
100
AcDbPolyline
 90
13
 70
0
 10
71.423711
 20
49.181348
 30
0.0
 10
71.423711
 20
51.770926
 30
0.0
 10
68.332920
 20
51.770926
 30
0.0
 10
65.242135
 20
51.770926
 30
0.0
 10
65.242135
 20
49.431950
 30
0.0
 10
65.277839
 20
47.693029
 30
0.0
 10
65.363677
 20
46.796731
 30
0.0
 10
65.512247
 20
46.637625
 30
0.0
 10
65.934212
 20
46.554392
 30
0.0
 10
68.454468
 20
46.546123
 30
0.0
 10
71.423711
 20
46.591758
 30
0.0
 10
71.423711
 20
49.181336
 30
0.0
 10
71.423711
 20
49.181342
 30
0.0
  0
LWPOLYLINE
  5
133
100
AcDbEntity
  8
0
 62
1
100
AcDbPolyline
 90
26
 70
0
 10
131.675570
 20
46.994334
 30
0.0
 10
131.900659
 20
47.234381
 30
0.0
 10
132.024171
 20
47.685999
 30
0.0
 10
132.122060
 20
50.416555
 30
0.0
 10
132.174149
 20
53.519732
 30
0.0
 10
131.753765
 20
53.940117
 30
0.0
 10
131.461739
 20
54.182393
 30
0.0
 10
130.998400
 20
54.307279
 30
0.0
 10
128.266932
 20
54.360501
 30
0.0
 10
125.798470
 20
54.311439
 30
0.0
 10
125.191574
 20
54.241682
 30
0.0
 10
124.891125
 20
54.134288
 30
0.0
 10
124.622458
 20
53.712758
 30
0.0
 10
124.459579
 20
52.882825
 30
0.0
 10
124.396328
 20
51.586570
 30
0.0
 10
124.426548
 20
49.766081
 30
0.0
 10
124.521366
 20
47.905819
 30
0.0
 10
124.652766
 20
47.353420
 30
0.0
 10
124.909772
 20
46.996397
 30
0.0
 10
125.344592
 20
46.792410
 30
0.0
 10
126.009434
 20
46.699121
 30
0.0
 10
128.238024
 20
46.675302
 30
0.0
 10
130.853124
 20
46.726858
 30
0.0
 10
131.374490
 20
46.823034
 30
0.0
 10
131.675592
 20
46.994340
 30
0.0
 10
131.675570
 20
46.994340
 30
0.0
  0
LWPOLYLINE
  5
134
100
AcDbEntity
  8
0
 62
1
100
AcDbPolyline
 90
31
 70
0
 10
183.163360
 20
52.033578
 30
0.0
 10
183.814683
 20
52.339538
 30
0.0
 10
184.484264
 20
52.826231
 30
0.0
 10
185.197197
 20
53.667970
 30
0.0
 10
185.630493
 20
54.612917
 30
0.0
 10
185.795920
 20
55.607793
 30
0.0
 10
185.705259
 20
56.599302
 30
0.0
 10
185.370281
 20
57.534160
 30
0.0
 10
184.802760
 20
58.359079
 30
0.0
 10
184.014471
 20
59.020769
 30
0.0
 10
183.017188
 20
59.465943
 30
0.0
 10
182.052206
 20
59.657374
 30
0.0
 10
181.044032
 20
59.526739
 30
0.0
 10
180.067675
 20
59.204484
 30
0.0
 10
179.237922
 20
58.523919
 30
0.0
 10
178.744095
 20
57.943907
 30
0.0
 10
178.375519
 20
57.323010
 30
0.0
 10
178.132969
 20
56.671348
 30
0.0
 10
178.017224
 20
55.999035
 30
0.0
 10
178.029049
 20
55.316193
 30
0.0
 10
178.169237
 20
54.632935
 30
0.0
 10
178.438556
 20
53.959384
 30
0.0
 10
178.837782
 20
53.305656
 30
0.0
 10
179.204775
 20
52.889646
 30
0.0
 10
179.647842
 20
52.539290
 30
0.0
 10
180.153762
 20
52.258470
 30
0.0
 10
180.709310
 20
52.051082
 30
0.0
 10
181.916406
 20
51.872142
 30
0.0
 10
182.541508
 20
51.908368
 30
0.0
 10
183.163351
 20
52.033578
 30
0.0
 10
183.163351
 20
52.033578
 30
0.0
  0
LWPOLYLINE
  5
135
100
AcDbEntity
  8
0
 62
1
100
AcDbPolyline
 90
112
 70
0
 10
136.743784
 20
55.991099
 30
0.0
 10
137.512363
 20
57.200689
 30
0.0
 10
137.844970
 20
56.741243
 30
0.0
 10
138.696438
 20
55.283898
 30
0.0
 10
139.035344
 20
54.851658
 30
0.0
 10
139.262612
 20
54.694643
 30
0.0
 10
139.643632
 20
55.071054
 30
0.0
 10
140.235900
 20
55.976051
 30
0.0
 10
140.978594
 20
57.257458
 30
0.0
 10
141.285773
 20
56.741164
 30
0.0
 10
142.048278
 20
55.459756
 30
0.0
 10
142.435924
 20
54.919397
 30
0.0
 10
142.728527
 20
54.694643
 30
0.0
 10
143.099533
 20
55.065441
 30
0.0
 10
143.675679
 20
55.956925
 30
0.0
 10
144.223207
 20
56.808889
 30
0.0
 10
144.525424
 20
57.084648
 30
0.0
 10
145.107674
 20
56.114738
 30
0.0
 10
145.784435
 20
55.039059
 30
0.0
 10
146.042467
 20
54.779959
 30
0.0
 10
146.255026
 20
54.696692
 30
0.0
 10
146.600926
 20
55.072183
 30
0.0
 10
147.175669
 20
55.972083
 30
0.0
 10
147.648021
 20
56.771985
 30
0.0
 10
147.810387
 20
56.964785
 30
0.0
 10
147.955641
 20
57.014287
 30
0.0
 10
148.107849
 20
56.916587
 30
0.0
 10
148.291087
 20
56.667786
 30
0.0
 10
148.846932
 20
55.701276
 30
0.0
 10
149.331008
 20
54.934315
 30
0.0
 10
149.523252
 20
54.761172
 30
0.0
 10
149.707772
 20
54.734897
 30
0.0
 10
149.903668
 20
54.860483
 30
0.0
 10
150.130042
 20
55.142917
 30
0.0
 10
150.750634
 20
56.198270
 30
0.0
 10
151.106279
 20
56.729240
 30
0.0
 10
151.376956
 20
56.950084
 30
0.0
 10
151.695943
 20
56.639262
 30
0.0
 10
152.167751
 20
55.891963
 30
0.0
 10
152.711500
 20
55.006905
 30
0.0
 10
152.929048
 20
54.799647
 30
0.0
 10
153.135734
 20
54.753591
 30
0.0
 10
153.350570
 20
54.872000
 30
0.0
 10
153.592575
 20
55.158137
 30
0.0
 10
154.234162
 20
56.246651
 30
0.0
 10
154.593462
 20
56.858721
 30
0.0
 10
154.731652
 20
56.997935
 30
0.0
 10
154.865507
 20
57.019271
 30
0.0
 10
155.190122
 20
56.688411
 30
0.0
 10
155.707136
 20
55.826219
 30
0.0
 10
156.118306
 20
55.198294
 30
0.0
 10
156.456674
 20
54.850145
 30
0.0
 10
156.704168
 20
54.794234
 30
0.0
 10
156.842720
 20
55.043027
 30
0.0
 10
156.624449
 20
55.637861
 30
0.0
 10
156.070633
 20
56.698466
 30
0.0
 10
155.449326
 20
57.744334
 30
0.0
 10
155.028587
 20
58.294952
 30
0.0
 10
154.816361
 20
58.311152
 30
0.0
 10
154.562175
 20
58.131125
 30
0.0
 10
153.956393
 20
57.211160
 30
0.0
 10
153.489129
 20
56.341695
 30
0.0
 10
153.321523
 20
56.120704
 30
0.0
 10
153.172106
 20
56.040358
 30
0.0
 10
153.021518
 20
56.099283
 30
0.0
 10
152.850390
 20
56.296091
 30
0.0
 10
152.369040
 20
57.097833
 30
0.0
 10
151.790217
 20
57.996409
 30
0.0
 10
151.420827
 20
58.370153
 30
0.0
 10
151.081080
 20
58.071497
 30
0.0
 10
150.573511
 20
57.353453
 30
0.0
 10
149.772548
 20
56.088045
 30
0.0
 10
149.658567
 20
56.016448
 30
0.0
 10
149.504914
 20
56.123441
 30
0.0
 10
148.955706
 20
57.012261
 30
0.0
 10
148.522222
 20
57.737552
 30
0.0
 10
148.171622
 20
58.169056
 30
0.0
 10
147.884738
 20
58.324425
 30
0.0
 10
147.642394
 20
58.221315
 30
0.0
 10
146.943603
 20
57.088116
 30
0.0
 10
146.504251
 20
56.400654
 30
0.0
 10
146.204819
 20
56.114718
 30
0.0
 10
145.879377
 20
56.433533
 30
0.0
 10
145.377487
 20
57.200046
 30
0.0
 10
144.855808
 20
57.981674
 30
0.0
 10
144.482792
 20
58.336828
 30
0.0
 10
144.321157
 20
58.283429
 30
0.0
 10
144.106127
 20
58.068000
 30
0.0
 10
143.502058
 20
57.134102
 30
0.0
 10
142.961445
 20
56.270990
 30
0.0
 10
142.663703
 20
55.957035
 30
0.0
 10
141.936563
 20
57.111273
 30
0.0
 10
141.163887
 20
58.293657
 30
0.0
 10
140.949350
 20
58.313666
 30
0.0
 10
140.686398
 20
58.111178
 30
0.0
 10
139.919558
 20
56.934147
 30
0.0
 10
139.264839
 20
55.864104
 30
0.0
 10
138.518669
 20
57.025297
 30
0.0
 10
138.036814
 20
57.804554
 30
0.0
 10
137.714442
 20
58.211773
 30
0.0
 10
137.473876
 20
58.317773
 30
0.0
 10
137.237436
 20
58.193366
 30
0.0
 10
136.820413
 20
57.617224
 30
0.0
 10
136.237503
 20
56.600922
 30
0.0
 10
135.718928
 20
55.571951
 30
0.0
 10
135.494909
 20
54.957793
 30
0.0
 10
135.522200
 20
54.774399
 30
0.0
 10
135.599630
 20
54.691339
 30
0.0
 10
135.878245
 20
54.804154
 30
0.0
 10
136.277409
 20
55.252111
 30
0.0
 10
136.743781
 20
55.991071
 30
0.0
 10
136.743781
 20
55.991071
 30
0.0
  0
LWPOLYLINE
  5
136
100
AcDbEntity
  8
0
 62
1
100
AcDbPolyline
 90
15
 70
0
 10
82.328964
 20
55.168932
 30
0.0
 10
82.428450
 20
55.380232
 30
0.0
 10
82.486449
 20
55.915974
 30
0.0
 10
82.496045
 20
58.298932
 30
0.0
 10
82.450297
 20
61.293868
 30
0.0
 10
76.686399
 20
61.293868
 30
0.0
 10
70.922501
 20
61.293868
 30
0.0
 10
70.876640
 20
58.376015
 30
0.0
 10
70.913159
 20
55.243458
 30
0.0
 10
71.206670
 20
55.138726
 30
0.0
 10
72.117435
 20
55.073250
 30
0.0
 10
76.555860
 20
55.031312
 30
0.0
 10
80.545339
 20
55.072688
 30
0.0
 10
82.328975
 20
55.168932
 30
0.0
 10
82.328975
 20
55.168932
 30
0.0
  0
LWPOLYLINE
  5
137
100
AcDbEntity
  8
0
 62
1
100
AcDbPolyline
 90
24
 70
0
 10
34.710156
 20
56.631994
 30
0.0
 10
34.881882
 20
56.810830
 30
0.0
 10
35.006969
 20
57.078250
 30
0.0
 10
35.115356
 20
57.771371
 30
0.0
 10
35.031584
 20
58.496411
 30
0.0
 10
34.751922
 20
59.038424
 30
0.0
 10
34.479202
 20
59.222967
 30
0.0
 10
33.928894
 20
59.323124
 30
0.0
 10
30.779426
 20
59.372561
 30
0.0
 10
28.221854
 20
59.348572
 30
0.0
 10
27.438630
 20
59.291109
 30
0.0
 10
26.917597
 20
59.178915
 30
0.0
 10
26.607617
 20
58.993681
 30
0.0
 10
26.457553
 20
58.717089
 30
0.0
 10
26.432618
 20
57.816586
 30
0.0
 10
26.541400
 20
56.943517
 30
0.0
 10
26.663045
 20
56.738310
 30
0.0
 10
26.858708
 20
56.604303
 30
0.0
 10
28.065465
 20
56.462571
 30
0.0
 10
30.784845
 20
56.403493
 30
0.0
 10
33.697686
 20
56.441105
 30
0.0
 10
34.368731
 20
56.513162
 30
0.0
 10
34.710155
 20
56.632000
 30
0.0
 10
34.710155
 20
56.632000
 30
0.0
  0
LWPOLYLINE
  5
138
100
AcDbEntity
  8
0
 62
1
100
AcDbPolyline
 90
40
 70
0
 10
66.254931
 20
56.632045
 30
0.0
 10
66.678589
 20
56.904503
 30
0.0
 10
66.907861
 20
57.185012
 30
0.0
 10
67.027709
 20
61.177443
 30
0.0
 10
67.002846
 20
64.464378
 30
0.0
 10
66.889133
 20
65.000075
 30
0.0
 10
66.663284
 20
65.302426
 30
0.0
 10
66.219820
 20
65.611956
 30
0.0
 10
65.700063
 20
65.725705
 30
0.0
 10
65.173577
 20
65.641702
 30
0.0
 10
64.709934
 20
65.357967
 30
0.0
 10
64.491652
 20
65.096742
 30
0.0
 10
64.376274
 20
64.662633
 30
0.0
 10
64.323261
 20
62.209312
 30
0.0
 10
64.323261
 20
59.423926
 30
0.0
 10
61.975074
 20
59.323497
 30
0.0
 10
59.396562
 20
59.311446
 30
0.0
 10
59.282335
 20
59.481513
 30
0.0
 10
59.203073
 20
59.948134
 30
0.0
 10
59.113400
 20
62.129875
 30
0.0
 10
59.011413
 20
64.539023
 30
0.0
 10
58.884176
 20
64.991089
 30
0.0
 10
58.655539
 20
65.290567
 30
0.0
 10
58.203442
 20
65.615139
 30
0.0
 10
57.693198
 20
65.727136
 30
0.0
 10
57.178741
 20
65.625985
 30
0.0
 10
56.714000
 20
65.311112
 30
0.0
 10
56.303914
 20
64.901041
 30
0.0
 10
56.303914
 20
61.171553
 30
0.0
 10
56.326097
 20
58.806102
 30
0.0
 10
56.437645
 20
57.477575
 30
0.0
 10
56.548031
 20
57.092756
 30
0.0
 10
56.706078
 20
56.835889
 30
0.0
 10
57.198914
 20
56.530962
 30
0.0
 10
58.646734
 20
56.425809
 30
0.0
 10
61.624898
 20
56.375883
 30
0.0
 10
65.037035
 20
56.417181
 30
0.0
 10
65.810993
 20
56.496866
 30
0.0
 10
66.254943
 20
56.632026
 30
0.0
 10
66.254943
 20
56.632045
 30
0.0
  0
LWPOLYLINE
  5
139
100
AcDbEntity
  8
0
 62
1
100
AcDbPolyline
 90
23
 70
0
 10
17.126086
 20
57.180736
 30
0.0
 10
17.683547
 20
57.493712
 30
0.0
 10
18.085394
 20
57.815253
 30
0.0
 10
18.285715
 20
58.142002
 30
0.0
 10
18.140624
 20
58.465361
 30
0.0
 10
17.998967
 20
58.643127
 30
0.0
 10
17.884666
 20
58.698891
 30
0.0
 10
17.515454
 20
58.432804
 30
0.0
 10
16.733325
 20
57.904752
 30
0.0
 10
15.901570
 20
57.687218
 30
0.0
 10
15.045977
 20
57.782081
 30
0.0
 10
14.192331
 20
58.191210
 30
0.0
 10
13.639017
 20
58.512856
 30
0.0
 10
13.331842
 20
58.599024
 30
0.0
 10
13.216353
 20
58.429276
 30
0.0
 10
13.212318
 20
58.175361
 30
0.0
 10
13.309406
 20
57.896432
 30
0.0
 10
13.497288
 20
57.651644
 30
0.0
 10
14.270107
 20
57.172315
 30
0.0
 10
15.208605
 20
56.924179
 30
0.0
 10
16.198643
 20
56.921921
 30
0.0
 10
17.126083
 20
57.180615
 30
0.0
 10
17.126085
 20
57.180603
 30
0.0
  0
LWPOLYLINE
  5
13a
100
AcDbEntity
  8
0
 62
1
100
AcDbPolyline
 90
19
 70
0
 10
54.527922
 20
57.409367
 30
0.0
 10
54.617282
 20
58.754461
 30
0.0
 10
54.629108
 20
61.101813
 30
0.0
 10
54.573431
 20
63.391245
 30
0.0
 10
54.460274
 20
64.562577
 30
0.0
 10
54.380766
 20
64.665961
 30
0.0
 10
54.216581
 20
64.744577
 30
0.0
 10
53.329477
 20
64.841052
 30
0.0
 10
47.187500
 20
64.885736
 30
0.0
 10
41.548901
 20
64.842350
 30
0.0
 10
40.385143
 20
64.778189
 30
0.0
 10
40.022188
 20
64.676900
 30
0.0
 10
39.880973
 20
60.930154
 30
0.0
 10
39.881154
 20
57.242300
 30
0.0
 10
40.256853
 20
57.141047
 30
0.0
 10
41.446911
 20
57.076884
 30
0.0
 10
47.193057
 20
57.033464
 30
0.0
 10
54.427180
 20
57.033464
 30
0.0
 10
54.527922
 20
57.409367
 30
0.0
  0
LWPOLYLINE
  5
13b
100
AcDbEntity
  8
0
 62
1
100
AcDbPolyline
 90
26
 70
0
 10
16.891165
 20
58.628734
 30
0.0
 10
17.385929
 20
58.990788
 30
0.0
 10
17.747197
 20
59.490350
 30
0.0
 10
17.968744
 20
60.115410
 30
0.0
 10
18.044343
 20
60.853954
 30
0.0
 10
18.026721
 20
61.355412
 30
0.0
 10
17.944776
 20
61.707657
 30
0.0
 10
17.756031
 20
62.013981
 30
0.0
 10
17.418010
 20
62.377680
 30
0.0
 10
16.826067
 20
62.833351
 30
0.0
 10
16.193211
 20
63.087472
 30
0.0
 10
15.553124
 20
63.151486
 30
0.0
 10
14.939486
 20
63.036836
 30
0.0
 10
14.385980
 20
62.754966
 30
0.0
 10
13.926287
 20
62.317316
 30
0.0
 10
13.594089
 20
61.735329
 30
0.0
 10
13.423068
 20
61.020451
 30
0.0
 10
13.448784
 20
60.342875
 30
0.0
 10
13.649869
 20
59.732886
 30
0.0
 10
13.996895
 20
59.210777
 30
0.0
 10
14.460435
 20
58.796842
 30
0.0
 10
15.011060
 20
58.511374
 30
0.0
 10
15.619343
 20
58.374672
 30
0.0
 10
16.255854
 20
58.407025
 30
0.0
 10
16.891166
 20
58.628734
 30
0.0
 10
16.891166
 20
58.628734
 30
0.0
  0
LWPOLYLINE
  5
13c
100
AcDbEntity
  8
0
 62
1
100
AcDbPolyline
 90
18
 70
0
 10
25.381036
 20
58.769622
 30
0.0
 10
25.513809
 20
59.438940
 30
0.0
 10
25.526794
 20
60.977235
 30
0.0
 10
25.427041
 20
62.731302
 30
0.0
 10
25.286222
 20
63.027661
 30
0.0
 10
25.023655
 20
63.207865
 30
0.0
 10
24.583167
 20
63.371639
 30
0.0
 10
24.214204
 20
63.109883
 30
0.0
 10
24.025619
 20
62.864618
 30
0.0
 10
23.916556
 20
62.508829
 30
0.0
 10
23.843693
 20
60.912247
 30
0.0
 10
23.882521
 20
59.439304
 30
0.0
 10
24.047088
 20
58.802619
 30
0.0
 10
24.333505
 20
58.615085
 30
0.0
 10
24.718163
 20
58.545419
 30
0.0
 10
25.100770
 20
58.596103
 30
0.0
 10
25.381036
 20
58.769610
 30
0.0
 10
25.381036
 20
58.769622
 30
0.0
  0
LWPOLYLINE
  5
13d
100
AcDbEntity
  8
0
 62
1
100
AcDbPolyline
 90
20
 70
0
 10
37.329581
 20
58.799630
 30
0.0
 10
37.457504
 20
59.077907
 30
0.0
 10
37.547916
 20
59.571776
 30
0.0
 10
37.617126
 20
60.921580
 30
0.0
 10
37.539071
 20
62.279651
 30
0.0
 10
37.445402
 20
62.783846
 30
0.0
 10
37.315611
 20
63.076587
 30
0.0
 10
37.043534
 20
63.294110
 30
0.0
 10
36.760118
 20
63.368927
 30
0.0
 10
36.480436
 20
63.300855
 30
0.0
 10
36.219570
 20
63.089710
 30
0.0
 10
35.989993
 20
62.388210
 30
0.0
 10
35.864190
 20
61.199058
 30
0.0
 10
35.864325
 20
59.951955
 30
0.0
 10
36.012560
 20
59.076606
 30
0.0
 10
36.261801
 20
58.712407
 30
0.0
 10
36.595210
 20
58.538355
 30
0.0
 10
36.966544
 20
58.564178
 30
0.0
 10
37.329572
 20
58.799597
 30
0.0
 10
37.329581
 20
58.799630
 30
0.0
  0
LWPOLYLINE
  5
13e
100
AcDbEntity
  8
0
 62
1
100
AcDbPolyline
 90
70
 70
0
 10
136.127941
 20
61.766664
 30
0.0
 10
136.176235
 20
63.215039
 30
0.0
 10
137.255687
 20
63.215039
 30
0.0
 10
138.335133
 20
63.215039
 30
0.0
 10
138.335133
 20
61.898941
 30
0.0
 10
138.391027
 20
60.838830
 30
0.0
 10
138.578420
 20
60.380933
 30
0.0
 10
138.858204
 20
60.246053
 30
0.0
 10
139.040915
 20
60.416222
 30
0.0
 10
139.140395
 20
60.924716
 30
0.0
 10
139.170480
 20
61.804809
 30
0.0
 10
139.170480
 20
63.215039
 30
0.0
 10
140.256432
 20
63.215039
 30
0.0
 10
141.342389
 20
63.215039
 30
0.0
 10
141.342389
 20
61.911895
 30
0.0
 10
141.375685
 20
61.086773
 30
0.0
 10
141.481603
 20
60.562630
 30
0.0
 10
141.669191
 20
60.315708
 30
0.0
 10
141.947487
 20
60.322256
 30
0.0
 10
142.055313
 20
60.436875
 30
0.0
 10
142.126476
 20
60.703104
 30
0.0
 10
142.177736
 20
61.812830
 30
0.0
 10
142.177736
 20
63.215042
 30
0.0
 10
143.263687
 20
63.215042
 30
0.0
 10
144.349639
 20
63.215042
 30
0.0
 10
144.349639
 20
61.911898
 30
0.0
 10
144.382935
 20
61.086776
 30
0.0
 10
144.488856
 20
60.562633
 30
0.0
 10
144.676446
 20
60.315711
 30
0.0
 10
144.954743
 20
60.322259
 30
0.0
 10
145.062566
 20
60.436878
 30
0.0
 10
145.133728
 20
60.703106
 30
0.0
 10
145.184986
 20
61.812832
 30
0.0
 10
145.184986
 20
63.215045
 30
0.0
 10
146.270937
 20
63.215045
 30
0.0
 10
147.356894
 20
63.215045
 30
0.0
 10
147.356894
 20
61.794957
 30
0.0
 10
147.411019
 20
60.558640
 30
0.0
 10
147.535256
 20
60.399401
 30
0.0
 10
147.774566
 20
60.374848
 30
0.0
 10
148.013961
 20
60.399401
 30
0.0
 10
148.138190
 20
60.558640
 30
0.0
 10
148.192244
 20
61.794957
 30
0.0
 10
148.192244
 20
63.215045
 30
0.0
 10
149.278196
 20
63.215045
 30
0.0
 10
150.364144
 20
63.215045
 30
0.0
 10
150.364144
 20
61.898947
 30
0.0
 10
150.420041
 20
60.838836
 30
0.0
 10
150.607434
 20
60.380939
 30
0.0
 10
150.894022
 20
60.244569
 30
0.0
 10
151.075979
 20
60.442686
 30
0.0
 10
151.171678
 20
61.027081
 30
0.0
 10
151.199505
 20
62.049541
 30
0.0
 10
151.145268
 20
63.454711
 30
0.0
 10
151.047938
 20
63.732782
 30
0.0
 10
150.877546
 20
63.876808
 30
0.0
 10
148.744564
 20
63.993070
 30
0.0
 10
143.098153
 20
64.000605
 30
0.0
 10
136.975333
 20
63.916517
 30
0.0
 10
135.843797
 20
63.835502
 30
0.0
 10
135.486865
 20
63.708875
 30
0.0
 10
135.357136
 20
63.031426
 30
0.0
 10
135.327104
 20
61.907620
 30
0.0
 10
135.389425
 20
60.837015
 30
0.0
 10
135.536745
 20
60.319171
 30
0.0
 10
135.812465
 20
60.273104
 30
0.0
 10
135.983706
 20
60.451979
 30
0.0
 10
136.079277
 20
60.926324
 30
0.0
 10
136.127992
 20
61.766667
 30
0.0
 10
136.127952
 20
61.766667
 30
0.0
  0
LWPOLYLINE
  5
13f
100
AcDbEntity
  8
0
 62
1
100
AcDbPolyline
 90
14
 70
0
 10
156.869767
 20
61.836720
 30
0.0
 10
157.650555
 20
63.505308
 30
0.0
 10
157.671016
 20
63.805522
 30
0.0
 10
157.485046
 20
63.883322
 30
0.0
 10
157.276179
 20
63.831052
 30
0.0
 10
157.049986
 20
63.596135
 30
0.0
 10
156.208275
 20
62.109744
 30
0.0
 10
155.811245
 20
61.280973
 30
0.0
 10
155.621216
 20
60.686244
 30
0.0
 10
155.638601
 20
60.327776
 30
0.0
 10
155.863792
 20
60.207792
 30
0.0
 10
156.226913
 20
60.686289
 30
0.0
 10
156.869764
 20
61.836720
 30
0.0
 10
156.869764
 20
61.836720
 30
0.0
  0
LWPOLYLINE
  5
140
100
AcDbEntity
  8
0
 62
1
100
AcDbPolyline
 90
16
 70
0
 10
159.024988
 20
62.148369
 30
0.0
 10
158.884495
 20
63.654852
 30
0.0
 10
158.728819
 20
63.859291
 30
0.0
 10
158.474218
 20
63.825667
 30
0.0
 10
158.345990
 20
63.705756
 30
0.0
 10
158.267140
 20
63.419151
 30
0.0
 10
158.216408
 20
62.064721
 30
0.0
 10
158.245327
 20
61.037929
 30
0.0
 10
158.346983
 20
60.461211
 30
0.0
 10
158.432073
 20
60.323831
 30
0.0
 10
158.543732
 20
60.277617
 30
0.0
 10
158.857918
 20
60.430203
 30
0.0
 10
158.959993
 20
60.593528
 30
0.0
 10
159.019510
 20
60.910145
 30
0.0
 10
159.024985
 20
62.148369
 30
0.0
 10
159.024985
 20
62.148369
 30
0.0
  0
LWPOLYLINE
  5
141
100
AcDbEntity
  8
0
 62
1
100
AcDbPolyline
 90
13
 70
0
 10
161.390725
 20
60.503519
 30
0.0
 10
161.076433
 20
61.798312
 30
0.0
 10
160.655584
 20
63.423884
 30
0.0
 10
160.493729
 20
63.770123
 30
0.0
 10
160.218046
 20
63.883322
 30
0.0
 10
159.984315
 20
63.830151
 30
0.0
 10
159.887101
 20
63.702319
 30
0.0
 10
160.640152
 20
60.583695
 30
0.0
 10
160.789857
 20
60.446581
 30
0.0
 10
161.044263
 20
60.379031
 30
0.0
 10
161.284256
 20
60.393763
 30
0.0
 10
161.390725
 20
60.503513
 30
0.0
 10
161.390725
 20
60.503513
 30
0.0
  0
LWPOLYLINE
  5
142
100
AcDbEntity
  8
0
 62
1
100
AcDbPolyline
 90
14
 70
0
 10
162.886903
 20
61.753182
 30
0.0
 10
163.334400
 20
63.424700
 30
0.0
 10
163.310411
 20
63.666657
 30
0.0
 10
163.141566
 20
63.822274
 30
0.0
 10
162.916322
 20
63.850327
 30
0.0
 10
162.723152
 20
63.709572
 30
0.0
 10
162.254483
 20
62.158885
 30
0.0
 10
161.891931
 20
60.547975
 30
0.0
 10
161.984706
 20
60.425713
 30
0.0
 10
162.207758
 20
60.374859
 30
0.0
 10
162.380170
 20
60.433818
 30
0.0
 10
162.532968
 20
60.646944
 30
0.0
 10
162.886897
 20
61.753188
 30
0.0
 10
162.886897
 20
61.753188
 30
0.0
  0
LWPOLYLINE
  5
143
100
AcDbEntity
  8
0
 62
1
100
AcDbPolyline
 90
13
 70
0
 10
164.715206
 20
61.001373
 30
0.0
 10
165.283277
 20
63.326907
 30
0.0
 10
165.287398
 20
63.682913
 30
0.0
 10
165.160923
 20
63.860245
 30
0.0
 10
164.951582
 20
63.961015
 30
0.0
 10
164.755835
 20
63.752060
 30
0.0
 10
164.243060
 20
62.093200
 30
0.0
 10
163.921801
 20
60.609888
 30
0.0
 10
163.995940
 20
60.409296
 30
0.0
 10
164.224490
 20
60.374859
 30
0.0
 10
164.514755
 20
60.517260
 30
0.0
 10
164.715220
 20
61.001373
 30
0.0
 10
164.715198
 20
61.001373
 30
0.0
  0
LWPOLYLINE
  5
144
100
AcDbEntity
  8
0
 62
1
100
AcDbPolyline
 90
11
 70
0
 10
167.044968
 20
62.031986
 30
0.0
 10
166.905451
 20
63.640340
 30
0.0
 10
166.749825
 20
63.857908
 30
0.0
 10
166.493537
 20
63.825667
 30
0.0
 10
166.365227
 20
63.705310
 30
0.0
 10
166.286388
 20
63.416865
 30
0.0
 10
166.235732
 20
62.050799
 30
0.0
 10
166.235732
 20
60.374859
 30
0.0
 10
166.669059
 20
60.374859
 30
0.0
 10
167.102389
 20
60.374859
 30
0.0
 10
167.044968
 20
62.031986
 30
0.0
  0
LWPOLYLINE
  5
145
100
AcDbEntity
  8
0
 62
1
100
AcDbPolyline
 90
16
 70
0
 10
169.317384
 20
60.527152
 30
0.0
 10
169.258456
 20
61.109944
 30
0.0
 10
168.995710
 20
62.222043
 30
0.0
 10
168.667427
 20
63.341388
 30
0.0
 10
168.411880
 20
63.945908
 30
0.0
 10
168.233454
 20
64.026564
 30
0.0
 10
168.040052
 20
63.916692
 30
0.0
 10
167.957612
 20
63.758885
 30
0.0
 10
167.946634
 20
63.488248
 30
0.0
 10
168.153139
 20
62.421416
 30
0.0
 10
168.600117
 20
60.750754
 30
0.0
 10
168.744346
 20
60.516349
 30
0.0
 10
168.943711
 20
60.391051
 30
0.0
 10
169.150600
 20
60.389639
 30
0.0
 10
169.317399
 20
60.527079
 30
0.0
 10
169.317399
 20
60.527090
 30
0.0
  0
LWPOLYLINE
  5
146
100
AcDbEntity
  8
0
 62
1
100
AcDbPolyline
 90
17
 70
0
 10
170.749219
 20
61.084846
 30
0.0
 10
171.179673
 20
62.677719
 30
0.0
 10
171.315221
 20
63.252575
 30
0.0
 10
171.332776
 20
63.624039
 30
0.0
 10
171.227470
 20
63.823725
 30
0.0
 10
170.994445
 20
63.883260
 30
0.0
 10
170.763505
 20
63.593011
 30
0.0
 10
170.464217
 20
62.863509
 30
0.0
 10
170.171016
 20
61.906629
 30
0.0
 10
169.958345
 20
60.934241
 30
0.0
 10
169.944516
 20
60.472562
 30
0.0
 10
170.037714
 20
60.393977
 30
0.0
 10
170.217114
 20
60.374786
 30
0.0
 10
170.394768
 20
60.408255
 30
0.0
 10
170.531767
 20
60.523207
 30
0.0
 10
170.749219
 20
61.084835
 30
0.0
 10
170.749219
 20
61.084835
 30
0.0
  0
LWPOLYLINE
  5
147
100
AcDbEntity
  8
0
 62
1
100
AcDbPolyline
 90
14
 70
0
 10
173.085601
 20
61.948282
 30
0.0
 10
173.002888
 20
63.634032
 30
0.0
 10
172.875078
 20
63.959897
 30
0.0
 10
172.667929
 20
64.050316
 30
0.0
 10
172.460778
 20
63.959897
 30
0.0
 10
172.332968
 20
63.634032
 30
0.0
 10
172.250252
 20
61.948282
 30
0.0
 10
172.303095
 20
60.573905
 30
0.0
 10
172.427174
 20
60.400285
 30
0.0
 10
172.667929
 20
60.374772
 30
0.0
 10
172.908671
 20
60.400257
 30
0.0
 10
173.032747
 20
60.573871
 30
0.0
 10
173.085601
 20
61.948257
 30
0.0
 10
173.085601
 20
61.948257
 30
0.0
  0
LWPOLYLINE
  5
148
100
AcDbEntity
  8
0
 62
1
100
AcDbPolyline
 90
38
 70
0
 10
27.066735
 20
62.241136
 30
0.0
 10
27.098640
 20
63.625179
 30
0.0
 10
27.213029
 20
64.037824
 30
0.0
 10
27.459271
 20
64.305696
 30
0.0
 10
27.887040
 20
64.459893
 30
0.0
 10
28.546007
 20
64.531524
 30
0.0
 10
30.756227
 20
64.551506
 30
0.0
 10
33.358960
 20
64.502743
 30
0.0
 10
33.900987
 20
64.422807
 30
0.0
 10
34.155261
 20
64.288963
 30
0.0
 10
34.282910
 20
64.080144
 30
0.0
 10
34.363532
 20
63.718027
 30
0.0
 10
34.417801
 20
62.271881
 30
0.0
 10
34.465195
 20
60.810825
 30
0.0
 10
34.553347
 20
60.595128
 30
0.0
 10
34.710172
 20
60.573341
 30
0.0
 10
34.864669
 20
60.665974
 30
0.0
 10
34.959854
 20
60.943678
 30
0.0
 10
35.049637
 20
62.491379
 30
0.0
 10
35.031152
 20
64.153725
 30
0.0
 10
34.914639
 20
64.521570
 30
0.0
 10
34.688294
 20
64.828357
 30
0.0
 10
34.279862
 20
65.303303
 30
0.0
 10
31.383342
 20
65.343331
 30
0.0
 10
28.483540
 20
65.341638
 30
0.0
 10
27.596807
 20
65.249424
 30
0.0
 10
27.005642
 20
65.050985
 30
0.0
 10
26.650133
 20
64.712324
 30
0.0
 10
26.470372
 20
64.199456
 30
0.0
 10
26.406448
 20
63.478389
 30
0.0
 10
26.398453
 20
62.515134
 30
0.0
 10
26.447292
 20
60.830236
 30
0.0
 10
26.547374
 20
60.588298
 30
0.0
 10
26.732592
 20
60.541802
 30
0.0
 10
26.916527
 20
60.584017
 30
0.0
 10
27.016751
 20
60.795983
 30
0.0
 10
27.066732
 20
62.241108
 30
0.0
 10
27.066732
 20
62.241130
 30
0.0
  0
LWPOLYLINE
  5
149
100
AcDbEntity
  8
0
 62
1
100
AcDbPolyline
 90
30
 70
0
 10
183.460871
 20
61.675283
 30
0.0
 10
184.006469
 20
62.030632
 30
0.0
 10
184.460903
 20
62.470328
 30
0.0
 10
184.818631
 20
62.978470
 30
0.0
 10
185.074118
 20
63.539149
 30
0.0
 10
185.221825
 20
64.136461
 30
0.0
 10
185.256214
 20
64.754500
 30
0.0
 10
185.171745
 20
65.377358
 30
0.0
 10
184.962880
 20
65.989132
 30
0.0
 10
184.522444
 20
66.723908
 30
0.0
 10
183.957554
 20
67.301662
 30
0.0
 10
183.297637
 20
67.716176
 30
0.0
 10
182.572122
 20
67.961227
 30
0.0
 10
181.810433
 20
68.030594
 30
0.0
 10
181.041998
 20
67.918053
 30
0.0
 10
180.296246
 20
67.617387
 30
0.0
 10
179.602600
 20
67.122369
 30
0.0
 10
179.155303
 20
66.603072
 30
0.0
 10
178.782053
 20
65.955677
 30
0.0
 10
178.526616
 20
65.272795
 30
0.0
 10
178.432763
 20
64.647035
 30
0.0
 10
178.595044
 20
63.714570
 30
0.0
 10
179.036801
 20
62.822909
 30
0.0
 10
179.698042
 20
62.061970
 30
0.0
 10
180.518761
 20
61.521684
 30
0.0
 10
181.241459
 20
61.282308
 30
0.0
 10
181.961662
 20
61.227540
 30
0.0
 10
182.695942
 20
61.358243
 30
0.0
 10
183.460871
 20
61.675283
 30
0.0
 10
183.460871
 20
61.675283
 30
0.0
  0
LWPOLYLINE
  5
14a
100
AcDbEntity
  8
0
 62
1
100
AcDbPolyline
 90
36
 70
0
 10
83.052834
 20
65.044771
 30
0.0
 10
83.546105
 20
65.538050
 30
0.0
 10
83.499397
 20
73.141808
 30
0.0
 10
83.414276
 20
79.628217
 30
0.0
 10
83.318840
 20
80.682258
 30
0.0
 10
83.154699
 20
81.043779
 30
0.0
 10
82.878189
 20
81.203969
 30
0.0
 10
82.274592
 20
81.300816
 30
0.0
 10
79.053288
 20
81.392253
 30
0.0
 10
75.249886
 20
81.442528
 30
0.0
 10
74.798652
 20
81.024343
 30
0.0
 10
74.457000
 20
80.553444
 30
0.0
 10
74.335433
 20
80.017772
 30
0.0
 10
74.435187
 20
79.478160
 30
0.0
 10
74.757490
 20
78.995441
 30
0.0
 10
75.041826
 20
78.761626
 30
0.0
 10
75.478486
 20
78.639522
 30
0.0
 10
77.931810
 20
78.585361
 30
0.0
 10
80.696050
 20
78.585361
 30
0.0
 10
80.696050
 20
72.988530
 30
0.0
 10
80.696050
 20
67.391697
 30
0.0
 10
78.064703
 20
67.391132
 30
0.0
 10
75.784553
 20
67.334939
 30
0.0
 10
75.261635
 20
67.234787
 30
0.0
 10
74.890386
 20
67.059448
 30
0.0
 10
74.468701
 20
66.698060
 30
0.0
 10
74.327612
 20
66.266494
 30
0.0
 10
74.380568
 20
65.448605
 30
0.0
 10
74.524705
 20
65.190316
 30
0.0
 10
74.782986
 20
64.927476
 30
0.0
 10
75.091543
 20
64.714427
 30
0.0
 10
75.641904
 20
64.602356
 30
0.0
 10
78.880452
 20
64.551573
 30
0.0
 10
82.559521
 20
64.551573
 30
0.0
 10
83.052800
 20
65.044853
 30
0.0
 10
83.052834
 20
65.044771
 30
0.0
  0
LWPOLYLINE
  5
14b
100
AcDbEntity
  8
0
 62
1
100
AcDbPolyline
 90
21
 70
0
 10
13.729772
 20
65.162133
 30
0.0
 10
13.898946
 20
65.504387
 30
0.0
 10
13.990478
 20
66.565819
 30
0.0
 10
14.035299
 20
73.398667
 30
0.0
 10
13.991428
 20
79.660698
 30
0.0
 10
13.929558
 20
81.059990
 30
0.0
 10
13.834816
 20
81.559185
 30
0.0
 10
13.406583
 20
81.705604
 30
0.0
 10
12.698742
 20
81.754412
 30
0.0
 10
11.990901
 20
81.705604
 30
0.0
 10
11.562669
 20
81.559185
 30
0.0
 10
11.467922
 20
81.059217
 30
0.0
 10
11.406052
 20
79.657272
 30
0.0
 10
11.362185
 20
73.382242
 30
0.0
 10
11.362185
 20
65.405789
 30
0.0
 10
11.733499
 20
65.145710
 30
0.0
 10
12.197950
 20
64.953867
 30
0.0
 10
12.770248
 20
64.893356
 30
0.0
 10
13.323240
 20
64.963127
 30
0.0
 10
13.729772
 20
65.162136
 30
0.0
 10
13.729772
 20
65.162133
 30
0.0
  0
LWPOLYLINE
  5
14c
100
AcDbEntity
  8
0
 62
1
100
AcDbPolyline
 90
63
 70
0
 10
19.148200
 20
65.059271
 30
0.0
 10
19.649468
 20
65.330267
 30
0.0
 10
19.807396
 20
65.551662
 30
0.0
 10
19.916003
 20
65.889143
 30
0.0
 10
20.022710
 20
67.088813
 30
0.0
 10
20.044495
 20
69.282196
 30
0.0
 10
20.000570
 20
71.937597
 30
0.0
 10
19.867261
 20
73.100965
 30
0.0
 10
19.768248
 20
73.405785
 30
0.0
 10
19.867261
 20
73.624606
 30
0.0
 10
20.003744
 20
74.656709
 30
0.0
 10
20.049808
 20
77.356422
 30
0.0
 10
20.016302
 20
80.015604
 30
0.0
 10
19.913443
 20
80.813746
 30
0.0
 10
19.698976
 20
81.334084
 30
0.0
 10
19.332252
 20
81.633993
 30
0.0
 10
18.772617
 20
81.770846
 30
0.0
 10
16.912009
 20
81.784872
 30
0.0
 10
15.787430
 20
81.710704
 30
0.0
 10
15.537895
 20
81.624742
 30
0.0
 10
15.425804
 20
81.492213
 30
0.0
 10
15.424506
 20
81.219841
 30
0.0
 10
15.713715
 20
81.046633
 30
0.0
 10
16.355664
 20
80.954885
 30
0.0
 10
17.412585
 20
80.926888
 30
0.0
 10
18.800087
 20
80.869521
 30
0.0
 10
19.071103
 20
80.767148
 30
0.0
 10
19.216629
 20
80.586139
 30
0.0
 10
19.355426
 20
79.417945
 30
0.0
 10
19.377174
 20
77.309426
 30
0.0
 10
19.295597
 20
75.222935
 30
0.0
 10
19.124422
 20
74.120817
 30
0.0
 10
18.951082
 20
73.969682
 30
0.0
 10
18.645450
 20
73.876873
 30
0.0
 10
17.299550
 20
73.808403
 30
0.0
 10
16.253229
 20
73.765818
 30
0.0
 10
15.635397
 20
73.653271
 30
0.0
 10
15.408017
 20
73.456856
 30
0.0
 10
15.533054
 20
73.162670
 30
0.0
 10
15.713810
 20
73.037922
 30
0.0
 10
16.045270
 20
72.958731
 30
0.0
 10
17.391274
 20
72.904984
 30
0.0
 10
18.808978
 20
72.849288
 30
0.0
 10
19.078127
 20
72.741899
 30
0.0
 10
19.226737
 20
72.547911
 30
0.0
 10
19.355959
 20
71.553027
 30
0.0
 10
19.356354
 20
69.230313
 30
0.0
 10
19.290340
 20
67.166018
 30
0.0
 10
19.220333
 20
66.535525
 30
0.0
 10
19.099630
 20
66.117131
 30
0.0
 10
18.908708
 20
65.869088
 30
0.0
 10
18.628046
 20
65.749649
 30
0.0
 10
17.719413
 20
65.729583
 30
0.0
 10
15.790352
 20
65.725152
 30
0.0
 10
15.455432
 20
65.611809
 30
0.0
 10
15.371857
 20
65.400791
 30
0.0
 10
15.433203
 20
65.149887
 30
0.0
 10
15.580694
 20
64.996310
 30
0.0
 10
16.239829
 20
64.914737
 30
0.0
 10
17.340589
 20
64.903109
 30
0.0
 10
18.453279
 20
64.953825
 30
0.0
 10
19.148201
 20
65.059305
 30
0.0
 10
19.148201
 20
65.059305
 30
0.0
  0
LWPOLYLINE
  5
14d
100
AcDbEntity
  8
0
 62
1
100
AcDbPolyline
 90
25
 70
0
 10
118.234109
 20
65.729893
 30
0.0
 10
118.987564
 20
66.237075
 30
0.0
 10
119.932077
 20
67.114529
 30
0.0
 10
120.715960
 20
68.002942
 30
0.0
 10
120.937767
 20
68.338976
 30
0.0
 10
120.987534
 20
68.543008
 30
0.0
 10
120.344194
 20
69.297366
 30
0.0
 10
119.078129
 20
70.547396
 30
0.0
 10
117.794286
 20
71.718660
 30
0.0
 10
117.097609
 20
72.236736
 30
0.0
 10
116.571648
 20
71.890615
 30
0.0
 10
115.728227
 20
71.086604
 30
0.0
 10
114.908374
 20
70.176217
 30
0.0
 10
114.453127
 20
69.510971
 30
0.0
 10
114.305322
 20
68.933491
 30
0.0
 10
114.281672
 20
68.348910
 30
0.0
 10
114.373868
 20
67.774678
 30
0.0
 10
114.573605
 20
67.228237
 30
0.0
 10
114.872586
 20
66.727027
 30
0.0
 10
115.262501
 20
66.288496
 30
0.0
 10
115.735048
 20
65.930088
 30
0.0
 10
116.281922
 20
65.669244
 30
0.0
 10
117.237664
 20
65.573187
 30
0.0
 10
118.234112
 20
65.729893
 30
0.0
 10
118.234112
 20
65.729893
 30
0.0
  0
LWPOLYLINE
  5
14e
100
AcDbEntity
  8
0
 62
1
100
AcDbPolyline
 90
22
 70
0
 10
133.101909
 20
66.149860
 30
0.0
 10
133.559769
 20
66.590959
 30
0.0
 10
133.890395
 20
67.116138
 30
0.0
 10
134.090897
 20
67.719247
 30
0.0
 10
134.158374
 20
68.394131
 30
0.0
 10
134.083579
 20
69.102613
 30
0.0
 10
133.821127
 20
69.758238
 30
0.0
 10
133.313923
 20
70.461837
 30
0.0
 10
132.504871
 20
71.314244
 30
0.0
 10
131.316424
 20
72.480124
 30
0.0
 10
129.396009
 20
70.565153
 30
0.0
 10
128.039709
 20
69.144839
 30
0.0
 10
127.475586
 20
68.419150
 30
0.0
 10
127.857788
 20
67.857149
 30
0.0
 10
128.733112
 20
66.949621
 30
0.0
 10
129.694648
 20
66.088398
 30
0.0
 10
130.335476
 20
65.665304
 30
0.0
 10
131.066638
 20
65.595051
 30
0.0
 10
131.834378
 20
65.663419
 30
0.0
 10
132.544274
 20
65.853871
 30
0.0
 10
133.101909
 20
66.149860
 30
0.0
 10
133.101909
 20
66.149860
 30
0.0
  0
LWPOLYLINE
  5
14f
100
AcDbEntity
  8
0
 62
1
100
AcDbPolyline
 90
11
 70
0
 10
99.658491
 20
68.310596
 30
0.0
 10
99.658491
 20
70.816641
 30
0.0
 10
97.120568
 20
70.862728
 30
0.0
 10
94.582648
 20
70.908815
 30
0.0
 10
94.531013
 20
68.941450
 30
0.0
 10
94.531577
 20
66.343278
 30
0.0
 10
94.583667
 20
65.712466
 30
0.0
 10
97.121141
 20
65.758553
 30
0.0
 10
99.658559
 20
65.804640
 30
0.0
 10
99.658559
 20
68.310686
 30
0.0
 10
99.658491
 20
68.310596
 30
0.0
  0
LWPOLYLINE
  5
150
100
AcDbEntity
  8
0
 62
1
100
AcDbPolyline
 90
19
 70
0
 10
167.590043
 20
68.093143
 30
0.0
 10
167.676471
 20
68.570302
 30
0.0
 10
167.716622
 20
69.685187
 30
0.0
 10
167.664860
 20
74.397833
 30
0.0
 10
167.464313
 20
80.462726
 30
0.0
 10
166.221090
 20
80.550158
 30
0.0
 10
163.534803
 20
80.585448
 30
0.0
 10
160.762340
 20
80.564930
 30
0.0
 10
159.260590
 20
80.484920
 30
0.0
 10
158.884678
 20
80.384178
 30
0.0
 10
158.884678
 20
74.319287
 30
0.0
 10
158.986095
 20
67.990127
 30
0.0
 10
159.177399
 20
67.851310
 30
0.0
 10
159.784236
 20
67.771306
 30
0.0
 10
163.240488
 20
67.725862
 30
0.0
 10
166.882484
 20
67.773256
 30
0.0
 10
167.405961
 20
67.882479
 30
0.0
 10
167.590043
 20
68.093149
 30
0.0
 10
167.590043
 20
68.093155
 30
0.0
  0
LWPOLYLINE
  5
151
100
AcDbEntity
  8
0
 62
1
100
AcDbPolyline
 90
26
 70
0
 10
175.494444
 20
67.827270
 30
0.0
 10
175.573827
 20
67.920167
 30
0.0
 10
175.635696
 20
68.185515
 30
0.0
 10
175.715432
 20
69.562672
 30
0.0
 10
175.758714
 20
78.006588
 30
0.0
 10
175.714891
 20
86.352185
 30
0.0
 10
175.639470
 20
87.852625
 30
0.0
 10
175.510031
 20
88.333176
 30
0.0
 10
175.119975
 20
88.461866
 30
0.0
 10
174.006086
 20
88.538450
 30
0.0
 10
168.033662
 20
88.589174
 30
0.0
 10
160.342565
 20
88.505345
 30
0.0
 10
159.879148
 20
88.414202
 30
0.0
 10
159.924896
 20
85.629936
 30
0.0
 10
159.970641
 20
82.845667
 30
0.0
 10
164.940964
 20
82.801389
 30
0.0
 10
169.911281
 20
82.757114
 30
0.0
 10
169.911281
 20
75.441950
 30
0.0
 10
169.955345
 20
69.690256
 30
0.0
 10
170.017239
 20
68.395059
 30
0.0
 10
170.111766
 20
67.926299
 30
0.0
 10
170.969423
 20
67.793864
 30
0.0
 10
172.688952
 20
67.723331
 30
0.0
 10
174.465558
 20
67.729511
 30
0.0
 10
175.494450
 20
67.827225
 30
0.0
 10
175.494444
 20
67.827265
 30
0.0
  0
LWPOLYLINE
  5
152
100
AcDbEntity
  8
0
 62
1
100
AcDbPolyline
 90
20
 70
0
 10
35.853575
 20
68.627638
 30
0.0
 10
35.972526
 20
68.880930
 30
0.0
 10
36.044143
 20
69.691991
 30
0.0
 10
36.088497
 20
73.967853
 30
0.0
 10
36.043818
 20
78.347496
 30
0.0
 10
35.963910
 20
79.096951
 30
0.0
 10
35.824227
 20
79.319322
 30
0.0
 10
34.139106
 20
79.393773
 30
0.0
 10
30.742268
 20
79.418580
 30
0.0
 10
27.345429
 20
79.393773
 30
0.0
 10
25.660308
 20
79.319322
 30
0.0
 10
25.520585
 20
79.095083
 30
0.0
 10
25.440679
 20
78.337042
 30
0.0
 10
25.396038
 20
73.901810
 30
0.0
 10
25.440425
 20
69.421815
 30
0.0
 10
25.524540
 20
68.711489
 30
0.0
 10
25.675387
 20
68.531688
 30
0.0
 10
30.844498
 20
68.509478
 30
0.0
 10
35.853575
 20
68.627627
 30
0.0
 10
35.853575
 20
68.627627
 30
0.0
  0
LWPOLYLINE
  5
153
100
AcDbEntity
  8
0
 62
1
100
AcDbPolyline
 90
33
 70
0
 10
74.915239
 20
68.700836
 30
0.0
 10
75.031317
 20
70.235258
 30
0.0
 10
75.076712
 20
71.589662
 30
0.0
 10
75.153305
 20
71.993525
 30
0.0
 10
75.308863
 20
72.258210
 30
0.0
 10
75.575664
 20
72.416003
 30
0.0
 10
75.985984
 20
72.499185
 30
0.0
 10
77.366294
 20
72.570867
 30
0.0
 10
79.131261
 20
72.692028
 30
0.0
 10
79.391041
 20
72.802724
 30
0.0
 10
79.443068
 20
72.988536
 30
0.0
 10
79.393900
 20
73.173922
 30
0.0
 10
79.145109
 20
73.280007
 30
0.0
 10
77.440947
 20
73.370086
 30
0.0
 10
75.981618
 20
73.448914
 30
0.0
 10
75.284507
 20
73.571816
 30
0.0
 10
75.190423
 20
73.753423
 30
0.0
 10
75.127120
 20
74.161850
 30
0.0
 10
75.042786
 20
76.204628
 30
0.0
 10
74.963544
 20
77.077075
 30
0.0
 10
74.856026
 20
77.217041
 30
0.0
 10
74.671475
 20
77.248813
 30
0.0
 10
74.478963
 20
77.209017
 30
0.0
 10
74.386098
 20
76.979099
 30
0.0
 10
74.411498
 20
75.285746
 30
0.0
 10
74.489507
 20
72.976923
 30
0.0
 10
74.411385
 20
70.840743
 30
0.0
 10
74.414771
 20
68.794141
 30
0.0
 10
74.516157
 20
68.640101
 30
0.0
 10
74.652377
 20
68.569667
 30
0.0
 10
74.794945
 20
68.588153
 30
0.0
 10
74.915372
 20
68.700847
 30
0.0
 10
74.915247
 20
68.700847
 30
0.0
  0
LWPOLYLINE
  5
154
100
AcDbEntity
  8
0
 62
1
100
AcDbPolyline
 90
46
 70
0
 10
140.974825
 20
68.928758
 30
0.0
 10
141.134673
 20
69.199841
 30
0.0
 10
141.162161
 20
69.525497
 30
0.0
 10
141.062574
 20
69.857687
 30
0.0
 10
140.841159
 20
70.148367
 30
0.0
 10
140.626100
 20
70.426210
 30
0.0
 10
140.518068
 20
70.727154
 30
0.0
 10
140.531502
 20
70.968429
 30
0.0
 10
140.680851
 20
71.067249
 30
0.0
 10
141.335689
 20
70.711627
 30
0.0
 10
141.797452
 20
70.469107
 30
0.0
 10
142.219978
 20
70.457226
 30
0.0
 10
142.775211
 20
70.805872
 30
0.0
 10
143.482553
 20
71.475853
 30
0.0
 10
144.091019
 20
72.201040
 30
0.0
 10
144.349616
 20
72.715306
 30
0.0
 10
144.206442
 20
73.004343
 30
0.0
 10
143.825027
 20
73.484164
 30
0.0
 10
142.636095
 20
74.733516
 30
0.0
 10
141.360073
 20
75.898067
 30
0.0
 10
140.869793
 20
76.271884
 30
0.0
 10
140.574211
 20
76.412515
 30
0.0
 10
140.042758
 20
76.117334
 30
0.0
 10
139.293260
 20
75.434201
 30
0.0
 10
138.625390
 20
74.669265
 30
0.0
 10
138.338824
 20
74.128680
 30
0.0
 10
138.437498
 20
73.790744
 30
0.0
 10
138.669253
 20
73.406233
 30
0.0
 10
138.999676
 20
72.779720
 30
0.0
 10
138.906300
 20
72.609814
 30
0.0
 10
138.670071
 20
72.581261
 30
0.0
 10
138.369852
 20
72.683265
 30
0.0
 10
138.084506
 20
72.905024
 30
0.0
 10
137.635623
 20
73.197279
 30
0.0
 10
137.172668
 20
73.204391
 30
0.0
 10
136.810636
 20
72.959484
 30
0.0
 10
136.664521
 20
72.495714
 30
0.0
 10
136.892015
 20
71.941458
 30
0.0
 10
137.476523
 20
71.134847
 30
0.0
 10
138.271416
 20
70.255138
 30
0.0
 10
139.130060
 20
69.481584
 30
0.0
 10
139.777438
 20
69.022114
 30
0.0
 10
140.280883
 20
68.782759
 30
0.0
 10
140.670107
 20
68.754621
 30
0.0
 10
140.974811
 20
68.928784
 30
0.0
 10
140.974811
 20
68.928784
 30
0.0
  0
LWPOLYLINE
  5
155
100
AcDbEntity
  8
0
 62
1
100
AcDbPolyline
 90
44
 70
0
 10
153.586684
 20
69.312092
 30
0.0
 10
154.440127
 20
70.078405
 30
0.0
 10
155.293172
 20
71.016449
 30
0.0
 10
155.949192
 20
71.890158
 30
0.0
 10
156.211560
 20
72.463465
 30
0.0
 10
156.088375
 20
72.953374
 30
0.0
 10
155.757109
 20
73.195261
 30
0.0
 10
155.275183
 20
73.173586
 30
0.0
 10
154.700023
 20
72.872783
 30
0.0
 10
154.273108
 20
72.629801
 30
0.0
 10
154.017011
 20
72.693800
 30
0.0
 10
153.950613
 20
72.940208
 30
0.0
 10
154.185230
 20
73.333341
 30
0.0
 10
154.436396
 20
73.755029
 30
0.0
 10
154.540864
 20
74.133994
 30
0.0
 10
154.252170
 20
74.685228
 30
0.0
 10
153.582663
 20
75.447138
 30
0.0
 10
152.827190
 20
76.122354
 30
0.0
 10
152.280614
 20
76.413509
 30
0.0
 10
151.996715
 20
76.269900
 30
0.0
 10
151.513886
 20
75.887658
 30
0.0
 10
150.243375
 20
74.698806
 30
0.0
 10
149.052920
 20
73.430005
 30
0.0
 10
148.670162
 20
72.947831
 30
0.0
 10
148.526358
 20
72.664314
 30
0.0
 10
148.833007
 20
72.147703
 30
0.0
 10
149.537216
 20
71.387077
 30
0.0
 10
150.315384
 20
70.698740
 30
0.0
 10
150.843910
 20
70.399003
 30
0.0
 10
151.187985
 20
70.497157
 30
0.0
 10
151.579201
 20
70.733146
 30
0.0
 10
152.099226
 20
71.030718
 30
0.0
 10
152.404639
 20
71.005911
 30
0.0
 10
152.435116
 20
70.715357
 30
0.0
 10
152.130327
 20
70.215697
 30
0.0
 10
151.841546
 20
69.836461
 30
0.0
 10
151.725163
 20
69.554764
 30
0.0
 10
151.773076
 20
69.308065
 30
0.0
 10
151.977182
 20
69.033835
 30
0.0
 10
152.275601
 20
68.798645
 30
0.0
 10
152.607867
 20
68.760497
 30
0.0
 10
153.027165
 20
68.928583
 30
0.0
 10
153.586684
 20
69.312101
 30
0.0
 10
153.586684
 20
69.312101
 30
0.0
  0
LWPOLYLINE
  5
156
100
AcDbEntity
  8
0
 62
1
100
AcDbPolyline
 90
19
 70
0
 10
49.018514
 20
69.326720
 30
0.0
 10
49.119925
 20
74.054791
 30
0.0
 10
49.074397
 20
77.550616
 30
0.0
 10
49.012319
 20
78.385621
 30
0.0
 10
48.919440
 20
78.719075
 30
0.0
 10
47.412833
 20
78.864039
 30
0.0
 10
44.310974
 20
78.922713
 30
0.0
 10
41.182727
 20
78.888852
 30
0.0
 10
39.596954
 20
78.756219
 30
0.0
 10
39.467295
 20
78.512683
 30
0.0
 10
39.382781
 20
77.841988
 30
0.0
 10
39.290997
 20
74.388265
 30
0.0
 10
39.340332
 20
69.620516
 30
0.0
 10
39.445025
 20
69.062472
 30
0.0
 10
44.181061
 20
69.062472
 30
0.0
 10
48.128046
 20
69.107458
 30
0.0
 10
48.810680
 20
69.187406
 30
0.0
 10
49.018514
 20
69.326737
 30
0.0
 10
49.018514
 20
69.326720
 30
0.0
  0
LWPOLYLINE
  5
157
100
AcDbEntity
  8
0
 62
1
100
AcDbPolyline
 90
47
 70
0
 10
125.728021
 20
69.821608
 30
0.0
 10
126.909431
 20
70.257308
 30
0.0
 10
127.921014
 20
70.917327
 30
0.0
 10
128.786251
 20
71.821228
 30
0.0
 10
129.528620
 20
72.988581
 30
0.0
 10
130.057442
 20
73.991004
 30
0.0
 10
130.118205
 20
77.937537
 30
0.0
 10
130.096191
 20
81.143296
 30
0.0
 10
130.003148
 20
82.299157
 30
0.0
 10
129.837332
 20
83.230225
 30
0.0
 10
129.585180
 20
83.991415
 30
0.0
 10
129.233130
 20
84.637645
 30
0.0
 10
128.767622
 20
85.223826
 30
0.0
 10
128.175085
 20
85.804874
 30
0.0
 10
127.530585
 20
86.316001
 30
0.0
 10
126.851807
 20
86.722663
 30
0.0
 10
126.147279
 20
87.027441
 30
0.0
 10
125.425524
 20
87.232907
 30
0.0
 10
124.695076
 20
87.341636
 30
0.0
 10
123.964456
 20
87.356199
 30
0.0
 10
123.242193
 20
87.279186
 30
0.0
 10
122.536816
 20
87.113163
 30
0.0
 10
121.856849
 20
86.860709
 30
0.0
 10
121.210817
 20
86.524399
 30
0.0
 10
120.607254
 20
86.106806
 30
0.0
 10
120.054680
 20
85.610510
 30
0.0
 10
119.561626
 20
85.038084
 30
0.0
 10
119.136619
 20
84.392106
 30
0.0
 10
118.788182
 20
83.675149
 30
0.0
 10
118.524846
 20
82.889789
 30
0.0
 10
118.339855
 20
81.140533
 30
0.0
 10
118.278125
 20
78.415240
 30
0.0
 10
118.339686
 20
75.718455
 30
0.0
 10
118.524564
 20
74.054727
 30
0.0
 10
118.833704
 20
73.190401
 30
0.0
 10
119.207172
 20
72.459034
 30
0.0
 10
119.678023
 20
71.806448
 30
0.0
 10
120.279312
 20
71.178462
 30
0.0
 10
120.869562
 20
70.685323
 30
0.0
 10
121.487113
 20
70.284286
 30
0.0
 10
122.131285
 20
69.975520
 30
0.0
 10
122.801413
 20
69.759191
 30
0.0
 10
123.496823
 20
69.635468
 30
0.0
 10
124.216842
 20
69.604517
 30
0.0
 10
124.960800
 20
69.666504
 30
0.0
 10
125.728024
 20
69.821599
 30
0.0
 10
125.728032
 20
69.821599
 30
0.0
  0
LWPOLYLINE
  5
158
100
AcDbEntity
  8
0
 62
1
100
AcDbPolyline
 90
26
 70
0
 10
183.470806
 20
70.142277
 30
0.0
 10
183.949034
 20
70.588453
 30
0.0
 10
184.368837
 20
71.192358
 30
0.0
 10
184.667044
 20
71.843563
 30
0.0
 10
184.780484
 20
72.431650
 30
0.0
 10
184.650421
 20
73.233638
 30
0.0
 10
184.291641
 20
74.008817
 30
0.0
 10
183.751239
 20
74.681350
 30
0.0
 10
183.076319
 20
75.175400
 30
0.0
 10
182.529863
 20
75.346571
 30
0.0
 10
181.852753
 20
75.402338
 30
0.0
 10
181.173404
 20
75.343034
 30
0.0
 10
180.620246
 20
75.168993
 30
0.0
 10
180.090272
 20
74.795763
 30
0.0
 10
179.597506
 20
74.277736
 30
0.0
 10
179.212606
 20
73.702886
 30
0.0
 10
179.006223
 20
73.159196
 30
0.0
 10
178.977038
 20
72.254174
 30
0.0
 10
179.205644
 20
71.386615
 30
0.0
 10
179.660445
 20
70.631529
 30
0.0
 10
180.309849
 20
70.063932
 30
0.0
 10
181.037698
 20
69.789612
 30
0.0
 10
181.899833
 20
69.713522
 30
0.0
 10
182.757216
 20
69.832219
 30
0.0
 10
183.470806
 20
70.142252
 30
0.0
 10
183.470806
 20
70.142277
 30
0.0
  0
LWPOLYLINE
  5
159
100
AcDbEntity
  8
0
 62
1
100
AcDbPolyline
 90
16
 70
0
 10
70.922528
 20
73.990995
 30
0.0
 10
70.922528
 20
77.833595
 30
0.0
 10
61.817229
 20
77.877249
 30
0.0
 10
54.078137
 20
77.870504
 30
0.0
 10
52.856931
 20
77.790607
 30
0.0
 10
52.503097
 20
77.636479
 30
0.0
 10
52.406546
 20
77.313459
 30
0.0
 10
52.341861
 20
76.611801
 30
0.0
 10
52.294261
 20
73.819850
 30
0.0
 10
52.327383
 20
71.292087
 30
0.0
 10
52.407040
 20
70.174848
 30
0.0
 10
55.189590
 20
70.107877
 30
0.0
 10
61.721172
 20
70.105337
 30
0.0
 10
70.922528
 20
70.148480
 30
0.0
 10
70.922528
 20
73.991083
 30
0.0
 10
70.922528
 20
73.991100
 30
0.0
  0
LWPOLYLINE
  5
15a
100
AcDbEntity
  8
0
 62
1
100
AcDbPolyline
 90
20
 70
0
 10
101.256642
 20
72.242747
 30
0.0
 10
101.438046
 20
72.467887
 30
0.0
 10
101.534275
 20
73.237126
 30
0.0
 10
101.577241
 20
78.466088
 30
0.0
 10
101.536053
 20
82.801389
 30
0.0
 10
101.440264
 20
84.728255
 30
0.0
 10
101.173852
 20
84.828357
 30
0.0
 10
100.442589
 20
84.886212
 30
0.0
 10
97.057249
 20
84.895328
 30
0.0
 10
92.808641
 20
84.850658
 30
0.0
 10
92.764818
 20
78.688705
 30
0.0
 10
92.775063
 20
73.901398
 30
0.0
 10
92.826156
 20
72.745735
 30
0.0
 10
92.910583
 20
72.298294
 30
0.0
 10
93.178485
 20
72.186091
 30
0.0
 10
93.854300
 20
72.116057
 30
0.0
 10
97.016854
 20
72.069829
 30
0.0
 10
99.955753
 20
72.116890
 30
0.0
 10
101.256673
 20
72.242781
 30
0.0
 10
101.256650
 20
72.242753
 30
0.0
  0
LWPOLYLINE
  5
15b
100
AcDbEntity
  8
0
 62
1
100
AcDbPolyline
 90
20
 70
0
 10
91.372805
 20
72.802636
 30
0.0
 10
91.506383
 20
73.566993
 30
0.0
 10
91.518575
 20
75.433983
 30
0.0
 10
91.472093
 20
77.833705
 30
0.0
 10
89.216650
 20
77.881829
 30
0.0
 10
87.356255
 20
77.916026
 30
0.0
 10
86.816688
 20
77.862074
 30
0.0
 10
86.477014
 20
77.709959
 30
0.0
 10
86.291842
 20
77.421581
 30
0.0
 10
86.215778
 20
76.958844
 30
0.0
 10
86.209400
 20
75.357905
 30
0.0
 10
86.258185
 20
73.503803
 30
0.0
 10
86.409879
 20
72.771507
 30
0.0
 10
86.700147
 20
72.672687
 30
0.0
 10
87.277941
 20
72.604426
 30
0.0
 10
88.909688
 20
72.557157
 30
0.0
 10
90.532260
 20
72.624848
 30
0.0
 10
91.098586
 20
72.700286
 30
0.0
 10
91.372802
 20
72.802648
 30
0.0
 10
91.372813
 20
72.802636
 30
0.0
  0
LWPOLYLINE
  5
15c
100
AcDbEntity
  8
0
 62
1
100
AcDbPolyline
 90
16
 70
0
 10
107.890812
 20
72.811357
 30
0.0
 10
107.997748
 20
73.487228
 30
0.0
 10
108.065970
 20
74.872262
 30
0.0
 10
108.078529
 20
76.363172
 30
0.0
 10
108.018483
 20
77.356676
 30
0.0
 10
107.911707
 20
77.925850
 30
0.0
 10
105.372269
 20
77.879763
 30
0.0
 10
102.832836
 20
77.833676
 30
0.0
 10
102.832836
 20
75.329273
 30
0.0
 10
102.832836
 20
72.824870
 30
0.0
 10
103.334049
 20
72.706957
 30
0.0
 10
104.285739
 20
72.638245
 30
0.0
 10
105.784164
 20
72.642393
 30
0.0
 10
107.196723
 20
72.704917
 30
0.0
 10
107.890812
 20
72.811326
 30
0.0
 10
107.890812
 20
72.811354
 30
0.0
  0
LWPOLYLINE
  5
15d
100
AcDbEntity
  8
0
 62
1
100
AcDbPolyline
 90
19
 70
0
 10
149.406203
 20
75.570192
 30
0.0
 10
151.262680
 20
77.537069
 30
0.0
 10
152.034846
 20
78.523532
 30
0.0
 10
151.272812
 20
79.475357
 30
0.0
 10
149.552222
 20
81.312765
 30
0.0
 10
147.721342
 20
83.156509
 30
0.0
 10
146.628436
 20
84.127353
 30
0.0
 10
146.369921
 20
84.118209
 30
0.0
 10
145.885021
 20
83.780217
 30
0.0
 10
143.580239
 20
81.566731
 30
0.0
 10
141.646703
 20
79.565158
 30
0.0
 10
140.842009
 20
78.587354
 30
0.0
 10
141.682754
 20
77.560928
 30
0.0
 10
143.558206
 20
75.623064
 30
0.0
 10
145.495644
 20
73.746791
 30
0.0
 10
146.522349
 20
72.905139
 30
0.0
 10
147.474753
 20
73.687999
 30
0.0
 10
149.406203
 20
75.570184
 30
0.0
 10
149.406203
 20
75.570184
 30
0.0
  0
LWPOLYLINE
  5
15e
100
AcDbEntity
  8
0
 62
1
100
AcDbPolyline
 90
27
 70
0
 10
116.916809
 20
75.778737
 30
0.0
 10
117.019264
 20
76.094220
 30
0.0
 10
117.089057
 20
76.730659
 30
0.0
 10
117.134221
 20
78.535351
 30
0.0
 10
117.059396
 20
80.330666
 30
0.0
 10
116.979205
 20
80.955387
 30
0.0
 10
116.871684
 20
81.254461
 30
0.0
 10
116.621915
 20
81.352536
 30
0.0
 10
116.197221
 20
81.408122
 30
0.0
 10
115.030785
 20
81.404030
 30
0.0
 10
113.787845
 20
81.266588
 30
0.0
 10
112.883859
 20
81.020202
 30
0.0
 10
112.372816
 20
80.671062
 30
0.0
 10
111.921267
 20
80.177730
 30
0.0
 10
111.569657
 20
79.594430
 30
0.0
 10
111.358445
 20
78.975392
 30
0.0
 10
111.320644
 20
78.507823
 30
0.0
 10
111.383247
 20
78.014522
 30
0.0
 10
111.759590
 20
77.039754
 30
0.0
 10
112.387337
 20
76.229150
 30
0.0
 10
112.764191
 20
75.941052
 30
0.0
 10
113.166344
 20
75.760766
 30
0.0
 10
114.057387
 20
75.632157
 30
0.0
 10
115.253368
 20
75.593594
 30
0.0
 10
116.343452
 20
75.643101
 30
0.0
 10
116.916792
 20
75.778715
 30
0.0
 10
116.916809
 20
75.778737
 30
0.0
  0
LWPOLYLINE
  5
15f
100
AcDbEntity
  8
0
 62
1
100
AcDbPolyline
 90
24
 70
0
 10
135.424550
 20
75.895069
 30
0.0
 10
136.146203
 20
76.352269
 30
0.0
 10
136.669508
 20
76.949669
 30
0.0
 10
136.993203
 20
77.643809
 30
0.0
 10
137.116035
 20
78.391229
 30
0.0
 10
137.036741
 20
79.148468
 30
0.0
 10
136.754068
 20
79.872063
 30
0.0
 10
136.266755
 20
80.518558
 30
0.0
 10
135.573546
 20
81.044490
 30
0.0
 10
135.173903
 20
81.236723
 30
0.0
 10
134.738389
 20
81.351449
 30
0.0
 10
133.314696
 20
81.422945
 30
0.0
 10
132.081726
 20
81.372848
 30
0.0
 10
131.518699
 20
81.225206
 30
0.0
 10
131.366620
 20
80.464021
 30
0.0
 10
131.318214
 20
78.501973
 30
0.0
 10
131.366620
 20
76.539922
 30
0.0
 10
131.518699
 20
75.778737
 30
0.0
 10
131.749314
 20
75.672509
 30
0.0
 10
132.155979
 20
75.603839
 30
0.0
 10
133.292575
 20
75.573065
 30
0.0
 10
134.518698
 20
75.674211
 30
0.0
 10
135.424550
 20
75.895069
 30
0.0
 10
135.424550
 20
75.895069
 30
0.0
  0
LWPOLYLINE
  5
160
100
AcDbEntity
  8
0
 62
1
100
AcDbPolyline
 90
27
 70
0
 10
183.059933
 20
77.409257
 30
0.0
 10
183.525413
 20
77.787728
 30
0.0
 10
183.853686
 20
78.275191
 30
0.0
 10
184.048154
 20
78.878745
 30
0.0
 10
184.112221
 20
79.605499
 30
0.0
 10
184.093933
 20
80.095676
 30
0.0
 10
184.007161
 20
80.439677
 30
0.0
 10
183.804093
 20
80.744570
 30
0.0
 10
183.436920
 20
81.117422
 30
0.0
 10
182.734604
 20
81.652273
 30
0.0
 10
182.390028
 20
81.739570
 30
0.0
 10
181.924990
 20
81.759833
 30
0.0
 10
181.216073
 20
81.694888
 30
0.0
 10
180.621468
 20
81.498956
 30
0.0
 10
180.137790
 20
81.170390
 30
0.0
 10
179.761655
 20
80.707540
 30
0.0
 10
179.571212
 20
80.293923
 30
0.0
 10
179.469575
 20
79.841287
 30
0.0
 10
179.515447
 20
78.897917
 30
0.0
 10
179.864723
 20
78.035355
 30
0.0
 10
180.142339
 20
77.683729
 30
0.0
 10
180.482846
 20
77.411526
 30
0.0
 10
181.083920
 20
77.169757
 30
0.0
 10
181.772158
 20
77.088740
 30
0.0
 10
182.460013
 20
77.168549
 30
0.0
 10
183.059944
 20
77.409268
 30
0.0
 10
183.059944
 20
77.409262
 30
0.0
  0
LWPOLYLINE
  5
161
100
AcDbEntity
  8
0
 62
1
100
AcDbPolyline
 90
19
 70
0
 10
91.232490
 20
79.259669
 30
0.0
 10
91.407349
 20
79.415792
 30
0.0
 10
91.504614
 20
79.758412
 30
0.0
 10
91.555648
 20
81.668518
 30
0.0
 10
91.454240
 20
84.168682
 30
0.0
 10
91.314052
 20
84.304391
 30
0.0
 10
90.938761
 20
84.384743
 30
0.0
 10
88.981607
 20
84.432952
 30
0.0
 10
87.139096
 20
84.384119
 30
0.0
 10
86.409902
 20
84.232467
 30
0.0
 10
86.258560
 20
83.524225
 30
0.0
 10
86.209422
 20
81.759839
 30
0.0
 10
86.258560
 20
79.995451
 30
0.0
 10
86.409902
 20
79.287203
 30
0.0
 10
87.204826
 20
79.140955
 30
0.0
 10
88.741548
 20
79.084945
 30
0.0
 10
90.318092
 20
79.123186
 30
0.0
 10
91.232490
 20
79.259686
 30
0.0
 10
91.232490
 20
79.259669
 30
0.0
  0
LWPOLYLINE
  5
162
100
AcDbEntity
  8
0
 62
1
100
AcDbPolyline
 90
16
 70
0
 10
107.888325
 20
79.325018
 30
0.0
 10
107.986843
 20
79.954703
 30
0.0
 10
108.053829
 20
81.256959
 30
0.0
 10
108.023845
 20
83.660439
 30
0.0
 10
107.906715
 20
84.441534
 30
0.0
 10
105.369780
 20
84.395448
 30
0.0
 10
102.832847
 20
84.349417
 30
0.0
 10
102.786591
 20
81.881420
 30
0.0
 10
102.796017
 20
79.715461
 30
0.0
 10
102.903990
 20
79.391193
 30
0.0
 10
103.120723
 20
79.259477
 30
0.0
 10
103.997807
 20
79.185662
 30
0.0
 10
105.583286
 20
79.178832
 30
0.0
 10
107.129379
 20
79.228712
 30
0.0
 10
107.888314
 20
79.325018
 30
0.0
 10
107.888319
 20
79.325012
 30
0.0
  0
LWPOLYLINE
  5
163
100
AcDbEntity
  8
0
 62
1
100
AcDbPolyline
 90
47
 70
0
 10
142.731218
 20
82.404706
 30
0.0
 10
143.926568
 20
83.714883
 30
0.0
 10
144.241570
 20
84.147800
 30
0.0
 10
144.349650
 20
84.409711
 30
0.0
 10
144.088972
 20
84.920375
 30
0.0
 10
143.393535
 20
85.686134
 30
0.0
 10
142.690971
 20
86.283898
 30
0.0
 10
142.128843
 20
86.572958
 30
0.0
 10
141.665395
 20
86.564746
 30
0.0
 10
141.258865
 20
86.270704
 30
0.0
 10
140.811785
 20
85.938709
 30
0.0
 10
140.640070
 20
85.916160
 30
0.0
 10
140.517769
 20
85.974241
 30
0.0
 10
140.466004
 20
86.287367
 30
0.0
 10
140.745678
 20
86.788161
 30
0.0
 10
141.042928
 20
87.218096
 30
0.0
 10
141.155862
 20
87.586371
 30
0.0
 10
141.084878
 20
87.899519
 30
0.0
 10
140.830378
 20
88.164071
 30
0.0
 10
140.417131
 20
88.325073
 30
0.0
 10
139.926037
 20
88.177855
 30
0.0
 10
139.231979
 20
87.651284
 30
0.0
 10
138.209840
 20
86.674234
 30
0.0
 10
136.958984
 20
85.328034
 30
0.0
 10
136.726605
 20
84.940323
 30
0.0
 10
136.664445
 20
84.620889
 30
0.0
 10
136.746817
 20
84.196557
 30
0.0
 10
136.987604
 20
83.937613
 30
0.0
 10
137.286604
 20
83.805047
 30
0.0
 10
137.531728
 20
83.792940
 30
0.0
 10
137.795849
 20
83.917341
 30
0.0
 10
138.151835
 20
84.194325
 30
0.0
 10
138.651493
 20
84.499111
 30
0.0
 10
138.942043
 20
84.468636
 30
0.0
 10
138.966851
 20
84.163224
 30
0.0
 10
138.669281
 20
83.643198
 30
0.0
 10
138.406882
 20
83.208446
 30
0.0
 10
138.392179
 20
82.800085
 30
0.0
 10
138.651569
 20
82.322466
 30
0.0
 10
139.211472
 20
81.679939
 30
0.0
 10
140.026372
 20
80.927721
 30
0.0
 10
140.365050
 20
80.767455
 30
0.0
 10
140.703229
 20
80.760428
 30
0.0
 10
141.074921
 20
80.913635
 30
0.0
 10
141.514143
 20
81.234082
 30
0.0
 10
142.731224
 20
82.404720
 30
0.0
 10
142.731224
 20
82.404720
 30
0.0
  0
LWPOLYLINE
  5
164
100
AcDbEntity
  8
0
 62
1
100
AcDbPolyline
 90
48
 70
0
 10
153.692193
 20
81.709660
 30
0.0
 10
154.291596
 20
82.472518
 30
0.0
 10
154.540903
 20
82.969446
 30
0.0
 10
154.433272
 20
83.332240
 30
0.0
 10
154.174500
 20
83.772594
 30
0.0
 10
153.930725
 20
84.200579
 30
0.0
 10
153.997349
 20
84.457440
 30
0.0
 10
154.113384
 20
84.523766
 30
0.0
 10
154.260504
 20
84.507594
 30
0.0
 10
154.710713
 20
84.205681
 30
0.0
 10
155.135133
 20
83.895497
 30
0.0
 10
155.458108
 20
83.788896
 30
0.0
 10
155.723956
 20
83.885102
 30
0.0
 10
155.977002
 20
84.183329
 30
0.0
 10
156.137855
 20
84.650128
 30
0.0
 10
155.991935
 20
85.193087
 30
0.0
 10
155.495243
 20
85.897626
 30
0.0
 10
154.603771
 20
86.849178
 30
0.0
 10
153.700564
 20
87.690485
 30
0.0
 10
153.016008
 20
88.169080
 30
0.0
 10
152.487240
 20
88.317453
 30
0.0
 10
152.051395
 20
88.168084
 30
0.0
 10
151.805560
 20
87.923620
 30
0.0
 10
151.720927
 20
87.642425
 30
0.0
 10
151.797395
 20
87.316786
 30
0.0
 10
152.034857
 20
86.938992
 30
0.0
 10
152.324107
 20
86.437602
 30
0.0
 10
152.330513
 20
86.113806
 30
0.0
 10
152.239951
 20
86.039911
 30
0.0
 10
152.093438
 20
86.036101
 30
0.0
 10
151.652232
 20
86.272987
 30
0.0
 10
151.172093
 20
86.551535
 30
0.0
 10
150.713693
 20
86.565787
 30
0.0
 10
150.207121
 20
86.297326
 30
0.0
 10
149.582467
 20
85.727734
 30
0.0
 10
148.834714
 20
84.898924
 30
0.0
 10
148.665993
 20
84.581785
 30
0.0
 10
148.642597
 20
84.277834
 30
0.0
 10
148.770952
 20
83.948329
 30
0.0
 10
149.057475
 20
83.554530
 30
0.0
 10
150.130698
 20
82.419082
 30
0.0
 10
151.374500
 20
81.225818
 30
0.0
 10
151.824435
 20
80.899815
 30
0.0
 10
152.204320
 20
80.745352
 30
0.0
 10
152.547596
 20
80.755766
 30
0.0
 10
152.887702
 20
80.924394
 30
0.0
 10
153.692182
 20
81.709646
 30
0.0
 10
153.692187
 20
81.709652
 30
0.0
  0
LWPOLYLINE
  5
165
100
AcDbEntity
  8
0
 62
1
100
AcDbPolyline
 90
38
 70
0
 10
13.730768
 20
82.720487
 30
0.0
 10
13.960130
 20
83.231363
 30
0.0
 10
14.162713
 20
84.049071
 30
0.0
 10
14.360387
 20
84.930713
 30
0.0
 10
14.626870
 20
85.639875
 30
0.0
 10
15.000734
 20
86.256410
 30
0.0
 10
15.520550
 20
86.860173
 30
0.0
 10
16.170576
 20
87.427152
 30
0.0
 10
16.898787
 20
87.878598
 30
0.0
 10
17.677972
 20
88.200554
 30
0.0
 10
18.480919
 20
88.379054
 30
0.0
 10
19.277986
 20
88.529848
 30
0.0
 10
19.755977
 20
88.779784
 30
0.0
 10
19.988669
 20
89.198252
 30
0.0
 10
20.049838
 20
89.854633
 30
0.0
 10
19.983786
 20
90.596572
 30
0.0
 10
19.787300
 20
91.020270
 30
0.0
 10
19.491591
 20
91.187374
 30
0.0
 10
19.050766
 20
91.267576
 30
0.0
 10
17.862933
 20
91.189315
 30
0.0
 10
16.482132
 20
90.829538
 30
0.0
 10
15.166691
 20
90.232300
 30
0.0
 10
14.407085
 20
89.701239
 30
0.0
 10
13.696844
 20
89.039005
 30
0.0
 10
13.051898
 20
88.272470
 30
0.0
 10
12.488172
 20
87.428512
 30
0.0
 10
12.021595
 20
86.534001
 30
0.0
 10
11.668093
 20
85.615813
 30
0.0
 10
11.443593
 20
84.700826
 30
0.0
 10
11.364024
 20
83.815910
 30
0.0
 10
11.434519
 20
83.066031
 30
0.0
 10
11.547683
 20
82.854365
 30
0.0
 10
11.733531
 20
82.688192
 30
0.0
 10
12.217030
 20
82.489770
 30
0.0
 10
12.805561
 20
82.430537
 30
0.0
 10
13.357386
 20
82.508202
 30
0.0
 10
13.730768
 20
82.720464
 30
0.0
 10
13.730768
 20
82.720487
 30
0.0
  0
LWPOLYLINE
  5
166
100
AcDbEntity
  8
0
 62
1
100
AcDbPolyline
 90
72
 70
0
 10
28.942980
 20
82.782830
 30
0.0
 10
29.248810
 20
82.854410
 30
0.0
 10
29.573868
 20
82.761720
 30
0.0
 10
30.719304
 20
82.645969
 30
0.0
 10
33.458237
 20
82.655367
 30
0.0
 10
37.254092
 20
82.721082
 30
0.0
 10
41.109724
 20
82.655519
 30
0.0
 10
43.739135
 20
82.626332
 30
0.0
 10
44.526662
 20
82.693010
 30
0.0
 10
45.042457
 20
82.859171
 30
0.0
 10
45.346309
 20
83.158792
 30
0.0
 10
45.498006
 20
83.625850
 30
0.0
 10
45.584095
 20
85.198178
 30
0.0
 10
45.582119
 20
86.786008
 30
0.0
 10
45.507511
 20
87.088590
 30
0.0
 10
45.368127
 20
87.209999
 30
0.0
 10
45.141209
 20
87.249298
 30
0.0
 10
44.977851
 20
87.197158
 30
0.0
 10
44.869906
 20
86.590592
 30
0.0
 10
44.776220
 20
85.296989
 30
0.0
 10
44.692685
 20
83.514132
 30
0.0
 10
41.372747
 20
83.468779
 30
0.0
 10
38.792302
 20
83.480012
 30
0.0
 10
37.822515
 20
83.614541
 30
0.0
 10
37.715943
 20
83.792508
 30
0.0
 10
37.644625
 20
84.138854
 30
0.0
 10
37.592225
 20
85.461144
 30
0.0
 10
37.541456
 20
86.810110
 30
0.0
 10
37.462600
 20
87.095851
 30
0.0
 10
37.334415
 20
87.215556
 30
0.0
 10
37.120818
 20
87.253921
 30
0.0
 10
36.969313
 20
87.207230
 30
0.0
 10
36.814547
 20
85.404042
 30
0.0
 10
36.734670
 20
84.159970
 30
0.0
 10
36.609279
 20
83.550356
 30
0.0
 10
35.488303
 20
83.436064
 30
0.0
 10
33.218825
 20
83.419074
 30
0.0
 10
30.939530
 20
83.486692
 30
0.0
 10
29.789102
 20
83.626259
 30
0.0
 10
29.624722
 20
84.155985
 30
0.0
 10
29.572880
 20
85.446085
 30
0.0
 10
29.543577
 20
86.432519
 30
0.0
 10
29.451423
 20
87.032106
 30
0.0
 10
29.290049
 20
87.265772
 30
0.0
 10
29.053095
 20
87.154432
 30
0.0
 10
28.926654
 20
86.576416
 30
0.0
 10
28.842470
 20
85.406526
 30
0.0
 10
28.669561
 20
83.622898
 30
0.0
 10
28.330287
 20
83.528086
 30
0.0
 10
27.546098
 20
83.462393
 30
0.0
 10
25.232242
 20
83.416162
 30
0.0
 10
22.906531
 20
83.479780
 30
0.0
 10
22.107524
 20
83.551406
 30
0.0
 10
21.747506
 20
83.648834
 30
0.0
 10
21.605453
 20
84.290952
 30
0.0
 10
21.518212
 20
85.528367
 30
0.0
 10
21.430203
 20
86.863015
 30
0.0
 10
21.346129
 20
87.119112
 30
0.0
 10
21.219399
 20
87.189704
 30
0.0
 10
21.091866
 20
87.113149
 30
0.0
 10
21.008173
 20
86.831011
 30
0.0
 10
20.921790
 20
85.335152
 30
0.0
 10
20.908652
 20
84.393839
 30
0.0
 10
20.960977
 20
83.686497
 30
0.0
 10
21.135087
 20
83.181206
 30
0.0
 10
21.487306
 20
82.846042
 30
0.0
 10
22.073958
 20
82.649085
 30
0.0
 10
22.951367
 20
82.558412
 30
0.0
 10
25.803750
 20
82.568234
 30
0.0
 10
27.898912
 20
82.654611
 30
0.0
 10
28.943053
 20
82.782951
 30
0.0
 10
28.943053
 20
82.782855
 30
0.0
  0
LWPOLYLINE
  5
167
100
AcDbEntity
  8
0
 62
1
100
AcDbPolyline
 90
32
 70
0
 10
52.695434
 20
83.149809
 30
0.0
 10
52.885460
 20
83.483122
 30
0.0
 10
52.998168
 20
83.987476
 30
0.0
 10
53.099179
 20
86.365901
 30
0.0
 10
53.152172
 20
89.110924
 30
0.0
 10
61.650478
 20
89.110924
 30
0.0
 10
70.148785
 20
89.110924
 30
0.0
 10
70.201552
 20
86.255902
 30
0.0
 10
70.254322
 20
83.400877
 30
0.0
 10
70.723079
 20
82.998044
 30
0.0
 10
71.202126
 20
82.701039
 30
0.0
 10
71.695199
 20
82.604863
 30
0.0
 10
72.173848
 20
82.709269
 30
0.0
 10
72.609613
 20
83.014018
 30
0.0
 10
73.028411
 20
83.432816
 30
0.0
 10
72.977910
 20
87.289044
 30
0.0
 10
72.927406
 20
91.145263
 30
0.0
 10
72.458647
 20
91.548192
 30
0.0
 10
71.989890
 20
91.951115
 30
0.0
 10
61.628036
 20
91.951115
 30
0.0
 10
51.266182
 20
91.951115
 30
0.0
 10
50.769064
 20
91.453997
 30
0.0
 10
50.271947
 20
90.956880
 30
0.0
 10
50.322451
 20
87.095154
 30
0.0
 10
50.417407
 20
83.676760
 30
0.0
 10
50.543134
 20
83.156088
 30
0.0
 10
50.777723
 20
82.905958
 30
0.0
 10
51.260800
 20
82.659315
 30
0.0
 10
51.786995
 20
82.623538
 30
0.0
 10
52.287968
 20
82.789933
 30
0.0
 10
52.695361
 20
83.149812
 30
0.0
 10
52.695434
 20
83.149809
 30
0.0
  0
LWPOLYLINE
  5
168
100
AcDbEntity
  8
0
 62
1
100
AcDbPolyline
 90
48
 70
0
 10
58.768303
 20
82.736932
 30
0.0
 10
64.699274
 20
82.734110
 30
0.0
 10
66.996484
 20
82.708286
 30
0.0
 10
68.639587
 20
82.731118
 30
0.0
 10
68.873502
 20
82.827511
 30
0.0
 10
68.917785
 20
83.012559
 30
0.0
 10
68.872491
 20
83.196726
 30
0.0
 10
68.650992
 20
83.303137
 30
0.0
 10
67.165625
 20
83.394752
 30
0.0
 10
65.878475
 20
83.478149
 30
0.0
 10
65.244321
 20
83.611169
 30
0.0
 10
65.100329
 20
84.255423
 30
0.0
 10
64.991651
 20
85.567951
 30
0.0
 10
64.875065
 20
87.002605
 30
0.0
 10
64.785448
 20
87.279592
 30
0.0
 10
64.657508
 20
87.356362
 30
0.0
 10
64.530406
 20
87.283185
 30
0.0
 10
64.446459
 20
87.015839
 30
0.0
 10
64.358939
 20
85.611780
 30
0.0
 10
64.271795
 20
84.315488
 30
0.0
 10
64.129648
 20
83.648713
 30
0.0
 10
63.930498
 20
83.547454
 30
0.0
 10
63.504356
 20
83.479806
 30
0.0
 10
61.810532
 20
83.430228
 30
0.0
 10
59.408477
 20
83.531639
 30
0.0
 10
59.275539
 20
83.652402
 30
0.0
 10
59.194879
 20
83.942594
 30
0.0
 10
59.144212
 20
85.348947
 30
0.0
 10
59.090723
 20
86.760659
 30
0.0
 10
59.009970
 20
87.099165
 30
0.0
 10
58.880871
 20
87.283399
 30
0.0
 10
58.611241
 20
87.391705
 30
0.0
 10
58.436272
 20
87.150363
 30
0.0
 10
58.341236
 20
86.511369
 30
0.0
 10
58.311417
 20
85.426710
 30
0.0
 10
58.257089
 20
84.195914
 30
0.0
 10
58.108380
 20
83.630707
 30
0.0
 10
57.521183
 20
83.481826
 30
0.0
 10
56.204955
 20
83.430228
 30
0.0
 10
54.808034
 20
83.379439
 30
0.0
 10
54.520261
 20
83.298368
 30
0.0
 10
54.400057
 20
83.164549
 30
0.0
 10
54.358672
 20
82.853713
 30
0.0
 10
54.610168
 20
82.684549
 30
0.0
 10
55.267915
 20
82.629047
 30
0.0
 10
56.445276
 20
82.659194
 30
0.0
 10
58.768303
 20
82.736602
 30
0.0
 10
58.768303
 20
82.736884
 30
0.0
  0
LWPOLYLINE
  5
169
100
AcDbEntity
  8
0
 62
1
100
AcDbPolyline
 90
20
 70
0
 10
82.829258
 20
82.734626
 30
0.0
 10
82.929359
 20
83.001041
 30
0.0
 10
82.987218
 20
83.732304
 30
0.0
 10
82.996333
 20
87.117645
 30
0.0
 10
82.951663
 20
91.366249
 30
0.0
 10
78.795608
 20
91.410978
 30
0.0
 10
75.566224
 20
91.400197
 30
0.0
 10
74.752004
 20
91.349000
 30
0.0
 10
74.410038
 20
91.265222
 30
0.0
 10
74.297093
 20
90.997952
 30
0.0
 10
74.226755
 20
90.323963
 30
0.0
 10
74.180507
 20
87.158070
 30
0.0
 10
74.227568
 20
84.219174
 30
0.0
 10
74.353458
 20
82.918248
 30
0.0
 10
74.543064
 20
82.738744
 30
0.0
 10
75.087806
 20
82.642311
 30
0.0
 10
78.571961
 20
82.597650
 30
0.0
 10
81.491344
 20
82.638837
 30
0.0
 10
82.829289
 20
82.734626
 30
0.0
 10
82.829261
 20
82.734632
 30
0.0
  0
LWPOLYLINE
  5
16a
100
AcDbEntity
  8
0
 62
1
100
AcDbPolyline
 90
19
 70
0
 10
183.043058
 20
83.998482
 30
0.0
 10
183.507373
 20
84.602647
 30
0.0
 10
183.611096
 20
85.332403
 30
0.0
 10
183.514420
 20
86.050633
 30
0.0
 10
183.136031
 20
86.629981
 30
0.0
 10
182.608241
 20
87.064920
 30
0.0
 10
181.896175
 20
87.161668
 30
0.0
 10
181.043045
 20
87.034801
 30
0.0
 10
180.706258
 20
86.876810
 30
0.0
 10
180.429839
 20
86.656307
 30
0.0
 10
180.059645
 20
86.029351
 30
0.0
 10
179.935560
 20
85.157098
 30
0.0
 10
180.089665
 20
84.512293
 30
0.0
 10
180.499649
 20
83.960427
 30
0.0
 10
181.087033
 20
83.575231
 30
0.0
 10
181.773324
 20
83.430445
 30
0.0
 10
182.449277
 20
83.539837
 30
0.0
 10
183.043058
 20
83.998482
 30
0.0
 10
183.043058
 20
83.998482
 30
0.0
  0
LWPOLYLINE
  5
16b
100
AcDbEntity
  8
0
 62
1
100
AcDbPolyline
 90
23
 70
0
 10
119.077829
 20
86.476760
 30
0.0
 10
120.407096
 20
87.878090
 30
0.0
 10
120.959978
 20
88.611726
 30
0.0
 10
120.648083
 20
89.104706
 30
0.0
 10
119.909674
 20
89.890636
 30
0.0
 10
119.040652
 20
90.679599
 30
0.0
 10
118.336928
 20
91.181676
 30
0.0
 10
117.885579
 20
91.350518
 30
0.0
 10
117.401494
 20
91.429041
 30
0.0
 10
116.400246
 20
91.332083
 30
0.0
 10
115.463457
 20
90.924701
 30
0.0
 10
115.059944
 20
90.615196
 30
0.0
 10
114.721393
 20
90.240798
 30
0.0
 10
114.435911
 20
89.609836
 30
0.0
 10
114.302291
 20
88.792803
 30
0.0
 10
114.331043
 20
87.955472
 30
0.0
 10
114.532674
 20
87.263627
 30
0.0
 10
115.015429
 20
86.619091
 30
0.0
 10
115.822435
 20
85.728823
 30
0.0
 10
116.621559
 20
84.940038
 30
0.0
 10
117.080670
 20
84.599951
 30
0.0
 10
119.077829
 20
86.476760
 30
0.0
 10
119.077829
 20
86.476760
 30
0.0
  0
LWPOLYLINE
  5
16c
100
AcDbEntity
  8
0
 62
1
100
AcDbPolyline
 90
24
 70
0
 10
132.780156
 20
85.988290
 30
0.0
 10
133.551170
 20
86.854184
 30
0.0
 10
133.988721
 20
87.572621
 30
0.0
 10
134.153892
 20
88.288999
 30
0.0
 10
134.107760
 20
89.148719
 30
0.0
 10
133.957129
 20
89.761406
 30
0.0
 10
133.674619
 20
90.272725
 30
0.0
 10
133.244600
 20
90.703337
 30
0.0
 10
132.651440
 20
91.073903
 30
0.0
 10
132.041069
 20
91.314701
 30
0.0
 10
131.412981
 20
91.430903
 30
0.0
 10
130.797132
 20
91.419981
 30
0.0
 10
130.223485
 20
91.279378
 30
0.0
 10
129.548491
 20
90.819421
 30
0.0
 10
128.631232
 20
89.997810
 30
0.0
 10
127.823148
 20
89.153816
 30
0.0
 10
127.475690
 20
88.626721
 30
0.0
 10
128.029272
 20
87.877912
 30
0.0
 10
129.273011
 20
86.567337
 30
0.0
 10
130.581416
 20
85.321529
 30
0.0
 10
131.328980
 20
84.767030
 30
0.0
 10
131.865394
 20
85.125777
 30
0.0
 10
132.780156
 20
85.988298
 30
0.0
 10
132.780156
 20
85.988298
 30
0.0
  0
LWPOLYLINE
  5
16d
100
AcDbEntity
  8
0
 62
1
100
AcDbPolyline
 90
12
 70
0
 10
99.658595
 20
88.776702
 30
0.0
 10
99.658595
 20
91.366283
 30
0.0
 10
97.152555
 20
91.366283
 30
0.0
 10
94.646509
 20
91.366283
 30
0.0
 10
94.599971
 20
88.951454
 30
0.0
 10
94.638186
 20
86.315623
 30
0.0
 10
94.794145
 20
86.210484
 30
0.0
 10
95.217159
 20
86.150037
 30
0.0
 10
97.190796
 20
86.140865
 30
0.0
 10
99.658589
 20
86.187124
 30
0.0
 10
99.658589
 20
88.776702
 30
0.0
 10
99.658595
 20
88.776696
 30
0.0
  0
LWPOLYLINE
  5
16e
100
AcDbEntity
  8
0
 62
1
100
AcDbPolyline
 90
26
 70
0
 10
40.128104
 20
88.593991
 30
0.0
 10
43.370679
 20
88.619194
 30
0.0
 10
44.990533
 20
88.760505
 30
0.0
 10
45.367681
 20
88.918039
 30
0.0
 10
45.550039
 20
89.156607
 30
0.0
 10
45.607903
 20
89.493541
 30
0.0
 10
45.611572
 20
89.946180
 30
0.0
 10
45.562287
 20
90.512244
 30
0.0
 10
45.406080
 20
90.925040
 30
0.0
 10
45.130417
 20
91.204651
 30
0.0
 10
44.722772
 20
91.371171
 30
0.0
 10
32.898101
 20
91.413180
 30
0.0
 10
23.583718
 20
91.331267
 30
0.0
 10
21.766860
 20
91.254190
 30
0.0
 10
21.161458
 20
91.136974
 30
0.0
 10
20.948743
 20
90.736871
 30
0.0
 10
20.885265
 20
89.935190
 30
0.0
 10
20.883967
 20
89.417739
 30
0.0
 10
20.947869
 20
89.035836
 30
0.0
 10
21.178733
 20
88.770188
 30
0.0
 10
21.678309
 20
88.601504
 30
0.0
 10
22.548346
 20
88.510485
 30
0.0
 10
23.890595
 20
88.477843
 30
0.0
 10
28.398724
 20
88.510510
 30
0.0
 10
40.128119
 20
88.593977
 30
0.0
 10
40.128119
 20
88.593989
 30
0.0
  0
LWPOLYLINE
  5
16f
100
AcDbEntity
  8
0
 62
1
100
AcDbPolyline
 90
22
 70
0
 10
182.667831
 20
89.186387
 30
0.0
 10
183.003559
 20
89.652895
 30
0.0
 10
183.121466
 20
90.186995
 30
0.0
 10
183.020552
 20
90.725895
 30
0.0
 10
182.699821
 20
91.206796
 30
0.0
 10
182.354491
 20
91.462746
 30
0.0
 10
181.981678
 20
91.589267
 30
0.0
 10
181.604048
 20
91.596463
 30
0.0
 10
181.244262
 20
91.494468
 30
0.0
 10
180.924981
 20
91.293390
 30
0.0
 10
180.668865
 20
91.003339
 30
0.0
 10
180.498578
 20
90.634430
 30
0.0
 10
180.436779
 20
90.196776
 30
0.0
 10
180.495651
 20
89.761827
 30
0.0
 10
180.658550
 20
89.396417
 30
0.0
 10
180.904887
 20
89.109874
 30
0.0
 10
181.214087
 20
88.911517
 30
0.0
 10
181.565564
 20
88.810667
 30
0.0
 10
181.938735
 20
88.816651
 30
0.0
 10
182.313018
 20
88.938779
 30
0.0
 10
182.667831
 20
89.186381
 30
0.0
 10
182.667831
 20
89.186381
 30
0.0
  0
ENDSEC
  0
SECTION
  2
OBJECTS
  0
DICTIONARY
  5
C
330
0
100
AcDbDictionary
  3
ACAD_GROUP
350
D
  3
ACAD_MLINESTYLE
350
17
  0
DICTIONARY
  5
D
330
C
100
AcDbDictionary
  0
DICTIONARY
  5
1A
330
C
100
AcDbDictionary
  0
DICTIONARY
  5
17
330
C
100
AcDbDictionary
  3
STANDARD
350
18
  0
DICTIONARY
  5
19
330
C
100
AcDbDictionary
  0
ENDSEC
  0
EOF
