<?xml version="1.0" encoding="UTF-8" standalone="no"?>
<!-- Created with Inkscape (http://www.inkscape.org/) -->

<svg
   xmlns:dc="http://purl.org/dc/elements/1.1/"
   xmlns:cc="http://creativecommons.org/ns#"
   xmlns:rdf="http://www.w3.org/1999/02/22-rdf-syntax-ns#"
   xmlns:svg="http://www.w3.org/2000/svg"
   xmlns="http://www.w3.org/2000/svg"
   xmlns:sodipodi="http://sodipodi.sourceforge.net/DTD/sodipodi-0.dtd"
   xmlns:inkscape="http://www.inkscape.org/namespaces/inkscape"
   id="svg7943"
   version="1.1"
   inkscape:version="0.91 r13725"
   width="210mm"
   height="200mm"
   viewBox="0 0 744.09447 708.66141"
   sodipodi:docname="rotringfurnituretemp1to100_3_1.svg">
  <sodipodi:namedview
     pagecolor="#ffffff"
     bordercolor="#666666"
     borderopacity="1"
     objecttolerance="10"
     gridtolerance="10"
     guidetolerance="10"
     inkscape:pageopacity="0"
     inkscape:pageshadow="2"
     inkscape:window-width="1360"
     inkscape:window-height="746"
     id="namedview7945"
     showgrid="false"
     units="mm"
     inkscape:zoom="0.81515071"
     inkscape:cx="413.21587"
     inkscape:cy="95.034115"
     inkscape:window-x="1432"
     inkscape:window-y="-8"
     inkscape:window-maximized="1"
     inkscape:current-layer="svg7943" />
  <metadata
     id="metadata7949">
    <rdf:RDF>
      <cc:Work
         rdf:about="">
        <dc:format>image/svg+xml</dc:format>
        <dc:type
           rdf:resource="http://purl.org/dc/dcmitype/StillImage" />
        <dc:title></dc:title>
      </cc:Work>
    </rdf:RDF>
  </metadata>
  <defs
     id="defs7947" />
  <path
     id="path8495"
     style="fill:none;stroke:#ff0000"
     d="m 19.440643,686.7033 -1.477526,-1.33235 -1.334374,-1.8349 -1.232437,-2.19283 0,-161.54025 0,-161.54025 1.538415,-2.26398 0.840733,-1.401 1.311937,-1.03065 3.242981,-0.72172 6.633868,-0.47423 29.279759,-0.45166 60.361401,-0.1988 291.93692,-0.55621 233.35529,-0.34455 37.41025,-0.0724 2.12277,1.31194 1.83645,1.58766 1.43448,1.97482 0.3734,1.17861 0.28774,3.08414 0.38613,19.09819 0.48831,140.40959 0.38751,161.52003 -1.40601,2.02044 -1.60166,1.72775 -1.87632,1.31678 -2.06536,0.32278 -6.88446,0.25272 -41.15042,0.34825 -282.29601,0.43847 -280.143255,0.13774 -42.310836,-0.24983 -7.317825,-0.22491 -2.131851,-0.29933 0,-6e-5 m 54.443194,-39.94805 0.470917,-3.59138 0.251802,-7.30868 -0.02179,-7.51475 -0.349875,-4.20956 -0.735386,-0.49365 -2.414028,-0.28329 -13.954642,-0.15945 -13.954644,0.15948 -2.414028,0.28329 -0.735387,0.49362 -0.303262,3.82871 -0.04346,7.04267 0.184399,7.06104 0.380331,3.88383 0.577328,1.5185 16.17568,0 12.67075,-0.16102 3.016609,-0.21992 1.198696,-0.32944 0,0 m 73.919193,0.24469 0.31957,-1.12844 0.25881,-2.62268 0.30221,-7.75587 -0.0403,-7.8163 -0.44915,-3.93242 -6.9341,-0.56868 -14.52402,-0.33925 -14.6553,-0.0184 -7.32796,0.39389 -0.63392,0.60656 -0.34427,1.5287 -0.16435,9.26385 0.13417,7.80664 0.30981,3.62736 1.32289,0.97068 7.09359,0.27352 14.3358,0.0867 14.22758,-0.0974 6.76894,-0.27884 0,3.5e-4 m 96.41744,-0.75752 0.27554,-3.67379 0.1146,-7.94628 -0.16595,-8.81787 -0.24551,-1.93368 -0.38771,-0.77144 -8.72966,-0.23093 -18.488,0.0576 -18.50475,0.26198 -8.77987,0.38219 -0.32611,3.64731 -0.12813,7.72768 0.0819,7.76738 0.30395,3.76641 8.82357,0.35571 18.76495,0.0505 18.71559,-0.21175 8.67553,-0.431 7e-5,0 m 74.7264,-10.83567 -0.0402,-8.68351 -0.47622,-3.30406 -1.22071,-0.37322 -2.64188,-0.27253 -7.63888,-0.23656 -7.5984,0.18544 -2.59126,0.25498 -1.14984,0.36529 -0.46704,3.80197 -0.20986,7.28452 0.0784,7.32158 0.3976,3.91317 0.60227,0.69416 1.52633,0.3498 9.90048,0.0307 11.36798,-0.1607 0.16129,-11.17091 2e-5,-8e-5 m 126.16449,11.09446 1.86219,-0.37244 -0.16029,-11.61514 -0.1603,-11.61513 -52.98213,-0.15909 -54.31408,0.15929 -0.76682,0.37118 -0.39578,1.36053 -0.16936,10.02036 0.11591,8.19095 0.27876,3.63734 16.52999,0.28548 36.06487,0.10153 36.44039,-0.0864 17.65657,-0.27831 8e-5,-1.5e-4 m 32.6595,-0.24038 0.61958,-0.5533 0.34465,-1.21461 0.1808,-6.77281 -0.19816,-7.03926 -0.44776,-1.25279 -0.85805,-0.81889 -1.92944,-1.06913 -2.53215,-0.75482 -2.92951,-0.44209 -3.12154,-0.13091 -3.10823,0.17867 -2.88957,0.48668 -2.46557,0.79311 -1.83623,1.09798 -0.84436,0.87722 -0.49718,1.15603 -0.47884,5.25431 -0.1063,4.5496 0.20357,3.16162 0.53313,1.90926 0.88238,0.79251 4.10356,0.2883 7.02275,0.0412 6.82929,-0.17566 3.52318,-0.36232 0,1e-4 m 55.16312,-0.0672 0.53099,-0.48919 0.3151,-0.9809 0.18988,-4.66492 -0.21816,-4.97046 -0.47737,-0.96397 -0.90483,-0.70451 -2.79656,-0.93145 -4.0196,-0.38987 -4.14361,0.17997 -3.16857,0.77806 -1.32352,0.68794 -0.72807,0.73721 -0.35795,1.18532 -0.21311,2.03228 -0.0911,6.0327 0.43993,2.09328 0.50409,0.41178 0.8319,0.19933 8.65762,0.24743 4.56645,-0.16633 2.40646,-0.3237 3e-5,0 m 48.93843,0.30471 1.87617,-0.37523 -0.17433,-3.62062 -0.17413,-3.62064 -8.87969,0 -8.87969,0 -0.17493,3.65127 0.0492,3.03912 0.2977,0.61182 0.54105,0.27624 7.59203,0.33711 7.92657,-0.29921 4e-5,1.4e-4 m 23.82834,-1.18034 1.52146,-1.12888 1.4375,-1.59848 1.08957,-2.26498 0.13287,-3.36775 -0.21199,-5.3278 0.37674,-4.1032 0.0857,-2.4919 -0.9174,-2.53993 -1.31421,-2.12888 -1.56931,-1.51643 -1.90918,-0.96446 -2.33385,-0.47297 -2.65655,0.047 -2.3378,0.67546 -2.00119,1.29584 -1.6467,1.90811 -0.82604,1.37233 -0.42863,1.18508 0.029,3.26097 0.35986,4.87465 -0.33496,4.23737 0.0422,3.37676 1.01514,2.73105 2.00223,2.10795 3.00343,1.50749 1.8111,0.42769 1.82738,0.0309 1.8562,-0.36696 1.89758,-0.76601 -8e-5,0 m 46.66501,-0.47859 2.73709,-1.67779 2.40358,-2.02114 2.05693,-2.35163 1.69719,-2.66927 1.09839,-2.18926 0.60238,-1.80137 0.30041,-5.08668 -0.26379,-4.79924 -1.08621,-3.10334 -1.71257,-2.71733 -2.14827,-2.522 -2.40945,-2.14789 -2.49615,-1.59498 -3.40479,-1.15021 -4.13942,-0.55605 -4.24883,0.074 -3.73305,0.74006 -3.02935,1.4712 -2.94598,2.26748 -2.59099,2.81446 -1.96439,3.11215 -1.36132,3.66939 -0.2819,4.73825 0.28228,4.57387 1.08319,3.20244 1.74721,2.98106 2.09966,2.55393 2.46099,2.13597 2.83122,1.72715 2.1702,1.02785 1.75772,0.52982 5.08829,0.0742 4.52687,-0.43889 2.87286,-0.86626 0,0 m -99.68413,-0.68502 0.6255,-0.3161 0.50198,-0.62522 0.81644,-2.50199 0.38595,-2.46964 -0.0489,-1.57286 -0.78299,-0.97238 -1.39456,-0.73606 -1.82648,-0.49083 -2.07878,-0.23667 -4.19594,0.32488 -1.75788,0.5794 -1.29166,0.86927 -0.53154,0.6846 -0.26841,0.81577 0.12777,2.82905 0.59775,2.72972 0.50697,0.58375 0.78275,0.32739 4.98074,0.44968 4.85125,-0.27174 0,-2e-5 m -466.025164,-2.33498 -0.02875,-0.776 -0.647888,-0.55594 -1.911197,-0.34952 -2.655656,-0.0529 -2.487965,0.21503 -1.408121,0.45417 -0.478736,0.87194 0.574201,0.61649 1.638634,0.36615 2.714565,0.12092 3.504268,-0.19093 0.812191,-0.27991 0.374454,-0.43954 0,0 m 13.655274,-0.4053 0.71104,-2.22519 0.21049,-4.38797 -0.15856,-4.06643 -0.27794,-1.31604 -0.48125,-0.92697 -0.73772,-0.60471 -1.047354,-0.34924 -3.236231,-0.19923 -3.053814,0.17722 -0.988992,0.32398 -0.703825,0.57196 -0.473742,0.88826 -0.298741,1.27285 -0.292812,3.97269 0.01083,4.37966 0.247729,1.44 0.472303,1.02888 0.74415,0.68435 1.06327,0.40639 3.272992,0.24522 3.54444,-0.22878 0.85253,-0.39864 0.621211,-0.68826 0,0 m 66.85388,0.4053 -0.0288,-0.776 -0.64789,-0.55594 -2.77675,-0.30833 -4.85095,-0.10349 -4.70358,0.10191 -2.33464,0.30791 -0.19213,0.56388 0.12483,0.76809 0.78997,0.44427 1.76392,0.31756 5.15106,0.2547 5.15105,-0.25306 1.7639,-0.31715 0.78994,-0.44432 2e-5,-3e-5 m 18.2042,-0.0738 0.61554,-2.47993 0.1965,-4.25435 -0.21803,-4.25455 -0.62811,-2.48049 -0.66185,-0.46242 -1.22861,-0.28732 -5.20886,-0.18818 -4.88931,0.18126 -2.14197,0.52912 -0.52933,2.15116 -0.18103,4.92317 0.18612,5.32904 0.31463,1.09671 0.53521,0.5416 2.49277,0.43144 4.53849,0.18996 4.98726,-0.17721 1.16441,-0.29784 0.65611,-0.49117 6e-5,0 m 74.82585,0.36632 0.0596,-0.68963 -0.3931,-0.79033 -1.65575,-0.55869 -3.12496,-0.29979 -3.50412,0.007 -2.79326,0.36234 -0.86811,0.43721 -0.418,0.62263 0.0771,0.64139 0.61707,0.4935 2.43293,0.29837 3.96866,0.04 3.76876,-0.18563 1.83323,-0.37864 0,0 m 13.17179,-0.30363 0.71818,-0.6642 0.39531,-1.05463 0.20218,-5.31245 -0.12453,-4.31145 -0.24209,-1.36475 -0.43879,-0.94192 -0.69311,-0.59742 -1.00504,-0.3313 -3.17637,-0.17764 -3.19861,0.20109 -1.034,0.36343 -0.7264,0.63131 -0.47076,0.96864 -0.26707,1.37544 -0.13087,4.24911 0.2445,4.96257 0.41437,1.06815 0.73865,0.75501 1.83691,0.80445 2.49909,0.30698 2.52971,-0.2035 1.92874,-0.72698 0,6e-5 m 17.56722,0.23452 0.85965,-0.50772 0.44897,-0.92665 0.19919,-5.59689 -0.18668,-5.19347 -0.27849,-1.24548 -0.44205,-0.65823 -2.12461,-0.57233 -4.36361,-0.24014 -4.19145,0.0905 -1.31589,0.26509 -0.90294,0.50838 -0.57022,0.82425 -0.3177,1.21268 -0.19869,3.88089 0.12196,6.65249 0.44413,1.08018 0.85872,0.50302 2.43859,0.42955 3.6074,0.12529 3.57433,-0.17128 2.33939,-0.46016 0,10e-6 m 35.8426,-0.49694 0.84168,-1.03977 0.27441,-0.97145 -0.29436,-1.05585 -0.86463,-1.29294 -1.03849,-1.03695 -1.06013,-0.44556 -1.1511,0.13613 -1.31142,0.70812 -0.78725,0.79281 -0.41621,0.94777 -0.0759,1.0224 0.23356,1.01667 0.51229,0.93061 0.76024,0.76419 0.97741,0.51744 1.16381,0.19033 1.09093,-0.34779 1.14526,-0.83616 -7e-5,0 m 8.15599,0.26242 0.93448,-1.04545 0.33648,-1.29604 -0.26606,-1.37486 -0.87309,-1.28192 -1.17509,-0.8594 -1.19561,-0.26743 -1.18844,0.32387 -1.15361,0.91451 -0.85939,1.20095 -0.29025,1.15901 0.2788,1.13509 0.84774,1.12917 1.0704,0.81545 1.10097,0.31423 1.16631,-0.185 1.26642,-0.68226 -6e-5,8e-5 m 168.46958,0.45929 0.70051,-6.11349 0.41483,-5.65122 -1.99753,-0.84229 -2.9679,-0.60223 -4.26363,-0.21683 -4.23962,0.17505 -2.89584,0.57341 -1.71385,0.74426 0.33312,5.5834 0.7128,6.19776 2.61277,0.42706 5.34774,0.18513 5.34676,-0.0829 2.60984,-0.37718 0,1.1e-4 m -417.133711,-4.34575 0.58372,-0.98918 -0.478801,-0.71913 -1.523772,-0.43891 -2.551194,-0.14856 -2.694371,0.15853 -1.713204,0.45284 -0.662544,0.71306 0.457612,0.93918 1.591466,0.50311 2.702296,0.17584 2.701053,-0.15561 1.587739,-0.49124 0,7e-5 m 80.541321,-0.0321 0.39174,-0.71604 -0.34574,-0.7639 -0.68171,-0.36291 -1.42308,-0.24267 -5.59547,-0.17811 -5.81151,0.17549 -1.14706,0.28848 -0.45494,0.48374 -0.0142,0.82301 0.47674,0.64788 2.70208,0.43173 4.76707,0.10287 4.68382,-0.2032 2.4523,-0.48647 -6e-5,10e-5 m 93.59032,-0.24321 -0.13742,-1.12772 -0.69148,-0.453 -1.484,-0.29226 -4.27199,-0.13625 -4.22137,0.40485 -1.42072,0.38412 -0.6029,0.49393 0.0181,0.49013 0.31198,0.34746 1.73488,0.40498 6.06357,-0.0282 4.7013,-0.48805 2e-5,0 m 321.27569,-4.1625 0.18647,-2.61348 -0.15146,-3.25057 -0.41643,-3.07509 -0.60847,-2.08701 -1.04188,-1.67251 -1.19888,-1.31641 -1.31629,-0.94972 -1.39411,-0.57242 -1.43236,-0.18452 -1.43103,0.21398 -1.3901,0.62309 -1.30961,1.04278 -1.48582,1.87307 -1.02648,2.23375 -0.60078,2.69639 -0.20871,3.26098 0.0665,3.49139 0.2513,1.05503 0.52565,0.69475 0.89675,0.40958 1.3646,0.19956 4.51975,0.0695 6.79953,0 0.40183,-2.14211 m -495.538668,-0.5219 -0.122777,-0.63152 -0.525283,-0.37875 -3.199802,-0.32635 -2.806534,0.0146 -1.712124,0.31671 -0.640944,0.62815 0.40701,0.94893 0.568621,0.45479 0.876978,0.26648 3.252169,0.0638 3.245242,-0.34324 0.532861,-0.38153 0.124583,-0.63211 0,0 m 80.672658,0.78366 0.39174,-0.71606 -0.34574,-0.7639 -0.66051,-0.36047 -1.35205,-0.2413 -5.2251,-0.17282 -4.37112,0.0999 -2.55123,0.32714 -0.96823,0.61806 0.37789,0.97264 0.6711,0.4612 1.26908,0.28571 5.45108,0.18617 5.09363,-0.17913 2.21955,-0.51714 -9e-5,0 m 93.3692,-1.07965 -0.24949,-0.44791 -0.93312,-0.27089 -5.02506,-0.16916 -5.15134,0.17659 -0.93416,0.30482 -0.31579,0.52389 0.0364,0.51727 0.45228,0.33287 2.75911,0.33381 3.75332,0.0614 2.96339,-0.21757 1.94533,-0.46478 0.69914,-0.6803 0,0 m 66.59762,0 0.83617,-1.18396 0.34778,-1.18396 -0.3357,-1.17404 -0.8445,-1.15217 -1.10944,-0.87703 -1.1305,-0.34863 -1.31025,0.29529 -1.1846,0.76626 -0.85808,1.05785 -0.33067,1.17004 0.32598,1.33376 0.83928,1.22919 1.14462,0.90129 1.24199,0.35006 1.18396,-0.34778 1.18396,-0.83617 0,0 m 8.2877,0 0.82271,-1.06872 0.30783,-1.05459 -0.20638,-1.05424 -0.71992,-1.06769 -0.82496,-0.64066 -0.95745,-0.31903 -2.01342,0.21431 -1.64651,1.16325 -0.49882,0.86716 -0.18288,1.02 0.36884,0.97933 0.91073,1.01936 1.15891,0.80105 1.11341,0.32442 1.18396,-0.34778 1.18395,-0.83617 0,0 m -249.567573,-2.72723 0.661323,-0.58295 0.275062,-0.89701 -0.136633,-0.59693 -0.597708,-0.33834 -3.705501,-0.18535 -3.722666,0.18651 -0.586981,0.34799 -0.130196,0.61992 0.123036,0.60405 0.488715,0.38128 2.792128,0.38269 3.503456,0.32554 1.035965,-0.2474 0,0 m 81.335623,-0.46072 0.36123,-0.53907 -0.0445,-0.73178 -0.48138,-0.43082 -1.24019,-0.26594 -5.94831,-0.17225 -6.23985,0.17106 -0.91461,0.34331 -0.18194,0.63028 0.39508,0.93554 1.23286,0.49216 7.07594,0.11499 3.9253,-0.21729 2.06038,-0.33019 0,0 m 93.34663,-0.95589 -0.24952,-0.44896 -0.90485,-0.29788 -4.71324,-0.31172 -3.55451,-0.009 -2.19287,0.24506 -0.96502,0.53161 0.12904,0.85105 1.82488,0.45397 4.60571,0.0416 4.84096,-0.3092 0.92527,-0.29732 0.25415,-0.44962 0,0 m 339.49997,-22.37877 3.50441,-1.80732 3.10776,-2.45524 2.65205,-2.98944 2.1373,-3.40991 1.56348,-3.71666 0.93062,-3.90969 0.23869,-3.989 -0.51228,-3.95458 -1.47378,-4.30992 -2.23693,-3.83169 -2.88181,-3.27825 -3.40848,-2.64961 -3.81688,-1.94576 -4.10705,-1.16673 -4.27899,-0.31247 -4.33267,0.61697 -3.55372,1.13434 -3.17728,1.48655 -2.80229,1.84028 -2.42876,2.19557 -2.05668,2.55239 -1.68606,2.91075 -1.3169,3.27066 -0.94919,3.6321 -0.35495,3.86913 0.43469,3.85844 1.15993,3.74529 1.82075,3.52968 2.41715,3.21159 2.94914,2.79105 3.41671,2.26803 3.81987,1.64255 3.33127,0.58544 4.11834,0.0313 4.19907,-0.48434 3.57347,-0.96151 0,0 m 50.17968,-4.68379 2.97398,-1.327 2.78152,-1.98467 2.42223,-2.49862 1.89616,-2.86888 0.82431,-1.75036 0.48334,-1.63944 0.28519,-4.67493 -0.22924,-3.8843 -0.81229,-3.03868 -1.58217,-2.63476 -2.53889,-2.67252 -2.14979,-1.714 -2.30343,-1.33724 -2.42452,-0.95569 -2.51308,-0.56935 -2.56911,-0.17822 -2.59261,0.21768 -2.58356,0.61839 -2.54199,1.02386 -3.45251,2.22779 -2.72554,2.85608 -1.96666,3.3288 -1.17586,3.64592 -0.35316,3.80747 0.50148,3.81341 1.38802,3.66379 2.30647,3.35857 1.8946,1.87856 2.06622,1.53934 2.21445,1.19361 2.33928,0.84142 2.44068,0.48273 2.51869,0.11756 2.5733,-0.25409 2.60449,-0.63223 0,0 m -304.30411,-53.33788 -0.0407,-37.56432 -0.28136,-16.89775 -0.45265,-2.18065 -11.6655,-0.16049 -11.66551,-0.16049 0,54.06022 0.15195,42.84568 0.22225,9.01568 0.34849,2.92153 0.93475,0.32804 2.15931,0.19603 8.89352,0.0383 11.26488,-0.16029 0.1306,-52.28143 -2e-5,-8e-5 m 29.83969,-2.18065 -0.31132,-39.5639 -0.45934,-15.24806 -2.52896,-0.29135 -4.99498,-0.14872 -8.50414,0.24086 -1.62794,0.34713 0,53.77464 0.3651,54.72608 0.4966,0.49164 1.36685,0.26547 7.46022,0.0313 8.95857,-0.1631 -0.22066,-54.46208 0,1.2e-4 m 53.06337,54.26477 0.35561,-1.09979 0.20475,-3.14562 0.0316,-14.83684 -0.15668,-18.60709 -18.5108,-0.15648 -18.51077,-0.15648 -0.58054,1.52694 -0.42802,6.10152 -0.14341,11.62389 0.14181,11.62372 0.42762,6.10099 0.57731,1.51847 17.92203,-0.01 12.87731,-0.14562 5.79326,-0.3386 -0.001,9.9e-4 m 90.56942,0.002 0.3571,-1.68316 0.20425,-5.22595 0.0306,-25.49266 -0.15327,-31.929 -14.03298,-0.15869 -11.94137,0.0276 -1.94414,0.29431 -0.64689,0.56607 -0.4595,10.15786 -0.2106,20.93597 0.0733,21.00516 0.39232,10.36546 0.62153,1.62793 13.48217,-0.01 9.74068,-0.145 4.48667,-0.33714 8e-5,0.001 m -379.33697,-1.65815 0.25562,-11.37959 0.0541,-24.6517 -0.12781,-24.78296 -0.29014,-11.77339 -0.29557,-0.32317 -0.8175,-0.24815 -4.57899,-0.31061 -30.58131,-0.15403 -35.847962,0 -0.577328,1.5185 -0.401833,11.81395 -0.164897,24.31387 0.09123,24.17676 0.366562,11.40264 1.433049,0.55469 2.849737,0.33328 36.554538,-0.005 32.07848,-0.48479 0,0 m 332.47865,-2.0174 1.77918,-0.9628 0.55971,-0.79241 0.38436,-1.21375 0.37641,-4.33345 0.0762,-7.94468 0.0181,-12.60676 -1.45303,-1.45303 -1.03327,-0.83801 -1.76826,-0.43159 -10.78613,-0.18344 -7.54566,0.088 -4.58202,0.3392 -2.36976,0.70303 -0.59009,0.52314 -0.31879,0.65635 -0.42707,13.15089 0.0514,10.33835 0.2802,2.17268 0.5133,1.2094 1.09692,1.14635 1.24271,0.62777 4.82781,0.28631 7.92108,0.045 7.67037,-0.16954 4.07569,-0.35741 7.1e-4,3.2e-4 m -245.44299,-1.74083 0.39308,-10.83326 0.1504,-22.77578 -0.10414,-22.99368 -0.37054,-11.48698 -0.41158,-1.47995 -27.16881,-0.15408 -19.33383,0.0371 -8.33154,0.30547 -0.34358,10.5009 -0.12869,24.54951 0.17217,27.38991 0.22841,5.75508 0.35313,1.85965 8.38286,0.3174 19.13033,0.13015 23.09544,-0.15991 3.37376,-0.33483 0.62402,-0.27116 0.28904,-0.35556 7e-5,4e-5 m 65.58379,-33.45893 -0.15929,-35.07475 -0.32291,-1.33196 -16.5347,0 -13.81024,0.16119 -2.43624,0.2865 -0.81824,0.49935 -0.25344,10.8997 -0.0269,23.22021 0.1638,23.35218 0.31868,11.29565 0.8907,0.35699 2.75905,0.20484 13.32765,0.0301 16.73842,-0.15728 0.1637,-33.7428 -4e-5,4e-5 m 260.04968,31.65026 0.64143,-0.77138 0.34012,-2.5593 0.14697,-17.23869 -0.1811,-14.86941 -0.42606,-7.28225 -1.03925,-2.42427 -1.61804,-2.00407 -2.06427,-1.54264 -2.37795,-1.03995 -2.55906,-0.49603 -2.6076,0.0891 -2.52359,0.71554 -2.30702,1.38319 -1.44233,1.21447 -1.08567,1.21811 -0.77748,1.52835 -0.51778,2.14521 -0.45031,7.36742 0.007,13.51417 0.4361,21.16325 3.18438,0.3923 6.67139,0.10028 6.84502,-0.17375 3.70526,-0.42977 0,8e-5 m 96.97386,-31.68366 2.82183,-1.2062 2.53821,-1.83065 2.18497,-2.39282 1.76209,-2.89273 1.26094,-3.41149 0.0335,-4.16871 -0.55503,-3.98589 -1.26847,-3.01009 -2.20459,-2.8876 -2.74095,-2.20845 -3.13103,-1.51099 -3.37487,-0.79525 -3.47245,-0.0612 -3.42377,0.69112 -3.22882,1.46175 -2.88763,2.25067 -1.50105,1.70515 -1.20631,1.81759 -1.55734,3.86861 -0.46515,4.00676 0.56921,3.93718 1.54575,3.65988 2.46444,3.17485 3.32532,2.48209 1.96742,0.91635 2.16095,0.66526 2.24727,0.43326 1.92428,0.10584 4.21123,-0.81428 0,0 m -49.52136,-6.64115 3.06565,-1.77879 2.87883,-2.46151 2.47903,-2.92989 1.86622,-3.18394 1.38983,-3.93399 0.31477,-4.78841 -0.29949,-4.79863 -1.41181,-3.95762 -2.22254,-3.71031 -2.8761,-3.08129 -3.39752,-2.40808 -3.78675,-1.69064 -4.04384,-0.92898 -4.16876,-0.12313 -4.16152,0.72695 -4.02211,1.62124 -2.60766,1.6371 -2.25772,1.91786 -1.90797,2.15799 -1.55839,2.35745 -1.209,2.51627 -0.85979,2.63443 -0.51078,2.71195 -0.16193,2.74881 0.18672,2.74502 0.5352,2.70058 0.88348,2.61549 1.2316,2.48975 1.57951,2.32335 1.92726,2.11632 2.27481,1.86861 2.62218,1.58027 4.25343,1.5056 4.72154,0.55728 4.7912,-0.39771 4.46242,-1.3594 0,0 m -174.90529,-8.1266 0.35678,-0.90434 0.20485,-2.76925 0.0303,-13.3291 -0.15728,-16.73844 -16.83067,-0.15728 -13.41607,0.0319 -2.86834,0.20484 -1.02191,0.3552 -0.34105,5.39105 -0.12512,11.0151 0.0978,11.01316 0.32768,5.38524 0.7419,0.54146 1.17298,0.3465 16.3401,0.037 15.48801,-0.423 1e-5,-1.1e-4 m -363.889441,-2.68306 0.621847,-0.5634 0.344393,-1.27235 0.178803,-7.22152 -0.172894,-6.56212 -0.537482,-2.59273 -0.880787,-0.31947 -1.957147,-0.22103 -7.479415,-0.16988 -7.959257,0.17669 -1.724167,0.28372 -0.853803,0.46984 -0.447969,1.09544 -0.319979,2.05023 -0.255982,5.69174 0.255982,5.69174 0.319979,2.05022 0.447969,1.09544 0.839926,0.46835 1.667532,0.28389 7.595104,0.17802 6.862171,-0.17636 3.455176,-0.43646 0,0 m 105.688681,-1.48475 0.22585,-3.49448 -0.11148,-5.52473 -0.3492,-5.22948 -0.4873,-2.6087 -3.16828,-0.40577 -7.75654,-0.041 -10.31561,0.1625 -0.16474,8.14732 0.0514,6.25021 0.41339,3.07348 0.59751,0.64988 1.46549,0.35257 8.89408,0.17387 10.32753,0 0.37788,-1.50557 0,-8e-5 m 86.36961,-7.96609 0,-9.17567 -10.95162,0 -10.9516,0 0,8.28771 0.12651,6.16153 0.30415,3.17586 0.52643,0.56376 1.49515,0.29492 8.93004,0.0293 10.52094,-0.1617 0,-9.17567 0,-2e-5 m 213.49084,7.74924 0.79756,-0.85056 0.43764,-1.60022 0.34685,-9.6752 0.18457,-10.99551 -1.48955,-1.48955 -1.03474,-0.85846 -1.64175,-0.44251 -9.67843,-0.18858 -8.74652,0.17384 -2.15042,0.24717 -1.06458,0.38053 -0.95197,1.49361 -0.57713,2.94071 -0.22412,4.59303 0.10708,6.45055 0.33597,6.59148 0.46559,1.95732 0.91065,1.26504 1.5407,0.72279 2.35574,0.33055 7.89658,0.0844 9.2661,-0.18268 1.84736,-0.34078 1.0669,-0.60699 -8e-5,0 m 182.43705,-17.85557 2.30784,-1.08411 2.37253,-1.7245 2.52614,-2.98254 1.5353,-3.34824 0.58616,-3.52515 -0.32124,-3.51322 -1.18693,-3.31249 -2.0109,-2.92294 -2.79315,-2.34457 -3.53368,-1.57739 -3.41923,-0.6783 -3.57227,0.46288 -3.45953,1.14185 -2.94007,2.41145 -1.74978,2.05516 -1.30598,2.20003 -0.85943,2.30904 -0.41012,2.38221 0.0419,2.41952 0.49673,2.42099 0.95428,2.3866 1.41458,2.31636 1.30037,1.47405 1.56992,1.24142 1.79263,0.99503 1.96848,0.73484 4.27711,0.63404 2.21493,-0.12836 2.20338,-0.44366 0,0 m -164.47878,-14.02271 2.72331,-4.28595 1.17853,1.62796 3.01701,5.16382 1.20085,1.53156 0.80528,0.55635 1.35007,-1.33374 2.09859,-3.20668 2.63159,-4.54042 1.08843,1.82939 2.70179,4.54042 1.37355,1.91466 1.03678,0.79637 1.31459,-1.31385 2.04146,-3.1588 1.94006,-3.01877 1.07085,-0.9771 2.06309,3.43669 2.39797,3.81146 0.91429,0.91807 0.75316,0.29504 1.22563,-1.33048 2.03649,-3.18862 1.67369,-2.8343 0.57531,-0.68315 0.51468,-0.1754 0.53932,0.34618 0.64927,0.88158 1.96953,3.42464 1.71523,2.71758 0.68118,0.6135 0.65381,0.0931 0.69412,-0.44499 0.80211,-1.00075 2.19895,-3.73944 1.26016,-1.88139 0.95909,-0.78252 1.13027,1.10134 1.67176,2.64791 1.92667,3.13603 0.77084,0.73438 0.73235,0.16319 0.76123,-0.41956 0.8575,-1.01387 2.27334,-3.85694 1.27311,-2.16875 0.48965,-0.49328 0.47429,-0.0756 1.15021,1.17234 1.83194,3.05501 1.4569,2.22493 1.19894,1.2336 0.87695,0.19811 0.49093,-0.88155 -0.7734,-2.10768 -1.96234,-3.75805 -2.20148,-3.70583 -1.49081,-1.95101 -0.75198,-0.0574 -0.90066,0.63789 -2.14647,3.25972 -1.65566,3.08078 -0.59388,0.78304 -0.52943,0.28469 -0.53358,-0.20879 -0.60636,-0.69735 -1.70557,-2.84082 -2.05095,-3.18393 -1.30886,-1.32429 -1.20383,1.05823 -1.79847,2.54425 -2.83806,4.48373 -0.40387,0.25369 -0.54444,-0.37911 -1.94601,-3.14936 -1.53597,-2.56993 -1.24228,-1.52895 -1.01652,-0.55052 -0.8587,0.36535 -2.47603,4.01527 -1.55676,2.43589 -1.06098,1.01316 -1.15314,-1.12966 -1.77835,-2.71599 -1.84847,-2.76955 -1.32171,-1.25842 -0.57272,0.18921 -0.76192,0.76333 -2.1404,3.30909 -1.91556,3.05827 -1.05499,1.11244 -2.57648,-4.08982 -2.73783,-4.18955 -0.76017,-0.0709 -0.93172,0.71748 -2.71715,4.17058 -2.31987,3.79149 -2.64391,-4.11446 -1.70736,-2.76115 -1.14226,-1.4429 -0.8524,-0.37559 -0.83778,0.44081 -1.47764,2.04145 -2.06543,3.60107 -1.83747,3.64596 -0.79377,2.17615 0.0967,0.64982 0.27436,0.29431 0.98722,-0.39974 1.41436,-1.58725 1.6525,-2.61836 0,0 m -192.80841,2.91309 0.35251,-0.7487 0.20551,-1.8983 0.034,-8.44355 -0.1621,-10.61198 -20.42326,0 -20.42326,0 -0.1625,10.33885 0.1294,11.09961 1.04,0.3711 3.22712,0.232 15.7267,0.1486 14.13595,-0.14661 6.31997,-0.34102 0,0 m -168.7281,-5.18408 0.60848,-0.63367 0.44322,-0.94755 0.38405,-2.45594 -0.29683,-2.56904 -0.99093,-1.92052 -0.96633,-0.65389 -1.94991,-0.35489 -11.15953,-0.17517 -9.062263,0.085 -2.775204,0.20361 -1.84618,0.39754 -1.098354,0.65634 -0.531725,0.98005 -0.08835,3.19076 0.385447,3.09355 0.431027,0.72711 0.693292,0.47483 4.275912,0.5022 9.635596,0.20933 10.32109,-0.13327 2.37772,-0.25532 1.20977,-0.42108 0,0 m 111.77283,-1.6e-4 1.50115,-0.9654 0.81238,-0.99393 0.42466,-14.14641 -0.0881,-11.64662 -0.40292,-1.89814 -0.80025,-1.07132 -1.57133,-1.09676 -1.84166,-0.40305 -1.8655,0.29765 -1.64283,1.00536 -0.77344,0.9256 -0.40882,1.53818 -0.18784,8.69287 0,9.86948 -8.32035,0.35585 -9.13646,0.0427 -0.40474,-0.6026 -0.28085,-1.65338 -0.31774,-7.73058 -0.36137,-8.53635 -0.45084,-1.60181 -0.81013,-1.06114 -1.60192,-1.15006 -1.80795,-0.39684 -1.82288,0.35841 -1.64672,1.11569 -1.45306,1.45301 0,13.21472 0.0786,8.38152 0.39525,4.70738 0.39113,1.36353 0.56001,0.91016 1.74627,1.08045 5.13007,0.37259 10.55255,0.1769 12.09025,-0.14633 2.74237,-0.28235 1.57305,-0.47891 0,-7e-5 m -174.078626,-1.94418 1.975256,-1.10897 1.423865,-1.13932 0.709802,-1.15777 -0.514102,-1.14576 -0.501935,-0.62988 -0.405004,-0.19759 -1.30823,0.94283 -2.771326,1.87105 -2.947162,0.77079 -3.031629,-0.33613 -3.02473,-1.44967 -1.960562,-1.13969 -1.088415,-0.30532 -0.409211,0.60147 -0.0143,0.8997 0.344015,0.98833 0.665721,0.86736 2.738336,1.69841 3.325386,0.87922 3.508008,0.008 3.286205,-0.91663 8e-6,4e-5 m 132.526196,-0.81058 0.31663,-4.76608 0.0419,-8.31739 -0.19728,-8.11216 -0.40095,-4.15039 -0.28172,-0.36632 -0.58176,-0.27856 -3.14328,-0.34184 -21.76291,-0.15833 -19.97929,0.15373 -4.12355,0.22734 -1.28606,0.3589 -0.50037,13.27587 6.4e-4,13.0672 1.33122,0.35877 4.21674,0.22735 20.36036,0.15385 25.63272,0 0.35696,-1.33194 m -133.35859,-4.32059 1.753103,-1.28287 1.280083,-1.7701 0.785007,-2.21478 0.267872,-2.61689 -0.06244,-1.77682 -0.290357,-1.24811 -0.668781,-1.0854 -1.197711,-1.2887 -2.097436,-1.61458 -2.242404,-0.90043 -2.268027,-0.22682 -2.174307,0.40624 -1.961241,0.99875 -1.628833,1.55073 -1.177079,2.06216 -0.605982,2.53303 0.09112,2.40086 0.712506,2.16138 1.229621,1.84999 1.642464,1.4667 1.951035,1.0115 2.155331,0.48438 2.255355,-0.11464 2.251105,-0.78558 0,0 m 30.082215,-0.49921 0.470456,-2.3716 0.04601,-5.45065 -0.353455,-6.2152 -0.498965,-1.05009 -0.930354,-0.63852 -1.560784,-0.5803 -1.307349,0.92748 -0.668216,0.86905 -0.386442,1.26067 -0.258179,5.65718 0.13758,5.21909 0.583112,2.25597 1.014863,0.66449 1.362962,0.24685 1.355695,-0.17959 0.993066,-0.61479 0,-4e-5 m 42.337365,-0.10633 0.45327,-0.98602 0.32036,-1.74993 0.24523,-4.78277 -0.27657,-4.81206 -0.3319,-1.78652 -0.45989,-1.03727 -0.96405,-0.77075 -1.00423,-0.2651 -0.991,0.2412 -0.92433,0.74815 -0.81346,2.48563 -0.44576,4.21353 4.8e-4,4.41887 0.52524,3.10163 0.88314,1.29047 1.18137,0.61672 1.31575,-0.0915 1.28632,-0.83416 3e-5,-1.2e-4 m 350.07293,-10.51311 0.17112,-5.13204 3.82483,0 3.82481,0 0,4.66334 0.19805,3.7563 0.66399,1.62247 0.99136,0.47792 0.6474,-0.60296 0.35249,-1.80175 0.1066,-3.11844 0,-4.99688 3.84786,0 3.84788,0 0,4.61744 0.11798,2.92366 0.3753,1.8572 0.66468,0.87492 0.98609,-0.0232 0.38206,-0.40613 0.25215,-0.94333 0.18163,-3.9321 0,-4.96847 3.84786,0 3.84786,0 0,4.61744 0.11798,2.92366 0.37531,1.8572 0.66469,0.87492 0.98609,-0.0232 0.38205,-0.40613 0.25215,-0.94333 0.18162,-3.9321 0,-4.96847 3.84786,0 3.84788,0 0,5.03181 0.19178,4.38065 0.44021,0.56423 0.84795,0.087 0.84825,-0.087 0.44018,-0.56423 0.19153,-4.38065 0,-5.03181 3.84786,0 3.84785,0 0,4.66334 0.19806,3.7563 0.66399,1.62247 1.01547,0.4832 0.64473,-0.70199 0.33909,-2.07069 0.0986,-3.62289 -0.19218,-4.97895 -0.34487,-0.98529 -0.60375,-0.51033 -7.55781,-0.41195 -20.00697,-0.0267 -21.69503,0.29795 -4.00938,0.28706 -1.26472,0.44868 -0.45967,2.40041 -0.10641,3.98199 0.22082,3.79348 0.522,1.83488 0.97696,0.16323 0.60676,-0.63381 0.33864,-1.68075 0.17261,-2.97759 -1.4e-4,0 m 73.49462,-0.24822 2.76657,-5.91232 0.0725,-1.06375 -0.65895,-0.27567 -0.74008,0.18521 -0.80147,0.83238 -2.98244,5.26674 -1.4068,2.93659 -0.67333,2.10731 0.0616,1.27016 0.79792,0.42514 1.28665,-1.69546 2.27782,-4.07633 0,0 m 7.63662,-1.10427 -0.49781,-5.33793 -0.55161,-0.72439 -0.90213,0.11914 -0.45435,0.42488 -0.27939,1.01553 -0.17976,4.79916 0.10247,3.63824 0.3602,2.04349 0.3015,0.48678 0.39564,0.16375 1.11326,-0.54066 0.36168,-0.57871 0.21089,-1.12187 0.0194,-4.38741 0,0 m 8.38254,5.82821 -1.11363,-4.58785 -1.4912,-5.7599 -0.5735,-1.22683 -0.97683,-0.4011 -0.82818,0.1884 -0.34446,0.45295 2.66829,11.05024 0.53045,0.48584 0.90144,0.23935 0.85037,-0.0522 0.37725,-0.38888 0,0 m 5.30142,-4.42796 1.58562,-5.9227 -0.085,-0.85733 -0.59827,-0.5514 -0.79811,-0.0994 -0.68446,0.49874 -1.66064,5.49456 -1.28463,5.70795 0.32873,0.43321 0.79034,0.18019 0.61091,-0.20891 0.54141,-0.75517 1.25408,-3.91976 0,0 m 6.47826,2.66391 2.01285,-8.24008 0.0146,-1.26144 -0.44814,-0.62834 -0.74176,-0.35706 -0.69359,0.74039 -1.81692,5.87785 -1.13832,5.25583 0.2627,0.71076 0.80982,0.12202 1.0285,-0.50457 0.71031,-1.71536 -8e-5,0 m 8.25509,-3.65178 -0.49435,-5.69889 -0.55143,-0.77091 -0.90811,0.11424 -0.45464,0.42646 -0.27935,1.02205 -0.17949,4.84039 0,5.93837 1.53541,0 1.53542,0 -0.20346,-5.87171 m 8.05187,5.33209 -0.2088,-2.06501 -0.93099,-3.94051 -1.16321,-3.96618 -0.90548,-2.142 -0.63222,-0.28579 -0.68528,0.38931 -0.29211,0.55916 -0.0389,0.95895 0.73171,3.78011 1.58378,5.91967 0.51105,0.83057 0.70641,0.44397 0.73307,0.005 0.59102,-0.48699 0,-4e-5 m 5.07338,-1.9763 1.52523,-5.64404 0.48029,-2.03689 0.0622,-1.31621 -0.37313,-0.70755 -0.82568,-0.21095 -0.81829,1.02844 -1.06047,2.58485 -1.0389,3.39052 -0.75356,3.44547 -0.049,1.63587 0.33023,0.27845 0.63567,0.068 0.62948,-0.11859 0.48543,-0.40731 0.7705,-1.99002 0,0 m 8.27852,-3.05946 -0.29308,-5.97313 -0.45287,-1.15464 -0.73399,-0.32038 -0.734,0.32038 -0.45287,1.15464 -0.29309,5.97313 0.18724,4.86984 0.43965,0.61519 0.85307,0.0904 0.85302,-0.0903 0.43964,-0.61517 0.18728,-4.86987 0,0 m -517.389683,-1.03776 0.113047,-4.90409 0.405315,-1.46213 0.872514,-0.94915 1.515717,-0.54637 2.33492,-0.25381 7.83149,-0.0708 9.22228,0.17278 1.92057,0.28324 0.90097,0.47425 0.4523,0.73991 0.28567,1.28309 0.19229,5.12414 0.16793,5.17697 0.31235,0.76428 0.55568,0.0772 0.54743,-0.32823 0.33727,-0.98399 0.31813,-5.48398 -0.0655,-5.8902 -0.41284,-1.30339 -0.80201,-1.08704 -1.4472,-1.68288 -10.26326,-0.14183 -10.27489,0.006 -3.141965,0.32674 -2.094682,0.70313 -1.259677,1.19998 -0.636949,1.81725 -0.226499,2.55496 -0.02833,3.41311 0.173052,5.97011 0.35462,0.85726 0.656286,0.16475 0.651738,-0.14958 0.355125,-0.75106 0.177095,-5.12052 0,-8e-5 m 554.152463,2.00497 1.93322,-1.25911 1.6102,-1.55798 1.26754,-1.8005 0.90527,-1.98666 0.52337,-2.11646 0.12185,-2.1899 -0.2993,-2.20698 -0.74007,-2.1677 -1.5606,-2.60354 -2.00158,-2.04716 -2.33829,-1.46875 -2.57072,-0.86829 -2.6989,-0.24579 -2.7228,0.39877 -2.64243,1.06535 -2.4578,1.754 -1.58491,1.84003 -1.32254,2.29392 -0.90509,2.41966 -0.33255,2.21726 0.57501,3.30401 1.56528,3.15943 2.34298,2.69624 2.90806,1.9144 2.56074,0.84818 2.5519,0.19406 2.60178,-0.46312 2.71038,-1.12337 0,0 m -355.77651,-11.93913 1.74781,-1.74784 -0.1655,-26.94245 -0.30161,-22.98334 -0.33816,-3.73479 -0.5816,-1.28098 -0.97976,-0.5676 -2.13873,-0.34316 -11.41407,-0.32399 -13.47662,-0.17814 -1.59886,1.48176 -1.21058,1.66854 -0.43075,1.89805 0.35346,1.91201 1.14202,1.71042 1.00749,0.82848 1.54722,0.43265 8.69288,0.19191 9.79455,0 0,19.83129 0,19.8313 -9.32367,0.002 -8.07927,0.19911 -1.85286,0.35487 -1.31545,0.62128 -1.49416,1.28051 -0.49992,1.52917 0.18764,2.89803 0.51072,0.9152 0.91517,0.93132 1.09331,0.7549 1.9501,0.3971 11.47517,0.17994 13.03607,0 1.74784,-1.74784 1.2e-4,2.9e-4 m -245.632895,-0.41585 0.599434,-1.21271 0.324327,-3.76098 0.158815,-24.21088 -0.155451,-22.1883 -0.219225,-4.95812 -0.335699,-1.7688 -1.51736,-0.51881 -2.508098,-0.17294 -2.508097,0.17294 -1.51736,0.51881 -0.335718,1.77154 -0.219222,4.96752 -0.155434,22.23436 0,28.26302 1.315678,0.92154 1.645692,0.67976 2.027827,0.21441 1.95942,-0.24722 1.440471,-0.70515 0,1e-5 m 19.199154,0.36447 1.776146,-0.96022 0.559585,-0.78447 0.38483,-1.1958 0.378096,-4.2508 0.07719,-7.77183 -0.15564,-9.4089 -0.472356,-4.12217 -0.350832,-1.08007 0.350832,-0.77535 0.483602,-3.65706 0.163218,-9.56591 -0.11872,-9.4223 -0.364463,-2.82806 -0.75992,-1.84372 -1.299418,-1.06267 -1.982958,-0.48491 -6.592704,-0.0497 -3.984728,0.2628 -0.884181,0.30459 -0.397171,0.46959 -0.0046,0.9651 1.024755,0.61373 2.274623,0.32509 3.744997,0.0992 4.916345,0.20327 0.960291,0.36274 0.515644,0.64137 0.4918,4.13927 0.07706,7.47113 -0.289051,7.39308 -0.606527,3.90514 -0.614196,0.53552 -1.082948,0.32885 -4.768936,0.24261 -3.707438,0.15089 -2.189169,0.39879 -0.805675,0.69596 0.443044,1.04239 0.640472,0.44202 1.174465,0.2806 4.769307,0.19044 5.023361,0.19735 0.953675,0.38051 0.526571,0.68736 0.457876,3.52518 0.0014,8.23009 -0.233909,7.31443 -0.248057,2.23403 -0.427688,1.4825 -0.676494,0.87889 -0.994471,0.42321 -3.219568,0.0711 -6.835255,0.0157 -1.186726,0.40161 -0.29613,0.7477 0.217368,0.88903 0.522605,0.54417 2.335517,0.28904 3.900333,0.0412 3.942601,-0.1797 2.462322,-0.37375 0,0 m 351.091801,-2.3761 2.66972,-1.7971 3.3467,-3.10909 2.77754,-3.14792 0.78593,-1.19067 0.17634,-0.72295 -2.27955,-2.67292 -4.48606,-4.42924 -4.54905,-4.15015 -2.46854,-1.8357 -1.86364,1.22641 -2.9885,2.84886 -2.90499,3.22578 -1.61308,2.35717 -0.52372,2.04619 -0.0838,2.07135 0.32668,2.03468 0.70773,1.93621 1.05938,1.77594 1.38159,1.55385 1.67438,1.26995 1.93774,0.92425 3.38649,0.34036 3.53072,-0.55526 0,0 m 52.68117,-1.48807 1.62234,-1.56295 1.17151,-1.86087 0.71044,-2.137 0.23909,-2.39132 -0.26502,-2.51037 -0.92995,-2.32308 -1.79718,-2.49307 -2.86672,-3.02034 -4.21103,-4.13107 -6.80462,6.78533 -4.80579,5.03261 -1.99886,2.57134 1.35426,1.99134 3.10154,3.21565 3.40702,3.05158 2.27065,1.49915 2.59073,0.24893 2.72034,-0.24225 2.51538,-0.67483 1.97587,-1.04878 0,0 m -118.5003,-7.65615 0,-8.87969 -8.99264,-0.1633 -8.99263,-0.1633 -0.18296,6.97098 0.002,9.20612 0.18457,2.23516 8.99105,-0.1633 8.99085,-0.1633 0,-8.87969 -2.4e-4,3.2e-4 m 240.70235,0.7705 0.30624,-1.69072 0.14227,-3.95038 -0.18341,-16.69835 -0.7106,-21.48978 -4.40512,-0.3098 -9.51834,-0.12504 -9.82369,0.0727 -5.32116,0.2835 -1.33197,0.35696 0,21.48977 0.35935,22.42616 0.67785,0.49187 2.15021,0.28348 12.24656,0.16102 12.90471,-0.16793 1.85484,-0.38701 0.65226,-0.74647 0,-2e-5 m 28.00772,0.94211 0.28128,-0.32916 0.21922,-0.94021 0.28253,-4.87969 0.15336,-29.91939 -0.15528,-29.57101 -0.26724,-5.31652 -0.45864,-1.70274 -1.38209,-0.45599 -3.94685,-0.27136 -21.16213,-0.17973 -27.25192,0.29703 -1.64203,0.32295 0.1621,9.86551 0.16209,9.86552 17.61138,0.15689 17.61136,0.15688 0,25.91987 0.15613,20.38002 0.21931,4.58928 0.33494,1.66096 3.03894,0.46926 6.09282,0.24992 6.29506,-0.0219 3.64568,-0.34623 -2e-5,-1.4e-4 m -494.79048,-2.83597 0.42148,-0.89749 0.25376,-2.87384 0.15716,-15.15069 -0.15831,-15.51842 -0.28314,-2.65555 -0.49494,-0.78793 -5.9709,-0.2638 -12.03604,-0.0879 -12.036046,0.0879 -5.970901,0.2638 -0.495081,0.79455 -0.283131,2.68597 -0.158175,15.71539 0.157275,15.874 0.298046,2.5169 0.534498,0.63709 18.315745,0.0787 17.7487,-0.41864 0,0 m 138.40747,-0.2594 0.4113,-5.43693 0.16085,-4.79907 0.27139,-1.43101 0.55119,-0.93786 0.94536,-0.55911 1.45389,-0.29474 4.89086,-0.25399 6.25382,-0.42931 0.92048,-0.39223 0.18435,-0.65839 -0.17422,-0.65688 -0.88154,-0.37589 -6.03837,-0.31918 -5.17085,-0.27931 -2.47008,-0.43548 -0.33337,-0.64349 -0.2243,-1.44718 -0.29882,-7.23819 -0.28078,-3.09135 -0.38097,-0.49594 -0.65392,-0.11258 -0.68213,0.14101 -0.32905,0.81467 0.09,6.00007 0.27641,8.18087 -0.27681,7.56914 0.012,7.25174 0.35924,0.54581 0.48267,0.24957 0.50516,-0.0655 0.42671,-0.39931 -4.4e-4,0 m 234.06937,-0.80756 0.56639,-0.96053 0.0974,-1.1539 -0.35287,-1.17705 -0.78454,-1.02997 -0.76202,-0.98448 -0.38279,-1.06634 0.0476,-0.85491 0.52919,-0.35015 2.32029,1.26008 1.63617,0.85932 1.49714,0.0421 1.96736,-1.23536 2.50633,-2.37395 2.15598,-2.56956 0.91629,-1.8222 -0.50731,-1.02415 -1.35147,-1.70015 -4.21275,-4.42684 -4.52134,-4.12636 -1.73721,-1.32455 -1.04734,-0.4983 -1.8831,1.04592 -2.6557,2.42055 -2.36647,2.7104 -1.01539,1.91546 0.34963,1.19741 0.82118,1.36244 1.17079,2.21993 -0.33086,0.60203 -0.83703,0.10117 -1.06377,-0.36143 -1.01107,-0.78576 -1.59053,-1.03555 -1.64039,-0.0252 -1.28279,0.86778 -0.51773,1.64328 0.80608,1.9639 2.07109,2.85807 2.81655,3.11708 3.04244,2.74094 2.29386,1.62804 1.78386,0.84811 1.37914,0.0997 1.07966,-0.61711 0,0 m 44.68774,-1.35818 3.02401,-2.71528 3.0226,-3.32378 2.32448,-3.09582 0.92965,-2.0314 -0.43648,-1.7359 -1.17378,-0.85708 -1.70761,0.0768 -2.03797,1.06584 -1.51269,0.86096 -0.90743,-0.22677 -0.23527,-0.8731 0.83132,-1.39299 0.88996,-1.49417 0.37016,-1.34279 -1.02293,-1.95319 -2.37227,-2.69968 -2.67687,-2.3925 -1.93669,-1.03165 -1.00594,0.50885 -1.71081,1.3544 -4.50181,4.21247 -4.21815,4.49575 -1.35623,1.70849 -0.50954,1.00459 1.08655,1.83051 2.49523,2.69513 2.75729,2.43899 1.87273,1.06206 1.21916,-0.34779 1.3862,-0.83618 1.84261,-1.05439 1.08217,0.0879 0.10799,1.02952 -1.07996,1.77045 -1.02324,1.34375 -0.41238,0.99814 0.16977,0.87413 0.72321,0.97168 1.05739,0.83335 1.17732,0.13517 1.4857,-0.59558 1.98255,-1.35892 0,0 m -370.51714,-0.0518 0.35933,-16.75301 -0.16132,-12.38678 -0.21996,-2.95868 -0.3291,-1.18153 -5.33837,-0.51365 -10.99084,-0.2079 -11.08434,0.11998 -5.61888,0.46996 -0.45942,0.86292 -0.29946,2.37648 -0.32522,12.2376 0.17481,16.8936 0.37096,1.97732 16.78123,0 13.98538,-0.1594 2.41878,-0.28328 0.73642,-0.49369 0,6e-5 m 271.80534,-1.75354 4.1861,-1.54382 3.58435,-2.33865 3.0658,-3.2028 2.63044,-4.13629 1.87378,-3.55189 0.2153,-13.98378 -0.078,-11.35899 -0.32968,-4.09557 -0.58754,-3.29906 -0.89345,-2.69713 -1.24742,-2.28979 -1.64944,-2.07702 -2.09954,-2.05883 -2.28366,-1.81108 -2.40512,-1.44093 -2.49636,-1.07992 -2.5574,-0.72803 -2.5882,-0.38526 -2.58881,-0.0516 -2.5592,0.27288 -2.49937,0.58827 -2.40933,0.89452 -2.28909,1.19165 -2.13861,1.47966 -1.95794,1.75853 -1.74704,2.02828 -1.50593,2.2889 -1.23462,2.5404 -0.93308,2.78277 -0.65548,6.19815 -0.21873,9.65655 0.21813,9.55554 0.65508,5.8951 1.09538,3.06257 1.32331,2.59146 1.66837,2.31231 2.13055,2.22515 2.09144,1.74734 2.18817,1.421 2.2825,1.09405 2.37447,0.76652 2.46405,0.43839 2.55125,0.10967 2.63607,-0.21964 2.71851,-0.54955 3e-5,0 m 204.60038,-1.13626 1.69451,-1.58094 1.48749,-2.13982 1.05664,-2.30742 0.40195,-2.08377 -0.46085,-2.84169 -1.27127,-2.7467 -1.91481,-2.38299 -2.39145,-1.75057 -1.93626,-0.60651 -2.39921,-0.1976 -2.40714,0.21013 -1.96001,0.61668 -1.87786,1.32247 -1.74602,1.83553 -1.36382,2.03687 -0.73128,1.92646 -0.10341,3.20677 0.81002,3.07403 1.6115,2.6755 2.30104,2.01117 2.57899,0.972 3.05481,0.26961 3.03797,-0.42058 2.52847,-1.09854 0,-9e-5 m -398.79311,-13.63719 0,-13.61551 -32.26287,-0.15468 -27.42198,0.0239 -4.32711,0.2831 -1.25374,0.54612 -0.34211,1.14456 -0.2292,2.48619 -0.16866,9.89274 0.11736,8.95664 0.28225,3.95872 9.85943,0.2373 23.1434,0.009 32.60323,-0.15287 0,-13.61552 0,-6e-5 m 107.48308,6.19495 0.64277,-0.79774 0.34097,-2.72565 0.15224,-18.52782 -0.14594,-15.3613 -0.33941,-6.82748 -0.94398,-0.35469 -2.59109,-0.205 -11.9953,-0.0323 -15.05412,0.15828 -0.15528,21.83369 0.0363,16.9629 0.18104,4.09487 0.29915,1.58542 0.94926,0.39757 2.39462,0.24815 11.2059,0.1638 10.41342,-0.16675 4.60956,-0.44607 -8e-5,1e-4 m -35.0215,-1.98384 0.47331,-2.70835 0.0432,-6.61532 -0.1647,-8.50295 -7.99173,-0.17052 -6.59195,-0.12117 -1.91185,0.19117 -1.20357,0.53899 -0.65612,1.02181 -0.26952,1.63962 -0.0226,5.67262 0.17286,6.56965 0.5375,2.59475 1.02851,0.35015 2.0473,0.24187 5.78178,0.16749 5.74927,-0.23985 2.00667,-0.2673 0.97163,-0.3627 4e-5,4e-5 m 58.52834,-0.0309 0.37891,-2.39482 0.24173,-4.9076 0.0445,-5.28275 -0.21276,-3.52029 -0.37834,-2.01676 -8.99801,0.1633 -8.99799,0.1633 0,8.87387 0,8.87387 1.77595,0.4178 3.37213,0.24347 5.30938,-0.0147 5.00513,-0.22154 2.45937,-0.37704 0,-1e-4 m 147.10178,-9.77541 6.57807,-6.96925 2.73602,-3.49534 -2.70012,-3.37261 -6.09658,-6.5105 -6.48737,-6.53295 -3.8725,-3.44 -0.916,0.0324 -1.71815,1.19761 -8.16655,7.84306 -6.85111,7.09219 -2.85128,3.46466 2.97902,3.63694 6.6453,6.86645 6.86494,6.64821 3.63793,2.98223 3.37466,-2.77391 6.84372,-6.66916 0,0 m -115.1199,-0.73897 0.36303,-1.11785 0.2473,-2.2551 0.16003,-6.39458 -0.26513,-6.36135 -0.28414,-2.21358 -0.38098,-1.05971 -0.88501,-0.34751 -1.50482,-0.19696 -4.13304,0.0145 -4.40412,0.487 -3.2031,0.87302 -1.81078,1.23711 -1.59998,1.74803 -1.24586,2.06681 -0.74839,2.19344 -0.13394,1.65674 0.22182,1.74792 1.3335,3.4539 2.2243,2.87222 1.33531,1.02082 1.42495,0.63881 3.15724,0.4557 4.23773,0.13664 3.8625,-0.17542 2.03152,-0.48052 6e-5,-8e-5 m 65.57861,-0.4122 2.55704,-1.62 1.85423,-2.11677 1.14695,-2.45955 0.43523,-2.64834 -0.28096,-2.68313 -1.0016,-2.56392 -1.7267,-2.29073 -2.45625,-1.86354 -1.41606,-0.68114 -1.54316,-0.40651 -5.04458,-0.25333 -4.36879,0.17751 -1.99498,0.52314 -0.53886,2.69711 -0.17152,6.95214 0.17152,6.95215 0.53886,2.69711 0.81714,0.3764 1.44094,0.24332 4.02731,0.10904 4.34453,-0.35839 3.20971,-0.78257 0,0 m 168.78679,-5.36523 1.64934,-1.34104 1.16317,-1.72723 0.68906,-2.13858 0.22701,-2.57511 -0.0648,-1.73685 -0.30746,-1.2189 -0.71953,-1.08033 -1.30101,-1.32113 -2.48852,-1.89514 -1.22094,-0.30932 -1.64777,-0.0718 -2.51191,0.23012 -2.10687,0.69425 -1.71382,1.16421 -1.33276,1.64002 -0.6748,1.46557 -0.36013,1.60383 0.16254,3.34265 1.23759,3.05632 0.98368,1.24592 1.20652,0.9645 2.12979,0.85666 2.43864,0.28707 2.43728,-0.28279 2.12574,-0.85294 0,2e-5 m -325.37287,-6.55656 0.61958,-0.55319 0.34464,-1.21401 0.18083,-6.76809 -0.35932,-8.85885 -0.49673,-0.48086 -1.32977,-0.28471 -6.9348,-0.17082 -6.52858,0.17303 -2.58376,0.53735 -0.53625,2.50952 -0.17411,6.25176 0.17411,6.25177 0.53625,2.50954 2.81666,0.5182 5.44508,0.19846 5.58618,-0.1355 3.23999,-0.48366 0,6e-5 m 59.01674,-0.23155 0.34908,-2.23117 0.23735,-4.61429 -0.10624,-8.51627 -0.41503,-2.76766 -8.98914,0.1633 -8.98913,0.1631 -0.1639,8.74487 0.0334,7.67466 0.38258,1.14898 0.76795,0.46671 3.10778,0.26155 5.61784,0.0242 5.47828,-0.17674 2.68914,-0.34124 2e-5,2e-5 m 123.45909,-10.9123 4.23549,-4.64236 1.11615,-1.53396 0.38296,-0.92803 -0.92366,-1.80944 -2.46415,-2.71332 -2.4894,-2.11806 -1.99179,-1.02423 -1.64214,0.0291 -1.44046,1.04188 -1.58414,1.17636 -0.60844,0.0799 -0.43335,-0.2058 -0.18342,-1.1095 0.99097,-1.77447 1.05325,-1.52339 0.40016,-1.30491 -0.25152,-1.10958 -0.90177,-0.93739 -1.46426,-0.57048 -1.7401,0.52164 -2.45926,1.8658 -3.62175,3.46199 -4.43217,4.77 -0.82339,1.37378 -0.22025,1.13185 0.29187,1.50354 0.85318,0.91752 1.05945,0.46972 0.86855,0.0429 0.93586,-0.44079 1.26137,-0.98144 1.77044,-1.07995 1.02951,0.10798 0.0879,1.08217 -1.05438,1.84261 -0.92976,1.54046 -0.0521,1.44695 0.9191,1.69235 1.98391,2.27667 2.88744,2.66534 1.20004,0.56787 1.19827,0.0249 1.31702,-0.54286 1.5563,-1.13544 4.31249,-4.14793 0,0 m 38.83808,2.46281 2.12387,-2.70304 0.88337,-1.76077 -0.38137,-1.28549 -0.91691,-1.56031 -0.86377,-1.51648 0.23607,-0.91014 0.41115,-0.23501 0.52129,0.0573 1.59523,1.06977 1.50385,1.09908 1.1444,0.37772 0.94198,-0.34089 0.89662,-1.05671 0.56995,-1.65401 -0.51704,-1.92387 -1.75993,-2.4964 -3.15876,-3.37164 -3.20034,-2.98101 -2.42559,-1.69581 -1.87359,-0.52573 -1.54433,0.52926 -0.87107,0.86621 -0.29988,0.99636 0.27095,1.15384 0.8414,1.33864 1.0249,1.77658 0.0227,1.14731 -0.32089,0.26183 -0.51914,0.0135 -1.56333,-0.83936 -1.70128,-0.98698 -1.62425,-0.0505 -1.79494,0.95124 -2.21334,2.01824 -2.64952,2.93673 -0.59783,1.12372 -0.0829,1.07699 0.4548,1.16754 1.01524,1.39535 3.80276,4.02324 4.40717,4.2281 1.59426,1.15513 1.34605,0.54731 1.21633,-0.0369 1.2051,-0.5975 2.85052,-2.78239 2e-5,-2e-5 m -495.926288,-3.5817 0.8127,-1.81019 0.717813,-2.89739 0.700419,-3.12393 0.944231,-2.51278 1.324715,-2.18457 1.841869,-2.13932 2.30324,-2.00898 2.580277,-1.59961 2.760892,-1.14079 2.845085,-0.63248 2.824253,-0.53431 1.69367,-0.8856 0.8245,-1.48276 0.216741,-2.32576 -0.234042,-2.62892 -0.696211,-1.50129 -1.047789,-0.5921 -1.561979,-0.28418 -4.208855,0.2773 -4.892603,1.2748 -4.66101,2.1162 -2.69152,1.88171 -2.516599,2.3465 -2.285244,2.71607 -1.997453,2.9904 -1.653228,3.16953 -1.252566,3.25342 -0.79547,3.24208 -0.281938,3.13553 0.249784,2.65705 0.400975,0.75 0.658516,0.5888 1.713187,0.70307 2.085346,0.20988 1.955285,-0.27519 1.323009,-0.75211 0,-8e-5 m 53.901538,-0.2209 1.08365,-0.25363 1.15178,0.32843 4.05863,0.41014 9.70488,-0.0333 13.44988,-0.23285 13.66169,0.23231 9.31681,0.10342 2.79045,-0.23626 1.82762,-0.58876 1.07664,-1.06165 0.53751,-1.65493 0.30504,-5.57124 -0.007,-5.62617 -0.26436,-1.07214 -0.49388,-0.43019 -0.80404,-0.13925 -0.57883,0.18475 -0.38248,2.14925 -0.33196,4.58363 -0.29599,6.31721 -11.76356,0.1607 -9.14331,-0.0398 -3.43625,-0.47668 -0.37762,-0.63059 -0.2527,-1.22721 -0.18567,-4.68528 -0.17989,-4.7798 -0.27941,-1.01247 -0.4542,-0.42415 -0.75684,-0.13594 -0.53683,0.16544 -0.54838,6.38925 -0.28303,4.40813 -0.4443,2.16005 -3.97196,0.40497 -8.04146,0.0602 -8.07624,-0.23959 -4.07632,-0.49453 -0.58245,-1.87698 -0.18369,-4.57122 -0.10383,-3.49524 -0.32653,-2.12452 -0.5718,-0.82795 -0.8396,0.39451 -0.44802,2.04809 -0.29829,4.14528 -0.61267,6.31994 -1.20215,0.33595 -2.778621,0.23277 -8.198705,0.16381 -8.240707,-0.22542 -2.831127,-0.25379 -1.275654,-0.34522 -0.503337,-2.27522 -0.309124,-4.38454 -0.311842,-4.72907 -0.297899,-0.90743 -0.449044,-0.25013 -0.45189,0.27126 -0.296548,0.9997 -0.306083,5.30029 -0.04655,3.33536 0.185402,2.50633 0.616925,1.7904 1.248021,1.18759 2.078688,0.69788 3.108929,0.32128 10.106868,-0.0348 7.423804,-0.30606 3.699713,-0.45475 0,3.4e-4 m 84.16198,-1.30023 0.67332,-1.18103 0.39936,-1.78708 0.35791,-8.42749 0.18777,-9.72646 30.11211,0 30.11211,0 0.18697,10.11622 0.18698,10.11623 1.66095,1.42736 1.69741,1.05238 1.74711,0.34078 1.696,-0.36994 1.54405,-1.07982 1.48393,-1.48393 -0.17894,-13.6638 -0.17895,-13.66377 -1.66096,-1.4277 -1.66095,-1.42768 -36.71523,0 -36.71523,0 -1.76144,1.76144 -1.76144,1.76144 0.17895,13.68328 0.33646,12.11242 0.44549,1.8449 0.83122,0.88629 1.71169,0.87393 1.86447,0.12677 1.7751,-0.58959 1.44352,-1.27516 2.6e-4,1e-5 m 21.51804,1.46295 21.01525,0.01 8.13972,0.0915 5.82202,-0.0809 0.82883,-0.34155 0.15691,-0.65568 -0.16049,-0.65256 -0.78484,-0.37705 -5.26311,-0.32462 -4.56077,-0.2955 -2.247,-0.47133 -0.51021,-2.28279 -0.38508,-4.65069 -0.4131,-5.08342 -0.31754,-0.98145 -0.45333,-0.27202 -0.45036,0.25929 -0.29745,0.94729 -0.31011,4.97501 -0.30878,4.59316 -0.50367,2.36259 -0.70565,0.35879 -1.50995,0.2397 -6.00174,0.17567 -8.51122,-0.35933 -0.47104,-0.4279 -0.2858,-1.02824 -0.17953,-4.98314 -0.18953,-5.00213 -0.28613,-1.19943 -0.45744,-0.6528 -0.95538,-0.38376 -0.61997,0.85515 -0.33674,2.26415 -0.10566,3.84328 -0.1925,4.36109 -0.52692,2.0027 -2.08062,0.52753 -4.6638,0.18283 -4.94972,0.17996 -1.01967,0.28726 -0.42592,0.47416 -0.14664,1.10139 0.89113,0.5994 2.3306,0.19666 4.17175,-0.10682 8.2312,-0.27428 0,-0.001 m 85.25535,0.008 0.35469,-0.94399 0.20501,-2.59109 0.0323,-11.9953 -0.15828,-15.05411 -14.72618,-0.15849 -11.4427,0.0382 -2.88503,0.18141 -1.21169,0.29685 -0.4002,0.94702 -0.24923,2.38815 -0.16387,11.21773 0.16675,10.41341 0.44607,4.60958 0.67183,0.63604 1.93019,0.34169 12.34543,0.15825 10.34427,-0.14594 4.74075,-0.33941 -1e-4,-2e-5 m 355.08826,-4.47821 1.64521,-2.14074 0.36752,-2.58575 -0.34255,-2.54491 -1.34075,-2.05281 -1.87012,-1.54112 -2.52307,-0.34281 -3.0229,0.44953 -1.19334,0.55981 -0.97944,0.78131 -1.31171,2.2215 -0.43967,3.09066 0.54604,2.28474 1.4527,1.95543 2.08128,1.36487 2.43174,0.51302 2.39511,-0.38761 2.10395,-1.62512 0,0 m -226.64845,-8.7813 4.71,-4.96534 1.95903,-2.5995 -1.10514,-1.74678 -2.61641,-2.78479 -3.07921,-2.79554 -2.49351,-1.77901 -1.59927,-0.59826 -1.71526,-0.27823 -3.54773,0.34355 -3.31933,1.44348 -1.42977,1.09667 -1.19959,1.32661 -1.01155,2.23569 -0.47346,2.895 0.10188,2.96692 0.71444,2.45142 1.71055,2.28379 2.85947,3.15449 2.83154,2.79491 1.62677,1.20503 7.07655,-6.65011 0,0 m 48.55155,1.7308 2.73194,-3.06813 1.55038,-2.54564 0.58525,-2.53835 -0.16346,-3.04625 -0.53373,-2.17094 -1.00102,-1.81176 -1.52369,-1.52579 -2.10175,-1.31303 -2.16273,-0.85322 -2.22551,-0.41174 -2.18214,0.0387 -2.03261,0.4982 -2.39171,1.62977 -3.25013,2.91122 -2.86329,2.99053 -1.23115,1.86766 1.96151,2.65326 4.40695,4.64377 4.63608,4.41428 2.64885,1.96476 1.90068,-1.27115 3.24128,-3.05618 0,0 m -117.35986,-9.88017 0,-9.17568 -8.87967,0 -8.87969,0 -0.1649,8.55648 0.13541,9.33956 0.55261,0.37254 1.49887,0.21418 6.9932,0.0325 8.74415,-0.16391 0,-9.17567 2e-5,2e-5 m -210.93481,0.64738 11.48944,-0.0893 5.73964,-0.50071 1.33635,-0.55819 0.64615,-0.84532 0.20503,-1.19386 0.013,-1.60384 -0.17463,-2.00574 -0.55349,-1.46266 -0.97676,-0.99075 -1.44441,-0.59003 -41.89844,-0.14885 -33.00372,0.29024 -6.437687,0.27311 -2.145124,0.41533 -0.753716,1.41769 -0.224921,2.8406 -0.0046,1.83349 0.226424,1.3532 0.818023,0.94127 1.77015,0.5977 3.08281,0.32251 4.755998,0.11566 15.973686,-0.11575 41.56085,-0.29575 0,-4e-5 m 505.06197,-2.09905 1.18959,-1.65298 0.41778,-1.89248 -0.35757,-1.90949 -1.13645,-1.70398 -1.22361,-0.90691 -1.32099,-0.4483 -1.33806,-0.0255 -1.27483,0.3614 -1.13131,0.71248 -0.9075,1.02774 -0.60338,1.30716 -0.21897,1.55074 0.2086,1.54116 0.5772,1.29476 0.87285,1.01531 1.09559,0.70284 1.24539,0.35734 1.32226,-0.0212 1.3262,-0.43274 1.25721,-0.87733 0,0" />
</svg>
