<?xml version="1.0" encoding="UTF-8" standalone="no"?>
<!-- Created with Inkscape (http://www.inkscape.org/) -->

<svg
   xmlns:dc="http://purl.org/dc/elements/1.1/"
   xmlns:cc="http://creativecommons.org/ns#"
   xmlns:rdf="http://www.w3.org/1999/02/22-rdf-syntax-ns#"
   xmlns:svg="http://www.w3.org/2000/svg"
   xmlns="http://www.w3.org/2000/svg"
   xmlns:sodipodi="http://sodipodi.sourceforge.net/DTD/sodipodi-0.dtd"
   xmlns:inkscape="http://www.inkscape.org/namespaces/inkscape"
   width="210mm"
   height="297mm"
   viewBox="0 0 744.09448819 1052.3622047"
   id="svg2"
   version="1.1"
   inkscape:version="0.91 r13725"
   sodipodi:docname="rusty.svg">
  <sodipodi:namedview
     id="base"
     pagecolor="#ffffff"
     bordercolor="#666666"
     borderopacity="1.0"
     inkscape:pageopacity="0.0"
     inkscape:pageshadow="2"
     inkscape:zoom="1.4"
     inkscape:cx="411.955"
     inkscape:cy="564.93845"
     inkscape:document-units="px"
     inkscape:current-layer="layer1"
     showgrid="false"
     inkscape:window-width="1360"
     inkscape:window-height="746"
     inkscape:window-x="1432"
     inkscape:window-y="-8"
     inkscape:window-maximized="1" />
  <defs
     id="defs4" />
  <metadata
     id="metadata7">
    <rdf:RDF>
      <cc:Work
         rdf:about="">
        <dc:format>image/svg+xml</dc:format>
        <dc:type
           rdf:resource="http://purl.org/dc/dcmitype/StillImage" />
        <dc:title></dc:title>
      </cc:Work>
    </rdf:RDF>
  </metadata>
  <g
     inkscape:label="Layer 1"
     inkscape:groupmode="layer"
     id="layer1">
    <path
       style="fill:none;stroke:#ff0000;stroke-width:0.35433072;stroke-linejoin:round;stroke-miterlimit:4;stroke-dasharray:none"
       d="M578.19141 406.48828L572.738185 406.5820375L568.86719 406.97461L564.012518906 408.21089L559.60157125 409.7853375L555.428900469 411.78352375L551.28906 414.29102L548.082303789 416.667322422L545.045128437 419.39632875L542.213902617 422.427791328L539.624995 425.7114625L537.314774258 429.197094609L535.319609062 432.83444L533.675868086 436.573251016L532.41992 440.36328L531.88477 442.29688L433.62891 442.22656L433.80859 439.50586L433.365378828 435.025755158L432.068746593 430.758661019L429.968360515 426.824486917L427.113887816 423.343142184L423.632543083 420.488669485L419.698368981 418.388283407L415.431274842 417.091651172L410.95117 416.64844L406.34488058 417.113115438L402.054608314 418.445177327L398.172252579 420.55271845L394.789712749 423.34383159L391.998888201 426.726609531L389.891678309 430.609145058L388.559982451 434.899530953L388.0957 439.50586L388.2832 442.19531L290.49023 442.12695L289.875 439.77539L288.265914844 435.243398437L285.78711375 430.519555L282.510948281 425.723434063L278.50977 420.97461L275.99392 418.3593475L271.27148 414.59375L267.517286406 412.238101406L263.22386625 410.14771375L258.597807969 408.411204219L253.8457 407.11719L250.020303125 406.677919531L244.6713 406.49697625L239.288891875 406.587077344L235.36328 406.96094L227.92511375 408.9701725L224.575673281 410.3028425L221.65625 411.78906L219.77539 412.72461L216.18724625 415.2131675L211.39062 419.23828L208.57065707 422.25149584L206.084115312 425.518284219L203.944340273 429.007138926L202.1646775 432.68655375L200.758472539 436.52502248L199.739070938 440.491038906L199.119818242 444.553096816L198.91406 448.67969L199.203910156 453.555368594L200.02428125 458.39562375L201.320304219 462.956037031L203.03711 466.99219L205.607862656 471.209273125L208.87147375 475.426855L212.491827969 479.252299375L216.13281 482.29297L218.07031 483.67188L215.62891 485.55273L212.0860675 488.4685675L208.95508 491.82617L205.381722344 496.478436875L202.61817625 501.3568625L200.637827031 506.518281875L199.41406 512.01953L198.912606523 518.872391719L199.465583438 525.493928125L201.031823008 531.806152344L203.5701575 537.7310775L207.03941918 543.190716719L211.398440312 548.107083125L216.606053164 552.402189844L222.62109 555.99805L229.36047625 558.8705675L232.565275781 559.763664062L236.03516 560.41797L239.95908 560.73834L245.78125 560.75781L251.919605 560.50757125L255.86133 559.77539L262.023281719 557.781322656L267.66923625 555.08024625L272.829695156 551.654964219L277.53516 547.48828L281.54004875 542.942515L283.58398 539.91016L285.42383 536.94141L288.0301825 532.1113525L289.6875 527.33984L290.08398 525.62891L303.88672 525.6543L363.2207 525.48828L423.34375 525.29688L471.08594 525.29297L518.05078 525.29297L531.87891 525.29297L532.19531 526.55273L532.90625 529.54492L534.422082188 533.391680156L537.227335 538.16460875L540.854467813 543.154060469L544.83594 547.65039L549.536702344 551.758295312L554.73609375 555.164585L560.405328281 557.853327187L566.51562 559.80859L570.6599575 560.56158875L577.60352 560.71875L584.22042625 560.62163625L587.68359 560.11719L595.49494625 557.692739062L602.165035 554.50974L605.172097812 552.575272617L608.01383625 550.380953438L613.36133 545.11914L616.471541875 541.021572188L619.0807425 536.3924175L621.102696875 531.410804063L622.45117 526.25586L622.867580781 522.562390625L622.97588875 518.06587L622.783752344 513.579871875L622.29883 509.91797L621.310025781 506.222554063L619.90004875 502.54325L618.048837344 498.834995938L615.73633 495.05273L613.82720875 492.586177031L611.258935 489.78378625L606.06445 485.13867L604.15625 483.58984L605.94727 482.19141L609.8764725 478.8536025L614.00195 474.61719L618.59766 467.70312L619.58203 465.47656L621.115228594 461.759291719L622.16715125 457.86460625L622.772705781 453.620625156L622.9668 448.85547L622.773381563 443.837443438L622.1337975 439.4783875L620.959054687 435.362560313L619.16016 431.07422L617.524699531 428.02389375L615.54294625 425.0239825L613.245774844 422.11706L610.66406 419.3457L605.725733906 415.107587344L600.26266375 411.66754875L594.255174219 409.015315781L587.68359 407.14062L583.68647625 406.67875625L578.19141 406.48828L578.19141 406.48828"
       id="path4155" />
    <path
       style="fill:none;stroke:#ff0000;stroke-width:0.32114592;stroke-linejoin:round;stroke-miterlimit:4;stroke-dasharray:none"
       d="M419.64524 441.377660001L419.476571071 443.082419775L418.98316553 444.706123427L418.183922384 446.203144793L417.097740638 447.52785771L415.773026472 448.614037933L414.276004188 449.413279357L412.652299969 449.906683031L410.94754 450.07535L409.194652519 449.898643046L407.562007371 449.391841132L406.084579994 448.589919695L404.797345826 447.527854173L403.735280304 446.240620005L402.933358868 444.763192627L402.426556954 443.130547479L402.24985 441.377659997L402.418516969 439.672900029L402.911920643 438.04919581L403.711162069 436.552173526L404.797342292 435.227459361L406.122055208 434.141277615L407.619076574 433.342034469L409.242780225 432.848628929L410.94754 432.67996L412.652301212 432.848627217L414.276006498 433.342031599L415.773029578 434.141274138L417.097744174 435.227455826L418.183925862 436.552170422L418.983168401 438.049193503L419.476572783 439.672898789L419.64524 441.37766L419.64524 441.37766"
       id="path4160" />
    <g
       style="font-style:normal;font-weight:normal;font-size:76.02037048px;line-height:125%;font-family:sans-serif;letter-spacing:0px;word-spacing:0px;fill:#000000;fill-opacity:1;stroke:none;stroke-width:1px;stroke-linecap:butt;stroke-linejoin:miter;stroke-opacity:1"
       id="text4162">
      <path
         d="M523.93875 459.61939L504.97078 485.93699L504.97078 510.28726L491.79342 510.28726L491.79342 485.93699L473.45648 459.61939L489.19507 459.61939L498.77185 473.42778L507.97745 459.61939L523.93875 459.61939L523.93875 459.61939M473.93902 470.64383L463.02594 470.64383L463.02594 510.28726L449.84858 510.28726L449.84858 470.64383L439.1211 470.64383L439.1211 459.61939L473.93902 459.61939L473.93902 470.64383L473.93902 470.64383M435.52052 493.50933L435.344203281 496.580372656L434.815253125 499.371860625L433.933669531 501.883793906L432.6994525 504.1161725L431.112602031 506.068996406L429.173118125 507.742265625L426.881000781 509.135980156L424.23625 510.25014L420.1531225 511.280205L415.77304 511.62356L411.1076075 511.26396625L406.61385 510.185185L402.2917675 508.38721625L398.14136 505.87006L403.7835 495.25394L406.736805625 497.59245625L409.6576325 499.262825L412.545980625 500.26504625L415.40185 500.59912L417.768205 500.302165L419.74481 499.4113L421.30382 497.7966125L421.82349 495.62513L421.6796525 494.557949375L421.24814 493.5835675L419.52209 491.9132L417.2299725 490.79034L413.7686 489.64892L407.60679 487.64448L404.19181 485.64003L402.421685 483.756224375L401.15731 481.4455475L400.398685 478.707999375L400.14581 475.54358L400.407965 472.168041875L401.19443 469.0940975L402.505205 466.321746875L404.34029 463.85099L406.99432125 461.46375375L410.056665 459.758585L413.52732125 458.73548375L417.40629 458.39445L421.487095625 458.651965625L425.5261425 459.4245125L429.523430625 460.712090625L433.47896 462.5147L428.20801 472.75963L426.05045 471.29805625L423.88361 470.254075L421.70749 469.62768625L419.52209 469.41889L417.5176475 469.688005L415.73592 470.49535L414.31611 471.924445L413.84284 473.76185L413.998276875 474.72927125L414.4645875 475.627095L416.32983 477.21395L423.01131 479.51534L426.24997 480.6428425L428.98752 481.98378L431.22396 483.5381525L432.95929 485.30596L434.079828125 487.015768125L434.8802125 488.9529325L435.360443125 491.117453125L435.52052 493.50933L435.52052 493.50933M389.82664 488.83229L389.6410425 493.063895L389.08425 496.62735L388.30938375 499.077225625L387.135485 501.4157425L385.56255375 503.642900625L383.59059 505.7587L380.24985375 508.30833625L376.389445 510.129505L372.00936375 511.22220625L367.10961 511.58644L362.14490375 511.215246875L357.755545 510.1016675L353.94153375 508.245701875L350.70287 505.64735L349.2668175 503.9885775L348.07668 502.13029L347.1324575 500.0724875L346.43415 497.81517L345.821685 493.89908L345.61753 488.83229L345.61753 459.61939L358.79489 459.61939L358.79489 487.05057L358.90624 491.98744L359.340075 494.37235375L360.27038 496.367515L361.697155 497.97292375L363.6204 499.18858L365.4949225 499.8288925L367.55505 500.04233L369.8193275 499.83121375L371.78665 499.197865L373.4570175 498.14228375L374.83043 496.66447L375.626176875 495.13098L376.1945675 493.0175L376.64928 487.05057L376.64928 459.61939L389.82664 459.61939L389.82664 488.83229L389.82664 488.83229M340.08675 510.28726L323.68001 510.28726L311.13368 490.83674L311.13368 510.28726L297.95632 510.28726L297.95632 459.61939L318.44618 459.61939L322.645305 459.95578375L326.2598 460.964965L329.289665 462.64693375L331.7349 465.00169L333.26143375 467.268288125L334.351815 469.7251225L335.00604375 472.372193125L335.22412 475.2095L334.973564375 478.399443125L334.2218975 481.2506725L332.969119375 483.763188125L331.21523 485.93699L328.1714475 488.1084675L324.16256 489.50044L340.08675 510.28726L340.08675 510.28726M321.52709 475.95189L321.0352575 473.455615L319.55976 471.38621L318.490261875 470.622943125L317.1377275 470.0777525L313.58355 469.6416L311.13368 469.6416L311.13368 482.29929L313.58355 482.29929L317.1562875 481.86314L318.504181875 481.3179525L319.55976 480.55469L321.0352575 478.457445L321.52709 475.95189L321.52709 475.95189"
         style="font-style:normal;font-variant:normal;font-weight:bold;font-stretch:normal;font-family:Aharoni;-inkscape-font-specification:'Aharoni Bold'"
         id="path4175" />
    </g>
  </g>
</svg>
