  0
SECTION
  2
HEADER
  9
$ACADVER
  1
AC1014
  9
$HANDSEED
  5
FFFF
  9
$MEASUREMENT
 70
     1
  0
ENDSEC
  0
SECTION
  2
TABLES
  0
TABLE
  2
VPORT
  5
8
330
0
100
AcDbSymbolTable
 70
     4
  0
VPORT
  5
2E
330
8
100
AcDbSymbolTableRecord
100
AcDbViewportTableRecord
  2
*ACTIVE
 70
     0
 10
0.0
 20
0.0
 11
1.0
 21
1.0
 12
210.0
 22
148.5
 13
0.0
 23
0.0
 14
10.0
 24
10.0
 15
10.0
 25
10.0
 16
0.0
 26
0.0
 36
1.0
 17
0.0
 27
0.0
 37
0.0
 40
341.0
 41
1.24
 42
50.0
 43
0.0
 44
0.0
 50
0.0
 51
0.0
 71
     0
 72
   100
 73
     1
 74
     3
 75
     0
 76
     0
 77
     0
 78
     0
  0
ENDTAB
  0
TABLE
  2
LTYPE
  5
5
330
0
100
AcDbSymbolTable
 70
     1
  0
LTYPE
  5
14
330
5
100
AcDbSymbolTableRecord
100
AcDbLinetypeTableRecord
  2
BYBLOCK
 70
     0
  3

 72
    65
 73
     0
 40
0.0
  0
LTYPE
  5
15
330
5
100
AcDbSymbolTableRecord
100
AcDbLinetypeTableRecord
  2
BYLAYER
 70
     0
  3

 72
    65
 73
     0
 40
0.0
  0
LTYPE
  5
16
330
5
100
AcDbSymbolTableRecord
100
AcDbLinetypeTableRecord
  2
CONTINUOUS
 70
     0
  3
Solid line
 72
    65
 73
     0
 40
0.0
  0
ENDTAB
  0
TABLE
  2
LAYER
  5
2
100
AcDbSymbolTable
 70
2
  0
LAYER
  5
50
100
AcDbSymbolTableRecord
100
AcDbLayerTableRecord
  2
0
 70
0
  6
CONTINUOUS
  0
LAYER
  5
51
100
AcDbSymbolTableRecord
100
AcDbLayerTableRecord
  2
Layer_1
 70
0
  6
CONTINUOUS
  0
ENDTAB
  0
TABLE
  2
STYLE
  5
3
330
0
100
AcDbSymbolTable
 70
     1
  0
STYLE
  5
11
330
3
100
AcDbSymbolTableRecord
100
AcDbTextStyleTableRecord
  2
STANDARD
 70
     0
 40
0.0
 41
1.0
 50
0.0
 71
     0
 42
2.5
  3
txt
  4

  0
ENDTAB
  0
TABLE
  2
VIEW
  5
6
330
0
100
AcDbSymbolTable
 70
     0
  0
ENDTAB
  0
TABLE
  2
UCS
  5
7
330
0
100
AcDbSymbolTable
 70
     0
  0
ENDTAB
  0
TABLE
  2
APPID
  5
9
330
0
100
AcDbSymbolTable
 70
     2
  0
APPID
  5
12
330
9
100
AcDbSymbolTableRecord
100
AcDbRegAppTableRecord
  2
ACAD
 70
     0
  0
ENDTAB
  0
TABLE
  2
DIMSTYLE
  5
A
330
0
100
AcDbSymbolTable
 70
     1
  0
DIMSTYLE
105
27
330
A
100
AcDbSymbolTableRecord
100
AcDbDimStyleTableRecord
  2
ISO-25
 70
     0
  3

  4

  5

  6

  7

 40
1.0
 41
2.5
 42
0.625
 43
3.75
 44
1.25
 45
0.0
 46
0.0
 47
0.0
 48
0.0
140
2.5
141
2.5
142
0.0
143
0.03937007874016
144
1.0
145
0.0
146
1.0
147
0.625
 71
     0
 72
     0
 73
     0
 74
     0
 75
     0
 76
     0
 77
     1
 78
     8
170
     0
171
     3
172
     1
173
     0
174
     0
175
     0
176
     0
177
     0
178
     0
270
     2
271
     2
272
     2
273
     2
274
     3
340
11
275
     0
280
     0
281
     0
282
     0
283
     0
284
     8
285
     0
286
     0
287
     3
288
     0
  0
ENDTAB
  0
TABLE
  2
BLOCK_RECORD
  5
1
330
0
100
AcDbSymbolTable
 70
     1
  0
BLOCK_RECORD
  5
1F
330
1
100
AcDbSymbolTableRecord
100
AcDbBlockTableRecord
  2
*MODEL_SPACE
  0
BLOCK_RECORD
  5
1B
330
1
100
AcDbSymbolTableRecord
100
AcDbBlockTableRecord
  2
*PAPER_SPACE
  0
ENDTAB
  0
ENDSEC
  0
SECTION
  2
BLOCKS
  0
BLOCK
  5
20
330
1F
100
AcDbEntity
  8
0
100
AcDbBlockBegin
  2
*MODEL_SPACE
 70
     0
 10
0.0
 20
0.0
 30
0.0
  3
*MODEL_SPACE
  1

  0
ENDBLK
  5
21
330
1F
100
AcDbEntity
  8
0
100
AcDbBlockEnd
  0
BLOCK
  5
1C
330
1B
100
AcDbEntity
 67
     1
  8
0
100
AcDbBlockBegin
  2
*PAPER_SPACE
  1

  0
ENDBLK
  5
1D
330
1B
100
AcDbEntity
 67
     1
  8
0
100
AcDbBlockEnd
  0
ENDSEC
  0
SECTION
  2
ENTITIES
  0
LWPOLYLINE
  5
100
100
AcDbEntity
  8
Layer_1
 62
1
100
AcDbPolyline
 90
171
 70
0
 10
163.178465
 20
182.279974
 30
0.0
 10
161.639443
 20
182.253514
 30
0.0
 10
160.546963
 20
182.142721
 30
0.0
 10
159.176866
 20
181.793815
 30
0.0
 10
157.931999
 20
181.349471
 30
0.0
 10
156.754379
 20
180.785539
 30
0.0
 10
155.586024
 20
180.077868
 30
0.0
 10
154.681006
 20
179.407222
 30
0.0
 10
153.823847
 20
178.637036
 30
0.0
 10
153.024813
 20
177.781490
 30
0.0
 10
152.294165
 20
176.854765
 30
0.0
 10
151.642170
 20
175.871042
 30
0.0
 10
151.079090
 20
174.844502
 30
0.0
 10
150.615189
 20
173.789327
 30
0.0
 10
150.260733
 20
172.719697
 30
0.0
 10
150.109702
 20
172.173992
 30
0.0
 10
122.379715
 20
172.193838
 30
0.0
 10
122.430424
 20
172.961680
 30
0.0
 10
122.305340
 20
174.226065
 30
0.0
 10
121.939402
 20
175.430333
 30
0.0
 10
121.346626
 20
176.540645
 30
0.0
 10
120.541031
 20
177.523158
 30
0.0
 10
119.558518
 20
178.328753
 30
0.0
 10
118.448206
 20
178.921529
 30
0.0
 10
117.243938
 20
179.287467
 30
0.0
 10
115.979552
 20
179.412551
 30
0.0
 10
114.679555
 20
179.281410
 30
0.0
 10
113.468745
 20
178.905472
 30
0.0
 10
112.373058
 20
178.310677
 30
0.0
 10
111.418430
 20
177.522963
 30
0.0
 10
110.630797
 20
176.568268
 30
0.0
 10
110.036096
 20
175.472530
 30
0.0
 10
109.660262
 20
174.261688
 30
0.0
 10
109.529231
 20
172.961680
 30
0.0
 10
109.582148
 20
172.202657
 30
0.0
 10
81.982798
 20
172.221950
 30
0.0
 10
81.809167
 20
172.885612
 30
0.0
 10
81.355047
 20
174.164641
 30
0.0
 10
80.655474
 20
175.497814
 30
0.0
 10
79.730868
 20
176.851386
 30
0.0
 10
78.601646
 20
178.191610
 30
0.0
 10
77.891617
 20
178.929695
 30
0.0
 10
76.558840
 20
179.992431
 30
0.0
 10
75.499323
 20
180.657247
 30
0.0
 10
74.287624
 20
181.247201
 30
0.0
 10
72.982048
 20
181.737282
 30
0.0
 10
71.640898
 20
182.102482
 30
0.0
 10
70.561286
 20
182.226454
 30
0.0
 10
69.051678
 20
182.277520
 30
0.0
 10
67.532643
 20
182.252092
 30
0.0
 10
66.424748
 20
182.146579
 30
0.0
 10
64.325532
 20
181.579529
 30
0.0
 10
63.380246
 20
181.203420
 30
0.0
 10
62.556319
 20
180.783976
 30
0.0
 10
62.025499
 20
180.519943
 30
0.0
 10
61.012845
 20
179.817617
 30
0.0
 10
59.659131
 20
178.681641
 30
0.0
 10
58.863274
 20
177.831245
 30
0.0
 10
58.161517
 20
176.909284
 30
0.0
 10
57.557625
 20
175.924652
 30
0.0
 10
57.055365
 20
174.886239
 30
0.0
 10
56.658502
 20
173.802938
 30
0.0
 10
56.370804
 20
172.683640
 30
0.0
 10
56.196038
 20
171.537237
 30
0.0
 10
56.137968
 20
170.372621
 30
0.0
 10
56.219770
 20
168.996596
 30
0.0
 10
56.451297
 20
167.630568
 30
0.0
 10
56.817064
 20
166.343518
 30
0.0
 10
57.301584
 20
165.204426
 30
0.0
 10
58.027108
 20
164.014272
 30
0.0
 10
58.948171
 20
162.823976
 30
0.0
 10
59.969916
 20
161.744351
 30
0.0
 10
60.997482
 20
160.886206
 30
0.0
 10
61.544287
 20
160.497047
 30
0.0
 10
60.855270
 20
159.966230
 30
0.0
 10
59.855401
 20
159.143315
 30
0.0
 10
58.971767
 20
158.195725
 30
0.0
 10
57.963286
 20
156.882752
 30
0.0
 10
57.183352
 20
155.505952
 30
0.0
 10
56.624453
 20
154.049285
 30
0.0
 10
56.279079
 20
152.496710
 30
0.0
 10
56.137558
 20
150.562681
 30
0.0
 10
56.293620
 20
148.693936
 30
0.0
 10
56.735648
 20
146.912486
 30
0.0
 10
57.452022
 20
145.240340
 30
0.0
 10
58.431125
 20
143.699509
 30
0.0
 10
59.661338
 20
142.312001
 30
0.0
 10
61.131042
 20
141.099826
 30
0.0
 10
62.828619
 20
140.084995
 30
0.0
 10
64.730623
 20
139.274307
 30
0.0
 10
65.635089
 20
139.022255
 30
0.0
 10
66.614367
 20
138.837595
 30
0.0
 10
67.721785
 20
138.747180
 30
0.0
 10
69.364931
 20
138.741685
 30
0.0
 10
71.097311
 20
138.812308
 30
0.0
 10
72.209753
 20
139.018945
 30
0.0
 10
73.948793
 20
139.581716
 30
0.0
 10
75.542207
 20
140.344019
 30
0.0
 10
76.998603
 20
141.310710
 30
0.0
 10
78.326590
 20
142.486641
 30
0.0
 10
79.456858
 20
143.769557
 30
0.0
 10
80.033701
 20
144.625355
 30
0.0
 10
80.552948
 20
145.463202
 30
0.0
 10
81.288518
 20
146.826352
 30
0.0
 10
81.756250
 20
148.172978
 30
0.0
 10
81.868145
 20
148.655841
 30
0.0
 10
85.763585
 20
148.648675
 30
0.0
 10
102.508953
 20
148.695530
 30
0.0
 10
119.477014
 20
148.749547
 30
0.0
 10
132.950921
 20
148.750651
 30
0.0
 10
146.205442
 20
148.750651
 30
0.0
 10
150.108048
 20
148.750651
 30
0.0
 10
150.197343
 20
148.395118
 30
0.0
 10
150.397986
 20
147.550656
 30
0.0
 10
150.825788
 20
146.465015
 30
0.0
 10
151.617492
 20
145.117988
 30
0.0
 10
152.641150
 20
143.709854
 30
0.0
 10
153.764810
 20
142.440890
 30
0.0
 10
155.091469
 20
141.281548
 30
0.0
 10
156.558853
 20
140.320217
 30
0.0
 10
158.158837
 20
139.561394
 30
0.0
 10
159.883297
 20
139.009576
 30
0.0
 10
161.052921
 20
138.797063
 30
0.0
 10
163.012549
 20
138.752708
 30
0.0
 10
164.879987
 20
138.780116
 30
0.0
 10
165.857369
 20
138.922482
 30
0.0
 10
168.061907
 20
139.606716
 30
0.0
 10
169.944354
 20
140.505029
 30
0.0
 10
170.793014
 20
141.050979
 30
0.0
 10
171.595016
 20
141.670264
 30
0.0
 10
173.104198
 20
143.155265
 30
0.0
 10
173.981968
 20
144.311690
 30
0.0
 10
174.718343
 20
145.618140
 30
0.0
 10
175.288983
 20
147.024062
 30
0.0
 10
175.669552
 20
148.478902
 30
0.0
 10
175.787073
 20
149.521281
 30
0.0
 10
175.817640
 20
150.790299
 30
0.0
 10
175.763415
 20
152.056347
 30
0.0
 10
175.626559
 20
153.089817
 30
0.0
 10
175.347496
 20
154.132746
 30
0.0
 10
174.949569
 20
155.171127
 30
0.0
 10
174.427116
 20
156.217679
 30
0.0
 10
173.774475
 20
157.285118
 30
0.0
 10
173.235679
 20
157.981234
 30
0.0
 10
172.510855
 20
158.772131
 30
0.0
 10
171.044856
 20
160.083086
 30
0.0
 10
170.506319
 20
160.520201
 30
0.0
 10
171.011785
 20
160.914869
 30
0.0
 10
172.120693
 20
161.856872
 30
0.0
 10
173.284995
 20
163.052482
 30
0.0
 10
174.582006
 20
165.003786
 30
0.0
 10
174.859817
 20
165.632171
 30
0.0
 10
175.292520
 20
166.681267
 30
0.0
 10
175.589396
 20
167.780433
 30
0.0
 10
175.760297
 20
168.978179
 30
0.0
 10
175.815075
 20
170.323012
 30
0.0
 10
175.760488
 20
171.739210
 30
0.0
 10
175.579983
 20
172.969433
 30
0.0
 10
175.248444
 20
174.131011
 30
0.0
 10
174.740756
 20
175.341276
 30
0.0
 10
174.279193
 20
176.202146
 30
0.0
 10
173.719898
 20
177.048787
 30
0.0
 10
173.071585
 20
177.869185
 30
0.0
 10
172.342968
 20
178.651325
 30
0.0
 10
170.949263
 20
179.847414
 30
0.0
 10
169.407463
 20
180.818270
 30
0.0
 10
167.712016
 20
181.566789
 30
0.0
 10
165.857369
 20
182.095869
 30
0.0
 10
164.729294
 20
182.226218
 30
0.0
 10
163.178465
 20
182.279974
 30
0.0
 10
163.178465
 20
182.279974
 30
0.0
  0
LWPOLYLINE
  5
101
100
AcDbEntity
  8
Layer_1
 62
1
100
AcDbPolyline
 90
34
 70
0
 10
118.433212
 20
172.433416
 30
0.0
 10
118.385610
 20
171.952295
 30
0.0
 10
118.246360
 20
171.494050
 30
0.0
 10
118.020796
 20
171.071557
 30
0.0
 10
117.714251
 20
170.697693
 30
0.0
 10
117.340387
 20
170.391149
 30
0.0
 10
116.917895
 20
170.165586
 30
0.0
 10
116.459649
 20
170.026336
 30
0.0
 10
115.978528
 20
169.978735
 30
0.0
 10
115.483824
 20
170.028605
 30
0.0
 10
115.023055
 20
170.171636
 30
0.0
 10
114.606093
 20
170.397956
 30
0.0
 10
114.242806
 20
170.697694
 30
0.0
 10
113.943068
 20
171.060981
 30
0.0
 10
113.716748
 20
171.477943
 30
0.0
 10
113.573717
 20
171.938712
 30
0.0
 10
113.523847
 20
172.433416
 30
0.0
 10
113.571448
 20
172.914537
 30
0.0
 10
113.710698
 20
173.372783
 30
0.0
 10
113.936261
 20
173.795275
 30
0.0
 10
114.242805
 20
174.169139
 30
0.0
 10
114.616669
 20
174.475684
 30
0.0
 10
115.039162
 20
174.701248
 30
0.0
 10
115.497407
 20
174.840498
 30
0.0
 10
115.978528
 20
174.888100
 30
0.0
 10
116.459649
 20
174.840499
 30
0.0
 10
116.917895
 20
174.701249
 30
0.0
 10
117.340388
 20
174.475685
 30
0.0
 10
117.714252
 20
174.169140
 30
0.0
 10
118.020797
 20
173.795276
 30
0.0
 10
118.246361
 20
173.372783
 30
0.0
 10
118.385611
 20
172.914537
 30
0.0
 10
118.433212
 20
172.433416
 30
0.0
 10
118.433212
 20
172.433416
 30
0.0
  0
LWPOLYLINE
  5
102
100
AcDbEntity
  8
Layer_1
 62
7
100
AcDbPolyline
 90
11
 70
0
 10
147.867158
 20
167.285194
 30
0.0
 10
142.513976
 20
159.857783
 30
0.0
 10
142.513976
 20
152.985596
 30
0.0
 10
138.795032
 20
152.985596
 30
0.0
 10
138.795032
 20
159.857783
 30
0.0
 10
133.619940
 20
167.285194
 30
0.0
 10
138.061720
 20
167.285194
 30
0.0
 10
140.764500
 20
163.388160
 30
0.0
 10
143.362525
 20
167.285194
 30
0.0
 10
147.867158
 20
167.285194
 30
0.0
 10
147.867158
 20
167.285194
 30
0.0
  0
LWPOLYLINE
  5
103
100
AcDbEntity
  8
Layer_1
 62
7
100
AcDbPolyline
 90
10
 70
0
 10
133.756123
 20
164.173852
 30
0.0
 10
130.676210
 20
164.173852
 30
0.0
 10
130.676210
 20
152.985596
 30
0.0
 10
126.957266
 20
152.985596
 30
0.0
 10
126.957266
 20
164.173852
 30
0.0
 10
123.929733
 20
164.173852
 30
0.0
 10
123.929733
 20
167.285194
 30
0.0
 10
133.756123
 20
167.285194
 30
0.0
 10
133.756123
 20
164.173852
 30
0.0
 10
133.756123
 20
164.173852
 30
0.0
  0
LWPOLYLINE
  5
104
100
AcDbEntity
  8
Layer_1
 62
7
100
AcDbPolyline
 90
69
 70
0
 10
122.913569
 20
157.720700
 30
0.0
 10
122.863808
 20
156.853984
 30
0.0
 10
122.714527
 20
156.066164
 30
0.0
 10
122.465725
 20
155.357240
 30
0.0
 10
122.117401
 20
154.727214
 30
0.0
 10
121.669557
 20
154.176083
 30
0.0
 10
121.122191
 20
153.703849
 30
0.0
 10
120.475305
 20
153.310512
 30
0.0
 10
119.728897
 20
152.996072
 30
0.0
 10
118.576548
 20
152.705364
 30
0.0
 10
117.340391
 20
152.608462
 30
0.0
 10
116.023703
 20
152.709947
 30
0.0
 10
114.755464
 20
153.014403
 30
0.0
 10
113.535677
 20
153.521830
 30
0.0
 10
112.364339
 20
154.232228
 30
0.0
 10
113.956677
 20
157.228332
 30
0.0
 10
114.790165
 20
156.568351
 30
0.0
 10
115.614487
 20
156.096936
 30
0.0
 10
116.429643
 20
155.814087
 30
0.0
 10
117.235633
 20
155.719804
 30
0.0
 10
117.903471
 20
155.803611
 30
0.0
 10
118.461313
 20
156.055033
 30
0.0
 10
118.901300
 20
156.510734
 30
0.0
 10
119.047963
 20
157.123574
 30
0.0
 10
119.007369
 20
157.424757
 30
0.0
 10
118.885586
 20
157.699749
 30
0.0
 10
118.398457
 20
158.171164
 30
0.0
 10
117.751570
 20
158.488060
 30
0.0
 10
116.774694
 20
158.810194
 30
0.0
 10
115.035694
 20
159.375891
 30
0.0
 10
114.071911
 20
159.941592
 30
0.0
 10
113.572342
 20
160.473243
 30
0.0
 10
113.215507
 20
161.125368
 30
0.0
 10
113.001407
 20
161.897965
 30
0.0
 10
112.930040
 20
162.791034
 30
0.0
 10
113.004026
 20
163.743686
 30
0.0
 10
113.225984
 20
164.611221
 30
0.0
 10
113.595913
 20
165.393640
 30
0.0
 10
114.113815
 20
166.090943
 30
0.0
 10
114.862842
 20
166.764674
 30
0.0
 10
115.727103
 20
167.245910
 30
0.0
 10
116.706600
 20
167.534652
 30
0.0
 10
117.801331
 20
167.630900
 30
0.0
 10
118.953025
 20
167.558223
 30
0.0
 10
120.092934
 20
167.340193
 30
0.0
 10
121.221057
 20
166.976810
 30
0.0
 10
122.337395
 20
166.468074
 30
0.0
 10
120.849816
 20
163.576727
 30
0.0
 10
120.240905
 20
163.989215
 30
0.0
 10
119.629374
 20
164.283850
 30
0.0
 10
119.015225
 20
164.460631
 30
0.0
 10
118.398457
 20
164.519558
 30
0.0
 10
117.832758
 20
164.443607
 30
0.0
 10
117.329915
 20
164.215757
 30
0.0
 10
116.929213
 20
163.812434
 30
0.0
 10
116.795646
 20
163.293878
 30
0.0
 10
116.839514
 20
163.020850
 30
0.0
 10
116.971117
 20
162.767464
 30
0.0
 10
117.497530
 20
162.319619
 30
0.0
 10
119.383192
 20
161.670115
 30
0.0
 10
120.297214
 20
161.351909
 30
0.0
 10
121.069811
 20
160.973467
 30
0.0
 10
121.700984
 20
160.534788
 30
0.0
 10
122.190733
 20
160.035874
 30
0.0
 10
122.506974
 20
159.553328
 30
0.0
 10
122.732860
 20
159.006617
 30
0.0
 10
122.868392
 20
158.395741
 30
0.0
 10
122.913569
 20
157.720700
 30
0.0
 10
122.913569
 20
157.720700
 30
0.0
  0
LWPOLYLINE
  5
105
100
AcDbEntity
  8
Layer_1
 62
7
100
AcDbPolyline
 90
42
 70
0
 10
110.017741
 20
159.040665
 30
0.0
 10
109.965361
 20
157.846412
 30
0.0
 10
109.808222
 20
156.840726
 30
0.0
 10
109.589537
 20
156.149316
 30
0.0
 10
109.258237
 20
155.489335
 30
0.0
 10
108.814321
 20
154.860781
 30
0.0
 10
108.257789
 20
154.263656
 30
0.0
 10
107.314959
 20
153.544092
 30
0.0
 10
106.225466
 20
153.030117
 30
0.0
 10
104.989309
 20
152.721733
 30
0.0
 10
103.606490
 20
152.618938
 30
0.0
 10
102.205340
 20
152.723697
 30
0.0
 10
100.966565
 20
153.037974
 30
0.0
 10
99.890166
 20
153.561769
 30
0.0
 10
98.976143
 20
154.295081
 30
0.0
 10
98.570857
 20
154.763224
 30
0.0
 10
98.234974
 20
155.287674
 30
0.0
 10
97.968494
 20
155.868431
 30
0.0
 10
97.771416
 20
156.505496
 30
0.0
 10
97.598564
 20
157.610704
 30
0.0
 10
97.540947
 20
159.040665
 30
0.0
 10
97.540947
 20
167.285194
 30
0.0
 10
101.259891
 20
167.285194
 30
0.0
 10
101.259891
 20
159.543506
 30
0.0
 10
101.291317
 20
158.150211
 30
0.0
 10
101.413755
 20
157.477136
 30
0.0
 10
101.676307
 20
156.914057
 30
0.0
 10
102.078975
 20
156.460975
 30
0.0
 10
102.621757
 20
156.117890
 30
0.0
 10
103.150789
 20
155.937179
 30
0.0
 10
103.732203
 20
155.876942
 30
0.0
 10
104.371232
 20
155.936524
 30
0.0
 10
104.926455
 20
156.115269
 30
0.0
 10
105.397869
 20
156.413178
 30
0.0
 10
105.785477
 20
156.830250
 30
0.0
 10
106.010054
 20
157.263035
 30
0.0
 10
106.170467
 20
157.859506
 30
0.0
 10
106.298797
 20
159.543506
 30
0.0
 10
106.298797
 20
167.285194
 30
0.0
 10
110.017741
 20
167.285194
 30
0.0
 10
110.017741
 20
159.040665
 30
0.0
 10
110.017741
 20
159.040665
 30
0.0
  0
LWPOLYLINE
  5
106
100
AcDbEntity
  8
Layer_1
 62
7
100
AcDbPolyline
 90
23
 70
0
 10
95.980038
 20
152.985596
 30
0.0
 10
91.349692
 20
152.985596
 30
0.0
 10
87.808839
 20
158.474964
 30
0.0
 10
87.808839
 20
152.985596
 30
0.0
 10
84.089895
 20
152.985596
 30
0.0
 10
84.089895
 20
167.285194
 30
0.0
 10
89.872589
 20
167.285194
 30
0.0
 10
91.057675
 20
167.190257
 30
0.0
 10
92.077766
 20
166.905443
 30
0.0
 10
92.932861
 20
166.430754
 30
0.0
 10
93.622961
 20
165.766190
 30
0.0
 10
94.053782
 20
165.126505
 30
0.0
 10
94.361512
 20
164.433132
 30
0.0
 10
94.546150
 20
163.686070
 30
0.0
 10
94.607696
 20
162.885319
 30
0.0
 10
94.536984
 20
161.985046
 30
0.0
 10
94.324847
 20
161.180366
 30
0.0
 10
93.971285
 20
160.471278
 30
0.0
 10
93.476298
 20
159.857783
 30
0.0
 10
92.617275
 20
159.244944
 30
0.0
 10
91.485878
 20
158.852098
 30
0.0
 10
95.980038
 20
152.985596
 30
0.0
 10
95.980038
 20
152.985596
 30
0.0
  0
LWPOLYLINE
  5
107
100
AcDbEntity
  8
Layer_1
 62
7
100
AcDbPolyline
 90
15
 70
0
 10
90.742090
 20
162.675800
 30
0.0
 10
90.603284
 20
163.380304
 30
0.0
 10
90.186866
 20
163.964336
 30
0.0
 10
89.885029
 20
164.179747
 30
0.0
 10
89.503314
 20
164.333612
 30
0.0
 10
88.500246
 20
164.456704
 30
0.0
 10
87.808839
 20
164.456704
 30
0.0
 10
87.808839
 20
160.884423
 30
0.0
 10
88.500246
 20
160.884423
 30
0.0
 10
89.508552
 20
161.007514
 30
0.0
 10
89.888958
 20
161.161378
 30
0.0
 10
90.186866
 20
161.376787
 30
0.0
 10
90.603284
 20
161.968677
 30
0.0
 10
90.742090
 20
162.675800
 30
0.0
 10
90.742090
 20
162.675800
 30
0.0
  0
ENDSEC
  0
SECTION
  2
OBJECTS
  0
DICTIONARY
  5
C
330
0
100
AcDbDictionary
  3
ACAD_GROUP
350
D
  3
ACAD_MLINESTYLE
350
17
  0
DICTIONARY
  5
D
330
C
100
AcDbDictionary
  0
DICTIONARY
  5
1A
330
C
100
AcDbDictionary
  0
DICTIONARY
  5
17
330
C
100
AcDbDictionary
  3
STANDARD
350
18
  0
DICTIONARY
  5
19
330
C
100
AcDbDictionary
  0
ENDSEC
  0
EOF
