<?xml version="1.0" encoding="UTF-8" standalone="no"?>
<!-- Created with Inkscape (http://www.inkscape.org/) -->

<svg
   xmlns:dc="http://purl.org/dc/elements/1.1/"
   xmlns:cc="http://creativecommons.org/ns#"
   xmlns:rdf="http://www.w3.org/1999/02/22-rdf-syntax-ns#"
   xmlns:svg="http://www.w3.org/2000/svg"
   xmlns="http://www.w3.org/2000/svg"
   xmlns:sodipodi="http://sodipodi.sourceforge.net/DTD/sodipodi-0.dtd"
   xmlns:inkscape="http://www.inkscape.org/namespaces/inkscape"
   sodipodi:docname="stormtrooper_clock.svg"
   viewBox="0 0 1062.9922 2125.9842"
   height="600mm"
   width="300mm"
   inkscape:version="0.91 r13725"
   version="1.1"
   id="svg4136">
  <sodipodi:namedview
     inkscape:document-units="mm"
     inkscape:current-layer="svg4136"
     inkscape:window-maximized="1"
     inkscape:window-y="-8"
     inkscape:window-x="1432"
     inkscape:cy="838.85518"
     inkscape:cx="477.53259"
     inkscape:zoom="0.44"
     units="mm"
     showgrid="false"
     id="namedview4138"
     inkscape:window-height="746"
     inkscape:window-width="1360"
     inkscape:pageshadow="2"
     inkscape:pageopacity="0"
     guidetolerance="10"
     gridtolerance="10"
     objecttolerance="10"
     borderopacity="1"
     bordercolor="#666666"
     pagecolor="#ffffff" />
  <metadata
     id="metadata4142">
    <rdf:RDF>
      <cc:Work
         rdf:about="">
        <dc:format>image/svg+xml</dc:format>
        <dc:type
           rdf:resource="http://purl.org/dc/dcmitype/StillImage" />
        <dc:title></dc:title>
      </cc:Work>
    </rdf:RDF>
  </metadata>
  <defs
     id="defs4140" />
  <path
     d="M499.11914 658.54285L491.81836 658.68347L483.393602031 659.24417125L480.041527949 659.656117578L477.04556125 660.2031675L474.24263002 660.920850859L471.469662344 661.8446975L465.36133 664.453L460.676311855 666.893672695L456.206824844 669.728370313L451.957995098 672.952149648L447.93494875 676.5600675L444.142811934 680.547180664L440.586710781 684.908545938L437.271771426 689.639220117L434.20312 694.73426L430.846451875 701.396092188L425.84545 712.118385L419.875823125 725.421562813L413.61328 739.82605L407.410796094 753.995509844L401.60458875 766.65884875L396.845207031 776.434108281L395.061372363 779.80684627L393.7832 781.93933L391.521997793 784.957300977L389.135395469 787.613744063L386.642666973 789.896216992L384.06308625 791.7922775L381.415927246 793.28948332L378.720463906 794.375392188L375.995970176 795.037561836L373.26172 795.26355L370.810217539 795.175682148L368.553070313 794.825447188L366.277181055 794.091898008L363.7694525 792.8540875L360.816787383 790.991068555L357.206088438 788.381894063L347.1582 780.44129L341.90712457 776.340873711L337.117695938 772.949450938L332.622128086 770.19228582L328.252635 767.9946425L323.841430664 766.281785117L319.220729063 764.978977813L314.22274418 764.011484727L308.67969 763.30457L303.429789373 762.991081907L298.20856873 763.115338066L293.046301809 763.659481638L287.973262344 764.605655781L283.01972407 765.936003655L278.215960723 767.632668418L273.592246038 769.67779323L269.17885375 772.05352125L265.006057595 774.741995637L261.104131309 777.725359551L257.503348625 780.98575615L254.233983281 784.505328594L251.326309011 788.266220042L248.810599551 792.250573652L246.717128635 796.440532585L245.07617 800.81824L243.90278791 805.320059297L243.049489531 810.236605625L242.517790449 815.397574141L242.30920625 820.63266L242.42525252 825.771558359L242.867444844 830.643964375L243.637298809 835.079573203L244.73633 838.90808L246.430308953 842.983658713L248.507185684 846.987991426L250.950116877 850.908017371L253.742259219 854.730675781L256.866769392 858.442905891L260.306804082 862.031646934L264.045519973 865.483838142L268.06607375 868.78641875L272.351622097 871.926327991L276.885321699 874.890505098L281.650329241 877.665889304L286.629801406 880.239419844L291.80689488 882.59803595L297.164766348 884.728676855L302.686572493 886.618281794L308.35547 888.25379L312.59942165 889.22499646L317.202333203 890.018576523L322.110518311 890.637321216L327.270290625 891.084021563L332.627963799 891.361468589L338.129851484 891.47245332L343.722267334 891.419766782L349.351525 891.2062L354.963938135 890.834543999L360.505820391 890.307589805L365.92348542 889.628128442L371.163246875 888.798950938L376.171418408 887.822848315L380.894313672 886.702611602L385.278246318 885.441031821L389.26953 884.0409L392.958079531 882.383259375L397.57679125 879.97899L402.536012344 877.150595625L407.24609 874.22058L411.888257051 870.966700469L415.733615781 867.76851125L418.836983809 864.535523906L420.127551814 862.877703301L421.25317875 861.17725L422.220716819 859.422852949L423.037018223 857.603201094L423.708935164 855.706983379L424.243319844 853.72288875L424.92690123 849.445824531L425.14258 844.68152L424.916820508 840.175038809L424.280185938 834.963299219L423.293642148 829.301955957L422.018155 823.44666375L420.514690352 817.653077324L418.844214063 812.176851406L417.067691992 807.273640723L415.24609 803.1991L414.071404121 801.000682695L412.970897344 799.330270313L411.778835957 798.124359648L410.32948625 797.3194475L408.457114512 796.852030664L405.995987031 796.658605938L398.64453 796.83972L395.637278438 796.902069375L393.1749225 796.805415L391.511335313 796.570153125L391.058415352 796.406918203L390.90039 796.21668L391.395437188 795.09628L392.743465 792.772955L397.17578 785.87488L400.4871175 780.18257375L404.862915 771.601395L409.733525 761.29465375L414.5293 750.42566L422.416818945 732.121948691L429.160392188 717.189278906L435.026144336 705.181980605L437.71300144 700.136073875L440.2802 695.65438375L442.761005591 691.681201477L445.188683789 688.160818301L447.596500171 685.037525466L450.017720313 682.255614219L452.48560979 679.759375803L455.03343418 677.493101465L457.694459058 675.401082449L460.50195 673.42761L464.50384177 671.012353682L468.738509941 668.942408203L473.167386306 667.216601279L477.751902656 665.833760625L482.453490784 664.792713955L487.23358248 664.092288984L492.053609539 663.731313428L496.87500375 663.708615L501.659196907 664.023021416L506.367620801 664.673360391L510.961707224 665.658459639L515.402887969 666.977146875L519.652594827 668.628249814L523.67225959 670.610596172L527.42331405 672.923013662L530.86719 675.56433L532.691959727 677.226780759L534.521416719 679.103064824L538.252811875 683.599773594L542.178214219 689.259737754L546.4144625 696.28823875L551.078395469 704.890558027L556.286851875 715.271977031L562.156670469 727.637777207L568.80469 742.19324L575.779047344 757.35409625L582.31397875 770.96693L587.676785781 781.54203875L589.689674395 785.224914219L591.13477 787.58972L596.61523 795.55847L585.92188 795.00574L575.22852 794.453L571.13672 803.89636L569.178612793 808.804836836L567.268001094 814.311277188L565.470716035 820.15840832L563.85258875 826.0889575L562.479450371 831.845651992L561.417132031 837.171219063L560.731464863 841.808385977L560.48828 845.49988L560.775324792 848.877986289L561.62021459 852.228874375L562.998582522 855.535248086L564.886061719 858.77981125L567.25828531 861.945267695L570.090886426 865.01432125L573.359498196 867.969675742L577.03975375 870.794035L581.107286218 873.470102852L585.53772873 875.980583125L590.306714417 878.308179648L595.389876406 880.43559625L600.76284783 882.345536758L606.401261816 884.020705L612.280751497 885.443804805L618.37695 886.59754L624.419811836 887.357901563L631.432230313 887.8613525L639.076136133 888.112867188L647.01346 888.11742L654.906132617 887.879985313L662.416084687 887.4055375L669.205246914 886.699050938L674.93555 885.7655L679.888974243 884.590273491L684.847076289 883.108821836L689.780280737 881.341729341L694.659012187 879.309580313L699.453695239 877.032959058L704.134754492 874.532449883L708.672614546 871.828637095L713.0377 868.942105L717.200435454 865.893437905L721.131245508 862.703220117L724.800554761 859.392035942L728.178787812 855.980469688L731.236369263 852.489105659L733.943723711 848.938528164L736.271275757 845.349321509L738.18945 841.74207L739.193578635 839.396765L740.083119238 836.873490156L741.514564531 831.391596875L742.476042246 825.493522031L742.95980875 819.3763975L742.95812041 813.237355156L742.463233594 807.273526875L741.467404668 801.682044531L740.779217029 799.087536797L739.96289 796.66004L737.934350586 791.978397246L735.482340313 787.558604219L732.617907383 783.41248877L729.3521 779.55187875L725.695966367 775.988602012L721.660554688 772.734486406L717.256913164 769.801359785L712.49609 767.20105L706.208824062 764.3136625L703.576919492 763.369608672L700.9983575 762.6984475L698.25728082 762.255028516L695.137832187 761.99420125L686.90039 761.83972L679.379418809 762.022227656L672.669692969 762.622041875L669.549182322 763.102950469L666.547645332 763.717599531L663.637136106 764.475793672L660.78970875 765.3873375L657.977417371 766.462035625L655.172316074 767.709692656L649.471900156 770.763101875L643.464893848 774.626002031L636.92773 779.37683L630.875589766 783.893582539L625.886805625 787.401778438L621.760529922 789.986450117L618.295915 791.73263L615.292113203 792.725350508L613.900252334 792.965736128L612.548276875 793.049644063L609.863558359 792.790543086L607.03711 792.03308L605.309409329 791.372709702L603.636432129 790.53735793L602.001856248 789.502588364L600.389359531 788.243964688L598.782619827 786.737050581L597.16531498 784.957409727L595.521122839 782.880605806L593.83372125 780.4822025L590.264001113 774.622852461L586.325577344 767.183869063L581.887872715 757.969761758L576.82031 746.78504L569.137606445 729.602578379L562.760434688 715.728458281L557.419760586 704.678513105L552.84655 695.96857625L548.771768789 689.114481113L544.926382813 683.632061094L541.04135793 679.03714959L536.84766 674.84558L532.214460508 670.723400156L527.809736562 667.28726125L523.507412461 664.491905469L519.1814125 662.292075L514.705660977 660.642512031L509.954082187 659.49795875L504.80060043 658.813157344L499.11914 658.54285L499.11914 658.54285M63.380859 43.759644L63.380859 930.10535L920.375 930.10535L920.375 43.759644L63.380859 43.759644L63.380859 43.759644M501.80664 47.060425L519.794994746 47.3091935449L537.408239219 47.9286341094L554.56417752 48.9151225879L571.18061375 50.265034875L587.175352012 51.9747468652L602.466196406 54.0406344531L616.970951035 56.4590735332L630.60742 59.22644L638.113403171 60.985190896L645.535586777 62.8897555586L652.855843831 64.9326127622L660.056047344 67.1062412812L667.11807033 69.4031198901L674.023785801 71.8157273633L680.75506677 74.3365424751L687.29378625 76.958044L693.621817253 79.6727107124L699.721032793 82.4730213867L705.573305881 85.3514547974L711.160509531 88.3004897188L716.464516755 91.3126049253L721.467200566 94.3802791914L726.150433977 97.4959912915L730.49609 100.65222L733.631507814 103.146848897L736.682341694 105.794192385L739.648537921 108.59410785L742.530042773 111.546452676L745.326802534 114.651084247L748.038763481 117.907859949L750.665871898 121.316637165L753.208074063 124.877273281L755.665316257 128.589625681L758.037544761 132.45355175L762.52674582 140.635554434L766.675247485 149.422140408L770.48262 158.81216875L773.948433608 168.804498538L777.072258555 179.397988848L779.853665083 190.591498757L782.292223438 202.383887344L784.387503862 214.774013684L786.139076602 227.760736855L787.546511899 241.342915935L788.60938 255.51941L789.435885781 266.864578906L789.881451074 271.060224512L790.38518625 274.47945875L790.97456252 277.27844252L791.677051094 279.613336719L792.520123184 281.640302246L793.53125 283.5155L794.426624922 285.203725703L795.242604375 287.143546875L795.985457891 289.361092109L796.661455 291.88249L797.837958125 297.941358125L798.82227 305.52918L800.10699375 316.9207025L800.77734 321.7948L805.83933625 322.419265L817.68164 323.59558L824.349037187 324.367058125L830.1794925 325.30675L834.545201562 326.295641875L835.982587383 326.771346016L836.81836 327.21472L837.475010125 327.911360669L838.164417715 328.932349414L839.627486094 331.898796562L841.179526738 336.016912305L842.79250125 341.1895475L844.43837123 347.319553008L846.089098281 354.309779688L847.716644004 362.063078398L849.29297 370.4823L850.675821211 377.906455723L851.970852812 383.896383281L853.239303008 388.589037012L854.54241 392.12137125L855.941411992 394.630340332L856.696010552 395.543861169L857.497547187 396.252898594L858.353676675 396.774571897L859.272053789 397.126000371L860.260333306 397.324303308L861.32617 397.3866L863.190895566 397.625702383L864.794405156 398.352654688L866.143809355 399.581924648L867.24621875 401.32798L868.108743926 403.605288477L868.738495469 406.428317812L869.142583965 409.811535742L869.32812 413.76941L869.247673418 417.427043965L868.883880469 420.807001094L868.262570098 423.844552988L867.40957125 426.47497125L866.350712871 428.63352748L865.111823906 430.255493281L864.4329395 430.845027146L863.718733301 431.276140254L862.972433928 431.540741555L862.19727 431.63074L859.892147363 431.82510709L858.911326648 432.113212795L858.030738906 432.568730469L857.239688567 433.221758005L856.527480059 434.102393301L855.88341781 435.24073425L855.29680625 436.66687875L854.25315291 440.50296998L853.310955469 445.851450156L852.384649355 452.953102441L851.38867 462.04871L850.398632187 472.471394219L849.730605 481.37826375L849.443367812 487.823968906L849.460914023 489.828463066L849.5957 490.86316L849.996530625 491.50111041L850.77657625 492.368561406L853.28985 494.63806375L856.76659625 497.363864219L860.83789 500.23816L871.044290254 507.387346016L875.679639158 510.885170635L880.015987656 514.34602875L884.063011057 517.780579678L887.830384668 521.199482734L891.327783796 524.613397236L894.56488375 528.0329825L897.551359836 531.468897842L900.296887363 534.931802578L902.811141638 538.432356025L905.103797969 541.9812175L907.184531663 545.589046318L909.063018027 549.266501797L910.748932371 553.024243252L912.25195 556.87293L914.007409258 562.212864707L915.363519062 567.491687656L916.324384961 572.76822709L916.8941125 578.10131125L917.076807227 583.549768379L916.876574687 589.172426719L916.29752043 595.028114512L915.34375 601.17566L913.76603877 608.552807969L911.763295156 615.45435375L909.292116777 621.961262656L906.30910125 628.1545L902.770846191 634.115031094L898.633949219 639.92382125L893.855007949 645.661835781L888.39062 651.41004L882.277758125 657.920842969L876.16313 665.27721375L870.254534375 673.214645156L864.75977 681.46863L858.971338125 690.27637375L851.306395 701.3446475L842.763156875 713.258115L834.33984 724.60144L814.87109 750.2655L814.87109 761.75965L814.790666511 766.380137671L814.551350527 771.040340742L814.153261272 775.739801802L813.596517969 780.478063437L812.881239841 785.254668237L812.007546113 790.069158789L809.78538875 799.8099675L806.930999668 809.696830273L803.445332656 819.726087812L799.329341504 829.89408082L794.58398 840.19715L791.577211226 846.109240474L788.391752461 851.897458633L785.044041919 857.542963335L781.550517812 863.026913437L777.927618354 868.330467798L774.191781758 873.434785273L770.359446235 878.321024722L766.44705 882.970345L762.471031265 887.363904966L758.447828242 891.482863477L754.393879146 895.30837939L750.325622188 898.821611562L746.259495581 902.003718853L742.211937539 904.835860117L738.199386274 907.299194214L734.23828 909.37488L730.170801299 911.212805815L725.936849609 912.921919805L721.528427178 914.503533032L716.93753625 915.958956562L712.156179072 917.28950146L707.176357891 918.496478789L701.990074951 919.581199614L696.5893325 920.544975L685.112478047 922.114933711L672.6818125 923.216843437L659.233353828 923.861192695L644.70312 924.05847L631.322799434 923.764346328L618.584025469 922.921298125L612.4506799 922.293023955L606.472274707 921.526434609L600.646994465 920.62116874L594.97302375 919.576865L589.448547136 918.393162041L584.071749199 917.069698516L578.840814514 915.606113076L573.753927656 914.002044375L568.809273201 912.257131064L564.005035723 910.371011797L559.339399797 908.343325225L554.81055 906.17371L546.945561719 901.992667812L543.911050254 900.118106758L541.27390625 898.231245L538.883163965 896.214876992L536.587857656 893.951797187L534.237021582 891.324800039L531.67969 888.21668L527.682365938 883.521313672L523.795438125 879.627108125L521.852625254 877.959097725L519.888514375 876.465766016L517.886806465 875.13857583L515.8312025 873.96899L513.705403457 872.948471357L511.493110313 872.068482734L509.178024043 871.320486963L506.743845625 870.695946875L501.45301625 869.783085078L495.49023 869.2616L488.698311445 869.067694121L485.692922241 869.152162483L482.905392188 869.377837344L480.30383061 869.759912927L477.856346836 870.313583457L475.53105019 871.054043157L473.29605 871.99648625L471.119455591 873.15610696L468.969376289 874.548099512L466.813921421 876.187658127L464.621200313 878.089977031L459.99639668 882.743672598L454.83984 888.63074L449.625151563 894.495530625L444.30686 899.9122675L439.507988438 904.278573125L437.498029883 905.87957125L435.85156 906.99207L431.778377715 909.159902969L427.007319844 911.31093875L421.610913613 913.421682656L415.66168625 915.46864L409.23216498 917.428316094L402.394877031 919.27721625L395.222349629 920.991845781L387.78711 922.54871L383.341763347 923.324724639L378.381937246 924.028582891L367.226197344 925.21114125L354.934591582 926.079007109L342.12182125 926.6148025L329.402587637 926.801149453L317.391592031 926.62067L306.703535723 926.055986172L302.047703958 925.624137002L297.95312 925.08972L297.95112 925.08972L288.459659634 923.392084456L279.415336289 921.300125645L270.801262222 918.80103405L262.600549688 915.882000156L254.796310942 912.530214446L247.371658242 908.732867402L240.309703843 904.477149509L233.59356 899.75025125L227.20633897 894.539363108L221.131153008 888.831675566L215.35111437 882.614379109L209.849335312 875.874664219L204.608928091 868.599721379L199.613004961 860.776741074L194.844678179 852.392913787L190.28706 843.43543L185.441648027 832.73993043L181.200109219 822.027042812L177.575057988 811.346433789L174.57910875 800.74777L172.224875918 790.280718086L171.292345159 785.112067407L170.524973906 779.994944687L169.924338962 774.935558257L169.492017129 769.940116445L169.229585208 765.014827583L169.13862 760.1659L169.077225371 756.47793793L168.809479844 753.399060937L168.198340957 750.657332852L167.10676625 747.9808175L165.397713262 745.097578711L162.934139531 741.735680312L159.579002598 737.623186133L155.19526 732.48816L150.317779297 726.672965742L145.35272625 720.453240937L140.346509453 713.893696289L135.3455375 707.0590425L130.396218984 700.013990273L125.5449625 692.823250312L120.838176641 685.55153332L116.32227 678.26355L111.143235609 670.130628125L106.249047375 663.3109375L103.904591631 660.388057812L101.626332703 657.786890625L99.4125990176 655.5052375L97.261719 653.5409L94.2500981812 650.813681489L91.3446696836 647.861618633L88.5544623208 644.702700444L85.8885049062 641.354915937L83.3558262534 637.836254126L80.9654551758 634.164704023L78.7264204868 630.358254644L76.647751 626.434895L74.7384755288 622.412614106L73.0076228867 618.309400977L71.4642218872 614.143244624L70.1173013438 609.932134062L68.9758900698 605.694058306L68.0490168789 601.447006367L67.3457105845 597.208967261L66.875 592.99793L66.6822320625 587.989852676L66.8934248125 582.627789531L67.4870030938 577.021981309L68.44139175 571.28266875L69.735015625 565.520092598L71.3462995625 559.844493594L73.2536684063 554.36611248L75.435547 549.19519L76.6161206934 546.936530586L78.143531125 544.476571406L82.1183138125 539.072868125L87.1187982812 533.224308906L92.90388775 527.1711225L99.2324854375 521.153537656L105.863494562 515.411783125L112.555818344 510.186087656L119.06836 505.71668L134.35352 495.9159L135.119133145 495.248239844L135.663667031 494.29998125L135.98605584 492.855457031L136.08523375 490.699L135.960134941 487.614942969L135.609693594 483.38761875L134.22852 470.6405L131.735745156 449.237869375L130.82883873 442.842035469L129.96050375 438.6254475L129.496796829 437.172400039L128.989928301 436.069799219L128.422296677 435.252856758L127.776300469 434.656784375L126.17880834 433.868096719L124.05664 433.18543L121.783866914 432.258652266L119.902800313 431.077664375L118.38664668 429.588421797L117.2086125 427.73688L116.341904258 425.468994453L115.759728438 422.730720625L115.435291523 419.468013984L115.3418 415.62683L115.487737031 411.990095508L115.911150625 408.829925313L116.627119531 406.119744336L117.6507225 403.8329775L118.997038281 401.943049727L120.681145625 400.423385938L122.718123281 399.247411055L125.12305 398.38855L129.30006 397.171455L131.35742 396.42761L131.87306 394.489805313L132.8719475 389.51472L135.74414 373.46668L137.602401309 363.122433828L139.428204844 354.122983125L141.22792877 346.447647109L143.00795125 340.075745L144.774650449 334.986596016L146.534404531 331.159519375L147.41367033 329.712795439L148.29359166 328.573834297L149.174965793 327.74005085L150.05859 327.20886L152.604615156 326.512977188L156.89037125 325.75689L162.317854219 325.031965313L168.28906 324.42957L182.94141 323.19324L184.09375 316.6698L184.549146094 313.440889063L184.93630625 309.471025L185.3418 301.32215L185.611909375 296.716146875L185.935045547 294.69415625L186.40688 292.7802125L187.044895703 290.914845313L187.866575625 289.038584375L190.13086 285.0155L191.606322363 282.571738203L192.754140781 280.3256225L193.629547246 277.982342422L194.28777375 275.2470875L194.784052285 271.825047266L195.173614844 267.42141125L195.85352 254.49011L196.505883909 242.900529124L197.413551113 231.75464627L198.580152332 221.040774226L200.009318281 210.747225781L201.70467968 200.862313723L203.669867246 191.37435084L205.908511697 182.271649919L208.42424375 173.54252375L211.220694124 165.17528512L214.301493535 157.158246816L217.670272703 149.479721628L221.330662344 142.128022344L225.286293176 135.09146175L229.540795918 128.358352637L234.097801287 121.917007791L238.96094 115.75574L241.708314552 112.629628211L244.697435439 109.556754701L247.923747885 106.53873326L251.382697109 103.577177674L255.069728336 100.673701731L258.980286787 97.8299192195L263.109817684 95.0474439267L267.45376625 92.3278896406L272.007577706 89.672870149L276.766697275 87.0839992395L286.882641641 82.1111583184L297.765161123 77.4222771794L309.3778175 73.030266125L321.684172549 68.9480354573L334.647788047 65.1884954785L348.232225771 61.764556491L362.4010475 58.6891287969L377.11781501 55.9751226985L392.346090078 53.635448498L408.049434482 51.6830164978L424.19141 50.130737L443.74697625 48.7324500625L463.2642775 47.7573615L482.6489525 47.2013826875L501.80664 47.060425L501.80664 47.060425M500.20312 53.605347L480.016875312 53.6750822344L460.735245 54.020445375L443.225152187 54.6509350781L428.35352 55.57605L416.347354504 56.6598009983L404.576467129 57.942890877L393.057232791 59.4211920242L381.806026406 61.0905768281L370.839222893 62.946917677L360.173197168 64.986086959L349.824324148 67.2039570623L339.80897875 69.596400375L330.143535891 72.1592892854L320.844370488 74.8884961816L311.927857458 77.7798934519L303.410371719 80.8293534844L295.308288186 84.0327486672L287.637981777 87.3859513887L280.41582741 90.8848340369L273.6582 94.525269L268.212820652 97.8501820422L262.969490996 101.511122104L257.931390491 105.503366148L253.101698594 109.822191141L248.483594763 114.462874045L244.080258457 119.420691826L239.894869133 124.690921448L235.93060625 130.268839875L232.190649265 136.149724072L228.678177637 142.328851002L225.396370823 148.801497631L222.348408281 155.562940922L219.53746947 162.60845784L216.966733848 169.93332535L214.639380872 177.532820415L212.55859 185.40222L211.080530076 191.853261301L209.662933262 198.816591816L207.060139219 213.767662656L204.852228379 229.230516855L203.14122125 244.18023875L202.02913834 257.591912676L201.729574875 263.400695505L201.618000156 268.440622969L201.707166746 272.583580608L202.009827207 275.701453965L202.538734104 277.666128582L202.892015142 278.175980594L203.30664 278.34949L211.778525 277.1774925L229.24219 274.35926L244.073324536 271.969212061L258.992108789 269.746033203L274.023769976 267.687870869L289.193535312 265.7928725L304.526632017 264.059185537L320.048287305 262.484957422L335.783728394 261.068335596L351.7581825 259.8074675L367.996876841 258.700500576L384.525038633 257.745582266L401.367895093 256.94086001L418.550673438 256.28448125L436.098600884 255.774593428L454.036904648 255.409343984L491.18555 255.10535L530.370480742 255.359849883L549.035765864 255.703893726L567.170483438 256.199005938L584.840297925 256.850090845L602.110873789 257.662052773L619.047875493 258.63979605L635.7169675 259.788225L652.183814272 261.11224395L668.514080273 262.616757227L684.773429966 264.306669155L701.027527813 266.186884062L717.342038276 268.262306274L733.78262582 270.537840117L750.414954907 273.018389917L767.30469 275.70886L774.514720156 276.808156875L778.75146625 277.14485L780.030551035 277.022697891L780.897146719 276.704468125L781.461530605 276.188351797L781.83398 275.47254L782.035859436 274.313552612L782.120185176 272.275549023L781.970630156 265.955394688L781.454224121 257.297879883L780.63987625 247.0888075L779.596495723 236.11398043L778.392991719 225.159201563L777.098273418 215.010273789L775.78125 206.453L774.246457085 198.142863311L772.603855742 190.249133359L770.8454827 182.754185322L768.963374687 175.640394375L766.949568433 168.890135693L764.796100664 162.485784453L762.49500811 156.40971583L760.0383275 150.644305L757.418095562 145.171927139L754.626349023 139.974957422L751.655124614 135.035771025L748.496459062 130.336743125L745.142389097 125.860248896L741.584951445 121.588663516L737.816182837 117.504362158L733.82812 113.58972L727.869140713 108.305700444L721.574282891 103.296357268L714.921247217 98.5532068367L707.887734375 94.0677655156L700.451445049 89.8315496692L692.590079922 85.8360756621L684.281339678 82.0728598591L675.502925 78.533418625L666.232536572 75.2092683245L656.447875078 72.0919253223L646.126641201 69.1729059832L635.246535625 66.4437266719L623.785259033 63.8959037532L611.720512109 61.5209535918L599.029995537 59.3103925525L585.69141 57.255737L578.983417285 56.4568068438L570.678020781 55.750844625L561.005630449 55.1403137188L550.19665625 54.6276775L526.090596094 53.905942625L500.20312 53.605347L500.20312 53.605347M480.75391 293.20691L462.646676855 293.29251293L445.296118594 293.562924062L428.374303223 294.029546914L411.55329875 294.703785L394.505173184 295.597041836L376.901994531 296.720720938L358.415830801 298.08622582L338.71875 299.70496L313.838334805 302.11372627L288.785512187 305.036589531L264.580957852 308.305008965L242.2453475 311.75044375L222.799356836 315.204353066L214.478930044 316.881816667L207.263661563 318.498196094L201.281135854 320.032423743L196.658937383 321.463432012L193.52465061 322.770153298L192.555344256 323.370322697L192.00586 323.93152L191.751793359 325.279616563L191.47252625 328.416916875L190.8749325 339.2467925L190.2861625 354.796474375L189.7793 373.44129L189.202268125 394.316755L188.422485 415.9401575L187.542299375 435.75943875L186.66406 451.22254L185.870569844 464.345508125L185.22099625 477.79314L184.782212031 489.986231875L184.62109 499.34558L184.744789844 509.556010156L184.975616348 513.199034434L185.38682875 516.23688125L186.029228184 518.94676291L186.953615781 521.605891719L188.210792676 524.49147998L189.85156 527.88074L192.293711875 532.47574625L195.07672 537.18176L197.857988125 541.44624875L200.29492 544.71668L202.32348709 547.045977285L203.948917344 548.573986406L204.631789666 549.021109749L205.239477988 549.248233262L205.780515715 549.248797683L206.26343625 549.01624375L206.696772996 548.5440122L207.089059355 547.82554377L207.784614531 545.623659219L208.418369004 542.358115996L209.05859 537.97644L209.559344531 532.98544L209.496078418 531.073220625L209.15873125 529.32071L208.498563926 527.556049375L207.466837344 525.60738L204.09375 520.47058L201.461661973 516.36069957L199.440537656 512.404881563L198.646381311 510.39288188L197.989719199 508.309160898L197.465469089 506.116972983L197.06854875 503.7795725L196.636368457 498.522151289L196.652520469 492.242932188L197.076346934 484.647950117L197.86719 475.44324L199.879875 452.62418L201.80859 428.37097L202.743648594 416.297114219L203.565941875 407.26978L204.326586094 401.155652031L204.699763633 399.149379355L205.0766975 397.821415L205.463777227 397.155094551L205.663118516 397.064843162L205.867392344 397.133753594L206.293932383 397.740727715L206.749786875 398.9593525L207.774997344 403.164896406L208.99414 409.61707L211.834733418 425.083453711L214.452949844 437.955442813L216.952999785 448.555684258L219.43909375 457.206825L220.709473025 460.90230978L222.015442246 464.231511992L223.370027727 467.234762505L224.786255781 469.952392188L226.277152722 472.424731909L227.855744863 474.692112539L229.535058518 476.794864946L231.32812 478.77332L234.595463906 481.961575352L238.08531875 484.990090313L241.671779219 487.777075742L245.22894 490.2407425L248.630895781 492.299301445L251.75174125 493.870963438L254.465571094 494.873939336L256.64648 495.22644L258.81870208 494.965778672L261.829586641 494.212089375L265.588396162 493.007814141L270.004393125 491.395395L280.444999297 487.115893125L292.425505 481.71312L305.220010078 475.526611875L318.102614375 468.895905L330.347417734 462.160535625L341.22852 455.66004L350.024425313 449.851554063L361.8723375 441.6565175L375.220605938 432.164412188L388.51758 422.46472L409.418686992 407.174047227L418.400393774 400.787168784L426.533579063 395.174828438L433.916275093 390.288700786L440.646514102 386.08046043L446.822328325 382.501781968L452.54175 379.50434L457.902811362 377.039809126L463.003544648 375.059863945L467.941982095 373.516179058L472.816155937 372.360429063L477.724098413 371.54428856L482.763841758 371.019432148L488.033418208 370.737534429L493.63086 370.65027L498.466989414 370.71242906L503.018109687 370.933972012L507.363288867 371.351747512L511.581595 372.002604219L515.752096133 372.923390789L519.953860313 374.150955879L524.265955586 375.722148147L528.76745 377.67381625L533.537411602 380.042808845L538.654908437 382.86597459L544.199008555 386.180162141L550.24878 390.022220156L564.181609063 399.437342207L581.08594 411.40613L604.105588281 427.796416914L623.52013375 441.295971563L640.085236094 452.360462305L654.556555 461.4455575L661.243189316 465.38822813L667.689750156 469.006925508L673.99069498 472.358608179L680.24048125 475.500234688L692.964407969 481.381153398L706.61719 487.10535L728.00195 495.73426L737.98828 489.6659L742.588130918 486.741060156L746.622387969 483.8821425L750.149692598 481.028812344L753.22868625 478.120735L755.918010371 475.097575781L758.276306406 471.899L760.362215801 468.464672969L762.23438 464.73426L763.610789687 461.081195352L765.24542625 455.670766563L767.067568437 448.807121367L769.006495 440.7944075L772.95181625 422.538364688L774.816768437 412.903331211L776.51562 403.33582L776.988192031 400.957359063L777.49091875 399.12496L777.963516094 398.019573438L778.16967748 397.796056914L778.3457 397.82215L778.629015991 399.048484609L779.083520273 402.1771825L780.401521562 413.1078325L783.94149 446.4253L787.292450937 481.2331825L788.374192852 494.02685125L788.78125 500.99011L788.707965742 502.932175977L788.471744687 504.789280313L788.048034414 506.624282617L787.4122825 508.5000425L786.539936523 510.47941957L785.406444062 512.625273438L782.25781 517.66785L779.068420625 522.768629688L777.934768984 524.918317148L777.071175 526.89782L776.449660391 528.779850977L776.042246875 530.637122813L775.820956172 532.542348242L775.75781 534.56824L776.019303281 540.272925937L776.70381625 544.8646025L777.17570502 546.612594492L777.718548594 547.925772813L778.320746934 548.751950352L778.9707 549.03894L779.431387312 548.796439697L780.150312559 548.104017734L782.223366719 545.5798825L784.910842207 541.887481641L787.93371875 537.4477625L793.869593906 528.01015875L796.224551973 523.854168828L797.79883 520.63465L798.294971108 519.190868984L798.732922617 517.383648281L799.433360937 512.740971875L799.898353164 506.830788906L800.1261075 499.7772675L800.114832148 491.704575781L799.862735312 482.736881875L799.368025195 472.998353906L798.62891 462.61316L797.905595781 451.279014375L797.05623375 434.28109L795.40234 392.49597L793.92017625 353.29569L793.257070469 339.096061875L792.76172 331.17957L791.83398 321.23035L780.93164 318.63855L768.879064915 315.926389189L756.164254785 313.359451641L742.802661677 310.939210928L728.809737656 308.667140625L714.200934788 306.544714307L698.991705137 304.573405547L683.197500769 302.75468792L666.83377375 301.090035L649.915976145 299.580920361L632.45956002 298.228817578L614.479977439 297.035200225L595.992680469 296.001541875L577.013121174 295.129316104L557.556751621 294.419996484L537.639023875 293.875056592L517.27539 293.49597L480.75391 293.20691L480.75391 293.20691M543.27539 320.24402L552.607423594 320.396936562L563.58817375 320.90555L576.053644531 321.767480937L589.83984 322.98035L603.256462188 324.129509375L621.10259 325.457105L660.77344 327.99011L701.641254844 330.402033437L728.17269125 332.27232L736.93813248 333.076568008L743.170517031 333.832069062L747.220190879 334.567710586L749.4375 335.31238L750.723222825 336.285938896L751.794433066 337.700565703L752.652766501 339.534585596L753.299858906 341.76632375L753.737346057 344.374105342L753.96686373 347.336255547L753.990047703 350.631099541L753.80853375 354.2369625L753.423957649 358.1321696L752.837955176 362.295046016L752.052162107 366.703916924L751.068214219 371.3371075L748.51239709 381.189748359L745.18359 391.67957L740.710933008 403.999948906L736.378947187 414.595281875L734.250222056 419.270480938L732.138084023 423.543728281L730.036339526 427.424793828L727.938795 430.9234475L725.83925688 434.049459219L723.731531602 436.812598906L721.609425601 439.222636484L719.466745313 441.289341875L717.297297173 443.022485L715.094887617 444.431835781L712.853323081 445.527164141L710.56641 446.31824L706.817468125 447.337582187L705.533651484 447.586078789L704.40182 447.6560925L703.240635391 447.544348398L701.868759375 447.247571562L697.76758 446.08582L694.911705684 444.910939453L690.045953594 442.423390625L683.01994252 438.535412734L673.68329125 433.159245L647.476543281 417.591296875L610.22266 395.01746L598.633730625 388.101175625L585.1611725 380.2878275L571.477170625 372.536073125L559.25391 365.80457L548.584005781 359.932784375L539.12957125 354.5215325L531.916993594 350.171721875L527.97266 347.48426L526.344474126 345.974200986L524.916836289 344.364941172L523.690794292 342.675500146L522.667395938 340.9248975L521.847689028 339.132152822L521.232721367 337.316285703L520.823540757 335.496315732L520.621195 333.6912625L520.626731899 331.920145596L520.841199258 330.201984609L521.265644878 328.555799131L521.901116562 327.00060875L522.748662114 325.555433057L523.809329336 324.239291641L525.08416603 323.071204092L526.57422 322.07019L527.533400488 321.650088672L528.834295156 321.285005L532.42263625 320.7194725L537.262061719 320.37275625L543.27539 320.24402L543.27539 320.24402M442.65039 320.74597L449.839802188 320.9554075L452.70771457 321.21159625L455.1323725 321.56878L457.144731992 322.02697L458.775749063 322.5861775L460.056379727 323.24641375L461.01758 324.00769L462.373686406 325.757788437L463.40085125 327.912495L464.051810469 330.342826563L464.2793 332.9198L464.192362612 334.663588982L463.912621523 336.345237637L463.411683345 337.988412903L462.661154688 339.616781719L461.632642163 341.254011023L460.297752383 342.923767754L458.628091958 344.64971885L456.5952675 346.45553125L454.17088562 348.364871892L451.32655293 350.401407715L444.264461563 354.950732656L435.181846289 360.292841582L423.85156 366.61707L409.947795 374.399502813L394.64207 383.20967L379.7916775 391.965724687L367.25391 399.58582L323.387742656 426.736038125L309.24158748 435.284350234L299.07450375 441.152745L291.977330801 444.844682891L289.295848162 446.031811904L287.040907969 446.863624375L285.098865139 447.403052861L283.35607459 447.713029922L280.01367 447.89636L277.406263125 447.668985L274.5258525 447.0283525L271.722358125 446.07270125L269.3457 444.90027L267.155916719 443.432404507L265.022945938 441.730373398L262.94207625 439.785561606L260.90859625 437.589354062L258.917794531 435.133135698L256.964959687 432.408291445L255.045380312 429.406206235L253.154345 426.118265L251.287142344 422.535852671L249.439060938 418.65035418L245.78141625 409.935638437L242.143719688 399.905197227L238.48828 388.49011L236.269512402 380.771981484L234.328817969 373.222604375L232.695759238 366.011176328L231.39989875 359.306895L230.470799043 353.278958047L229.938022656 348.096563125L229.831132129 343.928907891L229.946632356 342.278481924L230.17969 340.94519L230.81320125 339.329447813L231.833345 337.7381875L233.09941375 336.354433438L234.4707 335.36121L235.663535195 334.972916758L237.785936563 334.553749063L244.3448125 333.6758125L253.198077188 332.833444687L263.39648 332.13269L320.78125 328.9159L354.22339875 326.722445L389.97461 323.94324L407.226174844 322.53949L421.59101875 321.5383925L433.316603281 320.94040125L442.65039 320.74597L442.65039 320.74597M801.32031 330.53113L802.45703 386.38074L802.99697041 407.398708437L803.727553906 427.589239375L804.613950137 446.42978625L805.62132875 463.3978025L806.714859395 477.970741563L807.859711719 489.626056875L809.021055371 497.841201875L809.59702696 500.495414707L810.16406 502.09363L811.030085781 503.27301125L812.12117625 504.0884175L813.333318594 504.4850425L814.5625 504.40808L819.2106275 503.5643525L826.51758 502.6034L835.7168 501.55847L839.05273 488.20105L840.776325994 480.669050061L842.248675605 472.893338926L843.470064407 464.890785867L844.440777969 456.678260156L845.161101863 448.272631067L845.63132166 439.690767871L845.851722932 430.949539841L845.82259125 422.06581625L845.544212185 413.05646637L845.016871309 403.938359473L844.240854192 394.728364832L843.216446406 385.443351719L841.943933523 376.100189407L840.423601113 366.715747168L838.655734749 357.306894275L836.64062 347.8905L835.340619023 342.632384375L833.995034687 338.547919375L833.247419194 336.90028877L832.419132383 335.491450312L831.487082427 334.303197168L830.4281775 333.3173225L829.219325776 332.515619473L827.83743543 331.87988125L826.259414634 331.391900996L824.462171562 331.033471875L820.117651289 330.632439687L814.61914 330.53113L801.32031 330.53113L801.32031 330.53113M168.125 332.16199L160.395345469 332.25088375L157.894198145 332.433768203L156.07639375 332.7727375L154.772599512 333.315636484L153.813482656 334.11031L153.02971041 335.204602891L152.25195 336.64636L151.097068398 339.487623164L149.750630937 343.752600313L148.278086133 349.16069793L146.7448825 355.4313225L143.758292813 369.437778438L142.435803789 376.612422773L141.31445 383.52722L140.512990234 391.508789961L139.93312875 402.539668438L139.576328516 415.57108332L139.4440525 429.5542625L139.537763672 443.440433867L139.858925 456.180825313L140.408999453 466.726664727L140.770336279 470.848886138L141.18945 474.02918L143.1860225 484.0003375L145.48438 493.08972L146.456587559 496.16200793L147.438363594 498.548412187L148.605303145 500.366180977L150.13300125 501.7325625L152.197052949 502.764804961L154.973053281 503.580156562L158.636597285 504.295865508L163.36328 505.02918L172.70312 506.43933L173.209094219 506.406937813L173.75393625 506.16844L174.272395156 505.763629687L174.69922 505.2323L175.044518219 504.367968233L175.401504231 502.895024302L176.143332754 498.264270664L176.910291814 491.621980522L177.687967656 483.250095312L179.217814668 462.44530543L180.61756375 438.1054325L181.771904863 412.486008008L182.565527969 387.842563438L182.883123027 366.430630273L182.827375652 357.641334058L182.60938 350.50574L181.71289 332.16199L168.125 332.16199L168.125 332.16199M743.78516 339.05847L743.269830879 339.371248418L742.699340781 340.372914844L742.007756855 342.250828535L741.12914625 345.19234875L738.547113594 355.015645781L734.42578 371.34168L731.379210547 382.966123906L728.438671875 393.246735625L725.572798516 402.264725156L722.750225 410.1013025L719.939585859 416.837677656L717.109515625 422.555060625L714.228648828 427.334661406L711.26562 431.25769L707.27631375 436.234305L706.062847969 437.993765313L705.61719 438.93152L705.708555374 439.380271816L705.972427207 439.663657656L706.39346907 439.790441855L706.956344531 439.76938875L708.446250527 439.318827969L710.31945375 438.38209L712.453262754 437.029289531L714.724986094 435.33054125L717.011932324 433.355959844L719.19141 431.17566L721.240338347 428.772309006L723.291056777 426.009281113L725.335777874 422.905838328L727.366714219 419.481242656L729.376078396 415.754756106L731.356082988 411.745640684L735.19686375 402.95657125L738.826757168 393.26813041L742.183463906 382.834414219L745.204684629 371.80951873L747.82812 360.34754L748.421276836 356.899146094L748.747544063 353.629605625L748.812103008 350.581767969L748.620135 347.7984825L748.176821367 345.322598594L747.487343438 343.196965625L746.556882539 341.464432969L745.39062 340.16785L744.500365 339.38922875L744.130622812 339.140130156L743.78516 339.05847L743.78516 339.05847M240.60547 340.36902L239.67674 340.47200625L238.50195 340.87683L237.712757543 341.383748019L237.077541519 342.2258022L236.591011756 343.384111477L236.247878086 344.839794785L236.042850339 346.57397106L235.970638345 348.567759236L236.203500938 353.258647031L236.904144507 358.761409651L238.030247695 364.924998574L239.539489146 371.598365281L241.3895475 378.63046125L243.538101401 385.870237961L245.942829492 393.166646895L248.561410415 400.368639529L251.351522813 407.325167344L254.270845327 413.885181819L257.277056602 419.897634434L260.327835278 425.211476667L263.38086 429.67566L264.98109207 431.560102891L266.846547813 433.413363125L268.850874023 435.146725547L270.8677175 436.671475L272.770725039 437.898896328L274.433543438 438.740274375L275.729819492 439.106893984L276.201018765 439.084445889L276.5332 438.91004L276.310012969 437.8695525L275.26234625 435.47083L271.37109 428.02722L267.322770645 420.277830488L263.322820781 411.649333281L259.453602715 402.371582871L255.79747875 392.67443375L252.436811191 382.78774041L249.453962344 372.941357344L246.931294512 363.365139043L244.95117 354.28894L243.626187813 347.566635L242.6185775 343.3353125L242.159567852 341.999348203L241.690838438 341.10082375L241.18270168 340.577970547L240.60547 340.36902L240.60547 340.36902M491.79688 376.26746L485.481480937 376.390357969L479.3702825 376.82603875L473.691132812 377.570807656L468.67188 378.62097L462.012791719 380.596817891L458.735292891 381.783858369L455.414510625 383.15207875L451.991959687 384.737805693L448.409154844 386.577365859L440.5288425 391.1632925L431.305691719 397.200471953L420.271820625 404.9795175L406.959347344 414.791042422L390.90039 426.92566L372.351216191 440.841405273L356.029845781 452.570311562L348.515744358 457.724690151L341.331982793 462.46434707L334.403024089 466.833278345L327.65333125 470.87548L321.007367278 474.634948062L314.389595176 478.155678555L307.724477947 481.481667505L300.936478594 484.656910937L293.95006012 487.725404878L286.689685527 490.731145352L271.04492 496.73035L258.04776252 501.592649766L247.534588281 505.757009375L239.19021084 509.400594297L232.69944375 512.70057L230.050668323 514.277068604L227.747100566 515.834101953L225.749342175 517.393815732L224.017994844 518.978355625L222.513660266 520.609867314L221.196940137 522.310496484L220.02843615 524.102388818L218.96875 526.00769L217.59909373 529.13772084L216.552432344 532.577977344L215.831439473 536.281305488L215.43878875 540.20055125L215.377153809 544.288560605L215.649208281 548.498179531L216.257625801 552.782254004L217.20508 557.09363L218.394123809 561.458963184L219.671309844 565.439211094L221.27150377 569.50773377L223.42957125 574.13789125L226.380377949 579.803043574L230.358789531 586.976550781L242.33789 607.74207L254.07939375 628.0618425L260.31445 639.13269L261.337203594 640.873886875L262.41136875 642.29978L263.409242031 643.263223125L264.20312 643.61707L266.050583594 643.031460625L269.91723375 641.436955L281.44531 636.19519L288.221781602 632.883193938L294.781612656 629.458899629L301.174522539 625.882210388L307.450230625 622.113029531L313.658456289 618.111260374L319.848918906 613.83680623L326.071337852 609.249570417L332.3754325 604.30945625L338.810922227 598.976367043L345.427526406 593.210206113L352.274964414 586.970876775L359.402955625 580.218282344L366.861219414 572.912326135L374.699475156 565.012911465L391.71484 547.27332L407.879608105 530.333629082L421.703789219 516.375994531L427.855050339 510.420137786L433.561433535 505.095422402L438.869695081 500.363724138L443.82659125 496.18691875L448.478878318 492.526881995L452.873312559 489.345489629L457.056650247 486.60461741L461.075647656 484.266141094L464.977061062 482.291936438L468.807646738 480.643879199L472.614160959 479.283845134L476.44336 478.17371L481.188732188 477.078049844L485.707574375 476.318450625L490.06878625 475.896309219L494.3412675 475.8130225L498.593917813 476.069987344L502.895636875 476.668600625L507.315324375 477.610259219L511.92188 478.89636L515.409626021 480.036434563L518.745559414 481.283691348L522.011891929 482.706148748L525.290835313 484.371825156L528.664601313 486.348738967L532.21540168 488.704908574L536.025448159 491.508352371L540.1769525 494.82708875L544.75212645 498.729136106L549.833181758 503.282512832L561.841783438 514.615327969L576.860451523 529.369681309L595.54688 548.08972L615.314845215 567.879395078L631.372096719 583.5867625L644.588200801 595.917474297L650.402562024 601.037100596L655.83272375 605.5771825L660.987381765 609.625926514L665.975231855 613.271539141L670.904969807 616.602226885L675.885291406 619.70619625L681.024892439 622.67165374L686.432468691 625.586805859L698.48633 631.61902L714.02271375 638.9293975L719.074517656 641.14429375L721.31641 641.94715L721.888402214 641.394021526L723.009995527 639.821975645L726.654660469 634.052918906L737.81862875 615.03745625L750.851115156 591.809357969L756.831427754 580.774506699L761.79492 571.27722L763.57676449 567.542891262L765.118876387 563.82953541L766.421302083 560.147096111L767.484087969 556.505517031L768.307280437 552.914741838L768.890925879 549.384714199L769.235070686 545.925377781L769.33976125 542.54667625L769.205043962 539.258553274L768.830965215 536.07095252L768.217571399 532.993817654L767.364908906 530.037092344L766.273024128 527.210720256L764.941963457 524.524645059L763.371773284 521.988810417L761.5625 519.61316L759.121640645 517.01622459L756.255360781 514.587611094L752.817231465 512.252507363L748.66082375 509.93610125L743.639708691 507.563580605L737.607457344 505.060133281L730.417640762 502.350947129L721.92383 499.36121L711.088171367 495.409267813L699.864690312 490.87751L688.466510352 485.870477188L677.106755 480.49271L665.998547773 474.848749063L655.355012188 469.043135L645.389271758 463.180408438L636.31445 457.36511L626.840510156 450.785644531L614.30504125 441.79033625L600.340194219 431.562884844L586.57812 421.28699L574.294370625 412.231976934L562.807963125 404.222981719L552.112324687 397.256294082L542.2008825 391.32820375L533.06706375 386.435000449L528.78970916 384.375321975L524.704295625 382.572973906L520.810001543 381.027492458L517.106005312 379.738413848L513.591485332 378.70527429L510.26562 377.92761L506.046049844 377.218952656L501.48972125 376.70719375L496.704157031 376.390605469L491.79688 376.26746L491.79688 376.26746M845.73242 502.93933L839.67773 505.52918L836.587245469 506.678176875L832.64804125 507.8929975L828.366261406 509.028936875L824.24805 509.94129L820.607299063 510.758132188L817.6257025 511.633975L815.611039688 512.463767813L815.062489492 512.828567148L814.87109 513.14246L815.107030984 513.804884282L815.79185334 514.768076289L818.370138594 517.484978438L822.329938613 521.069596367L827.39524625 525.29836L833.290054355 529.947699258L839.738355781 534.794044063L846.464143379 539.613824336L853.19141 544.18347L861.990881504 550.08077043L869.359435156 555.266715313L875.459005918 559.886870039L880.45152875 564.0868L884.498938613 568.012070586L887.763170469 571.808247188L890.406159277 575.620895195L892.58984 579.59558L894.505448164 584.179881875L895.899731563 589.037883125L896.772703555 594.171639688L897.1243775 599.5832075L896.954766758 605.2746425L896.263884688 611.248000625L895.051744648 617.505337812L893.31836 624.04871L890.003897031 635.286275625L889.139548027 638.526536094L888.78456375 640.4133625L888.793577854 640.903670938L888.924526504 641.120940469L889.175607488 641.086944297L889.545018594 640.823455625L892.16992 637.91004L894.175443906 635.266755625L896.54048125 631.686035L898.969750469 627.637726875L901.16797 623.59168L903.452944727 618.737412969L905.335332812 613.879689375L906.831325117 608.928512969L907.9571125 603.7938875L908.72888582 598.385816719L909.162835937 592.614304375L909.275153711 586.389354219L909.08203 579.62097L908.491081719 570.780561562L908.056996973 567.377822461L907.45972125 564.3586725L906.646166621 561.502070977L905.563245156 558.586977188L902.37695 551.69715L900.886182947 548.867410396L899.22224873 546.057749727L897.389010891 543.27187396L895.390332969 540.513489062L890.912111035 535.094015742L885.81849125 529.8289775L880.140381934 524.74802207L873.908691406 519.880797187L867.154327988 515.256950586L859.9082 510.90613L845.73242 502.93933L845.73242 502.93933M139.3457 504.32019L127.21289 510.7323L122.775167352 513.187378376L118.492397563 515.777613887L114.370926617 518.496288977L110.4171005 521.336686094L106.637265195 524.292087683L103.037766688 527.355776191L99.6249509609 530.521034065L96.405164 533.78114375L93.3847517891 537.129387693L90.5700603125 540.55904834L87.9674355547 544.063408137L85.5832235 547.635749531L83.4237701328 551.269354968L81.4954214375 554.957506895L79.8045233984 558.693487756L78.357422 562.47058L77.6130309805 564.828398281L76.9866812188 567.31208625L76.06687025 572.83577L75.5555186563 579.39902875L75.410156 587.35926L75.5367181055 593.288817051L75.9002056563 598.732804531L76.5260455039 603.803724434L77.4396645 608.61407875L78.6664894961 613.276369473L80.2319473438 617.903098594L82.1614648945 622.606768105L84.480469 627.49988L85.93525925 630.138651367L87.6848484375 632.911309687L91.53437525 638.1909025L93.3672886875 640.364144648L94.9609526875 642.003889062L96.1818551563 642.94328957L96.6107982871 643.098221431L96.896484 643.0155L96.9538830547 642.622562656L96.8309449375 641.783813125L96.1053305 638.9773925L94.8421873125 635.013268125L93.164062 630.30847L90.978248625 623.841343594L90.1912335391 620.878338379L89.58266975 617.95281875L89.1334499297 614.957619902L88.82446675 611.785577031L88.550781 604.4823L88.6203225625 596.638123437L88.8542458125 593.715946289L89.28683075 591.1678375L89.9674974063 588.774392773L90.9456658125 586.316207812L93.992188 580.328L96.6447660625 575.848528359L99.630047125 571.631381875L103.03094875 567.599210703L106.9303885 563.674665L111.411283938 559.780394922L116.556552625 555.839050625L122.449112125 551.773282266L129.17188 547.50574L134.725114863 543.90976582L140.882406406 539.607004062L147.269458809 534.893758398L153.51197625 530.0663325L159.23566291 525.421030039L164.066222969 521.254154687L167.629360605 517.862010117L168.818678572 516.549056772L169.55078 515.5409L169.75133834 514.969285937L169.647754219 514.440825L169.217870176 513.944764062L168.43952875 513.47035L165.748843906 512.54345L161.39844 511.5741L157.252471563 510.650854687L152.90606 509.4874575L148.875173438 508.232616562L145.67578 507.03504L139.3457 504.32019L139.3457 504.32019M499.04688 518.93738L492.81641 518.93938L487.331452244 519.018752734L482.267635293 519.246146875L477.539903625 519.665045078L473.063201719 520.31893L468.75247405 521.251284297L464.522665098 522.505590625L460.288719338 524.125331641L455.96558125 526.15399L451.46819531 528.635048359L446.711505996 531.611989375L441.610457786 535.128295703L436.079995156 539.22745L430.035062585 543.952934922L423.390604551 549.348233125L407.96289 562.3222L396.206745891 572.254586543L385.183810879 581.36169125L374.80375281 589.697553613L364.976239531 597.316213125L355.610938889 604.271709277L346.61751873 610.618081563L337.905646902 616.409369473L329.38499125 621.6996125L320.965219622 626.542850137L312.555999863 630.993121875L304.066999822 635.104467207L295.407887344 638.930925625L286.488330276 642.526536621L277.217996465 645.945339688L267.506553757 649.241374316L257.26367 652.46868L246.260172324 655.908947695L237.131647344 658.993984687L229.557598379 661.882316836L223.21752875 664.73247L217.790941777 667.702970039L212.957340781 670.952342812L208.396229082 674.63911418L203.78711 678.92181L199.805915801 683.125908867L196.115300781 687.673519687L192.710041309 692.574143789L189.58491375 697.8372825L186.734694473 703.472437148L184.154159844 709.489109062L181.83808623 715.89679957L179.78125 722.70501L178.491219316 728.522835977L177.447122656 735.503477188L176.664489355 743.289653555L176.15884875 751.524085L175.945730176 759.849491445L176.040662969 767.908592812L176.459176465 775.344109023L177.2168 781.79876L178.531913799 788.954549158L180.209209453 796.267329355L182.2257696 803.68973468L184.558676875 811.174399219L187.185013916 818.673957058L190.081863359 826.141042285L193.226307842 833.528288987L196.59543 840.78833125L200.166312471 847.873803162L203.916037891 854.737338809L207.821688896 861.331572278L211.860348125 867.609137656L216.009098213 873.522669031L220.245021797 879.024800488L224.545201514 884.068166116L228.88672 888.6054L232.501204258 892.053593608L236.027855313 895.210213555L239.509923086 898.093712271L242.9906575 900.722542187L246.513308477 903.115155737L250.121125938 905.290005352L253.857359805 907.265543462L257.76526 909.0602225L261.888076445 910.692494897L266.269059063 912.180813086L270.951457773 913.543629497L275.9785225 914.799396562L281.393503164 915.966566714L287.239649687 917.063592383L300.39844 919.12102L306.908071699 919.988771836L312.778077969 920.628118438L318.490260566 921.046771445L324.52642125 921.2524425L331.368361777 921.252843242L339.497883906 921.055685312L361.54688 920.09954L361.54688 920.09754L369.215484517 919.576111719L376.765599258 918.777317969L384.156748511 917.716689141L391.348456563 916.409755625L398.3002477 914.872047813L404.971646211 913.119096094L411.322176382 911.166430859L417.3113625 909.0295825L422.898728853 906.724081406L428.043799727 904.265457969L432.706099409 901.669242578L436.845152188 898.950965625L440.420482349 896.1261575L443.39161418 893.210348594L445.718071968 890.219069297L446.626899435 888.699981499L447.35938 887.16785L448.317116875 884.307893047L448.993616875 881.044765625L449.389400313 877.465982891L449.5049875 873.65906L449.34089875 869.711512109L448.897654375 865.710854375L448.175774688 861.744601953L447.17578 857.90027L446.018856973 853.864478809L445.256695156 850.564799844L444.907830449 847.88086127L444.99079875 845.69229125L445.524135957 843.878717949L446.526377969 842.319769531L448.016060684 840.89507416L450.01172 839.48426L455.31055 836.08972L447.50781 836.06432L442.9661325 835.918897656L441.451769063 835.618955527L440.2713 835.04899125L439.296908438 834.120103691L438.4007775 832.743391719L436.33203 828.29089L434.840027656 824.292574023L432.94615375 818.398544688L428.69351 803.6407075L425.05553625 789.452101563L423.929999844 784.269611289L423.51367 781.26745L423.646748359 780.749788633L424.02816625 780.135573437L425.4291175 778.708795L427.5027175 777.169741562L430.03516 775.70104L436.55859 772.37292L436.55859 758.74987L436.85230625 747.658895L437.170270781 743.141648125L437.55859 740.12487L437.910064727 738.594711211L438.334987188 737.383559062L438.913833555 736.436699883L439.72708 735.69942L440.855202695 735.117005742L442.378677813 734.634743437L446.93359 733.75182L450.009145625 733.212048594L452.272614375 732.639098125L453.777867813 731.881376719L454.262998652 731.385854453L454.5787775 730.7872925L454.731938301 730.066741875L454.729215 729.205253594L454.283051875 726.983668125L453.294159688 723.970944219L451.81641 720.01549L450.67218373 716.490604062L450.106989219 713.37889125L450.048163699 711.962341953L450.14205791 710.630326562L450.391325784 709.376591953L450.79862125 708.194885L451.36659824 707.078952578L452.097910684 706.022541562L452.995212512 705.019398828L454.061157656 704.06327125L456.709593613 702.267049062L460.06445 700.58385L464.809024492 698.550563164L468.613517813 697.158365312L471.718904727 696.44215793L473.084737896 696.348457378L474.36616 696.4368425L475.593292886 696.711675981L476.796258398 697.177320508L478.005178384 697.838138765L479.250174688 698.698493437L481.968883633 701.035262773L485.19336 704.22253L493.73242 712.92175L501.16602 704.35925L504.961554688 700.246064062L506.557065352 698.759388477L508.0086775 697.611775L509.359595586 696.772561523L510.653024063 696.211085937L511.932167383 695.896686133L513.24023 695.7987L515.588815977 695.923176406L517.959482188 696.288325L520.321071055 696.881724844L522.642425 697.690955L524.892386445 698.703594531L527.039797813 699.9072225L529.053501523 701.289417969L530.90234 702.83776L532.989187852 704.935384727L534.567215313 706.938858437L535.651863242 708.93739293L536.2585725 711.0202L536.402783945 713.276491445L536.099938438 715.795479062L535.365476836 718.666374648L534.21484 721.97839L533.056750781 725.398705625L532.30452125 728.392905L532.022101094 730.638341875L532.077053809 731.379447422L532.27344 731.81237L533.360402344 732.35216375L535.35299625 732.87086L537.967432031 733.30953125L540.91992 733.60925L544.588558438 734.001483125L545.88784582 734.287618672L546.8820475 734.659175L547.609865117 735.135208203L548.110000313 735.734774375L548.421154727 736.476929609L548.58203 737.38073L549.92773 756.13268L550.94727 771.62487L557.34961 774.35729L560.024001504 775.613541445L561.074967498 776.267458394L561.935232031 776.993844062L562.604883889 777.83415438L563.084011855 778.829845273L563.372704714 780.022372671L563.47105125 781.4531925L563.379140247 783.163760688L563.097060488 785.195533164L561.962749844 790.388514687L560.06882959 797.363784492L557.41601 806.45299L554.642037012 815.680815781L552.350684219 822.74924625L550.367019629 827.927461094L549.435904163 829.891856309L548.51611125 831.48464L547.585774392 832.739459629L546.62302709 833.689962656L545.606002844 834.369796543L544.512835156 834.81260875L543.321657527 835.052046738L542.010603457 835.121757969L538.9414 834.88659L531.95116 834.02917L537.58202 838.8651L543.21093 843.70104L539.63085 859.28698L538.279369531 865.868997187L537.35183125 871.8414125L536.915852344 876.668446562L536.903328027 878.48501457L537.03905 879.81432L537.396616665 881.082603872L537.974026289 882.458695352L539.716229688 885.459615312L542.121370742 888.667708242L545.04516 891.9336025L548.343308008 895.107926445L551.871525313 898.041308437L555.485522461 900.584376836L559.04101 902.58776L564.881374861 905.182165195L571.240176855 907.574228594L578.067548352 909.758434414L585.313621719 911.729266875L592.928529324 913.481210195L600.862403535 915.008748594L609.065376721 916.306366289L617.48758125 917.3685475L626.07914949 918.189776445L634.790213809 918.764537344L643.570906575 919.087314414L652.371360156 919.152591875L661.141706921 918.954853945L669.832079238 918.488584844L678.392609475 917.748268789L686.77343 916.72839L696.16003894 915.227766653L704.951933711 913.428873066L713.187409985 911.302648923L720.904763438 908.820033906L728.142289741 905.951967698L734.93828457 902.66938998L741.331043599 898.943240437L747.3588625 894.74445875L753.060036948 890.043984602L758.472862617 884.812757676L763.635635181 879.021717654L768.586650313 872.641804219L773.364203687 865.643957053L778.006590977 857.99911584L782.552107856 849.678220261L787.03905 840.65221L792.909456094 827.741518359L795.447892031 821.658248857L797.731415625 815.7812525L799.767226172 810.079195986L801.562522969 804.520746016L803.124505313 799.074569287L804.4603725 793.7093325L805.577323828 788.393702354L806.482558594 783.096345547L807.183276094 777.785928779L807.686675625 772.43111875L807.999956484 767.000582158L808.130317969 761.462985703L808.084959375 755.786996084L807.87108 749.94128L807.33887791 742.271755786L806.522625156 734.888322852L805.426558887 727.799778257L804.05491625 721.014919062L802.411934395 714.542542329L800.501850469 708.391445117L798.328901621 702.570424487L795.897325 697.0882775L793.211357754 691.953801216L790.275237031 687.175792695L787.09319998 682.763048999L783.66948375 678.724367187L780.008325488 675.068544321L776.113962344 671.804377461L771.990631465 668.940663667L767.64257 666.4862L761.756683281 663.914078125L752.40479625 660.2738775L740.872968594 656.049895625L728.44726 651.72643L716.894777263 647.750321448L706.239641855 643.923870957L696.351740481 640.170095027L687.100959844 636.412010156L678.357186648 632.572632844L669.990307598 628.57497959L661.870209397 624.342066892L653.86677875 619.79691125L645.849902361 614.862529163L637.689466934 609.461937129L629.255359172 603.518151648L620.417465781 596.954189219L611.045673464 589.69306634L601.009868926 581.657799512L578.42577 562.9569L568.441201445 554.631927344L559.966183438 547.738175L552.685839961 542.053478906L546.285295 537.355675L540.449672539 533.422599219L534.864096563 530.0320875L529.213691055 526.961975781L523.18358 523.9901L517.432010938 521.413016875L514.995137773 520.537555156L512.579105 519.8923575L509.980087227 519.443582031L506.994259063 519.157386875L499.04687 518.93737L499.04688 518.93738M808.88281 520.88465L808.455537805 521.042247173L807.847371191 521.503607383L806.083044531 523.344854062L803.579209668 526.422864336L800.32524625 530.7521125L791.524452344 543.222219687L779.5957 560.87097L769.763001914 575.867476816L760.799784688 590.033853281L752.856085117 603.102872168L746.08194 614.80730625L740.627386133 624.879928301L736.642460313 633.053511094L735.247994419 636.34465426L734.277199336 639.060827402L733.748829663 641.168627117L733.68164 642.63465L733.89498418 643.398877148L734.300582188 644.131345313L734.896724727 644.83083457L735.6817025 645.496125L737.811326563 646.719229687L740.67578 647.7909L744.584781934 648.927360977L747.739514844 649.627020312L750.316978145 649.835017617L751.444546008 649.737499136L752.49417125 649.4964925L753.487978796 649.105140161L754.448093574 648.55658457L756.355744531 646.960433438L758.394123535 644.653178711L760.74023 641.57996L764.241326951 636.647355796L768.337688574 630.574000742L777.862145469 615.773908437L788.405479941 598.717423789L799.05957125 580.9422875L808.916298652 563.986240273L817.067541406 549.387022812L822.60517877 538.68237582L824.110107698 535.27106022L824.62109 533.41004L824.210652363 532.671364453L823.091347656 531.481755625L819.26498625 528.181545L814.219704219 524.373021875L809.0332 520.9198L808.88281 520.8846L808.88281 520.88465M177.32031 521.56433L176.711584063 521.653001875L175.955425 521.993085L173.78711 523.41199L169.643005 526.5170525L165.07617 530.19519L160.20898 534.28113L167.29492 548.59168L173.184317539 559.956799473L180.286937813 572.815087031L188.213699805 586.529663887L196.5755225 600.46365125L204.983324883 613.980170332L213.048025938 626.442342344L220.380544648 637.213288496L226.5918 645.65613L228.420540215 647.892042031L230.052637344 649.56022375L231.638536113 650.693518594L233.32868125 651.32477L235.27351748 651.486821406L237.623489531 651.21251625L240.529042129 650.534697969L244.14062 649.48621L247.901129844 648.194231875L249.162430332 647.588461563L250.07040125 646.9573225L250.669522637 646.26167875L251.004274531 645.462394375L251.119136973 644.520333437L251.05859 643.39636L250.689022632 641.465164902L249.954330742 639.055482812L248.866315903 636.188273535L247.436779688 632.884496875L243.600349414 625.051080625L238.5394525 615.7229125L232.348501523 605.067670938L225.121909063 593.253034375L216.954087695 580.44668125L207.93945 566.81629L188.464825 537.70685L179.35742 523.79871L178.31078125 522.15657625L177.835383594 521.730969844L177.32031 521.56433L177.32031 521.56433M830.69531 538.77527L830.000004375 538.9268375L829.4170825 539.341685L828.2793 540.91199L826.87223125 543.633065L826.444274531 544.824936875L826.28711 545.69519L826.614277976 546.209358579L827.542023027 547.047622227L830.876691094 549.499832188L835.646007676 552.658614805L841.20486625 556.130765L846.908160293 559.523077695L852.110783281 562.442347812L856.167628691 564.495370273L857.564789016 565.074162046L858.43359 565.28894L859.334717344 565.064594687L860.32382625 564.412065L861.280904531 563.431860312L862.08594 562.22449L862.504638633 561.277933906L862.660375313 560.40194625L862.510663711 559.537285469L862.0130175 558.62471L861.124950352 557.604978281L859.803975937 556.41884875L855.69336 553.31043L847.44949875 547.7813125L838.95117 542.62097L833.53964875 539.68155125L831.878687344 538.987325469L830.69531 538.77527L830.69531 538.77527M154.44727 539.953L153.263002344 540.146350937L151.67053875 540.756115L146.86523 543.32215L141.494113516 546.52007418L136.79466 549.521679062L132.780580859 552.315515664L129.4655875 554.890135L126.863391328 557.234088086L124.98770375 559.335925937L123.852236172 561.18419957L123.566369697 562.009671997L123.4707 562.76746L123.555815156 565.159876738L123.708930176 566.061784734L123.97728 566.754322656L124.392012012 567.227613137L124.984273594 567.471778809L125.785212129 567.476942302L126.825975 567.23322625L129.751563281 565.959646035L134.0102175 563.572019219L147.52344 555.13855L150.870319902 552.919178906L153.496070469 550.952590625L155.438369238 549.177772656L156.73489375 547.5337125L157.423321543 545.959397656L157.541330156 544.393815625L157.126597129 542.775953906L156.2168 541.0448L155.46888 540.237225L155.003034688 540.027153125L154.44727 539.953L154.44727 539.953M823.45312 553.93152L822.613445332 554.201569297L821.572073281 554.933104375L820.425678027 556.008206016L819.27093375 557.308955L818.204514629 558.717432109L817.323094844 560.115718125L816.723348574 561.385893828L816.50195 562.41004L816.843115313 562.857866914L817.820899375 563.663354063L821.4120525 566.1658475L826.726866875 569.554597188L833.2168 573.46668L849.93164 583.2909L852.78516 579.84558L853.893157969 578.33473L854.80048125 576.76832L855.413521406 575.33136L855.63867 574.20886L855.315641912 573.617944438L854.399171855 572.704807695L851.101591094 570.110755313L846.377298223 566.824472148L840.85766375 563.2437275L835.174058184 559.766290664L829.957852031 556.789930937L825.840415801 554.712417617L824.39103969 554.135031265L823.45312 553.93152L823.45312 553.93152M161.47461 555.05066L160.455813398 555.240067598L159.168987187 555.720659531L155.5634925 557.62860625L150.202619062 560.920919844L142.63086 565.74402L137.724045937 569.066102812L133.7059875 572.1464775L130.991185312 574.641833437L130.252036758 575.562844805L129.99414 576.20886L130.123178848 577.386697813L130.475255156 578.75011L131.63827875 581.61125L133.062727969 583.947465L133.741586309 584.654720937L134.32812 584.91394L135.68198 584.322035312L138.659155 582.710365L147.72461 577.41199L157.56506875 571.1390725L161.381250781 568.472815937L163.75977 566.59363L165.678421875 564.652940938L166.203524531 563.854916992L166.4537775 563.07144L166.440155156 562.227259883L166.173631875 561.247126562L164.92578 558.578L163.54107375 556.11157875L162.822703594 555.390614844L161.92773 555.06238L161.47461 555.05068L161.47461 555.05066M869.56445 564.28699L869.15272 564.3877525L868.82031 564.62293L867.226291719 567.150246875L863.97477625 572.89437L854.39258 590.62097L842.943345625 611.695732969L831.4924575 631.70575375L820.156180625 650.453657656L814.567354219 659.292636191L809.05078 667.74207L804.9793125 674.146866875L801.6449675 679.912045L799.39194625 684.405710625L798.778494922 685.978259453L798.56445 686.99597L798.953545781 689.283312187L800.01284625 692.952055L801.580371094 697.496272813L803.49414 702.41004L805.609071094 707.828585312L807.72459375 713.747615L809.595494531 719.451469688L810.97656 724.22449L813.0518225 731.627595L813.893074688 734.219195312L814.45117 735.5741L814.680046772 735.797862114L814.998579336 735.858678789L815.937362812 735.455207812L817.333022383 734.291151055L819.25106 732.2939725L824.916277188 725.510105937L833.45703 714.52332L838.332607031 707.924661992L843.780376875 700.175054687L849.552316406 691.657698164L855.4004025 682.7557925L861.076612031 673.852537773L866.332921875 665.331134062L870.921308906 657.574781445L874.59375 650.96668L877.450909001 645.375795513L880.017474512 639.92941707L882.292913665 634.631088452L884.276693594 629.484353437L885.968281433 624.492755806L887.367144316 619.659839336L888.472749377 614.989147808L889.28456375 610.484225L889.802054568 606.148614692L890.024688965 601.985860664L889.951934075 597.999506694L889.583257031 594.193096562L888.918124968 590.570174048L887.95600502 587.13428293L886.696364319 583.888966987L885.13867 580.83777L883.097605781 577.538316758L880.922298125 574.430274062L878.693338281 571.593737461L876.4913175 569.1088025L874.396827031 567.055564727L872.490458125 565.514119687L870.852802031 564.56456293L870.159926055 564.336772515L869.56445 564.28699L869.56445 564.28699M113.61719 565.34558L113.131339075 565.47912916L112.50327791 565.864415L110.891304531 567.298026875L108.922829199 569.462075938L106.73941125 572.1722225L104.48261002 575.244126875L102.293984844 578.493449375L100.315095059 581.735850312L98.6875 584.78699L97.7820103655 586.834284176L97.0082348535 588.973149814L95.8550425469 593.523206641L95.2263557793 598.432382803L95.12060725 603.695900625L95.5362296582 609.308982432L96.4716557031 615.266850547L97.925318084 621.564727295L99.8956495 628.197835L102.38108265 635.161395986L105.380050234 642.450632578L108.890984951 650.0607671L112.9123195 657.987021875L117.44248658 666.224619229L122.479918891 674.768781484L128.023049131 683.614730967L134.07031 692.75769L140.727181914 702.361816699L147.268074062 711.407077969L153.455163555 719.602471816L159.0506275 726.65699625L163.816643008 732.279649277L167.515387187 736.179428906L168.890212876 737.392303074L169.909037148 738.065333145L170.542132144 738.16214387L170.704741205 737.983099712L170.75977 737.64636L171.191269414 735.718276836L172.353000937 731.685942812L176.07056 719.786615L180.319246562 706.904562187L183.50586 697.99597L186.89453 689.59363L169.58008 660.49011L151.8692275 630.2366475L133.60156 598.36707L126.250724844 585.545579375L120.03275625 575.0457625L115.603097031 567.951226875L114.263709316 566.019566875L113.61719 565.34558L113.61719 565.34558M812.77148 570.42957L812.625 570.46867L808.72852 577.11711L805.25781 583.18156L810.02148 586.57414L813.541765879 588.959606758L817.710066406 591.594935312L826.74754375 596.9149975L834.647576719 601.133965937L837.394071777 602.392927305L838.92383 602.85148L839.398593223 602.736593477L839.947453281 602.407325312L841.18907625 601.1979925L842.491923594 599.408178437L843.69922 597.22258L844.95963625 594.296050312L845.4627925 592.1955275L845.438480547 591.346534102L845.2345525 590.573860937L844.30078 589.0839L842.417862773 587.535461738L838.785431562 585.080683281L828.594915 578.81715875L818.375005937 573.023432344L814.705834102 571.155901543L812.77148 570.42961L812.77148 570.42957M171.21484 573.99988L169.378213145 574.363291699L166.422327656 575.486386719L162.642053652 577.215448691L158.33226125 579.39676125L153.787820566 581.876608027L149.303601719 584.501272656L145.174474824 587.11703877L141.69531 589.57019L139.569283594 591.324347812L139.006262754 592.066170195L138.76264875 592.852555L138.828000527 593.784552305L139.191877031 594.963212187L140.77344 598.46472L142.094085781 600.800993437L143.56900375 602.7144225L145.018209844 604.007395312L145.676925918 604.359456914L146.26172 604.4823L147.055813047 604.317482539L148.31435625 603.845120312L151.9664275 602.1103025L156.7012025 599.542928437L162.00195 596.40808L167.622251465 592.904153437L171.902032344 590.086439375L174.968697363 587.80379875L176.94965125 585.9050925L177.572800496 585.052483809L177.97229873 584.239181562L178.164071545 583.446293379L178.164044531 582.654926875L177.652293379 581.001189375L176.56445 579.12683L175.316809219 577.43528625L173.94065875 575.914045L172.602966406 574.72966625L171.4707 574.04871L171.21484 573.99991L171.21484 573.99988M802.39844 592.1073L801.701844961 592.179600625L801.026461562 592.4203025L799.659135 593.47006L798.136070937 595.3828725L796.29688 598.28504L794.668923613 601.043143984L793.651378281 603.211625625L793.429713899 604.154208701L793.430497246 605.044726953L793.677009978 605.914960635L794.19253375 606.79669L795.000350217 607.721695303L796.123741035 608.721756797L799.410372344 611.074169375L810.79492 618.078L816.099118125 621.241478789L820.19726 623.499464062L823.314409375 624.85075418L824.575444297 625.186013042L825.67563 625.2941475L826.643099453 625.175007349L827.505985625 624.828442383L828.292421484 624.254302397L829.03054 623.452437187L830.474356875 621.164930273L832.0625 617.96472L833.618135 614.48195125L833.957524531 613.288930312L833.98169 612.312365L833.673427344 611.440415312L833.0155325 610.56124125L830.58203 608.33386L828.172965137 606.458383242L824.933990469 604.213108437L817.09035125 599.2836975L809.299191406 594.886692812L806.125815957 593.30692582L803.80859 592.36316L802.39844 592.1073L802.39844 592.1073M182.18359 593.06629L180.288919961 593.832616914L176.527270937 595.870000937L165.9399475 602.18836L155.495442812 608.882206562L151.912317227 611.388949961L150.26758 612.81238L150.122853394 613.319341133L150.159623711 614.034913594L150.699438437 615.958701875L151.73059082 618.317363594L153.0966475 620.8445175L154.641175117 623.273782344L156.207740312 625.338776875L157.639909727 626.773119844L158.256710591 627.170552852L158.78125 627.31043L160.6602775 626.677209687L164.2273225 624.95306L168.97074625 622.401247812L174.37891 619.28504L186.413071406 612.07043375L189.810710605 609.744417031L190.944039031 608.781721426L191.73441875 607.90685L192.207383821 607.085514512L192.388468301 606.283426719L192.303206248 605.466298379L191.977131719 604.59984125L190.704681465 602.581787656L188.77539 599.95496L186.711505469 597.280331875L184.78065125 595.0899375L183.199216406 593.609886875L182.607152832 593.206899844L182.18359 593.06629L182.18359 593.06629M788.86914 612.6698L788.143938125 613.212367187L786.8367325 614.6640825L783.21875 619.41004L781.035550625 622.739529062L779.8470875 625.24171L779.600302344 626.259722617L779.571505625 627.163503437L779.750465469 627.983917539L780.12695 628.75183L780.733282048 629.411074106L781.87173123 630.352636289L785.451351719 632.905369062L790.27855291 636.05533668L795.76607625 639.4478475L801.326663184 642.728209883L806.373055156 645.541732187L810.317993613 647.533722773L811.693899475 648.110802534L812.57422 648.34949L813.02125375 648.216887422L813.61157875 647.77470875L815.12092 646.0913975L816.89987875 643.559105L818.74609 640.43738L823.14062 632.36511L806.45508 622.49988L794.40702375 615.5430775L790.535906719 613.434717187L788.86914 612.6698L788.86914 612.6698M196.1582 614.2655L190.61265875 617.300170312L178.9192625 624.0423625L167.1641825 630.949348437L161.43359 634.4784L161.702874531 635.274067187L162.70001625 637.18817L166.24609 643.22449L171.41602 651.63074L177.20312 648.17761L194.8125 637.48035L199.402879062 634.571126562L203.16199 632.005705L205.701923437 630.061883437L206.393476914 629.40988457L206.63477 629.01746L206.225720586 627.978331836L205.138774062 626.116989687L201.7724 621.1121675L198.218068437 616.372001562L196.896175039 614.841479727L196.1582 614.2655L196.1582 614.2655M774.01172 635.88269L773.74609 635.90419L772.708842187 636.6160525L771.427775 637.9430725L770.065632812 639.69547375L768.78516 641.68348L765.91211 646.63466L783.43945 657.21278L790.344552344 661.259183125L796.18813375 664.4562075L800.353663281 666.482200625L801.614492676 666.955544062L802.22461 667.01551L802.909482969 666.332685625L803.84577375 665.04727L805.98047 661.40419L806.884037031 659.41663375L807.49535625 657.5803975L807.760364844 656.099905L807.625 655.17958L806.996283403 654.496268958L805.820950195 653.54394541L802.130720937 651.003100781L797.154886211 647.898726074L791.49402 644.57250125L785.748696289 641.36610627L780.519489062 638.621221094L776.406972305 636.679525684L774.957152222 636.116649128L774.01172 635.8827L774.01172 635.88269M210.29883 636.4198L196.64453 644.2655L191.057448594 647.587635937L185.93907125 650.8337425L181.856040781 653.631667812L179.375 655.60926L175.75977 659.10926L179.12695 664.40808L181.70600875 668.15152L182.646778281 669.290506875L183.17773 669.70886L187.36428625 667.4792275L196.4707 662.11902L206.808417812 655.786693281L213.451885 651.41466125L215.57520918 649.831550957L216.999292187 648.579868594L217.798907852 647.606732246L218.04883 646.85926L217.743064062 645.949038125L216.9105375 644.526885L214.17383 640.92566L210.29883 636.4198L210.29883 636.4198M765.64258 655.55261L765.215394805 655.603610684L765.011610937 655.780999844L765.046437227 656.085133145L765.3350825 656.51636625L766.734665312 657.761554531L769.33203 659.51941L772.201220937 661.581297969L775.88227 664.62351375L779.900991562 668.236237656L783.7832 672.00965L788.144325937 676.253004062L791.222935 678.7350525L792.37960957 679.380183789L793.333631562 679.662504687L794.124326523 679.607853867L794.79102 679.24207L795.623317969 678.390804375L796.30454625 677.3884325L796.764653906 676.360241875L796.93359 675.43152L796.608695391 674.521627656L795.62630625 673.32510125L793.974864609 671.833504219L791.6428125 670.0384L784.890645 665.50392375L775.27734 659.65418L772.045572344 657.881918281L769.28131625 656.60576375L767.106382031 655.828424844L765.64258 655.55261L765.64258 655.55261M219.23438 656.56238L218.72536332 656.644651758L217.789837812 657.019520312L214.6501925 658.6424925L203.37305 665.34949L194.522093281 670.970407187L191.669208652 672.976066445L189.72377375 674.5774375L188.580079004 675.873703867L188.132414844 676.964049062L188.275071699 677.947656602L188.90234 678.92371L189.769526895 679.925803047L190.539279531 680.571638125L191.34925209 680.797136641L192.33709875 680.53822L193.640473691 679.730809609L195.397031094 678.310826875L200.82031 673.37683L208.62718875 666.333975L215.6543 660.27722L218.69972 657.56604125L219.278436875 656.851649844L219.333947891 656.65398459L219.23438 656.56238L219.23438 656.56238M505.95769 424.933139984L505.671637935 427.770714723L504.851227689 430.413641165L503.553077577 432.805300996L501.833805913 434.889075901L499.750031009 436.608347568L497.35837118 437.906497683L494.715444739 438.726907932L491.87787 439.01296L489.040295261 438.726907932L486.39736882 437.906497684L484.005708991 436.60834757L481.921934087 434.889075905L480.202662423 432.805301003L478.904512311 430.413641178L478.084102065 427.770714744L477.79805 424.933140016L478.084102065 422.095565277L478.904512311 419.452638835L480.202662423 417.060979004L481.921934087 414.977204099L484.005708991 413.257932432L486.39736882 411.959782317L489.040295261 411.139372068L491.87787 410.85332L494.715444739 411.139372068L497.35837118 411.959782317L499.750031009 413.257932432L501.833805913 414.977204099L503.553077577 417.060979004L504.851227689 419.452638835L505.671637935 422.095565277L505.95769 424.933140016L505.95769 424.93314"
     style="fill:none;stroke:#ff0000;stroke-width:0.7086615;stroke-linejoin:round;stroke-miterlimit:4;stroke-dasharray:none"
     id="path4266" />
  <g
     transform="translate(-28.25015,-1.68926)"
     id="g4283" />
  <path
     id="path4266-9"
     transform="translate(0,-1.2207033e-4)"
     style="fill:none;stroke:#ff0000;stroke-width:0.7086615;stroke-linejoin:round;stroke-miterlimit:4;stroke-dasharray:none"
     d="m 501.74805,983.91016 c -25.35032,-0.087 -51.55755,0.92191 -77.61524,3.07031 -87.19545,7.1888 -157.23063,32.00163 -185.23047,65.62503 -26.75953,32.134 -40.3025,75.7173 -43.10742,138.7324 -0.96563,21.6937 -1.30212,23.4831 -5.72265,30.5254 -3.6176,5.7632 -4.71667,9.5071 -4.78907,16.3066 -0.0517,4.8543 -0.61359,11.7621 -1.24804,15.3496 l -1.15235,6.5215 -14.65234,1.2383 c -8.05831,0.6809 -16.26137,1.9302 -18.23047,2.7773 -4.72008,2.0307 -9.31013,16.8636 -14.31445,46.2598 -2.11165,12.4042 -4.08529,22.735 -4.38672,22.959 -0.30144,0.2241 -3.10674,1.1078 -6.23438,1.9629 -6.91714,1.8911 -9.74865,6.8793 -9.78125,17.2363 -0.0348,11.0625 2.10803,15.3801 8.71485,17.5606 6.48386,2.1398 5.86915,-0.1199 10.17187,37.4531 2.44911,21.3868 2.46046,23.6793 0.125,25.2773 -1.4125,0.9665 -8.29194,5.3767 -15.28711,9.8008 -16.91278,10.6965 -38.312938,32.0206 -43.630857,43.4766 -6.165169,13.2812 -9.632387,31.0198 -8.560547,43.8047 1.87415,22.3549 14.057601,46.6274 30.386719,60.541 5.653335,4.8171 11.959325,12.9974 19.060545,24.7246 11.74668,19.3988 26.0244,39.3143 38.87305,54.2246 13.18327,15.2985 13.93296,16.7874 13.94336,27.6758 0.0251,25.6463 7.43338,54.8136 21.14844,83.2675 23.77541,49.3258 55.82052,73.633 107.66406,81.6583 l 0.002,0 c 20.20452,3.1276 67.63401,1.7823 89.83399,-2.545 20.11309,-3.9204 38.1976,-9.7723 48.06445,-15.5547 3.83671,-2.2484 12.38133,-10.5125 18.98828,-18.3632 14.6866,-17.4514 20.97981,-20.4483 40.65039,-19.3672 16.91261,0.9295 25.26684,5.3052 36.18945,18.9551 7.22907,9.034 10.64522,11.6877 23.13086,17.9589 23.79235,11.9502 53.34342,17.8279 89.89258,17.8828 40.24654,0.061 68.27165,-4.5354 89.53516,-14.6835 20.95953,-10.0031 44.8153,-37.3517 60.3457,-69.1797 13.4926,-27.6517 20.28201,-53.8977 20.28711,-78.4336 l 0,-11.4961 19.46875,-25.6621 c 10.7075,-14.1153 24.39662,-33.5252 30.41992,-43.1328 6.9581,-11.0988 15.57386,-22.0588 23.63086,-30.0586 15.5242,-15.4141 23.27403,-29.8581 26.95313,-50.2364 3.0393,-16.8349 2.1255,-29.9271 -3.0918,-44.3007 -7.5456,-20.7878 -22.48382,-37.2444 -51.41602,-56.6387 -5.6608,-3.7944 -10.71793,-8.0101 -11.24023,-9.3711 -0.5222,-1.3611 0.28437,-14.3274 1.79297,-28.8145 2.8249,-27.1276 3.99399,-30.4179 10.80859,-30.4179 4.2055,0 7.31706,-7.7969 7.13086,-17.8633 -0.2097,-11.3334 -2.67475,-16.3809 -8.00195,-16.3809 -5.9049,0 -8.17401,-5.0744 -12.0332,-26.9062 -4.1103,-23.2529 -9.06601,-40.4387 -12.47461,-43.2676 -1.3568,-1.126 -9.96792,-2.7536 -19.13672,-3.6172 -9.1688,-0.8635 -16.7759,-1.675 -16.9043,-1.8027 -0.1283,-0.1278 -1.00758,-7.446 -1.95508,-16.2637 -1.2066,-11.2293 -2.79191,-17.824 -5.29101,-22.0137 -2.9448,-4.937 -3.80398,-9.8271 -4.92188,-27.9961 -4.749,-77.1908 -24.21786,-129.0747 -58.11328,-154.8691 -22.24437,-16.9279 -59.66554,-32.446 -99.88867,-41.42383 -35.13316,-7.8417 -80.40475,-12.00011 -128.80078,-12.16601 z m -438.42516,-3.302 856.9928,0 0,886.34564 -856.9928,0 z M 505.8991,1361.781 a 14.079821,14.079821 0 0 1 -14.07982,14.0798 14.079821,14.079821 0 0 1 -14.07982,-14.0798 14.079821,14.079821 0 0 1 14.07982,-14.0798 14.079821,14.079821 0 0 1 14.07982,14.0798 z" />
</svg>
