<?xml version="1.0" encoding="UTF-8" standalone="no"?>
<!-- Created with Inkscape (http://www.inkscape.org/) -->

<svg
   xmlns:dc="http://purl.org/dc/elements/1.1/"
   xmlns:cc="http://creativecommons.org/ns#"
   xmlns:rdf="http://www.w3.org/1999/02/22-rdf-syntax-ns#"
   xmlns:svg="http://www.w3.org/2000/svg"
   xmlns="http://www.w3.org/2000/svg"
   xmlns:sodipodi="http://sodipodi.sourceforge.net/DTD/sodipodi-0.dtd"
   xmlns:inkscape="http://www.inkscape.org/namespaces/inkscape"
   width="210mm"
   height="297mm"
   viewBox="0 0 744.09448819 1052.3622047"
   id="svg2"
   version="1.1"
   inkscape:version="0.91 r13725"
   sodipodi:docname="swars.svg">
  <defs
     id="defs4" />
  <sodipodi:namedview
     id="base"
     pagecolor="#ffffff"
     bordercolor="#666666"
     borderopacity="1.0"
     inkscape:pageopacity="0.0"
     inkscape:pageshadow="2"
     inkscape:zoom="3.959798"
     inkscape:cx="668.91352"
     inkscape:cy="406.78916"
     inkscape:document-units="px"
     inkscape:current-layer="layer1"
     showgrid="false"
     inkscape:window-width="1360"
     inkscape:window-height="746"
     inkscape:window-x="1432"
     inkscape:window-y="-8"
     inkscape:window-maximized="1" />
  <metadata
     id="metadata7">
    <rdf:RDF>
      <cc:Work
         rdf:about="">
        <dc:format>image/svg+xml</dc:format>
        <dc:type
           rdf:resource="http://purl.org/dc/dcmitype/StillImage" />
        <dc:title></dc:title>
      </cc:Work>
    </rdf:RDF>
  </metadata>
  <g
     inkscape:label="Layer 1"
     inkscape:groupmode="layer"
     id="layer1">
    <path
       style="fill:none;stroke:#ff0000;stroke-width:2.4023757"
       d="M 620.66211 606.83789 C 592.2448 606.83789 593.15971 606.76939 589.80273 609.20117 C 587.02452 611.21369 584.74247 615.76584 584.73047 619.32227 C 584.72288 621.65346 586.05555 625.08138 587.93164 627.55859 L 589.70508 629.90234 L 577.33398 630.08203 L 564.96484 630.26172 L 564.03516 631.13477 C 563.11077 632.00397 563.10547 632.03867 563.10547 637.84375 C 563.10547 643.15175 563.17177 643.76165 563.83398 644.60352 C 564.23431 645.11246 564.92325 645.58414 565.36523 645.65234 C 565.80722 645.72057 573.43971 645.81342 582.32812 645.85742 C 600.31129 645.94657 601.68306 645.81448 604.9082 643.70312 C 607.0245 642.31765 609.04184 639.77036 609.98242 637.29492 C 611.68578 632.81209 610.13 627.53266 605.71484 622.8125 L 604.08789 621.07227 L 610.60352 621.07227 L 617.12109 621.07227 L 617.23047 632.41406 C 617.36795 646.71017 616.57267 645.39648 625.08789 645.39648 C 630.85837 645.39648 631.23569 645.35446 631.96875 644.62109 C 632.72279 643.86679 632.74873 643.53535 632.88086 632.75 C 632.98316 624.4035 633.12873 621.58367 633.4668 621.36914 C 633.71395 621.21207 636.54256 621.08012 639.75391 621.07812 C 643.41773 621.07466 645.93566 620.91571 646.51367 620.65234 C 647.87966 620.02993 648.24564 618.27046 648.09766 613.03516 C 647.97977 608.86648 647.89943 608.41107 647.14844 607.66016 L 646.32812 606.83789 L 620.66211 606.83789 z M 662.89844 607.01953 C 653.28622 607.01953 653.26768 607.02118 652.46094 607.85938 C 651.6875 608.66299 649.61968 615.2365 643.44922 636.49609 C 641.8404 642.03911 641.69078 642.8347 642.10156 643.69141 C 642.35561 644.22128 642.96935 644.86071 643.46484 645.11133 C 644.59381 645.68251 653.68864 645.74386 655.27344 645.19141 C 656.37692 644.80672 657.20142 643.5674 657.71094 641.52344 L 657.95703 640.53125 L 662.93359 640.53125 L 667.91016 640.53125 L 668.49609 642.29102 C 669.48433 645.26634 669.75497 645.38147 676.02344 645.49414 C 682.01268 645.60179 682.93393 645.38449 683.75977 643.66211 C 684.19811 642.74795 683.83024 641.31593 679.12891 625.6543 C 675.71055 614.2667 673.7753 608.37275 673.27539 607.83008 C 672.53663 607.02928 672.42249 607.01953 662.89844 607.01953 z M 700.04102 607.03516 C 686.2614 607.04289 686.37695 607.02614 685.64062 608.96289 C 685.11831 610.33808 685.13029 642.19802 685.6543 643.70117 C 685.88862 644.37335 686.42492 644.95988 687.00586 645.17969 C 687.547 645.38464 690.6072 645.512 693.99414 645.4707 C 701.63372 645.37749 701.55684 645.4289 701.7793 640.3418 L 701.92969 636.89453 L 704.31836 639.19336 C 707.45692 642.21432 710.94205 644.74743 712.58984 645.20508 C 714.44784 645.72116 734.33783 645.69746 735.47852 645.17773 C 736.88821 644.53543 737.15625 643.38771 737.15625 638.00977 C 737.15625 632.63184 736.88821 631.4841 735.47852 630.8418 C 734.92783 630.5909 731.89517 630.44141 727.34375 630.44141 L 720.08594 630.44141 L 721.00781 629.45117 C 724.03543 626.20133 725.25972 622.01276 724.39453 617.86328 C 723.51231 613.63214 721.56051 610.74626 718.42383 609.03906 C 714.92856 607.1367 713.92726 607.02816 700.04102 607.03516 z M 609.54102 609.85156 C 614.56868 609.84568 621.26049 609.85878 630.22266 609.875 L 645.26562 609.90234 L 645.26562 614.03906 L 645.26562 618.17578 L 637.60938 618.27344 L 629.95117 618.37109 L 629.85742 630.5332 L 629.76172 642.69336 L 624.90234 642.69336 L 620.04102 642.69336 L 620.04102 630.44141 L 620.04102 618.18945 L 610.75195 618.18945 C 602.92782 618.18945 601.33669 618.27946 600.66211 618.75195 C 600.22161 619.06047 599.86133 619.6277 599.86133 620.01367 C 599.86133 620.39963 601.12173 622.07187 602.66211 623.73047 C 608.57597 630.09818 609.3324 635.06328 605.10352 639.74414 C 604.3749 640.55062 603.09083 641.54512 602.24805 641.95312 C 600.76643 642.67039 600.14192 642.69336 583.39453 642.69336 L 566.07617 642.69336 L 565.9082 638.09961 C 565.8164 635.5726 565.78956 633.44605 565.84766 633.37305 C 565.90587 633.30002 572.08287 633.19663 579.57422 633.14453 C 587.06557 633.09211 593.30491 633.03181 593.43945 633.00781 C 593.99692 632.91104 594.81641 631.78181 594.81641 631.11133 C 594.81641 630.68524 593.7885 629.42679 592.29883 628.0293 C 587.15897 623.2074 586.31304 618.35218 589.74414 613.36523 C 590.49241 612.2777 591.46332 611.45843 592.74414 610.83398 C 594.34112 610.05536 594.45803 609.86922 609.54102 609.85156 z M 654.33398 609.90234 L 662.86523 609.90234 L 671.39648 609.90234 L 675.81445 624.58594 C 678.24419 632.66241 680.46541 640.04098 680.75 640.98242 L 681.26758 642.69531 L 676.42969 642.69531 L 671.59375 642.69531 L 670.82422 640.16406 L 670.05664 637.63477 L 663.00781 637.73242 L 655.95703 637.83008 L 655.17578 640.17188 L 654.39453 642.51367 L 649.47852 642.61523 C 645.61219 642.69403 644.59404 642.61605 644.7168 642.25391 C 644.80269 642.00061 646.75404 635.38733 649.05273 627.55859 C 651.35144 619.72985 653.48029 612.5547 653.7832 611.61328 L 654.33398 609.90234 z M 688.14844 609.90234 L 700.28711 609.90234 C 714.28448 609.90234 715.48542 610.0772 718.25781 612.51758 C 720.48138 614.47482 721.37882 616.35628 721.58398 619.49609 C 721.81295 623.00118 721.0143 625.32626 718.82422 627.53711 C 717.90742 628.46263 716.7533 629.47615 716.25781 629.79102 L 715.35547 630.36523 L 716.11133 631.39453 C 717.32634 633.05392 718.60732 633.28504 726.79688 633.30664 L 734.27539 633.32422 L 734.27539 638.00977 L 734.27539 642.69336 L 723.86523 642.69336 L 713.45703 642.69336 L 711.23828 641.21289 C 708.95331 639.68704 704.46747 635.47058 701.16797 631.74805 C 700.13579 630.58352 699.21725 629.70462 699.12695 629.79492 C 699.03662 629.88517 698.94498 632.82403 698.92578 636.32617 L 698.92578 636.32812 L 698.88867 642.69531 L 693.51953 642.69531 L 688.14844 642.69531 L 688.14844 626.29883 L 688.14844 609.90234 z M 698.95898 616.69727 L 698.95898 620.86719 L 698.95898 625.03711 L 703.65625 625.03711 C 706.89237 625.03711 708.73238 624.87712 709.57422 624.52539 C 712.26094 623.40281 712.93232 620.10603 710.89062 618.0625 L 709.75781 616.92969 L 704.35938 616.8125 L 698.95898 616.69727 z M 663.0625 616.85547 C 662.78428 616.76274 658.20842 630.4029 658.23242 631.25391 C 658.2366 631.40262 660.52049 631.52344 663.30859 631.52344 L 668.37695 631.52344 L 668.125 630.71289 C 666.76562 626.35971 663.32556 616.94317 663.0625 616.85547 z M 701.8418 619.60547 L 705.35547 619.70898 C 708.75032 619.80863 708.87275 619.84074 708.99023 620.67188 C 709.05711 621.14495 708.89594 621.66996 708.63086 621.83789 C 708.36578 622.00596 706.73029 622.14644 704.99609 622.14844 L 701.8418 622.1543 L 701.8418 620.87891 L 701.8418 619.60547 z M 663.05078 624.99805 L 663.70703 626.72852 C 664.06866 627.68073 664.36506 628.50128 664.36523 628.55078 C 664.36537 628.60028 663.87974 628.64062 663.28516 628.64062 C 662.0802 628.64062 662.0198 628.43674 662.62695 626.41016 L 663.05078 624.99805 z M 571.80078 649.51758 C 569.05816 649.49352 566.33231 649.65103 565.62695 650.00781 C 563.88523 650.88878 563.69046 652.02779 564.67188 655.56836 C 567.27987 664.9771 573.67849 686.92828 573.97656 687.48828 C 574.16709 687.8463 574.67833 688.28262 575.11133 688.45703 C 576.2747 688.9258 585.9678 688.89557 587.01172 688.41992 C 588.09275 687.92736 588.27348 687.52837 589.7832 682.25391 C 590.44827 679.93033 591.05872 678.09583 591.14062 678.17773 C 591.22262 678.2597 591.91845 680.40448 592.68555 682.94336 C 593.61508 686.01979 594.33526 687.76918 594.84766 688.18945 C 595.50973 688.73267 596.42916 688.82031 601.46094 688.82031 C 608.26987 688.82031 608.33989 688.78765 609.40234 685.03711 C 609.7392 683.84794 611.96012 676.38682 614.33789 668.45898 C 616.71569 660.53114 618.68359 653.45121 618.71289 652.72461 C 618.74698 651.8765 618.52416 651.13441 618.08789 650.65234 C 617.44804 649.94541 617.03458 649.90234 611.03906 649.90234 C 603.60945 649.90234 603.6281 649.89245 602.55469 653.76758 C 602.21262 655.00252 601.81902 655.94342 601.67969 655.85742 C 601.54042 655.77134 601.20393 654.77172 600.93164 653.63672 C 600.65936 652.5017 600.07681 651.15581 599.63867 650.64648 L 598.84375 649.7207 L 591.61523 649.7207 C 583.10611 649.7207 583.26792 649.65081 582.00391 653.93555 C 581.32726 656.22929 581.20908 656.4172 580.99023 655.54492 C 580.20671 652.42313 579.27291 650.6823 578.08203 650.11719 C 577.30275 649.74734 574.5434 649.54164 571.80078 649.51758 z M 723.18945 649.86719 C 716.99322 649.89797 710.69721 650.09955 709.56445 650.44531 C 705.70251 651.62418 702.4577 655.18607 701.25391 659.56836 C 700.70829 661.555 700.68597 662.13171 701.08398 664.05859 C 701.76601 667.36063 703.35985 670.03057 706.12695 672.50977 L 707.42773 673.67578 L 699.75195 673.67969 L 692.07617 673.68555 L 693.1875 672.51367 C 693.79828 671.86953 694.79309 670.34669 695.39844 669.12891 C 698.38976 663.11117 696.15269 655.54232 690.38477 652.16211 C 686.88297 650.10983 685.17105 649.90234 671.86719 649.90234 C 663.55132 649.90234 659.43026 650.02998 658.81445 650.31055 C 658.31952 650.53606 657.74516 651.2098 657.53711 651.80664 C 657.29361 652.50523 657.16206 658.87498 657.16406 669.68555 C 657.16973 687.63194 657.18524 687.80402 658.9668 688.73047 L 658.96875 688.73242 C 659.61866 689.07036 661.50636 689.17051 665.88867 689.09961 C 673.58729 688.97529 673.49807 689.03703 673.67969 683.76367 L 673.80273 680.16406 L 677.38477 683.57031 C 679.67627 685.74917 681.76354 687.37439 683.17578 688.08008 L 685.38281 689.18164 L 701.45117 689.17773 C 720.79215 689.17259 721.49069 689.06045 724.80859 685.46094 C 729.89369 679.94427 729.10902 673.69588 722.41016 666.38867 L 720.50977 664.31641 L 728.20312 664.30469 C 736.48553 664.29237 736.79833 664.2269 737.50391 662.37109 C 737.99048 661.0881 737.98876 653.20867 737.5 651.80664 C 737.29193 651.2098 736.71566 650.53809 736.2207 650.3125 C 735.48223 649.976 729.38568 649.83641 723.18945 649.86719 z M 634.63281 649.90234 C 628.56945 649.90234 625.17717 650.0394 624.58203 650.31055 C 623.6649 650.72842 622.97444 652.07876 622.20508 654.95312 C 621.96727 655.84157 619.90925 662.89145 617.63281 670.62109 C 615.35636 678.35073 613.47051 685.26949 613.44141 685.99609 C 613.40756 686.84384 613.63228 687.58652 614.06836 688.06836 C 614.70708 688.77409 615.12259 688.82031 620.97266 688.82031 C 627.15073 688.82031 627.20245 688.8129 627.89258 687.93555 C 628.27497 687.4494 628.79502 686.31079 629.04883 685.4043 L 629.50977 683.75586 L 634.55859 683.85547 L 639.60547 683.95508 L 640.12695 685.75781 C 640.71854 687.80514 641.39433 688.70697 642.51172 688.94336 C 642.93696 689.03443 645.69177 689.08203 648.63281 689.05273 L 653.97852 689 L 654.84766 687.98828 C 655.3255 687.43218 655.7168 686.69146 655.7168 686.3418 C 655.7168 685.99211 653.44359 678.01565 650.66406 668.61523 C 646.44667 654.3518 645.45863 651.38952 644.69727 650.71289 C 643.80205 649.91649 643.61325 649.90234 634.63281 649.90234 z M 575.11914 652.50586 C 577.18381 652.60679 577.34304 653.64083 578.95508 658.66016 C 580.86365 664.60265 581.30527 665.56233 581.76953 664.78125 C 581.90992 664.54505 582.75459 661.74925 583.64648 658.56836 L 585.26758 652.78516 L 591.46875 652.78516 L 597.66992 652.78516 L 598.44922 655.39648 C 598.87838 656.83339 599.65509 659.53748 600.17578 661.4043 C 600.69644 663.27111 601.31559 664.86165 601.55078 664.93945 C 601.82396 665.02994 602.63787 663.00646 603.80273 659.3418 C 604.80615 656.18508 605.62695 653.41846 605.62695 653.19336 C 605.62695 652.90733 607.18117 652.78516 610.80078 652.78516 L 615.97461 652.78516 L 612.78125 663.50586 C 611.02396 669.40218 608.81676 676.86367 607.87695 680.08789 L 606.16797 685.94922 L 601.3457 685.85352 L 596.52539 685.75781 L 594.04492 677.48242 C 591.61633 669.37947 591.06262 667.98025 590.69922 669.0293 C 590.40466 669.87955 585.80859 685.63027 585.80859 685.78906 C 585.80859 685.8703 583.6941 685.93555 581.11133 685.93555 C 577.6833 685.93555 576.37108 685.81514 576.25 685.48633 C 576.15876 685.23857 573.99685 677.77942 571.44531 668.91016 L 566.80664 652.7832 L 568.10938 652.76367 C 568.82596 652.75262 570.70935 652.68112 572.29492 652.60352 C 573.53078 652.54295 574.43092 652.47221 575.11914 652.50586 z M 660.04102 652.74219 L 672.74414 652.85352 L 685.44531 652.96484 L 687.6582 653.98633 C 690.29493 655.20472 691.80304 656.67116 692.84375 659.02734 C 694.61077 663.0278 693.99311 667.27224 691.18945 670.39062 C 690.3477 671.32683 689.07507 672.40859 688.36133 672.79297 C 687.64758 673.17735 687.11433 673.64738 687.17773 673.83789 C 687.24118 674.02826 687.90726 674.67895 688.65625 675.28516 L 690.01758 676.38672 L 700.28711 676.38672 C 710.49627 676.38672 710.55925 676.38292 711.21094 675.57812 C 711.57137 675.13292 711.7855 674.46093 711.6875 674.08594 C 711.58944 673.71093 710.23745 672.25168 708.68359 670.8418 C 705.22155 667.70052 703.83594 665.20807 703.83594 662.12109 C 703.83594 658.26086 706.8533 654.14799 710.41016 653.16016 C 711.20636 652.93914 716.47924 652.78811 723.37305 652.78711 L 734.99609 652.78516 L 734.99609 657.10938 L 734.99609 661.43359 L 726.37695 661.43359 C 721.63644 661.43359 717.49674 661.53373 717.17773 661.65625 C 716.2173 662.0248 715.81355 663.12563 716.30273 664.04492 C 716.54001 664.49085 718.04543 666.16239 719.64844 667.75781 C 723.2305 671.32296 725.26562 674.92554 725.26562 677.70117 C 725.26562 680.60954 723.22474 683.83547 720.44531 685.32227 C 718.98416 686.10396 718.68145 686.11938 702.46289 686.22461 L 685.9668 686.33203 L 684.1875 685.36328 C 682.00771 684.17687 677.90205 680.43352 674.21094 676.26758 C 672.68908 674.54996 671.31132 673.08954 671.14844 673.02344 C 670.98558 672.95737 670.85156 675.91841 670.85156 679.60156 L 670.85156 686.29688 L 665.44727 686.29688 L 660.04102 686.29688 L 660.04102 669.51953 L 660.04102 652.74219 z M 625.8418 652.78516 L 634.41602 652.78516 L 642.99023 652.78516 L 646.16406 663.50391 C 650.28125 677.4052 652.83298 686.09142 652.83398 686.21875 C 652.83451 686.27475 650.71109 686.27475 648.11719 686.21875 C 642.86733 686.10562 643.17658 686.26651 642.38281 683.23438 C 642.1234 682.24339 641.75421 681.22821 641.5625 680.98047 C 641.06898 680.34361 628.14049 680.33738 627.7207 680.97461 C 627.56036 681.21799 627.09072 682.39242 626.67773 683.58594 L 625.92773 685.75586 L 621.01758 685.85742 L 616.10742 685.95703 L 616.4375 684.95703 C 616.70812 684.13403 624.37216 657.93873 625.50781 653.95508 L 625.8418 652.78516 z M 634.63086 659.81055 C 634.37076 659.81055 629.79654 673.31087 629.77734 674.13477 C 629.77391 674.28347 632.04166 674.40625 634.81641 674.40625 C 637.59115 674.40625 639.85184 674.28347 639.83984 674.13477 C 639.77055 673.24286 634.88594 659.81055 634.63086 659.81055 z M 670.85156 659.99219 L 670.85156 664.13477 L 670.85156 668.2793 L 675.72852 668.2793 C 681.26602 668.2793 682.72983 667.88753 683.62109 666.16406 C 684.75235 663.97644 684.01304 661.58537 681.89453 660.58008 C 680.93458 660.12451 679.54102 659.99219 675.75195 659.99219 L 670.85156 659.99219 z M 673.73438 662.875 L 677.11328 662.875 C 679.75695 662.875 680.59624 662.99883 680.9668 663.44531 C 681.3099 663.85881 681.33613 664.18026 681.0625 664.61523 C 680.76081 665.09489 679.98676 665.23791 677.21094 665.32031 L 673.73438 665.42188 L 673.73438 664.14844 L 673.73438 662.875 z M 634.69141 668.125 L 635.07812 669.19336 C 635.29026 669.78093 635.57821 670.54573 635.71875 670.89258 C 635.92954 671.41269 635.7789 671.52344 634.85547 671.52344 C 633.62236 671.52344 633.55169 671.27962 634.24023 669.37305 L 634.69141 668.125 z "
       id="path4160" />
  </g>
</svg>
