<?xml version="1.0" encoding="UTF-8" standalone="no"?>
<!-- Created with Inkscape (http://www.inkscape.org/) -->

<svg
   xmlns:dc="http://purl.org/dc/elements/1.1/"
   xmlns:cc="http://creativecommons.org/ns#"
   xmlns:rdf="http://www.w3.org/1999/02/22-rdf-syntax-ns#"
   xmlns:svg="http://www.w3.org/2000/svg"
   xmlns="http://www.w3.org/2000/svg"
   xmlns:sodipodi="http://sodipodi.sourceforge.net/DTD/sodipodi-0.dtd"
   xmlns:inkscape="http://www.inkscape.org/namespaces/inkscape"
   id="svg4516"
   version="1.1"
   inkscape:version="0.91 r13725"
   width="368.75"
   height="213.75"
   viewBox="0 0 368.75 213.75"
   sodipodi:docname="tzoagla.svg">
  <metadata
     id="metadata4522">
    <rdf:RDF>
      <cc:Work
         rdf:about="">
        <dc:format>image/svg+xml</dc:format>
        <dc:type
           rdf:resource="http://purl.org/dc/dcmitype/StillImage" />
        <dc:title />
      </cc:Work>
    </rdf:RDF>
  </metadata>
  <defs
     id="defs4520" />
  <sodipodi:namedview
     pagecolor="#ffffff"
     bordercolor="#666666"
     borderopacity="1"
     objecttolerance="10"
     gridtolerance="10"
     guidetolerance="10"
     inkscape:pageopacity="0"
     inkscape:pageshadow="2"
     inkscape:window-width="1360"
     inkscape:window-height="746"
     id="namedview4518"
     showgrid="false"
     inkscape:zoom="3.3084746"
     inkscape:cx="113.10346"
     inkscape:cy="145.27668"
     inkscape:window-x="1432"
     inkscape:window-y="-8"
     inkscape:window-maximized="1"
     inkscape:current-layer="svg4516" />
  <path
     sodipodi:type="inkscape:offset"
     inkscape:radius="0"
     inkscape:original="M 108.61523 31.636719 L 108.61523 33.431641 L 108.61523 35.226562 L 114.19531 35.226562 C 119.32912 35.226562 119.88572 35.343885 121.14062 36.679688 L 122.50391 38.130859 L 121.1543 40.535156 L 119.80273 42.939453 L 121.39062 48.533203 C 122.26363 51.609447 122.97656 54.317245 122.97656 54.550781 C 122.97656 54.76671 113.77981 54.939089 102.16406 54.964844 L 96.320312 54.966797 C 78.41345 54.953653 75.773549 54.827203 75.453125 53.992188 C 75.000532 52.812742 74.791963 52.963583 78.095703 52.058594 C 85.085412 50.143921 88.716518 47.956239 87.242188 46.546875 C 86.984555 46.300594 81.149028 45.808106 74.275391 45.451172 C 57.441017 44.576999 57.75 44.568354 57.75 45.929688 C 57.75 47.638103 62.111231 51.252587 64.746094 51.728516 C 68.054125 52.326038 68.750938 52.82468 69.615234 55.214844 C 70.511754 57.694141 70.966909 56.860484 64.09375 65.351562 C 60.573356 69.700648 59.123591 71.086779 58.410156 70.78125 C 51.761943 67.934152 47.073082 66.814081 41.644531 66.775391 C 35.112088 66.728851 32.354422 67.362512 26.087891 70.351562 C 13.139661 76.527698 5.3643127 92.319968 8.3222656 106.4375 C 11.274673 120.52855 22.371702 131.24894 36.177734 133.3457 C 51.282948 135.63977 67.354928 126.44258 72.455078 112.58594 C 73.033298 111.01499 73.686827 109.51908 73.90625 109.26172 C 74.125679 109.00434 76.451591 109.16562 79.076172 109.62109 C 82.776811 110.26328 84.205791 110.80736 85.441406 112.04297 L 87.035156 113.63672 L 86.091797 117.81641 C 85.331073 121.18501 84.927756 121.99609 84.015625 121.99609 C 83.282677 121.99609 82.882812 122.41837 82.882812 123.19336 C 82.882812 124.2306 83.2819 124.39065 85.875 124.39062 C 87.52062 124.39065 89.06956 124.40448 89.316406 124.42188 C 89.563245 124.43927 89.852577 124.03452 89.958984 123.52344 C 90.068981 122.99517 89.74618 122.59375 89.210938 122.59375 C 88.039766 122.59375 88.040649 122.25221 89.234375 117.5 C 89.879569 114.93147 90.548552 113.5449 91.25 113.32227 C 92.930472 112.78893 94.384356 110.81945 94.478516 108.94727 C 94.564916 107.22955 95.73849 105.83215 121.68945 76.546875 C 124.76623 73.07478 123.56683 73.931214 123.82617 73.833984 C 124.08551 73.736744 124.80201 73.966824 125.75586 74.396484 C 127.17938 75.037704 127.28878 75.59492 126.00586 77.078125 C 114.06744 90.880372 113.61051 110.78647 126.61133 123.85547 C 137.90695 135.21037 155.56086 136.8949 169.02734 127.90234 C 188.55782 114.86038 188.55782 85.448214 169.02734 72.40625 C 159.90503 66.314608 147.80347 64.95847 137.97656 68.927734 C 137.97656 68.927734 135.10784 70.398888 134.70312 69.375 C 133.49937 66.329591 129.65234 56.925781 129.65234 56.925781 L 124.81445 43.515625 L 126.28906 41.177734 C 127.10048 39.89237 127.76367 38.684948 127.76367 38.494141 C 127.76367 38.303341 126.37891 36.683055 124.68555 34.892578 L 121.60742 31.636719 L 115.11133 31.636719 L 108.61523 31.636719 z M 91.984375 60.794922 C 94.860666 60.788922 98.111239 60.797726 101.66602 60.822266 C 123.94161 60.97629 125.25433 61.045494 125.52539 62.082031 C 125.70897 62.784076 125.02509 64.017975 123.62695 65.509766 C 122.42558 66.79162 118.36306 71.340528 114.59766 75.619141 C 110.83226 79.897753 105.4551 85.953963 102.64844 89.076172 C 99.841784 92.198367 96.672266 95.699058 95.605469 96.855469 L 93.666016 98.957031 L 93.660156 96.994141 C 93.656956 95.796997 94.005488 94.895531 94.552734 94.685547 C 95.046419 94.496094 95.449219 93.866448 95.449219 93.285156 C 95.449219 91.793389 90.196732 91.634723 89.630859 93.109375 C 89.42191 93.653889 89.568699 94.204514 89.957031 94.333984 C 90.345369 94.463426 90.662109 95.40782 90.662109 96.433594 C 90.662109 97.570186 90.450533 98.076909 90.119141 97.730469 C 89.581387 97.168298 78.096116 62.287148 78.095703 61.214844 C 78.09561 60.963507 83.355503 60.812952 91.984375 60.794922 z M 72.375 63.71875 L 78.824219 83.433594 C 82.371252 94.276056 85.20603 103.41947 85.125 103.75391 C 85.02524 104.16571 83.377481 104.16571 80.019531 103.75391 L 75.060547 103.14648 L 74.810547 98.359375 C 74.672904 95.726378 74.121863 92.091428 73.585938 90.28125 C 72.230134 85.701717 68.864718 79.670438 66.037109 76.753906 L 63.65625 74.296875 L 68.015625 69.007812 L 72.375 63.71875 z M 150.51758 72.966797 C 155.32627 73.072046 160.26282 74.383996 164.27344 76.820312 C 184.34132 89.010899 180.84097 118.65748 158.45117 126.13867 C 151.57922 128.43483 142.35035 127.43299 136.34375 123.73828 C 127.99114 118.60049 122.97656 109.78093 122.97656 100.22656 C 122.97656 93.174369 125.98518 85.50536 130.36719 81.388672 L 131.79883 80.044922 L 132.79102 82.527344 C 134.50741 86.817026 137.94972 91.610917 142.25195 95.705078 C 144.53634 97.878996 146.72882 100.30889 147.125 101.10352 C 147.70417 102.26522 148.30822 102.54883 150.20703 102.54883 C 152.25481 102.54883 152.64672 102.32544 153.1582 100.87109 C 153.90742 98.740704 153.1918 97.542175 150.23242 95.978516 C 145.39297 93.42148 138.49081 84.114879 137.01758 78.160156 C 136.6352 76.614589 136.82154 76.414196 140.02148 74.949219 C 143.11349 73.533655 146.77748 72.884936 150.51758 72.966797 z M 40.416016 73.017578 C 40.866261 73.008178 41.32223 73.008578 41.783203 73.017578 C 42.274908 73.027178 42.772991 73.047725 43.277344 73.078125 C 49.160437 73.432685 55.648526 75.492776 55.130859 76.841797 C 54.435125 78.65485 40.752085 96.265625 40.039062 96.265625 C 39.148277 96.265625 37.404297 98.549687 37.404297 99.716797 C 37.404297 101.1941 40.121185 103.33073 41.650391 103.05664 C 43.144021 102.7889 66.441844 107.15083 67.115234 107.82422 C 67.833816 108.54279 65.378507 113.7596 62.875 116.83203 C 59.679076 120.7542 55.452732 123.94381 51.216797 125.63086 C 46.493005 127.51223 37.803127 127.81134 33.074219 126.25391 C 12.972425 119.63353 7.4342398 93.956019 23.076172 79.892578 C 28.094691 75.380496 33.662328 73.158929 40.416016 73.017578 z M 59.857422 79.669922 C 60.870797 79.582452 63.489327 82.401883 65.142578 85.439453 C 66.981622 88.818381 68.501292 94.842339 68.513672 98.808594 C 68.522172 101.52763 68.451152 101.64769 66.876953 101.58789 C 64.377577 101.49299 46.468296 98.347207 46.050781 97.929688 C 45.698056 97.576972 58.52988 80.435976 59.677734 79.726562 C 59.730254 79.694102 59.789864 79.675752 59.857422 79.669922 z "
     style="fill:none;stroke:#000000;stroke-width:0.29872957;stroke-miterlimit:4;stroke-dasharray:none"
     id="path6952"
     d="m 108.61523,31.636719 0,1.794922 0,1.794921 5.58008,0 c 5.13381,0 5.69041,0.117323 6.94531,1.453126 l 1.36329,1.451171 -1.34961,2.404297 -1.35157,2.404297 1.58789,5.59375 c 0.87301,3.076244 1.58594,5.784042 1.58594,6.017578 0,0.215929 -9.19675,0.388308 -20.8125,0.414063 l -5.843748,0.002 C 78.41345,54.953653 75.773549,54.827203 75.453125,53.992188 75.000532,52.812742 74.791963,52.963583 78.095703,52.058594 85.085412,50.143921 88.716518,47.956239 87.242188,46.546875 86.984555,46.300594 81.149028,45.808106 74.275391,45.451172 57.441017,44.576999 57.75,44.568354 57.75,45.929688 c 0,1.708415 4.361231,5.322899 6.996094,5.798828 3.308031,0.597522 4.004844,1.096164 4.86914,3.486328 0.89652,2.479297 1.351675,1.64564 -5.521484,10.136718 -3.520394,4.349086 -4.970159,5.735217 -5.683594,5.429688 -6.648213,-2.847098 -11.337074,-3.967169 -16.765625,-4.005859 -6.532443,-0.04654 -9.290109,0.587121 -15.55664,3.576171 -12.94823,6.176136 -20.7235783,21.968406 -17.7656254,36.085938 2.9524074,14.09105 14.0494364,24.81144 27.8554684,26.9082 15.105214,2.29407 31.177194,-6.90312 36.277344,-20.75976 0.57822,-1.57095 1.231749,-3.06686 1.451172,-3.32422 0.219429,-0.25738 2.545341,-0.0961 5.169922,0.35937 3.700639,0.64219 5.129619,1.18627 6.365234,2.42188 l 1.59375,1.59375 -0.943359,4.17969 c -0.760724,3.3686 -1.164041,4.17968 -2.076172,4.17968 -0.732948,0 -1.132813,0.42228 -1.132813,1.19727 0,1.03724 0.399088,1.19729 2.992188,1.19726 1.64562,3e-5 3.19456,0.0139 3.441406,0.0313 0.246839,0.0174 0.536171,-0.38736 0.642578,-0.89844 0.109997,-0.52827 -0.212804,-0.92969 -0.748046,-0.92969 -1.171172,0 -1.170289,-0.34154 0.02344,-5.09375 0.645194,-2.56853 1.314177,-3.9551 2.015625,-4.17773 1.680472,-0.53334 3.134356,-2.50282 3.228516,-4.375 0.0864,-1.71772 1.259974,-3.11512 27.210934,-32.400395 3.07678,-3.472095 1.87738,-2.615661 2.13672,-2.712891 0.25934,-0.09724 0.97584,0.13284 1.92969,0.5625 1.42352,0.64122 1.53292,1.198436 0.25,2.681641 -11.93842,13.802247 -12.39535,33.708345 0.60547,46.777345 11.29562,11.3549 28.94953,13.03943 42.41601,4.04687 19.53048,-13.04196 19.53048,-42.454126 0,-55.49609 -9.12231,-6.091642 -21.22387,-7.44778 -31.05078,-3.478516 0,0 -2.86872,1.471154 -3.27344,0.447266 -1.20375,-3.045409 -5.05078,-12.449219 -5.05078,-12.449219 l -4.83789,-13.410156 1.47461,-2.337891 c 0.81142,-1.285364 1.47461,-2.492786 1.47461,-2.683593 0,-0.1908 -1.38476,-1.811086 -3.07812,-3.601563 l -3.07813,-3.255859 -6.49609,0 -6.4961,0 z M 91.984375,60.794922 c 2.876291,-0.006 6.126864,0.0028 9.681645,0.02734 22.27559,0.154024 23.58831,0.223228 23.85937,1.259765 0.18358,0.702045 -0.5003,1.935944 -1.89844,3.427735 -1.20137,1.281854 -5.26389,5.830762 -9.02929,10.109375 -3.7654,4.278612 -9.14256,10.334822 -11.94922,13.457031 -2.806656,3.122195 -5.976174,6.622886 -7.042971,7.779297 l -1.939453,2.101562 -0.0059,-1.96289 c -0.0032,-1.197144 0.345332,-2.09861 0.892578,-2.308594 0.493685,-0.189453 0.896485,-0.819099 0.896485,-1.400391 0,-1.491767 -5.252487,-1.650433 -5.81836,-0.175781 -0.208949,0.544514 -0.06216,1.095139 0.326172,1.224609 0.388338,0.129442 0.705078,1.073836 0.705078,2.09961 0,1.136592 -0.211576,1.643315 -0.542968,1.296875 -0.537754,-0.562171 -12.023025,-35.443321 -12.023438,-36.515625 -9.3e-5,-0.251337 5.2598,-0.401892 13.888672,-0.419922 z M 72.375,63.71875 78.824219,83.433594 c 3.547033,10.842462 6.381811,19.985876 6.300781,20.320316 -0.09976,0.4118 -1.747519,0.4118 -5.105469,0 l -4.958984,-0.60743 -0.25,-4.787105 C 74.672904,95.726378 74.121863,92.091428 73.585938,90.28125 72.230134,85.701717 68.864718,79.670438 66.037109,76.753906 L 63.65625,74.296875 68.015625,69.007812 72.375,63.71875 Z m 78.14258,9.248047 c 4.80869,0.105249 9.74524,1.417199 13.75586,3.853515 20.06788,12.190587 16.56753,41.837168 -5.82227,49.318358 -6.87195,2.29616 -16.10082,1.29432 -22.10742,-2.40039 -8.35261,-5.13779 -13.36719,-13.95735 -13.36719,-23.51172 0,-7.052191 3.00862,-14.7212 7.39063,-18.837888 l 1.43164,-1.34375 0.99219,2.482422 c 1.71639,4.289682 5.1587,9.083573 9.46093,13.177734 2.28439,2.173918 4.47687,4.603812 4.87305,5.398442 0.57917,1.1617 1.18322,1.44531 3.08203,1.44531 2.04778,0 2.43969,-0.22339 2.95117,-1.67774 0.74922,-2.130386 0.0336,-3.328915 -2.92578,-4.892574 -4.83945,-2.557036 -11.74161,-11.863637 -13.21484,-17.81836 -0.38238,-1.545567 -0.19604,-1.74596 3.0039,-3.210937 3.09201,-1.415564 6.756,-2.064283 10.4961,-1.982422 z m -110.101564,0.05078 c 0.450245,-0.0094 0.906214,-0.009 1.367187,0 0.491705,0.0096 0.989788,0.03015 1.494141,0.06055 5.883093,0.35456 12.371182,2.414651 11.853515,3.763672 -0.695734,1.813053 -14.378774,19.423828 -15.091797,19.423828 -0.890785,0 -2.634765,2.284062 -2.634765,3.451172 0,1.477303 2.716888,3.613933 4.246094,3.339843 1.49363,-0.26774 24.791453,4.09419 25.464843,4.76758 0.718582,0.71857 -1.736727,5.93538 -4.240234,9.00781 -3.195924,3.92217 -7.422268,7.11178 -11.658203,8.79883 -4.723792,1.88137 -13.41367,2.18048 -18.142578,0.62305 -20.101794,-6.62038 -25.6399792,-32.297891 -9.998047,-46.361332 5.018519,-4.512082 10.586156,-6.733649 17.339844,-6.875 z m 19.441406,6.652344 c 1.013375,-0.08747 3.631905,2.731961 5.285156,5.769531 1.839044,3.378928 3.358714,9.402886 3.371094,13.369141 0.0085,2.719036 -0.06252,2.839096 -1.636719,2.779296 -2.499376,-0.0949 -20.408657,-3.240683 -20.826172,-3.658202 -0.352725,-0.352716 12.479099,-17.493712 13.626953,-18.203126 0.05252,-0.03246 0.11213,-0.05081 0.179688,-0.05664 z" />
</svg>
