<?xml version="1.0" encoding="UTF-8" standalone="no"?>
<!-- Created with Inkscape (http://www.inkscape.org/) -->

<svg
   xmlns:dc="http://purl.org/dc/elements/1.1/"
   xmlns:cc="http://creativecommons.org/ns#"
   xmlns:rdf="http://www.w3.org/1999/02/22-rdf-syntax-ns#"
   xmlns:svg="http://www.w3.org/2000/svg"
   xmlns="http://www.w3.org/2000/svg"
   xmlns:sodipodi="http://sodipodi.sourceforge.net/DTD/sodipodi-0.dtd"
   xmlns:inkscape="http://www.inkscape.org/namespaces/inkscape"
   id="svg4516"
   version="1.1"
   inkscape:version="0.91 r13725"
   width="368.75"
   height="213.75"
   viewBox="0 0 368.75 213.75"
   sodipodi:docname="tzoagla_breloc.svg">
  <metadata
     id="metadata4522">
    <rdf:RDF>
      <cc:Work
         rdf:about="">
        <dc:format>image/svg+xml</dc:format>
        <dc:type
           rdf:resource="http://purl.org/dc/dcmitype/StillImage" />
        <dc:title></dc:title>
      </cc:Work>
    </rdf:RDF>
  </metadata>
  <defs
     id="defs4520" />
  <sodipodi:namedview
     pagecolor="#ffffff"
     bordercolor="#666666"
     borderopacity="1"
     objecttolerance="10"
     gridtolerance="10"
     guidetolerance="10"
     inkscape:pageopacity="0"
     inkscape:pageshadow="2"
     inkscape:window-width="1360"
     inkscape:window-height="746"
     id="namedview4518"
     showgrid="false"
     inkscape:zoom="2.3394448"
     inkscape:cx="129.66928"
     inkscape:cy="94.540671"
     inkscape:window-x="1432"
     inkscape:window-y="-8"
     inkscape:window-maximized="1"
     inkscape:current-layer="svg4516" />
  <path
     style="fill:none;stroke:#000000;stroke-width:0.29872957;stroke-miterlimit:4;stroke-dasharray:none"
     d="M 108.61523 31.636719 L 108.61523 33.431641 L 108.61523 35.226562 L 114.19531 35.226562 C 119.32912 35.226562 119.88572 35.343885 121.14062 36.679688 L 122.50391 38.130859 L 121.1543 40.535156 L 119.80273 42.939453 L 121.39062 48.533203 C 122.26363 51.609447 122.97656 54.317245 122.97656 54.550781 C 122.97656 54.76671 113.77981 54.939089 102.16406 54.964844 L 96.320312 54.966797 C 78.41345 54.953512 75.773549 54.827201 75.453125 53.992188 C 75.000532 52.812742 74.791963 52.963583 78.095703 52.058594 C 85.085412 50.143921 88.716515 47.956239 87.242188 46.546875 C 86.984555 46.300594 81.149028 45.808106 74.275391 45.451172 C 57.441017 44.576999 57.75 44.568354 57.75 45.929688 C 57.75 47.638103 62.111231 51.252587 64.746094 51.728516 C 68.054125 52.326038 68.750938 52.82468 69.615234 55.214844 C 70.511754 57.694141 70.966909 56.860484 64.09375 65.351562 C 60.573356 69.700648 59.123591 71.086779 58.410156 70.78125 C 51.761943 67.934152 47.073082 66.814081 41.644531 66.775391 C 35.112088 66.728851 32.354422 67.362512 26.087891 70.351562 C 13.139661 76.527698 5.3643127 92.319968 8.3222656 106.4375 C 11.274673 120.52855 22.371702 131.24894 36.177734 133.3457 C 51.282948 135.63977 67.354928 126.44258 72.455078 112.58594 C 73.033298 111.01499 73.686827 109.51908 73.90625 109.26172 C 74.125679 109.00434 76.451591 109.16562 79.076172 109.62109 C 82.776811 110.26328 84.205791 110.80736 85.441406 112.04297 L 87.035156 113.63672 L 86.091797 117.81641 C 85.331073 121.18501 84.927756 121.99609 84.015625 121.99609 C 83.282677 121.99609 82.882812 122.41837 82.882812 123.19336 C 82.882812 124.2306 83.2819 124.39065 85.875 124.39062 C 87.52062 124.39065 89.06956 124.40448 89.316406 124.42188 C 89.563245 124.43927 89.852577 124.03452 89.958984 123.52344 C 90.068981 122.99517 89.74618 122.59375 89.210938 122.59375 C 88.039766 122.59375 88.04064 122.25221 89.234375 117.5 C 89.879569 114.93147 90.548552 113.5449 91.25 113.32227 C 92.930472 112.78893 94.384356 110.81945 94.478516 108.94727 C 94.564916 107.22955 95.738508 105.83215 121.68945 76.546875 C 123.563 74.432607 123.84651 73.930905 123.84375 73.833984 C 124.11316 73.748434 124.81709 73.973616 125.75586 74.396484 C 127.17938 75.037704 127.28878 75.59492 126.00586 77.078125 C 114.06744 90.880372 113.61051 110.78647 126.61133 123.85547 C 137.90695 135.21037 155.56086 136.8949 169.02734 127.90234 C 188.55782 114.86038 188.55782 85.448214 169.02734 72.40625 C 159.90503 66.314608 147.80347 64.95847 137.97656 68.927734 C 137.97656 68.927734 135.10787 70.398888 134.70312 69.375 C 133.49937 66.329591 129.65234 56.925781 129.65234 56.925781 L 124.81445 43.515625 L 126.28906 41.177734 C 127.10048 39.89237 127.76367 38.684948 127.76367 38.494141 C 127.76367 38.303341 126.37891 36.683055 124.68555 34.892578 L 121.60742 31.636719 L 115.11133 31.636719 L 108.61523 31.636719 z M 91.984375 60.794922 C 94.860666 60.788922 98.111227 60.797726 101.66602 60.822266 C 118.38909 60.937897 118.2765 60.986168 119.26953 61.150391 C 119.70693 61.222731 120.4261 61.586956 120.91602 62.572266 C 121.96858 63.425438 123.36298 65.982818 121.96484 67.474609 C 120.76347 68.756463 118.36306 71.340528 114.59766 75.619141 C 110.83226 79.897753 105.4551 85.953963 102.64844 89.076172 C 99.841776 92.198367 96.672266 95.699058 95.605469 96.855469 L 93.666016 98.957031 L 93.660156 96.994141 C 93.656956 95.796997 94.005488 94.895531 94.552734 94.685547 C 95.046419 94.496094 95.449219 93.866448 95.449219 93.285156 C 95.449219 91.793389 90.196732 91.634723 89.630859 93.109375 C 89.42191 93.653889 89.568699 94.204514 89.957031 94.333984 C 90.345369 94.463426 90.662109 95.40782 90.662109 96.433594 C 90.662109 97.570186 90.450533 98.076909 90.119141 97.730469 C 89.581387 97.168298 78.096116 62.287148 78.095703 61.214844 C 78.09561 60.963507 83.355503 60.812952 91.984375 60.794922 z M 72.375 63.71875 L 78.824219 83.433594 C 82.371252 94.276056 85.20603 103.41947 85.125 103.75391 C 85.02524 104.16571 83.377481 104.16571 80.019531 103.75391 L 75.060547 103.14648 L 74.810547 98.359375 C 74.672904 95.726378 74.121863 92.091428 73.585938 90.28125 C 72.230134 85.701717 68.864718 79.670438 66.037109 76.753906 L 63.65625 74.296875 L 68.015625 69.007812 L 72.375 63.71875 z M 150.51758 72.966797 C 155.32627 73.072046 160.26282 74.383999 164.27344 76.820312 C 184.34132 89.010899 180.84097 118.65748 158.45117 126.13867 C 151.57922 128.43483 142.35035 127.43299 136.34375 123.73828 C 127.99114 118.60049 122.97656 109.78093 122.97656 100.22656 C 122.97656 93.174376 125.98518 85.50536 130.36719 81.388672 L 131.79883 80.044922 L 132.79102 82.527344 C 134.50741 86.817026 137.94972 91.610917 142.25195 95.705078 C 144.53634 97.878996 146.72882 100.30889 147.125 101.10352 C 147.70417 102.26522 148.30822 102.54883 150.20703 102.54883 C 152.25481 102.54883 152.64672 102.32544 153.1582 100.87109 C 153.90742 98.740716 153.1918 97.542175 150.23242 95.978516 C 145.39297 93.42148 138.49081 84.114879 137.01758 78.160156 C 136.6352 76.614589 136.82154 76.414196 140.02148 74.949219 C 143.11349 73.533655 146.77748 72.884936 150.51758 72.966797 z M 40.416016 73.017578 C 40.866261 73.008178 41.32223 73.008578 41.783203 73.017578 C 42.274908 73.027178 42.772991 73.047725 43.277344 73.078125 C 49.160437 73.432685 55.648526 75.492776 55.130859 76.841797 C 54.435125 78.65485 40.752088 96.265625 40.039062 96.265625 C 39.148277 96.265625 37.404297 98.549687 37.404297 99.716797 C 37.404297 101.1941 40.121185 103.33073 41.650391 103.05664 C 43.144021 102.7889 66.441844 107.15083 67.115234 107.82422 C 67.833816 108.54279 65.378507 113.7596 62.875 116.83203 C 59.679076 120.7542 55.452732 123.94381 51.216797 125.63086 C 46.493005 127.51223 37.803127 127.81134 33.074219 126.25391 C 12.972425 119.63353 7.4342395 93.956019 23.076172 79.892578 C 28.094691 75.380496 33.662328 73.158929 40.416016 73.017578 z M 59.857422 79.669922 C 60.870797 79.582452 63.489327 82.401883 65.142578 85.439453 C 66.981622 88.818381 68.501292 94.842339 68.513672 98.808594 C 68.522172 101.52763 68.451152 101.64769 66.876953 101.58789 C 64.377577 101.49299 46.468296 98.347207 46.050781 97.929688 C 45.698056 97.576971 58.52988 80.435976 59.677734 79.726562 C 59.730254 79.694102 59.789864 79.675752 59.857422 79.669922 z "
     id="path6952" />
</svg>
