<?xml version="1.0" encoding="UTF-8" standalone="no"?>
<!-- Created with Inkscape (http://www.inkscape.org/) -->

<svg
   xmlns:dc="http://purl.org/dc/elements/1.1/"
   xmlns:cc="http://creativecommons.org/ns#"
   xmlns:rdf="http://www.w3.org/1999/02/22-rdf-syntax-ns#"
   xmlns:svg="http://www.w3.org/2000/svg"
   xmlns="http://www.w3.org/2000/svg"
   xmlns:sodipodi="http://sodipodi.sourceforge.net/DTD/sodipodi-0.dtd"
   xmlns:inkscape="http://www.inkscape.org/namespaces/inkscape"
   id="svg4845"
   version="1.1"
   inkscape:version="0.91 r13725"
   width="843.75"
   height="611.25"
   viewBox="0 0 843.75 611.25"
   sodipodi:docname="witcher.svg">
  <metadata
     id="metadata4851">
    <rdf:RDF>
      <cc:Work
         rdf:about="">
        <dc:format>image/svg+xml</dc:format>
        <dc:type
           rdf:resource="http://purl.org/dc/dcmitype/StillImage" />
        <dc:title></dc:title>
      </cc:Work>
    </rdf:RDF>
  </metadata>
  <defs
     id="defs4849" />
  <sodipodi:namedview
     pagecolor="#ffffff"
     bordercolor="#666666"
     borderopacity="1"
     objecttolerance="10"
     gridtolerance="10"
     guidetolerance="10"
     inkscape:pageopacity="0"
     inkscape:pageshadow="2"
     inkscape:window-width="1360"
     inkscape:window-height="746"
     id="namedview4847"
     showgrid="false"
     inkscape:zoom="8"
     inkscape:cx="140.58512"
     inkscape:cy="105.09109"
     inkscape:window-x="1432"
     inkscape:window-y="-8"
     inkscape:window-maximized="1"
     inkscape:current-layer="svg4845" />
  <g
     id="g5436">
    <path
       id="path5395"
       d="M 99.265625 464.91406 C 98.991793 464.91494 98.393094 465.85679 97.984375 467.07812 C 97.815374 467.58312 97.281577 470.14783 97.224609 470.59961 C 97.22442 470.60161 97.224781 470.60152 97.224609 470.60352 C 97.223409 470.60952 97.221803 470.61429 97.220703 470.62109 C 96.911099 472.44825 96.996185 480.10205 97.349609 482.20312 C 97.968522 485.88247 98.971115 489.98409 100.26953 494.15039 L 100.91992 496.24023 L 100.50391 496.38672 C 100.27487 496.46822 99.420269 496.77481 98.605469 497.06641 C 95.320396 498.24209 89.693024 501.95525 85.791016 505.52148 C 84.903973 506.33217 84.745823 506.56509 84.951172 506.75781 C 85.447886 507.22398 90.664281 510.06923 92.21875 510.72266 C 93.089196 511.08857 93.780909 511.44912 93.755859 511.52344 C 93.730789 511.59774 91.40685 513.46768 88.59375 515.67773 C 85.78065 517.88778 82.91097 520.26281 82.214844 520.95508 C 80.820283 522.34192 78.537272 524.86388 78.537109 525.01758 C 78.536983 525.14707 79.339097 525.4074 83.369141 526.58789 C 87.403916 527.76977 91.362141 528.70083 94.337891 529.16992 C 95.533845 529.35845 96.511719 529.57317 96.511719 529.64648 C 96.511719 530.18136 92.514363 534.07034 90.519531 535.47656 C 89.934838 535.88873 89.021775 536.56904 88.490234 536.98828 C 85.315317 539.47445 84.608159 539.78534 79.695312 543.66602 C 77.612476 545.25612 74.702647 547.85516 72.380859 550.19727 L 70.185547 552.41016 L 70.833984 552.64453 C 72.320373 553.1825 79.66958 553.74386 87.041016 553.88086 C 90.585394 553.94676 94.657737 553.83926 100.46875 553.52539 L 102.97852 553.38867 L 101.62891 554.81055 C 100.24833 556.26513 98.349384 558.62481 98.472656 558.73242 C 98.726518 558.95402 105.21231 559.58305 105.01758 559.36719 C 104.96438 559.30829 104.22352 559.20622 103.37305 559.14062 C 101.53159 558.99859 99.23138 558.63188 99.126953 558.46289 C 99.085943 558.39659 99.832136 557.51912 100.78516 556.51367 C 102.95363 554.22593 103.93946 553.06055 103.81445 552.93555 C 103.76115 552.88225 102.68389 552.94939 101.41992 553.08398 C 97.930717 553.4554 80.031617 553.37915 75.734375 552.97461 C 72.397511 552.66047 70.926275 552.37998 71.035156 552.07812 C 71.112206 551.86451 75.039327 548.20492 77.400391 546.14844 C 79.465738 544.34956 82.42887 542.01377 83.851562 541.06055 C 84.383104 540.70441 85.209111 540.09119 85.6875 539.69922 C 86.779231 538.80474 91.131384 535.49674 91.943359 534.94336 C 92.719831 534.41417 96.578212 530.4681 96.875 529.90039 C 97.137665 529.39798 97.448636 529.50288 93.517578 528.76953 C 92.030466 528.49212 90.030254 528.06335 89.072266 527.81641 C 83.929834 526.49084 82.591564 526.12202 81.574219 525.75195 C 80.65559 525.41779 79.978886 525.01562 80.335938 525.01562 C 80.46463 525.01562 86.017708 526.13344 87.427734 526.44336 C 92.118479 527.47438 94.359408 527.92548 96.212891 528.21094 L 98.330078 528.53711 L 99.40625 527.3418 L 100.48242 526.14453 L 113.81445 526.37305 C 121.14752 526.49887 127.17153 526.62302 127.19922 526.64844 C 127.22692 526.67384 126.09527 527.22454 124.68555 527.87109 C 119.80183 530.11097 113.20711 533.10581 108.20508 535.35742 C 105.44106 536.60161 99.092208 539.47252 94.095703 541.73633 C 89.099204 544.00014 83.792992 546.39305 82.304688 547.05469 C 80.816359 547.71633 78.773612 548.62895 77.763672 549.08203 C 76.753748 549.53511 75.099787 550.27547 74.089844 550.72656 C 73.079922 551.17766 72.180774 551.61278 72.091797 551.69336 C 71.843343 551.91837 75.13058 552.14172 79.308594 552.18359 C 94.921258 552.34008 103.08452 552.17782 105.04297 551.67383 C 105.53911 551.54616 105.9385 551.23654 106.39648 550.625 C 107.13308 549.64136 108.2262 548.92001 113.32812 546.04297 C 115.29484 544.93392 117.60316 543.61901 118.45703 543.12109 L 120.00977 542.21484 L 121.83984 542.61914 C 122.84636 542.84111 124.27732 543.15392 125.02148 543.31445 C 126.35275 543.60162 126.61463 543.69612 126.45508 543.83398 C 126.29985 543.96809 122.09622 546.23226 119.41602 547.625 C 117.92769 548.39838 116.44979 549.18267 116.13086 549.36914 C 115.64262 549.65461 109.86162 552.70557 102.11719 556.76367 C 100.02712 557.85888 99.751767 558.05906 100.29102 558.08984 C 100.4983 558.10164 100.97166 558.1326 101.34375 558.1582 C 101.71583 558.1838 103.45685 558.22073 105.21094 558.24023 C 108.9738 558.28203 110.66067 557.99843 113.13477 556.91406 C 121.37557 553.30223 126.13328 551.28561 126.2168 551.36914 C 126.2863 551.43864 125.04724 552.09143 118.25781 555.55078 C 115.2588 557.07884 114.75334 557.44286 113.69922 558.85156 C 112.84724 559.99009 110.17711 564.8392 110.32227 564.98438 C 110.36037 565.02247 110.72607 564.84573 111.13477 564.58984 C 111.54347 564.33396 113.26976 563.38085 114.9707 562.47266 C 118.5197 560.57771 124.07725 557.55983 125.21484 556.91016 C 126.73216 556.04361 130.81673 553.9548 130.62695 554.14258 C 130.52065 554.24776 128.69452 555.36252 126.56836 556.61914 C 124.44219 557.87575 120.70291 560.09453 118.25781 561.54883 C 112.55446 564.9411 110.08714 566.38149 109.37695 566.73828 C 108.92172 566.96698 108.87142 567.0464 109.12891 567.13672 C 109.46069 567.2531 113.04389 567.09589 115.26172 566.86719 C 120.48873 566.32806 131.79201 563.49908 135.55664 561.78711 C 136.8181 561.21347 137.19922 561.17897 137.19922 561.64062 C 137.19922 561.93174 136.89634 562.1445 135.93945 562.5293 C 134.24657 563.21007 130.29892 564.56661 128.98438 564.91797 C 128.39969 565.07425 127.13841 565.42476 126.18164 565.69727 C 125.22487 565.96979 123.834 566.28193 123.08984 566.39062 C 122.34568 566.49932 120.69172 566.75768 119.41602 566.9668 C 113.77899 567.89087 107.72265 568.41585 107.72266 567.97852 C 107.72265 567.69361 109.39498 563.5936 110.05078 562.27148 C 110.35412 561.65995 111.04071 560.508 111.57617 559.71094 C 112.57908 558.21801 112.61078 558.1156 111.94727 558.4707 C 111.73289 558.58544 110.67271 558.79932 109.5918 558.94727 L 107.62695 559.2168 L 109.61523 559.12305 L 111.60352 559.03125 L 111.37305 559.46094 C 111.24643 559.69752 110.84602 560.35737 110.48242 560.92578 C 110.11881 561.49419 109.56368 562.58379 109.24805 563.34766 C 108.93239 564.11153 108.50899 565.08453 108.30859 565.50977 C 107.70966 566.7806 107.14529 568.37968 107.25586 568.49023 C 107.5249 568.75929 112.74957 568.34835 116.9043 567.73242 C 118.39261 567.51178 120.39284 567.24211 121.34961 567.13281 C 124.26171 566.80017 128.46254 565.6535 132.75391 564.01953 C 134.13591 563.49333 135.35268 563.04344 135.45898 563.01953 C 135.56528 562.99563 135.97843 562.86512 136.375 562.73047 C 136.77158 562.59582 137.17318 562.53345 137.26758 562.5918 C 137.36198 562.6502 137.49971 563.33042 137.57422 564.10352 C 137.64872 564.87662 138.04762 568.59714 138.46094 572.37109 C 138.87426 576.14505 139.26145 579.75473 139.32227 580.39258 C 139.92326 586.69511 140.8954 588.1395 144.83398 588.58594 C 148.12922 588.95946 153.04796 588.74961 155.44531 588.13281 C 156.2852 587.91672 156.68807 587.67416 157.24219 587.05664 C 158.10641 586.0935 158.42968 584.77453 158.75586 580.875 C 158.87592 579.43984 159.01088 577.91937 159.05469 577.49414 C 159.16565 576.417 159.65825 571.15374 160.00586 567.3457 C 160.16599 565.59161 160.34353 563.87745 160.40039 563.53711 L 160.50391 562.91992 L 162.0918 563.59961 C 165.84015 565.20763 172.1818 567.09486 174.98633 567.43555 C 175.57104 567.50655 177.26837 567.72933 178.75781 567.93164 C 182.01585 568.37419 189.48438 568.67043 189.48438 568.35742 C 189.48438 568.24309 188.52682 566.18375 187.35742 563.7793 C 186.18804 561.37486 185.23047 559.36765 185.23047 559.31836 C 185.23047 559.26906 186.38439 559.27358 187.79297 559.33008 C 189.49895 559.39848 191.28935 559.32992 193.15625 559.125 C 197.45673 558.65296 197.89911 558.57363 197.83594 558.28125 C 197.74934 557.88055 196.88963 556.77548 195.24023 554.94336 C 194.41102 554.02227 193.81943 553.23881 193.92578 553.20312 C 194.03212 553.16742 194.83904 553.19778 195.7168 553.26758 C 198.18734 553.46504 217.01387 553.16665 217.29492 552.92578 C 217.33532 552.89118 212.68104 552.90247 206.95312 552.95117 C 200.11308 553.00927 195.91985 552.96819 194.73633 552.83008 C 193.74523 552.71439 192.87855 552.67616 192.81055 552.74414 C 192.74255 552.81214 193.2415 553.3603 193.91797 553.96289 C 194.59445 554.56547 195.69824 555.75705 196.37109 556.61133 L 197.59375 558.16406 L 196.00391 558.53125 C 194.6686 558.83852 193.60413 558.89738 189.37305 558.90625 L 184.33203 558.91797 L 185.14062 560.08789 C 185.58531 560.73121 186.40652 562.30047 186.9668 563.57617 C 187.5271 564.85187 188.19287 566.30717 188.44531 566.80859 C 188.69773 567.31002 188.9043 567.77741 188.9043 567.84766 C 188.9043 567.91796 188.01153 567.92032 186.92188 567.85352 C 185.8322 567.78642 184.11541 567.6832 183.10547 567.625 C 180.85246 567.49517 175.91598 567.00796 174.21484 566.74805 C 173.02692 566.56655 168.50638 565.37182 166.52344 564.71484 C 166.02231 564.5488 164.45936 563.92579 163.05078 563.33008 C 161.10672 562.50792 160.49023 562.16408 160.49023 561.89844 C 160.49023 561.70596 160.52205 561.54688 160.56055 561.54688 C 160.59895 561.54688 161.3602 561.88774 162.25195 562.30273 C 166.50505 564.28199 173.72382 566.09325 178.82812 566.46289 C 179.71869 566.52739 180.52826 566.62967 180.625 566.68945 C 180.95048 566.8906 186.78137 567.06637 186.7168 566.87305 C 186.65 566.6732 186.27561 566.45104 184.07227 565.30859 C 183.27495 564.89518 182.0137 564.19319 181.26953 563.74805 C 180.52537 563.30291 178.30655 562.03033 176.33984 560.91992 C 169.8496 557.25549 166.86914 555.52539 166.86914 555.42578 C 166.86914 555.33808 168.5853 556.22251 172.76367 558.45898 C 173.50783 558.85729 175.03025 559.65747 176.14648 560.23828 C 177.26272 560.81909 178.95925 561.71261 179.91602 562.22461 C 180.87279 562.73661 182.60499 563.66445 183.76562 564.28516 C 184.92627 564.90587 185.90412 565.41406 185.93945 565.41406 C 186.32625 565.41406 183.99998 560.29457 183.16211 559.30273 C 182.80279 558.87737 181.46388 558.05143 178.66016 556.52539 C 176.23966 555.20793 170.08906 551.66342 169.86523 551.45703 C 169.54243 551.1594 171.40836 552.00769 173.49805 553.10938 C 180.38146 556.73834 181.73892 557.28185 185.71484 557.99023 C 187.80161 558.36203 188.70176 558.42403 191.0293 558.35742 C 193.85719 558.27652 195.24876 558.14089 195.95898 557.87695 C 196.25975 557.76518 195.03213 557.07621 190.46484 554.79102 C 187.23032 553.17266 182.62052 550.82655 180.2207 549.57812 C 177.82087 548.3297 174.4447 546.5788 172.71875 545.6875 C 170.9176 544.75736 169.68329 544.01295 169.82031 543.93945 C 170.05574 543.81317 172.62915 543.17819 174.89062 542.68945 C 176.02148 542.44506 176.07521 542.45342 177.01758 542.98047 C 177.54912 543.27774 179.81051 544.45768 182.04297 545.60352 C 187.79954 548.55813 188.11708 548.7413 189.19727 549.73438 C 190.82093 551.22708 191.46001 551.68154 192.08008 551.78125 C 192.40659 551.83375 192.97753 551.92497 193.34961 551.98438 C 195.47844 552.32433 213.0794 552.18483 215.78711 551.80664 C 216.16859 551.75334 217.73552 551.65858 219.26758 551.5957 C 222.7544 551.4526 224.11306 551.31742 223.99414 551.125 C 223.94304 551.0424 221.35527 549.90612 218.24219 548.59961 C 211.70167 545.85465 204.04998 542.59818 200.98438 541.25586 C 199.81499 540.74383 197.11836 539.58609 194.99219 538.68359 C 179.77142 532.22275 167.97641 527.13893 167.77539 526.95312 C 167.62078 526.81021 170.34592 526.66258 176.82422 526.46289 C 178.63146 526.40719 181.02244 526.3222 182.13867 526.27344 C 183.25491 526.22464 186.08113 526.13925 188.41992 526.08203 C 190.7587 526.02483 193.60249 525.92733 194.73828 525.86719 L 196.80273 525.75781 L 197.60547 527.03125 C 198.04724 527.73076 198.51141 528.31151 198.63477 528.32227 C 200.25251 528.46352 206.43917 527.41251 211.31836 526.16797 C 214.94863 525.242 214.9919 525.4701 211.41211 526.66797 C 208.90075 527.50833 204.03645 528.61156 201.4668 528.92383 C 200.45688 529.04656 199.59214 529.1763 199.54492 529.21289 C 199.25279 529.43933 203.59464 533.27827 206.49219 535.35547 C 207.0769 535.77463 207.59919 536.16908 207.65234 536.23242 C 207.70554 536.29582 208.61854 536.94143 209.68164 537.66797 C 211.62909 538.99892 213.60696 540.53384 214.74414 541.59766 C 215.0828 541.91448 216.34772 543.04387 217.55664 544.10742 C 220.25476 546.48107 223.35274 549.51567 224.43945 550.85156 L 225.25 551.84961 L 224.71484 551.94922 C 224.42009 552.00342 222.68199 552.20207 220.85156 552.39062 C 219.02114 552.57917 217.5589 552.76983 217.60352 552.81445 C 217.75025 552.96118 225.14054 552.23281 225.33203 552.05273 C 225.6995 551.70717 224.79818 550.5511 221.98438 547.76367 C 218.01381 543.83036 213.83824 540.19401 211.05273 538.24219 C 209.91746 537.43608 204.2152 533.47591 201.11523 530.56641 L 199.89453 529.32617 L 201.11523 529.20898 C 205.06041 528.82631 213.00991 526.73974 216.11133 525.27344 L 217.12695 524.79297 L 216.49805 523.89648 C 216.15176 523.40297 215.55609 522.69184 215.17578 522.31641 C 213.52661 520.68839 209.31285 516.97923 207.26562 515.35352 C 206.04307 514.38268 204.58517 513.20964 204.02539 512.74609 C 203.46561 512.28254 202.90075 511.85248 202.76953 511.79102 C 202.59376 511.70872 202.60677 511.64655 202.82031 511.55469 C 203.93325 511.07604 207.76061 508.99233 208.71484 508.3457 C 209.35269 507.91345 210.20096 507.34023 210.59961 507.07227 C 210.99827 506.80431 211.32617 506.47695 211.32617 506.3457 C 211.32616 505.74378 201.58309 499.51234 196.99609 497.17969 C 195.65212 496.49623 195.36095 496.27213 195.5 496.03125 C 195.73275 495.628 197.13864 491.46484 197.68945 489.54688 C 198.25998 487.56029 198.72274 485.0289 198.96094 482.58984 C 199.06476 481.52676 199.23826 479.74318 199.3457 478.62695 C 199.75672 474.35635 198.92961 468.72132 197.52344 466.20898 C 197.04033 465.34582 196.9127 465.31477 196.73828 466.00977 C 196.48852 467.00489 195.2022 468.80629 193.8418 470.06836 C 192.05788 471.72334 189.81843 473.20721 186.48828 474.9375 C 184.99995 475.7108 183.52011 476.53644 183.20117 476.77148 C 182.88225 477.00653 182.05142 477.55484 181.35352 477.99023 L 180.08398 478.78125 L 178.17773 476.39062 L 176.26953 474 L 175.67773 474.35352 C 173.05356 475.91793 165.81393 479.98047 165.65039 479.98047 C 165.59969 479.98047 165.19083 479.06741 164.74219 477.95117 C 163.85952 475.75495 163.73455 475.65262 162.69727 476.28516 C 161.96703 476.73046 158.6178 477.57315 156.52734 477.83789 C 150.51298 478.59956 146.88394 478.74176 143.77148 478.33789 C 139.07051 477.72791 135.53643 476.98576 134.0293 476.29102 C 133.34901 475.97741 132.773 475.74502 132.74805 475.77344 C 132.72315 475.80184 132.32155 476.57604 131.85742 477.49414 L 131.01367 479.16211 L 129.75781 478.54297 C 128.70286 478.0228 125.90414 476.54715 121.21094 474.03516 L 120.30078 473.54883 L 118.60156 474.96289 C 117.66743 475.74147 116.54151 476.70698 116.09766 477.10742 L 115.28906 477.83594 L 113.99219 476.98242 C 113.27885 476.5139 111.29515 475.44152 109.58203 474.59961 C 106.08454 472.88079 103.78977 471.249 101.68945 468.98047 C 100.43177 467.62205 99.412109 465.951 99.412109 465.25195 C 99.412109 465.01908 99.356902 464.91573 99.265625 464.91602 L 99.265625 464.91406 z M 98.980469 465.67773 C 99.057479 465.67863 99.290085 466.22125 99.496094 466.88477 C 100.39089 469.7665 103.11516 473.97044 105.95312 476.8457 C 107.71934 478.63512 112.06225 481.6639 114.48828 482.79883 C 118.30939 484.5864 120.89363 487.94404 121.42188 491.80664 L 121.58398 492.99219 L 120.71094 494.19531 L 119.83789 495.40039 L 119.41992 494.88867 C 119.18915 494.60811 118.57995 493.76955 118.06641 493.02539 C 114.35579 487.64859 113.06974 486.31369 108.48438 483.07227 C 106.09638 481.38417 105.8154 481.08765 103.45312 477.75586 C 101.55392 475.07716 100.02562 471.56525 99.310547 468.23633 C 99.122145 467.35929 98.897367 466.64258 98.810547 466.64258 C 98.527202 466.64258 98.050545 468.62846 97.835938 470.70117 C 97.520554 473.74734 97.754894 478.04226 98.484375 482.58789 C 98.705579 483.96632 99.73075 487.70643 100.7832 490.97266 C 101.64491 493.6469 104.52302 499.91908 105.98438 502.30664 C 107.09143 504.11536 109.325 508.40155 109.2168 508.50977 C 109.1651 508.56147 108.71221 508.49976 108.21094 508.37305 C 107.47094 508.18672 107.17783 507.97705 106.65039 507.25391 C 105.30418 505.40819 102.05943 498.49349 101.24414 495.73242 C 101.0558 495.09457 100.7369 494.10316 100.53516 493.5293 C 100.09222 492.26929 97.984603 483.90251 97.632812 482.00781 C 97.464325 481.10044 97.382814 478.84617 97.382812 475.16211 C 97.382817 472.66877 97.277943 471.13549 97.328125 470.65234 C 97.330025 470.63524 97.325972 470.62768 97.326172 470.61328 C 97.355292 470.55438 97.384077 470.46838 97.398438 470.35742 C 97.467448 469.82427 97.820251 468.79331 97.886719 468.17383 C 98.305541 466.67808 98.743637 465.67492 98.980469 465.67773 z M 197.15039 466.33789 C 197.15839 466.33589 197.16563 466.33589 197.17383 466.33789 C 197.25753 466.35869 197.36381 466.59436 197.5957 467.125 C 198.68617 469.62034 199.24308 473.57388 199.08203 477.66016 C 198.87666 482.8711 198.43217 485.48845 196.73438 491.48047 C 196.25639 493.16732 193.89757 498.9881 193.05273 500.56445 C 192.65389 501.30861 191.74416 503.04768 191.03125 504.42969 C 190.31832 505.8117 189.59242 507.20452 189.41797 507.52344 L 189.09961 508.10352 L 190.49805 508.74023 C 193.48819 510.10474 199.25502 511.67773 201.26562 511.67773 C 201.79139 511.67773 202.28235 511.88707 203.10156 512.46094 C 204.57672 513.49428 206.582 515.1008 207.97656 516.36523 C 208.59627 516.92714 209.66838 517.87544 210.35938 518.47266 C 211.05039 519.06989 212.57279 520.47867 213.74219 521.60352 C 214.91159 522.72836 215.78014 523.65069 215.67383 523.65234 C 215.56753 523.65434 214.00256 522.8905 212.19531 521.95703 C 210.38808 521.02356 206.38763 518.96839 203.30469 517.39062 C 200.22175 515.81286 197.08987 514.19964 196.3457 513.80469 C 195.60154 513.40973 193.15363 512.16191 190.90625 511.03125 C 188.65885 509.90059 186.76735 508.83727 186.70312 508.66992 C 186.90628 508.02986 186.49925 508.98848 187.91211 506.39844 C 188.64069 505.31591 189.86993 503.34253 190.64453 502.01367 C 191.4191 500.68482 192.16702 499.41038 192.30664 499.18164 C 192.81954 498.3413 194.37487 494.71608 195.11133 492.64453 C 195.97497 490.21526 197.33922 485.36689 197.72266 483.36133 C 198.10153 481.37979 198.37261 476.74998 198.27344 473.98242 C 198.19244 471.72245 197.68892 468.08018 197.41211 467.75195 C 197.34411 467.67125 197.03988 468.41022 196.73633 469.39453 C 195.65668 472.89558 194.01087 476.28936 192.31445 478.50781 C 191.42351 479.6729 189.76661 481.14328 185.5918 484.47266 C 183.93987 485.79006 181.55859 488.20472 181.55859 488.5625 C 181.55859 488.84797 179.52412 491.39052 177.73828 493.33594 L 175.85742 495.38477 L 175.22852 494.50977 C 174.69255 493.76324 174.59961 493.47039 174.59961 492.51367 C 174.59961 491.14535 175.28709 489.19908 176.28516 487.74023 C 177.40866 486.09808 180.79241 483.3641 184.51172 481.08984 C 189.13757 478.26127 189.25687 478.17482 190.9043 476.54883 C 193.05457 474.42657 195.13078 471.03637 196.9707 466.64258 C 197.0463 466.46201 197.09576 466.35166 197.15039 466.33789 z M 100.38867 468.06836 C 100.44307 468.06036 100.70398 468.32275 101.22656 468.89648 C 101.82296 469.55125 103.22934 470.82444 104.35352 471.72656 C 105.9879 473.0381 107.04354 473.6833 109.61719 474.94727 C 113.37187 476.79128 115.76425 478.31691 118.44922 480.57617 C 122.04945 483.60562 125.50586 487.17862 125.50586 487.87305 C 125.50586 488.2697 125.21012 488.11177 124.86719 487.53125 C 124.21632 486.42942 121.02404 483.46542 116.67773 479.92773 C 114.63984 478.26899 114.48334 478.17559 110.47461 476.21094 C 108.63911 475.31138 106.50734 474.14984 105.73828 473.63086 C 104.24465 472.62294 101.0971 469.4574 100.50195 468.36523 C 100.39794 468.17433 100.35605 468.07318 100.38867 468.06836 z M 195.27148 469.25781 C 195.27848 469.26081 195.2832 469.26549 195.2832 469.27539 C 195.2832 469.65031 192.18603 472.61106 190.58789 473.76367 C 189.71472 474.39342 187.716 475.57537 186.14648 476.39062 C 184.57696 477.20587 182.09894 478.69497 180.63867 479.69922 C 179.17839 480.70346 177.54717 481.81667 177.01562 482.17383 C 176.48409 482.53099 175.26158 483.5956 174.29883 484.54102 C 173.33611 485.48644 172.19018 486.80657 171.75 487.47461 C 171.04647 488.54233 170.92581 488.64763 170.75586 488.33008 C 170.59577 488.03093 170.82305 487.63788 172.08008 486.05078 C 173.61399 484.11407 175.31652 482.56239 177.78906 480.84961 C 178.95489 480.04201 179.51204 479.63183 180.49609 478.85352 C 181.59966 477.98067 184.67719 476.09003 185.99414 475.47461 C 187.98403 474.54473 190.06978 473.31065 191.90039 471.98242 C 192.64456 471.44247 193.29946 470.95623 193.35547 470.90039 C 194.31173 469.94698 195.16803 469.21533 195.27148 469.25781 z M 120.32031 473.81445 L 122.38086 474.90234 C 125.0269 476.29813 130.80338 479.41472 130.87305 479.48438 C 130.90245 479.51378 130.87219 479.68079 130.80469 479.85547 C 130.73769 480.03014 130.62696 480.1713 130.55859 480.16992 C 130.49029 480.16892 129.69463 479.76811 128.79102 479.28125 C 127.16333 478.40427 122.77537 476.02765 121.41992 475.28906 L 120.71484 474.90625 L 118.44141 476.66797 C 116.6825 478.03021 116.10712 478.3819 115.9082 478.2168 C 115.76677 478.09938 115.70164 477.92336 115.76172 477.82617 C 115.82182 477.72897 116.87168 476.78686 118.0957 475.73242 L 120.32031 473.81445 z M 176.31836 474.60156 L 176.31836 474.60352 C 176.55302 474.69752 179.81836 478.8138 179.81836 479.01562 C 179.81836 479.11313 179.65271 479.28172 179.44922 479.39062 C 179.14282 479.5546 179.01845 479.49294 178.72461 479.03125 C 177.97354 477.8511 176.75354 476.18364 176.46875 475.94727 C 176.23213 475.75089 176.07987 475.7482 175.72461 475.93555 C 175.3375 476.13973 170.90311 478.66388 167.38281 480.68359 C 166.76132 481.04016 166.22687 481.33203 166.19531 481.33203 C 166.13971 481.33203 165.90234 480.78666 165.90234 480.6582 C 165.90234 480.43091 176.08682 474.50886 176.31836 474.60156 z M 132.92188 476.23242 C 133.58551 476.30432 137.27571 478.64522 137.66016 479.2793 C 137.86126 479.61099 138.91079 481.61433 139.99023 483.73047 C 141.85277 487.38182 142.10321 488.1594 141.32031 487.85742 C 141.18027 487.80342 140.11168 485.87974 138.94531 483.58203 C 136.85532 479.46478 136.81994 479.41162 136.5293 479.89062 C 136.18691 480.45492 136.16874 480.45259 134.83008 479.68945 C 134.00627 479.21982 133.77675 478.97235 133.61523 478.38477 C 133.50565 477.98611 133.37316 477.66016 133.32227 477.66016 C 133.27137 477.66016 132.0838 479.96408 130.68359 482.78125 C 128.80308 486.56474 128.04902 487.9043 127.79883 487.9043 C 127.61253 487.9043 127.42175 487.83954 127.37305 487.75977 C 127.28615 487.61747 132.53471 476.55121 132.83203 476.25 C 132.84003 476.242 132.85189 476.23698 132.86719 476.23438 C 132.88209 476.23138 132.90038 476.22983 132.92188 476.23242 z M 163.68164 476.27148 L 163.68164 476.27344 C 163.73754 476.27844 163.77495 476.30029 163.79883 476.33789 C 163.88943 476.48079 163.96474 476.6588 163.9668 476.73438 C 163.9698 476.85546 166.18097 482.15334 167.88867 486.12891 C 168.40212 487.32425 168.45319 487.56993 168.21484 487.7207 C 167.78954 487.98972 168.26716 487.93965 169.16992 487.62109 L 169.97266 487.33789 L 170.45703 488.43164 C 170.72333 489.03378 171.16916 489.82812 171.44922 490.19531 L 171.95898 490.86328 L 171.20117 491.52734 C 169.45168 493.06587 168.74177 493.81252 168.04492 494.83984 C 167.13219 496.18541 166.21819 497.98032 165.89258 499.06836 C 165.757 499.52144 165.54531 499.97569 165.42188 500.07812 C 165.29844 500.18057 163.89938 500.84038 162.3125 501.54297 C 160.72564 502.24556 159.31843 502.86438 159.18555 502.91992 C 158.90732 503.03624 158.89679 502.98747 158.94336 501.83594 C 159.02676 499.77338 160.4613 496.69237 162.41406 494.38672 C 163.15 493.51776 163.39062 493.08244 163.39062 492.60742 C 163.39062 491.88502 162.7738 490.21231 162.2207 489.43555 C 162.0136 489.14468 161.84375 488.87659 161.84375 488.83984 C 161.84437 488.80314 162.39936 488.75817 163.07617 488.73828 C 163.75295 488.71838 165.02261 488.56458 165.89844 488.39844 C 166.77427 488.2323 167.54725 488.09519 167.61523 488.09375 C 167.68323 488.09175 167.6443 488.02729 167.5293 487.94922 C 167.30413 487.7962 164.22235 480.5629 163.64453 478.83203 C 163.2275 477.58284 162.88875 477.39106 162.66602 478.27539 C 162.54189 478.76823 162.22308 479.107 161.28711 479.73828 C 160.61723 480.1901 159.96329 480.55859 159.83398 480.55859 C 159.70469 480.55859 159.51574 480.32237 159.41406 480.0332 C 159.24188 479.54366 159.08035 479.78646 157.08594 483.56055 C 155.71029 486.16375 154.8229 487.63724 154.60547 487.67969 C 154.34208 487.73109 154.29643 487.65872 154.39453 487.34961 C 154.60736 486.67902 158.74969 479.32301 159.09961 478.99414 C 159.28044 478.82419 160.37432 478.09796 161.53125 477.38086 C 162.85176 476.56235 163.43931 476.25135 163.68164 476.27148 z M 136.47852 477.49609 C 136.53372 477.49909 136.61315 477.51075 136.7168 477.53125 C 142.43899 478.66412 144.41957 478.87828 148.83594 478.83984 C 152.20967 478.81044 153.43799 478.71657 155.79297 478.31641 C 159.84293 477.62824 160.05744 477.60247 159.7168 477.82031 C 159.19918 478.15134 154.20847 479.20092 152.25 479.39062 C 149.23097 479.68306 146.77999 479.74306 145.31641 479.56055 C 143.5869 479.34489 139.03704 478.47425 137.7793 478.11914 C 136.82871 477.85075 136.09216 477.4758 136.47852 477.49609 z M 98.259766 478.5293 L 98.988281 480.65625 C 99.67618 482.66537 100.38391 484.10087 101.89258 486.55078 C 102.29223 487.19974 102.50393 487.42584 102.4375 487.13086 C 102.3777 486.86509 102.27978 486.03908 102.21875 485.29492 C 102.08814 483.70248 102.06756 483.67144 103.64648 487.40039 C 104.55736 489.55156 106.13515 492.45469 106.30273 492.28711 C 106.34383 492.24601 106.28244 491.76951 106.16602 491.22656 C 106.04952 490.6836 105.98886 490.03821 106.03125 489.79492 C 106.10515 489.37092 106.11514 489.36972 106.26953 489.74023 C 107.41826 492.49699 109.89348 497.04363 110.53516 497.57617 C 110.77548 497.7756 110.81445 497.63429 110.81445 496.58789 C 110.81445 495.11502 110.98421 495.23984 111.6543 497.21484 C 112.19495 498.80837 112.99601 500.53818 113.69727 501.62695 L 114.13281 502.30469 L 114.00195 501.14453 L 113.87109 499.98438 L 114.61523 500.7793 C 115.02387 501.21647 115.68337 501.68972 116.08203 501.83203 C 116.48069 501.97434 116.80664 502.17675 116.80664 502.28125 C 116.80664 502.69616 114.84075 504.33204 113.11914 505.34766 C 112.11835 505.93805 111.08023 506.65511 110.81445 506.94141 C 109.83813 507.99316 109.84061 507.99474 108.30859 505.33789 C 107.5306 503.98865 106.57763 502.36246 106.19141 501.72461 C 104.16542 498.37884 101.83023 493.3998 101.03516 490.73242 C 100.77746 489.86787 100.35484 488.46374 100.0957 487.61328 C 99.336281 485.12081 98.494257 481.34271 98.373047 479.88281 L 98.259766 478.5293 z M 197.73438 479.39844 C 197.85001 479.39844 197.62824 482.42361 197.42969 483.55469 C 196.82111 487.02153 193.83566 495.9204 192.65234 497.79492 C 192.37349 498.23662 191.90582 499.04138 191.61328 499.58203 C 190.24239 502.1155 189.54986 503.25738 187.98242 505.57617 C 187.05363 506.95021 186.20383 508.10285 186.09375 508.13867 C 185.98368 508.17447 185.54841 507.84376 185.12695 507.4043 C 184.70549 506.96484 183.70942 506.12409 182.91211 505.53516 C 180.50571 503.75767 179.43861 502.78511 179.03906 502.00195 C 178.83005 501.59224 178.66016 501.22407 178.66016 501.18359 C 178.66016 501.14309 179.1342 501.003 179.71484 500.87305 C 180.38976 500.72202 180.9924 500.42903 181.38477 500.0625 C 181.72234 499.74717 182.02589 499.51614 182.05859 499.54883 C 182.09129 499.58153 182.03986 499.95183 181.94531 500.37109 C 181.85071 500.79036 181.80626 501.16563 181.8457 501.20508 C 181.8852 501.24448 182.19516 500.8992 182.53516 500.4375 C 183.09827 499.67288 183.45969 498.96695 184.37695 496.84961 C 184.74862 495.99164 184.95369 496.27324 184.67969 497.26562 C 184.57544 497.64321 184.55746 497.99276 184.63867 498.04297 C 184.81344 498.15098 186.66189 495.07103 188.25586 492.01562 C 189.00479 490.58006 189.40807 489.97546 189.44922 490.23047 C 189.48342 490.44248 189.40975 490.92537 189.28516 491.30273 C 189.16063 491.68008 189.11514 492.04482 189.18359 492.11328 C 189.46448 492.39417 190.86559 490.25979 192.32812 487.32422 C 193.08524 485.80454 193.13723 485.74211 193.0293 486.50195 C 192.9615 486.97895 192.99181 487.32422 193.09961 487.32422 C 193.61316 487.32422 196.49423 482.53523 197.31445 480.31836 C 197.50129 479.81339 197.69071 479.39844 197.73438 479.39844 z M 126.13867 487.74414 C 126.30804 487.73254 126.56372 487.82373 127 487.99219 C 128.80178 488.68805 130.24768 488.91937 132.62891 488.89062 L 135.01562 488.86133 L 134.36914 489.64453 C 133.31801 490.91541 132.46289 492.392 132.46289 492.93945 C 132.46289 493.22002 132.6387 493.60619 132.85156 493.79883 C 133.37128 494.26917 134.11771 495.62365 134.80078 497.33203 C 135.27544 498.51913 135.36328 499.00853 135.36328 500.47266 C 135.36328 501.73629 135.2971 502.20389 135.12109 502.19727 C 134.98819 502.19227 133.7527 501.68625 132.375 501.07031 L 129.86914 499.94922 L 128.78125 497.41797 C 127.52926 494.50699 126.50497 492.84459 125.13672 491.49805 L 124.17383 490.54883 L 124.83398 489.7793 C 125.19693 489.35528 125.58932 488.71598 125.70703 488.35938 C 125.84395 487.94446 125.9209 487.75901 126.13867 487.74414 z M 153.44336 488.13672 L 153.44531 488.13672 C 154.41941 488.12225 155.57938 488.21167 157.16406 488.38281 C 158.6212 488.54019 160.14282 488.70317 160.54492 488.74414 C 160.94702 488.78514 161.30868 488.85172 161.34766 488.89258 C 161.70717 489.26923 162.69137 491.61845 162.76562 492.27734 C 162.87194 493.2205 162.75429 493.45124 161.15234 495.44141 C 160.59615 496.13242 159.82397 497.32876 159.4375 498.09961 C 158.75704 499.45681 157.97852 502.01484 157.97852 502.89062 C 157.97852 503.12637 157.86921 503.40219 157.73633 503.50391 C 157.43282 503.73621 151.37652 506.30812 151.32031 506.22852 C 151.16657 506.01082 149.85937 501.8512 149.85938 501.58203 C 149.86021 501.14472 150.68302 498.32143 151.16992 497.08594 C 151.3794 496.5544 151.60528 495.8135 151.67188 495.44141 C 151.78542 494.80712 151.77971 494.79498 151.56055 495.24805 C 151.10758 496.18437 149.51671 499.77792 148.59375 501.95117 C 148.34754 502.53092 148.36736 502.61046 148.95898 503.40039 C 150.13083 504.96507 150.88446 506.28545 150.70703 506.46289 C 150.61153 506.55829 149.91734 506.89054 149.16406 507.20117 L 147.79492 507.76562 L 146.58594 507.25195 C 145.92117 506.96977 145.3832 506.67416 145.39062 506.5957 C 145.39863 506.5172 145.89729 505.61589 146.5 504.5918 L 147.5957 502.73047 L 146.58398 499.71484 C 145.16074 495.47756 144.78867 494.45547 144.70508 494.53906 C 144.66498 494.57916 144.85765 495.43074 145.13281 496.42969 C 145.83613 498.983 146.20587 500.65925 146.2168 501.35547 C 146.2248 501.84837 145.57388 504.01191 144.81641 506.01758 L 144.65625 506.44531 L 143.53711 505.95117 C 142.92168 505.67914 141.80861 505.17611 141.06445 504.83398 C 140.32029 504.49185 138.91271 503.8695 137.93555 503.45117 L 136.1582 502.69141 L 136.1543 501.14453 C 136.1483 498.91618 135.59803 497.28636 133.89258 494.45117 C 133.5325 493.85257 133.23622 493.11165 133.23828 492.80664 C 133.24128 492.05381 134.00804 490.4918 134.84766 489.52734 C 135.48127 488.7995 135.6573 488.71484 136.96484 488.50391 C 138.73511 488.21835 142.33123 488.20743 143.92578 488.48438 C 144.5849 488.59884 145.74178 488.91402 146.49609 489.18359 L 147.86719 489.67383 L 149.00977 489.19336 C 150.71218 488.47682 151.82039 488.16125 153.44336 488.13672 z M 123.75977 491.11133 L 124.35938 491.68164 C 125.95095 493.19693 128.29102 497.01751 128.70703 498.77734 C 128.86577 499.44875 128.60359 499.45742 127.4375 498.82422 C 126.95911 498.56446 125.23155 497.76351 123.59766 497.04297 C 121.96376 496.32242 120.58626 495.62982 120.53711 495.50391 C 120.42959 495.22854 121.68589 493.39243 122.88867 492.06836 L 123.75977 491.11133 z M 172.45312 491.57031 L 173.38281 492.55664 C 174.30911 493.53997 175.69882 495.56876 175.54883 495.71875 C 175.50533 495.76225 173.56099 496.63194 171.22852 497.65039 C 166.94649 499.52009 166.67578 499.62043 166.67578 499.35352 C 166.67578 498.90519 167.52507 497.00607 168.23047 495.875 C 169.2013 494.31826 169.88303 493.56264 171.35156 492.42383 L 172.45312 491.57031 z M 119.625 496.06055 C 119.84445 496.06755 121.31188 496.69154 127.63086 499.45312 C 147.42764 508.10489 147.53361 508.15347 147.14844 508.41211 C 146.9922 508.51702 146.27938 508.90192 145.56445 509.26953 C 144.84952 509.63713 144.15311 509.93044 144.01758 509.91992 C 143.88204 509.90942 142.41803 509.2778 140.76367 508.51758 C 139.10933 507.75737 136.02 506.36116 133.90039 505.41406 C 129.77584 503.57108 129.59758 503.48928 124.15234 500.99609 C 122.18565 500.0956 120.12061 499.1637 119.5625 498.92383 C 119.00438 498.68397 118.54688 498.45695 118.54688 498.41992 C 118.54688 498.31831 119.5157 496.14837 119.59766 496.06641 C 119.60266 496.06141 119.6104 496.05955 119.625 496.06055 z M 175.87891 496.30078 C 175.90881 496.30478 175.93046 496.31462 175.94336 496.32812 C 176.03786 496.42602 176.38067 496.9927 176.70508 497.58789 L 177.29492 498.66992 L 175.31836 499.55078 C 173.41605 500.3998 170.92755 501.49652 166 503.65625 C 164.72429 504.21539 161.07011 505.80533 157.88086 507.1875 C 154.6916 508.56968 151.93074 509.75062 151.74609 509.8125 C 151.40123 509.92807 148.67326 508.59985 148.56055 508.26172 C 148.49925 508.07782 149.51846 507.61248 158.6543 503.65625 C 169.87062 498.79906 172.83209 497.507 174.26758 496.84375 C 175.06169 496.47684 175.66992 496.27371 175.87891 496.30078 z M 100.76758 496.66211 C 100.99495 496.6619 101.15039 496.70503 101.15039 496.80469 C 101.15039 497.6712 104.18308 504.29477 105.625 506.57812 C 106.03505 507.22746 106.36914 507.80544 106.36914 507.86328 C 106.36914 507.92108 105.95614 507.8422 105.45117 507.68945 C 104.41488 507.37599 99.950571 506.66325 98.080078 506.51172 C 96.767574 506.40539 96.734364 506.44682 97.458984 507.31055 C 97.759998 507.66938 97.75613 507.67064 97.253906 507.34766 C 96.970483 507.16536 96.689619 506.89137 96.630859 506.73828 C 96.555709 506.54244 96.207324 506.45898 95.455078 506.45898 C 94.867049 506.45898 94.386717 506.51086 94.386719 506.57422 C 94.386719 506.63752 94.574825 506.96349 94.804688 507.29883 C 95.209531 507.88943 95.197422 507.88767 94.457031 507.18555 C 93.706042 506.47338 93.66547 506.45898 92.162109 506.45898 L 90.632812 506.45898 L 91.486328 507.33008 C 92.614345 508.47945 92.245016 508.43697 90.769531 507.24805 L 89.587891 506.29688 L 88.078125 506.38867 C 86.659957 506.47527 86.114311 506.61366 86.558594 506.77539 C 86.899175 506.89936 91.486326 509.93398 91.486328 510.03516 C 91.486328 510.18204 91.524489 510.19984 89.457031 509.06836 C 88.393939 508.48655 86.980843 507.72967 86.316406 507.38672 C 85.651989 507.04378 85.114388 506.67256 85.123047 506.5625 C 85.138487 506.36712 86.64543 505.01417 88.78125 503.27539 C 91.238576 501.27488 95.774497 498.45524 97.767578 497.68945 C 98.511745 497.40352 99.262588 497.09158 99.435547 496.99609 C 99.811955 496.78829 100.38863 496.66251 100.76758 496.66211 z M 195.39648 496.92383 C 195.43938 496.92083 195.48503 496.92195 195.53516 496.92578 C 196.4776 496.99188 203.67793 501.12036 207.94336 504.04102 C 210.98618 506.12453 210.97813 506.11873 210.69922 506.375 C 209.83774 507.16654 206.40368 509.32125 204.51172 510.25781 C 204.00727 510.50752 203.53594 510.71289 203.46289 510.71289 C 203.38989 510.71289 204.6719 509.8083 206.3125 508.70312 C 209.61268 506.48001 210.21686 506.03703 209.7793 506.1582 C 209.61984 506.2024 208.70677 506.29216 207.75 506.35742 C 206.21423 506.46217 205.90983 506.54571 205.16406 507.07617 L 204.32031 507.67773 L 204.66016 507.1582 C 204.84681 506.87331 204.94452 506.58514 204.87695 506.51758 C 204.80935 506.44998 204.16957 506.41752 203.45703 506.44336 C 202.54628 506.47636 202.00771 506.59994 201.64062 506.86133 C 200.96902 507.33957 200.83128 507.32954 200.99414 506.81641 C 201.12089 506.41703 201.08572 506.40607 200.11133 506.52148 C 199.55287 506.58758 198.91919 506.79506 198.70312 506.98438 C 198.32486 507.31583 198.31466 507.31636 198.44336 506.96484 C 198.56642 506.62867 198.50356 506.61082 197.6543 506.73242 C 197.14699 506.80502 195.99345 506.94761 195.08984 507.05078 C 194.18622 507.15394 192.67188 507.37076 191.72656 507.53125 C 190.78125 507.69175 189.98078 507.79522 189.94727 507.76172 C 189.91377 507.72822 190.85326 505.74701 192.0332 503.35938 C 193.21313 500.97175 194.37744 498.53978 194.62109 497.95508 C 194.94999 497.16591 195.09627 496.9472 195.39648 496.92383 z M 118.70898 499.11133 C 118.94482 499.08463 119.80278 500.07949 120.11328 500.76953 C 120.30762 501.20142 120.59649 502.60916 120.75586 503.89648 C 121.05494 506.31226 121.57088 508.18237 122.26367 509.35938 C 124.12604 512.52341 124.945 513.06158 130.53125 514.79297 C 133.10022 515.58918 133.15756 515.61985 134.31055 516.78125 C 135.64829 518.12874 136.82744 520.15619 137.56445 522.37891 L 138.06836 523.90039 L 137.47266 525.85938 C 137.14427 526.93691 136.75157 528.16887 136.60156 528.59766 C 136.21589 529.70007 136.25903 530.23905 136.81836 531.29102 C 137.43909 532.45847 137.84674 532.8053 139.51953 533.59766 C 140.2637 533.95015 141.42807 534.66363 142.10938 535.18359 C 144.8923 537.30754 144.64001 537.17506 145.96094 537.18359 C 147.06099 537.19059 147.24179 537.25157 147.77148 537.78125 C 148.35045 538.36024 148.36619 538.36395 148.63477 537.98047 C 148.90146 537.59974 149.56361 537.36325 151.10156 537.09961 C 151.68002 537.00041 152.16336 536.67845 153.13086 535.74805 C 153.82941 535.07626 155.00974 534.19829 155.75391 533.79883 C 157.88917 532.65262 158.74514 531.69164 159.125 530.00391 C 159.29557 529.24605 158.98946 527.86235 158.19336 525.78906 C 157.96884 525.20436 157.78516 524.4654 157.78516 524.14648 C 157.78816 522.70695 159.42876 518.88359 160.6582 517.44727 C 161.60625 516.33967 163.01033 515.49214 164.9375 514.86523 C 168.93486 513.56486 171.67989 512.293 172.50195 511.35938 C 173.20933 510.55599 173.70698 509.1369 174.3457 506.10156 C 174.71589 504.34241 175.17783 502.48445 175.37305 501.9707 C 175.75716 500.95982 176.87386 499.11523 177.10156 499.11523 C 177.17876 499.11523 177.57525 499.78939 177.98438 500.61328 C 179.06696 502.79322 179.40325 503.17876 181.80273 504.98242 C 183.84824 506.52 185.98692 508.48513 185.79883 508.6543 C 185.75213 508.6963 184.67204 509.22367 183.39844 509.82617 C 180.2961 511.2938 178.48489 512.36153 175.37305 514.55859 C 171.52207 517.2775 169.38058 519.54345 167.25781 523.14453 C 166.38726 524.62134 165.73927 525.45179 164.7832 526.31055 C 162.75908 528.12866 161.07383 531.25278 160.65039 533.97656 L 160.42578 535.41992 L 158.57422 535.84766 C 156.49028 536.32834 155.13238 536.74953 153.43555 537.44531 C 151.24167 538.34491 150.72608 538.59004 149.43945 539.33984 C 148.72988 539.75333 148.11503 540.0918 148.07422 540.0918 C 148.03342 540.0918 147.30912 539.74388 146.46484 539.31836 C 144.41162 538.28355 141.80215 537.49165 138.33008 536.85156 L 135.45898 536.32227 L 135.23828 535.25977 C 134.69423 532.64418 133.02572 529.52056 131.00195 527.33398 C 130.55919 526.8556 130.01519 526.05247 129.79492 525.54883 C 129.57462 525.0452 129.09816 524.17664 128.73633 523.61719 C 128.37447 523.05774 127.83611 522.17243 127.53906 521.65039 C 126.73098 520.23038 124.68758 517.65691 123.22461 516.21484 C 120.56668 513.59484 114.09471 509.92309 110.46094 508.97461 C 109.83716 508.8118 109.65233 508.67983 109.73633 508.46094 C 109.79833 508.29927 109.84961 508.13857 109.84961 508.10352 C 109.84961 507.96472 112.6931 505.91466 113.32812 505.5957 C 113.7002 505.40882 114.5485 504.8523 115.21289 504.35938 C 116.30337 503.55032 116.52632 503.25725 117.50977 501.33789 C 118.10896 500.1685 118.63079 499.17558 118.66992 499.13086 C 118.67992 499.11956 118.69318 499.11313 118.70898 499.11133 z M 125.32812 505.30078 C 125.44325 505.30078 127.07497 506.0041 128.95312 506.86523 C 130.83127 507.72637 132.7802 508.60809 133.28516 508.82422 C 133.79012 509.04034 134.20312 509.27928 134.20312 509.35547 C 134.20312 509.85326 132.9397 511.12162 131.9707 511.5957 C 130.54113 512.29512 129.1398 512.4001 128.18555 511.88086 C 126.9122 511.18798 125.97741 509.9057 125.52539 508.23047 C 125.0835 506.59285 124.99645 505.30078 125.32812 505.30078 z M 170.00586 505.49414 C 170.31261 505.49414 170.02995 507.4116 169.51367 508.83398 C 168.95958 510.36046 168.18308 511.39879 167.23047 511.88477 C 166.53482 512.23967 165.34037 512.33989 164.45312 512.11719 C 163.82611 511.9598 161.50201 510.38466 161.27734 509.96484 C 160.97686 509.40339 160.99245 509.38012 161.89258 508.99219 C 162.34439 508.79747 163.10559 508.459 163.58398 508.24023 C 166.11307 507.08366 169.82973 505.49414 170.00586 505.49414 z M 107.50977 508.47266 C 107.58777 508.47566 107.65746 508.48244 107.7207 508.49414 C 108.99508 508.7323 109.10864 508.62021 105.69336 510.51172 C 102.95647 512.02751 100.51088 513.34642 97.189453 515.09766 C 93.672125 516.9522 91.97117 517.83806 83.923828 521.99609 C 81.94345 523.01935 80.269919 523.85547 80.205078 523.85547 C 79.944643 523.85547 82.25855 521.18286 83.308594 520.27148 C 84.415062 519.3111 89.27306 515.47064 91.949219 513.43945 C 93.944592 511.92497 94.698444 511.48541 95.300781 511.48438 C 95.967321 511.48338 100.09475 510.43271 104.05078 509.25781 C 106.01528 508.67437 106.96408 508.45508 107.50977 508.47266 z M 148.0918 508.66797 C 148.24328 508.66197 148.34048 508.71974 148.45703 508.82227 C 149.04778 509.34168 150.46018 509.97067 152.95312 510.82422 C 154.28197 511.2792 155.60955 511.74322 155.9043 511.85547 L 156.43945 512.05859 L 155.87891 513.17383 C 154.80472 515.30408 153.90205 518.32103 153.78125 520.18555 C 153.67695 521.79536 153.71145 522.03453 154.30273 523.70508 C 154.65179 524.69124 155.02918 525.61487 155.14062 525.75586 C 155.40232 526.08685 155.16973 526.2283 153.48047 526.77148 C 152.41014 527.11564 151.87629 527.17596 150.64844 527.0918 C 149.81626 527.0348 148.95871 526.89322 148.74219 526.77734 C 148.44497 526.61826 148.17943 526.63656 147.66016 526.85352 C 147.23505 527.03115 146.3985 527.13526 145.46875 527.125 C 143.86884 527.1073 143.53879 527.03594 142.05469 526.38672 C 141.0091 525.92932 141.03629 526.06575 141.55664 523.85547 C 142.56555 519.56988 142.20512 517.17803 140.03125 513.71094 C 139.60053 513.02397 139.31769 512.42025 139.40039 512.36914 C 139.48309 512.31804 139.97702 512.1343 140.5 511.96094 C 141.72896 511.55354 144.50225 510.3381 146.52344 509.32227 C 147.43353 508.86488 147.83933 508.67819 148.0918 508.66797 z M 148.48047 511.87891 C 147.46172 511.879 146.41031 512.07254 144.87891 512.45898 C 143.52527 512.80056 142.28838 513.15446 142.12891 513.24414 C 141.71235 513.47841 141.87198 513.46026 143.99219 513.04297 C 146.61681 512.5264 149.09891 512.37993 150.72852 512.64453 C 153.72246 513.13067 154.10663 513.06924 151.88867 512.45898 C 150.48512 512.0728 149.49923 511.87882 148.48047 511.87891 z M 157.04102 512.25586 L 157.85742 512.8418 C 158.30634 513.16419 159.23404 513.93533 159.91797 514.55469 L 161.16016 515.67969 L 160.5332 516.39648 C 159.48274 517.59287 157.87252 521.11925 157.12305 523.86523 C 156.79493 525.06752 156.04143 525.96812 155.71289 525.55273 C 155.60498 525.41631 155.24539 524.59042 154.91211 523.7168 C 154.41917 522.4247 154.30633 521.84863 154.30859 520.625 C 154.31359 518.2503 155.03182 515.79761 156.46484 513.27148 L 157.04102 512.25586 z M 138.44336 512.67188 C 138.58221 512.68877 138.67352 512.80541 138.85156 513.04102 C 139.81155 514.31141 140.86875 516.35113 141.16797 517.50781 C 141.591 519.14308 141.51246 521.5636 140.98242 523.2793 C 140.76848 523.97182 140.47922 524.6954 140.33789 524.88867 C 140.09846 525.21612 140.027 525.18238 139.30078 524.39453 C 138.80759 523.85948 138.43854 523.22276 138.29688 522.66016 C 137.89398 521.06013 136.46453 518.33833 135.18359 516.73242 L 134.33008 515.66016 L 135.66211 514.45312 C 136.39481 513.789 137.33168 513.09418 137.74414 512.9082 C 138.11784 512.73968 138.30451 512.65499 138.44336 512.67188 z M 148.48438 513.86328 C 147.91855 513.87498 147.38993 514.03142 146.68164 514.34961 L 145.91992 514.69336 L 148.56445 514.68359 C 150.01967 514.67859 151.21094 514.61867 151.21094 514.55078 C 151.21135 514.48288 150.65505 514.27652 149.97266 514.0918 C 149.38814 513.93358 148.92445 513.85421 148.48438 513.86328 z M 148.87305 515.93945 C 148.36821 515.93145 147.17462 516.26677 146.92188 516.48828 C 146.84748 516.55348 147.64672 516.60742 148.69922 516.60742 L 150.61328 516.60742 L 149.99414 516.27734 C 149.65391 516.09576 149.14953 515.94392 148.87305 515.93945 z M 113.13477 516.49609 C 116.51417 516.48709 119.993 516.78289 122.80469 517.36914 C 124.34531 517.69037 124.79292 518.00712 125.9043 519.55469 C 126.52529 520.4194 126.53053 520.4362 126.07227 520.30664 C 123.91975 519.69807 120.63784 519.49501 117.77344 519.79102 C 116.55089 519.91737 114.81182 520.09466 113.9082 520.1875 C 110.19372 520.56914 106.77429 521.01241 101.92383 521.74023 C 96.547875 522.5469 95.278456 522.73133 88.677734 523.66602 C 84.324783 524.28241 83.165521 524.36768 83.486328 524.04688 C 83.593518 523.93967 84.198423 523.67083 84.830078 523.44922 C 85.461713 523.22761 86.326719 522.89407 86.751953 522.70703 C 89.165015 521.64563 101.33067 517.84097 103.4707 517.47852 C 104.16171 517.36149 105.20437 517.18005 105.78906 517.07617 C 107.93655 516.69463 110.50635 516.50326 113.13477 516.49609 z M 185.9375 516.79102 C 188.11274 516.80772 190.11522 516.95161 191.60938 517.22852 C 192.83193 517.45509 194.09318 517.68402 194.41211 517.73633 C 195.12615 517.85342 198.95848 518.83975 200.79102 519.37891 C 203.07316 520.05035 209.66427 522.51582 209.95508 522.80664 C 210.10366 522.95522 209.12433 522.85553 207.8457 522.5918 C 207.15471 522.44929 204.19692 522.24218 201.27344 522.13086 C 194.81557 521.88495 193.71881 521.80811 189.77344 521.33789 C 188.07251 521.13516 185.37589 520.81791 183.78125 520.63086 C 179.66627 520.1482 173.23776 520.1825 170.7832 520.70117 C 169.79985 520.90895 168.99414 521.0169 168.99414 520.94141 C 168.99414 520.67886 170.2559 519.26366 170.83203 518.87891 C 171.60508 518.36267 173.24741 517.98311 177.41406 517.35742 C 180.05903 516.96023 183.14075 516.76956 185.9375 516.79102 z M 196.42188 526.32031 L 194.74023 526.4375 C 192.93274 526.56287 188.31275 526.68868 179.24023 526.86133 C 173.77444 526.96534 170.52385 527.0953 170.40625 527.21289 C 170.37595 527.24319 171.76365 527.8619 173.49023 528.58789 C 175.21681 529.31388 177.93467 530.46791 179.5293 531.15234 C 181.12394 531.83677 186.29857 534.03278 191.0293 536.0332 C 207.53581 543.0131 216.6371 546.96211 219.05664 548.19531 C 219.64134 548.49332 220.2507 548.74455 220.41016 548.75391 C 221.03019 548.79031 214.48286 542.74818 211.42188 540.45898 C 209.72095 539.18692 207.90453 537.82293 207.38477 537.42773 C 202.09032 533.40224 198.55587 529.94598 196.96484 527.24023 L 196.42188 526.32031 z M 100.75586 526.79297 L 100.23438 527.49805 C 98.013773 530.50774 95.280036 533.27838 91.777344 536.06641 C 90.182716 537.33569 88.441697 538.74633 87.910156 539.20117 C 87.378618 539.65601 86.161853 540.58459 85.205078 541.26367 C 83.344817 542.584 77.613163 547.22863 76.621094 548.2207 C 76.291958 548.54982 76.023438 548.91033 76.023438 549.02148 C 76.023438 549.15991 76.101248 549.15843 76.271484 549.01758 C 76.719212 548.64599 78.734029 547.70751 86.857422 544.08594 C 103.37105 536.72383 109.58621 533.9508 110.48828 533.53906 C 110.99904 533.30593 112.56399 532.60773 113.9668 531.98828 C 115.36959 531.36883 117.21398 530.55064 118.06445 530.16992 C 118.91492 529.7892 120.89374 528.97808 122.46289 528.36719 C 124.11327 527.72468 125.21319 527.19968 125.07227 527.12109 C 124.93826 527.04639 119.41322 526.94125 112.79297 526.88867 L 100.75586 526.79297 z M 195.4375 527.68555 L 196.21289 528.82812 C 196.6392 529.45591 197.39445 530.44165 197.89062 531.01953 C 198.38679 531.59741 198.87828 532.22962 198.98438 532.42383 C 199.18274 532.78692 197.28212 531.35264 196.02539 530.19141 L 195.31836 529.53906 L 192.39844 529.56836 C 190.7915 529.58426 189.43096 529.64325 189.375 529.69922 C 189.23765 529.83656 190.30223 530.65631 192.96289 532.46094 C 195.45419 534.15069 198.69545 536.54367 198.86523 536.81836 C 199.03213 537.08841 199.06412 537.10556 196.05469 535.32031 C 194.51323 534.40589 191.8611 532.83254 190.16016 531.82422 C 188.45923 530.81589 186.86095 529.82794 186.60742 529.62891 C 186.35389 529.42987 185.87415 529.26707 185.54297 529.26562 C 184.6888 529.26262 177.11044 528.171 176.9707 528.03125 C 176.907 527.96755 179.58786 527.91073 182.92773 527.90625 C 186.26759 527.90225 190.44864 527.85133 192.21875 527.79297 L 195.4375 527.68555 z M 101.42969 528.06641 L 106.07422 528.17773 C 108.62886 528.23793 112.50232 528.29866 114.68164 528.31445 C 119.26015 528.34765 119.05688 528.42748 112.52148 529.16602 L 107.94531 529.68359 L 103.24414 532.79492 C 98.187061 536.14035 96.631819 537.10604 96.736328 536.8418 C 96.854425 536.54319 99.643681 534.21076 101.92383 532.50391 C 104.81036 530.34314 105.05394 530.14184 104.93164 530.01953 C 104.87524 529.96313 104.06651 530.07251 103.13477 530.26172 C 102.20302 530.45091 101.16369 530.6091 100.82422 530.61328 C 100.31336 530.61928 99.897907 530.91992 98.417969 532.35547 C 97.43456 533.30938 96.589451 534.04845 96.539062 533.99805 C 96.488653 533.94765 97.051104 533.27452 97.789062 532.50391 C 98.527022 531.7333 99.647209 530.42106 100.2793 529.58594 L 101.42969 528.06641 z M 139.01172 528.80469 C 139.15547 528.80669 139.52006 529.22988 140.96875 531.02344 C 141.34082 531.48409 141.97049 532.24052 142.36914 532.70312 C 142.7678 533.16574 143.09374 533.58222 143.09375 533.62891 C 143.09374 533.81586 142.86434 533.65013 140.89258 532.04688 C 138.95603 530.47231 138.8418 530.33955 138.8418 529.66211 C 138.8418 529.26769 138.89515 528.89197 138.96094 528.82617 C 138.97504 528.81207 138.99122 528.80439 139.01172 528.80469 z M 157.04492 529.07422 C 157.35086 529.07422 157.03725 530.84161 156.65625 531.26758 C 156.48006 531.46435 155.56842 532.1385 154.63086 532.76562 C 153.6933 533.39274 152.83351 533.90625 152.71875 533.90625 C 152.60399 533.90625 152.9347 533.44516 153.45508 532.88086 C 153.97547 532.31657 154.94993 531.2294 155.62109 530.46484 C 156.29227 529.70028 156.93329 529.07422 157.04492 529.07422 z M 159.96875 538.58008 C 160.04555 538.57508 160.11144 538.58226 160.16211 538.60156 C 160.67118 538.79693 160.92251 540.88736 160.68555 542.95312 C 160.39666 545.47159 159.9679 546.79297 158.25391 550.43359 C 157.62552 551.7684 157.02954 552.71396 157.01758 552.39648 C 157.01458 552.30688 156.84067 551.39382 156.63281 550.36719 C 156.2105 548.28149 156.11288 547.04152 156.30078 546.17969 C 156.37028 545.86076 156.29097 546.03487 156.125 546.56641 C 155.7336 547.8185 154.45647 550.39943 154.21875 550.41797 C 153.93485 550.44007 153.35421 548.63578 153.2168 547.30078 L 153.09375 546.10352 L 152.76367 546.7207 C 152.58215 547.06094 152.1259 547.83944 151.75 548.44922 L 151.06641 549.55664 L 150.59766 548.83594 C 149.43137 547.04196 148.84586 544.85208 149.06445 543.10352 L 149.18359 542.15234 L 150.53516 541.87891 L 151.88867 541.60547 L 152.49023 542.29883 C 153.21541 543.1358 153.33789 543.1555 153.33789 542.43945 C 153.33789 541.64254 154.09882 540.62018 154.85156 540.4043 C 155.4419 540.23499 155.52847 540.27234 156.07031 540.92969 C 156.39108 541.31884 156.72608 541.63867 156.81641 541.63867 C 156.90671 541.63867 157.08334 541.33181 157.20703 540.95703 C 157.33071 540.58225 157.6348 540.03145 157.88477 539.73438 C 158.33835 539.19533 159.43125 538.61333 159.96875 538.58008 z M 136.98633 538.91016 C 137.21098 538.90816 137.5893 539.04147 138.35547 539.35352 C 139.70106 539.90157 139.80986 539.99474 140.30859 540.98047 C 140.59936 541.55516 140.86605 542.02539 140.90039 542.02539 C 140.93479 542.02539 141.09359 541.70991 141.25391 541.32617 C 141.51099 540.7109 141.60585 540.6437 142.05273 540.75586 C 142.33146 540.82586 142.80794 540.93347 143.11133 540.99414 C 143.45269 541.06244 143.70596 541.26073 143.77734 541.51562 C 143.84074 541.74216 143.98675 542.16866 144.09961 542.46289 L 144.30469 542.99805 L 144.9082 542.32422 L 145.50977 541.65234 L 146.57227 541.85547 C 147.15662 541.96768 147.69452 542.15523 147.76758 542.27344 C 148.03485 542.70587 148.1306 544.27301 147.94727 545.2207 C 147.70924 546.45118 147.09528 548.08956 146.51172 549.04883 L 146.05859 549.79102 L 145.2832 548.46875 C 144.85668 547.74149 144.42197 546.93193 144.31641 546.66992 C 144.15081 546.25895 144.10782 546.36538 144.00391 547.44336 C 143.85552 548.98242 143.3354 550.77378 143.08203 550.61719 C 142.68846 550.37395 141.87137 548.44992 141.44922 546.76953 L 141.00977 545.02148 L 141.10547 546.4707 C 141.16647 547.39119 141.08971 548.50905 140.89258 549.53516 C 140.72187 550.42395 140.58203 551.57786 140.58203 552.09766 C 140.58203 552.61746 140.51465 553.04297 140.43164 553.04297 C 140.27485 553.04297 138.61599 550.2939 137.875 548.80664 C 137.24452 547.54115 136.97422 546.44963 136.61133 543.69336 C 136.27094 541.10788 136.29895 539.53028 136.69531 539.05273 C 136.77001 538.96273 136.85154 538.91153 136.98633 538.91016 z M 120.13477 542.9375 L 116.97266 544.77539 C 111.79338 547.78605 110.77513 548.35579 109.57227 548.90625 C 108.62414 549.34013 107.87036 549.99714 105.22266 552.70312 C 103.4614 554.50315 101.99079 556.0566 101.95508 556.1543 C 101.87388 556.37649 102.54045 556.12901 103.57031 555.55664 C 103.99348 555.32145 104.64549 554.96899 105.01758 554.77344 C 105.91575 554.30138 114.194 549.74064 116.0332 548.70508 C 116.83052 548.25615 119.15863 546.98621 121.20508 545.88281 C 123.2515 544.77941 124.92578 543.82728 124.92578 543.76562 C 124.92578 543.70393 123.84669 543.49167 122.5293 543.29492 L 120.13477 542.9375 z M 176.1582 543.25195 L 174.6543 543.61133 C 172.20646 544.19419 172.05859 544.24002 172.05859 544.41992 C 172.059 544.51462 173.65373 545.41302 175.60156 546.41602 C 177.54936 547.41902 181.01321 549.22293 183.29883 550.42578 C 185.58448 551.62862 188.44815 553.12311 189.66211 553.74609 C 190.87608 554.36908 192.57063 555.2427 193.42969 555.6875 C 194.28874 556.1323 195.05699 556.5008 195.13672 556.50781 C 195.54111 556.54341 195.14103 556.06087 193.76367 554.85547 C 192.92798 554.12393 191.16667 552.5568 189.84961 551.37305 L 187.45508 549.2207 L 182.52148 546.72266 C 179.80866 545.349 177.26676 544.00777 176.87305 543.74023 L 176.1582 543.25195 z M 120.29688 543.73633 L 121.29492 543.89453 C 121.84384 543.98193 122.2985 544.13514 122.30469 544.23438 C 122.31069 544.33357 121.14221 545.05775 119.70703 545.84375 C 114.77793 548.5433 113.07373 549.4326 113.19141 549.24219 C 113.25621 549.13727 114.22828 548.4918 115.35352 547.80859 C 117.64337 546.4183 117.64551 546.09782 115.35742 547.14062 C 114.52761 547.51878 113.8118 547.7903 113.76562 547.74414 C 113.71943 547.69794 115.16877 546.77833 116.98828 545.69922 L 120.29688 543.73633 z M 161.38477 543.7793 C 161.49727 543.804 161.30004 546.22984 160.97461 548.78906 C 160.83266 549.9053 160.70778 551.47222 160.69727 552.26953 C 160.68677 553.06684 160.59367 554.41516 160.49023 555.26562 C 160.29135 556.90058 159.79183 562.98788 159.13477 571.79102 C 158.69235 577.71867 158.42802 579.06953 157.39258 580.6582 C 156.5625 581.9318 156.18918 582.27602 155.27148 582.61914 C 154.45371 582.9249 146.86701 583.05597 144.60547 582.80273 C 141.22395 582.42408 139.93491 580.80579 139.32227 576.17578 C 139.09764 574.47835 137.54342 560.69544 136.98633 555.45898 C 136.92983 554.92744 136.6645 552.53452 136.39844 550.14258 C 136.13239 547.75064 135.87747 545.31517 135.83203 544.73047 C 135.67882 542.75857 136.07306 544.54394 136.60742 548.24609 C 137.54209 554.72143 139.24248 565.2939 139.60156 566.86133 L 139.95508 568.4082 L 139.85156 564.20508 C 139.77416 561.08625 139.8045 560 139.9707 560 C 140.09395 560 140.19767 560.28341 140.20117 560.62891 C 140.20917 561.41374 140.42824 563.78592 141.06055 569.94141 C 141.53904 574.59944 141.50185 576.24181 140.96875 574.01953 C 140.8275 573.43078 140.68397 572.97816 140.64844 573.01367 C 140.47365 573.18848 141.22715 577.77469 141.52734 578.36328 C 142.00954 579.30877 142.89424 579.8481 144.20703 579.99805 C 146.35937 580.24392 153.20117 580.25718 154.35156 580.01758 C 156.57244 579.5551 157.18445 578.35145 157.7832 573.27148 C 158.06188 570.90691 157.91462 570.60092 157.58008 572.84961 C 157.44419 573.76295 157.2114 574.65964 157.0625 574.8418 C 156.82975 575.12656 156.80685 574.17038 156.90039 568.02148 C 156.96029 564.08807 157.00977 560.52965 157.00977 560.11328 C 157.01077 558.68793 157.22592 559.57013 157.49219 562.10156 C 157.63861 563.49371 157.86941 565.29739 158.00586 566.10938 L 158.25391 567.58594 L 158.48633 566.25781 C 158.61449 565.52733 158.72788 564.44485 158.73633 563.85352 C 158.75373 562.62809 161.2077 543.94855 161.37305 543.7832 C 161.37705 543.7792 161.38067 543.7783 161.38477 543.7793 z M 175.76562 544.73047 C 176.38626 544.73047 177.16245 545.03266 179.07227 546.01562 C 181.60569 547.31956 182.1045 547.72377 180.50195 547.17773 C 179.32727 546.77748 179.54852 547.06823 181.13281 548 C 181.84512 548.41892 182.60183 548.8946 182.81445 549.05859 C 183.02706 549.22259 183.15861 549.3565 183.10547 549.35547 C 182.81206 549.35047 175.09235 545.14618 175.0293 544.95703 C 174.9797 544.80829 175.23233 544.73047 175.76562 544.73047 z M 130.40234 550.57031 C 131.17953 550.59151 133.03125 551.01952 133.2832 551.27148 C 133.3648 551.35308 130.01649 553.10462 125.84375 555.16406 C 121.671 557.2235 117.58366 559.24243 116.75977 559.65039 C 115.93588 560.05835 115.26172 560.35014 115.26172 560.29883 C 115.26172 560.24753 115.46416 559.7441 115.71289 559.18164 L 116.16602 558.16016 L 120.68945 555.66016 C 123.17813 554.28563 126.21494 552.60933 127.4375 551.93555 C 128.66005 551.26177 129.87773 550.65583 130.14258 550.58789 C 130.20198 550.57269 130.29131 550.56721 130.40234 550.57031 z M 166.81055 550.97461 L 169.11133 552.32031 C 170.37664 553.05977 171.84542 553.90522 172.37695 554.19922 C 175.71223 556.04397 180.93311 559.26344 181.20508 559.64453 C 181.38235 559.89294 181.58328 560.29205 181.65234 560.53125 C 181.72144 560.77044 181.70604 560.96101 181.61914 560.95312 C 181.53224 560.94512 179.89364 560.18402 177.97656 559.26172 C 176.05949 558.33941 173.53696 557.1339 172.37109 556.58398 C 167.71104 554.38592 162.99343 552.02024 163.08594 551.92773 C 163.13974 551.87393 164.00091 551.63748 164.99805 551.40234 L 166.81055 550.97461 z M 166.22852 554.97852 C 166.35513 554.97652 166.51242 555.0617 166.57812 555.16797 C 166.72643 555.40794 166.66039 555.40794 166.28906 555.16797 C 166.11486 555.05539 166.0902 554.98017 166.22852 554.97852 z M 106.15234 559.25 C 105.97717 559.24959 105.79535 559.25905 105.64844 559.28125 C 105.35462 559.32565 105.5485 559.36363 106.08008 559.36523 C 106.6116 559.36623 106.85102 559.33096 106.61328 559.28516 C 106.49441 559.26226 106.32751 559.2505 106.15234 559.25 z M 154.5957 569.375 L 155.2168 570.44922 C 156.05012 571.89047 156.42839 573.41373 156.55859 575.84961 C 156.66098 577.76503 156.64164 577.91817 156.20508 578.55664 C 155.59221 579.45292 155.03819 579.5128 154.28906 578.76367 C 153.64728 578.12188 153.53125 578.06193 153.53125 578.37109 C 153.53125 578.4817 153.34199 578.82991 153.10938 579.14453 C 152.87678 579.45915 152.62131 579.7168 152.54102 579.7168 C 152.31085 579.7168 151.79297 578.89211 151.79297 578.52539 C 151.79297 578.34271 151.7059 578.13798 151.59961 578.07227 C 151.49331 578.00657 151.40625 578.11332 151.40625 578.30859 C 151.40625 578.7833 150.87211 579.52344 150.5293 579.52344 C 149.97496 579.52344 149.47266 578.08696 149.47266 576.50195 C 149.47266 575.24922 149.55172 574.87848 149.97266 574.16016 C 150.24782 573.69066 150.52441 573.35839 150.58789 573.42188 C 150.76693 573.60091 151.20568 574.94058 151.20898 575.31836 C 151.21098 575.5044 151.29995 575.65625 151.40625 575.65625 C 151.51258 575.65625 151.59961 575.45582 151.59961 575.20898 C 151.59961 574.66083 152.1525 572.99074 152.38086 572.84961 C 152.62246 572.70029 152.98572 573.45277 153.36133 574.88281 C 153.56193 575.64659 153.69867 575.93658 153.70898 575.62109 C 153.71798 575.33566 153.80233 574.90007 153.89648 574.65234 C 154.10175 574.11248 154.29851 572.7918 154.46875 570.82422 L 154.5957 569.375 z M 144.1582 569.52734 L 144.11914 572.80664 C 144.09844 574.6103 144.13712 576.03277 144.20312 575.9668 C 144.26913 575.9008 144.63371 575.27232 145.01367 574.57031 C 145.39363 573.8683 145.79018 573.29676 145.89648 573.30078 C 146.15577 573.31078 146.54024 574.60712 146.55859 575.53516 C 146.57769 576.49822 146.87762 576.27538 147.54102 574.80469 C 147.8068 574.21551 148.08115 573.7314 148.15234 573.72852 C 148.22354 573.72552 148.42848 574.1644 148.60742 574.70312 C 149.07918 576.12343 148.95221 578.58293 148.37695 579.1582 C 147.82114 579.714 147.39065 579.52059 147.00586 578.54102 L 146.69727 577.75391 L 146.41797 578.29883 C 146.26454 578.59933 146.0064 578.99755 145.84375 579.18359 C 145.39505 579.69688 145.0733 579.59486 144.66992 578.80859 C 144.32485 578.13598 144.29611 578.1194 144.16602 578.5293 C 144.03398 578.94527 143.37737 579.33008 142.79688 579.33008 C 142.36103 579.33008 141.94164 578.50966 141.71289 577.21094 C 141.53435 576.19731 141.55549 575.80401 141.8457 574.7207 C 142.19813 573.40509 143.12994 571.2031 143.78906 570.12891 L 144.1582 569.52734 z M 139.80859 579.7168 C 139.88789 579.7168 140.00232 579.95571 140.0625 580.24805 C 140.1227 580.5404 140.49094 581.10581 140.88086 581.50391 C 141.39378 582.02761 141.55089 582.32095 141.44727 582.56641 C 141.36847 582.753 141.24927 583.73226 141.18359 584.74219 L 141.06445 586.57812 L 140.73438 585.51367 C 140.55247 584.92897 140.31613 583.79927 140.20898 583.00195 C 140.10183 582.20464 139.93569 581.13973 139.83984 580.63477 C 139.74404 580.12981 139.7293 579.7168 139.80859 579.7168 z M 158.16211 580.39258 L 158.16016 581.64844 C 158.15916 582.33945 158.03787 583.5721 157.89258 584.38672 C 157.48231 586.68712 157.30424 586.78125 157.0332 584.84375 C 156.90476 583.92554 156.72792 582.98278 156.63867 582.74805 C 156.50622 582.39968 156.62942 582.14453 157.31836 581.35742 L 158.16211 580.39258 z M 142.13672 582.53906 C 142.2531 582.54706 142.41828 582.60851 142.67969 582.70703 C 144.69444 583.4665 153.57239 583.60182 155.23828 582.89844 C 156.24873 582.4718 156.28177 582.5066 156.71484 584.45312 C 157.23747 586.80223 156.88091 587.42235 154.77148 587.82812 C 153.45949 588.08051 148.39756 588.17773 145.4082 588.00781 C 143.06736 587.87475 142.02835 587.59288 141.69922 586.99805 C 141.40124 586.4595 141.42625 583.76019 141.73633 583.01172 C 141.88267 582.65843 141.94276 582.52563 142.13672 582.53906 z "
       style="fill:#000000" />
    <path
       id="path5423"
       d="M 99.414062 464.9043 L 98.796875 465.21289 C 98.796875 465.21289 98.298156 466.01458 98.126953 466.45117 C 97.874417 467.09517 97.766781 467.7869 97.611328 468.46094 C 97.45761 469.12747 97.298561 469.79423 97.197266 470.4707 C 97.089922 471.18758 97.026586 471.91266 96.992188 472.63672 C 96.912278 474.31858 96.936887 476.00465 96.992188 477.6875 C 97.035168 478.99539 97.083568 480.30555 97.25 481.60352 C 97.516999 483.68574 97.945431 485.7478 98.435547 487.78906 C 99.120437 490.6415 100.88281 496.24219 100.88281 496.24219 C 100.88281 496.24219 100.10769 496.49 99.724609 496.62891 C 99.039235 496.87742 98.348135 497.11942 97.6875 497.42773 C 96.321933 498.06502 95.011453 498.81926 93.71875 499.59375 C 92.670224 500.22195 91.645142 500.89051 90.652344 501.60352 C 89.126688 502.69923 87.596938 503.80578 86.21875 505.08203 C 85.70309 505.55955 84.794922 506.63672 84.794922 506.63672 C 84.794922 506.63672 85.161404 507.02696 85.376953 507.18359 C 85.926805 507.58314 86.563017 507.85061 87.164062 508.16797 C 89.378976 509.33748 93.869141 511.55664 93.869141 511.55664 C 93.869141 511.55664 93.182606 512.03245 92.849609 512.28516 C 91.954867 512.9642 91.096645 513.69243 90.224609 514.40039 C 89.152183 515.27104 88.100389 516.16575 87.017578 517.02344 C 85.577576 518.16407 84.004518 519.14201 82.644531 520.37695 C 81.065935 521.81039 78.28125 525.05469 78.28125 525.05469 L 81.580078 526.08594 L 85.085938 527.11719 L 89.517578 528.14844 L 96.630859 529.69531 C 96.630859 529.69531 95.940658 530.37843 95.599609 530.72461 C 94.456966 531.88443 93.412372 533.14461 92.199219 534.23047 C 90.319636 535.91283 88.236838 537.35571 86.21875 538.86914 C 83.876223 540.62588 81.374187 542.16997 79.107422 544.02344 C 75.9515 546.60395 70.105469 552.30469 70.105469 552.30469 C 70.105469 552.30469 70.474729 552.58777 70.689453 552.66797 C 71.565077 552.99516 72.531431 552.98965 73.458984 553.10547 C 75.299146 553.33525 77.148388 553.51263 79 553.61523 C 82.858125 553.82891 86.725929 553.86548 90.589844 553.83398 C 94.667932 553.80068 102.81641 553.4043 102.81641 553.4043 L 98.460938 558.74023 C 98.460938 558.74023 100.63844 559.08211 100.83203 559.09961 C 102.45565 559.24671 104.15625 559.38281 104.15625 559.38281 L 108.2793 559.28125 L 111.57812 558.9707 C 111.57815 558.9707 110.64242 560.39044 110.23828 561.13672 C 109.65998 562.2046 109.16142 563.31496 108.69336 564.43555 C 108.15702 565.7196 107.25 568.35156 107.25 568.35156 C 107.25 568.35156 108.3444 568.55159 108.89844 568.55859 C 110.9703 568.58419 113.02912 568.20563 115.08398 567.93945 C 118.9833 567.43436 122.92723 567.0741 126.73242 566.08398 C 130.30945 565.15322 137.14453 562.26953 137.14453 562.26953 L 137.38672 563.31055 C 137.38672 563.31055 137.85883 567.83163 138.11523 570.08984 C 138.36922 572.32679 138.6698 574.55925 138.91797 576.79688 C 139.1549 578.93313 139.12231 581.10962 139.57422 583.21094 C 139.81655 584.33772 140.0911 585.49244 140.66797 586.49023 C 140.96086 586.99683 141.33911 587.49043 141.83398 587.80273 C 142.64687 588.31573 143.65363 588.4583 144.60352 588.60547 C 145.54027 588.75057 146.49955 588.65773 147.44727 588.67773 C 148.90502 588.70853 150.36385 588.81847 151.82031 588.75 C 152.69945 588.7087 153.58374 588.64778 154.44336 588.45898 C 155.19383 588.29415 155.99511 588.16199 156.63086 587.73047 C 157.13024 587.39152 157.51803 586.88097 157.79688 586.3457 C 158.1454 585.67663 158.24655 584.90056 158.38086 584.1582 C 159.31532 578.99316 159.41742 573.71204 159.91016 568.48633 C 160.08652 566.61597 160.42186 562.87305 160.42188 562.87305 C 160.42186 562.87305 160.85807 563.07202 161.07812 563.16602 C 162.02003 563.56844 162.96491 563.96181 163.91992 564.33203 C 165.17417 564.81823 166.42723 565.31476 167.71094 565.7168 C 169.62876 566.31744 171.56965 566.86745 173.54297 567.24805 C 175.08177 567.54484 176.64957 567.65599 178.20703 567.83008 C 179.92981 568.02264 181.65147 568.25314 183.38281 568.33984 C 185.44069 568.44294 189.56445 568.35156 189.56445 568.35156 L 189.41016 568.09375 C 189.41016 568.09375 188.35579 565.78676 187.8125 564.64062 C 186.96991 562.86307 185.23438 559.33203 185.23438 559.33203 C 185.23438 559.33203 189.08643 559.54692 191.00781 559.43555 C 193.06731 559.31617 195.14547 559.13585 197.14062 558.61133 C 197.40909 558.54073 197.91406 558.30078 197.91406 558.30078 C 197.91406 558.30078 196.90895 556.90692 196.36719 556.24023 C 195.53035 555.21041 193.73828 553.25 193.73828 553.25 C 193.73828 553.25 198.0695 553.31078 200.23438 553.30078 C 205.25197 553.27778 210.27567 553.32868 215.28516 553.04297 C 218.58408 552.85482 225.15039 552.08594 225.15039 552.08594 L 225.36914 551.79297 C 225.36914 551.79297 224.88691 550.8361 224.56836 550.4082 C 223.8909 549.49821 223.03708 548.73138 222.23438 547.92969 C 221.07891 546.77571 219.87038 545.67886 218.66406 544.57812 C 217.3926 543.41799 216.1285 542.24765 214.80078 541.15234 C 213.38373 539.98332 211.89767 538.898 210.42578 537.79883 C 209.1018 536.81009 207.71689 535.90424 206.41797 534.88281 C 204.15077 533.09994 199.82227 529.28125 199.82227 529.28125 L 200.28516 529.33398 C 200.28516 529.33398 202.80293 529.00533 204.04883 528.76758 C 205.69454 528.45352 207.32229 528.04846 208.94531 527.63281 C 210.48397 527.23877 212.03995 526.89033 213.53125 526.34375 C 214.77287 525.88868 217.14062 524.69531 217.14062 524.69531 L 216.57227 523.92188 C 216.57227 523.92188 214.05234 521.21836 212.70703 519.95312 C 211.51784 518.83474 210.25059 517.80242 208.99609 516.75781 C 206.90154 515.01371 202.62695 511.62891 202.62695 511.62891 C 202.62695 511.62891 203.40928 511.27472 203.79297 511.08203 C 204.80329 510.57464 205.81114 510.0591 206.78125 509.47852 C 208.30784 508.56489 211.22852 506.52734 211.22852 506.52734 L 211.30078 506.27148 C 211.30078 506.27148 210.16667 505.23435 209.55078 504.77734 C 207.16378 503.0061 204.59549 501.48987 202.04297 499.9668 C 200.00923 498.75329 195.83008 496.52148 195.83008 496.52148 L 195.5957 496.19141 C 195.5957 496.19141 196.27909 493.99146 196.625 492.89258 C 197.06878 491.4828 197.61407 490.10177 197.96484 488.66602 C 198.34561 487.10746 198.56799 485.51265 198.79102 483.92383 C 199.06005 482.00732 199.30496 480.08294 199.4082 478.15039 C 199.487 476.67492 199.53392 475.19097 199.4082 473.71875 C 199.27025 472.10331 199.0109 470.48793 198.58398 468.92383 C 198.30334 467.89565 197.45117 465.93555 197.45117 465.93555 L 196.93555 465.52344 L 196.625 466.29688 C 196.625 466.29687 196.30627 466.99627 196.10938 467.32617 C 195.71119 467.99333 195.28671 468.65454 194.76953 469.23438 C 194.08097 470.00635 193.27799 470.67327 192.45117 471.29492 C 191.39581 472.0884 190.22717 472.72117 189.09961 473.4082 C 187.94208 474.11348 186.77597 474.80418 185.5957 475.4707 C 184.77902 475.9319 183.92685 476.33052 183.12109 476.81055 C 182.08122 477.43006 180.08008 478.79492 180.08008 478.79492 L 176.3125 473.94336 L 165.74219 479.99414 L 165.59766 479.62891 L 164.57617 477.22461 L 164.06641 476.05664 L 163.33789 475.98438 C 163.33789 475.98438 162.66778 476.3486 162.31641 476.49414 C 161.81949 476.69997 161.30645 476.87339 160.78516 477.00586 C 159.70882 477.27937 158.60242 477.41215 157.50586 477.58789 C 156.14869 477.80541 154.79011 478.02189 153.42383 478.17188 C 151.84926 478.34472 150.26952 478.52156 148.68555 478.53516 C 147.05475 478.54916 145.42336 478.40819 143.80078 478.24414 C 142.09138 478.0713 140.38071 477.86848 138.69922 477.51562 C 137.19337 477.19963 135.71352 476.75631 134.25195 476.27539 C 133.73328 476.10473 132.72266 475.69336 132.72266 475.69336 L 131.11719 479.11914 L 130.53516 478.90039 L 128.78516 478.09766 L 125.72461 476.34961 L 122.80859 474.81836 L 120.28906 473.51172 C 120.28906 473.51172 119.88143 473.89292 119.67188 474.07812 C 119.21523 474.48167 118.74647 474.87237 118.2793 475.26367 C 117.69917 475.74958 117.07644 476.1863 116.52734 476.70703 C 116.12146 477.09195 115.39258 477.94531 115.39258 477.94531 C 115.39258 477.94531 114.89804 477.47167 114.61914 477.27539 C 114.10328 476.91235 113.52519 476.64844 112.9707 476.34766 C 112.22089 475.94093 111.45504 475.56498 110.70312 475.16211 C 109.82202 474.69001 108.94304 474.21309 108.07422 473.71875 C 107.10356 473.16647 106.09788 472.66442 105.1875 472.01758 C 104.10435 471.24796 103.06806 470.39665 102.14648 469.43945 C 101.37411 468.63723 100.66593 467.75999 100.08398 466.81055 C 99.806811 466.35835 99.528431 465.88706 99.414062 465.36914 C 99.380723 465.21815 99.414063 464.9043 99.414062 464.9043 z "
       style="fill:none;fill-rule:evenodd;stroke:#ff0000;stroke-width:0.20617399px;stroke-linecap:butt;stroke-linejoin:miter;stroke-opacity:1" />
  </g>
  <path
     style="fill:none;stroke:#ff0000;stroke-width:0.18887573;stroke-miterlimit:4;stroke-dasharray:none"
     d="m 147.71819,482.19447 a 3.0944466,3.0944427 0 0 0 -3.09367,3.09542 3.0944466,3.0944427 0 0 0 3.09367,3.09366 3.0944466,3.0944427 0 0 0 3.09541,-3.09366 3.0944466,3.0944427 0 0 0 -3.09541,-3.09542 z"
     id="path5428"
     inkscape:connector-curvature="0" />
</svg>
