<?xml version="1.0" encoding="UTF-8" standalone="no"?>
<!-- Created with Inkscape (http://www.inkscape.org/) -->

<svg
   xmlns:dc="http://purl.org/dc/elements/1.1/"
   xmlns:cc="http://creativecommons.org/ns#"
   xmlns:rdf="http://www.w3.org/1999/02/22-rdf-syntax-ns#"
   xmlns:svg="http://www.w3.org/2000/svg"
   xmlns="http://www.w3.org/2000/svg"
   xmlns:sodipodi="http://sodipodi.sourceforge.net/DTD/sodipodi-0.dtd"
   xmlns:inkscape="http://www.inkscape.org/namespaces/inkscape"
   width="210mm"
   height="297mm"
   viewBox="0 0 744.09448819 1052.3622047"
   id="svg2"
   version="1.1"
   inkscape:version="0.91 r13725"
   sodipodi:docname="zmeoa_logo.svg">
  <sodipodi:namedview
     id="base"
     pagecolor="#ffffff"
     bordercolor="#666666"
     borderopacity="1.0"
     inkscape:pageopacity="0.0"
     inkscape:pageshadow="2"
     inkscape:zoom="0.35"
     inkscape:cx="600.95969"
     inkscape:cy="598.07375"
     inkscape:document-units="px"
     inkscape:current-layer="layer1"
     showgrid="false"
     inkscape:window-width="1360"
     inkscape:window-height="746"
     inkscape:window-x="1432"
     inkscape:window-y="-8"
     inkscape:window-maximized="1" />
  <defs
     id="defs4" />
  <metadata
     id="metadata7">
    <rdf:RDF>
      <cc:Work
         rdf:about="">
        <dc:format>image/svg+xml</dc:format>
        <dc:type
           rdf:resource="http://purl.org/dc/dcmitype/StillImage" />
        <dc:title></dc:title>
      </cc:Work>
    </rdf:RDF>
  </metadata>
  <g
     id="layer1"
     inkscape:groupmode="layer"
     inkscape:label="Layer 1">
    <path
       id="path4147"
       d="M124.52734 195.2168L117.28711 195.37109L107.19003 196.401042031L92.64991325 198.28093625L78.873707125 200.294774844L71.068359 201.72656L70.4157559297 202.569933301L70.0626780625 204.447962656L70.160381 210.23931125L71.1720339375 216.963249219L71.9613935703 220.007015293L72.908203 222.48242L74.3686192031 225.057896855L76.0608801875 227.046517344L78.1345537656 228.482601348L80.73920775 229.40046875L84.0244099531 229.834439434L88.1397281875 229.818833281L99.458984 228.57617L108.109985688 227.551533594L115.466815125 227.1663575L121.510420625 227.415047656L126.2217505 228.29201L129.581753063 229.791650469L130.749052949 230.773226855L131.571376625 231.908375L132.046342629 233.196395645L132.1715695 234.636589531L131.944675777 236.228257402L131.36328 237.9707L129.22401125 242.069757813L125.8053925 246.4398825L120.232125 252.052468438L111.62891 259.87891L98.408195625 271.813435781L89.16240625 280.63731875L82.97896925 287.264614844L78.945312 292.60938L76.454197396 296.742405566L74.4318166055 300.761619688L72.8739257856 304.653426621L71.7762810937 308.404230625L71.134638687 312.000435957L70.9447547227 315.428446875L71.2023853579 318.674667637L71.90328675 321.7255025L73.0432150562 324.567355723L74.6179264336 327.186631563L76.6231770396 329.569734277L79.0547230312 331.703068125L81.9083205659 333.573037363L85.1797258008 335.16604625L88.8646948931 336.468499043L92.958984 337.4668L97.955857 337.68478625L106.45898 337.52148L113.793964531 337.022754062L121.83948125 335.86946L132.885667344 333.657900938L149.22266 329.98438L158.98438 327.74023L158.38867 324.16406L156.701232969 317.130933125L154.22353125 311.02403L152.745637871 308.430443984L151.138946406 306.203451875L149.426379551 304.388066328L147.63086 303.0293L145.882299102 302.154243809L143.943215938 301.561193594L141.777283555 301.251871895L139.348175 301.22800125L133.555121563 302.043503281L126.27344 304.02148L117.988528266 306.341685176L110.275220313 307.926507031L103.279075766 308.781801309L97.14565425 308.91342375L92.0205153906 308.327230098L88.0492188125 307.029076094L86.5417487617 306.114843879L85.3773241406 305.02481748L84.5741399023 303.759728865L84.150391 302.32031L84.215312957 300.695602676L84.7951674062 298.671607656L87.30352525 293.74313625L91.2831674687 288.169659219L96.341797 282.58594L105.334252125 274.4132175L116.95898 264.5957L125.064050781 257.84475666L131.832264375 251.841037031L137.392660156 246.428732949L141.8742775 241.45203625L145.406155781 236.75513877L148.117334375 232.182232344L150.136852656 227.577508809L151.59375 222.78516L152.399388594 219.132540781L152.73277375 216.29057125L152.616764531 213.675876094L152.07422 210.70508L150.909061816 207.211787129L149.079442656 204.157491406L146.592135605 201.545159668L143.45391375 199.37775875L139.671550176 197.658255488L135.251817969 196.389616719L130.201490215 195.574809277L124.52734 195.2168L124.52734 195.2168M169.06836 248.14453L165.74609 248.42578L164.441125781 248.947718594L163.71375625 250.12181125L163.370718594 252.609020781L163.21875 257.07031L162.59940875 266.49768875L161.35156 277.85547L160.256270332 287.396495742L159.638826406 295.942907813L159.49619084 303.463063477L159.82532625 309.92532L160.623195254 315.298034648L161.886760469 319.549564688L163.612984512 322.648267383L164.648644412 323.755420122L165.79883 324.5625L168.011441953 325.478174688L170.388769375 325.948251875L172.859062109 325.989315L175.35057 325.6179475L177.791542891 324.850732813L180.110230625 323.704254375L182.234883047 322.195095625L184.09375 320.33984L185.852007969 317.817714375L187.33904625 314.082355L189.051581406 307.537750625L191.48633 296.58789L193.842275625 286.716822344L196.30963 278.07874625L198.593849375 271.609792031L200.40039 268.24609L201.110175625 267.756675469L201.673505 268.06913375L202.80469 271.74609L204.97656 286.08789L205.913501875 292.273845313L207.11291 296.6420725L208.590335625 299.233208438L209.438164766 299.875066211L210.36133 300.08789L211.227466621 299.954347129L211.996268594 299.517235781L213.33822625 297.51341125L214.579918281 293.638623594L215.91406 287.45508L217.500424062 280.038102656L219.139845 274.14543375L220.973013438 269.343135469L223.14062 265.19727L225.31055 261.58789L222.53711 264.08789L219.65547375 267.017455156L217.2750025 270.22764125L215.2404275 273.963166719L213.39648 278.46875L211.20703 284.51953L210.50391 278.05469L209.141585938 269.441491406L208.237450898 266.16843834L207.167065 263.54939125L205.917226602 261.558081504L204.474734062 260.168240469L202.826385742 259.353599512L200.95898 259.08789L198.546461094 259.661737813L196.23837875 261.4316275L193.965402031 264.470078437L191.6582 268.84961L189.22461 274.10938L188.75391 266.77734L188.038478594 261.105542813L186.60891875 256.847145L185.571562246 255.139156992L184.289939531 253.653942188L180.90625 251.17773L178.283928281 249.982874219L175.25208125 249.04550375L172.087846094 248.415946406L169.06836 248.14453L169.06836 248.14453M401.28516 252.12695L397.76562 252.42188L396.497224062 252.903819219L395.789935 253.82279375L395.487480937 255.594043906L395.43359 258.63281L395.45898 264.25195L386.95898 264.51953L381.881320547 264.936054355L377.0828425 265.839926719L372.614178828 267.204929785L368.5259625 269.00484625L364.868826484 271.213458809L361.69340375 273.804550156L359.050327266 276.751902988L356.99023 280.0293L355.298359434 282.632521016L352.536310469 286.0814275L344.91704875 294.3751775L336.363187656 302.62831125L332.432889473 306.026447422L329.10547 308.55859L323.021215 312.12989625L320.407088125 313.226778906L318.26758 313.77344L316.10288875 313.962047656L314.594425 313.74183875L313.38542875 312.984695469L312.11914 311.5625L311.115035625 310.010509063L310.446545 308.2708775L310.074311875 306.198542187L309.95898 303.64844L309.95898 298.47852L317.38086 297.23047L323.469663438 295.710190313L326.043138164 294.64497707L328.3234925 293.36282L330.326349648 291.85354793L332.067332813 290.106989688L333.562065195 288.112974102L334.82617 285.86133L336.59100125 280.987803652L336.987540742 278.685503811L337.07378625 276.490641719L336.859955352 274.416564021L336.356265625 272.476617363L335.572934648 270.684148391L334.52018 269.05250375L333.208219258 267.595030085L331.64727 266.325074043L327.81927625 264.401101406L323.117939375 263.387359004L317.625 263.39062L311.17478957 264.418917988L305.352585313 266.232712656L300.173139023 268.818932559L295.6512025 272.16450625L291.801527539 276.256362285L288.638865938 281.081429219L286.177969492 286.626635605L284.43359 292.87891L283.505378437 296.636845L282.2260075 299.4881275L280.007460313 302.40101125L276.26172 306.34375L270.393689688 311.957860938L265.4352875 315.9746275L261.495569062 318.316092813L259.941796133 318.834225977L258.68359 318.9043L257.440925625 318.519763437L256.7835125 317.28741L256.535610625 314.409399063L256.52148 309.08789L257.41797 286.99023L257.856385625 278.184548125L257.5667275 272.6372975L257.074524688 270.640201094L256.311088125 268.923253125L253.85156 265.61719L250.803510313 263.072596406L246.760415 260.99752625L242.235549688 259.599962969L237.74219 259.08789L236.207270938 259.145034375L235.504865 259.427775L235.513894063 260.103073125L236.11328 261.33789L236.682330254 262.936730723L237.032601406 265.244217031L237.07535375 272.01372625L236.238631719 281.703617344L234.51953 294.37109L232.395490312 311.640594531L232.024737383 318.389435527L232.120765 323.97028875L232.688025117 328.450119004L233.730969688 331.895891094L235.254050664 334.374569824L237.26172 335.95312L238.834376797 336.494194785L240.81559 336.756446406L245.6570525 336.49469875L251.09284125 335.268314219L256.42969 333.17773L261.413372813 330.144525781L266.9746475 325.73868375L272.830825938 320.206174844L278.69922 313.79297L282.79102 308.99805L284.38281 314.47266L285.290362727 317.076047048L286.415314629 319.403403262L287.751573787 321.453449993L289.293048281 323.224908594L291.033646194 324.716500417L292.967275605 325.926946816L295.087844597 326.854969143L297.38926125 327.49928875L302.510269863 327.931705215L308.281566094 327.213967031L314.65441459 325.33584502L321.58008 322.28711L327.967621406 318.470914844L334.99359375 313.32492375L341.819644219 307.512075781L347.60742 301.69531L352.72852 295.94727L354.59375 299.76758L355.803220352 301.788576641L357.312704062 303.53194625L359.104553867 304.989494609L361.1611225 306.1530275L363.464762695 307.014350703L365.997827187 307.56527L368.742668711 307.797591172L371.68164 307.70312L376.119296406 307.071875781L380.02074875 305.91520125L383.742881719 304.093893594L387.64258 301.46875L391.27344 299.08789L391.71634375 301.8050775L392.15234 308.33789L392.643880176 314.221627266L393.551827031 319.0791775L394.922255059 322.964692109L396.80123875 325.9323225L399.234852598 328.036220078L402.269171094 329.33053625L405.95026873 329.869422422L410.32422 329.70703L413.856857617 329.189086152L417.177283438 328.380824219L420.336194414 327.254324863L423.3842875 325.78166875L426.372259648 323.934936543L429.350807812 321.686208906L435.48242 315.87109L441.24428125 309.42372875L444.6543 305.02539L446.0521225 302.9505725L446.97461 302.08789L447.77471625 303.1607675L448.87891 305.74023L450.314532031 308.793253105L452.298009375 311.655359844L454.735683906 314.259927598L457.5338975 316.54033375L460.598992031 318.429955684L463.837309375 319.862170781L467.155191406 320.770356426L470.45898 321.08789L475.135536543 320.480464629L479.875865469 318.753457656L484.525236973 316.049772793L488.92892125 312.51231375L492.932188496 308.283984238L496.380308906 303.507687969L499.118552676 298.326328652L500.99219 292.88281L501.767125313 290.220426406L502.7411275 288.60971625L504.421715938 287.538872969L507.31641 286.49609L515.35156 283.35352L516.983541875 282.565336094L517.767975 282.39841375L517.897913125 282.930234531L517.56641 284.23828L516.646873242 288.093982422L516.216147813 291.614783125L516.275343477 294.804351016L516.82557 297.666355L517.867937148 300.204463984L519.403554687 302.422346875L521.433532383 304.323672578L523.95898 305.91211L526.493162969 307.078207813L528.77855125 307.7076375L531.334818906 307.887055938L534.68164 307.70312L539.119296406 307.071875781L543.02074875 305.91520125L546.742881719 304.093893594L550.64258 301.46875L554.27344 299.08789L554.71634375 301.8050775L555.15234 308.33789L555.643880176 314.221627266L556.551827031 319.0791775L557.922255059 322.964692109L559.80123875 325.9323225L562.234852598 328.036220078L565.269171094 329.33053625L568.95026873 329.869422422L573.32422 329.70703L576.901157812 329.184086484L580.248558125 328.369379375L583.42468375 327.230427578L586.4877975 325.73475L589.496162187 323.849865547L592.508040625 321.543293125L598.77539 315.53516L605.5696775 307.419185L611.11328 299.45117L615.022629688 292.147432031L619.2269825 283.33589125L622.585909063 275.523397344L623.95898 271.2168L623.741987812 270.778743281L623.1511675 270.42041625L621.20898 270.0918L619.645657031 270.299325156L618.47773125 271.25971625L617.330214844 273.489664219L615.82812 277.50586L612.582473438 285.121424375L608.2407375 293.126325L603.266912812 300.742380625L598.125 307.19141L594.072944219 311.228269687L592.499948145 312.347726914L591.16415375 312.8806225L590.016946387 312.836521523L589.009711406 312.224989063L588.09383416 311.055590195L587.2207 309.33789L586.398591875 306.655592188L585.93144 302.55661L585.79688 285.70508L585.858313438 274.739980938L585.657215 268.2176925L585.058174063 264.391732812L583.92578 261.51562L582.724663906 259.396794375L581.33756375 257.7054425L579.642031719 256.319081875L577.51562 255.11523L573.424249375 253.596610625L568.759275 252.55957L564.284973125 252.127021875L560.76562 252.42188L559.492978594 252.90626375L558.78613625 253.8414275L558.486028281 255.6615425L558.43359 258.80078L558.45898 264.58789L552.95898 264.26953L547.620946719 264.326279531L542.11669375 265.26446375L535.661026406 267.277936094L527.46875 270.56055L519.251407812 273.822203125L511.99868 276.2405075L506.447784688 277.598128125L504.540904883 277.811264844L503.33594 277.67773L502.801477031 277.24060375L502.36362625 276.440665L501.95898 274.20703L501.693032402 272.142092305L500.950706719 269.718672187L498.37002375 264.3683975L494.883136406 259.300231562L493.008055254 257.229447383L491.15625 255.6582L488.714455312 254.121964063L486.3635925 253.144675L483.597045938 252.573075937L479.9082 252.25391L476.10898 252.143817031L473.22812 252.39944375L470.6042925 253.140408594L467.57617 254.48633L465.080579082 255.893373574L462.569163281 257.658745469L457.73208875 262.02113625L453.531409844 267.086826406L450.43359 272.36914L448.33513 278.44038L446.64062 285.70898L445.200922344 291.725166875L442.90593125 297.0099425L439.346937031 302.301464375L434.11523 308.33789L430.588599375 311.661750469L429.179826172 312.545981504L427.958725 312.91667125L426.888778828 312.77751334L425.933470625 312.132201406L425.056283359 310.984429082L424.2207 309.33789L423.398593281 306.655592188L422.93144375 302.55661L422.79688 285.70508L422.858313437 274.739980938L422.657215 268.2176925L422.058174062 264.391732812L420.92578 261.51562L419.724665312 259.396790156L418.3375675 257.70543875L416.642035937 256.319080469L414.51562 255.11523L411.530688281 253.935896562L408.11561375 253.01014L404.592927344 252.389858437L401.28516 252.12695L401.28516 252.12695M488.71094 270.26367L490.443533594 270.581267031L492.03065625 271.35406625L493.405673281 272.558229844L494.50195 274.16992L495.568735156 276.567322031L495.58365375 277.88763875L494.421977969 278.321753594L491.95898 278.06055L489.504807832 277.485318789L487.410360156 276.702770937L485.729357715 275.771403867L484.51552125 274.749715L483.822571504 273.696201758L483.704229219 272.669361563L484.214215137 271.727691836L485.40625 270.92969L487.06619625 270.38992375L488.71094 270.26367L488.71094 270.26367M324.76758 273.92188L326.075547969 274.028195156L327.23564125 274.40937875L328.200766406 275.071712969L328.92383 276.02148L329.716163613 278.317828145L329.805536406 280.780430781L329.255363809 283.299833965L328.12906125 285.76658375L326.49004416 288.071226191L324.401727969 290.104307344L321.927528105 291.756373262L319.13086 292.91797L316.02013 293.68996875L313.41481 294.0402125L311.624545 293.9504275L311.131822188 293.734813672L310.95898 293.40234L311.605593594 289.769094531L313.22722875 285.13038875L315.346577031 280.649631094L317.48633 277.49023L319.203280781 275.976267813L321.05633125 274.86835L322.944693594 274.179284687L324.76758 273.92188L324.76758 273.92188M392.0332 274.08789L393.374543281 274.201982969L394.06205625 274.78797125L394.256626094 276.211418906L394.11914 278.83789L393.379245781 282.563277813L391.60695125 285.8259475L388.564383594 288.940780937L384.01367 292.22266L380.327550625 294.239869531L377.4294 294.96635625L376.225693047 294.847234707L375.158834375 294.407419844L373.35547 292.56836L372.673233301 291.206240801L372.279935156 289.685503281L372.32572625 286.36881375L373.423986719 283.019572344L375.50586 280.03906L378.491774687 277.962461719L382.89245 276.04416125L387.731665313 274.635517656L392.0332 274.08789L392.0332 274.08789M555.0332 274.08789L556.374543281 274.201982969L557.06205625 274.78797125L557.256626094 276.211418906L557.11914 278.83789L556.379245781 282.563277813L554.60695125 285.8259475L551.564383594 288.940780937L547.01367 292.22266L543.327550625 294.239869531L540.4294 294.96635625L539.225693047 294.847234707L538.158834375 294.407419844L536.35547 292.56836L535.673233301 291.206240801L535.279935156 289.685503281L535.32572625 286.36881375L536.423986719 283.019572344L538.50586 280.03906L541.491774688 277.962461719L545.89245 276.04416125L550.731665312 274.635517656L555.0332 274.08789L555.0332 274.08789M474.9082 284.09375L479.15625 286.30664L481.369775937 287.259518594L483.96811 288.03673875L489.75977 288.92578L493.392382813 289.203127969L495.213695 289.61814125L495.607424492 289.963039277L495.743102187 290.445273906L495.5 291.95898L493.85161 296.679856406L491.235945 301.91469375L488.26598 306.577436719L485.55469 309.58203L482.462130625 311.347070312L479.4097 312.007805L476.632399375 311.555749688L475.420360703 310.909774414L474.36523 309.98242L473.399507344 308.5558075L472.82208125 306.5544625L472.545527031 303.45459625L472.48242 298.73242L472.85177 291.4666175L473.70703 286.83984L474.9082 284.09375L474.9082 284.09375M330.84961 343.15234L329.734039121 343.383387715L328.835295469 344.199601719L328.12449877 345.691268301L327.57276875 347.94867375L326.830987656 355.121846406L326.37891 366.44141L325.71411375 378.84484625L325.143208594 381.715452031L324.30273 383.26172L322.487186563 384.866278594L321.888176602 384.961835645L321.47716 384.54876625L321.165563438 382.084313281L321.44531 377.24805L321.645832187 371.740977031L321.413451055 369.796803574L320.92476 368.32281625L320.153847695 367.266973145L319.074802813 366.577232344L317.661714023 366.201551934L315.88867 366.08789L314.253524531 366.1849825L313.37726375 366.7105725L313.024283594 368.01612875L312.95898 370.45312L312.478316094 373.763844531L311.25012625 376.87520875L309.595113281 379.184221094L308.707767754 379.849410449L307.83398 380.08789L307.457857656 379.571702656L307.18941375 378.13993875L307.05469 373.23047L307.055100938 368.410446563L306.5433125 365.6445175L306.019909336 364.860974883L305.277935313 364.385919688L303.01758 364.08789L301.407769375 364.217177656L300.48404 364.97123125L299.947685625 366.899336719L299.5 370.55078L299.023408594 374.067800781L298.34208875 376.43635875L297.202127031 378.237127344L295.34961 380.05078L292.576503594 382.082296094L290.26586875 382.95696625L289.319471621 382.955492793L288.531284531 382.658818281L287.915504863 382.064946191L287.48633 381.17188L287.235965313 378.977148437L287.5989375 376.4054125L288.471523437 373.883412812L289.75 371.83789L291.101287031 370.555081875L292.18098875 370.1930825L293.065216094 370.759931875L293.83008 372.26367L294.63477 374.43945L295.20898 372.24609L295.322841738 370.344100664L294.656518906 368.893737187L293.362541934 367.913730117L291.59344125 367.42281L289.501747285 367.439707383L287.239990469 367.983152812L284.96070123 369.071876836L282.81641 370.72461L281.204642734 372.648667422L280.036216875 374.826730625L279.313785078 377.134728516L279.04 379.44859L279.217514297 381.644243984L279.848980625 383.597619375L280.937051641 385.184645078L282.48438 386.28125L283.80765582 386.682237383L285.340396563 386.801051562L288.8215175 386.2528175L292.502232188 384.757862188L295.95703 382.4375L298.1983925 380.71217125L299.25195 380.21289L300.659173594 382.585240312L301.80671625 383.8818225L303.092403281 384.399113437L304.91406 384.43359L307.72630375 383.80959125L310.02539 382.52734L311.116985 381.600007969L311.6939375 381.42878375L311.92001375 382.119337656L311.95898 383.77734L312.289967207 386.066850273L313.205138906 387.820016562L314.587810215 389.01658207L316.32129625 389.63629L318.288912129 389.658883555L320.373972969 389.064105938L322.459793887 387.831700352L324.42969 385.94141L326.95312 382.94141L327.93164 385.51367L329.16227875 387.36374125L329.958132031 387.896778594L330.78516 388.08789L333.359748125 387.214745937L336.76039 385.07461L339.998611875 382.386426562L342.08594 379.86914L342.804801563 378.630358438L343.2747175 378.3484025L343.685889687 379.131502813L344.22852 381.08789L344.916256719 383.276012754L345.7296025 384.958492656L346.704595781 386.148734668L347.877275 386.86014375L349.283678594 387.106124863L350.959845 386.900082969L355.26562 385.18555L357.412567813 384.1346425L358.6379175 383.78434L359.363643438 384.1346425L360.01172 385.18555L360.989403926 386.485115664L362.124015156 387.122870313L363.356670371 387.13800543L364.62848625 386.5697125L365.880579473 385.457183008L367.054066719 383.839608437L368.090064668 381.756180273L368.92969 379.24609L371.182185 372.5788175L372.225492813 370.735794062L373.12109 370.08789L373.446794219 370.5613275L373.71317625 371.85039L373.95898 376.08789L374.207030938 379.872012812L374.9519925 381.88679L375.511193867 382.231214805L376.195077813 382.133952187L377.9375 380.61523L378.629882969 379.88614L379.20151125 379.64311L379.814473906 379.88614L380.63086 380.61523L382.294221094 381.673691562L384.32085875 382.02684L386.498102031 381.674673438L388.61328 380.61719L389.801111094 379.879047188L390.50281375 379.900015L390.938459531 380.872342812L391.32812 382.98828L392.193397813 386.300765625L392.82331707 387.413885156L393.617165 388.1872725L394.59924793 388.637690156L395.793872188 388.781900625L398.91797 388.21875L402.068279688 386.736173906L405.0307575 384.24687375L407.776684063 380.781109219L410.27734 376.36914L412.038871406 373.560401094L413.67147875 372.13113625L414.285846738 372.006217637L414.683676719 372.313060781L414.803533027 373.080630098L414.58398 374.33789L413.33398 384.63477L413.1232075 391.5221775L413.548210938 393.210704062L414.39844 394.38477L416.14613 395.58764125L417.95508 396.08789L419.699941973 395.686163145L421.622215156 394.554290781L423.633927949 392.802235215L425.64710875 390.53995875L427.573785957 387.877423691L429.325987969 384.924592344L430.815743184 381.791427012L431.95508 378.58789L433.12305 374.58789L438.79102 374.91211L443.187696406 374.86909875L446.73205125 374.2639475L449.097880469 373.18942L449.736909199 372.505128828L449.95898 371.73828L449.542585313 370.801220195L448.40203375 370.068294687L446.700274063 369.551805586L444.600255 369.264055L439.85723375 369.423977812L437.540129063 369.89625543L435.47656 370.64648L433.737671719 371.664862187L432.49659125 372.996195L431.515515156 374.997397813L430.55664 378.02539L428.981216406 382.529986562L427.03004375 386.4854575L424.973516719 389.426227187L423.990243652 390.37060668L423.08203 390.88672L422.414599844 390.729977031L422.10275125 389.42049625L422.42773 381.68164L422.737722188 375.0658325L422.585259883 372.868450469L422.1638825 371.26023L421.42563293 370.127781406L420.322554062 369.357715L416.83008 368.45117L414.877304688 368.046359844L413.6963825 367.51120625L413.114534063 366.715077031L412.95898 365.52734L412.505184688 363.880177812L411.3024075 362.7705725L409.588561563 362.325485937L407.60156 362.67188L406.786063555 363.271216211L406.227967813 364.254707812L405.860705 366.843865L406.453224688 369.378767188L407.09485707 370.294440039L407.95898 370.79883L409.37148 371.6708025L409.95898 373.0332L408.997871406 375.802037031L406.78176625 379.49427875L404.311495469 382.647876094L403.293807637 383.565792793L402.58789 383.80078L402.096986406 383.042050156L401.63620375 381.22488375L400.95898 375.2207L400.452204844 369.926919531L400.053532363 368.155164043L399.49843625 366.86869125L398.74224123 365.993895801L397.740272031 365.457172344L394.82031 365.10352L392.84994625 365.47969375L392.413798594 365.979032969L392.32031 366.70117L392.184925469 367.454616406L391.61059875 368.02810875L389.01367 368.71484L385.791344687 369.438992969L383.1263875 370.82807625L380.952924062 372.929586406L379.20508 375.79102L377.321712031 379.0657375L376.590842793 379.754730391L375.99766125 379.8100075L375.540025801 379.230464922L375.215794844 378.01499875L374.95898 373.67188L374.688910938 369.267713281L374.338113945 367.944280527L373.8317325 367.19742375L373.160959492 367.020249629L372.316987812 367.405864844L370.07422 369.83789L368.02344 372.58789L367.99219 369.39453L367.840396406 367.895514219L367.41535625 366.60785125L366.714767969 365.526027656L365.73633 364.64453L363.132464688 363.176283437L362.204807695 363.03795793L361.4877125 363.32907L360.951962617 364.073798945L360.568341563 365.296324062L360.14062 369.27148L359.625580781 373.832416875L358.62872375 377.4793625L357.204222344 380.072171875L356.348534199 380.929480156L355.40625 381.4707L353.665312656 381.7679975L353.059523027 381.480611953L352.61014625 380.8600975L352.120511719 378.49236375L352.07617 374.41016L351.998133125 370.184489844L351.31908 367.66166375L350.680036016 366.912174746L349.801774375 366.436425781L347.20898 366.10352L346.079134062 366.220532969L345.3921725 366.67773375L345.051114687 367.606127656L344.95898 369.13672L344.5230575 372.13440125L343.47461 375.05859L341.701683594 377.516114375L339.30856625 379.7839675L337.029233281 381.272139375L336.161603223 381.539466719L335.59766 381.39062L335.133746406 380.365790195L334.88563875 378.591150937L334.96756 373.660465L335.70486125 368.334604062L336.95898 364.34961L338.080268184 361.605130156L338.709335469 358.6086175L338.871700957 355.514038594L338.59288375 352.47536L337.898402949 349.646548281L336.813777656 347.18157L335.364526973 345.234391719L333.57617 343.95898L330.84961 343.15234L330.84961 343.15234M460.3457 343.20312L459.491735 343.3784075L458.82617 343.82227L458.153031641 345.545180801L457.54020125 349.005658906L456.6093875 359.21537625L456.261575 370.603540469L456.377496172 375.537077168L456.72461 379.32227L457.78594375 384.57134125L458.8125 387.33984L459.586352187 387.825266191L460.577355625 387.979297031L463.0928225 387.34501125L466.122913125 385.540659844L469.43164 382.66992L473.78125 378.32031L474.39648 381.60352L475.26094125 384.278465L476.47461 386.09961L477.545987461 386.682352461L478.886922187 386.930011563L482.0885775 386.5046L485.501804063 384.992415938L488.54883 382.5625L491.71289 379.20703L492.21289 383.64648L492.95367625 387.24860875L494.03125 389.67383L494.868439941 390.365634668L495.932435156 390.740282969L498.56246375 390.58388625L501.564580469 389.296191406L504.58203 386.96875L507.75977 383.88867L509.85938 385.98828L511.85628875 387.46492875L513.70898 388.06641L516.915426719 387.358152344L520.67189625 385.46820875L524.577280156 382.643478281L528.23047 379.13086L531.873331406 374.798855313L532.80624875 373.097005L531.159771719 374.144992187L527.06445 378.0625L523.103153594 381.722542188L520.04331125 383.67868L518.846624512 384.019864258L517.869528281 383.937567812L517.110098223 383.432622461L516.56641 382.50586L516.036665 380.553259687L516.3017625 379.1963525L517.47994375 378.246151562L519.68945 377.51367L521.471646562 376.939358906L522.7887025 376.18805625L523.724102187 375.195262969L524.36133 373.89648L524.743320156 371.39407375L524.480834355 370.397341172L523.92023375 369.5745725L521.917305469 368.4638775L518.75977 368.08789L516.946586035 368.269546504L515.213827031 368.793894531L513.595806074 369.630001855L512.12683625 370.74693625L510.841230645 372.113765488L509.773302344 373.699557344L508.957364434 375.47337959L508.42773 377.4043L507.248578281 380.758728437L505.35713375 383.6179975L503.318372344 385.325495313L502.420302793 385.542138789L501.69727 385.22461L501.227201348 384.090220371L500.806657656 381.868186719L500.18758375 375.38355375L499.986925469 368.215443906L500.35156 362.80859L500.816665625 361.042324688L501.55608 359.8623475L502.786009375 359.050024063L504.72266 358.38672L508.45898 357.33984L504.70898 357.21484L500.95898 357.08789L500.95898 352.14453L500.862987813 349.628119844L500.51778 347.87341625L499.837509688 346.629269531L498.73633 345.64453L496.085496719 344.1641525L495.116244707 344.016205L494.34668875 344.29044L493.748518574 345.00737375L493.293423906 346.1875225L492.69922 350.01953L492.188250156 354.367344844L491.43438625 356.79782875L490.864995098 357.464468965L490.113231719 357.856253281L487.90039 358.08789L485.8231075 358.38164L485.19110875 358.69960875L484.95898 359.08789L485.235151875 359.47617125L485.987105 359.79414L488.45898 360.08789L491.95898 360.08789L491.95898 366.60938L491.852890781 370.040808906L491.46090625 372.62488875L490.672451094 374.807169219L489.37695 377.0332L487.641213203 379.427367891L486.1265525 381.038811875L484.840021172 381.870029922L483.7886725 381.92352L482.979559766 381.201780078L482.41973625 379.707308125L482.116255234 377.442602109L482.07617 374.41016L481.998133125 370.184489844L481.31908 367.66166375L480.680036016 366.912174746L479.801774375 366.436425781L477.20898 366.10352L476.079134062 366.220532969L475.3921725 366.67773375L475.051114687 367.606127656L474.95898 369.13672L474.5230575 372.13440125L473.47461 375.05859L471.701683594 377.516114375L469.30856625 379.7839675L467.029233281 381.272139375L466.161603223 381.539466719L465.59766 381.39062L465.133746406 380.365790195L464.88563875 378.591150937L464.96756 373.660465L465.70486125 368.334604062L466.95898 364.34961L468.138668262 361.447311934L468.764744844 358.320490469L468.869526191 355.126462207L468.48532875 352.02254375L467.644468965 349.166051699L466.379263281 346.714302656L464.722028145 344.824613223L462.70508 343.6543L460.3457 343.20312L460.3457 343.20312M166.01367 343.99219L165.067466406 344.502152656L164.38926875 345.81473625L163.56055 351.08789L162.35742 365.08789L161.980034375 368.678460781L161.528695 370.80728625L160.880390625 371.826413594L159.91211 372.08789L159.091839219 371.874463594L158.22617375 371.29251625L156.76367 369.37305L155.0754775 367.02653625L152.84766 365.19531L150.57943082 364.464978691L148.257050938 364.654537031L146.006216836 365.636679668L143.952625 367.28410125L142.221971914 369.469496426L140.939954062 372.065559844L140.23226793 374.944986152L140.22461 377.98047L140.197234219 380.813902812L139.47464125 383.7636625L138.116777656 386.661180938L136.18359 389.33789L134.396499219 390.924474687L133.814447754 390.937321836L133.42067125 390.375125L133.139780156 387.361357812L133.4375 381.55469L133.739837188 375.016677031L133.584086445 372.841807402L133.1601875 371.24777375L132.420488867 370.123134629L131.317339063 369.356448594L127.83008 368.45117L125.877304688 368.046359844L124.6963825 367.51120625L124.114534063 366.715077031L123.95898 365.52734L123.505184688 363.880177812L122.3024075 362.7705725L120.588561562 362.325485937L118.60156 362.67188L117.974374512 363.153061172L117.488253594 363.9933775L116.97138375 366.3325425L117.115307031 368.85162875L117.45517752 369.916846641L117.98438 370.71289L117.933085137 371.633506445L116.931602969 373.217896563L113.08756125 377.4083125L108.471223906 381.344767188L106.504372207 382.611705742L105.10156 383.08789L103.902512461 382.769595449L103.025878438 381.896147969L102.47546582 380.589701816L102.2550825 378.97241125L102.368536367 377.166430527L102.819635312 375.293913906L103.612187227 373.477015645L104.75 371.83789L106.101287031 370.555081875L107.18098875 370.1930825L108.065216094 370.759931875L108.83008 372.26367L109.63477 374.43945L110.20898 372.24609L110.324462854 370.30798168L109.641767828 368.843772812L108.319225795 367.869983789L106.515167625 367.403135L104.387924189 367.459746836L102.095826359 368.056339687L99.7972050059 369.209433945L97.650391 370.93555L96.3061645313 372.553646367L95.2605381875 374.373562813L94.5239828125 376.313860352L94.10696925 378.2931L94.0199683437 380.229842773L94.2734509375 382.042649687L94.877887875 383.650081758L95.84375 384.9707L97.8524965625 386.435473125L100.14923 386.96149L102.947030937 386.553636875L106.45898 385.2168L109.752294375 383.117441406L113.57236 379.85013125L117.108685625 376.179240469L119.55078 372.86914L120.124659688 372.175621719L120.9166525 371.77370625L123.29102 371.80664L124.681751719 372.167774375L125.45955625 372.6589025L125.717545156 373.389914375L125.54883 374.4707L124.33398 384.63477L124.1232075 391.5221775L124.548210938 393.210704062L125.39844 394.38477L127.1579875 395.58764125L128.99609 396.08789L130.067457617 395.864577754L131.355152188 395.239257656L134.2792175 393.05029375L137.167676562 390.056397969L139.41992 386.79297L140.507939375 384.910581719L141.373175 384.04871375L142.372623125 384.040906406L143.86328 384.7207L146.1713025 385.679765L148.07422 386.08203L150.242018438 385.40842375L152.6873975 383.65067L154.942887813 381.22480875L156.54102 378.54688L158.052135 376.1351275L158.951779687 375.286298125L159.80469 374.83789L160.837491563 374.7635875L161.509725 375.4058575L161.972505937 377.07127375L162.37695 380.06641L163.220695 384.64018375L164.33789 387.58984L165.188478108 388.397448755L166.232185957 388.810438945L167.43479446 388.860843335L168.762084531 388.580694688L171.653833027 387.156869336L174.63367875 384.795225L177.427869004 381.752023789L179.762651094 378.283527812L181.364272324 374.64599918L181.95898 371.0957L181.744938008 369.152408555L181.146351563 367.844579688L180.228529961 367.160450352L179.0567825 367.0882575L177.696418477 367.616238086L176.212747187 368.732629063L174.67107793 370.425667383L173.13672 372.68359L170.81445 376.58789L171.44336 361.93359L171.762792969 353.51827L171.69303125 348.97868L171.085836406 346.854045L169.79297 345.68359L167.60039125 344.35529125L166.01367 343.99219L166.01367 343.99219M216.11719 344.01562L215.182919219 344.426925781L214.50527125 345.53801625L213.69922 350.01953L213.188250156 354.367344844L212.43438625 356.79782875L211.864995098 357.464468965L211.113231719 357.856253281L208.90039 358.08789L206.8231075 358.38164L206.19110875 358.69960875L205.95898 359.08789L206.235151875 359.47617125L206.987105 359.79414L209.45898 360.08789L212.95898 360.08789L212.95898 368.71875L212.871323594 373.178369687L212.54944875 376.337195L211.904997031 378.698515313L210.84961 380.76562L209.024405 383.06683875L208.208635938 383.681030781L207.59961 383.80469L207.101120781 383.051109219L206.63779625 381.24586625L205.95898 375.2207L205.452204844 369.926919531L205.053532363 368.155164043L204.49843625 366.86869125L203.74224123 365.993895801L202.740272031 365.457172344L199.82031 365.10352L197.84994625 365.47969375L197.413798594 365.979032969L197.32031 366.70117L197.184925469 367.454616406L196.61059875 368.02810875L194.01367 368.71484L191.722090918 369.163529844L189.656698594 369.9272675L187.85992791 370.962130156L186.37421375 372.224195L185.241990996 373.669539219L184.505694531 375.25424L184.207759238 376.934374531L184.39062 378.66602L184.843735879 379.756725938L185.572982656 380.638463125L187.66670875 381.7260975L190.285477969 381.831055625L193.04297 380.85547L195.73828 379.30664L196.33984 383.06836L197.2173825 386.09973875L198.48242 388.10742L199.5074425 388.622101133L200.8383225 388.787817813L204.06187 388.1924225L207.4414925 386.561363438L210.26562 384.13477L212.71875 381.2207L213.29102 384.74219L214.05992625 387.6708375L215.10547 389.76367L216.038633242 390.541800684L217.185858438 390.913658594L218.520393789 390.88950127L220.0154875 390.47958625L223.380342812 388.543513281L227.06641 385.1875L231.67383 380.25977L233.06641 383.42383L233.787920957 384.744033223L234.654461406 385.745477656L235.674630215 386.429599199L236.85702625 386.79783375L238.210248379 386.851617207L239.742895469 386.592385469L243.38086 385.14062L247.30078 383.12891L248.76367 385.21875L249.637864531 386.225062656L250.62844125 386.77609625L251.920519844 386.929316719L253.69922 386.74219L257.038852187 385.85719L259.7888025 384.33634L262.065251563 382.0926325L263.98438 379.03906L266.6884275 373.169705938L267.46412 370.2951075L267.146687812 370.111235586L266.3685925 370.832525313L263.45898 375.19922L261.518822344 378.21693418L259.80608625 380.341702813L258.334533281 381.574806289L257.117925 381.917525L256.170022969 381.371139336L255.50458875 379.936929687L255.135383906 377.616176445L255.07617 374.41016L254.998133125 370.184489844L254.31908 367.66166375L253.680036016 366.912174746L252.801774375 366.436425781L250.20898 366.10352L249.066997656 366.222894375L248.38122625 366.700945L248.045856719 367.688875625L247.95508 369.33789L247.620120781 373.182070156L246.73007625 376.72220125L245.437396094 379.516466719L243.89453 381.12305L241.932072656 381.766862656L241.241250371 381.575697793L240.72353125 381.00651875L240.145899219 378.626217969L240.07617 374.41016L239.998133125 370.184489844L239.31908 367.66166375L238.680036016 366.912174746L237.801774375 366.436425781L235.20898 366.10352L234.067525937 366.223577813L233.3786725 366.7027525L233.037102813 367.690903438L232.9375 369.33789L232.588124805 371.986773828L231.672877187 374.91161125L230.341742852 377.879704922L228.7447075 380.6583575L227.031756836 383.014871641L225.352876563 384.71655L223.858052383 385.530695234L223.22653186 385.53222501L222.69727 385.22461L222.227201348 384.090220371L221.806657656 381.868186719L221.18758375 375.38355375L220.986925469 368.215443906L221.35156 362.80859L221.816665625 361.042324688L222.55608 359.8623475L223.786009375 359.050024063L225.72266 358.38672L229.45898 357.33984L225.70898 357.21484L221.95898 357.08789L221.95898 352.14453L221.862987813 349.628119844L221.51778 347.87341625L220.837509688 346.629269531L219.73633 345.64453L217.65436 344.38971625L216.11719 344.01562L216.11719 344.01562M83.810547 345.33008L81.417969 345.92383L80.0031681484 346.790686895L78.5507315 348.099518906L75.63933625 351.87684125L72.896554125 356.923262969L70.535156 362.90625L68.4453099063 370.180165313L66.30278625 379.03983L64.6324044687 387.150087187L63.958984 392.17578L64.0431599375 393.112599063L64.38722925 393.5227625L65.1285041875 393.448399688L66.404297 392.93164L68.230985125 391.867173281L69.3636135 390.06463625L70.185040625 386.464643594L71.078125 380.00781L72.234375 370.99023L76.847656 371.28906L79.4823375625 371.522901406L80.862472 372.00863875L81.4041439375 373.084294219L81.523438 375.08789L81.7035508125 380.480231094L82.077137 384.06443375L82.7471156875 386.427942031L83.816406 388.1582L84.8944358125 389.343545156L85.843133 389.87401375L86.9659666875 389.819525469L88.566406 389.25L91.460938 388.05078L91.103516 368.82031L90.5804175 354.72688625L89.824219 347.84961L88.8469074844 346.697244687L87.407350625 345.8677375L85.6728099531 345.399284062L83.810547 345.33008L83.810547 345.33008M80.644531 350.14258L81.628266125 350.55306L82.402344 351.80078L82.667264 355.2978375L82.380859 361.30078L81.701172 369.08789L77.798828 369.08789L74.9563167188 368.778945156L74.0590228086 368.325283965L73.48123 367.61218125L73.2005832539 366.594650254L73.1947275313 365.227704219L73.917969 361.26562L75.3356687969 356.742805937L77.073242375 353.2208575L78.9148197656 350.940530313L79.8071505254 350.34121082L80.644531 350.14258L80.644531 350.14258M336.58594 352.41211L336.91968375 353.02384875L337.37891 355.09766L337.57846375 358.382275L337.05078 361.34766L336.1609825 363.28281375L335.48438 364.08789L335.106788594 362.938567344L335.08216125 360.18969625L335.365575781 356.889922031L335.91211 354.08789L336.58594 352.41211L336.58594 352.41211M466.58594 352.41211L466.91968375 353.02384875L467.37891 355.09766L467.57846375 358.382275L467.05078 361.34766L466.1609825 363.28281375L465.48438 364.08789L465.106792812 362.938567344L465.082165 360.18969625L465.365577187 356.889922031L465.91211 354.08789L466.58594 352.41211L466.58594 352.41211M237.28711 354.32617L235.92719 354.62704625L234.58203 355.60938L233.429938281 357.111538906L233.03751125 358.57534375L233.404648594 360.032726719L234.53125 361.51562L236.105608906 362.697330625L237.59148375 362.98794L239.012084219 362.384676875L240.39062 360.88477L241.136989531 359.673750781L241.40998625 358.70952375L241.219687344 357.770419844L240.57617 356.63477L238.99429875 354.93001875L237.28711 354.32617L237.28711 354.32617M252.28711 354.32617L250.92719 354.62704625L249.58203 355.60938L248.429938281 357.111538906L248.03751125 358.57534375L248.404648594 360.032726719L249.53125 361.51562L251.105608906 362.697330625L252.59148375 362.98794L254.012084219 362.384676875L255.39062 360.88477L256.136989531 359.673750781L256.40998625 358.70952375L256.219687344 357.770419844L255.57617 356.63477L253.99429875 354.93001875L252.28711 354.32617L252.28711 354.32617M349.28711 354.32617L347.92719 354.62704625L346.58203 355.60938L345.429938281 357.111538906L345.03751125 358.57534375L345.404648594 360.032726719L346.53125 361.51562L348.105610312 362.697330625L349.5914875 362.98794L351.012088437 362.384676875L352.39062 360.88477L353.13699375 359.673750781L353.40999 358.70952375L353.21968875 357.770419844L352.57617 356.63477L350.99429875 354.93001875L349.28711 354.32617L349.28711 354.32617M479.28711 354.32617L477.92719 354.62704625L476.58203 355.60938L475.429896094 357.111538906L475.03747375 358.57534375L475.404634531 360.032726719L476.53125 361.51562L478.105610312 362.697330625L479.5914875 362.98794L481.012088437 362.384676875L482.39062 360.88477L483.13699375 359.673750781L483.40999 358.70952375L483.21968875 357.770419844L482.57617 356.63477L480.99429875 354.93001875L479.28711 354.32617L479.28711 354.32617M531.56445 362.33203L529.54688 362.69141L528.771549063 363.185721719L528.29973 364.00640625L528.15625 366.96484L528.429417344 368.984870625L529.05772375 370.1840825L530.392520781 370.906485625L532.78516 371.49609L535.014596094 372.041473594L536.24573625 372.61317375L536.685553281 373.376332031L536.54102 374.49609L535.33398 384.63477L535.1232075 391.5221775L535.548210938 393.210704062L536.39844 394.38477L538.14613 395.58764125L539.95508 396.08789L541.050826914 395.884740703L542.313291563 395.305615L545.1373075 393.2013675L548.024994687 390.13901375L550.57422 386.48242L553.0558525 383.13626375L554.1992175 382.343701094L555.33203 382.08789L557.48978875 381.65582875L559.61328 380.61719L560.801109688 379.879047188L561.50281 379.900015L561.938455313 380.872342812L562.32812 382.98828L563.193402031 386.300765625L563.823321465 387.413885156L564.61716875 388.1872725L565.599250566 388.637690156L566.793873594 388.781900625L569.91797 388.21875L573.068279687 386.736173906L576.0307575 384.24687375L578.776684062 380.781109219L581.27734 376.36914L583.038871406 373.560401094L584.67147875 372.13113625L585.285846738 372.006217637L585.683676719 372.313060781L585.803533027 373.080630098L585.58398 374.33789L584.33398 384.63477L584.1232075 391.5221775L584.548210938 393.210704062L585.39844 394.38477L586.471432988 395.281267676L587.564628281 395.823865781L588.702384121 396.005255684L589.90905875 395.81812875L592.626597344 394.309089844L595.91211 391.23828L598.371214531 388.7324575L600.06132625 387.40163L601.371654844 387.0247725L602.69141 387.38086L604.22183666 387.775346543L605.988470781 387.727649844L607.944406074 387.26069541L610.04273625 386.39740875L614.478956094 383.573540781L618.92188 379.43945L622.751950937 374.960004531L623.814625 373.12312125L622.216569062 374.100164844L618.06445 378.0625L614.103153594 381.722542188L611.04331125 383.67868L609.846624512 384.019864258L608.869528281 383.937567812L608.110098223 383.432622461L607.56641 382.50586L607.036665 380.553259687L607.3017625 379.1963525L608.47994375 378.246151562L610.68945 377.51367L612.471646562 376.939358906L613.7887025 376.18805625L614.724102187 375.195262969L615.36133 373.89648L615.733385 371.432375781L615.480431641 370.437239121L614.9426475 369.60861875L613.03605625 368.476644844L610.06055 368.08789L607.663660605 368.340440762L605.504897969 369.077278594L603.60936916 370.267181816L602.00218125 371.87892875L600.708441309 373.881297715L599.753256406 376.243067031L599.161733613 378.93301502L598.95898 381.91992L598.40717 385.4815175L597.755370625 387.081147187L596.88672 388.45312L594.713286563 390.761940312L594.00238418 391.003777305L593.5164075 390.5861475L593.142379688 387.619233437L593.4375 381.55469L593.739837188 375.016677031L593.584086445 372.841807402L593.1601875 371.24777375L592.420488867 370.123134629L591.317339062 369.356448594L587.83008 368.45117L585.88688125 368.04753L584.704895 367.51486L584.11772625 366.729155L583.95898 365.56641L583.554718281 363.918344688L582.45256375 362.8169975L580.818462344 362.356956562L578.81836 362.63281L577.925210977 363.203449238L577.296930312 364.173565781L576.8256525 366.77048375L577.385883438 369.340069844L578.046988711 370.276021543L578.95898 370.79883L580.37148 371.6708025L580.95898 373.0332L579.997871406 375.802037031L577.78176625 379.49427875L575.311495469 382.647876094L574.293807637 383.565792793L573.58789 383.80078L573.096986406 383.042050156L572.63620375 381.22488375L571.95898 375.2207L571.452204844 369.926919531L571.053532363 368.155164043L570.49843625 366.86869125L569.74224123 365.993895801L568.740272031 365.457172344L565.82031 365.10352L563.84990875 365.47969375L563.413756406 365.979032969L563.32031 366.70117L563.184925469 367.454616406L562.61059875 368.02810875L560.01367 368.71484L557.578790156 369.210533047L555.39926375 370.06806875L553.528645469 371.226211953L552.02049 372.6237275L550.928352031 374.199380234L550.30578625 375.891935L550.206347344 377.640156641L550.68359 379.38281L551.05658625 381.430131406L550.563685 383.86657625L549.25476125 386.549907969L547.17969 389.33789L545.395772188 390.92547875L544.814475586 390.938058359L544.42105 390.3753575L544.140100312 387.3607025L544.4375 381.55469L544.739837188 375.016677031L544.584086445 372.841807402L544.1601875 371.24777375L543.420488867 370.123134629L542.317339062 369.356448594L538.83008 368.45117L536.877304687 368.046359844L535.6963825 367.51120625L535.114534062 366.715077031L534.95898 365.52734L534.697475156 364.239774062L533.97875625 363.2434125L532.901516719 362.590187187L531.56445 362.33203L531.56445 362.33203M178.04102 369.25195L178.519340918 369.427574355L178.812916094 369.935658594L178.86121875 371.78674875L178.216707031 374.480304531L176.91016 377.69141L174.98964125 381.0725625L173.25195 383.25586L172.412356875 383.850501094L172.0239975 383.72093375L172.36914 380.58789L173.341700469 376.826454531L174.74086375 373.30193375L176.289125156 370.600566094L177.70898 369.30859L178.04102 369.25195L178.04102 369.25195M153.41016 370.11133L154.56414 370.34133L155.41797 371.01953L155.59898125 371.80362375L155.22656 372.38281L154.253646719 372.5817L153.18178875 372.3325925L152.315421406 371.76386875L151.95898 371.00391L152.3952575 370.33170875L153.41016 370.11133L153.41016 370.11133M195.39453 371.08789L196.142913691 371.248354512L196.638301406 371.686655469L196.90141875 373.13821125L196.246541719 374.925446406L194.73633 376.53125L192.647467031 377.728072656L191.15440875 377.97553125L190.257973594 377.273799219L189.95898 375.62305L190.389710156 373.866464219L191.56055625 372.42394375L193.289501719 371.447186406L195.39453 371.08789L195.39453 371.08789M390.39453 371.08789L391.142913691 371.248354512L391.638301406 371.686655469L391.90141875 373.13821125L391.246541719 374.925446406L389.73633 376.53125L387.647467031 377.728072656L386.15440875 377.97553125L385.257973594 377.273799219L384.95898 375.62305L385.389710156 373.866464219L386.56055625 372.42394375L388.289501719 371.447186406L390.39453 371.08789L390.39453 371.08789M520.99414 371.08789L522.357300625 371.474667813L522.8906275 372.488275L522.574343125 373.908622187L521.38867 375.51562L519.940045781 376.574513125L518.50139375 377.0366275L517.398957344 376.864703125L516.95898 376.02148L517.326521875 374.285985156L518.275355 372.69724375L519.574790625 371.537222969L520.99414 371.08789L520.99414 371.08789M561.39453 371.08789L562.142913691 371.248354512L562.638301406 371.686655469L562.90141875 373.13821125L562.246541719 374.925446406L560.73633 376.53125L558.647467031 377.728072656L557.15440875 377.97553125L556.257973594 377.273799219L555.95898 375.62305L556.389710156 373.866464219L557.56055625 372.42394375L559.289501719 371.447186406L561.39453 371.08789L561.39453 371.08789M611.99414 371.08789L613.357300625 371.474667813L613.8906275 372.488275L613.574343125 373.908622187L612.38867 375.51562L610.940045781 376.574513125L609.50139375 377.0366275L608.398957344 376.864703125L607.95898 376.02148L608.326521875 374.285985156L609.275355 372.69724375L610.574790625 371.537222969L611.99414 371.08789L611.99414 371.08789M149.61914 374.71484L152.42969 375.33984L154.464666563 376.245750469L155.01233668 376.795401035L155.2501225 377.43709125L154.806024688 379.079318906L153.15234 381.33789L151.140955313 382.98284875L150.259209492 383.193461484L149.4890625 383.0114975L148.852240195 382.448457578L148.370468437 381.5158425L147.95898 378.58789L148.24949875 375.576525L148.752733594 374.910909063L149.61914 374.71484L149.61914 374.71484M221.10547 394.08789L219.135344063 394.780791719L216.77357 396.43155875L214.791123438 398.398283906L213.95898 400.03906L214.092866973 400.574595313L214.472447031 400.909659375L215.83620125 401.0004725L217.785272344 400.355696875L220.05469 399.01953L221.995038438 397.2630225L222.8549725 395.67732L222.86196168 395.03208L222.577460313 394.5298125L221.994339414 394.20394125L221.10547 394.08789L221.10547 394.08789"
       style="fill:#000000;stroke:#ff0000" />
    <path
       id="path4147-1"
       d="M136.28125 545.16602L129.04297 545.32031L118.945584844 546.350262031L104.40479675 548.23015625L90.6279192813 550.243994844L82.822266 551.67578L82.1696628867 552.519153301L81.8165849063 554.397182656L81.9142875 560.18853125L82.9259400937 566.912469219L83.7152996133 569.956235293L84.662109 572.43164L86.1226072285 575.007116855L87.8150882031 576.995737344L89.8890738574 578.431821348L92.494086125 579.34968875L95.7796469395 579.783659434L99.8952782344 579.768053281L111.21484 578.52539L119.865843008 577.500753594L127.222673437 577.1155775L133.266279648 577.364267656L137.97761 578.24123L141.337612852 579.740870469L142.504912827 580.722446855L143.327236562 581.857595L143.802202603 583.145615645L143.927429492 584.585809531L143.700535776 586.177477402L143.11914 587.91992L140.979565 592.01897625L137.5602725 596.3890975L131.98633125 602.00168L123.38281 609.82812L110.162095313 621.76265L100.91630825 630.5865325L94.7328743125 637.21382625L90.699219 642.55859L88.2081273279 646.691617327L86.1858092793 650.710832988L84.6280153059 654.602641257L83.5304958594 658.353446406L82.8890013914 661.949652708L82.6992823535 665.377664434L82.9570891975 668.623885857L83.658172375 671.67472125L84.7982823376 674.516574885L86.3731695371 677.135851035L88.378584425 679.518953972L90.8102774531 681.652287969L93.663999073 683.522257297L96.9354997363 685.11526623L100.620529895 686.417719041L104.71484 687.41602L109.711715 687.63400625L118.21484 687.4707L125.549518281 686.9719725L133.59436125 685.818675L144.639873594 683.6071125L160.97656 679.93359L170.74023 677.68945L170.14258 674.11328L168.455142969 667.080153125L165.97744125 660.97325L164.499547871 658.379663984L162.892856406 656.152671875L161.180289551 654.337286328L159.38477 652.97852L157.636292891 652.103463809L155.697430625 651.510413594L153.531810547 651.201091895L151.10306 651.17722125L145.310676875 651.992723281L138.0293 653.9707L129.744388223 656.290905176L122.031080156 657.875727031L115.034935449 658.731021309L108.90151375 658.86264375L103.776374707 658.276450098L99.8050779688 656.978296094L98.297607854 656.064063879L97.1331831836 654.97403748L96.3299989136 653.708948865L95.90625 652.26953L95.9710879102 650.644822676L96.5507207812 648.620827656L99.05840625 643.69235625L103.037376094 638.118879219L108.0957 632.53516L117.08913625 624.3624375L128.71484 614.54492L136.819910781 607.79397666L143.588124375 601.790257031L149.148520156 596.377952949L153.6301375 591.40125625L157.162015781 586.70435877L159.873194375 582.131452344L161.892712656 577.526728809L163.34961 572.73438L164.15494375 569.081756563L164.4876575 566.2397875L164.370975 563.625094688L163.82812 560.6543L162.662965117 557.161007129L160.833348438 554.106711406L158.346043164 551.494379668L155.2078225 549.32697875L151.425459648 547.607475488L147.005727813 546.338836719L141.955400195 545.524029277L136.28125 545.16602L136.28125 545.16602M180.82227 598.09375L177.5 598.375L176.195035781 598.896938594L175.46766625 600.07103125L175.124628594 602.558240781L174.97266 607.01953L174.35331875 616.44690875L173.10547 627.80469L172.010179902 637.345715742L171.392734844 645.892127813L171.250097676 653.412283477L171.57923125 659.87454L172.377098418 665.247254648L173.640662031 669.498784687L175.366884941 672.597487383L176.402544524 673.704640122L177.55273 674.51172L179.765342383 675.427394688L182.142670938 675.897471875L184.612965273 675.938535L187.104475 675.5671675L189.545449727 674.799952813L191.864139062 673.653474375L193.988792617 672.144315625L195.84766 670.28906L197.605916406 667.766934375L199.09295125 664.031575L200.805482969 657.486970625L203.24023 646.53711L205.596177188 636.666042344L208.063535 628.02796625L210.347757813 621.559012031L212.1543 618.19531L212.864084062 617.705895469L213.42741 618.01835375L214.55859 621.69531L216.73047 636.03711L217.667410313 642.223065313L218.866815 646.5912925L220.344237188 649.182428437L221.192065195 649.824286211L222.11523 650.03711L222.981367051 649.903567129L223.750170156 649.466455781L225.09213125 647.46263125L226.333826719 643.587843594L227.66797 637.4043L229.254334062 629.987321094L230.893755 624.09464875L232.726923438 619.292347031L234.89453 615.14648L237.06445 611.53711L234.29102 614.03711L231.409688437 616.966675156L229.0298875 620.17686125L226.995982812 623.912386719L225.15234 628.41797L222.96094 634.46875L222.25781 628.00391L220.895792187 619.390711406L219.991971055 616.11765834L218.921945 613.49861125L217.672466445 611.507301504L216.230287812 610.117460469L214.582161523 609.302819512L212.71484 609.03711L210.302016406 609.610957812L207.99326375 611.3808475L205.719616719 614.419298437L203.41211 618.79883L200.97852 624.05859L200.50781 616.72656L199.792380156 611.054762813L198.36282375 606.796365L197.325469082 605.088376992L196.043847969 603.603162187L192.66016 601.12695L190.037838281 599.932094219L187.00599125 598.99472375L183.841756094 598.365166406L180.82227 598.09375L180.82227 598.09375M413.04102 602.07617L409.52148 602.37109L408.252779375 602.853030781L407.54482 603.77200875L407.241695625 605.543262344L407.1875 608.58203L407.21484 614.20117L398.71484 614.46875L393.637096758 614.885274355L388.838397813 615.789146719L384.369421836 617.154149785L380.2808475 618.95406625L376.623353477 621.162678809L373.447618438 623.753770156L370.804321055 626.701122988L368.74414 629.97852L367.052353223 632.581741016L364.290525156 636.0306475L356.67193375 644.3243975L348.118742969 652.57753125L344.188665684 655.975667422L340.86133 658.50781L334.776095 662.07911625L332.161294375 663.175998906L330.02148 663.72266L327.856790312 663.911267656L326.34833 663.69105875L325.139337188 662.933915469L323.87305 661.51172L322.869250313 659.959729062L322.20143 658.2200975L321.829867187 656.147762188L321.71484 653.59766L321.71484 648.42773L329.13672 647.17969L335.225523437 645.659410312L337.798998164 644.59419707L340.0793525 643.31204L342.082209648 641.80276793L343.823192813 640.056209688L345.317925195 638.062194102L346.58203 635.81055L348.346777461 630.937023242L348.743220786 628.634722954L348.829341562 626.439860312L348.615363081 624.365782007L348.111508633 622.425834727L347.328001509 620.633365161L346.275065 619.00172L344.962922397 617.544245933L343.401796992 616.274289648L339.573490938 614.350317187L334.871933164 613.336576133L329.37891 613.33984L322.928783359 614.368137559L317.1068 616.181931094L311.927666016 618.768149395L307.4060875 622.11372125L303.556770547 626.205575449L300.39442125 631.030640781L297.933745703 636.575846035L296.18945 642.82812L295.260933594 646.586056563L293.98089125 649.4373425L291.761670781 652.350229688L288.01562 656.29297L282.147595469 661.907080938L277.18919625 665.9238475L273.249478906 668.265312813L271.695706113 668.783445977L270.4375 668.85352L269.194835625 668.468983437L268.5374225 667.23663L268.289520625 664.358619062L268.27539 659.03711L269.17188 636.93945L269.610295625 628.133768125L269.3206375 622.5865175L268.828434688 620.589421094L268.064998125 618.872473125L265.60547 615.56641L262.557725 613.021816406L258.5153 610.94674625L253.991105 609.549182969L249.49805 609.03711L247.96282625 609.094254375L247.25975 609.376995L247.26810875 610.052293125L247.86719 611.28711L248.436240254 612.886034941L248.786511406 615.193743281L248.82926375 621.96392625L247.992541719 631.654491094L246.27344 644.32227L244.149705 661.591466875L243.779264375 668.339992734L243.87565 673.920485L244.443268125 678.399954766L245.486525 681.845413125L247.009826875 684.323871172L249.01758 685.90234L250.590152578 686.443414785L252.57114375 686.705666406L257.4119325 686.44391875L262.8470475 685.217534219L268.18359 683.12695L273.167274219 680.093745781L278.72855125 675.68790375L284.584730156 670.155394844L290.45312 663.74219L294.54688 658.94727L296.13867 664.42188L297.046200715 667.0252654L298.17109041 669.352620391L299.507252908 671.402666279L301.048602031 673.174124375L302.789051604 674.665715986L304.722515449 675.876162422L306.84290739 676.80418499L309.14414125 677.448505L314.26479002 677.880922578L320.035772344 677.163185625L326.408398809 675.285064609L333.33398 672.23633L339.721522969 668.420134844L346.74749875 663.27414375L353.573552656 657.461295781L359.36133 651.64453L364.48242 645.89648L366.34766 649.7168L367.557130352 651.737796641L369.066614062 653.48116625L370.858463867 654.938714609L372.9150325 656.1022475L375.218672695 656.963570703L377.751737188 657.51449L380.496578711 657.746811172L383.43555 657.65234L387.873511094 657.021091563L391.77563375 655.8644175L395.498437031 654.043112188L399.39844 651.41797L403.02734 649.03711L403.47024875 651.7542975L403.90625 658.28711L404.397873965 664.170847266L405.306041719 669.0283975L406.676782051 672.913912109L408.55612375 675.8815425L410.990095605 677.985440078L414.024726406 679.27975625L417.706044941 679.818642422L422.08008 679.65625L425.612633828 679.138306152L428.93283875 678.330044219L432.091437422 677.203544863L435.1391725 675.73088875L438.126786641 673.884156543L441.1050225 671.635428906L447.23633 665.82031L452.99916625 659.37294875L456.41016 654.97461L457.8070075 652.8997925L458.72852 652.03711L459.52862125 653.1099875L460.63281 655.68945L462.06851625 658.742473105L464.052215625 661.604579844L466.490204062 664.209147598L469.2887775 666.48955375L472.354231875 668.379175684L475.592863125 669.811390781L478.910967187 670.719576426L482.21484 671.03711L486.891312324 670.429684629L491.631419219 668.702677656L496.280476816 665.998992793L500.68380125 662.46153375L504.686708652 658.233204238L508.134515156 653.456907969L510.872536895 648.275548652L512.74609 642.83203L513.521331563 640.169646406L514.4960075 638.55893625L516.177269688 637.488092969L519.07227 636.44531L527.10742 633.30273L528.739095625 632.514547656L529.522855 632.34762875L529.652119375 632.879452969L529.32031 634.1875L528.400857461 638.043202422L527.970354062 641.564003125L528.029863633 644.753571016L528.58045 647.615575L529.623176992 650.153683984L531.159108437 652.371566875L533.189308164 654.272892578L535.71484 655.86133L538.248718281 657.027427813L540.53343625 657.6568575L543.089033594 657.836275937L546.43555 657.65234L550.873511094 657.021091563L554.77563375 655.8644175L558.498437031 654.043112188L562.39844 651.41797L566.02734 649.03711L566.47024875 651.7542975L566.90625 658.28711L567.397873965 664.170847266L568.306041719 669.0283975L569.676782051 672.913912109L571.55612375 675.8815425L573.990095605 677.985440078L577.024726406 679.27975625L580.706044941 679.818642422L585.08008 679.65625L588.656934023 679.133306074L592.004113438 678.318597969L595.179926758 677.179644941L598.2426825 675.68396625L601.25068918 673.799081152L604.262255312 671.492508906L610.5293 665.48438L617.3235875 657.368405L622.86719 649.40039L626.776844375 642.096652031L630.9818675 633.28511125L634.341464375 625.472617344L635.71484 621.16602L635.497847812 620.727963281L634.9070275 620.36963625L632.96484 620.04102L631.401515625 620.248545156L630.2335875 621.20893625L629.086070625 623.438884219L627.58398 627.45508L624.338329219 635.070644219L619.99659375 643.07554375L615.022771406 650.691596406L609.88086 657.14062L605.828499531 661.177485469L604.255191152 662.296944473L602.91903875 662.82984125L601.771473379 662.785740996L600.763926094 662.174208906L599.847827949 661.004810176L598.97461 659.28711L598.152806406 656.604812187L597.68632375 652.50583L597.55273 635.6543L597.613860312 624.689199531L597.412095 618.16690875L596.812387188 614.340948594L595.67969 611.46484L594.478573906 609.346010156L593.09147375 607.65465875L591.395941719 606.268300469L589.26953 605.06445L585.178464063 603.545830469L580.51416 602.50878875L576.040528438 602.076237656L572.52148 602.37109L571.248529688 602.855479531L570.5410175 603.79064625L570.240241562 605.610762344L570.1875 608.75L570.21484 614.53711L564.71484 614.21875L559.376502031 614.275499531L553.87157875 615.21368375L547.415241094 617.227156094L539.22266 620.50977L531.00531625 623.771423125L523.752585 626.1897275L518.20168625 627.547348125L516.294805312 627.760484844L515.08984 627.62695L514.555683281 627.18982375L514.11850625 626.389885L513.71484 624.15625L513.448892402 622.091312305L512.706566719 619.667892188L510.12588375 614.3176175L506.638996406 609.249451562L504.763915254 607.178667383L502.91211 605.60742L500.470010625 604.0711825L498.1184775 603.09389L495.351260625 602.5222875L491.66211 602.20312L487.863194687 602.093028594L484.983005 602.34865875L482.359847812 603.089627031L479.33203 604.43555L476.836355293 605.842593574L474.324718594 607.607965469L469.48697375 611.97035625L465.285624531 617.036046406L462.1875 622.31836L460.08904 628.3896L458.39453 635.6582L456.954828125 641.674386875L454.6598375 646.9591625L451.100845625 652.250684375L445.86914 658.28711L442.342509375 661.610970469L440.933736172 662.495201504L439.712635 662.86589125L438.642688828 662.72673334L437.687380625 662.081421406L436.810193359 660.933649082L435.97461 659.28711L435.152806406 656.604812187L434.68632375 652.50583L434.55273 635.6543L434.613860313 624.689199531L434.412095 618.16690875L433.812387188 614.340948594L432.67969 611.46484L431.478573906 609.346010156L430.09147375 607.65465875L428.395941719 606.268300469L426.26953 605.06445L423.28489875 603.885115156L419.870495 602.95935625L416.34848125 602.339074219L413.04102 602.07617L413.04102 602.07617M500.4668 620.21289L502.1990875 620.530487031L503.7855375 621.30328625L505.15988375 622.507449844L506.25586 624.11914L507.322949844 626.516542031L507.33853875 627.83685875L506.177533281 628.270973594L503.71484 628.00977L501.260584043 627.434538789L499.165915469 626.651990938L497.484600723 625.720623867L496.27040625 624.698935L495.577098496 623.645421758L495.458443906 622.618581563L495.968208926 621.676911836L497.16016 620.87891L498.82108125 620.33914L500.4668 620.21289L500.4668 620.21289M336.52148 623.87109L337.829758438 623.977410937L338.990525 624.3585975L339.956321563 625.020932812L340.67969 625.9707L341.471939824 628.267048145L341.561091719 630.729650781L341.010606816 633.249053965L339.88394625 635.71580375L338.244571152 638.020446191L336.155942656 640.053527344L333.681521895 641.705593262L330.88477 642.86719L327.774344687 643.639495L325.169695 643.9904125L323.380100312 643.90130125L322.887598398 643.685909453L322.71484 643.35352L323.361453594 639.719968281L324.98308875 635.08058875L327.102437031 630.599157344L329.24219 627.43945L330.958834531 625.925487656L332.81121125 624.81756875L334.698899844 624.128500469L336.52148 623.87109L336.52148 623.87109M403.78711 624.03711L405.128757969 624.151202969L405.81694125 624.73719125L406.012181406 626.160638906L405.875 628.78711L405.134801094 632.512496406L403.36183625 635.77516375L400.318598281 638.889996719L395.76758 642.17188L392.081460625 644.189085313L389.18331 644.9155725L387.979603047 644.79645207L386.912744375 644.356638437L385.10938 642.51758L384.42714043 641.15554459L384.033840938 639.635027969L384.0796325 636.31900875L385.177895312 632.970437656L387.25977 629.99023L390.245684687 627.913327031L394.64636 625.99435625L399.485575313 624.585042344L403.78711 624.03711L403.78711 624.03711M566.78711 624.03711L568.128757969 624.151202969L568.81694125 624.73719125L569.012181406 626.160638906L568.875 628.78711L568.134801094 632.512496406L566.36183625 635.77516375L563.318598281 638.889996719L558.76758 642.17188L555.081460625 644.189085313L552.18331 644.9155725L550.979603047 644.79645207L549.912744375 644.356638437L548.10938 642.51758L547.42714043 641.15554459L547.033840938 639.635027969L547.0796325 636.31900875L548.177895312 632.970437656L550.25977 629.99023L553.245684687 627.913327031L557.64636 625.99435625L562.485575313 624.585042344L566.78711 624.03711L566.78711 624.03711M486.66211 634.04297L490.91016 636.25586L493.123684375 637.208738594L495.722015 637.98595875L501.51367 638.875L505.146284375 639.152347969L506.9676 639.56736125L507.361331328 639.912259277L507.497010625 640.394493906L507.25391 641.9082L505.605824687 646.629076406L502.99083 651.86391375L500.021535312 656.526656719L497.31055 659.53125L494.217685937 661.296290312L491.164585 661.957025L488.386614063 661.504969688L487.174354492 660.858994414L486.11914 659.93164L485.153722031 658.5050275L484.57696625 656.5036825L484.301082344 653.40381625L484.23828 648.68164L484.606655 641.4158375L485.46094 636.78906L486.66211 634.04297L486.66211 634.04297"
       style="fill:#000000;stroke:#ff0000" />
  </g>
</svg>
