<?xml version="1.0" encoding="UTF-8" standalone="no"?>
<!-- Created with Inkscape (http://www.inkscape.org/) -->

<svg
   xmlns:dc="http://purl.org/dc/elements/1.1/"
   xmlns:cc="http://creativecommons.org/ns#"
   xmlns:rdf="http://www.w3.org/1999/02/22-rdf-syntax-ns#"
   xmlns:svg="http://www.w3.org/2000/svg"
   xmlns="http://www.w3.org/2000/svg"
   xmlns:sodipodi="http://sodipodi.sourceforge.net/DTD/sodipodi-0.dtd"
   xmlns:inkscape="http://www.inkscape.org/namespaces/inkscape"
   width="210mm"
   height="297mm"
   viewBox="0 0 744.09448819 1052.3622047"
   id="svg2"
   version="1.1"
   inkscape:version="0.91 r13725"
   sodipodi:docname="tree_circle_50mm.svg">
  <defs
     id="defs4" />
  <sodipodi:namedview
     id="base"
     pagecolor="#ffffff"
     bordercolor="#666666"
     borderopacity="1.0"
     inkscape:pageopacity="0.0"
     inkscape:pageshadow="2"
     inkscape:zoom="7.9195959"
     inkscape:cx="238.70271"
     inkscape:cy="710.87172"
     inkscape:document-units="mm"
     inkscape:current-layer="layer1"
     showgrid="false"
     inkscape:window-width="1440"
     inkscape:window-height="837"
     inkscape:window-x="-4"
     inkscape:window-y="-4"
     inkscape:window-maximized="1" />
  <metadata
     id="metadata7">
    <rdf:RDF>
      <cc:Work
         rdf:about="">
        <dc:format>image/svg+xml</dc:format>
        <dc:type
           rdf:resource="http://purl.org/dc/dcmitype/StillImage" />
        <dc:title></dc:title>
      </cc:Work>
    </rdf:RDF>
  </metadata>
  <g
     inkscape:label="Layer 1"
     inkscape:groupmode="layer"
     id="layer1">
    <path
       style="fill:#000000;stroke:#ff0000;stroke-width:0.74960911;stroke-linejoin:round;stroke-miterlimit:4;stroke-dasharray:none"
       d="M 232.3418 324.1582 A 8.4834633 8.4834633 0 0 0 223.9082 331.81055 C 197.82606 334.20066 173.11209 348.81014 158.69531 370.75195 C 142.61097 394.45629 139.241 426.08684 149.92578 452.66016 C 160.42504 479.86104 185.31164 500.73802 213.8125 506.69336 C 246.40452 513.99248 282.59818 500.74291 302.56836 473.9082 C 318.98343 452.71602 325.0705 423.87797 318.04297 397.94531 C 310.78271 368.49976 287.17714 343.8471 258.0918 335.28125 C 252.45548 333.57471 246.64884 332.44658 240.78711 331.88281 A 8.4834633 8.4834633 0 0 0 232.3418 324.1582 z M 232.33984 328.56641 A 2.987638 2.987638 0 0 1 235.32812 331.55469 A 2.987638 2.987638 0 0 1 232.33984 334.54102 A 2.987638 2.987638 0 0 1 229.35352 331.55469 A 2.987638 2.987638 0 0 1 232.33984 328.56641 z M 229.3125 336.86328 C 229.59205 336.85928 229.83103 336.89468 230 336.99609 C 228.52322 340.45817 231.10501 344.32207 230.55469 347.50781 C 228.48836 344.45343 227.13843 340.97897 226.50195 337.37695 C 227.27035 337.258 228.47386 336.87611 229.3125 336.86328 z M 235.42578 336.91992 C 238.11511 337.0548 240.79041 337.42992 243.51367 337.6875 C 242.1687 341.67631 237.76829 343.91031 234.44922 345.4668 C 233.67507 342.83077 232.1414 338.88673 234.87305 336.94141 C 235.05644 336.91651 235.2413 336.92062 235.42578 336.91992 z M 222.61914 337.43945 C 224.20977 340.38461 223.69269 344.04943 226.05664 346.67578 C 229.47917 350.71407 227.9821 356.61726 226.39648 360.72656 C 224.70239 356.77501 221.45055 353.89983 217.9668 351.57031 C 216.65562 350.00489 213.70664 347.67601 216.08203 345.73828 C 218.22149 343.0592 219.94716 339.3907 222.61914 337.43945 z M 247.87891 338.29297 C 250.02422 338.17329 249.38021 339.53205 248.49609 340.75781 C 245.31161 344.86256 245.27634 350.51791 247.1543 355.17578 C 243.82979 353.41726 242.009 349.43329 240.76562 346.16406 C 243.80997 344.2014 245.77174 341.001 247.87891 338.29297 z M 216.60156 338.44727 C 216.74764 338.44927 216.87575 338.4664 216.98047 338.5 C 215.85911 340.30136 214.43129 342.86463 212.75781 343.57227 C 212.31347 342.21031 210.13465 339.43282 212.40039 339.29492 C 213.65476 339.11288 215.57902 338.4335 216.60156 338.44727 z M 255 339.96289 C 255.39221 339.97819 255.81364 340.11554 256.26758 340.41602 C 259.33232 340.53753 257.76645 344.24547 257.89453 346.34766 C 257.05984 351.30776 256.26458 356.9483 252.375 360.50586 C 252.3929 358.63701 251.48729 356.18155 250.74414 354.28125 C 249.7655 350.77085 248.2338 346.60769 251.02148 343.42773 C 252.12749 342.13289 253.30042 339.89665 255 339.96289 z M 207.16211 340.99609 C 210.82585 346.13098 211.93196 353.36217 217.80273 356.68945 C 219.26483 357.61835 220.50317 358.88339 219.92578 360.75781 C 219.29621 366.03117 219.25027 371.84023 216.46875 376.48828 C 215.04116 377.80057 213.39388 378.84734 211.82031 379.97266 C 213.2887 377.29191 214.97694 374.67119 214.05078 371.48633 C 213.88391 366.06891 213.67906 360.34023 210.44727 355.72266 C 208.88315 352.59271 206.35747 349.71648 205.58594 346.30859 C 205.97098 344.51729 206.39434 342.64072 207.16211 340.99609 z M 202.87109 342.27344 C 202.64682 343.70305 202.14672 345.49981 201.41406 343.26953 C 200.82101 342.67837 202.67922 342.40432 202.87109 342.27344 z M 262.20312 342.32812 L 262.6543 342.53125 L 262.81445 342.60156 C 266.36772 344.33091 270.0432 345.86057 273.4375 347.89062 C 269.98258 349.8345 265.5441 351.17914 261.79883 349.50781 C 261.31944 347.14879 261.54088 344.6365 262.20312 342.32812 z M 196.99219 345.06055 C 197.93553 345.10685 198.77442 345.77168 199.73047 347.32227 C 204.12383 352.3178 208.96913 357.98391 209.38281 364.97461 C 209.43041 366.58168 207.36276 364.22036 206.57617 364.00977 C 200.27909 360.11432 196.07873 353.40413 193.625 346.50977 C 195.00034 345.58734 196.04885 345.01426 196.99219 345.06055 z M 189.72461 348.66016 C 189.74151 348.66916 189.75738 348.69489 189.76758 348.74609 C 194.67558 356.03527 198.68015 364.50927 206.48828 369.22461 C 208.92026 370.5722 210.82059 373.2448 209.57422 376.08594 C 207.10238 380.74355 203.60675 385.00681 202.67773 390.35938 C 202.47128 391.29341 202.0994 393.70582 200.96094 392.1875 C 198.49703 388.21594 196.89882 383.61857 193.44727 380.32227 C 194.59575 369.67548 192.71507 358.98245 189.66992 348.80664 C 189.61332 348.75814 189.67391 348.63332 189.72461 348.66016 z M 236.66992 349.00195 L 237.06836 349.29492 L 237.4082 349.54492 C 240.3951 352.52244 242.3962 356.5018 246.16211 358.68945 C 249.13255 360.70857 248.99765 365.54096 246.8457 368 C 242.1339 369.21911 237.44265 370.99219 233.51758 373.92578 C 231.7381 375.27788 232.17489 371.25911 231.52148 370.16602 C 230.87358 366.49529 229.14329 362.74279 230.97461 359.10547 C 232.22932 355.44414 232.6759 350.79689 236.66992 349.00195 z M 277.61133 350.63281 C 278.24169 350.61111 278.84166 350.82991 279.39062 351.48047 C 280.64954 351.953 281.59548 353.34687 279.7832 353.75586 C 275.01872 355.0201 268.90415 353.17904 265.19727 357.34766 C 262.84594 360.20383 258.9698 360.76901 255.97852 362.69922 C 257.94052 360.17373 258.87244 356.85448 261.12695 354.61328 C 264.98704 353.12765 269.42917 354.02431 273.26367 352.22656 C 274.69533 351.89307 276.22454 350.68059 277.61133 350.63281 z M 186.22461 351.2168 C 188.16239 354.13272 188.63972 357.93243 188.25977 361.34961 C 184.94923 360.21407 182.28222 357.73991 179.30078 355.97656 C 181.43634 354.26371 183.71115 352.24524 186.22461 351.2168 z M 284.82031 355.68359 C 285.38808 356.5261 288.82012 357.89157 286.80078 358.49219 C 285.89658 358.85973 283.39499 359.87827 284.14648 357.88086 C 284.33951 357.29441 284.36156 355.75543 284.82031 355.68359 z M 280.72266 357.39648 C 281.17094 360.28165 280.68296 363.92359 279.36133 366.71484 C 275.94893 370.90555 270.21553 371.12309 265.33594 372.0918 C 263.74578 372.27661 261.22873 373.5014 260.13867 372.96484 C 261.56641 370.31779 261.51911 367.2203 261.99414 364.40039 C 265.43088 363.04457 267.72251 359.85335 271.16602 358.61133 C 274.32968 358.11445 277.55152 357.98447 280.72266 357.39648 z M 176.13086 359.02344 C 176.8186 359.09944 177.56517 359.70743 178.56445 360.25977 C 182.44408 362.6989 186.91688 365.02919 189.44141 368.96875 C 190.09421 371.74879 190.14123 374.83936 189.05273 377.51172 C 186.26866 376.41484 183.08301 375.75564 180.58984 374.18164 C 178.5765 369.53374 176.89963 364.71637 174.42969 360.26367 C 174.92794 359.43525 175.37689 359.08565 175.83984 359.02539 C 175.93634 359.01279 176.03261 359.01264 176.13086 359.02344 z M 290.13867 360.38281 C 290.67857 360.45691 291.05624 361.36257 291.57812 361.66211 C 292.89855 362.52637 292.72303 363.29032 291.2207 363.76758 C 287.30191 365.79828 283.48059 368.10536 280.29883 371.19727 C 282.32932 368.86692 283.99244 366.13838 284.32227 363.04688 C 285.67601 361.86721 287.97039 361.72941 289.5332 360.63867 C 289.76039 360.42544 289.95871 360.35812 290.13867 360.38281 z M 223.51172 363.37305 L 223.7168 363.69141 C 227.72204 369.4671 225.4858 376.80146 227.59766 383.1582 C 228.66424 388.84721 228.01059 394.92616 225.54297 400.18555 C 224.43777 402.95136 223.65704 407.2163 220 407.37305 C 217.07118 407.65912 213.61103 408.86072 211.59375 406.02734 C 208.47206 403.97186 206.00393 400.40132 207.20312 396.50391 C 208.00501 393.46816 207.5979 389.74833 209.75391 387.26758 C 213.12955 384.11143 218.04361 382.32191 220.92383 378.56836 C 222.6674 373.70527 223.00641 368.47265 223.51172 363.37305 z M 171.25586 363.55859 L 172.49023 365.19141 C 174.01927 367.53719 176.03833 370.48772 176.00391 373.16992 C 172.5182 374.04732 170.85503 370.03535 168.98047 367.91602 C 167.45073 366.21323 170.69629 364.96112 171.25586 363.55859 z M 295.91797 366.61719 C 296.47511 367.54583 294.7157 369.13391 294.4043 370.21289 C 292.56513 373.58437 289.62983 376.81821 290.22461 380.96484 C 289.98893 385.75229 286.99093 390.15217 283.54883 393.30469 C 282.31628 392.86144 282.45045 390.58939 281.2793 389.71875 C 279.16128 388.27666 276.76485 386.503 277.20898 383.55078 C 277.36305 376.942 283.24668 372.58087 288.32617 369.37305 C 290.69338 368.13786 293.25873 366.97873 295.91797 366.61719 z M 257.23242 367.16016 C 256.56544 375.62895 251.52357 383.11348 246.19141 389.45117 C 243.20047 392.43445 240.13692 395.78514 236.27148 397.56445 C 233.17462 397.80885 234.55848 393.64353 234.41016 391.87109 C 234.70561 385.79322 235.90393 378.10732 242.16992 375.37305 C 246.17937 374.24883 249.68584 372.03547 252.93164 369.47852 C 254.3058 368.61704 255.71308 367.70319 257.23242 367.16016 z M 298.49609 369.72266 C 299.89979 370.68517 296.97489 370.53601 298.49609 369.72266 z M 165.43164 370.69141 C 168.58293 372.57825 171.9322 375.65807 171.4082 379.73438 C 171.29837 384.65605 173.49779 389.23474 175.57227 393.45117 C 176.95208 396.63169 173.28729 399.8814 170.28125 398.0625 C 168.78749 395.76149 169.60292 392.52688 168.92969 389.89062 C 168.29952 384.14335 165.89004 378.82068 163.28516 373.73047 C 163.9963 372.74238 164.47009 371.46525 165.43164 370.69141 z M 300.07422 373.76367 C 302.55532 373.92768 303.20065 377.20975 304.68359 379.06836 C 301.80734 380.03765 297.62783 381.37639 294.43359 381.73047 C 293.52768 379.04921 294.69743 375.29586 296.76172 373.80273 C 297.47121 373.83433 298.18114 373.86674 298.89062 373.89844 C 299.32785 373.78137 299.71978 373.74024 300.07422 373.76367 z M 270.99023 374.82227 L 270.7793 374.99805 C 265.79026 378.15726 264.02771 384.15171 259.82812 388.07617 C 258.40686 389.80533 257.91326 392.40626 255.35938 392.97266 C 253.78457 393.06666 251.47523 393.7608 250.25586 393.28711 C 252.92524 386.50794 257.13247 379.59147 264.10352 376.58984 C 266.25498 375.52701 268.62259 375.07326 270.99023 374.82227 z M 174.8457 377.20703 L 175.95898 377.20703 C 181.6232 377.84976 187.19723 380.81916 190.85547 385.18555 C 191.5694 386.20583 192.0476 387.30247 190.38086 387.12305 C 186.59553 387.52215 183.98391 390.55108 180.74414 392.05078 C 178.60089 392.11698 178.1381 389.04512 177.20898 387.59961 C 175.89534 384.2965 174.72629 380.80708 174.8457 377.20703 z M 160.8457 377.99219 C 162.46747 379.90875 163.8758 382.76264 164.17578 384.94531 C 162.232 383.78717 159.56662 383.60594 157.67383 383.36328 C 158.59827 381.60393 159.6841 379.01216 160.8457 377.99219 z M 273.55273 379.9668 C 274.14614 383.20298 272.40288 387.14949 275.50586 389.40039 C 277.89034 391.8033 280.54794 395.57677 277.79102 398.76172 C 275.28476 402.49739 271.03674 405.48476 270.89453 410.39258 C 270.33056 414.18406 265.72824 414.67084 262.92969 416.19531 C 261.16378 416.87751 259.17826 417.7049 257.50586 418.18359 C 260.99594 412.54116 263.70872 406.13885 263.30469 399.36914 C 263.58278 395.38357 262.90213 390.7077 266.03125 387.5957 C 267.79412 384.38774 269.70409 380.70992 273.55273 379.9668 z M 305.89062 383.45508 C 306.23832 383.44808 306.58789 383.44984 306.9375 383.46484 L 308.07422 385.84375 C 310.41913 388.48543 307.81024 391.27946 306.50977 393.78906 C 304.24552 397.23571 300.20137 400.74064 295.78711 399.04297 C 290.85555 397.61557 286.07072 399.83489 281.6543 401.77734 C 280.11488 402.2597 283.69508 399.66362 284.29297 398.94531 C 287.65632 396.52392 289.9172 393.06221 291.98242 389.56836 C 295.70937 385.99378 300.67526 383.5563 305.89062 383.45508 z M 159.20508 387.4082 C 162.22152 387.4254 166.06908 389.46234 165.56055 392.90039 C 165.78599 394.55075 165.52075 396.76137 163.22461 396.38086 C 159.71358 396.74794 156.10813 397.11729 152.57812 396.78906 C 153.45747 393.72124 154.30813 390.24036 155.99219 387.6543 C 156.85123 387.46239 157.73872 387.44112 158.61523 387.43164 C 158.80741 387.41464 159.00398 387.407 159.20508 387.4082 z M 190.875 391.08789 L 191.08398 391.08984 C 196.3211 391.74547 197.61687 397.79056 200.02734 401.54102 C 202.81786 405.89332 204.02849 411.57306 208.19727 414.9082 C 212.25918 417.2394 217.55134 418.39543 219.60352 423.15039 C 220.36203 424.72945 220.96107 427.09676 220.20508 428.56641 C 213.06806 425.80557 206.02263 421.53642 198.13867 421.64258 C 193.94053 422.17111 189.05988 423.71833 185.21094 421.31055 C 182.95176 418.90739 179.95435 416.55886 180.61914 412.88867 C 180.29364 407.32363 179.99068 401.76971 179.96875 396.19531 C 183.97613 395.28938 186.91272 391.92934 190.875 391.08789 z M 310.95117 393.03711 L 311.34766 394.25391 C 311.44536 396.03147 314.23872 399.29193 311.23438 399.47266 C 309.59882 399.80408 306.7473 400.62286 305.87695 400.21875 C 307.82383 398.0168 309.51134 395.59779 310.95117 393.03711 z M 258.54688 396.80078 L 258.71875 398.4707 C 259.68406 406.96171 253.53782 413.98791 250.40234 421.39062 C 248.87224 425.59364 244.84585 427.83022 241.7168 430.66211 C 239.57157 430.06514 239.0507 427.06416 238.03516 425.30859 C 236.0893 420.37992 233.90611 414.76321 236.54688 409.74023 C 237.852 404.91308 241.53096 401.14374 246.16797 399.39648 C 249.98089 397.485 254.40558 397.61391 258.54688 396.80078 z M 159.9375 400.68164 C 164.1189 401.42645 168.42227 401.98219 172.57617 402.55078 C 176.63022 403.92248 176.30258 408.88879 175.9375 412.32031 C 175.9144 414.08119 175.9285 415.87199 176.40234 417.58203 C 172.62415 417.36128 168.66008 417.45465 164.98242 417.82812 C 161.85882 415.28636 157.17966 415.04019 154.84961 411.39062 C 152.84927 408.87246 149.76565 405.63212 151.09375 402.17773 C 154.02065 401.33271 156.91321 400.80784 159.9375 400.68164 z M 291.9082 402.9082 C 297.11511 402.8707 302.07959 404.70569 307.19531 405.38672 C 310.05859 406.94036 313.08273 408.84523 315.02344 411.4707 C 314.89494 415.00117 316.67974 419.11237 313.64648 421.92188 C 311.98084 423.87306 310.31948 427.37708 307.21484 425.95508 C 303.21614 425.28641 299.54676 423.29254 295.94727 421.61523 C 292.72249 418.82267 290.03679 414.62001 285.32617 414.39844 C 282.13695 413.38938 278.35677 414.09907 275.49609 412.30273 C 274.01561 409.23544 277.73101 407.03366 280.34375 406.78125 C 284.35635 405.94997 287.74073 402.91895 291.9082 402.9082 z M 313.53125 403.06641 C 313.6465 403.03951 313.73596 403.05161 313.70508 403.24023 C 313.90532 404.24197 314.70602 406.37563 313.14648 404.77344 C 311.7935 404.02574 311.06199 403.18954 313.20312 403.13281 C 313.27533 403.16001 313.416 403.09331 313.53125 403.06641 z M 149.55078 411.91016 L 149.58789 411.95312 C 153.07287 415.77976 158.13879 418.10245 161.54688 421.80078 C 158.65598 425.07755 153.65601 427.10763 149.62891 424.64648 C 148.32298 420.5853 149.58038 416.09016 149.55078 411.91016 z M 273.90234 417.66797 C 278.41884 417.93357 283.20694 418.52331 287.41016 419.83789 C 293.54589 427.78826 305.16957 429.31785 310.22461 438.22656 C 311.43516 440.43922 313.3995 442.82331 311.51953 445.33594 C 304.67218 466.11284 289.65445 484.49475 269.81641 494.0625 C 263.93383 495.3696 257.20527 494.28183 252.875 489.75391 C 249.35609 486.4037 245.59017 482.81312 244.95508 477.70898 C 243.57693 473.48996 241.98431 469.17422 242.29883 464.72266 C 242.40212 455.39761 243.14302 445.82724 246.27539 436.94141 C 248.4912 432.37171 252.63804 428.89855 256.87109 426.34961 C 261.85846 423.11355 266.30704 418.01694 272.66992 417.7207 C 273.07992 417.6877 273.49105 417.67187 273.90234 417.66797 z M 170.65234 421.7832 C 177.78347 423.09043 184.03833 428.23555 191.49805 428.29102 C 195.79416 427.80731 200.06397 425.27384 204.40039 427.17773 C 211.74722 429.61535 218.06461 434.37062 223.63281 439.51367 C 227.72126 448.93048 227.65736 459.42047 225.09766 469.23242 C 223.612 475.24516 224.52971 482.7417 219.12891 487.00977 C 212.22232 493.13449 202.19091 493.72548 193.49414 492.24023 C 184.96485 490.02865 178.44829 483.5078 172.33789 477.57812 C 165.13606 469.78987 158.71785 460.80628 155.30664 450.64844 C 155.86057 445.973 157.15323 441.10295 159.51562 436.97266 C 161.67691 435.80428 164.00821 434.50269 164.73633 431.9375 C 166.47247 428.55834 166.62788 423.96339 169.99414 421.82617 C 170.2104 421.78407 170.43236 421.7699 170.65234 421.7832 z M 161.55273 427.66992 L 161.5293 427.80469 C 160.8067 432.95041 154.75452 434.38767 150.44922 434.67383 C 150.53582 433.08591 149.06687 430.19414 150.11328 429.44336 C 154.01023 429.62207 157.93549 429.19005 161.55273 427.66992 z M 314.0957 429.72461 C 315.84772 429.55781 314.0817 432.31883 314.31641 433.4375 C 314.12971 435.4126 313.86928 437.63003 312.61133 434.77344 C 311.85902 433.31045 310.29939 431.76767 310.0918 430.32617 C 311.21822 429.84091 312.48896 429.81842 313.69727 429.79883 C 313.84698 429.76033 313.9789 429.73571 314.0957 429.72461 z M 153.93945 438.31055 C 155.54308 438.41941 153.25895 441.11491 153.16406 442.15234 C 152.19963 445.27224 151.92009 440.15222 151.33984 439.01953 C 150.91901 438.08363 153.43728 438.50798 153.93945 438.31055 z "
       id="path4702" />
  </g>
</svg>
