  0
SECTION
  2
HEADER
  9
$ACADVER
  1
AC1014
  9
$HANDSEED
  5
FFFF
  9
$MEASUREMENT
 70
     1
  0
ENDSEC
  0
SECTION
  2
TABLES
  0
TABLE
  2
VPORT
  5
8
330
0
100
AcDbSymbolTable
 70
     4
  0
VPORT
  5
2E
330
8
100
AcDbSymbolTableRecord
100
AcDbViewportTableRecord
  2
*ACTIVE
 70
     0
 10
0.0
 20
0.0
 11
1.0
 21
1.0
 12
210.0
 22
148.5
 13
0.0
 23
0.0
 14
10.0
 24
10.0
 15
10.0
 25
10.0
 16
0.0
 26
0.0
 36
1.0
 17
0.0
 27
0.0
 37
0.0
 40
341.0
 41
1.24
 42
50.0
 43
0.0
 44
0.0
 50
0.0
 51
0.0
 71
     0
 72
   100
 73
     1
 74
     3
 75
     0
 76
     0
 77
     0
 78
     0
  0
ENDTAB
  0
TABLE
  2
LTYPE
  5
5
330
0
100
AcDbSymbolTable
 70
     1
  0
LTYPE
  5
14
330
5
100
AcDbSymbolTableRecord
100
AcDbLinetypeTableRecord
  2
BYBLOCK
 70
     0
  3

 72
    65
 73
     0
 40
0.0
  0
LTYPE
  5
15
330
5
100
AcDbSymbolTableRecord
100
AcDbLinetypeTableRecord
  2
BYLAYER
 70
     0
  3

 72
    65
 73
     0
 40
0.0
  0
LTYPE
  5
16
330
5
100
AcDbSymbolTableRecord
100
AcDbLinetypeTableRecord
  2
CONTINUOUS
 70
     0
  3
Solid line
 72
    65
 73
     0
 40
0.0
  0
ENDTAB
  0
TABLE
  2
LAYER
  5
2
100
AcDbSymbolTable
 70
2
  0
LAYER
  5
50
100
AcDbSymbolTableRecord
100
AcDbLayerTableRecord
  2
0
 70
0
  6
CONTINUOUS
  0
LAYER
  5
51
100
AcDbSymbolTableRecord
100
AcDbLayerTableRecord
  2
Layer_1
 70
0
  6
CONTINUOUS
  0
ENDTAB
  0
TABLE
  2
STYLE
  5
3
330
0
100
AcDbSymbolTable
 70
     1
  0
STYLE
  5
11
330
3
100
AcDbSymbolTableRecord
100
AcDbTextStyleTableRecord
  2
STANDARD
 70
     0
 40
0.0
 41
1.0
 50
0.0
 71
     0
 42
2.5
  3
txt
  4

  0
ENDTAB
  0
TABLE
  2
VIEW
  5
6
330
0
100
AcDbSymbolTable
 70
     0
  0
ENDTAB
  0
TABLE
  2
UCS
  5
7
330
0
100
AcDbSymbolTable
 70
     0
  0
ENDTAB
  0
TABLE
  2
APPID
  5
9
330
0
100
AcDbSymbolTable
 70
     2
  0
APPID
  5
12
330
9
100
AcDbSymbolTableRecord
100
AcDbRegAppTableRecord
  2
ACAD
 70
     0
  0
ENDTAB
  0
TABLE
  2
DIMSTYLE
  5
A
330
0
100
AcDbSymbolTable
 70
     1
  0
DIMSTYLE
105
27
330
A
100
AcDbSymbolTableRecord
100
AcDbDimStyleTableRecord
  2
ISO-25
 70
     0
  3

  4

  5

  6

  7

 40
1.0
 41
2.5
 42
0.625
 43
3.75
 44
1.25
 45
0.0
 46
0.0
 47
0.0
 48
0.0
140
2.5
141
2.5
142
0.0
143
0.03937007874016
144
1.0
145
0.0
146
1.0
147
0.625
 71
     0
 72
     0
 73
     0
 74
     0
 75
     0
 76
     0
 77
     1
 78
     8
170
     0
171
     3
172
     1
173
     0
174
     0
175
     0
176
     0
177
     0
178
     0
270
     2
271
     2
272
     2
273
     2
274
     3
340
11
275
     0
280
     0
281
     0
282
     0
283
     0
284
     8
285
     0
286
     0
287
     3
288
     0
  0
ENDTAB
  0
TABLE
  2
BLOCK_RECORD
  5
1
330
0
100
AcDbSymbolTable
 70
     1
  0
BLOCK_RECORD
  5
1F
330
1
100
AcDbSymbolTableRecord
100
AcDbBlockTableRecord
  2
*MODEL_SPACE
  0
BLOCK_RECORD
  5
1B
330
1
100
AcDbSymbolTableRecord
100
AcDbBlockTableRecord
  2
*PAPER_SPACE
  0
ENDTAB
  0
ENDSEC
  0
SECTION
  2
BLOCKS
  0
BLOCK
  5
20
330
1F
100
AcDbEntity
  8
0
100
AcDbBlockBegin
  2
*MODEL_SPACE
 70
     0
 10
0.0
 20
0.0
 30
0.0
  3
*MODEL_SPACE
  1

  0
ENDBLK
  5
21
330
1F
100
AcDbEntity
  8
0
100
AcDbBlockEnd
  0
BLOCK
  5
1C
330
1B
100
AcDbEntity
 67
     1
  8
0
100
AcDbBlockBegin
  2
*PAPER_SPACE
  1

  0
ENDBLK
  5
1D
330
1B
100
AcDbEntity
 67
     1
  8
0
100
AcDbBlockEnd
  0
ENDSEC
  0
SECTION
  2
ENTITIES
  0
SPLINE
  5
100
100
AcDbEntity
  8
Layer_1
 62
1
100
AcDbSpline
 70
8
 71
3
 72
8
 73
4
 74
0
 40
0
 40
0
 40
0
 40
0
 40
1
 40
1
 40
1
 40
1
 10
65.572019
 20
205.515352
 30
0.0
 10
64.341549
 20
205.514039
 30
0.0
 10
63.312417
 20
204.580241
 30
0.0
 10
63.191870
 20
203.355689
 30
0.0
  0
SPLINE
  5
101
100
AcDbEntity
  8
Layer_1
 62
1
100
AcDbSpline
 70
8
 71
3
 72
8
 73
4
 74
0
 40
0
 40
0
 40
0
 40
0
 40
1
 40
1
 40
1
 40
1
 10
63.191870
 20
203.355689
 30
0.0
 10
55.830910
 20
202.681147
 30
0.0
 10
48.856079
 20
198.558027
 30
0.0
 10
44.787343
 20
192.365561
 30
0.0
  0
SPLINE
  5
102
100
AcDbEntity
  8
Layer_1
 62
1
100
AcDbSpline
 70
8
 71
3
 72
8
 73
4
 74
0
 40
0
 40
0
 40
0
 40
0
 40
1
 40
1
 40
1
 40
1
 10
44.787343
 20
192.365561
 30
0.0
 10
40.247985
 20
185.675669
 30
0.0
 10
39.296904
 20
176.748825
 30
0.0
 10
42.312387
 20
169.249244
 30
0.0
  0
SPLINE
  5
103
100
AcDbEntity
  8
Layer_1
 62
1
100
AcDbSpline
 70
8
 71
3
 72
8
 73
4
 74
0
 40
0
 40
0
 40
0
 40
0
 40
1
 40
1
 40
1
 40
1
 10
42.312387
 20
169.249244
 30
0.0
 10
45.275511
 20
161.572551
 30
0.0
 10
52.299063
 20
155.680603
 30
0.0
 10
60.342639
 20
153.999874
 30
0.0
  0
SPLINE
  5
104
100
AcDbEntity
  8
Layer_1
 62
1
100
AcDbSpline
 70
8
 71
3
 72
8
 73
4
 74
0
 40
0
 40
0
 40
0
 40
0
 40
1
 40
1
 40
1
 40
1
 10
60.342639
 20
153.999874
 30
0.0
 10
69.540831
 20
151.939900
 30
0.0
 10
79.755486
 20
155.679223
 30
0.0
 10
85.391515
 20
163.252575
 30
0.0
  0
SPLINE
  5
105
100
AcDbEntity
  8
Layer_1
 62
1
100
AcDbSpline
 70
8
 71
3
 72
8
 73
4
 74
0
 40
0
 40
0
 40
0
 40
0
 40
1
 40
1
 40
1
 40
1
 10
85.391515
 20
163.252575
 30
0.0
 10
90.024212
 20
169.233479
 30
0.0
 10
91.742119
 20
177.372217
 30
0.0
 10
89.758794
 20
184.690990
 30
0.0
  0
SPLINE
  5
106
100
AcDbEntity
  8
Layer_1
 62
1
100
AcDbSpline
 70
8
 71
3
 72
8
 73
4
 74
0
 40
0
 40
0
 40
0
 40
0
 40
1
 40
1
 40
1
 40
1
 10
89.758794
 20
184.690990
 30
0.0
 10
87.709787
 20
193.001179
 30
0.0
 10
81.047771
 20
199.958707
 30
0.0
 10
72.839241
 20
202.376181
 30
0.0
  0
SPLINE
  5
107
100
AcDbEntity
  8
Layer_1
 62
1
100
AcDbSpline
 70
8
 71
3
 72
8
 73
4
 74
0
 40
0
 40
0
 40
0
 40
0
 40
1
 40
1
 40
1
 40
1
 10
72.839241
 20
202.376181
 30
0.0
 10
71.248547
 20
202.857804
 30
0.0
 10
69.609784
 20
203.176187
 30
0.0
 10
67.955473
 20
203.335296
 30
0.0
  0
SPLINE
  5
108
100
AcDbEntity
  8
Layer_1
 62
1
100
AcDbSpline
 70
8
 71
3
 72
8
 73
4
 74
0
 40
0
 40
0
 40
0
 40
0
 40
1
 40
1
 40
1
 40
1
 10
67.955473
 20
203.335296
 30
0.0
 10
67.844657
 20
204.569180
 30
0.0
 10
66.810870
 20
205.514747
 30
0.0
 10
65.572019
 20
205.515352
 30
0.0
  0
SPLINE
  5
109
100
AcDbEntity
  8
Layer_1
 62
1
100
AcDbSpline
 70
8
 71
3
 72
8
 73
4
 74
0
 40
0
 40
0
 40
0
 40
0
 40
1
 40
1
 40
1
 40
1
 10
65.571466
 20
204.271258
 30
0.0
 10
65.795153
 20
204.271306
 30
0.0
 10
66.009693
 20
204.182467
 30
0.0
 10
66.167864
 20
204.024297
 30
0.0
  0
SPLINE
  5
10a
100
AcDbEntity
  8
Layer_1
 62
1
100
AcDbSpline
 70
8
 71
3
 72
8
 73
4
 74
0
 40
0
 40
0
 40
0
 40
0
 40
1
 40
1
 40
1
 40
1
 10
66.167864
 20
204.024297
 30
0.0
 10
66.326035
 20
203.866126
 30
0.0
 10
66.414873
 20
203.651586
 30
0.0
 10
66.414825
 20
203.427899
 30
0.0
  0
SPLINE
  5
10b
100
AcDbEntity
  8
Layer_1
 62
1
100
AcDbSpline
 70
8
 71
3
 72
8
 73
4
 74
0
 40
0
 40
0
 40
0
 40
0
 40
1
 40
1
 40
1
 40
1
 10
66.414825
 20
203.427899
 30
0.0
 10
66.414621
 20
202.962298
 30
0.0
 10
66.037067
 20
202.584990
 30
0.0
 10
65.571466
 20
202.585090
 30
0.0
  0
SPLINE
  5
10c
100
AcDbEntity
  8
Layer_1
 62
1
100
AcDbSpline
 70
8
 71
3
 72
8
 73
4
 74
0
 40
0
 40
0
 40
0
 40
0
 40
1
 40
1
 40
1
 40
1
 10
65.571466
 20
202.585090
 30
0.0
 10
65.106081
 20
202.585295
 30
0.0
 10
64.728864
 20
202.962514
 30
0.0
 10
64.728660
 20
203.427899
 30
0.0
  0
SPLINE
  5
10d
100
AcDbEntity
  8
Layer_1
 62
1
100
AcDbSpline
 70
8
 71
3
 72
8
 73
4
 74
0
 40
0
 40
0
 40
0
 40
0
 40
1
 40
1
 40
1
 40
1
 10
64.728660
 20
203.427899
 30
0.0
 10
64.728560
 20
203.893498
 30
0.0
 10
65.105866
 20
204.271052
 30
0.0
 10
65.571466
 20
204.271258
 30
0.0
  0
LWPOLYLINE
  5
10e
100
AcDbEntity
  8
Layer_1
 62
1
100
AcDbPolyline
 90
2
 70
0
 10
65.572019
 20
205.515352
 30
0.0
 10
65.572019
 20
205.515352
 30
0.0
  0
SPLINE
  5
10f
100
AcDbEntity
  8
Layer_1
 62
1
100
AcDbSpline
 70
8
 71
3
 72
8
 73
4
 74
0
 40
0
 40
0
 40
0
 40
0
 40
1
 40
1
 40
1
 40
1
 10
64.717083
 20
201.929697
 30
0.0
 10
64.795979
 20
201.930825
 30
0.0
 10
64.863424
 20
201.920835
 30
0.0
 10
64.911111
 20
201.892215
 30
0.0
  0
SPLINE
  5
110
100
AcDbEntity
  8
Layer_1
 62
1
100
AcDbSpline
 70
8
 71
3
 72
8
 73
4
 74
0
 40
0
 40
0
 40
0
 40
0
 40
1
 40
1
 40
1
 40
1
 10
64.911111
 20
201.892215
 30
0.0
 10
64.494331
 20
200.915139
 30
0.0
 10
65.222969
 20
199.824660
 30
0.0
 10
65.067657
 20
198.925574
 30
0.0
  0
SPLINE
  5
111
100
AcDbEntity
  8
Layer_1
 62
1
100
AcDbSpline
 70
8
 71
3
 72
8
 73
4
 74
0
 40
0
 40
0
 40
0
 40
0
 40
1
 40
1
 40
1
 40
1
 10
65.067657
 20
198.925574
 30
0.0
 10
64.484493
 20
199.787588
 30
0.0
 10
64.103512
 20
200.768157
 30
0.0
 10
63.923884
 20
201.784727
 30
0.0
  0
SPLINE
  5
112
100
AcDbEntity
  8
Layer_1
 62
1
100
AcDbSpline
 70
8
 71
3
 72
8
 73
4
 74
0
 40
0
 40
0
 40
0
 40
0
 40
1
 40
1
 40
1
 40
1
 10
63.923884
 20
201.784727
 30
0.0
 10
64.140743
 20
201.818298
 30
0.0
 10
64.480400
 20
201.926076
 30
0.0
 10
64.717083
 20
201.929697
 30
0.0
  0
LWPOLYLINE
  5
113
100
AcDbEntity
  8
Layer_1
 62
1
100
AcDbPolyline
 90
2
 70
0
 10
65.571466
 20
204.271258
 30
0.0
 10
65.571466
 20
204.271258
 30
0.0
  0
SPLINE
  5
114
100
AcDbEntity
  8
Layer_1
 62
1
100
AcDbSpline
 70
8
 71
3
 72
8
 73
4
 74
0
 40
0
 40
0
 40
0
 40
0
 40
1
 40
1
 40
1
 40
1
 10
66.442387
 20
201.913711
 30
0.0
 10
67.201375
 20
201.875645
 30
0.0
 10
67.956405
 20
201.769778
 30
0.0
 10
68.724969
 20
201.697083
 30
0.0
  0
SPLINE
  5
115
100
AcDbEntity
  8
Layer_1
 62
1
100
AcDbSpline
 70
8
 71
3
 72
8
 73
4
 74
0
 40
0
 40
0
 40
0
 40
0
 40
1
 40
1
 40
1
 40
1
 10
68.724969
 20
201.697083
 30
0.0
 10
68.345389
 20
200.571353
 30
0.0
 10
67.103495
 20
199.940868
 30
0.0
 10
66.166780
 20
199.501592
 30
0.0
  0
SPLINE
  5
116
100
AcDbEntity
  8
Layer_1
 62
1
100
AcDbSpline
 70
8
 71
3
 72
8
 73
4
 74
0
 40
0
 40
0
 40
0
 40
0
 40
1
 40
1
 40
1
 40
1
 10
66.166780
 20
199.501592
 30
0.0
 10
65.948298
 20
200.245538
 30
0.0
 10
65.515462
 20
201.358634
 30
0.0
 10
66.286394
 20
201.907647
 30
0.0
  0
SPLINE
  5
117
100
AcDbEntity
  8
Layer_1
 62
1
100
AcDbSpline
 70
8
 71
3
 72
8
 73
4
 74
0
 40
0
 40
0
 40
0
 40
0
 40
1
 40
1
 40
1
 40
1
 10
66.286394
 20
201.907647
 30
0.0
 10
66.338151
 20
201.914674
 30
0.0
 10
66.390322
 20
201.913514
 30
0.0
 10
66.442387
 20
201.913711
 30
0.0
  0
LWPOLYLINE
  5
118
100
AcDbEntity
  8
Layer_1
 62
1
100
AcDbPolyline
 90
2
 70
0
 10
64.717083
 20
201.929697
 30
0.0
 10
64.717083
 20
201.929697
 30
0.0
  0
SPLINE
  5
119
100
AcDbEntity
  8
Layer_1
 62
1
100
AcDbSpline
 70
8
 71
3
 72
8
 73
4
 74
0
 40
0
 40
0
 40
0
 40
0
 40
1
 40
1
 40
1
 40
1
 10
62.828068
 20
201.767089
 30
0.0
 10
63.276980
 20
200.935899
 30
0.0
 10
63.131048
 20
199.901605
 30
0.0
 10
63.798207
 20
199.160391
 30
0.0
  0
SPLINE
  5
11a
100
AcDbEntity
  8
Layer_1
 62
1
100
AcDbSpline
 70
8
 71
3
 72
8
 73
4
 74
0
 40
0
 40
0
 40
0
 40
0
 40
1
 40
1
 40
1
 40
1
 10
63.798207
 20
199.160391
 30
0.0
 10
64.764121
 20
198.020696
 30
0.0
 10
64.341615
 20
196.354684
 30
0.0
 10
63.894118
 20
195.194949
 30
0.0
  0
SPLINE
  5
11b
100
AcDbEntity
  8
Layer_1
 62
1
100
AcDbSpline
 70
8
 71
3
 72
8
 73
4
 74
0
 40
0
 40
0
 40
0
 40
0
 40
1
 40
1
 40
1
 40
1
 10
63.894118
 20
195.194949
 30
0.0
 10
63.416008
 20
196.310164
 30
0.0
 10
62.498266
 20
197.121604
 30
0.0
 10
61.515075
 20
197.779046
 30
0.0
  0
SPLINE
  5
11c
100
AcDbEntity
  8
Layer_1
 62
1
100
AcDbSpline
 70
8
 71
3
 72
8
 73
4
 74
0
 40
0
 40
0
 40
0
 40
0
 40
1
 40
1
 40
1
 40
1
 10
61.515075
 20
197.779046
 30
0.0
 10
61.145031
 20
198.220842
 30
0.0
 10
60.312763
 20
198.878104
 30
0.0
 10
60.983151
 20
199.424974
 30
0.0
  0
SPLINE
  5
11d
100
AcDbEntity
  8
Layer_1
 62
1
100
AcDbSpline
 70
8
 71
3
 72
8
 73
4
 74
0
 40
0
 40
0
 40
0
 40
0
 40
1
 40
1
 40
1
 40
1
 10
60.983151
 20
199.424974
 30
0.0
 10
61.586954
 20
200.181070
 30
0.0
 10
62.073976
 20
201.216402
 30
0.0
 10
62.828068
 20
201.767089
 30
0.0
  0
LWPOLYLINE
  5
11e
100
AcDbEntity
  8
Layer_1
 62
1
100
AcDbPolyline
 90
2
 70
0
 10
66.442387
 20
201.913711
 30
0.0
 10
66.442387
 20
201.913711
 30
0.0
  0
SPLINE
  5
11f
100
AcDbEntity
  8
Layer_1
 62
1
100
AcDbSpline
 70
8
 71
3
 72
8
 73
4
 74
0
 40
0
 40
0
 40
0
 40
0
 40
1
 40
1
 40
1
 40
1
 10
69.956937
 20
201.526206
 30
0.0
 10
70.562391
 20
201.559983
 30
0.0
 10
70.380637
 20
201.176510
 30
0.0
 10
70.131119
 20
200.830574
 30
0.0
  0
SPLINE
  5
120
100
AcDbEntity
  8
Layer_1
 62
1
100
AcDbSpline
 70
8
 71
3
 72
8
 73
4
 74
0
 40
0
 40
0
 40
0
 40
0
 40
1
 40
1
 40
1
 40
1
 10
70.131119
 20
200.830574
 30
0.0
 10
69.232388
 20
199.672122
 30
0.0
 10
69.222434
 20
198.076057
 30
0.0
 10
69.752436
 20
196.761502
 30
0.0
  0
SPLINE
  5
121
100
AcDbEntity
  8
Layer_1
 62
1
100
AcDbSpline
 70
8
 71
3
 72
8
 73
4
 74
0
 40
0
 40
0
 40
0
 40
0
 40
1
 40
1
 40
1
 40
1
 10
69.752436
 20
196.761502
 30
0.0
 10
68.814185
 20
197.257796
 30
0.0
 10
68.300318
 20
198.382160
 30
0.0
 10
67.949408
 20
199.304810
 30
0.0
  0
SPLINE
  5
122
100
AcDbEntity
  8
Layer_1
 62
1
100
AcDbSpline
 70
8
 71
3
 72
8
 73
4
 74
0
 40
0
 40
0
 40
0
 40
0
 40
1
 40
1
 40
1
 40
1
 10
67.949408
 20
199.304810
 30
0.0
 10
68.808592
 20
199.858716
 30
0.0
 10
69.362247
 20
200.761940
 30
0.0
 10
69.956937
 20
201.526206
 30
0.0
  0
LWPOLYLINE
  5
123
100
AcDbEntity
  8
Layer_1
 62
1
100
AcDbPolyline
 90
2
 70
0
 10
62.828068
 20
201.767089
 30
0.0
 10
62.828068
 20
201.767089
 30
0.0
  0
SPLINE
  5
124
100
AcDbEntity
  8
Layer_1
 62
1
100
AcDbSpline
 70
8
 71
3
 72
8
 73
4
 74
0
 40
0
 40
0
 40
0
 40
0
 40
1
 40
1
 40
1
 40
1
 10
61.129774
 20
201.482659
 30
0.0
 10
61.171001
 20
201.482095
 30
0.0
 10
61.207156
 20
201.477260
 30
0.0
 10
61.236710
 20
201.467778
 30
0.0
  0
SPLINE
  5
125
100
AcDbEntity
  8
Layer_1
 62
1
100
AcDbSpline
 70
8
 71
3
 72
8
 73
4
 74
0
 40
0
 40
0
 40
0
 40
0
 40
1
 40
1
 40
1
 40
1
 10
61.236710
 20
201.467778
 30
0.0
 10
60.920238
 20
200.959394
 30
0.0
 10
60.517275
 20
200.235982
 30
0.0
 10
60.044982
 20
200.036270
 30
0.0
  0
SPLINE
  5
126
100
AcDbEntity
  8
Layer_1
 62
1
100
AcDbSpline
 70
8
 71
3
 72
8
 73
4
 74
0
 40
0
 40
0
 40
0
 40
0
 40
1
 40
1
 40
1
 40
1
 10
60.044982
 20
200.036270
 30
0.0
 10
59.919579
 20
200.420646
 30
0.0
 10
59.304668
 20
201.204515
 30
0.0
 10
59.944110
 20
201.243434
 30
0.0
  0
SPLINE
  5
127
100
AcDbEntity
  8
Layer_1
 62
1
100
AcDbSpline
 70
8
 71
3
 72
8
 73
4
 74
0
 40
0
 40
0
 40
0
 40
0
 40
1
 40
1
 40
1
 40
1
 10
59.944110
 20
201.243434
 30
0.0
 10
60.298121
 20
201.294809
 30
0.0
 10
60.841190
 20
201.486546
 30
0.0
 10
61.129774
 20
201.482659
 30
0.0
  0
LWPOLYLINE
  5
128
100
AcDbEntity
  8
Layer_1
 62
1
100
AcDbPolyline
 90
2
 70
0
 10
69.956937
 20
201.526206
 30
0.0
 10
69.956937
 20
201.526206
 30
0.0
  0
SPLINE
  5
129
100
AcDbEntity
  8
Layer_1
 62
1
100
AcDbSpline
 70
8
 71
3
 72
8
 73
4
 74
0
 40
0
 40
0
 40
0
 40
0
 40
1
 40
1
 40
1
 40
1
 10
71.966667
 20
201.054918
 30
0.0
 10
72.077357
 20
201.050600
 30
0.0
 10
72.196294
 20
201.011836
 30
0.0
 10
72.324406
 20
200.927034
 30
0.0
  0
SPLINE
  5
12a
100
AcDbEntity
  8
Layer_1
 62
1
100
AcDbSpline
 70
8
 71
3
 72
8
 73
4
 74
0
 40
0
 40
0
 40
0
 40
0
 40
1
 40
1
 40
1
 40
1
 10
72.324406
 20
200.927034
 30
0.0
 10
73.189344
 20
200.892742
 30
0.0
 10
72.747420
 20
199.846278
 30
0.0
 10
72.783567
 20
199.252994
 30
0.0
  0
SPLINE
  5
12b
100
AcDbEntity
  8
Layer_1
 62
1
100
AcDbSpline
 70
8
 71
3
 72
8
 73
4
 74
0
 40
0
 40
0
 40
0
 40
0
 40
1
 40
1
 40
1
 40
1
 10
72.783567
 20
199.252994
 30
0.0
 10
72.547999
 20
197.853143
 30
0.0
 10
72.323559
 20
196.261258
 30
0.0
 10
71.225833
 20
195.257235
 30
0.0
  0
SPLINE
  5
12c
100
AcDbEntity
  8
Layer_1
 62
1
100
AcDbSpline
 70
8
 71
3
 72
8
 73
4
 74
0
 40
0
 40
0
 40
0
 40
0
 40
1
 40
1
 40
1
 40
1
 10
71.225833
 20
195.257235
 30
0.0
 10
71.230885
 20
195.784666
 30
0.0
 10
70.975302
 20
196.477651
 30
0.0
 10
70.765568
 20
197.013958
 30
0.0
  0
SPLINE
  5
12d
100
AcDbEntity
  8
Layer_1
 62
1
100
AcDbSpline
 70
8
 71
3
 72
8
 73
4
 74
0
 40
0
 40
0
 40
0
 40
0
 40
1
 40
1
 40
1
 40
1
 10
70.765568
 20
197.013958
 30
0.0
 10
70.489374
 20
198.004671
 30
0.0
 10
70.057095
 20
199.179607
 30
0.0
 10
70.843840
 20
200.077063
 30
0.0
  0
SPLINE
  5
12e
100
AcDbEntity
  8
Layer_1
 62
1
100
AcDbSpline
 70
8
 71
3
 72
8
 73
4
 74
0
 40
0
 40
0
 40
0
 40
0
 40
1
 40
1
 40
1
 40
1
 10
70.843840
 20
200.077063
 30
0.0
 10
71.155981
 20
200.442495
 30
0.0
 10
71.487007
 20
201.073612
 30
0.0
 10
71.966667
 20
201.054918
 30
0.0
  0
LWPOLYLINE
  5
12f
100
AcDbEntity
  8
Layer_1
 62
1
100
AcDbPolyline
 90
2
 70
0
 10
61.129774
 20
201.482659
 30
0.0
 10
61.129774
 20
201.482659
 30
0.0
  0
SPLINE
  5
130
100
AcDbEntity
  8
Layer_1
 62
1
100
AcDbSpline
 70
8
 71
3
 72
8
 73
4
 74
0
 40
0
 40
0
 40
0
 40
0
 40
1
 40
1
 40
1
 40
1
 10
58.465751
 20
200.763326
 30
0.0
 10
59.499740
 20
199.314146
 30
0.0
 10
59.811909
 20
197.273343
 30
0.0
 10
61.468770
 20
196.334311
 30
0.0
  0
SPLINE
  5
131
100
AcDbEntity
  8
Layer_1
 62
1
100
AcDbSpline
 70
8
 71
3
 72
8
 73
4
 74
0
 40
0
 40
0
 40
0
 40
0
 40
1
 40
1
 40
1
 40
1
 10
61.468770
 20
196.334311
 30
0.0
 10
61.881408
 20
196.072155
 30
0.0
 10
62.230895
 20
195.715132
 30
0.0
 10
62.067942
 20
195.186129
 30
0.0
  0
SPLINE
  5
132
100
AcDbEntity
  8
Layer_1
 62
1
100
AcDbSpline
 70
8
 71
3
 72
8
 73
4
 74
0
 40
0
 40
0
 40
0
 40
0
 40
1
 40
1
 40
1
 40
1
 10
62.067942
 20
195.186129
 30
0.0
 10
61.890264
 20
193.697870
 30
0.0
 10
61.877298
 20
192.058424
 30
0.0
 10
61.092292
 20
190.746641
 30
0.0
  0
SPLINE
  5
133
100
AcDbEntity
  8
Layer_1
 62
1
100
AcDbSpline
 70
8
 71
3
 72
8
 73
4
 74
0
 40
0
 40
0
 40
0
 40
0
 40
1
 40
1
 40
1
 40
1
 10
61.092292
 20
190.746641
 30
0.0
 10
60.689394
 20
190.376284
 30
0.0
 10
60.224495
 20
190.080862
 30
0.0
 10
59.780399
 20
189.763272
 30
0.0
  0
SPLINE
  5
134
100
AcDbEntity
  8
Layer_1
 62
1
100
AcDbSpline
 70
8
 71
3
 72
8
 73
4
 74
0
 40
0
 40
0
 40
0
 40
0
 40
1
 40
1
 40
1
 40
1
 10
59.780399
 20
189.763272
 30
0.0
 10
60.194811
 20
190.519839
 30
0.0
 10
60.671270
 20
191.259464
 30
0.0
 10
60.409887
 20
192.158302
 30
0.0
  0
SPLINE
  5
135
100
AcDbEntity
  8
Layer_1
 62
1
100
AcDbSpline
 70
8
 71
3
 72
8
 73
4
 74
0
 40
0
 40
0
 40
0
 40
0
 40
1
 40
1
 40
1
 40
1
 10
60.409887
 20
192.158302
 30
0.0
 10
60.362792
 20
193.687219
 30
0.0
 10
60.304979
 20
195.303980
 30
0.0
 10
59.392896
 20
196.607160
 30
0.0
  0
SPLINE
  5
136
100
AcDbEntity
  8
Layer_1
 62
1
100
AcDbSpline
 70
8
 71
3
 72
8
 73
4
 74
0
 40
0
 40
0
 40
0
 40
0
 40
1
 40
1
 40
1
 40
1
 10
59.392896
 20
196.607160
 30
0.0
 10
58.951467
 20
197.490502
 30
0.0
 10
58.238664
 20
198.302238
 30
0.0
 10
58.020921
 20
199.264020
 30
0.0
  0
SPLINE
  5
137
100
AcDbEntity
  8
Layer_1
 62
1
100
AcDbSpline
 70
8
 71
3
 72
8
 73
4
 74
0
 40
0
 40
0
 40
0
 40
0
 40
1
 40
1
 40
1
 40
1
 10
58.020921
 20
199.264020
 30
0.0
 10
58.129588
 20
199.769565
 30
0.0
 10
58.249069
 20
200.299175
 30
0.0
 10
58.465751
 20
200.763326
 30
0.0
  0
LWPOLYLINE
  5
138
100
AcDbEntity
  8
Layer_1
 62
1
100
AcDbPolyline
 90
2
 70
0
 10
71.966667
 20
201.054918
 30
0.0
 10
71.966667
 20
201.054918
 30
0.0
  0
SPLINE
  5
139
100
AcDbEntity
  8
Layer_1
 62
1
100
AcDbSpline
 70
8
 71
3
 72
8
 73
4
 74
0
 40
0
 40
0
 40
0
 40
0
 40
1
 40
1
 40
1
 40
1
 10
57.254730
 20
200.402829
 30
0.0
 10
57.191436
 20
199.999361
 30
0.0
 10
57.050297
 20
199.492276
 30
0.0
 10
56.843524
 20
200.121710
 30
0.0
  0
SPLINE
  5
13a
100
AcDbEntity
  8
Layer_1
 62
1
100
AcDbSpline
 70
8
 71
3
 72
8
 73
4
 74
0
 40
0
 40
0
 40
0
 40
0
 40
1
 40
1
 40
1
 40
1
 10
56.843524
 20
200.121710
 30
0.0
 10
56.676152
 20
200.288549
 30
0.0
 10
57.200580
 20
200.365892
 30
0.0
 10
57.254730
 20
200.402829
 30
0.0
  0
LWPOLYLINE
  5
13b
100
AcDbEntity
  8
Layer_1
 62
1
100
AcDbPolyline
 90
2
 70
0
 10
58.465751
 20
200.763326
 30
0.0
 10
58.465751
 20
200.763326
 30
0.0
  0
LWPOLYLINE
  5
13c
100
AcDbEntity
  8
Layer_1
 62
1
100
AcDbPolyline
 90
2
 70
0
 10
57.254730
 20
200.402829
 30
0.0
 10
57.254730
 20
200.402829
 30
0.0
  0
SPLINE
  5
13d
100
AcDbEntity
  8
Layer_1
 62
1
100
AcDbSpline
 70
8
 71
3
 72
8
 73
4
 74
0
 40
0
 40
0
 40
0
 40
0
 40
1
 40
1
 40
1
 40
1
 10
74.172078
 20
200.310226
 30
0.0
 10
75.174890
 20
199.822165
 30
0.0
 10
76.212192
 20
199.390461
 30
0.0
 10
77.170139
 20
198.817536
 30
0.0
  0
SPLINE
  5
13e
100
AcDbEntity
  8
Layer_1
 62
1
100
AcDbSpline
 70
8
 71
3
 72
8
 73
4
 74
0
 40
0
 40
0
 40
0
 40
0
 40
1
 40
1
 40
1
 40
1
 10
77.170139
 20
198.817536
 30
0.0
 10
76.195084
 20
198.268930
 30
0.0
 10
74.942446
 20
197.889443
 30
0.0
 10
73.885448
 20
198.361129
 30
0.0
  0
SPLINE
  5
13f
100
AcDbEntity
  8
Layer_1
 62
1
100
AcDbSpline
 70
8
 71
3
 72
8
 73
4
 74
0
 40
0
 40
0
 40
0
 40
0
 40
1
 40
1
 40
1
 40
1
 10
73.885448
 20
198.361129
 30
0.0
 10
73.750153
 20
199.026897
 30
0.0
 10
73.812648
 20
199.735921
 30
0.0
 10
73.999547
 20
200.387397
 30
0.0
  0
LWPOLYLINE
  5
140
100
AcDbEntity
  8
Layer_1
 62
1
100
AcDbPolyline
 90
3
 70
0
 10
73.999547
 20
200.387397
 30
0.0
 10
74.126880
 20
200.330069
 30
0.0
 10
74.172078
 20
200.310226
 30
0.0
  0
SPLINE
  5
141
100
AcDbEntity
  8
Layer_1
 62
1
100
AcDbSpline
 70
8
 71
3
 72
8
 73
4
 74
0
 40
0
 40
0
 40
0
 40
0
 40
1
 40
1
 40
1
 40
1
 10
55.595574
 20
199.616245
 30
0.0
 10
55.861805
 20
199.603178
 30
0.0
 10
56.098559
 20
199.415548
 30
0.0
 10
56.368377
 20
198.977937
 30
0.0
  0
SPLINE
  5
142
100
AcDbEntity
  8
Layer_1
 62
1
100
AcDbSpline
 70
8
 71
3
 72
8
 73
4
 74
0
 40
0
 40
0
 40
0
 40
0
 40
1
 40
1
 40
1
 40
1
 10
56.368377
 20
198.977937
 30
0.0
 10
57.608281
 20
197.568088
 30
0.0
 10
58.975732
 20
195.968985
 30
0.0
 10
59.092482
 20
193.996055
 30
0.0
  0
SPLINE
  5
143
100
AcDbEntity
  8
Layer_1
 62
1
100
AcDbSpline
 70
8
 71
3
 72
8
 73
4
 74
0
 40
0
 40
0
 40
0
 40
0
 40
1
 40
1
 40
1
 40
1
 10
59.092482
 20
193.996055
 30
0.0
 10
59.105916
 20
193.542504
 30
0.0
 10
58.522379
 20
194.208921
 30
0.0
 10
58.300386
 20
194.268354
 30
0.0
  0
SPLINE
  5
144
100
AcDbEntity
  8
Layer_1
 62
1
100
AcDbSpline
 70
8
 71
3
 72
8
 73
4
 74
0
 40
0
 40
0
 40
0
 40
0
 40
1
 40
1
 40
1
 40
1
 10
58.300386
 20
194.268354
 30
0.0
 10
56.523210
 20
195.367736
 30
0.0
 10
55.337775
 20
197.261501
 30
0.0
 10
54.645278
 20
199.207243
 30
0.0
  0
SPLINE
  5
145
100
AcDbEntity
  8
Layer_1
 62
1
100
AcDbSpline
 70
8
 71
3
 72
8
 73
4
 74
0
 40
0
 40
0
 40
0
 40
0
 40
1
 40
1
 40
1
 40
1
 10
54.645278
 20
199.207243
 30
0.0
 10
55.033429
 20
199.467573
 30
0.0
 10
55.329342
 20
199.629309
 30
0.0
 10
55.595574
 20
199.616245
 30
0.0
  0
LWPOLYLINE
  5
146
100
AcDbEntity
  8
Layer_1
 62
1
100
AcDbPolyline
 90
2
 70
0
 10
73.999547
 20
200.387397
 30
0.0
 10
73.999547
 20
200.387397
 30
0.0
  0
SPLINE
  5
147
100
AcDbEntity
  8
Layer_1
 62
1
100
AcDbSpline
 70
8
 71
3
 72
8
 73
4
 74
0
 40
0
 40
0
 40
0
 40
0
 40
1
 40
1
 40
1
 40
1
 10
53.544501
 20
198.600355
 30
0.0
 10
53.549271
 20
198.597815
 30
0.0
 10
53.553749
 20
198.590553
 30
0.0
 10
53.556628
 20
198.576103
 30
0.0
  0
SPLINE
  5
148
100
AcDbEntity
  8
Layer_1
 62
1
100
AcDbSpline
 70
8
 71
3
 72
8
 73
4
 74
0
 40
0
 40
0
 40
0
 40
0
 40
1
 40
1
 40
1
 40
1
 10
53.556628
 20
198.576103
 30
0.0
 10
54.941775
 20
196.518935
 30
0.0
 10
56.071953
 20
194.127384
 30
0.0
 10
58.275581
 20
192.796610
 30
0.0
  0
SPLINE
  5
149
100
AcDbEntity
  8
Layer_1
 62
1
100
AcDbSpline
 70
8
 71
3
 72
8
 73
4
 74
0
 40
0
 40
0
 40
0
 40
0
 40
1
 40
1
 40
1
 40
1
 10
58.275581
 20
192.796610
 30
0.0
 10
58.961940
 20
192.416290
 30
0.0
 10
59.498255
 20
191.662023
 30
0.0
 10
59.146502
 20
190.860190
 30
0.0
  0
SPLINE
  5
14a
100
AcDbEntity
  8
Layer_1
 62
1
100
AcDbSpline
 70
8
 71
3
 72
8
 73
4
 74
0
 40
0
 40
0
 40
0
 40
0
 40
1
 40
1
 40
1
 40
1
 10
59.146502
 20
190.860190
 30
0.0
 10
58.448894
 20
189.545709
 30
0.0
 10
57.462349
 20
188.342523
 30
0.0
 10
57.200159
 20
186.831908
 30
0.0
  0
SPLINE
  5
14b
100
AcDbEntity
  8
Layer_1
 62
1
100
AcDbSpline
 70
8
 71
3
 72
8
 73
4
 74
0
 40
0
 40
0
 40
0
 40
0
 40
1
 40
1
 40
1
 40
1
 10
57.200159
 20
186.831908
 30
0.0
 10
57.141895
 20
186.568304
 30
0.0
 10
57.036942
 20
185.887469
 30
0.0
 10
56.715643
 20
186.315972
 30
0.0
  0
SPLINE
  5
14c
100
AcDbEntity
  8
Layer_1
 62
1
100
AcDbSpline
 70
8
 71
3
 72
8
 73
4
 74
0
 40
0
 40
0
 40
0
 40
0
 40
1
 40
1
 40
1
 40
1
 10
56.715643
 20
186.315972
 30
0.0
 10
56.020273
 20
187.436835
 30
0.0
 10
55.569223
 20
188.734315
 30
0.0
 10
54.595118
 20
189.664604
 30
0.0
  0
SPLINE
  5
14d
100
AcDbEntity
  8
Layer_1
 62
1
100
AcDbSpline
 70
8
 71
3
 72
8
 73
4
 74
0
 40
0
 40
0
 40
0
 40
0
 40
1
 40
1
 40
1
 40
1
 10
54.595118
 20
189.664604
 30
0.0
 10
54.919245
 20
192.669365
 30
0.0
 10
54.388475
 20
195.687175
 30
0.0
 10
53.529066
 20
198.559015
 30
0.0
  0
SPLINE
  5
14e
100
AcDbEntity
  8
Layer_1
 62
1
100
AcDbSpline
 70
8
 71
3
 72
8
 73
4
 74
0
 40
0
 40
0
 40
0
 40
0
 40
1
 40
1
 40
1
 40
1
 10
53.529066
 20
198.559015
 30
0.0
 10
53.513093
 20
198.572703
 30
0.0
 10
53.530192
 20
198.607930
 30
0.0
 10
53.544501
 20
198.600355
 30
0.0
  0
LWPOLYLINE
  5
14f
100
AcDbEntity
  8
Layer_1
 62
1
100
AcDbPolyline
 90
2
 70
0
 10
55.595574
 20
199.616245
 30
0.0
 10
55.595574
 20
199.616245
 30
0.0
  0
LWPOLYLINE
  5
150
100
AcDbEntity
  8
Layer_1
 62
1
100
AcDbPolyline
 90
2
 70
0
 10
53.544501
 20
198.600355
 30
0.0
 10
53.544501
 20
198.600355
 30
0.0
  0
SPLINE
  5
151
100
AcDbEntity
  8
Layer_1
 62
1
100
AcDbSpline
 70
8
 71
3
 72
8
 73
4
 74
0
 40
0
 40
0
 40
0
 40
0
 40
1
 40
1
 40
1
 40
1
 10
67.001870
 20
198.350656
 30
0.0
 10
67.844839
 20
197.510334
 30
0.0
 10
68.409594
 20
196.387270
 30
0.0
 10
69.472418
 20
195.769866
 30
0.0
  0
SPLINE
  5
152
100
AcDbEntity
  8
Layer_1
 62
1
100
AcDbSpline
 70
8
 71
3
 72
8
 73
4
 74
0
 40
0
 40
0
 40
0
 40
0
 40
1
 40
1
 40
1
 40
1
 10
69.472418
 20
195.769866
 30
0.0
 10
70.310742
 20
195.200026
 30
0.0
 10
70.272670
 20
193.836218
 30
0.0
 10
69.665342
 20
193.142222
 30
0.0
  0
SPLINE
  5
153
100
AcDbEntity
  8
Layer_1
 62
1
100
AcDbSpline
 70
8
 71
3
 72
8
 73
4
 74
0
 40
0
 40
0
 40
0
 40
0
 40
1
 40
1
 40
1
 40
1
 10
69.665342
 20
193.142222
 30
0.0
 10
68.335567
 20
192.798162
 30
0.0
 10
67.011592
 20
192.297760
 30
0.0
 10
65.903850
 20
191.469835
 30
0.0
  0
SPLINE
  5
154
100
AcDbEntity
  8
Layer_1
 62
1
100
AcDbSpline
 70
8
 71
3
 72
8
 73
4
 74
0
 40
0
 40
0
 40
0
 40
0
 40
1
 40
1
 40
1
 40
1
 10
65.903850
 20
191.469835
 30
0.0
 10
65.401642
 20
191.088243
 30
0.0
 10
65.524913
 20
192.222429
 30
0.0
 10
65.340507
 20
192.530923
 30
0.0
  0
SPLINE
  5
155
100
AcDbEntity
  8
Layer_1
 62
1
100
AcDbSpline
 70
8
 71
3
 72
8
 73
4
 74
0
 40
0
 40
0
 40
0
 40
0
 40
1
 40
1
 40
1
 40
1
 10
65.340507
 20
192.530923
 30
0.0
 10
65.157655
 20
193.566885
 30
0.0
 10
64.669329
 20
194.625924
 30
0.0
 10
65.186168
 20
195.652456
 30
0.0
  0
SPLINE
  5
156
100
AcDbEntity
  8
Layer_1
 62
1
100
AcDbSpline
 70
8
 71
3
 72
8
 73
4
 74
0
 40
0
 40
0
 40
0
 40
0
 40
1
 40
1
 40
1
 40
1
 10
65.186168
 20
195.652456
 30
0.0
 10
65.540275
 20
196.685765
 30
0.0
 10
65.666310
 20
197.997322
 30
0.0
 10
66.793511
 20
198.503894
 30
0.0
  0
LWPOLYLINE
  5
157
100
AcDbEntity
  8
Layer_1
 62
1
100
AcDbPolyline
 90
3
 70
0
 10
66.793511
 20
198.503894
 30
0.0
 10
66.905959
 20
198.421211
 30
0.0
 10
67.001870
 20
198.350656
 30
0.0
  0
SPLINE
  5
158
100
AcDbEntity
  8
Layer_1
 62
1
100
AcDbSpline
 70
8
 71
3
 72
8
 73
4
 74
0
 40
0
 40
0
 40
0
 40
0
 40
1
 40
1
 40
1
 40
1
 10
78.348086
 20
198.043629
 30
0.0
 10
78.525988
 20
198.049753
 30
0.0
 10
78.695313
 20
197.988003
 30
0.0
 10
78.850242
 20
197.804401
 30
0.0
  0
SPLINE
  5
159
100
AcDbEntity
  8
Layer_1
 62
1
100
AcDbSpline
 70
8
 71
3
 72
8
 73
4
 74
0
 40
0
 40
0
 40
0
 40
0
 40
1
 40
1
 40
1
 40
1
 10
78.850242
 20
197.804401
 30
0.0
 10
79.205537
 20
197.671042
 30
0.0
 10
79.472502
 20
197.277661
 30
0.0
 10
78.961036
 20
197.162235
 30
0.0
  0
SPLINE
  5
15a
100
AcDbEntity
  8
Layer_1
 62
1
100
AcDbSpline
 70
8
 71
3
 72
8
 73
4
 74
0
 40
0
 40
0
 40
0
 40
0
 40
1
 40
1
 40
1
 40
1
 10
78.961036
 20
197.162235
 30
0.0
 10
77.616394
 20
196.805438
 30
0.0
 10
75.890727
 20
197.325026
 30
0.0
 10
74.844563
 20
196.148549
 30
0.0
  0
SPLINE
  5
15b
100
AcDbEntity
  8
Layer_1
 62
1
100
AcDbSpline
 70
8
 71
3
 72
8
 73
4
 74
0
 40
0
 40
0
 40
0
 40
0
 40
1
 40
1
 40
1
 40
1
 10
74.844563
 20
196.148549
 30
0.0
 10
74.180965
 20
195.342475
 30
0.0
 10
73.087032
 20
195.182968
 30
0.0
 10
72.242827
 20
194.638220
 30
0.0
  0
SPLINE
  5
15c
100
AcDbEntity
  8
Layer_1
 62
1
100
AcDbSpline
 70
8
 71
3
 72
8
 73
4
 74
0
 40
0
 40
0
 40
0
 40
0
 40
1
 40
1
 40
1
 40
1
 10
72.242827
 20
194.638220
 30
0.0
 10
72.796547
 20
195.350970
 30
0.0
 10
73.059555
 20
196.287736
 30
0.0
 10
73.695828
 20
196.920252
 30
0.0
  0
SPLINE
  5
15d
100
AcDbEntity
  8
Layer_1
 62
1
100
AcDbSpline
 70
8
 71
3
 72
8
 73
4
 74
0
 40
0
 40
0
 40
0
 40
0
 40
1
 40
1
 40
1
 40
1
 10
73.695828
 20
196.920252
 30
0.0
 10
74.785231
 20
197.339530
 30
0.0
 10
76.038899
 20
197.086473
 30
0.0
 10
77.121080
 20
197.593838
 30
0.0
  0
SPLINE
  5
15e
100
AcDbEntity
  8
Layer_1
 62
1
100
AcDbSpline
 70
8
 71
3
 72
8
 73
4
 74
0
 40
0
 40
0
 40
0
 40
0
 40
1
 40
1
 40
1
 40
1
 10
77.121080
 20
197.593838
 30
0.0
 10
77.525126
 20
197.687956
 30
0.0
 10
77.956704
 20
198.030145
 30
0.0
 10
78.348086
 20
198.043629
 30
0.0
  0
LWPOLYLINE
  5
15f
100
AcDbEntity
  8
Layer_1
 62
1
100
AcDbPolyline
 90
2
 70
0
 10
66.793511
 20
198.503894
 30
0.0
 10
66.793511
 20
198.503894
 30
0.0
  0
SPLINE
  5
160
100
AcDbEntity
  8
Layer_1
 62
1
100
AcDbSpline
 70
8
 71
3
 72
8
 73
4
 74
0
 40
0
 40
0
 40
0
 40
0
 40
1
 40
1
 40
1
 40
1
 10
52.556723
 20
197.878814
 30
0.0
 10
53.103608
 20
197.055877
 30
0.0
 10
53.238321
 20
195.983514
 30
0.0
 10
53.131091
 20
195.019110
 30
0.0
  0
SPLINE
  5
161
100
AcDbEntity
  8
Layer_1
 62
1
100
AcDbSpline
 70
8
 71
3
 72
8
 73
4
 74
0
 40
0
 40
0
 40
0
 40
0
 40
1
 40
1
 40
1
 40
1
 10
53.131091
 20
195.019110
 30
0.0
 10
52.196783
 20
195.339585
 30
0.0
 10
51.444093
 20
196.037848
 30
0.0
 10
50.602665
 20
196.535504
 30
0.0
  0
SPLINE
  5
162
100
AcDbEntity
  8
Layer_1
 62
1
100
AcDbSpline
 70
8
 71
3
 72
8
 73
4
 74
0
 40
0
 40
0
 40
0
 40
0
 40
1
 40
1
 40
1
 40
1
 10
50.602665
 20
196.535504
 30
0.0
 10
51.205367
 20
197.018909
 30
0.0
 10
51.847369
 20
197.588566
 30
0.0
 10
52.556723
 20
197.878814
 30
0.0
  0
LWPOLYLINE
  5
163
100
AcDbEntity
  8
Layer_1
 62
1
100
AcDbPolyline
 90
2
 70
0
 10
78.348086
 20
198.043629
 30
0.0
 10
78.348086
 20
198.043629
 30
0.0
  0
SPLINE
  5
164
100
AcDbEntity
  8
Layer_1
 62
1
100
AcDbSpline
 70
8
 71
3
 72
8
 73
4
 74
0
 40
0
 40
0
 40
0
 40
0
 40
1
 40
1
 40
1
 40
1
 10
80.382621
 20
196.618187
 30
0.0
 10
80.542858
 20
196.380412
 30
0.0
 10
81.511456
 20
195.995046
 30
0.0
 10
80.941553
 20
195.825537
 30
0.0
  0
SPLINE
  5
165
100
AcDbEntity
  8
Layer_1
 62
1
100
AcDbSpline
 70
8
 71
3
 72
8
 73
4
 74
0
 40
0
 40
0
 40
0
 40
0
 40
1
 40
1
 40
1
 40
1
 10
80.941553
 20
195.825537
 30
0.0
 10
80.686368
 20
195.721810
 30
0.0
 10
79.980364
 20
195.434355
 30
0.0
 10
80.192451
 20
195.998068
 30
0.0
  0
SPLINE
  5
166
100
AcDbEntity
  8
Layer_1
 62
1
100
AcDbSpline
 70
8
 71
3
 72
8
 73
4
 74
0
 40
0
 40
0
 40
0
 40
0
 40
1
 40
1
 40
1
 40
1
 10
80.192451
 20
195.998068
 30
0.0
 10
80.246928
 20
196.163578
 30
0.0
 10
80.253151
 20
196.597912
 30
0.0
 10
80.382621
 20
196.618187
 30
0.0
  0
LWPOLYLINE
  5
167
100
AcDbEntity
  8
Layer_1
 62
1
100
AcDbPolyline
 90
2
 70
0
 10
52.556723
 20
197.878814
 30
0.0
 10
52.556723
 20
197.878814
 30
0.0
  0
SPLINE
  5
168
100
AcDbEntity
  8
Layer_1
 62
1
100
AcDbSpline
 70
8
 71
3
 72
8
 73
4
 74
0
 40
0
 40
0
 40
0
 40
0
 40
1
 40
1
 40
1
 40
1
 10
79.226173
 20
196.134771
 30
0.0
 10
79.352688
 20
195.320512
 30
0.0
 10
79.214969
 20
194.292676
 30
0.0
 10
78.841975
 20
193.504923
 30
0.0
  0
SPLINE
  5
169
100
AcDbEntity
  8
Layer_1
 62
1
100
AcDbSpline
 70
8
 71
3
 72
8
 73
4
 74
0
 40
0
 40
0
 40
0
 40
0
 40
1
 40
1
 40
1
 40
1
 10
78.841975
 20
193.504923
 30
0.0
 10
77.878920
 20
192.322211
 30
0.0
 10
76.260827
 20
192.260817
 30
0.0
 10
74.883699
 20
191.987425
 30
0.0
  0
SPLINE
  5
16a
100
AcDbEntity
  8
Layer_1
 62
1
100
AcDbSpline
 70
8
 71
3
 72
8
 73
4
 74
0
 40
0
 40
0
 40
0
 40
0
 40
1
 40
1
 40
1
 40
1
 10
74.883699
 20
191.987425
 30
0.0
 10
74.434920
 20
191.935268
 30
0.0
 10
73.724553
 20
191.589605
 30
0.0
 10
73.416914
 20
191.741034
 30
0.0
  0
SPLINE
  5
16b
100
AcDbEntity
  8
Layer_1
 62
1
100
AcDbSpline
 70
8
 71
3
 72
8
 73
4
 74
0
 40
0
 40
0
 40
0
 40
0
 40
1
 40
1
 40
1
 40
1
 10
73.416914
 20
191.741034
 30
0.0
 10
73.819853
 20
192.488090
 30
0.0
 10
73.806504
 20
193.362271
 30
0.0
 10
73.940568
 20
194.158112
 30
0.0
  0
SPLINE
  5
16c
100
AcDbEntity
  8
Layer_1
 62
1
100
AcDbSpline
 70
8
 71
3
 72
8
 73
4
 74
0
 40
0
 40
0
 40
0
 40
0
 40
1
 40
1
 40
1
 40
1
 10
73.940568
 20
194.158112
 30
0.0
 10
74.910493
 20
194.540755
 30
0.0
 10
75.557242
 20
195.441388
 30
0.0
 10
76.529077
 20
195.791914
 30
0.0
  0
SPLINE
  5
16d
100
AcDbEntity
  8
Layer_1
 62
1
100
AcDbSpline
 70
8
 71
3
 72
8
 73
4
 74
0
 40
0
 40
0
 40
0
 40
0
 40
1
 40
1
 40
1
 40
1
 10
76.529077
 20
195.791914
 30
0.0
 10
77.421932
 20
195.932144
 30
0.0
 10
78.331207
 20
195.968827
 30
0.0
 10
79.226173
 20
196.134771
 30
0.0
  0
LWPOLYLINE
  5
16e
100
AcDbEntity
  8
Layer_1
 62
1
100
AcDbPolyline
 90
2
 70
0
 10
80.382621
 20
196.618187
 30
0.0
 10
80.382621
 20
196.618187
 30
0.0
  0
SPLINE
  5
16f
100
AcDbEntity
  8
Layer_1
 62
1
100
AcDbSpline
 70
8
 71
3
 72
8
 73
4
 74
0
 40
0
 40
0
 40
0
 40
0
 40
1
 40
1
 40
1
 40
1
 10
49.708043
 20
195.675607
 30
0.0
 10
49.902138
 20
195.654158
 30
0.0
 10
50.112837
 20
195.482570
 30
0.0
 10
50.394856
 20
195.326687
 30
0.0
  0
SPLINE
  5
170
100
AcDbEntity
  8
Layer_1
 62
1
100
AcDbSpline
 70
8
 71
3
 72
8
 73
4
 74
0
 40
0
 40
0
 40
0
 40
0
 40
1
 40
1
 40
1
 40
1
 10
50.394856
 20
195.326687
 30
0.0
 10
51.489774
 20
194.638310
 30
0.0
 10
52.752097
 20
193.980651
 30
0.0
 10
53.464576
 20
192.868819
 30
0.0
  0
SPLINE
  5
171
100
AcDbEntity
  8
Layer_1
 62
1
100
AcDbSpline
 70
8
 71
3
 72
8
 73
4
 74
0
 40
0
 40
0
 40
0
 40
0
 40
1
 40
1
 40
1
 40
1
 10
53.464576
 20
192.868819
 30
0.0
 10
53.648810
 20
192.084230
 30
0.0
 10
53.662080
 20
191.212003
 30
0.0
 10
53.354882
 20
190.457803
 30
0.0
  0
SPLINE
  5
172
100
AcDbEntity
  8
Layer_1
 62
1
100
AcDbSpline
 70
8
 71
3
 72
8
 73
4
 74
0
 40
0
 40
0
 40
0
 40
0
 40
1
 40
1
 40
1
 40
1
 10
53.354882
 20
190.457803
 30
0.0
 10
52.569155
 20
190.767367
 30
0.0
 10
51.670094
 20
190.953408
 30
0.0
 10
50.966466
 20
191.397626
 30
0.0
  0
SPLINE
  5
173
100
AcDbEntity
  8
Layer_1
 62
1
100
AcDbSpline
 70
8
 71
3
 72
8
 73
4
 74
0
 40
0
 40
0
 40
0
 40
0
 40
1
 40
1
 40
1
 40
1
 10
50.966466
 20
191.397626
 30
0.0
 10
50.398257
 20
192.709367
 30
0.0
 10
49.925007
 20
194.068936
 30
0.0
 10
49.227935
 20
195.325586
 30
0.0
  0
SPLINE
  5
174
100
AcDbEntity
  8
Layer_1
 62
1
100
AcDbSpline
 70
8
 71
3
 72
8
 73
4
 74
0
 40
0
 40
0
 40
0
 40
0
 40
1
 40
1
 40
1
 40
1
 10
49.227935
 20
195.325586
 30
0.0
 10
49.368552
 20
195.559385
 30
0.0
 10
49.495256
 20
195.658050
 30
0.0
 10
49.625910
 20
195.675057
 30
0.0
  0
SPLINE
  5
175
100
AcDbEntity
  8
Layer_1
 62
1
100
AcDbSpline
 70
8
 71
3
 72
8
 73
4
 74
0
 40
0
 40
0
 40
0
 40
0
 40
1
 40
1
 40
1
 40
1
 10
49.625910
 20
195.675057
 30
0.0
 10
49.653145
 20
195.678613
 30
0.0
 10
49.680314
 20
195.678655
 30
0.0
 10
49.708043
 20
195.675607
 30
0.0
  0
LWPOLYLINE
  5
176
100
AcDbEntity
  8
Layer_1
 62
1
100
AcDbPolyline
 90
2
 70
0
 10
79.226173
 20
196.134771
 30
0.0
 10
79.226173
 20
196.134771
 30
0.0
  0
SPLINE
  5
177
100
AcDbEntity
  8
Layer_1
 62
1
100
AcDbSpline
 70
8
 71
3
 72
8
 73
4
 74
0
 40
0
 40
0
 40
0
 40
0
 40
1
 40
1
 40
1
 40
1
 10
81.883580
 20
195.291963
 30
0.0
 10
82.035952
 20
195.271050
 30
0.0
 10
82.142539
 20
195.015452
 30
0.0
 10
82.289825
 20
194.930916
 30
0.0
  0
SPLINE
  5
178
100
AcDbEntity
  8
Layer_1
 62
1
100
AcDbSpline
 70
8
 71
3
 72
8
 73
4
 74
0
 40
0
 40
0
 40
0
 40
0
 40
1
 40
1
 40
1
 40
1
 10
82.289825
 20
194.930916
 30
0.0
 10
82.662480
 20
194.687002
 30
0.0
 10
82.612944
 20
194.471399
 30
0.0
 10
82.188953
 20
194.336705
 30
0.0
  0
SPLINE
  5
179
100
AcDbEntity
  8
Layer_1
 62
1
100
AcDbSpline
 70
8
 71
3
 72
8
 73
4
 74
0
 40
0
 40
0
 40
0
 40
0
 40
1
 40
1
 40
1
 40
1
 10
82.188953
 20
194.336705
 30
0.0
 10
81.082983
 20
193.763597
 30
0.0
 10
80.004522
 20
193.112487
 30
0.0
 10
79.106559
 20
192.239882
 30
0.0
  0
SPLINE
  5
17a
100
AcDbEntity
  8
Layer_1
 62
1
100
AcDbSpline
 70
8
 71
3
 72
8
 73
4
 74
0
 40
0
 40
0
 40
0
 40
0
 40
1
 40
1
 40
1
 40
1
 10
79.106559
 20
192.239882
 30
0.0
 10
79.679608
 20
192.897558
 30
0.0
 10
80.148978
 20
193.667613
 30
0.0
 10
80.242063
 20
194.540103
 30
0.0
  0
SPLINE
  5
17b
100
AcDbEntity
  8
Layer_1
 62
1
100
AcDbSpline
 70
8
 71
3
 72
8
 73
4
 74
0
 40
0
 40
0
 40
0
 40
0
 40
1
 40
1
 40
1
 40
1
 10
80.242063
 20
194.540103
 30
0.0
 10
80.624118
 20
194.873032
 30
0.0
 10
81.271643
 20
194.911922
 30
0.0
 10
81.712703
 20
195.219753
 30
0.0
  0
SPLINE
  5
17c
100
AcDbEntity
  8
Layer_1
 62
1
100
AcDbSpline
 70
8
 71
3
 72
8
 73
4
 74
0
 40
0
 40
0
 40
0
 40
0
 40
1
 40
1
 40
1
 40
1
 10
81.712703
 20
195.219753
 30
0.0
 10
81.776821
 20
195.279931
 30
0.0
 10
81.832791
 20
195.298931
 30
0.0
 10
81.883580
 20
195.291963
 30
0.0
  0
LWPOLYLINE
  5
17d
100
AcDbEntity
  8
Layer_1
 62
1
100
AcDbPolyline
 90
2
 70
0
 10
49.708043
 20
195.675607
 30
0.0
 10
49.708043
 20
195.675607
 30
0.0
  0
LWPOLYLINE
  5
17e
100
AcDbEntity
  8
Layer_1
 62
1
100
AcDbPolyline
 90
2
 70
0
 10
81.883580
 20
195.291963
 30
0.0
 10
81.883580
 20
195.291963
 30
0.0
  0
SPLINE
  5
17f
100
AcDbEntity
  8
Layer_1
 62
1
100
AcDbSpline
 70
8
 71
3
 72
8
 73
4
 74
0
 40
0
 40
0
 40
0
 40
0
 40
1
 40
1
 40
1
 40
1
 10
63.137852
 20
194.358202
 30
0.0
 10
64.268220
 20
192.728174
 30
0.0
 10
63.637104
 20
190.658255
 30
0.0
 10
64.233117
 20
188.864241
 30
0.0
  0
SPLINE
  5
180
100
AcDbEntity
  8
Layer_1
 62
1
100
AcDbSpline
 70
8
 71
3
 72
8
 73
4
 74
0
 40
0
 40
0
 40
0
 40
0
 40
1
 40
1
 40
1
 40
1
 10
64.233117
 20
188.864241
 30
0.0
 10
64.534130
 20
187.258676
 30
0.0
 10
64.349655
 20
185.543062
 30
0.0
 10
63.653238
 20
184.058745
 30
0.0
  0
SPLINE
  5
181
100
AcDbEntity
  8
Layer_1
 62
1
100
AcDbSpline
 70
8
 71
3
 72
8
 73
4
 74
0
 40
0
 40
0
 40
0
 40
0
 40
1
 40
1
 40
1
 40
1
 10
63.653238
 20
184.058745
 30
0.0
 10
63.341326
 20
183.278172
 30
0.0
 10
63.120987
 20
182.074511
 30
0.0
 10
62.088889
 20
182.030273
 30
0.0
  0
SPLINE
  5
182
100
AcDbEntity
  8
Layer_1
 62
1
100
AcDbSpline
 70
8
 71
3
 72
8
 73
4
 74
0
 40
0
 40
0
 40
0
 40
0
 40
1
 40
1
 40
1
 40
1
 10
62.088889
 20
182.030273
 30
0.0
 10
61.262311
 20
181.949537
 30
0.0
 10
60.285780
 20
181.610419
 30
0.0
 10
59.716458
 20
182.410062
 30
0.0
  0
SPLINE
  5
183
100
AcDbEntity
  8
Layer_1
 62
1
100
AcDbSpline
 70
8
 71
3
 72
8
 73
4
 74
0
 40
0
 40
0
 40
0
 40
0
 40
1
 40
1
 40
1
 40
1
 10
59.716458
 20
182.410062
 30
0.0
 10
58.835448
 20
182.990164
 30
0.0
 10
58.138887
 20
183.997850
 30
0.0
 10
58.477325
 20
185.097785
 30
0.0
  0
SPLINE
  5
184
100
AcDbEntity
  8
Layer_1
 62
1
100
AcDbSpline
 70
8
 71
3
 72
8
 73
4
 74
0
 40
0
 40
0
 40
0
 40
0
 40
1
 40
1
 40
1
 40
1
 10
58.477325
 20
185.097785
 30
0.0
 10
58.703636
 20
185.954542
 30
0.0
 10
58.588741
 20
187.004360
 30
0.0
 10
59.197215
 20
187.704483
 30
0.0
  0
SPLINE
  5
185
100
AcDbEntity
  8
Layer_1
 62
1
100
AcDbSpline
 70
8
 71
3
 72
8
 73
4
 74
0
 40
0
 40
0
 40
0
 40
0
 40
1
 40
1
 40
1
 40
1
 10
59.197215
 20
187.704483
 30
0.0
 10
60.149895
 20
188.595219
 30
0.0
 10
61.536752
 20
189.100261
 30
0.0
 10
62.349614
 20
190.159596
 30
0.0
  0
SPLINE
  5
186
100
AcDbEntity
  8
Layer_1
 62
1
100
AcDbSpline
 70
8
 71
3
 72
8
 73
4
 74
0
 40
0
 40
0
 40
0
 40
0
 40
1
 40
1
 40
1
 40
1
 10
62.349614
 20
190.159596
 30
0.0
 10
62.841688
 20
191.532068
 30
0.0
 10
62.937365
 20
193.008830
 30
0.0
 10
63.079974
 20
194.448050
 30
0.0
  0
LWPOLYLINE
  5
187
100
AcDbEntity
  8
Layer_1
 62
1
100
AcDbPolyline
 90
2
 70
0
 10
63.079974
 20
194.448050
 30
0.0
 10
63.137852
 20
194.358202
 30
0.0
  0
LWPOLYLINE
  5
188
100
AcDbEntity
  8
Layer_1
 62
1
100
AcDbPolyline
 90
2
 70
0
 10
63.079974
 20
194.448050
 30
0.0
 10
63.079974
 20
194.448050
 30
0.0
  0
SPLINE
  5
189
100
AcDbEntity
  8
Layer_1
 62
1
100
AcDbSpline
 70
8
 71
3
 72
8
 73
4
 74
0
 40
0
 40
0
 40
0
 40
0
 40
1
 40
1
 40
1
 40
1
 10
48.680576
 20
193.934869
 30
0.0
 10
49.112105
 20
193.272837
 30
0.0
 10
49.681929
 20
192.440132
 30
0.0
 10
49.672215
 20
191.683156
 30
0.0
  0
SPLINE
  5
18a
100
AcDbEntity
  8
Layer_1
 62
1
100
AcDbSpline
 70
8
 71
3
 72
8
 73
4
 74
0
 40
0
 40
0
 40
0
 40
0
 40
1
 40
1
 40
1
 40
1
 10
49.672215
 20
191.683156
 30
0.0
 10
48.688470
 20
191.435534
 30
0.0
 10
48.219086
 20
192.567801
 30
0.0
 10
47.690044
 20
193.165923
 30
0.0
  0
SPLINE
  5
18b
100
AcDbEntity
  8
Layer_1
 62
1
100
AcDbSpline
 70
8
 71
3
 72
8
 73
4
 74
0
 40
0
 40
0
 40
0
 40
0
 40
1
 40
1
 40
1
 40
1
 10
47.690044
 20
193.165923
 30
0.0
 10
47.258317
 20
193.646488
 30
0.0
 10
48.174286
 20
193.999862
 30
0.0
 10
48.332209
 20
194.395687
 30
0.0
  0
LWPOLYLINE
  5
18c
100
AcDbEntity
  8
Layer_1
 62
1
100
AcDbPolyline
 90
2
 70
0
 10
48.332209
 20
194.395687
 30
0.0
 10
48.680576
 20
193.934869
 30
0.0
  0
SPLINE
  5
18d
100
AcDbEntity
  8
Layer_1
 62
1
100
AcDbSpline
 70
8
 71
3
 72
8
 73
4
 74
0
 40
0
 40
0
 40
0
 40
0
 40
1
 40
1
 40
1
 40
1
 10
83.514627
 20
193.532482
 30
0.0
 10
83.671864
 20
193.270399
 30
0.0
 10
83.175320
 20
192.822208
 30
0.0
 10
83.087436
 20
192.517695
 30
0.0
  0
SPLINE
  5
18e
100
AcDbEntity
  8
Layer_1
 62
1
100
AcDbSpline
 70
8
 71
3
 72
8
 73
4
 74
0
 40
0
 40
0
 40
0
 40
0
 40
1
 40
1
 40
1
 40
1
 10
83.087436
 20
192.517695
 30
0.0
 10
82.568381
 20
191.566189
 30
0.0
 10
81.739974
 20
190.653527
 30
0.0
 10
81.907834
 20
189.483256
 30
0.0
  0
SPLINE
  5
18f
100
AcDbEntity
  8
Layer_1
 62
1
100
AcDbSpline
 70
8
 71
3
 72
8
 73
4
 74
0
 40
0
 40
0
 40
0
 40
0
 40
1
 40
1
 40
1
 40
1
 10
81.907834
 20
189.483256
 30
0.0
 10
81.841320
 20
188.132131
 30
0.0
 10
80.995218
 20
186.890388
 30
0.0
 10
80.023781
 20
186.000676
 30
0.0
  0
SPLINE
  5
190
100
AcDbEntity
  8
Layer_1
 62
1
100
AcDbSpline
 70
8
 71
3
 72
8
 73
4
 74
0
 40
0
 40
0
 40
0
 40
0
 40
1
 40
1
 40
1
 40
1
 10
80.023781
 20
186.000676
 30
0.0
 10
79.675928
 20
186.125771
 30
0.0
 10
79.713794
 20
186.766994
 30
0.0
 10
79.383269
 20
187.012708
 30
0.0
  0
SPLINE
  5
191
100
AcDbEntity
  8
Layer_1
 62
1
100
AcDbSpline
 70
8
 71
3
 72
8
 73
4
 74
0
 40
0
 40
0
 40
0
 40
0
 40
1
 40
1
 40
1
 40
1
 10
79.383269
 20
187.012708
 30
0.0
 10
78.785517
 20
187.419698
 30
0.0
 10
78.109191
 20
187.920264
 30
0.0
 10
78.234534
 20
188.753447
 30
0.0
  0
SPLINE
  5
192
100
AcDbEntity
  8
Layer_1
 62
1
100
AcDbSpline
 70
8
 71
3
 72
8
 73
4
 74
0
 40
0
 40
0
 40
0
 40
0
 40
1
 40
1
 40
1
 40
1
 10
78.234534
 20
188.753447
 30
0.0
 10
78.278016
 20
190.618591
 30
0.0
 10
79.938507
 20
191.849399
 30
0.0
 10
81.372052
 20
192.754717
 30
0.0
  0
SPLINE
  5
193
100
AcDbEntity
  8
Layer_1
 62
1
100
AcDbSpline
 70
8
 71
3
 72
8
 73
4
 74
0
 40
0
 40
0
 40
0
 40
0
 40
1
 40
1
 40
1
 40
1
 10
81.372052
 20
192.754717
 30
0.0
 10
82.040132
 20
193.103315
 30
0.0
 10
82.764130
 20
193.430447
 30
0.0
 10
83.514627
 20
193.532482
 30
0.0
  0
LWPOLYLINE
  5
194
100
AcDbEntity
  8
Layer_1
 62
1
100
AcDbPolyline
 90
2
 70
0
 10
48.332209
 20
194.395687
 30
0.0
 10
48.332209
 20
194.395687
 30
0.0
  0
SPLINE
  5
195
100
AcDbEntity
  8
Layer_1
 62
1
100
AcDbSpline
 70
8
 71
3
 72
8
 73
4
 74
0
 40
0
 40
0
 40
0
 40
0
 40
1
 40
1
 40
1
 40
1
 10
72.596705
 20
193.379244
 30
0.0
 10
72.408469
 20
190.989163
 30
0.0
 10
70.985541
 20
188.876862
 30
0.0
 10
69.480687
 20
187.088225
 30
0.0
  0
SPLINE
  5
196
100
AcDbEntity
  8
Layer_1
 62
1
100
AcDbSpline
 70
8
 71
3
 72
8
 73
4
 74
0
 40
0
 40
0
 40
0
 40
0
 40
1
 40
1
 40
1
 40
1
 10
69.480687
 20
187.088225
 30
0.0
 10
68.636577
 20
186.246277
 30
0.0
 10
67.771975
 20
185.300638
 30
0.0
 10
66.681062
 20
184.798477
 30
0.0
  0
SPLINE
  5
197
100
AcDbEntity
  8
Layer_1
 62
1
100
AcDbSpline
 70
8
 71
3
 72
8
 73
4
 74
0
 40
0
 40
0
 40
0
 40
0
 40
1
 40
1
 40
1
 40
1
 10
66.681062
 20
184.798477
 30
0.0
 10
65.807059
 20
184.729502
 30
0.0
 10
66.197615
 20
185.905048
 30
0.0
 10
66.155756
 20
186.405270
 30
0.0
  0
SPLINE
  5
198
100
AcDbEntity
  8
Layer_1
 62
1
100
AcDbSpline
 70
8
 71
3
 72
8
 73
4
 74
0
 40
0
 40
0
 40
0
 40
0
 40
1
 40
1
 40
1
 40
1
 10
66.155756
 20
186.405270
 30
0.0
 10
66.239139
 20
188.120580
 30
0.0
 10
66.577331
 20
190.289712
 30
0.0
 10
68.345733
 20
191.061384
 30
0.0
  0
SPLINE
  5
199
100
AcDbEntity
  8
Layer_1
 62
1
100
AcDbSpline
 70
8
 71
3
 72
8
 73
4
 74
0
 40
0
 40
0
 40
0
 40
0
 40
1
 40
1
 40
1
 40
1
 10
68.345733
 20
191.061384
 30
0.0
 10
69.477289
 20
191.378664
 30
0.0
 10
70.466893
 20
192.003323
 30
0.0
 10
71.382930
 20
192.724951
 30
0.0
  0
SPLINE
  5
19a
100
AcDbEntity
  8
Layer_1
 62
1
100
AcDbSpline
 70
8
 71
3
 72
8
 73
4
 74
0
 40
0
 40
0
 40
0
 40
0
 40
1
 40
1
 40
1
 40
1
 10
71.382930
 20
192.724951
 30
0.0
 10
71.770748
 20
192.968080
 30
0.0
 10
72.167914
 20
193.225989
 30
0.0
 10
72.596705
 20
193.379244
 30
0.0
  0
LWPOLYLINE
  5
19b
100
AcDbEntity
  8
Layer_1
 62
1
100
AcDbPolyline
 90
2
 70
0
 10
83.514627
 20
193.532482
 30
0.0
 10
83.514627
 20
193.532482
 30
0.0
  0
SPLINE
  5
19c
100
AcDbEntity
  8
Layer_1
 62
1
100
AcDbSpline
 70
8
 71
3
 72
8
 73
4
 74
0
 40
0
 40
0
 40
0
 40
0
 40
1
 40
1
 40
1
 40
1
 10
84.242230
 20
192.656049
 30
0.0
 10
84.638385
 20
192.384408
 30
0.0
 10
83.812913
 20
192.426504
 30
0.0
 10
84.242230
 20
192.656049
 30
0.0
  0
LWPOLYLINE
  5
19d
100
AcDbEntity
  8
Layer_1
 62
1
100
AcDbPolyline
 90
2
 70
0
 10
72.596705
 20
193.379244
 30
0.0
 10
72.596705
 20
193.379244
 30
0.0
  0
SPLINE
  5
19e
100
AcDbEntity
  8
Layer_1
 62
1
100
AcDbSpline
 70
8
 71
3
 72
8
 73
4
 74
0
 40
0
 40
0
 40
0
 40
0
 40
1
 40
1
 40
1
 40
1
 10
46.688485
 20
192.382647
 30
0.0
 10
47.577849
 20
191.850138
 30
0.0
 10
48.523088
 20
190.980945
 30
0.0
 10
48.375203
 20
189.830519
 30
0.0
  0
SPLINE
  5
19f
100
AcDbEntity
  8
Layer_1
 62
1
100
AcDbSpline
 70
8
 71
3
 72
8
 73
4
 74
0
 40
0
 40
0
 40
0
 40
0
 40
1
 40
1
 40
1
 40
1
 10
48.375203
 20
189.830519
 30
0.0
 10
48.344207
 20
188.441515
 30
0.0
 10
48.964932
 20
187.149307
 30
0.0
 10
49.550396
 20
185.959336
 30
0.0
  0
SPLINE
  5
1a0
100
AcDbEntity
  8
Layer_1
 62
1
100
AcDbSpline
 70
8
 71
3
 72
8
 73
4
 74
0
 40
0
 40
0
 40
0
 40
0
 40
1
 40
1
 40
1
 40
1
 10
49.550396
 20
185.959336
 30
0.0
 10
49.939809
 20
185.061723
 30
0.0
 10
48.905524
 20
184.144583
 30
0.0
 10
48.057153
 20
184.657917
 30
0.0
  0
SPLINE
  5
1a1
100
AcDbEntity
  8
Layer_1
 62
1
100
AcDbSpline
 70
8
 71
3
 72
8
 73
4
 74
0
 40
0
 40
0
 40
0
 40
0
 40
1
 40
1
 40
1
 40
1
 10
48.057153
 20
184.657917
 30
0.0
 10
47.635581
 20
185.307313
 30
0.0
 10
47.865713
 20
186.220192
 30
0.0
 10
47.675713
 20
186.964203
 30
0.0
  0
SPLINE
  5
1a2
100
AcDbEntity
  8
Layer_1
 62
1
100
AcDbSpline
 70
8
 71
3
 72
8
 73
4
 74
0
 40
0
 40
0
 40
0
 40
0
 40
1
 40
1
 40
1
 40
1
 10
47.675713
 20
186.964203
 30
0.0
 10
47.497865
 20
188.586210
 30
0.0
 10
46.817856
 20
190.088386
 30
0.0
 10
46.082701
 20
191.524956
 30
0.0
  0
SPLINE
  5
1a3
100
AcDbEntity
  8
Layer_1
 62
1
100
AcDbSpline
 70
8
 71
3
 72
8
 73
4
 74
0
 40
0
 40
0
 40
0
 40
0
 40
1
 40
1
 40
1
 40
1
 10
46.082701
 20
191.524956
 30
0.0
 10
46.283400
 20
191.803817
 30
0.0
 10
46.417114
 20
192.164252
 30
0.0
 10
46.688485
 20
192.382647
 30
0.0
  0
LWPOLYLINE
  5
1a4
100
AcDbEntity
  8
Layer_1
 62
1
100
AcDbPolyline
 90
2
 70
0
 10
84.242230
 20
192.656049
 30
0.0
 10
84.242230
 20
192.656049
 30
0.0
  0
SPLINE
  5
1a5
100
AcDbEntity
  8
Layer_1
 62
1
100
AcDbSpline
 70
8
 71
3
 72
8
 73
4
 74
0
 40
0
 40
0
 40
0
 40
0
 40
1
 40
1
 40
1
 40
1
 10
84.687613
 20
191.515586
 30
0.0
 10
85.387835
 20
191.469299
 30
0.0
 10
85.569961
 20
190.543026
 30
0.0
 10
85.988480
 20
190.018485
 30
0.0
  0
SPLINE
  5
1a6
100
AcDbEntity
  8
Layer_1
 62
1
100
AcDbSpline
 70
8
 71
3
 72
8
 73
4
 74
0
 40
0
 40
0
 40
0
 40
0
 40
1
 40
1
 40
1
 40
1
 10
85.988480
 20
190.018485
 30
0.0
 10
85.176738
 20
189.744930
 30
0.0
 10
83.997188
 20
189.367108
 30
0.0
 10
83.095702
 20
189.267178
 30
0.0
  0
SPLINE
  5
1a7
100
AcDbEntity
  8
Layer_1
 62
1
100
AcDbSpline
 70
8
 71
3
 72
8
 73
4
 74
0
 40
0
 40
0
 40
0
 40
0
 40
1
 40
1
 40
1
 40
1
 10
83.095702
 20
189.267178
 30
0.0
 10
82.840034
 20
190.023890
 30
0.0
 10
83.170164
 20
191.083168
 30
0.0
 10
83.752752
 20
191.504563
 30
0.0
  0
SPLINE
  5
1a8
100
AcDbEntity
  8
Layer_1
 62
1
100
AcDbSpline
 70
8
 71
3
 72
8
 73
4
 74
0
 40
0
 40
0
 40
0
 40
0
 40
1
 40
1
 40
1
 40
1
 10
83.752752
 20
191.504563
 30
0.0
 10
83.952986
 20
191.495645
 30
0.0
 10
84.153344
 20
191.486498
 30
0.0
 10
84.353575
 20
191.477551
 30
0.0
  0
SPLINE
  5
1a9
100
AcDbEntity
  8
Layer_1
 62
1
100
AcDbSpline
 70
8
 71
3
 72
8
 73
4
 74
0
 40
0
 40
0
 40
0
 40
0
 40
1
 40
1
 40
1
 40
1
 10
84.353575
 20
191.477551
 30
0.0
 10
84.476971
 20
191.510591
 30
0.0
 10
84.587582
 20
191.522199
 30
0.0
 10
84.687613
 20
191.515586
 30
0.0
  0
LWPOLYLINE
  5
1aa
100
AcDbEntity
  8
Layer_1
 62
1
100
AcDbPolyline
 90
2
 70
0
 10
46.688485
 20
192.382647
 30
0.0
 10
46.688485
 20
192.382647
 30
0.0
  0
LWPOLYLINE
  5
1ab
100
AcDbEntity
  8
Layer_1
 62
1
100
AcDbPolyline
 90
2
 70
0
 10
84.687613
 20
191.515586
 30
0.0
 10
84.687613
 20
191.515586
 30
0.0
  0
SPLINE
  5
1ac
100
AcDbEntity
  8
Layer_1
 62
1
100
AcDbSpline
 70
8
 71
3
 72
8
 73
4
 74
0
 40
0
 40
0
 40
0
 40
0
 40
1
 40
1
 40
1
 40
1
 10
76.419936
 20
191.167217
 30
0.0
 10
75.011918
 20
190.275618
 30
0.0
 10
74.514487
 20
188.583851
 30
0.0
 10
73.329269
 20
187.476281
 30
0.0
  0
SPLINE
  5
1ad
100
AcDbEntity
  8
Layer_1
 62
1
100
AcDbSpline
 70
8
 71
3
 72
8
 73
4
 74
0
 40
0
 40
0
 40
0
 40
0
 40
1
 40
1
 40
1
 40
1
 10
73.329269
 20
187.476281
 30
0.0
 10
72.928158
 20
186.988274
 30
0.0
 10
72.788853
 20
186.254233
 30
0.0
 10
72.068092
 20
186.094383
 30
0.0
  0
SPLINE
  5
1ae
100
AcDbEntity
  8
Layer_1
 62
1
100
AcDbSpline
 70
8
 71
3
 72
8
 73
4
 74
0
 40
0
 40
0
 40
0
 40
0
 40
1
 40
1
 40
1
 40
1
 10
72.068092
 20
186.094383
 30
0.0
 10
71.623645
 20
186.067854
 30
0.0
 10
70.971898
 20
185.871952
 30
0.0
 10
70.627765
 20
186.005638
 30
0.0
  0
SPLINE
  5
1af
100
AcDbEntity
  8
Layer_1
 62
1
100
AcDbSpline
 70
8
 71
3
 72
8
 73
4
 74
0
 40
0
 40
0
 40
0
 40
0
 40
1
 40
1
 40
1
 40
1
 10
70.627765
 20
186.005638
 30
0.0
 10
71.381123
 20
187.918870
 30
0.0
 10
72.568497
 20
189.870852
 30
0.0
 10
74.535882
 20
190.717978
 30
0.0
  0
SPLINE
  5
1b0
100
AcDbEntity
  8
Layer_1
 62
1
100
AcDbSpline
 70
8
 71
3
 72
8
 73
4
 74
0
 40
0
 40
0
 40
0
 40
0
 40
1
 40
1
 40
1
 40
1
 10
74.535882
 20
190.717978
 30
0.0
 10
75.143072
 20
191.017933
 30
0.0
 10
75.811264
 20
191.145991
 30
0.0
 10
76.479465
 20
191.216826
 30
0.0
  0
LWPOLYLINE
  5
1b1
100
AcDbEntity
  8
Layer_1
 62
1
100
AcDbPolyline
 90
2
 70
0
 10
76.479465
 20
191.216826
 30
0.0
 10
76.419936
 20
191.167217
 30
0.0
  0
LWPOLYLINE
  5
1b2
100
AcDbEntity
  8
Layer_1
 62
1
100
AcDbPolyline
 90
2
 70
0
 10
76.479465
 20
191.216826
 30
0.0
 10
76.479465
 20
191.216826
 30
0.0
  0
SPLINE
  5
1b3
100
AcDbEntity
  8
Layer_1
 62
1
100
AcDbSpline
 70
8
 71
3
 72
8
 73
4
 74
0
 40
0
 40
0
 40
0
 40
0
 40
1
 40
1
 40
1
 40
1
 10
49.659534
 20
190.543794
 30
0.0
 10
51.258103
 20
190.362401
 30
0.0
 10
52.831218
 20
189.524370
 30
0.0
 10
53.863655
 20
188.292078
 30
0.0
  0
SPLINE
  5
1b4
100
AcDbEntity
  8
Layer_1
 62
1
100
AcDbSpline
 70
8
 71
3
 72
8
 73
4
 74
0
 40
0
 40
0
 40
0
 40
0
 40
1
 40
1
 40
1
 40
1
 10
53.863655
 20
188.292078
 30
0.0
 10
54.065142
 20
188.004132
 30
0.0
 10
54.200100
 20
187.694636
 30
0.0
 10
53.729709
 20
187.745273
 30
0.0
  0
SPLINE
  5
1b5
100
AcDbEntity
  8
Layer_1
 62
1
100
AcDbSpline
 70
8
 71
3
 72
8
 73
4
 74
0
 40
0
 40
0
 40
0
 40
0
 40
1
 40
1
 40
1
 40
1
 10
53.729709
 20
187.745273
 30
0.0
 10
52.661405
 20
187.632638
 30
0.0
 10
51.924348
 20
186.777806
 30
0.0
 10
51.010013
 20
186.354558
 30
0.0
  0
SPLINE
  5
1b6
100
AcDbEntity
  8
Layer_1
 62
1
100
AcDbSpline
 70
8
 71
3
 72
8
 73
4
 74
0
 40
0
 40
0
 40
0
 40
0
 40
1
 40
1
 40
1
 40
1
 10
51.010013
 20
186.354558
 30
0.0
 10
50.405140
 20
186.335875
 30
0.0
 10
50.274530
 20
187.202822
 30
0.0
 10
50.012312
 20
187.610777
 30
0.0
  0
SPLINE
  5
1b7
100
AcDbEntity
  8
Layer_1
 62
1
100
AcDbSpline
 70
8
 71
3
 72
8
 73
4
 74
0
 40
0
 40
0
 40
0
 40
0
 40
1
 40
1
 40
1
 40
1
 10
50.012312
 20
187.610777
 30
0.0
 10
49.641574
 20
188.542988
 30
0.0
 10
49.311642
 20
189.527780
 30
0.0
 10
49.345342
 20
190.543794
 30
0.0
  0
LWPOLYLINE
  5
1b8
100
AcDbEntity
  8
Layer_1
 62
1
100
AcDbPolyline
 90
2
 70
0
 10
49.345342
 20
190.543794
 30
0.0
 10
49.659534
 20
190.543794
 30
0.0
  0
SPLINE
  5
1b9
100
AcDbEntity
  8
Layer_1
 62
1
100
AcDbSpline
 70
8
 71
3
 72
8
 73
4
 74
0
 40
0
 40
0
 40
0
 40
0
 40
1
 40
1
 40
1
 40
1
 10
45.394231
 20
190.322204
 30
0.0
 10
45.851930
 20
189.781308
 30
0.0
 10
46.249392
 20
188.975877
 30
0.0
 10
46.334053
 20
188.359879
 30
0.0
  0
SPLINE
  5
1ba
100
AcDbEntity
  8
Layer_1
 62
1
100
AcDbSpline
 70
8
 71
3
 72
8
 73
4
 74
0
 40
0
 40
0
 40
0
 40
0
 40
1
 40
1
 40
1
 40
1
 10
46.334053
 20
188.359879
 30
0.0
 10
45.785476
 20
188.686732
 30
0.0
 10
45.033246
 20
188.737879
 30
0.0
 10
44.499059
 20
188.806363
 30
0.0
  0
SPLINE
  5
1bb
100
AcDbEntity
  8
Layer_1
 62
1
100
AcDbSpline
 70
8
 71
3
 72
8
 73
4
 74
0
 40
0
 40
0
 40
0
 40
0
 40
1
 40
1
 40
1
 40
1
 10
44.499059
 20
188.806363
 30
0.0
 10
44.759956
 20
189.302891
 30
0.0
 10
45.066402
 20
190.034346
 30
0.0
 10
45.394231
 20
190.322204
 30
0.0
  0
LWPOLYLINE
  5
1bc
100
AcDbEntity
  8
Layer_1
 62
1
100
AcDbPolyline
 90
2
 70
0
 10
49.345342
 20
190.543794
 30
0.0
 10
49.345342
 20
190.543794
 30
0.0
  0
SPLINE
  5
1bd
100
AcDbEntity
  8
Layer_1
 62
1
100
AcDbSpline
 70
8
 71
3
 72
8
 73
4
 74
0
 40
0
 40
0
 40
0
 40
0
 40
1
 40
1
 40
1
 40
1
 10
77.202659
 20
189.764925
 30
0.0
 10
77.370133
 20
188.851603
 30
0.0
 10
76.878146
 20
187.737811
 30
0.0
 10
77.753876
 20
187.102557
 30
0.0
  0
SPLINE
  5
1be
100
AcDbEntity
  8
Layer_1
 62
1
100
AcDbSpline
 70
8
 71
3
 72
8
 73
4
 74
0
 40
0
 40
0
 40
0
 40
0
 40
1
 40
1
 40
1
 40
1
 10
77.753876
 20
187.102557
 30
0.0
 10
78.426829
 20
186.424402
 30
0.0
 10
79.176863
 20
185.359445
 30
0.0
 10
78.398799
 20
184.460581
 30
0.0
  0
SPLINE
  5
1bf
100
AcDbEntity
  8
Layer_1
 62
1
100
AcDbSpline
 70
8
 71
3
 72
8
 73
4
 74
0
 40
0
 40
0
 40
0
 40
0
 40
1
 40
1
 40
1
 40
1
 10
78.398799
 20
184.460581
 30
0.0
 10
77.691477
 20
183.406292
 30
0.0
 10
76.492591
 20
182.563190
 30
0.0
 10
76.452456
 20
181.178094
 30
0.0
  0
SPLINE
  5
1c0
100
AcDbEntity
  8
Layer_1
 62
1
100
AcDbSpline
 70
8
 71
3
 72
8
 73
4
 74
0
 40
0
 40
0
 40
0
 40
0
 40
1
 40
1
 40
1
 40
1
 10
76.452456
 20
181.178094
 30
0.0
 10
76.293291
 20
180.108054
 30
0.0
 10
74.994414
 20
179.970674
 30
0.0
 10
74.204601
 20
179.540435
 30
0.0
  0
SPLINE
  5
1c1
100
AcDbEntity
  8
Layer_1
 62
1
100
AcDbSpline
 70
8
 71
3
 72
8
 73
4
 74
0
 40
0
 40
0
 40
0
 40
0
 40
1
 40
1
 40
1
 40
1
 10
74.204601
 20
179.540435
 30
0.0
 10
73.706222
 20
179.347903
 30
0.0
 10
73.145864
 20
179.114395
 30
0.0
 10
72.673876
 20
178.979298
 30
0.0
  0
SPLINE
  5
1c2
100
AcDbEntity
  8
Layer_1
 62
1
100
AcDbSpline
 70
8
 71
3
 72
8
 73
4
 74
0
 40
0
 40
0
 40
0
 40
0
 40
1
 40
1
 40
1
 40
1
 10
72.673876
 20
178.979298
 30
0.0
 10
73.658854
 20
180.571717
 30
0.0
 10
74.424461
 20
182.378591
 30
0.0
 10
74.310435
 20
184.289154
 30
0.0
  0
SPLINE
  5
1c3
100
AcDbEntity
  8
Layer_1
 62
1
100
AcDbSpline
 70
8
 71
3
 72
8
 73
4
 74
0
 40
0
 40
0
 40
0
 40
0
 40
1
 40
1
 40
1
 40
1
 10
74.310435
 20
184.289154
 30
0.0
 10
74.388918
 20
185.413970
 30
0.0
 10
74.196823
 20
186.733605
 30
0.0
 10
75.079931
 20
187.611880
 30
0.0
  0
SPLINE
  5
1c4
100
AcDbEntity
  8
Layer_1
 62
1
100
AcDbSpline
 70
8
 71
3
 72
8
 73
4
 74
0
 40
0
 40
0
 40
0
 40
0
 40
1
 40
1
 40
1
 40
1
 10
75.079931
 20
187.611880
 30
0.0
 10
75.577452
 20
188.517238
 30
0.0
 10
76.116488
 20
189.555200
 30
0.0
 10
77.202659
 20
189.764925
 30
0.0
  0
LWPOLYLINE
  5
1c5
100
AcDbEntity
  8
Layer_1
 62
1
100
AcDbPolyline
 90
2
 70
0
 10
45.394231
 20
190.322204
 30
0.0
 10
45.394231
 20
190.322204
 30
0.0
  0
SPLINE
  5
1c6
100
AcDbEntity
  8
Layer_1
 62
1
100
AcDbSpline
 70
8
 71
3
 72
8
 73
4
 74
0
 40
0
 40
0
 40
0
 40
0
 40
1
 40
1
 40
1
 40
1
 10
86.329131
 20
188.780455
 30
0.0
 10
86.427259
 20
188.782431
 30
0.0
 10
86.525916
 20
188.781934
 30
0.0
 10
86.624583
 20
188.777701
 30
0.0
  0
LWPOLYLINE
  5
1c7
100
AcDbEntity
  8
Layer_1
 62
1
100
AcDbPolyline
 90
2
 70
0
 10
77.202659
 20
189.764925
 30
0.0
 10
77.202659
 20
189.764925
 30
0.0
  0
SPLINE
  5
1c8
100
AcDbEntity
  8
Layer_1
 62
1
100
AcDbSpline
 70
8
 71
3
 72
8
 73
4
 74
0
 40
0
 40
0
 40
0
 40
0
 40
1
 40
1
 40
1
 40
1
 10
86.945391
 20
188.106319
 30
0.0
 10
87.607177
 20
187.360779
 30
0.0
 10
86.870890
 20
186.572241
 30
0.0
 10
86.503868
 20
185.863976
 30
0.0
  0
SPLINE
  5
1c9
100
AcDbEntity
  8
Layer_1
 62
1
100
AcDbSpline
 70
8
 71
3
 72
8
 73
4
 74
0
 40
0
 40
0
 40
0
 40
0
 40
1
 40
1
 40
1
 40
1
 10
86.503868
 20
185.863976
 30
0.0
 10
85.864847
 20
184.891255
 30
0.0
 10
84.723498
 20
183.902086
 30
0.0
 10
83.477695
 20
184.381206
 30
0.0
  0
SPLINE
  5
1ca
100
AcDbEntity
  8
Layer_1
 62
1
100
AcDbSpline
 70
8
 71
3
 72
8
 73
4
 74
0
 40
0
 40
0
 40
0
 40
0
 40
1
 40
1
 40
1
 40
1
 10
83.477695
 20
184.381206
 30
0.0
 10
82.085900
 20
184.784050
 30
0.0
 10
80.735514
 20
184.157709
 30
0.0
 10
79.489102
 20
183.609506
 30
0.0
  0
SPLINE
  5
1cb
100
AcDbEntity
  8
Layer_1
 62
1
100
AcDbSpline
 70
8
 71
3
 72
8
 73
4
 74
0
 40
0
 40
0
 40
0
 40
0
 40
1
 40
1
 40
1
 40
1
 10
79.489102
 20
183.609506
 30
0.0
 10
79.054644
 20
183.473374
 30
0.0
 10
80.065056
 20
184.206045
 30
0.0
 10
80.233794
 20
184.408768
 30
0.0
  0
SPLINE
  5
1cc
100
AcDbEntity
  8
Layer_1
 62
1
100
AcDbSpline
 70
8
 71
3
 72
8
 73
4
 74
0
 40
0
 40
0
 40
0
 40
0
 40
1
 40
1
 40
1
 40
1
 10
80.233794
 20
184.408768
 30
0.0
 10
81.183006
 20
185.092138
 30
0.0
 10
81.821076
 20
186.069110
 30
0.0
 10
82.403927
 20
187.055152
 30
0.0
  0
SPLINE
  5
1cd
100
AcDbEntity
  8
Layer_1
 62
1
100
AcDbSpline
 70
8
 71
3
 72
8
 73
4
 74
0
 40
0
 40
0
 40
0
 40
0
 40
1
 40
1
 40
1
 40
1
 10
82.403927
 20
187.055152
 30
0.0
 10
83.455756
 20
188.063978
 30
0.0
 10
84.857240
 20
188.751889
 30
0.0
 10
86.329131
 20
188.780455
 30
0.0
  0
LWPOLYLINE
  5
1ce
100
AcDbEntity
  8
Layer_1
 62
1
100
AcDbPolyline
 90
2
 70
0
 10
86.624583
 20
188.777701
 30
0.0
 10
86.945391
 20
188.106319
 30
0.0
  0
SPLINE
  5
1cf
100
AcDbEntity
  8
Layer_1
 62
1
100
AcDbSpline
 70
8
 71
3
 72
8
 73
4
 74
0
 40
0
 40
0
 40
0
 40
0
 40
1
 40
1
 40
1
 40
1
 10
44.931211
 20
187.664797
 30
0.0
 10
45.782518
 20
187.659943
 30
0.0
 10
46.868385
 20
187.085073
 30
0.0
 10
46.724866
 20
186.114779
 30
0.0
  0
SPLINE
  5
1d0
100
AcDbEntity
  8
Layer_1
 62
1
100
AcDbSpline
 70
8
 71
3
 72
8
 73
4
 74
0
 40
0
 40
0
 40
0
 40
0
 40
1
 40
1
 40
1
 40
1
 10
46.724866
 20
186.114779
 30
0.0
 10
46.788491
 20
185.649011
 30
0.0
 10
46.713634
 20
185.025124
 30
0.0
 10
46.065612
 20
185.132513
 30
0.0
  0
SPLINE
  5
1d1
100
AcDbEntity
  8
Layer_1
 62
1
100
AcDbSpline
 70
8
 71
3
 72
8
 73
4
 74
0
 40
0
 40
0
 40
0
 40
0
 40
1
 40
1
 40
1
 40
1
 10
46.065612
 20
185.132513
 30
0.0
 10
45.074721
 20
185.028915
 30
0.0
 10
44.057183
 20
184.924676
 30
0.0
 10
43.060936
 20
185.017310
 30
0.0
  0
SPLINE
  5
1d2
100
AcDbEntity
  8
Layer_1
 62
1
100
AcDbSpline
 70
8
 71
3
 72
8
 73
4
 74
0
 40
0
 40
0
 40
0
 40
0
 40
1
 40
1
 40
1
 40
1
 10
43.060936
 20
185.017310
 30
0.0
 10
43.309108
 20
185.883117
 30
0.0
 10
43.549183
 20
186.865498
 30
0.0
 10
44.024463
 20
187.595342
 30
0.0
  0
SPLINE
  5
1d3
100
AcDbEntity
  8
Layer_1
 62
1
100
AcDbSpline
 70
8
 71
3
 72
8
 73
4
 74
0
 40
0
 40
0
 40
0
 40
0
 40
1
 40
1
 40
1
 40
1
 10
44.024463
 20
187.595342
 30
0.0
 10
44.266903
 20
187.649503
 30
0.0
 10
44.517372
 20
187.655506
 30
0.0
 10
44.764743
 20
187.658182
 30
0.0
  0
SPLINE
  5
1d4
100
AcDbEntity
  8
Layer_1
 62
1
100
AcDbSpline
 70
8
 71
3
 72
8
 73
4
 74
0
 40
0
 40
0
 40
0
 40
0
 40
1
 40
1
 40
1
 40
1
 10
44.764743
 20
187.658182
 30
0.0
 10
44.818980
 20
187.662979
 30
0.0
 10
44.874457
 20
187.665136
 30
0.0
 10
44.931211
 20
187.664797
 30
0.0
  0
LWPOLYLINE
  5
1d5
100
AcDbEntity
  8
Layer_1
 62
1
100
AcDbPolyline
 90
2
 70
0
 10
86.329131
 20
188.780455
 30
0.0
 10
86.329131
 20
188.780455
 30
0.0
  0
LWPOLYLINE
  5
1d6
100
AcDbEntity
  8
Layer_1
 62
1
100
AcDbPolyline
 90
2
 70
0
 10
44.931211
 20
187.664797
 30
0.0
 10
44.931211
 20
187.664797
 30
0.0
  0
SPLINE
  5
1d7
100
AcDbEntity
  8
Layer_1
 62
1
100
AcDbSpline
 70
8
 71
3
 72
8
 73
4
 74
0
 40
0
 40
0
 40
0
 40
0
 40
1
 40
1
 40
1
 40
1
 10
53.928145
 20
186.625756
 30
0.0
 10
55.406177
 20
186.440723
 30
0.0
 10
55.771872
 20
184.734664
 30
0.0
 10
56.452160
 20
183.676201
 30
0.0
  0
SPLINE
  5
1d8
100
AcDbEntity
  8
Layer_1
 62
1
100
AcDbSpline
 70
8
 71
3
 72
8
 73
4
 74
0
 40
0
 40
0
 40
0
 40
0
 40
1
 40
1
 40
1
 40
1
 10
56.452160
 20
183.676201
 30
0.0
 10
57.239707
 20
182.447885
 30
0.0
 10
57.581374
 20
180.844936
 30
0.0
 10
58.757896
 20
179.903686
 30
0.0
  0
SPLINE
  5
1d9
100
AcDbEntity
  8
Layer_1
 62
1
100
AcDbSpline
 70
8
 71
3
 72
8
 73
4
 74
0
 40
0
 40
0
 40
0
 40
0
 40
1
 40
1
 40
1
 40
1
 10
58.757896
 20
179.903686
 30
0.0
 10
59.904257
 20
179.245769
 30
0.0
 10
61.397823
 20
178.919512
 30
0.0
 10
61.976993
 20
177.577557
 30
0.0
  0
SPLINE
  5
1da
100
AcDbEntity
  8
Layer_1
 62
1
100
AcDbSpline
 70
8
 71
3
 72
8
 73
4
 74
0
 40
0
 40
0
 40
0
 40
0
 40
1
 40
1
 40
1
 40
1
 10
61.976993
 20
177.577557
 30
0.0
 10
62.191062
 20
177.131911
 30
0.0
 10
62.360124
 20
176.463803
 30
0.0
 10
62.146767
 20
176.049035
 30
0.0
  0
SPLINE
  5
1db
100
AcDbEntity
  8
Layer_1
 62
1
100
AcDbSpline
 70
8
 71
3
 72
8
 73
4
 74
0
 40
0
 40
0
 40
0
 40
0
 40
1
 40
1
 40
1
 40
1
 10
62.146767
 20
176.049035
 30
0.0
 10
60.132541
 20
176.828206
 30
0.0
 10
58.144164
 20
178.033055
 30
0.0
 10
55.919136
 20
178.003094
 30
0.0
  0
SPLINE
  5
1dc
100
AcDbEntity
  8
Layer_1
 62
1
100
AcDbSpline
 70
8
 71
3
 72
8
 73
4
 74
0
 40
0
 40
0
 40
0
 40
0
 40
1
 40
1
 40
1
 40
1
 10
55.919136
 20
178.003094
 30
0.0
 10
54.734327
 20
177.853931
 30
0.0
 10
53.356899
 20
177.417271
 30
0.0
 10
52.270643
 20
178.096800
 30
0.0
  0
SPLINE
  5
1dd
100
AcDbEntity
  8
Layer_1
 62
1
100
AcDbSpline
 70
8
 71
3
 72
8
 73
4
 74
0
 40
0
 40
0
 40
0
 40
0
 40
1
 40
1
 40
1
 40
1
 10
52.270643
 20
178.096800
 30
0.0
 10
51.633052
 20
178.775025
 30
0.0
 10
50.787117
 20
179.437833
 30
0.0
 10
50.974735
 20
180.473642
 30
0.0
  0
SPLINE
  5
1de
100
AcDbEntity
  8
Layer_1
 62
1
100
AcDbSpline
 70
8
 71
3
 72
8
 73
4
 74
0
 40
0
 40
0
 40
0
 40
0
 40
1
 40
1
 40
1
 40
1
 10
50.974735
 20
180.473642
 30
0.0
 10
50.882872
 20
182.044220
 30
0.0
 10
50.797370
 20
183.611660
 30
0.0
 10
50.791181
 20
185.184879
 30
0.0
  0
SPLINE
  5
1df
100
AcDbEntity
  8
Layer_1
 62
1
100
AcDbSpline
 70
8
 71
3
 72
8
 73
4
 74
0
 40
0
 40
0
 40
0
 40
0
 40
1
 40
1
 40
1
 40
1
 10
50.791181
 20
185.184879
 30
0.0
 10
51.922152
 20
185.440553
 30
0.0
 10
52.750923
 20
186.388831
 30
0.0
 10
53.869167
 20
186.626307
 30
0.0
  0
LWPOLYLINE
  5
1e0
100
AcDbEntity
  8
Layer_1
 62
1
100
AcDbPolyline
 90
2
 70
0
 10
53.869167
 20
186.626307
 30
0.0
 10
53.928145
 20
186.625756
 30
0.0
  0
LWPOLYLINE
  5
1e1
100
AcDbEntity
  8
Layer_1
 62
1
100
AcDbPolyline
 90
2
 70
0
 10
53.869167
 20
186.626307
 30
0.0
 10
53.869167
 20
186.626307
 30
0.0
  0
SPLINE
  5
1e2
100
AcDbEntity
  8
Layer_1
 62
1
100
AcDbSpline
 70
8
 71
3
 72
8
 73
4
 74
0
 40
0
 40
0
 40
0
 40
0
 40
1
 40
1
 40
1
 40
1
 10
87.869228
 20
185.732785
 30
0.0
 10
87.896802
 20
185.231118
 30
0.0
 10
88.685150
 20
184.310944
 30
0.0
 10
87.837258
 20
184.259938
 30
0.0
  0
SPLINE
  5
1e3
100
AcDbEntity
  8
Layer_1
 62
1
100
AcDbSpline
 70
8
 71
3
 72
8
 73
4
 74
0
 40
0
 40
0
 40
0
 40
0
 40
1
 40
1
 40
1
 40
1
 10
87.837258
 20
184.259938
 30
0.0
 10
87.375667
 20
184.166404
 30
0.0
 10
86.570905
 20
183.935326
 30
0.0
 10
86.325273
 20
184.049375
 30
0.0
  0
SPLINE
  5
1e4
100
AcDbEntity
  8
Layer_1
 62
1
100
AcDbSpline
 70
8
 71
3
 72
8
 73
4
 74
0
 40
0
 40
0
 40
0
 40
0
 40
1
 40
1
 40
1
 40
1
 10
86.325273
 20
184.049375
 30
0.0
 10
86.874725
 20
184.670814
 30
0.0
 10
87.350978
 20
185.353513
 30
0.0
 10
87.757330
 20
186.076193
 30
0.0
  0
LWPOLYLINE
  5
1e5
100
AcDbEntity
  8
Layer_1
 62
1
100
AcDbPolyline
 90
2
 70
0
 10
87.757330
 20
186.076193
 30
0.0
 10
87.869228
 20
185.732785
 30
0.0
  0
LWPOLYLINE
  5
1e6
100
AcDbEntity
  8
Layer_1
 62
1
100
AcDbPolyline
 90
2
 70
0
 10
87.757330
 20
186.076193
 30
0.0
 10
87.757330
 20
186.076193
 30
0.0
  0
SPLINE
  5
1e7
100
AcDbEntity
  8
Layer_1
 62
1
100
AcDbSpline
 70
8
 71
3
 72
8
 73
4
 74
0
 40
0
 40
0
 40
0
 40
0
 40
1
 40
1
 40
1
 40
1
 10
73.016181
 20
184.542714
 30
0.0
 10
73.288612
 20
182.146362
 30
0.0
 10
71.554007
 20
180.163412
 30
0.0
 10
70.669105
 20
178.074203
 30
0.0
  0
SPLINE
  5
1e8
100
AcDbEntity
  8
Layer_1
 62
1
100
AcDbSpline
 70
8
 71
3
 72
8
 73
4
 74
0
 40
0
 40
0
 40
0
 40
0
 40
1
 40
1
 40
1
 40
1
 10
70.669105
 20
178.074203
 30
0.0
 10
70.237277
 20
176.888017
 30
0.0
 10
69.100940
 20
176.256805
 30
0.0
 10
68.217852
 20
175.457582
 30
0.0
  0
SPLINE
  5
1e9
100
AcDbEntity
  8
Layer_1
 62
1
100
AcDbSpline
 70
8
 71
3
 72
8
 73
4
 74
0
 40
0
 40
0
 40
0
 40
0
 40
1
 40
1
 40
1
 40
1
 10
68.217852
 20
175.457582
 30
0.0
 10
67.612421
 20
175.626060
 30
0.0
 10
67.465420
 20
176.473004
 30
0.0
 10
67.178812
 20
176.968465
 30
0.0
  0
SPLINE
  5
1ea
100
AcDbEntity
  8
Layer_1
 62
1
100
AcDbSpline
 70
8
 71
3
 72
8
 73
4
 74
0
 40
0
 40
0
 40
0
 40
0
 40
1
 40
1
 40
1
 40
1
 10
67.178812
 20
176.968465
 30
0.0
 10
66.629647
 20
178.359445
 30
0.0
 10
66.013502
 20
179.944605
 30
0.0
 10
66.758786
 20
181.362202
 30
0.0
  0
SPLINE
  5
1eb
100
AcDbEntity
  8
Layer_1
 62
1
100
AcDbSpline
 70
8
 71
3
 72
8
 73
4
 74
0
 40
0
 40
0
 40
0
 40
0
 40
1
 40
1
 40
1
 40
1
 10
66.758786
 20
181.362202
 30
0.0
 10
67.127120
 20
182.724531
 30
0.0
 10
68.165404
 20
183.788322
 30
0.0
 10
69.474072
 20
184.281438
 30
0.0
  0
SPLINE
  5
1ec
100
AcDbEntity
  8
Layer_1
 62
1
100
AcDbSpline
 70
8
 71
3
 72
8
 73
4
 74
0
 40
0
 40
0
 40
0
 40
0
 40
1
 40
1
 40
1
 40
1
 10
69.474072
 20
184.281438
 30
0.0
 10
70.550162
 20
184.820900
 30
0.0
 10
71.798908
 20
184.784519
 30
0.0
 10
72.967675
 20
185.014002
 30
0.0
  0
LWPOLYLINE
  5
1ed
100
AcDbEntity
  8
Layer_1
 62
1
100
AcDbPolyline
 90
2
 70
0
 10
72.967675
 20
185.014002
 30
0.0
 10
73.016181
 20
184.542714
 30
0.0
  0
SPLINE
  5
1ee
100
AcDbEntity
  8
Layer_1
 62
1
100
AcDbSpline
 70
8
 71
3
 72
8
 73
4
 74
0
 40
0
 40
0
 40
0
 40
0
 40
1
 40
1
 40
1
 40
1
 10
45.137917
 20
183.918737
 30
0.0
 10
46.318001
 20
183.708535
 30
0.0
 10
47.532507
 20
183.551693
 30
0.0
 10
48.704830
 20
183.391224
 30
0.0
  0
SPLINE
  5
1ef
100
AcDbEntity
  8
Layer_1
 62
1
100
AcDbSpline
 70
8
 71
3
 72
8
 73
4
 74
0
 40
0
 40
0
 40
0
 40
0
 40
1
 40
1
 40
1
 40
1
 10
48.704830
 20
183.391224
 30
0.0
 10
49.848973
 20
183.004100
 30
0.0
 10
49.756506
 20
181.602497
 30
0.0
 10
49.653472
 20
180.634046
 30
0.0
  0
SPLINE
  5
1f0
100
AcDbEntity
  8
Layer_1
 62
1
100
AcDbSpline
 70
8
 71
3
 72
8
 73
4
 74
0
 40
0
 40
0
 40
0
 40
0
 40
1
 40
1
 40
1
 40
1
 10
49.653472
 20
180.634046
 30
0.0
 10
49.646953
 20
180.137086
 30
0.0
 10
49.650932
 20
179.631683
 30
0.0
 10
49.784660
 20
179.149072
 30
0.0
  0
SPLINE
  5
1f1
100
AcDbEntity
  8
Layer_1
 62
1
100
AcDbSpline
 70
8
 71
3
 72
8
 73
4
 74
0
 40
0
 40
0
 40
0
 40
0
 40
1
 40
1
 40
1
 40
1
 10
49.784660
 20
179.149072
 30
0.0
 10
48.718371
 20
179.211372
 30
0.0
 10
47.599623
 20
179.185021
 30
0.0
 10
46.561705
 20
179.079619
 30
0.0
  0
SPLINE
  5
1f2
100
AcDbEntity
  8
Layer_1
 62
1
100
AcDbSpline
 70
8
 71
3
 72
8
 73
4
 74
0
 40
0
 40
0
 40
0
 40
0
 40
1
 40
1
 40
1
 40
1
 10
46.561705
 20
179.079619
 30
0.0
 10
45.680156
 20
179.796961
 30
0.0
 10
44.359593
 20
179.866435
 30
0.0
 10
43.702001
 20
180.896425
 30
0.0
  0
SPLINE
  5
1f3
100
AcDbEntity
  8
Layer_1
 62
1
100
AcDbSpline
 70
8
 71
3
 72
8
 73
4
 74
0
 40
0
 40
0
 40
0
 40
0
 40
1
 40
1
 40
1
 40
1
 10
43.702001
 20
180.896425
 30
0.0
 10
43.137461
 20
181.607106
 30
0.0
 10
42.267195
 20
182.521602
 30
0.0
 10
42.642014
 20
183.496507
 30
0.0
  0
SPLINE
  5
1f4
100
AcDbEntity
  8
Layer_1
 62
1
100
AcDbSpline
 70
8
 71
3
 72
8
 73
4
 74
0
 40
0
 40
0
 40
0
 40
0
 40
1
 40
1
 40
1
 40
1
 10
42.642014
 20
183.496507
 30
0.0
 10
43.468050
 20
183.734991
 30
0.0
 10
44.284395
 20
183.883121
 30
0.0
 10
45.137917
 20
183.918737
 30
0.0
  0
LWPOLYLINE
  5
1f5
100
AcDbEntity
  8
Layer_1
 62
1
100
AcDbPolyline
 90
2
 70
0
 10
72.967675
 20
185.014002
 30
0.0
 10
72.967675
 20
185.014002
 30
0.0
  0
SPLINE
  5
1f6
100
AcDbEntity
  8
Layer_1
 62
1
100
AcDbSpline
 70
8
 71
3
 72
8
 73
4
 74
0
 40
0
 40
0
 40
0
 40
0
 40
1
 40
1
 40
1
 40
1
 10
82.382981
 20
183.290352
 30
0.0
 10
83.852487
 20
183.300936
 30
0.0
 10
85.253573
 20
182.783061
 30
0.0
 10
86.697343
 20
182.590859
 30
0.0
  0
SPLINE
  5
1f7
100
AcDbEntity
  8
Layer_1
 62
1
100
AcDbSpline
 70
8
 71
3
 72
8
 73
4
 74
0
 40
0
 40
0
 40
0
 40
0
 40
1
 40
1
 40
1
 40
1
 10
86.697343
 20
182.590859
 30
0.0
 10
87.505424
 20
182.152387
 30
0.0
 10
88.358904
 20
181.614791
 30
0.0
 10
88.906615
 20
180.873825
 30
0.0
  0
SPLINE
  5
1f8
100
AcDbEntity
  8
Layer_1
 62
1
100
AcDbSpline
 70
8
 71
3
 72
8
 73
4
 74
0
 40
0
 40
0
 40
0
 40
0
 40
1
 40
1
 40
1
 40
1
 10
88.906615
 20
180.873825
 30
0.0
 10
88.870350
 20
179.877448
 30
0.0
 10
89.374060
 20
178.717176
 30
0.0
 10
88.518007
 20
177.924269
 30
0.0
  0
SPLINE
  5
1f9
100
AcDbEntity
  8
Layer_1
 62
1
100
AcDbSpline
 70
8
 71
3
 72
8
 73
4
 74
0
 40
0
 40
0
 40
0
 40
0
 40
1
 40
1
 40
1
 40
1
 10
88.518007
 20
177.924269
 30
0.0
 10
88.047926
 20
177.373603
 30
0.0
 10
87.579053
 20
176.384691
 30
0.0
 10
86.702855
 20
176.786011
 30
0.0
  0
SPLINE
  5
1fa
100
AcDbEntity
  8
Layer_1
 62
1
100
AcDbSpline
 70
8
 71
3
 72
8
 73
4
 74
0
 40
0
 40
0
 40
0
 40
0
 40
1
 40
1
 40
1
 40
1
 10
86.702855
 20
176.786011
 30
0.0
 10
85.574333
 20
176.974724
 30
0.0
 10
84.538752
 20
177.537439
 30
0.0
 10
83.522896
 20
178.010813
 30
0.0
  0
SPLINE
  5
1fb
100
AcDbEntity
  8
Layer_1
 62
1
100
AcDbSpline
 70
8
 71
3
 72
8
 73
4
 74
0
 40
0
 40
0
 40
0
 40
0
 40
1
 40
1
 40
1
 40
1
 10
83.522896
 20
178.010813
 30
0.0
 10
82.612792
 20
178.798935
 30
0.0
 10
81.854827
 20
179.985019
 30
0.0
 10
80.525386
 20
180.047551
 30
0.0
  0
SPLINE
  5
1fc
100
AcDbEntity
  8
Layer_1
 62
1
100
AcDbSpline
 70
8
 71
3
 72
8
 73
4
 74
0
 40
0
 40
0
 40
0
 40
0
 40
1
 40
1
 40
1
 40
1
 10
80.525386
 20
180.047551
 30
0.0
 10
79.625317
 20
180.332331
 30
0.0
 10
78.558466
 20
180.132040
 30
0.0
 10
77.751119
 20
180.639007
 30
0.0
  0
SPLINE
  5
1fd
100
AcDbEntity
  8
Layer_1
 62
1
100
AcDbSpline
 70
8
 71
3
 72
8
 73
4
 74
0
 40
0
 40
0
 40
0
 40
0
 40
1
 40
1
 40
1
 40
1
 10
77.751119
 20
180.639007
 30
0.0
 10
77.333294
 20
181.504665
 30
0.0
 10
78.381863
 20
182.126056
 30
0.0
 10
79.119236
 20
182.197292
 30
0.0
  0
SPLINE
  5
1fe
100
AcDbEntity
  8
Layer_1
 62
1
100
AcDbSpline
 70
8
 71
3
 72
8
 73
4
 74
0
 40
0
 40
0
 40
0
 40
0
 40
1
 40
1
 40
1
 40
1
 10
79.119236
 20
182.197292
 30
0.0
 10
80.251681
 20
182.431897
 30
0.0
 10
81.206828
 20
183.287319
 30
0.0
 10
82.382981
 20
183.290352
 30
0.0
  0
LWPOLYLINE
  5
1ff
100
AcDbEntity
  8
Layer_1
 62
1
100
AcDbPolyline
 90
2
 70
0
 10
45.137917
 20
183.918737
 30
0.0
 10
45.137917
 20
183.918737
 30
0.0
  0
SPLINE
  5
200
100
AcDbEntity
  8
Layer_1
 62
1
100
AcDbSpline
 70
8
 71
3
 72
8
 73
4
 74
0
 40
0
 40
0
 40
0
 40
0
 40
1
 40
1
 40
1
 40
1
 10
88.485486
 20
183.245702
 30
0.0
 10
88.518012
 20
183.253294
 30
0.0
 10
88.543260
 20
183.249879
 30
0.0
 10
88.534545
 20
183.196646
 30
0.0
  0
SPLINE
  5
201
100
AcDbEntity
  8
Layer_1
 62
1
100
AcDbSpline
 70
8
 71
3
 72
8
 73
4
 74
0
 40
0
 40
0
 40
0
 40
0
 40
1
 40
1
 40
1
 40
1
 10
88.534545
 20
183.196646
 30
0.0
 10
88.591057
 20
182.913933
 30
0.0
 10
88.817032
 20
182.311767
 30
0.0
 10
88.376895
 20
182.763940
 30
0.0
  0
SPLINE
  5
202
100
AcDbEntity
  8
Layer_1
 62
1
100
AcDbSpline
 70
8
 71
3
 72
8
 73
4
 74
0
 40
0
 40
0
 40
0
 40
0
 40
1
 40
1
 40
1
 40
1
 10
88.376895
 20
182.763940
 30
0.0
 10
87.995054
 20
182.974958
 30
0.0
 10
87.788606
 20
183.210952
 30
0.0
 10
88.392881
 20
183.226963
 30
0.0
  0
SPLINE
  5
203
100
AcDbEntity
  8
Layer_1
 62
1
100
AcDbSpline
 70
8
 71
3
 72
8
 73
4
 74
0
 40
0
 40
0
 40
0
 40
0
 40
1
 40
1
 40
1
 40
1
 10
88.392881
 20
183.226963
 30
0.0
 10
88.413260
 20
183.219286
 30
0.0
 10
88.452960
 20
183.238110
 30
0.0
 10
88.485486
 20
183.245702
 30
0.0
  0
LWPOLYLINE
  5
204
100
AcDbEntity
  8
Layer_1
 62
1
100
AcDbPolyline
 90
2
 70
0
 10
82.382981
 20
183.290352
 30
0.0
 10
82.382981
 20
183.290352
 30
0.0
  0
LWPOLYLINE
  5
205
100
AcDbEntity
  8
Layer_1
 62
1
100
AcDbPolyline
 90
2
 70
0
 10
88.485486
 20
183.245702
 30
0.0
 10
88.485486
 20
183.245702
 30
0.0
  0
SPLINE
  5
206
100
AcDbEntity
  8
Layer_1
 62
1
100
AcDbSpline
 70
8
 71
3
 72
8
 73
4
 74
0
 40
0
 40
0
 40
0
 40
0
 40
1
 40
1
 40
1
 40
1
 10
42.217027
 20
180.737675
 30
0.0
 10
43.200566
 20
179.657712
 30
0.0
 10
44.630281
 20
179.002197
 30
0.0
 10
45.592119
 20
177.958447
 30
0.0
  0
SPLINE
  5
207
100
AcDbEntity
  8
Layer_1
 62
1
100
AcDbSpline
 70
8
 71
3
 72
8
 73
4
 74
0
 40
0
 40
0
 40
0
 40
0
 40
1
 40
1
 40
1
 40
1
 10
45.592119
 20
177.958447
 30
0.0
 10
44.776243
 20
177.033669
 30
0.0
 10
43.365141
 20
176.460736
 30
0.0
 10
42.228603
 20
177.155327
 30
0.0
  0
SPLINE
  5
208
100
AcDbEntity
  8
Layer_1
 62
1
100
AcDbSpline
 70
8
 71
3
 72
8
 73
4
 74
0
 40
0
 40
0
 40
0
 40
0
 40
1
 40
1
 40
1
 40
1
 10
42.228603
 20
177.155327
 30
0.0
 10
41.860041
 20
178.301482
 30
0.0
 10
42.214907
 20
179.570110
 30
0.0
 10
42.206553
 20
180.749799
 30
0.0
  0
LWPOLYLINE
  5
209
100
AcDbEntity
  8
Layer_1
 62
1
100
AcDbPolyline
 90
2
 70
0
 10
42.206553
 20
180.749799
 30
0.0
 10
42.217027
 20
180.737675
 30
0.0
  0
SPLINE
  5
20a
100
AcDbEntity
  8
Layer_1
 62
1
100
AcDbSpline
 70
8
 71
3
 72
8
 73
4
 74
0
 40
0
 40
0
 40
0
 40
0
 40
1
 40
1
 40
1
 40
1
 10
77.301327
 20
179.124817
 30
0.0
 10
78.575984
 20
179.049859
 30
0.0
 10
79.927292
 20
178.883421
 30
0.0
 10
81.113534
 20
178.512418
 30
0.0
  0
SPLINE
  5
20b
100
AcDbEntity
  8
Layer_1
 62
1
100
AcDbSpline
 70
8
 71
3
 72
8
 73
4
 74
0
 40
0
 40
0
 40
0
 40
0
 40
1
 40
1
 40
1
 40
1
 10
81.113534
 20
178.512418
 30
0.0
 10
82.845173
 20
176.268647
 30
0.0
 10
86.125634
 20
175.836962
 30
0.0
 10
87.552279
 20
173.322726
 30
0.0
  0
SPLINE
  5
20c
100
AcDbEntity
  8
Layer_1
 62
1
100
AcDbSpline
 70
8
 71
3
 72
8
 73
4
 74
0
 40
0
 40
0
 40
0
 40
0
 40
1
 40
1
 40
1
 40
1
 10
87.552279
 20
173.322726
 30
0.0
 10
87.893923
 20
172.698265
 30
0.0
 10
88.448303
 20
172.025421
 30
0.0
 10
87.917734
 20
171.316301
 30
0.0
  0
SPLINE
  5
20d
100
AcDbEntity
  8
Layer_1
 62
1
100
AcDbSpline
 70
8
 71
3
 72
8
 73
4
 74
0
 40
0
 40
0
 40
0
 40
0
 40
1
 40
1
 40
1
 40
1
 10
87.917734
 20
171.316301
 30
0.0
 10
85.985260
 20
165.452598
 30
0.0
 10
81.746923
 20
160.264815
 30
0.0
 10
76.148187
 20
157.564583
 30
0.0
  0
SPLINE
  5
20e
100
AcDbEntity
  8
Layer_1
 62
1
100
AcDbSpline
 70
8
 71
3
 72
8
 73
4
 74
0
 40
0
 40
0
 40
0
 40
0
 40
1
 40
1
 40
1
 40
1
 10
76.148187
 20
157.564583
 30
0.0
 10
74.487992
 20
157.195691
 30
0.0
 10
72.589043
 20
157.502684
 30
0.0
 10
71.366944
 20
158.780563
 30
0.0
  0
SPLINE
  5
20f
100
AcDbEntity
  8
Layer_1
 62
1
100
AcDbSpline
 70
8
 71
3
 72
8
 73
4
 74
0
 40
0
 40
0
 40
0
 40
0
 40
1
 40
1
 40
1
 40
1
 10
71.366944
 20
158.780563
 30
0.0
 10
70.373830
 20
159.726067
 30
0.0
 10
69.311004
 20
160.739408
 30
0.0
 10
69.131767
 20
162.179910
 30
0.0
  0
SPLINE
  5
210
100
AcDbEntity
  8
Layer_1
 62
1
100
AcDbSpline
 70
8
 71
3
 72
8
 73
4
 74
0
 40
0
 40
0
 40
0
 40
0
 40
1
 40
1
 40
1
 40
1
 10
69.131767
 20
162.179910
 30
0.0
 10
68.742822
 20
163.370611
 30
0.0
 10
68.293350
 20
164.588609
 30
0.0
 10
68.382114
 20
165.844938
 30
0.0
  0
SPLINE
  5
211
100
AcDbEntity
  8
Layer_1
 62
1
100
AcDbSpline
 70
8
 71
3
 72
8
 73
4
 74
0
 40
0
 40
0
 40
0
 40
0
 40
1
 40
1
 40
1
 40
1
 10
68.382114
 20
165.844938
 30
0.0
 10
68.411265
 20
168.476675
 30
0.0
 10
68.620363
 20
171.177646
 30
0.0
 10
69.504388
 20
173.685424
 30
0.0
  0
SPLINE
  5
212
100
AcDbEntity
  8
Layer_1
 62
1
100
AcDbSpline
 70
8
 71
3
 72
8
 73
4
 74
0
 40
0
 40
0
 40
0
 40
0
 40
1
 40
1
 40
1
 40
1
 10
69.504388
 20
173.685424
 30
0.0
 10
70.129739
 20
174.975095
 30
0.0
 10
71.300069
 20
175.955298
 30
0.0
 10
72.494730
 20
176.674666
 30
0.0
  0
SPLINE
  5
213
100
AcDbEntity
  8
Layer_1
 62
1
100
AcDbSpline
 70
8
 71
3
 72
8
 73
4
 74
0
 40
0
 40
0
 40
0
 40
0
 40
1
 40
1
 40
1
 40
1
 10
72.494730
 20
176.674666
 30
0.0
 10
73.902276
 20
177.587954
 30
0.0
 10
75.157765
 20
179.026330
 30
0.0
 10
76.953511
 20
179.109936
 30
0.0
  0
SPLINE
  5
214
100
AcDbEntity
  8
Layer_1
 62
1
100
AcDbSpline
 70
8
 71
3
 72
8
 73
4
 74
0
 40
0
 40
0
 40
0
 40
0
 40
1
 40
1
 40
1
 40
1
 10
76.953511
 20
179.109936
 30
0.0
 10
77.069222
 20
179.119249
 30
0.0
 10
77.185252
 20
179.123717
 30
0.0
 10
77.301327
 20
179.124817
 30
0.0
  0
LWPOLYLINE
  5
215
100
AcDbEntity
  8
Layer_1
 62
1
100
AcDbPolyline
 90
2
 70
0
 10
42.206553
 20
180.749799
 30
0.0
 10
42.206553
 20
180.749799
 30
0.0
  0
SPLINE
  5
216
100
AcDbEntity
  8
Layer_1
 62
1
100
AcDbSpline
 70
8
 71
3
 72
8
 73
4
 74
0
 40
0
 40
0
 40
0
 40
0
 40
1
 40
1
 40
1
 40
1
 10
48.161883
 20
177.963408
 30
0.0
 10
50.174446
 20
177.594479
 30
0.0
 10
51.939706
 20
176.142411
 30
0.0
 10
54.045005
 20
176.126757
 30
0.0
  0
SPLINE
  5
217
100
AcDbEntity
  8
Layer_1
 62
1
100
AcDbSpline
 70
8
 71
3
 72
8
 73
4
 74
0
 40
0
 40
0
 40
0
 40
0
 40
1
 40
1
 40
1
 40
1
 10
54.045005
 20
176.126757
 30
0.0
 10
55.257463
 20
176.263270
 30
0.0
 10
56.462498
 20
176.978272
 30
0.0
 10
57.686332
 20
176.440952
 30
0.0
  0
SPLINE
  5
218
100
AcDbEntity
  8
Layer_1
 62
1
100
AcDbSpline
 70
8
 71
3
 72
8
 73
4
 74
0
 40
0
 40
0
 40
0
 40
0
 40
1
 40
1
 40
1
 40
1
 10
57.686332
 20
176.440952
 30
0.0
 10
59.759771
 20
175.753001
 30
0.0
 10
61.542679
 20
174.410958
 30
0.0
 10
63.114149
 20
172.959475
 30
0.0
  0
SPLINE
  5
219
100
AcDbEntity
  8
Layer_1
 62
1
100
AcDbSpline
 70
8
 71
3
 72
8
 73
4
 74
0
 40
0
 40
0
 40
0
 40
0
 40
1
 40
1
 40
1
 40
1
 10
63.114149
 20
172.959475
 30
0.0
 10
64.268000
 20
170.301842
 30
0.0
 10
64.249966
 20
167.341334
 30
0.0
 10
63.527562
 20
164.572184
 30
0.0
  0
SPLINE
  5
21a
100
AcDbEntity
  8
Layer_1
 62
1
100
AcDbSpline
 70
8
 71
3
 72
8
 73
4
 74
0
 40
0
 40
0
 40
0
 40
0
 40
1
 40
1
 40
1
 40
1
 10
63.527562
 20
164.572184
 30
0.0
 10
63.108276
 20
162.875255
 30
0.0
 10
63.367274
 20
160.759565
 30
0.0
 10
61.843048
 20
159.555020
 30
0.0
  0
SPLINE
  5
21b
100
AcDbEntity
  8
Layer_1
 62
1
100
AcDbSpline
 70
8
 71
3
 72
8
 73
4
 74
0
 40
0
 40
0
 40
0
 40
0
 40
1
 40
1
 40
1
 40
1
 10
61.843048
 20
159.555020
 30
0.0
 10
59.893855
 20
157.826488
 30
0.0
 10
57.062768
 20
157.659698
 30
0.0
 10
54.608346
 20
158.078868
 30
0.0
  0
SPLINE
  5
21c
100
AcDbEntity
  8
Layer_1
 62
1
100
AcDbSpline
 70
8
 71
3
 72
8
 73
4
 74
0
 40
0
 40
0
 40
0
 40
0
 40
1
 40
1
 40
1
 40
1
 10
54.608346
 20
158.078868
 30
0.0
 10
52.201191
 20
158.703025
 30
0.0
 10
50.362073
 20
160.543354
 30
0.0
 10
48.637582
 20
162.216842
 30
0.0
  0
SPLINE
  5
21d
100
AcDbEntity
  8
Layer_1
 62
1
100
AcDbSpline
 70
8
 71
3
 72
8
 73
4
 74
0
 40
0
 40
0
 40
0
 40
0
 40
1
 40
1
 40
1
 40
1
 10
48.637582
 20
162.216842
 30
0.0
 10
46.605066
 20
164.414859
 30
0.0
 10
44.793704
 20
166.950228
 30
0.0
 10
43.830985
 20
169.816996
 30
0.0
  0
SPLINE
  5
21e
100
AcDbEntity
  8
Layer_1
 62
1
100
AcDbSpline
 70
8
 71
3
 72
8
 73
4
 74
0
 40
0
 40
0
 40
0
 40
0
 40
1
 40
1
 40
1
 40
1
 10
43.830985
 20
169.816996
 30
0.0
 10
43.987316
 20
171.136509
 30
0.0
 10
44.352134
 20
172.510945
 30
0.0
 10
45.018853
 20
173.676605
 30
0.0
  0
SPLINE
  5
21f
100
AcDbEntity
  8
Layer_1
 62
1
100
AcDbSpline
 70
8
 71
3
 72
8
 73
4
 74
0
 40
0
 40
0
 40
0
 40
0
 40
1
 40
1
 40
1
 40
1
 10
45.018853
 20
173.676605
 30
0.0
 10
45.628817
 20
174.006348
 30
0.0
 10
46.286761
 20
174.373685
 30
0.0
 10
46.492253
 20
175.097639
 30
0.0
  0
SPLINE
  5
220
100
AcDbEntity
  8
Layer_1
 62
1
100
AcDbSpline
 70
8
 71
3
 72
8
 73
4
 74
0
 40
0
 40
0
 40
0
 40
0
 40
1
 40
1
 40
1
 40
1
 10
46.492253
 20
175.097639
 30
0.0
 10
46.982230
 20
176.051313
 30
0.0
 10
47.026091
 20
177.348110
 30
0.0
 10
47.976124
 20
177.951281
 30
0.0
  0
SPLINE
  5
221
100
AcDbEntity
  8
Layer_1
 62
1
100
AcDbSpline
 70
8
 71
3
 72
8
 73
4
 74
0
 40
0
 40
0
 40
0
 40
0
 40
1
 40
1
 40
1
 40
1
 10
47.976124
 20
177.951281
 30
0.0
 10
48.037157
 20
177.963162
 30
0.0
 10
48.099799
 20
177.967162
 30
0.0
 10
48.161883
 20
177.963408
 30
0.0
  0
LWPOLYLINE
  5
222
100
AcDbEntity
  8
Layer_1
 62
1
100
AcDbPolyline
 90
2
 70
0
 10
77.301327
 20
179.124817
 30
0.0
 10
77.301327
 20
179.124817
 30
0.0
  0
LWPOLYLINE
  5
223
100
AcDbEntity
  8
Layer_1
 62
1
100
AcDbPolyline
 90
2
 70
0
 10
48.161883
 20
177.963408
 30
0.0
 10
48.161883
 20
177.963408
 30
0.0
  0
SPLINE
  5
224
100
AcDbEntity
  8
Layer_1
 62
1
100
AcDbSpline
 70
8
 71
3
 72
8
 73
4
 74
0
 40
0
 40
0
 40
0
 40
0
 40
1
 40
1
 40
1
 40
1
 10
45.587158
 20
176.264010
 30
0.0
 10
45.383224
 20
174.811773
 30
0.0
 10
43.675165
 20
174.406146
 30
0.0
 10
42.460113
 20
174.325386
 30
0.0
  0
SPLINE
  5
225
100
AcDbEntity
  8
Layer_1
 62
1
100
AcDbSpline
 70
8
 71
3
 72
8
 73
4
 74
0
 40
0
 40
0
 40
0
 40
0
 40
1
 40
1
 40
1
 40
1
 10
42.460113
 20
174.325386
 30
0.0
 10
42.484554
 20
174.773532
 30
0.0
 10
42.069983
 20
175.589654
 30
0.0
 10
42.365303
 20
175.801541
 30
0.0
  0
SPLINE
  5
226
100
AcDbEntity
  8
Layer_1
 62
1
100
AcDbSpline
 70
8
 71
3
 72
8
 73
4
 74
0
 40
0
 40
0
 40
0
 40
0
 40
1
 40
1
 40
1
 40
1
 10
42.365303
 20
175.801541
 30
0.0
 10
43.465109
 20
175.751105
 30
0.0
 10
44.572905
 20
175.873030
 30
0.0
 10
45.593770
 20
176.302045
 30
0.0
  0
LWPOLYLINE
  5
227
100
AcDbEntity
  8
Layer_1
 62
1
100
AcDbPolyline
 90
2
 70
0
 10
45.593770
 20
176.302045
 30
0.0
 10
45.587158
 20
176.264010
 30
0.0
  0
SPLINE
  5
228
100
AcDbEntity
  8
Layer_1
 62
1
100
AcDbSpline
 70
8
 71
3
 72
8
 73
4
 74
0
 40
0
 40
0
 40
0
 40
0
 40
1
 40
1
 40
1
 40
1
 10
88.644786
 20
175.722166
 30
0.0
 10
89.139245
 20
175.769240
 30
0.0
 10
88.640835
 20
174.990019
 30
0.0
 10
88.707076
 20
174.674306
 30
0.0
  0
SPLINE
  5
229
100
AcDbEntity
  8
Layer_1
 62
1
100
AcDbSpline
 70
8
 71
3
 72
8
 73
4
 74
0
 40
0
 40
0
 40
0
 40
0
 40
1
 40
1
 40
1
 40
1
 10
88.707076
 20
174.674306
 30
0.0
 10
88.654385
 20
174.116888
 30
0.0
 10
88.580886
 20
173.491080
 30
0.0
 10
88.225864
 20
174.297274
 30
0.0
  0
SPLINE
  5
22a
100
AcDbEntity
  8
Layer_1
 62
1
100
AcDbSpline
 70
8
 71
3
 72
8
 73
4
 74
0
 40
0
 40
0
 40
0
 40
0
 40
1
 40
1
 40
1
 40
1
 10
88.225864
 20
174.297274
 30
0.0
 10
88.013546
 20
174.710162
 30
0.0
 10
87.573383
 20
175.145569
 30
0.0
 10
87.514797
 20
175.552392
 30
0.0
  0
SPLINE
  5
22b
100
AcDbEntity
  8
Layer_1
 62
1
100
AcDbSpline
 70
8
 71
3
 72
8
 73
4
 74
0
 40
0
 40
0
 40
0
 40
0
 40
1
 40
1
 40
1
 40
1
 10
87.514797
 20
175.552392
 30
0.0
 10
87.832698
 20
175.689343
 30
0.0
 10
88.191329
 20
175.695690
 30
0.0
 10
88.532341
 20
175.701219
 30
0.0
  0
SPLINE
  5
22c
100
AcDbEntity
  8
Layer_1
 62
1
100
AcDbSpline
 70
8
 71
3
 72
8
 73
4
 74
0
 40
0
 40
0
 40
0
 40
0
 40
1
 40
1
 40
1
 40
1
 10
88.532341
 20
175.701219
 30
0.0
 10
88.574592
 20
175.712085
 30
0.0
 10
88.611823
 20
175.719033
 30
0.0
 10
88.644786
 20
175.722166
 30
0.0
  0
LWPOLYLINE
  5
22d
100
AcDbEntity
  8
Layer_1
 62
1
100
AcDbPolyline
 90
2
 70
0
 10
45.593770
 20
176.302045
 30
0.0
 10
45.593770
 20
176.302045
 30
0.0
  0
SPLINE
  5
22e
100
AcDbEntity
  8
Layer_1
 62
1
100
AcDbSpline
 70
8
 71
3
 72
8
 73
4
 74
0
 40
0
 40
0
 40
0
 40
0
 40
1
 40
1
 40
1
 40
1
 10
43.445134
 20
173.299023
 30
0.0
 10
43.897714
 20
173.268300
 30
0.0
 10
43.253081
 20
172.507570
 30
0.0
 10
43.226301
 20
172.214784
 30
0.0
  0
SPLINE
  5
22f
100
AcDbEntity
  8
Layer_1
 62
1
100
AcDbSpline
 70
8
 71
3
 72
8
 73
4
 74
0
 40
0
 40
0
 40
0
 40
0
 40
1
 40
1
 40
1
 40
1
 10
43.226301
 20
172.214784
 30
0.0
 10
42.954118
 20
171.334279
 30
0.0
 10
42.875225
 20
172.779262
 30
0.0
 10
42.711466
 20
173.098933
 30
0.0
  0
SPLINE
  5
230
100
AcDbEntity
  8
Layer_1
 62
1
100
AcDbSpline
 70
8
 71
3
 72
8
 73
4
 74
0
 40
0
 40
0
 40
0
 40
0
 40
1
 40
1
 40
1
 40
1
 10
42.711466
 20
173.098933
 30
0.0
 10
42.592698
 20
173.363064
 30
0.0
 10
43.303410
 20
173.243303
 30
0.0
 10
43.445134
 20
173.299023
 30
0.0
  0
LWPOLYLINE
  5
231
100
AcDbEntity
  8
Layer_1
 62
1
100
AcDbPolyline
 90
2
 70
0
 10
88.644786
 20
175.722166
 30
0.0
 10
88.644786
 20
175.722166
 30
0.0
  0
LWPOLYLINE
  5
232
100
AcDbEntity
  8
Layer_1
 62
1
100
AcDbPolyline
 90
2
 70
0
 10
43.445134
 20
173.299023
 30
0.0
 10
43.445134
 20
173.299023
 30
0.0
  0
ENDSEC
  0
SECTION
  2
OBJECTS
  0
DICTIONARY
  5
C
330
0
100
AcDbDictionary
  3
ACAD_GROUP
350
D
  3
ACAD_MLINESTYLE
350
17
  0
DICTIONARY
  5
D
330
C
100
AcDbDictionary
  0
DICTIONARY
  5
1A
330
C
100
AcDbDictionary
  0
DICTIONARY
  5
17
330
C
100
AcDbDictionary
  3
STANDARD
350
18
  0
DICTIONARY
  5
19
330
C
100
AcDbDictionary
  0
ENDSEC
  0
EOF
