<?xml version="1.0" encoding="UTF-8" standalone="no"?>
<!-- Created with Inkscape (http://www.inkscape.org/) -->

<svg
   xmlns:dc="http://purl.org/dc/elements/1.1/"
   xmlns:cc="http://creativecommons.org/ns#"
   xmlns:rdf="http://www.w3.org/1999/02/22-rdf-syntax-ns#"
   xmlns:svg="http://www.w3.org/2000/svg"
   xmlns="http://www.w3.org/2000/svg"
   xmlns:sodipodi="http://sodipodi.sourceforge.net/DTD/sodipodi-0.dtd"
   xmlns:inkscape="http://www.inkscape.org/namespaces/inkscape"
   width="210mm"
   height="297mm"
   viewBox="0 0 744.09448819 1052.3622047"
   id="svg2"
   version="1.1"
   inkscape:version="0.91 r13725"
   sodipodi:docname="luci.svg">
  <defs
     id="defs4">
    <clipPath
       id="clipPath4147"
       clipPathUnits="userSpaceOnUse">
      <path
         inkscape:connector-curvature="0"
         id="path4149"
         d="m 0,70.866 113.386,0 L 113.386,0 0,0 0,70.866 Z" />
    </clipPath>
    <clipPath
       id="clipPath4423"
       clipPathUnits="userSpaceOnUse">
      <path
         inkscape:connector-curvature="0"
         id="path4425"
         d="m 0,70.866 113.386,0 L 113.386,0 0,0 0,70.866 Z" />
    </clipPath>
  </defs>
  <sodipodi:namedview
     id="base"
     pagecolor="#ffffff"
     bordercolor="#666666"
     borderopacity="1.0"
     inkscape:pageopacity="0.0"
     inkscape:pageshadow="2"
     inkscape:zoom="3.959798"
     inkscape:cx="109.8394"
     inkscape:cy="367.92897"
     inkscape:document-units="mm"
     inkscape:current-layer="layer1"
     showgrid="false"
     inkscape:window-width="1440"
     inkscape:window-height="837"
     inkscape:window-x="-4"
     inkscape:window-y="-4"
     inkscape:window-maximized="1" />
  <metadata
     id="metadata7">
    <rdf:RDF>
      <cc:Work
         rdf:about="">
        <dc:format>image/svg+xml</dc:format>
        <dc:type
           rdf:resource="http://purl.org/dc/dcmitype/StillImage" />
        <dc:title></dc:title>
      </cc:Work>
    </rdf:RDF>
  </metadata>
  <g
     inkscape:label="Layer 1"
     inkscape:groupmode="layer"
     id="layer1">
    <path
       inkscape:connector-curvature="0"
       id="path4153"
       style="fill:#bfb290;fill-opacity:1;fill-rule:nonzero;stroke:none"
       d="m 159.45962,716.27194 c 0.56875,-0.72625 1.33875,-1.17125 2.2025,-1.495 -0.41625,-0.56375 -0.7275,-1.1875 -0.95,-1.86375 -0.27625,0.65 -0.89125,1.09625 -1.7,1.42875 -0.3275,0.13375 -0.59625,0.34625 -0.84,0.58875 0.7825,0.25125 1.13125,0.74375 1.2875,1.34125" />
    <path
       inkscape:connector-curvature="0"
       id="path4157"
       style="fill:#32242a;fill-opacity:1;fill-rule:nonzero;stroke:none"
       d="m 98.625997,732.71719 c 0,-10e-4 0.004,0.009 0.009,0.0187 0.0525,0.0137 0.1075,0.0288 0.16,0.0425 0,0 -0.1675,-0.0612 -0.16875,-0.0612" />
    <path
       inkscape:connector-curvature="0"
       id="path4161"
       style="fill:#967e72;fill-opacity:1;fill-rule:nonzero;stroke:none"
       d="m 163.19375,723.48256 c 0.37375,1.00625 1.1125,1.60375 2.135,1.8675 l 0.004,-0.0187 c 0.0913,-0.18875 0.1175,-0.3925 0.075,-0.5975 -0.085,-0.37375 -0.16625,-0.7475 -0.2525,-1.12125 -0.4575,0.16375 -0.86875,0.19375 -1.09625,-0.36375 -0.1675,-0.415 -0.35375,-0.82625 -0.53125,-1.2375 -0.12125,-0.15625 -0.24125,-0.3125 -0.35625,-0.4675 -0.4075,-0.11 -0.67875,-0.385 -0.9,-0.72125 0.2575,0.075 0.51375,0.15125 0.7725,0.22875 0.41875,-0.80875 1.1975,-1.44875 1.105,-2.4825 -0.855,0.6825 -1.70625,1.365 -2.56,2.04875 -0.72625,0.36 -1.445,0.6 -2.05,-0.21625 -0.28875,0.10875 -0.5175,0.0263 -0.7,-0.195 -0.14,0.0937 -0.29,0.165 -0.455,0.20875 -0.002,-10e-4 -0.005,-10e-4 -0.007,-0.003 -0.115,0.15125 -0.2425,0.2925 -0.39625,0.41 0.12,-0.0438 0.24125,-0.0825 0.37125,-0.10375 0.1475,0.0113 0.29875,0.01 0.44125,0.0412 0.97875,0.22875 1.0525,0.37875 0.48625,1.0975 -0.405,0.52 -0.98375,0.94375 -0.7725,1.73125 -0.6625,0.025 -1.325,0.0512 -1.985,0.0762 0.44125,0.7525 0.15375,0.9525 -1.18125,1.60875 0.7925,0.7875 0.85125,0.86625 0.06,1.6675 0.004,0.14 -0.045,0.26625 -0.16875,0.38625 0.0525,0.0962 0.1025,0.1925 0.15625,0.29 0.7025,0.88375 0.7025,0.88375 1.07125,0.18125 0.5,-0.94625 0.5,-0.94625 1.865,-0.54 0.20625,-0.0987 0.4125,-0.195 0.6175,-0.29125 0,-0.003 0.001,-0.004 0.002,-0.006 0.3375,-0.20125 0.56625,-0.48 0.635,-0.875 0.31875,-0.45625 0.63625,-0.91125 0.955,-1.36375 0.68875,-0.695 1.43,-1.32 2.32125,-1.74375 0.145,-0.08 0.27625,-0.17125 0.39875,-0.2775 -0.02,0.26125 -0.0388,0.52 -0.06,0.78125" />
    <path
       inkscape:connector-curvature="0"
       id="path4165"
       style="fill:#967e72;fill-opacity:1;fill-rule:nonzero;stroke:none"
       d="m 139.8515,728.55218 c -0.09,-0.1175 -0.18625,-0.23375 -0.28625,-0.34375 -0.31375,-0.0725 -0.62375,-0.17375 -0.92625,-0.285 -0.002,0 -0.006,0 -0.009,-0.001 -0.002,-10e-4 -0.004,-0.002 -0.007,-0.004 -0.3625,-0.1325 -0.72375,-0.28125 -1.08125,-0.42875 -0.0462,-0.0187 -0.095,-0.0362 -0.14375,-0.0562 -0.27875,-0.11125 -0.56,-0.2175 -0.84625,-0.31125 -0.006,-10e-4 -0.01,-0.003 -0.015,-0.005 -0.28875,-0.0925 -0.58,-0.1675 -0.88125,-0.21875 -0.1625,-0.0275 -0.32375,-0.05 -0.49125,-0.06 -0.23625,-0.0937 -0.4725,-0.1875 -0.7125,-0.2825 -0.12125,-0.3 -0.36625,-0.775 0.14,-0.77875 0.675,0 1.36875,0.22625 2.0325,0.43125 0.11375,0.035 0.22625,0.0763 0.3375,0.1125 0.1925,0.065 0.38375,0.1275 0.57375,0.19125 0.009,0.004 0.0175,0.007 0.0275,0.01 0.76,0.2575 1.5175,0.52625 2.275,0.79 0.74375,0.11375 1.47125,0.2625 2.19375,1.02625 -0.88375,0.0863 -1.5325,0.15125 -2.18,0.21375 m 14.25375,2.2725 c -0.3375,-0.58375 -0.7375,-1.10125 -1.3875,-1.39125 -0.33,-0.1475 -0.48875,-0.4275 -0.44,-0.8025 -0.26625,-0.005 -0.60625,-0.11625 -0.79625,0 -1.215,0.7825 -2.3925,0.58125 -3.58125,-0.0275 -0.30875,-0.19375 -0.59625,-0.42 -0.8875,-0.645 -0.5525,-0.42875 -1.1125,-0.8475 -1.84,-0.98125 l -0.0125,-0.006 c -0.45875,-0.0412 -0.78125,-0.27375 -0.97375,-0.6875 -0.80625,-0.5175 -1.67625,-0.915 -2.59,-1.16125 -0.20875,-0.055 -0.41875,-0.1125 -0.63125,-0.15125 -0.97875,-0.1875 -1.96,-0.35 -2.94,-0.51375 -0.30125,-0.05 -0.60375,-0.0987 -0.9075,-0.15 l 0,0.0312 c -0.009,-0.015 -0.0225,-0.0225 -0.0312,-0.0362 -1.27125,-0.21 -2.5425,-0.4175 -3.81375,-0.6275 -0.004,0 -0.005,-10e-4 -0.009,-10e-4 -0.535,-0.0913 -1.1425,-0.265 -1.56375,0.10875 -0.815,0.72625 -1.8,0.32375 -2.8425,0.4025 0.52125,1.685 1.67875,2.48375 2.94,3.19375 1.73,1.73375 3.7725,2.92125 6.1775,3.44625 l 0,-0.001 0,0.001 c 0.48,0.1725 0.96,0.3425 1.4375,0.5175 0.22375,0.9475 0.22375,0.9475 -0.78875,1.60375 -0.45,-0.105 -0.885,-0.0625 -1.30375,0.13375 l 0.002,-0.0362 c -0.24,-0.0113 -0.47625,-0.0288 -0.715,-0.0438 -0.3375,0.1 -0.67625,0.195 -1.01375,0.295 0.0937,0.19 0.19,0.38375 0.2825,0.5725 -0.155,0.095 -0.3125,0.19875 -0.4675,0.29875 -0.005,0.0113 -0.0113,0.0225 -0.0163,0.0338 0.005,-0.0113 0.007,-0.0238 0.0125,-0.035 -0.135,0.07 -0.2675,0.15375 -0.38875,0.25125 0.0337,0.15125 0.08,0.2975 0.13625,0.44 -0.15,0.0862 -0.2975,0.17 -0.4425,0.2675 -0.5975,0.3675 -1.19125,0.74375 -1.7875,1.115 l -0.2125,-0.13625 c -1.06,0.79 -2,1.6625 -2.1425,3.09125 -0.97375,0.95375 -1.78375,2.03625 -2.47,3.2125 -0.5125,0.905 -0.8425,1.87875 -0.98,2.91375 -0.89375,1.3125 -0.2975,2.61 0.0725,3.90125 0.1025,0.36125 0.48625,0.50125 0.8625,0.55375 0.3525,0.0513 0.705,0.12 1.05625,0.175 0.30875,-0.78625 1.215,-1.1525 1.41625,-2.0125 0.2375,-0.3225 0.47625,-0.64875 0.715,-0.9725 0.4725,-1.42 1.535,-2.4725 2.335,-3.685 0.007,-0.01 0.015,-0.0187 0.0225,-0.0275 0.72125,-0.55875 1.6725,-0.86375 2.035,-1.82375 0.88,-0.4025 1.6675,-0.9225 2.3475,-1.62625 0.3525,-0.36625 0.825,-0.6175 1.2475,-0.915 0.39,-0.42375 0.77375,-0.84 1.1625,-1.265 0.15375,-0.0963 0.3075,-0.19 0.45875,-0.28375 0.9,-0.42875 1.40625,-1.12125 1.34375,-2.1325 -0.0738,-1.1325 0.5775,-1.61625 1.545,-1.87625 0.69375,-0.18875 1.38125,-0.40625 2.07125,-0.60625 0.57375,-0.0387 1.14375,-0.07 1.7175,-0.1 l 0.004,0 c -0.001,-10e-4 -0.001,-0.004 -0.002,-0.005 0.1325,-0.08 0.2575,-0.19 0.40375,-0.22375 0.0888,-0.0187 0.20375,0.0838 0.3075,0.1325 -0.0375,0.0675 -0.0575,0.155 -0.11375,0.19875 -0.1275,0.0888 -0.275,0.15625 -0.41125,0.23125 -0.26375,0.315 -0.53,0.62875 -0.795,0.94125 0.005,0.0125 0.009,0.0237 0.0138,0.0362 -0.0125,-0.003 -0.0238,-0.005 -0.0375,-0.008 -1.035,1.28875 -2.06375,2.58 -3.50875,3.44625 -0.29875,0.14875 -0.59625,0.29125 -0.89625,0.445 -0.5375,0.8625 -1.465,1.21625 -2.2825,1.7225 -1.4125,0.87375 -2.97,1.55125 -4.02,2.92625 -1.06125,0.675 -1.8125,1.6525 -2.55875,2.6425 -0.5325,0.70125 -1.07625,1.4 -1.6175,2.095 -0.6475,1.24625 -1.24875,2.53625 -2.64125,3.1625 0.25625,0.4525 0.32375,1.1 0.94,1.2175 0.575,0.105 1.02375,-0.27 1.4275,-0.6175 0.26875,-0.2375 0.52875,-0.51 0.69875,-0.8175 1.38125,-2.44625 3.34,-4.43625 5.14125,-6.55 0.78125,-0.44125 1.54375,-0.93375 2.35375,-1.32625 1.325,-0.63375 2.45125,-1.50125 3.38625,-2.6275 2.00875,-1.4025 3.09125,-3.44875 3.95375,-5.6525 0.88,-0.59875 1.8375,-1.0975 2.39875,-2.06625 0.39625,-0.1425 0.7875,-0.25875 1.19125,-0.0325 0.46875,0.0513 0.7975,0.335 1.12,0.64375 0.40125,0.385 0.905,0.51875 1.45,0.53 0,-10e-4 -0.001,-10e-4 -0.001,-0.002 0.12625,-0.10375 0.26125,-0.2 0.4025,-0.28125 0.0975,-0.24 0.23625,-0.46 0.27875,-0.7225 0.11125,-0.1125 0.23,-0.21625 0.35625,-0.31625 -0.12125,-0.305 -0.24125,-0.61375 -0.3625,-0.92125" />
    <path
       inkscape:connector-curvature="0"
       id="path4169"
       style="fill:#bfb290;fill-opacity:1;fill-rule:nonzero;stroke:none"
       d="m 139.83812,727.31194 c -0.7575,-0.2625 -1.515,-0.53125 -2.275,-0.79 -0.01,-0.003 -0.0188,-0.006 -0.0275,-0.01 -0.19,-0.0625 -0.38125,-0.12625 -0.57375,-0.19125 -0.1125,-0.0362 -0.22375,-0.0762 -0.3375,-0.1125 -0.665,-0.205 -1.3575,-0.43125 -2.0325,-0.43125 -0.5075,0.004 -0.26125,0.47875 -0.14125,0.78 0.24125,0.095 0.47625,0.1875 0.71375,0.28125 0.1675,0.01 0.3275,0.0325 0.48875,0.06 0.30375,0.0513 0.595,0.1275 0.8825,0.21875 0.005,0.003 0.01,0.005 0.0163,0.006 0.28625,0.0925 0.5675,0.19875 0.84625,0.31125 0.0487,0.0188 0.0975,0.0362 0.14375,0.0563 0.35875,0.145 0.71625,0.295 1.08,0.4275 0.004,10e-4 0.006,0.002 0.009,0.004 0.002,10e-4 0.006,10e-4 0.009,10e-4 0.3025,0.11125 0.61,0.21375 0.92625,0.285 0.0987,0.11125 0.195,0.22625 0.28625,0.34375 0.64625,-0.0625 1.29625,-0.12625 2.18,-0.21375 -0.7225,-0.76375 -1.45,-0.9125 -2.19375,-1.02625" />
    <path
       inkscape:connector-curvature="0"
       id="path4173"
       style="fill:#bfb290;fill-opacity:1;fill-rule:nonzero;stroke:none"
       d="m 132.011,747.20456 c 0.5425,-0.695 1.085,-1.39375 1.61875,-2.095 0.74625,-0.99 1.49625,-1.9675 2.55875,-2.6425 1.05,-1.375 2.6075,-2.0525 4.02,-2.92625 0.8175,-0.50625 1.74375,-0.86 2.2825,-1.7225 0.29875,-0.15375 0.59625,-0.29625 0.89625,-0.445 1.445,-0.86625 2.4725,-2.1575 3.5075,-3.44625 0.009,-0.01 0.0175,-0.0188 0.025,-0.0288 0.265,-0.3125 0.53125,-0.62625 0.795,-0.94 0.13625,-0.0763 0.2825,-0.14375 0.41125,-0.2325 0.0563,-0.0437 0.075,-0.13125 0.1125,-0.19875 -0.10375,-0.0487 -0.2175,-0.15125 -0.3075,-0.1325 -0.14625,0.0337 -0.27,0.145 -0.40375,0.22375 0.001,0.001 0.001,0.004 0.002,0.005 l -0.004,0 c -0.57375,0.03 -1.14375,0.0612 -1.7175,0.1 -0.69,0.2 -1.37625,0.4175 -2.07,0.60625 -0.96875,0.26 -1.61875,0.74375 -1.545,1.87625 0.0613,1.01125 -0.445,1.70375 -1.345,2.1325 -0.15125,0.0937 -0.305,0.1875 -0.45875,0.28375 -0.3875,0.425 -0.77125,0.84125 -1.1625,1.265 -0.42125,0.2975 -0.89375,0.54875 -1.2475,0.915 -0.68,0.705 -1.46625,1.22375 -2.3475,1.62625 -0.3625,0.96 -1.3125,1.265 -2.03375,1.82375 -0.007,0.009 -0.015,0.0188 -0.0225,0.0275 -0.80125,1.2125 -1.8625,2.265 -2.335,3.68625 -0.24,0.3225 -0.47875,0.64875 -0.715,0.97125 -0.2025,0.86 -1.1075,1.22625 -1.41625,2.0125 0.0425,0.16875 0.13,0.30625 0.26125,0.4175 1.3925,-0.62625 1.9925,-1.91625 2.64,-3.1625" />
    <path
       inkscape:connector-curvature="0"
       id="path4177"
       style="fill:#bfb290;fill-opacity:1;fill-rule:nonzero;stroke:none"
       d="m 93.548367,731.54656 c -1.80625,-0.99875 -3.53125,-1.70125 -5.3375,-2.24125 -0.8,-0.40375 -1.58,-1.04375 -2.49625,-0.945 -1.27125,0.1475 -2.52375,-0.007 -3.785,0.0125 -0.2825,0.007 -0.5675,0.14375 -0.57375,0.44625 -0.007,0.24625 0.0738,0.5775 0.245,0.725 0.47125,0.40875 1.10625,0.6625 1.50625,1.125 1.84125,2.135 4.325,2.83 6.94625,3.27125 2.14625,0.755 2.48875,-1.04 3.495,-2.39375" />
    <path
       inkscape:connector-curvature="0"
       id="path4181"
       style="fill:#967e72;fill-opacity:1;fill-rule:nonzero;stroke:none"
       d="m 102.7305,735.73719 0,-0.11875 c -0.62375,-0.41 -1.235,-0.85625 -2.0625,-0.73125 -0.47875,0.0712 -0.807503,-0.22 -1.091253,-0.55875 0,-10e-4 -10e-4,-10e-4 -10e-4,-0.002 l 10e-4,0 c 0.15625,-0.0825 0.3125,-0.175 0.468753,-0.26375 0.60625,-0.28 1.365,-0.2775 1.365,-1.33875 -0.001,-0.715 0.4975,-0.91625 1.115,-0.6675 0.41125,0.16375 0.7725,0.45125 1.15125,0.68125 0.9,0.83625 1.0575,0.8125 1.64375,-0.27625 0.6275,-1.885 0.39125,-2.2825 -1.47,-2.28625 -0.5475,0.004 -1.065,0.055 -1.55,-0.27375 -0.73375,-0.49625 -1.4825,-0.97125 -2.22625,-1.46 -0.466253,-0.70625 -1.132503,-1.16 -1.907503,-1.46375 -0.3325,-0.50125 -0.6875,-0.97375 -1.31,-1.145 -0.8075,0.0263 -1.62,0.0562 -2.42625,0.08 -1.58125,0.06 -1.77125,0.3325 -1.39,2.00875 0.83,0.52 1.70375,0.9525 2.31,1.8025 0.47875,0.67875 1.2025,1.1 2.12,0.75625 1.01875,0.36125 1.6925,1.01 1.7925,2.14375 -0.1525,0.05 -0.3125,0.10625 -0.46875,0.155 -0.0525,-0.0137 -0.1075,-0.0288 -0.16,-0.0425 -0.1775,-0.05 -0.35625,-0.0987 -0.535,-0.1475 -0.69,-0.0812 -1.38125,-0.17625 -2.07125,-0.25 -0.46125,-0.05 -0.89625,0.0713 -1.1075,0.5075 -0.20875,0.43125 -0.0288,0.86375 0.27125,1.19875 0.28625,0.32125 0.635,0.58625 0.9575,0.88 l -0.001,10e-4 c -0.30875,0.17125 -0.61875,0.34375 -0.92875,0.5175 -0.97375,-0.3875 -1.8925,-0.2225 -2.78,0.2725 -0.84,0.47125 -1.6825,0.9475 -2.525,1.42125 -0.96,0.4975 -1.91875,0.9975 -2.8775,1.4925 -0.6225,0.0762 -0.4225,0.385 -0.2,0.7 0.89,0.15375 1.7775,0.305 2.66625,0.4625 0.54,0.36375 1.1175,0.395 1.7525,0.30125 0.86375,-0.12125 1.7375,-0.155 2.605,-0.23 0.16,-0.26 0.0812,-0.41625 -0.2125,-0.47625 -0.09,-0.15125 -0.1825,-0.3075 -0.28,-0.46125 0.065,-0.255 0.0475,-0.59875 0.20625,-0.74625 0.38125,-0.36125 0.5925,0.0275 0.79375,0.295 0.2025,0.27625 0.3725,0.84 0.67625,0.7125 1.2275,-0.51625 2.5725,0 3.835,-0.70375 1.403753,-0.785 2.518753,-1.9025 3.851253,-2.74625" />
    <path
       inkscape:connector-curvature="0"
       id="path4185"
       style="fill:#bfb290;fill-opacity:1;fill-rule:nonzero;stroke:none"
       d="m 135.59375,733.29456 c -0.5275,-0.12125 -1.04625,-0.295 -1.5775,-0.33875 -1.5175,-0.1275 -2.8925,-0.36125 -3.2375,-2.235 -0.065,-0.37125 -0.5475,-0.68375 -0.865,-0.99625 -0.3875,-0.3775 -0.86625,-0.675 -1.19375,-1.095 -1.17625,-1.50625 -2.74625,-2.30375 -4.565,-2.70375 -2.43875,-0.37625 -4.83875,-1.07 -7.345,-0.9175 l 0,-0.0113 c -0.2425,-0.0762 -0.4875,-0.14375 -0.72875,-0.2325 -0.605,0.05 -1.05625,0.21875 -0.7125,0.9675 0.15,0.32375 0.2975,0.64375 0.44875,0.96125 0.001,10e-4 0.001,0.003 0.002,0.003 l -0.002,0 c -1.0375,0.12 -2.02875,-0.62875 -3.085,-0.17 -0.001,10e-4 -0.002,0.002 -0.004,0.004 -0.2325,-0.0775 -0.4625,-0.145 -0.69625,-0.21875 -0.34625,-0.425 -0.7775,-0.7 -1.3275,-0.80375 -0.60125,-0.11875 -1.28375,-0.125 -1.78125,-0.43 -1.12625,-0.6875 -2.33375,-0.75125 -3.5775,-0.75125 -0.64,-0.3825 -1.2875,-0.5675 -1.95625,-0.055 -0.41,0.39 -0.14375,0.74 0.0775,1.09375 10e-4,0 10e-4,-0.001 0.002,-0.001 0.31375,0.3175 0.725,0.58125 0.9175,0.9625 0.845,1.68 2.32625,2.67625 3.84875,3.6 1.135,0.6875 2.33625,1.30125 3.565,1.80625 0.91625,0.3725 1.7875,0.775 2.56375,1.38875 -0.565,0.32 -1.14125,0.4625 -1.7925,0.2525 -0.7025,-0.2325 -1.41375,-0.17375 -2.1125,0.0462 -1.10375,0.35125 -2.205,0.70625 -3.30625,1.0625 -1.08625,-0.28375 -2.0325,-0.15625 -2.6875,0.8775 -0.60875,-0.23625 -1.13375,0.004 -1.65,0.285 l 0,0.0788 c 0.43625,0.31125 0.91875,0.4475 1.4575,0.37125 0.41125,-0.0263 0.8225,-0.0525 1.23125,-0.0862 0.56375,-0.0288 1.125,-0.0612 1.685,-0.0975 0.40375,0.0525 0.805,0.0975 1.5725,0.1925 -1.65875,0.94 -3.03,1.715 -4.4025,2.4875 -0.16375,0.0875 -0.32375,0.17375 -0.485,0.26 -0.0775,0.25125 -0.1825,0.48375 -0.31875,0.705 -0.9325,0.50375 -1.8675,1.00875 -2.8,1.51375 -0.42375,-0.16 -0.813753,-0.0638 -1.188753,0.15 -0.40625,0.175 -0.68875,0.46875 -0.79625,0.9 -0.14,0.22125 -0.3075,0.42875 -0.415,0.66 -0.33,0.7125 -0.15875,1.05875 0.50125,0.98125 0.42,-0.0487 0.82375,-0.235 1.233753,-0.35875 10e-4,-0.002 0.004,-0.005 0.005,-0.005 0.25,0.0525 0.5025,0.1025 0.75375,0.1525 0.76,0.205 1.39125,-0.1325 2.02,-0.47875 1.255,-0.67 2.57875,-1.2475 3.7375,-2.05875 1.19875,-0.83875 2.495,-1.23375 3.88375,-1.49125 0.43125,-0.2425 0.86875,-0.49 1.30375,-0.73375 0.41625,-0.405 0.5725,-0.9025 0.53375,-1.4675 l -0.009,-0.005 c 0.5775,-0.3275 1.2575,-0.54625 1.55125,-1.18625 0.0437,-0.0963 0.0788,-0.2 0.10375,-0.31625 10e-4,-0.006 0.004,-0.0113 0.006,-0.0188 l -0.004,0 0,-0.005 c 0.20625,-0.67 0.6975,-1.0575 1.355,-1.1525 1.09,-0.165 2.05625,-0.5975 2.9675,-1.18 0.24,-0.0625 0.4775,-0.17 0.72,-0.185 0.715,-0.0325 0.79875,0.095 0.635,0.87625 -0.0362,0.16 -0.09,0.31875 -0.1325,0.475 -0.505,0.31625 -1.07375,0.565 -1.18875,1.2475 -0.0638,0.26125 -0.12875,0.52375 -0.19125,0.785 -0.37625,0.22 -0.6725,0.4975 -0.69125,0.97125 -0.945,1.73375 -1.88875,3.475 -2.8325,5.20625 0,0.001 -0.001,0.002 -0.002,0.002 -0.0662,0.24125 -0.13625,0.48125 -0.2025,0.71875 -0.83375,0.9025 -1.59625,1.85125 -2.0875,2.99375 -0.38375,0.3475 -0.5825,0.70625 0.0138,1.02 0.63875,0.335 1.30875,0.57375 2.04875,0.50125 0.9725,0.22875 1.23,-0.82125 1.92875,-1.0775 0.39875,0.165 0.7925,0.195 1.18375,-0.0337 0.98625,-0.095 1.6475,-0.71375 2.25875,-1.41125 0.73,-0.7875 1.45875,-1.58 1.83125,-2.625 1.005,-0.96875 1.22,-2.37375 1.935,-3.5075 l 0,-10e-4 c 0.12125,-0.0875 0.22875,-0.1875 0.32125,-0.30625 0.08,-0.255 0.18375,-0.50875 0.36375,-0.7175 0.1225,-0.0675 0.22375,-0.15875 0.31,-0.27 1.27,-1.2575 2.75125,-2.215 4.36,-2.99125 0.875,-0.4275 1.715,-0.92875 2.57125,-1.40125 1.10625,0.34625 2.33625,0.0525 3.39875,0.63625 -0.76,0.52375 -1.74,0.77125 -2.14125,1.74 l 0.2125,0.13625 c 0.59625,-0.37125 1.19,-0.7475 1.7875,-1.115 0.145,-0.0975 0.2925,-0.18125 0.4425,-0.2675 -0.055,-0.1425 -0.1025,-0.28875 -0.13625,-0.44 0.1225,-0.0975 0.25375,-0.18125 0.39,-0.25125 -0.005,0.0113 -0.009,0.0237 -0.0138,0.035 0.006,-0.0113 0.0125,-0.0225 0.0175,-0.0337 0.155,-0.1 0.3125,-0.20375 0.4675,-0.29875 -0.0937,-0.18875 -0.19,-0.3825 -0.28375,-0.5725" />
    <path
       inkscape:connector-curvature="0"
       id="path4189"
       style="fill:#bfb290;fill-opacity:1;fill-rule:nonzero;stroke:none"
       d="m 159.18263,731.15831 c 0.0475,-0.25625 0.0975,-0.515 0.14625,-0.77 0.965,-1.15625 0.7875,-2.20625 -0.2725,-3.1875 -0.0575,-0.0562 -0.0738,-0.1575 -0.11375,-0.235 0,0 -0.001,0 -0.001,10e-4 -0.205,0.0975 -0.41125,0.19375 -0.6175,0.29125 -1.365,-0.405 -1.365,-0.405 -1.865,0.54 -0.36875,0.7025 -0.36875,0.7025 -1.07125,-0.18125 -0.0538,-0.0962 -0.10375,-0.1925 -0.15625,-0.28875 -0.205,0.2025 -0.59125,0.40375 -1.19875,0.70375 -0.245,0.0613 -0.4925,0.1025 -0.73625,0.0875 -0.3375,0.17 -0.6775,0.34 -1.0175,0.5125 -0.0487,0.37375 0.10875,0.65375 0.43875,0.80125 0.65125,0.29125 1.05,0.8075 1.3875,1.39125 0.12125,0.3075 0.24125,0.61625 0.36375,0.92125 -0.1275,0.1 -0.24625,0.20375 -0.3575,0.31625 -0.0425,0.2625 -0.18125,0.4825 -0.27875,0.7225 -0.14125,0.0812 -0.27625,0.1775 -0.4025,0.28125 0,10e-4 10e-4,10e-4 10e-4,0.002 -0.545,-0.0112 -1.0475,-0.145 -1.45,-0.53 -0.3225,-0.30875 -0.65125,-0.5925 -1.12,-0.64375 -0.455,0.81125 -0.4,1.77625 -0.7225,2.6025 -0.93,2.4 -0.805,4.7875 -0.16875,7.2 -0.165,0.70875 -0.22875,1.41375 0.0337,2.1175 0.27875,0.755 0.98125,1.05875 1.7275,0.7525 1.0375,-0.4275 1.68875,-1.31125 2.47875,-2.03 0.8125,-0.0175 1.66875,0.0525 1.88125,-1.04125 0.77125,-1.64875 1.54,-3.29875 2.31125,-4.94625 0.335,-0.37875 0.52,-0.82625 0.55375,-1.33375 0.35375,-0.4925 0.53375,-1.015 0.29125,-1.61625 -1.23375,-0.9175 -1.24,-1.11 -0.065,-2.44125" />
    <path
       inkscape:connector-curvature="0"
       id="path4193"
       style="fill:#bfb290;fill-opacity:1;fill-rule:nonzero;stroke:none"
       d="m 162.15375,705.31243 0.0163,-10e-4 c 0.21875,-0.10125 0.34875,-0.03 0.3825,0.20875 l 0.01,0.0125 c 0.12625,0.0662 0.25375,0.135 0.385,0.205 0.20375,-0.06 0.41125,-0.11875 0.6175,-0.1825 10e-4,0 0.004,-10e-4 0.005,-10e-4 0.19125,0.2775 0.385,0.555 0.57875,0.8325 1.015,-1.225 1.34875,-1.25375 2.12875,-0.1175 0.205,0.29625 0.3075,0.66625 0.45875,1.00125 0.48375,-0.755 0.84125,-1.55625 0.97875,-2.4625 0.0813,-0.5425 0.40125,-0.9525 0.95625,-1.12125 0.002,0 0.002,-10e-4 0.005,-10e-4 -0.002,10e-4 -0.002,0.003 -0.002,0.004 0.007,-0.003 0.0112,-0.008 0.0188,-0.009 0.1325,-0.005 0.2175,-0.0512 0.28125,-0.12 0.49875,-0.2525 0.6975,-0.78375 0.96375,-1.25125 l 0.003,0.009 c 0.46875,0.0325 0.8825,-0.0963 1.215,-0.44375 0.20375,-0.35875 0.40875,-0.72125 0.61125,-1.0825 0.2125,-1.15 0.53875,-2.22375 1.23625,-3.21625 0.6725,-0.9625 1.1525,-2.0625 1.7075,-3.10125 0.285,-0.52125 0.5675,-1.045 0.395,-1.67625 -0.02,-0.0138 -0.0438,-0.0288 -0.0625,-0.0425 0.0175,-0.003 0.0325,-0.004 0.0538,-0.006 -0.0388,-0.1925 -0.0763,-0.38375 -0.115,-0.57625 10e-4,-10e-4 0.002,-0.004 0.005,-0.005 0.1025,-0.3375 0.2575,-0.6725 0.29625,-1.0225 0.0637,-0.54625 -0.22375,-0.6875 -0.815,-0.41375 -0.19,0.09 -0.36125,0.22625 -0.5475,0.34375 -0.3575,0.09 -0.59875,0.325 -0.7475,0.66 -0.17625,0.30875 -0.25625,0.63375 -0.1225,0.985 -0.41875,0.775 -0.83625,1.54875 -1.25375,2.3225 -0.18375,0.115 -0.37875,0.19875 -0.585,0.26375 -0.0737,0.13625 -0.14375,0.2675 -0.21625,0.4025 -0.64125,1.13875 -1.28375,2.27625 -2.0625,3.6525 -0.08,-0.63625 -0.11875,-0.97125 -0.1625,-1.30375 0.0325,-0.46625 0.0588,-0.93125 0.0825,-1.39875 0.0275,-0.33875 0.05,-0.68125 0.0712,-1.0225 -0.2025,0.0562 -0.405,0.10875 -0.60875,0.16 -0.8575,0.545 -0.9625,1.33 -0.7275,2.22875 -0.295,0.91375 -0.58875,1.8275 -0.88125,2.7425 -0.18375,0.57875 -0.23125,1.17 -0.04,1.75125 0.17625,0.54125 0.0563,1.02 -0.20875,1.4875 -0.50875,-0.6425 -0.84125,-1.3675 -1.15125,-2.12625 -0.41875,-1.01875 -0.92625,-2.015 -1.4975,-2.95625 -0.765,-1.26125 -1.5925,-2.49125 -2.985,-3.19125 -0.315,-0.16 -0.53625,-0.5 -0.79875,-0.7625 10e-4,-10e-4 10e-4,-10e-4 10e-4,-10e-4 -0.29375,-0.18375 -0.58375,-0.40375 -0.90875,-0.065 -0.42375,0.555 -0.27125,1.09375 0.0462,1.6225 0,1.03125 0.055,2.0325 0.62375,2.9675 0.2525,0.4125 0.2575,0.98 0.35625,1.4775 0.085,0.455 0.315,0.8125 0.6675,1.10125 -0.1175,-0.875 0.0362,-1.66125 0.75,-2.25875 0.2975,-0.22375 0.5825,-0.13375 0.78,0.11125 0.27125,0.35 0.485,0.745 0.72875,1.1175 0.39875,0.41625 0.53375,0.9375 0.62125,1.48375 0.16625,0.41 0.345,0.8125 0.4925,1.22875 0.0637,0.18 -0.035,0.3 -0.21375,0.2975 -0.065,0 -0.15375,-0.0163 -0.1975,-0.0613 -0.19375,-0.215 -0.37875,-0.44875 -0.56875,-0.675 -0.68,-0.4175 -1.4,-0.6975 -2.21125,-0.665 0,0 0,-0.003 -0.001,-0.003 0,10e-4 -0.001,10e-4 -0.002,0.003 -0.3775,0.87625 0.24125,1.6975 0.13875,2.55875 l 0,0.001 c 0.135,0.1 0.27125,0.1975 0.40625,0.29625 0.20625,-0.065 0.4125,-0.13125 0.62,-0.195" />
    <path
       inkscape:connector-curvature="0"
       id="path4197"
       style="fill:#bfb290;fill-opacity:1;fill-rule:nonzero;stroke:none"
       d="m 163.29512,682.31681 c 0.44625,1.4975 1.03,2.93 1.8575,4.4275 1.1225,-0.8375 2.61,-1.11875 1.985,-2.89875 -0.36375,-2.17375 -0.9425,-4.23375 -2.7125,-5.7625 -0.3825,-0.33 -0.5925,-0.8575 -0.93375,-1.24625 -0.12125,-0.145 -0.39625,-0.21125 -0.60125,-0.205 -0.25125,0.007 -0.3625,0.24125 -0.37,0.47625 -0.015,1.045 0.1125,2.08375 -0.01,3.14 -0.0812,0.76 0.44875,1.40625 0.785,2.06875" />
    <path
       inkscape:connector-curvature="0"
       id="path4201"
       style="fill:#967e72;fill-opacity:1;fill-rule:nonzero;stroke:none"
       d="m 160.402,708.80244 c 0.49875,0.2825 0.95,0.325 1.315,-0.22625 0.0737,-0.11125 0.23625,-0.1625 0.35875,-0.23625 0.74375,-0.4125 1.45625,-0.43875 2.13125,0.14625 0.32875,0.88 -0.26375,1.42625 -0.73125,2.0175 -0.345,0.24875 -0.735,0.36 -1.15375,0.4 -0.36875,0.0287 -0.73625,0.055 -1.06375,0.2525 -0.006,0.003 -0.0137,0.006 -0.0187,0.008 0.57125,0.39625 1.17,0.76125 1.53125,1.37875 0.27,0.4625 0.165,0.7475 -0.275,0.96625 l 0.007,0.005 c -0.48875,-0.20625 -0.8875,-0.10125 -0.815,0.4025 0.10625,0.7575 0.495,1.49375 0.3225,2.27125 -0.0787,0.38375 -0.3275,0.63375 -0.70875,0.77125 -0.75125,0.12625 -1.2925,-0.2325 -1.8225,-0.62625 0.07,0.28625 0.0987,0.595 0.11125,0.91 1.0325,0.11625 2.055,-0.1775 3.085,-0.20375 0.14375,-0.34 0.17875,-0.675 0.17375,-1.01 0.28625,0.2625 0.5175,0.59 0.79375,0.87125 0.007,0.006 0.015,0.0175 0.0225,0.025 0.25125,0.26625 0.505,0.64 0.80125,0.69375 0.305,0.0562 0.545,0.155 0.75375,0.27 0.86125,0.475 1.015,1.40125 1.1,2.4125 0.0362,0.44 0.1825,0.87125 0.28125,1.30875 0.15875,0.08 0.3175,0.15875 0.47625,0.23625 0.0775,-0.12875 0.165,-0.25875 0.24625,-0.3875 0.0975,-0.0525 0.1975,-0.105 0.29875,-0.155 -0.0425,-0.10375 -0.0913,-0.20875 -0.135,-0.30875 -0.48625,-0.88 -0.24,-1.9 -0.5275,-2.81875 -0.055,-0.205 -0.11375,-0.41 -0.17,-0.615 -0.7025,-0.4475 -0.835,-1.06125 -0.53,-1.80375 -0.1925,-0.2775 -0.3875,-0.55625 -0.5825,-0.83 -0.0588,-0.20875 -0.11375,-0.41125 -0.1675,-0.615 0.45,0.0325 0.855,-0.0825 1.21625,-0.3525 -0.0187,-0.8125 -0.29375,-1.66 0.2875,-2.40625 0.38375,0.5475 0.77,1.09125 1.155,1.63375 0.27,-0.24 0.51,-0.54 0.82375,-0.705 0.45375,-0.2375 0.62,-0.59125 0.635,-1.05875 -0.12625,-0.07 -0.25125,-0.14 -0.3825,-0.2025 -0.74875,-0.65 -1.6575,-0.85125 -2.61625,-0.92625 0.35875,-0.6725 0.72125,-1.3425 1.075,-2.01375 -0.13125,0.0362 -0.26375,0.0788 -0.395,0.11125 -0.6475,0.1375 -0.75625,0.0662 -0.72625,-0.5275 0.0137,-0.2 0.1,-0.39625 0.1525,-0.595 -0.15125,-0.335 -0.25375,-0.705 -0.45875,-1.00125 -0.78,-1.13625 -1.1125,-1.1075 -2.12875,0.1175 -0.1925,-0.2775 -0.38625,-0.555 -0.57875,-0.8325 -0.001,0 -0.004,0.001 -0.005,0.001 -0.20625,0.0638 -0.41375,0.1225 -0.6175,0.1825 -0.13,-0.07 -0.25875,-0.13875 -0.38375,-0.205 l -0.01,-0.0125 c -0.035,-0.23875 -0.16375,-0.31 -0.38375,-0.20875 l -0.0162,0.001 c -0.2075,0.0638 -0.41375,0.13 -0.62,0.195 -0.135,-0.0987 -0.27125,-0.19625 -0.40625,-0.29625 0,-10e-4 -0.001,-10e-4 -0.001,-10e-4 -0.26125,-0.12375 -0.52375,-0.2475 -0.795,-0.37375 -0.62125,-0.28375 -0.76,0.0925 -0.80125,0.59375 0.07,0.19875 0.13,0.40125 0.1925,0.6025 l 0.009,0 c -0.0387,0.6475 -0.002,1.285 0.0662,1.91875 0.07,0.0463 0.14125,0.0937 0.21875,0.125 0.13,0.24125 0.25875,0.485 0.38625,0.72625" />
    <path
       inkscape:connector-curvature="0"
       id="path4205"
       style="fill:#6a5e50;fill-opacity:1;fill-rule:nonzero;stroke:none"
       d="m 160.71212,712.91369 c 0.2225,0.67625 0.53375,1.29875 0.95,1.8625 -0.86375,0.32375 -1.63375,0.76875 -2.2025,1.49625 0.007,0.02 0.0163,0.04 0.02,0.06 0.53,0.39375 1.07125,0.7525 1.8225,0.62625 0.38125,-0.1375 0.63,-0.3875 0.70875,-0.77125 0.1725,-0.7775 -0.21625,-1.51375 -0.3225,-2.27125 -0.0725,-0.50375 0.32625,-0.60875 0.815,-0.40375 l -0.007,-0.004 c 0.44,-0.21875 0.545,-0.50375 0.27375,-0.96625 -0.36,-0.6175 -0.95875,-0.9825 -1.53,-1.37875 -0.15,0.0787 -0.29875,0.15375 -0.4625,0.22375 0.14875,0.61125 0.11125,1.10875 -0.065,1.52625" />
    <path
       inkscape:connector-curvature="0"
       id="path4209"
       style="fill:#bfb290;fill-opacity:1;fill-rule:nonzero;stroke:none"
       d="m 178.85425,704.02519 c 0.0625,-0.615 -0.13875,-1.1675 -0.415,-1.69625 -0.26,-0.4975 -0.55875,-0.33125 -0.84625,-0.0137 -0.94875,0.4075 -1.735,1.04 -2.4825,1.7325 -0.1975,0.055 -0.3975,0.1125 -0.5975,0.165 0,10e-4 -0.001,0.002 -0.002,0.004 -1.43625,0.7825 -2.88,1.56625 -4.31625,2.3475 -0.3925,0.0163 -0.62125,0.26375 -0.805,0.57625 -0.22,0.0512 -0.43375,0.10375 -0.65125,0.1575 -0.565,0.0937 -0.7725,0.5675 -1.03375,0.98375 -0.35375,0.67125 -0.71625,1.34125 -1.07375,2.01375 0.9575,0.075 1.86625,0.27625 2.615,0.925 0.13125,0.0638 0.2575,0.13375 0.3825,0.2025 -0.015,0.4675 -0.18,0.8225 -0.635,1.06 -0.31375,0.165 -0.55375,0.465 -0.82375,0.705 l 0,0.004 c 0.004,0.85375 0,0.8575 -1.0475,0.95375 -0.13,-0.0612 -0.2625,-0.125 -0.395,-0.185 -0.36125,0.27 -0.765,0.38375 -1.21625,0.3525 0.0538,0.20375 0.10875,0.40625 0.1675,0.615 0.195,0.27375 0.39,0.5525 0.5825,0.83 -0.30375,0.7425 -0.1725,1.35625 0.53125,1.80375 0.0563,0.205 0.11375,0.41 0.16875,0.615 0.2875,0.91875 0.0425,1.93875 0.5275,2.81875 0.0438,0.1 0.0925,0.205 0.13625,0.30875 -0.10125,0.05 -0.2025,0.1025 -0.3,0.155 -0.0812,0.1275 -0.1675,0.25875 -0.24625,0.38625 -0.15875,-0.0762 -0.3175,-0.15625 -0.47625,-0.235 -0.0987,-0.4375 -0.245,-0.86875 -0.28,-1.30875 -0.0863,-1.0125 -0.24,-1.9375 -1.1,-2.41375 -0.0488,0.0412 -0.0925,0.0838 -0.14625,0.12 -0.29875,0.2025 -0.6175,0.375 -0.9275,0.56125 0.0937,1.0325 -0.685,1.67375 -1.10375,2.4825 -0.25875,-0.0775 -0.51625,-0.15375 -0.77375,-0.22875 0.2225,0.33625 0.49375,0.61125 0.90125,0.72125 0.115,0.155 0.235,0.31125 0.355,0.4675 0.17875,0.41125 0.36375,0.8225 0.5325,1.2375 0.2275,0.5575 0.63875,0.5275 1.09625,0.3625 0.085,0.375 0.1675,0.74875 0.2525,1.1225 0.0412,0.205 0.0162,0.40875 -0.075,0.59625 l -0.004,0.02 c -1.02375,-0.26375 -1.76125,-0.86125 -2.135,-1.8675 0.02,-0.26125 0.04,-0.52 0.06,-0.78125 -0.1225,0.10625 -0.255,0.1975 -0.39875,0.2775 0.085,0.16375 0.16625,0.33125 0.25125,0.495 -0.0537,0.5275 -0.24875,1.08875 -0.1325,1.5775 0.4125,1.735 0.9325,3.44125 1.41,5.16375 0.265,0.755 0.4925,1.53875 1.39375,1.80125 0.0725,0.13375 0.17,0.24125 0.29,0.33375 0.25125,0.23875 0.47875,0.52125 0.76625,0.72375 0.28625,0.20375 0.62375,0.34875 0.9625,0.0425 0.25625,-0.23375 0.16875,-0.51 0.0662,-0.7375 -0.3325,-0.73375 -0.70625,-1.45125 -1.065,-2.1775 1.68,-1.2325 2.1275,-3.135 2.6725,-4.97875 0.0625,-0.21875 -0.1125,-0.50875 -0.175,-0.7625 -0.001,-10e-4 -0.004,-0.002 -0.005,-0.002 0.001,-0.001 0.004,-0.001 0.005,-0.003 -0.31875,-1.6775 -0.6375,-3.3575 -0.955,-5.03375 0.21625,-0.62 -0.0613,-1.1675 -0.25,-1.73125 -0.0325,-0.46875 -0.0637,-0.93875 -0.095,-1.40875 0.0412,-0.0788 0.0875,-0.1575 0.12625,-0.2375 0.64625,-1.33625 1.4375,-2.5625 2.48125,-3.615 0.0925,-0.0725 0.16875,-0.1575 0.2225,-0.2575 0.175,-0.1475 0.385,-0.235 0.59625,-0.3 0.0975,-0.0788 0.18125,-0.16625 0.25375,-0.2675 0.94,-0.5925 2.10625,-0.77125 2.91,-1.60625 0.86625,-0.3075 1.5225,-0.91125 2.17625,-1.5175 0.58,-0.5075 1.09375,-1.055 1.1725,-1.875 0.18875,-0.32375 0.16375,-0.65 0.025,-0.98125 0.21375,-0.58 1.085,-0.79 0.895,-1.59875" />
    <path
       inkscape:connector-curvature="0"
       id="path4213"
       style="fill:#967e72;fill-opacity:1;fill-rule:nonzero;stroke:none"
       d="m 168.59662,694.40056 c 0.7025,-1.125 1.65,-2.05625 2.31,-3.23625 0.58125,-1.04625 0.15375,-2.1625 0.58125,-3.18 0.10625,-0.2525 -0.36125,-0.39375 -0.5875,-0.5625 -0.225,-0.16625 -0.5475,-0.34125 -0.24625,-0.65625 0.12375,-0.1325 0.40625,-0.11875 0.62,-0.17125 0.12375,0.0812 0.255,0.1575 0.38125,0.2325 0.0488,0.24125 0.17875,0.3075 0.395,0.175 0.0613,-0.71875 0.0913,-1.445 0.19125,-2.16 0.0762,-0.5275 0.0513,-1.0075 -0.25125,-1.45375 -0.12875,-0.73875 -0.255,-1.4725 -0.3825,-2.21125 -0.2625,-0.18375 -0.51625,-0.35 -0.58125,0.16625 -0.41125,0.79375 -0.8225,1.59 -1.2375,2.38625 -0.3925,0.7 -0.78875,1.39625 -1.17875,2.09375 -0.41,0.7375 -0.5475,1.49875 -0.2275,2.305 -0.14375,0.2575 -0.28375,0.51625 -0.4275,0.76875 -10e-4,0.001 -10e-4,0.001 -0.002,0.001 -0.2425,-0.2675 -0.46375,-0.555 -0.73,-0.7925 -0.27625,-0.2475 -0.63375,-0.3975 -0.99375,-0.22375 -0.3625,0.17375 -0.46125,0.535 -0.41875,0.9175 0.06,0.5725 0.13875,1.145 0.2075,1.71875 0.04,0.1475 0.08,0.295 0.12125,0.4425 -0.004,-0.001 -0.0163,-0.007 -0.0163,-0.007 0,0.002 0.0525,0.14 0.0525,0.14 -0.0425,0.13125 -0.0875,0.26375 -0.13,0.39 -0.94,-0.0838 -1.48,-0.64375 -1.77625,-1.48625 0.28375,-0.7625 -0.0662,-1.36125 -0.62625,-1.75875 -0.70625,-0.50375 -1.065,-1.2275 -1.49875,-1.9175 -1.3875,-0.315 -1.61375,-0.1575 -1.66375,1.1525 -0.0225,0.67125 -0.045,1.34375 -0.0675,2.01375 0.14125,0.51625 0.535,0.81125 0.95125,1.08625 0.25125,0.6425 0.6275,1.19625 1.21375,1.5825 0.40625,0.61625 0.79875,1.2375 1.21,1.84875 0.2725,0.4 0.23,0.8275 0.2275,1.28125 0.002,1.54375 0.3325,1.73875 1.89625,1.22125 0.9,-0.48875 0.92125,-0.61625 0.2275,-1.36375 -0.18875,-0.315 -0.4275,-0.61375 -0.565,-0.95375 -0.20375,-0.5125 -0.0388,-0.92625 0.5525,-0.925 0.8825,0 0.88,-0.62875 1.1125,-1.1325 0.0737,-0.13 0.14875,-0.25875 0.21875,-0.38875 l 0,-10e-4 c 0.001,0 0.001,10e-4 0.002,10e-4 0.28125,0.235 0.5225,0.5075 0.46375,0.905 -0.1075,0.70875 0.29,1.225 0.6375,1.75875 -0.23875,0.43625 -0.44625,0.875 -0.2475,1.39 0.205,-0.0512 0.4075,-0.105 0.61,-0.16 0.0637,-0.45625 -0.0513,-0.8675 -0.3275,-1.23625" />
    <path
       inkscape:connector-curvature="0"
       id="path4217"
       style="fill:#967e72;fill-opacity:1;fill-rule:nonzero;stroke:none"
       d="m 163.20362,703.31656 c 0.19,0.22625 0.375,0.45875 0.56875,0.675 0.0437,0.045 0.13375,0.0612 0.1975,0.0612 0.17875,0.003 0.2775,-0.1175 0.21375,-0.2975 -0.1475,-0.41625 -0.32625,-0.81875 -0.49125,-1.22875 -0.0888,-0.54625 -0.22375,-1.0675 -0.62125,-1.48375 -0.245,-0.3725 -0.45875,-0.76875 -0.72875,-1.1175 -0.19875,-0.24625 -0.48375,-0.335 -0.78,-0.11125 -0.715,0.5975 -0.86875,1.38375 -0.75125,2.2575 0.06,0.195 0.12,0.38625 0.18,0.57625 0.001,0.001 0.001,0.002 0.001,0.002 0.81125,-0.0312 1.53125,0.24875 2.21125,0.66625" />
    <path
       inkscape:connector-curvature="0"
       id="path4221"
       style="fill:#967e72;fill-opacity:1;fill-rule:nonzero;stroke:none"
       d="m 129.89062,710.42356 c 0.635,1.09625 1.61125,1.66875 2.96125,1.365 0.285,-0.21125 0.545,-0.4775 0.86375,-0.6125 0.26625,-0.115 0.58,0.0213 0.74125,0.28375 0.215,0.3525 -0.0362,0.49875 -0.3275,0.6325 -0.3175,0.14875 -0.6175,0.345 -0.925,0.525 -0.11,0.045 -0.215,0.0888 -0.3275,0.13625 0.01,0.15 0.02,0.3 0.03,0.44625 0.55125,-0.16125 0.92375,0.0537 1.165,0.54875 0.1125,-0.0937 0.22125,-0.19625 0.3425,-0.28125 0.19,-0.14375 0.4275,-0.215 0.58875,-0.02 0.17875,0.22 -0.0238,0.38125 -0.18625,0.52875 -0.27125,0.25125 -0.53625,0.50625 -0.80375,0.76 0.0475,0.145 0.0963,0.2925 0.14375,0.435 0.0188,-0.006 0.0437,0.006 0.0725,0.03 0.045,0.0187 0.0838,0.0375 0.0863,0.0612 0.002,0.0163 -0.004,0.0312 -0.004,0.0487 0.0462,0.08 0.0437,0.175 -0.0213,0.28875 0.2475,0.23 0.49625,0.46125 0.745,0.68875 0.2825,-0.1525 0.50375,-0.36125 0.36375,-0.7025 -0.22625,-0.55625 -0.1875,-1.08625 0.35,-1.3725 0.6125,-0.325 0.72625,-0.76625 0.8325,-1.415 0.20125,-1.23875 0.46125,-2.53875 1.8475,-3.11625 -0.31375,-0.34625 -0.625,-0.69 -0.93625,-1.0325 -0.695,0.3125 -0.695,0.3125 -1.2825,-0.91625 -0.58,0.68375 -1.325,0.8475 -2.145,0.715 -0.18375,0.4275 -0.57125,0.8825 -0.90875,0.45 -0.58125,-0.74625 -1.22375,-0.6125 -1.93875,-0.50625 0,0 0,-10e-4 0,-10e-4 -1.63875,0.6825 -2.66375,1.9 -3.13125,3.6 0.22375,0.22875 0.4975,0.26125 0.7875,0.22125 0.0412,-0.14875 0.0825,-0.29875 0.12875,-0.445 0.3675,-0.35875 0.10125,-1.08625 0.8875,-1.34375" />
    <path
       inkscape:connector-curvature="0"
       id="path4225"
       style="fill:#967e72;fill-opacity:1;fill-rule:nonzero;stroke:none"
       d="m 134.06412,708.44843 0.001,0 c 0.002,-0.007 0.007,-0.015 0.01,-0.0213 l -0.0112,0.0213 z" />
    <path
       inkscape:connector-curvature="0"
       id="path4229"
       style="fill:#52423b;fill-opacity:1;fill-rule:nonzero;stroke:none"
       d="m 138.2365,707.18431 c -0.0562,-0.215 -0.0875,-0.4375 -0.14125,-0.65125 -0.125,-0.51375 -0.47875,-0.69125 -0.9825,-0.70875 -0.21125,-0.008 -0.41625,-0.13125 -0.62375,-0.2025 l -0.17125,0.0412 c -0.68875,0.53125 -0.615,1.51375 -1.23625,2.10625 -0.8875,0.015 -1.74,-0.4075 -2.64125,-0.2175 -0.4275,-0.0688 -0.80625,-0.004 -1.01,0.44375 -0.0725,0.13125 -0.1425,0.2625 -0.21125,0.395 0,0 -0.001,0.001 -0.001,0.001 0.715,-0.10625 1.35875,-0.24 1.94,0.50625 0.33625,0.4325 0.725,-0.0225 0.9075,-0.45 l -10e-4,0 0.0113,-0.0213 c -0.002,0.008 -0.007,0.0137 -0.01,0.0213 0.82,0.1325 1.565,-0.0312 2.145,-0.715 0.58875,1.22875 0.58875,1.22875 1.2825,0.91625 0.1475,-0.0925 0.2675,-0.1675 0.3725,-0.23625 0.59125,-0.38375 0.565,-0.4975 0.37125,-1.22875" />
    <path
       inkscape:connector-curvature="0"
       id="path4233"
       style="fill:#967e72;fill-opacity:1;fill-rule:nonzero;stroke:none"
       d="m 144.84662,702.17456 c -0.001,0 -0.002,0 -0.005,10e-4 -2.51875,-0.75375 -4.78875,-0.32375 -6.77125,1.44625 -0.795,0.49875 -1.47875,1.0925 -1.7525,2.04125 0.11625,-0.0462 0.22875,-0.09 0.345,-0.135 0.19875,-0.0725 0.37875,-0.1175 0.5475,-0.14125 0.7625,-0.24875 1.5225,-0.4975 2.2875,-0.7475 1.415,0.455 2.665,-0.15125 3.94125,-0.6075 0.32625,-0.1175 0.6375,-0.13875 0.9275,-0.0687 0.0225,-10e-4 0.0412,-0.005 0.065,-0.006 0.19375,0.002 0.37875,0.0387 0.56125,0.115 0.17375,-0.0525 0.2075,0.49125 0.4425,0.105 0.11875,-0.1125 0.25375,-0.1425 0.4075,-0.0788 0.001,0 0.002,-10e-4 0.004,-0.003 0.08,-0.85375 -0.0788,-1.58375 -1,-1.92125" />
    <path
       inkscape:connector-curvature="0"
       id="path4237"
       style="fill:#6a5e50;fill-opacity:1;fill-rule:nonzero;stroke:none"
       d="m 144.36688,703.96356 c -0.29,-0.07 -0.60125,-0.0488 -0.9275,0.0688 -1.2775,0.45625 -2.5275,1.0625 -3.9425,0.6075 -0.76375,0.25 -1.52375,0.49875 -2.2875,0.7475 -0.1675,0.0237 -0.3475,0.0675 -0.54625,0.14125 -0.11625,0.045 -0.23,0.0888 -0.345,0.13375 l 0.17,-0.04 c 0.2075,0.07 0.4125,0.19375 0.62375,0.2025 0.505,0.0163 0.85875,0.195 0.9825,0.70875 0.0537,0.21375 0.0863,0.435 0.1425,0.65125 0.19375,0.73125 0.21875,0.845 -0.37125,1.22875 -0.105,0.0688 -0.225,0.14375 -0.3725,0.23625 0.31125,0.3425 0.6225,0.68625 0.93625,1.0325 0.0475,-0.0462 0.0975,-0.0925 0.145,-0.14 0.1925,-0.18 0.3825,-0.36 0.5725,-0.54125 0.095,-0.09 0.20625,-0.1475 0.33375,-0.17 0.42875,-0.76625 1.2375,-0.87125 1.9575,-1.13125 0.45875,-0.46125 0.7075,-1.11875 1.2975,-1.4575 -0.0237,-0.009 -0.0462,-0.0188 -0.0687,-0.0263 -0.20375,-0.59375 -0.215,-1.0375 -0.0875,-1.3725 0.22375,-0.5825 0.88375,-0.825 1.7875,-0.88" />
    <path
       inkscape:connector-curvature="0"
       id="path4241"
       style="fill:#6a5e50;fill-opacity:1;fill-rule:nonzero;stroke:none"
       d="m 138.11812,710.58831 c 0.11,-0.2375 0.2375,-0.465 0.375,-0.68875 -0.0263,-0.0688 -0.0525,-0.1375 -0.0725,-0.20875 l 0.009,-0.009 c -1.38625,0.5775 -1.64625,1.8775 -1.8475,3.1175 -0.10625,0.6475 -0.22,1.09 -0.8325,1.41375 -0.5375,0.28625 -0.57625,0.81625 -0.35,1.3725 0.14,0.34125 -0.0813,0.55 -0.36375,0.70375 l -0.002,0.0137 c 0.065,0.055 0.13375,0.10625 0.2025,0.15875 0.23,0.16875 0.47,0.3325 0.6025,0.55875 0.2375,0.4125 -0.38,0.56 -0.42875,0.90875 -0.0288,0.21125 -0.0125,0.4325 -0.0187,0.65 1.0725,0.58625 1.065,0.5825 1.92,-0.2475 0.0813,-0.0825 0.25875,-0.065 0.3925,-0.09 0.255,-0.61625 0.53375,-1.2275 0.305,-1.91875 0.0288,-0.37375 -0.16,-0.74625 -0.002,-1.12 0.035,-0.1 0.0238,-0.195 -0.0325,-0.28625 -0.0312,-0.19625 0.006,-0.28125 0.11,-0.255 -0.0288,-0.1575 -0.0275,-0.31375 0.0412,-0.47125 0.0337,-0.7125 0.0675,-1.4225 0.10125,-2.1325 -0.24375,-0.3775 -0.36125,-0.63125 -0.34625,-0.885 0.009,-0.17875 0.0875,-0.36125 0.23875,-0.585" />
    <path
       inkscape:connector-curvature="0"
       id="path4245"
       style="fill:#6a5e50;fill-opacity:1;fill-rule:nonzero;stroke:none"
       d="m 159.44012,716.30118 c 0.0138,0.0113 0.0263,0.0225 0.0387,0.0312 -0.004,-0.02 -0.0125,-0.04 -0.0188,-0.06 -0.006,0.009 -0.0125,0.0188 -0.02,0.0288" />
    <path
       inkscape:connector-curvature="0"
       id="path4249"
       style="fill:#6a5e50;fill-opacity:1;fill-rule:nonzero;stroke:none"
       d="m 159.59025,717.24231 c -0.0125,-0.315 -0.04,-0.62375 -0.11125,-0.91 -0.0125,-0.009 -0.025,-0.02 -0.0387,-0.0312 0.007,-0.01 0.0138,-0.02 0.02,-0.0287 -0.15625,-0.5975 -0.50625,-1.09 -1.28875,-1.3425 -0.0188,-0.005 -0.0325,-0.015 -0.0537,-0.0213 -0.26125,-0.0713 -0.53,0.0163 -0.7925,-0.015 -0.035,-0.004 -0.0713,-0.004 -0.10625,-0.0125 -0.415,0.63125 -0.82625,1.255 -1.24125,1.885 l 0.003,0 c 0.0862,0.0862 0.14,0.1975 0.18125,0.31625 0.115,0.32875 0.1525,0.7125 0.63375,0.81 0.1825,0.0337 0.33,0.27875 0.48,0.44 0.2225,0.2375 0.13,0.64125 -0.165,0.7125 -0.2675,0.0612 -0.54,0.1175 -0.80875,0.17625 0.15,0.08 0.29875,0.15875 0.45,0.23625 -0.5,0.1825 -0.9875,0.44 -1.5,0.51875 -0.38125,0.0562 -0.60375,-0.11625 -0.73125,-0.49375 -0.20875,-0.0975 -0.2875,-0.34125 -0.22375,-0.76375 0.0362,-0.23375 0.4775,-0.46875 -0.03,-0.75625 -0.615,0.23125 -1.03625,1.14375 -1.91375,0.7075 -0.21,0.0575 -0.35625,0.17375 -0.3825,0.40375 0.0763,0.1775 0.15375,0.35625 0.23375,0.535 -0.0413,0.34125 -0.0813,0.68375 -0.12125,1.02625 -0.0188,0.0475 -0.0525,0.0775 -0.0763,0.1175 0.0125,0.0113 0.0213,0.0237 0.0337,0.0362 0.1625,0.006 0.32375,-10e-4 0.48375,-0.045 0.255,-0.0175 0.5125,-0.0112 0.76125,-0.0775 0.0813,-0.0275 0.16,-0.055 0.24,-0.08 1.09125,-0.16 2.16625,-0.0113 3.245,0.0975 0.0588,0.006 0.11625,0.0125 0.17375,0.0187 0.0113,0.17125 -0.0288,0.33125 -0.12875,0.49 0.0138,0.02 -0.015,0.035 -0.0487,0.0512 0.1,-0.007 0.19875,-0.006 0.2975,-0.0175 0.0337,-0.005 0.0588,-0.0213 0.09,-0.0263 0.27,-0.1275 0.5375,-0.27375 0.82625,-0.3775 0.15375,-0.11625 0.28125,-0.25875 0.395,-0.41 0.19875,-0.2575 0.37125,-0.535 0.595,-0.77 0.44375,-0.6125 0.68375,-1.28375 0.6325,-2.05 -0.002,-0.11625 -0.006,-0.2325 -0.0125,-0.35" />
    <path
       inkscape:connector-curvature="0"
       id="path4253"
       style="fill:#351f17;fill-opacity:1;fill-rule:nonzero;stroke:none"
       d="m 157.27588,718.33243 c -0.15,-0.16125 -0.2975,-0.40625 -0.48125,-0.44125 -0.48125,-0.0963 -0.51875,-0.48 -0.63375,-0.80875 -0.0412,-0.11875 -0.095,-0.23 -0.18,-0.31625 l -0.002,0 c -0.80625,-0.0175 -1.6075,-0.0338 -2.41375,-0.0512 l 0,0.009 -0.0587,0.1825 c -0.04,0.1225 -0.0788,0.245 -0.1175,0.36625 -0.0425,0.18625 -0.12125,0.345 -0.21125,0.495 -0.2125,0.34625 -0.525,0.62 -0.82375,0.9025 0.8775,0.43625 1.29875,-0.47625 1.91375,-0.7075 0.5075,0.2875 0.0662,0.5225 0.0288,0.75625 -0.0638,0.42125 0.0162,0.66625 0.225,0.76375 -0.0662,-0.19375 -0.11375,-0.42625 -0.13,-0.74125 0.43,0.0775 0.86,0.15625 1.28875,0.2325 0.01,-0.003 0.0213,0.005 0.035,0.002 -0.015,0.004 -0.025,-0.004 -0.0362,0 0.1775,0.0663 0.35875,0.1325 0.53375,0.19875 0.0312,0.0163 0.06,0.03 0.09,0.0462 0.26875,-0.0587 0.54,-0.115 0.8075,-0.17625 0.29625,-0.0712 0.38875,-0.475 0.16625,-0.7125" />
    <path
       inkscape:connector-curvature="0"
       id="path4257"
       style="fill:#6a5e50;fill-opacity:1;fill-rule:nonzero;stroke:none"
       d="m 155.26663,711.17544 0,0.002 -0.23375,0.1275 c -0.0888,0.0487 -0.175,0.095 -0.265,0.14375 0,10e-4 -0.001,10e-4 -0.002,10e-4 -0.15,0.26 -0.30375,0.525 -0.45625,0.78375 l 0,0.003 c -0.155,0.6025 -0.35625,1.18125 -0.85,1.6 -0.0812,0.19875 -0.1725,0.395 -0.26875,0.58625 0.13125,0.35125 0.17625,0.69125 -0.09,1.00625 0.0825,0.19625 0.16375,0.38875 0.24625,0.58125 0.0337,0.085 0.07,0.16875 0.10375,0.25 0.50625,-0.5225 0.93125,-1.1025 1.73625,-1.29125 0.57875,-0.1325 0.56625,-0.26625 -0.11125,-0.84125 -0.19875,-0.16625 -0.2925,-0.32 -0.215,-0.53625 0.2025,-0.55125 0.36375,-1.1275 1.0125,-1.37125 0.385,-0.145 0.49,-0.51625 0.52,-0.90125 -0.3725,-0.0438 -0.75125,-0.0937 -1.12625,-0.14375" />
    <path
       inkscape:connector-curvature="0"
       id="path4261"
       style="fill:#967e72;fill-opacity:1;fill-rule:nonzero;stroke:none"
       d="m 145.1335,713.53869 0.001,-10e-4 c 0,-10e-4 -0.001,-10e-4 -0.001,-10e-4 l 0,0.003 z" />
    <path
       inkscape:connector-curvature="0"
       id="path4265"
       style="fill:#967e72;fill-opacity:1;fill-rule:nonzero;stroke:none"
       d="m 152.44312,709.67031 c -0.0112,0.004 -0.0187,0.0112 -0.0288,0.0162 -0.9675,0.145 -1.37625,-0.81625 -2.13625,-1.07375 -0.6975,-0.2375 -1.2525,-1.17875 -1.985,-0.86 -2.25125,0.975 -3.66875,-0.77125 -5.4075,-1.45375 -0.05,-0.0188 -0.0987,-0.0388 -0.15,-0.0575 -0.59,0.33875 -0.83875,0.9975 -1.2975,1.4575 l 10e-4,0 c 0.0813,0.0875 0.155,0.18375 0.21375,0.29 0.1475,-0.0737 0.2975,-0.11125 0.44875,-0.1275 0.44,-0.0475 0.89,0.0875 1.33375,0.0437 0.2175,-0.0125 0.5375,-0.1275 0.6375,-0.025 0.27375,0.28 0.0113,0.54125 -0.1775,0.77375 l 0,0.002 c 0.39375,0.47875 0.9575,0.325 1.44375,0.3375 0.59875,0.0138 1.175,0.0138 1.68,0.3825 0.12875,0.0438 0.35125,0.0638 0.37,0.1325 0.045,0.1875 -0.09,0.26875 -0.28375,0.21375 -1.25875,-0.5125 -2.335,-0.15 -3.2575,0.82625 -0.51,-0.50625 -0.9275,-0.9225 -1.34625,-1.33875 -0.15625,0.37875 -0.31375,0.755 -0.47125,1.1325 -0.0663,0.27625 -0.13,0.55125 -0.19375,0.83125 0.6775,0.0538 0.8025,0.4475 0.70375,1.05125 -0.0312,0.18875 0.13125,0.4175 0.21875,0.62 0.1475,0.335 0.43875,0.45 0.73,0.27875 0.57625,-0.345 1.115,-0.74875 1.665,-1.13375 0.375,-0.26125 0.745,-0.50875 1.3825,-0.05 -0.81125,0.2875 -1.095,0.95125 -1.4025,1.5975 0.33625,0.2225 0.71,0.225 1.0925,0.19125 l -0.0437,-0.0337 c 0.0362,-1.12875 0.19875,-1.26375 1.44625,-1.175 0.8675,-0.285 1.31125,-0.89875 1.48875,-1.78 0.10125,-0.505 0.4175,-0.4925 0.80625,-0.21875 0.8875,0.6175 0.93125,0.80125 0.245,1.525 -0.3075,0.3225 -0.645,0.61375 -0.96875,0.91625 2.54625,-0.2425 2.76125,-0.44 3.21,-2.965 0.0113,-0.0675 0.0587,-0.13375 0.0913,-0.1975 -0.0213,-0.0438 -0.0387,-0.0875 -0.0588,-0.13" />
    <path
       inkscape:connector-curvature="0"
       id="path4269"
       style="fill:#351f17;fill-opacity:1;fill-rule:nonzero;stroke:none"
       d="m 153.62713,707.49381 c -0.13375,-0.0575 -0.21625,-0.1575 -0.24375,-0.3025 -0.28625,-0.21625 -0.29375,-0.69625 -0.73375,-0.765 l 0.001,0 c -0.50125,-0.33375 -0.695,-1.21375 -1.455,-1.08125 -0.365,-0.355 -0.91,-0.15875 -1.33875,-0.325 -0.21125,-0.35 -0.42375,-0.7 -0.6375,-1.0425 l 0,-0.001 c -0.0425,0.21375 -0.1125,0.42625 -0.125,0.64 -0.0113,0.22375 -0.0188,0.56125 -0.23,0.54 -0.95,-0.0975 -1.9725,0.0325 -2.7675,-0.685 -0.10875,-0.0987 -0.1675,-0.2475 -0.2525,-0.3725 -0.001,-10e-4 -0.002,0 -0.002,-10e-4 -0.15375,-0.0625 -0.2875,-0.0338 -0.4075,0.0788 -0.23375,0.3875 -0.26875,-0.1575 -0.44125,-0.10375 -0.18375,-0.0775 -0.3675,-0.11375 -0.56125,-0.11625 -0.0238,10e-4 -0.0437,0.005 -0.065,0.008 -0.90375,0.055 -1.56375,0.2975 -1.7875,0.87875 -0.1275,0.335 -0.1175,0.78 0.0862,1.37375 0.0238,0.008 0.0463,0.0175 0.07,0.0263 0.0512,0.0175 0.1,0.0375 0.15,0.0562 1.73875,0.6825 3.15625,2.42875 5.40625,1.45375 0.7325,-0.31875 1.28875,0.62375 1.985,0.86 0.76125,0.25875 1.17,1.22 2.13625,1.07375 0.0113,-0.005 0.0188,-0.0113 0.03,-0.0163 0.0188,0.0425 0.0375,0.0875 0.0587,0.13 -0.0325,0.0638 -0.08,0.13 -0.0925,0.1975 -0.4475,2.525 -0.6625,2.72375 -3.20875,2.965 -0.007,0.006 -0.015,0.0125 -0.0238,0.0187 -1.00125,0.78 -2.29,1.2475 -2.815,2.5525 0.24125,0.47625 0.6225,0.65 1.14125,0.5075 0.075,-0.23625 0.21875,-0.28875 0.43,-0.15625 0.98,0.0812 1.76375,-0.69625 2.7375,-0.66375 0.006,0.55 0.0125,1.065 0.015,1.58 0.1325,0.06 0.26375,0.12625 0.3975,0.19 0.025,-0.085 0.0487,-0.16875 0.0763,-0.2525 0.0788,-0.20875 0.17875,-0.4125 0.30625,-0.595 0.26125,-0.36625 0.5725,-0.66375 1.0125,-0.80625 0.0688,-0.01 0.13375,-0.004 0.2,-0.001 0.007,-0.0312 0.0238,-0.0562 0.0312,-0.0888 0.0825,-0.30875 0.215,-0.5975 0.46875,-0.8275 -0.0188,-0.24125 0.0437,-0.4475 0.26625,-0.5775 -0.2075,-0.83125 0.21125,-1.48 0.615,-2.1325 -0.03,-0.015 -0.0462,-0.0462 -0.075,-0.065 -0.0913,-0.0588 -0.1825,-0.11625 -0.2475,-0.21375 -0.34875,-0.70625 -0.21,-1.33375 0.22375,-1.915 0.0425,-0.055 0.0713,-0.1125 0.1175,-0.1675 0,0 0.1525,-0.15125 0.15125,-0.14875 0,-10e-4 0.001,-0.002 0.001,-0.002 0.0263,-0.32375 0.0513,-0.65125 0.0788,-0.9775 -0.22875,-0.24125 -0.455,-0.4825 -0.6825,-0.72625" />
    <path
       inkscape:connector-curvature="0"
       id="path4273"
       style="fill:#52423b;fill-opacity:1;fill-rule:nonzero;stroke:none"
       d="m 158.792,720.76043 c -0.14125,-0.0312 -0.2925,-0.03 -0.44125,-0.0412 -0.12875,0.02 -0.25125,0.06 -0.37,0.10375 -0.28875,0.10375 -0.5575,0.25 -0.8275,0.3775 -0.125,0.0575 -0.2525,0.1125 -0.3825,0.15375 -0.16125,-0.0475 -0.0712,-0.0762 -0.004,-0.11 0.0325,-0.0163 0.0625,-0.0325 0.0487,-0.0512 0.1,-0.15875 0.13875,-0.31875 0.1275,-0.49125 -0.0562,-0.006 -0.11375,-0.0125 -0.1725,-0.0187 -1.07875,-0.1075 -2.155,-0.2575 -3.245,-0.0975 -0.08,0.0263 -0.16,0.0525 -0.24,0.0812 -0.24875,0.0662 -0.5075,0.06 -0.7625,0.0762 -0.16,0.0438 -0.32,0.0513 -0.4825,0.045 -0.0175,-10e-4 -0.0375,-0.003 -0.055,-0.004 -0.0775,0.10625 -0.175,0.1925 -0.30875,0.24375 -0.16875,0.06 -0.33875,0.1225 -0.5125,0.13375 0.425,0.56375 0.8725,1.10875 1.34875,1.63125 0.39625,-0.165 0.7825,-0.12625 1.12625,0.67 0.24125,0.36 0.5575,0.62125 0.97375,0.7525 0.21125,0.0337 0.41375,0.009 0.615,-0.0588 0.17875,-0.1175 0.31125,-0.27 0.40625,-0.45875 0.29375,-0.0113 0.59,-0.0213 0.8875,-0.0338 0.66,-0.0237 1.32125,-0.05 1.98375,-0.075 -0.21,-0.7875 0.3675,-1.21125 0.77375,-1.73125 0.56625,-0.71875 0.49125,-0.86875 -0.4875,-1.0975" />
    <path
       inkscape:connector-curvature="0"
       id="path4277"
       style="fill:#967e72;fill-opacity:1;fill-rule:nonzero;stroke:none"
       d="m 151.58375,719.86081 c -0.0725,0.03 -0.14375,0.06 -0.21625,0.0888 -0.0813,0.235 -0.22375,0.285 -0.4275,0.1375 -0.0188,0.007 -0.0475,-0.005 -0.0813,-0.0263 -0.045,-0.0138 -0.0863,-0.0275 -0.09,-0.0462 -0.003,-0.015 0.001,-0.0288 0,-0.0438 -0.0563,-0.0762 -0.0588,-0.175 0.002,-0.29875 -0.0488,-0.13625 -0.1025,-0.275 -0.15875,-0.41 -0.35875,-0.11 -0.58,-0.36875 -0.74625,-0.68875 -0.33,-0.0425 -0.66125,-0.0825 -0.99125,-0.1225 0.0288,0.08 0.06,0.1575 0.0888,0.23875 0.32875,0.135 0.6125,0.375 0.87,0.67875 0.3175,0.42 0.63,0.84625 0.9425,1.27 0.1275,0.17625 0.25875,0.34875 0.38875,0.52375 0.17375,-0.0125 0.3425,-0.075 0.51125,-0.13375 0.135,-0.0512 0.2325,-0.13875 0.30875,-0.245 0.008,-0.01 0.0138,-0.02 0.0213,-0.0312 0.0238,-0.0387 0.0588,-0.07 0.0763,-0.1175 0.0412,-0.34125 0.08,-0.685 0.12125,-1.02625 -0.20625,0.085 -0.4125,0.17 -0.62,0.2525" />
    <path
       inkscape:connector-curvature="0"
       id="path4281"
       style="fill:#bfb290;fill-opacity:1;fill-rule:nonzero;stroke:none"
       d="m 154.23013,709.19981 c 0.001,-0.003 -0.15125,0.15 -0.15125,0.15 -0.0462,0.0538 -0.0762,0.11125 -0.11875,0.16625 -0.4325,0.58125 -0.5725,1.20875 -0.22375,1.91625 0.065,0.0963 0.15625,0.155 0.24875,0.21375 0.0275,0.0175 0.045,0.05 0.0738,0.0638 -0.4025,0.6525 -0.8225,1.30125 -0.615,2.1325 -0.2225,0.13 -0.28375,0.33625 -0.26625,0.5775 -0.25375,0.23 -0.385,0.51875 -0.46875,0.8275 -0.007,0.0325 -0.0225,0.0575 -0.03,0.09 -0.0675,-0.002 -0.1325,-0.01 -0.2,10e-4 -0.44125,0.14125 -0.75125,0.43875 -1.0125,0.805 -0.1275,0.18375 -0.22875,0.38625 -0.30625,0.59625 -0.0288,0.0825 -0.0512,0.1675 -0.0775,0.25125 0.0575,0.0263 0.1125,0.0538 0.17,0.08 0.15375,-0.0462 0.30875,-0.0937 0.46125,-0.14 -0.0712,0.47875 -0.13375,0.96375 -0.22625,1.43625 -0.0562,0.28375 -0.0137,0.48375 0.15625,0.59875 0.0788,0.0562 0.17875,0.0987 0.32625,0.1075 0.0263,-0.23 0.1725,-0.345 0.3825,-0.40375 0.29875,-0.2825 0.61125,-0.55625 0.82375,-0.9025 0.09,-0.15 0.17,-0.30875 0.21125,-0.495 0.0387,-0.12125 0.0787,-0.24375 0.11875,-0.365 l 0.0588,-0.18375 0,-0.009 c -0.0375,-0.15 -0.0763,-0.3025 -0.115,-0.45375 -0.0337,-0.0825 -0.07,-0.16625 -0.10375,-0.25 -0.0813,-0.19375 -0.16375,-0.38625 -0.24625,-0.58125 0.2675,-0.315 0.22125,-0.65625 0.09,-1.0075 0.0962,-0.19 0.1875,-0.38625 0.26875,-0.58625 0.49375,-0.4175 0.695,-0.99625 0.85,-1.6 l 0,-0.003 c 0.15375,-0.25875 0.30625,-0.52375 0.45625,-0.78375 0.001,0 0.002,0 0.002,-10e-4 0.09,-0.0488 0.17625,-0.095 0.265,-0.1425 l 0.23375,-0.1275 0,-0.003 c -0.1375,-0.77 -0.24875,-1.55 -1.03625,-1.97625" />
    <path
       inkscape:connector-curvature="0"
       id="path4285"
       style="fill:#52423b;fill-opacity:1;fill-rule:nonzero;stroke:none"
       d="m 140.82075,710.70056 c 0.009,0.0225 0.02,0.0425 0.0288,0.065 0.16375,-0.0588 0.32625,-0.1175 0.49,-0.17625 0.23125,-0.0813 0.46125,-0.1625 0.69125,-0.24625 0.1575,-0.3775 0.315,-0.755 0.47125,-1.1325 -0.0188,-0.07 -0.0575,-0.11875 -0.0838,-0.18 -0.1025,-0.2475 -0.255,-0.4475 -0.5125,-0.5525 -0.004,0.025 0.0112,0.045 0.004,0.0725 -0.45125,0.68125 -1.11625,0.7575 -1.8475,0.64 -0.0125,-0.002 -0.0225,-0.007 -0.0338,-0.0137 -0.01,-0.005 -0.0187,-0.01 -0.03,-0.0125 -0.085,0.0563 -0.19875,0.10875 -0.2975,0.165 -0.25,0.002 -0.43875,-0.095 -0.55375,-0.3275 -0.19,0.18125 -0.38125,0.36125 -0.5725,0.54125 -0.0475,0.0462 -0.0975,0.0925 -0.145,0.13875 l -0.009,0.009 c 0.02,0.0725 0.0462,0.14 0.0725,0.20875 -0.1375,0.225 -0.265,0.45125 -0.375,0.68875 -0.15125,0.22375 -0.23,0.40625 -0.24,0.585 -0.0138,0.25375 0.10375,0.5075 0.3475,0.885 -0.035,0.71 -0.0675,1.42 -0.10125,2.1325 -0.0688,0.1575 -0.07,0.31375 -0.0413,0.47125 0.0425,0.0113 0.095,0.0362 0.1625,0.0875 0.0913,0.19625 0.20125,0.37875 0.31,0.56125 0.51,0.86625 1.18,1.615 1.83125,2.37625 0.145,0.0137 0.28375,-0.006 0.4175,-0.0575 -0.007,-0.0213 -0.0175,-0.04 -0.025,-0.0625 0.006,0 0.0125,0.001 0.0175,0.001 -0.14625,-0.6 -0.0587,-1.14875 0.39875,-1.6075 -0.295,-0.89375 -1.48,-0.985 -1.79625,-2.04625 0.75125,-0.225 1.44625,-0.57 2.00375,-1.1475 -0.4575,-0.26125 -1.10625,-0.32 -0.72375,-1.09625 0.12,-0.2425 0.0475,-0.57625 0.065,-0.8675 0.0238,-0.0412 0.0525,-0.0663 0.0763,-0.1025" />
    <path
       inkscape:connector-curvature="0"
       id="path4289"
       style="fill:#351f17;fill-opacity:1;fill-rule:nonzero;stroke:none"
       d="m 145.1335,713.53631 c 0,0 0.001,0 0.001,0.001 0.3075,-0.64625 0.59125,-1.31 1.4025,-1.59625 -0.63875,-0.46 -1.00875,-0.21125 -1.3825,0.05 -0.55125,0.38375 -1.08875,0.78875 -1.665,1.1325 -0.29125,0.1725 -0.5825,0.0562 -0.73,-0.27875 -0.0888,-0.2025 -0.25125,-0.43 -0.21875,-0.62 0.0987,-0.60375 -0.0275,-0.9975 -0.705,-1.05125 0.065,-0.27875 0.12875,-0.555 0.195,-0.83125 -0.23,0.085 -0.46125,0.165 -0.69125,0.2475 -0.16375,0.0575 -0.32625,0.11625 -0.49,0.175 -0.01,-0.0213 -0.02,-0.0425 -0.0288,-0.065 -0.0238,0.0375 -0.0525,0.0613 -0.0762,0.1025 -0.0175,0.2925 0.055,0.625 -0.065,0.86875 -0.3825,0.77625 0.265,0.835 0.72375,1.09625 -0.55875,0.5775 -1.2525,0.92125 -2.00375,1.1475 0.31625,1.06 1.50125,1.1525 1.79625,2.045 0.1125,-0.0437 0.225,-0.0775 0.33625,-0.1075 0.49625,-0.135 0.9525,-0.1 1.275,0.49625 0.8425,-0.57875 1.63875,-1.2425 2.67625,-1.4675 -0.0788,-0.48125 0.35875,-0.6275 0.6025,-0.89875 0.0637,-0.0725 0.11875,-0.15375 0.14125,-0.25375 -0.38375,0.035 -0.75625,0.0325 -1.0925,-0.19125 l -0.001,10e-4" />
    <path
       inkscape:connector-curvature="0"
       id="path4293"
       style="fill:#bfb290;fill-opacity:1;fill-rule:nonzero;stroke:none"
       d="m 149.92475,710.52119 c -0.39,-0.27375 -0.705,-0.28625 -0.8075,0.22 -0.17625,0.88 -0.62125,1.49375 -1.4875,1.78 -1.2475,-0.09 -1.41125,0.0462 -1.44625,1.17375 l 0.0437,0.0337 c -0.0225,0.1 -0.0775,0.18125 -0.14125,0.255 -0.24375,0.27 -0.68125,0.4175 -0.6025,0.8975 l 0.315,0.235 c 0.0612,0.0437 0.11875,0.0862 0.17875,0.13125 0.12875,0.0937 0.25875,0.19 0.385,0.28625 0.525,-1.305 1.81375,-1.7725 2.815,-2.5525 0.009,-0.006 0.0163,-0.0125 0.0238,-0.0188 0.32375,-0.3025 0.66,-0.5925 0.9675,-0.915 0.6875,-0.72375 0.64375,-0.90875 -0.24375,-1.52625" />
    <path
       inkscape:connector-curvature="0"
       id="path4297"
       style="fill:#bfb290;fill-opacity:1;fill-rule:nonzero;stroke:none"
       d="m 147.38938,709.50919 c -0.0187,-0.0687 -0.24125,-0.0888 -0.37,-0.1325 -0.505,-0.36875 -1.08125,-0.36875 -1.68,-0.3825 -0.48625,-0.0125 -1.05,0.14125 -1.44375,-0.3375 l 0,-0.004 c 0.18875,-0.23125 0.45125,-0.49375 0.1775,-0.7725 -0.1,-0.1025 -0.42,0.0125 -0.6375,0.025 -0.44375,0.0438 -0.89375,-0.0912 -1.33375,-0.0437 -0.15125,0.0163 -0.30125,0.0537 -0.44875,0.1275 -0.0587,-0.10625 -0.1325,-0.2025 -0.21375,-0.29 l -0.001,0 c -0.72,0.26 -1.52875,0.36625 -1.9575,1.13125 -0.1275,0.0237 -0.23875,0.0812 -0.33375,0.17125 0.115,0.2325 0.30375,0.33 0.555,0.3275 0.0975,-0.055 0.2125,-0.1075 0.29625,-0.165 0.0112,0.002 0.0213,0.007 0.03,0.0125 0.0113,0.006 0.0213,0.0113 0.0337,0.0138 0.73125,0.1175 1.39625,0.0412 1.8475,-0.64 0.007,-0.0275 -0.007,-0.0475 -0.004,-0.0725 0.2575,0.105 0.41,0.305 0.5125,0.5525 0.0263,0.0625 0.065,0.11 0.0838,0.18 0.41875,0.41625 0.83625,0.8325 1.34625,1.33875 0.9225,-0.97625 1.99875,-1.33875 3.2575,-0.8275 0.19375,0.0562 0.32875,-0.025 0.28375,-0.2125" />
    <path
       inkscape:connector-curvature="0"
       id="path4301"
       style="fill:#967e72;fill-opacity:1;fill-rule:nonzero;stroke:none"
       d="m 147.64575,716.41469 c -0.0437,-0.1225 -0.0875,-0.24375 -0.13125,-0.3675 l -0.0113,-0.006 c -0.51875,0.1425 -0.9,-0.03 -1.14,-0.5075 -0.1275,-0.0963 -0.25625,-0.19125 -0.38625,-0.28625 -0.06,-0.045 -0.1175,-0.0875 -0.17875,-0.13125 l -0.31375,-0.235 c -1.03875,0.225 -1.835,0.88875 -2.6775,1.4675 -0.0125,0.0237 -0.025,0.0475 -0.0362,0.0712 -0.0225,0.045 -0.0462,0.09 -0.0687,0.135 -0.0625,0.12125 -0.1225,0.24375 -0.185,0.36625 0.20875,0.0525 0.4425,0.19375 0.62375,0.14375 1.35375,-0.37625 2.25125,-0.0588 2.47875,1.47375 0.0213,0.15875 0.30875,0.27625 0.475,0.415 -0.0475,-0.34 -0.04,-0.67 0.145,-0.96875 0.01,-0.0175 0.015,-0.035 0.0263,-0.0525 l 0,-0.002 c 0.24625,-0.5675 0.7575,-0.74375 1.26,-0.925 -0.001,-0.0138 -0.006,-0.025 -0.009,-0.0375 -0.001,-0.17 0.045,-0.325 0.1025,-0.47625 0.009,-0.025 0.0163,-0.0512 0.0263,-0.0762" />
    <path
       inkscape:connector-curvature="0"
       id="path4305"
       style="fill:#bfb290;fill-opacity:1;fill-rule:nonzero;stroke:none"
       d="m 135.41912,719.56293 c -0.0913,-0.20125 -0.18125,-0.3975 -0.27125,-0.59875 -0.0125,-0.01 -0.0213,-0.0163 -0.035,-0.0288 -0.055,-0.0825 -0.0962,-0.16625 -0.13375,-0.25 -0.01,-0.004 -0.0187,-0.01 -0.03,-0.0137 0.005,-0.005 0.0113,-0.01 0.0175,-0.0137 -0.0425,-0.0975 -0.0713,-0.1975 -0.0925,-0.2975 -0.1875,-0.4075 -0.3725,-0.81625 -0.55875,-1.22375 -0.0163,-0.0388 -0.0325,-0.0738 -0.05,-0.11125 l 0.1075,0.0113 c -0.005,-0.01 -0.009,-0.02 -0.0138,-0.03 -0.11125,-0.2525 -0.21875,-0.50125 -0.3275,-0.75375 -0.105,0.004 -0.20875,0.02 -0.3125,0.04 0.0238,-0.0438 0.06,-0.0775 0.0775,-0.12875 -0.1575,-0.81375 -0.0975,-1.6925 -0.5,-2.43625 -0.15375,-0.0838 -0.295,-0.19 -0.43,-0.315 0.015,-0.0713 0.0212,-0.13875 0.04,-0.21375 -0.01,-0.14625 -0.0188,-0.295 -0.03,-0.445 0.1125,-0.0475 0.21875,-0.0925 0.32875,-0.1375 0.3075,-0.17875 0.60625,-0.375 0.92375,-0.525 0.29125,-0.13375 0.5425,-0.27875 0.3275,-0.63125 -0.16,-0.2625 -0.47375,-0.4 -0.74125,-0.285 -0.31875,0.135 -0.57875,0.40125 -0.86375,0.6125 -1.35,0.30375 -2.32625,-0.26875 -2.96125,-1.365 -0.78625,0.25875 -0.52,0.98625 -0.8875,1.345 -0.0462,0.14625 -0.0875,0.295 -0.12875,0.44375 -0.0613,0.20875 -0.12375,0.415 -0.2125,0.61 -0.21375,0.465 -0.5725,0.6675 -1.08,0.4125 -0.21875,0.31 -0.1775,0.64 -0.0775,0.97625 1.2275,-0.58125 2.58375,-0.6325 3.87625,-0.95 0.57,0.9075 0.46,2.10875 1.2425,2.92375 0.18625,0.10625 0.37375,0.20875 0.56,0.31375 0.3225,0.17375 0.565,0.415 0.6775,0.7725 0.0487,0.2375 0.03,0.47 -0.055,0.69625 -0.0312,0.05 -0.0688,0.09 -0.0987,0.1375 0.007,0.0187 0.015,0.035 0.02,0.055 0.0813,-0.0212 0.1625,-0.0337 0.24875,-0.0312 0.3675,0.2575 0.63625,0.58625 0.83,0.96375 0.0937,0.18375 0.175,0.37125 0.23375,0.575 0.0125,0.075 0.009,0.1325 0.0138,0.2 0.145,0.0562 0.27625,0.13625 0.40375,0.22125 -0.006,-0.0237 -0.0113,-0.045 -0.0163,-0.0662 0.11625,-0.16 0.10875,-0.31375 -0.0213,-0.45875" />
    <path
       inkscape:connector-curvature="0"
       id="path4309"
       style="fill:#351f17;fill-opacity:1;fill-rule:nonzero;stroke:none"
       d="m 135.83787,717.02144 c -0.13125,-0.2275 -0.3725,-0.39 -0.60125,-0.55875 -0.07,-0.0525 -0.13875,-0.10375 -0.20375,-0.15875 l 0.002,-0.015 c -0.24875,-0.22875 -0.4975,-0.45875 -0.745,-0.69 0.065,-0.11375 0.0675,-0.20875 0.0213,-0.2875 0,-0.0175 0.006,-0.0338 0.004,-0.0488 -0.002,-0.025 -0.0412,-0.0425 -0.0863,-0.0612 -0.0263,-0.01 -0.0512,-0.0213 -0.0725,-0.03 -0.0475,-0.14375 -0.0962,-0.29 -0.14375,-0.435 0.2675,-0.25375 0.5325,-0.50875 0.805,-0.76125 0.16125,-0.1475 0.365,-0.30875 0.185,-0.5275 -0.16125,-0.19625 -0.3975,-0.12375 -0.58875,0.0187 -0.12,0.0863 -0.23,0.18875 -0.3425,0.2825 -0.24,-0.49625 -0.6125,-0.71125 -1.165,-0.55 -0.0188,0.075 -0.025,0.14375 -0.04,0.21375 0.135,0.125 0.27625,0.23125 0.43,0.315 0.4025,0.74375 0.3425,1.6225 0.5,2.43625 -0.0175,0.0512 -0.0537,0.085 -0.0775,0.12875 0.10375,-0.02 0.2075,-0.035 0.3125,-0.04 0.10875,0.2525 0.2175,0.50125 0.3275,0.75375 0.005,0.01 0.009,0.02 0.0138,0.03 l -0.1075,-0.0113 c 0.0175,0.0375 0.035,0.0738 0.05,0.11125 0.18625,0.4075 0.37125,0.81625 0.55875,1.22375 0.0212,0.1 0.0512,0.2 0.0925,0.29875 0.0113,-0.009 0.0213,-0.0187 0.0312,-0.0263 0.0125,0.0263 0.0238,0.05 0.0337,0.075 0.12125,-0.0438 0.24,-0.0863 0.36,-0.12875 0.005,-0.2175 -0.0113,-0.4375 0.0175,-0.64875 0.0487,-0.35 0.66625,-0.4975 0.42875,-0.90875" />
    <path
       inkscape:connector-curvature="0"
       id="path4313"
       style="fill:#351f17;fill-opacity:1;fill-rule:nonzero;stroke:none"
       d="m 134.97975,718.68518 c -0.004,-0.009 -0.01,-0.0175 -0.0137,-0.0263 -0.006,0.002 -0.0125,0.007 -0.0163,0.0125 0.01,0.004 0.0188,0.01 0.03,0.0138" />
    <path
       inkscape:connector-curvature="0"
       id="path4317"
       style="fill:#967e72;fill-opacity:1;fill-rule:nonzero;stroke:none"
       d="m 141.52263,720.69568 c 0.0288,0.009 0.065,0.006 0.0925,0.0187 0.007,0.006 0.0138,0.008 0.02,0.0138 -0.0362,-0.01 -0.075,-0.0213 -0.1125,-0.0325 m 5.515,-0.155 c -0.94125,0.22625 -1.82,0.62125 -2.695,0.98 -0.4025,-0.6875 0.4075,-1.16625 0.09,-1.77 -1.04375,0.1 -2.05375,0.325 -2.945,0.9325 0.004,10e-4 0.006,0.005 0.009,0.008 0.6675,0.335 0.52,1.4075 1.41375,1.55125 0.69625,0.10875 1.2975,-0.1875 1.93375,-0.37125 0.71,-0.205 1.42875,-0.32625 2.1575,-0.34 0.0587,-0.1725 0.10375,-0.34875 0.145,-0.5275 0.004,-0.0163 0.006,-0.03 0.01,-0.045 0.0362,-0.165 0.0712,-0.33125 0.10625,-0.495 -0.0763,0.0237 -0.145,0.0575 -0.225,0.0775" />
    <path
       inkscape:connector-curvature="0"
       id="path4321"
       style="fill:#967e72;fill-opacity:1;fill-rule:nonzero;stroke:none"
       d="m 139.45475,720.67744 c -0.0613,0.2525 0.10375,0.4375 0.33875,0.46125 0.61,0.0613 1.1225,-0.29 1.68,-0.4525 0.004,-10e-4 0.005,-0.002 0.009,-0.002 -0.31125,-0.18875 -0.62125,-0.38 -0.93625,-0.565 -0.44875,-0.26 -0.9475,-0.0125 -1.09125,0.55875" />
    <path
       inkscape:connector-curvature="0"
       id="path4325"
       style="fill:#bfb290;fill-opacity:1;fill-rule:nonzero;stroke:none"
       d="m 141.53237,715.85193 c -0.11125,0.03 -0.22375,0.065 -0.3375,0.10875 -0.4575,0.45875 -0.54375,1.0075 -0.3975,1.6075 -0.006,0 -0.0125,-10e-4 -0.0188,-10e-4 0.007,0.0225 0.0188,0.0412 0.0263,0.0625 -0.13375,0.0512 -0.27375,0.0712 -0.4175,0.0575 -0.65125,-0.76125 -1.3225,-1.51 -1.83125,-2.3775 -0.11,-0.18125 -0.22,-0.365 -0.31,-0.56 -0.0687,-0.0512 -0.12125,-0.0763 -0.16375,-0.0875 -0.10375,-0.0263 -0.14,0.0587 -0.11,0.255 0.0562,0.0912 0.0675,0.18625 0.0337,0.28625 -0.1575,0.37375 0.03,0.74625 0.002,1.12 0.2275,0.69125 -0.05,1.3025 -0.305,1.91875 0.0787,0.14875 0.17625,0.27 0.29875,0.32375 0.10125,0.0425 0.2175,0.0438 0.36125,-0.0425 0.3675,-0.22625 0.71,-0.485 1.16375,-0.5 0.20375,0.095 0.4175,0.1675 0.58375,0.32625 0.1975,0.0675 0.3925,0.135 0.5875,0.20125 0.36875,0.24625 0.6975,0.36125 0.79375,-0.25125 0,0 -10e-4,-0.002 -0.002,-0.004 0.001,0.001 0.001,0.001 0.002,0.001 0.16125,-0.07 0.32375,-0.14125 0.4825,-0.21375 -0.0525,-0.1425 -0.10375,-0.28375 -0.15625,-0.42375 0.10625,-0.3675 0.365,-0.5875 0.69875,-0.73875 0.0625,-0.1225 0.1225,-0.245 0.185,-0.36625 0.0225,-0.045 0.0462,-0.09 0.0675,-0.135 0.0125,-0.0225 0.025,-0.0475 0.0375,-0.0712 -0.3225,-0.595 -0.78,-0.63 -1.275,-0.49625" />
    <path
       inkscape:connector-curvature="0"
       id="path4329"
       style="fill:#bfb290;fill-opacity:1;fill-rule:nonzero;stroke:none"
       d="m 141.978,718.08219 c -0.001,0 -0.001,10e-4 -0.002,10e-4 0,0.001 0.001,0.001 0.001,0.003 l 0.001,-0.004 z" />
    <path
       inkscape:connector-curvature="0"
       id="path4333"
       style="fill:#52423b;fill-opacity:1;fill-rule:nonzero;stroke:none"
       d="m 146.83513,721.93843 c 0.0662,-0.13125 0.12,-0.2675 0.16625,-0.4075 -0.72875,0.0138 -1.4475,0.135 -2.1575,0.34 -0.63625,0.18375 -1.2375,0.48 -1.93375,0.37125 -0.89375,-0.14375 -0.74625,-1.21625 -1.41375,-1.55125 -0.006,-0.003 -0.015,-0.003 -0.0225,-0.005 -0.5575,0.1625 -1.07125,0.51375 -1.68125,0.4525 -0.23375,-0.0238 -0.39875,-0.20875 -0.3375,-0.46125 0.14375,-0.57125 0.64125,-0.81875 1.09125,-0.55875 0.315,0.185 0.625,0.37625 0.93625,0.565 0.001,0 0.002,-0.001 0.004,-0.001 l 0.001,0.001 c 0.89125,-0.6075 1.90125,-0.8325 2.945,-0.9325 0.3175,0.6025 -0.4925,1.0825 -0.09,1.77 0.875,-0.35875 1.75375,-0.75375 2.695,-0.98 0.08,-0.02 0.14875,-0.0537 0.225,-0.0775 0.09,-0.4325 0.1925,-0.85625 0.3875,-1.24625 -0.15875,-0.015 -0.32,-0.06 -0.485,-0.14875 -0.16125,0.05 -0.32125,0.1025 -0.48,0.15 -0.19875,-0.0862 -0.395,-0.175 -0.59125,-0.265 -0.16625,-0.13875 -0.4525,-0.25625 -0.475,-0.415 -0.22625,-1.5325 -1.125,-1.85 -2.4775,-1.47375 -0.1825,0.05 -0.415,-0.0913 -0.62375,-0.14375 -0.33375,0.15 -0.5925,0.37125 -0.69875,0.73875 0.0525,0.13875 0.10375,0.28125 0.15625,0.42375 0.001,0 0.001,-10e-4 0.002,-10e-4 l -10e-4,0.004 c 0,-10e-4 -0.001,-10e-4 -0.001,-0.003 -0.16,0.0725 -0.3225,0.14375 -0.4825,0.21375 -0.001,0 -0.001,0 -0.002,-10e-4 l 0.002,0.003 c -0.0975,0.61375 -0.425,0.49875 -0.79375,0.2525 -0.195,-0.0662 -0.39125,-0.13375 -0.5875,-0.20125 -0.16625,-0.15875 -0.38125,-0.23125 -0.585,-0.32625 -0.4525,0.015 -0.795,0.27375 -1.1625,0.5 -0.145,0.0862 -0.26,0.085 -0.36125,0.0425 -0.1225,-0.0538 -0.22,-0.175 -0.3,-0.32375 -0.13375,0.0237 -0.31125,0.007 -0.39125,0.09 -0.85625,0.83 -0.84875,0.83375 -1.92,0.24625 -0.12,0.0438 -0.23875,0.0863 -0.35875,0.12875 -0.0113,-0.0237 -0.0225,-0.0487 -0.035,-0.075 -0.01,0.007 -0.02,0.0175 -0.0312,0.0263 0.004,0.01 0.01,0.0187 0.0138,0.0263 0.0362,0.085 0.0775,0.1675 0.1325,0.25125 0.0138,0.0113 0.0238,0.0175 0.035,0.0288 0.0913,0.2 0.18,0.39625 0.27125,0.59875 0.13125,0.145 0.13875,0.29875 0.0213,0.45875 0.006,0.02 0.0112,0.0425 0.0162,0.0662 -0.1275,-0.0862 -0.25875,-0.165 -0.40375,-0.22125 -0.005,-0.0675 -0.001,-0.12625 -0.0137,-0.2 -0.0575,-0.20375 -0.14,-0.3925 -0.23375,-0.575 -0.19375,-0.3775 -0.4625,-0.7075 -0.83,-0.965 -0.085,-0.003 -0.1675,0.0113 -0.2475,0.0325 -0.006,-0.02 -0.0138,-0.0375 -0.0213,-0.055 0.03,-0.0475 0.0675,-0.0888 0.0987,-0.13875 0.0863,-0.225 0.10375,-0.4575 0.055,-0.695 -0.1125,-0.35875 -0.355,-0.6 -0.6775,-0.77375 -0.18625,-0.105 -0.37375,-0.2075 -0.56,-0.31375 -0.7825,-0.815 -0.6725,-2.01625 -1.2425,-2.9225 -1.29125,0.3175 -2.6475,0.36875 -3.87625,0.94875 -0.3075,0.4625 -0.61875,0.925 -0.925,1.39 0.11625,0.3275 0.20125,0.65375 -0.009,0.98 -0.1925,0.1275 -0.215,0.2875 -0.0913,0.47 0.135,0.13125 0.37875,0.15 0.44125,0.37875 -0.21375,0.05 -0.4225,-0.0338 -0.64375,-0.03 -0.47125,0.15375 -0.59375,0.5025 -0.55,0.94625 l 0,0.005 c -0.14,0.14375 -0.20875,0.315 -0.19375,0.5175 0.04,0.0912 0.0838,0.18 0.1225,0.2675 0.065,0.0713 0.13375,0.14 0.2,0.2125 0.28375,0.2625 0.61375,0.42625 0.99875,0.47 0.0562,0.29875 0.29125,0.52875 0.5475,0.74875 0.25375,0.18875 0.50875,0.37625 0.765,0.5625 0.8325,-0.28125 1.57625,0.24125 2.375,0.26625 0.21875,0.0838 0.43625,0.16375 0.655,0.25125 0.65375,0.006 0.91,0.57125 1.31,0.9325 l 10e-4,0 c 0.0637,-0.20625 0.1925,-0.3575 0.38375,-0.4575 0.30375,-0.0987 0.6175,-0.105 0.93125,-0.035 0.15,0.0437 0.28625,0.115 0.425,0.18625 0.57,-0.37125 1.34,-0.2725 1.90625,-0.65375 0.045,0.0338 0.0738,0.0713 0.11625,0.1075 0,-0.003 0,-0.004 0.001,-0.005 0.10125,-0.405 0.0275,-0.7625 -0.20125,-1.08 0.71,0.37125 1.24375,1.03 1.9875,1.35125 0.35375,-0.13625 0.51625,0.0163 0.54875,0.375 1.94375,1.50375 4.17125,2.00125 6.57625,1.89 0.55875,-0.09 1.075,-0.28625 1.56625,-0.56375 0.19875,-0.13625 0.3825,-0.29125 0.55875,-0.455 -0.53875,-0.26 -0.735,-0.7625 -0.4725,-1.3" />
    <path
       inkscape:connector-curvature="0"
       id="path4337"
       style="fill:#52423b;fill-opacity:1;fill-rule:nonzero;stroke:none"
       d="m 147.819,716.89694 c 0.001,-10e-4 0.001,-0.003 0.001,-0.004 l 0.001,0 -0.002,0.004 z m 4.15125,2.17625 c -0.1475,-0.009 -0.2475,-0.0512 -0.32625,-0.1075 -0.17,-0.115 -0.2125,-0.315 -0.15625,-0.5975 0.0925,-0.47375 0.155,-0.95875 0.22625,-1.4375 -0.1525,0.0462 -0.3075,0.095 -0.46125,0.14125 -0.0575,-0.0275 -0.1125,-0.0538 -0.17,-0.0812 -0.1325,-0.0638 -0.265,-0.12875 -0.39625,-0.18875 -0.004,-0.515 -0.01,-1.03 -0.0162,-1.58125 -0.9725,-0.0312 -1.75625,0.74625 -2.73625,0.66375 -0.21125,-0.13125 -0.355,-0.0788 -0.43125,0.15625 l 0.0113,0.006 c 0.0437,0.12375 0.0875,0.24625 0.13125,0.3675 -0.009,0.025 -0.0163,0.0512 -0.0263,0.0763 -0.0575,0.15125 -0.10375,0.30625 -0.10125,0.4775 0.002,0.0113 0.007,0.0225 0.009,0.0362 0.0175,0.10875 0.05,0.21125 0.0913,0.3125 0.03,0.0725 0.0612,0.1425 0.10125,0.21 0.4775,0.715 1.29625,0.1875 1.8775,0.51375 0.0412,0.0338 0.0775,0.075 0.1175,0.11 0.095,0.0862 0.19125,0.17125 0.28125,0.2625 0.22875,0.26625 0.25375,0.68 0.61625,0.85 0.0563,0.13375 0.11,0.2725 0.15875,0.40875 -0.06,0.12375 -0.0587,0.2225 -0.002,0.29875 0.001,0.015 -0.002,0.0288 0,0.0438 0.004,0.0187 0.0462,0.0338 0.0913,0.0462 0.0337,0.0213 0.0613,0.0338 0.0813,0.0263 0.20375,0.1475 0.345,0.0975 0.4275,-0.1375 0.0712,-0.0288 0.14375,-0.0575 0.21625,-0.0888 0.2075,-0.0825 0.41375,-0.1675 0.62,-0.2525 -0.08,-0.17875 -0.1575,-0.35625 -0.23375,-0.535" />
    <path
       inkscape:connector-curvature="0"
       id="path4341"
       style="fill:#bfb290;fill-opacity:1;fill-rule:nonzero;stroke:none"
       d="m 156.30175,719.22106 c -0.0288,-0.0163 -0.0587,-0.03 -0.0888,-0.0462 -0.17625,-0.0663 -0.35625,-0.1325 -0.535,-0.19875 0.0125,-0.004 0.0225,0.004 0.0362,0 -0.0125,0.002 -0.0238,-0.005 -0.035,-0.003 -0.42875,-0.0762 -0.85875,-0.155 -1.2875,-0.2325 0.015,0.315 0.0625,0.5475 0.12875,0.74125 0.1275,0.3775 0.34875,0.55 0.73125,0.49375 0.5125,-0.0788 1,-0.33625 1.49875,-0.51875 -0.15,-0.0775 -0.29875,-0.15625 -0.44875,-0.23625" />
    <path
       inkscape:connector-curvature="0"
       id="path4345"
       style="fill:#6a5e50;fill-opacity:1;fill-rule:nonzero;stroke:none"
       d="m 137.11837,724.33831 0,-0.03 c 0.3025,0.05 0.605,0.0987 0.9075,0.14875 -0.3125,-0.0525 -0.62625,-0.1025 -0.93875,-0.155 0.007,0.0137 0.0213,0.0212 0.0312,0.0362" />
    <path
       inkscape:connector-curvature="0"
       id="path4349"
       style="fill:#6a5e50;fill-opacity:1;fill-rule:nonzero;stroke:none"
       d="m 137.44425,723.70594 c -0.105,-0.1425 -0.22625,-0.2525 -0.355,-0.345 -0.0675,-0.61875 -0.2825,-1.18625 -0.81875,-1.635 -0.0437,-0.0362 -0.0712,-0.0738 -0.11625,-0.1075 -0.56625,0.38125 -1.3375,0.2825 -1.9075,0.65375 -0.1375,-0.0712 -0.27375,-0.1425 -0.42375,-0.18625 -0.31375,-0.07 -0.6275,-0.0638 -0.9325,0.0337 -0.19,0.10125 -0.31875,0.2525 -0.3825,0.45875 0,0 -0.001,0 -0.001,10e-4 0.25625,0.365 0.51,0.73125 0.76625,1.095 1.27125,0.21 2.5425,0.4175 3.81375,0.6275 0.3125,0.0525 0.62625,0.1025 0.93875,0.155 -0.15875,-0.27 -0.35875,-0.51625 -0.58125,-0.75125" />
    <path
       inkscape:connector-curvature="0"
       id="path4353"
       style="fill:#351f17;fill-opacity:1;fill-rule:nonzero;stroke:none"
       d="m 149.99562,718.41306 c -0.09,-0.0913 -0.18625,-0.17625 -0.2825,-0.2625 -0.0387,-0.035 -0.075,-0.0762 -0.11625,-0.11 -0.58125,-0.32625 -1.4,0.20125 -1.8775,-0.51375 -0.0412,-0.0675 -0.0712,-0.1375 -0.10125,-0.21 -0.0425,-0.10125 -0.0738,-0.20375 -0.0925,-0.3125 -0.5025,0.1825 -1.01375,0.3575 -1.25875,0.925 l 0,0.003 c -0.0125,0.0175 -0.0175,0.0362 -0.0275,0.0525 -0.185,0.29875 -0.1925,0.62875 -0.145,0.97 0.19625,0.0888 0.39125,0.1775 0.59125,0.265 0.15875,-0.0488 0.3175,-0.10125 0.47875,-0.15125 0.16625,0.09 0.3275,0.13375 0.48625,0.15 0.10375,-0.20875 0.22625,-0.41125 0.39875,-0.59375 0.29,-0.0738 0.53625,-0.045 0.7675,0.0213 0.025,0.006 0.0512,0.0137 0.0763,0.0225 0.0288,0.015 0.0562,0.0325 0.0825,0.0512 -0.002,-0.01 -0.007,-0.02 -0.0113,-0.03 -0.03,-0.0813 -0.06,-0.15875 -0.0888,-0.23875 0.32875,0.04 0.66125,0.08 0.99,0.1225 0.16625,0.32 0.3875,0.57875 0.74625,0.69 -0.3625,-0.17 -0.3875,-0.58375 -0.61625,-0.85" />
    <path
       inkscape:connector-curvature="0"
       id="path4357"
       style="fill:#351f17;fill-opacity:1;fill-rule:nonzero;stroke:none"
       d="m 147.82025,716.89318 c 0,10e-4 0,0.003 -10e-4,0.004 l 0.002,-0.004 -0.001,0 z" />
    <path
       inkscape:connector-curvature="0"
       id="path4361"
       style="fill:#6a5e50;fill-opacity:1;fill-rule:nonzero;stroke:none"
       d="m 154.70987,725.67494 c -0.155,-0.2125 -0.29625,-0.4325 -0.44125,-0.65125 0.0737,-0.74 -0.71625,-1.1675 -1.21875,-1.6575 -0.18875,-0.1825 -0.36,-0.38 -0.5375,-0.57375 -0.47625,-0.5225 -0.9225,-1.06625 -1.3475,-1.63 -0.13,-0.175 -0.26125,-0.34875 -0.38875,-0.52375 -0.3125,-0.42375 -0.625,-0.85 -0.9425,-1.27 -0.2575,-0.30375 -0.54125,-0.54375 -0.87,-0.68 0.004,0.01 0.009,0.0213 0.0113,0.0312 -0.025,-0.0188 -0.0538,-0.0375 -0.0813,-0.0512 -0.0263,-0.009 -0.0513,-0.0163 -0.0775,-0.0238 -0.23,-0.0662 -0.4775,-0.0937 -0.76625,-0.0213 -0.17375,0.18375 -0.295,0.385 -0.39875,0.59375 -0.19625,0.39 -0.29875,0.8125 -0.38875,1.24625 -0.0337,0.16375 -0.07,0.33 -0.10625,0.495 -0.004,0.0137 -0.006,0.0287 -0.01,0.045 -0.0412,0.1775 -0.0863,0.355 -0.145,0.5275 -0.0462,0.14 -0.1,0.275 -0.16625,0.4075 -0.2625,0.53625 -0.0662,1.04 0.4725,1.3 0.1825,0.0875 0.39875,0.14625 0.6525,0.17125 -1.16875,0.2525 -2.0075,0.88875 -2.8425,1.50125 -0.215,0.15625 -0.38125,0.31375 -0.51375,0.475 -0.13625,-0.005 -0.265,-0.0263 -0.38125,-0.0788 -0.8875,0.10875 -1.7575,-0.0275 -2.625,-0.185 0.9125,0.24625 1.78375,0.6425 2.58875,1.16 0.1925,0.41375 0.515,0.6475 0.97375,0.68875 l 0.0125,0.006 c 0.7275,0.1325 1.2875,0.55125 1.84125,0.98125 0.29,0.225 0.57875,0.45125 0.8875,0.645 1.1875,0.60875 2.365,0.81 3.58,0.0275 0.19,-0.1175 0.53,-0.006 0.7975,0 0.34,-0.17125 0.68,-0.34125 1.0175,-0.51125 0.24375,0.015 0.49125,-0.0263 0.73625,-0.0875 0.6075,-0.3 0.99375,-0.5025 1.19875,-0.705 0.12375,-0.11875 0.1725,-0.24625 0.16875,-0.38625 -0.006,-0.285 -0.2425,-0.64875 -0.69,-1.26625" />
    <path
       inkscape:connector-curvature="0"
       id="path4365"
       style="fill:#52423b;fill-opacity:1;fill-rule:nonzero;stroke:none"
       d="m 164.207,708.48631 c -0.675,-0.585 -1.3875,-0.55875 -2.13125,-0.14625 -0.1225,0.0738 -0.285,0.125 -0.35875,0.23625 -0.365,0.55125 -0.81625,0.50875 -1.315,0.22625 -0.1275,-0.24125 -0.25625,-0.485 -0.38625,-0.72625 -0.0775,-0.0312 -0.14875,-0.0788 -0.21875,-0.125 -0.3125,-0.2025 -0.58125,-0.49875 -0.94125,-0.5975 0.18875,-0.11125 0.365,-0.23375 0.3675,-0.5175 -0.02,-0.16 -0.10625,-0.26875 -0.25625,-0.32375 -0.1225,-0.47875 -0.345,-0.88125 -0.82375,-1.09125 -0.3625,0.0263 -0.49375,-0.2725 -0.6825,-0.495 -1.26875,-1.59 -3.04375,-2.40625 -4.89,-3.05875 -1.085,-0.385 -2.08125,-0.10875 -2.76625,0.91375 -0.2525,0.3725 -0.565,0.7125 -0.585,1.19625 0.21375,0.3425 0.4275,0.6925 0.63875,1.0425 0.4275,0.16625 0.9725,-0.03 1.3375,0.325 0.76,-0.1325 0.95375,0.7475 1.455,1.0825 l -10e-4,0 c 0.44,0.0675 0.4475,0.54875 0.73375,0.76375 0.0275,0.145 0.11,0.245 0.24375,0.3025 0.2275,0.24375 0.45375,0.485 0.6825,0.72625 -0.0262,0.32625 -0.0525,0.65375 -0.0775,0.9775 0,0 -0.001,0.001 -0.001,0.002 0.78625,0.42625 0.8975,1.20625 1.03625,1.975 0.37375,0.05 0.7525,0.1 1.12625,0.145 -0.03,0.38375 -0.135,0.755 -0.52,0.9 -0.65,0.245 -0.81,0.82125 -1.01375,1.37125 -0.0762,0.2175 0.0163,0.37125 0.215,0.5375 0.6775,0.575 0.69125,0.7075 0.11125,0.84125 -0.80375,0.1875 -1.22875,0.76875 -1.735,1.29125 0.0387,0.15125 0.0763,0.30375 0.11375,0.45375 0.80625,0.0175 1.6075,0.0338 2.41375,0.0513 0.415,-0.63 0.82625,-1.25375 1.24,-1.885 0.0362,0.009 0.0725,0.009 0.1075,0.0125 0.2625,0.03 0.53125,-0.0562 0.7925,0.015 0.0213,0.006 0.0337,0.015 0.0537,0.0213 0.24375,-0.24125 0.5125,-0.45375 0.84,-0.5875 0.80875,-0.3325 1.42375,-0.77875 1.7,-1.42875 0.17625,-0.4175 0.21375,-0.915 0.065,-1.52625 0.16375,-0.07 0.3125,-0.145 0.4625,-0.22375 0.005,-10e-4 0.0125,-0.005 0.0187,-0.007 0.3275,-0.1975 0.695,-0.22375 1.06375,-0.2525 0.41875,-0.04 0.80875,-0.1525 1.15375,-0.4 0.4675,-0.59125 1.06,-1.1375 0.73125,-2.0175" />
    <path
       style="fill:none;stroke:#4c3f3a;stroke-width:0.3125;stroke-linecap:butt;stroke-linejoin:miter;stroke-miterlimit:10;stroke-dasharray:none;stroke-opacity:1"
       d="m 120.02958,665.21513 c -39.122503,0 -70.837893,19.82781 -70.837893,44.28906 0,24.46125 31.71539,44.29297 70.837893,44.29297 39.1225,0 70.83594,-19.83172 70.83594,-44.29297 0,-24.46125 -31.71344,-44.28906 -70.83594,-44.28906 z"
       id="path4429"
       inkscape:connector-curvature="0" />
    <path
       style="fill:#4c3f3a;fill-opacity:1;fill-rule:nonzero;stroke:none"
       d="m 134.63505,676.54911 -1.79883,1.14648 -0.43555,0.85743 1.67578,-0.84375 0.5586,-1.16016 z m -24.08985,1.61523 c -0.85875,0.1325 -1.5789,0.55735 -2.16015,1.27735 -0.5825,0.71875 -0.895,1.56867 -0.9375,2.54492 l -0.14649,3.30273 c -0.0413,0.85125 -0.15414,1.43993 -0.33789,1.76368 -0.185,0.32375 -0.52593,0.52135 -1.02343,0.59765 l -0.36329,0.0566 -0.74609,1.0625 5.9082,-0.70703 c 0.48375,-0.0738 0.86227,-0.20453 1.13477,-0.39453 0.2725,-0.18875 0.65906,-0.58781 1.16406,-1.19531 l 0.0234,-0.48438 c -0.6925,0.585 -1.54063,0.95563 -2.54688,1.10938 l -3.50781,0.48047 c 0.59125,-0.45875 1.00399,-0.94313 1.24024,-1.45313 0.235,-0.51 0.37331,-1.21031 0.4121,-2.10156 l 0.13282,-2.9668 c 0.0612,-1.39 0.48469,-2.14758 1.27344,-2.26758 0.8025,-0.1225 1.26406,0.20422 1.38281,0.98047 0.01,0.0712 0.0175,0.16344 0.0215,0.27344 l 0.40039,-0.0625 0.0742,-1.60742 c -0.54625,-0.19745 -1.01344,-0.26779 -1.39844,-0.20899 z m 17.04102,1.4668 c -1.11375,0.0275 -2.12164,0.56789 -3.02539,1.61914 -0.90125,1.05125 -1.33859,2.18992 -1.30859,3.41992 0.0175,0.67875 0.2171,1.22125 0.5996,1.625 0.38125,0.405 0.87774,0.60029 1.49024,0.58399 0.8875,-0.0213 2.0118,-0.51774 3.37305,-1.49024 l 0.082,-0.49609 c -1.07,0.795 -2.01102,1.20266 -2.82227,1.22266 -0.85125,0.0225 -1.29281,-0.53985 -1.32031,-1.6836 -0.03,-1.19875 0.19156,-2.19961 0.66406,-3.00586 0.475,-0.80625 1.08242,-1.21828 1.82617,-1.23828 0.79125,-0.0187 1.19083,0.26195 1.20703,0.8457 0.002,0.0912 -0.0158,0.23875 -0.0508,0.4375 l -0.0195,0.0938 0.39453,-0.01 0.38282,-1.63672 c -0.49125,-0.20375 -0.98266,-0.29961 -1.47266,-0.28711 z m 6.11328,0.0371 -3.10547,0.98047 -0.082,0.38476 c 0.4925,-0.13754 0.83219,-0.20512 1.02344,-0.20312 0.27375,0.002 0.40929,0.18016 0.4043,0.53516 -0.002,0.20625 -0.0664,0.62359 -0.19141,1.24609 l -0.46094,2.19922 c -0.1025,0.49375 -0.15525,0.8475 -0.15625,1.0625 -0.005,0.6375 0.29164,0.9608 0.90039,0.9668 0.73375,0.009 1.56961,-0.47719 2.50586,-1.46094 l 0.12109,-0.58789 c -0.85124,0.91875 -1.48484,1.37704 -1.90234,1.37304 -0.25,-0.003 -0.37309,-0.14101 -0.37109,-0.41601 0.001,-0.135 0.0545,-0.4468 0.1582,-0.93555 l 0.6543,-3.12109 0.50195,-2.02344 z m -35.003913,0.0684 -1.42382,1.58789 -0.1875,0.94141 1.38476,-1.26367 0.22656,-1.26563 z m 22.576183,0.12305 -1.33399,0.18359 -0.27344,2.30273 c -0.45625,1.0575 -0.97468,1.9943 -1.55468,2.81055 -0.58,0.81625 -1.0268,1.23672 -1.3418,1.26172 -0.24875,0.0213 -0.38656,-0.13992 -0.41406,-0.48242 -0.01,-0.1175 0.003,-0.31711 0.0351,-0.59961 l 0.37305,-3.1582 c 0.06,-0.5125 0.082,-0.87203 0.0644,-1.08204 -0.05,-0.63125 -0.38164,-0.92499 -0.99414,-0.875 -0.73625,0.06 -1.52523,0.6218 -2.36523,1.68555 l -0.0664,0.58789 c 0.76625,-0.98875 1.35703,-1.4995 1.76953,-1.5332 0.24875,-0.02 0.3843,0.10008 0.4043,0.36133 0.0125,0.14625 -0.0109,0.46773 -0.0684,0.95898 l -0.36328,3.14844 c -0.0395,0.34625 -0.0487,0.63383 -0.0312,0.86133 0.065,0.79625 0.43422,1.16698 1.10547,1.11328 1.13625,-0.0925 2.20258,-1.38235 3.20508,-3.8711 l 0.10742,-0.008 -0.19141,1.58594 c -0.06,0.50875 -0.0839,0.87094 -0.0664,1.08594 0.0512,0.63625 0.38414,0.9276 0.99414,0.8789 0.73375,-0.06 1.52468,-0.62109 2.36718,-1.68359 l 0.0664,-0.59766 c -0.76375,0.99375 -1.35133,1.50797 -1.76758,1.54297 -0.25,0.0187 -0.38495,-0.10289 -0.40625,-0.36914 -0.0112,-0.1475 0.0109,-0.46648 0.0684,-0.95898 l 0.36719,-3.16797 0.31055,-1.98242 z m 19.20117,0.16211 c -1.46,-0.0675 -2.72367,0.48179 -3.79492,1.65429 -1.035,1.13 -1.58118,2.30766 -1.63868,3.53516 -0.0538,1.11375 0.36266,1.69187 1.25391,1.73437 0.58375,0.0275 1.22789,-0.27585 1.93164,-0.91211 0.7,-0.63749 1.31485,-1.47421 1.83985,-2.51171 l 0.11523,0.006 -0.38477,1.54882 c -0.12505,0.50125 -0.19607,0.85836 -0.20507,1.06836 -0.0312,0.6375 0.2625,0.97055 0.875,0.99805 0.735,0.0362 1.58804,-0.41969 2.56054,-1.36719 l 0.14453,-0.58398 c -0.88,0.88875 -1.53382,1.32273 -1.95507,1.30273 -0.24875,-0.0113 -0.36537,-0.14976 -0.35157,-0.41601 0.005,-0.1425 0.072,-0.45766 0.18946,-0.94141 l 0.76367,-3.09766 0.54492,-1.85156 c -0.65625,-0.0812 -1.28617,-0.13731 -1.88867,-0.16601 z m 5.82812,0.3457 c -0.735,-0.0663 -1.60773,0.35492 -2.61523,1.26367 l -0.16406,0.57031 c 0.9225,-0.84875 1.5914,-1.25299 2.0039,-1.21679 0.24875,0.0225 0.35974,0.16578 0.33594,0.42578 -0.0125,0.1475 -0.0892,0.45789 -0.23047,0.93164 l -0.89844,3.06055 -0.64453,1.90234 1.33789,0.0449 0.66407,-2.21094 c 1.65625,-2.41625 2.8864,-3.58617 3.6914,-3.51367 0.25125,0.0225 0.36128,0.20492 0.33008,0.54492 -0.015,0.16375 -0.0577,0.36266 -0.12891,0.59766 l -0.89257,3.03125 c -0.14625,0.495 -0.2286,0.84734 -0.2461,1.05859 -0.0575,0.63375 0.21531,0.97951 0.82031,1.03321 0.73625,0.0675 1.60704,-0.35157 2.61329,-1.25782 l 0.17187,-0.57421 c -0.92,0.84875 -1.58852,1.25429 -2.00976,1.21679 -0.24875,-0.0225 -0.35974,-0.16664 -0.33594,-0.43164 0.0112,-0.14375 0.0892,-0.45484 0.23047,-0.93359 l 0.88867,-3.02344 c 0.10375,-0.35125 0.16695,-0.65094 0.18945,-0.89844 0.07,-0.765 -0.24094,-1.17838 -0.92969,-1.24218 -0.57375,-0.0513 -1.21695,0.21945 -1.93945,0.81445 -0.72125,0.5925 -1.39508,1.40359 -2.01758,2.43359 l -0.0937,-0.008 0.44922,-1.53125 c 0.1425,-0.49125 0.22099,-0.84484 0.24219,-1.05859 0.0575,-0.63125 -0.21727,-0.9731 -0.82227,-1.0293 z m -7.05078,0.22461 c 0.52,0.0237 1.0386,0.16844 1.5586,0.42969 l -0.35352,1.42187 c -0.55875,0.955 -1.20102,1.79539 -1.91602,2.52539 -0.71875,0.72875 -1.25539,1.08466 -1.61914,1.06836 -0.38875,-0.0187 -0.56635,-0.35898 -0.53515,-1.02148 0.0437,-0.915 0.36148,-1.93414 0.95898,-3.05664 0.505,-0.9475 1.14,-1.40469 1.90625,-1.36719 z m -40.615233,2.39844 -2.72657,1.78125 0.0254,0.39453 c 0.435,-0.26625 0.74593,-0.42396 0.92968,-0.47266 0.265,-0.0725 0.44461,0.0638 0.53711,0.40625 0.0525,0.2 0.10365,0.61695 0.15235,1.25195 l 0.14843,2.24219 c 0.03375,0.50375 0.07782,0.85891 0.13282,1.06641 0.165,0.6163 0.54265,0.845 1.1289,0.6875 0.71,-0.19125 1.382033,-0.88524 2.019533,-2.08399 l -0.043,-0.59765 c -0.57001,1.115 -1.057193,1.72523 -1.460943,1.83398 -0.24,0.0638 -0.39875,-0.0345 -0.46875,-0.30078 -0.0363,-0.13125 -0.06906,-0.44461 -0.10157,-0.94336 l -0.21093,-3.18164 -0.0625,-2.08398 z m -4.45117,1.42187 c -0.50375,0 -0.93704,0.0611 -1.30079,0.18359 -0.665,0.22376 -1.18359,0.63227 -1.55859,1.22852 -0.375,0.595 -0.46961,1.16719 -0.28711,1.71094 0.1325,0.39125 0.56227,0.79031 1.29102,1.19531 l 0.74804,0.41797 c 0.6175,0.33875 0.97412,0.6525 1.07032,0.9375 0.08625,0.25625 0.04375,0.50976 -0.125,0.75976 -0.16875,0.25125 -0.42071,0.43172 -0.75196,0.54297 -0.53875,0.1813 -1.13109,0.16789 -1.77734,-0.0371 l -0.52149,1.07813 c 0.69126,0.03 1.29329,-0.0416 1.80079,-0.21289 0.725,-0.2425 1.29906,-0.67 1.72656,-1.28125 0.4275,-0.61125 0.55109,-1.18641 0.37109,-1.72266 -0.13,-0.38875 -0.56468,-0.79429 -1.30468,-1.21679 l -0.67774,-0.38086 c -0.64,-0.36875 -1.01289,-0.7111 -1.11914,-1.02735 -0.21,-0.62375 0.07281,-1.06883 0.85156,-1.33008 0.695,-0.23375 1.13321,-0.0803 1.31446,0.46094 0.0162,0.0488 0.02725,0.0922 0.03125,0.13086 l 0.01562,0.10742 0.38477,-0.1289 -0.18164,-1.41602 z m -10.85157,3.90039 c -0.60625,0.26125 -1.17718,0.5325 -1.71093,0.8125 -1.29375,0.68 -2.10485,1.79516 -2.4336,3.34766 -0.31875,1.4975 -0.1943,2.7914 0.37696,3.8789 0.51874,0.9875 1.17414,1.27313 1.96289,0.85938 0.51875,-0.2725 0.91867,-0.86063 1.20117,-1.76563 0.2838,-0.905 0.3876,-1.9364 0.3164,-3.09765 l 0.10157,-0.0527 0.45117,1.53125 c 0.1475,0.49625 0.26969,0.83719 0.36719,1.02344 0.29625,0.565 0.71601,0.70422 1.25976,0.41797 0.65125,-0.34125 1.15492,-1.16656 1.51367,-2.47656 l -0.17382,-0.57617 c -0.30751,1.21125 -0.64704,1.91578 -1.01954,2.11328 -0.2225,0.11625 -0.39257,0.0553 -0.51757,-0.17969 -0.06625,-0.1275 -0.17196,-0.43141 -0.31446,-0.91016 l -0.91211,-3.05468 -0.46875,-1.8711 z m -8.58984,0.85156 -0.86133,1.97461 0.12695,0.95118 0.91211,-1.64454 -0.17773,-1.28125 z m 7.67773,0.6504 0.41407,1.40624 c 0,1.10751 -0.12555,2.1579 -0.37305,3.1504 -0.24875,0.99125 -0.53227,1.56828 -0.85352,1.73828 -0.34375,0.18125 -0.67101,-0.0219 -0.97851,-0.60938 -0.42625,-0.81125 -0.66961,-1.85039 -0.72461,-3.11914 -0.045,-1.07375 0.27312,-1.78773 0.95312,-2.14648 0.46,-0.24125 0.98125,-0.38242 1.5625,-0.41992 z m -6.66992,2.4375 -2.01367,2.56054 0.15625,0.36914 c 0.32125,-0.39125 0.56141,-0.6425 0.72266,-0.75 0.225,-0.15 0.43726,-0.077 0.63476,0.2168 0.11375,0.1725 0.29633,0.55101 0.54883,1.13476 l 1.92773,4.66016 c 0.6825,1.65625 0.56579,2.7918 -0.35546,3.4043 -0.365,0.24375 -0.7918,0.39703 -1.2793,0.45703 l -0.21484,1.21875 c 0.33499,-0.11375 0.66226,-0.27313 0.97851,-0.48438 0.97,-0.6475 1.58938,-1.54289 1.85938,-2.68164 0.1587,-0.675 0.18929,-1.32 0.09179,-1.9375 -0.09625,-0.6175 -0.36328,-1.45562 -0.80078,-2.51562 l -1.5293,-3.69922 -0.72656,-1.95312 z m 18.35156,0.18359 -0.77148,0.55859 0.58008,0.78125 c -0.08,0.50625 -0.32281,0.77956 -0.72656,0.81836 l -0.21875,0.23633 c 0.5175,0 0.92445,-0.14008 1.2207,-0.42383 0.295,-0.285 0.45883,-0.68844 0.48633,-1.21094 l -0.57032,-0.75976 z m -23.1621,3.36523 c -0.25641,-0.0339 -0.51688,0.0602 -0.78126,0.28516 -0.435,0.37375 -0.69343,1.02578 -0.77343,1.95703 -0.07875,0.93125 0.03273,1.97953 0.33398,3.14453 l -0.07422,0.0606 -0.77929,-1.39063 c -0.2525,-0.445 -0.44789,-0.75031 -0.58789,-0.91406 -0.41125,-0.48125 -0.84875,-0.5239 -1.3125,-0.1289 -0.56125,0.47875 -0.86808,1.39695 -0.92188,2.75195 l 0.29102,0.51758 c 0.04,-1.255 0.2175,-2.01641 0.53125,-2.28516 0.19,-0.1613 0.37101,-0.14336 0.54101,0.0566 0.09625,0.1125 0.26461,0.38391 0.50586,0.81641 l 1.55859,2.7832 0.91016,1.78711 0.9668,-0.92383 -1.11524,-2.02148 c -0.57,-2.87375 -0.54929,-4.57071 0.06446,-5.09571 0.1925,-0.1625 0.39984,-0.11546 0.62109,0.14453 0.1075,0.12376 0.21914,0.29477 0.33789,0.50977 l 1.54492,2.75781 c 0.2525,0.45125 0.44649,0.75602 0.58399,0.91602 0.41375,0.485 0.8507,0.53172 1.31445,0.13672 0.56125,-0.48 0.86948,-1.39555 0.92578,-2.74805 l -0.28906,-0.52734 c -0.03625,1.2525 -0.21586,2.01406 -0.53711,2.28906 -0.19,0.1612 -0.37047,0.14195 -0.54297,-0.0606 -0.09375,-0.10875 -0.26086,-0.3814 -0.50586,-0.8164 l -1.54101,-2.75 c -0.17875,-0.32 -0.34852,-0.57493 -0.50977,-0.76368 -0.25,-0.29187 -0.50336,-0.45437 -0.75976,-0.48828 z m -10.39258,5.51953 -0.60352,1.16797 c -0.2275,0.35125 -0.39937,0.61196 -0.51562,0.78321 -0.575,0.86375 -0.93086,1.58672 -1.06836,2.16797 -0.13875,0.58125 -0.10243,1.20765 0.11132,1.8789 0.19126,0.605 0.57626,1.18172 1.15626,1.73047 l 0.27148,-1.35937 c -0.65,-0.50126 -1.00305,-1.07461 -1.06055,-1.72461 -0.05625,-0.64875 0.18391,-1.32149 0.72266,-2.02149 0.20125,-0.26 0.46211,-0.55867 0.78711,-0.88867 l 2.07031,5.04101 c 0.58125,1.4075 0.91003,2.48493 0.98633,3.23243 0.075,0.75 -0.07633,1.37007 -0.45508,1.86133 -0.39625,0.51625 -0.96156,0.74359 -1.69531,0.68359 l 0.16015,1.20508 c 0.75125,-0.14 1.36875,-0.51922 1.84375,-1.13672 0.50375,-0.6525 0.754,-1.35563 0.75,-2.10938 -0.0025,-0.75375 -0.25882,-1.74867 -0.76757,-2.98242 l 2.10546,-2.73633 2.63282,1.70118 1.39258,-2.59766 -0.2793,-0.32031 c -0.23875,0.35 -0.38013,0.55382 -0.42383,0.61132 -0.245,0.31625 -0.54258,0.43829 -0.89258,0.36329 -0.35,-0.0763 -0.95375,-0.39032 -1.8125,-0.94532 l -3.69336,-2.38281 -1.72265,-1.22266 z m 0.38086,1.95704 4.02148,2.58593 -1.91406,2.48242 -2.10742,-5.06835 z m 21.63086,6.11718 c -0.45125,0 -0.8668,0.29422 -1.24805,0.88672 l 0.13086,0.0703 c 0.2575,-0.42625 0.55297,-0.64062 0.88672,-0.64062 0.37,0 0.68445,0.2707 0.93945,0.81445 0.2425,0.51625 0.36328,1.43953 0.36328,2.76953 l -0.01562,0.66993 0.26953,-0.0645 2.3164,-3.65039 0.21289,0 0.03321,-0.15625 -1.10742,0 -0.03125,0.15625 0.20703,0 c 0.15505,0 0.23047,0.0339 0.23047,0.0977 0,0.1975 -0.2493,0.68359 -0.74805,1.46484 l -0.82617,1.28906 c 0,-2.47125 -0.53578,-3.70703 -1.61328,-3.70703 z m 20.433593,0 c -0.49125,0 -0.9075,0.17258 -1.25,0.51758 -0.3425,0.34625 -0.57547,0.82867 -0.69922,1.45117 l -0.35351,1.77344 c -0.0362,0.18125 -0.0547,0.32484 -0.0547,0.43359 0,0.2625 0.12273,0.39649 0.36523,0.39649 0.2925,0 0.64188,-0.2093 1.04688,-0.62305 l 0.0449,-0.23437 c -0.065,0.0563 -0.10977,0.0941 -0.13477,0.11914 -0.33,0.30625 -0.55297,0.45898 -0.66797,0.45898 -0.1013,0 -0.15234,-0.0546 -0.15234,-0.16211 0,-0.0612 0.0186,-0.18922 0.0586,-0.38672 l 0.4043,-2.0332 c 0.11,-0.55375 0.2336,-0.93016 0.37109,-1.12891 0.1375,-0.19875 0.34344,-0.29687 0.61719,-0.29687 0.14375,0 0.31367,0.0454 0.51367,0.13672 l 0.35352,-0.36914 c -0.1375,-0.0362 -0.29164,-0.0527 -0.46289,-0.0527 z m 12.51758,0.37891 -0.72657,0.47461 -0.16992,0.35156 0.67578,-0.35156 0.22071,-0.47461 z m -26.193363,0.19141 -0.17188,0.0488 c -0.07625,0.17 -0.16302,0.25586 -0.26172,0.25586 -0.06625,0 -0.16351,-0.0355 -0.29101,-0.10547 l -0.08789,-0.0488 c -0.13625,-0.0775 -0.24628,-0.11719 -0.33008,-0.11719 -0.14125,0 -0.26414,0.0548 -0.36914,0.16601 -0.1063,0.11 -0.17172,0.2568 -0.19922,0.43555 l 0.17969,-0.0351 c 0.0625,-0.14875 0.14414,-0.22461 0.24414,-0.22461 0.06375,0 0.15187,0.0306 0.26562,0.0918 l 0.11719,0.0684 c 0.12375,0.0675 0.23891,0.0996 0.34766,0.0996 0.30875,0 0.49414,-0.21101 0.55664,-0.63476 z m 33.062503,0.0293 -0.52539,0.0977 -0.1543,0.76758 -0.22461,2.04882 0.14453,-0.0508 0.58594,-1.99804 0.17383,-0.86524 z m -18.68164,0.25782 -0.53321,0.12695 -0.14648,0.72851 -0.44727,0 -0.17773,0.19141 0.58984,0 -0.3457,1.72461 c -0.0375,0.18875 -0.0566,0.34203 -0.0566,0.45703 0,0.3225 0.145,0.48633 0.4375,0.48633 0.30625,0 0.62648,-0.16734 0.95898,-0.4961 l 0.0469,-0.23632 c -0.32,0.275 -0.57477,0.41211 -0.75977,0.41211 -0.11995,0 -0.17773,-0.0681 -0.17773,-0.20313 0,-0.075 0.0177,-0.20101 0.0527,-0.38476 l 0.34961,-1.75977 0.20899,0 c 0.17125,0 0.36664,0.0107 0.58789,0.0332 l 0.21094,-0.22461 -0.96875,0 0.16992,-0.85546 z m -11.408213,0.79296 c -0.30125,0 -0.63796,0.20243 -1.01171,0.60743 l -0.04493,0.23632 c 0.3425,-0.3775 0.59813,-0.5664 0.76563,-0.5664 0.10125,0 0.15039,0.0539 0.15039,0.16015 0,0.06 -0.01989,0.18922 -0.05859,0.38672 l -0.25196,1.26953 -0.18945,0.79297 0.53906,-0.0293 0.18946,-0.91211 c 0.23749,-0.43875 0.48312,-0.81078 0.73437,-1.11328 0.25125,-0.30001 0.43836,-0.45118 0.56836,-0.45118 0.10255,0 0.1543,0.0738 0.1543,0.21875 0,0.0525 -0.01191,0.1336 -0.03321,0.2461 l -0.40429,2.04101 0.5039,-0.0293 0.19336,-0.93165 c 0.56625,-1.02999 0.99813,-1.54492 1.29688,-1.54492 0.1063,0 0.16015,0.0716 0.16015,0.21289 0,0.0512 -0.01331,0.13235 -0.03711,0.2461 l -0.25,1.2539 c -0.0425,0.2075 -0.0625,0.3537 -0.0625,0.4375 0,0.25875 0.12235,0.38868 0.3711,0.38868 0.30125,0 0.63867,-0.20297 1.01367,-0.60547 l 0.04687,-0.23828 c -0.34125,0.37625 -0.59562,0.5664 -0.76562,0.5664 -0.1025,0 -0.15234,-0.0546 -0.15234,-0.16211 0,-0.0612 0.01859,-0.19047 0.05859,-0.38672 l 0.25,-1.2539 c 0.0274,-0.14125 0.04102,-0.26047 0.04102,-0.35547 0,-0.32375 -0.15133,-0.48438 -0.45508,-0.48438 -0.21625,0 -0.45414,0.13571 -0.71289,0.40821 -0.25875,0.27125 -0.48383,0.62328 -0.67383,1.05078 l -0.03516,0 0.12305,-0.625 c 0.0288,-0.14 0.04297,-0.25813 0.04297,-0.35938 0,-0.135 -0.03969,-0.24593 -0.11719,-0.33593 -0.0775,-0.0925 -0.17406,-0.13868 -0.28906,-0.13868 -0.22,0 -0.46,0.13079 -0.71875,0.39454 -0.26,0.26499 -0.49875,0.61945 -0.71875,1.06445 l -0.03711,0 0.12695,-0.63477 c 0.04,-0.2025 0.06055,-0.34934 0.06055,-0.43554 0,-0.25875 -0.12485,-0.38868 -0.3711,-0.38868 z m 5.39258,0 c -0.30125,0 -0.63867,0.20297 -1.01367,0.60547 l -0.04492,0.23633 c 0.3425,-0.37625 0.59812,-0.5625 0.76562,-0.5625 0.1013,0 0.15235,0.052 0.15235,0.1582 0,0.0588 -0.02055,0.19047 -0.06055,0.38672 l -0.24805,1.26172 c -0.0275,0.13875 -0.04101,0.25516 -0.04101,0.34766 0,0.325 0.13515,0.48633 0.41015,0.48633 0.4625,0 0.93758,-0.48719 1.42383,-1.46094 l 0.04492,0 -0.13085,0.63476 c -0.04131,0.20375 -0.06055,0.35 -0.06055,0.4375 0,0.25875 0.12305,0.39063 0.37305,0.39063 0.29875,0 0.63742,-0.20367 1.013673,-0.60742 l 0.0449,-0.23828 c -0.341253,0.3775 -0.595633,0.5664 -0.765633,0.5664 -0.10125,0 -0.15039,-0.0546 -0.15039,-0.16211 0,-0.06 0.0186,-0.19047 0.0586,-0.38672 l 0.25,-1.26953 0.1914,-0.79297 -0.54492,0.0312 -0.18555,0.92383 c -0.22,0.4125 -0.45945,0.77469 -0.7207,1.08594 -0.26125,0.31125 -0.45719,0.4668 -0.58594,0.4668 -0.10125,0 -0.15039,-0.0677 -0.15039,-0.20899 0,-0.0462 0.0088,-0.12773 0.03125,-0.24023 l 0.25586,-1.26563 c 0.0413,-0.205 0.06055,-0.3525 0.06055,-0.4375 0,-0.2575 -0.1243,-0.38672 -0.37305,-0.38672 z m 7.859383,0 c -0.3,0 -0.63797,0.20297 -1.01172,0.60547 l -0.0469,0.23633 c 0.34375,-0.37625 0.60008,-0.5625 0.76758,-0.5625 0.1013,0 0.15235,0.052 0.15235,0.1582 0,0.0588 -0.0206,0.19047 -0.0606,0.38672 l -0.24805,1.26172 c -0.0275,0.13875 -0.041,0.25516 -0.041,0.34766 0,0.325 0.13515,0.48633 0.41015,0.48633 0.4625,0 0.93688,-0.48719 1.42188,-1.46094 l 0.0469,0 -0.13086,0.63476 c -0.04,0.20375 -0.0605,0.35 -0.0605,0.4375 0,0.25875 0.12304,0.39063 0.37304,0.39063 0.29875,0 0.63547,-0.20367 1.01172,-0.60742 l 0.0469,-0.23828 c -0.34125,0.3775 -0.59633,0.5664 -0.76758,0.5664 -0.1,0 -0.15039,-0.0546 -0.15039,-0.16211 0,-0.06 0.0186,-0.19047 0.0586,-0.38672 l 0.25196,-1.26953 0.1914,-0.79297 -0.54687,0.0312 -0.18555,0.92383 c -0.22,0.4125 -0.45945,0.77469 -0.7207,1.08594 -0.26125,0.31125 -0.45649,0.4668 -0.58399,0.4668 -0.10125,0 -0.15234,-0.0677 -0.15234,-0.20899 0,-0.0462 0.0107,-0.12773 0.0332,-0.24023 l 0.25391,-1.26563 c 0.0413,-0.205 0.0625,-0.3525 0.0625,-0.4375 0,-0.2575 -0.125,-0.38672 -0.375,-0.38672 z m 3.67578,0 c -0.30125,0 -0.63797,0.20243 -1.01172,0.60743 l -0.0449,0.23632 c 0.34125,-0.3775 0.59812,-0.5664 0.76562,-0.5664 0.10005,0 0.15039,0.0539 0.15039,0.16015 0,0.06 -0.0199,0.18922 -0.0586,0.38672 l -0.25195,1.26953 -0.18946,0.79297 0.53907,-0.0293 0.18945,-0.91211 c 0.2375,-0.43875 0.48312,-0.81078 0.73437,-1.11328 0.25,-0.3 0.43836,-0.45118 0.56836,-0.45118 0.10255,0 0.1543,0.0738 0.1543,0.21875 0,0.0525 -0.012,0.1336 -0.0332,0.2461 l -0.4043,2.04101 0.50391,-0.0293 0.19336,-0.93165 c 0.56625,-1.03 0.99812,-1.54492 1.29687,-1.54492 0.1063,0 0.16016,0.0716 0.16016,0.21289 0,0.0512 -0.0133,0.13235 -0.0371,0.2461 l -0.25,1.2539 c -0.0425,0.2075 -0.0625,0.3537 -0.0625,0.4375 0,0.25875 0.1243,0.38868 0.37305,0.38868 0.30125,0 0.63671,-0.20297 1.01171,-0.60547 l 0.0469,-0.23828 c -0.34125,0.37625 -0.59563,0.5664 -0.76563,0.5664 -0.1025,0 -0.15234,-0.0546 -0.15234,-0.16211 0,-0.0612 0.0198,-0.19047 0.0586,-0.38672 l 0.25,-1.2539 c 0.0274,-0.14125 0.041,-0.26047 0.041,-0.35547 0,-0.32375 -0.15133,-0.48438 -0.45508,-0.48438 -0.21625,0 -0.45414,0.13571 -0.71289,0.40821 -0.25875,0.27125 -0.48312,0.62328 -0.67187,1.05078 l -0.0371,0 0.12304,-0.625 c 0.0287,-0.14 0.043,-0.25813 0.043,-0.35938 0,-0.135 -0.0377,-0.24593 -0.11523,-0.33593 -0.0788,-0.0925 -0.17727,-0.13868 -0.29102,-0.13868 -0.22,0 -0.45875,0.13079 -0.71875,0.39454 -0.26,0.26499 -0.49875,0.61945 -0.71875,1.06445 l -0.0371,0 0.12696,-0.63477 c 0.0374,-0.2025 0.0586,-0.34934 0.0586,-0.43554 0,-0.25875 -0.12289,-0.38868 -0.36914,-0.38868 z m 5.92773,0 -1.25781,0.41211 -0.0312,0.15625 c 0.19875,-0.0575 0.33852,-0.0859 0.41602,-0.0859 0.11125,0 0.16601,0.0711 0.16601,0.21484 0,0.085 -0.0241,0.25406 -0.0703,0.50781 l -0.17969,0.89453 c -0.04,0.2 -0.0586,0.34414 -0.0586,0.43164 0,0.25875 0.12164,0.38868 0.36914,0.38868 0.29875,0 0.63547,-0.20172 1.01172,-0.60547 l 0.0469,-0.23828 c -0.34125,0.37625 -0.59687,0.5664 -0.76562,0.5664 -0.1013,0 -0.15235,-0.0555 -0.15235,-0.16797 0,-0.055 0.0199,-0.18211 0.0586,-0.38086 l 0.2539,-1.26953 0.19336,-0.82422 z m 1.44922,0 c -0.3,0 -0.63922,0.20243 -1.01172,0.60743 l -0.0449,0.23632 c 0.34125,-0.3775 0.59688,-0.5664 0.76563,-0.5664 0.0999,0 0.15234,0.0539 0.15234,0.16015 0,0.06 -0.0206,0.18922 -0.0605,0.38672 l -0.25195,1.26953 -0.18945,0.79297 0.53906,-0.0293 0.18945,-0.91211 c 0.2375,-0.43875 0.48313,-0.81078 0.73438,-1.11328 0.25,-0.3 0.43961,-0.45118 0.56836,-0.45118 0.1037,0 0.15429,0.0738 0.15429,0.21875 0,0.0525 -0.0107,0.1336 -0.0332,0.2461 l -0.4043,2.04101 0.50391,-0.0293 0.19336,-0.93165 c 0.565,-1.03 0.99883,-1.54492 1.29883,-1.54492 0.10495,0 0.1582,0.0716 0.1582,0.21289 0,0.0512 -0.0133,0.13235 -0.0371,0.2461 l -0.25,1.2539 c -0.0425,0.2075 -0.0645,0.3537 -0.0645,0.4375 0,0.25875 0.12625,0.38868 0.375,0.38868 0.30125,0 0.63867,-0.20297 1.01367,-0.60547 l 0.0469,-0.23828 c -0.34375,0.37625 -0.59758,0.5664 -0.76758,0.5664 -0.1025,0 -0.15235,-0.0546 -0.15235,-0.16211 0,-0.0612 0.0199,-0.19047 0.0586,-0.38672 l 0.25,-1.2539 c 0.0275,-0.14125 0.041,-0.26047 0.041,-0.35547 0,-0.32375 -0.15078,-0.48438 -0.45703,-0.48438 -0.215,0 -0.45219,0.13571 -0.71094,0.40821 -0.25875,0.27125 -0.48507,0.62328 -0.67382,1.05078 l -0.0352,0 0.12305,-0.625 c 0.03,-0.14 0.0449,-0.25813 0.0449,-0.35938 0,-0.135 -0.0416,-0.24593 -0.11914,-0.33593 -0.0775,-0.0925 -0.17336,-0.13868 -0.28711,-0.13868 -0.22,0 -0.46,0.13079 -0.71875,0.39454 -0.26125,0.26499 -0.5007,0.61945 -0.7207,1.06445 l -0.0371,0 0.1289,-0.63477 c 0.0374,-0.2025 0.0586,-0.34934 0.0586,-0.43554 0,-0.25875 -0.1236,-0.38868 -0.3711,-0.38868 z m -28.328123,0.0312 c -0.59375,0 -1.09657,0.24789 -1.50782,0.74414 -0.3975,0.4775 -0.5957,0.96485 -0.5957,1.46485 0,0.45125 0.17977,0.68164 0.54102,0.68164 0.23875,0 0.49312,-0.13891 0.76562,-0.41016 0.2725,-0.27125 0.50617,-0.62273 0.70117,-1.05273 l 0.04493,0 -0.12696,0.63672 c -0.0412,0.205 -0.0625,0.35054 -0.0625,0.43554 0,0.25875 0.12625,0.39063 0.375,0.39063 0.29875,0 0.63617,-0.20242 1.01367,-0.60742 l 0.04493,-0.23828 c -0.34,0.3775 -0.59438,0.5664 -0.76563,0.5664 -0.1013,0 -0.15234,-0.0546 -0.15234,-0.16211 0,-0.0588 0.01979,-0.18601 0.05859,-0.38476 l 0.25,-1.27149 0.18555,-0.76172 c -0.2675,-0.0212 -0.52453,-0.0312 -0.76953,-0.0312 z m -0.48438,0.25586 c 0.21,0 0.42438,0.0464 0.64063,0.14258 l -0.11524,0.58399 c -0.20875,0.39875 -0.45422,0.75304 -0.73047,1.06054 -0.2775,0.31125 -0.48726,0.46485 -0.63476,0.46485 -0.15745,0 -0.23633,-0.1336 -0.23633,-0.40235 0,-0.3725 0.10938,-0.79351 0.32812,-1.25976 0.18625,-0.395 0.43555,-0.58985 0.74805,-0.58985 z m 33.693363,1.93555 -0.40039,0.30664 0.30274,0.39258 0.39843,-0.28516 -0.30078,-0.41406 z m -18.37305,0.96289 -0.27343,0.19727 0.20507,0.27734 c -0.0287,0.17875 -0.11406,0.27406 -0.25781,0.28906 l -0.0762,0.084 c 0.1825,0 0.32734,-0.0491 0.43359,-0.15039 0.10375,-0.1 0.15993,-0.24274 0.16993,-0.42774 l -0.20118,-0.26953 z"
       id="path4477"
       inkscape:connector-curvature="0" />
  </g>
</svg>
