<?xml version="1.0" encoding="UTF-8" standalone="no"?>
<!-- Created with Inkscape (http://www.inkscape.org/) -->

<svg
   xmlns:dc="http://purl.org/dc/elements/1.1/"
   xmlns:cc="http://creativecommons.org/ns#"
   xmlns:rdf="http://www.w3.org/1999/02/22-rdf-syntax-ns#"
   xmlns:svg="http://www.w3.org/2000/svg"
   xmlns="http://www.w3.org/2000/svg"
   xmlns:sodipodi="http://sodipodi.sourceforge.net/DTD/sodipodi-0.dtd"
   xmlns:inkscape="http://www.inkscape.org/namespaces/inkscape"
   width="210mm"
   height="297mm"
   viewBox="0 0 744.09448819 1052.3622047"
   id="svg2"
   version="1.1"
   inkscape:version="0.91 r13725"
   sodipodi:docname="luci_var2.svg">
  <defs
     id="defs4">
    <clipPath
       id="clipPath4147"
       clipPathUnits="userSpaceOnUse">
      <path
         inkscape:connector-curvature="0"
         id="path4149"
         d="m 0,88.583 141.732,0 L 141.732,0 0,0 0,88.583 Z" />
    </clipPath>
  </defs>
  <sodipodi:namedview
     id="base"
     pagecolor="#ffffff"
     bordercolor="#666666"
     borderopacity="1.0"
     inkscape:pageopacity="0.0"
     inkscape:pageshadow="2"
     inkscape:zoom="2.8"
     inkscape:cx="341.29311"
     inkscape:cy="260.57306"
     inkscape:document-units="mm"
     inkscape:current-layer="layer1"
     showgrid="false"
     inkscape:window-width="1440"
     inkscape:window-height="837"
     inkscape:window-x="-4"
     inkscape:window-y="-4"
     inkscape:window-maximized="1" />
  <metadata
     id="metadata7">
    <rdf:RDF>
      <cc:Work
         rdf:about="">
        <dc:format>image/svg+xml</dc:format>
        <dc:type
           rdf:resource="http://purl.org/dc/dcmitype/StillImage" />
        <dc:title></dc:title>
      </cc:Work>
    </rdf:RDF>
  </metadata>
  <g
     inkscape:label="Layer 1"
     inkscape:groupmode="layer"
     id="layer1">
    <path
       style="fill:#52423b;fill-opacity:1;fill-rule:nonzero;stroke:none"
       d="M 399.40234 777.94922 C 399.08859 777.95722 398.94891 778.24922 398.94141 778.54297 C 398.92261 779.85047 399.08023 781.14945 398.92773 782.4707 C 398.82523 783.41945 399.49016 784.22789 399.91016 785.05664 C 400.46891 786.92914 401.19617 788.7225 402.23242 790.59375 C 403.63492 789.5475 405.49609 789.195 404.71484 786.96875 C 404.25859 784.25 403.53602 781.67492 401.32227 779.76367 C 400.84227 779.34992 400.58125 778.69008 400.15625 778.20508 C 400.0025 778.02258 399.65859 777.94172 399.40234 777.94922 z M 409.84961 783.40625 C 409.71898 783.40625 409.61812 783.51672 409.57812 783.83984 C 409.06313 784.83234 408.54805 785.82922 408.0293 786.82422 C 407.5393 787.69922 407.04414 788.56891 406.55664 789.44141 C 406.04289 790.36266 405.87148 791.31672 406.27148 792.32422 C 406.09273 792.64422 405.91703 792.96766 405.73828 793.28516 C 405.73828 793.28516 405.73633 793.28711 405.73633 793.28711 C 405.43133 792.95336 405.15602 792.59242 404.82227 792.29492 C 404.47727 791.98617 404.02758 791.79937 403.58008 792.01562 C 403.12633 792.23312 403.00219 792.68656 403.05469 793.16406 C 403.13089 793.88031 403.22945 794.595 403.31445 795.3125 C 403.36565 795.4975 403.4143 795.68219 403.4668 795.86719 C 403.4618 795.86619 403.44531 795.85742 403.44531 795.85742 C 403.44531 795.85942 403.51367 796.03125 403.51367 796.03125 C 403.45867 796.195 403.40211 796.36008 403.34961 796.51758 C 402.17461 796.41508 401.50016 795.71391 401.12891 794.66016 C 401.48266 793.70641 401.0445 792.95844 400.3457 792.46094 C 399.46195 791.83094 399.0132 790.9257 398.4707 790.06445 C 396.7357 789.66945 396.45242 789.86711 396.38867 791.50586 C 396.36117 792.34336 396.33229 793.18594 396.30469 794.02344 C 396.48219 794.66969 396.97609 795.03906 397.49609 795.38281 C 397.81109 796.18531 398.27992 796.87758 399.01367 797.36133 C 399.52117 798.13133 400.01164 798.90688 400.52539 799.67188 C 400.86789 800.17313 400.81305 800.70789 400.81055 801.27539 C 400.81255 803.20539 401.22594 803.45023 403.17969 802.80273 C 404.30719 802.19148 404.33305 802.0307 403.4668 801.0957 C 403.23055 800.70195 402.93102 800.32734 402.75977 799.90234 C 402.50352 799.26109 402.70992 798.74359 403.45117 798.74609 C 404.55367 798.74609 404.55055 797.96133 404.8418 797.33008 C 404.9331 797.16883 405.02898 797.0082 405.11523 796.8457 L 405.11523 796.8418 C 405.11623 796.8428 405.11614 796.8447 405.11914 796.8457 C 405.47289 797.1382 405.77297 797.48156 405.69922 797.97656 C 405.56672 798.86406 406.06109 799.50953 406.49609 800.17578 C 406.19859 800.71953 405.93875 801.27156 406.1875 801.91406 C 406.18689 801.91422 406.18616 801.91391 406.18555 801.91406 C 405.1143 802.59531 404.98359 803.57742 405.27734 804.70117 C 404.90859 805.84367 404.54133 806.98586 404.17383 808.13086 C 403.94383 808.85336 403.88505 809.59406 404.125 810.32031 C 404.345 810.99781 404.19403 811.59469 403.86523 812.17969 C 403.22773 811.37719 402.81008 810.46953 402.42383 809.51953 C 401.89883 808.24828 401.26578 807.00297 400.55078 805.82422 C 399.59453 804.24797 398.55961 802.71023 396.81836 801.83398 C 396.42461 801.63398 396.14711 801.20891 395.81836 800.87891 C 395.45383 800.65158 395.09002 800.37443 394.68555 800.79883 C 394.15555 801.49258 394.34659 802.16688 394.74414 802.82812 C 394.74414 804.11688 394.81094 805.36781 395.52344 806.53906 C 395.83719 807.05406 395.84555 807.76227 395.9668 808.38477 C 396.0743 808.95227 396.36148 809.40297 396.80273 809.76172 C 396.73546 809.25921 396.75222 808.78393 396.86328 808.33984 C 396.75252 808.7834 396.73556 809.25992 396.80273 809.76172 C 396.87643 810.00547 396.95305 810.24367 397.0293 810.48242 C 397.0293 810.48242 397.0293 810.48438 397.0293 810.48438 C 397.0293 810.48438 397.03125 810.48438 397.03125 810.48438 C 398.045 810.44568 398.94367 810.79461 399.79492 811.31836 C 399.79524 811.31874 399.7946 811.31993 399.79492 811.32031 C 398.94367 810.79656 398.0418 810.44758 397.0293 810.48633 C 397.0293 810.48633 397.0293 810.48438 397.0293 810.48438 C 397.0293 810.48537 397.02644 810.48533 397.02344 810.48633 C 396.55094 811.58383 397.32672 812.61055 397.19922 813.68555 C 396.87047 813.53055 396.54062 813.37555 396.20312 813.2168 C 395.42563 812.86305 395.25172 813.33273 395.19922 813.95898 C 395.28802 814.20773 395.36391 814.46164 395.44141 814.71289 L 395.45117 814.71289 C 395.40367 815.52289 395.44936 816.32008 395.53516 817.11133 C 395.62396 817.17013 395.71234 817.23078 395.80859 817.26953 C 395.80887 817.27004 395.80832 817.27098 395.80859 817.27148 C 395.71109 817.23268 395.62391 817.17208 395.53516 817.11328 C 395.14391 816.86078 394.80867 816.48898 394.35742 816.36523 C 394.59367 816.22773 394.81391 816.07445 394.81641 815.7207 C 394.79261 815.51945 394.68359 815.38445 394.49609 815.31445 C 394.34359 814.7157 394.06625 814.21367 393.46875 813.95117 C 393.01375 813.98237 392.84828 813.60758 392.61328 813.33008 C 391.02578 811.34258 388.80875 810.32211 386.5 809.50586 C 385.1425 809.02461 383.89656 809.36969 383.03906 810.64844 C 382.72406 811.11469 382.33359 811.53883 382.30859 812.14258 C 382.57484 812.57258 382.84242 813.00977 383.10742 813.44727 C 383.10683 813.44704 383.10606 813.44749 383.10547 813.44727 C 382.84172 813.00977 382.57484 812.57258 382.30859 812.14258 C 382.25609 812.40883 382.16859 812.67586 382.15234 812.94336 C 382.13734 813.22461 382.12833 813.64664 381.86328 813.61914 C 380.67578 813.49539 379.39859 813.65872 378.40234 812.76367 C 378.26609 812.63992 378.19289 812.45312 378.08789 812.29688 C 378.08589 812.29588 378.08398 812.29592 378.08398 812.29492 C 378.08498 812.29492 378.08784 812.29397 378.08984 812.29297 C 378.18984 811.22422 377.99239 810.31313 376.83984 809.89062 C 376.83884 809.89162 376.83698 809.89062 376.83398 809.89062 C 373.68398 808.94813 370.84469 809.48547 368.36719 811.69922 C 367.37219 812.32297 366.51633 813.06695 366.17383 814.25195 C 366.17326 814.25217 366.17244 814.25173 366.17188 814.25195 C 365.31187 814.9157 365.4057 816.14422 364.62695 816.88672 C 363.5182 816.90542 362.45172 816.37578 361.32422 816.61328 C 360.78922 816.52828 360.3168 816.60867 360.06055 817.16992 C 359.96935 817.33367 359.88313 817.49711 359.79688 817.66211 C 359.79688 817.66311 359.79688 817.66602 359.79688 817.66602 C 359.79622 817.66611 359.79558 817.66592 359.79492 817.66602 C 359.79492 817.66602 359.79688 817.66311 359.79688 817.66211 C 357.74687 818.51586 356.46391 820.03781 355.87891 822.16406 C 356.16141 822.45156 356.50203 822.49141 356.86328 822.44141 C 356.91578 822.25641 356.96664 822.06922 357.02539 821.88672 C 357.02605 821.88607 357.02668 821.88542 357.02734 821.88477 C 356.96854 822.06852 356.91773 822.25516 356.86523 822.44141 C 356.79023 822.70141 356.71086 822.96133 356.59961 823.20508 C 356.33211 823.78758 355.885 824.0375 355.25 823.71875 C 354.975 824.1075 355.02734 824.52141 355.15234 824.94141 C 354.76734 825.51766 354.37859 826.09773 353.99609 826.67773 C 354.13984 827.08898 354.24818 827.4975 353.98438 827.90625 C 353.74313 828.06625 353.71609 828.26594 353.87109 828.49219 C 354.03984 828.65844 354.34313 828.68109 354.42188 828.96484 C 354.15438 829.02864 353.89594 828.92469 353.61719 828.92969 C 353.02844 829.12219 352.87539 829.55633 352.93164 830.11133 L 352.93164 830.11719 C 352.75539 830.29844 352.6693 830.51313 352.68555 830.76562 C 352.73675 830.88063 352.79305 830.98961 352.8418 831.09961 C 352.9231 831.18961 353.00805 831.27398 353.0918 831.36523 C 353.4468 831.69273 353.85859 831.89813 354.33984 831.95312 C 354.40854 832.32812 354.70414 832.61312 355.02539 832.89062 C 355.34289 833.12563 355.65922 833.36055 355.98047 833.5918 C 357.02172 833.24055 357.95117 833.89328 358.95117 833.92578 C 359.22367 834.02953 359.49703 834.13148 359.76953 834.24023 C 360.58703 834.24623 360.90695 834.95305 361.4082 835.4043 L 361.41016 835.4043 C 361.41016 835.4043 361.4082 835.4042 361.4082 835.4082 C 361.72643 835.86246 362.04452 836.32112 362.36523 836.77539 C 362.36174 836.77516 362.35907 836.77344 362.35547 836.77344 C 361.68547 836.65969 360.92719 836.44266 360.39844 836.91016 C 359.37969 837.81766 358.14875 837.31781 356.84375 837.41406 C 357.49625 839.52156 358.94328 840.51875 360.51953 841.40625 C 362.68453 843.57625 365.23984 845.0618 368.24609 845.7168 C 368.84734 845.9318 369.44492 846.14648 370.04492 846.36523 C 370.32367 847.55023 370.32414 847.54984 369.05664 848.37109 C 368.49539 848.23734 367.94953 848.29206 367.42578 848.53711 L 367.42969 848.49023 C 367.12969 848.47653 366.83336 848.4575 366.53711 848.4375 C 366.11336 848.5625 365.69008 848.68164 365.26758 848.80664 C 364.60883 848.65414 363.95992 848.43781 363.29492 848.38281 C 361.39867 848.22406 359.67805 847.93164 359.24805 845.58789 C 359.16555 845.12289 358.56156 844.73055 358.16406 844.3418 C 357.68156 843.8693 357.08188 843.4957 356.67188 842.9707 C 355.20063 841.08945 353.23789 840.09055 350.96289 839.5918 C 347.91414 839.12055 344.91234 838.25336 341.77734 838.44336 L 341.77734 838.43164 C 341.47484 838.33414 341.16969 838.25188 340.86719 838.14062 C 340.11094 838.20312 339.54656 838.41281 339.97656 839.35156 C 340.16406 839.75531 340.35031 840.15328 340.53906 840.55078 C 340.54006 840.55178 340.54002 840.55469 340.54102 840.55469 L 340.53906 840.55469 C 339.24156 840.70594 338.00219 839.77 336.67969 840.34375 C 336.67869 840.34475 336.67778 840.34466 336.67578 840.34766 C 336.38578 840.25016 336.09594 840.16422 335.80469 840.07422 C 335.37094 839.54297 334.83203 839.19836 334.14453 839.06836 C 333.39203 838.91961 332.53852 838.91305 331.91602 838.5293 C 330.50727 837.67055 328.99711 837.5918 327.44336 837.5918 C 326.64211 837.11305 325.83359 836.88224 324.99609 837.52344 C 324.48484 838.01094 324.81755 838.44938 325.09375 838.89062 C 325.09575 838.89062 325.09566 838.88867 325.09766 838.88867 C 325.48891 839.28492 326.00414 839.61555 326.24414 840.0918 C 327.30039 842.1918 329.15289 843.44 331.05664 844.59375 C 332.47789 845.45375 333.97938 846.22102 335.51562 846.85352 C 336.66062 847.31977 337.75195 847.82359 338.7207 848.58984 C 338.0157 848.99109 337.29352 849.17 336.47852 848.90625 C 335.60102 848.615 334.71164 848.68789 333.83789 848.96289 C 332.45789 849.40289 331.08062 849.84602 329.70312 850.29102 C 328.34562 849.93477 327.1618 850.09617 326.3418 851.38867 C 325.58055 851.09367 324.92555 851.39359 324.2793 851.74609 L 324.2793 851.84375 C 324.82555 852.23375 325.42781 852.40359 326.10156 852.30859 C 326.61656 852.27489 327.13133 852.24367 327.64258 852.20117 C 328.34758 852.16737 329.04875 852.12362 329.75 852.07617 C 330.25375 852.14367 330.75609 852.20031 331.71484 852.32031 C 329.63984 853.49406 327.92523 854.46414 326.20898 855.43164 C 326.00523 855.53914 325.80602 855.64906 325.60352 855.75781 C 325.50602 856.07031 325.37633 856.36047 325.20508 856.63672 C 324.04008 857.26797 322.87063 857.89805 321.70312 858.5293 C 321.17437 858.3293 320.68555 858.4493 320.2168 858.7168 C 319.7093 858.93805 319.35695 859.30305 319.2207 859.8418 C 319.0457 860.12055 318.83617 860.37922 318.70117 860.66797 C 318.28867 861.55922 318.50383 861.99273 319.33008 861.89648 C 319.85508 861.83528 320.35859 861.60031 320.87109 861.44531 C 320.87209 861.44231 320.87495 861.43945 320.87695 861.43945 C 321.1907 861.50565 321.50656 861.56906 321.82031 861.63281 C 322.77156 861.88781 323.56141 861.4657 324.34766 861.0332 C 325.91641 860.19445 327.56953 859.47273 329.01953 858.45898 C 330.51828 857.41023 332.1407 856.91445 333.87695 856.5957 C 334.41695 856.2907 334.96211 855.98008 335.50586 855.67383 C 336.02836 855.16883 336.22453 854.54664 336.17578 853.83789 L 336.16406 853.83398 C 336.88531 853.42398 337.73602 853.15211 338.10352 852.34961 C 338.15982 852.23086 338.20312 852.10133 338.23438 851.95508 C 338.23537 851.94608 338.23723 851.94044 338.24023 851.93164 L 338.23633 851.93164 L 338.23633 851.92578 C 338.49508 851.08703 339.10719 850.60437 339.92969 850.48438 C 341.29344 850.27937 342.50133 849.73656 343.64258 849.00781 C 343.94133 848.93031 344.23852 848.7968 344.54102 848.7793 C 345.43727 848.7368 345.54023 848.89555 345.33398 849.87305 C 345.28898 850.07305 345.22367 850.2725 345.16992 850.46875 C 344.53867 850.865 343.82859 851.17289 343.68359 852.02539 C 343.60359 852.35414 343.52336 852.68227 343.44336 853.00977 C 342.97461 853.28477 342.60383 853.63016 342.58008 854.22266 C 341.39883 856.39016 340.21781 858.57063 339.03906 860.73438 C 339.03906 860.73537 339.03716 860.73633 339.03516 860.73633 C 338.95136 861.04008 338.86375 861.33922 338.78125 861.63672 C 337.7375 862.76547 336.78367 863.95211 336.16992 865.38086 C 335.68992 865.81461 335.44125 866.26375 336.1875 866.65625 C 336.98625 867.0725 337.82375 867.37445 338.75 867.2832 C 339.96625 867.56945 340.28836 866.2568 341.16211 865.93555 C 341.66086 866.1418 342.15383 866.17883 342.64258 865.89258 C 343.87633 865.77508 344.70375 865.0007 345.46875 864.12695 C 346.38125 863.1432 347.29211 862.15195 347.75586 860.8457 C 349.01336 859.6332 349.28328 857.87578 350.17578 856.45703 C 350.32953 856.34953 350.46312 856.22492 350.57812 856.07617 C 350.67813 855.75867 350.8075 855.44023 351.03125 855.17773 C 351.185 855.09273 351.31242 854.97984 351.41992 854.83984 C 353.00742 853.26609 354.8618 852.06961 356.87305 851.09961 C 357.9668 850.56461 359.01664 849.93766 360.08789 849.34766 C 361.47164 849.78141 363.00859 849.41133 364.33984 850.14258 C 363.38801 850.79712 362.16527 851.10603 361.66211 852.31641 C 361.66175 852.31726 361.66051 852.31751 361.66016 852.31836 C 360.33731 853.30542 359.15982 854.39639 358.98242 856.18164 C 357.76492 857.37539 356.75328 858.72922 355.89453 860.19922 C 355.25328 861.33172 354.83992 862.55 354.66992 863.84375 C 353.54992 865.485 354.29727 867.10766 354.75977 868.72266 C 354.88852 869.17516 355.36594 869.34906 355.83594 869.41406 C 356.27719 869.47786 356.71945 869.56477 357.1582 869.63477 C 357.212 869.84477 357.32187 870.0175 357.48438 870.15625 C 357.48491 870.15601 357.48579 870.15649 357.48633 870.15625 C 357.80633 870.7225 357.89086 871.53148 358.66211 871.67773 C 359.38086 871.80898 359.94227 871.3393 360.44727 870.9043 C 360.78227 870.6093 361.10852 870.26852 361.32227 869.88477 C 363.04727 866.82602 365.49875 864.33711 367.75 861.69336 C 368.7275 861.14086 369.68156 860.52516 370.69531 860.03516 C 372.35156 859.24266 373.75969 858.1568 374.92969 856.74805 C 377.43969 854.9943 378.79484 852.43523 379.87109 849.67773 C 380.97234 848.93023 382.16984 848.30891 382.87109 847.09766 C 383.36532 846.91794 383.85521 846.77401 384.35938 847.05469 C 384.35959 847.05481 384.35916 847.05652 384.35938 847.05664 C 383.79157 848.07132 383.86182 849.27733 383.45703 850.31055 C 382.29453 853.31055 382.45109 856.2982 383.24609 859.31445 C 383.03984 860.2007 382.96086 861.08094 383.28711 861.96094 C 383.63711 862.90469 384.51672 863.28484 385.44922 862.90234 C 386.74672 862.36609 387.55883 861.26203 388.54883 860.36328 C 389.56508 860.34198 390.63664 860.4305 390.90039 859.06055 C 391.86539 857.00055 392.82602 854.93641 393.79102 852.87891 C 394.20977 852.40266 394.44187 851.84273 394.48438 851.20898 C 394.92563 850.59273 395.15141 849.94 394.84766 849.1875 C 393.30516 848.03875 393.29633 847.80102 394.76758 846.13477 C 394.82758 845.81352 394.88922 845.48938 394.94922 845.17188 C 396.15422 843.72563 395.93438 842.41305 394.60938 841.18555 C 394.53726 841.11592 394.51549 840.99058 394.46484 840.89453 C 394.20859 841.01453 393.95031 841.13531 393.69531 841.25781 C 393.95031 841.13656 394.20664 841.01383 394.46289 840.89258 C 394.46289 840.89058 394.4638 840.88872 394.4668 840.88672 C 394.89055 840.63422 395.17422 840.28602 395.26172 839.79102 C 395.66047 839.21977 396.05953 838.65094 396.45703 838.08594 C 397.31703 837.21594 398.24438 836.43625 399.35938 835.90625 C 399.53938 835.80755 399.70492 835.69109 399.85742 835.55859 C 399.85737 835.55924 399.85747 835.5599 399.85742 835.56055 C 399.70492 835.69305 399.53937 835.8075 399.35938 835.90625 C 399.46562 836.1125 399.56758 836.32039 399.67383 836.52539 C 399.60633 837.18289 399.36281 837.88805 399.50781 838.49805 C 400.02281 840.66805 400.67398 842.80133 401.27148 844.95508 C 401.60273 845.90008 401.88742 846.87953 403.01367 847.20703 C 403.10247 847.37453 403.2257 847.51125 403.37695 847.625 C 403.68945 847.92375 403.97594 848.27555 404.33594 848.5293 C 404.69344 848.7843 405.11531 848.96653 405.53906 848.58398 C 405.86031 848.29273 405.74859 847.94391 405.62109 847.66016 C 405.20609 846.74266 404.73656 845.84625 404.28906 844.9375 C 406.39031 843.3975 406.94961 841.01844 407.63086 838.71094 C 407.70966 838.43719 407.49156 838.07531 407.41406 837.75781 C 407.41306 837.75681 407.40825 837.75586 407.40625 837.75586 C 407.40825 837.75386 407.41306 837.75395 407.41406 837.75195 C 407.01406 835.65445 406.61625 833.55328 406.21875 831.45703 C 406.48875 830.68078 406.14175 829.99797 405.9043 829.29297 C 405.8656 828.70547 405.82661 828.1175 405.78906 827.53125 C 405.84026 827.43125 405.89531 827.33367 405.94531 827.23242 C 406.75156 825.56242 407.74383 824.02914 409.04883 822.71289 C 409.16383 822.62159 409.25867 822.51688 409.32617 822.39062 C 409.54367 822.20563 409.80781 822.09688 410.07031 822.01562 C 410.19281 821.91692 410.29867 821.80719 410.38867 821.67969 C 411.56492 820.93969 413.02234 820.71633 414.02734 819.67383 C 415.11109 819.28758 415.9325 818.53164 416.75 817.77539 C 417.475 817.13914 418.11609 816.45469 418.21484 815.42969 C 418.45109 815.02469 418.41864 814.61563 418.24609 814.20312 C 418.51234 813.47687 419.60344 813.21687 419.36719 812.20312 C 419.44469 811.43562 419.19141 810.74453 418.84766 810.08203 C 418.52141 809.46078 418.14781 809.67021 417.78906 810.06641 C 416.60281 810.57641 415.61805 811.36547 414.68555 812.23047 C 414.43805 812.30047 414.18945 812.37125 413.93945 812.4375 C 413.93945 812.4385 413.93559 812.44236 413.93359 812.44336 C 412.13734 813.42336 410.33211 814.40266 408.53711 815.37891 C 408.04586 815.40021 407.75859 815.70891 407.52734 816.09766 C 407.25359 816.16266 406.9868 816.22867 406.7168 816.29492 C 406.00994 816.41356 405.74842 817.00449 405.42383 817.52539 C 405.26008 817.57159 405.09344 817.62602 404.92969 817.66602 C 404.11969 817.83727 403.98273 817.74706 404.02148 817.00586 C 404.03768 816.75461 404.14789 816.51047 404.21289 816.26172 C 404.21264 816.26117 404.21314 816.26031 404.21289 816.25977 C 404.81789 815.31602 405.2643 814.31414 405.43555 813.18164 C 405.53805 812.50289 405.93781 811.99125 406.63281 811.78125 C 406.63481 811.78125 406.63467 811.7793 406.63867 811.7793 C 406.63467 811.7813 406.63477 811.7812 406.63477 811.7832 C 406.64377 811.7822 406.64896 811.77444 406.66016 811.77344 C 406.82516 811.76744 406.93102 811.70805 407.00977 811.62305 C 407.63352 811.3068 407.88359 810.64109 408.21484 810.05859 L 408.21875 810.07031 C 408.80375 810.10901 409.32078 809.94938 409.73828 809.51562 C 409.99203 809.06562 410.25016 808.61336 410.50391 808.16211 C 410.77016 806.72211 411.17508 805.37992 412.04883 804.13867 C 412.88883 802.93617 413.48859 801.55977 414.18359 800.25977 C 414.54109 799.60977 414.89273 798.95336 414.67773 798.16211 C 414.65273 798.14581 414.62266 798.12818 414.59766 798.10938 C 414.62146 798.10838 414.63972 798.10652 414.66602 798.10352 C 414.61852 797.86227 414.57094 797.62406 414.52344 797.38281 C 414.52444 797.38281 414.52434 797.38091 414.52734 797.37891 C 414.65484 796.95516 414.85039 796.53641 414.90039 796.09766 C 414.97789 795.41391 414.61891 795.23883 413.87891 795.58008 C 413.64266 795.69258 413.42781 795.86227 413.19531 796.00977 C 412.74781 796.12102 412.44602 796.41648 412.25977 796.83398 C 412.03977 797.22148 411.94117 797.62766 412.10742 798.06641 C 411.58367 799.03766 411.06156 800.00266 410.53906 800.97266 C 410.31031 801.11641 410.06609 801.22203 409.80859 801.30078 C 409.71609 801.47203 409.62711 801.63594 409.53711 801.80469 C 408.73461 803.22719 407.93078 804.65055 406.95703 806.37305 C 406.85703 805.5768 406.81016 805.15719 406.75391 804.74219 C 406.79511 804.15969 406.82867 803.57719 406.85742 802.99219 C 406.89242 802.56719 406.92107 802.14234 406.94727 801.71484 C 406.75962 801.76635 406.57365 801.81338 406.38672 801.86133 C 406.5743 801.81322 406.76092 801.76458 406.94922 801.71289 C 407.02922 801.14164 406.88406 800.62922 406.53906 800.16797 C 407.41906 798.76047 408.60398 797.59734 409.42773 796.12109 C 410.15523 794.81359 409.6193 793.41758 410.1543 792.14258 C 410.28805 791.82758 409.70297 791.65266 409.41797 791.44141 C 409.13797 791.23266 408.73703 791.01414 409.11328 790.61914 C 409.26828 790.45414 409.61922 790.4725 409.88672 790.40625 C 410.04172 790.5075 410.20719 790.60477 410.36719 790.69727 C 410.42589 790.99852 410.58617 791.08102 410.85742 790.91602 C 410.93492 790.01727 410.9707 789.10984 411.0957 788.21484 C 411.1919 787.55609 411.16195 786.95398 410.7832 786.39648 C 410.62445 785.47273 410.46414 784.55531 410.30664 783.63281 C 410.14164 783.51719 409.98023 783.40625 409.84961 783.40625 z M 376.32031 812.11719 C 376.56281 812.12119 376.79469 812.16552 377.02344 812.26172 C 377.04977 812.25381 377.07376 812.25881 377.0957 812.26953 C 377.07327 812.25822 377.05047 812.25539 377.02344 812.26367 C 376.79469 812.16747 376.56281 812.12094 376.32031 812.11719 z M 401 812.13867 C 400.9511 812.20383 400.86385 812.24148 400.75195 812.24023 C 400.67075 812.24023 400.56086 812.22026 400.50586 812.16406 C 400.50553 812.1637 400.50619 812.16248 400.50586 812.16211 C 400.56086 812.21841 400.67141 812.23828 400.75391 812.23828 C 400.86396 812.23927 400.95097 812.20246 401 812.13867 z M 377.09766 812.26953 C 377.12046 812.28114 377.13843 812.30018 377.1582 812.32422 C 377.13906 812.3012 377.11963 812.28091 377.09766 812.26953 z M 374.82617 812.30469 C 374.1136 812.56716 373.40552 812.84946 372.67969 813.01953 C 373.40464 812.8495 374.11407 812.56683 374.82617 812.30469 z M 377.26953 812.48438 C 377.30672 812.535 377.34781 812.57187 377.39648 812.56641 C 377.34686 812.57303 377.30725 812.53572 377.26953 812.48438 z M 384.40039 813.63281 C 384.5367 813.67555 384.66359 813.74225 384.77734 813.85352 C 385.01516 813.81227 385.20873 813.85105 385.375 813.9375 C 385.20873 813.85111 385.01516 813.81391 384.77734 813.85547 C 384.66359 813.74391 384.53672 813.67572 384.40039 813.63281 z M 385.81055 814.3125 C 386.00379 814.54242 386.174 814.81235 386.37891 815.02148 C 386.44685 815.09083 386.51805 815.155 386.5957 815.20703 C 386.5172 815.15459 386.44751 815.09164 386.37891 815.02148 C 386.17444 814.81239 386.00347 814.54216 385.81055 814.3125 z M 366.77539 814.35742 C 366.90492 814.40851 367.03547 814.44813 367.16797 814.45312 C 367.32578 814.45845 367.47084 814.47785 367.60352 814.51172 C 367.47096 814.47801 367.32578 814.46008 367.16797 814.45508 C 367.03547 814.45008 366.90492 814.40852 366.77539 814.35742 z M 367.95898 814.66406 C 368.06406 814.73342 368.15308 814.82172 368.22656 814.93359 C 368.29971 815.04496 368.35773 815.17953 368.39648 815.33984 C 368.46278 815.60859 368.50422 815.8843 368.57422 816.1543 C 368.50292 815.8843 368.46203 815.60859 368.39453 815.33984 C 368.35578 815.17922 368.29959 815.04512 368.22656 814.93359 C 368.15354 814.82207 368.06328 814.73328 367.95898 814.66406 z M 387.81836 816.54102 L 387.82031 816.54102 C 388.10531 816.84477 388.38758 817.14797 388.67383 817.44922 C 388.64013 817.85797 388.60747 818.26687 388.57617 818.67188 L 388.57422 818.67188 C 388.60672 818.26688 388.63818 817.85867 388.67188 817.45117 C 388.38563 817.14867 388.10336 816.84477 387.81836 816.54102 z M 366.04102 816.8418 C 366.40914 817.60992 366.5925 817.99344 366.79297 818.13672 C 366.59205 817.99447 366.40752 817.61256 366.03906 816.84375 C 366.03968 816.84302 366.04039 816.84253 366.04102 816.8418 z M 375.73242 816.97266 C 375.79182 816.97694 375.84148 816.99319 375.87305 817.02539 C 375.80992 816.96164 375.67883 816.96445 375.5293 816.98633 C 375.60406 816.97532 375.67303 816.96837 375.73242 816.97266 z M 398.04688 817.80469 C 398.0077 817.83386 397.96113 817.85776 397.93555 817.89648 C 397.93585 817.89602 397.93524 817.895 397.93555 817.89453 C 397.96122 817.85652 398.008 817.83357 398.04688 817.80469 z M 370.34961 817.89062 C 370.34992 817.89026 370.35125 817.89099 370.35156 817.89062 C 370.27092 817.9864 370.19578 818.09336 370.12891 818.21289 C 370.19578 818.09336 370.26893 817.9864 370.34961 817.89062 z M 367.64258 817.98828 C 367.64329 817.98796 367.64382 817.9886 367.64453 817.98828 C 367.64482 817.9886 367.64619 817.98796 367.64648 817.98828 C 368.03586 818.4176 368.42257 818.84678 368.81445 819.27734 C 368.4232 818.84609 368.03258 818.41703 367.64258 817.98828 z M 373.55469 818.05078 C 373.65922 818.16851 373.73879 818.30804 373.80273 818.46289 C 373.73836 818.30852 373.65875 818.16844 373.55469 818.05078 z M 372.94336 818.14648 C 372.90159 818.19107 372.85637 818.22503 372.8125 818.26367 C 372.85643 818.22503 372.90152 818.19108 372.94336 818.14648 z M 396.74805 818.37891 C 396.96968 818.44468 397.18024 818.45371 397.37891 818.38086 C 397.18002 818.45365 396.96985 818.44494 396.74805 818.37891 z M 369.71094 818.42578 C 369.74687 818.49859 369.79053 818.56088 369.83789 818.61328 C 369.79009 818.56066 369.74714 818.49882 369.71094 818.42578 z M 370.77539 818.62891 C 370.78864 818.63083 370.80139 818.64032 370.81445 818.64648 C 370.80065 818.64048 370.78909 818.63336 370.77539 818.63086 C 370.70841 818.67628 370.62201 818.72005 370.53906 818.76367 C 370.62239 818.71978 370.70885 818.6746 370.77539 818.62891 z M 369.99609 818.74219 C 370.11199 818.80861 370.24889 818.83886 370.4043 818.83789 C 370.24874 818.83938 370.11217 818.8085 369.99609 818.74219 z M 378.52734 819.04688 C 378.70958 819.0611 378.89486 819.09237 379.08398 819.13867 C 378.54449 819.00628 378.03529 819.01376 377.55078 819.13281 C 377.86534 819.05533 378.18984 819.02052 378.52734 819.04688 z M 374.4668 819.24414 C 374.8244 819.59998 375.1663 819.93834 375.5918 820.36133 C 375.59114 820.36202 375.5905 820.36259 375.58984 820.36328 C 375.16494 819.94004 374.82449 819.60016 374.4668 819.24414 z M 389.42188 819.54102 C 389.56622 819.81531 389.66217 820.11431 389.73242 820.42773 C 389.78508 820.66266 389.82797 820.90422 389.87109 821.14453 C 390.34109 821.20833 390.81305 821.26922 391.2793 821.32422 C 391.27122 821.42788 391.25566 821.52952 391.23633 821.62891 C 391.25538 821.53027 391.26959 821.4289 391.27734 821.32617 C 390.81173 821.27125 390.34046 821.20819 389.87109 821.14453 C 389.87045 821.14444 389.86978 821.14462 389.86914 821.14453 C 389.82602 820.90391 389.78508 820.66283 389.73242 820.42773 C 389.66228 820.11457 389.56583 819.81504 389.42188 819.54102 z M 387.90234 819.62695 C 387.73133 820.0059 387.66688 820.40168 387.74023 820.82031 C 387.66703 820.40188 387.73117 820.00602 387.90234 819.62695 z M 367.75586 819.97461 C 367.75621 819.97426 367.75747 819.97496 367.75781 819.97461 C 367.61862 820.11378 367.4949 820.26212 367.38672 820.41992 C 367.06219 820.89332 366.86593 821.44319 366.72656 822.01562 C 366.63365 822.39725 366.56672 822.78828 366.50391 823.17578 C 366.47047 823.37828 366.43658 823.56426 366.39258 823.73633 C 366.43643 823.56426 366.46883 823.37828 366.50195 823.17578 C 366.56508 822.78828 366.63359 822.39725 366.72656 822.01562 C 366.86602 821.44319 367.06234 820.89332 367.38672 820.41992 C 367.49484 820.26212 367.61672 820.11378 367.75586 819.97461 z M 372.45508 820.41211 C 372.25008 820.48461 372.04555 820.55906 371.8418 820.63281 C 371.84155 820.63227 371.84205 820.6314 371.8418 820.63086 C 372.04555 820.55836 372.24883 820.48461 372.45508 820.41211 z M 399.44922 820.65234 C 399.20828 820.7325 398.95523 820.78164 398.69336 820.80664 C 398.37877 820.83133 398.06594 820.85894 397.76758 820.94922 C 398.06612 820.85809 398.37808 820.82947 398.69336 820.80469 C 398.95523 820.78029 399.20797 820.73234 399.44922 820.65234 z M 389.86914 821.14648 L 389.86914 821.14844 C 389.77284 821.20094 389.67492 821.25609 389.57617 821.30859 C 389.46617 821.36859 389.35984 821.42828 389.24609 821.48828 C 389.35984 821.42698 389.46617 821.36664 389.57617 821.30664 C 389.67487 821.25414 389.77289 821.19898 389.86914 821.14648 z M 407.35156 821.20117 C 407.51531 821.28237 407.67258 821.36758 407.83008 821.45508 C 407.82538 821.60102 407.8083 821.73885 407.77734 821.86719 C 407.80813 821.73895 407.82375 821.60297 407.82812 821.45703 C 407.67062 821.36953 407.51406 821.28117 407.35156 821.20117 z M 371.7168 821.24609 C 371.71805 821.43375 371.7032 821.61375 371.62695 821.76562 C 371.56742 821.88703 371.52817 821.99424 371.50586 822.08984 C 371.52809 821.99424 371.56563 821.88703 371.625 821.76562 C 371.70125 821.61375 371.7179 821.43375 371.7168 821.24609 z M 388.09961 821.61719 C 388.15258 821.65984 388.20945 821.69617 388.26758 821.73242 C 388.30128 821.75492 388.32188 821.79565 388.35938 821.81445 C 388.32067 821.79565 388.30063 821.75688 388.26562 821.73438 C 388.20812 821.69813 388.15258 821.65984 388.09961 821.61719 z M 404.56055 821.61914 C 405.04055 822.30289 405.52586 822.98336 406.00586 823.66211 L 406.00586 823.66602 C 406.00986 824.73477 406.00656 824.74008 404.69531 824.86133 C 404.53156 824.78383 404.36617 824.70266 404.20117 824.62891 C 404.17737 823.61141 403.83305 822.55164 404.56055 821.61914 z M 377.44531 822.02344 C 377.37161 822.07011 377.29729 822.11523 377.22461 822.16602 C 376.88023 822.40664 376.53984 822.65242 376.19531 822.89258 C 376.53924 822.65271 376.87872 822.40438 377.22266 822.16406 C 377.29578 822.11331 377.37127 822.07014 377.44531 822.02344 z M 383.49414 822.23438 C 383.10914 822.63688 382.68891 823.00211 382.28516 823.38086 C 382.28544 823.38058 382.28487 823.37919 382.28516 823.37891 C 382.69016 823.00141 383.11039 822.63812 383.49414 822.23438 z M 381.32617 822.25586 C 381.23654 822.33801 381.14143 822.41438 381.03711 822.48438 C 381.14098 822.41457 381.23688 822.33771 381.32617 822.25586 z M 378.60156 822.25781 C 378.49388 822.31654 378.39573 822.38261 378.30469 822.45312 C 378.39596 822.38226 378.49355 822.31678 378.60156 822.25781 z M 373.95508 822.46875 C 373.9471 822.52502 373.95242 822.58388 373.9668 822.64453 C 374.01232 822.83654 374.14695 823.045 374.22852 823.23438 C 374.14728 823.04482 374.01285 822.83614 373.9668 822.64453 C 373.95217 822.58368 373.94739 822.52544 373.95508 822.46875 z M 407.39648 822.5293 C 407.33764 822.58414 407.25689 822.62925 407.18359 822.67773 C 407.25688 822.62923 407.33763 822.58406 407.39648 822.5293 z M 371.55273 822.53906 C 371.587 822.59652 371.63387 822.64629 371.6875 822.69141 C 371.63339 822.64603 371.58725 822.59695 371.55273 822.53906 z M 390.12305 822.75195 C 390.12343 822.75161 390.12462 822.75229 390.125 822.75195 C 389.89537 822.95548 389.75135 823.21696 389.62891 823.49414 C 389.75101 823.21747 389.89382 822.95499 390.12305 822.75195 z M 379.07422 822.87109 C 378.98528 822.90037 378.91055 822.94098 378.84766 822.99219 C 378.91087 822.94059 378.98466 822.90047 379.07422 822.87109 z M 387.68945 823.0625 C 387.56827 823.38805 387.49947 823.7301 387.52734 824.09961 C 387.4998 823.72985 387.5678 823.38842 387.68945 823.0625 z M 361.86914 823.11914 C 361.88414 823.30664 361.89646 823.49328 361.91016 823.67578 C 362.08234 823.62547 362.23961 823.60475 362.38477 823.61133 C 362.23945 823.60484 362.0807 823.62742 361.9082 823.67773 C 361.8957 823.49398 361.88404 823.30664 361.86914 823.11914 z M 382.2832 823.38086 C 382.2732 823.38986 382.26716 823.3968 382.25586 823.4043 C 381.62898 823.89305 380.91273 824.28188 380.27148 824.75391 C 380.91258 824.28172 381.62898 823.89047 382.25586 823.40234 C 382.26633 823.39493 382.27505 823.38871 382.2832 823.38086 z M 360 823.75391 C 358.58687 824.10172 357.11225 824.1925 355.73633 824.69727 C 357.11175 824.19306 358.58747 824.10157 360 823.75391 z M 363.10547 823.9668 C 363.20263 824.07626 363.28769 824.2077 363.36328 824.36328 C 363.43391 824.30391 363.50734 824.2475 363.57812 824.1875 C 363.50719 824.24781 363.43453 824.30586 363.36328 824.36523 C 363.36302 824.3647 363.36354 824.36382 363.36328 824.36328 C 363.28847 824.20866 363.2017 824.07572 363.10547 823.9668 z M 378.56445 824.33984 L 378.56641 824.33984 C 378.55279 824.40235 378.52809 824.458 378.49805 824.50977 C 378.52809 824.45829 378.55062 824.40193 378.56445 824.33984 z M 387.37695 824.68555 C 387.31653 824.77495 387.2754 824.8745 387.26172 824.98633 C 387.27533 824.87403 387.31608 824.77501 387.37695 824.68555 z M 365.23828 825.09375 C 365.23868 825.09343 365.23984 825.09407 365.24023 825.09375 C 365.17501 825.14729 365.11771 825.20414 365.07031 825.26562 C 364.97553 825.38859 364.91516 825.52734 364.88477 825.67578 C 364.91508 825.52734 364.97555 825.38859 365.07031 825.26562 C 365.1177 825.20414 365.17306 825.14729 365.23828 825.09375 z M 390.28906 825.57227 C 390.29404 825.61075 390.28561 825.64306 390.26562 825.67383 C 390.28512 825.64327 390.29395 825.61035 390.28906 825.57227 z M 363.29102 825.59961 C 363.35102 825.78211 363.41391 825.96258 363.47266 826.14258 C 363.47215 826.14237 363.47121 826.14278 363.4707 826.14258 C 363.4132 825.96383 363.35102 825.78086 363.29102 825.59961 z M 393.18945 825.77734 C 393.27118 825.78038 393.35296 825.79232 393.43359 825.81445 C 393.27172 825.77005 393.10734 825.77406 392.94141 825.78516 C 392.77547 825.79626 392.60773 825.81492 392.44336 825.79492 C 392.39966 825.79092 392.3562 825.78975 392.3125 825.78125 C 392.3128 825.78079 392.3122 825.77975 392.3125 825.7793 C 392.3562 825.7893 392.40161 825.78927 392.44531 825.79297 C 392.60969 825.81237 392.77563 825.79626 392.94141 825.78516 C 393.0243 825.77961 393.10709 825.77428 393.18945 825.77734 z M 378.25391 826.23828 C 378.41567 826.35525 378.57755 826.4743 378.73438 826.59375 C 378.73415 826.59431 378.7346 826.59514 378.73438 826.5957 C 378.57729 826.47602 378.41598 826.35672 378.25391 826.23828 z M 371.82227 826.44531 C 371.92117 826.53998 372.0111 826.64078 372.08789 826.75391 C 372.01141 826.64119 371.92069 826.53969 371.82227 826.44531 z M 375.87109 826.53125 C 375.32781 826.86422 374.81398 827.25273 374.28711 827.61523 C 374.28733 827.61471 374.28689 827.6138 374.28711 827.61328 C 374.81398 827.25141 375.32781 826.86406 375.87109 826.53125 z M 363.63672 826.67773 C 363.94672 826.96648 364.25906 827.25406 364.57031 827.53906 L 364.57031 827.54102 C 364.25906 827.25477 363.94672 826.96773 363.63672 826.67773 z M 372.69336 826.99219 C 372.69401 826.99201 372.69467 826.99236 372.69531 826.99219 L 372.69531 826.99414 C 372.61707 827.01548 372.53541 827.04412 372.45508 827.07031 C 372.53477 827.04411 372.61539 827.01419 372.69336 826.99219 z M 380.24805 827.05273 C 380.21379 827.09793 380.18586 827.15837 380.16211 827.23242 L 380.17578 827.23633 C 380.17599 827.23691 380.17557 827.2377 380.17578 827.23828 L 380.16211 827.23242 L 380.16016 827.23242 C 380.18391 827.15836 380.21367 827.09781 380.24805 827.05273 z M 399.35156 827.21484 C 399.70906 827.54359 400.0007 827.95219 400.3457 828.30469 C 400.3547 828.31269 400.36425 828.32528 400.37305 828.33398 C 400.6868 828.66773 401.005 829.13687 401.375 829.20312 C 401.75625 829.27313 402.05461 829.39727 402.31836 829.54102 C 402.25716 829.58972 402.20227 829.64445 402.13477 829.68945 C 401.76227 829.94195 401.36406 830.15758 400.97656 830.39258 C 399.90781 831.24633 398.84289 832.09883 397.77539 832.95508 C 396.86664 833.40383 395.96789 833.70234 395.21289 832.68359 C 394.85164 832.81859 394.56469 832.7144 394.33594 832.43945 C 394.16219 832.55695 393.97383 832.64547 393.76758 832.69922 C 393.76558 832.69822 393.76281 832.69927 393.75781 832.69727 C 393.68502 832.79202 393.60944 832.88188 393.52734 832.96875 C 393.60906 832.88219 393.68594 832.79164 393.75781 832.69727 C 394.00406 832.37602 394.22195 832.02742 394.50195 831.73242 C 395.05695 830.96742 395.35547 830.12742 395.29297 829.16992 C 395.28897 829.02242 395.28269 828.87867 395.27539 828.73242 L 395.27734 828.73242 C 395.27732 828.73177 395.27737 828.73112 395.27734 828.73047 C 396.56918 828.87613 397.84791 828.51154 399.13477 828.47656 C 399.31477 828.05156 399.35906 827.63359 399.35156 827.21484 z M 363.31445 827.49219 C 363.31469 827.49274 363.31422 827.49359 363.31445 827.49414 C 363.44922 827.80982 363.5861 828.1218 363.72461 828.4375 C 363.73061 828.4512 363.73523 828.46211 363.74023 828.47461 C 363.73523 828.46211 363.73016 828.4512 363.72266 828.4375 C 363.58516 828.12125 363.44945 827.81039 363.31445 827.49414 C 363.1832 827.50214 363.05258 827.51872 362.92383 827.54492 C 363.05258 827.51992 363.1832 827.49959 363.31445 827.49219 z M 395.11328 827.51953 C 395.12305 827.54624 395.13378 827.57 395.13867 827.5957 C 395.3043 827.7182 395.46928 827.83854 395.64062 827.94727 C 395.47004 827.83896 395.30357 827.7199 395.13867 827.59766 C 395.13837 827.59743 395.13897 827.59593 395.13867 827.5957 C 395.13832 827.59541 395.13707 827.596 395.13672 827.5957 C 395.1366 827.59512 395.13684 827.59434 395.13672 827.59375 C 395.13161 827.56933 395.12188 827.54512 395.11328 827.51953 z M 371.92773 827.58008 C 371.75207 827.8934 371.68191 828.23184 371.69531 828.58984 C 371.68191 828.23219 371.75207 827.89336 371.92773 827.58008 z M 384.90234 827.71875 C 384.83891 827.84344 384.78375 827.97289 384.73438 828.10352 C 384.69937 828.20727 384.66987 828.31297 384.63867 828.41797 C 384.63814 828.41772 384.63725 828.41822 384.63672 828.41797 C 384.66792 828.31297 384.69862 828.20727 384.73242 828.10352 C 384.78177 827.97289 384.83859 827.84344 384.90234 827.71875 z M 362.25391 827.80273 C 362.45578 827.91023 362.63164 828.04031 362.77539 828.19922 C 362.63148 828.04031 362.45578 827.91023 362.25391 827.80273 z M 387.74219 828.07227 C 388.74904 828.09355 389.75292 828.11673 390.75977 828.13672 C 389.75227 828.11542 388.74969 828.09422 387.74219 828.07422 C 387.74203 828.07361 387.74234 828.07288 387.74219 828.07227 z M 387.74219 828.08398 C 387.71839 828.16028 387.69372 828.2375 387.66992 828.3125 C 387.61872 828.465 387.56958 828.61703 387.51953 828.76953 C 387.56953 828.61703 387.61797 828.465 387.66797 828.3125 C 387.69278 828.23689 387.71738 828.16087 387.74219 828.08398 z M 375.86523 828.33008 C 375.51762 828.32922 375.12984 828.39391 374.70703 828.51172 C 374.64984 828.52734 374.58883 828.52645 374.52539 828.51758 C 374.58877 828.52633 374.65016 828.52539 374.70703 828.50977 C 375.13016 828.39195 375.51754 828.32912 375.86523 828.33008 z M 385.42578 828.3418 C 385.42569 828.34243 385.42588 828.34311 385.42578 828.34375 C 385.23578 828.40245 385.04281 828.46078 384.85156 828.51953 C 385.04347 828.46091 385.23637 828.40037 385.42578 828.3418 z M 365.57617 828.45703 C 365.72459 828.71503 365.6037 828.88761 365.43945 829.05273 C 365.60266 828.88827 365.72207 828.71315 365.57617 828.45703 z M 371.75195 829.13867 C 371.76095 829.13867 371.76789 829.14062 371.77539 829.14062 C 371.76839 829.14062 371.76075 829.14062 371.75195 829.14062 C 371.75174 829.14005 371.75216 829.13925 371.75195 829.13867 z M 378.90234 829.14258 C 378.78939 829.26658 378.69211 829.4143 378.61523 829.5918 L 378.61523 829.5957 C 378.60773 829.6057 378.60249 829.61749 378.59766 829.62891 C 378.60218 829.61749 378.60578 829.6057 378.61328 829.5957 L 378.61328 829.5918 C 378.69016 829.4143 378.78928 829.26658 378.90234 829.14258 z M 371.78516 829.2168 C 371.61766 829.2806 371.44297 829.30656 371.26172 829.28906 C 371.26139 829.28868 371.26204 829.28749 371.26172 829.28711 C 371.44297 829.30461 371.61766 829.2791 371.78516 829.2168 z M 365.1875 829.30273 C 365.1878 829.3024 365.18915 829.30307 365.18945 829.30273 C 365.15125 829.34604 365.11625 829.38972 365.08984 829.4375 C 365.11625 829.3898 365.1493 829.34602 365.1875 829.30273 z M 377.66016 829.70508 C 377.72143 829.89854 377.77102 830.11382 377.80664 830.35352 C 377.81322 830.40289 377.84029 830.44992 377.88086 830.49414 C 378.00257 830.6268 378.24281 830.7418 378.39844 830.87305 C 378.36844 830.65992 378.3568 830.45102 378.38086 830.24805 C 378.35695 830.45102 378.37039 830.65992 378.40039 830.87305 C 378.39985 830.8728 378.39898 830.87329 378.39844 830.87305 C 378.24281 830.7418 378.00309 830.6268 377.88086 830.49414 C 377.84012 830.44992 377.81156 830.40484 377.80469 830.35547 C 377.76922 830.11563 377.72134 829.89862 377.66016 829.70508 z M 370.1875 829.70898 C 370.31438 829.76898 370.44516 829.82258 370.57031 829.88477 C 370.44531 829.82258 370.315 829.77094 370.1875 829.71094 C 370.04594 829.71561 369.91219 829.73809 369.78516 829.77539 C 369.91229 829.73809 370.04594 829.71367 370.1875 829.70898 z M 388.80469 829.76367 C 388.8508 829.80692 388.88187 829.84906 388.90039 829.89062 C 389.01072 830.1383 388.69097 830.35875 388.65625 830.57812 C 388.61685 830.8425 388.62257 831.05133 388.66992 831.20898 C 388.62164 831.05084 388.61532 830.84342 388.6543 830.57812 C 388.68895 830.35875 389.01036 830.1383 388.90039 829.89062 C 388.88206 829.84935 388.85023 829.80661 388.80469 829.76367 z M 373.24805 829.7832 C 373.24805 829.7844 373.24971 829.78453 373.25 829.78516 C 373.05 829.87516 372.84453 829.96453 372.64453 830.05078 C 372.84453 829.96448 373.04805 829.87445 373.24805 829.7832 z M 373.25195 829.7832 C 373.25245 829.78301 373.25271 829.7832 373.25391 829.7832 L 373.25195 829.78516 L 373.25195 829.78711 C 373.25195 829.78711 373.25 829.78711 373.25 829.78711 C 373.25 829.78711 373.25195 829.78516 373.25195 829.78516 L 373.25195 829.7832 z M 363.24609 829.83789 C 363.36078 829.91852 363.4667 830.0043 363.56641 830.0957 C 363.46727 830.00497 363.36002 829.91993 363.24609 829.83984 C 363.13859 829.83884 363.0368 829.85466 362.93555 829.88086 C 362.93533 829.88024 362.93577 829.87952 362.93555 829.87891 C 363.0368 829.85261 363.13859 829.83659 363.24609 829.83789 z M 404.49414 829.90039 C 404.58383 830.18789 404.63295 830.4827 404.66406 830.78125 C 404.63277 830.48281 404.58414 830.18789 404.49414 829.90039 z M 369.41992 829.92383 C 369.1843 830.04227 368.96109 830.19406 368.73047 830.33594 C 368.64109 830.39031 368.56055 830.41562 368.48633 830.42188 C 368.41211 830.42813 368.345 830.41555 368.28125 830.38867 C 368.20438 830.35492 368.13625 830.29969 368.07422 830.23047 C 368.13625 830.29969 368.20438 830.35297 368.28125 830.38672 C 368.34438 830.41362 368.41195 830.42814 368.48633 830.42188 C 368.5607 830.41561 368.64109 830.38833 368.73047 830.33398 C 368.96047 830.19211 369.18414 830.04227 369.41992 829.92383 z M 367.90625 829.98242 C 367.90602 829.98298 367.90648 829.98382 367.90625 829.98438 C 367.73875 830.01437 367.51727 829.99416 367.41602 830.09766 C 367.01477 830.48719 366.76666 830.72947 366.54102 830.84375 C 366.7662 830.7292 367.01599 830.4845 367.41602 830.0957 C 367.51727 829.99195 367.73875 830.01372 367.90625 829.98242 z M 402.97266 830.08594 C 403.1431 830.29733 403.27145 830.53654 403.36914 830.79688 C 403.27133 830.53667 403.14325 830.29734 402.97266 830.08594 z M 365.01562 830.4043 C 365.35094 830.58805 365.60227 830.72584 365.80664 830.8125 C 366.1132 830.94249 366.31354 830.95803 366.53906 830.84375 C 366.31414 830.95704 366.11216 830.94215 365.80664 830.8125 C 365.60242 830.72584 365.35062 830.59 365.01562 830.40625 C 364.86563 830.46005 364.71766 830.51266 364.56641 830.56641 C 364.56619 830.56585 364.56662 830.56501 364.56641 830.56445 C 364.71766 830.51195 364.86563 830.45805 365.01562 830.4043 z M 364.52344 830.4707 C 364.5237 830.47129 364.52318 830.47208 364.52344 830.47266 C 364.51094 830.48266 364.49677 830.49336 364.48438 830.50586 C 364.48418 830.50538 364.48455 830.50438 364.48438 830.50391 C 364.49687 830.49141 364.51094 830.4807 364.52344 830.4707 z M 381.98828 830.54102 C 382.19391 830.62602 382.38445 830.74492 382.56445 830.88867 C 382.38445 830.74492 382.19391 830.62734 381.98828 830.54297 C 381.98806 830.54246 381.9885 830.54151 381.98828 830.54102 z M 387.18945 830.57617 C 387.01293 830.64598 386.82485 830.68266 386.61133 830.64648 C 386.82426 830.68256 387.01333 830.64557 387.18945 830.57617 z M 388.77539 830.60742 C 389.31414 830.70242 389.84977 830.80094 390.38477 830.89844 C 389.84852 830.80214 389.31414 830.70437 388.77539 830.60938 C 388.77535 830.60865 388.77543 830.60815 388.77539 830.60742 z M 392.40234 830.85156 C 392.34402 830.91611 392.26797 830.96578 392.17578 830.98828 C 391.84078 831.06328 391.50031 831.13453 391.16406 831.20703 C 391.50031 831.13333 391.84078 831.06133 392.17578 830.98633 C 392.26828 830.96413 392.34387 830.91606 392.40234 830.85156 z M 384.04883 831.25977 C 384.04934 831.26001 384.05027 831.25953 384.05078 831.25977 C 384.12078 831.42727 384.1868 831.60078 384.24805 831.76953 C 384.18691 831.60007 384.1186 831.42671 384.04883 831.25977 z M 376.32227 831.86914 C 376.32258 831.86974 376.32195 831.87049 376.32227 831.87109 C 375.99602 831.90203 375.67096 831.94242 375.35156 831.99805 C 375.67098 831.94225 375.99602 831.90039 376.32227 831.86914 z M 364.5918 832.01562 C 364.7743 832.08443 364.93641 832.18352 365.09766 832.29102 C 364.93641 832.18352 364.7743 832.08633 364.5918 832.01758 C 364.59176 832.01692 364.59183 832.01628 364.5918 832.01562 z M 384.35742 832.25586 C 384.39992 832.28336 384.43643 832.29776 384.45898 832.28906 C 384.52273 832.33531 384.58055 832.36723 384.63477 832.38281 C 384.58049 832.3674 384.52305 832.33695 384.45898 832.29102 C 384.43648 832.29902 384.40117 832.28356 384.35742 832.25586 z M 370.45898 832.40625 C 370.45941 832.40589 370.46051 832.40661 370.46094 832.40625 C 370.4057 832.45361 370.353 832.51 370.30664 832.57227 C 370.353 832.51001 370.40374 832.45359 370.45898 832.40625 z M 379.85938 832.75977 C 379.85996 832.75957 379.86075 832.75996 379.86133 832.75977 C 379.81883 832.96477 379.77352 833.17266 379.72852 833.37891 C 379.77352 833.17266 379.81692 832.96477 379.85938 832.75977 z M 390.73828 832.94141 C 391.07545 832.97455 391.41281 832.99975 391.75 833.0332 C 391.8225 833.0422 391.8943 833.04989 391.9668 833.05859 C 391.8956 833.05059 391.8225 833.04386 391.75 833.03516 C 391.4125 833.00141 391.07553 832.97473 390.73828 832.94141 z M 365.86523 832.98242 C 366.75273 833.44617 367.42086 834.27008 368.34961 834.67383 C 368.79086 834.50133 368.99461 834.69133 369.03711 835.14258 C 371.46711 837.02383 374.25102 837.64461 377.25977 837.50586 C 377.95852 837.39211 378.6043 837.14703 379.2168 836.80078 C 379.46555 836.62953 379.69672 836.43547 379.91797 836.23047 C 380.14297 836.34047 380.41547 836.41406 380.73047 836.44531 C 379.27047 836.75906 378.22148 837.55727 377.17773 838.32227 C 376.90773 838.51852 376.70016 838.71477 376.53516 838.91602 C 376.36391 838.91002 376.2043 838.88336 376.06055 838.81836 C 374.9493 838.95461 373.86164 838.78344 372.77539 838.58594 C 372.51539 838.51844 372.25063 838.44398 371.98438 838.39648 C 370.76313 838.16148 369.53484 837.9582 368.30859 837.75195 C 368.30796 837.75185 368.30727 837.75206 368.30664 837.75195 C 368.10935 837.41414 367.86139 837.10948 367.58203 836.81641 C 367.45203 836.63641 367.29992 836.50031 367.13867 836.38281 C 367.05367 835.60906 366.78453 834.90109 366.11328 834.33984 C 366.11367 834.34018 366.11484 834.3395 366.11523 834.33984 C 366.11523 834.33584 366.11423 834.33503 366.11523 834.33203 C 366.24273 833.82703 366.15148 833.37992 365.86523 832.98242 z M 372.63672 833.0332 L 372.63867 833.0332 C 372.63944 833.03381 372.63998 833.03458 372.64062 833.03516 C 372.64386 833.03802 372.64659 833.04185 372.65039 833.04492 C 372.64197 833.04118 372.63153 833.04072 372.62305 833.03906 C 372.62705 833.03806 372.62686 833.03516 372.63086 833.03516 C 372.63134 833.03544 372.63234 833.03487 372.63281 833.03516 C 372.63381 833.03516 372.63572 833.0332 372.63672 833.0332 z M 372.65234 833.04492 C 372.86078 833.1493 373.00383 833.31273 373.12109 833.5 C 373.00401 833.31318 372.85999 833.14932 372.65234 833.04492 z M 372.68359 833.05078 C 372.71979 833.06328 372.76258 833.05952 372.79883 833.07422 C 372.80883 833.08222 372.81477 833.0843 372.82227 833.0918 C 372.77607 833.0793 372.73109 833.06568 372.68359 833.05078 z M 393.72656 833.08008 C 393.91281 833.09258 394.1018 833.09086 394.2793 833.13086 C 394.7382 833.2382 395.03717 833.33286 395.19531 833.45508 C 395.03701 833.33286 394.73625 833.24016 394.27734 833.13281 C 394.09984 833.09281 393.91156 833.09248 393.72656 833.08008 z M 385.79297 833.12305 C 385.81047 833.13555 385.81898 833.15167 385.83398 833.16797 C 385.81367 833.16687 385.78905 833.16215 385.76758 833.16016 C 385.77658 833.14886 385.78287 833.13425 385.79297 833.12305 z M 372.33984 833.14453 C 371.9191 833.2995 371.50896 833.49527 371.07227 833.57812 C 371.50847 833.49522 371.9196 833.29927 372.33984 833.14453 z M 392.22852 833.68164 C 392.07102 833.75544 391.9125 833.82305 391.75 833.87305 C 391.5475 833.81555 391.66129 833.78013 391.74609 833.73633 C 391.86984 833.72633 391.99469 833.72869 392.11719 833.71289 C 392.15839 833.70789 392.19107 833.68784 392.22852 833.68164 z M 399.40234 833.97266 C 399.51033 834.03078 399.62805 834.07695 399.75586 834.11133 C 399.75616 834.11174 399.75556 834.11287 399.75586 834.11328 C 399.62805 834.07859 399.51033 834.03096 399.40234 833.97266 z M 373.42773 834.10352 C 373.52648 834.30852 373.63422 834.50648 373.78711 834.66406 C 373.63428 834.50648 373.52656 834.30852 373.42773 834.10352 z M 404.04492 834.19336 C 404.24315 834.2931 404.44168 834.39298 404.63867 834.49023 C 404.44117 834.39273 404.24367 834.29406 404.04492 834.19531 C 404.04478 834.1947 404.04506 834.19397 404.04492 834.19336 z M 378.17578 834.21875 C 377.72625 834.29109 377.28102 834.39398 376.83789 834.52148 C 376.43977 834.63586 376.05266 834.7843 375.65625 834.88867 C 376.05266 834.7843 376.43844 834.63391 376.83594 834.51953 C 377.27906 834.39203 377.72625 834.29094 378.17578 834.21875 z M 386.79492 835.57812 C 387.16014 835.55146 387.51148 835.76547 387.83398 836.51172 C 388.13773 836.96297 388.53078 837.28938 389.05078 837.45312 C 389.31578 837.49563 389.56977 837.46391 389.82227 837.37891 C 390.04477 837.23266 390.20937 837.04219 390.32812 836.80469 C 390.69687 836.79219 391.0682 836.77987 391.43945 836.76367 C 391.98928 837.70477 391.63064 837.95588 389.96289 838.77539 C 390.95289 839.76164 391.02511 839.85883 390.03516 840.86133 C 390.02823 840.50409 389.73417 840.0486 389.17383 839.27734 C 388.98133 839.01109 388.8018 838.73539 388.62305 838.46289 C 388.71435 837.53664 387.72641 837.00437 387.09766 836.39062 C 386.86016 836.16437 386.64703 835.91633 386.42578 835.67383 C 386.54984 835.62227 386.67318 835.58701 386.79492 835.57812 z M 393.86523 836.32031 C 393.8697 836.43031 393.88891 836.54484 393.92188 836.66797 C 393.92122 836.66799 393.92057 836.66794 393.91992 836.66797 C 393.8873 836.54559 393.86968 836.42974 393.86523 836.32031 z M 399.7832 836.53516 C 399.89977 836.84953 400.04475 837.13258 400.2168 837.38477 C 400.30282 837.51086 400.39677 837.62916 400.49609 837.74023 C 400.79405 838.07346 401.14989 838.34055 401.56055 838.54492 C 401.15032 838.34076 400.79386 838.07297 400.49609 837.74023 C 400.39642 837.62886 400.30309 837.51125 400.2168 837.38477 C 400.04475 837.13258 399.89977 836.84953 399.7832 836.53516 z M 401.98828 838.72852 C 402.13635 838.78282 402.29183 838.82995 402.45117 838.87109 L 402.45117 838.87305 C 402.29117 838.8318 402.13692 838.78303 401.98828 838.72852 z M 316.82812 839.47656 C 315.81687 839.50776 314.80047 839.54432 313.79297 839.57422 C 311.81547 839.64802 311.57969 839.99164 312.05469 842.08789 C 313.09344 842.73789 314.18586 843.27805 314.94336 844.3418 C 315.54211 845.19055 316.4482 845.71711 317.5957 845.28711 C 318.86945 845.73836 319.71219 846.5493 319.83594 847.9668 C 319.64594 848.0293 319.445 848.09891 319.25 848.16016 C 319.25 848.16016 319.04031 848.08398 319.03906 848.08398 C 319.03806 848.08098 319.04383 848.09622 319.04883 848.10742 C 318.82692 848.0451 318.60276 847.98242 318.38086 847.92383 C 317.51711 847.82258 316.65352 847.70328 315.79102 847.61328 C 315.21352 847.54948 314.67 847.70039 314.40625 848.24414 C 314.145 848.78414 314.36919 849.32609 314.74414 849.74609 C 315.10257 850.14698 315.53672 850.4786 315.94141 850.8457 C 315.55391 851.0607 315.16555 851.27664 314.7793 851.49414 C 313.56055 851.01039 312.41219 851.21398 311.30469 851.83398 C 310.25219 852.42398 309.19898 853.01883 308.14648 853.61133 C 306.94523 854.23133 305.74688 854.85922 304.54688 855.48047 C 303.76938 855.57417 304.01812 855.95977 304.29688 856.35352 C 305.40938 856.54727 306.51836 856.73609 307.63086 856.93359 C 308.30586 857.38859 309.02852 857.42359 309.82227 857.30859 C 310.90352 857.15609 311.99508 857.11648 313.08008 857.02148 C 313.28008 856.69648 313.18195 856.49953 312.81445 856.42578 C 312.7007 856.23703 312.58609 856.04141 312.46484 855.84766 C 312.54484 855.53016 312.52516 855.10102 312.72266 854.91602 C 313.20016 854.46352 313.46359 854.95011 313.71484 855.28516 C 313.96859 855.63141 314.1793 856.33383 314.56055 856.17383 C 316.09555 855.52883 317.77867 856.17367 319.35742 855.29492 C 321.11367 854.31367 322.50563 852.91633 324.17188 851.86133 L 324.17188 851.85938 L 324.17188 851.71289 C 323.39188 851.20039 322.62875 850.64062 321.59375 850.79688 C 320.995 850.88818 320.58352 850.52211 320.22852 850.09961 C 320.22852 850.09961 320.22852 850.09766 320.22852 850.09766 C 320.42227 849.99391 320.61945 849.87812 320.81445 849.76562 C 321.5732 849.41688 322.52344 849.41859 322.52344 848.08984 C 322.52144 847.19734 323.14352 846.94781 323.91602 847.25781 C 324.42977 847.46156 324.88047 847.82242 325.35547 848.10742 C 326.48047 849.15367 326.67836 849.12492 327.41211 847.76367 C 328.19711 845.40617 327.89977 844.9093 325.57227 844.9043 C 324.88727 844.9093 324.24102 844.9737 323.63477 844.5625 C 322.71727 843.94125 321.78156 843.34633 320.85156 842.73633 C 320.26906 841.85258 319.43484 841.28625 318.46484 840.90625 C 318.04984 840.27875 317.60688 839.69031 316.82812 839.47656 z M 363.69727 839.50781 C 363.6976 839.50745 363.69888 839.50818 363.69922 839.50781 C 363.67025 839.53894 363.65089 839.57554 363.64062 839.61719 C 363.65082 839.57554 363.66836 839.53894 363.69727 839.50781 z M 376.01172 840.03711 C 376.01219 840.03741 376.0132 840.03681 376.01367 840.03711 C 376.07398 840.16648 376.14396 840.28182 376.22461 840.38281 C 376.14385 840.28175 376.07203 840.1668 376.01172 840.03711 z M 392.37109 840.93555 C 392.46552 840.93954 392.57224 840.95598 392.69727 840.98242 C 392.44703 840.92938 392.26703 840.91875 392.12109 840.96094 C 392.19402 840.93984 392.27667 840.93155 392.37109 840.93555 z M 389.82422 841.3457 C 389.8245 841.3462 389.82394 841.34716 389.82422 841.34766 C 389.73433 841.43592 389.57897 841.52754 389.43164 841.62109 C 389.57863 841.52738 389.73459 841.43402 389.82422 841.3457 z M 370.70117 841.34961 C 371.12228 841.41628 371.54201 841.49548 371.95703 841.66211 C 372.29928 841.79952 372.63925 841.99518 372.97852 842.28516 C 372.63921 841.99486 372.29957 841.7998 371.95703 841.66211 C 371.54151 841.49508 371.12295 841.41638 370.70117 841.34961 z M 390.70898 842.49609 C 390.80195 842.56619 390.87558 842.57583 390.94531 842.54297 C 390.87516 842.5768 390.80254 842.56683 390.70898 842.49609 z M 303.31641 842.62891 C 303.17821 842.61777 303.03766 842.61945 302.89453 842.63477 C 301.30328 842.82102 299.73891 842.62709 298.16016 842.65039 C 297.80766 842.65939 297.45336 842.83148 297.44336 843.20898 C 297.43436 843.51648 297.5343 843.93219 297.74805 844.11719 C 298.33805 844.62594 299.13156 844.94273 299.63281 845.52148 C 301.93406 848.19148 305.04211 849.06273 308.31836 849.61523 C 311.00336 850.55648 311.4307 848.31164 312.68945 846.61914 C 310.4307 845.37164 308.27562 844.49211 306.01562 843.81836 C 305.14062 843.37539 304.28376 842.70689 303.31641 842.62891 z M 386.68164 843.97656 C 387.08866 844.15885 387.41615 844.41116 387.69531 844.70898 C 387.83539 844.85842 387.96284 845.0181 388.08203 845.1875 C 387.96303 845.01861 387.83508 844.85797 387.69531 844.70898 C 387.41578 844.41102 387.08852 844.15906 386.68164 843.97656 z M 381.08008 847.8457 C 381.08083 847.84606 381.08128 847.8473 381.08203 847.84766 C 381.05893 847.89016 381.04047 847.93789 381.01953 847.98242 C 381.04016 847.93774 381.05695 847.88883 381.08008 847.8457 z M 379.43164 849.5625 C 379.43864 849.575 379.44107 849.59112 379.44727 849.60742 C 379.43227 849.60342 379.41864 849.59966 379.40234 849.59766 C 379.41134 849.58516 379.42284 849.5738 379.43164 849.5625 z M 365.03125 849.89453 C 365.03135 849.89429 365.0331 849.89477 365.0332 849.89453 C 365.03025 849.90191 365.02835 849.90878 365.02539 849.91602 C 365.0237 849.92015 365.0211 849.92402 365.01953 849.92773 C 365.02365 849.91797 365.02655 849.90599 365.03125 849.89453 z M 364.54688 850.20898 C 364.58938 850.39773 364.64555 850.57977 364.7168 850.75977 C 364.64582 850.58032 364.58728 850.39783 364.54492 850.21094 C 364.54563 850.21037 364.54617 850.20955 364.54688 850.20898 z M 373.44922 852.07031 C 373.38295 852.3377 373.27563 852.58195 373.13086 852.80273 C 373.27562 852.58195 373.38295 852.3377 373.44922 852.07031 z M 372.88672 853.11719 C 372.70526 853.31552 372.48798 853.49136 372.23828 853.64648 C 372.48797 853.49136 372.70527 853.31552 372.88672 853.11719 z M 359.48633 868.46875 C 359.35945 868.64315 359.22561 868.81019 359.08203 868.9707 C 359.22533 868.8105 359.35969 868.64277 359.48633 868.46875 z "
       id="path4365" />
    <path
       style="fill:none;stroke:#4c3f3a;stroke-width:0.3125;stroke-linecap:butt;stroke-linejoin:miter;stroke-miterlimit:10;stroke-dasharray:none;stroke-opacity:1"
       d="M 345.80469 763.66992 C 296.88219 763.66992 257.22266 788.46664 257.22266 819.05664 C 257.22266 849.64664 296.88219 874.44531 345.80469 874.44531 C 394.72844 874.44531 434.38672 849.64664 434.38672 819.05664 C 434.38672 788.46664 394.72844 763.66992 345.80469 763.66992 z "
       id="path4421" />
    <path
       style="fill:#4c3f3a;fill-opacity:1;fill-rule:nonzero;stroke:none"
       d="M 364.07031 777.8457 L 361.82031 779.27734 L 361.27734 780.34961 L 363.37109 779.29688 L 364.07031 777.8457 z M 334.32617 779.83984 C 334.19318 779.83824 334.06563 779.84678 333.94531 779.86523 C 332.87156 780.02898 331.97164 780.56414 331.24414 781.46289 C 330.51664 782.36289 330.12607 783.42008 330.07227 784.64258 L 329.88867 788.77539 C 329.83867 789.83914 329.6968 790.57477 329.4668 790.97852 C 329.2343 791.38352 328.8068 791.63352 328.18555 791.72852 L 327.73047 791.79883 L 326.79688 793.12695 L 334.1875 792.24219 C 334.7925 792.14969 335.26672 791.98555 335.60547 791.74805 C 335.94672 791.51305 336.43125 791.01391 337.0625 790.25391 L 337.0918 789.64844 C 336.22555 790.37969 335.1625 790.84266 333.90625 791.03516 L 329.51758 791.63672 C 330.25758 791.06172 330.77531 790.45656 331.07031 789.82031 C 331.36406 789.18281 331.53648 788.30516 331.58398 787.19141 L 331.75195 783.48047 C 331.8282 781.74297 332.3582 780.79648 333.3457 780.64648 C 334.3482 780.49273 334.92352 780.9018 335.07227 781.87305 C 335.08597 781.96055 335.09561 782.07414 335.09961 782.21289 L 335.60156 782.13672 L 335.69531 780.12695 C 335.18156 779.94039 334.72514 779.84464 334.32617 779.83984 z M 355.25586 781.69922 C 353.86211 781.73422 352.60141 782.41016 351.47266 783.72266 C 350.34391 785.03891 349.79909 786.4625 349.83789 788 C 349.85914 788.85 350.10648 789.52945 350.58398 790.0332 C 351.06023 790.53945 351.68297 790.78247 352.44922 790.76367 C 353.55922 790.73617 354.96281 790.11469 356.66406 788.89844 L 356.76953 788.2793 C 355.43078 789.27305 354.25398 789.78164 353.24023 789.80664 C 352.17523 789.83414 351.62409 789.13437 351.58789 787.70312 C 351.55164 786.20437 351.82867 784.95016 352.41992 783.94141 C 353.01242 782.93516 353.77438 782.42083 354.70312 782.39453 C 355.69313 782.37078 356.19159 782.72242 356.21289 783.45117 C 356.21539 783.56617 356.19028 783.75055 356.14648 783.99805 L 356.125 784.11719 L 356.61914 784.10547 L 357.09375 782.05664 C 356.48125 781.80164 355.86836 781.68542 355.25586 781.69922 z M 362.90039 781.74609 L 359.01562 782.9707 L 358.91211 783.45117 C 359.52836 783.27987 359.95461 783.19427 360.19336 783.19727 C 360.53586 783.20102 360.70522 783.42469 360.69922 783.86719 C 360.69672 784.12469 360.61844 784.64703 360.46094 785.42578 L 359.88477 788.17578 C 359.75602 788.79328 359.6885 789.23586 359.6875 789.50586 C 359.68125 790.30336 360.05195 790.70584 360.81445 790.71484 C 361.72945 790.72609 362.77602 790.11547 363.94727 788.88672 L 364.09961 788.15234 C 363.03586 789.30109 362.24125 789.87319 361.71875 789.86719 C 361.40625 789.86469 361.25386 789.69141 361.25586 789.34766 C 361.25711 789.18016 361.32313 788.78969 361.45312 788.17969 L 362.26953 784.27539 L 362.90039 781.74609 z M 319.125 781.83203 L 317.3457 783.81641 L 317.11328 784.99414 L 318.8457 783.41211 L 319.125 781.83203 z M 347.35742 781.98242 L 345.68945 782.21289 L 345.3457 785.09375 C 344.77695 786.41625 344.12805 787.58742 343.4043 788.60742 C 342.6793 789.62742 342.11836 790.15305 341.72461 790.18555 C 341.41461 790.21055 341.24268 790.01148 341.20898 789.58398 C 341.19648 789.43773 341.21195 789.18648 341.25195 788.83398 L 341.7168 784.88477 C 341.7943 784.24477 341.82013 783.7918 341.79883 783.5293 C 341.73633 782.74055 341.32234 782.37435 340.55859 782.43555 C 339.63609 782.51055 338.64766 783.21297 337.59766 784.54297 L 337.51562 785.28125 C 338.47562 784.04375 339.21352 783.40448 339.72852 783.36328 C 340.03977 783.33703 340.20742 783.4857 340.23242 783.81445 C 340.24742 783.9957 340.22094 784.39672 340.14844 785.01172 L 339.69336 788.95117 C 339.64466 789.38367 339.6318 789.74234 339.6543 790.02734 C 339.7343 791.02234 340.19711 791.48547 341.03711 791.41797 C 342.45836 791.30172 343.79242 789.68938 345.04492 786.57812 L 345.17969 786.57031 L 344.93945 788.55273 C 344.86315 789.18898 344.83817 789.64266 344.85938 789.91016 C 344.92313 790.70516 345.33656 791.07031 346.10156 791.00781 C 347.01906 790.93406 348.0068 790.23234 349.06055 788.90234 L 349.14453 788.1582 C 348.18953 789.39945 347.45234 790.04018 346.93359 790.08398 C 346.62109 790.10773 346.45208 789.95555 346.42578 789.62305 C 346.41078 789.43805 346.43857 789.04008 346.50977 788.42383 L 346.9707 784.46094 L 347.35742 781.98242 z M 371.36914 782.1875 C 369.54289 782.1025 367.96375 782.78766 366.625 784.25391 C 365.33 785.66641 364.64552 787.14273 364.57422 788.67773 C 364.50672 790.07023 365.02883 790.78995 366.14258 790.84375 C 366.87383 790.87875 367.67984 790.49812 368.55859 789.70312 C 369.43484 788.90563 370.20383 787.8607 370.86133 786.56445 L 371.00391 786.57227 L 370.52344 788.50781 C 370.36589 789.13656 370.27888 789.58 370.26758 789.84375 C 370.23008 790.64125 370.59438 791.0568 371.35938 791.0918 C 372.27812 791.1368 373.34625 790.56656 374.5625 789.38281 L 374.74219 788.65234 C 373.64094 789.76359 372.82508 790.30495 372.29883 790.28125 C 371.98883 790.265 371.84112 790.09227 371.85742 789.75977 C 371.86492 789.58102 371.9482 789.18828 372.0957 788.58203 L 373.05078 784.70898 L 373.73242 782.39648 C 372.91242 782.29398 372.12289 782.2225 371.36914 782.1875 z M 378.30469 782.61719 C 377.46286 782.67782 376.48922 783.20695 375.38672 784.20117 L 375.18164 784.91406 C 376.33539 783.85156 377.17125 783.34433 377.6875 783.39062 C 377.9975 783.41938 378.13992 783.59758 378.10742 783.92383 C 378.09367 784.10758 377.99727 784.49539 377.82227 785.08789 L 376.69727 788.91797 L 375.89258 791.29297 L 377.56445 791.34961 L 378.39453 788.58594 C 380.46703 785.56469 382.00477 784.10011 383.00977 784.19141 C 383.32352 784.21891 383.46253 784.4468 383.42383 784.87305 C 383.40508 785.07805 383.35052 785.32539 383.26172 785.61914 L 382.14648 789.41211 C 381.96273 790.03086 381.85844 790.47258 381.83594 790.73633 C 381.76469 791.52883 382.10898 791.95984 382.86523 792.02734 C 383.78523 792.11109 384.87461 791.58758 386.13086 790.45508 L 386.34766 789.73828 C 385.19641 790.79953 384.35898 791.30531 383.83398 791.25781 C 383.52148 791.22906 383.38406 791.0493 383.41406 790.7168 C 383.42781 790.53805 383.52492 790.15078 383.70117 789.55078 L 384.81445 785.76953 C 384.9432 785.32953 385.02133 784.95773 385.04883 784.64648 C 385.13633 783.69023 384.74992 783.1718 383.88867 783.0918 C 383.17242 783.02805 382.36273 783.36758 381.45898 784.11133 C 380.55773 784.85383 379.71695 785.8668 378.93945 787.1543 L 378.82031 787.14453 L 379.38477 785.23047 C 379.56227 784.61422 379.6612 784.1757 379.6875 783.9082 C 379.75875 783.1182 379.41445 782.68664 378.6582 782.61914 C 378.54336 782.60867 378.42495 782.60853 378.30469 782.61719 z M 369.8418 782.90039 C 370.4918 782.93164 371.13977 783.11 371.79102 783.4375 L 371.34766 785.2168 C 370.64766 786.41055 369.84562 787.4618 368.95312 788.37305 C 368.05438 789.28555 367.38203 789.73028 366.92578 789.70898 C 366.44203 789.68648 366.21716 789.26039 366.25586 788.43164 C 366.31211 787.28789 366.71008 786.01437 367.45508 784.60938 C 368.08758 783.42438 368.8843 782.85289 369.8418 782.90039 z M 319.05273 785.90039 L 315.64062 788.12695 L 315.67578 788.61914 C 316.21953 788.28664 316.60719 788.0905 316.83594 788.0293 C 317.16719 787.93805 317.38961 788.10836 317.50586 788.53711 C 317.57211 788.78711 317.63597 789.30977 317.69727 790.10352 L 317.88281 792.9082 C 317.92406 793.53695 317.98208 793.97828 318.05078 794.23828 C 318.25828 795.01078 318.72789 795.29711 319.46289 795.09961 C 320.35039 794.86211 321.19133 793.99164 321.98633 792.49414 L 321.93359 791.74609 C 321.21984 793.14109 320.60922 793.90406 320.10547 794.03906 C 319.80422 794.12156 319.60833 793.99656 319.51953 793.66406 C 319.47573 793.50031 319.43258 793.10812 319.39258 792.48438 L 319.12891 788.50586 L 319.05273 785.90039 z M 313.48438 787.67773 C 312.85562 787.67773 312.31242 787.7557 311.85742 787.9082 C 311.02617 788.1882 310.37766 788.69906 309.91016 789.44531 C 309.44141 790.18906 309.31883 790.90328 309.54883 791.58203 C 309.71383 792.07203 310.25281 792.57258 311.16406 793.08008 L 312.09766 793.60156 C 312.87141 794.02656 313.3175 794.41719 313.4375 794.77344 C 313.545 795.09344 313.4925 795.41086 313.28125 795.72461 C 313.07 796.03586 312.7575 796.26234 312.34375 796.40234 C 311.67 796.62864 310.92594 796.61297 310.11719 796.35547 L 309.46875 797.70312 C 310.3325 797.74062 311.08375 797.6532 311.71875 797.43945 C 312.62625 797.1357 313.34391 796.60094 313.87891 795.83594 C 314.41271 795.07219 314.5668 794.35164 314.3418 793.68164 C 314.1793 793.19664 313.63469 792.6882 312.71094 792.1582 L 311.86328 791.68359 C 311.06203 791.21984 310.59469 790.79344 310.46094 790.39844 C 310.19844 789.61719 310.55555 789.06383 311.5293 788.73633 C 312.39805 788.44508 312.94563 788.6343 313.17188 789.31055 C 313.19308 789.3718 313.20494 789.42591 313.21094 789.47461 L 313.23242 789.60938 L 313.71094 789.44727 L 313.48438 787.67773 z M 299.91602 792.55469 C 299.15727 792.88219 298.44289 793.22102 297.77539 793.57227 C 296.15789 794.42227 295.14367 795.81531 294.73242 797.75781 C 294.33367 799.63156 294.49008 801.24937 295.20508 802.60938 C 295.85383 803.84313 296.6693 804.20109 297.6543 803.68359 C 298.30305 803.34359 298.8057 802.60656 299.1582 801.47656 C 299.51195 800.34531 299.64469 799.05156 299.55469 797.60156 L 299.68359 797.53516 L 300.24805 799.44922 C 300.4318 800.06922 300.58188 800.49797 300.70312 800.73047 C 301.07438 801.43672 301.5993 801.61141 302.2793 801.25391 C 303.0943 800.82641 303.72703 799.7918 304.17578 798.1543 L 303.95703 797.43555 C 303.57203 798.9493 303.14844 799.82938 302.67969 800.07812 C 302.40344 800.22188 302.1882 800.14531 302.0332 799.85156 C 301.94945 799.69281 301.81937 799.3143 301.64062 798.7168 L 300.50195 794.89453 L 299.91602 792.55469 z M 289.17383 793.61914 L 288.0957 796.08984 L 288.25391 797.2793 L 289.39453 795.22266 L 289.17383 793.61914 z M 298.77344 794.43555 L 299.29102 796.19141 C 299.29102 797.57641 299.13742 798.88836 298.82617 800.13086 C 298.51492 801.36961 298.15711 802.09539 297.75586 802.30664 C 297.32711 802.53414 296.91945 802.27672 296.5332 801.54297 C 295.99945 800.52922 295.69761 799.22883 295.62891 797.64258 C 295.57266 796.30008 295.97031 795.40648 296.82031 794.95898 C 297.39531 794.65773 298.04594 794.48305 298.77344 794.43555 z M 290.43555 797.48047 L 287.91406 800.68555 L 288.10938 801.14648 C 288.51062 800.65523 288.81242 800.34078 289.01367 800.20703 C 289.29617 800.01828 289.55914 800.11297 289.80664 800.48047 C 289.94914 800.69422 290.17914 801.16773 290.49414 801.89648 L 292.90625 807.72461 C 293.75875 809.79711 293.61148 811.21563 292.45898 811.98438 C 292.00273 812.28813 291.47008 812.47849 290.86133 812.55469 L 290.5918 814.07812 C 291.0118 813.93562 291.41945 813.7357 291.81445 813.4707 C 293.02695 812.6632 293.80187 811.54414 294.14062 810.11914 C 294.33937 809.27664 294.37906 808.46711 294.25781 807.69336 C 294.13656 806.92336 293.80141 805.87703 293.25391 804.55078 L 291.3418 799.92383 L 290.43555 797.48047 z M 313.38281 797.70898 L 312.41797 798.41016 L 313.14258 799.38867 C 313.04133 800.01992 312.74063 800.36146 312.23438 800.41016 L 311.96094 800.70703 C 312.60719 800.70703 313.11633 800.52953 313.48633 800.17578 C 313.85633 799.81953 314.0607 799.31586 314.0957 798.66211 L 313.38281 797.70898 z M 284.17578 801.91797 C 283.9338 801.94708 283.68891 802.06641 283.44141 802.27734 C 282.89641 802.74234 282.57266 803.55766 282.47266 804.72266 C 282.37391 805.88766 282.51437 807.19875 282.89062 808.65625 L 282.79883 808.73242 L 281.82422 806.99219 C 281.50797 806.43594 281.26414 806.05336 281.08789 805.84961 C 280.57414 805.24711 280.02922 805.19375 279.44922 805.6875 C 278.74672 806.2875 278.36112 807.43391 278.29492 809.12891 L 278.6582 809.77734 C 278.7082 808.20859 278.93047 807.25422 279.32422 806.91797 C 279.56047 806.71792 279.78555 806.73828 279.99805 806.98828 C 280.11805 807.12953 280.33031 807.46852 280.63281 808.00977 L 282.58008 811.49023 L 283.71875 813.72656 L 284.92773 812.56836 L 283.5332 810.04492 C 282.8195 806.45242 282.84648 804.32687 283.61523 803.67188 C 283.85523 803.46687 284.11437 803.52656 284.39062 803.85156 C 284.52562 804.00781 284.665 804.22148 284.8125 804.49023 L 286.74609 807.9375 C 287.06109 808.50125 287.30336 808.88398 287.47461 809.08398 C 287.99086 809.69023 288.54039 809.7457 289.11914 809.25195 C 289.82164 808.6507 290.208 807.50766 290.2793 805.81641 L 289.91406 805.1582 C 289.86781 806.7232 289.64539 807.67703 289.24414 808.01953 C 289.00664 808.22328 288.77875 808.19781 288.5625 807.94531 C 288.44625 807.80906 288.23789 807.46758 287.93164 806.92383 L 286.00586 803.48633 C 285.78211 803.08508 285.56844 802.76625 285.36719 802.53125 C 284.97578 802.07422 284.57909 801.86945 284.17578 801.91797 z M 355.36914 806.15039 L 354.50391 806.33203 L 354.28516 807.61719 L 354.01172 811.02734 L 354.24805 810.93945 L 355.125 807.59375 L 355.36914 806.15039 z M 343.43164 806.52539 L 342.33789 807.45898 L 342.12695 808.07031 L 343.16797 807.35156 L 343.43164 806.52539 z M 351.1875 807.99609 C 350.83125 808.02359 350.45555 808.27922 350.06055 808.76172 C 349.6643 809.24422 349.33742 809.85414 349.07617 810.58789 L 349.01562 810.5918 L 349.14062 809.54102 C 349.17313 809.30727 349.18047 809.10711 349.16797 808.94336 C 349.15047 808.71836 349.07414 808.53578 348.93164 808.39453 C 348.79289 808.25333 348.62555 808.19138 348.43555 808.20508 C 348.0718 808.23258 347.69187 808.48047 347.29688 808.94922 C 346.89812 809.41797 346.54383 810.03648 346.23633 810.80273 L 346.17773 810.80664 L 346.30664 809.73633 C 346.34534 809.39633 346.36156 809.15477 346.35156 809.00977 C 346.31906 808.58102 346.09695 808.38091 345.68945 808.41211 C 345.1907 808.44961 344.65859 808.82672 344.08984 809.54297 L 344.04297 809.94141 C 344.56422 809.27391 344.96344 808.9295 345.24219 808.9082 C 345.40844 808.8957 345.49867 808.97609 345.51367 809.15234 C 345.52117 809.25234 345.50409 809.46828 345.46289 809.80078 L 345.20312 811.93555 L 344.98828 813.27148 L 345.88086 813.15234 L 346.07422 811.62305 C 346.41672 810.8643 346.7768 810.21875 347.1543 809.6875 C 347.53305 809.1575 347.82656 808.88414 348.03906 808.86914 C 348.21031 808.85539 348.30672 808.97094 348.32422 809.21094 C 348.33172 809.29594 348.32133 809.435 348.29883 809.625 L 347.88281 813.05273 L 348.7168 812.93945 L 348.91992 811.375 C 349.72742 809.6 350.37875 808.69245 350.875 808.65625 C 351.05125 808.6425 351.14526 808.75328 351.16406 808.98828 C 351.16896 809.07328 351.16052 809.21109 351.13672 809.40234 L 350.875 811.50977 C 350.8338 811.85852 350.81563 812.10148 350.82812 812.24023 C 350.85938 812.66898 351.08164 812.86714 351.49414 812.83594 C 351.99289 812.79844 352.52695 812.42398 353.0957 811.70898 L 353.14258 811.30859 C 352.62508 811.97609 352.22461 812.31854 351.94336 812.33984 C 351.77586 812.35234 351.68503 812.26859 351.67383 812.08984 C 351.66623 811.99109 351.68266 811.77461 351.72266 811.44336 L 351.97852 809.33398 C 352.00732 809.09773 352.01445 808.90023 352.00195 808.74023 C 351.9632 808.20648 351.69 807.95859 351.1875 807.99609 z M 343.09961 808.69531 L 341.11328 809.64062 L 341.0957 809.9043 C 341.41195 809.76555 341.63227 809.69013 341.75977 809.67383 C 341.94352 809.65008 342.05008 809.75664 342.08008 809.99414 C 342.09878 810.13289 342.09531 810.415 342.07031 810.84375 L 341.96484 812.35547 C 341.94254 812.69422 341.94148 812.93633 341.95898 813.08008 C 342.01398 813.50758 342.24609 813.69508 342.65234 813.64258 C 343.14359 813.57883 343.6557 813.17539 344.18945 812.43164 L 344.2168 812.0293 L 344.21484 812.0293 C 343.73234 812.72305 343.35227 813.08685 343.07227 813.12305 C 342.90602 813.1443 342.81091 813.06461 342.78711 812.88086 C 342.77581 812.78961 342.78089 812.57648 342.80469 812.24023 L 342.95117 810.09375 L 343.09961 808.69531 z M 271.42188 808.82227 L 270.66797 810.2832 C 270.38297 810.72195 270.16648 811.04867 270.02148 811.26367 C 269.30273 812.34367 268.85484 813.24641 268.68359 813.97266 C 268.51234 814.69891 268.55742 815.48352 268.82617 816.32227 C 269.06367 817.07977 269.54648 817.80008 270.27148 818.48633 L 270.60938 816.78516 C 269.79687 816.16016 269.3557 815.44141 269.2832 814.62891 C 269.21195 813.81766 269.5118 812.97656 270.18555 812.10156 C 270.43805 811.77531 270.76562 811.40273 271.17188 810.99023 L 273.76172 817.29688 C 274.48797 819.05563 274.89794 820.40164 274.99414 821.33789 C 275.08789 822.27539 274.89953 823.05102 274.42578 823.66602 C 273.93078 824.30977 273.22219 824.59583 272.30469 824.51953 L 272.50586 826.02539 C 273.44586 825.85164 274.21555 825.37797 274.81055 824.60547 C 275.4393 823.78797 275.75205 822.90859 275.74805 821.96484 C 275.7443 821.02234 275.42461 819.77883 274.78711 818.23633 L 277.42383 814.81641 L 280.71484 816.94141 L 282.45703 813.69336 L 282.10547 813.29297 C 281.80797 813.72922 281.63313 813.98544 281.57812 814.05664 C 281.27187 814.45419 280.89969 814.60672 280.46094 814.51172 C 280.02219 814.41797 279.26906 814.02383 278.19531 813.33008 L 273.57422 810.35156 L 271.42188 808.82227 z M 338.97852 809.25 C 338.87945 809.2342 338.76859 809.23694 338.64453 809.25977 C 338.29203 809.32477 337.94406 809.61812 337.60156 810.14062 C 337.26031 810.66187 336.99766 811.30305 336.81641 812.06055 L 336.75781 812.07031 L 336.77148 811.01172 C 336.77778 810.77672 336.76633 810.57656 336.73633 810.41406 C 336.69633 810.19281 336.59836 810.01953 336.44336 809.89453 C 336.28836 809.76958 336.11719 809.72281 335.92969 809.75781 C 335.57094 809.82281 335.2193 810.11039 334.87305 810.61914 C 334.52805 811.12664 334.24133 811.77727 334.01758 812.57227 L 333.95898 812.58398 L 333.97461 811.50781 C 333.97841 811.16531 333.96771 810.9218 333.94141 810.7793 C 333.86391 810.35555 333.62125 810.18086 333.21875 810.25586 C 332.7275 810.34461 332.23875 810.77633 331.75 811.54883 L 331.74414 811.94922 C 332.19164 811.23047 332.55313 810.84492 332.82812 810.79492 C 332.99312 810.76492 333.09055 810.83727 333.12305 811.00977 C 333.14085 811.10852 333.14758 811.32445 333.14258 811.6582 L 333.11133 813.81055 L 333.03711 815.16211 L 333.91016 814.94922 L 333.94531 813.40625 C 334.20281 812.61625 334.49055 811.93664 334.81055 811.36914 C 335.1318 810.80164 335.39742 810.49964 335.60742 810.46094 C 335.77492 810.42969 335.88013 810.53203 335.92383 810.76953 C 335.93863 810.85328 335.94536 810.99359 335.94336 811.18359 L 335.89453 814.63867 L 336.70898 814.4375 L 336.74609 812.85938 C 337.36234 811.00813 337.91359 810.03607 338.40234 809.94727 C 338.57484 809.91477 338.68406 810.01555 338.72656 810.24805 C 338.74126 810.33305 338.74623 810.47086 338.74023 810.66211 L 338.70508 812.78711 C 338.69888 813.13711 338.70938 813.38203 338.73438 813.51953 C 338.81187 813.94078 339.05469 814.11602 339.46094 814.04102 C 339.95219 813.95102 340.4443 813.52 340.93555 812.75 L 340.93945 812.3457 C 340.49445 813.0632 340.13297 813.4488 339.85547 813.5 C 339.69047 813.53 339.59305 813.4575 339.56055 813.28125 C 339.54285 813.1825 339.53602 812.96461 339.54102 812.63086 L 339.57227 810.50586 C 339.57477 810.26836 339.562 810.07031 339.5332 809.91406 C 339.46102 809.51844 339.2757 809.2974 338.97852 809.25 z M 322.53125 810.16016 C 322.29625 810.18016 322.04414 810.23703 321.77539 810.33203 C 321.00539 810.60203 320.44781 811.10203 320.10156 811.83203 C 319.75406 812.56203 319.65594 813.44633 319.80469 814.48633 L 320.22852 817.46289 C 320.27227 817.76789 320.32206 818.00383 320.38086 818.17383 C 320.52586 818.58508 320.79062 818.72555 321.17188 818.5918 C 321.62937 818.43055 322.0625 817.91422 322.46875 817.04297 L 322.41016 816.64648 C 322.33896 816.77148 322.29117 816.85961 322.26367 816.91211 C 321.91617 817.57211 321.6507 817.93425 321.4707 817.99805 C 321.31195 818.05305 321.20258 817.99617 321.14258 817.82617 C 321.10878 817.73242 321.07094 817.5207 321.02344 817.18945 L 320.53711 813.7832 C 320.40461 812.85445 320.39305 812.19414 320.49805 811.80664 C 320.6043 811.42039 320.87133 811.1532 321.29883 811.00195 C 321.52633 810.92315 321.81719 810.89794 322.17969 810.93164 L 322.53125 810.16016 z M 330.62891 810.85352 L 329.76367 811.12891 L 329.8457 812.69141 C 329.6632 813.44641 329.42602 814.12758 329.13477 814.73633 C 328.84227 815.34508 328.59297 815.67602 328.38672 815.72852 C 328.22422 815.76977 328.11414 815.68078 328.05664 815.45703 C 328.03664 815.37953 328.02172 815.24523 328.01172 815.05273 L 327.89648 812.91211 C 327.87898 812.56336 327.85141 812.32109 327.81641 812.18359 C 327.71016 811.76984 327.45594 811.615 327.05469 811.71875 C 326.57094 811.8425 326.11328 812.30492 325.67578 813.10742 L 325.69922 813.50781 C 326.09547 812.76156 326.42797 812.35396 326.69922 812.28516 C 326.86172 812.24266 326.96607 812.30727 327.00977 812.47852 C 327.03357 812.57477 327.05542 812.79125 327.07422 813.125 L 327.19336 815.25977 C 327.20706 815.49477 327.23398 815.68523 327.27148 815.83398 C 327.40523 816.35528 327.69352 816.56102 328.13477 816.44727 C 328.87852 816.25602 329.44031 815.27656 329.82031 813.50781 L 329.89062 813.49023 L 329.94531 814.56641 C 329.96411 814.91266 329.98919 815.15492 330.02539 815.29492 C 330.13289 815.71237 330.38711 815.86812 330.78711 815.76562 C 331.26836 815.64188 331.72922 815.17875 332.16797 814.375 L 332.14453 813.9707 C 331.75078 814.7182 331.41828 815.12727 331.14453 815.19727 C 330.98203 815.23852 330.87703 815.1725 330.83203 815 C 330.80703 814.9025 330.78703 814.68727 330.76953 814.35352 L 330.64844 812.20703 L 330.62891 810.85352 z M 271.89844 811.26953 L 276.92578 814.50195 L 274.5332 817.60938 L 271.89844 811.26953 z M 323.55273 811.33008 L 322.77148 811.79688 L 322.89844 813.02344 L 322.1875 813.24414 L 322 813.63281 L 322.93359 813.34375 L 323.23828 816.25 C 323.27328 816.57125 323.3188 816.82266 323.375 817.00391 C 323.53375 817.51521 323.84414 817.69914 324.30664 817.55664 C 324.79289 817.40539 325.21969 816.98703 325.58594 816.30078 L 325.54102 815.90234 C 325.16727 816.49484 324.83477 816.83719 324.54102 816.92969 C 324.35102 816.98844 324.22245 816.91031 324.15625 816.69531 C 324.12 816.57781 324.08328 816.3668 324.05078 816.06055 L 323.73828 813.09375 L 324.06836 812.99023 C 324.33961 812.90523 324.65703 812.82901 325.01953 812.75781 L 325.24414 812.29492 L 323.70508 812.77148 L 323.55273 811.33008 z M 354.0293 811.625 L 353.37695 812.15625 L 353.90039 812.78711 L 354.54883 812.29688 L 354.0293 811.625 z M 317.70508 814.69531 L 316.88477 815.08398 L 317.17773 816.62109 C 317.10023 817.39359 316.96016 818.10359 316.75391 818.74609 C 316.54766 819.38859 316.34398 819.75008 316.14648 819.83008 C 315.99148 819.89383 315.8707 819.81922 315.7832 819.60547 C 315.7532 819.53172 315.71979 819.40164 315.68359 819.21289 L 315.27734 817.10742 C 315.21234 816.76492 315.15341 816.52773 315.09961 816.39648 C 314.93836 816.00153 314.6657 815.88086 314.2832 816.03711 C 313.8207 816.22586 313.42672 816.74852 313.10547 817.60352 L 313.18164 817.99609 C 313.47414 817.20234 313.74711 816.75344 314.00586 816.64844 C 314.16211 816.58469 314.27354 816.63508 314.33984 816.79883 C 314.37734 816.89008 314.42969 817.10023 314.49219 817.42773 L 314.90234 819.52734 C 314.94734 819.75859 314.99784 819.94289 315.05664 820.08789 C 315.25914 820.58539 315.57289 820.74867 315.99414 820.57617 C 316.70539 820.28617 317.12937 819.23805 317.26562 817.43555 L 317.33203 817.4082 L 317.5332 818.46484 C 317.5982 818.80484 317.65789 819.04273 317.71289 819.17773 C 317.87539 819.57523 318.14875 819.69727 318.53125 819.54102 C 318.99125 819.35227 319.38203 818.83086 319.70703 817.97461 L 319.62891 817.57617 C 319.34141 818.37117 319.06789 818.82219 318.80664 818.92969 C 318.65039 818.99344 318.54016 818.94164 318.47266 818.77539 C 318.43391 818.68289 318.38281 818.47328 318.32031 818.14453 L 317.91016 816.03125 L 317.70508 814.69531 z M 311.14648 817.39648 C 311.04717 817.41051 310.94164 817.44578 310.83008 817.50391 C 310.51258 817.67016 310.26695 818.05359 310.0957 818.65234 C 309.9232 819.25234 309.86146 819.94195 309.91016 820.7207 L 309.85742 820.74805 L 309.55859 819.73047 C 309.49484 819.50422 309.42396 819.31813 309.34766 819.17188 C 309.24391 818.97187 309.09906 818.83477 308.91406 818.75977 C 308.72906 818.68597 308.55352 818.6944 308.38477 818.7832 C 308.06102 818.9507 307.80891 819.32852 307.62891 819.91602 C 307.44766 820.50227 307.36867 821.21016 307.38867 822.03516 L 307.33398 822.06445 L 307.03125 821.0293 C 306.93375 820.7018 306.85266 820.47445 306.78516 820.3457 C 306.58641 819.96325 306.30516 819.86664 305.94141 820.05664 C 305.49891 820.28789 305.15672 820.84406 304.91797 821.72656 L 305.03125 822.10938 C 305.24625 821.29062 305.47906 820.8182 305.72656 820.68945 C 305.87531 820.6107 305.99097 820.64914 306.07227 820.80664 C 306.11852 820.89539 306.18875 821.10063 306.28125 821.42188 L 306.88672 823.48438 L 307.21484 824.79883 L 307.98633 824.33789 L 307.56445 822.85352 C 307.57695 822.02227 307.65352 821.28859 307.79102 820.65234 C 307.92977 820.01484 308.0925 819.64558 308.28125 819.54688 C 308.43375 819.46812 308.56648 819.53695 308.67773 819.75195 C 308.71773 819.82695 308.76336 819.95617 308.81836 820.13867 L 309.79102 823.45508 L 310.50977 823.02148 L 310.08008 821.50391 C 310.12133 819.55266 310.36273 818.46312 310.80273 818.23438 C 310.95898 818.15313 311.09047 818.21508 311.19922 818.42383 C 311.23927 818.50008 311.28464 818.63141 311.33594 818.81641 L 311.92969 820.85547 C 312.02844 821.19297 312.11013 821.42313 312.17383 821.54688 C 312.37258 821.92812 312.65523 822.02133 313.02148 821.83008 C 313.46398 821.59883 313.80633 821.04531 314.04883 820.16406 L 313.93359 819.77539 C 313.72109 820.59289 313.49023 821.06727 313.24023 821.19727 C 313.09148 821.27477 312.97508 821.23422 312.89258 821.07422 C 312.84508 820.98547 312.77534 820.78219 312.68164 820.46094 L 312.08398 818.42188 C 312.01648 818.19437 311.94685 818.00844 311.87305 817.86719 C 311.68742 817.51094 311.44443 817.35441 311.14648 817.39648 z M 324.35156 818.16797 L 323.8457 818.58594 L 324.27539 819.10156 C 324.24164 819.45406 324.0868 819.65031 323.81055 819.69531 L 323.67188 819.86914 C 324.02688 819.84789 324.29984 819.73344 324.49609 819.52344 C 324.68604 819.31719 324.77934 819.03047 324.77734 818.66797 L 324.35156 818.16797 z M 300.19141 821.42383 L 300.01367 821.6582 C 300.07992 821.9607 300.04727 822.15956 299.91602 822.25586 C 299.82727 822.32216 299.66133 822.3718 299.42383 822.4043 L 299.25781 822.42578 C 298.99906 822.45953 298.81313 822.51516 298.70312 822.59766 C 298.51438 822.73766 298.40425 822.9343 298.37305 823.18555 C 298.3418 823.4368 298.39781 823.69734 298.53906 823.96484 L 298.74414 823.73828 C 298.67789 823.47828 298.71266 823.29922 298.84766 823.19922 C 298.93266 823.13552 299.08172 823.08859 299.29297 823.05859 L 299.51562 823.0332 C 299.74688 822.9982 299.93437 822.92852 300.07812 822.82227 C 300.49062 822.51602 300.52766 822.05133 300.19141 821.42383 z M 300.94727 823.22461 C 300.57102 823.46211 300.21883 823.70281 299.89258 823.94531 C 299.10008 824.53281 298.67589 825.36023 298.61719 826.42773 C 298.56094 827.46023 298.77969 828.30836 299.27344 828.97461 C 299.72219 829.57836 300.18742 829.7025 300.66992 829.34375 C 300.98742 829.1075 301.19341 828.67422 301.28711 828.04297 C 301.38211 827.41047 301.34328 826.71156 301.17578 825.94531 L 301.23828 825.89844 L 301.69727 826.87109 C 301.84727 827.18734 301.96383 827.40188 302.04883 827.51562 C 302.30508 827.86062 302.60039 827.91031 302.93164 827.66406 C 303.33039 827.36906 303.58109 826.76547 303.68359 825.85547 L 303.50977 825.49023 C 303.42977 826.32773 303.27562 826.83391 303.04688 827.00391 C 302.91187 827.10516 302.78984 827.0832 302.68359 826.93945 C 302.62609 826.8607 302.52586 826.67023 302.38086 826.36523 L 301.45508 824.42383 L 300.94727 823.22461 z M 300.49609 824.32031 L 300.91797 825.21484 C 301.03427 825.95359 301.05989 826.66406 300.99609 827.35156 C 300.93484 828.03906 300.80563 828.45656 300.60938 828.60156 C 300.39812 828.75781 300.16078 828.65562 299.89453 828.29688 C 299.52578 827.79937 299.25594 827.13297 299.08594 826.29297 C 298.94469 825.58297 299.0818 825.07367 299.49805 824.76367 C 299.7793 824.55492 300.11234 824.40661 300.49609 824.32031 z M 295.80469 824.68164 L 294.49219 825.9707 L 294.63867 826.19141 L 294.88281 825.95117 C 295.06656 825.77237 295.19648 825.72133 295.27148 825.79883 C 295.49898 826.03008 295.76969 826.9 296.08594 828.40625 L 296.60742 830.89258 C 293.73242 827.96383 291.65711 827.12445 290.38086 828.37695 C 289.84586 828.90195 289.69734 829.73586 289.93359 830.88086 L 290.16992 830.81055 C 289.97867 830.0043 290.07906 829.40758 290.47656 829.01758 C 290.91531 828.58633 291.60406 828.54508 292.53906 828.89258 C 293.42656 829.22258 294.64125 830.17766 296.1875 831.75391 L 296.95117 832.56641 L 297.19531 832.17773 L 295.69531 825.15625 L 295.94922 824.90625 L 295.80469 824.68164 z "
       id="path4469" />
  </g>
</svg>
