  0
SECTION
  2
HEADER
  9
$ACADVER
  1
AC1014
  9
$HANDSEED
  5
FFFF
  9
$MEASUREMENT
 70
     1
  0
ENDSEC
  0
SECTION
  2
TABLES
  0
TABLE
  2
VPORT
  5
8
330
0
100
AcDbSymbolTable
 70
     4
  0
VPORT
  5
2E
330
8
100
AcDbSymbolTableRecord
100
AcDbViewportTableRecord
  2
*ACTIVE
 70
     0
 10
0.0
 20
0.0
 11
1.0
 21
1.0
 12
210.0
 22
148.5
 13
0.0
 23
0.0
 14
10.0
 24
10.0
 15
10.0
 25
10.0
 16
0.0
 26
0.0
 36
1.0
 17
0.0
 27
0.0
 37
0.0
 40
341.0
 41
1.24
 42
50.0
 43
0.0
 44
0.0
 50
0.0
 51
0.0
 71
     0
 72
   100
 73
     1
 74
     3
 75
     0
 76
     0
 77
     0
 78
     0
  0
ENDTAB
  0
TABLE
  2
LTYPE
  5
5
330
0
100
AcDbSymbolTable
 70
     1
  0
LTYPE
  5
14
330
5
100
AcDbSymbolTableRecord
100
AcDbLinetypeTableRecord
  2
BYBLOCK
 70
     0
  3

 72
    65
 73
     0
 40
0.0
  0
LTYPE
  5
15
330
5
100
AcDbSymbolTableRecord
100
AcDbLinetypeTableRecord
  2
BYLAYER
 70
     0
  3

 72
    65
 73
     0
 40
0.0
  0
LTYPE
  5
16
330
5
100
AcDbSymbolTableRecord
100
AcDbLinetypeTableRecord
  2
CONTINUOUS
 70
     0
  3
Solid line
 72
    65
 73
     0
 40
0.0
  0
ENDTAB
  0
TABLE
  2
LAYER
  5
2
100
AcDbSymbolTable
 70
2
  0
LAYER
  5
50
100
AcDbSymbolTableRecord
100
AcDbLayerTableRecord
  2
0
 70
0
  6
CONTINUOUS
  0
LAYER
  5
51
100
AcDbSymbolTableRecord
100
AcDbLayerTableRecord
  2
Layer_1
 70
0
  6
CONTINUOUS
  0
ENDTAB
  0
TABLE
  2
STYLE
  5
3
330
0
100
AcDbSymbolTable
 70
     1
  0
STYLE
  5
11
330
3
100
AcDbSymbolTableRecord
100
AcDbTextStyleTableRecord
  2
STANDARD
 70
     0
 40
0.0
 41
1.0
 50
0.0
 71
     0
 42
2.5
  3
txt
  4

  0
ENDTAB
  0
TABLE
  2
VIEW
  5
6
330
0
100
AcDbSymbolTable
 70
     0
  0
ENDTAB
  0
TABLE
  2
UCS
  5
7
330
0
100
AcDbSymbolTable
 70
     0
  0
ENDTAB
  0
TABLE
  2
APPID
  5
9
330
0
100
AcDbSymbolTable
 70
     2
  0
APPID
  5
12
330
9
100
AcDbSymbolTableRecord
100
AcDbRegAppTableRecord
  2
ACAD
 70
     0
  0
ENDTAB
  0
TABLE
  2
DIMSTYLE
  5
A
330
0
100
AcDbSymbolTable
 70
     1
  0
DIMSTYLE
105
27
330
A
100
AcDbSymbolTableRecord
100
AcDbDimStyleTableRecord
  2
ISO-25
 70
     0
  3

  4

  5

  6

  7

 40
1.0
 41
2.5
 42
0.625
 43
3.75
 44
1.25
 45
0.0
 46
0.0
 47
0.0
 48
0.0
140
2.5
141
2.5
142
0.0
143
0.03937007874016
144
1.0
145
0.0
146
1.0
147
0.625
 71
     0
 72
     0
 73
     0
 74
     0
 75
     0
 76
     0
 77
     1
 78
     8
170
     0
171
     3
172
     1
173
     0
174
     0
175
     0
176
     0
177
     0
178
     0
270
     2
271
     2
272
     2
273
     2
274
     3
340
11
275
     0
280
     0
281
     0
282
     0
283
     0
284
     8
285
     0
286
     0
287
     3
288
     0
  0
ENDTAB
  0
TABLE
  2
BLOCK_RECORD
  5
1
330
0
100
AcDbSymbolTable
 70
     1
  0
BLOCK_RECORD
  5
1F
330
1
100
AcDbSymbolTableRecord
100
AcDbBlockTableRecord
  2
*MODEL_SPACE
  0
BLOCK_RECORD
  5
1B
330
1
100
AcDbSymbolTableRecord
100
AcDbBlockTableRecord
  2
*PAPER_SPACE
  0
ENDTAB
  0
ENDSEC
  0
SECTION
  2
BLOCKS
  0
BLOCK
  5
20
330
1F
100
AcDbEntity
  8
0
100
AcDbBlockBegin
  2
*MODEL_SPACE
 70
     0
 10
0.0
 20
0.0
 30
0.0
  3
*MODEL_SPACE
  1

  0
ENDBLK
  5
21
330
1F
100
AcDbEntity
  8
0
100
AcDbBlockEnd
  0
BLOCK
  5
1C
330
1B
100
AcDbEntity
 67
     1
  8
0
100
AcDbBlockBegin
  2
*PAPER_SPACE
  1

  0
ENDBLK
  5
1D
330
1B
100
AcDbEntity
 67
     1
  8
0
100
AcDbBlockEnd
  0
ENDSEC
  0
SECTION
  2
ENTITIES
  0
SPLINE
  5
100
100
AcDbEntity
  8
Layer_1
 62
7
100
AcDbSpline
 70
8
 71
3
 72
8
 73
4
 74
0
 40
0
 40
0
 40
0
 40
0
 40
1
 40
1
 40
1
 40
1
 10
175.820586
 20
117.402487
 30
0.0
 10
175.793451
 20
117.401285
 30
0.0
 10
175.765214
 20
117.397308
 30
0.0
 10
175.735147
 20
117.390910
 30
0.0
  0
SPLINE
  5
101
100
AcDbEntity
  8
Layer_1
 62
7
100
AcDbSpline
 70
8
 71
3
 72
8
 73
4
 74
0
 40
0
 40
0
 40
0
 40
0
 40
1
 40
1
 40
1
 40
1
 10
175.735147
 20
117.390910
 30
0.0
 10
175.188482
 20
117.274621
 30
0.0
 10
165.471049
 20
110.183460
 30
0.0
 10
153.154064
 20
100.912330
 30
0.0
  0
SPLINE
  5
102
100
AcDbEntity
  8
Layer_1
 62
7
100
AcDbSpline
 70
8
 71
3
 72
8
 73
4
 74
0
 40
0
 40
0
 40
0
 40
0
 40
1
 40
1
 40
1
 40
1
 10
147.486466
 20
93.019481
 30
0.0
 10
147.426593
 20
90.979759
 30
0.0
 10
147.480884
 20
89.310903
 30
0.0
 10
147.607184
 20
89.310903
 30
0.0
  0
SPLINE
  5
103
100
AcDbEntity
  8
Layer_1
 62
7
100
AcDbSpline
 70
8
 71
3
 72
8
 73
4
 74
0
 40
0
 40
0
 40
0
 40
0
 40
1
 40
1
 40
1
 40
1
 10
147.607184
 20
89.310903
 30
0.0
 10
147.918684
 20
89.310903
 30
0.0
 10
173.950969
 20
108.932660
 30
0.0
 10
175.267166
 20
110.159519
 30
0.0
  0
SPLINE
  5
104
100
AcDbEntity
  8
Layer_1
 62
7
100
AcDbSpline
 70
8
 71
3
 72
8
 73
4
 74
0
 40
0
 40
0
 40
0
 40
0
 40
1
 40
1
 40
1
 40
1
 10
175.267166
 20
110.159519
 30
0.0
 10
176.247606
 20
111.073408
 30
0.0
 10
176.313372
 20
111.334063
 30
0.0
 10
176.313372
 20
114.323951
 30
0.0
  0
SPLINE
  5
105
100
AcDbEntity
  8
Layer_1
 62
7
100
AcDbSpline
 70
8
 71
3
 72
8
 73
4
 74
0
 40
0
 40
0
 40
0
 40
0
 40
1
 40
1
 40
1
 40
1
 10
176.313372
 20
114.323951
 30
0.0
 10
176.313372
 20
116.812397
 30
0.0
 10
176.227633
 20
117.420524
 30
0.0
 10
175.820586
 20
117.402487
 30
0.0
  0
LWPOLYLINE
  5
106
100
AcDbEntity
  8
Layer_1
 62
7
100
AcDbPolyline
 90
3
 70
0
 10
153.154064
 20
100.912330
 30
0.0
 10
147.595607
 20
96.728056
 30
0.0
 10
147.486466
 20
93.019481
 30
0.0
  0
SPLINE
  5
107
100
AcDbEntity
  8
Layer_1
 62
7
100
AcDbSpline
 70
8
 71
3
 72
8
 73
4
 74
0
 40
0
 40
0
 40
0
 40
0
 40
1
 40
1
 40
1
 40
1
 10
161.857752
 20
117.269092
 30
0.0
 10
161.478654
 20
117.503390
 30
0.0
 10
149.518745
 20
109.304468
 30
0.0
 10
147.880586
 20
107.687317
 30
0.0
  0
SPLINE
  5
108
100
AcDbEntity
  8
Layer_1
 62
7
100
AcDbSpline
 70
8
 71
3
 72
8
 73
4
 74
0
 40
0
 40
0
 40
0
 40
0
 40
1
 40
1
 40
1
 40
1
 10
147.880586
 20
107.687317
 30
0.0
 10
147.170806
 20
106.986641
 30
0.0
 10
147.025100
 20
106.428649
 30
0.0
 10
147.025100
 20
104.416407
 30
0.0
  0
SPLINE
  5
109
100
AcDbEntity
  8
Layer_1
 62
7
100
AcDbSpline
 70
8
 71
3
 72
8
 73
4
 74
0
 40
0
 40
0
 40
0
 40
0
 40
1
 40
1
 40
1
 40
1
 10
147.025100
 20
104.416407
 30
0.0
 10
147.025100
 20
103.081956
 30
0.0
 10
147.139194
 20
101.875859
 30
0.0
 10
147.278660
 20
101.736397
 30
0.0
  0
SPLINE
  5
10a
100
AcDbEntity
  8
Layer_1
 62
7
100
AcDbSpline
 70
8
 71
3
 72
8
 73
4
 74
0
 40
0
 40
0
 40
0
 40
0
 40
1
 40
1
 40
1
 40
1
 10
147.278660
 20
101.736397
 30
0.0
 10
147.418129
 20
101.596925
 30
0.0
 10
147.669098
 20
101.482840
 30
0.0
 10
147.836489
 20
101.482840
 30
0.0
  0
SPLINE
  5
10b
100
AcDbEntity
  8
Layer_1
 62
7
100
AcDbSpline
 70
8
 71
3
 72
8
 73
4
 74
0
 40
0
 40
0
 40
0
 40
0
 40
1
 40
1
 40
1
 40
1
 10
147.836489
 20
101.482840
 30
0.0
 10
148.310050
 20
101.482840
 30
0.0
 10
160.825617
 20
110.545887
 30
0.0
 10
161.573876
 20
111.430620
 30
0.0
  0
SPLINE
  5
10c
100
AcDbEntity
  8
Layer_1
 62
7
100
AcDbSpline
 70
8
 71
3
 72
8
 73
4
 74
0
 40
0
 40
0
 40
0
 40
0
 40
1
 40
1
 40
1
 40
1
 10
161.573876
 20
111.430620
 30
0.0
 10
162.318164
 20
112.310659
 30
0.0
 10
162.538774
 20
116.848200
 30
0.0
 10
161.857752
 20
117.269092
 30
0.0
  0
LWPOLYLINE
  5
10d
100
AcDbEntity
  8
Layer_1
 62
7
100
AcDbPolyline
 90
2
 70
0
 10
175.820586
 20
117.402487
 30
0.0
 10
175.820586
 20
117.402487
 30
0.0
  0
SPLINE
  5
10e
100
AcDbEntity
  8
Layer_1
 62
7
100
AcDbSpline
 70
8
 71
3
 72
8
 73
4
 74
0
 40
0
 40
0
 40
0
 40
0
 40
1
 40
1
 40
1
 40
1
 10
175.775386
 20
105.667114
 30
0.0
 10
175.286075
 20
105.667114
 30
0.0
 10
165.567216
 20
98.694828
 30
0.0
 10
163.095229
 20
96.570409
 30
0.0
  0
SPLINE
  5
10f
100
AcDbEntity
  8
Layer_1
 62
7
100
AcDbSpline
 70
8
 71
3
 72
8
 73
4
 74
0
 40
0
 40
0
 40
0
 40
0
 40
1
 40
1
 40
1
 40
1
 10
163.095229
 20
96.570409
 30
0.0
 10
162.331414
 20
95.913991
 30
0.0
 10
162.239743
 20
95.484206
 30
0.0
 10
162.239743
 20
92.572994
 30
0.0
  0
SPLINE
  5
110
100
AcDbEntity
  8
Layer_1
 62
7
100
AcDbSpline
 70
8
 71
3
 72
8
 73
4
 74
0
 40
0
 40
0
 40
0
 40
0
 40
1
 40
1
 40
1
 40
1
 10
162.239743
 20
92.572994
 30
0.0
 10
162.239743
 20
90.778947
 30
0.0
 10
162.367821
 20
89.313550
 30
0.0
 10
162.524722
 20
89.316965
 30
0.0
  0
SPLINE
  5
111
100
AcDbEntity
  8
Layer_1
 62
7
100
AcDbSpline
 70
8
 71
3
 72
8
 73
4
 74
0
 40
0
 40
0
 40
0
 40
0
 40
1
 40
1
 40
1
 40
1
 10
162.524722
 20
89.316965
 30
0.0
 10
162.681624
 20
89.320312
 30
0.0
 10
165.805697
 20
91.588704
 30
0.0
 10
169.466728
 20
94.357279
 30
0.0
  0
LWPOLYLINE
  5
112
100
AcDbEntity
  8
Layer_1
 62
7
100
AcDbPolyline
 90
2
 70
0
 10
161.857752
 20
117.269092
 30
0.0
 10
161.857752
 20
117.269092
 30
0.0
  0
SPLINE
  5
113
100
AcDbEntity
  8
Layer_1
 62
7
100
AcDbSpline
 70
8
 71
3
 72
8
 73
4
 74
0
 40
0
 40
0
 40
0
 40
0
 40
1
 40
1
 40
1
 40
1
 10
176.233447
 20
102.529046
 30
0.0
 10
176.324285
 20
105.109322
 30
0.0
 10
176.242924
 20
105.667114
 30
0.0
 10
175.775386
 20
105.667114
 30
0.0
  0
LWPOLYLINE
  5
114
100
AcDbEntity
  8
Layer_1
 62
7
100
AcDbPolyline
 90
3
 70
0
 10
169.466728
 20
94.357279
 30
0.0
 10
176.123202
 20
99.390977
 30
0.0
 10
176.233447
 20
102.529046
 30
0.0
  0
LWPOLYLINE
  5
115
100
AcDbEntity
  8
Layer_1
 62
7
100
AcDbPolyline
 90
2
 70
0
 10
175.775386
 20
105.667114
 30
0.0
 10
175.775386
 20
105.667114
 30
0.0
  0
SPLINE
  5
116
100
AcDbEntity
  8
Layer_1
 62
7
100
AcDbSpline
 70
8
 71
3
 72
8
 73
4
 74
0
 40
0
 40
0
 40
0
 40
0
 40
1
 40
1
 40
1
 40
1
 10
157.526855
 20
74.133742
 30
0.0
 10
154.935493
 20
74.849252
 30
0.0
 10
152.730177
 20
72.960708
 30
0.0
 10
152.730177
 20
70.026085
 30
0.0
  0
SPLINE
  5
117
100
AcDbEntity
  8
Layer_1
 62
7
100
AcDbSpline
 70
8
 71
3
 72
8
 73
4
 74
0
 40
0
 40
0
 40
0
 40
0
 40
1
 40
1
 40
1
 40
1
 10
152.730177
 20
70.026085
 30
0.0
 10
152.730177
 20
67.981332
 30
0.0
 10
153.181239
 20
67.062529
 30
0.0
 10
154.546983
 20
66.321368
 30
0.0
  0
SPLINE
  5
118
100
AcDbEntity
  8
Layer_1
 62
7
100
AcDbSpline
 70
8
 71
3
 72
8
 73
4
 74
0
 40
0
 40
0
 40
0
 40
0
 40
1
 40
1
 40
1
 40
1
 10
154.546983
 20
66.321368
 30
0.0
 10
155.787635
 20
65.648093
 30
0.0
 10
157.069559
 20
65.580868
 30
0.0
 10
158.105077
 20
66.135057
 30
0.0
  0
SPLINE
  5
119
100
AcDbEntity
  8
Layer_1
 62
7
100
AcDbSpline
 70
8
 71
3
 72
8
 73
4
 74
0
 40
0
 40
0
 40
0
 40
0
 40
1
 40
1
 40
1
 40
1
 10
158.105077
 20
66.135057
 30
0.0
 10
158.654256
 20
66.428974
 30
0.0
 10
159.011216
 20
66.420253
 30
0.0
 10
159.392716
 20
66.103637
 30
0.0
  0
SPLINE
  5
11a
100
AcDbEntity
  8
Layer_1
 62
7
100
AcDbSpline
 70
8
 71
3
 72
8
 73
4
 74
0
 40
0
 40
0
 40
0
 40
0
 40
1
 40
1
 40
1
 40
1
 10
159.392716
 20
66.103637
 30
0.0
 10
159.683109
 20
65.862633
 30
0.0
 10
160.276176
 20
65.777941
 30
0.0
 10
160.710121
 20
65.915674
 30
0.0
  0
SPLINE
  5
11b
100
AcDbEntity
  8
Layer_1
 62
7
100
AcDbSpline
 70
8
 71
3
 72
8
 73
4
 74
0
 40
0
 40
0
 40
0
 40
0
 40
1
 40
1
 40
1
 40
1
 10
160.710121
 20
65.915674
 30
0.0
 10
161.467842
 20
66.156164
 30
0.0
 10
161.494560
 20
66.387688
 30
0.0
 10
161.393629
 20
71.748081
 30
0.0
  0
LWPOLYLINE
  5
11c
100
AcDbEntity
  8
Layer_1
 62
7
100
AcDbPolyline
 90
4
 70
0
 10
158.816147
 20
77.567814
 30
0.0
 10
158.816147
 20
75.672734
 30
0.0
 10
158.816147
 20
73.777104
 30
0.0
 10
157.526855
 20
74.133742
 30
0.0
  0
LWPOLYLINE
  5
11d
100
AcDbEntity
  8
Layer_1
 62
7
100
AcDbPolyline
 90
5
 70
0
 10
161.393629
 20
71.748081
 30
0.0
 10
161.288897
 20
77.329686
 30
0.0
 10
160.052520
 20
77.448750
 30
0.0
 10
158.816147
 20
77.567814
 30
0.0
 10
158.816147
 20
77.567814
 30
0.0
  0
SPLINE
  5
11e
100
AcDbEntity
  8
Layer_1
 62
7
100
AcDbSpline
 70
8
 71
3
 72
8
 73
4
 74
0
 40
0
 40
0
 40
0
 40
0
 40
1
 40
1
 40
1
 40
1
 10
186.039015
 20
77.519856
 30
0.0
 10
184.975994
 20
77.519856
 30
0.0
 10
184.681371
 20
77.368537
 30
0.0
 10
184.681371
 20
76.822569
 30
0.0
  0
SPLINE
  5
11f
100
AcDbEntity
  8
Layer_1
 62
7
100
AcDbSpline
 70
8
 71
3
 72
8
 73
4
 74
0
 40
0
 40
0
 40
0
 40
0
 40
1
 40
1
 40
1
 40
1
 10
184.681371
 20
76.822569
 30
0.0
 10
184.681371
 20
76.439029
 30
0.0
 10
184.803494
 20
76.003154
 30
0.0
 10
184.952569
 20
75.854084
 30
0.0
  0
SPLINE
  5
120
100
AcDbEntity
  8
Layer_1
 62
7
100
AcDbSpline
 70
8
 71
3
 72
8
 73
4
 74
0
 40
0
 40
0
 40
0
 40
0
 40
1
 40
1
 40
1
 40
1
 10
184.952569
 20
75.854084
 30
0.0
 10
185.101639
 20
75.704995
 30
0.0
 10
185.657558
 20
75.633429
 30
0.0
 10
186.188395
 20
75.695334
 30
0.0
  0
SPLINE
  5
121
100
AcDbEntity
  8
Layer_1
 62
7
100
AcDbSpline
 70
8
 71
3
 72
8
 73
4
 74
0
 40
0
 40
0
 40
0
 40
0
 40
1
 40
1
 40
1
 40
1
 10
186.188395
 20
75.695334
 30
0.0
 10
186.856093
 20
75.773199
 30
0.0
 10
187.191303
 20
76.071751
 30
0.0
 10
187.275391
 20
76.663819
 30
0.0
  0
SPLINE
  5
122
100
AcDbEntity
  8
Layer_1
 62
7
100
AcDbSpline
 70
8
 71
3
 72
8
 73
4
 74
0
 40
0
 40
0
 40
0
 40
0
 40
1
 40
1
 40
1
 40
1
 10
187.275391
 20
76.663819
 30
0.0
 10
187.381961
 20
77.414203
 30
0.0
 10
187.229476
 20
77.519856
 30
0.0
 10
186.039015
 20
77.519856
 30
0.0
  0
LWPOLYLINE
  5
123
100
AcDbEntity
  8
Layer_1
 62
7
100
AcDbPolyline
 90
10
 70
0
 10
162.620082
 20
77.519856
 30
0.0
 10
162.620082
 20
71.814228
 30
0.0
 10
162.620082
 20
66.108598
 30
0.0
 10
163.761098
 20
66.108598
 30
0.0
 10
164.902114
 20
66.108598
 30
0.0
 10
164.902114
 20
71.814228
 30
0.0
 10
164.902114
 20
77.519856
 30
0.0
 10
163.761098
 20
77.519856
 30
0.0
 10
162.620082
 20
77.519856
 30
0.0
 10
162.620082
 20
77.519856
 30
0.0
  0
LWPOLYLINE
  5
124
100
AcDbEntity
  8
Layer_1
 62
7
100
AcDbPolyline
 90
2
 70
0
 10
186.039015
 20
77.519856
 30
0.0
 10
186.039015
 20
77.519856
 30
0.0
  0
SPLINE
  5
125
100
AcDbEntity
  8
Layer_1
 62
7
100
AcDbSpline
 70
8
 71
3
 72
8
 73
4
 74
0
 40
0
 40
0
 40
0
 40
0
 40
1
 40
1
 40
1
 40
1
 10
126.865504
 20
71.465309
 30
0.0
 10
126.865504
 20
67.573047
 30
0.0
 10
126.991042
 20
66.128103
 30
0.0
 10
127.340651
 20
66.005519
 30
0.0
  0
SPLINE
  5
126
100
AcDbEntity
  8
Layer_1
 62
7
100
AcDbSpline
 70
8
 71
3
 72
8
 73
4
 74
0
 40
0
 40
0
 40
0
 40
0
 40
1
 40
1
 40
1
 40
1
 10
127.340651
 20
66.005519
 30
0.0
 10
127.602152
 20
65.913840
 30
0.0
 10
128.073054
 20
65.886086
 30
0.0
 10
128.386857
 20
65.944336
 30
0.0
  0
SPLINE
  5
127
100
AcDbEntity
  8
Layer_1
 62
7
100
AcDbSpline
 70
8
 71
3
 72
8
 73
4
 74
0
 40
0
 40
0
 40
0
 40
0
 40
1
 40
1
 40
1
 40
1
 10
128.386857
 20
65.944336
 30
0.0
 10
128.700660
 20
66.002584
 30
0.0
 10
129.079512
 20
66.063381
 30
0.0
 10
129.228562
 20
66.079383
 30
0.0
  0
SPLINE
  5
128
100
AcDbEntity
  8
Layer_1
 62
7
100
AcDbSpline
 70
8
 71
3
 72
8
 73
4
 74
0
 40
0
 40
0
 40
0
 40
0
 40
1
 40
1
 40
1
 40
1
 10
129.228562
 20
66.079383
 30
0.0
 10
129.377612
 20
66.095390
 30
0.0
 10
129.548752
 20
67.671107
 30
0.0
 10
129.608902
 20
69.580702
 30
0.0
  0
LWPOLYLINE
  5
129
100
AcDbEntity
  8
Layer_1
 62
7
100
AcDbPolyline
 90
2
 70
0
 10
126.865504
 20
76.759180
 30
0.0
 10
126.865504
 20
71.465309
 30
0.0
  0
SPLINE
  5
12a
100
AcDbEntity
  8
Layer_1
 62
7
100
AcDbSpline
 70
8
 71
3
 72
8
 73
4
 74
0
 40
0
 40
0
 40
0
 40
0
 40
1
 40
1
 40
1
 40
1
 10
132.190795
 20
69.591175
 30
0.0
 10
134.428732
 20
66.458023
 30
0.0
 10
134.780398
 20
66.128667
 30
0.0
 10
135.899370
 20
66.119072
 30
0.0
  0
LWPOLYLINE
  5
12b
100
AcDbEntity
  8
Layer_1
 62
7
100
AcDbPolyline
 90
3
 70
0
 10
129.608902
 20
69.580702
 30
0.0
 10
129.718043
 20
73.052809
 30
0.0
 10
132.190795
 20
69.591175
 30
0.0
  0
SPLINE
  5
12c
100
AcDbEntity
  8
Layer_1
 62
7
100
AcDbSpline
 70
8
 71
3
 72
8
 73
4
 74
0
 40
0
 40
0
 40
0
 40
0
 40
1
 40
1
 40
1
 40
1
 10
132.158272
 20
73.057217
 30
0.0
 10
129.658742
 20
76.490783
 30
0.0
 10
129.369549
 20
76.759180
 30
0.0
 10
128.164717
 20
76.759180
 30
0.0
  0
LWPOLYLINE
  5
12d
100
AcDbEntity
  8
Layer_1
 62
7
100
AcDbPolyline
 90
9
 70
0
 10
135.899370
 20
66.119072
 30
0.0
 10
137.135195
 20
66.108598
 30
0.0
 10
137.135195
 20
71.433889
 30
0.0
 10
137.135195
 20
76.759180
 30
0.0
 10
135.994180
 20
76.759180
 30
0.0
 10
134.853164
 20
76.759180
 30
0.0
 10
134.853164
 20
73.057217
 30
0.0
 10
134.853164
 20
69.355257
 30
0.0
 10
132.158272
 20
73.057217
 30
0.0
  0
SPLINE
  5
12e
100
AcDbEntity
  8
Layer_1
 62
7
100
AcDbSpline
 70
8
 71
3
 72
8
 73
4
 74
0
 40
0
 40
0
 40
0
 40
0
 40
1
 40
1
 40
1
 40
1
 10
152.400000
 20
74.334383
 30
0.0
 10
152.118289
 20
74.343513
 30
0.0
 10
151.734667
 20
74.225504
 30
0.0
 10
151.241345
 20
73.979401
 30
0.0
  0
SPLINE
  5
12f
100
AcDbEntity
  8
Layer_1
 62
7
100
AcDbSpline
 70
8
 71
3
 72
8
 73
4
 74
0
 40
0
 40
0
 40
0
 40
0
 40
1
 40
1
 40
1
 40
1
 10
151.241345
 20
73.979401
 30
0.0
 10
150.596044
 20
73.657481
 30
0.0
 10
150.067809
 20
73.551967
 30
0.0
 10
150.067809
 20
73.745134
 30
0.0
  0
SPLINE
  5
130
100
AcDbEntity
  8
Layer_1
 62
7
100
AcDbSpline
 70
8
 71
3
 72
8
 73
4
 74
0
 40
0
 40
0
 40
0
 40
0
 40
1
 40
1
 40
1
 40
1
 10
150.067809
 20
73.745134
 30
0.0
 10
150.067809
 20
73.938303
 30
0.0
 10
149.554398
 20
74.096258
 30
0.0
 10
148.926793
 20
74.096258
 30
0.0
  0
LWPOLYLINE
  5
131
100
AcDbEntity
  8
Layer_1
 62
7
100
AcDbPolyline
 90
3
 70
0
 10
128.164717
 20
76.759180
 30
0.0
 10
126.865504
 20
76.759180
 30
0.0
 10
126.865504
 20
76.759180
 30
0.0
  0
SPLINE
  5
132
100
AcDbEntity
  8
Layer_1
 62
7
100
AcDbSpline
 70
8
 71
3
 72
8
 73
4
 74
0
 40
0
 40
0
 40
0
 40
0
 40
1
 40
1
 40
1
 40
1
 10
150.067809
 20
68.724666
 30
0.0
 10
150.067809
 20
71.508607
 30
0.0
 10
150.347288
 20
72.028212
 30
0.0
 10
151.965643
 20
72.252994
 30
0.0
  0
SPLINE
  5
133
100
AcDbEntity
  8
Layer_1
 62
7
100
AcDbSpline
 70
8
 71
3
 72
8
 73
4
 74
0
 40
0
 40
0
 40
0
 40
0
 40
1
 40
1
 40
1
 40
1
 10
151.965643
 20
72.252994
 30
0.0
 10
152.972567
 20
72.392852
 30
0.0
 10
153.459561
 20
73.519562
 30
0.0
 10
152.798529
 20
74.180594
 30
0.0
  0
SPLINE
  5
134
100
AcDbEntity
  8
Layer_1
 62
7
100
AcDbSpline
 70
8
 71
3
 72
8
 73
4
 74
0
 40
0
 40
0
 40
0
 40
0
 40
1
 40
1
 40
1
 40
1
 10
152.798529
 20
74.180594
 30
0.0
 10
152.701684
 20
74.277439
 30
0.0
 10
152.569029
 20
74.328905
 30
0.0
 10
152.400000
 20
74.334383
 30
0.0
  0
LWPOLYLINE
  5
135
100
AcDbEntity
  8
Layer_1
 62
7
100
AcDbPolyline
 90
7
 70
0
 10
148.926793
 20
74.096258
 30
0.0
 10
147.785777
 20
74.096258
 30
0.0
 10
147.785777
 20
70.102703
 30
0.0
 10
147.785777
 20
66.108598
 30
0.0
 10
148.926793
 20
66.108598
 30
0.0
 10
150.067809
 20
66.108598
 30
0.0
 10
150.067809
 20
68.724666
 30
0.0
  0
SPLINE
  5
136
100
AcDbEntity
  8
Layer_1
 62
7
100
AcDbSpline
 70
8
 71
3
 72
8
 73
4
 74
0
 40
0
 40
0
 40
0
 40
0
 40
1
 40
1
 40
1
 40
1
 10
170.284730
 20
74.303516
 30
0.0
 10
167.725939
 20
74.334916
 30
0.0
 10
165.662791
 20
72.591627
 30
0.0
 10
165.662791
 20
70.102703
 30
0.0
  0
SPLINE
  5
137
100
AcDbEntity
  8
Layer_1
 62
7
100
AcDbSpline
 70
8
 71
3
 72
8
 73
4
 74
0
 40
0
 40
0
 40
0
 40
0
 40
1
 40
1
 40
1
 40
1
 10
165.662791
 20
70.102703
 30
0.0
 10
165.662791
 20
68.565137
 30
0.0
 10
166.733104
 20
66.864260
 30
0.0
 10
168.064987
 20
66.284987
 30
0.0
  0
SPLINE
  5
138
100
AcDbEntity
  8
Layer_1
 62
7
100
AcDbSpline
 70
8
 71
3
 72
8
 73
4
 74
0
 40
0
 40
0
 40
0
 40
0
 40
1
 40
1
 40
1
 40
1
 10
168.064987
 20
66.284987
 30
0.0
 10
169.776710
 20
65.540510
 30
0.0
 10
171.358622
 20
65.609141
 30
0.0
 10
172.804336
 20
66.490592
 30
0.0
  0
SPLINE
  5
139
100
AcDbEntity
  8
Layer_1
 62
7
100
AcDbSpline
 70
8
 71
3
 72
8
 73
4
 74
0
 40
0
 40
0
 40
0
 40
0
 40
1
 40
1
 40
1
 40
1
 10
172.804336
 20
66.490592
 30
0.0
 10
175.905651
 20
68.381464
 30
0.0
 10
175.242463
 20
73.155755
 30
0.0
 10
171.747657
 20
74.096811
 30
0.0
  0
SPLINE
  5
13a
100
AcDbEntity
  8
Layer_1
 62
7
100
AcDbSpline
 70
8
 71
3
 72
8
 73
4
 74
0
 40
0
 40
0
 40
0
 40
0
 40
1
 40
1
 40
1
 40
1
 10
171.747657
 20
74.096811
 30
0.0
 10
171.249766
 20
74.230878
 30
0.0
 10
170.758581
 20
74.297702
 30
0.0
 10
170.284730
 20
74.303516
 30
0.0
  0
LWPOLYLINE
  5
13b
100
AcDbEntity
  8
Layer_1
 62
7
100
AcDbPolyline
 90
2
 70
0
 10
152.400000
 20
74.334383
 30
0.0
 10
152.400000
 20
74.334383
 30
0.0
  0
SPLINE
  5
13c
100
AcDbEntity
  8
Layer_1
 62
7
100
AcDbSpline
 70
8
 71
3
 72
8
 73
4
 74
0
 40
0
 40
0
 40
0
 40
0
 40
1
 40
1
 40
1
 40
1
 10
192.498156
 20
74.248395
 30
0.0
 10
192.025877
 20
74.256842
 30
0.0
 10
191.547547
 20
74.204315
 30
0.0
 10
191.084841
 20
74.079722
 30
0.0
  0
SPLINE
  5
13d
100
AcDbEntity
  8
Layer_1
 62
7
100
AcDbSpline
 70
8
 71
3
 72
8
 73
4
 74
0
 40
0
 40
0
 40
0
 40
0
 40
1
 40
1
 40
1
 40
1
 10
191.084841
 20
74.079722
 30
0.0
 10
189.117148
 20
73.549878
 30
0.0
 10
188.102711
 20
72.141809
 30
0.0
 10
188.113238
 20
69.956080
 30
0.0
  0
SPLINE
  5
13e
100
AcDbEntity
  8
Layer_1
 62
7
100
AcDbSpline
 70
8
 71
3
 72
8
 73
4
 74
0
 40
0
 40
0
 40
0
 40
0
 40
1
 40
1
 40
1
 40
1
 10
188.113238
 20
69.956080
 30
0.0
 10
188.122622
 20
68.007832
 30
0.0
 10
188.879246
 20
66.741547
 30
0.0
 10
190.387001
 20
66.149938
 30
0.0
  0
SPLINE
  5
13f
100
AcDbEntity
  8
Layer_1
 62
7
100
AcDbSpline
 70
8
 71
3
 72
8
 73
4
 74
0
 40
0
 40
0
 40
0
 40
0
 40
1
 40
1
 40
1
 40
1
 10
190.387001
 20
66.149938
 30
0.0
 10
191.791937
 20
65.598671
 30
0.0
 10
193.324553
 20
65.654215
 30
0.0
 10
194.578441
 20
66.302626
 30
0.0
  0
SPLINE
  5
140
100
AcDbEntity
  8
Layer_1
 62
7
100
AcDbSpline
 70
8
 71
3
 72
8
 73
4
 74
0
 40
0
 40
0
 40
0
 40
0
 40
1
 40
1
 40
1
 40
1
 10
194.578441
 20
66.302626
 30
0.0
 10
195.549492
 20
66.804781
 30
0.0
 10
196.472418
 20
67.903032
 30
0.0
 10
196.472418
 20
68.555993
 30
0.0
  0
SPLINE
  5
141
100
AcDbEntity
  8
Layer_1
 62
7
100
AcDbSpline
 70
8
 71
3
 72
8
 73
4
 74
0
 40
0
 40
0
 40
0
 40
0
 40
1
 40
1
 40
1
 40
1
 10
196.472418
 20
68.555993
 30
0.0
 10
196.472418
 20
69.029960
 30
0.0
 10
194.252407
 20
68.733471
 30
0.0
 10
193.810049
 20
68.200460
 30
0.0
  0
SPLINE
  5
142
100
AcDbEntity
  8
Layer_1
 62
7
100
AcDbSpline
 70
8
 71
3
 72
8
 73
4
 74
0
 40
0
 40
0
 40
0
 40
0
 40
1
 40
1
 40
1
 40
1
 10
193.810049
 20
68.200460
 30
0.0
 10
193.123388
 20
67.373084
 30
0.0
 10
191.257318
 20
67.475017
 30
0.0
 10
190.780568
 20
68.365826
 30
0.0
  0
SPLINE
  5
143
100
AcDbEntity
  8
Layer_1
 62
7
100
AcDbSpline
 70
8
 71
3
 72
8
 73
4
 74
0
 40
0
 40
0
 40
0
 40
0
 40
1
 40
1
 40
1
 40
1
 10
190.780568
 20
68.365826
 30
0.0
 10
190.198471
 20
69.453490
 30
0.0
 10
190.302464
 20
71.295332
 30
0.0
 10
190.984519
 20
71.977387
 30
0.0
  0
SPLINE
  5
144
100
AcDbEntity
  8
Layer_1
 62
7
100
AcDbSpline
 70
8
 71
3
 72
8
 73
4
 74
0
 40
0
 40
0
 40
0
 40
0
 40
1
 40
1
 40
1
 40
1
 10
190.984519
 20
71.977387
 30
0.0
 10
191.816411
 20
72.809282
 30
0.0
 10
193.329794
 20
72.724466
 30
0.0
 10
193.898243
 20
71.814228
 30
0.0
  0
SPLINE
  5
145
100
AcDbEntity
  8
Layer_1
 62
7
100
AcDbSpline
 70
8
 71
3
 72
8
 73
4
 74
0
 40
0
 40
0
 40
0
 40
0
 40
1
 40
1
 40
1
 40
1
 10
193.898243
 20
71.814228
 30
0.0
 10
194.430952
 20
70.961232
 30
0.0
 10
196.472418
 20
70.743046
 30
0.0
 10
196.472418
 20
71.539172
 30
0.0
  0
SPLINE
  5
146
100
AcDbEntity
  8
Layer_1
 62
7
100
AcDbSpline
 70
8
 71
3
 72
8
 73
4
 74
0
 40
0
 40
0
 40
0
 40
0
 40
1
 40
1
 40
1
 40
1
 10
196.472418
 20
71.539172
 30
0.0
 10
196.472418
 20
73.024383
 30
0.0
 10
194.544699
 20
74.211791
 30
0.0
 10
192.498156
 20
74.248395
 30
0.0
  0
LWPOLYLINE
  5
147
100
AcDbEntity
  8
Layer_1
 62
7
100
AcDbPolyline
 90
2
 70
0
 10
170.284730
 20
74.303516
 30
0.0
 10
170.284730
 20
74.303516
 30
0.0
  0
SPLINE
  5
148
100
AcDbEntity
  8
Layer_1
 62
7
100
AcDbSpline
 70
8
 71
3
 72
8
 73
4
 74
0
 40
0
 40
0
 40
0
 40
0
 40
1
 40
1
 40
1
 40
1
 10
142.651757
 20
74.242881
 30
0.0
 10
141.258296
 20
74.243643
 30
0.0
 10
139.865204
 20
73.730845
 30
0.0
 10
139.057834
 20
72.704439
 30
0.0
  0
SPLINE
  5
149
100
AcDbEntity
  8
Layer_1
 62
7
100
AcDbSpline
 70
8
 71
3
 72
8
 73
4
 74
0
 40
0
 40
0
 40
0
 40
0
 40
1
 40
1
 40
1
 40
1
 10
139.057834
 20
72.704439
 30
0.0
 10
137.539854
 20
70.774640
 30
0.0
 10
138.215988
 20
67.370676
 30
0.0
 10
140.323976
 20
66.330738
 30
0.0
  0
SPLINE
  5
14a
100
AcDbEntity
  8
Layer_1
 62
7
100
AcDbSpline
 70
8
 71
3
 72
8
 73
4
 74
0
 40
0
 40
0
 40
0
 40
0
 40
1
 40
1
 40
1
 40
1
 10
140.323976
 20
66.330738
 30
0.0
 10
142.601239
 20
65.207291
 30
0.0
 10
145.731961
 20
65.969268
 30
0.0
 10
146.591844
 20
67.856502
 30
0.0
  0
SPLINE
  5
14b
100
AcDbEntity
  8
Layer_1
 62
7
100
AcDbSpline
 70
8
 71
3
 72
8
 73
4
 74
0
 40
0
 40
0
 40
0
 40
0
 40
1
 40
1
 40
1
 40
1
 10
146.591844
 20
67.856502
 30
0.0
 10
147.277370
 20
69.361065
 30
0.0
 10
147.118364
 20
71.592549
 30
0.0
 10
146.246785
 20
72.700581
 30
0.0
  0
SPLINE
  5
14c
100
AcDbEntity
  8
Layer_1
 62
7
100
AcDbSpline
 70
8
 71
3
 72
8
 73
4
 74
0
 40
0
 40
0
 40
0
 40
0
 40
1
 40
1
 40
1
 40
1
 10
146.246785
 20
72.700581
 30
0.0
 10
145.438721
 20
73.727864
 30
0.0
 10
144.045220
 20
74.242121
 30
0.0
 10
142.651757
 20
74.242881
 30
0.0
  0
LWPOLYLINE
  5
14d
100
AcDbEntity
  8
Layer_1
 62
7
100
AcDbPolyline
 90
2
 70
0
 10
192.498156
 20
74.248395
 30
0.0
 10
192.498156
 20
74.248395
 30
0.0
  0
SPLINE
  5
14e
100
AcDbEntity
  8
Layer_1
 62
7
100
AcDbSpline
 70
8
 71
3
 72
8
 73
4
 74
0
 40
0
 40
0
 40
0
 40
0
 40
1
 40
1
 40
1
 40
1
 10
178.445473
 20
74.186106
 30
0.0
 10
177.591980
 20
74.148776
 30
0.0
 10
176.891625
 20
73.824667
 30
0.0
 10
176.178326
 20
73.163603
 30
0.0
  0
SPLINE
  5
14f
100
AcDbEntity
  8
Layer_1
 62
7
100
AcDbSpline
 70
8
 71
3
 72
8
 73
4
 74
0
 40
0
 40
0
 40
0
 40
0
 40
1
 40
1
 40
1
 40
1
 10
176.178326
 20
73.163603
 30
0.0
 10
175.328797
 20
72.376285
 30
0.0
 10
175.172356
 20
71.910015
 30
0.0
 10
175.172356
 20
70.172158
 30
0.0
  0
SPLINE
  5
150
100
AcDbEntity
  8
Layer_1
 62
7
100
AcDbSpline
 70
8
 71
3
 72
8
 73
4
 74
0
 40
0
 40
0
 40
0
 40
0
 40
1
 40
1
 40
1
 40
1
 10
175.172356
 20
70.172158
 30
0.0
 10
175.172356
 20
68.674670
 30
0.0
 10
175.384279
 20
67.843692
 30
0.0
 10
175.949570
 20
67.125039
 30
0.0
  0
SPLINE
  5
151
100
AcDbEntity
  8
Layer_1
 62
7
100
AcDbSpline
 70
8
 71
3
 72
8
 73
4
 74
0
 40
0
 40
0
 40
0
 40
0
 40
1
 40
1
 40
1
 40
1
 10
175.949570
 20
67.125039
 30
0.0
 10
176.862026
 20
65.965040
 30
0.0
 10
178.997748
 20
65.443115
 30
0.0
 10
180.336142
 20
66.052924
 30
0.0
  0
SPLINE
  5
152
100
AcDbEntity
  8
Layer_1
 62
7
100
AcDbSpline
 70
8
 71
3
 72
8
 73
4
 74
0
 40
0
 40
0
 40
0
 40
0
 40
1
 40
1
 40
1
 40
1
 10
180.336142
 20
66.052924
 30
0.0
 10
181.368974
 20
66.523513
 30
0.0
 10
181.510059
 20
66.218575
 30
0.0
 10
180.744041
 20
65.170980
 30
0.0
  0
SPLINE
  5
153
100
AcDbEntity
  8
Layer_1
 62
7
100
AcDbSpline
 70
8
 71
3
 72
8
 73
4
 74
0
 40
0
 40
0
 40
0
 40
0
 40
1
 40
1
 40
1
 40
1
 10
180.744041
 20
65.170980
 30
0.0
 10
180.315179
 20
64.584480
 30
0.0
 10
179.905849
 20
64.506166
 30
0.0
 10
178.271842
 20
64.699691
 30
0.0
  0
SPLINE
  5
154
100
AcDbEntity
  8
Layer_1
 62
7
100
AcDbSpline
 70
8
 71
3
 72
8
 73
4
 74
0
 40
0
 40
0
 40
0
 40
0
 40
1
 40
1
 40
1
 40
1
 10
178.271842
 20
64.699691
 30
0.0
 10
177.134545
 20
64.834390
 30
0.0
 10
176.289177
 20
64.779535
 30
0.0
 10
176.256047
 20
64.569053
 30
0.0
  0
SPLINE
  5
155
100
AcDbEntity
  8
Layer_1
 62
7
100
AcDbSpline
 70
8
 71
3
 72
8
 73
4
 74
0
 40
0
 40
0
 40
0
 40
0
 40
1
 40
1
 40
1
 40
1
 10
176.256047
 20
64.569053
 30
0.0
 10
176.086488
 20
63.491916
 30
0.0
 10
176.205165
 20
63.265898
 30
0.0
 10
177.074048
 20
63.006358
 30
0.0
  0
SPLINE
  5
156
100
AcDbEntity
  8
Layer_1
 62
7
100
AcDbSpline
 70
8
 71
3
 72
8
 73
4
 74
0
 40
0
 40
0
 40
0
 40
0
 40
1
 40
1
 40
1
 40
1
 10
177.074048
 20
63.006358
 30
0.0
 10
178.593287
 20
62.552559
 30
0.0
 10
181.259305
 20
62.917969
 30
0.0
 10
182.347526
 20
63.729552
 30
0.0
  0
SPLINE
  5
157
100
AcDbEntity
  8
Layer_1
 62
7
100
AcDbSpline
 70
8
 71
3
 72
8
 73
4
 74
0
 40
0
 40
0
 40
0
 40
0
 40
1
 40
1
 40
1
 40
1
 10
182.347526
 20
63.729552
 30
0.0
 10
183.326907
 20
64.459966
 30
0.0
 10
183.352573
 20
64.588668
 30
0.0
 10
183.456572
 20
69.287456
 30
0.0
  0
LWPOLYLINE
  5
158
100
AcDbEntity
  8
Layer_1
 62
7
100
AcDbPolyline
 90
2
 70
0
 10
142.651757
 20
74.242881
 30
0.0
 10
142.651757
 20
74.242881
 30
0.0
  0
SPLINE
  5
159
100
AcDbEntity
  8
Layer_1
 62
7
100
AcDbSpline
 70
8
 71
3
 72
8
 73
4
 74
0
 40
0
 40
0
 40
0
 40
0
 40
1
 40
1
 40
1
 40
1
 10
181.745049
 20
74.070352
 30
0.0
 10
180.745085
 20
74.055352
 30
0.0
 10
179.669883
 20
74.081658
 30
0.0
 10
179.356080
 20
74.129331
 30
0.0
  0
SPLINE
  5
15a
100
AcDbEntity
  8
Layer_1
 62
7
100
AcDbSpline
 70
8
 71
3
 72
8
 73
4
 74
0
 40
0
 40
0
 40
0
 40
0
 40
1
 40
1
 40
1
 40
1
 10
179.356080
 20
74.129331
 30
0.0
 10
179.031273
 20
74.178672
 30
0.0
 10
178.729970
 20
74.198549
 30
0.0
 10
178.445473
 20
74.186106
 30
0.0
  0
LWPOLYLINE
  5
15b
100
AcDbEntity
  8
Layer_1
 62
7
100
AcDbPolyline
 90
3
 70
0
 10
183.456572
 20
69.287456
 30
0.0
 10
183.562955
 20
74.097361
 30
0.0
 10
181.745049
 20
74.070352
 30
0.0
  0
LWPOLYLINE
  5
15c
100
AcDbEntity
  8
Layer_1
 62
7
100
AcDbPolyline
 90
2
 70
0
 10
178.445473
 20
74.186106
 30
0.0
 10
178.445473
 20
74.186106
 30
0.0
  0
SPLINE
  5
15d
100
AcDbEntity
  8
Layer_1
 62
7
100
AcDbSpline
 70
8
 71
3
 72
8
 73
4
 74
0
 40
0
 40
0
 40
0
 40
0
 40
1
 40
1
 40
1
 40
1
 10
142.559154
 20
72.589786
 30
0.0
 10
144.028801
 20
72.605041
 30
0.0
 10
145.417994
 20
70.363358
 30
0.0
 10
144.348951
 20
68.365826
 30
0.0
  0
SPLINE
  5
15e
100
AcDbEntity
  8
Layer_1
 62
7
100
AcDbSpline
 70
8
 71
3
 72
8
 73
4
 74
0
 40
0
 40
0
 40
0
 40
0
 40
1
 40
1
 40
1
 40
1
 10
144.348951
 20
68.365826
 30
0.0
 10
144.077162
 20
67.857987
 30
0.0
 10
143.551106
 20
67.629951
 30
0.0
 10
142.650656
 20
67.629951
 30
0.0
  0
SPLINE
  5
15f
100
AcDbEntity
  8
Layer_1
 62
7
100
AcDbSpline
 70
8
 71
3
 72
8
 73
4
 74
0
 40
0
 40
0
 40
0
 40
0
 40
1
 40
1
 40
1
 40
1
 10
142.650656
 20
67.629951
 30
0.0
 10
140.663721
 20
67.629951
 30
0.0
 10
139.845641
 20
69.865972
 30
0.0
 10
141.150797
 20
71.729342
 30
0.0
  0
SPLINE
  5
160
100
AcDbEntity
  8
Layer_1
 62
7
100
AcDbSpline
 70
8
 71
3
 72
8
 73
4
 74
0
 40
0
 40
0
 40
0
 40
0
 40
1
 40
1
 40
1
 40
1
 10
141.150797
 20
71.729342
 30
0.0
 10
141.570504
 20
72.328553
 30
0.0
 10
142.069272
 20
72.584704
 30
0.0
 10
142.559154
 20
72.589786
 30
0.0
  0
LWPOLYLINE
  5
161
100
AcDbEntity
  8
Layer_1
 62
7
100
AcDbPolyline
 90
10
 70
0
 10
184.681371
 20
74.144766
 30
0.0
 10
184.681371
 20
70.126407
 30
0.0
 10
184.681371
 20
66.108598
 30
0.0
 10
186.025784
 20
66.108598
 30
0.0
 10
187.370201
 20
66.108598
 30
0.0
 10
187.262160
 20
70.007343
 30
0.0
 10
187.153573
 20
73.906091
 30
0.0
 10
185.917197
 20
74.025152
 30
0.0
 10
184.681371
 20
74.144766
 30
0.0
 10
184.681371
 20
74.144766
 30
0.0
  0
SPLINE
  5
162
100
AcDbEntity
  8
Layer_1
 62
7
100
AcDbSpline
 70
8
 71
3
 72
8
 73
4
 74
0
 40
0
 40
0
 40
0
 40
0
 40
1
 40
1
 40
1
 40
1
 10
157.104622
 20
72.574905
 30
0.0
 10
158.387937
 20
72.574905
 30
0.0
 10
158.874308
 20
71.709135
 30
0.0
 10
158.743385
 20
69.656769
 30
0.0
  0
SPLINE
  5
163
100
AcDbEntity
  8
Layer_1
 62
7
100
AcDbSpline
 70
8
 71
3
 72
8
 73
4
 74
0
 40
0
 40
0
 40
0
 40
0
 40
1
 40
1
 40
1
 40
1
 10
158.743385
 20
69.656769
 30
0.0
 10
158.632164
 20
67.913203
 30
0.0
 10
158.566683
 20
67.814756
 30
0.0
 10
157.452438
 20
67.706021
 30
0.0
  0
SPLINE
  5
164
100
AcDbEntity
  8
Layer_1
 62
7
100
AcDbSpline
 70
8
 71
3
 72
8
 73
4
 74
0
 40
0
 40
0
 40
0
 40
0
 40
1
 40
1
 40
1
 40
1
 10
157.452438
 20
67.706021
 30
0.0
 10
156.001023
 20
67.564388
 30
0.0
 10
155.240965
 20
68.388285
 30
0.0
 10
155.240965
 20
70.102703
 30
0.0
  0
SPLINE
  5
165
100
AcDbEntity
  8
Layer_1
 62
7
100
AcDbSpline
 70
8
 71
3
 72
8
 73
4
 74
0
 40
0
 40
0
 40
0
 40
0
 40
1
 40
1
 40
1
 40
1
 10
155.240965
 20
70.102703
 30
0.0
 10
155.240965
 20
71.632060
 30
0.0
 10
155.951722
 20
72.574905
 30
0.0
 10
157.104622
 20
72.574905
 30
0.0
  0
LWPOLYLINE
  5
166
100
AcDbEntity
  8
Layer_1
 62
7
100
AcDbPolyline
 90
2
 70
0
 10
142.559154
 20
72.589786
 30
0.0
 10
142.559154
 20
72.589786
 30
0.0
  0
SPLINE
  5
167
100
AcDbEntity
  8
Layer_1
 62
7
100
AcDbSpline
 70
8
 71
3
 72
8
 73
4
 74
0
 40
0
 40
0
 40
0
 40
0
 40
1
 40
1
 40
1
 40
1
 10
179.595309
 20
72.574905
 30
0.0
 10
180.746067
 20
72.574905
 30
0.0
 10
181.257773
 20
71.813867
 30
0.0
 10
181.257773
 20
70.102703
 30
0.0
  0
SPLINE
  5
168
100
AcDbEntity
  8
Layer_1
 62
7
100
AcDbSpline
 70
8
 71
3
 72
8
 73
4
 74
0
 40
0
 40
0
 40
0
 40
0
 40
1
 40
1
 40
1
 40
1
 10
181.257773
 20
70.102703
 30
0.0
 10
181.257773
 20
69.244976
 30
0.0
 10
181.052411
 20
68.337400
 30
0.0
 10
180.801368
 20
68.086358
 30
0.0
  0
SPLINE
  5
169
100
AcDbEntity
  8
Layer_1
 62
7
100
AcDbSpline
 70
8
 71
3
 72
8
 73
4
 74
0
 40
0
 40
0
 40
0
 40
0
 40
1
 40
1
 40
1
 40
1
 10
180.801368
 20
68.086358
 30
0.0
 10
180.078112
 20
67.363101
 30
0.0
 10
178.294216
 20
67.531978
 30
0.0
 10
177.847955
 20
68.365826
 30
0.0
  0
SPLINE
  5
16a
100
AcDbEntity
  8
Layer_1
 62
7
100
AcDbSpline
 70
8
 71
3
 72
8
 73
4
 74
0
 40
0
 40
0
 40
0
 40
0
 40
1
 40
1
 40
1
 40
1
 10
177.847955
 20
68.365826
 30
0.0
 10
176.857745
 20
70.216049
 30
0.0
 10
177.837042
 20
72.574905
 30
0.0
 10
179.595309
 20
72.574905
 30
0.0
  0
LWPOLYLINE
  5
16b
100
AcDbEntity
  8
Layer_1
 62
7
100
AcDbPolyline
 90
2
 70
0
 10
157.104622
 20
72.574905
 30
0.0
 10
157.104622
 20
72.574905
 30
0.0
  0
SPLINE
  5
16c
100
AcDbEntity
  8
Layer_1
 62
7
100
AcDbSpline
 70
8
 71
3
 72
8
 73
4
 74
0
 40
0
 40
0
 40
0
 40
0
 40
1
 40
1
 40
1
 40
1
 10
169.850923
 20
72.546793
 30
0.0
 10
170.144657
 20
72.560946
 30
0.0
 10
170.484411
 20
72.499089
 30
0.0
 10
170.872878
 20
72.363238
 30
0.0
  0
SPLINE
  5
16d
100
AcDbEntity
  8
Layer_1
 62
7
100
AcDbSpline
 70
8
 71
3
 72
8
 73
4
 74
0
 40
0
 40
0
 40
0
 40
0
 40
1
 40
1
 40
1
 40
1
 10
170.872878
 20
72.363238
 30
0.0
 10
171.786784
 20
72.043630
 30
0.0
 10
171.955993
 20
71.756257
 30
0.0
 10
172.057438
 20
70.352405
 30
0.0
  0
SPLINE
  5
16e
100
AcDbEntity
  8
Layer_1
 62
7
100
AcDbSpline
 70
8
 71
3
 72
8
 73
4
 74
0
 40
0
 40
0
 40
0
 40
0
 40
1
 40
1
 40
1
 40
1
 10
172.057438
 20
70.352405
 30
0.0
 10
172.122521
 20
69.451718
 30
0.0
 10
171.973209
 20
68.470691
 30
0.0
 10
171.725607
 20
68.172348
 30
0.0
  0
SPLINE
  5
16f
100
AcDbEntity
  8
Layer_1
 62
7
100
AcDbSpline
 70
8
 71
3
 72
8
 73
4
 74
0
 40
0
 40
0
 40
0
 40
0
 40
1
 40
1
 40
1
 40
1
 10
171.725607
 20
68.172348
 30
0.0
 10
171.478005
 20
67.874006
 30
0.0
 10
170.803779
 20
67.629951
 30
0.0
 10
170.227405
 20
67.629951
 30
0.0
  0
SPLINE
  5
170
100
AcDbEntity
  8
Layer_1
 62
7
100
AcDbSpline
 70
8
 71
3
 72
8
 73
4
 74
0
 40
0
 40
0
 40
0
 40
0
 40
1
 40
1
 40
1
 40
1
 10
170.227405
 20
67.629951
 30
0.0
 10
168.794216
 20
67.629951
 30
0.0
 10
168.257265
 20
68.419637
 30
0.0
 10
168.397369
 20
70.320985
 30
0.0
  0
SPLINE
  5
171
100
AcDbEntity
  8
Layer_1
 62
7
100
AcDbSpline
 70
8
 71
3
 72
8
 73
4
 74
0
 40
0
 40
0
 40
0
 40
0
 40
1
 40
1
 40
1
 40
1
 10
168.397369
 20
70.320985
 30
0.0
 10
168.504768
 20
71.778482
 30
0.0
 10
168.969724
 20
72.504332
 30
0.0
 10
169.850923
 20
72.546793
 30
0.0
  0
LWPOLYLINE
  5
172
100
AcDbEntity
  8
Layer_1
 62
7
100
AcDbPolyline
 90
2
 70
0
 10
179.595309
 20
72.574905
 30
0.0
 10
179.595309
 20
72.574905
 30
0.0
  0
SPLINE
  5
173
100
AcDbEntity
  8
Layer_1
 62
1
100
AcDbSpline
 70
8
 71
3
 72
8
 73
4
 74
0
 40
0
 40
0
 40
0
 40
0
 40
1
 40
1
 40
1
 40
1
 10
129.562047
 20
135.021533
 30
0.0
 10
122.466111
 20
135.021533
 30
0.0
 10
116.754010
 20
129.308878
 30
0.0
 10
116.754010
 20
122.212942
 30
0.0
  0
LWPOLYLINE
  5
174
100
AcDbEntity
  8
Layer_1
 62
7
100
AcDbPolyline
 90
2
 70
0
 10
169.850923
 20
72.546793
 30
0.0
 10
169.850923
 20
72.546793
 30
0.0
  0
SPLINE
  5
175
100
AcDbEntity
  8
Layer_1
 62
1
100
AcDbSpline
 70
8
 71
3
 72
8
 73
4
 74
0
 40
0
 40
0
 40
0
 40
0
 40
1
 40
1
 40
1
 40
1
 10
116.754010
 20
57.999118
 30
0.0
 10
116.754010
 20
50.903182
 30
0.0
 10
122.466114
 20
45.190530
 30
0.0
 10
129.562047
 20
45.190530
 30
0.0
  0
LWPOLYLINE
  5
176
100
AcDbEntity
  8
Layer_1
 62
1
100
AcDbPolyline
 90
2
 70
0
 10
116.754010
 20
122.212942
 30
0.0
 10
116.754010
 20
57.999118
 30
0.0
  0
SPLINE
  5
177
100
AcDbEntity
  8
Layer_1
 62
1
100
AcDbSpline
 70
8
 71
3
 72
8
 73
4
 74
0
 40
0
 40
0
 40
0
 40
0
 40
1
 40
1
 40
1
 40
1
 10
193.775872
 20
45.190530
 30
0.0
 10
200.871808
 20
45.190530
 30
0.0
 10
206.584463
 20
50.903182
 30
0.0
 10
206.584463
 20
57.999118
 30
0.0
  0
LWPOLYLINE
  5
178
100
AcDbEntity
  8
Layer_1
 62
1
100
AcDbPolyline
 90
2
 70
0
 10
129.562047
 20
45.190530
 30
0.0
 10
193.775872
 20
45.190530
 30
0.0
  0
SPLINE
  5
179
100
AcDbEntity
  8
Layer_1
 62
1
100
AcDbSpline
 70
8
 71
3
 72
8
 73
4
 74
0
 40
0
 40
0
 40
0
 40
0
 40
1
 40
1
 40
1
 40
1
 10
206.584463
 20
122.212942
 30
0.0
 10
206.584463
 20
129.308878
 30
0.0
 10
200.871808
 20
135.021533
 30
0.0
 10
193.775872
 20
135.021533
 30
0.0
  0
LWPOLYLINE
  5
17a
100
AcDbEntity
  8
Layer_1
 62
1
100
AcDbPolyline
 90
2
 70
0
 10
206.584463
 20
57.999118
 30
0.0
 10
206.584463
 20
122.212942
 30
0.0
  0
LWPOLYLINE
  5
17b
100
AcDbEntity
  8
Layer_1
 62
1
100
AcDbPolyline
 90
3
 70
0
 10
193.775872
 20
135.021533
 30
0.0
 10
129.562047
 20
135.021533
 30
0.0
 10
129.562047
 20
135.021533
 30
0.0
  0
ENDSEC
  0
SECTION
  2
OBJECTS
  0
DICTIONARY
  5
C
330
0
100
AcDbDictionary
  3
ACAD_GROUP
350
D
  3
ACAD_MLINESTYLE
350
17
  0
DICTIONARY
  5
D
330
C
100
AcDbDictionary
  0
DICTIONARY
  5
1A
330
C
100
AcDbDictionary
  0
DICTIONARY
  5
17
330
C
100
AcDbDictionary
  3
STANDARD
350
18
  0
DICTIONARY
  5
19
330
C
100
AcDbDictionary
  0
ENDSEC
  0
EOF
