<?xml version="1.0" encoding="UTF-8" standalone="no"?>
<!-- Created with Inkscape (http://www.inkscape.org/) -->

<svg
   xmlns:dc="http://purl.org/dc/elements/1.1/"
   xmlns:cc="http://creativecommons.org/ns#"
   xmlns:rdf="http://www.w3.org/1999/02/22-rdf-syntax-ns#"
   xmlns:svg="http://www.w3.org/2000/svg"
   xmlns="http://www.w3.org/2000/svg"
   xmlns:sodipodi="http://sodipodi.sourceforge.net/DTD/sodipodi-0.dtd"
   xmlns:inkscape="http://www.inkscape.org/namespaces/inkscape"
   width="210mm"
   height="297mm"
   viewBox="0 0 744.09448819 1052.3622047"
   id="svg2"
   version="1.1"
   inkscape:version="0.91 r13725"
   sodipodi:docname="coaster.svg">
  <defs
     id="defs4" />
  <sodipodi:namedview
     id="base"
     pagecolor="#ffffff"
     bordercolor="#666666"
     borderopacity="1.0"
     inkscape:pageopacity="0.0"
     inkscape:pageshadow="2"
     inkscape:zoom="0.98994949"
     inkscape:cx="315.39396"
     inkscape:cy="286.93255"
     inkscape:document-units="mm"
     inkscape:current-layer="layer1"
     showgrid="false"
     inkscape:window-width="1440"
     inkscape:window-height="838"
     inkscape:window-x="-8"
     inkscape:window-y="-8"
     inkscape:window-maximized="1" />
  <metadata
     id="metadata7">
    <rdf:RDF>
      <cc:Work
         rdf:about="">
        <dc:format>image/svg+xml</dc:format>
        <dc:type
           rdf:resource="http://purl.org/dc/dcmitype/StillImage" />
        <dc:title></dc:title>
      </cc:Work>
    </rdf:RDF>
  </metadata>
  <g
     inkscape:label="Layer 1"
     inkscape:groupmode="layer"
     id="layer1">
    <path
       style="fill:#000000"
       d="M 622.98633 636.36914 C 622.89018 636.3734 622.79013 636.38749 622.68359 636.41016 C 620.74659 636.82221 586.31474 661.94837 542.67188 694.79883 L 522.97656 709.625 L 522.58984 722.76562 C 522.37769 729.99298 522.57006 735.90625 523.01758 735.90625 C 524.12132 735.90625 616.3617 666.38034 621.02539 662.0332 C 624.49939 658.79501 624.73242 657.87143 624.73242 647.27734 C 624.73242 638.46001 624.42862 636.30523 622.98633 636.36914 z M 573.51172 636.8418 C 572.16846 636.01161 529.79083 665.06291 523.98633 670.79297 C 521.47136 673.27568 520.95508 675.25282 520.95508 682.38281 C 520.95508 687.11118 521.35935 691.38475 521.85352 691.87891 C 522.3477 692.3731 523.23696 692.77734 523.83008 692.77734 C 525.50805 692.77734 569.85455 660.66418 572.50586 657.5293 C 575.1431 654.41105 575.92479 638.33315 573.51172 636.8418 z M 622.82617 677.95117 C 621.09239 677.95117 586.65549 702.65612 577.89648 710.18359 C 575.19005 712.50948 574.86523 714.03234 574.86523 724.34766 C 574.86523 730.70452 575.31905 735.89687 575.875 735.88477 C 576.43095 735.87291 587.5005 727.8353 600.47266 718.02539 L 624.05859 700.18945 L 624.44922 689.07031 C 624.77109 679.9276 624.4828 677.95117 622.82617 677.95117 z M 562.73438 777.51562 L 562.73438 784.23047 L 562.73438 790.94727 L 558.16602 789.68359 C 548.98403 787.14832 541.16992 793.84001 541.16992 804.23828 C 541.16992 811.48347 542.76817 814.73907 547.60742 817.36523 C 552.00343 819.75085 556.54568 819.98905 560.21484 818.02539 C 562.16075 816.98395 563.42557 817.01485 564.77734 818.13672 C 565.80629 818.99067 567.90771 819.29076 569.44531 818.80273 C 572.13015 817.9506 572.22482 817.13024 571.86719 798.13672 L 571.49609 778.35938 L 567.11523 777.9375 L 562.73438 777.51562 z M 576.21289 777.68555 L 576.21289 797.90234 L 576.21289 818.11914 L 580.25586 818.11914 L 584.29883 818.11914 L 584.29883 797.90234 L 584.29883 777.68555 L 580.25586 777.68555 L 576.21289 777.68555 z M 659.19336 777.68555 C 655.42675 777.68555 654.38281 778.22172 654.38281 780.15625 C 654.38281 781.51525 654.81553 783.05969 655.34375 783.58789 C 655.87195 784.11616 657.84174 784.36974 659.72266 784.15039 C 662.08852 783.87449 663.27627 782.81663 663.57422 780.71875 C 663.95183 778.05991 663.41153 777.68555 659.19336 777.68555 z M 449.52344 780.38086 L 449.52344 799.13867 C 449.52344 812.93015 449.96826 818.05003 451.20703 818.48438 C 452.13361 818.80923 453.80216 818.90757 454.91406 818.70117 C 456.02596 818.49478 457.36835 818.27936 457.89648 818.22266 C 458.42461 818.16594 459.03101 812.58269 459.24414 805.81641 L 459.63086 793.51367 L 468.39258 805.7793 C 476.32228 816.88102 477.56834 818.04803 481.5332 818.08203 L 485.91211 818.11914 L 485.91211 799.25 L 485.91211 780.38086 L 481.86914 780.38086 L 477.82617 780.38086 L 477.82617 793.49805 L 477.82617 806.61523 L 468.27734 793.49805 C 459.42074 781.33187 458.39604 780.38086 454.12695 780.38086 L 449.52344 780.38086 z M 540 788.97266 C 539.00181 788.94031 537.64252 789.35845 535.89453 790.23047 C 533.60803 791.37113 531.73633 791.745 531.73633 791.06055 C 531.73633 790.37609 529.91716 789.81641 527.69336 789.81641 L 523.65039 789.81641 L 523.65039 803.9668 L 523.65039 818.11914 L 527.69336 818.11914 L 531.73633 818.11914 L 531.73633 808.84961 C 531.73633 798.98525 532.72661 797.14413 538.46094 796.34766 C 542.02878 795.8521 543.75435 791.85982 541.41211 789.51758 C 541.06896 789.17443 540.59892 788.99207 540 788.97266 z M 603.37109 789.08203 C 594.30451 788.97077 586.99414 795.14778 586.99414 803.9668 C 586.99414 809.41487 590.78659 815.4416 595.50586 817.49414 C 601.57102 820.13205 607.17622 819.88887 612.29883 816.76562 C 623.28774 810.06568 620.93786 793.1489 608.55469 789.81445 C 606.79051 789.33941 605.05009 789.10263 603.37109 789.08203 z M 682.08008 789.27734 C 680.40665 789.24741 678.71178 789.43353 677.07227 789.875 C 670.10013 791.7524 666.50567 796.74162 666.54297 804.48633 C 666.57622 811.38957 669.25717 815.87641 674.59961 817.97266 C 679.57773 819.92597 685.00826 819.72916 689.45117 817.43164 C 692.8919 815.65235 696.16211 811.76091 696.16211 809.44727 C 696.16211 807.76786 688.29593 808.81841 686.72852 810.70703 C 684.29547 813.63868 677.68341 813.2775 675.99414 810.12109 C 673.93159 806.26716 674.30007 799.74095 676.7168 797.32422 C 679.66445 794.37656 685.02683 794.67709 687.04102 797.90234 C 688.92857 800.92477 696.16211 801.69787 696.16211 798.87695 C 696.16211 793.61439 689.33161 789.40704 682.08008 789.27734 z M 505.45898 789.29688 C 500.52152 789.29418 495.58537 791.11118 492.72461 794.74805 C 487.34594 801.58592 489.74169 813.64721 497.21094 817.33203 C 505.27998 821.31275 516.37309 818.61283 519.41992 811.92578 C 521.84895 806.59465 521.28554 798.68782 518.19727 794.76172 C 515.33405 791.12174 510.39645 789.29957 505.45898 789.29688 z M 632.28711 789.49805 C 629.26292 789.63032 626.78135 790.77874 624.25391 793.12109 C 621.24377 795.9108 620.68945 797.56294 620.68945 803.7207 C 620.68945 809.02676 621.44036 811.97117 623.44336 814.51758 C 626.67647 818.62781 634.24399 820.47715 638.98633 818.31641 C 642.64597 816.64897 643.14588 817.72946 640.43164 821.44141 C 638.91205 823.51956 637.46167 823.79705 631.67188 823.11133 C 627.64209 822.63405 624.64669 822.82842 624.5293 823.57422 C 623.9285 827.39085 624.34901 828.1917 627.42773 829.11133 C 632.81086 830.71928 642.25738 829.42452 646.11328 826.54883 C 649.58353 823.96075 649.67447 823.50472 650.04297 806.85547 L 650.41992 789.8125 L 643.97852 789.9082 C 640.43534 789.96135 636.62557 789.86814 635.51367 789.69922 C 634.36278 789.52439 633.29517 789.45396 632.28711 789.49805 z M 654.38281 789.64453 L 654.38281 803.88281 L 654.38281 818.11914 L 659.14648 818.11914 L 663.91016 818.11914 L 663.52734 804.30469 L 663.14258 790.49023 L 658.76172 790.06836 L 654.38281 789.64453 z M 505.13086 795.1543 C 510.33827 795.10025 515.26061 803.04322 511.47266 810.12109 C 510.50963 811.92052 508.64565 812.72852 505.45508 812.72852 C 498.41476 812.72852 495.51605 804.80561 500.14062 798.20312 C 501.62777 796.07993 503.39506 795.17231 505.13086 795.1543 z M 556.66992 795.20703 C 561.2171 795.20703 562.94046 798.27472 562.47656 805.54688 C 562.08247 811.72487 561.85045 812.0737 557.90234 812.45898 C 552.75953 812.96083 550.06641 810.04151 550.06641 803.9668 C 550.06641 798.54782 552.58484 795.20703 556.66992 795.20703 z M 636.36133 795.20703 C 640.43882 795.20703 642.25195 797.90362 642.25195 803.9668 C 642.25195 807.00599 641.52429 810.22181 640.63477 811.11133 C 638.07205 813.67405 631.75116 813.07567 630.16992 810.12109 C 626.6613 803.56518 630.13125 795.20703 636.36133 795.20703 z M 601.83398 795.30664 C 602.87477 795.25649 604.07862 795.47567 605.45508 795.95703 C 608.69333 797.0895 609.29289 798.10775 609.65234 803.08203 C 609.88295 806.27344 609.35389 809.74952 608.47656 810.80664 C 607.59923 811.86376 605.21024 812.72852 603.16797 812.72852 C 598.08974 812.72852 596.18716 809.93042 596.68359 803.19336 C 597.06414 798.029 598.71162 795.45709 601.83398 795.30664 z "
       id="path4146" />
    <path
       style="fill:none;stroke:#ff0000;stroke-width:0.60036314;stroke-linejoin:round;stroke-miterlimit:4;stroke-dasharray:none"
       d="M 459.07812 573.93945 C 433.93504 573.93945 413.69531 594.18114 413.69531 619.32422 L 413.69531 846.85352 C 413.69531 871.9966 433.93505 892.23828 459.07812 892.23828 L 686.60742 892.23828 C 711.7505 892.23828 731.99219 871.9966 731.99219 846.85352 L 731.99219 619.32422 C 731.99219 594.18114 711.7505 573.93945 686.60742 573.93945 L 459.07812 573.93945 z "
       id="rect4148" />
  </g>
</svg>
