<?xml version="1.0" encoding="UTF-8" standalone="no"?>
<!-- Created with Inkscape (http://www.inkscape.org/) -->

<svg
   xmlns:dc="http://purl.org/dc/elements/1.1/"
   xmlns:cc="http://creativecommons.org/ns#"
   xmlns:rdf="http://www.w3.org/1999/02/22-rdf-syntax-ns#"
   xmlns:svg="http://www.w3.org/2000/svg"
   xmlns="http://www.w3.org/2000/svg"
   xmlns:sodipodi="http://sodipodi.sourceforge.net/DTD/sodipodi-0.dtd"
   xmlns:inkscape="http://www.inkscape.org/namespaces/inkscape"
   width="210mm"
   height="297mm"
   viewBox="0 0 744.09448819 1052.3622047"
   id="svg2"
   version="1.1"
   inkscape:version="0.91 r13725"
   sodipodi:docname="suka.svg">
  <defs
     id="defs4" />
  <sodipodi:namedview
     id="base"
     pagecolor="#ffffff"
     bordercolor="#666666"
     borderopacity="1.0"
     inkscape:pageopacity="0.0"
     inkscape:pageshadow="2"
     inkscape:zoom="0.7"
     inkscape:cx="383.73958"
     inkscape:cy="589.55249"
     inkscape:document-units="mm"
     inkscape:current-layer="layer1"
     showgrid="false"
     inkscape:window-width="1360"
     inkscape:window-height="746"
     inkscape:window-x="1432"
     inkscape:window-y="-8"
     inkscape:window-maximized="1" />
  <metadata
     id="metadata7">
    <rdf:RDF>
      <cc:Work
         rdf:about="">
        <dc:format>image/svg+xml</dc:format>
        <dc:type
           rdf:resource="http://purl.org/dc/dcmitype/StillImage" />
        <dc:title></dc:title>
      </cc:Work>
    </rdf:RDF>
  </metadata>
  <g
     inkscape:label="Layer 1"
     inkscape:groupmode="layer"
     id="layer1">
    <path
       style="font-style:normal;font-variant:normal;font-weight:bold;font-stretch:normal;font-size:medium;line-height:125%;font-family:'Segoe Script';-inkscape-font-specification:'Segoe Script Bold';letter-spacing:0px;word-spacing:0px;fill:#000000;fill-opacity:1;stroke:none;stroke-width:1px;stroke-linecap:butt;stroke-linejoin:miter;stroke-opacity:1"
       d="m 373.14597,353.78357 c -1.4401,0 -2.71212,0.336 -3.81618,1.00807 -1.05606,0.62403 -1.96813,1.44005 -2.73615,2.44812 -0.72007,1.00806 -1.2721,2.13612 -1.6561,3.38418 -0.38407,1.20006 -0.6001,2.35212 -0.64803,3.45618 -0.0959,2.59212 -7.5076,61.94489 -7.7476,64.82505 -0.23999,2.88015 -0.52821,5.8323 -0.86406,8.85645 -0.28803,2.97615 -0.62403,6.00034 -1.00806,9.07249 -0.33604,3.02415 -0.69603,6.0003 -1.08006,8.92845 0,0.144 -0.0959,0.84003 -0.288,2.08813 -0.11897,1.03195 -0.2905,2.46478 -0.47524,3.989 -0.7771,0.69467 -1.47497,1.48301 -2.04488,2.41933 -1.53609,2.59212 -3.43222,5.35227 -5.6883,8.28042 -2.25613,2.92819 -4.60825,5.80834 -7.05641,8.64046 -2.44812,2.78415 -4.87224,5.42431 -7.27236,7.92043 -2.40015,2.44812 -4.51228,4.46424 -6.33633,6.04833 -3.02419,2.64012 -5.9523,4.72825 -8.78446,6.26434 -2.78415,1.53606 -5.4723,2.30412 -8.06442,2.30412 -0.81607,0 -1.4161,-0.81606 -1.80013,-2.44815 -0.33599,-1.68006 -0.50399,-3.74418 -0.50399,-6.1923 0,-0.96007 0.0479,-2.16013 0.144,-3.60022 0.14407,-1.48806 0.31207,-3.04815 0.50403,-4.68024 0.19188,-1.63206 0.40788,-3.26415 0.64803,-4.89624 0.23988,-1.6801 0.47992,-3.19219 0.72003,-4.53625 0.24003,-1.20006 0.55203,-2.61615 0.93606,-4.24825 0.38399,-1.63205 0.76803,-3.19214 1.15206,-4.68024 0.43199,-1.48806 0.79206,-2.76012 1.08006,-3.81618 l 0.432,-1.58409 c 0,-1.15206 -0.24,-2.08812 -0.72003,-2.80815 -0.48003,-0.76803 -1.10406,-1.36806 -1.87209,-1.80009 -0.76807,-0.48004 -1.63209,-0.79203 -2.59216,-0.93607 -0.91202,-0.19192 -1.84809,-0.28799 -2.80815,-0.28799 -0.86403,0 -1.63206,0.21599 -2.30412,0.64803 -0.67199,0.43203 -1.29602,1.00806 -1.87209,1.72809 -0.528,0.72003 -1.03203,1.56005 -1.51206,2.52012 -0.43203,0.91206 -0.88806,1.87209 -1.36809,2.88015 -0.86403,1.87213 -1.60806,3.48022 -2.23213,4.82428 -0.57599,1.34406 -1.10402,2.59211 -1.58405,3.74418 -0.48003,1.10406 -0.96007,2.16012 -1.4401,3.16818 -0.48003,1.00806 -1.03202,2.08809 -1.65609,3.24015 -0.86403,1.58409 -1.99209,3.33618 -3.38418,5.25627 -1.34406,1.92013 -2.88012,3.84022 -4.60825,5.76031 -1.68005,1.92012 -3.48018,3.79221 -5.40027,5.6163 -1.92009,1.82413 -3.91217,3.43222 -5.9763,4.82428 -2.01612,1.39206 -4.03225,2.52012 -6.04834,3.38415 -2.01609,0.81606 -3.96021,1.22409 -5.8323,1.22409 -0.72003,0 -1.51209,-0.69606 -2.37612,-2.08812 -0.86407,-1.3921 -1.29606,-3.50418 -1.29606,-6.33633 0,-3.21619 0.52799,-6.69637 1.58406,-10.44055 1.05606,-3.79218 2.30412,-7.89643 3.74421,-12.31268 0.336,-0.81602 0.76803,-1.96808 1.29606,-3.45618 0.52803,-1.48805 1.03203,-3.02415 1.51209,-4.60824 0.48,-1.63206 0.88803,-3.14415 1.22406,-4.53621 0.336,-1.44009 0.50404,-2.49615 0.50404,-3.16818 0,-2.68816 -0.76807,-4.56025 -2.30413,-5.61631 -1.48809,-1.10406 -3.57621,-1.65609 -6.26433,-1.65609 -1.96813,0 -3.48018,0.50403 -4.53625,1.51209 -1.00806,0.96003 -1.92008,2.28012 -2.73615,3.96022 -0.17165,0.30893 -0.47605,1.18446 -0.77042,2.00889 -0.87579,0.58757 -1.7862,1.24416 -2.82976,2.16732 -1.20006,1.10406 -2.52012,2.42412 -3.96021,3.96021 -1.3921,1.48809 -2.88016,3.07219 -4.46425,4.75224 -2.92811,3.16819 -5.37623,5.73631 -7.34436,7.70443 -1.92013,1.96809 -3.62422,3.64818 -5.11227,5.04024 -1.4881,1.3921 -2.90416,2.64016 -4.24825,3.74422 -1.34406,1.10402 -2.90412,2.35212 -4.68024,3.74418 -0.24,-1.05607 -0.93603,-2.13609 -2.08809,-3.24015 -1.10406,-1.10406 -2.42416,-2.20812 -3.96021,-3.31219 -1.72813,-1.24809 -3.55219,-2.64015 -5.47231,-4.17621 -1.92009,-1.53609 -3.67218,-3.02418 -5.25628,-4.46424 -1.58409,-1.4401 -2.90415,-2.73616 -3.96021,-3.88822 -1.05606,-1.20006 -1.58409,-2.08808 -1.58409,-2.66411 0,-0.38404 0.28803,-0.91207 0.86406,-1.5841 0.62403,-0.67203 1.36806,-1.44009 2.23212,-2.30412 l 2.88016,-2.88015 c 1.05602,-1.05606 2.01608,-2.13612 2.88015,-3.24019 0.91203,-1.15206 1.65605,-2.30412 2.23212,-3.45618 0.62399,-1.20006 0.93603,-2.35212 0.93603,-3.45618 0,-0.86403 -0.24,-1.70409 -0.72003,-2.52012 -0.43203,-0.86406 -1.03206,-1.60809 -1.80009,-2.23212 -0.72003,-0.67203 -1.56006,-1.20006 -2.52012,-1.5841 -0.96006,-0.38399 -1.96813,-0.57603 -3.02419,-0.57603 -0.72003,0 -1.63205,0.28804 -2.73611,0.86407 -1.05607,0.52803 -2.16013,1.22406 -3.31219,2.08809 -1.15206,0.86406 -2.25612,1.82409 -3.31218,2.88015 -1.05607,1.05606 -1.94409,2.11212 -2.66416,3.16818 -1.29606,1.96809 -2.37612,3.72018 -3.24015,5.25628 -0.86406,1.48809 -1.56009,2.92818 -2.08812,4.32024 -0.47992,1.39206 -0.83992,2.80812 -1.08006,4.24821 -0.19193,1.39206 -0.288,2.97615 -0.288,4.75224 0,0.96007 0.26404,2.08809 0.79203,3.38419 0.52803,1.24806 1.27206,2.54415 2.23212,3.88821 1.00806,1.29606 2.20812,2.61616 3.60018,3.96022 1.3921,1.29606 2.95219,2.49612 4.68025,3.60018 4.32024,2.73615 7.39243,5.06427 9.21648,6.98436 1.87213,1.87209 2.80816,3.57618 2.80816,5.11228 0,2.11208 -0.69603,4.24821 -2.08809,6.40833 -1.3441,2.11209 -3.45622,4.00821 -6.33634,5.68831 -1.77612,1.00802 -3.67221,2.06408 -5.6883,3.16814 -2.01613,1.05607 -3.88822,2.20813 -5.61631,3.45619 -1.68009,1.20006 -3.09615,2.49615 -4.24821,3.88821 -1.10406,1.39206 -1.65609,2.92815 -1.65609,4.60824 0,1.00807 0.24,1.89609 0.72003,2.66416 0.48003,0.76803 1.15206,1.41606 2.01612,1.94409 0.86407,0.52803 1.87209,0.93606 3.02415,1.22406 1.15207,0.28803 2.40012,0.43203 3.74418,0.43203 2.83219,0 5.54431,-0.84003 8.13643,-2.52012 2.64015,-1.63209 5.32831,-3.67222 8.06442,-6.12034 0.28804,-0.28803 0.86407,-0.88806 1.7281,-1.80009 0.91206,-0.91206 1.92012,-1.99212 3.02418,-3.24018 1.15206,-1.24806 2.37612,-2.56812 3.67218,-3.96022 1.29606,-1.39205 2.49612,-2.71211 3.60018,-3.96017 1.15207,-1.24806 2.13613,-2.32816 2.95216,-3.24019 0.86395,-0.91217 1.41598,-1.4882 1.65609,-1.72809 0.33603,-0.33603 0.91206,-0.88806 1.72809,-1.65609 0.81606,-0.81603 1.75209,-1.72809 2.80815,-2.73615 1.05606,-1.05607 2.16013,-2.13609 3.31219,-3.24015 1.20006,-1.15206 2.30412,-2.20813 3.31218,-3.16819 l 2.59212,-2.59212 c 0.76814,-0.7201 1.24813,-1.17613 1.44009,-1.36809 1.15206,-1.10406 2.44812,-2.49612 3.88818,-4.17621 1.20216,-1.39604 2.43153,-2.92598 3.66499,-4.47863 -0.42189,1.76135 -0.86052,3.54662 -1.21683,5.19866 -0.48007,2.44812 -0.86407,4.72824 -1.15206,6.84036 -0.24015,2.06413 -0.36004,3.81622 -0.36004,5.25627 0,6.86437 1.6081,12.19264 4.82424,15.98486 3.26419,3.74418 7.94443,5.6163 14.04077,5.6163 2.16009,0 4.70424,-0.62403 7.63239,-1.87209 2.97615,-1.24806 6.07234,-2.97615 9.28849,-5.18427 3.21618,-2.20812 6.43233,-4.84828 9.64852,-7.92043 3.21615,-3.12018 6.14433,-6.50437 8.78445,-10.15255 -0.28792,3.79222 -0.16803,7.1044 0.36004,9.93652 0.52799,2.78415 1.34405,5.11227 2.44812,6.9844 1.15206,1.87209 2.56815,3.26415 4.24821,4.17621 1.68012,0.91206 3.52821,1.36806 5.5443,1.36806 2.35212,0 4.70425,-0.36 7.05637,-1.08006 2.35212,-0.76803 4.63224,-1.75209 6.84036,-2.95215 2.25612,-1.20006 4.39225,-2.52012 6.40834,-3.96022 2.01612,-1.48805 3.88821,-2.95215 5.6163,-4.39221 1.34406,-1.15206 2.83212,-2.54415 4.46425,-4.17624 1.68005,-1.68006 3.38414,-3.48019 5.11227,-5.40028 1.77606,-1.96808 3.52815,-4.03221 5.25627,-6.19233 1.72806,-2.16013 3.33619,-4.29621 4.82425,-6.40834 0.008,-0.0119 0.0134,-0.0241 0.0216,-0.036 -0.008,0.0594 -0.0137,0.12055 -0.0216,0.17998 -0.33589,2.49616 -0.62403,4.75228 -0.86403,6.76837 -0.24011,2.01609 -0.45596,3.69618 -0.64803,5.04027 -0.14415,1.29595 -0.24011,2.06413 -0.28804,2.30413 -0.19203,1.24806 -0.4321,2.64011 -0.72002,4.17621 -0.23993,1.48809 -0.48004,3.02415 -0.72003,4.60824 -0.24007,1.58409 -0.456,3.14415 -0.64807,4.68024 -0.14414,1.4881 -0.216,2.85616 -0.216,4.10422 0,1.24806 0.0719,2.32812 0.216,3.24018 0.14404,0.91203 0.43203,1.65609 0.86406,2.23212 0.48004,0.57592 1.15207,0.98407 2.01609,1.22406 0.86407,0.28785 2.01613,0.43203 3.45619,0.43203 1.87209,0 3.38418,-0.19199 4.53624,-0.57603 1.15206,-0.33599 2.04012,-0.96002 2.66415,-1.87209 0.62411,-0.91202 1.03199,-2.11212 1.22406,-3.60021 0.24,-1.4881 0.36004,-3.36015 0.36004,-5.61627 0,-1.5361 0.12,-2.83215 0.35999,-3.88822 0.24004,-1.10402 0.67207,-2.18412 1.2961,-3.24018 0.67203,-1.10406 1.56006,-2.28012 2.66412,-3.52818 1.15206,-1.2481 2.61615,-2.76016 4.39224,-4.53625 1.00803,0.81603 2.08809,1.82409 3.24015,3.02415 1.20006,1.20006 2.44812,2.49612 3.74422,3.88822 l 4.17621,4.17621 c 1.44009,1.44009 2.88015,2.80819 4.32024,4.10425 1.44006,1.29609 2.92812,2.54412 4.46421,3.74418 1.5841,1.15206 3.21619,2.16012 4.89628,3.02415 1.72809,0.86403 3.52818,1.56009 5.40027,2.08812 1.87209,0.52807 3.88822,0.79203 6.04834,0.79203 2.73615,0 5.6643,-0.69599 8.78445,-2.08809 3.16815,-1.44005 6.33638,-3.24018 9.50452,-5.40031 3.16819,-2.20812 6.1923,-4.6082 9.07246,-7.20036 2.83948,-2.51359 5.34567,-4.91246 7.5532,-7.2004 -0.0867,1.05876 -0.13681,2.09524 -0.13681,3.09619 0,2.06412 0.38403,4.03221 1.15206,5.9043 0.76807,1.87209 1.77609,3.52818 3.02415,4.96828 1.2961,1.44006 2.78419,2.59212 4.46425,3.45618 1.68009,0.81603 3.45618,1.22406 5.32827,1.22406 2.59216,0 5.32827,-0.60003 8.20846,-1.80009 2.88012,-1.24806 5.71231,-2.90419 8.49642,-4.96827 2.83219,-2.11213 5.52031,-4.51225 8.06443,-7.2004 2.59215,-2.73612 4.89628,-5.59227 6.91236,-8.56842 0.33604,2.88015 0.98407,5.64026 1.94413,8.28042 0.96003,2.59212 2.23212,4.89624 3.81618,6.91236 1.58409,1.96809 3.45618,3.52819 5.6163,4.68025 2.16013,1.15206 4.63225,1.72809 7.4164,1.72809 2.44812,0 4.77624,-0.40803 6.98436,-1.22406 2.25613,-0.86407 4.32025,-1.96813 6.19234,-3.31219 1.92009,-1.34405 3.62418,-2.80815 5.11228,-4.3922 1.48805,-1.6321 2.68815,-3.21619 3.60018,-4.75228 0.81602,-1.15206 1.39205,-2.28013 1.72809,-3.38419 0.33603,-1.15206 0.50403,-2.16008 0.50403,-3.02415 0,-0.96006 -0.38403,-1.72809 -1.15206,-2.30412 -0.76803,-0.62403 -1.5121,-0.93603 -2.23212,-0.93603 -0.57604,0 -1.08007,0.072 -1.5121,0.216 -0.38399,0.144 -0.74403,0.36 -1.08002,0.64803 -0.288,0.288 -0.60003,0.64803 -0.93607,1.08006 -0.28803,0.38404 -0.64803,0.84007 -1.08006,1.36806 -1.58409,2.06413 -3.43218,3.69622 -5.5443,4.89628 -2.06409,1.20006 -4.56021,1.80009 -7.4884,1.80009 -1.10406,0 -2.20812,-0.38403 -3.31215,-1.15206 -1.10406,-0.81607 -2.08808,-2.16012 -2.95215,-4.03221 -0.86406,-1.87209 -1.58413,-4.32021 -2.16012,-7.3444 -0.52807,-3.07215 -0.79207,-6.84033 -0.79207,-11.30458 0,-1.72809 0.14404,-3.62418 0.43204,-5.6883 0.33603,-2.11212 0.69602,-4.12821 1.08006,-6.04834 0.43203,-1.92009 0.79202,-3.62418 1.08006,-5.11227 0.33603,-1.53606 0.50403,-2.59212 0.50403,-3.16815 0,-1.24806 -0.19204,-2.20812 -0.57603,-2.88015 -0.38403,-0.72003 -0.88803,-1.36806 -1.51209,-1.94413 -0.0959,-0.14407 -0.19193,-0.31207 -0.288,-0.50399 -0.0961,-0.24 -0.216,-0.64803 -0.36003,-1.2241 -0.19204,-0.91203 -0.62407,-1.82405 -1.29606,-2.73612 -0.67207,-0.91206 -1.4401,-1.72809 -2.30413,-2.44815 -0.86406,-0.76803 -1.77612,-1.36806 -2.73615,-1.80009 -0.91203,-0.48 -1.77605,-0.72003 -2.59212,-0.72003 -0.52803,0 -1.0561,0.0961 -1.58409,0.28803 -0.48007,0.14415 -0.93606,0.33614 -1.3681,0.57603 -0.43199,0.19207 -0.79202,0.38407 -1.08002,0.57603 -0.28807,0.19192 -0.45611,0.288 -0.50403,0.288 -0.14404,0 -0.43203,-0.0961 -0.86407,-0.288 -0.43199,-0.19207 -0.93602,-0.38411 -1.51205,-0.57603 -0.57603,-0.24 -1.20006,-0.43203 -1.87213,-0.57603 -0.62399,-0.19196 -1.20002,-0.28803 -1.72809,-0.28803 -1.68005,0 -3.84018,0.74402 -6.48033,2.23212 -2.64016,1.48806 -5.37631,3.50418 -8.20843,6.0483 -2.83219,2.49616 -5.6163,5.42431 -8.35246,8.78449 -2.73611,3.31219 -5.06424,6.81633 -6.98436,10.51255 -1.72806,3.31214 -3.19215,6.36033 -4.39221,9.14448 -0.38993,0.94234 -0.71804,1.8217 -1.05846,2.71456 -0.85507,0.0626 -1.66026,0.37894 -2.39772,1.02962 -0.81603,0.72003 -1.84813,1.6561 -3.09619,2.80816 -1.05606,1.00802 -2.30412,2.13608 -3.74418,3.38418 -1.44009,1.24806 -3.00015,2.52016 -4.68024,3.81622 -1.63209,1.29609 -3.36018,2.54411 -5.18427,3.74418 -1.7761,1.20006 -3.55222,2.28015 -5.32831,3.24018 -1.7281,0.96006 -3.43219,1.72809 -5.11228,2.30412 -1.63209,0.57614 -3.12015,0.86403 -4.46421,0.86403 -1.05606,0 -1.99212,-0.0241 -2.80815,-0.072 -0.81603,-0.096 -1.65609,-0.28811 -2.52016,-0.57603 -0.86402,-0.33603 -1.84809,-0.81603 -2.95215,-1.44006 -1.05606,-0.67203 -2.42412,-1.58409 -4.10421,-2.73615 -1.58409,-1.10406 -3.19215,-2.37612 -4.82424,-3.81622 -1.63209,-1.44009 -3.24019,-2.88011 -4.82428,-4.32021 -1.53609,-1.44005 -3.02415,-2.83211 -4.46421,-4.17621 -1.44009,-1.34406 -2.78415,-2.44812 -4.03221,-3.31218 2.25609,-2.68816 4.70421,-5.44831 7.34436,-8.28046 2.68816,-2.83216 5.8323,-5.9763 9.43252,-9.43249 1.39206,-1.34409 2.97615,-2.78411 4.75224,-4.32021 1.77609,-1.53609 3.45619,-3.07215 5.04028,-4.60824 1.58409,-1.58409 2.90415,-3.12015 3.96021,-4.60824 1.10403,-1.4881 1.6561,-2.83216 1.6561,-4.03222 0,-0.72003 -0.12004,-1.48809 -0.36004,-2.30412 -0.19203,-0.86403 -0.55203,-1.65613 -1.08006,-2.37616 -0.52803,-0.72002 -1.24806,-1.32006 -2.16012,-1.80009 -0.91203,-0.48003 -2.06409,-0.72003 -3.45618,-0.72003 -2.25613,0 -4.51221,0.67207 -6.76833,2.01613 -2.20809,1.2961 -4.32021,2.88015 -6.33634,4.75224 -1.96809,1.87209 -3.76822,3.86418 -5.40031,5.9763 -1.63209,2.06409 -3.00015,3.86422 -4.10421,5.40031 -1.15206,1.58409 -2.52012,3.33619 -4.10421,5.25627 -1.58409,1.92009 -3.24019,3.93618 -4.96828,6.04831 -1.72809,2.06408 -3.48018,4.15221 -5.25627,6.26433 -1.72809,2.11209 -3.36015,4.15225 -4.89624,6.12034 0.23981,-1.10406 0.43188,-2.13616 0.57603,-3.09619 0.14418,-1.00806 0.31196,-2.13612 0.50403,-3.38418 0.19204,-1.29606 0.43211,-2.80812 0.72003,-4.53621 0.288,-1.72809 0.67203,-3.88821 1.15206,-6.48037 0.33603,-1.82409 0.79203,-4.41621 1.36806,-7.77639 15.15168,-115.26791 6.90473,-52.86326 11.77981,-94.6994 0.19207,-1.5361 0.28804,-2.71216 0.28804,-3.52818 0,-0.62407 0.28095,-1.44972 0.1368,-2.36175 -0.14414,-0.96006 -0.19443,-1.7713 -0.77046,-2.63532 -0.57603,-0.91207 -1.44005,-1.68013 -2.59212,-2.30412 -1.10406,-0.62403 -1.5745,-0.77047 -3.54259,-0.77047 z m 110.69867,104.35511 c 0.67203,0 1.24806,0.64807 1.72809,1.94413 0.52803,1.24806 0.79203,3.31218 0.79203,6.19233 0,1.7281 -0.312,3.57619 -0.93607,5.54427 -0.57599,1.96813 -1.34405,3.96022 -2.30412,5.97634 -0.96002,2.01609 -2.01609,4.00818 -3.16815,5.9763 -1.15206,1.96809 -2.30412,3.81622 -3.45618,5.54431 -1.05606,1.58406 -2.37612,3.24015 -3.96021,4.96824 -1.5841,1.72809 -3.19215,3.33618 -4.82424,4.82428 -1.5841,1.44006 -3.07219,2.64012 -4.46425,3.60018 -1.34409,0.96006 -2.35212,1.44006 -3.02415,1.44006 -1.24806,0 -2.11212,-0.48 -2.59215,-1.44006 -0.48004,-1.00806 -0.72003,-2.32812 -0.72003,-3.96021 0,-1.5361 0.28803,-3.26419 0.86402,-5.18428 0.57607,-1.92009 1.3201,-3.91218 2.23213,-5.9763 0.91206,-2.06412 1.94412,-4.15221 3.09618,-6.26434 1.20006,-2.11212 2.42412,-4.17624 3.67218,-6.19233 1.24806,-2.01613 2.47212,-3.91222 3.67218,-5.68831 1.20006,-1.77609 2.28012,-3.36018 3.24019,-4.75224 0.52803,-0.72003 1.17606,-1.46409 1.94409,-2.23212 0.81606,-0.76803 1.68009,-1.46406 2.59215,-2.08812 0.91203,-0.67203 1.84809,-1.20007 2.80815,-1.58406 1.00803,-0.43203 1.94409,-0.64807 2.80816,-0.64807 z"
       id="path4138"
       inkscape:connector-curvature="0" />
  </g>
</svg>
