  0
SECTION
  2
HEADER
  9
$ACADVER
  1
AC1014
  9
$ACADMAINTVER
 70
     9
  9
$DWGCODEPAGE
  3
UNDEFINED
  9
$INSBASE
 10
0.0
 20
0.0
 30
0.0
  9
$EXTMIN
 10
1.000000000000000E+20
 20
1.000000000000000E+20
 30
1.000000000000000E+20
  9
$EXTMAX
 10
-1.000000000000000E+20
 20
-1.000000000000000E+20
 30
-1.000000000000000E+20
  9
$LIMMIN
 10
0.0
 20
0.0
  9
$LIMMAX
 10
12.0
 20
9.0
  9
$ORTHOMODE
 70
     0
  9
$REGENMODE
 70
     1
  9
$FILLMODE
 70
     1
  9
$QTEXTMODE
 70
     0
  9
$MIRRTEXT
 70
     1
  9
$DRAGMODE
 70
     2
  9
$LTSCALE
 40
1.0
  9
$OSMODE
 70
    37
  9
$ATTMODE
 70
     1
  9
$TEXTSIZE
 40
0.2
  9
$TRACEWID
 40
0.05
  9
$TEXTSTYLE
  7
STANDARD
  9
$CLAYER
  8
0
  9
$CELTYPE
  6
BYLAYER
  9
$CECOLOR
 62
   256
  9
$CELTSCALE
 40
1.0
  9
$DELOBJ
 70
     1
  9
$DISPSILH
 70
     0
  9
$DIMSCALE
 40
1.0
  9
$DIMASZ
 40
0.18
  9
$DIMEXO
 40
0.0625
  9
$DIMDLI
 40
0.38
  9
$DIMRND
 40
0.0
  9
$DIMDLE
 40
0.0
  9
$DIMEXE
 40
0.18
  9
$DIMTP
 40
0.0
  9
$DIMTM
 40
0.0
  9
$DIMTXT
 40
0.18
  9
$DIMCEN
 40
0.09
  9
$DIMTSZ
 40
0.0
  9
$DIMTOL
 70
     0
  9
$DIMLIM
 70
     0
  9
$DIMTIH
 70
     1
  9
$DIMTOH
 70
     1
  9
$DIMSE1
 70
     0
  9
$DIMSE2
 70
     0
  9
$DIMTAD
 70
     0
  9
$DIMZIN
 70
     0
  9
$DIMBLK
  1

  9
$DIMASO
 70
     1
  9
$DIMSHO
 70
     1
  9
$DIMPOST
  1

  9
$DIMAPOST
  1

  9
$DIMALT
 70
     0
  9
$DIMALTD
 70
     2
  9
$DIMALTF
 40
25.4
  9
$DIMLFAC
 40
1.0
  9
$DIMTOFL
 70
     0
  9
$DIMTVP
 40
0.0
  9
$DIMTIX
 70
     0
  9
$DIMSOXD
 70
     0
  9
$DIMSAH
 70
     0
  9
$DIMBLK1
  1

  9
$DIMBLK2
  1

  9
$DIMSTYLE
  2
STANDARD
  9
$DIMCLRD
 70
     0
  9
$DIMCLRE
 70
     0
  9
$DIMCLRT
 70
     0
  9
$DIMTFAC
 40
1.0
  9
$DIMGAP
 40
0.09
  9
$DIMJUST
 70
     0
  9
$DIMSD1
 70
     0
  9
$DIMSD2
 70
     0
  9
$DIMTOLJ
 70
     1
  9
$DIMTZIN
 70
     0
  9
$DIMALTZ
 70
     0
  9
$DIMALTTZ
 70
     0
  9
$DIMFIT
 70
     3
  9
$DIMUPT
 70
     0
  9
$DIMUNIT
 70
     2
  9
$DIMDEC
 70
     4
  9
$DIMTDEC
 70
     4
  9
$DIMALTU
 70
     2
  9
$DIMALTTD
 70
     2
  9
$DIMTXSTY
  7
STANDARD
  9
$DIMAUNIT
 70
     0
  9
$LUNITS
 70
     2
  9
$LUPREC
 70
     4
  9
$SKETCHINC
 40
0.1
  9
$FILLETRAD
 40
0.5
  9
$AUNITS
 70
     0
  9
$AUPREC
 70
     0
  9
$MENU
  1
.
  9
$ELEVATION
 40
0.0
  9
$PELEVATION
 40
0.0
  9
$THICKNESS
 40
0.0
  9
$LIMCHECK
 70
     0
  9
$CHAMFERA
 40
0.5
  9
$CHAMFERB
 40
0.5
  9
$CHAMFERC
 40
1.0
  9
$CHAMFERD
 40
0.0
  9
$SKPOLY
 70
     0
  9
$TDCREATE
 40
2457741.573217593
  9
$TDUPDATE
 40
2457741.573217593
  9
$TDINDWG
 40
0.0000000116
  9
$TDUSRTIMER
 40
0.0000000116
  9
$USRTIMER
 70
     1
  9
$ANGBASE
 50
0.0
  9
$ANGDIR
 70
     0
  9
$PDMODE
 70
     0
  9
$PDSIZE
 40
0.0
  9
$PLINEWID
 40
0.0
  9
$COORDS
 70
     1
  9
$SPLFRAME
 70
     0
  9
$SPLINETYPE
 70
     6
  9
$SPLINESEGS
 70
     8
  9
$ATTDIA
 70
     0
  9
$ATTREQ
 70
     1
  9
$HANDLING
 70
     1
  9
$HANDSEED
  5
77
  9
$SURFTAB1
 70
     6
  9
$SURFTAB2
 70
     6
  9
$SURFTYPE
 70
     6
  9
$SURFU
 70
     6
  9
$SURFV
 70
     6
  9
$UCSNAME
  2

  9
$UCSORG
 10
0.0
 20
0.0
 30
0.0
  9
$UCSXDIR
 10
1.0
 20
0.0
 30
0.0
  9
$UCSYDIR
 10
0.0
 20
1.0
 30
0.0
  9
$PUCSNAME
  2

  9
$PUCSORG
 10
0.0
 20
0.0
 30
0.0
  9
$PUCSXDIR
 10
1.0
 20
0.0
 30
0.0
  9
$PUCSYDIR
 10
0.0
 20
1.0
 30
0.0
  9
$USERI1
 70
     0
  9
$USERI2
 70
     0
  9
$USERI3
 70
     0
  9
$USERI4
 70
     0
  9
$USERI5
 70
     0
  9
$USERR1
 40
0.0
  9
$USERR2
 40
0.0
  9
$USERR3
 40
0.0
  9
$USERR4
 40
0.0
  9
$USERR5
 40
0.0
  9
$WORLDVIEW
 70
     1
  9
$SHADEDGE
 70
     3
  9
$SHADEDIF
 70
    70
  9
$TILEMODE
 70
     1
  9
$MAXACTVP
 70
    64
  9
$PINSBASE
 10
0.0
 20
0.0
 30
0.0
  9
$PLIMCHECK
 70
     0
  9
$PEXTMIN
 10
1.000000000000000E+20
 20
1.000000000000000E+20
 30
1.000000000000000E+20
  9
$PEXTMAX
 10
-1.000000000000000E+20
 20
-1.000000000000000E+20
 30
-1.000000000000000E+20
  9
$PLIMMIN
 10
0.0
 20
0.0
  9
$PLIMMAX
 10
12.0
 20
9.0
  9
$UNITMODE
 70
     0
  9
$VISRETAIN
 70
     1
  9
$PLINEGEN
 70
     0
  9
$PSLTSCALE
 70
     1
  9
$TREEDEPTH
 70
  3020
  9
$PICKSTYLE
 70
     1
  9
$CMLSTYLE
  2
STANDARD
  9
$CMLJUST
 70
     0
  9
$CMLSCALE
 40
1.0
  9
$PROXYGRAPHICS
 70
     1
  9
$MEASUREMENT
 70
     0
  0
ENDSEC
  0
SECTION
  2
CLASSES
  0
CLASS
  1
ACDBDICTIONARYWDFLT
  2
AcDbDictionaryWithDefault
  3
ObjectDBX Classes
 90
        0
280
     0
281
     0
  0
CLASS
  1
VISUALSTYLE
  2
AcDbVisualStyle
  3
ObjectDBX Classes
 90
     4095
280
     0
281
     0
  0
CLASS
  1
MATERIAL
  2
AcDbMaterial
  3
ObjectDBX Classes
 90
     1153
280
     0
281
     0
  0
CLASS
  1
SUN
  2
AcDbSun
  3
SCENEOE
 90
     1024
280
     0
281
     0
  0
CLASS
  1
DICTIONARYVAR
  2
AcDbDictionaryVar
  3
ObjectDBX Classes
 90
        0
280
     0
281
     0
  0
CLASS
  1
XRECORD
  2
AcDbXrecord
  3
AutoCAD 2000
 90
        0
280
     0
281
     0
  0
CLASS
  1
LWPOLYLINE
  2
AcDbPolyline
  3
AutoCAD 2000
 90
        0
280
     0
281
     1
  0
CLASS
  1
HATCH
  2
AcDbHatch
  3
AutoCAD 2000
 90
        0
280
     0
281
     1
  0
CLASS
  1
ACDBPLACEHOLDER
  2
AcDbPlaceHolder
  3
ObjectDBX Classes
 90
        0
280
     0
281
     0
  0
CLASS
  1
LAYOUT
  2
AcDbLayout
  3
ObjectDBX Classes
 90
        0
280
     0
281
     0
  0
ENDSEC
  0
SECTION
  2
TABLES
  0
TABLE
  2
VPORT
  5
8
330
0
100
AcDbSymbolTable
 70
     1
  0
VPORT
  5
29
330
8
100
AcDbSymbolTableRecord
100
AcDbViewportTableRecord
  2
*ACTIVE
 70
     0
 10
0.0
 20
0.0
 11
1.0
 21
1.0
 12
0.0
 22
0.0
 13
0.0
 23
0.0
 14
0.5
 24
0.5
 15
0.5
 25
0.5
 16
0.0
 26
0.0
 36
1.0
 17
149.9993471847223
 27
-75.00055553680555
 37
0.0
 40
150.0011110736111
 41
1.999976481655687
 42
50.0
 43
0.0
 44
0.0
 50
0.0
 51
0.0
 71
     0
 72
   100
 73
     1
 74
     3
 75
     0
 76
     0
 77
     0
 78
     0
  0
ENDTAB
  0
TABLE
  2
LTYPE
  5
5
330
0
100
AcDbSymbolTable
 70
     1
  0
LTYPE
  5
14
330
5
100
AcDbSymbolTableRecord
100
AcDbLinetypeTableRecord
  2
BYBLOCK
 70
     0
  3

 72
    65
 73
     0
 40
0.0
  0
LTYPE
  5
15
330
5
100
AcDbSymbolTableRecord
100
AcDbLinetypeTableRecord
  2
BYLAYER
 70
     0
  3

 72
    65
 73
     0
 40
0.0
  0
LTYPE
  5
16
330
5
100
AcDbSymbolTableRecord
100
AcDbLinetypeTableRecord
  2
CONTINUOUS
 70
     0
  3
Solid line
 72
    65
 73
     0
 40
0.0
  0
ENDTAB
  0
TABLE
  2
LAYER
  5
2
330
0
100
AcDbSymbolTable
 70
     2
  0
LAYER
  5
10
330
2
100
AcDbSymbolTableRecord
100
AcDbLayerTableRecord
  2
0
 70
     0
 62
     7
  6
CONTINUOUS
  0
LAYER
  5
40
330
2
100
AcDbSymbolTableRecord
100
AcDbLayerTableRecord
  2
LAYER_1
 70
     0
 62
     7
  6
CONTINUOUS
  0
ENDTAB
  0
TABLE
  2
STYLE
  5
3
330
0
100
AcDbSymbolTable
 70
     1
  0
STYLE
  5
11
330
3
100
AcDbSymbolTableRecord
100
AcDbTextStyleTableRecord
  2
STANDARD
 70
     0
 40
0.0
 41
1.0
 50
0.0
 71
     0
 42
0.2
  3
txt
  4

  0
ENDTAB
  0
TABLE
  2
VIEW
  5
6
330
0
100
AcDbSymbolTable
 70
     0
  0
ENDTAB
  0
TABLE
  2
UCS
  5
7
330
0
100
AcDbSymbolTable
 70
     0
  0
ENDTAB
  0
TABLE
  2
APPID
  5
9
330
0
100
AcDbSymbolTable
 70
     1
  0
APPID
  5
12
330
9
100
AcDbSymbolTableRecord
100
AcDbRegAppTableRecord
  2
ACAD
 70
     0
  0
ENDTAB
  0
TABLE
  2
DIMSTYLE
  5
A
330
0
100
AcDbSymbolTable
 70
     1
  0
DIMSTYLE
105
27
330
A
100
AcDbSymbolTableRecord
100
AcDbDimStyleTableRecord
  2
STANDARD
 70
     0
  3

  4

  5

  6

  7

 40
1.0
 41
0.18
 42
0.0625
 43
0.38
 44
0.18
 45
0.0
 46
0.0
 47
0.0
 48
0.0
140
0.18
141
0.09
142
0.0
143
25.4
144
1.0
145
0.0
146
1.0
147
0.09
 71
     0
 72
     0
 73
     1
 74
     1
 75
     0
 76
     0
 77
     0
 78
     0
170
     0
171
     2
172
     0
173
     0
174
     0
175
     0
176
     0
177
     0
178
     0
270
     2
271
     4
272
     4
273
     2
274
     2
340
11
275
     0
280
     0
281
     0
282
     0
283
     1
284
     0
285
     0
286
     0
287
     3
288
     0
  0
ENDTAB
  0
TABLE
  2
BLOCK_RECORD
  5
1
330
0
100
AcDbSymbolTable
 70
     1
  0
BLOCK_RECORD
  5
1F
330
1
100
AcDbSymbolTableRecord
100
AcDbBlockTableRecord
  2
*MODEL_SPACE
  0
BLOCK_RECORD
  5
1B
330
1
100
AcDbSymbolTableRecord
100
AcDbBlockTableRecord
  2
*PAPER_SPACE
  0
ENDTAB
  0
ENDSEC
  0
SECTION
  2
BLOCKS
  0
BLOCK
  5
20
330
1F
100
AcDbEntity
  8
0
100
AcDbBlockBegin
  2
*MODEL_SPACE
 70
     0
 10
0.0
 20
0.0
 30
0.0
  3
*MODEL_SPACE
  1

  0
ENDBLK
  5
21
330
1F
100
AcDbEntity
  8
0
100
AcDbBlockEnd
  0
BLOCK
  5
1C
330
1B
100
AcDbEntity
 67
     1
  8
0
100
AcDbBlockBegin
  2
*PAPER_SPACE
 70
     0
 10
0.0
 20
0.0
 30
0.0
  3
*PAPER_SPACE
  1

  0
ENDBLK
  5
1D
330
1B
100
AcDbEntity
 67
     1
  8
0
100
AcDbBlockEnd
  0
ENDSEC
  0
SECTION
  2
ENTITIES
  0
SPLINE
  5
41
330
1F
100
AcDbEntity
  8
LAYER_1
 62
   250
100
AcDbSpline
210
0.0
220
0.0
230
1.0
 70
    11
 71
     3
 72
    47
 73
    43
 74
     0
 42
0.0000000001
 43
0.0000000001
 12
1.0
 22
0.0
 32
0.0
 13
1.0
 23
0.0
 33
0.0
 40
0.0
 40
0.0
 40
0.0
 40
0.0
 40
1.0
 40
1.0
 40
1.0
 40
2.0
 40
2.0
 40
2.0
 40
3.0
 40
3.0
 40
3.0
 40
4.0
 40
4.0
 40
4.0
 40
5.0
 40
5.0
 40
5.0
 40
6.0
 40
6.0
 40
6.0
 40
7.0
 40
7.0
 40
7.0
 40
8.0
 40
8.0
 40
8.0
 40
9.0
 40
9.0
 40
9.0
 40
10.0
 40
10.0
 40
10.0
 40
11.0
 40
11.0
 40
11.0
 40
12.0
 40
12.0
 40
12.0
 40
13.0
 40
13.0
 40
13.0
 40
14.0
 40
14.0
 40
14.0
 40
14.0
 10
176.8470768301538
 20
-36.02055846443579
 30
0.0
 10
176.8470768301538
 20
-36.02055846443579
 30
0.0
 10
123.4828061457952
 20
-36.02055846443579
 30
0.0
 10
123.4828061457952
 20
-36.02055846443579
 30
0.0
 10
121.3396337762681
 20
-36.02055846443579
 30
0.0
 10
119.6022505912098
 20
-37.75794164949406
 30
0.0
 10
119.6022505912098
 20
-39.9011140190212
 30
0.0
 10
119.6022505912098
 20
-39.9011140190212
 30
0.0
 10
119.6022505912098
 20
-51.01120244940341
 30
0.0
 10
119.6022505912098
 20
-51.01120244940341
 30
0.0
 10
119.6022505912098
 20
-51.01120244940341
 30
0.0
 10
112.7082700156763
 20
-51.01120244940341
 30
0.0
 10
112.7082700156763
 20
-51.01120244940341
 30
0.0
 10
111.9289248213725
 20
-51.01120244940341
 30
0.0
 10
111.297158904918
 20
-51.57449709308853
 30
0.0
 10
111.297158904918
 20
-52.26935132061632
 30
0.0
 10
111.297158904918
 20
-52.26935132061632
 30
0.0
 10
111.297158904918
 20
-74.02635662523599
 30
0.0
 10
111.297158904918
 20
-74.02635662523599
 30
0.0
 10
111.297158904918
 20
-74.72123238461089
 30
0.0
 10
111.9289248213725
 20
-75.28452702829601
 30
0.0
 10
112.7082700156763
 20
-75.28452702829601
 30
0.0
 10
112.7082700156763
 20
-75.28452702829601
 30
0.0
 10
119.6022505912098
 20
-75.28452702829601
 30
0.0
 10
119.6022505912098
 20
-75.28452702829601
 30
0.0
 10
119.6022505912098
 20
-75.28452702829601
 30
0.0
 10
119.6022505912098
 20
-123.2384259759969
 30
0.0
 10
119.6022505912098
 20
-123.2384259759969
 30
0.0
 10
119.6022505912098
 20
-125.381598345524
 30
0.0
 10
121.3396337762681
 20
-127.1189815305823
 30
0.0
 10
123.4828061457952
 20
-127.1189815305823
 30
0.0
 10
123.4828061457952
 20
-127.1189815305823
 30
0.0
 10
176.8470768301538
 20
-127.1189815305823
 30
0.0
 10
176.8470768301538
 20
-127.1189815305823
 30
0.0
 10
178.9902491996809
 20
-127.1189815305823
 30
0.0
 10
180.7276323847392
 20
-125.381598345524
 30
0.0
 10
180.7276323847392
 20
-123.2384259759969
 30
0.0
 10
180.7276323847392
 20
-123.2384259759969
 30
0.0
 10
180.7276323847392
 20
-39.9011140190212
 30
0.0
 10
180.7276323847392
 20
-39.9011140190212
 30
0.0
 10
180.7276323847392
 20
-37.75794164949406
 30
0.0
 10
178.9902491996809
 20
-36.02055846443579
 30
0.0
 10
176.8470768301538
 20
-36.02055846443579
 30
0.0
  0
SPLINE
  5
42
330
1F
100
AcDbEntity
  8
LAYER_1
 62
   250
100
AcDbSpline
210
0.0
220
0.0
230
1.0
 70
    11
 71
     3
 72
   101
 73
    97
 74
     0
 42
0.0000000001
 43
0.0000000001
 12
1.0
 22
0.0
 32
0.0
 13
1.0
 23
0.0
 33
0.0
 40
0.0
 40
0.0
 40
0.0
 40
0.0
 40
1.0
 40
1.0
 40
1.0
 40
2.0
 40
2.0
 40
2.0
 40
3.0
 40
3.0
 40
3.0
 40
4.0
 40
4.0
 40
4.0
 40
5.0
 40
5.0
 40
5.0
 40
6.0
 40
6.0
 40
6.0
 40
7.0
 40
7.0
 40
7.0
 40
8.0
 40
8.0
 40
8.0
 40
9.0
 40
9.0
 40
9.0
 40
10.0
 40
10.0
 40
10.0
 40
11.0
 40
11.0
 40
11.0
 40
12.0
 40
12.0
 40
12.0
 40
13.0
 40
13.0
 40
13.0
 40
14.0
 40
14.0
 40
14.0
 40
15.0
 40
15.0
 40
15.0
 40
16.0
 40
16.0
 40
16.0
 40
17.0
 40
17.0
 40
17.0
 40
18.0
 40
18.0
 40
18.0
 40
19.0
 40
19.0
 40
19.0
 40
20.0
 40
20.0
 40
20.0
 40
21.0
 40
21.0
 40
21.0
 40
22.0
 40
22.0
 40
22.0
 40
23.0
 40
23.0
 40
23.0
 40
24.0
 40
24.0
 40
24.0
 40
25.0
 40
25.0
 40
25.0
 40
26.0
 40
26.0
 40
26.0
 40
27.0
 40
27.0
 40
27.0
 40
28.0
 40
28.0
 40
28.0
 40
29.0
 40
29.0
 40
29.0
 40
30.0
 40
30.0
 40
30.0
 40
31.0
 40
31.0
 40
31.0
 40
32.0
 40
32.0
 40
32.0
 40
32.0
 10
195.6764927692775
 20
-135.5845965576295
 30
0.0
 10
195.0731488905763
 20
-135.5845965576295
 30
0.0
 10
194.584031459058
 20
-135.0954791261111
 30
0.0
 10
194.584031459058
 20
-134.4921137155632
 30
0.0
 10
194.584031459058
 20
-134.4921137155632
 30
0.0
 10
194.584031459058
 20
-131.6698914940465
 30
0.0
 10
194.584031459058
 20
-131.6698914940465
 30
0.0
 10
194.584031459058
 20
-131.0665476153453
 30
0.0
 10
195.0731488905763
 20
-130.577430183827
 30
0.0
 10
195.6764927692775
 20
-130.577430183827
 30
0.0
 10
195.6764927692775
 20
-130.577430183827
 30
0.0
 10
197.2165796422649
 20
-130.577430183827
 30
0.0
 10
197.2165796422649
 20
-130.577430183827
 30
0.0
 10
197.2165796422649
 20
-130.577430183827
 30
0.0
 10
197.2165796422649
 20
-32.56209512532302
 30
0.0
 10
197.2165796422649
 20
-32.56209512532302
 30
0.0
 10
197.2165796422649
 20
-32.56209512532302
 30
0.0
 10
195.7290735391211
 20
-32.56209512532302
 30
0.0
 10
195.7290735391211
 20
-32.56209512532302
 30
0.0
 10
195.1257081285732
 20
-32.56209512532302
 30
0.0
 10
194.6366122289016
 20
-32.07297769380467
 30
0.0
 10
194.6366122289016
 20
-31.46963381510351
 30
0.0
 10
194.6366122289016
 20
-31.46963381510351
 30
0.0
 10
194.6366122289016
 20
-28.64741159358685
 30
0.0
 10
194.6366122289016
 20
-28.64741159358685
 30
0.0
 10
194.6366122289016
 20
-28.0440461830389
 30
0.0
 10
195.1257081285732
 20
-27.55492875152056
 30
0.0
 10
195.7290735391211
 20
-27.55492875152056
 30
0.0
 10
195.7290735391211
 20
-27.55492875152056
 30
0.0
 10
197.2165796422649
 20
-27.55492875152056
 30
0.0
 10
197.2165796422649
 20
-27.55492875152056
 30
0.0
 10
197.2165796422649
 20
-27.55492875152056
 30
0.0
 10
197.2165796422649
 20
-24.53323550140793
 30
0.0
 10
197.2165796422649
 20
-24.53323550140793
 30
0.0
 10
197.2165796422649
 20
-21.22105610634838
 30
0.0
 10
194.5315152847547
 20
-18.53601328068501
 30
0.0
 10
191.219357421542
 20
-18.53601328068501
 30
0.0
 10
191.219357421542
 20
-18.53601328068501
 30
0.0
 10
108.2137866279487
 20
-18.53601328068501
 30
0.0
 10
108.2137866279487
 20
-18.53601328068501
 30
0.0
 10
104.9016072328892
 20
-18.53601328068501
 30
0.0
 10
102.2165644072258
 20
-21.22105610634838
 30
0.0
 10
102.2165644072258
 20
-24.53323550140793
 30
0.0
 10
102.2165644072258
 20
-24.53323550140793
 30
0.0
 10
102.2165644072258
 20
-27.55492875152056
 30
0.0
 10
102.2165644072258
 20
-27.55492875152056
 30
0.0
 10
102.2165644072258
 20
-27.55492875152056
 30
0.0
 10
104.0466852563777
 20
-27.55492875152056
 30
0.0
 10
104.0466852563777
 20
-27.55492875152056
 30
0.0
 10
104.6500506669256
 20
-27.55492875152056
 30
0.0
 10
105.1391680984439
 20
-28.0440461830389
 30
0.0
 10
105.1391680984439
 20
-28.64741159358685
 30
0.0
 10
105.1391680984439
 20
-28.64741159358685
 30
0.0
 10
105.1391680984439
 20
-31.46963381510351
 30
0.0
 10
105.1391680984439
 20
-31.46963381510351
 30
0.0
 10
105.1391680984439
 20
-32.07297769380467
 30
0.0
 10
104.6500506669256
 20
-32.56209512532302
 30
0.0
 10
104.0466852563777
 20
-32.56209512532302
 30
0.0
 10
104.0466852563777
 20
-32.56209512532302
 30
0.0
 10
102.2165644072258
 20
-32.56209512532302
 30
0.0
 10
102.2165644072258
 20
-32.56209512532302
 30
0.0
 10
102.2165644072258
 20
-32.56209512532302
 30
0.0
 10
102.2165644072258
 20
-130.577430183827
 30
0.0
 10
102.2165644072258
 20
-130.577430183827
 30
0.0
 10
102.2165644072258
 20
-130.577430183827
 30
0.0
 10
103.994104486534
 20
-130.577430183827
 30
0.0
 10
103.994104486534
 20
-130.577430183827
 30
0.0
 10
104.597469897082
 20
-130.577430183827
 30
0.0
 10
105.0865873286003
 20
-131.0665476153453
 30
0.0
 10
105.0865873286003
 20
-131.6698914940465
 30
0.0
 10
105.0865873286003
 20
-131.6698914940465
 30
0.0
 10
105.0865873286003
 20
-134.4921137155632
 30
0.0
 10
105.0865873286003
 20
-134.4921137155632
 30
0.0
 10
105.0865873286003
 20
-135.0954791261111
 30
0.0
 10
104.597469897082
 20
-135.5845965576295
 30
0.0
 10
103.994104486534
 20
-135.5845965576295
 30
0.0
 10
103.994104486534
 20
-135.5845965576295
 30
0.0
 10
102.2165644072258
 20
-135.5845965576295
 30
0.0
 10
102.2165644072258
 20
-135.5845965576295
 30
0.0
 10
102.2165644072258
 20
-135.5845965576295
 30
0.0
 10
102.2165644072258
 20
-138.6062898077421
 30
0.0
 10
102.2165644072258
 20
-138.6062898077421
 30
0.0
 10
102.2165644072258
 20
-141.9184692028016
 30
0.0
 10
104.9016072328892
 20
-144.603512028465
 30
0.0
 10
108.2137866279487
 20
-144.603512028465
 30
0.0
 10
108.2137866279487
 20
-144.603512028465
 30
0.0
 10
191.219357421542
 20
-144.603512028465
 30
0.0
 10
191.219357421542
 20
-144.603512028465
 30
0.0
 10
194.5315152847547
 20
-144.603512028465
 30
0.0
 10
197.2165796422649
 20
-141.9184692028016
 30
0.0
 10
197.2165796422649
 20
-138.6062898077421
 30
0.0
 10
197.2165796422649
 20
-138.6062898077421
 30
0.0
 10
197.2165796422649
 20
-135.5845965576295
 30
0.0
 10
197.2165796422649
 20
-135.5845965576295
 30
0.0
 10
197.2165796422649
 20
-135.5845965576295
 30
0.0
 10
195.6764927692775
 20
-135.5845965576295
 30
0.0
 10
195.6764927692775
 20
-135.5845965576295
 30
0.0
  0
SPLINE
  5
43
330
1F
100
AcDbEntity
  8
LAYER_1
 62
   250
100
AcDbSpline
210
0.0
220
0.0
230
1.0
 70
    11
 71
     3
 72
   101
 73
    97
 74
     0
 42
0.0000000001
 43
0.0000000001
 12
1.0
 22
0.0
 32
0.0
 13
1.0
 23
0.0
 33
0.0
 40
0.0
 40
0.0
 40
0.0
 40
0.0
 40
1.0
 40
1.0
 40
1.0
 40
2.0
 40
2.0
 40
2.0
 40
3.0
 40
3.0
 40
3.0
 40
4.0
 40
4.0
 40
4.0
 40
5.0
 40
5.0
 40
5.0
 40
6.0
 40
6.0
 40
6.0
 40
7.0
 40
7.0
 40
7.0
 40
8.0
 40
8.0
 40
8.0
 40
9.0
 40
9.0
 40
9.0
 40
10.0
 40
10.0
 40
10.0
 40
11.0
 40
11.0
 40
11.0
 40
12.0
 40
12.0
 40
12.0
 40
13.0
 40
13.0
 40
13.0
 40
14.0
 40
14.0
 40
14.0
 40
15.0
 40
15.0
 40
15.0
 40
16.0
 40
16.0
 40
16.0
 40
17.0
 40
17.0
 40
17.0
 40
18.0
 40
18.0
 40
18.0
 40
19.0
 40
19.0
 40
19.0
 40
20.0
 40
20.0
 40
20.0
 40
21.0
 40
21.0
 40
21.0
 40
22.0
 40
22.0
 40
22.0
 40
23.0
 40
23.0
 40
23.0
 40
24.0
 40
24.0
 40
24.0
 40
25.0
 40
25.0
 40
25.0
 40
26.0
 40
26.0
 40
26.0
 40
27.0
 40
27.0
 40
27.0
 40
28.0
 40
28.0
 40
28.0
 40
29.0
 40
29.0
 40
29.0
 40
30.0
 40
30.0
 40
30.0
 40
31.0
 40
31.0
 40
31.0
 40
32.0
 40
32.0
 40
32.0
 40
32.0
 10
293.3882969494139
 20
-135.5896459694585
 30
0.0
 10
292.7849530707127
 20
-135.5896459694585
 30
0.0
 10
292.2958356391944
 20
-135.1005285379401
 30
0.0
 10
292.2958356391944
 20
-134.4971631273922
 30
0.0
 10
292.2958356391944
 20
-134.4971631273922
 30
0.0
 10
292.2958356391944
 20
-131.6749409058755
 30
0.0
 10
292.2958356391944
 20
-131.6749409058755
 30
0.0
 10
292.2958356391944
 20
-131.0715970271744
 30
0.0
 10
292.7849530707127
 20
-130.582479595656
 30
0.0
 10
293.3882969494139
 20
-130.582479595656
 30
0.0
 10
293.3882969494139
 20
-130.582479595656
 30
0.0
 10
294.9283838224013
 20
-130.582479595656
 30
0.0
 10
294.9283838224013
 20
-130.582479595656
 30
0.0
 10
294.9283838224013
 20
-130.582479595656
 30
0.0
 10
294.9283838224013
 20
-32.56714453715205
 30
0.0
 10
294.9283838224013
 20
-32.56714453715205
 30
0.0
 10
294.9283838224013
 20
-32.56714453715205
 30
0.0
 10
293.4408777192575
 20
-32.56714453715205
 30
0.0
 10
293.4408777192575
 20
-32.56714453715205
 30
0.0
 10
292.8375123087096
 20
-32.56714453715205
 30
0.0
 10
292.348416409038
 20
-32.0780271056337
 30
0.0
 10
292.348416409038
 20
-31.47468322693254
 30
0.0
 10
292.348416409038
 20
-31.47468322693254
 30
0.0
 10
292.348416409038
 20
-28.65246100541587
 30
0.0
 10
292.348416409038
 20
-28.65246100541587
 30
0.0
 10
292.348416409038
 20
-28.04909559486793
 30
0.0
 10
292.8375123087096
 20
-27.55997816334958
 30
0.0
 10
293.4408777192575
 20
-27.55997816334958
 30
0.0
 10
293.4408777192575
 20
-27.55997816334958
 30
0.0
 10
294.9283838224013
 20
-27.55997816334958
 30
0.0
 10
294.9283838224013
 20
-27.55997816334958
 30
0.0
 10
294.9283838224013
 20
-27.55997816334958
 30
0.0
 10
294.9283838224013
 20
-24.53828491323695
 30
0.0
 10
294.9283838224013
 20
-24.53828491323695
 30
0.0
 10
294.9283838224013
 20
-21.22610551817741
 30
0.0
 10
292.2433194648911
 20
-18.54106269251404
 30
0.0
 10
288.9311616016784
 20
-18.54106269251404
 30
0.0
 10
288.9311616016784
 20
-18.54106269251404
 30
0.0
 10
205.9255908080851
 20
-18.54106269251404
 30
0.0
 10
205.9255908080851
 20
-18.54106269251404
 30
0.0
 10
202.6134114130256
 20
-18.54106269251404
 30
0.0
 10
199.9283685873622
 20
-21.22610551817741
 30
0.0
 10
199.9283685873622
 20
-24.53828491323695
 30
0.0
 10
199.9283685873622
 20
-24.53828491323695
 30
0.0
 10
199.9283685873622
 20
-27.55997816334958
 30
0.0
 10
199.9283685873622
 20
-27.55997816334958
 30
0.0
 10
199.9283685873622
 20
-27.55997816334958
 30
0.0
 10
201.7584894365141
 20
-27.55997816334958
 30
0.0
 10
201.7584894365141
 20
-27.55997816334958
 30
0.0
 10
202.361854847062
 20
-27.55997816334958
 30
0.0
 10
202.8509722785803
 20
-28.04909559486793
 30
0.0
 10
202.8509722785803
 20
-28.65246100541587
 30
0.0
 10
202.8509722785803
 20
-28.65246100541587
 30
0.0
 10
202.8509722785803
 20
-31.47468322693254
 30
0.0
 10
202.8509722785803
 20
-31.47468322693254
 30
0.0
 10
202.8509722785803
 20
-32.0780271056337
 30
0.0
 10
202.361854847062
 20
-32.56714453715205
 30
0.0
 10
201.7584894365141
 20
-32.56714453715205
 30
0.0
 10
201.7584894365141
 20
-32.56714453715205
 30
0.0
 10
199.9283685873622
 20
-32.56714453715205
 30
0.0
 10
199.9283685873622
 20
-32.56714453715205
 30
0.0
 10
199.9283685873622
 20
-32.56714453715205
 30
0.0
 10
199.9283685873622
 20
-130.582479595656
 30
0.0
 10
199.9283685873622
 20
-130.582479595656
 30
0.0
 10
199.9283685873622
 20
-130.582479595656
 30
0.0
 10
201.7059086666704
 20
-130.582479595656
 30
0.0
 10
201.7059086666704
 20
-130.582479595656
 30
0.0
 10
202.3092740772184
 20
-130.582479595656
 30
0.0
 10
202.7983915087367
 20
-131.0715970271744
 30
0.0
 10
202.7983915087367
 20
-131.6749409058755
 30
0.0
 10
202.7983915087367
 20
-131.6749409058755
 30
0.0
 10
202.7983915087367
 20
-134.4971631273922
 30
0.0
 10
202.7983915087367
 20
-134.4971631273922
 30
0.0
 10
202.7983915087367
 20
-135.1005285379401
 30
0.0
 10
202.3092740772184
 20
-135.5896459694585
 30
0.0
 10
201.7059086666704
 20
-135.5896459694585
 30
0.0
 10
201.7059086666704
 20
-135.5896459694585
 30
0.0
 10
199.9283685873622
 20
-135.5896459694585
 30
0.0
 10
199.9283685873622
 20
-135.5896459694585
 30
0.0
 10
199.9283685873622
 20
-135.5896459694585
 30
0.0
 10
199.9283685873622
 20
-138.6113392195711
 30
0.0
 10
199.9283685873622
 20
-138.6113392195711
 30
0.0
 10
199.9283685873622
 20
-141.9235186146307
 30
0.0
 10
202.6134114130256
 20
-144.608561440294
 30
0.0
 10
205.9255908080851
 20
-144.608561440294
 30
0.0
 10
205.9255908080851
 20
-144.608561440294
 30
0.0
 10
288.9311616016784
 20
-144.608561440294
 30
0.0
 10
288.9311616016784
 20
-144.608561440294
 30
0.0
 10
292.2433194648911
 20
-144.608561440294
 30
0.0
 10
294.9283838224013
 20
-141.9235186146307
 30
0.0
 10
294.9283838224013
 20
-138.6113392195711
 30
0.0
 10
294.9283838224013
 20
-138.6113392195711
 30
0.0
 10
294.9283838224013
 20
-135.5896459694585
 30
0.0
 10
294.9283838224013
 20
-135.5896459694585
 30
0.0
 10
294.9283838224013
 20
-135.5896459694585
 30
0.0
 10
293.3882969494139
 20
-135.5896459694585
 30
0.0
 10
293.3882969494139
 20
-135.5896459694585
 30
0.0
  0
SPLINE
  5
44
330
1F
100
AcDbEntity
  8
LAYER_1
 62
     1
100
AcDbSpline
210
0.0
220
0.0
230
1.0
 70
    11
 71
     3
 72
    17
 73
    13
 74
     0
 42
0.0000000001
 43
0.0000000001
 12
1.0
 22
0.0
 32
0.0
 13
1.0
 23
0.0
 33
0.0
 40
0.0
 40
0.0
 40
0.0
 40
0.0
 40
1.0
 40
1.0
 40
1.0
 40
2.0
 40
2.0
 40
2.0
 40
3.0
 40
3.0
 40
3.0
 40
4.0
 40
4.0
 40
4.0
 40
4.0
 10
270.5968682482957
 20
-81.56842855600073
 30
0.0
 10
270.5766661751787
 20
-94.3833178250477
 30
0.0
 10
260.2551838903022
 20
-104.6943609567753
 30
0.0
 10
247.5163755719991
 20
-104.7400302860074
 30
0.0
 10
234.6252150633366
 20
-104.7862406017843
 30
0.0
 10
224.2983547588796
 20
-94.37321207058312
 30
0.0
 10
224.2599820642992
 20
-81.6454467973859
 30
0.0
 10
224.2215586522312
 20
-68.90090936866906
 30
0.0
 10
234.5059542650475
 20
-58.41148457334665
 30
0.0
 10
247.4265938224858
 20
-58.40944093376849
 30
0.0
 10
260.2358153138964
 20
-58.40741498633786
 30
0.0
 10
270.5708631509063
 20
-68.75661378897317
 30
0.0
 10
270.5968682482957
 20
-81.56842855600073
 30
0.0
  0
SPLINE
  5
45
330
1F
100
AcDbEntity
  8
LAYER_1
 62
     1
100
AcDbSpline
210
0.0
220
0.0
230
1.0
 70
    11
 71
     3
 72
    17
 73
    13
 74
     0
 42
0.0000000001
 43
0.0000000001
 12
1.0
 22
0.0
 32
0.0
 13
1.0
 23
0.0
 33
0.0
 40
0.0
 40
0.0
 40
0.0
 40
0.0
 40
1.0
 40
1.0
 40
1.0
 40
2.0
 40
2.0
 40
2.0
 40
3.0
 40
3.0
 40
3.0
 40
4.0
 40
4.0
 40
4.0
 40
4.0
 10
268.0963152093033
 20
-81.58072656407901
 30
0.0
 10
268.1076822172813
 20
-70.18511864012314
 30
0.0
 10
258.8577716117509
 20
-60.90677242934081
 30
0.0
 10
247.4322773264749
 20
-60.90316794922376
 30
0.0
 10
236.0565207779635
 20
-60.89957998177739
 30
0.0
 10
226.8128959957435
 20
-70.09829973552306
 30
0.0
 10
226.7550332386808
 20
-81.46566312941678
 30
0.0
 10
226.6966853236264
 20
-92.92828733422286
 30
0.0
 10
235.9630684976503
 20
-102.202451121414
 30
0.0
 10
247.34300196553
 20
-102.2463748254585
 30
0.0
 10
258.7924003074287
 20
-102.2905721680461
 30
0.0
 10
268.1009450476387
 20
-93.01068398834802
 30
0.0
 10
268.0963152093033
 20
-81.58072656407901
 30
0.0
  0
SPLINE
  5
46
330
1F
100
AcDbEntity
  8
LAYER_1
 62
     1
100
AcDbSpline
210
0.0
220
0.0
230
1.0
 70
    11
 71
     3
 72
   143
 73
   139
 74
     0
 42
0.0000000001
 43
0.0000000001
 12
1.0
 22
0.0
 32
0.0
 13
1.0
 23
0.0
 33
0.0
 40
0.0
 40
0.0
 40
0.0
 40
0.0
 40
1.0
 40
1.0
 40
1.0
 40
2.0
 40
2.0
 40
2.0
 40
3.0
 40
3.0
 40
3.0
 40
4.0
 40
4.0
 40
4.0
 40
5.0
 40
5.0
 40
5.0
 40
6.0
 40
6.0
 40
6.0
 40
7.0
 40
7.0
 40
7.0
 40
8.0
 40
8.0
 40
8.0
 40
9.0
 40
9.0
 40
9.0
 40
10.0
 40
10.0
 40
10.0
 40
11.0
 40
11.0
 40
11.0
 40
12.0
 40
12.0
 40
12.0
 40
13.0
 40
13.0
 40
13.0
 40
14.0
 40
14.0
 40
14.0
 40
15.0
 40
15.0
 40
15.0
 40
16.0
 40
16.0
 40
16.0
 40
17.0
 40
17.0
 40
17.0
 40
18.0
 40
18.0
 40
18.0
 40
19.0
 40
19.0
 40
19.0
 40
20.0
 40
20.0
 40
20.0
 40
21.0
 40
21.0
 40
21.0
 40
22.0
 40
22.0
 40
22.0
 40
23.0
 40
23.0
 40
23.0
 40
24.0
 40
24.0
 40
24.0
 40
25.0
 40
25.0
 40
25.0
 40
26.0
 40
26.0
 40
26.0
 40
27.0
 40
27.0
 40
27.0
 40
28.0
 40
28.0
 40
28.0
 40
29.0
 40
29.0
 40
29.0
 40
30.0
 40
30.0
 40
30.0
 40
31.0
 40
31.0
 40
31.0
 40
32.0
 40
32.0
 40
32.0
 40
33.0
 40
33.0
 40
33.0
 40
34.0
 40
34.0
 40
34.0
 40
35.0
 40
35.0
 40
35.0
 40
36.0
 40
36.0
 40
36.0
 40
37.0
 40
37.0
 40
37.0
 40
38.0
 40
38.0
 40
38.0
 40
39.0
 40
39.0
 40
39.0
 40
40.0
 40
40.0
 40
40.0
 40
41.0
 40
41.0
 40
41.0
 40
42.0
 40
42.0
 40
42.0
 40
43.0
 40
43.0
 40
43.0
 40
44.0
 40
44.0
 40
44.0
 40
45.0
 40
45.0
 40
45.0
 40
46.0
 40
46.0
 40
46.0
 40
46.0
 10
251.9307408538228
 20
-73.34057957569708
 30
0.0
 10
251.9961436108509
 20
-73.27428356181554
 30
0.0
 10
252.0181227618619
 20
-73.18898067764837
 30
0.0
 10
252.0522017689023
 20
-73.11124374192947
 30
0.0
 10
252.4691356954651
 20
-72.16012649106895
 30
0.0
 10
252.884301979946
 20
-71.20823550363843
 30
0.0
 10
253.2998771496055
 20
-70.25652379663309
 30
0.0
 10
253.3891776727158
 20
-70.05202459222393
 30
0.0
 10
253.477739057233
 20
-69.84719985230706
 30
0.0
 10
253.5678479148896
 20
-69.64305763611203
 30
0.0
 10
253.5990238371591
 20
-69.57243372987362
 30
0.0
 10
253.6301651614517
 20
-69.50137263102131
 30
0.0
 10
253.6676410607494
 20
-69.43402609675668
 30
0.0
 10
253.9040741976443
 20
-69.00912205447247
 30
0.0
 10
254.3868700907439
 20
-68.74016052894706
 30
0.0
 10
254.9276333211546
 20
-68.81225956710041
 30
0.0
 10
255.410488974396
 20
-68.87663696591079
 30
0.0
 10
255.8237869681353
 20
-69.22857859325906
 30
0.0
 10
255.9548472491122
 20
-69.70627757533858
 30
0.0
 10
256.0221906381057
 20
-69.951737638879
 30
0.0
 10
256.0195423202537
 20
-70.19912103539666
 30
0.0
 10
255.9345099293586
 20
-70.4416418435537
 30
0.0
 10
255.9061584600957
 20
-70.52248945190455
 30
0.0
 10
255.8721266321143
 20
-70.60149078640741
 30
0.0
 10
255.8377960034249
 20
-70.68007222728454
 30
0.0
 10
255.0475373272832
 20
-72.48899755850574
 30
0.0
 10
254.256841458527
 20
-74.2977310282197
 30
0.0
 10
253.4664097925025
 20
-76.10657930031037
 30
0.0
 10
253.4286256566846
 20
-76.19304121669697
 30
0.0
 10
253.3925682744314
 20
-76.28025170748751
 30
0.0
 10
253.3574733449848
 20
-76.36294401705014
 30
0.0
 10
253.3570487334523
 20
-76.4496229571081
 30
0.0
 10
253.4029571032507
 20
-76.5142488322963
 30
0.0
 10
253.4357276777187
 20
-76.58323719781833
 30
0.0
 10
253.855618158653
 20
-77.46705509347389
 30
0.0
 10
254.2754866226931
 20
-78.35088085230605
 30
0.0
 10
254.6962263266917
 20
-79.23429143541728
 30
0.0
 10
256.3902564952274
 20
-82.79118360820014
 30
0.0
 10
258.0846106266359
 20
-86.34791851745273
 30
0.0
 10
259.7785873255716
 20
-89.90483899767088
 30
0.0
 10
259.8154719139949
 20
-89.98228814112893
 30
0.0
 10
259.8545613371147
 20
-90.05930638251411
 30
0.0
 10
259.8835796037462
 20
-90.13978756683863
 30
0.0
 10
260.0911957713284
 20
-90.71568661521388
 30
0.0
 10
259.8785786234797
 20
-91.35726205916107
 30
0.0
 10
259.3202522019925
 20
-91.6702479373913
 30
0.0
 10
259.192088715246
 20
-91.74209849916683
 30
0.0
 10
259.0552662985153
 20
-91.79392941352047
 30
0.0
 10
258.9075643907506
 20
-91.80697914127387
 30
0.0
 10
258.7880000738473
 20
-91.8175378147062
 30
0.0
 10
258.6678884798589
 20
-91.82696419071881
 30
0.0
 10
258.5479750379181
 20
-91.82755550159312
 30
0.0
 10
258.0756560412142
 20
-91.82988614711404
 30
0.0
 10
257.6033213181577
 20
-91.82854311656462
 30
0.0
 10
257.1309928856415
 20
-91.82854311656462
 30
0.0
 10
253.429651014903
 20
-91.82854311656462
 30
0.0
 10
249.7283091441644
 20
-91.82852424494088
 30
0.0
 10
246.0269672734259
 20
-91.82858400508196
 30
0.0
 10
245.8809842560492
 20
-91.82858715035313
 30
0.0
 10
245.7353094751913
 20
-91.82864061995318
 30
0.0
 10
245.5899397855825
 20
-91.80873734754422
 30
0.0
 10
245.0107932453037
 20
-91.72944822077986
 30
0.0
 10
244.5602332306682
 20
-91.22347168329681
 30
0.0
 10
244.5360115017139
 20
-90.64692785444656
 30
0.0
 10
244.5267911409256
 20
-90.4274949051898
 30
0.0
 10
244.5717040325765
 20
-90.22165896077225
 30
0.0
 10
244.659987060645
 20
-90.02177386834525
 30
0.0
 10
244.8680451387472
 20
-89.55070983461435
 30
0.0
 10
245.0726434191805
 20
-89.07811719936781
 30
0.0
 10
245.2789275646597
 20
-88.60626999325473
 30
0.0
 10
247.0185452853915
 20
-84.62711266022875
 30
0.0
 10
248.7583580129018
 20
-80.64804339477914
 30
0.0
 10
250.4975857200781
 20
-76.66871621713952
 30
0.0
 10
250.6106361815518
 20
-76.41004601704425
 30
0.0
 10
250.6098058301113
 20
-76.4572832636744
 30
0.0
 10
250.493616388571
 20
-76.2131159063545
 30
0.0
 10
249.464637963802
 20
-74.05077067059894
 30
0.0
 10
248.4351216977594
 20
-71.8886817743978
 30
0.0
 10
247.4049983944893
 20
-69.72687909782259
 30
0.0
 10
247.3720862828443
 20
-69.65780738262963
 30
0.0
 10
247.3319589204241
 20
-69.59203348366914
 30
0.0
 10
247.292013983699
 20
-69.52666532461737
 30
0.0
 10
247.2879125508257
 20
-69.51995488977447
 30
0.0
 10
247.2534057869823
 20
-69.52030873271808
 30
0.0
 10
247.2474989687802
 20
-69.52821122512115
 30
0.0
 10
247.2221858309248
 20
-69.56209837065498
 30
0.0
 10
247.1988605040939
 20
-69.59843725462744
 30
0.0
 10
247.1809953670389
 20
-69.63676552225992
 30
0.0
 10
247.0685959765812
 20
-69.87791813770278
 30
0.0
 10
246.9580837484889
 20
-70.11995142891574
 30
0.0
 10
246.8465272905545
 20
-70.36149877581957
 30
0.0
 10
244.2914116696843
 20
-75.89391654603762
 30
0.0
 10
241.7361812464374
 20
-81.42628084665562
 30
0.0
 10
239.1811285309794
 20
-86.95873006958011
 30
0.0
 10
238.576552477833
 20
-88.26781685890998
 30
0.0
 10
237.9725630176553
 20
-89.57717728678305
 30
0.0
 10
237.3681992702747
 20
-90.88636472477263
 30
0.0
 10
237.3286301933869
 20
-90.97207963938892
 30
0.0
 10
237.2904639071908
 20
-91.05855570949316
 30
0.0
 10
237.247727542801
 20
-91.14268540772325
 30
0.0
 10
237.0137209821807
 20
-91.60336375790597
 30
0.0
 10
236.5259791510489
 20
-91.8629492317483
 30
0.0
 10
236.0150456670872
 20
-91.81839647358206
 30
0.0
 10
235.5917252685542
 20
-91.78148357772344
 30
0.0
 10
235.0847469623826
 20
-91.48735988733125
 30
0.0
 10
234.9305359170939
 20
-90.89292575926123
 30
0.0
 10
234.8620051884457
 20
-90.62876706195472
 30
0.0
 10
234.876346049784
 20
-90.36483796940229
 30
0.0
 10
234.9801006639744
 20
-90.10958982372838
 30
0.0
 10
235.0123931573098
 20
-90.03014657870489
 30
0.0
 10
235.0501159603504
 20
-89.95287986094189
 30
0.0
 10
235.0860978561087
 20
-89.87495892689235
 30
0.0
 10
237.644517583753
 20
-84.33462765582345
 30
0.0
 10
240.203052113774
 20
-78.79434356381421
 30
0.0
 10
242.7614907130415
 20
-73.25401858328635
 30
0.0
 10
243.855393813706
 20
-70.88515645202698
 30
0.0
 10
244.9490830359697
 20
-68.51619524474347
 30
0.0
 10
246.0430411788698
 20
-66.14735670301329
 30
0.0
 10
246.0790230746282
 20
-66.06944363214036
 30
0.0
 10
246.112134910957
 20
-65.98968428742008
 30
0.0
 10
246.1546369526866
 20
-65.91539142301743
 30
0.0
 10
246.3960553434954
 20
-65.49340147395183
 30
0.0
 10
246.7585823790764
 20
-65.2650469646147
 30
0.0
 10
247.2473322694377
 20
-65.26282640356504
 30
0.0
 10
247.7362520044121
 20
-65.26060584251604
 30
0.0
 10
248.100342239485
 20
-65.4862868718364
 30
0.0
 10
248.3456041509772
 20
-65.90605311458182
 30
0.0
 10
248.3844734051544
 20
-65.97257558794692
 30
0.0
 10
248.415221570621
 20
-66.04392605169568
 30
0.0
 10
248.4484261924323
 20
-66.1136598463518
 30
0.0
 10
249.5517934123575
 20
-68.43075396866912
 30
0.0
 10
250.654965625505
 20
-70.7479361585641
 30
0.0
 10
251.7583265548886
 20
-73.06503185351765
 30
0.0
 10
251.795223724394
 20
-73.14251402231709
 30
0.0
 10
251.8317088634503
 20
-73.22032958980145
 30
0.0
 10
251.8728144050298
 20
-73.29557232592748
 30
0.0
 10
251.8835586494277
 20
-73.31523970304134
 30
0.0
 10
251.9109602469672
 20
-73.32580938492016
 30
0.0
 10
251.9307408538228
 20
-73.34057957569708
 30
0.0
  0
SPLINE
  5
47
330
1F
100
AcDbEntity
  8
LAYER_1
 62
     1
100
AcDbSpline
210
0.0
220
0.0
230
1.0
 70
    11
 71
     3
 72
    50
 73
    46
 74
     0
 42
0.0000000001
 43
0.0000000001
 12
1.0
 22
0.0
 32
0.0
 13
1.0
 23
0.0
 33
0.0
 40
0.0
 40
0.0
 40
0.0
 40
0.0
 40
1.0
 40
1.0
 40
1.0
 40
2.0
 40
2.0
 40
2.0
 40
3.0
 40
3.0
 40
3.0
 40
4.0
 40
4.0
 40
4.0
 40
5.0
 40
5.0
 40
5.0
 40
6.0
 40
6.0
 40
6.0
 40
7.0
 40
7.0
 40
7.0
 40
8.0
 40
8.0
 40
8.0
 40
9.0
 40
9.0
 40
9.0
 40
10.0
 40
10.0
 40
10.0
 40
11.0
 40
11.0
 40
11.0
 40
12.0
 40
12.0
 40
12.0
 40
13.0
 40
13.0
 40
13.0
 40
14.0
 40
14.0
 40
14.0
 40
15.0
 40
15.0
 40
15.0
 40
15.0
 10
252.0321160707977
 20
-79.4912160103249
 30
0.0
 10
252.012234815283
 20
-79.50498600504827
 30
0.0
 10
251.9835090588178
 20
-79.51431802294283
 30
0.0
 10
251.9739883246865
 20
-79.53328714998163
 30
0.0
 10
251.9316875802757
 20
-79.61756467593045
 30
0.0
 10
251.8940166742003
 20
-79.70421688118807
 30
0.0
 10
251.8562262478421
 20
-79.79068980602179
 30
0.0
 10
250.7702303574867
 20
-82.275783839975
 30
0.0
 10
249.6844892340502
 20
-84.76098481312899
 30
0.0
 10
248.5985373774834
 20
-87.2460977187053
 30
0.0
 10
248.3339257612085
 20
-87.85164094256398
 30
0.0
 10
248.0684491955173
 20
-88.4568035886793
 30
0.0
 10
247.8042401738806
 20
-89.062522947692
 30
0.0
 10
247.7769329344598
 20
-89.1251232686083
 30
0.0
 10
247.7547021618004
 20
-89.1900070559865
 30
0.0
 10
247.731914676243
 20
-89.25446937710339
 30
0.0
 10
247.7211830129279
 20
-89.28483381955547
 30
0.0
 10
247.7511448607424
 20
-89.32536377661387
 30
0.0
 10
247.784629411638
 20
-89.32643945916173
 30
0.0
 10
247.8703726336902
 20
-89.32920729729719
 30
0.0
 10
247.9561661800726
 20
-89.33204747665643
 30
0.0
 10
248.0419377095601
 20
-89.33207578409171
 30
0.0
 10
249.1153808249176
 20
-89.33244378075298
 30
0.0
 10
250.1888239402759
 20
-89.3323179699285
 30
0.0
 10
251.2622670556334
 20
-89.3323179699285
 30
0.0
 10
252.9626097822799
 20
-89.3323179699285
 30
0.0
 10
254.6629525089265
 20
-89.33242176385873
 30
0.0
 10
256.3632952355736
 20
-89.33203175030322
 30
0.0
 10
256.4575935936799
 20
-89.33200973340895
 30
0.0
 10
256.551913968681
 20
-89.32849961140994
 30
0.0
 10
256.6461840193526
 20
-89.32537006715489
 30
0.0
 10
256.6799233371677
 20
-89.324247205548
 30
0.0
 10
256.7065134548898
 20
-89.28255035309358
 30
0.0
 10
256.6930862946629
 20
-89.25094667402166
 30
0.0
 10
256.6562425947575
 20
-89.16426930659928
 30
0.0
 10
256.6198832665258
 20
-89.07727112157403
 30
0.0
 10
256.5794193601508
 20
-88.99226074757318
 30
0.0
 10
255.531805207028
 20
-86.79132304145476
 30
0.0
 10
254.4836815200668
 20
-84.59062437590195
 30
0.0
 10
253.4356773533885
 20
-82.3898722407491
 30
0.0
 10
253.0113142976491
 20
-81.49872586457597
 30
0.0
 10
252.5874702115601
 20
-80.60732786675517
 30
0.0
 10
252.161871064472
 20
-79.71676651091533
 30
0.0
 10
252.1253104389214
 20
-79.64026723918067
 30
0.0
 10
252.1009534633305
 20
-79.55558082805322
 30
0.0
 10
252.0321160707977
 20
-79.4912160103249
 30
0.0
  0
SPLINE
  5
48
330
1F
100
AcDbEntity
  8
LAYER_1
 62
   250
100
AcDbSpline
210
0.0
220
0.0
230
1.0
 70
    11
 71
     3
 72
   101
 73
    97
 74
     0
 42
0.0000000001
 43
0.0000000001
 12
1.0
 22
0.0
 32
0.0
 13
1.0
 23
0.0
 33
0.0
 40
0.0
 40
0.0
 40
0.0
 40
0.0
 40
1.0
 40
1.0
 40
1.0
 40
2.0
 40
2.0
 40
2.0
 40
3.0
 40
3.0
 40
3.0
 40
4.0
 40
4.0
 40
4.0
 40
5.0
 40
5.0
 40
5.0
 40
6.0
 40
6.0
 40
6.0
 40
7.0
 40
7.0
 40
7.0
 40
8.0
 40
8.0
 40
8.0
 40
9.0
 40
9.0
 40
9.0
 40
10.0
 40
10.0
 40
10.0
 40
11.0
 40
11.0
 40
11.0
 40
12.0
 40
12.0
 40
12.0
 40
13.0
 40
13.0
 40
13.0
 40
14.0
 40
14.0
 40
14.0
 40
15.0
 40
15.0
 40
15.0
 40
16.0
 40
16.0
 40
16.0
 40
17.0
 40
17.0
 40
17.0
 40
18.0
 40
18.0
 40
18.0
 40
19.0
 40
19.0
 40
19.0
 40
20.0
 40
20.0
 40
20.0
 40
21.0
 40
21.0
 40
21.0
 40
22.0
 40
22.0
 40
22.0
 40
23.0
 40
23.0
 40
23.0
 40
24.0
 40
24.0
 40
24.0
 40
25.0
 40
25.0
 40
25.0
 40
26.0
 40
26.0
 40
26.0
 40
27.0
 40
27.0
 40
27.0
 40
28.0
 40
28.0
 40
28.0
 40
29.0
 40
29.0
 40
29.0
 40
30.0
 40
30.0
 40
30.0
 40
31.0
 40
31.0
 40
31.0
 40
32.0
 40
32.0
 40
32.0
 40
32.0
 10
97.94324461824313
 20
-135.5364865312326
 30
0.0
 10
97.33990073954197
 20
-135.5364865312326
 30
0.0
 10
96.85078330802362
 20
-135.0473690997142
 30
0.0
 10
96.85078330802362
 20
-134.4440036891663
 30
0.0
 10
96.85078330802362
 20
-134.4440036891663
 30
0.0
 10
96.85078330802362
 20
-131.6217814676496
 30
0.0
 10
96.85078330802362
 20
-131.6217814676496
 30
0.0
 10
96.85078330802362
 20
-131.0184375889485
 30
0.0
 10
97.33990073954197
 20
-130.5293201574301
 30
0.0
 10
97.94324461824313
 20
-130.5293201574301
 30
0.0
 10
97.94324461824313
 20
-130.5293201574301
 30
0.0
 10
99.4833314912305
 20
-130.5293201574301
 30
0.0
 10
99.4833314912305
 20
-130.5293201574301
 30
0.0
 10
99.4833314912305
 20
-130.5293201574301
 30
0.0
 10
99.4833314912305
 20
-32.51398509892613
 30
0.0
 10
99.4833314912305
 20
-32.51398509892613
 30
0.0
 10
99.4833314912305
 20
-32.51398509892613
 30
0.0
 10
97.99582538808676
 20
-32.51398509892613
 30
0.0
 10
97.99582538808676
 20
-32.51398509892613
 30
0.0
 10
97.3924599775388
 20
-32.51398509892613
 30
0.0
 10
96.90336407786725
 20
-32.02486766740779
 30
0.0
 10
96.90336407786725
 20
-31.42152378870663
 30
0.0
 10
96.90336407786725
 20
-31.42152378870663
 30
0.0
 10
96.90336407786725
 20
-28.59930156718996
 30
0.0
 10
96.90336407786725
 20
-28.59930156718996
 30
0.0
 10
96.90336407786725
 20
-27.99593615664202
 30
0.0
 10
97.3924599775388
 20
-27.50681872512367
 30
0.0
 10
97.99582538808676
 20
-27.50681872512367
 30
0.0
 10
97.99582538808676
 20
-27.50681872512367
 30
0.0
 10
99.4833314912305
 20
-27.50681872512367
 30
0.0
 10
99.4833314912305
 20
-27.50681872512367
 30
0.0
 10
99.4833314912305
 20
-27.50681872512367
 30
0.0
 10
99.4833314912305
 20
-24.48512547501104
 30
0.0
 10
99.4833314912305
 20
-24.48512547501104
 30
0.0
 10
99.4833314912305
 20
-21.1729460799515
 30
0.0
 10
96.79826713372034
 20
-18.48790325428812
 30
0.0
 10
93.48610927050758
 20
-18.48790325428812
 30
0.0
 10
93.48610927050758
 20
-18.48790325428812
 30
0.0
 10
10.48053847691436
 20
-18.48790325428812
 30
0.0
 10
10.48053847691436
 20
-18.48790325428812
 30
0.0
 10
7.168359081854815
 20
-18.48790325428812
 30
0.0
 10
4.48331625619144
 20
-21.1729460799515
 30
0.0
 10
4.48331625619144
 20
-24.48512547501104
 30
0.0
 10
4.48331625619144
 20
-24.48512547501104
 30
0.0
 10
4.48331625619144
 20
-27.50681872512367
 30
0.0
 10
4.48331625619144
 20
-27.50681872512367
 30
0.0
 10
4.48331625619144
 20
-27.50681872512367
 30
0.0
 10
6.313437105343285
 20
-27.50681872512367
 30
0.0
 10
6.313437105343285
 20
-27.50681872512367
 30
0.0
 10
6.916802515891228
 20
-27.50681872512367
 30
0.0
 10
7.405919947409574
 20
-27.99593615664202
 30
0.0
 10
7.405919947409574
 20
-28.59930156718996
 30
0.0
 10
7.405919947409574
 20
-28.59930156718996
 30
0.0
 10
7.405919947409574
 20
-31.42152378870663
 30
0.0
 10
7.405919947409574
 20
-31.42152378870663
 30
0.0
 10
7.405919947409574
 20
-32.02486766740779
 30
0.0
 10
6.916802515891228
 20
-32.51398509892613
 30
0.0
 10
6.313437105343285
 20
-32.51398509892613
 30
0.0
 10
6.313437105343285
 20
-32.51398509892613
 30
0.0
 10
4.48331625619144
 20
-32.51398509892613
 30
0.0
 10
4.48331625619144
 20
-32.51398509892613
 30
0.0
 10
4.48331625619144
 20
-32.51398509892613
 30
0.0
 10
4.48331625619144
 20
-130.5293201574301
 30
0.0
 10
4.48331625619144
 20
-130.5293201574301
 30
0.0
 10
4.48331625619144
 20
-130.5293201574301
 30
0.0
 10
6.260856335499659
 20
-130.5293201574301
 30
0.0
 10
6.260856335499659
 20
-130.5293201574301
 30
0.0
 10
6.864221746047603
 20
-130.5293201574301
 30
0.0
 10
7.353339177565948
 20
-131.0184375889485
 30
0.0
 10
7.353339177565948
 20
-131.6217814676496
 30
0.0
 10
7.353339177565948
 20
-131.6217814676496
 30
0.0
 10
7.353339177565948
 20
-134.4440036891663
 30
0.0
 10
7.353339177565948
 20
-134.4440036891663
 30
0.0
 10
7.353339177565948
 20
-135.0473690997142
 30
0.0
 10
6.864221746047603
 20
-135.5364865312326
 30
0.0
 10
6.260856335499659
 20
-135.5364865312326
 30
0.0
 10
6.260856335499659
 20
-135.5364865312326
 30
0.0
 10
4.48331625619144
 20
-135.5364865312326
 30
0.0
 10
4.48331625619144
 20
-135.5364865312326
 30
0.0
 10
4.48331625619144
 20
-135.5364865312326
 30
0.0
 10
4.48331625619144
 20
-138.5581797813452
 30
0.0
 10
4.48331625619144
 20
-138.5581797813452
 30
0.0
 10
4.48331625619144
 20
-141.8703591764047
 30
0.0
 10
7.168359081854815
 20
-144.5554020020681
 30
0.0
 10
10.48053847691436
 20
-144.5554020020681
 30
0.0
 10
10.48053847691436
 20
-144.5554020020681
 30
0.0
 10
93.48610927050758
 20
-144.5554020020681
 30
0.0
 10
93.48610927050758
 20
-144.5554020020681
 30
0.0
 10
96.79826713372034
 20
-144.5554020020681
 30
0.0
 10
99.4833314912305
 20
-141.8703591764047
 30
0.0
 10
99.4833314912305
 20
-138.5581797813452
 30
0.0
 10
99.4833314912305
 20
-138.5581797813452
 30
0.0
 10
99.4833314912305
 20
-135.5364865312326
 30
0.0
 10
99.4833314912305
 20
-135.5364865312326
 30
0.0
 10
99.4833314912305
 20
-135.5364865312326
 30
0.0
 10
97.94324461824313
 20
-135.5364865312326
 30
0.0
 10
97.94324461824313
 20
-135.5364865312326
 30
0.0
  0
MTEXT
  5
49
330
1F
100
AcDbEntity
  8
LAYER_1
 62
     7
100
AcDbMText
 10
35.63245034916481
 20
-9.265239798030914
 30
0.0
 40
2.9971999992507
 41
0.0
 71
     7
 72
     1
  1
\fMyriad Pro|b0|i0|c0|p34;\W1;Plexi de 2 mm (1 buc)
  0
MTEXT
  5
4A
330
1F
100
AcDbEntity
  8
LAYER_1
 62
     7
100
AcDbMText
 10
125.9630262271898
 20
-8.930548771638891
 30
0.0
 40
2.9971999992507
 41
0.0
 71
     7
 72
     1
  1
\fMyriad Pro|b0|i0|c0|p34;\W1;Carton gros mm (2 buc)
  0
MTEXT
  5
4B
330
1F
100
AcDbEntity
  8
LAYER_1
 62
     7
100
AcDbMText
 10
222.8587267848344
 20
-8.930548771638891
 30
0.0
 40
2.9971999992507
 41
0.0
 71
     7
 72
     1
  1
\fMyriad Pro|b0|i0|c0|p34;\W1;Mucava de 2 mm (1 buc)
  0
ENDSEC
  0
SECTION
  2
OBJECTS
  0
DICTIONARY
  5
C
330
0
100
AcDbDictionary
  3
ACAD_GROUP
350
D
  3
ACAD_LAYOUT
350
1A
  3
ACAD_MATERIAL
350
3B
  3
ACAD_MLEADERSTYLE
350
6E
  3
ACAD_MLINESTYLE
350
17
  3
ACAD_PLOTSETTINGS
350
19
  3
ACAD_VISUALSTYLE
350
2A
  3
ACDBHEADERROUNDTRIPXREC
350
4C
  3
ACDBVARIABLEDICTIONARY
350
6C
  0
DICTIONARY
  5
D
102
{ACAD_REACTORS
330
C
102
}
330
C
100
AcDbDictionary
  0
DICTIONARY
  5
1A
102
{ACAD_REACTORS
330
C
102
}
330
C
100
AcDbDictionary
  0
DICTIONARY
  5
3B
102
{ACAD_REACTORS
330
C
102
}
330
C
100
AcDbDictionary
  3
BYBLOCK
350
3D
  3
BYLAYER
350
3C
  3
GLOBAL
350
3E
  0
DICTIONARY
  5
6E
102
{ACAD_REACTORS
330
C
102
}
330
C
100
AcDbDictionary
  0
DICTIONARY
  5
17
102
{ACAD_REACTORS
330
C
102
}
330
C
100
AcDbDictionary
  3
STANDARD
350
18
  0
DICTIONARY
  5
19
102
{ACAD_REACTORS
330
C
102
}
330
C
100
AcDbDictionary
  0
DICTIONARY
  5
2A
102
{ACAD_REACTORS
330
C
102
}
330
C
100
AcDbDictionary
  3
2DWIREFRAME
350
2F
  3
3DWIREFRAME
350
30
  3
3D_HIDDEN
350
31
  3
BASIC
350
32
  3
BRIGHTEN
350
36
  3
COLORCHANGE
350
3A
  3
CONCEPTUAL
350
34
  3
DIM
350
35
  3
FACEPATTERN
350
39
  3
FLAT
350
2B
  3
FLATWITHEDGES
350
2C
  3
GOURAUD
350
2D
  3
GOURAUDWITHEDGES
350
2E
  3
LINEPATTERN
350
38
  3
REALISTIC
350
33
  3
THICKEN
350
37
  0
DICTIONARY
  5
4C
102
{ACAD_REACTORS
330
C
102
}
330
C
100
AcDbDictionary
  3
CEPSNTYPE
350
55
  3
DIMSTYLEDATA
350
6B
  3
FINGERPRINTGUID
350
56
  3
HYPERLINKBASE
350
4F
  3
INSUNITS
350
54
  3
LAYOUTDICT
350
51
  3
LWETCUNION
350
53
  3
PLOTSETDICT
350
52
  3
PSVPSCALE
350
58
  3
PUCSBASE
350
5B
  3
PUCSORGBACK
350
61
  3
PUCSORGBOTTOM
350
5D
  3
PUCSORGFRONT
350
60
  3
PUCSORGLEFT
350
5E
  3
PUCSORGRIGHT
350
5F
  3
PUCSORGTOP
350
5C
  3
PUCSORTHOREF
350
59
  3
PUCSORTHOVIEW
350
5A
  3
STYLESHEET
350
50
  3
TSTACKALIGN
350
4D
  3
TSTACKSIZE
350
4E
  3
UCSBASE
350
64
  3
UCSORGBACK
350
6A
  3
UCSORGBOTTOM
350
66
  3
UCSORGFRONT
350
69
  3
UCSORGLEFT
350
67
  3
UCSORGRIGHT
350
68
  3
UCSORGTOP
350
65
  3
UCSORTHOREF
350
62
  3
UCSORTHOVIEW
350
63
  3
VERSIONGUID
350
57
  0
DICTIONARY
  5
6C
102
{ACAD_REACTORS
330
C
102
}
330
C
100
AcDbDictionary
  3
DIMASSOC
350
6F
  3
HIDETEXT
350
70
  0
MATERIAL
  5
3D
102
{ACAD_REACTORS
330
3B
102
}
102
{ACAD_XDICTIONARY
360
73
102
}
330
3B
100
AcDbMaterial
  1
ByBlock
  0
MATERIAL
  5
3C
102
{ACAD_REACTORS
330
3B
102
}
102
{ACAD_XDICTIONARY
360
71
102
}
330
3B
100
AcDbMaterial
  1
ByLayer
  0
MATERIAL
  5
3E
102
{ACAD_REACTORS
330
3B
102
}
102
{ACAD_XDICTIONARY
360
75
102
}
330
3B
100
AcDbMaterial
  1
Global
  0
MLINESTYLE
  5
18
102
{ACAD_REACTORS
330
17
102
}
330
17
100
AcDbMlineStyle
  2
Standard
 70
     0
  3

 62
   256
 51
90.0
 52
90.0
 71
     2
 49
0.5
 62
   256
  6
BYLAYER
 49
-0.5
 62
   256
  6
BYLAYER
  0
ACAD_PROXY_OBJECT
  5
2F
102
{ACAD_REACTORS
330
2A
102
}
330
2A
100
AcDbProxyObject
 90
      499
 91
      501
 93
      436
310
42CC9915DA5C99599C985B595049028333333333333E3BF0000000000000FB0107901411070040501600405405064090741402480A0340
1001
ACAD
1000
AcDbSavedByObjectVersion
1070
     0
  0
ACAD_PROXY_OBJECT
  5
30
102
{ACAD_REACTORS
330
2A
102
}
330
2A
100
AcDbProxyObject
 90
      499
 91
      501
 93
      436
310
42CCD915DA5C99599C985B595059028333333333333E3BF0000000000000FB0107901411070040501600405405064090741402480A0340
1001
ACAD
1000
AcDbSavedByObjectVersion
1070
     0
  0
ACAD_PROXY_OBJECT
  5
31
102
{ACAD_REACTORS
330
2A
102
}
330
2A
100
AcDbProxyObject
 90
      499
 91
      501
 93
      500
310
424CD108121A5919195B90640502408333333333333E3BF0000000000000FB01079024090700405020000000000001110200405405064090740C02480A0340
1001
ACAD
1000
AcDbSavedByObjectVersion
1070
     0
  0
ACAD_PROXY_OBJECT
  5
32
102
{ACAD_REACTORS
330
2A
102
}
330
2A
100
AcDbProxyObject
 90
      499
 91
      501
 93
      388
310
4150985CDA58D07406404333333333333E3BF0000000000000FB0107A41107004050150841D405064090741402480A0350
1001
ACAD
1000
AcDbSavedByObjectVersion
1070
     0
  0
ACAD_PROXY_OBJECT
  5
36
102
{ACAD_REACTORS
330
2A
102
}
330
2A
100
AcDbProxyObject
 90
      499
 91
      501
 93
      428
310
42109C9A59DA1D195B90C409028333333333333E3BF0000000000000FB010790141107004050150841D405064090741402480A029950
1001
ACAD
1000
AcDbSavedByObjectVersion
1070
     0
  0
ACAD_PROXY_OBJECT
  5
3A
102
{ACAD_REACTORS
330
2A
102
}
330
2A
100
AcDbProxyObject
 90
      499
 91
      501
 93
      452
310
42D0DBDB1BDC90DA185B99D95104090240C333333333333E3BF0000000000000FB0108901411070040501508421405064090741402480A0350
1001
ACAD
1000
AcDbSavedByObjectVersion
1070
     0
  0
ACAD_PROXY_OBJECT
  5
34
102
{ACAD_REACTORS
330
2A
102
}
330
2A
100
AcDbProxyObject
 90
      499
 91
      501
 93
      500
310
4290DBDB98D95C1D1D585B10940D028333333333333E3BF0000000000000FB0107902409070040501000000000000111010841D405064090740C02480A0340
1001
ACAD
1000
AcDbSavedByObjectVersion
1070
     0
  0
ACAD_PROXY_OBJECT
  5
35
102
{ACAD_REACTORS
330
2A
102
}
330
2A
100
AcDbProxyObject
 90
      499
 91
      501
 93
      412
310
40D11A5B50B409028333333333333E3BF0000000000000FB010790141107004050150841D405064090741402480A02677FFFFFD0
1001
ACAD
1000
AcDbSavedByObjectVersion
1070
     0
  0
ACAD_PROXY_OBJECT
  5
39
102
{ACAD_REACTORS
330
2A
102
}
330
2A
100
AcDbProxyObject
 90
      499
 91
      501
 93
      444
310
42D19858D95C185D1D195C9B90F409028333333333333E3BF0000000000000FB010790141107004050150841D405064090741402480A0350
1001
ACAD
1000
AcDbSavedByObjectVersion
1070
     0
  0
ACAD_PROXY_OBJECT
  5
2B
102
{ACAD_REACTORS
330
2A
102
}
330
2A
100
AcDbProxyObject
 90
      499
 91
      501
 93
      388
310
41119B185D240901404333333333333E3BF0000000000000F9010740A41107004050150841D405064090741402480A1B50
1001
ACAD
1000
AcDbSavedByObjectVersion
1070
     0
  0
ACAD_PROXY_OBJECT
  5
2C
102
{ACAD_REACTORS
330
2A
102
}
330
2A
100
AcDbProxyObject
 90
      499
 91
      501
 93
      476
310
43519B185D15DA5D1A115919D95CD0140901404333333333333E3BF0000000000000F9010740901411070040501600405405064090741402480A1B50
1001
ACAD
1000
AcDbSavedByObjectVersion
1070
     0
  0
ACAD_PROXY_OBJECT
  5
2D
102
{ACAD_REACTORS
330
2A
102
}
330
2A
100
AcDbProxyObject
 90
      499
 91
      501
 93
      412
310
41D1DBDD5C985D5910240902404333333333333E3BF0000000000000F9010740A411070040501641D405064090741402480A1B50
1001
ACAD
1000
AcDbSavedByObjectVersion
1070
     0
  0
ACAD_PROXY_OBJECT
  5
2E
102
{ACAD_REACTORS
330
2A
102
}
330
2A
100
AcDbProxyObject
 90
      499
 91
      501
 93
      500
310
4411DBDD5C985D5915DA5D1A115919D95CD0340902404333333333333E3BF0000000000000F9010740901411070040501600405405064090741402480A1B50
1001
ACAD
1000
AcDbSavedByObjectVersion
1070
     0
  0
ACAD_PROXY_OBJECT
  5
38
102
{ACAD_REACTORS
330
2A
102
}
330
2A
100
AcDbProxyObject
 90
      499
 91
      501
 93
      444
310
42D31A5B995C185D1D195C9B90E409028333333333333E3BF0000000000000FB010790141107004050750841D405064090741402483A0350
1001
ACAD
1000
AcDbSavedByObjectVersion
1070
     0
  0
ACAD_PROXY_OBJECT
  5
33
102
{ACAD_REACTORS
330
2A
102
}
330
2A
100
AcDbProxyObject
 90
      499
 91
      501
 93
      420
310
425499585B1A5CDD1A58D08409028333333333333E3BF0000000000000FB01079019070040501508421405064090741402480A1B40
1001
ACAD
1000
AcDbSavedByObjectVersion
1070
     0
  0
ACAD_PROXY_OBJECT
  5
37
102
{ACAD_REACTORS
330
2A
102
}
330
2A
100
AcDbProxyObject
 90
      499
 91
      501
 93
      412
310
41D51A1A58DAD95B90D409028333333333333E3BF0000000000000FB010790141107004050150C41D405064090741402480A0350
1001
ACAD
1000
AcDbSavedByObjectVersion
1070
     0
  0
XRECORD
  5
55
102
{ACAD_REACTORS
330
4C
102
}
330
4C
100
AcDbXrecord
 90
        0
  0
XRECORD
  5
6B
102
{ACAD_REACTORS
330
4C
102
}
330
4C
100
AcDbXrecord
1000
DSTYLE
1002
{
1070
   340
340
11
1002
}
  0
XRECORD
  5
56
102
{ACAD_REACTORS
330
4C
102
}
330
4C
100
AcDbXrecord
  1
{E4F42185-D3AC-3556-3CE9-9F4775464025}
  0
XRECORD
  5
4F
102
{ACAD_REACTORS
330
4C
102
}
330
4C
100
AcDbXrecord
  1

  0
XRECORD
  5
54
102
{ACAD_REACTORS
330
4C
102
}
330
4C
100
AcDbXrecord
 90
        1
  0
XRECORD
  5
51
102
{ACAD_REACTORS
330
4C
102
}
330
4C
100
AcDbXrecord
340
1A
  0
XRECORD
  5
53
102
{ACAD_REACTORS
330
4C
102
}
330
4C
100
AcDbXrecord
 90
    10269
  0
XRECORD
  5
52
102
{ACAD_REACTORS
330
4C
102
}
330
4C
100
AcDbXrecord
340
19
  0
XRECORD
  5
58
102
{ACAD_REACTORS
330
4C
102
}
330
4C
100
AcDbXrecord
 40
0.0
  0
XRECORD
  5
5B
102
{ACAD_REACTORS
330
4C
102
}
330
4C
100
AcDbXrecord
340
0
  0
XRECORD
  5
61
102
{ACAD_REACTORS
330
4C
102
}
330
4C
100
AcDbXrecord
 10
0.0
 20
0.0
 30
0.0
  0
XRECORD
  5
5D
102
{ACAD_REACTORS
330
4C
102
}
330
4C
100
AcDbXrecord
 10
0.0
 20
0.0
 30
0.0
  0
XRECORD
  5
60
102
{ACAD_REACTORS
330
4C
102
}
330
4C
100
AcDbXrecord
 10
0.0
 20
0.0
 30
0.0
  0
XRECORD
  5
5E
102
{ACAD_REACTORS
330
4C
102
}
330
4C
100
AcDbXrecord
 10
0.0
 20
0.0
 30
0.0
  0
XRECORD
  5
5F
102
{ACAD_REACTORS
330
4C
102
}
330
4C
100
AcDbXrecord
 10
0.0
 20
0.0
 30
0.0
  0
XRECORD
  5
5C
102
{ACAD_REACTORS
330
4C
102
}
330
4C
100
AcDbXrecord
 10
0.0
 20
0.0
 30
0.0
  0
XRECORD
  5
59
102
{ACAD_REACTORS
330
4C
102
}
330
4C
100
AcDbXrecord
340
0
  0
XRECORD
  5
5A
102
{ACAD_REACTORS
330
4C
102
}
330
4C
100
AcDbXrecord
 70
     0
  0
XRECORD
  5
50
102
{ACAD_REACTORS
330
4C
102
}
330
4C
100
AcDbXrecord
  1

  0
XRECORD
  5
4D
102
{ACAD_REACTORS
330
4C
102
}
330
4C
100
AcDbXrecord
 90
        1
  0
XRECORD
  5
4E
102
{ACAD_REACTORS
330
4C
102
}
330
4C
100
AcDbXrecord
 90
       70
  0
XRECORD
  5
64
102
{ACAD_REACTORS
330
4C
102
}
330
4C
100
AcDbXrecord
340
0
  0
XRECORD
  5
6A
102
{ACAD_REACTORS
330
4C
102
}
330
4C
100
AcDbXrecord
 10
0.0
 20
0.0
 30
0.0
  0
XRECORD
  5
66
102
{ACAD_REACTORS
330
4C
102
}
330
4C
100
AcDbXrecord
 10
0.0
 20
0.0
 30
0.0
  0
XRECORD
  5
69
102
{ACAD_REACTORS
330
4C
102
}
330
4C
100
AcDbXrecord
 10
0.0
 20
0.0
 30
0.0
  0
XRECORD
  5
67
102
{ACAD_REACTORS
330
4C
102
}
330
4C
100
AcDbXrecord
 10
0.0
 20
0.0
 30
0.0
  0
XRECORD
  5
68
102
{ACAD_REACTORS
330
4C
102
}
330
4C
100
AcDbXrecord
 10
0.0
 20
0.0
 30
0.0
  0
XRECORD
  5
65
102
{ACAD_REACTORS
330
4C
102
}
330
4C
100
AcDbXrecord
 10
0.0
 20
0.0
 30
0.0
  0
XRECORD
  5
62
102
{ACAD_REACTORS
330
4C
102
}
330
4C
100
AcDbXrecord
340
0
  0
XRECORD
  5
63
102
{ACAD_REACTORS
330
4C
102
}
330
4C
100
AcDbXrecord
 70
     0
  0
XRECORD
  5
57
102
{ACAD_REACTORS
330
4C
102
}
330
4C
100
AcDbXrecord
  1
{FAEB1C32-E019-11D5-929B-00C0DF256EC4}
  0
DICTIONARYVAR
  5
6F
102
{ACAD_REACTORS
330
6C
102
}
330
6C
100
DictionaryVariables
280
     0
  1
2
  0
DICTIONARYVAR
  5
70
102
{ACAD_REACTORS
330
6C
102
}
330
6C
100
DictionaryVariables
280
     0
  1
1
  0
DICTIONARY
  5
73
330
3D
100
AcDbDictionary
280
     1
  3
ACAD_XREC_ROUNDTRIP
360
74
  0
DICTIONARY
  5
71
330
3C
100
AcDbDictionary
280
     1
  3
ACAD_XREC_ROUNDTRIP
360
72
  0
DICTIONARY
  5
75
330
3E
100
AcDbDictionary
280
     1
  3
ACAD_XREC_ROUNDTRIP
360
76
  0
XRECORD
  5
74
102
{ACAD_REACTORS
330
73
102
}
330
73
100
AcDbXrecord
102
MATERIAL
148
0.0
149
0.0
149
0.0
 93
        0
 94
      127
282
     0
 72
     1
 77
     1
171
     1
175
     1
179
     1
273
     0
  0
XRECORD
  5
72
102
{ACAD_REACTORS
330
71
102
}
330
71
100
AcDbXrecord
102
MATERIAL
148
0.0
149
0.0
149
0.0
 93
        0
 94
      127
282
     0
 72
     1
 77
     1
171
     1
175
     1
179
     1
273
     0
  0
XRECORD
  5
76
102
{ACAD_REACTORS
330
75
102
}
330
75
100
AcDbXrecord
102
MATERIAL
148
0.0
149
0.0
149
0.0
 93
        0
 94
      127
282
     0
 72
     1
 77
     1
171
     1
175
     1
179
     1
273
     0
  0
ENDSEC
  0
EOF
