  0
SECTION
  2
HEADER
  9
$ACADVER
  1
AC1014
  9
$ACADMAINTVER
 70
     9
  9
$DWGCODEPAGE
  3
UNDEFINED
  9
$INSBASE
 10
0.0
 20
0.0
 30
0.0
  9
$EXTMIN
 10
1.000000000000000E+20
 20
1.000000000000000E+20
 30
1.000000000000000E+20
  9
$EXTMAX
 10
-1.000000000000000E+20
 20
-1.000000000000000E+20
 30
-1.000000000000000E+20
  9
$LIMMIN
 10
0.0
 20
0.0
  9
$LIMMAX
 10
12.0
 20
9.0
  9
$ORTHOMODE
 70
     0
  9
$REGENMODE
 70
     1
  9
$FILLMODE
 70
     1
  9
$QTEXTMODE
 70
     0
  9
$MIRRTEXT
 70
     1
  9
$DRAGMODE
 70
     2
  9
$LTSCALE
 40
1.0
  9
$OSMODE
 70
    37
  9
$ATTMODE
 70
     1
  9
$TEXTSIZE
 40
0.2
  9
$TRACEWID
 40
0.05
  9
$TEXTSTYLE
  7
STANDARD
  9
$CLAYER
  8
0
  9
$CELTYPE
  6
BYLAYER
  9
$CECOLOR
 62
   256
  9
$CELTSCALE
 40
1.0
  9
$DELOBJ
 70
     1
  9
$DISPSILH
 70
     0
  9
$DIMSCALE
 40
1.0
  9
$DIMASZ
 40
0.18
  9
$DIMEXO
 40
0.0625
  9
$DIMDLI
 40
0.38
  9
$DIMRND
 40
0.0
  9
$DIMDLE
 40
0.0
  9
$DIMEXE
 40
0.18
  9
$DIMTP
 40
0.0
  9
$DIMTM
 40
0.0
  9
$DIMTXT
 40
0.18
  9
$DIMCEN
 40
0.09
  9
$DIMTSZ
 40
0.0
  9
$DIMTOL
 70
     0
  9
$DIMLIM
 70
     0
  9
$DIMTIH
 70
     1
  9
$DIMTOH
 70
     1
  9
$DIMSE1
 70
     0
  9
$DIMSE2
 70
     0
  9
$DIMTAD
 70
     0
  9
$DIMZIN
 70
     0
  9
$DIMBLK
  1

  9
$DIMASO
 70
     1
  9
$DIMSHO
 70
     1
  9
$DIMPOST
  1

  9
$DIMAPOST
  1

  9
$DIMALT
 70
     0
  9
$DIMALTD
 70
     2
  9
$DIMALTF
 40
25.4
  9
$DIMLFAC
 40
1.0
  9
$DIMTOFL
 70
     0
  9
$DIMTVP
 40
0.0
  9
$DIMTIX
 70
     0
  9
$DIMSOXD
 70
     0
  9
$DIMSAH
 70
     0
  9
$DIMBLK1
  1

  9
$DIMBLK2
  1

  9
$DIMSTYLE
  2
STANDARD
  9
$DIMCLRD
 70
     0
  9
$DIMCLRE
 70
     0
  9
$DIMCLRT
 70
     0
  9
$DIMTFAC
 40
1.0
  9
$DIMGAP
 40
0.09
  9
$DIMJUST
 70
     0
  9
$DIMSD1
 70
     0
  9
$DIMSD2
 70
     0
  9
$DIMTOLJ
 70
     1
  9
$DIMTZIN
 70
     0
  9
$DIMALTZ
 70
     0
  9
$DIMALTTZ
 70
     0
  9
$DIMFIT
 70
     3
  9
$DIMUPT
 70
     0
  9
$DIMUNIT
 70
     2
  9
$DIMDEC
 70
     4
  9
$DIMTDEC
 70
     4
  9
$DIMALTU
 70
     2
  9
$DIMALTTD
 70
     2
  9
$DIMTXSTY
  7
STANDARD
  9
$DIMAUNIT
 70
     0
  9
$LUNITS
 70
     2
  9
$LUPREC
 70
     4
  9
$SKETCHINC
 40
0.1
  9
$FILLETRAD
 40
0.5
  9
$AUNITS
 70
     0
  9
$AUPREC
 70
     0
  9
$MENU
  1
.
  9
$ELEVATION
 40
0.0
  9
$PELEVATION
 40
0.0
  9
$THICKNESS
 40
0.0
  9
$LIMCHECK
 70
     0
  9
$CHAMFERA
 40
0.5
  9
$CHAMFERB
 40
0.5
  9
$CHAMFERC
 40
1.0
  9
$CHAMFERD
 40
0.0
  9
$SKPOLY
 70
     0
  9
$TDCREATE
 40
2457743.028576389
  9
$TDUPDATE
 40
2457743.028576389
  9
$TDINDWG
 40
0.0000000116
  9
$TDUSRTIMER
 40
0.0000000116
  9
$USRTIMER
 70
     1
  9
$ANGBASE
 50
0.0
  9
$ANGDIR
 70
     0
  9
$PDMODE
 70
     0
  9
$PDSIZE
 40
0.0
  9
$PLINEWID
 40
0.0
  9
$COORDS
 70
     1
  9
$SPLFRAME
 70
     0
  9
$SPLINETYPE
 70
     6
  9
$SPLINESEGS
 70
     8
  9
$ATTDIA
 70
     0
  9
$ATTREQ
 70
     1
  9
$HANDLING
 70
     1
  9
$HANDSEED
  5
136
  9
$SURFTAB1
 70
     6
  9
$SURFTAB2
 70
     6
  9
$SURFTYPE
 70
     6
  9
$SURFU
 70
     6
  9
$SURFV
 70
     6
  9
$UCSNAME
  2

  9
$UCSORG
 10
0.0
 20
0.0
 30
0.0
  9
$UCSXDIR
 10
1.0
 20
0.0
 30
0.0
  9
$UCSYDIR
 10
0.0
 20
1.0
 30
0.0
  9
$PUCSNAME
  2

  9
$PUCSORG
 10
0.0
 20
0.0
 30
0.0
  9
$PUCSXDIR
 10
1.0
 20
0.0
 30
0.0
  9
$PUCSYDIR
 10
0.0
 20
1.0
 30
0.0
  9
$USERI1
 70
     0
  9
$USERI2
 70
     0
  9
$USERI3
 70
     0
  9
$USERI4
 70
     0
  9
$USERI5
 70
     0
  9
$USERR1
 40
0.0
  9
$USERR2
 40
0.0
  9
$USERR3
 40
0.0
  9
$USERR4
 40
0.0
  9
$USERR5
 40
0.0
  9
$WORLDVIEW
 70
     1
  9
$SHADEDGE
 70
     3
  9
$SHADEDIF
 70
    70
  9
$TILEMODE
 70
     1
  9
$MAXACTVP
 70
    64
  9
$PINSBASE
 10
0.0
 20
0.0
 30
0.0
  9
$PLIMCHECK
 70
     0
  9
$PEXTMIN
 10
1.000000000000000E+20
 20
1.000000000000000E+20
 30
1.000000000000000E+20
  9
$PEXTMAX
 10
-1.000000000000000E+20
 20
-1.000000000000000E+20
 30
-1.000000000000000E+20
  9
$PLIMMIN
 10
0.0
 20
0.0
  9
$PLIMMAX
 10
12.0
 20
9.0
  9
$UNITMODE
 70
     0
  9
$VISRETAIN
 70
     1
  9
$PLINEGEN
 70
     0
  9
$PSLTSCALE
 70
     1
  9
$TREEDEPTH
 70
  3020
  9
$PICKSTYLE
 70
     1
  9
$CMLSTYLE
  2
STANDARD
  9
$CMLJUST
 70
     0
  9
$CMLSCALE
 40
1.0
  9
$PROXYGRAPHICS
 70
     1
  9
$MEASUREMENT
 70
     0
  0
ENDSEC
  0
SECTION
  2
CLASSES
  0
CLASS
  1
ACDBDICTIONARYWDFLT
  2
AcDbDictionaryWithDefault
  3
ObjectDBX Classes
 90
        0
280
     0
281
     0
  0
CLASS
  1
VISUALSTYLE
  2
AcDbVisualStyle
  3
ObjectDBX Classes
 90
     4095
280
     0
281
     0
  0
CLASS
  1
MATERIAL
  2
AcDbMaterial
  3
ObjectDBX Classes
 90
     1153
280
     0
281
     0
  0
CLASS
  1
SUN
  2
AcDbSun
  3
SCENEOE
 90
     1024
280
     0
281
     0
  0
CLASS
  1
DICTIONARYVAR
  2
AcDbDictionaryVar
  3
ObjectDBX Classes
 90
        0
280
     0
281
     0
  0
CLASS
  1
XRECORD
  2
AcDbXrecord
  3
AutoCAD 2000
 90
        0
280
     0
281
     0
  0
CLASS
  1
LWPOLYLINE
  2
AcDbPolyline
  3
AutoCAD 2000
 90
        0
280
     0
281
     1
  0
CLASS
  1
HATCH
  2
AcDbHatch
  3
AutoCAD 2000
 90
        0
280
     0
281
     1
  0
CLASS
  1
ACDBPLACEHOLDER
  2
AcDbPlaceHolder
  3
ObjectDBX Classes
 90
        0
280
     0
281
     0
  0
CLASS
  1
LAYOUT
  2
AcDbLayout
  3
ObjectDBX Classes
 90
        0
280
     0
281
     0
  0
ENDSEC
  0
SECTION
  2
TABLES
  0
TABLE
  2
VPORT
  5
8
330
0
100
AcDbSymbolTable
 70
     1
  0
VPORT
  5
29
330
8
100
AcDbSymbolTableRecord
100
AcDbViewportTableRecord
  2
*ACTIVE
 70
     0
 10
0.0
 20
0.0
 11
1.0
 21
1.0
 12
0.0
 22
0.0
 13
0.0
 23
0.0
 14
0.5
 24
0.5
 15
0.5
 25
0.5
 16
0.0
 26
0.0
 36
1.0
 17
77.49998609173626
 27
-77.49998609173626
 37
0.0
 40
154.9999721834725
 41
1.0
 42
50.0
 43
0.0
 44
0.0
 50
0.0
 51
0.0
 71
     0
 72
   100
 73
     1
 74
     3
 75
     0
 76
     0
 77
     0
 78
     0
  0
ENDTAB
  0
TABLE
  2
LTYPE
  5
5
330
0
100
AcDbSymbolTable
 70
     1
  0
LTYPE
  5
14
330
5
100
AcDbSymbolTableRecord
100
AcDbLinetypeTableRecord
  2
BYBLOCK
 70
     0
  3

 72
    65
 73
     0
 40
0.0
  0
LTYPE
  5
15
330
5
100
AcDbSymbolTableRecord
100
AcDbLinetypeTableRecord
  2
BYLAYER
 70
     0
  3

 72
    65
 73
     0
 40
0.0
  0
LTYPE
  5
16
330
5
100
AcDbSymbolTableRecord
100
AcDbLinetypeTableRecord
  2
CONTINUOUS
 70
     0
  3
Solid line
 72
    65
 73
     0
 40
0.0
  0
ENDTAB
  0
TABLE
  2
LAYER
  5
2
330
0
100
AcDbSymbolTable
 70
     2
  0
LAYER
  5
10
330
2
100
AcDbSymbolTableRecord
100
AcDbLayerTableRecord
  2
0
 70
     0
 62
     7
  6
CONTINUOUS
  0
LAYER
  5
40
330
2
100
AcDbSymbolTableRecord
100
AcDbLayerTableRecord
  2
LAYER_1
 70
     0
 62
     7
  6
CONTINUOUS
  0
ENDTAB
  0
TABLE
  2
STYLE
  5
3
330
0
100
AcDbSymbolTable
 70
     1
  0
STYLE
  5
11
330
3
100
AcDbSymbolTableRecord
100
AcDbTextStyleTableRecord
  2
STANDARD
 70
     0
 40
0.0
 41
1.0
 50
0.0
 71
     0
 42
0.2
  3
txt
  4

  0
ENDTAB
  0
TABLE
  2
VIEW
  5
6
330
0
100
AcDbSymbolTable
 70
     0
  0
ENDTAB
  0
TABLE
  2
UCS
  5
7
330
0
100
AcDbSymbolTable
 70
     0
  0
ENDTAB
  0
TABLE
  2
APPID
  5
9
330
0
100
AcDbSymbolTable
 70
     1
  0
APPID
  5
12
330
9
100
AcDbSymbolTableRecord
100
AcDbRegAppTableRecord
  2
ACAD
 70
     0
  0
ENDTAB
  0
TABLE
  2
DIMSTYLE
  5
A
330
0
100
AcDbSymbolTable
 70
     1
  0
DIMSTYLE
105
27
330
A
100
AcDbSymbolTableRecord
100
AcDbDimStyleTableRecord
  2
STANDARD
 70
     0
  3

  4

  5

  6

  7

 40
1.0
 41
0.18
 42
0.0625
 43
0.38
 44
0.18
 45
0.0
 46
0.0
 47
0.0
 48
0.0
140
0.18
141
0.09
142
0.0
143
25.4
144
1.0
145
0.0
146
1.0
147
0.09
 71
     0
 72
     0
 73
     1
 74
     1
 75
     0
 76
     0
 77
     0
 78
     0
170
     0
171
     2
172
     0
173
     0
174
     0
175
     0
176
     0
177
     0
178
     0
270
     2
271
     4
272
     4
273
     2
274
     2
340
11
275
     0
280
     0
281
     0
282
     0
283
     1
284
     0
285
     0
286
     0
287
     3
288
     0
  0
ENDTAB
  0
TABLE
  2
BLOCK_RECORD
  5
1
330
0
100
AcDbSymbolTable
 70
     1
  0
BLOCK_RECORD
  5
1F
330
1
100
AcDbSymbolTableRecord
100
AcDbBlockTableRecord
  2
*MODEL_SPACE
  0
BLOCK_RECORD
  5
1B
330
1
100
AcDbSymbolTableRecord
100
AcDbBlockTableRecord
  2
*PAPER_SPACE
  0
ENDTAB
  0
ENDSEC
  0
SECTION
  2
BLOCKS
  0
BLOCK
  5
20
330
1F
100
AcDbEntity
  8
0
100
AcDbBlockBegin
  2
*MODEL_SPACE
 70
     0
 10
0.0
 20
0.0
 30
0.0
  3
*MODEL_SPACE
  1

  0
ENDBLK
  5
21
330
1F
100
AcDbEntity
  8
0
100
AcDbBlockEnd
  0
BLOCK
  5
1C
330
1B
100
AcDbEntity
 67
     1
  8
0
100
AcDbBlockBegin
  2
*PAPER_SPACE
 70
     0
 10
0.0
 20
0.0
 30
0.0
  3
*PAPER_SPACE
  1

  0
ENDBLK
  5
1D
330
1B
100
AcDbEntity
 67
     1
  8
0
100
AcDbBlockEnd
  0
ENDSEC
  0
SECTION
  2
ENTITIES
  0
SPLINE
  5
41
330
1F
100
AcDbEntity
  8
LAYER_1
 62
   250
100
AcDbSpline
210
0.0
220
0.0
230
1.0
 70
    11
 71
     3
 72
    17
 73
    13
 74
     0
 42
0.0000000001
 43
0.0000000001
 12
1.0
 22
0.0
 32
0.0
 13
1.0
 23
0.0
 33
0.0
 40
0.0
 40
0.0
 40
0.0
 40
0.0
 40
1.0
 40
1.0
 40
1.0
 40
2.0
 40
2.0
 40
2.0
 40
3.0
 40
3.0
 40
3.0
 40
4.0
 40
4.0
 40
4.0
 40
4.0
 10
95.4073984165547
 20
-144.8250921366131
 30
0.0
 10
95.4073984165547
 20
-145.5154480736905
 30
0.0
 10
94.84775435394505
 20
-146.0750921363002
 30
0.0
 10
94.15739841686764
 20
-146.0750921363002
 30
0.0
 10
93.46704247979022
 20
-146.0750921363002
 30
0.0
 10
92.90739841717931
 20
-145.5154480736905
 30
0.0
 10
92.90739841717931
 20
-144.8250921366131
 30
0.0
 10
92.90739841717931
 20
-144.1347361995351
 30
0.0
 10
93.46704247979022
 20
-143.5750921369254
 30
0.0
 10
94.15739841686764
 20
-143.5750921369254
 30
0.0
 10
94.84775435394505
 20
-143.5750921369254
 30
0.0
 10
95.4073984165547
 20
-144.1347361995351
 30
0.0
 10
95.4073984165547
 20
-144.8250921366131
 30
0.0
  0
SPLINE
  5
42
330
1F
100
AcDbEntity
  8
LAYER_1
100
AcDbSpline
210
0.0
220
0.0
230
1.0
 70
    11
 71
     3
 72
    17
 73
    13
 74
     0
 42
0.0000000001
 43
0.0000000001
 12
1.0
 22
0.0
 32
0.0
 13
1.0
 23
0.0
 33
0.0
 40
0.0
 40
0.0
 40
0.0
 40
0.0
 40
1.0
 40
1.0
 40
1.0
 40
2.0
 40
2.0
 40
2.0
 40
3.0
 40
3.0
 40
3.0
 40
4.0
 40
4.0
 40
4.0
 40
4.0
 10
143.6703691997515
 20
-136.6405946130875
 30
0.0
 10
143.665274753301
 20
-139.8721821224077
 30
0.0
 10
141.0624607508386
 20
-142.4723636372836
 30
0.0
 10
137.8500589125727
 20
-142.4838802747525
 30
0.0
 10
134.5992377462085
 20
-142.495533335199
 30
0.0
 10
131.9950675446757
 20
-139.8696337094478
 30
0.0
 10
131.9853909319566
 20
-136.6600166448837
 30
0.0
 10
131.9757015295814
 20
-133.4461700714146
 30
0.0
 10
134.5691632213315
 20
-130.8010052606345
 30
0.0
 10
137.8274182502781
 20
-130.8004899069715
 30
0.0
 10
141.0575764909545
 20
-130.7999790148148
 30
0.0
 10
143.6638113789122
 20
-133.4097824145881
 30
0.0
 10
143.6703691997515
 20
-136.6405946130875
 30
0.0
  0
SPLINE
  5
43
330
1F
100
AcDbEntity
  8
LAYER_1
100
AcDbSpline
210
0.0
220
0.0
230
1.0
 70
    11
 71
     3
 72
    17
 73
    13
 74
     0
 42
0.0000000001
 43
0.0000000001
 12
1.0
 22
0.0
 32
0.0
 13
1.0
 23
0.0
 33
0.0
 40
0.0
 40
0.0
 40
0.0
 40
0.0
 40
1.0
 40
1.0
 40
1.0
 40
2.0
 40
2.0
 40
2.0
 40
3.0
 40
3.0
 40
3.0
 40
4.0
 40
4.0
 40
4.0
 40
4.0
 10
143.0397936405286
 20
-136.6436958563731
 30
0.0
 10
143.0426601093863
 20
-133.7700148237068
 30
0.0
 10
140.7100690937648
 20
-131.4302530752894
 30
0.0
 10
137.828851484706
 20
-131.4293441175396
 30
0.0
 10
134.9601764615018
 20
-131.4284393238614
 30
0.0
 10
132.6291705698457
 20
-133.7481213151644
 30
0.0
 10
132.6145790615575
 20
-136.6146797993135
 30
0.0
 10
132.5998652088261
 20
-139.5052606249914
 30
0.0
 10
134.9366101851628
 20
-141.8439676730867
 30
0.0
 10
137.8063385206639
 20
-141.8550441085022
 30
0.0
 10
140.6935841217852
 20
-141.8661895485651
 30
0.0
 10
143.0409611674137
 20
-139.5260389550017
 30
0.0
 10
143.0397936405286
 20
-136.6436958563731
 30
0.0
  0
HATCH
  5
44
330
1F
100
AcDbEntity
  8
LAYER_1
 62
     7
100
AcDbHatch
 10
0.0
 20
0.0
 30
0.0
210
0.0
220
0.0
230
1.0
  2
SOLID
 70
     1
 71
     0
 91
        2
 92
        1
 93
        1
 72
     4
 94
        3
 73
     0
 74
     1
 95
       17
 96
       13
 40
0.0
 40
0.0
 40
0.0
 40
0.0
 40
1.0
 40
1.0
 40
1.0
 40
2.0
 40
2.0
 40
2.0
 40
3.0
 40
3.0
 40
3.0
 40
4.0
 40
4.0
 40
4.0
 40
4.0
 10
143.6703691997515
 20
-136.6405946130875
 10
143.665274753301
 20
-139.8721821224077
 10
141.0624607508386
 20
-142.4723636372836
 10
137.8500589125727
 20
-142.4838802747525
 10
134.5992377462085
 20
-142.495533335199
 10
131.9950675446757
 20
-139.8696337094478
 10
131.9853909319566
 20
-136.6600166448837
 10
131.9757015295814
 20
-133.4461700714146
 10
134.5691632213315
 20
-130.8010052606345
 10
137.8274182502781
 20
-130.8004899069715
 10
141.0575764909545
 20
-130.7999790148148
 10
143.6638113789122
 20
-133.4097824145881
 10
143.6703691997515
 20
-136.6405946130875
 97
        0
 92
        1
 93
        1
 72
     4
 94
        3
 73
     0
 74
     1
 95
       17
 96
       13
 40
0.0
 40
0.0
 40
0.0
 40
0.0
 40
1.0
 40
1.0
 40
1.0
 40
2.0
 40
2.0
 40
2.0
 40
3.0
 40
3.0
 40
3.0
 40
4.0
 40
4.0
 40
4.0
 40
4.0
 10
143.0397936405286
 20
-136.6436958563731
 10
143.0426601093863
 20
-133.7700148237068
 10
140.7100690937648
 20
-131.4302530752894
 10
137.828851484706
 20
-131.4293441175396
 10
134.9601764615018
 20
-131.4284393238614
 10
132.6291705698457
 20
-133.7481213151644
 10
132.6145790615575
 20
-136.6146797993135
 10
132.5998652088261
 20
-139.5052606249914
 10
134.9366101851628
 20
-141.8439676730867
 10
137.8063385206639
 20
-141.8550441085022
 10
140.6935841217852
 20
-141.8661895485651
 10
143.0409611674137
 20
-139.5260389550017
 10
143.0397936405286
 20
-136.6436958563731
 97
        0
 75
     2
 76
     1
 98
        0
  0
SPLINE
  5
45
330
1F
100
AcDbEntity
  8
LAYER_1
100
AcDbSpline
210
0.0
220
0.0
230
1.0
 70
    11
 71
     3
 72
   143
 73
   139
 74
     0
 42
0.0000000001
 43
0.0000000001
 12
1.0
 22
0.0
 32
0.0
 13
1.0
 23
0.0
 33
0.0
 40
0.0
 40
0.0
 40
0.0
 40
0.0
 40
1.0
 40
1.0
 40
1.0
 40
2.0
 40
2.0
 40
2.0
 40
3.0
 40
3.0
 40
3.0
 40
4.0
 40
4.0
 40
4.0
 40
5.0
 40
5.0
 40
5.0
 40
6.0
 40
6.0
 40
6.0
 40
7.0
 40
7.0
 40
7.0
 40
8.0
 40
8.0
 40
8.0
 40
9.0
 40
9.0
 40
9.0
 40
10.0
 40
10.0
 40
10.0
 40
11.0
 40
11.0
 40
11.0
 40
12.0
 40
12.0
 40
12.0
 40
13.0
 40
13.0
 40
13.0
 40
14.0
 40
14.0
 40
14.0
 40
15.0
 40
15.0
 40
15.0
 40
16.0
 40
16.0
 40
16.0
 40
17.0
 40
17.0
 40
17.0
 40
18.0
 40
18.0
 40
18.0
 40
19.0
 40
19.0
 40
19.0
 40
20.0
 40
20.0
 40
20.0
 40
21.0
 40
21.0
 40
21.0
 40
22.0
 40
22.0
 40
22.0
 40
23.0
 40
23.0
 40
23.0
 40
24.0
 40
24.0
 40
24.0
 40
25.0
 40
25.0
 40
25.0
 40
26.0
 40
26.0
 40
26.0
 40
27.0
 40
27.0
 40
27.0
 40
28.0
 40
28.0
 40
28.0
 40
29.0
 40
29.0
 40
29.0
 40
30.0
 40
30.0
 40
30.0
 40
31.0
 40
31.0
 40
31.0
 40
32.0
 40
32.0
 40
32.0
 40
33.0
 40
33.0
 40
33.0
 40
34.0
 40
34.0
 40
34.0
 40
35.0
 40
35.0
 40
35.0
 40
36.0
 40
36.0
 40
36.0
 40
37.0
 40
37.0
 40
37.0
 40
38.0
 40
38.0
 40
38.0
 40
39.0
 40
39.0
 40
39.0
 40
40.0
 40
40.0
 40
40.0
 40
41.0
 40
41.0
 40
41.0
 40
42.0
 40
42.0
 40
42.0
 40
43.0
 40
43.0
 40
43.0
 40
44.0
 40
44.0
 40
44.0
 40
45.0
 40
45.0
 40
45.0
 40
46.0
 40
46.0
 40
46.0
 40
46.0
 10
138.9632490000423
 20
-134.5657414141953
 30
0.0
 10
138.9797419035901
 20
-134.5490232541019
 30
0.0
 10
138.985284483661
 20
-134.5275120471618
 30
0.0
 10
138.9938783381346
 20
-134.5079087790252
 30
0.0
 10
139.0990184170695
 20
-134.2680613200855
 30
0.0
 10
139.2037127418548
 20
-134.0280187445598
 30
0.0
 10
139.3085101770313
 20
-133.7880213789749
 30
0.0
 10
139.3310294863281
 20
-133.736451906874
 30
0.0
 10
139.3533624037653
 20
-133.6848003430396
 30
0.0
 10
139.3760855543725
 20
-133.6333208942412
 30
0.0
 10
139.3839473250742
 20
-133.6155113503224
 30
0.0
 10
139.3918003710498
 20
-133.5975915576002
 30
0.0
 10
139.4012508349236
 20
-133.5806084831187
 30
0.0
 10
139.4608732285261
 20
-133.473458544725
 30
0.0
 10
139.5826220119091
 20
-133.4056333229748
 30
0.0
 10
139.7189886760453
 20
-133.423814857457
 30
0.0
 10
139.8407525294094
 20
-133.4400491918716
 30
0.0
 10
139.944975719025
 20
-133.5287998742282
 30
0.0
 10
139.9780257718247
 20
-133.6492633469342
 30
0.0
 10
139.9950080531488
 20
-133.7111621006984
 30
0.0
 10
139.9943402150811
 20
-133.7735458698758
 30
0.0
 10
139.9728972196298
 20
-133.8347034185629
 30
0.0
 10
139.9657477037798
 20
-133.8550911188249
 30
0.0
 10
139.9571657466585
 20
-133.8750132360147
 30
0.0
 10
139.9485084396364
 20
-133.8948294667662
 30
0.0
 10
139.7492254014976
 20
-134.3509941969434
 30
0.0
 10
139.5498321145567
 20
-134.8071105445526
 30
0.0
 10
139.3505054527906
 20
-135.2632558423875
 30
0.0
 10
139.3409772595464
 20
-135.2850593276275
 30
0.0
 10
139.331884509413
 20
-135.3070515841979
 30
0.0
 10
139.3230344652756
 20
-135.3279044709518
 30
0.0
 10
139.322927389101
 20
-135.3497626840141
 30
0.0
 10
139.3345043064891
 20
-135.36605967782
 30
0.0
 10
139.3427682077139
 20
-135.3834567801769
 30
0.0
 10
139.4486538540883
 20
-135.6063330619894
 30
0.0
 10
139.5545339483652
 20
-135.829211326693
 30
0.0
 10
139.6606337470895
 20
-136.0519848946921
 30
0.0
 10
140.0878248540994
 20
-136.948942182129
 30
0.0
 10
140.5150976562646
 20
-137.8458598117234
 30
0.0
 10
140.9422752796087
 20
-138.7428242375712
 30
0.0
 10
140.9515766299933
 20
-138.762354931856
 30
0.0
 10
140.9614339833295
 20
-138.7817769636521
 30
0.0
 10
140.9687516484327
 20
-138.8020722611416
 30
0.0
 10
141.0211071389716
 20
-138.9472992804528
 30
0.0
 10
140.9674905290395
 20
-139.1090882079587
 30
0.0
 10
140.8266948770511
 20
-139.1880152461444
 30
0.0
 10
140.7943753217104
 20
-139.2061341212354
 30
0.0
 10
140.7598722055596
 20
-139.2192045529738
 30
0.0
 10
140.7226255598642
 20
-139.2224953607459
 30
0.0
 10
140.6924744953513
 20
-139.2251579882933
 30
0.0
 10
140.662185421548
 20
-139.227535079374
 30
0.0
 10
140.6319463166257
 20
-139.2276841928619
 30
0.0
 10
140.5128395387115
 20
-139.2282719220879
 30
0.0
 10
140.3937287950132
 20
-139.2279332441128
 30
0.0
 10
140.2746196376289
 20
-139.2279332441128
 30
0.0
 10
139.341235828679
 20
-139.2279332441128
 30
0.0
 10
138.4078520197298
 20
-139.2279284851714
 30
0.0
 10
137.4744682107806
 20
-139.2279435551518
 30
0.0
 10
137.4376550253047
 20
-139.2279443483085
 30
0.0
 10
137.4009195691987
 20
-139.2279578319749
 30
0.0
 10
137.3642610493069
 20
-139.2229387354261
 30
0.0
 10
137.2182150955464
 20
-139.2029440443831
 30
0.0
 10
137.104595376724
 20
-139.0753496950126
 30
0.0
 10
137.0984872758179
 20
-138.9299600785457
 30
0.0
 10
137.0961621365111
 20
-138.874624697719
 30
0.0
 10
137.1074880197572
 20
-138.8227181339578
 30
0.0
 10
137.1297507428132
 20
-138.7723122229559
 30
0.0
 10
137.1822176718905
 20
-138.6535219146254
 30
0.0
 10
137.2338121284318
 20
-138.5343461320651
 30
0.0
 10
137.2858317170448
 20
-138.4153583276785
 30
0.0
 10
137.724518839445
 20
-137.4119165604455
 30
0.0
 10
138.1632551375695
 20
-136.4084970016039
 30
0.0
 10
138.6018439085201
 20
-135.4050124039003
 30
0.0
 10
138.6303523451948
 20
-135.3397823913655
 30
0.0
 10
138.6301429517858
 20
-135.3516944175236
 30
0.0
 10
138.6008429445748
 20
-135.2901216512253
 30
0.0
 10
138.3413608878025
 20
-134.7448334549715
 30
0.0
 10
138.0817432012087
 20
-134.1996099010012
 30
0.0
 10
137.8219724353428
 20
-133.6544585243045
 30
0.0
 10
137.8136728420596
 20
-133.6370404032913
 30
0.0
 10
137.8035537469627
 20
-133.6204539072353
 30
0.0
 10
137.7934806549619
 20
-133.603969728413
 30
0.0
 10
137.7924463784283
 20
-133.6022775282723
 30
0.0
 10
137.7837446546234
 20
-133.602366758418
 30
0.0
 10
137.7822551060572
 20
-133.6043595650052
 30
0.0
 10
137.7758717797259
 20
-133.6129050369113
 30
0.0
 10
137.7699897285227
 20
-133.6220687745827
 30
0.0
 10
137.7654845976122
 20
-133.6317341839623
 30
0.0
 10
137.7371403444058
 20
-133.6925467094196
 30
0.0
 10
137.7092719853099
 20
-133.7535813187943
 30
0.0
 10
137.6811402981387
 20
-133.8144933854363
 30
0.0
 10
137.0368054504533
 20
-135.2096277316814
 30
0.0
 10
136.3924416525433
 20
-136.6047485942613
 30
0.0
 10
135.748122667995
 20
-137.9998908720752
 30
0.0
 10
135.5956640410989
 20
-138.3300090984757
 30
0.0
 10
135.4433533379556
 20
-138.6601963295216
 30
0.0
 10
135.2909482491462
 20
-138.9903399369414
 30
0.0
 10
135.2809699393906
 20
-139.0119550474287
 30
0.0
 10
135.2713453775885
 20
-139.0337621018744
 30
0.0
 10
135.2605683588845
 20
-139.05497746131
 30
0.0
 10
135.201557885791
 20
-139.1711487657205
 30
0.0
 10
135.0785618632609
 20
-139.2366095868996
 30
0.0
 10
134.9497174986941
 20
-139.2253745201126
 30
0.0
 10
134.8429669147743
 20
-139.2160660313165
 30
0.0
 10
134.7151199449464
 20
-139.1418955547629
 30
0.0
 10
134.6762318611485
 20
-138.9919944621314
 30
0.0
 10
134.6589501631135
 20
-138.9253803908917
 30
0.0
 10
134.6625665617737
 20
-138.8588242201017
 30
0.0
 10
134.6887308233765
 20
-138.79445716222
 30
0.0
 10
134.6968741647596
 20
-138.7744236064918
 30
0.0
 10
134.7063868914449
 20
-138.7549389153045
 30
0.0
 10
134.7154606058145
 20
-138.735289247492
 30
0.0
 10
135.360628664771
 20
-137.3381593186106
 30
0.0
 10
136.0058256739516
 20
-135.9410412870823
 30
0.0
 10
136.6509984918496
 20
-134.5439129445149
 30
0.0
 10
136.9268528923281
 20
-133.9465464660409
 30
0.0
 10
137.2026533581416
 20
-133.3491550031271
 30
0.0
 10
137.4785216388649
 20
-132.7517944733296
 30
0.0
 10
137.4875953532344
 20
-132.732146788409
 30
0.0
 10
137.4959453119769
 20
-132.712033520418
 30
0.0
 10
137.5066632404961
 20
-132.6932987590326
 30
0.0
 10
137.5675427877071
 20
-132.5868836804603
 30
0.0
 10
137.6589628394437
 20
-132.5292985102271
 30
0.0
 10
137.7822130687439
 20
-132.5287385414906
 30
0.0
 10
137.9055061285162
 20
-132.5281785727548
 30
0.0
 10
137.9973203792068
 20
-132.5850895596647
 30
0.0
 10
138.0591691640888
 20
-132.6909438763432
 30
0.0
 10
138.068970996446
 20
-132.7077191437297
 30
0.0
 10
138.0767248978158
 20
-132.7257119068815
 30
0.0
 10
138.0850982546853
 20
-132.7432969874127
 30
0.0
 10
138.3633392641275
 20
-133.3276088972854
 30
0.0
 10
138.6415310978441
 20
-133.9119430155494
 30
0.0
 10
138.9197705209722
 20
-134.496255322001
 30
0.0
 10
138.9290750439849
 20
-134.5157943444324
 30
0.0
 10
138.9382756634496
 20
-134.5354174414897
 30
0.0
 10
138.9486414303281
 20
-134.5543917362438
 30
0.0
 10
138.9513508541289
 20
-134.5593513460302
 30
0.0
 10
138.9582608366097
 20
-134.562016749626
 30
0.0
 10
138.9632490000423
 20
-134.5657414141953
 30
0.0
  0
SPLINE
  5
46
330
1F
100
AcDbEntity
  8
LAYER_1
100
AcDbSpline
210
0.0
220
0.0
230
1.0
 70
    11
 71
     3
 72
    50
 73
    46
 74
     0
 42
0.0000000001
 43
0.0000000001
 12
1.0
 22
0.0
 32
0.0
 13
1.0
 23
0.0
 33
0.0
 40
0.0
 40
0.0
 40
0.0
 40
0.0
 40
1.0
 40
1.0
 40
1.0
 40
2.0
 40
2.0
 40
2.0
 40
3.0
 40
3.0
 40
3.0
 40
4.0
 40
4.0
 40
4.0
 40
5.0
 40
5.0
 40
5.0
 40
6.0
 40
6.0
 40
6.0
 40
7.0
 40
7.0
 40
7.0
 40
8.0
 40
8.0
 40
8.0
 40
9.0
 40
9.0
 40
9.0
 40
10.0
 40
10.0
 40
10.0
 40
11.0
 40
11.0
 40
11.0
 40
12.0
 40
12.0
 40
12.0
 40
13.0
 40
13.0
 40
13.0
 40
14.0
 40
14.0
 40
14.0
 40
15.0
 40
15.0
 40
15.0
 40
15.0
 10
138.9888132384883
 20
-136.116774705176
 30
0.0
 10
138.9837996940369
 20
-136.1202471458662
 30
0.0
 10
138.9765557925213
 20
-136.1226004422422
 30
0.0
 10
138.9741549067352
 20
-136.1273839712066
 30
0.0
 10
138.9634877402536
 20
-136.1486366090134
 30
0.0
 10
138.9539881006569
 20
-136.1704880802431
 30
0.0
 10
138.9444583210994
 20
-136.1922943415315
 30
0.0
 10
138.6705979169419
 20
-136.8189715348345
 30
0.0
 10
138.3968017584904
 20
-137.4456756954702
 30
0.0
 10
138.1229524585293
 20
-138.0723576477134
 30
0.0
 10
138.0562241727033
 20
-138.2250601703406
 30
0.0
 10
137.9892777687434
 20
-138.3776667209895
 30
0.0
 10
137.922651006994
 20
-138.5304136604008
 30
0.0
 10
137.9157648192187
 20
-138.5461998611944
 30
0.0
 10
137.9101587865998
 20
-138.5625618938629
 30
0.0
 10
137.9044123652187
 20
-138.5788176435115
 30
0.0
 10
137.9017061140453
 20
-138.5864747797457
 30
0.0
 10
137.9092617262024
 20
-138.5966953989204
 30
0.0
 10
137.9177056740314
 20
-138.5969666585627
 30
0.0
 10
137.9393279229308
 20
-138.5976646365914
 30
0.0
 10
137.96096286234
 20
-138.5983808572273
 30
0.0
 10
137.9825922496509
 20
-138.5983879956388
 30
0.0
 10
138.2532871648176
 20
-138.5984807949903
 30
0.0
 10
138.5239820799849
 20
-138.598449068716
 30
0.0
 10
138.7946769951516
 20
-138.598449068716
 30
0.0
 10
139.2234599679602
 20
-138.598449068716
 30
0.0
 10
139.6522429407688
 20
-138.5984752428922
 30
0.0
 10
140.0810259135768
 20
-138.5983768914425
 30
0.0
 10
140.1048055491089
 20
-138.598371339345
 30
0.0
 10
140.1285907367405
 20
-138.5974861762999
 30
0.0
 10
140.1523632338617
 20
-138.5966969852338
 30
0.0
 10
140.160871427396
 20
-138.5964138282384
 30
0.0
 10
140.1675767754091
 20
-138.5858989478715
 30
0.0
 10
140.1641907888142
 20
-138.577929307839
 30
0.0
 10
140.1548997494693
 20
-138.556071491355
 30
0.0
 10
140.1457308562782
 20
-138.5341327728719
 30
0.0
 10
140.1355268933974
 20
-138.5126953295188
 30
0.0
 10
139.8713453822853
 20
-137.9576750987118
 30
0.0
 10
139.6070353797653
 20
-137.4027151478234
 30
0.0
 10
139.3427555172042
 20
-136.8477417132692
 30
0.0
 10
139.2357420017886
 20
-136.6230173759968
 30
0.0
 10
139.1288593572537
 20
-136.3982295861751
 30
0.0
 10
139.0215341311959
 20
-136.1736527760766
 30
0.0
 10
139.0123144759659
 20
-136.1543616151605
 30
0.0
 10
139.006172269316
 20
-136.1330058669632
 30
0.0
 10
138.9888132384883
 20
-136.116774705176
 30
0.0
  0
HATCH
  5
47
330
1F
100
AcDbEntity
  8
LAYER_1
 62
     7
100
AcDbHatch
 10
0.0
 20
0.0
 30
0.0
210
0.0
220
0.0
230
1.0
  2
SOLID
 70
     1
 71
     0
 91
        2
 92
        1
 93
        1
 72
     4
 94
        3
 73
     0
 74
     1
 95
      143
 96
      139
 40
0.0
 40
0.0
 40
0.0
 40
0.0
 40
1.0
 40
1.0
 40
1.0
 40
2.0
 40
2.0
 40
2.0
 40
3.0
 40
3.0
 40
3.0
 40
4.0
 40
4.0
 40
4.0
 40
5.0
 40
5.0
 40
5.0
 40
6.0
 40
6.0
 40
6.0
 40
7.0
 40
7.0
 40
7.0
 40
8.0
 40
8.0
 40
8.0
 40
9.0
 40
9.0
 40
9.0
 40
10.0
 40
10.0
 40
10.0
 40
11.0
 40
11.0
 40
11.0
 40
12.0
 40
12.0
 40
12.0
 40
13.0
 40
13.0
 40
13.0
 40
14.0
 40
14.0
 40
14.0
 40
15.0
 40
15.0
 40
15.0
 40
16.0
 40
16.0
 40
16.0
 40
17.0
 40
17.0
 40
17.0
 40
18.0
 40
18.0
 40
18.0
 40
19.0
 40
19.0
 40
19.0
 40
20.0
 40
20.0
 40
20.0
 40
21.0
 40
21.0
 40
21.0
 40
22.0
 40
22.0
 40
22.0
 40
23.0
 40
23.0
 40
23.0
 40
24.0
 40
24.0
 40
24.0
 40
25.0
 40
25.0
 40
25.0
 40
26.0
 40
26.0
 40
26.0
 40
27.0
 40
27.0
 40
27.0
 40
28.0
 40
28.0
 40
28.0
 40
29.0
 40
29.0
 40
29.0
 40
30.0
 40
30.0
 40
30.0
 40
31.0
 40
31.0
 40
31.0
 40
32.0
 40
32.0
 40
32.0
 40
33.0
 40
33.0
 40
33.0
 40
34.0
 40
34.0
 40
34.0
 40
35.0
 40
35.0
 40
35.0
 40
36.0
 40
36.0
 40
36.0
 40
37.0
 40
37.0
 40
37.0
 40
38.0
 40
38.0
 40
38.0
 40
39.0
 40
39.0
 40
39.0
 40
40.0
 40
40.0
 40
40.0
 40
41.0
 40
41.0
 40
41.0
 40
42.0
 40
42.0
 40
42.0
 40
43.0
 40
43.0
 40
43.0
 40
44.0
 40
44.0
 40
44.0
 40
45.0
 40
45.0
 40
45.0
 40
46.0
 40
46.0
 40
46.0
 40
46.0
 10
138.9632490000423
 20
-134.5657414141953
 10
138.9797419035901
 20
-134.5490232541019
 10
138.985284483661
 20
-134.5275120471618
 10
138.9938783381346
 20
-134.5079087790252
 10
139.0990184170695
 20
-134.2680613200855
 10
139.2037127418548
 20
-134.0280187445598
 10
139.3085101770313
 20
-133.7880213789749
 10
139.3310294863281
 20
-133.736451906874
 10
139.3533624037653
 20
-133.6848003430396
 10
139.3760855543725
 20
-133.6333208942412
 10
139.3839473250742
 20
-133.6155113503224
 10
139.3918003710498
 20
-133.5975915576002
 10
139.4012508349236
 20
-133.5806084831187
 10
139.4608732285261
 20
-133.473458544725
 10
139.5826220119091
 20
-133.4056333229748
 10
139.7189886760453
 20
-133.423814857457
 10
139.8407525294094
 20
-133.4400491918716
 10
139.944975719025
 20
-133.5287998742282
 10
139.9780257718247
 20
-133.6492633469342
 10
139.9950080531488
 20
-133.7111621006984
 10
139.9943402150811
 20
-133.7735458698758
 10
139.9728972196298
 20
-133.8347034185629
 10
139.9657477037798
 20
-133.8550911188249
 10
139.9571657466585
 20
-133.8750132360147
 10
139.9485084396364
 20
-133.8948294667662
 10
139.7492254014976
 20
-134.3509941969434
 10
139.5498321145567
 20
-134.8071105445526
 10
139.3505054527906
 20
-135.2632558423875
 10
139.3409772595464
 20
-135.2850593276275
 10
139.331884509413
 20
-135.3070515841979
 10
139.3230344652756
 20
-135.3279044709518
 10
139.322927389101
 20
-135.3497626840141
 10
139.3345043064891
 20
-135.36605967782
 10
139.3427682077139
 20
-135.3834567801769
 10
139.4486538540883
 20
-135.6063330619894
 10
139.5545339483652
 20
-135.829211326693
 10
139.6606337470895
 20
-136.0519848946921
 10
140.0878248540994
 20
-136.948942182129
 10
140.5150976562646
 20
-137.8458598117234
 10
140.9422752796087
 20
-138.7428242375712
 10
140.9515766299933
 20
-138.762354931856
 10
140.9614339833295
 20
-138.7817769636521
 10
140.9687516484327
 20
-138.8020722611416
 10
141.0211071389716
 20
-138.9472992804528
 10
140.9674905290395
 20
-139.1090882079587
 10
140.8266948770511
 20
-139.1880152461444
 10
140.7943753217104
 20
-139.2061341212354
 10
140.7598722055596
 20
-139.2192045529738
 10
140.7226255598642
 20
-139.2224953607459
 10
140.6924744953513
 20
-139.2251579882933
 10
140.662185421548
 20
-139.227535079374
 10
140.6319463166257
 20
-139.2276841928619
 10
140.5128395387115
 20
-139.2282719220879
 10
140.3937287950132
 20
-139.2279332441128
 10
140.2746196376289
 20
-139.2279332441128
 10
139.341235828679
 20
-139.2279332441128
 10
138.4078520197298
 20
-139.2279284851714
 10
137.4744682107806
 20
-139.2279435551518
 10
137.4376550253047
 20
-139.2279443483085
 10
137.4009195691987
 20
-139.2279578319749
 10
137.3642610493069
 20
-139.2229387354261
 10
137.2182150955464
 20
-139.2029440443831
 10
137.104595376724
 20
-139.0753496950126
 10
137.0984872758179
 20
-138.9299600785457
 10
137.0961621365111
 20
-138.874624697719
 10
137.1074880197572
 20
-138.8227181339578
 10
137.1297507428132
 20
-138.7723122229559
 10
137.1822176718905
 20
-138.6535219146254
 10
137.2338121284318
 20
-138.5343461320651
 10
137.2858317170448
 20
-138.4153583276785
 10
137.724518839445
 20
-137.4119165604455
 10
138.1632551375695
 20
-136.4084970016039
 10
138.6018439085201
 20
-135.4050124039003
 10
138.6303523451948
 20
-135.3397823913655
 10
138.6301429517858
 20
-135.3516944175236
 10
138.6008429445748
 20
-135.2901216512253
 10
138.3413608878025
 20
-134.7448334549715
 10
138.0817432012087
 20
-134.1996099010012
 10
137.8219724353428
 20
-133.6544585243045
 10
137.8136728420596
 20
-133.6370404032913
 10
137.8035537469627
 20
-133.6204539072353
 10
137.7934806549619
 20
-133.603969728413
 10
137.7924463784283
 20
-133.6022775282723
 10
137.7837446546234
 20
-133.602366758418
 10
137.7822551060572
 20
-133.6043595650052
 10
137.7758717797259
 20
-133.6129050369113
 10
137.7699897285227
 20
-133.6220687745827
 10
137.7654845976122
 20
-133.6317341839623
 10
137.7371403444058
 20
-133.6925467094196
 10
137.7092719853099
 20
-133.7535813187943
 10
137.6811402981387
 20
-133.8144933854363
 10
137.0368054504533
 20
-135.2096277316814
 10
136.3924416525433
 20
-136.6047485942613
 10
135.748122667995
 20
-137.9998908720752
 10
135.5956640410989
 20
-138.3300090984757
 10
135.4433533379556
 20
-138.6601963295216
 10
135.2909482491462
 20
-138.9903399369414
 10
135.2809699393906
 20
-139.0119550474287
 10
135.2713453775885
 20
-139.0337621018744
 10
135.2605683588845
 20
-139.05497746131
 10
135.201557885791
 20
-139.1711487657205
 10
135.0785618632609
 20
-139.2366095868996
 10
134.9497174986941
 20
-139.2253745201126
 10
134.8429669147743
 20
-139.2160660313165
 10
134.7151199449464
 20
-139.1418955547629
 10
134.6762318611485
 20
-138.9919944621314
 10
134.6589501631135
 20
-138.9253803908917
 10
134.6625665617737
 20
-138.8588242201017
 10
134.6887308233765
 20
-138.79445716222
 10
134.6968741647596
 20
-138.7744236064918
 10
134.7063868914449
 20
-138.7549389153045
 10
134.7154606058145
 20
-138.735289247492
 10
135.360628664771
 20
-137.3381593186106
 10
136.0058256739516
 20
-135.9410412870823
 10
136.6509984918496
 20
-134.5439129445149
 10
136.9268528923281
 20
-133.9465464660409
 10
137.2026533581416
 20
-133.3491550031271
 10
137.4785216388649
 20
-132.7517944733296
 10
137.4875953532344
 20
-132.732146788409
 10
137.4959453119769
 20
-132.712033520418
 10
137.5066632404961
 20
-132.6932987590326
 10
137.5675427877071
 20
-132.5868836804603
 10
137.6589628394437
 20
-132.5292985102271
 10
137.7822130687439
 20
-132.5287385414906
 10
137.9055061285162
 20
-132.5281785727548
 10
137.9973203792068
 20
-132.5850895596647
 10
138.0591691640888
 20
-132.6909438763432
 10
138.068970996446
 20
-132.7077191437297
 10
138.0767248978158
 20
-132.7257119068815
 10
138.0850982546853
 20
-132.7432969874127
 10
138.3633392641275
 20
-133.3276088972854
 10
138.6415310978441
 20
-133.9119430155494
 10
138.9197705209722
 20
-134.496255322001
 10
138.9290750439849
 20
-134.5157943444324
 10
138.9382756634496
 20
-134.5354174414897
 10
138.9486414303281
 20
-134.5543917362438
 10
138.9513508541289
 20
-134.5593513460302
 10
138.9582608366097
 20
-134.562016749626
 10
138.9632490000423
 20
-134.5657414141953
 97
        0
 92
        1
 93
        1
 72
     4
 94
        3
 73
     0
 74
     1
 95
       50
 96
       46
 40
0.0
 40
0.0
 40
0.0
 40
0.0
 40
1.0
 40
1.0
 40
1.0
 40
2.0
 40
2.0
 40
2.0
 40
3.0
 40
3.0
 40
3.0
 40
4.0
 40
4.0
 40
4.0
 40
5.0
 40
5.0
 40
5.0
 40
6.0
 40
6.0
 40
6.0
 40
7.0
 40
7.0
 40
7.0
 40
8.0
 40
8.0
 40
8.0
 40
9.0
 40
9.0
 40
9.0
 40
10.0
 40
10.0
 40
10.0
 40
11.0
 40
11.0
 40
11.0
 40
12.0
 40
12.0
 40
12.0
 40
13.0
 40
13.0
 40
13.0
 40
14.0
 40
14.0
 40
14.0
 40
15.0
 40
15.0
 40
15.0
 40
15.0
 10
138.9888132384883
 20
-136.116774705176
 10
138.9837996940369
 20
-136.1202471458662
 10
138.9765557925213
 20
-136.1226004422422
 10
138.9741549067352
 20
-136.1273839712066
 10
138.9634877402536
 20
-136.1486366090134
 10
138.9539881006569
 20
-136.1704880802431
 10
138.9444583210994
 20
-136.1922943415315
 10
138.6705979169419
 20
-136.8189715348345
 10
138.3968017584904
 20
-137.4456756954702
 10
138.1229524585293
 20
-138.0723576477134
 10
138.0562241727033
 20
-138.2250601703406
 10
137.9892777687434
 20
-138.3776667209895
 10
137.922651006994
 20
-138.5304136604008
 10
137.9157648192187
 20
-138.5461998611944
 10
137.9101587865998
 20
-138.5625618938629
 10
137.9044123652187
 20
-138.5788176435115
 10
137.9017061140453
 20
-138.5864747797457
 10
137.9092617262024
 20
-138.5966953989204
 10
137.9177056740314
 20
-138.5969666585627
 10
137.9393279229308
 20
-138.5976646365914
 10
137.96096286234
 20
-138.5983808572273
 10
137.9825922496509
 20
-138.5983879956388
 10
138.2532871648176
 20
-138.5984807949903
 10
138.5239820799849
 20
-138.598449068716
 10
138.7946769951516
 20
-138.598449068716
 10
139.2234599679602
 20
-138.598449068716
 10
139.6522429407688
 20
-138.5984752428922
 10
140.0810259135768
 20
-138.5983768914425
 10
140.1048055491089
 20
-138.598371339345
 10
140.1285907367405
 20
-138.5974861762999
 10
140.1523632338617
 20
-138.5966969852338
 10
140.160871427396
 20
-138.5964138282384
 10
140.1675767754091
 20
-138.5858989478715
 10
140.1641907888142
 20
-138.577929307839
 10
140.1548997494693
 20
-138.556071491355
 10
140.1457308562782
 20
-138.5341327728719
 10
140.1355268933974
 20
-138.5126953295188
 10
139.8713453822853
 20
-137.9576750987118
 10
139.6070353797653
 20
-137.4027151478234
 10
139.3427555172042
 20
-136.8477417132692
 10
139.2357420017886
 20
-136.6230173759968
 10
139.1288593572537
 20
-136.3982295861751
 10
139.0215341311959
 20
-136.1736527760766
 10
139.0123144759659
 20
-136.1543616151605
 10
139.006172269316
 20
-136.1330058669632
 10
138.9888132384883
 20
-136.116774705176
 97
        0
 75
     2
 76
     1
 98
        0
  0
POLYLINE
  5
48
330
1F
100
AcDbEntity
  8
LAYER_1
 62
   250
100
AcDb2dPolyline
 66
     1
 10
0.0
 20
0.0
 30
0.0
  0
VERTEX
  5
49
330
48
100
AcDbEntity
  8
LAYER_1
 62
   250
100
AcDbVertex
100
AcDb2dVertex
 10
150.4877351172717
 20
-36.53114657018579
 30
0.0
  0
VERTEX
  5
4A
330
48
100
AcDbEntity
  8
LAYER_1
 62
   250
100
AcDbVertex
100
AcDb2dVertex
 10
150.4877351172717
 20
-69.98338977335702
 30
0.0
  0
SEQEND
  5
4B
330
48
100
AcDbEntity
  8
LAYER_1
 62
   250
  0
POLYLINE
  5
4C
330
1F
100
AcDbEntity
  8
LAYER_1
 62
   250
100
AcDb2dPolyline
 66
     1
 10
0.0
 20
0.0
 30
0.0
  0
VERTEX
  5
4D
330
4C
100
AcDbEntity
  8
LAYER_1
 62
   250
100
AcDbVertex
100
AcDb2dVertex
 10
150.4877351172717
 20
-76.53113825262287
 30
0.0
  0
VERTEX
  5
4E
330
4C
100
AcDbEntity
  8
LAYER_1
 62
   250
100
AcDbVertex
100
AcDb2dVertex
 10
150.4877351172717
 20
-109.7398993323741
 30
0.0
  0
SEQEND
  5
4F
330
4C
100
AcDbEntity
  8
LAYER_1
 62
   250
  0
POLYLINE
  5
50
330
1F
100
AcDbEntity
  8
LAYER_1
 62
   250
100
AcDb2dPolyline
 66
     1
 10
0.0
 20
0.0
 30
0.0
  0
VERTEX
  5
51
330
50
100
AcDbEntity
  8
LAYER_1
 62
   250
100
AcDbVertex
100
AcDb2dVertex
 10
79.48774072991105
 20
-45.58162772840494
 30
0.0
  0
VERTEX
  5
52
330
50
100
AcDbEntity
  8
LAYER_1
 62
   250
100
AcDbVertex
100
AcDb2dVertex
 10
79.48774072991105
 20
-79.03387093157617
 30
0.0
  0
SEQEND
  5
53
330
50
100
AcDbEntity
  8
LAYER_1
 62
   250
  0
POLYLINE
  5
54
330
1F
100
AcDbEntity
  8
LAYER_1
 62
   250
100
AcDb2dPolyline
 66
     1
 10
0.0
 20
0.0
 30
0.0
  0
VERTEX
  5
55
330
54
100
AcDbEntity
  8
LAYER_1
 62
   250
100
AcDbVertex
100
AcDb2dVertex
 10
79.48774072991105
 20
-85.58161941084201
 30
0.0
  0
VERTEX
  5
56
330
54
100
AcDbEntity
  8
LAYER_1
 62
   250
100
AcDbVertex
100
AcDb2dVertex
 10
79.48774072991105
 20
-118.7903589587464
 30
0.0
  0
SEQEND
  5
57
330
54
100
AcDbEntity
  8
LAYER_1
 62
   250
  0
SPLINE
  5
58
330
1F
100
AcDbEntity
  8
LAYER_1
 62
   250
100
AcDbSpline
210
0.0
220
0.0
230
1.0
 70
     8
 71
     3
 72
    14
 73
    10
 74
     0
 42
0.0000000001
 43
0.0000000001
 12
1.0
 22
0.0
 32
0.0
 13
1.0
 23
0.0
 33
0.0
 40
0.0
 40
0.0
 40
0.0
 40
0.0
 40
1.0
 40
1.0
 40
1.0
 40
2.0
 40
2.0
 40
2.0
 40
3.0
 40
3.0
 40
3.0
 40
3.0
 10
150.4877351172717
 20
-116.2876478116399
 30
0.0
 10
150.4877351172717
 20
-116.2876478116399
 30
0.0
 10
150.4877351172717
 20
-139.6518978193622
 30
0.0
 10
150.4877351172717
 20
-139.6518978193622
 30
0.0
 10
150.4877351172717
 20
-144.9124079024112
 30
0.0
 10
146.1623316081534
 20
-149.176897816981
 30
0.0
 10
140.8266753798324
 20
-149.176897816981
 30
0.0
 10
140.8266753798324
 20
-149.176897816981
 30
0.0
 10
136.5787003917451
 20
-149.176897816981
 30
0.0
 10
136.5787003917451
 20
-149.176897816981
 30
0.0
  0
SPLINE
  5
59
330
1F
100
AcDbEntity
  8
LAYER_1
 62
   250
100
AcDbSpline
210
0.0
220
0.0
230
1.0
 70
     8
 71
     3
 72
    17
 73
    13
 74
     0
 42
0.0000000001
 43
0.0000000001
 12
1.0
 22
0.0
 32
0.0
 13
1.0
 23
0.0
 33
0.0
 40
0.0
 40
0.0
 40
0.0
 40
0.0
 40
1.0
 40
1.0
 40
1.0
 40
2.0
 40
2.0
 40
2.0
 40
3.0
 40
3.0
 40
3.0
 40
4.0
 40
4.0
 40
4.0
 40
4.0
 10
79.48774072991105
 20
-125.3381289698591
 30
0.0
 10
79.48774072991105
 20
-125.3381289698591
 30
0.0
 10
79.48774072991105
 20
-139.6518978193622
 30
0.0
 10
79.48774072991105
 20
-139.6518978193622
 30
0.0
 10
79.48774072991105
 20
-144.9124079024112
 30
0.0
 10
83.81314423902936
 20
-149.176897816981
 30
0.0
 10
89.14880046735038
 20
-149.176897816981
 30
0.0
 10
89.14880046735038
 20
-149.176897816981
 30
0.0
 10
90.8496871721118
 20
-149.176897816981
 30
0.0
 10
90.8496871721118
 20
-149.176897816981
 30
0.0
 10
90.8496871721118
 20
-149.176897816981
 30
0.0
 10
92.57531396882666
 20
-149.176897816981
 30
0.0
 10
92.57531396882666
 20
-149.176897816981
 30
0.0
  0
SPLINE
  5
5A
330
1F
100
AcDbEntity
  8
LAYER_1
 62
   250
100
AcDbSpline
210
0.0
220
0.0
230
1.0
 70
     8
 71
     3
 72
    20
 73
    16
 74
     0
 42
0.0000000001
 43
0.0000000001
 12
1.0
 22
0.0
 32
0.0
 13
1.0
 23
0.0
 33
0.0
 40
0.0
 40
0.0
 40
0.0
 40
0.0
 40
1.0
 40
1.0
 40
1.0
 40
2.0
 40
2.0
 40
2.0
 40
3.0
 40
3.0
 40
3.0
 40
4.0
 40
4.0
 40
4.0
 40
5.0
 40
5.0
 40
5.0
 40
5.0
 10
79.48774072991105
 20
-39.03385771729232
 30
0.0
 10
79.48774072991105
 20
-39.03385771729232
 30
0.0
 10
79.48774072991105
 20
-15.52689462909354
 30
0.0
 10
79.48774072991105
 20
-15.52689462909354
 30
0.0
 10
79.48774072991105
 20
-10.26638454604451
 30
0.0
 10
83.81314423902936
 20
-6.001894631474787
 30
0.0
 10
89.14880046735038
 20
-6.001894631474787
 30
0.0
 10
89.14880046735038
 20
-6.001894631474787
 30
0.0
 10
140.8266753798324
 20
-6.001894631474787
 30
0.0
 10
140.8266753798324
 20
-6.001894631474787
 30
0.0
 10
146.1623316081534
 20
-6.001894631474787
 30
0.0
 10
150.4877351172717
 20
-10.26638454604451
 30
0.0
 10
150.4877351172717
 20
-15.52689462909354
 30
0.0
 10
150.4877351172717
 20
-15.52689462909354
 30
0.0
 10
150.4877351172717
 20
-29.98337655907317
 30
0.0
 10
150.4877351172717
 20
-29.98337655907317
 30
0.0
  0
POLYLINE
  5
5B
330
1F
100
AcDbEntity
  8
LAYER_1
 62
   250
100
AcDb2dPolyline
 66
     1
 10
0.0
 20
0.0
 30
0.0
  0
VERTEX
  5
5C
330
5B
100
AcDbEntity
  8
LAYER_1
 62
   250
100
AcDbVertex
100
AcDb2dVertex
 10
98.72086908203637
 20
-146.964909665136
 30
0.0
  0
VERTEX
  5
5D
330
5B
100
AcDbEntity
  8
LAYER_1
 62
   250
100
AcDbVertex
100
AcDb2dVertex
 10
97.76687907847712
 20
-147.9485705535619
 30
0.0
  0
SEQEND
  5
5E
330
5B
100
AcDbEntity
  8
LAYER_1
 62
   250
  0
POLYLINE
  5
5F
330
1F
100
AcDbEntity
  8
LAYER_1
 62
   250
100
AcDb2dPolyline
 66
     1
 10
0.0
 20
0.0
 30
0.0
  0
VERTEX
  5
60
330
5F
100
AcDbEntity
  8
LAYER_1
 62
   250
100
AcDbVertex
100
AcDb2dVertex
 10
118.592222904651
 20
-133.3981021123753
 30
0.0
  0
VERTEX
  5
61
330
5F
100
AcDbEntity
  8
LAYER_1
 62
   250
100
AcDbVertex
100
AcDb2dVertex
 10
119.4894764919375
 20
-134.3607263864945
 30
0.0
  0
SEQEND
  5
62
330
5F
100
AcDbEntity
  8
LAYER_1
 62
   250
  0
POLYLINE
  5
63
330
1F
100
AcDbEntity
  8
LAYER_1
 62
   250
100
AcDb2dPolyline
 66
     1
 10
0.0
 20
0.0
 30
0.0
  0
VERTEX
  5
64
330
63
100
AcDbEntity
  8
LAYER_1
 62
   250
100
AcDbVertex
100
AcDb2dVertex
 10
130.6867043062498
 20
-147.0793298989398
 30
0.0
  0
VERTEX
  5
65
330
63
100
AcDbEntity
  8
LAYER_1
 62
   250
100
AcDbVertex
100
AcDb2dVertex
 10
119.4894764919375
 20
-134.3607263864945
 30
0.0
  0
SEQEND
  5
66
330
63
100
AcDbEntity
  8
LAYER_1
 62
   250
  0
POLYLINE
  5
67
330
1F
100
AcDbEntity
  8
LAYER_1
 62
   250
100
AcDb2dPolyline
 66
     1
 10
0.0
 20
0.0
 30
0.0
  0
VERTEX
  5
68
330
67
100
AcDbEntity
  8
LAYER_1
 62
   250
100
AcDbVertex
100
AcDb2dVertex
 10
110.5290845806577
 20
-134.0837837731739
 30
0.0
  0
VERTEX
  5
69
330
67
100
AcDbEntity
  8
LAYER_1
 62
   250
100
AcDbVertex
100
AcDb2dVertex
 10
98.72086908203637
 20
-146.964909665136
 30
0.0
  0
SEQEND
  5
6A
330
67
100
AcDbEntity
  8
LAYER_1
 62
   250
  0
POLYLINE
  5
6B
330
1F
100
AcDbEntity
  8
LAYER_1
 62
   250
100
AcDb2dPolyline
 66
     1
 10
0.0
 20
0.0
 30
0.0
  0
VERTEX
  5
6C
330
6B
100
AcDbEntity
  8
LAYER_1
 62
   250
100
AcDbVertex
100
AcDb2dVertex
 10
131.2141914887351
 20
-147.6452514279324
 30
0.0
  0
VERTEX
  5
6D
330
6B
100
AcDbEntity
  8
LAYER_1
 62
   250
100
AcDbVertex
100
AcDb2dVertex
 10
131.1527611298637
 20
-147.5793424449303
 30
0.0
  0
SEQEND
  5
6E
330
6B
100
AcDbEntity
  8
LAYER_1
 62
   250
  0
POLYLINE
  5
6F
330
1F
100
AcDbEntity
  8
LAYER_1
 62
   250
100
AcDb2dPolyline
 66
     1
 10
0.0
 20
0.0
 30
0.0
  0
VERTEX
  5
70
330
6F
100
AcDbEntity
  8
LAYER_1
 62
   250
100
AcDbVertex
100
AcDb2dVertex
 10
110.5290845806577
 20
-134.0837837731739
 30
0.0
  0
VERTEX
  5
71
330
6F
100
AcDbEntity
  8
LAYER_1
 62
   250
100
AcDbVertex
100
AcDb2dVertex
 10
111.0468609002439
 20
-133.5499016321941
 30
0.0
  0
SEQEND
  5
72
330
6F
100
AcDbEntity
  8
LAYER_1
 62
   250
  0
POLYLINE
  5
73
330
1F
100
AcDbEntity
  8
LAYER_1
 62
   250
100
AcDb2dPolyline
 66
     1
 10
0.0
 20
0.0
 30
0.0
  0
VERTEX
  5
74
330
73
100
AcDbEntity
  8
LAYER_1
 62
   250
100
AcDbVertex
100
AcDb2dVertex
 10
135.6173464965861
 20
-149.176897816981
 30
0.0
  0
VERTEX
  5
75
330
73
100
AcDbEntity
  8
LAYER_1
 62
   250
100
AcDbVertex
100
AcDb2dVertex
 10
134.6317477419497
 20
-149.176897816981
 30
0.0
  0
SEQEND
  5
76
330
73
100
AcDbEntity
  8
LAYER_1
 62
   250
  0
POLYLINE
  5
77
330
1F
100
AcDbEntity
  8
LAYER_1
 62
   250
100
AcDb2dPolyline
 66
     1
 10
0.0
 20
0.0
 30
0.0
  0
VERTEX
  5
78
330
77
100
AcDbEntity
  8
LAYER_1
 62
   250
100
AcDbVertex
100
AcDb2dVertex
 10
136.5787003917451
 20
-149.176897816981
 30
0.0
  0
VERTEX
  5
79
330
77
100
AcDbEntity
  8
LAYER_1
 62
   250
100
AcDbVertex
100
AcDb2dVertex
 10
135.6173464965861
 20
-149.176897816981
 30
0.0
  0
SEQEND
  5
7A
330
77
100
AcDbEntity
  8
LAYER_1
 62
   250
  0
POLYLINE
  5
7B
330
1F
100
AcDbEntity
  8
LAYER_1
 62
   250
100
AcDb2dPolyline
 66
     1
 10
0.0
 20
0.0
 30
0.0
  0
VERTEX
  5
7C
330
7B
100
AcDbEntity
  8
LAYER_1
 62
   250
100
AcDbVertex
100
AcDb2dVertex
 10
94.64097168993568
 20
-149.176897816981
 30
0.0
  0
VERTEX
  5
7D
330
7B
100
AcDbEntity
  8
LAYER_1
 62
   250
100
AcDbVertex
100
AcDb2dVertex
 10
93.75687406103344
 20
-149.176897816981
 30
0.0
  0
SEQEND
  5
7E
330
7B
100
AcDbEntity
  8
LAYER_1
 62
   250
  0
POLYLINE
  5
7F
330
1F
100
AcDbEntity
  8
LAYER_1
 62
   250
100
AcDb2dPolyline
 66
     1
 10
0.0
 20
0.0
 30
0.0
  0
VERTEX
  5
80
330
7F
100
AcDbEntity
  8
LAYER_1
 62
   250
100
AcDbVertex
100
AcDb2dVertex
 10
92.57531396882666
 20
-149.176897816981
 30
0.0
  0
VERTEX
  5
81
330
7F
100
AcDbEntity
  8
LAYER_1
 62
   250
100
AcDbVertex
100
AcDb2dVertex
 10
93.75687406103344
 20
-149.176897816981
 30
0.0
  0
SEQEND
  5
82
330
7F
100
AcDbEntity
  8
LAYER_1
 62
   250
  0
SPLINE
  5
83
330
1F
100
AcDbEntity
  8
LAYER_1
 62
   250
100
AcDbSpline
210
0.0
220
0.0
230
1.0
 70
     8
 71
     3
 72
     8
 73
     4
 74
     0
 42
0.0000000001
 43
0.0000000001
 12
1.0
 22
0.0
 32
0.0
 13
1.0
 23
0.0
 33
0.0
 40
0.0
 40
0.0
 40
0.0
 40
0.0
 40
1.0
 40
1.0
 40
1.0
 40
1.0
 10
111.0468609002439
 20
-133.5499016321941
 30
0.0
 10
110.8639047981304
 20
-133.7179146326404
 30
0.0
 10
110.6882479920762
 20
-133.8934207157671
 30
0.0
 10
110.5290845806577
 20
-134.0837837731739
 30
0.0
  0
SPLINE
  5
84
330
1F
100
AcDbEntity
  8
LAYER_1
 62
   250
100
AcDbSpline
210
0.0
220
0.0
230
1.0
 70
     8
 71
     3
 72
    11
 73
     7
 74
     0
 42
0.0000000001
 43
0.0000000001
 12
1.0
 22
0.0
 32
0.0
 13
1.0
 23
0.0
 33
0.0
 40
0.0
 40
0.0
 40
0.0
 40
0.0
 40
1.0
 40
1.0
 40
1.0
 40
2.0
 40
2.0
 40
2.0
 40
2.0
 10
118.592222904651
 20
-133.3981021123753
 30
0.0
 10
117.6006167647622
 20
-132.5583170241521
 30
0.0
 10
116.3139812602553
 20
-132.0477108095445
 30
0.0
 10
114.9042266558443
 20
-132.0477108095445
 30
0.0
 10
113.4121558011825
 20
-132.0477108095445
 30
0.0
 10
112.0588792308829
 20
-132.6206086568948
 30
0.0
 10
111.0468609002439
 20
-133.5499016321941
 30
0.0
  0
SPLINE
  5
85
330
1F
100
AcDbEntity
  8
LAYER_1
 62
   250
100
AcDbSpline
210
0.0
220
0.0
230
1.0
 70
     8
 71
     3
 72
     8
 73
     4
 74
     0
 42
0.0000000001
 43
0.0000000001
 12
1.0
 22
0.0
 32
0.0
 13
1.0
 23
0.0
 33
0.0
 40
0.0
 40
0.0
 40
0.0
 40
0.0
 40
1.0
 40
1.0
 40
1.0
 40
1.0
 10
119.4894764919375
 20
-134.3607263864945
 30
0.0
 10
119.2286612318573
 20
-134.006355252143
 30
0.0
 10
118.9284857558582
 20
-133.6828823179248
 30
0.0
 10
118.592222904651
 20
-133.3981021123753
 30
0.0
  0
SPLINE
  5
86
330
1F
100
AcDbEntity
  8
LAYER_1
 62
   250
100
AcDbSpline
210
0.0
220
0.0
230
1.0
 70
     8
 71
     3
 72
     8
 73
     4
 74
     0
 42
0.0000000001
 43
0.0000000001
 12
1.0
 22
0.0
 32
0.0
 13
1.0
 23
0.0
 33
0.0
 40
0.0
 40
0.0
 40
0.0
 40
0.0
 40
1.0
 40
1.0
 40
1.0
 40
1.0
 10
130.7124348631552
 20
-147.1069337265154
 30
0.0
 10
130.7176240382299
 20
-147.1133286850099
 30
0.0
 10
130.7220811305139
 20
-147.1202834715207
 30
0.0
 10
130.7273133692821
 20
-147.1266568981684
 30
0.0
  0
SPLINE
  5
87
330
1F
100
AcDbEntity
  8
LAYER_1
 62
   250
100
AcDbSpline
210
0.0
220
0.0
230
1.0
 70
     8
 71
     3
 72
     8
 73
     4
 74
     0
 42
0.0000000001
 43
0.0000000001
 12
1.0
 22
0.0
 32
0.0
 13
1.0
 23
0.0
 33
0.0
 40
0.0
 40
0.0
 40
0.0
 40
0.0
 40
1.0
 40
1.0
 40
1.0
 40
1.0
 10
131.2141914887351
 20
-147.6452514279324
 30
0.0
 10
131.2082917627166
 20
-147.6396746796157
 30
0.0
 10
131.2016814857543
 20
-147.6348730777831
 30
0.0
 10
131.1958032915826
 20
-147.6292747976196
 30
0.0
  0
SPLINE
  5
88
330
1F
100
AcDbEntity
  8
LAYER_1
 62
   250
100
AcDbSpline
210
0.0
220
0.0
230
1.0
 70
     8
 71
     3
 72
     8
 73
     4
 74
     0
 42
0.0000000001
 43
0.0000000001
 12
1.0
 22
0.0
 32
0.0
 13
1.0
 23
0.0
 33
0.0
 40
0.0
 40
0.0
 40
0.0
 40
0.0
 40
1.0
 40
1.0
 40
1.0
 40
1.0
 10
134.6317477419497
 20
-149.176897816981
 30
0.0
 10
133.3095200947108
 20
-149.0628005608788
 30
0.0
 10
132.1190027542424
 20
-148.5007547643071
 30
0.0
 10
131.2141914887351
 20
-147.6452514279324
 30
0.0
  0
POLYLINE
  5
89
330
1F
100
AcDbEntity
  8
LAYER_1
 62
   250
100
AcDb2dPolyline
 66
     1
 10
0.0
 20
0.0
 30
0.0
  0
VERTEX
  5
8A
330
89
100
AcDbEntity
  8
LAYER_1
 62
   250
100
AcDbVertex
100
AcDb2dVertex
 10
130.7124348631552
 20
-147.1069337265154
 30
0.0
  0
VERTEX
  5
8B
330
89
100
AcDbEntity
  8
LAYER_1
 62
   250
100
AcDbVertex
100
AcDb2dVertex
 10
130.6867043062498
 20
-147.0793298989398
 30
0.0
  0
SEQEND
  5
8C
330
89
100
AcDbEntity
  8
LAYER_1
 62
   250
  0
POLYLINE
  5
8D
330
1F
100
AcDbEntity
  8
LAYER_1
 62
   250
100
AcDb2dPolyline
 66
     1
 10
0.0
 20
0.0
 30
0.0
  0
VERTEX
  5
8E
330
8D
100
AcDbEntity
  8
LAYER_1
 62
   250
100
AcDbVertex
100
AcDb2dVertex
 10
131.1527611298637
 20
-147.5793424449303
 30
0.0
  0
VERTEX
  5
8F
330
8D
100
AcDbEntity
  8
LAYER_1
 62
   250
100
AcDbVertex
100
AcDb2dVertex
 10
130.7124348631552
 20
-147.1069337265154
 30
0.0
  0
SEQEND
  5
90
330
8D
100
AcDbEntity
  8
LAYER_1
 62
   250
  0
SPLINE
  5
91
330
1F
100
AcDbEntity
  8
LAYER_1
 62
   250
100
AcDbSpline
210
0.0
220
0.0
230
1.0
 70
     8
 71
     3
 72
     8
 73
     4
 74
     0
 42
0.0000000001
 43
0.0000000001
 12
1.0
 22
0.0
 32
0.0
 13
1.0
 23
0.0
 33
0.0
 40
0.0
 40
0.0
 40
0.0
 40
0.0
 40
1.0
 40
1.0
 40
1.0
 40
1.0
 10
97.76687907847712
 20
-147.9485705535619
 30
0.0
 10
96.90045909578357
 20
-148.6432955900093
 30
0.0
 10
95.82134753056941
 20
-149.0867009108078
 30
0.0
 10
94.64097168993568
 20
-149.176897816981
 30
0.0
  0
SPLINE
  5
92
330
1F
100
AcDbEntity
  8
LAYER_1
 62
   250
100
AcDbSpline
210
0.0
220
0.0
230
1.0
 70
     8
 71
     3
 72
    20
 73
    16
 74
     0
 42
0.0000000001
 43
0.0000000001
 12
1.0
 22
0.0
 32
0.0
 13
1.0
 23
0.0
 33
0.0
 40
0.0
 40
0.0
 40
0.0
 40
0.0
 40
1.0
 40
1.0
 40
1.0
 40
2.0
 40
2.0
 40
2.0
 40
3.0
 40
3.0
 40
3.0
 40
4.0
 40
4.0
 40
4.0
 40
5.0
 40
5.0
 40
5.0
 40
5.0
 10
79.48774072991105
 20
-125.3381289698591
 30
0.0
 10
79.48774072991105
 20
-125.3381289698591
 30
0.0
 10
80.21603391549287
 20
-125.3381289698591
 30
0.0
 10
80.21603391549287
 20
-125.3381289698591
 30
0.0
 10
80.81937779419403
 20
-125.3381289698591
 30
0.0
 10
81.30849522571238
 20
-124.8490115383407
 30
0.0
 10
81.30849522571238
 20
-124.2456676596395
 30
0.0
 10
81.30849522571238
 20
-124.2456676596395
 30
0.0
 10
81.30849522571238
 20
-119.8828418008127
 30
0.0
 10
81.30849522571238
 20
-119.8828418008127
 30
0.0
 10
81.30849522571238
 20
-119.2794763902648
 30
0.0
 10
80.81937779419403
 20
-118.7903589587464
 30
0.0
 10
80.21603391549287
 20
-118.7903589587464
 30
0.0
 10
80.21603391549287
 20
-118.7903589587464
 30
0.0
 10
79.48774072991105
 20
-118.7903589587464
 30
0.0
 10
79.48774072991105
 20
-118.7903589587464
 30
0.0
  0
SPLINE
  5
93
330
1F
100
AcDbEntity
  8
LAYER_1
 62
   250
100
AcDbSpline
210
0.0
220
0.0
230
1.0
 70
     8
 71
     3
 72
    20
 73
    16
 74
     0
 42
0.0000000001
 43
0.0000000001
 12
1.0
 22
0.0
 32
0.0
 13
1.0
 23
0.0
 33
0.0
 40
0.0
 40
0.0
 40
0.0
 40
0.0
 40
1.0
 40
1.0
 40
1.0
 40
2.0
 40
2.0
 40
2.0
 40
3.0
 40
3.0
 40
3.0
 40
4.0
 40
4.0
 40
4.0
 40
5.0
 40
5.0
 40
5.0
 40
5.0
 10
79.48774072991105
 20
-85.58161941084201
 30
0.0
 10
79.48774072991105
 20
-85.58161941084201
 30
0.0
 10
80.12312399662504
 20
-85.58161941084201
 30
0.0
 10
80.12312399662504
 20
-85.58161941084201
 30
0.0
 10
80.72648940717298
 20
-85.58161941084201
 30
0.0
 10
81.21560683869133
 20
-85.09250197932367
 30
0.0
 10
81.21560683869133
 20
-84.4891581006225
 30
0.0
 10
81.21560683869133
 20
-84.4891581006225
 30
0.0
 10
81.21560683869133
 20
-80.12633224179568
 30
0.0
 10
81.21560683869133
 20
-80.12633224179568
 30
0.0
 10
81.21560683869133
 20
-79.52298836309451
 30
0.0
 10
80.72648940717298
 20
-79.03387093157617
 30
0.0
 10
80.12312399662504
 20
-79.03387093157617
 30
0.0
 10
80.12312399662504
 20
-79.03387093157617
 30
0.0
 10
79.48774072991105
 20
-79.03387093157617
 30
0.0
 10
79.48774072991105
 20
-79.03387093157617
 30
0.0
  0
SPLINE
  5
94
330
1F
100
AcDbEntity
  8
LAYER_1
 62
   250
100
AcDbSpline
210
0.0
220
0.0
230
1.0
 70
     8
 71
     3
 72
    20
 73
    16
 74
     0
 42
0.0000000001
 43
0.0000000001
 12
1.0
 22
0.0
 32
0.0
 13
1.0
 23
0.0
 33
0.0
 40
0.0
 40
0.0
 40
0.0
 40
0.0
 40
1.0
 40
1.0
 40
1.0
 40
2.0
 40
2.0
 40
2.0
 40
3.0
 40
3.0
 40
3.0
 40
4.0
 40
4.0
 40
4.0
 40
5.0
 40
5.0
 40
5.0
 40
5.0
 10
79.48774072991105
 20
-45.58162772840494
 30
0.0
 10
79.48774072991105
 20
-45.58162772840494
 30
0.0
 10
80.12312399662504
 20
-45.58162772840494
 30
0.0
 10
80.12312399662504
 20
-45.58162772840494
 30
0.0
 10
80.72648940717298
 20
-45.58162772840494
 30
0.0
 10
81.21560683869133
 20
-45.09251029688659
 30
0.0
 10
81.21560683869133
 20
-44.48914488633865
 30
0.0
 10
81.21560683869133
 20
-44.48914488633865
 30
0.0
 10
81.21560683869133
 20
-40.12634055935861
 30
0.0
 10
81.21560683869133
 20
-40.12634055935861
 30
0.0
 10
81.21560683869133
 20
-39.52297514881067
 30
0.0
 10
80.72648940717298
 20
-39.03385771729232
 30
0.0
 10
80.12312399662504
 20
-39.03385771729232
 30
0.0
 10
80.12312399662504
 20
-39.03385771729232
 30
0.0
 10
79.48774072991105
 20
-39.03385771729232
 30
0.0
 10
79.48774072991105
 20
-39.03385771729232
 30
0.0
  0
SPLINE
  5
95
330
1F
100
AcDbEntity
  8
LAYER_1
 62
   250
100
AcDbSpline
210
0.0
220
0.0
230
1.0
 70
     8
 71
     3
 72
    20
 73
    16
 74
     0
 42
0.0000000001
 43
0.0000000001
 12
1.0
 22
0.0
 32
0.0
 13
1.0
 23
0.0
 33
0.0
 40
0.0
 40
0.0
 40
0.0
 40
0.0
 40
1.0
 40
1.0
 40
1.0
 40
2.0
 40
2.0
 40
2.0
 40
3.0
 40
3.0
 40
3.0
 40
4.0
 40
4.0
 40
4.0
 40
5.0
 40
5.0
 40
5.0
 40
5.0
 10
150.4877351172717
 20
-109.7398993323741
 30
0.0
 10
150.4877351172717
 20
-109.7398993323741
 30
0.0
 10
149.8987960440683
 20
-109.7398993323741
 30
0.0
 10
149.8987960440683
 20
-109.7398993323741
 30
0.0
 10
149.2954306335203
 20
-109.7398993323741
 30
0.0
 10
148.806313202002
 20
-110.2290167638924
 30
0.0
 10
148.806313202002
 20
-110.8323606425936
 30
0.0
 10
148.806313202002
 20
-110.8323606425936
 30
0.0
 10
148.806313202002
 20
-115.1951865014204
 30
0.0
 10
148.806313202002
 20
-115.1951865014204
 30
0.0
 10
148.806313202002
 20
-115.7985303801215
 30
0.0
 10
149.2954306335203
 20
-116.2876478116399
 30
0.0
 10
149.8987960440683
 20
-116.2876478116399
 30
0.0
 10
149.8987960440683
 20
-116.2876478116399
 30
0.0
 10
150.4877351172717
 20
-116.2876478116399
 30
0.0
 10
150.4877351172717
 20
-116.2876478116399
 30
0.0
  0
SPLINE
  5
96
330
1F
100
AcDbEntity
  8
LAYER_1
 62
   250
100
AcDbSpline
210
0.0
220
0.0
230
1.0
 70
     8
 71
     3
 72
    20
 73
    16
 74
     0
 42
0.0000000001
 43
0.0000000001
 12
1.0
 22
0.0
 32
0.0
 13
1.0
 23
0.0
 33
0.0
 40
0.0
 40
0.0
 40
0.0
 40
0.0
 40
1.0
 40
1.0
 40
1.0
 40
2.0
 40
2.0
 40
2.0
 40
3.0
 40
3.0
 40
3.0
 40
4.0
 40
4.0
 40
4.0
 40
5.0
 40
5.0
 40
5.0
 40
5.0
 10
150.4877351172717
 20
-69.98338977335702
 30
0.0
 10
150.4877351172717
 20
-69.98338977335702
 30
0.0
 10
149.8058861252005
 20
-69.98338977335702
 30
0.0
 10
149.8058861252005
 20
-69.98338977335702
 30
0.0
 10
149.2025422464993
 20
-69.98338977335702
 30
0.0
 10
148.7134248149809
 20
-70.47250720487537
 30
0.0
 10
148.7134248149809
 20
-71.07585108357652
 30
0.0
 10
148.7134248149809
 20
-71.07585108357652
 30
0.0
 10
148.7134248149809
 20
-75.43867694240336
 30
0.0
 10
148.7134248149809
 20
-75.43867694240336
 30
0.0
 10
148.7134248149809
 20
-76.0420423529513
 30
0.0
 10
149.2025422464993
 20
-76.53113825262287
 30
0.0
 10
149.8058861252005
 20
-76.53113825262287
 30
0.0
 10
149.8058861252005
 20
-76.53113825262287
 30
0.0
 10
150.4877351172717
 20
-76.53113825262287
 30
0.0
 10
150.4877351172717
 20
-76.53113825262287
 30
0.0
  0
SPLINE
  5
97
330
1F
100
AcDbEntity
  8
LAYER_1
 62
   250
100
AcDbSpline
210
0.0
220
0.0
230
1.0
 70
     8
 71
     3
 72
    20
 73
    16
 74
     0
 42
0.0000000001
 43
0.0000000001
 12
1.0
 22
0.0
 32
0.0
 13
1.0
 23
0.0
 33
0.0
 40
0.0
 40
0.0
 40
0.0
 40
0.0
 40
1.0
 40
1.0
 40
1.0
 40
2.0
 40
2.0
 40
2.0
 40
3.0
 40
3.0
 40
3.0
 40
4.0
 40
4.0
 40
4.0
 40
5.0
 40
5.0
 40
5.0
 40
5.0
 10
150.4877351172717
 20
-29.98337655907317
 30
0.0
 10
150.4877351172717
 20
-29.98337655907317
 30
0.0
 10
149.8058861252005
 20
-29.98337655907317
 30
0.0
 10
149.8058861252005
 20
-29.98337655907317
 30
0.0
 10
149.2025422464993
 20
-29.98337655907317
 30
0.0
 10
148.7134248149809
 20
-30.47249399059151
 30
0.0
 10
148.7134248149809
 20
-31.07585940113946
 30
0.0
 10
148.7134248149809
 20
-31.07585940113946
 30
0.0
 10
148.7134248149809
 20
-35.43868525996628
 30
0.0
 10
148.7134248149809
 20
-35.43868525996628
 30
0.0
 10
148.7134248149809
 20
-36.04202913866744
 30
0.0
 10
149.2025422464993
 20
-36.53114657018579
 30
0.0
 10
149.8058861252005
 20
-36.53114657018579
 30
0.0
 10
149.8058861252005
 20
-36.53114657018579
 30
0.0
 10
150.4877351172717
 20
-36.53114657018579
 30
0.0
 10
150.4877351172717
 20
-36.53114657018579
 30
0.0
  0
SPLINE
  5
98
330
1F
100
AcDbEntity
  8
LAYER_1
 62
   250
100
AcDbSpline
210
0.0
220
0.0
230
1.0
 70
    11
 71
     3
 72
    17
 73
    13
 74
     0
 42
0.0000000001
 43
0.0000000001
 12
1.0
 22
0.0
 32
0.0
 13
1.0
 23
0.0
 33
0.0
 40
0.0
 40
0.0
 40
0.0
 40
0.0
 40
1.0
 40
1.0
 40
1.0
 40
2.0
 40
2.0
 40
2.0
 40
3.0
 40
3.0
 40
3.0
 40
4.0
 40
4.0
 40
4.0
 40
4.0
 10
58.96575844965682
 20
-144.7356819848144
 30
0.0
 10
58.9657584496257
 20
-145.4260379218918
 30
0.0
 10
59.52540251221031
 20
-145.9856819845265
 30
0.0
 10
60.21575844928773
 20
-145.9856819845573
 30
0.0
 10
60.90611438636514
 20
-145.9856819845887
 30
0.0
 10
61.46575844900109
 20
-145.4260379220041
 30
0.0
 10
61.46575844903222
 20
-144.7356819849267
 30
0.0
 10
61.46575844906334
 20
-144.0453260478486
 30
0.0
 10
60.90611438647744
 20
-143.485681985214
 30
0.0
 10
60.21575844940003
 20
-143.4856819851825
 30
0.0
 10
59.52540251232261
 20
-143.4856819851517
 30
0.0
 10
58.96575844968794
 20
-144.0453260477364
 30
0.0
 10
58.96575844965682
 20
-144.7356819848144
 30
0.0
  0
SPLINE
  5
99
330
1F
100
AcDbEntity
  8
LAYER_1
100
AcDbSpline
210
0.0
220
0.0
230
1.0
 70
    11
 71
     3
 72
    17
 73
    13
 74
     0
 42
0.0000000001
 43
0.0000000001
 12
1.0
 22
0.0
 32
0.0
 13
1.0
 23
0.0
 33
0.0
 40
0.0
 40
0.0
 40
0.0
 40
0.0
 40
1.0
 40
1.0
 40
1.0
 40
2.0
 40
2.0
 40
2.0
 40
3.0
 40
3.0
 40
3.0
 40
4.0
 40
4.0
 40
4.0
 40
4.0
 10
22.38779299641997
 20
-136.5511844593842
 30
0.0
 10
22.38269854996947
 20
-139.7827719687038
 30
0.0
 10
19.77988454750707
 20
-142.3829534835803
 30
0.0
 10
16.56748270924115
 20
-142.3944701210486
 30
0.0
 10
13.31666154287693
 20
-142.4061231814957
 30
0.0
 10
10.71249134134416
 20
-139.7802235557444
 30
0.0
 10
10.70281472862504
 20
-136.5706064911804
 30
0.0
 10
10.69312532624985
 20
-133.3567599177106
 30
0.0
 10
13.28658701799998
 20
-130.7115951069312
 30
0.0
 10
16.54484204694654
 20
-130.7110797532682
 30
0.0
 10
19.77500028762296
 20
-130.7105688611115
 30
0.0
 10
22.3812351755807
 20
-133.3203722608848
 30
0.0
 10
22.38779299641997
 20
-136.5511844593842
 30
0.0
  0
SPLINE
  5
9A
330
1F
100
AcDbEntity
  8
LAYER_1
100
AcDbSpline
210
0.0
220
0.0
230
1.0
 70
    11
 71
     3
 72
    17
 73
    13
 74
     0
 42
0.0000000001
 43
0.0000000001
 12
1.0
 22
0.0
 32
0.0
 13
1.0
 23
0.0
 33
0.0
 40
0.0
 40
0.0
 40
0.0
 40
0.0
 40
1.0
 40
1.0
 40
1.0
 40
2.0
 40
2.0
 40
2.0
 40
3.0
 40
3.0
 40
3.0
 40
4.0
 40
4.0
 40
4.0
 40
4.0
 10
21.75721743719711
 20
-136.5542857026698
 30
0.0
 10
21.76008390605478
 20
-133.6806046700035
 30
0.0
 10
19.42749289043327
 20
-131.3408429215861
 30
0.0
 10
16.54627528137441
 20
-131.3399339638363
 30
0.0
 10
13.67760025817022
 20
-131.3390291701575
 30
0.0
 10
11.3465943665142
 20
-133.6587111614611
 30
0.0
 10
11.33200285822601
 20
-136.5252696456102
 30
0.0
 10
11.31728900549455
 20
-139.4158504712881
 30
0.0
 10
13.65403398183129
 20
-141.7545575193834
 30
0.0
 10
16.52376231733239
 20
-141.7656339547983
 30
0.0
 10
19.41100791845367
 20
-141.7767793948612
 30
0.0
 10
21.75838496408211
 20
-139.4366288012984
 30
0.0
 10
21.75721743719711
 20
-136.5542857026698
 30
0.0
  0
HATCH
  5
9B
330
1F
100
AcDbEntity
  8
LAYER_1
 62
     7
100
AcDbHatch
 10
0.0
 20
0.0
 30
0.0
210
0.0
220
0.0
230
1.0
  2
SOLID
 70
     1
 71
     0
 91
        2
 92
        1
 93
        1
 72
     4
 94
        3
 73
     0
 74
     1
 95
       17
 96
       13
 40
0.0
 40
0.0
 40
0.0
 40
0.0
 40
1.0
 40
1.0
 40
1.0
 40
2.0
 40
2.0
 40
2.0
 40
3.0
 40
3.0
 40
3.0
 40
4.0
 40
4.0
 40
4.0
 40
4.0
 10
22.38779299641997
 20
-136.5511844593842
 10
22.38269854996947
 20
-139.7827719687038
 10
19.77988454750707
 20
-142.3829534835803
 10
16.56748270924115
 20
-142.3944701210486
 10
13.31666154287693
 20
-142.4061231814957
 10
10.71249134134416
 20
-139.7802235557444
 10
10.70281472862504
 20
-136.5706064911804
 10
10.69312532624985
 20
-133.3567599177106
 10
13.28658701799998
 20
-130.7115951069312
 10
16.54484204694654
 20
-130.7110797532682
 10
19.77500028762296
 20
-130.7105688611115
 10
22.3812351755807
 20
-133.3203722608848
 10
22.38779299641997
 20
-136.5511844593842
 97
        0
 92
        1
 93
        1
 72
     4
 94
        3
 73
     0
 74
     1
 95
       17
 96
       13
 40
0.0
 40
0.0
 40
0.0
 40
0.0
 40
1.0
 40
1.0
 40
1.0
 40
2.0
 40
2.0
 40
2.0
 40
3.0
 40
3.0
 40
3.0
 40
4.0
 40
4.0
 40
4.0
 40
4.0
 10
21.75721743719711
 20
-136.5542857026698
 10
21.76008390605478
 20
-133.6806046700035
 10
19.42749289043327
 20
-131.3408429215861
 10
16.54627528137441
 20
-131.3399339638363
 10
13.67760025817022
 20
-131.3390291701575
 10
11.3465943665142
 20
-133.6587111614611
 10
11.33200285822601
 20
-136.5252696456102
 10
11.31728900549455
 20
-139.4158504712881
 10
13.65403398183129
 20
-141.7545575193834
 10
16.52376231733239
 20
-141.7656339547983
 10
19.41100791845367
 20
-141.7767793948612
 10
21.75838496408211
 20
-139.4366288012984
 10
21.75721743719711
 20
-136.5542857026698
 97
        0
 75
     2
 76
     1
 98
        0
  0
SPLINE
  5
9C
330
1F
100
AcDbEntity
  8
LAYER_1
100
AcDbSpline
210
0.0
220
0.0
230
1.0
 70
    11
 71
     3
 72
   143
 73
   139
 74
     0
 42
0.0000000001
 43
0.0000000001
 12
1.0
 22
0.0
 32
0.0
 13
1.0
 23
0.0
 33
0.0
 40
0.0
 40
0.0
 40
0.0
 40
0.0
 40
1.0
 40
1.0
 40
1.0
 40
2.0
 40
2.0
 40
2.0
 40
3.0
 40
3.0
 40
3.0
 40
4.0
 40
4.0
 40
4.0
 40
5.0
 40
5.0
 40
5.0
 40
6.0
 40
6.0
 40
6.0
 40
7.0
 40
7.0
 40
7.0
 40
8.0
 40
8.0
 40
8.0
 40
9.0
 40
9.0
 40
9.0
 40
10.0
 40
10.0
 40
10.0
 40
11.0
 40
11.0
 40
11.0
 40
12.0
 40
12.0
 40
12.0
 40
13.0
 40
13.0
 40
13.0
 40
14.0
 40
14.0
 40
14.0
 40
15.0
 40
15.0
 40
15.0
 40
16.0
 40
16.0
 40
16.0
 40
17.0
 40
17.0
 40
17.0
 40
18.0
 40
18.0
 40
18.0
 40
19.0
 40
19.0
 40
19.0
 40
20.0
 40
20.0
 40
20.0
 40
21.0
 40
21.0
 40
21.0
 40
22.0
 40
22.0
 40
22.0
 40
23.0
 40
23.0
 40
23.0
 40
24.0
 40
24.0
 40
24.0
 40
25.0
 40
25.0
 40
25.0
 40
26.0
 40
26.0
 40
26.0
 40
27.0
 40
27.0
 40
27.0
 40
28.0
 40
28.0
 40
28.0
 40
29.0
 40
29.0
 40
29.0
 40
30.0
 40
30.0
 40
30.0
 40
31.0
 40
31.0
 40
31.0
 40
32.0
 40
32.0
 40
32.0
 40
33.0
 40
33.0
 40
33.0
 40
34.0
 40
34.0
 40
34.0
 40
35.0
 40
35.0
 40
35.0
 40
36.0
 40
36.0
 40
36.0
 40
37.0
 40
37.0
 40
37.0
 40
38.0
 40
38.0
 40
38.0
 40
39.0
 40
39.0
 40
39.0
 40
40.0
 40
40.0
 40
40.0
 40
41.0
 40
41.0
 40
41.0
 40
42.0
 40
42.0
 40
42.0
 40
43.0
 40
43.0
 40
43.0
 40
44.0
 40
44.0
 40
44.0
 40
45.0
 40
45.0
 40
45.0
 40
46.0
 40
46.0
 40
46.0
 40
46.0
 10
17.68067279671071
 20
-134.4763312604914
 30
0.0
 10
17.69716570025856
 20
-134.459613100398
 30
0.0
 10
17.70270828032944
 20
-134.4381018934586
 30
0.0
 10
17.71130213480302
 20
-134.4184986253213
 30
0.0
 10
17.81644221373797
 20
-134.1786511663822
 30
0.0
 10
17.92113653852327
 20
-133.9386085908565
 30
0.0
 10
18.0259339736997
 20
-133.698611225271
 30
0.0
 10
18.04845328299659
 20
-133.6470417531707
 30
0.0
 10
18.07078620043377
 20
-133.5953901893363
 30
0.0
 10
18.0935093510409
 20
-133.5439107405379
 30
0.0
 10
18.10137112174271
 20
-133.5261011966191
 30
0.0
 10
18.10922416771829
 20
-133.5081814038963
 30
0.0
 10
18.11867463159201
 20
-133.4911983294154
 30
0.0
 10
18.17829702519457
 20
-133.3840483910217
 30
0.0
 10
18.30004580857758
 20
-133.3162231692715
 30
0.0
 10
18.43641247271375
 20
-133.3344047037537
 30
0.0
 10
18.55817632607785
 20
-133.3506390381683
 30
0.0
 10
18.66239951569342
 20
-133.4393897205249
 30
0.0
 10
18.69544956849312
 20
-133.5598531932303
 30
0.0
 10
18.71243184981729
 20
-133.6217519469951
 30
0.0
 10
18.71176401174952
 20
-133.6841357161718
 30
0.0
 10
18.69032101629824
 20
-133.7452932648596
 30
0.0
 10
18.68317150044821
 20
-133.765680965121
 30
0.0
 10
18.67458954332701
 20
-133.7856030823114
 30
0.0
 10
18.66593223630484
 20
-133.8054193130623
 30
0.0
 10
18.46664919816602
 20
-134.2615840432395
 30
0.0
 10
18.26725591122515
 20
-134.7177003908486
 30
0.0
 10
18.06792924945902
 20
-135.1738456886836
 30
0.0
 10
18.05840105621488
 20
-135.1956491739242
 30
0.0
 10
18.04930830608141
 20
-135.2176414304946
 30
0.0
 10
18.04045826194403
 20
-135.2384943172479
 30
0.0
 10
18.04035118576941
 20
-135.2603525303102
 30
0.0
 10
18.05192810315758
 20
-135.2766495241161
 30
0.0
 10
18.06019200438237
 20
-135.2940466264736
 30
0.0
 10
18.16607765075678
 20
-135.5169229082854
 30
0.0
 10
18.27195774503368
 20
-135.7398011729897
 30
0.0
 10
18.37805754375797
 20
-135.9625747409888
 30
0.0
 10
18.8052486507679
 20
-136.8595320284257
 30
0.0
 10
19.23252145293302
 20
-137.75644965802
 30
0.0
 10
19.65969907627719
 20
-138.6534140838679
 30
0.0
 10
19.66900042666173
 20
-138.672944778152
 30
0.0
 10
19.67885777999797
 20
-138.6923668099488
 30
0.0
 10
19.68617544510111
 20
-138.7126621074383
 30
0.0
 10
19.73853093564004
 20
-138.8578891267489
 30
0.0
 10
19.6849143257079
 20
-139.0196780542554
 30
0.0
 10
19.54411867371955
 20
-139.0986050924411
 30
0.0
 10
19.51179911837887
 20
-139.1167239675314
 30
0.0
 10
19.4772960022281
 20
-139.1297943992705
 30
0.0
 10
19.44004935653269
 20
-139.1330852070419
 30
0.0
 10
19.40989829201974
 20
-139.1357478345894
 30
0.0
 10
19.37960921821649
 20
-139.1381249256707
 30
0.0
 10
19.34937011329413
 20
-139.1382740391586
 30
0.0
 10
19.23026333537994
 20
-139.1388617683846
 30
0.0
 10
19.11115259168163
 20
-139.1385230904089
 30
0.0
 10
18.99204343429735
 20
-139.1385230904095
 30
0.0
 10
18.05865962534748
 20
-139.1385230904095
 30
0.0
 10
17.12527581639825
 20
-139.1385183314675
 30
0.0
 10
16.19189200744903
 20
-139.1385334014485
 30
0.0
 10
16.15507882197318
 20
-139.1385341946052
 30
0.0
 10
16.11834336586711
 20
-139.1385476782716
 30
0.0
 10
16.0816848459754
 20
-139.1335285817221
 30
0.0
 10
15.93563889221481
 20
-139.1135338906798
 30
0.0
 10
15.82201917339245
 20
-138.9859395413087
 30
0.0
 10
15.81591107248631
 20
-138.8405499248425
 30
0.0
 10
15.81358593317951
 20
-138.7852145440157
 30
0.0
 10
15.82491181642562
 20
-138.7333079802539
 30
0.0
 10
15.84717453948164
 20
-138.6829020692526
 30
0.0
 10
15.89964146855895
 20
-138.5641117609221
 30
0.0
 10
15.95123592510025
 20
-138.4449359783612
 30
0.0
 10
16.00325551371323
 20
-138.3259481739753
 30
0.0
 10
16.44194263611349
 20
-137.3225064067422
 30
0.0
 10
16.88067893423793
 20
-136.3190868479
 30
0.0
 10
17.31926770518853
 20
-135.315602250197
 30
0.0
 10
17.34777614186327
 20
-135.2503722376622
 30
0.0
 10
17.34756674845422
 20
-135.2622842638203
 30
0.0
 10
17.31826674124324
 20
-135.2007114975221
 30
0.0
 10
17.05878468447092
 20
-134.6554233012682
 30
0.0
 10
16.79916699787712
 20
-134.1101997472979
 30
0.0
 10
16.53939623201129
 20
-133.5650483706006
 30
0.0
 10
16.53109663872808
 20
-133.547630249588
 30
0.0
 10
16.52097754363118
 20
-133.531043753532
 30
0.0
 10
16.51090445163038
 20
-133.5145595747091
 30
0.0
 10
16.50987017509677
 20
-133.5128673745683
 30
0.0
 10
16.50116845129187
 20
-133.5129566047147
 30
0.0
 10
16.49967890272568
 20
-133.514949411302
 30
0.0
 10
16.49329557639438
 20
-133.5234948832074
 30
0.0
 10
16.48741352519113
 20
-133.5326586208794
 30
0.0
 10
16.48290839428066
 20
-133.542324030259
 30
0.0
 10
16.45456414107425
 20
-133.6031365557163
 30
0.0
 10
16.42669578197839
 20
-133.6641711650911
 30
0.0
 10
16.39856409480718
 20
-133.725083231733
 30
0.0
 10
15.75422924712175
 20
-135.1202175779781
 30
0.0
 10
15.10986544921174
 20
-136.5153384405573
 30
0.0
 10
14.46554646466345
 20
-137.9104807183713
 30
0.0
 10
14.31308783776736
 20
-138.2405989447724
 30
0.0
 10
14.16077713462411
 20
-138.5707861758183
 30
0.0
 10
14.00837204581468
 20
-138.9009297832375
 30
0.0
 10
13.99839373605906
 20
-138.9225448937254
 30
0.0
 10
13.988769174257
 20
-138.9443519481711
 30
0.0
 10
13.97799215555295
 20
-138.9655673076061
 30
0.0
 10
13.91898168245949
 20
-139.0817386120171
 30
0.0
 10
13.79598565992932
 20
-139.1471994331963
 30
0.0
 10
13.66714129536259
 20
-139.1359643664093
 30
0.0
 10
13.56039071144272
 20
-139.1266558776132
 30
0.0
 10
13.43254374161485
 20
-139.0524854010596
 30
0.0
 10
13.39365565781692
 20
-138.9025843084275
 30
0.0
 10
13.37637395978192
 20
-138.8359702371883
 30
0.0
 10
13.37999035844218
 20
-138.7694140663978
 30
0.0
 10
13.40615462004491
 20
-138.7050470085161
 30
0.0
 10
13.41429796142802
 20
-138.6850134527885
 30
0.0
 10
13.42381068811336
 20
-138.6655287616005
 30
0.0
 10
13.43288440248291
 20
-138.6458790937887
 30
0.0
 10
14.0780524614395
 20
-137.2487491649067
 30
0.0
 10
14.72324947062003
 20
-135.8516311333783
 30
0.0
 10
15.36842228851809
 20
-134.4545027908116
 30
0.0
 10
15.6442766889966
 20
-133.8571363123376
 30
0.0
 10
15.92007715481008
 20
-133.2597448494238
 30
0.0
 10
16.19594543553335
 20
-132.6623843196257
 30
0.0
 10
16.20501914990289
 20
-132.6427366347057
 30
0.0
 10
16.21336910864533
 20
-132.6226233667147
 30
0.0
 10
16.22408703716455
 20
-132.6038886053286
 30
0.0
 10
16.28496658437555
 20
-132.497473526757
 30
0.0
 10
16.37638663611212
 20
-132.4398883565238
 30
0.0
 10
16.49963686541241
 20
-132.4393283877873
 30
0.0
 10
16.6229299251846
 20
-132.4387684190509
 30
0.0
 10
16.71474417587525
 20
-132.4956794059615
 30
0.0
 10
16.77659296075723
 20
-132.6015337226399
 30
0.0
 10
16.78639479311442
 20
-132.6183089900264
 30
0.0
 10
16.79414869448428
 20
-132.6363017531775
 30
0.0
 10
16.80252205135377
 20
-132.6538868337094
 30
0.0
 10
17.08076306079592
 20
-133.2381987435814
 30
0.0
 10
17.35895489451259
 20
-133.8225328618461
 30
0.0
 10
17.63719431764071
 20
-134.4068451682971
 30
0.0
 10
17.64649884065332
 20
-134.4263841907291
 30
0.0
 10
17.65569946011811
 20
-134.4460072877864
 30
0.0
 10
17.66606522699653
 20
-134.4649815825398
 30
0.0
 10
17.66877465079741
 20
-134.4699411923262
 30
0.0
 10
17.67568463327813
 20
-134.4726065959227
 30
0.0
 10
17.68067279671071
 20
-134.4763312604914
 30
0.0
  0
SPLINE
  5
9D
330
1F
100
AcDbEntity
  8
LAYER_1
100
AcDbSpline
210
0.0
220
0.0
230
1.0
 70
    11
 71
     3
 72
    50
 73
    46
 74
     0
 42
0.0000000001
 43
0.0000000001
 12
1.0
 22
0.0
 32
0.0
 13
1.0
 23
0.0
 33
0.0
 40
0.0
 40
0.0
 40
0.0
 40
0.0
 40
1.0
 40
1.0
 40
1.0
 40
2.0
 40
2.0
 40
2.0
 40
3.0
 40
3.0
 40
3.0
 40
4.0
 40
4.0
 40
4.0
 40
5.0
 40
5.0
 40
5.0
 40
6.0
 40
6.0
 40
6.0
 40
7.0
 40
7.0
 40
7.0
 40
8.0
 40
8.0
 40
8.0
 40
9.0
 40
9.0
 40
9.0
 40
10.0
 40
10.0
 40
10.0
 40
11.0
 40
11.0
 40
11.0
 40
12.0
 40
12.0
 40
12.0
 40
13.0
 40
13.0
 40
13.0
 40
14.0
 40
14.0
 40
14.0
 40
15.0
 40
15.0
 40
15.0
 40
15.0
 10
17.70623703515673
 20
-136.0273645514727
 30
0.0
 10
17.70122349070536
 20
-136.030836992163
 30
0.0
 10
17.69397958918979
 20
-136.0331902885383
 30
0.0
 10
17.69157870340367
 20
-136.0379738175033
 30
0.0
 10
17.68091153692204
 20
-136.0592264553094
 30
0.0
 10
17.67141189732541
 20
-136.0810779265398
 30
0.0
 10
17.66188211776788
 20
-136.1028841878282
 30
0.0
 10
17.38802171361041
 20
-136.7295613811312
 30
0.0
 10
17.11422555515886
 20
-137.3562655417669
 30
0.0
 10
16.84037625519772
 20
-137.9829474940101
 30
0.0
 10
16.7736479693718
 20
-138.1356500166373
 30
0.0
 10
16.70670156541189
 20
-138.2882565672863
 30
0.0
 10
16.64007480366243
 20
-138.4410035066975
 30
0.0
 10
16.63318861588711
 20
-138.4567897074911
 30
0.0
 10
16.62758258326829
 20
-138.4731517401596
 30
0.0
 10
16.62183616188716
 20
-138.4894074898082
 30
0.0
 10
16.61912991071371
 20
-138.4970646260424
 30
0.0
 10
16.62668552287083
 20
-138.5072852452171
 30
0.0
 10
16.63512947069983
 20
-138.5075565048594
 30
0.0
 10
16.65675171959926
 20
-138.5082544828881
 30
0.0
 10
16.6783866590084
 20
-138.508970703524
 30
0.0
 10
16.70001604631939
 20
-138.5089778419355
 30
0.0
 10
16.97071096148606
 20
-138.509070641287
 30
0.0
 10
17.24140587665336
 20
-138.5090389150128
 30
0.0
 10
17.51210079182003
 20
-138.5090389150128
 30
0.0
 10
17.94088376462866
 20
-138.5090389150128
 30
0.0
 10
18.3696667374373
 20
-138.5090650891889
 30
0.0
 10
18.79844971024529
 20
-138.5089667377392
 30
0.0
 10
18.8222293457774
 20
-138.5089611856417
 30
0.0
 10
18.84601453340895
 20
-138.5080760225966
 30
0.0
 10
18.86978703053015
 20
-138.5072868315305
 30
0.0
 10
18.87829522406443
 20
-138.5070036745351
 30
0.0
 10
18.88500057207756
 20
-138.4964887941682
 30
0.0
 10
18.88161458548266
 20
-138.488519154135
 30
0.0
 10
18.87232354613774
 20
-138.4666613376517
 30
0.0
 10
18.86315465294661
 20
-138.4447226191686
 30
0.0
 10
18.8529506900658
 20
-138.4232851758149
 30
0.0
 10
18.58876917895376
 20
-137.8682649450085
 30
0.0
 10
18.32445917643372
 20
-137.3133049941195
 30
0.0
 10
18.06017931387264
 20
-136.758331559566
 30
0.0
 10
17.95316579845706
 20
-136.5336072222929
 30
0.0
 10
17.84628315392212
 20
-136.3088194324719
 30
0.0
 10
17.73895792786433
 20
-136.0842426223726
 30
0.0
 10
17.72973827263432
 20
-136.0649514614572
 30
0.0
 10
17.72359606598444
 20
-136.0435957132592
 30
0.0
 10
17.70623703515673
 20
-136.0273645514727
 30
0.0
  0
HATCH
  5
9E
330
1F
100
AcDbEntity
  8
LAYER_1
 62
     7
100
AcDbHatch
 10
0.0
 20
0.0
 30
0.0
210
0.0
220
0.0
230
1.0
  2
SOLID
 70
     1
 71
     0
 91
        2
 92
        1
 93
        1
 72
     4
 94
        3
 73
     0
 74
     1
 95
      143
 96
      139
 40
0.0
 40
0.0
 40
0.0
 40
0.0
 40
1.0
 40
1.0
 40
1.0
 40
2.0
 40
2.0
 40
2.0
 40
3.0
 40
3.0
 40
3.0
 40
4.0
 40
4.0
 40
4.0
 40
5.0
 40
5.0
 40
5.0
 40
6.0
 40
6.0
 40
6.0
 40
7.0
 40
7.0
 40
7.0
 40
8.0
 40
8.0
 40
8.0
 40
9.0
 40
9.0
 40
9.0
 40
10.0
 40
10.0
 40
10.0
 40
11.0
 40
11.0
 40
11.0
 40
12.0
 40
12.0
 40
12.0
 40
13.0
 40
13.0
 40
13.0
 40
14.0
 40
14.0
 40
14.0
 40
15.0
 40
15.0
 40
15.0
 40
16.0
 40
16.0
 40
16.0
 40
17.0
 40
17.0
 40
17.0
 40
18.0
 40
18.0
 40
18.0
 40
19.0
 40
19.0
 40
19.0
 40
20.0
 40
20.0
 40
20.0
 40
21.0
 40
21.0
 40
21.0
 40
22.0
 40
22.0
 40
22.0
 40
23.0
 40
23.0
 40
23.0
 40
24.0
 40
24.0
 40
24.0
 40
25.0
 40
25.0
 40
25.0
 40
26.0
 40
26.0
 40
26.0
 40
27.0
 40
27.0
 40
27.0
 40
28.0
 40
28.0
 40
28.0
 40
29.0
 40
29.0
 40
29.0
 40
30.0
 40
30.0
 40
30.0
 40
31.0
 40
31.0
 40
31.0
 40
32.0
 40
32.0
 40
32.0
 40
33.0
 40
33.0
 40
33.0
 40
34.0
 40
34.0
 40
34.0
 40
35.0
 40
35.0
 40
35.0
 40
36.0
 40
36.0
 40
36.0
 40
37.0
 40
37.0
 40
37.0
 40
38.0
 40
38.0
 40
38.0
 40
39.0
 40
39.0
 40
39.0
 40
40.0
 40
40.0
 40
40.0
 40
41.0
 40
41.0
 40
41.0
 40
42.0
 40
42.0
 40
42.0
 40
43.0
 40
43.0
 40
43.0
 40
44.0
 40
44.0
 40
44.0
 40
45.0
 40
45.0
 40
45.0
 40
46.0
 40
46.0
 40
46.0
 40
46.0
 10
17.68067279671071
 20
-134.4763312604914
 10
17.69716570025856
 20
-134.459613100398
 10
17.70270828032944
 20
-134.4381018934586
 10
17.71130213480302
 20
-134.4184986253213
 10
17.81644221373797
 20
-134.1786511663822
 10
17.92113653852327
 20
-133.9386085908565
 10
18.0259339736997
 20
-133.698611225271
 10
18.04845328299659
 20
-133.6470417531707
 10
18.07078620043377
 20
-133.5953901893363
 10
18.0935093510409
 20
-133.5439107405379
 10
18.10137112174271
 20
-133.5261011966191
 10
18.10922416771829
 20
-133.5081814038963
 10
18.11867463159201
 20
-133.4911983294154
 10
18.17829702519457
 20
-133.3840483910217
 10
18.30004580857758
 20
-133.3162231692715
 10
18.43641247271375
 20
-133.3344047037537
 10
18.55817632607785
 20
-133.3506390381683
 10
18.66239951569342
 20
-133.4393897205249
 10
18.69544956849312
 20
-133.5598531932303
 10
18.71243184981729
 20
-133.6217519469951
 10
18.71176401174952
 20
-133.6841357161718
 10
18.69032101629824
 20
-133.7452932648596
 10
18.68317150044821
 20
-133.765680965121
 10
18.67458954332701
 20
-133.7856030823114
 10
18.66593223630484
 20
-133.8054193130623
 10
18.46664919816602
 20
-134.2615840432395
 10
18.26725591122515
 20
-134.7177003908486
 10
18.06792924945902
 20
-135.1738456886836
 10
18.05840105621488
 20
-135.1956491739242
 10
18.04930830608141
 20
-135.2176414304946
 10
18.04045826194403
 20
-135.2384943172479
 10
18.04035118576941
 20
-135.2603525303102
 10
18.05192810315758
 20
-135.2766495241161
 10
18.06019200438237
 20
-135.2940466264736
 10
18.16607765075678
 20
-135.5169229082854
 10
18.27195774503368
 20
-135.7398011729897
 10
18.37805754375797
 20
-135.9625747409888
 10
18.8052486507679
 20
-136.8595320284257
 10
19.23252145293302
 20
-137.75644965802
 10
19.65969907627719
 20
-138.6534140838679
 10
19.66900042666173
 20
-138.672944778152
 10
19.67885777999797
 20
-138.6923668099488
 10
19.68617544510111
 20
-138.7126621074383
 10
19.73853093564004
 20
-138.8578891267489
 10
19.6849143257079
 20
-139.0196780542554
 10
19.54411867371955
 20
-139.0986050924411
 10
19.51179911837887
 20
-139.1167239675314
 10
19.4772960022281
 20
-139.1297943992705
 10
19.44004935653269
 20
-139.1330852070419
 10
19.40989829201974
 20
-139.1357478345894
 10
19.37960921821649
 20
-139.1381249256707
 10
19.34937011329413
 20
-139.1382740391586
 10
19.23026333537994
 20
-139.1388617683846
 10
19.11115259168163
 20
-139.1385230904089
 10
18.99204343429735
 20
-139.1385230904095
 10
18.05865962534748
 20
-139.1385230904095
 10
17.12527581639825
 20
-139.1385183314675
 10
16.19189200744903
 20
-139.1385334014485
 10
16.15507882197318
 20
-139.1385341946052
 10
16.11834336586711
 20
-139.1385476782716
 10
16.0816848459754
 20
-139.1335285817221
 10
15.93563889221481
 20
-139.1135338906798
 10
15.82201917339245
 20
-138.9859395413087
 10
15.81591107248631
 20
-138.8405499248425
 10
15.81358593317951
 20
-138.7852145440157
 10
15.82491181642562
 20
-138.7333079802539
 10
15.84717453948164
 20
-138.6829020692526
 10
15.89964146855895
 20
-138.5641117609221
 10
15.95123592510025
 20
-138.4449359783612
 10
16.00325551371323
 20
-138.3259481739753
 10
16.44194263611349
 20
-137.3225064067422
 10
16.88067893423793
 20
-136.3190868479
 10
17.31926770518853
 20
-135.315602250197
 10
17.34777614186327
 20
-135.2503722376622
 10
17.34756674845422
 20
-135.2622842638203
 10
17.31826674124324
 20
-135.2007114975221
 10
17.05878468447092
 20
-134.6554233012682
 10
16.79916699787712
 20
-134.1101997472979
 10
16.53939623201129
 20
-133.5650483706006
 10
16.53109663872808
 20
-133.547630249588
 10
16.52097754363118
 20
-133.531043753532
 10
16.51090445163038
 20
-133.5145595747091
 10
16.50987017509677
 20
-133.5128673745683
 10
16.50116845129187
 20
-133.5129566047147
 10
16.49967890272568
 20
-133.514949411302
 10
16.49329557639438
 20
-133.5234948832074
 10
16.48741352519113
 20
-133.5326586208794
 10
16.48290839428066
 20
-133.542324030259
 10
16.45456414107425
 20
-133.6031365557163
 10
16.42669578197839
 20
-133.6641711650911
 10
16.39856409480718
 20
-133.725083231733
 10
15.75422924712175
 20
-135.1202175779781
 10
15.10986544921174
 20
-136.5153384405573
 10
14.46554646466345
 20
-137.9104807183713
 10
14.31308783776736
 20
-138.2405989447724
 10
14.16077713462411
 20
-138.5707861758183
 10
14.00837204581468
 20
-138.9009297832375
 10
13.99839373605906
 20
-138.9225448937254
 10
13.988769174257
 20
-138.9443519481711
 10
13.97799215555295
 20
-138.9655673076061
 10
13.91898168245949
 20
-139.0817386120171
 10
13.79598565992932
 20
-139.1471994331963
 10
13.66714129536259
 20
-139.1359643664093
 10
13.56039071144272
 20
-139.1266558776132
 10
13.43254374161485
 20
-139.0524854010596
 10
13.39365565781692
 20
-138.9025843084275
 10
13.37637395978192
 20
-138.8359702371883
 10
13.37999035844218
 20
-138.7694140663978
 10
13.40615462004491
 20
-138.7050470085161
 10
13.41429796142802
 20
-138.6850134527885
 10
13.42381068811336
 20
-138.6655287616005
 10
13.43288440248291
 20
-138.6458790937887
 10
14.0780524614395
 20
-137.2487491649067
 10
14.72324947062003
 20
-135.8516311333783
 10
15.36842228851809
 20
-134.4545027908116
 10
15.6442766889966
 20
-133.8571363123376
 10
15.92007715481008
 20
-133.2597448494238
 10
16.19594543553335
 20
-132.6623843196257
 10
16.20501914990289
 20
-132.6427366347057
 10
16.21336910864533
 20
-132.6226233667147
 10
16.22408703716455
 20
-132.6038886053286
 10
16.28496658437555
 20
-132.497473526757
 10
16.37638663611212
 20
-132.4398883565238
 10
16.49963686541241
 20
-132.4393283877873
 10
16.6229299251846
 20
-132.4387684190509
 10
16.71474417587525
 20
-132.4956794059615
 10
16.77659296075723
 20
-132.6015337226399
 10
16.78639479311442
 20
-132.6183089900264
 10
16.79414869448428
 20
-132.6363017531775
 10
16.80252205135377
 20
-132.6538868337094
 10
17.08076306079592
 20
-133.2381987435814
 10
17.35895489451259
 20
-133.8225328618461
 10
17.63719431764071
 20
-134.4068451682971
 10
17.64649884065332
 20
-134.4263841907291
 10
17.65569946011811
 20
-134.4460072877864
 10
17.66606522699653
 20
-134.4649815825398
 10
17.66877465079741
 20
-134.4699411923262
 10
17.67568463327813
 20
-134.4726065959227
 10
17.68067279671071
 20
-134.4763312604914
 97
        0
 92
        1
 93
        1
 72
     4
 94
        3
 73
     0
 74
     1
 95
       50
 96
       46
 40
0.0
 40
0.0
 40
0.0
 40
0.0
 40
1.0
 40
1.0
 40
1.0
 40
2.0
 40
2.0
 40
2.0
 40
3.0
 40
3.0
 40
3.0
 40
4.0
 40
4.0
 40
4.0
 40
5.0
 40
5.0
 40
5.0
 40
6.0
 40
6.0
 40
6.0
 40
7.0
 40
7.0
 40
7.0
 40
8.0
 40
8.0
 40
8.0
 40
9.0
 40
9.0
 40
9.0
 40
10.0
 40
10.0
 40
10.0
 40
11.0
 40
11.0
 40
11.0
 40
12.0
 40
12.0
 40
12.0
 40
13.0
 40
13.0
 40
13.0
 40
14.0
 40
14.0
 40
14.0
 40
15.0
 40
15.0
 40
15.0
 40
15.0
 10
17.70623703515673
 20
-136.0273645514727
 10
17.70122349070536
 20
-136.030836992163
 10
17.69397958918979
 20
-136.0331902885383
 10
17.69157870340367
 20
-136.0379738175033
 10
17.68091153692204
 20
-136.0592264553094
 10
17.67141189732541
 20
-136.0810779265398
 10
17.66188211776788
 20
-136.1028841878282
 10
17.38802171361041
 20
-136.7295613811312
 10
17.11422555515886
 20
-137.3562655417669
 10
16.84037625519772
 20
-137.9829474940101
 10
16.7736479693718
 20
-138.1356500166373
 10
16.70670156541189
 20
-138.2882565672863
 10
16.64007480366243
 20
-138.4410035066975
 10
16.63318861588711
 20
-138.4567897074911
 10
16.62758258326829
 20
-138.4731517401596
 10
16.62183616188716
 20
-138.4894074898082
 10
16.61912991071371
 20
-138.4970646260424
 10
16.62668552287083
 20
-138.5072852452171
 10
16.63512947069983
 20
-138.5075565048594
 10
16.65675171959926
 20
-138.5082544828881
 10
16.6783866590084
 20
-138.508970703524
 10
16.70001604631939
 20
-138.5089778419355
 10
16.97071096148606
 20
-138.509070641287
 10
17.24140587665336
 20
-138.5090389150128
 10
17.51210079182003
 20
-138.5090389150128
 10
17.94088376462866
 20
-138.5090389150128
 10
18.3696667374373
 20
-138.5090650891889
 10
18.79844971024529
 20
-138.5089667377392
 10
18.8222293457774
 20
-138.5089611856417
 10
18.84601453340895
 20
-138.5080760225966
 10
18.86978703053015
 20
-138.5072868315305
 10
18.87829522406443
 20
-138.5070036745351
 10
18.88500057207756
 20
-138.4964887941682
 10
18.88161458548266
 20
-138.488519154135
 10
18.87232354613774
 20
-138.4666613376517
 10
18.86315465294661
 20
-138.4447226191686
 10
18.8529506900658
 20
-138.4232851758149
 10
18.58876917895376
 20
-137.8682649450085
 10
18.32445917643372
 20
-137.3133049941195
 10
18.06017931387264
 20
-136.758331559566
 10
17.95316579845706
 20
-136.5336072222929
 10
17.84628315392212
 20
-136.3088194324719
 10
17.73895792786433
 20
-136.0842426223726
 10
17.72973827263432
 20
-136.0649514614572
 10
17.72359606598444
 20
-136.0435957132592
 10
17.70623703515673
 20
-136.0273645514727
 97
        0
 75
     2
 76
     1
 98
        0
  0
POLYLINE
  5
9F
330
1F
100
AcDbEntity
  8
LAYER_1
 62
   250
100
AcDb2dPolyline
 66
     1
 10
0.0
 20
0.0
 30
0.0
  0
VERTEX
  5
A0
330
9F
100
AcDbEntity
  8
LAYER_1
 62
   250
100
AcDbVertex
100
AcDb2dVertex
 10
3.885421751958332
 20
-36.44172481049677
 30
0.0
  0
VERTEX
  5
A1
330
9F
100
AcDbEntity
  8
LAYER_1
 62
   250
100
AcDbVertex
100
AcDb2dVertex
 10
3.885421751958332
 20
-69.893968013668
 30
0.0
  0
SEQEND
  5
A2
330
9F
100
AcDbEntity
  8
LAYER_1
 62
   250
  0
POLYLINE
  5
A3
330
1F
100
AcDbEntity
  8
LAYER_1
 62
   250
100
AcDb2dPolyline
 66
     1
 10
0.0
 20
0.0
 30
0.0
  0
VERTEX
  5
A4
330
A3
100
AcDbEntity
  8
LAYER_1
 62
   250
100
AcDbVertex
100
AcDb2dVertex
 10
3.885421751958332
 20
-76.44171649293385
 30
0.0
  0
VERTEX
  5
A5
330
A3
100
AcDbEntity
  8
LAYER_1
 62
   250
100
AcDbVertex
100
AcDb2dVertex
 10
3.885421751958332
 20
-109.650477572685
 30
0.0
  0
SEQEND
  5
A6
330
A3
100
AcDbEntity
  8
LAYER_1
 62
   250
  0
POLYLINE
  5
A7
330
1F
100
AcDbEntity
  8
LAYER_1
 62
   250
100
AcDb2dPolyline
 66
     1
 10
0.0
 20
0.0
 30
0.0
  0
VERTEX
  5
A8
330
A7
100
AcDbEntity
  8
LAYER_1
 62
   250
100
AcDbVertex
100
AcDb2dVertex
 10
74.88541613931902
 20
-78.94444917188716
 30
0.0
  0
VERTEX
  5
A9
330
A7
100
AcDbEntity
  8
LAYER_1
 62
   250
100
AcDbVertex
100
AcDb2dVertex
 10
74.88541613931902
 20
-45.49220596871593
 30
0.0
  0
SEQEND
  5
AA
330
A7
100
AcDbEntity
  8
LAYER_1
 62
   250
  0
POLYLINE
  5
AB
330
1F
100
AcDbEntity
  8
LAYER_1
 62
   250
100
AcDb2dPolyline
 66
     1
 10
0.0
 20
0.0
 30
0.0
  0
VERTEX
  5
AC
330
AB
100
AcDbEntity
  8
LAYER_1
 62
   250
100
AcDbVertex
100
AcDb2dVertex
 10
74.88541613931902
 20
-118.7009371990574
 30
0.0
  0
VERTEX
  5
AD
330
AB
100
AcDbEntity
  8
LAYER_1
 62
   250
100
AcDbVertex
100
AcDb2dVertex
 10
74.88541613931902
 20
-85.49219765115299
 30
0.0
  0
SEQEND
  5
AE
330
AB
100
AcDbEntity
  8
LAYER_1
 62
   250
  0
SPLINE
  5
AF
330
1F
100
AcDbEntity
  8
LAYER_1
 62
   250
100
AcDbSpline
210
0.0
220
0.0
230
1.0
 70
     8
 71
     3
 72
    14
 73
    10
 74
     0
 42
0.0000000001
 43
0.0000000001
 12
1.0
 22
0.0
 32
0.0
 13
1.0
 23
0.0
 33
0.0
 40
0.0
 40
0.0
 40
0.0
 40
0.0
 40
1.0
 40
1.0
 40
1.0
 40
2.0
 40
2.0
 40
2.0
 40
3.0
 40
3.0
 40
3.0
 40
3.0
 10
17.79445647748498
 20
-149.087476057292
 30
0.0
 10
17.79445647748498
 20
-149.087476057292
 30
0.0
 10
13.54648148939767
 20
-149.087476057292
 30
0.0
 10
13.54648148939767
 20
-149.087476057292
 30
0.0
 10
8.210825261076634
 20
-149.087476057292
 30
0.0
 10
3.885421751958332
 20
-144.8229861427222
 30
0.0
 10
3.885421751958332
 20
-139.5624760596732
 30
0.0
 10
3.885421751958332
 20
-139.5624760596732
 30
0.0
 10
3.885421751958332
 20
-116.1982260519509
 30
0.0
 10
3.885421751958332
 20
-116.1982260519509
 30
0.0
  0
SPLINE
  5
B0
330
1F
100
AcDbEntity
  8
LAYER_1
 62
   250
100
AcDbSpline
210
0.0
220
0.0
230
1.0
 70
     8
 71
     3
 72
    17
 73
    13
 74
     0
 42
0.0000000001
 43
0.0000000001
 12
1.0
 22
0.0
 32
0.0
 13
1.0
 23
0.0
 33
0.0
 40
0.0
 40
0.0
 40
0.0
 40
0.0
 40
1.0
 40
1.0
 40
1.0
 40
2.0
 40
2.0
 40
2.0
 40
3.0
 40
3.0
 40
3.0
 40
4.0
 40
4.0
 40
4.0
 40
4.0
 10
74.88541613931902
 20
-125.24870721017
 30
0.0
 10
74.88541613931902
 20
-125.24870721017
 30
0.0
 10
74.88541613931902
 20
-139.5624760596732
 30
0.0
 10
74.88541613931902
 20
-139.5624760596732
 30
0.0
 10
74.88541613931902
 20
-144.8229861427222
 30
0.0
 10
70.56001263020072
 20
-149.087476057292
 30
0.0
 10
65.22435640187967
 20
-149.087476057292
 30
0.0
 10
65.22435640187967
 20
-149.087476057292
 30
0.0
 10
63.52346969711827
 20
-149.087476057292
 30
0.0
 10
63.52346969711827
 20
-149.087476057292
 30
0.0
 10
63.52346969711827
 20
-149.087476057292
 30
0.0
 10
61.79784290040341
 20
-149.087476057292
 30
0.0
 10
61.79784290040341
 20
-149.087476057292
 30
0.0
  0
SPLINE
  5
B1
330
1F
100
AcDbEntity
  8
LAYER_1
 62
   250
100
AcDbSpline
210
0.0
220
0.0
230
1.0
 70
     8
 71
     3
 72
    14
 73
    10
 74
     0
 42
0.0000000001
 43
0.0000000001
 12
1.0
 22
0.0
 32
0.0
 13
1.0
 23
0.0
 33
0.0
 40
0.0
 40
0.0
 40
0.0
 40
0.0
 40
1.0
 40
1.0
 40
1.0
 40
2.0
 40
2.0
 40
2.0
 40
3.0
 40
3.0
 40
3.0
 40
3.0
 10
74.88541613931902
 20
-38.9444359576033
 30
0.0
 10
74.88541613931902
 20
-38.9444359576033
 30
0.0
 10
74.88541613931902
 20
-15.43747286940452
 30
0.0
 10
74.88541613931902
 20
-15.43747286940452
 30
0.0
 10
74.88541613931902
 20
-10.1769627863555
 30
0.0
 10
70.56001263020072
 20
-5.912472871785771
 30
0.0
 10
65.22435640187967
 20
-5.912472871785771
 30
0.0
 10
65.22435640187967
 20
-5.912472871785771
 30
0.0
 10
61.55530817824182
 20
-5.912472871785771
 30
0.0
 10
61.55530817824182
 20
-5.912472871785771
 30
0.0
  0
SPLINE
  5
B2
330
1F
100
AcDbEntity
  8
LAYER_1
 62
   250
100
AcDbSpline
210
0.0
220
0.0
230
1.0
 70
     8
 71
     3
 72
    14
 73
    10
 74
     0
 42
0.0000000001
 43
0.0000000001
 12
1.0
 22
0.0
 32
0.0
 13
1.0
 23
0.0
 33
0.0
 40
0.0
 40
0.0
 40
0.0
 40
0.0
 40
1.0
 40
1.0
 40
1.0
 40
2.0
 40
2.0
 40
2.0
 40
3.0
 40
3.0
 40
3.0
 40
3.0
 10
17.55192175532339
 20
-5.912472871785771
 30
0.0
 10
17.55192175532339
 20
-5.912472871785771
 30
0.0
 10
13.54648148939767
 20
-5.912472871785771
 30
0.0
 10
13.54648148939767
 20
-5.912472871785771
 30
0.0
 10
8.210825261076634
 20
-5.912472871785771
 30
0.0
 10
3.885421751958332
 20
-10.1769627863555
 30
0.0
 10
3.885421751958332
 20
-15.43747286940452
 30
0.0
 10
3.885421751958332
 20
-15.43747286940452
 30
0.0
 10
3.885421751958332
 20
-29.89395479938415
 30
0.0
 10
3.885421751958332
 20
-29.89395479938415
 30
0.0
  0
POLYLINE
  5
B3
330
1F
100
AcDbEntity
  8
LAYER_1
 62
   250
100
AcDb2dPolyline
 66
     1
 10
0.0
 20
0.0
 30
0.0
  0
VERTEX
  5
B4
330
B3
100
AcDbEntity
  8
LAYER_1
 62
   250
100
AcDbVertex
100
AcDb2dVertex
 10
56.60627779075295
 20
-147.8591487938729
 30
0.0
  0
VERTEX
  5
B5
330
B3
100
AcDbEntity
  8
LAYER_1
 62
   250
100
AcDbVertex
100
AcDb2dVertex
 10
55.6522877871937
 20
-146.8754879054469
 30
0.0
  0
SEQEND
  5
B6
330
B3
100
AcDbEntity
  8
LAYER_1
 62
   250
  0
POLYLINE
  5
B7
330
1F
100
AcDbEntity
  8
LAYER_1
 62
   250
100
AcDb2dPolyline
 66
     1
 10
0.0
 20
0.0
 30
0.0
  0
VERTEX
  5
B8
330
B7
100
AcDbEntity
  8
LAYER_1
 62
   250
100
AcDbVertex
100
AcDb2dVertex
 10
34.88368037729254
 20
-134.2713046268054
 30
0.0
  0
VERTEX
  5
B9
330
B7
100
AcDbEntity
  8
LAYER_1
 62
   250
100
AcDbVertex
100
AcDb2dVertex
 10
35.78093396457908
 20
-133.3086803526863
 30
0.0
  0
SEQEND
  5
BA
330
B7
100
AcDbEntity
  8
LAYER_1
 62
   250
  0
POLYLINE
  5
BB
330
1F
100
AcDbEntity
  8
LAYER_1
 62
   250
100
AcDb2dPolyline
 66
     1
 10
0.0
 20
0.0
 30
0.0
  0
VERTEX
  5
BC
330
BB
100
AcDbEntity
  8
LAYER_1
 62
   250
100
AcDbVertex
100
AcDb2dVertex
 10
23.65977460481639
 20
-147.0165860974147
 30
0.0
  0
VERTEX
  5
BD
330
BB
100
AcDbEntity
  8
LAYER_1
 62
   250
100
AcDbVertex
100
AcDb2dVertex
 10
34.88368037729254
 20
-134.2713046268054
 30
0.0
  0
SEQEND
  5
BE
330
BB
100
AcDbEntity
  8
LAYER_1
 62
   250
  0
POLYLINE
  5
BF
330
1F
100
AcDbEntity
  8
LAYER_1
 62
   250
100
AcDb2dPolyline
 66
     1
 10
0.0
 20
0.0
 30
0.0
  0
VERTEX
  5
C0
330
BF
100
AcDbEntity
  8
LAYER_1
 62
   250
100
AcDbVertex
100
AcDb2dVertex
 10
43.84407228857241
 20
-133.9943620134849
 30
0.0
  0
VERTEX
  5
C1
330
BF
100
AcDbEntity
  8
LAYER_1
 62
   250
100
AcDbVertex
100
AcDb2dVertex
 10
55.6522877871937
 20
-146.8754879054469
 30
0.0
  0
SEQEND
  5
C2
330
BF
100
AcDbEntity
  8
LAYER_1
 62
   250
  0
POLYLINE
  5
C3
330
1F
100
AcDbEntity
  8
LAYER_1
 62
   250
100
AcDb2dPolyline
 66
     1
 10
0.0
 20
0.0
 30
0.0
  0
VERTEX
  5
C4
330
C3
100
AcDbEntity
  8
LAYER_1
 62
   250
100
AcDbVertex
100
AcDb2dVertex
 10
43.32629596898614
 20
-133.4604798725051
 30
0.0
  0
VERTEX
  5
C5
330
C3
100
AcDbEntity
  8
LAYER_1
 62
   250
100
AcDbVertex
100
AcDb2dVertex
 10
43.84407228857241
 20
-133.9943620134849
 30
0.0
  0
SEQEND
  5
C6
330
C3
100
AcDbEntity
  8
LAYER_1
 62
   250
  0
POLYLINE
  5
C7
330
1F
100
AcDbEntity
  8
LAYER_1
 62
   250
100
AcDb2dPolyline
 66
     1
 10
0.0
 20
0.0
 30
0.0
  0
VERTEX
  5
C8
330
C7
100
AcDbEntity
  8
LAYER_1
 62
   250
100
AcDbVertex
100
AcDb2dVertex
 10
17.79445647748498
 20
-149.087476057292
 30
0.0
  0
VERTEX
  5
C9
330
C7
100
AcDbEntity
  8
LAYER_1
 62
   250
100
AcDbVertex
100
AcDb2dVertex
 10
19.74140912728036
 20
-149.087476057292
 30
0.0
  0
SEQEND
  5
CA
330
C7
100
AcDbEntity
  8
LAYER_1
 62
   250
  0
POLYLINE
  5
CB
330
1F
100
AcDbEntity
  8
LAYER_1
 62
   250
100
AcDb2dPolyline
 66
     1
 10
0.0
 20
0.0
 30
0.0
  0
VERTEX
  5
CC
330
CB
100
AcDbEntity
  8
LAYER_1
 62
   250
100
AcDbVertex
100
AcDb2dVertex
 10
59.73218517929439
 20
-149.087476057292
 30
0.0
  0
VERTEX
  5
CD
330
CB
100
AcDbEntity
  8
LAYER_1
 62
   250
100
AcDbVertex
100
AcDb2dVertex
 10
61.79784290040341
 20
-149.087476057292
 30
0.0
  0
SEQEND
  5
CE
330
CB
100
AcDbEntity
  8
LAYER_1
 62
   250
  0
SPLINE
  5
CF
330
1F
100
AcDbEntity
  8
LAYER_1
 62
   250
100
AcDbSpline
210
0.0
220
0.0
230
1.0
 70
     8
 71
     3
 72
     8
 73
     4
 74
     0
 42
0.0000000001
 43
0.0000000001
 12
1.0
 22
0.0
 32
0.0
 13
1.0
 23
0.0
 33
0.0
 40
0.0
 40
0.0
 40
0.0
 40
0.0
 40
1.0
 40
1.0
 40
1.0
 40
1.0
 10
43.84407228857241
 20
-133.9943620134849
 30
0.0
 10
43.68490887715386
 20
-133.8039989560781
 30
0.0
 10
43.50925207109969
 20
-133.6284928729514
 30
0.0
 10
43.32629596898614
 20
-133.4604798725051
 30
0.0
  0
SPLINE
  5
D0
330
1F
100
AcDbEntity
  8
LAYER_1
 62
   250
100
AcDbSpline
210
0.0
220
0.0
230
1.0
 70
     8
 71
     3
 72
    11
 73
     7
 74
     0
 42
0.0000000001
 43
0.0000000001
 12
1.0
 22
0.0
 32
0.0
 13
1.0
 23
0.0
 33
0.0
 40
0.0
 40
0.0
 40
0.0
 40
0.0
 40
1.0
 40
1.0
 40
1.0
 40
2.0
 40
2.0
 40
2.0
 40
2.0
 10
43.32629596898614
 20
-133.4604798725051
 30
0.0
 10
42.31427763834721
 20
-132.5311868972057
 30
0.0
 10
40.96100106804751
 20
-131.9582890498555
 30
0.0
 10
39.46893021338581
 20
-131.9582890498555
 30
0.0
 10
38.05917560897479
 20
-131.9582890498555
 30
0.0
 10
36.77254010446789
 20
-132.4688952644631
 30
0.0
 10
35.78093396457908
 20
-133.3086803526863
 30
0.0
  0
SPLINE
  5
D1
330
1F
100
AcDbEntity
  8
LAYER_1
 62
   250
100
AcDbSpline
210
0.0
220
0.0
230
1.0
 70
     8
 71
     3
 72
     8
 73
     4
 74
     0
 42
0.0000000001
 43
0.0000000001
 12
1.0
 22
0.0
 32
0.0
 13
1.0
 23
0.0
 33
0.0
 40
0.0
 40
0.0
 40
0.0
 40
0.0
 40
1.0
 40
1.0
 40
1.0
 40
1.0
 10
35.78093396457908
 20
-133.3086803526863
 30
0.0
 10
35.4446711133719
 20
-133.5934605582358
 30
0.0
 10
35.14449563737274
 20
-133.9169334924539
 30
0.0
 10
34.88368037729254
 20
-134.2713046268054
 30
0.0
  0
SPLINE
  5
D2
330
1F
100
AcDbEntity
  8
LAYER_1
 62
   250
100
AcDbSpline
210
0.0
220
0.0
230
1.0
 70
     8
 71
     3
 72
     8
 73
     4
 74
     0
 42
0.0000000001
 43
0.0000000001
 12
1.0
 22
0.0
 32
0.0
 13
1.0
 23
0.0
 33
0.0
 40
0.0
 40
0.0
 40
0.0
 40
0.0
 40
1.0
 40
1.0
 40
1.0
 40
1.0
 10
23.66072200607484
 20
-147.0175119668264
 30
0.0
 10
23.65553283100018
 20
-147.0239069253209
 30
0.0
 10
23.65107573871614
 20
-147.0308617118317
 30
0.0
 10
23.64584349994792
 20
-147.0372351384794
 30
0.0
  0
SPLINE
  5
D3
330
1F
100
AcDbEntity
  8
LAYER_1
 62
   250
100
AcDbSpline
210
0.0
220
0.0
230
1.0
 70
     8
 71
     3
 72
     8
 73
     4
 74
     0
 42
0.0000000001
 43
0.0000000001
 12
1.0
 22
0.0
 32
0.0
 13
1.0
 23
0.0
 33
0.0
 40
0.0
 40
0.0
 40
0.0
 40
0.0
 40
1.0
 40
1.0
 40
1.0
 40
1.0
 10
19.74140912728036
 20
-149.087476057292
 30
0.0
 10
21.06363677451925
 20
-148.9733788011898
 30
0.0
 10
22.25415411498768
 20
-148.4113330046181
 30
0.0
 10
23.15896538049498
 20
-147.5558296682434
 30
0.0
  0
POLYLINE
  5
D4
330
1F
100
AcDbEntity
  8
LAYER_1
 62
   250
100
AcDb2dPolyline
 66
     1
 10
0.0
 20
0.0
 30
0.0
  0
VERTEX
  5
D5
330
D4
100
AcDbEntity
  8
LAYER_1
 62
   250
100
AcDbVertex
100
AcDb2dVertex
 10
23.66072200607484
 20
-147.0175119668264
 30
0.0
  0
VERTEX
  5
D6
330
D4
100
AcDbEntity
  8
LAYER_1
 62
   250
100
AcDbVertex
100
AcDb2dVertex
 10
23.15896538049498
 20
-147.5558296682434
 30
0.0
  0
SEQEND
  5
D7
330
D4
100
AcDbEntity
  8
LAYER_1
 62
   250
  0
SPLINE
  5
D8
330
1F
100
AcDbEntity
  8
LAYER_1
 62
   250
100
AcDbSpline
210
0.0
220
0.0
230
1.0
 70
     8
 71
     3
 72
     8
 73
     4
 74
     0
 42
0.0000000001
 43
0.0000000001
 12
1.0
 22
0.0
 32
0.0
 13
1.0
 23
0.0
 33
0.0
 40
0.0
 40
0.0
 40
0.0
 40
0.0
 40
1.0
 40
1.0
 40
1.0
 40
1.0
 10
59.73218517929439
 20
-149.087476057292
 30
0.0
 10
58.55180933866066
 20
-148.9972791511187
 30
0.0
 10
57.4726977734465
 20
-148.5538738303203
 30
0.0
 10
56.60627779075295
 20
-147.8591487938729
 30
0.0
  0
SPLINE
  5
D9
330
1F
100
AcDbEntity
  8
LAYER_1
 62
   250
100
AcDbSpline
210
0.0
220
0.0
230
1.0
 70
     8
 71
     3
 72
    20
 73
    16
 74
     0
 42
0.0000000001
 43
0.0000000001
 12
1.0
 22
0.0
 32
0.0
 13
1.0
 23
0.0
 33
0.0
 40
0.0
 40
0.0
 40
0.0
 40
0.0
 40
1.0
 40
1.0
 40
1.0
 40
2.0
 40
2.0
 40
2.0
 40
3.0
 40
3.0
 40
3.0
 40
4.0
 40
4.0
 40
4.0
 40
5.0
 40
5.0
 40
5.0
 40
5.0
 10
74.88541613931902
 20
-118.7009371990574
 30
0.0
 10
74.88541613931902
 20
-118.7009371990574
 30
0.0
 10
74.1571229537372
 20
-118.7009371990574
 30
0.0
 10
74.1571229537372
 20
-118.7009371990574
 30
0.0
 10
73.55377907503603
 20
-118.7009371990574
 30
0.0
 10
73.0646616435177
 20
-119.1900546305758
 30
0.0
 10
73.0646616435177
 20
-119.7934200411237
 30
0.0
 10
73.0646616435177
 20
-119.7934200411237
 30
0.0
 10
73.0646616435177
 20
-124.1562458999505
 30
0.0
 10
73.0646616435177
 20
-124.1562458999505
 30
0.0
 10
73.0646616435177
 20
-124.7595897786517
 30
0.0
 10
73.55377907503603
 20
-125.24870721017
 30
0.0
 10
74.1571229537372
 20
-125.24870721017
 30
0.0
 10
74.1571229537372
 20
-125.24870721017
 30
0.0
 10
74.88541613931902
 20
-125.24870721017
 30
0.0
 10
74.88541613931902
 20
-125.24870721017
 30
0.0
  0
SPLINE
  5
DA
330
1F
100
AcDbEntity
  8
LAYER_1
 62
   250
100
AcDbSpline
210
0.0
220
0.0
230
1.0
 70
     8
 71
     3
 72
    20
 73
    16
 74
     0
 42
0.0000000001
 43
0.0000000001
 12
1.0
 22
0.0
 32
0.0
 13
1.0
 23
0.0
 33
0.0
 40
0.0
 40
0.0
 40
0.0
 40
0.0
 40
1.0
 40
1.0
 40
1.0
 40
2.0
 40
2.0
 40
2.0
 40
3.0
 40
3.0
 40
3.0
 40
4.0
 40
4.0
 40
4.0
 40
5.0
 40
5.0
 40
5.0
 40
5.0
 10
74.88541613931902
 20
-78.94444917188716
 30
0.0
 10
74.88541613931902
 20
-78.94444917188716
 30
0.0
 10
74.25003287260503
 20
-78.94444917188716
 30
0.0
 10
74.25003287260503
 20
-78.94444917188716
 30
0.0
 10
73.64666746205708
 20
-78.94444917188716
 30
0.0
 10
73.15755003053874
 20
-79.4335666034055
 30
0.0
 10
73.15755003053874
 20
-80.03691048210666
 30
0.0
 10
73.15755003053874
 20
-80.03691048210666
 30
0.0
 10
73.15755003053874
 20
-84.39973634093349
 30
0.0
 10
73.15755003053874
 20
-84.39973634093349
 30
0.0
 10
73.15755003053874
 20
-85.00308021963465
 30
0.0
 10
73.64666746205708
 20
-85.49219765115299
 30
0.0
 10
74.25003287260503
 20
-85.49219765115299
 30
0.0
 10
74.25003287260503
 20
-85.49219765115299
 30
0.0
 10
74.88541613931902
 20
-85.49219765115299
 30
0.0
 10
74.88541613931902
 20
-85.49219765115299
 30
0.0
  0
SPLINE
  5
DB
330
1F
100
AcDbEntity
  8
LAYER_1
 62
   250
100
AcDbSpline
210
0.0
220
0.0
230
1.0
 70
     8
 71
     3
 72
    20
 73
    16
 74
     0
 42
0.0000000001
 43
0.0000000001
 12
1.0
 22
0.0
 32
0.0
 13
1.0
 23
0.0
 33
0.0
 40
0.0
 40
0.0
 40
0.0
 40
0.0
 40
1.0
 40
1.0
 40
1.0
 40
2.0
 40
2.0
 40
2.0
 40
3.0
 40
3.0
 40
3.0
 40
4.0
 40
4.0
 40
4.0
 40
5.0
 40
5.0
 40
5.0
 40
5.0
 10
74.88541613931902
 20
-38.9444359576033
 30
0.0
 10
74.88541613931902
 20
-38.9444359576033
 30
0.0
 10
74.25003287260503
 20
-38.9444359576033
 30
0.0
 10
74.25003287260503
 20
-38.9444359576033
 30
0.0
 10
73.64666746205708
 20
-38.9444359576033
 30
0.0
 10
73.15755003053874
 20
-39.43355338912165
 30
0.0
 10
73.15755003053874
 20
-40.03691879966959
 30
0.0
 10
73.15755003053874
 20
-40.03691879966959
 30
0.0
 10
73.15755003053874
 20
-44.39972312664964
 30
0.0
 10
73.15755003053874
 20
-44.39972312664964
 30
0.0
 10
73.15755003053874
 20
-45.00308853719758
 30
0.0
 10
73.64666746205708
 20
-45.49220596871593
 30
0.0
 10
74.25003287260503
 20
-45.49220596871593
 30
0.0
 10
74.25003287260503
 20
-45.49220596871593
 30
0.0
 10
74.88541613931902
 20
-45.49220596871593
 30
0.0
 10
74.88541613931902
 20
-45.49220596871593
 30
0.0
  0
SPLINE
  5
DC
330
1F
100
AcDbEntity
  8
LAYER_1
 62
   250
100
AcDbSpline
210
0.0
220
0.0
230
1.0
 70
     8
 71
     3
 72
    20
 73
    16
 74
     0
 42
0.0000000001
 43
0.0000000001
 12
1.0
 22
0.0
 32
0.0
 13
1.0
 23
0.0
 33
0.0
 40
0.0
 40
0.0
 40
0.0
 40
0.0
 40
1.0
 40
1.0
 40
1.0
 40
2.0
 40
2.0
 40
2.0
 40
3.0
 40
3.0
 40
3.0
 40
4.0
 40
4.0
 40
4.0
 40
5.0
 40
5.0
 40
5.0
 40
5.0
 10
3.885421751958332
 20
-116.1982260519509
 30
0.0
 10
3.885421751958332
 20
-116.1982260519509
 30
0.0
 10
4.474360825161792
 20
-116.1982260519509
 30
0.0
 10
4.474360825161792
 20
-116.1982260519509
 30
0.0
 10
5.077726235709735
 20
-116.1982260519509
 30
0.0
 10
5.566843667228081
 20
-115.7091086204325
 30
0.0
 10
5.566843667228081
 20
-115.1057647417314
 30
0.0
 10
5.566843667228081
 20
-115.1057647417314
 30
0.0
 10
5.566843667228081
 20
-110.7429388829046
 30
0.0
 10
5.566843667228081
 20
-110.7429388829046
 30
0.0
 10
5.566843667228081
 20
-110.1395950042034
 30
0.0
 10
5.077726235709735
 20
-109.650477572685
 30
0.0
 10
4.474360825161792
 20
-109.650477572685
 30
0.0
 10
4.474360825161792
 20
-109.650477572685
 30
0.0
 10
3.885421751958332
 20
-109.650477572685
 30
0.0
 10
3.885421751958332
 20
-109.650477572685
 30
0.0
  0
SPLINE
  5
DD
330
1F
100
AcDbEntity
  8
LAYER_1
 62
   250
100
AcDbSpline
210
0.0
220
0.0
230
1.0
 70
     8
 71
     3
 72
    20
 73
    16
 74
     0
 42
0.0000000001
 43
0.0000000001
 12
1.0
 22
0.0
 32
0.0
 13
1.0
 23
0.0
 33
0.0
 40
0.0
 40
0.0
 40
0.0
 40
0.0
 40
1.0
 40
1.0
 40
1.0
 40
2.0
 40
2.0
 40
2.0
 40
3.0
 40
3.0
 40
3.0
 40
4.0
 40
4.0
 40
4.0
 40
5.0
 40
5.0
 40
5.0
 40
5.0
 10
3.885421751958332
 20
-76.44171649293385
 30
0.0
 10
3.885421751958332
 20
-76.44171649293385
 30
0.0
 10
4.567270744029623
 20
-76.44171649293385
 30
0.0
 10
4.567270744029623
 20
-76.44171649293385
 30
0.0
 10
5.170614622730784
 20
-76.44171649293385
 30
0.0
 10
5.65973205424913
 20
-75.95262059326228
 30
0.0
 10
5.65973205424913
 20
-75.34925518271434
 30
0.0
 10
5.65973205424913
 20
-75.34925518271434
 30
0.0
 10
5.65973205424913
 20
-70.9864293238875
 30
0.0
 10
5.65973205424913
 20
-70.9864293238875
 30
0.0
 10
5.65973205424913
 20
-70.38308544518635
 30
0.0
 10
5.170614622730784
 20
-69.893968013668
 30
0.0
 10
4.567270744029623
 20
-69.893968013668
 30
0.0
 10
4.567270744029623
 20
-69.893968013668
 30
0.0
 10
3.885421751958332
 20
-69.893968013668
 30
0.0
 10
3.885421751958332
 20
-69.893968013668
 30
0.0
  0
SPLINE
  5
DE
330
1F
100
AcDbEntity
  8
LAYER_1
 62
   250
100
AcDbSpline
210
0.0
220
0.0
230
1.0
 70
     8
 71
     3
 72
    20
 73
    16
 74
     0
 42
0.0000000001
 43
0.0000000001
 12
1.0
 22
0.0
 32
0.0
 13
1.0
 23
0.0
 33
0.0
 40
0.0
 40
0.0
 40
0.0
 40
0.0
 40
1.0
 40
1.0
 40
1.0
 40
2.0
 40
2.0
 40
2.0
 40
3.0
 40
3.0
 40
3.0
 40
4.0
 40
4.0
 40
4.0
 40
5.0
 40
5.0
 40
5.0
 40
5.0
 10
3.885421751958332
 20
-36.44172481049677
 30
0.0
 10
3.885421751958332
 20
-36.44172481049677
 30
0.0
 10
4.567270744029623
 20
-36.44172481049677
 30
0.0
 10
4.567270744029623
 20
-36.44172481049677
 30
0.0
 10
5.170614622730784
 20
-36.44172481049677
 30
0.0
 10
5.65973205424913
 20
-35.95260737897843
 30
0.0
 10
5.65973205424913
 20
-35.34926350027727
 30
0.0
 10
5.65973205424913
 20
-35.34926350027727
 30
0.0
 10
5.65973205424913
 20
-30.98643764145044
 30
0.0
 10
5.65973205424913
 20
-30.98643764145044
 30
0.0
 10
5.65973205424913
 20
-30.3830722309025
 30
0.0
 10
5.170614622730784
 20
-29.89395479938415
 30
0.0
 10
4.567270744029623
 20
-29.89395479938415
 30
0.0
 10
4.567270744029623
 20
-29.89395479938415
 30
0.0
 10
3.885421751958332
 20
-29.89395479938415
 30
0.0
 10
3.885421751958332
 20
-29.89395479938415
 30
0.0
  0
POLYLINE
  5
DF
330
1F
100
AcDbEntity
  8
LAYER_1
 62
   250
100
AcDb2dPolyline
 66
     1
 10
0.0
 20
0.0
 30
0.0
  0
VERTEX
  5
E0
330
DF
100
AcDbEntity
  8
LAYER_1
 62
   250
100
AcDbVertex
100
AcDb2dVertex
 10
56.36374306859136
 20
-7.140800135204818
 30
0.0
  0
VERTEX
  5
E1
330
DF
100
AcDbEntity
  8
LAYER_1
 62
   250
100
AcDbVertex
100
AcDb2dVertex
 10
55.40975306503211
 20
-8.124461023630777
 30
0.0
  0
SEQEND
  5
E2
330
DF
100
AcDbEntity
  8
LAYER_1
 62
   250
  0
POLYLINE
  5
E3
330
1F
100
AcDbEntity
  8
LAYER_1
 62
   250
100
AcDb2dPolyline
 66
     1
 10
0.0
 20
0.0
 30
0.0
  0
VERTEX
  5
E4
330
E3
100
AcDbEntity
  8
LAYER_1
 62
   250
100
AcDbVertex
100
AcDb2dVertex
 10
34.64114565513095
 20
-20.72864430227227
 30
0.0
  0
VERTEX
  5
E5
330
E3
100
AcDbEntity
  8
LAYER_1
 62
   250
100
AcDbVertex
100
AcDb2dVertex
 10
35.53839924241748
 20
-21.69126857639142
 30
0.0
  0
SEQEND
  5
E6
330
E3
100
AcDbEntity
  8
LAYER_1
 62
   250
  0
POLYLINE
  5
E7
330
1F
100
AcDbEntity
  8
LAYER_1
 62
   250
100
AcDb2dPolyline
 66
     1
 10
0.0
 20
0.0
 30
0.0
  0
VERTEX
  5
E8
330
E7
100
AcDbEntity
  8
LAYER_1
 62
   250
100
AcDbVertex
100
AcDb2dVertex
 10
23.4172398826548
 20
-7.983384363509797
 30
0.0
  0
VERTEX
  5
E9
330
E7
100
AcDbEntity
  8
LAYER_1
 62
   250
100
AcDbVertex
100
AcDb2dVertex
 10
34.64114565513095
 20
-20.72864430227227
 30
0.0
  0
SEQEND
  5
EA
330
E7
100
AcDbEntity
  8
LAYER_1
 62
   250
  0
POLYLINE
  5
EB
330
1F
100
AcDbEntity
  8
LAYER_1
 62
   250
100
AcDb2dPolyline
 66
     1
 10
0.0
 20
0.0
 30
0.0
  0
VERTEX
  5
EC
330
EB
100
AcDbEntity
  8
LAYER_1
 62
   250
100
AcDbVertex
100
AcDb2dVertex
 10
43.60153756641081
 20
-21.00558691559279
 30
0.0
  0
VERTEX
  5
ED
330
EB
100
AcDbEntity
  8
LAYER_1
 62
   250
100
AcDbVertex
100
AcDb2dVertex
 10
55.40975306503211
 20
-8.124461023630777
 30
0.0
  0
SEQEND
  5
EE
330
EB
100
AcDbEntity
  8
LAYER_1
 62
   250
  0
POLYLINE
  5
EF
330
1F
100
AcDbEntity
  8
LAYER_1
 62
   250
100
AcDb2dPolyline
 66
     1
 10
0.0
 20
0.0
 30
0.0
  0
VERTEX
  5
F0
330
EF
100
AcDbEntity
  8
LAYER_1
 62
   250
100
AcDbVertex
100
AcDb2dVertex
 10
43.08376124682455
 20
-21.5394690565726
 30
0.0
  0
VERTEX
  5
F1
330
EF
100
AcDbEntity
  8
LAYER_1
 62
   250
100
AcDbVertex
100
AcDb2dVertex
 10
43.60153756641081
 20
-21.00558691559279
 30
0.0
  0
SEQEND
  5
F2
330
EF
100
AcDbEntity
  8
LAYER_1
 62
   250
  0
POLYLINE
  5
F3
330
1F
100
AcDbEntity
  8
LAYER_1
 62
   250
100
AcDb2dPolyline
 66
     1
 10
0.0
 20
0.0
 30
0.0
  0
VERTEX
  5
F4
330
F3
100
AcDbEntity
  8
LAYER_1
 62
   250
100
AcDbVertex
100
AcDb2dVertex
 10
17.55192175532339
 20
-5.912472871785771
 30
0.0
  0
VERTEX
  5
F5
330
F3
100
AcDbEntity
  8
LAYER_1
 62
   250
100
AcDbVertex
100
AcDb2dVertex
 10
19.49887440511877
 20
-5.912472871785771
 30
0.0
  0
SEQEND
  5
F6
330
F3
100
AcDbEntity
  8
LAYER_1
 62
   250
  0
POLYLINE
  5
F7
330
1F
100
AcDbEntity
  8
LAYER_1
 62
   250
100
AcDb2dPolyline
 66
     1
 10
0.0
 20
0.0
 30
0.0
  0
VERTEX
  5
F8
330
F7
100
AcDbEntity
  8
LAYER_1
 62
   250
100
AcDbVertex
100
AcDb2dVertex
 10
59.4896504571328
 20
-5.912472871785771
 30
0.0
  0
VERTEX
  5
F9
330
F7
100
AcDbEntity
  8
LAYER_1
 62
   250
100
AcDbVertex
100
AcDb2dVertex
 10
61.55530817824182
 20
-5.912472871785771
 30
0.0
  0
SEQEND
  5
FA
330
F7
100
AcDbEntity
  8
LAYER_1
 62
   250
  0
SPLINE
  5
FB
330
1F
100
AcDbEntity
  8
LAYER_1
 62
   250
100
AcDbSpline
210
0.0
220
0.0
230
1.0
 70
     8
 71
     3
 72
     8
 73
     4
 74
     0
 42
0.0000000001
 43
0.0000000001
 12
1.0
 22
0.0
 32
0.0
 13
1.0
 23
0.0
 33
0.0
 40
0.0
 40
0.0
 40
0.0
 40
0.0
 40
1.0
 40
1.0
 40
1.0
 40
1.0
 10
43.08376124682455
 20
-21.5394690565726
 30
0.0
 10
43.26671734893809
 20
-21.37145605612632
 30
0.0
 10
43.44237415499227
 20
-21.19594997299962
 30
0.0
 10
43.60153756641081
 20
-21.00558691559279
 30
0.0
  0
SPLINE
  5
FC
330
1F
100
AcDbEntity
  8
LAYER_1
 62
   250
100
AcDbSpline
210
0.0
220
0.0
230
1.0
 70
     8
 71
     3
 72
    11
 73
     7
 74
     0
 42
0.0000000001
 43
0.0000000001
 12
1.0
 22
0.0
 32
0.0
 13
1.0
 23
0.0
 33
0.0
 40
0.0
 40
0.0
 40
0.0
 40
0.0
 40
1.0
 40
1.0
 40
1.0
 40
2.0
 40
2.0
 40
2.0
 40
2.0
 10
35.53839924241748
 20
-21.69126857639142
 30
0.0
 10
36.5300053823063
 20
-22.53105366461463
 30
0.0
 10
37.8166408868132
 20
-23.04165987922223
 30
0.0
 10
39.22639549122422
 20
-23.04165987922223
 30
0.0
 10
40.71846634588592
 20
-23.04165987922223
 30
0.0
 10
42.07174291618563
 20
-22.46876203187196
 30
0.0
 10
43.08376124682455
 20
-21.5394690565726
 30
0.0
  0
SPLINE
  5
FD
330
1F
100
AcDbEntity
  8
LAYER_1
 62
   250
100
AcDbSpline
210
0.0
220
0.0
230
1.0
 70
     8
 71
     3
 72
     8
 73
     4
 74
     0
 42
0.0000000001
 43
0.0000000001
 12
1.0
 22
0.0
 32
0.0
 13
1.0
 23
0.0
 33
0.0
 40
0.0
 40
0.0
 40
0.0
 40
0.0
 40
1.0
 40
1.0
 40
1.0
 40
1.0
 10
34.64114565513095
 20
-20.72864430227227
 30
0.0
 10
34.90196091521114
 20
-21.08301543662378
 30
0.0
 10
35.20213639121032
 20
-21.40648837084196
 30
0.0
 10
35.53839924241748
 20
-21.69126857639142
 30
0.0
  0
SPLINE
  5
FE
330
1F
100
AcDbEntity
  8
LAYER_1
 62
   250
100
AcDbSpline
210
0.0
220
0.0
230
1.0
 70
     8
 71
     3
 72
     8
 73
     4
 74
     0
 42
0.0000000001
 43
0.0000000001
 12
1.0
 22
0.0
 32
0.0
 13
1.0
 23
0.0
 33
0.0
 40
0.0
 40
0.0
 40
0.0
 40
0.0
 40
1.0
 40
1.0
 40
1.0
 40
1.0
 10
19.49887440511877
 20
-5.912472871785771
 30
0.0
 10
20.82110205235766
 20
-6.026570127887889
 30
0.0
 10
22.01161939282609
 20
-6.588615924459617
 30
0.0
 10
22.91643065833339
 20
-7.444119260834283
 30
0.0
  0
POLYLINE
  5
FF
330
1F
100
AcDbEntity
  8
LAYER_1
 62
   250
100
AcDb2dPolyline
 66
     1
 10
0.0
 20
0.0
 30
0.0
  0
VERTEX
  5
100
330
FF
100
AcDbEntity
  8
LAYER_1
 62
   250
100
AcDbVertex
100
AcDb2dVertex
 10
23.41818728391325
 20
-7.982436962251353
 30
0.0
  0
VERTEX
  5
101
330
FF
100
AcDbEntity
  8
LAYER_1
 62
   250
100
AcDbVertex
100
AcDb2dVertex
 10
22.91643065833339
 20
-7.444119260834283
 30
0.0
  0
SEQEND
  5
102
330
FF
100
AcDbEntity
  8
LAYER_1
 62
   250
  0
SPLINE
  5
103
330
1F
100
AcDbEntity
  8
LAYER_1
 62
   250
100
AcDbSpline
210
0.0
220
0.0
230
1.0
 70
     8
 71
     3
 72
     8
 73
     4
 74
     0
 42
0.0000000001
 43
0.0000000001
 12
1.0
 22
0.0
 32
0.0
 13
1.0
 23
0.0
 33
0.0
 40
0.0
 40
0.0
 40
0.0
 40
0.0
 40
1.0
 40
1.0
 40
1.0
 40
1.0
 10
56.36374306859136
 20
-7.140800135204818
 30
0.0
 10
57.23016305128491
 20
-6.446075098757405
 30
0.0
 10
58.30927461649907
 20
-6.002669777958968
 30
0.0
 10
59.4896504571328
 20
-5.912472871785771
 30
0.0
  0
SPLINE
  5
104
330
1F
100
AcDbEntity
  8
LAYER_1
 62
   250
100
AcDbSpline
210
0.0
220
0.0
230
1.0
 70
    11
 71
     3
 72
    29
 73
    25
 74
     0
 42
0.0000000001
 43
0.0000000001
 12
1.0
 22
0.0
 32
0.0
 13
1.0
 23
0.0
 33
0.0
 40
0.0
 40
0.0
 40
0.0
 40
0.0
 40
1.0
 40
1.0
 40
1.0
 40
2.0
 40
2.0
 40
2.0
 40
3.0
 40
3.0
 40
3.0
 40
4.0
 40
4.0
 40
4.0
 40
5.0
 40
5.0
 40
5.0
 40
6.0
 40
6.0
 40
6.0
 40
7.0
 40
7.0
 40
7.0
 40
8.0
 40
8.0
 40
8.0
 40
8.0
 10
51.17886887047588
 20
-150.6125472471156
 30
0.0
 10
51.17886887047588
 20
-151.6215714847477
 30
0.0
 10
50.40989971001015
 20
-152.439547246659
 30
0.0
 10
49.46132817888365
 20
-152.439547246659
 30
0.0
 10
49.46132817888365
 20
-152.439547246659
 30
0.0
 10
29.75355242499808
 20
-152.439547246659
 30
0.0
 10
29.75355242499808
 20
-152.439547246659
 30
0.0
 10
28.80498089387031
 20
-152.439547246659
 30
0.0
 10
28.03601173340522
 20
-151.6215714847477
 30
0.0
 10
28.03601173340522
 20
-150.6125472471156
 30
0.0
 10
28.03601173340522
 20
-150.6125472471156
 30
0.0
 10
28.03601173340522
 20
-145.2665472484532
 30
0.0
 10
28.03601173340522
 20
-145.2665472484532
 30
0.0
 10
28.03601173340522
 20
-144.2575230108204
 30
0.0
 10
28.80498089387031
 20
-143.4395472489085
 30
0.0
 10
29.75355242499808
 20
-143.4395472489085
 30
0.0
 10
29.75355242499808
 20
-143.4395472489085
 30
0.0
 10
49.46132817888365
 20
-143.4395472489085
 30
0.0
 10
49.46132817888365
 20
-143.4395472489085
 30
0.0
 10
50.40989971001015
 20
-143.4395472489085
 30
0.0
 10
51.17886887047588
 20
-144.2575230108204
 30
0.0
 10
51.17886887047588
 20
-145.2665472484532
 30
0.0
 10
51.17886887047588
 20
-145.2665472484532
 30
0.0
 10
51.17886887047588
 20
-150.6125472471156
 30
0.0
 10
51.17886887047588
 20
-150.6125472471156
 30
0.0
  0
SPLINE
  5
105
330
1F
100
AcDbEntity
  8
LAYER_1
 62
   250
100
AcDbSpline
210
0.0
220
0.0
230
1.0
 70
    11
 71
     3
 72
    17
 73
    13
 74
     0
 42
0.0000000001
 43
0.0000000001
 12
1.0
 22
0.0
 32
0.0
 13
1.0
 23
0.0
 33
0.0
 40
0.0
 40
0.0
 40
0.0
 40
0.0
 40
1.0
 40
1.0
 40
1.0
 40
2.0
 40
2.0
 40
2.0
 40
3.0
 40
3.0
 40
3.0
 40
4.0
 40
4.0
 40
4.0
 40
4.0
 10
31.51562001902196
 20
-145.2632773210032
 30
0.0
 10
30.42445538488895
 20
-145.2632773210032
 30
0.0
 10
29.53989774577581
 20
-146.147832437565
 30
0.0
 10
29.53989774577581
 20
-147.2389869814959
 30
0.0
 10
29.53989774577581
 20
-148.3301440479765
 30
0.0
 10
30.42445538488895
 20
-149.214699164539
 30
0.0
 10
31.51562001902196
 20
-149.214699164539
 30
0.0
 10
32.60676447274979
 20
-149.214699164539
 30
0.0
 10
33.49132211186198
 20
-148.3301440479765
 30
0.0
 10
33.49132211186198
 20
-147.2389869814959
 30
0.0
 10
33.49132211186198
 20
-146.147832437565
 30
0.0
 10
32.60676447274979
 20
-145.2632773210032
 30
0.0
 10
31.51562001902196
 20
-145.2632773210032
 30
0.0
  0
SPLINE
  5
106
330
1F
100
AcDbEntity
  8
LAYER_1
 62
   250
100
AcDbSpline
210
0.0
220
0.0
230
1.0
 70
    11
 71
     3
 72
    17
 73
    13
 74
     0
 42
0.0000000001
 43
0.0000000001
 12
1.0
 22
0.0
 32
0.0
 13
1.0
 23
0.0
 33
0.0
 40
0.0
 40
0.0
 40
0.0
 40
0.0
 40
1.0
 40
1.0
 40
1.0
 40
2.0
 40
2.0
 40
2.0
 40
3.0
 40
3.0
 40
3.0
 40
4.0
 40
4.0
 40
4.0
 40
4.0
 10
36.58612523745712
 20
-145.2632773210032
 30
0.0
 10
35.49497069352589
 20
-145.2632773210032
 30
0.0
 10
34.61041305441307
 20
-146.147832437565
 30
0.0
 10
34.61041305441307
 20
-147.2389869814959
 30
0.0
 10
34.61041305441307
 20
-148.3301440479765
 30
0.0
 10
35.49497069352589
 20
-149.214699164539
 30
0.0
 10
36.58612523745712
 20
-149.214699164539
 30
0.0
 10
37.67727978138706
 20
-149.214699164539
 30
0.0
 10
38.5618374205002
 20
-148.3301440479765
 30
0.0
 10
38.5618374205002
 20
-147.2389869814959
 30
0.0
 10
38.5618374205002
 20
-146.147832437565
 30
0.0
 10
37.67727978138706
 20
-145.2632773210032
 30
0.0
 10
36.58612523745712
 20
-145.2632773210032
 30
0.0
  0
SPLINE
  5
107
330
1F
100
AcDbEntity
  8
LAYER_1
 62
   250
100
AcDbSpline
210
0.0
220
0.0
230
1.0
 70
    11
 71
     3
 72
    65
 73
    61
 74
     0
 42
0.0000000001
 43
0.0000000001
 12
1.0
 22
0.0
 32
0.0
 13
1.0
 23
0.0
 33
0.0
 40
0.0
 40
0.0
 40
0.0
 40
0.0
 40
1.0
 40
1.0
 40
1.0
 40
2.0
 40
2.0
 40
2.0
 40
3.0
 40
3.0
 40
3.0
 40
4.0
 40
4.0
 40
4.0
 40
5.0
 40
5.0
 40
5.0
 40
6.0
 40
6.0
 40
6.0
 40
7.0
 40
7.0
 40
7.0
 40
8.0
 40
8.0
 40
8.0
 40
9.0
 40
9.0
 40
9.0
 40
10.0
 40
10.0
 40
10.0
 40
11.0
 40
11.0
 40
11.0
 40
12.0
 40
12.0
 40
12.0
 40
13.0
 40
13.0
 40
13.0
 40
14.0
 40
14.0
 40
14.0
 40
15.0
 40
15.0
 40
15.0
 40
16.0
 40
16.0
 40
16.0
 40
17.0
 40
17.0
 40
17.0
 40
18.0
 40
18.0
 40
18.0
 40
19.0
 40
19.0
 40
19.0
 40
20.0
 40
20.0
 40
20.0
 40
20.0
 10
43.21210586766033
 20
-145.4106169866133
 30
0.0
 10
42.97120227290912
 20
-145.4106169866133
 30
0.0
 10
42.77462493959318
 20
-145.5982241295326
 30
0.0
 10
42.7592171997318
 20
-145.8352329059556
 30
0.0
 10
42.75788529294604
 20
-145.839364844052
 30
0.0
 10
42.75696708448049
 20
-145.8434816468443
 30
0.0
 10
42.75696708448049
 20
-145.847447096592
 30
0.0
 10
42.75696708448049
 20
-145.847447096592
 30
0.0
 10
42.75696708448049
 20
-148.8514619495676
 30
0.0
 10
42.75696708448049
 20
-148.8514619495676
 30
0.0
 10
42.75696708448049
 20
-148.8514619495676
 30
0.0
 10
40.4991429179553
 20
-145.6327830745387
 30
0.0
 10
40.4991429179553
 20
-145.6327830745387
 30
0.0
 10
40.41753335672555
 20
-145.499700865657
 30
0.0
 10
40.27116487314669
 20
-145.4106169866133
 30
0.0
 10
40.10361705363523
 20
-145.4106169866133
 30
0.0
 10
39.8472754484147
 20
-145.4106169866133
 30
0.0
 10
39.63945762904402
 20
-145.6184272383326
 30
0.0
 10
39.63945762904402
 20
-145.8747713661035
 30
0.0
 10
39.63945762904402
 20
-145.8747713661035
 30
0.0
 10
39.63945762904402
 20
-149.3578387831826
 30
0.0
 10
39.63945762904402
 20
-149.3578387831826
 30
0.0
 10
39.63945762904402
 20
-149.3578387831826
 30
0.0
 10
39.64136467739565
 20
-149.3578387831826
 30
0.0
 10
39.64136467739565
 20
-149.3578387831826
 30
0.0
 10
39.66059660416465
 20
-149.5929506014574
 30
0.0
 10
39.85714366687169
 20
-149.7778586150942
 30
0.0
 10
40.09720977478003
 20
-149.7778586150942
 30
0.0
 10
40.33728597289143
 20
-149.7778586150942
 30
0.0
 10
40.5338330355988
 20
-149.5929506014574
 30
0.0
 10
40.55306496236747
 20
-149.3578387831826
 30
0.0
 10
40.55306496236747
 20
-149.3578387831826
 30
0.0
 10
40.55496192051635
 20
-149.3578387831826
 30
0.0
 10
40.55496192051635
 20
-149.3578387831826
 30
0.0
 10
40.55496192051635
 20
-149.3578387831826
 30
0.0
 10
40.55496192051635
 20
-147.1635021734398
 30
0.0
 10
40.55496192051635
 20
-147.1635021734398
 30
0.0
 10
40.55496192051635
 20
-147.1635021734398
 30
0.0
 10
42.80398743009459
 20
-150.3775218972698
 30
0.0
 10
42.80398743009459
 20
-150.3775218972698
 30
0.0
 10
42.88500166935103
 20
-150.5131846755494
 30
0.0
 10
43.03284332255644
 20
-150.6043294785395
 30
0.0
 10
43.20233855123183
 20
-150.6043294785395
 30
0.0
 10
43.44566379468338
 20
-150.6043294785395
 30
0.0
 10
43.64490494157214
 20
-150.4169846808957
 30
0.0
 10
43.66454047645764
 20
-150.1787247193101
 30
0.0
 10
43.66570084979276
 20
-150.1744817889822
 30
0.0
 10
43.66649797582367
 20
-150.1702539939578
 30
0.0
 10
43.66649797582367
 20
-150.1661825970792
 30
0.0
 10
43.66649797582367
 20
-150.1661825970792
 30
0.0
 10
43.66649797582367
 20
-149.7778586150942
 30
0.0
 10
43.66649797582367
 20
-149.7778586150942
 30
0.0
 10
43.66649797582367
 20
-149.7778586150942
 30
0.0
 10
43.66649797582367
 20
-145.847447096592
 30
0.0
 10
43.66649797582367
 20
-145.847447096592
 30
0.0
 10
43.66649797582367
 20
-145.8438751647574
 30
0.0
 10
43.66594301466299
 20
-145.8401796279374
 30
0.0
 10
43.66505507680571
 20
-145.8364613881616
 30
0.0
 10
43.65025274911973
 20
-145.5988749476211
 30
0.0
 10
43.45342316073017
 20
-145.4106169866133
 30
0.0
 10
43.21210586766033
 20
-145.4106169866133
 30
0.0
  0
SPLINE
  5
108
330
1F
100
AcDbEntity
  8
LAYER_1
 62
   250
100
AcDbSpline
210
0.0
220
0.0
230
1.0
 70
    11
 71
     3
 72
   245
 73
   241
 74
     0
 42
0.0000000001
 43
0.0000000001
 12
1.0
 22
0.0
 32
0.0
 13
1.0
 23
0.0
 33
0.0
 40
0.0
 40
0.0
 40
0.0
 40
0.0
 40
1.0
 40
1.0
 40
1.0
 40
2.0
 40
2.0
 40
2.0
 40
3.0
 40
3.0
 40
3.0
 40
4.0
 40
4.0
 40
4.0
 40
5.0
 40
5.0
 40
5.0
 40
6.0
 40
6.0
 40
6.0
 40
7.0
 40
7.0
 40
7.0
 40
8.0
 40
8.0
 40
8.0
 40
9.0
 40
9.0
 40
9.0
 40
10.0
 40
10.0
 40
10.0
 40
11.0
 40
11.0
 40
11.0
 40
12.0
 40
12.0
 40
12.0
 40
13.0
 40
13.0
 40
13.0
 40
14.0
 40
14.0
 40
14.0
 40
15.0
 40
15.0
 40
15.0
 40
16.0
 40
16.0
 40
16.0
 40
17.0
 40
17.0
 40
17.0
 40
18.0
 40
18.0
 40
18.0
 40
19.0
 40
19.0
 40
19.0
 40
20.0
 40
20.0
 40
20.0
 40
21.0
 40
21.0
 40
21.0
 40
22.0
 40
22.0
 40
22.0
 40
23.0
 40
23.0
 40
23.0
 40
24.0
 40
24.0
 40
24.0
 40
25.0
 40
25.0
 40
25.0
 40
26.0
 40
26.0
 40
26.0
 40
27.0
 40
27.0
 40
27.0
 40
28.0
 40
28.0
 40
28.0
 40
29.0
 40
29.0
 40
29.0
 40
30.0
 40
30.0
 40
30.0
 40
31.0
 40
31.0
 40
31.0
 40
32.0
 40
32.0
 40
32.0
 40
33.0
 40
33.0
 40
33.0
 40
34.0
 40
34.0
 40
34.0
 40
35.0
 40
35.0
 40
35.0
 40
36.0
 40
36.0
 40
36.0
 40
37.0
 40
37.0
 40
37.0
 40
38.0
 40
38.0
 40
38.0
 40
39.0
 40
39.0
 40
39.0
 40
40.0
 40
40.0
 40
40.0
 40
41.0
 40
41.0
 40
41.0
 40
42.0
 40
42.0
 40
42.0
 40
43.0
 40
43.0
 40
43.0
 40
44.0
 40
44.0
 40
44.0
 40
45.0
 40
45.0
 40
45.0
 40
46.0
 40
46.0
 40
46.0
 40
47.0
 40
47.0
 40
47.0
 40
48.0
 40
48.0
 40
48.0
 40
49.0
 40
49.0
 40
49.0
 40
50.0
 40
50.0
 40
50.0
 40
51.0
 40
51.0
 40
51.0
 40
52.0
 40
52.0
 40
52.0
 40
53.0
 40
53.0
 40
53.0
 40
54.0
 40
54.0
 40
54.0
 40
55.0
 40
55.0
 40
55.0
 40
56.0
 40
56.0
 40
56.0
 40
57.0
 40
57.0
 40
57.0
 40
58.0
 40
58.0
 40
58.0
 40
59.0
 40
59.0
 40
59.0
 40
60.0
 40
60.0
 40
60.0
 40
61.0
 40
61.0
 40
61.0
 40
62.0
 40
62.0
 40
62.0
 40
63.0
 40
63.0
 40
63.0
 40
64.0
 40
64.0
 40
64.0
 40
65.0
 40
65.0
 40
65.0
 40
66.0
 40
66.0
 40
66.0
 40
67.0
 40
67.0
 40
67.0
 40
68.0
 40
68.0
 40
68.0
 40
69.0
 40
69.0
 40
69.0
 40
70.0
 40
70.0
 40
70.0
 40
71.0
 40
71.0
 40
71.0
 40
72.0
 40
72.0
 40
72.0
 40
73.0
 40
73.0
 40
73.0
 40
74.0
 40
74.0
 40
74.0
 40
75.0
 40
75.0
 40
75.0
 40
76.0
 40
76.0
 40
76.0
 40
77.0
 40
77.0
 40
77.0
 40
78.0
 40
78.0
 40
78.0
 40
79.0
 40
79.0
 40
79.0
 40
80.0
 40
80.0
 40
80.0
 40
80.0
 10
49.67456915978411
 20
-150.1420670120969
 30
0.0
 10
49.67443798714704
 20
-150.1338031359041
 30
0.0
 10
49.67391329659429
 20
-150.1255392597114
 30
0.0
 10
49.67331797462196
 20
-150.1172552031125
 30
0.0
 10
49.67282355467876
 20
-150.1103131435028
 30
0.0
 10
49.67234931514137
 20
-150.1033912642979
 30
0.0
 10
49.67154209890836
 20
-150.0965400165149
 30
0.0
 10
49.67065416105108
 20
-150.088982454527
 30
0.0
 10
49.66937270528068
 20
-150.0814602082487
 30
0.0
 10
49.66809124950932
 20
-150.0739177815649
 30
0.0
 10
49.6667997035352
 20
-150.0662593175476
 30
0.0
 10
49.66549806735834
 20
-150.0586210339364
 30
0.0
 10
49.66383318387629
 20
-150.0510987876575
 30
0.0
 10
49.66240037506108
 20
-150.0447369147156
 30
0.0
 10
49.66065476995573
 20
-150.0384305378902
 30
0.0
 10
49.658949525663
 20
-150.0320938904552
 30
0.0
 10
49.65664895939569
 20
-150.0235373983775
 30
0.0
 10
49.6542878519125
 20
-150.0150313573155
 30
0.0
 10
49.65150295590634
 20
-150.0066817143974
 30
0.0
 10
49.64968671938045
 20
-150.0012178695153
 30
0.0
 10
49.64757786697024
 20
-149.995809520749
 30
0.0
 10
49.64552955577655
 20
-149.9903759464763
 30
0.0
 10
49.64219978881214
 20
-149.9815117032102
 30
0.0
 10
49.63874893941374
 20
-149.9727332266681
 30
0.0
 10
49.63487430149139
 20
-149.9641464639815
 30
0.0
 10
49.63393591262003
 20
-149.9620477017744
 30
0.0
 10
49.63328004943022
 20
-149.9598883983488
 30
0.0
 10
49.63230129974689
 20
-149.9577997263444
 30
0.0
 10
49.63230129974689
 20
-149.9577997263444
 30
0.0
 10
49.63263427644348
 20
-149.9576382830972
 30
0.0
 10
49.63263427644348
 20
-149.9576382830972
 30
0.0
 10
49.63263427644348
 20
-149.9576382830972
 30
0.0
 10
47.64749784387124
 20
-145.6746927323731
 30
0.0
 10
47.64749784387124
 20
-145.6746927323731
 30
0.0
 10
47.6040696104973
 20
-145.5805259136086
 30
0.0
 10
47.52856462203537
 20
-145.500556010354
 30
0.0
 10
47.42721862389163
 20
-145.4532985449711
 30
0.0
 10
47.41559471012621
 20
-145.4478775834516
 30
0.0
 10
47.40378917270836
 20
-145.4433420372381
 30
0.0
 10
47.39196345488374
 20
-145.4389780244752
 30
0.0
 10
47.39118650925961
 20
-145.438692976242
 30
0.0
 10
47.39044992444586
 20
-145.4383272063868
 30
0.0
 10
47.38966288861739
 20
-145.4380446807046
 30
0.0
 10
47.37803897485261
 20
-145.4338244533325
 30
0.0
 10
47.36630406885467
 20
-145.4303458558749
 30
0.0
 10
47.35453889224848
 20
-145.4271270811437
 30
0.0
 10
47.35200625131466
 20
-145.4264308571416
 30
0.0
 10
47.34952406139683
 20
-145.4255630996907
 30
0.0
 10
47.34697124005719
 20
-145.424909759052
 30
0.0
 10
47.33630589556928
 20
-145.422190449364
 30
0.0
 10
47.32560019026941
 20
-145.4201295254175
 30
0.0
 10
47.31487430456403
 20
-145.4182098643115
 30
0.0
 10
47.31085840380187
 20
-145.4174833697011
 30
0.0
 10
47.3069030442559
 20
-145.4165853416414
 30
0.0
 10
47.3028669630876
 20
-145.4159673167122
 30
0.0
 10
47.29353352538514
 20
-145.4145572108542
 30
0.0
 10
47.28421017788575
 20
-145.4137045887075
 30
0.0
 10
47.2748666499799
 20
-145.4128872822704
 30
0.0
 10
47.26913541472065
 20
-145.4123701593707
 30
0.0
 10
47.26343445007031
 20
-145.4117142961809
 30
0.0
 10
47.25767294420216
 20
-145.4114141126442
 30
0.0
 10
47.25004475079372
 20
-145.411040775136
 30
0.0
 10
47.2424569181966
 20
-145.4111139291069
 30
0.0
 10
47.2348589953961
 20
-145.4111265418607
 30
0.0
 10
47.22725098239316
 20
-145.4111139291069
 30
0.0
 10
47.21966314979636
 20
-145.411040775136
 30
0.0
 10
47.21203495638792
 20
-145.4114141126442
 30
0.0
 10
47.20627345051945
 20
-145.4117117736299
 30
0.0
 10
47.20057248586943
 20
-145.4123701593707
 30
0.0
 10
47.19484125060922
 20
-145.4128872822704
 30
0.0
 10
47.18549772270401
 20
-145.4137045887075
 30
0.0
 10
47.17617437520494
 20
-145.4145597334046
 30
0.0
 10
47.16684093750248
 20
-145.4159698392633
 30
0.0
 10
47.16281494653725
 20
-145.4165853416414
 30
0.0
 10
47.15885958699192
 20
-145.4174833697011
 30
0.0
 10
47.15485377643156
 20
-145.4182073417611
 30
0.0
 10
47.1441278907265
 20
-145.4201270028671
 30
0.0
 10
47.13341209522387
 20
-145.422187926813
 30
0.0
 10
47.12273666053257
 20
-145.424909759052
 30
0.0
 10
47.12019392939632
 20
-145.4255630996907
 30
0.0
 10
47.11771173947818
 20
-145.4264258120402
 30
0.0
 10
47.1151690083416
 20
-145.4271245585927
 30
0.0
 10
47.10340383173509
 20
-145.4303433333245
 30
0.0
 10
47.09166892573747
 20
-145.4338219307821
 30
0.0
 10
47.0800349217693
 20
-145.4380472032549
 30
0.0
 10
47.0792882467528
 20
-145.4383196387344
 30
0.0
 10
47.07857184234519
 20
-145.4386702732855
 30
0.0
 10
47.07782516732868
 20
-145.4389452313153
 30
0.0
 10
47.06596917889676
 20
-145.4433168117305
 30
0.0
 10
47.05414346107277
 20
-145.4478649706985
 30
0.0
 10
47.04248927669845
 20
-145.4532985449711
 30
0.0
 10
46.94116345896054
 20
-145.5005484427016
 30
0.0
 10
46.86566856070169
 20
-145.5804956429997
 30
0.0
 10
46.82223023712466
 20
-145.6746372362573
 30
0.0
 10
46.82223023712466
 20
-145.6746372362573
 30
0.0
 10
44.83707362414788
 20
-149.9576382830972
 30
0.0
 10
44.83707362414788
 20
-149.9576382830972
 30
0.0
 10
44.83707362414788
 20
-149.9576382830972
 30
0.0
 10
44.83740660084384
 20
-149.9577997263444
 30
0.0
 10
44.83740660084384
 20
-149.9577997263444
 30
0.0
 10
44.7313484779352
 20
-150.1852379452959
 30
0.0
 10
44.82975822702925
 20
-150.4555897972728
 30
0.0
 10
45.05719140087961
 20
-150.5616479201811
 30
0.0
 10
45.28463466493272
 20
-150.6677060430895
 30
0.0
 10
45.55499156201203
 20
-150.5693063841985
 30
0.0
 10
45.66104968491938
 20
-150.3418631201451
 30
0.0
 10
45.66104968491938
 20
-150.3418631201451
 30
0.0
 10
45.66137257141259
 20
-150.3420195182909
 30
0.0
 10
45.66137257141259
 20
-150.3420195182909
 30
0.0
 10
45.66137257141259
 20
-150.3420195182909
 30
0.0
 10
47.2348589953961
 20
-146.9472287640205
 30
0.0
 10
47.2348589953961
 20
-146.9472287640205
 30
0.0
 10
47.2348589953961
 20
-146.9472287640205
 30
0.0
 10
48.51042208791991
 20
-149.6992862049452
 30
0.0
 10
48.51042208791991
 20
-149.6992862049452
 30
0.0
 10
48.51042208791991
 20
-149.6992862049452
 30
0.0
 10
47.23441502646762
 20
-149.7062963734245
 30
0.0
 10
47.23441502646762
 20
-149.7062963734245
 30
0.0
 10
47.23441502646762
 20
-149.7062963734245
 30
0.0
 10
47.23441502646762
 20
-149.7066596207294
 30
0.0
 10
47.23441502646762
 20
-149.7066596207294
 30
0.0
 10
46.98346158960729
 20
-149.7066596207294
 30
0.0
 10
46.78002291830428
 20
-149.9100982920327
 30
0.0
 10
46.78002291830428
 20
-150.161051728893
 30
0.0
 10
46.78002291830428
 20
-150.412005165754
 30
0.0
 10
46.98346158960729
 20
-150.6154438370573
 30
0.0
 10
47.23441502646762
 20
-150.6154438370573
 30
0.0
 10
47.23441502646762
 20
-150.6154438370573
 30
0.0
 10
47.23441502646762
 20
-150.6158171745649
 30
0.0
 10
47.23441502646762
 20
-150.6158171745649
 30
0.0
 10
47.23441502646762
 20
-150.6158171745649
 30
0.0
 10
49.22059074994099
 20
-150.6049046201061
 30
0.0
 10
49.22059074994099
 20
-150.6049046201061
 30
0.0
 10
49.22059074994099
 20
-150.6049046201061
 30
0.0
 10
49.22059074994099
 20
-150.6045312825972
 30
0.0
 10
49.22059074994099
 20
-150.6045312825972
 30
0.0
 10
49.22438466623907
 20
-150.6045312825972
 30
0.0
 10
49.22804740989976
 20
-150.6040570430601
 30
0.0
 10
49.23181105558893
 20
-150.603966231234
 30
0.0
 10
49.23675525502099
 20
-150.6038451487985
 30
0.0
 10
49.24168936424996
 20
-150.6035020818997
 30
0.0
 10
49.24664365388381
 20
-150.6032195562175
 30
0.0
 10
49.25711728451621
 20
-150.6026191891441
 30
0.0
 10
49.26752028372871
 20
-150.6018371984174
 30
0.0
 10
49.27779211030253
 20
-150.6005456524433
 30
0.0
 10
49.2813741323396
 20
-150.6000915933124
 30
0.0
 10
49.28494606417392
 20
-150.5994508654267
 30
0.0
 10
49.28853817641406
 20
-150.5989059944691
 30
0.0
 10
49.3003840746442
 20
-150.5971250736531
 30
0.0
 10
49.31210889043874
 20
-150.5950263114453
 30
0.0
 10
49.32363190217471
 20
-150.5923524076711
 30
0.0
 10
49.32559949174478
 20
-150.5918933034388
 30
0.0
 10
49.32754690090806
 20
-150.591328252075
 30
0.0
 10
49.32950440027506
 20
-150.5908388772332
 30
0.0
 10
49.3427528367115
 20
-150.5875746965876
 30
0.0
 10
49.35576919847952
 20
-150.5838110508981
 30
0.0
 10
49.36853330517584
 20
-150.5794167675257
 30
0.0
 10
49.36936070181468
 20
-150.5791241516408
 30
0.0
 10
49.37018809845482
 20
-150.5787911749448
 30
0.0
 10
49.37102558529769
 20
-150.5784985590599
 30
0.0
 10
49.38485925350341
 20
-150.5736401263538
 30
0.0
 10
49.39835994501156
 20
-150.5681611461669
 30
0.0
 10
49.41154784023021
 20
-150.5620414380949
 30
0.0
 10
49.41186063652034
 20
-150.5618900850517
 30
0.0
 10
49.41219361321727
 20
-150.5617942281236
 30
0.0
 10
49.4125064095074
 20
-150.5616479201811
 30
0.0
 10
49.41304119026226
 20
-150.5613956651085
 30
0.0
 10
49.41351542980028
 20
-150.5610828688174
 30
0.0
 10
49.41404012035206
 20
-150.5608306137447
 30
0.0
 10
49.42677395643852
 20
-150.554821897905
 30
0.0
 10
49.43917481582934
 20
-150.5482784013104
 30
0.0
 10
49.45123260832081
 20
-150.5411547180479
 30
0.0
 10
49.45310938606354
 20
-150.5400447957265
 30
0.0
 10
49.45494580299526
 20
-150.5388945125935
 30
0.0
 10
49.45682258073895
 20
-150.5377593647646
 30
0.0
 10
49.46734666238608
 20
-150.5313268604022
 30
0.0
 10
49.47759830855473
 20
-150.5245260636329
 30
0.0
 10
49.48753715843227
 20
-150.5172863430369
 30
0.0
 10
49.49042295646755
 20
-150.5151976710319
 30
0.0
 10
49.49324821328537
 20
-150.5130635931145
 30
0.0
 10
49.49606337990043
 20
-150.5109143798916
 30
0.0
 10
49.504690503399
 20
-150.5043153871813
 30
0.0
 10
49.51306537182298
 20
-150.4974490040928
 30
0.0
 10
49.52119807537835
 20
-150.4902597345118
 30
0.0
 10
49.52453793254519
 20
-150.4873083501573
 30
0.0
 10
49.52782733869731
 20
-150.4843166049912
 30
0.0
 10
49.53106629383566
 20
-150.4812794539114
 30
0.0
 10
49.53846241257664
 20
-150.4743474845044
 30
0.0
 10
49.54558609583945
 20
-150.4671834404303
 30
0.0
 10
49.55249788484028
 20
-150.4597772314856
 30
0.0
 10
49.55566620855809
 20
-150.4563818782024
 30
0.0
 10
49.55879417146296
 20
-150.452971389615
 30
0.0
 10
49.56184141274549
 20
-150.4494902696077
 30
0.0
 10
49.56858166829762
 20
-150.4418166702856
 30
0.0
 10
49.57500912755832
 20
-150.4339109962963
 30
0.0
 10
49.58122469255802
 20
-150.425793428046
 30
0.0
 10
49.58377751389703
 20
-150.4224535708792
 30
0.0
 10
49.58631015482989
 20
-150.4191137137123
 30
0.0
 10
49.58876207413977
 20
-150.4157082702257
 30
0.0
 10
49.59509872157538
 20
-150.4069550191917
 30
0.0
 10
49.60105194129807
 20
-150.397964648388
 30
0.0
 10
49.60676299615245
 20
-150.3887522931211
 30
0.0
 10
49.60857923267835
 20
-150.385805953868
 30
0.0
 10
49.61039546920425
 20
-150.3828747499197
 30
0.0
 10
49.61214107430959
 20
-150.3798930949564
 30
0.0
 10
49.61793285078632
 20
-150.3700450569052
 30
0.0
 10
49.62331092894377
 20
-150.3599699892876
 30
0.0
 10
49.62835603040464
 20
-150.3496729372069
 30
0.0
 10
49.62963748617535
 20
-150.347044439345
 30
0.0
 10
49.6309189419464
 20
-150.3444260316878
 30
0.0
 10
49.63216003690514
 20
-150.3417823985218
 30
0.0
 10
49.6370739657283
 20
-150.3312330913671
 30
0.0
 10
49.64155401582508
 20
-150.3204819801542
 30
0.0
 10
49.64567081861765
 20
-150.3095139295789
 30
0.0
 10
49.64672019972154
 20
-150.3067290335731
 30
0.0
 10
49.64774940041927
 20
-150.303944137566
 30
0.0
 10
49.64873824030536
 20
-150.301139061154
 30
0.0
 10
49.6524716153866
 20
-150.2905796637966
 30
0.0
 10
49.6557912921473
 20
-150.2798689133953
 30
0.0
 10
49.65873763140038
 20
-150.2689714942406
 30
0.0
 10
49.65976683209909
 20
-150.2651977583477
 30
0.0
 10
49.66072540137628
 20
-150.2614240224554
 30
0.0
 10
49.66165370004489
 20
-150.2576301061564
 30
0.0
 10
49.66403498793422
 20
-150.2478627897285
 30
0.0
 10
49.6661135697365
 20
-150.2380046614746
 30
0.0
 10
49.66783899443602
 20
-150.2279951801756
 30
0.0
 10
49.66880765391628
 20
-150.2224960195838
 30
0.0
 10
49.66960477994719
 20
-150.2169766785859
 30
0.0
 10
49.67037163536887
 20
-150.211427066979
 30
0.0
 10
49.67151182829882
 20
-150.2029967024383
 30
0.0
 10
49.67250066818587
 20
-150.1945411123894
 30
0.0
 10
49.6731767117815
 20
-150.1859694850082
 30
0.0
 10
49.67377203375448
 20
-150.1785330054553
 30
0.0
 10
49.67406464963911
 20
-150.1710763454955
 30
0.0
 10
49.6743068145087
 20
-150.163599505131
 30
0.0
 10
49.67443798714704
 20
-150.1590891844256
 30
0.0
 10
49.67498285810465
 20
-150.1546848108498
 30
0.0
 10
49.67498285810465
 20
-150.1501391744341
 30
0.0
 10
49.67498285810465
 20
-150.1474148196455
 30
0.0
 10
49.67461961079883
 20
-150.1447812766822
 30
0.0
 10
49.67456915978411
 20
-150.1420670120969
 30
0.0
  0
SPLINE
  5
109
330
1F
100
AcDbEntity
  8
LAYER_1
 62
   250
100
AcDbSpline
210
0.0
220
0.0
230
1.0
 70
    11
 71
     3
 72
    35
 73
    31
 74
     0
 42
0.0000000001
 43
0.0000000001
 12
1.0
 22
0.0
 32
0.0
 13
1.0
 23
0.0
 33
0.0
 40
0.0
 40
0.0
 40
0.0
 40
0.0
 40
1.0
 40
1.0
 40
1.0
 40
2.0
 40
2.0
 40
2.0
 40
3.0
 40
3.0
 40
3.0
 40
4.0
 40
4.0
 40
4.0
 40
5.0
 40
5.0
 40
5.0
 40
6.0
 40
6.0
 40
6.0
 40
7.0
 40
7.0
 40
7.0
 40
8.0
 40
8.0
 40
8.0
 40
9.0
 40
9.0
 40
9.0
 40
10.0
 40
10.0
 40
10.0
 40
10.0
 10
38.10744531233686
 20
-149.6957470662705
 30
0.0
 10
38.10744531233686
 20
-149.6957470662705
 30
0.0
 10
38.10744531233686
 20
-149.695383818965
 30
0.0
 10
38.10744531233686
 20
-149.695383818965
 30
0.0
 10
38.10744531233686
 20
-149.695383818965
 30
0.0
 10
35.06480516257737
 20
-149.7062963734245
 30
0.0
 10
35.06480516257737
 20
-149.7062963734245
 30
0.0
 10
35.06480516257737
 20
-149.7062963734245
 30
0.0
 10
35.06480516257737
 20
-149.7066596207294
 30
0.0
 10
35.06480516257737
 20
-149.7066596207294
 30
0.0
 10
34.81385172571705
 20
-149.7066596207294
 30
0.0
 10
34.61041305441307
 20
-149.9100982920327
 30
0.0
 10
34.61041305441307
 20
-150.161051728893
 30
0.0
 10
34.61041305441307
 20
-150.412005165754
 30
0.0
 10
34.81385172571705
 20
-150.6154438370573
 30
0.0
 10
35.06480516257737
 20
-150.6154438370573
 30
0.0
 10
35.06480516257737
 20
-150.6154438370573
 30
0.0
 10
35.06480516257737
 20
-150.6158171745649
 30
0.0
 10
35.06480516257737
 20
-150.6158171745649
 30
0.0
 10
35.06480516257737
 20
-150.6158171745649
 30
0.0
 10
38.10744531233686
 20
-150.6049046201061
 30
0.0
 10
38.10744531233686
 20
-150.6049046201061
 30
0.0
 10
38.10744531233686
 20
-150.6049046201061
 30
0.0
 10
38.10744531233686
 20
-150.6045312825972
 30
0.0
 10
38.10744531233686
 20
-150.6045312825972
 30
0.0
 10
38.35840883939993
 20
-150.6045312825972
 30
0.0
 10
38.5618374205002
 20
-150.4010926112945
 30
0.0
 10
38.5618374205002
 20
-150.1501391744341
 30
0.0
 10
38.5618374205002
 20
-149.8991857375738
 30
0.0
 10
38.35840883939993
 20
-149.6957470662705
 30
0.0
 10
38.10744531233686
 20
-149.6957470662705
 30
0.0
  0
SPLINE
  5
10A
330
1F
100
AcDbEntity
  8
LAYER_1
 62
   250
100
AcDbSpline
210
0.0
220
0.0
230
1.0
 70
    11
 71
     3
 72
    35
 73
    31
 74
     0
 42
0.0000000001
 43
0.0000000001
 12
1.0
 22
0.0
 32
0.0
 13
1.0
 23
0.0
 33
0.0
 40
0.0
 40
0.0
 40
0.0
 40
0.0
 40
1.0
 40
1.0
 40
1.0
 40
2.0
 40
2.0
 40
2.0
 40
3.0
 40
3.0
 40
3.0
 40
4.0
 40
4.0
 40
4.0
 40
5.0
 40
5.0
 40
5.0
 40
6.0
 40
6.0
 40
6.0
 40
7.0
 40
7.0
 40
7.0
 40
8.0
 40
8.0
 40
8.0
 40
9.0
 40
9.0
 40
9.0
 40
10.0
 40
10.0
 40
10.0
 40
10.0
 10
33.03694009390171
 20
-149.6957470662705
 30
0.0
 10
33.03694009390171
 20
-149.6957470662705
 30
0.0
 10
33.03694009390171
 20
-149.695383818965
 30
0.0
 10
33.03694009390171
 20
-149.695383818965
 30
0.0
 10
33.03694009390171
 20
-149.695383818965
 30
0.0
 10
29.99428985393914
 20
-149.7062963734245
 30
0.0
 10
29.99428985393914
 20
-149.7062963734245
 30
0.0
 10
29.99428985393914
 20
-149.7062963734245
 30
0.0
 10
29.99428985393914
 20
-149.7066596207294
 30
0.0
 10
29.99428985393914
 20
-149.7066596207294
 30
0.0
 10
29.74333641707883
 20
-149.7066596207294
 30
0.0
 10
29.53989774577581
 20
-149.9100982920327
 30
0.0
 10
29.53989774577581
 20
-150.161051728893
 30
0.0
 10
29.53989774577581
 20
-150.412005165754
 30
0.0
 10
29.74333641707883
 20
-150.6154438370573
 30
0.0
 10
29.99428985393914
 20
-150.6154438370573
 30
0.0
 10
29.99428985393914
 20
-150.6154438370573
 30
0.0
 10
29.99428985393914
 20
-150.6158171745649
 30
0.0
 10
29.99428985393914
 20
-150.6158171745649
 30
0.0
 10
29.99428985393914
 20
-150.6158171745649
 30
0.0
 10
33.03694009390171
 20
-150.6049046201061
 30
0.0
 10
33.03694009390171
 20
-150.6049046201061
 30
0.0
 10
33.03694009390171
 20
-150.6049046201061
 30
0.0
 10
33.03694009390171
 20
-150.6045312825972
 30
0.0
 10
33.03694009390171
 20
-150.6045312825972
 30
0.0
 10
33.28788344055896
 20
-150.6045312825972
 30
0.0
 10
33.49132211186198
 20
-150.4010926112945
 30
0.0
 10
33.49132211186198
 20
-150.1501391744341
 30
0.0
 10
33.49132211186198
 20
-149.8991857375738
 30
0.0
 10
33.28788344055896
 20
-149.6957470662705
 30
0.0
 10
33.03694009390171
 20
-149.6957470662705
 30
0.0
  0
ENDSEC
  0
SECTION
  2
OBJECTS
  0
DICTIONARY
  5
C
330
0
100
AcDbDictionary
  3
ACAD_GROUP
350
D
  3
ACAD_LAYOUT
350
1A
  3
ACAD_MATERIAL
350
3B
  3
ACAD_MLEADERSTYLE
350
12D
  3
ACAD_MLINESTYLE
350
17
  3
ACAD_PLOTSETTINGS
350
19
  3
ACAD_VISUALSTYLE
350
2A
  3
ACDBHEADERROUNDTRIPXREC
350
10B
  3
ACDBVARIABLEDICTIONARY
350
12B
  0
DICTIONARY
  5
D
102
{ACAD_REACTORS
330
C
102
}
330
C
100
AcDbDictionary
  0
DICTIONARY
  5
1A
102
{ACAD_REACTORS
330
C
102
}
330
C
100
AcDbDictionary
  0
DICTIONARY
  5
3B
102
{ACAD_REACTORS
330
C
102
}
330
C
100
AcDbDictionary
  3
BYBLOCK
350
3D
  3
BYLAYER
350
3C
  3
GLOBAL
350
3E
  0
DICTIONARY
  5
12D
102
{ACAD_REACTORS
330
C
102
}
330
C
100
AcDbDictionary
  0
DICTIONARY
  5
17
102
{ACAD_REACTORS
330
C
102
}
330
C
100
AcDbDictionary
  3
STANDARD
350
18
  0
DICTIONARY
  5
19
102
{ACAD_REACTORS
330
C
102
}
330
C
100
AcDbDictionary
  0
DICTIONARY
  5
2A
102
{ACAD_REACTORS
330
C
102
}
330
C
100
AcDbDictionary
  3
2DWIREFRAME
350
2F
  3
3DWIREFRAME
350
30
  3
3D_HIDDEN
350
31
  3
BASIC
350
32
  3
BRIGHTEN
350
36
  3
COLORCHANGE
350
3A
  3
CONCEPTUAL
350
34
  3
DIM
350
35
  3
FACEPATTERN
350
39
  3
FLAT
350
2B
  3
FLATWITHEDGES
350
2C
  3
GOURAUD
350
2D
  3
GOURAUDWITHEDGES
350
2E
  3
LINEPATTERN
350
38
  3
REALISTIC
350
33
  3
THICKEN
350
37
  0
DICTIONARY
  5
10B
102
{ACAD_REACTORS
330
C
102
}
330
C
100
AcDbDictionary
  3
CEPSNTYPE
350
114
  3
DIMSTYLEDATA
350
12A
  3
FINGERPRINTGUID
350
115
  3
HYPERLINKBASE
350
10E
  3
INSUNITS
350
113
  3
LAYOUTDICT
350
110
  3
LWETCUNION
350
112
  3
PLOTSETDICT
350
111
  3
PSVPSCALE
350
117
  3
PUCSBASE
350
11A
  3
PUCSORGBACK
350
120
  3
PUCSORGBOTTOM
350
11C
  3
PUCSORGFRONT
350
11F
  3
PUCSORGLEFT
350
11D
  3
PUCSORGRIGHT
350
11E
  3
PUCSORGTOP
350
11B
  3
PUCSORTHOREF
350
118
  3
PUCSORTHOVIEW
350
119
  3
STYLESHEET
350
10F
  3
TSTACKALIGN
350
10C
  3
TSTACKSIZE
350
10D
  3
UCSBASE
350
123
  3
UCSORGBACK
350
129
  3
UCSORGBOTTOM
350
125
  3
UCSORGFRONT
350
128
  3
UCSORGLEFT
350
126
  3
UCSORGRIGHT
350
127
  3
UCSORGTOP
350
124
  3
UCSORTHOREF
350
121
  3
UCSORTHOVIEW
350
122
  3
VERSIONGUID
350
116
  0
DICTIONARY
  5
12B
102
{ACAD_REACTORS
330
C
102
}
330
C
100
AcDbDictionary
  3
DIMASSOC
350
12E
  3
HIDETEXT
350
12F
  0
MATERIAL
  5
3D
102
{ACAD_REACTORS
330
3B
102
}
102
{ACAD_XDICTIONARY
360
132
102
}
330
3B
100
AcDbMaterial
  1
ByBlock
  0
MATERIAL
  5
3C
102
{ACAD_REACTORS
330
3B
102
}
102
{ACAD_XDICTIONARY
360
130
102
}
330
3B
100
AcDbMaterial
  1
ByLayer
  0
MATERIAL
  5
3E
102
{ACAD_REACTORS
330
3B
102
}
102
{ACAD_XDICTIONARY
360
134
102
}
330
3B
100
AcDbMaterial
  1
Global
  0
MLINESTYLE
  5
18
102
{ACAD_REACTORS
330
17
102
}
330
17
100
AcDbMlineStyle
  2
Standard
 70
     0
  3

 62
   256
 51
90.0
 52
90.0
 71
     2
 49
0.5
 62
   256
  6
BYLAYER
 49
-0.5
 62
   256
  6
BYLAYER
  0
ACAD_PROXY_OBJECT
  5
2F
102
{ACAD_REACTORS
330
2A
102
}
330
2A
100
AcDbProxyObject
 90
      499
 91
      501
 93
      436
310
42CC9915DA5C99599C985B595049028333333333333E3BF0000000000000FB0107901411070040501600405405064090741402480A0340
1001
ACAD
1000
AcDbSavedByObjectVersion
1070
     0
  0
ACAD_PROXY_OBJECT
  5
30
102
{ACAD_REACTORS
330
2A
102
}
330
2A
100
AcDbProxyObject
 90
      499
 91
      501
 93
      436
310
42CCD915DA5C99599C985B595059028333333333333E3BF0000000000000FB0107901411070040501600405405064090741402480A0340
1001
ACAD
1000
AcDbSavedByObjectVersion
1070
     0
  0
ACAD_PROXY_OBJECT
  5
31
102
{ACAD_REACTORS
330
2A
102
}
330
2A
100
AcDbProxyObject
 90
      499
 91
      501
 93
      500
310
424CD108121A5919195B90640502408333333333333E3BF0000000000000FB01079024090700405020000000000001110200405405064090740C02480A0340
1001
ACAD
1000
AcDbSavedByObjectVersion
1070
     0
  0
ACAD_PROXY_OBJECT
  5
32
102
{ACAD_REACTORS
330
2A
102
}
330
2A
100
AcDbProxyObject
 90
      499
 91
      501
 93
      388
310
4150985CDA58D07406404333333333333E3BF0000000000000FB0107A41107004050150841D405064090741402480A0350
1001
ACAD
1000
AcDbSavedByObjectVersion
1070
     0
  0
ACAD_PROXY_OBJECT
  5
36
102
{ACAD_REACTORS
330
2A
102
}
330
2A
100
AcDbProxyObject
 90
      499
 91
      501
 93
      428
310
42109C9A59DA1D195B90C409028333333333333E3BF0000000000000FB010790141107004050150841D405064090741402480A029950
1001
ACAD
1000
AcDbSavedByObjectVersion
1070
     0
  0
ACAD_PROXY_OBJECT
  5
3A
102
{ACAD_REACTORS
330
2A
102
}
330
2A
100
AcDbProxyObject
 90
      499
 91
      501
 93
      452
310
42D0DBDB1BDC90DA185B99D95104090240C333333333333E3BF0000000000000FB0108901411070040501508421405064090741402480A0350
1001
ACAD
1000
AcDbSavedByObjectVersion
1070
     0
  0
ACAD_PROXY_OBJECT
  5
34
102
{ACAD_REACTORS
330
2A
102
}
330
2A
100
AcDbProxyObject
 90
      499
 91
      501
 93
      500
310
4290DBDB98D95C1D1D585B10940D028333333333333E3BF0000000000000FB0107902409070040501000000000000111010841D405064090740C02480A0340
1001
ACAD
1000
AcDbSavedByObjectVersion
1070
     0
  0
ACAD_PROXY_OBJECT
  5
35
102
{ACAD_REACTORS
330
2A
102
}
330
2A
100
AcDbProxyObject
 90
      499
 91
      501
 93
      412
310
40D11A5B50B409028333333333333E3BF0000000000000FB010790141107004050150841D405064090741402480A02677FFFFFD0
1001
ACAD
1000
AcDbSavedByObjectVersion
1070
     0
  0
ACAD_PROXY_OBJECT
  5
39
102
{ACAD_REACTORS
330
2A
102
}
330
2A
100
AcDbProxyObject
 90
      499
 91
      501
 93
      444
310
42D19858D95C185D1D195C9B90F409028333333333333E3BF0000000000000FB010790141107004050150841D405064090741402480A0350
1001
ACAD
1000
AcDbSavedByObjectVersion
1070
     0
  0
ACAD_PROXY_OBJECT
  5
2B
102
{ACAD_REACTORS
330
2A
102
}
330
2A
100
AcDbProxyObject
 90
      499
 91
      501
 93
      388
310
41119B185D240901404333333333333E3BF0000000000000F9010740A41107004050150841D405064090741402480A1B50
1001
ACAD
1000
AcDbSavedByObjectVersion
1070
     0
  0
ACAD_PROXY_OBJECT
  5
2C
102
{ACAD_REACTORS
330
2A
102
}
330
2A
100
AcDbProxyObject
 90
      499
 91
      501
 93
      476
310
43519B185D15DA5D1A115919D95CD0140901404333333333333E3BF0000000000000F9010740901411070040501600405405064090741402480A1B50
1001
ACAD
1000
AcDbSavedByObjectVersion
1070
     0
  0
ACAD_PROXY_OBJECT
  5
2D
102
{ACAD_REACTORS
330
2A
102
}
330
2A
100
AcDbProxyObject
 90
      499
 91
      501
 93
      412
310
41D1DBDD5C985D5910240902404333333333333E3BF0000000000000F9010740A411070040501641D405064090741402480A1B50
1001
ACAD
1000
AcDbSavedByObjectVersion
1070
     0
  0
ACAD_PROXY_OBJECT
  5
2E
102
{ACAD_REACTORS
330
2A
102
}
330
2A
100
AcDbProxyObject
 90
      499
 91
      501
 93
      500
310
4411DBDD5C985D5915DA5D1A115919D95CD0340902404333333333333E3BF0000000000000F9010740901411070040501600405405064090741402480A1B50
1001
ACAD
1000
AcDbSavedByObjectVersion
1070
     0
  0
ACAD_PROXY_OBJECT
  5
38
102
{ACAD_REACTORS
330
2A
102
}
330
2A
100
AcDbProxyObject
 90
      499
 91
      501
 93
      444
310
42D31A5B995C185D1D195C9B90E409028333333333333E3BF0000000000000FB010790141107004050750841D405064090741402483A0350
1001
ACAD
1000
AcDbSavedByObjectVersion
1070
     0
  0
ACAD_PROXY_OBJECT
  5
33
102
{ACAD_REACTORS
330
2A
102
}
330
2A
100
AcDbProxyObject
 90
      499
 91
      501
 93
      420
310
425499585B1A5CDD1A58D08409028333333333333E3BF0000000000000FB01079019070040501508421405064090741402480A1B40
1001
ACAD
1000
AcDbSavedByObjectVersion
1070
     0
  0
ACAD_PROXY_OBJECT
  5
37
102
{ACAD_REACTORS
330
2A
102
}
330
2A
100
AcDbProxyObject
 90
      499
 91
      501
 93
      412
310
41D51A1A58DAD95B90D409028333333333333E3BF0000000000000FB010790141107004050150C41D405064090741402480A0350
1001
ACAD
1000
AcDbSavedByObjectVersion
1070
     0
  0
XRECORD
  5
114
102
{ACAD_REACTORS
330
10B
102
}
330
10B
100
AcDbXrecord
 90
        0
  0
XRECORD
  5
12A
102
{ACAD_REACTORS
330
10B
102
}
330
10B
100
AcDbXrecord
1000
DSTYLE
1002
{
1070
   340
340
11
1002
}
  0
XRECORD
  5
115
102
{ACAD_REACTORS
330
10B
102
}
330
10B
100
AcDbXrecord
  1
{8D91CAA6-8284-A79D-E6B0-73319A166519}
  0
XRECORD
  5
10E
102
{ACAD_REACTORS
330
10B
102
}
330
10B
100
AcDbXrecord
  1

  0
XRECORD
  5
113
102
{ACAD_REACTORS
330
10B
102
}
330
10B
100
AcDbXrecord
 90
        1
  0
XRECORD
  5
110
102
{ACAD_REACTORS
330
10B
102
}
330
10B
100
AcDbXrecord
340
1A
  0
XRECORD
  5
112
102
{ACAD_REACTORS
330
10B
102
}
330
10B
100
AcDbXrecord
 90
    10269
  0
XRECORD
  5
111
102
{ACAD_REACTORS
330
10B
102
}
330
10B
100
AcDbXrecord
340
19
  0
XRECORD
  5
117
102
{ACAD_REACTORS
330
10B
102
}
330
10B
100
AcDbXrecord
 40
0.0
  0
XRECORD
  5
11A
102
{ACAD_REACTORS
330
10B
102
}
330
10B
100
AcDbXrecord
340
0
  0
XRECORD
  5
120
102
{ACAD_REACTORS
330
10B
102
}
330
10B
100
AcDbXrecord
 10
0.0
 20
0.0
 30
0.0
  0
XRECORD
  5
11C
102
{ACAD_REACTORS
330
10B
102
}
330
10B
100
AcDbXrecord
 10
0.0
 20
0.0
 30
0.0
  0
XRECORD
  5
11F
102
{ACAD_REACTORS
330
10B
102
}
330
10B
100
AcDbXrecord
 10
0.0
 20
0.0
 30
0.0
  0
XRECORD
  5
11D
102
{ACAD_REACTORS
330
10B
102
}
330
10B
100
AcDbXrecord
 10
0.0
 20
0.0
 30
0.0
  0
XRECORD
  5
11E
102
{ACAD_REACTORS
330
10B
102
}
330
10B
100
AcDbXrecord
 10
0.0
 20
0.0
 30
0.0
  0
XRECORD
  5
11B
102
{ACAD_REACTORS
330
10B
102
}
330
10B
100
AcDbXrecord
 10
0.0
 20
0.0
 30
0.0
  0
XRECORD
  5
118
102
{ACAD_REACTORS
330
10B
102
}
330
10B
100
AcDbXrecord
340
0
  0
XRECORD
  5
119
102
{ACAD_REACTORS
330
10B
102
}
330
10B
100
AcDbXrecord
 70
     0
  0
XRECORD
  5
10F
102
{ACAD_REACTORS
330
10B
102
}
330
10B
100
AcDbXrecord
  1

  0
XRECORD
  5
10C
102
{ACAD_REACTORS
330
10B
102
}
330
10B
100
AcDbXrecord
 90
        1
  0
XRECORD
  5
10D
102
{ACAD_REACTORS
330
10B
102
}
330
10B
100
AcDbXrecord
 90
       70
  0
XRECORD
  5
123
102
{ACAD_REACTORS
330
10B
102
}
330
10B
100
AcDbXrecord
340
0
  0
XRECORD
  5
129
102
{ACAD_REACTORS
330
10B
102
}
330
10B
100
AcDbXrecord
 10
0.0
 20
0.0
 30
0.0
  0
XRECORD
  5
125
102
{ACAD_REACTORS
330
10B
102
}
330
10B
100
AcDbXrecord
 10
0.0
 20
0.0
 30
0.0
  0
XRECORD
  5
128
102
{ACAD_REACTORS
330
10B
102
}
330
10B
100
AcDbXrecord
 10
0.0
 20
0.0
 30
0.0
  0
XRECORD
  5
126
102
{ACAD_REACTORS
330
10B
102
}
330
10B
100
AcDbXrecord
 10
0.0
 20
0.0
 30
0.0
  0
XRECORD
  5
127
102
{ACAD_REACTORS
330
10B
102
}
330
10B
100
AcDbXrecord
 10
0.0
 20
0.0
 30
0.0
  0
XRECORD
  5
124
102
{ACAD_REACTORS
330
10B
102
}
330
10B
100
AcDbXrecord
 10
0.0
 20
0.0
 30
0.0
  0
XRECORD
  5
121
102
{ACAD_REACTORS
330
10B
102
}
330
10B
100
AcDbXrecord
340
0
  0
XRECORD
  5
122
102
{ACAD_REACTORS
330
10B
102
}
330
10B
100
AcDbXrecord
 70
     0
  0
XRECORD
  5
116
102
{ACAD_REACTORS
330
10B
102
}
330
10B
100
AcDbXrecord
  1
{FAEB1C32-E019-11D5-929B-00C0DF256EC4}
  0
DICTIONARYVAR
  5
12E
102
{ACAD_REACTORS
330
12B
102
}
330
12B
100
DictionaryVariables
280
     0
  1
2
  0
DICTIONARYVAR
  5
12F
102
{ACAD_REACTORS
330
12B
102
}
330
12B
100
DictionaryVariables
280
     0
  1
1
  0
DICTIONARY
  5
132
330
3D
100
AcDbDictionary
280
     1
  3
ACAD_XREC_ROUNDTRIP
360
133
  0
DICTIONARY
  5
130
330
3C
100
AcDbDictionary
280
     1
  3
ACAD_XREC_ROUNDTRIP
360
131
  0
DICTIONARY
  5
134
330
3E
100
AcDbDictionary
280
     1
  3
ACAD_XREC_ROUNDTRIP
360
135
  0
XRECORD
  5
133
102
{ACAD_REACTORS
330
132
102
}
330
132
100
AcDbXrecord
102
MATERIAL
148
0.0
149
0.0
149
0.0
 93
        0
 94
      127
282
     0
 72
     1
 77
     1
171
     1
175
     1
179
     1
273
     0
  0
XRECORD
  5
131
102
{ACAD_REACTORS
330
130
102
}
330
130
100
AcDbXrecord
102
MATERIAL
148
0.0
149
0.0
149
0.0
 93
        0
 94
      127
282
     0
 72
     1
 77
     1
171
     1
175
     1
179
     1
273
     0
  0
XRECORD
  5
135
102
{ACAD_REACTORS
330
134
102
}
330
134
100
AcDbXrecord
102
MATERIAL
148
0.0
149
0.0
149
0.0
 93
        0
 94
      127
282
     0
 72
     1
 77
     1
171
     1
175
     1
179
     1
273
     0
  0
ENDSEC
  0
EOF
