<?xml version="1.0" encoding="UTF-8" standalone="no"?>
<!-- Created with Inkscape (http://www.inkscape.org/) -->

<svg
   xmlns:dc="http://purl.org/dc/elements/1.1/"
   xmlns:cc="http://creativecommons.org/ns#"
   xmlns:rdf="http://www.w3.org/1999/02/22-rdf-syntax-ns#"
   xmlns:svg="http://www.w3.org/2000/svg"
   xmlns="http://www.w3.org/2000/svg"
   xmlns:sodipodi="http://sodipodi.sourceforge.net/DTD/sodipodi-0.dtd"
   xmlns:inkscape="http://www.inkscape.org/namespaces/inkscape"
   width="210mm"
   height="297mm"
   viewBox="0 0 744.09448819 1052.3622047"
   id="svg2"
   version="1.1"
   inkscape:version="0.91 r13725"
   sodipodi:docname="reborn.svg">
  <defs
     id="defs4" />
  <sodipodi:namedview
     id="base"
     pagecolor="#ffffff"
     bordercolor="#666666"
     borderopacity="1.0"
     inkscape:pageopacity="0.0"
     inkscape:pageshadow="2"
     inkscape:zoom="0.7"
     inkscape:cx="6.2834437"
     inkscape:cy="591.19666"
     inkscape:document-units="mm"
     inkscape:current-layer="layer1"
     showgrid="false"
     inkscape:window-width="1440"
     inkscape:window-height="837"
     inkscape:window-x="-4"
     inkscape:window-y="-4"
     inkscape:window-maximized="1" />
  <metadata
     id="metadata7">
    <rdf:RDF>
      <cc:Work
         rdf:about="">
        <dc:format>image/svg+xml</dc:format>
        <dc:type
           rdf:resource="http://purl.org/dc/dcmitype/StillImage" />
        <dc:title></dc:title>
      </cc:Work>
    </rdf:RDF>
  </metadata>
  <g
     inkscape:label="Layer 1"
     inkscape:groupmode="layer"
     id="layer1">
    <path
       style="fill:#000000"
       d="M 396.46094 196.29492 C 382.71812 196.31542 376.77191 196.59935 371.58594 197.47852 C 359.89975 199.45966 344.66641 203.41086 336.14453 206.67188 C 319.26455 213.13123 299.31035 223.8702 289.10156 231.99023 C 286.46853 234.08453 282.09232 237.48519 279.37695 239.54688 L 274.43945 243.29492 L 282.11914 243.46094 C 286.34298 243.55254 296.16007 243.91173 303.93359 244.25781 C 317.47524 244.8607 318.228 244.96694 321.9082 246.81641 C 330.08759 250.92693 335.45339 257.78234 337.86133 267.19727 C 339.0613 271.88913 339.21094 274.7718 339.21094 293.01367 C 339.21094 315.7971 338.78573 319.03105 335.01562 324.90625 C 332.55293 328.74401 327.26077 333.65594 322.9043 336.14844 C 321.18973 337.12943 319.66311 338.02666 319.51172 338.14258 C 319.36034 338.25849 320.93685 343.18896 323.01562 349.09766 C 325.0944 355.00637 327.27208 361.37379 327.85352 363.24805 C 328.43497 365.1223 330.32927 370.48819 332.06445 375.17383 C 333.79963 379.85947 336.68446 388.14082 338.47461 393.57617 C 340.26476 399.01151 342.81565 406.3725 344.14258 409.93359 C 345.4695 413.49467 346.76463 417.098 347.01953 417.94141 L 347.48242 419.47461 L 333.8457 419.47461 C 326.34554 419.47461 320.05067 419.21893 319.85742 418.90625 C 319.66417 418.59356 319.33942 417.44457 319.13477 416.35156 C 318.93013 415.25856 317.87161 411.44975 316.7832 407.88867 C 313.62672 397.56122 310.09238 386.1028 308.58398 381.30859 C 307.81736 378.87206 307.18659 376.39291 307.18359 375.79883 C 307.18059 375.20474 306.13563 371.37086 304.85938 367.2793 C 303.58312 363.18775 301.28631 355.81803 299.75586 350.90234 C 297.0675 342.26756 296.91413 341.97477 295.25977 342.29102 L 293.54883 342.61914 L 293.54883 381.04688 L 293.54883 419.47461 L 281.2793 419.47461 L 269.01172 419.47461 L 269.01172 334.28125 C 269.01172 287.42485 268.82397 249.08789 268.59375 249.08789 C 267.56875 249.08789 259.30526 256.91125 252.75586 264.08203 C 244.04746 273.61661 230.86038 289.99513 226.67969 296.46875 C 223.41025 301.53135 218.57055 310.73741 213.60938 321.33203 C 203.4818 342.95954 195.94391 368.07726 192.93945 390.20508 C 191.37509 401.72652 191.39123 422.55166 192.97266 433.10547 C 196.35215 455.65868 203.83711 476.27613 214.96484 493.67969 C 217.24549 497.24664 217.33405 497.30514 218.3125 495.9082 C 219.63936 494.01385 223.94288 483.41756 225.13477 479.11133 C 225.65353 477.23708 226.26395 473.09639 226.49023 469.91016 C 227.03444 462.24719 225.81642 457.2492 220.5293 445.45508 C 214.45528 431.90565 213.1031 425.97905 212.64453 410.9082 C 212.34786 401.15837 212.50856 397.18152 213.41602 391.82422 C 215.81394 377.66793 220.19956 363.60682 225.63867 352.63477 C 229.3486 345.15091 230.71504 343.66069 232.7207 344.91797 C 234.68192 346.14739 234.47453 348.25802 231.85352 353.78125 C 228.64829 360.53565 223.08785 376.60853 221.38672 384.03516 C 218.44732 396.86766 217.88252 408.7791 219.64453 420.75 C 220.79067 428.53676 223.82381 438.57909 226.36133 442.98828 C 227.22426 444.48768 228.96732 448.32158 230.23633 451.50781 C 232.50715 457.20942 232.54361 457.46178 232.50781 467.52344 C 232.47461 476.82387 232.29927 478.27078 230.56641 483.54102 C 227.06688 494.18438 223.99182 499.45093 210.67188 517.61719 C 208.61049 520.42858 206.43812 523.31594 205.8457 524.0332 C 205.25328 524.75046 204.14308 526.43878 203.37695 527.7832 C 202.61081 529.12762 201.00447 531.45467 199.80859 532.95508 C 194.59778 539.4928 194.72956 538.93001 194.72656 554.86719 L 194.72266 569.2832 L 198.8457 581.09375 C 201.11256 587.59027 203.23385 593.98451 203.56055 595.30273 C 203.88724 596.62094 206.78533 605.14749 210.00195 614.25 C 213.21858 623.3525 215.85156 631.33837 215.85156 631.99609 C 215.85156 633.56082 219.35608 636.86553 236.82422 651.77539 L 251.32227 664.15039 L 263.18164 664.15039 L 275.04102 664.15039 L 278.33008 666.61523 C 289.39626 674.90865 297.66756 686.78049 301.10352 699.30469 C 302.32521 703.75785 302.49877 705.97617 302.29297 714.49414 L 302.05078 724.46875 L 299.7207 727.875 C 298.43859 729.74926 296.4028 732.51036 295.19727 734.00977 C 293.99174 735.50917 291.28758 739.48018 289.1875 742.83398 C 285.91308 748.06321 285.36914 749.40208 285.36914 752.23828 C 285.36914 756.27078 286.65793 758.92055 289.77344 761.29688 C 293.1029 763.83637 296.55946 764.12068 300.36328 762.16602 C 302.82501 760.90102 304.29974 759.27904 307.83594 753.94531 C 310.25902 750.29051 312.50251 747.29883 312.82227 747.29883 C 313.14204 747.29883 314.38113 748.30431 315.57422 749.5332 C 316.76731 750.76208 318.76855 752.60761 320.02148 753.63281 L 322.29883 755.49609 L 318.78125 764.51758 C 312.31875 781.08926 311.7312 784.9792 314.95312 789.89648 C 317.50957 793.79808 324.86992 795.03811 329.2832 792.31055 C 331.85224 790.72281 332.13804 790.17529 337.2168 777.11719 C 339.22146 771.96298 341.20535 767.74609 341.625 767.74609 C 343.01486 767.74609 350.40379 770.99653 350.64258 771.71289 C 350.77155 772.09981 350.09392 777.91504 349.13477 784.63477 C 346.84855 800.65179 346.87104 802.17004 349.46094 806.08008 C 351.66118 809.40183 354.06699 810.68359 358.09961 810.68359 C 360.70171 810.68359 362.63461 809.84821 365.00391 807.70117 C 367.41778 805.51373 368.4059 803.14041 368.75391 798.69531 C 368.92739 796.47951 369.61905 790.42175 370.29102 785.23242 L 371.51367 775.79688 L 378.36523 776.2793 C 382.13332 776.54421 385.44543 776.89726 385.72656 777.06445 C 386.0077 777.23163 386.24019 784.63504 386.24219 793.51562 C 386.24419 802.51894 386.5567 810.78199 386.94922 812.19531 C 387.88412 815.5616 390.61931 818.70589 393.28125 819.47656 C 396.61563 820.44192 398.60091 820.30749 401.69141 818.9043 C 406.90533 816.53701 406.98198 816.21877 407.36719 795.38086 L 407.70703 776.94531 L 414.12891 776.41406 C 417.92483 776.09996 420.80553 776.14147 421.17773 776.51367 C 421.524 776.85993 422.67076 783.35343 423.72656 790.94336 C 425.80673 805.89731 426.24409 807.08177 430.56055 809.46289 C 432.27418 810.40823 433.87849 810.69592 436.39453 810.50781 C 440.8947 810.17137 443.72362 808.14849 445.23633 804.1875 C 446.376 801.20332 446.35338 800.70955 444.39844 786.45117 C 443.00951 776.32132 442.60923 771.61765 443.10742 771.24609 C 443.50415 770.95019 445.56057 770.06414 447.67578 769.27734 L 451.52148 767.84766 L 452.70898 771.0332 C 453.36193 772.7856 454.42642 775.4459 455.07422 776.94531 C 455.72201 778.44471 457.06845 781.84539 458.06641 784.50195 C 459.06437 787.15851 460.71492 790.12067 461.73633 791.08398 C 466.55012 795.6239 474.76713 794.42292 478.27734 788.66602 C 480.63533 784.7988 480.0817 781.23775 475.18164 768.79297 C 472.74511 762.60487 470.75 757.25672 470.75 756.9082 C 470.75 756.16203 476.81526 750.7067 477.64453 750.70703 C 477.95698 750.70703 478.688 749.78666 479.26953 748.66211 C 479.85107 747.53755 480.54879 746.62195 480.82031 746.62695 C 481.09182 746.63195 482.8484 749.00667 484.72266 751.9043 C 489.58619 759.42342 492.22107 762.14894 495.46875 763.02344 C 499.18272 764.02351 502.03559 763.37927 504.70898 760.9375 C 508.72658 757.26799 509.96474 751.98846 507.79297 747.77734 C 506.63966 745.54103 499.38583 734.82881 494.61133 728.31055 L 491.93555 724.6582 L 491.94336 713.6582 C 491.95136 701.13529 492.68375 697.25057 496.44922 689.76758 C 501.3769 679.97495 508.79587 671.15864 516.27734 666.20312 L 519.375 664.15039 L 531.01367 664.15039 L 542.6543 664.14844 L 560.0332 649.21094 C 570.07675 640.57907 577.60982 633.60423 577.87891 632.68555 C 578.135 631.81123 581.06947 622.96872 584.40039 613.03516 C 587.7313 603.1016 592.35348 589.29997 594.67188 582.36523 L 598.88672 569.75586 L 598.88477 554.48633 L 598.88086 539.21484 L 597.03125 536.76562 C 596.01399 535.41827 594.77995 533.90447 594.28906 533.40039 C 593.79817 532.89631 592.90508 531.51478 592.30273 530.33203 C 591.70039 529.14928 589.61208 526.03607 587.66406 523.41211 C 582.51727 516.47948 572.97823 502.3503 569.7168 496.83008 C 566.46132 491.31994 563.21586 481.37563 562.03516 473.30078 C 560.66254 463.91337 562.7694 454.05716 568.61719 442.51953 C 578.52415 422.97321 578.62868 395.90791 568.90039 369.00781 C 564.47045 356.75838 564.1456 355.96498 562.0293 352.18359 C 559.71647 348.05102 559.63347 347.43892 561.16016 345.75195 C 562.58161 344.18133 564.28506 344.15995 565.6582 345.69727 C 566.65737 346.8159 572.45084 359.67877 574.33008 364.95117 C 580.42112 382.04009 582.19207 391.86274 582.13867 408.23047 C 582.08217 425.54688 580.78841 431.28874 573.30859 447.41797 C 569.00007 456.70872 567.97916 461.29419 568.37305 469.56445 C 568.60569 474.4493 569.20171 477.86445 570.47266 481.59961 C 572.57486 487.77773 576.39743 496.4981 576.99219 496.4707 C 578.31755 496.4097 589.0142 476.42936 591.39453 469.56836 C 600.42571 443.53711 602.81151 429.48292 602.08008 406.60742 C 601.50232 388.53812 599.11972 374.58588 593.45508 356.0918 C 592.01989 351.40616 590.63629 346.6583 590.38086 345.54102 C 589.58095 342.04211 581.24425 322.80506 575.90234 312.13086 C 571.09922 302.53325 564.33194 291.17118 562.50781 289.64062 C 562.06105 289.26578 559.21346 285.73866 556.17969 281.80273 C 544.37545 266.48819 527.81396 249.92248 512.32422 237.9375 C 508.38829 234.89212 504.45631 231.78576 503.58594 231.0332 C 500.31276 228.20304 484.38524 218.85755 475.52148 214.56641 C 465.69601 209.80969 450.38144 203.42383 448.79688 203.42383 C 448.26936 203.42383 443.71611 202.37028 438.67773 201.08203 C 422.39134 196.91778 416.63279 196.26482 396.46094 196.29492 z M 361.02148 243.63672 L 393.73438 243.63672 L 426.44922 243.63672 L 426.44922 255.9043 L 426.44922 268.17188 L 406.34375 268.17188 L 386.23828 268.17188 L 386.23828 293.55859 L 386.23633 318.94727 L 403.44727 318.94727 L 420.65625 318.94727 L 420.8418 331.38477 L 421.02734 343.82422 L 403.63281 343.82422 L 386.23828 343.82422 L 386.23828 369.38086 L 386.23828 394.93945 L 406.34375 394.93945 L 426.44922 394.93945 L 426.44922 407.20703 L 426.44922 419.47461 L 393.73438 419.47461 L 361.02148 419.47461 L 361.02148 331.55469 L 361.02148 243.63672 z M 453.0293 243.63672 L 466.15039 243.67383 C 488.95431 243.74113 502.53975 244.62889 507.06641 246.3457 C 515.89263 249.69318 523.64303 260.21279 524.52148 270.03711 C 524.99307 275.31126 525.08374 310.06694 524.63672 314.17578 C 524.4736 315.67518 523.81684 318.15352 523.17773 319.68164 C 521.98086 322.54338 516.8278 328.07322 513.51758 330.04883 C 512.48674 330.66405 511.65201 331.33093 511.66211 331.53125 C 511.67221 331.73157 512.93504 332.66248 514.46875 333.59961 C 517.91053 335.70262 521.34664 339.79506 523.38672 344.21875 C 524.8987 347.49727 524.93273 348.08925 524.92773 370.74414 C 524.92173 396.87048 524.61379 399.02854 519.83398 406.42383 C 515.71156 412.80201 510.21179 416.49782 501.94336 418.44727 C 498.63486 419.22732 492.63316 419.45684 475.34961 419.46484 L 453.0293 419.47461 L 453.0293 331.55469 L 453.0293 243.63672 z M 293.54688 268.04492 L 293.54688 293.49609 L 293.54688 318.94727 L 300.50195 318.80664 C 307.99887 318.65447 309.35642 318.12694 312.24805 314.25391 C 313.58716 312.4603 313.65234 311.49636 313.65234 293.73047 C 313.65234 275.96457 313.58714 274.99869 312.24805 273.20508 C 309.26923 269.21527 307.61089 268.5299 300.31445 268.27734 L 293.54688 268.04492 z M 477.56641 268.17188 L 477.56445 293.55859 L 477.56445 318.94727 L 485.36328 318.83789 C 494.35284 318.71311 496.62863 317.83855 498.75781 313.69141 C 499.93556 311.39744 500.05664 309.53154 500.05664 293.57617 C 500.05664 273.31931 499.84748 272.40606 494.58008 269.70508 C 492.05046 268.40796 490.50921 268.17188 484.57812 268.17188 L 477.56641 268.17188 z M 477.56641 343.63086 L 477.56641 369.37109 L 477.56641 395.11133 L 485.23242 394.76562 C 500.07988 394.09764 500.05664 394.13913 500.05664 369.66016 C 500.05664 352.8662 499.97394 351.68941 498.6582 349.56055 C 496.15113 345.50401 493.4036 344.38196 485.01562 343.98438 L 477.56641 343.63086 z M 304.58398 430.29297 C 317.09051 430.24857 324.02667 432.54044 331.06055 439.04102 C 336.22366 443.81268 338.80228 448.87259 340.16602 456.91016 C 341.04941 462.11662 341.25586 468.93193 341.25586 492.86133 C 341.25586 509.1013 341.12293 522.38867 340.96094 522.38867 C 340.79896 522.38867 337.93441 521.01097 334.59375 519.32617 C 331.0159 517.52175 325.95507 515.66389 322.2793 514.80664 L 316.03906 513.35156 L 316.03906 488.04297 C 316.03906 459.13809 316.06226 459.26936 310.5625 456.44922 C 304.45335 453.31661 297.25275 455.39977 294.66797 461.04883 C 294.14674 462.18797 293.77469 471.41015 293.54688 488.87305 L 293.20703 514.99414 L 288.34961 516.88281 C 282.59276 519.12213 273.3378 524.00617 271.35352 525.85156 C 270.57965 526.57124 269.72086 527.16016 269.44531 527.16016 C 268.83543 527.16016 269.26635 456.89752 269.89648 453.5918 C 270.55585 450.13272 273.39195 444.7719 276.40625 441.28516 C 282.97467 433.68724 291.55632 430.33927 304.58398 430.29297 z M 361.02148 433.10547 L 382.11523 433.10547 C 404.7162 433.10547 407.74539 433.42445 414.59375 436.50977 C 421.73166 439.72555 425.99694 444.54856 429.13281 452.95117 C 431.31083 458.78721 431.87495 465.00044 431.87695 483.19922 C 431.87895 501.52839 431.25037 506.77833 428.34961 512.71875 C 426.19154 517.13823 420.02549 523.1957 415.66602 525.17773 C 412.75202 526.50258 412.11595 527.08197 412.36914 528.18164 C 413.34896 532.43715 415.0449 537.86581 416.4707 541.30273 C 417.36489 543.45819 418.48161 546.44787 418.95117 547.94727 C 419.42073 549.44668 420.79569 553.28056 422.00586 556.4668 C 423.21604 559.65303 424.43781 562.87334 424.7207 563.62305 C 425.10603 564.6442 425.56055 563.63305 426.53516 559.58984 C 427.2507 556.62163 428.08485 553.86053 428.38867 553.45508 C 428.69249 553.04963 429.47079 551.28113 430.11914 549.52539 C 432.75895 542.3768 439.96372 533.03607 447.23633 527.33398 L 452.00781 523.59375 L 452.18359 566.61133 L 452.35938 609.62695 L 464.95703 609.62695 L 477.55664 609.62695 L 477.73047 562.77148 L 477.90625 515.91406 L 480.16406 525.11523 C 481.40556 530.17572 483.45497 538.45889 484.71875 543.52344 C 485.98253 548.58798 487.16796 553.95582 487.35352 555.45117 C 487.53908 556.94652 490.1397 568.13765 493.13281 580.32031 C 499.02741 604.31266 499.73529 607.48091 499.48242 608.77539 C 499.35385 609.43354 502.34475 609.62695 512.63086 609.62695 L 525.94531 609.62695 L 526.12109 569.25195 L 526.29688 528.87695 L 530.91406 534.32227 C 536.31599 540.69264 542.97625 553.4471 544.79102 560.89648 C 546.54194 568.08372 546.38962 581.77224 544.48047 588.83984 C 542.8368 594.92461 537.75267 605.80121 534.60352 609.96875 C 526.30407 620.95212 514.40334 629.3639 501.70312 633.22461 C 496.27267 634.8754 494.53901 635.07374 485.40234 635.08984 C 476.19454 635.10604 474.58423 634.92432 469.17773 633.26367 C 458.12967 629.87016 449.22881 624.26122 440.96289 615.48633 L 435.76367 609.96875 L 438.29492 609.75391 C 441.25473 609.50437 441.40595 610.62815 436.67188 597.69922 C 433.33198 588.57788 431.47659 583.18327 429.64258 577.25391 C 429.06285 575.37965 427.84756 571.88803 426.94141 569.49414 C 425.30938 565.18262 425.28996 565.16154 424.84961 567.36328 C 424.12621 570.98028 424.36099 578.86502 425.38867 585.43164 C 426.76845 594.24808 429.31599 601.06237 433.08398 606.01953 C 433.99768 607.22159 434.54637 608.52496 434.30469 608.91602 C 434.03042 609.35979 429.92548 609.62695 423.38281 609.62695 L 412.90039 609.62695 L 411.11914 603.66406 C 410.13864 600.38411 408.59435 595.39927 407.68945 592.58789 C 406.78456 589.77651 405.86898 586.40377 405.6543 585.0918 C 405.43962 583.77982 404.06109 578.87314 402.58984 574.1875 C 396.74279 555.56579 393.05273 543.2074 393.05273 542.24219 C 393.05273 541.68402 392.38012 539.13692 391.55664 536.58008 C 390.17881 532.30206 389.90724 531.92969 388.1543 531.92969 L 386.25 531.92969 L 386.07422 570.60938 L 385.89648 609.28711 L 373.62891 609.28711 C 361.3731 609.28711 361.36113 609.28511 361.14062 607.73047 C 360.9524 606.40359 360.238 607.00611 356.28516 611.82031 C 347.08733 623.02246 337.48784 629.41421 323.53516 633.62891 C 320.48306 634.55087 316.45538 635.04669 310.58594 635.22461 C 298.6463 635.58651 291.25968 633.91297 281.2793 628.58594 C 268.83343 621.94295 260.69026 613.71977 254.49805 601.54297 C 249.20326 591.13091 247.60961 583.898 248.0625 572.32617 C 248.46481 562.04648 249.49162 557.92546 254.00586 548.46484 C 257.37819 541.39734 261.41051 535.56099 265.87695 531.28516 L 268.33008 528.9375 L 268.3418 555.48047 C 268.3508 575.93168 268.57879 583.08651 269.33398 586.65039 C 272.84596 603.22433 285.23526 612.3023 304.39648 612.3418 C 320.88809 612.3758 332.08865 606.58567 337.66602 595.14258 C 338.8775 592.657 340.22523 589.30244 340.66211 587.6875 C 341.17821 585.77973 341.60032 574.05618 341.86719 554.21875 L 342.27734 523.6875 L 346.71484 527.34961 C 351.493 531.29197 355.50176 535.58569 358.68359 540.17578 L 360.67969 543.05859 L 361.02148 574.46875 L 361.36133 605.87891 L 363.85352 600.76758 C 368.39408 591.45463 368.85147 589.03178 368.85547 574.1875 C 368.85947 561.97294 368.72768 560.50972 367.23633 556.125 C 366.34386 553.50104 364.57933 549.48435 363.31641 547.19922 L 361.02148 543.04492 L 361.02148 488.07617 L 361.02148 433.10547 z M 453.0293 433.10547 L 465.27148 433.10547 L 477.51367 433.10547 L 478.19531 435.66211 C 480.37666 443.8277 487.12572 471.9894 487.38281 474 C 487.55057 475.31198 489.7035 484.56579 492.16797 494.56445 C 494.63243 504.56312 496.64844 513.10669 496.64844 513.55078 C 496.64844 514.10128 496.05321 514.19447 494.77539 513.8457 C 493.74455 513.56434 489.53676 513.28616 485.42578 513.22656 C 478.11589 513.12066 477.94182 513.08153 477.48633 511.44922 L 477.01953 509.78125 L 476.95117 511.62891 C 476.89297 513.21286 476.471 513.58242 473.98828 514.2207 C 466.21244 516.21978 463.29824 517.24466 458.86328 519.54297 C 456.21694 520.91437 453.82216 522.14149 453.54102 522.26953 C 453.25988 522.39756 453.0293 502.38868 453.0293 477.80469 L 453.0293 433.10547 z M 502.10156 433.10547 L 513.6875 433.10547 L 525.27344 433.10547 L 525.27344 480.47461 C 525.27344 506.52676 525.19724 527.80411 525.10352 527.75781 C 525.00982 527.71141 522.50683 526.03094 519.54102 524.02344 C 516.5752 522.01595 511.43794 519.25015 508.125 517.87695 L 502.10156 515.37891 L 502.10156 474.24219 L 502.10156 433.10547 z M 386.23828 458.20312 L 386.23828 483.57422 L 386.23828 508.94336 L 392.54688 508.61328 C 400.72789 508.18535 404.67317 506.17405 405.7832 501.86523 C 406.44316 499.30344 406.86644 474.22433 406.34375 468.64648 C 405.92922 464.22285 405.59636 463.31252 403.60547 461.13867 L 401.33984 458.66406 L 393.78906 458.43359 L 386.23828 458.20312 z M 310.69922 513.80273 C 311.28296 513.81493 311.77524 513.84578 312.14453 513.89648 L 315.40625 514.3457 L 315.21094 548.00195 L 315.01562 581.6582 L 312.87305 583.80078 C 310.96801 585.70535 310.20848 585.97405 306.05664 586.21484 C 300.45292 586.53983 297.56847 585.45204 295.64258 582.28516 C 294.36377 580.18234 294.30095 578.63629 294.24805 547.88086 C 294.19595 517.59505 294.26585 515.65418 295.4043 515.30859 C 298.02157 514.51409 306.61304 513.71736 310.69922 513.80273 z M 497.73633 515.12109 C 498.07028 515.12909 498.77179 515.22453 499.54492 515.37305 L 501.41992 515.73242 L 501.41992 522.80859 C 501.41992 526.70083 501.32552 529.88672 501.21094 529.88672 C 500.96506 529.88672 497.33735 515.33738 497.53516 515.14453 C 497.55376 515.12643 497.62496 515.11849 497.73633 515.12109 z M 378.20508 623.93945 L 397.04492 623.94727 L 415.88477 623.95312 L 417.11914 626.84375 C 417.79765 628.43306 420.07174 634.02552 422.17383 639.27344 C 424.27593 644.52136 428.56029 654.89858 431.69336 662.33203 C 434.82643 669.76548 437.45897 676.41768 437.54297 677.11523 C 437.64608 677.97196 431.06924 685.03033 417.27539 698.86914 C 406.04445 710.13669 396.84273 719.3086 396.82812 719.25 C 396.81353 719.1914 387.61299 709.8444 376.38281 698.47852 L 355.96484 677.8125 L 356.875 675.24219 C 357.37595 673.82803 358.66392 670.77284 359.73633 668.45508 C 360.80875 666.13732 362.32266 662.61217 363.09961 660.61914 C 363.87655 658.62612 365.37702 655.00098 366.43555 652.56445 C 367.49408 650.12792 369.21042 645.83483 370.24805 643.02344 C 371.28568 640.21206 373.50022 634.76801 375.16992 630.92578 L 378.20508 623.93945 z M 382.4375 630.07422 L 379.22656 637.51758 C 377.46015 641.61194 376.01562 645.24212 376.01562 645.58398 C 376.01562 646.18836 374.67797 649.47257 366.93359 667.89844 L 363.20898 676.75977 L 380.00195 693.62891 L 396.79492 710.5 L 413.76172 693.5332 L 430.72852 676.56641 L 427.48438 668.82422 C 425.70015 664.56661 423.56095 659.55003 422.73047 657.67578 C 421.28163 654.40597 420.57136 652.60575 416.54688 642 C 415.55118 639.37604 413.97654 635.62031 413.04688 633.65234 L 411.35547 630.07422 L 406.29492 630.07422 L 401.23242 630.07422 L 401.15234 632.62891 C 401.10794 634.0346 401.13248 635.49234 401.20898 635.86719 C 401.38953 636.75175 397.65239 680.07756 397.36328 680.45117 C 397.24241 680.6074 396.97384 680.56564 396.76758 680.35938 C 396.25809 679.84989 393.17975 644.62055 393.09375 638.31445 C 392.98013 629.98236 393.04505 630.07422 387.33203 630.07422 L 382.4375 630.07422 z M 331.74805 715.26758 C 333.0948 715.26758 337.16602 719.58078 337.16602 721.00781 C 337.16602 722.99967 332.66021 728.2168 330.93945 728.2168 C 330.19674 728.2168 329.78165 728.52843 330.01758 728.91016 C 330.56474 729.79549 327.96584 734.03442 326.05469 735.37305 C 325.25233 735.93504 324.10008 736.39453 323.49414 736.39453 C 322.36841 736.39453 317.47068 733.00885 317.42578 732.19922 C 317.38538 731.47205 331.0926 715.26758 331.74805 715.26758 z M 458.89453 717.99219 C 460.38694 717.99219 463.25391 721.08764 463.25391 722.69922 C 463.25391 723.78809 461.51378 723.61242 460.52734 722.42383 C 459.33059 720.98184 457.11914 721.11688 457.11914 722.63281 C 457.11914 725.08244 458.83601 726.45719 461.68555 726.28906 C 465.28458 726.0767 468.35429 727.47641 470.41211 730.26562 C 472.595 733.22435 472.56557 735.25814 470.31641 737.02734 C 469.32873 737.80425 467.85053 738.43945 467.0293 738.43945 C 465.48797 738.43945 462.57227 735.87411 462.57227 734.51758 C 462.57227 732.93478 464.16077 732.84284 465.30469 734.35938 C 466.05863 735.35891 466.8882 735.7715 467.5957 735.5 C 469.18959 734.88837 468.96429 733.18304 467.0332 731.25195 C 465.74077 729.95951 464.64482 729.58008 462.2168 729.58008 C 460.48829 729.58008 458.48165 729.26239 457.75781 728.875 C 456.0988 727.98713 453.50319 722.99312 454.12695 721.88867 C 455.32506 719.76723 457.49628 717.99219 458.89453 717.99219 z M 332.55078 719.35547 C 332.2377 719.35547 330.95401 720.41628 329.69727 721.71289 C 327.81767 723.65215 327.56066 724.24948 328.25 725.08008 C 329.33409 726.38633 330.46306 725.9143 332.34766 723.36523 C 333.76224 721.45192 333.86811 719.35547 332.55078 719.35547 z M 325.92188 727.13281 C 324.94173 726.88263 321.30475 731.45292 321.82031 732.28711 C 322.57661 733.51083 324.51609 733.00119 325.79688 731.24219 C 327.06896 729.49509 327.13189 727.44167 325.92188 727.13281 z M 348.51367 727.875 C 349.20782 727.875 349.77539 728.18179 349.77539 728.55664 C 349.77539 728.93149 347.47544 733.29498 344.66406 738.25195 C 341.85268 743.20891 339.16002 747.27125 338.67969 747.28125 C 336.96497 747.31625 337.08681 745.2973 338.98633 742.20117 C 340.04766 740.47124 342.3416 736.53933 344.08398 733.46484 C 346.26361 729.61877 347.64529 727.875 348.51367 727.875 z M 443.45508 728.39648 C 443.79511 728.43078 444.00542 728.61603 444.20508 728.93164 C 445.15088 730.42671 445.03972 730.62611 442.51758 731.98438 L 440.18359 733.24219 L 441.57812 736.01172 C 442.34578 737.53475 443.03307 738.85225 443.10547 738.93945 C 443.17787 739.02665 444.2271 738.72446 445.4375 738.26758 C 447.26055 737.57946 447.74254 737.6044 448.24414 738.41602 C 448.68503 739.1294 448.30694 739.72548 446.85352 740.60938 L 444.85742 741.82422 L 446.32422 744.8418 L 447.78906 747.85742 L 450.10938 746.75195 C 452.06696 745.81844 452.51972 745.79453 453.01367 746.59375 C 453.44038 747.28418 452.77676 748.06184 450.56445 749.46484 C 448.89538 750.52334 447.24093 751.38867 446.88672 751.38867 C 446.5325 751.38867 445.56891 750.0853 444.74609 748.49219 C 441.36365 741.94321 436.67188 732.18475 436.67188 731.69727 C 436.67188 731.41016 438.22594 730.44807 440.125 729.55859 C 441.96045 728.69892 442.88836 728.33938 443.45508 728.39648 z M 362.88086 734.39453 C 363.62029 734.44273 364.45804 734.70305 365.43555 735.14844 C 367.48596 736.08266 368.22249 738.30517 367.34961 740.92383 C 366.65457 743.00893 365.88892 743.46413 364.5293 742.60352 C 363.79741 742.14025 363.77183 741.71031 364.41016 740.51758 C 364.85269 739.69092 365.04827 738.5779 364.84375 738.04492 C 364.09634 736.09722 362.47491 737.13642 361.30078 740.31445 C 360.64295 742.095 359.8939 743.85757 359.63672 744.23242 C 358.96997 745.20425 356.93164 751.45949 356.93164 752.5332 C 356.93164 753.99884 359.74431 753.59329 360.14258 752.07031 C 360.37672 751.17498 361.07085 750.70703 362.16797 750.70703 C 363.58357 750.70703 363.76717 750.94059 363.37305 752.24023 C 363.11729 753.08364 362.27783 754.46518 361.50586 755.30859 C 359.86402 757.10241 357.84282 757.26764 355.7207 755.78125 C 353.35083 754.12133 353.56415 752.52947 357.77148 740.48438 C 359.33035 736.02149 360.66258 734.24997 362.88086 734.39453 z M 420.48633 737.76172 C 421.81409 737.76472 422.24738 738.51929 423.72266 743.38477 C 424.65979 746.47542 425.45363 749.3107 425.48633 749.68555 C 425.96712 755.19193 427.06809 756.24698 430.83594 754.81445 C 431.82086 754.44002 432.58398 754.4147 432.58398 754.75781 C 432.58398 755.09273 432.76095 755.83144 432.97852 756.39844 C 433.26631 757.14841 432.66289 757.62692 430.76367 758.1543 C 427.70197 759.00448 425.2887 759.09446 424.86914 758.375 C 424.4107 757.58888 418.95312 739.18727 418.95312 738.42773 C 418.95313 738.05937 419.64292 737.75972 420.48633 737.76172 z M 379.51562 739.11914 C 379.66102 739.11414 379.83169 739.12109 380.02539 739.12109 C 381.50848 739.12109 382.12517 740.87644 382.13867 745.125 C 382.15017 748.76233 382.99835 748.34572 384.58984 743.91992 C 385.82283 740.4911 387.27212 739.20182 388.50586 740.43555 C 388.95413 740.88383 388.25829 743.13486 386.44531 747.10156 C 384.93944 750.39631 383.49296 754.62574 383.23047 756.5 C 382.96799 758.37426 382.59564 760.44557 382.4043 761.10156 C 382.02746 762.39355 381.5496 762.54966 380.36328 761.77148 C 379.81443 761.41143 379.78663 759.98196 380.26562 756.68359 C 380.78467 753.10971 380.6906 750.77773 379.83594 746.12109 C 378.65428 739.68275 378.49784 739.15104 379.51562 739.11914 z M 404.36914 739.76758 C 405.7432 739.82428 407.04205 740.39734 407.74023 741.46289 C 409.29797 743.8403 408.80565 746.90014 406.82031 747.18164 C 405.46521 747.37381 405.28036 747.14204 405.45703 745.47656 C 405.63255 743.82193 405.42273 743.55078 403.95898 743.55078 C 402.28904 743.55078 402.25953 743.64138 402.49023 748.07422 C 402.97814 757.44916 403.49519 759.9082 404.98047 759.9082 C 406.03518 759.9082 406.35004 759.44534 406.36914 757.86328 C 406.38974 756.15136 406.66632 755.81836 408.07227 755.81836 C 409.46206 755.81836 409.78861 756.19416 409.96289 757.99414 C 410.10729 759.48556 409.73184 760.60996 408.76953 761.57227 C 406.80102 763.54079 402.947 763.4698 401.63477 761.44141 C 401.0621 760.55622 400.33659 756.59464 399.91797 752.07031 C 398.99533 742.09842 398.95647 742.76032 400.55078 741.16602 C 401.54644 740.17036 402.99508 739.71087 404.36914 739.76758 z "
       id="path4144" />
  </g>
</svg>
