  0
SECTION
  2
HEADER
  9
$ACADVER
  1
AC1014
  9
$HANDSEED
  5
FFFF
  9
$MEASUREMENT
 70
     1
  0
ENDSEC
  0
SECTION
  2
TABLES
  0
TABLE
  2
VPORT
  5
8
330
0
100
AcDbSymbolTable
 70
     4
  0
VPORT
  5
2E
330
8
100
AcDbSymbolTableRecord
100
AcDbViewportTableRecord
  2
*ACTIVE
 70
     0
 10
0.0
 20
0.0
 11
1.0
 21
1.0
 12
210.0
 22
148.5
 13
0.0
 23
0.0
 14
10.0
 24
10.0
 15
10.0
 25
10.0
 16
0.0
 26
0.0
 36
1.0
 17
0.0
 27
0.0
 37
0.0
 40
341.0
 41
1.24
 42
50.0
 43
0.0
 44
0.0
 50
0.0
 51
0.0
 71
     0
 72
   100
 73
     1
 74
     3
 75
     0
 76
     0
 77
     0
 78
     0
  0
ENDTAB
  0
TABLE
  2
LTYPE
  5
5
330
0
100
AcDbSymbolTable
 70
     1
  0
LTYPE
  5
14
330
5
100
AcDbSymbolTableRecord
100
AcDbLinetypeTableRecord
  2
BYBLOCK
 70
     0
  3

 72
    65
 73
     0
 40
0.0
  0
LTYPE
  5
15
330
5
100
AcDbSymbolTableRecord
100
AcDbLinetypeTableRecord
  2
BYLAYER
 70
     0
  3

 72
    65
 73
     0
 40
0.0
  0
LTYPE
  5
16
330
5
100
AcDbSymbolTableRecord
100
AcDbLinetypeTableRecord
  2
CONTINUOUS
 70
     0
  3
Solid line
 72
    65
 73
     0
 40
0.0
  0
ENDTAB
  0
TABLE
  2
LAYER
  5
2
100
AcDbSymbolTable
 70
2
  0
LAYER
  5
50
100
AcDbSymbolTableRecord
100
AcDbLayerTableRecord
  2
0
 70
0
  6
CONTINUOUS
  0
LAYER
  5
51
100
AcDbSymbolTableRecord
100
AcDbLayerTableRecord
  2
Layer_1
 70
0
  6
CONTINUOUS
  0
ENDTAB
  0
TABLE
  2
STYLE
  5
3
330
0
100
AcDbSymbolTable
 70
     1
  0
STYLE
  5
11
330
3
100
AcDbSymbolTableRecord
100
AcDbTextStyleTableRecord
  2
STANDARD
 70
     0
 40
0.0
 41
1.0
 50
0.0
 71
     0
 42
2.5
  3
txt
  4

  0
ENDTAB
  0
TABLE
  2
VIEW
  5
6
330
0
100
AcDbSymbolTable
 70
     0
  0
ENDTAB
  0
TABLE
  2
UCS
  5
7
330
0
100
AcDbSymbolTable
 70
     0
  0
ENDTAB
  0
TABLE
  2
APPID
  5
9
330
0
100
AcDbSymbolTable
 70
     2
  0
APPID
  5
12
330
9
100
AcDbSymbolTableRecord
100
AcDbRegAppTableRecord
  2
ACAD
 70
     0
  0
ENDTAB
  0
TABLE
  2
DIMSTYLE
  5
A
330
0
100
AcDbSymbolTable
 70
     1
  0
DIMSTYLE
105
27
330
A
100
AcDbSymbolTableRecord
100
AcDbDimStyleTableRecord
  2
ISO-25
 70
     0
  3

  4

  5

  6

  7

 40
1.0
 41
2.5
 42
0.625
 43
3.75
 44
1.25
 45
0.0
 46
0.0
 47
0.0
 48
0.0
140
2.5
141
2.5
142
0.0
143
0.03937007874016
144
1.0
145
0.0
146
1.0
147
0.625
 71
     0
 72
     0
 73
     0
 74
     0
 75
     0
 76
     0
 77
     1
 78
     8
170
     0
171
     3
172
     1
173
     0
174
     0
175
     0
176
     0
177
     0
178
     0
270
     2
271
     2
272
     2
273
     2
274
     3
340
11
275
     0
280
     0
281
     0
282
     0
283
     0
284
     8
285
     0
286
     0
287
     3
288
     0
  0
ENDTAB
  0
TABLE
  2
BLOCK_RECORD
  5
1
330
0
100
AcDbSymbolTable
 70
     1
  0
BLOCK_RECORD
  5
1F
330
1
100
AcDbSymbolTableRecord
100
AcDbBlockTableRecord
  2
*MODEL_SPACE
  0
BLOCK_RECORD
  5
1B
330
1
100
AcDbSymbolTableRecord
100
AcDbBlockTableRecord
  2
*PAPER_SPACE
  0
ENDTAB
  0
ENDSEC
  0
SECTION
  2
BLOCKS
  0
BLOCK
  5
20
330
1F
100
AcDbEntity
  8
0
100
AcDbBlockBegin
  2
*MODEL_SPACE
 70
     0
 10
0.0
 20
0.0
 30
0.0
  3
*MODEL_SPACE
  1

  0
ENDBLK
  5
21
330
1F
100
AcDbEntity
  8
0
100
AcDbBlockEnd
  0
BLOCK
  5
1C
330
1B
100
AcDbEntity
 67
     1
  8
0
100
AcDbBlockBegin
  2
*PAPER_SPACE
  1

  0
ENDBLK
  5
1D
330
1B
100
AcDbEntity
 67
     1
  8
0
100
AcDbBlockEnd
  0
ENDSEC
  0
SECTION
  2
ENTITIES
  0
SPLINE
  5
100
100
AcDbEntity
  8
Layer_1
 62
7
100
AcDbSpline
 70
8
 71
3
 72
8
 73
4
 74
0
 40
0
 40
0
 40
0
 40
0
 40
1
 40
1
 40
1
 40
1
 10
111.890088
 20
241.601211
 30
0.0
 10
108.011558
 20
241.595426
 30
0.0
 10
106.333406
 20
241.515295
 30
0.0
 10
104.869810
 20
241.267173
 30
0.0
  0
SPLINE
  5
101
100
AcDbEntity
  8
Layer_1
 62
7
100
AcDbSpline
 70
8
 71
3
 72
8
 73
4
 74
0
 40
0
 40
0
 40
0
 40
0
 40
1
 40
1
 40
1
 40
1
 10
104.869810
 20
241.267173
 30
0.0
 10
101.571707
 20
240.708052
 30
0.0
 10
97.272520
 20
239.592935
 30
0.0
 10
94.867456
 20
238.672603
 30
0.0
  0
SPLINE
  5
102
100
AcDbEntity
  8
Layer_1
 62
7
100
AcDbSpline
 70
8
 71
3
 72
8
 73
4
 74
0
 40
0
 40
0
 40
0
 40
0
 40
1
 40
1
 40
1
 40
1
 10
94.867456
 20
238.672603
 30
0.0
 10
90.103551
 20
236.849631
 30
0.0
 10
84.472032
 20
233.818855
 30
0.0
 10
81.590885
 20
231.527202
 30
0.0
  0
SPLINE
  5
103
100
AcDbEntity
  8
Layer_1
 62
7
100
AcDbSpline
 70
8
 71
3
 72
8
 73
4
 74
0
 40
0
 40
0
 40
0
 40
0
 40
1
 40
1
 40
1
 40
1
 10
81.590885
 20
231.527202
 30
0.0
 10
80.847785
 20
230.936144
 30
0.0
 10
79.612721
 20
229.976402
 30
0.0
 10
78.846384
 20
229.394547
 30
0.0
  0
SPLINE
  5
104
100
AcDbEntity
  8
Layer_1
 62
7
100
AcDbSpline
 70
8
 71
3
 72
8
 73
4
 74
0
 40
0
 40
0
 40
0
 40
0
 40
1
 40
1
 40
1
 40
1
 10
79.620291
 20
228.289912
 30
0.0
 10
80.812352
 20
228.264061
 30
0.0
 10
83.582953
 20
228.162690
 30
0.0
 10
85.776813
 20
228.065018
 30
0.0
  0
SPLINE
  5
105
100
AcDbEntity
  8
Layer_1
 62
7
100
AcDbSpline
 70
8
 71
3
 72
8
 73
4
 74
0
 40
0
 40
0
 40
0
 40
0
 40
1
 40
1
 40
1
 40
1
 10
85.776813
 20
228.065018
 30
0.0
 10
89.598568
 20
227.894869
 30
0.0
 10
89.811013
 20
227.864886
 30
0.0
 10
90.849648
 20
227.342924
 30
0.0
  0
SPLINE
  5
106
100
AcDbEntity
  8
Layer_1
 62
7
100
AcDbSpline
 70
8
 71
3
 72
8
 73
4
 74
0
 40
0
 40
0
 40
0
 40
0
 40
1
 40
1
 40
1
 40
1
 10
90.849648
 20
227.342924
 30
0.0
 10
93.158053
 20
226.182844
 30
0.0
 10
94.672401
 20
224.248095
 30
0.0
 10
95.351975
 20
221.590993
 30
0.0
  0
SPLINE
  5
107
100
AcDbEntity
  8
Layer_1
 62
7
100
AcDbSpline
 70
8
 71
3
 72
8
 73
4
 74
0
 40
0
 40
0
 40
0
 40
0
 40
1
 40
1
 40
1
 40
1
 10
95.351975
 20
221.590993
 30
0.0
 10
95.690634
 20
220.266846
 30
0.0
 10
95.732865
 20
219.453292
 30
0.0
 10
95.732865
 20
214.305031
 30
0.0
  0
SPLINE
  5
108
100
AcDbEntity
  8
Layer_1
 62
7
100
AcDbSpline
 70
8
 71
3
 72
8
 73
4
 74
0
 40
0
 40
0
 40
0
 40
0
 40
1
 40
1
 40
1
 40
1
 10
95.732865
 20
214.305031
 30
0.0
 10
95.732865
 20
207.875041
 30
0.0
 10
95.612862
 20
206.962348
 30
0.0
 10
94.548853
 20
205.304236
 30
0.0
  0
SPLINE
  5
109
100
AcDbEntity
  8
Layer_1
 62
7
100
AcDbSpline
 70
8
 71
3
 72
8
 73
4
 74
0
 40
0
 40
0
 40
0
 40
0
 40
1
 40
1
 40
1
 40
1
 10
94.548853
 20
205.304236
 30
0.0
 10
93.853827
 20
204.221135
 30
0.0
 10
92.360262
 20
202.834879
 30
0.0
 10
91.130769
 20
202.131440
 30
0.0
  0
SPLINE
  5
10a
100
AcDbEntity
  8
Layer_1
 62
7
100
AcDbSpline
 70
8
 71
3
 72
8
 73
4
 74
0
 40
0
 40
0
 40
0
 40
0
 40
1
 40
1
 40
1
 40
1
 10
91.130769
 20
202.131440
 30
0.0
 10
90.646879
 20
201.854583
 30
0.0
 10
90.216033
 20
201.601365
 30
0.0
 10
90.173308
 20
201.568650
 30
0.0
  0
SPLINE
  5
10b
100
AcDbEntity
  8
Layer_1
 62
7
100
AcDbSpline
 70
8
 71
3
 72
8
 73
4
 74
0
 40
0
 40
0
 40
0
 40
0
 40
1
 40
1
 40
1
 40
1
 10
90.173308
 20
201.568650
 30
0.0
 10
90.130585
 20
201.535937
 30
0.0
 10
90.575511
 20
200.144449
 30
0.0
 10
91.162186
 20
198.476883
 30
0.0
  0
SPLINE
  5
10c
100
AcDbEntity
  8
Layer_1
 62
7
100
AcDbSpline
 70
8
 71
3
 72
8
 73
4
 74
0
 40
0
 40
0
 40
0
 40
0
 40
1
 40
1
 40
1
 40
1
 10
91.162186
 20
198.476883
 30
0.0
 10
91.748864
 20
196.809313
 30
0.0
 10
92.363454
 20
195.012286
 30
0.0
 10
92.527549
 20
194.483328
 30
0.0
  0
SPLINE
  5
10d
100
AcDbEntity
  8
Layer_1
 62
7
100
AcDbSpline
 70
8
 71
3
 72
8
 73
4
 74
0
 40
0
 40
0
 40
0
 40
0
 40
1
 40
1
 40
1
 40
1
 10
92.527549
 20
194.483328
 30
0.0
 10
92.691647
 20
193.954373
 30
0.0
 10
93.226261
 20
192.440000
 30
0.0
 10
93.715967
 20
191.117608
 30
0.0
  0
SPLINE
  5
10e
100
AcDbEntity
  8
Layer_1
 62
7
100
AcDbSpline
 70
8
 71
3
 72
8
 73
4
 74
0
 40
0
 40
0
 40
0
 40
0
 40
1
 40
1
 40
1
 40
1
 10
93.715967
 20
191.117608
 30
0.0
 10
94.205673
 20
189.795216
 30
0.0
 10
95.019836
 20
187.458035
 30
0.0
 10
95.525057
 20
185.924059
 30
0.0
  0
SPLINE
  5
10f
100
AcDbEntity
  8
Layer_1
 62
7
100
AcDbSpline
 70
8
 71
3
 72
8
 73
4
 74
0
 40
0
 40
0
 40
0
 40
0
 40
1
 40
1
 40
1
 40
1
 10
95.525057
 20
185.924059
 30
0.0
 10
96.030277
 20
184.390085
 30
0.0
 10
96.750195
 20
182.312650
 30
0.0
 10
97.124684
 20
181.307631
 30
0.0
  0
SPLINE
  5
110
100
AcDbEntity
  8
Layer_1
 62
7
100
AcDbSpline
 70
8
 71
3
 72
8
 73
4
 74
0
 40
0
 40
0
 40
0
 40
0
 40
1
 40
1
 40
1
 40
1
 10
97.124684
 20
181.307631
 30
0.0
 10
97.499170
 20
180.302615
 30
0.0
 10
97.864684
 20
179.285676
 30
0.0
 10
97.936623
 20
179.047647
 30
0.0
  0
LWPOLYLINE
  5
111
100
AcDbEntity
  8
Layer_1
 62
7
100
AcDbPolyline
 90
3
 70
0
 10
78.846384
 20
229.394547
 30
0.0
 10
77.452911
 20
228.336767
 30
0.0
 10
79.620291
 20
228.289912
 30
0.0
  0
SPLINE
  5
112
100
AcDbEntity
  8
Layer_1
 62
7
100
AcDbSpline
 70
8
 71
3
 72
8
 73
4
 74
0
 40
0
 40
0
 40
0
 40
0
 40
1
 40
1
 40
1
 40
1
 10
94.218675
 20
178.614943
 30
0.0
 10
92.101964
 20
178.614943
 30
0.0
 10
90.325411
 20
178.687102
 30
0.0
 10
90.270872
 20
178.775347
 30
0.0
  0
SPLINE
  5
113
100
AcDbEntity
  8
Layer_1
 62
7
100
AcDbSpline
 70
8
 71
3
 72
8
 73
4
 74
0
 40
0
 40
0
 40
0
 40
0
 40
1
 40
1
 40
1
 40
1
 10
90.270872
 20
178.775347
 30
0.0
 10
90.216332
 20
178.863595
 30
0.0
 10
90.124681
 20
179.187866
 30
0.0
 10
90.066924
 20
179.496338
 30
0.0
  0
SPLINE
  5
114
100
AcDbEntity
  8
Layer_1
 62
7
100
AcDbSpline
 70
8
 71
3
 72
8
 73
4
 74
0
 40
0
 40
0
 40
0
 40
0
 40
1
 40
1
 40
1
 40
1
 10
90.066924
 20
179.496338
 30
0.0
 10
90.009170
 20
179.804806
 30
0.0
 10
89.710432
 20
180.879737
 30
0.0
 10
89.403259
 20
181.884753
 30
0.0
  0
SPLINE
  5
115
100
AcDbEntity
  8
Layer_1
 62
7
100
AcDbSpline
 70
8
 71
3
 72
8
 73
4
 74
0
 40
0
 40
0
 40
0
 40
0
 40
1
 40
1
 40
1
 40
1
 10
89.403259
 20
181.884753
 30
0.0
 10
88.512430
 20
184.799389
 30
0.0
 10
87.514961
 20
188.033210
 30
0.0
 10
87.089257
 20
189.386242
 30
0.0
  0
SPLINE
  5
116
100
AcDbEntity
  8
Layer_1
 62
7
100
AcDbSpline
 70
8
 71
3
 72
8
 73
4
 74
0
 40
0
 40
0
 40
0
 40
0
 40
1
 40
1
 40
1
 40
1
 10
87.089257
 20
189.386242
 30
0.0
 10
86.872899
 20
190.073885
 30
0.0
 10
86.694882
 20
190.773557
 30
0.0
 10
86.694035
 20
190.941219
 30
0.0
  0
SPLINE
  5
117
100
AcDbEntity
  8
Layer_1
 62
7
100
AcDbSpline
 70
8
 71
3
 72
8
 73
4
 74
0
 40
0
 40
0
 40
0
 40
0
 40
1
 40
1
 40
1
 40
1
 10
86.694035
 20
190.941219
 30
0.0
 10
86.693189
 20
191.108884
 30
0.0
 10
86.398278
 20
192.190891
 30
0.0
 10
86.038092
 20
193.345620
 30
0.0
  0
SPLINE
  5
118
100
AcDbEntity
  8
Layer_1
 62
7
100
AcDbSpline
 70
8
 71
3
 72
8
 73
4
 74
0
 40
0
 40
0
 40
0
 40
0
 40
1
 40
1
 40
1
 40
1
 10
86.038092
 20
193.345620
 30
0.0
 10
85.677903
 20
194.500346
 30
0.0
 10
85.029692
 20
196.580245
 30
0.0
 10
84.597765
 20
197.967562
 30
0.0
  0
SPLINE
  5
119
100
AcDbEntity
  8
Layer_1
 62
7
100
AcDbSpline
 70
8
 71
3
 72
8
 73
4
 74
0
 40
0
 40
0
 40
0
 40
0
 40
1
 40
1
 40
1
 40
1
 10
84.597765
 20
197.967562
 30
0.0
 10
83.839050
 20
200.404489
 30
0.0
 10
83.795766
 20
200.487120
 30
0.0
 10
83.328868
 20
200.397868
 30
0.0
  0
LWPOLYLINE
  5
11a
100
AcDbEntity
  8
Layer_1
 62
7
100
AcDbPolyline
 90
3
 70
0
 10
97.936623
 20
179.047647
 30
0.0
 10
98.067261
 20
178.614943
 30
0.0
 10
94.218675
 20
178.614943
 30
0.0
  0
SPLINE
  5
11b
100
AcDbEntity
  8
Layer_1
 62
7
100
AcDbSpline
 70
8
 71
3
 72
8
 73
4
 74
0
 40
0
 40
0
 40
0
 40
0
 40
1
 40
1
 40
1
 40
1
 10
75.921085
 20
202.658403
 30
0.0
 10
75.921085
 20
215.882320
 30
0.0
 10
75.868098
 20
226.701862
 30
0.0
 10
75.803125
 20
226.701862
 30
0.0
  0
SPLINE
  5
11c
100
AcDbEntity
  8
Layer_1
 62
7
100
AcDbSpline
 70
8
 71
3
 72
8
 73
4
 74
0
 40
0
 40
0
 40
0
 40
0
 40
1
 40
1
 40
1
 40
1
 10
75.803125
 20
226.701862
 30
0.0
 10
75.513847
 20
226.701862
 30
0.0
 10
73.181707
 20
224.493936
 30
0.0
 10
71.333320
 20
222.470183
 30
0.0
  0
SPLINE
  5
11d
100
AcDbEntity
  8
Layer_1
 62
7
100
AcDbSpline
 70
8
 71
3
 72
8
 73
4
 74
0
 40
0
 40
0
 40
0
 40
0
 40
1
 40
1
 40
1
 40
1
 10
71.333320
 20
222.470183
 30
0.0
 10
68.875616
 20
219.779312
 30
0.0
 10
65.153929
 20
215.156930
 30
0.0
 10
63.974046
 20
213.329931
 30
0.0
  0
SPLINE
  5
11e
100
AcDbEntity
  8
Layer_1
 62
7
100
AcDbSpline
 70
8
 71
3
 72
8
 73
4
 74
0
 40
0
 40
0
 40
0
 40
0
 40
1
 40
1
 40
1
 40
1
 10
63.974046
 20
213.329931
 30
0.0
 10
63.051337
 20
211.901152
 30
0.0
 10
61.685466
 20
209.302998
 30
0.0
 10
60.285314
 20
206.312960
 30
0.0
  0
SPLINE
  5
11f
100
AcDbEntity
  8
Layer_1
 62
7
100
AcDbSpline
 70
8
 71
3
 72
8
 73
4
 74
0
 40
0
 40
0
 40
0
 40
0
 40
1
 40
1
 40
1
 40
1
 10
60.285314
 20
206.312960
 30
0.0
 10
57.427086
 20
200.209196
 30
0.0
 10
55.299726
 20
193.120418
 30
0.0
 10
54.451800
 20
186.875455
 30
0.0
  0
SPLINE
  5
120
100
AcDbEntity
  8
Layer_1
 62
7
100
AcDbSpline
 70
8
 71
3
 72
8
 73
4
 74
0
 40
0
 40
0
 40
0
 40
0
 40
1
 40
1
 40
1
 40
1
 10
54.451800
 20
186.875455
 30
0.0
 10
54.010303
 20
183.623849
 30
0.0
 10
54.014858
 20
177.746532
 30
0.0
 10
54.461173
 20
174.768012
 30
0.0
  0
SPLINE
  5
121
100
AcDbEntity
  8
Layer_1
 62
7
100
AcDbSpline
 70
8
 71
3
 72
8
 73
4
 74
0
 40
0
 40
0
 40
0
 40
0
 40
1
 40
1
 40
1
 40
1
 10
54.461173
 20
174.768012
 30
0.0
 10
55.414940
 20
168.402995
 30
0.0
 10
57.527362
 20
162.584292
 30
0.0
 10
60.667855
 20
157.672621
 30
0.0
  0
SPLINE
  5
122
100
AcDbEntity
  8
Layer_1
 62
7
100
AcDbSpline
 70
8
 71
3
 72
8
 73
4
 74
0
 40
0
 40
0
 40
0
 40
0
 40
1
 40
1
 40
1
 40
1
 10
60.667855
 20
157.672621
 30
0.0
 10
61.311505
 20
156.665948
 30
0.0
 10
61.336499
 20
156.649438
 30
0.0
 10
61.612639
 20
157.043686
 30
0.0
  0
SPLINE
  5
123
100
AcDbEntity
  8
Layer_1
 62
7
100
AcDbSpline
 70
8
 71
3
 72
8
 73
4
 74
0
 40
0
 40
0
 40
0
 40
0
 40
1
 40
1
 40
1
 40
1
 10
61.612639
 20
157.043686
 30
0.0
 10
61.987108
 20
157.578313
 30
0.0
 10
63.201657
 20
160.568822
 30
0.0
 10
63.538035
 20
161.784136
 30
0.0
  0
SPLINE
  5
124
100
AcDbEntity
  8
Layer_1
 62
7
100
AcDbSpline
 70
8
 71
3
 72
8
 73
4
 74
0
 40
0
 40
0
 40
0
 40
0
 40
1
 40
1
 40
1
 40
1
 10
63.538035
 20
161.784136
 30
0.0
 10
63.684441
 20
162.313091
 30
0.0
 10
63.856715
 20
163.481685
 30
0.0
 10
63.920576
 20
164.380910
 30
0.0
  0
SPLINE
  5
125
100
AcDbEntity
  8
Layer_1
 62
7
100
AcDbSpline
 70
8
 71
3
 72
8
 73
4
 74
0
 40
0
 40
0
 40
0
 40
0
 40
1
 40
1
 40
1
 40
1
 10
63.920576
 20
164.380910
 30
0.0
 10
64.074164
 20
166.543571
 30
0.0
 10
63.730412
 20
167.954115
 30
0.0
 10
62.238269
 20
171.282677
 30
0.0
  0
SPLINE
  5
126
100
AcDbEntity
  8
Layer_1
 62
7
100
AcDbSpline
 70
8
 71
3
 72
8
 73
4
 74
0
 40
0
 40
0
 40
0
 40
0
 40
1
 40
1
 40
1
 40
1
 10
62.238269
 20
171.282677
 30
0.0
 10
60.524046
 20
175.106628
 30
0.0
 10
60.142430
 20
176.779246
 30
0.0
 10
60.013012
 20
181.032575
 30
0.0
  0
SPLINE
  5
127
100
AcDbEntity
  8
Layer_1
 62
7
100
AcDbSpline
 70
8
 71
3
 72
8
 73
4
 74
0
 40
0
 40
0
 40
0
 40
0
 40
1
 40
1
 40
1
 40
1
 10
60.013012
 20
181.032575
 30
0.0
 10
59.929285
 20
183.784193
 30
0.0
 10
59.974638
 20
184.906549
 30
0.0
 10
60.230743
 20
186.418498
 30
0.0
  0
SPLINE
  5
128
100
AcDbEntity
  8
Layer_1
 62
7
100
AcDbSpline
 70
8
 71
3
 72
8
 73
4
 74
0
 40
0
 40
0
 40
0
 40
0
 40
1
 40
1
 40
1
 40
1
 10
60.230743
 20
186.418498
 30
0.0
 10
60.907490
 20
190.413718
 30
0.0
 10
62.145209
 20
194.382075
 30
0.0
 10
63.680247
 20
197.478632
 30
0.0
  0
SPLINE
  5
129
100
AcDbEntity
  8
Layer_1
 62
7
100
AcDbSpline
 70
8
 71
3
 72
8
 73
4
 74
0
 40
0
 40
0
 40
0
 40
0
 40
1
 40
1
 40
1
 40
1
 10
63.680247
 20
197.478632
 30
0.0
 10
64.727272
 20
199.590743
 30
0.0
 10
65.112911
 20
200.011316
 30
0.0
 10
65.678953
 20
199.656484
 30
0.0
  0
SPLINE
  5
12a
100
AcDbEntity
  8
Layer_1
 62
7
100
AcDbSpline
 70
8
 71
3
 72
8
 73
4
 74
0
 40
0
 40
0
 40
0
 40
0
 40
1
 40
1
 40
1
 40
1
 10
65.678953
 20
199.656484
 30
0.0
 10
66.232453
 20
199.309514
 30
0.0
 10
66.173923
 20
198.713848
 30
0.0
 10
65.434216
 20
197.155069
 30
0.0
  0
SPLINE
  5
12b
100
AcDbEntity
  8
Layer_1
 62
7
100
AcDbSpline
 70
8
 71
3
 72
8
 73
4
 74
0
 40
0
 40
0
 40
0
 40
0
 40
1
 40
1
 40
1
 40
1
 10
65.434216
 20
197.155069
 30
0.0
 10
64.529629
 20
195.248828
 30
0.0
 10
62.960349
 20
190.712704
 30
0.0
 10
62.480252
 20
188.616744
 30
0.0
  0
SPLINE
  5
12c
100
AcDbEntity
  8
Layer_1
 62
7
100
AcDbSpline
 70
8
 71
3
 72
8
 73
4
 74
0
 40
0
 40
0
 40
0
 40
0
 40
1
 40
1
 40
1
 40
1
 10
62.480252
 20
188.616744
 30
0.0
 10
61.650688
 20
184.995127
 30
0.0
 10
61.491289
 20
181.633454
 30
0.0
 10
61.988567
 20
178.255000
 30
0.0
  0
SPLINE
  5
12d
100
AcDbEntity
  8
Layer_1
 62
7
100
AcDbSpline
 70
8
 71
3
 72
8
 73
4
 74
0
 40
0
 40
0
 40
0
 40
0
 40
1
 40
1
 40
1
 40
1
 10
61.988567
 20
178.255000
 30
0.0
 10
62.312034
 20
176.057403
 30
0.0
 10
63.168053
 20
173.223235
 30
0.0
 10
63.884198
 20
171.978863
 30
0.0
  0
SPLINE
  5
12e
100
AcDbEntity
  8
Layer_1
 62
7
100
AcDbSpline
 70
8
 71
3
 72
8
 73
4
 74
0
 40
0
 40
0
 40
0
 40
0
 40
1
 40
1
 40
1
 40
1
 10
63.884198
 20
171.978863
 30
0.0
 10
64.127736
 20
171.555699
 30
0.0
 10
64.619666
 20
170.473687
 30
0.0
 10
64.977809
 20
169.574463
 30
0.0
  0
SPLINE
  5
12f
100
AcDbEntity
  8
Layer_1
 62
7
100
AcDbSpline
 70
8
 71
3
 72
8
 73
4
 74
0
 40
0
 40
0
 40
0
 40
0
 40
1
 40
1
 40
1
 40
1
 10
64.977809
 20
169.574463
 30
0.0
 10
65.618685
 20
167.965341
 30
0.0
 10
65.628974
 20
167.894120
 30
0.0
 10
65.618871
 20
165.054496
 30
0.0
  0
SPLINE
  5
130
100
AcDbEntity
  8
Layer_1
 62
7
100
AcDbSpline
 70
8
 71
3
 72
8
 73
4
 74
0
 40
0
 40
0
 40
0
 40
0
 40
1
 40
1
 40
1
 40
1
 10
65.618871
 20
165.054496
 30
0.0
 10
65.609501
 20
162.429708
 30
0.0
 10
65.560016
 20
162.021358
 30
0.0
 10
65.070965
 20
160.533979
 30
0.0
  0
SPLINE
  5
131
100
AcDbEntity
  8
Layer_1
 62
7
100
AcDbSpline
 70
8
 71
3
 72
8
 73
4
 74
0
 40
0
 40
0
 40
0
 40
0
 40
1
 40
1
 40
1
 40
1
 10
65.070965
 20
160.533979
 30
0.0
 10
64.083319
 20
157.530186
 30
0.0
 10
63.215469
 20
156.043849
 30
0.0
 10
59.456286
 20
150.916926
 30
0.0
  0
SPLINE
  5
132
100
AcDbEntity
  8
Layer_1
 62
7
100
AcDbSpline
 70
8
 71
3
 72
8
 73
4
 74
0
 40
0
 40
0
 40
0
 40
0
 40
1
 40
1
 40
1
 40
1
 10
59.456286
 20
150.916926
 30
0.0
 10
58.874516
 20
150.123490
 30
0.0
 10
58.261425
 20
149.308612
 30
0.0
 10
58.094231
 20
149.106186
 30
0.0
  0
SPLINE
  5
133
100
AcDbEntity
  8
Layer_1
 62
7
100
AcDbSpline
 70
8
 71
3
 72
8
 73
4
 74
0
 40
0
 40
0
 40
0
 40
0
 40
1
 40
1
 40
1
 40
1
 10
58.094231
 20
149.106186
 30
0.0
 10
57.927037
 20
148.903759
 30
0.0
 10
57.613714
 20
148.427278
 30
0.0
 10
57.397495
 20
148.047852
 30
0.0
  0
SPLINE
  5
134
100
AcDbEntity
  8
Layer_1
 62
7
100
AcDbSpline
 70
8
 71
3
 72
8
 73
4
 74
0
 40
0
 40
0
 40
0
 40
0
 40
1
 40
1
 40
1
 40
1
 10
57.397495
 20
148.047852
 30
0.0
 10
57.181273
 20
147.668427
 30
0.0
 10
56.727928
 20
147.011682
 30
0.0
 10
56.390424
 20
146.588233
 30
0.0
  0
SPLINE
  5
135
100
AcDbEntity
  8
Layer_1
 62
7
100
AcDbSpline
 70
8
 71
3
 72
8
 73
4
 74
0
 40
0
 40
0
 40
0
 40
0
 40
1
 40
1
 40
1
 40
1
 10
56.390424
 20
146.588233
 30
0.0
 10
54.919818
 20
144.743143
 30
0.0
 10
54.957009
 20
144.901975
 30
0.0
 10
54.956162
 20
140.404149
 30
0.0
  0
LWPOLYLINE
  5
136
100
AcDbEntity
  8
Layer_1
 62
7
100
AcDbPolyline
 90
7
 70
0
 10
83.328868
 20
200.397868
 30
0.0
 10
82.846003
 20
200.305265
 30
0.0
 10
82.846003
 20
189.460103
 30
0.0
 10
82.846003
 20
178.614943
 30
0.0
 10
79.383269
 20
178.614943
 30
0.0
 10
75.921085
 20
178.614943
 30
0.0
 10
75.921085
 20
202.658403
 30
0.0
  0
SPLINE
  5
137
100
AcDbEntity
  8
Layer_1
 62
7
100
AcDbSpline
 70
8
 71
3
 72
8
 73
4
 74
0
 40
0
 40
0
 40
0
 40
0
 40
1
 40
1
 40
1
 40
1
 10
56.118675
 20
133.002431
 30
0.0
 10
56.758434
 20
131.168968
 30
0.0
 10
57.357109
 20
129.364372
 30
0.0
 10
57.449311
 20
128.992341
 30
0.0
  0
SPLINE
  5
138
100
AcDbEntity
  8
Layer_1
 62
7
100
AcDbSpline
 70
8
 71
3
 72
8
 73
4
 74
0
 40
0
 40
0
 40
0
 40
0
 40
1
 40
1
 40
1
 40
1
 10
57.449311
 20
128.992341
 30
0.0
 10
57.541510
 20
128.620312
 30
0.0
 10
58.359415
 20
126.213931
 30
0.0
 10
59.267217
 20
123.645000
 30
0.0
  0
SPLINE
  5
139
100
AcDbEntity
  8
Layer_1
 62
7
100
AcDbSpline
 70
8
 71
3
 72
8
 73
4
 74
0
 40
0
 40
0
 40
0
 40
0
 40
1
 40
1
 40
1
 40
1
 10
59.267217
 20
123.645000
 30
0.0
 10
60.175021
 20
121.076072
 30
0.0
 10
60.918107
 20
118.822282
 30
0.0
 10
60.918107
 20
118.636659
 30
0.0
  0
SPLINE
  5
13a
100
AcDbEntity
  8
Layer_1
 62
7
100
AcDbSpline
 70
8
 71
3
 72
8
 73
4
 74
0
 40
0
 40
0
 40
0
 40
0
 40
1
 40
1
 40
1
 40
1
 10
60.918107
 20
118.636659
 30
0.0
 10
60.918107
 20
118.195057
 30
0.0
 10
61.907160
 20
117.262395
 30
0.0
 10
66.837058
 20
113.054501
 30
0.0
  0
LWPOLYLINE
  5
13b
100
AcDbEntity
  8
Layer_1
 62
7
100
AcDbPolyline
 90
3
 70
0
 10
54.956162
 20
140.404149
 30
0.0
 10
54.955062
 20
136.335630
 30
0.0
 10
56.118675
 20
133.002431
 30
0.0
  0
SPLINE
  5
13c
100
AcDbEntity
  8
Layer_1
 62
7
100
AcDbSpline
 70
8
 71
3
 72
8
 73
4
 74
0
 40
0
 40
0
 40
0
 40
0
 40
1
 40
1
 40
1
 40
1
 10
78.550934
 20
108.866368
 30
0.0
 10
81.674056
 20
106.525781
 30
0.0
 10
84.008400
 20
103.175284
 30
0.0
 10
84.978105
 20
99.640676
 30
0.0
  0
SPLINE
  5
13d
100
AcDbEntity
  8
Layer_1
 62
7
100
AcDbSpline
 70
8
 71
3
 72
8
 73
4
 74
0
 40
0
 40
0
 40
0
 40
0
 40
1
 40
1
 40
1
 40
1
 10
84.978105
 20
99.640676
 30
0.0
 10
85.322893
 20
98.383896
 30
0.0
 10
85.371875
 20
97.757836
 30
0.0
 10
85.313794
 20
95.353876
 30
0.0
  0
LWPOLYLINE
  5
13e
100
AcDbEntity
  8
Layer_1
 62
7
100
AcDbPolyline
 90
5
 70
0
 10
66.837058
 20
113.054501
 30
0.0
 10
70.928730
 20
109.562001
 30
0.0
 10
74.275707
 20
109.562001
 30
0.0
 10
77.622688
 20
109.562001
 30
0.0
 10
78.550934
 20
108.866368
 30
0.0
  0
SPLINE
  5
13f
100
AcDbEntity
  8
Layer_1
 62
7
100
AcDbSpline
 70
8
 71
3
 72
8
 73
4
 74
0
 40
0
 40
0
 40
0
 40
0
 40
1
 40
1
 40
1
 40
1
 10
84.587842
 20
91.577500
 30
0.0
 10
84.226002
 20
91.048542
 30
0.0
 10
83.651457
 20
90.269298
 30
0.0
 10
83.311230
 20
89.846132
 30
0.0
  0
SPLINE
  5
140
100
AcDbEntity
  8
Layer_1
 62
7
100
AcDbSpline
 70
8
 71
3
 72
8
 73
4
 74
0
 40
0
 40
0
 40
0
 40
0
 40
1
 40
1
 40
1
 40
1
 10
83.311230
 20
89.846132
 30
0.0
 10
82.971002
 20
89.422968
 30
0.0
 10
82.207828
 20
88.302260
 30
0.0
 10
81.615139
 20
87.355743
 30
0.0
  0
SPLINE
  5
141
100
AcDbEntity
  8
Layer_1
 62
7
100
AcDbSpline
 70
8
 71
3
 72
8
 73
4
 74
0
 40
0
 40
0
 40
0
 40
0
 40
1
 40
1
 40
1
 40
1
 10
81.615139
 20
87.355743
 30
0.0
 10
80.691025
 20
85.879939
 30
0.0
 10
80.537513
 20
85.502080
 30
0.0
 10
80.537513
 20
84.701641
 30
0.0
  0
SPLINE
  5
142
100
AcDbEntity
  8
Layer_1
 62
7
100
AcDbSpline
 70
8
 71
3
 72
8
 73
4
 74
0
 40
0
 40
0
 40
0
 40
0
 40
1
 40
1
 40
1
 40
1
 10
80.537513
 20
84.701641
 30
0.0
 10
80.537513
 20
83.563580
 30
0.0
 10
80.901238
 20
82.815756
 30
0.0
 10
81.780504
 20
82.145103
 30
0.0
  0
SPLINE
  5
143
100
AcDbEntity
  8
Layer_1
 62
7
100
AcDbSpline
 70
8
 71
3
 72
8
 73
4
 74
0
 40
0
 40
0
 40
0
 40
0
 40
1
 40
1
 40
1
 40
1
 10
81.780504
 20
82.145103
 30
0.0
 10
82.720152
 20
81.428402
 30
0.0
 10
83.695670
 20
81.348164
 30
0.0
 10
84.769192
 20
81.899812
 30
0.0
  0
SPLINE
  5
144
100
AcDbEntity
  8
Layer_1
 62
7
100
AcDbSpline
 70
8
 71
3
 72
8
 73
4
 74
0
 40
0
 40
0
 40
0
 40
0
 40
1
 40
1
 40
1
 40
1
 10
84.769192
 20
81.899812
 30
0.0
 10
85.463947
 20
82.256823
 30
0.0
 10
85.880149
 20
82.714582
 30
0.0
 10
86.878143
 20
84.219879
 30
0.0
  0
SPLINE
  5
145
100
AcDbEntity
  8
Layer_1
 62
7
100
AcDbSpline
 70
8
 71
3
 72
8
 73
4
 74
0
 40
0
 40
0
 40
0
 40
0
 40
1
 40
1
 40
1
 40
1
 10
86.878143
 20
84.219879
 30
0.0
 10
87.561990
 20
85.251345
 30
0.0
 10
88.195153
 20
86.095664
 30
0.0
 10
88.285396
 20
86.095664
 30
0.0
  0
SPLINE
  5
146
100
AcDbEntity
  8
Layer_1
 62
7
100
AcDbSpline
 70
8
 71
3
 72
8
 73
4
 74
0
 40
0
 40
0
 40
0
 40
0
 40
1
 40
1
 40
1
 40
1
 10
88.285396
 20
86.095664
 30
0.0
 10
88.375642
 20
86.095664
 30
0.0
 10
88.725341
 20
85.811895
 30
0.0
 10
89.062058
 20
85.465075
 30
0.0
  0
SPLINE
  5
147
100
AcDbEntity
  8
Layer_1
 62
7
100
AcDbSpline
 70
8
 71
3
 72
8
 73
4
 74
0
 40
0
 40
0
 40
0
 40
0
 40
1
 40
1
 40
1
 40
1
 10
89.062058
 20
85.465075
 30
0.0
 10
89.398774
 20
85.118257
 30
0.0
 10
89.963569
 20
84.597408
 30
0.0
 10
90.317173
 20
84.308074
 30
0.0
  0
LWPOLYLINE
  5
148
100
AcDbEntity
  8
Layer_1
 62
7
100
AcDbPolyline
 90
3
 70
0
 10
85.313794
 20
95.353876
 30
0.0
 10
85.245442
 20
92.538819
 30
0.0
 10
84.587842
 20
91.577500
 30
0.0
  0
SPLINE
  5
149
100
AcDbEntity
  8
Layer_1
 62
7
100
AcDbSpline
 70
8
 71
3
 72
8
 73
4
 74
0
 40
0
 40
0
 40
0
 40
0
 40
1
 40
1
 40
1
 40
1
 10
89.967153
 20
81.236150
 30
0.0
 10
88.143292
 20
76.559253
 30
0.0
 10
87.977472
 20
75.461426
 30
0.0
 10
88.886769
 20
74.073660
 30
0.0
  0
SPLINE
  5
14a
100
AcDbEntity
  8
Layer_1
 62
7
100
AcDbSpline
 70
8
 71
3
 72
8
 73
4
 74
0
 40
0
 40
0
 40
0
 40
0
 40
1
 40
1
 40
1
 40
1
 10
88.886769
 20
74.073660
 30
0.0
 10
89.608256
 20
72.972542
 30
0.0
 10
91.685511
 20
72.622578
 30
0.0
 10
92.931036
 20
73.392356
 30
0.0
  0
SPLINE
  5
14b
100
AcDbEntity
  8
Layer_1
 62
7
100
AcDbSpline
 70
8
 71
3
 72
8
 73
4
 74
0
 40
0
 40
0
 40
0
 40
0
 40
1
 40
1
 40
1
 40
1
 10
92.931036
 20
73.392356
 30
0.0
 10
93.656077
 20
73.840451
 30
0.0
 10
93.736736
 20
73.994974
 30
0.0
 10
95.170075
 20
77.680260
 30
0.0
  0
SPLINE
  5
14c
100
AcDbEntity
  8
Layer_1
 62
7
100
AcDbSpline
 70
8
 71
3
 72
8
 73
4
 74
0
 40
0
 40
0
 40
0
 40
0
 40
1
 40
1
 40
1
 40
1
 10
95.170075
 20
77.680260
 30
0.0
 10
95.735834
 20
79.134892
 30
0.0
 10
96.295732
 20
80.324992
 30
0.0
 10
96.414167
 20
80.324992
 30
0.0
  0
SPLINE
  5
14d
100
AcDbEntity
  8
Layer_1
 62
7
100
AcDbSpline
 70
8
 71
3
 72
8
 73
4
 74
0
 40
0
 40
0
 40
0
 40
0
 40
1
 40
1
 40
1
 40
1
 10
96.414167
 20
80.324992
 30
0.0
 10
96.806416
 20
80.324992
 30
0.0
 10
98.891736
 20
79.407646
 30
0.0
 10
98.959128
 20
79.205473
 30
0.0
  0
SPLINE
  5
14e
100
AcDbEntity
  8
Layer_1
 62
7
100
AcDbSpline
 70
8
 71
3
 72
8
 73
4
 74
0
 40
0
 40
0
 40
0
 40
0
 40
1
 40
1
 40
1
 40
1
 10
98.959128
 20
79.205473
 30
0.0
 10
98.995526
 20
79.096276
 30
0.0
 10
98.804284
 20
77.455089
 30
0.0
 10
98.533591
 20
75.558632
 30
0.0
  0
SPLINE
  5
14f
100
AcDbEntity
  8
Layer_1
 62
7
100
AcDbSpline
 70
8
 71
3
 72
8
 73
4
 74
0
 40
0
 40
0
 40
0
 40
0
 40
1
 40
1
 40
1
 40
1
 10
98.533591
 20
75.558632
 30
0.0
 10
97.888369
 20
71.038273
 30
0.0
 10
97.894716
 20
70.609789
 30
0.0
 10
98.625643
 20
69.506289
 30
0.0
  0
SPLINE
  5
150
100
AcDbEntity
  8
Layer_1
 62
7
100
AcDbSpline
 70
8
 71
3
 72
8
 73
4
 74
0
 40
0
 40
0
 40
0
 40
0
 40
1
 40
1
 40
1
 40
1
 10
98.625643
 20
69.506289
 30
0.0
 10
99.246600
 20
68.568817
 30
0.0
 10
99.925573
 20
68.207076
 30
0.0
 10
101.063668
 20
68.207076
 30
0.0
  0
SPLINE
  5
151
100
AcDbEntity
  8
Layer_1
 62
7
100
AcDbSpline
 70
8
 71
3
 72
8
 73
4
 74
0
 40
0
 40
0
 40
0
 40
0
 40
1
 40
1
 40
1
 40
1
 10
101.063668
 20
68.207076
 30
0.0
 10
101.798038
 20
68.207076
 30
0.0
 10
102.343545
 20
68.442839
 30
0.0
 10
103.012215
 20
69.048781
 30
0.0
  0
SPLINE
  5
152
100
AcDbEntity
  8
Layer_1
 62
7
100
AcDbSpline
 70
8
 71
3
 72
8
 73
4
 74
0
 40
0
 40
0
 40
0
 40
0
 40
1
 40
1
 40
1
 40
1
 10
103.012215
 20
69.048781
 30
0.0
 10
103.693462
 20
69.666125
 30
0.0
 10
103.972332
 20
70.335929
 30
0.0
 10
104.070548
 20
71.590435
 30
0.0
  0
SPLINE
  5
153
100
AcDbEntity
  8
Layer_1
 62
7
100
AcDbSpline
 70
8
 71
3
 72
8
 73
4
 74
0
 40
0
 40
0
 40
0
 40
0
 40
1
 40
1
 40
1
 40
1
 10
104.070548
 20
71.590435
 30
0.0
 10
104.119508
 20
72.215783
 30
0.0
 10
104.314710
 20
73.925417
 30
0.0
 10
104.504355
 20
75.389961
 30
0.0
  0
LWPOLYLINE
  5
154
100
AcDbEntity
  8
Layer_1
 62
7
100
AcDbPolyline
 90
3
 70
0
 10
90.317173
 20
84.308074
 30
0.0
 10
90.959892
 20
83.782215
 30
0.0
 10
89.967153
 20
81.236150
 30
0.0
  0
SPLINE
  5
155
100
AcDbEntity
  8
Layer_1
 62
7
100
AcDbSpline
 70
8
 71
3
 72
8
 73
4
 74
0
 40
0
 40
0
 40
0
 40
0
 40
1
 40
1
 40
1
 40
1
 10
106.783076
 20
77.916731
 30
0.0
 10
107.846515
 20
77.841967
 30
0.0
 10
108.781266
 20
77.742329
 30
0.0
 10
108.860607
 20
77.695144
 30
0.0
  0
SPLINE
  5
156
100
AcDbEntity
  8
Layer_1
 62
7
100
AcDbSpline
 70
8
 71
3
 72
8
 73
4
 74
0
 40
0
 40
0
 40
0
 40
0
 40
1
 40
1
 40
1
 40
1
 10
108.860607
 20
77.695144
 30
0.0
 10
108.939951
 20
77.647962
 30
0.0
 10
109.005565
 20
75.558555
 30
0.0
 10
109.006129
 20
73.052258
 30
0.0
  0
SPLINE
  5
157
100
AcDbEntity
  8
Layer_1
 62
7
100
AcDbSpline
 70
8
 71
3
 72
8
 73
4
 74
0
 40
0
 40
0
 40
0
 40
0
 40
1
 40
1
 40
1
 40
1
 10
109.006129
 20
73.052258
 30
0.0
 10
109.006694
 20
70.511321
 30
0.0
 10
109.094891
 20
68.179305
 30
0.0
 10
109.205669
 20
67.780435
 30
0.0
  0
SPLINE
  5
158
100
AcDbEntity
  8
Layer_1
 62
7
100
AcDbSpline
 70
8
 71
3
 72
8
 73
4
 74
0
 40
0
 40
0
 40
0
 40
0
 40
1
 40
1
 40
1
 40
1
 10
109.205669
 20
67.780435
 30
0.0
 10
109.469518
 20
66.830393
 30
0.0
 10
110.241450
 20
65.943004
 30
0.0
 10
110.992708
 20
65.725504
 30
0.0
  0
SPLINE
  5
159
100
AcDbEntity
  8
Layer_1
 62
7
100
AcDbSpline
 70
8
 71
3
 72
8
 73
4
 74
0
 40
0
 40
0
 40
0
 40
0
 40
1
 40
1
 40
1
 40
1
 10
110.992708
 20
65.725504
 30
0.0
 10
111.933744
 20
65.453058
 30
0.0
 10
112.494035
 20
65.490997
 30
0.0
 10
113.366242
 20
65.887009
 30
0.0
  0
SPLINE
  5
15a
100
AcDbEntity
  8
Layer_1
 62
7
100
AcDbSpline
 70
8
 71
3
 72
8
 73
4
 74
0
 40
0
 40
0
 40
0
 40
0
 40
1
 40
1
 40
1
 40
1
 10
113.366242
 20
65.887009
 30
0.0
 10
114.837726
 20
66.555111
 30
0.0
 10
114.859359
 20
66.644925
 30
0.0
 10
114.968074
 20
72.525846
 30
0.0
  0
LWPOLYLINE
  5
15b
100
AcDbEntity
  8
Layer_1
 62
7
100
AcDbPolyline
 90
3
 70
0
 10
104.504355
 20
75.389961
 30
0.0
 10
104.849414
 20
78.052881
 30
0.0
 10
106.783076
 20
77.916731
 30
0.0
  0
SPLINE
  5
15c
100
AcDbEntity
  8
Layer_1
 62
7
100
AcDbSpline
 70
8
 71
3
 72
8
 73
4
 74
0
 40
0
 40
0
 40
0
 40
0
 40
1
 40
1
 40
1
 40
1
 10
116.876381
 20
77.878699
 30
0.0
 10
117.947674
 20
77.967345
 30
0.0
 10
118.760672
 20
77.955630
 30
0.0
 10
118.865715
 20
77.850586
 30
0.0
  0
SPLINE
  5
15d
100
AcDbEntity
  8
Layer_1
 62
7
100
AcDbSpline
 70
8
 71
3
 72
8
 73
4
 74
0
 40
0
 40
0
 40
0
 40
0
 40
1
 40
1
 40
1
 40
1
 10
118.865715
 20
77.850586
 30
0.0
 10
118.963440
 20
77.752864
 30
0.0
 10
119.287081
 20
75.920254
 30
0.0
 10
119.585051
 20
73.778207
 30
0.0
  0
SPLINE
  5
15e
100
AcDbEntity
  8
Layer_1
 62
7
100
AcDbSpline
 70
8
 71
3
 72
8
 73
4
 74
0
 40
0
 40
0
 40
0
 40
0
 40
1
 40
1
 40
1
 40
1
 10
119.585051
 20
73.778207
 30
0.0
 10
120.172122
 20
69.557870
 30
0.0
 10
120.295554
 20
69.223589
 30
0.0
 10
121.513755
 20
68.551584
 30
0.0
  0
SPLINE
  5
15f
100
AcDbEntity
  8
Layer_1
 62
7
100
AcDbSpline
 70
8
 71
3
 72
8
 73
4
 74
0
 40
0
 40
0
 40
0
 40
0
 40
1
 40
1
 40
1
 40
1
 10
121.513755
 20
68.551584
 30
0.0
 10
121.997380
 20
68.284788
 30
0.0
 10
122.450152
 20
68.203596
 30
0.0
 10
123.160234
 20
68.256685
 30
0.0
  0
SPLINE
  5
160
100
AcDbEntity
  8
Layer_1
 62
7
100
AcDbSpline
 70
8
 71
3
 72
8
 73
4
 74
0
 40
0
 40
0
 40
0
 40
0
 40
1
 40
1
 40
1
 40
1
 10
123.160234
 20
68.256685
 30
0.0
 10
124.430282
 20
68.351636
 30
0.0
 10
125.228666
 20
68.922537
 30
0.0
 10
125.655586
 20
70.040417
 30
0.0
  0
SPLINE
  5
161
100
AcDbEntity
  8
Layer_1
 62
7
100
AcDbSpline
 70
8
 71
3
 72
8
 73
4
 74
0
 40
0
 40
0
 40
0
 40
0
 40
1
 40
1
 40
1
 40
1
 10
125.655586
 20
70.040417
 30
0.0
 10
125.977227
 20
70.882619
 30
0.0
 10
125.970843
 20
71.021971
 30
0.0
 10
125.419115
 20
75.046003
 30
0.0
  0
SPLINE
  5
162
100
AcDbEntity
  8
Layer_1
 62
7
100
AcDbSpline
 70
8
 71
3
 72
8
 73
4
 74
0
 40
0
 40
0
 40
0
 40
0
 40
1
 40
1
 40
1
 40
1
 10
125.419115
 20
75.046003
 30
0.0
 10
125.027128
 20
77.904872
 30
0.0
 10
124.914160
 20
79.232352
 30
0.0
 10
125.054761
 20
79.337215
 30
0.0
  0
SPLINE
  5
163
100
AcDbEntity
  8
Layer_1
 62
7
100
AcDbSpline
 70
8
 71
3
 72
8
 73
4
 74
0
 40
0
 40
0
 40
0
 40
0
 40
1
 40
1
 40
1
 40
1
 10
125.054761
 20
79.337215
 30
0.0
 10
125.166727
 20
79.420724
 30
0.0
 10
125.747094
 20
79.670787
 30
0.0
 10
126.344053
 20
79.892840
 30
0.0
  0
LWPOLYLINE
  5
164
100
AcDbEntity
  8
Layer_1
 62
7
100
AcDbPolyline
 90
3
 70
0
 10
114.968074
 20
72.525846
 30
0.0
 10
115.063984
 20
77.728768
 30
0.0
 10
116.876381
 20
77.878699
 30
0.0
  0
SPLINE
  5
165
100
AcDbEntity
  8
Layer_1
 62
7
100
AcDbSpline
 70
8
 71
3
 72
8
 73
4
 74
0
 40
0
 40
0
 40
0
 40
0
 40
1
 40
1
 40
1
 40
1
 10
127.764534
 20
79.397297
 30
0.0
 10
127.948811
 20
78.902731
 30
0.0
 10
128.249234
 20
78.151935
 30
0.0
 10
128.432058
 20
77.728768
 30
0.0
  0
SPLINE
  5
166
100
AcDbEntity
  8
Layer_1
 62
7
100
AcDbSpline
 70
8
 71
3
 72
8
 73
4
 74
0
 40
0
 40
0
 40
0
 40
0
 40
1
 40
1
 40
1
 40
1
 10
128.432058
 20
77.728768
 30
0.0
 10
128.614878
 20
77.305604
 30
0.0
 10
128.994874
 20
76.345857
 30
0.0
 10
129.276520
 20
75.596116
 30
0.0
  0
SPLINE
  5
167
100
AcDbEntity
  8
Layer_1
 62
7
100
AcDbSpline
 70
8
 71
3
 72
8
 73
4
 74
0
 40
0
 40
0
 40
0
 40
0
 40
1
 40
1
 40
1
 40
1
 10
129.276520
 20
75.596116
 30
0.0
 10
129.558167
 20
74.846376
 30
0.0
 10
130.023989
 20
74.010389
 30
0.0
 10
130.312253
 20
73.738521
 30
0.0
  0
SPLINE
  5
168
100
AcDbEntity
  8
Layer_1
 62
7
100
AcDbSpline
 70
8
 71
3
 72
8
 73
4
 74
0
 40
0
 40
0
 40
0
 40
0
 40
1
 40
1
 40
1
 40
1
 10
130.312253
 20
73.738521
 30
0.0
 10
131.670812
 20
72.457255
 30
0.0
 10
133.989834
 20
72.796198
 30
0.0
 10
134.980494
 20
74.420923
 30
0.0
  0
SPLINE
  5
169
100
AcDbEntity
  8
Layer_1
 62
7
100
AcDbSpline
 70
8
 71
3
 72
8
 73
4
 74
0
 40
0
 40
0
 40
0
 40
0
 40
1
 40
1
 40
1
 40
1
 10
134.980494
 20
74.420923
 30
0.0
 10
135.645971
 20
75.512339
 30
0.0
 10
135.489724
 20
76.517346
 30
0.0
 10
134.106818
 20
80.029540
 30
0.0
  0
SPLINE
  5
16a
100
AcDbEntity
  8
Layer_1
 62
7
100
AcDbSpline
 70
8
 71
3
 72
8
 73
4
 74
0
 40
0
 40
0
 40
0
 40
0
 40
1
 40
1
 40
1
 40
1
 10
134.106818
 20
80.029540
 30
0.0
 10
133.419175
 20
81.775959
 30
0.0
 10
132.856111
 20
83.285326
 30
0.0
 10
132.856111
 20
83.383686
 30
0.0
  0
SPLINE
  5
16b
100
AcDbEntity
  8
Layer_1
 62
7
100
AcDbSpline
 70
8
 71
3
 72
8
 73
4
 74
0
 40
0
 40
0
 40
0
 40
0
 40
1
 40
1
 40
1
 40
1
 10
132.856111
 20
83.383686
 30
0.0
 10
132.856111
 20
83.594272
 30
0.0
 10
134.567862
 20
85.133887
 30
0.0
 10
134.801901
 20
85.133794
 30
0.0
  0
SPLINE
  5
16c
100
AcDbEntity
  8
Layer_1
 62
7
100
AcDbSpline
 70
8
 71
3
 72
8
 73
4
 74
0
 40
0
 40
0
 40
0
 40
0
 40
1
 40
1
 40
1
 40
1
 10
134.801901
 20
85.133794
 30
0.0
 10
134.890081
 20
85.133794
 30
0.0
 10
135.096391
 20
85.393543
 30
0.0
 10
135.260512
 20
85.710916
 30
0.0
  0
SPLINE
  5
16d
100
AcDbEntity
  8
Layer_1
 62
7
100
AcDbSpline
 70
8
 71
3
 72
8
 73
4
 74
0
 40
0
 40
0
 40
0
 40
0
 40
1
 40
1
 40
1
 40
1
 10
135.260512
 20
85.710916
 30
0.0
 10
135.424635
 20
86.028291
 30
0.0
 10
135.621547
 20
86.286694
 30
0.0
 10
135.698176
 20
86.285283
 30
0.0
  0
SPLINE
  5
16e
100
AcDbEntity
  8
Layer_1
 62
7
100
AcDbSpline
 70
8
 71
3
 72
8
 73
4
 74
0
 40
0
 40
0
 40
0
 40
0
 40
1
 40
1
 40
1
 40
1
 10
135.698176
 20
86.285283
 30
0.0
 10
135.774803
 20
86.283872
 30
0.0
 10
136.270548
 20
85.613673
 30
0.0
 10
136.799506
 20
84.795898
 30
0.0
  0
SPLINE
  5
16f
100
AcDbEntity
  8
Layer_1
 62
7
100
AcDbSpline
 70
8
 71
3
 72
8
 73
4
 74
0
 40
0
 40
0
 40
0
 40
0
 40
1
 40
1
 40
1
 40
1
 10
136.799506
 20
84.795898
 30
0.0
 10
138.172103
 20
82.673835
 30
0.0
 10
138.915724
 20
81.904632
 30
0.0
 10
139.832292
 20
81.657829
 30
0.0
  0
SPLINE
  5
170
100
AcDbEntity
  8
Layer_1
 62
7
100
AcDbSpline
 70
8
 71
3
 72
8
 73
4
 74
0
 40
0
 40
0
 40
0
 40
0
 40
1
 40
1
 40
1
 40
1
 10
139.832292
 20
81.657829
 30
0.0
 10
140.880457
 20
81.375587
 30
0.0
 10
141.685600
 20
81.557406
 30
0.0
 10
142.440090
 20
82.246528
 30
0.0
  0
SPLINE
  5
171
100
AcDbEntity
  8
Layer_1
 62
7
100
AcDbSpline
 70
8
 71
3
 72
8
 73
4
 74
0
 40
0
 40
0
 40
0
 40
0
 40
1
 40
1
 40
1
 40
1
 10
142.440090
 20
82.246528
 30
0.0
 10
143.573946
 20
83.282145
 30
0.0
 10
143.923382
 20
84.772146
 30
0.0
 10
143.310460
 20
85.960617
 30
0.0
  0
SPLINE
  5
172
100
AcDbEntity
  8
Layer_1
 62
7
100
AcDbSpline
 70
8
 71
3
 72
8
 73
4
 74
0
 40
0
 40
0
 40
0
 40
0
 40
1
 40
1
 40
1
 40
1
 10
143.310460
 20
85.960617
 30
0.0
 10
142.984971
 20
86.591754
 30
0.0
 10
140.937779
 20
89.614980
 30
0.0
 10
139.590309
 20
91.454578
 30
0.0
  0
LWPOLYLINE
  5
173
100
AcDbEntity
  8
Layer_1
 62
7
100
AcDbPolyline
 90
3
 70
0
 10
126.344053
 20
79.892840
 30
0.0
 10
127.429395
 20
80.296327
 30
0.0
 10
127.764534
 20
79.397297
 30
0.0
  0
SPLINE
  5
174
100
AcDbEntity
  8
Layer_1
 62
7
100
AcDbSpline
 70
8
 71
3
 72
8
 73
4
 74
0
 40
0
 40
0
 40
0
 40
0
 40
1
 40
1
 40
1
 40
1
 10
138.837348
 20
95.589797
 30
0.0
 10
138.839606
 20
99.124040
 30
0.0
 10
139.046303
 20
100.220395
 30
0.0
 10
140.109002
 20
102.332261
 30
0.0
  0
SPLINE
  5
175
100
AcDbEntity
  8
Layer_1
 62
7
100
AcDbSpline
 70
8
 71
3
 72
8
 73
4
 74
0
 40
0
 40
0
 40
0
 40
0
 40
1
 40
1
 40
1
 40
1
 10
140.109002
 20
102.332261
 30
0.0
 10
141.499703
 20
105.095959
 30
0.0
 10
143.593501
 20
107.584117
 30
0.0
 10
145.704938
 20
108.982675
 30
0.0
  0
LWPOLYLINE
  5
176
100
AcDbEntity
  8
Layer_1
 62
7
100
AcDbPolyline
 90
3
 70
0
 10
139.590309
 20
91.454578
 30
0.0
 10
138.835144
 20
92.485352
 30
0.0
 10
138.837348
 20
95.589797
 30
0.0
  0
SPLINE
  5
177
100
AcDbEntity
  8
Layer_1
 62
7
100
AcDbSpline
 70
8
 71
3
 72
8
 73
4
 74
0
 40
0
 40
0
 40
0
 40
0
 40
1
 40
1
 40
1
 40
1
 10
158.053814
 20
113.778246
 30
0.0
 10
160.888327
 20
116.214351
 30
0.0
 10
163.014327
 20
118.182806
 30
0.0
 10
163.090270
 20
118.442078
 30
0.0
  0
SPLINE
  5
178
100
AcDbEntity
  8
Layer_1
 62
7
100
AcDbSpline
 70
8
 71
3
 72
8
 73
4
 74
0
 40
0
 40
0
 40
0
 40
0
 40
1
 40
1
 40
1
 40
1
 10
163.090270
 20
118.442078
 30
0.0
 10
163.162544
 20
118.688831
 30
0.0
 10
163.990717
 20
121.184383
 30
0.0
 10
164.930777
 20
123.987855
 30
0.0
  0
SPLINE
  5
179
100
AcDbEntity
  8
Layer_1
 62
7
100
AcDbSpline
 70
8
 71
3
 72
8
 73
4
 74
0
 40
0
 40
0
 40
0
 40
0
 40
1
 40
1
 40
1
 40
1
 10
164.930777
 20
123.987855
 30
0.0
 10
165.870834
 20
126.791326
 30
0.0
 10
167.175315
 20
130.686453
 30
0.0
 10
167.829619
 20
132.643591
 30
0.0
  0
LWPOLYLINE
  5
17a
100
AcDbEntity
  8
Layer_1
 62
7
100
AcDbPolyline
 90
5
 70
0
 10
145.704938
 20
108.982675
 30
0.0
 10
146.579167
 20
109.562001
 30
0.0
 10
149.863858
 20
109.562001
 30
0.0
 10
153.149102
 20
109.562551
 30
0.0
 10
158.053814
 20
113.778246
 30
0.0
  0
SPLINE
  5
17b
100
AcDbEntity
  8
Layer_1
 62
7
100
AcDbSpline
 70
8
 71
3
 72
8
 73
4
 74
0
 40
0
 40
0
 40
0
 40
0
 40
1
 40
1
 40
1
 40
1
 10
168.495486
 20
145.512814
 30
0.0
 10
168.208393
 20
145.893066
 30
0.0
 10
167.860119
 20
146.320294
 30
0.0
 10
167.721579
 20
146.462557
 30
0.0
  0
SPLINE
  5
17c
100
AcDbEntity
  8
Layer_1
 62
7
100
AcDbSpline
 70
8
 71
3
 72
8
 73
4
 74
0
 40
0
 40
0
 40
0
 40
0
 40
1
 40
1
 40
1
 40
1
 10
167.721579
 20
146.462557
 30
0.0
 10
167.583039
 20
146.604819
 30
0.0
 10
167.330989
 20
146.994718
 30
0.0
 10
167.160993
 20
147.328516
 30
0.0
  0
SPLINE
  5
17d
100
AcDbEntity
  8
Layer_1
 62
7
100
AcDbSpline
 70
8
 71
3
 72
8
 73
4
 74
0
 40
0
 40
0
 40
0
 40
0
 40
1
 40
1
 40
1
 40
1
 10
167.160993
 20
147.328516
 30
0.0
 10
166.990999
 20
147.662314
 30
0.0
 10
166.401631
 20
148.540931
 30
0.0
 10
165.851857
 20
149.281471
 30
0.0
  0
SPLINE
  5
17e
100
AcDbEntity
  8
Layer_1
 62
7
100
AcDbSpline
 70
8
 71
3
 72
8
 73
4
 74
0
 40
0
 40
0
 40
0
 40
0
 40
1
 40
1
 40
1
 40
1
 10
165.851857
 20
149.281471
 30
0.0
 10
164.399318
 20
151.238013
 30
0.0
 10
161.707189
 20
155.225582
 30
0.0
 10
160.786741
 20
156.783511
 30
0.0
  0
SPLINE
  5
17f
100
AcDbEntity
  8
Layer_1
 62
7
100
AcDbSpline
 70
8
 71
3
 72
8
 73
4
 74
0
 40
0
 40
0
 40
0
 40
0
 40
1
 40
1
 40
1
 40
1
 10
160.786741
 20
156.783511
 30
0.0
 10
159.867973
 20
158.338595
 30
0.0
 10
158.952032
 20
161.145100
 30
0.0
 10
158.618812
 20
163.424002
 30
0.0
  0
SPLINE
  5
180
100
AcDbEntity
  8
Layer_1
 62
7
100
AcDbSpline
 70
8
 71
3
 72
8
 73
4
 74
0
 40
0
 40
0
 40
0
 40
0
 40
1
 40
1
 40
1
 40
1
 10
158.618812
 20
163.424002
 30
0.0
 10
158.231428
 20
166.073338
 30
0.0
 10
158.826031
 20
168.854979
 30
0.0
 10
160.476407
 20
172.111155
 30
0.0
  0
SPLINE
  5
181
100
AcDbEntity
  8
Layer_1
 62
7
100
AcDbSpline
 70
8
 71
3
 72
8
 73
4
 74
0
 40
0
 40
0
 40
0
 40
0
 40
1
 40
1
 40
1
 40
1
 10
160.476407
 20
172.111155
 30
0.0
 10
163.272371
 20
177.627561
 30
0.0
 10
163.301872
 20
185.265990
 30
0.0
 10
160.556332
 20
192.857796
 30
0.0
  0
SPLINE
  5
182
100
AcDbEntity
  8
Layer_1
 62
7
100
AcDbSpline
 70
8
 71
3
 72
8
 73
4
 74
0
 40
0
 40
0
 40
0
 40
0
 40
1
 40
1
 40
1
 40
1
 10
160.556332
 20
192.857796
 30
0.0
 10
159.306105
 20
196.314857
 30
0.0
 10
159.214425
 20
196.538772
 30
0.0
 10
158.617158
 20
197.605965
 30
0.0
  0
SPLINE
  5
183
100
AcDbEntity
  8
Layer_1
 62
7
100
AcDbSpline
 70
8
 71
3
 72
8
 73
4
 74
0
 40
0
 40
0
 40
0
 40
0
 40
1
 40
1
 40
1
 40
1
 10
158.617158
 20
197.605965
 30
0.0
 10
157.964426
 20
198.772268
 30
0.0
 10
157.941002
 20
198.945016
 30
0.0
 10
158.371867
 20
199.421116
 30
0.0
  0
SPLINE
  5
184
100
AcDbEntity
  8
Layer_1
 62
7
100
AcDbSpline
 70
8
 71
3
 72
8
 73
4
 74
0
 40
0
 40
0
 40
0
 40
0
 40
1
 40
1
 40
1
 40
1
 10
158.371867
 20
199.421116
 30
0.0
 10
158.773032
 20
199.864380
 30
0.0
 10
159.253784
 20
199.870414
 30
0.0
 10
159.641314
 20
199.436548
 30
0.0
  0
SPLINE
  5
185
100
AcDbEntity
  8
Layer_1
 62
7
100
AcDbSpline
 70
8
 71
3
 72
8
 73
4
 74
0
 40
0
 40
0
 40
0
 40
0
 40
1
 40
1
 40
1
 40
1
 10
159.641314
 20
199.436548
 30
0.0
 10
159.923302
 20
199.120846
 30
0.0
 10
161.558348
 20
195.490658
 30
0.0
 10
162.088711
 20
194.002670
 30
0.0
  0
SPLINE
  5
186
100
AcDbEntity
  8
Layer_1
 62
7
100
AcDbSpline
 70
8
 71
3
 72
8
 73
4
 74
0
 40
0
 40
0
 40
0
 40
0
 40
1
 40
1
 40
1
 40
1
 10
162.088711
 20
194.002670
 30
0.0
 10
163.807738
 20
189.179797
 30
0.0
 10
164.307540
 20
186.407627
 30
0.0
 10
164.292469
 20
181.788290
 30
0.0
  0
SPLINE
  5
187
100
AcDbEntity
  8
Layer_1
 62
7
100
AcDbSpline
 70
8
 71
3
 72
8
 73
4
 74
0
 40
0
 40
0
 40
0
 40
0
 40
1
 40
1
 40
1
 40
1
 10
164.292469
 20
181.788290
 30
0.0
 10
164.276524
 20
176.901214
 30
0.0
 10
163.911396
 20
175.280733
 30
0.0
 10
161.800424
 20
170.728706
 30
0.0
  0
SPLINE
  5
188
100
AcDbEntity
  8
Layer_1
 62
7
100
AcDbSpline
 70
8
 71
3
 72
8
 73
4
 74
0
 40
0
 40
0
 40
0
 40
0
 40
1
 40
1
 40
1
 40
1
 10
161.800424
 20
170.728706
 30
0.0
 10
160.584464
 20
168.106650
 30
0.0
 10
160.296341
 20
166.812529
 30
0.0
 10
160.407505
 20
164.478477
 30
0.0
  0
SPLINE
  5
189
100
AcDbEntity
  8
Layer_1
 62
7
100
AcDbSpline
 70
8
 71
3
 72
8
 73
4
 74
0
 40
0
 40
0
 40
0
 40
0
 40
1
 40
1
 40
1
 40
1
 10
160.407505
 20
164.478477
 30
0.0
 10
160.473161
 20
163.099864
 30
0.0
 10
160.641371
 20
162.136033
 30
0.0
 10
161.000062
 20
161.081888
 30
0.0
  0
SPLINE
  5
18a
100
AcDbEntity
  8
Layer_1
 62
7
100
AcDbSpline
 70
8
 71
3
 72
8
 73
4
 74
0
 40
0
 40
0
 40
0
 40
0
 40
1
 40
1
 40
1
 40
1
 10
161.000062
 20
161.081888
 30
0.0
 10
161.593349
 20
159.338285
 30
0.0
 10
162.672164
 20
156.877203
 30
0.0
 10
162.840018
 20
156.884936
 30
0.0
  0
SPLINE
  5
18b
100
AcDbEntity
  8
Layer_1
 62
7
100
AcDbSpline
 70
8
 71
3
 72
8
 73
4
 74
0
 40
0
 40
0
 40
0
 40
0
 40
1
 40
1
 40
1
 40
1
 10
162.840018
 20
156.884936
 30
0.0
 10
163.214064
 20
156.902151
 30
0.0
 10
166.232896
 20
162.541047
 30
0.0
 10
166.904678
 20
164.477374
 30
0.0
  0
SPLINE
  5
18c
100
AcDbEntity
  8
Layer_1
 62
7
100
AcDbSpline
 70
8
 71
3
 72
8
 73
4
 74
0
 40
0
 40
0
 40
0
 40
0
 40
1
 40
1
 40
1
 40
1
 10
166.904678
 20
164.477374
 30
0.0
 10
169.453478
 20
171.823971
 30
0.0
 10
170.126804
 20
175.790376
 30
0.0
 10
169.920378
 20
182.246350
 30
0.0
  0
SPLINE
  5
18d
100
AcDbEntity
  8
Layer_1
 62
7
100
AcDbSpline
 70
8
 71
3
 72
8
 73
4
 74
0
 40
0
 40
0
 40
0
 40
0
 40
1
 40
1
 40
1
 40
1
 10
169.920378
 20
182.246350
 30
0.0
 10
169.757321
 20
187.345908
 30
0.0
 10
169.084899
 20
191.283541
 30
0.0
 10
167.486211
 20
196.502981
 30
0.0
  0
SPLINE
  5
18e
100
AcDbEntity
  8
Layer_1
 62
7
100
AcDbSpline
 70
8
 71
3
 72
8
 73
4
 74
0
 40
0
 40
0
 40
0
 40
0
 40
1
 40
1
 40
1
 40
1
 10
167.486211
 20
196.502981
 30
0.0
 10
167.081169
 20
197.825373
 30
0.0
 10
166.690686
 20
199.165324
 30
0.0
 10
166.618598
 20
199.480645
 30
0.0
  0
SPLINE
  5
18f
100
AcDbEntity
  8
Layer_1
 62
7
100
AcDbSpline
 70
8
 71
3
 72
8
 73
4
 74
0
 40
0
 40
0
 40
0
 40
0
 40
1
 40
1
 40
1
 40
1
 10
166.618598
 20
199.480645
 30
0.0
 10
166.392846
 20
200.468116
 30
0.0
 10
164.040044
 20
205.897239
 30
0.0
 10
162.532438
 20
208.909735
 30
0.0
  0
SPLINE
  5
190
100
AcDbEntity
  8
Layer_1
 62
7
100
AcDbSpline
 70
8
 71
3
 72
8
 73
4
 74
0
 40
0
 40
0
 40
0
 40
0
 40
1
 40
1
 40
1
 40
1
 10
162.532438
 20
208.909735
 30
0.0
 10
161.176891
 20
211.618394
 30
0.0
 10
159.267014
 20
214.825023
 30
0.0
 10
158.752204
 20
215.256981
 30
0.0
  0
SPLINE
  5
191
100
AcDbEntity
  8
Layer_1
 62
7
100
AcDbSpline
 70
8
 71
3
 72
8
 73
4
 74
0
 40
0
 40
0
 40
0
 40
0
 40
1
 40
1
 40
1
 40
1
 10
158.752204
 20
215.256981
 30
0.0
 10
158.626119
 20
215.362769
 30
0.0
 10
157.822465
 20
216.358200
 30
0.0
 10
156.966268
 20
217.469007
 30
0.0
  0
SPLINE
  5
192
100
AcDbEntity
  8
Layer_1
 62
7
100
AcDbSpline
 70
8
 71
3
 72
8
 73
4
 74
0
 40
0
 40
0
 40
0
 40
0
 40
1
 40
1
 40
1
 40
1
 10
156.966268
 20
217.469007
 30
0.0
 10
153.634849
 20
221.791111
 30
0.0
 10
148.960829
 20
226.466322
 30
0.0
 10
144.589280
 20
229.848750
 30
0.0
  0
SPLINE
  5
193
100
AcDbEntity
  8
Layer_1
 62
7
100
AcDbSpline
 70
8
 71
3
 72
8
 73
4
 74
0
 40
0
 40
0
 40
0
 40
0
 40
1
 40
1
 40
1
 40
1
 10
144.589280
 20
229.848750
 30
0.0
 10
143.478473
 20
230.708224
 30
0.0
 10
142.368781
 20
231.584908
 30
0.0
 10
142.123143
 20
231.797297
 30
0.0
  0
SPLINE
  5
194
100
AcDbEntity
  8
Layer_1
 62
7
100
AcDbSpline
 70
8
 71
3
 72
8
 73
4
 74
0
 40
0
 40
0
 40
0
 40
0
 40
1
 40
1
 40
1
 40
1
 10
142.123143
 20
231.797297
 30
0.0
 10
141.199379
 20
232.596031
 30
0.0
 10
136.704279
 20
235.233536
 30
0.0
 10
134.202729
 20
236.444591
 30
0.0
  0
SPLINE
  5
195
100
AcDbEntity
  8
Layer_1
 62
7
100
AcDbSpline
 70
8
 71
3
 72
8
 73
4
 74
0
 40
0
 40
0
 40
0
 40
0
 40
1
 40
1
 40
1
 40
1
 10
134.202729
 20
236.444591
 30
0.0
 10
131.429763
 20
237.787043
 30
0.0
 10
127.107651
 20
239.589275
 30
0.0
 10
126.660453
 20
239.589275
 30
0.0
  0
SPLINE
  5
196
100
AcDbEntity
  8
Layer_1
 62
7
100
AcDbSpline
 70
8
 71
3
 72
8
 73
4
 74
0
 40
0
 40
0
 40
0
 40
0
 40
1
 40
1
 40
1
 40
1
 10
126.660453
 20
239.589275
 30
0.0
 10
126.511575
 20
239.589275
 30
0.0
 10
125.226547
 20
239.886610
 30
0.0
 10
123.804604
 20
240.250183
 30
0.0
  0
SPLINE
  5
197
100
AcDbEntity
  8
Layer_1
 62
7
100
AcDbSpline
 70
8
 71
3
 72
8
 73
4
 74
0
 40
0
 40
0
 40
0
 40
0
 40
1
 40
1
 40
1
 40
1
 10
123.804604
 20
240.250183
 30
0.0
 10
119.208223
 20
241.425427
 30
0.0
 10
117.583032
 20
241.609706
 30
0.0
 10
111.890088
 20
241.601211
 30
0.0
  0
LWPOLYLINE
  5
198
100
AcDbEntity
  8
Layer_1
 62
7
100
AcDbPolyline
 90
5
 70
0
 10
167.829619
 20
132.643591
 30
0.0
 10
169.019141
 20
136.202235
 30
0.0
 10
169.018591
 20
140.511636
 30
0.0
 10
169.017487
 20
144.821590
 30
0.0
 10
168.495486
 20
145.512814
 30
0.0
  0
LWPOLYLINE
  5
199
100
AcDbEntity
  8
Layer_1
 62
7
100
AcDbPolyline
 90
2
 70
0
 10
111.890088
 20
241.601211
 30
0.0
 10
111.890088
 20
241.601211
 30
0.0
  0
LWPOLYLINE
  5
19a
100
AcDbEntity
  8
Layer_1
 62
7
100
AcDbPolyline
 90
26
 70
0
 10
101.888284
 20
228.240303
 30
0.0
 10
111.120592
 20
228.240303
 30
0.0
 10
120.353447
 20
228.240303
 30
0.0
 10
120.353447
 20
224.778120
 30
0.0
 10
120.353447
 20
221.315936
 30
0.0
 10
114.679236
 20
221.315936
 30
0.0
 10
109.005026
 20
221.315936
 30
0.0
 10
109.005026
 20
214.151242
 30
0.0
 10
109.004475
 20
206.985993
 30
0.0
 10
113.861785
 20
206.985993
 30
0.0
 10
118.718542
 20
206.985993
 30
0.0
 10
118.770908
 20
203.475854
 30
0.0
 10
118.823272
 20
199.965165
 30
0.0
 10
113.914149
 20
199.965165
 30
0.0
 10
109.005026
 20
199.965165
 30
0.0
 10
109.005026
 20
192.752513
 30
0.0
 10
109.005026
 20
185.539311
 30
0.0
 10
114.679236
 20
185.539311
 30
0.0
 10
120.353447
 20
185.539311
 30
0.0
 10
120.353447
 20
182.077127
 30
0.0
 10
120.353447
 20
178.614943
 30
0.0
 10
111.120592
 20
178.614943
 30
0.0
 10
101.888284
 20
178.614943
 30
0.0
 10
101.888284
 20
203.427899
 30
0.0
 10
101.888284
 20
228.240303
 30
0.0
 10
101.888284
 20
228.240303
 30
0.0
  0
SPLINE
  5
19b
100
AcDbEntity
  8
Layer_1
 62
7
100
AcDbSpline
 70
8
 71
3
 72
8
 73
4
 74
0
 40
0
 40
0
 40
0
 40
0
 40
1
 40
1
 40
1
 40
1
 10
131.557999
 20
228.229830
 30
0.0
 10
137.993772
 20
228.210837
 30
0.0
 10
141.827885
 20
227.960291
 30
0.0
 10
143.105409
 20
227.475769
 30
0.0
  0
SPLINE
  5
19c
100
AcDbEntity
  8
Layer_1
 62
7
100
AcDbSpline
 70
8
 71
3
 72
8
 73
4
 74
0
 40
0
 40
0
 40
0
 40
0
 40
1
 40
1
 40
1
 40
1
 10
143.105409
 20
227.475769
 30
0.0
 10
145.596364
 20
226.531036
 30
0.0
 10
147.783700
 20
223.562168
 30
0.0
 10
148.031618
 20
220.789527
 30
0.0
  0
SPLINE
  5
19d
100
AcDbEntity
  8
Layer_1
 62
7
100
AcDbSpline
 70
8
 71
3
 72
8
 73
4
 74
0
 40
0
 40
0
 40
0
 40
0
 40
1
 40
1
 40
1
 40
1
 10
148.031618
 20
220.789527
 30
0.0
 10
148.164711
 20
219.301044
 30
0.0
 10
148.190300
 20
209.492219
 30
0.0
 10
148.064141
 20
208.332613
 30
0.0
  0
SPLINE
  5
19e
100
AcDbEntity
  8
Layer_1
 62
7
100
AcDbSpline
 70
8
 71
3
 72
8
 73
4
 74
0
 40
0
 40
0
 40
0
 40
0
 40
1
 40
1
 40
1
 40
1
 10
148.064141
 20
208.332613
 30
0.0
 10
148.018105
 20
207.909449
 30
0.0
 10
147.832753
 20
207.210007
 30
0.0
 10
147.652382
 20
206.778737
 30
0.0
  0
SPLINE
  5
19f
100
AcDbEntity
  8
Layer_1
 62
7
100
AcDbSpline
 70
8
 71
3
 72
8
 73
4
 74
0
 40
0
 40
0
 40
0
 40
0
 40
1
 40
1
 40
1
 40
1
 10
147.652382
 20
206.778737
 30
0.0
 10
147.314598
 20
205.971091
 30
0.0
 10
145.860290
 20
204.410447
 30
0.0
 10
144.926073
 20
203.852886
 30
0.0
  0
SPLINE
  5
1a0
100
AcDbEntity
  8
Layer_1
 62
7
100
AcDbSpline
 70
8
 71
3
 72
8
 73
4
 74
0
 40
0
 40
0
 40
0
 40
0
 40
1
 40
1
 40
1
 40
1
 10
144.926073
 20
203.852886
 30
0.0
 10
144.635147
 20
203.679257
 30
0.0
 10
144.399567
 20
203.491049
 30
0.0
 10
144.402418
 20
203.434514
 30
0.0
  0
SPLINE
  5
1a1
100
AcDbEntity
  8
Layer_1
 62
7
100
AcDbSpline
 70
8
 71
3
 72
8
 73
4
 74
0
 40
0
 40
0
 40
0
 40
0
 40
1
 40
1
 40
1
 40
1
 10
144.402418
 20
203.434514
 30
0.0
 10
144.405268
 20
203.377979
 30
0.0
 10
144.761667
 20
203.115256
 30
0.0
 10
145.194514
 20
202.850777
 30
0.0
  0
SPLINE
  5
1a2
100
AcDbEntity
  8
Layer_1
 62
7
100
AcDbSpline
 70
8
 71
3
 72
8
 73
4
 74
0
 40
0
 40
0
 40
0
 40
0
 40
1
 40
1
 40
1
 40
1
 10
145.194514
 20
202.850777
 30
0.0
 10
146.165861
 20
202.257261
 30
0.0
 10
147.135607
 20
201.102283
 30
0.0
 10
147.711363
 20
199.853819
 30
0.0
  0
SPLINE
  5
1a3
100
AcDbEntity
  8
Layer_1
 62
7
100
AcDbSpline
 70
8
 71
3
 72
8
 73
4
 74
0
 40
0
 40
0
 40
0
 40
0
 40
1
 40
1
 40
1
 40
1
 10
147.711363
 20
199.853819
 30
0.0
 10
148.138078
 20
198.928548
 30
0.0
 10
148.147682
 20
198.761478
 30
0.0
 10
148.146270
 20
192.367765
 30
0.0
  0
SPLINE
  5
1a4
100
AcDbEntity
  8
Layer_1
 62
7
100
AcDbSpline
 70
8
 71
3
 72
8
 73
4
 74
0
 40
0
 40
0
 40
0
 40
0
 40
1
 40
1
 40
1
 40
1
 10
148.146270
 20
192.367765
 30
0.0
 10
148.144577
 20
184.994331
 30
0.0
 10
148.057670
 20
184.385279
 30
0.0
 10
146.708701
 20
182.298164
 30
0.0
  0
SPLINE
  5
1a5
100
AcDbEntity
  8
Layer_1
 62
7
100
AcDbSpline
 70
8
 71
3
 72
8
 73
4
 74
0
 40
0
 40
0
 40
0
 40
0
 40
1
 40
1
 40
1
 40
1
 10
146.708701
 20
182.298164
 30
0.0
 10
145.545262
 20
180.498099
 30
0.0
 10
143.993105
 20
179.455060
 30
0.0
 10
141.659570
 20
178.904882
 30
0.0
  0
SPLINE
  5
1a6
100
AcDbEntity
  8
Layer_1
 62
7
100
AcDbSpline
 70
8
 71
3
 72
8
 73
4
 74
0
 40
0
 40
0
 40
0
 40
0
 40
1
 40
1
 40
1
 40
1
 10
141.659570
 20
178.904882
 30
0.0
 10
140.725838
 20
178.684734
 30
0.0
 10
139.032025
 20
178.619958
 30
0.0
 10
134.154223
 20
178.617701
 30
0.0
  0
LWPOLYLINE
  5
1a7
100
AcDbEntity
  8
Layer_1
 62
7
100
AcDbPolyline
 90
2
 70
0
 10
127.854936
 20
228.240303
 30
0.0
 10
131.557999
 20
228.229830
 30
0.0
  0
LWPOLYLINE
  5
1a8
100
AcDbEntity
  8
Layer_1
 62
7
100
AcDbPolyline
 90
5
 70
0
 10
134.154223
 20
178.617701
 30
0.0
 10
127.854936
 20
178.614943
 30
0.0
 10
127.854936
 20
203.427899
 30
0.0
 10
127.854936
 20
228.240303
 30
0.0
 10
127.854936
 20
228.240303
 30
0.0
  0
SPLINE
  5
1a9
100
AcDbEntity
  8
Layer_1
 62
7
100
AcDbSpline
 70
8
 71
3
 72
8
 73
4
 74
0
 40
0
 40
0
 40
0
 40
0
 40
1
 40
1
 40
1
 40
1
 10
84.808328
 20
207.025682
 30
0.0
 10
86.924126
 20
207.068627
 30
0.0
 10
87.307256
 20
207.217508
 30
0.0
 10
88.123339
 20
208.310563
 30
0.0
  0
SPLINE
  5
1aa
100
AcDbEntity
  8
Layer_1
 62
7
100
AcDbSpline
 70
8
 71
3
 72
8
 73
4
 74
0
 40
0
 40
0
 40
0
 40
0
 40
1
 40
1
 40
1
 40
1
 10
88.123339
 20
208.310563
 30
0.0
 10
88.501265
 20
208.816760
 30
0.0
 10
88.519660
 20
209.088805
 30
0.0
 10
88.519660
 20
214.102734
 30
0.0
  0
SPLINE
  5
1ab
100
AcDbEntity
  8
Layer_1
 62
7
100
AcDbSpline
 70
8
 71
3
 72
8
 73
4
 74
0
 40
0
 40
0
 40
0
 40
0
 40
1
 40
1
 40
1
 40
1
 10
88.519660
 20
214.102734
 30
0.0
 10
88.519660
 20
219.116666
 30
0.0
 10
88.501260
 20
219.389259
 30
0.0
 10
88.123339
 20
219.895455
 30
0.0
  0
SPLINE
  5
1ac
100
AcDbEntity
  8
Layer_1
 62
7
100
AcDbSpline
 70
8
 71
3
 72
8
 73
4
 74
0
 40
0
 40
0
 40
0
 40
0
 40
1
 40
1
 40
1
 40
1
 10
88.123339
 20
219.895455
 30
0.0
 10
87.282649
 20
221.021468
 30
0.0
 10
86.814629
 20
221.214895
 30
0.0
 10
84.755411
 20
221.286173
 30
0.0
  0
LWPOLYLINE
  5
1ad
100
AcDbEntity
  8
Layer_1
 62
7
100
AcDbPolyline
 90
4
 70
0
 10
82.845453
 20
221.351767
 30
0.0
 10
82.845453
 20
214.168881
 30
0.0
 10
82.845453
 20
206.985993
 30
0.0
 10
84.808328
 20
207.025682
 30
0.0
  0
LWPOLYLINE
  5
1ae
100
AcDbEntity
  8
Layer_1
 62
7
100
AcDbPolyline
 90
3
 70
0
 10
84.755411
 20
221.286173
 30
0.0
 10
82.845453
 20
221.351767
 30
0.0
 10
82.845453
 20
221.351767
 30
0.0
  0
SPLINE
  5
1af
100
AcDbEntity
  8
Layer_1
 62
7
100
AcDbSpline
 70
8
 71
3
 72
8
 73
4
 74
0
 40
0
 40
0
 40
0
 40
0
 40
1
 40
1
 40
1
 40
1
 10
136.980303
 20
207.016862
 30
0.0
 10
139.517357
 20
207.052078
 30
0.0
 10
140.159636
 20
207.298898
 30
0.0
 10
140.760537
 20
208.469313
 30
0.0
  0
SPLINE
  5
1b0
100
AcDbEntity
  8
Layer_1
 62
7
100
AcDbSpline
 70
8
 71
3
 72
8
 73
4
 74
0
 40
0
 40
0
 40
0
 40
0
 40
1
 40
1
 40
1
 40
1
 10
140.760537
 20
208.469313
 30
0.0
 10
141.092925
 20
209.116722
 30
0.0
 10
141.127096
 20
209.643321
 30
0.0
 10
141.127096
 20
214.146281
 30
0.0
  0
SPLINE
  5
1b1
100
AcDbEntity
  8
Layer_1
 62
7
100
AcDbSpline
 70
8
 71
3
 72
8
 73
4
 74
0
 40
0
 40
0
 40
0
 40
0
 40
1
 40
1
 40
1
 40
1
 10
141.127096
 20
214.146281
 30
0.0
 10
141.127096
 20
219.863217
 30
0.0
 10
141.068067
 20
220.120956
 30
0.0
 10
139.581489
 20
220.883233
 30
0.0
  0
SPLINE
  5
1b2
100
AcDbEntity
  8
Layer_1
 62
7
100
AcDbSpline
 70
8
 71
3
 72
8
 73
4
 74
0
 40
0
 40
0
 40
0
 40
0
 40
1
 40
1
 40
1
 40
1
 10
139.581489
 20
220.883233
 30
0.0
 10
138.867574
 20
221.249309
 30
0.0
 10
138.432599
 20
221.315936
 30
0.0
 10
136.758714
 20
221.315936
 30
0.0
  0
LWPOLYLINE
  5
1b3
100
AcDbEntity
  8
Layer_1
 62
7
100
AcDbPolyline
 90
4
 70
0
 10
134.779853
 20
221.315936
 30
0.0
 10
134.779300
 20
214.151242
 30
0.0
 10
134.779300
 20
206.985993
 30
0.0
 10
136.980303
 20
207.016862
 30
0.0
  0
LWPOLYLINE
  5
1b4
100
AcDbEntity
  8
Layer_1
 62
7
100
AcDbPolyline
 90
3
 70
0
 10
136.758714
 20
221.315936
 30
0.0
 10
134.779853
 20
221.315936
 30
0.0
 10
134.779853
 20
221.315936
 30
0.0
  0
SPLINE
  5
1b5
100
AcDbEntity
  8
Layer_1
 62
7
100
AcDbSpline
 70
8
 71
3
 72
8
 73
4
 74
0
 40
0
 40
0
 40
0
 40
0
 40
1
 40
1
 40
1
 40
1
 10
136.943372
 20
185.588369
 30
0.0
 10
141.133655
 20
185.776888
 30
0.0
 10
141.127096
 20
185.765179
 30
0.0
 10
141.127096
 20
192.673688
 30
0.0
  0
SPLINE
  5
1b6
100
AcDbEntity
  8
Layer_1
 62
7
100
AcDbSpline
 70
8
 71
3
 72
8
 73
4
 74
0
 40
0
 40
0
 40
0
 40
0
 40
1
 40
1
 40
1
 40
1
 10
141.127096
 20
192.673688
 30
0.0
 10
141.127096
 20
197.413317
 30
0.0
 10
141.103756
 20
197.745433
 30
0.0
 10
140.732425
 20
198.346245
 30
0.0
  0
SPLINE
  5
1b7
100
AcDbEntity
  8
Layer_1
 62
7
100
AcDbSpline
 70
8
 71
3
 72
8
 73
4
 74
0
 40
0
 40
0
 40
0
 40
0
 40
1
 40
1
 40
1
 40
1
 10
140.732425
 20
198.346245
 30
0.0
 10
140.024874
 20
199.491091
 30
0.0
 10
139.249460
 20
199.807758
 30
0.0
 10
136.882186
 20
199.919964
 30
0.0
  0
LWPOLYLINE
  5
1b8
100
AcDbEntity
  8
Layer_1
 62
7
100
AcDbPolyline
 90
4
 70
0
 10
134.779853
 20
200.019735
 30
0.0
 10
134.779853
 20
192.755270
 30
0.0
 10
134.779853
 20
185.490802
 30
0.0
 10
136.943372
 20
185.588369
 30
0.0
  0
SPLINE
  5
1b9
100
AcDbEntity
  8
Layer_1
 62
7
100
AcDbSpline
 70
8
 71
3
 72
8
 73
4
 74
0
 40
0
 40
0
 40
0
 40
0
 40
1
 40
1
 40
1
 40
1
 10
85.960368
 20
175.561762
 30
0.0
 10
89.489988
 20
175.574292
 30
0.0
 10
91.447527
 20
174.927476
 30
0.0
 10
93.432644
 20
173.092868
 30
0.0
  0
SPLINE
  5
1ba
100
AcDbEntity
  8
Layer_1
 62
7
100
AcDbSpline
 70
8
 71
3
 72
8
 73
4
 74
0
 40
0
 40
0
 40
0
 40
0
 40
1
 40
1
 40
1
 40
1
 10
93.432644
 20
173.092868
 30
0.0
 10
94.889788
 20
171.746199
 30
0.0
 10
95.617532
 20
170.318180
 30
0.0
 10
96.002410
 20
168.049799
 30
0.0
  0
SPLINE
  5
1bb
100
AcDbEntity
  8
Layer_1
 62
7
100
AcDbSpline
 70
8
 71
3
 72
8
 73
4
 74
0
 40
0
 40
0
 40
0
 40
0
 40
1
 40
1
 40
1
 40
1
 10
96.002410
 20
168.049799
 30
0.0
 10
96.251722
 20
166.580421
 30
0.0
 10
96.309987
 20
164.656989
 30
0.0
 10
96.309987
 20
157.903580
 30
0.0
  0
SPLINE
  5
1bc
100
AcDbEntity
  8
Layer_1
 62
7
100
AcDbSpline
 70
8
 71
3
 72
8
 73
4
 74
0
 40
0
 40
0
 40
0
 40
0
 40
1
 40
1
 40
1
 40
1
 10
96.309987
 20
157.903580
 30
0.0
 10
96.309987
 20
153.320300
 30
0.0
 10
96.272471
 20
149.570309
 30
0.0
 10
96.226754
 20
149.570309
 30
0.0
  0
SPLINE
  5
1bd
100
AcDbEntity
  8
Layer_1
 62
7
100
AcDbSpline
 70
8
 71
3
 72
8
 73
4
 74
0
 40
0
 40
0
 40
0
 40
0
 40
1
 40
1
 40
1
 40
1
 10
96.226754
 20
149.570309
 30
0.0
 10
96.181040
 20
149.570309
 30
0.0
 10
95.372600
 20
149.959126
 30
0.0
 10
94.429792
 20
150.434614
 30
0.0
  0
SPLINE
  5
1be
100
AcDbEntity
  8
Layer_1
 62
7
100
AcDbSpline
 70
8
 71
3
 72
8
 73
4
 74
0
 40
0
 40
0
 40
0
 40
0
 40
1
 40
1
 40
1
 40
1
 10
94.429792
 20
150.434614
 30
0.0
 10
93.420043
 20
150.943862
 30
0.0
 10
91.991764
 20
151.468191
 30
0.0
 10
90.954380
 20
151.710126
 30
0.0
  0
LWPOLYLINE
  5
1bf
100
AcDbEntity
  8
Layer_1
 62
7
100
AcDbPolyline
 90
3
 70
0
 10
136.882186
 20
199.919964
 30
0.0
 10
134.779853
 20
200.019735
 30
0.0
 10
134.779853
 20
200.019735
 30
0.0
  0
SPLINE
  5
1c0
100
AcDbEntity
  8
Layer_1
 62
7
100
AcDbSpline
 70
8
 71
3
 72
8
 73
4
 74
0
 40
0
 40
0
 40
0
 40
0
 40
1
 40
1
 40
1
 40
1
 10
89.193246
 20
159.263428
 30
0.0
 10
89.193246
 20
167.421028
 30
0.0
 10
89.199793
 20
167.383981
 30
0.0
 10
87.647639
 20
168.179887
 30
0.0
  0
SPLINE
  5
1c1
100
AcDbEntity
  8
Layer_1
 62
7
100
AcDbSpline
 70
8
 71
3
 72
8
 73
4
 74
0
 40
0
 40
0
 40
0
 40
0
 40
1
 40
1
 40
1
 40
1
 10
87.647639
 20
168.179887
 30
0.0
 10
85.923501
 20
169.063979
 30
0.0
 10
83.891332
 20
168.476065
 30
0.0
 10
83.161849
 20
166.881775
 30
0.0
  0
SPLINE
  5
1c2
100
AcDbEntity
  8
Layer_1
 62
7
100
AcDbSpline
 70
8
 71
3
 72
8
 73
4
 74
0
 40
0
 40
0
 40
0
 40
0
 40
1
 40
1
 40
1
 40
1
 10
83.161849
 20
166.881775
 30
0.0
 10
83.014747
 20
166.560284
 30
0.0
 10
82.909746
 20
163.957580
 30
0.0
 10
82.845453
 20
159.029161
 30
0.0
  0
LWPOLYLINE
  5
1c3
100
AcDbEntity
  8
Layer_1
 62
7
100
AcDbPolyline
 90
3
 70
0
 10
90.954380
 20
151.710126
 30
0.0
 10
89.193246
 20
152.120782
 30
0.0
 10
89.193246
 20
159.263428
 30
0.0
  0
SPLINE
  5
1c4
100
AcDbEntity
  8
Layer_1
 62
7
100
AcDbSpline
 70
8
 71
3
 72
8
 73
4
 74
0
 40
0
 40
0
 40
0
 40
0
 40
1
 40
1
 40
1
 40
1
 10
81.378668
 20
151.124185
 30
0.0
 10
79.753957
 20
150.492199
 30
0.0
 10
77.142001
 20
149.113814
 30
0.0
 10
76.581993
 20
148.593004
 30
0.0
  0
SPLINE
  5
1c5
100
AcDbEntity
  8
Layer_1
 62
7
100
AcDbSpline
 70
8
 71
3
 72
8
 73
4
 74
0
 40
0
 40
0
 40
0
 40
0
 40
1
 40
1
 40
1
 40
1
 10
76.581993
 20
148.593004
 30
0.0
 10
76.363590
 20
148.389894
 30
0.0
 10
76.121220
 20
148.223688
 30
0.0
 10
76.043454
 20
148.223688
 30
0.0
  0
SPLINE
  5
1c6
100
AcDbEntity
  8
Layer_1
 62
7
100
AcDbSpline
 70
8
 71
3
 72
8
 73
4
 74
0
 40
0
 40
0
 40
0
 40
0
 40
1
 40
1
 40
1
 40
1
 10
76.043454
 20
148.223688
 30
0.0
 10
75.871332
 20
148.223688
 30
0.0
 10
75.992948
 20
168.053367
 30
0.0
 10
76.170784
 20
168.986314
 30
0.0
  0
SPLINE
  5
1c7
100
AcDbEntity
  8
Layer_1
 62
7
100
AcDbSpline
 70
8
 71
3
 72
8
 73
4
 74
0
 40
0
 40
0
 40
0
 40
0
 40
1
 40
1
 40
1
 40
1
 10
76.170784
 20
168.986314
 30
0.0
 10
76.356873
 20
169.962543
 30
0.0
 10
77.157284
 20
171.475486
 30
0.0
 10
78.007986
 20
172.459522
 30
0.0
  0
SPLINE
  5
1c8
100
AcDbEntity
  8
Layer_1
 62
7
100
AcDbSpline
 70
8
 71
3
 72
8
 73
4
 74
0
 40
0
 40
0
 40
0
 40
0
 40
1
 40
1
 40
1
 40
1
 10
78.007986
 20
172.459522
 30
0.0
 10
79.861740
 20
174.603823
 30
0.0
 10
82.283673
 20
175.548695
 30
0.0
 10
85.960368
 20
175.561762
 30
0.0
  0
LWPOLYLINE
  5
1c9
100
AcDbEntity
  8
Layer_1
 62
7
100
AcDbPolyline
 90
3
 70
0
 10
82.845453
 20
159.029161
 30
0.0
 10
82.749540
 20
151.657209
 30
0.0
 10
81.378668
 20
151.124185
 30
0.0
  0
LWPOLYLINE
  5
1ca
100
AcDbEntity
  8
Layer_1
 62
7
100
AcDbPolyline
 90
2
 70
0
 10
85.960368
 20
175.561762
 30
0.0
 10
85.960368
 20
175.561762
 30
0.0
  0
SPLINE
  5
1cb
100
AcDbEntity
  8
Layer_1
 62
7
100
AcDbSpline
 70
8
 71
3
 72
8
 73
4
 74
0
 40
0
 40
0
 40
0
 40
0
 40
1
 40
1
 40
1
 40
1
 10
107.841409
 20
174.768012
 30
0.0
 10
114.219905
 20
174.768012
 30
0.0
 10
115.074810
 20
174.677989
 30
0.0
 10
117.007569
 20
173.807243
 30
0.0
  0
SPLINE
  5
1cc
100
AcDbEntity
  8
Layer_1
 62
7
100
AcDbSpline
 70
8
 71
3
 72
8
 73
4
 74
0
 40
0
 40
0
 40
0
 40
0
 40
1
 40
1
 40
1
 40
1
 10
117.007569
 20
173.807243
 30
0.0
 10
119.022046
 20
172.899678
 30
0.0
 10
120.225803
 20
171.538518
 30
0.0
 10
121.110815
 20
169.167114
 30
0.0
  0
SPLINE
  5
1cd
100
AcDbEntity
  8
Layer_1
 62
7
100
AcDbSpline
 70
8
 71
3
 72
8
 73
4
 74
0
 40
0
 40
0
 40
0
 40
0
 40
1
 40
1
 40
1
 40
1
 10
121.110815
 20
169.167114
 30
0.0
 10
121.725501
 20
167.520054
 30
0.0
 10
121.884708
 20
165.766542
 30
0.0
 10
121.885273
 20
160.630442
 30
0.0
  0
SPLINE
  5
1ce
100
AcDbEntity
  8
Layer_1
 62
7
100
AcDbSpline
 70
8
 71
3
 72
8
 73
4
 74
0
 40
0
 40
0
 40
0
 40
0
 40
1
 40
1
 40
1
 40
1
 10
121.885273
 20
160.630442
 30
0.0
 10
121.885837
 20
155.457543
 30
0.0
 10
121.708438
 20
153.975894
 30
0.0
 10
120.889779
 20
152.299375
 30
0.0
  0
SPLINE
  5
1cf
100
AcDbEntity
  8
Layer_1
 62
7
100
AcDbSpline
 70
8
 71
3
 72
8
 73
4
 74
0
 40
0
 40
0
 40
0
 40
0
 40
1
 40
1
 40
1
 40
1
 10
120.889779
 20
152.299375
 30
0.0
 10
120.280724
 20
151.052100
 30
0.0
 10
118.540527
 20
149.342547
 30
0.0
 10
117.310188
 20
148.783174
 30
0.0
  0
SPLINE
  5
1d0
100
AcDbEntity
  8
Layer_1
 62
7
100
AcDbSpline
 70
8
 71
3
 72
8
 73
4
 74
0
 40
0
 40
0
 40
0
 40
0
 40
1
 40
1
 40
1
 40
1
 10
117.310188
 20
148.783174
 30
0.0
 10
116.487792
 20
148.409272
 30
0.0
 10
116.308279
 20
148.245755
 30
0.0
 10
116.379735
 20
147.935404
 30
0.0
  0
SPLINE
  5
1d1
100
AcDbEntity
  8
Layer_1
 62
7
100
AcDbSpline
 70
8
 71
3
 72
8
 73
4
 74
0
 40
0
 40
0
 40
0
 40
0
 40
1
 40
1
 40
1
 40
1
 10
116.379735
 20
147.935404
 30
0.0
 10
116.656262
 20
146.734404
 30
0.0
 10
117.134894
 20
145.202316
 30
0.0
 10
117.537286
 20
144.232341
 30
0.0
  0
SPLINE
  5
1d2
100
AcDbEntity
  8
Layer_1
 62
7
100
AcDbSpline
 70
8
 71
3
 72
8
 73
4
 74
0
 40
0
 40
0
 40
0
 40
0
 40
1
 40
1
 40
1
 40
1
 10
117.537286
 20
144.232341
 30
0.0
 10
117.789647
 20
143.624022
 30
0.0
 10
118.104810
 20
142.780268
 30
0.0
 10
118.237330
 20
142.357104
 30
0.0
  0
SPLINE
  5
1d3
100
AcDbEntity
  8
Layer_1
 62
7
100
AcDbSpline
 70
8
 71
3
 72
8
 73
4
 74
0
 40
0
 40
0
 40
0
 40
0
 40
1
 40
1
 40
1
 40
1
 10
118.237330
 20
142.357104
 30
0.0
 10
118.369850
 20
141.933937
 30
0.0
 10
118.757895
 20
140.851931
 30
0.0
 10
119.099432
 20
139.952703
 30
0.0
  0
SPLINE
  5
1d4
100
AcDbEntity
  8
Layer_1
 62
7
100
AcDbSpline
 70
8
 71
3
 72
8
 73
4
 74
0
 40
0
 40
0
 40
0
 40
0
 40
1
 40
1
 40
1
 40
1
 10
119.099432
 20
139.952703
 30
0.0
 10
119.440971
 20
139.053478
 30
0.0
 10
119.785782
 20
138.144635
 30
0.0
 10
119.865620
 20
137.933050
 30
0.0
  0
SPLINE
  5
1d5
100
AcDbEntity
  8
Layer_1
 62
7
100
AcDbSpline
 70
8
 71
3
 72
8
 73
4
 74
0
 40
0
 40
0
 40
0
 40
0
 40
1
 40
1
 40
1
 40
1
 10
119.865620
 20
137.933050
 30
0.0
 10
119.974368
 20
137.644859
 30
0.0
 10
120.102644
 20
137.930228
 30
0.0
 10
120.377701
 20
139.071312
 30
0.0
  0
SPLINE
  5
1d6
100
AcDbEntity
  8
Layer_1
 62
7
100
AcDbSpline
 70
8
 71
3
 72
8
 73
4
 74
0
 40
0
 40
0
 40
0
 40
0
 40
1
 40
1
 40
1
 40
1
 10
120.377701
 20
139.071312
 30
0.0
 10
120.579642
 20
139.909007
 30
0.0
 10
120.815058
 20
140.688250
 30
0.0
 10
120.900802
 20
140.802677
 30
0.0
  0
SPLINE
  5
1d7
100
AcDbEntity
  8
Layer_1
 62
7
100
AcDbSpline
 70
8
 71
3
 72
8
 73
4
 74
0
 40
0
 40
0
 40
0
 40
0
 40
1
 40
1
 40
1
 40
1
 10
120.900802
 20
140.802677
 30
0.0
 10
120.986547
 20
140.917104
 30
0.0
 10
121.206201
 20
141.416214
 30
0.0
 10
121.389180
 20
141.911723
 30
0.0
  0
SPLINE
  5
1d8
100
AcDbEntity
  8
Layer_1
 62
7
100
AcDbSpline
 70
8
 71
3
 72
8
 73
4
 74
0
 40
0
 40
0
 40
0
 40
0
 40
1
 40
1
 40
1
 40
1
 10
121.389180
 20
141.911723
 30
0.0
 10
122.134193
 20
143.929214
 30
0.0
 10
124.167539
 20
146.565376
 30
0.0
 10
126.220031
 20
148.174632
 30
0.0
  0
LWPOLYLINE
  5
1d9
100
AcDbEntity
  8
Layer_1
 62
7
100
AcDbPolyline
 90
2
 70
0
 10
101.888284
 20
174.768012
 30
0.0
 10
107.841409
 20
174.768012
 30
0.0
  0
SPLINE
  5
1da
100
AcDbEntity
  8
Layer_1
 62
7
100
AcDbSpline
 70
8
 71
3
 72
8
 73
4
 74
0
 40
0
 40
0
 40
0
 40
0
 40
1
 40
1
 40
1
 40
1
 10
135.512968
 20
148.800813
 30
0.0
 10
135.863347
 20
147.372630
 30
0.0
 10
136.441736
 20
145.034935
 30
0.0
 10
136.798403
 20
143.605607
 30
0.0
  0
SPLINE
  5
1db
100
AcDbEntity
  8
Layer_1
 62
7
100
AcDbSpline
 70
8
 71
3
 72
8
 73
4
 74
0
 40
0
 40
0
 40
0
 40
0
 40
1
 40
1
 40
1
 40
1
 10
136.798403
 20
143.605607
 30
0.0
 10
137.155070
 20
142.176281
 30
0.0
 10
137.489624
 20
140.661357
 30
0.0
 10
137.541993
 20
140.239336
 30
0.0
  0
SPLINE
  5
1dc
100
AcDbEntity
  8
Layer_1
 62
7
100
AcDbSpline
 70
8
 71
3
 72
8
 73
4
 74
0
 40
0
 40
0
 40
0
 40
0
 40
1
 40
1
 40
1
 40
1
 10
137.541993
 20
140.239336
 30
0.0
 10
137.594363
 20
139.817315
 30
0.0
 10
138.328315
 20
136.658930
 30
0.0
 10
139.173037
 20
133.220713
 30
0.0
  0
SPLINE
  5
1dd
100
AcDbEntity
  8
Layer_1
 62
7
100
AcDbSpline
 70
8
 71
3
 72
8
 73
4
 74
0
 40
0
 40
0
 40
0
 40
0
 40
1
 40
1
 40
1
 40
1
 10
139.173037
 20
133.220713
 30
0.0
 10
140.836625
 20
126.449538
 30
0.0
 10
141.036404
 20
125.555388
 30
0.0
 10
140.965039
 20
125.190057
 30
0.0
  0
SPLINE
  5
1de
100
AcDbEntity
  8
Layer_1
 62
7
100
AcDbSpline
 70
8
 71
3
 72
8
 73
4
 74
0
 40
0
 40
0
 40
0
 40
0
 40
1
 40
1
 40
1
 40
1
 10
140.965039
 20
125.190057
 30
0.0
 10
140.928753
 20
125.004312
 30
0.0
 10
141.772852
 20
124.949727
 30
0.0
 10
144.675820
 20
124.949727
 30
0.0
  0
LWPOLYLINE
  5
1df
100
AcDbEntity
  8
Layer_1
 62
7
100
AcDbPolyline
 90
9
 70
0
 10
126.220031
 20
148.174632
 30
0.0
 10
127.566649
 20
149.230208
 30
0.0
 10
127.616258
 20
137.089691
 30
0.0
 10
127.665869
 20
124.949727
 30
0.0
 10
131.221206
 20
124.949727
 30
0.0
 10
134.777096
 20
124.949727
 30
0.0
 10
134.826155
 20
138.173382
 30
0.0
 10
134.875764
 20
151.397588
 30
0.0
 10
135.512968
 20
148.800813
 30
0.0
  0
SPLINE
  5
1e0
100
AcDbEntity
  8
Layer_1
 62
7
100
AcDbSpline
 70
8
 71
3
 72
8
 73
4
 74
0
 40
0
 40
0
 40
0
 40
0
 40
1
 40
1
 40
1
 40
1
 10
149.835746
 20
146.202382
 30
0.0
 10
151.360291
 20
144.404522
 30
0.0
 10
153.239964
 20
140.804930
 30
0.0
 10
153.752132
 20
138.702549
 30
0.0
  0
SPLINE
  5
1e1
100
AcDbEntity
  8
Layer_1
 62
7
100
AcDbSpline
 70
8
 71
3
 72
8
 73
4
 74
0
 40
0
 40
0
 40
0
 40
0
 40
1
 40
1
 40
1
 40
1
 10
153.752132
 20
138.702549
 30
0.0
 10
154.246281
 20
136.674150
 30
0.0
 10
154.203293
 20
132.810946
 30
0.0
 10
153.664488
 20
130.816312
 30
0.0
  0
SPLINE
  5
1e2
100
AcDbEntity
  8
Layer_1
 62
7
100
AcDbSpline
 70
8
 71
3
 72
8
 73
4
 74
0
 40
0
 40
0
 40
0
 40
0
 40
1
 40
1
 40
1
 40
1
 10
153.664488
 20
130.816312
 30
0.0
 10
153.200608
 20
129.099055
 30
0.0
 10
151.765754
 20
126.029436
 30
0.0
 10
150.876993
 20
124.853264
 30
0.0
  0
SPLINE
  5
1e3
100
AcDbEntity
  8
Layer_1
 62
7
100
AcDbSpline
 70
8
 71
3
 72
8
 73
4
 74
0
 40
0
 40
0
 40
0
 40
0
 40
1
 40
1
 40
1
 40
1
 10
150.876993
 20
124.853264
 30
0.0
 10
148.534704
 20
121.753513
 30
0.0
 10
145.176054
 20
119.379522
 30
0.0
 10
141.591769
 20
118.289943
 30
0.0
  0
SPLINE
  5
1e4
100
AcDbEntity
  8
Layer_1
 62
7
100
AcDbSpline
 70
8
 71
3
 72
8
 73
4
 74
0
 40
0
 40
0
 40
0
 40
0
 40
1
 40
1
 40
1
 40
1
 10
141.591769
 20
118.289943
 30
0.0
 10
140.059176
 20
117.824054
 30
0.0
 10
139.569898
 20
117.768078
 30
0.0
 10
136.991327
 20
117.763534
 30
0.0
  0
SPLINE
  5
1e5
100
AcDbEntity
  8
Layer_1
 62
7
100
AcDbSpline
 70
8
 71
3
 72
8
 73
4
 74
0
 40
0
 40
0
 40
0
 40
0
 40
1
 40
1
 40
1
 40
1
 10
136.991327
 20
117.763534
 30
0.0
 10
134.392681
 20
117.758962
 30
0.0
 10
133.938216
 20
117.810247
 30
0.0
 10
132.412382
 20
118.278920
 30
0.0
  0
SPLINE
  5
1e6
100
AcDbEntity
  8
Layer_1
 62
7
100
AcDbSpline
 70
8
 71
3
 72
8
 73
4
 74
0
 40
0
 40
0
 40
0
 40
0
 40
1
 40
1
 40
1
 40
1
 10
132.412382
 20
118.278920
 30
0.0
 10
129.294374
 20
119.236644
 30
0.0
 10
126.782353
 20
120.819611
 30
0.0
 10
124.449527
 20
123.296080
 30
0.0
  0
LWPOLYLINE
  5
1e7
100
AcDbEntity
  8
Layer_1
 62
7
100
AcDbPolyline
 90
5
 70
0
 10
144.675820
 20
124.949727
 30
0.0
 10
148.433454
 20
124.949727
 30
0.0
 10
148.483063
 20
136.344450
 30
0.0
 10
148.532675
 20
147.739172
 30
0.0
 10
149.835746
 20
146.202382
 30
0.0
  0
SPLINE
  5
1e8
100
AcDbEntity
  8
Layer_1
 62
7
100
AcDbSpline
 70
8
 71
3
 72
8
 73
4
 74
0
 40
0
 40
0
 40
0
 40
0
 40
1
 40
1
 40
1
 40
1
 10
123.696566
 20
124.913897
 30
0.0
 10
124.531890
 20
124.984322
 30
0.0
 10
124.574568
 20
124.667167
 30
0.0
 10
123.238508
 20
128.315998
 30
0.0
  0
SPLINE
  5
1e9
100
AcDbEntity
  8
Layer_1
 62
7
100
AcDbSpline
 70
8
 71
3
 72
8
 73
4
 74
0
 40
0
 40
0
 40
0
 40
0
 40
1
 40
1
 40
1
 40
1
 10
123.238508
 20
128.315998
 30
0.0
 10
122.295914
 20
130.890243
 30
0.0
 10
121.772282
 20
132.412722
 30
0.0
 10
121.254684
 20
134.086119
 30
0.0
  0
SPLINE
  5
1ea
100
AcDbEntity
  8
Layer_1
 62
7
100
AcDbSpline
 70
8
 71
3
 72
8
 73
4
 74
0
 40
0
 40
0
 40
0
 40
0
 40
1
 40
1
 40
1
 40
1
 10
121.254684
 20
134.086119
 30
0.0
 10
121.091071
 20
134.615077
 30
0.0
 10
120.748089
 20
135.600489
 30
0.0
 10
120.492353
 20
136.276098
 30
0.0
  0
SPLINE
  5
1eb
100
AcDbEntity
  8
Layer_1
 62
7
100
AcDbSpline
 70
8
 71
3
 72
8
 73
4
 74
0
 40
0
 40
0
 40
0
 40
0
 40
1
 40
1
 40
1
 40
1
 10
120.492353
 20
136.276098
 30
0.0
 10
120.031758
 20
137.492905
 30
0.0
 10
120.026278
 20
137.498854
 30
0.0
 10
119.902001
 20
136.877474
 30
0.0
  0
SPLINE
  5
1ec
100
AcDbEntity
  8
Layer_1
 62
7
100
AcDbSpline
 70
8
 71
3
 72
8
 73
4
 74
0
 40
0
 40
0
 40
0
 40
0
 40
1
 40
1
 40
1
 40
1
 10
119.902001
 20
136.877474
 30
0.0
 10
119.697841
 20
135.856677
 30
0.0
 10
119.764102
 20
133.631428
 30
0.0
 10
120.054136
 20
131.778182
 30
0.0
  0
SPLINE
  5
1ed
100
AcDbEntity
  8
Layer_1
 62
7
100
AcDbSpline
 70
8
 71
3
 72
8
 73
4
 74
0
 40
0
 40
0
 40
0
 40
0
 40
1
 40
1
 40
1
 40
1
 10
120.054136
 20
131.778182
 30
0.0
 10
120.443540
 20
129.289986
 30
0.0
 10
121.162513
 20
127.366842
 30
0.0
 10
122.225923
 20
125.967822
 30
0.0
  0
SPLINE
  5
1ee
100
AcDbEntity
  8
Layer_1
 62
7
100
AcDbSpline
 70
8
 71
3
 72
8
 73
4
 74
0
 40
0
 40
0
 40
0
 40
0
 40
1
 40
1
 40
1
 40
1
 10
122.225923
 20
125.967822
 30
0.0
 10
122.483790
 20
125.628573
 30
0.0
 10
122.638642
 20
125.260734
 30
0.0
 10
122.570435
 20
125.150368
 30
0.0
  0
SPLINE
  5
1ef
100
AcDbEntity
  8
Layer_1
 62
7
100
AcDbSpline
 70
8
 71
3
 72
8
 73
4
 74
0
 40
0
 40
0
 40
0
 40
0
 40
1
 40
1
 40
1
 40
1
 10
122.570435
 20
125.150368
 30
0.0
 10
122.493030
 20
125.025126
 30
0.0
 10
121.334524
 20
124.949727
 30
0.0
 10
119.488037
 20
124.949727
 30
0.0
  0
LWPOLYLINE
  5
1f0
100
AcDbEntity
  8
Layer_1
 62
7
100
AcDbPolyline
 90
3
 70
0
 10
124.449527
 20
123.296080
 30
0.0
 10
122.982191
 20
124.853264
 30
0.0
 10
123.696566
 20
124.913897
 30
0.0
  0
SPLINE
  5
1f1
100
AcDbEntity
  8
Layer_1
 62
7
100
AcDbSpline
 70
8
 71
3
 72
8
 73
4
 74
0
 40
0
 40
0
 40
0
 40
0
 40
1
 40
1
 40
1
 40
1
 10
116.026957
 20
126.632588
 30
0.0
 10
115.750238
 20
127.558262
 30
0.0
 10
115.314405
 20
128.965095
 30
0.0
 10
115.059023
 20
129.758529
 30
0.0
  0
SPLINE
  5
1f2
100
AcDbEntity
  8
Layer_1
 62
7
100
AcDbSpline
 70
8
 71
3
 72
8
 73
4
 74
0
 40
0
 40
0
 40
0
 40
0
 40
1
 40
1
 40
1
 40
1
 10
115.059023
 20
129.758529
 30
0.0
 10
114.803642
 20
130.551963
 30
0.0
 10
114.545245
 20
131.503825
 30
0.0
 10
114.484658
 20
131.874092
 30
0.0
  0
SPLINE
  5
1f3
100
AcDbEntity
  8
Layer_1
 62
7
100
AcDbSpline
 70
8
 71
3
 72
8
 73
4
 74
0
 40
0
 40
0
 40
0
 40
0
 40
1
 40
1
 40
1
 40
1
 10
114.484658
 20
131.874092
 30
0.0
 10
114.424071
 20
132.244362
 30
0.0
 10
114.035019
 20
133.629136
 30
0.0
 10
113.619799
 20
134.951528
 30
0.0
  0
SPLINE
  5
1f4
100
AcDbEntity
  8
Layer_1
 62
7
100
AcDbSpline
 70
8
 71
3
 72
8
 73
4
 74
0
 40
0
 40
0
 40
0
 40
0
 40
1
 40
1
 40
1
 40
1
 10
113.619799
 20
134.951528
 30
0.0
 10
111.969632
 20
140.206988
 30
0.0
 10
110.928215
 20
143.694800
 30
0.0
 10
110.928215
 20
143.967204
 30
0.0
  0
SPLINE
  5
1f5
100
AcDbEntity
  8
Layer_1
 62
7
100
AcDbSpline
 70
8
 71
3
 72
8
 73
4
 74
0
 40
0
 40
0
 40
0
 40
0
 40
1
 40
1
 40
1
 40
1
 10
110.928215
 20
143.967204
 30
0.0
 10
110.928215
 20
144.124732
 30
0.0
 10
110.738389
 20
144.843580
 30
0.0
 10
110.505985
 20
145.565177
 30
0.0
  0
SPLINE
  5
1f6
100
AcDbEntity
  8
Layer_1
 62
7
100
AcDbSpline
 70
8
 71
3
 72
8
 73
4
 74
0
 40
0
 40
0
 40
0
 40
0
 40
1
 40
1
 40
1
 40
1
 10
110.505985
 20
145.565177
 30
0.0
 10
110.117131
 20
146.772530
 30
0.0
 10
110.040488
 20
146.877621
 30
0.0
 10
109.545769
 20
146.877621
 30
0.0
  0
LWPOLYLINE
  5
1f7
100
AcDbEntity
  8
Layer_1
 62
7
100
AcDbPolyline
 90
3
 70
0
 10
119.488037
 20
124.949727
 30
0.0
 10
116.529666
 20
124.949727
 30
0.0
 10
116.026957
 20
126.632588
 30
0.0
  0
SPLINE
  5
1f8
100
AcDbEntity
  8
Layer_1
 62
7
100
AcDbSpline
 70
8
 71
3
 72
8
 73
4
 74
0
 40
0
 40
0
 40
0
 40
0
 40
1
 40
1
 40
1
 40
1
 10
105.446381
 20
125.045638
 30
0.0
 10
101.987519
 20
125.045638
 30
0.0
 10
101.984141
 20
125.046202
 30
0.0
 10
101.921908
 20
125.484956
 30
0.0
  0
SPLINE
  5
1f9
100
AcDbEntity
  8
Layer_1
 62
7
100
AcDbSpline
 70
8
 71
3
 72
8
 73
4
 74
0
 40
0
 40
0
 40
0
 40
0
 40
1
 40
1
 40
1
 40
1
 10
101.921908
 20
125.484956
 30
0.0
 10
101.868788
 20
125.859431
 30
0.0
 10
101.667169
 20
125.689387
 30
0.0
 10
100.551590
 20
124.330713
 30
0.0
  0
SPLINE
  5
1fa
100
AcDbEntity
  8
Layer_1
 62
7
100
AcDbSpline
 70
8
 71
3
 72
8
 73
4
 74
0
 40
0
 40
0
 40
0
 40
0
 40
1
 40
1
 40
1
 40
1
 10
100.551590
 20
124.330713
 30
0.0
 10
97.955758
 20
121.169217
 30
0.0
 10
95.246568
 20
119.365323
 30
0.0
 10
91.308812
 20
118.175841
 30
0.0
  0
SPLINE
  5
1fb
100
AcDbEntity
  8
Layer_1
 62
7
100
AcDbSpline
 70
8
 71
3
 72
8
 73
4
 74
0
 40
0
 40
0
 40
0
 40
0
 40
1
 40
1
 40
1
 40
1
 10
91.308812
 20
118.175841
 30
0.0
 10
90.447441
 20
117.915643
 30
0.0
 10
89.310741
 20
117.775712
 30
0.0
 10
87.654254
 20
117.725499
 30
0.0
  0
SPLINE
  5
1fc
100
AcDbEntity
  8
Layer_1
 62
7
100
AcDbSpline
 70
8
 71
3
 72
8
 73
4
 74
0
 40
0
 40
0
 40
0
 40
0
 40
1
 40
1
 40
1
 40
1
 10
87.654254
 20
117.725499
 30
0.0
 10
84.284622
 20
117.623363
 30
0.0
 10
82.199954
 20
118.095673
 30
0.0
 10
79.383269
 20
119.599079
 30
0.0
  0
SPLINE
  5
1fd
100
AcDbEntity
  8
Layer_1
 62
7
100
AcDbSpline
 70
8
 71
3
 72
8
 73
4
 74
0
 40
0
 40
0
 40
0
 40
0
 40
1
 40
1
 40
1
 40
1
 10
79.383269
 20
119.599079
 30
0.0
 10
75.870768
 20
121.473879
 30
0.0
 10
73.572584
 20
123.794643
 30
0.0
 10
71.825005
 20
127.231206
 30
0.0
  0
SPLINE
  5
1fe
100
AcDbEntity
  8
Layer_1
 62
7
100
AcDbSpline
 70
8
 71
3
 72
8
 73
4
 74
0
 40
0
 40
0
 40
0
 40
0
 40
1
 40
1
 40
1
 40
1
 10
71.825005
 20
127.231206
 30
0.0
 10
70.330698
 20
130.169721
 30
0.0
 10
69.880934
 20
132.211009
 30
0.0
 10
70.008750
 20
135.476836
 30
0.0
  0
SPLINE
  5
1ff
100
AcDbEntity
  8
Layer_1
 62
7
100
AcDbSpline
 70
8
 71
3
 72
8
 73
4
 74
0
 40
0
 40
0
 40
0
 40
0
 40
1
 40
1
 40
1
 40
1
 10
70.008750
 20
135.476836
 30
0.0
 10
70.122291
 20
138.377993
 30
0.0
 10
70.412079
 20
139.541037
 30
0.0
 10
71.686098
 20
142.211034
 30
0.0
  0
SPLINE
  5
200
100
AcDbEntity
  8
Layer_1
 62
7
100
AcDbSpline
 70
8
 71
3
 72
8
 73
4
 74
0
 40
0
 40
0
 40
0
 40
0
 40
1
 40
1
 40
1
 40
1
 10
71.686098
 20
142.211034
 30
0.0
 10
72.637845
 20
144.205640
 30
0.0
 10
73.775855
 20
145.852787
 30
0.0
 10
75.036384
 20
147.059522
 30
0.0
  0
LWPOLYLINE
  5
201
100
AcDbEntity
  8
Layer_1
 62
7
100
AcDbPolyline
 90
5
 70
0
 10
109.545769
 20
146.877621
 30
0.0
 10
109.008333
 20
146.877621
 30
0.0
 10
108.958724
 20
135.961353
 30
0.0
 10
108.908562
 20
125.045638
 30
0.0
 10
105.446381
 20
125.045638
 30
0.0
  0
SPLINE
  5
202
100
AcDbEntity
  8
Layer_1
 62
7
100
AcDbSpline
 70
8
 71
3
 72
8
 73
4
 74
0
 40
0
 40
0
 40
0
 40
0
 40
1
 40
1
 40
1
 40
1
 10
75.732019
 20
140.231067
 30
0.0
 10
75.734559
 20
134.459281
 30
0.0
 10
75.798903
 20
132.440029
 30
0.0
 10
76.012034
 20
131.434223
 30
0.0
  0
SPLINE
  5
203
100
AcDbEntity
  8
Layer_1
 62
7
100
AcDbSpline
 70
8
 71
3
 72
8
 73
4
 74
0
 40
0
 40
0
 40
0
 40
0
 40
1
 40
1
 40
1
 40
1
 10
76.012034
 20
131.434223
 30
0.0
 10
77.003193
 20
126.756689
 30
0.0
 10
80.499729
 20
124.194684
 30
0.0
 10
85.907451
 20
124.183536
 30
0.0
  0
SPLINE
  5
204
100
AcDbEntity
  8
Layer_1
 62
7
100
AcDbSpline
 70
8
 71
3
 72
8
 73
4
 74
0
 40
0
 40
0
 40
0
 40
0
 40
1
 40
1
 40
1
 40
1
 10
85.907451
 20
124.183536
 30
0.0
 10
90.561750
 20
124.173941
 30
0.0
 10
93.722797
 20
125.808044
 30
0.0
 10
95.296855
 20
129.037539
 30
0.0
  0
SPLINE
  5
205
100
AcDbEntity
  8
Layer_1
 62
7
100
AcDbSpline
 70
8
 71
3
 72
8
 73
4
 74
0
 40
0
 40
0
 40
0
 40
0
 40
1
 40
1
 40
1
 40
1
 10
95.296855
 20
129.037539
 30
0.0
 10
95.638761
 20
129.739024
 30
0.0
 10
96.019120
 20
130.685756
 30
0.0
 10
96.142418
 20
131.141528
 30
0.0
  0
SPLINE
  5
206
100
AcDbEntity
  8
Layer_1
 62
7
100
AcDbSpline
 70
8
 71
3
 72
8
 73
4
 74
0
 40
0
 40
0
 40
0
 40
0
 40
1
 40
1
 40
1
 40
1
 10
96.142418
 20
131.141528
 30
0.0
 10
96.288073
 20
131.679943
 30
0.0
 10
96.407201
 20
134.988589
 30
0.0
 10
96.482518
 20
140.587153
 30
0.0
  0
LWPOLYLINE
  5
207
100
AcDbEntity
  8
Layer_1
 62
7
100
AcDbPolyline
 90
3
 70
0
 10
75.036384
 20
147.059522
 30
0.0
 10
75.728711
 20
147.722083
 30
0.0
 10
75.732019
 20
140.231067
 30
0.0
  0
SPLINE
  5
208
100
AcDbEntity
  8
Layer_1
 62
7
100
AcDbSpline
 70
8
 71
3
 72
8
 73
4
 74
0
 40
0
 40
0
 40
0
 40
0
 40
1
 40
1
 40
1
 40
1
 10
97.850633
 20
148.170221
 30
0.0
 10
99.199136
 20
147.057600
 30
0.0
 10
100.330497
 20
145.845816
 30
0.0
 10
101.228480
 20
144.550391
 30
0.0
  0
LWPOLYLINE
  5
209
100
AcDbEntity
  8
Layer_1
 62
7
100
AcDbPolyline
 90
3
 70
0
 10
96.482518
 20
140.587153
 30
0.0
 10
96.598272
 20
149.203750
 30
0.0
 10
97.850633
 20
148.170221
 30
0.0
  0
SPLINE
  5
20a
100
AcDbEntity
  8
Layer_1
 62
7
100
AcDbSpline
 70
8
 71
3
 72
8
 73
4
 74
0
 40
0
 40
0
 40
0
 40
0
 40
1
 40
1
 40
1
 40
1
 10
102.687549
 20
127.450039
 30
0.0
 10
103.968996
 20
130.078360
 30
0.0
 10
104.098082
 20
130.762142
 30
0.0
 10
104.099210
 20
134.951528
 30
0.0
  0
SPLINE
  5
20b
100
AcDbEntity
  8
Layer_1
 62
7
100
AcDbSpline
 70
8
 71
3
 72
8
 73
4
 74
0
 40
0
 40
0
 40
0
 40
0
 40
1
 40
1
 40
1
 40
1
 10
104.099210
 20
134.951528
 30
0.0
 10
104.100339
 20
138.398748
 30
0.0
 10
104.063145
 20
138.811701
 30
0.0
 10
103.642253
 20
140.049167
 30
0.0
  0
SPLINE
  5
20c
100
AcDbEntity
  8
Layer_1
 62
7
100
AcDbSpline
 70
8
 71
3
 72
8
 73
4
 74
0
 40
0
 40
0
 40
0
 40
0
 40
1
 40
1
 40
1
 40
1
 10
103.642253
 20
140.049167
 30
0.0
 10
103.390378
 20
140.789706
 30
0.0
 10
102.892389
 20
141.923306
 30
0.0
 10
102.535965
 20
142.568220
 30
0.0
  0
LWPOLYLINE
  5
20d
100
AcDbEntity
  8
Layer_1
 62
7
100
AcDbPolyline
 90
5
 70
0
 10
101.228480
 20
144.550391
 30
0.0
 10
101.791824
 20
143.736798
 30
0.0
 10
101.888284
 20
134.872153
 30
0.0
 10
101.984198
 20
126.007508
 30
0.0
 10
102.687549
 20
127.450039
 30
0.0
  0
LWPOLYLINE
  5
20e
100
AcDbEntity
  8
Layer_1
 62
7
100
AcDbPolyline
 90
5
 70
0
 10
102.535965
 20
142.568220
 30
0.0
 10
101.888284
 20
143.740656
 30
0.0
 10
101.888284
 20
159.254059
 30
0.0
 10
101.888284
 20
174.768012
 30
0.0
 10
101.888284
 20
174.768012
 30
0.0
  0
SPLINE
  5
20f
100
AcDbEntity
  8
Layer_1
 62
7
100
AcDbSpline
 70
8
 71
3
 72
8
 73
4
 74
0
 40
0
 40
0
 40
0
 40
0
 40
1
 40
1
 40
1
 40
1
 10
134.957343
 20
174.046471
 30
0.0
 10
135.572968
 20
171.741960
 30
0.0
 10
137.477703
 20
163.794103
 30
0.0
 10
137.550260
 20
163.226667
 30
0.0
  0
SPLINE
  5
210
100
AcDbEntity
  8
Layer_1
 62
7
100
AcDbSpline
 70
8
 71
3
 72
8
 73
4
 74
0
 40
0
 40
0
 40
0
 40
0
 40
1
 40
1
 40
1
 40
1
 10
137.550260
 20
163.226667
 30
0.0
 10
137.597605
 20
162.856397
 30
0.0
 10
138.205210
 20
160.244766
 30
0.0
 10
138.900738
 20
157.422922
 30
0.0
  0
SPLINE
  5
211
100
AcDbEntity
  8
Layer_1
 62
7
100
AcDbSpline
 70
8
 71
3
 72
8
 73
4
 74
0
 40
0
 40
0
 40
0
 40
0
 40
1
 40
1
 40
1
 40
1
 10
138.900738
 20
157.422922
 30
0.0
 10
139.596264
 20
154.601075
 30
0.0
 10
140.165226
 20
152.189890
 30
0.0
 10
140.165226
 20
152.064558
 30
0.0
  0
SPLINE
  5
212
100
AcDbEntity
  8
Layer_1
 62
7
100
AcDbSpline
 70
8
 71
3
 72
8
 73
4
 74
0
 40
0
 40
0
 40
0
 40
0
 40
1
 40
1
 40
1
 40
1
 10
140.165226
 20
152.064558
 30
0.0
 10
140.165226
 20
151.909194
 30
0.0
 10
139.997239
 20
151.882894
 30
0.0
 10
139.636610
 20
151.981325
 30
0.0
  0
SPLINE
  5
213
100
AcDbEntity
  8
Layer_1
 62
7
100
AcDbSpline
 70
8
 71
3
 72
8
 73
4
 74
0
 40
0
 40
0
 40
0
 40
0
 40
1
 40
1
 40
1
 40
1
 10
139.636610
 20
151.981325
 30
0.0
 10
139.345684
 20
152.060731
 30
0.0
 10
138.158152
 20
152.139239
 30
0.0
 10
136.997942
 20
152.156060
 30
0.0
  0
SPLINE
  5
214
100
AcDbEntity
  8
Layer_1
 62
7
100
AcDbSpline
 70
8
 71
3
 72
8
 73
4
 74
0
 40
0
 40
0
 40
0
 40
0
 40
1
 40
1
 40
1
 40
1
 10
136.997942
 20
152.156060
 30
0.0
 10
134.934929
 20
152.185947
 30
0.0
 10
134.885803
 20
152.196990
 30
0.0
 10
134.757253
 20
152.657665
 30
0.0
  0
LWPOLYLINE
  5
215
100
AcDbEntity
  8
Layer_1
 62
7
100
AcDbPolyline
 90
4
 70
0
 10
127.854936
 20
174.768012
 30
0.0
 10
131.309951
 20
174.768012
 30
0.0
 10
134.764969
 20
174.768012
 30
0.0
 10
134.957343
 20
174.046471
 30
0.0
  0
SPLINE
  5
216
100
AcDbEntity
  8
Layer_1
 62
7
100
AcDbSpline
 70
8
 71
3
 72
8
 73
4
 74
0
 40
0
 40
0
 40
0
 40
0
 40
1
 40
1
 40
1
 40
1
 10
134.606219
 20
152.606952
 30
0.0
 10
134.589794
 20
152.159926
 30
0.0
 10
134.470704
 20
152.055628
 30
0.0
 10
133.770026
 20
151.875491
 30
0.0
  0
SPLINE
  5
217
100
AcDbEntity
  8
Layer_1
 62
7
100
AcDbSpline
 70
8
 71
3
 72
8
 73
4
 74
0
 40
0
 40
0
 40
0
 40
0
 40
1
 40
1
 40
1
 40
1
 10
133.770026
 20
151.875491
 30
0.0
 10
131.575511
 20
151.311307
 30
0.0
 10
130.753059
 20
151.022063
 30
0.0
 10
129.501415
 20
150.373428
 30
0.0
  0
SPLINE
  5
218
100
AcDbEntity
  8
Layer_1
 62
7
100
AcDbSpline
 70
8
 71
3
 72
8
 73
4
 74
0
 40
0
 40
0
 40
0
 40
0
 40
1
 40
1
 40
1
 40
1
 10
129.501415
 20
150.373428
 30
0.0
 10
128.754559
 20
149.986389
 30
0.0
 10
128.078698
 20
149.640068
 30
0.0
 10
127.999355
 20
149.603933
 30
0.0
  0
SPLINE
  5
219
100
AcDbEntity
  8
Layer_1
 62
7
100
AcDbSpline
 70
8
 71
3
 72
8
 73
4
 74
0
 40
0
 40
0
 40
0
 40
0
 40
1
 40
1
 40
1
 40
1
 10
127.999355
 20
149.603933
 30
0.0
 10
127.920011
 20
149.567800
 30
0.0
 10
127.854936
 20
155.214750
 30
0.0
 10
127.854936
 20
162.152899
 30
0.0
  0
LWPOLYLINE
  5
21a
100
AcDbEntity
  8
Layer_1
 62
7
100
AcDbPolyline
 90
3
 70
0
 10
134.757253
 20
152.657665
 30
0.0
 10
134.625512
 20
153.128403
 30
0.0
 10
134.606219
 20
152.606952
 30
0.0
  0
LWPOLYLINE
  5
21b
100
AcDbEntity
  8
Layer_1
 62
7
100
AcDbPolyline
 90
3
 70
0
 10
127.854936
 20
162.152899
 30
0.0
 10
127.854936
 20
174.768012
 30
0.0
 10
127.854936
 20
174.768012
 30
0.0
  0
SPLINE
  5
21c
100
AcDbEntity
  8
Layer_1
 62
7
100
AcDbSpline
 70
8
 71
3
 72
8
 73
4
 74
0
 40
0
 40
0
 40
0
 40
0
 40
1
 40
1
 40
1
 40
1
 10
148.243838
 20
161.399388
 30
0.0
 10
148.243838
 20
154.046892
 30
0.0
 10
148.222332
 20
148.041951
 30
0.0
 10
148.195882
 20
148.055018
 30
0.0
  0
SPLINE
  5
21d
100
AcDbEntity
  8
Layer_1
 62
7
100
AcDbSpline
 70
8
 71
3
 72
8
 73
4
 74
0
 40
0
 40
0
 40
0
 40
0
 40
1
 40
1
 40
1
 40
1
 10
148.195882
 20
148.055018
 30
0.0
 10
148.169438
 20
148.068113
 30
0.0
 10
147.463039
 20
148.542379
 30
0.0
 10
146.626021
 20
149.108940
 30
0.0
  0
SPLINE
  5
21e
100
AcDbEntity
  8
Layer_1
 62
7
100
AcDbSpline
 70
8
 71
3
 72
8
 73
4
 74
0
 40
0
 40
0
 40
0
 40
0
 40
1
 40
1
 40
1
 40
1
 10
146.626021
 20
149.108940
 30
0.0
 10
145.789001
 20
149.675499
 30
0.0
 10
144.339152
 20
150.456069
 30
0.0
 10
143.404167
 20
150.843616
 30
0.0
  0
LWPOLYLINE
  5
21f
100
AcDbEntity
  8
Layer_1
 62
7
100
AcDbPolyline
 90
4
 70
0
 10
141.704218
 20
174.768012
 30
0.0
 10
144.974028
 20
174.768012
 30
0.0
 10
148.243838
 20
174.768012
 30
0.0
 10
148.243838
 20
161.399388
 30
0.0
  0
LWPOLYLINE
  5
220
100
AcDbEntity
  8
Layer_1
 62
7
100
AcDbPolyline
 90
5
 70
0
 10
143.404167
 20
150.843616
 30
0.0
 10
141.704218
 20
151.548619
 30
0.0
 10
141.704218
 20
163.158315
 30
0.0
 10
141.704218
 20
174.768012
 30
0.0
 10
141.704218
 20
174.768012
 30
0.0
  0
SPLINE
  5
221
100
AcDbEntity
  8
Layer_1
 62
7
100
AcDbSpline
 70
8
 71
3
 72
8
 73
4
 74
0
 40
0
 40
0
 40
0
 40
0
 40
1
 40
1
 40
1
 40
1
 10
110.785453
 20
153.458030
 30
0.0
 10
113.094316
 20
153.578801
 30
0.0
 10
114.207761
 20
154.146435
 30
0.0
 10
114.521036
 20
155.362480
 30
0.0
  0
SPLINE
  5
222
100
AcDbEntity
  8
Layer_1
 62
7
100
AcDbSpline
 70
8
 71
3
 72
8
 73
4
 74
0
 40
0
 40
0
 40
0
 40
0
 40
1
 40
1
 40
1
 40
1
 10
114.521036
 20
155.362480
 30
0.0
 10
114.707292
 20
156.085474
 30
0.0
 10
114.826751
 20
163.163356
 30
0.0
 10
114.679236
 20
164.737549
 30
0.0
  0
SPLINE
  5
223
100
AcDbEntity
  8
Layer_1
 62
7
100
AcDbSpline
 70
8
 71
3
 72
8
 73
4
 74
0
 40
0
 40
0
 40
0
 40
0
 40
1
 40
1
 40
1
 40
1
 10
114.679236
 20
164.737549
 30
0.0
 10
114.562247
 20
165.985996
 30
0.0
 10
114.468306
 20
166.242911
 30
0.0
 10
113.906433
 20
166.856420
 30
0.0
  0
LWPOLYLINE
  5
224
100
AcDbEntity
  8
Layer_1
 62
7
100
AcDbPolyline
 90
4
 70
0
 10
109.005026
 20
167.684897
 30
0.0
 10
109.005026
 20
160.524609
 30
0.0
 10
109.005026
 20
153.364874
 30
0.0
 10
110.785453
 20
153.458030
 30
0.0
  0
SPLINE
  5
225
100
AcDbEntity
  8
Layer_1
 62
7
100
AcDbSpline
 70
8
 71
3
 72
8
 73
4
 74
0
 40
0
 40
0
 40
0
 40
0
 40
1
 40
1
 40
1
 40
1
 10
87.686224
 20
151.993452
 30
0.0
 10
87.850969
 20
151.990009
 30
0.0
 10
87.989901
 20
151.981302
 30
0.0
 10
88.094123
 20
151.966993
 30
0.0
  0
LWPOLYLINE
  5
226
100
AcDbEntity
  8
Layer_1
 62
7
100
AcDbPolyline
 90
5
 70
0
 10
113.906433
 20
166.856420
 30
0.0
 10
113.267022
 20
167.554810
 30
0.0
 10
111.136024
 20
167.619853
 30
0.0
 10
109.005026
 20
167.684897
 30
0.0
 10
109.005026
 20
167.684897
 30
0.0
  0
SPLINE
  5
227
100
AcDbEntity
  8
Layer_1
 62
7
100
AcDbSpline
 70
8
 71
3
 72
8
 73
4
 74
0
 40
0
 40
0
 40
0
 40
0
 40
1
 40
1
 40
1
 40
1
 10
88.299727
 20
132.238447
 30
0.0
 10
87.762083
 20
131.700935
 30
0.0
 10
87.547727
 20
131.625101
 30
0.0
 10
86.375985
 20
131.557145
 30
0.0
  0
SPLINE
  5
228
100
AcDbEntity
  8
Layer_1
 62
7
100
AcDbSpline
 70
8
 71
3
 72
8
 73
4
 74
0
 40
0
 40
0
 40
0
 40
0
 40
1
 40
1
 40
1
 40
1
 10
86.375985
 20
131.557145
 30
0.0
 10
84.794491
 20
131.465426
 30
0.0
 10
83.980435
 20
131.772424
 30
0.0
 10
83.436906
 20
132.666188
 30
0.0
  0
SPLINE
  5
229
100
AcDbEntity
  8
Layer_1
 62
7
100
AcDbSpline
 70
8
 71
3
 72
8
 73
4
 74
0
 40
0
 40
0
 40
0
 40
0
 40
1
 40
1
 40
1
 40
1
 10
83.436906
 20
132.666188
 30
0.0
 10
83.075997
 20
133.259651
 30
0.0
 10
83.058268
 20
133.695980
 30
0.0
 10
83.043339
 20
142.375846
 30
0.0
  0
SPLINE
  5
22a
100
AcDbEntity
  8
Layer_1
 62
7
100
AcDbSpline
 70
8
 71
3
 72
8
 73
4
 74
0
 40
0
 40
0
 40
0
 40
0
 40
1
 40
1
 40
1
 40
1
 10
83.043339
 20
142.375846
 30
0.0
 10
83.028635
 20
150.923175
 30
0.0
 10
83.048362
 20
151.470931
 30
0.0
 10
83.369658
 20
151.568465
 30
0.0
  0
SPLINE
  5
22b
100
AcDbEntity
  8
Layer_1
 62
7
100
AcDbSpline
 70
8
 71
3
 72
8
 73
4
 74
0
 40
0
 40
0
 40
0
 40
0
 40
1
 40
1
 40
1
 40
1
 10
83.369658
 20
151.568465
 30
0.0
 10
84.108310
 20
151.792690
 30
0.0
 10
86.533014
 20
152.017545
 30
0.0
 10
87.686224
 20
151.993452
 30
0.0
  0
LWPOLYLINE
  5
22c
100
AcDbEntity
  8
Layer_1
 62
7
100
AcDbPolyline
 90
5
 70
0
 10
88.094123
 20
151.966993
 30
0.0
 10
89.014653
 20
151.840214
 30
0.0
 10
88.959532
 20
142.341672
 30
0.0
 10
88.904408
 20
132.843130
 30
0.0
 10
88.299727
 20
132.238447
 30
0.0
  0
SPLINE
  5
22d
100
AcDbEntity
  8
Layer_1
 62
7
100
AcDbSpline
 70
8
 71
3
 72
8
 73
4
 74
0
 40
0
 40
0
 40
0
 40
0
 40
1
 40
1
 40
1
 40
1
 10
140.472253
 20
151.621381
 30
0.0
 10
140.566501
 20
151.619123
 30
0.0
 10
140.764483
 20
151.592188
 30
0.0
 10
140.982677
 20
151.550273
 30
0.0
  0
LWPOLYLINE
  5
22e
100
AcDbEntity
  8
Layer_1
 62
7
100
AcDbPolyline
 90
2
 70
0
 10
87.686224
 20
151.993452
 30
0.0
 10
87.686224
 20
151.993452
 30
0.0
  0
SPLINE
  5
22f
100
AcDbEntity
  8
Layer_1
 62
7
100
AcDbSpline
 70
8
 71
3
 72
8
 73
4
 74
0
 40
0
 40
0
 40
0
 40
0
 40
1
 40
1
 40
1
 40
1
 10
141.511844
 20
149.451798
 30
0.0
 10
141.511844
 20
148.353321
 30
0.0
 10
141.485202
 20
147.454192
 30
0.0
 10
141.452865
 20
147.454192
 30
0.0
  0
SPLINE
  5
230
100
AcDbEntity
  8
Layer_1
 62
7
100
AcDbSpline
 70
8
 71
3
 72
8
 73
4
 74
0
 40
0
 40
0
 40
0
 40
0
 40
1
 40
1
 40
1
 40
1
 10
141.452865
 20
147.454192
 30
0.0
 10
141.383472
 20
147.454192
 30
0.0
 10
140.359652
 20
151.560339
 30
0.0
 10
140.415478
 20
151.614766
 30
0.0
  0
SPLINE
  5
231
100
AcDbEntity
  8
Layer_1
 62
7
100
AcDbSpline
 70
8
 71
3
 72
8
 73
4
 74
0
 40
0
 40
0
 40
0
 40
0
 40
1
 40
1
 40
1
 40
1
 10
140.415478
 20
151.614766
 30
0.0
 10
140.420728
 20
151.619874
 30
0.0
 10
140.440822
 20
151.622115
 30
0.0
 10
140.472253
 20
151.621381
 30
0.0
  0
LWPOLYLINE
  5
232
100
AcDbEntity
  8
Layer_1
 62
7
100
AcDbPolyline
 90
3
 70
0
 10
140.982677
 20
151.550273
 30
0.0
 10
141.511844
 20
151.448850
 30
0.0
 10
141.511844
 20
149.451798
 30
0.0
  0
LWPOLYLINE
  5
233
100
AcDbEntity
  8
Layer_1
 62
7
100
AcDbPolyline
 90
2
 70
0
 10
140.472253
 20
151.621381
 30
0.0
 10
140.472253
 20
151.621381
 30
0.0
  0
SPLINE
  5
234
100
AcDbEntity
  8
Layer_1
 62
7
100
AcDbSpline
 70
8
 71
3
 72
8
 73
4
 74
0
 40
0
 40
0
 40
0
 40
0
 40
1
 40
1
 40
1
 40
1
 10
117.720291
 20
120.090764
 30
0.0
 10
117.911781
 20
119.642225
 30
0.0
 10
118.553580
 20
118.063909
 30
0.0
 10
119.146836
 20
116.582829
 30
0.0
  0
SPLINE
  5
235
100
AcDbEntity
  8
Layer_1
 62
7
100
AcDbSpline
 70
8
 71
3
 72
8
 73
4
 74
0
 40
0
 40
0
 40
0
 40
0
 40
1
 40
1
 40
1
 40
1
 10
119.146836
 20
116.582829
 30
0.0
 10
119.740096
 20
115.101750
 30
0.0
 10
120.949237
 20
112.173067
 30
0.0
 10
121.833459
 20
110.075183
 30
0.0
  0
SPLINE
  5
236
100
AcDbEntity
  8
Layer_1
 62
7
100
AcDbSpline
 70
8
 71
3
 72
8
 73
4
 74
0
 40
0
 40
0
 40
0
 40
0
 40
1
 40
1
 40
1
 40
1
 10
121.833459
 20
110.075183
 30
0.0
 10
122.717681
 20
107.977298
 30
0.0
 10
123.460643
 20
106.099899
 30
0.0
 10
123.484349
 20
105.903035
 30
0.0
  0
SPLINE
  5
237
100
AcDbEntity
  8
Layer_1
 62
7
100
AcDbSpline
 70
8
 71
3
 72
8
 73
4
 74
0
 40
0
 40
0
 40
0
 40
0
 40
1
 40
1
 40
1
 40
1
 10
123.484349
 20
105.903035
 30
0.0
 10
123.513449
 20
105.661247
 30
0.0
 10
121.657319
 20
103.669218
 30
0.0
 10
117.764388
 20
99.763598
 30
0.0
  0
SPLINE
  5
238
100
AcDbEntity
  8
Layer_1
 62
7
100
AcDbSpline
 70
8
 71
3
 72
8
 73
4
 74
0
 40
0
 40
0
 40
0
 40
0
 40
1
 40
1
 40
1
 40
1
 10
117.764388
 20
99.763598
 30
0.0
 10
114.594767
 20
96.583645
 30
0.0
 10
111.997837
 20
93.995128
 30
0.0
 10
111.993714
 20
94.011667
 30
0.0
  0
SPLINE
  5
239
100
AcDbEntity
  8
Layer_1
 62
7
100
AcDbSpline
 70
8
 71
3
 72
8
 73
4
 74
0
 40
0
 40
0
 40
0
 40
0
 40
1
 40
1
 40
1
 40
1
 10
111.993714
 20
94.011667
 30
0.0
 10
111.989596
 20
94.028205
 30
0.0
 10
109.392999
 20
96.666136
 30
0.0
 10
106.223593
 20
99.873840
 30
0.0
  0
LWPOLYLINE
  5
23a
100
AcDbEntity
  8
Layer_1
 62
7
100
AcDbPolyline
 90
4
 70
0
 10
106.737878
 20
120.910422
 30
0.0
 10
112.054900
 20
120.908215
 30
0.0
 10
117.371924
 20
120.906564
 30
0.0
 10
117.720291
 20
120.090764
 30
0.0
  0
SPLINE
  5
23b
100
AcDbEntity
  8
Layer_1
 62
7
100
AcDbSpline
 70
8
 71
3
 72
8
 73
4
 74
0
 40
0
 40
0
 40
0
 40
0
 40
1
 40
1
 40
1
 40
1
 10
100.718056
 20
106.431649
 30
0.0
 10
100.859435
 20
106.830756
 30
0.0
 10
101.222929
 20
107.692998
 30
0.0
 10
101.525586
 20
108.347122
 30
0.0
  0
SPLINE
  5
23c
100
AcDbEntity
  8
Layer_1
 62
7
100
AcDbSpline
 70
8
 71
3
 72
8
 73
4
 74
0
 40
0
 40
0
 40
0
 40
0
 40
1
 40
1
 40
1
 40
1
 10
101.525586
 20
108.347122
 30
0.0
 10
101.828247
 20
109.001245
 30
0.0
 10
102.255506
 20
109.996121
 30
0.0
 10
102.474779
 20
110.558598
 30
0.0
  0
SPLINE
  5
23d
100
AcDbEntity
  8
Layer_1
 62
7
100
AcDbSpline
 70
8
 71
3
 72
8
 73
4
 74
0
 40
0
 40
0
 40
0
 40
0
 40
1
 40
1
 40
1
 40
1
 10
102.474779
 20
110.558598
 30
0.0
 10
102.694049
 20
111.121073
 30
0.0
 10
103.117515
 20
112.144168
 30
0.0
 10
103.416255
 20
112.831811
 30
0.0
  0
SPLINE
  5
23e
100
AcDbEntity
  8
Layer_1
 62
7
100
AcDbSpline
 70
8
 71
3
 72
8
 73
4
 74
0
 40
0
 40
0
 40
0
 40
0
 40
1
 40
1
 40
1
 40
1
 10
103.416255
 20
112.831811
 30
0.0
 10
103.714996
 20
113.519454
 30
0.0
 10
104.199385
 20
114.731059
 30
0.0
 10
104.492227
 20
115.524496
 30
0.0
  0
SPLINE
  5
23f
100
AcDbEntity
  8
Layer_1
 62
7
100
AcDbSpline
 70
8
 71
3
 72
8
 73
4
 74
0
 40
0
 40
0
 40
0
 40
0
 40
1
 40
1
 40
1
 40
1
 10
104.492227
 20
115.524496
 30
0.0
 10
104.785070
 20
116.317930
 30
0.0
 10
105.410062
 20
117.854362
 30
0.0
 10
105.881289
 20
118.938724
 30
0.0
  0
LWPOLYLINE
  5
240
100
AcDbEntity
  8
Layer_1
 62
7
100
AcDbPolyline
 90
3
 70
0
 10
106.223593
 20
99.873840
 30
0.0
 10
100.461188
 20
105.706250
 30
0.0
 10
100.718056
 20
106.431649
 30
0.0
  0
LWPOLYLINE
  5
241
100
AcDbEntity
  8
Layer_1
 62
7
100
AcDbPolyline
 90
3
 70
0
 10
105.881289
 20
118.938724
 30
0.0
 10
106.737878
 20
120.910422
 30
0.0
 10
106.737878
 20
120.910422
 30
0.0
  0
SPLINE
  5
242
100
AcDbEntity
  8
Layer_1
 62
7
100
AcDbSpline
 70
8
 71
3
 72
8
 73
4
 74
0
 40
0
 40
0
 40
0
 40
0
 40
1
 40
1
 40
1
 40
1
 10
107.026162
 20
117.078372
 30
0.0
 10
106.527642
 20
115.922852
 30
0.0
 10
106.119964
 20
114.898335
 30
0.0
 10
106.119964
 20
114.801855
 30
0.0
  0
SPLINE
  5
243
100
AcDbEntity
  8
Layer_1
 62
7
100
AcDbSpline
 70
8
 71
3
 72
8
 73
4
 74
0
 40
0
 40
0
 40
0
 40
0
 40
1
 40
1
 40
1
 40
1
 10
106.119964
 20
114.801855
 30
0.0
 10
106.119964
 20
114.631285
 30
0.0
 10
105.742449
 20
113.704408
 30
0.0
 10
103.556813
 20
108.504218
 30
0.0
  0
LWPOLYLINE
  5
244
100
AcDbEntity
  8
Layer_1
 62
7
100
AcDbPolyline
 90
2
 70
0
 10
107.932361
 20
119.179053
 30
0.0
 10
107.026162
 20
117.078372
 30
0.0
  0
SPLINE
  5
245
100
AcDbEntity
  8
Layer_1
 62
7
100
AcDbSpline
 70
8
 71
3
 72
8
 73
4
 74
0
 40
0
 40
0
 40
0
 40
0
 40
1
 40
1
 40
1
 40
1
 10
120.645592
 20
108.242942
 30
0.0
 10
120.142042
 20
109.444535
 30
0.0
 10
119.538313
 20
110.860325
 30
0.0
 10
119.303933
 20
111.389280
 30
0.0
  0
SPLINE
  5
246
100
AcDbEntity
  8
Layer_1
 62
7
100
AcDbSpline
 70
8
 71
3
 72
8
 73
4
 74
0
 40
0
 40
0
 40
0
 40
0
 40
1
 40
1
 40
1
 40
1
 10
119.303933
 20
111.389280
 30
0.0
 10
118.895038
 20
112.312093
 30
0.0
 10
118.694584
 20
112.820155
 30
0.0
 10
117.558786
 20
115.813333
 30
0.0
  0
SPLINE
  5
247
100
AcDbEntity
  8
Layer_1
 62
7
100
AcDbSpline
 70
8
 71
3
 72
8
 73
4
 74
0
 40
0
 40
0
 40
0
 40
0
 40
1
 40
1
 40
1
 40
1
 10
117.558786
 20
115.813333
 30
0.0
 10
117.277777
 20
116.553873
 30
0.0
 10
116.833379
 20
117.613824
 30
0.0
 10
116.571008
 20
118.169228
 30
0.0
  0
LWPOLYLINE
  5
248
100
AcDbEntity
  8
Layer_1
 62
7
100
AcDbPolyline
 90
7
 70
0
 10
103.556813
 20
108.504218
 30
0.0
 10
102.505645
 20
106.003354
 30
0.0
 10
107.244995
 20
101.242508
 30
0.0
 10
111.984344
 20
96.481111
 30
0.0
 10
116.772752
 20
101.269519
 30
0.0
 10
121.561160
 20
106.057924
 30
0.0
 10
120.645592
 20
108.242942
 30
0.0
  0
SPLINE
  5
249
100
AcDbEntity
  8
Layer_1
 62
7
100
AcDbSpline
 70
8
 71
3
 72
8
 73
4
 74
0
 40
0
 40
0
 40
0
 40
0
 40
1
 40
1
 40
1
 40
1
 10
113.214105
 20
118.458063
 30
0.0
 10
113.201574
 20
118.061346
 30
0.0
 10
113.208500
 20
117.649940
 30
0.0
 10
113.230090
 20
117.544149
 30
0.0
  0
SPLINE
  5
24a
100
AcDbEntity
  8
Layer_1
 62
7
100
AcDbSpline
 70
8
 71
3
 72
8
 73
4
 74
0
 40
0
 40
0
 40
0
 40
0
 40
1
 40
1
 40
1
 40
1
 10
113.230090
 20
117.544149
 30
0.0
 10
113.281045
 20
117.294506
 30
0.0
 10
112.226341
 20
105.067000
 30
0.0
 10
112.144748
 20
104.961559
 30
0.0
  0
SPLINE
  5
24b
100
AcDbEntity
  8
Layer_1
 62
7
100
AcDbSpline
 70
8
 71
3
 72
8
 73
4
 74
0
 40
0
 40
0
 40
0
 40
0
 40
1
 40
1
 40
1
 40
1
 10
112.144748
 20
104.961559
 30
0.0
 10
112.110636
 20
104.917467
 30
0.0
 10
112.034839
 20
104.929253
 30
0.0
 10
111.976628
 20
104.987464
 30
0.0
  0
SPLINE
  5
24c
100
AcDbEntity
  8
Layer_1
 62
7
100
AcDbSpline
 70
8
 71
3
 72
8
 73
4
 74
0
 40
0
 40
0
 40
0
 40
0
 40
1
 40
1
 40
1
 40
1
 10
111.976628
 20
104.987464
 30
0.0
 10
111.832839
 20
105.131253
 30
0.0
 10
110.964063
 20
115.073756
 30
0.0
 10
110.939792
 20
116.853477
 30
0.0
  0
SPLINE
  5
24d
100
AcDbEntity
  8
Layer_1
 62
7
100
AcDbSpline
 70
8
 71
3
 72
8
 73
4
 74
0
 40
0
 40
0
 40
0
 40
0
 40
1
 40
1
 40
1
 40
1
 10
110.939792
 20
116.853477
 30
0.0
 10
110.907726
 20
119.204978
 30
0.0
 10
110.926047
 20
119.179053
 30
0.0
 10
109.313706
 20
119.179053
 30
0.0
  0
LWPOLYLINE
  5
24e
100
AcDbEntity
  8
Layer_1
 62
7
100
AcDbPolyline
 90
5
 70
0
 10
116.571008
 20
118.169228
 30
0.0
 10
116.093655
 20
119.179053
 30
0.0
 10
114.665455
 20
119.179053
 30
0.0
 10
113.236705
 20
119.179053
 30
0.0
 10
113.214105
 20
118.458063
 30
0.0
  0
SPLINE
  5
24f
100
AcDbEntity
  8
Layer_1
 62
7
100
AcDbSpline
 70
8
 71
3
 72
8
 73
4
 74
0
 40
0
 40
0
 40
0
 40
0
 40
1
 40
1
 40
1
 40
1
 10
93.626672
 20
95.135594
 30
0.0
 10
94.006755
 20
95.135594
 30
0.0
 10
95.155743
 20
93.918313
 30
0.0
 10
95.155743
 20
93.515574
 30
0.0
  0
SPLINE
  5
250
100
AcDbEntity
  8
Layer_1
 62
7
100
AcDbSpline
 70
8
 71
3
 72
8
 73
4
 74
0
 40
0
 40
0
 40
0
 40
0
 40
1
 40
1
 40
1
 40
1
 10
95.155743
 20
93.515574
 30
0.0
 10
95.155743
 20
92.953426
 30
0.0
 10
93.884104
 20
91.481036
 30
0.0
 10
93.398467
 20
91.481036
 30
0.0
  0
SPLINE
  5
251
100
AcDbEntity
  8
Layer_1
 62
7
100
AcDbSpline
 70
8
 71
3
 72
8
 73
4
 74
0
 40
0
 40
0
 40
0
 40
0
 40
1
 40
1
 40
1
 40
1
 10
93.398467
 20
91.481036
 30
0.0
 10
93.188858
 20
91.481036
 30
0.0
 10
93.071710
 20
91.393088
 30
0.0
 10
93.138295
 20
91.285355
 30
0.0
  0
SPLINE
  5
252
100
AcDbEntity
  8
Layer_1
 62
7
100
AcDbSpline
 70
8
 71
3
 72
8
 73
4
 74
0
 40
0
 40
0
 40
0
 40
0
 40
1
 40
1
 40
1
 40
1
 10
93.138295
 20
91.285355
 30
0.0
 10
93.292716
 20
91.035495
 30
0.0
 10
92.559248
 20
89.839175
 30
0.0
 10
92.019879
 20
89.461384
 30
0.0
  0
SPLINE
  5
253
100
AcDbEntity
  8
Layer_1
 62
7
100
AcDbSpline
 70
8
 71
3
 72
8
 73
4
 74
0
 40
0
 40
0
 40
0
 40
0
 40
1
 40
1
 40
1
 40
1
 10
92.019879
 20
89.461384
 30
0.0
 10
91.793435
 20
89.302778
 30
0.0
 10
91.468245
 20
89.173099
 30
0.0
 10
91.297235
 20
89.173099
 30
0.0
  0
SPLINE
  5
254
100
AcDbEntity
  8
Layer_1
 62
7
100
AcDbSpline
 70
8
 71
3
 72
8
 73
4
 74
0
 40
0
 40
0
 40
0
 40
0
 40
1
 40
1
 40
1
 40
1
 10
91.297235
 20
89.173099
 30
0.0
 10
90.979529
 20
89.173099
 30
0.0
 10
89.597281
 20
90.128613
 30
0.0
 10
89.584609
 20
90.357109
 30
0.0
  0
SPLINE
  5
255
100
AcDbEntity
  8
Layer_1
 62
7
100
AcDbSpline
 70
8
 71
3
 72
8
 73
4
 74
0
 40
0
 40
0
 40
0
 40
0
 40
1
 40
1
 40
1
 40
1
 10
89.584609
 20
90.357109
 30
0.0
 10
89.573207
 20
90.562333
 30
0.0
 10
93.441689
 20
95.135594
 30
0.0
 10
93.626672
 20
95.135594
 30
0.0
  0
LWPOLYLINE
  5
256
100
AcDbEntity
  8
Layer_1
 62
7
100
AcDbPolyline
 90
3
 70
0
 10
109.313706
 20
119.179053
 30
0.0
 10
107.932361
 20
119.179053
 30
0.0
 10
107.932361
 20
119.179053
 30
0.0
  0
SPLINE
  5
257
100
AcDbEntity
  8
Layer_1
 62
7
100
AcDbSpline
 70
8
 71
3
 72
8
 73
4
 74
0
 40
0
 40
0
 40
0
 40
0
 40
1
 40
1
 40
1
 40
1
 10
129.510234
 20
94.366649
 30
0.0
 10
129.931425
 20
94.366649
 30
0.0
 10
130.740548
 20
93.493044
 30
0.0
 10
130.740548
 20
93.038220
 30
0.0
  0
SPLINE
  5
258
100
AcDbEntity
  8
Layer_1
 62
7
100
AcDbSpline
 70
8
 71
3
 72
8
 73
4
 74
0
 40
0
 40
0
 40
0
 40
0
 40
1
 40
1
 40
1
 40
1
 10
130.740548
 20
93.038220
 30
0.0
 10
130.740548
 20
92.730917
 30
0.0
 10
130.249445
 20
92.780495
 30
0.0
 10
129.971049
 20
93.115941
 30
0.0
  0
SPLINE
  5
259
100
AcDbEntity
  8
Layer_1
 62
7
100
AcDbSpline
 70
8
 71
3
 72
8
 73
4
 74
0
 40
0
 40
0
 40
0
 40
0
 40
1
 40
1
 40
1
 40
1
 10
129.971049
 20
93.115941
 30
0.0
 10
129.633300
 20
93.522903
 30
0.0
 10
129.009180
 20
93.484792
 30
0.0
 10
129.009180
 20
93.056963
 30
0.0
  0
SPLINE
  5
25a
100
AcDbEntity
  8
Layer_1
 62
7
100
AcDbSpline
 70
8
 71
3
 72
8
 73
4
 74
0
 40
0
 40
0
 40
0
 40
0
 40
1
 40
1
 40
1
 40
1
 10
129.009180
 20
93.056963
 30
0.0
 10
129.009180
 20
92.365622
 30
0.0
 10
129.493718
 20
91.977637
 30
0.0
 10
130.297922
 20
92.025088
 30
0.0
  0
SPLINE
  5
25b
100
AcDbEntity
  8
Layer_1
 62
7
100
AcDbSpline
 70
8
 71
3
 72
8
 73
4
 74
0
 40
0
 40
0
 40
0
 40
0
 40
1
 40
1
 40
1
 40
1
 10
130.297922
 20
92.025088
 30
0.0
 10
131.313648
 20
92.085020
 30
0.0
 10
132.179989
 20
91.689991
 30
0.0
 10
132.760751
 20
90.902814
 30
0.0
  0
SPLINE
  5
25c
100
AcDbEntity
  8
Layer_1
 62
7
100
AcDbSpline
 70
8
 71
3
 72
8
 73
4
 74
0
 40
0
 40
0
 40
0
 40
0
 40
1
 40
1
 40
1
 40
1
 10
132.760751
 20
90.902814
 30
0.0
 10
133.376811
 20
90.067795
 30
0.0
 10
133.368505
 20
89.493814
 30
0.0
 10
132.733742
 20
88.994506
 30
0.0
  0
SPLINE
  5
25d
100
AcDbEntity
  8
Layer_1
 62
7
100
AcDbSpline
 70
8
 71
3
 72
8
 73
4
 74
0
 40
0
 40
0
 40
0
 40
0
 40
1
 40
1
 40
1
 40
1
 10
132.733742
 20
88.994506
 30
0.0
 10
132.454997
 20
88.775245
 30
0.0
 10
132.037816
 20
88.595977
 30
0.0
 10
131.806047
 20
88.595977
 30
0.0
  0
SPLINE
  5
25e
100
AcDbEntity
  8
Layer_1
 62
7
100
AcDbSpline
 70
8
 71
3
 72
8
 73
4
 74
0
 40
0
 40
0
 40
0
 40
0
 40
1
 40
1
 40
1
 40
1
 10
131.806047
 20
88.595977
 30
0.0
 10
131.371049
 20
88.595977
 30
0.0
 10
130.548174
 20
89.319973
 30
0.0
 10
130.548174
 20
89.702816
 30
0.0
  0
SPLINE
  5
25f
100
AcDbEntity
  8
Layer_1
 62
7
100
AcDbSpline
 70
8
 71
3
 72
8
 73
4
 74
0
 40
0
 40
0
 40
0
 40
0
 40
1
 40
1
 40
1
 40
1
 10
130.548174
 20
89.702816
 30
0.0
 10
130.548174
 20
90.149518
 30
0.0
 10
130.996484
 20
90.175465
 30
0.0
 10
131.319324
 20
89.747464
 30
0.0
  0
SPLINE
  5
260
100
AcDbEntity
  8
Layer_1
 62
7
100
AcDbSpline
 70
8
 71
3
 72
8
 73
4
 74
0
 40
0
 40
0
 40
0
 40
0
 40
1
 40
1
 40
1
 40
1
 10
131.319324
 20
89.747464
 30
0.0
 10
131.532102
 20
89.465374
 30
0.0
 10
131.766225
 20
89.348932
 30
0.0
 10
131.965898
 20
89.425556
 30
0.0
  0
SPLINE
  5
261
100
AcDbEntity
  8
Layer_1
 62
7
100
AcDbSpline
 70
8
 71
3
 72
8
 73
4
 74
0
 40
0
 40
0
 40
0
 40
0
 40
1
 40
1
 40
1
 40
1
 10
131.965898
 20
89.425556
 30
0.0
 10
132.415729
 20
89.598171
 30
0.0
 10
132.352144
 20
90.079453
 30
0.0
 10
131.807148
 20
90.624450
 30
0.0
  0
SPLINE
  5
262
100
AcDbEntity
  8
Layer_1
 62
7
100
AcDbSpline
 70
8
 71
3
 72
8
 73
4
 74
0
 40
0
 40
0
 40
0
 40
0
 40
1
 40
1
 40
1
 40
1
 10
131.807148
 20
90.624450
 30
0.0
 10
131.442395
 20
90.989205
 30
0.0
 10
131.133094
 20
91.096289
 30
0.0
 10
130.447852
 20
91.096289
 30
0.0
  0
SPLINE
  5
263
100
AcDbEntity
  8
Layer_1
 62
7
100
AcDbSpline
 70
8
 71
3
 72
8
 73
4
 74
0
 40
0
 40
0
 40
0
 40
0
 40
1
 40
1
 40
1
 40
1
 10
130.447852
 20
91.096289
 30
0.0
 10
129.960029
 20
91.096289
 30
0.0
 10
129.393710
 20
91.185948
 30
0.0
 10
129.189426
 20
91.295278
 30
0.0
  0
SPLINE
  5
264
100
AcDbEntity
  8
Layer_1
 62
7
100
AcDbSpline
 70
8
 71
3
 72
8
 73
4
 74
0
 40
0
 40
0
 40
0
 40
0
 40
1
 40
1
 40
1
 40
1
 10
129.189426
 20
91.295278
 30
0.0
 10
128.721217
 20
91.545854
 30
0.0
 10
127.988678
 20
92.955275
 30
0.0
 10
128.164717
 20
93.266975
 30
0.0
  0
SPLINE
  5
265
100
AcDbEntity
  8
Layer_1
 62
7
100
AcDbSpline
 70
8
 71
3
 72
8
 73
4
 74
0
 40
0
 40
0
 40
0
 40
0
 40
1
 40
1
 40
1
 40
1
 10
128.164717
 20
93.266975
 30
0.0
 10
128.502850
 20
93.865693
 30
0.0
 10
129.115617
 20
94.366649
 30
0.0
 10
129.510234
 20
94.366649
 30
0.0
  0
LWPOLYLINE
  5
266
100
AcDbEntity
  8
Layer_1
 62
7
100
AcDbPolyline
 90
2
 70
0
 10
93.626672
 20
95.135594
 30
0.0
 10
93.626672
 20
95.135594
 30
0.0
  0
SPLINE
  5
267
100
AcDbEntity
  8
Layer_1
 62
7
100
AcDbSpline
 70
8
 71
3
 72
8
 73
4
 74
0
 40
0
 40
0
 40
0
 40
0
 40
1
 40
1
 40
1
 40
1
 10
93.853220
 20
93.981901
 30
0.0
 10
93.764862
 20
93.981901
 30
0.0
 10
93.402576
 20
93.682517
 30
0.0
 10
93.047896
 20
93.316584
 30
0.0
  0
SPLINE
  5
268
100
AcDbEntity
  8
Layer_1
 62
7
100
AcDbSpline
 70
8
 71
3
 72
8
 73
4
 74
0
 40
0
 40
0
 40
0
 40
0
 40
1
 40
1
 40
1
 40
1
 10
93.047896
 20
93.316584
 30
0.0
 10
92.517431
 20
92.769282
 30
0.0
 10
92.444897
 20
92.600702
 30
0.0
 10
92.639444
 20
92.366289
 30
0.0
  0
SPLINE
  5
269
100
AcDbEntity
  8
Layer_1
 62
7
100
AcDbSpline
 70
8
 71
3
 72
8
 73
4
 74
0
 40
0
 40
0
 40
0
 40
0
 40
1
 40
1
 40
1
 40
1
 10
92.639444
 20
92.366289
 30
0.0
 10
92.945399
 20
91.997636
 30
0.0
 10
93.264019
 20
92.130853
 30
0.0
 10
93.795895
 20
92.850257
 30
0.0
  0
SPLINE
  5
26a
100
AcDbEntity
  8
Layer_1
 62
7
100
AcDbSpline
 70
8
 71
3
 72
8
 73
4
 74
0
 40
0
 40
0
 40
0
 40
0
 40
1
 40
1
 40
1
 40
1
 10
93.795895
 20
92.850257
 30
0.0
 10
94.195121
 20
93.390236
 30
0.0
 10
94.225000
 20
93.981901
 30
0.0
 10
93.853220
 20
93.981901
 30
0.0
  0
LWPOLYLINE
  5
26b
100
AcDbEntity
  8
Layer_1
 62
7
100
AcDbPolyline
 90
2
 70
0
 10
129.510234
 20
94.366649
 30
0.0
 10
129.510234
 20
94.366649
 30
0.0
  0
SPLINE
  5
26c
100
AcDbEntity
  8
Layer_1
 62
7
100
AcDbSpline
 70
8
 71
3
 72
8
 73
4
 74
0
 40
0
 40
0
 40
0
 40
0
 40
1
 40
1
 40
1
 40
1
 10
91.982397
 20
91.786963
 30
0.0
 10
91.705777
 20
91.857569
 30
0.0
 10
90.679341
 20
90.567731
 30
0.0
 10
90.824843
 20
90.332305
 30
0.0
  0
SPLINE
  5
26d
100
AcDbEntity
  8
Layer_1
 62
7
100
AcDbSpline
 70
8
 71
3
 72
8
 73
4
 74
0
 40
0
 40
0
 40
0
 40
0
 40
1
 40
1
 40
1
 40
1
 10
90.824843
 20
90.332305
 30
0.0
 10
91.038288
 20
89.986944
 30
0.0
 10
91.585652
 20
90.130775
 30
0.0
 10
91.947119
 20
90.627204
 30
0.0
  0
SPLINE
  5
26e
100
AcDbEntity
  8
Layer_1
 62
7
100
AcDbSpline
 70
8
 71
3
 72
8
 73
4
 74
0
 40
0
 40
0
 40
0
 40
0
 40
1
 40
1
 40
1
 40
1
 10
91.947119
 20
90.627204
 30
0.0
 10
92.306129
 20
91.120275
 30
0.0
 10
92.323889
 20
91.699795
 30
0.0
 10
91.982397
 20
91.786963
 30
0.0
  0
LWPOLYLINE
  5
26f
100
AcDbEntity
  8
Layer_1
 62
7
100
AcDbPolyline
 90
2
 70
0
 10
93.853220
 20
93.981901
 30
0.0
 10
93.853220
 20
93.981901
 30
0.0
  0
SPLINE
  5
270
100
AcDbEntity
  8
Layer_1
 62
7
100
AcDbSpline
 70
8
 71
3
 72
8
 73
4
 74
0
 40
0
 40
0
 40
0
 40
0
 40
1
 40
1
 40
1
 40
1
 10
98.358302
 20
91.577500
 30
0.0
 10
98.554207
 20
91.577500
 30
0.0
 10
98.714388
 20
91.490917
 30
0.0
 10
98.714388
 20
91.385126
 30
0.0
  0
SPLINE
  5
271
100
AcDbEntity
  8
Layer_1
 62
7
100
AcDbSpline
 70
8
 71
3
 72
8
 73
4
 74
0
 40
0
 40
0
 40
0
 40
0
 40
1
 40
1
 40
1
 40
1
 10
98.714388
 20
91.385126
 30
0.0
 10
98.714388
 20
91.279335
 30
0.0
 10
98.065291
 20
90.047861
 30
0.0
 10
97.271857
 20
88.648894
 30
0.0
  0
SPLINE
  5
272
100
AcDbEntity
  8
Layer_1
 62
7
100
AcDbSpline
 70
8
 71
3
 72
8
 73
4
 74
0
 40
0
 40
0
 40
0
 40
0
 40
1
 40
1
 40
1
 40
1
 10
97.271857
 20
88.648894
 30
0.0
 10
96.478423
 20
87.249930
 30
0.0
 10
95.718495
 20
86.103447
 30
0.0
 10
95.582935
 20
86.100625
 30
0.0
  0
SPLINE
  5
273
100
AcDbEntity
  8
Layer_1
 62
7
100
AcDbSpline
 70
8
 71
3
 72
8
 73
4
 74
0
 40
0
 40
0
 40
0
 40
0
 40
1
 40
1
 40
1
 40
1
 10
95.582935
 20
86.100625
 30
0.0
 10
95.099003
 20
86.090747
 30
0.0
 10
95.133389
 20
86.660540
 30
0.0
 10
95.669475
 20
87.534336
 30
0.0
  0
SPLINE
  5
274
100
AcDbEntity
  8
Layer_1
 62
7
100
AcDbSpline
 70
8
 71
3
 72
8
 73
4
 74
0
 40
0
 40
0
 40
0
 40
0
 40
1
 40
1
 40
1
 40
1
 10
95.669475
 20
87.534336
 30
0.0
 10
95.969006
 20
88.022561
 30
0.0
 10
96.616407
 20
89.132234
 30
0.0
 10
97.108145
 20
89.999923
 30
0.0
  0
SPLINE
  5
275
100
AcDbEntity
  8
Layer_1
 62
7
100
AcDbSpline
 70
8
 71
3
 72
8
 73
4
 74
0
 40
0
 40
0
 40
0
 40
0
 40
1
 40
1
 40
1
 40
1
 10
97.108145
 20
89.999923
 30
0.0
 10
97.723285
 20
91.085369
 30
0.0
 10
98.113226
 20
91.577500
 30
0.0
 10
98.358302
 20
91.577500
 30
0.0
  0
LWPOLYLINE
  5
276
100
AcDbEntity
  8
Layer_1
 62
7
100
AcDbPolyline
 90
2
 70
0
 10
91.982397
 20
91.786963
 30
0.0
 10
91.982397
 20
91.786963
 30
0.0
  0
SPLINE
  5
277
100
AcDbEntity
  8
Layer_1
 62
7
100
AcDbSpline
 70
8
 71
3
 72
8
 73
4
 74
0
 40
0
 40
0
 40
0
 40
0
 40
1
 40
1
 40
1
 40
1
 10
125.152878
 20
91.430327
 30
0.0
 10
125.248842
 20
91.420647
 30
0.0
 10
125.308196
 20
91.368365
 30
0.0
 10
125.364545
 20
91.279293
 30
0.0
  0
SPLINE
  5
278
100
AcDbEntity
  8
Layer_1
 62
7
100
AcDbSpline
 70
8
 71
3
 72
8
 73
4
 74
0
 40
0
 40
0
 40
0
 40
0
 40
1
 40
1
 40
1
 40
1
 10
125.364545
 20
91.279293
 30
0.0
 10
125.631471
 20
90.857351
 30
0.0
 10
125.600099
 20
90.801076
 30
0.0
 10
124.888295
 20
90.417742
 30
0.0
  0
LWPOLYLINE
  5
279
100
AcDbEntity
  8
Layer_1
 62
7
100
AcDbPolyline
 90
2
 70
0
 10
98.358302
 20
91.577500
 30
0.0
 10
98.358302
 20
91.577500
 30
0.0
  0
SPLINE
  5
27a
100
AcDbEntity
  8
Layer_1
 62
7
100
AcDbSpline
 70
8
 71
3
 72
8
 73
4
 74
0
 40
0
 40
0
 40
0
 40
0
 40
1
 40
1
 40
1
 40
1
 10
124.623158
 20
89.281137
 30
0.0
 10
124.839809
 20
88.851304
 30
0.0
 10
125.033778
 20
88.479476
 30
0.0
 10
125.054210
 20
88.454866
 30
0.0
  0
SPLINE
  5
27b
100
AcDbEntity
  8
Layer_1
 62
7
100
AcDbSpline
 70
8
 71
3
 72
8
 73
4
 74
0
 40
0
 40
0
 40
0
 40
0
 40
1
 40
1
 40
1
 40
1
 10
125.054210
 20
88.454866
 30
0.0
 10
125.074643
 20
88.430257
 30
0.0
 10
125.370759
 20
88.515541
 30
0.0
 10
125.712361
 20
88.644483
 30
0.0
  0
SPLINE
  5
27c
100
AcDbEntity
  8
Layer_1
 62
7
100
AcDbSpline
 70
8
 71
3
 72
8
 73
4
 74
0
 40
0
 40
0
 40
0
 40
0
 40
1
 40
1
 40
1
 40
1
 10
125.712361
 20
88.644483
 30
0.0
 10
126.226866
 20
88.838686
 30
0.0
 10
126.362895
 20
88.831647
 30
0.0
 10
126.504457
 20
88.602590
 30
0.0
  0
SPLINE
  5
27d
100
AcDbEntity
  8
Layer_1
 62
7
100
AcDbSpline
 70
8
 71
3
 72
8
 73
4
 74
0
 40
0
 40
0
 40
0
 40
0
 40
1
 40
1
 40
1
 40
1
 10
126.504457
 20
88.602590
 30
0.0
 10
126.628886
 20
88.401258
 30
0.0
 10
126.522181
 20
88.233031
 30
0.0
 10
126.111993
 20
87.983575
 30
0.0
  0
LWPOLYLINE
  5
27e
100
AcDbEntity
  8
Layer_1
 62
7
100
AcDbPolyline
 90
3
 70
0
 10
124.888295
 20
90.417742
 30
0.0
 10
124.229591
 20
90.062760
 30
0.0
 10
124.623158
 20
89.281137
 30
0.0
  0
SPLINE
  5
27f
100
AcDbEntity
  8
Layer_1
 62
7
100
AcDbSpline
 70
8
 71
3
 72
8
 73
4
 74
0
 40
0
 40
0
 40
0
 40
0
 40
1
 40
1
 40
1
 40
1
 10
127.030869
 20
86.250005
 30
0.0
 10
127.583342
 20
86.513462
 30
0.0
 10
127.711121
 20
86.520210
 30
0.0
 10
127.850525
 20
86.294653
 30
0.0
  0
SPLINE
  5
280
100
AcDbEntity
  8
Layer_1
 62
7
100
AcDbSpline
 70
8
 71
3
 72
8
 73
4
 74
0
 40
0
 40
0
 40
0
 40
0
 40
1
 40
1
 40
1
 40
1
 10
127.850525
 20
86.294653
 30
0.0
 10
127.970952
 20
86.099798
 30
0.0
 10
127.783663
 20
85.880325
 30
0.0
 10
127.159300
 20
85.484367
 30
0.0
  0
SPLINE
  5
281
100
AcDbEntity
  8
Layer_1
 62
7
100
AcDbSpline
 70
8
 71
3
 72
8
 73
4
 74
0
 40
0
 40
0
 40
0
 40
0
 40
1
 40
1
 40
1
 40
1
 10
127.159300
 20
85.484367
 30
0.0
 10
126.688252
 20
85.185635
 30
0.0
 10
126.221329
 20
84.941420
 30
0.0
 10
126.121363
 20
84.941420
 30
0.0
  0
SPLINE
  5
282
100
AcDbEntity
  8
Layer_1
 62
7
100
AcDbSpline
 70
8
 71
3
 72
8
 73
4
 74
0
 40
0
 40
0
 40
0
 40
0
 40
1
 40
1
 40
1
 40
1
 10
126.121363
 20
84.941420
 30
0.0
 10
126.021394
 20
84.941420
 30
0.0
 10
125.749448
 20
85.309260
 30
0.0
 10
125.517230
 20
85.758871
 30
0.0
  0
SPLINE
  5
283
100
AcDbEntity
  8
Layer_1
 62
7
100
AcDbSpline
 70
8
 71
3
 72
8
 73
4
 74
0
 40
0
 40
0
 40
0
 40
0
 40
1
 40
1
 40
1
 40
1
 10
125.517230
 20
85.758871
 30
0.0
 10
124.562630
 20
87.607139
 30
0.0
 10
123.238508
 20
90.361193
 30
0.0
 10
123.238508
 20
90.498770
 30
0.0
  0
SPLINE
  5
284
100
AcDbEntity
  8
Layer_1
 62
7
100
AcDbSpline
 70
8
 71
3
 72
8
 73
4
 74
0
 40
0
 40
0
 40
0
 40
0
 40
1
 40
1
 40
1
 40
1
 10
123.238508
 20
90.498770
 30
0.0
 10
123.238508
 20
90.579799
 30
0.0
 10
123.677099
 20
90.851322
 30
0.0
 10
124.213056
 20
91.102353
 30
0.0
  0
SPLINE
  5
285
100
AcDbEntity
  8
Layer_1
 62
7
100
AcDbSpline
 70
8
 71
3
 72
8
 73
4
 74
0
 40
0
 40
0
 40
0
 40
0
 40
1
 40
1
 40
1
 40
1
 10
124.213056
 20
91.102353
 30
0.0
 10
124.731060
 20
91.344971
 30
0.0
 10
124.992937
 20
91.446442
 30
0.0
 10
125.152878
 20
91.430327
 30
0.0
  0
LWPOLYLINE
  5
286
100
AcDbEntity
  8
Layer_1
 62
7
100
AcDbPolyline
 90
5
 70
0
 10
126.111993
 20
87.983575
 30
0.0
 10
125.548650
 20
87.640720
 30
0.0
 10
125.962613
 20
86.789092
 30
0.0
 10
126.376024
 20
85.938017
 30
0.0
 10
127.030869
 20
86.250005
 30
0.0
  0
SPLINE
  5
287
100
AcDbEntity
  8
Layer_1
 62
7
100
AcDbSpline
 70
8
 71
3
 72
8
 73
4
 74
0
 40
0
 40
0
 40
0
 40
0
 40
1
 40
1
 40
1
 40
1
 10
102.413043
 20
89.737544
 30
0.0
 10
102.621726
 20
89.723941
 30
0.0
 10
102.858158
 20
89.650473
 30
0.0
 10
103.134033
 20
89.524774
 30
0.0
  0
SPLINE
  5
288
100
AcDbEntity
  8
Layer_1
 62
7
100
AcDbSpline
 70
8
 71
3
 72
8
 73
4
 74
0
 40
0
 40
0
 40
0
 40
0
 40
1
 40
1
 40
1
 40
1
 10
103.134033
 20
89.524774
 30
0.0
 10
103.712704
 20
89.261116
 30
0.0
 10
103.920569
 20
88.633874
 30
0.0
 10
103.674223
 20
87.894830
 30
0.0
  0
SPLINE
  5
289
100
AcDbEntity
  8
Layer_1
 62
7
100
AcDbSpline
 70
8
 71
3
 72
8
 73
4
 74
0
 40
0
 40
0
 40
0
 40
0
 40
1
 40
1
 40
1
 40
1
 10
103.674223
 20
87.894830
 30
0.0
 10
103.478068
 20
87.306369
 30
0.0
 10
103.261984
 20
87.177901
 30
0.0
 10
102.878269
 20
87.420784
 30
0.0
  0
SPLINE
  5
28a
100
AcDbEntity
  8
Layer_1
 62
7
100
AcDbSpline
 70
8
 71
3
 72
8
 73
4
 74
0
 40
0
 40
0
 40
0
 40
0
 40
1
 40
1
 40
1
 40
1
 10
102.878269
 20
87.420784
 30
0.0
 10
102.671713
 20
87.551529
 30
0.0
 10
102.664494
 20
87.672868
 30
0.0
 10
102.844645
 20
88.009483
 30
0.0
  0
SPLINE
  5
28b
100
AcDbEntity
  8
Layer_1
 62
7
100
AcDbSpline
 70
8
 71
3
 72
8
 73
4
 74
0
 40
0
 40
0
 40
0
 40
0
 40
1
 40
1
 40
1
 40
1
 10
102.844645
 20
88.009483
 30
0.0
 10
102.969537
 20
88.242785
 30
0.0
 10
103.024734
 20
88.556904
 30
0.0
 10
102.967014
 20
88.707323
 30
0.0
  0
SPLINE
  5
28c
100
AcDbEntity
  8
Layer_1
 62
7
100
AcDbSpline
 70
8
 71
3
 72
8
 73
4
 74
0
 40
0
 40
0
 40
0
 40
0
 40
1
 40
1
 40
1
 40
1
 10
102.967014
 20
88.707323
 30
0.0
 10
102.756078
 20
89.257007
 30
0.0
 10
102.298475
 20
88.963721
 30
0.0
 10
101.967109
 20
88.066811
 30
0.0
  0
SPLINE
  5
28d
100
AcDbEntity
  8
Layer_1
 62
7
100
AcDbSpline
 70
8
 71
3
 72
8
 73
4
 74
0
 40
0
 40
0
 40
0
 40
0
 40
1
 40
1
 40
1
 40
1
 10
101.967109
 20
88.066811
 30
0.0
 10
101.781455
 20
87.564300
 30
0.0
 10
101.570056
 20
87.066864
 30
0.0
 10
101.497474
 20
86.961073
 30
0.0
  0
SPLINE
  5
28e
100
AcDbEntity
  8
Layer_1
 62
7
100
AcDbSpline
 70
8
 71
3
 72
8
 73
4
 74
0
 40
0
 40
0
 40
0
 40
0
 40
1
 40
1
 40
1
 40
1
 10
101.497474
 20
86.961073
 30
0.0
 10
101.309303
 20
86.686801
 30
0.0
 10
100.734041
 20
84.921433
 30
0.0
 10
100.734041
 20
84.618408
 30
0.0
  0
SPLINE
  5
28f
100
AcDbEntity
  8
Layer_1
 62
7
100
AcDbSpline
 70
8
 71
3
 72
8
 73
4
 74
0
 40
0
 40
0
 40
0
 40
0
 40
1
 40
1
 40
1
 40
1
 10
100.734041
 20
84.618408
 30
0.0
 10
100.734041
 20
84.204772
 30
0.0
 10
101.527839
 20
84.319227
 30
0.0
 10
101.640239
 20
84.749046
 30
0.0
  0
SPLINE
  5
290
100
AcDbEntity
  8
Layer_1
 62
7
100
AcDbSpline
 70
8
 71
3
 72
8
 73
4
 74
0
 40
0
 40
0
 40
0
 40
0
 40
1
 40
1
 40
1
 40
1
 10
101.640239
 20
84.749046
 30
0.0
 10
101.706319
 20
85.001728
 30
0.0
 10
101.902218
 20
85.133794
 30
0.0
 10
102.211849
 20
85.133794
 30
0.0
  0
SPLINE
  5
291
100
AcDbEntity
  8
Layer_1
 62
7
100
AcDbSpline
 70
8
 71
3
 72
8
 73
4
 74
0
 40
0
 40
0
 40
0
 40
0
 40
1
 40
1
 40
1
 40
1
 10
102.211849
 20
85.133794
 30
0.0
 10
102.611363
 20
85.133794
 30
0.0
 10
102.663179
 20
85.067878
 30
0.0
 10
102.551950
 20
84.701091
 30
0.0
  0
SPLINE
  5
292
100
AcDbEntity
  8
Layer_1
 62
7
100
AcDbSpline
 70
8
 71
3
 72
8
 73
4
 74
0
 40
0
 40
0
 40
0
 40
0
 40
1
 40
1
 40
1
 40
1
 10
102.551950
 20
84.701091
 30
0.0
 10
102.479769
 20
84.463062
 30
0.0
 10
102.242854
 20
84.073160
 30
0.0
 10
102.024987
 20
83.835131
 30
0.0
  0
SPLINE
  5
293
100
AcDbEntity
  8
Layer_1
 62
7
100
AcDbSpline
 70
8
 71
3
 72
8
 73
4
 74
0
 40
0
 40
0
 40
0
 40
0
 40
1
 40
1
 40
1
 40
1
 10
102.024987
 20
83.835131
 30
0.0
 10
101.561623
 20
83.328875
 30
0.0
 10
100.991196
 20
83.282244
 30
0.0
 10
100.392286
 20
83.701736
 30
0.0
  0
SPLINE
  5
294
100
AcDbEntity
  8
Layer_1
 62
7
100
AcDbSpline
 70
8
 71
3
 72
8
 73
4
 74
0
 40
0
 40
0
 40
0
 40
0
 40
1
 40
1
 40
1
 40
1
 10
100.392286
 20
83.701736
 30
0.0
 10
99.723456
 20
84.170202
 30
0.0
 10
99.783660
 20
84.619461
 30
0.0
 10
100.971062
 20
88.018853
 30
0.0
  0
SPLINE
  5
295
100
AcDbEntity
  8
Layer_1
 62
7
100
AcDbSpline
 70
8
 71
3
 72
8
 73
4
 74
0
 40
0
 40
0
 40
0
 40
0
 40
1
 40
1
 40
1
 40
1
 10
100.971062
 20
88.018853
 30
0.0
 10
101.411010
 20
89.278379
 30
0.0
 10
101.786995
 20
89.778342
 30
0.0
 10
102.413043
 20
89.737544
 30
0.0
  0
LWPOLYLINE
  5
296
100
AcDbEntity
  8
Layer_1
 62
7
100
AcDbPolyline
 90
2
 70
0
 10
125.152878
 20
91.430327
 30
0.0
 10
125.152878
 20
91.430327
 30
0.0
  0
SPLINE
  5
297
100
AcDbEntity
  8
Layer_1
 62
7
100
AcDbSpline
 70
8
 71
3
 72
8
 73
4
 74
0
 40
0
 40
0
 40
0
 40
0
 40
1
 40
1
 40
1
 40
1
 10
118.670586
 20
88.787248
 30
0.0
 10
119.045310
 20
88.786401
 30
0.0
 10
119.167594
 20
88.573445
 30
0.0
 10
119.583951
 20
87.200298
 30
0.0
  0
SPLINE
  5
298
100
AcDbEntity
  8
Layer_1
 62
7
100
AcDbSpline
 70
8
 71
3
 72
8
 73
4
 74
0
 40
0
 40
0
 40
0
 40
0
 40
1
 40
1
 40
1
 40
1
 10
119.583951
 20
87.200298
 30
0.0
 10
119.848430
 20
86.328048
 30
0.0
 10
120.072469
 20
85.527869
 30
0.0
 10
120.081698
 20
85.422078
 30
0.0
  0
SPLINE
  5
299
100
AcDbEntity
  8
Layer_1
 62
7
100
AcDbSpline
 70
8
 71
3
 72
8
 73
4
 74
0
 40
0
 40
0
 40
0
 40
0
 40
1
 40
1
 40
1
 40
1
 10
120.081698
 20
85.422078
 30
0.0
 10
120.217387
 20
83.868055
 30
0.0
 10
120.528105
 20
83.570297
 30
0.0
 10
121.591476
 20
83.974589
 30
0.0
  0
SPLINE
  5
29a
100
AcDbEntity
  8
Layer_1
 62
7
100
AcDbSpline
 70
8
 71
3
 72
8
 73
4
 74
0
 40
0
 40
0
 40
0
 40
0
 40
1
 40
1
 40
1
 40
1
 10
121.591476
 20
83.974589
 30
0.0
 10
121.869443
 20
84.080261
 30
0.0
 10
122.084812
 20
84.087407
 30
0.0
 10
122.084812
 20
83.990574
 30
0.0
  0
SPLINE
  5
29b
100
AcDbEntity
  8
Layer_1
 62
7
100
AcDbSpline
 70
8
 71
3
 72
8
 73
4
 74
0
 40
0
 40
0
 40
0
 40
0
 40
1
 40
1
 40
1
 40
1
 10
122.084812
 20
83.990574
 30
0.0
 10
122.084812
 20
83.896052
 30
0.0
 10
122.134757
 20
83.687571
 30
0.0
 10
122.196160
 20
83.527551
 30
0.0
  0
SPLINE
  5
29c
100
AcDbEntity
  8
Layer_1
 62
7
100
AcDbSpline
 70
8
 71
3
 72
8
 73
4
 74
0
 40
0
 40
0
 40
0
 40
0
 40
1
 40
1
 40
1
 40
1
 10
122.196160
 20
83.527551
 30
0.0
 10
122.277381
 20
83.315893
 30
0.0
 10
122.107082
 20
83.180847
 30
0.0
 10
121.571080
 20
83.032009
 30
0.0
  0
SPLINE
  5
29d
100
AcDbEntity
  8
Layer_1
 62
7
100
AcDbSpline
 70
8
 71
3
 72
8
 73
4
 74
0
 40
0
 40
0
 40
0
 40
0
 40
1
 40
1
 40
1
 40
1
 10
121.571080
 20
83.032009
 30
0.0
 10
120.707000
 20
82.792069
 30
0.0
 10
120.025922
 20
82.766675
 30
0.0
 10
119.907513
 20
82.969722
 30
0.0
  0
SPLINE
  5
29e
100
AcDbEntity
  8
Layer_1
 62
7
100
AcDbSpline
 70
8
 71
3
 72
8
 73
4
 74
0
 40
0
 40
0
 40
0
 40
0
 40
1
 40
1
 40
1
 40
1
 10
119.907513
 20
82.969722
 30
0.0
 10
119.778131
 20
83.191583
 30
0.0
 10
118.237881
 20
88.384926
 30
0.0
 10
118.237881
 20
88.599285
 30
0.0
  0
SPLINE
  5
29f
100
AcDbEntity
  8
Layer_1
 62
7
100
AcDbSpline
 70
8
 71
3
 72
8
 73
4
 74
0
 40
0
 40
0
 40
0
 40
0
 40
1
 40
1
 40
1
 40
1
 10
118.237881
 20
88.599285
 30
0.0
 10
118.237883
 20
88.703244
 30
0.0
 10
118.432557
 20
88.787812
 30
0.0
 10
118.670586
 20
88.787248
 30
0.0
  0
LWPOLYLINE
  5
2a0
100
AcDbEntity
  8
Layer_1
 62
7
100
AcDbPolyline
 90
2
 70
0
 10
102.413043
 20
89.737544
 30
0.0
 10
102.413043
 20
89.737544
 30
0.0
  0
SPLINE
  5
2a1
100
AcDbEntity
  8
Layer_1
 62
7
100
AcDbSpline
 70
8
 71
3
 72
8
 73
4
 74
0
 40
0
 40
0
 40
0
 40
0
 40
1
 40
1
 40
1
 40
1
 10
107.107742
 20
88.404154
 30
0.0
 10
107.148777
 20
88.405565
 30
0.0
 10
107.196944
 20
88.403603
 30
0.0
 10
107.251610
 20
88.403603
 30
0.0
  0
SPLINE
  5
2a2
100
AcDbEntity
  8
Layer_1
 62
7
100
AcDbSpline
 70
8
 71
3
 72
8
 73
4
 74
0
 40
0
 40
0
 40
0
 40
0
 40
1
 40
1
 40
1
 40
1
 10
107.251610
 20
88.403603
 30
0.0
 10
107.670171
 20
88.403603
 30
0.0
 10
107.844215
 20
87.908205
 30
0.0
 10
107.848025
 20
86.709167
 30
0.0
  0
SPLINE
  5
2a3
100
AcDbEntity
  8
Layer_1
 62
7
100
AcDbSpline
 70
8
 71
3
 72
8
 73
4
 74
0
 40
0
 40
0
 40
0
 40
0
 40
1
 40
1
 40
1
 40
1
 10
107.848025
 20
86.709167
 30
0.0
 10
107.851270
 20
85.682631
 30
0.0
 10
108.090645
 20
85.800208
 30
0.0
 10
108.539799
 20
87.049267
 30
0.0
  0
SPLINE
  5
2a4
100
AcDbEntity
  8
Layer_1
 62
7
100
AcDbSpline
 70
8
 71
3
 72
8
 73
4
 74
0
 40
0
 40
0
 40
0
 40
0
 40
1
 40
1
 40
1
 40
1
 10
108.539799
 20
87.049267
 30
0.0
 10
108.887776
 20
88.016956
 30
0.0
 10
109.296798
 20
88.380820
 30
0.0
 10
109.644987
 20
88.032634
 30
0.0
  0
SPLINE
  5
2a5
100
AcDbEntity
  8
Layer_1
 62
7
100
AcDbSpline
 70
8
 71
3
 72
8
 73
4
 74
0
 40
0
 40
0
 40
0
 40
0
 40
1
 40
1
 40
1
 40
1
 10
109.644987
 20
88.032634
 30
0.0
 10
109.771499
 20
87.906119
 30
0.0
 10
109.575117
 20
87.270828
 30
0.0
 10
109.063454
 20
86.151338
 30
0.0
  0
SPLINE
  5
2a6
100
AcDbEntity
  8
Layer_1
 62
7
100
AcDbSpline
 70
8
 71
3
 72
8
 73
4
 74
0
 40
0
 40
0
 40
0
 40
0
 40
1
 40
1
 40
1
 40
1
 10
109.063454
 20
86.151338
 30
0.0
 10
108.638464
 20
85.221486
 30
0.0
 10
108.230235
 20
84.027847
 30
0.0
 10
108.156155
 20
83.498889
 30
0.0
  0
SPLINE
  5
2a7
100
AcDbEntity
  8
Layer_1
 62
7
100
AcDbSpline
 70
8
 71
3
 72
8
 73
4
 74
0
 40
0
 40
0
 40
0
 40
0
 40
1
 40
1
 40
1
 40
1
 10
108.156155
 20
83.498889
 30
0.0
 10
108.082077
 20
82.969931
 30
0.0
 10
107.976992
 20
82.385361
 30
0.0
 10
107.922991
 20
82.200226
 30
0.0
  0
SPLINE
  5
2a8
100
AcDbEntity
  8
Layer_1
 62
7
100
AcDbSpline
 70
8
 71
3
 72
8
 73
4
 74
0
 40
0
 40
0
 40
0
 40
0
 40
1
 40
1
 40
1
 40
1
 10
107.922991
 20
82.200226
 30
0.0
 10
107.816639
 20
81.835598
 30
0.0
 10
107.681776
 20
81.791540
 30
0.0
 10
107.346970
 20
82.011160
 30
0.0
  0
SPLINE
  5
2a9
100
AcDbEntity
  8
Layer_1
 62
7
100
AcDbSpline
 70
8
 71
3
 72
8
 73
4
 74
0
 40
0
 40
0
 40
0
 40
0
 40
1
 40
1
 40
1
 40
1
 10
107.346970
 20
82.011160
 30
0.0
 10
107.192072
 20
82.112774
 30
0.0
 10
107.184227
 20
82.516202
 30
0.0
 10
107.319408
 20
83.447076
 30
0.0
  0
SPLINE
  5
2aa
100
AcDbEntity
  8
Layer_1
 62
7
100
AcDbSpline
 70
8
 71
3
 72
8
 73
4
 74
0
 40
0
 40
0
 40
0
 40
0
 40
1
 40
1
 40
1
 40
1
 10
107.319408
 20
83.447076
 30
0.0
 10
107.465896
 20
84.455704
 30
0.0
 10
107.439347
 20
85.113841
 30
0.0
 10
107.198143
 20
86.428048
 30
0.0
  0
SPLINE
  5
2ab
100
AcDbEntity
  8
Layer_1
 62
7
100
AcDbSpline
 70
8
 71
3
 72
8
 73
4
 74
0
 40
0
 40
0
 40
0
 40
0
 40
1
 40
1
 40
1
 40
1
 10
107.198143
 20
86.428048
 30
0.0
 10
106.864652
 20
88.245091
 30
0.0
 10
106.820502
 20
88.395151
 30
0.0
 10
107.107742
 20
88.404154
 30
0.0
  0
LWPOLYLINE
  5
2ac
100
AcDbEntity
  8
Layer_1
 62
7
100
AcDbPolyline
 90
2
 70
0
 10
118.670586
 20
88.787248
 30
0.0
 10
118.670586
 20
88.787248
 30
0.0
  0
SPLINE
  5
2ad
100
AcDbEntity
  8
Layer_1
 62
7
100
AcDbSpline
 70
8
 71
3
 72
8
 73
4
 74
0
 40
0
 40
0
 40
0
 40
0
 40
1
 40
1
 40
1
 40
1
 10
114.121957
 20
88.221150
 30
0.0
 10
114.509748
 20
88.205148
 30
0.0
 10
114.876312
 20
88.043417
 30
0.0
 10
115.073354
 20
87.742695
 30
0.0
  0
SPLINE
  5
2ae
100
AcDbEntity
  8
Layer_1
 62
7
100
AcDbSpline
 70
8
 71
3
 72
8
 73
4
 74
0
 40
0
 40
0
 40
0
 40
0
 40
1
 40
1
 40
1
 40
1
 10
115.073354
 20
87.742695
 30
0.0
 10
115.512983
 20
87.071738
 30
0.0
 10
115.374039
 20
86.208183
 30
0.0
 10
114.813732
 20
86.128737
 30
0.0
  0
SPLINE
  5
2af
100
AcDbEntity
  8
Layer_1
 62
7
100
AcDbSpline
 70
8
 71
3
 72
8
 73
4
 74
0
 40
0
 40
0
 40
0
 40
0
 40
1
 40
1
 40
1
 40
1
 10
114.813732
 20
86.128737
 30
0.0
 10
114.431293
 20
86.074503
 30
0.0
 10
114.379124
 20
86.139913
 30
0.0
 10
114.428984
 20
86.609949
 30
0.0
  0
SPLINE
  5
2b0
100
AcDbEntity
  8
Layer_1
 62
7
100
AcDbSpline
 70
8
 71
3
 72
8
 73
4
 74
0
 40
0
 40
0
 40
0
 40
0
 40
1
 40
1
 40
1
 40
1
 10
114.428984
 20
86.609949
 30
0.0
 10
114.478520
 20
87.076922
 30
0.0
 10
114.419304
 20
87.153447
 30
0.0
 10
114.006201
 20
87.153447
 30
0.0
  0
SPLINE
  5
2b1
100
AcDbEntity
  8
Layer_1
 62
7
100
AcDbSpline
 70
8
 71
3
 72
8
 73
4
 74
0
 40
0
 40
0
 40
0
 40
0
 40
1
 40
1
 40
1
 40
1
 10
114.006201
 20
87.153447
 30
0.0
 10
113.534907
 20
87.153447
 30
0.0
 10
113.526578
 20
87.127877
 30
0.0
 10
113.591687
 20
85.876831
 30
0.0
  0
SPLINE
  5
2b2
100
AcDbEntity
  8
Layer_1
 62
7
100
AcDbSpline
 70
8
 71
3
 72
8
 73
4
 74
0
 40
0
 40
0
 40
0
 40
0
 40
1
 40
1
 40
1
 40
1
 10
113.591687
 20
85.876831
 30
0.0
 10
113.729386
 20
83.231015
 30
0.0
 10
113.875309
 20
82.537019
 30
0.0
 10
114.294488
 20
82.537019
 30
0.0
  0
SPLINE
  5
2b3
100
AcDbEntity
  8
Layer_1
 62
7
100
AcDbSpline
 70
8
 71
3
 72
8
 73
4
 74
0
 40
0
 40
0
 40
0
 40
0
 40
1
 40
1
 40
1
 40
1
 10
114.294488
 20
82.537019
 30
0.0
 10
114.592151
 20
82.537019
 30
0.0
 10
114.681011
 20
82.667648
 30
0.0
 10
114.686402
 20
83.114141
 30
0.0
  0
SPLINE
  5
2b4
100
AcDbEntity
  8
Layer_1
 62
7
100
AcDbSpline
 70
8
 71
3
 72
8
 73
4
 74
0
 40
0
 40
0
 40
0
 40
0
 40
1
 40
1
 40
1
 40
1
 10
114.686402
 20
83.114141
 30
0.0
 10
114.692216
 20
83.597283
 30
0.0
 10
114.770273
 20
83.691263
 30
0.0
 10
115.167063
 20
83.691263
 30
0.0
  0
SPLINE
  5
2b5
100
AcDbEntity
  8
Layer_1
 62
7
100
AcDbSpline
 70
8
 71
3
 72
8
 73
4
 74
0
 40
0
 40
0
 40
0
 40
0
 40
1
 40
1
 40
1
 40
1
 10
115.167063
 20
83.691263
 30
0.0
 10
115.559292
 20
83.691263
 30
0.0
 10
115.651452
 20
83.585204
 30
0.0
 10
115.700638
 20
83.077209
 30
0.0
  0
SPLINE
  5
2b6
100
AcDbEntity
  8
Layer_1
 62
7
100
AcDbSpline
 70
8
 71
3
 72
8
 73
4
 74
0
 40
0
 40
0
 40
0
 40
0
 40
1
 40
1
 40
1
 40
1
 10
115.700638
 20
83.077209
 30
0.0
 10
115.741391
 20
82.656298
 30
0.0
 10
115.635430
 20
82.338967
 30
0.0
 10
115.363845
 20
82.067382
 30
0.0
  0
SPLINE
  5
2b7
100
AcDbEntity
  8
Layer_1
 62
7
100
AcDbSpline
 70
8
 71
3
 72
8
 73
4
 74
0
 40
0
 40
0
 40
0
 40
0
 40
1
 40
1
 40
1
 40
1
 10
115.363845
 20
82.067382
 30
0.0
 10
114.808288
 20
81.511821
 30
0.0
 10
113.720598
 20
81.531856
 30
0.0
 10
113.350257
 20
82.104313
 30
0.0
  0
SPLINE
  5
2b8
100
AcDbEntity
  8
Layer_1
 62
7
100
AcDbSpline
 70
8
 71
3
 72
8
 73
4
 74
0
 40
0
 40
0
 40
0
 40
0
 40
1
 40
1
 40
1
 40
1
 10
113.350257
 20
82.104313
 30
0.0
 10
113.188637
 20
82.354133
 30
0.0
 10
112.983882
 20
83.472179
 30
0.0
 10
112.865738
 20
84.749046
 30
0.0
  0
SPLINE
  5
2b9
100
AcDbEntity
  8
Layer_1
 62
7
100
AcDbSpline
 70
8
 71
3
 72
8
 73
4
 74
0
 40
0
 40
0
 40
0
 40
0
 40
1
 40
1
 40
1
 40
1
 10
112.865738
 20
84.749046
 30
0.0
 10
112.605349
 20
87.563335
 30
0.0
 10
112.594382
 20
87.376532
 30
0.0
 10
113.044331
 20
87.826479
 30
0.0
  0
SPLINE
  5
2ba
100
AcDbEntity
  8
Layer_1
 62
7
100
AcDbSpline
 70
8
 71
3
 72
8
 73
4
 74
0
 40
0
 40
0
 40
0
 40
0
 40
1
 40
1
 40
1
 40
1
 10
113.044331
 20
87.826479
 30
0.0
 10
113.325329
 20
88.107476
 30
0.0
 10
113.734167
 20
88.237154
 30
0.0
 10
114.121957
 20
88.221150
 30
0.0
  0
LWPOLYLINE
  5
2bb
100
AcDbEntity
  8
Layer_1
 62
7
100
AcDbPolyline
 90
2
 70
0
 10
107.107742
 20
88.404154
 30
0.0
 10
107.107742
 20
88.404154
 30
0.0
  0
LWPOLYLINE
  5
2bc
100
AcDbEntity
  8
Layer_1
 62
7
100
AcDbPolyline
 90
2
 70
0
 10
114.121957
 20
88.221150
 30
0.0
 10
114.121957
 20
88.221150
 30
0.0
  0
ENDSEC
  0
SECTION
  2
OBJECTS
  0
DICTIONARY
  5
C
330
0
100
AcDbDictionary
  3
ACAD_GROUP
350
D
  3
ACAD_MLINESTYLE
350
17
  0
DICTIONARY
  5
D
330
C
100
AcDbDictionary
  0
DICTIONARY
  5
1A
330
C
100
AcDbDictionary
  0
DICTIONARY
  5
17
330
C
100
AcDbDictionary
  3
STANDARD
350
18
  0
DICTIONARY
  5
19
330
C
100
AcDbDictionary
  0
ENDSEC
  0
EOF
