<?xml version="1.0" encoding="UTF-8" standalone="no"?>
<!-- Created with Inkscape (http://www.inkscape.org/) -->

<svg
   xmlns:dc="http://purl.org/dc/elements/1.1/"
   xmlns:cc="http://creativecommons.org/ns#"
   xmlns:rdf="http://www.w3.org/1999/02/22-rdf-syntax-ns#"
   xmlns:svg="http://www.w3.org/2000/svg"
   xmlns="http://www.w3.org/2000/svg"
   xmlns:sodipodi="http://sodipodi.sourceforge.net/DTD/sodipodi-0.dtd"
   xmlns:inkscape="http://www.inkscape.org/namespaces/inkscape"
   sodipodi:docname="nameplate_living_hinge_colonel.svg"
   inkscape:version="0.91 r13725"
   version="1.1"
   id="svg2"
   viewBox="0 0 1417.3228 1052.3622"
   height="297mm"
   width="400mm">
  <sodipodi:namedview
     inkscape:window-maximized="1"
     inkscape:window-y="-8"
     inkscape:window-x="-8"
     inkscape:window-height="838"
     inkscape:window-width="1440"
     showgrid="false"
     inkscape:current-layer="layer1"
     inkscape:document-units="mm"
     inkscape:cy="607.51447"
     inkscape:cx="409.96543"
     inkscape:zoom="0.7"
     inkscape:pageshadow="2"
     inkscape:pageopacity="0.0"
     borderopacity="1.0"
     bordercolor="#666666"
     pagecolor="#ffffff"
     id="base" />
  <defs
     id="defs4" />
  <metadata
     id="metadata7">
    <rdf:RDF>
      <cc:Work
         rdf:about="">
        <dc:format>image/svg+xml</dc:format>
        <dc:type
           rdf:resource="http://purl.org/dc/dcmitype/StillImage" />
        <dc:title></dc:title>
      </cc:Work>
    </rdf:RDF>
  </metadata>
  <g
     id="layer1"
     inkscape:groupmode="layer"
     inkscape:label="Layer 1">
    <path
       id="path4297"
       style="stroke:#00ff00;stroke-width:0.35433071;fill:#00ff00"
       d="m 381.43256,14.110397 0,38.75191 m 0,10.629922 0,66.873901 m 0,10.62992 0,66.8739 m 0,10.62992 0,66.8739 m 0,10.62992 0,66.8739 m 0,10.62992 0,66.8739 m 0,10.62992 0,66.8739 m 0,10.62992 0,66.8739 m 0,10.62993 0,66.8739 m 0,10.62992 0,38.75191 m 7.06254,-708.164313 0,38.75191 m 0,10.629922 0,66.873901 m 0,10.62992 0,66.8739 m 0,10.62992 0,66.8739 m 0,10.62992 0,66.8739 m 0,10.62992 0,66.8739 m 0,10.62992 0,66.8739 m 0,10.62992 0,66.8739 m 0,10.62993 0,66.8739 m 0,10.62992 0,38.75191 m 7.06253,-708.164313 0,38.75191 m 0,10.629922 0,66.873901 m 0,10.62992 0,66.8739 m 0,10.62992 0,66.8739 m 0,10.62992 0,66.8739 m 0,10.62992 0,66.8739 m 0,10.62992 0,66.8739 m 0,10.62992 0,66.8739 m 0,10.62993 0,66.8739 m 0,10.62992 0,38.75191 m 7.06254,-708.164313 0,38.75191 m 0,10.629922 0,66.873901 m 0,10.62992 0,66.8739 m 0,10.62992 0,66.8739 m 0,10.62992 0,66.8739 m 0,10.62992 0,66.8739 m 0,10.62992 0,66.8739 m 0,10.62992 0,66.8739 m 0,10.62993 0,66.8739 m 0,10.62992 0,38.75191 m 7.06254,-708.164313 0,38.75191 m 0,10.629922 0,66.873901 m 0,10.62992 0,66.8739 m 0,10.62992 0,66.8739 m 0,10.62992 0,66.8739 m 0,10.62992 0,66.8739 m 0,10.62992 0,66.8739 m 0,10.62992 0,66.8739 m 0,10.62993 0,66.8739 m 0,10.62992 0,38.75191 m 7.06254,-708.164313 0,38.75191 m 0,10.629922 0,66.873901 m 0,10.62992 0,66.8739 m 0,10.62992 0,66.8739 m 0,10.62992 0,66.8739 m 0,10.62992 0,66.8739 m 0,10.62992 0,66.8739 m 0,10.62992 0,66.8739 m 0,10.62993 0,66.8739 m 0,10.62992 0,38.75191 m 7.06253,-708.164313 0,38.75191 m 0,10.629922 0,66.873901 m 0,10.62992 0,66.8739 m 0,10.62992 0,66.8739 m 0,10.62992 0,66.8739 m 0,10.62992 0,66.8739 m 0,10.62992 0,66.8739 m 0,10.62992 0,66.8739 m 0,10.62993 0,66.8739 m 0,10.62992 0,38.75191 m 7.06254,-708.164313 0,38.75191 m 0,10.629922 0,66.873901 m 0,10.62992 0,66.8739 m 0,10.62992 0,66.8739 m 0,10.62992 0,66.8739 m 0,10.62992 0,66.8739 m 0,10.62992 0,66.8739 m 0,10.62992 0,66.8739 m 0,10.62993 0,66.8739 m 0,10.62992 0,38.75191 m 7.06254,-708.164313 0,38.75191 m 0,10.629922 0,66.873901 m 0,10.62992 0,66.8739 m 0,10.62992 0,66.8739 m 0,10.62992 0,66.8739 m 0,10.62992 0,66.8739 m 0,10.62992 0,66.8739 m 0,10.62992 0,66.8739 m 0,10.62993 0,66.8739 m 0,10.62992 0,38.75191 m 7.06254,-708.164313 0,38.75191 m 0,10.629922 0,66.873901 m 0,10.62992 0,66.8739 m 0,10.62992 0,66.8739 m 0,10.62992 0,66.8739 m 0,10.62992 0,66.8739 m 0,10.62992 0,66.8739 m 0,10.62992 0,66.8739 m 0,10.62993 0,66.8739 m 0,10.62992 0,38.75191 m 7.06253,-708.164313 0,38.75191 m 0,10.629922 0,66.873901 m 0,10.62992 0,66.8739 m 0,10.62992 0,66.8739 m 0,10.62992 0,66.8739 m 0,10.62992 0,66.8739 m 0,10.62992 0,66.8739 m 0,10.62992 0,66.8739 m 0,10.62993 0,66.8739 m 0,10.62992 0,38.75191 m 7.06254,-708.164313 0,38.75191 m 0,10.629922 0,66.873901 m 0,10.62992 0,66.8739 m 0,10.62992 0,66.8739 m 0,10.62992 0,66.8739 m 0,10.62992 0,66.8739 m 0,10.62992 0,66.8739 m 0,10.62992 0,66.8739 m 0,10.62993 0,66.8739 m 0,10.62992 0,38.75191 m 7.06254,-708.164313 0,38.75191 m 0,10.629922 0,66.873901 m 0,10.62992 0,66.8739 m 0,10.62992 0,66.8739 m 0,10.62992 0,66.8739 m 0,10.62992 0,66.8739 m 0,10.62992 0,66.8739 m 0,10.62992 0,66.8739 m 0,10.62993 0,66.8739 m 0,10.62992 0,38.75191 m 7.06254,-708.164313 0,38.75191 m 0,10.629922 0,66.873901 m 0,10.62992 0,66.8739 m 0,10.62992 0,66.8739 m 0,10.62992 0,66.8739 m 0,10.62992 0,66.8739 m 0,10.62992 0,66.8739 m 0,10.62992 0,66.8739 m 0,10.62993 0,66.8739 m 0,10.62992 0,38.75191 m 7.06253,-708.164313 0,38.75191 m 0,10.629922 0,66.873901 m 0,10.62992 0,66.8739 m 0,10.62992 0,66.8739 m 0,10.62992 0,66.8739 m 0,10.62992 0,66.8739 m 0,10.62992 0,66.8739 m 0,10.62992 0,66.8739 m 0,10.62993 0,66.8739 m 0,10.62992 0,38.75191 m 7.06254,-708.164313 0,38.75191 m 0,10.629922 0,66.873901 m 0,10.62992 0,66.8739 m 0,10.62992 0,66.8739 m 0,10.62992 0,66.8739 m 0,10.62992 0,66.8739 m 0,10.62992 0,66.8739 m 0,10.62992 0,66.8739 m 0,10.62993 0,66.8739 m 0,10.62992 0,38.75191 M 384.96383,24.740318 l 0,66.8739 m 0,10.629922 0,66.8739 m 0,10.62992 0,66.8739 m 0,10.62992 0,66.8739 m 0,10.62992 0,66.8739 m 0,10.62992 0,66.8739 m 0,10.62992 0,66.8739 m 0,10.62993 0,66.87389 m 0,10.62993 0,66.8739 m 7.06254,-686.904472 0,66.8739 m 0,10.629922 0,66.8739 m 0,10.62992 0,66.8739 m 0,10.62992 0,66.8739 m 0,10.62992 0,66.8739 m 0,10.62992 0,66.8739 m 0,10.62992 0,66.8739 m 0,10.62993 0,66.87389 m 0,10.62993 0,66.8739 m 7.06253,-686.904472 0,66.8739 m 0,10.629922 0,66.8739 m 0,10.62992 0,66.8739 m 0,10.62992 0,66.8739 m 0,10.62992 0,66.8739 m 0,10.62992 0,66.8739 m 0,10.62992 0,66.8739 m 0,10.62993 0,66.87389 m 0,10.62993 0,66.8739 m 7.06254,-686.904472 0,66.8739 m 0,10.629922 0,66.8739 m 0,10.62992 0,66.8739 m 0,10.62992 0,66.8739 m 0,10.62992 0,66.8739 m 0,10.62992 0,66.8739 m 0,10.62992 0,66.8739 m 0,10.62993 0,66.87389 m 0,10.62993 0,66.8739 m 7.06254,-686.904472 0,66.8739 m 0,10.629922 0,66.8739 m 0,10.62992 0,66.8739 m 0,10.62992 0,66.8739 m 0,10.62992 0,66.8739 m 0,10.62992 0,66.8739 m 0,10.62992 0,66.8739 m 0,10.62993 0,66.87389 m 0,10.62993 0,66.8739 m 7.06254,-686.904472 0,66.8739 m 0,10.629922 0,66.8739 m 0,10.62992 0,66.8739 m 0,10.62992 0,66.8739 m 0,10.62992 0,66.8739 m 0,10.62992 0,66.8739 m 0,10.62992 0,66.8739 m 0,10.62993 0,66.87389 m 0,10.62993 0,66.8739 m 7.06253,-686.904472 0,66.8739 m 0,10.629922 0,66.8739 m 0,10.62992 0,66.8739 m 0,10.62992 0,66.8739 m 0,10.62992 0,66.8739 m 0,10.62992 0,66.8739 m 0,10.62992 0,66.8739 m 0,10.62993 0,66.87389 m 0,10.62993 0,66.8739 m 7.06254,-686.904472 0,66.8739 m 0,10.629922 0,66.8739 m 0,10.62992 0,66.8739 m 0,10.62992 0,66.8739 m 0,10.62992 0,66.8739 m 0,10.62992 0,66.8739 m 0,10.62992 0,66.8739 m 0,10.62993 0,66.87389 m 0,10.62993 0,66.8739 m 7.06254,-686.904472 0,66.8739 m 0,10.629922 0,66.8739 m 0,10.62992 0,66.8739 m 0,10.62992 0,66.8739 m 0,10.62992 0,66.8739 m 0,10.62992 0,66.8739 m 0,10.62992 0,66.8739 m 0,10.62993 0,66.87389 m 0,10.62993 0,66.8739 m 7.06253,-686.904472 0,66.8739 m 0,10.629922 0,66.8739 m 0,10.62992 0,66.8739 m 0,10.62992 0,66.8739 m 0,10.62992 0,66.8739 m 0,10.62992 0,66.8739 m 0,10.62992 0,66.8739 m 0,10.62993 0,66.87389 m 0,10.62993 0,66.8739 m 7.06254,-686.904472 0,66.8739 m 0,10.629922 0,66.8739 m 0,10.62992 0,66.8739 m 0,10.62992 0,66.8739 m 0,10.62992 0,66.8739 m 0,10.62992 0,66.8739 m 0,10.62992 0,66.8739 m 0,10.62993 0,66.87389 m 0,10.62993 0,66.8739 m 7.06254,-686.904472 0,66.8739 m 0,10.629922 0,66.8739 m 0,10.62992 0,66.8739 m 0,10.62992 0,66.8739 m 0,10.62992 0,66.8739 m 0,10.62992 0,66.8739 m 0,10.62992 0,66.8739 m 0,10.62993 0,66.87389 m 0,10.62993 0,66.8739 m 7.06254,-686.904472 0,66.8739 m 0,10.629922 0,66.8739 m 0,10.62992 0,66.8739 m 0,10.62992 0,66.8739 m 0,10.62992 0,66.8739 m 0,10.62992 0,66.8739 m 0,10.62992 0,66.8739 m 0,10.62993 0,66.87389 m 0,10.62993 0,66.8739 m 7.06253,-686.904472 0,66.8739 m 0,10.629922 0,66.8739 m 0,10.62992 0,66.8739 m 0,10.62992 0,66.8739 m 0,10.62992 0,66.8739 m 0,10.62992 0,66.8739 m 0,10.62992 0,66.8739 m 0,10.62993 0,66.87389 m 0,10.62993 0,66.8739 m 7.06254,-686.904472 0,66.8739 m 0,10.629922 0,66.8739 m 0,10.62992 0,66.8739 m 0,10.62992 0,66.8739 m 0,10.62992 0,66.8739 m 0,10.62992 0,66.8739 m 0,10.62992 0,66.8739 m 0,10.62993 0,66.87389 m 0,10.62993 0,66.8739" />
    <rect
       y="14.665669"
       x="222.0038"
       height="707.67285"
       width="424.79556"
       id="rect4217"
       style="fill:none;stroke:#ff0000;stroke-width:0.40127134;stroke-linejoin:round;stroke-miterlimit:4;stroke-dasharray:none" />
    <path
       style="font-style:normal;font-variant:normal;font-weight:normal;font-stretch:condensed;font-size:27.5px;line-height:125%;font-family:Impact;-inkscape-font-specification:'Impact Condensed';letter-spacing:3.86999989px;word-spacing:0px;fill:#000000;fill-opacity:1;stroke:#000000;stroke-width:0.35433071;stroke-linecap:butt;stroke-linejoin:miter;stroke-opacity:1;stroke-miterlimit:4;stroke-dasharray:none"
       d="M 321.51172 104.40234 C 318.02539 104.40234 315.41114 104.68848 313.66797 105.25977 C 311.93946 105.83106 310.58497 106.9961 309.60352 108.75391 C 308.62208 110.51172 308.13086 112.74512 308.13086 115.45508 C 308.13086 118.0625 308.70997 120.25293 309.86719 122.02539 C 311.02442 123.8125 312.37208 124.96192 313.91016 125.47461 C 315.44825 126.00196 318.05566 126.26563 321.73242 126.26562 L 323.11719 126.26562 L 323.11719 117.01562 L 318.65625 117.01562 C 316.70801 117.01562 315.4707 116.90528 314.94336 116.68555 C 314.41602 116.48047 314.15234 116.03417 314.15234 115.3457 C 314.15234 114.62792 314.41602 114.16602 314.94336 113.96094 C 315.4707 113.75586 316.59765 113.65234 318.32617 113.65234 L 334.84961 113.65234 C 336.65137 113.65234 337.82324 113.75586 338.36523 113.96094 C 338.90722 114.16602 339.17773 114.64844 339.17773 115.41016 C 339.17773 116.08399 338.95215 116.51661 338.49805 116.70703 C 338.0586 116.91211 336.93653 117.01563 335.13477 117.01562 L 328.93945 117.01562 L 328.93945 126.26562 L 332.32227 126.26562 C 335.64747 126.26562 338.09473 125.98633 339.66211 125.42969 C 341.24414 124.87305 342.56251 123.70997 343.61719 121.9375 C 344.67188 120.16504 345.19922 117.91602 345.19922 115.19141 C 345.19921 113.18458 344.8545 111.4043 344.16602 109.85156 C 343.4922 108.31347 342.56152 107.10546 341.375 106.22656 C 340.18848 105.3623 338.95117 104.8418 337.66211 104.66602 C 336.38769 104.49023 334.46972 104.40234 331.90625 104.40234 L 321.51172 104.40234 z M 274.59961 119.35156 C 272.46907 119.35156 270.86996 119.52588 269.80469 119.875 C 268.74838 120.22412 267.92008 120.93555 267.32031 122.00977 C 266.72054 123.08399 266.42187 124.44939 266.42188 126.10547 C 266.42188 127.6989 266.77522 129.03598 267.48242 130.11914 C 268.18961 131.21127 269.01318 131.91521 269.95312 132.22852 C 270.89308 132.55078 272.48551 132.71094 274.73242 132.71094 L 275.58008 132.71094 L 275.58008 127.05859 L 272.85352 127.05859 C 271.66293 127.05859 270.90624 126.99169 270.58398 126.85742 C 270.26171 126.73209 270.10156 126.45785 270.10156 126.03711 C 270.10156 125.59847 270.26171 125.31674 270.58398 125.19141 C 270.90624 125.06608 271.59602 125.00391 272.65234 125.00391 L 282.75 125.00391 C 283.85108 125.00391 284.56723 125.06611 284.89844 125.19141 C 285.22966 125.31674 285.39453 125.61263 285.39453 126.07812 C 285.39453 126.48991 285.25603 126.75471 284.97852 126.87109 C 284.70997 126.99641 284.02491 127.05859 282.92383 127.05859 L 279.13672 127.05859 L 279.13672 132.71094 L 281.20508 132.71094 C 283.23715 132.71094 284.7316 132.54133 285.68945 132.20117 C 286.65624 131.861 287.46288 131.14958 288.10742 130.06641 C 288.75195 128.98324 289.07422 127.6084 289.07422 125.94336 C 289.07422 124.71696 288.8641 123.63054 288.44336 122.68164 C 288.03158 121.7417 287.46338 121.00194 286.73828 120.46484 C 286.01318 119.93668 285.25651 119.61914 284.46875 119.51172 C 283.68994 119.4043 282.51773 119.35156 280.95117 119.35156 L 274.59961 119.35156 z M 319.68945 132.9707 C 317.21386 132.9707 315.35254 133.13086 314.10742 133.45312 C 312.87695 133.7754 311.82226 134.30958 310.94336 135.05664 C 310.0791 135.81836 309.42772 136.88184 308.98828 138.24414 C 308.56347 139.60644 308.35156 141.26758 308.35156 143.23047 C 308.35156 144.98829 308.59962 146.54101 309.09766 147.88867 C 309.61036 149.25097 310.39453 150.36426 311.44922 151.22852 C 312.51856 152.09277 313.66113 152.6582 314.87695 152.92188 C 316.10742 153.18554 318.03417 153.31641 320.65625 153.31641 L 327.79688 153.31641 C 329.8623 153.31641 331.39942 153.16991 332.41016 152.87695 C 333.4209 152.59863 334.40333 152.07129 335.35547 151.29492 C 336.30763 150.51855 337.07617 149.4121 337.66211 147.97656 C 338.26269 146.55566 338.5625 144.84961 338.5625 142.85742 C 338.5625 140.48437 338.10255 138.5371 337.17969 137.01367 C 336.25685 135.49023 335.03321 134.43555 333.50977 133.84961 C 331.98633 133.26367 329.87012 132.9707 327.16016 132.9707 L 319.68945 132.9707 z M 273.48438 138.3125 C 271.97152 138.3125 270.83512 138.4124 270.07422 138.60938 C 269.32226 138.80632 268.67774 139.13329 268.14062 139.58984 C 267.61246 140.05533 267.21386 140.70264 266.94531 141.53516 C 266.68571 142.36768 266.55664 143.38444 266.55664 144.58398 C 266.55664 145.6582 266.70735 146.60808 267.01172 147.43164 C 267.32503 148.26416 267.80468 148.9445 268.44922 149.47266 C 269.1027 150.00081 269.79997 150.34473 270.54297 150.50586 C 271.29493 150.667 272.47379 150.74805 274.07617 150.74805 L 278.43945 150.74805 C 279.70166 150.74805 280.64209 150.65755 281.25977 150.47852 C 281.87745 150.30843 282.47672 149.98617 283.05859 149.51172 C 283.64046 149.03728 284.11067 148.36165 284.46875 147.48438 C 284.83577 146.61605 285.01953 145.57292 285.01953 144.35547 C 285.01953 142.90528 284.7378 141.71419 284.17383 140.7832 C 283.60987 139.85221 282.86069 139.20769 281.92969 138.84961 C 280.99871 138.49154 279.70686 138.3125 278.05078 138.3125 L 273.48438 138.3125 z M 316.83203 141.84766 L 329.99414 141.84766 C 331.48828 141.84766 332.42578 141.93556 332.80664 142.11133 C 333.20215 142.28712 333.40039 142.63868 333.40039 143.16602 C 333.40039 143.69337 333.20215 144.03614 332.80664 144.19727 C 332.42578 144.3584 331.48828 144.43945 329.99414 144.43945 L 316.54688 144.43945 C 315.2871 144.43945 314.4668 144.35155 314.08594 144.17578 C 313.70508 144.01464 313.51367 143.66992 313.51367 143.14258 C 313.51367 142.62989 313.71875 142.28712 314.12891 142.11133 C 314.55371 141.93555 315.45507 141.84766 316.83203 141.84766 z M 271.73828 143.73828 L 279.78125 143.73828 C 280.69433 143.73827 281.26725 143.79099 281.5 143.89844 C 281.7417 144.00586 281.86328 144.22071 281.86328 144.54297 C 281.86328 144.86524 281.7417 145.07731 281.5 145.17578 C 281.26725 145.27428 280.69433 145.32227 279.78125 145.32227 L 271.56445 145.32227 C 270.7946 145.32227 270.29331 145.26957 270.06055 145.16211 C 269.82781 145.06361 269.71094 144.85352 269.71094 144.53125 C 269.71094 144.21794 269.83723 144.00586 270.08789 143.89844 C 270.34749 143.79102 270.8968 143.73828 271.73828 143.73828 z M 266.87891 156.41602 L 266.87891 161.67969 L 279.23242 161.67969 C 280.09179 161.67969 280.65056 161.68873 280.91016 161.70703 C 281.17872 161.72493 281.40299 161.81819 281.58203 161.98828 C 281.77001 162.15836 281.86328 162.36572 281.86328 162.60742 C 281.86328 162.99235 281.68896 163.22412 281.33984 163.30469 C 280.99072 163.39419 279.94288 163.43945 278.19727 163.43945 L 266.87891 163.43945 L 266.87891 168.70312 L 278.49219 168.70312 C 280.02295 168.70312 280.96809 168.75582 281.32617 168.86328 C 281.68424 168.97965 281.86328 169.2303 281.86328 169.61523 C 281.86328 169.99121 281.67952 170.22966 281.3125 170.32812 C 280.95442 170.43554 280.01401 170.48828 278.49219 170.48828 L 266.87891 170.48828 L 266.87891 175.75195 L 279.54102 175.75195 C 281.00017 175.75195 282.05078 175.66816 282.69531 175.49805 C 283.3488 175.32796 283.90008 174.9388 284.34766 174.33008 C 284.79526 173.73031 285.01953 172.96892 285.01953 172.04688 C 285.01953 171.34864 284.84798 170.71354 284.50781 170.14062 C 284.17659 169.56771 283.6753 169.05224 283.00391 168.5957 C 284.34669 167.76318 285.01953 166.62207 285.01953 165.17188 C 285.01953 164.42888 284.84798 163.76545 284.50781 163.18359 C 284.17659 162.60171 283.6753 162.10042 283.00391 161.67969 L 284.69727 161.77539 L 284.69727 161.77344 L 284.69727 156.41602 L 266.87891 156.41602 z M 308.87891 160.13086 L 308.87891 169.27148 L 344.45117 169.27148 L 344.45117 160.13086 L 308.87891 160.13086 z M 319.68945 176.04102 C 317.21386 176.04102 315.35254 176.20313 314.10742 176.52539 C 312.87695 176.84766 311.82226 177.38184 310.94336 178.12891 C 310.0791 178.89063 309.42772 179.95214 308.98828 181.31445 C 308.56347 182.67675 308.35156 184.33984 308.35156 186.30273 C 308.35156 188.06054 308.59962 189.61328 309.09766 190.96094 C 309.61036 192.32324 310.39453 193.43652 311.44922 194.30078 C 312.51856 195.16504 313.66113 195.72852 314.87695 195.99219 C 316.10742 196.25586 318.03417 196.38867 320.65625 196.38867 L 327.79688 196.38867 C 329.8623 196.38867 331.39942 196.24219 332.41016 195.94922 C 333.4209 195.6709 334.40333 195.14356 335.35547 194.36719 C 336.30763 193.59082 337.07617 192.48438 337.66211 191.04883 C 338.26269 189.62793 338.5625 187.92188 338.5625 185.92969 C 338.5625 183.55664 338.10255 181.60742 337.17969 180.08398 C 336.25685 178.56054 335.03321 177.50585 333.50977 176.91992 C 331.98633 176.33398 329.87012 176.04102 327.16016 176.04102 L 319.68945 176.04102 z M 270.85352 181.26172 C 269.05421 181.26172 267.88478 181.6556 267.34766 182.44336 C 266.81951 183.24008 266.55664 184.11166 266.55664 185.06055 C 266.55664 185.78565 266.71207 186.40852 267.02539 186.92773 C 267.34765 187.45588 267.82731 187.88558 268.46289 188.2168 L 266.87891 188.2168 L 266.87891 193.49414 L 275.82031 193.49414 C 278.76546 193.49414 280.7085 193.39894 281.64844 193.21094 C 282.59734 193.02295 283.39453 192.46418 284.03906 191.5332 C 284.69254 190.6022 285.01953 189.21989 285.01953 187.38477 C 285.01953 185.85401 284.73308 184.60824 284.16016 183.65039 C 283.58724 182.69255 282.92383 182.05274 282.17188 181.73047 C 281.42888 181.41716 280.36881 181.26172 278.99023 181.26172 L 277.79492 181.26172 L 277.79492 186.34961 L 279.66211 186.34961 C 280.65576 186.34961 281.26725 186.3949 281.5 186.48438 C 281.7417 186.57387 281.86328 186.80289 281.86328 187.16992 C 281.86328 187.49218 281.72004 187.71924 281.43359 187.85352 C 281.15608 187.99675 280.55208 188.06836 279.62109 188.06836 C 278.87809 188.06836 278.38623 188.00616 278.14453 187.88086 C 277.90283 187.75554 277.43262 186.80289 276.73438 185.02148 C 276.08985 183.35644 275.52637 182.31332 275.04297 181.89258 C 274.55958 181.47184 273.65024 181.26172 272.31641 181.26172 L 270.85352 181.26172 z M 316.83203 184.91797 L 329.99414 184.91797 C 331.48828 184.91797 332.42578 185.00587 332.80664 185.18164 C 333.20215 185.35742 333.40039 185.70899 333.40039 186.23633 C 333.40039 186.76368 333.20215 187.1084 332.80664 187.26953 C 332.42578 187.43067 331.48828 187.51172 329.99414 187.51172 L 316.54688 187.51172 C 315.2871 187.51172 314.4668 187.42382 314.08594 187.24805 C 313.70508 187.08692 313.51367 186.74218 313.51367 186.21484 C 313.51367 185.70214 313.71875 185.35742 314.12891 185.18164 C 314.55371 185.00586 315.45507 184.91797 316.83203 184.91797 z M 271.90039 186.34961 C 272.70605 186.34961 273.32423 186.4165 273.75391 186.55078 C 274.1836 186.694 274.71598 187.20004 275.35156 188.06836 L 271.68555 188.06836 C 270.79037 188.06836 270.23437 188.01565 270.01953 187.9082 C 269.81363 187.8097 269.71094 187.59018 269.71094 187.25 C 269.71094 186.89193 269.84472 186.65072 270.11328 186.52539 C 270.38183 186.40902 270.97835 186.34961 271.90039 186.34961 z M 266.87891 199.23047 L 266.87891 204.6543 L 278.92188 204.6543 C 280.26464 204.6543 281.08822 204.70429 281.39258 204.80273 C 281.7059 204.90123 281.86328 205.1424 281.86328 205.52734 C 281.86328 205.89436 281.7295 206.11866 281.46094 206.19922 C 281.19239 206.27982 280.44515 206.32031 279.21875 206.32031 L 266.87891 206.32031 L 266.87891 211.74414 L 279.36523 211.74414 C 280.92285 211.74414 282.03288 211.66033 282.69531 211.49023 C 283.3667 211.32014 283.92269 210.93848 284.36133 210.34766 C 284.79997 209.75684 285.01953 208.9974 285.01953 208.06641 C 285.01953 207.32341 284.8527 206.66472 284.52148 206.0918 C 284.19922 205.52783 283.71208 205.04818 283.05859 204.6543 L 284.69727 204.74805 L 284.69727 199.23047 L 266.87891 199.23047 z M 308.87891 203.20312 L 308.87891 212.08008 L 328.58789 212.08008 C 330.78515 212.08008 332.13281 212.16118 332.63086 212.32227 C 333.14356 212.4834 333.40039 212.87792 333.40039 213.50781 C 333.40039 214.10839 333.17968 214.47558 332.74023 214.60742 C 332.30078 214.73926 331.07715 214.80469 329.07031 214.80469 L 308.87891 214.80469 L 308.87891 223.68164 L 329.3125 223.68164 C 331.86132 223.68164 333.67773 223.54199 334.76172 223.26367 C 335.86035 222.98535 336.76856 222.36328 337.48633 221.39648 C 338.20411 220.42968 338.5625 219.1836 338.5625 217.66016 C 338.5625 216.44434 338.29199 215.36914 337.75 214.43164 C 337.22266 213.50879 336.42482 212.72461 335.35547 212.08008 L 338.03516 212.23438 L 338.03516 203.20312 L 308.87891 203.20312 z M 271.60547 217.33398 C 270.28956 217.33398 269.33968 217.41779 268.75781 217.58789 C 268.17594 217.76693 267.66047 218.16552 267.21289 218.7832 C 266.77425 219.40088 266.55664 220.13119 266.55664 220.97266 C 266.55664 221.59929 266.69043 222.19856 266.95898 222.77148 C 267.22753 223.3444 267.63087 223.89095 268.16797 224.41016 L 266.87891 224.41016 L 266.87891 229.83398 L 288.61719 229.83398 L 288.61719 224.41016 L 283.56836 224.41016 C 284.05175 223.95361 284.41455 223.44288 284.65625 222.87891 C 284.89795 222.3239 285.01953 221.71044 285.01953 221.03906 C 285.01953 220.17073 284.79997 219.42351 284.36133 218.79688 C 283.93165 218.17024 283.43033 217.76693 282.85742 217.58789 C 282.2845 217.41781 281.31298 217.33398 279.94336 217.33398 L 271.60547 217.33398 z M 271.48438 222.75781 L 280.21094 222.75781 C 280.90919 222.75781 281.35775 222.81251 281.55469 222.91992 C 281.76058 223.03629 281.86328 223.25585 281.86328 223.57812 C 281.86328 223.90933 281.75113 224.12695 281.52734 224.23438 C 281.30355 224.35074 280.86443 224.41016 280.21094 224.41016 L 271.9668 224.41016 C 270.97315 224.41016 270.34749 224.35075 270.08789 224.23438 C 269.83723 224.118 269.71094 223.88623 269.71094 223.53711 C 269.71094 223.23275 269.82308 223.02734 270.04688 222.91992 C 270.27963 222.81249 270.75928 222.75781 271.48438 222.75781 z M 319.46875 230.36328 C 317.30078 230.36327 315.64649 230.51855 314.50391 230.82617 C 313.37599 231.13378 312.33496 231.68164 311.38281 232.47266 C 310.44531 233.27832 309.70605 234.40039 309.16406 235.83594 C 308.62207 237.27149 308.35156 238.92578 308.35156 240.80078 C 308.35156 242.73437 308.62207 244.33886 309.16406 245.61328 C 309.7207 246.90234 310.54785 247.96387 311.64648 248.79883 C 312.74511 249.63379 313.77734 250.16114 314.74414 250.38086 C 315.71094 250.61524 317.09669 250.73242 318.89844 250.73242 L 321.05078 250.73242 L 321.05078 242.31641 L 317.20508 242.31641 C 315.75489 242.31641 314.77441 242.19922 314.26172 241.96484 C 313.76367 241.74511 313.51367 241.29883 313.51367 240.625 C 313.51367 240.08301 313.70508 239.71776 314.08594 239.52734 C 314.4668 239.3369 315.31641 239.24023 316.63477 239.24023 L 322.94141 239.24023 L 322.94141 250.73242 L 326.80859 250.73242 C 329.63574 250.73242 331.82422 250.40332 333.37695 249.74414 C 334.94434 249.09962 336.19727 247.96387 337.13477 246.33789 C 338.08692 244.72657 338.5625 242.67578 338.5625 240.18555 C 338.5625 238.14942 338.16796 236.34863 337.37695 234.78125 C 336.60058 233.21387 335.47169 232.08495 333.99219 231.39648 C 332.52735 230.708 330.52149 230.36328 327.97266 230.36328 L 319.46875 230.36328 z M 270.85352 235.41016 C 269.05421 235.41016 267.88478 235.80404 267.34766 236.5918 C 266.81951 237.38851 266.55664 238.26205 266.55664 239.21094 C 266.55664 239.93604 266.71207 240.55696 267.02539 241.07617 C 267.34765 241.60433 267.82731 242.03401 268.46289 242.36523 L 266.87891 242.36523 L 266.87891 247.64258 L 275.82031 247.64258 C 278.76546 247.64258 280.7085 247.54928 281.64844 247.36133 C 282.59734 247.17335 283.39453 246.61264 284.03906 245.68164 C 284.69254 244.75066 285.01953 243.36832 285.01953 241.5332 C 285.01953 240.00244 284.73308 238.75862 284.16016 237.80078 C 283.58724 236.84293 282.92383 236.20312 282.17188 235.88086 C 281.42888 235.56755 280.36881 235.41016 278.99023 235.41016 L 277.79492 235.41016 L 277.79492 240.5 L 279.66211 240.5 C 280.65576 240.5 281.26725 240.54329 281.5 240.63281 C 281.7417 240.72231 281.86328 240.95134 281.86328 241.31836 C 281.86328 241.64063 281.72004 241.86964 281.43359 242.00391 C 281.15608 242.14714 280.55208 242.21875 279.62109 242.21875 C 278.87809 242.21875 278.38623 242.15465 278.14453 242.0293 C 277.90283 241.90397 277.43262 240.95133 276.73438 239.16992 C 276.08985 237.50488 275.52637 236.46175 275.04297 236.04102 C 274.55958 235.62029 273.65024 235.41016 272.31641 235.41016 L 270.85352 235.41016 z M 327.6875 239.24023 L 329.81836 239.24023 C 331.45898 239.24023 332.46191 239.31444 332.82812 239.46094 C 333.20898 239.60743 333.40039 239.98829 333.40039 240.60352 C 333.40039 241.10157 333.17968 241.43067 332.74023 241.5918 C 332.30078 241.75293 331.32715 241.83398 329.81836 241.83398 L 327.6875 241.83398 L 327.6875 239.24023 z M 271.90039 240.5 C 272.70605 240.5 273.32423 240.56689 273.75391 240.70117 C 274.1836 240.8444 274.71598 241.35043 275.35156 242.21875 L 271.68555 242.21875 C 270.79037 242.21875 270.23437 242.16405 270.01953 242.05664 C 269.81363 241.95814 269.71094 241.73861 269.71094 241.39844 C 269.71094 241.04037 269.84472 240.79916 270.11328 240.67383 C 270.38183 240.55746 270.97835 240.5 271.90039 240.5 z M 266.87891 253.37891 L 266.87891 258.80469 L 278.92188 258.80469 C 280.26464 258.80469 281.08822 258.85268 281.39258 258.95117 C 281.7059 259.04967 281.86328 259.29085 281.86328 259.67578 C 281.86328 260.0428 281.7295 260.26709 281.46094 260.34766 C 281.19239 260.42826 280.44515 260.46875 279.21875 260.46875 L 266.87891 260.46875 L 266.87891 265.89453 L 279.36523 265.89453 C 280.92285 265.89453 282.03288 265.80872 282.69531 265.63867 C 283.3667 265.46859 283.92269 265.08887 284.36133 264.49805 C 284.79997 263.90723 285.01953 263.14583 285.01953 262.21484 C 285.01953 261.47184 284.8527 260.81315 284.52148 260.24023 C 284.19922 259.67627 283.71208 259.19857 283.05859 258.80469 L 284.69727 258.89844 L 284.69727 253.37891 L 266.87891 253.37891 z M 308.87891 257.52539 L 308.87891 266.66602 L 344.45117 266.66602 L 344.45117 257.52539 L 308.87891 257.52539 z M 281.44727 270.75781 L 281.44727 271.92578 L 272.39648 271.92578 C 270.62402 271.92577 269.49707 271.97579 269.01367 272.07422 C 268.53922 272.17272 268.11425 272.42333 267.73828 272.82617 C 267.37125 273.229 267.13281 273.69451 267.02539 274.22266 C 266.92689 274.75082 266.87891 275.63184 266.87891 276.86719 L 266.87891 279.05664 L 269.75195 279.05664 C 269.75195 278.17041 269.81885 277.66438 269.95312 277.53906 C 270.0874 277.42268 270.74137 277.36328 271.91406 277.36328 L 281.44727 277.36328 L 281.44727 278.82812 L 284.26758 278.82812 L 284.26758 277.36328 L 287.07422 277.36328 L 287.07422 271.92578 L 284.26758 271.92578 L 284.26758 270.75781 L 281.44727 270.75781 z M 308.87891 285.74414 L 308.87891 294.99414 L 323.82031 294.99414 L 323.82031 300.70703 L 330.58789 300.70703 L 330.58789 294.99414 L 337.33203 294.99414 L 337.33203 301.41016 L 344.45117 301.41016 L 344.45117 285.74414 L 308.87891 285.74414 z M 270.85352 292.35547 C 269.05421 292.35547 267.88478 292.74935 267.34766 293.53711 C 266.81951 294.33382 266.55664 295.20541 266.55664 296.1543 C 266.55664 296.8794 266.71207 297.50227 267.02539 298.02148 C 267.34765 298.54964 267.82731 298.97934 268.46289 299.31055 L 266.87891 299.31055 L 266.87891 304.58789 L 275.82031 304.58789 C 278.76546 304.58789 280.7085 304.49269 281.64844 304.30469 C 282.59734 304.1167 283.39453 303.55794 284.03906 302.62695 C 284.69254 301.69596 285.01953 300.31365 285.01953 298.47852 C 285.01953 296.94776 284.73308 295.70199 284.16016 294.74414 C 283.58724 293.7863 282.92383 293.14648 282.17188 292.82422 C 281.42888 292.5109 280.36881 292.35547 278.99023 292.35547 L 277.79492 292.35547 L 277.79492 297.44336 L 279.66211 297.44336 C 280.65576 297.44336 281.26725 297.48865 281.5 297.57812 C 281.7417 297.66762 281.86328 297.89664 281.86328 298.26367 C 281.86328 298.58593 281.72004 298.813 281.43359 298.94727 C 281.15608 299.0905 280.55208 299.16211 279.62109 299.16211 C 278.87809 299.16211 278.38623 299.09991 278.14453 298.97461 C 277.90283 298.84929 277.43262 297.89664 276.73438 296.11523 C 276.08985 294.45019 275.52638 293.40707 275.04297 292.98633 C 274.55958 292.56559 273.65024 292.35547 272.31641 292.35547 L 270.85352 292.35547 z M 271.90039 297.44336 C 272.70605 297.44336 273.32423 297.51026 273.75391 297.64453 C 274.1836 297.78777 274.71598 298.29379 275.35156 299.16211 L 271.68555 299.16211 C 270.79037 299.16211 270.23437 299.1094 270.01953 299.00195 C 269.81363 298.90345 269.71094 298.68393 269.71094 298.34375 C 269.71094 297.98568 269.84472 297.74446 270.11328 297.61914 C 270.38183 297.50277 270.97835 297.44336 271.90039 297.44336 z M 308.87891 307.2793 L 308.87891 316.41992 L 344.45117 316.41992 L 344.45117 307.2793 L 308.87891 307.2793 z M 266.87891 310.32422 L 266.87891 315.91016 L 288.61719 315.91016 L 288.61719 310.32422 L 266.87891 310.32422 z M 319.68945 323.18945 C 317.21386 323.18945 315.35254 323.35157 314.10742 323.67383 C 312.87695 323.9961 311.82226 324.53027 310.94336 325.27734 C 310.0791 326.03906 309.42772 327.10253 308.98828 328.46484 C 308.56347 329.82714 308.35156 331.48828 308.35156 333.45117 C 308.35156 335.20898 308.59962 336.76171 309.09766 338.10938 C 309.61036 339.47168 310.39453 340.58496 311.44922 341.44922 C 312.51856 342.31348 313.66113 342.87695 314.87695 343.14062 C 316.10742 343.40429 318.03417 343.53711 320.65625 343.53711 L 327.79688 343.53711 C 329.8623 343.53711 331.39942 343.39063 332.41016 343.09766 C 333.4209 342.81934 334.40333 342.292 335.35547 341.51562 C 336.30763 340.73926 337.07617 339.63282 337.66211 338.19727 C 338.26269 336.77637 338.5625 335.07031 338.5625 333.07812 C 338.5625 330.70508 338.10255 328.75586 337.17969 327.23242 C 336.25685 325.70898 335.03321 324.65624 333.50977 324.07031 C 331.98633 323.48437 329.87012 323.18945 327.16016 323.18945 L 319.68945 323.18945 z M 274.59961 330.41797 C 272.46907 330.41797 270.86996 330.59229 269.80469 330.94141 C 268.74838 331.29054 267.92008 332.00195 267.32031 333.07617 C 266.72054 334.15039 266.42187 335.51579 266.42188 337.17188 C 266.42188 338.76531 266.77522 340.10238 267.48242 341.18555 C 268.18961 342.27767 269.01318 342.9816 269.95312 343.29492 C 270.89308 343.61718 272.48551 343.77734 274.73242 343.77734 L 275.58008 343.77734 L 275.58008 338.125 L 272.85352 338.125 C 271.66293 338.125 270.90624 338.0581 270.58398 337.92383 C 270.26171 337.79851 270.10156 337.52426 270.10156 337.10352 C 270.10156 336.66488 270.26171 336.38313 270.58398 336.25781 C 270.90624 336.13248 271.59602 336.07031 272.65234 336.07031 L 282.75 336.07031 C 283.85108 336.07031 284.56723 336.13251 284.89844 336.25781 C 285.22966 336.38313 285.39453 336.67904 285.39453 337.14453 C 285.39453 337.55631 285.25603 337.82113 284.97852 337.9375 C 284.70997 338.06283 284.02491 338.125 282.92383 338.125 L 279.13672 338.125 L 279.13672 343.77734 L 281.20508 343.77734 C 283.23715 343.77734 284.7316 343.60776 285.68945 343.26758 C 286.65624 342.92742 287.46288 342.21598 288.10742 341.13281 C 288.75195 340.04964 289.07422 338.67481 289.07422 337.00977 C 289.07421 335.78337 288.8641 334.69694 288.44336 333.74805 C 288.03158 332.80811 287.46338 332.06837 286.73828 331.53125 C 286.01318 331.0031 285.25651 330.68556 284.46875 330.57812 C 283.68994 330.47071 282.51773 330.41797 280.95117 330.41797 L 274.59961 330.41797 z M 316.83203 332.06836 L 329.99414 332.06836 C 331.48828 332.06836 332.42578 332.15626 332.80664 332.33203 C 333.20215 332.50781 333.40039 332.85743 333.40039 333.38477 C 333.40039 333.91212 333.20215 334.25684 332.80664 334.41797 C 332.42578 334.57911 331.48828 334.66016 329.99414 334.66016 L 316.54688 334.66016 C 315.2871 334.66016 314.4668 334.57225 314.08594 334.39648 C 313.70508 334.23534 313.51367 333.89062 313.51367 333.36328 C 313.51367 332.85058 313.71875 332.50782 314.12891 332.33203 C 314.55371 332.15626 315.45507 332.06836 316.83203 332.06836 z M 266.87891 349.70312 L 266.87891 354.64453 L 281.21875 354.64453 L 266.87891 356.72461 L 266.87891 360.23047 L 281.55469 362.20312 L 266.87891 362.20312 L 266.87891 367.14453 L 288.61719 367.14453 L 288.61719 359.77344 L 278.4668 358.48438 L 283.99805 357.70508 C 285.77051 357.46338 287.31023 357.23632 288.61719 357.02148 L 288.61719 349.70312 L 266.87891 349.70312 z M 308.87891 350.35156 L 308.87891 359.22852 L 320.39258 359.22852 C 323.21974 359.22852 325.02051 359.31642 325.79688 359.49219 C 326.58789 359.66797 327.20313 360.13672 327.64258 360.89844 C 328.08204 361.66016 328.30273 362.8545 328.30273 364.48047 L 338.5625 364.48047 C 338.40136 362.03419 336.95215 360.16601 334.21289 358.87695 L 338.03516 359.22852 L 338.03516 350.35156 L 308.87891 350.35156 z M 308.87891 370.30469 L 308.87891 379.44531 L 338.03516 379.44531 L 338.03516 370.30469 L 308.87891 370.30469 z M 339.81641 370.30469 L 339.81641 379.44531 L 344.45117 379.44531 L 344.45117 370.30469 L 339.81641 370.30469 z M 266.87891 372.39844 L 266.87891 375.23047 C 266.87891 376.48373 266.97221 377.41944 267.16016 378.03711 C 267.3571 378.66374 267.70572 379.15755 268.20703 379.51562 C 268.70833 379.88268 269.26904 380.08807 269.88672 380.13281 C 270.51335 380.17751 271.91259 380.19922 274.08789 380.19922 L 288.61719 380.19922 L 288.61719 374.54688 L 273.32422 374.54688 C 272.50065 374.54688 271.94465 374.52799 271.6582 374.49219 C 271.37174 374.45639 271.13053 374.32259 270.93359 374.08984 C 270.73665 373.85709 270.63867 373.53955 270.63867 373.13672 C 270.63867 372.98454 270.65083 372.73861 270.67773 372.39844 L 266.87891 372.39844 z M 308.87891 386.48047 L 308.87891 395.35742 L 328.58789 395.35742 C 330.78515 395.35742 332.13281 395.43853 332.63086 395.59961 C 333.14356 395.76075 333.40039 396.15527 333.40039 396.78516 C 333.40039 397.38575 333.17968 397.75294 332.74023 397.88477 C 332.30078 398.0166 331.07715 398.08203 329.07031 398.08203 L 308.87891 398.08203 L 308.87891 406.95898 L 329.3125 406.95898 C 331.86132 406.95898 333.67773 406.81934 334.76172 406.54102 C 335.86035 406.2627 336.76856 405.64063 337.48633 404.67383 C 338.20411 403.70703 338.5625 402.46094 338.5625 400.9375 C 338.5625 399.72168 338.29199 398.64648 337.75 397.70898 C 337.22266 396.78612 336.42482 396.00195 335.35547 395.35742 L 338.03516 395.51172 L 338.03516 386.48047 L 308.87891 386.48047 z M 266.87891 394.98828 L 266.87891 401.5293 C 266.87891 403.80306 267.00798 405.30697 267.26758 406.04102 C 267.52718 406.77507 268.00961 407.30745 268.7168 407.63867 C 269.424 407.97883 270.51238 408.14844 271.98047 408.14844 L 273.99414 408.14844 C 275.40852 408.14844 276.45638 407.91472 277.13672 407.44922 C 277.82601 406.98373 278.31787 406.09799 278.61328 404.79102 C 278.88183 405.96371 279.26822 406.74674 279.76953 407.14062 C 280.27083 407.54345 281.15657 407.74609 282.42773 407.74609 C 284.30761 407.74609 285.6683 407.46436 286.50977 406.90039 C 287.36019 406.33643 287.92366 405.59195 288.20117 404.66992 C 288.47867 403.75683 288.61719 402.41032 288.61719 400.62891 L 288.61719 394.98828 L 266.87891 394.98828 z M 270.59766 400.64258 L 276.67969 400.64258 C 276.65279 401.48405 276.54069 402.00228 276.34375 402.19922 C 276.14681 402.39616 275.58333 402.49609 274.65234 402.49609 L 272.625 402.49609 C 271.74772 402.49609 271.19646 402.38395 270.97266 402.16016 C 270.74888 401.94531 270.62453 401.43929 270.59766 400.64258 z M 280.06445 400.64258 L 284.89844 400.64258 C 284.88944 401.22445 284.84893 401.61361 284.77734 401.81055 C 284.70574 402.01644 284.53142 402.18132 284.25391 402.30664 C 283.98536 402.43196 283.51042 402.49609 282.83008 402.49609 C 281.54102 402.49609 280.75798 402.4198 280.48047 402.26758 C 280.21192 402.1154 280.07813 401.76205 280.07812 401.20703 C 280.07812 401.07276 280.07315 400.88428 280.06445 400.64258 z M 332.71875 412.45508 L 332.71875 414.36719 L 317.9082 414.36719 C 315.00781 414.36719 313.16211 414.44628 312.37109 414.60742 C 311.59472 414.76855 310.9004 415.17871 310.28516 415.83789 C 309.68458 416.49707 309.29492 417.2588 309.11914 418.12305 C 308.958 418.98731 308.87891 420.43163 308.87891 422.45312 L 308.87891 426.0332 L 313.58008 426.0332 C 313.58008 424.583 313.69044 423.75586 313.91016 423.55078 C 314.12989 423.36034 315.19825 423.26562 317.11719 423.26562 L 332.71875 423.26562 L 332.71875 425.66016 L 337.33203 425.66016 L 337.33203 423.26562 L 341.92578 423.26562 L 341.92578 414.36719 L 337.33203 414.36719 L 337.33203 412.45508 L 332.71875 412.45508 z M 266.87891 413.89844 L 266.87891 419.48438 L 284.69727 419.48438 L 284.69727 413.89844 L 266.87891 413.89844 z M 285.78516 413.89844 L 285.78516 419.48438 L 288.61719 419.48438 L 288.61719 413.89844 L 285.78516 413.89844 z M 279.75586 424.88477 C 278.75325 424.88477 277.88443 425.05908 277.15039 425.4082 C 276.42529 425.75732 275.61588 426.72885 274.7207 428.32227 C 273.66439 430.22006 273.02734 431.27263 272.8125 431.47852 C 272.59765 431.67546 272.06526 431.77344 271.21484 431.77344 C 270.59717 431.77344 270.19108 431.69713 269.99414 431.54492 C 269.80614 431.39274 269.71094 431.12516 269.71094 430.74023 C 269.71094 430.38215 269.85416 430.13899 270.14062 430.01367 C 270.42708 429.89729 271.04996 429.83984 272.00781 429.83984 L 273.13477 429.83984 L 273.13477 425.0332 L 272.27539 425.0332 C 270.78939 425.0332 269.67936 425.21696 268.94531 425.58398 C 268.21126 425.951 267.63085 426.62191 267.20117 427.59766 C 266.77148 428.58237 266.55664 429.764 266.55664 431.14258 C 266.55664 432.38688 266.7526 433.44694 267.14648 434.32422 C 267.54931 435.21045 268.11751 435.84277 268.85156 436.21875 C 269.59456 436.59473 270.69239 436.78125 272.14258 436.78125 C 273.4406 436.78125 274.42905 436.53532 275.10938 436.04297 C 275.78972 435.55062 276.5153 434.51693 277.28516 432.94141 C 277.86703 431.75977 278.30892 430.97673 278.61328 430.5918 C 278.91764 430.21582 279.19662 429.98682 279.44727 429.90625 C 279.70688 429.83465 280.10824 429.79883 280.6543 429.79883 C 281.05714 429.79883 281.35775 429.87512 281.55469 430.02734 C 281.76058 430.17952 281.86328 430.40853 281.86328 430.71289 C 281.86328 431.08887 281.75113 431.32064 281.52734 431.41016 C 281.31249 431.50866 280.79427 431.55859 279.9707 431.55859 L 279.00391 431.55859 L 279.00391 436.36523 L 280.03711 436.36523 C 280.93229 436.36523 281.59097 436.31724 282.01172 436.21875 C 282.43245 436.12925 282.8885 435.8597 283.38086 435.41211 C 283.8732 434.97347 284.26708 434.33838 284.5625 433.50586 C 284.86686 432.6823 285.01953 431.6797 285.01953 430.49805 C 285.01953 429.30746 284.83577 428.25961 284.46875 427.35547 C 284.10173 426.46029 283.57682 425.8252 282.89648 425.44922 C 282.22509 425.07324 281.1792 424.88477 279.75586 424.88477 z M 308.87891 431.48633 L 308.87891 440.62695 L 338.03516 440.62695 L 338.03516 431.48633 L 308.87891 431.48633 z M 339.81641 431.48633 L 339.81641 440.62695 L 344.45117 440.62695 L 344.45117 431.48633 L 339.81641 431.48633 z M 281.44727 441.2168 L 281.44727 442.38477 L 272.39648 442.38477 C 270.62402 442.38477 269.49707 442.43277 269.01367 442.53125 C 268.53922 442.62975 268.11425 442.88036 267.73828 443.2832 C 267.37125 443.68602 267.13281 444.15153 267.02539 444.67969 C 266.92689 445.20785 266.87891 446.09082 266.87891 447.32617 L 266.87891 449.51367 L 269.75195 449.51367 C 269.75195 448.62744 269.81885 448.12141 269.95312 447.99609 C 270.0874 447.87971 270.74137 447.82227 271.91406 447.82227 L 281.44727 447.82227 L 281.44727 449.28516 L 284.26758 449.28516 L 284.26758 447.82227 L 287.07422 447.82227 L 287.07422 442.38477 L 284.26758 442.38477 L 284.26758 441.2168 L 281.44727 441.2168 z M 308.87891 447.66016 L 308.87891 456.53711 L 328.58789 456.53711 C 330.78515 456.53711 332.13281 456.61821 332.63086 456.7793 C 333.14356 456.94043 333.40039 457.33496 333.40039 457.96484 C 333.40039 458.56542 333.17968 458.93261 332.74023 459.06445 C 332.30078 459.19628 331.07715 459.26172 329.07031 459.26172 L 308.87891 459.26172 L 308.87891 468.13867 L 329.3125 468.13867 C 331.86132 468.13867 333.67773 467.99902 334.76172 467.7207 C 335.86035 467.44238 336.76856 466.82031 337.48633 465.85352 C 338.20411 464.88672 338.5625 463.64258 338.5625 462.11914 C 338.5625 460.90332 338.29199 459.82617 337.75 458.88867 C 337.22266 457.96581 336.42482 457.18165 335.35547 456.53711 L 338.03516 456.69141 L 338.03516 447.66016 L 308.87891 447.66016 z M 266.87891 454.35156 L 266.87891 459.77539 L 273.91406 459.77539 C 275.64177 459.77539 276.74236 459.83009 277.2168 459.9375 C 277.7002 460.04493 278.07714 460.33138 278.3457 460.79688 C 278.61425 461.26236 278.74805 461.99072 278.74805 462.98438 L 285.01953 462.98438 C 284.92103 461.48942 284.03337 460.34831 282.35938 459.56055 L 284.69727 459.77539 L 284.69727 454.35156 L 266.87891 454.35156 z M 266.87891 468.05078 L 266.87891 473.63672 L 284.69727 473.63672 L 284.69727 468.05078 L 266.87891 468.05078 z M 285.78516 468.05078 L 285.78516 473.63672 L 288.61719 473.63672 L 288.61719 468.05078 L 285.78516 468.05078 z M 281.44727 478.55273 L 281.44727 479.7207 L 272.39648 479.7207 C 270.62402 479.7207 269.49707 479.77071 269.01367 479.86914 C 268.53922 479.96764 268.11425 480.21825 267.73828 480.62109 C 267.37125 481.02392 267.13281 481.48943 267.02539 482.01758 C 266.92689 482.54574 266.87891 483.4287 266.87891 484.66406 L 266.87891 486.85156 L 269.75195 486.85156 C 269.75195 485.96532 269.81885 485.4593 269.95312 485.33398 C 270.0874 485.2176 270.74137 485.16016 271.91406 485.16016 L 281.44727 485.16016 L 281.44727 486.62305 L 284.26758 486.62305 L 284.26758 485.16016 L 287.07422 485.16016 L 287.07422 479.7207 L 284.26758 479.7207 L 284.26758 478.55273 L 281.44727 478.55273 z M 308.87891 487.12891 L 308.87891 497.83008 C 308.87891 501.55078 309.09082 504.01172 309.51562 505.21289 C 309.94043 506.41407 310.73144 507.28614 311.88867 507.82812 C 313.04589 508.38477 314.82618 508.66211 317.22852 508.66211 L 320.52344 508.66211 C 322.8379 508.66211 324.55274 508.28125 325.66602 507.51953 C 326.79396 506.75781 327.59863 505.30859 328.08203 503.16992 C 328.52148 505.08886 329.15235 506.36913 329.97266 507.01367 C 330.79298 507.67285 332.24219 508.00391 334.32227 508.00391 C 337.39845 508.00391 339.625 507.542 341.00195 506.61914 C 342.39355 505.69629 343.31738 504.47948 343.77148 502.9707 C 344.22558 501.47656 344.45117 499.27246 344.45117 496.35742 L 344.45117 487.12891 L 308.87891 487.12891 z M 270.85352 491.44727 C 269.05421 491.44727 267.88478 491.84115 267.34766 492.62891 C 266.81951 493.42562 266.55664 494.29719 266.55664 495.24609 C 266.55664 495.97119 266.71207 496.59407 267.02539 497.11328 C 267.34765 497.64143 267.82731 498.07112 268.46289 498.40234 L 266.87891 498.40234 L 266.87891 503.67969 L 275.82031 503.67969 C 278.76546 503.67969 280.7085 503.58639 281.64844 503.39844 C 282.59734 503.21045 283.39453 502.64974 284.03906 501.71875 C 284.69254 500.78776 285.01953 499.40543 285.01953 497.57031 C 285.01953 496.03955 284.73308 494.79574 284.16016 493.83789 C 283.58724 492.88005 282.92383 492.23829 282.17188 491.91602 C 281.42888 491.60271 280.36881 491.44727 278.99023 491.44727 L 277.79492 491.44727 L 277.79492 496.53516 L 279.66211 496.53516 C 280.65576 496.53516 281.26725 496.58045 281.5 496.66992 C 281.7417 496.75942 281.86328 496.98845 281.86328 497.35547 C 281.86328 497.67773 281.72004 497.90478 281.43359 498.03906 C 281.15608 498.18228 280.55208 498.25391 279.62109 498.25391 C 278.87809 498.25391 278.38623 498.19171 278.14453 498.06641 C 277.90283 497.94108 277.43262 496.98845 276.73438 495.20703 C 276.08985 493.54199 275.52638 492.49885 275.04297 492.07812 C 274.55958 491.65738 273.65024 491.44727 272.31641 491.44727 L 270.85352 491.44727 z M 314.96484 496.37891 L 324.91797 496.37891 C 324.87407 497.75586 324.6914 498.60546 324.36914 498.92773 C 324.04688 499.24999 323.12305 499.41211 321.59961 499.41211 L 318.2832 499.41211 C 316.84765 499.41211 315.9463 499.22949 315.58008 498.86328 C 315.21386 498.51171 315.00877 497.68262 314.96484 496.37891 z M 330.45508 496.37891 L 338.36523 496.37891 C 338.35063 497.33106 338.28514 497.96876 338.16797 498.29102 C 338.05079 498.62794 337.76465 498.89845 337.31055 499.10352 C 336.8711 499.3086 336.0957 499.41211 334.98242 499.41211 C 332.87304 499.41211 331.59081 499.28808 331.13672 499.03906 C 330.69726 498.79004 330.47656 498.21093 330.47656 497.30273 C 330.47656 497.083 330.46958 496.77442 330.45508 496.37891 z M 271.90039 496.53516 C 272.70605 496.53516 273.32423 496.60395 273.75391 496.73828 C 274.1836 496.8815 274.71598 497.38558 275.35156 498.25391 L 271.68555 498.25391 C 270.79037 498.25391 270.23437 498.20121 270.01953 498.09375 C 269.81363 497.99525 269.71094 497.77572 269.71094 497.43555 C 269.71094 497.07748 269.84472 496.83627 270.11328 496.71094 C 270.38183 496.59457 270.97835 496.53516 271.90039 496.53516 z M 273.91406 508.93359 L 273.91406 516.0625 L 277.66016 516.0625 L 277.66016 508.93359 L 273.91406 508.93359 z M 319.46875 515.34375 C 317.30078 515.34375 315.64649 515.49894 314.50391 515.80664 C 313.37599 516.11424 312.33496 516.66213 311.38281 517.45312 C 310.44531 518.25883 309.70605 519.38091 309.16406 520.81641 C 308.62207 522.25201 308.35156 523.90625 308.35156 525.78125 C 308.35156 527.71485 308.62207 529.31935 309.16406 530.59375 C 309.7207 531.88275 310.54785 532.9444 311.64648 533.7793 C 312.74511 534.6143 313.77734 535.14163 314.74414 535.36133 C 315.71094 535.59573 317.09669 535.71289 318.89844 535.71289 L 321.05078 535.71289 L 321.05078 527.29688 L 317.20508 527.29688 C 315.75489 527.29688 314.77442 527.17971 314.26172 526.94531 C 313.76367 526.72561 313.51367 526.27927 313.51367 525.60547 C 313.51367 525.06347 313.70508 524.69831 314.08594 524.50781 C 314.4668 524.31741 315.31641 524.2207 316.63477 524.2207 L 322.94141 524.2207 L 322.94141 535.71289 L 326.80859 535.71289 C 329.63574 535.71289 331.82422 535.38381 333.37695 534.72461 C 334.94434 534.08011 336.19727 532.94436 337.13477 531.31836 C 338.08692 529.70706 338.5625 527.65632 338.5625 525.16602 C 338.5625 523.12992 338.16796 521.32912 337.37695 519.76172 C 336.60058 518.19442 335.47169 517.06535 333.99219 516.37695 C 332.52735 515.68845 330.52149 515.34375 327.97266 515.34375 L 319.46875 515.34375 z M 266.87891 521.55664 L 266.87891 526.2832 L 276.76172 526.2832 L 266.87891 529.22461 L 266.87891 534.17969 L 288.61719 534.17969 L 288.61719 529.45312 L 278.82812 529.45312 L 288.61719 526.2832 L 288.61719 521.55664 L 266.87891 521.55664 z M 327.6875 524.2207 L 329.81836 524.2207 C 331.45898 524.2207 332.46191 524.29471 332.82812 524.44141 C 333.20898 524.58791 333.40039 524.96878 333.40039 525.58398 C 333.40039 526.08198 333.17968 526.41117 332.74023 526.57227 C 332.30078 526.73337 331.32715 526.81445 329.81836 526.81445 L 327.6875 526.81445 L 327.6875 524.2207 z M 270.85352 539.90234 C 269.05421 539.90234 267.88478 540.29618 267.34766 541.08398 C 266.81951 541.88068 266.55664 542.75432 266.55664 543.70312 C 266.55664 544.42822 266.71207 545.04916 267.02539 545.56836 C 267.34765 546.09646 267.82731 546.52622 268.46289 546.85742 L 266.87891 546.85742 L 266.87891 552.13477 L 275.82031 552.13477 C 278.76546 552.13477 280.7085 552.04182 281.64844 551.85352 C 282.59734 551.66552 283.39453 551.10678 284.03906 550.17578 C 284.69254 549.24478 285.01953 547.86049 285.01953 546.02539 C 285.01953 544.49459 284.73308 543.25077 284.16016 542.29297 C 283.58724 541.33507 282.92383 540.69525 282.17188 540.37305 C 281.42888 540.05975 280.36881 539.90234 278.99023 539.90234 L 277.79492 539.90234 L 277.79492 544.99219 L 279.66211 544.99219 C 280.65576 544.99219 281.26725 545.03715 281.5 545.12695 C 281.7417 545.21695 281.86328 545.44345 281.86328 545.81055 C 281.86328 546.13275 281.72004 546.36179 281.43359 546.49609 C 281.15608 546.63929 280.55208 546.71094 279.62109 546.71094 C 278.87809 546.71094 278.38623 546.64698 278.14453 546.52148 C 277.90283 546.39618 277.43262 545.44351 276.73438 543.66211 C 276.08985 541.99711 275.52637 540.954 275.04297 540.5332 C 274.55958 540.1125 273.65024 539.90234 272.31641 539.90234 L 270.85352 539.90234 z M 308.87891 542.50586 L 308.87891 551.64648 L 344.45117 551.64648 L 344.45117 542.50586 L 308.87891 542.50586 z M 271.90039 544.99219 C 272.70605 544.99219 273.32423 545.05916 273.75391 545.19336 C 274.1836 545.33656 274.71598 545.84254 275.35156 546.71094 L 271.68555 546.71094 C 270.79037 546.71094 270.23437 546.65603 270.01953 546.54883 C 269.81363 546.45083 269.71094 546.23083 269.71094 545.89062 C 269.71094 545.53263 269.84472 545.29142 270.11328 545.16602 C 270.38183 545.04972 270.97835 544.99219 271.90039 544.99219 z M 279.75586 557.46875 C 278.75325 557.46875 277.88443 557.64309 277.15039 557.99219 C 276.42529 558.34129 275.61588 559.31275 274.7207 560.90625 C 273.66439 562.80405 273.02734 563.8566 272.8125 564.0625 C 272.59765 564.2595 272.06526 564.35742 271.21484 564.35742 C 270.59717 564.35742 270.19108 564.28141 269.99414 564.12891 C 269.80614 563.97671 269.71094 563.70922 269.71094 563.32422 C 269.71094 562.96622 269.85416 562.72296 270.14062 562.59766 C 270.42708 562.48126 271.04996 562.42383 272.00781 562.42383 L 273.13477 562.42383 L 273.13477 557.61719 L 272.27539 557.61719 C 270.78939 557.61719 269.67936 557.80097 268.94531 558.16797 C 268.21126 558.53497 267.63085 559.20584 267.20117 560.18164 C 266.77148 561.16634 266.55664 562.34796 266.55664 563.72656 C 266.55664 564.97086 266.7526 566.0309 267.14648 566.9082 C 267.54931 567.7945 268.11751 568.42673 268.85156 568.80273 C 269.59456 569.17863 270.69239 569.36523 272.14258 569.36523 C 273.4406 569.36523 274.42905 569.11925 275.10938 568.62695 C 275.78972 568.13455 276.5153 567.10089 277.28516 565.52539 C 277.86703 564.34379 278.30892 563.56068 278.61328 563.17578 C 278.91764 562.79978 279.19662 562.57073 279.44727 562.49023 C 279.70688 562.41823 280.10824 562.38281 280.6543 562.38281 C 281.05714 562.38281 281.35775 562.45883 281.55469 562.61133 C 281.76058 562.76353 281.86328 562.99248 281.86328 563.29688 C 281.86328 563.67287 281.75113 563.90454 281.52734 563.99414 C 281.31249 564.09214 280.79427 564.14258 279.9707 564.14258 L 279.00391 564.14258 L 279.00391 568.94922 L 280.03711 568.94922 C 280.93229 568.94922 281.59098 568.90113 282.01172 568.80273 C 282.43245 568.71273 282.8885 568.44369 283.38086 567.99609 C 283.8732 567.55749 284.26708 566.92234 284.5625 566.08984 C 284.86686 565.26624 285.01953 564.26373 285.01953 563.08203 C 285.01953 561.89153 284.83577 560.84355 284.46875 559.93945 C 284.10173 559.04425 283.57682 558.4092 282.89648 558.0332 C 282.22509 557.6572 281.1792 557.46875 279.75586 557.46875 z M 319.46875 558.41602 C 317.30078 558.41602 315.64649 558.57131 314.50391 558.87891 C 313.37599 559.18651 312.33496 559.73439 311.38281 560.52539 C 310.44531 561.33109 309.70605 562.45307 309.16406 563.88867 C 308.62207 565.32417 308.35156 566.97852 308.35156 568.85352 C 308.35156 570.78712 308.62207 572.39162 309.16406 573.66602 C 309.7207 574.95512 310.54785 576.01656 311.64648 576.85156 C 312.74511 577.68646 313.77734 578.21389 314.74414 578.43359 C 315.71094 578.66799 317.09669 578.78516 318.89844 578.78516 L 321.05078 578.78516 L 321.05078 570.36914 L 317.20508 570.36914 C 315.75489 570.36914 314.77441 570.25198 314.26172 570.01758 C 313.76367 569.79788 313.51367 569.35153 313.51367 568.67773 C 313.51367 568.13573 313.70508 567.77048 314.08594 567.58008 C 314.4668 567.38968 315.31641 567.29297 316.63477 567.29297 L 322.94141 567.29297 L 322.94141 578.78516 L 326.80859 578.78516 C 329.63574 578.78516 331.82422 578.45608 333.37695 577.79688 C 334.94434 577.15238 336.19727 576.01663 337.13477 574.39062 C 338.08692 572.77932 338.5625 570.72848 338.5625 568.23828 C 338.5625 566.20218 338.16796 564.40138 337.37695 562.83398 C 336.60058 561.26658 335.47169 560.13772 333.99219 559.44922 C 332.52735 558.76082 330.52149 558.41602 327.97266 558.41602 L 319.46875 558.41602 z M 327.6875 567.29297 L 329.81836 567.29297 C 331.45898 567.29297 332.46191 567.36697 332.82812 567.51367 C 333.20898 567.66017 333.40039 568.04095 333.40039 568.65625 C 333.40039 569.15425 333.17968 569.48343 332.74023 569.64453 C 332.30078 569.80573 331.32715 569.88672 329.81836 569.88672 L 327.6875 569.88672 L 327.6875 567.29297 z M 270.85352 574.44531 C 269.05421 574.44531 267.88478 574.83915 267.34766 575.62695 C 266.81951 576.42365 266.55664 577.29524 266.55664 578.24414 C 266.55664 578.96924 266.71207 579.59213 267.02539 580.11133 C 267.34765 580.63953 267.82731 581.06919 268.46289 581.40039 L 266.87891 581.40039 L 266.87891 586.67773 L 275.82031 586.67773 C 278.76546 586.67773 280.7085 586.58283 281.64844 586.39453 C 282.59734 586.20663 283.39453 585.6478 284.03906 584.7168 C 284.69254 583.7858 285.01953 582.40346 285.01953 580.56836 C 285.01953 579.03756 284.73308 577.79178 284.16016 576.83398 C 283.58724 575.87618 282.92383 575.23626 282.17188 574.91406 C 281.42888 574.60076 280.36881 574.44531 278.99023 574.44531 L 277.79492 574.44531 L 277.79492 579.5332 L 279.66211 579.5332 C 280.65576 579.5332 281.26725 579.57817 281.5 579.66797 C 281.7417 579.75697 281.86328 579.98652 281.86328 580.35352 C 281.86328 580.67582 281.72004 580.90281 281.43359 581.03711 C 281.15608 581.18041 280.55208 581.25195 279.62109 581.25195 C 278.87809 581.25195 278.38623 581.18995 278.14453 581.06445 C 277.90283 580.93905 277.43262 579.98648 276.73438 578.20508 C 276.08985 576.54008 275.52638 575.49687 275.04297 575.07617 C 274.55958 574.65547 273.65024 574.44531 272.31641 574.44531 L 270.85352 574.44531 z M 271.90039 579.5332 C 272.70605 579.5332 273.32423 579.60018 273.75391 579.73438 C 274.1836 579.87757 274.71598 580.38355 275.35156 581.25195 L 271.68555 581.25195 C 270.79037 581.25195 270.23437 581.199 270.01953 581.0918 C 269.81363 580.9938 269.71094 580.77379 269.71094 580.43359 C 269.71094 580.07549 269.84472 579.83428 270.11328 579.70898 C 270.38183 579.59258 270.97835 579.5332 271.90039 579.5332 z M 315.38281 585.18164 C 312.43847 585.18164 310.52539 585.82613 309.64648 587.11523 C 308.78223 588.41893 308.35156 589.84769 308.35156 591.40039 C 308.35156 592.58689 308.60644 593.60548 309.11914 594.45508 C 309.64648 595.31938 310.43066 596.02245 311.4707 596.56445 L 308.87891 596.56445 L 308.87891 605.19922 L 323.51172 605.19922 C 328.33105 605.19922 331.51075 605.04588 333.04883 604.73828 C 334.60157 604.43068 335.90429 603.51559 336.95898 601.99219 C 338.02831 600.46879 338.5625 598.20407 338.5625 595.20117 C 338.5625 592.69627 338.09375 590.66105 337.15625 589.09375 C 336.21875 587.52635 335.13477 586.47847 333.9043 585.95117 C 332.68848 585.43847 330.95313 585.18164 328.69727 585.18164 L 326.74219 585.18164 L 326.74219 593.50977 L 329.79688 593.50977 C 331.42286 593.50977 332.42578 593.58377 332.80664 593.73047 C 333.20215 593.87697 333.40039 594.24901 333.40039 594.84961 C 333.40039 595.37701 333.16603 595.751 332.69727 595.9707 C 332.24317 596.2051 331.25392 596.32227 329.73047 596.32227 C 328.51466 596.32227 327.708 596.22072 327.3125 596.01562 C 326.91699 595.81062 326.14844 594.24898 325.00586 591.33398 C 323.95117 588.60938 323.02929 586.90324 322.23828 586.21484 C 321.44726 585.52634 319.95995 585.18164 317.77734 585.18164 L 315.38281 585.18164 z M 272.67969 592.33203 C 271.14893 592.33203 270.12273 592.36473 269.60352 592.42773 C 269.09327 592.49073 268.6014 592.64588 268.12695 592.89648 C 267.6525 593.15608 267.27279 593.5547 266.98633 594.0918 C 266.69988 594.6289 266.55664 595.30444 266.55664 596.11914 C 266.55664 596.83524 266.70265 597.46757 266.99805 598.01367 C 267.30241 598.56867 267.7557 599.03416 268.35547 599.41016 L 266.87891 599.31445 L 266.87891 604.83398 L 284.69727 604.83398 L 284.69727 599.41016 L 272.70508 599.41016 C 271.24594 599.41016 270.38183 599.36916 270.11328 599.28906 C 269.84472 599.21706 269.71094 598.97897 269.71094 598.57617 C 269.71094 598.20017 269.84195 597.96841 270.10156 597.87891 C 270.36116 597.79891 271.18474 597.75781 272.57227 597.75781 L 284.69727 597.75781 L 284.69727 592.33203 L 272.67969 592.33203 z M 317.0957 593.50977 C 318.41405 593.50977 319.42579 593.62004 320.12891 593.83984 C 320.83204 594.07414 321.70215 594.90137 322.74219 596.32227 L 316.74414 596.32227 C 315.2793 596.32227 314.37109 596.23429 314.01953 596.05859 C 313.68261 595.89749 313.51367 595.53912 313.51367 594.98242 C 313.51367 594.39652 313.73438 594.00002 314.17383 593.79492 C 314.61329 593.60452 315.58691 593.50977 317.0957 593.50977 z M 271.60547 610.51758 C 270.28956 610.51758 269.33968 610.60158 268.75781 610.77148 C 268.17594 610.95048 267.66047 611.3491 267.21289 611.9668 C 266.77425 612.5845 266.55664 613.31475 266.55664 614.15625 C 266.55664 614.78285 266.69043 615.38218 266.95898 615.95508 C 267.22753 616.52798 267.63087 617.07455 268.16797 617.59375 L 266.87891 617.59375 L 266.87891 623.01758 L 288.61719 623.01758 L 288.61719 617.59375 L 283.56836 617.59375 C 284.05175 617.13715 284.41455 616.6265 284.65625 616.0625 C 284.89795 615.5075 285.01953 614.89406 285.01953 614.22266 C 285.01953 613.35426 284.79997 612.60707 284.36133 611.98047 C 283.93165 611.35387 283.43033 610.95048 282.85742 610.77148 C 282.2845 610.60138 281.31298 610.51758 279.94336 610.51758 L 271.60547 610.51758 z M 308.87891 612.12305 L 308.87891 621 L 328.58789 621 C 330.78515 621 332.13281 621.08099 332.63086 621.24219 C 333.14356 621.40329 333.40039 621.79783 333.40039 622.42773 C 333.40039 623.02823 333.17968 623.39544 332.74023 623.52734 C 332.30078 623.65914 331.07715 623.72461 329.07031 623.72461 L 308.87891 623.72461 L 308.87891 632.60156 L 329.3125 632.60156 C 331.86132 632.60156 333.67773 632.46189 334.76172 632.18359 C 335.86035 631.90529 336.76856 631.28321 337.48633 630.31641 C 338.20411 629.34961 338.5625 628.10553 338.5625 626.58203 C 338.5625 625.36623 338.29199 624.28906 337.75 623.35156 C 337.22266 622.42866 336.42482 621.6445 335.35547 621 L 338.03516 621.1543 L 338.03516 612.12305 L 308.87891 612.12305 z M 271.48438 615.94141 L 280.21094 615.94141 C 280.90919 615.94141 281.35775 615.99642 281.55469 616.10352 C 281.76058 616.21992 281.86328 616.43952 281.86328 616.76172 C 281.86328 617.09302 281.75113 617.31057 281.52734 617.41797 C 281.30355 617.53437 280.86443 617.59375 280.21094 617.59375 L 271.9668 617.59375 C 270.97315 617.59375 270.34749 617.53477 270.08789 617.41797 C 269.83723 617.30157 269.71094 617.0698 269.71094 616.7207 C 269.71094 616.4164 269.82308 616.21102 270.04688 616.10352 C 270.27963 615.99612 270.75928 615.94141 271.48438 615.94141 z "
       transform="translate(-6.1035156e-5,0)"
       id="path4430" />
  </g>
</svg>
