<?xml version="1.0" encoding="UTF-8" standalone="no"?>
<!-- Created with Inkscape (http://www.inkscape.org/) -->

<svg
   xmlns:dc="http://purl.org/dc/elements/1.1/"
   xmlns:cc="http://creativecommons.org/ns#"
   xmlns:rdf="http://www.w3.org/1999/02/22-rdf-syntax-ns#"
   xmlns:svg="http://www.w3.org/2000/svg"
   xmlns="http://www.w3.org/2000/svg"
   xmlns:sodipodi="http://sodipodi.sourceforge.net/DTD/sodipodi-0.dtd"
   xmlns:inkscape="http://www.inkscape.org/namespaces/inkscape"
   width="308.06332mm"
   height="292.39926mm"
   viewBox="0 0 1091.5629 1036.0604"
   id="svg2"
   version="1.1"
   inkscape:version="0.91 r13725"
   sodipodi:docname="baubles.svg">
  <defs
     id="defs4" />
  <sodipodi:namedview
     id="base"
     pagecolor="#ffffff"
     bordercolor="#666666"
     borderopacity="1.0"
     inkscape:pageopacity="0.0"
     inkscape:pageshadow="2"
     inkscape:zoom="0.24748737"
     inkscape:cx="845.95203"
     inkscape:cy="576.23766"
     inkscape:document-units="mm"
     inkscape:current-layer="layer1"
     showgrid="false"
     inkscape:window-width="1440"
     inkscape:window-height="837"
     inkscape:window-x="-4"
     inkscape:window-y="-4"
     inkscape:window-maximized="1"
     fit-margin-top="10"
     fit-margin-left="10"
     fit-margin-right="10"
     fit-margin-bottom="10" />
  <metadata
     id="metadata7">
    <rdf:RDF>
      <cc:Work
         rdf:about="">
        <dc:format>image/svg+xml</dc:format>
        <dc:type
           rdf:resource="http://purl.org/dc/dcmitype/StillImage" />
        <dc:title></dc:title>
      </cc:Work>
    </rdf:RDF>
  </metadata>
  <g
     inkscape:label="Layer 1"
     inkscape:groupmode="layer"
     id="layer1"
     transform="translate(1412.3067,-113.76373)">
    <path
       style="fill:#ff0000;stroke:#ff0000;stroke-width:0.74309069;stroke-linejoin:round;stroke-miterlimit:4;stroke-dasharray:none"
       d="m -1259.2422,153.56836 a 17.34499,17.34499 0 0 0 -17.3457,17.3457 17.34499,17.34499 0 0 0 0.3145,3.22071 c -6.0431,0.77681 -12.3027,2.04564 -18.5957,3.99218 -16.5135,6.02753 -27.2168,12.82523 -39.6289,25.16211 -19.8492,19.72883 -29.8614,42.66945 -30.9278,70.87305 -0.7682,20.31491 2.1906,34.76563 10.5586,51.57617 15.1027,30.34001 43.525,51.78561 76.5371,57.75 9.9649,1.80038 26.8496,1.8753 36.584,0.16211 22.0394,-3.87873 44.9548,-15.84029 58.9512,-30.77344 11.5356,-12.30752 21.9986,-30.68208 26.1582,-45.9375 6.8096,-24.97455 4.1167,-52.60139 -7.377,-75.67773 -12.2836,-24.66224 -35.9544,-45.28925 -61.5449,-53.62891 -1.9829,-0.64618 -8.0807,-2.24454 -16.6738,-3.35742 a 17.34499,17.34499 0 0 0 0.334,-3.36133 17.34499,17.34499 0 0 0 -17.3438,-17.3457 z m 0,9.85742 a 8.5825005,8.5825005 0 0 1 8.582,8.58399 8.5825005,8.5825005 0 0 1 -8.582,8.58203 8.5825005,8.5825005 0 0 1 -8.582,-8.58203 8.5825005,8.5825005 0 0 1 8.582,-8.58399 z m -46.7129,45.17969 3.8555,0 0,7.71289 0,7.71289 3.8574,0 c 3.8562,0 3.8555,-0.001 3.8555,-3.85742 0,-3.85623 0,-3.85547 3.8574,-3.85547 l 3.8555,0 0,11.56836 0,11.56836 -3.8555,0 c -3.8562,0 -3.8574,7.6e-4 -3.8574,-3.85547 0,-3.85623 7e-4,-3.85547 -3.8555,-3.85547 -3.8563,0 -3.8574,-10e-4 -3.8574,-3.85742 l 0,-3.85547 -7.7109,0 -7.7129,0 0,-3.85742 c 0,-3.85623 -9e-4,-3.85547 3.8554,-3.85547 3.8562,0 3.8575,7.6e-4 3.8575,-3.85547 0,-3.85623 -8e-4,-3.85742 3.8554,-3.85742 z m 61.6563,0 0,0 3.8965,0 0,3.85742 c 0,3.85623 0,3.85547 3.8574,3.85547 3.8563,0 3.8555,-7.6e-4 3.8555,3.85547 l 0,3.85742 -7.7129,0 -7.7109,0 0.1152,-6.50781 c 0.063,-3.57906 0.043,-7.0501 -0.043,-7.71289 -0.1026,-0.79096 1.1823,-1.20484 3.7403,-1.20508 z m -19.2364,7.71289 3.8555,0 c 3.8562,0 3.8555,-7.6e-4 3.8555,3.85547 0,3.85623 0,3.85742 3.8574,3.85742 l 3.8535,0 0,3.85547 c 0,3.85623 8e-4,3.85742 -3.8555,3.85742 -3.8557,0 -3.8554,-7.6e-4 -3.8554,3.85547 0,3.85623 0,3.85547 -3.8574,3.85547 -3.8562,0 -3.8555,10e-4 -3.8555,3.85742 0,3.85623 -7e-4,3.85547 3.8555,3.85547 3.8453,0 3.8574,0.0105 3.8574,3.79883 0,3.69295 -0.1002,3.80673 -3.6153,4.09765 l -3.6152,0.29883 0,7.71289 0,7.71094 27.2344,0.25586 27.2344,0.25781 0,-4.41211 0,-4.41211 3.6152,0.29883 c 3.5252,0.29177 3.6152,0.39606 3.6152,4.15625 0,3.76019 -0.09,3.86448 -3.6152,4.15625 -3.5152,0.29092 -3.6152,0.40275 -3.6152,4.0957 0,3.78802 0.01,3.79883 3.8554,3.79883 l 3.8575,0 0,34.70508 0,34.70703 -3.8575,0 -3.8554,0 0,-19.28125 0,-19.28125 -3.8555,0 -3.8574,0 0,19.28125 0,19.28125 -3.8555,0 c -3.5494,0 -3.862,-0.21014 -3.918,-2.65039 -0.033,-1.45813 -0.01,-10.13475 0.059,-19.28125 l 0.1153,-16.63086 -15.9629,0 -15.9629,0 0,19.28125 0,19.28125 -3.8555,0 -3.8574,0 0,-19.28125 0,-19.28125 -3.8555,0 -3.8554,0 0,19.28125 0,19.28125 -3.8555,0 -3.8574,0 0,-34.64844 0,-34.64648 -3.6153,-0.30078 c -3.4188,-0.28298 -3.6312,-0.49516 -3.914,-3.91406 l -0.2989,-3.61524 -11.5117,0 -11.5097,0 0,-8.19336 0,-8.19531 7.7128,0 7.7129,0 0,-3.85547 c 0,-3.84623 0.01,-3.85742 3.7969,-3.85742 3.6929,0 3.8067,-0.10005 4.0977,-3.61524 l 0.2988,-3.61523 11.3281,-0.27148 11.3281,-0.27149 0,-11.53711 0,-11.53906 z m -10.2968,31.01367 c -0.369,-0.002 -0.7916,0.003 -1.2735,0.01 -3.8273,0.0528 -3.8554,0.0821 -3.8554,3.79687 0,3.72359 0.019,3.74219 3.8554,3.74219 3.8452,0 3.8575,-0.009 3.8575,-3.79492 0,-3.32026 0,-3.73744 -2.584,-3.75391 z"
       id="path5890"
       inkscape:connector-curvature="0" />
    <path
       style="fill:#ff0000;stroke:#ff0000;stroke-width:0.74309069;stroke-linejoin:round;stroke-miterlimit:4;stroke-dasharray:none"
       d="m -995.15625,149.56836 a 17.34499,17.34499 0 0 0 -17.34575,17.3457 17.34499,17.34499 0 0 0 1.3418,6.64844 c -13.839,1.99455 -27.9111,7.09556 -41.455,16.67578 -0.2223,1.86708 -1.0113,2.73216 -2.8985,3.17774 -2.5933,0.61233 -6.9375,3.91963 -6.9375,5.28125 0,0.39746 1.5215,1.22422 3.3809,1.83789 3.8488,1.27023 4.2293,2.96301 1.4609,6.48242 -1.0553,1.34157 -1.7135,2.77039 -1.4629,3.17578 0.7727,1.25014 5.6821,1.80413 7.4766,0.84375 3.4588,-1.85109 7.4492,2.39839 5.5625,5.92383 -1.6452,3.07394 -4.7124,3.35666 -7.5742,0.69726 -1.4111,-1.31135 -3.6961,-2.65022 -5.0781,-2.97461 -2.4986,-0.58644 -2.5113,-0.56047 -2.0391,4.35352 l 0.4746,4.94141 -4.6055,-0.69141 -4.6054,-0.68945 0.6777,2.73242 c 0.3734,1.50377 1.5159,3.63174 2.5391,4.72851 3.3098,3.54793 1.8644,8.14844 -2.5606,8.14844 -3.069,0 -4.589,-2.34304 -3.9082,-6.02539 0.3202,-1.73243 0.244,-4.39563 -0.168,-5.91797 l -0.748,-2.76758 -3.0039,2.52539 c -1.6513,1.38953 -3.4864,2.52735 -4.0781,2.52735 -0.5917,0 -1.7945,-1.79835 -2.6739,-3.9961 -1.5072,-3.76681 -1.6793,-3.8919 -3.0058,-2.17382 -3.2055,4.15145 -10.138,20.27541 -12.5039,29.08398 -2.2882,8.51907 -2.5366,11.14655 -2.5586,26.83008 -0.021,15.83211 0.2039,18.23225 2.5351,26.83203 2.4148,8.9079 9.3424,24.95343 12.5996,29.18359 1.426,1.85182 1.5405,1.77177 3.1192,-2.17382 0.9014,-2.25255 1.993,-4.09571 2.4258,-4.09571 0.4327,0 2.1419,1.14089 3.7988,2.53516 1.657,1.39426 3.3212,2.22776 3.6973,1.85156 0.3759,-0.37621 0.7282,-2.93111 0.7832,-5.67578 0.1408,-7.07996 0.1787,-7.2083 2.2793,-7.875 4.8645,-1.54396 7.8197,4.3388 3.9785,7.91992 -1.0194,0.9504 -2.1654,2.96492 -2.5449,4.47852 -0.6883,2.74453 -0.6776,2.75223 3.5449,2.41601 l 4.2343,-0.33789 -0.062,4.58789 c -0.033,2.5235 0.2276,4.58789 0.5801,4.58789 1.7556,0 6.7266,-2.23416 6.7266,-3.02343 0,-1.18261 3.9984,-2.64883 5.5801,-2.04688 2.5414,0.96709 3.3413,4.0952 1.6914,6.61328 -1.3952,2.12942 -2.0331,2.31988 -6.1055,1.82813 -2.5012,-0.30204 -5.1878,-0.12005 -5.9707,0.40429 -1.2097,0.81004 -1.089,1.31017 0.8105,3.33204 2.9318,3.12072 2.3477,5.6406 -1.5683,6.76367 -1.7229,0.49414 -3.1309,1.19483 -3.1309,1.55664 0,1.17474 4.2957,4.6548 6.1739,5.00195 1.7907,0.33096 2.8816,1.69885 3.8085,4.77344 0.6067,2.01182 13.6741,8.77234 23.0215,11.91015 4.0595,1.36275 10.7914,3.09273 14.959,3.84571 10.1927,1.84161 26.94788,1.86538 37.31057,0.0527 10.03011,-1.75449 22.81471,-6.08235 31.73632,-10.74218 5.18782,-2.70966 6.52002,-3.88528 6.97461,-6.15821 0.41226,-2.06131 1.27747,-2.97707 3.24805,-3.44336 2.73548,-0.64729 7.03125,-3.9354 7.03125,-5.38086 0,-0.43866 -0.82055,-0.79687 -1.82422,-0.79687 -1.00366,0 -2.8279,-0.81327 -4.05469,-1.80664 l -2.23047,-1.80664 2.64454,-3.14453 c 1.4554,-1.72963 2.47117,-3.31985 2.25586,-3.53516 -1.1936,-1.19359 -6.36405,-1.96408 -7.24805,-1.08008 -0.54612,0.54612 -2.10392,0.71412 -3.46289,0.37305 -2.88724,-0.72466 -4.31834,-4.68006 -2.49024,-6.88281 1.67809,-2.02198 6.25477,-1.79621 7.8418,0.38671 0.72887,1.00257 2.57244,2.11104 4.09766,2.4629 l 2.77343,0.63867 -0.66015,-4.39453 c -0.72362,-4.82552 -0.72742,-4.82013 5.49804,-4.44532 1.99224,0.11994 3.6211,0.027 3.6211,-0.20508 0,-1.51114 -2.27183,-6.5039 -2.95899,-6.5039 -0.4606,0 -1.31659,-0.8999 -1.90429,-1.99805 -0.83123,-1.55315 -0.7271,-2.51763 0.4707,-4.3457 1.87066,-2.855 4.4592,-3.01226 6.81055,-0.41406 1.36077,1.50364 1.53845,2.42037 0.79101,4.10547 -0.59616,1.34406 -0.63634,3.39338 -0.10547,5.38671 l 0.85547,3.2168 3.37696,-2.57617 c 3.87724,-2.95733 5.63491,-2.29085 6.69531,2.53711 0.34817,1.58522 1.11577,2.72182 1.70508,2.52539 1.53312,-0.51104 8.92934,-15.75113 11.81445,-24.3457 6.89542,-20.54108 6.67227,-45.93787 -0.58984,-67.29688 -2.36197,-6.94691 -10.36189,-23.04883 -11.45118,-23.04883 -0.39338,0 -1.23637,1.73823 -1.87304,3.86328 -0.63668,2.12505 -1.64177,3.86524 -2.23438,3.86524 -0.5926,0 -2.51523,-1.0984 -4.27344,-2.43945 l -3.19726,-2.4375 -0.84375,3.1621 c -0.5163,1.93776 -0.46848,4.00285 0.12109,5.33204 0.74744,1.6851 0.56976,2.60183 -0.79101,4.10546 -2.10392,2.3248 -4.63067,2.48261 -6.69531,0.41797 -2.11853,-2.11852 -1.90129,-3.76435 0.89648,-6.7832 1.32816,-1.4331 2.41602,-2.94131 2.41602,-3.35156 0,-0.41023 0.27386,-1.46164 0.60937,-2.33594 0.52362,-1.36452 -0.0579,-1.54737 -4.10547,-1.28711 l -4.71484,0.30469 0.3164,-4.54297 0.31641,-4.54297 -2.87891,0.82617 c -1.5831,0.45404 -3.78976,1.73703 -4.90429,2.85156 -2.44433,2.44433 -3.72631,2.53489 -6.05469,0.42774 -2.3001,-2.08155 -2.2412,-4.43495 0.16797,-6.61524 1.58831,-1.43738 2.36255,-1.55748 4.31055,-0.66992 1.71169,0.77985 3.20185,0.79287 5.34179,0.0469 l 2.96875,-1.03516 -2.53125,-3.31836 c -2.90362,-3.80684 -2.22477,-5.5804 2.53125,-6.625 1.55708,-0.34198 2.83008,-0.88503 2.83008,-1.20703 0,-1.5554 -4.45874,-5.05664 -6.43945,-5.05664 -1.62745,0 -2.70127,-0.97081 -3.93555,-3.55273 -1.37067,-2.86722 -3.09535,-4.24128 -8.94336,-7.125 -9.62235,-3.99323 -20.40159,-7.33887 -31.81641,-9.13282 a 17.34499,17.34499 0 0 0 1.51172,-7.05078 17.34499,17.34499 0 0 0 -17.3457,-17.3457 z m 0.002,9.81836 a 8.5825005,8.5825005 0 0 1 8.58203,8.58203 8.5825005,8.5825005 0 0 1 -8.58203,8.58203 8.5825005,8.5825005 0 0 1 -8.58395,-8.58203 8.5825005,8.5825005 0 0 1 8.58395,-8.58203 z m 12.8418,21.77344 c 1.6186,-0.0758 3.24074,0.64804 4.07031,2.46875 0.90764,1.99208 0.79517,2.7462 -0.65234,4.3457 -0.96353,1.06468 -2.26722,1.93555 -2.89649,1.93555 -1.38512,0 -3.63396,4.61582 -2.85937,5.86914 0.30373,0.49145 1.84473,0.89258 3.42383,0.89258 3.67808,-10e-6 4.50478,2.12214 2.48047,6.36718 l -1.57032,3.29297 3.53125,0 c 1.94181,0 4.32708,-0.72233 5.30078,-1.60351 1.44081,-1.3039 2.2176,-1.39596 4.17969,-0.50196 3.11749,1.42041 3.39327,6.34117 0.44336,7.91992 -2.0948,1.1211 -5.75976,0.45245 -5.75976,-1.05078 0,-0.49546 -1.73121,-0.90039 -3.84766,-0.90039 l -3.84766,0 1.57032,3.29297 c 2.09876,4.40115 1.21597,6.36719 -2.85938,6.36719 -1.78754,0 -3.50045,0.25045 -3.80664,0.55664 -0.79249,0.79249 2.43621,6.18926 3.70703,6.19727 0.58174,0.003 1.84702,0.87867 2.81055,1.94335 1.44751,1.5995 1.55998,2.35363 0.65234,4.34571 -2.21219,4.85522 -10.05908,1.90289 -8.45117,-3.17969 0.28778,-0.90965 -0.27338,-2.86762 -1.24805,-4.35156 l -1.77343,-2.69727 -2.60938,3.42188 c -1.43572,1.88239 -2.95373,3.42187 -3.37305,3.42187 -0.41943,0 -1.85727,-1.5374 -3.19531,-3.41797 l -2.43367,-3.41992 -1.584,2.41992 c -0.8718,1.33063 -1.5859,3.65003 -1.5859,5.15625 0,1.50624 -0.5207,3.26093 -1.1582,3.89844 -1.5861,1.58624 -5.1187,1.45845 -6.5254,-0.23633 -1.7473,-2.10554 -0.8207,-5.65396 1.8184,-6.96484 2.1222,-1.05402 4.7782,-4.53126 4.8652,-6.36914 0.019,-0.39845 -1.6798,-0.72461 -3.7734,-0.72461 -4.7191,0 -5.2548,-0.81171 -3.4297,-5.17969 0.7934,-1.89879 1.4414,-3.68411 1.4414,-3.9668 0,-1.12268 -6.3944,-0.3643 -8.1543,0.9668 -2.4496,1.8528 -3.0612,1.79427 -5.3691,-0.51367 -2.5775,-2.57743 -2.4336,-4.45528 0.4843,-6.36719 2.2255,-1.45815 2.6009,-1.46104 4.795,-0.0234 2.0544,1.34611 8.2442,2.24366 8.2442,1.19532 0,-0.20075 -0.6648,-1.95858 -1.4786,-3.90625 -1.8216,-4.35983 -1.2636,-5.38867 2.9277,-5.38867 1.7967,0 3.5356,-0.43257 3.8633,-0.9629 0.8048,-1.30219 -1.763,-4.81369 -4.5215,-6.18359 -4.2036,-2.08758 -3.0438,-8.30859 1.5488,-8.30859 2.909,0 4.4175,1.78896 4.4434,5.26562 0.012,1.62035 0.8204,3.98385 1.797,5.25391 l 1.7754,2.31055 1.7753,-3.00391 c 2.53558,-4.29253 3.90508,-4.40769 6.83203,-0.57031 l 2.58008,3.38476 1.77343,-2.69726 c 0.97467,-1.48393 1.53583,-3.44193 1.24805,-4.35157 -1.00494,-3.17661 1.6832,-5.52214 4.38086,-5.64843 z m -13.28516,11.51172 -1.52343,2.17578 c -1.12542,1.60684 -1.24716,2.50896 -0.4668,3.44922 2.71631,3.27298 5.89546,-0.0513 3.42383,-3.58008 l -1.4336,-2.04492 z m -10.41999,7.86328 c -1.9271,0 -2.4062,0.37397 -1.9629,1.52929 0.3225,0.84035 0.5861,1.92627 0.5861,2.41407 0,1.11982 1.9982,1.12169 3.7636,0.004 2.0797,-1.3169 0.4895,-3.94726 -2.3868,-3.94726 z m 20.80867,0 c -2.13585,0 -2.86719,0.45207 -2.86719,1.77148 0,0.97399 0.30518,2.07668 0.67773,2.44922 1.22778,1.2278 3.43774,0.16393 4.25391,-2.04688 0.71836,-1.94586 0.50217,-2.17382 -2.06445,-2.17382 z m 59.36328,2.19531 c -0.3465,0.0223 -0.7618,0.1006 -1.26368,0.22656 -3.44923,0.86569 -3.57887,1.14538 -1.5664,3.36914 0.96452,1.06578 2.03428,1.9375 2.37695,1.9375 1.44825,0 2.68071,-2.23613 2.21485,-4.01758 -0.29997,-1.14708 -0.72222,-1.58242 -1.76172,-1.51562 z m -139.25985,0.0898 c -0.8831,-0.0397 -1.3351,0.45134 -1.7187,1.66016 -0.4223,1.33037 -0.1867,2.39448 0.6466,2.92187 1.6676,1.05551 2.844,0.67555 4.1053,-1.32422 1.1423,-1.81092 0.9175,-2.15359 -1.9921,-3.04687 -0.4034,-0.12386 -0.7466,-0.19769 -1.041,-0.21094 z m 69.29305,1.09571 c -1.89645,0 -2.75076,0.41298 -2.45508,1.18359 0.24943,0.65003 -0.28971,1.62656 -1.19726,2.17187 -1.55641,0.93509 -1.55641,1.04928 0,1.98438 0.90755,0.5453 1.428,1.56931 1.15625,2.27734 -0.34956,0.91108 0.36767,1.25634 2.45312,1.18164 1.62073,-0.058 2.94825,-0.62598 2.94922,-1.26367 10e-4,-0.63767 0.7617,-1.61616 1.69141,-2.17383 1.60989,-0.96564 1.60989,-1.0617 0,-2.02734 -0.92971,-0.55767 -1.68946,-1.53616 -1.68946,-2.17383 0,-0.64524 -1.28962,-1.16015 -2.9082,-1.16015 z m 76.78125,0.6582 c -0.33219,0.0672 -0.33184,0.65072 0.0195,1.75781 0.35174,1.10822 0.17348,1.93164 -0.41797,1.93164 -0.56707,0 -1.02929,0.43358 -1.02929,0.96485 0,0.53126 0.65037,0.96679 1.44726,0.96679 0.83968,0 1.44922,0.87569 1.44922,2.08203 0,1.89947 0.1489,1.95312 1.69141,0.60938 0.92971,-0.80992 2.34178,-1.24256 3.13867,-0.96094 0.7969,0.28162 -0.0722,-1.26038 -1.93164,-3.42578 -2.33312,-2.71704 -3.81355,-4.03779 -4.36719,-3.92578 z m -153.7676,0.41211 c -0.4765,0.0149 -1.333,0.95014 -3.0215,3.08203 -1.7693,2.23386 -2.5717,3.81422 -1.7832,3.51172 0.7883,-0.3025 1.7535,-0.0302 2.1465,0.60547 0.5202,0.84177 0.9546,0.72755 1.5957,-0.41797 0.4843,-0.86513 1.5629,-1.57227 2.3985,-1.57227 1.0942,0 1.2452,-0.33738 0.539,-1.20703 -0.539,-0.66408 -1.1377,-2.05784 -1.33,-3.0957 -0.1103,-0.59429 -0.259,-0.91521 -0.545,-0.90625 z m 66.4239,6.24414 c -0.6566,0.0808 -0.8838,0.75476 -1.4238,2.51367 -0.5186,1.68896 -0.2108,2.16573 1.5703,2.42969 3.7423,0.55455 5.1954,-3.43065 1.6601,-4.55274 -0.8639,-0.27421 -1.4127,-0.43908 -1.8067,-0.39062 z m 20.65034,0.14844 c -1.23488,-0.0439 -2.35156,0.94347 -2.35156,2.65039 0,1.53624 0.62968,1.96093 2.89844,1.96093 3.20827,0 3.53671,-0.68906 1.58984,-3.35156 -0.61048,-0.83488 -1.39579,-1.23344 -2.13672,-1.25976 z m -82.58004,2.53515 c -1.0156,0.0305 -1.875,0.63905 -1.875,1.91602 0,0.974 0.2902,2.0599 0.6445,2.41406 0.3542,0.35418 1.5978,0.64453 2.7637,0.64453 1.7403,0 2.0372,-0.43156 1.6582,-2.41406 -0.3216,-1.6827 -1.8856,-2.59979 -3.1914,-2.56055 z m 145.05074,0.14453 c -1.67584,0 -3.00195,1.74174 -3.00195,3.94336 0,0.48781 1.08786,0.88672 2.41602,0.88672 1.93187,0 2.41406,-0.4822 2.41406,-2.41406 0,-1.72538 -0.52166,-2.41602 -1.82813,-2.41602 z m -155.39054,2.20703 c -1.5439,0.0473 -2.6254,2.21989 -1.5743,4.95899 0.7562,1.97067 1.65,1.92998 3.5372,-0.16211 1.2698,-1.40753 1.3143,-1.97694 0.2714,-3.39844 -0.7361,-1.00352 -1.5326,-1.41995 -2.2343,-1.39844 z m 83.33,0.31836 c -0.43772,0.0609 -0.92863,0.3817 -1.58594,0.97657 -1.56868,1.41957 -1.58396,1.72685 -0.18164,3.86718 1.43097,2.18391 1.60345,2.22089 2.82031,0.61719 1.6203,-2.13522 1.67541,-3.4164 0.21094,-4.88086 -0.44197,-0.44197 -0.82596,-0.64096 -1.26367,-0.58008 z m 82.76367,0.0195 c -0.64002,-0.0519 -1.31028,0.23363 -1.85352,0.97656 -0.99359,1.35883 -0.92437,1.9718 0.38086,3.41406 2.08933,2.3087 2.87483,2.21888 3.57813,-0.41406 0.56426,-2.1123 -0.69743,-3.86235 -2.10547,-3.97656 z m -152.47457,27.40039 c 4.0975,0 5.4707,1.49029 5.4707,5.93359 0,1.98843 0.9338,5.19596 2.0742,7.12891 l 2.0743,3.51367 2.5136,-3.92578 c 1.3831,-2.15958 3.1668,-4.17812 3.9629,-4.48633 1.4054,-0.54423 4.9902,2.8146 7.3477,6.88476 0.9702,1.67505 1.2594,1.4632 3.1855,-2.3125 1.2606,-2.47089 1.873,-4.93365 1.5098,-6.07812 -0.9483,-2.98789 1.9713,-6.6582 5.2969,-6.6582 6.9046,0 7.9008,8.71286 1.2285,10.74804 -0.6788,0.20707 -2.3343,2.21972 -3.6778,4.47266 l -2.4414,4.09766 4.2168,0 c 2.3192,0 5.054,0.61243 6.0782,1.36132 1.833,1.34037 1.8301,1.43708 -0.2149,6.27735 l -2.0781,4.91797 4.6289,0 c 2.9357,0 5.0675,-0.53021 5.8301,-1.44922 3.5507,-4.27829 11.1589,0.76923 8.8379,5.86328 -1.7837,3.91483 -8.2182,5.08631 -9.5059,1.73047 -0.3305,-0.8613 -2.1345,-1.31446 -5.2305,-1.31446 -2.5995,0 -4.7265,0.20562 -4.7265,0.45704 0,0.25142 0.9331,2.37803 2.0742,4.72656 2.8622,5.89145 2.0628,7.37304 -3.9766,7.37304 -2.9738,0 -4.8593,0.4247 -4.8593,1.09376 0,1.9248 3.9743,7.5996 5.3222,7.5996 4.2524,0 5.8824,7.50261 2.1914,10.0879 -2.7719,1.9415 -3.9187,1.89502 -6.5918,-0.26954 -1.534,-1.24215 -2.1636,-2.73914 -2.0996,-4.99414 0.091,-3.19995 -1.8165,-8.03779 -3.6074,-9.14453 -0.5149,-0.31827 -2.0987,1.17631 -3.5176,3.32031 -1.4187,2.144 -3.3322,3.89844 -4.2519,3.89844 -0.9197,0 -2.877,-1.74017 -4.3496,-3.86523 -1.4726,-2.12505 -2.9715,-3.86328 -3.3321,-3.86328 -1.2614,0 -3.9121,6.85726 -3.9121,10.12109 0,2.30813 -0.6418,3.743 -2.1465,4.79688 -1.1807,0.82701 -2.6056,1.5039 -3.166,1.5039 -2.4471,0 -5.3125,-3.11827 -5.3125,-5.78125 0,-2.92747 2.1525,-5.81055 4.3379,-5.81055 1.3479,0 5.3223,-5.6748 5.3223,-7.5996 0,-0.66906 -1.8877,-1.09376 -4.8614,-1.09376 -6.0167,0 -6.7078,-1.29487 -4.0078,-7.50976 l 1.9844,-4.56445 -3.5117,-0.31055 c -2.1873,-0.19389 -4.8048,0.40417 -6.9414,1.58594 -4.0746,2.2538 -7.2223,1.48358 -8.8887,-2.17383 -2.321,-5.09405 5.2891,-10.14157 8.8399,-5.86328 0.7692,0.92703 2.9065,1.44922 5.9335,1.44922 l 4.7305,0 -1.9512,-3.82618 c -3.4824,-6.82597 -2.3031,-8.68575 5.5332,-8.71875 1.7265,-0.007 3.1407,-0.42293 3.1407,-0.92382 0,-2.07707 -4.1785,-7.78125 -5.6993,-7.78125 -2.3099,0 -3.9609,-1.91915 -3.9609,-4.60352 0,-4.00572 1.7262,-6.02148 5.1543,-6.02148 z m 138.69332,0.0859 c 1.8423,0.0384 3.71911,0.97596 4.875,3.04493 1.74076,3.11584 0.78533,5.34931 -3.10742,7.26171 -2.02701,0.9958 -6.52149,6.85234 -6.52149,8.49805 0,0.23526 1.87296,0.42774 4.16211,0.42774 2.28914,0 5.00259,0.61448 6.0293,1.36523 1.83649,1.34287 1.83119,1.4361 -0.29883,5.82031 -1.1908,2.45104 -2.16406,4.66265 -2.16406,4.91407 0,1.18291 8.97007,0.31705 10.2793,-0.99219 1.68837,-1.68838 4.52247,-1.86608 7.16992,-0.44922 2.29115,1.2262 2.5645,6.88064 0.41797,8.66211 -2.02696,1.68222 -6.01125,1.50171 -8.07422,-0.36524 -1.50564,-1.36259 -9.79297,-2.3492 -9.79297,-1.16601 0,0.22159 0.87699,2.44975 1.94922,4.95117 2.31341,5.39698 1.45153,7.20312 -3.4375,7.20312 -5.77932,0 -6.2724,0.60784 -3.95313,4.88086 1.1647,2.14584 2.78551,3.80069 3.72852,3.80469 0.91747,0.004 2.37838,1.09174 3.24609,2.41602 3.56494,5.44079 -2.14397,11.27232 -7.27539,7.43164 -1.89793,-1.42054 -2.47378,-2.71365 -2.48828,-5.60156 -0.0104,-2.07226 -0.8496,-4.99792 -1.875,-6.52735 l -1.85938,-2.77148 -3.43554,3.99414 c -1.88968,2.19655 -3.97238,3.98751 -4.62891,3.97851 -0.65655,-0.008 -2.34566,-1.75384 -3.75195,-3.8789 -1.4063,-2.12505 -2.83944,-3.86328 -3.18555,-3.86328 -1.57184,0 -4.28059,6.48822 -4.08594,9.78711 0.16313,2.76482 -0.28333,3.92494 -1.96875,5.10546 -2.51562,1.76201 -3.51965,1.84738 -5.8457,0.49219 -4.42017,-2.57522 -3.96819,-8.98234 0.7168,-10.1582 2.08793,-0.52404 6.27343,-6.24122 6.27343,-8.56836 0,-0.2868 -2.11967,-0.52149 -4.71093,-0.52149 -6.29129,10e-6 -7.27062,-1.33206 -4.88867,-6.65234 1.03003,-2.30062 1.87304,-4.57168 1.87304,-5.04492 0,-0.47324 -1.95696,-0.85938 -4.34765,-0.85938 -2.39068,0 -4.34571,0.36457 -4.34571,0.81055 0,0.44599 -1.11219,1.31658 -2.4707,1.93555 -5.73107,2.61126 -10.99727,-4.70427 -6.38867,-8.875 2.20176,-1.99257 6.29864,-2.07097 7.89258,-0.15039 1.26667,1.52625 9.66015,2.09654 9.66015,0.65625 0,-0.4364 -0.82038,-2.48311 -1.82422,-4.54688 -1.00383,-2.06378 -1.62651,-4.2712 -1.38281,-4.90625 0.53452,-1.39294 3.54311,-2.28103 7.79492,-2.29883 1.7266,-0.007 3.13867,-0.34595 3.13867,-0.7539 0,-1.64215 -4.99179,-7.95117 -6.29101,-7.95117 -0.76549,0 -2.08774,-1.06343 -2.93945,-2.36329 -2.25973,-3.44879 -0.14826,-7.66533 4.04492,-8.07421 4.02067,-0.39206 6.46492,2.07226 5.89648,5.94531 -0.41578,2.83285 2.42711,9.32031 4.08399,9.32031 0.40654,0 1.94335,-1.73822 3.41601,-3.86328 1.47266,-2.12505 3.24393,-3.86328 3.93555,-3.86328 0.69163,0 2.66002,1.95374 4.375,4.3418 l 3.11914,4.34179 2.16016,-3.58008 c 1.46695,-2.43062 2.00626,-4.52498 1.68164,-6.52539 -0.62471,-3.8496 2.34942,-6.28268 5.41992,-6.21875 z m -16.44141,14.88477 -2.38281,2.73047 -2.38281,2.72851 2.18945,1.79688 c 1.86712,1.53142 2.47598,1.60983 4.12305,0.5332 2.37644,-1.55338 2.4019,-2.30343 0.1914,-5.37305 l -1.73828,-2.41601 z m -105.18941,0.48242 c -0.409,0 -1.4812,1.12497 -2.3809,2.49805 -1.5395,2.35042 -1.5373,2.60379 0.039,4.3457 0.9209,1.0176 1.9733,1.84961 2.3399,1.84961 0.3666,0 1.4209,-0.83201 2.3417,-1.84961 1.577,-1.74191 1.5791,-1.99528 0.039,-4.3457 -0.8995,-1.37308 -1.9698,-2.49805 -2.3788,-2.49805 z m -13.1523,8.69336 c -3.5558,0 -3.8454,0.57876 -2.1485,4.30273 1.2241,2.68694 1.9794,2.93589 4.6114,1.52735 1.2118,-0.64823 1.599,-1.67701 1.2734,-3.38086 -0.3914,-2.04663 -1.0052,-2.44922 -3.7363,-2.44922 z m 26.7714,0 c -3.0577,0 -3.8392,0.39475 -4.3144,2.17383 -0.3824,1.43183 -0.029,2.5854 1.0371,3.38086 2.5522,1.90408 3.6729,1.45313 5.4023,-2.17383 l 1.6114,-3.38086 -3.7364,0 z m 78.14453,0 c -4.39106,0 -4.40272,0.0199 -2.34961,3.99023 1.00375,1.94103 2.00702,2.73924 2.97656,2.36719 0.80444,-0.30869 1.86179,-0.56054 2.34961,-0.56054 0.48781,0 0.88672,-1.30465 0.88672,-2.89844 0,-2.7368 -0.2142,-2.89844 -3.86328,-2.89844 z m 26.62891,0 c -4.05696,0 -5.82453,3.34281 -2.89844,5.48242 2.71336,1.98405 4.00011,1.54359 5.15234,-1.76172 0.58324,-1.67307 1.06055,-3.19451 1.06055,-3.38086 0,-0.18635 -1.49083,-0.33984 -3.31445,-0.33984 z m -10.14063,3.92383 c -0.4297,-0.0273 -1.04955,0.34446 -1.83008,1.125 -0.93369,0.93368 -1.58306,0.93368 -3.07812,0 -2.5269,-1.57807 -2.78979,-1.50409 -2.23047,0.63476 0.3011,1.15138 -0.29438,2.35842 -1.62305,3.28907 l -2.09961,1.4707 2.01563,0.63867 c 1.32639,0.42098 2.01562,1.45496 2.01562,3.02344 0,2.12488 0.22259,2.26601 2.03711,1.29492 1.47211,-0.78787 2.32658,-0.79647 3.08985,-0.0332 1.47252,1.47251 2.64212,1.31728 2.0332,-0.26953 -0.55875,-1.45608 1.97346,-4.46373 3.77734,-4.48633 0.62613,-0.008 0.0508,-0.57665 -1.27734,-1.26563 -1.61904,-0.83987 -2.33982,-1.94993 -2.18555,-3.36718 0.14439,-1.32648 -0.092,-2.01962 -0.64453,-2.05469 z m -111.66011,0.30859 c -0.3713,-0.0169 -0.4551,0.54733 -0.4551,1.86328 0,1.71079 -0.6673,2.68133 -2.1738,3.16016 l -2.1738,0.68945 2.1738,0.97071 c 1.374,0.61376 2.1738,1.81861 2.1738,3.27343 0,2.04098 0.2299,2.17712 2.0352,1.21094 1.4721,-0.78787 2.3266,-0.79647 3.0898,-0.0332 1.5917,1.59172 2.6016,1.27231 2.6016,-0.82227 0,-1.0324 0.8865,-2.49842 1.9707,-3.25781 l 1.9727,-1.38086 -1.9727,-0.51562 c -1.3399,-0.35037 -1.9707,-1.31126 -1.9707,-3 0,-2.29171 -0.1858,-2.39933 -2.3867,-1.39649 -1.8247,0.83134 -2.7335,0.797 -3.8633,-0.14062 -0.4727,-0.39229 -0.7987,-0.61095 -1.0215,-0.6211 z m 94.98433,9.41992 c -0.85158,-0.0146 -1.28311,0.8429 -2.20117,3.01172 -1.3237,3.12715 -1.31571,3.14029 1.73828,3.67578 1.68622,0.29566 3.39061,0.37976 3.78906,0.18555 1.4888,-0.72563 0.66942,-5.03218 -1.14257,-6.00195 -1.00901,-0.54 -1.67265,-0.86236 -2.1836,-0.8711 z m -105.31633,0.0527 c -0.1486,-0.0141 -0.2463,-0.004 -0.2774,0.0332 -0.1244,0.14768 -0.9301,1.65444 -1.791,3.34766 l -1.5644,3.07812 3.1328,0.38867 c 1.723,0.21401 3.4081,0.45993 3.7461,0.54493 0.3382,0.085 0.812,-1.18679 1.0527,-2.82617 0.3647,-2.4844 0.038,-3.13208 -1.957,-3.89063 -0.9873,-0.37541 -1.896,-0.63342 -2.3418,-0.67578 z m 132.19524,0.19336 c -0.28037,0.0146 -0.60265,0.078 -0.97266,0.18945 -3.08234,0.92853 -3.80761,1.95527 -3.17187,4.48828 0.49943,1.98978 1.03803,2.23995 4.04687,1.88867 2.75792,-0.32196 3.33706,-0.72859 2.81836,-1.98242 -0.35895,-0.86773 -0.87527,-2.35032 -1.14648,-3.29492 -0.26655,-0.92836 -0.73313,-1.33282 -1.57422,-1.28906 z m -105.27334,0.0605 c -0.3106,-0.0255 -0.6527,0.0293 -1.0489,0.14843 -2.8986,0.87172 -3.3462,1.55191 -2.8125,4.26563 0.4288,2.17991 0.8678,2.39695 4.211,2.07812 l 3.7324,-0.35742 -1.5703,-3.29102 c -0.9373,-1.96547 -1.5802,-2.76739 -2.5117,-2.84374 z m 91.71084,7.00976 c -0.53577,-0.0424 -1.00729,0.29747 -1.7793,0.99219 -0.92971,0.83662 -1.69141,1.91664 -1.69141,2.39844 0,0.48181 0.7617,1.92062 1.69141,3.19921 0.92971,1.27857 1.76853,2.33877 1.86523,2.35547 0.0966,0.0167 1.11269,-1.28324 2.25586,-2.88867 l 2.07813,-2.91797 -2.25391,-1.83398 c -1.02952,-0.83725 -1.63025,-1.2623 -2.16601,-1.30469 z m -105.74214,0.42188 c -0.5587,0.0228 -1.0118,0.34187 -1.6406,0.9707 -1.3125,1.31248 -1.2844,1.79298 0.2695,4.55078 l 1.7383,3.08398 2.1719,-2.49414 c 2.7513,-3.15722 2.7241,-3.69661 -0.2696,-5.29882 -1.0471,-0.5604 -1.7108,-0.83532 -2.2695,-0.8125 z m 66.53315,31.73632 c 1.91774,0 4.83008,2.40929 4.83008,3.9961 0,1.87367 -2.02107,4.69726 -3.36133,4.69726 -1.51402,0 -4.36718,3.61119 -4.36718,5.52735 0,0.76839 1.28805,1.23437 3.41211,1.23437 4.24466,0 5.14738,1.90505 3.01953,6.36719 l -1.57032,3.29297 3.79102,0 c 2.08511,0 4.06033,-0.43554 4.38867,-0.9668 0.32834,-0.53126 1.86566,-0.96484 3.41797,-0.96484 2.2043,0 2.95676,0.52781 3.42969,2.41211 1.28735,5.12915 -2.01846,7.63063 -6.60547,4.99804 -1.54737,-0.88807 -3.91661,-1.61523 -5.26367,-1.61523 -2.07935,0 -2.3555,0.32869 -1.83008,2.17383 2.05958,7.23275 2.07437,7.18552 -2.64063,7.89258 l -4.36914,0.65625 1.61719,2.84179 c 0.88976,1.56388 2.15091,2.84661 2.80274,2.84961 1.77435,0.009 4.26057,4.33114 3.55273,6.17578 -1.88749,4.91868 -9.78351,3.07203 -8.80273,-2.05859 0.26931,-1.40879 -0.23174,-3.63936 -1.16016,-5.16602 l -1.63281,-2.68554 -2.64844,3.31836 c -1.45683,1.82573 -3.04955,3.32031 -3.53906,3.32031 -0.48941,0 -1.95651,-1.56828 -3.25977,-3.48633 l -2.36909,-3.48828 -1.5293,2.95703 c -0.8408,1.62604 -1.5293,4.26571 -1.5293,5.86719 0,1.89021 -0.6562,3.263 -1.8691,3.91211 -2.6118,1.39776 -3.3838,1.26897 -5.3399,-0.89258 -1.7946,-1.98291 -1.4334,-6.80078 0.5098,-6.80078 1.2911,0 5.7324,-4.44749 5.7324,-5.74024 0,-0.54913 -1.748,-1.27745 -3.8848,-1.61914 -4.8054,-0.76841 -5.2795,-1.48358 -3.3984,-5.12109 0.8185,-1.58301 1.4883,-3.33493 1.4883,-3.89258 0,-1.55973 -6.3687,-1.20061 -7.7266,0.43555 -1.6657,2.00705 -4.2042,1.80899 -6.2832,-0.48828 -2.5735,-2.84366 -0.6582,-6.75586 3.3067,-6.75586 1.5738,0 3.1306,0.43358 3.4589,0.96484 0.5468,0.88479 7.2442,1.441 7.2442,0.60156 0,-0.20076 -0.6833,-2.00246 -1.5195,-4.0039 -1.7715,-4.23967 -0.9716,-5.25109 4.1757,-5.27539 1.7266,-0.008 3.1245,-0.34179 3.1055,-0.74024 -0.087,-1.83623 -2.7426,-5.31482 -4.8652,-6.37304 -3.4445,-1.71728 -3.2872,-6.53006 0.2539,-7.77539 3.4115,-1.19976 5.6038,0.59378 5.6328,4.60742 0.012,1.66156 0.787,4.01659 1.7226,5.23242 l 1.7012,2.21094 2.16989,-2.93555 c 2.73874,-3.7043 4.08701,-3.6914 6.86524,0.0664 l 2.2207,3.00195 1.79101,-2.73047 c 1.01914,-1.55358 1.56814,-3.62067 1.27344,-4.79492 -0.60456,-2.40873 1.80021,-5.24024 4.45117,-5.24024 z m 70.36524,12.69141 c -0.53991,0.0679 -1.24424,0.66795 -2.25,1.7793 -1.41735,1.56613 -1.512,2.18031 -0.51563,3.38086 2.31795,2.79295 5.23514,0.94756 4.3125,-2.72852 -0.43285,-1.72465 -0.8527,-2.519 -1.54687,-2.43164 z m -83.83985,0.002 c -0.39694,0.0422 -0.7716,0.48297 -1.4082,1.35352 -0.97323,1.33099 -1.08411,2.24131 -0.375,3.0957 0.5523,0.66558 1.61673,1.21094 2.36523,1.21094 2.11078,0 2.7069,-2.87122 0.95899,-4.61914 -0.72568,-0.72572 -1.14407,-1.08322 -1.54102,-1.04102 z m -83.47264,0.4043 c -0.6386,-0.1378 -0.823,0.44669 -1.205,1.96875 -0.4207,1.67618 -0.1844,2.81293 0.7031,3.375 1.8832,1.19267 2.1758,1.11218 3.4765,-0.9707 0.9832,-1.57428 0.806,-2.07934 -1.1953,-3.39063 -0.8494,-0.55659 -1.3961,-0.89974 -1.7793,-0.98242 z m 13.9317,3.47656 c -0.4408,-0.0755 -1.1852,0.093 -2.3555,0.38672 -2.6541,0.66616 -3.5307,3.72415 -1.3223,4.61524 2.521,1.01726 3.4138,0.5579 3.9082,-2.01563 0.3944,-2.05312 0.5042,-2.86045 -0.2304,-2.98633 z m 140.3886,0.0488 c -1.40867,-0.0421 -1.54605,0.81909 -0.96484,3.13477 0.83392,3.32263 3.37017,3.00248 4.69336,-0.5918 0.42566,-1.15621 -0.0961,-1.77422 -1.875,-2.2207 -0.77286,-0.19398 -1.38396,-0.30824 -1.85352,-0.32227 z m -60.27148,2.69531 c -2.16603,0 -2.89844,0.4478 -2.89844,1.77149 0,0.97399 0.29035,2.05988 0.64453,2.41406 1.21448,1.21448 3.15293,0.64474 4.15234,-1.22266 1.45553,-2.71971 1.30016,-2.96289 -1.89843,-2.96289 z m -22.02532,0.0742 c -1.0473,0.0197 -1.1821,0.3986 -0.8067,1.37696 0.3387,0.88269 0.6153,2.03382 0.6153,2.55859 0,0.52476 0.9786,0.81625 2.1738,0.64648 3.4017,-0.4831 2.9079,-4.08797 -0.6152,-4.49023 -0.5666,-0.0647 -1.0181,-0.0984 -1.3672,-0.0918 z m 90.60735,2.82422 c -0.53127,0 -0.9668,0.65233 -0.9668,1.44922 0,0.7969 -0.65232,1.44922 -1.44922,1.44922 -1.66047,0 -1.93603,1.51693 -0.44336,2.43945 0.55287,0.34169 0.72503,1.50745 0.38086,2.5918 -0.84945,2.67637 0.67498,1.61667 4.35156,-3.02539 2.55386,-3.2245 2.70284,-3.69145 1.03711,-3.25586 -1.09084,0.28526 -1.94531,0.0349 -1.94531,-0.57031 0,-0.59324 -0.43358,-1.07813 -0.96484,-1.07813 z m -76.60938,0.0215 c -0.36285,0.0644 -0.79163,0.36672 -1.15039,0.94727 -0.39389,0.63716 -1.2886,0.5978 -2.61719,-0.11328 -1.68319,-0.9008 -1.92595,-0.8321 -1.44922,0.41016 0.31459,0.81986 -0.082,2.03424 -0.88085,2.69726 -1.29192,1.07211 -1.28962,1.29579 0.0176,2.02735 0.80838,0.4524 1.24832,1.40135 0.97657,2.10937 -0.34956,0.91108 0.36756,1.25634 2.45312,1.18164 1.69575,-0.0607 2.94826,-0.62952 2.94922,-1.3418 10e-4,-0.68075 0.71451,-1.51131 1.58594,-1.8457 1.44332,-0.55386 1.43258,-0.71939 -0.1211,-1.85547 -0.97122,-0.71019 -1.45951,-1.89069 -1.13281,-2.74219 0.3944,-1.02775 -0.0261,-1.58192 -0.63086,-1.47461 z m -81.45307,0.48047 c -0.2457,0.0428 -0.5382,0.2196 -0.9043,0.52344 -0.7116,0.59056 -1.7482,0.79194 -2.3027,0.44922 -1.9484,-1.20418 -0.9723,0.49011 2.4863,4.31836 3.9498,4.37197 4.6344,4.71849 3.7363,1.88867 -0.3453,-1.08802 -0.105,-2.60945 0.5352,-3.38086 0.9378,-1.12995 0.8534,-1.40234 -0.4336,-1.40234 -0.8786,0 -1.8511,-0.66416 -2.1621,-1.47461 -0.2667,-0.69496 -0.5456,-0.99321 -0.9551,-0.92188 z m 10.3594,4.32813 c -1.5109,0 -3.0213,2.64217 -2.4141,4.22461 0.6645,1.73152 2.1159,1.98228 4.1191,0.71289 1.0197,-0.64607 1.0647,-1.28014 0.2071,-2.88281 -0.6049,-1.13008 -1.4646,-2.05469 -1.9121,-2.05469 z m 137.67961,0.55078 c -0.50398,0.0537 -1.01647,0.39792 -1.74219,1.05469 -2.20549,1.99592 -2.22481,2.9599 -0.0684,3.52343 3.16678,0.82759 3.89993,0.66753 4.53907,-0.99804 0.39959,-1.04138 0.0109,-2.12433 -1.03711,-2.89063 -0.6917,-0.50579 -1.18743,-0.74313 -1.69141,-0.68945 z m -58.48047,2.50586 c -0.31346,-0.029 -0.71499,0.14577 -1.38867,0.4043 -1.58778,0.60928 -2.1565,3.37477 -0.94336,4.58789 0.7959,0.79587 1.65906,0.81136 3.60547,0.0645 1.21543,-0.46641 1.3001,-0.98484 0.43164,-2.65625 -0.90298,-1.73787 -1.18265,-2.35215 -1.70508,-2.40039 z m -19.74804,0.39258 c -0.9682,-0.063 -2.0345,0.42451 -2.6582,1.58984 -0.8033,1.50106 -0.7433,2.16828 0.2539,2.81055 2.0608,1.32734 4.1771,0.5276 4.4961,-1.69727 0.2339,-1.63138 -0.8469,-2.62216 -2.0918,-2.70312 z m 8.96679,5.43359 c -0.42678,0.0228 -0.84284,0.31746 -1.41602,0.89063 -1.2189,1.21891 -1.19298,1.6872 0.20118,3.67773 1.52607,2.17876 1.65653,2.20286 2.89453,0.50977 1.6553,-2.26377 1.62916,-2.82272 -0.20117,-4.3418 -0.61428,-0.50981 -1.05174,-0.7591 -1.47852,-0.73633 z"
       id="path5890-3"
       inkscape:connector-curvature="0" />
    <path
       style="fill:#ff0000;stroke:#ff0000;stroke-width:0.74309069;stroke-linejoin:round;stroke-miterlimit:4;stroke-dasharray:none"
       d="m -732.01562,153.56836 a 17.34499,17.34499 0 0 0 -17.34376,17.3457 17.34499,17.34499 0 0 0 0.21876,2.67383 c -5.11989,0.93171 -10.46738,2.259 -16.12305,4.0293 -44.25968,15.10433 -73.05078,55.11557 -73.05078,101.51953 0,50.93348 37.09234,95.28025 87.27929,104.34766 16.26044,2.9378 36.98752,1.46393 52.45899,-3.73243 61.81336,-20.76101 90.63117,-90.74737 61.36133,-149.01953 -9.73813,-19.38723 -23.21721,-33.32721 -44.34571,-45.86523 -1.95114,-1.15784 -7.93748,-3.76263 -13.30273,-5.78711 -6.71985,-2.53562 -13.30441,-4.46502 -20.00586,-5.68555 a 17.34499,17.34499 0 0 0 0.19922,-2.48047 17.34499,17.34499 0 0 0 -17.3457,-17.3457 z m 0,8.82812 a 8.5825005,8.5825005 0 0 1 8.58203,8.58204 8.5825005,8.5825005 0 0 1 -8.58203,8.58203 8.5825005,8.5825005 0 0 1 -8.58399,-8.58203 8.5825005,8.5825005 0 0 1 8.58399,-8.58204 z m 0.10546,41.66602 c 1.61051,0.006 3.22527,0.33791 4.45508,0.99609 1.16366,0.62277 5.81633,8.99656 11.63867,20.94141 5.33567,10.94641 9.81347,20.04454 9.94922,20.21875 0.13575,0.17423 10.04214,1.75663 22.01563,3.51563 13.45572,1.97673 22.6639,3.78336 24.10937,4.73046 2.66928,1.74893 4.08375,7.13949 2.58985,9.86914 -0.53768,0.98243 -7.98941,8.71904 -16.56055,17.19141 l -15.58399,15.4043 3.50391,20.69922 c 3.98533,23.53282 4.07877,25.00678 1.76172,27.84179 -3.41451,4.17777 -7.38526,3.61887 -19.49609,-2.75 -6.08951,-3.20236 -14.99827,-7.84239 -19.79883,-10.31054 l -8.72852,-4.48828 -19.7832,10.25781 c -10.88068,5.64154 -20.81658,10.24451 -22.08008,10.22851 -3.3318,-0.0425 -5.67429,-1.6899 -7.04883,-4.95898 -1.03944,-2.47209 -0.69013,-5.89338 2.51563,-24.69531 l 3.7207,-21.82422 -16.38672,-16.23047 c -14.351,-14.21199 -16.38867,-16.6078 -16.38867,-19.28125 0,-4.1932 2.28599,-7.08808 6.5332,-8.27344 1.96656,-0.54885 11.37484,-2.08674 20.90625,-3.41601 9.53141,-1.32928 18.30752,-2.63406 19.50196,-2.9004 1.71642,-0.38273 4.28602,-4.70889 12.25781,-20.63867 5.71603,-11.42217 10.89976,-20.5921 11.96484,-21.16211 1.21347,-0.64939 2.82113,-0.97062 4.43164,-0.96484 z m -0.2832,8.14258 -10.12695,20.89844 c -8.28133,17.09181 -10.53664,20.99162 -12.38281,21.40429 -1.24157,0.27756 -11.57012,1.84743 -22.95313,3.48828 -11.383,1.64085 -20.82049,3.10564 -20.9707,3.25586 -0.15021,0.1502 7.20686,7.52451 16.34765,16.38672 l 16.61914,16.11328 -3.71289,21.80078 c -2.04222,11.99021 -3.9224,22.34436 -4.17773,23.00977 -0.25535,0.66541 -0.1801,1.20898 0.16601,1.20898 0.34609,0 9.6484,-4.76509 20.67188,-10.58984 11.02349,-5.82476 20.36184,-10.58984 20.75195,-10.58984 0.3901,0 9.70005,4.76508 20.68946,10.58984 10.98941,5.82475 20.17646,10.58984 20.41601,10.58984 0.23956,0 -1.39653,-10.28906 -3.63672,-22.86523 l -4.07422,-22.86523 17.01563,-16.58594 c 9.35861,-9.12156 16.46253,-16.59472 15.78516,-16.60742 -1.63074,-0.0306 -40.51364,-5.70745 -43.30274,-6.32227 -1.72151,-0.37948 -4.34386,-4.81748 -12.64844,-21.40039 l -10.47656,-20.91992 z m 0.20508,33.83984 4.98828,10.46289 c 2.92741,6.13795 5.72521,10.73115 6.76953,11.11328 0.97902,0.35824 5.67961,1.17102 10.44531,1.80664 4.76571,0.63564 9.28911,1.36104 10.05078,1.61133 0.93459,0.30711 -1.35207,3.20454 -7.0332,8.91211 l -8.41797,8.45703 1.95313,11.42578 c 1.07488,6.28371 1.81876,11.56016 1.65234,11.72657 -0.16641,0.16642 -4.81364,-2.14842 -10.32617,-5.14453 l -10.02148,-5.44727 -10.34961,5.5 c -5.69237,3.0244 -10.34966,5.14752 -10.34766,4.71875 0.004,-1.00705 2.7618,-17.41577 3.42188,-20.35938 0.41155,-1.83528 -1.03706,-3.82684 -7.86524,-10.80468 -5.50626,-5.62694 -7.90859,-8.70357 -7.01953,-8.99024 0.74339,-0.23971 5.03422,-0.93188 9.53516,-1.53711 12.76709,-1.71671 11.68314,-0.92132 17.40039,-12.75976 l 5.16406,-10.69141 z"
       id="path5890-0"
       inkscape:connector-curvature="0" />
    <path
       style="fill:#ff0000;stroke:#ff0000;stroke-width:0.74309069;stroke-linejoin:round;stroke-miterlimit:4;stroke-dasharray:none"
       d="m -462.85742,153.56836 a 17.34499,17.34499 0 0 0 -17.34375,17.3457 17.34499,17.34499 0 0 0 0.33984,3.34375 c -6.64087,1.03779 -12.92211,2.58751 -19.10351,4.26953 -28.84126,10.07131 -52.57228,33.29904 -63.35938,62.01758 -4.53178,12.06491 -6.02221,19.44446 -6.69922,33.16406 -2.63533,53.4062 34.30663,99.75079 87.64258,109.94922 9.94453,1.90148 33.33435,1.1142 44.00195,-1.48242 38.74691,-9.43157 68.52109,-39.71011 78.5586,-79.89062 3.02926,-12.12592 3.01416,-35.59359 -0.0293,-47.78516 -7.21561,-28.90394 -24.69096,-52.66645 -49.87305,-67.8125 -14.08376,-6.51547 -26.278,-10.28533 -37.17382,-12.17578 a 17.34499,17.34499 0 0 0 0.38476,-3.59766 17.34499,17.34499 0 0 0 -17.3457,-17.3457 z m 0.006,8.82812 a 8.5825005,8.5825005 0 0 1 8.58203,8.58204 8.5825005,8.5825005 0 0 1 -8.58203,8.58203 8.5825005,8.5825005 0 0 1 -8.58399,-8.58203 8.5825005,8.5825005 0 0 1 8.58399,-8.58204 z m 0.10937,74.09375 c 0.88735,0 20.7393,40.48934 20.6875,42.19336 -0.0284,0.93328 -4.69805,10.92417 -10.37695,22.20118 l -10.32422,20.5039 -10.72656,-21.47656 -10.72461,-21.47461 10.49609,-20.97266 c 5.77245,-11.53536 10.70829,-20.97461 10.96875,-20.97461 z m 48.71289,12.54102 c 0.28116,0 3.87026,6.73214 7.97461,14.96094 l 7.46094,14.96093 -7.59766,15.17188 -7.5957,15.16992 -7.71875,-15.41211 -7.71875,-15.41211 7.3418,-14.7207 c 4.03798,-8.09603 7.57232,-14.71875 7.85351,-14.71875 z m -97.41015,0.002 c 0.78878,-0.005 14.45312,27.82784 14.45312,29.43946 0,0.79776 -3.25783,7.9548 -7.24023,15.90625 -3.98233,7.95144 -7.35298,14.45703 -7.49024,14.45703 -0.13727,0 -3.63067,-6.77808 -7.76367,-15.06446 l -7.51562,-15.0664 7.52929,-14.83399 c 4.1409,-8.15856 7.75361,-14.83589 8.02735,-14.83789 z m 135.23828,10.44141 c 0.90252,0.0829 2.2796,2.46972 5.51367,9.19141 l 4.92383,10.23437 -5.14844,10.26367 -5.14844,10.26172 -5.2207,-10.19336 -5.2207,-10.19531 4.29101,-8.97461 c 2.35995,-4.93593 4.80845,-9.57208 5.44336,-10.30273 0.17493,-0.20135 0.35813,-0.30429 0.56641,-0.28516 z m -173.22656,0.49609 c 1.26408,0.15473 2.5315,3.06533 5.23046,8.49219 l 4.99805,10.04688 -5.19336,10.35351 -5.19531,10.35352 -5.09766,-10.25 -5.09765,-10.25196 4,-8.30078 c 3.4957,-7.25414 4.92283,-10.61871 6.35547,-10.44336 z"
       id="path5890-7"
       inkscape:connector-curvature="0" />
    <path
       style="fill:#ff0000;stroke:#ff0000;stroke-width:0.74309069;stroke-linejoin:round;stroke-miterlimit:4;stroke-dasharray:none"
       d="m -1259.4824,517.01758 a 17.34499,17.34499 0 0 0 -17.3438,17.34375 17.34499,17.34499 0 0 0 1.0098,5.7832 c -5.5222,1.16395 -11.4634,2.8521 -18.6309,4.96485 -37.7302,13.90963 -64.8774,46.57381 -70.3535,84.65039 -2.8128,19.55898 0.5455,43.13042 8.5899,60.29687 15.3499,32.75588 46.4102,56.03833 81.5058,61.0957 20.8279,3.00137 41.7264,-0.38845 61.6328,-9.99804 12.1954,-5.88715 20.2139,-11.69139 30.1133,-21.79492 8.8109,-8.99266 13.7013,-16.08808 19.5,-28.29102 26.8927,-56.59337 -1.0448,-124.36192 -59.9355,-145.38867 -7.7087,-2.40388 -14.1347,-4.12429 -19.8399,-5.3086 a 17.34499,17.34499 0 0 0 1.0977,-6.00976 17.34499,17.34499 0 0 0 -17.3457,-17.34375 z m 0,8.75 a 8.5941324,8.5941324 0 0 1 8.5957,8.59375 8.5941324,8.5941324 0 0 1 -8.5957,8.5957 8.5941324,8.5941324 0 0 1 -8.5938,-8.5957 8.5941324,8.5941324 0 0 1 8.5938,-8.59375 z m 7.3847,44.76367 c 0.6051,-0.0698 1.1023,0.35925 1.9571,1.13281 1.9825,1.79419 1.9803,1.79915 -3.5567,7.39453 -3.0472,3.07932 -5.7844,5.59766 -6.0839,5.59766 -1.0067,0 -10.5899,-10.15928 -10.5899,-11.22656 0,-0.58055 0.6682,-1.61205 1.4863,-2.29102 1.2572,-1.04337 2.0774,-0.65937 5.2969,2.48438 l 3.8086,3.7207 3.8281,-3.73828 c 2.1204,-2.07054 3.0756,-2.98447 3.8535,-3.07422 z m 8.0665,8.82031 c 0.5337,0.0303 0.9693,0.41304 1.5898,0.97461 2.001,1.81098 1.9995,1.81071 -7.4102,11.25586 -5.1756,5.19509 -9.6424,9.44531 -9.9277,9.44531 -1.0144,0 -18.2969,-17.87095 -18.2969,-18.91992 0,-0.58726 0.6633,-1.61727 1.4727,-2.28906 1.2483,-1.03594 2.6444,-0.0778 9.2031,6.30469 l 7.7344,7.52539 7.6113,-7.56641 c 5.1925,-5.16198 6.8491,-6.79715 8.0235,-6.73047 z m 27.5878,7.10352 2.6485,0.30469 c 2.47,0.28422 2.6679,0.64382 2.9394,5.35937 l 0.291,5.05664 5.2461,0 c 5.1872,0 5.2461,0.0322 5.2461,2.88867 l 0,2.88867 -8.1855,0 -8.1856,0 0,-8.24804 0,-8.25 z m -88.5976,0.12695 2.8906,0 0,8.18555 0,8.18554 -8.1855,0 -8.1856,0 0,-2.88867 c 0,-2.85983 0.052,-2.88867 5.2949,-2.88867 l 5.2969,0 0,-5.29687 c 0,-5.24304 0.029,-5.29688 2.8887,-5.29688 z m 8.668,0.96289 2.8886,0 2.8887,0 0,13.48242 0,13.48243 -13.9629,0 -13.9629,0 0,-2.88868 0,-2.88867 11.0742,0 11.0743,0 0,-10.59375 0,-10.59375 z m 70.8418,0 c 2.2775,0 2.3503,0.22361 2.4453,7.46485 0.053,4.10482 0.02,8.87041 -0.074,10.59179 l -0.1718,3.13086 11.1484,0 11.1484,0 0,2.88867 0,2.88868 -13.373,0 -13.373,0 -0.3497,-2.64844 c -0.1923,-1.45655 -0.2142,-7.52381 -0.049,-13.48242 0.2987,-10.75783 0.3176,-10.83399 2.6485,-10.83399 z m -10.1719,2.44336 0,15.63086 0,15.63086 15.8886,0 c 8.7393,0 15.8907,0.24823 15.8907,0.55078 0,0.30256 -4.4422,5.06781 -9.8711,10.58984 l -9.8711,10.04102 -15.4883,0.002 c -8.5187,0.002 -15.7778,-0.28557 -16.1309,-0.63867 -0.3531,-0.3531 -0.6425,-7.62037 -0.6425,-16.14844 l 0,-15.5039 10.1132,-10.07813 10.1114,-10.07617 z m -47.4297,0.45508 c 0.3972,0.005 4.9267,4.22929 10.0644,9.38867 l 9.3418,9.38086 0.1778,16.37109 0.1797,16.3711 -15.8555,0.18164 -15.8574,0.18164 -9.795,-9.82813 c -5.3868,-5.40523 -9.7929,-10.14501 -9.7929,-10.5332 0,-0.3882 6.9337,-0.70703 15.4082,-0.70703 l 15.4082,0 0,-15.4082 c 0,-8.47446 0.3235,-15.40244 0.7207,-15.39844 z m -40.1016,36.80469 c 0.7377,-0.14479 5.4491,3.86385 10.4707,8.9082 l 9.1309,9.16992 -9.5938,9.63086 c -5.2764,5.29627 -9.9102,9.62891 -10.2988,9.62891 -0.3886,0 -1.2015,-0.92404 -1.8066,-2.05469 -0.9901,-1.84996 -0.3679,-2.78845 6.2187,-9.375 l 7.3184,-7.32031 -7.4453,-7.48828 c -6.2755,-6.31249 -7.2796,-7.75071 -6.3907,-9.16211 0.5799,-0.92091 1.6588,-1.79271 2.3965,-1.9375 z m 127.2871,0.31054 c 0.595,-0.031 1.0293,0.35193 1.6504,0.91407 l 2.002,1.81054 -7.2598,7.30274 c -3.9926,4.01616 -7.2598,7.73638 -7.2598,8.26758 0,0.53119 3.2404,4.18281 7.1993,8.11523 6.7674,6.72225 7.1041,7.25265 5.6289,8.88281 -0.8631,0.95362 -1.8352,1.73438 -2.1602,1.73438 -0.3251,0 -4.8084,-4.23242 -9.9629,-9.40625 l -9.3711,-9.40821 9.5918,-9.55468 c 6.5494,-6.52483 8.6325,-8.58994 9.9414,-8.65821 z m 8.5039,7.58399 c 0.603,-0.0445 1.0751,0.36377 1.8106,1.0293 l 1.9844,1.79687 -3.3965,3.47852 c -1.8684,1.91331 -3.3985,3.95615 -3.3985,4.54101 0,0.58488 1.5611,2.4344 3.4688,4.10938 3.3441,2.9362 3.4084,3.11367 1.7773,4.91601 -0.9305,1.02816 -1.963,1.86914 -2.2949,1.86914 -0.3317,0 -3.0818,-2.50491 -6.1113,-5.5664 l -5.5078,-5.56641 5.7461,-5.6875 c 3.5488,-3.51176 4.9169,-4.84574 5.9218,-4.91992 z m -145.1523,0.0215 c 1.4555,-0.144 3.6301,1.37921 7.0918,4.74024 l 5.5371,5.37695 -5.8691,5.88086 c -5.4619,5.47418 -5.9789,5.77106 -7.4629,4.28711 -2.1784,-2.17843 -2.0769,-2.53794 1.7812,-6.27734 l 3.377,-3.27149 -3.5059,-3.58984 c -2.2583,-2.31281 -3.2953,-4.13454 -2.916,-5.12305 0.4796,-1.24968 1.0935,-1.93704 1.9668,-2.02344 z m 37.7734,13.96485 15.7696,0.26562 15.7695,0.26563 -0.252,16.29882 -0.25,16.30079 -9.3125,9.44726 c -5.1218,5.19548 -9.6379,9.45199 -10.0351,9.45899 -0.3972,0.008 -0.7207,-7.1722 -0.7207,-15.95704 l 0,-15.97265 -5.0567,0.26367 c -2.7807,0.145 -9.77,0.18143 -15.5312,0.082 l -10.4746,-0.18164 4.0176,-4.35742 c 2.25,-2.44101 3.7203,-4.83597 3.3437,-5.44531 -0.4302,-0.69614 -0.2374,-0.81937 0.5352,-0.3418 0.782,0.48322 3.1431,-1.16863 6.7011,-4.68945 l 5.4961,-5.4375 z m 38.8946,0.0488 16.1484,0 16.1484,0 10.0508,10.08789 10.0528,10.08594 -15.8477,0.26563 -15.8477,0.26562 -0.4804,15.66992 -0.4824,15.66797 -9.8711,-9.90625 -9.8711,-9.9082 0,-16.11328 0,-16.11524 z m -53.4649,27.33985 c 3.2823,-0.0428 7.5763,0.0649 10.8535,0.29492 l 7.9434,0.55859 0,13.34961 0,0 0,13.34961 -2.8886,0 -2.8887,0 0,-10.83398 0,-10.83399 -10.834,0 -10.8359,0 0,-2.71679 c 0,-2.63951 0.1645,-2.72815 5.7773,-3.07422 0.7945,-0.049 1.777,-0.0795 2.8711,-0.0937 z m 81.3926,0.58789 13.5469,0 13.5449,0 -0.3047,2.64844 -0.3047,2.64843 -10.834,0.27149 -10.8339,0.27344 0,10.56054 0,10.5625 -2.4063,0 -2.4082,0 0,-13.48242 0,-13.48242 z m -83.6973,11.25976 c 1.4837,0.005 3.0999,0.0538 4.4903,0.14454 l 5.0566,0.33007 0,8.09571 0,8.09765 -2.8906,0 c -2.5956,0 -2.8982,-0.31902 -2.9942,-3.13086 -0.058,-1.72138 -0.028,-4.10515 0.068,-5.29687 0.1628,-2.00876 -0.2154,-2.16602 -5.1894,-2.16602 -5.2936,0 -5.3653,-0.0378 -5.3653,-2.82812 0,-2.48668 0.3769,-2.86357 3.1289,-3.12891 0.8607,-0.083 2.2117,-0.12228 3.6953,-0.11719 z m 95.2539,0.29688 8.25,0 8.2481,0 -0.3047,2.64844 c -0.2838,2.46621 -0.6476,2.668 -5.3105,2.9375 l -5.0079,0.28906 -0.289,5.00586 c -0.2695,4.66292 -0.4713,5.02872 -2.9375,5.3125 l -2.6485,0.30469 0,-8.25 0,-8.24805 z m -42.83,0.94922 9.5957,9.63281 9.5957,9.63086 -2.1465,2.14648 -2.1465,2.14649 -7.7012,-7.65625 -7.7031,-7.65625 -7.4844,7.43945 c -4.1166,4.0924 -7.695,7.44141 -7.9531,7.44141 -0.2581,0 -1.0503,-0.92839 -1.7598,-2.06445 -1.2063,-1.93144 -0.6728,-2.68264 8.2071,-11.5625 l 9.4961,-9.49805 z m 0.033,16.38281 5.7207,5.7793 5.7207,5.78125 -2.1289,2.1289 -2.1289,2.12891 -3.8614,-3.76953 -3.8613,-3.77149 -3.7187,3.63086 c -3.4451,3.36413 -3.8327,3.51501 -5.295,2.05274 -0.8679,-0.868 -1.5781,-1.88573 -1.5781,-2.26172 0,-0.37598 2.5031,-3.16187 5.5645,-6.19141 l 5.5664,-5.50781 z"
       id="path5890-79"
       inkscape:connector-curvature="0" />
    <path
       style="fill:#ff0000;stroke:#ff0000;stroke-width:0.74309069;stroke-linejoin:round;stroke-miterlimit:4;stroke-dasharray:none"
       d="m -995.16992,517.01758 a 17.34499,17.34499 0 0 0 -17.34378,17.34375 17.34499,17.34499 0 0 0 0.875,5.37695 c -3.9096,0.54567 -7.8701,1.28643 -11.8847,2.22852 l -8.1192,3.08203 c -9.8223,3.72664 -14.7331,6.19982 -23.4453,11.8125 -8.1797,5.26959 -23.0437,19.92577 -28.5879,28.18945 -6.0413,9.00504 -12.3214,22.8766 -15.2363,33.65234 -2.3166,8.56446 -2.5567,11.0591 -2.5567,26.82618 0,15.95229 0.2152,18.1806 2.6407,27.04297 3.55,12.97145 10.7358,27.46899 17.9902,36.29492 3.2387,3.94017 6.3413,7.04439 6.8945,6.89843 0.5531,-0.14595 0.7223,0.19115 0.377,0.75 -1.3334,2.1574 17.0686,17.32103 28.4922,23.47852 8.1495,4.39269 21.7219,8.96379 31.9512,10.75977 9.9162,1.74104 29.24907,1.3436 39.16597,-0.80469 20.7883,-4.50338 38.96287,-14.36798 53.83203,-29.2168 41.80425,-41.74707 41.65224,-109.75753 -0.33789,-151.01367 -12.21043,-11.997 -27.24775,-21.23382 -42.37109,-26.02344 -5.25664,-1.66479 -10.5612,-2.909 -15.92774,-3.75976 a 17.34499,17.34499 0 0 0 0.9375,-5.57422 17.34499,17.34499 0 0 0 -17.3457,-17.34375 z m 0,8.75 a 8.5941324,8.5941324 0 0 1 8.59375,8.59375 8.5941324,8.5941324 0 0 1 -8.59375,8.5957 8.5941324,8.5941324 0 0 1 -8.59378,-8.5957 8.5941324,8.5941324 0 0 1 8.59378,-8.59375 z m -44.10938,69.06054 12.5547,0 12.5547,0 0,6.23047 0,6.23243 6.0351,0.2871 6.0371,0.28711 0.2872,6.03711 0.2871,6.03516 6.23238,0 6.23047,0 0,-6.27734 0,-6.27735 6.27735,0 6.27734,0 0,-6.27734 0,-6.27735 12.55469,0 12.55664,0 0,6.27735 0,6.27734 6.27734,0 6.27735,0 0,18.83203 0,18.83204 -6.27735,0 -6.27734,0 0,6.27734 0,6.27734 -6.2793,0 -6.27734,0 0,6.27735 0,6.27734 -6.23242,0 -6.23243,0 -0.2871,6.51953 c -0.18991,4.33551 -0.68932,6.56033 -1.49219,6.64063 -0.66396,0.0664 -3.35976,0.17383 -5.99024,0.24023 l -4.7832,0.12109 -0.28711,6.03516 -0.28711,6.03711 -6.03515,0.28711 -6.03708,0.28711 0,-6.32227 0,-6.32422 -6.2325,0 -6.2343,0 -0.2852,-6.51953 -0.2851,-6.51758 -5.9922,-0.2871 -5.9903,-0.28711 -0.2871,-5.99024 -0.2851,-5.99023 -5.9922,-0.28711 -5.9903,-0.28711 -0.2871,-5.99024 -0.2851,-5.99218 -6.0371,-0.28711 -6.0352,-0.28711 0,-18.78711 0,-18.78516 6.2774,0 6.2773,0 0,-6.27734 0,-6.27735 z"
       id="path5890-4"
       inkscape:connector-curvature="0" />
    <path
       style="fill:#ff0000;stroke:#ff0000;stroke-width:0.74309069;stroke-linejoin:round;stroke-miterlimit:4;stroke-dasharray:none"
       d="m -731.49219,517.01758 a 17.34499,17.34499 0 0 0 -17.3457,17.34375 17.34499,17.34499 0 0 0 0.97851,5.68164 c -5.20884,0.92274 -10.58279,2.24932 -16.66406,3.87305 -33.97795,10.80985 -61.2944,39.77566 -70.66797,74.93554 -2.20828,8.28317 -2.50799,11.32094 -2.58789,26.25586 -0.0795,14.85132 0.18422,17.92884 2.1875,25.50977 11.29265,42.73438 44.80978,73.46482 87.47461,80.20312 21.59954,3.41133 44.36789,-0.17622 63.94141,-10.07422 38.41395,-19.4253 61.38864,-59.23502 58.78125,-101.84961 -2.60853,-42.63296 -31.34787,-80.45813 -71.57422,-94.20117 -6.88988,-1.9532 -12.85693,-3.35483 -18.27148,-4.33398 a 17.34499,17.34499 0 0 0 1.09375,-6 17.34499,17.34499 0 0 0 -17.34571,-17.34375 z m 0,8.75 a 8.5941324,8.5941324 0 0 1 8.59375,8.59375 8.5941324,8.5941324 0 0 1 -8.59375,8.5957 8.5941324,8.5941324 0 0 1 -8.59375,-8.5957 8.5941324,8.5941324 0 0 1 8.59375,-8.59375 z m 31.50586,37.04101 4.48438,5.11329 4.48437,5.11328 6.4336,-0.60157 c 3.53873,-0.33039 6.43359,-0.33896 6.43359,-0.0195 0,0.3194 -1.30216,2.69918 -2.89453,5.28711 -1.59237,2.58794 -2.89649,5.08039 -2.89649,5.53906 0,0.45867 1.13222,3.30284 2.51368,6.32032 1.38144,3.01748 2.35435,5.64175 2.16406,5.83203 -0.19028,0.19029 -3.1189,-0.29521 -6.50781,-1.07813 l -6.16016,-1.42383 -2.98633,2.70508 c -1.64204,1.48753 -3.20858,2.9221 -3.48242,3.1875 -3.37607,3.27196 -3.60917,3.07157 -4.27539,-3.68945 l -0.65234,-6.61328 -5.87305,-3.29297 -5.87305,-3.29297 6.26563,-2.77344 6.26757,-2.77343 1.27735,-6.76954 1.27734,-6.76953 z m -67.52148,1.27344 c 0.97181,0.006 1.25407,2.34514 2.03711,7.7793 0.6237,4.32845 0.78181,4.49926 6.10156,6.65234 3.0034,1.21558 5.82419,2.53232 6.26758,2.92578 0.44342,0.39346 -1.83634,2.16959 -5.06641,3.94532 -5.62272,3.0911 -5.87897,3.39382 -5.98828,7.10742 -0.0628,2.13334 -0.38737,5.04963 -0.72266,6.48047 l -0.60937,2.60156 -5.00586,-4.32422 -5.00391,-4.32422 -6.08789,1.40625 c -3.34835,0.77354 -6.20496,1.28916 -6.34765,1.14649 -0.14269,-0.14269 0.83217,-2.72611 2.16601,-5.74219 1.33385,-3.01607 2.42383,-5.90054 2.42383,-6.40821 0,-0.50767 -1.30215,-3.03901 -2.89453,-5.62695 -1.59237,-2.58793 -2.89453,-4.98698 -2.89453,-5.33008 0,-0.34309 2.95841,-0.34777 6.57422,-0.0117 l 6.57421,0.60937 4.39844,-5.02734 c 2.15011,-2.4579 3.32227,-3.86438 4.07813,-3.85938 z m 35.88867,56.75195 3.81445,8.11914 3.81446,8.1211 9.00976,1.2539 9.00977,1.25391 -6.46485,6.51563 -6.46484,6.51562 1.4043,8.31055 c 0.77303,4.57073 1.18112,8.30859 0.90625,8.30859 -0.27487,0 -3.85832,-1.72849 -7.96289,-3.8418 l -7.46289,-3.84179 -4.67383,2.57812 c -2.57047,1.41835 -4.89085,2.82226 -5.15625,3.11914 -0.26539,0.29688 -0.91648,0.61559 -1.44727,0.70899 -0.53079,0.0934 -1.75442,0.47765 -2.7207,0.85351 -1.90387,0.74057 -1.88318,0.1023 0.40039,-11.58398 l 0.93359,-4.77149 -6.37109,-6.41796 -6.36914,-6.41993 8.8164,-1.26367 8.81836,-1.26367 4.08399,-8.12695 4.08203,-8.12696 z m 70.72266,3.82227 3.4121,6.77344 3.41016,6.77343 7.33203,1.18165 7.33399,1.18359 -5.30078,5.40625 -5.29883,5.4043 1.22461,6.99804 c 0.67426,3.84823 0.86512,6.9961 0.42382,6.9961 -0.44131,0 -3.58401,-1.37203 -6.98437,-3.04883 l -6.18164,-3.04883 -5.40234,3.04883 c -6.44656,3.63821 -7.75513,3.80102 -7.03711,0.87695 0.29325,-1.19428 0.81622,-4.34178 1.16211,-6.99609 0.6278,-4.81751 0.61859,-4.83619 -4.28907,-9.65235 -2.70401,-2.6536 -4.91719,-5.11146 -4.91797,-5.46289 -7.8e-4,-0.35144 1.84571,-0.92242 4.10157,-1.26953 11.23054,-1.72811 10.30101,-1.16096 13.79101,-8.44336 l 3.22071,-6.7207 z m -141.71875,1.14844 c 0.31928,0 1.85082,2.6562 3.40234,5.90234 3.08177,6.44781 3.9493,7.01187 12.37695,8.04688 l 5.67578,0.69726 -5.2832,5.46485 c -5.25669,5.43572 -5.28073,5.48621 -4.50586,9.80664 0.42837,2.38856 1.03578,5.77469 1.34961,7.52539 l 0.57031,3.18359 -6.80664,-3.66602 -6.80859,-3.66601 -6.77149,3.64648 -6.77148,3.64453 0.60547,-4.12695 c 0.33247,-2.27045 0.94004,-5.74191 1.35156,-7.71289 0.71814,-3.43958 0.53928,-3.78015 -4.44922,-8.49805 -2.85855,-2.7035 -5.19726,-5.04841 -5.19726,-5.21093 0,-0.16252 3.28013,-0.82431 7.28711,-1.47071 l 7.28515,-1.17578 L -806.25,632 c 1.68025,-3.40735 3.31551,-6.19531 3.63477,-6.19531 z M -701.46094,689.5 c 0.31128,0 2.57852,1.98269 5.03906,4.40625 l 4.47461,4.40625 6.03907,-1.56445 c 3.32241,-0.86091 6.21043,-1.39699 6.41601,-1.19141 0.20558,0.20558 -0.76603,3.01371 -2.1582,6.24024 l -2.53125,5.86523 3.11914,5.45312 c 1.71563,2.99861 2.96505,5.57623 2.77539,5.72852 -0.18968,0.1523 -3.09902,-10e-4 -6.46484,-0.3418 l -6.11914,-0.62109 -4.16211,4.62891 c -2.28856,2.54543 -4.37006,4.6289 -4.62696,4.6289 -0.2569,0 -0.99283,-2.78539 -1.63476,-6.1875 l -1.16797,-6.18555 -6.33594,-2.83007 -6.33398,-2.83203 5.90625,-3.24805 5.9082,-3.24805 0.64453,-6.55273 c 0.35519,-3.60467 0.90162,-6.55469 1.21289,-6.55469 z m -64.63086,0.13086 c 0.91861,-0.13992 1.22451,1.55268 1.71094,6.76172 l 0.58008,6.20312 5.91016,3.27539 5.9121,3.27539 -6.41796,2.81836 c -6.31212,2.7722 -6.43116,2.89212 -7.07618,7.19336 -1.28609,8.57617 -1.50482,8.68396 -6.58398,3.25391 -2.50003,-2.67271 -5.08483,-4.69305 -5.74414,-4.49023 -0.65929,0.20281 -3.68364,0.6249 -6.7207,0.9375 l -5.52344,0.56835 3.35156,-5.71679 c 1.84279,-3.14423 3.33711,-6.2951 3.32031,-7.00196 -0.0439,-1.83999 -2.44561,-4.75944 -3.25195,-3.95312 -0.37363,0.37367 -0.40658,-0.035 -0.0723,-0.90625 0.33432,-0.87123 0.10492,-2.52336 -0.50976,-3.67188 -0.61476,-1.14851 -0.92364,-2.28338 -0.68555,-2.52148 0.23811,-0.23812 3.30193,0.15778 6.8086,0.87891 l 6.37695,1.31054 2.9375,-3.02929 c 1.61547,-1.66674 2.71224,-3.32822 2.4375,-3.69141 -0.27472,-0.3632 -0.21449,-0.44633 0.13476,-0.18555 0.34926,0.2608 1.22797,-0.0193 1.95313,-0.62109 0.4718,-0.39155 0.84614,-0.64086 1.15234,-0.6875 z"
       id="path5890-78"
       inkscape:connector-curvature="0" />
    <path
       style="fill:#ff0000;stroke:#ff0000;stroke-width:0.74309069;stroke-linejoin:round;stroke-miterlimit:4;stroke-dasharray:none"
       d="m -468.17773,523.01758 c -9.5784,6.8e-4 -17.34307,7.76535 -17.34375,17.34375 0.002,0.35186 0.014,0.70358 0.0371,1.05469 -3.90692,0.11818 -7.30244,0.32009 -9.60546,0.5332 l -5.73828,1.90234 c -46.18195,15.31856 -75.89691,58.54199 -73.51563,106.9336 2.47162,50.22746 40.05784,92.27985 89.3418,99.95703 33.8628,5.27497 67.73155,-5.54793 91.71484,-29.30664 14.79492,-14.65638 24.13158,-31.18814 29.32813,-51.93164 1.78289,-7.11703 2.12057,-11.0978 2.07617,-24.43164 -0.0463,-13.92003 -0.36271,-17.09509 -2.51758,-25.17188 -6.50698,-24.38952 -19.06689,-43.73121 -37.83008,-58.25586 -10.59206,-8.19934 -8.41991,-6.06508 -6.11133,-2.26367 10.13782,16.6934 20.41058,32.10839 24.01953,50.45508 2.15419,10.9513 1.6984,31.18547 -0.92382,41.02929 -2.77117,10.40324 -9.25579,23.68588 -15.71875,32.20118 -19.0278,25.07037 -54.60899,39.13005 -83.57422,33.02343 -33.91116,-7.14934 -57.38845,-35.817 -57.37305,-70.05273 0.008,-17.07951 4.87361,-28.84501 17.00586,-41.11914 11.59222,-11.72782 25.44856,-17.7985 40.50781,-17.74609 19.94561,0.0693 35.25107,9.6848 44.21875,27.77929 l 4.08985,8.25195 0,11.17579 c 0,10.5777 -0.16536,11.52627 -3.09766,17.71679 -5.98846,12.64258 -18.85693,21.72911 -32.11523,22.67774 -7.76238,0.5554 -17.51948,-1.0815 -20.59766,-3.45508 -1.16205,-0.89605 -4.33808,-3.84185 -7.05664,-6.54688 -9.30306,-9.25682 -12.09645,-23.60261 -6.73047,-34.57031 7.79201,-15.92637 27.73895,-21.11362 40.19336,-10.45312 9.77244,8.36487 9.88855,18.95609 0.25195,23.03515 -6.84835,2.89885 -14.37221,-2.83041 -14.19922,-10.81445 0.0886,-4.09117 -0.0247,-4.27344 -2.70117,-4.27344 -11.12554,0 -16.66404,13.73847 -9.93164,24.63672 9.23953,14.95669 32.66103,11.41118 41.17188,-6.23242 2.87424,-5.95849 2.83211,-15.79267 -0.0996,-23.46875 -2.76297,-7.23426 -9.84812,-14.95275 -17.09961,-18.62695 -10.95177,-5.54913 -28.81518,-4.06535 -39.92383,3.3164 -14.06228,9.34441 -22.38496,26.33005 -20.87305,42.59766 0.65521,7.04955 3.93164,18.88717 5.87305,21.2207 0.66256,0.79645 1.48374,2.23443 1.82617,3.19727 0.34252,0.96286 1.03135,1.4992 1.5293,1.1914 0.49805,-0.30779 1.21929,-0.0513 1.60351,0.57032 0.43627,0.70592 0.28005,0.87161 -0.41601,0.4414 -1.8302,-1.13112 -1.27718,0.53642 1.51562,4.56641 3.7052,5.34664 14.26023,14.04579 20.52344,16.91601 35.34825,16.19886 79.68655,-2.63414 95.01563,-40.35937 10.2114,-25.13039 5.45692,-58.87666 -11.67774,-82.88867 -8.2389,-11.5458 -20.42447,-22.52512 -31.60156,-28.47071 -1.8092,-0.9413 -4.02308,-1.71507 -6.50781,-2.35156 0.25213,-1.18004 0.38042,-2.38317 0.38281,-3.58984 -6.8e-4,-9.57917 -7.76653,-17.34414 -17.3457,-17.34375 z m 0,8.75 c 4.74611,2.1e-4 8.59354,3.84764 8.59375,8.59375 8.7e-4,4.74687 -3.84688,8.59549 -8.59375,8.5957 -4.74687,-2.1e-4 -8.59462,-3.84883 -8.59375,-8.5957 2.1e-4,-4.74611 3.84764,-8.59354 8.59375,-8.59375 z"
       id="path5890-70"
       inkscape:connector-curvature="0"
       sodipodi:nodetypes="cccccsssssssssssssssccsssssssssssssssscccccssssccccccccc" />
    <path
       style="fill:#ff0000;stroke:#ff0000;stroke-width:0.74309069;stroke-linejoin:round;stroke-miterlimit:4;stroke-dasharray:none"
       d="m -1270.2012,921.25195 a 17.34499,17.34499 0 0 0 -17.0937,14.52344 c -1.0081,0.20617 -1.9447,0.36556 -2.8028,0.43555 l -7.4043,3.55273 c -4.0723,1.95376 -11.588,5.4558 -16.7031,7.78321 -8.1863,3.83154 -16.0069,8.06222 -24.5293,12.04882 -26.8443,15.15715 -37.8016,31.59505 -37.7676,56.6582 0.023,17.2801 4.3675,28.7329 15.3067,40.3613 9.9242,10.5495 21.6881,17.7064 48.7871,29.6836 22.5436,9.9638 28.604,13.4819 35.7734,20.7637 6.3135,6.4123 6.5538,6.5619 7.8164,4.8477 6.4435,-8.7474 15.4814,-14.477 39.8809,-25.2793 34.5375,-15.2908 47.8381,-24.5149 56.9316,-39.4844 12.5971,-20.7371 10.2735,-50.65707 -5.3379,-68.7383 -8.2185,-9.51888 -22.1426,-18.85618 -40.1582,-26.92773 -23.4975,-10.5277 -30.9497,-13.98179 -31.6679,-14.67969 -1.364,-0.50824 -2.6899,-0.95495 -3.9824,-1.34766 a 17.34499,17.34499 0 0 0 -17.0489,-14.20117 z m 0,8.75 a 8.5941324,8.5941324 0 0 1 8.5938,8.59375 8.5941324,8.5941324 0 0 1 -8.5938,8.59571 8.5941324,8.5941324 0 0 1 -8.5957,-8.59571 8.5941324,8.5941324 0 0 1 8.5957,-8.59375 z m -38.0468,29.75782 c 0.3637,-0.0141 0.7668,-0.0121 1.2148,0 2.0867,0.0562 2.1806,0.30221 2.4258,6.35351 l 0.2558,6.29688 3.0176,0 c 2.785,0 2.9769,-0.16624 2.4746,-2.16797 -0.8743,-3.4834 -0.028,-4.49371 3.4317,-4.08985 l 3.1015,0.36328 0.2461,9.24415 0.2461,9.24414 9.336,0.24609 9.3359,0.24805 0,-9.58399 0,-9.58203 3.041,0 c 2.8951,0 3.0391,0.14402 3.0391,3.03906 0,2.89494 0.146,3.03907 3.041,3.03907 l 3.039,0 0,-6.07813 0,-6.08008 3.0391,0 c 2.895,0 3.041,0.14404 3.041,3.03907 0,2.96739 0.081,3.04101 3.4727,3.04101 3.3911,0 3.4746,0.0716 3.4746,3.03906 l 0,3.03907 -6.5137,0 -6.5137,0 0,3.04101 c 0,2.8848 -0.1531,3.03906 -2.9882,3.03906 -2.8251,0 -3.001,0.17769 -3.2559,3.25782 -0.2461,2.97339 -0.5148,3.27885 -3.0918,3.52734 -2.5842,0.24916 -2.8242,0.52529 -2.8242,3.25781 0,2.83212 0.1567,2.98438 3.041,2.98438 2.8951,0 3.0391,0.14598 3.0391,3.04101 0,2.89494 -0.144,3.03907 -3.0391,3.03907 l -3.041,0 0,6.51364 0,6.5137 21.7129,0 21.7129,0 0,3.0391 c 0,2.895 0.1459,3.041 3.041,3.041 l 3.0391,0 0,28.2812 0,28.2813 -2.8223,-0.2715 -2.8223,-0.2715 -0.2383,-15.416 -0.2363,-15.418 -3.0195,0 -3.0196,0 0,15.6348 0,15.6328 -3.041,0 -3.039,0 0,-15.5879 0,-15.5879 -12.2344,-0.2617 c -6.7288,-0.1446 -12.3963,-0.1014 -12.5938,0.098 -0.1975,0.199 -0.3593,7.3328 -0.3593,15.8515 l 0,15.4883 -3.0391,0 -3.041,0 -0.076,-6.7305 c -0.042,-3.7021 -0.011,-10.7385 0.068,-15.6347 l 0.1445,-8.9024 -3.543,0 -3.541,0 0,15.6348 0,15.6328 -3.039,0 -3.0411,0 0,-28.2266 0,-28.2265 -3.039,0 c -2.8894,0 -3.0391,-0.1484 -3.0391,-3.0098 l 0,-3.0117 -9.3379,-0.2461 -9.3359,-0.2461 -0.2559,-6.2969 -0.2539,-6.29684 6.1172,0 c 5.5024,0 6.1286,-0.17397 6.2266,-1.73633 0.06,-0.95536 0.2047,-2.12779 0.3242,-2.60547 0.1193,-0.47768 0.2662,-1.18944 0.3262,-1.58008 0.06,-0.39092 1.4765,-0.60243 3.1484,-0.4707 2.9341,0.23112 3.041,0.13503 3.041,-2.76367 0,-2.84312 -0.1601,-3.00391 -2.9883,-3.00391 -2.8251,0 -3.0028,-0.17583 -3.2578,-3.25586 -0.2558,-3.0918 -0.4229,-3.25781 -3.3086,-3.25781 -2.7947,0 -3.0623,-0.22726 -3.3125,-2.82227 -0.2549,-2.64327 -0.482,-2.82226 -3.582,-2.82226 -1.8208,0 -4.5306,-0.2444 -6.0234,-0.54297 -2.3964,-0.47932 -2.7149,-0.88645 -2.7149,-3.47461 0,-2.77104 0.1655,-2.92969 3.0391,-2.92969 2.8768,0 3.041,-0.15847 3.041,-2.94726 0,-2.70254 0.5808,-3.5262 3.127,-3.625 z m 25.3164,31.75781 c -3.1431,0 -3.2579,0.10738 -3.2579,3.04101 0,2.93364 0.1148,3.03907 3.2579,3.03907 3.1431,0 3.2558,-0.10543 3.2558,-3.03907 0,-2.93363 -0.1127,-3.04101 -3.2558,-3.04101 z m 56.1367,12.16012 c 2.6512,0 2.984,0.278 3.3711,2.8223 0.2359,1.5524 0.257,3.1163 0.047,3.4746 -0.4732,0.8063 -4.9885,0.8632 -5.7792,0.072 -0.3184,-0.3184 -0.5801,-1.8822 -0.5801,-3.4746 0,-2.711 0.187,-2.8946 2.9414,-2.8946 z"
       id="path5890-43"
       inkscape:connector-curvature="0" />
    <path
       style="fill:#ff0000;stroke:#ff0000;stroke-width:0.74309069;stroke-linejoin:round;stroke-miterlimit:4;stroke-dasharray:none"
       d="m -1006.4082,921.16406 a 17.34499,17.34499 0 0 0 -17.1973,15.20313 c -7.3492,2.19659 -14.6531,5.28094 -21.4902,8.79687 -4.7,1.40226 -32.0541,15.10246 -38.1973,19.13086 -12.8822,8.44727 -23.0537,21.00873 -27.039,33.39258 -3.4842,10.8268 -3.0783,30.4081 0.8359,40.3691 7.5886,19.3122 23.179,31.7568 60.2422,48.0899 24.6923,10.8815 33.731,16.315 39.3086,23.6289 l 0,0 c 1.7797,2.3338 3.3233,4.2441 3.4297,4.2441 0.1064,0 1.4641,-1.7703 3.0176,-3.9336 5.27067,-7.3392 13.57065,-12.4258 38.06637,-23.332 21.21675,-9.4464 25.92387,-11.8328 34.59179,-17.5351 17.04128,-11.2107 25.97708,-23.2924 29.36719,-39.7051 2.83465,-13.7233 1.22863,-27.1067 -4.74805,-39.57034 -2.86718,-5.97922 -4.88326,-8.67688 -11.07031,-14.80274 -11.4826,-11.36897 -18.78146,-15.71989 -48.78125,-29.09179 -10.73129,-4.7833 -19.38467,-9.08893 -19.23047,-9.56641 -1.35414,-0.62053 -2.74777,-1.1423 -4.16797,-1.58984 a 17.34499,17.34499 0 0 0 -16.9414,-13.72852 z m 0,8.75196 a 8.5941324,8.5941324 0 0 1 8.59375,8.59375 8.5941324,8.5941324 0 0 1 -8.59375,8.59375 8.5941324,8.5941324 0 0 1 -8.5957,-8.59375 8.5941324,8.5941324 0 0 1 8.5957,-8.59375 z m -0.092,48.79492 c 1.0382,1.09242 18.69375,37.23696 18.65625,38.19336 -0.0255,0.6511 -4.27427,9.5803 -9.44141,19.8418 l -9.39454,18.6582 -9.6621,-19.3086 -9.6621,-19.3086 9.6055,-19.19335 c 5.2823,-10.55629 9.7358,-19.05383 9.8984,-18.88281 z m 43.87891,11.16406 c 0.25302,0 3.47076,6.03469 7.15039,13.4121 l 6.68945,13.4141 -6.70313,13.4511 c -3.68677,7.3988 -6.89797,13.4731 -7.13671,13.4981 -0.23874,0.025 -3.43239,-6.0624 -7.09766,-13.5293 l -6.66406,-13.5762 6.65039,-13.3359 c 3.65813,-7.33425 6.8583,-13.334 7.11133,-13.334 z m -87.83401,0.34766 c 0.3219,0.20324 3.5057,6.26324 7.0742,13.46684 l 6.4864,13.0976 -6.4864,13.0977 c -3.5685,7.2036 -6.7055,13.2341 -6.9707,13.4023 -0.2653,0.1682 -3.5265,-5.8233 -7.248,-13.3144 l -6.7676,-13.6192 6.6641,-13.25 c 3.6648,-7.28743 6.9262,-13.08399 7.248,-12.88084 z m 121.71096,8.36523 c 0.24925,-0.0184 2.49525,4.07501 4.99219,9.09571 l 4.54101,9.1289 -4.66797,9.3027 -4.66601,9.3047 -4.49805,-8.9629 c -2.47373,-4.9294 -4.3783,-9.4955 -4.23242,-10.1465 0.42139,-1.8805 8.0295,-17.68501 8.53125,-17.72261 z m -155.90816,0.42969 c 0.4457,-0.015 1.8877,2.12002 3.205,4.74612 1.3172,2.6261 2.8366,4.6683 3.377,4.5371 0.5404,-0.1311 0.7146,0.1957 0.3867,0.7265 -0.3281,0.5307 0.075,2.4516 0.8945,4.2696 l 1.4903,3.3066 -4.5274,8.9903 c -2.4903,4.9447 -4.6023,9.0752 -4.6933,9.1796 -0.091,0.1044 -2.2372,-4.0061 -4.7676,-9.1347 l -4.5996,-9.3242 4.2109,-8.6348 c 2.3165,-4.7493 4.5776,-8.64762 5.0235,-8.66212 z"
       id="path5890-6"
       inkscape:connector-curvature="0" />
    <path
       style="fill:#ff0000;stroke:#ff0000;stroke-width:0.74309069;stroke-linejoin:round;stroke-miterlimit:4;stroke-dasharray:none"
       d="m -742.81445,924.66016 c -8.92158,-5e-5 -16.38807,6.76777 -17.26172,15.64648 -6.79294,1.03082 -13.64762,2.57423 -20.65235,4.53711 -12.82927,5.93602 -27.35281,10.89225 -43.54687,23.04883 -16.95888,12.72781 -24.83984,28.10257 -24.83984,48.46482 0,21.7585 8.41171,37.0261 28.21289,51.209 7.85006,5.6229 17.13629,10.4477 37.49609,19.4824 21.93261,9.7328 26.72045,12.5575 34.12109,20.1348 3.5808,3.6664 6.55498,6.704 6.60938,6.75 0.0544,0.046 1.20822,-1.5195 2.56445,-3.4766 4.94151,-7.1306 16.29591,-14.1093 38.57031,-23.707 42.90899,-18.489 58.80608,-32.8895 63.86329,-57.8477 3.04645,-15.0349 -0.0371,-32.93973 -7.63282,-44.31441 -4.81942,-7.21708 -16.08911,-17.42016 -25.32812,-22.93359 -4.39877,-2.62497 -13.63928,-7.33814 -20.53516,-10.47266 -11.93338,-5.87908 -23.28638,-9.43061 -34.42773,-11.12305 -0.98955,-8.76186 -8.39533,-15.38698 -17.21289,-15.39843 z m 0,8.75 c 4.74687,2.1e-4 8.59462,3.84883 8.59375,8.5957 -2.1e-4,4.74611 -3.84764,8.59354 -8.59375,8.59375 -4.74688,8.7e-4 -8.5955,-3.84687 -8.59571,-8.59375 -8.7e-4,-4.74764 3.84807,-8.59657 8.59571,-8.5957 z m -38.58985,40.84961 10.85157,0 10.84961,0 0,5.64257 0,5.64258 11.28515,0 0,5.64063 0,5.64257 5.64258,0 5.64258,0 0,-5.64257 0,-5.64063 5.42578,0 5.42578,0 0,-5.42773 0,-5.42774 10.84961,0 10.85156,0 0.25781,5.38477 0.25782,5.38672 5.38476,0.25586 5.38477,0.25781 0,16.49419 0,16.4921 -5.42578,-0.2968 -5.42578,-0.2969 0,5.7226 0,5.7227 -5.64258,0 -5.64258,0 0,5.6426 0,5.6426 -5.20703,0 -5.20899,0 -0.10937,4.3398 c -0.0597,2.3872 -0.1571,4.829 -0.2168,5.4258 -0.071,0.7096 -1.98481,1.1747 -5.5332,1.3437 l -5.42578,0.2578 0,5.1172 0,0 c 0,2.8137 -0.29231,5.2352 -0.65039,5.3828 -0.35808,0.1496 -2.89729,0.153 -5.64258,0.01 l -4.99219,-0.2598 0,-5.123 0,-5.125 -5.42578,-0.2579 -5.42578,-0.2578 -0.25781,-5.4258 -0.25782,-5.4257 -5.16796,0 -5.16602,0 0,-5.6426 0,-5.6426 -5.60156,0 -5.60157,0 -0.25781,-5.4258 -0.25781,-5.4258 -5.39063,-0.2558 -5.38867,-0.2578 -0.2539,-16.4551 -0.25196,-16.45313 5.67578,0 c 5.30376,8.6e-4 5.67836,-0.12824 5.69336,-1.95313 0.009,-1.07419 0.0919,-3.61144 0.1836,-5.64062 z"
       id="path5890-9"
       inkscape:connector-curvature="0"
       sodipodi:nodetypes="ccccscscccsssscccccccccccccccccccccccccccccccccccccccccccccccsccccccccccccccccccccccscc" />
    <path
       style="fill:#ff0000;stroke:#ff0000;stroke-width:0.74309069;stroke-linejoin:round;stroke-miterlimit:4;stroke-dasharray:none"
       d="m -478.97266,917.58789 c -9.57993,-3.9e-4 -17.34609,7.76577 -17.3457,17.3457 10e-4,0.0339 2.40302,-1.16112 2.40302,-1.16112 -0.96299,0.19976 -3.79198,1.09799 -5.26044,1.9287 -3.90058,2.30177 -8.18956,4.94071 -23.37305,11.62695 -7.36042,3.24121 -8.55298,4.03112 -7.38281,4.88672 1.25786,0.91975 1.19361,1.29417 -0.6582,3.79883 -2.52346,3.41312 -1.38153,4.61981 3.67382,3.88086 1.97727,-0.28916 3.84778,-0.0802 4.5586,0.50977 2.40511,1.99601 0.91568,6.86718 -2.09961,6.86718 -0.6713,0 -2.38184,-0.97791 -3.80078,-2.17187 -1.41895,-1.19396 -3.30766,-2.16992 -4.19727,-2.16992 -1.34965,0 -1.59032,0.60976 -1.45312,3.68945 l 0.16406,3.69141 -3.62109,-0.26953 c -3.39709,-0.25133 -3.59251,-0.14165 -3.13672,1.73828 0.26736,1.10269 1.24524,2.84522 2.17383,3.87304 1.96381,2.17363 1.7707,5.35473 -0.40821,6.72071 -2.62063,1.64279 -4.54796,-0.38062 -4.63476,-4.86719 -0.0414,-2.14623 -0.33024,-4.5688 -0.64258,-5.38281 -0.5078,-1.32344 -0.87847,-1.24217 -3.49805,0.75586 -3.24279,2.4734 -4.25954,2.02485 -5.35937,-2.35743 -0.32901,-1.3106 -0.85997,-2.38281 -1.17969,-2.38281 -1.00744,0 -3.10325,2.93736 -4.02734,5.64453 -0.72085,2.11169 -1.37796,2.60547 -3.47266,2.60547 -1.84693,0 -2.82876,-0.55861 -3.44141,-1.95508 -0.47144,-1.07461 -1.10774,-1.95312 -1.41406,-1.95312 -1.02723,0 -8.65948,9.46965 -11.69336,14.50781 -4.54624,7.54986 -6.49023,14.82492 -7.05078,26.40042 -0.60044,12.3993 0.9468,20.3529 5.87305,30.1953 3.83566,7.6634 13.73378,19.2257 13.80078,16.1211 0.0453,-2.0962 1.60128,-3.8653 3.40039,-3.8653 1.79575,0 4.45312,2.5911 4.45312,4.3418 0,1.4017 3.18225,5.0068 3.76367,4.2637 0.15343,-0.1961 0.78445,-1.6256 1.40235,-3.1777 1.32707,-3.3333 1.89384,-3.4328 5.2793,-0.9297 1.40756,1.0405 2.82732,1.6219 3.15625,1.293 0.32892,-0.329 0.54215,-2.7595 0.47265,-5.4024 -0.11115,-4.2256 0.10632,-4.8932 1.80078,-5.5332 4.30137,-1.6247 6.79789,3.3147 3.35157,6.6309 -0.88778,0.8545 -1.85989,2.5799 -2.16016,3.834 -0.54036,2.2563 -0.50435,2.2741 3.48633,1.8242 l 4.03125,-0.4532 -0.56446,4.127 c -0.48487,3.5367 -0.37089,4.0519 0.80274,3.6016 0.75319,-0.2892 1.67223,-0.5254 2.04101,-0.5254 0.36878,0 1.71158,-0.9651 2.98438,-2.1446 1.99091,-1.8451 2.61546,-2.0084 4.46875,-1.164 2.35118,1.0712 2.9223,4.1947 1.05078,5.748 -0.60705,0.5038 -2.92073,0.8458 -5.14062,0.7598 -2.21989,-0.086 -4.33253,0.1411 -4.69532,0.5039 -0.36287,0.3627 0.19181,1.8111 1.23242,3.2187 2.15816,2.9189 2.35697,4.0557 0.80665,4.6094 -1.58653,0.5665 -1.42925,0.6512 13.24218,7.1016 20.46503,8.9975 29.6334,14.774 34.74414,21.8906 l 0,0 c 1.48563,2.0685 2.85485,3.7617 3.04102,3.7617 0.18617,0 1.53973,-1.7468 3.00781,-3.8808 4.73146,-6.8768 18.34875,-15.0884 40.39649,-24.3614 4.29824,-1.8078 7.96682,-3.4131 8.15429,-3.5664 0.18747,-0.1534 -0.1341,-0.8509 -0.71484,-1.5508 -0.85036,-1.0246 -0.67468,-1.7875 0.90039,-3.9179 1.07577,-1.455 1.66067,-2.9408 1.29883,-3.3028 -0.36192,-0.3618 -2.87549,-0.6621 -5.58399,-0.6621 l -4.92382,0 0,-3.039 c 0,-2.7209 0.26872,-3.069 2.5625,-3.3301 1.63021,-0.1855 2.93594,0.2203 3.59179,1.1172 0.56694,0.7753 2.1953,1.7425 3.61719,2.1504 l 2.58398,0.7422 -0.44335,-3.9414 -0.44336,-3.9395 4.02343,0.4531 c 3.97801,0.4484 4.01788,0.4277 3.4961,-1.8261 -0.29028,-1.2541 -1.0029,-2.6709 -1.58399,-3.1485 -0.58109,-0.4776 -1.51936,-1.7391 -2.08594,-2.8027 -1.43795,-2.6996 1.46195,-5.769 4.41602,-4.6738 1.72781,0.6404 1.97852,1.333 1.97852,5.5546 0.002,2.6528 0.30028,5.1206 0.66211,5.4825 0.36192,0.3619 1.80923,-0.1939 3.21679,-1.2344 3.43947,-2.543 4.06161,-2.4072 5.23438,1.1465 0.55165,1.6715 1.3034,3.039 1.66992,3.039 1.17121,0 3.28862,-2.9615 3.87109,-5.414 1.04192,-4.3866 7.48438,-3.9879 7.48438,0.4629 0,1.7145 0.0849,1.7014 2.27734,-0.3243 7.94776,-7.3434 14.93735,-20.4177 16.88086,-31.5781 2.444,-14.0345 -0.82227,-32.12659 -7.63086,-42.27537 -3.37868,-5.03613 -10.52046,-13.45286 -10.88672,-12.83008 -0.11367,0.19335 -0.63776,1.13273 -1.16406,2.08789 -1.77105,3.2138 -7.29297,2.35293 -7.29297,-1.13672 0,-0.74657 -0.86837,-2.28233 -1.93164,-3.41406 l -1.93359,-2.05859 -0.9668,2.87109 c -1.19283,3.54482 -3.35211,4.07545 -6.0957,1.49805 -1.14941,-1.07992 -2.35025,-1.70434 -2.66797,-1.38672 -0.31764,0.31771 -0.6117,2.78372 -0.6543,5.48047 -0.0577,3.66783 -0.45896,5.14438 -1.5957,5.86133 -3.63458,2.2922 -6.51722,-3.3189 -3.44922,-6.71485 0.92859,-1.02782 1.90842,-2.77035 2.17578,-3.87304 0.45578,-1.88003 0.26037,-1.98766 -3.13672,-1.73633 l -3.62304,0.26758 0.0742,-3.69141 c 0.0902,-4.44123 -1.55431,-4.89059 -5.56054,-1.51953 -1.41894,1.19395 -3.12753,2.17187 -3.79883,2.17187 -3.07581,0 -4.4925,-4.88033 -2.01367,-6.9375 0.76873,-0.63803 2.21844,-0.83879 3.58398,-0.49609 1.26143,0.31634 3.42244,0.32668 4.80274,0.0234 l 2.50976,-0.55078 -2.18555,-2.59961 c -2.43532,-2.89425 -2.58713,-3.4539 -1.28906,-4.75196 0.61799,-0.61806 -3.23841,-2.75613 -12.375,-6.86132 -7.29929,-3.27959 -14.33834,-6.59823 -15.64258,-7.375 l -5.43554,-2.08789 c 0.0165,-0.23347 0.0282,-0.46724 0.0351,-0.70118 3.9e-4,-9.57917 -7.76458,-17.34502 -17.34375,-17.3457 z m 0,8.75195 c 4.74611,2.1e-4 8.59354,3.84764 8.59375,8.59375 -2.1e-4,4.74611 -3.84764,8.59354 -8.59375,8.59375 -4.74611,-2.1e-4 -8.59354,-3.84764 -8.59375,-8.59375 2.1e-4,-4.74611 3.84764,-8.59354 8.59375,-8.59375 z m -11.60351,25.72071 c 0.88814,-0.0413 1.85386,0.19876 2.80078,0.79883 0.64473,0.4086 1.17187,2.07283 1.17187,3.69921 0,1.62658 0.56254,3.7259 1.25,4.66602 1.07352,1.46806 1.36771,1.52715 2.07618,0.41211 0.45373,-0.71406 0.61254,-1.87242 0.35351,-2.57422 -0.25893,-0.70218 -0.19294,-0.99772 0.14649,-0.6582 0.33951,0.33952 1.18424,0.14484 1.8789,-0.43164 1.03011,-0.85492 1.74246,-0.51221 3.86328,1.86132 2.72126,3.04563 3.6782,2.78632 4.53907,-1.23242 0.20458,-0.95516 0.60546,-2.83538 0.89062,-4.17773 0.45466,-2.13993 0.86151,-2.40668 3.31055,-2.16992 2.44688,0.23648 2.82644,0.61842 3.06445,3.08593 0.22046,2.28487 -0.12943,2.99777 -1.85742,3.78516 -1.72806,0.78728 -4.05859,3.96975 -4.05859,5.54297 0,0.18747 1.46492,0.46314 3.25586,0.61133 3.44049,0.28482 3.7922,1.13039 2.36328,5.69531 -0.5448,1.74023 -0.31553,1.95508 2.10546,1.95508 1.49492,0 3.49697,-0.48652 4.44727,-1.08008 2.29405,-1.43265 4.66724,0.0349 5.03516,3.11328 0.3792,3.17279 -3.3735,5.0454 -5.76758,2.87891 -0.87528,-0.79221 -2.68022,-1.43946 -4.01172,-1.43946 -2.11101,0 -2.34249,0.24937 -1.81445,1.95313 1.774,5.72366 1.75867,5.77303 -2.04297,6.38086 -1.9633,0.31395 -3.57031,0.92897 -3.57031,1.36719 0,0.73982 2.26756,3.08446 5.56054,5.74609 1.85658,1.50077 1.74647,3.06055 -0.35351,4.96094 -1.43787,1.30124 -2.11736,1.40383 -3.90821,0.58789 -1.65687,-0.75497 -2.17451,-1.65643 -2.19531,-3.82813 -0.0152,-1.56232 -0.60351,-3.60276 -1.30859,-4.53515 -1.2438,-1.64472 -1.35472,-1.60979 -3.70313,1.20312 l -2.42187,2.90039 -2.44336,-2.90429 c -2.33792,-2.77847 -2.49672,-2.83362 -3.65039,-1.25586 -0.66341,0.90721 -1.20703,2.9287 -1.20703,4.49218 0,1.92181 -0.54417,3.1326 -1.67969,3.74024 -2.3425,1.25368 -3.04194,1.14005 -4.77539,-0.77539 -1.54398,-1.70608 -1.22324,-5.27149 0.47461,-5.27149 1.10652,0 5.11328,-4.00939 5.11328,-5.11718 0,-0.47045 -1.46492,-0.97672 -3.25586,-1.125 -2.86332,-0.23696 -3.24175,-0.53262 -3.13086,-2.44141 0.0694,-1.19395 0.4074,-3.05048 0.75195,-4.125 0.54262,-1.69238 0.31895,-1.95313 -1.67578,-1.95313 -1.26638,0 -3.23969,0.61491 -4.38476,1.36524 -4.22574,2.76873 -7.89487,-2.55765 -4.11719,-5.97656 1.38612,-1.25435 1.8194,-1.26919 4.00586,-0.13477 1.34878,0.69969 3.39134,1.27344 4.53711,1.27344 2.03155,0 2.05272,-0.0745 0.85156,-2.94922 -1.45837,-3.49051 -0.57782,-4.86719 3.11719,-4.86719 1.33724,0 2.43164,-0.41489 2.43164,-0.92383 0,-1.77651 -1.80744,-4.28515 -3.08789,-4.28515 -0.70986,0 -1.71399,-0.92699 -2.23047,-2.06055 -1.37134,-3.00964 0.59142,-5.65936 3.25586,-5.7832 z m -44.91016,1.62304 c -0.53094,-0.0826 -1.2902,0.0954 -2.20312,0.58399 -1.4489,0.77542 -1.60413,1.21728 -0.7793,2.21094 1.3961,1.68234 2.32223,1.56036 3.39453,-0.44336 0.72441,-1.35352 0.4728,-2.21384 -0.41211,-2.35157 z m 112.72852,0.10352 c -0.25553,0.0173 -0.48874,0.0608 -0.68164,0.13477 -1.28045,0.49119 -1.27508,0.68128 0.0703,2.16796 l 0.002,0 c 1.76958,1.95529 2.40422,2.02201 3.75977,0.38868 0.82301,-0.99154 0.68195,-1.42873 -0.69922,-2.16797 -0.71357,-0.38193 -1.68459,-0.57544 -2.45117,-0.52344 z m -120.35742,3.77148 c -0.69477,-0.017 -1.81624,0.31332 -3.26563,1.05274 -3.59541,1.8342 -4.60051,3.07038 -1.76367,2.16992 0.91505,-0.29031 1.90676,-0.13576 2.20312,0.34375 0.31876,0.51579 1.24833,0.16376 2.27539,-0.86328 1.67952,-1.6795 1.70872,-2.67475 0.55079,-2.70313 z m 128.8164,0.34766 c -0.85829,-0.0499 -1.58235,0.13119 -2.02344,0.57227 -0.72567,0.72564 -0.58963,0.97851 0.52539,0.97851 0.82684,0 1.73212,0.59569 2.01172,1.32422 0.366,0.95391 0.81394,1.07194 1.59961,0.41992 0.6001,-0.49814 1.82433,-0.67279 2.72071,-0.38672 1.49857,0.47816 1.4896,0.40706 -0.10743,-0.89062 -1.4919,-1.21217 -3.29607,-1.93433 -4.72656,-2.01758 z m -125.18945,4.1543 c -1.16556,0 -1.63672,0.6247 -1.63672,2.17187 0,1.70261 0.44254,2.16992 2.05078,2.16992 1.7189,0 1.98263,-0.35008 1.63477,-2.16992 -0.2677,-1.40023 -0.99389,-2.17187 -2.04883,-2.17187 z m 120.79883,0 c -0.95517,0 -1.73633,0.36032 -1.73633,0.79883 0,0.43849 -0.23741,1.41447 -0.52734,2.16992 -0.39754,1.03601 0.0288,1.37304 1.73632,1.37304 1.83574,0 2.26368,-0.40942 2.26368,-2.16992 0,-1.59194 -0.46275,-2.17187 -1.73633,-2.17187 z m -60.49805,0.76367 c -0.32029,-0.0714 -0.67776,0.2168 -1.2793,0.81836 -0.73526,0.73499 -1.10165,1.95361 -0.8125,2.70703 0.58396,1.5218 2.79341,1.83978 3.60938,0.51953 0.28907,-0.46774 0.0775,-1.68635 -0.46875,-2.70703 -0.44706,-0.83534 -0.72854,-1.26647 -1.04883,-1.33789 z m 69.68359,1.82617 c -0.63092,0.0204 -1.35169,0.34582 -2.05273,1.04688 -0.7947,0.79472 -0.70486,1.38871 0.39453,2.60351 1.83331,2.02582 2.64423,1.98797 3.32422,-0.1543 0.6716,-2.11602 -0.27798,-3.54092 -1.66602,-3.49609 z m -138.92187,0.0156 c -1.74243,0 -2.47421,1.40167 -1.81445,3.48046 0.65377,2.05988 1.57088,2.19249 3.02734,0.4375 1.29225,-1.55702 0.56207,-3.91796 -1.21289,-3.91796 z m 147.60351,0.89843 c -0.44146,-0.0159 0.1147,0.94668 1.23633,2.14063 1.92865,2.05303 3.47266,2.79197 3.47266,1.66015 0,-0.73519 -3.7553,-3.76698 -4.70899,-3.80078 z m -156.50195,0.0684 c -0.44387,0.006 -1.63863,0.70676 -3.33789,2.09961 -1.73723,1.42396 -2.14877,2.13867 -1.23633,2.13867 0.75252,0.002 2.28654,-0.97206 3.40821,-2.16601 1.30393,-1.38794 1.60989,-2.07779 1.16601,-2.07227 z m 85.71289,2.65821 c -0.87059,0.0157 -1.32454,0.40525 -1.54492,1.24804 -0.22356,0.85434 -0.18829,1.77063 0.0781,2.03711 0.56024,0.56017 3.66796,0.66275 3.66796,0.1211 0,-0.19972 0.21789,-0.93053 0.48438,-1.625 0.32476,-0.84633 -0.22553,-1.39976 -1.66992,-1.67579 -0.38971,-0.0745 -0.72543,-0.1107 -1.01563,-0.10546 z m -16.04687,0.0391 c -0.15576,0.007 -0.31911,0.0243 -0.48828,0.0566 -2.39364,0.45752 -2.4365,0.56126 -1.19922,2.87305 0.70908,1.32488 1.25627,1.5045 2.52734,0.82421 2.27465,-1.21738 1.49656,-3.85531 -0.83984,-3.7539 z m 8.26172,3.29687 c -1.19395,0 -2.16993,0.46783 -2.16993,1.04102 0,0.57329 -0.62978,1.3941 -1.39843,1.82422 -1.28443,0.71898 -1.28443,0.82749 0,1.32031 0.76865,0.29495 1.39843,1.03655 1.39843,1.64844 0,0.61198 0.97598,1.11133 2.16993,1.11133 1.19396,0 2.17187,-0.49935 2.17187,-1.11133 0,-0.61189 0.62784,-1.35349 1.39649,-1.64844 1.28443,-0.49282 1.28442,-0.60133 0,-1.32031 -0.76865,-0.43012 -1.39649,-1.25093 -1.39649,-1.82422 0,-0.57319 -0.97791,-1.04102 -2.17187,-1.04102 z m 8.43554,5.65625 c -1.57802,0.0339 -2.79704,1.56532 -2.29297,2.87891 0.49937,1.30124 4.71289,2.15863 4.71289,0.95898 0,-0.97514 -1.81348,-3.85139 -2.41992,-3.83789 z m -17.52929,0.0469 c -0.5704,0.0858 -0.7773,0.70778 -1.27539,2.32812 -0.50964,1.65794 -0.27862,1.95508 1.52734,1.95508 2.77189,0 3.81543,-3.16077 1.30664,-3.95703 -0.74337,-0.23594 -1.21636,-0.37766 -1.55859,-0.32617 z m 9.06054,4.77344 c -1.39038,-0.14202 -2.31796,1.88896 -1.26758,3.85156 0.79226,1.48041 1.23579,1.64199 2.23047,0.8164 1.56534,-1.29912 1.58652,-2.92398 0.0547,-4.19531 -0.35148,-0.2917 -0.69672,-0.43988 -1.01758,-0.47265 z m -60.12304,5.14257 c 3.03109,0 4.88861,2.20807 4.66406,5.54102 -0.19746,2.93313 1.81246,7.48442 3.30469,7.48442 0.36114,0 1.58458,-1.36499 2.7207,-3.03325 1.13613,-1.66826 2.52126,-3.03906 3.07812,-3.03906 0.55687,-0.003 2.26892,1.57915 3.80274,3.51562 l 2.78711,3.52149 1.62695,-2.67383 c 0.8943,-1.47057 1.625,-4.00495 1.625,-5.63086 0,-3.28885 1.85679,-5.68555 4.4043,-5.68555 1.98831,0 5.14844,2.93282 5.14844,4.77735 0,1.4258 -2.99652,4.77539 -4.27149,4.77539 -0.72558,0 -4.41211,5.2516 -4.41211,6.2852 0,0.2403 1.95388,0.697 4.3418,1.0137 4.89617,0.6495 5.28075,1.5286 3.02734,6.9218 l -1.31445,3.1465 3.70312,-0.029 c 2.03615,-0.015 4.45969,-0.6014 5.38672,-1.3027 0.92712,-0.7011 2.19725,-1.2735 2.82227,-1.2735 1.70619,0 4.60937,3.2412 4.60937,5.1465 0,3.796 -5.37759,5.849 -8.125,3.1016 -1.20177,-1.2018 -8.37304,-1.9162 -8.37304,-0.834 0,0.2578 0.81439,2.0668 1.81054,4.0195 2.23109,4.3732 1.28047,5.7456 -4.19922,6.0606 -2.02973,0.1166 -3.68945,0.3161 -3.68945,0.4453 0,1.8006 3.33004,6.3662 4.9375,6.7695 1.13778,0.2856 2.50014,1.4697 3.0293,2.6309 1.38638,3.0428 -1.00475,6.5234 -4.48242,6.5234 -2.8417,0 -4.35352,-1.9527 -4.35352,-5.6289 0,-2.4035 -2.21528,-7.3996 -3.27734,-7.3887 -0.34594,0 -1.55919,1.3709 -2.69532,3.0391 -2.61785,3.84 -4.67242,3.8385 -7.05078,-0.01 -1.03306,-1.6715 -2.22794,-3.039 -2.65429,-3.039 -1.30979,0 -3.42579,4.9592 -3.42579,8.0312 0,1.5999 -0.46791,3.3781 -1.04101,3.9512 l 0,0 c -1.79337,1.7934 -5.73538,1.2403 -7.21094,-1.0117 -1.73467,-2.6475 -0.51802,-6.2026 2.3711,-6.9277 1.60303,-0.4024 5.01367,-5.1253 5.01367,-6.9434 0,-0.1292 -1.64689,-0.3305 -3.65821,-0.4492 -5.29614,-0.3125 -6.15504,-1.3092 -4.48828,-5.2031 0.74642,-1.7435 1.55817,-3.659 1.80469,-4.2559 0.66783,-1.6172 -6.19414,-1.4202 -7.55273,0.2168 -1.414,1.7037 -5.58798,1.6679 -7.31836,-0.062 -1.72948,-1.7296 -1.73273,-3.7988 -0.0117,-6.2559 1.56604,-2.2358 3.68774,-2.4656 6.08008,-0.6562 0.92703,0.7013 3.32661,1.2887 5.33203,1.3027 l 3.64453,0.029 -1.30664,-3.1289 c -2.15207,-5.1508 -1.4337,-6.7972 3.10351,-7.1113 2.13349,-0.1477 4.00668,-0.3953 4.16211,-0.5508 0.76414,-0.7642 -3.02303,-6.53642 -4.30078,-6.55472 -1.56526,-0.0228 -4.17383,-3.14146 -4.17383,-4.99023 0,-1.64154 3.23811,-4.58399 5.04493,-4.58399 z m 120.17382,0.16797 c 1.9647,-0.14553 4.20551,1.28797 5.3125,4.40625 0.5942,1.67376 -2.07715,4.97461 -4.02734,4.97461 -0.89143,0 -4.06836,5.01901 -4.06836,6.42781 0,0.1604 1.7917,0.4933 3.98242,0.7402 5.49515,0.6193 6.07206,1.4657 3.90235,5.7187 -0.9938,1.9481 -1.80664,3.752 -1.80664,4.0098 0,1.0972 7.19242,0.3478 9.18359,-0.957 2.78492,-1.8247 6.1464,-0.5035 6.95898,2.7344 1.0849,4.3221 -4.60681,7.4986 -7.76953,4.3359 -1.16774,-1.1677 -8.37304,-1.9309 -8.37304,-0.8867 0,0.2291 0.62861,1.9872 1.39648,3.9062 1.88862,4.7201 1.19823,6.0977 -3.05469,6.0977 -1.89713,0 -3.69179,0.3907 -3.98633,0.8672 -0.82734,1.3387 2.36314,6.0946 4.4375,6.6152 1.01821,0.2556 2.34912,1.3954 2.95704,2.5312 1.54763,2.8919 -0.77978,6.4844 -4.20118,6.4844 -3.18774,0 -4.49609,-1.4517 -4.49609,-4.9922 0,-2.9107 -2.09498,-8.0374 -3.2793,-8.0254 -0.34594,0 -1.55724,1.3708 -2.69336,3.0391 -1.13613,1.6683 -2.74608,3.0332 -3.57812,3.0332 -0.83203,0 -2.44396,-1.3649 -3.58008,-3.0332 -1.13613,-1.6683 -2.32533,-3.0391 -2.64453,-3.0391 -1.28131,-0.013 -4.10049,5.8179 -3.64844,7.5469 0.26189,1.0014 0.0373,2.6424 -0.5,3.6465 -1.80743,3.3772 -8.73047,1.6317 -8.73047,-2.2012 0,-2.2672 1.62451,-4.4392 3.71094,-4.9629 1.56413,-0.3926 4.97266,-5.1455 4.97266,-6.9336 0,-0.1293 -1.66168,-0.3306 -3.69141,-0.4472 -5.4797,-0.315 -6.43031,-1.6873 -4.19922,-6.0606 0.99615,-1.9526 1.81055,-3.7596 1.81055,-4.0175 0,-1.1194 -7.67212,-0.3844 -8.68164,0.832 -1.40861,1.6972 -4.72371,1.6668 -6.45117,-0.061 -2.09719,-2.0972 -1.68758,-5.3314 0.88867,-7.0195 2.1236,-1.3921 2.41317,-1.3888 5.06836,0.041 1.64106,0.8839 4.12867,1.4001 5.96093,1.2383 l 3.14454,-0.2773 -1.72461,-3.8399 c -2.04883,-4.5592 -1.55738,-5.3098 3.89062,-5.9238 2.19072,-0.2469 3.97852,-0.6902 3.97852,-0.9863 -0.0141,-1.3223 -3.45446,-5.58384 -5.23828,-6.48835 -3.04706,-1.54535 -3.94816,-3.53271 -2.77149,-6.11523 2.3109,-5.07193 9.11171,-3.10075 8.73242,2.53125 -0.10602,1.57409 0.5794,3.96894 1.59961,5.58008 l 1.78711,2.82425 2.50782,-3.54105 c 1.37829,-1.94738 2.9981,-3.54995 3.5996,-3.56055 0.60149,-0.0102 2.16382,1.52969 3.47266,3.42188 1.30883,1.89229 2.59943,3.45662 2.86914,3.47462 0.9562,0.064 3.41797,-6.14334 3.41797,-8.61915 0,-3.20025 1.68765,-4.92479 3.65234,-5.07032 z m -106.11523,12.90827 c -0.23879,0 -1.15002,0.9837 -2.02539,2.1855 -1.26551,1.7376 -1.37713,2.4426 -0.54492,3.4453 0.57553,0.6935 1.73211,1.2617 2.57031,1.2617 0.8382,0 1.99478,-0.5682 2.57031,-1.2617 0.83221,-1.0027 0.72059,-1.7077 -0.54492,-3.4453 -0.87536,-1.2018 -1.7866,-2.1855 -2.02539,-2.1855 z m 92.77539,0.1211 c -0.56264,0.01 -1.1031,0.6936 -2.00391,2.0683 -1.38194,2.1099 -1.38156,2.3415 0.01,3.8789 1.11285,1.2297 1.87123,1.4265 3.05859,0.791 2.50618,-1.3412 2.74733,-2.405 1.07032,-4.7089 -0.98799,-1.357 -1.57213,-2.0346 -2.13477,-2.0293 z m -10.48633,7.4043 c -0.22224,10e-4 -0.4549,0.019 -0.69922,0.055 -2.84587,0.4177 -3.02055,0.8514 -1.5957,3.9786 0.85296,1.872 1.23805,2.0256 3.03906,1.205 3.38495,-1.5423 2.58954,-5.2532 -0.74414,-5.2382 z m -71.43554,0.2343 c -2.605,0 -3.03907,0.2888 -3.03907,2.0254 0,1.1145 0.26167,2.2872 0.58008,2.6055 1.15454,1.1547 3.72146,0.5412 4.59961,-1.0996 1.49275,-2.7891 1.04294,-3.5313 -2.14062,-3.5313 z m 92.9121,0 c -2.605,0 -3.03906,0.2888 -3.03906,2.0254 0,1.1145 0.25971,2.2872 0.57813,2.6055 1.27758,1.2776 3.54092,0.4549 4.49218,-1.6328 1.37761,-3.0233 1.39484,-2.9981 -2.03125,-2.9981 z m -112.86132,0.09 c -0.42048,-0.02 -0.97382,0.01 -1.69727,0.057 -1.70488,0.1148 -3.10156,0.266 -3.10156,0.336 0,0.07 0.42132,1.3333 0.93555,2.8085 0.79035,2.2672 1.22688,2.5756 2.82226,1.9903 1.16696,-0.428 1.99426,-1.5795 2.16602,-3.0176 0.19446,-1.6281 0.13642,-2.1147 -1.125,-2.1738 z m 5.93359,2.8086 c -0.4115,-0.096 -0.35382,0.3184 -0.0801,1.3652 0.32051,1.2257 -0.0955,2.2305 -1.26367,3.0488 -1.73449,1.2149 -1.73419,1.2239 0.12109,2.2168 1.30621,0.6988 1.70264,1.4995 1.32813,2.6797 -0.60002,1.8902 0.43521,2.2211 2.01367,0.6426 0.81041,-0.8104 1.27356,-0.8104 2.08399,0 1.59512,1.5952 2.68701,1.2422 2.17773,-0.7051 -0.30721,-1.1751 0.11334,-2.0545 1.28516,-2.6816 l 1.74414,-0.9336 -1.74219,-1.2188 c -1.16814,-0.8183 -1.58417,-1.8231 -1.26367,-3.0488 0.43799,-1.6749 0.32189,-1.7306 -1.38282,-0.666 -1.55301,0.9698 -2.16574,0.9698 -3.71875,0 -0.63926,-0.3992 -1.05583,-0.6414 -1.30273,-0.6992 z m 93.00391,0.047 c -0.32518,0.01 -0.4043,0.5389 -0.4043,1.752 0,1.2674 -0.58635,2.5298 -1.30274,2.8047 -0.71637,0.2749 -1.30273,0.8488 -1.30273,1.2754 0,0.4264 0.58637,0.7754 1.30273,0.7754 0.81529,0 1.30274,0.8232 1.30274,2.2011 0,1.9696 0.19275,2.0991 1.83008,1.2227 1.32333,-0.7086 2.09313,-0.7173 2.77929,-0.031 1.4502,1.4503 2.22321,1.1319 1.74024,-0.7148 -0.29002,-1.1093 0.19864,-1.9999 1.46875,-2.6797 l 1.90234,-1.0195 -1.8789,-1.3164 c -1.03393,-0.7242 -1.66831,-1.8664 -1.41016,-2.5391 0.35585,-0.9273 -0.0525,-1.0923 -1.68945,-0.6816 -1.2279,0.3082 -2.71682,0.08 -3.45117,-0.5293 -0.40785,-0.3385 -0.69162,-0.5239 -0.88672,-0.5196 z m 14.28906,8.3438 c -2.14669,0 -3.4043,1.318 -3.4043,3.5664 0,2.0301 0.37415,2.509 1.95313,2.498 3.42514,-0.023 4.35815,-1.1308 3.16211,-3.7558 -0.57875,-1.27 -1.3491,-2.3086 -1.71094,-2.3086 z m -22.17578,0.334 c -1.65056,-0.039 -3.3793,4.0595 -1.89649,5 0.62147,0.3942 2.00943,0.7204 3.08399,0.7304 1.59487,0.011 1.95312,-0.4652 1.95312,-2.5917 0,-1.4328 -0.35836,-2.6055 -0.79687,-2.6055 -0.43851,0 -1.34528,-0.2095 -2.01563,-0.4668 -0.10837,-0.042 -0.21809,-0.064 -0.32812,-0.066 z m -71.06641,0.021 c -0.0898,0 -0.17651,0.013 -0.25976,0.045 -0.67035,0.2573 -1.57907,0.4668 -2.01758,0.4668 -0.43851,0 -0.79688,1.1726 -0.79688,2.6055 0,2.3039 0.29607,2.6054 2.55469,2.6054 1.40453,0 2.77574,-0.3609 3.04883,-0.8027 0.7907,-1.2794 -1.18195,-4.8943 -2.5293,-4.9199 z m -21.74023,0 c -1.16399,0 -3.04297,2.9142 -3.04297,4.8906 0,0.4552 1.36947,0.8281 3.04101,0.8281 2.79794,0 3.03907,-0.2072 3.03907,-2.6054 0,-1.4329 -0.36032,-2.6055 -0.79883,-2.6055 -0.4385,0 -1.34527,-0.2095 -2.01563,-0.4668 -0.0705,-0.027 -0.14505,-0.041 -0.22265,-0.041 z m 10.85156,5.8828 c -0.44222,0 -0.88395,0.3671 -1.69336,1.0996 -1.56812,1.4191 -1.59458,1.6866 -0.33594,3.6074 0.74772,1.1413 1.66156,2.0762 2.0293,2.0762 0.36774,0 1.27962,-0.9349 2.02734,-2.0762 1.25865,-1.9208 1.23414,-2.1883 -0.33398,-3.6074 -0.80942,-0.7325 -1.25114,-1.0996 -1.69336,-1.0996 z m 92.96875,0.078 c -0.45977,-0.049 -0.9037,0.1921 -1.56055,0.6953 -0.8448,0.6471 -1.68701,1.2743 -1.87109,1.3945 -0.18409,0.1202 0.31338,1.2072 1.10547,2.4161 1.78998,2.7318 2.57279,2.7542 4.29687,0.123 1.2576,-1.9193 1.23344,-2.1893 -0.31836,-3.5937 -0.7175,-0.6493 -1.19257,-0.9863 -1.65234,-1.0352 z m -57.94531,18.8613 c 2.68558,0 4.04512,1.5779 4.07812,4.7325 0.0152,1.4566 0.61787,3.428 1.33789,4.3808 1.38994,1.8393 1.53966,1.7462 3.9043,-2.3848 1.26386,-2.208 2.74447,-1.8669 4.7168,1.086 0.95517,1.4299 1.96652,2.6035 2.24804,2.6035 0.83533,0 2.52735,-4.267 2.52735,-6.3789 0,-2.5151 1.55135,-4.0391 4.10937,-4.0391 3.88075,0 4.18564,6.1255 0.36524,7.3379 -1.32256,0.4198 -3.60547,3.7715 -3.60547,5.293 0,0.2163 1.60823,0.3945 3.57422,0.3945 3.84645,0 3.85161,0.013 2.03906,5.8614 -0.53898,1.739 -0.30793,1.9531 2.11133,1.9531 1.49492,0 3.49696,-0.4865 4.44726,-1.0801 2.29405,-1.4326 4.66724,0.035 5.03516,3.1133 0.3792,3.1728 -3.3735,5.0473 -5.76758,2.8808 -1.54511,-1.3983 -6.23047,-2.0389 -6.23047,-0.8515 0,0.3243 0.47764,1.9094 1.06055,3.5215 1.22331,3.383 0.24021,4.5366 -3.88281,4.5586 -1.31335,0.01 -2.38672,0.3478 -2.38672,0.7558 0,0.7334 2.88413,3.8552 5.5625,6.0215 1.78173,1.4412 1.74343,2.1533 -0.25,4.6152 -1.44273,1.7817 -1.90228,1.8966 -3.90821,0.9825 -1.76489,-0.8042 -2.28128,-1.6712 -2.30468,-3.877 -0.0169,-1.5623 -0.54299,-3.7657 -1.16993,-4.8965 L -474,1079.082 l -1.92578,2.7071 c -2.37237,3.3317 -3.74322,3.4026 -6.08008,0.3183 -1.76375,-2.3279 -1.84165,-2.3443 -3.11133,-0.7012 -0.71637,0.9272 -1.30273,2.7553 -1.30273,4.0626 0,1.3072 -0.61278,2.9896 -1.36328,3.7402 -1.78902,1.7889 -3.2514,1.7246 -5.01368,-0.2227 -1.96781,-2.1744 -1.90742,-2.362 2.03516,-6.2265 1.91033,-1.8725 3.47461,-3.7617 3.47461,-4.1973 0,-0.4354 -1.60701,-1.0493 -3.57031,-1.3633 -3.80165,-0.6078 -3.81697,-0.6571 -2.04297,-6.3808 0.52291,-1.6871 0.29121,-1.9532 -1.69727,-1.9532 -1.26638,0 -3.23969,0.615 -4.38476,1.3653 -2.88356,1.8893 -5.89031,0.3305 -5.50781,-2.8555 0.36409,-3.033 2.75136,-4.4863 5.03125,-3.0625 0.95031,0.5936 2.95039,1.0801 4.44531,1.0801 2.421,0 2.65221,-0.2129 2.10742,-1.9531 -1.42893,-4.5649 -1.07917,-5.4125 2.36133,-5.6973 1.79094,-0.1482 3.25781,-0.6681 3.25781,-1.1543 0,-0.4862 -1.56428,-2.4309 -3.47461,-4.3223 -1.91033,-1.8913 -3.47266,-3.6448 -3.47266,-3.8965 0,-1.6729 2.11368,-3.8164 3.76368,-3.8164 z m 11.53515,11.0254 c -1.3016,-0.066 -2.58436,1.6765 -1.96484,3.291 0.56685,1.477 0.73145,1.5245 2.6582,0.7852 1.68838,-0.6479 1.77733,-2.3993 0.1875,-3.7188 -0.27942,-0.2319 -0.58049,-0.3421 -0.88086,-0.3574 z m 7.57617,4.9414 c -0.76112,-0.039 -1.14679,0.3619 -1.39843,1.3243 -0.24578,0.9408 -0.2293,1.9288 0.0371,2.1953 1.00996,1.01 3.50403,0.4274 4.02929,-0.9414 0.63735,-1.6609 0.64053,-1.6579 -1.77343,-2.3985 -0.34614,-0.1062 -0.64083,-0.1668 -0.89454,-0.1797 z m -15.9414,0.2735 c -0.15576,0.01 -0.31911,0.026 -0.48828,0.059 -2.39364,0.4575 -2.4365,0.5612 -1.19922,2.873 0.70908,1.3249 1.25627,1.5026 2.52734,0.8223 2.27465,-1.2174 1.49657,-3.8553 -0.83984,-3.7539 z m -61.99805,1.8945 -0.70117,1.8984 c -0.43677,1.1807 -0.31474,2.3654 0.32227,3.1329 0.8824,1.0631 1.2054,1.0523 2.34179,-0.084 1.1798,-1.1798 1.14566,-1.5107 -0.32226,-3.1328 z m 140.71289,0.5 c -0.86813,0.079 -3.15625,1.8329 -3.15625,2.6758 0,0.5061 0.43681,1.3587 0.97266,1.8945 1.53,1.53 3.58325,0.2828 3.01562,-1.832 -0.27075,-1.0087 -0.4949,-2.132 -0.5039,-2.4942 -0.003,-0.1921 -0.12779,-0.2622 -0.32813,-0.2441 z m -152.94336,0.5293 c -0.47759,0 0.28709,0.9478 1.70118,2.1035 1.41408,1.1556 2.7396,1.9323 2.94531,1.7266 0.50001,-0.5001 -3.5434,-3.8301 -4.64649,-3.8301 z m 164.32422,0.051 c -1.23745,0 -4.11719,2.3865 -4.11719,3.5215 0,0.4179 1.19403,-0.1234 2.6543,-1.2032 1.46036,-1.0797 2.22031,-2.1075 1.6875,-2.2851 -0.0666,-0.022 -0.14211,-0.033 -0.22461,-0.033 z m -81.83398,0.3222 c -1.19395,0 -2.16992,0.4698 -2.16992,1.043 0,0.5732 -0.62979,1.3941 -1.39844,1.8242 -1.28443,0.719 -1.28443,0.8256 0,1.3184 0.76865,0.295 1.39844,1.0365 1.39844,1.6484 0,0.612 0.97597,1.1133 2.16992,1.1133 1.19396,0 2.17187,-0.4697 2.17187,-1.043 0,-0.5733 0.68376,-1.4254 1.51953,-1.8945 1.44725,-0.8125 1.44725,-0.8818 0,-1.4394 -0.83577,-0.322 -1.51953,-1.0323 -1.51953,-1.5782 0,-0.5459 -0.97791,-0.9922 -2.17187,-0.9922 z m -58.93164,2.2579 c -0.33979,0.032 -0.78511,0.1463 -1.35157,0.3261 -1.00501,0.319 -1.80273,1.3142 -1.80273,2.25 0,2.3879 3.13656,2.1916 3.77148,-0.2363 0.46962,-1.7959 0.40217,-2.4362 -0.61718,-2.3398 z m 117.86328,0 c -1.01935,-0.096 -1.08681,0.5439 -0.61719,2.3398 0.29289,1.1202 1.18068,1.9141 2.13672,1.9141 2.27008,0 2.13311,-3.1974 -0.16797,-3.9278 -0.56646,-0.1798 -1.01178,-0.294 -1.35156,-0.3261 z m -67.83789,3.4257 c -0.63372,0.012 -1.08008,0.2669 -1.08008,0.7578 0,0.4385 -0.23546,1.4145 -0.52539,2.17 -0.39397,1.0266 0.0198,1.373 1.64258,1.373 2.42117,0 3.92247,-2.4955 2.16992,-3.6074 -0.75081,-0.4761 -1.57331,-0.7056 -2.20703,-0.6934 z m 16.75976,0.2989 c -1.06858,-0.01 -1.95221,0.8915 -1.57812,2.3222 0.27951,1.0688 1.19355,1.6817 2.50976,1.6817 2.33452,0 2.57083,-0.7202 0.96094,-2.9219 -0.54415,-0.7442 -1.25143,-1.0765 -1.89258,-1.082 z m -73.69531,0.7285 c -0.10165,0 -0.2299,0.1204 -0.38086,0.3535 -0.35089,0.5417 -1.41983,1.145 -2.375,1.3418 -1.53529,0.3165 -1.43572,0.5258 0.86719,1.8027 3.04107,1.6862 3.63716,1.7881 4.28711,0.7364 0.26423,-0.4275 -0.10477,-1.0016 -0.81836,-1.2754 -0.71369,-0.2739 -1.30155,-1.1944 -1.31055,-2.045 -0.005,-0.61 -0.10012,-0.9192 -0.26953,-0.914 z m 132.13086,0.1484 c -0.13935,-0.07 -0.43186,0.368 -0.75586,1.1738 -0.43191,1.0746 -1.48284,1.9568 -2.33398,1.9668 -1.31674,0.011 -1.35239,0.1374 -0.24414,0.8536 1.6626,1.0745 1.3638,1.1165 4.60156,-0.625 2.58346,-1.3896 2.64051,-1.516 0.82422,-1.7969 -1.07456,-0.1663 -1.97742,-0.7644 -2.00782,-1.3281 -0.008,-0.141 -0.0375,-0.2209 -0.084,-0.2442 z m -66.3418,3.6016 c -1.40398,-0.1512 -2.28746,1.9261 -1.19531,3.9668 1.00596,1.8795 1.0864,1.8915 2.23242,0.3242 1.48459,-2.0317 1.48477,-2.5704 0,-3.8027 -0.36164,-0.3002 -0.71311,-0.4534 -1.03711,-0.4883 z m -57.5039,0.8984 c -0.38903,-0.033 -0.83627,0.2423 -1.57032,0.8028 -1.43613,1.0964 -1.48269,1.3812 -0.35351,2.1367 1.52983,1.0238 4.35435,1.1845 4.31445,0.2461 -0.0152,-0.3581 -0.5402,-1.3263 -1.16601,-2.1504 -0.50433,-0.6641 -0.83559,-1.0027 -1.22461,-1.0352 z m 114.58789,0.3692 c -0.58344,0.023 -1.02344,0.1367 -1.02344,0.3574 0,0.1997 -0.2374,0.9808 -0.52734,1.7363 -0.37147,0.968 -0.0174,1.3731 1.19726,1.3731 1.88498,0 3.99943,-1.9869 3.08594,-2.9004 -0.38944,-0.3894 -1.76003,-0.6045 -2.73242,-0.5664 z"
       id="path5890-33"
       inkscape:connector-curvature="0"
       sodipodi:nodetypes="ccccscsccsssccccsccsscscssscsscssscccscccccccscccccccsccscsccccscscsccccccsccccccscssssccsccccccccccccssccccccscccccccccccssccccccccccsccscscsccscscccccccscssscccscccscsssccccccccccccsccsccscsssccccsssscssscssssccccsssccssscscsscsscsscccssccscscsssccsssccssccscssssscccccscssccccssssscccccsscsccsccssccsssccscscccccsccccsccssssssscsccsscscccsscssscccssscsscccccccsccssccccccsssccsccsscsccsscssssscssssccsscsccsscscccccccccccsccsssssccccccscccssccscccssccccsssccssssscssscscssscccscsscssccsscsssscscsccscccccccscscssscsscccsccscssccccccccsccccscccccccccscscccccccscccssccssscssscssccccssccsssccccssccccsccccscccsccscccccsccccscscscc" />
  </g>
</svg>
