  0
SECTION
  2
HEADER
  9
$ACADVER
  1
AC1014
  9
$HANDSEED
  5
FFFF
  9
$MEASUREMENT
 70
     1
  0
ENDSEC
  0
SECTION
  2
TABLES
  0
TABLE
  2
VPORT
  5
8
330
0
100
AcDbSymbolTable
 70
     4
  0
VPORT
  5
2E
330
8
100
AcDbSymbolTableRecord
100
AcDbViewportTableRecord
  2
*ACTIVE
 70
     0
 10
0.0
 20
0.0
 11
1.0
 21
1.0
 12
210.0
 22
148.5
 13
0.0
 23
0.0
 14
10.0
 24
10.0
 15
10.0
 25
10.0
 16
0.0
 26
0.0
 36
1.0
 17
0.0
 27
0.0
 37
0.0
 40
341.0
 41
1.24
 42
50.0
 43
0.0
 44
0.0
 50
0.0
 51
0.0
 71
     0
 72
   100
 73
     1
 74
     3
 75
     0
 76
     0
 77
     0
 78
     0
  0
ENDTAB
  0
TABLE
  2
LTYPE
  5
5
330
0
100
AcDbSymbolTable
 70
     1
  0
LTYPE
  5
14
330
5
100
AcDbSymbolTableRecord
100
AcDbLinetypeTableRecord
  2
BYBLOCK
 70
     0
  3

 72
    65
 73
     0
 40
0.0
  0
LTYPE
  5
15
330
5
100
AcDbSymbolTableRecord
100
AcDbLinetypeTableRecord
  2
BYLAYER
 70
     0
  3

 72
    65
 73
     0
 40
0.0
  0
LTYPE
  5
16
330
5
100
AcDbSymbolTableRecord
100
AcDbLinetypeTableRecord
  2
CONTINUOUS
 70
     0
  3
Solid line
 72
    65
 73
     0
 40
0.0
  0
ENDTAB
  0
TABLE
  2
LAYER
  5
2
100
AcDbSymbolTable
 70
2
  0
LAYER
  5
50
100
AcDbSymbolTableRecord
100
AcDbLayerTableRecord
  2
0
 70
0
  6
CONTINUOUS
  0
LAYER
  5
51
100
AcDbSymbolTableRecord
100
AcDbLayerTableRecord
  2
Layer_1
 70
0
  6
CONTINUOUS
  0
ENDTAB
  0
TABLE
  2
STYLE
  5
3
330
0
100
AcDbSymbolTable
 70
     1
  0
STYLE
  5
11
330
3
100
AcDbSymbolTableRecord
100
AcDbTextStyleTableRecord
  2
STANDARD
 70
     0
 40
0.0
 41
1.0
 50
0.0
 71
     0
 42
2.5
  3
txt
  4

  0
ENDTAB
  0
TABLE
  2
VIEW
  5
6
330
0
100
AcDbSymbolTable
 70
     0
  0
ENDTAB
  0
TABLE
  2
UCS
  5
7
330
0
100
AcDbSymbolTable
 70
     0
  0
ENDTAB
  0
TABLE
  2
APPID
  5
9
330
0
100
AcDbSymbolTable
 70
     2
  0
APPID
  5
12
330
9
100
AcDbSymbolTableRecord
100
AcDbRegAppTableRecord
  2
ACAD
 70
     0
  0
ENDTAB
  0
TABLE
  2
DIMSTYLE
  5
A
330
0
100
AcDbSymbolTable
 70
     1
  0
DIMSTYLE
105
27
330
A
100
AcDbSymbolTableRecord
100
AcDbDimStyleTableRecord
  2
ISO-25
 70
     0
  3

  4

  5

  6

  7

 40
1.0
 41
2.5
 42
0.625
 43
3.75
 44
1.25
 45
0.0
 46
0.0
 47
0.0
 48
0.0
140
2.5
141
2.5
142
0.0
143
0.03937007874016
144
1.0
145
0.0
146
1.0
147
0.625
 71
     0
 72
     0
 73
     0
 74
     0
 75
     0
 76
     0
 77
     1
 78
     8
170
     0
171
     3
172
     1
173
     0
174
     0
175
     0
176
     0
177
     0
178
     0
270
     2
271
     2
272
     2
273
     2
274
     3
340
11
275
     0
280
     0
281
     0
282
     0
283
     0
284
     8
285
     0
286
     0
287
     3
288
     0
  0
ENDTAB
  0
TABLE
  2
BLOCK_RECORD
  5
1
330
0
100
AcDbSymbolTable
 70
     1
  0
BLOCK_RECORD
  5
1F
330
1
100
AcDbSymbolTableRecord
100
AcDbBlockTableRecord
  2
*MODEL_SPACE
  0
BLOCK_RECORD
  5
1B
330
1
100
AcDbSymbolTableRecord
100
AcDbBlockTableRecord
  2
*PAPER_SPACE
  0
ENDTAB
  0
ENDSEC
  0
SECTION
  2
BLOCKS
  0
BLOCK
  5
20
330
1F
100
AcDbEntity
  8
0
100
AcDbBlockBegin
  2
*MODEL_SPACE
 70
     0
 10
0.0
 20
0.0
 30
0.0
  3
*MODEL_SPACE
  1

  0
ENDBLK
  5
21
330
1F
100
AcDbEntity
  8
0
100
AcDbBlockEnd
  0
BLOCK
  5
1C
330
1B
100
AcDbEntity
 67
     1
  8
0
100
AcDbBlockBegin
  2
*PAPER_SPACE
  1

  0
ENDBLK
  5
1D
330
1B
100
AcDbEntity
 67
     1
  8
0
100
AcDbBlockEnd
  0
ENDSEC
  0
SECTION
  2
ENTITIES
  0
SPLINE
  5
100
100
AcDbEntity
  8
Layer_1
 62
7
100
AcDbSpline
 70
8
 71
3
 72
8
 73
4
 74
0
 40
0
 40
0
 40
0
 40
0
 40
1
 40
1
 40
1
 40
1
 10
34.452058
 20
222.389154
 30
0.0
 10
32.125223
 20
222.401504
 30
0.0
 10
29.693424
 20
221.886412
 30
0.0
 10
27.559110
 20
220.841340
 30
0.0
  0
SPLINE
  5
101
100
AcDbEntity
  8
Layer_1
 62
7
100
AcDbSpline
 70
8
 71
3
 72
8
 73
4
 74
0
 40
0
 40
0
 40
0
 40
0
 40
1
 40
1
 40
1
 40
1
 10
27.559110
 20
220.841340
 30
0.0
 10
25.708373
 20
219.935122
 30
0.0
 10
23.285723
 20
217.469730
 30
0.0
 10
22.404696
 20
215.595424
 30
0.0
  0
SPLINE
  5
102
100
AcDbEntity
  8
Layer_1
 62
7
100
AcDbSpline
 70
8
 71
3
 72
8
 73
4
 74
0
 40
0
 40
0
 40
0
 40
0
 40
1
 40
1
 40
1
 40
1
 10
22.404696
 20
215.595424
 30
0.0
 10
20.333036
 20
211.188160
 30
0.0
 10
20.412754
 20
204.504706
 30
0.0
 10
22.587700
 20
200.202739
 30
0.0
  0
SPLINE
  5
103
100
AcDbEntity
  8
Layer_1
 62
7
100
AcDbSpline
 70
8
 71
3
 72
8
 73
4
 74
0
 40
0
 40
0
 40
0
 40
0
 40
1
 40
1
 40
1
 40
1
 10
22.587700
 20
200.202739
 30
0.0
 10
24.412026
 20
196.594288
 30
0.0
 10
27.762964
 20
194.356100
 30
0.0
 10
32.370118
 20
193.669735
 30
0.0
  0
SPLINE
  5
104
100
AcDbEntity
  8
Layer_1
 62
7
100
AcDbSpline
 70
8
 71
3
 72
8
 73
4
 74
0
 40
0
 40
0
 40
0
 40
0
 40
1
 40
1
 40
1
 40
1
 10
32.370118
 20
193.669735
 30
0.0
 10
34.167338
 20
193.401988
 30
0.0
 10
36.470757
 20
193.520758
 30
0.0
 10
38.252688
 20
193.972904
 30
0.0
  0
SPLINE
  5
105
100
AcDbEntity
  8
Layer_1
 62
7
100
AcDbSpline
 70
8
 71
3
 72
8
 73
4
 74
0
 40
0
 40
0
 40
0
 40
0
 40
1
 40
1
 40
1
 40
1
 10
38.252688
 20
193.972904
 30
0.0
 10
39.373212
 20
194.257223
 30
0.0
 10
41.335672
 20
195.360314
 30
0.0
 10
41.663056
 20
195.890031
 30
0.0
  0
SPLINE
  5
106
100
AcDbEntity
  8
Layer_1
 62
7
100
AcDbSpline
 70
8
 71
3
 72
8
 73
4
 74
0
 40
0
 40
0
 40
0
 40
0
 40
1
 40
1
 40
1
 40
1
 10
41.663056
 20
195.890031
 30
0.0
 10
42.039134
 20
196.498542
 30
0.0
 10
42.408729
 20
196.149774
 30
0.0
 10
42.323410
 20
195.266605
 30
0.0
  0
SPLINE
  5
107
100
AcDbEntity
  8
Layer_1
 62
7
100
AcDbSpline
 70
8
 71
3
 72
8
 73
4
 74
0
 40
0
 40
0
 40
0
 40
0
 40
1
 40
1
 40
1
 40
1
 10
41.584231
 20
203.372227
 30
0.0
 10
41.536775
 20
202.911099
 30
0.0
 10
41.155775
 20
201.837390
 30
0.0
 10
40.737564
 20
200.986016
 30
0.0
  0
SPLINE
  5
108
100
AcDbEntity
  8
Layer_1
 62
7
100
AcDbSpline
 70
8
 71
3
 72
8
 73
4
 74
0
 40
0
 40
0
 40
0
 40
0
 40
1
 40
1
 40
1
 40
1
 10
40.737564
 20
200.986016
 30
0.0
 10
39.707735
 20
198.889531
 30
0.0
 10
38.063661
 20
198.014069
 30
0.0
 10
35.185175
 20
198.028745
 30
0.0
  0
SPLINE
  5
109
100
AcDbEntity
  8
Layer_1
 62
7
100
AcDbSpline
 70
8
 71
3
 72
8
 73
4
 74
0
 40
0
 40
0
 40
0
 40
0
 40
1
 40
1
 40
1
 40
1
 10
35.185175
 20
198.028745
 30
0.0
 10
32.931190
 20
198.040245
 30
0.0
 10
31.836213
 20
198.489504
 30
0.0
 10
30.148719
 20
200.095802
 30
0.0
  0
SPLINE
  5
10a
100
AcDbEntity
  8
Layer_1
 62
7
100
AcDbSpline
 70
8
 71
3
 72
8
 73
4
 74
0
 40
0
 40
0
 40
0
 40
0
 40
1
 40
1
 40
1
 40
1
 10
30.148719
 20
200.095802
 30
0.0
 10
28.139716
 20
202.008143
 30
0.0
 10
27.238793
 20
205.092578
 30
0.0
 10
27.514462
 20
209.113686
 30
0.0
  0
SPLINE
  5
10b
100
AcDbEntity
  8
Layer_1
 62
7
100
AcDbSpline
 70
8
 71
3
 72
8
 73
4
 74
0
 40
0
 40
0
 40
0
 40
0
 40
1
 40
1
 40
1
 40
1
 10
27.514462
 20
209.113686
 30
0.0
 10
27.928801
 20
215.157483
 30
0.0
 10
32.142616
 20
218.950866
 30
0.0
 10
37.149154
 20
217.787058
 30
0.0
  0
SPLINE
  5
10c
100
AcDbEntity
  8
Layer_1
 62
7
100
AcDbSpline
 70
8
 71
3
 72
8
 73
4
 74
0
 40
0
 40
0
 40
0
 40
0
 40
1
 40
1
 40
1
 40
1
 10
37.149154
 20
217.787058
 30
0.0
 10
39.673665
 20
217.200213
 30
0.0
 10
41.106756
 20
215.781649
 30
0.0
 10
41.796451
 20
213.187716
 30
0.0
  0
LWPOLYLINE
  5
10d
100
AcDbEntity
  8
Layer_1
 62
7
100
AcDbPolyline
 90
17
 70
0
 10
42.323410
 20
195.266605
 30
0.0
 10
42.234666
 20
194.349383
 30
0.0
 10
44.845221
 20
194.268354
 30
0.0
 10
47.455777
 20
194.187325
 30
0.0
 10
47.455777
 20
199.277798
 30
0.0
 10
47.455777
 20
204.368272
 30
0.0
 10
48.879565
 20
204.368272
 30
0.0
 10
50.302803
 20
204.368272
 30
0.0
 10
50.220121
 20
206.414383
 30
0.0
 10
50.136888
 20
208.460494
 30
0.0
 10
44.069110
 20
208.460494
 30
0.0
 10
38.001332
 20
208.460494
 30
0.0
 10
38.001332
 20
206.343827
 30
0.0
 10
38.001332
 20
204.227160
 30
0.0
 10
39.835777
 20
204.218894
 30
0.0
 10
41.670221
 20
204.210625
 30
0.0
 10
41.584231
 20
203.372227
 30
0.0
  0
SPLINE
  5
10e
100
AcDbEntity
  8
Layer_1
 62
7
100
AcDbSpline
 70
8
 71
3
 72
8
 73
4
 74
0
 40
0
 40
0
 40
0
 40
0
 40
1
 40
1
 40
1
 40
1
 10
42.268840
 20
220.807716
 30
0.0
 10
42.287503
 20
220.303244
 30
0.0
 10
42.264180
 20
219.890494
 30
0.0
 10
42.217027
 20
219.890494
 30
0.0
  0
SPLINE
  5
10f
100
AcDbEntity
  8
Layer_1
 62
7
100
AcDbSpline
 70
8
 71
3
 72
8
 73
4
 74
0
 40
0
 40
0
 40
0
 40
0
 40
1
 40
1
 40
1
 40
1
 10
42.217027
 20
219.890494
 30
0.0
 10
42.169870
 20
219.890494
 30
0.0
 10
41.493584
 20
220.286979
 30
0.0
 10
40.714414
 20
220.771338
 30
0.0
  0
SPLINE
  5
110
100
AcDbEntity
  8
Layer_1
 62
7
100
AcDbSpline
 70
8
 71
3
 72
8
 73
4
 74
0
 40
0
 40
0
 40
0
 40
0
 40
1
 40
1
 40
1
 40
1
 10
40.714414
 20
220.771338
 30
0.0
 10
39.000385
 20
221.836834
 30
0.0
 10
36.778892
 20
222.376801
 30
0.0
 10
34.452058
 20
222.389154
 30
0.0
  0
LWPOLYLINE
  5
111
100
AcDbEntity
  8
Layer_1
 62
7
100
AcDbPolyline
 90
9
 70
0
 10
41.796451
 20
213.187716
 30
0.0
 10
42.115605
 20
211.988272
 30
0.0
 10
44.792305
 20
211.988272
 30
0.0
 10
47.469007
 20
211.988272
 30
0.0
 10
47.391836
 20
216.856605
 30
0.0
 10
47.314666
 20
221.724938
 30
0.0
 10
44.774666
 20
221.724938
 30
0.0
 10
42.234666
 20
221.724938
 30
0.0
 10
42.268840
 20
220.807716
 30
0.0
  0
LWPOLYLINE
  5
112
100
AcDbEntity
  8
Layer_1
 62
7
100
AcDbPolyline
 90
2
 70
0
 10
34.452058
 20
222.389154
 30
0.0
 10
34.452058
 20
222.389154
 30
0.0
  0
SPLINE
  5
113
100
AcDbEntity
  8
Layer_1
 62
7
100
AcDbSpline
 70
8
 71
3
 72
8
 73
4
 74
0
 40
0
 40
0
 40
0
 40
0
 40
1
 40
1
 40
1
 40
1
 10
77.709228
 20
196.639131
 30
0.0
 10
77.662038
 20
195.725182
 30
0.0
 10
77.690393
 20
194.801788
 30
0.0
 10
77.772618
 20
194.587508
 30
0.0
  0
SPLINE
  5
114
100
AcDbEntity
  8
Layer_1
 62
7
100
AcDbSpline
 70
8
 71
3
 72
8
 73
4
 74
0
 40
0
 40
0
 40
0
 40
0
 40
1
 40
1
 40
1
 40
1
 10
77.772618
 20
194.587508
 30
0.0
 10
77.895004
 20
194.268577
 30
0.0
 10
79.113724
 20
194.211839
 30
0.0
 10
84.490828
 20
194.273868
 30
0.0
  0
LWPOLYLINE
  5
115
100
AcDbEntity
  8
Layer_1
 62
7
100
AcDbPolyline
 90
12
 70
0
 10
90.917999
 20
221.841798
 30
0.0
 10
84.356332
 20
221.783369
 30
0.0
 10
77.794666
 20
221.724938
 30
0.0
 10
77.794666
 20
219.749383
 30
0.0
 10
77.794666
 20
217.773827
 30
0.0
 10
79.558555
 20
217.690044
 30
0.0
 10
81.322443
 20
217.605707
 30
0.0
 10
81.322443
 20
208.037160
 30
0.0
 10
81.322443
 20
198.468616
 30
0.0
 10
79.558555
 20
198.384830
 30
0.0
 10
77.794666
 20
198.300494
 30
0.0
 10
77.709228
 20
196.639131
 30
0.0
  0
SPLINE
  5
116
100
AcDbEntity
  8
Layer_1
 62
7
100
AcDbSpline
 70
8
 71
3
 72
8
 73
4
 74
0
 40
0
 40
0
 40
0
 40
0
 40
1
 40
1
 40
1
 40
1
 10
90.989658
 20
218.832160
 30
0.0
 10
90.976168
 20
219.414244
 30
0.0
 10
90.954626
 20
220.329564
 30
0.0
 10
90.941703
 20
220.866147
 30
0.0
  0
LWPOLYLINE
  5
117
100
AcDbEntity
  8
Layer_1
 62
7
100
AcDbPolyline
 90
11
 70
0
 10
84.490828
 20
194.273868
 30
0.0
 10
91.059110
 20
194.349383
 30
0.0
 10
91.012809
 20
196.324938
 30
0.0
 10
90.965954
 20
198.300494
 30
0.0
 10
89.248920
 20
198.384830
 30
0.0
 10
87.531332
 20
198.468616
 30
0.0
 10
87.531332
 20
208.037160
 30
0.0
 10
87.531332
 20
217.605707
 30
0.0
 10
89.272621
 20
217.690044
 30
0.0
 10
91.014463
 20
217.773827
 30
0.0
 10
90.989658
 20
218.832160
 30
0.0
  0
SPLINE
  5
118
100
AcDbEntity
  8
Layer_1
 62
7
100
AcDbSpline
 70
8
 71
3
 72
8
 73
4
 74
0
 40
0
 40
0
 40
0
 40
0
 40
1
 40
1
 40
1
 40
1
 10
68.073434
 20
221.809275
 30
0.0
 10
66.627223
 20
221.812963
 30
0.0
 10
65.032232
 20
221.810008
 30
0.0
 10
63.342353
 20
221.799355
 30
0.0
  0
LWPOLYLINE
  5
119
100
AcDbEntity
  8
Layer_1
 62
7
100
AcDbPolyline
 90
3
 70
0
 10
90.941703
 20
220.866147
 30
0.0
 10
90.917999
 20
221.841798
 30
0.0
 10
90.917999
 20
221.841798
 30
0.0
  0
SPLINE
  5
11a
100
AcDbEntity
  8
Layer_1
 62
7
100
AcDbSpline
 70
8
 71
3
 72
8
 73
4
 74
0
 40
0
 40
0
 40
0
 40
0
 40
1
 40
1
 40
1
 40
1
 10
66.867374
 20
201.757716
 30
0.0
 10
66.823644
 20
203.581577
 30
0.0
 10
66.824521
 20
207.905018
 30
0.0
 10
66.869028
 20
211.365399
 30
0.0
  0
LWPOLYLINE
  5
11b
100
AcDbEntity
  8
Layer_1
 62
7
100
AcDbPolyline
 90
23
 70
0
 10
63.342353
 20
221.799355
 30
0.0
 10
51.547999
 20
221.724938
 30
0.0
 10
51.470828
 20
216.997716
 30
0.0
 10
51.393107
 20
212.270494
 30
0.0
 10
53.940273
 20
212.270494
 30
0.0
 10
56.486888
 20
212.270494
 30
0.0
 10
56.486888
 20
214.951605
 30
0.0
 10
56.486888
 20
217.632716
 30
0.0
 10
58.603555
 20
217.632716
 30
0.0
 10
60.720221
 20
217.632716
 30
0.0
 10
60.720221
 20
208.037160
 30
0.0
 10
60.720221
 20
198.441605
 30
0.0
 10
58.744666
 20
198.441605
 30
0.0
 10
56.769110
 20
198.441605
 30
0.0
 10
56.769110
 20
196.324938
 30
0.0
 10
56.769110
 20
194.208272
 30
0.0
 10
63.683555
 20
194.208272
 30
0.0
 10
70.597999
 20
194.208272
 30
0.0
 10
70.597999
 20
196.324938
 30
0.0
 10
70.597999
 20
198.441605
 30
0.0
 10
68.772374
 20
198.441605
 30
0.0
 10
66.947299
 20
198.441605
 30
0.0
 10
66.867374
 20
201.757716
 30
0.0
  0
SPLINE
  5
11c
100
AcDbEntity
  8
Layer_1
 62
7
100
AcDbSpline
 70
8
 71
3
 72
8
 73
4
 74
0
 40
0
 40
0
 40
0
 40
0
 40
1
 40
1
 40
1
 40
1
 10
76.101883
 20
216.884167
 30
0.0
 10
76.102281
 20
220.816485
 30
0.0
 10
76.044146
 20
221.388021
 30
0.0
 10
75.619570
 20
221.615247
 30
0.0
  0
SPLINE
  5
11d
100
AcDbEntity
  8
Layer_1
 62
7
100
AcDbSpline
 70
8
 71
3
 72
8
 73
4
 74
0
 40
0
 40
0
 40
0
 40
0
 40
1
 40
1
 40
1
 40
1
 10
75.619570
 20
221.615247
 30
0.0
 10
75.411996
 20
221.726338
 30
0.0
 10
72.412064
 20
221.798212
 30
0.0
 10
68.073434
 20
221.809275
 30
0.0
  0
LWPOLYLINE
  5
11e
100
AcDbEntity
  8
Layer_1
 62
7
100
AcDbPolyline
 90
9
 70
0
 10
66.869028
 20
211.365399
 30
0.0
 10
66.950057
 20
217.656970
 30
0.0
 10
68.966402
 20
217.574287
 30
0.0
 10
70.982747
 20
217.491605
 30
0.0
 10
71.002040
 20
214.951605
 30
0.0
 10
71.021332
 20
212.411605
 30
0.0
 10
73.561332
 20
212.411605
 30
0.0
 10
76.101332
 20
212.411605
 30
0.0
 10
76.101883
 20
216.884167
 30
0.0
  0
SPLINE
  5
11f
100
AcDbEntity
  8
Layer_1
 62
1
100
AcDbSpline
 70
8
 71
3
 72
8
 73
4
 74
0
 40
0
 40
0
 40
0
 40
0
 40
1
 40
1
 40
1
 40
1
 10
14.945100
 20
151.553580
 30
0.0
 10
14.392315
 20
151.553580
 30
0.0
 10
13.947400
 20
151.108668
 30
0.0
 10
13.947400
 20
150.555882
 30
0.0
  0
LWPOLYLINE
  5
120
100
AcDbEntity
  8
Layer_1
 62
7
100
AcDbPolyline
 90
2
 70
0
 10
68.073434
 20
221.809275
 30
0.0
 10
68.073434
 20
221.809275
 30
0.0
  0
SPLINE
  5
121
100
AcDbEntity
  8
Layer_1
 62
1
100
AcDbSpline
 70
8
 71
3
 72
8
 73
4
 74
0
 40
0
 40
0
 40
0
 40
0
 40
1
 40
1
 40
1
 40
1
 10
13.947400
 20
132.695954
 30
0.0
 10
13.947400
 20
132.143168
 30
0.0
 10
14.392315
 20
131.698256
 30
0.0
 10
14.945100
 20
131.698256
 30
0.0
  0
LWPOLYLINE
  5
122
100
AcDbEntity
  8
Layer_1
 62
1
100
AcDbPolyline
 90
2
 70
0
 10
13.947400
 20
150.555882
 30
0.0
 10
13.947400
 20
132.695954
 30
0.0
  0
SPLINE
  5
123
100
AcDbEntity
  8
Layer_1
 62
1
100
AcDbSpline
 70
8
 71
3
 72
8
 73
4
 74
0
 40
0
 40
0
 40
0
 40
0
 40
1
 40
1
 40
1
 40
1
 10
67.804992
 20
131.698256
 30
0.0
 10
68.357778
 20
131.698256
 30
0.0
 10
68.802690
 20
132.143168
 30
0.0
 10
68.802690
 20
132.695954
 30
0.0
  0
LWPOLYLINE
  5
124
100
AcDbEntity
  8
Layer_1
 62
1
100
AcDbPolyline
 90
2
 70
0
 10
14.945100
 20
131.698256
 30
0.0
 10
67.804992
 20
131.698256
 30
0.0
  0
SPLINE
  5
125
100
AcDbEntity
  8
Layer_1
 62
1
100
AcDbSpline
 70
8
 71
3
 72
8
 73
4
 74
0
 40
0
 40
0
 40
0
 40
0
 40
1
 40
1
 40
1
 40
1
 10
68.802690
 20
150.555882
 30
0.0
 10
68.802690
 20
151.108668
 30
0.0
 10
68.357778
 20
151.553580
 30
0.0
 10
67.804992
 20
151.553580
 30
0.0
  0
LWPOLYLINE
  5
126
100
AcDbEntity
  8
Layer_1
 62
1
100
AcDbPolyline
 90
2
 70
0
 10
68.802690
 20
132.695954
 30
0.0
 10
68.802690
 20
150.555882
 30
0.0
  0
SPLINE
  5
127
100
AcDbEntity
  8
Layer_1
 62
7
100
AcDbSpline
 70
8
 71
3
 72
8
 73
4
 74
0
 40
0
 40
0
 40
0
 40
0
 40
1
 40
1
 40
1
 40
1
 10
28.498933
 20
150.274210
 30
0.0
 10
27.104368
 20
150.281633
 30
0.0
 10
25.647301
 20
149.972865
 30
0.0
 10
24.368125
 20
149.346515
 30
0.0
  0
SPLINE
  5
128
100
AcDbEntity
  8
Layer_1
 62
7
100
AcDbSpline
 70
8
 71
3
 72
8
 73
4
 74
0
 40
0
 40
0
 40
0
 40
0
 40
1
 40
1
 40
1
 40
1
 10
24.368125
 20
149.346515
 30
0.0
 10
23.258908
 20
148.803387
 30
0.0
 10
21.806597
 20
147.326278
 30
0.0
 10
21.278563
 20
146.202935
 30
0.0
  0
SPLINE
  5
129
100
AcDbEntity
  8
Layer_1
 62
7
100
AcDbSpline
 70
8
 71
3
 72
8
 73
4
 74
0
 40
0
 40
0
 40
0
 40
0
 40
1
 40
1
 40
1
 40
1
 10
21.278563
 20
146.202935
 30
0.0
 10
20.036938
 20
143.561493
 30
0.0
 10
20.084727
 20
139.555574
 30
0.0
 10
21.388255
 20
136.977243
 30
0.0
  0
SPLINE
  5
12a
100
AcDbEntity
  8
Layer_1
 62
7
100
AcDbSpline
 70
8
 71
3
 72
8
 73
4
 74
0
 40
0
 40
0
 40
0
 40
0
 40
1
 40
1
 40
1
 40
1
 10
21.388255
 20
136.977243
 30
0.0
 10
22.481644
 20
134.814560
 30
0.0
 10
24.490288
 20
133.473327
 30
0.0
 10
27.251532
 20
133.061963
 30
0.0
  0
SPLINE
  5
12b
100
AcDbEntity
  8
Layer_1
 62
7
100
AcDbSpline
 70
8
 71
3
 72
8
 73
4
 74
0
 40
0
 40
0
 40
0
 40
0
 40
1
 40
1
 40
1
 40
1
 10
27.251532
 20
133.061963
 30
0.0
 10
28.328674
 20
132.901491
 30
0.0
 10
29.709121
 20
132.972323
 30
0.0
 10
30.777104
 20
133.243313
 30
0.0
  0
SPLINE
  5
12c
100
AcDbEntity
  8
Layer_1
 62
7
100
AcDbSpline
 70
8
 71
3
 72
8
 73
4
 74
0
 40
0
 40
0
 40
0
 40
0
 40
1
 40
1
 40
1
 40
1
 10
30.777104
 20
133.243313
 30
0.0
 10
31.448677
 20
133.413719
 30
0.0
 10
32.624799
 20
134.075115
 30
0.0
 10
32.821011
 20
134.392595
 30
0.0
  0
SPLINE
  5
12d
100
AcDbEntity
  8
Layer_1
 62
7
100
AcDbSpline
 70
8
 71
3
 72
8
 73
4
 74
0
 40
0
 40
0
 40
0
 40
0
 40
1
 40
1
 40
1
 40
1
 10
32.821011
 20
134.392595
 30
0.0
 10
33.046408
 20
134.757300
 30
0.0
 10
33.267921
 20
134.548190
 30
0.0
 10
33.216785
 20
134.018871
 30
0.0
  0
LWPOLYLINE
  5
12e
100
AcDbEntity
  8
Layer_1
 62
1
100
AcDbPolyline
 90
3
 70
0
 10
67.804992
 20
151.553580
 30
0.0
 10
14.945100
 20
151.553580
 30
0.0
 10
14.945100
 20
151.553580
 30
0.0
  0
SPLINE
  5
12f
100
AcDbEntity
  8
Layer_1
 62
7
100
AcDbSpline
 70
8
 71
3
 72
8
 73
4
 74
0
 40
0
 40
0
 40
0
 40
0
 40
1
 40
1
 40
1
 40
1
 10
32.773606
 20
138.876731
 30
0.0
 10
32.745164
 20
138.600359
 30
0.0
 10
32.517142
 20
137.957138
 30
0.0
 10
32.266489
 20
137.446880
 30
0.0
  0
SPLINE
  5
130
100
AcDbEntity
  8
Layer_1
 62
7
100
AcDbSpline
 70
8
 71
3
 72
8
 73
4
 74
0
 40
0
 40
0
 40
0
 40
0
 40
1
 40
1
 40
1
 40
1
 10
32.266489
 20
137.446880
 30
0.0
 10
31.649275
 20
136.190376
 30
0.0
 10
30.663436
 20
135.665378
 30
0.0
 10
28.938251
 20
135.674172
 30
0.0
  0
SPLINE
  5
131
100
AcDbEntity
  8
Layer_1
 62
7
100
AcDbSpline
 70
8
 71
3
 72
8
 73
4
 74
0
 40
0
 40
0
 40
0
 40
0
 40
1
 40
1
 40
1
 40
1
 10
28.938251
 20
135.674172
 30
0.0
 10
27.587348
 20
135.681058
 30
0.0
 10
26.931175
 20
135.950589
 30
0.0
 10
25.919796
 20
136.913302
 30
0.0
  0
SPLINE
  5
132
100
AcDbEntity
  8
Layer_1
 62
7
100
AcDbSpline
 70
8
 71
3
 72
8
 73
4
 74
0
 40
0
 40
0
 40
0
 40
0
 40
1
 40
1
 40
1
 40
1
 10
25.919796
 20
136.913302
 30
0.0
 10
24.715723
 20
138.059444
 30
0.0
 10
24.175896
 20
139.907962
 30
0.0
 10
24.341115
 20
142.317968
 30
0.0
  0
SPLINE
  5
133
100
AcDbEntity
  8
Layer_1
 62
7
100
AcDbSpline
 70
8
 71
3
 72
8
 73
4
 74
0
 40
0
 40
0
 40
0
 40
0
 40
1
 40
1
 40
1
 40
1
 10
24.341115
 20
142.317968
 30
0.0
 10
24.589445
 20
145.940245
 30
0.0
 10
27.115036
 20
148.213997
 30
0.0
 10
30.115645
 20
147.516479
 30
0.0
  0
SPLINE
  5
134
100
AcDbEntity
  8
Layer_1
 62
7
100
AcDbSpline
 70
8
 71
3
 72
8
 73
4
 74
0
 40
0
 40
0
 40
0
 40
0
 40
1
 40
1
 40
1
 40
1
 10
30.115645
 20
147.516479
 30
0.0
 10
31.628681
 20
147.164762
 30
0.0
 10
32.487576
 20
146.314497
 30
0.0
 10
32.900936
 20
144.759853
 30
0.0
  0
LWPOLYLINE
  5
135
100
AcDbEntity
  8
Layer_1
 62
7
100
AcDbPolyline
 90
17
 70
0
 10
33.216785
 20
134.018871
 30
0.0
 10
33.163315
 20
133.420802
 30
0.0
 10
34.728215
 20
133.420802
 30
0.0
 10
36.292564
 20
133.420802
 30
0.0
 10
36.292564
 20
136.422721
 30
0.0
 10
36.292564
 20
139.473699
 30
0.0
 10
37.145846
 20
139.473699
 30
0.0
 10
37.948966
 20
139.473699
 30
0.0
 10
37.948966
 20
140.700152
 30
0.0
 10
37.948966
 20
141.926605
 30
0.0
 10
34.262991
 20
141.926605
 30
0.0
 10
30.626073
 20
141.926605
 30
0.0
 10
30.626073
 20
140.657708
 30
0.0
 10
30.626073
 20
139.389362
 30
0.0
 10
31.725746
 20
139.384401
 30
0.0
 10
32.825422
 20
139.379439
 30
0.0
 10
32.773606
 20
138.876731
 30
0.0
  0
SPLINE
  5
136
100
AcDbEntity
  8
Layer_1
 62
7
100
AcDbSpline
 70
8
 71
3
 72
8
 73
4
 74
0
 40
0
 40
0
 40
0
 40
0
 40
1
 40
1
 40
1
 40
1
 10
33.183711
 20
149.326672
 30
0.0
 10
33.194887
 20
149.024324
 30
0.0
 10
33.181454
 20
148.777109
 30
0.0
 10
33.152842
 20
148.777109
 30
0.0
  0
SPLINE
  5
137
100
AcDbEntity
  8
Layer_1
 62
7
100
AcDbSpline
 70
8
 71
3
 72
8
 73
4
 74
0
 40
0
 40
0
 40
0
 40
0
 40
1
 40
1
 40
1
 40
1
 10
33.152842
 20
148.777109
 30
0.0
 10
33.124583
 20
148.777109
 30
0.0
 10
32.719148
 20
149.014331
 30
0.0
 10
32.252158
 20
149.304622
 30
0.0
  0
SPLINE
  5
138
100
AcDbEntity
  8
Layer_1
 62
7
100
AcDbSpline
 70
8
 71
3
 72
8
 73
4
 74
0
 40
0
 40
0
 40
0
 40
0
 40
1
 40
1
 40
1
 40
1
 10
32.252158
 20
149.304622
 30
0.0
 10
31.224878
 20
149.943217
 30
0.0
 10
29.893497
 20
150.266808
 30
0.0
 10
28.498933
 20
150.274210
 30
0.0
  0
LWPOLYLINE
  5
139
100
AcDbEntity
  8
Layer_1
 62
7
100
AcDbPolyline
 90
9
 70
0
 10
32.900936
 20
144.759853
 30
0.0
 10
33.092209
 20
144.040517
 30
0.0
 10
34.696245
 20
144.040517
 30
0.0
 10
36.254532
 20
144.040517
 30
0.0
 10
36.254532
 20
146.958650
 30
0.0
 10
36.254532
 20
149.876232
 30
0.0
 10
34.685772
 20
149.876232
 30
0.0
 10
33.163315
 20
149.876232
 30
0.0
 10
33.183711
 20
149.326672
 30
0.0
  0
LWPOLYLINE
  5
13a
100
AcDbEntity
  8
Layer_1
 62
7
100
AcDbPolyline
 90
2
 70
0
 10
28.498933
 20
150.274210
 30
0.0
 10
28.498933
 20
150.274210
 30
0.0
  0
SPLINE
  5
13b
100
AcDbEntity
  8
Layer_1
 62
7
100
AcDbSpline
 70
8
 71
3
 72
8
 73
4
 74
0
 40
0
 40
0
 40
0
 40
0
 40
1
 40
1
 40
1
 40
1
 10
54.462827
 20
134.841286
 30
0.0
 10
54.456821
 20
134.725042
 30
0.0
 10
54.454623
 20
134.731008
 30
0.0
 10
54.452904
 20
134.745373
 30
0.0
  0
SPLINE
  5
13c
100
AcDbEntity
  8
Layer_1
 62
7
100
AcDbSpline
 70
8
 71
3
 72
8
 73
4
 74
0
 40
0
 40
0
 40
0
 40
0
 40
1
 40
1
 40
1
 40
1
 10
54.452904
 20
134.745373
 30
0.0
 10
54.456595
 20
134.730771
 30
0.0
 10
54.462827
 20
134.557373
 30
0.0
 10
54.462827
 20
133.426867
 30
0.0
  0
LWPOLYLINE
  5
13d
100
AcDbEntity
  8
Layer_1
 62
7
100
AcDbPolyline
 90
12
 70
0
 10
62.370008
 20
149.946237
 30
0.0
 10
58.408423
 20
149.911510
 30
0.0
 10
54.462827
 20
149.876232
 30
0.0
 10
54.462827
 20
148.692222
 30
0.0
 10
54.462827
 20
147.458050
 30
0.0
 10
55.533284
 20
147.458050
 30
0.0
 10
56.590517
 20
147.458050
 30
0.0
 10
56.590517
 20
141.672495
 30
0.0
 10
56.590517
 20
135.887492
 30
0.0
 10
55.533284
 20
135.887492
 30
0.0
 10
54.450147
 20
135.887492
 30
0.0
 10
54.462827
 20
134.841286
 30
0.0
  0
SPLINE
  5
13e
100
AcDbEntity
  8
Layer_1
 62
7
100
AcDbSpline
 70
8
 71
3
 72
8
 73
4
 74
0
 40
0
 40
0
 40
0
 40
0
 40
1
 40
1
 40
1
 40
1
 10
62.370008
 20
148.142659
 30
0.0
 10
62.361936
 20
148.491523
 30
0.0
 10
62.377769
 20
149.039799
 30
0.0
 10
62.370008
 20
149.361397
 30
0.0
  0
LWPOLYLINE
  5
13f
100
AcDbEntity
  8
Layer_1
 62
7
100
AcDbPolyline
 90
12
 70
0
 10
54.462827
 20
133.426867
 30
0.0
 10
58.489452
 20
133.426867
 30
0.0
 10
62.370008
 20
133.426867
 30
0.0
 10
62.370008
 20
134.653320
 30
0.0
 10
62.370008
 20
135.887492
 30
0.0
 10
61.340890
 20
135.887492
 30
0.0
 10
60.311769
 20
135.887492
 30
0.0
 10
60.311769
 20
141.672495
 30
0.0
 10
60.311769
 20
147.458050
 30
0.0
 10
61.355221
 20
147.458050
 30
0.0
 10
62.370008
 20
147.458050
 30
0.0
 10
62.370008
 20
148.142659
 30
0.0
  0
SPLINE
  5
140
100
AcDbEntity
  8
Layer_1
 62
7
100
AcDbSpline
 70
8
 71
3
 72
8
 73
4
 74
0
 40
0
 40
0
 40
0
 40
0
 40
1
 40
1
 40
1
 40
1
 10
54.452904
 20
134.745373
 30
0.0
 10
54.450395
 20
134.755299
 30
0.0
 10
54.450321
 20
134.766952
 30
0.0
 10
54.452904
 20
134.745373
 30
0.0
  0
LWPOLYLINE
  5
141
100
AcDbEntity
  8
Layer_1
 62
7
100
AcDbPolyline
 90
3
 70
0
 10
62.370008
 20
149.361397
 30
0.0
 10
62.370008
 20
149.946237
 30
0.0
 10
62.370008
 20
149.946237
 30
0.0
  0
LWPOLYLINE
  5
142
100
AcDbEntity
  8
Layer_1
 62
7
100
AcDbPolyline
 90
2
 70
0
 10
54.452904
 20
134.745373
 30
0.0
 10
54.452904
 20
134.745373
 30
0.0
  0
SPLINE
  5
143
100
AcDbEntity
  8
Layer_1
 62
7
100
AcDbSpline
 70
8
 71
3
 72
8
 73
4
 74
0
 40
0
 40
0
 40
0
 40
0
 40
1
 40
1
 40
1
 40
1
 10
47.951870
 20
137.909349
 30
0.0
 10
47.925651
 20
139.002458
 30
0.0
 10
47.925002
 20
141.593405
 30
0.0
 10
47.951870
 20
143.667343
 30
0.0
  0
LWPOLYLINE
  5
144
100
AcDbEntity
  8
Layer_1
 62
7
100
AcDbPolyline
 90
22
 70
0
 10
38.698619
 20
149.868516
 30
0.0
 10
38.698619
 20
147.042986
 30
0.0
 10
38.698619
 20
144.252184
 30
0.0
 10
40.179185
 20
144.252184
 30
0.0
 10
41.705499
 20
144.252184
 30
0.0
 10
41.705499
 20
145.817083
 30
0.0
 10
41.705499
 20
147.388598
 30
0.0
 10
42.973845
 20
147.388598
 30
0.0
 10
44.242742
 20
147.388598
 30
0.0
 10
44.242742
 20
141.673048
 30
0.0
 10
44.242742
 20
135.887492
 30
0.0
 10
43.058732
 20
135.887492
 30
0.0
 10
41.874722
 20
135.887492
 30
0.0
 10
41.874722
 20
134.653320
 30
0.0
 10
41.874722
 20
133.426867
 30
0.0
 10
46.018758
 20
133.426867
 30
0.0
 10
50.162796
 20
133.426867
 30
0.0
 10
50.162796
 20
134.653320
 30
0.0
 10
50.162796
 20
135.887492
 30
0.0
 10
49.068632
 20
135.887492
 30
0.0
 10
47.951870
 20
135.887492
 30
0.0
 10
47.951870
 20
137.909349
 30
0.0
  0
SPLINE
  5
145
100
AcDbEntity
  8
Layer_1
 62
7
100
AcDbSpline
 70
8
 71
3
 72
8
 73
4
 74
0
 40
0
 40
0
 40
0
 40
0
 40
1
 40
1
 40
1
 40
1
 10
53.473945
 20
149.868516
 30
0.0
 10
48.636795
 20
149.868516
 30
0.0
 10
51.250565
 20
149.861884
 30
0.0
 10
48.650260
 20
149.868516
 30
0.0
  0
SPLINE
  5
146
100
AcDbEntity
  8
Layer_1
 62
7
100
AcDbSpline
 70
8
 71
3
 72
8
 73
4
 74
0
 40
0
 40
0
 40
0
 40
0
 40
1
 40
1
 40
1
 40
1
 10
48.650260
 20
149.868516
 30
0.0
 10
45.814228
 20
149.868516
 30
0.0
 10
46.608373
 20
149.875035
 30
0.0
 10
45.814257
 20
149.868516
 30
0.0
  0
LWPOLYLINE
  5
147
100
AcDbEntity
  8
Layer_1
 62
7
100
AcDbPolyline
 90
10
 70
0
 10
47.951870
 20
143.667343
 30
0.0
 10
47.951870
 20
147.388598
 30
0.0
 10
49.184938
 20
147.388598
 30
0.0
 10
50.393202
 20
147.388598
 30
0.0
 10
50.404779
 20
145.817083
 30
0.0
 10
50.416353
 20
144.252184
 30
0.0
 10
51.938812
 20
144.252184
 30
0.0
 10
53.473945
 20
144.252184
 30
0.0
 10
53.473945
 20
146.975188
 30
0.0
 10
53.473945
 20
149.868516
 30
0.0
  0
LWPOLYLINE
  5
148
100
AcDbEntity
  8
Layer_1
 62
7
100
AcDbPolyline
 90
3
 70
0
 10
45.814257
 20
149.868516
 30
0.0
 10
38.698619
 20
149.868516
 30
0.0
 10
38.698619
 20
149.868516
 30
0.0
  0
ENDSEC
  0
SECTION
  2
OBJECTS
  0
DICTIONARY
  5
C
330
0
100
AcDbDictionary
  3
ACAD_GROUP
350
D
  3
ACAD_MLINESTYLE
350
17
  0
DICTIONARY
  5
D
330
C
100
AcDbDictionary
  0
DICTIONARY
  5
1A
330
C
100
AcDbDictionary
  0
DICTIONARY
  5
17
330
C
100
AcDbDictionary
  3
STANDARD
350
18
  0
DICTIONARY
  5
19
330
C
100
AcDbDictionary
  0
ENDSEC
  0
EOF
