<?xml version="1.0" encoding="UTF-8" standalone="no"?>
<!-- Created with Inkscape (http://www.inkscape.org/) -->

<svg
   xmlns:dc="http://purl.org/dc/elements/1.1/"
   xmlns:cc="http://creativecommons.org/ns#"
   xmlns:rdf="http://www.w3.org/1999/02/22-rdf-syntax-ns#"
   xmlns:svg="http://www.w3.org/2000/svg"
   xmlns="http://www.w3.org/2000/svg"
   xmlns:sodipodi="http://sodipodi.sourceforge.net/DTD/sodipodi-0.dtd"
   xmlns:inkscape="http://www.inkscape.org/namespaces/inkscape"
   width="210mm"
   height="297mm"
   viewBox="0 0 744.09448819 1052.3622047"
   id="svg2"
   version="1.1"
   inkscape:version="0.91 r13725"
   sodipodi:docname="GTI.svg">
  <defs
     id="defs4" />
  <sodipodi:namedview
     id="base"
     pagecolor="#ffffff"
     bordercolor="#666666"
     borderopacity="1.0"
     inkscape:pageopacity="0.0"
     inkscape:pageshadow="2"
     inkscape:zoom="0.7"
     inkscape:cx="376.67985"
     inkscape:cy="755.86637"
     inkscape:document-units="mm"
     inkscape:current-layer="layer1"
     showgrid="false"
     inkscape:window-width="1440"
     inkscape:window-height="837"
     inkscape:window-x="-4"
     inkscape:window-y="-4"
     inkscape:window-maximized="1" />
  <metadata
     id="metadata7">
    <rdf:RDF>
      <cc:Work
         rdf:about="">
        <dc:format>image/svg+xml</dc:format>
        <dc:type
           rdf:resource="http://purl.org/dc/dcmitype/StillImage" />
        <dc:title></dc:title>
      </cc:Work>
    </rdf:RDF>
  </metadata>
  <g
     inkscape:label="Layer 1"
     inkscape:groupmode="layer"
     id="layer1">
    <path
       style="fill:#000000"
       d="M 122.07422 264.36914 C 113.82953 264.32538 105.21292 266.15051 97.650391 269.85352 C 91.092661 273.06453 82.508469 281.80017 79.386719 288.44141 C 72.046189 304.0577 72.328656 327.73923 80.035156 342.98242 C 86.499306 355.76827 98.372708 363.69886 114.69727 366.13086 C 121.06537 367.07957 129.22709 366.65873 135.54102 365.05664 C 139.51138 364.04921 146.46498 360.14062 147.625 358.26367 C 148.95756 356.10753 150.26715 357.34332 149.96484 360.47266 L 149.65039 363.72266 L 158.90039 364.00977 L 168.15039 364.29688 L 168.15039 346.25977 L 168.15039 328.22266 L 173.19531 328.22266 L 178.23828 328.22266 L 177.94531 320.97266 L 177.65039 313.72266 L 156.15039 313.72266 L 134.65039 313.72266 L 134.65039 321.22266 L 134.65039 328.72266 L 141.15039 328.75195 L 147.65039 328.78125 L 147.3457 331.75195 C 147.17755 333.38587 145.82755 337.19035 144.3457 340.20703 C 140.6967 347.63552 134.87124 350.73755 124.67188 350.68555 C 116.68532 350.6448 112.80548 349.05294 106.82617 343.36133 C 99.707654 336.58532 96.515407 325.65622 97.492188 311.4082 C 98.960318 289.99317 113.89116 276.55205 131.63086 280.67578 C 140.57598 282.75515 145.65386 287.78156 148.09766 296.97266 L 149.22852 301.22266 L 158.71289 301.22266 L 168.19727 301.22266 L 167.92383 283.97266 L 167.65039 266.72266 L 158.65039 266.72266 L 149.65039 266.72266 L 149.77148 269.97266 C 149.83761 271.76016 149.75497 273.22266 149.58789 273.22266 C 149.4208 273.22266 147.02451 271.81779 144.26367 270.10156 C 138.19034 266.32618 130.31891 264.41291 122.07422 264.36914 z M 322.15039 266.30859 L 298.90039 266.51562 L 275.65039 266.72266 L 275.65039 273.72266 L 275.65039 280.72266 L 281.90039 281.01953 L 288.15039 281.31836 L 288.15039 315.22266 L 288.15039 349.12695 L 281.90039 349.42383 L 275.65039 349.72266 L 275.34766 355.60938 C 275.18045 358.84778 275.28092 362.11965 275.57227 362.87891 C 276.00592 364.00898 280.32422 364.21002 299.37695 363.99023 L 322.65039 363.72266 L 322.48633 356.72266 L 322.32031 349.72266 L 316.23633 349.42383 L 310.15039 349.12695 L 310.15039 315.22266 L 310.15039 281.31836 L 316.32031 281.01953 L 322.49219 280.72266 L 322.4043 276.97266 C 322.3565 274.91016 322.28017 271.6669 322.23438 269.76562 L 322.15039 266.30859 z M 241.20508 266.42383 C 236.08071 266.41076 230.42917 266.42123 224.44141 266.45898 L 182.65039 266.72266 L 182.37695 283.47266 L 182.10156 300.22266 L 191.12695 300.22266 L 200.15039 300.22266 L 200.15039 290.72266 L 200.15039 281.22266 L 207.65039 281.22266 L 215.15039 281.22266 L 215.15039 315.22266 L 215.15039 349.22266 L 208.15039 349.22266 L 201.15039 349.22266 L 201.15039 356.72266 L 201.15039 364.22266 L 225.65039 364.22266 L 250.15039 364.22266 L 250.15039 356.72266 L 250.15039 349.22266 L 243.68164 349.22266 L 237.21484 349.22266 L 236.93164 337.47266 C 236.77669 331.01016 236.7798 315.69088 236.9375 303.42969 L 237.22461 281.13672 L 244.36914 281.42969 L 251.51367 281.72266 L 251.58203 290.72266 L 251.65039 299.72266 L 260.65039 299.72266 L 269.65039 299.72266 L 269.65234 283.875 C 269.65375 269.94159 269.44776 267.91646 267.94336 267.11133 C 267.20786 266.7177 256.57818 266.46303 241.20508 266.42383 z "
       id="path4168" />
  </g>
</svg>
