<?xml version="1.0" encoding="UTF-8" standalone="no"?>
<!-- Created with Inkscape (http://www.inkscape.org/) -->

<svg
   xmlns:dc="http://purl.org/dc/elements/1.1/"
   xmlns:cc="http://creativecommons.org/ns#"
   xmlns:rdf="http://www.w3.org/1999/02/22-rdf-syntax-ns#"
   xmlns:svg="http://www.w3.org/2000/svg"
   xmlns="http://www.w3.org/2000/svg"
   xmlns:sodipodi="http://sodipodi.sourceforge.net/DTD/sodipodi-0.dtd"
   xmlns:inkscape="http://www.inkscape.org/namespaces/inkscape"
   width="1360"
   height="768"
   viewBox="0 0 1360 768.00001"
   id="svg2"
   version="1.1"
   inkscape:version="0.91 r13725"
   sodipodi:docname="GTI_wall.svg"
   inkscape:export-filename="C:\Users\garaj\Desktop\wall_gti.png"
   inkscape:export-xdpi="300"
   inkscape:export-ydpi="300">
  <defs
     id="defs4" />
  <sodipodi:namedview
     id="base"
     pagecolor="#ffffff"
     bordercolor="#666666"
     borderopacity="1.0"
     inkscape:pageopacity="0.0"
     inkscape:pageshadow="2"
     inkscape:zoom="0.35"
     inkscape:cx="620.15945"
     inkscape:cy="511.91434"
     inkscape:document-units="mm"
     inkscape:current-layer="layer1"
     showgrid="false"
     inkscape:window-width="1440"
     inkscape:window-height="837"
     inkscape:window-x="-4"
     inkscape:window-y="-4"
     inkscape:window-maximized="1"
     units="px" />
  <metadata
     id="metadata7">
    <rdf:RDF>
      <cc:Work
         rdf:about="">
        <dc:format>image/svg+xml</dc:format>
        <dc:type
           rdf:resource="http://purl.org/dc/dcmitype/StillImage" />
        <dc:title></dc:title>
      </cc:Work>
    </rdf:RDF>
  </metadata>
  <g
     inkscape:label="Layer 1"
     inkscape:groupmode="layer"
     id="layer1"
     transform="translate(0,-284.36216)">
    <g
       id="g4189"
       transform="matrix(1.5717779,0,0,1.5717779,843.31762,10.669202)">
      <path
         inkscape:connector-curvature="0"
         id="rect4178"
         d="m 52.955078,515.36133 c -1.958686,0 -3.535156,1.57646 -3.535156,3.53515 l 0,63.28321 c 0,1.95869 1.57647,3.53515 3.535156,3.53515 l 187.298832,0 c 1.95869,0 3.53515,-1.57646 3.53515,-3.53515 l 0,-63.28321 c 0,-1.95869 -1.57646,-3.53515 -3.53515,-3.53515 l -187.298832,0 z"
         style="fill:#ff0000;stroke:#ff0000;stroke-width:0.5117408;stroke-linejoin:round;stroke-miterlimit:4;stroke-dasharray:none" />
      <path
         inkscape:connector-curvature="0"
         id="path4180"
         d="m 100.98047,519.89453 c -4.941371,-0.0263 -10.104207,1.06776 -14.63672,3.28711 -3.930297,1.92447 -9.076282,7.15832 -10.947266,11.13867 -4.399459,9.35944 -4.230128,23.55364 0.388672,32.68946 3.874212,7.66305 10.991456,12.41545 20.775391,13.87304 3.816643,0.5686 8.707993,0.31762 12.492183,-0.64258 2.37959,-0.6038 6.54695,-2.94733 7.24219,-4.07226 0.79865,-1.29226 1.58354,-0.55132 1.40235,1.32422 l -0.18946,2.11914 5.54492,0 5.54297,0 0,-10.63672 0,-10.81055 3.02344,0 2.8457,0 0,-4.3457 0,-4.3457 -13.06054,0 -12.88672,0 0,4.49609 0,4.49414 3.89648,0.0176 3.89649,0.0176 -0.1836,1.78125 c -0.10078,0.97927 -0.90873,3.2584 -1.79687,5.0664 -2.18698,4.45218 -5.68011,6.31241 -11.79297,6.28125 -4.786663,-0.0244 -7.111686,-0.97943 -10.695313,-4.39062 -4.266401,-4.06113 -6.179172,-10.611 -5.59375,-19.15039 0.879906,-12.83484 9.828851,-20.89144 20.460933,-18.41992 5.36115,1.24624 8.40448,4.25899 9.86914,9.76757 l 0.67774,2.54883 5.68359,0 5.52149,0 0,-10.33984 0,-10.33789 -5.5586,0 -5.39453,0 0.0723,1.94726 c 0.0396,1.07131 -0.008,1.94727 -0.10938,1.94727 -0.10013,0 -1.53671,-0.84055 -3.1914,-1.86914 -3.63997,-2.26274 -8.35746,-3.40932 -13.29883,-3.43555 z m 120.01562,1.16211 -14.03711,0.12305 -13.98046,0.125 0,4.19531 0,4.37305 3.79296,0 3.7461,0 0,20.5 0,20.49804 -3.7461,0 -3.83789,0 0.0449,3.70703 c -0.0213,0.41189 -0.0291,0.39075 -0.0352,0.33985 0.0131,0.0517 0.0352,0.66614 0.0352,4.67187 l 14.26757,0 13.75,0 0,-4.3457 0,-4.37305 -3.64648,0 -3.64649,0 0,-20.49804 0,-20.5 3.69727,0 3.5957,0 0,-2.42578 c -0.0286,-1.23613 0.0275,-3.17884 0,-4.31836 l 0,-2.07227 z m -28.05273,53.86133 c -0.009,-0.0352 -0.009,-0.0765 0,0 z m -55.82227,-53.58594 0,10.01172 0,9.88867 5.2461,0 5.4082,0 0,-5.54492 0,-5.56836 4.49414,0 4.49609,0 0,20.25195 0,20.5 -4.19531,0 -4.19531,0 0,4.37305 0,4.3457 14.68359,0 14.6836,0 0,-4.3457 0,-4.37305 -3.87696,0 -3.95703,0 0,-7.16406 c -0.0929,-3.87322 -0.0952,-13.05374 0,-20.40234 l 0,-13.18555 4.36914,0 4.28125,0 0.041,5.56836 0.041,5.54492 5.39454,0 5.43945,0 0,-9.64844 0,-10.25195 c -17.13951,0 -7.87812,0.0235 -17.0918,0 -10.04893,0 -7.23503,-0.0231 -10.04883,0 l -25.21289,0 z"
         style="fill:#000000" />
    </g>
  </g>
</svg>
