<?xml version="1.0" encoding="UTF-8" standalone="no"?>
<!-- Created with Inkscape (http://www.inkscape.org/) -->

<svg
   xmlns:dc="http://purl.org/dc/elements/1.1/"
   xmlns:cc="http://creativecommons.org/ns#"
   xmlns:rdf="http://www.w3.org/1999/02/22-rdf-syntax-ns#"
   xmlns:svg="http://www.w3.org/2000/svg"
   xmlns="http://www.w3.org/2000/svg"
   xmlns:sodipodi="http://sodipodi.sourceforge.net/DTD/sodipodi-0.dtd"
   xmlns:inkscape="http://www.inkscape.org/namespaces/inkscape"
   width="210mm"
   height="297mm"
   viewBox="0 0 744.09448819 1052.3622047"
   id="svg2"
   version="1.1"
   inkscape:version="0.91 r13725"
   sodipodi:docname="inimioara_30.svg">
  <defs
     id="defs4" />
  <sodipodi:namedview
     id="base"
     pagecolor="#ffffff"
     bordercolor="#666666"
     borderopacity="1.0"
     inkscape:pageopacity="0.0"
     inkscape:pageshadow="2"
     inkscape:zoom="2.8"
     inkscape:cx="119.02513"
     inkscape:cy="386.86349"
     inkscape:document-units="mm"
     inkscape:current-layer="layer1"
     showgrid="false"
     inkscape:window-width="1440"
     inkscape:window-height="837"
     inkscape:window-x="-4"
     inkscape:window-y="-4"
     inkscape:window-maximized="1" />
  <metadata
     id="metadata7">
    <rdf:RDF>
      <cc:Work
         rdf:about="">
        <dc:format>image/svg+xml</dc:format>
        <dc:type
           rdf:resource="http://purl.org/dc/dcmitype/StillImage" />
        <dc:title></dc:title>
      </cc:Work>
    </rdf:RDF>
  </metadata>
  <g
     inkscape:label="Layer 1"
     inkscape:groupmode="layer"
     id="layer1">
    <path
       style="fill:none;stroke:#ff0000"
       d="M 131.14453 635.66211 C 128.2023 635.66352 127.58648 635.71564 125.625 636.125 C 118.34767 637.64374 112.45115 641.20192 107.89062 646.82812 C 102.90468 652.97915 100.40825 661.70613 101.50195 669.16016 C 102.69302 677.27772 105.60777 683.60776 111.56641 691.02148 C 116.32016 696.93608 124.028 704.46493 131.39844 710.39258 C 132.05226 710.91842 133.23776 711.88777 134.0332 712.54492 C 135.43885 713.7062 139.53852 716.85817 140.79492 717.74414 C 141.13742 717.98565 142.06739 718.65607 142.86133 719.23438 C 146.12404 721.61092 148.24055 723.09648 151.11914 725.0293 C 152.78832 726.15006 154.25784 727.06836 154.38477 727.06836 C 154.63642 727.06973 156.55486 725.85632 159.54492 723.80469 C 161.53378 722.44006 161.91256 722.17271 164.19336 720.51367 C 164.95061 719.96284 166.16068 719.09185 166.88281 718.57812 C 168.73086 717.26341 171.41615 715.21692 173.89648 713.23047 C 175.06274 712.29643 176.49859 711.14866 177.08789 710.68164 C 178.40492 709.63789 181.90259 706.68561 182.93945 705.74219 C 196.84163 693.09301 203.35327 684.44821 206.01758 675.10352 C 207.80618 668.83023 208.00223 664.35863 206.73242 658.71484 C 205.82615 654.68685 203.63328 650.1531 201.06641 646.99805 C 196.33803 641.1862 190.54104 637.65789 183.19531 636.12305 C 181.20989 635.7082 180.64629 635.66197 177.5918 635.66797 C 174.63171 635.67341 173.91938 635.73141 172.04883 636.11133 C 168.36911 636.8587 166.13743 637.66753 162.98633 639.39453 C 160.44861 640.78536 157.19143 643.30683 155.72461 645.01758 C 154.55693 646.37944 154.5257 646.40029 154.14453 646.07812 C 153.96339 645.92502 153.47273 645.4229 153.05469 644.96094 C 151.15156 642.85787 147.99015 640.49401 145.06836 638.99023 C 142.07457 637.44939 140.23576 636.81608 136.70898 636.11133 C 134.72993 635.71584 134.05189 635.66111 131.14453 635.66211 z "
       id="path4144" />
    <path
       style="fill:none;stroke:#ff0000;stroke-width:0.35007027;stroke-linejoin:round;stroke-miterlimit:4;stroke-dasharray:none"
       d="M 124.56445 642.55664 A 3.3682721 3.3682721 0 0 0 121.19531 645.92578 A 3.3682721 3.3682721 0 0 0 124.56445 649.29297 A 3.3682721 3.3682721 0 0 0 127.93164 645.92578 A 3.3682721 3.3682721 0 0 0 124.56445 642.55664 z "
       id="path4146" />
    <path
       style="font-style:normal;font-variant:normal;font-weight:normal;font-stretch:normal;font-size:medium;line-height:125%;font-family:Andalus;-inkscape-font-specification:Andalus;letter-spacing:0px;word-spacing:0px;fill:#000000;fill-opacity:1;stroke:none;stroke-width:1px;stroke-linecap:butt;stroke-linejoin:miter;stroke-opacity:1"
       d="M 170.5293 643.02344 C 170.09998 642.99754 169.62757 643.22869 169.11328 643.71875 C 168.03699 644.74434 167.27379 646.24109 166.82227 648.20898 L 168.64062 650.11719 L 169.17383 649.61133 C 168.61628 648.88822 168.26483 648.10968 168.11914 647.27734 C 167.9517 646.27356 168.16846 645.48691 168.76758 644.91602 C 169.06978 644.62802 169.39626 644.49285 169.74805 644.51172 C 170.10513 644.52552 170.42687 644.68412 170.71484 644.98633 L 171.625 645.93945 C 169.94522 650.07924 169.65369 652.72449 170.75 653.875 C 171.15417 654.29917 171.638 654.54136 172.20117 654.60156 C 172.79011 654.66757 173.29404 654.50068 173.71289 654.10156 C 174.43925 653.40942 174.81657 651.8164 174.8457 649.32031 L 175.9668 650.49609 C 176.4518 651.00508 176.92294 651.04386 177.37891 650.60938 C 177.88788 650.12436 178.16757 649.10284 178.2207 647.54492 L 177.75195 647.05078 C 177.68125 648.04883 177.5402 648.64948 177.32812 648.85156 C 177.11074 649.05868 176.88751 649.04327 176.66016 648.80469 L 171.92383 643.83398 C 171.42872 643.31442 170.96392 643.0443 170.5293 643.02344 z M 172.32617 646.5 C 173.14917 647.38493 173.7304 648.29767 174.07031 649.23828 C 174.51132 650.49731 174.34942 651.49124 173.58594 652.21875 C 173.25722 652.53218 172.89761 652.68879 172.50391 652.68945 C 172.1155 652.68526 171.76441 652.52013 171.45117 652.19141 C 170.83986 651.54987 170.69976 650.58389 171.03125 649.29688 C 171.28277 648.31874 171.71426 647.38657 172.32617 646.5 z M 163.26562 650.24414 C 162.54019 650.32085 161.88343 650.63843 161.29492 651.19922 C 160.27164 652.17429 159.84003 653.46654 159.99805 655.07617 C 160.14845 656.57165 160.72428 657.84474 161.72461 658.89453 C 162.56327 659.77465 163.58674 660.29711 164.79492 660.46094 C 166.09578 660.64772 167.17429 660.33213 168.0332 659.51367 C 169.15721 658.44262 169.60337 656.60141 169.37109 653.99023 L 168.87109 653.46484 C 168.96785 655.46667 168.56037 656.90251 167.64844 657.77148 C 166.83724 658.54446 165.84755 658.80565 164.67773 658.55469 C 163.64707 658.33298 162.72632 657.79753 161.91797 656.94922 C 161.82703 656.85378 161.68841 656.69731 161.50195 656.48047 L 166.63281 651.5918 C 165.83837 650.81117 164.96596 650.36422 164.01562 650.24805 C 163.7586 650.21983 163.50744 650.21857 163.26562 650.24414 z M 162.625 651.54688 C 162.79205 651.53374 162.9651 651.53875 163.14453 651.5625 C 163.76906 651.65529 164.3705 651.94699 164.94922 652.4375 L 161.19531 656.01562 C 160.76961 655.40964 160.54922 654.75365 160.53516 654.04883 C 160.52258 653.28188 160.77282 652.65217 161.28711 652.16211 C 161.6768 651.79078 162.12385 651.58627 162.625 651.54688 z M 157.24219 655.28906 C 156.92251 655.44194 156.67497 655.60281 156.5 655.76953 C 155.64639 656.58293 155.53427 658.32285 156.16406 660.99023 L 153.70117 658.40625 L 153.35156 658.74023 L 152.07031 661.58398 L 152.43359 661.96484 C 152.65116 661.53497 152.83145 661.25165 152.97461 661.11523 C 153.31923 660.78685 153.71556 660.8557 154.16016 661.32227 L 158.0918 665.45117 C 158.51617 665.89653 158.72553 666.29972 158.7168 666.66211 C 158.70802 667.02447 158.486 667.4224 158.05078 667.85742 L 158.41406 668.24023 L 162.54883 664.29883 L 162.18555 663.91797 C 161.5016 664.5697 160.94977 664.91275 160.5293 664.94922 C 160.05706 664.98445 159.50457 664.67055 158.87305 664.00781 C 158.06975 663.16481 157.39842 662.14723 156.85742 660.95312 C 156.13881 659.39213 156.12074 658.28454 156.80469 657.63281 C 157.35633 657.10716 158.09221 657.32252 159.01172 658.27734 L 159.57617 657.74023 L 157.24219 655.28906 z M 146.30469 658.36719 L 144.55469 662.03906 L 144.9707 662.47656 C 145.14032 662.10252 145.31583 661.82998 145.49609 661.6582 C 145.84073 661.32981 146.22682 661.39114 146.65625 661.8418 L 148.69531 663.98047 C 147.80192 664.29563 147.12784 664.67099 146.67188 665.10547 C 145.6221 666.1058 145.18119 667.51759 145.34961 669.33984 C 145.51043 671.04796 146.10332 672.43933 147.12891 673.51562 C 147.86652 674.2897 148.70892 674.79668 149.65625 675.03711 C 150.75284 675.31738 151.66677 675.10931 152.39844 674.41211 C 153.00286 673.83616 153.33294 672.93005 153.38867 671.69336 C 153.41151 671.17591 153.35174 670.18488 153.21094 668.7207 L 155.66016 671.28906 L 156.0332 670.93359 L 157.30273 668.20508 L 156.91602 667.79883 C 156.77797 668.15292 156.62474 668.41256 156.45508 668.57422 C 156.07864 668.93293 155.68105 668.89123 155.26172 668.45117 L 146.78906 659.56055 C 146.53141 659.29015 146.47314 659.00073 146.61523 658.69336 L 146.30469 658.36719 z M 149.70312 665.03906 C 150.03452 665.25943 150.3713 665.54962 150.71484 665.91016 C 151.5434 666.77967 152.15935 667.87571 152.5625 669.20117 C 153.03719 670.78218 152.88486 671.94483 152.10547 672.6875 C 151.51696 673.24829 150.75303 673.37595 149.8125 673.06836 C 149.03133 672.81123 148.33672 672.36279 147.73047 671.72656 C 146.95749 670.91536 146.42501 670.01733 146.13281 669.03125 C 145.77363 667.81564 145.96225 666.85655 146.69922 666.1543 C 147.38317 665.50257 148.38515 665.13159 149.70312 665.03906 z M 140.5 671.43359 C 140.13582 671.47191 139.78523 671.65052 139.44922 671.9707 C 138.87131 672.52139 138.54951 673.43503 138.48242 674.71289 C 138.44474 675.41647 138.50305 676.41804 138.6582 677.7168 L 136.16602 675.09961 L 135.83203 675.41797 L 134.56641 678.23242 L 134.94531 678.62891 C 135.14773 678.18312 135.31415 677.90055 135.44141 677.7793 C 135.79133 677.44586 136.21468 677.54151 136.71484 678.06641 L 140.58789 682.13086 C 141.01216 682.57622 141.22208 682.97664 141.21875 683.33398 C 141.21528 683.69128 140.99773 684.08841 140.5625 684.52344 L 140.92578 684.9043 L 144.54297 681.45703 L 144.17969 681.07422 C 143.63939 681.56883 143.1574 681.7794 142.73438 681.70703 C 142.38358 681.64676 141.94178 681.33739 141.40625 680.77539 C 140.50697 679.83164 139.81181 678.66246 139.32227 677.26758 C 138.72658 675.54897 138.84533 674.29123 139.67773 673.49805 C 140.19202 673.00799 140.73932 673.06802 141.32031 673.67773 L 146.00391 678.59375 C 146.24131 678.8429 146.25356 679.07795 146.04102 679.30078 L 146.4043 679.68359 L 149.17188 677.04492 L 148.80859 676.66406 C 148.35312 677.07783 147.94442 677.28022 147.58203 677.27148 C 147.22493 677.25769 146.83454 677.02739 146.41016 676.58203 L 142.43945 672.41602 C 141.75425 671.69694 141.10696 671.36973 140.5 671.43359 z M 192.17383 671.48828 C 190.9637 671.41259 189.84375 671.86126 188.81641 672.83203 C 187.7092 673.87826 187.17688 675.21653 187.21875 676.84961 C 187.26236 678.42058 187.81563 679.76747 188.87695 680.89062 C 189.84773 681.91796 190.91503 682.47845 192.07812 682.56836 C 193.29299 682.65973 194.40908 682.22439 195.42578 681.26367 C 196.55426 680.19733 197.10211 678.85292 197.07031 677.23047 C 197.04239 675.65478 196.49047 674.29733 195.41406 673.1582 C 194.43825 672.12554 193.35791 671.56843 192.17383 671.48828 z M 158.01953 672.49414 C 157.85084 672.49256 157.67496 672.51051 157.49219 672.55078 C 156.88195 672.68804 156.30467 673.02831 155.75977 673.57031 C 154.86977 674.45559 154.2587 675.44682 153.92969 676.54492 C 153.52762 677.8723 153.73012 678.94261 154.53711 679.75391 C 155.23568 680.45622 156.53698 681.10257 158.4375 681.69336 C 157.951 685.24867 158.31297 687.63462 159.52344 688.85156 C 160.19793 689.52968 161.01642 689.89445 161.98242 689.94531 C 162.98462 690.00837 163.82033 689.70931 164.48633 689.04688 C 165.12204 688.41453 165.47324 687.47793 165.54297 686.24023 C 165.58093 685.58819 165.52061 684.55971 165.36133 683.15234 C 168.39171 683.48649 170.2641 683.29851 170.97852 682.58789 C 171.60212 681.9676 171.47374 680.22214 170.59375 677.35156 L 170.0332 677.54883 C 170.40325 679.09565 170.40077 680.05631 170.02539 680.42969 C 169.47444 680.97771 167.77105 681.03949 164.91602 680.61523 C 164.12136 677.44296 164.47506 675.10875 165.97656 673.61523 L 165.51562 673.15234 L 162.26367 676.38672 C 163.25647 677.71177 163.90483 679.08958 164.20898 680.52148 C 163.13473 680.30123 161.47906 679.92582 159.24023 679.39453 C 159.32616 678.87545 159.45026 678.25169 159.61523 677.52148 C 159.86575 676.4292 160.00222 675.66145 160.02148 675.2207 C 160.06023 674.27881 159.83546 673.56267 159.34766 673.07227 C 158.96825 672.69084 158.52561 672.49889 158.01953 672.49414 z M 191.04492 673.24609 C 191.68151 673.234 192.33124 673.35758 192.99219 673.61719 C 193.83766 673.94678 194.56047 674.43155 195.16406 675.07031 C 195.82802 675.77295 196.22588 676.54569 196.35742 677.38867 C 196.50676 678.33578 196.24439 679.12877 195.56836 679.76758 C 194.70072 680.58745 193.58174 680.86966 192.21094 680.61328 C 190.95848 680.38614 189.90671 679.82147 189.05664 678.92188 C 188.33233 678.15537 187.91417 677.36271 187.80273 676.54102 C 187.67883 675.61018 187.98666 674.79486 188.72656 674.0957 C 189.15772 673.68828 189.71968 673.42497 190.41211 673.30469 C 190.6216 673.27047 190.83273 673.25013 191.04492 673.24609 z M 156.72656 674.16211 C 157.1554 674.12098 157.53775 674.27032 157.875 674.60938 C 158.33871 675.07556 158.61521 675.80616 158.70312 676.80273 C 158.73826 677.21344 158.73115 678.01743 158.67969 679.21289 C 157.15929 678.73785 156.14455 678.24491 155.63867 677.73633 C 155.19303 677.2883 154.96017 676.78606 154.9375 676.23047 C 154.92088 675.66885 155.13225 675.16814 155.57422 674.72852 C 155.91932 674.38528 156.30378 674.19724 156.72656 674.16211 z M 126.01172 678.9043 L 125.54297 679.35156 L 130.20117 690.76953 C 130.89587 692.46466 130.95945 693.61218 130.39062 694.21484 L 130.75391 694.59766 L 134.31641 691.20117 L 133.95312 690.82031 L 133.53125 691.22266 C 133.25555 691.48505 132.95267 691.61647 132.62109 691.61914 C 132.28951 691.6215 131.99123 691.48468 131.72852 691.20898 C 131.24856 690.7053 130.70218 689.76585 130.08789 688.38867 L 133.5625 685.07617 L 137.1543 686.93555 C 137.23606 686.97891 137.30292 687.02701 137.35352 687.08008 C 137.52024 687.25504 137.55888 687.38482 137.46875 687.4707 L 137.28516 687.64453 L 137.64844 688.02734 L 140.50391 685.30664 L 140.14062 684.92383 C 139.74373 685.27167 139.14523 685.33454 138.34766 685.11328 C 137.90518 684.98865 137.31407 684.73529 136.57227 684.34961 L 126.01172 678.9043 z M 182.60547 679.11719 C 182.24114 679.15399 181.89008 679.33162 181.55273 679.65039 C 180.97253 680.19866 180.64665 681.11111 180.57422 682.38867 C 180.53358 683.09209 180.58855 684.09513 180.73828 685.39453 L 178.25586 682.76758 L 177.91992 683.08398 L 176.64258 685.89258 L 177.02148 686.29102 C 177.22576 685.84608 177.39178 685.56407 177.51953 685.44336 C 177.87085 685.11138 178.295 685.2074 178.79297 685.73438 L 182.64844 689.81445 C 183.07069 690.26159 183.28006 690.66415 183.27539 691.02148 C 183.27048 691.37883 183.04843 691.7739 182.61133 692.20703 L 182.97461 692.58984 L 186.60742 689.1582 L 186.24414 688.77539 C 185.70177 689.26774 185.21958 689.47648 184.79688 689.40234 C 184.44634 689.34062 184.00388 689.02713 183.4707 688.46289 C 182.57538 687.5154 181.88604 686.34223 181.40234 684.94531 C 180.81384 683.22423 180.93772 681.96939 181.77344 681.17969 C 182.28977 680.69179 182.83757 680.75504 183.41602 681.36719 L 188.07812 686.30078 C 188.3146 686.551 188.32682 686.7879 188.11328 687.00977 L 188.47461 687.39258 L 191.25391 684.76562 L 190.89062 684.38281 C 190.43343 684.79469 190.02446 684.99659 189.66211 684.98633 C 189.30508 684.97103 188.91471 684.7401 188.49219 684.29297 L 184.53906 680.10742 C 183.85688 679.38549 183.21269 679.05586 182.60547 679.11719 z M 158.98047 681.875 C 160.49492 682.31984 162.42918 682.72161 164.7832 683.07812 C 164.97167 684.86598 164.73241 686.09145 164.06641 686.75391 C 163.55784 687.25977 162.94479 687.44708 162.22656 687.31836 C 161.58679 687.20797 161.0044 686.89002 160.48047 686.36328 C 159.5109 685.38851 159.01134 683.89191 158.98047 681.875 z M 127.44727 681.90625 L 132.92578 684.75781 L 129.80859 687.72852 L 127.44727 681.90625 z M 174.07031 686.7832 L 171.75195 689.89453 L 172.10547 690.26953 C 172.2675 690.0358 172.39886 689.87292 172.5 689.77734 C 173.06956 689.23914 173.80194 689.44313 174.69727 690.39062 C 175.55739 691.30086 176.22451 692.46353 176.69727 693.88086 C 177.26506 695.60135 177.14504 696.84482 176.33594 697.60938 C 175.80896 698.10734 175.21557 698.00786 174.55664 697.31055 L 169.88672 692.36719 C 169.60002 692.06379 169.53797 691.77515 169.70117 691.5 L 169.40625 691.18945 L 167.12891 694.26367 L 167.48242 694.63867 C 167.6439 694.42569 167.7783 694.26857 167.88477 694.16797 C 168.37981 693.7002 168.8456 693.699 169.2832 694.16211 L 173.41016 698.5293 C 174.58716 699.77488 175.61584 699.98228 176.49414 699.15234 C 177.12227 698.5588 177.46896 697.64186 177.53516 696.40039 C 177.5752 695.71768 177.51383 694.70715 177.34961 693.37109 L 179.85352 696.02344 L 180.24414 695.65234 L 181.61914 692.69141 L 181.24805 692.30078 C 181.05827 692.78238 180.85497 693.1258 180.63672 693.33203 C 180.26943 693.6791 179.85255 693.60636 179.38477 693.11133 L 174.5332 687.97656 C 174.22137 687.64656 174.1643 687.35235 174.36328 687.09375 L 174.07031 686.7832 z M 166.32617 694.31055 C 166.00586 694.46209 165.75769 694.62112 165.58203 694.78711 C 164.72503 695.59694 164.60598 697.33783 165.22461 700.00781 L 162.77344 697.41211 L 162.42188 697.74414 L 161.12891 700.58203 L 161.49023 700.96484 C 161.70959 700.53588 161.89143 700.25495 162.03516 700.11914 C 162.38115 699.7922 162.77612 699.86166 163.21875 700.33008 L 167.13477 704.47461 C 167.55729 704.92175 167.76222 705.3271 167.75195 705.68945 C 167.74173 706.05183 167.51914 706.44968 167.08203 706.88281 L 167.44336 707.26562 L 171.5957 703.3418 L 171.23438 702.95898 C 170.5477 703.60784 169.99288 703.94964 169.57227 703.98438 C 169.09989 704.01764 168.55062 703.70249 167.92188 703.03711 C 167.12211 702.19075 166.45398 701.16901 165.91797 699.97266 C 165.20584 698.40867 165.19225 697.3012 165.87891 696.65234 C 166.43274 696.129 167.16848 696.34799 168.08398 697.30664 L 168.65039 696.76953 L 166.32617 694.31055 z M 156.46875 699.38672 C 156.28014 699.38106 156.08831 699.40363 155.89258 699.45508 C 155.3028 699.60934 154.61646 700.05552 153.83398 700.79492 L 149.00391 705.35938 L 149.36523 705.74414 C 149.84904 705.30713 150.25689 705.09745 150.58789 705.11719 C 150.92422 705.13189 151.31878 705.37836 151.77148 705.85742 L 158.30469 712.77344 C 158.75739 713.25251 158.98371 713.66197 158.98438 714.00391 C 158.9906 714.34105 158.75995 714.7367 158.29102 715.18945 L 158.65234 715.57227 L 162.39844 712.0332 C 163.42577 711.06242 164.03527 709.85268 164.22656 708.40234 C 164.4205 706.85882 164.0405 705.58416 163.08984 704.57812 C 162.39068 703.83822 161.62077 703.59825 160.7793 703.85938 C 160.19896 704.04496 159.48139 704.53312 158.625 705.32227 C 159.29141 703.00984 159.10649 701.30552 158.07031 700.20898 C 157.56858 699.67801 157.03458 699.4037 156.46875 699.38672 z M 154.93164 701.32617 C 155.13502 701.3248 155.34563 701.34885 155.56445 701.39648 C 156.33683 701.5634 157.03366 701.97417 157.65234 702.62891 C 158.65833 703.69351 158.59972 704.75704 157.47656 705.81836 L 155.91797 707.28906 L 152.41016 703.57617 C 152.48278 703.0239 152.78357 702.49796 153.31055 702 C 153.78164 701.55485 154.32151 701.33027 154.93164 701.32617 z M 159.81836 705.7207 C 160.80219 705.73819 161.68882 706.16429 162.47852 707 C 163.05696 707.61215 163.36461 708.25973 163.40234 708.93945 C 163.44366 709.67627 163.16649 710.32532 162.57031 710.88867 C 161.97413 711.45203 161.19787 711.77636 160.24219 711.86328 L 156.26562 707.65625 L 157.08008 706.88672 C 157.92112 706.09201 158.83454 705.70324 159.81836 705.7207 z "
       id="path4193" />
  </g>
</svg>
