  0
SECTION
  2
HEADER
  9
$ACADVER
  1
AC1014
  9
$HANDSEED
  5
FFFF
  9
$MEASUREMENT
 70
     1
  0
ENDSEC
  0
SECTION
  2
TABLES
  0
TABLE
  2
VPORT
  5
8
330
0
100
AcDbSymbolTable
 70
     4
  0
VPORT
  5
2E
330
8
100
AcDbSymbolTableRecord
100
AcDbViewportTableRecord
  2
*ACTIVE
 70
     0
 10
0.0
 20
0.0
 11
1.0
 21
1.0
 12
210.0
 22
148.5
 13
0.0
 23
0.0
 14
10.0
 24
10.0
 15
10.0
 25
10.0
 16
0.0
 26
0.0
 36
1.0
 17
0.0
 27
0.0
 37
0.0
 40
341.0
 41
1.24
 42
50.0
 43
0.0
 44
0.0
 50
0.0
 51
0.0
 71
     0
 72
   100
 73
     1
 74
     3
 75
     0
 76
     0
 77
     0
 78
     0
  0
ENDTAB
  0
TABLE
  2
LTYPE
  5
5
330
0
100
AcDbSymbolTable
 70
     1
  0
LTYPE
  5
14
330
5
100
AcDbSymbolTableRecord
100
AcDbLinetypeTableRecord
  2
BYBLOCK
 70
     0
  3

 72
    65
 73
     0
 40
0.0
  0
LTYPE
  5
15
330
5
100
AcDbSymbolTableRecord
100
AcDbLinetypeTableRecord
  2
BYLAYER
 70
     0
  3

 72
    65
 73
     0
 40
0.0
  0
LTYPE
  5
16
330
5
100
AcDbSymbolTableRecord
100
AcDbLinetypeTableRecord
  2
CONTINUOUS
 70
     0
  3
Solid line
 72
    65
 73
     0
 40
0.0
  0
ENDTAB
  0
TABLE
  2
LAYER
  5
2
100
AcDbSymbolTable
 70
2
  0
LAYER
  5
50
100
AcDbSymbolTableRecord
100
AcDbLayerTableRecord
  2
0
 70
0
  6
CONTINUOUS
  0
LAYER
  5
51
100
AcDbSymbolTableRecord
100
AcDbLayerTableRecord
  2
Layer_1
 70
0
  6
CONTINUOUS
  0
ENDTAB
  0
TABLE
  2
STYLE
  5
3
330
0
100
AcDbSymbolTable
 70
     1
  0
STYLE
  5
11
330
3
100
AcDbSymbolTableRecord
100
AcDbTextStyleTableRecord
  2
STANDARD
 70
     0
 40
0.0
 41
1.0
 50
0.0
 71
     0
 42
2.5
  3
txt
  4

  0
ENDTAB
  0
TABLE
  2
VIEW
  5
6
330
0
100
AcDbSymbolTable
 70
     0
  0
ENDTAB
  0
TABLE
  2
UCS
  5
7
330
0
100
AcDbSymbolTable
 70
     0
  0
ENDTAB
  0
TABLE
  2
APPID
  5
9
330
0
100
AcDbSymbolTable
 70
     2
  0
APPID
  5
12
330
9
100
AcDbSymbolTableRecord
100
AcDbRegAppTableRecord
  2
ACAD
 70
     0
  0
ENDTAB
  0
TABLE
  2
DIMSTYLE
  5
A
330
0
100
AcDbSymbolTable
 70
     1
  0
DIMSTYLE
105
27
330
A
100
AcDbSymbolTableRecord
100
AcDbDimStyleTableRecord
  2
ISO-25
 70
     0
  3

  4

  5

  6

  7

 40
1.0
 41
2.5
 42
0.625
 43
3.75
 44
1.25
 45
0.0
 46
0.0
 47
0.0
 48
0.0
140
2.5
141
2.5
142
0.0
143
0.03937007874016
144
1.0
145
0.0
146
1.0
147
0.625
 71
     0
 72
     0
 73
     0
 74
     0
 75
     0
 76
     0
 77
     1
 78
     8
170
     0
171
     3
172
     1
173
     0
174
     0
175
     0
176
     0
177
     0
178
     0
270
     2
271
     2
272
     2
273
     2
274
     3
340
11
275
     0
280
     0
281
     0
282
     0
283
     0
284
     8
285
     0
286
     0
287
     3
288
     0
  0
ENDTAB
  0
TABLE
  2
BLOCK_RECORD
  5
1
330
0
100
AcDbSymbolTable
 70
     1
  0
BLOCK_RECORD
  5
1F
330
1
100
AcDbSymbolTableRecord
100
AcDbBlockTableRecord
  2
*MODEL_SPACE
  0
BLOCK_RECORD
  5
1B
330
1
100
AcDbSymbolTableRecord
100
AcDbBlockTableRecord
  2
*PAPER_SPACE
  0
ENDTAB
  0
ENDSEC
  0
SECTION
  2
BLOCKS
  0
BLOCK
  5
20
330
1F
100
AcDbEntity
  8
0
100
AcDbBlockBegin
  2
*MODEL_SPACE
 70
     0
 10
0.0
 20
0.0
 30
0.0
  3
*MODEL_SPACE
  1

  0
ENDBLK
  5
21
330
1F
100
AcDbEntity
  8
0
100
AcDbBlockEnd
  0
BLOCK
  5
1C
330
1B
100
AcDbEntity
 67
     1
  8
0
100
AcDbBlockBegin
  2
*PAPER_SPACE
  1

  0
ENDBLK
  5
1D
330
1B
100
AcDbEntity
 67
     1
  8
0
100
AcDbBlockEnd
  0
ENDSEC
  0
SECTION
  2
ENTITIES
  0
SPLINE
  5
100
100
AcDbEntity
  8
Layer_1
 62
1
100
AcDbSpline
 70
8
 71
3
 72
8
 73
4
 74
0
 40
0
 40
0
 40
0
 40
0
 40
1
 40
1
 40
1
 40
1
 10
37.011901
 20
117.602027
 30
0.0
 10
36.181538
 20
117.601629
 30
0.0
 10
36.007740
 20
117.586919
 30
0.0
 10
35.454167
 20
117.471389
 30
0.0
  0
SPLINE
  5
101
100
AcDbEntity
  8
Layer_1
 62
1
100
AcDbSpline
 70
8
 71
3
 72
8
 73
4
 74
0
 40
0
 40
0
 40
0
 40
0
 40
1
 40
1
 40
1
 40
1
 10
35.454167
 20
117.471389
 30
0.0
 10
33.400342
 20
117.042767
 30
0.0
 10
31.736213
 20
116.038569
 30
0.0
 10
30.449131
 20
114.450731
 30
0.0
  0
SPLINE
  5
102
100
AcDbEntity
  8
Layer_1
 62
1
100
AcDbSpline
 70
8
 71
3
 72
8
 73
4
 74
0
 40
0
 40
0
 40
0
 40
0
 40
1
 40
1
 40
1
 40
1
 10
30.449131
 20
114.450731
 30
0.0
 10
29.041987
 20
112.714773
 30
0.0
 10
28.337439
 20
110.251826
 30
0.0
 10
28.646106
 20
108.148133
 30
0.0
  0
SPLINE
  5
103
100
AcDbEntity
  8
Layer_1
 62
1
100
AcDbSpline
 70
8
 71
3
 72
8
 73
4
 74
0
 40
0
 40
0
 40
0
 40
0
 40
1
 40
1
 40
1
 40
1
 10
28.646106
 20
108.148133
 30
0.0
 10
28.982252
 20
105.857177
 30
0.0
 10
29.804860
 20
104.070699
 30
0.0
 10
31.486520
 20
101.978382
 30
0.0
  0
SPLINE
  5
104
100
AcDbEntity
  8
Layer_1
 62
1
100
AcDbSpline
 70
8
 71
3
 72
8
 73
4
 74
0
 40
0
 40
0
 40
0
 40
0
 40
1
 40
1
 40
1
 40
1
 10
31.486520
 20
101.978382
 30
0.0
 10
32.828134
 20
100.309151
 30
0.0
 10
35.003458
 20
98.184342
 30
0.0
 10
37.083560
 20
96.511427
 30
0.0
  0
SPLINE
  5
105
100
AcDbEntity
  8
Layer_1
 62
1
100
AcDbSpline
 70
8
 71
3
 72
8
 73
4
 74
0
 40
0
 40
0
 40
0
 40
0
 40
1
 40
1
 40
1
 40
1
 10
37.083560
 20
96.511427
 30
0.0
 10
37.268082
 20
96.363024
 30
0.0
 10
37.602657
 20
96.089452
 30
0.0
 10
37.827148
 20
95.903989
 30
0.0
  0
SPLINE
  5
106
100
AcDbEntity
  8
Layer_1
 62
1
100
AcDbSpline
 70
8
 71
3
 72
8
 73
4
 74
0
 40
0
 40
0
 40
0
 40
0
 40
1
 40
1
 40
1
 40
1
 10
37.827148
 20
95.903989
 30
0.0
 10
38.223853
 20
95.576250
 30
0.0
 10
39.380871
 20
94.686694
 30
0.0
 10
39.735455
 20
94.436654
 30
0.0
  0
SPLINE
  5
107
100
AcDbEntity
  8
Layer_1
 62
1
100
AcDbSpline
 70
8
 71
3
 72
8
 73
4
 74
0
 40
0
 40
0
 40
0
 40
0
 40
1
 40
1
 40
1
 40
1
 10
39.735455
 20
94.436654
 30
0.0
 10
39.832116
 20
94.368494
 30
0.0
 10
40.094575
 20
94.179287
 30
0.0
 10
40.318642
 20
94.016075
 30
0.0
  0
SPLINE
  5
108
100
AcDbEntity
  8
Layer_1
 62
1
100
AcDbSpline
 70
8
 71
3
 72
8
 73
4
 74
0
 40
0
 40
0
 40
0
 40
0
 40
1
 40
1
 40
1
 40
1
 10
40.318642
 20
94.016075
 30
0.0
 10
41.239451
 20
93.345363
 30
0.0
 10
41.836777
 20
92.926105
 30
0.0
 10
42.649180
 20
92.380620
 30
0.0
  0
SPLINE
  5
109
100
AcDbEntity
  8
Layer_1
 62
1
100
AcDbSpline
 70
8
 71
3
 72
8
 73
4
 74
0
 40
0
 40
0
 40
0
 40
0
 40
1
 40
1
 40
1
 40
1
 10
42.649180
 20
92.380620
 30
0.0
 10
43.120259
 20
92.064316
 30
0.0
 10
43.534990
 20
91.805152
 30
0.0
 10
43.570813
 20
91.805152
 30
0.0
  0
SPLINE
  5
10a
100
AcDbEntity
  8
Layer_1
 62
1
100
AcDbSpline
 70
8
 71
3
 72
8
 73
4
 74
0
 40
0
 40
0
 40
0
 40
0
 40
1
 40
1
 40
1
 40
1
 10
43.570813
 20
91.805152
 30
0.0
 10
43.641834
 20
91.804765
 30
0.0
 10
44.183260
 20
92.147216
 30
0.0
 10
45.027122
 20
92.726232
 30
0.0
  0
SPLINE
  5
10b
100
AcDbEntity
  8
Layer_1
 62
1
100
AcDbSpline
 70
8
 71
3
 72
8
 73
4
 74
0
 40
0
 40
0
 40
0
 40
0
 40
1
 40
1
 40
1
 40
1
 10
45.027122
 20
92.726232
 30
0.0
 10
45.588422
 20
93.111361
 30
0.0
 10
45.695322
 20
93.186813
 30
0.0
 10
46.339015
 20
93.655031
 30
0.0
  0
SPLINE
  5
10c
100
AcDbEntity
  8
Layer_1
 62
1
100
AcDbSpline
 70
8
 71
3
 72
8
 73
4
 74
0
 40
0
 40
0
 40
0
 40
0
 40
1
 40
1
 40
1
 40
1
 10
46.339015
 20
93.655031
 30
0.0
 10
46.552728
 20
93.810487
 30
0.0
 10
46.894236
 20
94.056300
 30
0.0
 10
47.098037
 20
94.201286
 30
0.0
  0
SPLINE
  5
10d
100
AcDbEntity
  8
Layer_1
 62
1
100
AcDbSpline
 70
8
 71
3
 72
8
 73
4
 74
0
 40
0
 40
0
 40
0
 40
0
 40
1
 40
1
 40
1
 40
1
 10
47.098037
 20
94.201286
 30
0.0
 10
47.619598
 20
94.572327
 30
0.0
 10
48.377447
 20
95.149891
 30
0.0
 10
49.077451
 20
95.710512
 30
0.0
  0
SPLINE
  5
10e
100
AcDbEntity
  8
Layer_1
 62
1
100
AcDbSpline
 70
8
 71
3
 72
8
 73
4
 74
0
 40
0
 40
0
 40
0
 40
0
 40
1
 40
1
 40
1
 40
1
 10
49.077451
 20
95.710512
 30
0.0
 10
49.406596
 20
95.974119
 30
0.0
 10
49.811824
 20
96.298045
 30
0.0
 10
49.978138
 20
96.429848
 30
0.0
  0
SPLINE
  5
10f
100
AcDbEntity
  8
Layer_1
 62
1
100
AcDbSpline
 70
8
 71
3
 72
8
 73
4
 74
0
 40
0
 40
0
 40
0
 40
0
 40
1
 40
1
 40
1
 40
1
 10
49.978138
 20
96.429848
 30
0.0
 10
50.349833
 20
96.724418
 30
0.0
 10
51.336953
 20
97.557617
 30
0.0
 10
51.629578
 20
97.823871
 30
0.0
  0
SPLINE
  5
110
100
AcDbEntity
  8
Layer_1
 62
1
100
AcDbSpline
 70
8
 71
3
 72
8
 73
4
 74
0
 40
0
 40
0
 40
0
 40
0
 40
1
 40
1
 40
1
 40
1
 10
51.629578
 20
97.823871
 30
0.0
 10
55.553082
 20
101.393751
 30
0.0
 10
57.390812
 20
103.833505
 30
0.0
 10
58.142739
 20
106.470784
 30
0.0
  0
SPLINE
  5
111
100
AcDbEntity
  8
Layer_1
 62
1
100
AcDbSpline
 70
8
 71
3
 72
8
 73
4
 74
0
 40
0
 40
0
 40
0
 40
0
 40
1
 40
1
 40
1
 40
1
 10
58.142739
 20
106.470784
 30
0.0
 10
58.647522
 20
108.241246
 30
0.0
 10
58.702852
 20
109.503231
 30
0.0
 10
58.344483
 20
111.096034
 30
0.0
  0
SPLINE
  5
112
100
AcDbEntity
  8
Layer_1
 62
1
100
AcDbSpline
 70
8
 71
3
 72
8
 73
4
 74
0
 40
0
 40
0
 40
0
 40
0
 40
1
 40
1
 40
1
 40
1
 10
58.344483
 20
111.096034
 30
0.0
 10
58.088713
 20
112.232822
 30
0.0
 10
57.469837
 20
113.512347
 30
0.0
 10
56.745409
 20
114.402773
 30
0.0
  0
SPLINE
  5
113
100
AcDbEntity
  8
Layer_1
 62
1
100
AcDbSpline
 70
8
 71
3
 72
8
 73
4
 74
0
 40
0
 40
0
 40
0
 40
0
 40
1
 40
1
 40
1
 40
1
 10
56.745409
 20
114.402773
 30
0.0
 10
55.410955
 20
116.043006
 30
0.0
 10
53.774916
 20
117.038773
 30
0.0
 10
51.701787
 20
117.471939
 30
0.0
  0
SPLINE
  5
114
100
AcDbEntity
  8
Layer_1
 62
1
100
AcDbSpline
 70
8
 71
3
 72
8
 73
4
 74
0
 40
0
 40
0
 40
0
 40
0
 40
1
 40
1
 40
1
 40
1
 10
51.701787
 20
117.471939
 30
0.0
 10
51.141458
 20
117.589019
 30
0.0
 10
50.982397
 20
117.602066
 30
0.0
 10
50.120352
 20
117.600373
 30
0.0
  0
SPLINE
  5
115
100
AcDbEntity
  8
Layer_1
 62
1
100
AcDbSpline
 70
8
 71
3
 72
8
 73
4
 74
0
 40
0
 40
0
 40
0
 40
0
 40
1
 40
1
 40
1
 40
1
 10
50.120352
 20
117.600373
 30
0.0
 10
49.284949
 20
117.598838
 30
0.0
 10
49.083914
 20
117.582469
 30
0.0
 10
48.556003
 20
117.475247
 30
0.0
  0
SPLINE
  5
116
100
AcDbEntity
  8
Layer_1
 62
1
100
AcDbSpline
 70
8
 71
3
 72
8
 73
4
 74
0
 40
0
 40
0
 40
0
 40
0
 40
1
 40
1
 40
1
 40
1
 10
48.556003
 20
117.475247
 30
0.0
 10
47.517504
 20
117.264322
 30
0.0
 10
46.887675
 20
117.036053
 30
0.0
 10
45.998364
 20
116.548655
 30
0.0
  0
SPLINE
  5
117
100
AcDbEntity
  8
Layer_1
 62
1
100
AcDbSpline
 70
8
 71
3
 72
8
 73
4
 74
0
 40
0
 40
0
 40
0
 40
0
 40
1
 40
1
 40
1
 40
1
 10
45.998364
 20
116.548655
 30
0.0
 10
45.282163
 20
116.156132
 30
0.0
 10
44.362915
 20
115.444517
 30
0.0
 10
43.948945
 20
114.961705
 30
0.0
  0
SPLINE
  5
118
100
AcDbEntity
  8
Layer_1
 62
1
100
AcDbSpline
 70
8
 71
3
 72
8
 73
4
 74
0
 40
0
 40
0
 40
0
 40
0
 40
1
 40
1
 40
1
 40
1
 10
43.948945
 20
114.961705
 30
0.0
 10
43.619400
 20
114.577358
 30
0.0
 10
43.610586
 20
114.571474
 30
0.0
 10
43.503012
 20
114.662397
 30
0.0
  0
SPLINE
  5
119
100
AcDbEntity
  8
Layer_1
 62
1
100
AcDbSpline
 70
8
 71
3
 72
8
 73
4
 74
0
 40
0
 40
0
 40
0
 40
0
 40
1
 40
1
 40
1
 40
1
 10
43.503012
 20
114.662397
 30
0.0
 10
43.451890
 20
114.705605
 30
0.0
 10
43.313415
 20
114.847315
 30
0.0
 10
43.195435
 20
114.977690
 30
0.0
  0
SPLINE
  5
11a
100
AcDbEntity
  8
Layer_1
 62
1
100
AcDbSpline
 70
8
 71
3
 72
8
 73
4
 74
0
 40
0
 40
0
 40
0
 40
0
 40
1
 40
1
 40
1
 40
1
 10
43.195435
 20
114.977690
 30
0.0
 10
42.658329
 20
115.571223
 30
0.0
 10
41.766109
 20
116.238357
 30
0.0
 10
40.941515
 20
116.662757
 30
0.0
  0
SPLINE
  5
11b
100
AcDbEntity
  8
Layer_1
 62
1
100
AcDbSpline
 70
8
 71
3
 72
8
 73
4
 74
0
 40
0
 40
0
 40
0
 40
0
 40
1
 40
1
 40
1
 40
1
 10
40.941515
 20
116.662757
 30
0.0
 10
40.096601
 20
117.097617
 30
0.0
 10
39.577648
 20
117.276351
 30
0.0
 10
38.582312
 20
117.475247
 30
0.0
  0
SPLINE
  5
11c
100
AcDbEntity
  8
Layer_1
 62
1
100
AcDbSpline
 70
8
 71
3
 72
8
 73
4
 74
0
 40
0
 40
0
 40
0
 40
0
 40
1
 40
1
 40
1
 40
1
 10
38.582312
 20
117.475247
 30
0.0
 10
38.023780
 20
117.586863
 30
0.0
 10
37.832422
 20
117.602309
 30
0.0
 10
37.011901
 20
117.602027
 30
0.0
  0
SPLINE
  5
11d
100
AcDbEntity
  8
Layer_1
 62
1
100
AcDbSpline
 70
8
 71
3
 72
8
 73
4
 74
0
 40
0
 40
0
 40
0
 40
0
 40
1
 40
1
 40
1
 40
1
 10
35.154856
 20
115.656237
 30
0.0
 10
34.902656
 20
115.656302
 30
0.0
 10
34.660767
 20
115.556145
 30
0.0
 10
34.482434
 20
115.377813
 30
0.0
  0
SPLINE
  5
11e
100
AcDbEntity
  8
Layer_1
 62
1
100
AcDbSpline
 70
8
 71
3
 72
8
 73
4
 74
0
 40
0
 40
0
 40
0
 40
0
 40
1
 40
1
 40
1
 40
1
 10
34.482434
 20
115.377813
 30
0.0
 10
34.304102
 20
115.199480
 30
0.0
 10
34.203945
 20
114.957591
 30
0.0
 10
34.204010
 20
114.705391
 30
0.0
  0
SPLINE
  5
11f
100
AcDbEntity
  8
Layer_1
 62
1
100
AcDbSpline
 70
8
 71
3
 72
8
 73
4
 74
0
 40
0
 40
0
 40
0
 40
0
 40
1
 40
1
 40
1
 40
1
 10
34.204010
 20
114.705391
 30
0.0
 10
34.204178
 20
114.180412
 30
0.0
 10
34.629877
 20
113.754960
 30
0.0
 10
35.154856
 20
113.755095
 30
0.0
  0
SPLINE
  5
120
100
AcDbEntity
  8
Layer_1
 62
1
100
AcDbSpline
 70
8
 71
3
 72
8
 73
4
 74
0
 40
0
 40
0
 40
0
 40
0
 40
1
 40
1
 40
1
 40
1
 10
35.154856
 20
113.755095
 30
0.0
 10
35.679620
 20
113.755264
 30
0.0
 10
36.104983
 20
114.180627
 30
0.0
 10
36.105152
 20
114.705391
 30
0.0
  0
SPLINE
  5
121
100
AcDbEntity
  8
Layer_1
 62
1
100
AcDbSpline
 70
8
 71
3
 72
8
 73
4
 74
0
 40
0
 40
0
 40
0
 40
0
 40
1
 40
1
 40
1
 40
1
 10
36.105152
 20
114.705391
 30
0.0
 10
36.105287
 20
115.230370
 30
0.0
 10
35.679835
 20
115.656069
 30
0.0
 10
35.154856
 20
115.656237
 30
0.0
  0
LWPOLYLINE
  5
122
100
AcDbEntity
  8
Layer_1
 62
1
100
AcDbPolyline
 90
2
 70
0
 10
37.011901
 20
117.602027
 30
0.0
 10
37.011901
 20
117.602027
 30
0.0
  0
SPLINE
  5
123
100
AcDbEntity
  8
Layer_1
 62
7
100
AcDbSpline
 70
8
 71
3
 72
8
 73
4
 74
0
 40
0
 40
0
 40
0
 40
0
 40
1
 40
1
 40
1
 40
1
 10
48.127158
 20
115.524496
 30
0.0
 10
48.005994
 20
115.531805
 30
0.0
 10
47.872670
 20
115.466570
 30
0.0
 10
47.727526
 20
115.328264
 30
0.0
  0
SPLINE
  5
124
100
AcDbEntity
  8
Layer_1
 62
7
100
AcDbSpline
 70
8
 71
3
 72
8
 73
4
 74
0
 40
0
 40
0
 40
0
 40
0
 40
1
 40
1
 40
1
 40
1
 10
47.727526
 20
115.328264
 30
0.0
 10
47.423773
 20
115.038820
 30
0.0
 10
47.208381
 20
114.616403
 30
0.0
 10
47.080952
 20
114.061021
 30
0.0
  0
LWPOLYLINE
  5
125
100
AcDbEntity
  8
Layer_1
 62
1
100
AcDbPolyline
 90
2
 70
0
 10
35.154856
 20
115.656237
 30
0.0
 10
35.154856
 20
115.656237
 30
0.0
  0
SPLINE
  5
126
100
AcDbEntity
  8
Layer_1
 62
7
100
AcDbSpline
 70
8
 71
3
 72
8
 73
4
 74
0
 40
0
 40
0
 40
0
 40
0
 40
1
 40
1
 40
1
 40
1
 10
47.744614
 20
113.665247
 30
0.0
 10
47.587261
 20
113.869325
 30
0.0
 10
47.488074
 20
114.089046
 30
0.0
 10
47.446957
 20
114.323951
 30
0.0
  0
SPLINE
  5
127
100
AcDbEntity
  8
Layer_1
 62
7
100
AcDbSpline
 70
8
 71
3
 72
8
 73
4
 74
0
 40
0
 40
0
 40
0
 40
0
 40
1
 40
1
 40
1
 40
1
 10
47.446957
 20
114.323951
 30
0.0
 10
47.399702
 20
114.607240
 30
0.0
 10
47.460876
 20
114.829250
 30
0.0
 10
47.629961
 20
114.990368
 30
0.0
  0
SPLINE
  5
128
100
AcDbEntity
  8
Layer_1
 62
7
100
AcDbSpline
 70
8
 71
3
 72
8
 73
4
 74
0
 40
0
 40
0
 40
0
 40
0
 40
1
 40
1
 40
1
 40
1
 10
47.629961
 20
114.990368
 30
0.0
 10
47.715249
 20
115.071648
 30
0.0
 10
47.807389
 20
115.109796
 30
0.0
 10
47.906672
 20
115.104470
 30
0.0
  0
SPLINE
  5
129
100
AcDbEntity
  8
Layer_1
 62
7
100
AcDbSpline
 70
8
 71
3
 72
8
 73
4
 74
0
 40
0
 40
0
 40
0
 40
0
 40
1
 40
1
 40
1
 40
1
 10
47.906672
 20
115.104470
 30
0.0
 10
48.007448
 20
115.100575
 30
0.0
 10
48.098250
 20
115.055815
 30
0.0
 10
48.179522
 20
114.970525
 30
0.0
  0
LWPOLYLINE
  5
12a
100
AcDbEntity
  8
Layer_1
 62
7
100
AcDbPolyline
 90
3
 70
0
 10
47.080952
 20
114.061021
 30
0.0
 10
47.594131
 20
113.522482
 30
0.0
 10
47.744614
 20
113.665247
 30
0.0
  0
SPLINE
  5
12b
100
AcDbEntity
  8
Layer_1
 62
7
100
AcDbSpline
 70
8
 71
3
 72
8
 73
4
 74
0
 40
0
 40
0
 40
0
 40
0
 40
1
 40
1
 40
1
 40
1
 10
48.436389
 20
114.701533
 30
0.0
 10
47.962318
 20
113.533192
 30
0.0
 10
47.880041
 20
112.786644
 30
0.0
 10
48.189444
 20
112.461944
 30
0.0
  0
SPLINE
  5
12c
100
AcDbEntity
  8
Layer_1
 62
7
100
AcDbSpline
 70
8
 71
3
 72
8
 73
4
 74
0
 40
0
 40
0
 40
0
 40
0
 40
1
 40
1
 40
1
 40
1
 10
48.189444
 20
112.461944
 30
0.0
 10
48.303510
 20
112.342234
 30
0.0
 10
48.440058
 20
112.273883
 30
0.0
 10
48.598997
 20
112.256893
 30
0.0
  0
SPLINE
  5
12d
100
AcDbEntity
  8
Layer_1
 62
7
100
AcDbSpline
 70
8
 71
3
 72
8
 73
4
 74
0
 40
0
 40
0
 40
0
 40
0
 40
1
 40
1
 40
1
 40
1
 10
48.598997
 20
112.256893
 30
0.0
 10
48.765209
 20
112.238264
 30
0.0
 10
48.907429
 20
112.285364
 30
0.0
 10
49.025638
 20
112.398004
 30
0.0
  0
SPLINE
  5
12e
100
AcDbEntity
  8
Layer_1
 62
7
100
AcDbSpline
 70
8
 71
3
 72
8
 73
4
 74
0
 40
0
 40
0
 40
0
 40
0
 40
1
 40
1
 40
1
 40
1
 10
49.025638
 20
112.398004
 30
0.0
 10
49.230633
 20
112.593341
 30
0.0
 10
49.337121
 20
113.042927
 30
0.0
 10
49.345342
 20
113.747379
 30
0.0
  0
LWPOLYLINE
  5
12f
100
AcDbEntity
  8
Layer_1
 62
7
100
AcDbPolyline
 90
2
 70
0
 10
48.179522
 20
114.970525
 30
0.0
 10
48.436389
 20
114.701533
 30
0.0
  0
SPLINE
  5
130
100
AcDbEntity
  8
Layer_1
 62
7
100
AcDbSpline
 70
8
 71
3
 72
8
 73
4
 74
0
 40
0
 40
0
 40
0
 40
0
 40
1
 40
1
 40
1
 40
1
 10
49.661741
 20
113.415548
 30
0.0
 10
49.798619
 20
113.271900
 30
0.0
 10
49.931585
 20
113.260955
 30
0.0
 10
50.060270
 20
113.383575
 30
0.0
  0
SPLINE
  5
131
100
AcDbEntity
  8
Layer_1
 62
7
100
AcDbSpline
 70
8
 71
3
 72
8
 73
4
 74
0
 40
0
 40
0
 40
0
 40
0
 40
1
 40
1
 40
1
 40
1
 10
50.060270
 20
113.383575
 30
0.0
 10
50.203913
 20
113.520458
 30
0.0
 10
50.282848
 20
113.808754
 30
0.0
 10
50.297842
 20
114.248434
 30
0.0
  0
LWPOLYLINE
  5
132
100
AcDbEntity
  8
Layer_1
 62
7
100
AcDbPolyline
 90
2
 70
0
 10
49.345342
 20
113.747379
 30
0.0
 10
49.661741
 20
113.415548
 30
0.0
  0
SPLINE
  5
133
100
AcDbEntity
  8
Layer_1
 62
7
100
AcDbSpline
 70
8
 71
3
 72
8
 73
4
 74
0
 40
0
 40
0
 40
0
 40
0
 40
1
 40
1
 40
1
 40
1
 10
50.165550
 20
114.387891
 30
0.0
 10
50.145597
 20
114.106219
 30
0.0
 10
50.105790
 20
113.936702
 30
0.0
 10
50.045936
 20
113.879671
 30
0.0
  0
SPLINE
  5
134
100
AcDbEntity
  8
Layer_1
 62
7
100
AcDbSpline
 70
8
 71
3
 72
8
 73
4
 74
0
 40
0
 40
0
 40
0
 40
0
 40
1
 40
1
 40
1
 40
1
 10
50.045936
 20
113.879671
 30
0.0
 10
49.984587
 20
113.821217
 30
0.0
 10
49.921586
 20
113.825566
 30
0.0
 10
49.857423
 20
113.892899
 30
0.0
  0
LWPOLYLINE
  5
135
100
AcDbEntity
  8
Layer_1
 62
7
100
AcDbPolyline
 90
2
 70
0
 10
50.297842
 20
114.248434
 30
0.0
 10
50.165550
 20
114.387891
 30
0.0
  0
SPLINE
  5
136
100
AcDbEntity
  8
Layer_1
 62
7
100
AcDbSpline
 70
8
 71
3
 72
8
 73
4
 74
0
 40
0
 40
0
 40
0
 40
0
 40
1
 40
1
 40
1
 40
1
 10
48.520725
 20
115.295743
 30
0.0
 10
48.380994
 20
115.442375
 30
0.0
 10
48.249817
 20
115.518609
 30
0.0
 10
48.127158
 20
115.524496
 30
0.0
  0
LWPOLYLINE
  5
137
100
AcDbEntity
  8
Layer_1
 62
7
100
AcDbPolyline
 90
2
 70
0
 10
49.857423
 20
113.892899
 30
0.0
 10
48.520725
 20
115.295743
 30
0.0
  0
SPLINE
  5
138
100
AcDbEntity
  8
Layer_1
 62
7
100
AcDbSpline
 70
8
 71
3
 72
8
 73
4
 74
0
 40
0
 40
0
 40
0
 40
0
 40
1
 40
1
 40
1
 40
1
 10
48.634275
 20
114.543333
 30
0.0
 10
48.866544
 20
114.293586
 30
0.0
 10
49.030580
 20
114.035991
 30
0.0
 10
49.126510
 20
113.770530
 30
0.0
  0
SPLINE
  5
139
100
AcDbEntity
  8
Layer_1
 62
7
100
AcDbSpline
 70
8
 71
3
 72
8
 73
4
 74
0
 40
0
 40
0
 40
0
 40
0
 40
1
 40
1
 40
1
 40
1
 10
49.126510
 20
113.770530
 30
0.0
 10
49.250973
 20
113.415204
 30
0.0
 10
49.205281
 20
113.134694
 30
0.0
 10
48.989810
 20
112.929375
 30
0.0
  0
SPLINE
  5
13a
100
AcDbEntity
  8
Layer_1
 62
7
100
AcDbSpline
 70
8
 71
3
 72
8
 73
4
 74
0
 40
0
 40
0
 40
0
 40
0
 40
1
 40
1
 40
1
 40
1
 10
48.989810
 20
112.929375
 30
0.0
 10
48.897038
 20
112.840918
 30
0.0
 10
48.795548
 20
112.796719
 30
0.0
 10
48.684437
 20
112.796533
 30
0.0
  0
SPLINE
  5
13b
100
AcDbEntity
  8
Layer_1
 62
7
100
AcDbSpline
 70
8
 71
3
 72
8
 73
4
 74
0
 40
0
 40
0
 40
0
 40
0
 40
1
 40
1
 40
1
 40
1
 10
48.684437
 20
112.796533
 30
0.0
 10
48.574819
 20
112.797716
 30
0.0
 10
48.475733
 20
112.844319
 30
0.0
 10
48.387330
 20
112.937091
 30
0.0
  0
SPLINE
  5
13c
100
AcDbEntity
  8
Layer_1
 62
7
100
AcDbSpline
 70
8
 71
3
 72
8
 73
4
 74
0
 40
0
 40
0
 40
0
 40
0
 40
1
 40
1
 40
1
 40
1
 10
48.387330
 20
112.937091
 30
0.0
 10
48.214805
 20
113.118148
 30
0.0
 10
48.175266
 20
113.390769
 30
0.0
 10
48.268819
 20
113.753992
 30
0.0
  0
SPLINE
  5
13d
100
AcDbEntity
  8
Layer_1
 62
7
100
AcDbSpline
 70
8
 71
3
 72
8
 73
4
 74
0
 40
0
 40
0
 40
0
 40
0
 40
1
 40
1
 40
1
 40
1
 10
48.268819
 20
113.753992
 30
0.0
 10
48.339804
 20
114.030044
 30
0.0
 10
48.461580
 20
114.293124
 30
0.0
 10
48.634275
 20
114.543333
 30
0.0
  0
LWPOLYLINE
  5
13e
100
AcDbEntity
  8
Layer_1
 62
7
100
AcDbPolyline
 90
2
 70
0
 10
48.127158
 20
115.524496
 30
0.0
 10
48.127158
 20
115.524496
 30
0.0
  0
SPLINE
  5
13f
100
AcDbEntity
  8
Layer_1
 62
7
100
AcDbSpline
 70
8
 71
3
 72
8
 73
4
 74
0
 40
0
 40
0
 40
0
 40
0
 40
1
 40
1
 40
1
 40
1
 10
46.077186
 20
113.486654
 30
0.0
 10
45.872454
 20
113.465005
 30
0.0
 10
45.687101
 20
113.375376
 30
0.0
 10
45.521011
 20
113.217109
 30
0.0
  0
SPLINE
  5
140
100
AcDbEntity
  8
Layer_1
 62
7
100
AcDbSpline
 70
8
 71
3
 72
8
 73
4
 74
0
 40
0
 40
0
 40
0
 40
0
 40
1
 40
1
 40
1
 40
1
 10
45.521011
 20
113.217109
 30
0.0
 10
45.232218
 20
112.941923
 30
0.0
 10
45.110408
 20
112.577221
 30
0.0
 10
45.155005
 20
112.122948
 30
0.0
  0
SPLINE
  5
141
100
AcDbEntity
  8
Layer_1
 62
7
100
AcDbSpline
 70
8
 71
3
 72
8
 73
4
 74
0
 40
0
 40
0
 40
0
 40
0
 40
1
 40
1
 40
1
 40
1
 10
45.155005
 20
112.122948
 30
0.0
 10
45.197451
 20
111.700890
 30
0.0
 10
45.359963
 20
111.341596
 30
0.0
 10
45.642279
 20
111.045322
 30
0.0
  0
SPLINE
  5
142
100
AcDbEntity
  8
Layer_1
 62
7
100
AcDbSpline
 70
8
 71
3
 72
8
 73
4
 74
0
 40
0
 40
0
 40
0
 40
0
 40
1
 40
1
 40
1
 40
1
 10
45.642279
 20
111.045322
 30
0.0
 10
45.878967
 20
110.796932
 30
0.0
 10
46.167813
 20
110.649482
 30
0.0
 10
46.508789
 20
110.603246
 30
0.0
  0
SPLINE
  5
143
100
AcDbEntity
  8
Layer_1
 62
7
100
AcDbSpline
 70
8
 71
3
 72
8
 73
4
 74
0
 40
0
 40
0
 40
0
 40
0
 40
1
 40
1
 40
1
 40
1
 10
46.508789
 20
110.603246
 30
0.0
 10
46.875920
 20
110.550532
 30
0.0
 10
47.180300
 20
110.639599
 30
0.0
 10
47.422703
 20
110.870586
 30
0.0
  0
SPLINE
  5
144
100
AcDbEntity
  8
Layer_1
 62
7
100
AcDbSpline
 70
8
 71
3
 72
8
 73
4
 74
0
 40
0
 40
0
 40
0
 40
0
 40
1
 40
1
 40
1
 40
1
 10
47.422703
 20
110.870586
 30
0.0
 10
47.739924
 20
111.172861
 30
0.0
 10
47.865840
 20
111.692491
 30
0.0
 10
47.800285
 20
112.429424
 30
0.0
  0
LWPOLYLINE
  5
145
100
AcDbEntity
  8
Layer_1
 62
7
100
AcDbPolyline
 90
2
 70
0
 10
48.634275
 20
114.543333
 30
0.0
 10
48.634275
 20
114.543333
 30
0.0
  0
SPLINE
  5
146
100
AcDbEntity
  8
Layer_1
 62
7
100
AcDbSpline
 70
8
 71
3
 72
8
 73
4
 74
0
 40
0
 40
0
 40
0
 40
0
 40
1
 40
1
 40
1
 40
1
 10
47.659174
 20
112.577701
 30
0.0
 10
47.686482
 20
112.012740
 30
0.0
 10
47.571482
 20
111.607514
 30
0.0
 10
47.314115
 20
111.362271
 30
0.0
  0
SPLINE
  5
147
100
AcDbEntity
  8
Layer_1
 62
7
100
AcDbSpline
 70
8
 71
3
 72
8
 73
4
 74
0
 40
0
 40
0
 40
0
 40
0
 40
1
 40
1
 40
1
 40
1
 10
47.314115
 20
111.362271
 30
0.0
 10
47.085177
 20
111.144119
 30
0.0
 10
46.805864
 20
111.070405
 30
0.0
 10
46.475715
 20
111.141232
 30
0.0
  0
SPLINE
  5
148
100
AcDbEntity
  8
Layer_1
 62
7
100
AcDbSpline
 70
8
 71
3
 72
8
 73
4
 74
0
 40
0
 40
0
 40
0
 40
0
 40
1
 40
1
 40
1
 40
1
 10
46.475715
 20
111.141232
 30
0.0
 10
46.184840
 20
111.203803
 30
0.0
 10
45.924984
 20
111.354919
 30
0.0
 10
45.696849
 20
111.594331
 30
0.0
  0
SPLINE
  5
149
100
AcDbEntity
  8
Layer_1
 62
7
100
AcDbSpline
 70
8
 71
3
 72
8
 73
4
 74
0
 40
0
 40
0
 40
0
 40
0
 40
1
 40
1
 40
1
 40
1
 10
45.696849
 20
111.594331
 30
0.0
 10
45.671184
 20
111.621267
 30
0.0
 10
45.632062
 20
111.665426
 30
0.0
 10
45.579439
 20
111.726623
 30
0.0
  0
LWPOLYLINE
  5
14a
100
AcDbEntity
  8
Layer_1
 62
7
100
AcDbPolyline
 90
2
 70
0
 10
47.800285
 20
112.429424
 30
0.0
 10
47.659174
 20
112.577701
 30
0.0
  0
SPLINE
  5
14b
100
AcDbEntity
  8
Layer_1
 62
7
100
AcDbSpline
 70
8
 71
3
 72
8
 73
4
 74
0
 40
0
 40
0
 40
0
 40
0
 40
1
 40
1
 40
1
 40
1
 10
47.027482
 20
113.106314
 30
0.0
 10
46.803273
 20
113.326625
 30
0.0
 10
46.557060
 20
113.452765
 30
0.0
 10
46.288853
 20
113.485550
 30
0.0
  0
SPLINE
  5
14c
100
AcDbEntity
  8
Layer_1
 62
7
100
AcDbSpline
 70
8
 71
3
 72
8
 73
4
 74
0
 40
0
 40
0
 40
0
 40
0
 40
1
 40
1
 40
1
 40
1
 10
46.288853
 20
113.485550
 30
0.0
 10
46.216316
 20
113.493515
 30
0.0
 10
46.145433
 20
113.493870
 30
0.0
 10
46.077186
 20
113.486654
 30
0.0
  0
LWPOLYLINE
  5
14d
100
AcDbEntity
  8
Layer_1
 62
7
100
AcDbPolyline
 90
2
 70
0
 10
45.579439
 20
111.726623
 30
0.0
 10
47.027482
 20
113.106314
 30
0.0
  0
SPLINE
  5
14e
100
AcDbEntity
  8
Layer_1
 62
7
100
AcDbSpline
 70
8
 71
3
 72
8
 73
4
 74
0
 40
0
 40
0
 40
0
 40
0
 40
1
 40
1
 40
1
 40
1
 10
45.896389
 20
113.118992
 30
0.0
 10
45.943534
 20
113.122700
 30
0.0
 10
45.992373
 20
113.121286
 30
0.0
 10
46.043012
 20
113.114583
 30
0.0
  0
SPLINE
  5
14f
100
AcDbEntity
  8
Layer_1
 62
7
100
AcDbSpline
 70
8
 71
3
 72
8
 73
4
 74
0
 40
0
 40
0
 40
0
 40
0
 40
1
 40
1
 40
1
 40
1
 10
46.043012
 20
113.114583
 30
0.0
 10
46.219268
 20
113.088396
 30
0.0
 10
46.389008
 20
113.006072
 30
0.0
 10
46.552335
 20
112.867639
 30
0.0
  0
LWPOLYLINE
  5
150
100
AcDbEntity
  8
Layer_1
 62
7
100
AcDbPolyline
 90
2
 70
0
 10
46.077186
 20
113.486654
 30
0.0
 10
46.077186
 20
113.486654
 30
0.0
  0
SPLINE
  5
151
100
AcDbEntity
  8
Layer_1
 62
7
100
AcDbSpline
 70
8
 71
3
 72
8
 73
4
 74
0
 40
0
 40
0
 40
0
 40
0
 40
1
 40
1
 40
1
 40
1
 10
45.492899
 20
111.857814
 30
0.0
 10
45.372757
 20
112.028835
 30
0.0
 10
45.310558
 20
112.213970
 30
0.0
 10
45.306590
 20
112.412886
 30
0.0
  0
SPLINE
  5
152
100
AcDbEntity
  8
Layer_1
 62
7
100
AcDbSpline
 70
8
 71
3
 72
8
 73
4
 74
0
 40
0
 40
0
 40
0
 40
0
 40
1
 40
1
 40
1
 40
1
 10
45.306590
 20
112.412886
 30
0.0
 10
45.303039
 20
112.629336
 30
0.0
 10
45.373663
 20
112.807054
 30
0.0
 10
45.518807
 20
112.945360
 30
0.0
  0
SPLINE
  5
153
100
AcDbEntity
  8
Layer_1
 62
7
100
AcDbSpline
 70
8
 71
3
 72
8
 73
4
 74
0
 40
0
 40
0
 40
0
 40
0
 40
1
 40
1
 40
1
 40
1
 10
45.518807
 20
112.945360
 30
0.0
 10
45.628786
 20
113.050158
 30
0.0
 10
45.754953
 20
113.107875
 30
0.0
 10
45.896389
 20
113.118992
 30
0.0
  0
LWPOLYLINE
  5
154
100
AcDbEntity
  8
Layer_1
 62
7
100
AcDbPolyline
 90
2
 70
0
 10
46.552335
 20
112.867639
 30
0.0
 10
45.492899
 20
111.857814
 30
0.0
  0
SPLINE
  5
155
100
AcDbEntity
  8
Layer_1
 62
7
100
AcDbSpline
 70
8
 71
3
 72
8
 73
4
 74
0
 40
0
 40
0
 40
0
 40
0
 40
1
 40
1
 40
1
 40
1
 10
44.377240
 20
112.062865
 30
0.0
 10
44.287019
 20
112.019719
 30
0.0
 10
44.217158
 20
111.974318
 30
0.0
 10
44.167778
 20
111.927266
 30
0.0
  0
SPLINE
  5
156
100
AcDbEntity
  8
Layer_1
 62
7
100
AcDbSpline
 70
8
 71
3
 72
8
 73
4
 74
0
 40
0
 40
0
 40
0
 40
0
 40
1
 40
1
 40
1
 40
1
 10
44.167778
 20
111.927266
 30
0.0
 10
43.926870
 20
111.697706
 30
0.0
 10
43.895227
 20
111.206662
 30
0.0
 10
44.072968
 20
110.453868
 30
0.0
  0
LWPOLYLINE
  5
157
100
AcDbEntity
  8
Layer_1
 62
7
100
AcDbPolyline
 90
2
 70
0
 10
45.896389
 20
113.118992
 30
0.0
 10
45.896389
 20
113.118992
 30
0.0
  0
SPLINE
  5
158
100
AcDbEntity
  8
Layer_1
 62
7
100
AcDbSpline
 70
8
 71
3
 72
8
 73
4
 74
0
 40
0
 40
0
 40
0
 40
0
 40
1
 40
1
 40
1
 40
1
 10
43.020147
 20
110.178812
 30
0.0
 10
43.081550
 20
110.300131
 30
0.0
 10
43.132431
 20
110.380090
 30
0.0
 10
43.172834
 20
110.418591
 30
0.0
  0
SPLINE
  5
159
100
AcDbEntity
  8
Layer_1
 62
7
100
AcDbSpline
 70
8
 71
3
 72
8
 73
4
 74
0
 40
0
 40
0
 40
0
 40
0
 40
1
 40
1
 40
1
 40
1
 10
43.172834
 20
110.418591
 30
0.0
 10
43.270094
 20
110.511267
 30
0.0
 10
43.381947
 20
110.491836
 30
0.0
 10
43.507423
 20
110.360159
 30
0.0
  0
LWPOLYLINE
  5
15a
100
AcDbEntity
  8
Layer_1
 62
7
100
AcDbPolyline
 90
5
 70
0
 10
44.072968
 20
110.453868
 30
0.0
 10
43.377886
 20
111.183125
 30
0.0
 10
43.279218
 20
111.088868
 30
0.0
 10
42.917621
 20
110.286299
 30
0.0
 10
43.020147
 20
110.178812
 30
0.0
  0
SPLINE
  5
15b
100
AcDbEntity
  8
Layer_1
 62
7
100
AcDbSpline
 70
8
 71
3
 72
8
 73
4
 74
0
 40
0
 40
0
 40
0
 40
0
 40
1
 40
1
 40
1
 40
1
 10
44.617019
 20
109.194892
 30
0.0
 10
44.736786
 20
109.069202
 30
0.0
 10
44.795872
 20
108.955412
 30
0.0
 10
44.793408
 20
108.853138
 30
0.0
  0
SPLINE
  5
15c
100
AcDbEntity
  8
Layer_1
 62
7
100
AcDbSpline
 70
8
 71
3
 72
8
 73
4
 74
0
 40
0
 40
0
 40
0
 40
0
 40
1
 40
1
 40
1
 40
1
 10
44.793408
 20
108.853138
 30
0.0
 10
44.790930
 20
108.750872
 30
0.0
 10
44.728271
 20
108.638567
 30
0.0
 10
44.605442
 20
108.515795
 30
0.0
  0
LWPOLYLINE
  5
15d
100
AcDbEntity
  8
Layer_1
 62
7
100
AcDbPolyline
 90
2
 70
0
 10
43.507423
 20
110.360159
 30
0.0
 10
44.617019
 20
109.194892
 30
0.0
  0
SPLINE
  5
15e
100
AcDbEntity
  8
Layer_1
 62
7
100
AcDbSpline
 70
8
 71
3
 72
8
 73
4
 74
0
 40
0
 40
0
 40
0
 40
0
 40
1
 40
1
 40
1
 40
1
 10
45.772366
 20
109.627595
 30
0.0
 10
45.579340
 20
109.443662
 30
0.0
 10
45.423602
 20
109.346846
 30
0.0
 10
45.304936
 20
109.336553
 30
0.0
  0
SPLINE
  5
15f
100
AcDbEntity
  8
Layer_1
 62
7
100
AcDbSpline
 70
8
 71
3
 72
8
 73
4
 74
0
 40
0
 40
0
 40
0
 40
0
 40
1
 40
1
 40
1
 40
1
 10
45.304936
 20
109.336553
 30
0.0
 10
45.171659
 20
109.326611
 30
0.0
 10
45.015734
 20
109.415200
 30
0.0
 10
44.837505
 20
109.602240
 30
0.0
  0
SPLINE
  5
160
100
AcDbEntity
  8
Layer_1
 62
7
100
AcDbSpline
 70
8
 71
3
 72
8
 73
4
 74
0
 40
0
 40
0
 40
0
 40
0
 40
1
 40
1
 40
1
 40
1
 10
44.837505
 20
109.602240
 30
0.0
 10
44.610796
 20
109.840154
 30
0.0
 10
44.421332
 20
110.127337
 30
0.0
 10
44.268650
 20
110.464342
 30
0.0
  0
SPLINE
  5
161
100
AcDbEntity
  8
Layer_1
 62
7
100
AcDbSpline
 70
8
 71
3
 72
8
 73
4
 74
0
 40
0
 40
0
 40
0
 40
0
 40
1
 40
1
 40
1
 40
1
 10
44.268650
 20
110.464342
 30
0.0
 10
44.065842
 20
110.904888
 30
0.0
 10
44.060742
 20
111.217474
 30
0.0
 10
44.253768
 20
111.401407
 30
0.0
  0
SPLINE
  5
162
100
AcDbEntity
  8
Layer_1
 62
7
100
AcDbSpline
 70
8
 71
3
 72
8
 73
4
 74
0
 40
0
 40
0
 40
0
 40
0
 40
1
 40
1
 40
1
 40
1
 10
44.253768
 20
111.401407
 30
0.0
 10
44.409453
 20
111.549757
 30
0.0
 10
44.617135
 20
111.488978
 30
0.0
 10
44.876641
 20
111.219506
 30
0.0
  0
LWPOLYLINE
  5
163
100
AcDbEntity
  8
Layer_1
 62
7
100
AcDbPolyline
 90
4
 70
0
 10
44.605442
 20
108.515795
 30
0.0
 10
44.707968
 20
108.407757
 30
0.0
 10
45.874892
 20
109.520108
 30
0.0
 10
45.772366
 20
109.627595
 30
0.0
  0
LWPOLYLINE
  5
164
100
AcDbEntity
  8
Layer_1
 62
7
100
AcDbPolyline
 90
4
 70
0
 10
44.876641
 20
111.219506
 30
0.0
 10
45.035941
 20
111.371091
 30
0.0
 10
44.377240
 20
112.062865
 30
0.0
 10
44.377240
 20
112.062865
 30
0.0
  0
SPLINE
  5
165
100
AcDbEntity
  8
Layer_1
 62
7
100
AcDbSpline
 70
8
 71
3
 72
8
 73
4
 74
0
 40
0
 40
0
 40
0
 40
0
 40
1
 40
1
 40
1
 40
1
 10
40.913953
 20
110.034393
 30
0.0
 10
40.961824
 20
110.139955
 30
0.0
 10
41.011356
 20
110.216872
 30
0.0
 10
41.062230
 20
110.265352
 30
0.0
  0
SPLINE
  5
166
100
AcDbEntity
  8
Layer_1
 62
7
100
AcDbSpline
 70
8
 71
3
 72
8
 73
4
 74
0
 40
0
 40
0
 40
0
 40
0
 40
1
 40
1
 40
1
 40
1
 10
41.062230
 20
110.265352
 30
0.0
 10
41.159495
 20
110.358031
 30
0.0
 10
41.268458
 20
110.340723
 30
0.0
 10
41.389653
 20
110.213536
 30
0.0
  0
LWPOLYLINE
  5
167
100
AcDbEntity
  8
Layer_1
 62
7
100
AcDbPolyline
 90
3
 70
0
 10
41.290435
 20
111.194149
 30
0.0
 10
40.796546
 20
110.157865
 30
0.0
 10
40.913953
 20
110.034393
 30
0.0
  0
SPLINE
  5
168
100
AcDbEntity
  8
Layer_1
 62
7
100
AcDbSpline
 70
8
 71
3
 72
8
 73
4
 74
0
 40
0
 40
0
 40
0
 40
0
 40
1
 40
1
 40
1
 40
1
 10
41.965121
 20
109.609956
 30
0.0
 10
41.712986
 20
109.521011
 30
0.0
 10
41.522746
 20
109.415076
 30
0.0
 10
41.394064
 20
109.292456
 30
0.0
  0
SPLINE
  5
169
100
AcDbEntity
  8
Layer_1
 62
7
100
AcDbSpline
 70
8
 71
3
 72
8
 73
4
 74
0
 40
0
 40
0
 40
0
 40
0
 40
1
 40
1
 40
1
 40
1
 10
41.394064
 20
109.292456
 30
0.0
 10
41.097793
 20
109.010141
 30
0.0
 10
40.973358
 20
108.611702
 30
0.0
 10
41.020890
 20
108.097423
 30
0.0
  0
SPLINE
  5
16a
100
AcDbEntity
  8
Layer_1
 62
7
100
AcDbSpline
 70
8
 71
3
 72
8
 73
4
 74
0
 40
0
 40
0
 40
0
 40
0
 40
1
 40
1
 40
1
 40
1
 10
41.020890
 20
108.097423
 30
0.0
 10
41.066277
 20
107.615354
 30
0.0
 10
41.233604
 20
107.222678
 30
0.0
 10
41.523048
 20
106.918925
 30
0.0
  0
SPLINE
  5
16b
100
AcDbEntity
  8
Layer_1
 62
7
100
AcDbSpline
 70
8
 71
3
 72
8
 73
4
 74
0
 40
0
 40
0
 40
0
 40
0
 40
1
 40
1
 40
1
 40
1
 10
41.523048
 20
106.918925
 30
0.0
 10
41.731218
 20
106.700462
 30
0.0
 10
41.968962
 20
106.557381
 30
0.0
 10
42.236319
 20
106.489527
 30
0.0
  0
SPLINE
  5
16c
100
AcDbEntity
  8
Layer_1
 62
7
100
AcDbSpline
 70
8
 71
3
 72
8
 73
4
 74
0
 40
0
 40
0
 40
0
 40
0
 40
1
 40
1
 40
1
 40
1
 10
42.236319
 20
106.489527
 30
0.0
 10
42.545802
 20
106.410428
 30
0.0
 10
42.803733
 20
106.469150
 30
0.0
 10
43.010226
 20
106.665916
 30
0.0
  0
SPLINE
  5
16d
100
AcDbEntity
  8
Layer_1
 62
7
100
AcDbSpline
 70
8
 71
3
 72
8
 73
4
 74
0
 40
0
 40
0
 40
0
 40
0
 40
1
 40
1
 40
1
 40
1
 10
43.010226
 20
106.665916
 30
0.0
 10
43.180807
 20
106.828462
 30
0.0
 10
43.273963
 20
107.084186
 30
0.0
 10
43.289691
 20
107.433207
 30
0.0
  0
SPLINE
  5
16e
100
AcDbEntity
  8
Layer_1
 62
7
100
AcDbSpline
 70
8
 71
3
 72
8
 73
4
 74
0
 40
0
 40
0
 40
0
 40
0
 40
1
 40
1
 40
1
 40
1
 10
43.289691
 20
107.433207
 30
0.0
 10
43.296137
 20
107.579243
 30
0.0
 10
43.279269
 20
107.858934
 30
0.0
 10
43.239532
 20
108.272158
 30
0.0
  0
LWPOLYLINE
  5
16f
100
AcDbEntity
  8
Layer_1
 62
7
100
AcDbPolyline
 90
2
 70
0
 10
41.389653
 20
110.213536
 30
0.0
 10
41.965121
 20
109.609956
 30
0.0
  0
SPLINE
  5
170
100
AcDbEntity
  8
Layer_1
 62
7
100
AcDbSpline
 70
8
 71
3
 72
8
 73
4
 74
0
 40
0
 40
0
 40
0
 40
0
 40
1
 40
1
 40
1
 40
1
 10
44.285188
 20
108.532330
 30
0.0
 10
44.246227
 20
108.432398
 30
0.0
 10
44.202982
 20
108.359122
 30
0.0
 10
44.155100
 20
108.313498
 30
0.0
  0
SPLINE
  5
171
100
AcDbEntity
  8
Layer_1
 62
7
100
AcDbSpline
 70
8
 71
3
 72
8
 73
4
 74
0
 40
0
 40
0
 40
0
 40
0
 40
1
 40
1
 40
1
 40
1
 10
44.155100
 20
108.313498
 30
0.0
 10
44.048861
 20
108.212262
 30
0.0
 10
43.936652
 20
108.224031
 30
0.0
 10
43.818308
 20
108.348225
 30
0.0
  0
LWPOLYLINE
  5
172
100
AcDbEntity
  8
Layer_1
 62
7
100
AcDbPolyline
 90
5
 70
0
 10
43.239532
 20
108.272158
 30
0.0
 10
43.930756
 20
107.547310
 30
0.0
 10
44.036036
 20
107.647631
 30
0.0
 10
44.394326
 20
108.417677
 30
0.0
 10
44.285188
 20
108.532330
 30
0.0
  0
SPLINE
  5
173
100
AcDbEntity
  8
Layer_1
 62
7
100
AcDbSpline
 70
8
 71
3
 72
8
 73
4
 74
0
 40
0
 40
0
 40
0
 40
0
 40
1
 40
1
 40
1
 40
1
 10
41.427135
 20
110.857356
 30
0.0
 10
41.354420
 20
110.933669
 30
0.0
 10
41.337975
 20
111.015350
 30
0.0
 10
41.378076
 20
111.102096
 30
0.0
  0
LWPOLYLINE
  5
174
100
AcDbEntity
  8
Layer_1
 62
7
100
AcDbPolyline
 90
2
 70
0
 10
43.818308
 20
108.348225
 30
0.0
 10
41.427135
 20
110.857356
 30
0.0
  0
SPLINE
  5
175
100
AcDbEntity
  8
Layer_1
 62
7
100
AcDbSpline
 70
8
 71
3
 72
8
 73
4
 74
0
 40
0
 40
0
 40
0
 40
0
 40
1
 40
1
 40
1
 40
1
 10
42.249547
 20
109.311199
 30
0.0
 10
42.343076
 20
109.249005
 30
0.0
 10
42.438122
 20
109.167107
 30
0.0
 10
42.535077
 20
109.065355
 30
0.0
  0
SPLINE
  5
176
100
AcDbEntity
  8
Layer_1
 62
7
100
AcDbSpline
 70
8
 71
3
 72
8
 73
4
 74
0
 40
0
 40
0
 40
0
 40
0
 40
1
 40
1
 40
1
 40
1
 10
42.535077
 20
109.065355
 30
0.0
 10
42.768915
 20
108.819960
 30
0.0
 10
42.942750
 20
108.510633
 30
0.0
 10
43.056528
 20
108.136559
 30
0.0
  0
SPLINE
  5
177
100
AcDbEntity
  8
Layer_1
 62
7
100
AcDbSpline
 70
8
 71
3
 72
8
 73
4
 74
0
 40
0
 40
0
 40
0
 40
0
 40
1
 40
1
 40
1
 40
1
 10
43.056528
 20
108.136559
 30
0.0
 10
43.190496
 20
107.690363
 30
0.0
 10
43.147505
 20
107.362237
 30
0.0
 10
42.927544
 20
107.152639
 30
0.0
  0
SPLINE
  5
178
100
AcDbEntity
  8
Layer_1
 62
7
100
AcDbSpline
 70
8
 71
3
 72
8
 73
4
 74
0
 40
0
 40
0
 40
0
 40
0
 40
1
 40
1
 40
1
 40
1
 10
42.927544
 20
107.152639
 30
0.0
 10
42.761453
 20
106.994371
 30
0.0
 10
42.545855
 20
106.958343
 30
0.0
 10
42.280417
 20
107.045152
 30
0.0
  0
SPLINE
  5
179
100
AcDbEntity
  8
Layer_1
 62
7
100
AcDbSpline
 70
8
 71
3
 72
8
 73
4
 74
0
 40
0
 40
0
 40
0
 40
0
 40
1
 40
1
 40
1
 40
1
 10
42.280417
 20
107.045152
 30
0.0
 10
42.059953
 20
107.117720
 30
0.0
 10
41.863919
 20
107.244279
 30
0.0
 10
41.692822
 20
107.423838
 30
0.0
  0
SPLINE
  5
17a
100
AcDbEntity
  8
Layer_1
 62
7
100
AcDbSpline
 70
8
 71
3
 72
8
 73
4
 74
0
 40
0
 40
0
 40
0
 40
0
 40
1
 40
1
 40
1
 40
1
 10
41.692822
 20
107.423838
 30
0.0
 10
41.474669
 20
107.652776
 30
0.0
 10
41.324392
 20
107.906220
 30
0.0
 10
41.241926
 20
108.184514
 30
0.0
  0
SPLINE
  5
17b
100
AcDbEntity
  8
Layer_1
 62
7
100
AcDbSpline
 70
8
 71
3
 72
8
 73
4
 74
0
 40
0
 40
0
 40
0
 40
0
 40
1
 40
1
 40
1
 40
1
 10
41.241926
 20
108.184514
 30
0.0
 10
41.140558
 20
108.527586
 30
0.0
 10
41.193791
 20
108.798263
 30
0.0
 10
41.401780
 20
108.996453
 30
0.0
  0
SPLINE
  5
17c
100
AcDbEntity
  8
Layer_1
 62
7
100
AcDbSpline
 70
8
 71
3
 72
8
 73
4
 74
0
 40
0
 40
0
 40
0
 40
0
 40
1
 40
1
 40
1
 40
1
 10
41.401780
 20
108.996453
 30
0.0
 10
41.594806
 20
109.180386
 30
0.0
 10
41.877587
 20
109.285085
 30
0.0
 10
42.249547
 20
109.311199
 30
0.0
  0
LWPOLYLINE
  5
17d
100
AcDbEntity
  8
Layer_1
 62
7
100
AcDbPolyline
 90
3
 70
0
 10
41.378076
 20
111.102096
 30
0.0
 10
41.290435
 20
111.194149
 30
0.0
 10
41.290435
 20
111.194149
 30
0.0
  0
SPLINE
  5
17e
100
AcDbEntity
  8
Layer_1
 62
7
100
AcDbSpline
 70
8
 71
3
 72
8
 73
4
 74
0
 40
0
 40
0
 40
0
 40
0
 40
1
 40
1
 40
1
 40
1
 10
39.652222
 20
107.506520
 30
0.0
 10
39.549443
 20
107.495705
 30
0.0
 10
39.450498
 20
107.445298
 30
0.0
 10
39.355669
 20
107.354936
 30
0.0
  0
SPLINE
  5
17f
100
AcDbEntity
  8
Layer_1
 62
7
100
AcDbSpline
 70
8
 71
3
 72
8
 73
4
 74
0
 40
0
 40
0
 40
0
 40
0
 40
1
 40
1
 40
1
 40
1
 10
39.355669
 20
107.354936
 30
0.0
 10
39.192570
 20
107.199519
 30
0.0
 10
39.101751
 20
106.941669
 30
0.0
 10
39.082816
 20
106.581029
 30
0.0
  0
SPLINE
  5
180
100
AcDbEntity
  8
Layer_1
 62
7
100
AcDbSpline
 70
8
 71
3
 72
8
 73
4
 74
0
 40
0
 40
0
 40
0
 40
0
 40
1
 40
1
 40
1
 40
1
 10
39.082816
 20
106.581029
 30
0.0
 10
39.072182
 20
106.382463
 30
0.0
 10
39.088639
 20
106.099798
 30
0.0
 10
39.132425
 20
105.733259
 30
0.0
  0
LWPOLYLINE
  5
181
100
AcDbEntity
  8
Layer_1
 62
7
100
AcDbPolyline
 90
2
 70
0
 10
42.249547
 20
109.311199
 30
0.0
 10
42.249547
 20
109.311199
 30
0.0
  0
SPLINE
  5
182
100
AcDbEntity
  8
Layer_1
 62
7
100
AcDbSpline
 70
8
 71
3
 72
8
 73
4
 74
0
 40
0
 40
0
 40
0
 40
0
 40
1
 40
1
 40
1
 40
1
 10
38.084565
 20
105.475841
 30
0.0
 10
38.141693
 20
105.601653
 30
0.0
 10
38.188660
 20
105.681400
 30
0.0
 10
38.224576
 20
105.715620
 30
0.0
  0
SPLINE
  5
183
100
AcDbEntity
  8
Layer_1
 62
7
100
AcDbSpline
 70
8
 71
3
 72
8
 73
4
 74
0
 40
0
 40
0
 40
0
 40
0
 40
1
 40
1
 40
1
 40
1
 10
38.224576
 20
105.715620
 30
0.0
 10
38.323331
 20
105.809724
 30
0.0
 10
38.442810
 20
105.782729
 30
0.0
 10
38.583966
 20
105.634591
 30
0.0
  0
LWPOLYLINE
  5
184
100
AcDbEntity
  8
Layer_1
 62
7
100
AcDbPolyline
 90
5
 70
0
 10
39.132425
 20
105.733259
 30
0.0
 10
38.429077
 20
106.471888
 30
0.0
 10
38.334817
 20
106.382040
 30
0.0
 10
37.977631
 20
105.587739
 30
0.0
 10
38.084565
 20
105.475841
 30
0.0
  0
SPLINE
  5
185
100
AcDbEntity
  8
Layer_1
 62
7
100
AcDbSpline
 70
8
 71
3
 72
8
 73
4
 74
0
 40
0
 40
0
 40
0
 40
0
 40
1
 40
1
 40
1
 40
1
 10
39.677027
 20
104.487513
 30
0.0
 10
39.796765
 20
104.361822
 30
0.0
 10
39.856009
 20
104.248815
 30
0.0
 10
39.855069
 20
104.147966
 30
0.0
  0
SPLINE
  5
186
100
AcDbEntity
  8
Layer_1
 62
7
100
AcDbSpline
 70
8
 71
3
 72
8
 73
4
 74
0
 40
0
 40
0
 40
0
 40
0
 40
1
 40
1
 40
1
 40
1
 10
39.855069
 20
104.147966
 30
0.0
 10
39.854090
 20
104.047128
 30
0.0
 10
39.792693
 20
103.935049
 30
0.0
 10
39.669861
 20
103.812274
 30
0.0
  0
LWPOLYLINE
  5
187
100
AcDbEntity
  8
Layer_1
 62
7
100
AcDbPolyline
 90
2
 70
0
 10
38.583966
 20
105.634591
 30
0.0
 10
39.677027
 20
104.487513
 30
0.0
  0
SPLINE
  5
188
100
AcDbEntity
  8
Layer_1
 62
7
100
AcDbSpline
 70
8
 71
3
 72
8
 73
4
 74
0
 40
0
 40
0
 40
0
 40
0
 40
1
 40
1
 40
1
 40
1
 10
40.690713
 20
104.785720
 30
0.0
 10
40.538228
 20
104.646130
 30
0.0
 10
40.402200
 20
104.586703
 30
0.0
 10
40.282814
 20
104.607127
 30
0.0
  0
SPLINE
  5
189
100
AcDbEntity
  8
Layer_1
 62
7
100
AcDbSpline
 70
8
 71
3
 72
8
 73
4
 74
0
 40
0
 40
0
 40
0
 40
0
 40
1
 40
1
 40
1
 40
1
 10
40.282814
 20
104.607127
 30
0.0
 10
40.183810
 20
104.624137
 30
0.0
 10
40.059125
 20
104.711448
 30
0.0
 10
39.907986
 20
104.870057
 30
0.0
  0
SPLINE
  5
18a
100
AcDbEntity
  8
Layer_1
 62
7
100
AcDbSpline
 70
8
 71
3
 72
8
 73
4
 74
0
 40
0
 40
0
 40
0
 40
0
 40
1
 40
1
 40
1
 40
1
 10
39.907986
 20
104.870057
 30
0.0
 10
39.654189
 20
105.136404
 30
0.0
 10
39.458000
 20
105.466372
 30
0.0
 10
39.319841
 20
105.860039
 30
0.0
  0
SPLINE
  5
18b
100
AcDbEntity
  8
Layer_1
 62
7
100
AcDbSpline
 70
8
 71
3
 72
8
 73
4
 74
0
 40
0
 40
0
 40
0
 40
0
 40
1
 40
1
 40
1
 40
1
 10
39.319841
 20
105.860039
 30
0.0
 10
39.151724
 20
106.345068
 30
0.0
 10
39.185238
 20
106.700031
 30
0.0
 10
39.420159
 20
106.923884
 30
0.0
  0
SPLINE
  5
18c
100
AcDbEntity
  8
Layer_1
 62
7
100
AcDbSpline
 70
8
 71
3
 72
8
 73
4
 74
0
 40
0
 40
0
 40
0
 40
0
 40
1
 40
1
 40
1
 40
1
 10
39.420159
 20
106.923884
 30
0.0
 10
39.565303
 20
107.062189
 30
0.0
 10
39.719764
 20
107.045248
 30
0.0
 10
39.883732
 20
106.873174
 30
0.0
  0
LWPOLYLINE
  5
18d
100
AcDbEntity
  8
Layer_1
 62
7
100
AcDbPolyline
 90
4
 70
0
 10
39.669861
 20
103.812274
 30
0.0
 10
39.772387
 20
103.704786
 30
0.0
 10
40.793238
 20
104.677683
 30
0.0
 10
40.690713
 20
104.785720
 30
0.0
  0
SPLINE
  5
18e
100
AcDbEntity
  8
Layer_1
 62
7
100
AcDbSpline
 70
8
 71
3
 72
8
 73
4
 74
0
 40
0
 40
0
 40
0
 40
0
 40
1
 40
1
 40
1
 40
1
 10
41.205548
 20
105.485764
 30
0.0
 10
41.272547
 20
105.415448
 30
0.0
 10
41.276005
 20
105.349112
 30
0.0
 10
41.216021
 20
105.286224
 30
0.0
  0
LWPOLYLINE
  5
18f
100
AcDbEntity
  8
Layer_1
 62
7
100
AcDbPolyline
 90
2
 70
0
 10
39.883732
 20
106.873174
 30
0.0
 10
41.205548
 20
105.485764
 30
0.0
  0
SPLINE
  5
190
100
AcDbEntity
  8
Layer_1
 62
7
100
AcDbSpline
 70
8
 71
3
 72
8
 73
4
 74
0
 40
0
 40
0
 40
0
 40
0
 40
1
 40
1
 40
1
 40
1
 10
41.997091
 20
106.030365
 30
0.0
 10
41.868547
 20
105.913590
 30
0.0
 10
41.753203
 20
105.856471
 30
0.0
 10
41.650928
 20
105.858938
 30
0.0
  0
SPLINE
  5
191
100
AcDbEntity
  8
Layer_1
 62
7
100
AcDbSpline
 70
8
 71
3
 72
8
 73
4
 74
0
 40
0
 40
0
 40
0
 40
0
 40
1
 40
1
 40
1
 40
1
 10
41.650928
 20
105.858938
 30
0.0
 10
41.550147
 20
105.862830
 30
0.0
 10
41.439970
 20
105.927825
 30
0.0
 10
41.320201
 20
106.053516
 30
0.0
  0
LWPOLYLINE
  5
192
100
AcDbEntity
  8
Layer_1
 62
7
100
AcDbPolyline
 90
4
 70
0
 10
41.216021
 20
105.286224
 30
0.0
 10
41.318547
 20
105.178187
 30
0.0
 10
42.099619
 20
105.922878
 30
0.0
 10
41.997091
 20
106.030365
 30
0.0
  0
SPLINE
  5
193
100
AcDbEntity
  8
Layer_1
 62
7
100
AcDbSpline
 70
8
 71
3
 72
8
 73
4
 74
0
 40
0
 40
0
 40
0
 40
0
 40
1
 40
1
 40
1
 40
1
 10
40.199578
 20
107.229257
 30
0.0
 10
40.006199
 20
107.432197
 30
0.0
 10
39.823520
 20
107.524543
 30
0.0
 10
39.652222
 20
107.506520
 30
0.0
  0
LWPOLYLINE
  5
194
100
AcDbEntity
  8
Layer_1
 62
7
100
AcDbPolyline
 90
2
 70
0
 10
41.320201
 20
106.053516
 30
0.0
 10
40.199578
 20
107.229257
 30
0.0
  0
SPLINE
  5
195
100
AcDbEntity
  8
Layer_1
 62
7
100
AcDbSpline
 70
8
 71
3
 72
8
 73
4
 74
0
 40
0
 40
0
 40
0
 40
0
 40
1
 40
1
 40
1
 40
1
 10
54.235725
 20
107.491085
 30
0.0
 10
53.894200
 20
107.512447
 30
0.0
 10
53.578125
 20
107.385822
 30
0.0
 10
53.288187
 20
107.111849
 30
0.0
  0
SPLINE
  5
196
100
AcDbEntity
  8
Layer_1
 62
7
100
AcDbSpline
 70
8
 71
3
 72
8
 73
4
 74
0
 40
0
 40
0
 40
0
 40
0
 40
1
 40
1
 40
1
 40
1
 10
53.288187
 20
107.111849
 30
0.0
 10
52.975708
 20
106.816580
 30
0.0
 10
52.825475
 20
106.438890
 30
0.0
 10
52.837292
 20
105.977999
 30
0.0
  0
SPLINE
  5
197
100
AcDbEntity
  8
Layer_1
 62
7
100
AcDbSpline
 70
8
 71
3
 72
8
 73
4
 74
0
 40
0
 40
0
 40
0
 40
0
 40
1
 40
1
 40
1
 40
1
 10
52.837292
 20
105.977999
 30
0.0
 10
52.849599
 20
105.534636
 30
0.0
 10
53.005744
 20
105.154514
 30
0.0
 10
53.305273
 20
104.837536
 30
0.0
  0
SPLINE
  5
198
100
AcDbEntity
  8
Layer_1
 62
7
100
AcDbSpline
 70
8
 71
3
 72
8
 73
4
 74
0
 40
0
 40
0
 40
0
 40
0
 40
1
 40
1
 40
1
 40
1
 10
53.305273
 20
104.837536
 30
0.0
 10
53.579248
 20
104.547598
 30
0.0
 10
53.880464
 20
104.389415
 30
0.0
 10
54.208714
 20
104.364041
 30
0.0
  0
SPLINE
  5
199
100
AcDbEntity
  8
Layer_1
 62
7
100
AcDbSpline
 70
8
 71
3
 72
8
 73
4
 74
0
 40
0
 40
0
 40
0
 40
0
 40
1
 40
1
 40
1
 40
1
 10
54.208714
 20
104.364041
 30
0.0
 10
54.551577
 20
104.338254
 30
0.0
 10
54.866563
 20
104.461117
 30
0.0
 10
55.153498
 20
104.732253
 30
0.0
  0
SPLINE
  5
19a
100
AcDbEntity
  8
Layer_1
 62
7
100
AcDbSpline
 70
8
 71
3
 72
8
 73
4
 74
0
 40
0
 40
0
 40
0
 40
0
 40
1
 40
1
 40
1
 40
1
 10
55.153498
 20
104.732253
 30
0.0
 10
55.471980
 20
105.033198
 30
0.0
 10
55.626595
 20
105.412620
 30
0.0
 10
55.617621
 20
105.870512
 30
0.0
  0
SPLINE
  5
19b
100
AcDbEntity
  8
Layer_1
 62
7
100
AcDbSpline
 70
8
 71
3
 72
8
 73
4
 74
0
 40
0
 40
0
 40
0
 40
0
 40
1
 40
1
 40
1
 40
1
 10
55.617621
 20
105.870512
 30
0.0
 10
55.609741
 20
106.315207
 30
0.0
 10
55.453977
 20
106.698309
 30
0.0
 10
55.150190
 20
107.019797
 30
0.0
  0
SPLINE
  5
19c
100
AcDbEntity
  8
Layer_1
 62
7
100
AcDbSpline
 70
8
 71
3
 72
8
 73
4
 74
0
 40
0
 40
0
 40
0
 40
0
 40
1
 40
1
 40
1
 40
1
 10
55.150190
 20
107.019797
 30
0.0
 10
54.874795
 20
107.311236
 30
0.0
 10
54.569899
 20
107.468465
 30
0.0
 10
54.235725
 20
107.491085
 30
0.0
  0
LWPOLYLINE
  5
19d
100
AcDbEntity
  8
Layer_1
 62
7
100
AcDbPolyline
 90
2
 70
0
 10
39.652222
 20
107.506520
 30
0.0
 10
39.652222
 20
107.506520
 30
0.0
  0
SPLINE
  5
19e
100
AcDbEntity
  8
Layer_1
 62
7
100
AcDbSpline
 70
8
 71
3
 72
8
 73
4
 74
0
 40
0
 40
0
 40
0
 40
0
 40
1
 40
1
 40
1
 40
1
 10
44.596623
 20
107.207209
 30
0.0
 10
44.549015
 20
107.207655
 30
0.0
 10
44.499378
 20
107.202589
 30
0.0
 10
44.447796
 20
107.191224
 30
0.0
  0
SPLINE
  5
19f
100
AcDbEntity
  8
Layer_1
 62
7
100
AcDbSpline
 70
8
 71
3
 72
8
 73
4
 74
0
 40
0
 40
0
 40
0
 40
0
 40
1
 40
1
 40
1
 40
1
 10
44.447796
 20
107.191224
 30
0.0
 10
44.275573
 20
107.152486
 30
0.0
 10
44.112651
 20
107.056455
 30
0.0
 10
43.958868
 20
106.903490
 30
0.0
  0
SPLINE
  5
1a0
100
AcDbEntity
  8
Layer_1
 62
7
100
AcDbSpline
 70
8
 71
3
 72
8
 73
4
 74
0
 40
0
 40
0
 40
0
 40
0
 40
1
 40
1
 40
1
 40
1
 10
43.958868
 20
106.903490
 30
0.0
 10
43.707691
 20
106.653645
 30
0.0
 10
43.535233
 20
106.373897
 30
0.0
 10
43.442379
 20
106.063989
 30
0.0
  0
SPLINE
  5
1a1
100
AcDbEntity
  8
Layer_1
 62
7
100
AcDbSpline
 70
8
 71
3
 72
8
 73
4
 74
0
 40
0
 40
0
 40
0
 40
0
 40
1
 40
1
 40
1
 40
1
 10
43.442379
 20
106.063989
 30
0.0
 10
43.328906
 20
105.689373
 30
0.0
 10
43.386056
 20
105.387308
 30
0.0
 10
43.613807
 20
105.158341
 30
0.0
  0
SPLINE
  5
1a2
100
AcDbEntity
  8
Layer_1
 62
7
100
AcDbSpline
 70
8
 71
3
 72
8
 73
4
 74
0
 40
0
 40
0
 40
0
 40
0
 40
1
 40
1
 40
1
 40
1
 10
43.613807
 20
105.158341
 30
0.0
 10
43.810959
 20
104.960133
 30
0.0
 10
44.178214
 20
104.777719
 30
0.0
 10
44.714583
 20
104.610985
 30
0.0
  0
SPLINE
  5
1a3
100
AcDbEntity
  8
Layer_1
 62
7
100
AcDbSpline
 70
8
 71
3
 72
8
 73
4
 74
0
 40
0
 40
0
 40
0
 40
0
 40
1
 40
1
 40
1
 40
1
 10
44.714583
 20
104.610985
 30
0.0
 10
44.577282
 20
103.607598
 30
0.0
 10
44.679438
 20
102.934229
 30
0.0
 10
45.021060
 20
102.590782
 30
0.0
  0
SPLINE
  5
1a4
100
AcDbEntity
  8
Layer_1
 62
7
100
AcDbSpline
 70
8
 71
3
 72
8
 73
4
 74
0
 40
0
 40
0
 40
0
 40
0
 40
1
 40
1
 40
1
 40
1
 10
45.021060
 20
102.590782
 30
0.0
 10
45.211416
 20
102.399401
 30
0.0
 10
45.442412
 20
102.296455
 30
0.0
 10
45.715039
 20
102.282101
 30
0.0
  0
SPLINE
  5
1a5
100
AcDbEntity
  8
Layer_1
 62
7
100
AcDbSpline
 70
8
 71
3
 72
8
 73
4
 74
0
 40
0
 40
0
 40
0
 40
0
 40
1
 40
1
 40
1
 40
1
 10
45.715039
 20
102.282101
 30
0.0
 10
45.997882
 20
102.264304
 30
0.0
 10
46.233738
 20
102.348706
 30
0.0
 10
46.421698
 20
102.535658
 30
0.0
  0
SPLINE
  5
1a6
100
AcDbEntity
  8
Layer_1
 62
7
100
AcDbSpline
 70
8
 71
3
 72
8
 73
4
 74
0
 40
0
 40
0
 40
0
 40
0
 40
1
 40
1
 40
1
 40
1
 10
46.421698
 20
102.535658
 30
0.0
 10
46.601109
 20
102.714122
 30
0.0
 10
46.700226
 20
102.978451
 30
0.0
 10
46.719905
 20
103.327757
 30
0.0
  0
SPLINE
  5
1a7
100
AcDbEntity
  8
Layer_1
 62
7
100
AcDbSpline
 70
8
 71
3
 72
8
 73
4
 74
0
 40
0
 40
0
 40
0
 40
0
 40
1
 40
1
 40
1
 40
1
 10
46.719905
 20
103.327757
 30
0.0
 10
46.730618
 20
103.511777
 30
0.0
 10
46.713594
 20
103.802037
 30
0.0
 10
46.668642
 20
104.199228
 30
0.0
  0
SPLINE
  5
1a8
100
AcDbEntity
  8
Layer_1
 62
7
100
AcDbSpline
 70
8
 71
3
 72
8
 73
4
 74
0
 40
0
 40
0
 40
0
 40
0
 40
1
 40
1
 40
1
 40
1
 10
46.668642
 20
104.199228
 30
0.0
 10
47.523883
 20
104.104924
 30
0.0
 10
48.052313
 20
104.157976
 30
0.0
 10
48.253938
 20
104.358529
 30
0.0
  0
SPLINE
  5
1a9
100
AcDbEntity
  8
Layer_1
 62
7
100
AcDbSpline
 70
8
 71
3
 72
8
 73
4
 74
0
 40
0
 40
0
 40
0
 40
0
 40
1
 40
1
 40
1
 40
1
 10
48.253938
 20
104.358529
 30
0.0
 10
48.429932
 20
104.533588
 30
0.0
 10
48.393700
 20
105.026196
 30
0.0
 10
48.145347
 20
105.836338
 30
0.0
  0
LWPOLYLINE
  5
1aa
100
AcDbEntity
  8
Layer_1
 62
7
100
AcDbPolyline
 90
2
 70
0
 10
54.235725
 20
107.491085
 30
0.0
 10
54.235725
 20
107.491085
 30
0.0
  0
SPLINE
  5
1ab
100
AcDbEntity
  8
Layer_1
 62
7
100
AcDbSpline
 70
8
 71
3
 72
8
 73
4
 74
0
 40
0
 40
0
 40
0
 40
0
 40
1
 40
1
 40
1
 40
1
 10
47.987148
 20
105.780664
 30
0.0
 10
48.091584
 20
105.344117
 30
0.0
 10
48.090884
 20
105.072997
 30
0.0
 10
47.984943
 20
104.967621
 30
0.0
  0
SPLINE
  5
1ac
100
AcDbEntity
  8
Layer_1
 62
7
100
AcDbSpline
 70
8
 71
3
 72
8
 73
4
 74
0
 40
0
 40
0
 40
0
 40
0
 40
1
 40
1
 40
1
 40
1
 10
47.984943
 20
104.967621
 30
0.0
 10
47.829453
 20
104.812957
 30
0.0
 10
47.348719
 20
104.795522
 30
0.0
 10
46.542966
 20
104.915257
 30
0.0
  0
SPLINE
  5
1ad
100
AcDbEntity
  8
Layer_1
 62
7
100
AcDbSpline
 70
8
 71
3
 72
8
 73
4
 74
0
 40
0
 40
0
 40
0
 40
0
 40
1
 40
1
 40
1
 40
1
 10
46.542966
 20
104.915257
 30
0.0
 10
46.318695
 20
105.810542
 30
0.0
 10
46.418517
 20
106.469308
 30
0.0
 10
46.842274
 20
106.890813
 30
0.0
  0
LWPOLYLINE
  5
1ae
100
AcDbEntity
  8
Layer_1
 62
7
100
AcDbPolyline
 90
2
 70
0
 10
48.145347
 20
105.836338
 30
0.0
 10
47.987148
 20
105.780664
 30
0.0
  0
SPLINE
  5
1af
100
AcDbEntity
  8
Layer_1
 62
7
100
AcDbSpline
 70
8
 71
3
 72
8
 73
4
 74
0
 40
0
 40
0
 40
0
 40
0
 40
1
 40
1
 40
1
 40
1
 10
45.794414
 20
106.108637
 30
0.0
 10
46.074604
 20
105.734678
 30
0.0
 10
46.257585
 20
105.345830
 30
0.0
 10
46.343423
 20
104.941716
 30
0.0
  0
SPLINE
  5
1b0
100
AcDbEntity
  8
Layer_1
 62
7
100
AcDbSpline
 70
8
 71
3
 72
8
 73
4
 74
0
 40
0
 40
0
 40
0
 40
0
 40
1
 40
1
 40
1
 40
1
 10
46.343423
 20
104.941716
 30
0.0
 10
46.040246
 20
105.003875
 30
0.0
 10
45.572979
 20
105.109824
 30
0.0
 10
44.941132
 20
105.259766
 30
0.0
  0
SPLINE
  5
1b1
100
AcDbEntity
  8
Layer_1
 62
7
100
AcDbSpline
 70
8
 71
3
 72
8
 73
4
 74
0
 40
0
 40
0
 40
0
 40
0
 40
1
 40
1
 40
1
 40
1
 10
44.941132
 20
105.259766
 30
0.0
 10
44.965383
 20
105.406262
 30
0.0
 10
45.000407
 20
105.582301
 30
0.0
 10
45.046965
 20
105.788382
 30
0.0
  0
SPLINE
  5
1b2
100
AcDbEntity
  8
Layer_1
 62
7
100
AcDbSpline
 70
8
 71
3
 72
8
 73
4
 74
0
 40
0
 40
0
 40
0
 40
0
 40
1
 40
1
 40
1
 40
1
 10
45.046965
 20
105.788382
 30
0.0
 10
45.117667
 20
106.096648
 30
0.0
 10
45.156182
 20
106.313324
 30
0.0
 10
45.161618
 20
106.437714
 30
0.0
  0
SPLINE
  5
1b3
100
AcDbEntity
  8
Layer_1
 62
7
100
AcDbSpline
 70
8
 71
3
 72
8
 73
4
 74
0
 40
0
 40
0
 40
0
 40
0
 40
1
 40
1
 40
1
 40
1
 10
45.161618
 20
106.437714
 30
0.0
 10
45.172554
 20
106.703536
 30
0.0
 10
45.109119
 20
106.905646
 30
0.0
 10
44.971451
 20
107.044048
 30
0.0
  0
SPLINE
  5
1b4
100
AcDbEntity
  8
Layer_1
 62
7
100
AcDbSpline
 70
8
 71
3
 72
8
 73
4
 74
0
 40
0
 40
0
 40
0
 40
0
 40
1
 40
1
 40
1
 40
1
 10
44.971451
 20
107.044048
 30
0.0
 10
44.864373
 20
107.151696
 30
0.0
 10
44.739450
 20
107.205869
 30
0.0
 10
44.596623
 20
107.207209
 30
0.0
  0
LWPOLYLINE
  5
1b5
100
AcDbEntity
  8
Layer_1
 62
7
100
AcDbPolyline
 90
3
 70
0
 10
46.842274
 20
106.890813
 30
0.0
 10
46.712186
 20
107.021451
 30
0.0
 10
45.794414
 20
106.108637
 30
0.0
  0
SPLINE
  5
1b6
100
AcDbEntity
  8
Layer_1
 62
7
100
AcDbSpline
 70
8
 71
3
 72
8
 73
4
 74
0
 40
0
 40
0
 40
0
 40
0
 40
1
 40
1
 40
1
 40
1
 10
53.917122
 20
106.994992
 30
0.0
 10
54.096782
 20
106.998404
 30
0.0
 10
54.280150
 20
106.963527
 30
0.0
 10
54.466685
 20
106.890260
 30
0.0
  0
SPLINE
  5
1b7
100
AcDbEntity
  8
Layer_1
 62
7
100
AcDbSpline
 70
8
 71
3
 72
8
 73
4
 74
0
 40
0
 40
0
 40
0
 40
0
 40
1
 40
1
 40
1
 40
1
 10
54.466685
 20
106.890260
 30
0.0
 10
54.705295
 20
106.797242
 30
0.0
 10
54.909288
 20
106.660429
 30
0.0
 10
55.079635
 20
106.480157
 30
0.0
  0
SPLINE
  5
1b8
100
AcDbEntity
  8
Layer_1
 62
7
100
AcDbSpline
 70
8
 71
3
 72
8
 73
4
 74
0
 40
0
 40
0
 40
0
 40
0
 40
1
 40
1
 40
1
 40
1
 10
55.079635
 20
106.480157
 30
0.0
 10
55.267019
 20
106.281856
 30
0.0
 10
55.379304
 20
106.063772
 30
0.0
 10
55.416427
 20
105.825864
 30
0.0
  0
SPLINE
  5
1b9
100
AcDbEntity
  8
Layer_1
 62
7
100
AcDbSpline
 70
8
 71
3
 72
8
 73
4
 74
0
 40
0
 40
0
 40
0
 40
0
 40
1
 40
1
 40
1
 40
1
 10
55.416427
 20
105.825864
 30
0.0
 10
55.458574
 20
105.558569
 30
0.0
 10
55.384528
 20
105.334769
 30
0.0
 10
55.193737
 20
105.154483
 30
0.0
  0
SPLINE
  5
1ba
100
AcDbEntity
  8
Layer_1
 62
7
100
AcDbSpline
 70
8
 71
3
 72
8
 73
4
 74
0
 40
0
 40
0
 40
0
 40
0
 40
1
 40
1
 40
1
 40
1
 10
55.193737
 20
105.154483
 30
0.0
 10
54.948870
 20
104.923097
 30
0.0
 10
54.633069
 20
104.843452
 30
0.0
 10
54.246199
 20
104.915808
 30
0.0
  0
SPLINE
  5
1bb
100
AcDbEntity
  8
Layer_1
 62
7
100
AcDbSpline
 70
8
 71
3
 72
8
 73
4
 74
0
 40
0
 40
0
 40
0
 40
0
 40
1
 40
1
 40
1
 40
1
 10
54.246199
 20
104.915808
 30
0.0
 10
53.892727
 20
104.979912
 30
0.0
 10
53.595894
 20
105.139274
 30
0.0
 10
53.355985
 20
105.393158
 30
0.0
  0
SPLINE
  5
1bc
100
AcDbEntity
  8
Layer_1
 62
7
100
AcDbSpline
 70
8
 71
3
 72
8
 73
4
 74
0
 40
0
 40
0
 40
0
 40
0
 40
1
 40
1
 40
1
 40
1
 10
53.355985
 20
105.393158
 30
0.0
 10
53.151569
 20
105.609484
 30
0.0
 10
53.033555
 20
105.833191
 30
0.0
 10
53.002104
 20
106.065090
 30
0.0
  0
SPLINE
  5
1bd
100
AcDbEntity
  8
Layer_1
 62
7
100
AcDbSpline
 70
8
 71
3
 72
8
 73
4
 74
0
 40
0
 40
0
 40
0
 40
0
 40
1
 40
1
 40
1
 40
1
 10
53.002104
 20
106.065090
 30
0.0
 10
52.967136
 20
106.327794
 30
0.0
 10
53.054013
 20
106.557895
 30
0.0
 10
53.262829
 20
106.755214
 30
0.0
  0
SPLINE
  5
1be
100
AcDbEntity
  8
Layer_1
 62
7
100
AcDbSpline
 70
8
 71
3
 72
8
 73
4
 74
0
 40
0
 40
0
 40
0
 40
0
 40
1
 40
1
 40
1
 40
1
 10
53.262829
 20
106.755214
 30
0.0
 10
53.384512
 20
106.870197
 30
0.0
 10
53.543110
 20
106.944508
 30
0.0
 10
53.738529
 20
106.978454
 30
0.0
  0
SPLINE
  5
1bf
100
AcDbEntity
  8
Layer_1
 62
7
100
AcDbSpline
 70
8
 71
3
 72
8
 73
4
 74
0
 40
0
 40
0
 40
0
 40
0
 40
1
 40
1
 40
1
 40
1
 10
53.738529
 20
106.978454
 30
0.0
 10
53.797652
 20
106.988112
 30
0.0
 10
53.857237
 20
106.993852
 30
0.0
 10
53.917122
 20
106.994992
 30
0.0
  0
LWPOLYLINE
  5
1c0
100
AcDbEntity
  8
Layer_1
 62
7
100
AcDbPolyline
 90
2
 70
0
 10
44.596623
 20
107.207209
 30
0.0
 10
44.596623
 20
107.207209
 30
0.0
  0
SPLINE
  5
1c1
100
AcDbEntity
  8
Layer_1
 62
7
100
AcDbSpline
 70
8
 71
3
 72
8
 73
4
 74
0
 40
0
 40
0
 40
0
 40
0
 40
1
 40
1
 40
1
 40
1
 10
44.231718
 20
106.736471
 30
0.0
 10
44.352746
 20
106.748079
 30
0.0
 10
44.460654
 20
106.705932
 30
0.0
 10
44.555833
 20
106.610242
 30
0.0
  0
SPLINE
  5
1c2
100
AcDbEntity
  8
Layer_1
 62
7
100
AcDbSpline
 70
8
 71
3
 72
8
 73
4
 74
0
 40
0
 40
0
 40
0
 40
0
 40
1
 40
1
 40
1
 40
1
 10
44.555833
 20
106.610242
 30
0.0
 10
44.686703
 20
106.478675
 30
0.0
 10
44.764737
 20
106.272484
 30
0.0
 10
44.789547
 20
105.991230
 30
0.0
  0
SPLINE
  5
1c3
100
AcDbEntity
  8
Layer_1
 62
7
100
AcDbSpline
 70
8
 71
3
 72
8
 73
4
 74
0
 40
0
 40
0
 40
0
 40
0
 40
1
 40
1
 40
1
 40
1
 10
44.789547
 20
105.991230
 30
0.0
 10
44.799464
 20
105.875318
 30
0.0
 10
44.797458
 20
105.648414
 30
0.0
 10
44.782935
 20
105.311029
 30
0.0
  0
SPLINE
  5
1c4
100
AcDbEntity
  8
Layer_1
 62
7
100
AcDbSpline
 70
8
 71
3
 72
8
 73
4
 74
0
 40
0
 40
0
 40
0
 40
0
 40
1
 40
1
 40
1
 40
1
 10
44.782935
 20
105.311029
 30
0.0
 10
44.353844
 20
105.445096
 30
0.0
 10
44.067462
 20
105.584214
 30
0.0
 10
43.924691
 20
105.727747
 30
0.0
  0
SPLINE
  5
1c5
100
AcDbEntity
  8
Layer_1
 62
7
100
AcDbSpline
 70
8
 71
3
 72
8
 73
4
 74
0
 40
0
 40
0
 40
0
 40
0
 40
1
 40
1
 40
1
 40
1
 10
43.924691
 20
105.727747
 30
0.0
 10
43.798922
 20
105.854191
 30
0.0
 10
43.733204
 20
105.995934
 30
0.0
 10
43.726806
 20
106.152734
 30
0.0
  0
SPLINE
  5
1c6
100
AcDbEntity
  8
Layer_1
 62
7
100
AcDbSpline
 70
8
 71
3
 72
8
 73
4
 74
0
 40
0
 40
0
 40
0
 40
0
 40
1
 40
1
 40
1
 40
1
 10
43.726806
 20
106.152734
 30
0.0
 10
43.722115
 20
106.311236
 30
0.0
 10
43.781768
 20
106.452547
 30
0.0
 10
43.906502
 20
106.576618
 30
0.0
  0
SPLINE
  5
1c7
100
AcDbEntity
  8
Layer_1
 62
7
100
AcDbSpline
 70
8
 71
3
 72
8
 73
4
 74
0
 40
0
 40
0
 40
0
 40
0
 40
1
 40
1
 40
1
 40
1
 10
43.906502
 20
106.576618
 30
0.0
 10
44.003897
 20
106.673488
 30
0.0
 10
44.112400
 20
106.726557
 30
0.0
 10
44.231718
 20
106.736471
 30
0.0
  0
LWPOLYLINE
  5
1c8
100
AcDbEntity
  8
Layer_1
 62
7
100
AcDbPolyline
 90
2
 70
0
 10
53.917122
 20
106.994992
 30
0.0
 10
53.917122
 20
106.994992
 30
0.0
  0
LWPOLYLINE
  5
1c9
100
AcDbEntity
  8
Layer_1
 62
7
100
AcDbPolyline
 90
2
 70
0
 10
44.231718
 20
106.736471
 30
0.0
 10
44.231718
 20
106.736471
 30
0.0
  0
SPLINE
  5
1ca
100
AcDbEntity
  8
Layer_1
 62
7
100
AcDbSpline
 70
8
 71
3
 72
8
 73
4
 74
0
 40
0
 40
0
 40
0
 40
0
 40
1
 40
1
 40
1
 40
1
 10
36.745664
 20
102.049488
 30
0.0
 10
36.941723
 20
101.571085
 30
0.0
 10
36.959667
 20
101.247229
 30
0.0
 10
36.799131
 20
101.077145
 30
0.0
  0
LWPOLYLINE
  5
1cb
100
AcDbEntity
  8
Layer_1
 62
7
100
AcDbPolyline
 90
3
 70
0
 10
35.563308
 20
105.398120
 30
0.0
 10
35.431016
 20
105.271893
 30
0.0
 10
36.745664
 20
102.049488
 30
0.0
  0
SPLINE
  5
1cc
100
AcDbEntity
  8
Layer_1
 62
7
100
AcDbSpline
 70
8
 71
3
 72
8
 73
4
 74
0
 40
0
 40
0
 40
0
 40
0
 40
1
 40
1
 40
1
 40
1
 10
37.685486
 20
101.921605
 30
0.0
 10
37.607677
 20
101.847553
 30
0.0
 10
37.522198
 20
101.810463
 30
0.0
 10
37.428619
 20
101.809709
 30
0.0
  0
SPLINE
  5
1cd
100
AcDbEntity
  8
Layer_1
 62
7
100
AcDbSpline
 70
8
 71
3
 72
8
 73
4
 74
0
 40
0
 40
0
 40
0
 40
0
 40
1
 40
1
 40
1
 40
1
 10
37.428619
 20
101.809709
 30
0.0
 10
37.335039
 20
101.809043
 30
0.0
 10
37.250858
 20
101.847657
 30
0.0
 10
37.176716
 20
101.925466
 30
0.0
  0
SPLINE
  5
1ce
100
AcDbEntity
  8
Layer_1
 62
7
100
AcDbSpline
 70
8
 71
3
 72
8
 73
4
 74
0
 40
0
 40
0
 40
0
 40
0
 40
1
 40
1
 40
1
 40
1
 10
37.176716
 20
101.925466
 30
0.0
 10
37.041260
 20
102.067615
 30
0.0
 10
36.887060
 20
102.332749
 30
0.0
 10
36.713693
 20
102.721420
 30
0.0
  0
LWPOLYLINE
  5
1cf
100
AcDbEntity
  8
Layer_1
 62
7
100
AcDbPolyline
 90
5
 70
0
 10
36.799131
 20
101.077145
 30
0.0
 10
36.901659
 20
100.969105
 30
0.0
 10
37.907076
 20
101.927670
 30
0.0
 10
37.804547
 20
102.035157
 30
0.0
 10
37.685486
 20
101.921605
 30
0.0
  0
SPLINE
  5
1d0
100
AcDbEntity
  8
Layer_1
 62
7
100
AcDbSpline
 70
8
 71
3
 72
8
 73
4
 74
0
 40
0
 40
0
 40
0
 40
0
 40
1
 40
1
 40
1
 40
1
 10
38.707991
 20
103.131523
 30
0.0
 10
38.731066
 20
103.119285
 30
0.0
 10
38.749935
 20
103.105711
 30
0.0
 10
38.764216
 20
103.090733
 30
0.0
  0
SPLINE
  5
1d1
100
AcDbEntity
  8
Layer_1
 62
7
100
AcDbSpline
 70
8
 71
3
 72
8
 73
4
 74
0
 40
0
 40
0
 40
0
 40
0
 40
1
 40
1
 40
1
 40
1
 10
38.764216
 20
103.090733
 30
0.0
 10
38.811268
 20
103.041355
 30
0.0
 10
38.822173
 20
103.004729
 30
0.0
 10
38.796736
 20
102.980491
 30
0.0
  0
LWPOLYLINE
  5
1d2
100
AcDbEntity
  8
Layer_1
 62
7
100
AcDbPolyline
 90
3
 70
0
 10
36.713693
 20
102.721420
 30
0.0
 10
37.694306
 20
103.656281
 30
0.0
 10
38.707991
 20
103.131523
 30
0.0
  0
SPLINE
  5
1d3
100
AcDbEntity
  8
Layer_1
 62
7
100
AcDbSpline
 70
8
 71
3
 72
8
 73
4
 74
0
 40
0
 40
0
 40
0
 40
0
 40
1
 40
1
 40
1
 40
1
 10
39.550797
 20
103.699275
 30
0.0
 10
39.438786
 20
103.601106
 30
0.0
 10
39.269876
 20
103.583363
 30
0.0
 10
39.044784
 20
103.645808
 30
0.0
  0
SPLINE
  5
1d4
100
AcDbEntity
  8
Layer_1
 62
7
100
AcDbSpline
 70
8
 71
3
 72
8
 73
4
 74
0
 40
0
 40
0
 40
0
 40
0
 40
1
 40
1
 40
1
 40
1
 10
39.044784
 20
103.645808
 30
0.0
 10
38.919906
 20
103.680981
 30
0.0
 10
38.753082
 20
103.752485
 30
0.0
 10
38.543730
 20
103.861332
 30
0.0
  0
LWPOLYLINE
  5
1d5
100
AcDbEntity
  8
Layer_1
 62
7
100
AcDbPolyline
 90
5
 70
0
 10
38.796736
 20
102.980491
 30
0.0
 10
38.744923
 20
102.931433
 30
0.0
 10
38.847449
 20
102.823395
 30
0.0
 10
39.653326
 20
103.591237
 30
0.0
 10
39.550797
 20
103.699275
 30
0.0
  0
SPLINE
  5
1d6
100
AcDbEntity
  8
Layer_1
 62
7
100
AcDbSpline
 70
8
 71
3
 72
8
 73
4
 74
0
 40
0
 40
0
 40
0
 40
0
 40
1
 40
1
 40
1
 40
1
 10
51.535322
 20
105.338037
 30
0.0
 10
51.432500
 20
105.327652
 30
0.0
 10
51.333423
 20
105.277521
 30
0.0
 10
51.238215
 20
105.187557
 30
0.0
  0
SPLINE
  5
1d7
100
AcDbEntity
  8
Layer_1
 62
7
100
AcDbSpline
 70
8
 71
3
 72
8
 73
4
 74
0
 40
0
 40
0
 40
0
 40
0
 40
1
 40
1
 40
1
 40
1
 10
51.238215
 20
105.187557
 30
0.0
 10
51.074470
 20
105.032823
 30
0.0
 10
50.982499
 20
104.775309
 30
0.0
 10
50.962058
 20
104.414753
 30
0.0
  0
SPLINE
  5
1d8
100
AcDbEntity
  8
Layer_1
 62
7
100
AcDbSpline
 70
8
 71
3
 72
8
 73
4
 74
0
 40
0
 40
0
 40
0
 40
0
 40
1
 40
1
 40
1
 40
1
 10
50.962058
 20
104.414753
 30
0.0
 10
50.950588
 20
104.216232
 30
0.0
 10
50.966102
 20
103.933152
 30
0.0
 10
51.008359
 20
103.566433
 30
0.0
  0
LWPOLYLINE
  5
1d9
100
AcDbEntity
  8
Layer_1
 62
7
100
AcDbPolyline
 90
3
 70
0
 10
38.543730
 20
103.861332
 30
0.0
 10
35.563308
 20
105.398120
 30
0.0
 10
35.563308
 20
105.398120
 30
0.0
  0
SPLINE
  5
1da
100
AcDbEntity
  8
Layer_1
 62
7
100
AcDbSpline
 70
8
 71
3
 72
8
 73
4
 74
0
 40
0
 40
0
 40
0
 40
0
 40
1
 40
1
 40
1
 40
1
 10
49.959395
 20
103.313423
 30
0.0
 10
50.017048
 20
103.438995
 30
0.0
 10
50.063902
 20
103.518585
 30
0.0
 10
50.099956
 20
103.552652
 30
0.0
  0
SPLINE
  5
1db
100
AcDbEntity
  8
Layer_1
 62
7
100
AcDbSpline
 70
8
 71
3
 72
8
 73
4
 74
0
 40
0
 40
0
 40
0
 40
0
 40
1
 40
1
 40
1
 40
1
 10
50.099956
 20
103.552652
 30
0.0
 10
50.199107
 20
103.646344
 30
0.0
 10
50.318811
 20
103.619245
 30
0.0
 10
50.459349
 20
103.470519
 30
0.0
  0
LWPOLYLINE
  5
1dc
100
AcDbEntity
  8
Layer_1
 62
7
100
AcDbPolyline
 90
5
 70
0
 10
51.008359
 20
103.566433
 30
0.0
 10
50.307765
 20
104.307816
 30
0.0
 10
50.212955
 20
104.218521
 30
0.0
 10
49.852461
 20
103.425872
 30
0.0
 10
49.959395
 20
103.313423
 30
0.0
  0
SPLINE
  5
1dd
100
AcDbEntity
  8
Layer_1
 62
7
100
AcDbSpline
 70
8
 71
3
 72
8
 73
4
 74
0
 40
0
 40
0
 40
0
 40
0
 40
1
 40
1
 40
1
 40
1
 10
51.547449
 20
102.319033
 30
0.0
 10
51.666617
 20
102.192840
 30
0.0
 10
51.725706
 20
102.079229
 30
0.0
 10
51.724388
 20
101.978382
 30
0.0
  0
SPLINE
  5
1de
100
AcDbEntity
  8
Layer_1
 62
7
100
AcDbSpline
 70
8
 71
3
 72
8
 73
4
 74
0
 40
0
 40
0
 40
0
 40
0
 40
1
 40
1
 40
1
 40
1
 10
51.724388
 20
101.978382
 30
0.0
 10
51.723002
 20
101.877530
 30
0.0
 10
51.660335
 20
101.766033
 30
0.0
 10
51.536975
 20
101.643794
 30
0.0
  0
LWPOLYLINE
  5
1df
100
AcDbEntity
  8
Layer_1
 62
7
100
AcDbPolyline
 90
2
 70
0
 10
50.459349
 20
103.470519
 30
0.0
 10
51.547449
 20
102.319033
 30
0.0
  0
SPLINE
  5
1e0
100
AcDbEntity
  8
Layer_1
 62
7
100
AcDbSpline
 70
8
 71
3
 72
8
 73
4
 74
0
 40
0
 40
0
 40
0
 40
0
 40
1
 40
1
 40
1
 40
1
 10
52.562235
 20
102.612279
 30
0.0
 10
52.409166
 20
102.473327
 30
0.0
 10
52.273081
 20
102.414416
 30
0.0
 10
52.153786
 20
102.435340
 30
0.0
  0
SPLINE
  5
1e1
100
AcDbEntity
  8
Layer_1
 62
7
100
AcDbSpline
 70
8
 71
3
 72
8
 73
4
 74
0
 40
0
 40
0
 40
0
 40
0
 40
1
 40
1
 40
1
 40
1
 10
52.153786
 20
102.435340
 30
0.0
 10
52.054856
 20
102.452758
 30
0.0
 10
51.929984
 20
102.541232
 30
0.0
 10
51.779509
 20
102.700473
 30
0.0
  0
SPLINE
  5
1e2
100
AcDbEntity
  8
Layer_1
 62
7
100
AcDbSpline
 70
8
 71
3
 72
8
 73
4
 74
0
 40
0
 40
0
 40
0
 40
0
 40
1
 40
1
 40
1
 40
1
 10
51.779509
 20
102.700473
 30
0.0
 10
51.526829
 20
102.967876
 30
0.0
 10
51.332282
 20
103.298971
 30
0.0
 10
51.195772
 20
103.693213
 30
0.0
  0
SPLINE
  5
1e3
100
AcDbEntity
  8
Layer_1
 62
7
100
AcDbSpline
 70
8
 71
3
 72
8
 73
4
 74
0
 40
0
 40
0
 40
0
 40
0
 40
1
 40
1
 40
1
 40
1
 10
51.195772
 20
103.693213
 30
0.0
 10
51.029684
 20
104.178940
 30
0.0
 10
51.064645
 20
104.533083
 30
0.0
 10
51.300504
 20
104.755954
 30
0.0
  0
SPLINE
  5
1e4
100
AcDbEntity
  8
Layer_1
 62
7
100
AcDbSpline
 70
8
 71
3
 72
8
 73
4
 74
0
 40
0
 40
0
 40
0
 40
0
 40
1
 40
1
 40
1
 40
1
 10
51.300504
 20
104.755954
 30
0.0
 10
51.446224
 20
104.893650
 30
0.0
 10
51.600825
 20
104.875800
 30
0.0
 10
51.764077
 20
104.703037
 30
0.0
  0
LWPOLYLINE
  5
1e5
100
AcDbEntity
  8
Layer_1
 62
7
100
AcDbPolyline
 90
4
 70
0
 10
51.536975
 20
101.643794
 30
0.0
 10
51.639501
 20
101.535756
 30
0.0
 10
52.664761
 20
102.504241
 30
0.0
 10
52.562235
 20
102.612279
 30
0.0
  0
SPLINE
  5
1e6
100
AcDbEntity
  8
Layer_1
 62
7
100
AcDbSpline
 70
8
 71
3
 72
8
 73
4
 74
0
 40
0
 40
0
 40
0
 40
0
 40
1
 40
1
 40
1
 40
1
 10
53.079825
 20
103.310669
 30
0.0
 10
53.146565
 20
103.240051
 30
0.0
 10
53.150014
 20
103.173193
 30
0.0
 10
53.089748
 20
103.110576
 30
0.0
  0
LWPOLYLINE
  5
1e7
100
AcDbEntity
  8
Layer_1
 62
7
100
AcDbPolyline
 90
2
 70
0
 10
51.764077
 20
104.703037
 30
0.0
 10
53.079825
 20
103.310669
 30
0.0
  0
SPLINE
  5
1e8
100
AcDbEntity
  8
Layer_1
 62
7
100
AcDbSpline
 70
8
 71
3
 72
8
 73
4
 74
0
 40
0
 40
0
 40
0
 40
0
 40
1
 40
1
 40
1
 40
1
 10
53.873575
 20
103.851963
 30
0.0
 10
53.744546
 20
103.735721
 30
0.0
 10
53.629125
 20
103.678740
 30
0.0
 10
53.526862
 20
103.681636
 30
0.0
  0
SPLINE
  5
1e9
100
AcDbEntity
  8
Layer_1
 62
7
100
AcDbSpline
 70
8
 71
3
 72
8
 73
4
 74
0
 40
0
 40
0
 40
0
 40
0
 40
1
 40
1
 40
1
 40
1
 10
53.526862
 20
103.681636
 30
0.0
 10
53.426100
 20
103.685954
 30
0.0
 10
53.315929
 20
103.751127
 30
0.0
 10
53.196685
 20
103.877317
 30
0.0
  0
LWPOLYLINE
  5
1ea
100
AcDbEntity
  8
Layer_1
 62
7
100
AcDbPolyline
 90
4
 70
0
 10
53.089748
 20
103.110576
 30
0.0
 10
53.191723
 20
103.002539
 30
0.0
 10
53.976103
 20
103.743925
 30
0.0
 10
53.873575
 20
103.851963
 30
0.0
  0
SPLINE
  5
1eb
100
AcDbEntity
  8
Layer_1
 62
7
100
AcDbSpline
 70
8
 71
3
 72
8
 73
4
 74
0
 40
0
 40
0
 40
0
 40
0
 40
1
 40
1
 40
1
 40
1
 10
52.081024
 20
105.058573
 30
0.0
 10
51.888497
 20
105.262317
 30
0.0
 10
51.706693
 20
105.355346
 30
0.0
 10
51.535322
 20
105.338037
 30
0.0
  0
LWPOLYLINE
  5
1ec
100
AcDbEntity
  8
Layer_1
 62
7
100
AcDbPolyline
 90
2
 70
0
 10
53.196685
 20
103.877317
 30
0.0
 10
52.081024
 20
105.058573
 30
0.0
  0
SPLINE
  5
1ed
100
AcDbEntity
  8
Layer_1
 62
7
100
AcDbSpline
 70
8
 71
3
 72
8
 73
4
 74
0
 40
0
 40
0
 40
0
 40
0
 40
1
 40
1
 40
1
 40
1
 10
44.867822
 20
104.559722
 30
0.0
 10
45.295233
 20
104.434178
 30
0.0
 10
45.841124
 20
104.320790
 30
0.0
 10
46.505481
 20
104.220175
 30
0.0
  0
SPLINE
  5
1ee
100
AcDbEntity
  8
Layer_1
 62
7
100
AcDbSpline
 70
8
 71
3
 72
8
 73
4
 74
0
 40
0
 40
0
 40
0
 40
0
 40
1
 40
1
 40
1
 40
1
 10
46.505481
 20
104.220175
 30
0.0
 10
46.558671
 20
103.715601
 30
0.0
 10
46.491147
 20
103.369746
 30
0.0
 10
46.303187
 20
103.182785
 30
0.0
  0
SPLINE
  5
1ef
100
AcDbEntity
  8
Layer_1
 62
7
100
AcDbSpline
 70
8
 71
3
 72
8
 73
4
 74
0
 40
0
 40
0
 40
0
 40
0
 40
1
 40
1
 40
1
 40
1
 10
46.303187
 20
103.182785
 30
0.0
 10
46.159657
 20
103.040020
 30
0.0
 10
45.986641
 20
102.987157
 30
0.0
 10
45.783940
 20
103.023485
 30
0.0
  0
SPLINE
  5
1f0
100
AcDbEntity
  8
Layer_1
 62
7
100
AcDbSpline
 70
8
 71
3
 72
8
 73
4
 74
0
 40
0
 40
0
 40
0
 40
0
 40
1
 40
1
 40
1
 40
1
 10
45.783940
 20
103.023485
 30
0.0
 10
45.603383
 20
103.054640
 30
0.0
 10
45.439020
 20
103.144372
 30
0.0
 10
45.291155
 20
103.293030
 30
0.0
  0
SPLINE
  5
1f1
100
AcDbEntity
  8
Layer_1
 62
7
100
AcDbSpline
 70
8
 71
3
 72
8
 73
4
 74
0
 40
0
 40
0
 40
0
 40
0
 40
1
 40
1
 40
1
 40
1
 10
45.291155
 20
103.293030
 30
0.0
 10
45.017521
 20
103.568132
 30
0.0
 10
44.876534
 20
103.990505
 30
0.0
 10
44.867822
 20
104.559722
 30
0.0
  0
LWPOLYLINE
  5
1f2
100
AcDbEntity
  8
Layer_1
 62
7
100
AcDbPolyline
 90
2
 70
0
 10
51.535322
 20
105.338037
 30
0.0
 10
51.535322
 20
105.338037
 30
0.0
  0
LWPOLYLINE
  5
1f3
100
AcDbEntity
  8
Layer_1
 62
7
100
AcDbPolyline
 90
2
 70
0
 10
44.867822
 20
104.559722
 30
0.0
 10
44.867822
 20
104.559722
 30
0.0
  0
LWPOLYLINE
  5
1f4
100
AcDbEntity
  8
Layer_1
 62
7
100
AcDbPolyline
 90
5
 70
0
 10
35.968452
 20
104.550903
 30
0.0
 10
37.514609
 20
103.746129
 30
0.0
 10
36.634869
 20
102.907729
 30
0.0
 10
35.968452
 20
104.550903
 30
0.0
 10
35.968452
 20
104.550903
 30
0.0
  0
SPLINE
  5
1f5
100
AcDbEntity
  8
Layer_1
 62
7
100
AcDbSpline
 70
8
 71
3
 72
8
 73
4
 74
0
 40
0
 40
0
 40
0
 40
0
 40
1
 40
1
 40
1
 40
1
 10
48.571988
 20
102.190599
 30
0.0
 10
48.617717
 20
102.256563
 30
0.0
 10
48.654789
 20
102.302531
 30
0.0
 10
48.683333
 20
102.329506
 30
0.0
  0
SPLINE
  5
1f6
100
AcDbEntity
  8
Layer_1
 62
7
100
AcDbSpline
 70
8
 71
3
 72
8
 73
4
 74
0
 40
0
 40
0
 40
0
 40
0
 40
1
 40
1
 40
1
 40
1
 10
48.683333
 20
102.329506
 30
0.0
 10
48.844076
 20
102.481398
 30
0.0
 10
49.050770
 20
102.423828
 30
0.0
 10
49.303452
 20
102.156425
 30
0.0
  0
SPLINE
  5
1f7
100
AcDbEntity
  8
Layer_1
 62
7
100
AcDbSpline
 70
8
 71
3
 72
8
 73
4
 74
0
 40
0
 40
0
 40
0
 40
0
 40
1
 40
1
 40
1
 40
1
 10
49.303452
 20
102.156425
 30
0.0
 10
49.546197
 20
101.899535
 30
0.0
 10
49.734473
 20
101.571404
 30
0.0
 10
49.867896
 20
101.171402
 30
0.0
  0
SPLINE
  5
1f8
100
AcDbEntity
  8
Layer_1
 62
7
100
AcDbSpline
 70
8
 71
3
 72
8
 73
4
 74
0
 40
0
 40
0
 40
0
 40
0
 40
1
 40
1
 40
1
 40
1
 10
49.867896
 20
101.171402
 30
0.0
 10
50.028139
 20
100.685841
 30
0.0
 10
49.994267
 20
100.334906
 30
0.0
 10
49.765921
 20
100.119131
 30
0.0
  0
SPLINE
  5
1f9
100
AcDbEntity
  8
Layer_1
 62
7
100
AcDbSpline
 70
8
 71
3
 72
8
 73
4
 74
0
 40
0
 40
0
 40
0
 40
0
 40
1
 40
1
 40
1
 40
1
 10
49.765921
 20
100.119131
 30
0.0
 10
49.617195
 20
99.978595
 30
0.0
 10
49.449728
 20
100.006671
 30
0.0
 10
49.263763
 20
100.203467
 30
0.0
  0
LWPOLYLINE
  5
1fa
100
AcDbEntity
  8
Layer_1
 62
7
100
AcDbPolyline
 90
3
 70
0
 10
49.126510
 20
103.174519
 30
0.0
 10
48.472217
 20
102.296433
 30
0.0
 10
48.571988
 20
102.190599
 30
0.0
  0
SPLINE
  5
1fb
100
AcDbEntity
  8
Layer_1
 62
7
100
AcDbSpline
 70
8
 71
3
 72
8
 73
4
 74
0
 40
0
 40
0
 40
0
 40
0
 40
1
 40
1
 40
1
 40
1
 10
47.945808
 20
101.598593
 30
0.0
 10
47.864895
 20
101.684219
 30
0.0
 10
47.847383
 20
101.765680
 30
0.0
 10
47.893441
 20
101.843333
 30
0.0
  0
LWPOLYLINE
  5
1fc
100
AcDbEntity
  8
Layer_1
 62
7
100
AcDbPolyline
 90
2
 70
0
 10
49.263763
 20
100.203467
 30
0.0
 10
47.945808
 20
101.598593
 30
0.0
  0
SPLINE
  5
1fd
100
AcDbEntity
  8
Layer_1
 62
7
100
AcDbSpline
 70
8
 71
3
 72
8
 73
4
 74
0
 40
0
 40
0
 40
0
 40
0
 40
1
 40
1
 40
1
 40
1
 10
47.267261
 20
100.957531
 30
0.0
 10
47.312834
 20
101.017639
 30
0.0
 10
47.350765
 20
101.061981
 30
0.0
 10
47.380813
 20
101.090373
 30
0.0
  0
SPLINE
  5
1fe
100
AcDbEntity
  8
Layer_1
 62
7
100
AcDbSpline
 70
8
 71
3
 72
8
 73
4
 74
0
 40
0
 40
0
 40
0
 40
0
 40
1
 40
1
 40
1
 40
1
 10
47.380813
 20
101.090373
 30
0.0
 10
47.520524
 20
101.222388
 30
0.0
 10
47.651980
 20
101.222727
 30
0.0
 10
47.775481
 20
101.092027
 30
0.0
  0
LWPOLYLINE
  5
1ff
100
AcDbEntity
  8
Layer_1
 62
7
100
AcDbPolyline
 90
4
 70
0
 10
47.893441
 20
101.843333
 30
0.0
 10
47.810208
 20
101.930977
 30
0.0
 10
47.167492
 20
101.063364
 30
0.0
 10
47.267261
 20
100.957531
 30
0.0
  0
SPLINE
  5
200
100
AcDbEntity
  8
Layer_1
 62
7
100
AcDbSpline
 70
8
 71
3
 72
8
 73
4
 74
0
 40
0
 40
0
 40
0
 40
0
 40
1
 40
1
 40
1
 40
1
 10
48.940201
 20
99.859509
 30
0.0
 10
49.272376
 20
99.507978
 30
0.0
 10
49.562693
 20
99.449445
 30
0.0
 10
49.810568
 20
99.683673
 30
0.0
  0
SPLINE
  5
201
100
AcDbEntity
  8
Layer_1
 62
7
100
AcDbSpline
 70
8
 71
3
 72
8
 73
4
 74
0
 40
0
 40
0
 40
0
 40
0
 40
1
 40
1
 40
1
 40
1
 10
49.810568
 20
99.683673
 30
0.0
 10
49.987841
 20
99.851183
 30
0.0
 10
50.085684
 20
100.109964
 30
0.0
 10
50.104367
 20
100.460334
 30
0.0
  0
SPLINE
  5
202
100
AcDbEntity
  8
Layer_1
 62
7
100
AcDbSpline
 70
8
 71
3
 72
8
 73
4
 74
0
 40
0
 40
0
 40
0
 40
0
 40
1
 40
1
 40
1
 40
1
 10
50.104367
 20
100.460334
 30
0.0
 10
50.115668
 20
100.653010
 30
0.0
 10
50.098348
 20
100.938204
 30
0.0
 10
50.052001
 20
101.315270
 30
0.0
  0
LWPOLYLINE
  5
203
100
AcDbEntity
  8
Layer_1
 62
7
100
AcDbPolyline
 90
2
 70
0
 10
47.775481
 20
101.092027
 30
0.0
 10
48.940201
 20
99.859509
 30
0.0
  0
SPLINE
  5
204
100
AcDbEntity
  8
Layer_1
 62
7
100
AcDbSpline
 70
8
 71
3
 72
8
 73
4
 74
0
 40
0
 40
0
 40
0
 40
0
 40
1
 40
1
 40
1
 40
1
 10
51.152227
 20
101.617335
 30
0.0
 10
51.098667
 20
101.481417
 30
0.0
 10
51.041292
 20
101.384496
 30
0.0
 10
50.979697
 20
101.326294
 30
0.0
  0
SPLINE
  5
205
100
AcDbEntity
  8
Layer_1
 62
7
100
AcDbSpline
 70
8
 71
3
 72
8
 73
4
 74
0
 40
0
 40
0
 40
0
 40
0
 40
1
 40
1
 40
1
 40
1
 10
50.979697
 20
101.326294
 30
0.0
 10
50.876039
 20
101.228343
 30
0.0
 10
50.758386
 20
101.248872
 30
0.0
 10
50.626368
 20
101.388580
 30
0.0
  0
LWPOLYLINE
  5
206
100
AcDbEntity
  8
Layer_1
 62
7
100
AcDbPolyline
 90
5
 70
0
 10
50.052001
 20
101.315270
 30
0.0
 10
50.758660
 20
100.566718
 30
0.0
 10
50.868902
 20
100.671451
 30
0.0
 10
51.256957
 20
101.507091
 30
0.0
 10
51.152227
 20
101.617335
 30
0.0
  0
SPLINE
  5
207
100
AcDbEntity
  8
Layer_1
 62
7
100
AcDbSpline
 70
8
 71
3
 72
8
 73
4
 74
0
 40
0
 40
0
 40
0
 40
0
 40
1
 40
1
 40
1
 40
1
 10
49.257148
 20
102.837726
 30
0.0
 10
49.169142
 20
102.930860
 30
0.0
 10
49.153036
 20
103.013892
 30
0.0
 10
49.209192
 20
103.086875
 30
0.0
  0
LWPOLYLINE
  5
208
100
AcDbEntity
  8
Layer_1
 62
7
100
AcDbPolyline
 90
2
 70
0
 10
50.626368
 20
101.388580
 30
0.0
 10
49.257148
 20
102.837726
 30
0.0
  0
SPLINE
  5
209
100
AcDbEntity
  8
Layer_1
 62
7
100
AcDbSpline
 70
8
 71
3
 72
8
 73
4
 74
0
 40
0
 40
0
 40
0
 40
0
 40
1
 40
1
 40
1
 40
1
 10
46.940941
 20
101.050134
 30
0.0
 10
46.850543
 20
101.007366
 30
0.0
 10
46.780504
 20
100.962484
 30
0.0
 10
46.730928
 20
100.915638
 30
0.0
  0
SPLINE
  5
20a
100
AcDbEntity
  8
Layer_1
 62
7
100
AcDbSpline
 70
8
 71
3
 72
8
 73
4
 74
0
 40
0
 40
0
 40
0
 40
0
 40
1
 40
1
 40
1
 40
1
 10
46.730928
 20
100.915638
 30
0.0
 10
46.489064
 20
100.687086
 30
0.0
 10
46.455465
 20
100.195768
 30
0.0
 10
46.630057
 20
99.442240
 30
0.0
  0
LWPOLYLINE
  5
20b
100
AcDbEntity
  8
Layer_1
 62
7
100
AcDbPolyline
 90
3
 70
0
 10
49.209192
 20
103.086875
 30
0.0
 10
49.126510
 20
103.174519
 30
0.0
 10
49.126510
 20
103.174519
 30
0.0
  0
SPLINE
  5
20c
100
AcDbEntity
  8
Layer_1
 62
7
100
AcDbSpline
 70
8
 71
3
 72
8
 73
4
 74
0
 40
0
 40
0
 40
0
 40
0
 40
1
 40
1
 40
1
 40
1
 10
45.576132
 20
99.172145
 30
0.0
 10
45.638040
 20
99.293207
 30
0.0
 10
45.689359
 20
99.372492
 30
0.0
 10
45.729923
 20
99.410820
 30
0.0
  0
SPLINE
  5
20d
100
AcDbEntity
  8
Layer_1
 62
7
100
AcDbSpline
 70
8
 71
3
 72
8
 73
4
 74
0
 40
0
 40
0
 40
0
 40
0
 40
1
 40
1
 40
1
 40
1
 10
45.729923
 20
99.410820
 30
0.0
 10
45.827569
 20
99.503090
 30
0.0
 10
45.939038
 20
99.483487
 30
0.0
 10
46.063958
 20
99.351289
 30
0.0
  0
LWPOLYLINE
  5
20e
100
AcDbEntity
  8
Layer_1
 62
7
100
AcDbPolyline
 90
5
 70
0
 10
46.630057
 20
99.442240
 30
0.0
 10
45.938282
 20
100.174805
 30
0.0
 10
45.839064
 20
100.081098
 30
0.0
 10
45.474159
 20
99.280183
 30
0.0
 10
45.576132
 20
99.172145
 30
0.0
  0
SPLINE
  5
20f
100
AcDbEntity
  8
Layer_1
 62
7
100
AcDbSpline
 70
8
 71
3
 72
8
 73
4
 74
0
 40
0
 40
0
 40
0
 40
0
 40
1
 40
1
 40
1
 40
1
 10
47.169146
 20
98.181610
 30
0.0
 10
47.288391
 20
98.055417
 30
0.0
 10
47.346227
 20
97.941018
 30
0.0
 10
47.343328
 20
97.838755
 30
0.0
  0
SPLINE
  5
210
100
AcDbEntity
  8
Layer_1
 62
7
100
AcDbSpline
 70
8
 71
3
 72
8
 73
4
 74
0
 40
0
 40
0
 40
0
 40
0
 40
1
 40
1
 40
1
 40
1
 10
47.343328
 20
97.838755
 30
0.0
 10
47.340444
 20
97.736484
 30
0.0
 10
47.277624
 20
97.624201
 30
0.0
 10
47.154262
 20
97.501963
 30
0.0
  0
LWPOLYLINE
  5
211
100
AcDbEntity
  8
Layer_1
 62
7
100
AcDbPolyline
 90
2
 70
0
 10
46.063958
 20
99.351289
 30
0.0
 10
47.169146
 20
98.181610
 30
0.0
  0
SPLINE
  5
212
100
AcDbEntity
  8
Layer_1
 62
7
100
AcDbSpline
 70
8
 71
3
 72
8
 73
4
 74
0
 40
0
 40
0
 40
0
 40
0
 40
1
 40
1
 40
1
 40
1
 10
48.326147
 20
98.609355
 30
0.0
 10
48.132351
 20
98.426232
 30
0.0
 10
47.975768
 20
98.329768
 30
0.0
 10
47.857063
 20
98.319964
 30
0.0
  0
SPLINE
  5
213
100
AcDbEntity
  8
Layer_1
 62
7
100
AcDbSpline
 70
8
 71
3
 72
8
 73
4
 74
0
 40
0
 40
0
 40
0
 40
0
 40
1
 40
1
 40
1
 40
1
 10
47.857063
 20
98.319964
 30
0.0
 10
47.723747
 20
98.310577
 30
0.0
 10
47.568731
 20
98.399519
 30
0.0
 10
47.391286
 20
98.587305
 30
0.0
  0
SPLINE
  5
214
100
AcDbEntity
  8
Layer_1
 62
7
100
AcDbSpline
 70
8
 71
3
 72
8
 73
4
 74
0
 40
0
 40
0
 40
0
 40
0
 40
1
 40
1
 40
1
 40
1
 10
47.391286
 20
98.587305
 30
0.0
 10
47.165573
 20
98.826166
 30
0.0
 10
46.977012
 20
99.114524
 30
0.0
 10
46.825738
 20
99.452160
 30
0.0
  0
SPLINE
  5
215
100
AcDbEntity
  8
Layer_1
 62
7
100
AcDbSpline
 70
8
 71
3
 72
8
 73
4
 74
0
 40
0
 40
0
 40
0
 40
0
 40
1
 40
1
 40
1
 40
1
 10
46.825738
 20
99.452160
 30
0.0
 10
46.624759
 20
99.893553
 30
0.0
 10
46.620924
 20
100.206106
 30
0.0
 10
46.814715
 20
100.389228
 30
0.0
  0
SPLINE
  5
216
100
AcDbEntity
  8
Layer_1
 62
7
100
AcDbSpline
 70
8
 71
3
 72
8
 73
4
 74
0
 40
0
 40
0
 40
0
 40
0
 40
1
 40
1
 40
1
 40
1
 10
46.814715
 20
100.389228
 30
0.0
 10
46.971018
 20
100.536927
 30
0.0
 10
47.178660
 20
100.475123
 30
0.0
 10
47.437034
 20
100.204570
 30
0.0
  0
LWPOLYLINE
  5
217
100
AcDbEntity
  8
Layer_1
 62
7
100
AcDbPolyline
 90
4
 70
0
 10
47.154262
 20
97.501963
 30
0.0
 10
47.256237
 20
97.393925
 30
0.0
 10
48.428120
 20
98.501314
 30
0.0
 10
48.326147
 20
98.609355
 30
0.0
  0
SPLINE
  5
218
100
AcDbEntity
  8
Layer_1
 62
7
100
AcDbSpline
 70
8
 71
3
 72
8
 73
4
 74
0
 40
0
 40
0
 40
0
 40
0
 40
1
 40
1
 40
1
 40
1
 10
44.158958
 20
99.617526
 30
0.0
 10
44.105728
 20
99.619123
 30
0.0
 10
44.051590
 20
99.612753
 30
0.0
 10
43.996350
 20
99.598233
 30
0.0
  0
SPLINE
  5
219
100
AcDbEntity
  8
Layer_1
 62
7
100
AcDbSpline
 70
8
 71
3
 72
8
 73
4
 74
0
 40
0
 40
0
 40
0
 40
0
 40
1
 40
1
 40
1
 40
1
 10
43.996350
 20
99.598233
 30
0.0
 10
43.829901
 20
99.554697
 30
0.0
 10
43.636201
 20
99.428775
 30
0.0
 10
43.415368
 20
99.220100
 30
0.0
  0
LWPOLYLINE
  5
21a
100
AcDbEntity
  8
Layer_1
 62
7
100
AcDbPolyline
 90
4
 70
0
 10
47.437034
 20
100.204570
 30
0.0
 10
47.596888
 20
100.356155
 30
0.0
 10
46.940941
 20
101.050134
 30
0.0
 10
46.940941
 20
101.050134
 30
0.0
  0
SPLINE
  5
21b
100
AcDbEntity
  8
Layer_1
 62
7
100
AcDbSpline
 70
8
 71
3
 72
8
 73
4
 74
0
 40
0
 40
0
 40
0
 40
0
 40
1
 40
1
 40
1
 40
1
 10
42.154187
 20
97.823320
 30
0.0
 10
42.290729
 20
97.946654
 30
0.0
 10
42.405833
 20
98.005831
 30
0.0
 10
42.499249
 20
98.000260
 30
0.0
  0
SPLINE
  5
21c
100
AcDbEntity
  8
Layer_1
 62
7
100
AcDbSpline
 70
8
 71
3
 72
8
 73
4
 74
0
 40
0
 40
0
 40
0
 40
0
 40
1
 40
1
 40
1
 40
1
 10
42.499249
 20
98.000260
 30
0.0
 10
42.594169
 20
97.996111
 30
0.0
 10
42.705522
 20
97.926552
 30
0.0
 10
42.833284
 20
97.791350
 30
0.0
  0
LWPOLYLINE
  5
21d
100
AcDbEntity
  8
Layer_1
 62
7
100
AcDbPolyline
 90
3
 70
0
 10
43.415368
 20
99.220100
 30
0.0
 10
42.052215
 20
97.931908
 30
0.0
 10
42.154187
 20
97.823320
 30
0.0
  0
SPLINE
  5
21e
100
AcDbEntity
  8
Layer_1
 62
7
100
AcDbSpline
 70
8
 71
3
 72
8
 73
4
 74
0
 40
0
 40
0
 40
0
 40
0
 40
1
 40
1
 40
1
 40
1
 10
44.677101
 20
95.839496
 30
0.0
 10
44.804863
 20
95.704292
 30
0.0
 10
44.868736
 20
95.588733
 30
0.0
 10
44.868925
 20
95.492230
 30
0.0
  0
SPLINE
  5
21f
100
AcDbEntity
  8
Layer_1
 62
7
100
AcDbSpline
 70
8
 71
3
 72
8
 73
4
 74
0
 40
0
 40
0
 40
0
 40
0
 40
1
 40
1
 40
1
 40
1
 10
44.868925
 20
95.492230
 30
0.0
 10
44.870680
 20
95.397081
 30
0.0
 10
44.805586
 20
95.285420
 30
0.0
 10
44.673243
 20
95.157644
 30
0.0
  0
LWPOLYLINE
  5
220
100
AcDbEntity
  8
Layer_1
 62
7
100
AcDbPolyline
 90
2
 70
0
 10
42.833284
 20
97.791350
 30
0.0
 10
44.677101
 20
95.839496
 30
0.0
  0
SPLINE
  5
221
100
AcDbEntity
  8
Layer_1
 62
7
100
AcDbSpline
 70
8
 71
3
 72
8
 73
4
 74
0
 40
0
 40
0
 40
0
 40
0
 40
1
 40
1
 40
1
 40
1
 10
45.832449
 20
96.048408
 30
0.0
 10
46.122384
 20
96.322384
 30
0.0
 10
46.294398
 20
96.663799
 30
0.0
 10
46.348385
 20
97.073117
 30
0.0
  0
SPLINE
  5
222
100
AcDbEntity
  8
Layer_1
 62
7
100
AcDbSpline
 70
8
 71
3
 72
8
 73
4
 74
0
 40
0
 40
0
 40
0
 40
0
 40
1
 40
1
 40
1
 40
1
 10
46.348385
 20
97.073117
 30
0.0
 10
46.403119
 20
97.508733
 30
0.0
 10
46.295874
 20
97.868470
 30
0.0
 10
46.027577
 20
98.152397
 30
0.0
  0
SPLINE
  5
223
100
AcDbEntity
  8
Layer_1
 62
7
100
AcDbSpline
 70
8
 71
3
 72
8
 73
4
 74
0
 40
0
 40
0
 40
0
 40
0
 40
1
 40
1
 40
1
 40
1
 10
46.027577
 20
98.152397
 30
0.0
 10
45.830259
 20
98.361213
 30
0.0
 10
45.612973
 20
98.428938
 30
0.0
 10
45.375491
 20
98.355242
 30
0.0
  0
SPLINE
  5
224
100
AcDbEntity
  8
Layer_1
 62
7
100
AcDbSpline
 70
8
 71
3
 72
8
 73
4
 74
0
 40
0
 40
0
 40
0
 40
0
 40
1
 40
1
 40
1
 40
1
 10
45.375491
 20
98.355242
 30
0.0
 10
45.211706
 20
98.302867
 30
0.0
 10
45.009192
 20
98.165097
 30
0.0
 10
44.767500
 20
97.942382
 30
0.0
  0
SPLINE
  5
225
100
AcDbEntity
  8
Layer_1
 62
7
100
AcDbSpline
 70
8
 71
3
 72
8
 73
4
 74
0
 40
0
 40
0
 40
0
 40
0
 40
1
 40
1
 40
1
 40
1
 10
44.767500
 20
97.942382
 30
0.0
 10
44.955576
 20
98.595001
 30
0.0
 10
44.903387
 20
99.075998
 30
0.0
 10
44.610954
 20
99.385466
 30
0.0
  0
SPLINE
  5
226
100
AcDbEntity
  8
Layer_1
 62
7
100
AcDbSpline
 70
8
 71
3
 72
8
 73
4
 74
0
 40
0
 40
0
 40
0
 40
0
 40
1
 40
1
 40
1
 40
1
 10
44.610954
 20
99.385466
 30
0.0
 10
44.469355
 20
99.535317
 30
0.0
 10
44.318648
 20
99.612734
 30
0.0
 10
44.158958
 20
99.617526
 30
0.0
  0
LWPOLYLINE
  5
227
100
AcDbEntity
  8
Layer_1
 62
7
100
AcDbPolyline
 90
3
 70
0
 10
44.673243
 20
95.157644
 30
0.0
 10
44.775216
 20
95.049604
 30
0.0
 10
45.832449
 20
96.048408
 30
0.0
  0
SPLINE
  5
228
100
AcDbEntity
  8
Layer_1
 62
7
100
AcDbSpline
 70
8
 71
3
 72
8
 73
4
 74
0
 40
0
 40
0
 40
0
 40
0
 40
1
 40
1
 40
1
 40
1
 10
43.725152
 20
99.070170
 30
0.0
 10
43.782550
 20
99.070556
 30
0.0
 10
43.841989
 20
99.063769
 30
0.0
 10
43.903745
 20
99.050327
 30
0.0
  0
SPLINE
  5
229
100
AcDbEntity
  8
Layer_1
 62
7
100
AcDbSpline
 70
8
 71
3
 72
8
 73
4
 74
0
 40
0
 40
0
 40
0
 40
0
 40
1
 40
1
 40
1
 40
1
 10
43.903745
 20
99.050327
 30
0.0
 10
44.121728
 20
99.003218
 30
0.0
 10
44.318388
 20
98.887290
 30
0.0
 10
44.492994
 20
98.702508
 30
0.0
  0
SPLINE
  5
22a
100
AcDbEntity
  8
Layer_1
 62
7
100
AcDbSpline
 70
8
 71
3
 72
8
 73
4
 74
0
 40
0
 40
0
 40
0
 40
0
 40
1
 40
1
 40
1
 40
1
 10
44.492994
 20
98.702508
 30
0.0
 10
44.776906
 20
98.402054
 30
0.0
 10
44.760365
 20
98.101902
 30
0.0
 10
44.443385
 20
97.802374
 30
0.0
  0
LWPOLYLINE
  5
22b
100
AcDbEntity
  8
Layer_1
 62
7
100
AcDbPolyline
 90
2
 70
0
 10
44.158958
 20
99.617526
 30
0.0
 10
44.158958
 20
99.617526
 30
0.0
  0
SPLINE
  5
22c
100
AcDbEntity
  8
Layer_1
 62
7
100
AcDbSpline
 70
8
 71
3
 72
8
 73
4
 74
0
 40
0
 40
0
 40
0
 40
0
 40
1
 40
1
 40
1
 40
1
 10
43.013534
 20
98.435170
 30
0.0
 10
43.034029
 20
98.591033
 30
0.0
 10
43.118919
 20
98.739465
 30
0.0
 10
43.267644
 20
98.880000
 30
0.0
  0
SPLINE
  5
22d
100
AcDbEntity
  8
Layer_1
 62
7
100
AcDbSpline
 70
8
 71
3
 72
8
 73
4
 74
0
 40
0
 40
0
 40
0
 40
0
 40
1
 40
1
 40
1
 40
1
 10
43.267644
 20
98.880000
 30
0.0
 10
43.400596
 20
99.005631
 30
0.0
 10
43.552959
 20
99.069013
 30
0.0
 10
43.725152
 20
99.070170
 30
0.0
  0
LWPOLYLINE
  5
22e
100
AcDbEntity
  8
Layer_1
 62
7
100
AcDbPolyline
 90
3
 70
0
 10
44.443385
 20
97.802374
 30
0.0
 10
44.003516
 20
97.387310
 30
0.0
 10
43.013534
 20
98.435170
 30
0.0
  0
SPLINE
  5
22f
100
AcDbEntity
  8
Layer_1
 62
7
100
AcDbSpline
 70
8
 71
3
 72
8
 73
4
 74
0
 40
0
 40
0
 40
0
 40
0
 40
1
 40
1
 40
1
 40
1
 10
45.104293
 20
97.829936
 30
0.0
 10
45.381951
 20
97.825000
 30
0.0
 10
45.632178
 20
97.704745
 30
0.0
 10
45.855049
 20
97.468889
 30
0.0
  0
SPLINE
  5
230
100
AcDbEntity
  8
Layer_1
 62
7
100
AcDbSpline
 70
8
 71
3
 72
8
 73
4
 74
0
 40
0
 40
0
 40
0
 40
0
 40
1
 40
1
 40
1
 40
1
 10
45.855049
 20
97.468889
 30
0.0
 10
46.018298
 20
97.296127
 30
0.0
 10
46.105123
 20
97.113365
 30
0.0
 10
46.115772
 20
96.921533
 30
0.0
  0
SPLINE
  5
231
100
AcDbEntity
  8
Layer_1
 62
7
100
AcDbSpline
 70
8
 71
3
 72
8
 73
4
 74
0
 40
0
 40
0
 40
0
 40
0
 40
1
 40
1
 40
1
 40
1
 10
46.115772
 20
96.921533
 30
0.0
 10
46.127433
 20
96.713586
 30
0.0
 10
46.049209
 20
96.530410
 30
0.0
 10
45.880954
 20
96.371420
 30
0.0
  0
SPLINE
  5
232
100
AcDbEntity
  8
Layer_1
 62
7
100
AcDbSpline
 70
8
 71
3
 72
8
 73
4
 74
0
 40
0
 40
0
 40
0
 40
0
 40
1
 40
1
 40
1
 40
1
 10
45.880954
 20
96.371420
 30
0.0
 10
45.712699
 20
96.212427
 30
0.0
 10
45.493621
 20
96.120894
 30
0.0
 10
45.223907
 20
96.096363
 30
0.0
  0
LWPOLYLINE
  5
233
100
AcDbEntity
  8
Layer_1
 62
7
100
AcDbPolyline
 90
2
 70
0
 10
43.725152
 20
99.070170
 30
0.0
 10
43.725152
 20
99.070170
 30
0.0
  0
SPLINE
  5
234
100
AcDbEntity
  8
Layer_1
 62
7
100
AcDbSpline
 70
8
 71
3
 72
8
 73
4
 74
0
 40
0
 40
0
 40
0
 40
0
 40
1
 40
1
 40
1
 40
1
 10
44.331489
 20
97.500859
 30
0.0
 10
44.568849
 20
97.725144
 30
0.0
 10
44.826637
 20
97.834863
 30
0.0
 10
45.104293
 20
97.829936
 30
0.0
  0
LWPOLYLINE
  5
235
100
AcDbEntity
  8
Layer_1
 62
7
100
AcDbPolyline
 90
3
 70
0
 10
45.223907
 20
96.096363
 30
0.0
 10
44.101631
 20
97.283681
 30
0.0
 10
44.331489
 20
97.500859
 30
0.0
  0
LWPOLYLINE
  5
236
100
AcDbEntity
  8
Layer_1
 62
7
100
AcDbPolyline
 90
2
 70
0
 10
45.104293
 20
97.829936
 30
0.0
 10
45.104293
 20
97.829936
 30
0.0
  0
ENDSEC
  0
SECTION
  2
OBJECTS
  0
DICTIONARY
  5
C
330
0
100
AcDbDictionary
  3
ACAD_GROUP
350
D
  3
ACAD_MLINESTYLE
350
17
  0
DICTIONARY
  5
D
330
C
100
AcDbDictionary
  0
DICTIONARY
  5
1A
330
C
100
AcDbDictionary
  0
DICTIONARY
  5
17
330
C
100
AcDbDictionary
  3
STANDARD
350
18
  0
DICTIONARY
  5
19
330
C
100
AcDbDictionary
  0
ENDSEC
  0
EOF
