<?xml version="1.0" encoding="UTF-8" standalone="no"?>
<svg
   xmlns:dc="http://purl.org/dc/elements/1.1/"
   xmlns:cc="http://creativecommons.org/ns#"
   xmlns:rdf="http://www.w3.org/1999/02/22-rdf-syntax-ns#"
   xmlns:svg="http://www.w3.org/2000/svg"
   xmlns="http://www.w3.org/2000/svg"
   xmlns:sodipodi="http://sodipodi.sourceforge.net/DTD/sodipodi-0.dtd"
   xmlns:inkscape="http://www.inkscape.org/namespaces/inkscape"
   version="1.1"
   width="460.7mm"
   height="204.7mm"
   viewBox=" 0 0 1632.402917 725.3155569999999"
   id="svg2"
   inkscape:version="0.91 r13725"
   sodipodi:docname="caseplans.svg">
  <metadata
     id="metadata32">
    <rdf:RDF>
      <cc:Work
         rdf:about="">
        <dc:format>image/svg+xml</dc:format>
        <dc:type
           rdf:resource="http://purl.org/dc/dcmitype/StillImage" />
        <dc:title></dc:title>
      </cc:Work>
    </rdf:RDF>
  </metadata>
  <defs
     id="defs30" />
  <sodipodi:namedview
     pagecolor="#ffffff"
     bordercolor="#666666"
     borderopacity="1"
     objecttolerance="10"
     gridtolerance="10"
     guidetolerance="10"
     inkscape:pageopacity="0"
     inkscape:pageshadow="2"
     inkscape:window-width="1360"
     inkscape:window-height="749"
     id="namedview28"
     showgrid="false"
     inkscape:zoom="0.37613293"
     inkscape:cx="694.10745"
     inkscape:cy="320.01815"
     inkscape:window-x="1436"
     inkscape:window-y="-4"
     inkscape:window-maximized="1"
     inkscape:current-layer="svg2" />
  <!-- Front-->
  <path
     inkscape:connector-curvature="0"
     id="polygon6"
     d="m 36.673766,22.5 0,39.685547 -14.173828,0 0,39.683593 14.173828,0 0,14.35156 3.896484,0 0,-4.42968 8.859376,0 0,4.42968 8.857421,0 0,10.98438 -8.857421,0 0,4.42969 -8.859376,0 0,-4.42969 -3.896484,0 0,14.34961 -14.173828,0 0,39.68554 14.173828,0 0,39.68555 36.31836,0 0,-14.17383 19.753906,0 0,-3.89843 -4.429688,0 0,-8.85743 4.429688,0 0,-8.85742 10.984378,0 0,8.85742 4.42969,0 0,8.85743 -4.42969,0 0,3.89843 19.75391,0 0,14.17383 38.97656,0 0,-14.17383 38.97656,0 0,14.17383 38.97656,0 0,-14.17383 38.97656,0 0,14.17383 38.97461,0 0,-14.17383 38.97657,0 0,14.17383 38.97656,0 0,-14.17383 38.97656,0 0,14.17383 38.97656,0 0,-14.17383 19.75391,0 0,-3.89843 -4.42969,0 0,-8.85743 4.42969,0 0,-8.85742 10.98438,0 0,8.85742 4.42968,0 0,8.85743 -4.42968,0 0,3.89843 19.7539,0 0,14.17383 36.31836,0 0,-39.68555 14.17383,0 0,-39.68554 -14.17383,0 0,-14.34961 -3.89648,0 0,4.42969 -8.85938,0 0,-4.42969 -8.85742,0 0,-10.98438 8.85742,0 0,-4.42968 8.85938,0 0,4.42968 3.89648,0 0,-14.35156 14.17383,0 0,-39.683592 -14.17383,0 0,-39.685547 -36.31836,0 0,14.173828 -19.7539,0 0,3.896484 4.42968,0 0,8.859376 -4.42968,0 0,8.857421 -10.98438,0 0,-8.857421 -4.42969,0 0,-8.859376 4.42969,0 0,-3.896484 -19.75391,0 0,-14.173828 -38.97656,0 0,14.173828 -38.97656,0 0,-14.173828 -38.97656,0 0,14.173828 -38.97657,0 0,-14.173828 -38.97461,0 0,14.173828 -38.97656,0 0,-14.173828 -38.97656,0 0,14.173828 -38.97656,0 0,-14.173828 -38.97656,0 0,14.173828 -19.75391,0 0,3.896484 4.42969,0 0,8.859376 -4.42969,0 0,8.857421 -10.984377,0 0,-8.857421 -4.429688,0 0,-8.859376 4.429688,0 0,-3.896484 -19.753906,0 0,-14.173828 -36.31836,0 z"
     style="fill:none;stroke:#000000;stroke-width:0.90000075" />
  <!-- Back-->
  <path
     inkscape:connector-curvature="0"
     id="polygon10"
     d="m 589.42963,22.5 0,39.685547 -14.17383,0 0,39.683593 14.17383,0 0,14.35156 3.89648,0 0,-4.42968 8.85938,0 0,4.42968 8.85742,0 0,10.98438 -8.85742,0 0,4.42969 -8.85938,0 0,-4.42969 -3.89648,0 0,14.34961 -14.17383,0 0,39.68554 14.17383,0 0,39.68555 36.31836,0 0,-14.17383 19.7539,0 0,-3.89843 -4.42968,0 0,-8.85743 4.42968,0 0,-8.85742 10.98438,0 0,8.85742 4.42969,0 0,8.85743 -4.42969,0 0,3.89843 19.7539,0 0,14.17383 38.97657,0 0,-14.17383 38.97656,0 0,14.17383 38.97656,0 0,-14.17383 38.97656,0 0,14.17383 38.97461,0 0,-14.17383 38.97657,0 0,14.17383 38.97656,0 0,-14.17383 38.97656,0 0,14.17383 38.97648,0 0,-14.17383 19.7539,0 0,-3.89843 -4.4296,0 0,-8.85743 4.4296,0 0,-8.85742 10.9844,0 0,8.85742 4.4297,0 0,8.85743 -4.4297,0 0,3.89843 19.7539,0 0,14.17383 36.3184,0 0,-39.68555 14.1738,0 0,-39.68554 -14.1738,0 0,-14.34961 -3.8965,0 0,4.42969 -8.8594,0 0,-4.42969 -8.8574,0 0,-10.98438 8.8574,0 0,-4.42968 8.8594,0 0,4.42968 3.8965,0 0,-14.35156 14.1738,0 0,-39.683592 -14.1738,0 0,-39.685547 -36.3184,0 0,14.173828 -19.7539,0 0,3.896484 4.4297,0 0,8.859376 -4.4297,0 0,8.857421 -10.9844,0 0,-8.857421 -4.4296,0 0,-8.859376 4.4296,0 0,-3.896484 -19.7539,0 0,-14.173828 -38.97648,0 0,14.173828 -38.97656,0 0,-14.173828 -38.97656,0 0,14.173828 -38.97657,0 0,-14.173828 -38.97461,0 0,14.173828 -38.97656,0 0,-14.173828 -38.97656,0 0,14.173828 -38.97656,0 0,-14.173828 -38.97657,0 0,14.173828 -19.7539,0 0,3.896484 4.42969,0 0,8.859376 -4.42969,0 0,8.857421 -10.98438,0 0,-8.857421 -4.42968,0 0,-8.859376 4.42968,0 0,-3.896484 -19.7539,0 0,-14.173828 -36.31836,0 z"
     style="fill:none;stroke:#000000;stroke-width:0.90000075" />
  <!-- Left-->
  <path
     inkscape:connector-curvature="0"
     id="polygon14"
     d="m 1180.2753,22.5 0,14.173828 -52.2637,0 0,25.511719 14.1738,0 0,39.683593 -14.1738,0 0,13.28906 13.1094,0 0,13.10938 -13.1094,0 0,13.28711 14.1738,0 0,39.68554 -14.1738,0 0,25.51172 52.2637,0 0,14.17383 19.5762,0 0,-13.11133 13.1113,0 0,13.11133 19.5762,0 0,-14.17383 38.9765,0 0,14.17383 38.9766,0 0,-14.17383 38.9766,0 0,14.17383 38.9765,0 0,-14.17383 38.9766,0 0,14.17383 38.9765,0 0,-14.17383 38.9746,0 0,14.17383 19.5782,0 0,-13.11133 13.1093,0 0,13.11133 19.5782,0 0,-14.17383 52.2636,0 0,-25.51172 -14.1738,0 0,-39.68554 14.1738,0 0,-13.28711 -13.1113,0 0,-13.10938 13.1113,0 0,-13.28906 -14.1738,0 0,-39.683593 14.1738,0 0,-25.511719 -52.2636,0 0,-14.173828 -19.5782,0 0,13.109375 -13.1093,0 0,-13.109375 -19.5782,0 0,14.173828 -38.9746,0 0,-14.173828 -38.9765,0 0,14.173828 -38.9766,0 0,-14.173828 -38.9765,0 0,14.173828 -38.9766,0 0,-14.173828 -38.9766,0 0,14.173828 -38.9765,0 0,-14.173828 -19.5762,0 0,13.109375 -13.1113,0 0,-13.109375 -19.5762,0 z"
     style="fill:none;stroke:#000000;stroke-width:0.90000075" />
  <!-- Right-->
  <path
     inkscape:connector-curvature="0"
     id="polygon18"
     d="m 1180.2753,220.92578 0,14.17188 -52.2637,0 0,25.51172 14.1738,0 0,39.68554 -14.1738,0 0,13.28711 13.1094,0 0,13.11133 -13.1094,0 0,13.28711 14.1738,0 0,39.68555 -14.1738,0 0,25.51171 52.2637,0 0,14.17188 19.5762,0 0,-13.10938 13.1113,0 0,13.10938 19.5762,0 0,-14.17188 38.9765,0 0,14.17188 38.9766,0 0,-14.17188 38.9766,0 0,14.17188 38.9765,0 0,-14.17188 38.9766,0 0,14.17188 38.9765,0 0,-14.17188 38.9746,0 0,14.17188 19.5782,0 0,-13.10938 13.1093,0 0,13.10938 19.5782,0 0,-14.17188 52.2636,0 0,-25.51171 -14.1738,0 0,-39.68555 14.1738,0 0,-13.28711 -13.1113,0 0,-13.11133 13.1113,0 0,-13.28711 -14.1738,0 0,-39.68554 14.1738,0 0,-25.51172 -52.2636,0 0,-14.17188 -19.5782,0 0,13.10938 -13.1093,0 0,-13.10938 -19.5782,0 0,14.17188 -38.9746,0 0,-14.17188 -38.9765,0 0,14.17188 -38.9766,0 0,-14.17188 -38.9765,0 0,14.17188 -38.9766,0 0,-14.17188 -38.9766,0 0,14.17188 -38.9765,0 0,-14.17188 -19.5762,0 0,13.10938 -13.1113,0 0,-13.10938 -19.5762,0 z"
     style="fill:none;stroke:#000000;stroke-width:0.90000075" />
  <!-- Top-->
  <path
     inkscape:connector-curvature="0"
     id="polygon22"
     d="m 72.992126,220.92578 0,14.17188 -50.492188,0 0,38.09179 14.173828,0 0,20.63867 3.896484,0 0,-4.42773 8.859376,0 0,4.42773 8.857421,0 0,10.98438 -8.857421,0 0,4.42969 -8.859376,0 0,-4.42969 -3.896484,0 0,20.64062 -14.173828,0 0,38.97657 14.173828,0 0,38.97656 -14.173828,0 0,38.97656 14.173828,0 0,38.97461 -14.173828,0 0,38.97656 14.173828,0 0,38.97657 -14.173828,0 0,38.97656 14.173828,0 0,20.64062 3.896484,0 0,-4.42968 8.859376,0 0,4.42968 8.857421,0 0,10.98438 -8.857421,0 0,4.42773 -8.859376,0 0,-4.42773 -3.896484,0 0,20.63867 -14.173828,0 0,38.0918 50.492188,0 0,14.17187 18.691406,0 0,-13.10937 13.109378,0 0,13.10937 18.69141,0 0,-14.17187 38.97656,0 0,14.17187 38.97656,0 0,-14.17187 38.97656,0 0,14.17187 38.97656,0 0,-14.17187 38.97461,0 0,14.17187 38.97657,0 0,-14.17187 38.97656,0 0,14.17187 38.97656,0 0,-14.17187 38.97656,0 0,14.17187 18.69141,0 0,-13.10937 13.10938,0 0,13.10937 18.6914,0 0,-14.17187 50.49219,0 0,-38.0918 -14.17383,0 0,-20.63867 -3.89648,0 0,4.42773 -8.85938,0 0,-4.42773 -8.85742,0 0,-10.98438 8.85742,0 0,-4.42968 8.85938,0 0,4.42968 3.89648,0 0,-20.64062 14.17383,0 0,-38.97656 -14.17383,0 0,-38.97657 14.17383,0 0,-38.97656 -14.17383,0 0,-38.97461 14.17383,0 0,-38.97656 -14.17383,0 0,-38.97656 14.17383,0 0,-38.97657 -14.17383,0 0,-20.64062 -3.89648,0 0,4.42969 -8.85938,0 0,-4.42969 -8.85742,0 0,-10.98438 8.85742,0 0,-4.42773 8.85938,0 0,4.42773 3.89648,0 0,-20.63867 14.17383,0 0,-38.09179 -50.49219,0 0,-14.17188 -18.6914,0 0,13.10938 -13.10938,0 0,-13.10938 -18.69141,0 0,14.17188 -38.97656,0 0,-14.17188 -38.97656,0 0,14.17188 -38.97656,0 0,-14.17188 -38.97657,0 0,14.17188 -38.97461,0 0,-14.17188 -38.97656,0 0,14.17188 -38.97656,0 0,-14.17188 -38.97656,0 0,14.17188 -38.97656,0 0,-14.17188 -18.69141,0 0,13.10938 -13.109377,0 0,-13.10938 -18.691406,0 z"
     style="fill:none;stroke:#000000;stroke-width:0.90000075" />
  <!-- Bottom-->
  <path
     inkscape:connector-curvature="0"
     id="polygon26"
     d="m 625.74799,220.92578 0,14.17188 -50.49219,0 0,38.09179 14.17383,0 0,20.63867 3.89648,0 0,-4.42773 8.85938,0 0,4.42773 8.85742,0 0,10.98438 -8.85742,0 0,4.42969 -8.85938,0 0,-4.42969 -3.89648,0 0,20.64062 -14.17383,0 0,38.97657 14.17383,0 0,38.97656 -14.17383,0 0,38.97656 14.17383,0 0,38.97461 -14.17383,0 0,38.97656 14.17383,0 0,38.97657 -14.17383,0 0,38.97656 14.17383,0 0,20.64062 3.89648,0 0,-4.42968 8.85938,0 0,4.42968 8.85742,0 0,10.98438 -8.85742,0 0,4.42773 -8.85938,0 0,-4.42773 -3.89648,0 0,20.63867 -14.17383,0 0,38.0918 50.49219,0 0,14.17187 18.6914,0 0,-13.10937 13.10938,0 0,13.10937 18.6914,0 0,-14.17187 38.97657,0 0,14.17187 38.97656,0 0,-14.17187 38.97656,0 0,14.17187 38.97656,0 0,-14.17187 38.97461,0 0,14.17187 38.97657,0 0,-14.17187 38.97656,0 0,14.17187 38.97656,0 0,-14.17187 38.97648,0 0,14.17187 18.6915,0 0,-13.10937 13.1093,0 0,13.10937 18.6914,0 0,-14.17187 50.4922,0 0,-38.0918 -14.1738,0 0,-20.63867 -3.8965,0 0,4.42773 -8.8594,0 0,-4.42773 -8.8574,0 0,-10.98438 8.8574,0 0,-4.42968 8.8594,0 0,4.42968 3.8965,0 0,-20.64062 14.1738,0 0,-38.97656 -14.1738,0 0,-38.97657 14.1738,0 0,-38.97656 -14.1738,0 0,-38.97461 14.1738,0 0,-38.97656 -14.1738,0 0,-38.97656 14.1738,0 0,-38.97657 -14.1738,0 0,-20.64062 -3.8965,0 0,4.42969 -8.8594,0 0,-4.42969 -8.8574,0 0,-10.98438 8.8574,0 0,-4.42773 8.8594,0 0,4.42773 3.8965,0 0,-20.63867 14.1738,0 0,-38.09179 -50.4922,0 0,-14.17188 -18.6914,0 0,13.10938 -13.1093,0 0,-13.10938 -18.6915,0 0,14.17188 -38.97648,0 0,-14.17188 -38.97656,0 0,14.17188 -38.97656,0 0,-14.17188 -38.97657,0 0,14.17188 -38.97461,0 0,-14.17188 -38.97656,0 0,14.17188 -38.97656,0 0,-14.17188 -38.97656,0 0,14.17188 -38.97657,0 0,-14.17188 -18.6914,0 0,13.10938 -13.10938,0 0,-13.10938 -18.6914,0 z"
     style="fill:none;stroke:#000000;stroke-width:0.90000075" />
</svg>
