  0
SECTION
  2
HEADER
  9
$ACADVER
  1
AC1014
  9
$HANDSEED
  5
FFFF
  9
$MEASUREMENT
 70
     1
  0
ENDSEC
  0
SECTION
  2
TABLES
  0
TABLE
  2
VPORT
  5
8
330
0
100
AcDbSymbolTable
 70
     4
  0
VPORT
  5
2E
330
8
100
AcDbSymbolTableRecord
100
AcDbViewportTableRecord
  2
*ACTIVE
 70
     0
 10
0.0
 20
0.0
 11
1.0
 21
1.0
 12
210.0
 22
148.5
 13
0.0
 23
0.0
 14
10.0
 24
10.0
 15
10.0
 25
10.0
 16
0.0
 26
0.0
 36
1.0
 17
0.0
 27
0.0
 37
0.0
 40
341.0
 41
1.24
 42
50.0
 43
0.0
 44
0.0
 50
0.0
 51
0.0
 71
     0
 72
   100
 73
     1
 74
     3
 75
     0
 76
     0
 77
     0
 78
     0
  0
ENDTAB
  0
TABLE
  2
LTYPE
  5
5
330
0
100
AcDbSymbolTable
 70
     1
  0
LTYPE
  5
14
330
5
100
AcDbSymbolTableRecord
100
AcDbLinetypeTableRecord
  2
BYBLOCK
 70
     0
  3

 72
    65
 73
     0
 40
0.0
  0
LTYPE
  5
15
330
5
100
AcDbSymbolTableRecord
100
AcDbLinetypeTableRecord
  2
BYLAYER
 70
     0
  3

 72
    65
 73
     0
 40
0.0
  0
LTYPE
  5
16
330
5
100
AcDbSymbolTableRecord
100
AcDbLinetypeTableRecord
  2
CONTINUOUS
 70
     0
  3
Solid line
 72
    65
 73
     0
 40
0.0
  0
ENDTAB
  0
TABLE
  2
LAYER
  5
2
100
AcDbSymbolTable
 70
1
  0
LAYER
  5
50
100
AcDbSymbolTableRecord
100
AcDbLayerTableRecord
  2
0
 70
0
  6
CONTINUOUS
  0
ENDTAB
  0
TABLE
  2
STYLE
  5
3
330
0
100
AcDbSymbolTable
 70
     1
  0
STYLE
  5
11
330
3
100
AcDbSymbolTableRecord
100
AcDbTextStyleTableRecord
  2
STANDARD
 70
     0
 40
0.0
 41
1.0
 50
0.0
 71
     0
 42
2.5
  3
txt
  4

  0
ENDTAB
  0
TABLE
  2
VIEW
  5
6
330
0
100
AcDbSymbolTable
 70
     0
  0
ENDTAB
  0
TABLE
  2
UCS
  5
7
330
0
100
AcDbSymbolTable
 70
     0
  0
ENDTAB
  0
TABLE
  2
APPID
  5
9
330
0
100
AcDbSymbolTable
 70
     2
  0
APPID
  5
12
330
9
100
AcDbSymbolTableRecord
100
AcDbRegAppTableRecord
  2
ACAD
 70
     0
  0
ENDTAB
  0
TABLE
  2
DIMSTYLE
  5
A
330
0
100
AcDbSymbolTable
 70
     1
  0
DIMSTYLE
105
27
330
A
100
AcDbSymbolTableRecord
100
AcDbDimStyleTableRecord
  2
ISO-25
 70
     0
  3

  4

  5

  6

  7

 40
1.0
 41
2.5
 42
0.625
 43
3.75
 44
1.25
 45
0.0
 46
0.0
 47
0.0
 48
0.0
140
2.5
141
2.5
142
0.0
143
0.03937007874016
144
1.0
145
0.0
146
1.0
147
0.625
 71
     0
 72
     0
 73
     0
 74
     0
 75
     0
 76
     0
 77
     1
 78
     8
170
     0
171
     3
172
     1
173
     0
174
     0
175
     0
176
     0
177
     0
178
     0
270
     2
271
     2
272
     2
273
     2
274
     3
340
11
275
     0
280
     0
281
     0
282
     0
283
     0
284
     8
285
     0
286
     0
287
     3
288
     0
  0
ENDTAB
  0
TABLE
  2
BLOCK_RECORD
  5
1
330
0
100
AcDbSymbolTable
 70
     1
  0
BLOCK_RECORD
  5
1F
330
1
100
AcDbSymbolTableRecord
100
AcDbBlockTableRecord
  2
*MODEL_SPACE
  0
BLOCK_RECORD
  5
1B
330
1
100
AcDbSymbolTableRecord
100
AcDbBlockTableRecord
  2
*PAPER_SPACE
  0
ENDTAB
  0
ENDSEC
  0
SECTION
  2
BLOCKS
  0
BLOCK
  5
20
330
1F
100
AcDbEntity
  8
0
100
AcDbBlockBegin
  2
*MODEL_SPACE
 70
     0
 10
0.0
 20
0.0
 30
0.0
  3
*MODEL_SPACE
  1

  0
ENDBLK
  5
21
330
1F
100
AcDbEntity
  8
0
100
AcDbBlockEnd
  0
BLOCK
  5
1C
330
1B
100
AcDbEntity
 67
     1
  8
0
100
AcDbBlockBegin
  2
*PAPER_SPACE
  1

  0
ENDBLK
  5
1D
330
1B
100
AcDbEntity
 67
     1
  8
0
100
AcDbBlockEnd
  0
ENDSEC
  0
SECTION
  2
ENTITIES
  0
LWPOLYLINE
  5
100
100
AcDbEntity
  8
0
 62
7
100
AcDbPolyline
 90
142
 70
1
 10
10.350152
 20
198.350000
 30
0.0
 10
10.350152
 20
187.149857
 30
0.0
 10
6.349983
 20
187.149857
 30
0.0
 10
6.349983
 20
175.950265
 30
0.0
 10
10.350152
 20
175.950265
 30
0.0
 10
10.350152
 20
171.899936
 30
0.0
 10
11.449826
 20
171.899936
 30
0.0
 10
11.449826
 20
173.150090
 30
0.0
 10
13.950139
 20
173.150090
 30
0.0
 10
13.950139
 20
171.899936
 30
0.0
 10
16.449900
 20
171.899936
 30
0.0
 10
16.449900
 20
168.799900
 30
0.0
 10
13.950139
 20
168.799900
 30
0.0
 10
13.950139
 20
167.549743
 30
0.0
 10
11.449826
 20
167.549743
 30
0.0
 10
11.449826
 20
168.799900
 30
0.0
 10
10.350152
 20
168.799900
 30
0.0
 10
10.350152
 20
164.750121
 30
0.0
 10
6.349983
 20
164.750121
 30
0.0
 10
6.349983
 20
153.549980
 30
0.0
 10
10.350152
 20
153.549980
 30
0.0
 10
10.350152
 20
142.349835
 30
0.0
 10
20.600000
 20
142.349835
 30
0.0
 10
20.600000
 20
146.350005
 30
0.0
 10
26.174991
 20
146.350005
 30
0.0
 10
26.174991
 20
147.450229
 30
0.0
 10
24.924835
 20
147.450229
 30
0.0
 10
24.924835
 20
149.949992
 30
0.0
 10
26.174991
 20
149.949992
 30
0.0
 10
26.174991
 20
152.449753
 30
0.0
 10
29.275027
 20
152.449753
 30
0.0
 10
29.275027
 20
149.949992
 30
0.0
 10
30.525184
 20
149.949992
 30
0.0
 10
30.525184
 20
147.450229
 30
0.0
 10
29.275027
 20
147.450229
 30
0.0
 10
29.275027
 20
146.350005
 30
0.0
 10
34.850019
 20
146.350005
 30
0.0
 10
34.850019
 20
142.349835
 30
0.0
 10
45.850071
 20
142.349835
 30
0.0
 10
45.850071
 20
146.350005
 30
0.0
 10
56.850122
 20
146.350005
 30
0.0
 10
56.850122
 20
142.349835
 30
0.0
 10
67.850173
 20
142.349835
 30
0.0
 10
67.850173
 20
146.350005
 30
0.0
 10
78.850225
 20
146.350005
 30
0.0
 10
78.850225
 20
142.349835
 30
0.0
 10
89.849726
 20
142.349835
 30
0.0
 10
89.849726
 20
146.350005
 30
0.0
 10
100.849780
 20
146.350005
 30
0.0
 10
100.849780
 20
142.349835
 30
0.0
 10
111.849831
 20
142.349835
 30
0.0
 10
111.849831
 20
146.350005
 30
0.0
 10
122.849883
 20
146.350005
 30
0.0
 10
122.849883
 20
142.349835
 30
0.0
 10
133.849934
 20
142.349835
 30
0.0
 10
133.849934
 20
146.350005
 30
0.0
 10
139.424926
 20
146.350005
 30
0.0
 10
139.424926
 20
147.450229
 30
0.0
 10
138.174770
 20
147.450229
 30
0.0
 10
138.174770
 20
149.949992
 30
0.0
 10
139.424926
 20
149.949992
 30
0.0
 10
139.424926
 20
152.449753
 30
0.0
 10
142.524963
 20
152.449753
 30
0.0
 10
142.524963
 20
149.949992
 30
0.0
 10
143.775117
 20
149.949992
 30
0.0
 10
143.775117
 20
147.450229
 30
0.0
 10
142.524963
 20
147.450229
 30
0.0
 10
142.524963
 20
146.350005
 30
0.0
 10
148.099952
 20
146.350005
 30
0.0
 10
148.099952
 20
142.349835
 30
0.0
 10
158.349800
 20
142.349835
 30
0.0
 10
158.349800
 20
153.549980
 30
0.0
 10
162.349970
 20
153.549980
 30
0.0
 10
162.349970
 20
164.750121
 30
0.0
 10
158.349800
 20
164.750121
 30
0.0
 10
158.349800
 20
168.799900
 30
0.0
 10
157.250127
 20
168.799900
 30
0.0
 10
157.250127
 20
167.549743
 30
0.0
 10
154.749813
 20
167.549743
 30
0.0
 10
154.749813
 20
168.799900
 30
0.0
 10
152.250053
 20
168.799900
 30
0.0
 10
152.250053
 20
171.899936
 30
0.0
 10
154.749813
 20
171.899936
 30
0.0
 10
154.749813
 20
173.150090
 30
0.0
 10
157.250127
 20
173.150090
 30
0.0
 10
157.250127
 20
171.899936
 30
0.0
 10
158.349800
 20
171.899936
 30
0.0
 10
158.349800
 20
175.950265
 30
0.0
 10
162.349970
 20
175.950265
 30
0.0
 10
162.349970
 20
187.149856
 30
0.0
 10
158.349800
 20
187.149856
 30
0.0
 10
158.349800
 20
198.350000
 30
0.0
 10
148.099952
 20
198.350000
 30
0.0
 10
148.099952
 20
194.349830
 30
0.0
 10
142.524963
 20
194.349830
 30
0.0
 10
142.524963
 20
193.250156
 30
0.0
 10
143.775117
 20
193.250156
 30
0.0
 10
143.775117
 20
190.749843
 30
0.0
 10
142.524963
 20
190.749843
 30
0.0
 10
142.524963
 20
188.250082
 30
0.0
 10
139.424926
 20
188.250082
 30
0.0
 10
139.424926
 20
190.749843
 30
0.0
 10
138.174770
 20
190.749843
 30
0.0
 10
138.174770
 20
193.250156
 30
0.0
 10
139.424926
 20
193.250156
 30
0.0
 10
139.424926
 20
194.349830
 30
0.0
 10
133.849934
 20
194.349830
 30
0.0
 10
133.849934
 20
198.350000
 30
0.0
 10
122.849883
 20
198.350000
 30
0.0
 10
122.849883
 20
194.349830
 30
0.0
 10
111.849831
 20
194.349830
 30
0.0
 10
111.849831
 20
198.350000
 30
0.0
 10
100.849780
 20
198.350000
 30
0.0
 10
100.849780
 20
194.349830
 30
0.0
 10
89.849726
 20
194.349830
 30
0.0
 10
89.849726
 20
198.350000
 30
0.0
 10
78.850225
 20
198.350000
 30
0.0
 10
78.850225
 20
194.349830
 30
0.0
 10
67.850173
 20
194.349830
 30
0.0
 10
67.850173
 20
198.350000
 30
0.0
 10
56.850122
 20
198.350000
 30
0.0
 10
56.850122
 20
194.349830
 30
0.0
 10
45.850071
 20
194.349830
 30
0.0
 10
45.850071
 20
198.350000
 30
0.0
 10
34.850019
 20
198.350000
 30
0.0
 10
34.850019
 20
194.349830
 30
0.0
 10
29.275027
 20
194.349830
 30
0.0
 10
29.275027
 20
193.250156
 30
0.0
 10
30.525184
 20
193.250156
 30
0.0
 10
30.525184
 20
190.749843
 30
0.0
 10
29.275027
 20
190.749843
 30
0.0
 10
29.275027
 20
188.250082
 30
0.0
 10
26.174992
 20
188.250082
 30
0.0
 10
26.174992
 20
190.749843
 30
0.0
 10
24.924835
 20
190.749843
 30
0.0
 10
24.924835
 20
193.250156
 30
0.0
 10
26.174992
 20
193.250156
 30
0.0
 10
26.174992
 20
194.349830
 30
0.0
 10
20.600000
 20
194.349830
 30
0.0
 10
20.600000
 20
198.350000
 30
0.0
 10
10.350152
 20
198.350000
 30
0.0
 10
10.350152
 20
198.350000
 30
0.0
  0
LWPOLYLINE
  5
101
100
AcDbEntity
  8
0
 62
7
100
AcDbPolyline
 90
142
 70
1
 10
166.350140
 20
198.350000
 30
0.0
 10
166.350140
 20
187.149857
 30
0.0
 10
162.349970
 20
187.149857
 30
0.0
 10
162.349970
 20
175.950265
 30
0.0
 10
166.350140
 20
175.950265
 30
0.0
 10
166.350140
 20
171.899936
 30
0.0
 10
167.449813
 20
171.899936
 30
0.0
 10
167.449813
 20
173.150090
 30
0.0
 10
169.950127
 20
173.150090
 30
0.0
 10
169.950127
 20
171.899936
 30
0.0
 10
172.449888
 20
171.899936
 30
0.0
 10
172.449888
 20
168.799900
 30
0.0
 10
169.950127
 20
168.799900
 30
0.0
 10
169.950127
 20
167.549743
 30
0.0
 10
167.449813
 20
167.549743
 30
0.0
 10
167.449813
 20
168.799900
 30
0.0
 10
166.350140
 20
168.799900
 30
0.0
 10
166.350140
 20
164.750121
 30
0.0
 10
162.349970
 20
164.750121
 30
0.0
 10
162.349970
 20
153.549980
 30
0.0
 10
166.350140
 20
153.549980
 30
0.0
 10
166.350140
 20
142.349835
 30
0.0
 10
176.599988
 20
142.349835
 30
0.0
 10
176.599988
 20
146.350005
 30
0.0
 10
182.174978
 20
146.350005
 30
0.0
 10
182.174978
 20
147.450229
 30
0.0
 10
180.924824
 20
147.450229
 30
0.0
 10
180.924824
 20
149.949992
 30
0.0
 10
182.174978
 20
149.949992
 30
0.0
 10
182.174978
 20
152.449753
 30
0.0
 10
185.275014
 20
152.449753
 30
0.0
 10
185.275014
 20
149.949992
 30
0.0
 10
186.525171
 20
149.949992
 30
0.0
 10
186.525171
 20
147.450229
 30
0.0
 10
185.275014
 20
147.450229
 30
0.0
 10
185.275014
 20
146.350005
 30
0.0
 10
190.850004
 20
146.350005
 30
0.0
 10
190.850004
 20
142.349835
 30
0.0
 10
201.850058
 20
142.349835
 30
0.0
 10
201.850058
 20
146.350005
 30
0.0
 10
212.850109
 20
146.350005
 30
0.0
 10
212.850109
 20
142.349835
 30
0.0
 10
223.850160
 20
142.349835
 30
0.0
 10
223.850160
 20
146.350005
 30
0.0
 10
234.850212
 20
146.350005
 30
0.0
 10
234.850212
 20
142.349835
 30
0.0
 10
245.849713
 20
142.349835
 30
0.0
 10
245.849713
 20
146.350005
 30
0.0
 10
256.849767
 20
146.350005
 30
0.0
 10
256.849767
 20
142.349835
 30
0.0
 10
267.849818
 20
142.349835
 30
0.0
 10
267.849818
 20
146.350005
 30
0.0
 10
278.849870
 20
146.350005
 30
0.0
 10
278.849870
 20
142.349835
 30
0.0
 10
289.849899
 20
142.349835
 30
0.0
 10
289.849899
 20
146.350005
 30
0.0
 10
295.424888
 20
146.350005
 30
0.0
 10
295.424888
 20
147.450229
 30
0.0
 10
294.174757
 20
147.450229
 30
0.0
 10
294.174757
 20
149.949992
 30
0.0
 10
295.424888
 20
149.949992
 30
0.0
 10
295.424888
 20
152.449753
 30
0.0
 10
298.524930
 20
152.449753
 30
0.0
 10
298.524930
 20
149.949992
 30
0.0
 10
299.775090
 20
149.949992
 30
0.0
 10
299.775090
 20
147.450229
 30
0.0
 10
298.524930
 20
147.450229
 30
0.0
 10
298.524930
 20
146.350005
 30
0.0
 10
304.099920
 20
146.350005
 30
0.0
 10
304.099920
 20
142.349835
 30
0.0
 10
314.349779
 20
142.349835
 30
0.0
 10
314.349779
 20
153.549980
 30
0.0
 10
318.349940
 20
153.549980
 30
0.0
 10
318.349940
 20
164.750121
 30
0.0
 10
314.349779
 20
164.750121
 30
0.0
 10
314.349779
 20
168.799900
 30
0.0
 10
313.250100
 20
168.799900
 30
0.0
 10
313.250100
 20
167.549743
 30
0.0
 10
310.749781
 20
167.549743
 30
0.0
 10
310.749781
 20
168.799900
 30
0.0
 10
308.250026
 20
168.799900
 30
0.0
 10
308.250026
 20
171.899936
 30
0.0
 10
310.749781
 20
171.899936
 30
0.0
 10
310.749781
 20
173.150090
 30
0.0
 10
313.250100
 20
173.150090
 30
0.0
 10
313.250100
 20
171.899936
 30
0.0
 10
314.349779
 20
171.899936
 30
0.0
 10
314.349779
 20
175.950265
 30
0.0
 10
318.349940
 20
175.950265
 30
0.0
 10
318.349940
 20
187.149856
 30
0.0
 10
314.349779
 20
187.149856
 30
0.0
 10
314.349779
 20
198.350000
 30
0.0
 10
304.099920
 20
198.350000
 30
0.0
 10
304.099920
 20
194.349830
 30
0.0
 10
298.524930
 20
194.349830
 30
0.0
 10
298.524930
 20
193.250156
 30
0.0
 10
299.775090
 20
193.250156
 30
0.0
 10
299.775090
 20
190.749843
 30
0.0
 10
298.524930
 20
190.749843
 30
0.0
 10
298.524930
 20
188.250082
 30
0.0
 10
295.424888
 20
188.250082
 30
0.0
 10
295.424888
 20
190.749843
 30
0.0
 10
294.174757
 20
190.749843
 30
0.0
 10
294.174757
 20
193.250156
 30
0.0
 10
295.424888
 20
193.250156
 30
0.0
 10
295.424888
 20
194.349830
 30
0.0
 10
289.849899
 20
194.349830
 30
0.0
 10
289.849899
 20
198.350000
 30
0.0
 10
278.849870
 20
198.350000
 30
0.0
 10
278.849870
 20
194.349830
 30
0.0
 10
267.849818
 20
194.349830
 30
0.0
 10
267.849818
 20
198.350000
 30
0.0
 10
256.849767
 20
198.350000
 30
0.0
 10
256.849767
 20
194.349830
 30
0.0
 10
245.849713
 20
194.349830
 30
0.0
 10
245.849713
 20
198.350000
 30
0.0
 10
234.850212
 20
198.350000
 30
0.0
 10
234.850212
 20
194.349830
 30
0.0
 10
223.850160
 20
194.349830
 30
0.0
 10
223.850160
 20
198.350000
 30
0.0
 10
212.850109
 20
198.350000
 30
0.0
 10
212.850109
 20
194.349830
 30
0.0
 10
201.850058
 20
194.349830
 30
0.0
 10
201.850058
 20
198.350000
 30
0.0
 10
190.850004
 20
198.350000
 30
0.0
 10
190.850004
 20
194.349830
 30
0.0
 10
185.275014
 20
194.349830
 30
0.0
 10
185.275014
 20
193.250156
 30
0.0
 10
186.525171
 20
193.250156
 30
0.0
 10
186.525171
 20
190.749843
 30
0.0
 10
185.275014
 20
190.749843
 30
0.0
 10
185.275014
 20
188.250082
 30
0.0
 10
182.174978
 20
188.250082
 30
0.0
 10
182.174978
 20
190.749843
 30
0.0
 10
180.924824
 20
190.749843
 30
0.0
 10
180.924824
 20
193.250156
 30
0.0
 10
182.174978
 20
193.250156
 30
0.0
 10
182.174978
 20
194.349830
 30
0.0
 10
176.599988
 20
194.349830
 30
0.0
 10
176.599988
 20
198.350000
 30
0.0
 10
166.350140
 20
198.350000
 30
0.0
 10
166.350140
 20
198.350000
 30
0.0
  0
LWPOLYLINE
  5
102
100
AcDbEntity
  8
0
 62
7
100
AcDbPolyline
 90
86
 70
1
 10
333.099918
 20
198.350000
 30
0.0
 10
333.099918
 20
194.349831
 30
0.0
 10
318.349940
 20
194.349831
 30
0.0
 10
318.349940
 20
187.149857
 30
0.0
 10
322.350102
 20
187.149857
 30
0.0
 10
322.350102
 20
175.950265
 30
0.0
 10
318.349940
 20
175.950265
 30
0.0
 10
318.349940
 20
172.199797
 30
0.0
 10
322.049704
 20
172.199797
 30
0.0
 10
322.049704
 20
168.500039
 30
0.0
 10
318.349940
 20
168.500039
 30
0.0
 10
318.349940
 20
164.750121
 30
0.0
 10
322.350102
 20
164.750121
 30
0.0
 10
322.350102
 20
153.549980
 30
0.0
 10
318.349940
 20
153.549980
 30
0.0
 10
318.349940
 20
146.350005
 30
0.0
 10
333.099918
 20
146.350005
 30
0.0
 10
333.099918
 20
142.349835
 30
0.0
 10
338.624757
 20
142.349835
 30
0.0
 10
338.624757
 20
146.050144
 30
0.0
 10
342.325057
 20
146.050144
 30
0.0
 10
342.325057
 20
142.349835
 30
0.0
 10
347.849896
 20
142.349835
 30
0.0
 10
347.849896
 20
146.350005
 30
0.0
 10
358.849930
 20
146.350005
 30
0.0
 10
358.849930
 20
142.349835
 30
0.0
 10
369.849993
 20
142.349835
 30
0.0
 10
369.849993
 20
146.350005
 30
0.0
 10
380.850055
 20
146.350005
 30
0.0
 10
380.850055
 20
142.349835
 30
0.0
 10
391.850090
 20
142.349835
 30
0.0
 10
391.850090
 20
146.350005
 30
0.0
 10
402.850152
 20
146.350005
 30
0.0
 10
402.850152
 20
142.349835
 30
0.0
 10
413.850187
 20
142.349835
 30
0.0
 10
413.850187
 20
146.350005
 30
0.0
 10
424.849685
 20
146.350005
 30
0.0
 10
424.849685
 20
142.349835
 30
0.0
 10
430.375088
 20
142.349835
 30
0.0
 10
430.375088
 20
146.050144
 30
0.0
 10
434.074824
 20
146.050144
 30
0.0
 10
434.074824
 20
142.349835
 30
0.0
 10
439.600227
 20
142.349835
 30
0.0
 10
439.600227
 20
146.350005
 30
0.0
 10
454.350176
 20
146.350005
 30
0.0
 10
454.350176
 20
153.549980
 30
0.0
 10
450.350015
 20
153.549980
 30
0.0
 10
450.350015
 20
164.750121
 30
0.0
 10
454.350176
 20
164.750121
 30
0.0
 10
454.350176
 20
168.500039
 30
0.0
 10
450.649876
 20
168.500039
 30
0.0
 10
450.649876
 20
172.199797
 30
0.0
 10
454.350176
 20
172.199797
 30
0.0
 10
454.350176
 20
175.950265
 30
0.0
 10
450.350015
 20
175.950265
 30
0.0
 10
450.350015
 20
187.149857
 30
0.0
 10
454.350176
 20
187.149857
 30
0.0
 10
454.350176
 20
194.349831
 30
0.0
 10
439.600227
 20
194.349831
 30
0.0
 10
439.600227
 20
198.350000
 30
0.0
 10
434.074824
 20
198.350000
 30
0.0
 10
434.074824
 20
194.650243
 30
0.0
 10
430.375088
 20
194.650243
 30
0.0
 10
430.375088
 20
198.350000
 30
0.0
 10
424.849685
 20
198.350000
 30
0.0
 10
424.849685
 20
194.349831
 30
0.0
 10
413.850187
 20
194.349831
 30
0.0
 10
413.850187
 20
198.350000
 30
0.0
 10
402.850152
 20
198.350000
 30
0.0
 10
402.850152
 20
194.349831
 30
0.0
 10
391.850090
 20
194.349831
 30
0.0
 10
391.850090
 20
198.350000
 30
0.0
 10
380.850055
 20
198.350000
 30
0.0
 10
380.850055
 20
194.349831
 30
0.0
 10
369.849993
 20
194.349831
 30
0.0
 10
369.849993
 20
198.350000
 30
0.0
 10
358.849930
 20
198.350000
 30
0.0
 10
358.849930
 20
194.349831
 30
0.0
 10
347.849896
 20
194.349831
 30
0.0
 10
347.849896
 20
198.350000
 30
0.0
 10
342.325057
 20
198.350000
 30
0.0
 10
342.325057
 20
194.650243
 30
0.0
 10
338.624757
 20
194.650243
 30
0.0
 10
338.624757
 20
198.350000
 30
0.0
 10
333.099918
 20
198.350000
 30
0.0
 10
333.099918
 20
198.350000
 30
0.0
  0
LWPOLYLINE
  5
103
100
AcDbEntity
  8
0
 62
7
100
AcDbPolyline
 90
86
 70
1
 10
333.099918
 20
142.349835
 30
0.0
 10
333.099918
 20
138.350216
 30
0.0
 10
318.349940
 20
138.350216
 30
0.0
 10
318.349940
 20
131.150242
 30
0.0
 10
322.350102
 20
131.150242
 30
0.0
 10
322.350102
 20
119.950100
 30
0.0
 10
318.349940
 20
119.950100
 30
0.0
 10
318.349940
 20
116.200183
 30
0.0
 10
322.049704
 20
116.200183
 30
0.0
 10
322.049704
 20
112.499874
 30
0.0
 10
318.349940
 20
112.499874
 30
0.0
 10
318.349940
 20
108.749956
 30
0.0
 10
322.350102
 20
108.749956
 30
0.0
 10
322.350102
 20
97.549812
 30
0.0
 10
318.349940
 20
97.549812
 30
0.0
 10
318.349940
 20
90.349841
 30
0.0
 10
333.099918
 20
90.349841
 30
0.0
 10
333.099918
 20
86.350221
 30
0.0
 10
338.624757
 20
86.350221
 30
0.0
 10
338.624757
 20
90.049980
 30
0.0
 10
342.325057
 20
90.049980
 30
0.0
 10
342.325057
 20
86.350221
 30
0.0
 10
347.849896
 20
86.350221
 30
0.0
 10
347.849896
 20
90.349841
 30
0.0
 10
358.849930
 20
90.349841
 30
0.0
 10
358.849930
 20
86.350221
 30
0.0
 10
369.849993
 20
86.350221
 30
0.0
 10
369.849993
 20
90.349841
 30
0.0
 10
380.850055
 20
90.349841
 30
0.0
 10
380.850055
 20
86.350221
 30
0.0
 10
391.850090
 20
86.350221
 30
0.0
 10
391.850090
 20
90.349841
 30
0.0
 10
402.850152
 20
90.349841
 30
0.0
 10
402.850152
 20
86.350221
 30
0.0
 10
413.850187
 20
86.350221
 30
0.0
 10
413.850187
 20
90.349841
 30
0.0
 10
424.849685
 20
90.349841
 30
0.0
 10
424.849685
 20
86.350221
 30
0.0
 10
430.375088
 20
86.350221
 30
0.0
 10
430.375088
 20
90.049980
 30
0.0
 10
434.074824
 20
90.049980
 30
0.0
 10
434.074824
 20
86.350221
 30
0.0
 10
439.600227
 20
86.350221
 30
0.0
 10
439.600227
 20
90.349841
 30
0.0
 10
454.350176
 20
90.349841
 30
0.0
 10
454.350176
 20
97.549812
 30
0.0
 10
450.350015
 20
97.549812
 30
0.0
 10
450.350015
 20
108.749956
 30
0.0
 10
454.350176
 20
108.749956
 30
0.0
 10
454.350176
 20
112.499874
 30
0.0
 10
450.649876
 20
112.499874
 30
0.0
 10
450.649876
 20
116.200183
 30
0.0
 10
454.350176
 20
116.200183
 30
0.0
 10
454.350176
 20
119.950100
 30
0.0
 10
450.350015
 20
119.950100
 30
0.0
 10
450.350015
 20
131.150242
 30
0.0
 10
454.350176
 20
131.150242
 30
0.0
 10
454.350176
 20
138.350216
 30
0.0
 10
439.600227
 20
138.350216
 30
0.0
 10
439.600227
 20
142.349835
 30
0.0
 10
434.074824
 20
142.349835
 30
0.0
 10
434.074824
 20
138.650077
 30
0.0
 10
430.375088
 20
138.650077
 30
0.0
 10
430.375088
 20
142.349835
 30
0.0
 10
424.849685
 20
142.349835
 30
0.0
 10
424.849685
 20
138.350216
 30
0.0
 10
413.850187
 20
138.350216
 30
0.0
 10
413.850187
 20
142.349835
 30
0.0
 10
402.850152
 20
142.349835
 30
0.0
 10
402.850152
 20
138.350216
 30
0.0
 10
391.850090
 20
138.350216
 30
0.0
 10
391.850090
 20
142.349835
 30
0.0
 10
380.850055
 20
142.349835
 30
0.0
 10
380.850055
 20
138.350216
 30
0.0
 10
369.849993
 20
138.350216
 30
0.0
 10
369.849993
 20
142.349835
 30
0.0
 10
358.849930
 20
142.349835
 30
0.0
 10
358.849930
 20
138.350216
 30
0.0
 10
347.849896
 20
138.350216
 30
0.0
 10
347.849896
 20
142.349835
 30
0.0
 10
342.325057
 20
142.349835
 30
0.0
 10
342.325057
 20
138.650077
 30
0.0
 10
338.624757
 20
138.650077
 30
0.0
 10
338.624757
 20
142.349835
 30
0.0
 10
333.099918
 20
142.349835
 30
0.0
 10
333.099918
 20
142.349835
 30
0.0
  0
LWPOLYLINE
  5
104
100
AcDbEntity
  8
0
 62
7
100
AcDbPolyline
 90
158
 70
1
 10
20.600000
 20
142.349835
 30
0.0
 10
20.600000
 20
138.350216
 30
0.0
 10
6.349983
 20
138.350216
 30
0.0
 10
6.349983
 20
127.599866
 30
0.0
 10
10.350152
 20
127.599866
 30
0.0
 10
10.350152
 20
121.775175
 30
0.0
 10
11.449826
 20
121.775175
 30
0.0
 10
11.449826
 20
123.024779
 30
0.0
 10
13.950139
 20
123.024779
 30
0.0
 10
13.950139
 20
121.775175
 30
0.0
 10
16.449900
 20
121.775175
 30
0.0
 10
16.449900
 20
118.675139
 30
0.0
 10
13.950139
 20
118.675139
 30
0.0
 10
13.950139
 20
117.424982
 30
0.0
 10
11.449826
 20
117.424982
 30
0.0
 10
11.449826
 20
118.675139
 30
0.0
 10
10.350152
 20
118.675139
 30
0.0
 10
10.350152
 20
112.849897
 30
0.0
 10
6.349983
 20
112.849897
 30
0.0
 10
6.349983
 20
101.849843
 30
0.0
 10
10.350152
 20
101.849843
 30
0.0
 10
10.350152
 20
90.849792
 30
0.0
 10
6.349983
 20
90.849792
 30
0.0
 10
6.349983
 20
79.849740
 30
0.0
 10
10.350152
 20
79.849740
 30
0.0
 10
10.350152
 20
68.850239
 30
0.0
 10
6.349983
 20
68.850239
 30
0.0
 10
6.349983
 20
57.850188
 30
0.0
 10
10.350152
 20
57.850188
 30
0.0
 10
10.350152
 20
46.850134
 30
0.0
 10
6.349983
 20
46.850134
 30
0.0
 10
6.349983
 20
35.850082
 30
0.0
 10
10.350152
 20
35.850082
 30
0.0
 10
10.350152
 20
30.024841
 30
0.0
 10
11.449826
 20
30.024841
 30
0.0
 10
11.449826
 20
31.274995
 30
0.0
 10
13.950139
 20
31.274995
 30
0.0
 10
13.950139
 20
30.024841
 30
0.0
 10
16.449900
 20
30.024841
 30
0.0
 10
16.449900
 20
26.924805
 30
0.0
 10
13.950139
 20
26.924805
 30
0.0
 10
13.950139
 20
25.675201
 30
0.0
 10
11.449826
 20
25.675201
 30
0.0
 10
11.449826
 20
26.924805
 30
0.0
 10
10.350152
 20
26.924805
 30
0.0
 10
10.350152
 20
21.100113
 30
0.0
 10
6.349983
 20
21.100113
 30
0.0
 10
6.349983
 20
10.349761
 30
0.0
 10
20.600000
 20
10.349761
 30
0.0
 10
20.600000
 20
6.350144
 30
0.0
 10
25.875130
 20
6.350144
 30
0.0
 10
25.875130
 20
10.049900
 30
0.0
 10
29.574888
 20
10.049900
 30
0.0
 10
29.574888
 20
6.350144
 30
0.0
 10
34.850019
 20
6.350144
 30
0.0
 10
34.850019
 20
10.349761
 30
0.0
 10
45.850071
 20
10.349761
 30
0.0
 10
45.850071
 20
6.350144
 30
0.0
 10
56.850122
 20
6.350144
 30
0.0
 10
56.850122
 20
10.349761
 30
0.0
 10
67.850173
 20
10.349761
 30
0.0
 10
67.850173
 20
6.350144
 30
0.0
 10
78.850225
 20
6.350144
 30
0.0
 10
78.850225
 20
10.349761
 30
0.0
 10
89.849726
 20
10.349761
 30
0.0
 10
89.849726
 20
6.350144
 30
0.0
 10
100.849780
 20
6.350144
 30
0.0
 10
100.849780
 20
10.349761
 30
0.0
 10
111.849831
 20
10.349761
 30
0.0
 10
111.849831
 20
6.350144
 30
0.0
 10
122.849883
 20
6.350144
 30
0.0
 10
122.849883
 20
10.349761
 30
0.0
 10
133.849934
 20
10.349761
 30
0.0
 10
133.849934
 20
6.350144
 30
0.0
 10
139.125065
 20
6.350144
 30
0.0
 10
139.125065
 20
10.049900
 30
0.0
 10
142.824824
 20
10.049900
 30
0.0
 10
142.824824
 20
6.350144
 30
0.0
 10
148.099952
 20
6.350144
 30
0.0
 10
148.099952
 20
10.349761
 30
0.0
 10
162.349970
 20
10.349761
 30
0.0
 10
162.349970
 20
21.100113
 30
0.0
 10
158.349800
 20
21.100113
 30
0.0
 10
158.349800
 20
26.924805
 30
0.0
 10
157.250127
 20
26.924805
 30
0.0
 10
157.250127
 20
25.675201
 30
0.0
 10
154.749813
 20
25.675201
 30
0.0
 10
154.749813
 20
26.924805
 30
0.0
 10
152.250053
 20
26.924805
 30
0.0
 10
152.250053
 20
30.024841
 30
0.0
 10
154.749813
 20
30.024841
 30
0.0
 10
154.749813
 20
31.274995
 30
0.0
 10
157.250127
 20
31.274995
 30
0.0
 10
157.250127
 20
30.024841
 30
0.0
 10
158.349800
 20
30.024841
 30
0.0
 10
158.349800
 20
35.850082
 30
0.0
 10
162.349970
 20
35.850082
 30
0.0
 10
162.349970
 20
46.850134
 30
0.0
 10
158.349800
 20
46.850134
 30
0.0
 10
158.349800
 20
57.850188
 30
0.0
 10
162.349970
 20
57.850188
 30
0.0
 10
162.349970
 20
68.850239
 30
0.0
 10
158.349800
 20
68.850239
 30
0.0
 10
158.349800
 20
79.849740
 30
0.0
 10
162.349970
 20
79.849740
 30
0.0
 10
162.349970
 20
90.849792
 30
0.0
 10
158.349800
 20
90.849792
 30
0.0
 10
158.349800
 20
101.849843
 30
0.0
 10
162.349970
 20
101.849843
 30
0.0
 10
162.349970
 20
112.849897
 30
0.0
 10
158.349800
 20
112.849897
 30
0.0
 10
158.349800
 20
118.675139
 30
0.0
 10
157.250127
 20
118.675139
 30
0.0
 10
157.250127
 20
117.424982
 30
0.0
 10
154.749813
 20
117.424982
 30
0.0
 10
154.749813
 20
118.675139
 30
0.0
 10
152.250053
 20
118.675139
 30
0.0
 10
152.250053
 20
121.775175
 30
0.0
 10
154.749813
 20
121.775175
 30
0.0
 10
154.749813
 20
123.024779
 30
0.0
 10
157.250127
 20
123.024779
 30
0.0
 10
157.250127
 20
121.775175
 30
0.0
 10
158.349800
 20
121.775175
 30
0.0
 10
158.349800
 20
127.599866
 30
0.0
 10
162.349970
 20
127.599866
 30
0.0
 10
162.349970
 20
138.350216
 30
0.0
 10
148.099952
 20
138.350216
 30
0.0
 10
148.099952
 20
142.349835
 30
0.0
 10
142.824824
 20
142.349835
 30
0.0
 10
142.824824
 20
138.650077
 30
0.0
 10
139.125065
 20
138.650077
 30
0.0
 10
139.125065
 20
142.349835
 30
0.0
 10
133.849934
 20
142.349835
 30
0.0
 10
133.849934
 20
138.350216
 30
0.0
 10
122.849883
 20
138.350216
 30
0.0
 10
122.849883
 20
142.349835
 30
0.0
 10
111.849831
 20
142.349835
 30
0.0
 10
111.849831
 20
138.350216
 30
0.0
 10
100.849780
 20
138.350216
 30
0.0
 10
100.849780
 20
142.349835
 30
0.0
 10
89.849726
 20
142.349835
 30
0.0
 10
89.849726
 20
138.350216
 30
0.0
 10
78.850225
 20
138.350216
 30
0.0
 10
78.850225
 20
142.349835
 30
0.0
 10
67.850173
 20
142.349835
 30
0.0
 10
67.850173
 20
138.350216
 30
0.0
 10
56.850122
 20
138.350216
 30
0.0
 10
56.850122
 20
142.349835
 30
0.0
 10
45.850071
 20
142.349835
 30
0.0
 10
45.850071
 20
138.350216
 30
0.0
 10
34.850019
 20
138.350216
 30
0.0
 10
34.850019
 20
142.349835
 30
0.0
 10
29.574888
 20
142.349835
 30
0.0
 10
29.574888
 20
138.650077
 30
0.0
 10
25.875130
 20
138.650077
 30
0.0
 10
25.875130
 20
142.349835
 30
0.0
 10
20.600000
 20
142.349835
 30
0.0
 10
20.600000
 20
142.349835
 30
0.0
  0
LWPOLYLINE
  5
105
100
AcDbEntity
  8
0
 62
7
100
AcDbPolyline
 90
158
 70
1
 10
176.599988
 20
142.349835
 30
0.0
 10
176.599988
 20
138.350216
 30
0.0
 10
162.349970
 20
138.350216
 30
0.0
 10
162.349970
 20
127.599866
 30
0.0
 10
166.350140
 20
127.599866
 30
0.0
 10
166.350140
 20
121.775175
 30
0.0
 10
167.449813
 20
121.775175
 30
0.0
 10
167.449813
 20
123.024779
 30
0.0
 10
169.950127
 20
123.024779
 30
0.0
 10
169.950127
 20
121.775175
 30
0.0
 10
172.449888
 20
121.775175
 30
0.0
 10
172.449888
 20
118.675139
 30
0.0
 10
169.950127
 20
118.675139
 30
0.0
 10
169.950127
 20
117.424982
 30
0.0
 10
167.449813
 20
117.424982
 30
0.0
 10
167.449813
 20
118.675139
 30
0.0
 10
166.350140
 20
118.675139
 30
0.0
 10
166.350140
 20
112.849897
 30
0.0
 10
162.349970
 20
112.849897
 30
0.0
 10
162.349970
 20
101.849843
 30
0.0
 10
166.350140
 20
101.849843
 30
0.0
 10
166.350140
 20
90.849792
 30
0.0
 10
162.349970
 20
90.849792
 30
0.0
 10
162.349970
 20
79.849740
 30
0.0
 10
166.350140
 20
79.849740
 30
0.0
 10
166.350140
 20
68.850239
 30
0.0
 10
162.349970
 20
68.850239
 30
0.0
 10
162.349970
 20
57.850188
 30
0.0
 10
166.350140
 20
57.850188
 30
0.0
 10
166.350140
 20
46.850134
 30
0.0
 10
162.349970
 20
46.850134
 30
0.0
 10
162.349970
 20
35.850082
 30
0.0
 10
166.350140
 20
35.850082
 30
0.0
 10
166.350140
 20
30.024841
 30
0.0
 10
167.449813
 20
30.024841
 30
0.0
 10
167.449813
 20
31.274995
 30
0.0
 10
169.950127
 20
31.274995
 30
0.0
 10
169.950127
 20
30.024841
 30
0.0
 10
172.449888
 20
30.024841
 30
0.0
 10
172.449888
 20
26.924805
 30
0.0
 10
169.950127
 20
26.924805
 30
0.0
 10
169.950127
 20
25.675201
 30
0.0
 10
167.449813
 20
25.675201
 30
0.0
 10
167.449813
 20
26.924805
 30
0.0
 10
166.350140
 20
26.924805
 30
0.0
 10
166.350140
 20
21.100113
 30
0.0
 10
162.349970
 20
21.100113
 30
0.0
 10
162.349970
 20
10.349761
 30
0.0
 10
176.599988
 20
10.349761
 30
0.0
 10
176.599988
 20
6.350144
 30
0.0
 10
181.875117
 20
6.350144
 30
0.0
 10
181.875117
 20
10.049900
 30
0.0
 10
185.574875
 20
10.049900
 30
0.0
 10
185.574875
 20
6.350144
 30
0.0
 10
190.850004
 20
6.350144
 30
0.0
 10
190.850004
 20
10.349761
 30
0.0
 10
201.850058
 20
10.349761
 30
0.0
 10
201.850058
 20
6.350144
 30
0.0
 10
212.850109
 20
6.350144
 30
0.0
 10
212.850109
 20
10.349761
 30
0.0
 10
223.850160
 20
10.349761
 30
0.0
 10
223.850160
 20
6.350144
 30
0.0
 10
234.850212
 20
6.350144
 30
0.0
 10
234.850212
 20
10.349761
 30
0.0
 10
245.849713
 20
10.349761
 30
0.0
 10
245.849713
 20
6.350144
 30
0.0
 10
256.849767
 20
6.350144
 30
0.0
 10
256.849767
 20
10.349761
 30
0.0
 10
267.849818
 20
10.349761
 30
0.0
 10
267.849818
 20
6.350144
 30
0.0
 10
278.849870
 20
6.350144
 30
0.0
 10
278.849870
 20
10.349761
 30
0.0
 10
289.849899
 20
10.349761
 30
0.0
 10
289.849899
 20
6.350144
 30
0.0
 10
295.125055
 20
6.350144
 30
0.0
 10
295.125055
 20
10.049900
 30
0.0
 10
298.824791
 20
10.049900
 30
0.0
 10
298.824791
 20
6.350144
 30
0.0
 10
304.099920
 20
6.350144
 30
0.0
 10
304.099920
 20
10.349761
 30
0.0
 10
318.349940
 20
10.349761
 30
0.0
 10
318.349940
 20
21.100113
 30
0.0
 10
314.349779
 20
21.100113
 30
0.0
 10
314.349779
 20
26.924805
 30
0.0
 10
313.250100
 20
26.924805
 30
0.0
 10
313.250100
 20
25.675201
 30
0.0
 10
310.749781
 20
25.675201
 30
0.0
 10
310.749781
 20
26.924805
 30
0.0
 10
308.250026
 20
26.924805
 30
0.0
 10
308.250026
 20
30.024841
 30
0.0
 10
310.749781
 20
30.024841
 30
0.0
 10
310.749781
 20
31.274995
 30
0.0
 10
313.250100
 20
31.274995
 30
0.0
 10
313.250100
 20
30.024841
 30
0.0
 10
314.349779
 20
30.024841
 30
0.0
 10
314.349779
 20
35.850082
 30
0.0
 10
318.349940
 20
35.850082
 30
0.0
 10
318.349940
 20
46.850134
 30
0.0
 10
314.349779
 20
46.850134
 30
0.0
 10
314.349779
 20
57.850188
 30
0.0
 10
318.349940
 20
57.850188
 30
0.0
 10
318.349940
 20
68.850239
 30
0.0
 10
314.349779
 20
68.850239
 30
0.0
 10
314.349779
 20
79.849740
 30
0.0
 10
318.349940
 20
79.849740
 30
0.0
 10
318.349940
 20
90.849792
 30
0.0
 10
314.349779
 20
90.849792
 30
0.0
 10
314.349779
 20
101.849843
 30
0.0
 10
318.349940
 20
101.849843
 30
0.0
 10
318.349940
 20
112.849897
 30
0.0
 10
314.349779
 20
112.849897
 30
0.0
 10
314.349779
 20
118.675139
 30
0.0
 10
313.250100
 20
118.675139
 30
0.0
 10
313.250100
 20
117.424982
 30
0.0
 10
310.749781
 20
117.424982
 30
0.0
 10
310.749781
 20
118.675139
 30
0.0
 10
308.250026
 20
118.675139
 30
0.0
 10
308.250026
 20
121.775175
 30
0.0
 10
310.749781
 20
121.775175
 30
0.0
 10
310.749781
 20
123.024779
 30
0.0
 10
313.250100
 20
123.024779
 30
0.0
 10
313.250100
 20
121.775175
 30
0.0
 10
314.349779
 20
121.775175
 30
0.0
 10
314.349779
 20
127.599866
 30
0.0
 10
318.349940
 20
127.599866
 30
0.0
 10
318.349940
 20
138.350216
 30
0.0
 10
304.099920
 20
138.350216
 30
0.0
 10
304.099920
 20
142.349835
 30
0.0
 10
298.824791
 20
142.349835
 30
0.0
 10
298.824791
 20
138.650077
 30
0.0
 10
295.125055
 20
138.650077
 30
0.0
 10
295.125055
 20
142.349835
 30
0.0
 10
289.849899
 20
142.349835
 30
0.0
 10
289.849899
 20
138.350216
 30
0.0
 10
278.849870
 20
138.350216
 30
0.0
 10
278.849870
 20
142.349835
 30
0.0
 10
267.849818
 20
142.349835
 30
0.0
 10
267.849818
 20
138.350216
 30
0.0
 10
256.849767
 20
138.350216
 30
0.0
 10
256.849767
 20
142.349835
 30
0.0
 10
245.849713
 20
142.349835
 30
0.0
 10
245.849713
 20
138.350216
 30
0.0
 10
234.850212
 20
138.350216
 30
0.0
 10
234.850212
 20
142.349835
 30
0.0
 10
223.850160
 20
142.349835
 30
0.0
 10
223.850160
 20
138.350216
 30
0.0
 10
212.850109
 20
138.350216
 30
0.0
 10
212.850109
 20
142.349835
 30
0.0
 10
201.850058
 20
142.349835
 30
0.0
 10
201.850058
 20
138.350216
 30
0.0
 10
190.850004
 20
138.350216
 30
0.0
 10
190.850004
 20
142.349835
 30
0.0
 10
185.574875
 20
142.349835
 30
0.0
 10
185.574875
 20
138.650077
 30
0.0
 10
181.875117
 20
138.650077
 30
0.0
 10
181.875117
 20
142.349835
 30
0.0
 10
176.599988
 20
142.349835
 30
0.0
 10
176.599988
 20
142.349835
 30
0.0
  0
ENDSEC
  0
SECTION
  2
OBJECTS
  0
DICTIONARY
  5
C
330
0
100
AcDbDictionary
  3
ACAD_GROUP
350
D
  3
ACAD_MLINESTYLE
350
17
  0
DICTIONARY
  5
D
330
C
100
AcDbDictionary
  0
DICTIONARY
  5
1A
330
C
100
AcDbDictionary
  0
DICTIONARY
  5
17
330
C
100
AcDbDictionary
  3
STANDARD
350
18
  0
DICTIONARY
  5
19
330
C
100
AcDbDictionary
  0
ENDSEC
  0
EOF
