<?xml version="1.0" encoding="UTF-8" standalone="no"?>
<!-- Created with Inkscape (http://www.inkscape.org/) -->

<svg
   xmlns:dc="http://purl.org/dc/elements/1.1/"
   xmlns:cc="http://creativecommons.org/ns#"
   xmlns:rdf="http://www.w3.org/1999/02/22-rdf-syntax-ns#"
   xmlns:svg="http://www.w3.org/2000/svg"
   xmlns="http://www.w3.org/2000/svg"
   xmlns:sodipodi="http://sodipodi.sourceforge.net/DTD/sodipodi-0.dtd"
   xmlns:inkscape="http://www.inkscape.org/namespaces/inkscape"
   width="210mm"
   height="297mm"
   viewBox="0 0 744.09448819 1052.3622047"
   id="svg2"
   version="1.1"
   inkscape:version="0.91 r13725"
   sodipodi:docname="cloud.svg">
  <defs
     id="defs4" />
  <sodipodi:namedview
     id="base"
     pagecolor="#ffffff"
     bordercolor="#666666"
     borderopacity="1.0"
     inkscape:pageopacity="0.0"
     inkscape:pageshadow="2"
     inkscape:zoom="3.959798"
     inkscape:cx="243.88391"
     inkscape:cy="164.35207"
     inkscape:document-units="mm"
     inkscape:current-layer="layer1"
     showgrid="false"
     inkscape:window-width="1440"
     inkscape:window-height="837"
     inkscape:window-x="-4"
     inkscape:window-y="-4"
     inkscape:window-maximized="1" />
  <metadata
     id="metadata7">
    <rdf:RDF>
      <cc:Work
         rdf:about="">
        <dc:format>image/svg+xml</dc:format>
        <dc:type
           rdf:resource="http://purl.org/dc/dcmitype/StillImage" />
        <dc:title></dc:title>
      </cc:Work>
    </rdf:RDF>
  </metadata>
  <g
     inkscape:label="Layer 1"
     inkscape:groupmode="layer"
     id="layer1">
    <path
       style="fill:#ff0000;stroke:#ff0000;stroke-width:0.59884799;stroke-linejoin:round;stroke-miterlimit:4;stroke-dasharray:none"
       d="M 260.99023 849.12891 A 9.7589966 9.7589966 0 0 0 252.16211 854.75391 A 14.048914 14.048914 0 0 0 248.91602 854.35742 A 14.048914 14.048914 0 0 0 234.95312 866.99023 A 13.766332 13.766332 0 0 0 232.04688 866.66211 A 13.766332 13.766332 0 0 0 218.28125 880.42773 A 13.766332 13.766332 0 0 0 218.28125 880.43555 A 14.048914 14.048914 0 0 0 207.76172 894.01562 A 14.048914 14.048914 0 0 0 221.81055 908.06445 A 14.048914 14.048914 0 0 0 233.09375 902.35938 A 7.7018307 7.7018307 0 0 0 239.0332 905.16211 A 7.7018307 7.7018307 0 0 0 241.7832 904.64453 A 18.637496 18.637496 0 0 0 260.00391 919.39648 A 18.637496 18.637496 0 0 0 274.55664 912.33789 A 7.3067455 7.3067455 0 0 0 277.85938 913.12891 A 7.3067455 7.3067455 0 0 0 282.68945 911.29688 A 20.543604 20.543604 0 0 0 293.67773 914.52734 A 20.543604 20.543604 0 0 0 314.2207 893.98242 A 20.543604 20.543604 0 0 0 301.49805 875.00391 A 11.539603 11.539603 0 0 0 301.9375 871.85156 A 11.539603 11.539603 0 0 0 290.39844 860.3125 A 11.539603 11.539603 0 0 0 284.20508 862.12695 A 11.118961 11.118961 0 0 0 274.25781 855.94531 A 11.118961 11.118961 0 0 0 270.47266 856.625 A 9.7589966 9.7589966 0 0 0 260.99023 849.12891 z M 260.99023 853.57617 A 3.2142856 3.2142856 0 0 1 264.20508 856.79102 A 3.2142856 3.2142856 0 0 1 260.99023 860.00586 A 3.2142856 3.2142856 0 0 1 257.77734 856.79102 A 3.2142856 3.2142856 0 0 1 260.99023 853.57617 z "
       id="path4183" />
    <path
       style="fill:#000000"
       d="M 298.07812 868.82227 L 255.80078 868.8418 L 245.03125 868.85938 L 240.16992 887.12305 C 238.26444 894.28043 238.00503 895.45111 237.99609 895.58984 C 237.96048 895.61279 236.02549 892.91708 233.66602 889.55859 L 229.35547 883.42578 L 226.65625 884.8418 C 225.17173 885.62088 223.9359 886.27939 223.9082 886.30469 C 223.88046 886.33003 223.99445 886.58961 224.16211 886.88086 L 224.4668 887.41016 L 225.87109 886.71289 C 226.64313 886.3303 227.28277 886.02776 227.29297 886.03906 C 227.30317 886.05037 229.38389 888.99041 231.91602 892.57227 C 234.44816 896.15414 236.61718 899.2225 236.73828 899.39258 L 236.95898 899.70312 L 237.93555 899.70312 C 238.76747 899.70312 238.9041 899.6876 238.94531 899.58594 C 238.91271 899.63497 238.87527 899.44633 241.30273 890.28906 C 244.07697 879.82361 246.38028 871.13836 246.42188 870.98828 L 246.49805 870.71484 L 256.5332 870.71484 L 298.07812 870.71484 L 298.07812 869.76953 L 298.07812 868.82227 z "
       id="path4144" />
    <path
       style="font-style:normal;font-variant:normal;font-weight:normal;font-stretch:normal;font-size:21.99510765px;line-height:125%;font-family:Arial;-inkscape-font-specification:Arial;letter-spacing:0px;word-spacing:0px;fill:#000000;fill-opacity:1;stroke:none;stroke-width:1px;stroke-linecap:butt;stroke-linejoin:miter;stroke-opacity:1"
       d="M 250.81641 879.17773 C 250.05746 879.17773 249.38138 879.34969 248.78711 879.69336 C 248.19284 880.02988 247.71542 880.47864 247.35742 881.03711 L 247.35742 879.43555 L 245.62891 879.43555 L 245.62891 890.8418 L 247.5625 890.8418 L 247.5625 884.92383 C 247.5625 883.88565 247.66541 883.09038 247.87305 882.53906 C 248.08069 881.98776 248.41287 881.5696 248.87109 881.2832 C 249.33649 880.9968 249.84257 880.85352 250.38672 880.85352 C 251.10271 880.85352 251.61856 881.06845 251.93359 881.49805 C 252.24863 881.92764 252.40625 882.57246 252.40625 883.43164 L 252.40625 890.8418 L 254.33789 890.8418 L 254.33789 884.21484 C 254.33789 883.04062 254.60298 882.18998 255.13281 881.66016 C 255.66264 881.12316 256.32895 880.85352 257.13086 880.85352 C 257.57477 880.85352 257.96166 880.95838 258.29102 881.16602 C 258.62037 881.37365 258.84508 881.64851 258.9668 881.99219 C 259.09568 882.3287 259.16016 882.88298 259.16016 883.65625 L 259.16016 890.8418 L 261.08398 890.8418 L 261.08398 883.01172 C 261.08398 881.70863 260.77852 880.74595 260.16992 880.12305 C 259.56134 879.49297 258.69181 879.17773 257.56055 879.17773 C 256.11425 879.17773 254.93925 879.84404 254.03711 881.17578 C 253.81515 880.54571 253.43282 880.05591 252.88867 879.70508 C 252.35168 879.35424 251.66127 879.17773 250.81641 879.17773 z M 268.69727 879.17773 C 267.1221 879.17773 265.84158 879.70792 264.85352 880.76758 C 263.86546 881.82724 263.37109 883.31748 263.37109 885.23633 C 263.37109 887.09073 263.85828 888.53343 264.83203 889.56445 C 265.81293 890.58831 267.13644 891.09961 268.80469 891.09961 C 270.12926 891.09961 271.21829 890.7772 272.07031 890.13281 C 272.92234 889.48843 273.50528 888.58308 273.82031 887.41602 L 271.82227 887.16797 C 271.52871 887.9842 271.13205 888.57886 270.63086 888.95117 C 270.12967 889.32349 269.52523 889.50977 268.81641 889.50977 C 267.86415 889.50977 267.06887 889.17759 266.43164 888.51172 C 265.79441 887.84585 265.44073 886.88579 265.36914 885.63281 L 273.875 885.63281 C 273.88213 885.4037 273.88477 885.23175 273.88477 885.11719 C 273.88477 883.23415 273.40213 881.77451 272.43555 880.73633 C 271.46897 879.69814 270.22232 879.17773 268.69727 879.17773 z M 280.00586 879.17773 C 279.41159 879.17773 278.8547 879.25654 278.33203 879.41406 C 277.81652 879.56442 277.40814 879.7507 277.10742 879.97266 C 276.70648 880.25905 276.38667 880.62184 276.15039 881.05859 C 275.92128 881.48819 275.80664 881.9565 275.80664 882.46484 C 275.80664 883.02332 275.94733 883.53461 276.22656 884 C 276.51296 884.45823 276.9285 884.82102 277.47266 885.08594 C 278.02396 885.3437 279.00813 885.65177 280.42578 886.00977 C 281.47828 886.27468 282.13742 886.49223 282.40234 886.66406 C 282.78181 886.91466 282.9707 887.25857 282.9707 887.69531 C 282.9707 888.18219 282.75576 888.6075 282.32617 888.97266 C 281.89658 889.33065 281.23744 889.50977 280.34961 889.50977 C 279.46895 889.50977 278.7831 889.30655 278.28906 888.89844 C 277.8022 888.49032 277.50388 887.90282 277.39648 887.13672 L 275.48438 887.4375 C 275.69918 888.64752 276.19353 889.56003 276.9668 890.17578 C 277.74722 890.79153 278.87924 891.09961 280.36133 891.09961 C 281.25631 891.09961 282.05875 890.94459 282.76758 890.63672 C 283.4764 890.32169 284.01636 889.88204 284.38867 889.31641 C 284.76815 888.74362 284.95703 888.13462 284.95703 887.49023 C 284.95703 886.83153 284.80397 886.2818 284.49609 885.83789 C 284.18821 885.39398 283.7629 885.05724 283.21875 884.82812 C 282.68176 884.59185 281.72887 884.29093 280.36133 883.92578 C 279.41623 883.66802 278.84761 883.50324 278.6543 883.43164 C 278.31778 883.29561 278.06963 883.12366 277.91211 882.91602 C 277.75459 882.71554 277.67578 882.48887 277.67578 882.23828 C 277.67578 881.84449 277.86662 881.50254 278.24609 881.20898 C 278.62557 880.91542 279.25866 880.76758 280.14648 880.76758 C 280.89827 880.76758 281.47861 880.93236 281.88672 881.26172 C 282.30199 881.59107 282.55275 882.04961 282.63867 882.63672 L 284.52734 882.37891 C 284.40562 881.64145 284.18547 881.05394 283.86328 880.61719 C 283.54109 880.17327 283.03956 879.82221 282.35938 879.56445 C 281.68635 879.30669 280.90085 879.17773 280.00586 879.17773 z M 291.00391 879.17773 C 290.40963 879.17773 289.85079 879.25654 289.32812 879.41406 C 288.81261 879.56442 288.40618 879.7507 288.10547 879.97266 C 287.70452 880.25905 287.38471 880.62184 287.14844 881.05859 C 286.91932 881.48819 286.80469 881.9565 286.80469 882.46484 C 286.80469 883.02332 286.94537 883.53461 287.22461 884 C 287.511 884.45823 287.9246 884.82102 288.46875 885.08594 C 289.02006 885.3437 290.00617 885.65177 291.42383 886.00977 C 292.47633 886.27468 293.13352 886.49223 293.39844 886.66406 C 293.77791 886.91466 293.96875 887.25857 293.96875 887.69531 C 293.96875 888.18219 293.75381 888.6075 293.32422 888.97266 C 292.89463 889.33065 292.23548 889.50977 291.34766 889.50977 C 290.46699 889.50977 289.77918 889.30655 289.28516 888.89844 C 288.79828 888.49032 288.50193 887.90282 288.39453 887.13672 L 286.48242 887.4375 C 286.69722 888.64752 287.19158 889.56003 287.96484 890.17578 C 288.74527 890.79153 289.87728 891.09961 291.35938 891.09961 C 292.25435 891.09961 293.05485 890.94459 293.76367 890.63672 C 294.4725 890.32169 295.01441 889.88204 295.38672 889.31641 C 295.76619 888.74362 295.95508 888.13462 295.95508 887.49023 C 295.95508 886.83153 295.80201 886.2818 295.49414 885.83789 C 295.18627 885.39398 294.759 885.05724 294.21484 884.82812 C 293.67786 884.59185 292.72691 884.29093 291.35938 883.92578 C 290.41427 883.66802 289.8437 883.50324 289.65039 883.43164 C 289.31388 883.29561 289.06768 883.12366 288.91016 882.91602 C 288.75264 882.71554 288.67383 882.48887 288.67383 882.23828 C 288.67383 881.84449 288.86271 881.50254 289.24219 881.20898 C 289.62166 880.91542 290.25671 880.76758 291.14453 880.76758 C 291.89632 880.76758 292.4747 880.93236 292.88281 881.26172 C 293.29809 881.59107 293.54885 882.04961 293.63477 882.63672 L 295.52539 882.37891 C 295.40367 881.64145 295.18157 881.05394 294.85938 880.61719 C 294.53718 880.17327 294.03566 879.82221 293.35547 879.56445 C 292.68244 879.30669 291.89889 879.17773 291.00391 879.17773 z M 268.71875 880.76758 C 269.69965 880.76758 270.49753 881.14014 271.11328 881.88477 C 271.51423 882.36448 271.75784 883.08355 271.84375 884.04297 L 265.47656 884.04297 C 265.541 883.04775 265.87318 882.25442 266.47461 881.66016 C 267.0832 881.06588 267.83093 880.76758 268.71875 880.76758 z "
       id="path4286" />
  </g>
</svg>
