<?xml version="1.0" encoding="UTF-8" standalone="no"?>
<!-- Created with Inkscape (http://www.inkscape.org/) -->

<svg
   xmlns:dc="http://purl.org/dc/elements/1.1/"
   xmlns:cc="http://creativecommons.org/ns#"
   xmlns:rdf="http://www.w3.org/1999/02/22-rdf-syntax-ns#"
   xmlns:svg="http://www.w3.org/2000/svg"
   xmlns="http://www.w3.org/2000/svg"
   xmlns:sodipodi="http://sodipodi.sourceforge.net/DTD/sodipodi-0.dtd"
   xmlns:inkscape="http://www.inkscape.org/namespaces/inkscape"
   id="svg8510"
   version="1.1"
   inkscape:version="0.91 r13725"
   xml:space="preserve"
   width="744.09998"
   height="673.22498"
   viewBox="0 0 744.09998 673.22498"
   sodipodi:docname="debitare_forme_fetru_2.svg"><metadata
     id="metadata8516"><rdf:RDF><cc:Work
         rdf:about=""><dc:format>image/svg+xml</dc:format><dc:type
           rdf:resource="http://purl.org/dc/dcmitype/StillImage" /><dc:title></dc:title></cc:Work></rdf:RDF></metadata><defs
     id="defs8514"><clipPath
       clipPathUnits="userSpaceOnUse"
       id="clipPath8524"><path
         d="m 0,538.58 595.28,0 L 595.28,0 0,0 0,538.58 Z"
         id="path8526"
         inkscape:connector-curvature="0" /></clipPath></defs><sodipodi:namedview
     pagecolor="#ffffff"
     bordercolor="#666666"
     borderopacity="1"
     objecttolerance="10"
     gridtolerance="10"
     guidetolerance="10"
     inkscape:pageopacity="0"
     inkscape:pageshadow="2"
     inkscape:window-width="1440"
     inkscape:window-height="837"
     id="namedview8512"
     showgrid="false"
     inkscape:zoom="0.35055146"
     inkscape:cx="372.04999"
     inkscape:cy="336.61249"
     inkscape:window-x="-4"
     inkscape:window-y="-4"
     inkscape:window-maximized="1"
     inkscape:current-layer="g8518" /><g
     id="g8518"
     inkscape:groupmode="layer"
     inkscape:label="debitare_forme_fetru_2"
     transform="matrix(1.25,0,0,-1.25,0,673.225)"><path
       id="path8546"
       style="fill:none;stroke:#231f20;stroke-width:1;stroke-linecap:butt;stroke-linejoin:miter;stroke-miterlimit:10;stroke-dasharray:none;stroke-opacity:1"
       d="m 171.2598,139.1001 c 0,-7.828 -6.346,-14.173 -14.173,-14.173 -7.828,0 -14.173,6.345 -14.173,14.173 0,7.828 6.345,14.173 14.173,14.173 7.827,0 14.173,-6.345 14.173,-14.173 z m 113.3859,0 c 0,-70.449 -57.11,-127.559 -127.559,-127.559 -70.449,0 -127.559,57.11 -127.559,127.559 0,70.449 57.11,127.559 127.559,127.559 70.449,0 127.559,-57.11 127.559,-127.559 z M 171.2598,400.2182 c 0,-7.828 -6.346,-14.173 -14.173,-14.173 -7.828,0 -14.173,6.345 -14.173,14.173 0,7.828 6.345,14.173 14.173,14.173 7.827,0 14.173,-6.345 14.173,-14.173 z m 113.3859,0 c 0,-70.449 -57.11,-127.559 -127.559,-127.559 -70.449,0 -127.559,57.11 -127.559,127.559 0,70.449 57.11,127.559 127.559,127.559 70.449,0 127.559,-57.11 127.559,-127.559 z m 47.0207,96.5588 c 0,13.807 11.193,25 25,25 l 177.424,0 c 13.807,0 25,-11.193 25,-25 l 0,-454.909 c 0,-13.807 -11.193,-25 -25,-25 l -177.424,0 c -13.807,0 -25,11.193 -25,25 l 0,454.909 z" /></g></svg>