  0
SECTION
  2
HEADER
  9
$ACADVER
  1
AC1014
  9
$ACADMAINTVER
 70
     9
  9
$DWGCODEPAGE
  3
UNDEFINED
  9
$INSBASE
 10
0.0
 20
0.0
 30
0.0
  9
$EXTMIN
 10
1.000000000000000E+20
 20
1.000000000000000E+20
 30
1.000000000000000E+20
  9
$EXTMAX
 10
-1.000000000000000E+20
 20
-1.000000000000000E+20
 30
-1.000000000000000E+20
  9
$LIMMIN
 10
0.0
 20
0.0
  9
$LIMMAX
 10
12.0
 20
9.0
  9
$ORTHOMODE
 70
     0
  9
$REGENMODE
 70
     1
  9
$FILLMODE
 70
     1
  9
$QTEXTMODE
 70
     0
  9
$MIRRTEXT
 70
     1
  9
$DRAGMODE
 70
     2
  9
$LTSCALE
 40
1.0
  9
$OSMODE
 70
    37
  9
$ATTMODE
 70
     1
  9
$TEXTSIZE
 40
0.2
  9
$TRACEWID
 40
0.05
  9
$TEXTSTYLE
  7
STANDARD
  9
$CLAYER
  8
0
  9
$CELTYPE
  6
BYLAYER
  9
$CECOLOR
 62
   256
  9
$CELTSCALE
 40
1.0
  9
$DELOBJ
 70
     1
  9
$DISPSILH
 70
     0
  9
$DIMSCALE
 40
1.0
  9
$DIMASZ
 40
0.18
  9
$DIMEXO
 40
0.0625
  9
$DIMDLI
 40
0.38
  9
$DIMRND
 40
0.0
  9
$DIMDLE
 40
0.0
  9
$DIMEXE
 40
0.18
  9
$DIMTP
 40
0.0
  9
$DIMTM
 40
0.0
  9
$DIMTXT
 40
0.18
  9
$DIMCEN
 40
0.09
  9
$DIMTSZ
 40
0.0
  9
$DIMTOL
 70
     0
  9
$DIMLIM
 70
     0
  9
$DIMTIH
 70
     1
  9
$DIMTOH
 70
     1
  9
$DIMSE1
 70
     0
  9
$DIMSE2
 70
     0
  9
$DIMTAD
 70
     0
  9
$DIMZIN
 70
     0
  9
$DIMBLK
  1

  9
$DIMASO
 70
     1
  9
$DIMSHO
 70
     1
  9
$DIMPOST
  1

  9
$DIMAPOST
  1

  9
$DIMALT
 70
     0
  9
$DIMALTD
 70
     2
  9
$DIMALTF
 40
25.4
  9
$DIMLFAC
 40
1.0
  9
$DIMTOFL
 70
     0
  9
$DIMTVP
 40
0.0
  9
$DIMTIX
 70
     0
  9
$DIMSOXD
 70
     0
  9
$DIMSAH
 70
     0
  9
$DIMBLK1
  1

  9
$DIMBLK2
  1

  9
$DIMSTYLE
  2
STANDARD
  9
$DIMCLRD
 70
     0
  9
$DIMCLRE
 70
     0
  9
$DIMCLRT
 70
     0
  9
$DIMTFAC
 40
1.0
  9
$DIMGAP
 40
0.09
  9
$DIMJUST
 70
     0
  9
$DIMSD1
 70
     0
  9
$DIMSD2
 70
     0
  9
$DIMTOLJ
 70
     1
  9
$DIMTZIN
 70
     0
  9
$DIMALTZ
 70
     0
  9
$DIMALTTZ
 70
     0
  9
$DIMFIT
 70
     3
  9
$DIMUPT
 70
     0
  9
$DIMUNIT
 70
     2
  9
$DIMDEC
 70
     4
  9
$DIMTDEC
 70
     4
  9
$DIMALTU
 70
     2
  9
$DIMALTTD
 70
     2
  9
$DIMTXSTY
  7
STANDARD
  9
$DIMAUNIT
 70
     0
  9
$LUNITS
 70
     2
  9
$LUPREC
 70
     4
  9
$SKETCHINC
 40
0.1
  9
$FILLETRAD
 40
0.5
  9
$AUNITS
 70
     0
  9
$AUPREC
 70
     0
  9
$MENU
  1
.
  9
$ELEVATION
 40
0.0
  9
$PELEVATION
 40
0.0
  9
$THICKNESS
 40
0.0
  9
$LIMCHECK
 70
     0
  9
$CHAMFERA
 40
0.5
  9
$CHAMFERB
 40
0.5
  9
$CHAMFERC
 40
1.0
  9
$CHAMFERD
 40
0.0
  9
$SKPOLY
 70
     0
  9
$TDCREATE
 40
2457705.728599537
  9
$TDUPDATE
 40
2457705.728599537
  9
$TDINDWG
 40
0.0000000116
  9
$TDUSRTIMER
 40
0.0000000116
  9
$USRTIMER
 70
     1
  9
$ANGBASE
 50
0.0
  9
$ANGDIR
 70
     0
  9
$PDMODE
 70
     0
  9
$PDSIZE
 40
0.0
  9
$PLINEWID
 40
0.0
  9
$COORDS
 70
     1
  9
$SPLFRAME
 70
     0
  9
$SPLINETYPE
 70
     6
  9
$SPLINESEGS
 70
     8
  9
$ATTDIA
 70
     0
  9
$ATTREQ
 70
     1
  9
$HANDLING
 70
     1
  9
$HANDSEED
  5
C0
  9
$SURFTAB1
 70
     6
  9
$SURFTAB2
 70
     6
  9
$SURFTYPE
 70
     6
  9
$SURFU
 70
     6
  9
$SURFV
 70
     6
  9
$UCSNAME
  2

  9
$UCSORG
 10
0.0
 20
0.0
 30
0.0
  9
$UCSXDIR
 10
1.0
 20
0.0
 30
0.0
  9
$UCSYDIR
 10
0.0
 20
1.0
 30
0.0
  9
$PUCSNAME
  2

  9
$PUCSORG
 10
0.0
 20
0.0
 30
0.0
  9
$PUCSXDIR
 10
1.0
 20
0.0
 30
0.0
  9
$PUCSYDIR
 10
0.0
 20
1.0
 30
0.0
  9
$USERI1
 70
     0
  9
$USERI2
 70
     0
  9
$USERI3
 70
     0
  9
$USERI4
 70
     0
  9
$USERI5
 70
     0
  9
$USERR1
 40
0.0
  9
$USERR2
 40
0.0
  9
$USERR3
 40
0.0
  9
$USERR4
 40
0.0
  9
$USERR5
 40
0.0
  9
$WORLDVIEW
 70
     1
  9
$SHADEDGE
 70
     3
  9
$SHADEDIF
 70
    70
  9
$TILEMODE
 70
     1
  9
$MAXACTVP
 70
    64
  9
$PINSBASE
 10
0.0
 20
0.0
 30
0.0
  9
$PLIMCHECK
 70
     0
  9
$PEXTMIN
 10
1.000000000000000E+20
 20
1.000000000000000E+20
 30
1.000000000000000E+20
  9
$PEXTMAX
 10
-1.000000000000000E+20
 20
-1.000000000000000E+20
 30
-1.000000000000000E+20
  9
$PLIMMIN
 10
0.0
 20
0.0
  9
$PLIMMAX
 10
12.0
 20
9.0
  9
$UNITMODE
 70
     0
  9
$VISRETAIN
 70
     1
  9
$PLINEGEN
 70
     0
  9
$PSLTSCALE
 70
     1
  9
$TREEDEPTH
 70
  3020
  9
$PICKSTYLE
 70
     1
  9
$CMLSTYLE
  2
STANDARD
  9
$CMLJUST
 70
     0
  9
$CMLSCALE
 40
1.0
  9
$PROXYGRAPHICS
 70
     1
  9
$MEASUREMENT
 70
     0
  0
ENDSEC
  0
SECTION
  2
CLASSES
  0
CLASS
  1
ACDBDICTIONARYWDFLT
  2
AcDbDictionaryWithDefault
  3
ObjectDBX Classes
 90
        0
280
     0
281
     0
  0
CLASS
  1
VISUALSTYLE
  2
AcDbVisualStyle
  3
ObjectDBX Classes
 90
     4095
280
     0
281
     0
  0
CLASS
  1
MATERIAL
  2
AcDbMaterial
  3
ObjectDBX Classes
 90
     1153
280
     0
281
     0
  0
CLASS
  1
SUN
  2
AcDbSun
  3
SCENEOE
 90
     1024
280
     0
281
     0
  0
CLASS
  1
DICTIONARYVAR
  2
AcDbDictionaryVar
  3
ObjectDBX Classes
 90
        0
280
     0
281
     0
  0
CLASS
  1
XRECORD
  2
AcDbXrecord
  3
AutoCAD 2000
 90
        0
280
     0
281
     0
  0
CLASS
  1
LWPOLYLINE
  2
AcDbPolyline
  3
AutoCAD 2000
 90
        0
280
     0
281
     1
  0
CLASS
  1
HATCH
  2
AcDbHatch
  3
AutoCAD 2000
 90
        0
280
     0
281
     1
  0
CLASS
  1
ACDBPLACEHOLDER
  2
AcDbPlaceHolder
  3
ObjectDBX Classes
 90
        0
280
     0
281
     0
  0
CLASS
  1
LAYOUT
  2
AcDbLayout
  3
ObjectDBX Classes
 90
        0
280
     0
281
     0
  0
ENDSEC
  0
SECTION
  2
TABLES
  0
TABLE
  2
VPORT
  5
8
330
0
100
AcDbSymbolTable
 70
     1
  0
VPORT
  5
29
330
8
100
AcDbSymbolTableRecord
100
AcDbViewportTableRecord
  2
*ACTIVE
 70
     0
 10
0.0
 20
0.0
 11
1.0
 21
1.0
 12
0.0
 22
0.0
 13
0.0
 23
0.0
 14
0.5
 24
0.5
 15
0.5
 25
0.5
 16
0.0
 26
0.0
 36
1.0
 17
27.50079165979145
 27
-27.50079165979145
 37
0.0
 40
55.00158331958289
 41
1.0
 42
50.0
 43
0.0
 44
0.0
 50
0.0
 51
0.0
 71
     0
 72
   100
 73
     1
 74
     3
 75
     0
 76
     0
 77
     0
 78
     0
  0
ENDTAB
  0
TABLE
  2
LTYPE
  5
5
330
0
100
AcDbSymbolTable
 70
     1
  0
LTYPE
  5
14
330
5
100
AcDbSymbolTableRecord
100
AcDbLinetypeTableRecord
  2
BYBLOCK
 70
     0
  3

 72
    65
 73
     0
 40
0.0
  0
LTYPE
  5
15
330
5
100
AcDbSymbolTableRecord
100
AcDbLinetypeTableRecord
  2
BYLAYER
 70
     0
  3

 72
    65
 73
     0
 40
0.0
  0
LTYPE
  5
16
330
5
100
AcDbSymbolTableRecord
100
AcDbLinetypeTableRecord
  2
CONTINUOUS
 70
     0
  3
Solid line
 72
    65
 73
     0
 40
0.0
  0
ENDTAB
  0
TABLE
  2
LAYER
  5
2
330
0
100
AcDbSymbolTable
 70
     2
  0
LAYER
  5
10
330
2
100
AcDbSymbolTableRecord
100
AcDbLayerTableRecord
  2
0
 70
     0
 62
     7
  6
CONTINUOUS
  0
LAYER
  5
40
330
2
100
AcDbSymbolTableRecord
100
AcDbLayerTableRecord
  2
LAYER_1
 70
     0
 62
     7
  6
CONTINUOUS
  0
ENDTAB
  0
TABLE
  2
STYLE
  5
3
330
0
100
AcDbSymbolTable
 70
     1
  0
STYLE
  5
11
330
3
100
AcDbSymbolTableRecord
100
AcDbTextStyleTableRecord
  2
STANDARD
 70
     0
 40
0.0
 41
1.0
 50
0.0
 71
     0
 42
0.2
  3
txt
  4

  0
ENDTAB
  0
TABLE
  2
VIEW
  5
6
330
0
100
AcDbSymbolTable
 70
     0
  0
ENDTAB
  0
TABLE
  2
UCS
  5
7
330
0
100
AcDbSymbolTable
 70
     0
  0
ENDTAB
  0
TABLE
  2
APPID
  5
9
330
0
100
AcDbSymbolTable
 70
     1
  0
APPID
  5
12
330
9
100
AcDbSymbolTableRecord
100
AcDbRegAppTableRecord
  2
ACAD
 70
     0
  0
ENDTAB
  0
TABLE
  2
DIMSTYLE
  5
A
330
0
100
AcDbSymbolTable
 70
     1
  0
DIMSTYLE
105
27
330
A
100
AcDbSymbolTableRecord
100
AcDbDimStyleTableRecord
  2
STANDARD
 70
     0
  3

  4

  5

  6

  7

 40
1.0
 41
0.18
 42
0.0625
 43
0.38
 44
0.18
 45
0.0
 46
0.0
 47
0.0
 48
0.0
140
0.18
141
0.09
142
0.0
143
25.4
144
1.0
145
0.0
146
1.0
147
0.09
 71
     0
 72
     0
 73
     1
 74
     1
 75
     0
 76
     0
 77
     0
 78
     0
170
     0
171
     2
172
     0
173
     0
174
     0
175
     0
176
     0
177
     0
178
     0
270
     2
271
     4
272
     4
273
     2
274
     2
340
11
275
     0
280
     0
281
     0
282
     0
283
     1
284
     0
285
     0
286
     0
287
     3
288
     0
  0
ENDTAB
  0
TABLE
  2
BLOCK_RECORD
  5
1
330
0
100
AcDbSymbolTable
 70
     1
  0
BLOCK_RECORD
  5
1F
330
1
100
AcDbSymbolTableRecord
100
AcDbBlockTableRecord
  2
*MODEL_SPACE
  0
BLOCK_RECORD
  5
1B
330
1
100
AcDbSymbolTableRecord
100
AcDbBlockTableRecord
  2
*PAPER_SPACE
  0
ENDTAB
  0
ENDSEC
  0
SECTION
  2
BLOCKS
  0
BLOCK
  5
20
330
1F
100
AcDbEntity
  8
0
100
AcDbBlockBegin
  2
*MODEL_SPACE
 70
     0
 10
0.0
 20
0.0
 30
0.0
  3
*MODEL_SPACE
  1

  0
ENDBLK
  5
21
330
1F
100
AcDbEntity
  8
0
100
AcDbBlockEnd
  0
BLOCK
  5
1C
330
1B
100
AcDbEntity
 67
     1
  8
0
100
AcDbBlockBegin
  2
*PAPER_SPACE
 70
     0
 10
0.0
 20
0.0
 30
0.0
  3
*PAPER_SPACE
  1

  0
ENDBLK
  5
1D
330
1B
100
AcDbEntity
 67
     1
  8
0
100
AcDbBlockEnd
  0
ENDSEC
  0
SECTION
  2
ENTITIES
  0
SPLINE
  5
41
330
1F
100
AcDbEntity
  8
LAYER_1
100
AcDbSpline
210
0.0
220
0.0
230
1.0
 70
    11
 71
     3
 72
    17
 73
    13
 74
     0
 42
0.0000000001
 43
0.0000000001
 12
1.0
 22
0.0
 32
0.0
 13
1.0
 23
0.0
 33
0.0
 40
0.0
 40
0.0
 40
0.0
 40
0.0
 40
1.0
 40
1.0
 40
1.0
 40
2.0
 40
2.0
 40
2.0
 40
3.0
 40
3.0
 40
3.0
 40
4.0
 40
4.0
 40
4.0
 40
4.0
 10
14.378398678691
 20
-34.47016879466839
 30
0.0
 10
12.49177124961901
 20
-34.47016879466839
 30
0.0
 10
10.96236803003129
 20
-35.99956736185464
 30
0.0
 10
10.96236803003129
 20
-37.88617698607911
 30
0.0
 10
10.96236803003129
 20
-39.77279097180616
 30
0.0
 10
12.49177124961901
 20
-41.30218953899242
 30
0.0
 10
14.378398678691
 20
-41.30218953899242
 30
0.0
 10
16.26499121577076
 20
-41.30218953899242
 30
0.0
 10
17.79439443535783
 20
-39.77279097180616
 30
0.0
 10
17.79439443535783
 20
-37.88617698607911
 30
0.0
 10
17.79439443535783
 20
-35.99956736185464
 30
0.0
 10
16.26499121577076
 20
-34.47016879466839
 30
0.0
 10
14.378398678691
 20
-34.47016879466839
 30
0.0
  0
SPLINE
  5
42
330
1F
100
AcDbEntity
  8
LAYER_1
100
AcDbSpline
210
0.0
220
0.0
230
1.0
 70
    11
 71
     3
 72
    17
 73
    13
 74
     0
 42
0.0000000001
 43
0.0000000001
 12
1.0
 22
0.0
 32
0.0
 13
1.0
 23
0.0
 33
0.0
 40
0.0
 40
0.0
 40
0.0
 40
0.0
 40
1.0
 40
1.0
 40
1.0
 40
2.0
 40
2.0
 40
2.0
 40
3.0
 40
3.0
 40
3.0
 40
4.0
 40
4.0
 40
4.0
 40
4.0
 10
14.378398678691
 20
-39.73082463695138
 30
0.0
 10
13.35962230943169
 20
-39.73082463695138
 30
0.0
 10
12.5337463154521
 20
-38.90494880006229
 30
0.0
 10
12.5337463154521
 20
-37.88617698607911
 30
0.0
 10
12.5337463154521
 20
-36.86740953359596
 30
0.0
 10
13.35962230943169
 20
-36.04153369670558
 30
0.0
 10
14.378398678691
 20
-36.04153369670558
 30
0.0
 10
15.397157601955
 20
-36.04153369670558
 30
0.0
 10
16.22303359593202
 20
-36.86740953359596
 30
0.0
 10
16.22303359593202
 20
-37.88617698607911
 30
0.0
 10
16.22303359593202
 20
-38.90494880006229
 30
0.0
 10
15.397157601955
 20
-39.73082463695138
 30
0.0
 10
14.378398678691
 20
-39.73082463695138
 30
0.0
  0
HATCH
  5
43
330
1F
100
AcDbEntity
  8
LAYER_1
 62
   250
100
AcDbHatch
 10
0.0
 20
0.0
 30
0.0
210
0.0
220
0.0
230
1.0
  2
SOLID
 70
     1
 71
     0
 91
        2
 92
        1
 93
        1
 72
     4
 94
        3
 73
     0
 74
     1
 95
       17
 96
       13
 40
0.0
 40
0.0
 40
0.0
 40
0.0
 40
1.0
 40
1.0
 40
1.0
 40
2.0
 40
2.0
 40
2.0
 40
3.0
 40
3.0
 40
3.0
 40
4.0
 40
4.0
 40
4.0
 40
4.0
 10
14.378398678691
 20
-34.47016879466839
 10
12.49177124961901
 20
-34.47016879466839
 10
10.96236803003129
 20
-35.99956736185464
 10
10.96236803003129
 20
-37.88617698607911
 10
10.96236803003129
 20
-39.77279097180616
 10
12.49177124961901
 20
-41.30218953899242
 10
14.378398678691
 20
-41.30218953899242
 10
16.26499121577076
 20
-41.30218953899242
 10
17.79439443535783
 20
-39.77279097180616
 10
17.79439443535783
 20
-37.88617698607911
 10
17.79439443535783
 20
-35.99956736185464
 10
16.26499121577076
 20
-34.47016879466839
 10
14.378398678691
 20
-34.47016879466839
 97
        0
 92
        1
 93
        1
 72
     4
 94
        3
 73
     0
 74
     1
 95
       17
 96
       13
 40
0.0
 40
0.0
 40
0.0
 40
0.0
 40
1.0
 40
1.0
 40
1.0
 40
2.0
 40
2.0
 40
2.0
 40
3.0
 40
3.0
 40
3.0
 40
4.0
 40
4.0
 40
4.0
 40
4.0
 10
14.378398678691
 20
-39.73082463695138
 10
13.35962230943169
 20
-39.73082463695138
 10
12.5337463154521
 20
-38.90494880006229
 10
12.5337463154521
 20
-37.88617698607911
 10
12.5337463154521
 20
-36.86740953359596
 10
13.35962230943169
 20
-36.04153369670558
 10
14.378398678691
 20
-36.04153369670558
 10
15.397157601955
 20
-36.04153369670558
 10
16.22303359593202
 20
-36.86740953359596
 10
16.22303359593202
 20
-37.88617698607911
 10
16.22303359593202
 20
-38.90494880006229
 10
15.397157601955
 20
-39.73082463695138
 10
14.378398678691
 20
-39.73082463695138
 97
        0
 75
     2
 76
     1
 98
        0
  0
SPLINE
  5
44
330
1F
100
AcDbEntity
  8
LAYER_1
100
AcDbSpline
210
0.0
220
0.0
230
1.0
 70
    11
 71
     3
 72
    17
 73
    13
 74
     0
 42
0.0000000001
 43
0.0000000001
 12
1.0
 22
0.0
 32
0.0
 13
1.0
 23
0.0
 33
0.0
 40
0.0
 40
0.0
 40
0.0
 40
0.0
 40
1.0
 40
1.0
 40
1.0
 40
2.0
 40
2.0
 40
2.0
 40
3.0
 40
3.0
 40
3.0
 40
4.0
 40
4.0
 40
4.0
 40
4.0
 10
22.3610931813345
 20
-34.47016879466839
 30
0.0
 10
20.47448319825718
 20
-34.47016879466839
 30
0.0
 10
18.9450799786701
 20
-35.99956736185464
 30
0.0
 10
18.9450799786701
 20
-37.88617698607911
 30
0.0
 10
18.9450799786701
 20
-39.77279097180616
 30
0.0
 10
20.47448319825718
 20
-41.30218953899242
 30
0.0
 10
22.3610931813345
 20
-41.30218953899242
 30
0.0
 10
24.24770316440893
 20
-41.30218953899242
 30
0.0
 10
25.77710638399665
 20
-39.77279097180616
 30
0.0
 10
25.77710638399665
 20
-37.88617698607911
 30
0.0
 10
25.77710638399665
 20
-35.99956736185464
 30
0.0
 10
24.24770316440893
 20
-34.47016879466839
 30
0.0
 10
22.3610931813345
 20
-34.47016879466839
 30
0.0
  0
SPLINE
  5
45
330
1F
100
AcDbEntity
  8
LAYER_1
100
AcDbSpline
210
0.0
220
0.0
230
1.0
 70
    11
 71
     3
 72
    17
 73
    13
 74
     0
 42
0.0000000001
 43
0.0000000001
 12
1.0
 22
0.0
 32
0.0
 13
1.0
 23
0.0
 33
0.0
 40
0.0
 40
0.0
 40
0.0
 40
0.0
 40
1.0
 40
1.0
 40
1.0
 40
2.0
 40
2.0
 40
2.0
 40
3.0
 40
3.0
 40
3.0
 40
4.0
 40
4.0
 40
4.0
 40
4.0
 10
22.3610931813345
 20
-39.73082463695138
 30
0.0
 10
21.34231681207422
 20
-39.73082463695138
 30
0.0
 10
20.51644081809592
 20
-38.90494443856482
 30
0.0
 10
20.51644081809592
 20
-37.88617698607911
 30
0.0
 10
20.51644081809592
 20
-36.86740953359596
 30
0.0
 10
21.34231681207422
 20
-36.04153369670558
 30
0.0
 10
22.3610931813345
 20
-36.04153369670558
 30
0.0
 10
23.37986955059317
 20
-36.04153369670558
 30
0.0
 10
24.20572809857584
 20
-36.86740953359596
 30
0.0
 10
24.20572809857584
 20
-37.88617698607911
 30
0.0
 10
24.20572809857584
 20
-38.90494443856482
 30
0.0
 10
23.37986955059317
 20
-39.73082463695138
 30
0.0
 10
22.3610931813345
 20
-39.73082463695138
 30
0.0
  0
HATCH
  5
46
330
1F
100
AcDbEntity
  8
LAYER_1
 62
   250
100
AcDbHatch
 10
0.0
 20
0.0
 30
0.0
210
0.0
220
0.0
230
1.0
  2
SOLID
 70
     1
 71
     0
 91
        2
 92
        1
 93
        1
 72
     4
 94
        3
 73
     0
 74
     1
 95
       17
 96
       13
 40
0.0
 40
0.0
 40
0.0
 40
0.0
 40
1.0
 40
1.0
 40
1.0
 40
2.0
 40
2.0
 40
2.0
 40
3.0
 40
3.0
 40
3.0
 40
4.0
 40
4.0
 40
4.0
 40
4.0
 10
22.3610931813345
 20
-34.47016879466839
 10
20.47448319825718
 20
-34.47016879466839
 10
18.9450799786701
 20
-35.99956736185464
 10
18.9450799786701
 20
-37.88617698607911
 10
18.9450799786701
 20
-39.77279097180616
 10
20.47448319825718
 20
-41.30218953899242
 10
22.3610931813345
 20
-41.30218953899242
 10
24.24770316440893
 20
-41.30218953899242
 10
25.77710638399665
 20
-39.77279097180616
 10
25.77710638399665
 20
-37.88617698607911
 10
25.77710638399665
 20
-35.99956736185464
 10
24.24770316440893
 20
-34.47016879466839
 10
22.3610931813345
 20
-34.47016879466839
 97
        0
 92
        1
 93
        1
 72
     4
 94
        3
 73
     0
 74
     1
 95
       17
 96
       13
 40
0.0
 40
0.0
 40
0.0
 40
0.0
 40
1.0
 40
1.0
 40
1.0
 40
2.0
 40
2.0
 40
2.0
 40
3.0
 40
3.0
 40
3.0
 40
4.0
 40
4.0
 40
4.0
 40
4.0
 10
22.3610931813345
 20
-39.73082463695138
 10
21.34231681207422
 20
-39.73082463695138
 10
20.51644081809592
 20
-38.90494443856482
 10
20.51644081809592
 20
-37.88617698607911
 10
20.51644081809592
 20
-36.86740953359596
 10
21.34231681207422
 20
-36.04153369670558
 10
22.3610931813345
 20
-36.04153369670558
 10
23.37986955059317
 20
-36.04153369670558
 10
24.20572809857584
 20
-36.86740953359596
 10
24.20572809857584
 20
-37.88617698607911
 10
24.20572809857584
 20
-38.90494443856482
 10
23.37986955059317
 20
-39.73082463695138
 10
22.3610931813345
 20
-39.73082463695138
 97
        0
 75
     2
 76
     1
 98
        0
  0
SPLINE
  5
47
330
1F
100
AcDbEntity
  8
LAYER_1
100
AcDbSpline
210
0.0
220
0.0
230
1.0
 70
    11
 71
     3
 72
    65
 73
    61
 74
     0
 42
0.0000000001
 43
0.0000000001
 12
1.0
 22
0.0
 32
0.0
 13
1.0
 23
0.0
 33
0.0
 40
0.0
 40
0.0
 40
0.0
 40
0.0
 40
1.0
 40
1.0
 40
1.0
 40
2.0
 40
2.0
 40
2.0
 40
3.0
 40
3.0
 40
3.0
 40
4.0
 40
4.0
 40
4.0
 40
5.0
 40
5.0
 40
5.0
 40
6.0
 40
6.0
 40
6.0
 40
7.0
 40
7.0
 40
7.0
 40
8.0
 40
8.0
 40
8.0
 40
9.0
 40
9.0
 40
9.0
 40
10.0
 40
10.0
 40
10.0
 40
11.0
 40
11.0
 40
11.0
 40
12.0
 40
12.0
 40
12.0
 40
13.0
 40
13.0
 40
13.0
 40
14.0
 40
14.0
 40
14.0
 40
15.0
 40
15.0
 40
15.0
 40
16.0
 40
16.0
 40
16.0
 40
17.0
 40
17.0
 40
17.0
 40
18.0
 40
18.0
 40
18.0
 40
19.0
 40
19.0
 40
19.0
 40
20.0
 40
20.0
 40
20.0
 40
20.0
 10
33.03321005461432
 20
-34.72491953801168
 30
0.0
 10
32.61668690549408
 20
-34.72491953801168
 30
0.0
 10
32.27680401581281
 20
-35.04929287575482
 30
0.0
 10
32.2501639802628
 20
-35.45908179256102
 30
0.0
 10
32.24786110882132
 20
-35.46622592647157
 30
0.0
 10
32.24627352320527
 20
-35.4733438913935
 30
0.0
 10
32.24627352320527
 20
-35.48020016642777
 30
0.0
 10
32.24627352320527
 20
-35.48020016642777
 30
0.0
 10
32.24627352320527
 20
-40.67415125655478
 30
0.0
 10
32.24627352320527
 20
-40.67415125655478
 30
0.0
 10
32.24627352320527
 20
-40.67415125655478
 30
0.0
 10
28.34248772467776
 20
-35.10904539991819
 30
0.0
 10
28.34248772467776
 20
-35.10904539991819
 30
0.0
 10
28.20138451085224
 20
-34.87894584391142
 30
0.0
 10
27.94831289614594
 20
-34.72491953801168
 30
0.0
 10
27.65862213630621
 20
-34.72491953801168
 30
0.0
 10
27.21540661365229
 20
-34.72491953801168
 30
0.0
 10
26.85608888467508
 20
-35.08422411415234
 30
0.0
 10
26.85608888467508
 20
-35.52744391400115
 30
0.0
 10
26.85608888467508
 20
-35.52744391400115
 30
0.0
 10
26.85608888467508
 20
-41.54967838797437
 30
0.0
 10
26.85608888467508
 20
-41.54967838797437
 30
0.0
 10
26.85608888467508
 20
-41.54967838797437
 30
0.0
 10
26.85938617787727
 20
-41.54967838797437
 30
0.0
 10
26.85938617787727
 20
-41.54967838797437
 30
0.0
 10
26.89263824582276
 20
-41.95618745820096
 30
0.0
 10
27.23246879751907
 20
-42.27589399295906
 30
0.0
 10
27.64754392899087
 20
-42.27589399295906
 30
0.0
 10
28.06263650645832
 20
-42.27589399295906
 30
0.0
 10
28.40246705815077
 20
-41.95618745820096
 30
0.0
 10
28.43571912609755
 20
-41.54967838797437
 30
0.0
 10
28.43571912609755
 20
-41.54967838797437
 30
0.0
 10
28.43899897330346
 20
-41.54967838797437
 30
0.0
 10
28.43899897330346
 20
-41.54967838797437
 30
0.0
 10
28.43899897330346
 20
-41.54967838797437
 30
0.0
 10
28.43899897330346
 20
-37.75566351651598
 30
0.0
 10
28.43899897330346
 20
-37.75566351651598
 30
0.0
 10
28.43899897330346
 20
-37.75566351651598
 30
0.0
 10
32.32757186351602
 20
-43.31271368613591
 30
0.0
 10
32.32757186351602
 20
-43.31271368613591
 30
0.0
 10
32.46764576359407
 20
-43.54727505471482
 30
0.0
 10
32.72326449368265
 20
-43.7048647045717
 30
0.0
 10
33.01632233070451
 20
-43.7048647045717
 30
0.0
 10
33.43703251881254
 20
-43.7048647045717
 30
0.0
 10
33.78152115138192
 20
-43.38094496263159
 30
0.0
 10
33.81547105915786
 20
-42.9689927427635
 30
0.0
 10
33.81747734867167
 20
-42.96165670293371
 30
0.0
 10
33.81885558233756
 20
-42.95434683209255
 30
0.0
 10
33.81885558233756
 20
-42.94730737413911
 30
0.0
 10
33.81885558233756
 20
-42.94730737413911
 30
0.0
 10
33.81885558233756
 20
-42.27589399295906
 30
0.0
 10
33.81885558233756
 20
-42.27589399295906
 30
0.0
 10
33.81885558233756
 20
-42.27589399295906
 30
0.0
 10
33.81885558233756
 20
-35.48020016642777
 30
0.0
 10
33.81885558233756
 20
-35.48020016642777
 30
0.0
 10
33.81885558233756
 20
-35.47402428510189
 30
0.0
 10
33.81789605256942
 20
-35.46763469036176
 30
0.0
 10
33.81636080494219
 20
-35.46120584214444
 30
0.0
 10
33.79076752914171
 20
-35.05041814226875
 30
0.0
 10
33.45044848956512
 20
-34.72491953801168
 30
0.0
 10
33.03321005461432
 20
-34.72491953801168
 30
0.0
  0
HATCH
  5
48
330
1F
100
AcDbEntity
  8
LAYER_1
 62
   250
100
AcDbHatch
 10
0.0
 20
0.0
 30
0.0
210
0.0
220
0.0
230
1.0
  2
SOLID
 70
     1
 71
     0
 91
        1
 92
        1
 93
        1
 72
     4
 94
        3
 73
     0
 74
     1
 95
       65
 96
       61
 40
0.0
 40
0.0
 40
0.0
 40
0.0
 40
1.0
 40
1.0
 40
1.0
 40
2.0
 40
2.0
 40
2.0
 40
3.0
 40
3.0
 40
3.0
 40
4.0
 40
4.0
 40
4.0
 40
5.0
 40
5.0
 40
5.0
 40
6.0
 40
6.0
 40
6.0
 40
7.0
 40
7.0
 40
7.0
 40
8.0
 40
8.0
 40
8.0
 40
9.0
 40
9.0
 40
9.0
 40
10.0
 40
10.0
 40
10.0
 40
11.0
 40
11.0
 40
11.0
 40
12.0
 40
12.0
 40
12.0
 40
13.0
 40
13.0
 40
13.0
 40
14.0
 40
14.0
 40
14.0
 40
15.0
 40
15.0
 40
15.0
 40
16.0
 40
16.0
 40
16.0
 40
17.0
 40
17.0
 40
17.0
 40
18.0
 40
18.0
 40
18.0
 40
19.0
 40
19.0
 40
19.0
 40
20.0
 40
20.0
 40
20.0
 40
20.0
 10
33.03321005461432
 20
-34.72491953801168
 10
32.61668690549408
 20
-34.72491953801168
 10
32.27680401581281
 20
-35.04929287575482
 10
32.2501639802628
 20
-35.45908179256102
 10
32.24786110882132
 20
-35.46622592647157
 10
32.24627352320527
 20
-35.4733438913935
 10
32.24627352320527
 20
-35.48020016642777
 10
32.24627352320527
 20
-35.48020016642777
 10
32.24627352320527
 20
-40.67415125655478
 10
32.24627352320527
 20
-40.67415125655478
 10
32.24627352320527
 20
-40.67415125655478
 10
28.34248772467776
 20
-35.10904539991819
 10
28.34248772467776
 20
-35.10904539991819
 10
28.20138451085224
 20
-34.87894584391142
 10
27.94831289614594
 20
-34.72491953801168
 10
27.65862213630621
 20
-34.72491953801168
 10
27.21540661365229
 20
-34.72491953801168
 10
26.85608888467508
 20
-35.08422411415234
 10
26.85608888467508
 20
-35.52744391400115
 10
26.85608888467508
 20
-35.52744391400115
 10
26.85608888467508
 20
-41.54967838797437
 10
26.85608888467508
 20
-41.54967838797437
 10
26.85608888467508
 20
-41.54967838797437
 10
26.85938617787727
 20
-41.54967838797437
 10
26.85938617787727
 20
-41.54967838797437
 10
26.89263824582276
 20
-41.95618745820096
 10
27.23246879751907
 20
-42.27589399295906
 10
27.64754392899087
 20
-42.27589399295906
 10
28.06263650645832
 20
-42.27589399295906
 10
28.40246705815077
 20
-41.95618745820096
 10
28.43571912609755
 20
-41.54967838797437
 10
28.43571912609755
 20
-41.54967838797437
 10
28.43899897330346
 20
-41.54967838797437
 10
28.43899897330346
 20
-41.54967838797437
 10
28.43899897330346
 20
-41.54967838797437
 10
28.43899897330346
 20
-37.75566351651598
 10
28.43899897330346
 20
-37.75566351651598
 10
28.43899897330346
 20
-37.75566351651598
 10
32.32757186351602
 20
-43.31271368613591
 10
32.32757186351602
 20
-43.31271368613591
 10
32.46764576359407
 20
-43.54727505471482
 10
32.72326449368265
 20
-43.7048647045717
 10
33.01632233070451
 20
-43.7048647045717
 10
33.43703251881254
 20
-43.7048647045717
 10
33.78152115138192
 20
-43.38094496263159
 10
33.81547105915786
 20
-42.9689927427635
 10
33.81747734867167
 20
-42.96165670293371
 10
33.81885558233756
 20
-42.95434683209255
 10
33.81885558233756
 20
-42.94730737413911
 10
33.81885558233756
 20
-42.94730737413911
 10
33.81885558233756
 20
-42.27589399295906
 10
33.81885558233756
 20
-42.27589399295906
 10
33.81885558233756
 20
-42.27589399295906
 10
33.81885558233756
 20
-35.48020016642777
 10
33.81885558233756
 20
-35.48020016642777
 10
33.81885558233756
 20
-35.47402428510189
 10
33.81789605256942
 20
-35.46763469036176
 10
33.81636080494219
 20
-35.46120584214444
 10
33.79076752914171
 20
-35.05041814226875
 10
33.45044848956512
 20
-34.72491953801168
 10
33.03321005461432
 20
-34.72491953801168
 97
        0
 75
     2
 76
     1
 98
        0
  0
SPLINE
  5
49
330
1F
100
AcDbEntity
  8
LAYER_1
100
AcDbSpline
210
0.0
220
0.0
230
1.0
 70
    11
 71
     3
 72
   245
 73
   241
 74
     0
 42
0.0000000001
 43
0.0000000001
 12
1.0
 22
0.0
 32
0.0
 13
1.0
 23
0.0
 33
0.0
 40
0.0
 40
0.0
 40
0.0
 40
0.0
 40
1.0
 40
1.0
 40
1.0
 40
2.0
 40
2.0
 40
2.0
 40
3.0
 40
3.0
 40
3.0
 40
4.0
 40
4.0
 40
4.0
 40
5.0
 40
5.0
 40
5.0
 40
6.0
 40
6.0
 40
6.0
 40
7.0
 40
7.0
 40
7.0
 40
8.0
 40
8.0
 40
8.0
 40
9.0
 40
9.0
 40
9.0
 40
10.0
 40
10.0
 40
10.0
 40
11.0
 40
11.0
 40
11.0
 40
12.0
 40
12.0
 40
12.0
 40
13.0
 40
13.0
 40
13.0
 40
14.0
 40
14.0
 40
14.0
 40
15.0
 40
15.0
 40
15.0
 40
16.0
 40
16.0
 40
16.0
 40
17.0
 40
17.0
 40
17.0
 40
18.0
 40
18.0
 40
18.0
 40
19.0
 40
19.0
 40
19.0
 40
20.0
 40
20.0
 40
20.0
 40
21.0
 40
21.0
 40
21.0
 40
22.0
 40
22.0
 40
22.0
 40
23.0
 40
23.0
 40
23.0
 40
24.0
 40
24.0
 40
24.0
 40
25.0
 40
25.0
 40
25.0
 40
26.0
 40
26.0
 40
26.0
 40
27.0
 40
27.0
 40
27.0
 40
28.0
 40
28.0
 40
28.0
 40
29.0
 40
29.0
 40
29.0
 40
30.0
 40
30.0
 40
30.0
 40
31.0
 40
31.0
 40
31.0
 40
32.0
 40
32.0
 40
32.0
 40
33.0
 40
33.0
 40
33.0
 40
34.0
 40
34.0
 40
34.0
 40
35.0
 40
35.0
 40
35.0
 40
36.0
 40
36.0
 40
36.0
 40
37.0
 40
37.0
 40
37.0
 40
38.0
 40
38.0
 40
38.0
 40
39.0
 40
39.0
 40
39.0
 40
40.0
 40
40.0
 40
40.0
 40
41.0
 40
41.0
 40
41.0
 40
42.0
 40
42.0
 40
42.0
 40
43.0
 40
43.0
 40
43.0
 40
44.0
 40
44.0
 40
44.0
 40
45.0
 40
45.0
 40
45.0
 40
46.0
 40
46.0
 40
46.0
 40
47.0
 40
47.0
 40
47.0
 40
48.0
 40
48.0
 40
48.0
 40
49.0
 40
49.0
 40
49.0
 40
50.0
 40
50.0
 40
50.0
 40
51.0
 40
51.0
 40
51.0
 40
52.0
 40
52.0
 40
52.0
 40
53.0
 40
53.0
 40
53.0
 40
54.0
 40
54.0
 40
54.0
 40
55.0
 40
55.0
 40
55.0
 40
56.0
 40
56.0
 40
56.0
 40
57.0
 40
57.0
 40
57.0
 40
58.0
 40
58.0
 40
58.0
 40
59.0
 40
59.0
 40
59.0
 40
60.0
 40
60.0
 40
60.0
 40
61.0
 40
61.0
 40
61.0
 40
62.0
 40
62.0
 40
62.0
 40
63.0
 40
63.0
 40
63.0
 40
64.0
 40
64.0
 40
64.0
 40
65.0
 40
65.0
 40
65.0
 40
66.0
 40
66.0
 40
66.0
 40
67.0
 40
67.0
 40
67.0
 40
68.0
 40
68.0
 40
68.0
 40
69.0
 40
69.0
 40
69.0
 40
70.0
 40
70.0
 40
70.0
 40
71.0
 40
71.0
 40
71.0
 40
72.0
 40
72.0
 40
72.0
 40
73.0
 40
73.0
 40
73.0
 40
74.0
 40
74.0
 40
74.0
 40
75.0
 40
75.0
 40
75.0
 40
76.0
 40
76.0
 40
76.0
 40
77.0
 40
77.0
 40
77.0
 40
78.0
 40
78.0
 40
78.0
 40
79.0
 40
79.0
 40
79.0
 40
80.0
 40
80.0
 40
80.0
 40
80.0
 10
43.42260488440663
 20
-42.90561145216947
 30
0.0
 10
43.42237808646148
 20
-42.89132318434707
 30
0.0
 10
43.42147089468344
 20
-42.87703491652339
 30
0.0
 10
43.4204415809302
 20
-42.86271175671742
 30
0.0
 10
43.41958672713714
 20
-42.85070891390773
 30
0.0
 10
43.41876676533406
 20
-42.83874096308417
 30
0.0
 10
43.41737108567446
 20
-42.8268951342063
 30
0.0
 10
43.41583583804466
 20
-42.81382808585616
 30
0.0
 10
43.41362019658069
 20
-42.80082209847694
 30
0.0
 10
43.41140455512058
 20
-42.78778121911929
 30
0.0
 10
43.40917146766034
 20
-42.77453971084491
 30
0.0
 10
43.4069209342051
 20
-42.76133309455282
 30
0.0
 10
43.40404234490453
 20
-42.74832710717745
 30
0.0
 10
43.40156501350158
 20
-42.73732740893472
 30
0.0
 10
43.39854685623337
 20
-42.72642366365032
 30
0.0
 10
43.39559848294898
 20
-42.71546758038865
 30
0.0
 10
43.39162079591392
 20
-42.7006733787821
 30
0.0
 10
43.38753843289864
 20
-42.68596640714409
 30
0.0
 10
43.38272333806551
 20
-42.67152984838608
 30
0.0
 10
43.37958305882595
 20
-42.66208284347039
 30
0.0
 10
43.37593684570983
 20
-42.6527317915156
 30
0.0
 10
43.37239530856623
 20
-42.64333712457718
 30
0.0
 10
43.36663812996251
 20
-42.62801082020425
 30
0.0
 10
43.36067159940863
 20
-42.61283280676694
 30
0.0
 10
43.35397233702919
 20
-42.5979862671844
 30
0.0
 10
43.35234985942316
 20
-42.59435750075502
 30
0.0
 10
43.35121586969741
 20
-42.59062405836853
 30
0.0
 10
43.34952360810499
 20
-42.5870127379303
 30
0.0
 10
43.34952360810499
 20
-42.5870127379303
 30
0.0
 10
43.35009932596664
 20
-42.58673360205408
 30
0.0
 10
43.35009932596664
 20
-42.58673360205408
 30
0.0
 10
43.35009932596664
 20
-42.58673360205408
 30
0.0
 10
39.91779156324909
 20
-35.18150732958573
 30
0.0
 10
39.91779156324909
 20
-35.18150732958573
 30
0.0
 10
39.84270399743749
 20
-35.01869260498368
 30
0.0
 10
39.71215561105191
 20
-34.88042439177258
 30
0.0
 10
39.5369280294922
 20
-34.7987160861048
 30
0.0
 10
39.51683024236159
 20
-34.78934322666012
 30
0.0
 10
39.49641842730317
 20
-34.78150125304746
 30
0.0
 10
39.47597172025605
 20
-34.77395586131243
 30
0.0
 10
39.47462837858014
 20
-34.7734630120258
 30
0.0
 10
39.47335482088933
 20
-34.77283059479593
 30
0.0
 10
39.4719940332197
 20
-34.77234210700805
 30
0.0
 10
39.45189624608781
 20
-34.76504532066443
 30
0.0
 10
39.43160655299946
 20
-34.7590308147627
 30
0.0
 10
39.41126452192742
 20
-34.75346554317166
 30
0.0
 10
39.40688557698959
 20
-34.75226176969439
 30
0.0
 10
39.40259386202673
 20
-34.75076141434077
 30
0.0
 10
39.39818002509892
 20
-34.74963178633066
 30
0.0
 10
39.37973960756432
 20
-34.74493009136078
 30
0.0
 10
39.36122940604464
 20
-34.74136674740235
 30
0.0
 10
39.34268431253753
 20
-34.73804764733787
 30
0.0
 10
39.33574080621795
 20
-34.73679153587819
 30
0.0
 10
39.32890197587601
 20
-34.73523884255115
 30
0.0
 10
39.32192357756517
 20
-34.73417027551452
 30
0.0
 10
39.30578603147335
 20
-34.73173219806875
 30
0.0
 10
39.28966593138036
 20
-34.73025801170633
 30
0.0
 10
39.2735109392897
 20
-34.72884488631612
 30
0.0
 10
39.26360161368945
 20
-34.72795077920373
 30
0.0
 10
39.25374462607932
 20
-34.72681678969359
 30
0.0
 10
39.24378296249153
 20
-34.72629777141704
 30
0.0
 10
39.23059378968281
 20
-34.72565226969735
 30
0.0
 10
39.21747440086048
 20
-34.72577875314307
 30
0.0
 10
39.20433756604187
 20
-34.72580056063295
 30
0.0
 10
39.19118328522956
 20
-34.72577875314307
 30
0.0
 10
39.1780638964085
 20
-34.72565226969735
 30
0.0
 10
39.16487472359979
 20
-34.72629777141704
 30
0.0
 10
39.15491306001457
 20
-34.72681242819613
 30
0.0
 10
39.14505607240059
 20
-34.72795077920373
 30
0.0
 10
39.13514674680162
 20
-34.72884488631612
 30
0.0
 10
39.11899175471609
 20
-34.73025801170633
 30
0.0
 10
39.10287165462054
 20
-34.73173655956493
 30
0.0
 10
39.08673410852615
 20
-34.73417463701199
 30
0.0
 10
39.0797731562103
 20
-34.73523884255115
 30
0.0
 10
39.07293432586708
 20
-34.73679153587819
 30
0.0
 10
39.06600826554763
 20
-34.73804328583912
 30
0.0
 10
39.04746317203667
 20
-34.74136238590617
 30
0.0
 10
39.02893552452583
 20
-34.74492572986203
 30
0.0
 10
39.01047766099497
 20
-34.74963178633066
 30
0.0
 10
39.00608127005958
 20
-34.75076141434077
 30
0.0
 10
39.00178955510184
 20
-34.75225304669433
 30
0.0
 10
38.99739316416518
 20
-34.7534611816742
 30
0.0
 10
38.97705113308929
 20
-34.75902645326523
 30
0.0
 10
38.9567614400048
 20
-34.76504095916439
 30
0.0
 10
38.93664620687662
 20
-34.77234646850423
 30
0.0
 10
38.93535520318954
 20
-34.77281751030225
 30
0.0
 10
38.93411653748613
 20
-34.77342375854221
 30
0.0
 10
38.93282553380418
 20
-34.77389916183641
 30
0.0
 10
38.91232648876824
 20
-34.78145763806511
 30
0.0
 10
38.89187978171984
 20
-34.78932141916895
 30
0.0
 10
38.87172965659784
 20
-34.7987160861048
 30
0.0
 10
38.69653696703067
 20
-34.88041130728018
 30
0.0
 10
38.56600602664394
 20
-35.01864026700897
 30
0.0
 10
38.4909010148335
 20
-35.18141137662611
 30
0.0
 10
38.4909010148335
 20
-35.18141137662611
 30
0.0
 10
35.05855836012404
 20
-42.58673360205408
 30
0.0
 10
35.05855836012404
 20
-42.58673360205408
 30
0.0
 10
35.05855836012404
 20
-42.58673360205408
 30
0.0
 10
35.05913407798441
 20
-42.5870127379303
 30
0.0
 10
35.05913407798441
 20
-42.5870127379303
 30
0.0
 10
34.87575921639684
 20
-42.98025413089259
 30
0.0
 10
35.04591001318571
 20
-43.44769332977248
 30
0.0
 10
35.43914275794952
 20
-43.63106815647986
 30
0.0
 10
35.83239294870575
 20
-43.81444298318852
 30
0.0
 10
36.29984095949438
 20
-43.64430966475295
 30
0.0
 10
36.48321582108131
 20
-43.25105954879445
 30
0.0
 10
36.48321582108131
 20
-43.25105954879445
 30
0.0
 10
36.48377409294669
 20
-43.25132996167831
 30
0.0
 10
36.48377409294669
 20
-43.25132996167831
 30
0.0
 10
36.48377409294669
 20
-43.25132996167831
 30
0.0
 10
39.20433756604187
 20
-37.38172611420703
 30
0.0
 10
39.20433756604187
 20
-37.38172611420703
 30
0.0
 10
39.20433756604187
 20
-37.38172611420703
 30
0.0
 10
41.40979056789735
 20
-42.14004204970129
 30
0.0
 10
41.40979056789735
 20
-42.14004204970129
 30
0.0
 10
41.40979056789735
 20
-42.14004204970129
 30
0.0
 10
39.20356994223147
 20
-42.15216265296048
 30
0.0
 10
39.20356994223147
 20
-42.15216265296048
 30
0.0
 10
39.20356994223147
 20
-42.15216265296048
 30
0.0
 10
39.20356994223147
 20
-42.15279070868904
 30
0.0
 10
39.20356994223147
 20
-42.15279070868904
 30
0.0
 10
38.76967058131858
 20
-42.15279070868904
 30
0.0
 10
38.4179244145095
 20
-42.50453680859329
 30
0.0
 10
38.4179244145095
 20
-42.9384360869747
 30
0.0
 10
38.4179244145095
 20
-43.37233536535611
 30
0.0
 10
38.76967058131858
 20
-43.72408146525908
 30
0.0
 10
39.20356994223147
 20
-43.72408146525908
 30
0.0
 10
39.20356994223147
 20
-43.72408146525908
 30
0.0
 10
39.20356994223147
 20
-43.72472696698262
 30
0.0
 10
39.20356994223147
 20
-43.72472696698262
 30
0.0
 10
39.20356994223147
 20
-43.72472696698262
 30
0.0
 10
42.6376746425101
 20
-43.70585912613859
 30
0.0
 10
42.6376746425101
 20
-43.70585912613859
 30
0.0
 10
42.6376746425101
 20
-43.70585912613859
 30
0.0
 10
42.6376746425101
 20
-43.70521362442018
 30
0.0
 10
42.6376746425101
 20
-43.70521362442018
 30
0.0
 10
42.64423433692448
 20
-43.70521362442018
 30
0.0
 10
42.65056723339114
 20
-43.70439366277495
 30
0.0
 10
42.65707458981412
 20
-43.70423664884186
 30
0.0
 10
42.66562312774089
 20
-43.70402729693276
 30
0.0
 10
42.6741542196791
 20
-43.70343413318649
 30
0.0
 10
42.68272020360214
 20
-43.70294564539733
 30
0.0
 10
42.70082914721394
 20
-43.70190760884937
 30
0.0
 10
42.7188159688608
 20
-43.70055554443393
 30
0.0
 10
42.73657599255994
 20
-43.6983224573972
 30
0.0
 10
42.74276932105769
 20
-43.69753738773683
 30
0.0
 10
42.74894520356045
 20
-43.69642956721661
 30
0.0
 10
42.7551559780596
 20
-43.69548748362313
 30
0.0
 10
42.77563757709798
 20
-43.69240826595769
 30
0.0
 10
42.79590982418878
 20
-43.68877949952318
 30
0.0
 10
42.81583315136177
 20
-43.68415631152434
 30
0.0
 10
42.81923512053903
 20
-43.68336251886775
 30
0.0
 10
42.82260219772375
 20
-43.68238554328943
 30
0.0
 10
42.82598672090344
 20
-43.68153941265557
 30
0.0
 10
42.84889331335595
 20
-43.67589563409735
 30
0.0
 10
42.87139864790441
 20
-43.66938827891028
 30
0.0
 10
42.89346783256013
 20
-43.66179054919284
 30
0.0
 10
42.89489840421357
 20
-43.66128461541511
 30
0.0
 10
42.89632897586701
 20
-43.66070889766254
 30
0.0
 10
42.897776993518
 20
-43.66020296388223
 30
0.0
 10
42.92169545372491
 20
-43.65180271851328
 30
0.0
 10
42.94503819606887
 20
-43.64232954460896
 30
0.0
 10
42.96784011254887
 20
-43.63174855018312
 30
0.0
 10
42.96784011254887
 20
-43.63174855018312
 30
0.0
 10
42.96895665627707
 20
-43.63132112337129
 30
0.0
 10
42.96895665627707
 20
-43.63132112337129
 30
0.0
 10
42.97042211992305
 20
-43.63063200666925
 30
0.0
 10
42.97124208172356
 20
-43.63009118090154
 30
0.0
 10
42.97214927350417
 20
-43.62965503109093
 30
0.0
 10
42.99416612017234
 20
-43.61926594258561
 30
0.0
 10
43.01560724898015
 20
-43.60795221647411
 30
0.0
 10
43.03645521393131
 20
-43.5956353457995
 30
0.0
 10
43.03970016914595
 20
-43.59371628663027
 30
0.0
 10
43.04287534037293
 20
-43.59172744349134
 30
0.0
 10
43.04612029559014
 20
-43.58976476933719
 30
0.0
 10
43.06431646918202
 20
-43.57864294914749
 30
0.0
 10
43.08204160088862
 20
-43.56688435023431
 30
0.0
 10
43.09922590672482
 20
-43.55436685064554
 30
0.0
 10
43.10421546151813
 20
-43.55075553020474
 30
0.0
 10
43.1091003403338
 20
-43.54706570280059
 30
0.0
 10
43.11396777315704
 20
-43.54334970641167
 30
0.0
 10
43.12888409954431
 20
-43.5319400273444
 30
0.0
 10
43.14336427603882
 20
-43.5200680294766
 30
0.0
 10
43.15742574863303
 20
-43.50763775985252
 30
0.0
 10
43.1632003732343
 20
-43.50253480705817
 30
0.0
 10
43.16888776785549
 20
-43.4973620702954
 30
0.0
 10
43.17448793249916
 20
-43.49211082656672
 30
0.0
 10
43.18727584740255
 20
-43.48012542974817
 30
0.0
 10
43.19959272041808
 20
-43.46773877510515
 30
0.0
 10
43.21154322752339
 20
-43.45493341664137
 30
0.0
 10
43.21702127019956
 20
-43.44906284018163
 30
0.0
 10
43.22242952889062
 20
-43.44316609472812
 30
0.0
 10
43.22769821961278
 20
-43.43714722733021
 30
0.0
 10
43.23935214478913
 20
-43.42387955006591
 30
0.0
 10
43.25046524409894
 20
-43.41021061497971
 30
0.0
 10
43.2612119774934
 20
-43.39617531404746
 30
0.0
 10
43.26562581442506
 20
-43.39040069054349
 30
0.0
 10
43.27000475936546
 20
-43.38462606704336
 30
0.0
 10
43.27424413633693
 20
-43.37873804458864
 30
0.0
 10
43.28520022168413
 20
-43.36360364613366
 30
0.0
 10
43.29549335919086
 20
-43.3480592668503
 30
0.0
 10
43.30536779279984
 20
-43.33213107573874
 30
0.0
 10
43.30850807204068
 20
-43.32703684594445
 30
0.0
 10
43.31164835127895
 20
-43.32196878513622
 30
0.0
 10
43.31466650855101
 20
-43.31681349436203
 30
0.0
 10
43.32468051012505
 20
-43.29978620572517
 30
0.0
 10
43.33397922587109
 20
-43.28236638225877
 30
0.0
 10
43.34270222375676
 20
-43.26456274695904
 30
0.0
 10
43.34491786522329
 20
-43.26001806592226
 30
0.0
 10
43.34713350668726
 20
-43.25549083088175
 30
0.0
 10
43.34927936416356
 20
-43.25091998085505
 30
0.0
 10
43.35777556410665
 20
-43.23268019574343
 30
0.0
 10
43.36552158623175
 20
-43.21409149078076
 30
0.0
 10
43.37263955250766
 20
-43.19512769698096
 30
0.0
 10
43.37445393607014
 20
-43.19031260306289
 30
0.0
 10
43.37623342763879
 20
-43.18549750914482
 30
0.0
 10
43.37794313522364
 20
-43.18064752324318
 30
0.0
 10
43.38439815366165
 20
-43.16239029213785
 30
0.0
 10
43.39013788626909
 20
-43.14387137114488
 30
0.0
 10
43.39523211703492
 20
-43.12502969929076
 30
0.0
 10
43.39701160860486
 20
-43.11850489811255
 30
0.0
 10
43.39866897820345
 20
-43.11198009693434
 30
0.0
 10
43.4002740098145
 20
-43.10542040376871
 30
0.0
 10
43.40439126481975
 20
-43.08853268307382
 30
0.0
 10
43.40798513994961
 20
-43.07148794844326
 30
0.0
 10
43.41096840522655
 20
-43.05418152392761
 30
0.0
 10
43.41264322081756
 20
-43.04467345803843
 30
0.0
 10
43.41402145448603
 20
-43.03513050016569
 30
0.0
 10
43.41534735016437
 20
-43.02553520431312
 30
0.0
 10
43.41731874768692
 20
-43.010959077617
 30
0.0
 10
43.41902845527176
 20
-42.99633933593854
 30
0.0
 10
43.42019733698878
 20
-42.9815189653472
 30
0.0
 10
43.42122665073945
 20
-42.96866126890487
 30
0.0
 10
43.42173258461601
 20
-42.95576868048155
 30
0.0
 10
43.4221512885189
 20
-42.94284120007209
 30
0.0
 10
43.42237808646148
 20
-42.93504284144177
 30
0.0
 10
43.42332017023463
 20
-42.92742766573319
 30
0.0
 10
43.42332017023463
 20
-42.91956824613452
 30
0.0
 10
43.42332017023463
 20
-42.91485782816971
 30
0.0
 10
43.42269211438672
 20
-42.91030442413928
 30
0.0
 10
43.42260488440663
 20
-42.90561145216947
 30
0.0
  0
HATCH
  5
4A
330
1F
100
AcDbEntity
  8
LAYER_1
 62
   250
100
AcDbHatch
 10
0.0
 20
0.0
 30
0.0
210
0.0
220
0.0
230
1.0
  2
SOLID
 70
     1
 71
     0
 91
        1
 92
        1
 93
        1
 72
     4
 94
        3
 73
     0
 74
     1
 95
      245
 96
      241
 40
0.0
 40
0.0
 40
0.0
 40
0.0
 40
1.0
 40
1.0
 40
1.0
 40
2.0
 40
2.0
 40
2.0
 40
3.0
 40
3.0
 40
3.0
 40
4.0
 40
4.0
 40
4.0
 40
5.0
 40
5.0
 40
5.0
 40
6.0
 40
6.0
 40
6.0
 40
7.0
 40
7.0
 40
7.0
 40
8.0
 40
8.0
 40
8.0
 40
9.0
 40
9.0
 40
9.0
 40
10.0
 40
10.0
 40
10.0
 40
11.0
 40
11.0
 40
11.0
 40
12.0
 40
12.0
 40
12.0
 40
13.0
 40
13.0
 40
13.0
 40
14.0
 40
14.0
 40
14.0
 40
15.0
 40
15.0
 40
15.0
 40
16.0
 40
16.0
 40
16.0
 40
17.0
 40
17.0
 40
17.0
 40
18.0
 40
18.0
 40
18.0
 40
19.0
 40
19.0
 40
19.0
 40
20.0
 40
20.0
 40
20.0
 40
21.0
 40
21.0
 40
21.0
 40
22.0
 40
22.0
 40
22.0
 40
23.0
 40
23.0
 40
23.0
 40
24.0
 40
24.0
 40
24.0
 40
25.0
 40
25.0
 40
25.0
 40
26.0
 40
26.0
 40
26.0
 40
27.0
 40
27.0
 40
27.0
 40
28.0
 40
28.0
 40
28.0
 40
29.0
 40
29.0
 40
29.0
 40
30.0
 40
30.0
 40
30.0
 40
31.0
 40
31.0
 40
31.0
 40
32.0
 40
32.0
 40
32.0
 40
33.0
 40
33.0
 40
33.0
 40
34.0
 40
34.0
 40
34.0
 40
35.0
 40
35.0
 40
35.0
 40
36.0
 40
36.0
 40
36.0
 40
37.0
 40
37.0
 40
37.0
 40
38.0
 40
38.0
 40
38.0
 40
39.0
 40
39.0
 40
39.0
 40
40.0
 40
40.0
 40
40.0
 40
41.0
 40
41.0
 40
41.0
 40
42.0
 40
42.0
 40
42.0
 40
43.0
 40
43.0
 40
43.0
 40
44.0
 40
44.0
 40
44.0
 40
45.0
 40
45.0
 40
45.0
 40
46.0
 40
46.0
 40
46.0
 40
47.0
 40
47.0
 40
47.0
 40
48.0
 40
48.0
 40
48.0
 40
49.0
 40
49.0
 40
49.0
 40
50.0
 40
50.0
 40
50.0
 40
51.0
 40
51.0
 40
51.0
 40
52.0
 40
52.0
 40
52.0
 40
53.0
 40
53.0
 40
53.0
 40
54.0
 40
54.0
 40
54.0
 40
55.0
 40
55.0
 40
55.0
 40
56.0
 40
56.0
 40
56.0
 40
57.0
 40
57.0
 40
57.0
 40
58.0
 40
58.0
 40
58.0
 40
59.0
 40
59.0
 40
59.0
 40
60.0
 40
60.0
 40
60.0
 40
61.0
 40
61.0
 40
61.0
 40
62.0
 40
62.0
 40
62.0
 40
63.0
 40
63.0
 40
63.0
 40
64.0
 40
64.0
 40
64.0
 40
65.0
 40
65.0
 40
65.0
 40
66.0
 40
66.0
 40
66.0
 40
67.0
 40
67.0
 40
67.0
 40
68.0
 40
68.0
 40
68.0
 40
69.0
 40
69.0
 40
69.0
 40
70.0
 40
70.0
 40
70.0
 40
71.0
 40
71.0
 40
71.0
 40
72.0
 40
72.0
 40
72.0
 40
73.0
 40
73.0
 40
73.0
 40
74.0
 40
74.0
 40
74.0
 40
75.0
 40
75.0
 40
75.0
 40
76.0
 40
76.0
 40
76.0
 40
77.0
 40
77.0
 40
77.0
 40
78.0
 40
78.0
 40
78.0
 40
79.0
 40
79.0
 40
79.0
 40
80.0
 40
80.0
 40
80.0
 40
80.0
 10
43.42260488440663
 20
-42.90561145216947
 10
43.42237808646148
 20
-42.89132318434707
 10
43.42147089468344
 20
-42.87703491652339
 10
43.4204415809302
 20
-42.86271175671742
 10
43.41958672713714
 20
-42.85070891390773
 10
43.41876676533406
 20
-42.83874096308417
 10
43.41737108567446
 20
-42.8268951342063
 10
43.41583583804466
 20
-42.81382808585616
 10
43.41362019658069
 20
-42.80082209847694
 10
43.41140455512058
 20
-42.78778121911929
 10
43.40917146766034
 20
-42.77453971084491
 10
43.4069209342051
 20
-42.76133309455282
 10
43.40404234490453
 20
-42.74832710717745
 10
43.40156501350158
 20
-42.73732740893472
 10
43.39854685623337
 20
-42.72642366365032
 10
43.39559848294898
 20
-42.71546758038865
 10
43.39162079591392
 20
-42.7006733787821
 10
43.38753843289864
 20
-42.68596640714409
 10
43.38272333806551
 20
-42.67152984838608
 10
43.37958305882595
 20
-42.66208284347039
 10
43.37593684570983
 20
-42.6527317915156
 10
43.37239530856623
 20
-42.64333712457718
 10
43.36663812996251
 20
-42.62801082020425
 10
43.36067159940863
 20
-42.61283280676694
 10
43.35397233702919
 20
-42.5979862671844
 10
43.35234985942316
 20
-42.59435750075502
 10
43.35121586969741
 20
-42.59062405836853
 10
43.34952360810499
 20
-42.5870127379303
 10
43.34952360810499
 20
-42.5870127379303
 10
43.35009932596664
 20
-42.58673360205408
 10
43.35009932596664
 20
-42.58673360205408
 10
43.35009932596664
 20
-42.58673360205408
 10
39.91779156324909
 20
-35.18150732958573
 10
39.91779156324909
 20
-35.18150732958573
 10
39.84270399743749
 20
-35.01869260498368
 10
39.71215561105191
 20
-34.88042439177258
 10
39.5369280294922
 20
-34.7987160861048
 10
39.51683024236159
 20
-34.78934322666012
 10
39.49641842730317
 20
-34.78150125304746
 10
39.47597172025605
 20
-34.77395586131243
 10
39.47462837858014
 20
-34.7734630120258
 10
39.47335482088933
 20
-34.77283059479593
 10
39.4719940332197
 20
-34.77234210700805
 10
39.45189624608781
 20
-34.76504532066443
 10
39.43160655299946
 20
-34.7590308147627
 10
39.41126452192742
 20
-34.75346554317166
 10
39.40688557698959
 20
-34.75226176969439
 10
39.40259386202673
 20
-34.75076141434077
 10
39.39818002509892
 20
-34.74963178633066
 10
39.37973960756432
 20
-34.74493009136078
 10
39.36122940604464
 20
-34.74136674740235
 10
39.34268431253753
 20
-34.73804764733787
 10
39.33574080621795
 20
-34.73679153587819
 10
39.32890197587601
 20
-34.73523884255115
 10
39.32192357756517
 20
-34.73417027551452
 10
39.30578603147335
 20
-34.73173219806875
 10
39.28966593138036
 20
-34.73025801170633
 10
39.2735109392897
 20
-34.72884488631612
 10
39.26360161368945
 20
-34.72795077920373
 10
39.25374462607932
 20
-34.72681678969359
 10
39.24378296249153
 20
-34.72629777141704
 10
39.23059378968281
 20
-34.72565226969735
 10
39.21747440086048
 20
-34.72577875314307
 10
39.20433756604187
 20
-34.72580056063295
 10
39.19118328522956
 20
-34.72577875314307
 10
39.1780638964085
 20
-34.72565226969735
 10
39.16487472359979
 20
-34.72629777141704
 10
39.15491306001457
 20
-34.72681242819613
 10
39.14505607240059
 20
-34.72795077920373
 10
39.13514674680162
 20
-34.72884488631612
 10
39.11899175471609
 20
-34.73025801170633
 10
39.10287165462054
 20
-34.73173655956493
 10
39.08673410852615
 20
-34.73417463701199
 10
39.0797731562103
 20
-34.73523884255115
 10
39.07293432586708
 20
-34.73679153587819
 10
39.06600826554763
 20
-34.73804328583912
 10
39.04746317203667
 20
-34.74136238590617
 10
39.02893552452583
 20
-34.74492572986203
 10
39.01047766099497
 20
-34.74963178633066
 10
39.00608127005958
 20
-34.75076141434077
 10
39.00178955510184
 20
-34.75225304669433
 10
38.99739316416518
 20
-34.7534611816742
 10
38.97705113308929
 20
-34.75902645326523
 10
38.9567614400048
 20
-34.76504095916439
 10
38.93664620687662
 20
-34.77234646850423
 10
38.93535520318954
 20
-34.77281751030225
 10
38.93411653748613
 20
-34.77342375854221
 10
38.93282553380418
 20
-34.77389916183641
 10
38.91232648876824
 20
-34.78145763806511
 10
38.89187978171984
 20
-34.78932141916895
 10
38.87172965659784
 20
-34.7987160861048
 10
38.69653696703067
 20
-34.88041130728018
 10
38.56600602664394
 20
-35.01864026700897
 10
38.4909010148335
 20
-35.18141137662611
 10
38.4909010148335
 20
-35.18141137662611
 10
35.05855836012404
 20
-42.58673360205408
 10
35.05855836012404
 20
-42.58673360205408
 10
35.05855836012404
 20
-42.58673360205408
 10
35.05913407798441
 20
-42.5870127379303
 10
35.05913407798441
 20
-42.5870127379303
 10
34.87575921639684
 20
-42.98025413089259
 10
35.04591001318571
 20
-43.44769332977248
 10
35.43914275794952
 20
-43.63106815647986
 10
35.83239294870575
 20
-43.81444298318852
 10
36.29984095949438
 20
-43.64430966475295
 10
36.48321582108131
 20
-43.25105954879445
 10
36.48321582108131
 20
-43.25105954879445
 10
36.48377409294669
 20
-43.25132996167831
 10
36.48377409294669
 20
-43.25132996167831
 10
36.48377409294669
 20
-43.25132996167831
 10
39.20433756604187
 20
-37.38172611420703
 10
39.20433756604187
 20
-37.38172611420703
 10
39.20433756604187
 20
-37.38172611420703
 10
41.40979056789735
 20
-42.14004204970129
 10
41.40979056789735
 20
-42.14004204970129
 10
41.40979056789735
 20
-42.14004204970129
 10
39.20356994223147
 20
-42.15216265296048
 10
39.20356994223147
 20
-42.15216265296048
 10
39.20356994223147
 20
-42.15216265296048
 10
39.20356994223147
 20
-42.15279070868904
 10
39.20356994223147
 20
-42.15279070868904
 10
38.76967058131858
 20
-42.15279070868904
 10
38.4179244145095
 20
-42.50453680859329
 10
38.4179244145095
 20
-42.9384360869747
 10
38.4179244145095
 20
-43.37233536535611
 10
38.76967058131858
 20
-43.72408146525908
 10
39.20356994223147
 20
-43.72408146525908
 10
39.20356994223147
 20
-43.72408146525908
 10
39.20356994223147
 20
-43.72472696698262
 10
39.20356994223147
 20
-43.72472696698262
 10
39.20356994223147
 20
-43.72472696698262
 10
42.6376746425101
 20
-43.70585912613859
 10
42.6376746425101
 20
-43.70585912613859
 10
42.6376746425101
 20
-43.70585912613859
 10
42.6376746425101
 20
-43.70521362442018
 10
42.6376746425101
 20
-43.70521362442018
 10
42.64423433692448
 20
-43.70521362442018
 10
42.65056723339114
 20
-43.70439366277495
 10
42.65707458981412
 20
-43.70423664884186
 10
42.66562312774089
 20
-43.70402729693276
 10
42.6741542196791
 20
-43.70343413318649
 10
42.68272020360214
 20
-43.70294564539733
 10
42.70082914721394
 20
-43.70190760884937
 10
42.7188159688608
 20
-43.70055554443393
 10
42.73657599255994
 20
-43.6983224573972
 10
42.74276932105769
 20
-43.69753738773683
 10
42.74894520356045
 20
-43.69642956721661
 10
42.7551559780596
 20
-43.69548748362313
 10
42.77563757709798
 20
-43.69240826595769
 10
42.79590982418878
 20
-43.68877949952318
 10
42.81583315136177
 20
-43.68415631152434
 10
42.81923512053903
 20
-43.68336251886775
 10
42.82260219772375
 20
-43.68238554328943
 10
42.82598672090344
 20
-43.68153941265557
 10
42.84889331335595
 20
-43.67589563409735
 10
42.87139864790441
 20
-43.66938827891028
 10
42.89346783256013
 20
-43.66179054919284
 10
42.89489840421357
 20
-43.66128461541511
 10
42.89632897586701
 20
-43.66070889766254
 10
42.897776993518
 20
-43.66020296388223
 10
42.92169545372491
 20
-43.65180271851328
 10
42.94503819606887
 20
-43.64232954460896
 10
42.96784011254887
 20
-43.63174855018312
 10
42.96784011254887
 20
-43.63174855018312
 10
42.96895665627707
 20
-43.63132112337129
 10
42.96895665627707
 20
-43.63132112337129
 10
42.97042211992305
 20
-43.63063200666925
 10
42.97124208172356
 20
-43.63009118090154
 10
42.97214927350417
 20
-43.62965503109093
 10
42.99416612017234
 20
-43.61926594258561
 10
43.01560724898015
 20
-43.60795221647411
 10
43.03645521393131
 20
-43.5956353457995
 10
43.03970016914595
 20
-43.59371628663027
 10
43.04287534037293
 20
-43.59172744349134
 10
43.04612029559014
 20
-43.58976476933719
 10
43.06431646918202
 20
-43.57864294914749
 10
43.08204160088862
 20
-43.56688435023431
 10
43.09922590672482
 20
-43.55436685064554
 10
43.10421546151813
 20
-43.55075553020474
 10
43.1091003403338
 20
-43.54706570280059
 10
43.11396777315704
 20
-43.54334970641167
 10
43.12888409954431
 20
-43.5319400273444
 10
43.14336427603882
 20
-43.5200680294766
 10
43.15742574863303
 20
-43.50763775985252
 10
43.1632003732343
 20
-43.50253480705817
 10
43.16888776785549
 20
-43.4973620702954
 10
43.17448793249916
 20
-43.49211082656672
 10
43.18727584740255
 20
-43.48012542974817
 10
43.19959272041808
 20
-43.46773877510515
 10
43.21154322752339
 20
-43.45493341664137
 10
43.21702127019956
 20
-43.44906284018163
 10
43.22242952889062
 20
-43.44316609472812
 10
43.22769821961278
 20
-43.43714722733021
 10
43.23935214478913
 20
-43.42387955006591
 10
43.25046524409894
 20
-43.41021061497971
 10
43.2612119774934
 20
-43.39617531404746
 10
43.26562581442506
 20
-43.39040069054349
 10
43.27000475936546
 20
-43.38462606704336
 10
43.27424413633693
 20
-43.37873804458864
 10
43.28520022168413
 20
-43.36360364613366
 10
43.29549335919086
 20
-43.3480592668503
 10
43.30536779279984
 20
-43.33213107573874
 10
43.30850807204068
 20
-43.32703684594445
 10
43.31164835127895
 20
-43.32196878513622
 10
43.31466650855101
 20
-43.31681349436203
 10
43.32468051012505
 20
-43.29978620572517
 10
43.33397922587109
 20
-43.28236638225877
 10
43.34270222375676
 20
-43.26456274695904
 10
43.34491786522329
 20
-43.26001806592226
 10
43.34713350668726
 20
-43.25549083088175
 10
43.34927936416356
 20
-43.25091998085505
 10
43.35777556410665
 20
-43.23268019574343
 10
43.36552158623175
 20
-43.21409149078076
 10
43.37263955250766
 20
-43.19512769698096
 10
43.37445393607014
 20
-43.19031260306289
 10
43.37623342763879
 20
-43.18549750914482
 10
43.37794313522364
 20
-43.18064752324318
 10
43.38439815366165
 20
-43.16239029213785
 10
43.39013788626909
 20
-43.14387137114488
 10
43.39523211703492
 20
-43.12502969929076
 10
43.39701160860486
 20
-43.11850489811255
 10
43.39866897820345
 20
-43.11198009693434
 10
43.4002740098145
 20
-43.10542040376871
 10
43.40439126481975
 20
-43.08853268307382
 10
43.40798513994961
 20
-43.07148794844326
 10
43.41096840522655
 20
-43.05418152392761
 10
43.41264322081756
 20
-43.04467345803843
 10
43.41402145448603
 20
-43.03513050016569
 10
43.41534735016437
 20
-43.02553520431312
 10
43.41731874768692
 20
-43.010959077617
 10
43.41902845527176
 20
-42.99633933593854
 10
43.42019733698878
 20
-42.9815189653472
 10
43.42122665073945
 20
-42.96866126890487
 10
43.42173258461601
 20
-42.95576868048155
 10
43.4221512885189
 20
-42.94284120007209
 10
43.42237808646148
 20
-42.93504284144177
 10
43.42332017023463
 20
-42.92742766573319
 10
43.42332017023463
 20
-42.91956824613452
 10
43.42332017023463
 20
-42.91485782816971
 10
43.42269211438672
 20
-42.91030442413928
 10
43.42260488440663
 20
-42.90561145216947
 97
        0
 75
     2
 76
     1
 98
        0
  0
SPLINE
  5
4B
330
1F
100
AcDbEntity
  8
LAYER_1
100
AcDbSpline
210
0.0
220
0.0
230
1.0
 70
    11
 71
     3
 72
    35
 73
    31
 74
     0
 42
0.0000000001
 43
0.0000000001
 12
1.0
 22
0.0
 32
0.0
 13
1.0
 23
0.0
 33
0.0
 40
0.0
 40
0.0
 40
0.0
 40
0.0
 40
1.0
 40
1.0
 40
1.0
 40
2.0
 40
2.0
 40
2.0
 40
3.0
 40
3.0
 40
3.0
 40
4.0
 40
4.0
 40
4.0
 40
5.0
 40
5.0
 40
5.0
 40
6.0
 40
6.0
 40
6.0
 40
7.0
 40
7.0
 40
7.0
 40
8.0
 40
8.0
 40
8.0
 40
9.0
 40
9.0
 40
9.0
 40
10.0
 40
10.0
 40
10.0
 40
10.0
 10
24.99146085627532
 20
-42.13392286784887
 30
0.0
 10
24.99146085627532
 20
-42.13392286784887
 30
0.0
 10
24.99146085627532
 20
-42.13329481212159
 30
0.0
 10
24.99146085627532
 20
-42.13329481212159
 30
0.0
 10
24.99146085627532
 20
-42.13329481212159
 30
0.0
 10
19.73072550639271
 20
-42.15216265296048
 30
0.0
 10
19.73072550639271
 20
-42.15216265296048
 30
0.0
 10
19.73072550639271
 20
-42.15216265296048
 30
0.0
 10
19.73072550639271
 20
-42.15279070868904
 30
0.0
 10
19.73072550639271
 20
-42.15279070868904
 30
0.0
 10
19.2968261454811
 20
-42.15279070868904
 30
0.0
 10
18.9450799786701
 20
-42.50453680859329
 30
0.0
 10
18.9450799786701
 20
-42.9384360869747
 30
0.0
 10
18.9450799786701
 20
-43.37233536535611
 30
0.0
 10
19.2968261454811
 20
-43.72408146525908
 30
0.0
 10
19.73072550639271
 20
-43.72408146525908
 30
0.0
 10
19.73072550639271
 20
-43.72408146525908
 30
0.0
 10
19.73072550639271
 20
-43.72472696698262
 30
0.0
 10
19.73072550639271
 20
-43.72472696698262
 30
0.0
 10
19.73072550639271
 20
-43.72472696698262
 30
0.0
 10
24.99146085627532
 20
-43.70585912613859
 30
0.0
 10
24.99146085627532
 20
-43.70585912613859
 30
0.0
 10
24.99146085627532
 20
-43.70585912613859
 30
0.0
 10
24.99146085627532
 20
-43.70521362442018
 30
0.0
 10
24.99146085627532
 20
-43.70521362442018
 30
0.0
 10
25.42537766318256
 20
-43.70521362442018
 30
0.0
 10
25.77710638399665
 20
-43.35346752451465
 30
0.0
 10
25.77710638399665
 20
-42.91956824613452
 30
0.0
 10
25.77710638399665
 20
-42.48566896775183
 30
0.0
 10
25.42537766318256
 20
-42.13392286784887
 30
0.0
 10
24.99146085627532
 20
-42.13392286784887
 30
0.0
  0
HATCH
  5
4C
330
1F
100
AcDbEntity
  8
LAYER_1
 62
   250
100
AcDbHatch
 10
0.0
 20
0.0
 30
0.0
210
0.0
220
0.0
230
1.0
  2
SOLID
 70
     1
 71
     0
 91
        1
 92
        1
 93
        1
 72
     4
 94
        3
 73
     0
 74
     1
 95
       35
 96
       31
 40
0.0
 40
0.0
 40
0.0
 40
0.0
 40
1.0
 40
1.0
 40
1.0
 40
2.0
 40
2.0
 40
2.0
 40
3.0
 40
3.0
 40
3.0
 40
4.0
 40
4.0
 40
4.0
 40
5.0
 40
5.0
 40
5.0
 40
6.0
 40
6.0
 40
6.0
 40
7.0
 40
7.0
 40
7.0
 40
8.0
 40
8.0
 40
8.0
 40
9.0
 40
9.0
 40
9.0
 40
10.0
 40
10.0
 40
10.0
 40
10.0
 10
24.99146085627532
 20
-42.13392286784887
 10
24.99146085627532
 20
-42.13392286784887
 10
24.99146085627532
 20
-42.13329481212159
 10
24.99146085627532
 20
-42.13329481212159
 10
24.99146085627532
 20
-42.13329481212159
 10
19.73072550639271
 20
-42.15216265296048
 10
19.73072550639271
 20
-42.15216265296048
 10
19.73072550639271
 20
-42.15216265296048
 10
19.73072550639271
 20
-42.15279070868904
 10
19.73072550639271
 20
-42.15279070868904
 10
19.2968261454811
 20
-42.15279070868904
 10
18.9450799786701
 20
-42.50453680859329
 10
18.9450799786701
 20
-42.9384360869747
 10
18.9450799786701
 20
-43.37233536535611
 10
19.2968261454811
 20
-43.72408146525908
 10
19.73072550639271
 20
-43.72408146525908
 10
19.73072550639271
 20
-43.72408146525908
 10
19.73072550639271
 20
-43.72472696698262
 10
19.73072550639271
 20
-43.72472696698262
 10
19.73072550639271
 20
-43.72472696698262
 10
24.99146085627532
 20
-43.70585912613859
 10
24.99146085627532
 20
-43.70585912613859
 10
24.99146085627532
 20
-43.70585912613859
 10
24.99146085627532
 20
-43.70521362442018
 10
24.99146085627532
 20
-43.70521362442018
 10
25.42537766318256
 20
-43.70521362442018
 10
25.77710638399665
 20
-43.35346752451465
 10
25.77710638399665
 20
-42.91956824613452
 10
25.77710638399665
 20
-42.48566896775183
 10
25.42537766318256
 20
-42.13392286784887
 10
24.99146085627532
 20
-42.13392286784887
 97
        0
 75
     2
 76
     1
 98
        0
  0
SPLINE
  5
4D
330
1F
100
AcDbEntity
  8
LAYER_1
100
AcDbSpline
210
0.0
220
0.0
230
1.0
 70
    11
 71
     3
 72
    35
 73
    31
 74
     0
 42
0.0000000001
 43
0.0000000001
 12
1.0
 22
0.0
 32
0.0
 13
1.0
 23
0.0
 33
0.0
 40
0.0
 40
0.0
 40
0.0
 40
0.0
 40
1.0
 40
1.0
 40
1.0
 40
2.0
 40
2.0
 40
2.0
 40
3.0
 40
3.0
 40
3.0
 40
4.0
 40
4.0
 40
4.0
 40
5.0
 40
5.0
 40
5.0
 40
6.0
 40
6.0
 40
6.0
 40
7.0
 40
7.0
 40
7.0
 40
8.0
 40
8.0
 40
8.0
 40
9.0
 40
9.0
 40
9.0
 40
10.0
 40
10.0
 40
10.0
 40
10.0
 10
17.00876635363086
 20
-42.13392286784887
 30
0.0
 10
17.00876635363086
 20
-42.13392286784887
 30
0.0
 10
17.00876635363086
 20
-42.13329481212159
 30
0.0
 10
17.00876635363086
 20
-42.13329481212159
 30
0.0
 10
17.00876635363086
 20
-42.13329481212159
 30
0.0
 10
11.74801355775133
 20
-42.15216265296048
 30
0.0
 10
11.74801355775133
 20
-42.15216265296048
 30
0.0
 10
11.74801355775133
 20
-42.15216265296048
 30
0.0
 10
11.74801355775133
 20
-42.15279070868904
 30
0.0
 10
11.74801355775133
 20
-42.15279070868904
 30
0.0
 10
11.31411419683908
 20
-42.15279070868904
 30
0.0
 10
10.96236803003129
 20
-42.50453680859329
 30
0.0
 10
10.96236803003129
 20
-42.9384360869747
 30
0.0
 10
10.96236803003129
 20
-43.37233536535611
 30
0.0
 10
11.31411419683908
 20
-43.72408146525908
 30
0.0
 10
11.74801355775133
 20
-43.72408146525908
 30
0.0
 10
11.74801355775133
 20
-43.72408146525908
 30
0.0
 10
11.74801355775133
 20
-43.72472696698262
 30
0.0
 10
11.74801355775133
 20
-43.72472696698262
 30
0.0
 10
11.74801355775133
 20
-43.72472696698262
 30
0.0
 10
17.00876635363086
 20
-43.70585912613859
 30
0.0
 10
17.00876635363086
 20
-43.70585912613859
 30
0.0
 10
17.00876635363086
 20
-43.70585912613859
 30
0.0
 10
17.00876635363086
 20
-43.70521362442018
 30
0.0
 10
17.00876635363086
 20
-43.70521362442018
 30
0.0
 10
17.44264826854941
 20
-43.70521362442018
 30
0.0
 10
17.79439443535783
 20
-43.35346752451465
 30
0.0
 10
17.79439443535783
 20
-42.91956824613452
 30
0.0
 10
17.79439443535783
 20
-42.48566896775183
 30
0.0
 10
17.44264826854941
 20
-42.13392286784887
 30
0.0
 10
17.00876635363086
 20
-42.13392286784887
 30
0.0
  0
HATCH
  5
4E
330
1F
100
AcDbEntity
  8
LAYER_1
 62
   250
100
AcDbHatch
 10
0.0
 20
0.0
 30
0.0
210
0.0
220
0.0
230
1.0
  2
SOLID
 70
     1
 71
     0
 91
        1
 92
        1
 93
        1
 72
     4
 94
        3
 73
     0
 74
     1
 95
       35
 96
       31
 40
0.0
 40
0.0
 40
0.0
 40
0.0
 40
1.0
 40
1.0
 40
1.0
 40
2.0
 40
2.0
 40
2.0
 40
3.0
 40
3.0
 40
3.0
 40
4.0
 40
4.0
 40
4.0
 40
5.0
 40
5.0
 40
5.0
 40
6.0
 40
6.0
 40
6.0
 40
7.0
 40
7.0
 40
7.0
 40
8.0
 40
8.0
 40
8.0
 40
9.0
 40
9.0
 40
9.0
 40
10.0
 40
10.0
 40
10.0
 40
10.0
 10
17.00876635363086
 20
-42.13392286784887
 10
17.00876635363086
 20
-42.13392286784887
 10
17.00876635363086
 20
-42.13329481212159
 10
17.00876635363086
 20
-42.13329481212159
 10
17.00876635363086
 20
-42.13329481212159
 10
11.74801355775133
 20
-42.15216265296048
 10
11.74801355775133
 20
-42.15216265296048
 10
11.74801355775133
 20
-42.15216265296048
 10
11.74801355775133
 20
-42.15279070868904
 10
11.74801355775133
 20
-42.15279070868904
 10
11.31411419683908
 20
-42.15279070868904
 10
10.96236803003129
 20
-42.50453680859329
 10
10.96236803003129
 20
-42.9384360869747
 10
10.96236803003129
 20
-43.37233536535611
 10
11.31411419683908
 20
-43.72408146525908
 10
11.74801355775133
 20
-43.72408146525908
 10
11.74801355775133
 20
-43.72408146525908
 10
11.74801355775133
 20
-43.72472696698262
 10
11.74801355775133
 20
-43.72472696698262
 10
11.74801355775133
 20
-43.72472696698262
 10
17.00876635363086
 20
-43.70585912613859
 10
17.00876635363086
 20
-43.70585912613859
 10
17.00876635363086
 20
-43.70585912613859
 10
17.00876635363086
 20
-43.70521362442018
 10
17.00876635363086
 20
-43.70521362442018
 10
17.44264826854941
 20
-43.70521362442018
 10
17.79439443535783
 20
-43.35346752451465
 10
17.79439443535783
 20
-42.91956824613452
 10
17.79439443535783
 20
-42.48566896775183
 10
17.44264826854941
 20
-42.13392286784887
 10
17.00876635363086
 20
-42.13392286784887
 97
        0
 75
     2
 76
     1
 98
        0
  0
POLYLINE
  5
4F
330
1F
100
AcDbEntity
  8
LAYER_1
100
AcDb2dPolyline
 66
     1
 10
0.0
 20
0.0
 30
0.0
  0
VERTEX
  5
50
330
4F
100
AcDbEntity
  8
LAYER_1
100
AcDbVertex
100
AcDb2dVertex
 10
7.418826008621875
 20
-7.432502019883492
 30
0.0
  0
VERTEX
  5
51
330
4F
100
AcDbEntity
  8
LAYER_1
100
AcDbVertex
100
AcDb2dVertex
 10
7.418826008621875
 20
-47.43250200988498
 30
0.0
  0
VERTEX
  5
52
330
4F
100
AcDbEntity
  8
LAYER_1
100
AcDbVertex
100
AcDb2dVertex
 10
47.41882599862176
 20
-47.43250200988498
 30
0.0
  0
VERTEX
  5
53
330
4F
100
AcDbEntity
  8
LAYER_1
100
AcDbVertex
100
AcDb2dVertex
 10
47.41882599862176
 20
-7.432502019883492
 30
0.0
  0
VERTEX
  5
54
330
4F
100
AcDbEntity
  8
LAYER_1
100
AcDbVertex
100
AcDb2dVertex
 10
7.418826008621875
 20
-7.432502019883492
 30
0.0
  0
SEQEND
  5
55
330
4F
100
AcDbEntity
  8
LAYER_1
  0
POLYLINE
  5
56
330
1F
100
AcDbEntity
  8
LAYER_1
100
AcDb2dPolyline
 66
     1
 10
0.0
 20
0.0
 30
0.0
  0
VERTEX
  5
57
330
56
100
AcDbEntity
  8
LAYER_1
100
AcDbVertex
100
AcDb2dVertex
 10
46.14867628984288
 20
-46.16234493437418
 30
0.0
  0
VERTEX
  5
58
330
56
100
AcDbEntity
  8
LAYER_1
100
AcDbVertex
100
AcDb2dVertex
 10
8.688975717397552
 20
-46.16234493437418
 30
0.0
  0
VERTEX
  5
59
330
56
100
AcDbEntity
  8
LAYER_1
100
AcDbVertex
100
AcDb2dVertex
 10
8.688975717397552
 20
-8.702651487069106
 30
0.0
  0
VERTEX
  5
5A
330
56
100
AcDbEntity
  8
LAYER_1
100
AcDbVertex
100
AcDb2dVertex
 10
46.14867628984288
 20
-8.702651487069106
 30
0.0
  0
VERTEX
  5
5B
330
56
100
AcDbEntity
  8
LAYER_1
100
AcDbVertex
100
AcDb2dVertex
 10
46.14867628984288
 20
-46.16234493437418
 30
0.0
  0
SEQEND
  5
5C
330
56
100
AcDbEntity
  8
LAYER_1
  0
HATCH
  5
5D
330
1F
100
AcDbEntity
  8
LAYER_1
 62
   250
100
AcDbHatch
 10
0.0
 20
0.0
 30
0.0
210
0.0
220
0.0
230
1.0
  2
SOLID
 70
     1
 71
     0
 91
        2
 92
        1
 93
        4
 72
     1
 10
7.418826008621875
 20
-7.432502019883492
 11
7.418826008621875
 21
-47.43250200988498
 72
     1
 10
7.418826008621875
 20
-47.43250200988498
 11
47.41882599862176
 21
-47.43250200988498
 72
     1
 10
47.41882599862176
 20
-47.43250200988498
 11
47.41882599862176
 21
-7.432502019883493
 72
     1
 10
47.41882599862176
 20
-7.432502019883492
 11
7.418826008621878
 21
-7.432502019883492
 97
        0
 92
        1
 93
        4
 72
     1
 10
46.14867628984288
 20
-46.16234493437418
 11
8.688975717397554
 21
-46.16234493437418
 72
     1
 10
8.688975717397552
 20
-46.16234493437418
 11
8.688975717397552
 21
-8.702651487069105
 72
     1
 10
8.688975717397552
 20
-8.702651487069106
 11
46.14867628984288
 21
-8.702651487069106
 72
     1
 10
46.14867628984288
 20
-8.702651487069106
 11
46.14867628984288
 21
-46.16234493437418
 97
        0
 75
     2
 76
     1
 98
        0
  0
SPLINE
  5
5E
330
1F
100
AcDbEntity
  8
LAYER_1
 62
   250
100
AcDbSpline
210
0.0
220
0.0
230
1.0
 70
    11
 71
     3
 72
    17
 73
    13
 74
     0
 42
0.0000000001
 43
0.0000000001
 12
1.0
 22
0.0
 32
0.0
 13
1.0
 23
0.0
 33
0.0
 40
0.0
 40
0.0
 40
0.0
 40
0.0
 40
1.0
 40
1.0
 40
1.0
 40
2.0
 40
2.0
 40
2.0
 40
3.0
 40
3.0
 40
3.0
 40
4.0
 40
4.0
 40
4.0
 40
4.0
 10
5.444953744489974
 20
-4.969041667666408
 30
0.0
 10
5.444953744489974
 20
-5.234285684194725
 30
0.0
 10
5.231880649587853
 20
-5.449308444224006
 30
0.0
 10
4.969041666876477
 20
-5.449308444224006
 30
0.0
 10
4.7062026841651
 20
-5.449308444224006
 30
0.0
 10
4.493129589263301
 20
-5.234285684194725
 30
0.0
 10
4.493129589263301
 20
-4.969041667666408
 30
0.0
 10
4.493129589263301
 20
-4.703797651138093
 30
0.0
 10
4.7062026841651
 20
-4.48877489110881
 30
0.0
 10
4.969041666876477
 20
-4.48877489110881
 30
0.0
 10
5.231880649587853
 20
-4.48877489110881
 30
0.0
 10
5.444953744489974
 20
-4.703797651138093
 30
0.0
 10
5.444953744489974
 20
-4.969041667666408
 30
0.0
  0
SPLINE
  5
5F
330
1F
100
AcDbEntity
  8
LAYER_1
 62
   250
100
AcDbSpline
210
0.0
220
0.0
230
1.0
 70
    11
 71
     3
 72
    17
 73
    13
 74
     0
 42
0.0000000001
 43
0.0000000001
 12
1.0
 22
0.0
 32
0.0
 13
1.0
 23
0.0
 33
0.0
 40
0.0
 40
0.0
 40
0.0
 40
0.0
 40
1.0
 40
1.0
 40
1.0
 40
2.0
 40
2.0
 40
2.0
 40
3.0
 40
3.0
 40
3.0
 40
4.0
 40
4.0
 40
4.0
 40
4.0
 10
50.4664325623406
 20
-4.969041667666408
 30
0.0
 10
50.4664325623406
 20
-5.234285684194725
 30
0.0
 10
50.25335946743816
 20
-5.449308444224006
 30
0.0
 10
49.99052048472743
 20
-5.449308444224006
 30
0.0
 10
49.72768150201541
 20
-5.449308444224006
 30
0.0
 10
49.51460840711361
 20
-5.234285684194725
 30
0.0
 10
49.51460840711361
 20
-4.969041667666408
 30
0.0
 10
49.51460840711361
 20
-4.703797651138093
 30
0.0
 10
49.72768150201541
 20
-4.48877489110881
 30
0.0
 10
49.99052048472743
 20
-4.48877489110881
 30
0.0
 10
50.25335946743816
 20
-4.48877489110881
 30
0.0
 10
50.4664325623406
 20
-4.703797651138093
 30
0.0
 10
50.4664325623406
 20
-4.969041667666408
 30
0.0
  0
SPLINE
  5
60
330
1F
100
AcDbEntity
  8
LAYER_1
 62
   250
100
AcDbSpline
210
0.0
220
0.0
230
1.0
 70
    11
 71
     3
 72
    17
 73
    13
 74
     0
 42
0.0000000001
 43
0.0000000001
 12
1.0
 22
0.0
 32
0.0
 13
1.0
 23
0.0
 33
0.0
 40
0.0
 40
0.0
 40
0.0
 40
0.0
 40
1.0
 40
1.0
 40
1.0
 40
2.0
 40
2.0
 40
2.0
 40
3.0
 40
3.0
 40
3.0
 40
4.0
 40
4.0
 40
4.0
 40
4.0
 10
46.71464266061102
 20
-4.969041667666408
 30
0.0
 10
46.71464266061102
 20
-5.234285684194725
 30
0.0
 10
46.50156956570923
 20
-5.449308444224006
 30
0.0
 10
46.23873058299849
 20
-5.449308444224006
 30
0.0
 10
45.97589160028647
 20
-5.449308444224006
 30
0.0
 10
45.76281850538467
 20
-5.234285684194725
 30
0.0
 10
45.76281850538467
 20
-4.969041667666408
 30
0.0
 10
45.76281850538467
 20
-4.703797651138093
 30
0.0
 10
45.97589160028647
 20
-4.48877489110881
 30
0.0
 10
46.23873058299849
 20
-4.48877489110881
 30
0.0
 10
46.50156956570923
 20
-4.48877489110881
 30
0.0
 10
46.71464266061102
 20
-4.703797651138093
 30
0.0
 10
46.71464266061102
 20
-4.969041667666408
 30
0.0
  0
SPLINE
  5
61
330
1F
100
AcDbEntity
  8
LAYER_1
 62
   250
100
AcDbSpline
210
0.0
220
0.0
230
1.0
 70
    11
 71
     3
 72
    17
 73
    13
 74
     0
 42
0.0000000001
 43
0.0000000001
 12
1.0
 22
0.0
 32
0.0
 13
1.0
 23
0.0
 33
0.0
 40
0.0
 40
0.0
 40
0.0
 40
0.0
 40
1.0
 40
1.0
 40
1.0
 40
2.0
 40
2.0
 40
2.0
 40
3.0
 40
3.0
 40
3.0
 40
4.0
 40
4.0
 40
4.0
 40
4.0
 10
42.96285275888144
 20
-4.969041667666408
 30
0.0
 10
42.96285275888144
 20
-5.234285684194725
 30
0.0
 10
42.74977966397964
 20
-5.449308444224006
 30
0.0
 10
42.48694068126827
 20
-5.449308444224006
 30
0.0
 10
42.22410169855689
 20
-5.449308444224006
 30
0.0
 10
42.01102860365445
 20
-5.234285684194725
 30
0.0
 10
42.01102860365445
 20
-4.969041667666408
 30
0.0
 10
42.01102860365445
 20
-4.703797651138093
 30
0.0
 10
42.22410169855689
 20
-4.48877489110881
 30
0.0
 10
42.48694068126827
 20
-4.48877489110881
 30
0.0
 10
42.74977966397964
 20
-4.48877489110881
 30
0.0
 10
42.96285275888144
 20
-4.703797651138093
 30
0.0
 10
42.96285275888144
 20
-4.969041667666408
 30
0.0
  0
SPLINE
  5
62
330
1F
100
AcDbEntity
  8
LAYER_1
 62
   250
100
AcDbSpline
210
0.0
220
0.0
230
1.0
 70
    11
 71
     3
 72
    17
 73
    13
 74
     0
 42
0.0000000001
 43
0.0000000001
 12
1.0
 22
0.0
 32
0.0
 13
1.0
 23
0.0
 33
0.0
 40
0.0
 40
0.0
 40
0.0
 40
0.0
 40
1.0
 40
1.0
 40
1.0
 40
2.0
 40
2.0
 40
2.0
 40
3.0
 40
3.0
 40
3.0
 40
4.0
 40
4.0
 40
4.0
 40
4.0
 10
39.21106285715186
 20
-4.969041667666408
 30
0.0
 10
39.21106285715186
 20
-5.234285684194725
 30
0.0
 10
38.99798976225006
 20
-5.449308444224006
 30
0.0
 10
38.73515077953932
 20
-5.449308444224006
 30
0.0
 10
38.47231179682731
 20
-5.449308444224006
 30
0.0
 10
38.25923870192551
 20
-5.234285684194725
 30
0.0
 10
38.25923870192551
 20
-4.969041667666408
 30
0.0
 10
38.25923870192551
 20
-4.703797651138093
 30
0.0
 10
38.47231179682731
 20
-4.48877489110881
 30
0.0
 10
38.73515077953932
 20
-4.48877489110881
 30
0.0
 10
38.99798976225006
 20
-4.48877489110881
 30
0.0
 10
39.21106285715186
 20
-4.703797651138093
 30
0.0
 10
39.21106285715186
 20
-4.969041667666408
 30
0.0
  0
SPLINE
  5
63
330
1F
100
AcDbEntity
  8
LAYER_1
 62
   250
100
AcDbSpline
210
0.0
220
0.0
230
1.0
 70
    11
 71
     3
 72
    17
 73
    13
 74
     0
 42
0.0000000001
 43
0.0000000001
 12
1.0
 22
0.0
 32
0.0
 13
1.0
 23
0.0
 33
0.0
 40
0.0
 40
0.0
 40
0.0
 40
0.0
 40
1.0
 40
1.0
 40
1.0
 40
2.0
 40
2.0
 40
2.0
 40
3.0
 40
3.0
 40
3.0
 40
4.0
 40
4.0
 40
4.0
 40
4.0
 10
35.45927295542229
 20
-4.969041667666408
 30
0.0
 10
35.45927295542229
 20
-5.234285684194725
 30
0.0
 10
35.24619986052048
 20
-5.449308444224006
 30
0.0
 10
34.9833608778091
 20
-5.449308444224006
 30
0.0
 10
34.72052189509709
 20
-5.449308444224006
 30
0.0
 10
34.50744880019529
 20
-5.234285684194725
 30
0.0
 10
34.50744880019529
 20
-4.969041667666408
 30
0.0
 10
34.50744880019529
 20
-4.703797651138093
 30
0.0
 10
34.72052189509709
 20
-4.48877489110881
 30
0.0
 10
34.9833608778091
 20
-4.48877489110881
 30
0.0
 10
35.24619986052048
 20
-4.48877489110881
 30
0.0
 10
35.45927295542229
 20
-4.703797651138093
 30
0.0
 10
35.45927295542229
 20
-4.969041667666408
 30
0.0
  0
SPLINE
  5
64
330
1F
100
AcDbEntity
  8
LAYER_1
 62
   250
100
AcDbSpline
210
0.0
220
0.0
230
1.0
 70
    11
 71
     3
 72
    17
 73
    13
 74
     0
 42
0.0000000001
 43
0.0000000001
 12
1.0
 22
0.0
 32
0.0
 13
1.0
 23
0.0
 33
0.0
 40
0.0
 40
0.0
 40
0.0
 40
0.0
 40
1.0
 40
1.0
 40
1.0
 40
2.0
 40
2.0
 40
2.0
 40
3.0
 40
3.0
 40
3.0
 40
4.0
 40
4.0
 40
4.0
 40
4.0
 10
31.7074830536927
 20
-4.969041667666408
 30
0.0
 10
31.7074830536927
 20
-5.234285684194725
 30
0.0
 10
31.4944099587909
 20
-5.449308444224006
 30
0.0
 10
31.23157097607953
 20
-5.449308444224006
 30
0.0
 10
30.96873199336815
 20
-5.449308444224006
 30
0.0
 10
30.75565889846635
 20
-5.234285684194725
 30
0.0
 10
30.75565889846635
 20
-4.969041667666408
 30
0.0
 10
30.75565889846635
 20
-4.703797651138093
 30
0.0
 10
30.96873199336815
 20
-4.48877489110881
 30
0.0
 10
31.23157097607953
 20
-4.48877489110881
 30
0.0
 10
31.4944099587909
 20
-4.48877489110881
 30
0.0
 10
31.7074830536927
 20
-4.703797651138093
 30
0.0
 10
31.7074830536927
 20
-4.969041667666408
 30
0.0
  0
SPLINE
  5
65
330
1F
100
AcDbEntity
  8
LAYER_1
 62
   250
100
AcDbSpline
210
0.0
220
0.0
230
1.0
 70
    11
 71
     3
 72
    17
 73
    13
 74
     0
 42
0.0000000001
 43
0.0000000001
 12
1.0
 22
0.0
 32
0.0
 13
1.0
 23
0.0
 33
0.0
 40
0.0
 40
0.0
 40
0.0
 40
0.0
 40
1.0
 40
1.0
 40
1.0
 40
2.0
 40
2.0
 40
2.0
 40
3.0
 40
3.0
 40
3.0
 40
4.0
 40
4.0
 40
4.0
 40
4.0
 10
27.95569315196312
 20
-4.969041667666408
 30
0.0
 10
27.95569315196312
 20
-5.234285684194725
 30
0.0
 10
27.74262005706132
 20
-5.449308444224006
 30
0.0
 10
27.47978107435027
 20
-5.449308444224006
 30
0.0
 10
27.21694209163825
 20
-5.449308444224006
 30
0.0
 10
27.00386899673645
 20
-5.234285684194725
 30
0.0
 10
27.00386899673645
 20
-4.969041667666408
 30
0.0
 10
27.00386899673645
 20
-4.703797651138093
 30
0.0
 10
27.21694209163825
 20
-4.48877489110881
 30
0.0
 10
27.47978107435027
 20
-4.48877489110881
 30
0.0
 10
27.74262005706132
 20
-4.48877489110881
 30
0.0
 10
27.95569315196312
 20
-4.703797651138093
 30
0.0
 10
27.95569315196312
 20
-4.969041667666408
 30
0.0
  0
SPLINE
  5
66
330
1F
100
AcDbEntity
  8
LAYER_1
 62
   250
100
AcDbSpline
210
0.0
220
0.0
230
1.0
 70
    11
 71
     3
 72
    17
 73
    13
 74
     0
 42
0.0000000001
 43
0.0000000001
 12
1.0
 22
0.0
 32
0.0
 13
1.0
 23
0.0
 33
0.0
 40
0.0
 40
0.0
 40
0.0
 40
0.0
 40
1.0
 40
1.0
 40
1.0
 40
2.0
 40
2.0
 40
2.0
 40
3.0
 40
3.0
 40
3.0
 40
4.0
 40
4.0
 40
4.0
 40
4.0
 10
24.20390325023354
 20
-4.969041667666408
 30
0.0
 10
24.20390325023354
 20
-5.234285684194725
 30
0.0
 10
23.99083015533142
 20
-5.449308444224006
 30
0.0
 10
23.72799117262005
 20
-5.449308444224006
 30
0.0
 10
23.46515218990867
 20
-5.449308444224006
 30
0.0
 10
23.25207909500687
 20
-5.234285684194725
 30
0.0
 10
23.25207909500687
 20
-4.969041667666408
 30
0.0
 10
23.25207909500687
 20
-4.703797651138093
 30
0.0
 10
23.46515218990867
 20
-4.48877489110881
 30
0.0
 10
23.72799117262005
 20
-4.48877489110881
 30
0.0
 10
23.99083015533142
 20
-4.48877489110881
 30
0.0
 10
24.20390325023354
 20
-4.703797651138093
 30
0.0
 10
24.20390325023354
 20
-4.969041667666408
 30
0.0
  0
SPLINE
  5
67
330
1F
100
AcDbEntity
  8
LAYER_1
 62
   250
100
AcDbSpline
210
0.0
220
0.0
230
1.0
 70
    11
 71
     3
 72
    17
 73
    13
 74
     0
 42
0.0000000001
 43
0.0000000001
 12
1.0
 22
0.0
 32
0.0
 13
1.0
 23
0.0
 33
0.0
 40
0.0
 40
0.0
 40
0.0
 40
0.0
 40
1.0
 40
1.0
 40
1.0
 40
2.0
 40
2.0
 40
2.0
 40
3.0
 40
3.0
 40
3.0
 40
4.0
 40
4.0
 40
4.0
 40
4.0
 10
20.45211334850396
 20
-4.969041667666408
 30
0.0
 10
20.45211334850396
 20
-5.234285684194725
 30
0.0
 10
20.23904025360184
 20
-5.449308444224006
 30
0.0
 10
19.97620127089047
 20
-5.449308444224006
 30
0.0
 10
19.71336228817909
 20
-5.449308444224006
 30
0.0
 10
19.50028919327729
 20
-5.234285684194725
 30
0.0
 10
19.50028919327729
 20
-4.969041667666408
 30
0.0
 10
19.50028919327729
 20
-4.703797651138093
 30
0.0
 10
19.71336228817909
 20
-4.48877489110881
 30
0.0
 10
19.97620127089047
 20
-4.48877489110881
 30
0.0
 10
20.23904025360184
 20
-4.48877489110881
 30
0.0
 10
20.45211334850396
 20
-4.703797651138093
 30
0.0
 10
20.45211334850396
 20
-4.969041667666408
 30
0.0
  0
SPLINE
  5
68
330
1F
100
AcDbEntity
  8
LAYER_1
 62
   250
100
AcDbSpline
210
0.0
220
0.0
230
1.0
 70
    11
 71
     3
 72
    17
 73
    13
 74
     0
 42
0.0000000001
 43
0.0000000001
 12
1.0
 22
0.0
 32
0.0
 13
1.0
 23
0.0
 33
0.0
 40
0.0
 40
0.0
 40
0.0
 40
0.0
 40
1.0
 40
1.0
 40
1.0
 40
2.0
 40
2.0
 40
2.0
 40
3.0
 40
3.0
 40
3.0
 40
4.0
 40
4.0
 40
4.0
 40
4.0
 10
16.70032344677406
 20
-4.969041667666408
 30
0.0
 10
16.70032344677406
 20
-5.234285684194725
 30
0.0
 10
16.48725035187226
 20
-5.449308444224006
 30
0.0
 10
16.22441136916089
 20
-5.449308444224006
 30
0.0
 10
15.96157238644951
 20
-5.449308444224006
 30
0.0
 10
15.74849929154771
 20
-5.234285684194725
 30
0.0
 10
15.74849929154771
 20
-4.969041667666408
 30
0.0
 10
15.74849929154771
 20
-4.703797651138093
 30
0.0
 10
15.96157238644951
 20
-4.48877489110881
 30
0.0
 10
16.22441136916089
 20
-4.48877489110881
 30
0.0
 10
16.48725035187226
 20
-4.48877489110881
 30
0.0
 10
16.70032344677406
 20
-4.703797651138093
 30
0.0
 10
16.70032344677406
 20
-4.969041667666408
 30
0.0
  0
SPLINE
  5
69
330
1F
100
AcDbEntity
  8
LAYER_1
 62
   250
100
AcDbSpline
210
0.0
220
0.0
230
1.0
 70
    11
 71
     3
 72
    17
 73
    13
 74
     0
 42
0.0000000001
 43
0.0000000001
 12
1.0
 22
0.0
 32
0.0
 13
1.0
 23
0.0
 33
0.0
 40
0.0
 40
0.0
 40
0.0
 40
0.0
 40
1.0
 40
1.0
 40
1.0
 40
2.0
 40
2.0
 40
2.0
 40
3.0
 40
3.0
 40
3.0
 40
4.0
 40
4.0
 40
4.0
 40
4.0
 10
12.9485335450448
 20
-4.969041667666408
 30
0.0
 10
12.9485335450448
 20
-5.234285684194725
 30
0.0
 10
12.735460450143
 20
-5.449308444224006
 30
0.0
 10
12.47262146743163
 20
-5.449308444224006
 30
0.0
 10
12.20978248472025
 20
-5.449308444224006
 30
0.0
 10
11.99670938981813
 20
-5.234285684194725
 30
0.0
 10
11.99670938981813
 20
-4.969041667666408
 30
0.0
 10
11.99670938981813
 20
-4.703797651138093
 30
0.0
 10
12.20978248472025
 20
-4.48877489110881
 30
0.0
 10
12.47262146743163
 20
-4.48877489110881
 30
0.0
 10
12.735460450143
 20
-4.48877489110881
 30
0.0
 10
12.9485335450448
 20
-4.703797651138093
 30
0.0
 10
12.9485335450448
 20
-4.969041667666408
 30
0.0
  0
SPLINE
  5
6A
330
1F
100
AcDbEntity
  8
LAYER_1
 62
   250
100
AcDbSpline
210
0.0
220
0.0
230
1.0
 70
    11
 71
     3
 72
    17
 73
    13
 74
     0
 42
0.0000000001
 43
0.0000000001
 12
1.0
 22
0.0
 32
0.0
 13
1.0
 23
0.0
 33
0.0
 40
0.0
 40
0.0
 40
0.0
 40
0.0
 40
1.0
 40
1.0
 40
1.0
 40
2.0
 40
2.0
 40
2.0
 40
3.0
 40
3.0
 40
3.0
 40
4.0
 40
4.0
 40
4.0
 40
4.0
 10
9.196743643315223
 20
-4.969041667666408
 30
0.0
 10
9.196743643315223
 20
-5.234285684194725
 30
0.0
 10
8.983670548413425
 20
-5.449308444224006
 30
0.0
 10
8.720831565702047
 20
-5.449308444224006
 30
0.0
 10
8.457992582990672
 20
-5.449308444224006
 30
0.0
 10
8.24491948808855
 20
-5.234285684194725
 30
0.0
 10
8.24491948808855
 20
-4.969041667666408
 30
0.0
 10
8.24491948808855
 20
-4.703797651138093
 30
0.0
 10
8.457992582990672
 20
-4.48877489110881
 30
0.0
 10
8.720831565702047
 20
-4.48877489110881
 30
0.0
 10
8.983670548413425
 20
-4.48877489110881
 30
0.0
 10
9.196743643315223
 20
-4.703797651138093
 30
0.0
 10
9.196743643315223
 20
-4.969041667666408
 30
0.0
  0
POLYLINE
  5
6B
330
1F
100
AcDbEntity
  8
LAYER_1
 62
   250
100
AcDb2dPolyline
 66
     1
 10
0.0
 20
0.0
 30
0.0
  0
VERTEX
  5
6C
330
6B
100
AcDbEntity
  8
LAYER_1
 62
   250
100
AcDbVertex
100
AcDb2dVertex
 10
53.9690416531744
 20
-53.9690416531744
 30
0.0
  0
VERTEX
  5
6D
330
6B
100
AcDbEntity
  8
LAYER_1
 62
   250
100
AcDbVertex
100
AcDb2dVertex
 10
0.9690416664242586
 20
-53.9690416531744
 30
0.0
  0
VERTEX
  5
6E
330
6B
100
AcDbEntity
  8
LAYER_1
 62
   250
100
AcDbVertex
100
AcDb2dVertex
 10
0.9690416664242586
 20
-0.9690416664242586
 30
0.0
  0
VERTEX
  5
6F
330
6B
100
AcDbEntity
  8
LAYER_1
 62
   250
100
AcDbVertex
100
AcDb2dVertex
 10
53.9690416531744
 20
-0.9690416664242586
 30
0.0
  0
VERTEX
  5
70
330
6B
100
AcDbEntity
  8
LAYER_1
 62
   250
100
AcDbVertex
100
AcDb2dVertex
 10
53.9690416531744
 20
-53.9690416531744
 30
0.0
  0
SEQEND
  5
71
330
6B
100
AcDbEntity
  8
LAYER_1
 62
   250
  0
SPLINE
  5
72
330
1F
100
AcDbEntity
  8
LAYER_1
 62
   250
100
AcDbSpline
210
0.0
220
0.0
230
1.0
 70
    11
 71
     3
 72
    17
 73
    13
 74
     0
 42
0.0000000001
 43
0.0000000001
 12
1.0
 22
0.0
 32
0.0
 13
1.0
 23
0.0
 33
0.0
 40
0.0
 40
0.0
 40
0.0
 40
0.0
 40
1.0
 40
1.0
 40
1.0
 40
2.0
 40
2.0
 40
2.0
 40
3.0
 40
3.0
 40
3.0
 40
4.0
 40
4.0
 40
4.0
 40
4.0
 10
5.444953744489974
 20
-49.96904173059076
 30
0.0
 10
5.444953744489974
 20
-50.23428574711939
 30
0.0
 10
5.231880649587853
 20
-50.44930850714868
 30
0.0
 10
4.969041666876477
 20
-50.44930850714868
 30
0.0
 10
4.7062026841651
 20
-50.44930850714868
 30
0.0
 10
4.493129589263301
 20
-50.23428574711939
 30
0.0
 10
4.493129589263301
 20
-49.96904173059076
 30
0.0
 10
4.493129589263301
 20
-49.70379771406277
 30
0.0
 10
4.7062026841651
 20
-49.48877495403348
 30
0.0
 10
4.969041666876477
 20
-49.48877495403348
 30
0.0
 10
5.231880649587853
 20
-49.48877495403348
 30
0.0
 10
5.444953744489974
 20
-49.70379771406277
 30
0.0
 10
5.444953744489974
 20
-49.96904173059076
 30
0.0
  0
SPLINE
  5
73
330
1F
100
AcDbEntity
  8
LAYER_1
 62
   250
100
AcDbSpline
210
0.0
220
0.0
230
1.0
 70
    11
 71
     3
 72
    17
 73
    13
 74
     0
 42
0.0000000001
 43
0.0000000001
 12
1.0
 22
0.0
 32
0.0
 13
1.0
 23
0.0
 33
0.0
 40
0.0
 40
0.0
 40
0.0
 40
0.0
 40
1.0
 40
1.0
 40
1.0
 40
2.0
 40
2.0
 40
2.0
 40
3.0
 40
3.0
 40
3.0
 40
4.0
 40
4.0
 40
4.0
 40
4.0
 10
50.4664325623406
 20
-49.96904173059076
 30
0.0
 10
50.4664325623406
 20
-50.23428574711939
 30
0.0
 10
50.25335946743816
 20
-50.44930850714868
 30
0.0
 10
49.99052048472743
 20
-50.44930850714868
 30
0.0
 10
49.72768150201541
 20
-50.44930850714868
 30
0.0
 10
49.51460840711361
 20
-50.23428574711939
 30
0.0
 10
49.51460840711361
 20
-49.96904173059076
 30
0.0
 10
49.51460840711361
 20
-49.70379771406277
 30
0.0
 10
49.72768150201541
 20
-49.48877495403348
 30
0.0
 10
49.99052048472743
 20
-49.48877495403348
 30
0.0
 10
50.25335946743816
 20
-49.48877495403348
 30
0.0
 10
50.4664325623406
 20
-49.70379771406277
 30
0.0
 10
50.4664325623406
 20
-49.96904173059076
 30
0.0
  0
SPLINE
  5
74
330
1F
100
AcDbEntity
  8
LAYER_1
 62
   250
100
AcDbSpline
210
0.0
220
0.0
230
1.0
 70
    11
 71
     3
 72
    17
 73
    13
 74
     0
 42
0.0000000001
 43
0.0000000001
 12
1.0
 22
0.0
 32
0.0
 13
1.0
 23
0.0
 33
0.0
 40
0.0
 40
0.0
 40
0.0
 40
0.0
 40
1.0
 40
1.0
 40
1.0
 40
2.0
 40
2.0
 40
2.0
 40
3.0
 40
3.0
 40
3.0
 40
4.0
 40
4.0
 40
4.0
 40
4.0
 10
46.71464266061102
 20
-49.96904173059076
 30
0.0
 10
46.71464266061102
 20
-50.23428574711939
 30
0.0
 10
46.50156956570923
 20
-50.44930850714868
 30
0.0
 10
46.23873058299849
 20
-50.44930850714868
 30
0.0
 10
45.97589160028647
 20
-50.44930850714868
 30
0.0
 10
45.76281850538467
 20
-50.23428574711939
 30
0.0
 10
45.76281850538467
 20
-49.96904173059076
 30
0.0
 10
45.76281850538467
 20
-49.70379771406277
 30
0.0
 10
45.97589160028647
 20
-49.48877495403348
 30
0.0
 10
46.23873058299849
 20
-49.48877495403348
 30
0.0
 10
46.50156956570923
 20
-49.48877495403348
 30
0.0
 10
46.71464266061102
 20
-49.70379771406277
 30
0.0
 10
46.71464266061102
 20
-49.96904173059076
 30
0.0
  0
SPLINE
  5
75
330
1F
100
AcDbEntity
  8
LAYER_1
 62
   250
100
AcDbSpline
210
0.0
220
0.0
230
1.0
 70
    11
 71
     3
 72
    17
 73
    13
 74
     0
 42
0.0000000001
 43
0.0000000001
 12
1.0
 22
0.0
 32
0.0
 13
1.0
 23
0.0
 33
0.0
 40
0.0
 40
0.0
 40
0.0
 40
0.0
 40
1.0
 40
1.0
 40
1.0
 40
2.0
 40
2.0
 40
2.0
 40
3.0
 40
3.0
 40
3.0
 40
4.0
 40
4.0
 40
4.0
 40
4.0
 10
42.96285275888144
 20
-49.96904173059076
 30
0.0
 10
42.96285275888144
 20
-50.23428574711939
 30
0.0
 10
42.74977966397964
 20
-50.44930850714868
 30
0.0
 10
42.48694068126827
 20
-50.44930850714868
 30
0.0
 10
42.22410169855689
 20
-50.44930850714868
 30
0.0
 10
42.01102860365445
 20
-50.23428574711939
 30
0.0
 10
42.01102860365445
 20
-49.96904173059076
 30
0.0
 10
42.01102860365445
 20
-49.70379771406277
 30
0.0
 10
42.22410169855689
 20
-49.48877495403348
 30
0.0
 10
42.48694068126827
 20
-49.48877495403348
 30
0.0
 10
42.74977966397964
 20
-49.48877495403348
 30
0.0
 10
42.96285275888144
 20
-49.70379771406277
 30
0.0
 10
42.96285275888144
 20
-49.96904173059076
 30
0.0
  0
SPLINE
  5
76
330
1F
100
AcDbEntity
  8
LAYER_1
 62
   250
100
AcDbSpline
210
0.0
220
0.0
230
1.0
 70
    11
 71
     3
 72
    17
 73
    13
 74
     0
 42
0.0000000001
 43
0.0000000001
 12
1.0
 22
0.0
 32
0.0
 13
1.0
 23
0.0
 33
0.0
 40
0.0
 40
0.0
 40
0.0
 40
0.0
 40
1.0
 40
1.0
 40
1.0
 40
2.0
 40
2.0
 40
2.0
 40
3.0
 40
3.0
 40
3.0
 40
4.0
 40
4.0
 40
4.0
 40
4.0
 10
39.21106285715186
 20
-49.96904173059076
 30
0.0
 10
39.21106285715186
 20
-50.23428574711939
 30
0.0
 10
38.99798976225006
 20
-50.44930850714868
 30
0.0
 10
38.73515077953932
 20
-50.44930850714868
 30
0.0
 10
38.47231179682731
 20
-50.44930850714868
 30
0.0
 10
38.25923870192551
 20
-50.23428574711939
 30
0.0
 10
38.25923870192551
 20
-49.96904173059076
 30
0.0
 10
38.25923870192551
 20
-49.70379771406277
 30
0.0
 10
38.47231179682731
 20
-49.48877495403348
 30
0.0
 10
38.73515077953932
 20
-49.48877495403348
 30
0.0
 10
38.99798976225006
 20
-49.48877495403348
 30
0.0
 10
39.21106285715186
 20
-49.70379771406277
 30
0.0
 10
39.21106285715186
 20
-49.96904173059076
 30
0.0
  0
SPLINE
  5
77
330
1F
100
AcDbEntity
  8
LAYER_1
 62
   250
100
AcDbSpline
210
0.0
220
0.0
230
1.0
 70
    11
 71
     3
 72
    17
 73
    13
 74
     0
 42
0.0000000001
 43
0.0000000001
 12
1.0
 22
0.0
 32
0.0
 13
1.0
 23
0.0
 33
0.0
 40
0.0
 40
0.0
 40
0.0
 40
0.0
 40
1.0
 40
1.0
 40
1.0
 40
2.0
 40
2.0
 40
2.0
 40
3.0
 40
3.0
 40
3.0
 40
4.0
 40
4.0
 40
4.0
 40
4.0
 10
35.45927295542229
 20
-49.96904173059076
 30
0.0
 10
35.45927295542229
 20
-50.23428574711939
 30
0.0
 10
35.24619986052048
 20
-50.44930850714868
 30
0.0
 10
34.9833608778091
 20
-50.44930850714868
 30
0.0
 10
34.72052189509709
 20
-50.44930850714868
 30
0.0
 10
34.50744880019529
 20
-50.23428574711939
 30
0.0
 10
34.50744880019529
 20
-49.96904173059076
 30
0.0
 10
34.50744880019529
 20
-49.70379771406277
 30
0.0
 10
34.72052189509709
 20
-49.48877495403348
 30
0.0
 10
34.9833608778091
 20
-49.48877495403348
 30
0.0
 10
35.24619986052048
 20
-49.48877495403348
 30
0.0
 10
35.45927295542229
 20
-49.70379771406277
 30
0.0
 10
35.45927295542229
 20
-49.96904173059076
 30
0.0
  0
SPLINE
  5
78
330
1F
100
AcDbEntity
  8
LAYER_1
 62
   250
100
AcDbSpline
210
0.0
220
0.0
230
1.0
 70
    11
 71
     3
 72
    17
 73
    13
 74
     0
 42
0.0000000001
 43
0.0000000001
 12
1.0
 22
0.0
 32
0.0
 13
1.0
 23
0.0
 33
0.0
 40
0.0
 40
0.0
 40
0.0
 40
0.0
 40
1.0
 40
1.0
 40
1.0
 40
2.0
 40
2.0
 40
2.0
 40
3.0
 40
3.0
 40
3.0
 40
4.0
 40
4.0
 40
4.0
 40
4.0
 10
31.7074830536927
 20
-49.96904173059076
 30
0.0
 10
31.7074830536927
 20
-50.23428574711939
 30
0.0
 10
31.4944099587909
 20
-50.44930850714868
 30
0.0
 10
31.23157097607953
 20
-50.44930850714868
 30
0.0
 10
30.96873199336815
 20
-50.44930850714868
 30
0.0
 10
30.75565889846635
 20
-50.23428574711939
 30
0.0
 10
30.75565889846635
 20
-49.96904173059076
 30
0.0
 10
30.75565889846635
 20
-49.70379771406277
 30
0.0
 10
30.96873199336815
 20
-49.48877495403348
 30
0.0
 10
31.23157097607953
 20
-49.48877495403348
 30
0.0
 10
31.4944099587909
 20
-49.48877495403348
 30
0.0
 10
31.7074830536927
 20
-49.70379771406277
 30
0.0
 10
31.7074830536927
 20
-49.96904173059076
 30
0.0
  0
SPLINE
  5
79
330
1F
100
AcDbEntity
  8
LAYER_1
 62
   250
100
AcDbSpline
210
0.0
220
0.0
230
1.0
 70
    11
 71
     3
 72
    17
 73
    13
 74
     0
 42
0.0000000001
 43
0.0000000001
 12
1.0
 22
0.0
 32
0.0
 13
1.0
 23
0.0
 33
0.0
 40
0.0
 40
0.0
 40
0.0
 40
0.0
 40
1.0
 40
1.0
 40
1.0
 40
2.0
 40
2.0
 40
2.0
 40
3.0
 40
3.0
 40
3.0
 40
4.0
 40
4.0
 40
4.0
 40
4.0
 10
27.95569315196312
 20
-49.96904173059076
 30
0.0
 10
27.95569315196312
 20
-50.23428574711939
 30
0.0
 10
27.74262005706132
 20
-50.44930850714868
 30
0.0
 10
27.47978107434995
 20
-50.44930850714868
 30
0.0
 10
27.21694209163857
 20
-50.44930850714868
 30
0.0
 10
27.00386899673613
 20
-50.23428574711939
 30
0.0
 10
27.00386899673613
 20
-49.96904173059076
 30
0.0
 10
27.00386899673613
 20
-49.70379771406277
 30
0.0
 10
27.21694209163857
 20
-49.48877495403348
 30
0.0
 10
27.47978107434995
 20
-49.48877495403348
 30
0.0
 10
27.74262005706132
 20
-49.48877495403348
 30
0.0
 10
27.95569315196312
 20
-49.70379771406277
 30
0.0
 10
27.95569315196312
 20
-49.96904173059076
 30
0.0
  0
SPLINE
  5
7A
330
1F
100
AcDbEntity
  8
LAYER_1
 62
   250
100
AcDbSpline
210
0.0
220
0.0
230
1.0
 70
    11
 71
     3
 72
    17
 73
    13
 74
     0
 42
0.0000000001
 43
0.0000000001
 12
1.0
 22
0.0
 32
0.0
 13
1.0
 23
0.0
 33
0.0
 40
0.0
 40
0.0
 40
0.0
 40
0.0
 40
1.0
 40
1.0
 40
1.0
 40
2.0
 40
2.0
 40
2.0
 40
3.0
 40
3.0
 40
3.0
 40
4.0
 40
4.0
 40
4.0
 40
4.0
 10
24.20390325023354
 20
-49.96904173059076
 30
0.0
 10
24.20390325023354
 20
-50.23428574711939
 30
0.0
 10
23.99083015533174
 20
-50.44930850714868
 30
0.0
 10
23.72799117262037
 20
-50.44930850714868
 30
0.0
 10
23.46515218990899
 20
-50.44930850714868
 30
0.0
 10
23.25207909500655
 20
-50.23428574711939
 30
0.0
 10
23.25207909500655
 20
-49.96904173059076
 30
0.0
 10
23.25207909500655
 20
-49.70379771406277
 30
0.0
 10
23.46515218990899
 20
-49.48877495403348
 30
0.0
 10
23.72799117262037
 20
-49.48877495403348
 30
0.0
 10
23.99083015533174
 20
-49.48877495403348
 30
0.0
 10
24.20390325023354
 20
-49.70379771406277
 30
0.0
 10
24.20390325023354
 20
-49.96904173059076
 30
0.0
  0
SPLINE
  5
7B
330
1F
100
AcDbEntity
  8
LAYER_1
 62
   250
100
AcDbSpline
210
0.0
220
0.0
230
1.0
 70
    11
 71
     3
 72
    17
 73
    13
 74
     0
 42
0.0000000001
 43
0.0000000001
 12
1.0
 22
0.0
 32
0.0
 13
1.0
 23
0.0
 33
0.0
 40
0.0
 40
0.0
 40
0.0
 40
0.0
 40
1.0
 40
1.0
 40
1.0
 40
2.0
 40
2.0
 40
2.0
 40
3.0
 40
3.0
 40
3.0
 40
4.0
 40
4.0
 40
4.0
 40
4.0
 10
20.45211334850396
 20
-49.96904173059076
 30
0.0
 10
20.45211334850396
 20
-50.23428574711939
 30
0.0
 10
20.23904025360184
 20
-50.44930850714868
 30
0.0
 10
19.97620127089047
 20
-50.44930850714868
 30
0.0
 10
19.71336228817909
 20
-50.44930850714868
 30
0.0
 10
19.50028919327729
 20
-50.23428574711939
 30
0.0
 10
19.50028919327729
 20
-49.96904173059076
 30
0.0
 10
19.50028919327729
 20
-49.70379771406277
 30
0.0
 10
19.71336228817909
 20
-49.48877495403348
 30
0.0
 10
19.97620127089047
 20
-49.48877495403348
 30
0.0
 10
20.23904025360184
 20
-49.48877495403348
 30
0.0
 10
20.45211334850396
 20
-49.70379771406277
 30
0.0
 10
20.45211334850396
 20
-49.96904173059076
 30
0.0
  0
SPLINE
  5
7C
330
1F
100
AcDbEntity
  8
LAYER_1
 62
   250
100
AcDbSpline
210
0.0
220
0.0
230
1.0
 70
    11
 71
     3
 72
    17
 73
    13
 74
     0
 42
0.0000000001
 43
0.0000000001
 12
1.0
 22
0.0
 32
0.0
 13
1.0
 23
0.0
 33
0.0
 40
0.0
 40
0.0
 40
0.0
 40
0.0
 40
1.0
 40
1.0
 40
1.0
 40
2.0
 40
2.0
 40
2.0
 40
3.0
 40
3.0
 40
3.0
 40
4.0
 40
4.0
 40
4.0
 40
4.0
 10
16.70032344677406
 20
-49.96904173059076
 30
0.0
 10
16.70032344677406
 20
-50.23428574711939
 30
0.0
 10
16.48725035187226
 20
-50.44930850714868
 30
0.0
 10
16.22441136916089
 20
-50.44930850714868
 30
0.0
 10
15.96157238644951
 20
-50.44930850714868
 30
0.0
 10
15.74849929154771
 20
-50.23428574711939
 30
0.0
 10
15.74849929154771
 20
-49.96904173059076
 30
0.0
 10
15.74849929154771
 20
-49.70379771406277
 30
0.0
 10
15.96157238644951
 20
-49.48877495403348
 30
0.0
 10
16.22441136916089
 20
-49.48877495403348
 30
0.0
 10
16.48725035187226
 20
-49.48877495403348
 30
0.0
 10
16.70032344677406
 20
-49.70379771406277
 30
0.0
 10
16.70032344677406
 20
-49.96904173059076
 30
0.0
  0
SPLINE
  5
7D
330
1F
100
AcDbEntity
  8
LAYER_1
 62
   250
100
AcDbSpline
210
0.0
220
0.0
230
1.0
 70
    11
 71
     3
 72
    17
 73
    13
 74
     0
 42
0.0000000001
 43
0.0000000001
 12
1.0
 22
0.0
 32
0.0
 13
1.0
 23
0.0
 33
0.0
 40
0.0
 40
0.0
 40
0.0
 40
0.0
 40
1.0
 40
1.0
 40
1.0
 40
2.0
 40
2.0
 40
2.0
 40
3.0
 40
3.0
 40
3.0
 40
4.0
 40
4.0
 40
4.0
 40
4.0
 10
12.9485335450448
 20
-49.96904173059076
 30
0.0
 10
12.9485335450448
 20
-50.23428574711939
 30
0.0
 10
12.735460450143
 20
-50.44930850714868
 30
0.0
 10
12.47262146743163
 20
-50.44930850714868
 30
0.0
 10
12.20978248472025
 20
-50.44930850714868
 30
0.0
 10
11.99670938981813
 20
-50.23428574711939
 30
0.0
 10
11.99670938981813
 20
-49.96904173059076
 30
0.0
 10
11.99670938981813
 20
-49.70379771406277
 30
0.0
 10
12.20978248472025
 20
-49.48877495403348
 30
0.0
 10
12.47262146743163
 20
-49.48877495403348
 30
0.0
 10
12.735460450143
 20
-49.48877495403348
 30
0.0
 10
12.9485335450448
 20
-49.70379771406277
 30
0.0
 10
12.9485335450448
 20
-49.96904173059076
 30
0.0
  0
SPLINE
  5
7E
330
1F
100
AcDbEntity
  8
LAYER_1
 62
   250
100
AcDbSpline
210
0.0
220
0.0
230
1.0
 70
    11
 71
     3
 72
    17
 73
    13
 74
     0
 42
0.0000000001
 43
0.0000000001
 12
1.0
 22
0.0
 32
0.0
 13
1.0
 23
0.0
 33
0.0
 40
0.0
 40
0.0
 40
0.0
 40
0.0
 40
1.0
 40
1.0
 40
1.0
 40
2.0
 40
2.0
 40
2.0
 40
3.0
 40
3.0
 40
3.0
 40
4.0
 40
4.0
 40
4.0
 40
4.0
 10
9.196743643315223
 20
-49.96904173059076
 30
0.0
 10
9.196743643315223
 20
-50.23428574711939
 30
0.0
 10
8.983670548413425
 20
-50.44930850714868
 30
0.0
 10
8.720831565702047
 20
-50.44930850714868
 30
0.0
 10
8.457992582990672
 20
-50.44930850714868
 30
0.0
 10
8.24491948808855
 20
-50.23428574711939
 30
0.0
 10
8.24491948808855
 20
-49.96904173059076
 30
0.0
 10
8.24491948808855
 20
-49.70379771406277
 30
0.0
 10
8.457992582990672
 20
-49.48877495403348
 30
0.0
 10
8.720831565702047
 20
-49.48877495403348
 30
0.0
 10
8.983670548413425
 20
-49.48877495403348
 30
0.0
 10
9.196743643315223
 20
-49.70379771406277
 30
0.0
 10
9.196743643315223
 20
-49.96904173059076
 30
0.0
  0
SPLINE
  5
7F
330
1F
100
AcDbEntity
  8
LAYER_1
 62
   250
100
AcDbSpline
210
0.0
220
0.0
230
1.0
 70
    11
 71
     3
 72
    17
 73
    13
 74
     0
 42
0.0000000001
 43
0.0000000001
 12
1.0
 22
0.0
 32
0.0
 13
1.0
 23
0.0
 33
0.0
 40
0.0
 40
0.0
 40
0.0
 40
0.0
 40
1.0
 40
1.0
 40
1.0
 40
2.0
 40
2.0
 40
2.0
 40
3.0
 40
3.0
 40
3.0
 40
4.0
 40
4.0
 40
4.0
 40
4.0
 10
4.969042708627702
 20
-46.70390328393734
 30
0.0
 10
4.703798692099065
 20
-46.70390328393734
 30
0.0
 10
4.488775932069784
 20
-46.49083018903553
 30
0.0
 10
4.488775932069784
 20
-46.2279912063248
 30
0.0
 10
4.488775932069784
 20
-45.96515222361278
 30
0.0
 10
4.703798692099065
 20
-45.75207912871098
 30
0.0
 10
4.969042708627702
 20
-45.75207912871098
 30
0.0
 10
5.234286725155697
 20
-45.75207912871098
 30
0.0
 10
5.44930948518498
 20
-45.96515222361278
 30
0.0
 10
5.44930948518498
 20
-46.2279912063248
 30
0.0
 10
5.44930948518498
 20
-46.49083018903553
 30
0.0
 10
5.234286725155697
 20
-46.70390328393734
 30
0.0
 10
4.969042708627702
 20
-46.70390328393734
 30
0.0
  0
SPLINE
  5
80
330
1F
100
AcDbEntity
  8
LAYER_1
 62
   250
100
AcDbSpline
210
0.0
220
0.0
230
1.0
 70
    11
 71
     3
 72
    17
 73
    13
 74
     0
 42
0.0000000001
 43
0.0000000001
 12
1.0
 22
0.0
 32
0.0
 13
1.0
 23
0.0
 33
0.0
 40
0.0
 40
0.0
 40
0.0
 40
0.0
 40
1.0
 40
1.0
 40
1.0
 40
2.0
 40
2.0
 40
2.0
 40
3.0
 40
3.0
 40
3.0
 40
4.0
 40
4.0
 40
4.0
 40
4.0
 10
4.969042708627702
 20
-42.95211338220776
 30
0.0
 10
4.703798692099065
 20
-42.95211338220776
 30
0.0
 10
4.488775932069784
 20
-42.73904028730595
 30
0.0
 10
4.488775932069784
 20
-42.47620130459457
 30
0.0
 10
4.488775932069784
 20
-42.2133623218832
 30
0.0
 10
4.703798692099065
 20
-42.00028922698076
 30
0.0
 10
4.969042708627702
 20
-42.00028922698076
 30
0.0
 10
5.234286725155697
 20
-42.00028922698076
 30
0.0
 10
5.44930948518498
 20
-42.2133623218832
 30
0.0
 10
5.44930948518498
 20
-42.47620130459457
 30
0.0
 10
5.44930948518498
 20
-42.73904028730595
 30
0.0
 10
5.234286725155697
 20
-42.95211338220776
 30
0.0
 10
4.969042708627702
 20
-42.95211338220776
 30
0.0
  0
SPLINE
  5
81
330
1F
100
AcDbEntity
  8
LAYER_1
 62
   250
100
AcDbSpline
210
0.0
220
0.0
230
1.0
 70
    11
 71
     3
 72
    17
 73
    13
 74
     0
 42
0.0000000001
 43
0.0000000001
 12
1.0
 22
0.0
 32
0.0
 13
1.0
 23
0.0
 33
0.0
 40
0.0
 40
0.0
 40
0.0
 40
0.0
 40
1.0
 40
1.0
 40
1.0
 40
2.0
 40
2.0
 40
2.0
 40
3.0
 40
3.0
 40
3.0
 40
4.0
 40
4.0
 40
4.0
 40
4.0
 10
4.969042708627702
 20
-39.20032348047818
 30
0.0
 10
4.703798692099065
 20
-39.20032348047818
 30
0.0
 10
4.488775932069784
 20
-38.98725038557637
 30
0.0
 10
4.488775932069784
 20
-38.72441140286564
 30
0.0
 10
4.488775932069784
 20
-38.46157242015362
 30
0.0
 10
4.703798692099065
 20
-38.24849932525182
 30
0.0
 10
4.969042708627702
 20
-38.24849932525182
 30
0.0
 10
5.234286725155697
 20
-38.24849932525182
 30
0.0
 10
5.44930948518498
 20
-38.46157242015362
 30
0.0
 10
5.44930948518498
 20
-38.72441140286564
 30
0.0
 10
5.44930948518498
 20
-38.98725038557637
 30
0.0
 10
5.234286725155697
 20
-39.20032348047818
 30
0.0
 10
4.969042708627702
 20
-39.20032348047818
 30
0.0
  0
SPLINE
  5
82
330
1F
100
AcDbEntity
  8
LAYER_1
 62
   250
100
AcDbSpline
210
0.0
220
0.0
230
1.0
 70
    11
 71
     3
 72
    17
 73
    13
 74
     0
 42
0.0000000001
 43
0.0000000001
 12
1.0
 22
0.0
 32
0.0
 13
1.0
 23
0.0
 33
0.0
 40
0.0
 40
0.0
 40
0.0
 40
0.0
 40
1.0
 40
1.0
 40
1.0
 40
2.0
 40
2.0
 40
2.0
 40
3.0
 40
3.0
 40
3.0
 40
4.0
 40
4.0
 40
4.0
 40
4.0
 10
4.969042708627702
 20
-35.4485335787486
 30
0.0
 10
4.703798692099065
 20
-35.4485335787486
 30
0.0
 10
4.488775932069784
 20
-35.23546048384679
 30
0.0
 10
4.488775932069784
 20
-34.97262150113541
 30
0.0
 10
4.488775932069784
 20
-34.7097825184234
 30
0.0
 10
4.703798692099065
 20
-34.4967094235216
 30
0.0
 10
4.969042708627702
 20
-34.4967094235216
 30
0.0
 10
5.234286725155697
 20
-34.4967094235216
 30
0.0
 10
5.44930948518498
 20
-34.7097825184234
 30
0.0
 10
5.44930948518498
 20
-34.97262150113541
 30
0.0
 10
5.44930948518498
 20
-35.23546048384679
 30
0.0
 10
5.234286725155697
 20
-35.4485335787486
 30
0.0
 10
4.969042708627702
 20
-35.4485335787486
 30
0.0
  0
SPLINE
  5
83
330
1F
100
AcDbEntity
  8
LAYER_1
 62
   250
100
AcDbSpline
210
0.0
220
0.0
230
1.0
 70
    11
 71
     3
 72
    17
 73
    13
 74
     0
 42
0.0000000001
 43
0.0000000001
 12
1.0
 22
0.0
 32
0.0
 13
1.0
 23
0.0
 33
0.0
 40
0.0
 40
0.0
 40
0.0
 40
0.0
 40
1.0
 40
1.0
 40
1.0
 40
2.0
 40
2.0
 40
2.0
 40
3.0
 40
3.0
 40
3.0
 40
4.0
 40
4.0
 40
4.0
 40
4.0
 10
4.969042708627702
 20
-31.69674367701901
 30
0.0
 10
4.703798692099065
 20
-31.69674367701901
 30
0.0
 10
4.488775932069784
 20
-31.48367058211721
 30
0.0
 10
4.488775932069784
 20
-31.22083159940584
 30
0.0
 10
4.488775932069784
 20
-30.95799261669446
 30
0.0
 10
4.703798692099065
 20
-30.74491952179266
 30
0.0
 10
4.969042708627702
 20
-30.74491952179266
 30
0.0
 10
5.234286725155697
 20
-30.74491952179266
 30
0.0
 10
5.44930948518498
 20
-30.95799261669446
 30
0.0
 10
5.44930948518498
 20
-31.22083159940584
 30
0.0
 10
5.44930948518498
 20
-31.48367058211721
 30
0.0
 10
5.234286725155697
 20
-31.69674367701901
 30
0.0
 10
4.969042708627702
 20
-31.69674367701901
 30
0.0
  0
SPLINE
  5
84
330
1F
100
AcDbEntity
  8
LAYER_1
 62
   250
100
AcDbSpline
210
0.0
220
0.0
230
1.0
 70
    11
 71
     3
 72
    17
 73
    13
 74
     0
 42
0.0000000001
 43
0.0000000001
 12
1.0
 22
0.0
 32
0.0
 13
1.0
 23
0.0
 33
0.0
 40
0.0
 40
0.0
 40
0.0
 40
0.0
 40
1.0
 40
1.0
 40
1.0
 40
2.0
 40
2.0
 40
2.0
 40
3.0
 40
3.0
 40
3.0
 40
4.0
 40
4.0
 40
4.0
 40
4.0
 10
4.969042708627702
 20
-27.94495377528943
 30
0.0
 10
4.703798692099065
 20
-27.94495377528943
 30
0.0
 10
4.488775932069784
 20
-27.73188068038764
 30
0.0
 10
4.488775932069784
 20
-27.46904169767626
 30
0.0
 10
4.488775932069784
 20
-27.20620271496488
 30
0.0
 10
4.703798692099065
 20
-26.99312962006244
 30
0.0
 10
4.969042708627702
 20
-26.99312962006244
 30
0.0
 10
5.234286725155697
 20
-26.99312962006244
 30
0.0
 10
5.44930948518498
 20
-27.20620271496488
 30
0.0
 10
5.44930948518498
 20
-27.46904169767626
 30
0.0
 10
5.44930948518498
 20
-27.73188068038764
 30
0.0
 10
5.234286725155697
 20
-27.94495377528943
 30
0.0
 10
4.969042708627702
 20
-27.94495377528943
 30
0.0
  0
SPLINE
  5
85
330
1F
100
AcDbEntity
  8
LAYER_1
 62
   250
100
AcDbSpline
210
0.0
220
0.0
230
1.0
 70
    11
 71
     3
 72
    17
 73
    13
 74
     0
 42
0.0000000001
 43
0.0000000001
 12
1.0
 22
0.0
 32
0.0
 13
1.0
 23
0.0
 33
0.0
 40
0.0
 40
0.0
 40
0.0
 40
0.0
 40
1.0
 40
1.0
 40
1.0
 40
2.0
 40
2.0
 40
2.0
 40
3.0
 40
3.0
 40
3.0
 40
4.0
 40
4.0
 40
4.0
 40
4.0
 10
4.969042708627702
 20
-24.19316387355985
 30
0.0
 10
4.703798692099065
 20
-24.19316387355985
 30
0.0
 10
4.488775932069784
 20
-23.98009077865806
 30
0.0
 10
4.488775932069784
 20
-23.71725179594668
 30
0.0
 10
4.488775932069784
 20
-23.4544128132353
 30
0.0
 10
4.703798692099065
 20
-23.24133971833286
 30
0.0
 10
4.969042708627702
 20
-23.24133971833286
 30
0.0
 10
5.234286725155697
 20
-23.24133971833286
 30
0.0
 10
5.44930948518498
 20
-23.4544128132353
 30
0.0
 10
5.44930948518498
 20
-23.71725179594668
 30
0.0
 10
5.44930948518498
 20
-23.98009077865806
 30
0.0
 10
5.234286725155697
 20
-24.19316387355985
 30
0.0
 10
4.969042708627702
 20
-24.19316387355985
 30
0.0
  0
SPLINE
  5
86
330
1F
100
AcDbEntity
  8
LAYER_1
 62
   250
100
AcDbSpline
210
0.0
220
0.0
230
1.0
 70
    11
 71
     3
 72
    17
 73
    13
 74
     0
 42
0.0000000001
 43
0.0000000001
 12
1.0
 22
0.0
 32
0.0
 13
1.0
 23
0.0
 33
0.0
 40
0.0
 40
0.0
 40
0.0
 40
0.0
 40
1.0
 40
1.0
 40
1.0
 40
2.0
 40
2.0
 40
2.0
 40
3.0
 40
3.0
 40
3.0
 40
4.0
 40
4.0
 40
4.0
 40
4.0
 10
4.969042708627702
 20
-20.44137397183027
 30
0.0
 10
4.703798692099065
 20
-20.44137397183027
 30
0.0
 10
4.488775932069784
 20
-20.22830087692816
 30
0.0
 10
4.488775932069784
 20
-19.96546189421678
 30
0.0
 10
4.488775932069784
 20
-19.7026229115054
 30
0.0
 10
4.703798692099065
 20
-19.4895498166036
 30
0.0
 10
4.969042708627702
 20
-19.4895498166036
 30
0.0
 10
5.234286725155697
 20
-19.4895498166036
 30
0.0
 10
5.44930948518498
 20
-19.7026229115054
 30
0.0
 10
5.44930948518498
 20
-19.96546189421678
 30
0.0
 10
5.44930948518498
 20
-20.22830087692816
 30
0.0
 10
5.234286725155697
 20
-20.44137397183027
 30
0.0
 10
4.969042708627702
 20
-20.44137397183027
 30
0.0
  0
SPLINE
  5
87
330
1F
100
AcDbEntity
  8
LAYER_1
 62
   250
100
AcDbSpline
210
0.0
220
0.0
230
1.0
 70
    11
 71
     3
 72
    17
 73
    13
 74
     0
 42
0.0000000001
 43
0.0000000001
 12
1.0
 22
0.0
 32
0.0
 13
1.0
 23
0.0
 33
0.0
 40
0.0
 40
0.0
 40
0.0
 40
0.0
 40
1.0
 40
1.0
 40
1.0
 40
2.0
 40
2.0
 40
2.0
 40
3.0
 40
3.0
 40
3.0
 40
4.0
 40
4.0
 40
4.0
 40
4.0
 10
4.969042708627702
 20
-16.68958407010037
 30
0.0
 10
4.703798692099065
 20
-16.68958407010037
 30
0.0
 10
4.488775932069784
 20
-16.47651097519858
 30
0.0
 10
4.488775932069784
 20
-16.2136719924872
 30
0.0
 10
4.488775932069784
 20
-15.95083300977582
 30
0.0
 10
4.703798692099065
 20
-15.73775991487402
 30
0.0
 10
4.969042708627702
 20
-15.73775991487402
 30
0.0
 10
5.234286725155697
 20
-15.73775991487402
 30
0.0
 10
5.44930948518498
 20
-15.95083300977582
 30
0.0
 10
5.44930948518498
 20
-16.2136719924872
 30
0.0
 10
5.44930948518498
 20
-16.47651097519858
 30
0.0
 10
5.234286725155697
 20
-16.68958407010037
 30
0.0
 10
4.969042708627702
 20
-16.68958407010037
 30
0.0
  0
SPLINE
  5
88
330
1F
100
AcDbEntity
  8
LAYER_1
 62
   250
100
AcDbSpline
210
0.0
220
0.0
230
1.0
 70
    11
 71
     3
 72
    17
 73
    13
 74
     0
 42
0.0000000001
 43
0.0000000001
 12
1.0
 22
0.0
 32
0.0
 13
1.0
 23
0.0
 33
0.0
 40
0.0
 40
0.0
 40
0.0
 40
0.0
 40
1.0
 40
1.0
 40
1.0
 40
2.0
 40
2.0
 40
2.0
 40
3.0
 40
3.0
 40
3.0
 40
4.0
 40
4.0
 40
4.0
 40
4.0
 10
4.969042708627702
 20
-12.93779416837111
 30
0.0
 10
4.703798692099065
 20
-12.93779416837111
 30
0.0
 10
4.488775932069784
 20
-12.72472107346931
 30
0.0
 10
4.488775932069784
 20
-12.46188209075794
 30
0.0
 10
4.488775932069784
 20
-12.19904310804656
 30
0.0
 10
4.703798692099065
 20
-11.98597001314444
 30
0.0
 10
4.969042708627702
 20
-11.98597001314444
 30
0.0
 10
5.234286725155697
 20
-11.98597001314444
 30
0.0
 10
5.44930948518498
 20
-12.19904310804656
 30
0.0
 10
5.44930948518498
 20
-12.46188209075794
 30
0.0
 10
5.44930948518498
 20
-12.72472107346931
 30
0.0
 10
5.234286725155697
 20
-12.93779416837111
 30
0.0
 10
4.969042708627702
 20
-12.93779416837111
 30
0.0
  0
SPLINE
  5
89
330
1F
100
AcDbEntity
  8
LAYER_1
 62
   250
100
AcDbSpline
210
0.0
220
0.0
230
1.0
 70
    11
 71
     3
 72
    17
 73
    13
 74
     0
 42
0.0000000001
 43
0.0000000001
 12
1.0
 22
0.0
 32
0.0
 13
1.0
 23
0.0
 33
0.0
 40
0.0
 40
0.0
 40
0.0
 40
0.0
 40
1.0
 40
1.0
 40
1.0
 40
2.0
 40
2.0
 40
2.0
 40
3.0
 40
3.0
 40
3.0
 40
4.0
 40
4.0
 40
4.0
 40
4.0
 10
4.969042708627702
 20
-9.186004266641534
 30
0.0
 10
4.703798692099065
 20
-9.186004266641534
 30
0.0
 10
4.488775932069784
 20
-8.972931171739736
 30
0.0
 10
4.488775932069784
 20
-8.710092189028359
 30
0.0
 10
4.488775932069784
 20
-8.447253206316983
 30
0.0
 10
4.703798692099065
 20
-8.234180111414862
 30
0.0
 10
4.969042708627702
 20
-8.234180111414862
 30
0.0
 10
5.234286725155697
 20
-8.234180111414862
 30
0.0
 10
5.44930948518498
 20
-8.447253206316983
 30
0.0
 10
5.44930948518498
 20
-8.710092189028359
 30
0.0
 10
5.44930948518498
 20
-8.972931171739736
 30
0.0
 10
5.234286725155697
 20
-9.186004266641534
 30
0.0
 10
4.969042708627702
 20
-9.186004266641534
 30
0.0
  0
SPLINE
  5
8A
330
1F
100
AcDbEntity
  8
LAYER_1
 62
   250
100
AcDbSpline
210
0.0
220
0.0
230
1.0
 70
    11
 71
     3
 72
    17
 73
    13
 74
     0
 42
0.0000000001
 43
0.0000000001
 12
1.0
 22
0.0
 32
0.0
 13
1.0
 23
0.0
 33
0.0
 40
0.0
 40
0.0
 40
0.0
 40
0.0
 40
1.0
 40
1.0
 40
1.0
 40
2.0
 40
2.0
 40
2.0
 40
3.0
 40
3.0
 40
3.0
 40
4.0
 40
4.0
 40
4.0
 40
4.0
 10
49.96904142581195
 20
-46.6673637399469
 30
0.0
 10
49.70379740928331
 20
-46.6673637399469
 30
0.0
 10
49.48877464925403
 20
-46.45429064504511
 30
0.0
 10
49.48877464925403
 20
-46.19145166233437
 30
0.0
 10
49.48877464925403
 20
-45.92861267962235
 30
0.0
 10
49.70379740928331
 20
-45.71553958472055
 30
0.0
 10
49.96904142581195
 20
-45.71553958472055
 30
0.0
 10
50.23428544233995
 20
-45.71553958472055
 30
0.0
 10
50.44930820236922
 20
-45.92861267962235
 30
0.0
 10
50.44930820236922
 20
-46.19145166233437
 30
0.0
 10
50.44930820236922
 20
-46.45429064504511
 30
0.0
 10
50.23428544233995
 20
-46.6673637399469
 30
0.0
 10
49.96904142581195
 20
-46.6673637399469
 30
0.0
  0
SPLINE
  5
8B
330
1F
100
AcDbEntity
  8
LAYER_1
 62
   250
100
AcDbSpline
210
0.0
220
0.0
230
1.0
 70
    11
 71
     3
 72
    17
 73
    13
 74
     0
 42
0.0000000001
 43
0.0000000001
 12
1.0
 22
0.0
 32
0.0
 13
1.0
 23
0.0
 33
0.0
 40
0.0
 40
0.0
 40
0.0
 40
0.0
 40
1.0
 40
1.0
 40
1.0
 40
2.0
 40
2.0
 40
2.0
 40
3.0
 40
3.0
 40
3.0
 40
4.0
 40
4.0
 40
4.0
 40
4.0
 10
49.96904142581195
 20
-42.91557383821732
 30
0.0
 10
49.70379740928331
 20
-42.91557383821732
 30
0.0
 10
49.48877464925403
 20
-42.70250074331553
 30
0.0
 10
49.48877464925403
 20
-42.43966176060415
 30
0.0
 10
49.48877464925403
 20
-42.17682277789277
 30
0.0
 10
49.70379740928331
 20
-41.96374968299033
 30
0.0
 10
49.96904142581195
 20
-41.96374968299033
 30
0.0
 10
50.23428544233995
 20
-41.96374968299033
 30
0.0
 10
50.44930820236922
 20
-42.17682277789277
 30
0.0
 10
50.44930820236922
 20
-42.43966176060415
 30
0.0
 10
50.44930820236922
 20
-42.70250074331553
 30
0.0
 10
50.23428544233995
 20
-42.91557383821732
 30
0.0
 10
49.96904142581195
 20
-42.91557383821732
 30
0.0
  0
SPLINE
  5
8C
330
1F
100
AcDbEntity
  8
LAYER_1
 62
   250
100
AcDbSpline
210
0.0
220
0.0
230
1.0
 70
    11
 71
     3
 72
    17
 73
    13
 74
     0
 42
0.0000000001
 43
0.0000000001
 12
1.0
 22
0.0
 32
0.0
 13
1.0
 23
0.0
 33
0.0
 40
0.0
 40
0.0
 40
0.0
 40
0.0
 40
1.0
 40
1.0
 40
1.0
 40
2.0
 40
2.0
 40
2.0
 40
3.0
 40
3.0
 40
3.0
 40
4.0
 40
4.0
 40
4.0
 40
4.0
 10
49.96904142581195
 20
-39.16378393648774
 30
0.0
 10
49.70379740928331
 20
-39.16378393648774
 30
0.0
 10
49.48877464925403
 20
-38.95071084158594
 30
0.0
 10
49.48877464925403
 20
-38.68787185887521
 30
0.0
 10
49.48877464925403
 20
-38.42503287616319
 30
0.0
 10
49.70379740928331
 20
-38.21195978126139
 30
0.0
 10
49.96904142581195
 20
-38.21195978126139
 30
0.0
 10
50.23428544233995
 20
-38.21195978126139
 30
0.0
 10
50.44930820236922
 20
-38.42503287616319
 30
0.0
 10
50.44930820236922
 20
-38.68787185887521
 30
0.0
 10
50.44930820236922
 20
-38.95071084158594
 30
0.0
 10
50.23428544233995
 20
-39.16378393648774
 30
0.0
 10
49.96904142581195
 20
-39.16378393648774
 30
0.0
  0
SPLINE
  5
8D
330
1F
100
AcDbEntity
  8
LAYER_1
 62
   250
100
AcDbSpline
210
0.0
220
0.0
230
1.0
 70
    11
 71
     3
 72
    17
 73
    13
 74
     0
 42
0.0000000001
 43
0.0000000001
 12
1.0
 22
0.0
 32
0.0
 13
1.0
 23
0.0
 33
0.0
 40
0.0
 40
0.0
 40
0.0
 40
0.0
 40
1.0
 40
1.0
 40
1.0
 40
2.0
 40
2.0
 40
2.0
 40
3.0
 40
3.0
 40
3.0
 40
4.0
 40
4.0
 40
4.0
 40
4.0
 10
49.96904142581195
 20
-35.41199403475816
 30
0.0
 10
49.70379740928331
 20
-35.41199403475816
 30
0.0
 10
49.48877464925403
 20
-35.19892093985636
 30
0.0
 10
49.48877464925403
 20
-34.93608195714499
 30
0.0
 10
49.48877464925403
 20
-34.67324297443297
 30
0.0
 10
49.70379740928331
 20
-34.46016987953117
 30
0.0
 10
49.96904142581195
 20
-34.46016987953117
 30
0.0
 10
50.23428544233995
 20
-34.46016987953117
 30
0.0
 10
50.44930820236922
 20
-34.67324297443297
 30
0.0
 10
50.44930820236922
 20
-34.93608195714499
 30
0.0
 10
50.44930820236922
 20
-35.19892093985636
 30
0.0
 10
50.23428544233995
 20
-35.41199403475816
 30
0.0
 10
49.96904142581195
 20
-35.41199403475816
 30
0.0
  0
SPLINE
  5
8E
330
1F
100
AcDbEntity
  8
LAYER_1
 62
   250
100
AcDbSpline
210
0.0
220
0.0
230
1.0
 70
    11
 71
     3
 72
    17
 73
    13
 74
     0
 42
0.0000000001
 43
0.0000000001
 12
1.0
 22
0.0
 32
0.0
 13
1.0
 23
0.0
 33
0.0
 40
0.0
 40
0.0
 40
0.0
 40
0.0
 40
1.0
 40
1.0
 40
1.0
 40
2.0
 40
2.0
 40
2.0
 40
3.0
 40
3.0
 40
3.0
 40
4.0
 40
4.0
 40
4.0
 40
4.0
 10
49.96904142581195
 20
-31.66020413302858
 30
0.0
 10
49.70379740928331
 20
-31.66020413302858
 30
0.0
 10
49.48877464925403
 20
-31.44713103812678
 30
0.0
 10
49.48877464925403
 20
-31.18429205541541
 30
0.0
 10
49.48877464925403
 20
-30.92145307270403
 30
0.0
 10
49.70379740928331
 20
-30.70837997780223
 30
0.0
 10
49.96904142581195
 20
-30.70837997780223
 30
0.0
 10
50.23428544233995
 20
-30.70837997780223
 30
0.0
 10
50.44930820236922
 20
-30.92145307270403
 30
0.0
 10
50.44930820236922
 20
-31.18429205541541
 30
0.0
 10
50.44930820236922
 20
-31.44713103812678
 30
0.0
 10
50.23428544233995
 20
-31.66020413302858
 30
0.0
 10
49.96904142581195
 20
-31.66020413302858
 30
0.0
  0
SPLINE
  5
8F
330
1F
100
AcDbEntity
  8
LAYER_1
 62
   250
100
AcDbSpline
210
0.0
220
0.0
230
1.0
 70
    11
 71
     3
 72
    17
 73
    13
 74
     0
 42
0.0000000001
 43
0.0000000001
 12
1.0
 22
0.0
 32
0.0
 13
1.0
 23
0.0
 33
0.0
 40
0.0
 40
0.0
 40
0.0
 40
0.0
 40
1.0
 40
1.0
 40
1.0
 40
2.0
 40
2.0
 40
2.0
 40
3.0
 40
3.0
 40
3.0
 40
4.0
 40
4.0
 40
4.0
 40
4.0
 10
49.96904142581195
 20
-27.908414231299
 30
0.0
 10
49.70379740928331
 20
-27.908414231299
 30
0.0
 10
49.48877464925403
 20
-27.6953411363972
 30
0.0
 10
49.48877464925403
 20
-27.43250215368583
 30
0.0
 10
49.48877464925403
 20
-27.16966317097445
 30
0.0
 10
49.70379740928331
 20
-26.95659007607201
 30
0.0
 10
49.96904142581195
 20
-26.95659007607201
 30
0.0
 10
50.23428544233995
 20
-26.95659007607201
 30
0.0
 10
50.44930820236922
 20
-27.16966317097445
 30
0.0
 10
50.44930820236922
 20
-27.43250215368583
 30
0.0
 10
50.44930820236922
 20
-27.6953411363972
 30
0.0
 10
50.23428544233995
 20
-27.908414231299
 30
0.0
 10
49.96904142581195
 20
-27.908414231299
 30
0.0
  0
SPLINE
  5
90
330
1F
100
AcDbEntity
  8
LAYER_1
 62
   250
100
AcDbSpline
210
0.0
220
0.0
230
1.0
 70
    11
 71
     3
 72
    17
 73
    13
 74
     0
 42
0.0000000001
 43
0.0000000001
 12
1.0
 22
0.0
 32
0.0
 13
1.0
 23
0.0
 33
0.0
 40
0.0
 40
0.0
 40
0.0
 40
0.0
 40
1.0
 40
1.0
 40
1.0
 40
2.0
 40
2.0
 40
2.0
 40
3.0
 40
3.0
 40
3.0
 40
4.0
 40
4.0
 40
4.0
 40
4.0
 10
49.96904142581195
 20
-24.15662432956942
 30
0.0
 10
49.70379740928331
 20
-24.15662432956942
 30
0.0
 10
49.48877464925403
 20
-23.94355123466762
 30
0.0
 10
49.48877464925403
 20
-23.68071225195625
 30
0.0
 10
49.48877464925403
 20
-23.41787326924487
 30
0.0
 10
49.70379740928331
 20
-23.20480017434243
 30
0.0
 10
49.96904142581195
 20
-23.20480017434243
 30
0.0
 10
50.23428544233995
 20
-23.20480017434243
 30
0.0
 10
50.44930820236922
 20
-23.41787326924487
 30
0.0
 10
50.44930820236922
 20
-23.68071225195625
 30
0.0
 10
50.44930820236922
 20
-23.94355123466762
 30
0.0
 10
50.23428544233995
 20
-24.15662432956942
 30
0.0
 10
49.96904142581195
 20
-24.15662432956942
 30
0.0
  0
SPLINE
  5
91
330
1F
100
AcDbEntity
  8
LAYER_1
 62
   250
100
AcDbSpline
210
0.0
220
0.0
230
1.0
 70
    11
 71
     3
 72
    17
 73
    13
 74
     0
 42
0.0000000001
 43
0.0000000001
 12
1.0
 22
0.0
 32
0.0
 13
1.0
 23
0.0
 33
0.0
 40
0.0
 40
0.0
 40
0.0
 40
0.0
 40
1.0
 40
1.0
 40
1.0
 40
2.0
 40
2.0
 40
2.0
 40
3.0
 40
3.0
 40
3.0
 40
4.0
 40
4.0
 40
4.0
 40
4.0
 10
49.96904142581195
 20
-20.40483442783984
 30
0.0
 10
49.70379740928331
 20
-20.40483442783984
 30
0.0
 10
49.48877464925403
 20
-20.19176133293772
 30
0.0
 10
49.48877464925403
 20
-19.92892235022635
 30
0.0
 10
49.48877464925403
 20
-19.66608336751497
 30
0.0
 10
49.70379740928331
 20
-19.45301027261317
 30
0.0
 10
49.96904142581195
 20
-19.45301027261317
 30
0.0
 10
50.23428544233995
 20
-19.45301027261317
 30
0.0
 10
50.44930820236922
 20
-19.66608336751497
 30
0.0
 10
50.44930820236922
 20
-19.92892235022635
 30
0.0
 10
50.44930820236922
 20
-20.19176133293772
 30
0.0
 10
50.23428544233995
 20
-20.40483442783984
 30
0.0
 10
49.96904142581195
 20
-20.40483442783984
 30
0.0
  0
SPLINE
  5
92
330
1F
100
AcDbEntity
  8
LAYER_1
 62
   250
100
AcDbSpline
210
0.0
220
0.0
230
1.0
 70
    11
 71
     3
 72
    17
 73
    13
 74
     0
 42
0.0000000001
 43
0.0000000001
 12
1.0
 22
0.0
 32
0.0
 13
1.0
 23
0.0
 33
0.0
 40
0.0
 40
0.0
 40
0.0
 40
0.0
 40
1.0
 40
1.0
 40
1.0
 40
2.0
 40
2.0
 40
2.0
 40
3.0
 40
3.0
 40
3.0
 40
4.0
 40
4.0
 40
4.0
 40
4.0
 10
49.96904142581195
 20
-16.65304452610994
 30
0.0
 10
49.70379740928331
 20
-16.65304452610994
 30
0.0
 10
49.48877464925403
 20
-16.43997143120814
 30
0.0
 10
49.48877464925403
 20
-16.17713244849677
 30
0.0
 10
49.48877464925403
 20
-15.91429346578539
 30
0.0
 10
49.70379740928331
 20
-15.70122037088359
 30
0.0
 10
49.96904142581195
 20
-15.70122037088359
 30
0.0
 10
50.23428544233995
 20
-15.70122037088359
 30
0.0
 10
50.44930820236922
 20
-15.91429346578539
 30
0.0
 10
50.44930820236922
 20
-16.17713244849677
 30
0.0
 10
50.44930820236922
 20
-16.43997143120814
 30
0.0
 10
50.23428544233995
 20
-16.65304452610994
 30
0.0
 10
49.96904142581195
 20
-16.65304452610994
 30
0.0
  0
SPLINE
  5
93
330
1F
100
AcDbEntity
  8
LAYER_1
 62
   250
100
AcDbSpline
210
0.0
220
0.0
230
1.0
 70
    11
 71
     3
 72
    17
 73
    13
 74
     0
 42
0.0000000001
 43
0.0000000001
 12
1.0
 22
0.0
 32
0.0
 13
1.0
 23
0.0
 33
0.0
 40
0.0
 40
0.0
 40
0.0
 40
0.0
 40
1.0
 40
1.0
 40
1.0
 40
2.0
 40
2.0
 40
2.0
 40
3.0
 40
3.0
 40
3.0
 40
4.0
 40
4.0
 40
4.0
 40
4.0
 10
49.96904142581195
 20
-12.90125462438068
 30
0.0
 10
49.70379740928331
 20
-12.90125462438068
 30
0.0
 10
49.48877464925403
 20
-12.68818152947888
 30
0.0
 10
49.48877464925403
 20
-12.42534254676751
 30
0.0
 10
49.48877464925403
 20
-12.16250356405613
 30
0.0
 10
49.70379740928331
 20
-11.94943046915401
 30
0.0
 10
49.96904142581195
 20
-11.94943046915401
 30
0.0
 10
50.23428544233995
 20
-11.94943046915401
 30
0.0
 10
50.44930820236922
 20
-12.16250356405613
 30
0.0
 10
50.44930820236922
 20
-12.42534254676751
 30
0.0
 10
50.44930820236922
 20
-12.68818152947888
 30
0.0
 10
50.23428544233995
 20
-12.90125462438068
 30
0.0
 10
49.96904142581195
 20
-12.90125462438068
 30
0.0
  0
SPLINE
  5
94
330
1F
100
AcDbEntity
  8
LAYER_1
 62
   250
100
AcDbSpline
210
0.0
220
0.0
230
1.0
 70
    11
 71
     3
 72
    17
 73
    13
 74
     0
 42
0.0000000001
 43
0.0000000001
 12
1.0
 22
0.0
 32
0.0
 13
1.0
 23
0.0
 33
0.0
 40
0.0
 40
0.0
 40
0.0
 40
0.0
 40
1.0
 40
1.0
 40
1.0
 40
2.0
 40
2.0
 40
2.0
 40
3.0
 40
3.0
 40
3.0
 40
4.0
 40
4.0
 40
4.0
 40
4.0
 10
49.96904142581195
 20
-9.149464722651103
 30
0.0
 10
49.70379740928331
 20
-9.149464722651103
 30
0.0
 10
49.48877464925403
 20
-8.936391627749304
 30
0.0
 10
49.48877464925403
 20
-8.673552645037928
 30
0.0
 10
49.48877464925403
 20
-8.410713662326552
 30
0.0
 10
49.70379740928331
 20
-8.19764056742443
 30
0.0
 10
49.96904142581195
 20
-8.19764056742443
 30
0.0
 10
50.23428544233995
 20
-8.19764056742443
 30
0.0
 10
50.44930820236922
 20
-8.410713662326552
 30
0.0
 10
50.44930820236922
 20
-8.673552645037928
 30
0.0
 10
50.44930820236922
 20
-8.936391627749304
 30
0.0
 10
50.23428544233995
 20
-9.149464722651103
 30
0.0
 10
49.96904142581195
 20
-9.149464722651103
 30
0.0
  0
ENDSEC
  0
SECTION
  2
OBJECTS
  0
DICTIONARY
  5
C
330
0
100
AcDbDictionary
  3
ACAD_GROUP
350
D
  3
ACAD_LAYOUT
350
1A
  3
ACAD_MATERIAL
350
3B
  3
ACAD_MLEADERSTYLE
350
B7
  3
ACAD_MLINESTYLE
350
17
  3
ACAD_PLOTSETTINGS
350
19
  3
ACAD_VISUALSTYLE
350
2A
  3
ACDBHEADERROUNDTRIPXREC
350
95
  3
ACDBVARIABLEDICTIONARY
350
B5
  0
DICTIONARY
  5
D
102
{ACAD_REACTORS
330
C
102
}
330
C
100
AcDbDictionary
  0
DICTIONARY
  5
1A
102
{ACAD_REACTORS
330
C
102
}
330
C
100
AcDbDictionary
  0
DICTIONARY
  5
3B
102
{ACAD_REACTORS
330
C
102
}
330
C
100
AcDbDictionary
  3
BYBLOCK
350
3D
  3
BYLAYER
350
3C
  3
GLOBAL
350
3E
  0
DICTIONARY
  5
B7
102
{ACAD_REACTORS
330
C
102
}
330
C
100
AcDbDictionary
  0
DICTIONARY
  5
17
102
{ACAD_REACTORS
330
C
102
}
330
C
100
AcDbDictionary
  3
STANDARD
350
18
  0
DICTIONARY
  5
19
102
{ACAD_REACTORS
330
C
102
}
330
C
100
AcDbDictionary
  0
DICTIONARY
  5
2A
102
{ACAD_REACTORS
330
C
102
}
330
C
100
AcDbDictionary
  3
2DWIREFRAME
350
2F
  3
3DWIREFRAME
350
30
  3
3D_HIDDEN
350
31
  3
BASIC
350
32
  3
BRIGHTEN
350
36
  3
COLORCHANGE
350
3A
  3
CONCEPTUAL
350
34
  3
DIM
350
35
  3
FACEPATTERN
350
39
  3
FLAT
350
2B
  3
FLATWITHEDGES
350
2C
  3
GOURAUD
350
2D
  3
GOURAUDWITHEDGES
350
2E
  3
LINEPATTERN
350
38
  3
REALISTIC
350
33
  3
THICKEN
350
37
  0
DICTIONARY
  5
95
102
{ACAD_REACTORS
330
C
102
}
330
C
100
AcDbDictionary
  3
CEPSNTYPE
350
9E
  3
DIMSTYLEDATA
350
B4
  3
FINGERPRINTGUID
350
9F
  3
HYPERLINKBASE
350
98
  3
INSUNITS
350
9D
  3
LAYOUTDICT
350
9A
  3
LWETCUNION
350
9C
  3
PLOTSETDICT
350
9B
  3
PSVPSCALE
350
A1
  3
PUCSBASE
350
A4
  3
PUCSORGBACK
350
AA
  3
PUCSORGBOTTOM
350
A6
  3
PUCSORGFRONT
350
A9
  3
PUCSORGLEFT
350
A7
  3
PUCSORGRIGHT
350
A8
  3
PUCSORGTOP
350
A5
  3
PUCSORTHOREF
350
A2
  3
PUCSORTHOVIEW
350
A3
  3
STYLESHEET
350
99
  3
TSTACKALIGN
350
96
  3
TSTACKSIZE
350
97
  3
UCSBASE
350
AD
  3
UCSORGBACK
350
B3
  3
UCSORGBOTTOM
350
AF
  3
UCSORGFRONT
350
B2
  3
UCSORGLEFT
350
B0
  3
UCSORGRIGHT
350
B1
  3
UCSORGTOP
350
AE
  3
UCSORTHOREF
350
AB
  3
UCSORTHOVIEW
350
AC
  3
VERSIONGUID
350
A0
  0
DICTIONARY
  5
B5
102
{ACAD_REACTORS
330
C
102
}
330
C
100
AcDbDictionary
  3
DIMASSOC
350
B8
  3
HIDETEXT
350
B9
  0
MATERIAL
  5
3D
102
{ACAD_REACTORS
330
3B
102
}
102
{ACAD_XDICTIONARY
360
BC
102
}
330
3B
100
AcDbMaterial
  1
ByBlock
  0
MATERIAL
  5
3C
102
{ACAD_REACTORS
330
3B
102
}
102
{ACAD_XDICTIONARY
360
BA
102
}
330
3B
100
AcDbMaterial
  1
ByLayer
  0
MATERIAL
  5
3E
102
{ACAD_REACTORS
330
3B
102
}
102
{ACAD_XDICTIONARY
360
BE
102
}
330
3B
100
AcDbMaterial
  1
Global
  0
MLINESTYLE
  5
18
102
{ACAD_REACTORS
330
17
102
}
330
17
100
AcDbMlineStyle
  2
Standard
 70
     0
  3

 62
   256
 51
90.0
 52
90.0
 71
     2
 49
0.5
 62
   256
  6
BYLAYER
 49
-0.5
 62
   256
  6
BYLAYER
  0
ACAD_PROXY_OBJECT
  5
2F
102
{ACAD_REACTORS
330
2A
102
}
330
2A
100
AcDbProxyObject
 90
      499
 91
      501
 93
      436
310
42CC9915DA5C99599C985B595049028333333333333E3BF0000000000000FB0107901411070040501600405405064090741402480A0340
1001
ACAD
1000
AcDbSavedByObjectVersion
1070
     0
  0
ACAD_PROXY_OBJECT
  5
30
102
{ACAD_REACTORS
330
2A
102
}
330
2A
100
AcDbProxyObject
 90
      499
 91
      501
 93
      436
310
42CCD915DA5C99599C985B595059028333333333333E3BF0000000000000FB0107901411070040501600405405064090741402480A0340
1001
ACAD
1000
AcDbSavedByObjectVersion
1070
     0
  0
ACAD_PROXY_OBJECT
  5
31
102
{ACAD_REACTORS
330
2A
102
}
330
2A
100
AcDbProxyObject
 90
      499
 91
      501
 93
      500
310
424CD108121A5919195B90640502408333333333333E3BF0000000000000FB01079024090700405020000000000001110200405405064090740C02480A0340
1001
ACAD
1000
AcDbSavedByObjectVersion
1070
     0
  0
ACAD_PROXY_OBJECT
  5
32
102
{ACAD_REACTORS
330
2A
102
}
330
2A
100
AcDbProxyObject
 90
      499
 91
      501
 93
      388
310
4150985CDA58D07406404333333333333E3BF0000000000000FB0107A41107004050150841D405064090741402480A0350
1001
ACAD
1000
AcDbSavedByObjectVersion
1070
     0
  0
ACAD_PROXY_OBJECT
  5
36
102
{ACAD_REACTORS
330
2A
102
}
330
2A
100
AcDbProxyObject
 90
      499
 91
      501
 93
      428
310
42109C9A59DA1D195B90C409028333333333333E3BF0000000000000FB010790141107004050150841D405064090741402480A029950
1001
ACAD
1000
AcDbSavedByObjectVersion
1070
     0
  0
ACAD_PROXY_OBJECT
  5
3A
102
{ACAD_REACTORS
330
2A
102
}
330
2A
100
AcDbProxyObject
 90
      499
 91
      501
 93
      452
310
42D0DBDB1BDC90DA185B99D95104090240C333333333333E3BF0000000000000FB0108901411070040501508421405064090741402480A0350
1001
ACAD
1000
AcDbSavedByObjectVersion
1070
     0
  0
ACAD_PROXY_OBJECT
  5
34
102
{ACAD_REACTORS
330
2A
102
}
330
2A
100
AcDbProxyObject
 90
      499
 91
      501
 93
      500
310
4290DBDB98D95C1D1D585B10940D028333333333333E3BF0000000000000FB0107902409070040501000000000000111010841D405064090740C02480A0340
1001
ACAD
1000
AcDbSavedByObjectVersion
1070
     0
  0
ACAD_PROXY_OBJECT
  5
35
102
{ACAD_REACTORS
330
2A
102
}
330
2A
100
AcDbProxyObject
 90
      499
 91
      501
 93
      412
310
40D11A5B50B409028333333333333E3BF0000000000000FB010790141107004050150841D405064090741402480A02677FFFFFD0
1001
ACAD
1000
AcDbSavedByObjectVersion
1070
     0
  0
ACAD_PROXY_OBJECT
  5
39
102
{ACAD_REACTORS
330
2A
102
}
330
2A
100
AcDbProxyObject
 90
      499
 91
      501
 93
      444
310
42D19858D95C185D1D195C9B90F409028333333333333E3BF0000000000000FB010790141107004050150841D405064090741402480A0350
1001
ACAD
1000
AcDbSavedByObjectVersion
1070
     0
  0
ACAD_PROXY_OBJECT
  5
2B
102
{ACAD_REACTORS
330
2A
102
}
330
2A
100
AcDbProxyObject
 90
      499
 91
      501
 93
      388
310
41119B185D240901404333333333333E3BF0000000000000F9010740A41107004050150841D405064090741402480A1B50
1001
ACAD
1000
AcDbSavedByObjectVersion
1070
     0
  0
ACAD_PROXY_OBJECT
  5
2C
102
{ACAD_REACTORS
330
2A
102
}
330
2A
100
AcDbProxyObject
 90
      499
 91
      501
 93
      476
310
43519B185D15DA5D1A115919D95CD0140901404333333333333E3BF0000000000000F9010740901411070040501600405405064090741402480A1B50
1001
ACAD
1000
AcDbSavedByObjectVersion
1070
     0
  0
ACAD_PROXY_OBJECT
  5
2D
102
{ACAD_REACTORS
330
2A
102
}
330
2A
100
AcDbProxyObject
 90
      499
 91
      501
 93
      412
310
41D1DBDD5C985D5910240902404333333333333E3BF0000000000000F9010740A411070040501641D405064090741402480A1B50
1001
ACAD
1000
AcDbSavedByObjectVersion
1070
     0
  0
ACAD_PROXY_OBJECT
  5
2E
102
{ACAD_REACTORS
330
2A
102
}
330
2A
100
AcDbProxyObject
 90
      499
 91
      501
 93
      500
310
4411DBDD5C985D5915DA5D1A115919D95CD0340902404333333333333E3BF0000000000000F9010740901411070040501600405405064090741402480A1B50
1001
ACAD
1000
AcDbSavedByObjectVersion
1070
     0
  0
ACAD_PROXY_OBJECT
  5
38
102
{ACAD_REACTORS
330
2A
102
}
330
2A
100
AcDbProxyObject
 90
      499
 91
      501
 93
      444
310
42D31A5B995C185D1D195C9B90E409028333333333333E3BF0000000000000FB010790141107004050750841D405064090741402483A0350
1001
ACAD
1000
AcDbSavedByObjectVersion
1070
     0
  0
ACAD_PROXY_OBJECT
  5
33
102
{ACAD_REACTORS
330
2A
102
}
330
2A
100
AcDbProxyObject
 90
      499
 91
      501
 93
      420
310
425499585B1A5CDD1A58D08409028333333333333E3BF0000000000000FB01079019070040501508421405064090741402480A1B40
1001
ACAD
1000
AcDbSavedByObjectVersion
1070
     0
  0
ACAD_PROXY_OBJECT
  5
37
102
{ACAD_REACTORS
330
2A
102
}
330
2A
100
AcDbProxyObject
 90
      499
 91
      501
 93
      412
310
41D51A1A58DAD95B90D409028333333333333E3BF0000000000000FB010790141107004050150C41D405064090741402480A0350
1001
ACAD
1000
AcDbSavedByObjectVersion
1070
     0
  0
XRECORD
  5
9E
102
{ACAD_REACTORS
330
95
102
}
330
95
100
AcDbXrecord
 90
        0
  0
XRECORD
  5
B4
102
{ACAD_REACTORS
330
95
102
}
330
95
100
AcDbXrecord
1000
DSTYLE
1002
{
1070
   340
340
11
1002
}
  0
XRECORD
  5
9F
102
{ACAD_REACTORS
330
95
102
}
330
95
100
AcDbXrecord
  1
{37FB61D5-57AD-F73A-03E9-F846FD39CB89}
  0
XRECORD
  5
98
102
{ACAD_REACTORS
330
95
102
}
330
95
100
AcDbXrecord
  1

  0
XRECORD
  5
9D
102
{ACAD_REACTORS
330
95
102
}
330
95
100
AcDbXrecord
 90
        1
  0
XRECORD
  5
9A
102
{ACAD_REACTORS
330
95
102
}
330
95
100
AcDbXrecord
340
1A
  0
XRECORD
  5
9C
102
{ACAD_REACTORS
330
95
102
}
330
95
100
AcDbXrecord
 90
    10269
  0
XRECORD
  5
9B
102
{ACAD_REACTORS
330
95
102
}
330
95
100
AcDbXrecord
340
19
  0
XRECORD
  5
A1
102
{ACAD_REACTORS
330
95
102
}
330
95
100
AcDbXrecord
 40
0.0
  0
XRECORD
  5
A4
102
{ACAD_REACTORS
330
95
102
}
330
95
100
AcDbXrecord
340
0
  0
XRECORD
  5
AA
102
{ACAD_REACTORS
330
95
102
}
330
95
100
AcDbXrecord
 10
0.0
 20
0.0
 30
0.0
  0
XRECORD
  5
A6
102
{ACAD_REACTORS
330
95
102
}
330
95
100
AcDbXrecord
 10
0.0
 20
0.0
 30
0.0
  0
XRECORD
  5
A9
102
{ACAD_REACTORS
330
95
102
}
330
95
100
AcDbXrecord
 10
0.0
 20
0.0
 30
0.0
  0
XRECORD
  5
A7
102
{ACAD_REACTORS
330
95
102
}
330
95
100
AcDbXrecord
 10
0.0
 20
0.0
 30
0.0
  0
XRECORD
  5
A8
102
{ACAD_REACTORS
330
95
102
}
330
95
100
AcDbXrecord
 10
0.0
 20
0.0
 30
0.0
  0
XRECORD
  5
A5
102
{ACAD_REACTORS
330
95
102
}
330
95
100
AcDbXrecord
 10
0.0
 20
0.0
 30
0.0
  0
XRECORD
  5
A2
102
{ACAD_REACTORS
330
95
102
}
330
95
100
AcDbXrecord
340
0
  0
XRECORD
  5
A3
102
{ACAD_REACTORS
330
95
102
}
330
95
100
AcDbXrecord
 70
     0
  0
XRECORD
  5
99
102
{ACAD_REACTORS
330
95
102
}
330
95
100
AcDbXrecord
  1

  0
XRECORD
  5
96
102
{ACAD_REACTORS
330
95
102
}
330
95
100
AcDbXrecord
 90
        1
  0
XRECORD
  5
97
102
{ACAD_REACTORS
330
95
102
}
330
95
100
AcDbXrecord
 90
       70
  0
XRECORD
  5
AD
102
{ACAD_REACTORS
330
95
102
}
330
95
100
AcDbXrecord
340
0
  0
XRECORD
  5
B3
102
{ACAD_REACTORS
330
95
102
}
330
95
100
AcDbXrecord
 10
0.0
 20
0.0
 30
0.0
  0
XRECORD
  5
AF
102
{ACAD_REACTORS
330
95
102
}
330
95
100
AcDbXrecord
 10
0.0
 20
0.0
 30
0.0
  0
XRECORD
  5
B2
102
{ACAD_REACTORS
330
95
102
}
330
95
100
AcDbXrecord
 10
0.0
 20
0.0
 30
0.0
  0
XRECORD
  5
B0
102
{ACAD_REACTORS
330
95
102
}
330
95
100
AcDbXrecord
 10
0.0
 20
0.0
 30
0.0
  0
XRECORD
  5
B1
102
{ACAD_REACTORS
330
95
102
}
330
95
100
AcDbXrecord
 10
0.0
 20
0.0
 30
0.0
  0
XRECORD
  5
AE
102
{ACAD_REACTORS
330
95
102
}
330
95
100
AcDbXrecord
 10
0.0
 20
0.0
 30
0.0
  0
XRECORD
  5
AB
102
{ACAD_REACTORS
330
95
102
}
330
95
100
AcDbXrecord
340
0
  0
XRECORD
  5
AC
102
{ACAD_REACTORS
330
95
102
}
330
95
100
AcDbXrecord
 70
     0
  0
XRECORD
  5
A0
102
{ACAD_REACTORS
330
95
102
}
330
95
100
AcDbXrecord
  1
{FAEB1C32-E019-11D5-929B-00C0DF256EC4}
  0
DICTIONARYVAR
  5
B8
102
{ACAD_REACTORS
330
B5
102
}
330
B5
100
DictionaryVariables
280
     0
  1
2
  0
DICTIONARYVAR
  5
B9
102
{ACAD_REACTORS
330
B5
102
}
330
B5
100
DictionaryVariables
280
     0
  1
1
  0
DICTIONARY
  5
BC
330
3D
100
AcDbDictionary
280
     1
  3
ACAD_XREC_ROUNDTRIP
360
BD
  0
DICTIONARY
  5
BA
330
3C
100
AcDbDictionary
280
     1
  3
ACAD_XREC_ROUNDTRIP
360
BB
  0
DICTIONARY
  5
BE
330
3E
100
AcDbDictionary
280
     1
  3
ACAD_XREC_ROUNDTRIP
360
BF
  0
XRECORD
  5
BD
102
{ACAD_REACTORS
330
BC
102
}
330
BC
100
AcDbXrecord
102
MATERIAL
148
0.0
149
0.0
149
0.0
 93
        0
 94
      127
282
     0
 72
     1
 77
     1
171
     1
175
     1
179
     1
273
     0
  0
XRECORD
  5
BB
102
{ACAD_REACTORS
330
BA
102
}
330
BA
100
AcDbXrecord
102
MATERIAL
148
0.0
149
0.0
149
0.0
 93
        0
 94
      127
282
     0
 72
     1
 77
     1
171
     1
175
     1
179
     1
273
     0
  0
XRECORD
  5
BF
102
{ACAD_REACTORS
330
BE
102
}
330
BE
100
AcDbXrecord
102
MATERIAL
148
0.0
149
0.0
149
0.0
 93
        0
 94
      127
282
     0
 72
     1
 77
     1
171
     1
175
     1
179
     1
273
     0
  0
ENDSEC
  0
EOF
