<?xml version="1.0" encoding="UTF-8" standalone="no"?>
<!-- Created with Inkscape (http://www.inkscape.org/) -->

<svg
   xmlns:dc="http://purl.org/dc/elements/1.1/"
   xmlns:cc="http://creativecommons.org/ns#"
   xmlns:rdf="http://www.w3.org/1999/02/22-rdf-syntax-ns#"
   xmlns:svg="http://www.w3.org/2000/svg"
   xmlns="http://www.w3.org/2000/svg"
   xmlns:sodipodi="http://sodipodi.sourceforge.net/DTD/sodipodi-0.dtd"
   xmlns:inkscape="http://www.inkscape.org/namespaces/inkscape"
   id="svg4164"
   version="1.1"
   inkscape:version="0.91 r13725"
   xml:space="preserve"
   width="219.6875"
   height="478.35001"
   viewBox="0 0 219.6875 478.35001"
   sodipodi:docname="iPhone6_case_interior.svg"><metadata
     id="metadata4170"><rdf:RDF><cc:Work
         rdf:about=""><dc:format>image/svg+xml</dc:format><dc:type
           rdf:resource="http://purl.org/dc/dcmitype/StillImage" /><dc:title></dc:title></cc:Work></rdf:RDF></metadata><defs
     id="defs4168"><clipPath
       clipPathUnits="userSpaceOnUse"
       id="clipPath4178"><path
         d="m 0,382.68 175.75,0 L 175.75,0 0,0 0,382.68 Z"
         id="path4180"
         inkscape:connector-curvature="0" /></clipPath></defs><sodipodi:namedview
     pagecolor="#ffffff"
     bordercolor="#666666"
     borderopacity="1"
     objecttolerance="10"
     gridtolerance="10"
     guidetolerance="10"
     inkscape:pageopacity="0"
     inkscape:pageshadow="2"
     inkscape:window-width="1360"
     inkscape:window-height="749"
     id="namedview4166"
     showgrid="false"
     inkscape:zoom="0.69772007"
     inkscape:cx="173.78445"
     inkscape:cy="239.21235"
     inkscape:window-x="1436"
     inkscape:window-y="-4"
     inkscape:window-maximized="1"
     inkscape:current-layer="g4172" /><g
     id="g4172"
     inkscape:groupmode="layer"
     inkscape:label="iPhone6_case_interior"
     transform="matrix(1.25,0,0,-1.25,0,478.35)"><path
       style="fill:none;stroke:#231f20;stroke-width:1.25;stroke-linecap:butt;stroke-linejoin:miter;stroke-miterlimit:10;stroke-dasharray:none;stroke-opacity:1"
       d="M 27.439453 2.5 C 13.631953 2.5 2.4394531 13.6925 2.4394531 27.5 L 2.4394531 184.62305 L 2.4414062 184.625 L 2.4414062 450.42383 C 2.4414062 464.23008 13.633906 475.42383 27.441406 475.42383 L 191.8125 475.42383 C 205.62 475.42383 216.8125 464.23008 216.8125 450.42383 L 216.8125 228.2793 L 216.81445 228.28125 L 216.81445 36.318359 C 216.81445 31.853359 215.73523 31.116953 214.89648 30.470703 C 214.27648 30.126953 212.13883 28.664688 209.51758 32.773438 C 204.81508 40.145938 196.56438 45.033203 187.17188 45.033203 L 146.51758 45.033203 C 131.88883 45.033203 119.97 33.707734 120.03125 16.802734 C 120.04375 13.445234 121.27328 9.8358594 122.48828 6.9121094 C 123.41953 4.6746094 121.89547 2.5003125 118.69922 2.5078125 L 112.44141 2.5078125 L 27.439453 2.5 z M 52.617188 217.23828 C 60.679688 217.23828 67.355469 223.17477 68.511719 230.91602 L 60.958984 230.91602 C 59.920234 227.28727 56.579688 224.63086 52.617188 224.63086 C 48.654688 224.63086 45.316094 227.28727 44.277344 230.91602 L 36.724609 230.91602 C 37.880859 223.17477 44.554688 217.23828 52.617188 217.23828 z M 90.175781 217.23828 C 98.238281 217.23828 104.91211 223.17477 106.06836 230.91602 L 98.515625 230.91602 C 97.476875 227.28727 94.138281 224.63086 90.175781 224.63086 C 86.213281 224.63086 82.872734 227.28727 81.833984 230.91602 L 74.28125 230.91602 C 75.4375 223.17477 82.113281 217.23828 90.175781 217.23828 z M 166.07812 218.43555 C 166.30266 218.43555 166.52672 218.5407 166.60547 218.75195 L 182.66016 260.05078 C 182.81891 260.36703 182.5543 260.68555 182.18555 260.68555 L 174.89648 260.68555 C 174.73898 260.68555 174.47438 260.57844 174.42188 260.36719 L 166.07812 236.81445 L 157.83984 260.36719 C 157.78734 260.57844 157.52375 260.68555 157.3125 260.68555 L 150.07812 260.68555 C 149.60188 260.68555 149.39008 260.36703 149.54883 260.05078 L 165.55078 218.75195 C 165.63016 218.5407 165.85359 218.43555 166.07812 218.43555 z M 111.80859 218.4375 L 118.2832 218.4375 C 118.3807 218.4375 118.67391 218.48945 118.72266 218.5957 L 136.68164 246.42578 L 136.68164 218.91211 C 136.68164 218.70086 136.92633 218.4375 137.26758 218.4375 L 143.54492 218.4375 C 143.88617 218.4375 144.08008 218.70086 144.08008 218.91211 L 144.08008 260.21094 C 144.08008 260.42219 143.88617 260.68555 143.54492 260.68555 L 137.12109 260.68555 C 137.02359 260.68555 136.73039 260.63359 136.68164 260.52734 L 118.77148 232.69531 L 118.77148 250.54492 L 111.32422 250.54492 L 111.32422 218.91211 C 111.32422 218.70086 111.56484 218.4375 111.80859 218.4375 z M 36.785156 236.05859 L 44.386719 236.05859 C 45.536719 239.50359 48.784688 241.98828 52.617188 241.98828 C 56.449688 241.98828 59.699609 239.50359 60.849609 236.05859 L 68.451172 236.05859 C 67.146172 243.62484 60.555937 249.38086 52.617188 249.38086 C 44.678438 249.38086 38.090156 243.62484 36.785156 236.05859 z M 74.341797 236.05859 L 81.943359 236.05859 C 83.093359 239.50359 86.343281 241.98828 90.175781 241.98828 C 94.008281 241.98828 97.25625 239.50359 98.40625 236.05859 L 106.00781 236.05859 C 104.70281 243.62484 98.114531 249.38086 90.175781 249.38086 C 82.237031 249.38086 75.646797 243.62484 74.341797 236.05859 z M 36.546875 252.42969 L 68.689453 252.42969 L 68.689453 260.68555 L 36.546875 260.68555 L 36.546875 252.42969 z M 74.103516 252.42969 L 106.24805 252.42969 L 106.24805 260.68555 L 74.103516 260.68555 L 74.103516 252.42969 z "
       transform="matrix(0.8,0,0,-0.8,0,382.68)"
       id="path4212" /></g></svg>