  0
SECTION
  2
HEADER
  9
$ACADVER
  1
AC1014
  9
$HANDSEED
  5
FFFF
  9
$MEASUREMENT
 70
     1
  0
ENDSEC
  0
SECTION
  2
TABLES
  0
TABLE
  2
VPORT
  5
8
330
0
100
AcDbSymbolTable
 70
     4
  0
VPORT
  5
2E
330
8
100
AcDbSymbolTableRecord
100
AcDbViewportTableRecord
  2
*ACTIVE
 70
     0
 10
0.0
 20
0.0
 11
1.0
 21
1.0
 12
210.0
 22
148.5
 13
0.0
 23
0.0
 14
10.0
 24
10.0
 15
10.0
 25
10.0
 16
0.0
 26
0.0
 36
1.0
 17
0.0
 27
0.0
 37
0.0
 40
341.0
 41
1.24
 42
50.0
 43
0.0
 44
0.0
 50
0.0
 51
0.0
 71
     0
 72
   100
 73
     1
 74
     3
 75
     0
 76
     0
 77
     0
 78
     0
  0
ENDTAB
  0
TABLE
  2
LTYPE
  5
5
330
0
100
AcDbSymbolTable
 70
     1
  0
LTYPE
  5
14
330
5
100
AcDbSymbolTableRecord
100
AcDbLinetypeTableRecord
  2
BYBLOCK
 70
     0
  3

 72
    65
 73
     0
 40
0.0
  0
LTYPE
  5
15
330
5
100
AcDbSymbolTableRecord
100
AcDbLinetypeTableRecord
  2
BYLAYER
 70
     0
  3

 72
    65
 73
     0
 40
0.0
  0
LTYPE
  5
16
330
5
100
AcDbSymbolTableRecord
100
AcDbLinetypeTableRecord
  2
CONTINUOUS
 70
     0
  3
Solid line
 72
    65
 73
     0
 40
0.0
  0
ENDTAB
  0
TABLE
  2
LAYER
  5
2
100
AcDbSymbolTable
 70
2
  0
LAYER
  5
50
100
AcDbSymbolTableRecord
100
AcDbLayerTableRecord
  2
0
 70
0
  6
CONTINUOUS
  0
LAYER
  5
51
100
AcDbSymbolTableRecord
100
AcDbLayerTableRecord
  2
iPhone6_case_interior
 70
0
  6
CONTINUOUS
  0
ENDTAB
  0
TABLE
  2
STYLE
  5
3
330
0
100
AcDbSymbolTable
 70
     1
  0
STYLE
  5
11
330
3
100
AcDbSymbolTableRecord
100
AcDbTextStyleTableRecord
  2
STANDARD
 70
     0
 40
0.0
 41
1.0
 50
0.0
 71
     0
 42
2.5
  3
txt
  4

  0
ENDTAB
  0
TABLE
  2
VIEW
  5
6
330
0
100
AcDbSymbolTable
 70
     0
  0
ENDTAB
  0
TABLE
  2
UCS
  5
7
330
0
100
AcDbSymbolTable
 70
     0
  0
ENDTAB
  0
TABLE
  2
APPID
  5
9
330
0
100
AcDbSymbolTable
 70
     2
  0
APPID
  5
12
330
9
100
AcDbSymbolTableRecord
100
AcDbRegAppTableRecord
  2
ACAD
 70
     0
  0
ENDTAB
  0
TABLE
  2
DIMSTYLE
  5
A
330
0
100
AcDbSymbolTable
 70
     1
  0
DIMSTYLE
105
27
330
A
100
AcDbSymbolTableRecord
100
AcDbDimStyleTableRecord
  2
ISO-25
 70
     0
  3

  4

  5

  6

  7

 40
1.0
 41
2.5
 42
0.625
 43
3.75
 44
1.25
 45
0.0
 46
0.0
 47
0.0
 48
0.0
140
2.5
141
2.5
142
0.0
143
0.03937007874016
144
1.0
145
0.0
146
1.0
147
0.625
 71
     0
 72
     0
 73
     0
 74
     0
 75
     0
 76
     0
 77
     1
 78
     8
170
     0
171
     3
172
     1
173
     0
174
     0
175
     0
176
     0
177
     0
178
     0
270
     2
271
     2
272
     2
273
     2
274
     3
340
11
275
     0
280
     0
281
     0
282
     0
283
     0
284
     8
285
     0
286
     0
287
     3
288
     0
  0
ENDTAB
  0
TABLE
  2
BLOCK_RECORD
  5
1
330
0
100
AcDbSymbolTable
 70
     1
  0
BLOCK_RECORD
  5
1F
330
1
100
AcDbSymbolTableRecord
100
AcDbBlockTableRecord
  2
*MODEL_SPACE
  0
BLOCK_RECORD
  5
1B
330
1
100
AcDbSymbolTableRecord
100
AcDbBlockTableRecord
  2
*PAPER_SPACE
  0
ENDTAB
  0
ENDSEC
  0
SECTION
  2
BLOCKS
  0
BLOCK
  5
20
330
1F
100
AcDbEntity
  8
0
100
AcDbBlockBegin
  2
*MODEL_SPACE
 70
     0
 10
0.0
 20
0.0
 30
0.0
  3
*MODEL_SPACE
  1

  0
ENDBLK
  5
21
330
1F
100
AcDbEntity
  8
0
100
AcDbBlockEnd
  0
BLOCK
  5
1C
330
1B
100
AcDbEntity
 67
     1
  8
0
100
AcDbBlockBegin
  2
*PAPER_SPACE
  1

  0
ENDBLK
  5
1D
330
1B
100
AcDbEntity
 67
     1
  8
0
100
AcDbBlockEnd
  0
ENDSEC
  0
SECTION
  2
ENTITIES
  0
SPLINE
  5
100
100
AcDbEntity
  8
iPhone6_case_interior
 62
1
100
AcDbSpline
 70
8
 71
3
 72
8
 73
4
 74
0
 40
0
 40
0
 40
0
 40
0
 40
1
 40
1
 40
1
 40
1
 10
7.744023
 20
134.295447
 30
0.0
 10
3.847240
 20
134.295447
 30
0.0
 10
0.688468
 20
131.136675
 30
0.0
 10
0.688468
 20
127.239892
 30
0.0
  0
SPLINE
  5
101
100
AcDbEntity
  8
iPhone6_case_interior
 62
1
100
AcDbSpline
 70
8
 71
3
 72
8
 73
4
 74
0
 40
0
 40
0
 40
0
 40
0
 40
1
 40
1
 40
1
 40
1
 10
0.689019
 20
7.881389
 30
0.0
 10
0.689019
 20
3.984958
 30
0.0
 10
3.847791
 20
0.825833
 30
0.0
 10
7.744575
 20
0.825833
 30
0.0
  0
LWPOLYLINE
  5
102
100
AcDbEntity
  8
iPhone6_case_interior
 62
1
100
AcDbPolyline
 90
4
 70
0
 10
0.688468
 20
127.239892
 30
0.0
 10
0.688468
 20
82.896275
 30
0.0
 10
0.689019
 20
82.895725
 30
0.0
 10
0.689019
 20
7.881389
 30
0.0
  0
SPLINE
  5
103
100
AcDbEntity
  8
iPhone6_case_interior
 62
1
100
AcDbSpline
 70
8
 71
3
 72
8
 73
4
 74
0
 40
0
 40
0
 40
0
 40
0
 40
1
 40
1
 40
1
 40
1
 10
54.133750
 20
0.825833
 30
0.0
 10
58.030533
 20
0.825833
 30
0.0
 10
61.189306
 20
3.984958
 30
0.0
 10
61.189306
 20
7.881389
 30
0.0
  0
LWPOLYLINE
  5
104
100
AcDbEntity
  8
iPhone6_case_interior
 62
1
100
AcDbPolyline
 90
2
 70
0
 10
7.744575
 20
0.825833
 30
0.0
 10
54.133750
 20
0.825833
 30
0.0
  0
SPLINE
  5
105
100
AcDbEntity
  8
iPhone6_case_interior
 62
1
100
AcDbSpline
 70
8
 71
3
 72
8
 73
4
 74
0
 40
0
 40
0
 40
0
 40
0
 40
1
 40
1
 40
1
 40
1
 10
61.189856
 20
124.751155
 30
0.0
 10
61.189856
 20
126.011277
 30
0.0
 10
60.885276
 20
126.219107
 30
0.0
 10
60.648562
 20
126.401493
 30
0.0
  0
SPLINE
  5
106
100
AcDbEntity
  8
iPhone6_case_interior
 62
1
100
AcDbSpline
 70
8
 71
3
 72
8
 73
4
 74
0
 40
0
 40
0
 40
0
 40
0
 40
1
 40
1
 40
1
 40
1
 10
60.648562
 20
126.401493
 30
0.0
 10
60.473584
 20
126.498507
 30
0.0
 10
59.870292
 20
126.911191
 30
0.0
 10
59.130517
 20
125.751610
 30
0.0
  0
SPLINE
  5
107
100
AcDbEntity
  8
iPhone6_case_interior
 62
1
100
AcDbSpline
 70
8
 71
3
 72
8
 73
4
 74
0
 40
0
 40
0
 40
0
 40
0
 40
1
 40
1
 40
1
 40
1
 10
59.130517
 20
125.751610
 30
0.0
 10
57.803367
 20
123.670927
 30
0.0
 10
55.474836
 20
122.291632
 30
0.0
 10
52.824064
 20
122.291632
 30
0.0
  0
LWPOLYLINE
  5
108
100
AcDbEntity
  8
iPhone6_case_interior
 62
1
100
AcDbPolyline
 90
4
 70
0
 10
61.189306
 20
7.881389
 30
0.0
 10
61.189306
 20
70.575511
 30
0.0
 10
61.189856
 20
70.574961
 30
0.0
 10
61.189856
 20
124.751155
 30
0.0
  0
SPLINE
  5
109
100
AcDbEntity
  8
iPhone6_case_interior
 62
1
100
AcDbSpline
 70
8
 71
3
 72
8
 73
4
 74
0
 40
0
 40
0
 40
0
 40
0
 40
1
 40
1
 40
1
 40
1
 10
41.350517
 20
122.291632
 30
0.0
 10
37.221959
 20
122.291632
 30
0.0
 10
33.858200
 20
125.487931
 30
0.0
 10
33.875486
 20
130.258898
 30
0.0
  0
SPLINE
  5
10a
100
AcDbEntity
  8
iPhone6_case_interior
 62
1
100
AcDbSpline
 70
8
 71
3
 72
8
 73
4
 74
0
 40
0
 40
0
 40
0
 40
0
 40
1
 40
1
 40
1
 40
1
 10
33.875486
 20
130.258898
 30
0.0
 10
33.879014
 20
131.206459
 30
0.0
 10
34.226015
 20
132.225105
 30
0.0
 10
34.568915
 20
133.050252
 30
0.0
  0
SPLINE
  5
10b
100
AcDbEntity
  8
iPhone6_case_interior
 62
1
100
AcDbSpline
 70
8
 71
3
 72
8
 73
4
 74
0
 40
0
 40
0
 40
0
 40
0
 40
1
 40
1
 40
1
 40
1
 10
34.568915
 20
133.050252
 30
0.0
 10
34.831734
 20
133.681724
 30
0.0
 10
34.401610
 20
134.295359
 30
0.0
 10
33.499558
 20
134.293242
 30
0.0
  0
LWPOLYLINE
  5
10c
100
AcDbEntity
  8
iPhone6_case_interior
 62
1
100
AcDbPolyline
 90
2
 70
0
 10
52.824064
 20
122.291632
 30
0.0
 10
41.350517
 20
122.291632
 30
0.0
  0
SPLINE
  5
10d
100
AcDbEntity
  8
iPhone6_case_interior
 62
1
100
AcDbSpline
 70
8
 71
3
 72
8
 73
4
 74
0
 40
0
 40
0
 40
0
 40
0
 40
1
 40
1
 40
1
 40
1
 10
14.849740
 20
73.691533
 30
0.0
 10
17.125156
 20
73.691533
 30
0.0
 10
19.009210
 20
72.016123
 30
0.0
 10
19.335530
 20
69.831371
 30
0.0
  0
LWPOLYLINE
  5
10e
100
AcDbEntity
  8
iPhone6_case_interior
 62
1
100
AcDbPolyline
 90
4
 70
0
 10
33.499558
 20
134.293242
 30
0.0
 10
31.733465
 20
134.293242
 30
0.0
 10
7.744023
 20
134.295447
 30
0.0
 10
7.744023
 20
134.295447
 30
0.0
  0
SPLINE
  5
10f
100
AcDbEntity
  8
iPhone6_case_interior
 62
1
100
AcDbSpline
 70
8
 71
3
 72
8
 73
4
 74
0
 40
0
 40
0
 40
0
 40
0
 40
1
 40
1
 40
1
 40
1
 10
17.203980
 20
69.831371
 30
0.0
 10
16.910822
 20
70.855484
 30
0.0
 10
15.968045
 20
71.605182
 30
0.0
 10
14.849740
 20
71.605182
 30
0.0
  0
SPLINE
  5
110
100
AcDbEntity
  8
iPhone6_case_interior
 62
1
100
AcDbSpline
 70
8
 71
3
 72
8
 73
4
 74
0
 40
0
 40
0
 40
0
 40
0
 40
1
 40
1
 40
1
 40
1
 10
14.849740
 20
71.605182
 30
0.0
 10
13.731434
 20
71.605182
 30
0.0
 10
12.789209
 20
70.855484
 30
0.0
 10
12.496050
 20
69.831371
 30
0.0
  0
LWPOLYLINE
  5
111
100
AcDbEntity
  8
iPhone6_case_interior
 62
1
100
AcDbPolyline
 90
2
 70
0
 10
19.335530
 20
69.831371
 30
0.0
 10
17.203980
 20
69.831371
 30
0.0
  0
SPLINE
  5
112
100
AcDbEntity
  8
iPhone6_case_interior
 62
1
100
AcDbSpline
 70
8
 71
3
 72
8
 73
4
 74
0
 40
0
 40
0
 40
0
 40
0
 40
1
 40
1
 40
1
 40
1
 10
10.364501
 20
69.831371
 30
0.0
 10
10.690820
 20
72.016123
 30
0.0
 10
12.574323
 20
73.691533
 30
0.0
 10
14.849740
 20
73.691533
 30
0.0
  0
LWPOLYLINE
  5
113
100
AcDbEntity
  8
iPhone6_case_interior
 62
1
100
AcDbPolyline
 90
2
 70
0
 10
12.496050
 20
69.831371
 30
0.0
 10
10.364501
 20
69.831371
 30
0.0
  0
SPLINE
  5
114
100
AcDbEntity
  8
iPhone6_case_interior
 62
1
100
AcDbSpline
 70
8
 71
3
 72
8
 73
4
 74
0
 40
0
 40
0
 40
0
 40
0
 40
1
 40
1
 40
1
 40
1
 10
25.449609
 20
73.691533
 30
0.0
 10
27.725026
 20
73.691533
 30
0.0
 10
29.608529
 20
72.016123
 30
0.0
 10
29.934848
 20
69.831371
 30
0.0
  0
LWPOLYLINE
  5
115
100
AcDbEntity
  8
iPhone6_case_interior
 62
1
100
AcDbPolyline
 90
2
 70
0
 10
14.849740
 20
73.691533
 30
0.0
 10
14.849740
 20
73.691533
 30
0.0
  0
SPLINE
  5
116
100
AcDbEntity
  8
iPhone6_case_interior
 62
1
100
AcDbSpline
 70
8
 71
3
 72
8
 73
4
 74
0
 40
0
 40
0
 40
0
 40
0
 40
1
 40
1
 40
1
 40
1
 10
27.803299
 20
69.831371
 30
0.0
 10
27.510140
 20
70.855484
 30
0.0
 10
26.567915
 20
71.605182
 30
0.0
 10
25.449609
 20
71.605182
 30
0.0
  0
SPLINE
  5
117
100
AcDbEntity
  8
iPhone6_case_interior
 62
1
100
AcDbSpline
 70
8
 71
3
 72
8
 73
4
 74
0
 40
0
 40
0
 40
0
 40
0
 40
1
 40
1
 40
1
 40
1
 10
25.449609
 20
71.605182
 30
0.0
 10
24.331304
 20
71.605182
 30
0.0
 10
23.388527
 20
70.855484
 30
0.0
 10
23.095369
 20
69.831371
 30
0.0
  0
LWPOLYLINE
  5
118
100
AcDbEntity
  8
iPhone6_case_interior
 62
1
100
AcDbPolyline
 90
2
 70
0
 10
29.934848
 20
69.831371
 30
0.0
 10
27.803299
 20
69.831371
 30
0.0
  0
SPLINE
  5
119
100
AcDbEntity
  8
iPhone6_case_interior
 62
1
100
AcDbSpline
 70
8
 71
3
 72
8
 73
4
 74
0
 40
0
 40
0
 40
0
 40
0
 40
1
 40
1
 40
1
 40
1
 10
20.963819
 20
69.831371
 30
0.0
 10
21.290139
 20
72.016123
 30
0.0
 10
23.174193
 20
73.691533
 30
0.0
 10
25.449609
 20
73.691533
 30
0.0
  0
LWPOLYLINE
  5
11a
100
AcDbEntity
  8
iPhone6_case_interior
 62
1
100
AcDbPolyline
 90
2
 70
0
 10
23.095369
 20
69.831371
 30
0.0
 10
20.963819
 20
69.831371
 30
0.0
  0
SPLINE
  5
11b
100
AcDbEntity
  8
iPhone6_case_interior
 62
1
100
AcDbSpline
 70
8
 71
3
 72
8
 73
4
 74
0
 40
0
 40
0
 40
0
 40
0
 40
1
 40
1
 40
1
 40
1
 10
46.870936
 20
73.353636
 30
0.0
 10
46.934306
 20
73.353636
 30
0.0
 10
46.997541
 20
73.323961
 30
0.0
 10
47.019766
 20
73.264341
 30
0.0
  0
LWPOLYLINE
  5
11c
100
AcDbEntity
  8
iPhone6_case_interior
 62
1
100
AcDbPolyline
 90
2
 70
0
 10
25.449609
 20
73.691533
 30
0.0
 10
25.449609
 20
73.691533
 30
0.0
  0
SPLINE
  5
11d
100
AcDbEntity
  8
iPhone6_case_interior
 62
1
100
AcDbSpline
 70
8
 71
3
 72
8
 73
4
 74
0
 40
0
 40
0
 40
0
 40
0
 40
1
 40
1
 40
1
 40
1
 10
51.550756
 20
61.608894
 30
0.0
 10
51.595559
 20
61.519641
 30
0.0
 10
51.520880
 20
61.429748
 30
0.0
 10
51.416811
 20
61.429748
 30
0.0
  0
LWPOLYLINE
  5
11e
100
AcDbEntity
  8
iPhone6_case_interior
 62
1
100
AcDbPolyline
 90
2
 70
0
 10
47.019766
 20
73.264341
 30
0.0
 10
51.550756
 20
61.608894
 30
0.0
  0
SPLINE
  5
11f
100
AcDbEntity
  8
iPhone6_case_interior
 62
1
100
AcDbSpline
 70
8
 71
3
 72
8
 73
4
 74
0
 40
0
 40
0
 40
0
 40
0
 40
1
 40
1
 40
1
 40
1
 10
49.359673
 20
61.429748
 30
0.0
 10
49.315223
 20
61.429748
 30
0.0
 10
49.240547
 20
61.459976
 30
0.0
 10
49.225731
 20
61.519596
 30
0.0
  0
LWPOLYLINE
  5
120
100
AcDbEntity
  8
iPhone6_case_interior
 62
1
100
AcDbPolyline
 90
2
 70
0
 10
51.416811
 20
61.429748
 30
0.0
 10
49.359673
 20
61.429748
 30
0.0
  0
SPLINE
  5
121
100
AcDbEntity
  8
iPhone6_case_interior
 62
1
100
AcDbSpline
 70
8
 71
3
 72
8
 73
4
 74
0
 40
0
 40
0
 40
0
 40
0
 40
1
 40
1
 40
1
 40
1
 10
44.545910
 20
61.519596
 30
0.0
 10
44.531094
 20
61.459976
 30
0.0
 10
44.456703
 20
61.429748
 30
0.0
 10
44.397083
 20
61.429748
 30
0.0
  0
LWPOLYLINE
  5
122
100
AcDbEntity
  8
iPhone6_case_interior
 62
1
100
AcDbPolyline
 90
3
 70
0
 10
49.225731
 20
61.519596
 30
0.0
 10
46.870936
 20
68.166702
 30
0.0
 10
44.545910
 20
61.519596
 30
0.0
  0
SPLINE
  5
123
100
AcDbEntity
  8
iPhone6_case_interior
 62
1
100
AcDbSpline
 70
8
 71
3
 72
8
 73
4
 74
0
 40
0
 40
0
 40
0
 40
0
 40
1
 40
1
 40
1
 40
1
 10
42.355381
 20
61.429748
 30
0.0
 10
42.220975
 20
61.429748
 30
0.0
 10
42.161200
 20
61.519641
 30
0.0
 10
42.206003
 20
61.608894
 30
0.0
  0
LWPOLYLINE
  5
124
100
AcDbEntity
  8
iPhone6_case_interior
 62
1
100
AcDbPolyline
 90
2
 70
0
 10
44.397083
 20
61.429748
 30
0.0
 10
42.355381
 20
61.429748
 30
0.0
  0
SPLINE
  5
125
100
AcDbEntity
  8
iPhone6_case_interior
 62
1
100
AcDbSpline
 70
8
 71
3
 72
8
 73
4
 74
0
 40
0
 40
0
 40
0
 40
0
 40
1
 40
1
 40
1
 40
1
 10
46.722109
 20
73.264341
 30
0.0
 10
46.744512
 20
73.323961
 30
0.0
 10
46.807569
 20
73.353636
 30
0.0
 10
46.870936
 20
73.353636
 30
0.0
  0
LWPOLYLINE
  5
126
100
AcDbEntity
  8
iPhone6_case_interior
 62
1
100
AcDbPolyline
 90
2
 70
0
 10
42.206003
 20
61.608894
 30
0.0
 10
46.722109
 20
73.264341
 30
0.0
  0
LWPOLYLINE
  5
127
100
AcDbEntity
  8
iPhone6_case_interior
 62
1
100
AcDbPolyline
 90
2
 70
0
 10
46.870936
 20
73.353636
 30
0.0
 10
46.870936
 20
73.353636
 30
0.0
  0
SPLINE
  5
128
100
AcDbEntity
  8
iPhone6_case_interior
 62
1
100
AcDbSpline
 70
8
 71
3
 72
8
 73
4
 74
0
 40
0
 40
0
 40
0
 40
0
 40
1
 40
1
 40
1
 40
1
 10
33.382148
 20
73.353086
 30
0.0
 10
33.409664
 20
73.353086
 30
0.0
 10
33.492415
 20
73.338425
 30
0.0
 10
33.506173
 20
73.308439
 30
0.0
  0
LWPOLYLINE
  5
129
100
AcDbEntity
  8
iPhone6_case_interior
 62
1
100
AcDbPolyline
 90
2
 70
0
 10
31.554869
 20
73.353086
 30
0.0
 10
33.382148
 20
73.353086
 30
0.0
  0
SPLINE
  5
12a
100
AcDbEntity
  8
iPhone6_case_interior
 62
1
100
AcDbSpline
 70
8
 71
3
 72
8
 73
4
 74
0
 40
0
 40
0
 40
0
 40
0
 40
1
 40
1
 40
1
 40
1
 10
38.574596
 20
73.219141
 30
0.0
 10
38.574596
 20
73.278760
 30
0.0
 10
38.643653
 20
73.353086
 30
0.0
 10
38.739961
 20
73.353086
 30
0.0
  0
LWPOLYLINE
  5
12b
100
AcDbEntity
  8
iPhone6_case_interior
 62
1
100
AcDbPolyline
 90
3
 70
0
 10
33.506173
 20
73.308439
 30
0.0
 10
38.574596
 20
65.454172
 30
0.0
 10
38.574596
 20
73.219141
 30
0.0
  0
SPLINE
  5
12c
100
AcDbEntity
  8
iPhone6_case_interior
 62
1
100
AcDbSpline
 70
8
 71
3
 72
8
 73
4
 74
0
 40
0
 40
0
 40
0
 40
0
 40
1
 40
1
 40
1
 40
1
 10
40.511566
 20
73.353086
 30
0.0
 10
40.607875
 20
73.353086
 30
0.0
 10
40.662600
 20
73.278760
 30
0.0
 10
40.662600
 20
73.219141
 30
0.0
  0
LWPOLYLINE
  5
12d
100
AcDbEntity
  8
iPhone6_case_interior
 62
1
100
AcDbPolyline
 90
2
 70
0
 10
38.739961
 20
73.353086
 30
0.0
 10
40.511566
 20
73.353086
 30
0.0
  0
SPLINE
  5
12e
100
AcDbEntity
  8
iPhone6_case_interior
 62
1
100
AcDbSpline
 70
8
 71
3
 72
8
 73
4
 74
0
 40
0
 40
0
 40
0
 40
0
 40
1
 40
1
 40
1
 40
1
 10
40.662600
 20
61.563693
 30
0.0
 10
40.662600
 20
61.504074
 30
0.0
 10
40.607875
 20
61.429748
 30
0.0
 10
40.511566
 20
61.429748
 30
0.0
  0
LWPOLYLINE
  5
12f
100
AcDbEntity
  8
iPhone6_case_interior
 62
1
100
AcDbPolyline
 90
2
 70
0
 10
40.662600
 20
73.219141
 30
0.0
 10
40.662600
 20
61.563693
 30
0.0
  0
SPLINE
  5
130
100
AcDbEntity
  8
iPhone6_case_interior
 62
1
100
AcDbSpline
 70
8
 71
3
 72
8
 73
4
 74
0
 40
0
 40
0
 40
0
 40
0
 40
1
 40
1
 40
1
 40
1
 10
38.698619
 20
61.429748
 30
0.0
 10
38.671102
 20
61.429748
 30
0.0
 10
38.588355
 20
61.444412
 30
0.0
 10
38.574596
 20
61.474398
 30
0.0
  0
LWPOLYLINE
  5
131
100
AcDbEntity
  8
iPhone6_case_interior
 62
1
100
AcDbPolyline
 90
2
 70
0
 10
40.511566
 20
61.429748
 30
0.0
 10
38.698619
 20
61.429748
 30
0.0
  0
SPLINE
  5
132
100
AcDbEntity
  8
iPhone6_case_interior
 62
1
100
AcDbSpline
 70
8
 71
3
 72
8
 73
4
 74
0
 40
0
 40
0
 40
0
 40
0
 40
1
 40
1
 40
1
 40
1
 10
31.418169
 20
73.219141
 30
0.0
 10
31.418169
 20
73.278760
 30
0.0
 10
31.486077
 20
73.353086
 30
0.0
 10
31.554869
 20
73.353086
 30
0.0
  0
LWPOLYLINE
  5
133
100
AcDbEntity
  8
iPhone6_case_interior
 62
1
100
AcDbPolyline
 90
5
 70
0
 10
38.574596
 20
61.474398
 30
0.0
 10
33.519951
 20
69.329215
 30
0.0
 10
33.519951
 20
64.291659
 30
0.0
 10
31.418169
 20
64.291659
 30
0.0
 10
31.418169
 20
73.219141
 30
0.0
  0
LWPOLYLINE
  5
134
100
AcDbEntity
  8
iPhone6_case_interior
 62
1
100
AcDbPolyline
 90
2
 70
0
 10
31.554869
 20
73.353086
 30
0.0
 10
31.554869
 20
73.353086
 30
0.0
  0
SPLINE
  5
135
100
AcDbEntity
  8
iPhone6_case_interior
 62
1
100
AcDbSpline
 70
8
 71
3
 72
8
 73
4
 74
0
 40
0
 40
0
 40
0
 40
0
 40
1
 40
1
 40
1
 40
1
 10
12.526918
 20
68.380023
 30
0.0
 10
12.851474
 20
67.407767
 30
0.0
 10
13.768123
 20
66.706533
 30
0.0
 10
14.849740
 20
66.706533
 30
0.0
  0
SPLINE
  5
136
100
AcDbEntity
  8
iPhone6_case_interior
 62
1
100
AcDbSpline
 70
8
 71
3
 72
8
 73
4
 74
0
 40
0
 40
0
 40
0
 40
0
 40
1
 40
1
 40
1
 40
1
 10
14.849740
 20
66.706533
 30
0.0
 10
15.931356
 20
66.706533
 30
0.0
 10
16.848556
 20
67.407767
 30
0.0
 10
17.173112
 20
68.380023
 30
0.0
  0
LWPOLYLINE
  5
137
100
AcDbEntity
  8
iPhone6_case_interior
 62
1
100
AcDbPolyline
 90
2
 70
0
 10
10.381588
 20
68.380023
 30
0.0
 10
12.526918
 20
68.380023
 30
0.0
  0
SPLINE
  5
138
100
AcDbEntity
  8
iPhone6_case_interior
 62
1
100
AcDbSpline
 70
8
 71
3
 72
8
 73
4
 74
0
 40
0
 40
0
 40
0
 40
0
 40
1
 40
1
 40
1
 40
1
 10
19.318442
 20
68.380023
 30
0.0
 10
18.950142
 20
66.244659
 30
0.0
 10
17.090231
 20
64.620182
 30
0.0
 10
14.849740
 20
64.620182
 30
0.0
  0
SPLINE
  5
139
100
AcDbEntity
  8
iPhone6_case_interior
 62
1
100
AcDbSpline
 70
8
 71
3
 72
8
 73
4
 74
0
 40
0
 40
0
 40
0
 40
0
 40
1
 40
1
 40
1
 40
1
 10
14.849740
 20
64.620182
 30
0.0
 10
12.609248
 20
64.620182
 30
0.0
 10
10.749888
 20
66.244659
 30
0.0
 10
10.381588
 20
68.380023
 30
0.0
  0
LWPOLYLINE
  5
13a
100
AcDbEntity
  8
iPhone6_case_interior
 62
1
100
AcDbPolyline
 90
2
 70
0
 10
17.173112
 20
68.380023
 30
0.0
 10
19.318442
 20
68.380023
 30
0.0
  0
LWPOLYLINE
  5
13b
100
AcDbEntity
  8
iPhone6_case_interior
 62
1
100
AcDbPolyline
 90
2
 70
0
 10
10.381588
 20
68.380023
 30
0.0
 10
10.381588
 20
68.380023
 30
0.0
  0
SPLINE
  5
13c
100
AcDbEntity
  8
iPhone6_case_interior
 62
1
100
AcDbSpline
 70
8
 71
3
 72
8
 73
4
 74
0
 40
0
 40
0
 40
0
 40
0
 40
1
 40
1
 40
1
 40
1
 10
23.126237
 20
68.380023
 30
0.0
 10
23.450792
 20
67.407767
 30
0.0
 10
24.367993
 20
66.706533
 30
0.0
 10
25.449609
 20
66.706533
 30
0.0
  0
SPLINE
  5
13d
100
AcDbEntity
  8
iPhone6_case_interior
 62
1
100
AcDbSpline
 70
8
 71
3
 72
8
 73
4
 74
0
 40
0
 40
0
 40
0
 40
0
 40
1
 40
1
 40
1
 40
1
 10
25.449609
 20
66.706533
 30
0.0
 10
26.531226
 20
66.706533
 30
0.0
 10
27.447875
 20
67.407767
 30
0.0
 10
27.772431
 20
68.380023
 30
0.0
  0
LWPOLYLINE
  5
13e
100
AcDbEntity
  8
iPhone6_case_interior
 62
1
100
AcDbPolyline
 90
2
 70
0
 10
20.980907
 20
68.380023
 30
0.0
 10
23.126237
 20
68.380023
 30
0.0
  0
SPLINE
  5
13f
100
AcDbEntity
  8
iPhone6_case_interior
 62
1
100
AcDbSpline
 70
8
 71
3
 72
8
 73
4
 74
0
 40
0
 40
0
 40
0
 40
0
 40
1
 40
1
 40
1
 40
1
 10
29.917760
 20
68.380023
 30
0.0
 10
29.549460
 20
66.244659
 30
0.0
 10
27.690101
 20
64.620182
 30
0.0
 10
25.449609
 20
64.620182
 30
0.0
  0
SPLINE
  5
140
100
AcDbEntity
  8
iPhone6_case_interior
 62
1
100
AcDbSpline
 70
8
 71
3
 72
8
 73
4
 74
0
 40
0
 40
0
 40
0
 40
0
 40
1
 40
1
 40
1
 40
1
 10
25.449609
 20
64.620182
 30
0.0
 10
23.209118
 20
64.620182
 30
0.0
 10
21.349207
 20
66.244659
 30
0.0
 10
20.980907
 20
68.380023
 30
0.0
  0
LWPOLYLINE
  5
141
100
AcDbEntity
  8
iPhone6_case_interior
 62
1
100
AcDbPolyline
 90
2
 70
0
 10
27.772431
 20
68.380023
 30
0.0
 10
29.917760
 20
68.380023
 30
0.0
  0
LWPOLYLINE
  5
142
100
AcDbEntity
  8
iPhone6_case_interior
 62
1
100
AcDbPolyline
 90
2
 70
0
 10
20.980907
 20
68.380023
 30
0.0
 10
20.980907
 20
68.380023
 30
0.0
  0
LWPOLYLINE
  5
143
100
AcDbEntity
  8
iPhone6_case_interior
 62
1
100
AcDbPolyline
 90
6
 70
0
 10
10.314340
 20
63.759735
 30
0.0
 10
19.385690
 20
63.759735
 30
0.0
 10
19.385690
 20
61.429748
 30
0.0
 10
10.314340
 20
61.429748
 30
0.0
 10
10.314340
 20
63.759735
 30
0.0
 10
10.314340
 20
63.759735
 30
0.0
  0
LWPOLYLINE
  5
144
100
AcDbEntity
  8
iPhone6_case_interior
 62
1
100
AcDbPolyline
 90
6
 70
0
 10
20.913659
 20
63.759735
 30
0.0
 10
29.985561
 20
63.759735
 30
0.0
 10
29.985561
 20
61.429748
 30
0.0
 10
20.913659
 20
61.429748
 30
0.0
 10
20.913659
 20
63.759735
 30
0.0
 10
20.913659
 20
63.759735
 30
0.0
  0
ENDSEC
  0
SECTION
  2
OBJECTS
  0
DICTIONARY
  5
C
330
0
100
AcDbDictionary
  3
ACAD_GROUP
350
D
  3
ACAD_MLINESTYLE
350
17
  0
DICTIONARY
  5
D
330
C
100
AcDbDictionary
  0
DICTIONARY
  5
1A
330
C
100
AcDbDictionary
  0
DICTIONARY
  5
17
330
C
100
AcDbDictionary
  3
STANDARD
350
18
  0
DICTIONARY
  5
19
330
C
100
AcDbDictionary
  0
ENDSEC
  0
EOF
