  0
SECTION
  2
HEADER
  9
$ACADVER
  1
AC1014
  9
$ACADMAINTVER
 70
     9
  9
$DWGCODEPAGE
  3
UNDEFINED
  9
$INSBASE
 10
0.0
 20
0.0
 30
0.0
  9
$EXTMIN
 10
1.000000000000000E+20
 20
1.000000000000000E+20
 30
1.000000000000000E+20
  9
$EXTMAX
 10
-1.000000000000000E+20
 20
-1.000000000000000E+20
 30
-1.000000000000000E+20
  9
$LIMMIN
 10
0.0
 20
0.0
  9
$LIMMAX
 10
12.0
 20
9.0
  9
$ORTHOMODE
 70
     0
  9
$REGENMODE
 70
     1
  9
$FILLMODE
 70
     1
  9
$QTEXTMODE
 70
     0
  9
$MIRRTEXT
 70
     1
  9
$DRAGMODE
 70
     2
  9
$LTSCALE
 40
1.0
  9
$OSMODE
 70
    37
  9
$ATTMODE
 70
     1
  9
$TEXTSIZE
 40
0.2
  9
$TRACEWID
 40
0.05
  9
$TEXTSTYLE
  7
STANDARD
  9
$CLAYER
  8
0
  9
$CELTYPE
  6
BYLAYER
  9
$CECOLOR
 62
   256
  9
$CELTSCALE
 40
1.0
  9
$DELOBJ
 70
     1
  9
$DISPSILH
 70
     0
  9
$DIMSCALE
 40
1.0
  9
$DIMASZ
 40
0.18
  9
$DIMEXO
 40
0.0625
  9
$DIMDLI
 40
0.38
  9
$DIMRND
 40
0.0
  9
$DIMDLE
 40
0.0
  9
$DIMEXE
 40
0.18
  9
$DIMTP
 40
0.0
  9
$DIMTM
 40
0.0
  9
$DIMTXT
 40
0.18
  9
$DIMCEN
 40
0.09
  9
$DIMTSZ
 40
0.0
  9
$DIMTOL
 70
     0
  9
$DIMLIM
 70
     0
  9
$DIMTIH
 70
     1
  9
$DIMTOH
 70
     1
  9
$DIMSE1
 70
     0
  9
$DIMSE2
 70
     0
  9
$DIMTAD
 70
     0
  9
$DIMZIN
 70
     0
  9
$DIMBLK
  1

  9
$DIMASO
 70
     1
  9
$DIMSHO
 70
     1
  9
$DIMPOST
  1

  9
$DIMAPOST
  1

  9
$DIMALT
 70
     0
  9
$DIMALTD
 70
     2
  9
$DIMALTF
 40
25.4
  9
$DIMLFAC
 40
1.0
  9
$DIMTOFL
 70
     0
  9
$DIMTVP
 40
0.0
  9
$DIMTIX
 70
     0
  9
$DIMSOXD
 70
     0
  9
$DIMSAH
 70
     0
  9
$DIMBLK1
  1

  9
$DIMBLK2
  1

  9
$DIMSTYLE
  2
STANDARD
  9
$DIMCLRD
 70
     0
  9
$DIMCLRE
 70
     0
  9
$DIMCLRT
 70
     0
  9
$DIMTFAC
 40
1.0
  9
$DIMGAP
 40
0.09
  9
$DIMJUST
 70
     0
  9
$DIMSD1
 70
     0
  9
$DIMSD2
 70
     0
  9
$DIMTOLJ
 70
     1
  9
$DIMTZIN
 70
     0
  9
$DIMALTZ
 70
     0
  9
$DIMALTTZ
 70
     0
  9
$DIMFIT
 70
     3
  9
$DIMUPT
 70
     0
  9
$DIMUNIT
 70
     2
  9
$DIMDEC
 70
     4
  9
$DIMTDEC
 70
     4
  9
$DIMALTU
 70
     2
  9
$DIMALTTD
 70
     2
  9
$DIMTXSTY
  7
STANDARD
  9
$DIMAUNIT
 70
     0
  9
$LUNITS
 70
     2
  9
$LUPREC
 70
     4
  9
$SKETCHINC
 40
0.1
  9
$FILLETRAD
 40
0.5
  9
$AUNITS
 70
     0
  9
$AUPREC
 70
     0
  9
$MENU
  1
.
  9
$ELEVATION
 40
0.0
  9
$PELEVATION
 40
0.0
  9
$THICKNESS
 40
0.0
  9
$LIMCHECK
 70
     0
  9
$CHAMFERA
 40
0.5
  9
$CHAMFERB
 40
0.5
  9
$CHAMFERC
 40
1.0
  9
$CHAMFERD
 40
0.0
  9
$SKPOLY
 70
     0
  9
$TDCREATE
 40
2457721.056805556
  9
$TDUPDATE
 40
2457721.056805556
  9
$TDINDWG
 40
0.0000000116
  9
$TDUSRTIMER
 40
0.0000000116
  9
$USRTIMER
 70
     1
  9
$ANGBASE
 50
0.0
  9
$ANGDIR
 70
     0
  9
$PDMODE
 70
     0
  9
$PDSIZE
 40
0.0
  9
$PLINEWID
 40
0.0
  9
$COORDS
 70
     1
  9
$SPLFRAME
 70
     0
  9
$SPLINETYPE
 70
     6
  9
$SPLINESEGS
 70
     8
  9
$ATTDIA
 70
     0
  9
$ATTREQ
 70
     1
  9
$HANDLING
 70
     1
  9
$HANDSEED
  5
7F
  9
$SURFTAB1
 70
     6
  9
$SURFTAB2
 70
     6
  9
$SURFTYPE
 70
     6
  9
$SURFU
 70
     6
  9
$SURFV
 70
     6
  9
$UCSNAME
  2

  9
$UCSORG
 10
0.0
 20
0.0
 30
0.0
  9
$UCSXDIR
 10
1.0
 20
0.0
 30
0.0
  9
$UCSYDIR
 10
0.0
 20
1.0
 30
0.0
  9
$PUCSNAME
  2

  9
$PUCSORG
 10
0.0
 20
0.0
 30
0.0
  9
$PUCSXDIR
 10
1.0
 20
0.0
 30
0.0
  9
$PUCSYDIR
 10
0.0
 20
1.0
 30
0.0
  9
$USERI1
 70
     0
  9
$USERI2
 70
     0
  9
$USERI3
 70
     0
  9
$USERI4
 70
     0
  9
$USERI5
 70
     0
  9
$USERR1
 40
0.0
  9
$USERR2
 40
0.0
  9
$USERR3
 40
0.0
  9
$USERR4
 40
0.0
  9
$USERR5
 40
0.0
  9
$WORLDVIEW
 70
     1
  9
$SHADEDGE
 70
     3
  9
$SHADEDIF
 70
    70
  9
$TILEMODE
 70
     1
  9
$MAXACTVP
 70
    64
  9
$PINSBASE
 10
0.0
 20
0.0
 30
0.0
  9
$PLIMCHECK
 70
     0
  9
$PEXTMIN
 10
1.000000000000000E+20
 20
1.000000000000000E+20
 30
1.000000000000000E+20
  9
$PEXTMAX
 10
-1.000000000000000E+20
 20
-1.000000000000000E+20
 30
-1.000000000000000E+20
  9
$PLIMMIN
 10
0.0
 20
0.0
  9
$PLIMMAX
 10
12.0
 20
9.0
  9
$UNITMODE
 70
     0
  9
$VISRETAIN
 70
     1
  9
$PLINEGEN
 70
     0
  9
$PSLTSCALE
 70
     1
  9
$TREEDEPTH
 70
  3020
  9
$PICKSTYLE
 70
     1
  9
$CMLSTYLE
  2
STANDARD
  9
$CMLJUST
 70
     0
  9
$CMLSCALE
 40
1.0
  9
$PROXYGRAPHICS
 70
     1
  9
$MEASUREMENT
 70
     0
  0
ENDSEC
  0
SECTION
  2
CLASSES
  0
CLASS
  1
ACDBDICTIONARYWDFLT
  2
AcDbDictionaryWithDefault
  3
ObjectDBX Classes
 90
        0
280
     0
281
     0
  0
CLASS
  1
VISUALSTYLE
  2
AcDbVisualStyle
  3
ObjectDBX Classes
 90
     4095
280
     0
281
     0
  0
CLASS
  1
MATERIAL
  2
AcDbMaterial
  3
ObjectDBX Classes
 90
     1153
280
     0
281
     0
  0
CLASS
  1
SUN
  2
AcDbSun
  3
SCENEOE
 90
     1024
280
     0
281
     0
  0
CLASS
  1
DICTIONARYVAR
  2
AcDbDictionaryVar
  3
ObjectDBX Classes
 90
        0
280
     0
281
     0
  0
CLASS
  1
XRECORD
  2
AcDbXrecord
  3
AutoCAD 2000
 90
        0
280
     0
281
     0
  0
CLASS
  1
LWPOLYLINE
  2
AcDbPolyline
  3
AutoCAD 2000
 90
        0
280
     0
281
     1
  0
CLASS
  1
HATCH
  2
AcDbHatch
  3
AutoCAD 2000
 90
        0
280
     0
281
     1
  0
CLASS
  1
ACDBPLACEHOLDER
  2
AcDbPlaceHolder
  3
ObjectDBX Classes
 90
        0
280
     0
281
     0
  0
CLASS
  1
LAYOUT
  2
AcDbLayout
  3
ObjectDBX Classes
 90
        0
280
     0
281
     0
  0
ENDSEC
  0
SECTION
  2
TABLES
  0
TABLE
  2
VPORT
  5
8
330
0
100
AcDbSymbolTable
 70
     1
  0
VPORT
  5
29
330
8
100
AcDbSymbolTableRecord
100
AcDbViewportTableRecord
  2
*ACTIVE
 70
     0
 10
0.0
 20
0.0
 11
1.0
 21
1.0
 12
0.0
 22
0.0
 13
0.0
 23
0.0
 14
0.5
 24
0.5
 15
0.5
 25
0.5
 16
0.0
 26
0.0
 36
1.0
 17
45.00033332208339
 27
-30.00022221472215
 37
0.0
 40
60.00044442944431
 41
1.500000000000005
 42
50.0
 43
0.0
 44
0.0
 50
0.0
 51
0.0
 71
     0
 72
   100
 73
     1
 74
     3
 75
     0
 76
     0
 77
     0
 78
     0
  0
ENDTAB
  0
TABLE
  2
LTYPE
  5
5
330
0
100
AcDbSymbolTable
 70
     1
  0
LTYPE
  5
14
330
5
100
AcDbSymbolTableRecord
100
AcDbLinetypeTableRecord
  2
BYBLOCK
 70
     0
  3

 72
    65
 73
     0
 40
0.0
  0
LTYPE
  5
15
330
5
100
AcDbSymbolTableRecord
100
AcDbLinetypeTableRecord
  2
BYLAYER
 70
     0
  3

 72
    65
 73
     0
 40
0.0
  0
LTYPE
  5
16
330
5
100
AcDbSymbolTableRecord
100
AcDbLinetypeTableRecord
  2
CONTINUOUS
 70
     0
  3
Solid line
 72
    65
 73
     0
 40
0.0
  0
ENDTAB
  0
TABLE
  2
LAYER
  5
2
330
0
100
AcDbSymbolTable
 70
     2
  0
LAYER
  5
10
330
2
100
AcDbSymbolTableRecord
100
AcDbLayerTableRecord
  2
0
 70
     0
 62
     7
  6
CONTINUOUS
  0
LAYER
  5
40
330
2
100
AcDbSymbolTableRecord
100
AcDbLayerTableRecord
  2
LAYER_1
 70
     0
 62
     7
  6
CONTINUOUS
  0
ENDTAB
  0
TABLE
  2
STYLE
  5
3
330
0
100
AcDbSymbolTable
 70
     1
  0
STYLE
  5
11
330
3
100
AcDbSymbolTableRecord
100
AcDbTextStyleTableRecord
  2
STANDARD
 70
     0
 40
0.0
 41
1.0
 50
0.0
 71
     0
 42
0.2
  3
txt
  4

  0
ENDTAB
  0
TABLE
  2
VIEW
  5
6
330
0
100
AcDbSymbolTable
 70
     0
  0
ENDTAB
  0
TABLE
  2
UCS
  5
7
330
0
100
AcDbSymbolTable
 70
     0
  0
ENDTAB
  0
TABLE
  2
APPID
  5
9
330
0
100
AcDbSymbolTable
 70
     1
  0
APPID
  5
12
330
9
100
AcDbSymbolTableRecord
100
AcDbRegAppTableRecord
  2
ACAD
 70
     0
  0
ENDTAB
  0
TABLE
  2
DIMSTYLE
  5
A
330
0
100
AcDbSymbolTable
 70
     1
  0
DIMSTYLE
105
27
330
A
100
AcDbSymbolTableRecord
100
AcDbDimStyleTableRecord
  2
STANDARD
 70
     0
  3

  4

  5

  6

  7

 40
1.0
 41
0.18
 42
0.0625
 43
0.38
 44
0.18
 45
0.0
 46
0.0
 47
0.0
 48
0.0
140
0.18
141
0.09
142
0.0
143
25.4
144
1.0
145
0.0
146
1.0
147
0.09
 71
     0
 72
     0
 73
     1
 74
     1
 75
     0
 76
     0
 77
     0
 78
     0
170
     0
171
     2
172
     0
173
     0
174
     0
175
     0
176
     0
177
     0
178
     0
270
     2
271
     4
272
     4
273
     2
274
     2
340
11
275
     0
280
     0
281
     0
282
     0
283
     1
284
     0
285
     0
286
     0
287
     3
288
     0
  0
ENDTAB
  0
TABLE
  2
BLOCK_RECORD
  5
1
330
0
100
AcDbSymbolTable
 70
     1
  0
BLOCK_RECORD
  5
1F
330
1
100
AcDbSymbolTableRecord
100
AcDbBlockTableRecord
  2
*MODEL_SPACE
  0
BLOCK_RECORD
  5
1B
330
1
100
AcDbSymbolTableRecord
100
AcDbBlockTableRecord
  2
*PAPER_SPACE
  0
ENDTAB
  0
ENDSEC
  0
SECTION
  2
BLOCKS
  0
BLOCK
  5
20
330
1F
100
AcDbEntity
  8
0
100
AcDbBlockBegin
  2
*MODEL_SPACE
 70
     0
 10
0.0
 20
0.0
 30
0.0
  3
*MODEL_SPACE
  1

  0
ENDBLK
  5
21
330
1F
100
AcDbEntity
  8
0
100
AcDbBlockEnd
  0
BLOCK
  5
1C
330
1B
100
AcDbEntity
 67
     1
  8
0
100
AcDbBlockBegin
  2
*PAPER_SPACE
 70
     0
 10
0.0
 20
0.0
 30
0.0
  3
*PAPER_SPACE
  1

  0
ENDBLK
  5
1D
330
1B
100
AcDbEntity
 67
     1
  8
0
100
AcDbBlockEnd
  0
ENDSEC
  0
SECTION
  2
ENTITIES
  0
SPLINE
  5
41
330
1F
100
AcDbEntity
  8
LAYER_1
 62
     7
100
AcDbSpline
210
0.0
220
0.0
230
1.0
 70
    11
 71
     3
 72
    41
 73
    37
 74
     0
 42
0.0000000001
 43
0.0000000001
 12
1.0
 22
0.0
 32
0.0
 13
1.0
 23
0.0
 33
0.0
 40
0.0
 40
0.0
 40
0.0
 40
0.0
 40
1.0
 40
1.0
 40
1.0
 40
2.0
 40
2.0
 40
2.0
 40
3.0
 40
3.0
 40
3.0
 40
4.0
 40
4.0
 40
4.0
 40
5.0
 40
5.0
 40
5.0
 40
6.0
 40
6.0
 40
6.0
 40
7.0
 40
7.0
 40
7.0
 40
8.0
 40
8.0
 40
8.0
 40
9.0
 40
9.0
 40
9.0
 40
10.0
 40
10.0
 40
10.0
 40
11.0
 40
11.0
 40
11.0
 40
12.0
 40
12.0
 40
12.0
 40
12.0
 10
62.5977207196717
 20
-27.396551824446
 30
0.0
 10
62.57482025530577
 20
-27.35113577746864
 30
0.0
 10
62.5525146081963
 20
-27.30162598819838
 30
0.0
 10
62.52571284241457
 20
-27.25470540345531
 30
0.0
 10
62.41031829470182
 20
-27.05267747183189
 30
0.0
 10
62.2933492307226
 20
-26.85152427146766
 30
0.0
 10
62.17739485500376
 20
-26.64981124309766
 30
0.0
 10
61.61809168787504
 20
-25.67679517962129
 30
0.0
 10
61.05919089712602
 20
-24.70353419139194
 30
0.0
 10
60.49903049336395
 20
-23.73100797742057
 30
0.0
 10
60.46379631824376
 20
-23.66986426240302
 30
0.0
 10
60.43890146660679
 20
-23.59883608415621
 30
0.0
 10
60.37634068694979
 20
-23.55196798328872
 30
0.0
 10
60.35518968510223
 20
-23.57693281342613
 30
0.0
 10
60.33930456543532
 20
-23.590823545822
 30
0.0
 10
60.32935012370564
 20
-23.60812573012899
 30
0.0
 10
59.61367999668352
 20
-24.85425038735116
 30
0.0
 10
58.89844723529148
 20
-26.10063746395085
 30
0.0
 10
58.18340691477621
 20
-27.34712950830169
 30
0.0
 10
58.1801354198666
 20
-27.35283275611177
 30
0.0
 10
58.17868336597614
 20
-27.3603204556906
 30
0.0
 10
58.17868336597614
 20
-27.36696841325998
 30
0.0
 10
58.17868336597614
 20
-27.37335395145215
 30
0.0
 10
58.18169244150821
 20
-27.37973948964465
 30
0.0
 10
58.1833369362748
 20
-27.38614252246169
 30
0.0
 10
58.19173435636353
 20
-27.39653432982081
 30
0.0
 10
58.19797993755417
 20
-27.41205206235905
 30
0.0
 10
58.20882660516824
 20
-27.41660066490689
 30
0.0
 10
59.16756705449487
 20
-27.81867963550788
 30
0.0
 10
60.12662240707493
 20
-28.22002383185089
 30
0.0
 10
61.08597516828225
 20
-28.62061575931136
 30
0.0
 10
61.11031019191378
 20
-28.63078013654333
 30
0.0
 10
61.13826660295743
 20
-28.63233715818461
 30
0.0
 10
61.15947008868023
 20
-28.63683327685688
 30
0.0
 10
61.336603168667
 20
-28.51613785771344
 30
0.0
 10
62.48676980675597
 20
-27.52469995391822
 30
0.0
 10
62.5977207196717
 20
-27.396551824446
 30
0.0
  0
SPLINE
  5
42
330
1F
100
AcDbEntity
  8
LAYER_1
 62
     7
100
AcDbSpline
210
0.0
220
0.0
230
1.0
 70
    24
 71
     3
 72
     8
 73
     4
 74
     0
 42
0.0000000001
 43
0.0000000001
 12
1.0
 22
0.0
 32
0.0
 13
1.0
 23
0.0
 33
0.0
 40
0.0
 40
0.0
 40
0.0
 40
0.0
 40
1.0
 40
1.0
 40
1.0
 40
1.0
 10
43.7969656533394
 20
-44.96260756294427
 30
0.0
 10
43.7969656533394
 20
-44.96260756294427
 30
0.0
 10
43.79649329845926
 20
-44.96260756294427
 30
0.0
 10
43.79626586833211
 20
-44.96260756294427
 30
0.0
  0
SPLINE
  5
43
330
1F
100
AcDbEntity
  8
LAYER_1
 62
     7
100
AcDbSpline
210
0.0
220
0.0
230
1.0
 70
    11
 71
     3
 72
    53
 73
    49
 74
     0
 42
0.0000000001
 43
0.0000000001
 12
1.0
 22
0.0
 32
0.0
 13
1.0
 23
0.0
 33
0.0
 40
0.0
 40
0.0
 40
0.0
 40
0.0
 40
1.0
 40
1.0
 40
1.0
 40
2.0
 40
2.0
 40
2.0
 40
3.0
 40
3.0
 40
3.0
 40
4.0
 40
4.0
 40
4.0
 40
5.0
 40
5.0
 40
5.0
 40
6.0
 40
6.0
 40
6.0
 40
7.0
 40
7.0
 40
7.0
 40
8.0
 40
8.0
 40
8.0
 40
9.0
 40
9.0
 40
9.0
 40
10.0
 40
10.0
 40
10.0
 40
11.0
 40
11.0
 40
11.0
 40
12.0
 40
12.0
 40
12.0
 40
13.0
 40
13.0
 40
13.0
 40
14.0
 40
14.0
 40
14.0
 40
15.0
 40
15.0
 40
15.0
 40
16.0
 40
16.0
 40
16.0
 40
16.0
 10
47.20075357922049
 20
-23.059424305862
 30
0.0
 10
47.16014855416851
 20
-22.98591189083916
 30
0.0
 10
47.12522928230173
 20
-22.92041201415052
 30
0.0
 10
47.08828063391353
 20
-22.85610177197483
 30
0.0
 10
46.37533966842044
 20
-21.61529548080856
 30
0.0
 10
45.66217127279956
 20
-20.37462914664381
 30
0.0
 10
44.94905536105457
 20
-19.13394531785418
 30
0.0
 10
44.41676389521052
 20
-18.20790232299613
 30
0.0
 10
43.88468236486779
 20
-17.28175436038727
 30
0.0
 10
43.35169111401645
 20
-16.3560962472834
 30
0.0
 10
43.31908113267349
 20
-16.29946614556299
 30
0.0
 10
43.30093920635768
 20
-16.22992501045703
 30
0.0
 10
43.22247581240794
 20
-16.19213662005971
 30
0.0
 10
42.19048536743664
 20
-17.98752252955495
 30
0.0
 10
41.16064676136244
 20
-19.77921707313602
 30
0.0
 10
40.13367727381911
 20
-21.56587316466425
 30
0.0
 10
40.24555540186991
 20
-21.754150320893
 30
0.0
 10
40.46488551780033
 20
-22.03539391534902
 30
0.0
 10
40.58482866806061
 20
-22.14394806461497
 30
0.0
 10
40.77852915809639
 20
-22.04996693812731
 30
0.0
 10
40.95679938871988
 20
-21.92288598079137
 30
0.0
 10
41.14369446955924
 20
-21.810955368865
 30
0.0
 10
41.33167421715977
 20
-21.69835996118171
 30
0.0
 10
41.51792199686773
 20
-21.58291292959339
 30
0.0
 10
41.70469461533077
 20
-21.46834062926427
 30
0.0
 10
41.89731043860507
 20
-21.35016443614692
 30
0.0
 10
42.08957636937591
 20
-21.23139342577375
 30
0.0
 10
42.28212221414945
 20
-21.11311226490558
 30
0.0
 10
42.46884234873724
 20
-20.99841750220012
 30
0.0
 10
42.65477522519146
 20
-20.88241064260571
 30
0.0
 10
42.84280745666787
 20
-20.76992020267357
 30
0.0
 10
43.02919519337672
 20
-20.65839196712657
 30
0.0
 10
43.20774533800326
 20
-20.53295550455787
 30
0.0
 10
43.41274735590773
 20
-20.43150417311656
 30
0.0
 10
43.44390528336022
 20
-20.47852972561077
 30
0.0
 10
43.4721940922828
 20
-20.51575828800233
 30
0.0
 10
43.49469218026871
 20
-20.55618836680209
 30
0.0
 10
43.5812031018037
 20
-20.71175057393706
 30
0.0
 10
43.66559717369035
 20
-20.86848492095978
 30
0.0
 10
43.75126835321588
 20
-21.02451948297425
 30
0.0
 10
44.36744654681704
 20
-22.14678219389482
 30
0.0
 10
44.98351977266736
 20
-23.26911488331584
 30
0.0
 10
45.60071265452923
 20
-24.39081776623
 30
0.0
 10
45.63187058198107
 20
-24.44744786795042
 30
0.0
 10
45.65317903545502
 20
-24.51376999202235
 30
0.0
 10
45.72261520281015
 20
-24.56303485654026
 30
0.0
 10
46.21783555789001
 20
-24.05927712437049
 30
0.0
 10
46.70656540702718
 20
-23.56211486589517
 30
0.0
 10
47.20075357922049
 20
-23.059424305862
 30
0.0
  0
POLYLINE
  5
44
330
1F
100
AcDbEntity
  8
LAYER_1
 62
     7
100
AcDb2dPolyline
 66
     1
 10
0.0
 20
0.0
 30
0.0
  0
VERTEX
  5
45
330
44
100
AcDbEntity
  8
LAYER_1
 62
     7
100
AcDbVertex
100
AcDb2dVertex
 10
42.29232291977524
 20
-48.64841018593319
 30
0.0
  0
VERTEX
  5
46
330
44
100
AcDbEntity
  8
LAYER_1
 62
     7
100
AcDbVertex
100
AcDb2dVertex
 10
42.2333135490296
 20
-48.5866016751584
 30
0.0
  0
SEQEND
  5
47
330
44
100
AcDbEntity
  8
LAYER_1
 62
     7
  0
SPLINE
  5
48
330
1F
100
AcDbEntity
  8
LAYER_1
 62
     7
100
AcDbSpline
210
0.0
220
0.0
230
1.0
 70
     8
 71
     3
 72
   254
 73
   250
 74
     0
 42
0.0000000001
 43
0.0000000001
 12
1.0
 22
0.0
 32
0.0
 13
1.0
 23
0.0
 33
0.0
 40
0.0
 40
0.0
 40
0.0
 40
0.0
 40
1.0
 40
1.0
 40
1.0
 40
2.0
 40
2.0
 40
2.0
 40
3.0
 40
3.0
 40
3.0
 40
4.0
 40
4.0
 40
4.0
 40
5.0
 40
5.0
 40
5.0
 40
6.0
 40
6.0
 40
6.0
 40
7.0
 40
7.0
 40
7.0
 40
8.0
 40
8.0
 40
8.0
 40
9.0
 40
9.0
 40
9.0
 40
10.0
 40
10.0
 40
10.0
 40
11.0
 40
11.0
 40
11.0
 40
12.0
 40
12.0
 40
12.0
 40
13.0
 40
13.0
 40
13.0
 40
14.0
 40
14.0
 40
14.0
 40
15.0
 40
15.0
 40
15.0
 40
16.0
 40
16.0
 40
16.0
 40
17.0
 40
17.0
 40
17.0
 40
18.0
 40
18.0
 40
18.0
 40
19.0
 40
19.0
 40
19.0
 40
20.0
 40
20.0
 40
20.0
 40
21.0
 40
21.0
 40
21.0
 40
22.0
 40
22.0
 40
22.0
 40
23.0
 40
23.0
 40
23.0
 40
24.0
 40
24.0
 40
24.0
 40
25.0
 40
25.0
 40
25.0
 40
26.0
 40
26.0
 40
26.0
 40
27.0
 40
27.0
 40
27.0
 40
28.0
 40
28.0
 40
28.0
 40
29.0
 40
29.0
 40
29.0
 40
30.0
 40
30.0
 40
30.0
 40
31.0
 40
31.0
 40
31.0
 40
32.0
 40
32.0
 40
32.0
 40
33.0
 40
33.0
 40
33.0
 40
34.0
 40
34.0
 40
34.0
 40
35.0
 40
35.0
 40
35.0
 40
36.0
 40
36.0
 40
36.0
 40
37.0
 40
37.0
 40
37.0
 40
38.0
 40
38.0
 40
38.0
 40
39.0
 40
39.0
 40
39.0
 40
40.0
 40
40.0
 40
40.0
 40
41.0
 40
41.0
 40
41.0
 40
42.0
 40
42.0
 40
42.0
 40
43.0
 40
43.0
 40
43.0
 40
44.0
 40
44.0
 40
44.0
 40
45.0
 40
45.0
 40
45.0
 40
46.0
 40
46.0
 40
46.0
 40
47.0
 40
47.0
 40
47.0
 40
48.0
 40
48.0
 40
48.0
 40
49.0
 40
49.0
 40
49.0
 40
50.0
 40
50.0
 40
50.0
 40
51.0
 40
51.0
 40
51.0
 40
52.0
 40
52.0
 40
52.0
 40
53.0
 40
53.0
 40
53.0
 40
54.0
 40
54.0
 40
54.0
 40
55.0
 40
55.0
 40
55.0
 40
56.0
 40
56.0
 40
56.0
 40
57.0
 40
57.0
 40
57.0
 40
58.0
 40
58.0
 40
58.0
 40
59.0
 40
59.0
 40
59.0
 40
60.0
 40
60.0
 40
60.0
 40
61.0
 40
61.0
 40
61.0
 40
62.0
 40
62.0
 40
62.0
 40
63.0
 40
63.0
 40
63.0
 40
64.0
 40
64.0
 40
64.0
 40
65.0
 40
65.0
 40
65.0
 40
66.0
 40
66.0
 40
66.0
 40
67.0
 40
67.0
 40
67.0
 40
68.0
 40
68.0
 40
68.0
 40
69.0
 40
69.0
 40
69.0
 40
70.0
 40
70.0
 40
70.0
 40
71.0
 40
71.0
 40
71.0
 40
72.0
 40
72.0
 40
72.0
 40
73.0
 40
73.0
 40
73.0
 40
74.0
 40
74.0
 40
74.0
 40
75.0
 40
75.0
 40
75.0
 40
76.0
 40
76.0
 40
76.0
 40
77.0
 40
77.0
 40
77.0
 40
78.0
 40
78.0
 40
78.0
 40
79.0
 40
79.0
 40
79.0
 40
80.0
 40
80.0
 40
80.0
 40
81.0
 40
81.0
 40
81.0
 40
82.0
 40
82.0
 40
82.0
 40
83.0
 40
83.0
 40
83.0
 40
83.0
 10
43.79661576083559
 20
-49.26345122889794
 30
0.0
 10
43.79661576083559
 20
-49.26345122889794
 30
0.0
 10
44.47313291669587
 20
-49.26345122889794
 30
0.0
 10
44.47313291669587
 20
-49.26345122889794
 30
0.0
 10
44.47313291669587
 20
-49.26345122889794
 30
0.0
 10
44.47313291669587
 20
-49.26217412125937
 30
0.0
 10
44.47313291669587
 20
-49.26217412125937
 30
0.0
 10
51.12359221796866
 20
-49.26161429325393
 30
0.0
 10
56.69366960186831
 20
-49.26150932550215
 30
0.0
 10
63.34414639776725
 20
-49.26149183087664
 30
0.0
 10
63.40581495153987
 20
-49.26149183087664
 30
0.0
 10
63.46811331181934
 20
-49.26675771305727
 30
0.0
 10
63.52906458596013
 20
-49.26000478773643
 30
0.0
 10
63.68530908347688
 20
-49.24268510880457
 30
0.0
 10
63.84508749528204
 20
-49.23589719423334
 30
0.0
 10
63.99617107836929
 20
-49.19677921232157
 30
0.0
 10
64.83092711901833
 20
-48.98058063430019
 30
0.0
 10
65.36188899334857
 20
-48.45171811499085
 30
0.0
 10
65.59033380899986
 20
-47.61979620362262
 30
0.0
 10
65.60798588581066
 20
-47.55555593994737
 30
0.0
 10
65.62588288737349
 20
-47.49136816014736
 30
0.0
 10
65.64654403971572
 20
-47.41670109986324
 30
0.0
 10
65.72952104696292
 20
-47.41670109986324
 30
0.0
 10
65.80415311799666
 20
-47.41670109986324
 30
0.0
 10
65.87878518903167
 20
-47.41670109986324
 30
0.0
 10
67.15346107455332
 20
-47.41670109986324
 30
0.0
 10
68.42811946545072
 20
-47.41671859448811
 30
0.0
 10
69.7027778563475
 20
-47.41670109986324
 30
0.0
 10
71.57365307351078
 20
-47.41670109986324
 30
0.0
 10
73.4445457852996
 20
-47.41540649759916
 30
0.0
 10
75.31542100246288
 20
-47.41750585262135
 30
0.0
 10
75.85063407071338
 20
-47.41810066987782
 30
0.0
 10
76.33222611277425
 20
-47.26269591436955
 30
0.0
 10
76.73570465339013
 20
-46.91245351818782
 30
0.0
 10
77.33307612491858
 20
-46.39389533311326
 30
0.0
 10
77.58323177042351
 20
-45.73496027556269
 30
0.0
 10
77.47626963204858
 20
-44.94623259377267
 30
0.0
 10
77.43699419851106
 20
-44.65659157922793
 30
0.0
 10
77.32864998474706
 20
-44.39320999708499
 30
0.0
 10
77.18363703659791
 20
-44.14109495356067
 30
0.0
 10
75.27812246157025
 20
-40.82826024486624
 30
0.0
 10
73.37397246730805
 20
-37.5146557726647
 30
0.0
 10
71.46949007516564
 20
-34.20122624671508
 30
0.0
 10
68.49671589079608
 20
-29.02922022510572
 30
0.0
 10
65.52394170642654
 20
-23.8571967088715
 30
0.0
 10
62.55115002743212
 20
-18.68519068726246
 30
0.0
 10
62.43851963049813
 20
-18.48923339057779
 30
0.0
 10
62.32994798660699
 20
-18.2907743624922
 30
0.0
 10
62.21201671824326
 20
-18.09805357146675
 30
0.0
 10
61.70073629724396
 20
-17.26249277805961
 30
0.0
 10
60.70560702753522
 20
-16.876893744382
 30
0.0
 10
59.77109663408833
 20
-17.15584554293875
 30
0.0
 10
59.22164294093816
 20
-17.31985765403769
 30
0.0
 10
58.80107215151756
 20
-17.65403998429996
 30
0.0
 10
58.51388038449944
 20
-18.15125472665085
 30
0.0
 10
58.0993977246431
 20
-18.86888425169331
 30
0.0
 10
57.68745178543837
 20
-19.58798332525142
 30
0.0
 10
57.27438619022211
 20
-20.30643509767717
 30
0.0
 10
56.19561511750894
 20
-22.18271615402231
 30
0.0
 10
55.11684404479576
 20
-24.05899721036744
 30
0.0
 10
54.03782804732992
 20
-25.93513830971138
 30
0.0
 10
54.00460575410563
 20
-25.99287057281814
 30
0.0
 10
53.96853183697694
 20
-26.04895834115766
 30
0.0
 10
53.92418296213555
 20
-26.12152604642023
 30
0.0
 10
53.8785744742811
 20
-26.04601924412667
 30
0.0
 10
53.84239558940063
 20
-25.98854940039745
 30
0.0
 10
53.80856098429501
 20
-25.92973247052954
 30
0.0
 10
52.99236674096731
 20
-24.51081340036617
 30
0.0
 10
52.17631245463984
 20
-23.09182435170235
 30
0.0
 10
51.36048559844018
 20
-21.67269534603702
 30
0.0
 10
49.29188612744864
 20
-18.07440083821796
 30
0.0
 10
47.223461602709
 20
-14.47601885727296
 30
0.0
 10
45.15473966934178
 20
-10.87781182258017
 30
0.0
 10
45.11037329987519
 20
-10.80066052551905
 30
0.0
 10
45.06660174766507
 20
-10.72284443270135
 30
0.0
 10
45.01682953901728
 20
-10.6491920606773
 30
0.0
 10
44.51585345225179
 20
-9.90768237225858
 30
0.0
 10
43.59232968342049
 20
-9.549269986116567
 30
0.0
 10
42.73014207048383
 20
-9.768617596672176
 30
0.0
 10
42.1525745146633
 20
-9.915572448216787
 30
0.0
 10
41.70322506681543
 20
-10.24408651991969
 30
0.0
 10
41.39645681421624
 20
-10.75781618844401
 30
0.0
 10
41.2244146701582
 20
-11.04591767597202
 30
0.0
 10
41.06038506443407
 20
-11.33879519617534
 30
0.0
 10
40.89313644767622
 20
-11.62973081298288
 30
0.0
 10
38.3397959020899
 20
-16.07119627616391
 30
0.0
 10
35.78649034575365
 20
-20.51264424471944
 30
0.0
 10
33.23330725179437
 20
-24.95417968640124
 30
0.0
 10
32.81347123663176
 20
-25.68454529857733
 30
0.0
 10
32.39468489897991
 20
-26.41550572801022
 30
0.0
 10
31.97390417405767
 20
-27.14532900680574
 30
0.0
 10
31.94115423571351
 20
-27.20213405477774
 30
0.0
 10
31.92112288987781
 20
-27.27139527588065
 30
0.0
 10
31.84505625957848
 20
-27.31423961295602
 30
0.0
 10
31.80361149251769
 20
-27.24552072523367
 30
0.0
 10
31.76442353210611
 20
-27.18316988107831
 30
0.0
 10
31.72773730309545
 20
-27.119384477658
 30
0.0
 10
30.90137868253514
 20
-25.68260339518219
 30
0.0
 10
30.07535245985344
 20
-24.24562987182928
 30
0.0
 10
29.24918628017023
 20
-22.80874382160232
 30
0.0
 10
29.03069590624894
 20
-22.42874306798332
 30
0.0
 10
28.81911590927488
 20
-22.04454360432028
 30
0.0
 10
28.59200068513804
 20
-21.66975624900603
 30
0.0
 10
27.8983038073471
 20
-20.52496046084884
 30
0.0
 10
26.3648299314801
 20
-20.28251994505085
 30
0.0
 10
25.34942439118268
 20
-21.15228273069228
 30
0.0
 10
25.14391502914801
 20
-21.3283136492924
 30
0.0
 10
24.98583359598629
 20
-21.54138068940697
 30
0.0
 10
24.85180727245274
 20
-21.77530132274023
 30
0.0
 10
24.28659092201198
 20
-22.76178824760855
 30
0.0
 10
23.7190827756726
 20
-23.74694558096274
 30
0.0
 10
23.15250184446734
 20
-24.73264524769782
 30
0.0
 10
19.72903112611091
 20
-30.68839298291896
 30
0.0
 10
16.30557790237968
 20
-36.64414071814105
 30
0.0
 10
12.88233461415041
 20
-42.60001091573852
 30
0.0
 10
12.82773388895173
 20
-42.6949892358617
 30
0.0
 10
12.77215346474241
 20
-42.78968764198184
 30
0.0
 10
12.72346592285577
 20
-42.88771002688684
 30
0.0
 10
12.26377715152435
 20
-43.81333315074032
 30
0.0
 10
12.53263455135022
 20
-44.9408792384664
 30
0.0
 10
13.36166984956366
 20
-45.5570049481923
 30
0.0
 10
13.74177557093348
 20
-45.83949066103587
 30
0.0
 10
14.16904680179904
 20
-45.9819144046575
 30
0.0
 10
14.64512803692788
 20
-45.98130209277617
 30
0.0
 10
16.09796918532283
 20
-45.97944766250729
 30
0.0
 10
17.55081033371714
 20
-45.98067228626996
 30
0.0
 10
19.00365148211209
 20
-45.98070727552034
 30
0.0
 10
19.64783857063246
 20
-45.98070727552034
 30
0.0
 10
20.29202565915347
 20
-45.98040986689179
 30
0.0
 10
20.93621274767384
 20
-45.98123211427605
 30
0.0
 10
20.99438237641035
 20
-45.98130209277617
 30
0.0
 10
21.05547360755202
 20
-45.97094527466743
 30
0.0
 10
21.12340523714112
 20
-46.0023131376222
 30
0.0
 10
21.08976307291259
 20
-46.07437349875458
 30
0.0
 10
21.06219154362312
 20
-46.13546472989689
 30
0.0
 10
21.03297551956578
 20
-46.19575120828045
 30
0.0
 10
20.83820785739372
 20
-46.59774270575549
 30
0.0
 10
20.78159525029882
 20
-47.0247865064939
 30
0.0
 10
20.85727699884428
 20
-47.45844327555162
 30
0.0
 10
21.09508143896848
 20
-48.82088969562129
 30
0.0
 10
22.34986593565657
 20
-49.3936987133917
 30
0.0
 10
23.27862059741814
 20
-49.23514492534984
 30
0.0
 10
23.92361243869725
 20
-49.12505124906748
 30
0.0
 10
24.42584813847548
 20
-48.80906332899658
 30
0.0
 10
24.78433050311857
 20
-48.26345845338761
 30
0.0
 10
24.83315800200674
 20
-48.18914128560601
 30
0.0
 10
24.87544251107601
 20
-48.11050294540468
 30
0.0
 10
24.91980888054228
 20
-48.03329916446832
 30
0.0
 10
25.79688441951065
 20
-46.50719052580382
 30
0.0
 10
26.67364505522559
 20
-44.98090694088678
 30
0.0
 10
27.5508255619451
 20
-43.45485078609754
 30
0.0
 10
29.66018750961469
 20
-39.78521319677922
 30
0.0
 10
31.76974189816169
 20
-36.11568057521141
 30
0.0
 10
33.87919131895755
 20
-32.44609546976834
 30
0.0
 10
34.92027896902486
 20
-30.63505187073365
 30
0.0
 10
35.96124415671552
 20
-28.82393829319853
 30
0.0
 10
37.00238429065841
 20
-27.01292968341423
 30
0.0
 10
37.50759407671832
 20
-26.13415716580306
 30
0.0
 10
38.01261142190114
 20
-25.25526218581587
 30
0.0
 10
38.51960565972981
 20
-24.37750435646509
 30
0.0
 10
38.54799943640322
 20
-24.32832696507344
 30
0.0
 10
38.55776143725549
 20
-24.25820850733621
 30
0.0
 10
38.63706457321404
 20
-24.24221841991848
 30
0.0
 10
38.6912279327836
 20
-24.31139216789544
 30
0.0
 10
38.74672088386666
 20
-24.38068837824874
 30
0.0
 10
38.80053435093241
 20
-24.45124420161541
 30
0.0
 10
39.12052854017026
 20
-24.87071282964903
 30
0.0
 10
39.43943806264727
 20
-25.29100370506626
 30
0.0
 10
39.760709359524
 20
-25.7094576448395
 30
0.0
 10
39.80054462106761
 20
-25.76134670313498
 30
0.0
 10
39.82661161259168
 20
-25.83214745125366
 30
0.0
 10
39.91137307160732
 20
-25.84624811915182
 30
0.0
 10
39.97827251831053
 20
-25.80538067472263
 30
0.0
 10
40.04837348142225
 20
-25.76272877852436
 30
0.0
 10
40.11833448753278
 20
-25.71981446294791
 30
0.0
 10
40.80723783802321
 20
-25.29707434000501
 30
0.0
 10
41.49586127451093
 20
-24.8738618621823
 30
0.0
 10
42.18549939925936
 20
-24.45232886837655
 30
0.0
 10
42.24688803902926
 20
-24.41480289735708
 30
0.0
 10
42.30241597936269
 20
-24.36037711840999
 30
0.0
 10
42.39023899778597
 20
-24.3528544295811
 30
0.0
 10
42.51775732075199
 20
-24.58443078314016
 30
0.0
 10
42.64305382631822
 20
-24.81179093202966
 30
0.0
 10
42.76821037488388
 20
-25.03923855404511
 30
0.0
 10
42.89697081623711
 20
-25.27322916587945
 30
0.0
 10
43.02562628983921
 20
-25.50728975621455
 30
0.0
 10
43.15426426881611
 20
-25.74135034654965
 30
0.0
 10
43.27964824750893
 20
-25.96942777507195
 30
0.0
 10
43.40504972082694
 20
-26.19747021434355
 30
0.0
 10
43.53024125864266
 20
-26.42563511599149
 30
0.0
 10
43.65873928061804
 20
-26.65978317945254
 30
0.0
 10
43.78700987246628
 20
-26.8940537052896
 30
0.0
 10
43.91536793744078
 20
-27.1282892418766
 30
0.0
 10
44.04043701288049
 20
-27.3565066274001
 30
0.0
 10
44.16531364744247
 20
-27.58481148604988
 30
0.0
 10
44.29059265838446
 20
-27.81292390382223
 30
0.0
 10
44.41916065886061
 20
-28.04703697803291
 30
0.0
 10
44.54646904632338
 20
-28.28188482650092
 30
0.0
 10
44.67738132657437
 20
-28.51470329844816
 30
0.0
 10
44.80390245590423
 20
-28.73973666218833
 30
0.0
 10
44.91558814307794
 20
-28.97358731702115
 30
0.0
 10
45.06843868330972
 20
-29.2048137780764
 30
0.0
 10
45.2145537928452
 20
-29.07106736854589
 30
0.0
 10
45.33916800802997
 20
-28.93660367938257
 30
0.0
 10
45.46827834188669
 20
-28.80705597989578
 30
0.0
 10
45.60370423543514
 20
-28.67114023684264
 30
0.0
 10
45.7373981610904
 20
-28.53351002052087
 30
0.0
 10
45.87179187175263
 20
-28.396544599956
 30
0.0
 10
46.00135706586494
 20
-28.26446017981791
 30
0.0
 10
46.13069482984945
 20
-28.13216582417754
 30
0.0
 10
46.260399980962
 20
-28.00022136104097
 30
0.0
 10
46.39491615400088
 20
-27.86339589747763
 30
0.0
 10
46.52983470341882
 20
-27.72695531566847
 30
0.0
 10
46.66442085495846
 20
-27.59018233598134
 30
0.0
 10
46.79419598457241
 20
-27.4583253459704
 30
0.0
 10
46.92377867330958
 20
-27.32624092583231
 30
0.0
 10
47.05346632979726
 20
-27.19429646269542
 30
0.0
 10
47.18798250283678
 20
-27.05745350450721
 30
0.0
 10
47.32242869737426
 20
-26.92055806244342
 30
0.0
 10
47.45711981666505
 20
-26.78389005050679
 30
0.0
 10
47.58698241940463
 20
-26.65210303899661
 30
0.0
 10
47.71721240927352
 20
-26.52066591999024
 30
0.0
 10
47.84707501201374
 20
-26.38886141385487
 30
0.0
 10
47.9817311420535
 20
-26.25215841266818
 30
0.0
 10
48.11379806756704
 20
-26.11283121770392
 30
0.0
 10
48.25127083226146
 20
-25.97904981892303
 30
0.0
 10
48.38228808026359
 20
-25.85156648520803
 30
0.0
 10
48.49572322995568
 20
-25.70468161216418
 30
0.0
 10
48.65480185675324
 20
-25.59268102173672
 30
0.0
 10
48.69288765577783
 20
-25.65387722063017
 30
0.0
 10
48.72647733613144
 20
-25.70434921428556
 30
0.0
 10
48.7566205753229
 20
-25.75679810058681
 30
0.0
 10
50.08462007840561
 20
-28.06649100123733
 30
0.0
 10
51.41233966748592
 20
-30.37634135351425
 30
0.0
 10
52.74005925656494
 20
-32.6861917057918
 30
0.0
 10
54.71630460121054
 20
-36.12427043617625
 30
0.0
 10
56.69253245123127
 20
-39.56236666118686
 30
0.0
 10
58.66874280662713
 20
-43.00046288619747
 30
0.0
 10
59.01006294396443
 20
-43.59424795956289
 30
0.0
 10
59.35189042543192
 20
-44.1877531189259
 30
0.0
 10
59.69160105725301
 20
-44.78246540742671
 30
0.0
 10
59.72013479092761
 20
-44.83239506770089
 30
0.0
 10
59.77015192432806
 20
-44.87854588893655
 30
0.0
 10
59.74667413733118
 20
-44.9625900683194
 30
0.0
 10
59.65986580716892
 20
-44.9625900683194
 30
0.0
 10
59.57150045536506
 20
-44.9625900683194
 30
0.0
 10
59.48315259818671
 20
-44.9625900683194
 30
0.0
 10
53.92904646793649
 20
-44.9625900683194
 30
0.0
 10
49.02406224965243
 20
-44.9625900683194
 30
0.0
 10
43.7969656533394
 20
-44.96260756294427
 30
0.0
  0
SPLINE
  5
49
330
1F
100
AcDbEntity
  8
LAYER_1
 62
     7
100
AcDbSpline
210
0.0
220
0.0
230
1.0
 70
     8
 71
     3
 72
    14
 73
    10
 74
     0
 42
0.0000000001
 43
0.0000000001
 12
1.0
 22
0.0
 32
0.0
 13
1.0
 23
0.0
 33
0.0
 40
0.0
 40
0.0
 40
0.0
 40
0.0
 40
1.0
 40
1.0
 40
1.0
 40
2.0
 40
2.0
 40
2.0
 40
3.0
 40
3.0
 40
3.0
 40
3.0
 10
43.79626586833211
 20
-44.96260756294427
 30
0.0
 10
42.78042296240493
 20
-44.96260756294427
 30
0.0
 10
41.74173207598803
 20
-44.96260756294427
 30
0.0
 10
40.66234869139352
 20
-44.96260756294427
 30
0.0
 10
40.66234869139352
 20
-44.96260756294427
 30
0.0
 10
38.7732090855384
 20
-44.96260756294427
 30
0.0
 10
38.7732090855384
 20
-44.96260756294427
 30
0.0
 10
38.7732090855384
 20
-44.96260756294427
 30
0.0
 10
42.2333135490296
 20
-48.5866016751584
 30
0.0
 10
42.2333135490296
 20
-48.5866016751584
 30
0.0
  0
SPLINE
  5
4A
330
1F
100
AcDbEntity
  8
LAYER_1
 62
     7
100
AcDbSpline
210
0.0
220
0.0
230
1.0
 70
    11
 71
     3
 72
    62
 73
    58
 74
     0
 42
0.0000000001
 43
0.0000000001
 12
1.0
 22
0.0
 32
0.0
 13
1.0
 23
0.0
 33
0.0
 40
0.0
 40
0.0
 40
0.0
 40
0.0
 40
1.0
 40
1.0
 40
1.0
 40
2.0
 40
2.0
 40
2.0
 40
3.0
 40
3.0
 40
3.0
 40
4.0
 40
4.0
 40
4.0
 40
5.0
 40
5.0
 40
5.0
 40
6.0
 40
6.0
 40
6.0
 40
7.0
 40
7.0
 40
7.0
 40
8.0
 40
8.0
 40
8.0
 40
9.0
 40
9.0
 40
9.0
 40
10.0
 40
10.0
 40
10.0
 40
11.0
 40
11.0
 40
11.0
 40
12.0
 40
12.0
 40
12.0
 40
13.0
 40
13.0
 40
13.0
 40
14.0
 40
14.0
 40
14.0
 40
15.0
 40
15.0
 40
15.0
 40
16.0
 40
16.0
 40
16.0
 40
17.0
 40
17.0
 40
17.0
 40
18.0
 40
18.0
 40
18.0
 40
19.0
 40
19.0
 40
19.0
 40
19.0
 10
29.37957372166551
 20
-31.6598170355043
 30
0.0
 10
29.33779655672643
 20
-31.58369792132908
 30
0.0
 10
29.30698852177774
 20
-31.52278163643867
 30
0.0
 10
29.27166687353127
 20
-31.4646120077028
 30
0.0
 10
29.23755235442292
 20
-31.40841927161182
 30
0.0
 10
29.21528169656384
 20
-31.34248202929408
 30
0.0
 10
29.15363063741577
 20
-31.29647116506058
 30
0.0
 10
29.12058329044338
 20
-31.32015888755911
 30
0.0
 10
29.09231197614631
 20
-31.33830081387459
 30
0.0
 10
29.06640243624895
 20
-31.35934684797164
 30
0.0
 10
28.917488186684
 20
-31.48023470799219
 30
0.0
 10
28.76911627049962
 20
-31.60175237451893
 30
0.0
 10
28.62062189193892
 20
-31.72314757866967
 30
0.0
 10
27.6873361222547
 20
-32.48621064531499
 30
0.0
 10
26.754190309572
 20
-33.24946615283709
 30
0.0
 10
25.82048466888354
 20
-34.01203936997644
 30
0.0
 10
25.76987271822663
 20
-34.0533616746609
 30
0.0
 10
25.72345947761375
 20
-34.10376368981553
 30
0.0
 10
25.65141661110656
 20
-34.12741642306432
 30
0.0
 10
25.60332388647639
 20
-34.05579342756137
 30
0.0
 10
25.56088192578008
 20
-33.99433480929039
 30
0.0
 10
25.52020692222766
 20
-33.93173904038237
 30
0.0
 10
25.08371602389008
 20
-33.25989294944659
 30
0.0
 10
24.64778495355828
 20
-32.58769696600636
 30
0.0
 10
24.21075172184013
 20
-31.91621826219924
 30
0.0
 10
24.17474778321188
 20
-31.86091775199264
 30
0.0
 10
24.14854083468629
 20
-31.79555783230521
 30
0.0
 10
24.07313900014354
 20
-31.75154135534339
 30
0.0
 10
24.02114497409724
 20
-31.84039655665194
 30
0.0
 10
23.97303475484156
 20
-31.92134418737772
 30
0.0
 10
23.92611417009849
 20
-32.00295661386009
 30
0.0
 10
22.42124400640686
 20
-34.62044994999636
 30
0.0
 10
20.91646131584118
 20
-37.23801326463209
 30
0.0
 10
19.41169611990101
 20
-39.85557657926848
 30
0.0
 10
19.09779006022647
 20
-40.40163631513304
 30
0.0
 10
18.78344663492281
 20
-40.9474686208698
 30
0.0
 10
18.47090515601277
 20
-41.49431561486696
 30
0.0
 10
18.43859258329837
 20
-41.5508582434611
 30
0.0
 10
18.38901281552704
 20
-41.60306220501
 30
0.0
 10
18.39186443943207
 20
-41.67344308212476
 30
0.0
 10
18.4130329359045
 20
-41.68261026572122
 30
0.0
 10
18.42463187240142
 20
-41.69155001919051
 30
0.0
 10
18.43663318527771
 20
-41.69214483644634
 30
0.0
 10
18.48449847978073
 20
-41.69452410547092
 30
0.0
 10
18.53248623666008
 20
-41.69497896572586
 30
0.0
 10
18.58042150966386
 20
-41.69494397647548
 30
0.0
 10
20.24498261203407
 20
-41.6934219440849
 30
0.0
 10
21.90956120902915
 20
-41.69179494394253
 30
0.0
 10
23.57413980602422
 20
-41.689818051297
 30
0.0
 10
23.58035039796449
 20
-41.689818051297
 30
0.0
 10
23.58670094690596
 20
-41.68509450249694
 30
0.0
 10
23.59273659259433
 20
-41.68208542696551
 30
0.0
 10
23.59885971140897
 20
-41.67905885680921
 30
0.0
 10
23.60466792697018
 20
-41.67541997477029
 30
0.0
 10
23.63094485399589
 20
-41.66051455411403
 30
0.0
 10
25.53801645066485
 20
-38.34281633961928
 30
0.0
 10
27.45514745681431
 20
-35.00767598381601
 30
0.0
 10
29.37957372166551
 20
-31.6598170355043
 30
0.0
  0
SPLINE
  5
4B
330
1F
100
AcDbEntity
  8
LAYER_1
 62
     7
100
AcDbSpline
210
0.0
220
0.0
230
1.0
 70
    11
 71
     3
 72
    23
 73
    19
 74
     0
 42
0.0000000001
 43
0.0000000001
 12
1.0
 22
0.0
 32
0.0
 13
1.0
 23
0.0
 33
0.0
 40
0.0
 40
0.0
 40
0.0
 40
0.0
 40
1.0
 40
1.0
 40
1.0
 40
2.0
 40
2.0
 40
2.0
 40
3.0
 40
3.0
 40
3.0
 40
4.0
 40
4.0
 40
4.0
 40
5.0
 40
5.0
 40
5.0
 40
6.0
 40
6.0
 40
6.0
 40
6.0
 10
27.73639105127033
 20
-28.81118471143938
 30
0.0
 10
27.7294456850724
 20
-28.79342766687776
 30
0.0
 10
27.72437224376884
 20
-28.77353627804358
 30
0.0
 10
27.71452276979062
 20
-28.75635655611323
 30
0.0
 10
27.41135840997932
 20
-28.22791390780877
 30
0.0
 10
27.10793163078984
 20
-27.69961121650648
 30
0.0
 10
26.80342018483954
 20
-27.17195582633558
 30
0.0
 10
26.790999000959
 20
-27.15043743735967
 30
0.0
 10
26.76764367633876
 20
-27.13523460807453
 30
0.0
 10
26.74059698580436
 20
-27.10834536916717
 30
0.0
 10
26.37296493219033
 20
-27.74535966136213
 30
0.0
 10
26.01052878225618
 20
-28.37238452257734
 30
0.0
 10
25.65725981591815
 20
-28.9948782758699
 30
0.0
 10
25.83467280990797
 20
-29.31160097019879
 30
0.0
 10
26.20379190666253
 20
-29.86569073902243
 30
0.0
 10
26.31029918478155
 20
-29.97746389932209
 30
0.0
 10
26.4632022088889
 20
-29.8878039452548
 30
0.0
 10
27.62374315971148
 20
-28.93907042153343
 30
0.0
 10
27.73639105127033
 20
-28.81118471143938
 30
0.0
  0
SPLINE
  5
4C
330
1F
100
AcDbEntity
  8
LAYER_1
 62
     7
100
AcDbSpline
210
0.0
220
0.0
230
1.0
 70
    11
 71
     3
 72
    44
 73
    40
 74
     0
 42
0.0000000001
 43
0.0000000001
 12
1.0
 22
0.0
 32
0.0
 13
1.0
 23
0.0
 33
0.0
 40
0.0
 40
0.0
 40
0.0
 40
0.0
 40
1.0
 40
1.0
 40
1.0
 40
2.0
 40
2.0
 40
2.0
 40
3.0
 40
3.0
 40
3.0
 40
4.0
 40
4.0
 40
4.0
 40
5.0
 40
5.0
 40
5.0
 40
6.0
 40
6.0
 40
6.0
 40
7.0
 40
7.0
 40
7.0
 40
8.0
 40
8.0
 40
8.0
 40
9.0
 40
9.0
 40
9.0
 40
10.0
 40
10.0
 40
10.0
 40
11.0
 40
11.0
 40
11.0
 40
12.0
 40
12.0
 40
12.0
 40
13.0
 40
13.0
 40
13.0
 40
13.0
 10
63.65562070454036
 20
-43.05966469781924
 30
0.0
 10
63.66886413580452
 20
-43.08268762456117
 30
0.0
 10
63.69057496565752
 20
-43.10084704550217
 30
0.0
 10
63.70558535406556
 20
-43.11809674593328
 30
0.0
 10
63.98084578670847
 20
-43.13893284452741
 30
0.0
 10
71.44375548152082
 20
-43.13235486545782
 30
0.0
 10
71.62295292727876
 20
-43.10843971283214
 30
0.0
 10
71.60626305485374
 20
-43.06769473077864
 30
0.0
 10
71.59886282840054
 20
-43.04164523387976
 30
0.0
 10
71.58577684876342
 20
-43.01886723189048
 30
0.0
 10
69.07725753289863
 20
-38.65525285077818
 30
0.0
 10
66.56835333527837
 20
-34.29186589979238
 30
0.0
 10
64.0588193311532
 20
-29.9288463359359
 30
0.0
 10
64.05301111559199
 20
-29.91875193720501
 30
0.0
 10
64.03773830780642
 20
-29.91411586153122
 30
0.0
 10
64.01531019832095
 20
-29.89924543012501
 30
0.0
 10
63.96653518330803
 20
-29.93776859477968
 30
0.0
 10
63.9125292753655
 20
-29.9774988885728
 30
0.0
 10
63.86175987308219
 20
-30.02100802140506
 30
0.0
 10
63.20621877281661
 20
-30.58270795218387
 30
0.0
 10
62.55139495218477
 20
-31.14528261422155
 30
0.0
 10
61.89552145404154
 20
-31.70659766324553
 30
0.0
 10
61.82360104991067
 20
-31.76816124926765
 30
0.0
 10
61.7577862699683
 20
-31.8391019543885
 30
0.0
 10
61.66322782084968
 20
-31.88374823785781
 30
0.0
 10
61.60049209494078
 20
-31.85937822497655
 30
0.0
 10
61.53670669152046
 20
-31.83614536273232
 30
0.0
 10
61.4741109226118
 20
-31.81006087658306
 30
0.0
 10
59.96413232836689
 20
-31.18060426246737
 30
0.0
 10
58.45431118574836
 20
-30.5507627665975
 30
0.0
 10
56.94426261300268
 20
-29.92146360410852
 30
0.0
 10
56.88276900548131
 20
-29.89583397821421
 30
0.0
 10
56.81940347306493
 20
-29.87470047099217
 30
0.0
 10
56.75061460684215
 20
-29.8491233289731
 30
0.0
 10
56.62099692885459
 20
-30.0475998516842
 30
0.0
 10
56.51158554295496
 20
-30.2430148149883
 30
0.0
 10
56.40457092070542
 20
-30.44810430601872
 30
0.0
 10
58.82267801362006
 20
-34.65428455510198
 30
0.0
 10
61.23884320313955
 20
-38.85714082539975
 30
0.0
 10
63.65562070454036
 20
-43.05966469781924
 30
0.0
  0
SPLINE
  5
4D
330
1F
100
AcDbEntity
  8
LAYER_1
 62
     7
100
AcDbSpline
210
0.0
220
0.0
230
1.0
 70
     8
 71
     3
 72
     8
 73
     4
 74
     0
 42
0.0000000001
 43
0.0000000001
 12
1.0
 22
0.0
 32
0.0
 13
1.0
 23
0.0
 33
0.0
 40
0.0
 40
0.0
 40
0.0
 40
0.0
 40
1.0
 40
1.0
 40
1.0
 40
1.0
 10
42.29232291977524
 20
-48.64841018593319
 30
0.0
 10
42.27195917606092
 20
-48.62844881859856
 30
0.0
 10
42.25287253998581
 20
-48.6073503006269
 30
0.0
 10
42.2333135490296
 20
-48.5866016751584
 30
0.0
  0
SPLINE
  5
4E
330
1F
100
AcDbEntity
  8
LAYER_1
 62
     7
100
AcDbSpline
210
0.0
220
0.0
230
1.0
 70
     8
 71
     3
 72
     8
 73
     4
 74
     0
 42
0.0000000001
 43
0.0000000001
 12
1.0
 22
0.0
 32
0.0
 13
1.0
 23
0.0
 33
0.0
 40
0.0
 40
0.0
 40
0.0
 40
0.0
 40
1.0
 40
1.0
 40
1.0
 40
1.0
 10
43.79661576083559
 20
-49.26345122889794
 30
0.0
 10
43.21070326880223
 20
-49.26345122889794
 30
0.0
 10
42.68017876010175
 20
-49.02844592880257
 30
0.0
 10
42.29232291977524
 20
-48.64841018593319
 30
0.0
  0
POLYLINE
  5
4F
330
1F
100
AcDbEntity
  8
LAYER_1
 62
     7
100
AcDb2dPolyline
 66
     1
 10
0.0
 20
0.0
 30
0.0
  0
VERTEX
  5
50
330
4F
100
AcDbEntity
  8
LAYER_1
 62
     7
100
AcDbVertex
100
AcDb2dVertex
 10
43.7969656533394
 20
-44.96260756294427
 30
0.0
  0
VERTEX
  5
51
330
4F
100
AcDbEntity
  8
LAYER_1
 62
     7
100
AcDbVertex
100
AcDb2dVertex
 10
43.79661576083559
 20
-44.9625900683194
 30
0.0
  0
VERTEX
  5
52
330
4F
100
AcDbEntity
  8
LAYER_1
 62
     7
100
AcDbVertex
100
AcDb2dVertex
 10
43.79626586833211
 20
-44.96260756294427
 30
0.0
  0
SEQEND
  5
53
330
4F
100
AcDbEntity
  8
LAYER_1
 62
     7
  0
ENDSEC
  0
SECTION
  2
OBJECTS
  0
DICTIONARY
  5
C
330
0
100
AcDbDictionary
  3
ACAD_GROUP
350
D
  3
ACAD_LAYOUT
350
1A
  3
ACAD_MATERIAL
350
3B
  3
ACAD_MLEADERSTYLE
350
76
  3
ACAD_MLINESTYLE
350
17
  3
ACAD_PLOTSETTINGS
350
19
  3
ACAD_VISUALSTYLE
350
2A
  3
ACDBHEADERROUNDTRIPXREC
350
54
  3
ACDBVARIABLEDICTIONARY
350
74
  0
DICTIONARY
  5
D
102
{ACAD_REACTORS
330
C
102
}
330
C
100
AcDbDictionary
  0
DICTIONARY
  5
1A
102
{ACAD_REACTORS
330
C
102
}
330
C
100
AcDbDictionary
  0
DICTIONARY
  5
3B
102
{ACAD_REACTORS
330
C
102
}
330
C
100
AcDbDictionary
  3
BYBLOCK
350
3D
  3
BYLAYER
350
3C
  3
GLOBAL
350
3E
  0
DICTIONARY
  5
76
102
{ACAD_REACTORS
330
C
102
}
330
C
100
AcDbDictionary
  0
DICTIONARY
  5
17
102
{ACAD_REACTORS
330
C
102
}
330
C
100
AcDbDictionary
  3
STANDARD
350
18
  0
DICTIONARY
  5
19
102
{ACAD_REACTORS
330
C
102
}
330
C
100
AcDbDictionary
  0
DICTIONARY
  5
2A
102
{ACAD_REACTORS
330
C
102
}
330
C
100
AcDbDictionary
  3
2DWIREFRAME
350
2F
  3
3DWIREFRAME
350
30
  3
3D_HIDDEN
350
31
  3
BASIC
350
32
  3
BRIGHTEN
350
36
  3
COLORCHANGE
350
3A
  3
CONCEPTUAL
350
34
  3
DIM
350
35
  3
FACEPATTERN
350
39
  3
FLAT
350
2B
  3
FLATWITHEDGES
350
2C
  3
GOURAUD
350
2D
  3
GOURAUDWITHEDGES
350
2E
  3
LINEPATTERN
350
38
  3
REALISTIC
350
33
  3
THICKEN
350
37
  0
DICTIONARY
  5
54
102
{ACAD_REACTORS
330
C
102
}
330
C
100
AcDbDictionary
  3
CEPSNTYPE
350
5D
  3
DIMSTYLEDATA
350
73
  3
FINGERPRINTGUID
350
5E
  3
HYPERLINKBASE
350
57
  3
INSUNITS
350
5C
  3
LAYOUTDICT
350
59
  3
LWETCUNION
350
5B
  3
PLOTSETDICT
350
5A
  3
PSVPSCALE
350
60
  3
PUCSBASE
350
63
  3
PUCSORGBACK
350
69
  3
PUCSORGBOTTOM
350
65
  3
PUCSORGFRONT
350
68
  3
PUCSORGLEFT
350
66
  3
PUCSORGRIGHT
350
67
  3
PUCSORGTOP
350
64
  3
PUCSORTHOREF
350
61
  3
PUCSORTHOVIEW
350
62
  3
STYLESHEET
350
58
  3
TSTACKALIGN
350
55
  3
TSTACKSIZE
350
56
  3
UCSBASE
350
6C
  3
UCSORGBACK
350
72
  3
UCSORGBOTTOM
350
6E
  3
UCSORGFRONT
350
71
  3
UCSORGLEFT
350
6F
  3
UCSORGRIGHT
350
70
  3
UCSORGTOP
350
6D
  3
UCSORTHOREF
350
6A
  3
UCSORTHOVIEW
350
6B
  3
VERSIONGUID
350
5F
  0
DICTIONARY
  5
74
102
{ACAD_REACTORS
330
C
102
}
330
C
100
AcDbDictionary
  3
DIMASSOC
350
77
  3
HIDETEXT
350
78
  0
MATERIAL
  5
3D
102
{ACAD_REACTORS
330
3B
102
}
102
{ACAD_XDICTIONARY
360
7B
102
}
330
3B
100
AcDbMaterial
  1
ByBlock
  0
MATERIAL
  5
3C
102
{ACAD_REACTORS
330
3B
102
}
102
{ACAD_XDICTIONARY
360
79
102
}
330
3B
100
AcDbMaterial
  1
ByLayer
  0
MATERIAL
  5
3E
102
{ACAD_REACTORS
330
3B
102
}
102
{ACAD_XDICTIONARY
360
7D
102
}
330
3B
100
AcDbMaterial
  1
Global
  0
MLINESTYLE
  5
18
102
{ACAD_REACTORS
330
17
102
}
330
17
100
AcDbMlineStyle
  2
Standard
 70
     0
  3

 62
   256
 51
90.0
 52
90.0
 71
     2
 49
0.5
 62
   256
  6
BYLAYER
 49
-0.5
 62
   256
  6
BYLAYER
  0
ACAD_PROXY_OBJECT
  5
2F
102
{ACAD_REACTORS
330
2A
102
}
330
2A
100
AcDbProxyObject
 90
      499
 91
      501
 93
      436
310
42CC9915DA5C99599C985B595049028333333333333E3BF0000000000000FB0107901411070040501600405405064090741402480A0340
1001
ACAD
1000
AcDbSavedByObjectVersion
1070
     0
  0
ACAD_PROXY_OBJECT
  5
30
102
{ACAD_REACTORS
330
2A
102
}
330
2A
100
AcDbProxyObject
 90
      499
 91
      501
 93
      436
310
42CCD915DA5C99599C985B595059028333333333333E3BF0000000000000FB0107901411070040501600405405064090741402480A0340
1001
ACAD
1000
AcDbSavedByObjectVersion
1070
     0
  0
ACAD_PROXY_OBJECT
  5
31
102
{ACAD_REACTORS
330
2A
102
}
330
2A
100
AcDbProxyObject
 90
      499
 91
      501
 93
      500
310
424CD108121A5919195B90640502408333333333333E3BF0000000000000FB01079024090700405020000000000001110200405405064090740C02480A0340
1001
ACAD
1000
AcDbSavedByObjectVersion
1070
     0
  0
ACAD_PROXY_OBJECT
  5
32
102
{ACAD_REACTORS
330
2A
102
}
330
2A
100
AcDbProxyObject
 90
      499
 91
      501
 93
      388
310
4150985CDA58D07406404333333333333E3BF0000000000000FB0107A41107004050150841D405064090741402480A0350
1001
ACAD
1000
AcDbSavedByObjectVersion
1070
     0
  0
ACAD_PROXY_OBJECT
  5
36
102
{ACAD_REACTORS
330
2A
102
}
330
2A
100
AcDbProxyObject
 90
      499
 91
      501
 93
      428
310
42109C9A59DA1D195B90C409028333333333333E3BF0000000000000FB010790141107004050150841D405064090741402480A029950
1001
ACAD
1000
AcDbSavedByObjectVersion
1070
     0
  0
ACAD_PROXY_OBJECT
  5
3A
102
{ACAD_REACTORS
330
2A
102
}
330
2A
100
AcDbProxyObject
 90
      499
 91
      501
 93
      452
310
42D0DBDB1BDC90DA185B99D95104090240C333333333333E3BF0000000000000FB0108901411070040501508421405064090741402480A0350
1001
ACAD
1000
AcDbSavedByObjectVersion
1070
     0
  0
ACAD_PROXY_OBJECT
  5
34
102
{ACAD_REACTORS
330
2A
102
}
330
2A
100
AcDbProxyObject
 90
      499
 91
      501
 93
      500
310
4290DBDB98D95C1D1D585B10940D028333333333333E3BF0000000000000FB0107902409070040501000000000000111010841D405064090740C02480A0340
1001
ACAD
1000
AcDbSavedByObjectVersion
1070
     0
  0
ACAD_PROXY_OBJECT
  5
35
102
{ACAD_REACTORS
330
2A
102
}
330
2A
100
AcDbProxyObject
 90
      499
 91
      501
 93
      412
310
40D11A5B50B409028333333333333E3BF0000000000000FB010790141107004050150841D405064090741402480A02677FFFFFD0
1001
ACAD
1000
AcDbSavedByObjectVersion
1070
     0
  0
ACAD_PROXY_OBJECT
  5
39
102
{ACAD_REACTORS
330
2A
102
}
330
2A
100
AcDbProxyObject
 90
      499
 91
      501
 93
      444
310
42D19858D95C185D1D195C9B90F409028333333333333E3BF0000000000000FB010790141107004050150841D405064090741402480A0350
1001
ACAD
1000
AcDbSavedByObjectVersion
1070
     0
  0
ACAD_PROXY_OBJECT
  5
2B
102
{ACAD_REACTORS
330
2A
102
}
330
2A
100
AcDbProxyObject
 90
      499
 91
      501
 93
      388
310
41119B185D240901404333333333333E3BF0000000000000F9010740A41107004050150841D405064090741402480A1B50
1001
ACAD
1000
AcDbSavedByObjectVersion
1070
     0
  0
ACAD_PROXY_OBJECT
  5
2C
102
{ACAD_REACTORS
330
2A
102
}
330
2A
100
AcDbProxyObject
 90
      499
 91
      501
 93
      476
310
43519B185D15DA5D1A115919D95CD0140901404333333333333E3BF0000000000000F9010740901411070040501600405405064090741402480A1B50
1001
ACAD
1000
AcDbSavedByObjectVersion
1070
     0
  0
ACAD_PROXY_OBJECT
  5
2D
102
{ACAD_REACTORS
330
2A
102
}
330
2A
100
AcDbProxyObject
 90
      499
 91
      501
 93
      412
310
41D1DBDD5C985D5910240902404333333333333E3BF0000000000000F9010740A411070040501641D405064090741402480A1B50
1001
ACAD
1000
AcDbSavedByObjectVersion
1070
     0
  0
ACAD_PROXY_OBJECT
  5
2E
102
{ACAD_REACTORS
330
2A
102
}
330
2A
100
AcDbProxyObject
 90
      499
 91
      501
 93
      500
310
4411DBDD5C985D5915DA5D1A115919D95CD0340902404333333333333E3BF0000000000000F9010740901411070040501600405405064090741402480A1B50
1001
ACAD
1000
AcDbSavedByObjectVersion
1070
     0
  0
ACAD_PROXY_OBJECT
  5
38
102
{ACAD_REACTORS
330
2A
102
}
330
2A
100
AcDbProxyObject
 90
      499
 91
      501
 93
      444
310
42D31A5B995C185D1D195C9B90E409028333333333333E3BF0000000000000FB010790141107004050750841D405064090741402483A0350
1001
ACAD
1000
AcDbSavedByObjectVersion
1070
     0
  0
ACAD_PROXY_OBJECT
  5
33
102
{ACAD_REACTORS
330
2A
102
}
330
2A
100
AcDbProxyObject
 90
      499
 91
      501
 93
      420
310
425499585B1A5CDD1A58D08409028333333333333E3BF0000000000000FB01079019070040501508421405064090741402480A1B40
1001
ACAD
1000
AcDbSavedByObjectVersion
1070
     0
  0
ACAD_PROXY_OBJECT
  5
37
102
{ACAD_REACTORS
330
2A
102
}
330
2A
100
AcDbProxyObject
 90
      499
 91
      501
 93
      412
310
41D51A1A58DAD95B90D409028333333333333E3BF0000000000000FB010790141107004050150C41D405064090741402480A0350
1001
ACAD
1000
AcDbSavedByObjectVersion
1070
     0
  0
XRECORD
  5
5D
102
{ACAD_REACTORS
330
54
102
}
330
54
100
AcDbXrecord
 90
        0
  0
XRECORD
  5
73
102
{ACAD_REACTORS
330
54
102
}
330
54
100
AcDbXrecord
1000
DSTYLE
1002
{
1070
   340
340
11
1002
}
  0
XRECORD
  5
5E
102
{ACAD_REACTORS
330
54
102
}
330
54
100
AcDbXrecord
  1
{794B2ABB-D0AC-56DC-12B1-6F3C16DE932E}
  0
XRECORD
  5
57
102
{ACAD_REACTORS
330
54
102
}
330
54
100
AcDbXrecord
  1

  0
XRECORD
  5
5C
102
{ACAD_REACTORS
330
54
102
}
330
54
100
AcDbXrecord
 90
        1
  0
XRECORD
  5
59
102
{ACAD_REACTORS
330
54
102
}
330
54
100
AcDbXrecord
340
1A
  0
XRECORD
  5
5B
102
{ACAD_REACTORS
330
54
102
}
330
54
100
AcDbXrecord
 90
    10269
  0
XRECORD
  5
5A
102
{ACAD_REACTORS
330
54
102
}
330
54
100
AcDbXrecord
340
19
  0
XRECORD
  5
60
102
{ACAD_REACTORS
330
54
102
}
330
54
100
AcDbXrecord
 40
0.0
  0
XRECORD
  5
63
102
{ACAD_REACTORS
330
54
102
}
330
54
100
AcDbXrecord
340
0
  0
XRECORD
  5
69
102
{ACAD_REACTORS
330
54
102
}
330
54
100
AcDbXrecord
 10
0.0
 20
0.0
 30
0.0
  0
XRECORD
  5
65
102
{ACAD_REACTORS
330
54
102
}
330
54
100
AcDbXrecord
 10
0.0
 20
0.0
 30
0.0
  0
XRECORD
  5
68
102
{ACAD_REACTORS
330
54
102
}
330
54
100
AcDbXrecord
 10
0.0
 20
0.0
 30
0.0
  0
XRECORD
  5
66
102
{ACAD_REACTORS
330
54
102
}
330
54
100
AcDbXrecord
 10
0.0
 20
0.0
 30
0.0
  0
XRECORD
  5
67
102
{ACAD_REACTORS
330
54
102
}
330
54
100
AcDbXrecord
 10
0.0
 20
0.0
 30
0.0
  0
XRECORD
  5
64
102
{ACAD_REACTORS
330
54
102
}
330
54
100
AcDbXrecord
 10
0.0
 20
0.0
 30
0.0
  0
XRECORD
  5
61
102
{ACAD_REACTORS
330
54
102
}
330
54
100
AcDbXrecord
340
0
  0
XRECORD
  5
62
102
{ACAD_REACTORS
330
54
102
}
330
54
100
AcDbXrecord
 70
     0
  0
XRECORD
  5
58
102
{ACAD_REACTORS
330
54
102
}
330
54
100
AcDbXrecord
  1

  0
XRECORD
  5
55
102
{ACAD_REACTORS
330
54
102
}
330
54
100
AcDbXrecord
 90
        1
  0
XRECORD
  5
56
102
{ACAD_REACTORS
330
54
102
}
330
54
100
AcDbXrecord
 90
       70
  0
XRECORD
  5
6C
102
{ACAD_REACTORS
330
54
102
}
330
54
100
AcDbXrecord
340
0
  0
XRECORD
  5
72
102
{ACAD_REACTORS
330
54
102
}
330
54
100
AcDbXrecord
 10
0.0
 20
0.0
 30
0.0
  0
XRECORD
  5
6E
102
{ACAD_REACTORS
330
54
102
}
330
54
100
AcDbXrecord
 10
0.0
 20
0.0
 30
0.0
  0
XRECORD
  5
71
102
{ACAD_REACTORS
330
54
102
}
330
54
100
AcDbXrecord
 10
0.0
 20
0.0
 30
0.0
  0
XRECORD
  5
6F
102
{ACAD_REACTORS
330
54
102
}
330
54
100
AcDbXrecord
 10
0.0
 20
0.0
 30
0.0
  0
XRECORD
  5
70
102
{ACAD_REACTORS
330
54
102
}
330
54
100
AcDbXrecord
 10
0.0
 20
0.0
 30
0.0
  0
XRECORD
  5
6D
102
{ACAD_REACTORS
330
54
102
}
330
54
100
AcDbXrecord
 10
0.0
 20
0.0
 30
0.0
  0
XRECORD
  5
6A
102
{ACAD_REACTORS
330
54
102
}
330
54
100
AcDbXrecord
340
0
  0
XRECORD
  5
6B
102
{ACAD_REACTORS
330
54
102
}
330
54
100
AcDbXrecord
 70
     0
  0
XRECORD
  5
5F
102
{ACAD_REACTORS
330
54
102
}
330
54
100
AcDbXrecord
  1
{FAEB1C32-E019-11D5-929B-00C0DF256EC4}
  0
DICTIONARYVAR
  5
77
102
{ACAD_REACTORS
330
74
102
}
330
74
100
DictionaryVariables
280
     0
  1
2
  0
DICTIONARYVAR
  5
78
102
{ACAD_REACTORS
330
74
102
}
330
74
100
DictionaryVariables
280
     0
  1
1
  0
DICTIONARY
  5
7B
330
3D
100
AcDbDictionary
280
     1
  3
ACAD_XREC_ROUNDTRIP
360
7C
  0
DICTIONARY
  5
79
330
3C
100
AcDbDictionary
280
     1
  3
ACAD_XREC_ROUNDTRIP
360
7A
  0
DICTIONARY
  5
7D
330
3E
100
AcDbDictionary
280
     1
  3
ACAD_XREC_ROUNDTRIP
360
7E
  0
XRECORD
  5
7C
102
{ACAD_REACTORS
330
7B
102
}
330
7B
100
AcDbXrecord
102
MATERIAL
148
0.0
149
0.0
149
0.0
 93
        0
 94
      127
282
     0
 72
     1
 77
     1
171
     1
175
     1
179
     1
273
     0
  0
XRECORD
  5
7A
102
{ACAD_REACTORS
330
79
102
}
330
79
100
AcDbXrecord
102
MATERIAL
148
0.0
149
0.0
149
0.0
 93
        0
 94
      127
282
     0
 72
     1
 77
     1
171
     1
175
     1
179
     1
273
     0
  0
XRECORD
  5
7E
102
{ACAD_REACTORS
330
7D
102
}
330
7D
100
AcDbXrecord
102
MATERIAL
148
0.0
149
0.0
149
0.0
 93
        0
 94
      127
282
     0
 72
     1
 77
     1
171
     1
175
     1
179
     1
273
     0
  0
ENDSEC
  0
EOF
