  0
SECTION
  2
HEADER
  9
$ACADVER
  1
AC1024
  9
$ACADMAINTVER
 70
     6
  9
$DWGCODEPAGE
  3
UNDEFINED
  9
$INSBASE
 10
0.0
 20
0.0
 30
0.0
  9
$EXTMIN
 10
1.000000000000000E+20
 20
1.000000000000000E+20
 30
1.000000000000000E+20
  9
$EXTMAX
 10
-1.000000000000000E+20
 20
-1.000000000000000E+20
 30
-1.000000000000000E+20
  9
$LIMMIN
 10
0.0
 20
0.0
  9
$LIMMAX
 10
12.0
 20
9.0
  9
$ORTHOMODE
 70
     0
  9
$REGENMODE
 70
     1
  9
$FILLMODE
 70
     1
  9
$QTEXTMODE
 70
     0
  9
$MIRRTEXT
 70
     1
  9
$LTSCALE
 40
1.0
  9
$ATTMODE
 70
     1
  9
$TEXTSIZE
 40
0.2
  9
$TRACEWID
 40
0.05
  9
$TEXTSTYLE
  7
Standard
  9
$CLAYER
  8
0
  9
$CELTYPE
  6
ByLayer
  9
$CECOLOR
 62
   256
  9
$CELTSCALE
 40
1.0
  9
$DISPSILH
 70
     0
  9
$DIMSCALE
 40
1.0
  9
$DIMASZ
 40
0.18
  9
$DIMEXO
 40
0.0625
  9
$DIMDLI
 40
0.38
  9
$DIMRND
 40
0.0
  9
$DIMDLE
 40
0.0
  9
$DIMEXE
 40
0.18
  9
$DIMTP
 40
0.0
  9
$DIMTM
 40
0.0
  9
$DIMTXT
 40
0.18
  9
$DIMCEN
 40
0.09
  9
$DIMTSZ
 40
0.0
  9
$DIMTOL
 70
     0
  9
$DIMLIM
 70
     0
  9
$DIMTIH
 70
     1
  9
$DIMTOH
 70
     1
  9
$DIMSE1
 70
     0
  9
$DIMSE2
 70
     0
  9
$DIMTAD
 70
     0
  9
$DIMZIN
 70
     0
  9
$DIMBLK
  1

  9
$DIMASO
 70
     1
  9
$DIMSHO
 70
     1
  9
$DIMPOST
  1

  9
$DIMAPOST
  1

  9
$DIMALT
 70
     0
  9
$DIMALTD
 70
     2
  9
$DIMALTF
 40
25.4
  9
$DIMLFAC
 40
1.0
  9
$DIMTOFL
 70
     0
  9
$DIMTVP
 40
0.0
  9
$DIMTIX
 70
     0
  9
$DIMSOXD
 70
     0
  9
$DIMSAH
 70
     0
  9
$DIMBLK1
  1

  9
$DIMBLK2
  1

  9
$DIMSTYLE
  2
Standard
  9
$DIMCLRD
 70
     0
  9
$DIMCLRE
 70
     0
  9
$DIMCLRT
 70
     0
  9
$DIMTFAC
 40
1.0
  9
$DIMGAP
 40
0.09
  9
$DIMJUST
 70
     0
  9
$DIMSD1
 70
     0
  9
$DIMSD2
 70
     0
  9
$DIMTOLJ
 70
     1
  9
$DIMTZIN
 70
     0
  9
$DIMALTZ
 70
     0
  9
$DIMALTTZ
 70
     0
  9
$DIMUPT
 70
     0
  9
$DIMDEC
 70
     4
  9
$DIMTDEC
 70
     4
  9
$DIMALTU
 70
     2
  9
$DIMALTTD
 70
     2
  9
$DIMTXSTY
  7
Standard
  9
$DIMAUNIT
 70
     0
  9
$DIMADEC
 70
     0
  9
$DIMALTRND
 40
0.0
  9
$DIMAZIN
 70
     0
  9
$DIMDSEP
 70
    46
  9
$DIMATFIT
 70
     3
  9
$DIMFRAC
 70
     0
  9
$DIMLDRBLK
  1

  9
$DIMLUNIT
 70
     2
  9
$DIMLWD
 70
    -2
  9
$DIMLWE
 70
    -2
  9
$DIMTMOVE
 70
     0
  9
$DIMFXL
 40
1.0
  9
$DIMFXLON
 70
     0
  9
$DIMJOGANG
 40
0.7853981633974483
  9
$DIMTFILL
 70
     0
  9
$DIMTFILLCLR
 70
     0
  9
$DIMARCSYM
 70
     0
  9
$DIMLTYPE
  6

  9
$DIMLTEX1
  6

  9
$DIMLTEX2
  6

  9
$DIMTXTDIRECTION
 70
     0
  9
$LUNITS
 70
     2
  9
$LUPREC
 70
     4
  9
$SKETCHINC
 40
0.1
  9
$FILLETRAD
 40
0.5
  9
$AUNITS
 70
     0
  9
$AUPREC
 70
     0
  9
$MENU
  1
.
  9
$ELEVATION
 40
0.0
  9
$PELEVATION
 40
0.0
  9
$THICKNESS
 40
0.0
  9
$LIMCHECK
 70
     0
  9
$CHAMFERA
 40
0.5
  9
$CHAMFERB
 40
0.5
  9
$CHAMFERC
 40
1.0
  9
$CHAMFERD
 40
0.0
  9
$SKPOLY
 70
     0
  9
$TDCREATE
 40
2457582.016550926
  9
$TDUCREATE
 40
2457581.933217593
  9
$TDUPDATE
 40
2457582.016550926
  9
$TDUUPDATE
 40
2457581.933217593
  9
$TDINDWG
 40
0.0000000116
  9
$TDUSRTIMER
 40
0.0000000116
  9
$USRTIMER
 70
     1
  9
$ANGBASE
 50
0.0
  9
$ANGDIR
 70
     0
  9
$PDMODE
 70
     0
  9
$PDSIZE
 40
0.0
  9
$PLINEWID
 40
0.0
  9
$SPLFRAME
 70
     0
  9
$SPLINETYPE
 70
     6
  9
$SPLINESEGS
 70
     8
  9
$HANDSEED
  5
A6
  9
$SURFTAB1
 70
     6
  9
$SURFTAB2
 70
     6
  9
$SURFTYPE
 70
     6
  9
$SURFU
 70
     6
  9
$SURFV
 70
     6
  9
$UCSBASE
  2

  9
$UCSNAME
  2

  9
$UCSORG
 10
0.0
 20
0.0
 30
0.0
  9
$UCSXDIR
 10
1.0
 20
0.0
 30
0.0
  9
$UCSYDIR
 10
0.0
 20
1.0
 30
0.0
  9
$UCSORTHOREF
  2

  9
$UCSORTHOVIEW
 70
     0
  9
$UCSORGTOP
 10
0.0
 20
0.0
 30
0.0
  9
$UCSORGBOTTOM
 10
0.0
 20
0.0
 30
0.0
  9
$UCSORGLEFT
 10
0.0
 20
0.0
 30
0.0
  9
$UCSORGRIGHT
 10
0.0
 20
0.0
 30
0.0
  9
$UCSORGFRONT
 10
0.0
 20
0.0
 30
0.0
  9
$UCSORGBACK
 10
0.0
 20
0.0
 30
0.0
  9
$PUCSBASE
  2

  9
$PUCSNAME
  2

  9
$PUCSORG
 10
0.0
 20
0.0
 30
0.0
  9
$PUCSXDIR
 10
1.0
 20
0.0
 30
0.0
  9
$PUCSYDIR
 10
0.0
 20
1.0
 30
0.0
  9
$PUCSORTHOREF
  2

  9
$PUCSORTHOVIEW
 70
     0
  9
$PUCSORGTOP
 10
0.0
 20
0.0
 30
0.0
  9
$PUCSORGBOTTOM
 10
0.0
 20
0.0
 30
0.0
  9
$PUCSORGLEFT
 10
0.0
 20
0.0
 30
0.0
  9
$PUCSORGRIGHT
 10
0.0
 20
0.0
 30
0.0
  9
$PUCSORGFRONT
 10
0.0
 20
0.0
 30
0.0
  9
$PUCSORGBACK
 10
0.0
 20
0.0
 30
0.0
  9
$USERI1
 70
     0
  9
$USERI2
 70
     0
  9
$USERI3
 70
     0
  9
$USERI4
 70
     0
  9
$USERI5
 70
     0
  9
$USERR1
 40
0.0
  9
$USERR2
 40
0.0
  9
$USERR3
 40
0.0
  9
$USERR4
 40
0.0
  9
$USERR5
 40
0.0
  9
$WORLDVIEW
 70
     1
  9
$SHADEDGE
 70
     3
  9
$SHADEDIF
 70
    70
  9
$TILEMODE
 70
     1
  9
$MAXACTVP
 70
    64
  9
$PINSBASE
 10
0.0
 20
0.0
 30
0.0
  9
$PLIMCHECK
 70
     0
  9
$PEXTMIN
 10
1.000000000000000E+20
 20
1.000000000000000E+20
 30
1.000000000000000E+20
  9
$PEXTMAX
 10
-1.000000000000000E+20
 20
-1.000000000000000E+20
 30
-1.000000000000000E+20
  9
$PLIMMIN
 10
0.0
 20
0.0
  9
$PLIMMAX
 10
12.0
 20
9.0
  9
$UNITMODE
 70
     0
  9
$VISRETAIN
 70
     1
  9
$PLINEGEN
 70
     0
  9
$PSLTSCALE
 70
     1
  9
$TREEDEPTH
 70
  3020
  9
$CMLSTYLE
  2
Standard
  9
$CMLJUST
 70
     0
  9
$CMLSCALE
 40
1.0
  9
$PROXYGRAPHICS
 70
     1
  9
$MEASUREMENT
 70
     0
  9
$CELWEIGHT
370
    -1
  9
$ENDCAPS
280
     0
  9
$JOINSTYLE
280
     0
  9
$LWDISPLAY
290
     1
  9
$INSUNITS
 70
     1
  9
$HYPERLINKBASE
  1

  9
$STYLESHEET
  1

  9
$XEDIT
290
     1
  9
$CEPSNTYPE
380
     0
  9
$PSTYLEMODE
290
     1
  9
$FINGERPRINTGUID
  2
{EC59B1BC-FD11-61D8-4A0F-9E00681DB474}
  9
$VERSIONGUID
  2
{FAEB1C32-E019-11D5-929B-00C0DF256EC4}
  9
$EXTNAMES
290
     1
  9
$PSVPSCALE
 40
0.0
  9
$OLESTARTUP
290
     0
  9
$SORTENTS
280
   127
  9
$INDEXCTL
280
     0
  9
$HIDETEXT
280
     1
  9
$XCLIPFRAME
280
     2
  9
$HALOGAP
280
     0
  9
$OBSCOLOR
 70
   257
  9
$OBSLTYPE
280
     0
  9
$INTERSECTIONDISPLAY
280
     0
  9
$INTERSECTIONCOLOR
 70
   257
  9
$DIMASSOC
280
     2
  9
$PROJECTNAME
  1

  9
$CAMERADISPLAY
290
     0
  9
$LENSLENGTH
 40
50.0
  9
$CAMERAHEIGHT
 40
0.0
  9
$STEPSPERSEC
 40
2.0
  9
$STEPSIZE
 40
6.0
  9
$3DDWFPREC
 40
2.0
  9
$PSOLWIDTH
 40
0.25
  9
$PSOLHEIGHT
 40
4.0
  9
$LOFTANG1
 40
1.570796326794897
  9
$LOFTANG2
 40
1.570796326794897
  9
$LOFTMAG1
 40
0.0
  9
$LOFTMAG2
 40
0.0
  9
$LOFTPARAM
 70
     7
  9
$LOFTNORMALS
280
     1
  9
$LATITUDE
 40
37.795
  9
$LONGITUDE
 40
-122.394
  9
$NORTHDIRECTION
 40
0.0
  9
$TIMEZONE
 70
 -8000
  9
$LIGHTGLYPHDISPLAY
280
     1
  9
$TILEMODELIGHTSYNCH
280
     1
  9
$CMATERIAL
347
3C
  9
$SOLIDHIST
280
     1
  9
$SHOWHIST
280
     1
  9
$DWFFRAME
280
     2
  9
$DGNFRAME
280
     2
  9
$REALWORLDSCALE
290
     1
  9
$INTERFERECOLOR
 62
   256
  9
$CSHADOW
280
     0
  9
$SHADOWPLANELOCATION
 40
0.0
  0
ENDSEC
  0
SECTION
  2
CLASSES
  0
CLASS
  1
ACDBDICTIONARYWDFLT
  2
AcDbDictionaryWithDefault
  3
ObjectDBX Classes
 90
        0
 91
        4
280
     0
281
     0
  0
CLASS
  1
VISUALSTYLE
  2
AcDbVisualStyle
  3
ObjectDBX Classes
 90
     4095
 91
        4
280
     0
281
     0
  0
CLASS
  1
MATERIAL
  2
AcDbMaterial
  3
ObjectDBX Classes
 90
     1153
 91
        4
280
     0
281
     0
  0
CLASS
  1
SUN
  2
AcDbSun
  3
SCENEOE
 90
     1024
 91
        4
280
     0
281
     0
  0
ENDSEC
  0
SECTION
  2
TABLES
  0
TABLE
  2
VPORT
  5
8
330
0
100
AcDbSymbolTable
 70
     1
  0
VPORT
  5
29
330
8
100
AcDbSymbolTableRecord
100
AcDbViewportTableRecord
  2
*Active
 70
     0
 10
0.0
 20
0.0
 11
1.0
 21
1.0
 12
0.0
 22
0.0
 13
0.0
 23
0.0
 14
0.5
 24
0.5
 15
0.5
 25
0.5
 16
0.0
 26
0.0
 36
1.0
 17
249.9994999375001
 27
-349.9996526902779
 37
0.0
 40
699.9993053805557
 41
0.7142849943303514
 42
50.0
 43
0.0
 44
0.0
 50
0.0
 51
0.0
 71
     0
 72
   100
 73
     1
 74
     3
 75
     0
 76
     0
 77
     0
 78
     0
281
     0
 65
     1
110
0.0
120
0.0
130
0.0
111
1.0
121
0.0
131
0.0
112
0.0
122
1.0
132
0.0
 79
     0
146
0.0
 60
     3
 61
     5
292
     1
282
     1
141
0.0
142
0.0
 63
   250
361
3F
  0
ENDTAB
  0
TABLE
  2
LTYPE
  5
5
330
0
100
AcDbSymbolTable
 70
     9
  0
LTYPE
  5
14
330
5
100
AcDbSymbolTableRecord
100
AcDbLinetypeTableRecord
  2
ByBlock
 70
     0
  3

 72
    65
 73
     0
 40
0.0
  0
LTYPE
  5
15
330
5
100
AcDbSymbolTableRecord
100
AcDbLinetypeTableRecord
  2
ByLayer
 70
     0
  3

 72
    65
 73
     0
 40
0.0
  0
LTYPE
  5
16
330
5
100
AcDbSymbolTableRecord
100
AcDbLinetypeTableRecord
  2
Continuous
 70
     0
  3
Solid line
 72
    65
 73
     0
 40
0.0
  0
LTYPE
  5
49
330
5
100
AcDbSymbolTableRecord
100
AcDbLinetypeTableRecord
  2
AI-Linetype-1
 70
     0
  3
Adobe Illustrator Linetype No. 1
 72
    65
 73
     2
 40
12.34722221913542
 49
5.29166666534375
 74
     0
 49
-7.055555553791667
 74
     0
  0
LTYPE
  5
4E
330
5
100
AcDbSymbolTableRecord
100
AcDbLinetypeTableRecord
  2
AI-Linetype-2
 70
     0
  3
Adobe Illustrator Linetype No. 2
 72
    65
 73
     2
 40
12.34722221913542
 49
5.29166666534375
 74
     0
 49
-7.055555553791667
 74
     0
  0
LTYPE
  5
53
330
5
100
AcDbSymbolTableRecord
100
AcDbLinetypeTableRecord
  2
AI-Linetype-3
 70
     0
  3
Adobe Illustrator Linetype No. 3
 72
    65
 73
     2
 40
12.34722221913542
 49
5.29166666534375
 74
     0
 49
-7.055555553791667
 74
     0
  0
LTYPE
  5
58
330
5
100
AcDbSymbolTableRecord
100
AcDbLinetypeTableRecord
  2
AI-Linetype-4
 70
     0
  3
Adobe Illustrator Linetype No. 4
 72
    65
 73
     2
 40
12.34722221913542
 49
5.29166666534375
 74
     0
 49
-7.055555553791667
 74
     0
  0
LTYPE
  5
5E
330
5
100
AcDbSymbolTableRecord
100
AcDbLinetypeTableRecord
  2
AI-Linetype-5
 70
     0
  3
Adobe Illustrator Linetype No. 5
 72
    65
 73
     2
 40
12.34722221913542
 49
5.29166666534375
 74
     0
 49
-7.055555553791667
 74
     0
  0
LTYPE
  5
64
330
5
100
AcDbSymbolTableRecord
100
AcDbLinetypeTableRecord
  2
AI-Linetype-6
 70
     0
  3
Adobe Illustrator Linetype No. 6
 72
    65
 73
     2
 40
12.34722221913542
 49
5.29166666534375
 74
     0
 49
-7.055555553791667
 74
     0
  0
LTYPE
  5
92
330
5
100
AcDbSymbolTableRecord
100
AcDbLinetypeTableRecord
  2
AI-Linetype-7
 70
     0
  3
Adobe Illustrator Linetype No. 7
 72
    65
 73
     2
 40
12.34722221913542
 49
5.29166666534375
 74
     0
 49
-7.055555553791667
 74
     0
  0
LTYPE
  5
99
330
5
100
AcDbSymbolTableRecord
100
AcDbLinetypeTableRecord
  2
AI-Linetype-8
 70
     0
  3
Adobe Illustrator Linetype No. 8
 72
    65
 73
     2
 40
12.34722221913542
 49
5.29166666534375
 74
     0
 49
-7.055555553791667
 74
     0
  0
ENDTAB
  0
TABLE
  2
LAYER
  5
2
330
0
100
AcDbSymbolTable
 70
     2
  0
LAYER
  5
10
330
2
100
AcDbSymbolTableRecord
100
AcDbLayerTableRecord
  2
0
 70
     0
 62
     7
  6
Continuous
370
    -3
390
F
347
3E
  0
LAYER
  5
40
330
2
100
AcDbSymbolTableRecord
100
AcDbLayerTableRecord
  2
Layer 1
 70
     0
 62
     7
  6
Continuous
370
    -3
390
F
347
3E
  0
ENDTAB
  0
TABLE
  2
STYLE
  5
3
330
0
100
AcDbSymbolTable
 70
     1
  0
STYLE
  5
11
330
3
100
AcDbSymbolTableRecord
100
AcDbTextStyleTableRecord
  2
Standard
 70
     0
 40
0.0
 41
1.0
 50
0.0
 71
     0
 42
0.2
  3
txt
  4

  0
ENDTAB
  0
TABLE
  2
VIEW
  5
6
330
0
100
AcDbSymbolTable
 70
     0
  0
ENDTAB
  0
TABLE
  2
UCS
  5
7
330
0
100
AcDbSymbolTable
 70
     0
  0
ENDTAB
  0
TABLE
  2
APPID
  5
9
330
0
100
AcDbSymbolTable
 70
     1
  0
APPID
  5
12
330
9
100
AcDbSymbolTableRecord
100
AcDbRegAppTableRecord
  2
ACAD
 70
     0
  0
ENDTAB
  0
TABLE
  2
DIMSTYLE
  5
A
330
0
100
AcDbSymbolTable
 70
     1
100
AcDbDimStyleTable
  0
DIMSTYLE
105
27
330
A
100
AcDbSymbolTableRecord
100
AcDbDimStyleTableRecord
  2
Standard
 70
     0
178
     0
340
11
  0
ENDTAB
  0
TABLE
  2
BLOCK_RECORD
  5
1
330
0
100
AcDbSymbolTable
 70
     3
  0
BLOCK_RECORD
  5
1F
330
1
100
AcDbSymbolTableRecord
100
AcDbBlockTableRecord
  2
*Model_Space
340
22
 70
     0
280
     1
281
     0
  0
BLOCK_RECORD
  5
1B
330
1
100
AcDbSymbolTableRecord
100
AcDbBlockTableRecord
  2
*Paper_Space
340
1E
 70
     0
280
     1
281
     0
  0
BLOCK_RECORD
  5
23
330
1
100
AcDbSymbolTableRecord
100
AcDbBlockTableRecord
  2
*Paper_Space0
340
26
 70
     0
280
     1
281
     0
  0
BLOCK_RECORD
  5
41
330
1
100
AcDbSymbolTableRecord
100
AcDbBlockTableRecord
  2
block 2
340
0
102
{BLKREFS
331
42
102
}
 70
     0
280
     1
281
     0
  0
BLOCK_RECORD
  5
76
330
1
100
AcDbSymbolTableRecord
100
AcDbBlockTableRecord
  2
block 3
340
0
102
{BLKREFS
331
77
102
}
 70
     0
280
     1
281
     0
  0
ENDTAB
  0
ENDSEC
  0
SECTION
  2
BLOCKS
  0
BLOCK
  5
20
330
1F
100
AcDbEntity
  8
0
100
AcDbBlockBegin
  2
*Model_Space
 70
     0
 10
0.0
 20
0.0
 30
0.0
  3
*Model_Space
  1

  0
ENDBLK
  5
21
330
1F
100
AcDbEntity
  8
0
100
AcDbBlockEnd
  0
BLOCK
  5
1C
330
1B
100
AcDbEntity
 67
     1
  8
0
100
AcDbBlockBegin
  2
*Paper_Space
 70
     0
 10
0.0
 20
0.0
 30
0.0
  3
*Paper_Space
  1

  0
ENDBLK
  5
1D
330
1B
100
AcDbEntity
 67
     1
  8
0
100
AcDbBlockEnd
  0
BLOCK
  5
24
330
23
100
AcDbEntity
  8
0
100
AcDbBlockBegin
  2
*Paper_Space0
 70
     0
 10
0.0
 20
0.0
 30
0.0
  3
*Paper_Space0
  1

  0
ENDBLK
  5
25
330
23
100
AcDbEntity
  8
0
100
AcDbBlockEnd
  0
BLOCK
  5
43
330
41
100
AcDbEntity
  8
0
100
AcDbBlockBegin
  2
block 2
 70
     0
 10
0.0
 20
0.0
 30
0.0
  3
block 2
  1

  0
POLYLINE
  5
45
330
41
100
AcDbEntity
  8
Layer 1
  6
AI-Linetype-1
 62
   179
420
  2301728
370
    35
100
AcDb2dPolyline
 66
     1
 10
0.0
 20
0.0
 30
0.0
  0
VERTEX
  5
46
330
45
100
AcDbEntity
  8
Layer 1
  6
AI-Linetype-1
 62
   179
420
  2301728
370
    35
100
AcDbVertex
100
AcDb2dVertex
 10
340.6582411484358
 20
-509.996383250743
 30
0.0
  0
VERTEX
  5
47
330
45
100
AcDbEntity
  8
Layer 1
  6
AI-Linetype-1
 62
   179
420
  2301728
370
    35
100
AcDbVertex
100
AcDb2dVertex
 10
340.6582411484358
 20
-510.0162356134761
 30
0.0
  0
VERTEX
  5
48
330
45
100
AcDbEntity
  8
Layer 1
  6
AI-Linetype-1
 62
   179
420
  2301728
370
    35
100
AcDbVertex
100
AcDb2dVertex
 10
158.0168904937194
 20
-510.0162356134761
 30
0.0
  0
SEQEND
  5
4A
330
45
100
AcDbEntity
  8
Layer 1
  6
AI-Linetype-1
 62
   179
420
  2301728
370
    35
  0
POLYLINE
  5
4B
330
41
100
AcDbEntity
  8
Layer 1
  6
AI-Linetype-2
 62
   179
420
  2301728
370
    35
100
AcDb2dPolyline
 66
     1
 10
0.0
 20
0.0
 30
0.0
  0
VERTEX
  5
4C
330
4B
100
AcDbEntity
  8
Layer 1
  6
AI-Linetype-2
 62
   179
420
  2301728
370
    35
100
AcDbVertex
100
AcDb2dVertex
 10
153.7621592498978
 20
-307.8285446748459
 30
0.0
  0
VERTEX
  5
4D
330
4B
100
AcDbEntity
  8
Layer 1
  6
AI-Linetype-2
 62
   179
420
  2301728
370
    35
100
AcDbVertex
100
AcDb2dVertex
 10
153.7621592498978
 20
-502.311951751123
 30
0.0
  0
SEQEND
  5
4F
330
4B
100
AcDbEntity
  8
Layer 1
  6
AI-Linetype-2
 62
   179
420
  2301728
370
    35
  0
POLYLINE
  5
50
330
41
100
AcDbEntity
  8
Layer 1
  6
AI-Linetype-3
 62
   179
420
  2301728
370
    35
100
AcDb2dPolyline
 66
     1
 10
0.0
 20
0.0
 30
0.0
  0
VERTEX
  5
51
330
50
100
AcDbEntity
  8
Layer 1
  6
AI-Linetype-3
 62
   179
420
  2301728
370
    35
100
AcDbVertex
100
AcDb2dVertex
 10
345.17325776704
 20
-307.8285446748459
 30
0.0
  0
VERTEX
  5
52
330
50
100
AcDbEntity
  8
Layer 1
  6
AI-Linetype-3
 62
   179
420
  2301728
370
    35
100
AcDbVertex
100
AcDb2dVertex
 10
345.17325776704
 20
-502.311951751123
 30
0.0
  0
SEQEND
  5
54
330
50
100
AcDbEntity
  8
Layer 1
  6
AI-Linetype-3
 62
   179
420
  2301728
370
    35
  0
POLYLINE
  5
55
330
41
100
AcDbEntity
  8
Layer 1
  6
AI-Linetype-4
 62
   179
420
  2301728
370
    35
100
AcDb2dPolyline
 66
     1
 10
0.0
 20
0.0
 30
0.0
  0
VERTEX
  5
56
330
55
100
AcDbEntity
  8
Layer 1
  6
AI-Linetype-4
 62
   179
420
  2301728
370
    35
100
AcDbVertex
100
AcDb2dVertex
 10
374.820479134138
 20
-307.8285446748459
 30
0.0
  0
VERTEX
  5
57
330
55
100
AcDbEntity
  8
Layer 1
  6
AI-Linetype-4
 62
   179
420
  2301728
370
    35
100
AcDbVertex
100
AcDb2dVertex
 10
374.820479134138
 20
-502.311951751123
 30
0.0
  0
SEQEND
  5
59
330
55
100
AcDbEntity
  8
Layer 1
  6
AI-Linetype-4
 62
   179
420
  2301728
370
    35
  0
POLYLINE
  5
5A
330
41
100
AcDbEntity
  8
Layer 1
  6
AI-Linetype-5
 62
   179
420
  2301728
370
    35
100
AcDb2dPolyline
 66
     1
 10
0.0
 20
0.0
 30
0.0
  0
VERTEX
  5
5B
330
5A
100
AcDbEntity
  8
Layer 1
  6
AI-Linetype-5
 62
   179
420
  2301728
370
    35
100
AcDbVertex
100
AcDb2dVertex
 10
341.363796703815
 20
-300.7729837380926
 30
0.0
  0
VERTEX
  5
5C
330
5A
100
AcDbEntity
  8
Layer 1
  6
AI-Linetype-5
 62
   179
420
  2301728
370
    35
100
AcDbVertex
100
AcDb2dVertex
 10
341.363796703815
 20
-300.7928361008263
 30
0.0
  0
VERTEX
  5
5D
330
5A
100
AcDbEntity
  8
Layer 1
  6
AI-Linetype-5
 62
   179
420
  2301728
370
    35
100
AcDbVertex
100
AcDb2dVertex
 10
157.3113349383403
 20
-300.7928361008263
 30
0.0
  0
SEQEND
  5
5F
330
5A
100
AcDbEntity
  8
Layer 1
  6
AI-Linetype-5
 62
   179
420
  2301728
370
    35
  0
POLYLINE
  5
60
330
41
100
AcDbEntity
  8
Layer 1
  6
AI-Linetype-6
 62
   179
420
  2301728
370
    35
100
AcDb2dPolyline
 66
     1
 10
0.0
 20
0.0
 30
0.0
  0
VERTEX
  5
61
330
60
100
AcDbEntity
  8
Layer 1
  6
AI-Linetype-6
 62
   179
420
  2301728
370
    35
100
AcDbVertex
100
AcDb2dVertex
 10
341.363796703815
 20
-270.0674344208856
 30
0.0
  0
VERTEX
  5
62
330
60
100
AcDbEntity
  8
Layer 1
  6
AI-Linetype-6
 62
   179
420
  2301728
370
    35
100
AcDbVertex
100
AcDb2dVertex
 10
341.363796703815
 20
-270.0872867836194
 30
0.0
  0
VERTEX
  5
63
330
60
100
AcDbEntity
  8
Layer 1
  6
AI-Linetype-6
 62
   179
420
  2301728
370
    35
100
AcDbVertex
100
AcDb2dVertex
 10
157.3113349383403
 20
-270.0872867836194
 30
0.0
  0
SEQEND
  5
65
330
60
100
AcDbEntity
  8
Layer 1
  6
AI-Linetype-6
 62
   179
420
  2301728
370
    35
  0
POLYLINE
  5
66
330
41
100
AcDbEntity
  8
Layer 1
 62
   179
420
  2301728
370
    35
100
AcDb2dPolyline
 66
     1
 10
0.0
 20
0.0
 30
0.0
  0
VERTEX
  5
67
330
66
100
AcDbEntity
  8
Layer 1
 62
   179
420
  2301728
370
    35
100
AcDbVertex
100
AcDb2dVertex
 10
153.7621592498978
 20
-93.6761622261131
 30
0.0
  0
VERTEX
  5
68
330
66
100
AcDbEntity
  8
Layer 1
 62
   179
420
  2301728
370
    35
100
AcDbVertex
100
AcDb2dVertex
 10
153.7621592498978
 20
-303.9578957883913
 30
0.0
  0
SEQEND
  5
69
330
66
100
AcDbEntity
  8
Layer 1
 62
   179
420
  2301728
370
    35
  0
POLYLINE
  5
6A
330
41
100
AcDbEntity
  8
Layer 1
 62
   179
420
  2301728
370
    35
100
AcDb2dPolyline
 66
     1
 10
0.0
 20
0.0
 30
0.0
  0
VERTEX
  5
6B
330
6A
100
AcDbEntity
  8
Layer 1
 62
   179
420
  2301728
370
    35
100
AcDbVertex
100
AcDb2dVertex
 10
345.17325776704
 20
-93.67616222548456
 30
0.0
  0
VERTEX
  5
6C
330
6A
100
AcDbEntity
  8
Layer 1
 62
   179
420
  2301728
370
    35
100
AcDbVertex
100
AcDb2dVertex
 10
345.17325776704
 20
-303.9578950826333
 30
0.0
  0
SEQEND
  5
6D
330
6A
100
AcDbEntity
  8
Layer 1
 62
   179
420
  2301728
370
    35
  0
SPLINE
  5
6E
330
41
100
AcDbEntity
  8
Layer 1
 62
   179
420
  2301728
370
    35
100
AcDbSpline
210
0.0
220
0.0
230
1.0
 70
     8
 71
     3
 72
    20
 73
    16
 74
     0
 42
0.0000000001
 43
0.0000000001
 12
1.0
 22
0.0
 32
0.0
 13
1.0
 23
0.0
 33
0.0
 40
0.0
 40
0.0
 40
0.0
 40
0.0
 40
1.0
 40
1.0
 40
1.0
 40
2.0
 40
2.0
 40
2.0
 40
3.0
 40
3.0
 40
3.0
 40
4.0
 40
4.0
 40
4.0
 40
5.0
 40
5.0
 40
5.0
 40
5.0
 10
345.1732534569439
 20
-93.67616222548456
 30
0.0
 10
345.1732534569439
 20
-93.67616222548456
 30
0.0
 10
345.173253488006
 20
-73.79004702047851
 30
0.0
 10
345.173253488006
 20
-73.79004702047851
 30
0.0
 10
345.173253488006
 20
-69.30888213173336
 30
0.0
 10
341.5405510217375
 20
-65.67615813361809
 30
0.0
 10
337.0593646011456
 20
-65.67615813361809
 30
0.0
 10
337.0593646011456
 20
-65.67615813361809
 30
0.0
 10
161.8760438577242
 20
-65.67615813361809
 30
0.0
 10
161.8760438577242
 20
-65.67615813361809
 30
0.0
 10
157.3948574371322
 20
-65.67615813361809
 30
0.0
 10
153.7621549708638
 20
-69.30888213173336
 30
0.0
 10
153.7621549708638
 20
-73.79004702047851
 30
0.0
 10
153.7621549708638
 20
-73.79004702047851
 30
0.0
 10
153.7621521469151
 20
-93.6761622261131
 30
0.0
 10
153.7621521469151
 20
-93.6761622261131
 30
0.0
  0
POLYLINE
  5
6F
330
41
100
AcDbEntity
  8
Layer 1
 62
   179
420
  2301728
370
    35
100
AcDb2dPolyline
 66
     1
 10
0.0
 20
0.0
 30
0.0
  0
VERTEX
  5
70
330
6F
100
AcDbEntity
  8
Layer 1
 62
   179
420
  2301728
370
    35
100
AcDbVertex
100
AcDb2dVertex
 10
153.7621592498978
 20
-302.5368702714948
 30
0.0
  0
VERTEX
  5
71
330
6F
100
AcDbEntity
  8
Layer 1
 62
   179
420
  2301728
370
    35
100
AcDbVertex
100
AcDb2dVertex
 10
153.7621592498978
 20
-303.9578957883913
 30
0.0
  0
SEQEND
  5
72
330
6F
100
AcDbEntity
  8
Layer 1
 62
   179
420
  2301728
370
    35
  0
SPLINE
  5
73
330
41
100
AcDbEntity
  8
Layer 1
 62
   179
420
  2301728
370
    35
100
AcDbSpline
210
0.0
220
0.0
230
1.0
 70
     8
 71
     3
 72
    20
 73
    16
 74
     0
 42
0.0000000001
 43
0.0000000001
 12
1.0
 22
0.0
 32
0.0
 13
1.0
 23
0.0
 33
0.0
 40
0.0
 40
0.0
 40
0.0
 40
0.0
 40
1.0
 40
1.0
 40
1.0
 40
2.0
 40
2.0
 40
2.0
 40
3.0
 40
3.0
 40
3.0
 40
4.0
 40
4.0
 40
4.0
 40
5.0
 40
5.0
 40
5.0
 40
5.0
 10
295.1926455589255
 20
-300.944377239112
 30
0.0
 10
295.1926455589255
 20
-300.944377239112
 30
0.0
 10
295.1926455899876
 20
-320.8304924441184
 30
0.0
 10
295.1926455899876
 20
-320.8304924441184
 30
0.0
 10
295.1926455899876
 20
-325.3116573328648
 30
0.0
 10
291.5599431237191
 20
-328.9443813309788
 30
0.0
 10
287.0787567031272
 20
-328.9443813309788
 30
0.0
 10
287.0787567031272
 20
-328.9443813309788
 30
0.0
 10
211.8566739036827
 20
-328.9443813309788
 30
0.0
 10
211.8566739036827
 20
-328.9443813309788
 30
0.0
 10
207.3754874830911
 20
-328.9443813309788
 30
0.0
 10
203.7427850168223
 20
-325.3116573328648
 30
0.0
 10
203.7427850168223
 20
-320.8304924441184
 30
0.0
 10
203.7427850168223
 20
-320.8304924441184
 30
0.0
 10
203.7427821928736
 20
-300.9443772384838
 30
0.0
 10
203.7427821928736
 20
-300.9443772384838
 30
0.0
  0
SPLINE
  5
74
330
41
100
AcDbEntity
  8
Layer 1
 62
   179
420
  2301728
370
    35
100
AcDbSpline
210
0.0
220
0.0
230
1.0
 70
    11
 71
     3
 72
    41
 73
    37
 74
     0
 42
0.0000000001
 43
0.0000000001
 12
1.0
 22
0.0
 32
0.0
 13
1.0
 23
0.0
 33
0.0
 40
0.0
 40
0.0
 40
0.0
 40
0.0
 40
1.0
 40
1.0
 40
1.0
 40
2.0
 40
2.0
 40
2.0
 40
3.0
 40
3.0
 40
3.0
 40
4.0
 40
4.0
 40
4.0
 40
5.0
 40
5.0
 40
5.0
 40
6.0
 40
6.0
 40
6.0
 40
7.0
 40
7.0
 40
7.0
 40
8.0
 40
8.0
 40
8.0
 40
9.0
 40
9.0
 40
9.0
 40
10.0
 40
10.0
 40
10.0
 40
11.0
 40
11.0
 40
11.0
 40
12.0
 40
12.0
 40
12.0
 40
12.0
 10
266.8865102834357
 20
-311.1425289747813
 30
0.0
 10
266.8865102834357
 20
-311.1425289747813
 30
0.0
 10
255.3929838947991
 20
-311.1425289747813
 30
0.0
 10
255.3929838947991
 20
-311.1425289747813
 30
0.0
 10
254.1143642943562
 20
-309.232920456993
 30
0.0
 10
251.9384193206157
 20
-307.9749325538418
 30
0.0
 10
249.4677309424197
 20
-307.9749325538418
 30
0.0
 10
246.9970084622455
 20
-307.9749325538418
 30
0.0
 10
244.821063488505
 20
-309.232920456993
 30
0.0
 10
243.542477990041
 20
-311.1425289747813
 30
0.0
 10
243.542477990041
 20
-311.1425289747813
 30
0.0
 10
232.0489516014044
 20
-311.1425289747813
 30
0.0
 10
232.0489516014044
 20
-311.1425289747813
 30
0.0
 10
230.7352751665556
 20
-311.1425289747813
 30
0.0
 10
229.670304464517
 20
-312.9152521488851
 30
0.0
 10
229.670304464517
 20
-315.1020074499667
 30
0.0
 10
229.670304464517
 20
-317.2887627510486
 30
0.0
 10
230.7352751665556
 20
-319.0614859251509
 30
0.0
 10
232.0489516014044
 20
-319.0614859251509
 30
0.0
 10
232.0489516014044
 20
-319.0614859251509
 30
0.0
 10
243.542477990041
 20
-319.0614859251509
 30
0.0
 10
243.542477990041
 20
-319.0614859251509
 30
0.0
 10
244.821063488505
 20
-320.9710944429398
 30
0.0
 10
246.9970084622455
 20
-322.2290823460907
 30
0.0
 10
249.4677309424197
 20
-322.2290823460907
 30
0.0
 10
251.9384193206157
 20
-322.2290823460907
 30
0.0
 10
254.1143642943562
 20
-320.9710944429398
 30
0.0
 10
255.3929838947991
 20
-319.0614859251509
 30
0.0
 10
255.3929838947991
 20
-319.0614859251509
 30
0.0
 10
266.8865102834357
 20
-319.0614859251509
 30
0.0
 10
266.8865102834357
 20
-319.0614859251509
 30
0.0
 10
268.2001867182848
 20
-319.0614859251509
 30
0.0
 10
269.2651233183442
 20
-317.2887627510486
 30
0.0
 10
269.2651233183442
 20
-315.1020074499667
 30
0.0
 10
269.2651233183442
 20
-312.9152521488851
 30
0.0
 10
268.2001867182848
 20
-311.1425289747813
 30
0.0
 10
266.8865102834357
 20
-311.1425289747813
 30
0.0
  0
SPLINE
  5
75
330
41
100
AcDbEntity
  8
Layer 1
 62
   179
420
  2301728
370
    35
100
AcDbSpline
210
0.0
220
0.0
230
1.0
 70
    11
 71
     3
 72
    17
 73
    13
 74
     0
 42
0.0000000001
 43
0.0000000001
 12
1.0
 22
0.0
 32
0.0
 13
1.0
 23
0.0
 33
0.0
 40
0.0
 40
0.0
 40
0.0
 40
0.0
 40
1.0
 40
1.0
 40
1.0
 40
2.0
 40
2.0
 40
2.0
 40
3.0
 40
3.0
 40
3.0
 40
4.0
 40
4.0
 40
4.0
 40
4.0
 10
274.467713885181
 20
-394.3391884610078
 30
0.0
 10
274.467713885181
 20
-408.1463072025542
 30
0.0
 10
263.2748326329792
 20
-419.3391884547567
 30
0.0
 10
249.4677138914312
 20
-419.3391884547567
 30
0.0
 10
235.6605951498826
 20
-419.3391884547567
 30
0.0
 10
224.4677138976808
 20
-408.1463072025542
 30
0.0
 10
224.4677138976808
 20
-394.3391884610078
 30
0.0
 10
224.4677138976808
 20
-380.5320697194583
 30
0.0
 10
235.6605951498826
 20
-369.339188467259
 30
0.0
 10
249.4677138914312
 20
-369.339188467259
 30
0.0
 10
263.2748326329792
 20
-369.339188467259
 30
0.0
 10
274.467713885181
 20
-380.5320697194583
 30
0.0
 10
274.467713885181
 20
-394.3391884610078
 30
0.0
  0
INSERT
  5
77
330
41
100
AcDbEntity
  8
Layer 1
100
AcDbBlockReference
  2
block 3
 10
0.0
 20
0.0
 30
0.0
  0
SPLINE
  5
8E
330
41
100
AcDbEntity
  8
Layer 1
 62
   179
420
  2301728
370
    35
100
AcDbSpline
210
0.0
220
0.0
230
1.0
 70
     8
 71
     3
 72
    20
 73
    16
 74
     0
 42
0.0000000001
 43
0.0000000001
 12
1.0
 22
0.0
 32
0.0
 13
1.0
 23
0.0
 33
0.0
 40
0.0
 40
0.0
 40
0.0
 40
0.0
 40
1.0
 40
1.0
 40
1.0
 40
2.0
 40
2.0
 40
2.0
 40
3.0
 40
3.0
 40
3.0
 40
4.0
 40
4.0
 40
4.0
 40
5.0
 40
5.0
 40
5.0
 40
5.0
 10
345.1732474037815
 20
-507.1642576952522
 30
0.0
 10
345.1732474037815
 20
-507.1642576952522
 30
0.0
 10
420.8260189352417
 20
-507.1642577263142
 30
0.0
 10
420.8260189352417
 20
-507.1642577263142
 30
0.0
 10
425.3071838239875
 20
-507.1642577263142
 30
0.0
 10
428.9399078221021
 20
-503.5315552600445
 30
0.0
 10
428.9399078221021
 20
-499.0503688394538
 30
0.0
 10
428.9399078221021
 20
-499.0503688394538
 30
0.0
 10
428.9399285492499
 20
-312.2332681875503
 30
0.0
 10
428.9399285492499
 20
-312.2332681875503
 30
0.0
 10
428.9399285492499
 20
-307.7520817669583
 30
0.0
 10
425.3072045511315
 20
-304.1193793006898
 30
0.0
 10
420.8260396623895
 20
-304.1193793006898
 30
0.0
 10
420.8260396623895
 20
-304.1193793006898
 30
0.0
 10
345.1732681302979
 20
-304.1193764767411
 30
0.0
 10
345.1732681302979
 20
-304.1193764767411
 30
0.0
  0
POLYLINE
  5
8F
330
41
100
AcDbEntity
  8
Layer 1
  6
AI-Linetype-7
 62
   179
420
  2301728
370
    35
100
AcDb2dPolyline
 66
     1
 10
0.0
 20
0.0
 30
0.0
  0
VERTEX
  5
90
330
8F
100
AcDbEntity
  8
Layer 1
  6
AI-Linetype-7
 62
   179
420
  2301728
370
    35
100
AcDbVertex
100
AcDb2dVertex
 10
124.1149251754673
 20
-307.8285446754745
 30
0.0
  0
VERTEX
  5
91
330
8F
100
AcDbEntity
  8
Layer 1
  6
AI-Linetype-7
 62
   179
420
  2301728
370
    35
100
AcDbVertex
100
AcDb2dVertex
 10
124.1149251666561
 20
-502.3119517517513
 30
0.0
  0
SEQEND
  5
93
330
8F
100
AcDbEntity
  8
Layer 1
  6
AI-Linetype-7
 62
   179
420
  2301728
370
    35
  0
SPLINE
  5
94
330
41
100
AcDbEntity
  8
Layer 1
 62
   179
420
  2301728
370
    35
100
AcDbSpline
210
0.0
220
0.0
230
1.0
 70
     8
 71
     3
 72
    20
 73
    16
 74
     0
 42
0.0000000001
 43
0.0000000001
 12
1.0
 22
0.0
 32
0.0
 13
1.0
 23
0.0
 33
0.0
 40
0.0
 40
0.0
 40
0.0
 40
0.0
 40
1.0
 40
1.0
 40
1.0
 40
2.0
 40
2.0
 40
2.0
 40
3.0
 40
3.0
 40
3.0
 40
4.0
 40
4.0
 40
4.0
 40
5.0
 40
5.0
 40
5.0
 40
5.0
 10
153.7621568967964
 20
-507.16425769721
 30
0.0
 10
153.7621568967964
 20
-507.16425769721
 30
0.0
 10
79.17296407797141
 20
-507.1642577247196
 30
0.0
 10
79.17296407797141
 20
-507.1642577247196
 30
0.0
 10
74.69179918922626
 20
-507.1642577245181
 30
0.0
 10
71.05907519127399
 20
-503.531555258086
 30
0.0
 10
71.05907519147485
 20
-499.0503688374922
 30
0.0
 10
71.05907519147485
 20
-499.0503688374922
 30
0.0
 10
71.0590544727971
 20
-312.2332681855905
 30
0.0
 10
71.0590544727971
 20
-312.2332681855905
 30
0.0
 10
71.05905447299828
 20
-307.7520817649986
 30
0.0
 10
74.69177847127652
 20
-304.1193792988931
 30
0.0
 10
79.17294336002169
 20
-304.1193792990943
 30
0.0
 10
79.17294336002169
 20
-304.1193792990943
 30
0.0
 10
153.7621361794749
 20
-304.1193764787009
 30
0.0
 10
153.7621361794749
 20
-304.1193764787009
 30
0.0
  0
POLYLINE
  5
95
330
41
100
AcDbEntity
  8
Layer 1
  6
AI-Linetype-8
 62
   179
420
  2301728
370
    35
100
AcDb2dPolyline
 66
     1
 10
0.0
 20
0.0
 30
0.0
  0
VERTEX
  5
96
330
95
100
AcDbEntity
  8
Layer 1
  6
AI-Linetype-8
 62
   179
420
  2301728
370
    35
100
AcDbVertex
100
AcDb2dVertex
 10
341.2336582218597
 20
-540.6884538000795
 30
0.0
  0
VERTEX
  5
97
330
95
100
AcDbEntity
  8
Layer 1
  6
AI-Linetype-8
 62
   179
420
  2301728
370
    35
100
AcDbVertex
100
AcDb2dVertex
 10
341.2336582218597
 20
-540.6686014373464
 30
0.0
  0
VERTEX
  5
98
330
95
100
AcDbEntity
  8
Layer 1
  6
AI-Linetype-8
 62
   179
420
  2301728
370
    35
100
AcDbVertex
100
AcDb2dVertex
 10
157.181196456385
 20
-540.6686014373464
 30
0.0
  0
SEQEND
  5
9A
330
95
100
AcDbEntity
  8
Layer 1
  6
AI-Linetype-8
 62
   179
420
  2301728
370
    35
  0
POLYLINE
  5
9B
330
41
100
AcDbEntity
  8
Layer 1
 62
   179
420
  2301728
370
    35
100
AcDb2dPolyline
 66
     1
 10
0.0
 20
0.0
 30
0.0
  0
VERTEX
  5
9C
330
9B
100
AcDbEntity
  8
Layer 1
 62
   179
420
  2301728
370
    35
100
AcDbVertex
100
AcDb2dVertex
 10
153.6320207679425
 20
-602.8604989487877
 30
0.0
  0
VERTEX
  5
9D
330
9B
100
AcDbEntity
  8
Layer 1
 62
   179
420
  2301728
370
    35
100
AcDbVertex
100
AcDb2dVertex
 10
153.6320207679425
 20
-507.164256379705
 30
0.0
  0
SEQEND
  5
9E
330
9B
100
AcDbEntity
  8
Layer 1
 62
   179
420
  2301728
370
    35
  0
POLYLINE
  5
9F
330
41
100
AcDbEntity
  8
Layer 1
 62
   179
420
  2301728
370
    35
100
AcDb2dPolyline
 66
     1
 10
0.0
 20
0.0
 30
0.0
  0
VERTEX
  5
A0
330
9F
100
AcDbEntity
  8
Layer 1
 62
   179
420
  2301728
370
    35
100
AcDbVertex
100
AcDb2dVertex
 10
345.0431192850847
 20
-602.8604989494153
 30
0.0
  0
VERTEX
  5
A1
330
9F
100
AcDbEntity
  8
Layer 1
 62
   179
420
  2301728
370
    35
100
AcDbVertex
100
AcDb2dVertex
 10
345.0431192850847
 20
-507.1642570854616
 30
0.0
  0
SEQEND
  5
A2
330
9F
100
AcDbEntity
  8
Layer 1
 62
   179
420
  2301728
370
    35
  0
SPLINE
  5
A3
330
41
100
AcDbEntity
  8
Layer 1
 62
   179
420
  2301728
370
    35
100
AcDbSpline
210
0.0
220
0.0
230
1.0
 70
     8
 71
     3
 72
    20
 73
    16
 74
     0
 42
0.0000000001
 43
0.0000000001
 12
1.0
 22
0.0
 32
0.0
 13
1.0
 23
0.0
 33
0.0
 40
0.0
 40
0.0
 40
0.0
 40
0.0
 40
1.0
 40
1.0
 40
1.0
 40
2.0
 40
2.0
 40
2.0
 40
3.0
 40
3.0
 40
3.0
 40
4.0
 40
4.0
 40
4.0
 40
5.0
 40
5.0
 40
5.0
 40
5.0
 10
345.0431149749886
 20
-602.8604992146937
 30
0.0
 10
345.0431149749886
 20
-602.8604992146937
 30
0.0
 10
345.0431150060507
 20
-622.7466144196994
 30
0.0
 10
345.0431150060507
 20
-622.7466144196994
 30
0.0
 10
345.0431150060507
 20
-627.2277793084452
 30
0.0
 10
341.4104125397822
 20
-630.8605033065598
 30
0.0
 10
336.9292261191903
 20
-630.8605033065598
 30
0.0
 10
336.9292261191903
 20
-630.8605033065598
 30
0.0
 10
161.7459053757689
 20
-630.8605033065598
 30
0.0
 10
161.7459053757689
 20
-630.8605033065598
 30
0.0
 10
157.2647189551769
 20
-630.8605033065598
 30
0.0
 10
153.6320164889084
 20
-627.2277793084452
 30
0.0
 10
153.6320164889084
 20
-622.7466144196994
 30
0.0
 10
153.6320164889084
 20
-622.7466144196994
 30
0.0
 10
153.6320136649597
 20
-602.8604992140655
 30
0.0
 10
153.6320136649597
 20
-602.8604992140655
 30
0.0
  0
ENDBLK
  5
44
330
41
100
AcDbEntity
  8
0
100
AcDbBlockEnd
  0
BLOCK
  5
78
330
76
100
AcDbEntity
  8
0
100
AcDbBlockBegin
  2
block 3
 70
     0
 10
0.0
 20
0.0
 30
0.0
  3
block 3
  1

  0
SPLINE
  5
7A
330
76
100
AcDbEntity
  8
Layer 1
 62
   179
420
  2301728
370
    35
100
AcDbSpline
210
0.0
220
0.0
230
1.0
 70
    11
 71
     3
 72
    38
 73
    34
 74
     0
 42
0.0000000001
 43
0.0000000001
 12
1.0
 22
0.0
 32
0.0
 13
1.0
 23
0.0
 33
0.0
 40
0.0
 40
0.0
 40
0.0
 40
0.0
 40
1.0
 40
1.0
 40
1.0
 40
2.0
 40
2.0
 40
2.0
 40
3.0
 40
3.0
 40
3.0
 40
4.0
 40
4.0
 40
4.0
 40
5.0
 40
5.0
 40
5.0
 40
6.0
 40
6.0
 40
6.0
 40
7.0
 40
7.0
 40
7.0
 40
8.0
 40
8.0
 40
8.0
 40
9.0
 40
9.0
 40
9.0
 40
10.0
 40
10.0
 40
10.0
 40
11.0
 40
11.0
 40
11.0
 40
11.0
 10
231.1038812179654
 20
-470.1123197274214
 30
0.0
 10
231.0225154489302
 20
-470.1123197274176
 30
0.0
 10
230.9208492210688
 20
-470.0711996863159
 30
0.0
 10
230.9004667953836
 20
-469.9890142486841
 30
0.0
 10
230.9004667953836
 20
-469.9890142486841
 30
0.0
 10
227.7278028937126
 20
-460.825829754073
 30
0.0
 10
227.7278028937126
 20
-460.825829754073
 30
0.0
 10
227.7278028937126
 20
-460.825829754073
 30
0.0
 10
224.5143741398389
 20
-469.9890142483979
 30
0.0
 10
224.5143741398389
 20
-469.9890142483979
 30
0.0
 10
224.4940736810055
 20
-470.0711996860265
 30
0.0
 10
224.3922981639946
 20
-470.1123197271211
 30
0.0
 10
224.3313148206466
 20
-470.1123197271179
 30
0.0
 10
224.3313148206466
 20
-470.1123197271179
 30
0.0
 10
221.5247422346492
 20
-470.1123197269908
 30
0.0
 10
221.5247422346492
 20
-470.1123197269908
 30
0.0
 10
221.3822838331198
 20
-470.1123197269838
 30
0.0
 10
221.2806176052622
 20
-469.9890142482503
 30
0.0
 10
221.341600948616
 20
-469.8658180586714
 30
0.0
 10
221.341600948616
 20
-469.8658180586714
 30
0.0
 10
227.5243884714376
 20
-453.7993300265176
 30
0.0
 10
227.5243884714376
 20
-453.7993300265176
 30
0.0
 10
227.5854537816525
 20
-453.634986473551
 30
0.0
 10
227.8701520064166
 20
-453.6349864735619
 30
0.0
 10
227.9311353497563
 20
-453.7993300265355
 30
0.0
 10
227.9311353497563
 20
-453.7993300265355
 30
0.0
 10
234.093595090021
 20
-469.8658180592425
 30
0.0
 10
234.093595090021
 20
-469.8658180592425
 30
0.0
 10
234.1545784333613
 20
-469.9890142488285
 30
0.0
 10
234.0732126643204
 20
-470.1123197275549
 30
0.0
 10
233.89018066742
 20
-470.1123197275485
 30
0.0
 10
233.89018066742
 20
-470.1123197275485
 30
0.0
 10
231.1038812179654
 20
-470.1123197274214
 30
0.0
 10
231.1038812179654
 20
-470.1123197274214
 30
0.0
  0
POLYLINE
  5
7B
330
76
100
AcDbEntity
  8
Layer 1
 62
   179
420
  2301728
370
    35
100
AcDb2dPolyline
 66
     1
 10
0.0
 20
0.0
 30
0.0
  0
VERTEX
  5
7C
330
7B
100
AcDbEntity
  8
Layer 1
 62
   179
420
  2301728
370
    35
100
AcDbVertex
100
AcDb2dVertex
 10
265.2332147865619
 20
-470.1123197289525
 30
0.0
  0
VERTEX
  5
7D
330
7B
100
AcDbEntity
  8
Layer 1
 62
   179
420
  2301728
370
    35
100
AcDbVertex
100
AcDb2dVertex
 10
265.2332147867063
 20
-466.9008581801197
 30
0.0
  0
VERTEX
  5
7E
330
7B
100
AcDbEntity
  8
Layer 1
 62
   179
420
  2301728
370
    35
100
AcDbVertex
100
AcDb2dVertex
 10
277.6118772061168
 20
-466.9008581806735
 30
0.0
  0
VERTEX
  5
7F
330
7B
100
AcDbEntity
  8
Layer 1
 62
   179
420
  2301728
370
    35
100
AcDbVertex
100
AcDb2dVertex
 10
277.6118772059731
 20
-470.1123197295095
 30
0.0
  0
VERTEX
  5
80
330
7B
100
AcDbEntity
  8
Layer 1
 62
   179
420
  2301728
370
    35
100
AcDbVertex
100
AcDb2dVertex
 10
265.2332147865619
 20
-470.1123197289525
 30
0.0
  0
SEQEND
  5
81
330
7B
100
AcDbEntity
  8
Layer 1
 62
   179
420
  2301728
370
    35
  0
POLYLINE
  5
82
330
76
100
AcDbEntity
  8
Layer 1
 62
   179
420
  2301728
370
    35
100
AcDb2dPolyline
 66
     1
 10
0.0
 20
0.0
 30
0.0
  0
VERTEX
  5
83
330
82
100
AcDbEntity
  8
Layer 1
 62
   179
420
  2301728
370
    35
100
AcDbVertex
100
AcDb2dVertex
 10
250.7696706553306
 20
-470.1123197283031
 30
0.0
  0
VERTEX
  5
84
330
82
100
AcDbEntity
  8
Layer 1
 62
   179
420
  2301728
370
    35
100
AcDbVertex
100
AcDb2dVertex
 10
250.769670655475
 20
-466.9008581794703
 30
0.0
  0
VERTEX
  5
85
330
82
100
AcDbEntity
  8
Layer 1
 62
   179
420
  2301728
370
    35
100
AcDbVertex
100
AcDb2dVertex
 10
263.1483330748875
 20
-466.9008581800241
 30
0.0
  0
VERTEX
  5
86
330
82
100
AcDbEntity
  8
Layer 1
 62
   179
420
  2301728
370
    35
100
AcDbVertex
100
AcDb2dVertex
 10
263.1483330747437
 20
-470.1123197288608
 30
0.0
  0
VERTEX
  5
87
330
82
100
AcDbEntity
  8
Layer 1
 62
   179
420
  2301728
370
    35
100
AcDbVertex
100
AcDb2dVertex
 10
250.7696706553306
 20
-470.1123197283031
 30
0.0
  0
SEQEND
  5
88
330
82
100
AcDbEntity
  8
Layer 1
 62
   179
420
  2301728
370
    35
  0
SPLINE
  5
89
330
76
100
AcDbEntity
  8
Layer 1
 62
   179
420
  2301728
370
    35
100
AcDbSpline
210
0.0
220
0.0
230
1.0
 70
    11
 71
     3
 72
    53
 73
    49
 74
     0
 42
0.0000000001
 43
0.0000000001
 12
1.0
 22
0.0
 32
0.0
 13
1.0
 23
0.0
 33
0.0
 40
0.0
 40
0.0
 40
0.0
 40
0.0
 40
1.0
 40
1.0
 40
1.0
 40
2.0
 40
2.0
 40
2.0
 40
3.0
 40
3.0
 40
3.0
 40
4.0
 40
4.0
 40
4.0
 40
5.0
 40
5.0
 40
5.0
 40
6.0
 40
6.0
 40
6.0
 40
7.0
 40
7.0
 40
7.0
 40
8.0
 40
8.0
 40
8.0
 40
9.0
 40
9.0
 40
9.0
 40
10.0
 40
10.0
 40
10.0
 40
11.0
 40
11.0
 40
11.0
 40
12.0
 40
12.0
 40
12.0
 40
13.0
 40
13.0
 40
13.0
 40
14.0
 40
14.0
 40
14.0
 40
15.0
 40
15.0
 40
15.0
 40
16.0
 40
16.0
 40
16.0
 40
16.0
 10
248.8147064157378
 20
-466.1676099780365
 30
0.0
 10
248.8147064157378
 20
-466.1676099780365
 30
0.0
 10
245.9466860075264
 20
-466.1676099779062
 30
0.0
 10
245.9466860075264
 20
-466.1676099779062
 30
0.0
 10
245.9466860075264
 20
-466.1676099779062
 30
0.0
 10
245.9466860078382
 20
-459.2233230102758
 30
0.0
 10
245.9466860078382
 20
-459.2233230102758
 30
0.0
 10
245.9466860078382
 20
-459.2233230102758
 30
0.0
 10
239.0484370923813
 20
-470.0507079718432
 30
0.0
 10
239.0484370923813
 20
-470.0507079718432
 30
0.0
 10
239.0296393593063
 20
-470.0918006906594
 30
0.0
 10
238.9172354728659
 20
-470.1123197277705
 30
0.0
 10
238.8797219735768
 20
-470.1123197277705
 30
0.0
 10
238.8797219735768
 20
-470.1123197277705
 30
0.0
 10
236.4053610684736
 20
-470.1123197276614
 30
0.0
 10
236.4053610684736
 20
-470.1123197276614
 30
0.0
 10
236.2741594489607
 20
-470.1123197276537
 30
0.0
 10
236.1991597726733
 20
-470.0096152529005
 30
0.0
 10
236.1991597726768
 20
-469.9274024929858
 30
0.0
 10
236.1991597726768
 20
-469.9274024929858
 30
0.0
 10
236.1991597733977
 20
-453.8609964274156
 30
0.0
 10
236.1991597733977
 20
-453.8609964274156
 30
0.0
 10
236.1991597734016
 20
-453.7788383120737
 30
0.0
 10
236.2741594496987
 20
-453.6760791927547
 30
0.0
 10
236.4053610692115
 20
-453.6760791927586
 30
0.0
 10
236.4053610692115
 20
-453.6760791927586
 30
0.0
 10
238.8234653865224
 20
-453.6760791928677
 30
0.0
 10
238.8234653865224
 20
-453.6760791928677
 30
0.0
 10
238.9547216506068
 20
-453.6760791928747
 30
0.0
 10
239.0484370931115
 20
-453.7788383122008
 30
0.0
 10
239.0484370931077
 20
-453.8609964275427
 30
0.0
 10
239.0484370931077
 20
-453.8609964275427
 30
0.0
 10
239.048437092627
 20
-464.5651032329803
 30
0.0
 10
239.048437092627
 20
-464.5651032329803
 30
0.0
 10
239.048437092627
 20
-464.5651032329803
 30
0.0
 10
245.965429096588
 20
-453.7377182714091
 30
0.0
 10
245.965429096588
 20
-453.7377182714091
 30
0.0
 10
245.9841721850914
 20
-453.6966255525967
 30
0.0
 10
246.0966580383889
 20
-453.6760791931962
 30
0.0
 10
246.1341168931051
 20
-453.6760791931962
 30
0.0
 10
246.1341168931051
 20
-453.6760791931962
 30
0.0
 10
248.6272482089966
 20
-453.6760791933086
 30
0.0
 10
248.6272482089966
 20
-453.6760791933086
 30
0.0
 10
248.7209636515046
 20
-453.6760791933124
 30
0.0
 10
248.8147064162941
 20
-453.7788383126384
 30
0.0
 10
248.8147064162909
 20
-453.8609964279842
 30
0.0
 10
248.8147064162909
 20
-453.8609964279842
 30
0.0
 10
248.8147064157378
 20
-466.1676099780365
 30
0.0
 10
248.8147064157378
 20
-466.1676099780365
 30
0.0
  0
SPLINE
  5
8A
330
76
100
AcDbEntity
  8
Layer 1
 62
   179
420
  2301728
370
    35
100
AcDbSpline
210
0.0
220
0.0
230
1.0
 70
    11
 71
     3
 72
    23
 73
    19
 74
     0
 42
0.0000000001
 43
0.0000000001
 12
1.0
 22
0.0
 32
0.0
 13
1.0
 23
0.0
 33
0.0
 40
0.0
 40
0.0
 40
0.0
 40
0.0
 40
1.0
 40
1.0
 40
1.0
 40
2.0
 40
2.0
 40
2.0
 40
3.0
 40
3.0
 40
3.0
 40
4.0
 40
4.0
 40
4.0
 40
5.0
 40
5.0
 40
5.0
 40
6.0
 40
6.0
 40
6.0
 40
6.0
 10
250.8383862062639
 20
-458.5308396605248
 30
0.0
 10
251.2836301863189
 20
-455.5195685044965
 30
0.0
 10
253.8540835729544
 20
-453.2097970530584
 30
0.0
 10
256.9590155269384
 20
-453.2097970531989
 30
0.0
 10
260.0639201586376
 20
-453.2097970533369
 30
0.0
 10
262.6343735450665
 20
-455.5195685050079
 30
0.0
 10
263.0796448471381
 20
-458.5308396610748
 30
0.0
 10
263.0796448471381
 20
-458.5308396610748
 30
0.0
 10
260.1714060332748
 20
-458.5308396609445
 30
0.0
 10
260.1714060332748
 20
-458.5308396609445
 30
0.0
 10
259.7710798923362
 20
-457.1193430208511
 30
0.0
 10
258.4849379025213
 20
-456.0859048582712
 30
0.0
 10
256.9590155268088
 20
-456.0859048582006
 30
0.0
 10
255.4330931511001
 20
-456.0859048581333
 30
0.0
 10
254.1469511611915
 20
-457.119343020597
 30
0.0
 10
253.7466250201233
 20
-458.5308396606551
 30
0.0
 10
253.7466250201233
 20
-458.5308396606551
 30
0.0
 10
250.8383862062639
 20
-458.5308396605248
 30
0.0
 10
250.8383862062639
 20
-458.5308396605248
 30
0.0
  0
SPLINE
  5
8B
330
76
100
AcDbEntity
  8
Layer 1
 62
   179
420
  2301728
370
    35
100
AcDbSpline
210
0.0
220
0.0
230
1.0
 70
    11
 71
     3
 72
    23
 73
    19
 74
     0
 42
0.0000000001
 43
0.0000000001
 12
1.0
 22
0.0
 32
0.0
 13
1.0
 23
0.0
 33
0.0
 40
0.0
 40
0.0
 40
0.0
 40
0.0
 40
1.0
 40
1.0
 40
1.0
 40
2.0
 40
2.0
 40
2.0
 40
3.0
 40
3.0
 40
3.0
 40
4.0
 40
4.0
 40
4.0
 40
5.0
 40
5.0
 40
5.0
 40
6.0
 40
6.0
 40
6.0
 40
6.0
 10
263.0563116144235
 20
-460.5316233752134
 30
0.0
 10
262.5538547665541
 20
-463.4749713271324
 30
0.0
 10
260.0161608013698
 20
-465.7146337915558
 30
0.0
 10
256.9590155263769
 20
-465.7146337914185
 30
0.0
 10
253.9018702513847
 20
-465.7146337912811
 30
0.0
 10
251.3641762864032
 20
-463.4749713266312
 30
0.0
 10
250.8617194387975
 20
-460.5316233746667
 30
0.0
 10
250.8617194387975
 20
-460.5316233746667
 30
0.0
 10
253.7889472417402
 20
-460.5316233747976
 30
0.0
 10
253.7889472417402
 20
-460.5316233747976
 30
0.0
 10
254.2318688272515
 20
-461.8719454587003
 30
0.0
 10
255.4832841909979
 20
-462.8385259863468
 30
0.0
 10
256.9590155265059
 20
-462.8385259864136
 30
0.0
 10
258.434719539731
 20
-462.8385259864809
 30
0.0
 10
259.6861622258495
 20
-461.8719454589467
 30
0.0
 10
260.1290838114808
 20
-460.5316233750831
 30
0.0
 10
260.1290838114808
 20
-460.5316233750831
 30
0.0
 10
263.0563116144235
 20
-460.5316233752134
 30
0.0
 10
263.0563116144235
 20
-460.5316233752134
 30
0.0
  0
SPLINE
  5
8C
330
76
100
AcDbEntity
  8
Layer 1
 62
   179
420
  2301728
370
    35
100
AcDbSpline
210
0.0
220
0.0
230
1.0
 70
    11
 71
     3
 72
    23
 73
    19
 74
     0
 42
0.0000000001
 43
0.0000000001
 12
1.0
 22
0.0
 32
0.0
 13
1.0
 23
0.0
 33
0.0
 40
0.0
 40
0.0
 40
0.0
 40
0.0
 40
1.0
 40
1.0
 40
1.0
 40
2.0
 40
2.0
 40
2.0
 40
3.0
 40
3.0
 40
3.0
 40
4.0
 40
4.0
 40
4.0
 40
5.0
 40
5.0
 40
5.0
 40
6.0
 40
6.0
 40
6.0
 40
6.0
 10
265.3019303374919
 20
-458.5308396611736
 30
0.0
 10
265.747174317547
 20
-455.5195685051491
 30
0.0
 10
268.3176277041837
 20
-453.2097970537072
 30
0.0
 10
271.4225596581691
 20
-453.2097970538484
 30
0.0
 10
274.5274642898689
 20
-453.2097970539857
 30
0.0
 10
277.0979176762958
 20
-455.5195685056573
 30
0.0
 10
277.5431889783674
 20
-458.5308396617241
 30
0.0
 10
277.5431889783674
 20
-458.5308396617241
 30
0.0
 10
274.6349501645067
 20
-458.5308396615932
 30
0.0
 10
274.6349501645067
 20
-458.5308396615932
 30
0.0
 10
274.2346240235656
 20
-457.1193430214999
 30
0.0
 10
272.9484820337506
 20
-456.0859048589168
 30
0.0
 10
271.42255965804
 20
-456.0859048588494
 30
0.0
 10
269.8966372823295
 20
-456.0859048587827
 30
0.0
 10
268.6104952924209
 20
-457.1193430212464
 30
0.0
 10
268.2101691513546
 20
-458.5308396613038
 30
0.0
 10
268.2101691513546
 20
-458.5308396613038
 30
0.0
 10
265.3019303374919
 20
-458.5308396611736
 30
0.0
 10
265.3019303374919
 20
-458.5308396611736
 30
0.0
  0
SPLINE
  5
8D
330
76
100
AcDbEntity
  8
Layer 1
 62
   179
420
  2301728
370
    35
100
AcDbSpline
210
0.0
220
0.0
230
1.0
 70
    11
 71
     3
 72
    23
 73
    19
 74
     0
 42
0.0000000001
 43
0.0000000001
 12
1.0
 22
0.0
 32
0.0
 13
1.0
 23
0.0
 33
0.0
 40
0.0
 40
0.0
 40
0.0
 40
0.0
 40
1.0
 40
1.0
 40
1.0
 40
2.0
 40
2.0
 40
2.0
 40
3.0
 40
3.0
 40
3.0
 40
4.0
 40
4.0
 40
4.0
 40
5.0
 40
5.0
 40
5.0
 40
6.0
 40
6.0
 40
6.0
 40
6.0
 10
277.5198557456529
 20
-460.5316233758628
 30
0.0
 10
277.0173988977834
 20
-463.4749713277818
 30
0.0
 10
274.4797049325991
 20
-465.7146337922052
 30
0.0
 10
271.4225596576082
 20
-465.7146337920679
 30
0.0
 10
268.3654143826159
 20
-465.7146337919299
 30
0.0
 10
265.8277204176345
 20
-463.4749713272807
 30
0.0
 10
265.3252635700268
 20
-460.531623375316
 30
0.0
 10
265.3252635700268
 20
-460.531623375316
 30
0.0
 10
268.2524913729696
 20
-460.5316233754463
 30
0.0
 10
268.2524913729696
 20
-460.5316233754463
 30
0.0
 10
268.6954129584809
 20
-461.871945459349
 30
0.0
 10
269.946828322226
 20
-462.8385259869956
 30
0.0
 10
271.4225596577372
 20
-462.838525987063
 30
0.0
 10
272.8982909932471
 20
-462.8385259871297
 30
0.0
 10
274.1497063570789
 20
-461.8719454595961
 30
0.0
 10
274.5926279427121
 20
-460.5316233757318
 30
0.0
 10
274.5926279427121
 20
-460.5316233757318
 30
0.0
 10
277.5198557456529
 20
-460.5316233758628
 30
0.0
 10
277.5198557456529
 20
-460.5316233758628
 30
0.0
  0
ENDBLK
  5
79
330
76
100
AcDbEntity
  8
0
100
AcDbBlockEnd
  0
ENDSEC
  0
SECTION
  2
ENTITIES
  0
INSERT
  5
42
330
1F
100
AcDbEntity
  8
Layer 1
100
AcDbBlockReference
  2
block 2
 10
0.0
 20
0.0
 30
0.0
  0
ENDSEC
  0
SECTION
  2
OBJECTS
  0
DICTIONARY
  5
C
330
0
100
AcDbDictionary
281
     1
  3
ACAD_GROUP
350
D
  3
ACAD_LAYOUT
350
1A
  3
ACAD_MATERIAL
350
3B
  3
ACAD_MLEADERSTYLE
350
A5
  3
ACAD_MLINESTYLE
350
17
  3
ACAD_PLOTSETTINGS
350
19
  3
ACAD_PLOTSTYLENAME
350
E
  3
ACAD_TABLESTYLE
350
A4
  3
ACAD_VISUALSTYLE
350
2A
  0
SUN
  5
3F
330
29
100
AcDbSun
 90
        1
290
     0
 63
     7
421
 16777215
 40
1.0
291
     1
 91
  2455826
 92
 54000000
292
     0
 70
     2
 71
   256
280
     1
  0
DICTIONARY
  5
D
102
{ACAD_REACTORS
330
C
102
}
330
C
100
AcDbDictionary
281
     1
  0
DICTIONARY
  5
1A
102
{ACAD_REACTORS
330
C
102
}
330
C
100
AcDbDictionary
281
     1
  3
Layout1
350
1E
  3
Layout2
350
26
  3
Model
350
22
  0
DICTIONARY
  5
3B
102
{ACAD_REACTORS
330
C
102
}
330
C
100
AcDbDictionary
281
     1
  3
ByBlock
350
3D
  3
ByLayer
350
3C
  3
Global
350
3E
  0
DICTIONARY
  5
A5
102
{ACAD_REACTORS
330
C
102
}
330
C
100
AcDbDictionary
281
     1
  0
DICTIONARY
  5
17
102
{ACAD_REACTORS
330
C
102
}
330
C
100
AcDbDictionary
281
     1
  3
Standard
350
18
  0
DICTIONARY
  5
19
102
{ACAD_REACTORS
330
C
102
}
330
C
100
AcDbDictionary
281
     1
  0
ACDBDICTIONARYWDFLT
  5
E
102
{ACAD_REACTORS
330
C
102
}
330
C
100
AcDbDictionary
281
     1
  3
Normal
350
F
100
AcDbDictionaryWithDefault
340
F
  0
DICTIONARY
  5
A4
102
{ACAD_REACTORS
330
C
102
}
330
C
100
AcDbDictionary
281
     1
  0
DICTIONARY
  5
2A
102
{ACAD_REACTORS
330
C
102
}
330
C
100
AcDbDictionary
281
     1
  3
2dWireframe
350
2F
  3
3D Hidden
350
31
  3
3dWireframe
350
30
  3
Basic
350
32
  3
Brighten
350
36
  3
ColorChange
350
3A
  3
Conceptual
350
34
  3
Dim
350
35
  3
Facepattern
350
39
  3
Flat
350
2B
  3
FlatWithEdges
350
2C
  3
Gouraud
350
2D
  3
GouraudWithEdges
350
2E
  3
Linepattern
350
38
  3
Realistic
350
33
  3
Thicken
350
37
  0
LAYOUT
  5
1E
102
{ACAD_REACTORS
330
1A
102
}
330
1A
100
AcDbPlotSettings
  1

  2
none_device
  4

  6

 40
0.0
 41
0.0
 42
0.0
 43
0.0
 44
0.0
 45
0.0
 46
0.0
 47
0.0
 48
0.0
 49
0.0
140
0.0
141
0.0
142
1.0
143
1.0
 70
   688
 72
     0
 73
     0
 74
     5
  7

 75
    16
 76
     0
 77
     2
 78
   300
147
1.0
148
0.0
149
0.0
100
AcDbLayout
  1
Layout1
 70
     1
 71
     1
 10
0.0
 20
0.0
 11
12.0
 21
9.0
 12
0.0
 22
0.0
 32
0.0
 14
1.000000000000000E+20
 24
1.000000000000000E+20
 34
1.000000000000000E+20
 15
-1.000000000000000E+20
 25
-1.000000000000000E+20
 35
-1.000000000000000E+20
146
0.0
 13
0.0
 23
0.0
 33
0.0
 16
1.0
 26
0.0
 36
0.0
 17
0.0
 27
1.0
 37
0.0
 76
     0
330
1B
  0
LAYOUT
  5
26
102
{ACAD_REACTORS
330
1A
102
}
330
1A
100
AcDbPlotSettings
  1

  2
none_device
  4

  6

 40
0.0
 41
0.0
 42
0.0
 43
0.0
 44
0.0
 45
0.0
 46
0.0
 47
0.0
 48
0.0
 49
0.0
140
0.0
141
0.0
142
1.0
143
1.0
 70
   688
 72
     0
 73
     0
 74
     5
  7

 75
    16
 76
     0
 77
     2
 78
   300
147
1.0
148
0.0
149
0.0
100
AcDbLayout
  1
Layout2
 70
     1
 71
     2
 10
0.0
 20
0.0
 11
0.0
 21
0.0
 12
0.0
 22
0.0
 32
0.0
 14
0.0
 24
0.0
 34
0.0
 15
0.0
 25
0.0
 35
0.0
146
0.0
 13
0.0
 23
0.0
 33
0.0
 16
1.0
 26
0.0
 36
0.0
 17
0.0
 27
1.0
 37
0.0
 76
     0
330
23
  0
LAYOUT
  5
22
102
{ACAD_REACTORS
330
1A
102
}
330
1A
100
AcDbPlotSettings
  1

  2
none_device
  4

  6

 40
0.0
 41
0.0
 42
0.0
 43
0.0
 44
0.0
 45
0.0
 46
0.0
 47
0.0
 48
0.0
 49
0.0
140
0.0
141
0.0
142
1.0
143
1.0
 70
  1712
 72
     0
 73
     0
 74
     0
  7

 75
     0
 76
     0
 77
     2
 78
   300
147
1.0
148
0.0
149
0.0
100
AcDbLayout
  1
Model
 70
     1
 71
     0
 10
0.0
 20
0.0
 11
12.0
 21
9.0
 12
0.0
 22
0.0
 32
0.0
 14
1.000000000000000E+20
 24
1.000000000000000E+20
 34
1.000000000000000E+20
 15
-1.000000000000000E+20
 25
-1.000000000000000E+20
 35
-1.000000000000000E+20
146
0.0
 13
0.0
 23
0.0
 33
0.0
 16
1.0
 26
0.0
 36
0.0
 17
0.0
 27
1.0
 37
0.0
 76
     0
330
1F
331
29
  0
MATERIAL
  5
3D
102
{ACAD_REACTORS
330
3B
102
}
330
3B
100
AcDbMaterial
  1
ByBlock
 72
     1
 94
      127
  0
MATERIAL
  5
3C
102
{ACAD_REACTORS
330
3B
102
}
330
3B
100
AcDbMaterial
  1
ByLayer
 72
     1
 94
      127
  0
MATERIAL
  5
3E
102
{ACAD_REACTORS
330
3B
102
}
330
3B
100
AcDbMaterial
  1
Global
 72
     1
 94
      127
  0
MLINESTYLE
  5
18
102
{ACAD_REACTORS
330
17
102
}
330
17
100
AcDbMlineStyle
  2
Standard
 70
     0
  3

 62
   256
 51
90.0
 52
90.0
 71
     2
 49
0.5
 62
   256
  6
BYLAYER
 49
-0.5
 62
   256
  6
BYLAYER
  0
ACDBPLACEHOLDER
  5
F
102
{ACAD_REACTORS
330
E
102
}
330
E
  0
VISUALSTYLE
  5
2F
102
{ACAD_REACTORS
330
2A
102
}
330
2A
100
AcDbVisualStyle
  2
2dWireframe
 70
     4
177
     2
291
     0
 71
     0
176
     1
 72
     2
176
     1
 73
     0
176
     1
 90
        0
176
     1
 40
-0.6
176
     1
 41
-30.0
176
     1
 62
     5
 63
     7
421
 16777215
176
     1
 74
     1
176
     1
 91
        4
176
     1
 64
     7
176
     1
 65
   257
176
     1
 75
     1
176
     1
175
     1
176
     1
 42
1.0
176
     1
 92
        0
176
     1
 66
   257
176
     1
 43
1.0
176
     1
 76
     1
176
     1
 77
     6
176
     1
 78
     2
176
     1
 67
     7
176
     1
 79
     5
176
     1
170
     0
176
     1
171
     0
176
     1
290
     0
176
     1
 93
        1
176
     1
 44
0.0
176
     1
173
     0
176
     1
  0
VISUALSTYLE
  5
31
102
{ACAD_REACTORS
330
2A
102
}
330
2A
100
AcDbVisualStyle
  2
3D Hidden
 70
     6
177
     2
291
     0
 71
     1
176
     1
 72
     2
176
     1
 73
     2
176
     1
 90
        0
176
     1
 40
-0.6
176
     1
 41
-30.0
176
     1
 62
     5
 63
     7
421
 16777215
176
     1
 74
     2
176
     1
 91
        2
176
     1
 64
     7
176
     1
 65
   257
176
     1
 75
     2
176
     1
175
     1
176
     1
 42
40.0
176
     1
 92
        0
176
     1
 66
   257
176
     1
 43
1.0
176
     1
 76
     1
176
     1
 77
     6
176
     1
 78
     2
176
     1
 67
     7
176
     1
 79
     3
176
     1
170
     0
176
     1
171
     0
176
     1
290
     0
176
     1
 93
        1
176
     1
 44
0.0
176
     1
173
     0
176
     1
  0
VISUALSTYLE
  5
30
102
{ACAD_REACTORS
330
2A
102
}
330
2A
100
AcDbVisualStyle
  2
3dWireframe
 70
     5
177
     2
291
     0
 71
     0
176
     1
 72
     2
176
     1
 73
     0
176
     1
 90
        0
176
     1
 40
-0.6
176
     1
 41
-30.0
176
     1
 62
     5
 63
     7
421
 16777215
176
     1
 74
     1
176
     1
 91
        4
176
     1
 64
     7
176
     1
 65
   257
176
     1
 75
     1
176
     1
175
     1
176
     1
 42
1.0
176
     1
 92
        0
176
     1
 66
   257
176
     1
 43
1.0
176
     1
 76
     1
176
     1
 77
     6
176
     1
 78
     2
176
     1
 67
     7
176
     1
 79
     5
176
     1
170
     0
176
     1
171
     0
176
     1
290
     0
176
     1
 93
        1
176
     1
 44
0.0
176
     1
173
     0
176
     1
  0
VISUALSTYLE
  5
32
102
{ACAD_REACTORS
330
2A
102
}
330
2A
100
AcDbVisualStyle
  2
Basic
 70
     7
177
     2
291
     1
 71
     1
176
     1
 72
     0
176
     1
 73
     1
176
     1
 90
        0
176
     1
 40
-0.6
176
     1
 41
-30.0
176
     1
 62
     5
 63
     7
421
 16777215
176
     1
 74
     0
176
     1
 91
        4
176
     1
 64
     7
176
     1
 65
   257
176
     1
 75
     1
176
     1
175
     1
176
     1
 42
1.0
176
     1
 92
        8
176
     1
 66
     7
176
     1
 43
1.0
176
     1
 76
     1
176
     1
 77
     6
176
     1
 78
     2
176
     1
 67
     7
176
     1
 79
     5
176
     1
170
     0
176
     1
171
     0
176
     1
290
     0
176
     1
 93
        1
176
     1
 44
0.0
176
     1
173
     0
176
     1
  0
VISUALSTYLE
  5
36
102
{ACAD_REACTORS
330
2A
102
}
330
2A
100
AcDbVisualStyle
  2
Brighten
 70
    12
177
     2
291
     1
 71
     2
176
     1
 72
     2
176
     1
 73
     0
176
     1
 90
        0
176
     1
 40
-0.6
176
     1
 41
-30.0
176
     1
 62
     5
 63
     7
421
 16777215
176
     1
 74
     1
176
     1
 91
        4
176
     1
 64
     7
176
     1
 65
   257
176
     1
 75
     1
176
     1
175
     1
176
     1
 42
1.0
176
     1
 92
        8
176
     1
 66
     7
176
     1
 43
1.0
176
     1
 76
     1
176
     1
 77
     6
176
     1
 78
     2
176
     1
 67
     7
176
     1
 79
     5
176
     1
170
     0
176
     1
171
     0
176
     1
290
     0
176
     1
 93
        1
176
     1
 44
50.0
176
     1
173
     0
176
     1
  0
VISUALSTYLE
  5
3A
102
{ACAD_REACTORS
330
2A
102
}
330
2A
100
AcDbVisualStyle
  2
ColorChange
 70
    16
177
     2
291
     1
 71
     2
176
     1
 72
     2
176
     1
 73
     3
176
     1
 90
        0
176
     1
 40
-0.6
176
     1
 41
-30.0
176
     1
 62
     5
 63
     8
421
  8421504
176
     1
 74
     1
176
     1
 91
        4
176
     1
 64
     7
176
     1
 65
   257
176
     1
 75
     1
176
     1
175
     1
176
     1
 42
1.0
176
     1
 92
        8
176
     1
 66
     8
424
  8421504
176
     1
 43
1.0
176
     1
 76
     1
176
     1
 77
     6
176
     1
 78
     2
176
     1
 67
     7
176
     1
 79
     5
176
     1
170
     0
176
     1
171
     0
176
     1
290
     0
176
     1
 93
        1
176
     1
 44
0.0
176
     1
173
     0
176
     1
  0
VISUALSTYLE
  5
34
102
{ACAD_REACTORS
330
2A
102
}
330
2A
100
AcDbVisualStyle
  2
Conceptual
 70
     9
177
     2
291
     0
 71
     3
176
     1
 72
     2
176
     1
 73
     0
176
     1
 90
        0
176
     1
 40
-0.6
176
     1
 41
-30.0
176
     1
 62
     5
 63
     7
421
 16777215
176
     1
 74
     2
176
     1
 91
        2
176
     1
 64
     7
176
     1
 65
   257
176
     1
 75
     1
176
     1
175
     1
176
     1
 42
40.0
176
     1
 92
        8
176
     1
 66
     7
176
     1
 43
1.0
176
     1
 76
     1
176
     1
 77
     6
176
     1
 78
     2
176
     1
 67
     7
176
     1
 79
     3
176
     1
170
     0
176
     1
171
     0
176
     1
290
     0
176
     1
 93
        1
176
     1
 44
0.0
176
     1
173
     0
176
     1
  0
VISUALSTYLE
  5
35
102
{ACAD_REACTORS
330
2A
102
}
330
2A
100
AcDbVisualStyle
  2
Dim
 70
    11
177
     2
291
     1
 71
     2
176
     1
 72
     2
176
     1
 73
     0
176
     1
 90
        0
176
     1
 40
-0.6
176
     1
 41
-30.0
176
     1
 62
     5
 63
     7
421
 16777215
176
     1
 74
     1
176
     1
 91
        4
176
     1
 64
     7
176
     1
 65
   257
176
     1
 75
     1
176
     1
175
     1
176
     1
 42
1.0
176
     1
 92
        8
176
     1
 66
     7
176
     1
 43
1.0
176
     1
 76
     1
176
     1
 77
     6
176
     1
 78
     2
176
     1
 67
     7
176
     1
 79
     5
176
     1
170
     0
176
     1
171
     0
176
     1
290
     0
176
     1
 93
        1
176
     1
 44
-50.0
176
     1
173
     0
176
     1
  0
VISUALSTYLE
  5
39
102
{ACAD_REACTORS
330
2A
102
}
330
2A
100
AcDbVisualStyle
  2
Facepattern
 70
    15
177
     2
291
     1
 71
     2
176
     1
 72
     2
176
     1
 73
     0
176
     1
 90
        0
176
     1
 40
-0.6
176
     1
 41
-30.0
176
     1
 62
     5
 63
     7
421
 16777215
176
     1
 74
     1
176
     1
 91
        4
176
     1
 64
     7
176
     1
 65
   257
176
     1
 75
     1
176
     1
175
     1
176
     1
 42
1.0
176
     1
 92
        8
176
     1
 66
     7
176
     1
 43
1.0
176
     1
 76
     1
176
     1
 77
     6
176
     1
 78
     2
176
     1
 67
     7
176
     1
 79
     5
176
     1
170
     0
176
     1
171
     0
176
     1
290
     0
176
     1
 93
        1
176
     1
 44
0.0
176
     1
173
     0
176
     1
  0
VISUALSTYLE
  5
2B
102
{ACAD_REACTORS
330
2A
102
}
330
2A
100
AcDbVisualStyle
  2
Flat
 70
     0
177
     2
291
     1
 71
     2
176
     1
 72
     1
176
     1
 73
     1
176
     1
 90
        2
176
     1
 40
-0.6
176
     1
 41
30.0
176
     1
 62
     5
 63
     7
421
 16777215
176
     1
 74
     0
176
     1
 91
        4
176
     1
 64
     7
176
     1
 65
   257
176
     1
 75
     1
176
     1
175
     1
176
     1
 42
1.0
176
     1
 92
        8
176
     1
 66
     7
176
     1
 43
1.0
176
     1
 76
     1
176
     1
 77
     6
176
     1
 78
     2
176
     1
 67
     7
176
     1
 79
     5
176
     1
170
     0
176
     1
171
     0
176
     1
290
     0
176
     1
 93
       13
176
     1
 44
0.0
176
     1
173
     0
176
     1
  0
VISUALSTYLE
  5
2C
102
{ACAD_REACTORS
330
2A
102
}
330
2A
100
AcDbVisualStyle
  2
FlatWithEdges
 70
     1
177
     2
291
     1
 71
     2
176
     1
 72
     1
176
     1
 73
     1
176
     1
 90
        2
176
     1
 40
-0.6
176
     1
 41
30.0
176
     1
 62
     5
 63
     7
421
 16777215
176
     1
 74
     1
176
     1
 91
        4
176
     1
 64
     7
176
     1
 65
   257
176
     1
 75
     1
176
     1
175
     1
176
     1
 42
1.0
176
     1
 92
        0
176
     1
 66
   257
176
     1
 43
1.0
176
     1
 76
     1
176
     1
 77
     6
176
     1
 78
     2
176
     1
 67
     7
176
     1
 79
     5
176
     1
170
     0
176
     1
171
     0
176
     1
290
     0
176
     1
 93
       13
176
     1
 44
0.0
176
     1
173
     0
176
     1
  0
VISUALSTYLE
  5
2D
102
{ACAD_REACTORS
330
2A
102
}
330
2A
100
AcDbVisualStyle
  2
Gouraud
 70
     2
177
     2
291
     1
 71
     2
176
     1
 72
     2
176
     1
 73
     1
176
     1
 90
        2
176
     1
 40
-0.6
176
     1
 41
30.0
176
     1
 62
     5
 63
     7
421
 16777215
176
     1
 74
     0
176
     1
 91
        4
176
     1
 64
     7
176
     1
 65
   257
176
     1
 75
     1
176
     1
175
     1
176
     1
 42
1.0
176
     1
 92
        0
176
     1
 66
     7
176
     1
 43
1.0
176
     1
 76
     1
176
     1
 77
     6
176
     1
 78
     2
176
     1
 67
     7
176
     1
 79
     5
176
     1
170
     0
176
     1
171
     0
176
     1
290
     0
176
     1
 93
       13
176
     1
 44
0.0
176
     1
173
     0
176
     1
  0
VISUALSTYLE
  5
2E
102
{ACAD_REACTORS
330
2A
102
}
330
2A
100
AcDbVisualStyle
  2
GouraudWithEdges
 70
     3
177
     2
291
     1
 71
     2
176
     1
 72
     2
176
     1
 73
     1
176
     1
 90
        2
176
     1
 40
-0.6
176
     1
 41
30.0
176
     1
 62
     5
 63
     7
421
 16777215
176
     1
 74
     1
176
     1
 91
        4
176
     1
 64
     7
176
     1
 65
   257
176
     1
 75
     1
176
     1
175
     1
176
     1
 42
1.0
176
     1
 92
        0
176
     1
 66
   257
176
     1
 43
1.0
176
     1
 76
     1
176
     1
 77
     6
176
     1
 78
     2
176
     1
 67
     7
176
     1
 79
     5
176
     1
170
     0
176
     1
171
     0
176
     1
290
     0
176
     1
 93
       13
176
     1
 44
0.0
176
     1
173
     0
176
     1
  0
VISUALSTYLE
  5
38
102
{ACAD_REACTORS
330
2A
102
}
330
2A
100
AcDbVisualStyle
  2
Linepattern
 70
    14
177
     2
291
     1
 71
     2
176
     1
 72
     2
176
     1
 73
     0
176
     1
 90
        0
176
     1
 40
-0.6
176
     1
 41
-30.0
176
     1
 62
     5
 63
     7
421
 16777215
176
     1
 74
     1
176
     1
 91
        4
176
     1
 64
     7
176
     1
 65
   257
176
     1
 75
     7
176
     1
175
     7
176
     1
 42
1.0
176
     1
 92
        8
176
     1
 66
     7
176
     1
 43
1.0
176
     1
 76
     1
176
     1
 77
     6
176
     1
 78
     2
176
     1
 67
     7
176
     1
 79
     5
176
     1
170
     0
176
     1
171
     0
176
     1
290
     0
176
     1
 93
        1
176
     1
 44
0.0
176
     1
173
     0
176
     1
  0
VISUALSTYLE
  5
33
102
{ACAD_REACTORS
330
2A
102
}
330
2A
100
AcDbVisualStyle
  2
Realistic
 70
     8
177
     2
291
     0
 71
     2
176
     1
 72
     2
176
     1
 73
     0
176
     1
 90
        0
176
     1
 40
-0.6
176
     1
 41
-30.0
176
     1
 62
     5
 63
     7
421
 16777215
176
     1
 74
     1
176
     1
 91
        0
176
     1
 64
     7
176
     1
 65
   257
176
     1
 75
     1
176
     1
175
     1
176
     1
 42
1.0
176
     1
 92
        8
176
     1
 66
     8
424
  7895160
176
     1
 43
1.0
176
     1
 76
     1
176
     1
 77
     6
176
     1
 78
     2
176
     1
 67
     7
176
     1
 79
     5
176
     1
170
     0
176
     1
171
     0
176
     1
290
     0
176
     1
 93
       13
176
     1
 44
0.0
176
     1
173
     0
176
     1
  0
VISUALSTYLE
  5
37
102
{ACAD_REACTORS
330
2A
102
}
330
2A
100
AcDbVisualStyle
  2
Thicken
 70
    13
177
     2
291
     1
 71
     2
176
     1
 72
     2
176
     1
 73
     0
176
     1
 90
        0
176
     1
 40
-0.6
176
     1
 41
-30.0
176
     1
 62
     5
 63
     7
421
 16777215
176
     1
 74
     1
176
     1
 91
        4
176
     1
 64
     7
176
     1
 65
   257
176
     1
 75
     1
176
     1
175
     1
176
     1
 42
1.0
176
     1
 92
       12
176
     1
 66
     7
176
     1
 43
1.0
176
     1
 76
     1
176
     1
 77
     6
176
     1
 78
     2
176
     1
 67
     7
176
     1
 79
     5
176
     1
170
     0
176
     1
171
     0
176
     1
290
     0
176
     1
 93
        1
176
     1
 44
0.0
176
     1
173
     0
176
     1
  0
ENDSEC
  0
EOF
