<?xml version="1.0" encoding="UTF-8" standalone="no"?>
<!-- Created with Inkscape (http://www.inkscape.org/) -->

<svg
   xmlns:dc="http://purl.org/dc/elements/1.1/"
   xmlns:cc="http://creativecommons.org/ns#"
   xmlns:rdf="http://www.w3.org/1999/02/22-rdf-syntax-ns#"
   xmlns:svg="http://www.w3.org/2000/svg"
   xmlns="http://www.w3.org/2000/svg"
   xmlns:sodipodi="http://sodipodi.sourceforge.net/DTD/sodipodi-0.dtd"
   xmlns:inkscape="http://www.inkscape.org/namespaces/inkscape"
   id="svg6256"
   version="1.1"
   inkscape:version="0.91 r13725"
   xml:space="preserve"
   width="549.21252"
   height="549.21252"
   viewBox="0 0 549.21252 549.21252"
   sodipodi:docname="OONA_iPhone_case.svg"><metadata
     id="metadata6262"><rdf:RDF><cc:Work
         rdf:about=""><dc:format>image/svg+xml</dc:format><dc:type
           rdf:resource="http://purl.org/dc/dcmitype/StillImage" /><dc:title></dc:title></cc:Work></rdf:RDF></metadata><defs
     id="defs6260"><clipPath
       clipPathUnits="userSpaceOnUse"
       id="clipPath6270"><path
         d="m 0,439.37 439.37,0 L 439.37,0 0,0 0,439.37 Z"
         id="path6272"
         inkscape:connector-curvature="0" /></clipPath><clipPath
       clipPathUnits="userSpaceOnUse"
       id="clipPath6286"><path
         d="m 293.795,140.738 64.309,0 0,-64.3091 -64.309,0 0,64.3091 z"
         id="path6288"
         inkscape:connector-curvature="0" /></clipPath></defs><sodipodi:namedview
     pagecolor="#ffffff"
     bordercolor="#666666"
     borderopacity="1"
     objecttolerance="10"
     gridtolerance="10"
     guidetolerance="10"
     inkscape:pageopacity="0"
     inkscape:pageshadow="2"
     inkscape:window-width="1440"
     inkscape:window-height="837"
     id="namedview6258"
     showgrid="false"
     inkscape:zoom="0.8594123"
     inkscape:cx="124.50536"
     inkscape:cy="180.83262"
     inkscape:window-x="-4"
     inkscape:window-y="-4"
     inkscape:window-maximized="1"
     inkscape:current-layer="g6264" /><g
     id="g6264"
     inkscape:groupmode="layer"
     inkscape:label="OONA_iPhone_case"
     transform="matrix(1.25,0,0,-1.25,0,549.2125)"><path
       style="fill:none;stroke:#231f20;stroke-width:1;stroke-linecap:butt;stroke-linejoin:miter;stroke-miterlimit:10;stroke-dasharray:none;stroke-opacity:1"
       d="m 283.4928,18.5063 c 0,-0.056 -0.012,-0.109 -0.017,-0.164 0.007,0.151 0.009,0.302 0.017,0.452 l 0,-0.288 z"
       id="path6276" /><path
       style="fill:none;stroke:#231f20;stroke-width:1.25;stroke-linecap:butt;stroke-linejoin:miter;stroke-miterlimit:10;stroke-dasharray:none;stroke-opacity:1"
       d="M 317.17188 21.267578 C 298.53188 21.267578 283.42188 36.377578 283.42188 55.017578 L 283.42188 494.83008 C 283.42188 513.47008 298.53187 528.58008 317.17188 528.58008 L 331.86328 528.58008 L 351.86719 528.58008 C 353.17719 528.58008 354.23945 527.56766 354.3457 526.28516 C 354.3532 526.09641 354.35719 525.90625 354.36719 525.71875 C 355.85344 497.695 379.0418 475.42969 407.43555 475.42969 C 435.16805 475.42969 457.92813 496.67273 460.35938 523.77148 C 460.45562 524.84648 460.51438 525.93219 460.54688 527.02344 C 460.91938 527.93594 461.81313 528.58008 462.85938 528.58008 L 482.86328 528.58008 L 497.70312 528.58008 C 516.34312 528.58008 531.45312 513.47008 531.45312 494.83008 L 531.45312 55.017578 C 531.45312 36.377578 516.34312 21.267578 497.70312 21.267578 L 317.17188 21.267578 z "
       transform="matrix(0.8,0,0,-0.8,0,439.37)"
       id="path6280" /><path
       style="fill:#231f20;fill-opacity:1;fill-rule:nonzero;stroke:none"
       d="M 367.24414 373.28906 L 367.24414 453.67578 L 447.63086 453.67578 L 447.63086 373.28906 L 367.24414 373.28906 z M 369.79688 375.8418 L 445.07812 375.8418 L 445.07812 451.12305 L 369.79688 451.12305 L 369.79688 375.8418 z M 381.23047 427.62695 C 377.43922 427.62695 374.36523 430.70094 374.36523 434.49219 C 374.36523 438.28344 377.43922 441.35547 381.23047 441.35547 C 385.02172 441.35547 388.0957 438.28344 388.0957 434.49219 C 388.0957 430.70094 385.02172 427.62695 381.23047 427.62695 z M 397.27344 427.62695 C 393.48219 427.62695 390.4082 430.70094 390.4082 434.49219 C 390.4082 438.28344 393.48219 441.35547 397.27344 441.35547 C 401.06469 441.35547 404.13672 438.28344 404.13672 434.49219 C 404.13672 430.70094 401.06469 427.62695 397.27344 427.62695 z M 407.91797 428.13867 C 407.02797 428.13867 406.30664 428.86195 406.30664 429.75195 L 406.30664 441.85352 L 406.3125 441.85352 C 406.38 442.67102 407.06273 443.31445 407.89648 443.31445 C 408.73148 443.31445 409.41297 442.67102 409.48047 441.85352 L 409.48828 441.85352 L 409.48828 434.23047 L 417.30273 445.39648 C 417.58398 445.86773 418.0968 446.18555 418.68555 446.18555 C 419.53055 446.18555 420.22422 445.53453 420.29297 444.70703 C 420.29672 444.69203 420.29883 444.67711 420.29883 444.66211 L 420.29883 443.31445 L 420.29883 429.65625 C 420.29883 429.64375 420.29672 429.63164 420.29297 429.61914 C 420.24172 428.79289 419.55945 428.13867 418.7207 428.13867 C 417.8832 428.13867 417.20023 428.78953 417.14648 429.61328 C 417.14148 429.62828 417.13867 429.6425 417.13867 429.65625 L 417.13867 440.0957 L 409.29297 428.91016 C 409.00922 428.44766 408.50047 428.13867 407.91797 428.13867 z M 431.04297 428.14062 C 431.02297 428.14188 431.00242 428.14523 430.98242 428.14648 C 430.94992 428.14898 430.91727 428.1532 430.88477 428.1582 C 430.87102 428.15945 430.8575 428.16352 430.84375 428.16602 C 430.80625 428.17227 430.76867 428.17875 430.73242 428.1875 C 430.72242 428.19 430.71578 428.19477 430.70703 428.19727 C 430.66578 428.20852 430.62398 428.21937 430.58398 428.23438 L 430.57617 428.23828 C 430.53492 428.25328 430.49437 428.26836 430.45312 428.28711 C 430.10188 428.45211 429.83875 428.72914 429.6875 429.05664 L 422.78906 443.9375 L 422.79102 443.93945 C 422.42227 444.72945 422.76469 445.66961 423.55469 446.03711 C 424.34469 446.40586 425.28484 446.06469 425.65234 445.27344 L 425.6543 445.27344 L 431.12109 433.47852 L 435.55469 443.04102 L 431.11914 443.06445 L 431.11914 443.06641 C 430.24664 443.06641 429.54102 443.77203 429.54102 444.64453 C 429.54102 445.51578 430.24664 446.22461 431.11914 446.22461 L 438.02148 446.1875 L 438.02148 446.18555 C 438.03523 446.18555 438.04805 446.18359 438.06055 446.18359 C 438.07805 446.18359 438.09508 446.18289 438.11133 446.18164 C 438.14883 446.17914 438.18445 446.17687 438.2207 446.17188 C 438.2332 446.17062 438.24531 446.16727 438.25781 446.16602 C 438.29906 446.15977 438.33891 446.15328 438.37891 446.14453 C 438.38641 446.14203 438.39289 446.13922 438.40039 446.13672 C 438.44664 446.12547 438.49141 446.11461 438.53516 446.09961 C 438.53891 446.09836 438.54047 446.09695 438.54297 446.0957 C 438.59172 446.07945 438.6393 446.05836 438.68555 446.03711 C 438.6868 446.03711 438.6882 446.03836 438.68945 446.03711 C 438.6907 446.03711 438.69086 446.03445 438.69336 446.0332 C 438.73711 446.01195 438.78102 445.98984 438.82227 445.96484 C 438.82852 445.96109 438.8343 445.95687 438.8418 445.95312 C 438.87805 445.93062 438.91422 445.90781 438.94922 445.88281 L 438.97852 445.85938 C 439.00852 445.83688 439.03766 445.81406 439.06641 445.78906 C 439.07766 445.77906 439.08836 445.76781 439.09961 445.75781 C 439.12586 445.73406 439.15078 445.70984 439.17578 445.68359 C 439.18578 445.67234 439.19578 445.65969 439.20703 445.64844 L 439.27539 445.56445 C 439.28414 445.55195 439.29328 445.54055 439.30078 445.5293 C 439.32328 445.49805 439.34328 445.4668 439.36328 445.43555 C 439.36953 445.42555 439.37586 445.4143 439.38086 445.4043 C 439.40211 445.37055 439.42195 445.33703 439.43945 445.30078 C 439.4432 445.29203 439.44742 445.28219 439.45117 445.27344 C 439.46867 445.23719 439.48305 445.19891 439.49805 445.16016 C 439.5018 445.15141 439.50406 445.14086 439.50781 445.13086 C 439.52156 445.09461 439.53297 445.05703 439.54297 445.01953 C 439.54672 445.00578 439.55219 444.99422 439.55469 444.98047 C 439.56344 444.94672 439.56922 444.91195 439.57422 444.87695 C 439.57797 444.8582 439.58148 444.83906 439.58398 444.82031 C 439.58773 444.79031 439.59125 444.76047 439.59375 444.73047 C 439.59625 444.70422 439.59766 444.68055 439.59766 444.6543 C 439.59891 444.63805 439.59961 444.62172 439.59961 444.60547 C 439.59961 444.59672 439.59961 444.58812 439.59961 444.57812 C 439.59961 444.54937 439.59695 444.52094 439.5957 444.49219 C 439.5932 444.46844 439.59039 444.44367 439.58789 444.41992 C 439.58414 444.39367 439.58117 444.36805 439.57617 444.3418 C 439.57117 444.3143 439.5668 444.28797 439.56055 444.26172 C 439.55555 444.23922 439.54992 444.21977 439.54492 444.19727 C 439.53617 444.16852 439.52953 444.13812 439.51953 444.10938 C 439.51328 444.08937 439.50555 444.06953 439.49805 444.05078 C 439.4868 444.02078 439.47344 443.99094 439.46094 443.96094 C 439.45719 443.95469 439.45562 443.94695 439.45312 443.93945 L 439.45312 443.9375 L 432.55469 429.05664 C 432.40469 428.72914 432.14156 428.45211 431.78906 428.28711 C 431.74906 428.26836 431.70922 428.25328 431.66797 428.23828 L 431.66016 428.23438 C 431.61891 428.21937 431.57836 428.20852 431.53711 428.19727 C 431.52836 428.19477 431.52047 428.19 431.51172 428.1875 C 431.47422 428.17875 431.43664 428.17227 431.40039 428.16602 C 431.38539 428.16352 431.37117 428.15945 431.35742 428.1582 C 431.32492 428.1532 431.29227 428.14898 431.25977 428.14648 C 431.24102 428.14523 431.22117 428.14188 431.20117 428.14062 C 431.17367 428.13937 431.14734 428.14062 431.12109 428.14062 C 431.09484 428.14062 431.06922 428.13937 431.04297 428.14062 z M 381.23047 430.78516 C 383.27797 430.78516 384.9375 432.44469 384.9375 434.49219 C 384.9375 436.53969 383.27797 438.19922 381.23047 438.19922 C 379.18297 438.19922 377.52344 436.53969 377.52344 434.49219 C 377.52344 432.44469 379.18297 430.78516 381.23047 430.78516 z M 397.27344 430.78516 C 399.32094 430.78516 400.98047 432.44469 400.98047 434.49219 C 400.98047 436.53969 399.32094 438.19922 397.27344 438.19922 C 395.22594 438.19922 393.56445 436.53969 393.56445 434.49219 C 393.56445 432.44469 395.22594 430.78516 397.27344 430.78516 z M 386.51562 443.02734 L 375.94336 443.06445 L 375.94336 443.06641 C 375.07211 443.06641 374.36523 443.77328 374.36523 444.64453 C 374.36523 445.51703 375.07211 446.22461 375.94336 446.22461 L 375.94336 446.22656 L 386.51562 446.1875 L 386.51562 446.18555 C 387.38813 446.18555 388.0957 445.47992 388.0957 444.60742 C 388.0957 443.73617 387.38812 443.02734 386.51562 443.02734 z M 402.55859 443.02734 L 391.98633 443.06445 L 391.98633 443.06641 C 391.11508 443.06641 390.4082 443.77328 390.4082 444.64453 C 390.4082 445.51703 391.11508 446.22461 391.98633 446.22461 L 391.98633 446.22656 L 402.55859 446.1875 L 402.55859 446.18555 C 403.43109 446.18555 404.13672 445.47992 404.13672 444.60742 C 404.13672 443.73617 403.43109 443.02734 402.55859 443.02734 z "
       transform="matrix(0.8,0,0,-0.8,0,439.37)"
       id="path6318" /><path
       style="fill:none;stroke:#231f20;stroke-width:1;stroke-linecap:butt;stroke-linejoin:miter;stroke-miterlimit:10;stroke-dasharray:none;stroke-opacity:1"
       d="m 70.2004,420.3568 c 0,0.056 -0.012,0.109 -0.017,0.164 0.007,-0.151 0.009,-0.302 0.017,-0.452 l 0,0.288 z"
       id="path6322" /><path
       style="fill:none;stroke:#231f20;stroke-width:1.25;stroke-linecap:butt;stroke-linejoin:miter;stroke-miterlimit:10;stroke-dasharray:none;stroke-opacity:1"
       d="M 50.556641 21.265625 C 31.916641 21.265625 16.806641 36.375625 16.806641 55.015625 L 16.806641 494.82812 C 16.806641 513.46812 31.916641 528.57812 50.556641 528.57812 L 231.08789 528.57812 C 249.72789 528.57812 264.83789 513.46813 264.83789 494.82812 L 264.83789 55.015625 C 264.83789 36.375625 249.72789 21.265625 231.08789 21.265625 L 216.24805 21.265625 L 196.24414 21.265625 C 195.19789 21.265625 194.30414 21.909766 193.93164 22.822266 C 193.89914 23.913516 193.84039 24.999219 193.74414 26.074219 C 191.31289 53.172969 168.55281 74.416016 140.82031 74.416016 C 112.42656 74.416016 89.23625 52.150703 87.75 24.126953 C 87.74 23.939453 87.737969 23.749297 87.730469 23.560547 C 87.624219 22.278047 86.56 21.265625 85.25 21.265625 L 65.248047 21.265625 L 50.556641 21.265625 z "
       transform="matrix(0.8,0,0,-0.8,0,439.37)"
       id="path6326" /><path
       style="fill:none;stroke:#231f20;stroke-width:1.25;stroke-linecap:round;stroke-linejoin:round;stroke-miterlimit:4;stroke-dasharray:none;stroke-opacity:1"
       d="M 115.53906 509.98047 C 113.09281 509.98047 111.10938 511.96391 111.10938 514.41016 C 111.10938 516.85641 113.09281 518.83789 115.53906 518.83789 C 117.98531 518.83789 119.9668 516.85641 119.9668 514.41016 C 119.9668 511.96391 117.98531 509.98047 115.53906 509.98047 z M 166.10547 509.98047 C 163.65922 509.98047 161.67383 511.96391 161.67383 514.41016 C 161.67383 516.85641 163.65922 518.83789 166.10547 518.83789 C 168.55172 518.83789 170.5332 516.85641 170.5332 514.41016 C 170.5332 511.96391 168.55172 509.98047 166.10547 509.98047 z "
       transform="matrix(0.8,0,0,-0.8,0,439.37)"
       id="path6334" /></g></svg>