  0
SECTION
  2
HEADER
  9
$ACADVER
  1
AC1014
  9
$HANDSEED
  5
FFFF
  9
$MEASUREMENT
 70
     1
  0
ENDSEC
  0
SECTION
  2
TABLES
  0
TABLE
  2
VPORT
  5
8
330
0
100
AcDbSymbolTable
 70
     4
  0
VPORT
  5
2E
330
8
100
AcDbSymbolTableRecord
100
AcDbViewportTableRecord
  2
*ACTIVE
 70
     0
 10
0.0
 20
0.0
 11
1.0
 21
1.0
 12
210.0
 22
148.5
 13
0.0
 23
0.0
 14
10.0
 24
10.0
 15
10.0
 25
10.0
 16
0.0
 26
0.0
 36
1.0
 17
0.0
 27
0.0
 37
0.0
 40
341.0
 41
1.24
 42
50.0
 43
0.0
 44
0.0
 50
0.0
 51
0.0
 71
     0
 72
   100
 73
     1
 74
     3
 75
     0
 76
     0
 77
     0
 78
     0
  0
ENDTAB
  0
TABLE
  2
LTYPE
  5
5
330
0
100
AcDbSymbolTable
 70
     1
  0
LTYPE
  5
14
330
5
100
AcDbSymbolTableRecord
100
AcDbLinetypeTableRecord
  2
BYBLOCK
 70
     0
  3

 72
    65
 73
     0
 40
0.0
  0
LTYPE
  5
15
330
5
100
AcDbSymbolTableRecord
100
AcDbLinetypeTableRecord
  2
BYLAYER
 70
     0
  3

 72
    65
 73
     0
 40
0.0
  0
LTYPE
  5
16
330
5
100
AcDbSymbolTableRecord
100
AcDbLinetypeTableRecord
  2
CONTINUOUS
 70
     0
  3
Solid line
 72
    65
 73
     0
 40
0.0
  0
ENDTAB
  0
TABLE
  2
LAYER
  5
2
100
AcDbSymbolTable
 70
2
  0
LAYER
  5
50
100
AcDbSymbolTableRecord
100
AcDbLayerTableRecord
  2
0
 70
0
  6
CONTINUOUS
  0
LAYER
  5
51
100
AcDbSymbolTableRecord
100
AcDbLayerTableRecord
  2
Layer_1
 70
0
  6
CONTINUOUS
  0
ENDTAB
  0
TABLE
  2
STYLE
  5
3
330
0
100
AcDbSymbolTable
 70
     1
  0
STYLE
  5
11
330
3
100
AcDbSymbolTableRecord
100
AcDbTextStyleTableRecord
  2
STANDARD
 70
     0
 40
0.0
 41
1.0
 50
0.0
 71
     0
 42
2.5
  3
txt
  4

  0
ENDTAB
  0
TABLE
  2
VIEW
  5
6
330
0
100
AcDbSymbolTable
 70
     0
  0
ENDTAB
  0
TABLE
  2
UCS
  5
7
330
0
100
AcDbSymbolTable
 70
     0
  0
ENDTAB
  0
TABLE
  2
APPID
  5
9
330
0
100
AcDbSymbolTable
 70
     2
  0
APPID
  5
12
330
9
100
AcDbSymbolTableRecord
100
AcDbRegAppTableRecord
  2
ACAD
 70
     0
  0
ENDTAB
  0
TABLE
  2
DIMSTYLE
  5
A
330
0
100
AcDbSymbolTable
 70
     1
  0
DIMSTYLE
105
27
330
A
100
AcDbSymbolTableRecord
100
AcDbDimStyleTableRecord
  2
ISO-25
 70
     0
  3

  4

  5

  6

  7

 40
1.0
 41
2.5
 42
0.625
 43
3.75
 44
1.25
 45
0.0
 46
0.0
 47
0.0
 48
0.0
140
2.5
141
2.5
142
0.0
143
0.03937007874016
144
1.0
145
0.0
146
1.0
147
0.625
 71
     0
 72
     0
 73
     0
 74
     0
 75
     0
 76
     0
 77
     1
 78
     8
170
     0
171
     3
172
     1
173
     0
174
     0
175
     0
176
     0
177
     0
178
     0
270
     2
271
     2
272
     2
273
     2
274
     3
340
11
275
     0
280
     0
281
     0
282
     0
283
     0
284
     8
285
     0
286
     0
287
     3
288
     0
  0
ENDTAB
  0
TABLE
  2
BLOCK_RECORD
  5
1
330
0
100
AcDbSymbolTable
 70
     1
  0
BLOCK_RECORD
  5
1F
330
1
100
AcDbSymbolTableRecord
100
AcDbBlockTableRecord
  2
*MODEL_SPACE
  0
BLOCK_RECORD
  5
1B
330
1
100
AcDbSymbolTableRecord
100
AcDbBlockTableRecord
  2
*PAPER_SPACE
  0
ENDTAB
  0
ENDSEC
  0
SECTION
  2
BLOCKS
  0
BLOCK
  5
20
330
1F
100
AcDbEntity
  8
0
100
AcDbBlockBegin
  2
*MODEL_SPACE
 70
     0
 10
0.0
 20
0.0
 30
0.0
  3
*MODEL_SPACE
  1

  0
ENDBLK
  5
21
330
1F
100
AcDbEntity
  8
0
100
AcDbBlockEnd
  0
BLOCK
  5
1C
330
1B
100
AcDbEntity
 67
     1
  8
0
100
AcDbBlockBegin
  2
*PAPER_SPACE
  1

  0
ENDBLK
  5
1D
330
1B
100
AcDbEntity
 67
     1
  8
0
100
AcDbBlockEnd
  0
ENDSEC
  0
SECTION
  2
ENTITIES
  0
SPLINE
  5
100
100
AcDbEntity
  8
Layer_1
 62
1
100
AcDbSpline
 70
8
 71
3
 72
8
 73
4
 74
0
 40
0
 40
0
 40
0
 40
0
 40
1
 40
1
 40
1
 40
1
 10
256.302998
 20
433.328754
 30
0.0
 10
258.590342
 20
433.328754
 30
0.0
 10
260.470941
 20
433.328754
 30
0.0
 10
261.800625
 20
433.328754
 30
0.0
  0
SPLINE
  5
101
100
AcDbEntity
  8
Layer_1
 62
1
100
AcDbSpline
 70
8
 71
3
 72
8
 73
4
 74
0
 40
0
 40
0
 40
0
 40
0
 40
1
 40
1
 40
1
 40
1
 10
246.407802
 20
433.328754
 30
0.0
 10
248.344777
 20
433.328754
 30
0.0
 10
250.189278
 20
433.328754
 30
0.0
 10
251.904864
 20
433.328754
 30
0.0
  0
SPLINE
  5
102
100
AcDbEntity
  8
Layer_1
 62
1
100
AcDbSpline
 70
8
 71
3
 72
8
 73
4
 74
0
 40
0
 40
0
 40
0
 40
0
 40
1
 40
1
 40
1
 40
1
 10
236.513116
 20
433.328754
 30
0.0
 10
238.379454
 20
433.328754
 30
0.0
 10
240.219952
 20
433.328754
 30
0.0
 10
242.010438
 20
433.328754
 30
0.0
  0
SPLINE
  5
103
100
AcDbEntity
  8
Layer_1
 62
1
100
AcDbSpline
 70
8
 71
3
 72
8
 73
4
 74
0
 40
0
 40
0
 40
0
 40
0
 40
1
 40
1
 40
1
 40
1
 10
226.618309
 20
433.328754
 30
0.0
 10
228.442602
 20
433.328754
 30
0.0
 10
230.282290
 20
433.328754
 30
0.0
 10
232.115391
 20
433.328754
 30
0.0
  0
SPLINE
  5
104
100
AcDbEntity
  8
Layer_1
 62
1
100
AcDbSpline
 70
8
 71
3
 72
8
 73
4
 74
0
 40
0
 40
0
 40
0
 40
0
 40
1
 40
1
 40
1
 40
1
 10
216.723180
 20
433.328754
 30
0.0
 10
218.501745
 20
433.328754
 30
0.0
 10
220.342677
 20
433.328754
 30
0.0
 10
222.220386
 20
433.328754
 30
0.0
  0
SPLINE
  5
105
100
AcDbEntity
  8
Layer_1
 62
1
100
AcDbSpline
 70
8
 71
3
 72
8
 73
4
 74
0
 40
0
 40
0
 40
0
 40
0
 40
1
 40
1
 40
1
 40
1
 10
206.827828
 20
433.328754
 30
0.0
 10
208.512605
 20
433.328754
 30
0.0
 10
210.359363
 20
433.328754
 30
0.0
 10
212.325105
 20
433.328754
 30
0.0
  0
SPLINE
  5
106
100
AcDbEntity
  8
Layer_1
 62
1
100
AcDbSpline
 70
8
 71
3
 72
8
 73
4
 74
0
 40
0
 40
0
 40
0
 40
0
 40
1
 40
1
 40
1
 40
1
 10
196.932694
 20
433.328754
 30
0.0
 10
196.932694
 20
433.328754
 30
0.0
 10
199.008616
 20
433.328754
 30
0.0
 10
202.430013
 20
433.328754
 30
0.0
  0
LWPOLYLINE
  5
107
100
AcDbEntity
  8
Layer_1
 62
1
100
AcDbPolyline
 90
2
 70
0
 10
266.199163
 20
433.328754
 30
0.0
 10
268.844996
 20
433.328754
 30
0.0
  0
LWPOLYLINE
  5
108
100
AcDbEntity
  8
Layer_1
 62
1
100
AcDbPolyline
 90
2
 70
0
 10
189.888952
 20
433.328754
 30
0.0
 10
192.534786
 20
433.328754
 30
0.0
  0
LWPOLYLINE
  5
109
100
AcDbEntity
  8
Layer_1
 62
1
100
AcDbPolyline
 90
6
 70
1
 10
186.902798
 20
428.813588
 30
0.0
 10
100.496582
 20
428.813588
 30
0.0
 10
100.496582
 20
433.070204
 30
0.0
 10
186.902798
 20
433.070204
 30
0.0
 10
186.902798
 20
428.813588
 30
0.0
 10
186.902798
 20
428.813588
 30
0.0
  0
SPLINE
  5
10a
100
AcDbEntity
  8
Layer_1
 62
1
100
AcDbSpline
 70
8
 71
3
 72
8
 73
4
 74
0
 40
0
 40
0
 40
0
 40
0
 40
1
 40
1
 40
1
 40
1
 10
96.502911
 20
148.524460
 30
0.0
 10
96.482817
 20
148.524460
 30
0.0
 10
96.463491
 20
148.521976
 30
0.0
 10
96.443382
 20
148.521694
 30
0.0
  0
SPLINE
  5
10b
100
AcDbEntity
  8
Layer_1
 62
1
100
AcDbSpline
 70
8
 71
3
 72
8
 73
4
 74
0
 40
0
 40
0
 40
0
 40
0
 40
1
 40
1
 40
1
 40
1
 10
96.443382
 20
148.521694
 30
0.0
 10
96.416938
 20
148.521694
 30
0.0
 10
96.391016
 20
148.518984
 30
0.0
 10
96.364558
 20
148.517856
 30
0.0
  0
SPLINE
  5
10c
100
AcDbEntity
  8
Layer_1
 62
1
100
AcDbSpline
 70
8
 71
3
 72
8
 73
4
 74
0
 40
0
 40
0
 40
0
 40
0
 40
1
 40
1
 40
1
 40
1
 10
96.364558
 20
148.517856
 30
0.0
 10
96.308819
 20
148.514751
 30
0.0
 10
96.253323
 20
148.510574
 30
0.0
 10
96.198642
 20
148.503519
 30
0.0
  0
SPLINE
  5
10d
100
AcDbEntity
  8
Layer_1
 62
1
100
AcDbSpline
 70
8
 71
3
 72
8
 73
4
 74
0
 40
0
 40
0
 40
0
 40
0
 40
1
 40
1
 40
1
 40
1
 10
96.198642
 20
148.503519
 30
0.0
 10
96.179592
 20
148.500696
 30
0.0
 10
96.160717
 20
148.497507
 30
0.0
 10
96.141314
 20
148.494685
 30
0.0
  0
SPLINE
  5
10e
100
AcDbEntity
  8
Layer_1
 62
1
100
AcDbSpline
 70
8
 71
3
 72
8
 73
4
 74
0
 40
0
 40
0
 40
0
 40
0
 40
1
 40
1
 40
1
 40
1
 10
96.141314
 20
148.494685
 30
0.0
 10
96.078520
 20
148.485090
 30
0.0
 10
96.015835
 20
148.474026
 30
0.0
 10
95.954452
 20
148.459972
 30
0.0
  0
SPLINE
  5
10f
100
AcDbEntity
  8
Layer_1
 62
1
100
AcDbSpline
 70
8
 71
3
 72
8
 73
4
 74
0
 40
0
 40
0
 40
0
 40
0
 40
1
 40
1
 40
1
 40
1
 10
95.954452
 20
148.459972
 30
0.0
 10
95.943869
 20
148.457150
 30
0.0
 10
95.933633
 20
148.454243
 30
0.0
 10
95.923035
 20
148.451703
 30
0.0
  0
SPLINE
  5
110
100
AcDbEntity
  8
Layer_1
 62
1
100
AcDbSpline
 70
8
 71
3
 72
8
 73
4
 74
0
 40
0
 40
0
 40
0
 40
0
 40
1
 40
1
 40
1
 40
1
 10
95.923035
 20
148.451703
 30
0.0
 10
95.852480
 20
148.434205
 30
0.0
 10
95.782960
 20
148.414167
 30
0.0
 10
95.715226
 20
148.390517
 30
0.0
  0
SPLINE
  5
111
100
AcDbEntity
  8
Layer_1
 62
1
100
AcDbSpline
 70
8
 71
3
 72
8
 73
4
 74
0
 40
0
 40
0
 40
0
 40
0
 40
1
 40
1
 40
1
 40
1
 10
95.715226
 20
148.390517
 30
0.0
 10
95.710626
 20
148.387695
 30
0.0
 10
95.706596
 20
148.387525
 30
0.0
 10
95.701996
 20
148.385550
 30
0.0
  0
SPLINE
  5
112
100
AcDbEntity
  8
Layer_1
 62
1
100
AcDbSpline
 70
8
 71
3
 72
8
 73
4
 74
0
 40
0
 40
0
 40
0
 40
0
 40
1
 40
1
 40
1
 40
1
 10
95.701996
 20
148.385550
 30
0.0
 10
95.628265
 20
148.359868
 30
0.0
 10
95.556124
 20
148.330375
 30
0.0
 10
95.485921
 20
148.297920
 30
0.0
  0
SPLINE
  5
113
100
AcDbEntity
  8
Layer_1
 62
1
100
AcDbSpline
 70
8
 71
3
 72
8
 73
4
 74
0
 40
0
 40
0
 40
0
 40
0
 40
1
 40
1
 40
1
 40
1
 10
95.485921
 20
148.297920
 30
0.0
 10
95.484228
 20
148.297920
 30
0.0
 10
95.482370
 20
148.297976
 30
0.0
 10
95.480959
 20
148.295154
 30
0.0
  0
SPLINE
  5
114
100
AcDbEntity
  8
Layer_1
 62
1
100
AcDbSpline
 70
8
 71
3
 72
8
 73
4
 74
0
 40
0
 40
0
 40
0
 40
0
 40
1
 40
1
 40
1
 40
1
 10
95.480959
 20
148.295154
 30
0.0
 10
95.478137
 20
148.292332
 30
0.0
 10
95.475541
 20
148.292699
 30
0.0
 10
95.472690
 20
148.291288
 30
0.0
  0
SPLINE
  5
115
100
AcDbEntity
  8
Layer_1
 62
1
100
AcDbSpline
 70
8
 71
3
 72
8
 73
4
 74
0
 40
0
 40
0
 40
0
 40
0
 40
1
 40
1
 40
1
 40
1
 10
95.472690
 20
148.291288
 30
0.0
 10
95.404604
 20
148.259199
 30
0.0
 10
95.339010
 20
148.223752
 30
0.0
 10
95.274805
 20
148.186019
 30
0.0
  0
SPLINE
  5
116
100
AcDbEntity
  8
Layer_1
 62
1
100
AcDbSpline
 70
8
 71
3
 72
8
 73
4
 74
0
 40
0
 40
0
 40
0
 40
0
 40
1
 40
1
 40
1
 40
1
 10
95.274805
 20
148.186019
 30
0.0
 10
95.264927
 20
148.180092
 30
0.0
 10
95.254916
 20
148.173742
 30
0.0
 10
95.245039
 20
148.167815
 30
0.0
  0
SPLINE
  5
117
100
AcDbEntity
  8
Layer_1
 62
1
100
AcDbSpline
 70
8
 71
3
 72
8
 73
4
 74
0
 40
0
 40
0
 40
0
 40
0
 40
1
 40
1
 40
1
 40
1
 10
95.245039
 20
148.167815
 30
0.0
 10
95.188947
 20
148.133582
 30
0.0
 10
95.134244
 20
148.097486
 30
0.0
 10
95.081327
 20
148.058680
 30
0.0
  0
SPLINE
  5
118
100
AcDbEntity
  8
Layer_1
 62
1
100
AcDbSpline
 70
8
 71
3
 72
8
 73
4
 74
0
 40
0
 40
0
 40
0
 40
0
 40
1
 40
1
 40
1
 40
1
 10
95.081327
 20
148.058680
 30
0.0
 10
95.065805
 20
148.047673
 30
0.0
 10
95.051299
 20
148.036356
 30
0.0
 10
95.036129
 20
148.025067
 30
0.0
  0
SPLINE
  5
119
100
AcDbEntity
  8
Layer_1
 62
1
100
AcDbSpline
 70
8
 71
3
 72
8
 73
4
 74
0
 40
0
 40
0
 40
0
 40
0
 40
1
 40
1
 40
1
 40
1
 10
95.036129
 20
148.025067
 30
0.0
 10
94.990268
 20
147.989790
 30
0.0
 10
94.945223
 20
147.953270
 30
0.0
 10
94.902184
 20
147.914803
 30
0.0
  0
SPLINE
  5
11a
100
AcDbEntity
  8
Layer_1
 62
1
100
AcDbSpline
 70
8
 71
3
 72
8
 73
4
 74
0
 40
0
 40
0
 40
0
 40
0
 40
1
 40
1
 40
1
 40
1
 10
94.902184
 20
147.914803
 30
0.0
 10
94.884206
 20
147.899281
 30
0.0
 10
94.867103
 20
147.883279
 30
0.0
 10
94.849817
 20
147.867418
 30
0.0
  0
SPLINE
  5
11b
100
AcDbEntity
  8
Layer_1
 62
1
100
AcDbSpline
 70
8
 71
3
 72
8
 73
4
 74
0
 40
0
 40
0
 40
0
 40
0
 40
1
 40
1
 40
1
 40
1
 10
94.849817
 20
147.867418
 30
0.0
 10
94.810306
 20
147.830362
 30
0.0
 10
94.771853
 20
147.792262
 30
0.0
 10
94.735165
 20
147.752751
 30
0.0
  0
SPLINE
  5
11c
100
AcDbEntity
  8
Layer_1
 62
1
100
AcDbSpline
 70
8
 71
3
 72
8
 73
4
 74
0
 40
0
 40
0
 40
0
 40
0
 40
1
 40
1
 40
1
 40
1
 10
94.735165
 20
147.752751
 30
0.0
 10
94.718231
 20
147.734689
 30
0.0
 10
94.701783
 20
147.716542
 30
0.0
 10
94.685556
 20
147.698198
 30
0.0
  0
SPLINE
  5
11d
100
AcDbEntity
  8
Layer_1
 62
1
100
AcDbSpline
 70
8
 71
3
 72
8
 73
4
 74
0
 40
0
 40
0
 40
0
 40
0
 40
1
 40
1
 40
1
 40
1
 10
94.685556
 20
147.698198
 30
0.0
 10
94.649572
 20
147.657275
 30
0.0
 10
94.615087
 20
147.614998
 30
0.0
 10
94.581926
 20
147.571960
 30
0.0
  0
SPLINE
  5
11e
100
AcDbEntity
  8
Layer_1
 62
1
100
AcDbSpline
 70
8
 71
3
 72
8
 73
4
 74
0
 40
0
 40
0
 40
0
 40
0
 40
1
 40
1
 40
1
 40
1
 10
94.581926
 20
147.571960
 30
0.0
 10
94.568521
 20
147.553897
 30
0.0
 10
94.555293
 20
147.535920
 30
0.0
 10
94.542240
 20
147.517942
 30
0.0
  0
SPLINE
  5
11f
100
AcDbEntity
  8
Layer_1
 62
1
100
AcDbSpline
 70
8
 71
3
 72
8
 73
4
 74
0
 40
0
 40
0
 40
0
 40
0
 40
1
 40
1
 40
1
 40
1
 10
94.542240
 20
147.517942
 30
0.0
 10
94.508374
 20
147.471009
 30
0.0
 10
94.476666
 20
147.423680
 30
0.0
 10
94.446327
 20
147.374630
 30
0.0
  0
SPLINE
  5
120
100
AcDbEntity
  8
Layer_1
 62
1
100
AcDbSpline
 70
8
 71
3
 72
8
 73
4
 74
0
 40
0
 40
0
 40
0
 40
0
 40
1
 40
1
 40
1
 40
1
 10
94.446327
 20
147.374630
 30
0.0
 10
94.436449
 20
147.358825
 30
0.0
 10
94.426851
 20
147.343106
 30
0.0
 10
94.417665
 20
147.327216
 30
0.0
  0
SPLINE
  5
121
100
AcDbEntity
  8
Layer_1
 62
1
100
AcDbSpline
 70
8
 71
3
 72
8
 73
4
 74
0
 40
0
 40
0
 40
0
 40
0
 40
1
 40
1
 40
1
 40
1
 10
94.417665
 20
147.327216
 30
0.0
 10
94.386620
 20
147.274667
 30
0.0
 10
94.357935
 20
147.220960
 30
0.0
 10
94.331124
 20
147.166265
 30
0.0
  0
SPLINE
  5
122
100
AcDbEntity
  8
Layer_1
 62
1
100
AcDbSpline
 70
8
 71
3
 72
8
 73
4
 74
0
 40
0
 40
0
 40
0
 40
0
 40
1
 40
1
 40
1
 40
1
 10
94.331124
 20
147.166265
 30
0.0
 10
94.324068
 20
147.152154
 30
0.0
 10
94.317416
 20
147.137930
 30
0.0
 10
94.310731
 20
147.123819
 30
0.0
  0
SPLINE
  5
123
100
AcDbEntity
  8
Layer_1
 62
1
100
AcDbSpline
 70
8
 71
3
 72
8
 73
4
 74
0
 40
0
 40
0
 40
0
 40
0
 40
1
 40
1
 40
1
 40
1
 10
94.310731
 20
147.123819
 30
0.0
 10
94.284625
 20
147.067741
 30
0.0
 10
94.260944
 20
147.010958
 30
0.0
 10
94.239072
 20
146.952397
 30
0.0
  0
SPLINE
  5
124
100
AcDbEntity
  8
Layer_1
 62
1
100
AcDbSpline
 70
8
 71
3
 72
8
 73
4
 74
0
 40
0
 40
0
 40
0
 40
0
 40
1
 40
1
 40
1
 40
1
 10
94.239072
 20
146.952397
 30
0.0
 10
94.233427
 20
146.937439
 30
0.0
 10
94.227839
 20
146.922566
 30
0.0
 10
94.222536
 20
146.907750
 30
0.0
  0
SPLINE
  5
125
100
AcDbEntity
  8
Layer_1
 62
1
100
AcDbSpline
 70
8
 71
3
 72
8
 73
4
 74
0
 40
0
 40
0
 40
0
 40
0
 40
1
 40
1
 40
1
 40
1
 10
94.222536
 20
146.907750
 30
0.0
 10
94.202781
 20
146.851305
 30
0.0
 10
94.185492
 20
146.794522
 30
0.0
 10
94.169619
 20
146.736328
 30
0.0
  0
SPLINE
  5
126
100
AcDbEntity
  8
Layer_1
 62
1
100
AcDbSpline
 70
8
 71
3
 72
8
 73
4
 74
0
 40
0
 40
0
 40
0
 40
0
 40
1
 40
1
 40
1
 40
1
 10
94.169619
 20
146.736328
 30
0.0
 10
94.163975
 20
146.716290
 30
0.0
 10
94.159124
 20
146.696365
 30
0.0
 10
94.154185
 20
146.676243
 30
0.0
  0
SPLINE
  5
127
100
AcDbEntity
  8
Layer_1
 62
1
100
AcDbSpline
 70
8
 71
3
 72
8
 73
4
 74
0
 40
0
 40
0
 40
0
 40
0
 40
1
 40
1
 40
1
 40
1
 10
94.154185
 20
146.676243
 30
0.0
 10
94.141485
 20
146.624032
 30
0.0
 10
94.130269
 20
146.571651
 30
0.0
 10
94.121111
 20
146.518029
 30
0.0
  0
SPLINE
  5
128
100
AcDbEntity
  8
Layer_1
 62
1
100
AcDbSpline
 70
8
 71
3
 72
8
 73
4
 74
0
 40
0
 40
0
 40
0
 40
0
 40
1
 40
1
 40
1
 40
1
 10
94.121111
 20
146.518029
 30
0.0
 10
94.115805
 20
146.488762
 30
0.0
 10
94.111592
 20
146.459468
 30
0.0
 10
94.107330
 20
146.429834
 30
0.0
  0
SPLINE
  5
129
100
AcDbEntity
  8
Layer_1
 62
1
100
AcDbSpline
 70
8
 71
3
 72
8
 73
4
 74
0
 40
0
 40
0
 40
0
 40
0
 40
1
 40
1
 40
1
 40
1
 10
94.107330
 20
146.429834
 30
0.0
 10
94.101347
 20
146.385046
 30
0.0
 10
94.095976
 20
146.339749
 30
0.0
 10
94.092449
 20
146.294227
 30
0.0
  0
SPLINE
  5
12a
100
AcDbEntity
  8
Layer_1
 62
1
100
AcDbSpline
 70
8
 71
3
 72
8
 73
4
 74
0
 40
0
 40
0
 40
0
 40
0
 40
1
 40
1
 40
1
 40
1
 10
94.092449
 20
146.294227
 30
0.0
 10
94.089260
 20
146.254716
 30
0.0
 10
94.087795
 20
146.215063
 30
0.0
 10
94.086384
 20
146.175185
 30
0.0
  0
SPLINE
  5
12b
100
AcDbEntity
  8
Layer_1
 62
1
100
AcDbSpline
 70
8
 71
3
 72
8
 73
4
 74
0
 40
0
 40
0
 40
0
 40
0
 40
1
 40
1
 40
1
 40
1
 10
94.086384
 20
146.175185
 30
0.0
 10
94.085819
 20
146.151196
 30
0.0
 10
94.083076
 20
146.127518
 30
0.0
 10
94.083076
 20
146.103529
 30
0.0
  0
SPLINE
  5
12c
100
AcDbEntity
  8
Layer_1
 62
1
100
AcDbSpline
 70
8
 71
3
 72
8
 73
4
 74
0
 40
0
 40
0
 40
0
 40
0
 40
1
 40
1
 40
1
 40
1
 10
94.083076
 20
146.103529
 30
0.0
 10
94.083076
 20
146.089136
 30
0.0
 10
94.084448
 20
146.074968
 30
0.0
 10
94.084730
 20
146.060518
 30
0.0
  0
SPLINE
  5
12d
100
AcDbEntity
  8
Layer_1
 62
1
100
AcDbSpline
 70
8
 71
3
 72
8
 73
4
 74
0
 40
0
 40
0
 40
0
 40
0
 40
1
 40
1
 40
1
 40
1
 10
94.084730
 20
146.060518
 30
0.0
 10
94.085331
 20
146.016774
 30
0.0
 10
94.088735
 20
145.973086
 30
0.0
 10
94.091895
 20
145.929342
 30
0.0
  0
SPLINE
  5
12e
100
AcDbEntity
  8
Layer_1
 62
1
100
AcDbSpline
 70
8
 71
3
 72
8
 73
4
 74
0
 40
0
 40
0
 40
0
 40
0
 40
1
 40
1
 40
1
 40
1
 10
94.091895
 20
145.929342
 30
0.0
 10
94.094435
 20
145.892653
 30
0.0
 10
94.097035
 20
145.855456
 30
0.0
 10
94.101268
 20
145.819106
 30
0.0
  0
SPLINE
  5
12f
100
AcDbEntity
  8
Layer_1
 62
1
100
AcDbSpline
 70
8
 71
3
 72
8
 73
4
 74
0
 40
0
 40
0
 40
0
 40
0
 40
1
 40
1
 40
1
 40
1
 10
94.101268
 20
145.819106
 30
0.0
 10
94.105840
 20
145.778550
 30
0.0
 10
94.112402
 20
145.738588
 30
0.0
 10
94.119457
 20
145.698371
 30
0.0
  0
SPLINE
  5
130
100
AcDbEntity
  8
Layer_1
 62
1
100
AcDbSpline
 70
8
 71
3
 72
8
 73
4
 74
0
 40
0
 40
0
 40
0
 40
0
 40
1
 40
1
 40
1
 40
1
 10
94.119457
 20
145.698371
 30
0.0
 10
94.126174
 20
145.657449
 30
0.0
 10
94.133224
 20
145.616780
 30
0.0
 10
94.142058
 20
145.576564
 30
0.0
  0
SPLINE
  5
131
100
AcDbEntity
  8
Layer_1
 62
1
100
AcDbSpline
 70
8
 71
3
 72
8
 73
4
 74
0
 40
0
 40
0
 40
0
 40
0
 40
1
 40
1
 40
1
 40
1
 10
94.142058
 20
145.576564
 30
0.0
 10
94.149819
 20
145.542697
 30
0.0
 10
94.158793
 20
145.509197
 30
0.0
 10
94.167966
 20
145.475698
 30
0.0
  0
SPLINE
  5
132
100
AcDbEntity
  8
Layer_1
 62
1
100
AcDbSpline
 70
8
 71
3
 72
8
 73
4
 74
0
 40
0
 40
0
 40
0
 40
0
 40
1
 40
1
 40
1
 40
1
 10
94.167966
 20
145.475698
 30
0.0
 10
94.180327
 20
145.429836
 30
0.0
 10
94.192835
 20
145.385076
 30
0.0
 10
94.207652
 20
145.340626
 30
0.0
  0
SPLINE
  5
133
100
AcDbEntity
  8
Layer_1
 62
1
100
AcDbSpline
 70
8
 71
3
 72
8
 73
4
 74
0
 40
0
 40
0
 40
0
 40
0
 40
1
 40
1
 40
1
 40
1
 10
94.207652
 20
145.340626
 30
0.0
 10
94.217530
 20
145.311331
 30
0.0
 10
94.229039
 20
145.282460
 30
0.0
 10
94.239622
 20
145.253532
 30
0.0
  0
SPLINE
  5
134
100
AcDbEntity
  8
Layer_1
 62
1
100
AcDbSpline
 70
8
 71
3
 72
8
 73
4
 74
0
 40
0
 40
0
 40
0
 40
0
 40
1
 40
1
 40
1
 40
1
 10
94.239622
 20
145.253532
 30
0.0
 10
94.257599
 20
145.206260
 30
0.0
 10
94.275935
 20
145.159580
 30
0.0
 10
94.296397
 20
145.114086
 30
0.0
  0
SPLINE
  5
135
100
AcDbEntity
  8
Layer_1
 62
1
100
AcDbSpline
 70
8
 71
3
 72
8
 73
4
 74
0
 40
0
 40
0
 40
0
 40
0
 40
1
 40
1
 40
1
 40
1
 10
94.296397
 20
145.114086
 30
0.0
 10
94.301335
 20
145.102797
 30
0.0
 10
94.304900
 20
145.090916
 30
0.0
 10
94.310177
 20
145.079909
 30
0.0
  0
LWPOLYLINE
  5
136
100
AcDbEntity
  8
Layer_1
 62
1
100
AcDbPolyline
 90
3
 70
0
 10
107.082387
 20
148.585645
 30
0.0
 10
96.502911
 20
148.527762
 30
0.0
 10
96.502911
 20
148.524460
 30
0.0
  0
SPLINE
  5
137
100
AcDbEntity
  8
Layer_1
 62
1
100
AcDbSpline
 70
8
 71
3
 72
8
 73
4
 74
0
 40
0
 40
0
 40
0
 40
0
 40
1
 40
1
 40
1
 40
1
 10
104.881937
 20
122.267322
 30
0.0
 10
105.113006
 20
121.766039
 30
0.0
 10
105.515370
 20
121.339799
 30
0.0
 10
106.055473
 20
121.088254
 30
0.0
  0
SPLINE
  5
138
100
AcDbEntity
  8
Layer_1
 62
1
100
AcDbSpline
 70
8
 71
3
 72
8
 73
4
 74
0
 40
0
 40
0
 40
0
 40
0
 40
1
 40
1
 40
1
 40
1
 10
106.055473
 20
121.088254
 30
0.0
 10
106.117209
 20
121.059327
 30
0.0
 10
106.179739
 20
121.034943
 30
0.0
 10
106.242886
 20
121.011659
 30
0.0
  0
SPLINE
  5
139
100
AcDbEntity
  8
Layer_1
 62
1
100
AcDbSpline
 70
8
 71
3
 72
8
 73
4
 74
0
 40
0
 40
0
 40
0
 40
0
 40
1
 40
1
 40
1
 40
1
 10
106.242886
 20
121.011659
 30
0.0
 10
106.247119
 20
121.008837
 30
0.0
 10
106.251330
 20
121.008668
 30
0.0
 10
106.255563
 20
121.006692
 30
0.0
  0
SPLINE
  5
13a
100
AcDbEntity
  8
Layer_1
 62
1
100
AcDbSpline
 70
8
 71
3
 72
8
 73
4
 74
0
 40
0
 40
0
 40
0
 40
0
 40
1
 40
1
 40
1
 40
1
 10
106.255563
 20
121.006692
 30
0.0
 10
106.317299
 20
120.984397
 30
0.0
 10
106.379631
 20
120.965742
 30
0.0
 10
106.442425
 20
120.948808
 30
0.0
  0
SPLINE
  5
13b
100
AcDbEntity
  8
Layer_1
 62
1
100
AcDbSpline
 70
8
 71
3
 72
8
 73
4
 74
0
 40
0
 40
0
 40
0
 40
0
 40
1
 40
1
 40
1
 40
1
 10
106.442425
 20
120.948808
 30
0.0
 10
106.455831
 20
120.944857
 30
0.0
 10
106.469259
 20
120.940342
 30
0.0
 10
106.482665
 20
120.936673
 30
0.0
  0
SPLINE
  5
13c
100
AcDbEntity
  8
Layer_1
 62
1
100
AcDbSpline
 70
8
 71
3
 72
8
 73
4
 74
0
 40
0
 40
0
 40
0
 40
0
 40
1
 40
1
 40
1
 40
1
 10
106.482665
 20
120.936673
 30
0.0
 10
106.539462
 20
120.922280
 30
0.0
 10
106.596392
 20
120.911104
 30
0.0
 10
106.653542
 20
120.900859
 30
0.0
  0
SPLINE
  5
13d
100
AcDbEntity
  8
Layer_1
 62
1
100
AcDbSpline
 70
8
 71
3
 72
8
 73
4
 74
0
 40
0
 40
0
 40
0
 40
0
 40
1
 40
1
 40
1
 40
1
 10
106.653542
 20
120.900859
 30
0.0
 10
106.674708
 20
120.896908
 30
0.0
 10
106.695962
 20
120.892110
 30
0.0
 10
106.717482
 20
120.888723
 30
0.0
  0
SPLINE
  5
13e
100
AcDbEntity
  8
Layer_1
 62
1
100
AcDbSpline
 70
8
 71
3
 72
8
 73
4
 74
0
 40
0
 40
0
 40
0
 40
0
 40
1
 40
1
 40
1
 40
1
 10
106.717482
 20
120.888723
 30
0.0
 10
106.767224
 20
120.881386
 30
0.0
 10
106.817120
 20
120.876983
 30
0.0
 10
106.866862
 20
120.872750
 30
0.0
  0
SPLINE
  5
13f
100
AcDbEntity
  8
Layer_1
 62
1
100
AcDbSpline
 70
8
 71
3
 72
8
 73
4
 74
0
 40
0
 40
0
 40
0
 40
0
 40
1
 40
1
 40
1
 40
1
 10
106.866862
 20
120.872750
 30
0.0
 10
106.897201
 20
120.869927
 30
0.0
 10
106.927673
 20
120.866456
 30
0.0
 10
106.958364
 20
120.864480
 30
0.0
  0
SPLINE
  5
140
100
AcDbEntity
  8
Layer_1
 62
1
100
AcDbSpline
 70
8
 71
3
 72
8
 73
4
 74
0
 40
0
 40
0
 40
0
 40
0
 40
1
 40
1
 40
1
 40
1
 10
106.958364
 20
120.864480
 30
0.0
 10
106.999286
 20
120.861658
 30
0.0
 10
107.039613
 20
120.861715
 30
0.0
 10
107.080183
 20
120.861715
 30
0.0
  0
SPLINE
  5
141
100
AcDbEntity
  8
Layer_1
 62
1
100
AcDbSpline
 70
8
 71
3
 72
8
 73
4
 74
0
 40
0
 40
0
 40
0
 40
0
 40
1
 40
1
 40
1
 40
1
 10
107.080183
 20
120.861715
 30
0.0
 10
107.120752
 20
120.861715
 30
0.0
 10
107.160528
 20
120.861658
 30
0.0
 10
107.201451
 20
120.864480
 30
0.0
  0
SPLINE
  5
142
100
AcDbEntity
  8
Layer_1
 62
1
100
AcDbSpline
 70
8
 71
3
 72
8
 73
4
 74
0
 40
0
 40
0
 40
0
 40
0
 40
1
 40
1
 40
1
 40
1
 10
107.201451
 20
120.864480
 30
0.0
 10
107.232142
 20
120.867303
 30
0.0
 10
107.262614
 20
120.869927
 30
0.0
 10
107.292953
 20
120.872750
 30
0.0
  0
SPLINE
  5
143
100
AcDbEntity
  8
Layer_1
 62
1
100
AcDbSpline
 70
8
 71
3
 72
8
 73
4
 74
0
 40
0
 40
0
 40
0
 40
0
 40
1
 40
1
 40
1
 40
1
 10
107.292953
 20
120.872750
 30
0.0
 10
107.342694
 20
120.876983
 30
0.0
 10
107.392589
 20
120.881103
 30
0.0
 10
107.442330
 20
120.888723
 30
0.0
  0
SPLINE
  5
144
100
AcDbEntity
  8
Layer_1
 62
1
100
AcDbSpline
 70
8
 71
3
 72
8
 73
4
 74
0
 40
0
 40
0
 40
0
 40
0
 40
1
 40
1
 40
1
 40
1
 10
107.442330
 20
120.888723
 30
0.0
 10
107.463864
 20
120.891828
 30
0.0
 10
107.484751
 20
120.896908
 30
0.0
 10
107.506270
 20
120.900859
 30
0.0
  0
SPLINE
  5
145
100
AcDbEntity
  8
Layer_1
 62
1
100
AcDbSpline
 70
8
 71
3
 72
8
 73
4
 74
0
 40
0
 40
0
 40
0
 40
0
 40
1
 40
1
 40
1
 40
1
 10
107.506270
 20
120.900859
 30
0.0
 10
107.563420
 20
120.911019
 30
0.0
 10
107.620350
 20
120.922195
 30
0.0
 10
107.677148
 20
120.936673
 30
0.0
  0
SPLINE
  5
146
100
AcDbEntity
  8
Layer_1
 62
1
100
AcDbSpline
 70
8
 71
3
 72
8
 73
4
 74
0
 40
0
 40
0
 40
0
 40
0
 40
1
 40
1
 40
1
 40
1
 10
107.677148
 20
120.936673
 30
0.0
 10
107.690553
 20
120.940342
 30
0.0
 10
107.703981
 20
120.944886
 30
0.0
 10
107.717387
 20
120.948272
 30
0.0
  0
SPLINE
  5
147
100
AcDbEntity
  8
Layer_1
 62
1
100
AcDbSpline
 70
8
 71
3
 72
8
 73
4
 74
0
 40
0
 40
0
 40
0
 40
0
 40
1
 40
1
 40
1
 40
1
 10
107.717387
 20
120.948272
 30
0.0
 10
107.780181
 20
120.965488
 30
0.0
 10
107.842710
 20
120.984453
 30
0.0
 10
107.904799
 20
121.006692
 30
0.0
  0
SPLINE
  5
148
100
AcDbEntity
  8
Layer_1
 62
1
100
AcDbSpline
 70
8
 71
3
 72
8
 73
4
 74
0
 40
0
 40
0
 40
0
 40
0
 40
1
 40
1
 40
1
 40
1
 10
107.904799
 20
121.006692
 30
0.0
 10
107.908666
 20
121.009514
 30
0.0
 10
107.912510
 20
121.010248
 30
0.0
 10
107.916376
 20
121.011659
 30
0.0
  0
SPLINE
  5
149
100
AcDbEntity
  8
Layer_1
 62
1
100
AcDbSpline
 70
8
 71
3
 72
8
 73
4
 74
0
 40
0
 40
0
 40
0
 40
0
 40
1
 40
1
 40
1
 40
1
 10
107.916376
 20
121.011659
 30
0.0
 10
107.979523
 20
121.034802
 30
0.0
 10
108.042253
 20
121.059327
 30
0.0
 10
108.104342
 20
121.088254
 30
0.0
  0
SPLINE
  5
14a
100
AcDbEntity
  8
Layer_1
 62
1
100
AcDbSpline
 70
8
 71
3
 72
8
 73
4
 74
0
 40
0
 40
0
 40
0
 40
0
 40
1
 40
1
 40
1
 40
1
 10
108.104342
 20
121.088254
 30
0.0
 10
108.644092
 20
121.339799
 30
0.0
 10
109.046456
 20
121.765672
 30
0.0
 10
109.277878
 20
122.267322
 30
0.0
  0
LWPOLYLINE
  5
14b
100
AcDbEntity
  8
Layer_1
 62
1
100
AcDbPolyline
 90
3
 70
0
 10
94.310177
 20
145.079909
 30
0.0
 10
94.308524
 20
145.079909
 30
0.0
 10
104.881937
 20
122.267322
 30
0.0
  0
SPLINE
  5
14c
100
AcDbEntity
  8
Layer_1
 62
1
100
AcDbSpline
 70
8
 71
3
 72
8
 73
4
 74
0
 40
0
 40
0
 40
0
 40
0
 40
1
 40
1
 40
1
 40
1
 10
119.849635
 20
145.079909
 30
0.0
 10
120.414432
 20
146.291348
 30
0.0
 10
119.890294
 20
147.731472
 30
0.0
 10
118.678853
 20
148.296255
 30
0.0
  0
SPLINE
  5
14d
100
AcDbEntity
  8
Layer_1
 62
1
100
AcDbSpline
 70
8
 71
3
 72
8
 73
4
 74
0
 40
0
 40
0
 40
0
 40
0
 40
1
 40
1
 40
1
 40
1
 10
118.678853
 20
148.296255
 30
0.0
 10
117.467414
 20
148.861066
 30
0.0
 10
116.027310
 20
148.336923
 30
0.0
 10
115.462513
 20
147.125484
 30
0.0
  0
LWPOLYLINE
  5
14e
100
AcDbEntity
  8
Layer_1
 62
1
100
AcDbPolyline
 90
3
 70
0
 10
109.277878
 20
122.267322
 30
0.0
 10
119.851289
 20
145.079909
 30
0.0
 10
119.849635
 20
145.079909
 30
0.0
  0
SPLINE
  5
14f
100
AcDbEntity
  8
Layer_1
 62
1
100
AcDbSpline
 70
8
 71
3
 72
8
 73
4
 74
0
 40
0
 40
0
 40
0
 40
0
 40
1
 40
1
 40
1
 40
1
 10
107.082387
 20
143.742656
 30
0.0
 10
108.419062
 20
143.742656
 30
0.0
 10
109.502773
 20
144.826389
 30
0.0
 10
109.502773
 20
146.163050
 30
0.0
  0
SPLINE
  5
150
100
AcDbEntity
  8
Layer_1
 62
1
100
AcDbSpline
 70
8
 71
3
 72
8
 73
4
 74
0
 40
0
 40
0
 40
0
 40
0
 40
1
 40
1
 40
1
 40
1
 10
109.502773
 20
146.163050
 30
0.0
 10
109.502773
 20
147.499739
 30
0.0
 10
108.419062
 20
148.582880
 30
0.0
 10
107.082387
 20
148.582880
 30
0.0
  0
LWPOLYLINE
  5
151
100
AcDbEntity
  8
Layer_1
 62
1
100
AcDbPolyline
 90
6
 70
0
 10
115.462513
 20
147.125484
 30
0.0
 10
115.460859
 20
147.125484
 30
0.0
 10
107.080183
 20
129.043393
 30
0.0
 10
100.285903
 20
143.702439
 30
0.0
 10
107.082387
 20
143.739918
 30
0.0
 10
107.082387
 20
143.742656
 30
0.0
  0
LWPOLYLINE
  5
152
100
AcDbEntity
  8
Layer_1
 62
1
100
AcDbPolyline
 90
3
 70
0
 10
107.082387
 20
148.582880
 30
0.0
 10
107.082387
 20
148.585645
 30
0.0
 10
107.082387
 20
148.585645
 30
0.0
  0
SPLINE
  5
153
100
AcDbEntity
  8
Layer_1
 62
1
100
AcDbSpline
 70
8
 71
3
 72
8
 73
4
 74
0
 40
0
 40
0
 40
0
 40
0
 40
1
 40
1
 40
1
 40
1
 10
150.864313
 20
148.524460
 30
0.0
 10
149.527638
 20
148.524460
 30
0.0
 10
148.443927
 20
147.440754
 30
0.0
 10
148.443927
 20
146.104065
 30
0.0
  0
SPLINE
  5
154
100
AcDbEntity
  8
Layer_1
 62
1
100
AcDbSpline
 70
8
 71
3
 72
8
 73
4
 74
0
 40
0
 40
0
 40
0
 40
0
 40
1
 40
1
 40
1
 40
1
 10
148.443927
 20
146.104065
 30
0.0
 10
148.443927
 20
144.767404
 30
0.0
 10
149.527638
 20
143.683671
 30
0.0
 10
150.864313
 20
143.683671
 30
0.0
  0
LWPOLYLINE
  5
155
100
AcDbEntity
  8
Layer_1
 62
1
100
AcDbPolyline
 90
3
 70
0
 10
167.070594
 20
148.585645
 30
0.0
 10
150.864313
 20
148.527225
 30
0.0
 10
150.864313
 20
148.524460
 30
0.0
  0
SPLINE
  5
156
100
AcDbEntity
  8
Layer_1
 62
1
100
AcDbSpline
 70
8
 71
3
 72
8
 73
4
 74
0
 40
0
 40
0
 40
0
 40
0
 40
1
 40
1
 40
1
 40
1
 10
167.070594
 20
143.742119
 30
0.0
 10
168.407269
 20
143.742119
 30
0.0
 10
169.490980
 20
144.825288
 30
0.0
 10
169.490980
 20
146.161949
 30
0.0
  0
SPLINE
  5
157
100
AcDbEntity
  8
Layer_1
 62
1
100
AcDbSpline
 70
8
 71
3
 72
8
 73
4
 74
0
 40
0
 40
0
 40
0
 40
0
 40
1
 40
1
 40
1
 40
1
 10
169.490980
 20
146.161949
 30
0.0
 10
169.490980
 20
147.498638
 30
0.0
 10
168.407269
 20
148.582343
 30
0.0
 10
167.070594
 20
148.582343
 30
0.0
  0
LWPOLYLINE
  5
158
100
AcDbEntity
  8
Layer_1
 62
1
100
AcDbPolyline
 90
4
 70
0
 10
150.864313
 20
143.683671
 30
0.0
 10
150.864313
 20
143.681470
 30
0.0
 10
167.070594
 20
143.739354
 30
0.0
 10
167.070594
 20
143.742119
 30
0.0
  0
LWPOLYLINE
  5
159
100
AcDbEntity
  8
Layer_1
 62
1
100
AcDbPolyline
 90
3
 70
0
 10
167.070594
 20
148.582343
 30
0.0
 10
167.070594
 20
148.585645
 30
0.0
 10
167.070594
 20
148.585645
 30
0.0
  0
SPLINE
  5
15a
100
AcDbEntity
  8
Layer_1
 62
1
100
AcDbSpline
 70
8
 71
3
 72
8
 73
4
 74
0
 40
0
 40
0
 40
0
 40
0
 40
1
 40
1
 40
1
 40
1
 10
175.456232
 20
148.524460
 30
0.0
 10
174.119557
 20
148.524460
 30
0.0
 10
173.035846
 20
147.440754
 30
0.0
 10
173.035846
 20
146.104065
 30
0.0
  0
SPLINE
  5
15b
100
AcDbEntity
  8
Layer_1
 62
1
100
AcDbSpline
 70
8
 71
3
 72
8
 73
4
 74
0
 40
0
 40
0
 40
0
 40
0
 40
1
 40
1
 40
1
 40
1
 10
173.035846
 20
146.104065
 30
0.0
 10
173.035846
 20
144.767404
 30
0.0
 10
174.119557
 20
143.683671
 30
0.0
 10
175.456232
 20
143.683671
 30
0.0
  0
LWPOLYLINE
  5
15c
100
AcDbEntity
  8
Layer_1
 62
1
100
AcDbPolyline
 90
3
 70
0
 10
191.662513
 20
148.585645
 30
0.0
 10
175.456232
 20
148.527225
 30
0.0
 10
175.456232
 20
148.524460
 30
0.0
  0
SPLINE
  5
15d
100
AcDbEntity
  8
Layer_1
 62
1
100
AcDbSpline
 70
8
 71
3
 72
8
 73
4
 74
0
 40
0
 40
0
 40
0
 40
0
 40
1
 40
1
 40
1
 40
1
 10
191.662513
 20
143.742119
 30
0.0
 10
192.999188
 20
143.742119
 30
0.0
 10
194.082899
 20
144.825288
 30
0.0
 10
194.082899
 20
146.161949
 30
0.0
  0
SPLINE
  5
15e
100
AcDbEntity
  8
Layer_1
 62
1
100
AcDbSpline
 70
8
 71
3
 72
8
 73
4
 74
0
 40
0
 40
0
 40
0
 40
0
 40
1
 40
1
 40
1
 40
1
 10
194.082899
 20
146.161949
 30
0.0
 10
194.082899
 20
147.498638
 30
0.0
 10
192.999188
 20
148.582343
 30
0.0
 10
191.662513
 20
148.582343
 30
0.0
  0
LWPOLYLINE
  5
15f
100
AcDbEntity
  8
Layer_1
 62
1
100
AcDbPolyline
 90
4
 70
0
 10
175.456232
 20
143.683671
 30
0.0
 10
175.456232
 20
143.681470
 30
0.0
 10
191.662513
 20
143.739354
 30
0.0
 10
191.662513
 20
143.742119
 30
0.0
  0
SPLINE
  5
160
100
AcDbEntity
  8
Layer_1
 62
1
100
AcDbSpline
 70
8
 71
3
 72
8
 73
4
 74
0
 40
0
 40
0
 40
0
 40
0
 40
1
 40
1
 40
1
 40
1
 10
126.142860
 20
148.523359
 30
0.0
 10
124.847107
 20
148.523359
 30
0.0
 10
123.785554
 20
147.526042
 30
0.0
 10
123.681132
 20
146.256748
 30
0.0
  0
SPLINE
  5
161
100
AcDbEntity
  8
Layer_1
 62
1
100
AcDbSpline
 70
8
 71
3
 72
8
 73
4
 74
0
 40
0
 40
0
 40
0
 40
0
 40
1
 40
1
 40
1
 40
1
 10
123.681132
 20
146.256748
 30
0.0
 10
123.674782
 20
146.234170
 30
0.0
 10
123.670108
 20
146.211564
 30
0.0
 10
123.670108
 20
146.190058
 30
0.0
  0
LWPOLYLINE
  5
162
100
AcDbEntity
  8
Layer_1
 62
1
100
AcDbPolyline
 90
3
 70
0
 10
191.662513
 20
148.582343
 30
0.0
 10
191.662513
 20
148.585645
 30
0.0
 10
191.662513
 20
148.585645
 30
0.0
  0
SPLINE
  5
163
100
AcDbEntity
  8
Layer_1
 62
1
100
AcDbSpline
 70
8
 71
3
 72
8
 73
4
 74
0
 40
0
 40
0
 40
0
 40
0
 40
1
 40
1
 40
1
 40
1
 10
123.670108
 20
123.186182
 30
0.0
 10
123.670108
 20
123.167555
 30
0.0
 10
123.673777
 20
123.148082
 30
0.0
 10
123.678377
 20
123.128326
 30
0.0
  0
SPLINE
  5
164
100
AcDbEntity
  8
Layer_1
 62
1
100
AcDbSpline
 70
8
 71
3
 72
8
 73
4
 74
0
 40
0
 40
0
 40
0
 40
0
 40
1
 40
1
 40
1
 40
1
 10
123.678377
 20
123.128326
 30
0.0
 10
123.757399
 20
121.862559
 30
0.0
 10
124.804972
 20
120.860078
 30
0.0
 10
126.090494
 20
120.860078
 30
0.0
  0
SPLINE
  5
165
100
AcDbEntity
  8
Layer_1
 62
1
100
AcDbSpline
 70
8
 71
3
 72
8
 73
4
 74
0
 40
0
 40
0
 40
0
 40
0
 40
1
 40
1
 40
1
 40
1
 10
126.090494
 20
120.860078
 30
0.0
 10
127.373547
 20
120.860078
 30
0.0
 10
128.420966
 20
121.859455
 30
0.0
 10
128.503164
 20
123.121694
 30
0.0
  0
SPLINE
  5
166
100
AcDbEntity
  8
Layer_1
 62
1
100
AcDbSpline
 70
8
 71
3
 72
8
 73
4
 74
0
 40
0
 40
0
 40
0
 40
0
 40
1
 40
1
 40
1
 40
1
 10
128.503164
 20
123.121694
 30
0.0
 10
128.510219
 20
123.143425
 30
0.0
 10
128.515291
 20
123.165382
 30
0.0
 10
128.515291
 20
123.186182
 30
0.0
  0
LWPOLYLINE
  5
167
100
AcDbEntity
  8
Layer_1
 62
1
100
AcDbPolyline
 90
3
 70
0
 10
123.670108
 20
146.190058
 30
0.0
 10
123.670108
 20
144.121906
 30
0.0
 10
123.670108
 20
123.186182
 30
0.0
  0
SPLINE
  5
168
100
AcDbEntity
  8
Layer_1
 62
1
100
AcDbSpline
 70
8
 71
3
 72
8
 73
4
 74
0
 40
0
 40
0
 40
0
 40
0
 40
1
 40
1
 40
1
 40
1
 10
140.541155
 20
122.042984
 30
0.0
 10
140.975777
 20
121.334239
 30
0.0
 10
141.755724
 20
120.860078
 30
0.0
 10
142.647899
 20
120.860078
 30
0.0
  0
SPLINE
  5
169
100
AcDbEntity
  8
Layer_1
 62
1
100
AcDbSpline
 70
8
 71
3
 72
8
 73
4
 74
0
 40
0
 40
0
 40
0
 40
0
 40
1
 40
1
 40
1
 40
1
 10
142.647899
 20
120.860078
 30
0.0
 10
144.013501
 20
120.860078
 30
0.0
 10
145.120100
 20
121.967010
 30
0.0
 10
145.120100
 20
123.332260
 30
0.0
  0
LWPOLYLINE
  5
16a
100
AcDbEntity
  8
Layer_1
 62
1
100
AcDbPolyline
 90
3
 70
0
 10
128.515291
 20
123.186182
 30
0.0
 10
128.515291
 20
139.187420
 30
0.0
 10
140.541155
 20
122.042984
 30
0.0
  0
SPLINE
  5
16b
100
AcDbEntity
  8
Layer_1
 62
1
100
AcDbSpline
 70
8
 71
3
 72
8
 73
4
 74
0
 40
0
 40
0
 40
0
 40
0
 40
1
 40
1
 40
1
 40
1
 10
145.110177
 20
141.884504
 30
0.0
 10
145.007519
 20
143.136866
 30
0.0
 10
143.960895
 20
144.121906
 30
0.0
 10
142.682076
 20
144.121906
 30
0.0
  0
SPLINE
  5
16c
100
AcDbEntity
  8
Layer_1
 62
1
100
AcDbSpline
 70
8
 71
3
 72
8
 73
4
 74
0
 40
0
 40
0
 40
0
 40
0
 40
1
 40
1
 40
1
 40
1
 10
142.682076
 20
144.121906
 30
0.0
 10
141.403256
 20
144.121906
 30
0.0
 10
140.356630
 20
143.136866
 30
0.0
 10
140.253971
 20
141.884504
 30
0.0
  0
LWPOLYLINE
  5
16d
100
AcDbEntity
  8
Layer_1
 62
1
100
AcDbPolyline
 90
3
 70
0
 10
145.120100
 20
123.332260
 30
0.0
 10
145.120100
 20
141.884504
 30
0.0
 10
145.110177
 20
141.884504
 30
0.0
  0
SPLINE
  5
16e
100
AcDbEntity
  8
Layer_1
 62
1
100
AcDbSpline
 70
8
 71
3
 72
8
 73
4
 74
0
 40
0
 40
0
 40
0
 40
0
 40
1
 40
1
 40
1
 40
1
 10
128.264488
 20
147.315645
 30
0.0
 10
127.833041
 20
148.038134
 30
0.0
 10
127.045971
 20
148.523359
 30
0.0
 10
126.142860
 20
148.523359
 30
0.0
  0
LWPOLYLINE
  5
16f
100
AcDbEntity
  8
Layer_1
 62
1
100
AcDbPolyline
 90
4
 70
0
 10
140.253971
 20
141.884504
 30
0.0
 10
140.244048
 20
141.884504
 30
0.0
 10
140.244048
 20
130.196553
 30
0.0
 10
128.264488
 20
147.315645
 30
0.0
  0
SPLINE
  5
170
100
AcDbEntity
  8
Layer_1
 62
1
100
AcDbSpline
 70
8
 71
3
 72
8
 73
4
 74
0
 40
0
 40
0
 40
0
 40
0
 40
1
 40
1
 40
1
 40
1
 10
158.966628
 20
141.124932
 30
0.0
 10
154.041850
 20
141.124932
 30
0.0
 10
149.912519
 20
137.740269
 30
0.0
 10
148.765285
 20
133.171458
 30
0.0
  0
SPLINE
  5
171
100
AcDbEntity
  8
Layer_1
 62
1
100
AcDbSpline
 70
8
 71
3
 72
8
 73
4
 74
0
 40
0
 40
0
 40
0
 40
0
 40
1
 40
1
 40
1
 40
1
 10
148.765285
 20
133.171458
 30
0.0
 10
148.756791
 20
133.138297
 30
0.0
 10
148.749162
 20
133.104853
 30
0.0
 10
148.741034
 20
133.071692
 30
0.0
  0
SPLINE
  5
172
100
AcDbEntity
  8
Layer_1
 62
1
100
AcDbSpline
 70
8
 71
3
 72
8
 73
4
 74
0
 40
0
 40
0
 40
0
 40
0
 40
1
 40
1
 40
1
 40
1
 10
148.741034
 20
133.071692
 30
0.0
 10
148.731523
 20
133.016659
 30
0.0
 10
148.723945
 20
132.960864
 30
0.0
 10
148.723945
 20
132.903008
 30
0.0
  0
SPLINE
  5
173
100
AcDbEntity
  8
Layer_1
 62
1
100
AcDbSpline
 70
8
 71
3
 72
8
 73
4
 74
0
 40
0
 40
0
 40
0
 40
0
 40
1
 40
1
 40
1
 40
1
 10
148.723945
 20
132.903008
 30
0.0
 10
148.723945
 20
132.353719
 30
0.0
 10
149.168510
 20
131.909162
 30
0.0
 10
149.717785
 20
131.909162
 30
0.0
  0
LWPOLYLINE
  5
174
100
AcDbEntity
  8
Layer_1
 62
1
100
AcDbPolyline
 90
2
 70
0
 10
126.142860
 20
148.523359
 30
0.0
 10
126.142860
 20
148.523359
 30
0.0
  0
SPLINE
  5
175
100
AcDbEntity
  8
Layer_1
 62
1
100
AcDbSpline
 70
8
 71
3
 72
8
 73
4
 74
0
 40
0
 40
0
 40
0
 40
0
 40
1
 40
1
 40
1
 40
1
 10
152.706476
 20
131.909162
 30
0.0
 10
153.108290
 20
131.909162
 30
0.0
 10
153.452181
 20
132.148346
 30
0.0
 10
153.608814
 20
132.491246
 30
0.0
  0
SPLINE
  5
176
100
AcDbEntity
  8
Layer_1
 62
1
100
AcDbSpline
 70
8
 71
3
 72
8
 73
4
 74
0
 40
0
 40
0
 40
0
 40
0
 40
1
 40
1
 40
1
 40
1
 10
153.608814
 20
132.491246
 30
0.0
 10
153.623278
 20
132.531829
 30
0.0
 10
153.637206
 20
132.572864
 30
0.0
 10
153.652361
 20
132.613081
 30
0.0
  0
SPLINE
  5
177
100
AcDbEntity
  8
Layer_1
 62
1
100
AcDbSpline
 70
8
 71
3
 72
8
 73
4
 74
0
 40
0
 40
0
 40
0
 40
0
 40
1
 40
1
 40
1
 40
1
 10
153.652361
 20
132.613081
 30
0.0
 10
154.464456
 20
134.758337
 30
0.0
 10
156.536695
 20
136.283607
 30
0.0
 10
158.966628
 20
136.283607
 30
0.0
  0
SPLINE
  5
178
100
AcDbEntity
  8
Layer_1
 62
1
100
AcDbSpline
 70
8
 71
3
 72
8
 73
4
 74
0
 40
0
 40
0
 40
0
 40
0
 40
1
 40
1
 40
1
 40
1
 10
158.966628
 20
136.283607
 30
0.0
 10
161.396914
 20
136.283607
 30
0.0
 10
163.469153
 20
134.757914
 30
0.0
 10
164.280895
 20
132.611980
 30
0.0
  0
SPLINE
  5
179
100
AcDbEntity
  8
Layer_1
 62
1
100
AcDbSpline
 70
8
 71
3
 72
8
 73
4
 74
0
 40
0
 40
0
 40
0
 40
0
 40
1
 40
1
 40
1
 40
1
 10
164.280895
 20
132.611980
 30
0.0
 10
164.296770
 20
132.569986
 30
0.0
 10
164.311830
 20
132.526975
 30
0.0
 10
164.326646
 20
132.484642
 30
0.0
  0
SPLINE
  5
17a
100
AcDbEntity
  8
Layer_1
 62
1
100
AcDbSpline
 70
8
 71
3
 72
8
 73
4
 74
0
 40
0
 40
0
 40
0
 40
0
 40
1
 40
1
 40
1
 40
1
 10
164.326646
 20
132.484642
 30
0.0
 10
164.475871
 20
132.159381
 30
0.0
 10
164.794297
 20
131.931458
 30
0.0
 10
165.170005
 20
131.909162
 30
0.0
  0
SPLINE
  5
17b
100
AcDbEntity
  8
Layer_1
 62
1
100
AcDbSpline
 70
8
 71
3
 72
8
 73
4
 74
0
 40
0
 40
0
 40
0
 40
0
 40
1
 40
1
 40
1
 40
1
 10
165.170005
 20
131.909162
 30
0.0
 10
165.189761
 20
131.907751
 30
0.0
 10
165.208339
 20
131.903123
 30
0.0
 10
165.228434
 20
131.903123
 30
0.0
  0
SPLINE
  5
17c
100
AcDbEntity
  8
Layer_1
 62
1
100
AcDbSpline
 70
8
 71
3
 72
8
 73
4
 74
0
 40
0
 40
0
 40
0
 40
0
 40
1
 40
1
 40
1
 40
1
 10
165.228434
 20
131.903123
 30
0.0
 10
165.248542
 20
131.903123
 30
0.0
 10
165.267657
 20
131.909162
 30
0.0
 10
165.287412
 20
131.909162
 30
0.0
  0
LWPOLYLINE
  5
17d
100
AcDbEntity
  8
Layer_1
 62
1
100
AcDbPolyline
 90
2
 70
0
 10
149.717785
 20
131.909162
 30
0.0
 10
152.706476
 20
131.909162
 30
0.0
  0
SPLINE
  5
17e
100
AcDbEntity
  8
Layer_1
 62
1
100
AcDbSpline
 70
8
 71
3
 72
8
 73
4
 74
0
 40
0
 40
0
 40
0
 40
0
 40
1
 40
1
 40
1
 40
1
 10
168.158693
 20
131.909162
 30
0.0
 10
168.178449
 20
131.907751
 30
0.0
 10
168.196999
 20
131.903123
 30
0.0
 10
168.217122
 20
131.903123
 30
0.0
  0
SPLINE
  5
17f
100
AcDbEntity
  8
Layer_1
 62
1
100
AcDbSpline
 70
8
 71
3
 72
8
 73
4
 74
0
 40
0
 40
0
 40
0
 40
0
 40
1
 40
1
 40
1
 40
1
 10
168.217122
 20
131.903123
 30
0.0
 10
168.237230
 20
131.903123
 30
0.0
 10
168.255795
 20
131.909162
 30
0.0
 10
168.275550
 20
131.909162
 30
0.0
  0
SPLINE
  5
180
100
AcDbEntity
  8
Layer_1
 62
1
100
AcDbSpline
 70
8
 71
3
 72
8
 73
4
 74
0
 40
0
 40
0
 40
0
 40
0
 40
1
 40
1
 40
1
 40
1
 10
168.275550
 20
131.909162
 30
0.0
 10
168.796603
 20
131.939840
 30
0.0
 10
169.210965
 20
132.368140
 30
0.0
 10
169.210965
 20
132.896940
 30
0.0
  0
SPLINE
  5
181
100
AcDbEntity
  8
Layer_1
 62
1
100
AcDbSpline
 70
8
 71
3
 72
8
 73
4
 74
0
 40
0
 40
0
 40
0
 40
0
 40
1
 40
1
 40
1
 40
1
 10
169.210965
 20
132.896940
 30
0.0
 10
169.210965
 20
132.953385
 30
0.0
 10
169.203599
 20
133.008362
 30
0.0
 10
169.194426
 20
133.062322
 30
0.0
  0
SPLINE
  5
182
100
AcDbEntity
  8
Layer_1
 62
1
100
AcDbSpline
 70
8
 71
3
 72
8
 73
4
 74
0
 40
0
 40
0
 40
0
 40
0
 40
1
 40
1
 40
1
 40
1
 10
169.194426
 20
133.062322
 30
0.0
 10
169.185621
 20
133.099378
 30
0.0
 10
169.176929
 20
133.136434
 30
0.0
 10
169.167418
 20
133.173123
 30
0.0
  0
SPLINE
  5
183
100
AcDbEntity
  8
Layer_1
 62
1
100
AcDbSpline
 70
8
 71
3
 72
8
 73
4
 74
0
 40
0
 40
0
 40
0
 40
0
 40
1
 40
1
 40
1
 40
1
 10
169.167418
 20
133.173123
 30
0.0
 10
168.019832
 20
137.741256
 30
0.0
 10
163.890700
 20
141.124932
 30
0.0
 10
158.966628
 20
141.124932
 30
0.0
  0
LWPOLYLINE
  5
184
100
AcDbEntity
  8
Layer_1
 62
1
100
AcDbPolyline
 90
2
 70
0
 10
165.287412
 20
131.909162
 30
0.0
 10
168.158693
 20
131.909162
 30
0.0
  0
SPLINE
  5
185
100
AcDbEntity
  8
Layer_1
 62
1
100
AcDbSpline
 70
8
 71
3
 72
8
 73
4
 74
0
 40
0
 40
0
 40
0
 40
0
 40
1
 40
1
 40
1
 40
1
 10
183.555790
 20
141.124932
 30
0.0
 10
178.631009
 20
141.124932
 30
0.0
 10
174.501680
 20
137.740269
 30
0.0
 10
173.354450
 20
133.171458
 30
0.0
  0
SPLINE
  5
186
100
AcDbEntity
  8
Layer_1
 62
1
100
AcDbSpline
 70
8
 71
3
 72
8
 73
4
 74
0
 40
0
 40
0
 40
0
 40
0
 40
1
 40
1
 40
1
 40
1
 10
173.354450
 20
133.171458
 30
0.0
 10
173.345983
 20
133.138297
 30
0.0
 10
173.338323
 20
133.104853
 30
0.0
 10
173.330195
 20
133.071692
 30
0.0
  0
SPLINE
  5
187
100
AcDbEntity
  8
Layer_1
 62
1
100
AcDbSpline
 70
8
 71
3
 72
8
 73
4
 74
0
 40
0
 40
0
 40
0
 40
0
 40
1
 40
1
 40
1
 40
1
 10
173.330195
 20
133.071692
 30
0.0
 10
173.320685
 20
133.016659
 30
0.0
 10
173.313107
 20
132.960864
 30
0.0
 10
173.313107
 20
132.903008
 30
0.0
  0
SPLINE
  5
188
100
AcDbEntity
  8
Layer_1
 62
1
100
AcDbSpline
 70
8
 71
3
 72
8
 73
4
 74
0
 40
0
 40
0
 40
0
 40
0
 40
1
 40
1
 40
1
 40
1
 10
173.313107
 20
132.903008
 30
0.0
 10
173.313107
 20
132.353719
 30
0.0
 10
173.758225
 20
131.909162
 30
0.0
 10
174.307500
 20
131.909162
 30
0.0
  0
LWPOLYLINE
  5
189
100
AcDbEntity
  8
Layer_1
 62
1
100
AcDbPolyline
 90
2
 70
0
 10
158.966628
 20
141.124932
 30
0.0
 10
158.966628
 20
141.124932
 30
0.0
  0
SPLINE
  5
18a
100
AcDbEntity
  8
Layer_1
 62
1
100
AcDbSpline
 70
8
 71
3
 72
8
 73
4
 74
0
 40
0
 40
0
 40
0
 40
0
 40
1
 40
1
 40
1
 40
1
 10
177.295638
 20
131.909162
 30
0.0
 10
177.697452
 20
131.909162
 30
0.0
 10
178.041345
 20
132.148346
 30
0.0
 10
178.197978
 20
132.491246
 30
0.0
  0
SPLINE
  5
18b
100
AcDbEntity
  8
Layer_1
 62
1
100
AcDbSpline
 70
8
 71
3
 72
8
 73
4
 74
0
 40
0
 40
0
 40
0
 40
0
 40
1
 40
1
 40
1
 40
1
 10
178.197978
 20
132.491246
 30
0.0
 10
178.212442
 20
132.531829
 30
0.0
 10
178.226339
 20
132.572864
 30
0.0
 10
178.241523
 20
132.613081
 30
0.0
  0
SPLINE
  5
18c
100
AcDbEntity
  8
Layer_1
 62
1
100
AcDbSpline
 70
8
 71
3
 72
8
 73
4
 74
0
 40
0
 40
0
 40
0
 40
0
 40
1
 40
1
 40
1
 40
1
 10
178.241523
 20
132.613081
 30
0.0
 10
179.053617
 20
134.758337
 30
0.0
 10
181.125856
 20
136.283607
 30
0.0
 10
183.555790
 20
136.283607
 30
0.0
  0
SPLINE
  5
18d
100
AcDbEntity
  8
Layer_1
 62
1
100
AcDbSpline
 70
8
 71
3
 72
8
 73
4
 74
0
 40
0
 40
0
 40
0
 40
0
 40
1
 40
1
 40
1
 40
1
 10
183.555790
 20
136.283607
 30
0.0
 10
185.986076
 20
136.283607
 30
0.0
 10
188.058315
 20
134.757914
 30
0.0
 10
188.870057
 20
132.611980
 30
0.0
  0
SPLINE
  5
18e
100
AcDbEntity
  8
Layer_1
 62
1
100
AcDbSpline
 70
8
 71
3
 72
8
 73
4
 74
0
 40
0
 40
0
 40
0
 40
0
 40
1
 40
1
 40
1
 40
1
 10
188.870057
 20
132.611980
 30
0.0
 10
188.885929
 20
132.569986
 30
0.0
 10
188.900991
 20
132.526975
 30
0.0
 10
188.915808
 20
132.484642
 30
0.0
  0
SPLINE
  5
18f
100
AcDbEntity
  8
Layer_1
 62
1
100
AcDbSpline
 70
8
 71
3
 72
8
 73
4
 74
0
 40
0
 40
0
 40
0
 40
0
 40
1
 40
1
 40
1
 40
1
 10
188.915808
 20
132.484642
 30
0.0
 10
189.065033
 20
132.159381
 30
0.0
 10
189.383458
 20
131.931458
 30
0.0
 10
189.759167
 20
131.909162
 30
0.0
  0
SPLINE
  5
190
100
AcDbEntity
  8
Layer_1
 62
1
100
AcDbSpline
 70
8
 71
3
 72
8
 73
4
 74
0
 40
0
 40
0
 40
0
 40
0
 40
1
 40
1
 40
1
 40
1
 10
189.759167
 20
131.909162
 30
0.0
 10
189.778922
 20
131.907751
 30
0.0
 10
189.797501
 20
131.903123
 30
0.0
 10
189.817595
 20
131.903123
 30
0.0
  0
SPLINE
  5
191
100
AcDbEntity
  8
Layer_1
 62
1
100
AcDbSpline
 70
8
 71
3
 72
8
 73
4
 74
0
 40
0
 40
0
 40
0
 40
0
 40
1
 40
1
 40
1
 40
1
 10
189.817595
 20
131.903123
 30
0.0
 10
189.837703
 20
131.903123
 30
0.0
 10
189.856821
 20
131.909162
 30
0.0
 10
189.876577
 20
131.909162
 30
0.0
  0
LWPOLYLINE
  5
192
100
AcDbEntity
  8
Layer_1
 62
1
100
AcDbPolyline
 90
2
 70
0
 10
174.307500
 20
131.909162
 30
0.0
 10
177.295638
 20
131.909162
 30
0.0
  0
SPLINE
  5
193
100
AcDbEntity
  8
Layer_1
 62
1
100
AcDbSpline
 70
8
 71
3
 72
8
 73
4
 74
0
 40
0
 40
0
 40
0
 40
0
 40
1
 40
1
 40
1
 40
1
 10
192.747855
 20
131.909162
 30
0.0
 10
192.767610
 20
131.907751
 30
0.0
 10
192.786192
 20
131.903123
 30
0.0
 10
192.806286
 20
131.903123
 30
0.0
  0
SPLINE
  5
194
100
AcDbEntity
  8
Layer_1
 62
1
100
AcDbSpline
 70
8
 71
3
 72
8
 73
4
 74
0
 40
0
 40
0
 40
0
 40
0
 40
1
 40
1
 40
1
 40
1
 10
192.806286
 20
131.903123
 30
0.0
 10
192.826392
 20
131.903123
 30
0.0
 10
192.844959
 20
131.909162
 30
0.0
 10
192.864715
 20
131.909162
 30
0.0
  0
SPLINE
  5
195
100
AcDbEntity
  8
Layer_1
 62
1
100
AcDbSpline
 70
8
 71
3
 72
8
 73
4
 74
0
 40
0
 40
0
 40
0
 40
0
 40
1
 40
1
 40
1
 40
1
 10
192.864715
 20
131.909162
 30
0.0
 10
193.385765
 20
131.939840
 30
0.0
 10
193.800126
 20
132.368140
 30
0.0
 10
193.800126
 20
132.896940
 30
0.0
  0
SPLINE
  5
196
100
AcDbEntity
  8
Layer_1
 62
1
100
AcDbSpline
 70
8
 71
3
 72
8
 73
4
 74
0
 40
0
 40
0
 40
0
 40
0
 40
1
 40
1
 40
1
 40
1
 10
193.800126
 20
132.896940
 30
0.0
 10
193.800126
 20
132.953385
 30
0.0
 10
193.792763
 20
133.008362
 30
0.0
 10
193.783591
 20
133.062322
 30
0.0
  0
SPLINE
  5
197
100
AcDbEntity
  8
Layer_1
 62
1
100
AcDbSpline
 70
8
 71
3
 72
8
 73
4
 74
0
 40
0
 40
0
 40
0
 40
0
 40
1
 40
1
 40
1
 40
1
 10
193.783591
 20
133.062322
 30
0.0
 10
193.774785
 20
133.099378
 30
0.0
 10
193.765751
 20
133.136434
 30
0.0
 10
193.756579
 20
133.173123
 30
0.0
  0
SPLINE
  5
198
100
AcDbEntity
  8
Layer_1
 62
1
100
AcDbSpline
 70
8
 71
3
 72
8
 73
4
 74
0
 40
0
 40
0
 40
0
 40
0
 40
1
 40
1
 40
1
 40
1
 10
193.756579
 20
133.173123
 30
0.0
 10
192.608996
 20
137.741256
 30
0.0
 10
188.479862
 20
141.124932
 30
0.0
 10
183.555790
 20
141.124932
 30
0.0
  0
LWPOLYLINE
  5
199
100
AcDbEntity
  8
Layer_1
 62
1
100
AcDbPolyline
 90
2
 70
0
 10
189.876577
 20
131.909162
 30
0.0
 10
192.747855
 20
131.909162
 30
0.0
  0
SPLINE
  5
19a
100
AcDbEntity
  8
Layer_1
 62
1
100
AcDbSpline
 70
8
 71
3
 72
8
 73
4
 74
0
 40
0
 40
0
 40
0
 40
0
 40
1
 40
1
 40
1
 40
1
 10
165.229534
 20
129.296970
 30
0.0
 10
165.209412
 20
129.296970
 30
0.0
 10
165.190861
 20
129.292313
 30
0.0
 10
165.171106
 20
129.290902
 30
0.0
  0
SPLINE
  5
19b
100
AcDbEntity
  8
Layer_1
 62
1
100
AcDbSpline
 70
8
 71
3
 72
8
 73
4
 74
0
 40
0
 40
0
 40
0
 40
0
 40
1
 40
1
 40
1
 40
1
 10
165.171106
 20
129.290902
 30
0.0
 10
164.795398
 20
129.268607
 30
0.0
 10
164.476972
 20
129.040148
 30
0.0
 10
164.327747
 20
128.714887
 30
0.0
  0
SPLINE
  5
19c
100
AcDbEntity
  8
Layer_1
 62
1
100
AcDbSpline
 70
8
 71
3
 72
8
 73
4
 74
0
 40
0
 40
0
 40
0
 40
0
 40
1
 40
1
 40
1
 40
1
 10
164.327747
 20
128.714887
 30
0.0
 10
164.312930
 20
128.672553
 30
0.0
 10
164.297871
 20
128.630079
 30
0.0
 10
164.281996
 20
128.588112
 30
0.0
  0
SPLINE
  5
19d
100
AcDbEntity
  8
Layer_1
 62
1
100
AcDbSpline
 70
8
 71
3
 72
8
 73
4
 74
0
 40
0
 40
0
 40
0
 40
0
 40
1
 40
1
 40
1
 40
1
 10
164.281996
 20
128.588112
 30
0.0
 10
163.470254
 20
126.442151
 30
0.0
 10
161.397465
 20
124.915893
 30
0.0
 10
158.967178
 20
124.915893
 30
0.0
  0
SPLINE
  5
19e
100
AcDbEntity
  8
Layer_1
 62
1
100
AcDbSpline
 70
8
 71
3
 72
8
 73
4
 74
0
 40
0
 40
0
 40
0
 40
0
 40
1
 40
1
 40
1
 40
1
 10
158.967178
 20
124.915893
 30
0.0
 10
156.537245
 20
124.915893
 30
0.0
 10
154.465562
 20
126.441784
 30
0.0
 10
153.653465
 20
128.587012
 30
0.0
  0
SPLINE
  5
19f
100
AcDbEntity
  8
Layer_1
 62
1
100
AcDbSpline
 70
8
 71
3
 72
8
 73
4
 74
0
 40
0
 40
0
 40
0
 40
0
 40
1
 40
1
 40
1
 40
1
 10
153.653465
 20
128.587012
 30
0.0
 10
153.638309
 20
128.627228
 30
0.0
 10
153.624384
 20
128.667699
 30
0.0
 10
153.609918
 20
128.708254
 30
0.0
  0
SPLINE
  5
1a0
100
AcDbEntity
  8
Layer_1
 62
1
100
AcDbSpline
 70
8
 71
3
 72
8
 73
4
 74
0
 40
0
 40
0
 40
0
 40
0
 40
1
 40
1
 40
1
 40
1
 10
153.609918
 20
128.708254
 30
0.0
 10
153.453284
 20
129.051154
 30
0.0
 10
153.109394
 20
129.290902
 30
0.0
 10
152.707577
 20
129.290902
 30
0.0
  0
LWPOLYLINE
  5
1a1
100
AcDbEntity
  8
Layer_1
 62
1
100
AcDbPolyline
 90
2
 70
0
 10
183.555790
 20
141.124932
 30
0.0
 10
183.555790
 20
141.124932
 30
0.0
  0
SPLINE
  5
1a2
100
AcDbEntity
  8
Layer_1
 62
1
100
AcDbSpline
 70
8
 71
3
 72
8
 73
4
 74
0
 40
0
 40
0
 40
0
 40
0
 40
1
 40
1
 40
1
 40
1
 10
149.718889
 20
129.290902
 30
0.0
 10
149.169617
 20
129.290902
 30
0.0
 10
148.725049
 20
128.845781
 30
0.0
 10
148.725049
 20
128.296520
 30
0.0
  0
SPLINE
  5
1a3
100
AcDbEntity
  8
Layer_1
 62
1
100
AcDbSpline
 70
8
 71
3
 72
8
 73
4
 74
0
 40
0
 40
0
 40
0
 40
0
 40
1
 40
1
 40
1
 40
1
 10
148.725049
 20
128.296520
 30
0.0
 10
148.725049
 20
128.238665
 30
0.0
 10
148.732073
 20
128.182870
 30
0.0
 10
148.741584
 20
128.127836
 30
0.0
  0
SPLINE
  5
1a4
100
AcDbEntity
  8
Layer_1
 62
1
100
AcDbSpline
 70
8
 71
3
 72
8
 73
4
 74
0
 40
0
 40
0
 40
0
 40
0
 40
1
 40
1
 40
1
 40
1
 10
148.741584
 20
128.127836
 30
0.0
 10
148.749712
 20
128.094675
 30
0.0
 10
148.757922
 20
128.061768
 30
0.0
 10
148.766389
 20
128.028607
 30
0.0
  0
SPLINE
  5
1a5
100
AcDbEntity
  8
Layer_1
 62
1
100
AcDbSpline
 70
8
 71
3
 72
8
 73
4
 74
0
 40
0
 40
0
 40
0
 40
0
 40
1
 40
1
 40
1
 40
1
 10
148.766389
 20
128.028607
 30
0.0
 10
149.913625
 20
123.459768
 30
0.0
 10
154.043304
 20
120.075133
 30
0.0
 10
158.967729
 20
120.075133
 30
0.0
  0
SPLINE
  5
1a6
100
AcDbEntity
  8
Layer_1
 62
1
100
AcDbSpline
 70
8
 71
3
 72
8
 73
4
 74
0
 40
0
 40
0
 40
0
 40
0
 40
1
 40
1
 40
1
 40
1
 10
158.967729
 20
120.075133
 30
0.0
 10
163.891801
 20
120.075133
 30
0.0
 10
168.020935
 20
123.458865
 30
0.0
 10
169.168521
 20
128.026970
 30
0.0
  0
SPLINE
  5
1a7
100
AcDbEntity
  8
Layer_1
 62
1
100
AcDbSpline
 70
8
 71
3
 72
8
 73
4
 74
0
 40
0
 40
0
 40
0
 40
0
 40
1
 40
1
 40
1
 40
1
 10
169.168521
 20
128.026970
 30
0.0
 10
169.178032
 20
128.063659
 30
0.0
 10
169.186725
 20
128.100743
 30
0.0
 10
169.195530
 20
128.137770
 30
0.0
  0
SPLINE
  5
1a8
100
AcDbEntity
  8
Layer_1
 62
1
100
AcDbSpline
 70
8
 71
3
 72
8
 73
4
 74
0
 40
0
 40
0
 40
0
 40
0
 40
1
 40
1
 40
1
 40
1
 10
169.195530
 20
128.137770
 30
0.0
 10
169.204702
 20
128.191760
 30
0.0
 10
169.212065
 20
128.246116
 30
0.0
 10
169.212065
 20
128.302560
 30
0.0
  0
SPLINE
  5
1a9
100
AcDbEntity
  8
Layer_1
 62
1
100
AcDbSpline
 70
8
 71
3
 72
8
 73
4
 74
0
 40
0
 40
0
 40
0
 40
0
 40
1
 40
1
 40
1
 40
1
 10
169.212065
 20
128.302560
 30
0.0
 10
169.212065
 20
128.831388
 30
0.0
 10
168.797707
 20
129.260196
 30
0.0
 10
168.276654
 20
129.290902
 30
0.0
  0
SPLINE
  5
1aa
100
AcDbEntity
  8
Layer_1
 62
1
100
AcDbSpline
 70
8
 71
3
 72
8
 73
4
 74
0
 40
0
 40
0
 40
0
 40
0
 40
1
 40
1
 40
1
 40
1
 10
168.276654
 20
129.290902
 30
0.0
 10
168.256898
 20
129.290902
 30
0.0
 10
168.238334
 20
129.296970
 30
0.0
 10
168.218225
 20
129.296970
 30
0.0
  0
SPLINE
  5
1ab
100
AcDbEntity
  8
Layer_1
 62
1
100
AcDbSpline
 70
8
 71
3
 72
8
 73
4
 74
0
 40
0
 40
0
 40
0
 40
0
 40
1
 40
1
 40
1
 40
1
 10
168.218225
 20
129.296970
 30
0.0
 10
168.198103
 20
129.296970
 30
0.0
 10
168.178999
 20
129.292313
 30
0.0
 10
168.159244
 20
129.290902
 30
0.0
  0
LWPOLYLINE
  5
1ac
100
AcDbEntity
  8
Layer_1
 62
1
100
AcDbPolyline
 90
2
 70
0
 10
152.707577
 20
129.290902
 30
0.0
 10
149.718889
 20
129.290902
 30
0.0
  0
SPLINE
  5
1ad
100
AcDbEntity
  8
Layer_1
 62
1
100
AcDbSpline
 70
8
 71
3
 72
8
 73
4
 74
0
 40
0
 40
0
 40
0
 40
0
 40
1
 40
1
 40
1
 40
1
 10
165.288516
 20
129.290902
 30
0.0
 10
165.288333
 20
129.290902
 30
0.0
 10
165.288146
 20
129.290902
 30
0.0
 10
165.287966
 20
129.290902
 30
0.0
  0
SPLINE
  5
1ae
100
AcDbEntity
  8
Layer_1
 62
1
100
AcDbSpline
 70
8
 71
3
 72
8
 73
4
 74
0
 40
0
 40
0
 40
0
 40
0
 40
1
 40
1
 40
1
 40
1
 10
165.287966
 20
129.290902
 30
0.0
 10
165.268410
 20
129.291015
 30
0.0
 10
165.249459
 20
129.296970
 30
0.0
 10
165.229534
 20
129.296970
 30
0.0
  0
LWPOLYLINE
  5
1af
100
AcDbEntity
  8
Layer_1
 62
1
100
AcDbPolyline
 90
2
 70
0
 10
168.159244
 20
129.290902
 30
0.0
 10
165.288516
 20
129.290902
 30
0.0
  0
SPLINE
  5
1b0
100
AcDbEntity
  8
Layer_1
 62
1
100
AcDbSpline
 70
8
 71
3
 72
8
 73
4
 74
0
 40
0
 40
0
 40
0
 40
0
 40
1
 40
1
 40
1
 40
1
 10
189.818699
 20
129.296970
 30
0.0
 10
189.798604
 20
129.296970
 30
0.0
 10
189.780026
 20
129.292313
 30
0.0
 10
189.760270
 20
129.290902
 30
0.0
  0
SPLINE
  5
1b1
100
AcDbEntity
  8
Layer_1
 62
1
100
AcDbSpline
 70
8
 71
3
 72
8
 73
4
 74
0
 40
0
 40
0
 40
0
 40
0
 40
1
 40
1
 40
1
 40
1
 10
189.760270
 20
129.290902
 30
0.0
 10
189.384565
 20
129.268607
 30
0.0
 10
189.066136
 20
129.040148
 30
0.0
 10
188.916908
 20
128.714887
 30
0.0
  0
SPLINE
  5
1b2
100
AcDbEntity
  8
Layer_1
 62
1
100
AcDbSpline
 70
8
 71
3
 72
8
 73
4
 74
0
 40
0
 40
0
 40
0
 40
0
 40
1
 40
1
 40
1
 40
1
 10
188.916908
 20
128.714887
 30
0.0
 10
188.902092
 20
128.672553
 30
0.0
 10
188.887035
 20
128.630079
 30
0.0
 10
188.871160
 20
128.588112
 30
0.0
  0
SPLINE
  5
1b3
100
AcDbEntity
  8
Layer_1
 62
1
100
AcDbSpline
 70
8
 71
3
 72
8
 73
4
 74
0
 40
0
 40
0
 40
0
 40
0
 40
1
 40
1
 40
1
 40
1
 10
188.871160
 20
128.588112
 30
0.0
 10
188.059421
 20
126.442151
 30
0.0
 10
185.987179
 20
124.915893
 30
0.0
 10
183.556893
 20
124.915893
 30
0.0
  0
SPLINE
  5
1b4
100
AcDbEntity
  8
Layer_1
 62
1
100
AcDbSpline
 70
8
 71
3
 72
8
 73
4
 74
0
 40
0
 40
0
 40
0
 40
0
 40
1
 40
1
 40
1
 40
1
 10
183.556893
 20
124.915893
 30
0.0
 10
181.126960
 20
124.915893
 30
0.0
 10
179.054720
 20
126.441784
 30
0.0
 10
178.242626
 20
128.587012
 30
0.0
  0
SPLINE
  5
1b5
100
AcDbEntity
  8
Layer_1
 62
1
100
AcDbSpline
 70
8
 71
3
 72
8
 73
4
 74
0
 40
0
 40
0
 40
0
 40
0
 40
1
 40
1
 40
1
 40
1
 10
178.242626
 20
128.587012
 30
0.0
 10
178.227471
 20
128.627228
 30
0.0
 10
178.213543
 20
128.667699
 30
0.0
 10
178.199079
 20
128.708254
 30
0.0
  0
SPLINE
  5
1b6
100
AcDbEntity
  8
Layer_1
 62
1
100
AcDbSpline
 70
8
 71
3
 72
8
 73
4
 74
0
 40
0
 40
0
 40
0
 40
0
 40
1
 40
1
 40
1
 40
1
 10
178.199079
 20
128.708254
 30
0.0
 10
178.042446
 20
129.051154
 30
0.0
 10
177.698552
 20
129.290902
 30
0.0
 10
177.296741
 20
129.290902
 30
0.0
  0
LWPOLYLINE
  5
1b7
100
AcDbEntity
  8
Layer_1
 62
1
100
AcDbPolyline
 90
2
 70
0
 10
165.229534
 20
129.296970
 30
0.0
 10
165.229534
 20
129.296970
 30
0.0
  0
SPLINE
  5
1b8
100
AcDbEntity
  8
Layer_1
 62
1
100
AcDbSpline
 70
8
 71
3
 72
8
 73
4
 74
0
 40
0
 40
0
 40
0
 40
0
 40
1
 40
1
 40
1
 40
1
 10
174.308050
 20
129.290902
 30
0.0
 10
173.758775
 20
129.290902
 30
0.0
 10
173.314210
 20
128.845781
 30
0.0
 10
173.314210
 20
128.296520
 30
0.0
  0
SPLINE
  5
1b9
100
AcDbEntity
  8
Layer_1
 62
1
100
AcDbSpline
 70
8
 71
3
 72
8
 73
4
 74
0
 40
0
 40
0
 40
0
 40
0
 40
1
 40
1
 40
1
 40
1
 10
173.314210
 20
128.296520
 30
0.0
 10
173.314210
 20
128.238665
 30
0.0
 10
173.321788
 20
128.182870
 30
0.0
 10
173.331299
 20
128.127836
 30
0.0
  0
LWPOLYLINE
  5
1ba
100
AcDbEntity
  8
Layer_1
 62
1
100
AcDbPolyline
 90
2
 70
0
 10
177.296741
 20
129.290902
 30
0.0
 10
174.308050
 20
129.290902
 30
0.0
  0
SPLINE
  5
1bb
100
AcDbEntity
  8
Layer_1
 62
1
100
AcDbSpline
 70
8
 71
3
 72
8
 73
4
 74
0
 40
0
 40
0
 40
0
 40
0
 40
1
 40
1
 40
1
 40
1
 10
173.330746
 20
128.127836
 30
0.0
 10
173.338874
 20
128.094675
 30
0.0
 10
173.347084
 20
128.061768
 30
0.0
 10
173.355550
 20
128.028607
 30
0.0
  0
SPLINE
  5
1bc
100
AcDbEntity
  8
Layer_1
 62
1
100
AcDbSpline
 70
8
 71
3
 72
8
 73
4
 74
0
 40
0
 40
0
 40
0
 40
0
 40
1
 40
1
 40
1
 40
1
 10
173.355550
 20
128.028607
 30
0.0
 10
174.502784
 20
123.459768
 30
0.0
 10
178.632468
 20
120.075133
 30
0.0
 10
183.556893
 20
120.075133
 30
0.0
  0
SPLINE
  5
1bd
100
AcDbEntity
  8
Layer_1
 62
1
100
AcDbSpline
 70
8
 71
3
 72
8
 73
4
 74
0
 40
0
 40
0
 40
0
 40
0
 40
1
 40
1
 40
1
 40
1
 10
183.556893
 20
120.075133
 30
0.0
 10
188.480965
 20
120.075133
 30
0.0
 10
192.610099
 20
123.458865
 30
0.0
 10
193.757683
 20
128.026970
 30
0.0
  0
SPLINE
  5
1be
100
AcDbEntity
  8
Layer_1
 62
1
100
AcDbSpline
 70
8
 71
3
 72
8
 73
4
 74
0
 40
0
 40
0
 40
0
 40
0
 40
1
 40
1
 40
1
 40
1
 10
193.757683
 20
128.026970
 30
0.0
 10
193.767194
 20
128.063659
 30
0.0
 10
193.775886
 20
128.100743
 30
0.0
 10
193.784691
 20
128.137770
 30
0.0
  0
SPLINE
  5
1bf
100
AcDbEntity
  8
Layer_1
 62
1
100
AcDbSpline
 70
8
 71
3
 72
8
 73
4
 74
0
 40
0
 40
0
 40
0
 40
0
 40
1
 40
1
 40
1
 40
1
 10
193.784691
 20
128.137770
 30
0.0
 10
193.793864
 20
128.191760
 30
0.0
 10
193.801230
 20
128.246116
 30
0.0
 10
193.801230
 20
128.302560
 30
0.0
  0
SPLINE
  5
1c0
100
AcDbEntity
  8
Layer_1
 62
1
100
AcDbSpline
 70
8
 71
3
 72
8
 73
4
 74
0
 40
0
 40
0
 40
0
 40
0
 40
1
 40
1
 40
1
 40
1
 10
193.801230
 20
128.302560
 30
0.0
 10
193.801230
 20
128.831388
 30
0.0
 10
193.386865
 20
129.260196
 30
0.0
 10
192.865815
 20
129.290902
 30
0.0
  0
SPLINE
  5
1c1
100
AcDbEntity
  8
Layer_1
 62
1
100
AcDbSpline
 70
8
 71
3
 72
8
 73
4
 74
0
 40
0
 40
0
 40
0
 40
0
 40
1
 40
1
 40
1
 40
1
 10
192.865815
 20
129.290902
 30
0.0
 10
192.846060
 20
129.290902
 30
0.0
 10
192.827495
 20
129.296970
 30
0.0
 10
192.807387
 20
129.296970
 30
0.0
  0
SPLINE
  5
1c2
100
AcDbEntity
  8
Layer_1
 62
1
100
AcDbSpline
 70
8
 71
3
 72
8
 73
4
 74
0
 40
0
 40
0
 40
0
 40
0
 40
1
 40
1
 40
1
 40
1
 10
192.807387
 20
129.296970
 30
0.0
 10
192.787264
 20
129.296970
 30
0.0
 10
192.768164
 20
129.292313
 30
0.0
 10
192.748408
 20
129.290902
 30
0.0
  0
LWPOLYLINE
  5
1c3
100
AcDbEntity
  8
Layer_1
 62
1
100
AcDbPolyline
 90
2
 70
0
 10
173.331299
 20
128.127836
 30
0.0
 10
173.330746
 20
128.127836
 30
0.0
  0
SPLINE
  5
1c4
100
AcDbEntity
  8
Layer_1
 62
1
100
AcDbSpline
 70
8
 71
3
 72
8
 73
4
 74
0
 40
0
 40
0
 40
0
 40
0
 40
1
 40
1
 40
1
 40
1
 10
189.877127
 20
129.290902
 30
0.0
 10
189.857372
 20
129.290902
 30
0.0
 10
189.838807
 20
129.296970
 30
0.0
 10
189.818699
 20
129.296970
 30
0.0
  0
LWPOLYLINE
  5
1c5
100
AcDbEntity
  8
Layer_1
 62
1
100
AcDbPolyline
 90
2
 70
0
 10
192.748408
 20
129.290902
 30
0.0
 10
189.877127
 20
129.290902
 30
0.0
  0
SPLINE
  5
1c6
100
AcDbEntity
  8
Layer_1
 62
1
100
AcDbSpline
 70
8
 71
3
 72
8
 73
4
 74
0
 40
0
 40
0
 40
0
 40
0
 40
1
 40
1
 40
1
 40
1
 10
255.516064
 20
58.609914
 30
0.0
 10
255.516064
 20
57.367431
 30
0.0
 10
254.508883
 20
56.359897
 30
0.0
 10
253.266047
 20
56.359897
 30
0.0
  0
SPLINE
  5
1c7
100
AcDbEntity
  8
Layer_1
 62
1
100
AcDbSpline
 70
8
 71
3
 72
8
 73
4
 74
0
 40
0
 40
0
 40
0
 40
0
 40
1
 40
1
 40
1
 40
1
 10
253.266047
 20
56.359897
 30
0.0
 10
252.023564
 20
56.359897
 30
0.0
 10
251.016031
 20
57.367431
 30
0.0
 10
251.016031
 20
58.609914
 30
0.0
  0
SPLINE
  5
1c8
100
AcDbEntity
  8
Layer_1
 62
1
100
AcDbSpline
 70
8
 71
3
 72
8
 73
4
 74
0
 40
0
 40
0
 40
0
 40
0
 40
1
 40
1
 40
1
 40
1
 10
251.016031
 20
58.609914
 30
0.0
 10
251.016031
 20
59.852397
 30
0.0
 10
252.023564
 20
60.859931
 30
0.0
 10
253.266047
 20
60.859931
 30
0.0
  0
SPLINE
  5
1c9
100
AcDbEntity
  8
Layer_1
 62
1
100
AcDbSpline
 70
8
 71
3
 72
8
 73
4
 74
0
 40
0
 40
0
 40
0
 40
0
 40
1
 40
1
 40
1
 40
1
 10
253.266047
 20
60.859931
 30
0.0
 10
254.508883
 20
60.859931
 30
0.0
 10
255.516064
 20
59.852397
 30
0.0
 10
255.516064
 20
58.609914
 30
0.0
  0
LWPOLYLINE
  5
1ca
100
AcDbEntity
  8
Layer_1
 62
1
100
AcDbPolyline
 90
2
 70
0
 10
189.818699
 20
129.296970
 30
0.0
 10
189.818699
 20
129.296970
 30
0.0
  0
SPLINE
  5
1cb
100
AcDbEntity
  8
Layer_1
 62
1
100
AcDbSpline
 70
8
 71
3
 72
8
 73
4
 74
0
 40
0
 40
0
 40
0
 40
0
 40
1
 40
1
 40
1
 40
1
 10
36.352093
 20
58.609914
 30
0.0
 10
36.352093
 20
57.367431
 30
0.0
 10
35.344560
 20
56.359897
 30
0.0
 10
34.102077
 20
56.359897
 30
0.0
  0
SPLINE
  5
1cc
100
AcDbEntity
  8
Layer_1
 62
1
100
AcDbSpline
 70
8
 71
3
 72
8
 73
4
 74
0
 40
0
 40
0
 40
0
 40
0
 40
1
 40
1
 40
1
 40
1
 10
34.102077
 20
56.359897
 30
0.0
 10
32.859593
 20
56.359897
 30
0.0
 10
31.852060
 20
57.367431
 30
0.0
 10
31.852060
 20
58.609914
 30
0.0
  0
SPLINE
  5
1cd
100
AcDbEntity
  8
Layer_1
 62
1
100
AcDbSpline
 70
8
 71
3
 72
8
 73
4
 74
0
 40
0
 40
0
 40
0
 40
0
 40
1
 40
1
 40
1
 40
1
 10
31.852060
 20
58.609914
 30
0.0
 10
31.852060
 20
59.852397
 30
0.0
 10
32.859593
 20
60.859931
 30
0.0
 10
34.102077
 20
60.859931
 30
0.0
  0
SPLINE
  5
1ce
100
AcDbEntity
  8
Layer_1
 62
1
100
AcDbSpline
 70
8
 71
3
 72
8
 73
4
 74
0
 40
0
 40
0
 40
0
 40
0
 40
1
 40
1
 40
1
 40
1
 10
34.102077
 20
60.859931
 30
0.0
 10
35.344560
 20
60.859931
 30
0.0
 10
36.352093
 20
59.852397
 30
0.0
 10
36.352093
 20
58.609914
 30
0.0
  0
LWPOLYLINE
  5
1cf
100
AcDbEntity
  8
Layer_1
 62
1
100
AcDbPolyline
 90
2
 70
1
 10
255.516064
 20
58.609914
 30
0.0
 10
255.516064
 20
58.609914
 30
0.0
  0
LWPOLYLINE
  5
1d0
100
AcDbEntity
  8
Layer_1
 62
1
100
AcDbPolyline
 90
2
 70
1
 10
36.352093
 20
58.609914
 30
0.0
 10
36.352093
 20
58.609914
 30
0.0
  0
LWPOLYLINE
  5
1d1
100
AcDbEntity
  8
Layer_1
 62
1
100
AcDbPolyline
 90
2
 70
0
 10
273.619031
 20
390.345110
 30
0.0
 10
273.619031
 20
381.429004
 30
0.0
  0
SPLINE
  5
1d2
100
AcDbEntity
  8
Layer_1
 62
1
100
AcDbSpline
 70
8
 71
3
 72
8
 73
4
 74
0
 40
0
 40
0
 40
0
 40
0
 40
1
 40
1
 40
1
 40
1
 10
273.581989
 20
441.505649
 30
0.0
 10
273.645136
 20
441.864777
 30
0.0
 10
273.683942
 20
442.232371
 30
0.0
 10
273.683942
 20
442.609490
 30
0.0
  0
LWPOLYLINE
  5
1d3
100
AcDbEntity
  8
Layer_1
 62
1
100
AcDbPolyline
 90
6
 70
0
 10
273.619031
 20
390.345110
 30
0.0
 10
273.619031
 20
409.270227
 30
0.0
 10
273.619031
 20
409.377824
 30
0.0
 10
273.619031
 20
432.270279
 30
0.0
 10
273.581989
 20
432.270279
 30
0.0
 10
273.581989
 20
441.505649
 30
0.0
  0
SPLINE
  5
1d4
100
AcDbEntity
  8
Layer_1
 62
1
100
AcDbSpline
 70
8
 71
3
 72
8
 73
4
 74
0
 40
0
 40
0
 40
0
 40
0
 40
1
 40
1
 40
1
 40
1
 10
273.683942
 20
452.038182
 30
0.0
 10
273.683942
 20
455.545499
 30
0.0
 10
270.841258
 20
458.388182
 30
0.0
 10
267.333942
 20
458.388182
 30
0.0
  0
LWPOLYLINE
  5
1d5
100
AcDbEntity
  8
Layer_1
 62
1
100
AcDbPolyline
 90
2
 70
0
 10
273.683942
 20
442.609490
 30
0.0
 10
273.683942
 20
452.038182
 30
0.0
  0
SPLINE
  5
1d6
100
AcDbEntity
  8
Layer_1
 62
1
100
AcDbSpline
 70
8
 71
3
 72
8
 73
4
 74
0
 40
0
 40
0
 40
0
 40
0
 40
1
 40
1
 40
1
 40
1
 10
20.034251
 20
458.388182
 30
0.0
 10
16.575264
 20
458.388182
 30
0.0
 10
13.768211
 20
455.621699
 30
0.0
 10
13.691306
 20
452.181410
 30
0.0
  0
LWPOLYLINE
  5
1d7
100
AcDbEntity
  8
Layer_1
 62
1
100
AcDbPolyline
 90
4
 70
0
 10
267.333942
 20
458.388182
 30
0.0
 10
262.579556
 20
458.388182
 30
0.0
 10
24.686332
 20
458.388182
 30
0.0
 10
20.034251
 20
458.388182
 30
0.0
  0
SPLINE
  5
1d8
100
AcDbEntity
  8
Layer_1
 62
1
100
AcDbSpline
 70
8
 71
3
 72
8
 73
4
 74
0
 40
0
 40
0
 40
0
 40
0
 40
1
 40
1
 40
1
 40
1
 10
13.684261
 20
53.214446
 30
0.0
 10
13.684261
 20
49.707468
 30
0.0
 10
16.526945
 20
46.864446
 30
0.0
 10
20.034263
 20
46.864446
 30
0.0
  0
LWPOLYLINE
  5
1d9
100
AcDbEntity
  8
Layer_1
 62
1
100
AcDbPolyline
 90
14
 70
0
 10
13.691306
 20
452.181410
 30
0.0
 10
13.684250
 20
452.181410
 30
0.0
 10
13.684250
 20
452.038182
 30
0.0
 10
13.684250
 20
442.609490
 30
0.0
 10
13.684250
 20
441.979782
 30
0.0
 10
13.684250
 20
432.181379
 30
0.0
 10
13.721292
 20
432.181379
 30
0.0
 10
13.721292
 20
409.377824
 30
0.0
 10
13.721292
 20
409.270227
 30
0.0
 10
13.721292
 20
239.377740
 30
0.0
 10
13.764683
 20
239.377740
 30
0.0
 10
13.764683
 20
219.377710
 30
0.0
 10
13.786217
 20
219.377710
 30
0.0
 10
13.684261
 20
53.214446
 30
0.0
  0
SPLINE
  5
1da
100
AcDbEntity
  8
Layer_1
 62
1
100
AcDbSpline
 70
8
 71
3
 72
8
 73
4
 74
0
 40
0
 40
0
 40
0
 40
0
 40
1
 40
1
 40
1
 40
1
 10
103.774181
 20
17.786018
 30
0.0
 10
103.774181
 20
14.279068
 30
0.0
 10
106.617217
 20
11.436018
 30
0.0
 10
110.124181
 20
11.436018
 30
0.0
  0
LWPOLYLINE
  5
1db
100
AcDbEntity
  8
Layer_1
 62
1
100
AcDbPolyline
 90
4
 70
0
 10
20.034263
 20
46.864446
 30
0.0
 10
35.136327
 20
46.864446
 30
0.0
 10
103.774181
 20
46.864446
 30
0.0
 10
103.774181
 20
17.786018
 30
0.0
  0
SPLINE
  5
1dc
100
AcDbEntity
  8
Layer_1
 62
1
100
AcDbSpline
 70
8
 71
3
 72
8
 73
4
 74
0
 40
0
 40
0
 40
0
 40
0
 40
1
 40
1
 40
1
 40
1
 10
177.244034
 20
11.436018
 30
0.0
 10
180.750997
 20
11.436018
 30
0.0
 10
183.594034
 20
14.279068
 30
0.0
 10
183.594034
 20
17.786018
 30
0.0
  0
LWPOLYLINE
  5
1dd
100
AcDbEntity
  8
Layer_1
 62
1
100
AcDbPolyline
 90
2
 70
0
 10
110.124181
 20
11.436018
 30
0.0
 10
177.244034
 20
11.436018
 30
0.0
  0
SPLINE
  5
1de
100
AcDbEntity
  8
Layer_1
 62
1
100
AcDbSpline
 70
8
 71
3
 72
8
 73
4
 74
0
 40
0
 40
0
 40
0
 40
0
 40
1
 40
1
 40
1
 40
1
 10
267.333953
 20
46.864446
 30
0.0
 10
270.841270
 20
46.864446
 30
0.0
 10
273.683953
 20
49.707468
 30
0.0
 10
273.683953
 20
53.214446
 30
0.0
  0
LWPOLYLINE
  5
1df
100
AcDbEntity
  8
Layer_1
 62
1
100
AcDbPolyline
 90
4
 70
0
 10
183.594034
 20
17.786018
 30
0.0
 10
183.594034
 20
46.864446
 30
0.0
 10
252.290803
 20
46.864446
 30
0.0
 10
267.333953
 20
46.864446
 30
0.0
  0
LWPOLYLINE
  5
1e0
100
AcDbEntity
  8
Layer_1
 62
1
100
AcDbPolyline
 90
6
 70
0
 10
273.683953
 20
53.214446
 30
0.0
 10
273.683953
 20
219.377710
 30
0.0
 10
273.662448
 20
219.377710
 30
0.0
 10
273.662448
 20
239.377740
 30
0.0
 10
273.619056
 20
239.377740
 30
0.0
 10
273.619056
 20
250.392168
 30
0.0
  0
SPLINE
  5
1e1
100
AcDbEntity
  8
Layer_1
 62
1
100
AcDbSpline
 70
8
 71
3
 72
8
 73
4
 74
0
 40
0
 40
0
 40
0
 40
0
 40
1
 40
1
 40
1
 40
1
 10
215.704245
 20
375.079109
 30
0.0
 10
212.197281
 20
375.079109
 30
0.0
 10
209.354245
 20
372.236073
 30
0.0
 10
209.354245
 20
368.729109
 30
0.0
  0
LWPOLYLINE
  5
1e2
100
AcDbEntity
  8
Layer_1
 62
1
100
AcDbPolyline
 90
2
 70
0
 10
252.201928
 20
375.079109
 30
0.0
 10
215.704245
 20
375.079109
 30
0.0
  0
SPLINE
  5
1e3
100
AcDbEntity
  8
Layer_1
 62
1
100
AcDbSpline
 70
8
 71
3
 72
8
 73
4
 74
0
 40
0
 40
0
 40
0
 40
0
 40
1
 40
1
 40
1
 40
1
 10
209.354245
 20
273.970175
 30
0.0
 10
209.354245
 20
270.463212
 30
0.0
 10
212.197281
 20
267.620175
 30
0.0
 10
215.704245
 20
267.620175
 30
0.0
  0
LWPOLYLINE
  5
1e4
100
AcDbEntity
  8
Layer_1
 62
1
100
AcDbPolyline
 90
2
 70
0
 10
209.354245
 20
368.729109
 30
0.0
 10
209.354245
 20
273.970175
 30
0.0
  0
SPLINE
  5
1e5
100
AcDbEntity
  8
Layer_1
 62
1
100
AcDbSpline
 70
8
 71
3
 72
8
 73
4
 74
0
 40
0
 40
0
 40
0
 40
0
 40
1
 40
1
 40
1
 40
1
 10
267.269031
 20
375.079109
 30
0.0
 10
270.775994
 20
375.079109
 30
0.0
 10
273.619031
 20
377.922145
 30
0.0
 10
273.619031
 20
381.429109
 30
0.0
  0
LWPOLYLINE
  5
1e6
100
AcDbEntity
  8
Layer_1
 62
1
100
AcDbPolyline
 90
2
 70
0
 10
215.704245
 20
267.620175
 30
0.0
 10
248.305498
 20
267.620175
 30
0.0
  0
SPLINE
  5
1e7
100
AcDbEntity
  8
Layer_1
 62
1
100
AcDbSpline
 70
8
 71
3
 72
8
 73
4
 74
0
 40
0
 40
0
 40
0
 40
0
 40
1
 40
1
 40
1
 40
1
 10
273.619031
 20
261.270317
 30
0.0
 10
273.619031
 20
264.777280
 30
0.0
 10
270.775994
 20
267.620317
 30
0.0
 10
267.269031
 20
267.620317
 30
0.0
  0
LWPOLYLINE
  5
1e8
100
AcDbEntity
  8
Layer_1
 62
1
100
AcDbPolyline
 90
2
 70
0
 10
267.269031
 20
375.079109
 30
0.0
 10
252.201892
 20
375.079109
 30
0.0
  0
LWPOLYLINE
  5
1e9
100
AcDbEntity
  8
Layer_1
 62
1
100
AcDbPolyline
 90
2
 70
0
 10
267.269031
 20
267.620317
 30
0.0
 10
248.305461
 20
267.620317
 30
0.0
  0
LWPOLYLINE
  5
1ea
100
AcDbEntity
  8
Layer_1
 62
1
100
AcDbPolyline
 90
2
 70
0
 10
273.619031
 20
250.392202
 30
0.0
 10
273.619031
 20
261.270458
 30
0.0
  0
SPLINE
  5
1eb
100
AcDbEntity
  8
Layer_1
 62
1
100
AcDbSpline
 70
8
 71
3
 72
8
 73
4
 74
0
 40
0
 40
0
 40
0
 40
0
 40
1
 40
1
 40
1
 40
1
 10
256.093448
 20
217.845599
 30
0.0
 10
258.365396
 20
217.845599
 30
0.0
 10
260.161442
 20
217.845599
 30
0.0
 10
261.420672
 20
217.845599
 30
0.0
  0
SPLINE
  5
1ec
100
AcDbEntity
  8
Layer_1
 62
1
100
AcDbSpline
 70
8
 71
3
 72
8
 73
4
 74
0
 40
0
 40
0
 40
0
 40
0
 40
1
 40
1
 40
1
 40
1
 10
246.504200
 20
217.845599
 30
0.0
 10
248.422837
 20
217.845599
 30
0.0
 10
250.202708
 20
217.845599
 30
0.0
 10
251.831642
 20
217.845599
 30
0.0
  0
SPLINE
  5
1ed
100
AcDbEntity
  8
Layer_1
 62
1
100
AcDbSpline
 70
8
 71
3
 72
8
 73
4
 74
0
 40
0
 40
0
 40
0
 40
0
 40
1
 40
1
 40
1
 40
1
 10
236.915475
 20
217.845599
 30
0.0
 10
238.770984
 20
217.845599
 30
0.0
 10
240.548775
 20
217.845599
 30
0.0
 10
242.242543
 20
217.845599
 30
0.0
  0
SPLINE
  5
1ee
100
AcDbEntity
  8
Layer_1
 62
1
100
AcDbSpline
 70
8
 71
3
 72
8
 73
4
 74
0
 40
0
 40
0
 40
0
 40
0
 40
1
 40
1
 40
1
 40
1
 10
227.326537
 20
217.845599
 30
0.0
 10
229.155312
 20
217.845599
 30
0.0
 10
230.932420
 20
217.845599
 30
0.0
 10
232.653634
 20
217.845599
 30
0.0
  0
SPLINE
  5
1ef
100
AcDbEntity
  8
Layer_1
 62
1
100
AcDbSpline
 70
8
 71
3
 72
8
 73
4
 74
0
 40
0
 40
0
 40
0
 40
0
 40
1
 40
1
 40
1
 40
1
 10
217.737885
 20
217.845599
 30
0.0
 10
219.551665
 20
217.845599
 30
0.0
 10
221.328378
 20
217.845599
 30
0.0
 10
223.064829
 20
217.845599
 30
0.0
  0
SPLINE
  5
1f0
100
AcDbEntity
  8
Layer_1
 62
1
100
AcDbSpline
 70
8
 71
3
 72
8
 73
4
 74
0
 40
0
 40
0
 40
0
 40
0
 40
1
 40
1
 40
1
 40
1
 10
208.148278
 20
217.845599
 30
0.0
 10
209.952582
 20
217.845599
 30
0.0
 10
211.729286
 20
217.845599
 30
0.0
 10
213.475787
 20
217.845599
 30
0.0
  0
SPLINE
  5
1f1
100
AcDbEntity
  8
Layer_1
 62
1
100
AcDbSpline
 70
8
 71
3
 72
8
 73
4
 74
0
 40
0
 40
0
 40
0
 40
0
 40
1
 40
1
 40
1
 40
1
 10
198.558850
 20
217.845599
 30
0.0
 10
200.356256
 20
217.845599
 30
0.0
 10
202.132825
 20
217.845599
 30
0.0
 10
203.886319
 20
217.845599
 30
0.0
  0
SPLINE
  5
1f2
100
AcDbEntity
  8
Layer_1
 62
1
100
AcDbSpline
 70
8
 71
3
 72
8
 73
4
 74
0
 40
0
 40
0
 40
0
 40
0
 40
1
 40
1
 40
1
 40
1
 10
188.970051
 20
217.845599
 30
0.0
 10
190.762069
 20
217.845599
 30
0.0
 10
192.538426
 20
217.845599
 30
0.0
 10
194.297133
 20
217.845599
 30
0.0
  0
SPLINE
  5
1f3
100
AcDbEntity
  8
Layer_1
 62
1
100
AcDbSpline
 70
8
 71
3
 72
8
 73
4
 74
0
 40
0
 40
0
 40
0
 40
0
 40
1
 40
1
 40
1
 40
1
 10
179.381034
 20
217.845599
 30
0.0
 10
181.168892
 20
217.845599
 30
0.0
 10
182.945284
 20
217.845599
 30
0.0
 10
184.708382
 20
217.845599
 30
0.0
  0
SPLINE
  5
1f4
100
AcDbEntity
  8
Layer_1
 62
1
100
AcDbSpline
 70
8
 71
3
 72
8
 73
4
 74
0
 40
0
 40
0
 40
0
 40
0
 40
1
 40
1
 40
1
 40
1
 10
169.791798
 20
217.845599
 30
0.0
 10
171.575967
 20
217.845599
 30
0.0
 10
173.352243
 20
217.845599
 30
0.0
 10
175.118911
 20
217.845599
 30
0.0
  0
SPLINE
  5
1f5
100
AcDbEntity
  8
Layer_1
 62
1
100
AcDbSpline
 70
8
 71
3
 72
8
 73
4
 74
0
 40
0
 40
0
 40
0
 40
0
 40
1
 40
1
 40
1
 40
1
 10
160.202618
 20
217.845599
 30
0.0
 10
161.983598
 20
217.845599
 30
0.0
 10
163.759865
 20
217.845599
 30
0.0
 10
165.529779
 20
217.845599
 30
0.0
  0
SPLINE
  5
1f6
100
AcDbEntity
  8
Layer_1
 62
1
100
AcDbSpline
 70
8
 71
3
 72
8
 73
4
 74
0
 40
0
 40
0
 40
0
 40
0
 40
1
 40
1
 40
1
 40
1
 10
150.613451
 20
217.845599
 30
0.0
 10
152.391499
 20
217.845599
 30
0.0
 10
154.167792
 20
217.845599
 30
0.0
 10
155.940729
 20
217.845599
 30
0.0
  0
SPLINE
  5
1f7
100
AcDbEntity
  8
Layer_1
 62
1
100
AcDbSpline
 70
8
 71
3
 72
8
 73
4
 74
0
 40
0
 40
0
 40
0
 40
0
 40
1
 40
1
 40
1
 40
1
 10
141.024263
 20
217.845599
 30
0.0
 10
142.799367
 20
217.845599
 30
0.0
 10
144.575581
 20
217.845599
 30
0.0
 10
146.351317
 20
217.845599
 30
0.0
  0
SPLINE
  5
1f8
100
AcDbEntity
  8
Layer_1
 62
1
100
AcDbSpline
 70
8
 71
3
 72
8
 73
4
 74
0
 40
0
 40
0
 40
0
 40
0
 40
1
 40
1
 40
1
 40
1
 10
131.435300
 20
217.845599
 30
0.0
 10
133.207602
 20
217.845599
 30
0.0
 10
134.983909
 20
217.845599
 30
0.0
 10
136.762611
 20
217.845599
 30
0.0
  0
SPLINE
  5
1f9
100
AcDbEntity
  8
Layer_1
 62
1
100
AcDbSpline
 70
8
 71
3
 72
8
 73
4
 74
0
 40
0
 40
0
 40
0
 40
0
 40
1
 40
1
 40
1
 40
1
 10
121.846063
 20
217.845599
 30
0.0
 10
123.615306
 20
217.845599
 30
0.0
 10
125.391596
 20
217.845599
 30
0.0
 10
127.173276
 20
217.845599
 30
0.0
  0
SPLINE
  5
1fa
100
AcDbEntity
  8
Layer_1
 62
1
100
AcDbSpline
 70
8
 71
3
 72
8
 73
4
 74
0
 40
0
 40
0
 40
0
 40
0
 40
1
 40
1
 40
1
 40
1
 10
112.256663
 20
217.845599
 30
0.0
 10
114.022663
 20
217.845599
 30
0.0
 10
115.799043
 20
217.845599
 30
0.0
 10
117.584068
 20
217.845599
 30
0.0
  0
SPLINE
  5
1fb
100
AcDbEntity
  8
Layer_1
 62
1
100
AcDbSpline
 70
8
 71
3
 72
8
 73
4
 74
0
 40
0
 40
0
 40
0
 40
0
 40
1
 40
1
 40
1
 40
1
 10
102.667432
 20
217.845599
 30
0.0
 10
104.429600
 20
217.845599
 30
0.0
 10
106.205949
 20
217.845599
 30
0.0
 10
107.994633
 20
217.845599
 30
0.0
  0
SPLINE
  5
1fc
100
AcDbEntity
  8
Layer_1
 62
1
100
AcDbSpline
 70
8
 71
3
 72
8
 73
4
 74
0
 40
0
 40
0
 40
0
 40
0
 40
1
 40
1
 40
1
 40
1
 10
93.078337
 20
217.845599
 30
0.0
 10
94.836003
 20
217.845599
 30
0.0
 10
96.612414
 20
217.845599
 30
0.0
 10
98.405524
 20
217.845599
 30
0.0
  0
SPLINE
  5
1fd
100
AcDbEntity
  8
Layer_1
 62
1
100
AcDbSpline
 70
8
 71
3
 72
8
 73
4
 74
0
 40
0
 40
0
 40
0
 40
0
 40
1
 40
1
 40
1
 40
1
 10
83.488855
 20
217.845599
 30
0.0
 10
85.240992
 20
217.845599
 30
0.0
 10
87.017612
 20
217.845599
 30
0.0
 10
88.816397
 20
217.845599
 30
0.0
  0
SPLINE
  5
1fe
100
AcDbEntity
  8
Layer_1
 62
1
100
AcDbSpline
 70
8
 71
3
 72
8
 73
4
 74
0
 40
0
 40
0
 40
0
 40
0
 40
1
 40
1
 40
1
 40
1
 10
73.899649
 20
217.845599
 30
0.0
 10
75.644141
 20
217.845599
 30
0.0
 10
77.420755
 20
217.845599
 30
0.0
 10
79.226771
 20
217.845599
 30
0.0
  0
SPLINE
  5
1ff
100
AcDbEntity
  8
Layer_1
 62
1
100
AcDbSpline
 70
8
 71
3
 72
8
 73
4
 74
0
 40
0
 40
0
 40
0
 40
0
 40
1
 40
1
 40
1
 40
1
 10
64.310156
 20
217.845599
 30
0.0
 10
66.043950
 20
217.845599
 30
0.0
 10
67.820856
 20
217.845599
 30
0.0
 10
69.637492
 20
217.845599
 30
0.0
  0
SPLINE
  5
200
100
AcDbEntity
  8
Layer_1
 62
1
100
AcDbSpline
 70
8
 71
3
 72
8
 73
4
 74
0
 40
0
 40
0
 40
0
 40
0
 40
1
 40
1
 40
1
 40
1
 10
54.720672
 20
217.845599
 30
0.0
 10
56.437402
 20
217.845599
 30
0.0
 10
58.214774
 20
217.845599
 30
0.0
 10
60.048237
 20
217.845599
 30
0.0
  0
SPLINE
  5
201
100
AcDbEntity
  8
Layer_1
 62
1
100
AcDbSpline
 70
8
 71
3
 72
8
 73
4
 74
0
 40
0
 40
0
 40
0
 40
0
 40
1
 40
1
 40
1
 40
1
 10
45.131174
 20
217.845599
 30
0.0
 10
46.815698
 20
217.845599
 30
0.0
 10
48.593899
 20
217.845599
 30
0.0
 10
50.458693
 20
217.845599
 30
0.0
  0
SPLINE
  5
202
100
AcDbEntity
  8
Layer_1
 62
1
100
AcDbSpline
 70
8
 71
3
 72
8
 73
4
 74
0
 40
0
 40
0
 40
0
 40
0
 40
1
 40
1
 40
1
 40
1
 10
35.542123
 20
217.845599
 30
0.0
 10
37.142288
 20
217.845599
 30
0.0
 10
38.923079
 20
217.845599
 30
0.0
 10
40.869406
 20
217.845599
 30
0.0
  0
SPLINE
  5
203
100
AcDbEntity
  8
Layer_1
 62
1
100
AcDbSpline
 70
8
 71
3
 72
8
 73
4
 74
0
 40
0
 40
0
 40
0
 40
0
 40
1
 40
1
 40
1
 40
1
 10
25.952724
 20
217.845599
 30
0.0
 10
25.952724
 20
217.845599
 30
0.0
 10
27.840706
 20
217.845599
 30
0.0
 10
31.280077
 20
217.845599
 30
0.0
  0
LWPOLYLINE
  5
204
100
AcDbEntity
  8
Layer_1
 62
1
100
AcDbPolyline
 90
2
 70
0
 10
265.677252
 20
217.845599
 30
0.0
 10
268.323085
 20
217.845599
 30
0.0
  0
LWPOLYLINE
  5
205
100
AcDbEntity
  8
Layer_1
 62
1
100
AcDbPolyline
 90
2
 70
0
 10
19.045123
 20
217.845599
 30
0.0
 10
21.690957
 20
217.845599
 30
0.0
  0
SPLINE
  5
206
100
AcDbEntity
  8
Layer_1
 62
1
100
AcDbSpline
 70
8
 71
3
 72
8
 73
4
 74
0
 40
0
 40
0
 40
0
 40
0
 40
1
 40
1
 40
1
 40
1
 10
256.093448
 20
237.946874
 30
0.0
 10
258.365396
 20
237.946874
 30
0.0
 10
260.161442
 20
237.946874
 30
0.0
 10
261.420672
 20
237.946874
 30
0.0
  0
SPLINE
  5
207
100
AcDbEntity
  8
Layer_1
 62
1
100
AcDbSpline
 70
8
 71
3
 72
8
 73
4
 74
0
 40
0
 40
0
 40
0
 40
0
 40
1
 40
1
 40
1
 40
1
 10
246.504200
 20
237.946874
 30
0.0
 10
248.422837
 20
237.946874
 30
0.0
 10
250.202708
 20
237.946874
 30
0.0
 10
251.831642
 20
237.946874
 30
0.0
  0
SPLINE
  5
208
100
AcDbEntity
  8
Layer_1
 62
1
100
AcDbSpline
 70
8
 71
3
 72
8
 73
4
 74
0
 40
0
 40
0
 40
0
 40
0
 40
1
 40
1
 40
1
 40
1
 10
236.915475
 20
237.946874
 30
0.0
 10
238.770984
 20
237.946874
 30
0.0
 10
240.548775
 20
237.946874
 30
0.0
 10
242.242543
 20
237.946874
 30
0.0
  0
SPLINE
  5
209
100
AcDbEntity
  8
Layer_1
 62
1
100
AcDbSpline
 70
8
 71
3
 72
8
 73
4
 74
0
 40
0
 40
0
 40
0
 40
0
 40
1
 40
1
 40
1
 40
1
 10
227.326537
 20
237.946874
 30
0.0
 10
229.155312
 20
237.946874
 30
0.0
 10
230.932420
 20
237.946874
 30
0.0
 10
232.653634
 20
237.946874
 30
0.0
  0
SPLINE
  5
20a
100
AcDbEntity
  8
Layer_1
 62
1
100
AcDbSpline
 70
8
 71
3
 72
8
 73
4
 74
0
 40
0
 40
0
 40
0
 40
0
 40
1
 40
1
 40
1
 40
1
 10
217.737885
 20
237.946874
 30
0.0
 10
219.551665
 20
237.946874
 30
0.0
 10
221.328378
 20
237.946874
 30
0.0
 10
223.064829
 20
237.946874
 30
0.0
  0
SPLINE
  5
20b
100
AcDbEntity
  8
Layer_1
 62
1
100
AcDbSpline
 70
8
 71
3
 72
8
 73
4
 74
0
 40
0
 40
0
 40
0
 40
0
 40
1
 40
1
 40
1
 40
1
 10
208.148278
 20
237.946874
 30
0.0
 10
209.952582
 20
237.946874
 30
0.0
 10
211.729286
 20
237.946874
 30
0.0
 10
213.475787
 20
237.946874
 30
0.0
  0
SPLINE
  5
20c
100
AcDbEntity
  8
Layer_1
 62
1
100
AcDbSpline
 70
8
 71
3
 72
8
 73
4
 74
0
 40
0
 40
0
 40
0
 40
0
 40
1
 40
1
 40
1
 40
1
 10
198.558850
 20
237.946874
 30
0.0
 10
200.356256
 20
237.946874
 30
0.0
 10
202.132825
 20
237.946874
 30
0.0
 10
203.886319
 20
237.946874
 30
0.0
  0
SPLINE
  5
20d
100
AcDbEntity
  8
Layer_1
 62
1
100
AcDbSpline
 70
8
 71
3
 72
8
 73
4
 74
0
 40
0
 40
0
 40
0
 40
0
 40
1
 40
1
 40
1
 40
1
 10
188.970051
 20
237.946874
 30
0.0
 10
190.762069
 20
237.946874
 30
0.0
 10
192.538426
 20
237.946874
 30
0.0
 10
194.297133
 20
237.946874
 30
0.0
  0
SPLINE
  5
20e
100
AcDbEntity
  8
Layer_1
 62
1
100
AcDbSpline
 70
8
 71
3
 72
8
 73
4
 74
0
 40
0
 40
0
 40
0
 40
0
 40
1
 40
1
 40
1
 40
1
 10
179.381034
 20
237.946874
 30
0.0
 10
181.168892
 20
237.946874
 30
0.0
 10
182.945284
 20
237.946874
 30
0.0
 10
184.708382
 20
237.946874
 30
0.0
  0
SPLINE
  5
20f
100
AcDbEntity
  8
Layer_1
 62
1
100
AcDbSpline
 70
8
 71
3
 72
8
 73
4
 74
0
 40
0
 40
0
 40
0
 40
0
 40
1
 40
1
 40
1
 40
1
 10
169.791798
 20
237.946874
 30
0.0
 10
171.575967
 20
237.946874
 30
0.0
 10
173.352243
 20
237.946874
 30
0.0
 10
175.118911
 20
237.946874
 30
0.0
  0
SPLINE
  5
210
100
AcDbEntity
  8
Layer_1
 62
1
100
AcDbSpline
 70
8
 71
3
 72
8
 73
4
 74
0
 40
0
 40
0
 40
0
 40
0
 40
1
 40
1
 40
1
 40
1
 10
160.202618
 20
237.946874
 30
0.0
 10
161.983598
 20
237.946874
 30
0.0
 10
163.759865
 20
237.946874
 30
0.0
 10
165.529779
 20
237.946874
 30
0.0
  0
SPLINE
  5
211
100
AcDbEntity
  8
Layer_1
 62
1
100
AcDbSpline
 70
8
 71
3
 72
8
 73
4
 74
0
 40
0
 40
0
 40
0
 40
0
 40
1
 40
1
 40
1
 40
1
 10
150.613451
 20
237.946874
 30
0.0
 10
152.391499
 20
237.946874
 30
0.0
 10
154.167792
 20
237.946874
 30
0.0
 10
155.940729
 20
237.946874
 30
0.0
  0
SPLINE
  5
212
100
AcDbEntity
  8
Layer_1
 62
1
100
AcDbSpline
 70
8
 71
3
 72
8
 73
4
 74
0
 40
0
 40
0
 40
0
 40
0
 40
1
 40
1
 40
1
 40
1
 10
141.024263
 20
237.946874
 30
0.0
 10
142.799367
 20
237.946874
 30
0.0
 10
144.575581
 20
237.946874
 30
0.0
 10
146.351317
 20
237.946874
 30
0.0
  0
SPLINE
  5
213
100
AcDbEntity
  8
Layer_1
 62
1
100
AcDbSpline
 70
8
 71
3
 72
8
 73
4
 74
0
 40
0
 40
0
 40
0
 40
0
 40
1
 40
1
 40
1
 40
1
 10
131.435300
 20
237.946874
 30
0.0
 10
133.207605
 20
237.946874
 30
0.0
 10
134.983911
 20
237.946874
 30
0.0
 10
136.762611
 20
237.946874
 30
0.0
  0
SPLINE
  5
214
100
AcDbEntity
  8
Layer_1
 62
1
100
AcDbSpline
 70
8
 71
3
 72
8
 73
4
 74
0
 40
0
 40
0
 40
0
 40
0
 40
1
 40
1
 40
1
 40
1
 10
121.846063
 20
237.946874
 30
0.0
 10
123.615309
 20
237.946874
 30
0.0
 10
125.391596
 20
237.946874
 30
0.0
 10
127.173276
 20
237.946874
 30
0.0
  0
SPLINE
  5
215
100
AcDbEntity
  8
Layer_1
 62
1
100
AcDbSpline
 70
8
 71
3
 72
8
 73
4
 74
0
 40
0
 40
0
 40
0
 40
0
 40
1
 40
1
 40
1
 40
1
 10
112.256663
 20
237.946874
 30
0.0
 10
114.022663
 20
237.946874
 30
0.0
 10
115.799043
 20
237.946874
 30
0.0
 10
117.584068
 20
237.946874
 30
0.0
  0
SPLINE
  5
216
100
AcDbEntity
  8
Layer_1
 62
1
100
AcDbSpline
 70
8
 71
3
 72
8
 73
4
 74
0
 40
0
 40
0
 40
0
 40
0
 40
1
 40
1
 40
1
 40
1
 10
102.667435
 20
237.946874
 30
0.0
 10
104.429602
 20
237.946874
 30
0.0
 10
106.205951
 20
237.946874
 30
0.0
 10
107.994633
 20
237.946874
 30
0.0
  0
SPLINE
  5
217
100
AcDbEntity
  8
Layer_1
 62
1
100
AcDbSpline
 70
8
 71
3
 72
8
 73
4
 74
0
 40
0
 40
0
 40
0
 40
0
 40
1
 40
1
 40
1
 40
1
 10
93.078337
 20
237.946874
 30
0.0
 10
94.836003
 20
237.946874
 30
0.0
 10
96.612414
 20
237.946874
 30
0.0
 10
98.405527
 20
237.946874
 30
0.0
  0
SPLINE
  5
218
100
AcDbEntity
  8
Layer_1
 62
1
100
AcDbSpline
 70
8
 71
3
 72
8
 73
4
 74
0
 40
0
 40
0
 40
0
 40
0
 40
1
 40
1
 40
1
 40
1
 10
83.488855
 20
237.946874
 30
0.0
 10
85.240992
 20
237.946874
 30
0.0
 10
87.017612
 20
237.946874
 30
0.0
 10
88.816397
 20
237.946874
 30
0.0
  0
SPLINE
  5
219
100
AcDbEntity
  8
Layer_1
 62
1
100
AcDbSpline
 70
8
 71
3
 72
8
 73
4
 74
0
 40
0
 40
0
 40
0
 40
0
 40
1
 40
1
 40
1
 40
1
 10
73.899649
 20
237.946874
 30
0.0
 10
75.644141
 20
237.946874
 30
0.0
 10
77.420755
 20
237.946874
 30
0.0
 10
79.226771
 20
237.946874
 30
0.0
  0
SPLINE
  5
21a
100
AcDbEntity
  8
Layer_1
 62
1
100
AcDbSpline
 70
8
 71
3
 72
8
 73
4
 74
0
 40
0
 40
0
 40
0
 40
0
 40
1
 40
1
 40
1
 40
1
 10
64.310156
 20
237.946874
 30
0.0
 10
66.043950
 20
237.946874
 30
0.0
 10
67.820856
 20
237.946874
 30
0.0
 10
69.637492
 20
237.946874
 30
0.0
  0
SPLINE
  5
21b
100
AcDbEntity
  8
Layer_1
 62
1
100
AcDbSpline
 70
8
 71
3
 72
8
 73
4
 74
0
 40
0
 40
0
 40
0
 40
0
 40
1
 40
1
 40
1
 40
1
 10
54.720672
 20
237.946874
 30
0.0
 10
56.437402
 20
237.946874
 30
0.0
 10
58.214774
 20
237.946874
 30
0.0
 10
60.048237
 20
237.946874
 30
0.0
  0
SPLINE
  5
21c
100
AcDbEntity
  8
Layer_1
 62
1
100
AcDbSpline
 70
8
 71
3
 72
8
 73
4
 74
0
 40
0
 40
0
 40
0
 40
0
 40
1
 40
1
 40
1
 40
1
 10
45.131174
 20
237.946874
 30
0.0
 10
46.815698
 20
237.946874
 30
0.0
 10
48.593899
 20
237.946874
 30
0.0
 10
50.458693
 20
237.946874
 30
0.0
  0
SPLINE
  5
21d
100
AcDbEntity
  8
Layer_1
 62
1
100
AcDbSpline
 70
8
 71
3
 72
8
 73
4
 74
0
 40
0
 40
0
 40
0
 40
0
 40
1
 40
1
 40
1
 40
1
 10
35.542123
 20
237.946874
 30
0.0
 10
37.142288
 20
237.946874
 30
0.0
 10
38.923079
 20
237.946874
 30
0.0
 10
40.869406
 20
237.946874
 30
0.0
  0
SPLINE
  5
21e
100
AcDbEntity
  8
Layer_1
 62
1
100
AcDbSpline
 70
8
 71
3
 72
8
 73
4
 74
0
 40
0
 40
0
 40
0
 40
0
 40
1
 40
1
 40
1
 40
1
 10
25.952724
 20
237.946874
 30
0.0
 10
25.952724
 20
237.946874
 30
0.0
 10
27.840706
 20
237.946874
 30
0.0
 10
31.280077
 20
237.946874
 30
0.0
  0
LWPOLYLINE
  5
21f
100
AcDbEntity
  8
Layer_1
 62
1
100
AcDbPolyline
 90
2
 70
0
 10
265.677252
 20
237.946874
 30
0.0
 10
268.323085
 20
237.946874
 30
0.0
  0
LWPOLYLINE
  5
220
100
AcDbEntity
  8
Layer_1
 62
1
100
AcDbPolyline
 90
2
 70
0
 10
19.045123
 20
237.946874
 30
0.0
 10
21.690957
 20
237.946874
 30
0.0
  0
SPLINE
  5
221
100
AcDbEntity
  8
Layer_1
 62
1
100
AcDbSpline
 70
8
 71
3
 72
8
 73
4
 74
0
 40
0
 40
0
 40
0
 40
0
 40
1
 40
1
 40
1
 40
1
 10
256.093448
 20
410.436019
 30
0.0
 10
258.365396
 20
410.436019
 30
0.0
 10
260.161442
 20
410.436019
 30
0.0
 10
261.420672
 20
410.436019
 30
0.0
  0
SPLINE
  5
222
100
AcDbEntity
  8
Layer_1
 62
1
100
AcDbSpline
 70
8
 71
3
 72
8
 73
4
 74
0
 40
0
 40
0
 40
0
 40
0
 40
1
 40
1
 40
1
 40
1
 10
246.504200
 20
410.436019
 30
0.0
 10
248.422837
 20
410.436019
 30
0.0
 10
250.202708
 20
410.436019
 30
0.0
 10
251.831642
 20
410.436019
 30
0.0
  0
SPLINE
  5
223
100
AcDbEntity
  8
Layer_1
 62
1
100
AcDbSpline
 70
8
 71
3
 72
8
 73
4
 74
0
 40
0
 40
0
 40
0
 40
0
 40
1
 40
1
 40
1
 40
1
 10
236.915475
 20
410.436019
 30
0.0
 10
238.770984
 20
410.436019
 30
0.0
 10
240.548775
 20
410.436019
 30
0.0
 10
242.242543
 20
410.436019
 30
0.0
  0
SPLINE
  5
224
100
AcDbEntity
  8
Layer_1
 62
1
100
AcDbSpline
 70
8
 71
3
 72
8
 73
4
 74
0
 40
0
 40
0
 40
0
 40
0
 40
1
 40
1
 40
1
 40
1
 10
227.326537
 20
410.436019
 30
0.0
 10
229.155312
 20
410.436019
 30
0.0
 10
230.932420
 20
410.436019
 30
0.0
 10
232.653634
 20
410.436019
 30
0.0
  0
SPLINE
  5
225
100
AcDbEntity
  8
Layer_1
 62
1
100
AcDbSpline
 70
8
 71
3
 72
8
 73
4
 74
0
 40
0
 40
0
 40
0
 40
0
 40
1
 40
1
 40
1
 40
1
 10
217.737885
 20
410.436019
 30
0.0
 10
219.551665
 20
410.436019
 30
0.0
 10
221.328378
 20
410.436019
 30
0.0
 10
223.064829
 20
410.436019
 30
0.0
  0
SPLINE
  5
226
100
AcDbEntity
  8
Layer_1
 62
1
100
AcDbSpline
 70
8
 71
3
 72
8
 73
4
 74
0
 40
0
 40
0
 40
0
 40
0
 40
1
 40
1
 40
1
 40
1
 10
208.148278
 20
410.436019
 30
0.0
 10
209.952582
 20
410.436019
 30
0.0
 10
211.729286
 20
410.436019
 30
0.0
 10
213.475787
 20
410.436019
 30
0.0
  0
SPLINE
  5
227
100
AcDbEntity
  8
Layer_1
 62
1
100
AcDbSpline
 70
8
 71
3
 72
8
 73
4
 74
0
 40
0
 40
0
 40
0
 40
0
 40
1
 40
1
 40
1
 40
1
 10
198.558850
 20
410.436019
 30
0.0
 10
200.356256
 20
410.436019
 30
0.0
 10
202.132825
 20
410.436019
 30
0.0
 10
203.886319
 20
410.436019
 30
0.0
  0
SPLINE
  5
228
100
AcDbEntity
  8
Layer_1
 62
1
100
AcDbSpline
 70
8
 71
3
 72
8
 73
4
 74
0
 40
0
 40
0
 40
0
 40
0
 40
1
 40
1
 40
1
 40
1
 10
188.970051
 20
410.436019
 30
0.0
 10
190.762069
 20
410.436019
 30
0.0
 10
192.538426
 20
410.436019
 30
0.0
 10
194.297133
 20
410.436019
 30
0.0
  0
SPLINE
  5
229
100
AcDbEntity
  8
Layer_1
 62
1
100
AcDbSpline
 70
8
 71
3
 72
8
 73
4
 74
0
 40
0
 40
0
 40
0
 40
0
 40
1
 40
1
 40
1
 40
1
 10
179.381034
 20
410.436019
 30
0.0
 10
181.168892
 20
410.436019
 30
0.0
 10
182.945284
 20
410.436019
 30
0.0
 10
184.708382
 20
410.436019
 30
0.0
  0
SPLINE
  5
22a
100
AcDbEntity
  8
Layer_1
 62
1
100
AcDbSpline
 70
8
 71
3
 72
8
 73
4
 74
0
 40
0
 40
0
 40
0
 40
0
 40
1
 40
1
 40
1
 40
1
 10
169.791798
 20
410.436019
 30
0.0
 10
171.575967
 20
410.436019
 30
0.0
 10
173.352243
 20
410.436019
 30
0.0
 10
175.118911
 20
410.436019
 30
0.0
  0
SPLINE
  5
22b
100
AcDbEntity
  8
Layer_1
 62
1
100
AcDbSpline
 70
8
 71
3
 72
8
 73
4
 74
0
 40
0
 40
0
 40
0
 40
0
 40
1
 40
1
 40
1
 40
1
 10
160.202618
 20
410.436019
 30
0.0
 10
161.983598
 20
410.436019
 30
0.0
 10
163.759865
 20
410.436019
 30
0.0
 10
165.529779
 20
410.436019
 30
0.0
  0
SPLINE
  5
22c
100
AcDbEntity
  8
Layer_1
 62
1
100
AcDbSpline
 70
8
 71
3
 72
8
 73
4
 74
0
 40
0
 40
0
 40
0
 40
0
 40
1
 40
1
 40
1
 40
1
 10
150.613451
 20
410.436019
 30
0.0
 10
152.391499
 20
410.436019
 30
0.0
 10
154.167792
 20
410.436019
 30
0.0
 10
155.940729
 20
410.436019
 30
0.0
  0
SPLINE
  5
22d
100
AcDbEntity
  8
Layer_1
 62
1
100
AcDbSpline
 70
8
 71
3
 72
8
 73
4
 74
0
 40
0
 40
0
 40
0
 40
0
 40
1
 40
1
 40
1
 40
1
 10
141.024263
 20
410.436019
 30
0.0
 10
142.799367
 20
410.436019
 30
0.0
 10
144.575581
 20
410.436019
 30
0.0
 10
146.351317
 20
410.436019
 30
0.0
  0
SPLINE
  5
22e
100
AcDbEntity
  8
Layer_1
 62
1
100
AcDbSpline
 70
8
 71
3
 72
8
 73
4
 74
0
 40
0
 40
0
 40
0
 40
0
 40
1
 40
1
 40
1
 40
1
 10
131.435300
 20
410.436019
 30
0.0
 10
133.207605
 20
410.436019
 30
0.0
 10
134.983911
 20
410.436019
 30
0.0
 10
136.762611
 20
410.436019
 30
0.0
  0
SPLINE
  5
22f
100
AcDbEntity
  8
Layer_1
 62
1
100
AcDbSpline
 70
8
 71
3
 72
8
 73
4
 74
0
 40
0
 40
0
 40
0
 40
0
 40
1
 40
1
 40
1
 40
1
 10
121.846063
 20
410.436019
 30
0.0
 10
123.615309
 20
410.436019
 30
0.0
 10
125.391596
 20
410.436019
 30
0.0
 10
127.173276
 20
410.436019
 30
0.0
  0
SPLINE
  5
230
100
AcDbEntity
  8
Layer_1
 62
1
100
AcDbSpline
 70
8
 71
3
 72
8
 73
4
 74
0
 40
0
 40
0
 40
0
 40
0
 40
1
 40
1
 40
1
 40
1
 10
112.256663
 20
410.436019
 30
0.0
 10
114.022663
 20
410.436019
 30
0.0
 10
115.799043
 20
410.436019
 30
0.0
 10
117.584068
 20
410.436019
 30
0.0
  0
SPLINE
  5
231
100
AcDbEntity
  8
Layer_1
 62
1
100
AcDbSpline
 70
8
 71
3
 72
8
 73
4
 74
0
 40
0
 40
0
 40
0
 40
0
 40
1
 40
1
 40
1
 40
1
 10
102.667435
 20
410.436019
 30
0.0
 10
104.429602
 20
410.436019
 30
0.0
 10
106.205951
 20
410.436019
 30
0.0
 10
107.994633
 20
410.436019
 30
0.0
  0
SPLINE
  5
232
100
AcDbEntity
  8
Layer_1
 62
1
100
AcDbSpline
 70
8
 71
3
 72
8
 73
4
 74
0
 40
0
 40
0
 40
0
 40
0
 40
1
 40
1
 40
1
 40
1
 10
93.078337
 20
410.436019
 30
0.0
 10
94.836003
 20
410.436019
 30
0.0
 10
96.612414
 20
410.436019
 30
0.0
 10
98.405527
 20
410.436019
 30
0.0
  0
SPLINE
  5
233
100
AcDbEntity
  8
Layer_1
 62
1
100
AcDbSpline
 70
8
 71
3
 72
8
 73
4
 74
0
 40
0
 40
0
 40
0
 40
0
 40
1
 40
1
 40
1
 40
1
 10
83.488855
 20
410.436019
 30
0.0
 10
85.240992
 20
410.436019
 30
0.0
 10
87.017612
 20
410.436019
 30
0.0
 10
88.816397
 20
410.436019
 30
0.0
  0
SPLINE
  5
234
100
AcDbEntity
  8
Layer_1
 62
1
100
AcDbSpline
 70
8
 71
3
 72
8
 73
4
 74
0
 40
0
 40
0
 40
0
 40
0
 40
1
 40
1
 40
1
 40
1
 10
73.899649
 20
410.436019
 30
0.0
 10
75.644141
 20
410.436019
 30
0.0
 10
77.420755
 20
410.436019
 30
0.0
 10
79.226771
 20
410.436019
 30
0.0
  0
SPLINE
  5
235
100
AcDbEntity
  8
Layer_1
 62
1
100
AcDbSpline
 70
8
 71
3
 72
8
 73
4
 74
0
 40
0
 40
0
 40
0
 40
0
 40
1
 40
1
 40
1
 40
1
 10
64.310156
 20
410.436019
 30
0.0
 10
66.043950
 20
410.436019
 30
0.0
 10
67.820856
 20
410.436019
 30
0.0
 10
69.637492
 20
410.436019
 30
0.0
  0
SPLINE
  5
236
100
AcDbEntity
  8
Layer_1
 62
1
100
AcDbSpline
 70
8
 71
3
 72
8
 73
4
 74
0
 40
0
 40
0
 40
0
 40
0
 40
1
 40
1
 40
1
 40
1
 10
54.720672
 20
410.436019
 30
0.0
 10
56.437402
 20
410.436019
 30
0.0
 10
58.214774
 20
410.436019
 30
0.0
 10
60.048237
 20
410.436019
 30
0.0
  0
SPLINE
  5
237
100
AcDbEntity
  8
Layer_1
 62
1
100
AcDbSpline
 70
8
 71
3
 72
8
 73
4
 74
0
 40
0
 40
0
 40
0
 40
0
 40
1
 40
1
 40
1
 40
1
 10
45.131174
 20
410.436019
 30
0.0
 10
46.815698
 20
410.436019
 30
0.0
 10
48.593899
 20
410.436019
 30
0.0
 10
50.458693
 20
410.436019
 30
0.0
  0
SPLINE
  5
238
100
AcDbEntity
  8
Layer_1
 62
1
100
AcDbSpline
 70
8
 71
3
 72
8
 73
4
 74
0
 40
0
 40
0
 40
0
 40
0
 40
1
 40
1
 40
1
 40
1
 10
35.542123
 20
410.436019
 30
0.0
 10
37.142288
 20
410.436019
 30
0.0
 10
38.923079
 20
410.436019
 30
0.0
 10
40.869406
 20
410.436019
 30
0.0
  0
SPLINE
  5
239
100
AcDbEntity
  8
Layer_1
 62
1
100
AcDbSpline
 70
8
 71
3
 72
8
 73
4
 74
0
 40
0
 40
0
 40
0
 40
0
 40
1
 40
1
 40
1
 40
1
 10
25.952724
 20
410.436019
 30
0.0
 10
25.952724
 20
410.436019
 30
0.0
 10
27.840706
 20
410.436019
 30
0.0
 10
31.280077
 20
410.436019
 30
0.0
  0
LWPOLYLINE
  5
23a
100
AcDbEntity
  8
Layer_1
 62
1
100
AcDbPolyline
 90
2
 70
0
 10
265.677252
 20
410.436019
 30
0.0
 10
268.323085
 20
410.436019
 30
0.0
  0
LWPOLYLINE
  5
23b
100
AcDbEntity
  8
Layer_1
 62
1
100
AcDbPolyline
 90
2
 70
0
 10
19.045123
 20
410.436019
 30
0.0
 10
21.690957
 20
410.436019
 30
0.0
  0
SPLINE
  5
23c
100
AcDbEntity
  8
Layer_1
 62
1
100
AcDbSpline
 70
8
 71
3
 72
8
 73
4
 74
0
 40
0
 40
0
 40
0
 40
0
 40
1
 40
1
 40
1
 40
1
 10
85.459564
 20
433.328754
 30
0.0
 10
87.746798
 20
433.328754
 30
0.0
 10
89.627295
 20
433.328754
 30
0.0
 10
90.956915
 20
433.328754
 30
0.0
  0
SPLINE
  5
23d
100
AcDbEntity
  8
Layer_1
 62
1
100
AcDbSpline
 70
8
 71
3
 72
8
 73
4
 74
0
 40
0
 40
0
 40
0
 40
0
 40
1
 40
1
 40
1
 40
1
 10
75.564252
 20
433.328754
 30
0.0
 10
77.501355
 20
433.328754
 30
0.0
 10
79.345959
 20
433.328754
 30
0.0
 10
81.061636
 20
433.328754
 30
0.0
  0
SPLINE
  5
23e
100
AcDbEntity
  8
Layer_1
 62
1
100
AcDbSpline
 70
8
 71
3
 72
8
 73
4
 74
0
 40
0
 40
0
 40
0
 40
0
 40
1
 40
1
 40
1
 40
1
 10
65.668926
 20
433.328754
 30
0.0
 10
67.535286
 20
433.328754
 30
0.0
 10
69.375802
 20
433.328754
 30
0.0
 10
71.166308
 20
433.328754
 30
0.0
  0
SPLINE
  5
23f
100
AcDbEntity
  8
Layer_1
 62
1
100
AcDbSpline
 70
8
 71
3
 72
8
 73
4
 74
0
 40
0
 40
0
 40
0
 40
0
 40
1
 40
1
 40
1
 40
1
 10
55.774035
 20
433.328754
 30
0.0
 10
57.598340
 20
433.328754
 30
0.0
 10
59.438041
 20
433.328754
 30
0.0
 10
61.271159
 20
433.328754
 30
0.0
  0
SPLINE
  5
240
100
AcDbEntity
  8
Layer_1
 62
1
100
AcDbSpline
 70
8
 71
3
 72
8
 73
4
 74
0
 40
0
 40
0
 40
0
 40
0
 40
1
 40
1
 40
1
 40
1
 10
45.878861
 20
433.328754
 30
0.0
 10
47.657426
 20
433.328754
 30
0.0
 10
49.498365
 20
433.328754
 30
0.0
 10
51.376085
 20
433.328754
 30
0.0
  0
SPLINE
  5
241
100
AcDbEntity
  8
Layer_1
 62
1
100
AcDbSpline
 70
8
 71
3
 72
8
 73
4
 74
0
 40
0
 40
0
 40
0
 40
0
 40
1
 40
1
 40
1
 40
1
 10
35.983999
 20
433.328754
 30
0.0
 10
37.668774
 20
433.328754
 30
0.0
 10
39.515530
 20
433.328754
 30
0.0
 10
41.481275
 20
433.328754
 30
0.0
  0
SPLINE
  5
242
100
AcDbEntity
  8
Layer_1
 62
1
100
AcDbSpline
 70
8
 71
3
 72
8
 73
4
 74
0
 40
0
 40
0
 40
0
 40
0
 40
1
 40
1
 40
1
 40
1
 10
26.088861
 20
433.328754
 30
0.0
 10
26.088861
 20
433.328754
 30
0.0
 10
28.164785
 20
433.328754
 30
0.0
 10
31.586186
 20
433.328754
 30
0.0
  0
LWPOLYLINE
  5
243
100
AcDbEntity
  8
Layer_1
 62
1
100
AcDbPolyline
 90
2
 70
0
 10
95.355331
 20
433.328754
 30
0.0
 10
98.001164
 20
433.328754
 30
0.0
  0
LWPOLYLINE
  5
244
100
AcDbEntity
  8
Layer_1
 62
1
100
AcDbPolyline
 90
2
 70
0
 10
19.045123
 20
433.328754
 30
0.0
 10
21.690957
 20
433.328754
 30
0.0
  0
SPLINE
  5
245
100
AcDbEntity
  8
Layer_1
 62
1
100
AcDbSpline
 70
8
 71
3
 72
8
 73
4
 74
0
 40
0
 40
0
 40
0
 40
0
 40
1
 40
1
 40
1
 40
1
 10
149.609387
 20
33.706287
 30
0.0
 10
148.330920
 20
35.615859
 30
0.0
 10
146.154634
 20
36.873864
 30
0.0
 10
143.684131
 20
36.873864
 30
0.0
  0
SPLINE
  5
246
100
AcDbEntity
  8
Layer_1
 62
1
100
AcDbSpline
 70
8
 71
3
 72
8
 73
4
 74
0
 40
0
 40
0
 40
0
 40
0
 40
1
 40
1
 40
1
 40
1
 10
143.684131
 20
36.873864
 30
0.0
 10
141.213276
 20
36.873864
 30
0.0
 10
139.037342
 20
35.615859
 30
0.0
 10
137.758878
 20
33.706287
 30
0.0
  0
LWPOLYLINE
  5
247
100
AcDbEntity
  8
Layer_1
 62
1
100
AcDbPolyline
 90
2
 70
1
 10
161.102887
 20
33.706287
 30
0.0
 10
149.609387
 20
33.706287
 30
0.0
  0
SPLINE
  5
248
100
AcDbEntity
  8
Layer_1
 62
1
100
AcDbSpline
 70
8
 71
3
 72
8
 73
4
 74
0
 40
0
 40
0
 40
0
 40
0
 40
1
 40
1
 40
1
 40
1
 10
126.265378
 20
33.706287
 30
0.0
 10
124.951634
 20
33.706287
 30
0.0
 10
123.886598
 20
31.933564
 30
0.0
 10
123.886598
 20
29.746709
 30
0.0
  0
SPLINE
  5
249
100
AcDbEntity
  8
Layer_1
 62
1
100
AcDbSpline
 70
8
 71
3
 72
8
 73
4
 74
0
 40
0
 40
0
 40
0
 40
0
 40
1
 40
1
 40
1
 40
1
 10
123.886598
 20
29.746709
 30
0.0
 10
123.886598
 20
27.560192
 30
0.0
 10
124.951634
 20
25.787470
 30
0.0
 10
126.265378
 20
25.787470
 30
0.0
  0
LWPOLYLINE
  5
24a
100
AcDbEntity
  8
Layer_1
 62
1
100
AcDbPolyline
 90
2
 70
1
 10
137.758878
 20
33.706287
 30
0.0
 10
126.265378
 20
33.706287
 30
0.0
  0
SPLINE
  5
24b
100
AcDbEntity
  8
Layer_1
 62
1
100
AcDbSpline
 70
8
 71
3
 72
8
 73
4
 74
0
 40
0
 40
0
 40
0
 40
0
 40
1
 40
1
 40
1
 40
1
 10
137.758878
 20
25.787470
 30
0.0
 10
139.037345
 20
23.877531
 30
0.0
 10
141.213276
 20
22.619892
 30
0.0
 10
143.684131
 20
22.619892
 30
0.0
  0
SPLINE
  5
24c
100
AcDbEntity
  8
Layer_1
 62
1
100
AcDbSpline
 70
8
 71
3
 72
8
 73
4
 74
0
 40
0
 40
0
 40
0
 40
0
 40
1
 40
1
 40
1
 40
1
 10
143.684131
 20
22.619892
 30
0.0
 10
146.154634
 20
22.619892
 30
0.0
 10
148.330920
 20
23.877531
 30
0.0
 10
149.609387
 20
25.787470
 30
0.0
  0
LWPOLYLINE
  5
24d
100
AcDbEntity
  8
Layer_1
 62
1
100
AcDbPolyline
 90
2
 70
1
 10
126.265378
 20
25.787470
 30
0.0
 10
137.758878
 20
25.787470
 30
0.0
  0
SPLINE
  5
24e
100
AcDbEntity
  8
Layer_1
 62
1
100
AcDbSpline
 70
8
 71
3
 72
8
 73
4
 74
0
 40
0
 40
0
 40
0
 40
0
 40
1
 40
1
 40
1
 40
1
 10
161.102887
 20
25.787470
 30
0.0
 10
162.416631
 20
25.787470
 30
0.0
 10
163.481667
 20
27.560192
 30
0.0
 10
163.481667
 20
29.746709
 30
0.0
  0
SPLINE
  5
24f
100
AcDbEntity
  8
Layer_1
 62
1
100
AcDbSpline
 70
8
 71
3
 72
8
 73
4
 74
0
 40
0
 40
0
 40
0
 40
0
 40
1
 40
1
 40
1
 40
1
 10
163.481667
 20
29.746709
 30
0.0
 10
163.481667
 20
31.933564
 30
0.0
 10
162.416631
 20
33.706287
 30
0.0
 10
161.102887
 20
33.706287
 30
0.0
  0
LWPOLYLINE
  5
250
100
AcDbEntity
  8
Layer_1
 62
1
100
AcDbPolyline
 90
2
 70
1
 10
149.609387
 20
25.787470
 30
0.0
 10
161.102887
 20
25.787470
 30
0.0
  0
SPLINE
  5
251
100
AcDbEntity
  8
Layer_1
 62
1
100
AcDbSpline
 70
8
 71
3
 72
8
 73
4
 74
0
 40
0
 40
0
 40
0
 40
0
 40
1
 40
1
 40
1
 40
1
 10
255.516064
 20
444.866213
 30
0.0
 10
255.516064
 20
443.623729
 30
0.0
 10
254.508883
 20
442.616196
 30
0.0
 10
253.266047
 20
442.616196
 30
0.0
  0
SPLINE
  5
252
100
AcDbEntity
  8
Layer_1
 62
1
100
AcDbSpline
 70
8
 71
3
 72
8
 73
4
 74
0
 40
0
 40
0
 40
0
 40
0
 40
1
 40
1
 40
1
 40
1
 10
253.266047
 20
442.616196
 30
0.0
 10
252.023564
 20
442.616196
 30
0.0
 10
251.016031
 20
443.623729
 30
0.0
 10
251.016031
 20
444.866213
 30
0.0
  0
SPLINE
  5
253
100
AcDbEntity
  8
Layer_1
 62
1
100
AcDbSpline
 70
8
 71
3
 72
8
 73
4
 74
0
 40
0
 40
0
 40
0
 40
0
 40
1
 40
1
 40
1
 40
1
 10
251.016031
 20
444.866213
 30
0.0
 10
251.016031
 20
446.108696
 30
0.0
 10
252.023564
 20
447.116229
 30
0.0
 10
253.266047
 20
447.116229
 30
0.0
  0
SPLINE
  5
254
100
AcDbEntity
  8
Layer_1
 62
1
100
AcDbSpline
 70
8
 71
3
 72
8
 73
4
 74
0
 40
0
 40
0
 40
0
 40
0
 40
1
 40
1
 40
1
 40
1
 10
253.266047
 20
447.116229
 30
0.0
 10
254.508883
 20
447.116229
 30
0.0
 10
255.516064
 20
446.108696
 30
0.0
 10
255.516064
 20
444.866213
 30
0.0
  0
LWPOLYLINE
  5
255
100
AcDbEntity
  8
Layer_1
 62
1
100
AcDbPolyline
 90
2
 70
1
 10
161.102887
 20
33.706287
 30
0.0
 10
161.102887
 20
33.706287
 30
0.0
  0
SPLINE
  5
256
100
AcDbEntity
  8
Layer_1
 62
1
100
AcDbSpline
 70
8
 71
3
 72
8
 73
4
 74
0
 40
0
 40
0
 40
0
 40
0
 40
1
 40
1
 40
1
 40
1
 10
36.352093
 20
444.866213
 30
0.0
 10
36.352093
 20
443.623729
 30
0.0
 10
35.344560
 20
442.616196
 30
0.0
 10
34.102077
 20
442.616196
 30
0.0
  0
SPLINE
  5
257
100
AcDbEntity
  8
Layer_1
 62
1
100
AcDbSpline
 70
8
 71
3
 72
8
 73
4
 74
0
 40
0
 40
0
 40
0
 40
0
 40
1
 40
1
 40
1
 40
1
 10
34.102077
 20
442.616196
 30
0.0
 10
32.859593
 20
442.616196
 30
0.0
 10
31.852060
 20
443.623729
 30
0.0
 10
31.852060
 20
444.866213
 30
0.0
  0
SPLINE
  5
258
100
AcDbEntity
  8
Layer_1
 62
1
100
AcDbSpline
 70
8
 71
3
 72
8
 73
4
 74
0
 40
0
 40
0
 40
0
 40
0
 40
1
 40
1
 40
1
 40
1
 10
31.852060
 20
444.866213
 30
0.0
 10
31.852060
 20
446.108696
 30
0.0
 10
32.859593
 20
447.116229
 30
0.0
 10
34.102077
 20
447.116229
 30
0.0
  0
SPLINE
  5
259
100
AcDbEntity
  8
Layer_1
 62
1
100
AcDbSpline
 70
8
 71
3
 72
8
 73
4
 74
0
 40
0
 40
0
 40
0
 40
0
 40
1
 40
1
 40
1
 40
1
 10
34.102077
 20
447.116229
 30
0.0
 10
35.344560
 20
447.116229
 30
0.0
 10
36.352093
 20
446.108696
 30
0.0
 10
36.352093
 20
444.866213
 30
0.0
  0
LWPOLYLINE
  5
25a
100
AcDbEntity
  8
Layer_1
 62
1
100
AcDbPolyline
 90
2
 70
1
 10
255.516064
 20
444.866213
 30
0.0
 10
255.516064
 20
444.866213
 30
0.0
  0
LWPOLYLINE
  5
25b
100
AcDbEntity
  8
Layer_1
 62
1
100
AcDbPolyline
 90
2
 70
1
 10
36.352093
 20
444.866213
 30
0.0
 10
36.352093
 20
444.866213
 30
0.0
  0
ENDSEC
  0
SECTION
  2
OBJECTS
  0
DICTIONARY
  5
C
330
0
100
AcDbDictionary
  3
ACAD_GROUP
350
D
  3
ACAD_MLINESTYLE
350
17
  0
DICTIONARY
  5
D
330
C
100
AcDbDictionary
  0
DICTIONARY
  5
1A
330
C
100
AcDbDictionary
  0
DICTIONARY
  5
17
330
C
100
AcDbDictionary
  3
STANDARD
350
18
  0
DICTIONARY
  5
19
330
C
100
AcDbDictionary
  0
ENDSEC
  0
EOF
