<?xml version="1.0" encoding="UTF-8" standalone="no"?>
<!-- Created with Inkscape (http://www.inkscape.org/) -->

<svg
   xmlns:dc="http://purl.org/dc/elements/1.1/"
   xmlns:cc="http://creativecommons.org/ns#"
   xmlns:rdf="http://www.w3.org/1999/02/22-rdf-syntax-ns#"
   xmlns:svg="http://www.w3.org/2000/svg"
   xmlns="http://www.w3.org/2000/svg"
   xmlns:sodipodi="http://sodipodi.sourceforge.net/DTD/sodipodi-0.dtd"
   xmlns:inkscape="http://www.inkscape.org/namespaces/inkscape"
   width="210mm"
   height="297mm"
   viewBox="0 0 744.09448819 1052.3622047"
   id="svg2"
   version="1.1"
   inkscape:version="0.91 r13725"
   sodipodi:docname="oona_wooden_tag(iphone_holster).svg">
  <defs
     id="defs4">
    <clipPath
       id="clipPath4147"
       clipPathUnits="userSpaceOnUse">
      <path
         inkscape:connector-curvature="0"
         id="path4149"
         d="m 0,42.52 99.21,0 L 99.21,0 0,0 0,42.52 Z" />
    </clipPath>
  </defs>
  <sodipodi:namedview
     id="base"
     pagecolor="#ffffff"
     bordercolor="#666666"
     borderopacity="1.0"
     inkscape:pageopacity="0.0"
     inkscape:pageshadow="2"
     inkscape:zoom="3.959798"
     inkscape:cx="423.29333"
     inkscape:cy="122.82967"
     inkscape:document-units="mm"
     inkscape:current-layer="layer1"
     showgrid="false"
     inkscape:window-width="1440"
     inkscape:window-height="837"
     inkscape:window-x="-4"
     inkscape:window-y="-4"
     inkscape:window-maximized="1" />
  <metadata
     id="metadata7">
    <rdf:RDF>
      <cc:Work
         rdf:about="">
        <dc:format>image/svg+xml</dc:format>
        <dc:type
           rdf:resource="http://purl.org/dc/dcmitype/StillImage" />
        <dc:title></dc:title>
      </cc:Work>
    </rdf:RDF>
  </metadata>
  <g
     inkscape:label="Layer 1"
     inkscape:groupmode="layer"
     id="layer1">
    <path
       style="fill:none;stroke:#231f20;stroke-width:1.25;stroke-linecap:butt;stroke-linejoin:miter;stroke-miterlimit:10;stroke-dasharray:none;stroke-opacity:1"
       d="m 402.3795,867.95667 c -4.93875,0 -8.94336,4.00531 -8.94336,8.94531 0,4.93875 4.00461,8.94141 8.94336,8.94141 4.93875,0 8.94336,-4.00266 8.94336,-8.94141 0,-4.94 -4.00461,-8.94531 -8.94336,-8.94531 z m 22.09766,0 c -4.93875,0 -8.94336,4.00531 -8.94336,8.94531 0,4.93875 4.00461,8.94141 8.94336,8.94141 4.93875,0 8.94336,-4.00266 8.94336,-8.94141 0,-4.94 -4.00461,-8.94531 -8.94336,-8.94531 z m 15.06836,0.66797 c -1.16,0 -2.10156,0.94156 -2.10156,2.10156 l 0,15.76563 0.01,0 c 0.0875,1.065 0.97821,1.90039 2.06446,1.90039 1.08625,0 1.975,-0.83539 2.0625,-1.90039 l 0.01,0 0,-9.93164 10.17969,14.54882 c 0.36625,0.61375 1.03523,1.02539 1.80273,1.02539 1.10125,0 2.00305,-0.84703 2.0918,-1.92578 0.006,-0.02 0.01,-0.0398 0.01,-0.0586 l 0,-1.75781 0,-17.79102 c 0,-0.0163 -0.003,-0.0313 -0.006,-0.0488 -0.0663,-1.075 -0.95829,-1.92773 -2.05079,-1.92773 -1.08999,0 -1.98078,0.84812 -2.05078,1.92187 -0.006,0.0188 -0.01,0.0372 -0.01,0.0547 l 0,13.59766 -10.2207,-14.56836 c -0.37001,-0.6025 -1.03227,-1.00586 -1.79102,-1.00586 z m 31.32422,0.004 c -0.025,10e-4 -0.0518,0.004 -0.0781,0.006 -0.0425,0.004 -0.0825,0.008 -0.125,0.0137 -0.0188,0.004 -0.0378,0.008 -0.0566,0.01 -0.0487,0.009 -0.0957,0.0189 -0.14453,0.0312 -0.0113,0.003 -0.022,0.006 -0.0332,0.01 -0.0537,0.0137 -0.10766,0.0301 -0.16016,0.0488 -0.002,9.9e-4 -0.006,0.003 -0.01,0.004 -0.0537,0.02 -0.10641,0.0427 -0.16016,0.0664 -0.45875,0.215 -0.79984,0.5757 -0.99609,1.00195 l -8.98633,19.38672 0,0.002 c -0.48,1.02875 -0.0339,2.25242 0.99609,2.73242 1.03,0.48125 2.25438,0.0346 2.73438,-0.99414 l 7.12304,-15.36718 5.77344,12.45898 -5.77734,0.0312 c -1.135,0 -2.05469,0.92234 -2.05469,2.05859 0,1.13625 0.91969,2.05665 2.05469,2.05665 l 0,0.002 8.99219,-0.0488 0,-0.002 c 0.0175,0 0.0332,-0.002 0.0508,-0.002 0.0225,-10e-4 0.0439,-0.004 0.0664,-0.006 0.0475,-0.003 0.0944,-0.005 0.14063,-0.0117 0.0163,-0.001 0.0326,-0.006 0.0488,-0.008 0.0538,-0.008 0.10765,-0.016 0.16015,-0.0273 0.009,-0.002 0.0166,-0.006 0.0254,-0.008 0.06,-0.015 0.12024,-0.0308 0.17774,-0.0508 0.004,-0.001 0.007,-0.004 0.0117,-0.006 0.0625,-0.0213 0.12359,-0.0448 0.18359,-0.0723 10e-4,-10e-4 0.002,-0.002 0.004,-0.004 0.002,0 0.006,-0.002 0.008,-0.004 0.0575,-0.0263 0.11226,-0.0553 0.16601,-0.0879 0.009,-0.005 0.0179,-0.0106 0.0254,-0.0156 0.0487,-0.0288 0.0956,-0.0612 0.14063,-0.0937 0.0125,-0.01 0.0254,-0.0185 0.0391,-0.0273 0.0388,-0.03 0.0758,-0.0612 0.11328,-0.0937 0.015,-0.0137 0.0293,-0.0273 0.043,-0.041 0.0337,-0.0312 0.0664,-0.0652 0.0977,-0.0977 0.0138,-0.0163 0.0293,-0.0306 0.043,-0.0469 0.03,-0.035 0.0592,-0.0699 0.0879,-0.10742 0.0112,-0.015 0.022,-0.0299 0.0332,-0.0449 0.0288,-0.04 0.057,-0.0806 0.082,-0.12305 0.009,-0.0125 0.0159,-0.0253 0.0234,-0.0391 0.0263,-0.0437 0.0505,-0.0905 0.0742,-0.13672 0.005,-0.0125 0.0106,-0.0227 0.0156,-0.0352 0.0225,-0.0475 0.0437,-0.0964 0.0625,-0.14648 0.005,-0.0125 0.01,-0.0266 0.0137,-0.0391 0.0175,-0.0475 0.0311,-0.0958 0.0449,-0.14453 0.004,-0.0175 0.0102,-0.0352 0.0137,-0.0527 0.0113,-0.0437 0.0205,-0.0878 0.0293,-0.13281 0.004,-0.025 0.005,-0.0512 0.01,-0.0762 0.005,-0.0375 0.0112,-0.0746 0.0137,-0.11328 0.002,-0.0338 0.003,-0.0678 0.004,-0.10157 10e-4,-0.02 0.002,-0.0413 0.002,-0.0625 0,-0.0125 0,-0.0227 0,-0.0352 0,-0.0375 -0.002,-0.0758 -0.006,-0.11328 -10e-4,-0.0312 -0.005,-0.0626 -0.008,-0.0937 -0.004,-0.0337 -0.009,-0.0666 -0.0137,-0.10157 -0.006,-0.035 -0.012,-0.0698 -0.0195,-0.10351 -0.006,-0.0288 -0.0147,-0.0571 -0.0234,-0.0859 -0.01,-0.0387 -0.0195,-0.0777 -0.0332,-0.11523 -0.007,-0.025 -0.0186,-0.0505 -0.0274,-0.0742 -0.015,-0.04 -0.0312,-0.0784 -0.0488,-0.11719 -0.004,-0.01 -0.006,-0.0206 -0.01,-0.0293 l 0,-0.002 -8.98633,-19.38672 c -0.19625,-0.42625 -0.53734,-0.78695 -0.99609,-1.00195 -0.0525,-0.0237 -0.10641,-0.0457 -0.16016,-0.0645 -0.004,-0.001 -0.007,-0.005 -0.01,-0.006 -0.0525,-0.0187 -0.10641,-0.0351 -0.16016,-0.0488 -0.0112,-0.004 -0.022,-0.008 -0.0332,-0.01 -0.0487,-0.0125 -0.0957,-0.0225 -0.14453,-0.0312 -0.0188,-0.002 -0.0378,-0.006 -0.0566,-0.01 -0.0412,-0.006 -0.0826,-0.01 -0.125,-0.0137 -0.0263,-0.002 -0.0519,-0.005 -0.0781,-0.006 -0.035,-0.002 -0.0685,0 -0.10352,0 -0.035,0 -0.0685,-0.002 -0.10351,0 z m -61.60352,19.39258 -13.77344,0.0488 0,0.002 c -1.13625,0 -2.05664,0.92039 -2.05664,2.05664 0,1.13625 0.92039,2.0586 2.05664,2.0586 l 13.77344,-0.0508 c 1.13625,0 2.05469,-0.92039 2.05469,-2.05664 0,-1.135 -0.91844,-2.05664 -2.05469,-2.05664 l 0,-0.002 z m 22.09766,0 -13.77344,0.0488 0,0.002 c -1.13625,0 -2.05664,0.92039 -2.05664,2.05664 0,1.13625 0.92039,2.0586 2.05664,2.0586 l 13.77344,-0.0508 c 1.13625,0 2.05664,-0.92039 2.05664,-2.05664 0,-1.135 -0.92039,-2.05664 -2.05664,-2.05664 l 0,-0.002 z"
       id="path4173"
       inkscape:connector-curvature="0" />
    <path
       style="fill:none;stroke:#231f20;stroke-width:1.25;stroke-linecap:butt;stroke-linejoin:miter;stroke-miterlimit:10;stroke-dasharray:none;stroke-opacity:1"
       d="m 392.75841,858.81214 c -5.55375,0 -10.05469,4.59351 -10.05469,10.25976 l 0,22 c 0,5.66625 4.50094,10.25977 10.05469,10.25977 l 89.9375,0 c 5.55375,0 10.05469,-4.59352 10.05469,-10.25977 l 0,-22 c 0,-5.66625 -4.50094,-10.25976 -10.05469,-10.25976 l -89.9375,0 z"
       id="path4177"
       inkscape:connector-curvature="0" />
  </g>
</svg>
