<?xml version="1.0" encoding="UTF-8" standalone="no"?>
<!-- Created with Inkscape (http://www.inkscape.org/) -->

<svg
   xmlns:dc="http://purl.org/dc/elements/1.1/"
   xmlns:cc="http://creativecommons.org/ns#"
   xmlns:rdf="http://www.w3.org/1999/02/22-rdf-syntax-ns#"
   xmlns:svg="http://www.w3.org/2000/svg"
   xmlns="http://www.w3.org/2000/svg"
   xmlns:sodipodi="http://sodipodi.sourceforge.net/DTD/sodipodi-0.dtd"
   xmlns:inkscape="http://www.inkscape.org/namespaces/inkscape"
   width="280.35248mm"
   height="467.30493mm"
   viewBox="0 0 993.37492 1655.8049"
   id="svg2"
   version="1.1"
   inkscape:version="0.91 r13725"
   sodipodi:docname="OONA_desk_organizer_packaging_v4.svg">
  <sodipodi:namedview
     id="base"
     pagecolor="#ffffff"
     bordercolor="#666666"
     borderopacity="1.0"
     inkscape:pageopacity="0.0"
     inkscape:pageshadow="2"
     inkscape:zoom="0.7"
     inkscape:cx="659.5213"
     inkscape:cy="813.33227"
     inkscape:document-units="mm"
     inkscape:current-layer="layer1"
     showgrid="false"
     inkscape:window-width="1440"
     inkscape:window-height="837"
     inkscape:window-x="-4"
     inkscape:window-y="-4"
     inkscape:window-maximized="1"
     fit-margin-top="10"
     fit-margin-bottom="10"
     fit-margin-right="10"
     fit-margin-left="10" />
  <defs
     id="defs4">
    <clipPath
       clipPathUnits="userSpaceOnUse"
       id="clipPath4147">
      <path
         d="m 0,1303.94 765.35,0 L 765.35,0 0,0 0,1303.94 Z"
         id="path4149"
         inkscape:connector-curvature="0" />
    </clipPath>
    <clipPath
       clipPathUnits="userSpaceOnUse"
       id="clipPath6820">
      <path
         d="m 0,1303.94 765.35,0 L 765.35,0 0,0 0,1303.94 Z"
         id="path6822"
         inkscape:connector-curvature="0" />
    </clipPath>
  </defs>
  <metadata
     id="metadata7">
    <rdf:RDF>
      <cc:Work
         rdf:about="">
        <dc:format>image/svg+xml</dc:format>
        <dc:type
           rdf:resource="http://purl.org/dc/dcmitype/StillImage" />
        <dc:title></dc:title>
      </cc:Work>
    </rdf:RDF>
  </metadata>
  <g
     transform="translate(159.54459,-47.316854)"
     id="layer1"
     inkscape:groupmode="layer"
     inkscape:label="Layer 1">
    <g
       transform="matrix(1.25,0,0,-1.25,-30.737965,126.82412)"
       id="g6824" />
    <g
       transform="matrix(1.25,0,0,-1.25,745.82729,126.82412)"
       id="g6828" />
    <g
       transform="matrix(1.25,0,0,-1.25,411.29241,1583.69)"
       id="g6832" />
    <g
       transform="matrix(1.25,0,0,-1.25,-92.061965,167.70488)"
       id="g6836" />
    <g
       transform="matrix(1.25,0,0,-1.25,178.32854,167.70488)"
       id="g6844" />
    <g
       transform="matrix(1.25,0,0,-1.25,-92.061965,248.82087)"
       id="g6848" />
    <g
       transform="matrix(1.25,0,0,-1.25,781.83141,248.82087)"
       id="g6856" />
    <g
       transform="matrix(1.25,0,0,-1.25,-92.061965,860.00288)"
       id="g6860" />
    <g
       transform="matrix(1.25,0,0,-1.25,781.83141,860.00288)"
       id="g6868" />
    <g
       transform="matrix(1.25,0,0,-1.25,-92.061965,931.22787)"
       id="g6872" />
    <g
       transform="matrix(1.25,0,0,-1.25,781.83141,931.22787)"
       id="g6880" />
    <g
       transform="matrix(1.25,0,0,-1.25,809.97166,320.00913)"
       id="g6884" />
    <g
       transform="matrix(1.25,0,0,-1.25,734.08429,374.10125)"
       id="g6888" />
    <g
       transform="matrix(1.25,0,0,-1.25,787.47166,374.10125)"
       id="g6892" />
    <g
       transform="matrix(1.25,0,0,-1.25,809.97166,320.00913)"
       id="g6896" />
    <g
       transform="matrix(1.25,0,0,-1.25,787.47166,374.10125)"
       id="g6900" />
    <g
       transform="matrix(1.25,0,0,-1.25,809.97166,777.36075)"
       id="g6904" />
    <g
       transform="matrix(1.25,0,0,-1.25,787.47166,754.86075)"
       id="g6908" />
    <g
       transform="matrix(1.25,0,0,-1.25,809.97166,815.90525)"
       id="g6912" />
    <g
       transform="matrix(1.25,0,0,-1.25,-30.737965,1495.4488)"
       id="g6916" />
    <g
       transform="matrix(1.25,0,0,-1.25,745.82729,1495.4488)"
       id="g6920" />
    <g
       transform="matrix(1.25,0,0,-1.25,287.23366,1274.8781)"
       id="g6924" />
    <g
       transform="matrix(1.25,0,0,-1.25,173.82728,1185.581)"
       id="g6928" />
    <g
       transform="matrix(1.25,0,0,-1.25,375.01416,1194.0044)"
       id="g6932" />
    <g
       transform="matrix(1.25,0,0,-1.25,462.15003,1194.0044)"
       id="g6936" />
    <g
       transform="matrix(1.25,0,0,-1.25,436.50353,1244.9836)"
       id="g6940" />
    <g
       transform="matrix(1.25,0,0,-1.25,425.91491,1244.9836)"
       id="g6944" />
    <g
       transform="matrix(1.25,0,0,-1.25,367.49341,1249.1246)"
       id="g6948" />
    <g
       transform="matrix(1.25,0,0,-1.25,436.50004,1235.7483)"
       id="g6952" />
    <g
       transform="matrix(1.25,0,0,-1.25,425.91141,1235.7483)"
       id="g6956" />
    <g
       transform="matrix(1.25,0,0,-1.25,367.48991,1231.6073)"
       id="g6960" />
    <g
       transform="matrix(1.25,0,0,-1.25,523.63053,1244.9836)"
       id="g6964" />
    <g
       transform="matrix(1.25,0,0,-1.25,513.04178,1244.9836)"
       id="g6968" />
    <g
       transform="matrix(1.25,0,0,-1.25,454.62041,1249.1246)"
       id="g6972" />
    <g
       transform="matrix(1.25,0,0,-1.25,523.62703,1235.7483)"
       id="g6976" />
    <g
       transform="matrix(1.25,0,0,-1.25,513.03828,1235.7483)"
       id="g6980" />
    <g
       transform="matrix(1.25,0,0,-1.25,454.61691,1231.6073)"
       id="g6984" />
    <g
       transform="matrix(1.25,0,0,-1.25,513.29028,167.70488)"
       id="g6990" />
    <path
       style="fill:none;stroke:#231f20;stroke-width:1.25;stroke-linecap:butt;stroke-linejoin:miter;stroke-miterlimit:10;stroke-dasharray:none;stroke-opacity:1"
       d="m 783.68079,167.70488 9.375,0"
       id="path4449" />
    <path
       style="fill:none;stroke:#231f20;stroke-width:1.25;stroke-linecap:butt;stroke-linejoin:miter;stroke-miterlimit:10;stroke-dasharray:none;stroke-opacity:1"
       d="M 775.88966,167.70488"
       id="path4447" />
    <path
       style="fill:none;stroke:#231f20;stroke-width:1.25;stroke-linecap:butt;stroke-linejoin:miter;stroke-miterlimit:10;stroke-dasharray:none;stroke-opacity:1"
       d="m 748.61564,167.70488 c 8.10476,0 14.7683,0 19.47978,0"
       id="path4445" />
    <path
       style="fill:none;stroke:#231f20;stroke-width:1.25;stroke-linecap:butt;stroke-linejoin:miter;stroke-miterlimit:10;stroke-dasharray:none;stroke-opacity:1"
       d="m 713.55392,167.70488 c 6.8633,0 13.39893,0 19.47778,0"
       id="path4443" />
    <path
       style="fill:none;stroke:#231f20;stroke-width:1.25;stroke-linecap:butt;stroke-linejoin:miter;stroke-miterlimit:10;stroke-dasharray:none;stroke-opacity:1"
       d="m 678.49401,167.70488 c 6.61301,0 13.13446,0 19.4787,0"
       id="path4441" />
    <path
       style="fill:none;stroke:#231f20;stroke-width:1.25;stroke-linecap:butt;stroke-linejoin:miter;stroke-miterlimit:10;stroke-dasharray:none;stroke-opacity:1"
       d="m 643.43367,167.70488 c 6.46403,0 12.98261,0 19.47785,0"
       id="path4439" />
    <path
       style="fill:none;stroke:#231f20;stroke-width:1.25;stroke-linecap:butt;stroke-linejoin:miter;stroke-miterlimit:10;stroke-dasharray:none;stroke-opacity:1"
       d="m 608.37219,167.70488 c 6.302,0 12.82499,0 19.47829,0"
       id="path4437" />
    <path
       style="fill:none;stroke:#231f20;stroke-width:1.25;stroke-linecap:butt;stroke-linejoin:miter;stroke-miterlimit:10;stroke-dasharray:none;stroke-opacity:1"
       d="m 573.30992,167.70488 c 5.96968,0 12.51331,0 19.47854,0"
       id="path4435" />
    <path
       style="fill:none;stroke:#231f20;stroke-width:1.25;stroke-linecap:butt;stroke-linejoin:miter;stroke-miterlimit:10;stroke-dasharray:none;stroke-opacity:1"
       d="m 538.24842,167.70488 c 0,0 7.35563,0 19.47869,0"
       id="path4433" />
    <path
       style="fill:none;stroke:#231f20;stroke-width:1.25;stroke-linecap:butt;stroke-linejoin:miter;stroke-miterlimit:10;stroke-dasharray:none;stroke-opacity:1"
       d="m 513.29028,167.70488 9.375,0"
       id="path4431" />
    <path
       style="fill:none;stroke:#231f20;stroke-width:1.25;stroke-linecap:butt;stroke-linejoin:miter;stroke-miterlimit:10;stroke-dasharray:none;stroke-opacity:1"
       d="m 502.70942,183.7035 -306.16376,0 0,-15.0825 306.16376,0 0,15.0825 z"
       id="path4429" />
    <path
       style="fill:none;stroke:#231f20;stroke-width:1.25;stroke-linecap:butt;stroke-linejoin:miter;stroke-miterlimit:10;stroke-dasharray:none;stroke-opacity:1"
       d="M 379.42578 1129.3203 L 341.93945 1129.5254 L 341.93945 1129.5371 C 341.86825 1129.5371 341.79977 1129.5459 341.72852 1129.5469 C 341.63482 1129.5469 341.54297 1129.5565 341.44922 1129.5605 C 341.25172 1129.5715 341.05508 1129.5863 340.86133 1129.6113 C 340.79383 1129.6213 340.72695 1129.6326 340.6582 1129.6426 C 340.4357 1129.6766 340.21359 1129.7158 339.99609 1129.7656 C 339.95859 1129.7756 339.92232 1129.7859 339.88477 1129.7949 C 339.63477 1129.8569 339.38844 1129.9279 339.14844 1130.0117 C 339.13214 1130.0217 339.11786 1130.0223 339.10156 1130.0293 C 338.84031 1130.1203 338.58469 1130.2248 338.33594 1130.3398 C 338.32994 1130.3398 338.32336 1130.3396 338.31836 1130.3496 C 338.30836 1130.3596 338.29916 1130.3583 338.28906 1130.3633 C 338.04781 1130.477 337.81539 1130.6026 337.58789 1130.7363 C 337.55289 1130.7573 337.51742 1130.7798 337.48242 1130.8008 C 337.28367 1130.9221 337.08984 1131.05 336.90234 1131.1875 C 336.84734 1131.2265 336.79594 1131.2666 336.74219 1131.3066 C 336.57969 1131.4316 336.42008 1131.561 336.26758 1131.6973 C 336.20388 1131.7523 336.14328 1131.809 336.08203 1131.8652 C 335.94203 1131.9965 335.80578 1132.1315 335.67578 1132.2715 C 335.61578 1132.3355 335.5575 1132.3998 335.5 1132.4648 C 335.3725 1132.6098 335.25031 1132.7596 335.13281 1132.9121 C 335.08531 1132.9761 335.03844 1133.0398 334.99219 1133.1035 C 334.87219 1133.2698 334.75984 1133.4375 334.65234 1133.6113 C 334.61734 1133.6673 334.58333 1133.723 334.55078 1133.7793 C 334.44078 1133.9655 334.33914 1134.1558 334.24414 1134.3496 C 334.21914 1134.3996 334.19557 1134.45 334.17188 1134.5 C 334.07938 1134.6987 333.99547 1134.8999 333.91797 1135.1074 C 333.89797 1135.1604 333.87817 1135.2131 333.85938 1135.2656 C 333.78938 1135.4656 333.72812 1135.6668 333.67188 1135.873 C 333.65188 1135.944 333.63469 1136.0146 333.61719 1136.0859 C 333.57219 1136.2709 333.53245 1136.4565 333.5 1136.6465 C 333.4812 1136.7502 333.46627 1136.854 333.45117 1136.959 C 333.42997 1137.1177 333.41094 1137.2782 333.39844 1137.4395 C 333.38714 1137.5795 333.38195 1137.72 333.37695 1137.8613 C 333.37495 1137.9463 333.36523 1138.0302 333.36523 1138.1152 C 333.36523 1138.1662 333.37009 1138.2164 333.37109 1138.2676 C 333.37322 1138.4226 333.38528 1138.5774 333.39648 1138.7324 C 333.40548 1138.8624 333.41469 1138.9942 333.42969 1139.123 C 333.44589 1139.2667 333.46914 1139.4083 333.49414 1139.5508 C 333.51794 1139.6958 333.54292 1139.8399 333.57422 1139.9824 C 333.60172 1140.1024 333.63352 1140.2211 333.66602 1140.3398 C 333.70982 1140.5023 333.75414 1140.6609 333.80664 1140.8184 C 333.84164 1140.9222 333.88242 1141.0245 333.91992 1141.127 C 333.98362 1141.2945 334.04859 1141.4599 334.12109 1141.6211 C 334.13859 1141.6611 334.15122 1141.7032 334.16992 1141.7422 L 334.16406 1141.7422 L 371.62891 1222.5742 C 372.44766 1224.3504 373.87336 1225.8607 375.78711 1226.752 C 376.00586 1226.8545 376.22742 1226.9409 376.45117 1227.0234 C 376.46617 1227.0334 376.48109 1227.034 376.49609 1227.041 C 376.71484 1227.12 376.9357 1227.1861 377.1582 1227.2461 C 377.2057 1227.2601 377.25328 1227.2761 377.30078 1227.2891 C 377.50203 1227.3401 377.70375 1227.3797 377.90625 1227.416 C 377.98125 1227.43 378.05656 1227.447 378.13281 1227.459 C 378.30906 1227.485 378.48586 1227.5006 378.66211 1227.5156 C 378.76961 1227.5256 378.87758 1227.5379 378.98633 1227.5449 C 379.13133 1227.5549 379.27422 1227.5547 379.41797 1227.5547 C 379.56172 1227.5547 379.70266 1227.5549 379.84766 1227.5449 C 379.95641 1227.5349 380.06438 1227.5256 380.17188 1227.5156 C 380.34813 1227.5006 380.52492 1227.486 380.70117 1227.459 C 380.77747 1227.448 380.85148 1227.43 380.92773 1227.416 C 381.13023 1227.38 381.33195 1227.3404 381.5332 1227.2891 C 381.5807 1227.2761 381.62828 1227.26 381.67578 1227.248 C 381.89828 1227.187 382.11984 1227.1198 382.33984 1227.041 C 382.35354 1227.031 382.36716 1227.0284 382.38086 1227.0234 C 382.60461 1226.9414 382.82688 1226.8545 383.04688 1226.752 C 384.95938 1225.8607 386.38508 1224.3517 387.20508 1222.5742 L 424.66992 1141.7422 L 424.66406 1141.7422 C 426.66531 1137.4497 424.80813 1132.3469 420.51562 1130.3457 C 416.22312 1128.3444 411.12039 1130.2016 409.11914 1134.4941 L 409.11328 1134.4941 L 379.41797 1198.5645 L 355.34375 1146.623 L 379.42578 1146.4902 L 379.42578 1146.4805 C 384.16203 1146.4805 388.00195 1142.6405 388.00195 1137.9043 C 388.00195 1133.168 384.16203 1129.3301 379.42578 1129.3301 L 379.42578 1129.3203 z M 591.98242 1129.3203 L 534.55859 1129.5273 L 534.55859 1129.5371 C 529.82234 1129.5371 525.98242 1133.377 525.98242 1138.1133 C 525.98242 1142.8495 529.82234 1146.6895 534.55859 1146.6895 L 534.55859 1146.6973 L 591.98242 1146.4922 L 591.98242 1146.4824 C 596.71867 1146.4824 600.55859 1142.6444 600.55859 1137.9082 C 600.55859 1133.1719 596.71867 1129.332 591.98242 1129.332 L 591.98242 1129.3203 z M 679.11914 1129.3203 L 621.69531 1129.5273 L 621.69531 1129.5371 C 616.95906 1129.5371 613.11914 1133.377 613.11914 1138.1133 C 613.11914 1142.8495 616.95906 1146.6895 621.69531 1146.6895 L 621.69531 1146.6973 L 679.11914 1146.4922 L 679.11914 1146.4824 C 683.85539 1146.4824 687.69531 1142.6444 687.69531 1137.9082 C 687.69531 1133.1719 683.85539 1129.332 679.11914 1129.332 L 679.11914 1129.3203 z M 446.96289 1129.541 C 442.37164 1129.541 438.61023 1133.0748 438.24023 1137.5723 C 438.21773 1137.6523 438.20117 1137.7324 438.20117 1137.8086 L 438.20117 1145.1367 L 438.20117 1219.3184 C 438.20117 1219.3844 438.21417 1219.4534 438.23047 1219.5234 C 438.51047 1224.0084 442.22234 1227.5605 446.77734 1227.5605 C 451.32359 1227.5605 455.03492 1224.0194 455.32617 1219.5469 C 455.35117 1219.4699 455.36914 1219.3921 455.36914 1219.3184 L 455.36914 1162.6211 L 497.98047 1223.3691 C 499.52047 1225.8804 502.28406 1227.5605 505.44531 1227.5605 C 510.28406 1227.5605 514.20508 1223.6383 514.20508 1218.8008 L 514.20508 1153.0645 L 514.16992 1153.0645 C 513.80617 1148.627 510.09766 1145.1367 505.56641 1145.1367 C 501.03516 1145.1367 497.32664 1148.627 496.96289 1153.0645 L 496.92773 1153.0645 L 496.92773 1194.4785 L 454.48047 1133.8203 C 452.95172 1131.2603 450.16289 1129.541 446.96289 1129.541 z M 563.26758 1155.7559 C 545.81758 1155.7559 531.18609 1167.7488 527.12109 1183.9375 C 527.09099 1184.055 527.06396 1184.1735 527.03516 1184.291 C 527.00146 1184.486 526.97461 1184.6837 526.97461 1184.8887 C 526.97461 1186.835 528.54984 1188.4102 530.49609 1188.4102 L 541.08594 1188.4102 C 542.50969 1188.4102 543.7282 1187.5627 544.2832 1186.3477 C 544.33445 1186.2039 544.3838 1186.0585 544.4375 1185.916 C 547.315 1178.3147 554.65758 1172.9102 563.26758 1172.9102 C 571.87883 1172.9102 579.22141 1178.3162 582.09766 1185.9199 C 582.15391 1186.0687 582.20727 1186.2211 582.25977 1186.3711 C 582.78852 1187.5236 583.9168 1188.3312 585.24805 1188.4102 C 585.31805 1188.4152 585.38388 1188.4316 585.45508 1188.4316 C 585.52633 1188.4316 585.59406 1188.4102 585.66406 1188.4102 L 595.83789 1188.4102 C 595.90789 1188.4152 595.97362 1188.4316 596.04492 1188.4316 C 596.11617 1188.4316 596.18195 1188.4102 596.25195 1188.4102 C 598.0982 1188.3015 599.56641 1186.7839 599.56641 1184.9102 C 599.56641 1184.7102 599.54031 1184.5154 599.50781 1184.3242 C 599.47661 1184.1929 599.44581 1184.0616 599.41211 1183.9316 C 595.34586 1167.7453 580.71508 1155.7559 563.26758 1155.7559 z M 650.39453 1155.7559 C 632.94452 1155.7559 618.31304 1167.7488 614.24805 1183.9375 C 614.21805 1184.055 614.19091 1184.1735 614.16211 1184.291 C 614.12841 1184.486 614.10156 1184.6837 614.10156 1184.8887 C 614.10156 1186.835 615.67875 1188.4102 617.625 1188.4102 L 628.21289 1188.4102 C 629.63664 1188.4102 630.85516 1187.5627 631.41016 1186.3477 C 631.46141 1186.2039 631.51065 1186.0585 631.56445 1185.916 C 634.44195 1178.3147 641.78453 1172.9102 650.39453 1172.9102 C 659.00578 1172.9102 666.34836 1178.3162 669.22461 1185.9199 C 669.28085 1186.0687 669.33422 1186.2211 669.38672 1186.3711 C 669.91547 1187.5236 671.04375 1188.3312 672.375 1188.4102 C 672.445 1188.4152 672.51083 1188.4316 672.58203 1188.4316 C 672.65328 1188.4316 672.72102 1188.4102 672.79102 1188.4102 L 682.96484 1188.4102 C 683.03484 1188.4152 683.10068 1188.4316 683.17188 1188.4316 C 683.24312 1188.4316 683.30891 1188.4102 683.37891 1188.4102 C 685.22515 1188.3015 686.69336 1186.7839 686.69336 1184.9102 C 686.69336 1184.7102 686.66727 1184.5154 686.63477 1184.3242 C 686.60357 1184.1929 686.57156 1184.0616 686.53906 1183.9316 C 682.47282 1167.7453 667.84203 1155.7559 650.39453 1155.7559 z M 585.45898 1197.666 C 585.38768 1197.666 585.32195 1197.6825 585.25195 1197.6875 C 583.9207 1197.7665 582.79242 1198.576 582.26367 1199.7285 C 582.21117 1199.8785 582.15781 1200.029 582.10156 1200.1777 C 579.22531 1207.7815 571.88078 1213.1895 563.26953 1213.1895 C 554.65953 1213.1895 547.31892 1207.7828 544.44141 1200.1816 C 544.38771 1200.0391 544.33837 1199.8957 544.28711 1199.752 C 543.73211 1198.537 542.5136 1197.6875 541.08984 1197.6875 L 530.5 1197.6875 C 528.55376 1197.6875 526.97852 1199.2647 526.97852 1201.2109 C 526.97852 1201.4159 527.00341 1201.6136 527.03711 1201.8086 C 527.06591 1201.9261 527.095 1202.0427 527.125 1202.1602 C 531.19001 1218.349 545.82273 1230.3418 563.27148 1230.3418 C 580.71898 1230.3418 595.34977 1218.3522 599.41602 1202.166 C 599.44972 1202.036 599.48052 1201.9046 599.51172 1201.7734 C 599.54422 1201.5821 599.57031 1201.3895 599.57031 1201.1895 C 599.57031 1199.3157 598.10211 1197.7963 596.25586 1197.6875 C 596.18586 1197.6875 596.12008 1197.666 596.04883 1197.666 C 595.97753 1197.666 595.90984 1197.6825 595.83984 1197.6875 L 585.66797 1197.6875 C 585.66732 1197.6875 585.66666 1197.6875 585.66602 1197.6875 C 585.59673 1197.6871 585.52958 1197.666 585.45898 1197.666 z M 672.58594 1197.666 C 672.51474 1197.666 672.44891 1197.6825 672.37891 1197.6875 C 671.04767 1197.7665 669.91938 1198.576 669.39062 1199.7285 C 669.33812 1199.8785 669.28477 1200.029 669.22852 1200.1777 C 666.35228 1207.7815 659.00969 1213.1895 650.39844 1213.1895 C 641.78844 1213.1895 634.44586 1207.7828 631.56836 1200.1816 C 631.51466 1200.0391 631.46531 1199.8957 631.41406 1199.752 C 630.85906 1198.537 629.64054 1197.6875 628.2168 1197.6875 L 617.62695 1197.6875 C 615.6807 1197.6875 614.10547 1199.2647 614.10547 1201.2109 C 614.10547 1201.4159 614.13232 1201.6136 614.16602 1201.8086 L 614.16406 1201.8086 C 614.19286 1201.9261 614.22195 1202.0427 614.25195 1202.1602 C 618.31695 1218.349 632.94969 1230.3418 650.39844 1230.3418 C 667.84594 1230.3418 682.47673 1218.3522 686.54297 1202.166 C 686.57667 1202.036 686.60747 1201.9046 686.63867 1201.7734 C 686.67117 1201.5821 686.69727 1201.3895 686.69727 1201.1895 C 686.69727 1199.3157 685.22905 1197.7963 683.38281 1197.6875 C 683.31281 1197.6875 683.24703 1197.666 683.17578 1197.666 C 683.10448 1197.666 683.0368 1197.6825 682.9668 1197.6875 L 672.79297 1197.6875 C 672.72297 1197.6875 672.65719 1197.666 672.58594 1197.666 z "
       transform="translate(-159.54459,47.316854)"
       id="path4397" />
    <path
       style="fill:none;stroke:#231f20;stroke-width:1.25;stroke-linecap:butt;stroke-linejoin:miter;stroke-miterlimit:10;stroke-dasharray:none;stroke-opacity:1"
       d="m 745.82729,1495.4488 c 0,4.4025 -3.56875,7.9725 -7.9725,7.9725 -4.4025,0 -7.9725,-3.57 -7.9725,-7.9725 0,-4.4025 3.57,-7.9725 7.9725,-7.9725 4.40375,0 7.9725,3.57 7.9725,7.9725 z"
       id="path4395" />
    <path
       style="fill:none;stroke:#231f20;stroke-width:1.25;stroke-linecap:butt;stroke-linejoin:miter;stroke-miterlimit:10;stroke-dasharray:none;stroke-opacity:1"
       d="m -30.73796,1495.4488 c 0,4.4025 -3.57,7.9725 -7.9725,7.9725 -4.4025,0 -7.9725,-3.57 -7.9725,-7.9725 0,-4.4025 3.57,-7.9725 7.9725,-7.9725 4.4025,0 7.9725,3.57 7.9725,7.9725 z"
       id="path4393" />
    <path
       style="fill:none;stroke:#231f20;stroke-width:1.25;stroke-linecap:butt;stroke-linejoin:miter;stroke-miterlimit:10;stroke-dasharray:none;stroke-opacity:1"
       d="m 809.97166,320.00913 0,31.5925"
       id="path4383" />
    <path
       id="path4377"
       style="fill:none;stroke:#231f20;stroke-width:1.25;stroke-linecap:butt;stroke-linejoin:miter;stroke-miterlimit:10;stroke-dasharray:none;stroke-opacity:1"
       d="m 809.97166,320.00913 0,-67.0575 0,-0.38125 0,-81.115 -0.13125,0 0,-32.72375 c 0.22375,-1.2725 0.36125,-2.575 0.36125,-3.91125 l 0,-33.40875 c 0,-12.4275 -10.0725,-22.5 -22.5,-22.5 l -16.84625,0 -842.928745,0 -16.48375,0 c -12.256255,0 -22.202505,9.8025 -22.475005,21.9925 l -0.025,0 0,0.5075 0,33.40875 0,2.23125 0,34.71875 0.13125,0 0,80.8 0,0.38125 0,601.98125 0.15375,0 0,70.86625 0.0763,0 -0.36126,588.76747 c 0,12.4263 10.0725,22.5 22.500005,22.5 l 53.51125,0 243.204995,0 0,103.0338 c 0,12.4262 10.07375,22.5 22.5,22.5 l 237.82625,0 c 12.42625,0 22.5,-10.0738 22.5,-22.5 l 0,-103.0338 243.41375,0 53.3025,0 c 12.4275,0 22.5,-10.0737 22.5,-22.5 l 0,-588.76747 -0.0762,0 0,-70.86625 -0.15375,0 0,-39.0275 m -75.88746,-441.80412 -129.3225,0 c -12.42625,0 -22.5,10.07375 -22.5,22.5 l 0,335.76 c 0,12.42625 10.07375,22.5 22.5,22.5 l 115.51625,0 m 67.19362,-380.76 c 12.42625,0 22.5,-10.07375 22.5,-22.5 m -22.5,22.5 -53.3875,0 m 75.8875,403.2595 c 0,-12.42625 -10.07375,-22.5 -22.5,-22.5 m 0,0 -67.19375,0 m 89.69375,61.0445 0,-38.545" />
    <path
       style="fill:none;stroke:#231f20;stroke-width:1.25;stroke-linecap:butt;stroke-linejoin:miter;stroke-miterlimit:10;stroke-dasharray:none;stroke-opacity:1"
       d="m 781.8315,931.22787 9.375,0"
       id="path4375" />
    <path
       style="fill:none;stroke:#231f20;stroke-width:1.25;stroke-linecap:butt;stroke-linejoin:miter;stroke-miterlimit:10;stroke-dasharray:none;stroke-opacity:1"
       d="M 774.28138,931.22787"
       id="path4373" />
    <path
       style="fill:none;stroke:#231f20;stroke-width:1.25;stroke-linecap:butt;stroke-linejoin:miter;stroke-miterlimit:10;stroke-dasharray:none;stroke-opacity:1"
       d="m 747.87314,931.22787 c 8.05021,0 14.41415,0 18.87599,0"
       id="path4371" />
    <path
       style="fill:none;stroke:#231f20;stroke-width:1.25;stroke-linecap:butt;stroke-linejoin:miter;stroke-miterlimit:10;stroke-dasharray:none;stroke-opacity:1"
       d="m 713.89549,931.22787 c 6.79832,0 13.10495,0 18.87676,0"
       id="path4369" />
    <path
       style="fill:none;stroke:#231f20;stroke-width:1.25;stroke-linecap:butt;stroke-linejoin:miter;stroke-miterlimit:10;stroke-dasharray:none;stroke-opacity:1"
       d="m 679.91969,931.22787 c 6.57464,0 12.8739,0 18.87544,0"
       id="path4367" />
    <path
       style="fill:none;stroke:#231f20;stroke-width:1.25;stroke-linecap:butt;stroke-linejoin:miter;stroke-miterlimit:10;stroke-dasharray:none;stroke-opacity:1"
       d="m 645.94314,931.22787 c 6.47991,0 12.77675,0 18.87554,0"
       id="path4365" />
    <path
       style="fill:none;stroke:#231f20;stroke-width:1.25;stroke-linecap:butt;stroke-linejoin:miter;stroke-miterlimit:10;stroke-dasharray:none;stroke-opacity:1"
       d="m 611.9676,931.22787 c 6.42678,0 12.72222,0 18.875,0"
       id="path4363" />
    <path
       style="fill:none;stroke:#231f20;stroke-width:1.25;stroke-linecap:butt;stroke-linejoin:miter;stroke-miterlimit:10;stroke-dasharray:none;stroke-opacity:1"
       d="m 577.98868,931.22787 c 6.3932,0 12.68861,0 18.877,0"
       id="path4361" />
    <path
       style="fill:none;stroke:#231f20;stroke-width:1.25;stroke-linecap:butt;stroke-linejoin:miter;stroke-miterlimit:10;stroke-dasharray:none;stroke-opacity:1"
       d="m 544.01039,931.22787 c 6.36876,0 12.66369,0 18.87686,0"
       id="path4359" />
    <path
       style="fill:none;stroke:#231f20;stroke-width:1.25;stroke-linecap:butt;stroke-linejoin:miter;stroke-miterlimit:10;stroke-dasharray:none;stroke-opacity:1"
       d="m 510.03433,931.22787 c 6.34967,0 12.64385,0 18.87549,0"
       id="path4357" />
    <path
       style="fill:none;stroke:#231f20;stroke-width:1.25;stroke-linecap:butt;stroke-linejoin:miter;stroke-miterlimit:10;stroke-dasharray:none;stroke-opacity:1"
       d="m 476.0575,931.22787 c 6.33493,0 12.62923,0 18.87643,0"
       id="path4355" />
    <path
       style="fill:none;stroke:#231f20;stroke-width:1.25;stroke-linecap:butt;stroke-linejoin:miter;stroke-miterlimit:10;stroke-dasharray:none;stroke-opacity:1"
       d="m 442.07989,931.22787 c 6.32186,0 12.61575,0 18.8756,0"
       id="path4353" />
    <path
       style="fill:none;stroke:#231f20;stroke-width:1.25;stroke-linecap:butt;stroke-linejoin:miter;stroke-miterlimit:10;stroke-dasharray:none;stroke-opacity:1"
       d="m 408.10248,931.22787 c 6.31056,0 12.60442,0 18.87577,0"
       id="path4351" />
    <path
       style="fill:none;stroke:#231f20;stroke-width:1.25;stroke-linecap:butt;stroke-linejoin:miter;stroke-miterlimit:10;stroke-dasharray:none;stroke-opacity:1"
       d="m 374.12512,931.22787 c 6.30017,0 12.59412,0 18.87618,0"
       id="path4349" />
    <path
       style="fill:none;stroke:#231f20;stroke-width:1.25;stroke-linecap:butt;stroke-linejoin:miter;stroke-miterlimit:10;stroke-dasharray:none;stroke-opacity:1"
       d="m 340.14768,931.22787 c 6.28974,0 12.58341,0 18.87539,0"
       id="path4347" />
    <path
       style="fill:none;stroke:#231f20;stroke-width:1.25;stroke-linecap:butt;stroke-linejoin:miter;stroke-miterlimit:10;stroke-dasharray:none;stroke-opacity:1"
       d="m 306.17104,931.22787 c 6.27981,0 12.57381,0 18.8763,0"
       id="path4345" />
    <path
       style="fill:none;stroke:#231f20;stroke-width:1.25;stroke-linecap:butt;stroke-linejoin:miter;stroke-miterlimit:10;stroke-dasharray:none;stroke-opacity:1"
       d="m 272.19343,931.22787 c 6.26897,0 12.56291,0 18.87595,0"
       id="path4343" />
    <path
       style="fill:none;stroke:#231f20;stroke-width:1.25;stroke-linecap:butt;stroke-linejoin:miter;stroke-miterlimit:10;stroke-dasharray:none;stroke-opacity:1"
       d="m 238.21524,931.22787 c 6.25748,0 12.55174,0 18.87663,0"
       id="path4341" />
    <path
       style="fill:none;stroke:#231f20;stroke-width:1.25;stroke-linecap:butt;stroke-linejoin:miter;stroke-miterlimit:10;stroke-dasharray:none;stroke-opacity:1"
       d="m 204.23765,931.22787 c 6.2439,0 12.53805,0 18.87591,0"
       id="path4339" />
    <path
       style="fill:none;stroke:#231f20;stroke-width:1.25;stroke-linecap:butt;stroke-linejoin:miter;stroke-miterlimit:10;stroke-dasharray:none;stroke-opacity:1"
       d="m 170.26054,931.22787 c 6.22795,0 12.52232,0 18.87586,0"
       id="path4337" />
    <path
       style="fill:none;stroke:#231f20;stroke-width:1.25;stroke-linecap:butt;stroke-linejoin:miter;stroke-miterlimit:10;stroke-dasharray:none;stroke-opacity:1"
       d="m 136.28206,931.22787 c 6.20836,0 12.50347,0 18.87712,0"
       id="path4335" />
    <path
       style="fill:none;stroke:#231f20;stroke-width:1.25;stroke-linecap:butt;stroke-linejoin:miter;stroke-miterlimit:10;stroke-dasharray:none;stroke-opacity:1"
       d="m 102.30456,931.22787 c 6.18127,0 12.47636,0 18.87563,0"
       id="path4333" />
    <path
       style="fill:none;stroke:#231f20;stroke-width:1.25;stroke-linecap:butt;stroke-linejoin:miter;stroke-miterlimit:10;stroke-dasharray:none;stroke-opacity:1"
       d="m 68.326042,931.22787 c 6.143363,0 12.439488,0 18.876388,0"
       id="path4331" />
    <path
       style="fill:none;stroke:#231f20;stroke-width:1.25;stroke-linecap:butt;stroke-linejoin:miter;stroke-miterlimit:10;stroke-dasharray:none;stroke-opacity:1"
       d="m 34.347555,931.22787 c 6.0829,0 12.380675,0 18.8772,0"
       id="path4329" />
    <path
       style="fill:none;stroke:#231f20;stroke-width:1.25;stroke-linecap:butt;stroke-linejoin:miter;stroke-miterlimit:10;stroke-dasharray:none;stroke-opacity:1"
       d="m 0.3690175,931.22787 c 5.9687875,0 12.2695005,0 18.8770375,0"
       id="path4327" />
    <path
       style="fill:none;stroke:#231f20;stroke-width:1.25;stroke-linecap:butt;stroke-linejoin:miter;stroke-miterlimit:10;stroke-dasharray:none;stroke-opacity:1"
       d="m -33.607932,931.22787 c 5.669874,0 11.979762,0 18.876199,0"
       id="path4325" />
    <path
       style="fill:none;stroke:#231f20;stroke-width:1.25;stroke-linecap:butt;stroke-linejoin:miter;stroke-miterlimit:10;stroke-dasharray:none;stroke-opacity:1"
       d="m -67.58612,931.22787 c 0,0 6.6897,0 18.87645,0"
       id="path4323" />
    <path
       style="fill:none;stroke:#231f20;stroke-width:1.25;stroke-linecap:butt;stroke-linejoin:miter;stroke-miterlimit:10;stroke-dasharray:none;stroke-opacity:1"
       d="m -92.06187,931.22787 9.375,0"
       id="path4321" />
    <path
       style="fill:none;stroke:#231f20;stroke-width:1.25;stroke-linecap:butt;stroke-linejoin:miter;stroke-miterlimit:10;stroke-dasharray:none;stroke-opacity:1"
       d="m 781.8315,860.00288 9.375,0"
       id="path4319" />
    <path
       style="fill:none;stroke:#231f20;stroke-width:1.25;stroke-linecap:butt;stroke-linejoin:miter;stroke-miterlimit:10;stroke-dasharray:none;stroke-opacity:1"
       d="M 774.28138,860.00288"
       id="path4317" />
    <path
       style="fill:none;stroke:#231f20;stroke-width:1.25;stroke-linecap:butt;stroke-linejoin:miter;stroke-miterlimit:10;stroke-dasharray:none;stroke-opacity:1"
       d="m 747.87314,860.00288 c 8.05021,0 14.41415,0 18.87599,0"
       id="path4315" />
    <path
       style="fill:none;stroke:#231f20;stroke-width:1.25;stroke-linecap:butt;stroke-linejoin:miter;stroke-miterlimit:10;stroke-dasharray:none;stroke-opacity:1"
       d="m 713.89549,860.00288 c 6.79832,0 13.10495,0 18.87676,0"
       id="path4313" />
    <path
       style="fill:none;stroke:#231f20;stroke-width:1.25;stroke-linecap:butt;stroke-linejoin:miter;stroke-miterlimit:10;stroke-dasharray:none;stroke-opacity:1"
       d="m 679.91969,860.00288 c 6.57464,0 12.8739,0 18.87544,0"
       id="path4311" />
    <path
       style="fill:none;stroke:#231f20;stroke-width:1.25;stroke-linecap:butt;stroke-linejoin:miter;stroke-miterlimit:10;stroke-dasharray:none;stroke-opacity:1"
       d="m 645.94314,860.00288 c 6.47991,0 12.77675,0 18.87554,0"
       id="path4309" />
    <path
       style="fill:none;stroke:#231f20;stroke-width:1.25;stroke-linecap:butt;stroke-linejoin:miter;stroke-miterlimit:10;stroke-dasharray:none;stroke-opacity:1"
       d="m 611.9676,860.00288 c 6.42678,0 12.72222,0 18.875,0"
       id="path4307" />
    <path
       style="fill:none;stroke:#231f20;stroke-width:1.25;stroke-linecap:butt;stroke-linejoin:miter;stroke-miterlimit:10;stroke-dasharray:none;stroke-opacity:1"
       d="m 577.98868,860.00288 c 6.3932,0 12.68861,0 18.877,0"
       id="path4305" />
    <path
       style="fill:none;stroke:#231f20;stroke-width:1.25;stroke-linecap:butt;stroke-linejoin:miter;stroke-miterlimit:10;stroke-dasharray:none;stroke-opacity:1"
       d="m 544.01039,860.00288 c 6.36876,0 12.66369,0 18.87686,0"
       id="path4303" />
    <path
       style="fill:none;stroke:#231f20;stroke-width:1.25;stroke-linecap:butt;stroke-linejoin:miter;stroke-miterlimit:10;stroke-dasharray:none;stroke-opacity:1"
       d="m 510.03433,860.00288 c 6.34967,0 12.64385,0 18.87549,0"
       id="path4301" />
    <path
       style="fill:none;stroke:#231f20;stroke-width:1.25;stroke-linecap:butt;stroke-linejoin:miter;stroke-miterlimit:10;stroke-dasharray:none;stroke-opacity:1"
       d="m 476.0575,860.00288 c 6.33493,0 12.62923,0 18.87643,0"
       id="path4299" />
    <path
       style="fill:none;stroke:#231f20;stroke-width:1.25;stroke-linecap:butt;stroke-linejoin:miter;stroke-miterlimit:10;stroke-dasharray:none;stroke-opacity:1"
       d="m 442.07989,860.00288 c 6.32186,0 12.61575,0 18.8756,0"
       id="path4297" />
    <path
       style="fill:none;stroke:#231f20;stroke-width:1.25;stroke-linecap:butt;stroke-linejoin:miter;stroke-miterlimit:10;stroke-dasharray:none;stroke-opacity:1"
       d="m 408.10248,860.00288 c 6.31056,0 12.60442,0 18.87577,0"
       id="path4295" />
    <path
       style="fill:none;stroke:#231f20;stroke-width:1.25;stroke-linecap:butt;stroke-linejoin:miter;stroke-miterlimit:10;stroke-dasharray:none;stroke-opacity:1"
       d="m 374.12512,860.00288 c 6.30017,0 12.59412,0 18.87618,0"
       id="path4293" />
    <path
       style="fill:none;stroke:#231f20;stroke-width:1.25;stroke-linecap:butt;stroke-linejoin:miter;stroke-miterlimit:10;stroke-dasharray:none;stroke-opacity:1"
       d="m 340.14768,860.00288 c 6.28974,0 12.58341,0 18.87539,0"
       id="path4291" />
    <path
       style="fill:none;stroke:#231f20;stroke-width:1.25;stroke-linecap:butt;stroke-linejoin:miter;stroke-miterlimit:10;stroke-dasharray:none;stroke-opacity:1"
       d="m 306.17104,860.00288 c 6.27982,0 12.57382,0 18.8763,0"
       id="path4289" />
    <path
       style="fill:none;stroke:#231f20;stroke-width:1.25;stroke-linecap:butt;stroke-linejoin:miter;stroke-miterlimit:10;stroke-dasharray:none;stroke-opacity:1"
       d="m 272.19343,860.00288 c 6.26898,0 12.56291,0 18.87595,0"
       id="path4287" />
    <path
       style="fill:none;stroke:#231f20;stroke-width:1.25;stroke-linecap:butt;stroke-linejoin:miter;stroke-miterlimit:10;stroke-dasharray:none;stroke-opacity:1"
       d="m 238.21524,860.00288 c 6.25748,0 12.55174,0 18.87663,0"
       id="path4285" />
    <path
       style="fill:none;stroke:#231f20;stroke-width:1.25;stroke-linecap:butt;stroke-linejoin:miter;stroke-miterlimit:10;stroke-dasharray:none;stroke-opacity:1"
       d="m 204.23766,860.00288 c 6.2439,0 12.53805,0 18.8759,0"
       id="path4283" />
    <path
       style="fill:none;stroke:#231f20;stroke-width:1.25;stroke-linecap:butt;stroke-linejoin:miter;stroke-miterlimit:10;stroke-dasharray:none;stroke-opacity:1"
       d="m 170.26054,860.00288 c 6.22795,0 12.52232,0 18.87587,0"
       id="path4281" />
    <path
       style="fill:none;stroke:#231f20;stroke-width:1.25;stroke-linecap:butt;stroke-linejoin:miter;stroke-miterlimit:10;stroke-dasharray:none;stroke-opacity:1"
       d="m 136.28206,860.00288 c 6.20836,0 12.50347,0 18.87712,0"
       id="path4279" />
    <path
       style="fill:none;stroke:#231f20;stroke-width:1.25;stroke-linecap:butt;stroke-linejoin:miter;stroke-miterlimit:10;stroke-dasharray:none;stroke-opacity:1"
       d="m 102.30456,860.00288 c 6.18127,0 12.47636,0 18.87563,0"
       id="path4277" />
    <path
       style="fill:none;stroke:#231f20;stroke-width:1.25;stroke-linecap:butt;stroke-linejoin:miter;stroke-miterlimit:10;stroke-dasharray:none;stroke-opacity:1"
       d="m 68.326042,860.00288 c 6.143363,0 12.439488,0 18.876388,0"
       id="path4275" />
    <path
       style="fill:none;stroke:#231f20;stroke-width:1.25;stroke-linecap:butt;stroke-linejoin:miter;stroke-miterlimit:10;stroke-dasharray:none;stroke-opacity:1"
       d="m 34.347555,860.00288 c 6.0829,0 12.380675,0 18.8772,0"
       id="path4273" />
    <path
       style="fill:none;stroke:#231f20;stroke-width:1.25;stroke-linecap:butt;stroke-linejoin:miter;stroke-miterlimit:10;stroke-dasharray:none;stroke-opacity:1"
       d="m 0.3690175,860.00288 c 5.9687875,0 12.2695005,0 18.8770375,0"
       id="path4271" />
    <path
       style="fill:none;stroke:#231f20;stroke-width:1.25;stroke-linecap:butt;stroke-linejoin:miter;stroke-miterlimit:10;stroke-dasharray:none;stroke-opacity:1"
       d="m -33.607932,860.00288 c 5.669874,0 11.979762,0 18.876199,0"
       id="path4269" />
    <path
       style="fill:none;stroke:#231f20;stroke-width:1.25;stroke-linecap:butt;stroke-linejoin:miter;stroke-miterlimit:10;stroke-dasharray:none;stroke-opacity:1"
       d="m -67.58612,860.00288 c 0,0 6.6897,0 18.87645,0"
       id="path4267" />
    <path
       style="fill:none;stroke:#231f20;stroke-width:1.25;stroke-linecap:butt;stroke-linejoin:miter;stroke-miterlimit:10;stroke-dasharray:none;stroke-opacity:1"
       d="m -92.06187,860.00288 9.375,0"
       id="path4265" />
    <path
       style="fill:none;stroke:#231f20;stroke-width:1.25;stroke-linecap:butt;stroke-linejoin:miter;stroke-miterlimit:10;stroke-dasharray:none;stroke-opacity:1"
       d="m 781.8315,248.82087 9.375,0"
       id="path4263" />
    <path
       style="fill:none;stroke:#231f20;stroke-width:1.25;stroke-linecap:butt;stroke-linejoin:miter;stroke-miterlimit:10;stroke-dasharray:none;stroke-opacity:1"
       d="M 774.28138,248.82087"
       id="path4261" />
    <path
       style="fill:none;stroke:#231f20;stroke-width:1.25;stroke-linecap:butt;stroke-linejoin:miter;stroke-miterlimit:10;stroke-dasharray:none;stroke-opacity:1"
       d="m 747.87314,248.82087 c 8.05021,0 14.41415,0 18.87599,0"
       id="path4259" />
    <path
       style="fill:none;stroke:#231f20;stroke-width:1.25;stroke-linecap:butt;stroke-linejoin:miter;stroke-miterlimit:10;stroke-dasharray:none;stroke-opacity:1"
       d="m 713.89549,248.82087 c 6.79832,0 13.10495,0 18.87676,0"
       id="path4257" />
    <path
       style="fill:none;stroke:#231f20;stroke-width:1.25;stroke-linecap:butt;stroke-linejoin:miter;stroke-miterlimit:10;stroke-dasharray:none;stroke-opacity:1"
       d="m 679.91969,248.82087 c 6.57464,0 12.8739,0 18.87544,0"
       id="path4255" />
    <path
       style="fill:none;stroke:#231f20;stroke-width:1.25;stroke-linecap:butt;stroke-linejoin:miter;stroke-miterlimit:10;stroke-dasharray:none;stroke-opacity:1"
       d="m 645.94314,248.82087 c 6.47991,0 12.77675,0 18.87554,0"
       id="path4253" />
    <path
       style="fill:none;stroke:#231f20;stroke-width:1.25;stroke-linecap:butt;stroke-linejoin:miter;stroke-miterlimit:10;stroke-dasharray:none;stroke-opacity:1"
       d="m 611.9676,248.82087 c 6.42678,0 12.72222,0 18.875,0"
       id="path4251" />
    <path
       style="fill:none;stroke:#231f20;stroke-width:1.25;stroke-linecap:butt;stroke-linejoin:miter;stroke-miterlimit:10;stroke-dasharray:none;stroke-opacity:1"
       d="m 577.98868,248.82087 c 6.3932,0 12.68861,0 18.877,0"
       id="path4249" />
    <path
       style="fill:none;stroke:#231f20;stroke-width:1.25;stroke-linecap:butt;stroke-linejoin:miter;stroke-miterlimit:10;stroke-dasharray:none;stroke-opacity:1"
       d="m 544.01039,248.82087 c 6.36876,0 12.66369,0 18.87686,0"
       id="path4247" />
    <path
       style="fill:none;stroke:#231f20;stroke-width:1.25;stroke-linecap:butt;stroke-linejoin:miter;stroke-miterlimit:10;stroke-dasharray:none;stroke-opacity:1"
       d="m 510.03433,248.82087 c 6.34967,0 12.64385,0 18.87549,0"
       id="path4245" />
    <path
       style="fill:none;stroke:#231f20;stroke-width:1.25;stroke-linecap:butt;stroke-linejoin:miter;stroke-miterlimit:10;stroke-dasharray:none;stroke-opacity:1"
       d="m 476.0575,248.82087 c 6.33493,0 12.62923,0 18.87643,0"
       id="path4243" />
    <path
       style="fill:none;stroke:#231f20;stroke-width:1.25;stroke-linecap:butt;stroke-linejoin:miter;stroke-miterlimit:10;stroke-dasharray:none;stroke-opacity:1"
       d="m 442.07989,248.82087 c 6.32186,0 12.61575,0 18.8756,0"
       id="path4241" />
    <path
       style="fill:none;stroke:#231f20;stroke-width:1.25;stroke-linecap:butt;stroke-linejoin:miter;stroke-miterlimit:10;stroke-dasharray:none;stroke-opacity:1"
       d="m 408.10248,248.82087 c 6.31056,0 12.60442,0 18.87577,0"
       id="path4239" />
    <path
       style="fill:none;stroke:#231f20;stroke-width:1.25;stroke-linecap:butt;stroke-linejoin:miter;stroke-miterlimit:10;stroke-dasharray:none;stroke-opacity:1"
       d="m 374.12512,248.82087 c 6.30017,0 12.59412,0 18.87618,0"
       id="path4237" />
    <path
       style="fill:none;stroke:#231f20;stroke-width:1.25;stroke-linecap:butt;stroke-linejoin:miter;stroke-miterlimit:10;stroke-dasharray:none;stroke-opacity:1"
       d="m 340.14768,248.82087 c 6.28974,0 12.58341,0 18.87539,0"
       id="path4235" />
    <path
       style="fill:none;stroke:#231f20;stroke-width:1.25;stroke-linecap:butt;stroke-linejoin:miter;stroke-miterlimit:10;stroke-dasharray:none;stroke-opacity:1"
       d="m 306.17104,248.82087 c 6.27982,0 12.57382,0 18.8763,0"
       id="path4233" />
    <path
       style="fill:none;stroke:#231f20;stroke-width:1.25;stroke-linecap:butt;stroke-linejoin:miter;stroke-miterlimit:10;stroke-dasharray:none;stroke-opacity:1"
       d="m 272.19343,248.82087 c 6.26898,0 12.56291,0 18.87595,0"
       id="path4231" />
    <path
       style="fill:none;stroke:#231f20;stroke-width:1.25;stroke-linecap:butt;stroke-linejoin:miter;stroke-miterlimit:10;stroke-dasharray:none;stroke-opacity:1"
       d="m 238.21524,248.82087 c 6.25748,0 12.55174,0 18.87663,0"
       id="path4229" />
    <path
       style="fill:none;stroke:#231f20;stroke-width:1.25;stroke-linecap:butt;stroke-linejoin:miter;stroke-miterlimit:10;stroke-dasharray:none;stroke-opacity:1"
       d="m 204.23766,248.82087 c 6.2439,0 12.53805,0 18.8759,0"
       id="path4227" />
    <path
       style="fill:none;stroke:#231f20;stroke-width:1.25;stroke-linecap:butt;stroke-linejoin:miter;stroke-miterlimit:10;stroke-dasharray:none;stroke-opacity:1"
       d="m 170.26054,248.82087 c 6.22795,0 12.52232,0 18.87587,0"
       id="path4225" />
    <path
       style="fill:none;stroke:#231f20;stroke-width:1.25;stroke-linecap:butt;stroke-linejoin:miter;stroke-miterlimit:10;stroke-dasharray:none;stroke-opacity:1"
       d="m 136.28206,248.82087 c 6.20836,0 12.50347,0 18.87712,0"
       id="path4223" />
    <path
       style="fill:none;stroke:#231f20;stroke-width:1.25;stroke-linecap:butt;stroke-linejoin:miter;stroke-miterlimit:10;stroke-dasharray:none;stroke-opacity:1"
       d="m 102.30456,248.82087 c 6.18127,0 12.47636,0 18.87563,0"
       id="path4221" />
    <path
       style="fill:none;stroke:#231f20;stroke-width:1.25;stroke-linecap:butt;stroke-linejoin:miter;stroke-miterlimit:10;stroke-dasharray:none;stroke-opacity:1"
       d="m 68.326042,248.82087 c 6.143363,0 12.439488,0 18.876388,0"
       id="path4219" />
    <path
       style="fill:none;stroke:#231f20;stroke-width:1.25;stroke-linecap:butt;stroke-linejoin:miter;stroke-miterlimit:10;stroke-dasharray:none;stroke-opacity:1"
       d="m 34.347555,248.82087 c 6.0829,0 12.380675,0 18.8772,0"
       id="path4217" />
    <path
       style="fill:none;stroke:#231f20;stroke-width:1.25;stroke-linecap:butt;stroke-linejoin:miter;stroke-miterlimit:10;stroke-dasharray:none;stroke-opacity:1"
       d="m 0.3690175,248.82087 c 5.9687875,0 12.2695005,0 18.8770375,0"
       id="path4215" />
    <path
       style="fill:none;stroke:#231f20;stroke-width:1.25;stroke-linecap:butt;stroke-linejoin:miter;stroke-miterlimit:10;stroke-dasharray:none;stroke-opacity:1"
       d="m -33.607932,248.82087 c 5.669874,0 11.979762,0 18.876199,0"
       id="path4213" />
    <path
       style="fill:none;stroke:#231f20;stroke-width:1.25;stroke-linecap:butt;stroke-linejoin:miter;stroke-miterlimit:10;stroke-dasharray:none;stroke-opacity:1"
       d="m -67.58612,248.82087 c 0,0 6.6897,0 18.87645,0"
       id="path4211" />
    <path
       style="fill:none;stroke:#231f20;stroke-width:1.25;stroke-linecap:butt;stroke-linejoin:miter;stroke-miterlimit:10;stroke-dasharray:none;stroke-opacity:1"
       d="m -92.06187,248.82087 9.375,0"
       id="path4209" />
    <path
       style="fill:none;stroke:#231f20;stroke-width:1.25;stroke-linecap:butt;stroke-linejoin:miter;stroke-miterlimit:10;stroke-dasharray:none;stroke-opacity:1"
       d="m 178.32863,167.70488 9.375,0"
       id="path4207" />
    <path
       style="fill:none;stroke:#231f20;stroke-width:1.25;stroke-linecap:butt;stroke-linejoin:miter;stroke-miterlimit:10;stroke-dasharray:none;stroke-opacity:1"
       d="M 170.53751,167.70488"
       id="path4205" />
    <path
       style="fill:none;stroke:#231f20;stroke-width:1.25;stroke-linecap:butt;stroke-linejoin:miter;stroke-miterlimit:10;stroke-dasharray:none;stroke-opacity:1"
       d="m 143.26489,167.70488 c 8.10437,0 14.76755,0 19.4788,0"
       id="path4203" />
    <path
       style="fill:none;stroke:#231f20;stroke-width:1.25;stroke-linecap:butt;stroke-linejoin:miter;stroke-miterlimit:10;stroke-dasharray:none;stroke-opacity:1"
       d="m 108.20276,167.70488 c 6.86375,0 13.39975,0 19.47892,0"
       id="path4201" />
    <path
       style="fill:none;stroke:#231f20;stroke-width:1.25;stroke-linecap:butt;stroke-linejoin:miter;stroke-miterlimit:10;stroke-dasharray:none;stroke-opacity:1"
       d="m 73.14058,167.70488 c 6.613088,0 13.1346,0 19.478912,0"
       id="path4199" />
    <path
       style="fill:none;stroke:#231f20;stroke-width:1.25;stroke-linecap:butt;stroke-linejoin:miter;stroke-miterlimit:10;stroke-dasharray:none;stroke-opacity:1"
       d="m 38.079943,167.70488 c 6.464074,0 12.9827,0 19.478,0"
       id="path4197" />
    <path
       style="fill:none;stroke:#231f20;stroke-width:1.25;stroke-linecap:butt;stroke-linejoin:miter;stroke-miterlimit:10;stroke-dasharray:none;stroke-opacity:1"
       d="m 3.018305,167.70488 c 6.302,0 12.825013,0 19.47835,0"
       id="path4195" />
    <path
       style="fill:none;stroke:#231f20;stroke-width:1.25;stroke-linecap:butt;stroke-linejoin:miter;stroke-miterlimit:10;stroke-dasharray:none;stroke-opacity:1"
       d="m -32.042232,167.70488 c 5.969675,0 12.5133,0 19.478537,0"
       id="path4193" />
    <path
       style="fill:none;stroke:#231f20;stroke-width:1.25;stroke-linecap:butt;stroke-linejoin:miter;stroke-miterlimit:10;stroke-dasharray:none;stroke-opacity:1"
       d="m -67.103745,167.70488 c 0,0 7.355637,0 19.478713,0"
       id="path4191" />
    <path
       style="fill:none;stroke:#231f20;stroke-width:1.25;stroke-linecap:butt;stroke-linejoin:miter;stroke-miterlimit:10;stroke-dasharray:none;stroke-opacity:1"
       d="m -92.06187,167.70488 9.375,0"
       id="path4189" />
    <path
       style="fill:none;stroke:#231f20;stroke-width:1.25;stroke-linecap:butt;stroke-linejoin:miter;stroke-miterlimit:10;stroke-dasharray:none;stroke-opacity:1"
       d="m 411.29241,1583.69 -40.725,0 c -4.53,-6.7662 -12.24125,-11.2237 -20.995,-11.2237 -8.755,0 -16.465,4.4575 -20.99499,11.2237 l -40.725,0 c -4.655,0 -8.42875,6.2813 -8.42875,14.03 0,7.7475 3.77375,14.0288 8.42875,14.0288 l 40.725,0 c 4.53,6.7675 12.23999,11.2237 20.99499,11.2237 8.75375,0 16.465,-4.4562 20.995,-11.2237 l 40.725,0 c 4.655,0 8.42875,-6.2813 8.42875,-14.0288 0,-7.7487 -3.77375,-14.03 -8.42875,-14.03 z"
       id="path4187" />
    <path
       style="fill:none;stroke:#231f20;stroke-width:1.25;stroke-linecap:butt;stroke-linejoin:miter;stroke-miterlimit:10;stroke-dasharray:none;stroke-opacity:1"
       d="m 745.82729,126.82412 c 0,4.4025 -3.56875,7.9725 -7.9725,7.9725 -4.4025,0 -7.9725,-3.57 -7.9725,-7.9725 0,-4.4025 3.57,-7.9725 7.9725,-7.9725 4.40375,0 7.9725,3.57 7.9725,7.9725 z"
       id="path4185" />
    <path
       style="fill:none;stroke:#231f20;stroke-width:1.25;stroke-linecap:butt;stroke-linejoin:miter;stroke-miterlimit:10;stroke-dasharray:none;stroke-opacity:1"
       d="m -30.73796,126.82412 c 0,4.4025 -3.57,7.9725 -7.9725,7.9725 -4.4025,0 -7.9725,-3.57 -7.9725,-7.9725 0,-4.4025 3.57,-7.9725 7.9725,-7.9725 4.4025,0 7.9725,3.57 7.9725,7.9725 z"
       id="path7000" />
  </g>
</svg>
