  0
SECTION
  2
HEADER
  9
$ACADVER
  1
AC1014
  9
$HANDSEED
  5
FFFF
  9
$MEASUREMENT
 70
     1
  0
ENDSEC
  0
SECTION
  2
TABLES
  0
TABLE
  2
VPORT
  5
8
330
0
100
AcDbSymbolTable
 70
     4
  0
VPORT
  5
2E
330
8
100
AcDbSymbolTableRecord
100
AcDbViewportTableRecord
  2
*ACTIVE
 70
     0
 10
0.0
 20
0.0
 11
1.0
 21
1.0
 12
210.0
 22
148.5
 13
0.0
 23
0.0
 14
10.0
 24
10.0
 15
10.0
 25
10.0
 16
0.0
 26
0.0
 36
1.0
 17
0.0
 27
0.0
 37
0.0
 40
341.0
 41
1.24
 42
50.0
 43
0.0
 44
0.0
 50
0.0
 51
0.0
 71
     0
 72
   100
 73
     1
 74
     3
 75
     0
 76
     0
 77
     0
 78
     0
  0
ENDTAB
  0
TABLE
  2
LTYPE
  5
5
330
0
100
AcDbSymbolTable
 70
     1
  0
LTYPE
  5
14
330
5
100
AcDbSymbolTableRecord
100
AcDbLinetypeTableRecord
  2
BYBLOCK
 70
     0
  3

 72
    65
 73
     0
 40
0.0
  0
LTYPE
  5
15
330
5
100
AcDbSymbolTableRecord
100
AcDbLinetypeTableRecord
  2
BYLAYER
 70
     0
  3

 72
    65
 73
     0
 40
0.0
  0
LTYPE
  5
16
330
5
100
AcDbSymbolTableRecord
100
AcDbLinetypeTableRecord
  2
CONTINUOUS
 70
     0
  3
Solid line
 72
    65
 73
     0
 40
0.0
  0
ENDTAB
  0
TABLE
  2
LAYER
  5
2
100
AcDbSymbolTable
 70
2
  0
LAYER
  5
50
100
AcDbSymbolTableRecord
100
AcDbLayerTableRecord
  2
0
 70
0
  6
CONTINUOUS
  0
LAYER
  5
51
100
AcDbSymbolTableRecord
100
AcDbLayerTableRecord
  2
Layer_1
 70
0
  6
CONTINUOUS
  0
ENDTAB
  0
TABLE
  2
STYLE
  5
3
330
0
100
AcDbSymbolTable
 70
     1
  0
STYLE
  5
11
330
3
100
AcDbSymbolTableRecord
100
AcDbTextStyleTableRecord
  2
STANDARD
 70
     0
 40
0.0
 41
1.0
 50
0.0
 71
     0
 42
2.5
  3
txt
  4

  0
ENDTAB
  0
TABLE
  2
VIEW
  5
6
330
0
100
AcDbSymbolTable
 70
     0
  0
ENDTAB
  0
TABLE
  2
UCS
  5
7
330
0
100
AcDbSymbolTable
 70
     0
  0
ENDTAB
  0
TABLE
  2
APPID
  5
9
330
0
100
AcDbSymbolTable
 70
     2
  0
APPID
  5
12
330
9
100
AcDbSymbolTableRecord
100
AcDbRegAppTableRecord
  2
ACAD
 70
     0
  0
ENDTAB
  0
TABLE
  2
DIMSTYLE
  5
A
330
0
100
AcDbSymbolTable
 70
     1
  0
DIMSTYLE
105
27
330
A
100
AcDbSymbolTableRecord
100
AcDbDimStyleTableRecord
  2
ISO-25
 70
     0
  3

  4

  5

  6

  7

 40
1.0
 41
2.5
 42
0.625
 43
3.75
 44
1.25
 45
0.0
 46
0.0
 47
0.0
 48
0.0
140
2.5
141
2.5
142
0.0
143
0.03937007874016
144
1.0
145
0.0
146
1.0
147
0.625
 71
     0
 72
     0
 73
     0
 74
     0
 75
     0
 76
     0
 77
     1
 78
     8
170
     0
171
     3
172
     1
173
     0
174
     0
175
     0
176
     0
177
     0
178
     0
270
     2
271
     2
272
     2
273
     2
274
     3
340
11
275
     0
280
     0
281
     0
282
     0
283
     0
284
     8
285
     0
286
     0
287
     3
288
     0
  0
ENDTAB
  0
TABLE
  2
BLOCK_RECORD
  5
1
330
0
100
AcDbSymbolTable
 70
     1
  0
BLOCK_RECORD
  5
1F
330
1
100
AcDbSymbolTableRecord
100
AcDbBlockTableRecord
  2
*MODEL_SPACE
  0
BLOCK_RECORD
  5
1B
330
1
100
AcDbSymbolTableRecord
100
AcDbBlockTableRecord
  2
*PAPER_SPACE
  0
ENDTAB
  0
ENDSEC
  0
SECTION
  2
BLOCKS
  0
BLOCK
  5
20
330
1F
100
AcDbEntity
  8
0
100
AcDbBlockBegin
  2
*MODEL_SPACE
 70
     0
 10
0.0
 20
0.0
 30
0.0
  3
*MODEL_SPACE
  1

  0
ENDBLK
  5
21
330
1F
100
AcDbEntity
  8
0
100
AcDbBlockEnd
  0
BLOCK
  5
1C
330
1B
100
AcDbEntity
 67
     1
  8
0
100
AcDbBlockBegin
  2
*PAPER_SPACE
  1

  0
ENDBLK
  5
1D
330
1B
100
AcDbEntity
 67
     1
  8
0
100
AcDbBlockEnd
  0
ENDSEC
  0
SECTION
  2
ENTITIES
  0
LWPOLYLINE
  5
100
100
AcDbEntity
  8
Layer_1
 62
1
100
AcDbPolyline
 90
34
 70
0
 10
113.560270
 20
52.043238
 30
0.0
 10
113.051636
 20
51.991944
 30
0.0
 10
112.577873
 20
51.844831
 30
0.0
 10
112.149135
 20
51.612055
 30
0.0
 10
111.775578
 20
51.303772
 30
0.0
 10
111.467357
 20
50.930137
 30
0.0
 10
111.234626
 20
50.501305
 30
0.0
 10
111.087540
 20
50.027432
 30
0.0
 10
111.036255
 20
49.518673
 30
0.0
 10
111.087540
 20
49.010063
 30
0.0
 10
111.234626
 20
48.536362
 30
0.0
 10
111.467357
 20
48.107712
 30
0.0
 10
111.775578
 20
47.734256
 30
0.0
 10
112.149135
 20
47.426136
 30
0.0
 10
112.577873
 20
47.193493
 30
0.0
 10
113.051636
 20
47.046470
 30
0.0
 10
113.560270
 20
46.995208
 30
0.0
 10
114.068904
 20
47.046470
 30
0.0
 10
114.542667
 20
47.193493
 30
0.0
 10
114.971405
 20
47.426136
 30
0.0
 10
115.344962
 20
47.734256
 30
0.0
 10
115.653183
 20
48.107712
 30
0.0
 10
115.885914
 20
48.536362
 30
0.0
 10
116.033000
 20
49.010063
 30
0.0
 10
116.084285
 20
49.518673
 30
0.0
 10
116.033000
 20
50.027432
 30
0.0
 10
115.885914
 20
50.501305
 30
0.0
 10
115.653183
 20
50.930137
 30
0.0
 10
115.344962
 20
51.303772
 30
0.0
 10
114.971405
 20
51.612055
 30
0.0
 10
114.542667
 20
51.844831
 30
0.0
 10
114.068904
 20
51.991944
 30
0.0
 10
113.560270
 20
52.043238
 30
0.0
 10
113.560270
 20
52.043238
 30
0.0
  0
LWPOLYLINE
  5
101
100
AcDbEntity
  8
Layer_1
 62
1
100
AcDbPolyline
 90
34
 70
0
 10
119.796718
 20
52.043238
 30
0.0
 10
119.288084
 20
51.991944
 30
0.0
 10
118.814321
 20
51.844831
 30
0.0
 10
118.385583
 20
51.612055
 30
0.0
 10
118.012026
 20
51.303772
 30
0.0
 10
117.703805
 20
50.930137
 30
0.0
 10
117.471074
 20
50.501305
 30
0.0
 10
117.323988
 20
50.027432
 30
0.0
 10
117.272703
 20
49.518673
 30
0.0
 10
117.323988
 20
49.010063
 30
0.0
 10
117.471074
 20
48.536362
 30
0.0
 10
117.703805
 20
48.107712
 30
0.0
 10
118.012026
 20
47.734256
 30
0.0
 10
118.385583
 20
47.426136
 30
0.0
 10
118.814321
 20
47.193493
 30
0.0
 10
119.288084
 20
47.046470
 30
0.0
 10
119.796718
 20
46.995208
 30
0.0
 10
120.305352
 20
47.046470
 30
0.0
 10
120.779115
 20
47.193493
 30
0.0
 10
121.207853
 20
47.426136
 30
0.0
 10
121.581410
 20
47.734256
 30
0.0
 10
121.889631
 20
48.107712
 30
0.0
 10
122.122362
 20
48.536362
 30
0.0
 10
122.269448
 20
49.010063
 30
0.0
 10
122.320733
 20
49.518673
 30
0.0
 10
122.269448
 20
50.027432
 30
0.0
 10
122.122362
 20
50.501305
 30
0.0
 10
121.889631
 20
50.930137
 30
0.0
 10
121.581410
 20
51.303772
 30
0.0
 10
121.207853
 20
51.612055
 30
0.0
 10
120.779115
 20
51.844831
 30
0.0
 10
120.305352
 20
51.991944
 30
0.0
 10
119.796718
 20
52.043238
 30
0.0
 10
119.796718
 20
52.043238
 30
0.0
  0
LWPOLYLINE
  5
102
100
AcDbEntity
  8
Layer_1
 62
1
100
AcDbPolyline
 90
35
 70
0
 10
124.049344
 20
51.854722
 30
0.0
 10
123.818559
 20
51.808087
 30
0.0
 10
123.630024
 20
51.680935
 30
0.0
 10
123.502873
 20
51.492401
 30
0.0
 10
123.456237
 20
51.261615
 30
0.0
 10
123.456237
 20
46.812204
 30
0.0
 10
123.458992
 20
46.812204
 30
0.0
 10
123.644609
 20
46.431326
 30
0.0
 10
124.041628
 20
46.275872
 30
0.0
 10
124.438371
 20
46.431326
 30
0.0
 10
124.623711
 20
46.812204
 30
0.0
 10
124.627019
 20
46.812204
 30
0.0
 10
124.627019
 20
49.615134
 30
0.0
 10
127.499951
 20
45.509131
 30
0.0
 10
127.711872
 20
45.299482
 30
0.0
 10
128.008724
 20
45.219743
 30
0.0
 10
128.228562
 20
45.261852
 30
0.0
 10
128.411057
 20
45.377325
 30
0.0
 10
128.599077
 20
45.763243
 30
0.0
 10
128.601831
 20
45.779779
 30
0.0
 10
128.601831
 20
46.275872
 30
0.0
 10
128.601831
 20
51.296893
 30
0.0
 10
128.600177
 20
51.310674
 30
0.0
 10
128.419396
 20
51.696469
 30
0.0
 10
128.239280
 20
51.812379
 30
0.0
 10
128.021402
 20
51.854722
 30
0.0
 10
127.803969
 20
51.812587
 30
0.0
 10
127.624065
 20
51.697162
 30
0.0
 10
127.442626
 20
51.312325
 30
0.0
 10
127.439318
 20
51.296893
 30
0.0
 10
127.439318
 20
47.459331
 30
0.0
 10
124.554810
 20
51.570846
 30
0.0
 10
124.343219
 20
51.776549
 30
0.0
 10
124.049344
 20
51.854722
 30
0.0
 10
124.049344
 20
51.854722
 30
0.0
  0
LWPOLYLINE
  5
103
100
AcDbEntity
  8
Layer_1
 62
1
100
AcDbPolyline
 90
93
 70
0
 10
132.889735
 20
51.854172
 30
0.0
 10
132.889735
 20
51.853619
 30
0.0
 10
132.867688
 20
51.851965
 30
0.0
 10
132.832410
 20
51.848107
 30
0.0
 10
132.816425
 20
51.845352
 30
0.0
 10
132.775633
 20
51.836533
 30
0.0
 10
132.766263
 20
51.833776
 30
0.0
 10
132.721062
 20
51.819995
 30
0.0
 10
132.718308
 20
51.818894
 30
0.0
 10
132.673107
 20
51.800152
 30
0.0
 10
132.391988
 20
51.517379
 30
0.0
 10
129.855846
 20
46.046016
 30
0.0
 10
129.855846
 20
46.045466
 30
0.0
 10
129.801743
 20
45.821538
 30
0.0
 10
129.836598
 20
45.601813
 30
0.0
 10
129.951357
 20
45.411127
 30
0.0
 10
130.136965
 20
45.274313
 30
0.0
 10
130.361128
 20
45.220025
 30
0.0
 10
130.581025
 20
45.254790
 30
0.0
 10
130.771817
 20
45.369459
 30
0.0
 10
130.908668
 20
45.554882
 30
0.0
 10
132.918951
 20
49.891844
 30
0.0
 10
134.548341
 20
46.375643
 30
0.0
 10
132.917847
 20
46.366824
 30
0.0
 10
132.692105
 20
46.321140
 30
0.0
 10
132.507787
 20
46.196585
 30
0.0
 10
132.383529
 20
46.011904
 30
0.0
 10
132.337968
 20
45.785841
 30
0.0
 10
132.383529
 20
45.559864
 30
0.0
 10
132.507787
 20
45.375373
 30
0.0
 10
132.692105
 20
45.251009
 30
0.0
 10
132.917847
 20
45.205411
 30
0.0
 10
132.917847
 20
45.204861
 30
0.0
 10
135.455643
 20
45.218642
 30
0.0
 10
135.455643
 20
45.219192
 30
0.0
 10
135.469974
 20
45.219743
 30
0.0
 10
135.488714
 20
45.221397
 30
0.0
 10
135.528403
 20
45.224704
 30
0.0
 10
135.542184
 20
45.226908
 30
0.0
 10
135.587382
 20
45.234627
 30
0.0
 10
135.594547
 20
45.236831
 30
0.0
 10
135.644709
 20
45.251162
 30
0.0
 10
135.648017
 20
45.252816
 30
0.0
 10
135.699830
 20
45.273213
 30
0.0
 10
135.700934
 20
45.274313
 30
0.0
 10
135.703138
 20
45.275417
 30
0.0
 10
135.749992
 20
45.300221
 30
0.0
 10
135.757158
 20
45.304632
 30
0.0
 10
135.796844
 20
45.331091
 30
0.0
 10
135.807868
 20
45.338807
 30
0.0
 10
135.839841
 20
45.365265
 30
0.0
 10
135.851965
 20
45.376842
 30
0.0
 10
135.879527
 20
45.404401
 30
0.0
 10
135.891654
 20
45.417631
 30
0.0
 10
135.916458
 20
45.447948
 30
0.0
 10
135.925828
 20
45.460625
 30
0.0
 10
135.948979
 20
45.495352
 30
0.0
 10
135.955594
 20
45.506376
 30
0.0
 10
135.976541
 20
45.544961
 30
0.0
 10
135.980952
 20
45.554882
 30
0.0
 10
135.998591
 20
45.596224
 30
0.0
 10
136.002449
 20
45.607248
 30
0.0
 10
136.015126
 20
45.648037
 30
0.0
 10
136.018984
 20
45.662922
 30
0.0
 10
136.027253
 20
45.700404
 30
0.0
 10
136.030561
 20
45.721901
 30
0.0
 10
136.034419
 20
45.753871
 30
0.0
 10
136.035519
 20
45.782536
 30
0.0
 10
136.036073
 20
45.800175
 30
0.0
 10
136.036073
 20
45.810095
 30
0.0
 10
136.034419
 20
45.842065
 30
0.0
 10
136.031661
 20
45.868524
 30
0.0
 10
136.027803
 20
45.897186
 30
0.0
 10
136.022292
 20
45.926402
 30
0.0
 10
136.015676
 20
45.950656
 30
0.0
 10
136.006307
 20
45.983176
 30
0.0
 10
135.998591
 20
46.004123
 30
0.0
 10
135.984810
 20
46.037197
 30
0.0
 10
135.982052
 20
46.045466
 30
0.0
 10
135.982052
 20
46.046016
 30
0.0
 10
133.445910
 20
51.517379
 30
0.0
 10
133.164792
 20
51.800152
 30
0.0
 10
133.119591
 20
51.818341
 30
0.0
 10
133.116836
 20
51.819995
 30
0.0
 10
133.071636
 20
51.833776
 30
0.0
 10
133.062266
 20
51.836533
 30
0.0
 10
133.021476
 20
51.845352
 30
0.0
 10
133.005491
 20
51.848660
 30
0.0
 10
132.970214
 20
51.852518
 30
0.0
 10
132.948164
 20
51.854172
 30
0.0
 10
132.918951
 20
51.854172
 30
0.0
 10
132.889735
 20
51.854172
 30
0.0
 10
132.889735
 20
51.854172
 30
0.0
  0
LWPOLYLINE
  5
104
100
AcDbEntity
  8
Layer_1
 62
1
100
AcDbPolyline
 90
22
 70
0
 10
115.503853
 20
46.380605
 30
0.0
 10
111.616685
 20
46.366824
 30
0.0
 10
111.616685
 20
46.366270
 30
0.0
 10
111.390708
 20
46.320673
 30
0.0
 10
111.206217
 20
46.196309
 30
0.0
 10
111.081852
 20
46.011818
 30
0.0
 10
111.036255
 20
45.785841
 30
0.0
 10
111.081852
 20
45.559778
 30
0.0
 10
111.206217
 20
45.375098
 30
0.0
 10
111.390708
 20
45.250544
 30
0.0
 10
111.616685
 20
45.204861
 30
0.0
 10
115.503853
 20
45.219192
 30
0.0
 10
115.729745
 20
45.264790
 30
0.0
 10
115.914047
 20
45.389154
 30
0.0
 10
116.038221
 20
45.573645
 30
0.0
 10
116.083732
 20
45.799622
 30
0.0
 10
116.038221
 20
46.025450
 30
0.0
 10
115.914047
 20
46.209957
 30
0.0
 10
115.729745
 20
46.334405
 30
0.0
 10
115.503853
 20
46.380051
 30
0.0
 10
115.503853
 20
46.380605
 30
0.0
 10
115.503853
 20
46.380605
 30
0.0
  0
SPLINE
  5
105
100
AcDbEntity
  8
Layer_1
 62
1
100
AcDbSpline
 70
8
 71
3
 72
8
 73
4
 74
0
 40
0
 40
0
 40
0
 40
0
 40
1
 40
1
 40
1
 40
1
 10
110.845151
 20
54.624129
 30
0.0
 10
109.277760
 20
54.624129
 30
0.0
 10
108.007494
 20
53.327739
 30
0.0
 10
108.007494
 20
51.728597
 30
0.0
  0
LWPOLYLINE
  5
106
100
AcDbEntity
  8
Layer_1
 62
1
100
AcDbPolyline
 90
22
 70
0
 10
121.740303
 20
46.380605
 30
0.0
 10
117.853133
 20
46.366824
 30
0.0
 10
117.853133
 20
46.366270
 30
0.0
 10
117.627156
 20
46.320673
 30
0.0
 10
117.442665
 20
46.196309
 30
0.0
 10
117.318300
 20
46.011818
 30
0.0
 10
117.272703
 20
45.785841
 30
0.0
 10
117.318300
 20
45.559778
 30
0.0
 10
117.442665
 20
45.375098
 30
0.0
 10
117.627156
 20
45.250544
 30
0.0
 10
117.853133
 20
45.204861
 30
0.0
 10
121.740303
 20
45.219192
 30
0.0
 10
121.966280
 20
45.264790
 30
0.0
 10
122.150771
 20
45.389154
 30
0.0
 10
122.275136
 20
45.573645
 30
0.0
 10
122.320733
 20
45.799622
 30
0.0
 10
122.275136
 20
46.025450
 30
0.0
 10
122.150771
 20
46.209957
 30
0.0
 10
121.966280
 20
46.334405
 30
0.0
 10
121.740303
 20
46.380051
 30
0.0
 10
121.740303
 20
46.380605
 30
0.0
 10
121.740303
 20
46.380605
 30
0.0
  0
SPLINE
  5
107
100
AcDbEntity
  8
Layer_1
 62
1
100
AcDbSpline
 70
8
 71
3
 72
8
 73
4
 74
0
 40
0
 40
0
 40
0
 40
0
 40
1
 40
1
 40
1
 40
1
 10
108.007494
 20
45.519708
 30
0.0
 10
108.007494
 20
43.920567
 30
0.0
 10
109.277760
 20
42.624173
 30
0.0
 10
110.845151
 20
42.624173
 30
0.0
  0
LWPOLYLINE
  5
108
100
AcDbEntity
  8
Layer_1
 62
1
100
AcDbPolyline
 90
2
 70
1
 10
108.007494
 20
51.728597
 30
0.0
 10
108.007494
 20
45.519708
 30
0.0
  0
SPLINE
  5
109
100
AcDbEntity
  8
Layer_1
 62
1
100
AcDbSpline
 70
8
 71
3
 72
8
 73
4
 74
0
 40
0
 40
0
 40
0
 40
0
 40
1
 40
1
 40
1
 40
1
 10
136.227512
 20
42.624173
 30
0.0
 10
137.794904
 20
42.624173
 30
0.0
 10
139.065169
 20
43.920567
 30
0.0
 10
139.065169
 20
45.519708
 30
0.0
  0
LWPOLYLINE
  5
10a
100
AcDbEntity
  8
Layer_1
 62
1
100
AcDbPolyline
 90
2
 70
1
 10
110.845151
 20
42.624173
 30
0.0
 10
136.227512
 20
42.624173
 30
0.0
  0
SPLINE
  5
10b
100
AcDbEntity
  8
Layer_1
 62
1
100
AcDbSpline
 70
8
 71
3
 72
8
 73
4
 74
0
 40
0
 40
0
 40
0
 40
0
 40
1
 40
1
 40
1
 40
1
 10
139.065169
 20
51.728597
 30
0.0
 10
139.065169
 20
53.327739
 30
0.0
 10
137.794904
 20
54.624129
 30
0.0
 10
136.227512
 20
54.624129
 30
0.0
  0
LWPOLYLINE
  5
10c
100
AcDbEntity
  8
Layer_1
 62
1
100
AcDbPolyline
 90
2
 70
1
 10
139.065169
 20
45.519708
 30
0.0
 10
139.065169
 20
51.728597
 30
0.0
  0
LWPOLYLINE
  5
10d
100
AcDbEntity
  8
Layer_1
 62
1
100
AcDbPolyline
 90
3
 70
1
 10
136.227512
 20
54.624129
 30
0.0
 10
110.845151
 20
54.624129
 30
0.0
 10
110.845151
 20
54.624129
 30
0.0
  0
ENDSEC
  0
SECTION
  2
OBJECTS
  0
DICTIONARY
  5
C
330
0
100
AcDbDictionary
  3
ACAD_GROUP
350
D
  3
ACAD_MLINESTYLE
350
17
  0
DICTIONARY
  5
D
330
C
100
AcDbDictionary
  0
DICTIONARY
  5
1A
330
C
100
AcDbDictionary
  0
DICTIONARY
  5
17
330
C
100
AcDbDictionary
  3
STANDARD
350
18
  0
DICTIONARY
  5
19
330
C
100
AcDbDictionary
  0
ENDSEC
  0
EOF
