<?xml version="1.0" encoding="UTF-8" standalone="no"?>
<!-- Created with Inkscape (http://www.inkscape.org/) -->

<svg
   xmlns:dc="http://purl.org/dc/elements/1.1/"
   xmlns:cc="http://creativecommons.org/ns#"
   xmlns:rdf="http://www.w3.org/1999/02/22-rdf-syntax-ns#"
   xmlns:svg="http://www.w3.org/2000/svg"
   xmlns="http://www.w3.org/2000/svg"
   xmlns:sodipodi="http://sodipodi.sourceforge.net/DTD/sodipodi-0.dtd"
   xmlns:inkscape="http://www.inkscape.org/namespaces/inkscape"
   sodipodi:docname="OONA_desk_organizer_packaging_v2.svg"
   viewBox="0 0 1771.65 2480.3125"
   height="2480.3125"
   width="1771.65"
   xml:space="preserve"
   inkscape:version="0.91 r13725"
   version="1.1"
   id="svg5149"><sodipodi:namedview
     inkscape:current-layer="g5157"
     inkscape:window-maximized="1"
     inkscape:window-y="-4"
     inkscape:window-x="-4"
     inkscape:cy="1159.9053"
     inkscape:cx="614.98391"
     inkscape:zoom="0.1902986"
     showgrid="false"
     id="namedview5151"
     inkscape:window-height="837"
     inkscape:window-width="1440"
     inkscape:pageshadow="2"
     inkscape:pageopacity="0"
     guidetolerance="10"
     gridtolerance="10"
     objecttolerance="10"
     borderopacity="1"
     bordercolor="#666666"
     pagecolor="#ffffff" /><metadata
     id="metadata5155"><rdf:RDF><cc:Work
         rdf:about=""><dc:format>image/svg+xml</dc:format><dc:type
           rdf:resource="http://purl.org/dc/dcmitype/StillImage" /><dc:title /></cc:Work></rdf:RDF></metadata><defs
     id="defs5153"><clipPath
       clipPathUnits="userSpaceOnUse"
       id="clipPath5243"><path
         d="m 0,1984.25 1417.32,0 L 1417.32,0 0,0 0,1984.25 Z"
         id="path5245"
         inkscape:connector-curvature="0" /></clipPath></defs><g
     id="g5157"
     inkscape:groupmode="layer"
     inkscape:label="OONA_desk_organizer_packaging_v2"
     transform="matrix(1.25,0,0,-1.25,0,2480.3125)"><g
       id="g5159"
       transform="translate(965.6454,538.5909)" /><g
       id="g5167"
       transform="translate(455.4219,538.5347)" /><g
       id="g5171"
       transform="translate(435.8612,1111.6652)" /><g
       id="g5179"
       transform="translate(435.8612,567.8736)" /><g
       id="g5183"
       transform="translate(978.444,1111.6652)" /><g
       id="g5191"
       transform="translate(978.444,567.8736)" /><g
       id="g5195"
       transform="translate(1062.4833,1111.6652)" /><g
       id="g5203"
       transform="translate(1062.4833,567.8736)" /><g
       id="g5207"
       transform="translate(967.6454,1131.6652)" /><g
       id="g5215"
       transform="translate(453.4219,1131.6089)" /><g
       id="g5219"
       transform="translate(967.6454,1218.7046)" /><g
       id="g5227"
       transform="translate(453.4219,1218.6483)" /><g
       id="g5231"
       transform="translate(435.8612,1718.7113)" /><g
       id="g5235"
       transform="translate(978.4439,1718.7113)" /><path
       d="M978.075 275.3541L978.075 218.9841L977.607740234 214.348668359L976.267609375 210.031271875L974.147080078 206.124383203L971.338625 202.720475L967.934716797 199.912019922L964.027828125 197.791490625L959.710431641 196.451359766L955.075 195.9841L458.492 195.9841L453.856855469 196.451359766L449.53959375 197.791490625L445.632722656 199.912019922L442.22875 202.720475L439.420183594 206.124383203L437.29953125 210.031271875L435.959300781 214.348668359L435.492 218.9841L435.492 275.3541M978.075 275.3541L978.075 546.6191M435.4923 275.3541L435.4923 546.6191M453.053 451.6461L445.553 451.6461M462.9889 451.6461M487.81776 451.6461L472.91255 451.6461M522.59517 451.6461L507.69114 451.6461M557.37112 451.6461L542.46763 451.6461M592.14618 451.6461L577.2425 451.6461M626.92142 451.6461L612.01807 451.6461M661.69879 451.6461L646.79426 451.6461M696.47428 451.6461L681.57023 451.6461M731.25083 451.6461L716.34704 451.6461M766.02539 451.6461L751.12208 451.6461M800.80182 451.6461L785.89716 451.6461M835.57947 451.6461L820.67439 451.6461M870.35409 451.6461L855.45059 451.6461M905.12875 451.6461L890.2256 451.6461M939.9049 451.6461L925.0015 451.6461M967.2765 451.5898L967.2765 451.6458L959.7765 451.6458M435.8612 546.619L224.4272 546.619L219.792055469 547.086259766L215.47479375 548.426390625L211.567922656 550.546919922L208.16395 553.355375L205.355383594 556.759283203L203.23473125 560.666171875L201.894500781 564.983568359L201.4272 569.619L201.4272 1099.179L201.894459766 1103.81443164L203.234590625 1108.13182812L205.355119922 1112.0387168L208.163575 1115.442625L211.567483203 1118.25108008L215.474371875 1120.37160937L219.791768359 1121.71174023L224.4272 1122.179L435.8612 1122.179M351.8218 567.8736L351.8218 560.3736M351.8218 577.7137M351.8218 602.32488L351.8218 587.56413M351.8218 636.76539L351.8218 622.00569M351.8218 671.20449L351.8218 656.44454M351.8218 705.64407L351.8218 690.88383M351.8218 740.08505L351.8218 725.32409M351.8218 774.5241L351.8218 759.76442M351.8218 808.9644L351.8218 794.204M351.8218 843.40468L351.8218 828.64417M351.8218 877.84372L351.8218 863.08432M351.8218 912.2835L351.8218 897.5238M351.8218 946.72273L351.8218 931.96353M351.8218 981.16414L351.8218 966.40362M351.8218 1015.6047L351.8218 1000.8446M351.8218 1050.0449L351.8218 1035.2851M351.8218 1084.4847L351.8218 1069.7245M351.8218 1111.6652L351.8218 1104.1652M978.4438 546.619L1192.8928 546.619L1197.52794453 547.086259766L1201.84520625 548.426390625L1205.75207734 550.546919922L1209.15605 553.355375L1211.96461641 556.759283203L1214.08526875 560.666171875L1215.42549922 564.983568359L1215.8928 569.619L1215.8928 1099.179L1215.42549922 1103.81443164L1214.08526875 1108.13182813L1211.96461641 1112.0387168L1209.15605 1115.442625L1205.75207734 1118.25108008L1201.84520625 1120.37160938L1197.52794453 1121.71174023L1192.8928 1122.179L978.4438 1122.179M786.6705 678.806L785.874425781 675.779349609L784.58778125 672.990671875L782.860933594 670.491001953L780.74425 668.331375L778.288097656 666.562826172L775.54284375 665.236390625L772.558855469 664.403103516L769.3865 664.114L766.2141875 664.403103516L763.2303125 665.236390625L760.48521875 666.562826172L758.02925 668.331375L755.91275 670.491001953L754.1860625 672.990671875L752.89953125 675.779349609L752.1035 678.806L760.4005 678.806L761.746203125 676.181578125L763.795875 674.111875L766.394359375 672.754484375L769.3865 672.267L772.37878125 672.754484375L774.9775 674.111875L777.02721875 676.181578125L778.3725 678.806L786.6705 678.806L786.6705 678.806M752.037 684.4775L752.783820312 687.576363281L754.0425625 690.43534375L755.760398437 693.001027344L757.8845 695.22L760.362039062 697.038847656L763.1401875 698.40415625L766.166117187 699.262511719L769.387 699.5605L772.607554687 699.262511719L775.63325 698.40415625L778.411257812 697.038847656L780.88875 695.22L783.012898437 693.001027344L784.730875 690.43534375L785.989851562 687.576363281L786.737 684.4775L778.493 684.4775L777.1995625 687.248390625L775.13625 689.443375L772.4748125 690.888171875L769.387 691.4085L766.298765625 690.888171875L763.637375 689.443375L761.574296875 687.248390625L760.281 684.4775L752.037 684.4775L752.037 684.4775M745.6714 678.806L744.875325781 675.779349609L743.58868125 672.990671875L741.861833594 670.491001953L739.74515 668.331375L737.288997656 666.562826172L734.54374375 665.236390625L731.559755469 664.403103516L728.3874 664.114L725.2150875 664.403103516L722.2312125 665.236390625L719.48611875 666.562826172L717.03015 668.331375L714.91365 670.491001953L713.1869625 672.990671875L711.90043125 675.779349609L711.1044 678.806L719.4014 678.806L720.747103125 676.181578125L722.796775 674.111875L725.395259375 672.754484375L728.3874 672.267L731.37968125 672.754484375L733.9784 674.111875L736.02811875 676.181578125L737.3734 678.806L745.6714 678.806L745.6714 678.806M711.038 684.4775L711.784820312 687.576363281L713.0435625 690.43534375L714.761398437 693.001027344L716.8855 695.22L719.363039062 697.038847656L722.1411875 698.40415625L725.167117187 699.262511719L728.388 699.5605L731.608554687 699.262511719L734.63425 698.40415625L737.412257812 697.038847656L739.88975 695.22L742.013898437 693.001027344L743.731875 690.43534375L744.990851562 687.576363281L745.738 684.4775L737.494 684.4775L736.2005625 687.248390625L734.13725 689.443375L731.4758125 690.888171875L728.388 691.4085L725.299765625 690.888171875L722.638375 689.443375L720.575296875 687.248390625L719.282 684.4775L711.038 684.4775L711.038 684.4775M705.3015 662.83L697.1715 662.83L697.1715 682.515L677.6175 651.823L677.1395 651.648L670.1255 651.648L669.6935 651.822625L669.5405 652.172L669.5405 697.715L669.6935 698.064375L670.1255 698.239L676.9795 698.239L677.438 698.064375L677.6175 697.715L677.6175 667.373L697.2245 698.064L697.7025 698.239L704.7705 698.239L705.3015 697.715L705.3015 662.83L705.3015 662.83M710.843 660.752L745.932 660.752L745.932 651.649L710.843 651.649L710.843 660.752L710.843 660.752M751.842 660.752L786.931 660.752L786.931 651.649L751.842 651.649L751.842 660.752L751.842 660.752M655.0976 651.6481L654.5206 651.9981L645.5276 677.9721L636.4186 651.9981L635.8996 651.6481L627.9446 651.6481L627.4686 651.866725L627.4246 652.3471L644.9506 697.8901L645.52785 698.23885L646.1036 697.8901L663.5726 652.3471L663.5436 651.866725L662.9956 651.6481L655.0976 651.6481L655.0976 651.6481M778.0187 866.4381L777.652824512 859.192497949L776.578946094 852.156189844L774.832686816 845.364797754L772.44966875 838.85394375L769.465513965 832.659249902L765.915844531 826.816338281L761.83628252 821.360830957L757.26245 816.32835L752.229969043 811.75451748L746.774461719 807.674955469L740.931550098 804.125286035L734.73685625 801.14113125L728.226002246 798.758113184L721.434610156 797.011853906L714.398302051 795.937975488L707.1527 795.5721L699.907097949 795.937975488L692.870789844 797.011853906L686.079397754 798.758113184L679.56854375 801.14113125L673.373849902 804.125286035L667.530938281 807.674955469L662.075430957 811.75451748L657.04295 816.32835L652.46911748 821.360830957L648.389555469 826.816338281L644.839886035 832.659249902L641.85573125 838.85394375L639.472713184 845.364797754L637.726453906 852.156189844L636.652575488 859.192497949L636.2867 866.4381L636.652575488 873.683702051L637.726453906 880.720010156L639.472713184 887.511402246L641.85573125 894.02225625L644.839886035 900.216950098L648.389555469 906.059861719L652.46911748 911.515369043L657.04295 916.54785L662.075430957 921.12168252L667.530938281 925.201244531L673.373849902 928.750913965L679.56854375 931.73506875L686.079397754 934.118086816L692.870789844 935.864346094L699.907097949 936.938224512L707.1527 937.3041L714.398302051 936.938224512L721.434610156 935.864346094L728.226002246 934.118086816L734.73685625 931.73506875L740.931550098 928.750913965L746.774461719 925.201244531L752.229969043 921.12168252L757.26245 916.54785L761.83628252 911.515369043L765.915844531 906.059861719L769.465513965 900.216950098L772.44966875 894.02225625L774.832686816 887.511402246L776.578946094 880.720010156L777.652824512 873.683702051L778.0187 866.4381L778.0187 866.4381M756.5287 1102.2711L723.9487 1102.2711L720.779825 1105.95767813L716.81745 1108.790475L714.588739062 1109.83634414L712.2217 1110.60833438L709.736348437 1111.08630117L707.1527 1111.2501L704.568723437 1111.08630117L702.0831375 1110.60833438L699.715957812 1109.83634414L697.4872 1108.790475L693.5250125 1105.95767813L690.3567 1102.2711L657.7767 1102.2711L656.417766406 1102.04307461L655.15204375 1101.38908438L654.006649219 1100.3542582L653.0087 1098.983725L651.56360625 1095.41605313L651.0337 1091.0471L651.56360625 1086.678725L653.0087 1083.11135L654.006649219 1081.74088906L655.15204375 1080.7061L656.417766406 1080.05212344L657.7767 1079.8241L690.3567 1079.8241L693.5250125 1076.13752188L697.4872 1073.304725L699.715957812 1072.25885586L702.0831375 1071.48686563L704.568723437 1071.00889883L707.1527 1070.8451L709.736348437 1071.00889883L712.2217 1071.48686563L714.588739062 1072.25885586L716.81745 1073.304725L720.779825 1076.13752188L723.9487 1079.8241L756.5287 1079.8241L757.887633594 1080.05212344L759.15335625 1080.7061L760.298750781 1081.74088906L761.2967 1083.11135L762.74179375 1086.678725L763.2717 1091.0471L762.74179375 1095.41605313L761.2967 1098.983725L760.298750781 1100.3542582L759.15335625 1101.38908438L757.887633594 1102.04307461L756.5287 1102.2711L756.5287 1102.2711M836.7665 1131.1793L836.7665 1074.8093L836.299240234 1070.17386836L834.959109375 1065.85647188L832.838580078 1061.9495832L830.030125 1058.545675L826.626216797 1055.73721992L822.719328125 1053.61669063L818.401931641 1052.27655977L813.7665 1051.8093L600.5385 1051.8093L595.903068359 1052.27655977L591.585671875 1053.61669063L587.678783203 1055.73721992L584.274875 1058.545675L581.466419922 1061.9495832L579.345890625 1065.85647188L578.005759766 1070.17386836L577.5385 1074.8093L577.5385 1131.1793M435.8612 1126.6652L435.8612 1122.6372M978.4438 1718.7113L978.4438 1775.0813L977.976540234 1779.71673164L976.636409375 1784.03412813L974.515880078 1787.9410168L971.707425 1791.344925L968.303516797 1794.15338008L964.396628125 1796.27390938L960.079231641 1797.61404023L955.4438 1798.0813L458.8608 1798.0813L454.225655469 1797.61404023L449.90839375 1796.27390938L446.001522656 1794.15338008L442.59755 1791.344925L439.788983594 1787.9410168L437.66833125 1784.03412813L436.328100781 1779.71673164L435.8608 1775.0813L435.8608 1718.7113M978.4439 1718.7113L978.4439 1122.6373M435.8612 1718.7113L435.8612 1122.6373M453.4219 1218.6483L445.9219 1218.6483M463.3578 1218.6483M488.18666 1218.6483L473.28145 1218.6483M522.96407 1218.6483L508.06004 1218.6483M557.74002 1218.6483L542.83653 1218.6483M592.51508 1218.6483L577.6114 1218.6483M627.29032 1218.6483L612.38697 1218.6483M662.06769 1218.6483L647.16316 1218.6483M696.84318 1218.6483L681.93913 1218.6483M731.61973 1218.6483L716.71594 1218.6483M766.39429 1218.6483L751.49098 1218.6483M801.17072 1218.6483L786.26606 1218.6483M835.94837 1218.6483L821.04329 1218.6483M870.72299 1218.6483L855.81949 1218.6483M905.49765 1218.6483L890.5945 1218.6483M940.2738 1218.6483L925.3704 1218.6483M967.6454 1218.7043L967.6454 1218.6483L960.1454 1218.6483M453.4219 1131.6086L445.9219 1131.6086M463.3578 1131.6086M488.18666 1131.6086L473.28145 1131.6086M522.96407 1131.6086L508.06004 1131.6086M557.74002 1131.6086L542.83653 1131.6086M592.51508 1131.6086L577.6114 1131.6086M627.29032 1131.6086L612.38697 1131.6086M662.06769 1131.6086L647.16316 1131.6086M696.84318 1131.6086L681.93913 1131.6086M731.61973 1131.6086L716.71594 1131.6086M766.39429 1131.6086L751.49098 1131.6086M801.17072 1131.6086L786.26606 1131.6086M835.94837 1131.6086L821.04329 1131.6086M870.72299 1131.6086L855.81949 1131.6086M905.49765 1131.6086L890.5945 1131.6086M940.2738 1131.6086L925.3704 1131.6086M967.6454 1131.6646L967.6454 1131.6086L960.1454 1131.6086M1062.4833 567.873L1062.4833 560.373M1062.4833 577.7131M1062.4833 602.32428L1062.4833 587.56353M1062.4833 636.76479L1062.4833 622.00509M1062.4833 671.20389L1062.4833 656.44394M1062.4833 705.64347L1062.4833 690.88323M1062.4833 740.08445L1062.4833 725.32349M1062.4833 774.5235L1062.4833 759.76382M1062.4833 808.9638L1062.4833 794.2034M1062.4833 843.40408L1062.4833 828.64357M1062.4833 877.84312L1062.4833 863.08372M1062.4833 912.2829L1062.4833 897.5232M1062.4833 946.72213L1062.4833 931.96293M1062.4833 981.16354L1062.4833 966.40302M1062.4833 1015.6041L1062.4833 1000.844M1062.4833 1050.0443L1062.4833 1035.2845M1062.4833 1084.4841L1062.4833 1069.7239M1062.4833 1111.6646L1062.4833 1104.1646M978.444 567.873L978.444 560.373M978.444 577.7131M978.444 602.32428L978.444 587.56353M978.444 636.76479L978.444 622.00509M978.444 671.20389L978.444 656.44394M978.444 705.64347L978.444 690.88323M978.444 740.08445L978.444 725.32349M978.444 774.5235L978.444 759.76382M978.444 808.9638L978.444 794.2034M978.444 843.40408L978.444 828.64357M978.444 877.84312L978.444 863.08372M978.444 912.2829L978.444 897.5232M978.444 946.72213L978.444 931.96293M978.444 981.16354L978.444 966.40302M978.444 1015.6041L978.444 1000.844M978.444 1050.0443L978.444 1035.2845M978.444 1084.4841L978.444 1069.7239M978.444 1111.6646L978.444 1104.1646M435.8612 567.873L435.8612 560.373M435.8612 577.7131M435.8612 602.32428L435.8612 587.56353M435.8612 636.76479L435.8612 622.00509M435.8612 671.20389L435.8612 656.44394M435.8612 705.64347L435.8612 690.88323M435.8612 740.08445L435.8612 725.32349M435.8612 774.5235L435.8612 759.76382M435.8612 808.9638L435.8612 794.2034M435.8612 843.40408L435.8612 828.64357M435.8612 877.84312L435.8612 863.08372M435.8612 912.2829L435.8612 897.5232M435.8612 946.72213L435.8612 931.96293M435.8612 981.16354L435.8612 966.40302M435.8612 1015.6041L435.8612 1000.844M435.8612 1050.0443L435.8612 1035.2845M435.8612 1084.4841L435.8612 1069.7239M435.8612 1111.6646L435.8612 1104.1646M455.4219 538.5341L447.9219 538.5341M465.2788 538.5341M489.91821 538.5341L475.13243 538.5341M524.41874 538.5341L509.63283 538.5341M558.91944 538.5341L544.13309 538.5341M593.42111 538.5341L578.63461 538.5341M627.92287 538.5341L613.13674 538.5341M662.42286 538.5341L647.63699 538.5341M696.9242 538.5341L682.13765 538.5341M731.42653 538.5341L716.64025 538.5341M765.92682 538.5341L751.14106 538.5341M800.42723 538.5341L785.64182 538.5341M834.92874 538.5341L820.14296 538.5341M869.42891 538.5341L854.64303 538.5341M903.92912 538.5341L889.14358 538.5341M938.4308 538.5341L923.64503 538.5341M965.6454 538.5903L965.6454 538.5343L958.1454 538.5343"
       style="fill:none;stroke:#231f20;stroke-width:1;stroke-linecap:butt;stroke-linejoin:miter;stroke-miterlimit:10;stroke-dasharray:none;stroke-opacity:1"
       id="path5337" /></g></svg>