  0
SECTION
  2
HEADER
  9
$ACADVER
  1
AC1014
  9
$HANDSEED
  5
FFFF
  9
$MEASUREMENT
 70
     1
  0
ENDSEC
  0
SECTION
  2
TABLES
  0
TABLE
  2
VPORT
  5
8
330
0
100
AcDbSymbolTable
 70
     4
  0
VPORT
  5
2E
330
8
100
AcDbSymbolTableRecord
100
AcDbViewportTableRecord
  2
*ACTIVE
 70
     0
 10
0.0
 20
0.0
 11
1.0
 21
1.0
 12
210.0
 22
148.5
 13
0.0
 23
0.0
 14
10.0
 24
10.0
 15
10.0
 25
10.0
 16
0.0
 26
0.0
 36
1.0
 17
0.0
 27
0.0
 37
0.0
 40
341.0
 41
1.24
 42
50.0
 43
0.0
 44
0.0
 50
0.0
 51
0.0
 71
     0
 72
   100
 73
     1
 74
     3
 75
     0
 76
     0
 77
     0
 78
     0
  0
ENDTAB
  0
TABLE
  2
LTYPE
  5
5
330
0
100
AcDbSymbolTable
 70
     1
  0
LTYPE
  5
14
330
5
100
AcDbSymbolTableRecord
100
AcDbLinetypeTableRecord
  2
BYBLOCK
 70
     0
  3

 72
    65
 73
     0
 40
0.0
  0
LTYPE
  5
15
330
5
100
AcDbSymbolTableRecord
100
AcDbLinetypeTableRecord
  2
BYLAYER
 70
     0
  3

 72
    65
 73
     0
 40
0.0
  0
LTYPE
  5
16
330
5
100
AcDbSymbolTableRecord
100
AcDbLinetypeTableRecord
  2
CONTINUOUS
 70
     0
  3
Solid line
 72
    65
 73
     0
 40
0.0
  0
ENDTAB
  0
TABLE
  2
LAYER
  5
2
100
AcDbSymbolTable
 70
2
  0
LAYER
  5
50
100
AcDbSymbolTableRecord
100
AcDbLayerTableRecord
  2
0
 70
0
  6
CONTINUOUS
  0
LAYER
  5
51
100
AcDbSymbolTableRecord
100
AcDbLayerTableRecord
  2
OONA_desk_organizer_packaging_v2
 70
0
  6
CONTINUOUS
  0
ENDTAB
  0
TABLE
  2
STYLE
  5
3
330
0
100
AcDbSymbolTable
 70
     1
  0
STYLE
  5
11
330
3
100
AcDbSymbolTableRecord
100
AcDbTextStyleTableRecord
  2
STANDARD
 70
     0
 40
0.0
 41
1.0
 50
0.0
 71
     0
 42
2.5
  3
txt
  4

  0
ENDTAB
  0
TABLE
  2
VIEW
  5
6
330
0
100
AcDbSymbolTable
 70
     0
  0
ENDTAB
  0
TABLE
  2
UCS
  5
7
330
0
100
AcDbSymbolTable
 70
     0
  0
ENDTAB
  0
TABLE
  2
APPID
  5
9
330
0
100
AcDbSymbolTable
 70
     2
  0
APPID
  5
12
330
9
100
AcDbSymbolTableRecord
100
AcDbRegAppTableRecord
  2
ACAD
 70
     0
  0
ENDTAB
  0
TABLE
  2
DIMSTYLE
  5
A
330
0
100
AcDbSymbolTable
 70
     1
  0
DIMSTYLE
105
27
330
A
100
AcDbSymbolTableRecord
100
AcDbDimStyleTableRecord
  2
ISO-25
 70
     0
  3

  4

  5

  6

  7

 40
1.0
 41
2.5
 42
0.625
 43
3.75
 44
1.25
 45
0.0
 46
0.0
 47
0.0
 48
0.0
140
2.5
141
2.5
142
0.0
143
0.03937007874016
144
1.0
145
0.0
146
1.0
147
0.625
 71
     0
 72
     0
 73
     0
 74
     0
 75
     0
 76
     0
 77
     1
 78
     8
170
     0
171
     3
172
     1
173
     0
174
     0
175
     0
176
     0
177
     0
178
     0
270
     2
271
     2
272
     2
273
     2
274
     3
340
11
275
     0
280
     0
281
     0
282
     0
283
     0
284
     8
285
     0
286
     0
287
     3
288
     0
  0
ENDTAB
  0
TABLE
  2
BLOCK_RECORD
  5
1
330
0
100
AcDbSymbolTable
 70
     1
  0
BLOCK_RECORD
  5
1F
330
1
100
AcDbSymbolTableRecord
100
AcDbBlockTableRecord
  2
*MODEL_SPACE
  0
BLOCK_RECORD
  5
1B
330
1
100
AcDbSymbolTableRecord
100
AcDbBlockTableRecord
  2
*PAPER_SPACE
  0
ENDTAB
  0
ENDSEC
  0
SECTION
  2
BLOCKS
  0
BLOCK
  5
20
330
1F
100
AcDbEntity
  8
0
100
AcDbBlockBegin
  2
*MODEL_SPACE
 70
     0
 10
0.0
 20
0.0
 30
0.0
  3
*MODEL_SPACE
  1

  0
ENDBLK
  5
21
330
1F
100
AcDbEntity
  8
0
100
AcDbBlockEnd
  0
BLOCK
  5
1C
330
1B
100
AcDbEntity
 67
     1
  8
0
100
AcDbBlockBegin
  2
*PAPER_SPACE
  1

  0
ENDBLK
  5
1D
330
1B
100
AcDbEntity
 67
     1
  8
0
100
AcDbBlockEnd
  0
ENDSEC
  0
SECTION
  2
ENTITIES
  0
LWPOLYLINE
  5
100
100
AcDbEntity
  8
OONA_desk_organizer_packaging_v2
 62
1
100
AcDbPolyline
 90
3
 70
0
 10
340.658238
 20
190.002689
 30
0.0
 10
340.658238
 20
189.982934
 30
0.0
 10
338.012405
 20
189.982934
 30
0.0
  0
LWPOLYLINE
  5
101
100
AcDbEntity
  8
OONA_desk_organizer_packaging_v2
 62
1
100
AcDbPolyline
 90
2
 70
0
 10
331.057532
 20
189.982863
 30
0.0
 10
325.841441
 20
189.982863
 30
0.0
  0
LWPOLYLINE
  5
102
100
AcDbEntity
  8
OONA_desk_organizer_packaging_v2
 62
1
100
AcDbPolyline
 90
2
 70
0
 10
318.886106
 20
189.982863
 30
0.0
 10
313.670096
 20
189.982863
 30
0.0
  0
LWPOLYLINE
  5
103
100
AcDbEntity
  8
OONA_desk_organizer_packaging_v2
 62
1
100
AcDbPolyline
 90
2
 70
0
 10
306.715199
 20
189.982863
 30
0.0
 10
301.499069
 20
189.982863
 30
0.0
  0
LWPOLYLINE
  5
104
100
AcDbEntity
  8
OONA_desk_organizer_packaging_v2
 62
1
100
AcDbPolyline
 90
2
 70
0
 10
294.544306
 20
189.982863
 30
0.0
 10
289.328211
 20
189.982863
 30
0.0
  0
LWPOLYLINE
  5
105
100
AcDbEntity
  8
OONA_desk_organizer_packaging_v2
 62
1
100
AcDbPolyline
 90
2
 70
0
 10
282.372939
 20
189.982863
 30
0.0
 10
277.156975
 20
189.982863
 30
0.0
  0
LWPOLYLINE
  5
106
100
AcDbEntity
  8
OONA_desk_organizer_packaging_v2
 62
1
100
AcDbPolyline
 90
2
 70
0
 10
270.201961
 20
189.982863
 30
0.0
 10
264.985874
 20
189.982863
 30
0.0
  0
LWPOLYLINE
  5
107
100
AcDbEntity
  8
OONA_desk_organizer_packaging_v2
 62
1
100
AcDbPolyline
 90
2
 70
0
 10
258.031026
 20
189.982863
 30
0.0
 10
252.814755
 20
189.982863
 30
0.0
  0
LWPOLYLINE
  5
108
100
AcDbEntity
  8
OONA_desk_organizer_packaging_v2
 62
1
100
AcDbPolyline
 90
2
 70
0
 10
245.859371
 20
189.982863
 30
0.0
 10
240.643004
 20
189.982863
 30
0.0
  0
LWPOLYLINE
  5
109
100
AcDbEntity
  8
OONA_desk_organizer_packaging_v2
 62
1
100
AcDbPolyline
 90
2
 70
0
 10
233.688065
 20
189.982863
 30
0.0
 10
228.471938
 20
189.982863
 30
0.0
  0
LWPOLYLINE
  5
10a
100
AcDbEntity
  8
OONA_desk_organizer_packaging_v2
 62
1
100
AcDbPolyline
 90
2
 70
0
 10
221.517235
 20
189.982863
 30
0.0
 10
216.301017
 20
189.982863
 30
0.0
  0
LWPOLYLINE
  5
10b
100
AcDbEntity
  8
OONA_desk_organizer_packaging_v2
 62
1
100
AcDbPolyline
 90
2
 70
0
 10
209.345780
 20
189.982863
 30
0.0
 10
204.129432
 20
189.982863
 30
0.0
  0
LWPOLYLINE
  5
10c
100
AcDbEntity
  8
OONA_desk_organizer_packaging_v2
 62
1
100
AcDbPolyline
 90
2
 70
0
 10
197.174358
 20
189.982863
 30
0.0
 10
191.958062
 20
189.982863
 30
0.0
  0
LWPOLYLINE
  5
10d
100
AcDbEntity
  8
OONA_desk_organizer_packaging_v2
 62
1
100
AcDbPolyline
 90
2
 70
0
 10
185.003278
 20
189.982863
 30
0.0
 10
179.787137
 20
189.982863
 30
0.0
  0
LWPOLYLINE
  5
10e
100
AcDbEntity
  8
OONA_desk_organizer_packaging_v2
 62
1
100
AcDbPolyline
 90
2
 70
0
 10
172.832257
 20
189.982863
 30
0.0
 10
167.616163
 20
189.982863
 30
0.0
  0
LWPOLYLINE
  5
10f
100
AcDbEntity
  8
OONA_desk_organizer_packaging_v2
 62
1
100
AcDbPolyline
 90
2
 70
0
 10
160.662726
 20
189.982863
 30
0.0
 10
158.016892
 20
189.982863
 30
0.0
  0
LWPOLYLINE
  5
110
100
AcDbEntity
  8
OONA_desk_organizer_packaging_v2
 62
1
100
AcDbPolyline
 90
2
 70
0
 10
153.762146
 20
392.170567
 30
0.0
 10
153.762146
 20
389.524734
 30
0.0
  0
LWPOLYLINE
  5
111
100
AcDbEntity
  8
OONA_desk_organizer_packaging_v2
 62
1
100
AcDbPolyline
 90
2
 70
0
 10
153.762146
 20
382.581891
 30
0.0
 10
153.762146
 20
377.374820
 30
0.0
  0
LWPOLYLINE
  5
112
100
AcDbEntity
  8
OONA_desk_organizer_packaging_v2
 62
1
100
AcDbPolyline
 90
2
 70
0
 10
153.762146
 20
370.432295
 30
0.0
 10
153.762146
 20
365.225365
 30
0.0
  0
LWPOLYLINE
  5
113
100
AcDbEntity
  8
OONA_desk_organizer_packaging_v2
 62
1
100
AcDbPolyline
 90
2
 70
0
 10
153.762146
 20
358.282558
 30
0.0
 10
153.762146
 20
353.075522
 30
0.0
  0
LWPOLYLINE
  5
114
100
AcDbEntity
  8
OONA_desk_organizer_packaging_v2
 62
1
100
AcDbPolyline
 90
2
 70
0
 10
153.762146
 20
346.132693
 30
0.0
 10
153.762146
 20
340.925510
 30
0.0
  0
LWPOLYLINE
  5
115
100
AcDbEntity
  8
OONA_desk_organizer_packaging_v2
 62
1
100
AcDbPolyline
 90
2
 70
0
 10
153.762146
 20
333.982529
 30
0.0
 10
153.762146
 20
328.775811
 30
0.0
  0
LWPOLYLINE
  5
116
100
AcDbEntity
  8
OONA_desk_organizer_packaging_v2
 62
1
100
AcDbPolyline
 90
2
 70
0
 10
153.762146
 20
321.833134
 30
0.0
 10
153.762146
 20
316.626240
 30
0.0
  0
LWPOLYLINE
  5
117
100
AcDbEntity
  8
OONA_desk_organizer_packaging_v2
 62
1
100
AcDbPolyline
 90
2
 70
0
 10
153.762146
 20
309.683545
 30
0.0
 10
153.762146
 20
304.476757
 30
0.0
  0
LWPOLYLINE
  5
118
100
AcDbEntity
  8
OONA_desk_organizer_packaging_v2
 62
1
100
AcDbPolyline
 90
2
 70
0
 10
153.762146
 20
297.534217
 30
0.0
 10
153.762146
 20
292.327037
 30
0.0
  0
LWPOLYLINE
  5
119
100
AcDbEntity
  8
OONA_desk_organizer_packaging_v2
 62
1
100
AcDbPolyline
 90
2
 70
0
 10
153.762146
 20
285.384452
 30
0.0
 10
153.762146
 20
280.177311
 30
0.0
  0
LWPOLYLINE
  5
11a
100
AcDbEntity
  8
OONA_desk_organizer_packaging_v2
 62
1
100
AcDbPolyline
 90
2
 70
0
 10
153.762146
 20
273.234679
 30
0.0
 10
153.762146
 20
268.027792
 30
0.0
  0
LWPOLYLINE
  5
11b
100
AcDbEntity
  8
OONA_desk_organizer_packaging_v2
 62
1
100
AcDbPolyline
 90
2
 70
0
 10
153.762146
 20
261.085348
 30
0.0
 10
153.762146
 20
255.878009
 30
0.0
  0
LWPOLYLINE
  5
11c
100
AcDbEntity
  8
OONA_desk_organizer_packaging_v2
 62
1
100
AcDbPolyline
 90
2
 70
0
 10
153.762146
 20
248.935335
 30
0.0
 10
153.762146
 20
243.728251
 30
0.0
  0
LWPOLYLINE
  5
11d
100
AcDbEntity
  8
OONA_desk_organizer_packaging_v2
 62
1
100
AcDbPolyline
 90
2
 70
0
 10
153.762146
 20
236.785817
 30
0.0
 10
153.762146
 20
231.578834
 30
0.0
  0
LWPOLYLINE
  5
11e
100
AcDbEntity
  8
OONA_desk_organizer_packaging_v2
 62
1
100
AcDbPolyline
 90
2
 70
0
 10
153.762146
 20
224.636468
 30
0.0
 10
153.762146
 20
219.429573
 30
0.0
  0
LWPOLYLINE
  5
11f
100
AcDbEntity
  8
OONA_desk_organizer_packaging_v2
 62
1
100
AcDbPolyline
 90
2
 70
0
 10
153.762146
 20
212.486621
 30
0.0
 10
153.762146
 20
207.279356
 30
0.0
  0
LWPOLYLINE
  5
120
100
AcDbEntity
  8
OONA_desk_organizer_packaging_v2
 62
1
100
AcDbPolyline
 90
2
 70
0
 10
153.762146
 20
200.332975
 30
0.0
 10
153.762146
 20
197.687142
 30
0.0
  0
LWPOLYLINE
  5
121
100
AcDbEntity
  8
OONA_desk_organizer_packaging_v2
 62
1
100
AcDbPolyline
 90
2
 70
0
 10
345.173300
 20
392.170567
 30
0.0
 10
345.173300
 20
389.524734
 30
0.0
  0
LWPOLYLINE
  5
122
100
AcDbEntity
  8
OONA_desk_organizer_packaging_v2
 62
1
100
AcDbPolyline
 90
2
 70
0
 10
345.173300
 20
382.581891
 30
0.0
 10
345.173300
 20
377.374820
 30
0.0
  0
LWPOLYLINE
  5
123
100
AcDbEntity
  8
OONA_desk_organizer_packaging_v2
 62
1
100
AcDbPolyline
 90
2
 70
0
 10
345.173300
 20
370.432295
 30
0.0
 10
345.173300
 20
365.225365
 30
0.0
  0
LWPOLYLINE
  5
124
100
AcDbEntity
  8
OONA_desk_organizer_packaging_v2
 62
1
100
AcDbPolyline
 90
2
 70
0
 10
345.173300
 20
358.282558
 30
0.0
 10
345.173300
 20
353.075522
 30
0.0
  0
LWPOLYLINE
  5
125
100
AcDbEntity
  8
OONA_desk_organizer_packaging_v2
 62
1
100
AcDbPolyline
 90
2
 70
0
 10
345.173300
 20
346.132693
 30
0.0
 10
345.173300
 20
340.925510
 30
0.0
  0
LWPOLYLINE
  5
126
100
AcDbEntity
  8
OONA_desk_organizer_packaging_v2
 62
1
100
AcDbPolyline
 90
2
 70
0
 10
345.173300
 20
333.982529
 30
0.0
 10
345.173300
 20
328.775811
 30
0.0
  0
LWPOLYLINE
  5
127
100
AcDbEntity
  8
OONA_desk_organizer_packaging_v2
 62
1
100
AcDbPolyline
 90
2
 70
0
 10
345.173300
 20
321.833134
 30
0.0
 10
345.173300
 20
316.626240
 30
0.0
  0
LWPOLYLINE
  5
128
100
AcDbEntity
  8
OONA_desk_organizer_packaging_v2
 62
1
100
AcDbPolyline
 90
2
 70
0
 10
345.173300
 20
309.683545
 30
0.0
 10
345.173300
 20
304.476757
 30
0.0
  0
LWPOLYLINE
  5
129
100
AcDbEntity
  8
OONA_desk_organizer_packaging_v2
 62
1
100
AcDbPolyline
 90
2
 70
0
 10
345.173300
 20
297.534217
 30
0.0
 10
345.173300
 20
292.327037
 30
0.0
  0
LWPOLYLINE
  5
12a
100
AcDbEntity
  8
OONA_desk_organizer_packaging_v2
 62
1
100
AcDbPolyline
 90
2
 70
0
 10
345.173300
 20
285.384452
 30
0.0
 10
345.173300
 20
280.177311
 30
0.0
  0
LWPOLYLINE
  5
12b
100
AcDbEntity
  8
OONA_desk_organizer_packaging_v2
 62
1
100
AcDbPolyline
 90
2
 70
0
 10
345.173300
 20
273.234679
 30
0.0
 10
345.173300
 20
268.027792
 30
0.0
  0
LWPOLYLINE
  5
12c
100
AcDbEntity
  8
OONA_desk_organizer_packaging_v2
 62
1
100
AcDbPolyline
 90
2
 70
0
 10
345.173300
 20
261.085348
 30
0.0
 10
345.173300
 20
255.878009
 30
0.0
  0
LWPOLYLINE
  5
12d
100
AcDbEntity
  8
OONA_desk_organizer_packaging_v2
 62
1
100
AcDbPolyline
 90
2
 70
0
 10
345.173300
 20
248.935335
 30
0.0
 10
345.173300
 20
243.728251
 30
0.0
  0
LWPOLYLINE
  5
12e
100
AcDbEntity
  8
OONA_desk_organizer_packaging_v2
 62
1
100
AcDbPolyline
 90
2
 70
0
 10
345.173300
 20
236.785817
 30
0.0
 10
345.173300
 20
231.578834
 30
0.0
  0
LWPOLYLINE
  5
12f
100
AcDbEntity
  8
OONA_desk_organizer_packaging_v2
 62
1
100
AcDbPolyline
 90
2
 70
0
 10
345.173300
 20
224.636468
 30
0.0
 10
345.173300
 20
219.429573
 30
0.0
  0
LWPOLYLINE
  5
130
100
AcDbEntity
  8
OONA_desk_organizer_packaging_v2
 62
1
100
AcDbPolyline
 90
2
 70
0
 10
345.173300
 20
212.486621
 30
0.0
 10
345.173300
 20
207.279356
 30
0.0
  0
LWPOLYLINE
  5
131
100
AcDbEntity
  8
OONA_desk_organizer_packaging_v2
 62
1
100
AcDbPolyline
 90
2
 70
0
 10
345.173300
 20
200.332975
 30
0.0
 10
345.173300
 20
197.687142
 30
0.0
  0
LWPOLYLINE
  5
132
100
AcDbEntity
  8
OONA_desk_organizer_packaging_v2
 62
1
100
AcDbPolyline
 90
2
 70
0
 10
374.820497
 20
392.170567
 30
0.0
 10
374.820497
 20
389.524734
 30
0.0
  0
LWPOLYLINE
  5
133
100
AcDbEntity
  8
OONA_desk_organizer_packaging_v2
 62
1
100
AcDbPolyline
 90
2
 70
0
 10
374.820497
 20
382.581891
 30
0.0
 10
374.820497
 20
377.374820
 30
0.0
  0
LWPOLYLINE
  5
134
100
AcDbEntity
  8
OONA_desk_organizer_packaging_v2
 62
1
100
AcDbPolyline
 90
2
 70
0
 10
374.820497
 20
370.432295
 30
0.0
 10
374.820497
 20
365.225365
 30
0.0
  0
LWPOLYLINE
  5
135
100
AcDbEntity
  8
OONA_desk_organizer_packaging_v2
 62
1
100
AcDbPolyline
 90
2
 70
0
 10
374.820497
 20
358.282558
 30
0.0
 10
374.820497
 20
353.075522
 30
0.0
  0
LWPOLYLINE
  5
136
100
AcDbEntity
  8
OONA_desk_organizer_packaging_v2
 62
1
100
AcDbPolyline
 90
2
 70
0
 10
374.820497
 20
346.132693
 30
0.0
 10
374.820497
 20
340.925510
 30
0.0
  0
LWPOLYLINE
  5
137
100
AcDbEntity
  8
OONA_desk_organizer_packaging_v2
 62
1
100
AcDbPolyline
 90
2
 70
0
 10
374.820497
 20
333.982529
 30
0.0
 10
374.820497
 20
328.775811
 30
0.0
  0
LWPOLYLINE
  5
138
100
AcDbEntity
  8
OONA_desk_organizer_packaging_v2
 62
1
100
AcDbPolyline
 90
2
 70
0
 10
374.820497
 20
321.833134
 30
0.0
 10
374.820497
 20
316.626240
 30
0.0
  0
LWPOLYLINE
  5
139
100
AcDbEntity
  8
OONA_desk_organizer_packaging_v2
 62
1
100
AcDbPolyline
 90
2
 70
0
 10
374.820497
 20
309.683545
 30
0.0
 10
374.820497
 20
304.476757
 30
0.0
  0
LWPOLYLINE
  5
13a
100
AcDbEntity
  8
OONA_desk_organizer_packaging_v2
 62
1
100
AcDbPolyline
 90
2
 70
0
 10
374.820497
 20
297.534217
 30
0.0
 10
374.820497
 20
292.327037
 30
0.0
  0
LWPOLYLINE
  5
13b
100
AcDbEntity
  8
OONA_desk_organizer_packaging_v2
 62
1
100
AcDbPolyline
 90
2
 70
0
 10
374.820497
 20
285.384452
 30
0.0
 10
374.820497
 20
280.177311
 30
0.0
  0
LWPOLYLINE
  5
13c
100
AcDbEntity
  8
OONA_desk_organizer_packaging_v2
 62
1
100
AcDbPolyline
 90
2
 70
0
 10
374.820497
 20
273.234679
 30
0.0
 10
374.820497
 20
268.027792
 30
0.0
  0
LWPOLYLINE
  5
13d
100
AcDbEntity
  8
OONA_desk_organizer_packaging_v2
 62
1
100
AcDbPolyline
 90
2
 70
0
 10
374.820497
 20
261.085348
 30
0.0
 10
374.820497
 20
255.878009
 30
0.0
  0
LWPOLYLINE
  5
13e
100
AcDbEntity
  8
OONA_desk_organizer_packaging_v2
 62
1
100
AcDbPolyline
 90
2
 70
0
 10
374.820497
 20
248.935335
 30
0.0
 10
374.820497
 20
243.728251
 30
0.0
  0
LWPOLYLINE
  5
13f
100
AcDbEntity
  8
OONA_desk_organizer_packaging_v2
 62
1
100
AcDbPolyline
 90
2
 70
0
 10
374.820497
 20
236.785817
 30
0.0
 10
374.820497
 20
231.578834
 30
0.0
  0
LWPOLYLINE
  5
140
100
AcDbEntity
  8
OONA_desk_organizer_packaging_v2
 62
1
100
AcDbPolyline
 90
2
 70
0
 10
374.820497
 20
224.636468
 30
0.0
 10
374.820497
 20
219.429573
 30
0.0
  0
LWPOLYLINE
  5
141
100
AcDbEntity
  8
OONA_desk_organizer_packaging_v2
 62
1
100
AcDbPolyline
 90
2
 70
0
 10
374.820497
 20
212.486621
 30
0.0
 10
374.820497
 20
207.279356
 30
0.0
  0
LWPOLYLINE
  5
142
100
AcDbEntity
  8
OONA_desk_organizer_packaging_v2
 62
1
100
AcDbPolyline
 90
2
 70
0
 10
374.820497
 20
200.332975
 30
0.0
 10
374.820497
 20
197.687142
 30
0.0
  0
LWPOLYLINE
  5
143
100
AcDbEntity
  8
OONA_desk_organizer_packaging_v2
 62
1
100
AcDbPolyline
 90
3
 70
0
 10
341.363794
 20
399.226123
 30
0.0
 10
341.363794
 20
399.206367
 30
0.0
 10
338.717961
 20
399.206367
 30
0.0
  0
LWPOLYLINE
  5
144
100
AcDbEntity
  8
OONA_desk_organizer_packaging_v2
 62
1
100
AcDbPolyline
 90
2
 70
0
 10
331.707702
 20
399.206367
 30
0.0
 10
326.450113
 20
399.206367
 30
0.0
  0
LWPOLYLINE
  5
145
100
AcDbEntity
  8
OONA_desk_organizer_packaging_v2
 62
1
100
AcDbPolyline
 90
2
 70
0
 10
319.439449
 20
399.206367
 30
0.0
 10
314.181949
 20
399.206367
 30
0.0
  0
LWPOLYLINE
  5
146
100
AcDbEntity
  8
OONA_desk_organizer_packaging_v2
 62
1
100
AcDbPolyline
 90
2
 70
0
 10
307.171721
 20
399.206367
 30
0.0
 10
301.914098
 20
399.206367
 30
0.0
  0
LWPOLYLINE
  5
147
100
AcDbEntity
  8
OONA_desk_organizer_packaging_v2
 62
1
100
AcDbPolyline
 90
2
 70
0
 10
294.904008
 20
399.206367
 30
0.0
 10
289.645827
 20
399.206367
 30
0.0
  0
LWPOLYLINE
  5
148
100
AcDbEntity
  8
OONA_desk_organizer_packaging_v2
 62
1
100
AcDbPolyline
 90
2
 70
0
 10
282.635226
 20
399.206367
 30
0.0
 10
277.377193
 20
399.206367
 30
0.0
  0
LWPOLYLINE
  5
149
100
AcDbEntity
  8
OONA_desk_organizer_packaging_v2
 62
1
100
AcDbPolyline
 90
2
 70
0
 10
270.366875
 20
399.206367
 30
0.0
 10
265.109318
 20
399.206367
 30
0.0
  0
LWPOLYLINE
  5
14a
100
AcDbEntity
  8
OONA_desk_organizer_packaging_v2
 62
1
100
AcDbPolyline
 90
2
 70
0
 10
258.099183
 20
399.206367
 30
0.0
 10
252.841457
 20
399.206367
 30
0.0
  0
LWPOLYLINE
  5
14b
100
AcDbEntity
  8
OONA_desk_organizer_packaging_v2
 62
1
100
AcDbPolyline
 90
2
 70
0
 10
245.830788
 20
399.206367
 30
0.0
 10
240.572971
 20
399.206367
 30
0.0
  0
LWPOLYLINE
  5
14c
100
AcDbEntity
  8
OONA_desk_organizer_packaging_v2
 62
1
100
AcDbPolyline
 90
2
 70
0
 10
233.562768
 20
399.206367
 30
0.0
 10
228.304781
 20
399.206367
 30
0.0
  0
LWPOLYLINE
  5
14d
100
AcDbEntity
  8
OONA_desk_organizer_packaging_v2
 62
1
100
AcDbPolyline
 90
2
 70
0
 10
221.294085
 20
399.206367
 30
0.0
 10
216.036514
 20
399.206367
 30
0.0
  0
LWPOLYLINE
  5
14e
100
AcDbEntity
  8
OONA_desk_organizer_packaging_v2
 62
1
100
AcDbPolyline
 90
2
 70
0
 10
209.026153
 20
399.206367
 30
0.0
 10
203.768466
 20
399.206367
 30
0.0
  0
LWPOLYLINE
  5
14f
100
AcDbEntity
  8
OONA_desk_organizer_packaging_v2
 62
1
100
AcDbPolyline
 90
2
 70
0
 10
196.758285
 20
399.206367
 30
0.0
 10
191.500665
 20
399.206367
 30
0.0
  0
LWPOLYLINE
  5
150
100
AcDbEntity
  8
OONA_desk_organizer_packaging_v2
 62
1
100
AcDbPolyline
 90
2
 70
0
 10
184.490102
 20
399.206367
 30
0.0
 10
179.232292
 20
399.206367
 30
0.0
  0
LWPOLYLINE
  5
151
100
AcDbEntity
  8
OONA_desk_organizer_packaging_v2
 62
1
100
AcDbPolyline
 90
2
 70
0
 10
172.221405
 20
399.206367
 30
0.0
 10
166.963178
 20
399.206367
 30
0.0
  0
LWPOLYLINE
  5
152
100
AcDbEntity
  8
OONA_desk_organizer_packaging_v2
 62
1
100
AcDbPolyline
 90
2
 70
0
 10
159.957170
 20
399.206367
 30
0.0
 10
157.311337
 20
399.206367
 30
0.0
  0
LWPOLYLINE
  5
153
100
AcDbEntity
  8
OONA_desk_organizer_packaging_v2
 62
1
100
AcDbPolyline
 90
3
 70
0
 10
341.363794
 20
429.931795
 30
0.0
 10
341.363794
 20
429.912039
 30
0.0
 10
338.717961
 20
429.912039
 30
0.0
  0
LWPOLYLINE
  5
154
100
AcDbEntity
  8
OONA_desk_organizer_packaging_v2
 62
1
100
AcDbPolyline
 90
2
 70
0
 10
331.707702
 20
429.912039
 30
0.0
 10
326.450113
 20
429.912039
 30
0.0
  0
LWPOLYLINE
  5
155
100
AcDbEntity
  8
OONA_desk_organizer_packaging_v2
 62
1
100
AcDbPolyline
 90
2
 70
0
 10
319.439449
 20
429.912039
 30
0.0
 10
314.181949
 20
429.912039
 30
0.0
  0
LWPOLYLINE
  5
156
100
AcDbEntity
  8
OONA_desk_organizer_packaging_v2
 62
1
100
AcDbPolyline
 90
2
 70
0
 10
307.171721
 20
429.912039
 30
0.0
 10
301.914098
 20
429.912039
 30
0.0
  0
LWPOLYLINE
  5
157
100
AcDbEntity
  8
OONA_desk_organizer_packaging_v2
 62
1
100
AcDbPolyline
 90
2
 70
0
 10
294.904008
 20
429.912039
 30
0.0
 10
289.645827
 20
429.912039
 30
0.0
  0
LWPOLYLINE
  5
158
100
AcDbEntity
  8
OONA_desk_organizer_packaging_v2
 62
1
100
AcDbPolyline
 90
2
 70
0
 10
282.635226
 20
429.912039
 30
0.0
 10
277.377193
 20
429.912039
 30
0.0
  0
LWPOLYLINE
  5
159
100
AcDbEntity
  8
OONA_desk_organizer_packaging_v2
 62
1
100
AcDbPolyline
 90
2
 70
0
 10
270.366875
 20
429.912039
 30
0.0
 10
265.109318
 20
429.912039
 30
0.0
  0
LWPOLYLINE
  5
15a
100
AcDbEntity
  8
OONA_desk_organizer_packaging_v2
 62
1
100
AcDbPolyline
 90
2
 70
0
 10
258.099183
 20
429.912039
 30
0.0
 10
252.841457
 20
429.912039
 30
0.0
  0
LWPOLYLINE
  5
15b
100
AcDbEntity
  8
OONA_desk_organizer_packaging_v2
 62
1
100
AcDbPolyline
 90
2
 70
0
 10
245.830788
 20
429.912039
 30
0.0
 10
240.572971
 20
429.912039
 30
0.0
  0
LWPOLYLINE
  5
15c
100
AcDbEntity
  8
OONA_desk_organizer_packaging_v2
 62
1
100
AcDbPolyline
 90
2
 70
0
 10
233.562768
 20
429.912039
 30
0.0
 10
228.304781
 20
429.912039
 30
0.0
  0
LWPOLYLINE
  5
15d
100
AcDbEntity
  8
OONA_desk_organizer_packaging_v2
 62
1
100
AcDbPolyline
 90
2
 70
0
 10
221.294085
 20
429.912039
 30
0.0
 10
216.036514
 20
429.912039
 30
0.0
  0
LWPOLYLINE
  5
15e
100
AcDbEntity
  8
OONA_desk_organizer_packaging_v2
 62
1
100
AcDbPolyline
 90
2
 70
0
 10
209.026153
 20
429.912039
 30
0.0
 10
203.768466
 20
429.912039
 30
0.0
  0
LWPOLYLINE
  5
15f
100
AcDbEntity
  8
OONA_desk_organizer_packaging_v2
 62
1
100
AcDbPolyline
 90
2
 70
0
 10
196.758285
 20
429.912039
 30
0.0
 10
191.500665
 20
429.912039
 30
0.0
  0
LWPOLYLINE
  5
160
100
AcDbEntity
  8
OONA_desk_organizer_packaging_v2
 62
1
100
AcDbPolyline
 90
2
 70
0
 10
184.490102
 20
429.912039
 30
0.0
 10
179.232292
 20
429.912039
 30
0.0
  0
LWPOLYLINE
  5
161
100
AcDbEntity
  8
OONA_desk_organizer_packaging_v2
 62
1
100
AcDbPolyline
 90
2
 70
0
 10
172.221405
 20
429.912039
 30
0.0
 10
166.963178
 20
429.912039
 30
0.0
  0
LWPOLYLINE
  5
162
100
AcDbEntity
  8
OONA_desk_organizer_packaging_v2
 62
1
100
AcDbPolyline
 90
2
 70
0
 10
159.957170
 20
429.912039
 30
0.0
 10
157.311337
 20
429.912039
 30
0.0
  0
LWPOLYLINE
  5
163
100
AcDbEntity
  8
OONA_desk_organizer_packaging_v2
 62
1
100
AcDbPolyline
 90
2
 70
0
 10
153.762146
 20
606.323153
 30
0.0
 10
153.762146
 20
396.041492
 30
0.0
  0
LWPOLYLINE
  5
164
100
AcDbEntity
  8
OONA_desk_organizer_packaging_v2
 62
1
100
AcDbPolyline
 90
2
 70
0
 10
345.173265
 20
606.323153
 30
0.0
 10
345.173265
 20
396.041492
 30
0.0
  0
LWPOLYLINE
  5
165
100
AcDbEntity
  8
OONA_desk_organizer_packaging_v2
 62
1
100
AcDbPolyline
 90
20
 70
0
 10
345.173229
 20
606.323153
 30
0.0
 10
345.173229
 20
626.209236
 30
0.0
 10
345.008390
 20
627.844503
 30
0.0
 10
344.535622
 20
629.367585
 30
0.0
 10
343.787547
 20
630.745853
 30
0.0
 10
342.796784
 20
631.946673
 30
0.0
 10
341.595964
 20
632.937449
 30
0.0
 10
340.217700
 20
633.685515
 30
0.0
 10
338.694617
 20
634.158272
 30
0.0
 10
337.059341
 20
634.323125
 30
0.0
 10
161.875893
 20
634.323125
 30
0.0
 10
160.240719
 20
634.158272
 30
0.0
 10
158.717682
 20
633.685515
 30
0.0
 10
157.339425
 20
632.937449
 30
0.0
 10
156.138580
 20
631.946673
 30
0.0
 10
155.147779
 20
630.745853
 30
0.0
 10
154.399661
 20
629.367585
 30
0.0
 10
153.926857
 20
627.844503
 30
0.0
 10
153.762004
 20
626.209236
 30
0.0
 10
153.762004
 20
606.323153
 30
0.0
  0
LWPOLYLINE
  5
166
100
AcDbEntity
  8
OONA_desk_organizer_packaging_v2
 62
1
100
AcDbPolyline
 90
2
 70
0
 10
153.762146
 20
397.462446
 30
0.0
 10
153.762146
 20
396.041457
 30
0.0
  0
LWPOLYLINE
  5
167
100
AcDbEntity
  8
OONA_desk_organizer_packaging_v2
 62
1
100
AcDbPolyline
 90
20
 70
0
 10
295.192626
 20
399.054920
 30
0.0
 10
295.192626
 20
379.168836
 30
0.0
 10
295.027787
 20
377.533570
 30
0.0
 10
294.555019
 20
376.010488
 30
0.0
 10
293.806943
 20
374.632220
 30
0.0
 10
292.816181
 20
373.431400
 30
0.0
 10
291.615361
 20
372.440623
 30
0.0
 10
290.237097
 20
371.692558
 30
0.0
 10
288.714014
 20
371.219801
 30
0.0
 10
287.078737
 20
371.054948
 30
0.0
 10
211.856637
 20
371.054948
 30
0.0
 10
210.221361
 20
371.219801
 30
0.0
 10
208.698278
 20
371.692558
 30
0.0
 10
207.320014
 20
372.440623
 30
0.0
 10
206.119190
 20
373.431400
 30
0.0
 10
205.128431
 20
374.632220
 30
0.0
 10
204.380356
 20
376.010488
 30
0.0
 10
203.907588
 20
377.533570
 30
0.0
 10
203.742749
 20
379.168836
 30
0.0
 10
203.742749
 20
399.054920
 30
0.0
  0
LWPOLYLINE
  5
168
100
AcDbEntity
  8
OONA_desk_organizer_packaging_v2
 62
1
100
AcDbPolyline
 90
54
 70
0
 10
266.886514
 20
388.856749
 30
0.0
 10
255.393014
 20
388.856749
 30
0.0
 10
254.275103
 20
390.157300
 30
0.0
 10
252.877267
 20
391.156649
 30
0.0
 10
252.091028
 20
391.525584
 30
0.0
 10
251.255989
 20
391.797928
 30
0.0
 10
250.379212
 20
391.966556
 30
0.0
 10
249.467758
 20
392.024341
 30
0.0
 10
248.556187
 20
391.966556
 30
0.0
 10
247.679330
 20
391.797928
 30
0.0
 10
246.844241
 20
391.525584
 30
0.0
 10
246.057984
 20
391.156649
 30
0.0
 10
244.660212
 20
390.157300
 30
0.0
 10
243.542502
 20
388.856749
 30
0.0
 10
232.049002
 20
388.856749
 30
0.0
 10
231.569602
 20
388.776316
 30
0.0
 10
231.123081
 20
388.545599
 30
0.0
 10
230.719013
 20
388.180545
 30
0.0
 10
230.366958
 20
387.697028
 30
0.0
 10
229.857162
 20
386.438458
 30
0.0
 10
229.670222
 20
384.897171
 30
0.0
 10
229.857162
 20
383.356097
 30
0.0
 10
230.366958
 20
382.097633
 30
0.0
 10
230.719013
 20
381.614151
 30
0.0
 10
231.123081
 20
381.249096
 30
0.0
 10
231.569602
 20
381.018380
 30
0.0
 10
232.049002
 20
380.937946
 30
0.0
 10
243.542502
 20
380.937946
 30
0.0
 10
244.660212
 20
379.637396
 30
0.0
 10
246.057984
 20
378.638047
 30
0.0
 10
246.844241
 20
378.269112
 30
0.0
 10
247.679330
 20
377.996768
 30
0.0
 10
248.556187
 20
377.828140
 30
0.0
 10
249.467758
 20
377.770355
 30
0.0
 10
250.379212
 20
377.828140
 30
0.0
 10
251.255989
 20
377.996768
 30
0.0
 10
252.091028
 20
378.269112
 30
0.0
 10
252.877267
 20
378.638047
 30
0.0
 10
254.275103
 20
379.637396
 30
0.0
 10
255.393014
 20
380.937946
 30
0.0
 10
266.886514
 20
380.937946
 30
0.0
 10
267.365914
 20
381.018380
 30
0.0
 10
267.812435
 20
381.249096
 30
0.0
 10
268.216503
 20
381.614151
 30
0.0
 10
268.568558
 20
382.097633
 30
0.0
 10
269.078354
 20
383.356097
 30
0.0
 10
269.265294
 20
384.897171
 30
0.0
 10
269.078354
 20
386.438458
 30
0.0
 10
268.568558
 20
387.697028
 30
0.0
 10
268.216503
 20
388.180545
 30
0.0
 10
267.812435
 20
388.545599
 30
0.0
 10
267.365914
 20
388.776316
 30
0.0
 10
266.886514
 20
388.856749
 30
0.0
 10
266.886514
 20
388.856749
 30
0.0
  0
LWPOLYLINE
  5
169
100
AcDbEntity
  8
OONA_desk_organizer_packaging_v2
 62
1
100
AcDbPolyline
 90
66
 70
0
 10
274.467708
 20
305.660108
 30
0.0
 10
274.338634
 20
303.104021
 30
0.0
 10
273.959796
 20
300.621767
 30
0.0
 10
273.343755
 20
298.225916
 30
0.0
 10
272.503078
 20
295.929029
 30
0.0
 10
271.450333
 20
293.743680
 30
0.0
 10
270.198088
 20
291.682431
 30
0.0
 10
268.758910
 20
289.757848
 30
0.0
 10
267.145364
 20
287.982501
 30
0.0
 10
265.370017
 20
286.368956
 30
0.0
 10
263.445434
 20
284.929778
 30
0.0
 10
261.384186
 20
283.677533
 30
0.0
 10
259.198837
 20
282.624788
 30
0.0
 10
256.901950
 20
281.784111
 30
0.0
 10
254.506099
 20
281.168069
 30
0.0
 10
252.023845
 20
280.789232
 30
0.0
 10
249.467758
 20
280.660158
 30
0.0
 10
246.911671
 20
280.789232
 30
0.0
 10
244.429418
 20
281.168069
 30
0.0
 10
242.033566
 20
281.784111
 30
0.0
 10
239.736679
 20
282.624788
 30
0.0
 10
237.551330
 20
283.677533
 30
0.0
 10
235.490082
 20
284.929778
 30
0.0
 10
233.565499
 20
286.368956
 30
0.0
 10
231.790152
 20
287.982501
 30
0.0
 10
230.176606
 20
289.757848
 30
0.0
 10
228.737428
 20
291.682431
 30
0.0
 10
227.485183
 20
293.743680
 30
0.0
 10
226.432438
 20
295.929029
 30
0.0
 10
225.591762
 20
298.225916
 30
0.0
 10
224.975720
 20
300.621767
 30
0.0
 10
224.596882
 20
303.104021
 30
0.0
 10
224.467808
 20
305.660108
 30
0.0
 10
224.596882
 20
308.216194
 30
0.0
 10
224.975720
 20
310.698448
 30
0.0
 10
225.591762
 20
313.094299
 30
0.0
 10
226.432438
 20
315.391186
 30
0.0
 10
227.485183
 20
317.576535
 30
0.0
 10
228.737428
 20
319.637784
 30
0.0
 10
230.176606
 20
321.562367
 30
0.0
 10
231.790152
 20
323.337714
 30
0.0
 10
233.565499
 20
324.951259
 30
0.0
 10
235.490082
 20
326.390437
 30
0.0
 10
237.551330
 20
327.642682
 30
0.0
 10
239.736679
 20
328.695427
 30
0.0
 10
242.033566
 20
329.536104
 30
0.0
 10
244.429418
 20
330.152146
 30
0.0
 10
246.911671
 20
330.530983
 30
0.0
 10
249.467758
 20
330.660058
 30
0.0
 10
252.023845
 20
330.530983
 30
0.0
 10
254.506099
 20
330.152146
 30
0.0
 10
256.901950
 20
329.536104
 30
0.0
 10
259.198837
 20
328.695427
 30
0.0
 10
261.384186
 20
327.642682
 30
0.0
 10
263.445434
 20
326.390437
 30
0.0
 10
265.370017
 20
324.951259
 30
0.0
 10
267.145364
 20
323.337714
 30
0.0
 10
268.758910
 20
321.562367
 30
0.0
 10
270.198088
 20
319.637784
 30
0.0
 10
271.450333
 20
317.576535
 30
0.0
 10
272.503078
 20
315.391186
 30
0.0
 10
273.343755
 20
313.094299
 30
0.0
 10
273.959796
 20
310.698448
 30
0.0
 10
274.338634
 20
308.216194
 30
0.0
 10
274.467708
 20
305.660108
 30
0.0
 10
274.467708
 20
305.660108
 30
0.0
  0
LWPOLYLINE
  5
16a
100
AcDbEntity
  8
OONA_desk_organizer_packaging_v2
 62
1
100
AcDbPolyline
 90
16
 70
0
 10
231.103876
 20
229.886969
 30
0.0
 10
230.900323
 20
230.010441
 30
0.0
 10
227.727792
 20
239.173491
 30
0.0
 10
224.514339
 20
230.010441
 30
0.0
 10
224.331248
 20
229.886969
 30
0.0
 10
221.524901
 20
229.886969
 30
0.0
 10
221.356978
 20
229.964093
 30
0.0
 10
221.341456
 20
230.133560
 30
0.0
 10
227.524239
 20
246.200119
 30
0.0
 10
227.727880
 20
246.323150
 30
0.0
 10
227.930992
 20
246.200119
 30
0.0
 10
234.093667
 20
230.133560
 30
0.0
 10
234.083437
 20
229.964093
 30
0.0
 10
233.890114
 20
229.886969
 30
0.0
 10
231.103876
 20
229.886969
 30
0.0
 10
231.103876
 20
229.886969
 30
0.0
  0
LWPOLYLINE
  5
16b
100
AcDbEntity
  8
OONA_desk_organizer_packaging_v2
 62
1
100
AcDbPolyline
 90
6
 70
0
 10
265.233150
 20
233.098622
 30
0.0
 10
277.611769
 20
233.098622
 30
0.0
 10
277.611769
 20
229.887286
 30
0.0
 10
265.233150
 20
229.887286
 30
0.0
 10
265.233150
 20
233.098622
 30
0.0
 10
265.233150
 20
233.098622
 30
0.0
  0
LWPOLYLINE
  5
16c
100
AcDbEntity
  8
OONA_desk_organizer_packaging_v2
 62
1
100
AcDbPolyline
 90
6
 70
0
 10
250.769614
 20
233.098622
 30
0.0
 10
263.148233
 20
233.098622
 30
0.0
 10
263.148233
 20
229.887286
 30
0.0
 10
250.769614
 20
229.887286
 30
0.0
 10
250.769614
 20
233.098622
 30
0.0
 10
250.769614
 20
233.098622
 30
0.0
  0
LWPOLYLINE
  5
16d
100
AcDbEntity
  8
OONA_desk_organizer_packaging_v2
 62
1
100
AcDbPolyline
 90
21
 70
0
 10
248.814696
 20
233.831694
 30
0.0
 10
245.946612
 20
233.831694
 30
0.0
 10
245.946612
 20
240.776125
 30
0.0
 10
239.048396
 20
229.948669
 30
0.0
 10
238.879768
 20
229.886933
 30
0.0
 10
236.405385
 20
229.886933
 30
0.0
 10
236.252985
 20
229.948539
 30
0.0
 10
236.199010
 20
230.071789
 30
0.0
 10
236.199010
 20
246.138347
 30
0.0
 10
236.252985
 20
246.261601
 30
0.0
 10
236.405385
 20
246.323203
 30
0.0
 10
238.823324
 20
246.323203
 30
0.0
 10
238.985072
 20
246.261601
 30
0.0
 10
239.048396
 20
246.138347
 30
0.0
 10
239.048396
 20
235.434364
 30
0.0
 10
245.965310
 20
246.261467
 30
0.0
 10
246.133937
 20
246.323203
 30
0.0
 10
248.627371
 20
246.323203
 30
0.0
 10
248.814696
 20
246.138347
 30
0.0
 10
248.814696
 20
233.831694
 30
0.0
 10
248.814696
 20
233.831694
 30
0.0
  0
LWPOLYLINE
  5
16e
100
AcDbEntity
  8
OONA_desk_organizer_packaging_v2
 62
1
100
AcDbPolyline
 90
28
 70
0
 10
250.838406
 20
241.468451
 30
0.0
 10
251.101867
 20
242.561660
 30
0.0
 10
251.545923
 20
243.570245
 30
0.0
 10
252.151938
 20
244.475363
 30
0.0
 10
252.901274
 20
245.258167
 30
0.0
 10
253.775295
 20
245.899817
 30
0.0
 10
254.755364
 20
246.381468
 30
0.0
 10
255.822845
 20
246.684274
 30
0.0
 10
256.959100
 20
246.789399
 30
0.0
 10
258.095238
 20
246.684274
 30
0.0
 10
259.162638
 20
246.381468
 30
0.0
 10
260.142658
 20
245.899817
 30
0.0
 10
261.016662
 20
245.258167
 30
0.0
 10
261.766015
 20
244.475363
 30
0.0
 10
262.372076
 20
243.570245
 30
0.0
 10
262.816217
 20
242.561660
 30
0.0
 10
263.079794
 20
241.468451
 30
0.0
 10
260.171494
 20
241.468451
 30
0.0
 10
259.715198
 20
242.445960
 30
0.0
 10
258.987308
 20
243.220300
 30
0.0
 10
258.048411
 20
243.729993
 30
0.0
 10
256.959100
 20
243.913554
 30
0.0
 10
255.869641
 20
243.729993
 30
0.0
 10
254.930758
 20
243.220300
 30
0.0
 10
254.202953
 20
242.445960
 30
0.0
 10
253.746706
 20
241.468451
 30
0.0
 10
250.838406
 20
241.468451
 30
0.0
 10
250.838406
 20
241.468451
 30
0.0
  0
LWPOLYLINE
  5
16f
100
AcDbEntity
  8
OONA_desk_organizer_packaging_v2
 62
1
100
AcDbPolyline
 90
28
 70
0
 10
263.056299
 20
239.467672
 30
0.0
 10
262.775464
 20
238.399937
 30
0.0
 10
262.321562
 20
237.416153
 30
0.0
 10
261.712368
 20
236.534325
 30
0.0
 10
260.965650
 20
235.772456
 30
0.0
 10
260.099175
 20
235.148554
 30
0.0
 10
259.130708
 20
234.680615
 30
0.0
 10
258.078026
 20
234.386649
 30
0.0
 10
256.958888
 20
234.284661
 30
0.0
 10
255.839768
 20
234.386649
 30
0.0
 10
254.787121
 20
234.680615
 30
0.0
 10
253.818715
 20
235.148554
 30
0.0
 10
252.952303
 20
235.772456
 30
0.0
 10
252.205649
 20
236.534325
 30
0.0
 10
251.596511
 20
237.416153
 30
0.0
 10
251.142652
 20
238.399937
 30
0.0
 10
250.861830
 20
239.467672
 30
0.0
 10
253.788827
 20
239.467672
 30
0.0
 10
254.263560
 20
238.541835
 30
0.0
 10
254.986642
 20
237.811691
 30
0.0
 10
255.903328
 20
237.332830
 30
0.0
 10
256.958888
 20
237.160858
 30
0.0
 10
258.014498
 20
237.332830
 30
0.0
 10
258.931269
 20
237.811691
 30
0.0
 10
259.654365
 20
238.541835
 30
0.0
 10
260.128949
 20
239.467672
 30
0.0
 10
263.056299
 20
239.467672
 30
0.0
 10
263.056299
 20
239.467672
 30
0.0
  0
LWPOLYLINE
  5
170
100
AcDbEntity
  8
OONA_desk_organizer_packaging_v2
 62
1
100
AcDbPolyline
 90
28
 70
0
 10
265.301942
 20
241.468451
 30
0.0
 10
265.565403
 20
242.561660
 30
0.0
 10
266.009459
 20
243.570245
 30
0.0
 10
266.615474
 20
244.475363
 30
0.0
 10
267.364810
 20
245.258167
 30
0.0
 10
268.238831
 20
245.899817
 30
0.0
 10
269.218900
 20
246.381468
 30
0.0
 10
270.286381
 20
246.684274
 30
0.0
 10
271.422636
 20
246.789399
 30
0.0
 10
272.558775
 20
246.684274
 30
0.0
 10
273.626174
 20
246.381468
 30
0.0
 10
274.606194
 20
245.899817
 30
0.0
 10
275.480198
 20
245.258167
 30
0.0
 10
276.229551
 20
244.475363
 30
0.0
 10
276.835612
 20
243.570245
 30
0.0
 10
277.279753
 20
242.561660
 30
0.0
 10
277.543331
 20
241.468451
 30
0.0
 10
274.635031
 20
241.468451
 30
0.0
 10
274.178734
 20
242.445960
 30
0.0
 10
273.450844
 20
243.220300
 30
0.0
 10
272.511947
 20
243.729993
 30
0.0
 10
271.422636
 20
243.913554
 30
0.0
 10
270.333177
 20
243.729993
 30
0.0
 10
269.394298
 20
243.220300
 30
0.0
 10
268.666489
 20
242.445960
 30
0.0
 10
268.210242
 20
241.468451
 30
0.0
 10
265.301942
 20
241.468451
 30
0.0
 10
265.301942
 20
241.468451
 30
0.0
  0
LWPOLYLINE
  5
171
100
AcDbEntity
  8
OONA_desk_organizer_packaging_v2
 62
1
100
AcDbPolyline
 90
28
 70
0
 10
277.519871
 20
239.467672
 30
0.0
 10
277.239035
 20
238.399937
 30
0.0
 10
276.785133
 20
237.416153
 30
0.0
 10
276.175939
 20
236.534325
 30
0.0
 10
275.429222
 20
235.772456
 30
0.0
 10
274.562746
 20
235.148554
 30
0.0
 10
273.594280
 20
234.680615
 30
0.0
 10
272.541598
 20
234.386649
 30
0.0
 10
271.422460
 20
234.284661
 30
0.0
 10
270.303339
 20
234.386649
 30
0.0
 10
269.250693
 20
234.680615
 30
0.0
 10
268.282286
 20
235.148554
 30
0.0
 10
267.415874
 20
235.772456
 30
0.0
 10
266.669220
 20
236.534325
 30
0.0
 10
266.060082
 20
237.416153
 30
0.0
 10
265.606223
 20
238.399937
 30
0.0
 10
265.325401
 20
239.467672
 30
0.0
 10
268.252399
 20
239.467672
 30
0.0
 10
268.727132
 20
238.541835
 30
0.0
 10
269.450213
 20
237.811691
 30
0.0
 10
270.366899
 20
237.332830
 30
0.0
 10
271.422460
 20
237.160858
 30
0.0
 10
272.478070
 20
237.332830
 30
0.0
 10
273.394840
 20
237.811691
 30
0.0
 10
274.117936
 20
238.541835
 30
0.0
 10
274.592521
 20
239.467672
 30
0.0
 10
277.519871
 20
239.467672
 30
0.0
 10
277.519871
 20
239.467672
 30
0.0
  0
LWPOLYLINE
  5
172
100
AcDbEntity
  8
OONA_desk_organizer_packaging_v2
 62
1
100
AcDbPolyline
 90
20
 70
0
 10
345.173229
 20
192.828676
 30
0.0
 10
415.464378
 20
192.828676
 30
0.0
 10
416.983616
 20
192.993525
 30
0.0
 10
418.398713
 20
193.466325
 30
0.0
 10
419.679296
 20
194.214447
 30
0.0
 10
420.795062
 20
195.205265
 30
0.0
 10
421.715600
 20
196.406167
 30
0.0
 10
422.410714
 20
197.784515
 30
0.0
 10
422.850028
 20
199.307697
 30
0.0
 10
423.003204
 20
200.943076
 30
0.0
 10
423.003204
 20
387.771781
 30
0.0
 10
422.850028
 20
389.407153
 30
0.0
 10
422.410714
 20
390.930306
 30
0.0
 10
421.715600
 20
392.308680
 30
0.0
 10
420.795062
 20
393.509571
 30
0.0
 10
419.679296
 20
394.500382
 30
0.0
 10
418.398713
 20
395.248553
 30
0.0
 10
416.983616
 20
395.721311
 30
0.0
 10
415.464378
 20
395.886164
 30
0.0
 10
345.173229
 20
395.886164
 30
0.0
  0
LWPOLYLINE
  5
173
100
AcDbEntity
  8
OONA_desk_organizer_packaging_v2
 62
1
100
AcDbPolyline
 90
2
 70
0
 10
124.114913
 20
392.170779
 30
0.0
 10
124.114913
 20
389.524946
 30
0.0
  0
LWPOLYLINE
  5
174
100
AcDbEntity
  8
OONA_desk_organizer_packaging_v2
 62
1
100
AcDbPolyline
 90
2
 70
0
 10
124.114913
 20
382.582103
 30
0.0
 10
124.114913
 20
377.375032
 30
0.0
  0
LWPOLYLINE
  5
175
100
AcDbEntity
  8
OONA_desk_organizer_packaging_v2
 62
1
100
AcDbPolyline
 90
2
 70
0
 10
124.114913
 20
370.432506
 30
0.0
 10
124.114913
 20
365.225577
 30
0.0
  0
LWPOLYLINE
  5
176
100
AcDbEntity
  8
OONA_desk_organizer_packaging_v2
 62
1
100
AcDbPolyline
 90
2
 70
0
 10
124.114913
 20
358.282769
 30
0.0
 10
124.114913
 20
353.075734
 30
0.0
  0
LWPOLYLINE
  5
177
100
AcDbEntity
  8
OONA_desk_organizer_packaging_v2
 62
1
100
AcDbPolyline
 90
2
 70
0
 10
124.114913
 20
346.132905
 30
0.0
 10
124.114913
 20
340.925722
 30
0.0
  0
LWPOLYLINE
  5
178
100
AcDbEntity
  8
OONA_desk_organizer_packaging_v2
 62
1
100
AcDbPolyline
 90
2
 70
0
 10
124.114913
 20
333.982741
 30
0.0
 10
124.114913
 20
328.776023
 30
0.0
  0
LWPOLYLINE
  5
179
100
AcDbEntity
  8
OONA_desk_organizer_packaging_v2
 62
1
100
AcDbPolyline
 90
2
 70
0
 10
124.114913
 20
321.833346
 30
0.0
 10
124.114913
 20
316.626452
 30
0.0
  0
LWPOLYLINE
  5
17a
100
AcDbEntity
  8
OONA_desk_organizer_packaging_v2
 62
1
100
AcDbPolyline
 90
2
 70
0
 10
124.114913
 20
309.683757
 30
0.0
 10
124.114913
 20
304.476968
 30
0.0
  0
LWPOLYLINE
  5
17b
100
AcDbEntity
  8
OONA_desk_organizer_packaging_v2
 62
1
100
AcDbPolyline
 90
2
 70
0
 10
124.114913
 20
297.534429
 30
0.0
 10
124.114913
 20
292.327249
 30
0.0
  0
LWPOLYLINE
  5
17c
100
AcDbEntity
  8
OONA_desk_organizer_packaging_v2
 62
1
100
AcDbPolyline
 90
2
 70
0
 10
124.114913
 20
285.384663
 30
0.0
 10
124.114913
 20
280.177522
 30
0.0
  0
LWPOLYLINE
  5
17d
100
AcDbEntity
  8
OONA_desk_organizer_packaging_v2
 62
1
100
AcDbPolyline
 90
2
 70
0
 10
124.114913
 20
273.234891
 30
0.0
 10
124.114913
 20
268.028004
 30
0.0
  0
LWPOLYLINE
  5
17e
100
AcDbEntity
  8
OONA_desk_organizer_packaging_v2
 62
1
100
AcDbPolyline
 90
2
 70
0
 10
124.114913
 20
261.085559
 30
0.0
 10
124.114913
 20
255.878221
 30
0.0
  0
LWPOLYLINE
  5
17f
100
AcDbEntity
  8
OONA_desk_organizer_packaging_v2
 62
1
100
AcDbPolyline
 90
2
 70
0
 10
124.114913
 20
248.935547
 30
0.0
 10
124.114913
 20
243.728462
 30
0.0
  0
LWPOLYLINE
  5
180
100
AcDbEntity
  8
OONA_desk_organizer_packaging_v2
 62
1
100
AcDbPolyline
 90
2
 70
0
 10
124.114913
 20
236.786028
 30
0.0
 10
124.114913
 20
231.579046
 30
0.0
  0
LWPOLYLINE
  5
181
100
AcDbEntity
  8
OONA_desk_organizer_packaging_v2
 62
1
100
AcDbPolyline
 90
2
 70
0
 10
124.114913
 20
224.636679
 30
0.0
 10
124.114913
 20
219.429785
 30
0.0
  0
LWPOLYLINE
  5
182
100
AcDbEntity
  8
OONA_desk_organizer_packaging_v2
 62
1
100
AcDbPolyline
 90
2
 70
0
 10
124.114913
 20
212.486833
 30
0.0
 10
124.114913
 20
207.279568
 30
0.0
  0
LWPOLYLINE
  5
183
100
AcDbEntity
  8
OONA_desk_organizer_packaging_v2
 62
1
100
AcDbPolyline
 90
2
 70
0
 10
124.114913
 20
200.333187
 30
0.0
 10
124.114913
 20
197.687353
 30
0.0
  0
LWPOLYLINE
  5
184
100
AcDbEntity
  8
OONA_desk_organizer_packaging_v2
 62
1
100
AcDbPolyline
 90
20
 70
0
 10
153.938534
 20
192.829762
 30
0.0
 10
83.745338
 20
192.829762
 30
0.0
 10
82.206532
 20
192.994608
 30
0.0
 10
80.773259
 20
193.467404
 30
0.0
 10
79.476233
 20
194.215519
 30
0.0
 10
78.346159
 20
195.206327
 30
0.0
 10
77.413753
 20
196.407215
 30
0.0
 10
76.709729
 20
197.785549
 30
0.0
 10
76.264791
 20
199.308713
 30
0.0
 10
76.109650
 20
200.944074
 30
0.0
 10
76.109650
 20
387.770793
 30
0.0
 10
76.264777
 20
389.406130
 30
0.0
 10
76.709679
 20
390.929283
 30
0.0
 10
77.413668
 20
392.307621
 30
0.0
 10
78.346035
 20
393.508512
 30
0.0
 10
79.476085
 20
394.499359
 30
0.0
 10
80.773118
 20
395.247460
 30
0.0
 10
82.206437
 20
395.720217
 30
0.0
 10
83.745338
 20
395.885070
 30
0.0
 10
153.938534
 20
395.885070
 30
0.0
  0
LWPOLYLINE
  5
185
100
AcDbEntity
  8
OONA_desk_organizer_packaging_v2
 62
1
100
AcDbPolyline
 90
3
 70
0
 10
341.233654
 20
159.310846
 30
0.0
 10
341.233654
 20
159.330602
 30
0.0
 10
338.587821
 20
159.330602
 30
0.0
  0
LWPOLYLINE
  5
186
100
AcDbEntity
  8
OONA_desk_organizer_packaging_v2
 62
1
100
AcDbPolyline
 90
2
 70
0
 10
331.577562
 20
159.330708
 30
0.0
 10
326.319974
 20
159.330708
 30
0.0
  0
LWPOLYLINE
  5
187
100
AcDbEntity
  8
OONA_desk_organizer_packaging_v2
 62
1
100
AcDbPolyline
 90
2
 70
0
 10
319.309309
 20
159.330708
 30
0.0
 10
314.051809
 20
159.330708
 30
0.0
  0
LWPOLYLINE
  5
188
100
AcDbEntity
  8
OONA_desk_organizer_packaging_v2
 62
1
100
AcDbPolyline
 90
2
 70
0
 10
307.041582
 20
159.330708
 30
0.0
 10
301.783958
 20
159.330708
 30
0.0
  0
LWPOLYLINE
  5
189
100
AcDbEntity
  8
OONA_desk_organizer_packaging_v2
 62
1
100
AcDbPolyline
 90
2
 70
0
 10
294.773869
 20
159.330708
 30
0.0
 10
289.515688
 20
159.330708
 30
0.0
  0
LWPOLYLINE
  5
18a
100
AcDbEntity
  8
OONA_desk_organizer_packaging_v2
 62
1
100
AcDbPolyline
 90
2
 70
0
 10
282.505086
 20
159.330708
 30
0.0
 10
277.247054
 20
159.330708
 30
0.0
  0
LWPOLYLINE
  5
18b
100
AcDbEntity
  8
OONA_desk_organizer_packaging_v2
 62
1
100
AcDbPolyline
 90
2
 70
0
 10
270.236735
 20
159.330708
 30
0.0
 10
264.979178
 20
159.330708
 30
0.0
  0
LWPOLYLINE
  5
18c
100
AcDbEntity
  8
OONA_desk_organizer_packaging_v2
 62
1
100
AcDbPolyline
 90
2
 70
0
 10
257.969043
 20
159.330708
 30
0.0
 10
252.711317
 20
159.330708
 30
0.0
  0
LWPOLYLINE
  5
18d
100
AcDbEntity
  8
OONA_desk_organizer_packaging_v2
 62
1
100
AcDbPolyline
 90
2
 70
0
 10
245.700649
 20
159.330708
 30
0.0
 10
240.442831
 20
159.330708
 30
0.0
  0
LWPOLYLINE
  5
18e
100
AcDbEntity
  8
OONA_desk_organizer_packaging_v2
 62
1
100
AcDbPolyline
 90
2
 70
0
 10
233.432629
 20
159.330708
 30
0.0
 10
228.174642
 20
159.330708
 30
0.0
  0
LWPOLYLINE
  5
18f
100
AcDbEntity
  8
OONA_desk_organizer_packaging_v2
 62
1
100
AcDbPolyline
 90
2
 70
0
 10
221.163945
 20
159.330708
 30
0.0
 10
215.906375
 20
159.330708
 30
0.0
  0
LWPOLYLINE
  5
190
100
AcDbEntity
  8
OONA_desk_organizer_packaging_v2
 62
1
100
AcDbPolyline
 90
2
 70
0
 10
208.896013
 20
159.330708
 30
0.0
 10
203.638326
 20
159.330708
 30
0.0
  0
LWPOLYLINE
  5
191
100
AcDbEntity
  8
OONA_desk_organizer_packaging_v2
 62
1
100
AcDbPolyline
 90
2
 70
0
 10
196.628145
 20
159.330708
 30
0.0
 10
191.370525
 20
159.330708
 30
0.0
  0
LWPOLYLINE
  5
192
100
AcDbEntity
  8
OONA_desk_organizer_packaging_v2
 62
1
100
AcDbPolyline
 90
2
 70
0
 10
184.359963
 20
159.330708
 30
0.0
 10
179.102152
 20
159.330708
 30
0.0
  0
LWPOLYLINE
  5
193
100
AcDbEntity
  8
OONA_desk_organizer_packaging_v2
 62
1
100
AcDbPolyline
 90
2
 70
0
 10
172.091265
 20
159.330708
 30
0.0
 10
166.833038
 20
159.330708
 30
0.0
  0
LWPOLYLINE
  5
194
100
AcDbEntity
  8
OONA_desk_organizer_packaging_v2
 62
1
100
AcDbPolyline
 90
2
 70
0
 10
159.827031
 20
159.330708
 30
0.0
 10
157.181197
 20
159.330708
 30
0.0
  0
LWPOLYLINE
  5
195
100
AcDbEntity
  8
OONA_desk_organizer_packaging_v2
 62
1
100
AcDbPolyline
 90
2
 70
0
 10
153.632006
 20
97.138808
 30
0.0
 10
153.632006
 20
192.835071
 30
0.0
  0
LWPOLYLINE
  5
196
100
AcDbEntity
  8
OONA_desk_organizer_packaging_v2
 62
1
100
AcDbPolyline
 90
2
 70
0
 10
345.043125
 20
97.138808
 30
0.0
 10
345.043125
 20
192.835071
 30
0.0
  0
LWPOLYLINE
  5
197
100
AcDbEntity
  8
OONA_desk_organizer_packaging_v2
 62
1
100
AcDbPolyline
 90
20
 70
0
 10
345.043125
 20
97.138808
 30
0.0
 10
345.043125
 20
77.252724
 30
0.0
 10
344.878286
 20
75.617447
 30
0.0
 10
344.405518
 20
74.094365
 30
0.0
 10
343.657442
 20
72.716101
 30
0.0
 10
342.666680
 20
71.515277
 30
0.0
 10
341.465860
 20
70.524518
 30
0.0
 10
340.087596
 20
69.776442
 30
0.0
 10
338.564513
 20
69.303674
 30
0.0
 10
336.929236
 20
69.138835
 30
0.0
 10
161.745789
 20
69.138835
 30
0.0
 10
160.110614
 20
69.303674
 30
0.0
 10
158.587578
 20
69.776442
 30
0.0
 10
157.209321
 20
70.524518
 30
0.0
 10
156.008476
 20
71.515277
 30
0.0
 10
155.017675
 20
72.716101
 30
0.0
 10
154.269556
 20
74.094365
 30
0.0
 10
153.796753
 20
75.617447
 30
0.0
 10
153.631900
 20
77.252724
 30
0.0
 10
153.631900
 20
97.138808
 30
0.0
  0
ENDSEC
  0
SECTION
  2
OBJECTS
  0
DICTIONARY
  5
C
330
0
100
AcDbDictionary
  3
ACAD_GROUP
350
D
  3
ACAD_MLINESTYLE
350
17
  0
DICTIONARY
  5
D
330
C
100
AcDbDictionary
  0
DICTIONARY
  5
1A
330
C
100
AcDbDictionary
  0
DICTIONARY
  5
17
330
C
100
AcDbDictionary
  3
STANDARD
350
18
  0
DICTIONARY
  5
19
330
C
100
AcDbDictionary
  0
ENDSEC
  0
EOF
