  0
SECTION
  2
HEADER
  9
$ACADVER
  1
AC1014
  9
$ACADMAINTVER
 70
     9
  9
$DWGCODEPAGE
  3
UNDEFINED
  9
$INSBASE
 10
0.0
 20
0.0
 30
0.0
  9
$EXTMIN
 10
1.000000000000000E+20
 20
1.000000000000000E+20
 30
1.000000000000000E+20
  9
$EXTMAX
 10
-1.000000000000000E+20
 20
-1.000000000000000E+20
 30
-1.000000000000000E+20
  9
$LIMMIN
 10
0.0
 20
0.0
  9
$LIMMAX
 10
12.0
 20
9.0
  9
$ORTHOMODE
 70
     0
  9
$REGENMODE
 70
     1
  9
$FILLMODE
 70
     1
  9
$QTEXTMODE
 70
     0
  9
$MIRRTEXT
 70
     1
  9
$DRAGMODE
 70
     2
  9
$LTSCALE
 40
1.0
  9
$OSMODE
 70
    37
  9
$ATTMODE
 70
     1
  9
$TEXTSIZE
 40
0.2
  9
$TRACEWID
 40
0.05
  9
$TEXTSTYLE
  7
STANDARD
  9
$CLAYER
  8
0
  9
$CELTYPE
  6
BYLAYER
  9
$CECOLOR
 62
   256
  9
$CELTSCALE
 40
1.0
  9
$DELOBJ
 70
     1
  9
$DISPSILH
 70
     0
  9
$DIMSCALE
 40
1.0
  9
$DIMASZ
 40
0.18
  9
$DIMEXO
 40
0.0625
  9
$DIMDLI
 40
0.38
  9
$DIMRND
 40
0.0
  9
$DIMDLE
 40
0.0
  9
$DIMEXE
 40
0.18
  9
$DIMTP
 40
0.0
  9
$DIMTM
 40
0.0
  9
$DIMTXT
 40
0.18
  9
$DIMCEN
 40
0.09
  9
$DIMTSZ
 40
0.0
  9
$DIMTOL
 70
     0
  9
$DIMLIM
 70
     0
  9
$DIMTIH
 70
     1
  9
$DIMTOH
 70
     1
  9
$DIMSE1
 70
     0
  9
$DIMSE2
 70
     0
  9
$DIMTAD
 70
     0
  9
$DIMZIN
 70
     0
  9
$DIMBLK
  1

  9
$DIMASO
 70
     1
  9
$DIMSHO
 70
     1
  9
$DIMPOST
  1

  9
$DIMAPOST
  1

  9
$DIMALT
 70
     0
  9
$DIMALTD
 70
     2
  9
$DIMALTF
 40
25.4
  9
$DIMLFAC
 40
1.0
  9
$DIMTOFL
 70
     0
  9
$DIMTVP
 40
0.0
  9
$DIMTIX
 70
     0
  9
$DIMSOXD
 70
     0
  9
$DIMSAH
 70
     0
  9
$DIMBLK1
  1

  9
$DIMBLK2
  1

  9
$DIMSTYLE
  2
STANDARD
  9
$DIMCLRD
 70
     0
  9
$DIMCLRE
 70
     0
  9
$DIMCLRT
 70
     0
  9
$DIMTFAC
 40
1.0
  9
$DIMGAP
 40
0.09
  9
$DIMJUST
 70
     0
  9
$DIMSD1
 70
     0
  9
$DIMSD2
 70
     0
  9
$DIMTOLJ
 70
     1
  9
$DIMTZIN
 70
     0
  9
$DIMALTZ
 70
     0
  9
$DIMALTTZ
 70
     0
  9
$DIMFIT
 70
     3
  9
$DIMUPT
 70
     0
  9
$DIMUNIT
 70
     2
  9
$DIMDEC
 70
     4
  9
$DIMTDEC
 70
     4
  9
$DIMALTU
 70
     2
  9
$DIMALTTD
 70
     2
  9
$DIMTXSTY
  7
STANDARD
  9
$DIMAUNIT
 70
     0
  9
$LUNITS
 70
     2
  9
$LUPREC
 70
     4
  9
$SKETCHINC
 40
0.1
  9
$FILLETRAD
 40
0.5
  9
$AUNITS
 70
     0
  9
$AUPREC
 70
     0
  9
$MENU
  1
.
  9
$ELEVATION
 40
0.0
  9
$PELEVATION
 40
0.0
  9
$THICKNESS
 40
0.0
  9
$LIMCHECK
 70
     0
  9
$CHAMFERA
 40
0.5
  9
$CHAMFERB
 40
0.5
  9
$CHAMFERC
 40
1.0
  9
$CHAMFERD
 40
0.0
  9
$SKPOLY
 70
     0
  9
$TDCREATE
 40
2457639.713946748
  9
$TDUPDATE
 40
2457639.713946748
  9
$TDINDWG
 40
0.0000000116
  9
$TDUSRTIMER
 40
0.0000000116
  9
$USRTIMER
 70
     1
  9
$ANGBASE
 50
0.0
  9
$ANGDIR
 70
     0
  9
$PDMODE
 70
     0
  9
$PDSIZE
 40
0.0
  9
$PLINEWID
 40
0.0
  9
$COORDS
 70
     1
  9
$SPLFRAME
 70
     0
  9
$SPLINETYPE
 70
     6
  9
$SPLINESEGS
 70
     8
  9
$ATTDIA
 70
     0
  9
$ATTREQ
 70
     1
  9
$HANDLING
 70
     1
  9
$HANDSEED
  5
7B
  9
$SURFTAB1
 70
     6
  9
$SURFTAB2
 70
     6
  9
$SURFTYPE
 70
     6
  9
$SURFU
 70
     6
  9
$SURFV
 70
     6
  9
$UCSNAME
  2

  9
$UCSORG
 10
0.0
 20
0.0
 30
0.0
  9
$UCSXDIR
 10
1.0
 20
0.0
 30
0.0
  9
$UCSYDIR
 10
0.0
 20
1.0
 30
0.0
  9
$PUCSNAME
  2

  9
$PUCSORG
 10
0.0
 20
0.0
 30
0.0
  9
$PUCSXDIR
 10
1.0
 20
0.0
 30
0.0
  9
$PUCSYDIR
 10
0.0
 20
1.0
 30
0.0
  9
$USERI1
 70
     0
  9
$USERI2
 70
     0
  9
$USERI3
 70
     0
  9
$USERI4
 70
     0
  9
$USERI5
 70
     0
  9
$USERR1
 40
0.0
  9
$USERR2
 40
0.0
  9
$USERR3
 40
0.0
  9
$USERR4
 40
0.0
  9
$USERR5
 40
0.0
  9
$WORLDVIEW
 70
     1
  9
$SHADEDGE
 70
     3
  9
$SHADEDIF
 70
    70
  9
$TILEMODE
 70
     1
  9
$MAXACTVP
 70
    64
  9
$PINSBASE
 10
0.0
 20
0.0
 30
0.0
  9
$PLIMCHECK
 70
     0
  9
$PEXTMIN
 10
1.000000000000000E+20
 20
1.000000000000000E+20
 30
1.000000000000000E+20
  9
$PEXTMAX
 10
-1.000000000000000E+20
 20
-1.000000000000000E+20
 30
-1.000000000000000E+20
  9
$PLIMMIN
 10
0.0
 20
0.0
  9
$PLIMMAX
 10
12.0
 20
9.0
  9
$UNITMODE
 70
     0
  9
$VISRETAIN
 70
     1
  9
$PLINEGEN
 70
     0
  9
$PSLTSCALE
 70
     1
  9
$TREEDEPTH
 70
  3020
  9
$PICKSTYLE
 70
     1
  9
$CMLSTYLE
  2
STANDARD
  9
$CMLJUST
 70
     0
  9
$CMLSCALE
 40
1.0
  9
$PROXYGRAPHICS
 70
     1
  9
$MEASUREMENT
 70
     0
  0
ENDSEC
  0
SECTION
  2
CLASSES
  0
CLASS
  1
ACDBDICTIONARYWDFLT
  2
AcDbDictionaryWithDefault
  3
ObjectDBX Classes
 90
        0
280
     0
281
     0
  0
CLASS
  1
VISUALSTYLE
  2
AcDbVisualStyle
  3
ObjectDBX Classes
 90
     4095
280
     0
281
     0
  0
CLASS
  1
MATERIAL
  2
AcDbMaterial
  3
ObjectDBX Classes
 90
     1153
280
     0
281
     0
  0
CLASS
  1
SUN
  2
AcDbSun
  3
SCENEOE
 90
     1024
280
     0
281
     0
  0
CLASS
  1
DICTIONARYVAR
  2
AcDbDictionaryVar
  3
ObjectDBX Classes
 90
        0
280
     0
281
     0
  0
CLASS
  1
XRECORD
  2
AcDbXrecord
  3
AutoCAD 2000
 90
        0
280
     0
281
     0
  0
CLASS
  1
LWPOLYLINE
  2
AcDbPolyline
  3
AutoCAD 2000
 90
        0
280
     0
281
     1
  0
CLASS
  1
HATCH
  2
AcDbHatch
  3
AutoCAD 2000
 90
        0
280
     0
281
     1
  0
CLASS
  1
ACDBPLACEHOLDER
  2
AcDbPlaceHolder
  3
ObjectDBX Classes
 90
        0
280
     0
281
     0
  0
CLASS
  1
LAYOUT
  2
AcDbLayout
  3
ObjectDBX Classes
 90
        0
280
     0
281
     0
  0
ENDSEC
  0
SECTION
  2
TABLES
  0
TABLE
  2
VPORT
  5
8
330
0
100
AcDbSymbolTable
 70
     1
  0
VPORT
  5
29
330
8
100
AcDbSymbolTableRecord
100
AcDbViewportTableRecord
  2
*ACTIVE
 70
     0
 10
0.0
 20
0.0
 11
1.0
 21
1.0
 12
0.0
 22
0.0
 13
0.0
 23
0.0
 14
0.5
 24
0.5
 15
0.5
 25
0.5
 16
0.0
 26
0.0
 36
1.0
 17
17.49954166229163
 27
-7.500055553680619
 37
0.0
 40
15.00011110736124
 41
2.33325493885226
 42
50.0
 43
0.0
 44
0.0
 50
0.0
 51
0.0
 71
     0
 72
   100
 73
     1
 74
     3
 75
     0
 76
     0
 77
     0
 78
     0
  0
ENDTAB
  0
TABLE
  2
LTYPE
  5
5
330
0
100
AcDbSymbolTable
 70
     1
  0
LTYPE
  5
14
330
5
100
AcDbSymbolTableRecord
100
AcDbLinetypeTableRecord
  2
BYBLOCK
 70
     0
  3

 72
    65
 73
     0
 40
0.0
  0
LTYPE
  5
15
330
5
100
AcDbSymbolTableRecord
100
AcDbLinetypeTableRecord
  2
BYLAYER
 70
     0
  3

 72
    65
 73
     0
 40
0.0
  0
LTYPE
  5
16
330
5
100
AcDbSymbolTableRecord
100
AcDbLinetypeTableRecord
  2
CONTINUOUS
 70
     0
  3
Solid line
 72
    65
 73
     0
 40
0.0
  0
ENDTAB
  0
TABLE
  2
LAYER
  5
2
330
0
100
AcDbSymbolTable
 70
     2
  0
LAYER
  5
10
330
2
100
AcDbSymbolTableRecord
100
AcDbLayerTableRecord
  2
0
 70
     0
 62
     7
  6
CONTINUOUS
  0
LAYER
  5
40
330
2
100
AcDbSymbolTableRecord
100
AcDbLayerTableRecord
  2
LAYER_1
 70
     0
 62
     7
  6
CONTINUOUS
  0
ENDTAB
  0
TABLE
  2
STYLE
  5
3
330
0
100
AcDbSymbolTable
 70
     1
  0
STYLE
  5
11
330
3
100
AcDbSymbolTableRecord
100
AcDbTextStyleTableRecord
  2
STANDARD
 70
     0
 40
0.0
 41
1.0
 50
0.0
 71
     0
 42
0.2
  3
txt
  4

  0
ENDTAB
  0
TABLE
  2
VIEW
  5
6
330
0
100
AcDbSymbolTable
 70
     0
  0
ENDTAB
  0
TABLE
  2
UCS
  5
7
330
0
100
AcDbSymbolTable
 70
     0
  0
ENDTAB
  0
TABLE
  2
APPID
  5
9
330
0
100
AcDbSymbolTable
 70
     1
  0
APPID
  5
12
330
9
100
AcDbSymbolTableRecord
100
AcDbRegAppTableRecord
  2
ACAD
 70
     0
  0
ENDTAB
  0
TABLE
  2
DIMSTYLE
  5
A
330
0
100
AcDbSymbolTable
 70
     1
  0
DIMSTYLE
105
27
330
A
100
AcDbSymbolTableRecord
100
AcDbDimStyleTableRecord
  2
STANDARD
 70
     0
  3

  4

  5

  6

  7

 40
1.0
 41
0.18
 42
0.0625
 43
0.38
 44
0.18
 45
0.0
 46
0.0
 47
0.0
 48
0.0
140
0.18
141
0.09
142
0.0
143
25.4
144
1.0
145
0.0
146
1.0
147
0.09
 71
     0
 72
     0
 73
     1
 74
     1
 75
     0
 76
     0
 77
     0
 78
     0
170
     0
171
     2
172
     0
173
     0
174
     0
175
     0
176
     0
177
     0
178
     0
270
     2
271
     4
272
     4
273
     2
274
     2
340
11
275
     0
280
     0
281
     0
282
     0
283
     1
284
     0
285
     0
286
     0
287
     3
288
     0
  0
ENDTAB
  0
TABLE
  2
BLOCK_RECORD
  5
1
330
0
100
AcDbSymbolTable
 70
     3
  0
BLOCK_RECORD
  5
1F
330
1
100
AcDbSymbolTableRecord
100
AcDbBlockTableRecord
  2
*MODEL_SPACE
  0
BLOCK_RECORD
  5
1B
330
1
100
AcDbSymbolTableRecord
100
AcDbBlockTableRecord
  2
*PAPER_SPACE
  0
BLOCK_RECORD
  5
41
330
1
100
AcDbSymbolTableRecord
100
AcDbBlockTableRecord
  2
BLOCK_2
  0
BLOCK_RECORD
  5
45
330
1
100
AcDbSymbolTableRecord
100
AcDbBlockTableRecord
  2
BLOCK_3
  0
ENDTAB
  0
ENDSEC
  0
SECTION
  2
BLOCKS
  0
BLOCK
  5
20
330
1F
100
AcDbEntity
  8
0
100
AcDbBlockBegin
  2
*MODEL_SPACE
 70
     0
 10
0.0
 20
0.0
 30
0.0
  3
*MODEL_SPACE
  1

  0
ENDBLK
  5
21
330
1F
100
AcDbEntity
  8
0
100
AcDbBlockEnd
  0
BLOCK
  5
1C
330
1B
100
AcDbEntity
 67
     1
  8
0
100
AcDbBlockBegin
  2
*PAPER_SPACE
 70
     0
 10
0.0
 20
0.0
 30
0.0
  3
*PAPER_SPACE
  1

  0
ENDBLK
  5
1D
330
1B
100
AcDbEntity
 67
     1
  8
0
100
AcDbBlockEnd
  0
BLOCK
  5
43
330
41
100
AcDbEntity
  8
0
100
AcDbBlockBegin
  2
BLOCK_2
 70
     0
 10
0.0
 20
0.0
 30
0.0
  3
BLOCK_2
  1

  0
INSERT
  5
46
330
41
100
AcDbEntity
  8
LAYER_1
100
AcDbBlockReference
  2
BLOCK_3
 10
0.0
 20
0.0
 30
0.0
  0
SPLINE
  5
4F
330
41
100
AcDbEntity
  8
LAYER_1
 62
   250
100
AcDbSpline
210
0.0
220
0.0
230
1.0
 70
    11
 71
     3
 72
    29
 73
    25
 74
     0
 42
0.0000000001
 43
0.0000000001
 12
1.0
 22
0.0
 32
0.0
 13
1.0
 23
0.0
 33
0.0
 40
0.0
 40
0.0
 40
0.0
 40
0.0
 40
1.0
 40
1.0
 40
1.0
 40
2.0
 40
2.0
 40
2.0
 40
3.0
 40
3.0
 40
3.0
 40
4.0
 40
4.0
 40
4.0
 40
5.0
 40
5.0
 40
5.0
 40
6.0
 40
6.0
 40
6.0
 40
7.0
 40
7.0
 40
7.0
 40
8.0
 40
8.0
 40
8.0
 40
8.0
 10
33.16128225792252
 20
-10.60466027021967
 30
0.0
 10
33.16128225792252
 20
-12.20374316149961
 30
0.0
 10
31.89064777397613
 20
-13.50005597299586
 30
0.0
 10
30.32324070499566
 20
-13.50005597299586
 30
0.0
 10
30.32324070499566
 20
-13.50005597299586
 30
0.0
 10
4.940990485280375
 20
-13.50005597299586
 30
0.0
 10
4.940990485280375
 20
-13.50005597299586
 30
0.0
 10
3.373583416299909
 20
-13.50005597299586
 30
0.0
 10
2.102948932353523
 20
-12.20374316149961
 30
0.0
 10
2.102948932353523
 20
-10.60466027021967
 30
0.0
 10
2.102948932353523
 20
-10.60466027021967
 30
0.0
 10
2.102948932353523
 20
-4.395451678772208
 30
0.0
 10
2.102948932353523
 20
-4.395451678772208
 30
0.0
 10
2.102948932353523
 20
-2.796368787492273
 30
0.0
 10
3.373583416299909
 20
-1.500055975996021
 30
0.0
 10
4.940990485280375
 20
-1.500055975996021
 30
0.0
 10
4.940990485280375
 20
-1.500055975996021
 30
0.0
 10
30.32324070499566
 20
-1.500055975996021
 30
0.0
 10
30.32324070499566
 20
-1.500055975996021
 30
0.0
 10
31.89064777397613
 20
-1.500055975996021
 30
0.0
 10
33.16128225792252
 20
-2.796368787492273
 30
0.0
 10
33.16128225792252
 20
-4.395451678772208
 30
0.0
 10
33.16128225792252
 20
-4.395451678772208
 30
0.0
 10
33.16128225792252
 20
-10.60466027021967
 30
0.0
 10
33.16128225792252
 20
-10.60466027021967
 30
0.0
  0
ENDBLK
  5
44
330
41
100
AcDbEntity
  8
0
100
AcDbBlockEnd
  0
BLOCK
  5
47
330
45
100
AcDbEntity
  8
0
100
AcDbBlockBegin
  2
BLOCK_3
 70
     0
 10
0.0
 20
0.0
 30
0.0
  3
BLOCK_3
  1

  0
SPLINE
  5
49
330
45
100
AcDbEntity
  8
LAYER_1
 62
   250
100
AcDbSpline
210
0.0
220
0.0
230
1.0
 70
    11
 71
     3
 72
    17
 73
    13
 74
     0
 42
0.0000000001
 43
0.0000000001
 12
1.0
 22
0.0
 32
0.0
 13
1.0
 23
0.0
 33
0.0
 40
0.0
 40
0.0
 40
0.0
 40
0.0
 40
1.0
 40
1.0
 40
1.0
 40
2.0
 40
2.0
 40
2.0
 40
3.0
 40
3.0
 40
3.0
 40
4.0
 40
4.0
 40
4.0
 40
4.0
 10
7.656141958369897
 20
-4.0810653939726
 30
0.0
 10
6.262156408344299
 20
-4.0810653939726
 30
0.0
 10
5.132115598262651
 20
-5.211102981441672
 30
0.0
 10
5.132115598262651
 20
-6.605075641024026
 30
0.0
 10
5.132115598262651
 20
-7.999051523216388
 30
0.0
 10
6.262156408344299
 20
-9.129089110687385
 30
0.0
 10
7.656141958369897
 20
-9.129089110687385
 30
0.0
 10
9.050101727506439
 20
-9.129089110687385
 30
0.0
 10
10.18014253758873
 20
-7.999051523216388
 30
0.0
 10
10.18014253758873
 20
-6.605075641024026
 30
0.0
 10
10.18014253758873
 20
-5.211102981441672
 30
0.0
 10
9.050101727506439
 20
-4.0810653939726
 30
0.0
 10
7.656141958369897
 20
-4.0810653939726
 30
0.0
  0
SPLINE
  5
4A
330
45
100
AcDbEntity
  8
LAYER_1
 62
   250
100
AcDbSpline
210
0.0
220
0.0
230
1.0
 70
    11
 71
     3
 72
    17
 73
    13
 74
     0
 42
0.0000000001
 43
0.0000000001
 12
1.0
 22
0.0
 32
0.0
 13
1.0
 23
0.0
 33
0.0
 40
0.0
 40
0.0
 40
0.0
 40
0.0
 40
1.0
 40
1.0
 40
1.0
 40
2.0
 40
2.0
 40
2.0
 40
3.0
 40
3.0
 40
3.0
 40
4.0
 40
4.0
 40
4.0
 40
4.0
 10
13.89282110840788
 20
-4.0810653939726
 30
0.0
 10
12.49884844882681
 20
-4.0810653939726
 30
0.0
 10
11.36880763874516
 20
-5.211102981441672
 30
0.0
 10
11.36880763874516
 20
-6.605075641024026
 30
0.0
 10
11.36880763874516
 20
-7.999051523216388
 30
0.0
 10
12.49884844882681
 20
-9.129089110687385
 30
0.0
 10
13.89282110840788
 20
-9.129089110687385
 30
0.0
 10
15.28679376798895
 20
-9.129089110687385
 30
0.0
 10
16.4168345780706
 20
-7.999051523216388
 30
0.0
 10
16.4168345780706
 20
-6.605075641024026
 30
0.0
 10
16.4168345780706
 20
-5.211102981441672
 30
0.0
 10
15.28679376798895
 20
-4.0810653939726
 30
0.0
 10
13.89282110840788
 20
-4.0810653939726
 30
0.0
  0
SPLINE
  5
4B
330
45
100
AcDbEntity
  8
LAYER_1
 62
   250
100
AcDbSpline
210
0.0
220
0.0
230
1.0
 70
    11
 71
     3
 72
    65
 73
    61
 74
     0
 42
0.0000000001
 43
0.0000000001
 12
1.0
 22
0.0
 32
0.0
 13
1.0
 23
0.0
 33
0.0
 40
0.0
 40
0.0
 40
0.0
 40
0.0
 40
1.0
 40
1.0
 40
1.0
 40
2.0
 40
2.0
 40
2.0
 40
3.0
 40
3.0
 40
3.0
 40
4.0
 40
4.0
 40
4.0
 40
5.0
 40
5.0
 40
5.0
 40
6.0
 40
6.0
 40
6.0
 40
7.0
 40
7.0
 40
7.0
 40
8.0
 40
8.0
 40
8.0
 40
9.0
 40
9.0
 40
9.0
 40
10.0
 40
10.0
 40
10.0
 40
11.0
 40
11.0
 40
11.0
 40
12.0
 40
12.0
 40
12.0
 40
13.0
 40
13.0
 40
13.0
 40
14.0
 40
14.0
 40
14.0
 40
15.0
 40
15.0
 40
15.0
 40
16.0
 40
16.0
 40
16.0
 40
17.0
 40
17.0
 40
17.0
 40
18.0
 40
18.0
 40
18.0
 40
19.0
 40
19.0
 40
19.0
 40
20.0
 40
20.0
 40
20.0
 40
20.0
 10
22.11665249890253
 20
-4.269294886003737
 30
0.0
 10
21.80889313837466
 20
-4.269294886003737
 30
0.0
 10
21.5577615001831
 20
-4.508966919105576
 30
0.0
 10
21.53807779155469
 20
-4.811750568088378
 30
0.0
 10
21.53637625289038
 20
-4.817029205078263
 30
0.0
 10
21.53520322244854
 20
-4.822288506401677
 30
0.0
 10
21.53520322244854
 20
-4.827354451057803
 30
0.0
 10
21.53520322244854
 20
-4.827354451057803
 30
0.0
 10
21.53520322244854
 20
-8.66504600201088
 30
0.0
 10
21.53520322244854
 20
-8.66504600201088
 30
0.0
 10
21.53520322244854
 20
-8.66504600201088
 30
0.0
 10
18.65078581724699
 20
-4.553116691244672
 30
0.0
 10
18.65078581724699
 20
-4.553116691244672
 30
0.0
 10
18.54652790277772
 20
-4.383101397177875
 30
0.0
 10
18.35953911602044
 20
-4.269294886003737
 30
0.0
 10
18.14549328642531
 20
-4.269294886003737
 30
0.0
 10
17.8180115459348
 20
-4.269294886003737
 30
0.0
 10
17.55251995266024
 20
-4.534776811446339
 30
0.0
 10
17.55251995266024
 20
-4.8622617745475
 30
0.0
 10
17.55251995266024
 20
-4.8622617745475
 30
0.0
 10
17.55251995266024
 20
-9.311952955229511
 30
0.0
 10
17.55251995266024
 20
-9.311952955229511
 30
0.0
 10
17.55251995266024
 20
-9.311952955229511
 30
0.0
 10
17.55495624665627
 20
-9.311952955229511
 30
0.0
 10
17.55495624665627
 20
-9.311952955229511
 30
0.0
 10
17.57952543371997
 20
-9.612313200660179
 30
0.0
 10
17.83061840057794
 20
-9.848537039879158
 30
0.0
 10
18.13730785421892
 20
-9.848537039879158
 30
0.0
 10
18.4440101983057
 20
-9.848537039879158
 30
0.0
 10
18.69510316516239
 20
-9.612313200660179
 30
0.0
 10
18.71967235222738
 20
-9.311952955229511
 30
0.0
 10
18.71967235222738
 20
-9.311952955229511
 30
0.0
 10
18.72209575577759
 20
-9.311952955229511
 30
0.0
 10
18.72209575577759
 20
-9.311952955229511
 30
0.0
 10
18.72209575577759
 20
-9.311952955229511
 30
0.0
 10
18.72209575577759
 20
-6.508642226317556
 30
0.0
 10
18.72209575577759
 20
-6.508642226317556
 30
0.0
 10
18.72209575577759
 20
-6.508642226317556
 30
0.0
 10
21.59527269344577
 20
-10.61461937437287
 30
0.0
 10
21.59527269344577
 20
-10.61461937437287
 30
0.0
 10
21.69877007169427
 20
-10.78793139959883
 30
0.0
 10
21.88764086333605
 20
-10.90437078404565
 30
0.0
 10
22.10417454870403
 20
-10.90437078404565
 30
0.0
 10
22.41502761589247
 20
-10.90437078404565
 30
0.0
 10
22.66956233141072
 20
-10.66503390249963
 30
0.0
 10
22.69464713625172
 20
-10.36065183840875
 30
0.0
 10
22.69612953736096
 20
-10.35523140653033
 30
0.0
 10
22.69714788246974
 20
-10.34983031031839
 30
0.0
 10
22.69714788246974
 20
-10.34462901599568
 30
0.0
 10
22.69714788246974
 20
-10.34462901599568
 30
0.0
 10
22.69714788246974
 20
-9.848537039879158
 30
0.0
 10
22.69714788246974
 20
-9.848537039879158
 30
0.0
 10
22.69714788246974
 20
-9.848537039879158
 30
0.0
 10
22.69714788246974
 20
-4.827354451057803
 30
0.0
 10
22.69714788246974
 20
-4.827354451057803
 30
0.0
 10
22.69714788246974
 20
-4.822791233733161
 30
0.0
 10
22.69643890802644
 20
-4.818070108464808
 30
0.0
 10
22.69530454891754
 20
-4.813319979695464
 30
0.0
 10
22.67639426695315
 20
-4.509798352770936
 30
0.0
 10
22.42494036765223
 20
-4.269294886003737
 30
0.0
 10
22.11665249890253
 20
-4.269294886003737
 30
0.0
  0
SPLINE
  5
4C
330
45
100
AcDbEntity
  8
LAYER_1
 62
   250
100
AcDbSpline
210
0.0
220
0.0
230
1.0
 70
    11
 71
     3
 72
   245
 73
   241
 74
     0
 42
0.0000000001
 43
0.0000000001
 12
1.0
 22
0.0
 32
0.0
 13
1.0
 23
0.0
 33
0.0
 40
0.0
 40
0.0
 40
0.0
 40
0.0
 40
1.0
 40
1.0
 40
1.0
 40
2.0
 40
2.0
 40
2.0
 40
3.0
 40
3.0
 40
3.0
 40
4.0
 40
4.0
 40
4.0
 40
5.0
 40
5.0
 40
5.0
 40
6.0
 40
6.0
 40
6.0
 40
7.0
 40
7.0
 40
7.0
 40
8.0
 40
8.0
 40
8.0
 40
9.0
 40
9.0
 40
9.0
 40
10.0
 40
10.0
 40
10.0
 40
11.0
 40
11.0
 40
11.0
 40
12.0
 40
12.0
 40
12.0
 40
13.0
 40
13.0
 40
13.0
 40
14.0
 40
14.0
 40
14.0
 40
15.0
 40
15.0
 40
15.0
 40
16.0
 40
16.0
 40
16.0
 40
17.0
 40
17.0
 40
17.0
 40
18.0
 40
18.0
 40
18.0
 40
19.0
 40
19.0
 40
19.0
 40
20.0
 40
20.0
 40
20.0
 40
21.0
 40
21.0
 40
21.0
 40
22.0
 40
22.0
 40
22.0
 40
23.0
 40
23.0
 40
23.0
 40
24.0
 40
24.0
 40
24.0
 40
25.0
 40
25.0
 40
25.0
 40
26.0
 40
26.0
 40
26.0
 40
27.0
 40
27.0
 40
27.0
 40
28.0
 40
28.0
 40
28.0
 40
29.0
 40
29.0
 40
29.0
 40
30.0
 40
30.0
 40
30.0
 40
31.0
 40
31.0
 40
31.0
 40
32.0
 40
32.0
 40
32.0
 40
33.0
 40
33.0
 40
33.0
 40
34.0
 40
34.0
 40
34.0
 40
35.0
 40
35.0
 40
35.0
 40
36.0
 40
36.0
 40
36.0
 40
37.0
 40
37.0
 40
37.0
 40
38.0
 40
38.0
 40
38.0
 40
39.0
 40
39.0
 40
39.0
 40
40.0
 40
40.0
 40
40.0
 40
41.0
 40
41.0
 40
41.0
 40
42.0
 40
42.0
 40
42.0
 40
43.0
 40
43.0
 40
43.0
 40
44.0
 40
44.0
 40
44.0
 40
45.0
 40
45.0
 40
45.0
 40
46.0
 40
46.0
 40
46.0
 40
47.0
 40
47.0
 40
47.0
 40
48.0
 40
48.0
 40
48.0
 40
49.0
 40
49.0
 40
49.0
 40
50.0
 40
50.0
 40
50.0
 40
51.0
 40
51.0
 40
51.0
 40
52.0
 40
52.0
 40
52.0
 40
53.0
 40
53.0
 40
53.0
 40
54.0
 40
54.0
 40
54.0
 40
55.0
 40
55.0
 40
55.0
 40
56.0
 40
56.0
 40
56.0
 40
57.0
 40
57.0
 40
57.0
 40
58.0
 40
58.0
 40
58.0
 40
59.0
 40
59.0
 40
59.0
 40
60.0
 40
60.0
 40
60.0
 40
61.0
 40
61.0
 40
61.0
 40
62.0
 40
62.0
 40
62.0
 40
63.0
 40
63.0
 40
63.0
 40
64.0
 40
64.0
 40
64.0
 40
65.0
 40
65.0
 40
65.0
 40
66.0
 40
66.0
 40
66.0
 40
67.0
 40
67.0
 40
67.0
 40
68.0
 40
68.0
 40
68.0
 40
69.0
 40
69.0
 40
69.0
 40
70.0
 40
70.0
 40
70.0
 40
71.0
 40
71.0
 40
71.0
 40
72.0
 40
72.0
 40
72.0
 40
73.0
 40
73.0
 40
73.0
 40
74.0
 40
74.0
 40
74.0
 40
75.0
 40
75.0
 40
75.0
 40
76.0
 40
76.0
 40
76.0
 40
77.0
 40
77.0
 40
77.0
 40
78.0
 40
78.0
 40
78.0
 40
79.0
 40
79.0
 40
79.0
 40
80.0
 40
80.0
 40
80.0
 40
80.0
 10
30.1315870837922
 20
-10.31382085383144
 30
0.0
 10
30.13141950801397
 20
-10.30326357985103
 30
0.0
 10
30.13074920490426
 20
-10.29270630587061
 30
0.0
 10
30.12998866868412
 20
-10.28212325100371
 30
0.0
 10
30.12935703690671
 20
-10.27325462524179
 30
0.0
 10
30.128751186019
 20
-10.26441178036829
 30
0.0
 10
30.12771995046633
 20
-10.25565916860841
 30
0.0
 10
30.12658559135679
 20
-10.24600422573666
 30
0.0
 10
30.12494850491577
 20
-10.23639439942301
 30
0.0
 10
30.12331141847475
 20
-10.22675879221773
 30
0.0
 10
30.12166144158856
 20
-10.2169749449039
 30
0.0
 10
30.11999857425784
 20
-10.20721687847721
 30
0.0
 10
30.11787165092793
 20
-10.19760705216291
 30
0.0
 10
30.11604120782091
 20
-10.18947962695593
 30
0.0
 10
30.1138111609367
 20
-10.18142309919291
 30
0.0
 10
30.11163267582997
 20
-10.17332790009757
 30
0.0
 10
30.10869365450246
 20
-10.16239680322968
 30
0.0
 10
30.10567729050778
 20
-10.1515301585825
 30
0.0
 10
30.10211952784739
 20
-10.14086331582456
 30
0.0
 10
30.09979924785277
 20
-10.13388314017229
 30
0.0
 10
30.09710514496874
 20
-10.12697386196397
 30
0.0
 10
30.09448838475188
 20
-10.12003235764272
 30
0.0
 10
30.09023453809208
 20
-10.10870810222023
 30
0.0
 10
30.0858260061005
 20
-10.09749341557335
 30
0.0
 10
30.08087607544385
 20
-10.08652364737251
 30
0.0
 10
30.07967726411295
 20
-10.08384243493365
 30
0.0
 10
30.07883938522501
 20
-10.08108387982698
 30
0.0
 10
30.07758901211599
 20
-10.07841555783265
 30
0.0
 10
30.07758901211599
 20
-10.07841555783265
 30
0.0
 10
30.07801439678223
 20
-10.07820931072147
 30
0.0
 10
30.07801439678223
 20
-10.07820931072147
 30
0.0
 10
30.07801439678223
 20
-10.07820931072147
 30
0.0
 10
27.54196125203114
 20
-4.606657152143002
 30
0.0
 10
27.54196125203114
 20
-4.606657152143002
 30
0.0
 10
27.48648077924761
 20
-4.486357079593542
 30
0.0
 10
27.39002158365208
 20
-4.384193862342534
 30
0.0
 10
27.26054995989717
 20
-4.323821465901129
 30
0.0
 10
27.24570016792529
 20
-4.316896074635702
 30
0.0
 10
27.23061834795382
 20
-4.311101819870445
 30
0.0
 10
27.21551074709329
 20
-4.305526702657684
 30
0.0
 10
27.21451818287357
 20
-4.305162547602156
 30
0.0
 10
27.21357718043132
 20
-4.304695268992965
 30
0.0
 10
27.21257172576643
 20
-4.304334336548088
 30
0.0
 10
27.19772193379391
 20
-4.298942908171304
 30
0.0
 10
27.1827303469335
 20
-4.294498927456788
 30
0.0
 10
27.1677000887395
 20
-4.290386875686157
 30
0.0
 10
27.16446458719041
 20
-4.28949743502138
 30
0.0
 10
27.16129353786331
 20
-4.288388856802825
 30
0.0
 10
27.15803225542515
 20
-4.287554200524888
 30
0.0
 10
27.14440705567387
 20
-4.284080225753613
 30
0.0
 10
27.13073029414319
 20
-4.281447352480935
 30
0.0
 10
27.11702775172473
 20
-4.278994945429733
 30
0.0
 10
27.11189735484596
 20
-4.278066833432653
 30
0.0
 10
27.10684430063309
 20
-4.276919583879228
 30
0.0
 10
27.10168812286462
 20
-4.276130044158746
 30
0.0
 10
27.08976446177572
 20
-4.274328604550787
 30
0.0
 10
27.07785369113263
 20
-4.273239361998062
 30
0.0
 10
27.0659171395992
 20
-4.272195235998941
 30
0.0
 10
27.05859536716853
 20
-4.271534600722462
 30
0.0
 10
27.05131226607208
 20
-4.270696721835159
 30
0.0
 10
27.04395182230719
 20
-4.2703132311138
 30
0.0
 10
27.03420664632566
 20
-4.269836284670732
 30
0.0
 10
27.02451303212289
 20
-4.269929740392442
 30
0.0
 10
27.01480652747367
 20
-4.269945853447621
 30
0.0
 10
27.00508713238184
 20
-4.269929740392442
 30
0.0
 10
26.99539351817779
 20
-4.269836284670732
 30
0.0
 10
26.98564834219627
 20
-4.2703132311138
 30
0.0
 10
26.97828789843201
 20
-4.270693499224508
 30
0.0
 10
26.97100479733364
 20
-4.271534600722462
 30
0.0
 10
26.96368302490425
 20
-4.272195235998941
 30
0.0
 10
26.95174647337082
 20
-4.273239361998062
 30
0.0
 10
26.93983570272773
 20
-4.274331827162079
 30
0.0
 10
26.92791204163819
 20
-4.276133266769397
 30
0.0
 10
26.92276875431553
 20
-4.276919583879228
 30
0.0
 10
26.91771570010265
 20
-4.278066833432653
 30
0.0
 10
26.91259819366777
 20
-4.278991722819081
 30
0.0
 10
26.89889565124868
 20
-4.281444129870284
 30
0.0
 10
26.88520599927539
 20
-4.284077003142962
 30
0.0
 10
26.87156790907894
 20
-4.287554200524888
 30
0.0
 10
26.86831951708531
 20
-4.288388856802825
 30
0.0
 10
26.86514846775822
 20
-4.289490989798795
 30
0.0
 10
26.86190007576395
 20
-4.290383653075506
 30
0.0
 10
26.84686981756995
 20
-4.294495704844853
 30
0.0
 10
26.83187823071018
 20
-4.298939685559369
 30
0.0
 10
26.81701554829249
 20
-4.304337559160664
 30
0.0
 10
26.81606165540635
 20
-4.30468560116037
 30
0.0
 10
26.81514643385188
 20
-4.305133544103089
 30
0.0
 10
26.81419254096446
 20
-4.305484808713447
 30
0.0
 10
26.79904626877163
 20
-4.311069593758803
 30
0.0
 10
26.78393866791175
 20
-4.316879961580522
 30
0.0
 10
26.76905020460692
 20
-4.323821465901129
 30
0.0
 10
26.63960436174043
 20
-4.384184194508656
 30
0.0
 10
26.54315805659007
 20
-4.486318408259956
 30
0.0
 10
26.48766469336201
 20
-4.606586254699057
 30
0.0
 10
26.48766469336201
 20
-4.606586254699057
 30
0.0
 10
23.95158576772122
 20
-10.07820931072147
 30
0.0
 10
23.95158576772122
 20
-10.07820931072147
 30
0.0
 10
23.95158576772122
 20
-10.07820931072147
 30
0.0
 10
23.95201115238746
 20
-10.07841555783265
 30
0.0
 10
23.95201115238746
 20
-10.07841555783265
 30
0.0
 10
23.816519691089
 20
-10.36897262028302
 30
0.0
 10
23.94224019551752
 20
-10.71435274285044
 30
0.0
 10
24.23279081274401
 20
-10.84984420414954
 30
0.0
 10
24.52335432041568
 20
-10.985335665448
 30
0.0
 10
24.8687408882057
 20
-10.85962805146273
 30
0.0
 10
25.0042323495048
 20
-10.56906454379106
 30
0.0
 10
25.0042323495048
 20
-10.56906454379106
 30
0.0
 10
25.0046448437265
 20
-10.56926434568093
 30
0.0
 10
25.0046448437265
 20
-10.56926434568093
 30
0.0
 10
25.0046448437265
 20
-10.56926434568093
 30
0.0
 10
27.01480652747367
 20
-6.232348440619109
 30
0.0
 10
27.01480652747367
 20
-6.232348440619109
 30
0.0
 10
27.01480652747367
 20
-6.232348440619109
 30
0.0
 10
28.64436494927564
 20
-9.748159149180287
 30
0.0
 10
28.64436494927564
 20
-9.748159149180287
 30
0.0
 10
28.64436494927564
 20
-9.748159149180287
 30
0.0
 10
27.0142393479189
 20
-9.757114785440688
 30
0.0
 10
27.0142393479189
 20
-9.757114785440688
 30
0.0
 10
27.0142393479189
 20
-9.757114785440688
 30
0.0
 10
27.0142393479189
 20
-9.757578841440512
 30
0.0
 10
27.0142393479189
 20
-9.757578841440512
 30
0.0
 10
26.69364110474894
 20
-9.757578841440512
 30
0.0
 10
26.43374396435233
 20
-10.01747598183712
 30
0.0
 10
26.43374396435233
 20
-10.33807422500772
 30
0.0
 10
26.43374396435233
 20
-10.65867246817768
 30
0.0
 10
26.69364110474894
 20
-10.91856960857493
 30
0.0
 10
27.0142393479189
 20
-10.91856960857493
 30
0.0
 10
27.0142393479189
 20
-10.91856960857493
 30
0.0
 10
27.0142393479189
 20
-10.91904655501864
 30
0.0
 10
27.0142393479189
 20
-10.91904655501864
 30
0.0
 10
27.0142393479189
 20
-10.91904655501864
 30
0.0
 10
29.55162020844618
 20
-10.90510553937801
 30
0.0
 10
29.55162020844618
 20
-10.90510553937801
 30
0.0
 10
29.55162020844618
 20
-10.90510553937801
 30
0.0
 10
29.55162020844618
 20
-10.9046285929343
 30
0.0
 10
29.55162020844618
 20
-10.9046285929343
 30
0.0
 10
29.55646701554724
 20
-10.9046285929343
 30
0.0
 10
29.56114624687264
 20
-10.90402274204659
 30
0.0
 10
29.56595438264076
 20
-10.90390672804583
 30
0.0
 10
29.57227070040654
 20
-10.90375204271341
 30
0.0
 10
29.57857412772779
 20
-10.90331376760328
 30
0.0
 10
29.58490333593874
 20
-10.90295283515969
 30
0.0
 10
29.59828361724654
 20
-10.90218585371633
 30
0.0
 10
29.61157366544329
 20
-10.90118684427338
 30
0.0
 10
29.62469613786373
 20
-10.89953686738783
 30
0.0
 10
29.62927224563225
 20
-10.89895679738918
 30
0.0
 10
29.6338354629569
 20
-10.89813825416963
 30
0.0
 10
29.6384244611706
 20
-10.89744217017022
 30
0.0
 10
29.65355784291954
 20
-10.89516700673048
 30
0.0
 10
29.66853653933542
 20
-10.8924857942897
 30
0.0
 10
29.68325742686394
 20
-10.88906982651848
 30
0.0
 10
29.68577106352521
 20
-10.88848331129788
 30
0.0
 10
29.68825891929742
 20
-10.88776144641069
 30
0.0
 10
29.69075966551544
 20
-10.88713625985522
 30
0.0
 10
29.70768481903975
 20
-10.8829662010871
 30
0.0
 10
29.72431349234118
 20
-10.87815806531834
 30
0.0
 10
29.7406199045326
 20
-10.87254427677328
 30
0.0
 10
29.74167692097497
 20
-10.87217045388451
 30
0.0
 10
29.74273393741734
 20
-10.87174506921892
 30
0.0
 10
29.74380384430423
 20
-10.87137124633079
 30
0.0
 10
29.76147664360478
 20
-10.86516449734255
 30
0.0
 10
29.77872405823717
 20
-10.85816498602188
 30
0.0
 10
29.79557186909559
 20
-10.85034693148103
 30
0.0
 10
29.79597147287149
 20
-10.85015357481502
 30
0.0
 10
29.79639685753773
 20
-10.8500311155936
 30
0.0
 10
29.79679646131491
 20
-10.84984420414954
 30
0.0
 10
29.79747965486915
 20
-10.84952194303889
 30
0.0
 10
29.79808550575686
 20
-10.84912233926235
 30
0.0
 10
29.79875580886658
 20
-10.84880007815106
 30
0.0
 10
29.81502354972377
 20
-10.84112381850067
 30
0.0
 10
29.8308659059173
 20
-10.83276436529282
 30
0.0
 10
29.84626998699878
 20
-10.82366371153323
 30
0.0
 10
29.84866760966121
 20
-10.82224576264599
 30
0.0
 10
29.85101367054489
 20
-10.82077625198127
 30
0.0
 10
29.85341129320669
 20
-10.81932607698495
 30
0.0
 10
29.86685602673714
 20
-10.81110841866692
 30
0.0
 10
29.87995271826852
 20
-10.8024202591284
 30
0.0
 10
29.89264980602208
 20
-10.79317136525706
 30
0.0
 10
29.89633647312647
 20
-10.79050304326209
 30
0.0
 10
29.89994579756434
 20
-10.78777671426706
 30
0.0
 10
29.90354223155767
 20
-10.78503104960491
 30
0.0
 10
29.91456356153662
 20
-10.77660069895376
 30
0.0
 10
29.92526263040557
 20
-10.76782875152613
 30
0.0
 10
29.93565232860711
 20
-10.75864430987679
 30
0.0
 10
29.93991906571016
 20
-10.75487385488392
 30
0.0
 10
29.94412135059056
 20
-10.75105183811358
 30
0.0
 10
29.94825918325025
 20
-10.74717181434382
 30
0.0
 10
29.95770787901019
 20
-10.73831607902772
 30
0.0
 10
29.96680853276977
 20
-10.72916386348938
 30
0.0
 10
29.9756384871981
 20
-10.71970227728427
 30
0.0
 10
29.97968608674673
 20
-10.71536464273664
 30
0.0
 10
29.98368212451596
 20
-10.71100767252317
 30
0.0
 10
29.98757503873089
 20
-10.70656046919864
 30
0.0
 10
29.99618585560416
 20
-10.69675728621642
 30
0.0
 10
30.00439706869961
 20
-10.68665762301389
 30
0.0
 10
30.01233758246252
 20
-10.67628726047818
 30
0.0
 10
30.01559886490068
 20
-10.67202052337513
 30
0.0
 10
30.01883436644978
 20
-10.66775378627208
 30
0.0
 10
30.02196674444329
 20
-10.66340326127927
 30
0.0
 10
30.03006194353927
 20
-10.65222080074595
 30
0.0
 10
30.03766730574764
 20
-10.64073541476782
 30
0.0
 10
30.0449632972899
 20
-10.62896643901262
 30
0.0
 10
30.04728357728452
 20
-10.62520242924106
 30
0.0
 10
30.04960385728043
 20
-10.62145775513725
 30
0.0
 10
30.05183390416463
 20
-10.61764862881144
 30
0.0
 10
30.0592330192612
 20
-10.60506755505799
 30
0.0
 10
30.0661036261385
 20
-10.59219644630426
 30
0.0
 10
30.07254884834764
 20
-10.57904174777282
 30
0.0
 10
30.07418593478931
 20
-10.5756837870023
 30
0.0
 10
30.07582302123033
 20
-10.57233871667439
 30
0.0
 10
30.07740854589452
 20
-10.5689614202374
 30
0.0
 10
30.08368619232735
 20
-10.55548446059659
 30
0.0
 10
30.0894095496493
 20
-10.54174969206585
 30
0.0
 10
30.09466885097272
 20
-10.52773777898192
 30
0.0
 10
30.09600945719279
 20
-10.52418001632153
 30
0.0
 10
30.09732428252316
 20
-10.52062225366178
 30
0.0
 10
30.09858754607606
 20
-10.51703871011426
 30
0.0
 10
30.10335701051188
 20
-10.50354886002636
 30
0.0
 10
30.10759796672587
 20
-10.48986565327566
 30
0.0
 10
30.1113619764968
 20
-10.47594397330279
 30
0.0
 10
30.11267680182717
 20
-10.47112294708757
 30
0.0
 10
30.11390139404712
 20
-10.46630192087621
 30
0.0
 10
30.11508731493349
 20
-10.46145511377514
 30
0.0
 10
30.11812945981851
 20
-10.44897716357536
 30
0.0
 10
30.12078489136767
 20
-10.43638319937739
 30
0.0
 10
30.12298915736346
 20
-10.42359587851277
 30
0.0
 10
30.12422664002794
 20
-10.41657058630305
 30
0.0
 10
30.12524498513672
 20
-10.40951951320555
 30
0.0
 10
30.12622465891256
 20
-10.40242976877447
 30
0.0
 10
30.1276812791321
 20
-10.39165980246222
 30
0.0
 10
30.12894454268501
 20
-10.38085761003833
 30
0.0
 10
30.12980820246137
 20
-10.36990717750332
 30
0.0
 10
30.13056873868214
 20
-10.36040691996592
 30
0.0
 10
30.1309425615709
 20
-10.35088088153881
 30
0.0
 10
30.13125193223638
 20
-10.34132906222329
 30
0.0
 10
30.13141950801397
 20
-10.33556703356839
 30
0.0
 10
30.13211559201274
 20
-10.32994035457816
 30
0.0
 10
30.13211559201274
 20
-10.32413320936645
 30
0.0
 10
30.13211559201274
 20
-10.32065278937387
 30
0.0
 10
30.1316515360142
 20
-10.31728838338013
 30
0.0
 10
30.1315870837922
 20
-10.31382085383144
 30
0.0
  0
SPLINE
  5
4D
330
45
100
AcDbEntity
  8
LAYER_1
 62
   250
100
AcDbSpline
210
0.0
220
0.0
230
1.0
 70
    11
 71
     3
 72
    35
 73
    31
 74
     0
 42
0.0000000001
 43
0.0000000001
 12
1.0
 22
0.0
 32
0.0
 13
1.0
 23
0.0
 33
0.0
 40
0.0
 40
0.0
 40
0.0
 40
0.0
 40
1.0
 40
1.0
 40
1.0
 40
2.0
 40
2.0
 40
2.0
 40
3.0
 40
3.0
 40
3.0
 40
4.0
 40
4.0
 40
4.0
 40
5.0
 40
5.0
 40
5.0
 40
6.0
 40
6.0
 40
6.0
 40
7.0
 40
7.0
 40
7.0
 40
8.0
 40
8.0
 40
8.0
 40
9.0
 40
9.0
 40
9.0
 40
10.0
 40
10.0
 40
10.0
 40
10.0
 10
15.83633919450339
 20
-9.743637825799881
 30
0.0
 10
15.83633919450339
 20
-9.743637825799881
 30
0.0
 10
15.83633919450339
 20
-9.743173769801984
 30
0.0
 10
15.83633919450339
 20
-9.743173769801984
 30
0.0
 10
15.83633919450339
 20
-9.743173769801984
 30
0.0
 10
11.94930302231109
 20
-9.757114785440688
 30
0.0
 10
11.94930302231109
 20
-9.757114785440688
 30
0.0
 10
11.94930302231109
 20
-9.757114785440688
 30
0.0
 10
11.94930302231109
 20
-9.757578841440512
 30
0.0
 10
11.94930302231109
 20
-9.757578841440512
 30
0.0
 10
11.62870477914113
 20
-9.757578841440512
 30
0.0
 10
11.36880763874516
 20
-10.01747598183712
 30
0.0
 10
11.36880763874516
 20
-10.33807422500772
 30
0.0
 10
11.36880763874516
 20
-10.65867246817768
 30
0.0
 10
11.62870477914113
 20
-10.91856960857493
 30
0.0
 10
11.94930302231109
 20
-10.91856960857493
 30
0.0
 10
11.94930302231109
 20
-10.91856960857493
 30
0.0
 10
11.94930302231109
 20
-10.91904655501864
 30
0.0
 10
11.94930302231109
 20
-10.91904655501864
 30
0.0
 10
11.94930302231109
 20
-10.91904655501864
 30
0.0
 10
15.83633919450339
 20
-10.90510553937801
 30
0.0
 10
15.83633919450339
 20
-10.90510553937801
 30
0.0
 10
15.83633919450339
 20
-10.90510553937801
 30
0.0
 10
15.83633919450339
 20
-10.9046285929343
 30
0.0
 10
15.83633919450339
 20
-10.9046285929343
 30
0.0
 10
16.15695032811852
 20
-10.9046285929343
 30
0.0
 10
16.4168345780706
 20
-10.64473145253769
 30
0.0
 10
16.4168345780706
 20
-10.32413320936645
 30
0.0
 10
16.4168345780706
 20
-10.00353496619713
 30
0.0
 10
16.15695032811852
 20
-9.743637825799881
 30
0.0
 10
15.83633919450339
 20
-9.743637825799881
 30
0.0
  0
SPLINE
  5
4E
330
45
100
AcDbEntity
  8
LAYER_1
 62
   250
100
AcDbSpline
210
0.0
220
0.0
230
1.0
 70
    11
 71
     3
 72
    35
 73
    31
 74
     0
 42
0.0000000001
 43
0.0000000001
 12
1.0
 22
0.0
 32
0.0
 13
1.0
 23
0.0
 33
0.0
 40
0.0
 40
0.0
 40
0.0
 40
0.0
 40
1.0
 40
1.0
 40
1.0
 40
2.0
 40
2.0
 40
2.0
 40
3.0
 40
3.0
 40
3.0
 40
4.0
 40
4.0
 40
4.0
 40
5.0
 40
5.0
 40
5.0
 40
6.0
 40
6.0
 40
6.0
 40
7.0
 40
7.0
 40
7.0
 40
8.0
 40
8.0
 40
8.0
 40
9.0
 40
9.0
 40
9.0
 40
10.0
 40
10.0
 40
10.0
 40
10.0
 10
9.599660044465407
 20
-9.743637825799881
 30
0.0
 10
9.599660044465407
 20
-9.743637825799881
 30
0.0
 10
9.599660044465407
 20
-9.743173769801984
 30
0.0
 10
9.599660044465407
 20
-9.743173769801984
 30
0.0
 10
9.599660044465407
 20
-9.743173769801984
 30
0.0
 10
5.712610981829859
 20
-9.757114785440688
 30
0.0
 10
5.712610981829859
 20
-9.757114785440688
 30
0.0
 10
5.712610981829859
 20
-9.757114785440688
 30
0.0
 10
5.712610981829859
 20
-9.757578841440512
 30
0.0
 10
5.712610981829859
 20
-9.757578841440512
 30
0.0
 10
5.392012738659256
 20
-9.757578841440512
 30
0.0
 10
5.132115598262651
 20
-10.01747598183712
 30
0.0
 10
5.132115598262651
 20
-10.33807422500772
 30
0.0
 10
5.132115598262651
 20
-10.65867246817768
 30
0.0
 10
5.392012738659256
 20
-10.91856960857493
 30
0.0
 10
5.712610981829859
 20
-10.91856960857493
 30
0.0
 10
5.712610981829859
 20
-10.91856960857493
 30
0.0
 10
5.712610981829859
 20
-10.91904655501864
 30
0.0
 10
5.712610981829859
 20
-10.91904655501864
 30
0.0
 10
5.712610981829859
 20
-10.91904655501864
 30
0.0
 10
9.599660044465407
 20
-10.90510553937801
 30
0.0
 10
9.599660044465407
 20
-10.90510553937801
 30
0.0
 10
9.599660044465407
 20
-10.90510553937801
 30
0.0
 10
9.599660044465407
 20
-10.9046285929343
 30
0.0
 10
9.599660044465407
 20
-10.9046285929343
 30
0.0
 10
9.920245397192124
 20
-10.9046285929343
 30
0.0
 10
10.18014253758873
 20
-10.64473145253769
 30
0.0
 10
10.18014253758873
 20
-10.32413320936645
 30
0.0
 10
10.18014253758873
 20
-10.00353496619713
 30
0.0
 10
9.920245397192124
 20
-9.743637825799881
 30
0.0
 10
9.599660044465407
 20
-9.743637825799881
 30
0.0
  0
ENDBLK
  5
48
330
45
100
AcDbEntity
  8
0
100
AcDbBlockEnd
  0
ENDSEC
  0
SECTION
  2
ENTITIES
  0
INSERT
  5
42
330
1F
100
AcDbEntity
  8
LAYER_1
100
AcDbBlockReference
  2
BLOCK_2
 10
0.0
 20
0.0
 30
0.0
  0
ENDSEC
  0
SECTION
  2
OBJECTS
  0
DICTIONARY
  5
C
330
0
100
AcDbDictionary
  3
ACAD_GROUP
350
D
  3
ACAD_LAYOUT
350
1A
  3
ACAD_MATERIAL
350
3B
  3
ACAD_MLEADERSTYLE
350
72
  3
ACAD_MLINESTYLE
350
17
  3
ACAD_PLOTSETTINGS
350
19
  3
ACAD_VISUALSTYLE
350
2A
  3
ACDBHEADERROUNDTRIPXREC
350
50
  3
ACDBVARIABLEDICTIONARY
350
70
  0
DICTIONARY
  5
D
102
{ACAD_REACTORS
330
C
102
}
330
C
100
AcDbDictionary
  0
DICTIONARY
  5
1A
102
{ACAD_REACTORS
330
C
102
}
330
C
100
AcDbDictionary
  0
DICTIONARY
  5
3B
102
{ACAD_REACTORS
330
C
102
}
330
C
100
AcDbDictionary
  3
BYBLOCK
350
3D
  3
BYLAYER
350
3C
  3
GLOBAL
350
3E
  0
DICTIONARY
  5
72
102
{ACAD_REACTORS
330
C
102
}
330
C
100
AcDbDictionary
  0
DICTIONARY
  5
17
102
{ACAD_REACTORS
330
C
102
}
330
C
100
AcDbDictionary
  3
STANDARD
350
18
  0
DICTIONARY
  5
19
102
{ACAD_REACTORS
330
C
102
}
330
C
100
AcDbDictionary
  0
DICTIONARY
  5
2A
102
{ACAD_REACTORS
330
C
102
}
330
C
100
AcDbDictionary
  3
2DWIREFRAME
350
2F
  3
3DWIREFRAME
350
30
  3
3D_HIDDEN
350
31
  3
BASIC
350
32
  3
BRIGHTEN
350
36
  3
COLORCHANGE
350
3A
  3
CONCEPTUAL
350
34
  3
DIM
350
35
  3
FACEPATTERN
350
39
  3
FLAT
350
2B
  3
FLATWITHEDGES
350
2C
  3
GOURAUD
350
2D
  3
GOURAUDWITHEDGES
350
2E
  3
LINEPATTERN
350
38
  3
REALISTIC
350
33
  3
THICKEN
350
37
  0
DICTIONARY
  5
50
102
{ACAD_REACTORS
330
C
102
}
330
C
100
AcDbDictionary
  3
CEPSNTYPE
350
59
  3
DIMSTYLEDATA
350
6F
  3
FINGERPRINTGUID
350
5A
  3
HYPERLINKBASE
350
53
  3
INSUNITS
350
58
  3
LAYOUTDICT
350
55
  3
LWETCUNION
350
57
  3
PLOTSETDICT
350
56
  3
PSVPSCALE
350
5C
  3
PUCSBASE
350
5F
  3
PUCSORGBACK
350
65
  3
PUCSORGBOTTOM
350
61
  3
PUCSORGFRONT
350
64
  3
PUCSORGLEFT
350
62
  3
PUCSORGRIGHT
350
63
  3
PUCSORGTOP
350
60
  3
PUCSORTHOREF
350
5D
  3
PUCSORTHOVIEW
350
5E
  3
STYLESHEET
350
54
  3
TSTACKALIGN
350
51
  3
TSTACKSIZE
350
52
  3
UCSBASE
350
68
  3
UCSORGBACK
350
6E
  3
UCSORGBOTTOM
350
6A
  3
UCSORGFRONT
350
6D
  3
UCSORGLEFT
350
6B
  3
UCSORGRIGHT
350
6C
  3
UCSORGTOP
350
69
  3
UCSORTHOREF
350
66
  3
UCSORTHOVIEW
350
67
  3
VERSIONGUID
350
5B
  0
DICTIONARY
  5
70
102
{ACAD_REACTORS
330
C
102
}
330
C
100
AcDbDictionary
  3
DIMASSOC
350
73
  3
HIDETEXT
350
74
  0
MATERIAL
  5
3D
102
{ACAD_REACTORS
330
3B
102
}
102
{ACAD_XDICTIONARY
360
77
102
}
330
3B
100
AcDbMaterial
  1
ByBlock
  0
MATERIAL
  5
3C
102
{ACAD_REACTORS
330
3B
102
}
102
{ACAD_XDICTIONARY
360
75
102
}
330
3B
100
AcDbMaterial
  1
ByLayer
  0
MATERIAL
  5
3E
102
{ACAD_REACTORS
330
3B
102
}
102
{ACAD_XDICTIONARY
360
79
102
}
330
3B
100
AcDbMaterial
  1
Global
  0
MLINESTYLE
  5
18
102
{ACAD_REACTORS
330
17
102
}
330
17
100
AcDbMlineStyle
  2
Standard
 70
     0
  3

 62
   256
 51
90.0
 52
90.0
 71
     2
 49
0.5
 62
   256
  6
BYLAYER
 49
-0.5
 62
   256
  6
BYLAYER
  0
ACAD_PROXY_OBJECT
  5
2F
102
{ACAD_REACTORS
330
2A
102
}
330
2A
100
AcDbProxyObject
 90
      499
 91
      501
 93
      436
310
42CC9915DA5C99599C985B595049028333333333333E3BF0000000000000FB0107901411070040501600405405064090741402480A0340
1001
ACAD
1000
AcDbSavedByObjectVersion
1070
     0
  0
ACAD_PROXY_OBJECT
  5
30
102
{ACAD_REACTORS
330
2A
102
}
330
2A
100
AcDbProxyObject
 90
      499
 91
      501
 93
      436
310
42CCD915DA5C99599C985B595059028333333333333E3BF0000000000000FB0107901411070040501600405405064090741402480A0340
1001
ACAD
1000
AcDbSavedByObjectVersion
1070
     0
  0
ACAD_PROXY_OBJECT
  5
31
102
{ACAD_REACTORS
330
2A
102
}
330
2A
100
AcDbProxyObject
 90
      499
 91
      501
 93
      500
310
424CD108121A5919195B90640502408333333333333E3BF0000000000000FB01079024090700405020000000000001110200405405064090740C02480A0340
1001
ACAD
1000
AcDbSavedByObjectVersion
1070
     0
  0
ACAD_PROXY_OBJECT
  5
32
102
{ACAD_REACTORS
330
2A
102
}
330
2A
100
AcDbProxyObject
 90
      499
 91
      501
 93
      388
310
4150985CDA58D07406404333333333333E3BF0000000000000FB0107A41107004050150841D405064090741402480A0350
1001
ACAD
1000
AcDbSavedByObjectVersion
1070
     0
  0
ACAD_PROXY_OBJECT
  5
36
102
{ACAD_REACTORS
330
2A
102
}
330
2A
100
AcDbProxyObject
 90
      499
 91
      501
 93
      428
310
42109C9A59DA1D195B90C409028333333333333E3BF0000000000000FB010790141107004050150841D405064090741402480A029950
1001
ACAD
1000
AcDbSavedByObjectVersion
1070
     0
  0
ACAD_PROXY_OBJECT
  5
3A
102
{ACAD_REACTORS
330
2A
102
}
330
2A
100
AcDbProxyObject
 90
      499
 91
      501
 93
      452
310
42D0DBDB1BDC90DA185B99D95104090240C333333333333E3BF0000000000000FB0108901411070040501508421405064090741402480A0350
1001
ACAD
1000
AcDbSavedByObjectVersion
1070
     0
  0
ACAD_PROXY_OBJECT
  5
34
102
{ACAD_REACTORS
330
2A
102
}
330
2A
100
AcDbProxyObject
 90
      499
 91
      501
 93
      500
310
4290DBDB98D95C1D1D585B10940D028333333333333E3BF0000000000000FB0107902409070040501000000000000111010841D405064090740C02480A0340
1001
ACAD
1000
AcDbSavedByObjectVersion
1070
     0
  0
ACAD_PROXY_OBJECT
  5
35
102
{ACAD_REACTORS
330
2A
102
}
330
2A
100
AcDbProxyObject
 90
      499
 91
      501
 93
      412
310
40D11A5B50B409028333333333333E3BF0000000000000FB010790141107004050150841D405064090741402480A02677FFFFFD0
1001
ACAD
1000
AcDbSavedByObjectVersion
1070
     0
  0
ACAD_PROXY_OBJECT
  5
39
102
{ACAD_REACTORS
330
2A
102
}
330
2A
100
AcDbProxyObject
 90
      499
 91
      501
 93
      444
310
42D19858D95C185D1D195C9B90F409028333333333333E3BF0000000000000FB010790141107004050150841D405064090741402480A0350
1001
ACAD
1000
AcDbSavedByObjectVersion
1070
     0
  0
ACAD_PROXY_OBJECT
  5
2B
102
{ACAD_REACTORS
330
2A
102
}
330
2A
100
AcDbProxyObject
 90
      499
 91
      501
 93
      388
310
41119B185D240901404333333333333E3BF0000000000000F9010740A41107004050150841D405064090741402480A1B50
1001
ACAD
1000
AcDbSavedByObjectVersion
1070
     0
  0
ACAD_PROXY_OBJECT
  5
2C
102
{ACAD_REACTORS
330
2A
102
}
330
2A
100
AcDbProxyObject
 90
      499
 91
      501
 93
      476
310
43519B185D15DA5D1A115919D95CD0140901404333333333333E3BF0000000000000F9010740901411070040501600405405064090741402480A1B50
1001
ACAD
1000
AcDbSavedByObjectVersion
1070
     0
  0
ACAD_PROXY_OBJECT
  5
2D
102
{ACAD_REACTORS
330
2A
102
}
330
2A
100
AcDbProxyObject
 90
      499
 91
      501
 93
      412
310
41D1DBDD5C985D5910240902404333333333333E3BF0000000000000F9010740A411070040501641D405064090741402480A1B50
1001
ACAD
1000
AcDbSavedByObjectVersion
1070
     0
  0
ACAD_PROXY_OBJECT
  5
2E
102
{ACAD_REACTORS
330
2A
102
}
330
2A
100
AcDbProxyObject
 90
      499
 91
      501
 93
      500
310
4411DBDD5C985D5915DA5D1A115919D95CD0340902404333333333333E3BF0000000000000F9010740901411070040501600405405064090741402480A1B50
1001
ACAD
1000
AcDbSavedByObjectVersion
1070
     0
  0
ACAD_PROXY_OBJECT
  5
38
102
{ACAD_REACTORS
330
2A
102
}
330
2A
100
AcDbProxyObject
 90
      499
 91
      501
 93
      444
310
42D31A5B995C185D1D195C9B90E409028333333333333E3BF0000000000000FB010790141107004050750841D405064090741402483A0350
1001
ACAD
1000
AcDbSavedByObjectVersion
1070
     0
  0
ACAD_PROXY_OBJECT
  5
33
102
{ACAD_REACTORS
330
2A
102
}
330
2A
100
AcDbProxyObject
 90
      499
 91
      501
 93
      420
310
425499585B1A5CDD1A58D08409028333333333333E3BF0000000000000FB01079019070040501508421405064090741402480A1B40
1001
ACAD
1000
AcDbSavedByObjectVersion
1070
     0
  0
ACAD_PROXY_OBJECT
  5
37
102
{ACAD_REACTORS
330
2A
102
}
330
2A
100
AcDbProxyObject
 90
      499
 91
      501
 93
      412
310
41D51A1A58DAD95B90D409028333333333333E3BF0000000000000FB010790141107004050150C41D405064090741402480A0350
1001
ACAD
1000
AcDbSavedByObjectVersion
1070
     0
  0
XRECORD
  5
59
102
{ACAD_REACTORS
330
50
102
}
330
50
100
AcDbXrecord
 90
        0
  0
XRECORD
  5
6F
102
{ACAD_REACTORS
330
50
102
}
330
50
100
AcDbXrecord
1000
DSTYLE
1002
{
1070
   340
340
11
1002
}
  0
XRECORD
  5
5A
102
{ACAD_REACTORS
330
50
102
}
330
50
100
AcDbXrecord
  1
{BBE94B45-AFAB-4EAE-34AC-17144D2ADEEE}
  0
XRECORD
  5
53
102
{ACAD_REACTORS
330
50
102
}
330
50
100
AcDbXrecord
  1

  0
XRECORD
  5
58
102
{ACAD_REACTORS
330
50
102
}
330
50
100
AcDbXrecord
 90
        1
  0
XRECORD
  5
55
102
{ACAD_REACTORS
330
50
102
}
330
50
100
AcDbXrecord
340
1A
  0
XRECORD
  5
57
102
{ACAD_REACTORS
330
50
102
}
330
50
100
AcDbXrecord
 90
    10269
  0
XRECORD
  5
56
102
{ACAD_REACTORS
330
50
102
}
330
50
100
AcDbXrecord
340
19
  0
XRECORD
  5
5C
102
{ACAD_REACTORS
330
50
102
}
330
50
100
AcDbXrecord
 40
0.0
  0
XRECORD
  5
5F
102
{ACAD_REACTORS
330
50
102
}
330
50
100
AcDbXrecord
340
0
  0
XRECORD
  5
65
102
{ACAD_REACTORS
330
50
102
}
330
50
100
AcDbXrecord
 10
0.0
 20
0.0
 30
0.0
  0
XRECORD
  5
61
102
{ACAD_REACTORS
330
50
102
}
330
50
100
AcDbXrecord
 10
0.0
 20
0.0
 30
0.0
  0
XRECORD
  5
64
102
{ACAD_REACTORS
330
50
102
}
330
50
100
AcDbXrecord
 10
0.0
 20
0.0
 30
0.0
  0
XRECORD
  5
62
102
{ACAD_REACTORS
330
50
102
}
330
50
100
AcDbXrecord
 10
0.0
 20
0.0
 30
0.0
  0
XRECORD
  5
63
102
{ACAD_REACTORS
330
50
102
}
330
50
100
AcDbXrecord
 10
0.0
 20
0.0
 30
0.0
  0
XRECORD
  5
60
102
{ACAD_REACTORS
330
50
102
}
330
50
100
AcDbXrecord
 10
0.0
 20
0.0
 30
0.0
  0
XRECORD
  5
5D
102
{ACAD_REACTORS
330
50
102
}
330
50
100
AcDbXrecord
340
0
  0
XRECORD
  5
5E
102
{ACAD_REACTORS
330
50
102
}
330
50
100
AcDbXrecord
 70
     0
  0
XRECORD
  5
54
102
{ACAD_REACTORS
330
50
102
}
330
50
100
AcDbXrecord
  1

  0
XRECORD
  5
51
102
{ACAD_REACTORS
330
50
102
}
330
50
100
AcDbXrecord
 90
        1
  0
XRECORD
  5
52
102
{ACAD_REACTORS
330
50
102
}
330
50
100
AcDbXrecord
 90
       70
  0
XRECORD
  5
68
102
{ACAD_REACTORS
330
50
102
}
330
50
100
AcDbXrecord
340
0
  0
XRECORD
  5
6E
102
{ACAD_REACTORS
330
50
102
}
330
50
100
AcDbXrecord
 10
0.0
 20
0.0
 30
0.0
  0
XRECORD
  5
6A
102
{ACAD_REACTORS
330
50
102
}
330
50
100
AcDbXrecord
 10
0.0
 20
0.0
 30
0.0
  0
XRECORD
  5
6D
102
{ACAD_REACTORS
330
50
102
}
330
50
100
AcDbXrecord
 10
0.0
 20
0.0
 30
0.0
  0
XRECORD
  5
6B
102
{ACAD_REACTORS
330
50
102
}
330
50
100
AcDbXrecord
 10
0.0
 20
0.0
 30
0.0
  0
XRECORD
  5
6C
102
{ACAD_REACTORS
330
50
102
}
330
50
100
AcDbXrecord
 10
0.0
 20
0.0
 30
0.0
  0
XRECORD
  5
69
102
{ACAD_REACTORS
330
50
102
}
330
50
100
AcDbXrecord
 10
0.0
 20
0.0
 30
0.0
  0
XRECORD
  5
66
102
{ACAD_REACTORS
330
50
102
}
330
50
100
AcDbXrecord
340
0
  0
XRECORD
  5
67
102
{ACAD_REACTORS
330
50
102
}
330
50
100
AcDbXrecord
 70
     0
  0
XRECORD
  5
5B
102
{ACAD_REACTORS
330
50
102
}
330
50
100
AcDbXrecord
  1
{FAEB1C32-E019-11D5-929B-00C0DF256EC4}
  0
DICTIONARYVAR
  5
73
102
{ACAD_REACTORS
330
70
102
}
330
70
100
DictionaryVariables
280
     0
  1
2
  0
DICTIONARYVAR
  5
74
102
{ACAD_REACTORS
330
70
102
}
330
70
100
DictionaryVariables
280
     0
  1
1
  0
DICTIONARY
  5
77
330
3D
100
AcDbDictionary
280
     1
  3
ACAD_XREC_ROUNDTRIP
360
78
  0
DICTIONARY
  5
75
330
3C
100
AcDbDictionary
280
     1
  3
ACAD_XREC_ROUNDTRIP
360
76
  0
DICTIONARY
  5
79
330
3E
100
AcDbDictionary
280
     1
  3
ACAD_XREC_ROUNDTRIP
360
7A
  0
XRECORD
  5
78
102
{ACAD_REACTORS
330
77
102
}
330
77
100
AcDbXrecord
102
MATERIAL
148
0.0
149
0.0
149
0.0
 93
        0
 94
      127
282
     0
 72
     1
 77
     1
171
     1
175
     1
179
     1
273
     0
  0
XRECORD
  5
76
102
{ACAD_REACTORS
330
75
102
}
330
75
100
AcDbXrecord
102
MATERIAL
148
0.0
149
0.0
149
0.0
 93
        0
 94
      127
282
     0
 72
     1
 77
     1
171
     1
175
     1
179
     1
273
     0
  0
XRECORD
  5
7A
102
{ACAD_REACTORS
330
79
102
}
330
79
100
AcDbXrecord
102
MATERIAL
148
0.0
149
0.0
149
0.0
 93
        0
 94
      127
282
     0
 72
     1
 77
     1
171
     1
175
     1
179
     1
273
     0
  0
ENDSEC
  0
EOF
