<?xml version="1.0" encoding="UTF-8" standalone="no"?>
<!-- Created with Inkscape (http://www.inkscape.org/) -->

<svg
   xmlns:dc="http://purl.org/dc/elements/1.1/"
   xmlns:cc="http://creativecommons.org/ns#"
   xmlns:rdf="http://www.w3.org/1999/02/22-rdf-syntax-ns#"
   xmlns:svg="http://www.w3.org/2000/svg"
   xmlns="http://www.w3.org/2000/svg"
   xmlns:sodipodi="http://sodipodi.sourceforge.net/DTD/sodipodi-0.dtd"
   xmlns:inkscape="http://www.inkscape.org/namespaces/inkscape"
   width="210mm"
   height="297mm"
   viewBox="0 0 744.09448819 1052.3622047"
   id="svg2"
   version="1.1"
   inkscape:version="0.91 r13725"
   sodipodi:docname="wooden_tag.svg">
  <defs
     id="defs4">
    <clipPath
       id="clipPath5961"
       clipPathUnits="userSpaceOnUse">
      <path
         inkscape:connector-curvature="0"
         id="path5963"
         d="m 0,119.06 212.6,0 L 212.6,0 0,0 0,119.06 Z" />
    </clipPath>
  </defs>
  <sodipodi:namedview
     id="base"
     pagecolor="#ffffff"
     bordercolor="#666666"
     borderopacity="1.0"
     inkscape:pageopacity="0.0"
     inkscape:pageshadow="2"
     inkscape:zoom="1.979899"
     inkscape:cx="368.33806"
     inkscape:cy="140.90757"
     inkscape:document-units="mm"
     inkscape:current-layer="layer1"
     showgrid="false"
     inkscape:window-width="1440"
     inkscape:window-height="837"
     inkscape:window-x="-4"
     inkscape:window-y="-4"
     inkscape:window-maximized="1" />
  <metadata
     id="metadata7">
    <rdf:RDF>
      <cc:Work
         rdf:about="">
        <dc:format>image/svg+xml</dc:format>
        <dc:type
           rdf:resource="http://purl.org/dc/dcmitype/StillImage" />
        <dc:title></dc:title>
      </cc:Work>
    </rdf:RDF>
  </metadata>
  <g
     inkscape:label="Layer 1"
     inkscape:groupmode="layer"
     id="layer1">
    <path
       inkscape:connector-curvature="0"
       id="path5967"
       style="fill:#231f20;fill-opacity:1;fill-rule:nonzero;stroke:none"
       d="m 392.01641,815.66759 -135.59375,0 c -1.7,0 -3.07875,1.37875 -3.07875,3.08 l 0,135.5925 c 0,1.70125 1.37875,3.08 3.07875,3.08 l 135.59375,0 c 1.70125,0 3.07875,-1.37875 3.07875,-3.08 l 0,-135.5925 c 0,-1.70125 -1.3775,-3.08 -3.07875,-3.08" />
    <path
       inkscape:connector-curvature="0"
       id="path5971"
       style="fill:#ffffff;fill-opacity:1;fill-rule:nonzero;stroke:none"
       d="m 265.45003,823.6851 c 0,1.9575 -1.58625,3.54375 -3.54375,3.54375 -1.95625,0 -3.5425,-1.58625 -3.5425,-3.54375 0,-1.9575 1.58625,-3.54375 3.5425,-3.54375 1.9575,0 3.54375,1.58625 3.54375,3.54375" />
    <path
       inkscape:connector-curvature="0"
       id="path5975"
       style="fill:#ffffff;fill-opacity:1;fill-rule:nonzero;stroke:none"
       d="m 390.07591,823.6851 c 0,1.9575 -1.58625,3.54375 -3.54375,3.54375 -1.95625,0 -3.5425,-1.58625 -3.5425,-3.54375 0,-1.9575 1.58625,-3.54375 3.5425,-3.54375 1.9575,0 3.54375,1.58625 3.54375,3.54375" />
    <path
       inkscape:connector-curvature="0"
       id="path5979"
       style="fill:#ffffff;fill-opacity:1;fill-rule:nonzero;stroke:none"
       d="m 265.45003,949.4021 c 0,1.9575 -1.58625,3.54375 -3.54375,3.54375 -1.95625,0 -3.5425,-1.58625 -3.5425,-3.54375 0,-1.9575 1.58625,-3.54375 3.5425,-3.54375 1.9575,0 3.54375,1.58625 3.54375,3.54375" />
    <path
       inkscape:connector-curvature="0"
       id="path5983"
       style="fill:#ffffff;fill-opacity:1;fill-rule:nonzero;stroke:none"
       d="m 390.07591,949.4021 c 0,1.9575 -1.58625,3.54375 -3.54375,3.54375 -1.95625,0 -3.5425,-1.58625 -3.5425,-3.54375 0,-1.9575 1.58625,-3.54375 3.5425,-3.54375 1.9575,0 3.54375,1.58625 3.54375,3.54375" />
    <path
       inkscape:connector-curvature="0"
       id="path5987"
       style="fill:#ffffff;fill-opacity:1;fill-rule:nonzero;stroke:none"
       d="m 343.42579,910.19535 c -1.37,0 -2.4875,1.06625 -2.575,2.41375 -0.007,0.0237 -0.0125,0.0475 -0.0125,0.07 l 0,17.08 -12.8375,-18.3 c -0.465,-0.7575 -1.29625,-1.26375 -2.25,-1.26375 -1.4575,0 -2.63875,1.18125 -2.63875,2.63875 l 0,19.805 0.0113,0 c 0.10875,1.33625 1.22625,2.3875 2.59125,2.3875 1.365,0 2.4825,-1.05125 2.5925,-2.3875 l 0.01,0 0,-12.4775 12.78875,18.275 c 0.46,0.77125 1.30125,1.29 2.265,1.29 1.3825,0 2.51625,-1.06625 2.6275,-2.42 0.006,-0.025 0.0113,-0.0488 0.0113,-0.0712 l 0,-2.20875 0,-22.3475 c 0,-0.02 -0.004,-0.0412 -0.009,-0.0625 -0.0838,-1.35125 -1.2025,-2.42125 -2.575,-2.42125" />
    <path
       inkscape:connector-curvature="0"
       id="path5991"
       style="fill:#ffffff;fill-opacity:1;fill-rule:nonzero;stroke:none"
       d="m 377.59154,937.0976 c -0.001,-0.0475 -0.004,-0.0937 -0.007,-0.14125 -0.002,-0.0388 -0.005,-0.0788 -0.01,-0.1175 -0.005,-0.0425 -0.0125,-0.0862 -0.0188,-0.12875 -0.007,-0.0438 -0.015,-0.0875 -0.025,-0.13 -0.007,-0.0362 -0.0175,-0.0712 -0.0275,-0.1075 -0.0138,-0.0488 -0.0263,-0.0975 -0.0425,-0.145 -0.01,-0.0312 -0.0225,-0.0612 -0.0337,-0.0925 -0.0188,-0.05 -0.0387,-0.1 -0.0612,-0.14875 -0.005,-0.0125 -0.009,-0.025 -0.0138,-0.0362 l 0.001,-0.001 -11.2875,-24.3525 c -0.24625,-0.535 -0.67625,-0.99 -1.2525,-1.25875 -0.065,-0.03 -0.1325,-0.0562 -0.2,-0.0812 -0.004,-0.001 -0.009,-0.004 -0.0125,-0.005 -0.0662,-0.0238 -0.13375,-0.0438 -0.2,-0.0625 -0.015,-0.004 -0.0288,-0.009 -0.0437,-0.0125 -0.06,-0.015 -0.12125,-0.0275 -0.1825,-0.0375 -0.0225,-0.005 -0.045,-0.01 -0.0675,-0.0137 -0.0537,-0.008 -0.10625,-0.0125 -0.15875,-0.0175 -0.0337,-0.002 -0.065,-0.006 -0.0987,-0.007 -0.0425,-0.003 -0.0863,-0.003 -0.12875,-0.003 -0.0437,0 -0.0875,0 -0.13,0.003 -0.0337,0.001 -0.065,0.005 -0.0987,0.007 -0.0525,0.005 -0.105,0.01 -0.15875,0.0175 -0.0225,0.004 -0.045,0.009 -0.0675,0.0137 -0.0612,0.01 -0.1225,0.0225 -0.1825,0.0375 -0.015,0.004 -0.0288,0.009 -0.0437,0.0125 -0.0663,0.0187 -0.13375,0.0387 -0.2,0.0625 -0.004,0.001 -0.007,0.004 -0.0125,0.005 -0.0675,0.025 -0.13375,0.0512 -0.20125,0.0812 -0.575,0.26875 -1.005,0.72375 -1.25125,1.25875 l -11.2875,24.3525 0.001,0.001 c -0.6025,1.2925 -0.0437,2.83 1.25,3.43375 1.29375,0.6025 2.83,0.0425 3.43375,-1.25 l 0.001,0.001 8.9475,-19.3025 7.2525,15.6475 -7.25625,0.04 0,0.001 c -1.42625,0 -2.5825,1.1575 -2.5825,2.58375 0,1.4275 1.15625,2.58375 2.5825,2.58375 l 0,0.002 11.29375,-0.0625 0,-0.001 c 0.0213,0 0.0425,-0.004 0.0638,-0.004 0.0288,-0.001 0.0562,-0.002 0.0837,-0.004 0.06,-0.004 0.11875,-0.009 0.1775,-0.0163 0.02,-0.002 0.0412,-0.005 0.0613,-0.009 0.0675,-0.01 0.13375,-0.0225 0.2,-0.0375 0.0113,-0.003 0.0213,-0.005 0.0325,-0.009 0.0763,-0.0188 0.15,-0.04 0.2225,-0.065 0.005,-0.001 0.009,-0.002 0.0138,-0.005 0.0787,-0.0275 0.15625,-0.0588 0.23125,-0.0937 0.001,0 0.004,-0.001 0.005,-0.001 0.002,-0.002 0.006,-0.004 0.009,-0.005 0.0725,-0.0337 0.1425,-0.0712 0.21125,-0.1125 0.0112,-0.006 0.0212,-0.0125 0.0325,-0.0187 0.0587,-0.0363 0.1175,-0.075 0.17375,-0.11625 0.0163,-0.0125 0.0325,-0.0238 0.0488,-0.0362 0.0487,-0.0375 0.0962,-0.0763 0.1425,-0.1175 0.02,-0.0175 0.0387,-0.0337 0.0562,-0.0512 0.0425,-0.04 0.0825,-0.08 0.1225,-0.1225 0.0175,-0.0188 0.035,-0.0388 0.0525,-0.0588 0.0387,-0.0438 0.075,-0.0875 0.11,-0.13375 0.015,-0.02 0.03,-0.0388 0.0437,-0.0575 0.0362,-0.05 0.07,-0.10125 0.1025,-0.15375 0.01,-0.0163 0.02,-0.0337 0.03,-0.05 0.0325,-0.0562 0.0638,-0.11375 0.0925,-0.1725 0.007,-0.015 0.0137,-0.03 0.0212,-0.045 0.0275,-0.06 0.0538,-0.12 0.0775,-0.1825 0.005,-0.0163 0.0112,-0.0325 0.0162,-0.0475 0.0213,-0.06 0.0413,-0.12125 0.0575,-0.18375 0.006,-0.0213 0.0113,-0.0425 0.0163,-0.0638 0.0138,-0.0562 0.0263,-0.1125 0.035,-0.16875 0.006,-0.0312 0.01,-0.0625 0.015,-0.0937 0.006,-0.0488 0.0125,-0.0963 0.0163,-0.145 0.002,-0.0425 0.005,-0.085 0.006,-0.1275 0,-0.0263 0.004,-0.0512 0.004,-0.0762 0,-0.0163 -0.002,-0.0312 -0.002,-0.0462" />
    <path
       inkscape:connector-curvature="0"
       id="path5995"
       style="fill:#ffffff;fill-opacity:1;fill-rule:nonzero;stroke:none"
       d="m 316.98041,934.55997 0,-0.003 -17.3,0.0625 0,0.003 c -1.4275,0 -2.58375,1.15625 -2.58375,2.58375 0,1.42625 1.15625,2.5825 2.58375,2.5825 l 0,0.002 17.3,-0.0625 0,-0.001 c 1.4275,0 2.58375,-1.1575 2.58375,-2.58375 0,-1.4275 -1.15625,-2.58375 -2.58375,-2.58375" />
    <path
       inkscape:connector-curvature="0"
       id="path5999"
       style="fill:#ffffff;fill-opacity:1;fill-rule:nonzero;stroke:none"
       d="m 290.72916,934.55997 0,-0.003 -17.3,0.0625 0,0.003 c -1.4275,0 -2.58375,1.15625 -2.58375,2.58375 0,1.42625 1.15625,2.5825 2.58375,2.5825 l 0,0.002 17.3,-0.0625 0,-0.001 c 1.42625,0 2.58375,-1.1575 2.58375,-2.58375 0,-1.4275 -1.1575,-2.58375 -2.58375,-2.58375" />
    <path
       inkscape:connector-curvature="0"
       id="path6003"
       style="fill:#ffffff;fill-opacity:1;fill-rule:nonzero;stroke:none"
       d="m 298.45566,919.20159 c 0.0212,0 0.0412,-0.005 0.0625,-0.006 l -0.125,0 c 0.0212,0.001 0.0412,0.006 0.0625,0.006" />
    <path
       inkscape:connector-curvature="0"
       id="path6007"
       style="fill:#ffffff;fill-opacity:1;fill-rule:nonzero;stroke:none"
       d="m 301.64566,919.20159 c 0.0212,0 0.0412,-0.005 0.0625,-0.006 l -0.125,0 c 0.0212,0.001 0.0412,0.006 0.0625,0.006" />
    <path
       inkscape:connector-curvature="0"
       id="path6011"
       style="fill:#ffffff;fill-opacity:1;fill-rule:nonzero;stroke:none"
       d="m 319.24616,917.95397 c -0.009,-0.035 -0.0175,-0.0713 -0.0262,-0.10625 -1.22375,-4.8775 -5.6325,-8.49 -10.89,-8.49 -5.25625,0 -9.66375,3.6125 -10.88875,8.48875 -0.01,0.0388 -0.02,0.0775 -0.0288,0.1175 -0.01,0.0575 -0.0175,0.11625 -0.0175,0.17625 0,0.565 0.44125,1.0225 0.99875,1.055 l 0.12375,0 3.06625,0 0.125,0 c 0.4,-0.0237 0.74125,-0.2675 0.9,-0.615 0.0163,-0.045 0.0312,-0.09 0.0488,-0.135 0.86625,-2.29125 3.07875,-3.92 5.6725,-3.92 2.595,0 4.80625,1.62875 5.67375,3.91875 0.0162,0.0425 0.03,0.0862 0.0462,0.13 0.1675,0.365 0.53375,0.62125 0.96375,0.62125 l 3.19,0 c 0.585,0 1.06,-0.475 1.06,-1.06125 0,-0.0612 -0.007,-0.12125 -0.0175,-0.18" />
    <path
       inkscape:connector-curvature="0"
       id="path6015"
       style="fill:#ffffff;fill-opacity:1;fill-rule:nonzero;stroke:none"
       d="m 298.45666,921.98384 c 0.0213,0 0.0412,0.005 0.0625,0.006 l -0.125,0 c 0.0213,-0.001 0.0412,-0.006 0.0625,-0.006" />
    <path
       inkscape:connector-curvature="0"
       id="path6019"
       style="fill:#ffffff;fill-opacity:1;fill-rule:nonzero;stroke:none"
       d="m 301.64666,921.98384 c 0.0213,0 0.0412,0.005 0.0625,0.006 l -0.125,0 c 0.0213,-0.001 0.0412,-0.006 0.0625,-0.006" />
    <path
       inkscape:connector-curvature="0"
       id="path6023"
       style="fill:#ffffff;fill-opacity:1;fill-rule:nonzero;stroke:none"
       d="m 319.24716,923.23147 c -0.009,0.035 -0.0175,0.0713 -0.0263,0.10625 -1.22375,4.8775 -5.6325,8.49 -10.89,8.49 -5.25625,0 -9.66375,-3.6125 -10.88875,-8.48875 -0.01,-0.0388 -0.02,-0.0788 -0.0288,-0.1175 -0.01,-0.0575 -0.0175,-0.11625 -0.0175,-0.17625 0,-0.565 0.4425,-1.0225 0.99875,-1.055 l 0.125,0 3.065,0 0.125,0 c 0.4,0.0237 0.74125,0.2675 0.9,0.615 0.0162,0.045 0.0312,0.09 0.0487,0.135 0.86625,2.29125 3.07875,3.92 5.6725,3.92 2.595,0 4.80625,-1.62875 5.67375,-3.91875 0.0163,-0.0425 0.03,-0.0863 0.0462,-0.13 0.1675,-0.365 0.53375,-0.62125 0.96375,-0.62125 l 3.19,0 c 0.585,0 1.06,0.475 1.06,1.06125 0,0.0612 -0.007,0.12125 -0.0175,0.18" />
    <path
       inkscape:connector-curvature="0"
       id="path6027"
       style="fill:#ffffff;fill-opacity:1;fill-rule:nonzero;stroke:none"
       d="m 272.20716,919.20159 c 0.0213,0 0.0412,-0.005 0.0625,-0.006 l -0.125,0 c 0.0213,0.001 0.0412,0.006 0.0625,0.006" />
    <path
       inkscape:connector-curvature="0"
       id="path6031"
       style="fill:#ffffff;fill-opacity:1;fill-rule:nonzero;stroke:none"
       d="m 275.39716,919.20159 c 0.0213,0 0.0412,-0.005 0.0625,-0.006 l -0.125,0 c 0.0213,0.001 0.0412,0.006 0.0625,0.006" />
    <path
       inkscape:connector-curvature="0"
       id="path6035"
       style="fill:#ffffff;fill-opacity:1;fill-rule:nonzero;stroke:none"
       d="m 292.99766,917.95397 c -0.009,-0.035 -0.0175,-0.0713 -0.0263,-0.10625 -1.22375,-4.8775 -5.6325,-8.49 -10.89,-8.49 -5.25625,0 -9.66375,3.6125 -10.88875,8.48875 -0.01,0.0388 -0.02,0.0775 -0.0288,0.1175 -0.01,0.0575 -0.0175,0.11625 -0.0175,0.17625 0,0.565 0.4425,1.0225 0.99875,1.055 l 0.125,0 3.065,0 0.125,0 c 0.4,-0.0237 0.74125,-0.2675 0.9,-0.615 0.0163,-0.045 0.0312,-0.09 0.0487,-0.135 0.86625,-2.29125 3.07875,-3.92 5.6725,-3.92 2.595,0 4.80625,1.62875 5.67375,3.91875 0.0163,0.0425 0.03,0.0862 0.0462,0.13 0.1675,0.365 0.53375,0.62125 0.96375,0.62125 l 3.19,0 c 0.585,0 1.06,-0.475 1.06,-1.06125 0,-0.0612 -0.007,-0.12125 -0.0175,-0.18" />
    <path
       inkscape:connector-curvature="0"
       id="path6039"
       style="fill:#ffffff;fill-opacity:1;fill-rule:nonzero;stroke:none"
       d="m 272.20816,921.98384 c 0.0212,0 0.0412,0.005 0.0625,0.006 l -0.125,0 c 0.0212,-0.001 0.0412,-0.006 0.0625,-0.006" />
    <path
       inkscape:connector-curvature="0"
       id="path6043"
       style="fill:#ffffff;fill-opacity:1;fill-rule:nonzero;stroke:none"
       d="m 275.39816,921.98384 c 0.0213,0 0.0412,0.005 0.0625,0.006 l -0.125,0 c 0.0213,-0.001 0.0412,-0.006 0.0625,-0.006" />
    <path
       inkscape:connector-curvature="0"
       id="path6047"
       style="fill:#ffffff;fill-opacity:1;fill-rule:nonzero;stroke:none"
       d="m 292.99866,923.23147 c -0.009,0.035 -0.0175,0.0713 -0.0262,0.10625 -1.22375,4.8775 -5.6325,8.49 -10.89,8.49 -5.25625,0 -9.66375,-3.6125 -10.88875,-8.48875 -0.01,-0.0388 -0.02,-0.0788 -0.0288,-0.1175 -0.01,-0.0575 -0.0175,-0.11625 -0.0175,-0.17625 0,-0.565 0.4425,-1.0225 0.99875,-1.055 l 0.125,0 3.065,0 0.125,0 c 0.4,0.0237 0.74125,0.2675 0.9,0.615 0.0163,0.045 0.0312,0.09 0.0488,0.135 0.86625,2.29125 3.07875,3.92 5.6725,3.92 2.595,0 4.80625,-1.62875 5.67375,-3.91875 0.0162,-0.0425 0.03,-0.0863 0.0462,-0.13 0.1675,-0.365 0.53375,-0.62125 0.96375,-0.62125 l 3.19,0 c 0.585,0 1.06,0.475 1.06,1.06125 0,0.0612 -0.007,0.12125 -0.0175,0.18" />
    <path
       inkscape:connector-curvature="0"
       id="path6051"
       style="fill:#231f20;fill-opacity:1;fill-rule:nonzero;stroke:none"
       d="m 507.13991,815.66759 -101.68125,0 c -1.275,0 -2.30875,1.03375 -2.30875,2.30875 l 0,101.68125 c 0,1.275 1.03375,2.30875 2.30875,2.30875 l 101.68125,0 c 1.275,0 2.30875,-1.03375 2.30875,-2.30875 l 0,-101.68125 c 0,-1.275 -1.03375,-2.30875 -2.30875,-2.30875" />
    <path
       inkscape:connector-curvature="0"
       id="path6055"
       style="fill:#ffffff;fill-opacity:1;fill-rule:nonzero;stroke:none"
       d="m 412.22841,821.67997 c 0,1.4675 -1.19,2.6575 -2.6575,2.6575 -1.4675,0 -2.65625,-1.19 -2.65625,-2.6575 0,-1.4675 1.18875,-2.6575 2.65625,-2.6575 1.4675,0 2.6575,1.19 2.6575,2.6575" />
    <path
       inkscape:connector-curvature="0"
       id="path6059"
       style="fill:#ffffff;fill-opacity:1;fill-rule:nonzero;stroke:none"
       d="m 505.68478,821.67997 c 0,1.4675 -1.19,2.6575 -2.6575,2.6575 -1.4675,0 -2.65625,-1.19 -2.65625,-2.6575 0,-1.4675 1.18875,-2.6575 2.65625,-2.6575 1.4675,0 2.6575,1.19 2.6575,2.6575" />
    <path
       inkscape:connector-curvature="0"
       id="path6063"
       style="fill:#ffffff;fill-opacity:1;fill-rule:nonzero;stroke:none"
       d="m 412.22841,915.9546 c 0,1.4675 -1.19,2.6575 -2.6575,2.6575 -1.4675,0 -2.65625,-1.19 -2.65625,-2.6575 0,-1.4675 1.18875,-2.6575 2.65625,-2.6575 1.4675,0 2.6575,1.19 2.6575,2.6575" />
    <path
       inkscape:connector-curvature="0"
       id="path6067"
       style="fill:#ffffff;fill-opacity:1;fill-rule:nonzero;stroke:none"
       d="m 505.68478,915.9546 c 0,1.4675 -1.19,2.6575 -2.6575,2.6575 -1.4675,0 -2.65625,-1.19 -2.65625,-2.6575 0,-1.4675 1.18875,-2.6575 2.65625,-2.6575 1.4675,0 2.6575,1.19 2.6575,2.6575" />
    <path
       inkscape:connector-curvature="0"
       id="path6071"
       style="fill:#ffffff;fill-opacity:1;fill-rule:nonzero;stroke:none"
       d="m 470.70216,886.5536 c -1.0275,0 -1.865,0.8 -1.93125,1.81 -0.005,0.0175 -0.01,0.0362 -0.01,0.0525 l 0,12.80875 -9.62625,-13.72375 c -0.3475,-0.5675 -0.9725,-0.9475 -1.68625,-0.9475 -1.09375,0 -1.97875,0.88625 -1.97875,1.97875 l 0,14.85125 0.008,0 c 0.0825,1.0025 0.92,1.79125 1.94375,1.79125 1.02375,0 1.86125,-0.78875 1.94375,-1.79125 l 0.007,0 0,-9.35625 9.59,13.70375 c 0.345,0.57875 0.97625,0.9675 1.69875,0.9675 1.0375,0 1.88625,-0.79875 1.97,-1.815 0.005,-0.0175 0.009,-0.0362 0.009,-0.0538 l 0,-1.655 0,-16.75875 c 0,-0.015 -0.002,-0.0312 -0.006,-0.0462 -0.0625,-1.01375 -0.9025,-1.81625 -1.93125,-1.81625" />
    <path
       inkscape:connector-curvature="0"
       id="path6075"
       style="fill:#ffffff;fill-opacity:1;fill-rule:nonzero;stroke:none"
       d="m 496.32278,906.72747 c 0,-0.035 -0.002,-0.07 -0.005,-0.10625 -0.003,-0.0287 -0.005,-0.0588 -0.008,-0.0875 -0.004,-0.0325 -0.01,-0.065 -0.015,-0.0963 -0.006,-0.0337 -0.0113,-0.0662 -0.0188,-0.0975 -0.006,-0.0275 -0.0125,-0.055 -0.02,-0.0812 -0.01,-0.0362 -0.02,-0.0725 -0.0325,-0.10875 -0.008,-0.0225 -0.0163,-0.0463 -0.025,-0.0688 -0.0138,-0.0388 -0.0288,-0.0763 -0.045,-0.1125 -0.005,-0.009 -0.007,-0.0175 -0.0112,-0.0275 l 0.001,0 -8.46375,-18.26125 c -0.18625,-0.4025 -0.5075,-0.7425 -0.94,-0.945 -0.0487,-0.0225 -0.1,-0.0425 -0.15,-0.06 -0.004,-0.001 -0.006,-0.004 -0.01,-0.005 -0.05,-0.0175 -0.1,-0.0325 -0.15,-0.0462 -0.01,-0.003 -0.0213,-0.006 -0.0325,-0.009 -0.045,-0.0125 -0.09,-0.0213 -0.13625,-0.0287 -0.0175,-0.004 -0.0337,-0.008 -0.0512,-0.01 -0.04,-0.006 -0.08,-0.01 -0.11875,-0.0125 -0.025,-0.002 -0.0487,-0.005 -0.0737,-0.006 -0.0325,-0.002 -0.065,-0.001 -0.0975,-0.001 -0.0325,0 -0.065,-0.001 -0.0975,0.001 -0.0238,0.001 -0.0488,0.004 -0.0725,0.006 -0.04,0.003 -0.08,0.006 -0.12,0.0125 -0.0175,0.002 -0.0338,0.006 -0.0513,0.01 -0.045,0.007 -0.0913,0.0163 -0.13625,0.0287 -0.0113,0.003 -0.0225,0.006 -0.0325,0.009 -0.05,0.0137 -0.1,0.0287 -0.15,0.0462 -0.004,0.001 -0.006,0.004 -0.01,0.004 -0.05,0.0187 -0.1,0.0388 -0.15,0.0612 -0.4325,0.2025 -0.75375,0.5425 -0.93875,0.94375 l -8.465,18.2625 0.001,0 c -0.4525,0.97 -0.0325,2.1225 0.9375,2.575 0.97,0.4525 2.1225,0.0325 2.575,-0.93625 l 0.001,0 6.70875,-14.475 5.43875,11.735 -5.44,0.03 0,0.001 c -1.07,0 -1.9375,0.8675 -1.9375,1.9375 0,1.07 0.8675,1.9375 1.9375,1.9375 l 0,0.001 8.4675,-0.0462 0,-0.003 c 0.0163,0 0.0325,-0.001 0.0487,-0.001 0.0213,-0.001 0.0413,-0.002 0.0625,-0.004 0.045,-0.002 0.09,-0.006 0.13375,-0.0113 0.015,-0.002 0.03,-0.005 0.045,-0.007 0.0512,-0.008 0.10125,-0.0163 0.15,-0.0275 0.009,-0.003 0.0163,-0.005 0.025,-0.006 0.0562,-0.0137 0.1125,-0.03 0.16625,-0.0487 0.004,-0.001 0.007,-0.003 0.0112,-0.004 0.0588,-0.0213 0.11625,-0.045 0.1725,-0.07 0.001,-0.001 0.002,-0.001 0.004,-0.003 0.002,-0.001 0.005,-0.002 0.006,-0.004 0.055,-0.025 0.1075,-0.0525 0.15875,-0.0838 0.009,-0.004 0.0163,-0.009 0.0238,-0.0137 0.045,-0.0275 0.0888,-0.0563 0.13125,-0.0875 0.0125,-0.009 0.025,-0.0187 0.0362,-0.0275 0.0375,-0.0275 0.0725,-0.0575 0.1075,-0.0875 0.0137,-0.0125 0.0275,-0.0263 0.0412,-0.0388 0.0325,-0.03 0.0625,-0.06 0.0925,-0.0913 0.0125,-0.015 0.0263,-0.0287 0.0387,-0.0437 0.0288,-0.0338 0.0563,-0.0675 0.0838,-0.10125 0.01,-0.015 0.0213,-0.0287 0.0312,-0.0437 0.0275,-0.0362 0.0525,-0.075 0.0775,-0.115 0.008,-0.0125 0.015,-0.025 0.0225,-0.0375 0.025,-0.0412 0.0475,-0.085 0.0687,-0.12875 0.006,-0.0113 0.0113,-0.0225 0.0163,-0.0338 0.0213,-0.045 0.04,-0.09 0.0575,-0.1375 0.005,-0.0113 0.01,-0.0238 0.0138,-0.035 0.0163,-0.045 0.03,-0.0912 0.0425,-0.1375 0.005,-0.0163 0.009,-0.0325 0.0125,-0.0488 0.01,-0.0412 0.0188,-0.0838 0.0263,-0.12625 0.004,-0.0237 0.007,-0.0462 0.0112,-0.07 0.005,-0.0362 0.009,-0.0725 0.0113,-0.10875 0.002,-0.0325 0.004,-0.0638 0.005,-0.0963 0.001,-0.0187 0.002,-0.0375 0.002,-0.0562 0,-0.0125 -0.001,-0.0238 -0.001,-0.035" />
    <path
       inkscape:connector-curvature="0"
       id="path6079"
       style="fill:#ffffff;fill-opacity:1;fill-rule:nonzero;stroke:none"
       d="m 450.87078,904.82447 0,-0.001 -12.97375,0.0462 0,0.001 c -1.07,0 -1.9375,0.8675 -1.9375,1.9375 0,1.07 0.8675,1.9375 1.9375,1.9375 l 0,0.001 12.97375,-0.0462 0,-0.001 c 1.07,0 1.9375,-0.8675 1.9375,-1.9375 0,-1.07 -0.8675,-1.9375 -1.9375,-1.9375" />
    <path
       inkscape:connector-curvature="0"
       id="path6083"
       style="fill:#ffffff;fill-opacity:1;fill-rule:nonzero;stroke:none"
       d="m 431.18503,904.82447 0,-0.001 -12.97375,0.0462 0,0.001 c -1.07,0 -1.9375,0.8675 -1.9375,1.9375 0,1.07 0.8675,1.9375 1.9375,1.9375 l 0,0.001 12.97375,-0.0462 0,-0.001 c 1.07,0 1.9375,-0.8675 1.9375,-1.9375 0,-1.07 -0.8675,-1.9375 -1.9375,-1.9375" />
    <path
       inkscape:connector-curvature="0"
       id="path6087"
       style="fill:#ffffff;fill-opacity:1;fill-rule:nonzero;stroke:none"
       d="m 436.97916,893.30735 c 0.0163,0 0.0312,-0.004 0.0463,-0.005 l -0.0925,0 c 0.015,0.001 0.03,0.005 0.0462,0.005" />
    <path
       inkscape:connector-curvature="0"
       id="path6091"
       style="fill:#ffffff;fill-opacity:1;fill-rule:nonzero;stroke:none"
       d="m 439.37128,893.30735 c 0.0163,0 0.0312,-0.004 0.0462,-0.005 l -0.0925,0 c 0.015,0.001 0.03,0.005 0.0462,0.005" />
    <path
       inkscape:connector-curvature="0"
       id="path6095"
       style="fill:#ffffff;fill-opacity:1;fill-rule:nonzero;stroke:none"
       d="m 452.56991,892.37172 c -0.006,-0.0263 -0.0125,-0.0538 -0.02,-0.08 -0.9175,-3.6575 -4.22375,-6.36625 -8.16625,-6.36625 -3.94125,0 -7.24625,2.70875 -8.165,6.365 -0.007,0.03 -0.015,0.0587 -0.0225,0.0888 -0.006,0.0437 -0.0125,0.0875 -0.0125,0.1325 0,0.42375 0.33125,0.76625 0.74875,0.79125 l 0.0937,0 2.29875,0 0.0937,0 c 0.3,-0.0187 0.555,-0.20125 0.675,-0.46125 0.0113,-0.0338 0.0238,-0.0688 0.0362,-0.10125 0.65,-1.71875 2.30875,-2.94 4.25375,-2.94 1.94625,0 3.605,1.22125 4.255,2.93875 0.0112,0.0325 0.0225,0.065 0.0337,0.0975 0.12625,0.27375 0.40125,0.46625 0.7225,0.46625 l 2.3925,0 c 0.44,0 0.79625,-0.35625 0.79625,-0.79625 0,-0.0462 -0.006,-0.0912 -0.0138,-0.135" />
    <path
       inkscape:connector-curvature="0"
       id="path6099"
       style="fill:#ffffff;fill-opacity:1;fill-rule:nonzero;stroke:none"
       d="m 436.97991,895.39372 c 0.0162,0 0.0312,0.004 0.0462,0.005 l -0.0925,0 c 0.015,-0.001 0.03,-0.005 0.0463,-0.005" />
    <path
       inkscape:connector-curvature="0"
       id="path6103"
       style="fill:#ffffff;fill-opacity:1;fill-rule:nonzero;stroke:none"
       d="m 439.37216,895.39372 c 0.0163,0 0.0312,0.004 0.0462,0.005 l -0.0925,0 c 0.015,-0.001 0.03,-0.005 0.0462,-0.005" />
    <path
       inkscape:connector-curvature="0"
       id="path6107"
       style="fill:#ffffff;fill-opacity:1;fill-rule:nonzero;stroke:none"
       d="m 452.57066,896.32934 c -0.006,0.0263 -0.0125,0.0538 -0.02,0.08 -0.9175,3.6575 -4.22375,6.36625 -8.16625,6.36625 -3.94125,0 -7.24625,-2.70875 -8.165,-6.365 -0.007,-0.03 -0.015,-0.0587 -0.0225,-0.0888 -0.006,-0.0437 -0.0125,-0.0875 -0.0125,-0.1325 0,-0.42375 0.33125,-0.76625 0.74875,-0.79125 l 0.0937,0 2.29875,0 0.0937,0 c 0.3,0.0187 0.555,0.20125 0.675,0.46125 0.0113,0.0338 0.0238,0.0688 0.0362,0.10125 0.65,1.71875 2.30875,2.94 4.25375,2.94 1.94625,0 3.605,-1.22125 4.255,-2.93875 0.0113,-0.0325 0.0225,-0.065 0.0337,-0.0975 0.12625,-0.27375 0.40125,-0.46625 0.7225,-0.46625 l 2.3925,0 c 0.44,0 0.79625,0.35625 0.79625,0.79625 0,0.0462 -0.006,0.0912 -0.0138,0.135" />
    <path
       inkscape:connector-curvature="0"
       id="path6111"
       style="fill:#ffffff;fill-opacity:1;fill-rule:nonzero;stroke:none"
       d="m 417.29541,893.30735 c 0.0163,0 0.0312,-0.004 0.0462,-0.005 l -0.0925,0 c 0.015,0.001 0.03,0.005 0.0462,0.005" />
    <path
       inkscape:connector-curvature="0"
       id="path6115"
       style="fill:#ffffff;fill-opacity:1;fill-rule:nonzero;stroke:none"
       d="m 419.68766,893.30735 c 0.0163,0 0.0312,-0.004 0.0462,-0.005 l -0.0925,0 c 0.015,0.001 0.03,0.005 0.0462,0.005" />
    <path
       inkscape:connector-curvature="0"
       id="path6119"
       style="fill:#ffffff;fill-opacity:1;fill-rule:nonzero;stroke:none"
       d="m 432.88616,892.37172 c -0.006,-0.0263 -0.0125,-0.0538 -0.02,-0.08 -0.9175,-3.6575 -4.22375,-6.36625 -8.16625,-6.36625 -3.94125,0 -7.24625,2.70875 -8.165,6.365 -0.008,0.03 -0.015,0.0587 -0.0225,0.0888 -0.006,0.0437 -0.0125,0.0875 -0.0125,0.1325 0,0.42375 0.33125,0.76625 0.74875,0.79125 l 0.0937,0 2.29875,0 0.0937,0 c 0.3,-0.0187 0.555,-0.20125 0.675,-0.46125 0.0112,-0.0338 0.0237,-0.0688 0.0362,-0.10125 0.65,-1.71875 2.30875,-2.94 4.25375,-2.94 1.94625,0 3.605,1.22125 4.255,2.93875 0.0113,0.0325 0.0225,0.065 0.0337,0.0975 0.12625,0.27375 0.40125,0.46625 0.7225,0.46625 l 2.3925,0 c 0.44,0 0.79625,-0.35625 0.79625,-0.79625 0,-0.0462 -0.006,-0.0912 -0.0137,-0.135" />
    <path
       inkscape:connector-curvature="0"
       id="path6123"
       style="fill:#ffffff;fill-opacity:1;fill-rule:nonzero;stroke:none"
       d="m 417.29628,895.39372 c 0.0162,0 0.0312,0.004 0.0462,0.005 l -0.0925,0 c 0.015,-0.001 0.03,-0.005 0.0463,-0.005" />
    <path
       inkscape:connector-curvature="0"
       id="path6127"
       style="fill:#ffffff;fill-opacity:1;fill-rule:nonzero;stroke:none"
       d="m 419.68841,895.39372 c 0.0163,0 0.0312,0.004 0.0463,0.005 l -0.0925,0 c 0.015,-0.001 0.03,-0.005 0.0462,-0.005" />
    <path
       inkscape:connector-curvature="0"
       id="path6131"
       style="fill:#ffffff;fill-opacity:1;fill-rule:nonzero;stroke:none"
       d="m 432.88703,896.32934 c -0.006,0.0263 -0.0125,0.0538 -0.02,0.08 -0.9175,3.6575 -4.22375,6.36625 -8.16625,6.36625 -3.94125,0 -7.24625,-2.70875 -8.165,-6.365 -0.007,-0.03 -0.015,-0.0587 -0.0225,-0.0888 -0.006,-0.0437 -0.0125,-0.0875 -0.0125,-0.1325 0,-0.42375 0.33125,-0.76625 0.74875,-0.79125 l 0.0937,0 2.29875,0 0.0937,0 c 0.3,0.0187 0.555,0.20125 0.675,0.46125 0.0113,0.0338 0.0238,0.0688 0.0362,0.10125 0.65,1.71875 2.30875,2.94 4.25375,2.94 1.94625,0 3.605,-1.22125 4.255,-2.93875 0.0113,-0.0325 0.0225,-0.065 0.0337,-0.0975 0.12625,-0.27375 0.40125,-0.46625 0.7225,-0.46625 l 2.3925,0 c 0.44,0 0.79625,0.35625 0.79625,0.79625 0,0.0462 -0.006,0.0912 -0.0138,0.135" />
  </g>
</svg>
