  0
SECTION
  2
HEADER
  9
$ACADVER
  1
AC1014
  9
$HANDSEED
  5
FFFF
  9
$MEASUREMENT
 70
     1
  0
ENDSEC
  0
SECTION
  2
TABLES
  0
TABLE
  2
VPORT
  5
8
330
0
100
AcDbSymbolTable
 70
     4
  0
VPORT
  5
2E
330
8
100
AcDbSymbolTableRecord
100
AcDbViewportTableRecord
  2
*ACTIVE
 70
     0
 10
0.0
 20
0.0
 11
1.0
 21
1.0
 12
210.0
 22
148.5
 13
0.0
 23
0.0
 14
10.0
 24
10.0
 15
10.0
 25
10.0
 16
0.0
 26
0.0
 36
1.0
 17
0.0
 27
0.0
 37
0.0
 40
341.0
 41
1.24
 42
50.0
 43
0.0
 44
0.0
 50
0.0
 51
0.0
 71
     0
 72
   100
 73
     1
 74
     3
 75
     0
 76
     0
 77
     0
 78
     0
  0
ENDTAB
  0
TABLE
  2
LTYPE
  5
5
330
0
100
AcDbSymbolTable
 70
     1
  0
LTYPE
  5
14
330
5
100
AcDbSymbolTableRecord
100
AcDbLinetypeTableRecord
  2
BYBLOCK
 70
     0
  3

 72
    65
 73
     0
 40
0.0
  0
LTYPE
  5
15
330
5
100
AcDbSymbolTableRecord
100
AcDbLinetypeTableRecord
  2
BYLAYER
 70
     0
  3

 72
    65
 73
     0
 40
0.0
  0
LTYPE
  5
16
330
5
100
AcDbSymbolTableRecord
100
AcDbLinetypeTableRecord
  2
CONTINUOUS
 70
     0
  3
Solid line
 72
    65
 73
     0
 40
0.0
  0
ENDTAB
  0
TABLE
  2
LAYER
  5
2
100
AcDbSymbolTable
 70
2
  0
LAYER
  5
50
100
AcDbSymbolTableRecord
100
AcDbLayerTableRecord
  2
0
 70
0
  6
CONTINUOUS
  0
LAYER
  5
51
100
AcDbSymbolTableRecord
100
AcDbLayerTableRecord
  2
Layer_1
 70
0
  6
CONTINUOUS
  0
ENDTAB
  0
TABLE
  2
STYLE
  5
3
330
0
100
AcDbSymbolTable
 70
     1
  0
STYLE
  5
11
330
3
100
AcDbSymbolTableRecord
100
AcDbTextStyleTableRecord
  2
STANDARD
 70
     0
 40
0.0
 41
1.0
 50
0.0
 71
     0
 42
2.5
  3
txt
  4

  0
ENDTAB
  0
TABLE
  2
VIEW
  5
6
330
0
100
AcDbSymbolTable
 70
     0
  0
ENDTAB
  0
TABLE
  2
UCS
  5
7
330
0
100
AcDbSymbolTable
 70
     0
  0
ENDTAB
  0
TABLE
  2
APPID
  5
9
330
0
100
AcDbSymbolTable
 70
     2
  0
APPID
  5
12
330
9
100
AcDbSymbolTableRecord
100
AcDbRegAppTableRecord
  2
ACAD
 70
     0
  0
ENDTAB
  0
TABLE
  2
DIMSTYLE
  5
A
330
0
100
AcDbSymbolTable
 70
     1
  0
DIMSTYLE
105
27
330
A
100
AcDbSymbolTableRecord
100
AcDbDimStyleTableRecord
  2
ISO-25
 70
     0
  3

  4

  5

  6

  7

 40
1.0
 41
2.5
 42
0.625
 43
3.75
 44
1.25
 45
0.0
 46
0.0
 47
0.0
 48
0.0
140
2.5
141
2.5
142
0.0
143
0.03937007874016
144
1.0
145
0.0
146
1.0
147
0.625
 71
     0
 72
     0
 73
     0
 74
     0
 75
     0
 76
     0
 77
     1
 78
     8
170
     0
171
     3
172
     1
173
     0
174
     0
175
     0
176
     0
177
     0
178
     0
270
     2
271
     2
272
     2
273
     2
274
     3
340
11
275
     0
280
     0
281
     0
282
     0
283
     0
284
     8
285
     0
286
     0
287
     3
288
     0
  0
ENDTAB
  0
TABLE
  2
BLOCK_RECORD
  5
1
330
0
100
AcDbSymbolTable
 70
     1
  0
BLOCK_RECORD
  5
1F
330
1
100
AcDbSymbolTableRecord
100
AcDbBlockTableRecord
  2
*MODEL_SPACE
  0
BLOCK_RECORD
  5
1B
330
1
100
AcDbSymbolTableRecord
100
AcDbBlockTableRecord
  2
*PAPER_SPACE
  0
ENDTAB
  0
ENDSEC
  0
SECTION
  2
BLOCKS
  0
BLOCK
  5
20
330
1F
100
AcDbEntity
  8
0
100
AcDbBlockBegin
  2
*MODEL_SPACE
 70
     0
 10
0.0
 20
0.0
 30
0.0
  3
*MODEL_SPACE
  1

  0
ENDBLK
  5
21
330
1F
100
AcDbEntity
  8
0
100
AcDbBlockEnd
  0
BLOCK
  5
1C
330
1B
100
AcDbEntity
 67
     1
  8
0
100
AcDbBlockBegin
  2
*PAPER_SPACE
  1

  0
ENDBLK
  5
1D
330
1B
100
AcDbEntity
 67
     1
  8
0
100
AcDbBlockEnd
  0
ENDSEC
  0
SECTION
  2
ENTITIES
  0
LWPOLYLINE
  5
100
100
AcDbEntity
  8
Layer_1
 62
7
100
AcDbPolyline
 90
21
 70
0
 10
110.635742
 20
66.800480
 30
0.0
 10
72.368173
 20
66.800480
 30
0.0
 10
72.030002
 20
66.732179
 30
0.0
 10
71.753810
 20
66.545907
 30
0.0
 10
71.567577
 20
66.269610
 30
0.0
 10
71.499281
 20
65.931236
 30
0.0
 10
71.499281
 20
27.664019
 30
0.0
 10
71.567577
 20
27.325645
 30
0.0
 10
71.753810
 20
27.049348
 30
0.0
 10
72.030002
 20
26.863076
 30
0.0
 10
72.368173
 20
26.794775
 30
0.0
 10
110.635742
 20
26.794775
 30
0.0
 10
110.974062
 20
26.863076
 30
0.0
 10
111.250237
 20
27.049348
 30
0.0
 10
111.436388
 20
27.325645
 30
0.0
 10
111.504634
 20
27.664019
 30
0.0
 10
111.504634
 20
65.931236
 30
0.0
 10
111.436388
 20
66.269610
 30
0.0
 10
111.250237
 20
66.545907
 30
0.0
 10
110.974062
 20
66.732179
 30
0.0
 10
110.635742
 20
66.800480
 30
0.0
  0
LWPOLYLINE
  5
101
100
AcDbEntity
  8
Layer_1
 62
7
100
AcDbPolyline
 90
17
 70
0
 10
74.915897
 20
64.537761
 30
0.0
 10
74.837316
 20
64.148426
 30
0.0
 10
74.623004
 20
63.830529
 30
0.0
 10
74.305107
 20
63.616217
 30
0.0
 10
73.915772
 20
63.537636
 30
0.0
 10
73.526642
 20
63.616217
 30
0.0
 10
73.208850
 20
63.830529
 30
0.0
 10
72.994576
 20
64.148426
 30
0.0
 10
72.916000
 20
64.537761
 30
0.0
 10
72.994576
 20
64.927095
 30
0.0
 10
73.208850
 20
65.244992
 30
0.0
 10
73.526642
 20
65.459304
 30
0.0
 10
73.915772
 20
65.537886
 30
0.0
 10
74.305107
 20
65.459304
 30
0.0
 10
74.623004
 20
65.244992
 30
0.0
 10
74.837316
 20
64.927095
 30
0.0
 10
74.915897
 20
64.537761
 30
0.0
  0
LWPOLYLINE
  5
102
100
AcDbEntity
  8
Layer_1
 62
7
100
AcDbPolyline
 90
17
 70
0
 10
110.088090
 20
64.537761
 30
0.0
 10
110.009509
 20
64.148426
 30
0.0
 10
109.795196
 20
63.830529
 30
0.0
 10
109.477300
 20
63.616217
 30
0.0
 10
109.087965
 20
63.537636
 30
0.0
 10
108.698835
 20
63.616217
 30
0.0
 10
108.381043
 20
63.830529
 30
0.0
 10
108.166769
 20
64.148426
 30
0.0
 10
108.088193
 20
64.537761
 30
0.0
 10
108.166769
 20
64.927095
 30
0.0
 10
108.381043
 20
65.244992
 30
0.0
 10
108.698835
 20
65.459304
 30
0.0
 10
109.087965
 20
65.537886
 30
0.0
 10
109.477300
 20
65.459304
 30
0.0
 10
109.795196
 20
65.244992
 30
0.0
 10
110.009509
 20
64.927095
 30
0.0
 10
110.088090
 20
64.537761
 30
0.0
  0
LWPOLYLINE
  5
103
100
AcDbEntity
  8
Layer_1
 62
7
100
AcDbPolyline
 90
17
 70
0
 10
74.915897
 20
29.057630
 30
0.0
 10
74.837316
 20
28.668295
 30
0.0
 10
74.623004
 20
28.350398
 30
0.0
 10
74.305107
 20
28.136086
 30
0.0
 10
73.915772
 20
28.057505
 30
0.0
 10
73.526642
 20
28.136086
 30
0.0
 10
73.208850
 20
28.350398
 30
0.0
 10
72.994576
 20
28.668295
 30
0.0
 10
72.916000
 20
29.057630
 30
0.0
 10
72.994576
 20
29.446964
 30
0.0
 10
73.208850
 20
29.764861
 30
0.0
 10
73.526642
 20
29.979173
 30
0.0
 10
73.915772
 20
30.057755
 30
0.0
 10
74.305107
 20
29.979173
 30
0.0
 10
74.623004
 20
29.764861
 30
0.0
 10
74.837316
 20
29.446964
 30
0.0
 10
74.915897
 20
29.057630
 30
0.0
  0
LWPOLYLINE
  5
104
100
AcDbEntity
  8
Layer_1
 62
7
100
AcDbPolyline
 90
17
 70
0
 10
110.088090
 20
29.057630
 30
0.0
 10
110.009509
 20
28.668295
 30
0.0
 10
109.795196
 20
28.350398
 30
0.0
 10
109.477300
 20
28.136086
 30
0.0
 10
109.087965
 20
28.057505
 30
0.0
 10
108.698835
 20
28.136086
 30
0.0
 10
108.381043
 20
28.350398
 30
0.0
 10
108.166769
 20
28.668295
 30
0.0
 10
108.088193
 20
29.057630
 30
0.0
 10
108.166769
 20
29.446964
 30
0.0
 10
108.381043
 20
29.764861
 30
0.0
 10
108.698835
 20
29.979173
 30
0.0
 10
109.087965
 20
30.057755
 30
0.0
 10
109.477300
 20
29.979173
 30
0.0
 10
109.795196
 20
29.764861
 30
0.0
 10
110.009509
 20
29.446964
 30
0.0
 10
110.088090
 20
29.057630
 30
0.0
  0
LWPOLYLINE
  5
105
100
AcDbEntity
  8
Layer_1
 62
7
100
AcDbPolyline
 90
24
 70
1
 10
89.458933
 20
33.247348
 30
0.0
 10
84.576268
 20
33.229709
 30
0.0
 10
84.576268
 20
33.228580
 30
0.0
 10
84.292392
 20
33.171256
 30
0.0
 10
84.060329
 20
33.015260
 30
0.0
 10
83.904336
 20
32.783200
 30
0.0
 10
83.847009
 20
32.499324
 30
0.0
 10
83.904336
 20
32.215448
 30
0.0
 10
84.060329
 20
31.983938
 30
0.0
 10
84.292392
 20
31.827943
 30
0.0
 10
84.576268
 20
31.770618
 30
0.0
 10
84.576268
 20
31.770053
 30
0.0
 10
89.458933
 20
31.787692
 30
0.0
 10
89.458933
 20
31.788257
 30
0.0
 10
89.742809
 20
31.845582
 30
0.0
 10
89.974869
 20
32.002127
 30
0.0
 10
90.130864
 20
32.233637
 30
0.0
 10
90.188189
 20
32.517513
 30
0.0
 10
90.130864
 20
32.801389
 30
0.0
 10
89.974869
 20
33.032899
 30
0.0
 10
89.742809
 20
33.188894
 30
0.0
 10
89.458933
 20
33.246219
 30
0.0
 10
89.458933
 20
33.247348
 30
0.0
 10
89.458933
 20
33.247348
 30
0.0
  0
LWPOLYLINE
  5
106
100
AcDbEntity
  8
Layer_1
 62
7
100
AcDbPolyline
 90
24
 70
1
 10
82.050049
 20
33.247348
 30
0.0
 10
77.167935
 20
33.229709
 30
0.0
 10
77.167935
 20
33.228580
 30
0.0
 10
76.884059
 20
33.171256
 30
0.0
 10
76.651996
 20
33.015260
 30
0.0
 10
76.496003
 20
32.783200
 30
0.0
 10
76.438675
 20
32.499324
 30
0.0
 10
76.496003
 20
32.215448
 30
0.0
 10
76.651996
 20
31.983938
 30
0.0
 10
76.884059
 20
31.827943
 30
0.0
 10
77.167935
 20
31.770618
 30
0.0
 10
77.167935
 20
31.770053
 30
0.0
 10
82.050049
 20
31.787692
 30
0.0
 10
82.050049
 20
31.788257
 30
0.0
 10
82.333925
 20
31.845582
 30
0.0
 10
82.565435
 20
32.002127
 30
0.0
 10
82.721981
 20
32.233637
 30
0.0
 10
82.779306
 20
32.517513
 30
0.0
 10
82.721981
 20
32.801389
 30
0.0
 10
82.565435
 20
33.032899
 30
0.0
 10
82.333925
 20
33.188894
 30
0.0
 10
82.050049
 20
33.246219
 30
0.0
 10
82.050049
 20
33.247348
 30
0.0
 10
82.050049
 20
33.247348
 30
0.0
  0
LWPOLYLINE
  5
107
100
AcDbEntity
  8
Layer_1
 62
7
100
AcDbPolyline
 90
45
 70
1
 10
84.231206
 20
36.795519
 30
0.0
 10
84.213567
 20
36.793826
 30
0.0
 10
84.014028
 20
36.701221
 30
0.0
 10
83.931895
 20
36.496169
 30
0.0
 10
83.936863
 20
36.446560
 30
0.0
 10
83.944595
 20
36.412936
 30
0.0
 10
84.114919
 20
35.914636
 30
0.0
 10
84.361864
 20
35.458229
 30
0.0
 10
85.054742
 20
34.699207
 30
0.0
 10
85.484691
 20
34.412576
 30
0.0
 10
85.960387
 20
34.198152
 30
0.0
 10
86.474122
 20
34.063656
 30
0.0
 10
87.017620
 20
34.017355
 30
0.0
 10
87.561668
 20
34.063656
 30
0.0
 10
88.075400
 20
34.198152
 30
0.0
 10
88.551100
 20
34.412576
 30
0.0
 10
88.981599
 20
34.699207
 30
0.0
 10
89.673927
 20
35.458229
 30
0.0
 10
89.920871
 20
35.915186
 30
0.0
 10
90.091195
 20
36.413486
 30
0.0
 10
90.098900
 20
36.443252
 30
0.0
 10
90.098335
 20
36.443252
 30
0.0
 10
90.103302
 20
36.494515
 30
0.0
 10
90.015658
 20
36.706182
 30
0.0
 10
89.804545
 20
36.793826
 30
0.0
 10
88.903858
 20
36.793826
 30
0.0
 10
88.740147
 20
36.744767
 30
0.0
 10
88.632109
 20
36.618538
 30
0.0
 10
88.618873
 20
36.581606
 30
0.0
 10
88.368621
 20
36.136226
 30
0.0
 10
88.000959
 20
35.786202
 30
0.0
 10
87.542347
 20
35.557450
 30
0.0
 10
87.017592
 20
35.475868
 30
0.0
 10
86.492834
 20
35.558000
 30
0.0
 10
86.034222
 20
35.786756
 30
0.0
 10
85.667113
 20
36.136226
 30
0.0
 10
85.416861
 20
36.582159
 30
0.0
 10
85.403089
 20
36.620192
 30
0.0
 10
85.301664
 20
36.741460
 30
0.0
 10
85.148976
 20
36.793826
 30
0.0
 10
85.131337
 20
36.795519
 30
0.0
 10
85.113698
 20
36.793826
 30
0.0
 10
84.248842
 20
36.793826
 30
0.0
 10
84.231203
 20
36.795519
 30
0.0
 10
84.231206
 20
36.795519
 30
0.0
  0
LWPOLYLINE
  5
108
100
AcDbEntity
  8
Layer_1
 62
7
100
AcDbPolyline
 90
44
 70
1
 10
76.823423
 20
36.795519
 30
0.0
 10
76.805784
 20
36.793826
 30
0.0
 10
76.605694
 20
36.701221
 30
0.0
 10
76.523562
 20
36.496169
 30
0.0
 10
76.528529
 20
36.446560
 30
0.0
 10
76.536798
 20
36.412936
 30
0.0
 10
76.707125
 20
35.914636
 30
0.0
 10
76.954070
 20
35.458229
 30
0.0
 10
77.646945
 20
34.699207
 30
0.0
 10
78.076893
 20
34.412576
 30
0.0
 10
78.552593
 20
34.198152
 30
0.0
 10
79.066325
 20
34.063656
 30
0.0
 10
79.609823
 20
34.017355
 30
0.0
 10
80.153874
 20
34.063656
 30
0.0
 10
80.667606
 20
34.198152
 30
0.0
 10
81.143303
 20
34.412576
 30
0.0
 10
81.573251
 20
34.699207
 30
0.0
 10
82.266130
 20
35.458229
 30
0.0
 10
82.513074
 20
35.915186
 30
0.0
 10
82.683401
 20
36.413486
 30
0.0
 10
82.690569
 20
36.443252
 30
0.0
 10
82.695536
 20
36.494515
 30
0.0
 10
82.607895
 20
36.706182
 30
0.0
 10
82.396779
 20
36.793826
 30
0.0
 10
81.496092
 20
36.793826
 30
0.0
 10
81.332383
 20
36.744767
 30
0.0
 10
81.224343
 20
36.618538
 30
0.0
 10
81.211107
 20
36.581606
 30
0.0
 10
80.960855
 20
36.136226
 30
0.0
 10
80.593195
 20
35.786202
 30
0.0
 10
80.134584
 20
35.557450
 30
0.0
 10
79.609826
 20
35.475868
 30
0.0
 10
79.085070
 20
35.558000
 30
0.0
 10
78.626459
 20
35.786756
 30
0.0
 10
78.259350
 20
36.136226
 30
0.0
 10
78.009098
 20
36.582159
 30
0.0
 10
77.995326
 20
36.620192
 30
0.0
 10
77.893901
 20
36.741460
 30
0.0
 10
77.741216
 20
36.793826
 30
0.0
 10
77.723577
 20
36.795519
 30
0.0
 10
77.705938
 20
36.793826
 30
0.0
 10
76.841079
 20
36.793826
 30
0.0
 10
76.823440
 20
36.795519
 30
0.0
 10
76.823423
 20
36.795519
 30
0.0
  0
LWPOLYLINE
  5
109
100
AcDbEntity
  8
Layer_1
 62
7
100
AcDbPolyline
 90
96
 70
1
 10
102.650064
 20
40.122104
 30
0.0
 10
102.613133
 20
40.120975
 30
0.0
 10
102.585588
 20
40.119282
 30
0.0
 10
102.540937
 20
40.114314
 30
0.0
 10
102.521633
 20
40.110448
 30
0.0
 10
102.470371
 20
40.099413
 30
0.0
 10
102.457699
 20
40.096111
 30
0.0
 10
102.401474
 20
40.078472
 30
0.0
 10
102.397608
 20
40.076779
 30
0.0
 10
102.340833
 20
40.054173
 30
0.0
 10
102.129717
 20
39.904242
 30
0.0
 10
101.988056
 20
39.698638
 30
0.0
 10
98.802582
 20
32.826086
 30
0.0
 10
98.802582
 20
32.825522
 30
0.0
 10
98.734784
 20
32.543850
 30
0.0
 10
98.778328
 20
32.267693
 30
0.0
 10
98.922197
 20
32.028464
 30
0.0
 10
99.155360
 20
31.856484
 30
0.0
 10
99.437032
 20
31.788686
 30
0.0
 10
99.712639
 20
31.832232
 30
0.0
 10
99.952418
 20
31.976098
 30
0.0
 10
100.124395
 20
32.209262
 30
0.0
 10
100.124960
 20
32.209262
 30
0.0
 10
102.650076
 20
37.656924
 30
0.0
 10
104.696740
 20
33.240586
 30
0.0
 10
102.648975
 20
33.229551
 30
0.0
 10
102.648975
 20
33.228987
 30
0.0
 10
102.365099
 20
33.171659
 30
0.0
 10
102.133586
 20
33.015113
 30
0.0
 10
101.977594
 20
32.783053
 30
0.0
 10
101.920269
 20
32.499727
 30
0.0
 10
101.977594
 20
32.215851
 30
0.0
 10
102.133586
 20
31.983791
 30
0.0
 10
102.365099
 20
31.827796
 30
0.0
 10
102.648975
 20
31.770471
 30
0.0
 10
102.648975
 20
31.769906
 30
0.0
 10
105.836102
 20
31.787545
 30
0.0
 10
105.836102
 20
31.788110
 30
0.0
 10
105.854305
 20
31.789239
 30
0.0
 10
105.878012
 20
31.790368
 30
0.0
 10
105.928174
 20
31.794770
 30
0.0
 10
105.945249
 20
31.797592
 30
0.0
 10
106.001473
 20
31.808063
 30
0.0
 10
106.010843
 20
31.810885
 30
0.0
 10
106.073679
 20
31.829060
 30
0.0
 10
106.077546
 20
31.830754
 30
0.0
 10
106.142590
 20
31.856662
 30
0.0
 10
106.144283
 20
31.857226
 30
0.0
 10
106.147105
 20
31.858919
 30
0.0
 10
106.206637
 20
31.890339
 30
0.0
 10
106.215442
 20
31.895842
 30
0.0
 10
106.264498
 20
31.928363
 30
0.0
 10
106.278271
 20
31.938833
 30
0.0
 10
106.318510
 20
31.971907
 30
0.0
 10
106.334484
 20
31.986244
 30
0.0
 10
106.369211
 20
32.020971
 30
0.0
 10
106.384084
 20
32.037510
 30
0.0
 10
106.414954
 20
32.074992
 30
0.0
 10
106.427089
 20
32.091530
 30
0.0
 10
106.456302
 20
32.135074
 30
0.0
 10
106.464571
 20
32.148846
 30
0.0
 10
106.491016
 20
32.197905
 30
0.0
 10
106.496519
 20
32.210577
 30
0.0
 10
106.518560
 20
32.261840
 30
0.0
 10
106.522963
 20
32.275076
 30
0.0
 10
106.539501
 20
32.326889
 30
0.0
 10
106.543904
 20
32.345064
 30
0.0
 10
106.553810
 20
32.393022
 30
0.0
 10
106.558213
 20
32.418930
 30
0.0
 10
106.562615
 20
32.460273
 30
0.0
 10
106.564309
 20
32.496101
 30
0.0
 10
106.565438
 20
32.517606
 30
0.0
 10
106.564873
 20
32.530278
 30
0.0
 10
106.562615
 20
32.569967
 30
0.0
 10
106.559793
 20
32.603591
 30
0.0
 10
106.554826
 20
32.639419
 30
0.0
 10
106.547658
 20
32.676351
 30
0.0
 10
106.539953
 20
32.706667
 30
0.0
 10
106.527817
 20
32.747459
 30
0.0
 10
106.518448
 20
32.773904
 30
0.0
 10
106.500809
 20
32.815797
 30
0.0
 10
106.496942
 20
32.825731
 30
0.0
 10
106.497507
 20
32.826295
 30
0.0
 10
103.312033
 20
39.698847
 30
0.0
 10
103.169819
 20
39.905002
 30
0.0
 10
102.958152
 20
40.054382
 30
0.0
 10
102.901928
 20
40.076988
 30
0.0
 10
102.898061
 20
40.078681
 30
0.0
 10
102.841837
 20
40.096320
 30
0.0
 10
102.829701
 20
40.099622
 30
0.0
 10
102.777888
 20
40.110657
 30
0.0
 10
102.759149
 20
40.114523
 30
0.0
 10
102.713951
 20
40.119490
 30
0.0
 10
102.686378
 20
40.121184
 30
0.0
 10
102.649996
 20
40.122313
 30
0.0
 10
102.650064
 20
40.122104
 30
0.0
  0
LWPOLYLINE
  5
10a
100
AcDbEntity
  8
Layer_1
 62
7
100
AcDbPolyline
 90
42
 70
1
 10
91.933889
 20
40.122668
 30
0.0
 10
91.643951
 20
40.064240
 30
0.0
 10
91.407480
 20
39.904386
 30
0.0
 10
91.247626
 20
39.667915
 30
0.0
 10
91.189198
 20
39.377977
 30
0.0
 10
91.189198
 20
33.788653
 30
0.0
 10
91.192500
 20
33.788653
 30
0.0
 10
91.265810
 20
33.524070
 30
0.0
 10
91.425113
 20
33.310199
 30
0.0
 10
91.651661
 20
33.166881
 30
0.0
 10
91.923960
 20
33.114518
 30
0.0
 10
92.196262
 20
33.166881
 30
0.0
 10
92.422260
 20
33.310199
 30
0.0
 10
92.582114
 20
33.524070
 30
0.0
 10
92.655424
 20
33.788653
 30
0.0
 10
92.658246
 20
33.788653
 30
0.0
 10
92.658246
 20
37.309816
 30
0.0
 10
96.267603
 20
32.152095
 30
0.0
 10
96.533840
 20
31.888615
 30
0.0
 10
96.907011
 20
31.788293
 30
0.0
 10
97.183171
 20
31.841210
 30
0.0
 10
97.412477
 20
31.986729
 30
0.0
 10
97.573984
 20
32.203357
 30
0.0
 10
97.648398
 20
32.471248
 30
0.0
 10
97.651700
 20
32.491089
 30
0.0
 10
97.651700
 20
33.114515
 30
0.0
 10
97.651700
 20
39.421518
 30
0.0
 10
97.648878
 20
39.439157
 30
0.0
 10
97.579976
 20
39.707048
 30
0.0
 10
97.421776
 20
39.923676
 30
0.0
 10
97.195778
 20
40.069749
 30
0.0
 10
96.922376
 20
40.122665
 30
0.0
 10
96.648973
 20
40.069749
 30
0.0
 10
96.423525
 20
39.924780
 30
0.0
 10
96.265328
 20
39.708152
 30
0.0
 10
96.195873
 20
39.441361
 30
0.0
 10
96.192007
 20
39.421521
 30
0.0
 10
96.192007
 20
34.601143
 30
0.0
 10
92.568889
 20
39.766021
 30
0.0
 10
92.303202
 20
40.024540
 30
0.0
 10
91.933889
 20
40.122657
 30
0.0
 10
91.933889
 20
40.122668
 30
0.0
  0
LWPOLYLINE
  5
10b
100
AcDbEntity
  8
Layer_1
 62
7
100
AcDbPolyline
 90
44
 70
1
 10
87.017600
 20
40.359139
 30
0.0
 10
86.474102
 20
40.312838
 30
0.0
 10
85.960368
 20
40.178339
 30
0.0
 10
85.484671
 20
39.963918
 30
0.0
 10
85.054722
 20
39.677285
 30
0.0
 10
84.361844
 20
38.918262
 30
0.0
 10
84.114900
 20
38.461855
 30
0.0
 10
83.944576
 20
37.963558
 30
0.0
 10
83.936307
 20
37.929934
 30
0.0
 10
83.931339
 20
37.880325
 30
0.0
 10
84.013472
 20
37.675271
 30
0.0
 10
84.213562
 20
37.582668
 30
0.0
 10
84.230664
 20
37.580975
 30
0.0
 10
84.248303
 20
37.582668
 30
0.0
 10
85.113709
 20
37.582668
 30
0.0
 10
85.131348
 20
37.580975
 30
0.0
 10
85.148987
 20
37.582668
 30
0.0
 10
85.301675
 20
37.635032
 30
0.0
 10
85.403100
 20
37.756300
 30
0.0
 10
85.416873
 20
37.794335
 30
0.0
 10
85.667125
 20
38.240269
 30
0.0
 10
86.034234
 20
38.589739
 30
0.0
 10
86.492845
 20
38.818491
 30
0.0
 10
87.017603
 20
38.900623
 30
0.0
 10
87.542359
 20
38.818491
 30
0.0
 10
88.000970
 20
38.590289
 30
0.0
 10
88.368632
 20
38.240269
 30
0.0
 10
88.618884
 20
37.794885
 30
0.0
 10
88.632120
 20
37.757954
 30
0.0
 10
88.740158
 20
37.631727
 30
0.0
 10
88.903869
 20
37.582668
 30
0.0
 10
89.804003
 20
37.582668
 30
0.0
 10
90.015670
 20
37.670310
 30
0.0
 10
90.103314
 20
37.881976
 30
0.0
 10
90.098347
 20
37.933242
 30
0.0
 10
90.091178
 20
37.963005
 30
0.0
 10
89.920854
 20
38.461305
 30
0.0
 10
89.673910
 20
38.918262
 30
0.0
 10
88.981032
 20
39.677285
 30
0.0
 10
88.551083
 20
39.963918
 30
0.0
 10
88.075383
 20
40.178339
 30
0.0
 10
87.561651
 20
40.312838
 30
0.0
 10
87.017603
 20
40.359139
 30
0.0
 10
87.017600
 20
40.359139
 30
0.0
  0
LWPOLYLINE
  5
10c
100
AcDbEntity
  8
Layer_1
 62
7
100
AcDbPolyline
 90
45
 70
1
 10
79.609817
 20
40.359139
 30
0.0
 10
79.066319
 20
40.312838
 30
0.0
 10
78.552588
 20
40.178339
 30
0.0
 10
78.076888
 20
39.963918
 30
0.0
 10
77.646939
 20
39.677285
 30
0.0
 10
76.954064
 20
38.918262
 30
0.0
 10
76.707119
 20
38.461855
 30
0.0
 10
76.536793
 20
37.963558
 30
0.0
 10
76.528524
 20
37.929934
 30
0.0
 10
76.523556
 20
37.880325
 30
0.0
 10
76.605689
 20
37.675271
 30
0.0
 10
76.805228
 20
37.582668
 30
0.0
 10
76.822867
 20
37.580975
 30
0.0
 10
76.840506
 20
37.582668
 30
0.0
 10
77.705915
 20
37.582668
 30
0.0
 10
77.722990
 20
37.580975
 30
0.0
 10
77.740629
 20
37.582668
 30
0.0
 10
77.741193
 20
37.582668
 30
0.0
 10
77.893328
 20
37.635032
 30
0.0
 10
77.994753
 20
37.756300
 30
0.0
 10
78.008525
 20
37.794335
 30
0.0
 10
78.258777
 20
38.240269
 30
0.0
 10
78.626439
 20
38.589739
 30
0.0
 10
79.085051
 20
38.818491
 30
0.0
 10
79.609806
 20
38.900623
 30
0.0
 10
80.134564
 20
38.818491
 30
0.0
 10
80.593176
 20
38.590289
 30
0.0
 10
80.960835
 20
38.240269
 30
0.0
 10
81.211087
 20
37.794885
 30
0.0
 10
81.223759
 20
37.757954
 30
0.0
 10
81.332349
 20
37.631727
 30
0.0
 10
81.496058
 20
37.582668
 30
0.0
 10
82.396195
 20
37.582668
 30
0.0
 10
82.607861
 20
37.670310
 30
0.0
 10
82.695502
 20
37.881976
 30
0.0
 10
82.690535
 20
37.933242
 30
0.0
 10
82.682831
 20
37.963005
 30
0.0
 10
82.512507
 20
38.461305
 30
0.0
 10
82.265562
 20
38.918262
 30
0.0
 10
81.573235
 20
39.677285
 30
0.0
 10
81.143286
 20
39.963918
 30
0.0
 10
80.667589
 20
40.178339
 30
0.0
 10
80.153857
 20
40.312838
 30
0.0
 10
79.609806
 20
40.359139
 30
0.0
 10
79.609817
 20
40.359139
 30
0.0
  0
LWPOLYLINE
  5
10d
100
AcDbEntity
  8
Layer_1
 62
7
100
AcDbPolyline
 90
21
 70
0
 10
143.126152
 20
66.800480
 30
0.0
 10
114.429444
 20
66.800480
 30
0.0
 10
114.175830
 20
66.749272
 30
0.0
 10
113.968716
 20
66.609627
 30
0.0
 10
113.829071
 20
66.402514
 30
0.0
 10
113.777863
 20
66.148900
 30
0.0
 10
113.777863
 20
37.452191
 30
0.0
 10
113.829071
 20
37.198577
 30
0.0
 10
113.968716
 20
36.991463
 30
0.0
 10
114.175830
 20
36.851819
 30
0.0
 10
114.429444
 20
36.800611
 30
0.0
 10
143.126152
 20
36.800611
 30
0.0
 10
143.379767
 20
36.851819
 30
0.0
 10
143.586880
 20
36.991463
 30
0.0
 10
143.726525
 20
37.198577
 30
0.0
 10
143.777733
 20
37.452191
 30
0.0
 10
143.777733
 20
66.148900
 30
0.0
 10
143.726525
 20
66.402514
 30
0.0
 10
143.586880
 20
66.609627
 30
0.0
 10
143.379767
 20
66.749272
 30
0.0
 10
143.126152
 20
66.800480
 30
0.0
  0
LWPOLYLINE
  5
10e
100
AcDbEntity
  8
Layer_1
 62
7
100
AcDbPolyline
 90
17
 70
0
 10
116.340018
 20
65.103653
 30
0.0
 10
116.281071
 20
64.811740
 30
0.0
 10
116.120326
 20
64.573340
 30
0.0
 10
115.881925
 20
64.412594
 30
0.0
 10
115.590012
 20
64.353647
 30
0.0
 10
115.298155
 20
64.412594
 30
0.0
 10
115.059876
 20
64.573340
 30
0.0
 10
114.899251
 20
64.811740
 30
0.0
 10
114.840360
 20
65.103653
 30
0.0
 10
114.899251
 20
65.395565
 30
0.0
 10
115.059876
 20
65.633966
 30
0.0
 10
115.298155
 20
65.794712
 30
0.0
 10
115.590012
 20
65.853658
 30
0.0
 10
115.881925
 20
65.794712
 30
0.0
 10
116.120326
 20
65.633966
 30
0.0
 10
116.281071
 20
65.395565
 30
0.0
 10
116.340018
 20
65.103653
 30
0.0
  0
LWPOLYLINE
  5
10f
100
AcDbEntity
  8
Layer_1
 62
7
100
AcDbPolyline
 90
17
 70
0
 10
142.715482
 20
65.103653
 30
0.0
 10
142.656535
 20
64.811740
 30
0.0
 10
142.495790
 20
64.573340
 30
0.0
 10
142.257389
 20
64.412594
 30
0.0
 10
141.965477
 20
64.353647
 30
0.0
 10
141.673619
 20
64.412594
 30
0.0
 10
141.435340
 20
64.573340
 30
0.0
 10
141.274716
 20
64.811740
 30
0.0
 10
141.215824
 20
65.103653
 30
0.0
 10
141.274716
 20
65.395565
 30
0.0
 10
141.435340
 20
65.633966
 30
0.0
 10
141.673619
 20
65.794712
 30
0.0
 10
141.965477
 20
65.853658
 30
0.0
 10
142.257389
 20
65.794712
 30
0.0
 10
142.495790
 20
65.633966
 30
0.0
 10
142.656535
 20
65.395565
 30
0.0
 10
142.715482
 20
65.103653
 30
0.0
  0
LWPOLYLINE
  5
110
100
AcDbEntity
  8
Layer_1
 62
7
100
AcDbPolyline
 90
17
 70
0
 10
116.340018
 20
38.497257
 30
0.0
 10
116.281071
 20
38.205345
 30
0.0
 10
116.120326
 20
37.966944
 30
0.0
 10
115.881925
 20
37.806199
 30
0.0
 10
115.590012
 20
37.747252
 30
0.0
 10
115.298155
 20
37.806199
 30
0.0
 10
115.059876
 20
37.966944
 30
0.0
 10
114.899251
 20
38.205345
 30
0.0
 10
114.840360
 20
38.497257
 30
0.0
 10
114.899251
 20
38.789170
 30
0.0
 10
115.059876
 20
39.027571
 30
0.0
 10
115.298155
 20
39.188316
 30
0.0
 10
115.590012
 20
39.247263
 30
0.0
 10
115.881925
 20
39.188316
 30
0.0
 10
116.120326
 20
39.027571
 30
0.0
 10
116.281071
 20
38.789170
 30
0.0
 10
116.340018
 20
38.497257
 30
0.0
  0
LWPOLYLINE
  5
111
100
AcDbEntity
  8
Layer_1
 62
7
100
AcDbPolyline
 90
17
 70
0
 10
142.715482
 20
38.497257
 30
0.0
 10
142.656535
 20
38.205345
 30
0.0
 10
142.495790
 20
37.966944
 30
0.0
 10
142.257389
 20
37.806199
 30
0.0
 10
141.965477
 20
37.747252
 30
0.0
 10
141.673619
 20
37.806199
 30
0.0
 10
141.435340
 20
37.966944
 30
0.0
 10
141.274716
 20
38.205345
 30
0.0
 10
141.215824
 20
38.497257
 30
0.0
 10
141.274716
 20
38.789170
 30
0.0
 10
141.435340
 20
39.027571
 30
0.0
 10
141.673619
 20
39.188316
 30
0.0
 10
141.965477
 20
39.247263
 30
0.0
 10
142.257389
 20
39.188316
 30
0.0
 10
142.495790
 20
39.027571
 30
0.0
 10
142.656535
 20
38.789170
 30
0.0
 10
142.715482
 20
38.497257
 30
0.0
  0
LWPOLYLINE
  5
112
100
AcDbEntity
  8
Layer_1
 62
7
100
AcDbPolyline
 90
37
 70
1
 10
119.859558
 20
46.972058
 30
0.0
 10
119.066908
 20
46.836458
 30
0.0
 10
118.387814
 20
46.460530
 30
0.0
 10
117.868567
 20
45.891674
 30
0.0
 10
117.555478
 20
45.175645
 30
0.0
 10
117.548874
 20
45.150838
 30
0.0
 10
117.545572
 20
45.113356
 30
0.0
 10
117.606758
 20
44.959568
 30
0.0
 10
117.756689
 20
44.890116
 30
0.0
 10
117.757253
 20
44.890116
 30
0.0
 10
117.769925
 20
44.888987
 30
0.0
 10
117.783161
 20
44.890116
 30
0.0
 10
118.431939
 20
44.890116
 30
0.0
 10
118.445176
 20
44.888987
 30
0.0
 10
118.458412
 20
44.890116
 30
0.0
 10
118.649132
 20
45.020200
 30
0.0
 10
118.659038
 20
45.048866
 30
0.0
 10
118.847004
 20
45.382901
 30
0.0
 10
119.122060
 20
45.645280
 30
0.0
 10
119.466019
 20
45.817258
 30
0.0
 10
119.859586
 20
45.878444
 30
0.0
 10
120.253153
 20
45.816708
 30
0.0
 10
120.597112
 20
45.645280
 30
0.0
 10
120.872718
 20
45.382901
 30
0.0
 10
121.060684
 20
45.048866
 30
0.0
 10
121.070054
 20
45.021857
 30
0.0
 10
121.274005
 20
44.890118
 30
0.0
 10
121.949244
 20
44.890118
 30
0.0
 10
122.108544
 20
44.956263
 30
0.0
 10
122.174138
 20
45.115013
 30
0.0
 10
122.170272
 20
45.153048
 30
0.0
 10
122.164204
 20
45.175654
 30
0.0
 10
121.851115
 20
45.891683
 30
0.0
 10
121.331871
 20
46.461089
 30
0.0
 10
120.652774
 20
46.836467
 30
0.0
 10
119.859575
 20
46.972066
 30
0.0
 10
119.859558
 20
46.972058
 30
0.0
  0
LWPOLYLINE
  5
113
100
AcDbEntity
  8
Layer_1
 62
7
100
AcDbPolyline
 90
37
 70
1
 10
125.414704
 20
46.972058
 30
0.0
 10
124.622058
 20
46.836458
 30
0.0
 10
123.942960
 20
46.461080
 30
0.0
 10
123.423714
 20
45.891674
 30
0.0
 10
123.110625
 20
45.175645
 30
0.0
 10
123.104021
 20
45.150838
 30
0.0
 10
123.100719
 20
45.113356
 30
0.0
 10
123.161905
 20
44.959568
 30
0.0
 10
123.311835
 20
44.890116
 30
0.0
 10
123.312400
 20
44.890116
 30
0.0
 10
123.325072
 20
44.888987
 30
0.0
 10
123.338308
 20
44.890116
 30
0.0
 10
123.987089
 20
44.890116
 30
0.0
 10
124.000325
 20
44.888987
 30
0.0
 10
124.013561
 20
44.890116
 30
0.0
 10
124.204281
 20
45.020200
 30
0.0
 10
124.214215
 20
45.048866
 30
0.0
 10
124.402178
 20
45.382901
 30
0.0
 10
124.677235
 20
45.645831
 30
0.0
 10
125.021744
 20
45.817258
 30
0.0
 10
125.414761
 20
45.878444
 30
0.0
 10
125.808328
 20
45.817258
 30
0.0
 10
126.152839
 20
45.645280
 30
0.0
 10
126.427896
 20
45.382901
 30
0.0
 10
126.615859
 20
45.048866
 30
0.0
 10
126.625229
 20
45.021857
 30
0.0
 10
126.829177
 20
44.890118
 30
0.0
 10
127.504416
 20
44.890118
 30
0.0
 10
127.663716
 20
44.956263
 30
0.0
 10
127.729310
 20
45.115013
 30
0.0
 10
127.725444
 20
45.153048
 30
0.0
 10
127.719940
 20
45.175654
 30
0.0
 10
127.406852
 20
45.891683
 30
0.0
 10
126.887605
 20
46.461089
 30
0.0
 10
126.207957
 20
46.836467
 30
0.0
 10
125.414758
 20
46.972066
 30
0.0
 10
125.414704
 20
46.972058
 30
0.0
  0
LWPOLYLINE
  5
114
100
AcDbEntity
  8
Layer_1
 62
7
100
AcDbPolyline
 90
32
 70
1
 10
129.102335
 20
46.795118
 30
0.0
 10
128.884604
 20
46.751021
 30
0.0
 10
128.707114
 20
46.631407
 30
0.0
 10
128.587500
 20
46.453364
 30
0.0
 10
128.543403
 20
46.236186
 30
0.0
 10
128.543403
 20
42.045296
 30
0.0
 10
128.546225
 20
42.045296
 30
0.0
 10
128.720960
 20
41.686453
 30
0.0
 10
129.094684
 20
41.539280
 30
0.0
 10
129.468406
 20
41.686453
 30
0.0
 10
129.643141
 20
42.045296
 30
0.0
 10
129.645399
 20
42.045296
 30
0.0
 10
129.645399
 20
44.685617
 30
0.0
 10
132.351865
 20
40.818290
 30
0.0
 10
132.551404
 20
40.620404
 30
0.0
 10
132.830872
 20
40.544887
 30
0.0
 10
133.210108
 20
40.693714
 30
0.0
 10
133.387047
 20
41.057518
 30
0.0
 10
133.389870
 20
41.072391
 30
0.0
 10
133.389870
 20
41.539822
 30
0.0
 10
133.389870
 20
46.269248
 30
0.0
 10
133.388176
 20
46.282484
 30
0.0
 10
133.217849
 20
46.646286
 30
0.0
 10
132.843022
 20
46.795116
 30
0.0
 10
132.468747
 20
46.646286
 30
0.0
 10
132.297870
 20
46.284138
 30
0.0
 10
132.295048
 20
46.269265
 30
0.0
 10
132.295048
 20
42.654396
 30
0.0
 10
129.578108
 20
46.527236
 30
0.0
 10
129.379119
 20
46.721264
 30
0.0
 10
129.102409
 20
46.795127
 30
0.0
 10
129.102335
 20
46.795118
 30
0.0
  0
LWPOLYLINE
  5
115
100
AcDbEntity
  8
Layer_1
 62
7
100
AcDbPolyline
 90
93
 70
1
 10
137.109841
 20
46.793990
 30
0.0
 10
137.089436
 20
46.791732
 30
0.0
 10
137.055262
 20
46.788430
 30
0.0
 10
137.040925
 20
46.785608
 30
0.0
 10
137.002342
 20
46.777338
 30
0.0
 10
136.993537
 20
46.775081
 30
0.0
 10
136.951093
 20
46.761844
 30
0.0
 10
136.948271
 20
46.760716
 30
0.0
 10
136.905828
 20
46.743613
 30
0.0
 10
136.640694
 20
46.476825
 30
0.0
 10
134.251725
 20
41.322962
 30
0.0
 10
134.252290
 20
41.322962
 30
0.0
 10
134.201577
 20
41.111849
 30
0.0
 10
134.234098
 20
40.904590
 30
0.0
 10
134.342135
 20
40.724894
 30
0.0
 10
134.516873
 20
40.596463
 30
0.0
 10
134.727987
 20
40.545197
 30
0.0
 10
134.935245
 20
40.577721
 30
0.0
 10
135.114388
 20
40.685758
 30
0.0
 10
135.243372
 20
40.860493
 30
0.0
 10
135.243937
 20
40.860493
 30
0.0
 10
137.137360
 20
44.945550
 30
0.0
 10
138.671943
 20
41.633850
 30
0.0
 10
137.136810
 20
41.625044
 30
0.0
 10
136.924040
 20
41.582048
 30
0.0
 10
136.750408
 20
41.464641
 30
0.0
 10
136.632998
 20
41.291006
 30
0.0
 10
136.590004
 20
41.078239
 30
0.0
 10
136.632998
 20
40.865469
 30
0.0
 10
136.750408
 20
40.691284
 30
0.0
 10
136.924040
 20
40.574427
 30
0.0
 10
137.136810
 20
40.531433
 30
0.0
 10
137.136810
 20
40.530869
 30
0.0
 10
139.526329
 20
40.544105
 30
0.0
 10
139.526329
 20
40.545234
 30
0.0
 10
139.540101
 20
40.545234
 30
0.0
 10
139.557740
 20
40.546363
 30
0.0
 10
139.595775
 20
40.549665
 30
0.0
 10
139.608447
 20
40.551923
 30
0.0
 10
139.650891
 20
40.559627
 30
0.0
 10
139.657495
 20
40.561321
 30
0.0
 10
139.704346
 20
40.575093
 30
0.0
 10
139.707648
 20
40.576222
 30
0.0
 10
139.756707
 20
40.596062
 30
0.0
 10
139.757836
 20
40.596627
 30
0.0
 10
139.759529
 20
40.597755
 30
0.0
 10
139.804177
 20
40.621462
 30
0.0
 10
139.810781
 20
40.625329
 30
0.0
 10
139.847712
 20
40.650136
 30
0.0
 10
139.858183
 20
40.657841
 30
0.0
 10
139.888499
 20
40.682648
 30
0.0
 10
139.900070
 20
40.693683
 30
0.0
 10
139.925978
 20
40.719026
 30
0.0
 10
139.937013
 20
40.731698
 30
0.0
 10
139.960720
 20
40.760361
 30
0.0
 10
139.969525
 20
40.772496
 30
0.0
 10
139.991567
 20
40.805019
 30
0.0
 10
139.997634
 20
40.815490
 30
0.0
 10
140.016938
 20
40.851868
 30
0.0
 10
140.021905
 20
40.861238
 30
0.0
 10
140.037879
 20
40.900374
 30
0.0
 10
140.041746
 20
40.910280
 30
0.0
 10
140.053881
 20
40.948865
 30
0.0
 10
140.057183
 20
40.962638
 30
0.0
 10
140.064916
 20
40.998466
 30
0.0
 10
140.068218
 20
41.017770
 30
0.0
 10
140.071040
 20
41.048639
 30
0.0
 10
140.072734
 20
41.075648
 30
0.0
 10
140.073298
 20
41.091622
 30
0.0
 10
140.072734
 20
41.101556
 30
0.0
 10
140.073298
 20
41.101556
 30
0.0
 10
140.072169
 20
41.131322
 30
0.0
 10
140.069911
 20
41.156129
 30
0.0
 10
140.065509
 20
41.183138
 30
0.0
 10
140.060005
 20
41.210711
 30
0.0
 10
140.054502
 20
41.233853
 30
0.0
 10
140.045132
 20
41.264170
 30
0.0
 10
140.038528
 20
41.283474
 30
0.0
 10
140.025857
 20
41.315444
 30
0.0
 10
140.022555
 20
41.323148
 30
0.0
 10
137.634139
 20
46.477012
 30
0.0
 10
137.369002
 20
46.743799
 30
0.0
 10
137.326559
 20
46.760337
 30
0.0
 10
137.323737
 20
46.762031
 30
0.0
 10
137.281293
 20
46.775267
 30
0.0
 10
137.271924
 20
46.777525
 30
0.0
 10
137.233891
 20
46.785794
 30
0.0
 10
137.219018
 20
46.788616
 30
0.0
 10
137.185948
 20
46.791918
 30
0.0
 10
137.165007
 20
46.794176
 30
0.0
 10
137.137434
 20
46.794176
 30
0.0
 10
137.109889
 20
46.794176
 30
0.0
 10
137.109841
 20
46.793990
 30
0.0
  0
LWPOLYLINE
  5
116
100
AcDbEntity
  8
Layer_1
 62
7
100
AcDbPolyline
 90
38
 70
1
 10
117.770453
 20
44.299741
 30
0.0
 10
117.757217
 20
44.298612
 30
0.0
 10
117.607286
 20
44.229160
 30
0.0
 10
117.545550
 20
44.075371
 30
0.0
 10
117.549416
 20
44.037886
 30
0.0
 10
117.555484
 20
44.013079
 30
0.0
 10
117.868573
 20
43.297050
 30
0.0
 10
118.388370
 20
42.728197
 30
0.0
 10
119.067467
 20
42.352269
 30
0.0
 10
119.860114
 20
42.216670
 30
0.0
 10
120.653313
 20
42.352269
 30
0.0
 10
121.332961
 20
42.728197
 30
0.0
 10
121.852207
 20
43.297050
 30
0.0
 10
122.164746
 20
44.013079
 30
0.0
 10
122.170249
 20
44.035685
 30
0.0
 10
122.174116
 20
44.074270
 30
0.0
 10
122.108522
 20
44.233020
 30
0.0
 10
121.949221
 20
44.298615
 30
0.0
 10
121.273982
 20
44.298615
 30
0.0
 10
121.070582
 20
44.166876
 30
0.0
 10
121.060676
 20
44.139867
 30
0.0
 10
120.873263
 20
43.805832
 30
0.0
 10
120.597653
 20
43.543453
 30
0.0
 10
120.253695
 20
43.372025
 30
0.0
 10
119.860128
 20
43.310289
 30
0.0
 10
119.467111
 20
43.372025
 30
0.0
 10
119.123152
 20
43.543453
 30
0.0
 10
118.847545
 20
43.805832
 30
0.0
 10
118.659583
 20
44.139867
 30
0.0
 10
118.649112
 20
44.168530
 30
0.0
 10
118.458942
 20
44.298617
 30
0.0
 10
118.458378
 20
44.298617
 30
0.0
 10
118.445142
 20
44.299746
 30
0.0
 10
118.432470
 20
44.298617
 30
0.0
 10
117.783689
 20
44.298617
 30
0.0
 10
117.783125
 20
44.298617
 30
0.0
 10
117.770453
 20
44.299746
 30
0.0
 10
117.770453
 20
44.299741
 30
0.0
  0
LWPOLYLINE
  5
117
100
AcDbEntity
  8
Layer_1
 62
7
100
AcDbPolyline
 90
39
 70
1
 10
123.325599
 20
44.299741
 30
0.0
 10
123.312363
 20
44.298612
 30
0.0
 10
123.162433
 20
44.229160
 30
0.0
 10
123.100696
 20
44.075371
 30
0.0
 10
123.104563
 20
44.037886
 30
0.0
 10
123.110631
 20
44.013079
 30
0.0
 10
123.423720
 20
43.297050
 30
0.0
 10
123.943516
 20
42.728197
 30
0.0
 10
124.622614
 20
42.352269
 30
0.0
 10
125.415263
 20
42.216670
 30
0.0
 10
126.208460
 20
42.352269
 30
0.0
 10
126.888110
 20
42.728197
 30
0.0
 10
127.407354
 20
43.297050
 30
0.0
 10
127.719892
 20
44.013079
 30
0.0
 10
127.725396
 20
44.035685
 30
0.0
 10
127.729262
 20
44.074270
 30
0.0
 10
127.663668
 20
44.233020
 30
0.0
 10
127.504368
 20
44.298615
 30
0.0
 10
126.829129
 20
44.298615
 30
0.0
 10
126.625731
 20
44.166876
 30
0.0
 10
126.615797
 20
44.139867
 30
0.0
 10
126.428384
 20
43.805832
 30
0.0
 10
126.152777
 20
43.543453
 30
0.0
 10
125.808819
 20
43.372025
 30
0.0
 10
125.415252
 20
43.310289
 30
0.0
 10
125.022235
 20
43.372025
 30
0.0
 10
124.678276
 20
43.543453
 30
0.0
 10
124.402669
 20
43.805832
 30
0.0
 10
124.214704
 20
44.139867
 30
0.0
 10
124.204233
 20
44.168530
 30
0.0
 10
124.014063
 20
44.298617
 30
0.0
 10
124.013499
 20
44.298617
 30
0.0
 10
124.000827
 20
44.299746
 30
0.0
 10
124.000263
 20
44.299746
 30
0.0
 10
123.987591
 20
44.298617
 30
0.0
 10
123.338810
 20
44.298617
 30
0.0
 10
123.338246
 20
44.298617
 30
0.0
 10
123.325574
 20
44.299746
 30
0.0
 10
123.325599
 20
44.299741
 30
0.0
  0
LWPOLYLINE
  5
118
100
AcDbEntity
  8
Layer_1
 62
7
100
AcDbPolyline
 90
22
 70
1
 10
121.690144
 20
41.638473
 30
0.0
 10
118.028421
 20
41.625801
 30
0.0
 10
118.028421
 20
41.625236
 30
0.0
 10
117.815651
 20
41.582240
 30
0.0
 10
117.642019
 20
41.465383
 30
0.0
 10
117.524609
 20
41.291198
 30
0.0
 10
117.481615
 20
41.078431
 30
0.0
 10
117.524609
 20
40.865661
 30
0.0
 10
117.642019
 20
40.692029
 30
0.0
 10
117.815651
 20
40.574619
 30
0.0
 10
118.028421
 20
40.531625
 30
0.0
 10
121.690144
 20
40.544297
 30
0.0
 10
121.690144
 20
40.544861
 30
0.0
 10
121.902911
 20
40.587855
 30
0.0
 10
122.077096
 20
40.705265
 30
0.0
 10
122.193953
 20
40.878900
 30
0.0
 10
122.236950
 20
41.091667
 30
0.0
 10
122.193953
 20
41.304437
 30
0.0
 10
122.077096
 20
41.478622
 30
0.0
 10
121.902911
 20
41.595479
 30
0.0
 10
121.690144
 20
41.638473
 30
0.0
 10
121.690144
 20
41.638473
 30
0.0
  0
LWPOLYLINE
  5
119
100
AcDbEntity
  8
Layer_1
 62
7
100
AcDbPolyline
 90
22
 70
1
 10
127.245841
 20
41.638473
 30
0.0
 10
123.584118
 20
41.625801
 30
0.0
 10
123.584118
 20
41.625236
 30
0.0
 10
123.371350
 20
41.582240
 30
0.0
 10
123.197716
 20
41.465383
 30
0.0
 10
123.080309
 20
41.291198
 30
0.0
 10
123.037312
 20
41.078431
 30
0.0
 10
123.080309
 20
40.865661
 30
0.0
 10
123.197716
 20
40.692029
 30
0.0
 10
123.371350
 20
40.574619
 30
0.0
 10
123.584118
 20
40.531625
 30
0.0
 10
127.245841
 20
40.544297
 30
0.0
 10
127.245841
 20
40.544861
 30
0.0
 10
127.458611
 20
40.587855
 30
0.0
 10
127.632796
 20
40.705265
 30
0.0
 10
127.749653
 20
40.878900
 30
0.0
 10
127.792647
 20
41.091667
 30
0.0
 10
127.749653
 20
41.304437
 30
0.0
 10
127.632796
 20
41.478622
 30
0.0
 10
127.458611
 20
41.595479
 30
0.0
 10
127.245841
 20
41.638473
 30
0.0
 10
127.245841
 20
41.638473
 30
0.0
  0
ENDSEC
  0
SECTION
  2
OBJECTS
  0
DICTIONARY
  5
C
330
0
100
AcDbDictionary
  3
ACAD_GROUP
350
D
  3
ACAD_MLINESTYLE
350
17
  0
DICTIONARY
  5
D
330
C
100
AcDbDictionary
  0
DICTIONARY
  5
1A
330
C
100
AcDbDictionary
  0
DICTIONARY
  5
17
330
C
100
AcDbDictionary
  3
STANDARD
350
18
  0
DICTIONARY
  5
19
330
C
100
AcDbDictionary
  0
ENDSEC
  0
EOF
