<?xml version="1.0" encoding="UTF-8" standalone="no"?>
<!-- Created with Inkscape (http://www.inkscape.org/) -->

<svg
   xmlns:dc="http://purl.org/dc/elements/1.1/"
   xmlns:cc="http://creativecommons.org/ns#"
   xmlns:rdf="http://www.w3.org/1999/02/22-rdf-syntax-ns#"
   xmlns:svg="http://www.w3.org/2000/svg"
   xmlns="http://www.w3.org/2000/svg"
   xmlns:sodipodi="http://sodipodi.sourceforge.net/DTD/sodipodi-0.dtd"
   xmlns:inkscape="http://www.inkscape.org/namespaces/inkscape"
   width="210mm"
   height="297mm"
   viewBox="0 0 744.09448819 1052.3622047"
   id="svg2"
   version="1.1"
   inkscape:version="0.91 r13725"
   sodipodi:docname="angel_pug.svg">
  <defs
     id="defs4">
    <clipPath
       id="clipPath4147"
       clipPathUnits="userSpaceOnUse">
      <path
         inkscape:connector-curvature="0"
         id="path4149"
         d="m 0,1080 1920,0 L 1920,0 0,0 0,1080 Z" />
    </clipPath>
    <clipPath
       id="clipPath4335"
       clipPathUnits="userSpaceOnUse">
      <path
         inkscape:connector-curvature="0"
         id="path4337"
         d="m 847.574,372.774 283.056,0 0,-64.411 -283.056,0 0,64.411 z" />
    </clipPath>
    <clipPath
       id="clipPath4339"
       clipPathUnits="userSpaceOnUse">
      <path
         inkscape:connector-curvature="0"
         id="path4341"
         d="m 847.574,372.832 283.056,0 0,-64.665 -283.056,0 0,64.665 z" />
    </clipPath>
    <mask
       id="mask4343"
       height="1"
       width="1"
       y="0"
       x="0"
       maskUnits="userSpaceOnUse">
      <g
         id="g4345">
        <g
           id="g4347"
           clip-path="url(#clipPath4335)">
          <path
             inkscape:connector-curvature="0"
             id="path4349"
             style="fill:#000000;fill-opacity:1;fill-rule:nonzero;stroke:none"
             d="m 847.574,372.832 283.059,0 0,-64.665 -283.059,0 0,64.665 z" />
          <g
             id="g4351">
            <g
               id="g4353" />
            <g
               id="g4355">
              <g
                 id="g4357"
                 clip-path="url(#clipPath4339)" />
            </g>
          </g>
        </g>
      </g>
    </mask>
    <clipPath
       id="clipPath4363"
       clipPathUnits="userSpaceOnUse">
      <path
         inkscape:connector-curvature="0"
         id="path4365"
         d="m 847.574,372.774 283.056,0 0,-64.411 -283.056,0 0,64.411 z" />
    </clipPath>
    <clipPath
       id="clipPath4506"
       clipPathUnits="userSpaceOnUse">
      <path
         inkscape:connector-curvature="0"
         id="path4508"
         d="m 0,1080 1920,0 L 1920,0 0,0 0,1080 Z" />
    </clipPath>
    <clipPath
       id="clipPath4694"
       clipPathUnits="userSpaceOnUse">
      <path
         inkscape:connector-curvature="0"
         id="path4696"
         d="m 847.574,372.774 283.056,0 0,-64.411 -283.056,0 0,64.411 z" />
    </clipPath>
    <clipPath
       id="clipPath4698"
       clipPathUnits="userSpaceOnUse">
      <path
         inkscape:connector-curvature="0"
         id="path4700"
         d="m 847.574,372.832 283.056,0 0,-64.665 -283.056,0 0,64.665 z" />
    </clipPath>
    <mask
       id="mask4702"
       height="1"
       width="1"
       y="0"
       x="0"
       maskUnits="userSpaceOnUse">
      <g
         id="g4704">
        <g
           id="g4706"
           clip-path="url(#clipPath4694)">
          <path
             inkscape:connector-curvature="0"
             id="path4708"
             style="fill:#000000;fill-opacity:1;fill-rule:nonzero;stroke:none"
             d="m 847.574,372.832 283.059,0 0,-64.665 -283.059,0 0,64.665 z" />
          <g
             id="g4710">
            <g
               id="g4712" />
            <g
               id="g4714">
              <g
                 id="g4716"
                 clip-path="url(#clipPath4698)" />
            </g>
          </g>
        </g>
      </g>
    </mask>
    <clipPath
       id="clipPath4722"
       clipPathUnits="userSpaceOnUse">
      <path
         inkscape:connector-curvature="0"
         id="path4724"
         d="m 847.574,372.774 283.056,0 0,-64.411 -283.056,0 0,64.411 z" />
    </clipPath>
    <clipPath
       id="clipPath4865"
       clipPathUnits="userSpaceOnUse">
      <path
         inkscape:connector-curvature="0"
         id="path4867"
         d="m 0,1080 1920,0 L 1920,0 0,0 0,1080 Z" />
    </clipPath>
    <clipPath
       id="clipPath5053"
       clipPathUnits="userSpaceOnUse">
      <path
         inkscape:connector-curvature="0"
         id="path5055"
         d="m 847.574,372.774 283.056,0 0,-64.411 -283.056,0 0,64.411 z" />
    </clipPath>
    <clipPath
       id="clipPath5057"
       clipPathUnits="userSpaceOnUse">
      <path
         inkscape:connector-curvature="0"
         id="path5059"
         d="m 847.574,372.832 283.056,0 0,-64.665 -283.056,0 0,64.665 z" />
    </clipPath>
    <mask
       id="mask5061"
       height="1"
       width="1"
       y="0"
       x="0"
       maskUnits="userSpaceOnUse">
      <g
         id="g5063">
        <g
           id="g5065"
           clip-path="url(#clipPath5053)">
          <path
             inkscape:connector-curvature="0"
             id="path5067"
             style="fill:#000000;fill-opacity:1;fill-rule:nonzero;stroke:none"
             d="m 847.574,372.832 283.059,0 0,-64.665 -283.059,0 0,64.665 z" />
          <g
             id="g5069">
            <g
               id="g5071" />
            <g
               id="g5073">
              <g
                 id="g5075"
                 clip-path="url(#clipPath5057)" />
            </g>
          </g>
        </g>
      </g>
    </mask>
    <clipPath
       id="clipPath5081"
       clipPathUnits="userSpaceOnUse">
      <path
         inkscape:connector-curvature="0"
         id="path5083"
         d="m 847.574,372.774 283.056,0 0,-64.411 -283.056,0 0,64.411 z" />
    </clipPath>
  </defs>
  <sodipodi:namedview
     id="base"
     pagecolor="#ffffff"
     bordercolor="#666666"
     borderopacity="1.0"
     inkscape:pageopacity="0.0"
     inkscape:pageshadow="2"
     inkscape:zoom="0.7"
     inkscape:cx="321.82265"
     inkscape:cy="551.50748"
     inkscape:document-units="mm"
     inkscape:current-layer="layer1"
     showgrid="false"
     inkscape:window-width="1360"
     inkscape:window-height="749"
     inkscape:window-x="1356"
     inkscape:window-y="-4"
     inkscape:window-maximized="1" />
  <metadata
     id="metadata7">
    <rdf:RDF>
      <cc:Work
         rdf:about="">
        <dc:format>image/svg+xml</dc:format>
        <dc:type
           rdf:resource="http://purl.org/dc/dcmitype/StillImage" />
        <dc:title></dc:title>
      </cc:Work>
    </rdf:RDF>
  </metadata>
  <g
     inkscape:label="Layer 1"
     inkscape:groupmode="layer"
     id="layer1">
    <path
       style="fill:#000000"
       d="M 79.185547 203.91797 C 75.365917 203.91797 74.765297 209.32508 77.654297 217.69531 L 79.396484 222.74414 L 74.638672 217.43945 C 72.021592 214.52172 69.201164 212.14616 68.371094 212.16016 C 63.722094 212.23865 66.312378 223.79338 72.673828 231.35352 C 75.414608 234.61075 74.975808 235.0194 71.398438 232.54492 C 65.987337 228.80205 66.015502 228.73814 68.164062 239.97266 C 68.602482 242.26512 68.398016 242.5 65.947266 242.5 C 64.461986 242.5 61.283746 242.76885 58.884766 243.09766 L 54.523438 243.69531 L 55.138672 248.33008 C 56.547052 258.94699 60.823876 266.89098 67.884766 272.00586 C 71.458236 274.59447 71.736423 274.65548 72.876953 273.0957 C 73.924653 271.66289 74.200245 271.6255 74.953125 272.81641 C 75.430655 273.57178 75.827938 274.66925 75.835938 275.25586 C 75.843667 275.84247 77.109638 277.38292 78.648438 278.67773 C 82.597458 282.00062 84.104328 285.39005 84.111328 290.95508 C 84.114448 293.60747 83.974608 295.77734 83.798828 295.77734 C 83.623058 295.77734 75.307552 291.58803 65.320312 286.46875 C 55.333082 281.34947 45.270144 276.59204 42.958984 275.89648 C 38.577454 274.57784 32.677734 275.0622 32.677734 276.74023 C 32.677734 277.27231 34.107369 280.71951 35.855469 284.40234 C 38.404149 289.77183 40.086712 291.92861 44.351562 295.28125 C 48.805043 298.78217 49.831939 299.24267 50.662109 298.11719 C 51.484419 297.00236 52.395266 297.52572 56.003906 301.18945 C 58.396806 303.61888 65.077046 308.43884 70.847656 311.90039 C 82.096206 318.64793 86.703824 321.95879 85.933594 322.73828 C 85.668954 323.0061 78.068862 321.58283 69.044922 319.57617 C 60.020982 317.5695 52.425336 316.13912 52.166016 316.39844 C 50.893496 317.67096 57.563151 324.81065 63.644531 328.68555 C 83.977351 341.64113 84.974499 342.55719 78.912109 342.71484 C 76.975439 342.7652 74.398517 343.08432 73.185547 343.42383 C 71.055827 344.01994 71.141834 344.18745 75.677734 348.26562 C 80.998834 353.04974 90.161082 357.96868 104.52148 363.75195 C 109.93334 365.93144 114.17391 368.01683 113.94531 368.38672 C 113.7167 368.75662 112.51117 369.31434 111.26562 369.62695 C 110.02008 369.93956 107.87822 370.62276 106.50586 371.14453 L 104.00977 372.09375 L 108.53125 376.75586 C 113.17716 381.54573 120.59314 385.77316 124.37695 385.78906 C 126.35365 385.79735 126.18991 386.17817 122.20898 390.83789 C 116.701 397.28506 113.40026 399.22205 106.84961 399.85352 C 99.071267 400.60334 92.544857 403.99281 86.041016 410.66016 L 80.417969 416.42383 L 82.427734 418.56445 C 84.812124 421.10253 88.772814 421.35091 93.740234 419.27539 C 98.780024 417.16963 100.40841 417.77312 97.984375 420.84766 L 96.060547 423.28711 L 104.92773 423.95312 L 113.79688 424.61719 L 103.91211 429.68164 C 97.787617 432.81873 92.059892 436.57578 88.857422 439.55664 L 83.6875 444.36719 L 89.097656 445.49023 C 92.228806 446.14026 98.895132 446.47276 104.92773 446.28125 L 115.34961 445.95117 L 115.34961 448.14258 C 115.34961 450.32243 115.39023 450.33075 122.65234 449.69727 L 129.95508 449.06055 L 136.89062 453.74023 C 140.70512 456.31423 143.82617 458.60918 143.82617 458.83789 C 143.82617 459.06659 141.71695 460.32142 139.14062 461.62695 C 136.5643 462.93247 134.62441 464.16739 134.82812 464.37109 C 135.50883 465.0518 161.59554 469.41027 173.21484 470.78516 C 180.29783 471.62329 193.04397 472.14453 206.51172 472.14453 C 218.66824 472.14453 228.33398 472.50693 228.33398 472.96289 C 228.33398 473.41306 221.53063 480.26806 213.21484 488.19727 C 204.89905 496.12648 197.82819 503.45454 197.50195 504.48242 C 197.12444 505.67188 197.57412 507.23009 198.73828 508.76758 L 200.56641 511.18359 L 197.37891 516.92383 L 194.18945 522.66602 L 207.07422 522.66602 C 214.29122 522.66602 220.1975 523.05233 220.50195 523.54492 C 220.80089 524.02863 219.68973 525.11078 218.03125 525.94922 C 211.35056 529.32663 207.97266 534.25788 207.97266 540.63477 C 207.97266 548.41314 207.92001 548.37874 217.10352 546.45898 C 221.51202 545.53741 225.37678 544.76795 225.69141 544.74805 C 226.00604 544.72813 226.47068 546.85808 226.72266 549.48047 C 227.29034 555.38841 230.37533 558.51108 238.0293 560.92383 L 243.24805 562.56836 L 242.63477 569.33203 C 242.06975 575.56733 242.15219 576.05616 243.67578 575.59766 C 246.02868 574.88966 266.10438 570.43164 266.93945 570.43164 C 267.82077 570.43164 270.58984 577.27658 270.58984 579.45508 C 270.58984 580.35618 268.76866 584.7926 266.54297 589.3125 C 261.77522 598.9946 260.26248 603.30933 258.17578 613.17773 C 255.34598 626.56033 255.76124 630.37032 262.12109 649.29492 C 268.47193 668.19282 269.34078 672.21691 270.17969 686.63281 C 270.74941 696.42321 272.33503 704.99763 274.42383 709.58203 C 275.35957 711.63573 275.62353 711.71193 277.83594 710.58203 C 280.6229 709.15873 283.09753 709.85393 285.74609 712.80273 C 289.16126 716.60513 287.29505 729.21274 281.66602 740.36914 C 278.46912 746.70514 271.2709 757.24424 267.17578 761.58594 C 264.63698 764.27764 263.90131 765.98198 263.20898 770.77148 C 261.82991 780.31178 261.99075 781.8681 264.32227 781.5332 C 265.93267 781.3019 267.05314 782.46222 270.06445 787.48242 L 273.80469 793.71875 L 277.24805 793.14258 C 280.43863 792.60918 280.69336 792.73092 280.69336 794.79102 C 280.69336 796.01422 280.96982 797.29015 281.30664 797.62695 C 282.25723 798.57755 283.12286 798.36063 284.36719 796.86133 C 285.87315 795.04673 288.02822 795.11233 289.41992 797.01562 C 290.45624 798.43282 290.77411 798.40528 293.6543 796.64258 C 295.36716 795.59428 299.45631 793.40028 302.74023 791.76758 C 314.32847 786.00608 316.09711 783.90487 317.40625 774.35547 C 317.78717 771.57677 319.66015 761.03604 321.56836 750.93164 C 325.10441 732.20764 325.73439 722.8684 324.75586 703.625 C 324.48424 698.2834 325.28254 692.09326 328.31055 676.06836 C 332.76227 652.50876 333.36901 650.53424 336.38477 649.77734 C 340.18671 648.82314 342.61542 650.11236 352.31445 658.22266 C 357.52123 662.57656 363.59435 666.91523 365.81055 667.86523 C 372.68724 670.81293 381.03836 671.75442 395.43359 671.20312 C 417.52316 670.35723 439.11934 665.03865 453.61328 656.87695 C 458.0326 654.38835 461.80116 652.62423 461.98828 652.95703 C 462.17541 653.28983 462.85795 656.88652 463.50391 660.94922 C 464.42785 666.76012 464.45249 670.77845 463.62305 679.78125 C 463.04313 686.07545 462.31707 698.25114 462.00977 706.83984 C 461.51252 720.73734 461.6708 723.46758 463.44336 731.64258 C 464.53882 736.69478 465.77278 743.58488 466.18555 746.95508 C 467.57929 758.33458 476.03613 765.57241 490.7832 768.00781 C 503.25429 770.06741 509.91246 767.15106 513.90039 757.88086 C 514.97627 755.37986 516.26792 753.07878 516.77148 752.76758 C 519.44824 751.11328 515.56352 742.50912 511.33789 740.73242 C 508.2359 739.42812 505.93581 735.44764 503.16602 726.58984 C 502.13915 723.30594 500.20196 717.73448 498.85938 714.20898 C 494.43609 702.59388 494.81775 691.0942 499.95508 681.2168 C 505.49957 670.5566 508.43211 664.11578 511.60352 655.64258 C 516.99903 641.22728 517.96682 635.91756 518.18359 619.53516 C 518.36496 605.82736 518.55181 604.38419 520.86328 598.86719 C 525.95252 586.72029 526.16016 585.5614 525.43359 573.1875 C 524.2447 552.94026 524.34457 551.20213 527.02539 545.4707 L 529.46289 540.25977 L 535.19336 542.04297 C 538.34526 543.02395 541.07846 543.67153 541.26758 543.48242 C 541.45669 543.2933 542.0916 540.84476 542.67969 538.04102 C 544.00733 531.71144 542.65376 526.3647 538.73047 522.44141 C 537.26039 520.97133 536.05859 519.38395 536.05859 518.91406 C 536.05859 518.11958 544.20552 518.40985 552.93164 519.51562 C 556.02037 519.90702 556.40478 519.75869 555.87305 518.37305 C 554.31277 514.30701 554.23121 509.02193 555.69531 506.93164 C 556.51526 505.76099 557.18555 504.05695 557.18555 503.14453 C 557.18555 501.03423 553.12341 492.9789 545.11914 479.21875 C 541.6518 473.25804 538.81445 467.94012 538.81445 467.40039 C 538.81445 466.81777 539.65383 466.66035 540.88086 467.01562 C 553.29774 470.61075 571.00216 471.53508 597.76953 469.98438 C 612.99799 469.10216 614.48112 468.31928 608.46484 464.33789 L 604.75 461.88086 L 610.94922 457.72266 C 617.04267 453.63487 617.23914 453.57491 622.61914 454.18359 C 627.12534 454.69341 628.28678 454.53495 629.19922 453.28711 C 630.18158 451.94365 630.95287 451.89725 635.99219 452.88867 C 642.08254 454.08687 650.38908 453.71248 651.93164 452.16992 C 653.93925 450.16231 647.05611 441.31785 637.58203 433.73242 L 633.92773 430.80859 L 640.54492 430.80859 L 647.16016 430.80859 L 646.60742 428.04492 L 646.05469 425.28125 L 650.07617 427.10547 C 655.15934 429.41188 656.62231 429.41678 658.6875 427.13477 C 660.29003 425.36397 660.28719 425.16613 658.62695 421.48438 C 654.88999 413.19728 652.19192 409.97901 647.52734 408.24805 C 645.0779 407.33909 641.89441 405.78441 640.45312 404.79297 C 638.07392 403.15635 632.02813 394.81802 631.39258 392.29688 C 631.24939 391.72883 633.93524 390.30772 637.36328 389.13867 C 643.36777 387.09098 649.96289 382.1988 649.96289 379.79102 C 649.96289 379.21186 648.5401 377.97274 646.80273 377.03711 C 645.06537 376.10148 643.80713 375.07349 644.00586 374.75195 C 644.20459 374.4304 649.15407 372.39243 655.00391 370.22461 C 666.27928 366.04621 674.97361 361.05799 678.25781 356.88281 C 680.66351 353.82445 680.34078 353.11778 676.18359 352.33789 C 674.42747 352.00844 672.79446 351.42115 672.55469 351.0332 C 672.31493 350.64526 676.32048 347.87186 681.45508 344.86914 C 690.21337 339.74731 701.46147 330.43609 700.29688 329.27148 C 700.00899 328.98358 694.55131 329.59529 688.16797 330.63281 C 670.69017 333.47357 670.38398 333.2939 681.23828 326.54883 C 709.30253 309.10914 711.04679 307.77645 717.12109 299.12695 C 722.88646 290.91736 722.95795 289.3457 717.56836 289.3457 C 714.34234 289.3457 710.34482 290.92377 697.78125 297.1543 C 689.1219 301.44866 681.6408 304.96289 681.15625 304.96289 C 679.99419 304.96289 680.03145 301.12848 681.22461 297.99023 C 682.89891 293.58648 690.62492 283.83594 692.43945 283.83594 C 699.23968 283.83594 708.07241 271.92177 709.36523 261.00586 L 709.89453 256.54883 L 705.96484 255.91992 C 703.80429 255.57444 701.72494 255.09887 701.34375 254.86328 C 700.96255 254.62768 701.21819 252.05982 701.91211 249.15625 C 703.43075 242.80188 703.52404 241.29611 702.35352 242.01953 C 701.86626 242.32068 702.07263 241.11842 702.8125 239.34766 C 703.55237 237.57691 704.1582 234.78495 704.1582 233.14258 L 704.1582 230.15625 L 698.53711 235.63867 C 695.4458 238.65416 693.08789 240.70835 693.29688 240.20312 C 693.50585 239.6979 694.98825 236.59642 696.5918 233.3125 C 700.03859 226.25381 701.59902 216.7793 699.31445 216.7793 C 696.97985 216.7793 688.88055 223.58126 674.76367 237.39648 C 627.52371 283.62696 613.15644 294.87439 569.12695 320.0918 C 544.81298 334.01736 532.32939 342.24157 520.5332 352.10547 C 511.26425 359.85611 509.41992 361.03224 509.41992 359.19141 C 509.41992 356.68183 502.84328 351.34434 494.41992 347.01758 C 487.93749 343.68779 480.73446 338.71929 470.46875 330.49805 C 455.29358 318.34511 450.43185 315.64953 440.98633 314.1543 C 438.46024 313.75441 433.91217 312.92504 430.88086 312.31055 C 420.14857 310.13496 410.24007 312.14804 392.30078 320.15039 C 386.23816 322.85481 378.17781 325.90168 374.38867 326.92188 C 366.4615 329.05622 352.85983 330.65172 351.2207 329.63867 C 349.76194 328.73711 353.04146 317.21241 357.39453 307.94336 C 364.89148 291.97997 369.8274 289.74004 387.4668 294.30273 C 397.45602 296.88659 409.64072 299.01541 423.07422 300.52344 C 436.46871 302.02704 487.30824 302.00336 498.39648 300.48828 C 537.8035 295.10378 556.32588 283.92741 544.55469 272.63672 C 540.13974 268.402 536.11432 266.43793 523.6582 262.44336 C 504.43591 256.27894 477.55929 253.16489 443.74219 253.18359 C 412.52532 253.20088 399.83871 254.44911 373.4707 260.0957 C 355.08241 264.03347 350.50586 266.65856 350.50586 273.27148 C 350.50586 276.95423 352.31778 279.39897 357.41211 282.59375 C 359.70849 284.03386 361.82402 286.14331 362.11523 287.2793 C 362.46864 288.65794 360.80417 293.54503 357.10938 301.97656 C 354.0649 308.92407 349.98865 318.52791 348.05078 323.32031 C 344.01298 333.3059 345.71597 331.83755 319.73242 347.73828 C 309.40869 354.05593 302.96565 358.73365 298.08008 363.45703 C 294.25466 367.15545 290.81951 370.18164 290.44531 370.18164 C 290.0711 370.18164 284.72766 366.32273 278.57031 361.60547 C 272.41294 356.88822 252.0798 342.56856 233.38672 329.78516 C 158.69401 278.706 151.41454 272.96209 111.4668 233.56641 C 88.710105 211.12421 80.865687 203.91797 79.185547 203.91797 z M 81.199219 212.11914 C 82.624336 212.26178 88.658331 218.28804 110.4707 240.29102 C 152.24958 282.43497 155.9384 285.514 195.65234 311.38281 C 246.78844 344.69178 284.63293 370.8296 285.68164 373.5625 C 285.96434 374.29919 284.85434 379.21267 283.21484 384.48242 C 281.57533 389.75218 279.99444 394.06434 279.70117 394.06445 C 279.40791 394.06456 277.77288 392.10096 276.06836 389.70117 C 271.78557 383.67145 262.95398 374.53313 256.23438 369.17773 C 253.13878 366.71059 241.15144 358.64765 229.5957 351.25977 C 176.66381 317.4191 151.4634 298.88048 132.34375 279.7207 C 117.61304 264.95907 95.820464 241.54842 91.708984 236.06836 C 87.128043 229.96259 81.669194 218.60151 80.896484 213.56445 C 80.760504 212.67805 80.72418 212.07159 81.199219 212.11914 z M 69.474609 214.875 C 70.882139 214.8811 74.163876 218.43559 82.628906 228.88086 C 101.83356 252.57808 122.86001 275.79584 135.09961 286.82227 C 155.28388 305.0059 181.64252 325.02475 210.42188 344.02539 C 246.36907 367.75835 260.65528 379.57985 269.2207 392.67969 C 279.146 407.85932 283.10562 427.90115 278.7793 441.06055 C 277.56598 444.7511 276.68532 450.433 276.37305 456.57812 C 275.70772 469.67134 277.64305 476.98549 287.15039 497.29492 L 294.60156 513.21289 L 288.63867 525.97656 C 285.35912 532.99661 281.17783 543.68608 279.3457 549.73047 C 277.51359 555.77485 275.82641 560.90792 275.59766 561.13672 C 275.36892 561.36542 275.18164 559.97514 275.18164 558.04688 L 275.18164 554.54102 L 272.43359 558.33398 C 268.97341 563.11066 264.20024 566.24343 257.72852 567.98633 C 254.94982 568.73473 251.33337 569.58159 249.69141 569.86719 C 246.80123 570.36979 246.70703 570.28596 246.70703 567.22656 C 246.70703 563.41176 250.57209 558.6137 256.39844 555.19922 C 262.76238 551.46971 263.50799 549.78209 257.79688 552.0332 C 255.14237 553.0795 251.78875 554.54768 250.34375 555.29492 C 244.61722 558.25622 232.5718 556.08659 230.20703 551.66797 C 228.74436 548.93494 229.83334 546.69136 235.41992 540.91602 L 239.53516 536.66016 L 226.19336 540.13867 C 218.85496 542.05245 212.61508 543.38266 212.32617 543.09375 C 212.03726 542.80485 211.80078 541.03846 211.80078 539.16992 C 211.80078 534.92614 213.94879 532.12012 220.9668 527.19727 C 226.69651 523.1781 228.4392 520.85691 225.7793 520.78711 C 224.91102 520.76432 223.0413 520.2474 221.625 519.63867 L 219.05078 518.53125 L 225.95703 514.44141 C 229.7551 512.19202 232.73914 510.22939 232.58984 510.08008 C 232.44054 509.93077 229.25203 510.86577 225.50391 512.15625 C 214.36674 515.99077 202.27628 519.02041 201.44141 518.18555 C 201.01279 517.75693 205.2533 513.57808 210.86523 508.90039 C 216.47716 504.22271 220.87821 500.20635 220.64648 499.97461 C 220.41474 499.74288 216.81097 501.03287 212.63672 502.8418 C 208.46248 504.65073 204.90653 506.13086 204.73438 506.13086 C 204.5622 506.13086 205.43924 504.12164 206.68359 501.66602 C 209.82098 495.47468 215.72268 489.31095 232.30078 474.90625 C 240.14654 468.08907 246.42456 462.37181 246.25391 462.20117 C 246.08328 462.03054 239.39876 463.26619 231.39844 464.94922 C 217.91561 467.78561 215.64423 468.00583 200.31836 467.95703 C 183.75624 467.90429 175.05664 467.15832 175.05664 465.78906 C 175.05664 465.38696 179.08779 463.29296 184.01367 461.13672 C 188.93954 458.98049 193.17512 457.00998 193.42773 456.75781 C 193.94588 456.24055 194.55732 456.08383 177.8125 460.79297 C 167.40156 463.72083 164.01176 464.27944 156.68555 464.27344 C 151.88598 464.2697 147.16669 463.81363 146.19727 463.25977 C 144.73522 462.42443 146.30125 461.82827 155.38281 459.76172 C 172.55635 455.85379 172.9205 455.60942 160.81836 456.13867 C 154.42876 456.4181 148.48333 456.22645 146.67383 455.68164 C 141.38877 454.09039 135.28519 449.14449 136.77148 447.6582 C 136.95794 447.47174 146.12626 445.67651 157.14453 443.66797 C 168.1628 441.65942 177.38967 439.80369 177.64844 439.54492 C 178.57313 438.62024 173.10583 439.1196 147.89258 442.25781 C 133.83076 444.00803 122.16982 445.28309 121.97852 445.0918 C 121.78723 444.9005 122.0769 443.90917 122.62305 442.88867 C 124.4054 439.55833 123.69018 439.22395 118.79492 441.10156 C 112.57904 443.4857 100.67372 444.21906 95.189453 442.55664 L 91.105469 441.31836 L 105.75391 435.04688 C 122.85199 427.72562 133.45878 424.11977 145.08984 421.67578 L 153.4707 419.91602 L 128.43945 419.84961 C 114.67225 419.81374 103.4082 419.56572 103.4082 419.29688 C 103.4082 419.02804 104.01721 417.35022 104.76172 415.56836 C 106.0132 412.57315 105.99505 412.36386 104.53125 412.79688 C 98.536188 414.57031 87.505733 417.04871 87.158203 416.70117 C 86.285212 415.82818 89.743931 410.6062 92.613281 408.46484 C 97.560761 404.77261 98.703916 404.44311 114.17969 402.22266 C 128.6877 400.14105 131.50806 399.0848 124.14648 398.49023 C 122.16466 398.33016 120.40646 397.77738 120.23828 397.26367 C 120.07009 396.74997 123.45806 393.65111 127.76758 390.37695 L 135.60352 384.42383 L 128.46094 382.96289 C 124.53317 382.159 120.22971 381.04898 118.89648 380.49609 C 116.20418 379.37959 109.83789 374.07135 109.83789 372.94336 C 109.83789 372.54658 112.52467 371.49633 115.80859 370.60742 C 119.09251 369.71851 121.77934 368.74143 121.77734 368.4375 C 121.7757 368.13357 118.77837 366.68411 115.11719 365.2168 C 96.640396 357.81185 79.124837 348.09803 81.029297 346.3125 C 81.464977 345.90405 86.987503 346.34419 93.302734 347.28906 C 99.617964 348.23393 105.40623 349.01529 106.16406 349.02539 C 106.92188 349.03549 101.54833 346.04479 94.222656 342.38086 C 78.416225 334.47531 58.937494 321.46889 62.990234 321.52539 C 63.748064 321.53595 73.225821 323.77847 84.050781 326.50781 C 107.0263 332.30069 107.12537 333.09397 82.744141 316.23047 C 66.448321 304.95933 56.133996 297.00596 51.572266 292.19727 C 49.100236 289.59141 48.751866 289.47872 47.291016 290.80078 C 45.814706 292.13682 45.426064 291.77696 41.865234 285.7832 C 39.755464 282.23193 38.288579 278.90532 38.605469 278.39258 C 39.448749 277.02813 45.082747 279.46842 70.935547 292.38867 C 95.134878 304.48258 97.896484 305.68182 97.896484 304.10547 C 97.896484 303.5662 97.293191 303.125 96.556641 303.125 C 95.820081 303.125 93.548009 301.5364 91.505859 299.59375 C 88.243759 296.49059 87.791016 295.55959 87.791016 291.9375 C 87.791016 289.67 88.050528 287.55689 88.367188 287.24023 C 88.683847 286.92357 90.158681 287.29219 91.644531 288.06055 C 97.113461 290.88865 96.094136 288.68 89.816406 284.09961 C 82.794755 278.97645 76.630734 271.88729 74.802734 266.83203 L 73.646484 263.63281 L 71.226562 265.95312 L 68.804688 268.27344 L 64.587891 259.29102 C 62.268841 254.35032 60.238149 249.73959 60.074219 249.04492 C 59.697939 247.45039 66.875153 244.8739 69.689453 245.59375 C 70.804513 245.87896 77.241128 249.24889 83.992188 253.08203 C 90.743249 256.91518 96.435828 259.88252 96.642578 259.67578 C 96.849318 259.46903 91.564438 254.81896 84.898438 249.34375 C 78.232448 243.86854 73.262096 239.22839 73.853516 239.03125 C 74.444936 238.83411 78.435736 240.53785 82.722656 242.81836 C 90.957897 247.19926 94.115657 247.39855 87.335938 243.10938 C 84.492556 241.31051 81.707954 238.06837 77.714844 231.9043 C 72.194154 223.38215 68.256542 215.8001 68.976562 215.08008 C 69.110755 214.94589 69.273534 214.87413 69.474609 214.875 z M 695.95703 223.20898 C 696.42623 223.20898 696.81055 223.66345 696.81055 224.21875 C 696.81055 225.54813 687.93997 240.50036 682.82031 247.80078 C 677.83245 254.91324 636.66125 295.02383 623.97461 305.13086 C 615.01072 312.27209 596.7337 324.57389 555.94336 350.91992 C 545.40797 357.72461 534.07009 365.56505 530.74805 368.34375 C 523.96036 374.02128 517.43724 382.17402 510.93359 393.10742 C 508.51673 397.17043 506.41392 400.49414 506.26172 400.49414 C 506.03306 400.49414 502.20806 392.10801 500.5 387.86328 C 500.22312 387.17521 500.76697 386.7168 501.85938 386.7168 C 504.47113 386.7168 505.33911 385.30378 507.74219 377.13477 C 509.39217 371.52583 510.78349 368.86329 513.84766 365.45508 C 519.1526 359.55451 529.89309 350.98661 541.11133 343.70508 C 553.40622 335.72471 604.38812 303.78682 613.96094 298.06836 C 622.40761 293.02263 628.33091 287.68555 668.16992 249.2168 C 682.98358 234.91266 695.48783 223.20898 695.95703 223.20898 z M 701.87695 236.0957 C 702.08265 236.13242 702.00738 236.49364 701.85742 236.98828 C 701.47451 238.25133 700.42515 240.33068 699.52539 241.60938 C 697.50236 244.4844 689.82343 251.72138 686.45312 253.92969 C 681.47304 257.19273 684.09243 257.20619 689.91992 253.94727 C 693.20384 252.1108 695.89062 251.03943 695.89062 251.56641 C 695.89062 252.0934 691.96363 255.90944 687.16406 260.04688 C 682.36448 264.1843 678.4375 267.75223 678.4375 267.97461 C 678.4375 268.197 682.80205 266.06854 688.13477 263.24609 C 693.46749 260.42363 698.44813 258.11523 699.20312 258.11523 C 699.95812 258.11523 701.79414 258.74561 703.2832 259.51562 L 705.99023 260.91602 L 701.38086 270.10156 C 697.27302 278.28742 696.58175 279.18513 695.03516 278.35742 C 693.54778 277.5614 692.02226 278.77268 684.35742 286.83203 C 677.88379 293.63886 675.83808 296.32018 676.95312 296.53906 C 678.19641 296.78311 678.37963 297.49144 677.89844 300.21289 C 676.9549 305.54933 674.68572 309.63044 671.62305 311.49805 C 669.74413 312.64381 669.32254 313.22456 670.36914 313.22656 C 671.23592 313.22845 681.24756 308.47603 692.61719 302.66602 C 710.82938 293.35939 717.01758 290.80857 717.01758 292.61133 C 717.01758 293.04175 710.16621 303.59049 709 304.95508 C 708.78771 305.20348 708.25598 304.76635 707.81836 303.98438 C 707.17192 302.82924 705.81263 303.71062 700.57031 308.67969 C 697.02144 312.04358 686.64594 319.86782 677.51367 326.06836 C 668.38141 332.26892 661.11445 337.54805 661.36523 337.79883 C 661.76305 338.19664 686.16582 333.95153 689.23242 332.95117 C 689.86394 332.74516 690.37891 332.98064 690.37891 333.47266 C 690.37891 335.51687 679.46064 342.64401 665.41406 349.76953 C 655.32057 354.88974 651.4722 357.2257 653.63672 356.91602 C 655.40498 356.66305 660.77855 356.212 665.57812 355.91406 L 674.30469 355.37109 L 671.16016 358.15234 C 667.18237 361.67161 658.44649 366.1936 646.97656 370.66992 C 642.05068 372.59231 638.02148 374.40666 638.02148 374.70117 C 638.02148 374.99568 639.88082 376.22361 642.1543 377.42969 C 644.42778 378.63577 646.28711 379.95789 646.28711 380.36719 C 646.28711 381.75355 640.3372 385.61188 636.64258 386.62109 C 634.62171 387.17311 631.4881 387.62591 629.67773 387.62891 C 627.86736 387.63173 626.13043 387.8891 625.81836 388.20117 C 625.50628 388.51325 627.22471 391.71695 629.63672 395.32031 C 632.04872 398.92367 634.3227 402.38515 634.69141 403.01172 C 635.20759 403.88888 634.03015 404.03731 629.57227 403.6543 C 624.02188 403.17744 623.89965 403.21051 626.60156 404.4668 C 628.1517 405.18755 633.71005 407.17199 638.95508 408.87695 C 649.74205 412.38337 654.04387 415.66794 655.08008 421.19141 C 655.41762 422.99069 655.50122 424.65698 655.26562 424.89258 C 655.03004 425.12818 652.43522 424.25708 649.5 422.95898 C 643.77563 420.4274 642.65615 420.77122 642.62695 425.06641 C 642.60991 427.56894 643.10013 427.55893 632.60156 425.26758 C 625.46143 423.70923 605.03289 421.38035 604.26367 422.03711 C 604.13769 422.14468 607.65193 423.79564 612.07227 425.70508 C 623.64506 430.70413 636.77134 438.6561 641.875 443.75977 C 644.30245 446.18723 646.28711 448.60549 646.28711 449.13477 C 646.28711 449.69926 643.99468 450.09766 640.74023 450.09766 C 635.28147 450.09766 631.71297 448.81635 626.23633 444.88477 L 624.09961 443.34961 L 624.73242 446.72266 C 625.08061 448.57868 624.99563 450.09766 624.54492 450.09766 C 624.09423 450.09766 615.05887 447.62142 604.46484 444.59375 C 593.87081 441.56609 584.24858 439.08603 583.08203 439.08203 C 579.74707 439.07161 581.52974 440.57801 586.26172 441.76953 C 588.62971 442.3658 595.67572 444.7537 601.91992 447.07617 L 613.27344 451.29883 L 611.17969 453.57227 C 606.71686 458.41731 600.70453 459.39355 590.35156 456.95312 C 587.12091 456.1916 584.34651 455.70038 584.18555 455.86133 C 584.0246 456.02229 588.63049 458.18008 594.42188 460.65625 C 600.21326 463.13243 604.95117 465.53334 604.95117 465.99219 C 604.95117 466.45109 601.74747 466.66943 597.83203 466.47656 C 591.7873 466.1788 589.42296 465.52499 582.1582 462.15039 C 577.4525 459.96452 573.41021 458.36909 573.17578 458.60352 C 572.94135 458.83795 574.60873 460.43067 576.88086 462.14258 C 579.15297 463.85449 581.02542 465.62387 581.04102 466.07617 C 581.05729 466.54759 575.28643 466.67214 567.51953 466.36719 C 552.20992 465.7661 543.91003 463.88417 534.45117 458.86719 C 531.29356 457.19239 528.70898 456.00958 528.70898 456.24023 C 528.70898 456.72847 531.3434 461.36828 539.53516 475.30859 C 545.69609 485.79295 550.75586 497.20645 550.75586 500.62109 C 550.75586 502.47832 550.44152 502.38386 546.11914 499.21094 C 543.5693 497.33919 541.27944 496.01159 541.0293 496.26172 C 540.77916 496.51185 543.07241 500.61982 546.125 505.39062 C 551.2138 513.34379 552.80649 516.87011 550.95508 516.08203 C 550.55945 515.91363 545.59863 513.3828 539.93164 510.45703 C 529.51703 505.08016 525.77028 504.38021 534.20312 509.38672 C 536.71919 510.88049 538.78688 512.60279 538.79688 513.21484 C 538.8069 513.82689 537.16151 514.77225 535.14062 515.31641 C 533.11975 515.86058 531.46484 516.66558 531.46484 517.10352 C 531.46484 517.54146 532.93724 519.66108 534.73633 521.81445 C 540.6242 528.86178 542.14109 534.05726 539.40234 537.80273 C 538.21591 539.42526 537.67962 539.24684 528.82812 534.30273 C 523.70012 531.43843 519.33993 529.0957 519.13867 529.0957 C 518.93741 529.0957 520.40196 532.24307 522.39258 536.08984 C 525.60942 542.30624 526.21063 545.35867 524.59375 547.25977 C 523.73187 548.27315 520.82547 545.5481 518.56641 541.60938 C 517.08194 539.0212 515.86242 537.23801 515.85742 537.64648 C 515.85268 538.05495 517.10613 543.36918 518.64258 549.45508 C 526.5032 580.59102 524.07988 592.31043 504.73633 616.70703 C 501.53238 620.74793 499.84171 623.49158 500.90625 622.92188 C 502.61704 622.00627 508.08441 616.11422 512.94336 609.94922 L 514.74023 607.66992 L 515.41992 614.02148 C 516.75531 626.49108 514.73731 641.46512 510.33789 651.72852 C 508.88332 655.12192 507.75626 656.28604 504.60938 657.65234 C 496.4818 661.18124 484.61826 660.82498 471.08984 656.64648 C 465.64564 654.96498 465.32812 654.71099 465.32812 652.02539 C 465.32813 647.11309 467.4352 641.87489 470.85938 638.27539 L 474.16406 634.80078 L 471.61523 634.24219 C 467.31311 633.29729 464.36355 635.57578 459.68164 643.45898 C 452.97983 654.74318 450.73047 656.69007 439.69531 660.75977 C 434.44292 662.69677 428.03729 664.65774 425.46094 665.11914 L 425.46094 665.12109 C 418.58747 666.35199 389.57318 666.91537 382.71094 665.95117 C 375.74967 664.97297 365.25977 661.90755 360.41406 659.43555 C 358.52584 658.47215 354.81907 655.76377 352.17773 653.41797 C 343.04254 645.30457 336.11689 642.20739 332.50195 644.62109 C 330.4801 645.97119 329.26126 649.63935 328.99023 655.18945 C 328.73304 660.45615 328.52388 660.94234 326.06055 661.99414 C 322.37134 663.56934 314.2574 663.47666 307.75586 661.78516 C 302.03393 660.29636 287.27958 654.55045 286.08008 653.34375 C 285.00211 652.25925 284.06092 622.63584 285.02539 620.14844 L 285.87305 617.96289 L 289.32031 620.99023 L 292.76953 624.01758 L 290.0918 619.47852 C 282.35094 606.35002 279.317 593.06538 280.04492 575.48438 C 280.58035 562.55247 282.27282 553.18249 288.12305 530.74219 L 289.00977 527.33789 L 300.23828 535.28125 C 306.4135 539.65038 314.56634 545.52184 318.35547 548.32812 C 325.55699 553.66167 351.23697 566.79065 366.00586 572.68945 C 370.74172 574.58105 379.42119 577.4049 385.29492 578.9668 C 395.28885 581.6242 397.03679 581.81133 412.50977 581.86133 C 430.56088 581.92003 435.09199 581.20124 450.2832 575.86914 C 470.85298 568.64924 492.75273 553.57584 507.09766 536.76367 C 514.00378 528.66974 513.83341 530.48068 509.20312 514.39844 C 506.66966 505.59904 506.41033 503.42528 506.24805 489.59766 C 506.10297 477.23587 505.66663 472.76612 503.88672 465.35938 L 501.70508 456.2793 L 503.76172 452.95898 C 510.54113 442.01418 511.82603 433.42967 508.59961 420.65039 C 504.63379 404.94245 495.87122 391.24773 480.76562 377.15234 C 471.19513 368.22188 467.48111 366.50781 457.69336 366.50781 C 448.34589 366.50781 444.61943 367.93786 439.27344 373.57812 C 426.99954 386.52763 420.20043 398.00761 409.61523 423.66016 C 401.04012 444.44136 400.18052 447.75195 402.26172 451.92383 C 403.10324 453.6107 403.62562 455.15563 403.42383 455.35742 C 402.62 456.16125 383.66347 453.60903 378.00781 451.93555 C 371.45966 449.99799 365.5931 446.25112 362.67188 442.14258 C 360.93669 439.70217 360.26729 437.78605 357.91211 428.51172 C 357.0712 425.20038 357.02733 425.40735 357.46484 430.59961 C 358.46345 442.45094 361.98071 448.12523 372.47461 454.81836 C 378.65608 458.76097 379.79257 459.94236 382.55664 465.30078 C 384.91296 469.8687 387.59094 473.06113 393.54883 478.40234 C 410.52025 493.61713 410.84906 494.33089 406.66602 506.81641 C 405.11969 511.43193 401.74696 519.4076 399.17188 524.53906 C 394.48833 533.8721 394.8509 535.1686 400.31641 528.63672 C 408.07012 519.3702 413.32539 508.3095 414.74805 498.26367 C 415.73853 491.26963 418.02974 487.69446 422.78906 485.71289 C 429.09692 483.08659 444.84833 478.57422 447.70898 478.57422 L 450.50977 478.57422 L 448.64844 484.08789 C 447.15585 488.50767 445.75536 490.5364 441.58984 494.30664 L 436.39258 499.00977 L 440.29688 498.42578 L 444.20117 497.84375 L 444.22852 503.5957 L 444.25781 509.34766 L 447.39844 500.18555 C 451.18909 489.1265 457.13649 480.13438 465.18555 473.29297 C 468.30615 470.64058 471.26789 468.4707 471.76758 468.4707 C 473.13276 468.4707 472.86102 475.55707 471.38672 478.39062 C 470.6769 479.7549 468.98439 481.90492 467.62695 483.16797 C 466.26951 484.43101 464.75667 486.21217 464.26367 487.12695 C 462.45568 490.48169 468.69906 486.1653 472.85156 481.18945 C 475.02913 478.58011 478.39054 474.75417 480.32227 472.6875 L 483.83398 468.92969 L 483.35156 481.33008 C 482.59387 500.79295 478.24577 516.6988 467.58594 538.99414 C 464.37936 545.70081 462.20387 550.911 462.75195 550.57227 C 464.74686 549.33935 479.01946 518.28848 481.70117 509.34766 C 483.21653 504.29548 485.92587 493.99892 487.7207 486.4668 C 490.31428 475.58279 491.4803 472.25236 493.4043 470.24414 C 497.67485 465.78665 498.87757 466.1525 500.80859 472.49023 C 503.15037 480.17611 502.87818 489.66732 499.82031 507.05078 C 496.8103 524.16215 493.06435 536.04625 488.35938 543.39844 C 485.49156 547.87981 483.45056 549.72972 476.86328 553.82422 C 468.11729 559.2605 456.2918 564.07493 445.83984 566.45703 C 436.28312 568.63423 413.36601 568.62957 402.48828 566.44727 C 376.39425 561.21217 346.05427 546.59823 319.18164 526.32031 C 298.58466 510.77796 295.88983 506.90557 295.86523 492.8125 C 295.85172 485.08047 296.07914 484.06823 299.40039 477.19531 C 304.25422 467.15093 305.48585 462.07134 305.40625 452.39453 L 305.33789 444.12695 L 303.2168 453.85352 C 302.05025 459.20287 299.99228 466.22939 298.64453 469.46875 C 293.42974 482.00271 291.65618 487.14606 290.9668 491.73047 L 290.25195 496.48633 L 288.14258 490.97461 C 283.34573 478.43565 282.27207 465.04216 284.82812 449.63867 C 286.38872 440.2341 288.49609 430.96483 289.24414 430.2168 C 289.52216 429.93878 291.53607 430.93442 293.71875 432.42773 C 302.52499 438.45261 306.07893 439.32644 311.13672 436.71094 C 312.67424 435.91586 314.0459 435.39894 314.18359 435.5625 C 314.32127 435.72606 315.53761 437.63106 316.88672 439.79688 C 318.23585 441.96269 319.69948 443.51362 320.13867 443.24219 C 320.57786 442.97075 320.71739 440.32854 320.44922 437.37109 C 319.799 430.20037 321.30275 425.89407 325.32812 423.40625 C 327.78109 421.89023 328.8025 421.68152 329.7793 422.49219 C 332.04353 424.37134 333.73427 429.29524 334.36719 435.85352 C 335.27949 445.30683 338.51646 451.72111 345.88672 458.67383 C 351.67542 464.13461 368.05479 475.13932 365.16602 471.62695 C 364.42802 470.72963 359.89723 466.87204 355.09766 463.05469 C 350.29808 459.23733 345.63861 455.27671 344.74219 454.25391 C 340.89165 449.8605 338.32435 443.04984 336.2832 431.80859 C 332.48179 410.87306 331.85251 403.94477 333.08008 396.57422 C 334.56303 387.67035 339.25978 373.51422 344.33008 362.66406 C 347.91364 354.99548 348.96509 353.5329 352.01953 351.97461 C 356.03826 349.92438 364.76516 341.54184 366.625 337.94531 C 368.19898 334.90156 374.00757 329.76367 375.875 329.76367 C 376.84853 329.76367 375.67285 332.08358 372.14844 337.11328 C 369.31632 341.15503 367.28092 344.46094 367.62695 344.46094 C 367.97297 344.46094 372.63617 340.19191 377.98828 334.97266 C 385.93849 327.21982 389.14703 324.77919 395.52148 321.63672 C 408.44145 315.26746 420.20901 313.69971 433.89844 316.52734 C 451.62839 320.18956 465.23066 329.35498 478.25781 346.41406 C 481.1997 350.26649 486.41332 355.9506 489.8418 359.04492 C 493.27026 362.13924 495.60995 364.66992 495.04102 364.66992 C 493.03948 364.66992 483.03668 356.57374 481.0332 353.33203 C 477.76953 348.0513 470.14649 341.70508 467.06641 341.70508 C 463.73028 341.70508 463.74349 342.18374 467.16602 345.38086 C 471.25159 349.19736 470.85767 351.9961 465.74219 355.51562 C 460.90799 358.84165 460.40981 358.64473 456.77734 351.9707 C 453.52598 345.99686 452.01487 338.81747 453.25781 335.25195 C 454.26058 332.37542 453.50232 331.82858 450.24609 333.07812 C 448.31077 333.82078 448.41334 336.09684 450.73438 343.90234 C 454.85727 357.76738 459.34638 363.14072 469.67578 366.57812 C 477.30477 369.11689 485.74982 374.854 490.26367 380.56445 C 498.31128 390.74544 505.2006 404.19106 511.67578 422.34961 C 515.02568 431.74385 515.0383 431.83142 513.6543 436.55273 C 512.05793 441.99841 512.30215 442.97587 514.44141 439.71094 C 517.39679 435.20045 517.17575 431.76429 513.14062 419.36133 L 509.32227 407.62109 L 512.51562 400.89648 C 516.64538 392.2004 521.90757 384.57679 527.47656 379.22461 C 533.03562 373.88198 568.48269 348.04919 591.63281 332.46875 C 618.6157 314.3088 627.38706 306.89071 666.49609 269.16211 C 694.81053 241.84708 700.98561 235.9366 701.87695 236.0957 z M 441.70898 259.13672 C 472.23629 259.09783 503.83011 262.18951 520.41992 267.78125 C 529.83343 270.95416 538.02866 275.51631 539.69336 278.51172 C 540.96429 280.79858 540.92167 281.19813 539.16992 283.5625 C 534.8872 289.34296 526.59446 292.97557 510.88086 295.95312 C 501.74895 297.68351 496.83522 297.90764 463.49023 298.11719 C 443.02889 298.24578 422.77483 297.97965 418.48047 297.52539 C 407.09207 296.32071 385.34637 292.21962 382.66797 290.77148 C 373.49599 285.81241 370.96303 284.75391 368.27734 284.75391 C 365.93993 284.75391 364.27324 283.83131 361.08594 280.77734 C 358.80359 278.59046 356.93555 276.18741 356.93555 275.4375 C 356.93555 274.68759 358.13574 272.92583 359.60156 271.52148 C 362.52534 268.72034 372.49161 265.96076 391.38281 262.72266 C 405.46109 260.30953 423.3926 259.16005 441.70898 259.13672 z M 416.18359 319.0293 C 415.98226 319.05027 415.59845 319.23546 415.00195 319.55469 C 414.02257 320.07885 411.90049 322.01206 410.28711 323.84961 C 407.64295 326.86114 407.47847 327.37679 408.61719 329.0918 C 409.31201 330.13826 412.00633 331.68786 414.60547 332.53516 C 420.27397 334.38308 421.60019 335.39456 423.09766 339.00977 C 424.4238 342.21134 423.91959 343.14187 421.54492 341.87109 C 418.43357 340.2061 411.35543 339.669 406.38672 340.7207 C 402.19 341.60901 384.06947 349.85464 384.77148 350.55664 C 384.9057 350.69087 390.1668 349.11284 396.46484 347.04883 C 403.90934 344.60911 409.74528 343.25835 413.14453 343.18945 C 417.91389 343.09285 418.65791 343.35778 421.60156 346.20898 C 423.37648 347.92816 425.89392 351.85515 427.19727 354.93555 L 429.56836 360.53711 L 429.18359 352.57617 C 428.75699 343.757 429.26282 342.61687 433.5918 342.63867 C 437.67863 342.65919 438.62854 343.60739 440.09961 349.13477 C 441.96167 356.13133 441.79341 361.79012 439.61719 365.35938 C 438.61607 367.00134 438.05603 368.34375 438.37305 368.34375 C 438.69006 368.34375 441.88752 367.46664 445.47852 366.39258 C 450.84334 364.78798 451.65618 364.30801 450.03516 363.70117 C 447.51345 362.75713 446.75196 361.47537 445.98633 356.89648 C 445.32997 352.97101 440.75532 337.03658 440.0957 336.37695 C 439.88176 336.16302 437.80429 336.63527 435.47852 337.42773 C 430.35322 339.1741 428.12933 338.40661 424.9707 333.79688 C 423.75877 332.02819 420.97615 329.53091 418.78711 328.24805 C 414.64862 325.82273 413.92628 323.94082 415.79492 320.44922 C 416.34658 319.41845 416.51914 318.99435 416.18359 319.0293 z M 412.88281 348.13477 C 409.06128 348.13477 404.00257 351.20513 397.8125 357.27734 C 392.35831 362.62767 371.63281 376.82325 371.63281 375.20898 C 371.63281 374.9362 372.71438 372.55748 374.03516 369.92188 L 376.43555 365.12891 L 373.54883 367.85352 C 369.91959 371.27677 366.53926 378.3591 364.23438 387.37109 C 360.95406 400.197 361.98091 403.94299 371.35742 413.35547 C 379.39397 421.42285 380.97887 428.77406 376.67578 438.01758 C 375.41766 440.72014 374.38867 443.64538 374.38867 444.51758 C 374.38867 446.72099 377.91737 449.81239 382.23828 451.39453 C 384.23671 452.12627 387.7611 452.75346 390.07031 452.78906 L 394.26758 452.85352 L 395.36523 445.79297 C 397.55725 431.69329 405.88762 410.32074 418.63477 386.08984 C 423.72464 376.41458 424.96797 373.29212 424.49023 371.38867 C 424.15663 370.05949 421.17426 366.16591 417.86328 362.73633 L 411.84375 356.50195 L 413.26953 352.31836 C 414.64346 348.28611 414.62851 348.13477 412.88281 348.13477 z M 480.44922 359.64258 C 482.18601 359.53685 485.49255 363.19485 487.75195 367.9668 C 489.10358 370.82148 490.08775 373.51643 489.93945 373.95703 C 489.79114 374.39762 487.39589 373.39619 484.61719 371.73047 C 479.86825 368.88369 479.54858 368.46354 479.27734 364.72461 C 479.11864 362.53689 479.35753 360.37685 479.80859 359.92578 C 479.98501 359.74936 480.20111 359.65768 480.44922 359.64258 z M 496.16797 367.27539 C 496.35582 367.28826 496.61509 367.6882 496.97852 368.34375 C 497.80976 369.84318 498.07605 372.12621 497.74609 374.92188 C 497.46813 377.27679 497.71065 380.54897 498.2832 382.19141 C 499.54014 385.79704 499.20448 386.37552 497.16602 384.12305 C 495.97842 382.81077 495.64843 380.6226 495.67383 374.24219 C 495.69426 369.09566 495.7547 367.24707 496.16797 367.27539 z M 408.3125 373.85547 C 409.15572 373.85547 412.96875 378.67272 412.96875 379.73828 C 412.96875 381.055 411.11213 380.09102 409.36133 377.86523 C 407.31275 375.26089 406.94447 373.85547 408.3125 373.85547 z M 471.70508 374.40039 C 472.48113 374.39775 473.40362 374.65953 474.44727 375.19922 C 477.28382 376.66606 478.58425 380.09586 475.89062 379.00586 C 475.13279 378.69919 473.89809 378.19955 473.14453 377.89453 C 472.34458 377.57072 471.53903 377.95238 471.20898 378.8125 C 470.36082 381.02277 469.00195 380.58514 469.00195 378.10156 C 469.00195 375.69052 469.99777 374.40621 471.70508 374.40039 z M 461.49023 375.82031 C 462.95999 375.78745 463.78461 376.42116 465.49023 378.33008 C 466.91676 379.92665 468.08398 382.23794 468.08398 383.46484 C 468.08398 384.69175 467.06349 386.85396 465.81641 388.27148 L 463.54883 390.84961 L 463.51953 387.05859 C 463.47714 381.52143 461.89838 380.68313 456.83398 383.51367 L 452.67773 385.83789 L 452.05859 383.36914 C 451.55601 381.36668 451.92456 380.50353 454.01953 378.78906 C 455.43934 377.62712 458.01697 376.39635 459.74805 376.05273 C 460.43796 375.91578 461.00031 375.83127 461.49023 375.82031 z M 383.63281 387.76758 C 384.19372 387.76436 384.44873 388.55808 384.79492 390.28906 C 385.61047 394.36675 389.03958 397.57335 394.59766 399.45508 L 399.65039 401.16602 L 395.97461 402.20312 C 391.35901 403.50632 390.224 403.4749 386.71094 401.94531 C 380.77005 399.35865 377.98309 392.40953 381.58008 389.1543 C 382.57495 388.25395 383.19655 387.77008 383.63281 387.76758 z M 469.0625 391.61328 C 469.83106 391.6294 470.16209 392.62559 470.80273 394.85938 C 471.7484 398.15675 470.60388 398.53491 465.84375 396.50391 L 463.14648 395.35352 L 466.12695 393.23047 C 467.6023 392.17993 468.46473 391.60075 469.0625 391.61328 z M 476.71289 401.72266 C 478.00034 401.65476 489.96367 409.30282 493.19727 412.30859 C 494.63173 413.64198 496.3993 415.86846 497.125 417.25781 C 498.81711 420.49735 498.44331 420.44021 495.12305 416.94531 C 491.63625 413.2751 486.58408 410.70726 481.4668 410.00586 C 477.56822 409.47149 477.3643 409.29073 476.7793 405.82812 C 476.44295 403.83728 476.37165 402.00335 476.62109 401.75391 C 476.63975 401.73525 476.67136 401.72485 476.71289 401.72266 z M 479.93945 415.28125 C 481.02348 415.37519 481.00504 416.57175 480.60742 419.47266 C 479.92437 424.45614 476.74169 429.05745 471.91406 432.04492 C 463.34504 437.3477 461.42548 438.40538 461.79492 437.62109 C 469.88966 420.437 471.49214 418.12259 476.64062 416.17188 C 478.24201 415.56513 479.28903 415.22489 479.93945 415.28125 z M 463.61328 417.95898 C 463.71428 417.97267 463.81273 418.02067 463.9043 418.10547 C 464.27057 418.44466 463.71337 419.89124 462.66406 421.32031 C 461.61474 422.74938 458.89591 429.04635 456.62305 435.31445 C 452.13572 447.68962 450.76516 450.28601 447.63281 452.33594 C 445.03563 454.03566 439.4289 454.6706 434.0957 453.87109 L 429.96289 453.25195 L 436.11133 452.7832 C 440.43443 452.4534 442.85041 451.78105 444.25195 450.51758 C 445.34827 449.52927 448.93928 443.34713 452.23047 436.7793 C 455.52167 430.21146 459.15453 423.71639 460.30469 422.3457 C 461.45484 420.97502 462.58659 419.3201 462.81836 418.66992 C 462.99219 418.18224 463.31029 417.91791 463.61328 417.95898 z M 353.24414 434.39844 C 352.67493 434.35898 352.37221 435.01705 352.8125 436.54883 C 353.13924 437.68557 353.60145 439.31743 353.83984 440.17578 C 354.07822 441.03414 354.82518 441.52458 355.5 441.26562 C 356.46153 440.89666 356.519 440.11247 355.75977 437.63867 C 355.15042 435.65324 353.97599 434.44917 353.24414 434.39844 z M 356.82812 445.50586 C 355.86778 445.50586 355.83425 445.79827 356.57422 447.72656 C 357.38357 449.83569 358.68837 449.51109 358.12109 447.3418 C 357.85685 446.33137 357.27441 445.50586 356.82812 445.50586 z M 370.71484 475.81836 C 370.66743 475.86577 370.94433 476.23834 371.51562 476.9668 C 372.20901 477.85093 372.9323 478.57422 373.12305 478.57422 C 373.87907 478.57422 373.39341 477.81914 371.86328 476.61914 C 371.13482 476.04785 370.76226 475.77095 370.71484 475.81836 z M 344.60938 499.05469 C 343.05582 499.15783 340.12104 500.48662 332.61133 503.93945 L 326.19922 506.88672 L 329.85547 507.47852 C 331.86651 507.80397 334.8585 508.66156 336.50391 509.38477 C 339.63732 510.76197 343.1483 515.50748 343.1543 518.37305 C 343.15619 519.29605 344.365 521.25954 345.8418 522.73633 C 347.84499 524.73952 349.3938 525.42188 351.9375 525.42188 L 355.3457 525.42188 L 352.91992 523.51367 C 349.12747 520.53054 348.34629 518.20972 348.21484 509.55078 C 348.12243 503.46313 347.72715 501.12168 346.60352 499.99805 C 345.97728 499.37181 345.54151 498.9928 344.60938 499.05469 z M 270.74023 587.38867 C 271.93503 587.80027 276.75366 603.41798 279.06836 614.52344 C 280.63193 622.02504 280.79235 625.05427 280.20312 636.10938 C 279.22363 654.48688 279.48055 658.48122 282.47656 671.41602 C 283.94687 677.76382 285.60994 686.88399 286.17188 691.68359 C 286.73382 696.48319 287.39156 701.33976 287.63477 702.47656 C 288.31314 705.64716 285.71684 705.04474 284.33594 701.71094 C 283.1218 698.77974 280.37222 697.19531 276.5 697.19531 C 274.35815 697.19531 274.26367 696.94045 274.26367 691.18555 C 274.26367 682.82355 272.1913 673.4981 266.42188 655.9043 C 263.69643 647.5932 261.58558 640.67424 261.73242 640.52734 C 261.87926 640.38054 264.86251 641.70244 268.36133 643.46484 C 275.55394 647.08764 277.0288 647.36031 277 645.06641 C 276.9767 643.21001 274.00958 636.75742 272.24805 634.73242 C 268.84942 630.82552 268.30467 631.42941 270.79102 636.34961 C 272.94489 640.61181 273.1928 641.67575 272.08398 641.90625 C 270.11584 642.31535 265.97631 639.9517 262.78516 636.5957 C 260.30228 633.9846 260.00264 633.01136 259.71289 626.63086 C 259.49092 621.74306 259.96671 617.15197 261.25195 611.75977 C 263.09741 604.01727 269.14281 588.31858 270.63477 587.39648 C 270.66556 587.37745 270.70169 587.37539 270.74023 587.38867 z M 371.23242 594.52344 C 371.21035 594.50467 371.18571 594.50549 371.16016 594.5293 C 370.76195 594.9003 369.27366 599.86113 367.85156 605.55273 L 365.26562 615.90234 L 365.73828 609.4707 C 365.99869 605.9342 366.43508 601.49216 366.70703 599.59766 C 367.45437 594.39146 365.47763 595.35901 363.89453 600.97461 C 360.59802 612.66821 360.59417 612.67382 361.11523 605.10742 C 361.40978 600.83032 361.25257 597.98828 360.72266 597.98828 C 360.23757 597.98828 358.94634 600.67508 357.85352 603.95898 C 356.76071 607.24288 355.66379 609.93164 355.41602 609.93164 C 355.16825 609.93164 355.25614 607.60462 355.61133 604.76172 C 356.40611 598.40052 354.78403 598.25434 352.26758 604.46094 L 350.60742 608.55273 L 350.55664 605.26172 C 350.48713 600.80372 349.60349 600.23364 347.2793 603.14844 L 345.32617 605.59961 L 337.58203 603.0293 C 333.3227 601.6164 327.97661 599.67153 325.70312 598.70703 C 323.42964 597.74243 321.99933 597.38892 322.52344 597.91992 C 323.75904 599.17162 342.54877 606.25586 344.63281 606.25586 C 345.50972 606.25586 346.88309 605.66385 347.68359 604.93945 C 348.98201 603.76435 349.13781 603.92778 349.13281 606.45898 C 349.12555 610.38298 351.09189 610.68802 352.69727 607.01172 L 354.0293 603.95898 L 354.10547 609.42578 C 354.19301 615.81108 355.13312 615.46304 357.8125 608.05664 L 359.62695 603.04102 L 359.07422 611.07812 C 358.38519 621.08822 359.78086 621.74413 362.01172 612.45703 C 363.80362 604.99723 365.61104 601.01396 364.82617 606.25586 C 364.5614 608.02406 364.06769 612.67434 363.72852 616.58984 C 362.85077 626.72304 364.60051 625.75031 367.0293 614.75391 C 369.1951 604.94831 371.08871 598.79573 370.29492 604.14453 C 370.05487 605.76203 369.58746 611.55036 369.25391 617.00586 C 368.46958 629.83436 369.89586 628.85472 372.9375 614.47852 L 375.16406 603.95898 L 374.63867 615.21289 C 374.3011 622.44629 374.44127 626.46484 375.03125 626.46484 C 375.53604 626.46484 376.86919 621.19747 377.99414 614.75977 C 379.11909 608.32197 380.21021 602.88543 380.41797 602.67773 C 380.62572 602.46993 380.54114 607.63314 380.23047 614.15234 C 379.55996 628.22234 380.81871 628.78953 383.12109 615.45312 C 383.9487 610.65913 384.8034 606.55985 385.01953 606.34375 C 385.23566 606.12765 385.41211 609.73989 385.41211 614.37109 C 385.41211 619.00219 385.78126 622.79102 386.23242 622.79102 C 387.37733 622.79102 387.89875 621.13118 388.6543 615.08398 C 389.39344 609.16808 390.10221 609.06723 390.86328 614.76953 C 391.14861 616.90733 391.78121 618.65625 392.26953 618.65625 C 392.75783 618.65625 393.77042 616.59055 394.51953 614.06445 L 395.88281 609.4707 L 396.74609 614.29297 C 397.73289 619.79627 400.09975 621.08446 400.12305 616.13086 C 400.13078 614.48886 400.53759 612.52548 401.02734 611.76758 C 401.75126 610.64738 401.92014 610.76614 401.93164 612.40234 C 401.95177 615.28334 403.65526 615.94049 404.60352 613.43359 C 405.3052 611.57869 405.49325 611.86457 406.07812 615.67188 C 406.883 620.91138 408.08668 621.31064 408.8457 616.58984 C 410.11023 608.72484 410.50588 608.38574 411.25195 614.52344 C 412.22751 622.54904 412.85214 624.80864 413.91406 624.15234 C 414.40446 623.84924 414.80664 619.62939 414.80664 614.77539 C 414.80664 609.92149 415.01951 606.16398 415.28125 606.42578 C 415.543 606.68748 416.17709 610.58047 416.68945 615.07617 C 417.87047 625.43927 418.30086 627.38281 419.41602 627.38281 C 419.94963 627.38281 420.36595 622.79456 420.43555 616.13086 L 420.55273 604.87891 L 421.77148 614.52344 C 422.44205 619.82824 423.23641 625.52379 423.53711 627.17969 C 423.86907 629.00789 424.4743 629.95012 425.07617 629.57812 C 425.73834 629.16892 425.92143 625.19096 425.62891 617.59766 C 425.38802 611.34576 425.35854 606.39756 425.5625 606.60156 C 425.76645 606.80546 426.51526 611.13039 427.22852 616.21289 C 428.83191 627.63839 429.44483 630.13867 430.63867 630.13867 C 431.25607 630.13867 431.39556 625.67603 431.04883 617.04883 L 430.52344 603.95898 L 431.86719 611.30859 C 434.5012 625.71189 435.16053 628.32065 436.0332 627.78125 C 436.56239 627.45425 436.72685 622.93303 436.44336 616.51562 L 435.9707 605.79688 L 437.86719 614.52344 C 440.54858 626.85974 441.71069 627.21646 441.27148 615.56836 C 440.90195 605.76816 441.21262 605.66826 443.72461 614.78516 C 445.65722 621.79926 447.37863 620.90215 446.67383 613.24805 L 446.15625 607.63477 L 447.89648 611.53906 C 448.85325 613.68616 450.06587 615.44141 450.5918 615.44141 C 451.11774 615.44141 451.54973 613.68616 451.55273 611.53906 L 451.55859 607.63477 L 453.62109 610.12891 L 455.68359 612.625 L 462.02539 611.26172 C 471.25646 609.27842 478.51466 607.10963 479.56641 606.01953 C 480.19527 605.36773 479.9042 605.27526 478.64648 605.72656 C 475.42919 606.88106 458.50445 610.84666 456.78906 610.84766 C 455.88143 610.84826 454.43485 609.61211 453.57422 608.09961 C 452.71358 606.58721 451.72038 605.34375 451.36914 605.34375 C 451.01792 605.34055 450.60516 607.30137 450.45117 609.70117 L 450.17188 614.06445 L 448.53906 608.7832 C 447.64081 605.8782 446.52448 603.5 446.05859 603.5 C 445.59269 603.5 445.08707 605.8782 444.93555 608.7832 L 444.66016 614.06445 L 442.95117 607.39648 C 440.46405 597.68958 439.29118 597.91115 439.77344 607.99805 C 440.24858 617.93605 439.543 617.23786 437.32227 605.56836 C 435.02716 593.50806 433.78326 594.68417 434.41211 608.32227 L 434.93164 619.57617 L 433.57812 612.22656 C 430.9644 598.02936 430.28435 595.23438 429.44531 595.23438 C 428.94147 595.23437 428.83937 600.25377 429.19336 607.63477 C 429.52046 614.45527 429.5736 620.03516 429.3125 620.03516 C 429.05141 620.03516 428.11097 614.45527 427.22266 607.63477 C 426.33436 600.81437 425.24537 595.23438 424.80078 595.23438 C 424.35619 595.23437 423.94261 600.50371 423.88281 606.94531 L 423.77344 618.65625 L 422.49023 609.01172 C 421.78346 603.70692 420.94041 598.74618 420.61719 597.98828 C 419.72481 595.89608 418.73471 600.98342 418.47266 609.01172 L 418.24805 615.90234 L 417.43945 609.4707 C 416.99461 605.9342 416.40516 602.43315 416.12891 601.68945 C 415.01167 598.68185 413.91322 603.20329 413.79297 611.30859 C 413.67537 619.23529 413.63446 619.38612 412.81836 614.98242 C 412.35022 612.45642 411.76066 609.0462 411.50781 607.4043 C 410.79268 602.7604 409.48844 603.88087 408.83203 609.70117 C 407.99789 617.09757 407.79033 617.40983 407.01367 612.45703 C 406.24817 607.57533 405.05555 606.82018 404.10352 610.61328 L 403.47266 613.13086 L 402.63281 610.61328 C 401.4654 607.11108 400.29583 607.46976 399.61523 611.53906 C 398.70559 616.97766 398.572 617.06191 397.69336 612.75781 C 396.56918 607.25091 395.0794 607.12722 393.62891 612.41992 L 392.42188 616.82031 L 391.82812 610.62305 C 390.88701 600.79135 389.99892 601.14546 387.8125 612.22656 L 386.54492 618.65625 L 386.4375 609.24219 C 386.37853 604.06369 385.95372 599.82617 385.49414 599.82617 C 385.03457 599.82617 384.17939 602.82353 383.59375 606.48633 C 382.05231 616.12723 381.89095 616.02561 381.81055 605.38281 C 381.76552 599.42251 381.41177 596.11445 380.87891 596.65625 C 380.4069 597.13625 379.17008 601.66274 378.13086 606.71484 L 376.24219 615.90234 L 376.76172 604.87891 C 377.42638 590.79421 376.06393 591.60217 373.10742 607.04688 C 371.92729 613.21187 370.63379 618.55302 370.23242 618.91602 C 369.83105 619.27902 369.7648 618.84818 370.08398 617.95898 C 370.95365 615.53633 371.91652 595.10535 371.23242 594.52344 z M 286.20508 661.96875 L 288.27148 663.875 C 291.01273 666.4013 297.40804 668.46436 304.65234 669.16016 C 307.89429 669.47156 311.83851 669.92086 313.41602 670.16016 L 316.2832 670.5957 L 316.75391 680.45117 C 317.11984 688.11897 317.87888 692.34519 320.17578 699.49219 C 324.70063 713.57159 324.78201 720.71014 320.68555 744.96094 C 316.50561 769.70594 315.29264 773.69969 310.5957 778.21289 C 305.25792 783.34189 303.88821 782.94184 303.10547 776.02344 L 302.46289 770.3418 L 299.87109 775.82617 C 296.63368 782.67907 291.37899 788.90478 287.43945 790.55078 C 283.17117 792.33418 282.28968 792.17089 283.07422 789.74219 C 284.10638 786.54689 289.85844 767.49503 289.86914 767.23633 C 289.87439 767.11003 289.31326 767.00781 288.62109 767.00781 C 287.90227 767.00781 286.84285 768.87889 286.15039 771.37109 C 285.24962 774.61299 283.65336 776.97344 279.9375 780.55664 C 277.18688 783.20904 274.58596 785.37891 274.1582 785.37891 C 273.73044 785.37891 273.11863 784.3367 272.79883 783.0625 C 272.37599 781.3778 273.28222 778.61324 276.12305 772.93164 C 278.27166 768.63444 279.76004 764.84993 279.42969 764.51953 C 279.09935 764.18923 277.39812 765.30415 275.65039 766.99805 L 272.47266 770.07812 L 269.23438 768.33398 C 267.45315 767.37468 265.99609 766.32666 265.99609 766.00586 C 265.99609 765.68506 269.14217 762.00673 272.98633 757.83203 C 280.41323 749.76653 284.8824 741.78618 287.65234 731.64258 C 290.18492 722.36808 290.38227 703.04152 288.14453 683.35742 C 287.0783 673.97842 286.20508 665.32902 286.20508 664.13672 L 286.20508 661.96875 z M 465.6543 663.21875 C 465.72716 663.22425 467.85476 663.88555 470.38086 664.68945 C 473.33395 665.62915 479.97354 666.32642 488.98047 666.64062 C 496.68505 666.90932 502.99023 667.27207 502.99023 667.44727 C 502.99023 667.62237 501.60612 669.94327 499.91406 672.60547 C 494.21778 681.56777 491.72831 689.29665 491.25391 699.50195 C 491.00992 704.75075 491.28604 710.90911 491.89648 713.84961 C 493.0411 719.36321 498.15209 730.79431 501.49414 735.31641 C 505.69009 740.99391 511.25781 751.33076 511.25781 753.44336 C 511.25781 754.64786 510.64073 756.43542 509.88672 757.41602 C 508.55958 759.14222 508.42793 759.09677 505.77734 755.98438 C 504.27143 754.21607 501.55938 749.97856 499.75 746.56836 C 497.94062 743.15806 496.13914 740.36914 495.74805 740.36914 C 495.35697 740.36914 496.19774 744.80135 497.61523 750.21875 C 499.03273 755.63615 499.87713 760.38268 499.49219 760.76758 C 499.10726 761.15258 494.88722 757.54786 490.11523 752.75586 C 485.34323 747.96396 481.14179 744.04297 480.7793 744.04297 C 480.41681 744.04297 479.99646 746.12558 479.84375 748.67188 L 479.56641 753.30273 L 474.83984 749.98828 C 469.37469 746.15538 467.13912 741.74657 464.79297 730.16797 C 463.48884 723.73177 463.45206 719.88337 464.45508 695.13867 C 465.07479 679.84997 465.56913 666.41219 465.55273 665.27539 C 465.53625 664.13869 465.5815 663.20875 465.6543 663.21875 z M 320.29492 670.54688 C 320.79202 670.54465 321.36744 670.55664 322.0293 670.55664 C 325.08616 670.55664 326.62681 670.94088 326.63281 671.70508 C 326.63803 672.33658 325.7362 678.12295 324.63086 684.56445 C 323.28539 692.40535 322.23463 696.27734 321.44922 696.27734 C 320.17184 696.27734 319.79081 694.50796 318.37891 682.03906 C 317.16243 671.29607 316.81522 670.56247 320.29492 670.54688 z "
       id="path5225" />
  </g>
</svg>
