<?xml version="1.0" encoding="UTF-8" standalone="no"?>
<!-- Created with Inkscape (http://www.inkscape.org/) -->

<svg
   xmlns:dc="http://purl.org/dc/elements/1.1/"
   xmlns:cc="http://creativecommons.org/ns#"
   xmlns:rdf="http://www.w3.org/1999/02/22-rdf-syntax-ns#"
   xmlns:svg="http://www.w3.org/2000/svg"
   xmlns="http://www.w3.org/2000/svg"
   xmlns:sodipodi="http://sodipodi.sourceforge.net/DTD/sodipodi-0.dtd"
   xmlns:inkscape="http://www.inkscape.org/namespaces/inkscape"
   width="210mm"
   height="297mm"
   viewBox="0 0 744.09448819 1052.3622047"
   id="svg2"
   version="1.1"
   inkscape:version="0.91 r13725"
   sodipodi:docname="sigla.svg">
  <defs
     id="defs4" />
  <sodipodi:namedview
     id="base"
     pagecolor="#ffffff"
     bordercolor="#666666"
     borderopacity="1.0"
     inkscape:pageopacity="0.0"
     inkscape:pageshadow="2"
     inkscape:zoom="2.8"
     inkscape:cx="-140.4631"
     inkscape:cy="-357.65236"
     inkscape:document-units="mm"
     inkscape:current-layer="layer1"
     showgrid="false"
     inkscape:window-width="1440"
     inkscape:window-height="837"
     inkscape:window-x="-4"
     inkscape:window-y="-4"
     inkscape:window-maximized="1" />
  <metadata
     id="metadata7">
    <rdf:RDF>
      <cc:Work
         rdf:about="">
        <dc:format>image/svg+xml</dc:format>
        <dc:type
           rdf:resource="http://purl.org/dc/dcmitype/StillImage" />
        <dc:title></dc:title>
      </cc:Work>
    </rdf:RDF>
  </metadata>
  <g
     inkscape:label="Layer 1"
     inkscape:groupmode="layer"
     id="layer1">
    <path
       style="fill:#000000"
       d="M -107.95117 1350.6641 L -117.45117 1351.123 C -145.62936 1352.486 -170.5461 1367.83 -181.78906 1390.7422 C -187.04103 1401.4453 -189.26976 1409.0352 -190.14844 1419.2207 C -190.7416 1426.0965 -190.85802 1426.3343 -196.73828 1432.6523 C -214.20519 1451.4194 -219.86595 1464.461 -214.39062 1473.3203 C -210.94792 1478.8907 -199.50605 1488.584 -192.01758 1492.2754 C -188.13158 1494.191 -182.02617 1496.3896 -178.45117 1497.1602 C -163.59192 1500.3631 -151.42433 1498.76 -127.95898 1490.5117 C -86.543207 1475.9537 -52.072774 1460.2308 -41.714844 1451.1699 C -30.591214 1441.4392 -29.710163 1430.58 -39.158203 1419.6543 C -41.464943 1416.9868 -42.399524 1414.5465 -43.339844 1408.7285 C -46.225234 1390.8758 -51.925802 1380.2174 -65.951172 1366.4551 L -75.951172 1356.6426 L -81.951172 1357.291 C -91.202032 1358.2899 -109.57427 1363.202 -118.52148 1367.0703 C -130.95765 1372.4469 -137.22976 1376.558 -145.53711 1384.7715 C -151.87963 1391.0424 -154.04987 1394.0937 -158.33594 1402.7715 C -164.10394 1414.4497 -167.6507 1427.0491 -169.52734 1442.5332 C -170.20637 1448.1358 -171.08997 1452.7207 -171.49219 1452.7207 C -172.68449 1452.7207 -183.89249 1444.9947 -185.86914 1442.8105 C -187.53446 1440.9704 -187.58463 1440.2091 -186.44336 1434.0078 C -179.03179 1393.7349 -151.88469 1362.8242 -114.95117 1352.6016 L -107.95117 1350.6641 z "
       id="path5605" />
    <path
       style="fill:#00ff00"
       d="m -68.386719,1380.002 c -0.571289,0.1256 -1.90625,1.0882 -3.453125,2.539 -2.0625,1.9344 -6.593862,5.9229 -10.070312,8.8633 l -6.322266,5.3457 -5.265625,-1.6602 c -18.053533,-5.6909 -35.697033,5.226 -38.222653,23.6524 -0.77125,5.6269 1.09055,13.6121 4.26172,18.2851 l 2.42578,3.5743 -6.93946,7.664 c -3.81632,4.2152 -8.55309,9.214 -10.52734,11.1094 -1.9723,1.8935 -3.58664,3.7806 -3.58984,4.1953 0,0.4121 5.9611,-3.5057 13.24804,-8.707 7.28694,-5.2014 13.81194,-9.2406 14.5,-8.9766 0.68806,0.2644 1.25196,0.2947 1.25196,0.068 0,-1.1957 -4.27805,-7.4173 -5.39454,-7.8457 -0.71625,-0.2749 -2.56566,-2.9032 -4.10937,-5.8399 -5.32936,-10.1387 -3.14178,-21.3628 5.75391,-29.5234 4.51698,-4.1437 12.15614,-7.3164 17.61523,-7.3164 2.41675,0 11.504532,2.0837 17.582032,4.0312 1.62161,0.5197 3.19661,0.5832 3.5,0.1407 5.0277,-7.3318 12.367782,-17.2477 13.101562,-17.7012 0.52341,-0.3235 0.951172,-1.1032 0.951172,-1.7324 0,-0.1573 -0.106445,-0.2079 -0.296875,-0.166 z m -22.578125,22.5253 c -3.169089,-0.1445 -6.598744,1.7383 -14.068356,7.0098 -5.53843,3.9085 -10.26952,7.4265 -10.51172,7.8184 -0.24219,0.3923 0.83285,0.5252 2.38867,0.2968 4.69929,-0.6897 4.37122,1.3998 -0.91992,5.8614 -5.27221,4.4456 -5.70265,5.64 -3.9043,10.7988 1.25782,3.6082 0.36709,3.9909 10.63281,-4.5684 l 6.24219,-5.205 -4.58984,-0.3047 -4.58985,-0.3047 10.59766,-7.4414 c 5.82842,-4.093 10.597656,-7.9767 10.597656,-8.6289 0,-0.6521 0.717383,-1.7808 1.595703,-2.5098 1.45006,-1.2034 1.42706,-1.3928 -0.25,-2.0527 -1.13835,-0.448 -2.16434,-0.7214 -3.220703,-0.7696 z m 13.433594,8.9024 c -0.24254,0 -0.718674,0.45 -1.058594,1 -0.33992,0.55 -0.141053,1 0.441406,1 0.58246,0 1.058594,-0.45 1.058594,-1 0,-0.55 -0.198866,-1 -0.441406,-1 z m 1.314453,7.8672 c -0.153944,0 -0.353455,0.1167 -0.603515,0.3242 -0.698441,0.5796 -1.269532,2.8883 -1.269532,5.1309 0,5.2066 1.662799,3.6697 2.167969,-2.004 0.219945,-2.4701 0.166911,-3.4602 -0.294922,-3.4511 z m -1.947265,11.1758 c -0.500637,0.017 -1.377012,1.0982 -2.269532,3.2343 -0.75332,1.8029 -3.637106,5.3193 -6.410156,7.8125 -5.15092,4.6311 -10.486258,6.9102 -16.17187,6.9102 -2.11186,0 -2.95629,0.3804 -2.4961,1.125 0.45214,0.7316 2.62164,0.9277 6.197267,0.5586 9.13548,-0.9429 18.887246,-8.5368 21.166015,-16.4824 0.609895,-2.1266 0.485012,-3.1751 -0.01562,-3.1582 z m -45.548828,1.3457 c -0.12148,0 -0.25479,0.035 -0.39453,0.1211 -0.55897,0.3454 -0.7559,1.0465 -0.43946,1.5585 0.85724,1.387 1.45704,1.1296 1.45704,-0.6269 0,-0.6434 -0.25861,-1.0406 -0.62305,-1.0527 z"
       id="path5437"
       inkscape:connector-curvature="0" />
    <path
       id="path5595"
       style="fill:#ffff00"
       d="m -80.886073,1413.9524 c -0.78763,-0.7876 1.44321,-3.2326 2.94947,-3.2326 0.97865,0 2.48931,2.0264 2.48383,3.3318 -0.002,0.4642 -4.96045,0.3737 -5.4333,-0.099 z m -35.365987,28.5674 c -1.94645,-1.9464 -1.39516,-2.8 1.80847,-2.8 2.75815,0 2.90455,0.1664 1.75946,2 -1.45144,2.3241 -1.93531,2.4326 -3.56793,0.8 z m -3.30776,-6.4605 c -2.86841,-7.2313 -0.95175,-18.3853 4.24198,-24.6862 4.14758,-5.0317 12.58373,-8.9099 19.663987,-9.0397 9.59242,-0.1759 14.2971,2.3012 9.3051,4.8993 -1.78189,0.9274 -21.479537,14.8659 -23.562907,16.6736 -0.52778,0.458 1.15972,0.5422 3.75,0.1872 2.59028,-0.3551 4.69043,-0.2469 4.667,0.2404 -0.0234,0.4872 -2.16092,2.5651 -4.75,4.6175 -2.58907,2.0523 -6.39072,5.1301 -8.44811,6.8395 l -3.74071,3.108 -1.12634,-2.8396 z m 17.98063,16.206 c -2.54492,-0.7016 -5.13242,-1.5879 -5.75,-1.9696 -1.37652,-0.8507 -1.48056,-2.5759 -0.15535,-2.5759 1.35428,0 26.624497,-16.5309 27.543627,-18.018 0.55765,-0.9023 -0.31657,-1.1153 -3.37946,-0.8232 -2.27243,0.2167 -4.13169,0.1442 -4.13169,-0.1613 0,-0.765 12.40334,-12.9975 13.17908,-12.9975 1.40764,0 2.82092,6.7402 2.82092,13.4534 0,6.2062 -0.39144,7.7723 -2.9519,11.8097 -3.7729,5.9493 -9.80083,10.3037 -16.14796,11.6649 -5.7755,1.2386 -5.05663,1.2636 -11.027267,-0.3825 z m -29.6132,13.1477 c 3.98218,-2.9187 9.9737,-7.2034 13.31449,-9.5215 l 6.07417,-4.2148 4.42583,1.9557 c 14.718217,6.5037 29.748057,1.2953 36.614887,-12.6883 2.30489,-4.6938 2.80377,-7.0104 2.77104,-12.8681 -0.0341,-6.1067 -0.54734,-8.166 -3.53524,-14.1854 l -3.49533,-7.0417 3.48581,-4.8145 c 1.91719,-2.6481 5.45077,-7.4469 7.85241,-10.6641 2.40163,-3.2172 4.16595,-6.0501 3.92071,-6.2954 -0.24525,-0.2452 -5.22259,3.6376 -11.06078,8.6285 -10.56163,9.0289 -10.62917,9.067 -13.46489,7.6006 -10.6585,-5.5117 -27.418487,-1.0377 -34.524437,9.2162 -6.44663,9.3025 -7.10399,22.681 -1.52318,30.9997 1.58666,2.3651 2.88484,4.4555 2.88484,4.6454 0,0.1898 -3.53295,4.1048 -7.851,8.6998 -10.00569,10.6476 -14.51922,15.8547 -13.74293,15.8547 0.3373,0 3.87141,-2.388 7.8536,-5.3068 z" />
  </g>
</svg>
