  0
SECTION
  2
HEADER
  9
$ACADVER
  1
AC1014
  9
$HANDSEED
  5
FFFF
  9
$MEASUREMENT
 70
     1
  0
ENDSEC
  0
SECTION
  2
TABLES
  0
TABLE
  2
VPORT
  5
8
330
0
100
AcDbSymbolTable
 70
     4
  0
VPORT
  5
2E
330
8
100
AcDbSymbolTableRecord
100
AcDbViewportTableRecord
  2
*ACTIVE
 70
     0
 10
0.0
 20
0.0
 11
1.0
 21
1.0
 12
210.0
 22
148.5
 13
0.0
 23
0.0
 14
10.0
 24
10.0
 15
10.0
 25
10.0
 16
0.0
 26
0.0
 36
1.0
 17
0.0
 27
0.0
 37
0.0
 40
341.0
 41
1.24
 42
50.0
 43
0.0
 44
0.0
 50
0.0
 51
0.0
 71
     0
 72
   100
 73
     1
 74
     3
 75
     0
 76
     0
 77
     0
 78
     0
  0
ENDTAB
  0
TABLE
  2
LTYPE
  5
5
330
0
100
AcDbSymbolTable
 70
     1
  0
LTYPE
  5
14
330
5
100
AcDbSymbolTableRecord
100
AcDbLinetypeTableRecord
  2
BYBLOCK
 70
     0
  3

 72
    65
 73
     0
 40
0.0
  0
LTYPE
  5
15
330
5
100
AcDbSymbolTableRecord
100
AcDbLinetypeTableRecord
  2
BYLAYER
 70
     0
  3

 72
    65
 73
     0
 40
0.0
  0
LTYPE
  5
16
330
5
100
AcDbSymbolTableRecord
100
AcDbLinetypeTableRecord
  2
CONTINUOUS
 70
     0
  3
Solid line
 72
    65
 73
     0
 40
0.0
  0
ENDTAB
  0
TABLE
  2
LAYER
  5
2
100
AcDbSymbolTable
 70
2
  0
LAYER
  5
50
100
AcDbSymbolTableRecord
100
AcDbLayerTableRecord
  2
0
 70
0
  6
CONTINUOUS
  0
LAYER
  5
51
100
AcDbSymbolTableRecord
100
AcDbLayerTableRecord
  2
Layer_1
 70
0
  6
CONTINUOUS
  0
ENDTAB
  0
TABLE
  2
STYLE
  5
3
330
0
100
AcDbSymbolTable
 70
     1
  0
STYLE
  5
11
330
3
100
AcDbSymbolTableRecord
100
AcDbTextStyleTableRecord
  2
STANDARD
 70
     0
 40
0.0
 41
1.0
 50
0.0
 71
     0
 42
2.5
  3
txt
  4

  0
ENDTAB
  0
TABLE
  2
VIEW
  5
6
330
0
100
AcDbSymbolTable
 70
     0
  0
ENDTAB
  0
TABLE
  2
UCS
  5
7
330
0
100
AcDbSymbolTable
 70
     0
  0
ENDTAB
  0
TABLE
  2
APPID
  5
9
330
0
100
AcDbSymbolTable
 70
     2
  0
APPID
  5
12
330
9
100
AcDbSymbolTableRecord
100
AcDbRegAppTableRecord
  2
ACAD
 70
     0
  0
ENDTAB
  0
TABLE
  2
DIMSTYLE
  5
A
330
0
100
AcDbSymbolTable
 70
     1
  0
DIMSTYLE
105
27
330
A
100
AcDbSymbolTableRecord
100
AcDbDimStyleTableRecord
  2
ISO-25
 70
     0
  3

  4

  5

  6

  7

 40
1.0
 41
2.5
 42
0.625
 43
3.75
 44
1.25
 45
0.0
 46
0.0
 47
0.0
 48
0.0
140
2.5
141
2.5
142
0.0
143
0.03937007874016
144
1.0
145
0.0
146
1.0
147
0.625
 71
     0
 72
     0
 73
     0
 74
     0
 75
     0
 76
     0
 77
     1
 78
     8
170
     0
171
     3
172
     1
173
     0
174
     0
175
     0
176
     0
177
     0
178
     0
270
     2
271
     2
272
     2
273
     2
274
     3
340
11
275
     0
280
     0
281
     0
282
     0
283
     0
284
     8
285
     0
286
     0
287
     3
288
     0
  0
ENDTAB
  0
TABLE
  2
BLOCK_RECORD
  5
1
330
0
100
AcDbSymbolTable
 70
     1
  0
BLOCK_RECORD
  5
1F
330
1
100
AcDbSymbolTableRecord
100
AcDbBlockTableRecord
  2
*MODEL_SPACE
  0
BLOCK_RECORD
  5
1B
330
1
100
AcDbSymbolTableRecord
100
AcDbBlockTableRecord
  2
*PAPER_SPACE
  0
ENDTAB
  0
ENDSEC
  0
SECTION
  2
BLOCKS
  0
BLOCK
  5
20
330
1F
100
AcDbEntity
  8
0
100
AcDbBlockBegin
  2
*MODEL_SPACE
 70
     0
 10
0.0
 20
0.0
 30
0.0
  3
*MODEL_SPACE
  1

  0
ENDBLK
  5
21
330
1F
100
AcDbEntity
  8
0
100
AcDbBlockEnd
  0
BLOCK
  5
1C
330
1B
100
AcDbEntity
 67
     1
  8
0
100
AcDbBlockBegin
  2
*PAPER_SPACE
  1

  0
ENDBLK
  5
1D
330
1B
100
AcDbEntity
 67
     1
  8
0
100
AcDbBlockEnd
  0
ENDSEC
  0
SECTION
  2
ENTITIES
  0
SPLINE
  5
100
100
AcDbEntity
  8
Layer_1
 62
7
100
AcDbSpline
 70
8
 71
3
 72
8
 73
4
 74
0
 40
0
 40
0
 40
0
 40
0
 40
1
 40
1
 40
1
 40
1
 10
-33.147330
 20
-84.316936
 30
0.0
 10
-41.099842
 20
-84.701604
 30
0.0
 10
-48.131899
 20
-89.032022
 30
0.0
 10
-51.304912
 20
-95.498354
 30
0.0
  0
SPLINE
  5
101
100
AcDbEntity
  8
Layer_1
 62
7
100
AcDbSpline
 70
8
 71
3
 72
8
 73
4
 74
0
 40
0
 40
0
 40
0
 40
0
 40
1
 40
1
 40
1
 40
1
 10
-51.304912
 20
-95.498354
 30
0.0
 10
-52.787135
 20
-98.519007
 30
0.0
 10
-53.416132
 20
-100.661045
 30
0.0
 10
-53.664115
 20
-103.535620
 30
0.0
  0
SPLINE
  5
102
100
AcDbEntity
  8
Layer_1
 62
7
100
AcDbSpline
 70
8
 71
3
 72
8
 73
4
 74
0
 40
0
 40
0
 40
0
 40
0
 40
1
 40
1
 40
1
 40
1
 10
-53.664115
 20
-103.535620
 30
0.0
 10
-53.831518
 20
-105.476123
 30
0.0
 10
-53.864375
 20
-105.543236
 30
0.0
 10
-55.523915
 20
-107.326316
 30
0.0
  0
SPLINE
  5
103
100
AcDbEntity
  8
Layer_1
 62
7
100
AcDbSpline
 70
8
 71
3
 72
8
 73
4
 74
0
 40
0
 40
0
 40
0
 40
0
 40
1
 40
1
 40
1
 40
1
 10
-55.523915
 20
-107.326316
 30
0.0
 10
-60.453465
 20
-112.622808
 30
0.0
 10
-62.051057
 20
-116.303438
 30
0.0
 10
-60.505797
 20
-118.803729
 30
0.0
  0
SPLINE
  5
104
100
AcDbEntity
  8
Layer_1
 62
7
100
AcDbSpline
 70
8
 71
3
 72
8
 73
4
 74
0
 40
0
 40
0
 40
0
 40
0
 40
1
 40
1
 40
1
 40
1
 10
-60.505797
 20
-118.803729
 30
0.0
 10
-59.534191
 20
-120.375820
 30
0.0
 10
-56.305041
 20
-123.111484
 30
0.0
 10
-54.191628
 20
-124.153280
 30
0.0
  0
SPLINE
  5
105
100
AcDbEntity
  8
Layer_1
 62
7
100
AcDbSpline
 70
8
 71
3
 72
8
 73
4
 74
0
 40
0
 40
0
 40
0
 40
0
 40
1
 40
1
 40
1
 40
1
 10
-54.191628
 20
-124.153280
 30
0.0
 10
-53.094913
 20
-124.693904
 30
0.0
 10
-51.371830
 20
-125.314398
 30
0.0
 10
-50.362886
 20
-125.531879
 30
0.0
  0
SPLINE
  5
106
100
AcDbEntity
  8
Layer_1
 62
7
100
AcDbSpline
 70
8
 71
3
 72
8
 73
4
 74
0
 40
0
 40
0
 40
0
 40
0
 40
1
 40
1
 40
1
 40
1
 10
-50.362886
 20
-125.531879
 30
0.0
 10
-46.169275
 20
-126.435808
 30
0.0
 10
-42.735311
 20
-125.983378
 30
0.0
 10
-36.112868
 20
-123.655524
 30
0.0
  0
SPLINE
  5
107
100
AcDbEntity
  8
Layer_1
 62
7
100
AcDbSpline
 70
8
 71
3
 72
8
 73
4
 74
0
 40
0
 40
0
 40
0
 40
0
 40
1
 40
1
 40
1
 40
1
 10
-36.112868
 20
-123.655524
 30
0.0
 10
-24.424416
 20
-119.546933
 30
0.0
 10
-14.696094
 20
-115.109581
 30
0.0
 10
-11.772856
 20
-112.552394
 30
0.0
  0
SPLINE
  5
108
100
AcDbEntity
  8
Layer_1
 62
7
100
AcDbSpline
 70
8
 71
3
 72
8
 73
4
 74
0
 40
0
 40
0
 40
0
 40
0
 40
1
 40
1
 40
1
 40
1
 10
-11.772856
 20
-112.552394
 30
0.0
 10
-8.633520
 20
-109.806174
 30
0.0
 10
-8.384868
 20
-106.741467
 30
0.0
 10
-11.051315
 20
-103.657991
 30
0.0
  0
SPLINE
  5
109
100
AcDbEntity
  8
Layer_1
 62
7
100
AcDbSpline
 70
8
 71
3
 72
8
 73
4
 74
0
 40
0
 40
0
 40
0
 40
0
 40
1
 40
1
 40
1
 40
1
 10
-11.051315
 20
-103.657991
 30
0.0
 10
-11.702328
 20
-102.905164
 30
0.0
 10
-11.966088
 20
-102.216457
 30
0.0
 10
-12.231467
 20
-100.574488
 30
0.0
  0
SPLINE
  5
10a
100
AcDbEntity
  8
Layer_1
 62
7
100
AcDbSpline
 70
8
 71
3
 72
8
 73
4
 74
0
 40
0
 40
0
 40
0
 40
0
 40
1
 40
1
 40
1
 40
1
 10
-12.231467
 20
-100.574488
 30
0.0
 10
-13.045788
 20
-95.536059
 30
0.0
 10
-14.654615
 20
-92.528022
 30
0.0
 10
-18.612886
 20
-88.643995
 30
0.0
  0
LWPOLYLINE
  5
10b
100
AcDbEntity
  8
Layer_1
 62
7
100
AcDbPolyline
 90
2
 70
0
 10
-30.466219
 20
-84.187424
 30
0.0
 10
-33.147330
 20
-84.316936
 30
0.0
  0
SPLINE
  5
10c
100
AcDbEntity
  8
Layer_1
 62
7
100
AcDbSpline
 70
8
 71
3
 72
8
 73
4
 74
0
 40
0
 40
0
 40
0
 40
0
 40
1
 40
1
 40
1
 40
1
 10
-23.128442
 20
-86.057682
 30
0.0
 10
-25.739240
 20
-86.339594
 30
0.0
 10
-30.924294
 20
-87.725898
 30
0.0
 10
-33.449395
 20
-88.817618
 30
0.0
  0
SPLINE
  5
10d
100
AcDbEntity
  8
Layer_1
 62
7
100
AcDbSpline
 70
8
 71
3
 72
8
 73
4
 74
0
 40
0
 40
0
 40
0
 40
0
 40
1
 40
1
 40
1
 40
1
 10
-33.449395
 20
-88.817618
 30
0.0
 10
-36.959159
 20
-90.335014
 30
0.0
 10
-38.729288
 20
-91.495258
 30
0.0
 10
-41.073807
 20
-93.813290
 30
0.0
  0
SPLINE
  5
10e
100
AcDbEntity
  8
Layer_1
 62
7
100
AcDbSpline
 70
8
 71
3
 72
8
 73
4
 74
0
 40
0
 40
0
 40
0
 40
0
 40
1
 40
1
 40
1
 40
1
 10
-41.073807
 20
-93.813290
 30
0.0
 10
-42.863807
 20
-95.583077
 30
0.0
 10
-43.476297
 20
-96.444222
 30
0.0
 10
-44.685921
 20
-98.893290
 30
0.0
  0
SPLINE
  5
10f
100
AcDbEntity
  8
Layer_1
 62
7
100
AcDbSpline
 70
8
 71
3
 72
8
 73
4
 74
0
 40
0
 40
0
 40
0
 40
0
 40
1
 40
1
 40
1
 40
1
 10
-44.685921
 20
-98.893290
 30
0.0
 10
-46.313779
 20
-102.189138
 30
0.0
 10
-47.314753
 20
-105.744968
 30
0.0
 10
-47.844383
 20
-110.114925
 30
0.0
  0
SPLINE
  5
110
100
AcDbEntity
  8
Layer_1
 62
7
100
AcDbSpline
 70
8
 71
3
 72
8
 73
4
 74
0
 40
0
 40
0
 40
0
 40
0
 40
1
 40
1
 40
1
 40
1
 10
-47.844383
 20
-110.114925
 30
0.0
 10
-48.036020
 20
-111.696104
 30
0.0
 10
-48.285392
 20
-112.990064
 30
0.0
 10
-48.398907
 20
-112.990064
 30
0.0
  0
SPLINE
  5
111
100
AcDbEntity
  8
Layer_1
 62
7
100
AcDbSpline
 70
8
 71
3
 72
8
 73
4
 74
0
 40
0
 40
0
 40
0
 40
0
 40
1
 40
1
 40
1
 40
1
 10
-48.398907
 20
-112.990064
 30
0.0
 10
-48.735401
 20
-112.990064
 30
0.0
 10
-51.898547
 20
-110.809615
 30
0.0
 10
-52.456402
 20
-110.193186
 30
0.0
  0
SPLINE
  5
112
100
AcDbEntity
  8
Layer_1
 62
7
100
AcDbSpline
 70
8
 71
3
 72
8
 73
4
 74
0
 40
0
 40
0
 40
0
 40
0
 40
1
 40
1
 40
1
 40
1
 10
-52.456402
 20
-110.193186
 30
0.0
 10
-52.926392
 20
-109.673868
 30
0.0
 10
-52.940551
 20
-109.459013
 30
0.0
 10
-52.618459
 20
-107.708868
 30
0.0
  0
SPLINE
  5
113
100
AcDbEntity
  8
Layer_1
 62
7
100
AcDbSpline
 70
8
 71
3
 72
8
 73
4
 74
0
 40
0
 40
0
 40
0
 40
0
 40
1
 40
1
 40
1
 40
1
 10
-52.618459
 20
-107.708868
 30
0.0
 10
-50.526750
 20
-96.342961
 30
0.0
 10
-42.865235
 20
-87.619274
 30
0.0
 10
-32.441775
 20
-84.734229
 30
0.0
  0
LWPOLYLINE
  5
114
100
AcDbEntity
  8
Layer_1
 62
7
100
AcDbPolyline
 90
3
 70
0
 10
-18.612886
 20
-88.643995
 30
0.0
 10
-21.435109
 20
-85.874689
 30
0.0
 10
-23.128442
 20
-86.057682
 30
0.0
  0
SPLINE
  5
115
100
AcDbEntity
  8
Layer_1
 62
7
100
AcDbSpline
 70
8
 71
3
 72
8
 73
4
 74
0
 40
0
 40
0
 40
0
 40
0
 40
1
 40
1
 40
1
 40
1
 10
-19.300252
 20
-92.467231
 30
0.0
 10
-19.461482
 20
-92.502678
 30
0.0
 10
-19.838238
 20
-92.774345
 30
0.0
 10
-20.274800
 20
-93.183793
 30
0.0
  0
SPLINE
  5
116
100
AcDbEntity
  8
Layer_1
 62
7
100
AcDbSpline
 70
8
 71
3
 72
8
 73
4
 74
0
 40
0
 40
0
 40
0
 40
0
 40
1
 40
1
 40
1
 40
1
 10
-20.274800
 20
-93.183793
 30
0.0
 10
-20.856884
 20
-93.729724
 30
0.0
 10
-22.135735
 20
-94.855367
 30
0.0
 10
-23.116866
 20
-95.685214
 30
0.0
  0
LWPOLYLINE
  5
117
100
AcDbEntity
  8
Layer_1
 62
7
100
AcDbPolyline
 90
3
 70
0
 10
-32.441775
 20
-84.734229
 30
0.0
 10
-30.466219
 20
-84.187424
 30
0.0
 10
-30.466219
 20
-84.187424
 30
0.0
  0
SPLINE
  5
118
100
AcDbEntity
  8
Layer_1
 62
7
100
AcDbSpline
 70
8
 71
3
 72
8
 73
4
 74
0
 40
0
 40
0
 40
0
 40
0
 40
1
 40
1
 40
1
 40
1
 10
-26.387227
 20
-96.725344
 30
0.0
 10
-31.482335
 20
-95.119245
 30
0.0
 10
-36.461723
 20
-98.200237
 30
0.0
 10
-37.174509
 20
-103.400576
 30
0.0
  0
SPLINE
  5
119
100
AcDbEntity
  8
Layer_1
 62
7
100
AcDbSpline
 70
8
 71
3
 72
8
 73
4
 74
0
 40
0
 40
0
 40
0
 40
0
 40
1
 40
1
 40
1
 40
1
 10
-37.174509
 20
-103.400576
 30
0.0
 10
-37.392173
 20
-104.988613
 30
0.0
 10
-36.866731
 20
-107.242214
 30
0.0
 10
-35.971757
 20
-108.561038
 30
0.0
  0
LWPOLYLINE
  5
11a
100
AcDbEntity
  8
Layer_1
 62
7
100
AcDbPolyline
 90
3
 70
0
 10
-23.116866
 20
-95.685214
 30
0.0
 10
-24.901150
 20
-97.193889
 30
0.0
 10
-26.387227
 20
-96.725344
 30
0.0
  0
SPLINE
  5
11b
100
AcDbEntity
  8
Layer_1
 62
7
100
AcDbSpline
 70
8
 71
3
 72
8
 73
4
 74
0
 40
0
 40
0
 40
0
 40
0
 40
1
 40
1
 40
1
 40
1
 10
-37.245617
 20
-111.732736
 30
0.0
 10
-38.322668
 20
-112.922359
 30
0.0
 10
-39.659489
 20
-114.333132
 30
0.0
 10
-40.216667
 20
-114.868056
 30
0.0
  0
SPLINE
  5
11c
100
AcDbEntity
  8
Layer_1
 62
7
100
AcDbSpline
 70
8
 71
3
 72
8
 73
4
 74
0
 40
0
 40
0
 40
0
 40
0
 40
1
 40
1
 40
1
 40
1
 10
-40.216667
 20
-114.868056
 30
0.0
 10
-40.773294
 20
-115.402443
 30
0.0
 10
-41.228896
 20
-115.935025
 30
0.0
 10
-41.229799
 20
-116.052062
 30
0.0
  0
SPLINE
  5
11d
100
AcDbEntity
  8
Layer_1
 62
7
100
AcDbSpline
 70
8
 71
3
 72
8
 73
4
 74
0
 40
0
 40
0
 40
0
 40
0
 40
1
 40
1
 40
1
 40
1
 10
-41.229799
 20
-116.052062
 30
0.0
 10
-41.229799
 20
-116.168366
 30
0.0
 10
-39.547444
 20
-115.062676
 30
0.0
 10
-37.490908
 20
-113.594754
 30
0.0
  0
SPLINE
  5
11e
100
AcDbEntity
  8
Layer_1
 62
7
100
AcDbSpline
 70
8
 71
3
 72
8
 73
4
 74
0
 40
0
 40
0
 40
0
 40
0
 40
1
 40
1
 40
1
 40
1
 10
-37.490908
 20
-113.594754
 30
0.0
 10
-35.434372
 20
-112.126803
 30
0.0
 10
-33.592872
 20
-110.986851
 30
0.0
 10
-33.398686
 20
-111.061358
 30
0.0
  0
SPLINE
  5
11f
100
AcDbEntity
  8
Layer_1
 62
7
100
AcDbSpline
 70
8
 71
3
 72
8
 73
4
 74
0
 40
0
 40
0
 40
0
 40
0
 40
1
 40
1
 40
1
 40
1
 10
-33.398686
 20
-111.061358
 30
0.0
 10
-33.204500
 20
-111.135977
 30
0.0
 10
-33.045355
 20
-111.144641
 30
0.0
 10
-33.045355
 20
-111.080662
 30
0.0
  0
SPLINE
  5
120
100
AcDbEntity
  8
Layer_1
 62
7
100
AcDbSpline
 70
8
 71
3
 72
8
 73
4
 74
0
 40
0
 40
0
 40
0
 40
0
 40
1
 40
1
 40
1
 40
1
 10
-33.045355
 20
-111.080662
 30
0.0
 10
-33.045355
 20
-110.743208
 30
0.0
 10
-34.252716
 20
-108.987335
 30
0.0
 10
-34.567814
 20
-108.866431
 30
0.0
  0
SPLINE
  5
121
100
AcDbEntity
  8
Layer_1
 62
7
100
AcDbSpline
 70
8
 71
3
 72
8
 73
4
 74
0
 40
0
 40
0
 40
0
 40
0
 40
1
 40
1
 40
1
 40
1
 10
-34.567814
 20
-108.866431
 30
0.0
 10
-34.769956
 20
-108.788848
 30
0.0
 10
-35.291900
 20
-108.047083
 30
0.0
 10
-35.727569
 20
-107.218281
 30
0.0
  0
SPLINE
  5
122
100
AcDbEntity
  8
Layer_1
 62
7
100
AcDbSpline
 70
8
 71
3
 72
8
 73
4
 74
0
 40
0
 40
0
 40
0
 40
0
 40
1
 40
1
 40
1
 40
1
 10
-35.727569
 20
-107.218281
 30
0.0
 10
-37.231633
 20
-104.356915
 30
0.0
 10
-36.614250
 20
-101.189224
 30
0.0
 10
-34.103688
 20
-98.886122
 30
0.0
  0
SPLINE
  5
123
100
AcDbEntity
  8
Layer_1
 62
7
100
AcDbSpline
 70
8
 71
3
 72
8
 73
4
 74
0
 40
0
 40
0
 40
0
 40
0
 40
1
 40
1
 40
1
 40
1
 10
-34.103688
 20
-98.886122
 30
0.0
 10
-32.828896
 20
-97.716677
 30
0.0
 10
-30.672955
 20
-96.821271
 30
0.0
 10
-29.132279
 20
-96.821271
 30
0.0
  0
SPLINE
  5
124
100
AcDbEntity
  8
Layer_1
 62
7
100
AcDbSpline
 70
8
 71
3
 72
8
 73
4
 74
0
 40
0
 40
0
 40
0
 40
0
 40
1
 40
1
 40
1
 40
1
 10
-29.132279
 20
-96.821271
 30
0.0
 10
-28.450218
 20
-96.821271
 30
0.0
 10
-25.885444
 20
-97.409337
 30
0.0
 10
-24.170239
 20
-97.958965
 30
0.0
  0
SPLINE
  5
125
100
AcDbEntity
  8
Layer_1
 62
7
100
AcDbSpline
 70
8
 71
3
 72
8
 73
4
 74
0
 40
0
 40
0
 40
0
 40
0
 40
1
 40
1
 40
1
 40
1
 10
-24.170239
 20
-97.958965
 30
0.0
 10
-23.712584
 20
-98.105636
 30
0.0
 10
-23.268084
 20
-98.123557
 30
0.0
 10
-23.182461
 20
-97.998674
 30
0.0
  0
SPLINE
  5
126
100
AcDbEntity
  8
Layer_1
 62
7
100
AcDbSpline
 70
8
 71
3
 72
8
 73
4
 74
0
 40
0
 40
0
 40
0
 40
0
 40
1
 40
1
 40
1
 40
1
 10
-23.182461
 20
-97.998674
 30
0.0
 10
-21.763532
 20
-95.929477
 30
0.0
 10
-19.691998
 20
-93.130990
 30
0.0
 10
-19.484909
 20
-93.003002
 30
0.0
  0
SPLINE
  5
127
100
AcDbEntity
  8
Layer_1
 62
7
100
AcDbSpline
 70
8
 71
3
 72
8
 73
4
 74
0
 40
0
 40
0
 40
0
 40
0
 40
1
 40
1
 40
1
 40
1
 10
-19.484909
 20
-93.003002
 30
0.0
 10
-19.337191
 20
-92.911703
 30
0.0
 10
-19.216467
 20
-92.691654
 30
0.0
 10
-19.216467
 20
-92.514080
 30
0.0
  0
SPLINE
  5
128
100
AcDbEntity
  8
Layer_1
 62
7
100
AcDbSpline
 70
8
 71
3
 72
8
 73
4
 74
0
 40
0
 40
0
 40
0
 40
0
 40
1
 40
1
 40
1
 40
1
 10
-19.216467
 20
-92.514080
 30
0.0
 10
-19.216467
 20
-92.469686
 30
0.0
 10
-19.246508
 20
-92.455406
 30
0.0
 10
-19.300252
 20
-92.467231
 30
0.0
  0
LWPOLYLINE
  5
129
100
AcDbEntity
  8
Layer_1
 62
7
100
AcDbPolyline
 90
3
 70
0
 10
-35.971757
 20
-108.561038
 30
0.0
 10
-35.287148
 20
-109.569785
 30
0.0
 10
-37.245617
 20
-111.732736
 30
0.0
  0
SPLINE
  5
12a
100
AcDbEntity
  8
Layer_1
 62
7
100
AcDbSpline
 70
8
 71
3
 72
8
 73
4
 74
0
 40
0
 40
0
 40
0
 40
0
 40
1
 40
1
 40
1
 40
1
 10
-25.672300
 20
-98.824371
 30
0.0
 10
-26.566688
 20
-98.783590
 30
0.0
 10
-27.534613
 20
-99.314958
 30
0.0
 10
-29.642703
 20
-100.802693
 30
0.0
  0
SPLINE
  5
12b
100
AcDbEntity
  8
Layer_1
 62
7
100
AcDbSpline
 70
8
 71
3
 72
8
 73
4
 74
0
 40
0
 40
0
 40
0
 40
0
 40
1
 40
1
 40
1
 40
1
 10
-29.642703
 20
-100.802693
 30
0.0
 10
-31.205771
 20
-101.905758
 30
0.0
 10
-32.540990
 20
-102.898616
 30
0.0
 10
-32.609344
 20
-103.009219
 30
0.0
  0
SPLINE
  5
12c
100
AcDbEntity
  8
Layer_1
 62
7
100
AcDbSpline
 70
8
 71
3
 72
8
 73
4
 74
0
 40
0
 40
0
 40
0
 40
0
 40
1
 40
1
 40
1
 40
1
 10
-32.609344
 20
-103.009219
 30
0.0
 10
-32.677695
 20
-103.119935
 30
0.0
 10
-32.374295
 20
-103.157442
 30
0.0
 10
-31.935208
 20
-103.092982
 30
0.0
  0
SPLINE
  5
12d
100
AcDbEntity
  8
Layer_1
 62
7
100
AcDbSpline
 70
8
 71
3
 72
8
 73
4
 74
0
 40
0
 40
0
 40
0
 40
0
 40
1
 40
1
 40
1
 40
1
 10
-31.935208
 20
-103.092982
 30
0.0
 10
-30.608964
 20
-102.898334
 30
0.0
 10
-30.701553
 20
-103.488037
 30
0.0
 10
-32.194830
 20
-104.747200
 30
0.0
  0
SPLINE
  5
12e
100
AcDbEntity
  8
Layer_1
 62
7
100
AcDbSpline
 70
8
 71
3
 72
8
 73
4
 74
0
 40
0
 40
0
 40
0
 40
0
 40
1
 40
1
 40
1
 40
1
 10
-32.194830
 20
-104.747200
 30
0.0
 10
-33.682765
 20
-106.001847
 30
0.0
 10
-33.804245
 20
-106.338933
 30
0.0
 10
-33.296710
 20
-107.794861
 30
0.0
  0
SPLINE
  5
12f
100
AcDbEntity
  8
Layer_1
 62
7
100
AcDbSpline
 70
8
 71
3
 72
8
 73
4
 74
0
 40
0
 40
0
 40
0
 40
0
 40
1
 40
1
 40
1
 40
1
 10
-33.296710
 20
-107.794861
 30
0.0
 10
-32.941726
 20
-108.813175
 30
0.0
 10
-33.193109
 20
-108.921182
 30
0.0
 10
-30.295895
 20
-106.505557
 30
0.0
  0
LWPOLYLINE
  5
130
100
AcDbEntity
  8
Layer_1
 62
7
100
AcDbPolyline
 90
2
 70
0
 10
-19.300252
 20
-92.467231
 30
0.0
 10
-19.300252
 20
-92.467231
 30
0.0
  0
SPLINE
  5
131
100
AcDbEntity
  8
Layer_1
 62
7
100
AcDbSpline
 70
8
 71
3
 72
8
 73
4
 74
0
 40
0
 40
0
 40
0
 40
0
 40
1
 40
1
 40
1
 40
1
 10
-28.134028
 20
-102.764476
 30
0.0
 10
-26.489118
 20
-101.609340
 30
0.0
 10
-25.143134
 20
-100.513274
 30
0.0
 10
-25.143134
 20
-100.329208
 30
0.0
  0
SPLINE
  5
132
100
AcDbEntity
  8
Layer_1
 62
7
100
AcDbSpline
 70
8
 71
3
 72
8
 73
4
 74
0
 40
0
 40
0
 40
0
 40
0
 40
1
 40
1
 40
1
 40
1
 10
-25.143134
 20
-100.329208
 30
0.0
 10
-25.143134
 20
-100.145171
 30
0.0
 10
-24.940672
 20
-99.826627
 30
0.0
 10
-24.692791
 20
-99.620887
 30
0.0
  0
SPLINE
  5
133
100
AcDbEntity
  8
Layer_1
 62
7
100
AcDbSpline
 70
8
 71
3
 72
8
 73
4
 74
0
 40
0
 40
0
 40
0
 40
0
 40
1
 40
1
 40
1
 40
1
 10
-24.692791
 20
-99.620887
 30
0.0
 10
-24.283552
 20
-99.281261
 30
0.0
 10
-24.290043
 20
-99.227808
 30
0.0
 10
-24.763346
 20
-99.041570
 30
0.0
  0
SPLINE
  5
134
100
AcDbEntity
  8
Layer_1
 62
7
100
AcDbSpline
 70
8
 71
3
 72
8
 73
4
 74
0
 40
0
 40
0
 40
0
 40
0
 40
1
 40
1
 40
1
 40
1
 10
-24.763346
 20
-99.041570
 30
0.0
 10
-25.084614
 20
-98.915134
 30
0.0
 10
-25.374171
 20
-98.837974
 30
0.0
 10
-25.672300
 20
-98.824371
 30
0.0
  0
LWPOLYLINE
  5
135
100
AcDbEntity
  8
Layer_1
 62
7
100
AcDbPolyline
 90
5
 70
0
 10
-30.295895
 20
-106.505557
 30
0.0
 10
-28.534210
 20
-105.036590
 30
0.0
 10
-29.829565
 20
-104.950597
 30
0.0
 10
-31.124923
 20
-104.864604
 30
0.0
 10
-28.134028
 20
-102.764476
 30
0.0
  0
SPLINE
  5
136
100
AcDbEntity
  8
Layer_1
 62
7
100
AcDbSpline
 70
8
 71
3
 72
8
 73
4
 74
0
 40
0
 40
0
 40
0
 40
0
 40
1
 40
1
 40
1
 40
1
 10
-21.881042
 20
-101.336826
 30
0.0
 10
-21.949492
 20
-101.336826
 30
0.0
 10
-22.083867
 20
-101.463826
 30
0.0
 10
-22.179800
 20
-101.619049
 30
0.0
  0
SPLINE
  5
137
100
AcDbEntity
  8
Layer_1
 62
7
100
AcDbSpline
 70
8
 71
3
 72
8
 73
4
 74
0
 40
0
 40
0
 40
0
 40
0
 40
1
 40
1
 40
1
 40
1
 10
-22.179800
 20
-101.619049
 30
0.0
 10
-22.275733
 20
-101.774271
 30
0.0
 10
-22.219609
 20
-101.901271
 30
0.0
 10
-22.055226
 20
-101.901271
 30
0.0
  0
SPLINE
  5
138
100
AcDbEntity
  8
Layer_1
 62
7
100
AcDbSpline
 70
8
 71
3
 72
8
 73
4
 74
0
 40
0
 40
0
 40
0
 40
0
 40
1
 40
1
 40
1
 40
1
 10
-22.055226
 20
-101.901271
 30
0.0
 10
-21.890843
 20
-101.901271
 30
0.0
 10
-21.756467
 20
-101.774271
 30
0.0
 10
-21.756467
 20
-101.619049
 30
0.0
  0
SPLINE
  5
139
100
AcDbEntity
  8
Layer_1
 62
7
100
AcDbSpline
 70
8
 71
3
 72
8
 73
4
 74
0
 40
0
 40
0
 40
0
 40
0
 40
1
 40
1
 40
1
 40
1
 10
-21.756467
 20
-101.619049
 30
0.0
 10
-21.756467
 20
-101.463826
 30
0.0
 10
-21.812591
 20
-101.336826
 30
0.0
 10
-21.881042
 20
-101.336826
 30
0.0
  0
LWPOLYLINE
  5
13a
100
AcDbEntity
  8
Layer_1
 62
7
100
AcDbPolyline
 90
2
 70
0
 10
-25.672300
 20
-98.824371
 30
0.0
 10
-25.672300
 20
-98.824371
 30
0.0
  0
SPLINE
  5
13b
100
AcDbEntity
  8
Layer_1
 62
7
100
AcDbSpline
 70
8
 71
3
 72
8
 73
4
 74
0
 40
0
 40
0
 40
0
 40
0
 40
1
 40
1
 40
1
 40
1
 10
-21.510074
 20
-103.557125
 30
0.0
 10
-21.553520
 20
-103.557125
 30
0.0
 10
-21.609827
 20
-103.590060
 30
0.0
 10
-21.680399
 20
-103.648622
 30
0.0
  0
SPLINE
  5
13c
100
AcDbEntity
  8
Layer_1
 62
7
100
AcDbSpline
 70
8
 71
3
 72
8
 73
4
 74
0
 40
0
 40
0
 40
0
 40
0
 40
1
 40
1
 40
1
 40
1
 10
-21.680399
 20
-103.648622
 30
0.0
 10
-21.877515
 20
-103.812198
 30
0.0
 10
-22.038689
 20
-104.463764
 30
0.0
 10
-22.038689
 20
-105.096676
 30
0.0
  0
SPLINE
  5
13d
100
AcDbEntity
  8
Layer_1
 62
7
100
AcDbSpline
 70
8
 71
3
 72
8
 73
4
 74
0
 40
0
 40
0
 40
0
 40
0
 40
1
 40
1
 40
1
 40
1
 10
-22.038689
 20
-105.096676
 30
0.0
 10
-22.038689
 20
-106.566094
 30
0.0
 10
-21.569410
 20
-106.132346
 30
0.0
 10
-21.426840
 20
-104.531102
 30
0.0
  0
SPLINE
  5
13e
100
AcDbEntity
  8
Layer_1
 62
7
100
AcDbSpline
 70
8
 71
3
 72
8
 73
4
 74
0
 40
0
 40
0
 40
0
 40
0
 40
1
 40
1
 40
1
 40
1
 10
-21.426840
 20
-104.531102
 30
0.0
 10
-21.364767
 20
-103.833985
 30
0.0
 10
-21.379734
 20
-103.554557
 30
0.0
 10
-21.510074
 20
-103.557125
 30
0.0
  0
LWPOLYLINE
  5
13f
100
AcDbEntity
  8
Layer_1
 62
7
100
AcDbPolyline
 90
2
 70
0
 10
-21.881042
 20
-101.336826
 30
0.0
 10
-21.881042
 20
-101.336826
 30
0.0
  0
SPLINE
  5
140
100
AcDbEntity
  8
Layer_1
 62
7
100
AcDbSpline
 70
8
 71
3
 72
8
 73
4
 74
0
 40
0
 40
0
 40
0
 40
0
 40
1
 40
1
 40
1
 40
1
 10
-22.059635
 20
-106.711184
 30
0.0
 10
-22.200926
 20
-106.715982
 30
0.0
 10
-22.448259
 20
-107.021121
 30
0.0
 10
-22.700148
 20
-107.623976
 30
0.0
  0
SPLINE
  5
141
100
AcDbEntity
  8
Layer_1
 62
7
100
AcDbSpline
 70
8
 71
3
 72
8
 73
4
 74
0
 40
0
 40
0
 40
0
 40
0
 40
1
 40
1
 40
1
 40
1
 10
-22.700148
 20
-107.623976
 30
0.0
 10
-22.912751
 20
-108.132794
 30
0.0
 10
-23.726620
 20
-109.125200
 30
0.0
 10
-24.509236
 20
-109.828837
 30
0.0
  0
SPLINE
  5
142
100
AcDbEntity
  8
Layer_1
 62
7
100
AcDbSpline
 70
8
 71
3
 72
8
 73
4
 74
0
 40
0
 40
0
 40
0
 40
0
 40
1
 40
1
 40
1
 40
1
 10
-24.509236
 20
-109.828837
 30
0.0
 10
-25.962940
 20
-111.135836
 30
0.0
 10
-27.468693
 20
-111.779049
 30
0.0
 10
-29.073297
 20
-111.779049
 30
0.0
  0
SPLINE
  5
143
100
AcDbEntity
  8
Layer_1
 62
7
100
AcDbSpline
 70
8
 71
3
 72
8
 73
4
 74
0
 40
0
 40
0
 40
0
 40
0
 40
1
 40
1
 40
1
 40
1
 10
-29.073297
 20
-111.779049
 30
0.0
 10
-29.669311
 20
-111.779049
 30
0.0
 10
-29.907628
 20
-111.886406
 30
0.0
 10
-29.777752
 20
-112.096549
 30
0.0
  0
SPLINE
  5
144
100
AcDbEntity
  8
Layer_1
 62
7
100
AcDbSpline
 70
8
 71
3
 72
8
 73
4
 74
0
 40
0
 40
0
 40
0
 40
0
 40
1
 40
1
 40
1
 40
1
 10
-29.777752
 20
-112.096549
 30
0.0
 10
-29.650148
 20
-112.303022
 30
0.0
 10
-29.037867
 20
-112.358366
 30
0.0
 10
-28.028746
 20
-112.254198
 30
0.0
  0
SPLINE
  5
145
100
AcDbEntity
  8
Layer_1
 62
7
100
AcDbSpline
 70
8
 71
3
 72
8
 73
4
 74
0
 40
0
 40
0
 40
0
 40
0
 40
1
 40
1
 40
1
 40
1
 10
-28.028746
 20
-112.254198
 30
0.0
 10
-25.450510
 20
-111.988091
 30
0.0
 10
-22.698345
 20
-109.844923
 30
0.0
 10
-22.055226
 20
-107.602498
 30
0.0
  0
SPLINE
  5
146
100
AcDbEntity
  8
Layer_1
 62
7
100
AcDbSpline
 70
8
 71
3
 72
8
 73
4
 74
0
 40
0
 40
0
 40
0
 40
0
 40
1
 40
1
 40
1
 40
1
 10
-22.055226
 20
-107.602498
 30
0.0
 10
-21.883100
 20
-107.002325
 30
0.0
 10
-21.918346
 20
-106.706415
 30
0.0
 10
-22.059635
 20
-106.711184
 30
0.0
  0
LWPOLYLINE
  5
147
100
AcDbEntity
  8
Layer_1
 62
7
100
AcDbPolyline
 90
2
 70
0
 10
-21.510074
 20
-103.557125
 30
0.0
 10
-21.510074
 20
-103.557125
 30
0.0
  0
SPLINE
  5
148
100
AcDbEntity
  8
Layer_1
 62
7
100
AcDbSpline
 70
8
 71
3
 72
8
 73
4
 74
0
 40
0
 40
0
 40
0
 40
0
 40
1
 40
1
 40
1
 40
1
 10
-34.914527
 20
-107.090971
 30
0.0
 10
-34.948811
 20
-107.090971
 30
0.0
 10
-34.986434
 20
-107.100848
 30
0.0
 10
-35.025872
 20
-107.125148
 30
0.0
  0
SPLINE
  5
149
100
AcDbEntity
  8
Layer_1
 62
7
100
AcDbSpline
 70
8
 71
3
 72
8
 73
4
 74
0
 40
0
 40
0
 40
0
 40
0
 40
1
 40
1
 40
1
 40
1
 10
-35.025872
 20
-107.125148
 30
0.0
 10
-35.183626
 20
-107.222627
 30
0.0
 10
-35.239204
 20
-107.420493
 30
0.0
 10
-35.149897
 20
-107.564991
 30
0.0
  0
SPLINE
  5
14a
100
AcDbEntity
  8
Layer_1
 62
7
100
AcDbSpline
 70
8
 71
3
 72
8
 73
4
 74
0
 40
0
 40
0
 40
0
 40
0
 40
1
 40
1
 40
1
 40
1
 10
-35.149897
 20
-107.564991
 30
0.0
 10
-34.907962
 20
-107.956433
 30
0.0
 10
-34.738688
 20
-107.883789
 30
0.0
 10
-34.738688
 20
-107.388066
 30
0.0
  0
SPLINE
  5
14b
100
AcDbEntity
  8
Layer_1
 62
7
100
AcDbSpline
 70
8
 71
3
 72
8
 73
4
 74
0
 40
0
 40
0
 40
0
 40
0
 40
1
 40
1
 40
1
 40
1
 10
-34.738688
 20
-107.388066
 30
0.0
 10
-34.738688
 20
-107.206484
 30
0.0
 10
-34.811674
 20
-107.094386
 30
0.0
 10
-34.914527
 20
-107.090971
 30
0.0
  0
LWPOLYLINE
  5
14c
100
AcDbEntity
  8
Layer_1
 62
7
100
AcDbPolyline
 90
2
 70
0
 10
-22.059635
 20
-106.711184
 30
0.0
 10
-22.059635
 20
-106.711184
 30
0.0
  0
SPLINE
  5
14d
100
AcDbEntity
  8
Layer_1
 62
7
100
AcDbSpline
 70
8
 71
3
 72
8
 73
4
 74
0
 40
0
 40
0
 40
0
 40
0
 40
1
 40
1
 40
1
 40
1
 10
-16.866636
 20
-93.898719
 30
0.0
 10
-16.935851
 20
-93.829518
 30
0.0
 10
-18.340502
 20
-94.925443
 30
0.0
 10
-19.988168
 20
-96.333986
 30
0.0
  0
SPLINE
  5
14e
100
AcDbEntity
  8
Layer_1
 62
7
100
AcDbSpline
 70
8
 71
3
 72
8
 73
4
 74
0
 40
0
 40
0
 40
0
 40
0
 40
1
 40
1
 40
1
 40
1
 10
-19.988168
 20
-96.333986
 30
0.0
 10
-22.968895
 20
-98.882142
 30
0.0
 10
-22.987943
 20
-98.893177
 30
0.0
 10
-23.788246
 20
-98.479326
 30
0.0
  0
SPLINE
  5
14f
100
AcDbEntity
  8
Layer_1
 62
7
100
AcDbSpline
 70
8
 71
3
 72
8
 73
4
 74
0
 40
0
 40
0
 40
0
 40
0
 40
1
 40
1
 40
1
 40
1
 10
-23.788246
 20
-98.479326
 30
0.0
 10
-26.796312
 20
-96.923802
 30
0.0
 10
-31.526621
 20
-98.186069
 30
0.0
 10
-33.532078
 20
-101.079948
 30
0.0
  0
SPLINE
  5
150
100
AcDbEntity
  8
Layer_1
 62
7
100
AcDbSpline
 70
8
 71
3
 72
8
 73
4
 74
0
 40
0
 40
0
 40
0
 40
0
 40
1
 40
1
 40
1
 40
1
 10
-33.532078
 20
-101.079948
 30
0.0
 10
-35.351460
 20
-103.705320
 30
0.0
 10
-35.536505
 20
-107.481115
 30
0.0
 10
-33.961476
 20
-109.828837
 30
0.0
  0
SPLINE
  5
151
100
AcDbEntity
  8
Layer_1
 62
7
100
AcDbSpline
 70
8
 71
3
 72
8
 73
4
 74
0
 40
0
 40
0
 40
0
 40
0
 40
1
 40
1
 40
1
 40
1
 10
-33.961476
 20
-109.828837
 30
0.0
 10
-33.513686
 20
-110.496320
 30
0.0
 10
-33.147330
 20
-111.086588
 30
0.0
 10
-33.147330
 20
-111.140182
 30
0.0
  0
SPLINE
  5
152
100
AcDbEntity
  8
Layer_1
 62
7
100
AcDbSpline
 70
8
 71
3
 72
8
 73
4
 74
0
 40
0
 40
0
 40
0
 40
0
 40
1
 40
1
 40
1
 40
1
 10
-33.147330
 20
-111.140182
 30
0.0
 10
-33.147330
 20
-111.193748
 30
0.0
 10
-34.144565
 20
-112.298479
 30
0.0
 10
-35.363215
 20
-113.595290
 30
0.0
  0
SPLINE
  5
153
100
AcDbEntity
  8
Layer_1
 62
7
100
AcDbSpline
 70
8
 71
3
 72
8
 73
4
 74
0
 40
0
 40
0
 40
0
 40
0
 40
1
 40
1
 40
1
 40
1
 10
-35.363215
 20
-113.595290
 30
0.0
 10
-38.187043
 20
-116.600279
 30
0.0
 10
-39.461203
 20
-118.070064
 30
0.0
 10
-39.242119
 20
-118.070064
 30
0.0
  0
SPLINE
  5
154
100
AcDbEntity
  8
Layer_1
 62
7
100
AcDbSpline
 70
8
 71
3
 72
8
 73
4
 74
0
 40
0
 40
0
 40
0
 40
0
 40
1
 40
1
 40
1
 40
1
 10
-39.242119
 20
-118.070064
 30
0.0
 10
-39.146926
 20
-118.070064
 30
0.0
 10
-38.149544
 20
-117.395610
 30
0.0
 10
-37.025682
 20
-116.571859
 30
0.0
  0
SPLINE
  5
155
100
AcDbEntity
  8
Layer_1
 62
7
100
AcDbSpline
 70
8
 71
3
 72
8
 73
4
 74
0
 40
0
 40
0
 40
0
 40
0
 40
1
 40
1
 40
1
 40
1
 10
-37.025682
 20
-116.571859
 30
0.0
 10
-35.901822
 20
-115.748137
 30
0.0
 10
-34.210340
 20
-114.538900
 30
0.0
 10
-33.267495
 20
-113.884680
 30
0.0
  0
LWPOLYLINE
  5
156
100
AcDbEntity
  8
Layer_1
 62
7
100
AcDbPolyline
 90
2
 70
0
 10
-34.914527
 20
-107.090971
 30
0.0
 10
-34.914527
 20
-107.090971
 30
0.0
  0
SPLINE
  5
157
100
AcDbEntity
  8
Layer_1
 62
7
100
AcDbSpline
 70
8
 71
3
 72
8
 73
4
 74
0
 40
0
 40
0
 40
0
 40
0
 40
1
 40
1
 40
1
 40
1
 10
-30.304161
 20
-113.247479
 30
0.0
 10
-26.150354
 20
-115.082968
 30
0.0
 10
-21.909053
 20
-113.612731
 30
0.0
 10
-19.971081
 20
-109.666248
 30
0.0
  0
SPLINE
  5
158
100
AcDbEntity
  8
Layer_1
 62
7
100
AcDbSpline
 70
8
 71
3
 72
8
 73
4
 74
0
 40
0
 40
0
 40
0
 40
0
 40
1
 40
1
 40
1
 40
1
 10
-19.971081
 20
-109.666248
 30
0.0
 10
-19.320590
 20
-108.341554
 30
0.0
 10
-19.179669
 20
-107.688012
 30
0.0
 10
-19.188906
 20
-106.034839
 30
0.0
  0
SPLINE
  5
159
100
AcDbEntity
  8
Layer_1
 62
7
100
AcDbSpline
 70
8
 71
3
 72
8
 73
4
 74
0
 40
0
 40
0
 40
0
 40
0
 40
1
 40
1
 40
1
 40
1
 10
-19.188906
 20
-106.034839
 30
0.0
 10
-19.198530
 20
-104.311392
 30
0.0
 10
-19.343354
 20
-103.730156
 30
0.0
 10
-20.186606
 20
-102.031347
 30
0.0
  0
LWPOLYLINE
  5
15a
100
AcDbEntity
  8
Layer_1
 62
7
100
AcDbPolyline
 90
3
 70
0
 10
-33.267495
 20
-113.884680
 30
0.0
 10
-31.553768
 20
-112.695170
 30
0.0
 10
-30.304161
 20
-113.247479
 30
0.0
  0
SPLINE
  5
15b
100
AcDbEntity
  8
Layer_1
 62
7
100
AcDbSpline
 70
8
 71
3
 72
8
 73
4
 74
0
 40
0
 40
0
 40
0
 40
0
 40
1
 40
1
 40
1
 40
1
 10
-20.189362
 20
-98.685490
 30
0.0
 10
-19.648288
 20
-97.938137
 30
0.0
 10
-18.650722
 20
-96.583809
 30
0.0
 10
-17.972925
 20
-95.675844
 30
0.0
  0
SPLINE
  5
15c
100
AcDbEntity
  8
Layer_1
 62
7
100
AcDbSpline
 70
8
 71
3
 72
8
 73
4
 74
0
 40
0
 40
0
 40
0
 40
0
 40
1
 40
1
 40
1
 40
1
 10
-17.972925
 20
-95.675844
 30
0.0
 10
-17.295132
 20
-94.767878
 30
0.0
 10
-16.797424
 20
-93.967948
 30
0.0
 10
-16.866636
 20
-93.898719
 30
0.0
  0
LWPOLYLINE
  5
15d
100
AcDbEntity
  8
Layer_1
 62
7
100
AcDbPolyline
 90
3
 70
0
 10
-20.186606
 20
-102.031347
 30
0.0
 10
-21.173281
 20
-100.044220
 30
0.0
 10
-20.189362
 20
-98.685490
 30
0.0
  0
SPLINE
  5
15e
100
AcDbEntity
  8
Layer_1
 62
7
100
AcDbSpline
 70
8
 71
3
 72
8
 73
4
 74
0
 40
0
 40
0
 40
0
 40
0
 40
1
 40
1
 40
1
 40
1
 10
-26.504635
 20
-98.768717
 30
0.0
 10
-24.133263
 20
-98.807297
 30
0.0
 10
-23.048979
 20
-99.464846
 30
0.0
 10
-24.369779
 20
-100.152255
 30
0.0
  0
SPLINE
  5
15f
100
AcDbEntity
  8
Layer_1
 62
7
100
AcDbSpline
 70
8
 71
3
 72
8
 73
4
 74
0
 40
0
 40
0
 40
0
 40
0
 40
1
 40
1
 40
1
 40
1
 10
-24.369779
 20
-100.152255
 30
0.0
 10
-24.872667
 20
-100.413988
 30
0.0
 10
-30.431667
 20
-104.347799
 30
0.0
 10
-31.019640
 20
-104.857972
 30
0.0
  0
SPLINE
  5
160
100
AcDbEntity
  8
Layer_1
 62
7
100
AcDbSpline
 70
8
 71
3
 72
8
 73
4
 74
0
 40
0
 40
0
 40
0
 40
0
 40
1
 40
1
 40
1
 40
1
 10
-31.019640
 20
-104.857972
 30
0.0
 10
-31.168591
 20
-104.987258
 30
0.0
 10
-30.692341
 20
-105.011106
 30
0.0
 10
-29.961307
 20
-104.910917
 30
0.0
  0
SPLINE
  5
161
100
AcDbEntity
  8
Layer_1
 62
7
100
AcDbSpline
 70
8
 71
3
 72
8
 73
4
 74
0
 40
0
 40
0
 40
0
 40
0
 40
1
 40
1
 40
1
 40
1
 10
-29.961307
 20
-104.910917
 30
0.0
 10
-29.230272
 20
-104.810700
 30
0.0
 10
-28.637289
 20
-104.841180
 30
0.0
 10
-28.643902
 20
-104.978707
 30
0.0
  0
SPLINE
  5
162
100
AcDbEntity
  8
Layer_1
 62
7
100
AcDbSpline
 70
8
 71
3
 72
8
 73
4
 74
0
 40
0
 40
0
 40
0
 40
0
 40
1
 40
1
 40
1
 40
1
 10
-28.643902
 20
-104.978707
 30
0.0
 10
-28.650506
 20
-105.116205
 30
0.0
 10
-29.253761
 20
-105.702550
 30
0.0
 10
-29.984457
 20
-106.281783
 30
0.0
  0
SPLINE
  5
163
100
AcDbEntity
  8
Layer_1
 62
7
100
AcDbSpline
 70
8
 71
3
 72
8
 73
4
 74
0
 40
0
 40
0
 40
0
 40
0
 40
1
 40
1
 40
1
 40
1
 10
-29.984457
 20
-106.281783
 30
0.0
 10
-30.715150
 20
-106.860988
 30
0.0
 10
-31.788374
 20
-107.729696
 30
0.0
 10
-32.369015
 20
-108.212127
 30
0.0
  0
LWPOLYLINE
  5
164
100
AcDbEntity
  8
Layer_1
 62
7
100
AcDbPolyline
 90
2
 70
0
 10
-16.866636
 20
-93.898719
 30
0.0
 10
-16.866636
 20
-93.898719
 30
0.0
  0
SPLINE
  5
165
100
AcDbEntity
  8
Layer_1
 62
7
100
AcDbSpline
 70
8
 71
3
 72
8
 73
4
 74
0
 40
0
 40
0
 40
0
 40
0
 40
1
 40
1
 40
1
 40
1
 10
-33.742644
 20
-108.287649
 30
0.0
 10
-34.552173
 20
-106.246816
 30
0.0
 10
-34.011190
 20
-103.099078
 30
0.0
 10
-32.545404
 20
-101.320824
 30
0.0
  0
SPLINE
  5
166
100
AcDbEntity
  8
Layer_1
 62
7
100
AcDbSpline
 70
8
 71
3
 72
8
 73
4
 74
0
 40
0
 40
0
 40
0
 40
0
 40
1
 40
1
 40
1
 40
1
 10
-32.545404
 20
-101.320824
 30
0.0
 10
-31.374865
 20
-99.900767
 30
0.0
 10
-28.993973
 20
-98.806450
 30
0.0
 10
-26.995768
 20
-98.769818
 30
0.0
  0
SPLINE
  5
167
100
AcDbEntity
  8
Layer_1
 62
7
100
AcDbSpline
 70
8
 71
3
 72
8
 73
4
 74
0
 40
0
 40
0
 40
0
 40
0
 40
1
 40
1
 40
1
 40
1
 10
-26.995768
 20
-98.769818
 30
0.0
 10
-26.826569
 20
-98.766713
 30
0.0
 10
-26.662727
 20
-98.766149
 30
0.0
 10
-26.504635
 20
-98.768717
 30
0.0
  0
LWPOLYLINE
  5
168
100
AcDbEntity
  8
Layer_1
 62
7
100
AcDbPolyline
 90
3
 70
0
 10
-32.369015
 20
-108.212127
 30
0.0
 10
-33.424591
 20
-109.089104
 30
0.0
 10
-33.742644
 20
-108.287649
 30
0.0
  0
SPLINE
  5
169
100
AcDbEntity
  8
Layer_1
 62
7
100
AcDbSpline
 70
8
 71
3
 72
8
 73
4
 74
0
 40
0
 40
0
 40
0
 40
0
 40
1
 40
1
 40
1
 40
1
 10
-21.995694
 20
-101.136731
 30
0.0
 10
-21.719498
 20
-101.136731
 30
0.0
 10
-21.293002
 20
-101.708146
 30
0.0
 10
-21.294549
 20
-102.076559
 30
0.0
  0
SPLINE
  5
16a
100
AcDbEntity
  8
Layer_1
 62
7
100
AcDbSpline
 70
8
 71
3
 72
8
 73
4
 74
0
 40
0
 40
0
 40
0
 40
0
 40
1
 40
1
 40
1
 40
1
 10
-21.294549
 20
-102.076559
 30
0.0
 10
-21.295113
 20
-102.207567
 30
0.0
 10
-22.694581
 20
-102.182392
 30
0.0
 10
-22.828030
 20
-102.048986
 30
0.0
  0
SPLINE
  5
16b
100
AcDbEntity
  8
Layer_1
 62
7
100
AcDbSpline
 70
8
 71
3
 72
8
 73
4
 74
0
 40
0
 40
0
 40
0
 40
0
 40
1
 40
1
 40
1
 40
1
 10
-22.828030
 20
-102.048986
 30
0.0
 10
-23.050316
 20
-101.826708
 30
0.0
 10
-22.420794
 20
-101.136731
 30
0.0
 10
-21.995694
 20
-101.136731
 30
0.0
  0
LWPOLYLINE
  5
16c
100
AcDbEntity
  8
Layer_1
 62
7
100
AcDbPolyline
 90
2
 70
0
 10
-26.504635
 20
-98.768717
 30
0.0
 10
-26.504635
 20
-98.768717
 30
0.0
  0
SPLINE
  5
16d
100
AcDbEntity
  8
Layer_1
 62
7
100
AcDbSpline
 70
8
 71
3
 72
8
 73
4
 74
0
 40
0
 40
0
 40
0
 40
0
 40
1
 40
1
 40
1
 40
1
 10
-20.961615
 20
-102.547842
 30
0.0
 10
-20.564347
 20
-102.547842
 30
0.0
 10
-20.165109
 20
-104.449992
 30
0.0
 10
-20.165109
 20
-106.344606
 30
0.0
  0
SPLINE
  5
16e
100
AcDbEntity
  8
Layer_1
 62
7
100
AcDbSpline
 70
8
 71
3
 72
8
 73
4
 74
0
 40
0
 40
0
 40
0
 40
0
 40
1
 40
1
 40
1
 40
1
 10
-20.165109
 20
-106.344606
 30
0.0
 10
-20.165109
 20
-108.096133
 30
0.0
 10
-20.275927
 20
-108.537811
 30
0.0
 10
-20.998546
 20
-109.677255
 30
0.0
  0
SPLINE
  5
16f
100
AcDbEntity
  8
Layer_1
 62
7
100
AcDbSpline
 70
8
 71
3
 72
8
 73
4
 74
0
 40
0
 40
0
 40
0
 40
0
 40
1
 40
1
 40
1
 40
1
 10
-20.998546
 20
-109.677255
 30
0.0
 10
-22.063342
 20
-111.356280
 30
0.0
 10
-23.764693
 20
-112.585499
 30
0.0
 10
-25.555994
 20
-112.969660
 30
0.0
  0
SPLINE
  5
170
100
AcDbEntity
  8
Layer_1
 62
7
100
AcDbSpline
 70
8
 71
3
 72
8
 73
4
 74
0
 40
0
 40
0
 40
0
 40
0
 40
1
 40
1
 40
1
 40
1
 10
-25.555994
 20
-112.969660
 30
0.0
 10
-27.185968
 20
-113.319220
 30
0.0
 10
-26.983109
 20
-113.326191
 30
0.0
 10
-28.668156
 20
-112.861625
 30
0.0
  0
SPLINE
  5
171
100
AcDbEntity
  8
Layer_1
 62
7
100
AcDbSpline
 70
8
 71
3
 72
8
 73
4
 74
0
 40
0
 40
0
 40
0
 40
0
 40
1
 40
1
 40
1
 40
1
 10
-28.668156
 20
-112.861625
 30
0.0
 10
-29.386389
 20
-112.663618
 30
0.0
 10
-30.116639
 20
-112.413174
 30
0.0
 10
-30.290934
 20
-112.305450
 30
0.0
  0
SPLINE
  5
172
100
AcDbEntity
  8
Layer_1
 62
7
100
AcDbSpline
 70
8
 71
3
 72
8
 73
4
 74
0
 40
0
 40
0
 40
0
 40
0
 40
1
 40
1
 40
1
 40
1
 10
-30.290934
 20
-112.305450
 30
0.0
 10
-30.679418
 20
-112.065363
 30
0.0
 10
-30.708481
 20
-111.578953
 30
0.0
 10
-30.334481
 20
-111.578953
 30
0.0
  0
SPLINE
  5
173
100
AcDbEntity
  8
Layer_1
 62
7
100
AcDbSpline
 70
8
 71
3
 72
8
 73
4
 74
0
 40
0
 40
0
 40
0
 40
0
 40
1
 40
1
 40
1
 40
1
 10
-30.334481
 20
-111.578953
 30
0.0
 10
-29.952270
 20
-111.578953
 30
0.0
 10
-22.820640
 20
-106.913142
 30
0.0
 10
-22.561241
 20
-106.493450
 30
0.0
  0
SPLINE
  5
174
100
AcDbEntity
  8
Layer_1
 62
7
100
AcDbSpline
 70
8
 71
3
 72
8
 73
4
 74
0
 40
0
 40
0
 40
0
 40
0
 40
1
 40
1
 40
1
 40
1
 10
-22.561241
 20
-106.493450
 30
0.0
 10
-22.403860
 20
-106.238801
 30
0.0
 10
-22.650428
 20
-106.178941
 30
0.0
 10
-23.514844
 20
-106.261378
 30
0.0
  0
SPLINE
  5
175
100
AcDbEntity
  8
Layer_1
 62
7
100
AcDbSpline
 70
8
 71
3
 72
8
 73
4
 74
0
 40
0
 40
0
 40
0
 40
0
 40
1
 40
1
 40
1
 40
1
 10
-23.514844
 20
-106.261378
 30
0.0
 10
-24.156174
 20
-106.322536
 30
0.0
 10
-24.680664
 20
-106.301849
 30
0.0
 10
-24.680664
 20
-106.215630
 30
0.0
  0
SPLINE
  5
176
100
AcDbEntity
  8
Layer_1
 62
7
100
AcDbSpline
 70
8
 71
3
 72
8
 73
4
 74
0
 40
0
 40
0
 40
0
 40
0
 40
1
 40
1
 40
1
 40
1
 10
-24.680664
 20
-106.215630
 30
0.0
 10
-24.680664
 20
-105.999730
 30
0.0
 10
-21.180546
 20
-102.547842
 30
0.0
 10
-20.961615
 20
-102.547842
 30
0.0
  0
LWPOLYLINE
  5
177
100
AcDbEntity
  8
Layer_1
 62
7
100
AcDbPolyline
 90
2
 70
0
 10
-21.995694
 20
-101.136731
 30
0.0
 10
-21.995694
 20
-101.136731
 30
0.0
  0
SPLINE
  5
178
100
AcDbEntity
  8
Layer_1
 62
7
100
AcDbSpline
 70
8
 71
3
 72
8
 73
4
 74
0
 40
0
 40
0
 40
0
 40
0
 40
1
 40
1
 40
1
 40
1
 10
-32.298459
 20
-109.321175
 30
0.0
 10
-31.520048
 20
-109.321175
 30
0.0
 10
-31.478643
 20
-109.368137
 30
0.0
 10
-31.801813
 20
-109.885620
 30
0.0
  0
SPLINE
  5
179
100
AcDbEntity
  8
Layer_1
 62
7
100
AcDbSpline
 70
8
 71
3
 72
8
 73
4
 74
0
 40
0
 40
0
 40
0
 40
0
 40
1
 40
1
 40
1
 40
1
 10
-31.801813
 20
-109.885620
 30
0.0
 10
-32.211442
 20
-110.541532
 30
0.0
 10
-32.348122
 20
-110.571815
 30
0.0
 10
-32.808884
 20
-110.111059
 30
0.0
  0
SPLINE
  5
17a
100
AcDbEntity
  8
Layer_1
 62
7
100
AcDbSpline
 70
8
 71
3
 72
8
 73
4
 74
0
 40
0
 40
0
 40
0
 40
0
 40
1
 40
1
 40
1
 40
1
 10
-32.808884
 20
-110.111059
 30
0.0
 10
-33.358215
 20
-109.561742
 30
0.0
 10
-33.202595
 20
-109.321175
 30
0.0
 10
-32.298459
 20
-109.321175
 30
0.0
  0
LWPOLYLINE
  5
17b
100
AcDbEntity
  8
Layer_1
 62
7
100
AcDbPolyline
 90
2
 70
0
 10
-20.961615
 20
-102.547842
 30
0.0
 10
-20.961615
 20
-102.547842
 30
0.0
  0
LWPOLYLINE
  5
17c
100
AcDbEntity
  8
Layer_1
 62
7
100
AcDbPolyline
 90
2
 70
0
 10
-32.298459
 20
-109.321175
 30
0.0
 10
-32.298459
 20
-109.321175
 30
0.0
  0
ENDSEC
  0
SECTION
  2
OBJECTS
  0
DICTIONARY
  5
C
330
0
100
AcDbDictionary
  3
ACAD_GROUP
350
D
  3
ACAD_MLINESTYLE
350
17
  0
DICTIONARY
  5
D
330
C
100
AcDbDictionary
  0
DICTIONARY
  5
1A
330
C
100
AcDbDictionary
  0
DICTIONARY
  5
17
330
C
100
AcDbDictionary
  3
STANDARD
350
18
  0
DICTIONARY
  5
19
330
C
100
AcDbDictionary
  0
ENDSEC
  0
EOF
