<?xml version="1.0" encoding="UTF-8" standalone="no"?>
<!-- Created with Inkscape (http://www.inkscape.org/) -->

<svg
   xmlns:dc="http://purl.org/dc/elements/1.1/"
   xmlns:cc="http://creativecommons.org/ns#"
   xmlns:rdf="http://www.w3.org/1999/02/22-rdf-syntax-ns#"
   xmlns:svg="http://www.w3.org/2000/svg"
   xmlns="http://www.w3.org/2000/svg"
   xmlns:sodipodi="http://sodipodi.sourceforge.net/DTD/sodipodi-0.dtd"
   xmlns:inkscape="http://www.inkscape.org/namespaces/inkscape"
   width="210mm"
   height="297mm"
   viewBox="0 0 744.09448819 1052.3622047"
   id="svg2"
   version="1.1"
   inkscape:version="0.91 r13725"
   sodipodi:docname="coaster_skull.svg">
  <defs
     id="defs4" />
  <sodipodi:namedview
     id="base"
     pagecolor="#ffffff"
     bordercolor="#666666"
     borderopacity="1.0"
     inkscape:pageopacity="0.0"
     inkscape:pageshadow="2"
     inkscape:zoom="1.4"
     inkscape:cx="322.62903"
     inkscape:cy="535.23826"
     inkscape:document-units="mm"
     inkscape:current-layer="layer1"
     showgrid="false"
     inkscape:window-width="1440"
     inkscape:window-height="837"
     inkscape:window-x="-4"
     inkscape:window-y="-4"
     inkscape:window-maximized="1" />
  <metadata
     id="metadata7">
    <rdf:RDF>
      <cc:Work
         rdf:about="">
        <dc:format>image/svg+xml</dc:format>
        <dc:type
           rdf:resource="http://purl.org/dc/dcmitype/StillImage" />
        <dc:title></dc:title>
      </cc:Work>
    </rdf:RDF>
  </metadata>
  <g
     inkscape:label="Layer 1"
     inkscape:groupmode="layer"
     id="layer1">
    <text
       xml:space="preserve"
       style="font-style:normal;font-weight:normal;font-size:35px;line-height:125%;font-family:sans-serif;letter-spacing:0px;word-spacing:0px;fill:#000000;fill-opacity:1;stroke:none;stroke-width:1px;stroke-linecap:butt;stroke-linejoin:miter;stroke-opacity:1;"
       x="-624.27429"
       y="-147.69902"
       id="text4571"
       sodipodi:linespacing="125%"><tspan
         sodipodi:role="line"
         id="tspan4573"
         x="-624.27429"
         y="-147.69902" /></text>
    <path
       style="fill:#000000"
       d="m 338.37999,641.54192 c -26.95437,-5.09287 -50.91428,-21.66126 -60.633,-41.92799 -5.02606,-10.48098 -6.867,-20.4241 -6.867,-37.08935 0,-13.98007 -1.25752,-26.03738 -3.34418,-32.06455 -1.07288,-3.09895 -2.13462,-3.95064 -8.02067,-6.43392 -12.57676,-5.30603 -18.31914,-11.90469 -21.13545,-24.28706 -2.52319,-11.09363 -0.17802,-22.13199 7.26579,-34.19886 3.28473,-5.32476 3.68612,-6.68848 3.56663,-12.11767 -0.074,-3.36471 -1.63508,-11.91471 -3.46893,-19 -3.12126,-12.05934 -3.33111,-13.9045 -3.2847,-28.88233 0.0448,-14.47451 0.3081,-16.84409 2.76108,-24.85322 8.77621,-28.65492 29.56587,-54.03908 54.52425,-66.57408 28.64771,-14.38792 67.32726,-16.52984 98.36985,-5.44734 27.92975,9.97119 48.37802,28.87202 61.9426,57.25504 6.38891,13.36841 9.05448,25.22108 9.02254,40.1196 -0.0235,10.96269 -0.46781,14.25949 -3.6128,26.80658 -4.57492,18.25191 -4.69429,24.36219 -0.60573,31.00695 7.05121,11.45968 10.09177,24.68506 8.00137,34.80318 -2.96991,14.37517 -8.71996,20.37087 -26.05867,27.17195 -3.97368,1.55867 -5.8277,11.41568 -6.90511,36.71134 -1.15245,27.05754 -3.30947,34.84242 -13.31749,48.06386 -9.30823,12.29697 -29.26181,24.73992 -47.20038,29.43393 -10.14467,2.65457 -30.88394,3.41531 -41,1.50394 z m 38.29389,-4.50409 c 23.17212,-5.5552 43.625,-19.8111 52.37093,-36.50315 5.68592,-10.85188 6.92765,-17.32016 7.9658,-41.49449 0.50781,-11.825 1.02366,-22.625 1.14634,-24 0.12267,-1.375 -0.22696,-2.63906 -0.77696,-2.80902 -1.24056,-0.38335 -2.26885,3.09439 -2.40032,8.11804 -0.0667,2.54795 -0.47202,3.5789 -1.22431,3.11395 -0.7375,-0.4558 -0.95558,-3.05784 -0.63352,-7.55901 0.27011,-3.77518 0.14998,-6.86396 -0.26696,-6.86396 -0.86682,0 -1.53808,2.46721 -2.51667,9.25 -1.05321,7.29998 -2.82418,5.89781 -2.21028,-1.75 0.55777,-6.94871 -0.75443,-8.99602 -1.7626,-2.75 -0.3329,2.0625 -0.98179,5.325 -1.44196,7.25 l -0.83668,3.5 -0.22183,-4 c -0.12201,-2.2 -0.13995,-4.601 -0.0399,-5.33555 0.10785,-0.79157 -0.55668,-1.19449 -1.63152,-0.98922 -1.59144,0.30393 -1.88429,1.8143 -2.39181,12.33555 -0.62476,12.95171 -1.94364,17.30045 -7.85069,25.88606 -1.68904,2.45493 -3.07098,5.022 -3.07098,5.70459 0,1.93902 -3.11447,4.89857 -5.15499,4.89857 -1.01475,0 -2.78718,0.94217 -3.93872,2.09371 -1.64548,1.64548 -2.82294,1.95691 -5.5,1.45469 -1.87343,-0.35147 -3.40626,-0.24087 -3.40626,0.24577 0,0.48664 -1.125,1.39738 -2.5,2.02388 -1.5208,0.69292 -2.5,0.75579 -2.5,0.16051 0,-0.53821 0.64948,-0.97856 1.4433,-0.97856 0.79381,0 2.08552,-0.91691 2.87047,-2.03758 1.26373,-1.80423 1.74176,-1.89424 4.17421,-0.78595 2.48272,1.13121 2.9522,1.0132 4.87952,-1.22655 1.18447,-1.37648 2.93184,-2.32405 3.93054,-2.13148 2.02422,0.39032 4.70196,-1.45534 4.70196,-3.24088 0,-0.69238 -1.53272,-1.17756 -3.72,-1.17756 -2.72787,0 -4.2935,0.66674 -5.87036,2.49995 -2.10616,2.44855 -2.20563,2.46374 -4.83804,0.73892 -2.63841,-1.72875 -2.72459,-1.71409 -4.70222,0.80005 -2.04542,2.60033 -5.21218,3.26286 -7.79184,1.63016 -1.00523,-0.63621 -1.97982,-0.19174 -3.32258,1.51531 -2.21955,2.8217 -7.75845,3.32126 -9.78261,0.8823 -1.13121,-1.36303 -1.51289,-1.3075 -3.43689,0.5 -2.52835,2.37526 -4.43449,2.55885 -7.01052,0.6752 -1.58051,-1.15569 -2.27058,-1.12093 -4.63005,0.23322 -2.61808,1.50257 -2.94345,1.4651 -5.83381,-0.67183 -1.68359,-1.24473 -3.06108,-1.87191 -3.06108,-1.39373 0,0.47818 -1.12322,1.38119 -2.49604,2.00669 -3.07193,1.39967 -6.92324,0.13737 -8.48515,-2.78109 -0.87781,-1.64021 -1.48882,-1.85398 -2.99506,-1.04786 -3.1606,1.6915 -5.77152,1.14883 -7.97985,-1.65861 -1.60573,-2.04135 -2.37749,-2.39509 -3.27258,-1.5 -1.73221,1.73221 -5.47107,1.42155 -6.96462,-0.57868 -0.8045,-1.07744 -2.71006,-1.77726 -4.95823,-1.82092 -3.28285,-0.0638 -3.57476,0.13817 -2.89115,2 0.4182,1.13901 1.83639,2.22287 3.15153,2.40858 1.31513,0.18572 3.419,1.29108 4.67526,2.45636 1.98332,1.83969 2.68214,1.96846 5.30653,0.97787 2.4852,-0.93806 3.12356,-0.87727 3.59144,0.342 0.31295,0.81556 1.97502,2.13143 3.69347,2.92416 2.38364,1.0996 2.5317,1.29719 0.62445,0.83336 -1.375,-0.33438 -3.2142,-1.23315 -4.08711,-1.99727 -1.01159,-0.8855 -2.68655,-1.16941 -4.619,-0.78292 -2.27489,0.45498 -3.50154,0.10609 -4.91289,-1.39734 -1.03455,-1.10204 -2.99096,-2.159 -4.34758,-2.3488 -1.53511,-0.21476 -3.04073,-1.478 -3.98694,-3.34508 -0.83619,-1.65 -3.14521,-5.7 -5.13116,-9 -5.11481,-8.49916 -6.22377,-12.52934 -6.85713,-24.92025 -0.63957,-12.51227 -2.40851,-15.33976 -3.68288,-5.88673 l -0.78285,5.80698 -1.04623,-7.41975 c -1.39132,-9.86709 -3.24023,-10.4396 -2.71715,-0.84136 0.47721,8.75655 -0.82908,8.21781 -2.33128,-0.96145 -1.54735,-9.4552 -3.04088,-8.93459 -2.7826,0.96995 0.22707,8.70792 -0.93229,7.88978 -2.2068,-1.5573 -0.41177,-3.05214 -1.08005,-4.65967 -1.82866,-4.3988 -0.64886,0.22612 -1.0662,1.49058 -0.92743,2.80992 0.13876,1.31933 0.68778,12.07379 1.22004,23.89879 1.4948,33.20957 4.33661,41.62526 18.91012,56 12.28167,12.11416 26.6917,19.95295 43.11753,23.45513 10.14361,2.16273 30.83208,1.93072 40.79389,-0.45749 z m -42.23625,-4.90438 c -0.30822,-0.49871 0.33942,-0.67143 1.43921,-0.38383 2.76608,0.72334 7.00315,-2.27454 7.00315,-4.95499 l 0,-2.19945 -1.46941,2.09787 c -1.73689,2.47976 -4.76382,3.47039 -6.66989,2.18287 -1.10874,-0.74893 -1.08294,-0.8751 0.1393,-0.68138 4.65646,0.73804 7.77531,-2.92913 6.57124,-7.72652 -0.74054,-2.95057 -2.90437,-3.09755 -6.29837,-0.42783 -1.66535,1.30996 -3.96238,1.97276 -6.65773,1.92105 -2.26333,-0.0434 -3.54061,-0.30993 -2.8384,-0.59224 0.7022,-0.28232 2.17385,-2.27179 3.27032,-4.42106 1.09647,-2.14926 2.43444,-3.90775 2.97326,-3.90775 0.53883,0 0.97968,-0.45 0.97968,-1 0,-2.56131 -4.51252,-0.53463 -8.90624,4 -4.20686,4.34177 -5.36568,5 -8.80253,5 -4.79361,0 -5.91582,-0.87422 -3.39169,-2.64219 1.03775,-0.72687 3.48841,-3.55087 5.4459,-6.27556 2.99458,-4.16823 3.28909,-5.01133 1.85682,-5.31552 -0.93624,-0.19884 -3.99416,1.13914 -6.79537,2.97328 -2.80121,1.83415 -6.85121,3.55085 -9,3.81489 l -3.90689,0.48009 4.5,-1.51564 c 5.27213,-1.77571 10.51216,-5.46152 7.8151,-5.49711 -0.9267,-0.0122 -2.8392,0.41662 -4.25,0.95301 -3.72033,1.41447 -3.15233,0.18344 0.6849,-1.48438 2.92983,-1.27343 3.01237,-1.41644 0.83786,-1.45173 -1.32668,-0.0215 -4.39951,1.12553 -6.82851,2.54902 -5.5301,3.24085 -6.58905,2.70577 -1.21646,-0.61467 2.17641,-1.34509 3.95711,-2.73597 3.95711,-3.09084 0,-0.96256 -8.35459,-2.88265 -12.54282,-2.88265 -2.82581,0 -4.43008,-0.7729 -7.05718,-3.4 -1.87,-1.87 -3.38803,-4.0075 -3.37339,-4.75 0.0146,-0.7425 0.79232,-0.11505 1.72818,1.39434 1.89895,3.06268 6.82044,5.77227 10.39634,5.72386 2.30251,-0.0312 2.3094,-0.0599 0.34887,-1.45404 -1.1,-0.78223 -2.675,-2.0546 -3.5,-2.82749 -0.825,-0.77289 -3.40903,-2.48108 -5.7423,-3.79596 -2.33326,-1.31489 -4.24576,-2.99321 -4.25,-3.7296 -0.005,-0.84479 1.12773,-0.3835 3.06902,1.25 3.68333,3.09931 5.42057,3.38661 3.95846,0.65463 -2.14715,-4.01199 -0.92082,-3.27697 1.86705,1.11904 4.20678,6.6334 5.0447,6.74301 4.43834,0.58056 -0.28495,-2.89594 -0.0611,-6.39034 0.49756,-7.76534 0.81855,-2.01484 0.93557,-1.43266 0.603,3 -0.30148,4.01825 -0.17393,4.82648 0.47343,3 0.77554,-2.18812 0.89852,-1.96244 0.98576,1.80902 0.056,2.41891 0.51298,4.05358 1.0419,3.72669 1.60314,-0.9908 2.40315,-9.46835 1.1667,-12.36327 -1.0866,-2.54408 -1.0654,-2.57638 0.44136,-0.67244 1.28042,1.61793 1.45614,3.46393 0.91985,9.66322 -0.60927,7.04296 -0.49857,7.75119 1.36773,8.75 3.20407,1.71477 4.39908,1.39802 3.19732,-0.84748 -1.52056,-2.8412 -1.26056,-3.74598 0.43302,-1.50687 0.8075,1.06762 1.48251,1.51762 1.5,1 0.0175,-0.51762 0.74354,-0.0676 1.61343,1 1.5596,1.91407 1.57256,1.91325 0.92997,-0.0589 -0.35841,-1.1 -0.90853,-3.35 -1.22248,-5 -0.31395,-1.65 -1.05776,-3.9 -1.65291,-5 -0.98535,-1.82119 -1.14227,-1.68708 -1.75511,1.5 -0.66216,3.44355 -0.67154,3.43145 -0.58155,-0.75 0.0503,-2.3375 0.35646,-4.25 0.68035,-4.25 1.05498,0 3.79455,5.39968 4.97351,9.80275 1.31723,4.91955 4.13486,8.19728 7.04659,8.19728 2.10908,0 2.69104,-1.45488 1,-2.5 -0.55,-0.33992 -0.99832,-1.37898 -0.99626,-2.30902 0.002,-1.08621 0.6887,-0.56766 1.91895,1.44991 1.98611,3.25717 4.07731,5.11286 4.07731,3.61813 0,-0.47246 -0.5625,-1.49958 -1.25,-2.28249 -0.6875,-0.7829 -0.2375,-0.57816 1,0.45499 1.2375,1.03315 2.25,1.56926 2.25,1.19135 0,-1.71799 -3.30726,-8.33664 -5.29773,-10.60207 l -2.20227,-2.50649 2.35641,1.99284 c 1.29602,1.09607 3.25992,3.79285 4.36422,5.99285 2.4477,4.87636 6.5798,10.5 7.71511,10.5 0.45867,0 0.59507,-2.976 0.3031,-6.61332 -0.52333,-6.51962 -0.50045,-6.59705 1.61515,-5.46482 3.24453,1.73642 5.01321,5.07788 5.51158,10.41271 0.24734,2.64773 0.70813,5.07246 1.02396,5.38829 1.12064,1.12064 8.64026,-5.05238 11.60279,-9.52499 1.65423,-2.49742 3.006,-4.12611 3.00394,-3.61931 -0.007,1.83911 -3.76502,7.00042 -7.58705,10.42144 l -3.91028,3.5 5.23238,5.25359 c 2.87781,2.88947 5.51434,6.37697 5.85895,7.75 0.85186,3.39408 1.77654,3.13639 3.23686,-0.90205 0.6759,-1.86915 3.27508,-5.28456 5.77597,-7.5898 l 4.54708,-4.19135 -4.10131,-3.51056 c -2.25572,-1.93081 -4.74988,-4.76478 -5.54259,-6.29771 -0.99951,-1.93283 0.38864,-0.95721 4.52872,3.18287 3.28351,3.28351 6.53138,5.78477 7.21751,5.55836 0.68612,-0.22641 1.51255,-2.62603 1.83651,-5.3325 0.67137,-5.60899 1.69806,-8.42085 3.07468,-8.42085 0.52235,0 0.2492,1.00013 -0.60699,2.22251 -0.85618,1.22237 -1.54981,3.58487 -1.54139,5.25 0.0118,2.32237 0.24109,2.67813 0.98469,1.52749 0.86167,-1.33333 0.97461,-1.33333 1.01649,0 0.0355,1.12956 0.42289,1.00608 1.5687,-0.5 0.93174,-1.22469 1.42367,-3.63492 1.269,-6.21747 -0.13892,-2.31961 0.11426,-4.56961 0.56262,-5 0.44837,-0.43039 0.62918,2.25497 0.40181,5.96747 -0.22737,3.7125 -0.13877,6.75 0.1969,6.75 1.39782,0 5.88845,-5.81521 7.72222,-10 1.08455,-2.475 3.04973,-5.4 4.36708,-6.5 2.39518,-2 2.39518,-2 0.76169,0 -1.73758,2.12745 -5.86651,9.95044 -5.86651,11.11515 0,0.38215 0.96548,-0.16242 2.14551,-1.21016 2.13265,-1.89358 2.13851,-1.89164 0.97686,0.3225 -0.93015,1.77291 -0.90443,2.12611 0.126,1.73069 2.17119,-0.83316 3.98083,-4.59976 4.76051,-9.9086 l 0.74161,-5.04958 0.12475,4.29966 c 0.0686,2.36481 -0.5618,5.62731 -1.40092,7.25 -1.48232,2.86649 -1.4583,2.95034 0.84501,2.95034 3.22569,0 5.39335,-2.66949 7.25323,-8.93238 1.79999,-6.06124 2.76248,-6.43322 1.39604,-0.53955 -0.97738,4.2156 -1.18012,7.88274 -0.31834,5.75799 0.37438,-0.92303 0.93104,-0.93998 2.32296,-0.0707 1.44578,0.9029 2.39769,0.77164 4.52837,-0.62443 2.19408,-1.43762 2.57802,-2.26461 2.05638,-4.42929 -1.27761,-5.30173 -1.76822,-11.91364 -0.92271,-12.4353 0.47561,-0.29345 0.89535,1.56672 0.93277,4.1337 0.0374,2.56698 0.56828,5.5611 1.17968,6.6536 1.06057,1.89509 1.1597,1.85999 2.15722,-0.76363 1.40199,-3.68745 2.49481,-3.49868 1.73513,0.29971 -0.76229,3.81143 0.4474,3.17229 4.54156,-2.39955 2.10115,-2.85949 2.82477,-3.41148 2.32682,-1.77493 -0.81207,2.66893 0.2924,2.35689 4.24156,-1.19831 1.78572,-1.60758 2.25,-1.71285 2.25,-0.51016 0,0.83346 -2.28038,2.75652 -5.06751,4.27347 -2.78713,1.51694 -4.80464,3.02096 -4.48335,3.34225 0.32129,0.32128 -0.88583,1.25483 -2.68249,2.07454 -3.08351,1.40682 -3.13518,1.51327 -0.92171,1.89867 3.18648,0.55482 7.80683,-1.49753 10.18895,-4.52591 2.33711,-2.97115 2.61943,-2.15651 0.41736,1.20428 -1.91166,2.91755 -5.43953,4.38621 -11.95125,4.9753 -5.63041,0.50936 -9.50607,1.51315 -9.48762,2.45727 0.0171,0.87556 6.04682,4.7 8.77566,5.5661 1.23255,0.39119 1.95322,1.17691 1.60148,1.74603 -0.35174,0.56912 -0.92077,0.64922 -1.26452,0.178 -1.6436,-2.25308 -12.21467,-7.25958 -13.93472,-6.59954 -0.91586,0.35145 -0.32785,0.98604 1.7061,1.84126 3.96231,1.66602 4.05793,2.63015 0.12487,1.25908 -4.7847,-1.66795 -5.70176,-0.44126 -1.57624,2.10846 2.32794,1.43874 5.46659,2.38399 8.10514,2.44098 2.90734,0.0628 3.81537,0.36774 2.7955,0.93883 -2.41781,1.35386 -7.52683,-0.097 -13.19023,-3.7457 -3.06035,-1.97167 -6.03698,-3.18236 -7.12483,-2.89788 -1.64224,0.42946 -1.32481,1.20346 2.62201,6.39318 2.46975,3.24751 4.90827,5.90457 5.41893,5.90457 0.51066,0 0.92847,0.45 0.92847,1 0,1.49896 -6.71448,1.20389 -9.79966,-0.43065 -1.48519,-0.78685 -3.95702,-3.03685 -5.49297,-5 -1.85154,-2.36651 -3.62075,-3.56935 -5.25,-3.56935 -2.87026,0 -2.99867,0.38349 -0.92085,2.75 0.84508,0.9625 2.68508,3.2125 4.08889,5 l 2.55238,3.25 -3.68117,0 c -2.16697,0 -4.72702,-0.82267 -6.22375,-2 -4.38987,-3.45307 -6.50944,-2.29076 -7.68063,4.21184 -0.90405,5.01939 2.08667,8.28954 6.76193,7.39372 2.25315,-0.43172 2.72018,-0.32374 1.64583,0.38052 -2.31537,1.51779 -4.48645,1.20572 -7.36514,-1.05866 -3.24381,-2.55158 -3.49048,-7.01184 -0.64582,-11.67742 1.58252,-2.59552 1.68946,-3.25 0.53106,-3.25 -2.721,0 -8.2613,5.97336 -10.643,11.47493 -2.62085,6.05399 -3.38078,6.63871 -4.23009,3.2548 -0.96365,-3.83951 -6.34308,-11.13059 -9.64845,-13.07716 -3.90432,-2.2993 -4.59523,-1.70709 -2.5723,2.20484 2.40243,4.64579 2.01887,8.64729 -1.06112,11.07001 -2.76296,2.17335 -5.85731,2.70328 -6.8075,1.16584 z m 0.94236,-13.62426 c 3.07636,-2.52166 2.07998,-3.29678 -1.81574,-1.41254 -2.14824,1.03904 -2.1468,1.02374 0.0872,-0.9277 1.33728,-1.16812 1.85138,-2.2438 1.25,-2.61548 -1.44926,-0.89569 -2.52626,-0.0178 -4.88711,3.98353 l -2.06694,3.50319 2.21627,-0.036 c 1.21896,-0.0197 3.56628,-1.14251 5.21628,-2.495 z m 46.09162,-0.29183 c -1.84321,-3.56437 -4.19163,-5.54241 -5.56931,-4.69096 -0.68724,0.42474 -0.42912,1.25378 0.72735,2.33609 0.98596,0.92274 1.35563,1.3402 0.8215,0.9277 -0.53414,-0.4125 -1.66866,-0.73578 -2.52116,-0.7184 -2.3464,0.0478 3.62697,4.9684 6.03144,4.9684 1.83941,0 1.87321,-0.18702 0.51018,-2.82283 z m -62.62336,0.83982 c 2.46286,-1.31809 8.49965,-9.01699 7.07031,-9.01699 -0.62121,0 -2.23403,1.10455 -3.58403,2.45455 -1.34999,1.35 -2.45454,2.05766 -2.45454,1.57258 0,-0.48509 1.125,-1.76689 2.5,-2.84847 2.82924,-2.22548 3.15192,-3.17866 1.07606,-3.17866 -0.78317,0 -2.47067,1.35741 -3.75,3.01646 -1.27933,1.65905 -3.37856,4.35905 -4.66495,6 l -2.3389,2.98354 2.15464,0 c 1.18505,0 2.98118,-0.44236 3.99141,-0.98301 z m 79.03174,0.49444 c 0,-0.26871 -0.7875,-1.45794 -1.75,-2.64274 -5.56651,-6.85212 -7.62219,-8.86869 -9.04068,-8.86869 -1.15832,0 -0.79486,0.84617 1.35359,3.15135 l 2.93709,3.15134 -3.2377,-2.33031 c -4.86069,-3.49844 -4.83937,-1.86973 0.0442,3.37437 3.07524,3.3023 5.11141,4.65325 7.01342,4.65325 1.47403,0 2.68008,-0.21986 2.68008,-0.48857 z M 336.9445,608.54019 c 0.687,1.72848 0.80446,1.61992 0.8652,-0.79966 0.0786,-3.13002 -2.45383,-8.70034 -3.95539,-8.70034 -1.33717,0 -1.22636,5.25677 0.18307,8.6849 1.02652,2.4968 1.21137,2.58896 1.63479,0.8151 0.4774,-2 0.4774,-2 1.27233,0 z m 33.37819,19.08176 c -1.06675,-0.78003 -1.71526,-1.64129 -1.44113,-1.91392 0.27414,-0.27262 1.56078,0.36558 2.85921,1.41824 2.71559,2.20156 1.49725,2.62742 -1.41808,0.49568 z m -16.53107,-5.33176 c -0.57138,-1.5125 -2.24774,-4.09297 -3.72525,-5.73437 -2.30323,-2.55871 -2.34504,-2.70134 -0.2932,-1 1.31625,1.0914 3.20775,3.3064 4.20333,4.9222 l 1.81016,2.93784 0.9319,-2.43784 c 0.51255,-1.3408 1.88196,-3.29364 3.04314,-4.33962 1.74558,-1.57242 1.89535,-2.17859 0.86476,-3.5 -1.10922,-1.42223 -1.05011,-1.44405 0.53684,-0.19812 1.7058,1.33923 1.70001,1.49137 -0.13303,3.5 -1.05398,1.15495 -2.65553,3.56241 -3.55899,5.34991 -1.99892,3.95489 -2.35617,4.00343 -3.67966,0.5 z m 51.81958,-23.33016 c 0.35361,-1.3522 0.8069,-1.8055 1.05655,-1.05655 0.24048,0.72144 -0.0382,1.78716 -0.61931,2.36826 -0.74207,0.74207 -0.87221,0.35164 -0.43724,-1.31171 z m -89.49921,-4.91984 c 0,-1.925 0.2058,-2.7125 0.45733,-1.75 0.25152,0.9625 0.25152,2.5375 0,3.5 -0.25153,0.9625 -0.45733,0.175 -0.45733,-1.75 z m 89.90418,-1.80902 c -0.0971,-2.35919 -0.49498,-3.09345 -1.38618,-2.55804 -0.72087,0.43308 -0.61504,-0.0351 0.25,-1.106 1.44607,-1.79021 1.51149,-1.77913 1.81955,0.30804 0.17575,1.19076 0.12454,3.17752 -0.11382,4.41502 -0.30748,1.59641 -0.47292,1.28879 -0.56955,-1.05902 z m -59.30523,0.2114 c -1.25176,-1.25176 -2.04162,-1.36 -3.64854,-0.5 -3.01122,1.61155 -4.49768,1.37289 -8.54169,-1.37145 -2.03745,-1.38265 -4.40891,-2.22944 -5.38954,-1.92449 -1.61487,0.50218 -1.61998,0.45979 -0.0656,-0.54455 1.32161,-0.85397 2.48525,-0.54641 5.38954,1.4245 4.42655,3.00393 6.98845,3.18538 8.59748,0.6089 1.14664,-1.83606 1.25769,-1.81804 3.08106,0.5 2.08126,2.6459 6.43192,3.22016 8.74815,1.15471 1.19253,-1.06341 1.20411,-0.98877 0.0776,0.5 -1.65471,2.18676 -6.1313,2.26946 -8.24838,0.15238 z m 10.78088,0.77856 c -0.27841,-0.45048 0.75473,-0.63399 2.29588,-0.40779 2.09604,0.30763 3.29696,-0.21789 4.76615,-2.08566 1.88793,-2.40011 2.01018,-2.42307 3.15358,-0.5922 1.60339,2.56744 4.16861,2.39661 8.5381,-0.56861 2.9253,-1.98516 4.13705,-2.28609 6.13955,-1.52475 1.3722,0.52171 2.49491,1.17357 2.49491,1.44857 0,0.275 -1.12271,0.0731 -2.49491,-0.44857 -2.0025,-0.76134 -3.21425,-0.46041 -6.13955,1.52475 -3.96658,2.6918 -6.34715,3.09171 -8.08127,1.35759 -0.82097,-0.82097 -1.72514,-0.68888 -3.42251,0.5 -2.45584,1.72014 -6.41061,2.15472 -7.24993,0.79667 z m 56.46712,-3.76427 c 0.048,-1.16495 0.28494,-1.4019 0.60416,-0.60417 0.28887,0.72187 0.25335,1.58438 -0.0789,1.91667 -0.3323,0.33229 -0.56864,-0.25834 -0.52522,-1.3125 z m 2,-2 c 0.048,-1.16495 0.28494,-1.4019 0.60416,-0.60417 0.28887,0.72187 0.25335,1.58438 -0.0789,1.91667 -0.3323,0.33229 -0.56864,-0.25834 -0.52522,-1.3125 z m 6.16502,-5.73434 c -2.78783,-6.40393 -2.8568,-11.56076 -0.22365,-16.72217 1.11118,-2.17809 2.24533,-3.96016 2.52033,-3.96016 0.275,0 -0.40915,1.78207 -1.52033,3.96016 -2.43968,4.78218 -2.47671,8.14007 -0.15289,13.86552 l 1.75568,4.32567 2.89355,-4.1754 c 1.87475,-2.70526 2.8372,-5.28459 2.7335,-7.32567 -0.14428,-2.83953 -0.0687,-2.92735 0.76635,-0.89032 1.1339,2.76613 -0.22323,6.75622 -3.48289,10.24004 -1.28653,1.375 -2.4954,3.25705 -2.68638,4.18233 -0.21046,1.01964 -1.23591,-0.35904 -2.60327,-3.5 z m -136.19977,4.10469 c -0.0243,-0.39214 0.8558,-2.9963 1.9558,-5.78702 2.3876,-6.05739 2.51484,-9.78417 0.50468,-14.78212 -1.33835,-3.32761 -1.3362,-3.51118 0.0204,-1.74878 2.33374,3.0317 3.55617,8.76061 2.58896,12.13309 -0.91313,3.18388 -4.99551,11.38491 -5.0699,10.18483 z m -3.44321,-6.06573 c -1.88749,-2.47462 -2.55709,-4.48146 -2.44095,-7.31568 l 0.16003,-3.90561 0.41571,3.41602 c 0.22863,1.87882 1.56937,4.92856 2.97941,6.77722 1.41004,1.84866 2.3214,3.6035 2.02525,3.89966 -0.29616,0.29615 -1.70891,-0.99607 -3.13945,-2.87161 z m 70.67009,6.02871 c 1.12921,-0.85373 1.76389,-3.1521 2.00205,-7.25 l 0.3487,-6 0.18909,6.21482 c 0.15219,5.0023 0.56645,6.41678 2.12334,7.25 2.74787,1.47061 3.79721,1.30371 6.06574,-0.96482 1.61905,-1.61905 2,-3.33333 2,-9 l 0,-7 -5,0 c -3.29123,0 -5.02698,0.42719 -5.07895,1.25 -0.0632,1 -0.17982,1 -0.58333,0 -0.30752,-0.76212 -2.42339,-1.25 -5.42105,-1.25 l -4.91667,0 0,6.06574 c 0,9.63366 3.5667,14.24098 8.27108,10.68426 z m -10.74359,-1.12851 c 1.71069,-1.19554 1.92843,-2.32379 1.64045,-8.5 l -0.33206,-7.12149 -6.05683,0 -6.05683,0 0.5473,6.03575 c 0.87466,9.64579 4.85279,13.36322 10.25797,9.58574 z m 33.84164,-0.47689 c 1.03381,-1.14234 1.91952,-4.42989 2.30467,-8.55437 l 0.62556,-6.69897 -5.70144,0.30437 -5.70143,0.30437 -0.42306,7.2144 c -0.35541,6.06068 -0.14723,7.37515 1.30175,8.21959 2.68312,1.56367 5.75329,1.24453 7.59395,-0.78939 z m -46.84164,-2.52393 c 1.67224,-1.16936 1.92093,-2.31106 1.63369,-7.5 l -0.33882,-6.12067 -3.32939,0 c -1.83117,0 -4.0412,-0.27314 -4.91118,-0.60699 -1.32742,-0.50937 -1.58179,0.30201 -1.58179,5.04546 0,4.66802 0.42748,6.07992 2.45454,8.10698 2.84224,2.84224 3.40384,2.94167 6.07295,1.07522 z m 59.08046,-1.37067 c 0.73065,-0.9625 1.34275,-4.24569 1.36025,-7.29597 l 0.0318,-5.54597 -4.75,0.54597 -4.75,0.54597 -0.3068,5.3808 c -0.16873,2.95944 -0.0704,5.99694 0.21862,6.75 0.7613,1.98393 6.60723,1.71232 8.19613,-0.3808 z m 9.83535,-1.47251 c 0.85618,-1.22237 1.58833,-3.35987 1.62699,-4.75 0.0386,-1.39012 0.48018,-3.42749 0.98118,-4.52749 0.70923,-1.55721 0.86243,-1.13684 0.69197,1.89875 -0.29856,5.31703 2.46378,7.22029 5.35845,3.692 1.75374,-2.13761 1.90691,-3.37784 1.35847,-11 -0.77333,-10.74753 -0.88872,-11.09075 -3.72898,-11.09075 -2.85537,0 -4.71041,1.72165 -4.79477,4.45 -0.057,1.84301 -0.16065,1.80673 -1.02669,-0.35928 -0.52982,-1.3251 -1.7388,-3.06007 -2.68662,-3.85549 -1.23488,-1.03632 -0.97012,-1.00184 0.93414,0.12168 2.30764,1.36152 2.7313,1.3754 3.21861,0.10549 0.3488,-0.90895 1.92538,-1.4624 4.16589,-1.4624 2.89282,0 3.53917,-0.34561 3.27283,-1.75 -0.38581,-2.03441 -5.27131,-2.94592 -7.20188,-1.34369 -0.88959,0.73829 -2.1951,0.7002 -4.38943,-0.12807 -2.66585,-1.00624 -3.41454,-0.91529 -5.11214,0.62102 -1.8385,1.66382 -2.16155,1.67897 -4.27261,0.20032 -3.04964,-2.13605 -5.15214,-2.01571 -7.35742,0.4211 l -1.82869,2.02067 -2.63102,-2.52067 c -3.13359,-3.00217 -5.46202,-3.19706 -7.65109,-0.64041 -1.57577,1.84037 -1.64985,1.84037 -3.49022,0 -2.03707,-2.03707 -6.36511,-2.52284 -7.41028,-0.83171 -0.44287,0.71658 -1.09554,0.67717 -2.0615,-0.12451 -0.8377,-0.69522 -2.73629,-0.91924 -4.66097,-0.54995 -2.30965,0.44316 -2.81433,0.33914 -1.74752,-0.36018 2.00859,-1.31669 5.72047,-1.27522 6.55385,0.0732 0.48382,0.78285 0.97617,0.78285 1.75902,0 1.52962,-1.52962 4.86576,-1.35074 7.35743,0.39449 1.86862,1.30883 2.25872,1.30883 3.34495,0 1.73569,-2.09137 5.62767,-1.8387 7.98475,0.51838 2.14326,2.14326 4,2.61629 4,1.01905 0,-1.92266 4.95003,-2.28181 7.59185,-0.55083 2.35068,1.54023 2.73062,1.54992 4.32145,0.11024 2.07275,-1.87581 5.21658,-2.04858 6.8867,-0.37846 0.93333,0.93333 1.46667,0.93333 2.4,0 0.66,-0.66 2.67643,-1.2 4.48095,-1.2 2.75232,0 3.38744,-0.44308 3.9419,-2.75 1.03933,-4.32433 3.94361,-9.52699 6.81393,-12.20635 l 2.63142,-2.45635 -6.2841,-1.28696 c -3.45626,-0.70784 -7.81165,-1.0027 -9.67866,-0.65525 -2.41012,0.44853 -3.19052,0.30159 -2.69098,-0.50668 0.38696,-0.62613 2.13952,-1.14857 3.89456,-1.161 3.15049,-0.0223 3.1212,-0.0664 -2.30902,-3.47741 -6.86445,-4.31191 -4.9963,-4.62735 2.20599,-0.37249 10.75543,6.35393 17.03613,7.37257 20.79401,3.37249 2.5583,-2.72319 1.66905,-3.32062 -1.44113,-0.9682 -2.95542,2.23537 -4.10349,1.75106 -1.41965,-0.59887 l 2.36078,-2.06706 -2.5,0.43847 c -1.375,0.24116 -3.175,0.64758 -4,0.90317 -0.825,0.25558 -1.1625,0.27595 -0.75,0.0453 1.85009,-1.03466 0.53758,-2.41627 -1.75,-1.84213 -1.375,0.34511 -2.5,0.19545 -2.5,-0.33257 0,-1.73942 1.92186,-2.19026 4.18153,-0.98092 1.57275,0.84171 2.32931,0.87032 2.58681,0.0978 0.26203,-0.78608 1.04667,-0.78075 2.80203,0.019 1.34094,0.61097 2.77368,0.75116 3.18386,0.31152 0.41017,-0.43964 0.12765,-1.01878 -0.62783,-1.28698 -0.75548,-0.26819 -2.57716,-1.66909 -4.04817,-3.11309 -1.47102,-1.44401 -1.7529,-1.90491 -0.6264,-1.02424 3.54157,2.76876 4.8513,3.30788 4.34359,1.78797 -0.29237,-0.87529 0.67696,-1.75913 2.62027,-2.3892 5.62373,-1.82334 2.39134,-4.19543 -5.99621,-4.40032 -3.89639,-0.0952 -8.67579,1.80098 -15.91948,6.31586 l -3,1.86985 3,-2.62006 c 7.2203,-6.30588 18.2196,-8.62505 24.75,-5.21847 2.91335,1.51974 3.57544,0.87971 1.5,-1.45001 -0.6875,-0.77173 0.70577,0.30119 3.09616,2.38427 4.855,4.23085 7.91309,4.31692 11.25252,0.31671 2.39035,-2.86333 2.392,-2.85355 -1.03207,-6.13401 -2.25239,-2.15793 -3.58728,-2.68751 -5.75,-2.28116 -1.54914,0.29107 -4.61661,0.80571 -6.81661,1.14365 l -4,0.61443 4.5,-1.50519 c 2.475,-0.82785 5.5125,-1.51202 6.75,-1.52037 1.41813,-0.01 2.25,-0.62523 2.25,-1.66522 0,-0.97899 1.22261,0.0377 3.00627,2.5 3.41897,4.71975 4.11577,4.91139 7.94463,2.185 1.51781,-1.08077 4.73727,-2.26721 7.15437,-2.63652 5.60101,-0.85575 6.89473,-1.92088 6.89473,-5.67645 0,-2.93882 -4.17047,-9.72195 -5.97734,-9.72195 -1.73662,0 -6.2274,10.77492 -5.49654,13.18806 0.51537,1.70164 0.0764,1.41263 -1.66296,-1.09484 -1.71765,-2.47621 -3.68949,-3.79037 -7.21877,-4.81106 -2.67059,-0.77235 -4.66578,-1.5941 -4.43377,-1.82611 0.23201,-0.23202 1.96704,0.0277 3.85561,0.57723 6.59651,1.91929 8.93377,2.07716 8.93377,0.60343 0,-0.7655 0.68635,-1.96144 1.52523,-2.65765 1.35985,-1.12857 1.33562,-1.49424 -0.22347,-3.37244 -0.96178,-1.15864 -1.10813,-1.54412 -0.32523,-0.85662 3.25605,2.85926 4.32126,-0.58802 1.27347,-4.12125 -1.55839,-1.8066 -1.43218,-1.78632 1.15266,0.18526 3.17712,2.42334 4.22008,2.25122 3.15633,-0.52088 -0.797,-2.07696 -0.78815,-2.3238 0.0792,-2.20772 0.351,0.047 1.01325,-0.51552 1.47166,-1.25 0.47791,-0.76574 0.57644,0.2643 0.23096,2.41459 -0.3981,2.47779 -0.21886,3.75 0.52834,3.75 0.62196,0 1.13084,-0.525 1.13084,-1.16667 0,-0.64166 0.25618,-0.91048 0.56929,-0.59738 0.31311,0.31311 -0.007,1.49265 -0.71215,2.62119 -1.53295,2.45465 -0.50272,3.92353 1.55442,2.21626 4.19818,-3.48418 2.20646,-10.49956 -5.25183,-18.49836 l -3.65973,-3.92495 3.94431,3.14731 c 2.16937,1.73102 4.12618,2.96544 4.34847,2.74315 0.22229,-0.22228 -2.05757,-4.59735 -5.06634,-9.72235 -12.86147,-21.90761 -15.21265,-29.27904 -14.45463,-45.3182 0.46237,-9.7836 3.71105,-21.88286 6.6701,-24.84191 0.60702,-0.60702 0.14254,1.58409 -1.03218,4.86912 -2.67878,7.49105 -3.73673,25.19951 -1.97563,33.06894 1.30001,5.80903 4.57925,9.40385 8.57831,9.40385 2.89076,0 4.13647,-1.5789 5.03384,-6.38029 l 0.72522,-3.88029 -3.06355,2.26498 c -5.47982,4.0514 -8.55965,0.41744 -3.45792,-4.08009 l 2.75,-2.42431 -2.25,2.56445 c -2.40177,2.73745 -2.9292,4.93555 -1.18425,4.93555 2.18311,0 4.76492,-2.04782 6.68528,-5.30258 2.1117,-3.57906 4.54499,-16.98581 3.17839,-17.51203 -0.44938,-0.17303 -0.53144,-1.07303 -0.18236,-2 0.38754,-1.02908 -0.89993,-0.39822 -3.30618,1.62004 -2.16748,1.81798 -4.97643,4.16697 -6.24212,5.21998 -1.89597,1.57737 -2.10991,2.27207 -1.21482,3.94457 1.52071,2.84146 3.41509,2.53295 6.42718,-1.04671 1.42389,-1.69219 2.58889,-2.57174 2.58889,-1.95454 0,1.57404 -4.62879,6.03127 -6.26342,6.03127 -0.74487,0 -2.17048,-0.59679 -3.168,-1.3262 -2.68938,-1.96652 -1.2119,-5.1351 4.09791,-8.78835 2.58115,-1.77588 5.13601,-4.56185 5.93329,-6.47003 1.61769,-3.87167 1.86979,-12.00718 0.40022,-12.91542 -0.57447,-0.35504 -1.00935,0.57729 -1.02196,2.19098 -0.0494,6.31671 -6.76799,15.87744 -10.63883,15.13931 -3.4228,-0.6527 -2.77047,-4.63877 1.52109,-9.29456 3.55157,-3.853 4.66225,-6.27074 6.4478,-14.03573 0.44623,-1.94057 0.46334,-1.93853 0.5759,0.0685 0.24931,4.44571 -2.884,12.03917 -6.3566,15.40494 -3.67087,3.55795 -4.64925,7.02656 -1.98195,7.02656 0.85,0 2.67477,-1.12931 4.05503,-2.50957 10.11325,-10.11325 5.81858,-33.73407 -10.21995,-56.21005 -17.58784,-24.64716 -40.67291,-38.52015 -72.88053,-43.79762 -27.60053,-4.52256 -59.7001,1.74991 -82.09379,16.04166 -23.59043,15.05552 -44.10574,46.33536 -44.52453,67.88685 -0.0906,4.6611 -0.28102,5.38532 -0.81226,3.08873 l -0.69395,-3 -0.78436,3.32817 c -1.54194,6.54272 1.47775,15.12184 6.17818,17.55252 5.96625,3.08527 7.79987,7.60197 4.04581,9.96595 -1.98408,1.2494 -6.33882,-0.6631 -7.31758,-3.21371 -0.39224,-1.02216 0.26629,-0.764 1.85261,0.72627 2.04105,1.91747 2.81868,2.12082 4.55552,1.19129 2.67956,-1.43405 2.64505,-2.64068 -0.13756,-4.81028 -1.22755,-0.95711 -3.88408,-3.40096 -5.90339,-5.43076 l -3.67149,-3.69055 0.29085,8.29599 c 0.15996,4.5628 0.82628,9.29648 1.48071,10.51929 0.65443,1.22281 1.38929,4.25965 1.63301,6.74853 0.58206,5.94386 1.95252,8.31729 4.80254,8.31729 3.57791,0 7.42423,-3.65623 8.73533,-8.30362 1.90695,-6.75946 1.36562,-23.09288 -1.03175,-31.13087 -1.13754,-3.81397 -1.91258,-7.09017 -1.72231,-7.28043 0.5064,-0.5064 4.23141,8.49222 5.67735,13.71492 0.68521,2.475 1.23841,8.775 1.22932,14 -0.0223,12.84306 -3.70192,23.7921 -13.30988,39.60522 -3.8886,6.39997 -6.81626,11.89023 -6.50592,12.20057 0.31034,0.31034 2.46849,-1.20611 4.7959,-3.36988 l 4.23164,-3.93414 -4.21761,4.50396 c -5.7998,6.19358 -8.28268,11.50647 -7.17777,15.35907 0.47326,1.65016 1.31083,3.45065 1.86126,4.00108 1.70148,1.70148 2.42361,-0.21562 1.14132,-3.02994 -1.05309,-2.3113 -1.02061,-2.50897 0.24031,-1.46249 1.88254,1.56236 2.81803,-0.52773 1.43634,-3.2091 -0.52024,-1.0096 -0.68443,-2.0971 -0.36487,-2.41666 0.31956,-0.31956 0.58102,-0.056 0.58102,0.58564 0,1.71208 3.02853,1.42147 5.42126,-0.52021 1.14331,-0.92778 0.61624,-0.22997 -1.17126,1.55069 -3.23816,3.22576 -4.097,5.13619 -2.30902,5.13619 0.51754,0 1.21761,-0.44758 1.5557,-0.99462 0.33809,-0.54704 1.60214,-1.46004 2.80901,-2.02889 2.16654,-1.02117 2.16584,-1.01337 -0.0557,0.6166 -1.2375,0.90797 -2.25,2.49597 -2.25,3.52888 0,2.18077 1.02097,2.39437 3.00178,0.62803 1.18914,-1.0604 1.20473,-0.98916 0.10274,0.46965 -1.0675,1.41315 -1.0589,2.27151 0.0482,4.81601 1.42455,3.27402 0.97301,3.20352 9.48059,1.48039 1.71125,-0.3466 1.06051,0.14641 -1.61454,1.2232 -2.46466,0.99209 -4.98513,2.81459 -5.60104,4.04999 -1.63815,3.2858 -2.21393,3.59535 -1.7015,0.91476 0.42451,-2.22071 -0.95855,-6.08206 -4.14699,-11.57789 l -1.37723,-2.37389 -3.09602,4.27393 c -3.21547,4.43883 -4.00356,9.01314 -1.84602,10.71489 0.6875,0.54225 3.25422,1.29234 5.70383,1.66685 2.4496,0.37451 5.97763,1.62269 7.84005,2.77374 l 3.38624,2.0928 2.47045,-2.47045 c 1.35874,-1.35874 3.13507,-4.23299 3.94739,-6.38721 l 1.47694,-3.91677 -0.55755,3.61563 c -0.55415,3.59357 -0.53149,3.62018 3.71255,4.35959 2.34856,0.40918 5.48511,0.80714 6.9701,0.88437 1.63902,0.0852 2.33931,0.50111 1.7821,1.05831 -0.5572,0.55721 -2.4497,0.45897 -4.81602,-0.25 -5.88058,-1.76186 -8.047,-1.44082 -11.13842,1.6506 -2.70289,2.70289 -2.75324,2.92605 -1.22745,5.44069 2.8347,4.67182 7.97303,4.40537 12.69979,-0.65857 1.1,-1.17847 1.6625,-1.70571 1.25,-1.17164 -1.63291,2.11412 -0.59389,2.54166 2.40637,0.99016 2.247,-1.16197 4.94225,-1.5185 9.35515,-1.23751 5.21757,0.33223 7.21105,1.05291 12.59364,4.55287 3.51716,2.28698 7.46991,4.55288 8.78387,5.03533 2.29099,0.84118 2.1884,0.99358 -2.5,3.71379 -2.68896,1.56014 -5.22515,3.39715 -5.63597,4.08224 -0.41081,0.68509 -2.99831,1.55527 -5.75,1.93372 -2.75168,0.37845 -5.00306,0.90548 -5.00306,1.17118 0,0.2657 1.36071,1.8438 3.02381,3.50689 1.86608,1.86609 3.62696,5.19325 4.59916,8.69005 l 1.57535,5.66624 3.78381,-0.36085 c 2.08109,-0.19846 4.06341,0.0916 4.40516,0.64454 0.41131,0.66552 1.62929,0.62493 3.60307,-0.12009 1.9135,-0.72227 3.32705,-0.78013 3.94567,-0.16151 1.18471,1.18471 -2.97872,1.61213 -11.4128,1.17166 -3.0907,-0.16141 -4.05399,0.18223 -4.32332,1.54231 -0.24585,1.24146 0.32858,1.78371 1.97677,1.866 1.69436,0.0846 1.84957,0.23981 0.57332,0.57333 -0.9625,0.25152 -1.78344,0.76182 -1.82431,1.13399 -0.0409,0.37218 -0.21814,1.57668 -0.39393,2.67668 -0.17579,1.1 -0.59101,5.2143 -0.92271,9.14289 -0.51836,6.13917 -0.33129,7.4741 1.33127,9.5 2.91396,3.55077 5.49917,1.53083 5.76151,-4.50172 0.16283,-3.74432 -0.12703,-4.66359 -1.5,-4.75717 -1.55054,-0.10569 -1.54626,-0.15666 0.0482,-0.57333 0.9625,-0.25152 1.81128,-1.43682 1.88618,-2.63399 0.13488,-2.15576 0.14035,-2.15505 0.56955,0.0733 0.32847,1.70535 1.12294,2.25 3.28203,2.25 1.56677,0 3.56047,0.27314 4.43045,0.60699 1.31416,0.50431 1.58179,-0.25048 1.58179,-4.46103 0,-3.94837 -0.49708,-5.54575 -2.25,-7.23039 l -2.25,-2.16237 2.19431,1.12879 c 1.20686,0.62083 2.47306,1.57982 2.81375,2.13108 0.38131,0.61697 1.19907,0.42268 2.12713,-0.50538 2.2173,-2.2173 4.95743,-1.84103 7.18128,0.98614 l 1.96163,2.4938 1.6236,-2.47793 c 2.15745,-3.29268 5.94244,-4.16944 9.09166,-2.10599 2.33284,1.52853 2.60038,1.50257 4.54387,-0.44092 1.4558,-1.4558 2.71268,-1.85953 4.26008,-1.36841 3.43952,1.09166 4.65157,3.4979 4.4859,8.90564 l -0.15317,5 -0.36768,-5.26145 c -0.29026,-4.15368 -0.85328,-5.57963 -2.67411,-6.77268 -4.48888,-2.94123 -7.58825,0.97215 -7.58825,9.58118 l 0,4.95295 5,0 c 3.32517,0 5.00513,-0.41871 5.01531,-1.25 0.0111,-0.90875 0.25272,-0.87522 0.88493,0.12283 0.66679,1.05264 2.58743,1.23675 8.23469,0.78939 4.05079,-0.32089 9.096,-0.60116 11.21158,-0.62283 l 3.84652,-0.0394 -0.34652,-4.91865 c -0.19058,-2.70526 -0.17427,-4.74552 0.0362,-4.53391 0.21052,0.2116 1.25568,-0.725 2.32259,-2.08135 2.28237,-2.90157 4.41015,-3.12404 7.04791,-0.7369 1.81098,1.63891 1.96125,1.63891 2.87843,0 0.53223,-0.95106 1.42748,-1.72919 1.98944,-1.72919 0.56195,0 0.31459,0.70714 -0.54969,1.57143 -1.00443,1.00448 -1.57139,3.3539 -1.57139,6.51183 l 0,4.94039 4.25,-0.63907 c 2.3375,-0.35149 4.475,-0.6351 4.75,-0.63024 6.00852,0.10609 4.88526,1.08874 -2.03158,1.77725 -2.95221,0.29387 -5.56711,0.73377 -5.81089,0.97756 -1.27392,1.27391 -0.28229,9.69552 1.3546,11.50426 2.29058,2.53107 3.01746,2.49629 4.93117,-0.23591 z m 1.63565,-17.36082 c 0.048,-1.16495 0.28494,-1.4019 0.60416,-0.60417 0.28887,0.72187 0.25335,1.58438 -0.0789,1.91667 -0.3323,0.33229 -0.56864,-0.25834 -0.52522,-1.3125 z m -33.95808,-2.41667 c -0.27842,-4.5946 -4.17359,-7.57465 -7.64669,-5.85021 -1.94712,0.96678 -1.94757,0.95876 -0.0331,-0.58479 2.57287,-2.07433 3.22652,-1.98826 6.00556,0.79079 2.28085,2.28084 2.40633,2.29675 3.94476,0.5 2.08068,-2.43006 4.82543,-2.35059 7.74777,0.22434 l 2.36078,2.08013 -2.47251,-1.58013 c -1.35982,-0.86907 -3.20258,-1.58013 -4.09496,-1.58013 -2.1388,0 -4.6373,2.88004 -5.20512,6 l -0.455,2.5 -0.15149,-2.5 z m -55.04192,-1.67857 c -0.0434,-1.19822 -0.78609,-2.88572 -1.65038,-3.75 -0.86428,-0.86429 -1.14438,-1.57143 -0.62244,-1.57143 0.52194,0 1.51379,0.68055 2.2041,1.51233 1.01814,1.22678 1.5605,1.27724 2.87245,0.26723 1.48625,-1.14419 1.48607,-1.08441 -0.002,0.73767 -0.89073,1.09052 -1.86771,2.65777 -2.17105,3.48277 -0.37074,1.00828 -0.57742,0.78584 -0.63049,-0.67857 z m 21.57053,-6.79249 c -0.91418,-2.3823 -5.33442,-2.95007 -8.40677,-1.07983 l -2.74271,1.66959 2.36078,-2.05935 c 2.8402,-2.47755 4.92831,-2.59581 7.98843,-0.45241 2.14593,1.50307 2.43919,1.47075 4.53696,-0.5 1.2335,-1.15882 3.15648,-2.10694 4.27329,-2.10694 2.01418,0 5.34054,2.83475 5.34054,4.55125 0,0.49157 -0.70052,-0.10637 -1.5567,-1.32874 -2.02939,-2.89736 -4.58974,-2.81161 -8.25991,0.27663 -2.39486,2.01514 -3.07927,2.21458 -3.53391,1.0298 z m -17.24449,-8.77894 -1.90499,-2.25 2.25,1.90499 c 2.11444,1.79022 2.70524,2.59501 1.90499,2.59501 -0.18976,0 -1.20226,-1.0125 -2.25,-2.25 z m 4.3048,0.25177 c 0.67734,-2.59018 -1.97883,-6.5853 -6.01412,-9.04577 -3.91931,-2.38975 -5.39831,-2.5109 -3.56811,-0.29228 1.22981,1.49082 1.1646,1.5504 -0.62756,0.57327 -1.1,-0.59974 -2.9,-1.7841 -4,-2.63191 -1.97836,-1.5248 -1.97566,-1.54182 0.25,-1.57328 1.2375,-0.0175 2.25,0.44476 2.25,1.02722 0,0.58246 0.43457,0.79044 0.9657,0.46218 1.64965,-1.01954 8.44482,3.13509 10.2843,6.28792 1.86992,3.205 2.33753,7.19088 0.84362,7.19088 -0.49851,0 -0.67123,-0.8992 -0.38383,-1.99823 z m 70.95688,1.33156 c -2.25061,-2.2506 2.00879,-9.0799 7.40279,-11.86925 4.49915,-2.3266 4.84356,-1.66443 0.43054,0.82779 -4.93649,2.78785 -8.83789,9.22048 -6.5,10.7172 0.825,0.52817 1.0125,0.9672 0.41667,0.97562 -0.59584,0.008 -1.38334,-0.28469 -1.75,-0.65136 z m -83.15959,-1.32188 c -0.35034,-0.56686 0.0511,-0.7345 0.94098,-0.39301 2.5122,0.96402 1.88647,-3.03917 -1.06158,-6.79171 l -2.61353,-3.32673 3.11353,3.26578 c 3.26534,3.42502 4.24219,8.23422 1.67254,8.23422 -0.79254,0 -1.71592,-0.44485 -2.05194,-0.98855 z m 93.15959,0.32188 c -1.38218,-1.38217 -0.57806,-4.31773 1.92502,-7.02757 l 2.59169,-2.80576 -2.09169,3.15437 c -3.18857,4.80852 -2.58125,8.20895 0.91008,5.09563 1.19253,-1.06341 1.20411,-0.98877 0.0776,0.5 -1.4111,1.86482 -2.33719,2.1588 -3.41266,1.08333 z m -74.36091,-2.90628 -2.80576,-2.57296 3.25,2.26101 c 1.7875,1.24356 3.25,2.40139 3.25,2.57296 0,0.78934 -1.10612,0.11236 -3.69424,-2.26101 z m 50.03932,1.02982 c -0.86742,-2.26044 -0.089,-2.37903 1.90492,-0.2902 1.48065,1.55115 1.5143,1.83333 0.21862,1.83333 -0.84227,0 -1.79786,-0.69441 -2.12354,-1.54313 z m 8.02865,-1.70687 c 1.36689,-1.2375 3.52949,-3.39705 4.80577,-4.79901 1.27627,-1.40195 1.65847,-1.62695 0.84932,-0.5 -2.61189,3.63775 -6.37945,7.54901 -7.27167,7.54901 -0.47777,0 0.24969,-1.0125 1.61658,-2.25 z m -49.29478,-0.92327 c -0.12741,-2.70042 -4.77063,-7.48706 -8.82523,-9.09783 -4.04372,-1.60646 -14.25372,-3.2848 -14.25372,-2.34306 0,0.31543 1.6875,1.43886 3.75,2.49652 2.0625,1.05765 4.875,3.18768 6.25,4.7334 2.48411,2.79254 2.47741,2.79127 -1.05429,-0.2003 -3.5719,-3.0256 -6.88622,-4.62153 -12.44571,-5.99292 l -3,-0.74002 4,-0.81292 c 9.21501,-1.87276 21.99196,2.31348 25.03774,8.20338 0.87105,1.68443 1.36693,3.5946 1.10194,4.24481 -0.2668,0.65469 -0.51701,0.43557 -0.56073,-0.49106 z m 40.92105,-2.50478 c 0,-1.62042 5.32631,-6.1433 9.08216,-7.71219 1.97019,-0.82299 6.02019,-1.74432 9,-2.0474 5.07567,-0.51624 4.94417,-0.43767 -2.08216,1.24408 -8.78112,2.10176 -11.10524,3.24059 -13.92245,6.8221 -1.14265,1.45265 -2.07755,2.21468 -2.07755,1.69341 z m 23.52634,-0.32195 c 1.75478,-3.14982 5.05293,-5.96493 6.97366,-5.95231 2,0.0131 2,0.0131 0,1.11657 -1.1,0.60689 -3.3071,2.2807 -4.90466,3.71959 -1.59757,1.43888 -2.52862,1.94115 -2.069,1.11615 z m -98.6539,-1.75 c -1.24387,-1.58606 -1.2085,-1.62143 0.37756,-0.37756 0.9625,0.75485 1.75,1.54235 1.75,1.75 0,0.82304 -0.82119,0.29331 -2.12756,-1.37244 z m 35.37756,-2.74908 c -2.42015,-1.04578 -3.25,-2.03998 -3.25,-3.89363 0,-1.36909 0.40803,-2.74143 0.90674,-3.04965 0.49871,-0.30822 0.65363,0.40751 0.34426,1.59052 -0.66532,2.54422 1.94571,4.85184 5.48979,4.85184 3.43731,0 7.92281,-2.60559 8.53849,-4.95995 0.29341,-1.12203 1.03598,-2.04005 1.65015,-2.04005 1.53711,0 -1.49515,4.48632 -4.24891,6.28638 -3.63855,2.37843 -6.02558,2.68585 -9.43052,1.21454 z m 30.65021,-0.6346 c -1.97989,-1.14826 -4.36217,-3.37835 -5.29397,-4.95576 l -1.69418,-2.86801 2.97913,1.70978 c 1.65684,0.9509 2.51885,1.99425 1.94212,2.35069 -1.52508,0.94255 3.15008,3.89698 6.16669,3.89698 2.74188,0 7,-2.4873 7,-4.08893 0,-0.53653 -1.0125,-1.38249 -2.25,-1.87991 -1.3802,-0.55477 -1.6508,-0.92889 -0.7,-0.96777 1.87237,-0.0766 3.95,1.84395 3.95,3.65131 0,1.32924 -5.65479,5.29408 -7.5,5.25859 -0.55,-0.0106 -2.61991,-0.95872 -4.59979,-2.10697 z m -67.08771,0.45057 c 0.72187,-0.28887 1.58438,-0.25335 1.91667,0.0789 0.33229,0.33229 -0.25834,0.56864 -1.3125,0.52522 -1.16495,-0.048 -1.4019,-0.28494 -0.60417,-0.60416 z m 94.62863,-0.76172 c 1.06762,-0.85535 2.38012,-1.55517 2.91667,-1.55517 1.27054,0 0.70323,0.4619 -2.3578,1.91971 -2.35727,1.12265 -2.38918,1.10183 -0.55887,-0.36454 z m -58.4653,-13.30517 c -1.81992,-2.30708 -2.10691,-3.73991 -1.7818,-8.89608 0.32671,-5.18156 1.10074,-7.30177 4.93228,-13.51042 2.49961,-4.0504 5.78956,-10.50966 7.31099,-14.35393 1.52143,-3.84426 3.11329,-7.35992 3.53747,-7.81257 1.34148,-1.43153 3.42616,12.42686 3.43318,22.823 0.004,5.5 -0.54753,11.88887 -1.22499,14.19748 -2.73362,9.31537 -11.56871,13.43253 -16.20713,7.55252 z m 28.17274,0.22156 c -5.37876,-4.52593 -6.50738,-9.51479 -5.82003,-25.72643 0.60067,-14.16705 1.3202,-19.74513 2.54698,-19.74513 0.3533,0 1.6748,2.87877 2.93667,6.39726 1.26187,3.51849 3.90018,9.03099 5.8629,12.25 1.96272,3.21901 4.40387,7.65274 5.42478,9.85274 3.01655,6.50047 2.23699,16.23971 -1.49957,18.73469 -2.23775,1.49418 -6.53281,0.69298 -9.45173,-1.76313 z m 49.72387,-0.22156 c -1.24387,-1.58606 -1.2085,-1.62143 0.37756,-0.37756 0.9625,0.75485 1.75,1.54235 1.75,1.75 0,0.82304 -0.82119,0.29331 -2.12756,-1.37244 z m 35.58644,-24.31653 c -0.36253,-0.58659 -0.44468,-1.281 -0.18255,-1.54313 0.26212,-0.26213 0.74306,0.21781 1.06875,1.06653 0.67618,1.76211 0.0999,2.07206 -0.8862,0.4766 z m -187.29078,-5.2136 c -0.0925,-2.07908 -1.2931,-6.45302 -2.6681,-9.71987 -1.375,-3.26685 -2.48749,-6.51579 -2.47219,-7.21987 0.0153,-0.70407 1.38737,2.06762 3.04907,6.15932 2.00695,4.94185 2.89336,8.63481 2.64029,11 l -0.38096,3.56055 -0.16811,-3.78013 z m 185.95707,-0.44023 c -0.0688,-1.77121 0.94242,-5.59621 2.24725,-8.5 1.30483,-2.9038 2.6193,-5.95464 2.92105,-6.77964 0.48768,-1.33333 0.55497,-1.33333 0.60562,0 0.0313,0.825 -0.89875,3.525 -2.06687,6 -1.16812,2.475 -2.45191,6.3 -2.85287,8.5 -0.69325,3.80374 -0.73516,3.84199 -0.85418,0.77964 z m -153.25454,0.7368 c -19.7202,-3.47658 -31.59111,-22.54454 -24.96196,-40.09579 3.98231,-10.54351 12.11673,-17.43141 24.25998,-20.54237 7.96798,-2.0413 15.28704,-1.41516 23.88919,2.04369 8.06514,3.24293 13.09526,7.28123 16.69315,13.40165 2.45259,4.17214 2.74901,5.65382 2.74901,13.74138 0,8.11258 -0.31706,9.68555 -3.01776,14.97146 -5.14377,10.06757 -14.84937,15.70046 -28.98224,16.82058 -3.3,0.26155 -8.08322,0.10828 -10.62937,-0.3406 z m 1.5102,-5.30564 c 1.29462,-0.94665 1.58231,-2.00948 1.08272,-4 -0.75474,-3.00715 -1.45492,-3.31496 -3.3228,-1.4608 -1.00966,1.00225 -1.12719,0.90315 -0.59301,-0.5 0.78486,-2.06159 0.39732,-2.13772 -3.00069,-0.58948 -2.88782,1.31577 -3.29728,3.9464 -0.97562,6.26805 1.90742,1.90742 4.44309,2.01252 6.8094,0.28223 z m 20.39666,-0.2675 c 3.24709,-2.27435 2.76591,-4.81374 -1.27749,-6.74191 -3.6777,-1.75377 -4.25616,-1.1352 -2.44483,2.61435 1.01928,2.10998 1.00228,2.11825 -0.5,0.24313 -0.85534,-1.06762 -1.55517,-2.33168 -1.55517,-2.80902 0,-1.57353 -1.74757,0.17684 -2.30508,2.30878 -0.34151,1.30595 0.17584,2.81213 1.37929,4.01558 2.33278,2.33278 3.78552,2.41277 6.70328,0.36909 z M 306.475,478.93312 c 2.50121,-2.76655 2.59017,-12.13632 0.1385,-14.58799 -1.9193,-1.9193 -2.40007,-1.17553 -3.03494,4.69506 -0.31327,2.89684 -0.40607,2.68143 -0.53853,-1.25 -0.22513,-6.68177 -3.09286,-5.91028 -5.21545,1.40308 -1.36171,4.69176 -0.26665,8.60501 2.88727,10.31784 3.48154,1.89075 3.53614,1.88527 5.76315,-0.57799 z m -13.48867,-6.46662 c 2.04261,-1.41553 3.97738,-3.62373 4.29948,-4.9071 0.32211,-1.28337 0.86071,-3.05021 1.1969,-3.92631 1.0214,-2.66172 -1.7577,-1.82507 -5.50437,1.6571 l -3.49687,3.25 2.75015,-3.75 c 1.59703,-2.17765 2.22938,-3.75 1.50813,-3.75 -0.68311,0 -0.36851,-0.66069 0.69911,-1.4682 1.81267,-1.37103 1.67641,-1.47131 -2.05887,-1.51531 -2.2,-0.0259 -4.675,-0.4896 -5.5,-1.03041 -1.07397,-0.70401 -0.60508,-0.8118 1.65086,-0.37951 1.73297,0.33208 3.94761,0.15789 4.92141,-0.38708 1.56573,-0.87622 1.38359,-1.19096 -1.57453,-2.72066 -3.34339,-1.72893 -9.27097,-2.18166 -13.01325,-0.99391 -2.71401,0.8614 -2.57309,4.9694 0.23802,6.93838 1.22237,0.85618 1.76238,1.5567 1.2,1.5567 -0.56238,0 -1.5233,-0.50079 -2.13538,-1.11287 -1.42675,-1.42675 -3.16428,-0.34045 -4.32076,2.70133 -1.24227,3.26741 -0.37943,4.9978 3.23958,6.49685 2.70577,1.12076 3.22123,1.05097 4.42814,-0.59958 1.82427,-2.49483 1.72111,-3.46219 -0.38409,-3.60173 -1.58951,-0.10536 -1.58277,-0.15924 0.0734,-0.58747 1.00288,-0.2593 1.59599,-1.06414 1.31802,-1.78853 -0.37791,-0.98482 0.80183,-1.31774 4.67657,-1.31972 3.5433,-0.002 4.54953,0.24607 3.18198,0.78385 -2.65214,1.04293 -7.27342,5.73864 -8.0473,8.1769 -1.59,5.00967 4.754,6.36573 10.65364,2.27728 z m 28.9594,1.53851 c 1.06384,-0.56935 1.96979,-2.03185 2.01321,-3.25 0.0434,-1.21815 0.30592,-1.65232 0.58333,-0.96482 0.64083,1.58815 3.57106,1.61666 5.13772,0.05 1.65634,-1.65634 1.50151,-4.92453 -0.35917,-7.58101 -1.32313,-1.88903 -1.89083,-2.0536 -3.75,-1.08705 -3.19765,1.66239 -3.22366,1.74291 -1.11783,3.46003 1.81674,1.48139 1.8205,1.53737 0.0657,0.97832 -1.45972,-0.46503 -1.72241,-0.21293 -1.21746,1.16837 0.35414,0.96874 -0.42281,0.44933 -1.72655,-1.15423 -2.15107,-2.64578 -10.38867,-6.22374 -11.58187,-5.03054 -0.25684,0.25683 0.85022,1.88188 2.46012,3.6112 2.8436,3.05453 1.71713,3.06825 -1.82903,0.0223 -2.55271,-2.19265 -2.9318,-1.07344 -0.96406,2.84623 1.58578,3.1588 7.27894,7.96641 9.43382,7.96641 0.50482,0 1.78827,-0.46583 2.85211,-1.03518 z m -14.42301,-14.54232 c 1.27799,-1.95046 1.4602,-3.22764 0.74898,-5.25 -0.80439,-2.28727 -1.50952,-2.6725 -4.89171,-2.6725 -3.39573,0 -4.08594,0.38131 -4.90479,2.70971 -2.35183,6.68737 5.22209,11.05114 9.04752,5.21279 z m 19.35727,-0.4225 c 4.28504,-4.28504 1.33296,-8.01063 -6.32143,-7.97776 -3.5417,0.0152 -5.96672,0.62776 -7.67205,1.93795 -2.21964,1.70534 -2.30176,1.98929 -0.74776,2.58561 0.96014,0.36844 2.98221,0.36452 4.49348,-0.009 1.8379,-0.4539 2.41663,-0.34617 1.74776,0.32533 -0.55,0.55217 -2.8,1.16543 -5,1.36282 l -4,0.35888 3.5,1.6688 c 4.96003,2.36495 11.50029,2.2468 14,-0.25291 z m -34.05383,-9.68891 -3.44617,-3.68891 3.39367,2.74524 c 4.36439,3.53049 6.19172,2.1758 3.43412,-2.54587 -2.35042,-4.02447 -8.00123,-8.01249 -10.788,-7.61355 -2.89143,0.41392 -3.15626,4.73857 -0.49718,8.11904 1.99384,2.53476 8.26222,6.52874 10.40356,6.62876 0.52039,0.0243 -0.60461,-1.61581 -2.5,-3.64471 z m 21.86792,0.70863 c 7.62187,-5.52126 8.85778,-12.01972 2.28597,-12.01972 -3.39486,0 -6.38969,2.11453 -9.01804,6.36729 -3.91589,6.33605 -1.82132,7.66841 3.7458,2.38271 2.21651,-2.10446 3.059,-2.54111 2.39023,-1.23881 -0.56804,1.10615 -1.97448,2.8634 -3.12543,3.90499 -2.16303,1.95752 -2.72694,3.58382 -1.24266,3.58382 0.46748,0 2.70134,-1.34113 4.96413,-2.98028 z m -32.81409,0.03 c 0,-0.52267 -0.7875,-1.45665 -1.75,-2.07551 -1.66667,-1.07161 -1.66667,-1.09779 0,-0.54969 0.9625,0.31653 2.425,0.84865 3.25,1.1825 0.825,0.33384 1.5,0.16394 1.5,-0.37756 0,-0.5415 -0.675,-1.54474 -1.5,-2.22943 -0.825,-0.68469 -1.5,-2.08979 -1.5,-3.12244 0,-1.38971 -0.72753,-1.87756 -2.8,-1.87756 -4.71384,0 -6.56393,3.58295 -4.16482,8.06574 1.07019,1.99966 6.96482,2.83242 6.96482,0.98395 z m 47.80106,-2.71188 c 0.31127,-3.11004 -0.85435,-4.65456 -4.30106,-5.6992 -1.51988,-0.46065 -2.4276,0.14263 -3.78122,2.51305 -2.10648,3.6888 -1.73444,4.42545 1.44557,2.86225 2.27476,-1.11821 2.27126,-1.09633 -0.13433,0.83921 l -2.46999,1.98735 3.46999,0.41128 c 5.04831,0.59835 5.43928,0.40094 5.77104,-2.91394 z m -28.65087,-3.08781 0.1502,-4.75 0.5998,4.42235 c 0.84278,6.21376 2.68529,6.23772 4.01186,0.0522 0.60504,-2.82121 1.77235,-5.80175 2.59401,-6.62342 1.74029,-1.74029 1.92944,-1.03333 0.45876,1.71466 -1.25321,2.34163 0.25718,2.57662 2.12164,0.33008 0.73224,-0.88229 2.36234,-1.99615 3.62244,-2.47524 1.26011,-0.47915 2.2911,-1.63433 2.2911,-2.56714 0,-4.69195 -7.7512,-7.326 -10.16839,-3.45547 -0.96925,1.55202 -1.5292,1.68874 -3.07162,0.75 -1.58537,-0.96488 -2.27503,-0.70043 -4.32314,1.65774 -2.63216,3.03064 -3.23663,8.46045 -1.4616,13.12914 1.53194,4.0293 3.01063,3.01171 3.17494,-2.1849 z m -7.81611,-7 c -0.48986,-1.42131 -0.30212,-1.37436 0.99958,0.25 1.46137,1.82359 1.60554,1.84254 1.63454,0.21482 0.0175,-0.98185 0.73744,-2.86212 1.59988,-4.17838 1.46102,-2.2298 1.43137,-2.46637 -0.43426,-3.46482 -2.65615,-1.42153 -6.44522,-1.36022 -7.93382,0.12838 -1.79868,1.79868 -1.46024,6.54904 0.55,7.7199 2.71924,1.58382 4.26149,1.29556 3.58408,-0.6699 z m 101.81157,48.17798 c -8.52375,-2.29301 -15.3777,-8.29382 -19.33466,-16.92798 -3.21518,-7.0156 -3.26951,-20.15376 -0.10791,-26.09468 4.24387,-7.97457 13.46649,-13.84553 25.75829,-16.3973 15.76687,-3.27319 31.64099,4.32931 38.61379,18.49308 2.84849,5.78612 3.11017,7.09185 2.74499,13.69736 -0.4945,8.94494 -2.66242,13.74313 -9.02528,19.97537 -6.58631,6.45112 -13.30529,8.84554 -24.58238,8.76036 -4.79187,-0.0362 -11.12195,-0.71399 -14.06684,-1.50621 z m 5.78014,-4.35377 c 1.1947,-1.1947 1.75343,-2.80813 1.47179,-4.25 -0.44827,-2.29491 -0.44174,-2.29667 0.51781,-0.13958 3.55555,7.99296 12.27251,2.48436 10.56147,-6.67422 -1.34282,-7.18758 -5.385,-8.44996 -5.6369,-1.76041 -0.14999,3.98328 -0.18379,4.03035 -0.53853,0.75 -0.20818,-1.925 -0.59149,-4.11318 -0.8518,-4.86262 -0.83265,-2.39721 -3.14577,0.56052 -3.70623,4.73907 -0.28378,2.11575 -1.3031,5.04812 -2.26514,6.51639 -2.00701,3.06307 -3.19921,2.82278 -1.5241,-0.30719 1.39392,-2.60456 0.44958,-2.62919 -3.70416,-0.0966 -3.78056,2.30505 -3.9829,3.27806 -1.25,6.01096 2.51131,2.51131 4.46772,2.53228 6.92579,0.0742 z m 20.13995,0.89061 c 2.82436,-1.51156 2.47438,-5.3977 -0.61279,-6.8043 -3.32442,-1.51471 -3.49282,-1.4796 -2.82723,0.58948 0.47849,1.48745 0.39591,1.52496 -0.55039,0.25 -0.97037,-1.30739 -1.30351,-1.25074 -2.59433,0.44113 -1.95258,2.55922 -1.87041,4.23268 0.269,5.47877 2.25861,1.31552 3.91952,1.32733 6.31574,0.0449 z m -23.46522,-9.45765 c 2.27097,-1.46754 5.94427,-8.29571 4.98099,-9.25899 -0.32417,-0.32417 -1.71262,0.46582 -3.08545,1.75552 -3.35406,3.15098 -3.19645,1.33679 0.19103,-2.19898 3.03493,-3.16779 2.65019,-3.31828 -3.68709,-1.44216 -6.93831,2.05405 -11.53306,10.02769 -7.25,12.58152 1.9827,1.1822 5.74198,0.57187 8.85052,-1.43691 z m 30.3887,1.00582 c 1.9805,-2.38636 0.30509,-6.28725 -4.05772,-9.44765 l -4.02578,-2.91626 4.42149,0.17112 c 3.08529,0.1194 4.27602,0.55018 3.94015,1.42546 -0.29497,0.76866 0.43128,1.30707 1.87565,1.39052 2.34207,0.13532 2.34274,0.13893 0.10699,0.56955 -2.58242,0.4974 -2.7673,1.20456 -0.9608,3.6751 1.74688,2.389 6.50012,1.17567 7.9618,-2.03236 0.90379,-1.9836 0.70459,-2.91726 -1.16064,-5.44013 -1.23843,-1.67505 -2.00951,-3.67666 -1.71351,-4.44801 1.4807,-3.85864 -8.65393,-6.11373 -14.8298,-3.29981 -4.13697,1.88492 -3.26874,4.11838 1.42689,3.67057 2.18567,-0.20843 3.64817,-0.0591 3.25,0.33184 -0.39817,0.39094 -2.74894,0.86785 -5.22394,1.05979 -4.26484,0.33075 -4.36936,0.40913 -2,1.49975 2.07619,0.95568 2.17378,1.1615 0.57569,1.21414 -1.87092,0.0616 -1.86811,0.12583 0.10123,2.31339 3.38302,3.75789 3.90134,5.48006 0.60194,2 -2.79468,-2.94771 -6.35088,-4.37456 -6.23083,-2.5 0.16004,2.49894 3.95201,8.01505 6.84985,9.96434 3.91519,2.63364 7.32019,2.93275 9.09134,0.79865 z m -41.14974,-5.06004 c 1.51594,-3.32712 1.47936,-3.50007 -0.58948,-2.78703 -1.4247,0.49103 -1.37823,0.30285 0.25,-1.01238 1.72799,-1.39582 1.79599,-1.75204 0.5,-2.61922 -4.10184,-2.74465 -8.35541,1.69547 -6.18585,6.45714 1.47445,3.23605 4.54228,3.21644 6.02533,-0.0385 z m 24.96052,-7.65295 c 0.66,-0.66 1.2,-2.595 1.2,-4.3 0,-3.79656 -1.56253,-5.5 -5.04501,-5.5 -5.20641,0 -7.23841,5.33993 -3.71016,9.75 1.27256,1.59061 5.98338,1.62179 7.55517,0.05 z m -14.01788,-1.50624 3.71788,-1.70624 -4,-0.36059 c -2.2,-0.19832 -4.45,-0.84002 -5,-1.42599 -0.69998,-0.74577 -0.0858,-0.8954 2.0471,-0.49876 4.56913,0.84971 6.33708,-0.67674 3.17983,-2.74545 -1.81099,-1.1866 -4.20929,-1.57559 -8.38189,-1.35947 l -5.84504,0.30274 -0.32871,3.45586 c -0.23089,2.42738 0.198,3.841 1.44113,4.75 2.47398,1.80902 8.7584,1.61237 13.1697,-0.4121 z m 4.21788,-7.23474 c 0,-0.51754 -0.42905,-1.20615 -0.95344,-1.53024 -0.52439,-0.3241 -1.94895,-2.03815 -3.1657,-3.80902 l -2.21226,-3.21976 3.46331,3.25 c 1.90482,1.7875 4.05316,3.25 4.77411,3.25 2.34024,0 0.24181,-5.29467 -3.4915,-8.8096 -2.73742,-2.57729 -4.22321,-3.2411 -6.71487,-3 -2.58316,0.24995 -3.24643,0.79128 -3.44247,2.8096 -0.26096,2.68688 1.31592,4.90715 6.56955,9.25 3.43282,2.83771 5.17327,3.44632 5.17327,1.80902 z m 20.02362,-2.07295 c 2.81139,-1.65765 4.82964,-2.55765 4.48499,-2 -0.86675,1.40244 0.0581,1.27178 3.79105,-0.53553 l 3.20034,-1.54947 -2.25,1.95976 c -2.7703,2.41294 -2.78825,2.76515 -0.17579,3.44833 4.17815,1.09261 7.84997,-5.98498 4.72579,-9.10916 -1.85866,-1.85866 -6.57659,-1.49373 -7.11067,0.55 -0.27807,1.06407 -0.5028,0.6598 -0.57333,-1.03138 -0.0654,-1.56714 -0.82784,-3.05455 -1.74656,-3.4071 -2.31689,-0.88907 -7.37955,2.1752 -10.73472,6.49738 -2.25819,2.90903 -2.71039,3.18206 -2.13422,1.28863 1.10804,-3.64133 0.77602,-10.05942 -0.60659,-11.72536 -2.34226,-2.82225 -4.64581,-3.47741 -6.32446,-1.79876 -1.42593,1.42593 -1.56945,1.38981 -1.56945,-0.39499 0,-3.0848 -6.68409,-4.56259 -8.72232,-1.92842 -2.43131,3.14217 -2.08864,4.56719 1.86167,7.74175 4.37119,3.51278 5.67907,3.4594 3.82486,-0.1561 -1.10412,-2.15291 -1.06875,-2.21291 0.45203,-0.76688 0.90743,0.86282 2.1975,3.70838 2.86682,6.32346 1.55804,6.0874 3.0546,6.32571 3.81675,0.60777 l 0.5998,-4.5 0.1502,4.67054 c 0.14015,4.35828 0.35624,4.71581 3.23203,5.34743 2.41939,0.53139 3.65536,0.17435 5.75,-1.66105 1.54088,-1.35018 1.21218,-0.7576 -0.77801,1.40257 -4.16862,4.52468 -2.87374,4.76168 3.96979,0.72658 z m -34.19183,-0.008 2.66821,-0.0222 -2.5,-2.04488 c -2.40537,-1.96747 -2.41159,-2.00142 -0.16435,-0.89674 3.16701,1.5568 3.61742,0.76292 1.68609,-2.97187 -1.3154,-2.54371 -2.04529,-3.01529 -3.82373,-2.47054 -1.20891,0.3703 -2.76051,1.1233 -3.44801,1.67333 -2.35252,1.88213 -1.07341,8.28512 1.46083,7.31264 0.79901,-0.30661 2.65344,-0.56748 4.12096,-0.57971 z m 30.51164,-13.22807 c -0.70819,2.76305 0.67289,2.87607 3.79579,0.31063 2.23343,-1.83475 2.27818,-2.09097 0.82958,-4.75 -1.0743,-1.97197 -2.44247,-2.90046 -4.58517,-3.1117 -4.28986,-0.4229 -5.51982,1.41253 -4.06383,6.06433 l 1.17017,3.73863 1.71507,-2.25095 1.71508,-2.25094 -0.57669,2.25 z m 37.52901,41.5 c -1.24387,-1.58606 -1.2085,-1.62143 0.37756,-0.37756 0.9625,0.75485 1.75,1.54235 1.75,1.75 0,0.82304 -0.82119,0.29331 -2.12756,-1.37244 z m -1.71455,-11.25 c 0,-1.375 0.22698,-1.9375 0.50439,-1.25 0.27741,0.6875 0.27741,1.8125 0,2.5 -0.27741,0.6875 -0.50439,0.125 -0.50439,-1.25 z m -100.15854,-18.0024 c -0.6541,-2.42917 -2.94655,-8.31932 -5.09432,-13.08922 -4.70444,-10.44792 -5.06113,-15.38098 -1.42461,-19.70274 7.37908,-8.76954 17.65021,-1.48266 16.13092,11.44412 -0.54239,4.61493 -5.51691,20.48047 -7.62139,24.30739 -0.56682,1.03075 -1.14932,0.16473 -1.9906,-2.95955 z m 3.34842,-13.44295 c -0.37911,-3.74467 -0.23529,-4.66591 0.55494,-3.55465 0.58666,0.825 1.0895,2.625 1.11741,4 l 0.0507,2.5 1.42918,-2.5 c 0.89173,-1.55992 1.44245,-5.43135 1.46456,-10.29545 0.0317,-6.96852 -0.22494,-8.05584 -2.41911,-10.25 -2.85534,-2.85535 -3.46182,-2.93416 -7.99708,-1.03921 -4.26661,1.78271 -5.91503,4.81435 -5.2626,9.67857 0.57345,4.2754 3.65449,12.90609 4.60729,12.90609 0.34175,0 0.50873,-2.1375 0.37107,-4.75 -0.18663,-3.54198 -0.0156,-4.24136 0.67251,-2.75 0.50753,1.1 0.95442,3.9125 0.99307,6.25 0.0387,2.3375 0.48636,4.25 0.99489,4.25 0.51655,0 0.75452,-3.19962 0.53922,-7.25 -0.32047,-6.02908 -0.23328,-6.57639 0.51777,-3.25 0.49673,2.2 0.93597,6.25 0.97609,9 0.05,3.42995 0.36009,4.54615 0.98738,3.55465 0.50294,-0.79494 0.68416,-3.71994 0.40271,-6.5 z m 5.68785,13.85507 c 0.0196,-0.50034 0.67296,-3.57875 1.45192,-6.8409 3.48786,-14.60652 13.42773,-27.44799 26.0594,-33.66654 5.90353,-2.9063 7.78117,-3.34489 14.08279,-3.28954 6.05491,0.0532 8.34013,0.59016 13.66274,3.21048 7.26734,3.5777 15.06324,10.03019 17.26674,14.29128 1.82456,3.5283 1.25653,3.60947 -2.9273,0.41832 -4.76325,-3.63311 -13.76599,-7.35066 -20.3491,-8.40287 -7.50414,-1.19942 -14.94915,0.0311 -21.53838,3.55988 -7.72536,4.13723 -20.67388,17.43862 -24.55084,25.21989 -1.75647,3.52535 -3.17756,6.00035 -3.15797,5.5 z m 16.15401,-23.70853 c 13.00867,-12.9231 27.00415,-15.49196 45.08684,-8.27567 5.71779,2.28181 6.02037,2.31564 3.72353,0.41633 -1.375,-1.13702 -2.5,-2.56676 -2.5,-3.17721 0,-0.61044 -2.68682,-2.43988 -5.9707,-4.06542 -4.58272,-2.26846 -7.764,-3.05933 -13.68491,-3.40209 -6.98785,-0.40452 -8.31807,-0.16398 -14.12756,2.55461 -10.49317,4.91034 -22.14344,17.811 -24.15571,26.74826 -0.67168,2.9832 -0.65736,2.97761 2.55792,-1 1.77837,-2.2 5.86013,-6.60946 9.07059,-9.79881 z m 7.81037,-9.19386 c 0,-0.67743 8.12258,-4.71808 8.57497,-4.2657 0.20963,0.20964 -1.63398,1.36018 -4.09691,2.55677 -2.46293,1.19658 -4.47806,1.9656 -4.47806,1.70893 z m 29.5,-4.50733 c -1.31874,-0.56668 -1.48906,-0.87815 -0.5,-0.9144 0.825,-0.0302 2.175,0.38124 3,0.9144 1.82797,1.18132 0.24909,1.18132 -2.5,0 z m -11.73209,-1.72473 c 1.79735,-0.22256 4.49735,-0.21797 6,0.0102 1.50265,0.22818 0.0321,0.41027 -3.26791,0.40466 -3.3,-0.006 -4.52944,-0.1923 -2.73209,-0.41486 z m -59.64838,33.48262 c -1.38114,-2.8899 -5.99895,-8.68142 -11,-13.79586 -11.05177,-11.30239 -18.08394,-14.96006 -28.7642,-14.96124 -8.91547,-9.9e-4 -18.08052,2.7487 -25.18905,7.55717 -2.93355,1.98437 -5.52419,3.41746 -5.75699,3.18467 -0.91744,-0.91745 5.84936,-8.91356 10.33909,-12.21738 6.8659,-5.05234 14.56577,-7.78958 22.27125,-7.91724 5.51818,-0.0914 7.578,0.41292 13.40989,3.28337 8.41859,4.14361 17.96009,13.38945 21.79369,21.11836 2.50543,5.05118 6.37649,17.78689 5.60681,18.44629 -0.18151,0.15551 -1.40123,-1.95866 -2.71049,-4.69814 z m -2.1976,-9.00789 c -4.14795,-10.62859 -12.80109,-19.88544 -23.1771,-24.79412 -10.00626,-4.73376 -22.67435,-3.76818 -30.83559,2.35034 -1.52816,1.14567 -1.76925,1.6028 -0.65924,1.25 0.9625,-0.30592 2.5375,-0.80563 3.5,-1.11046 0.9625,-0.30483 -0.80536,0.81113 -3.92857,2.47991 -7.62478,4.07405 -8.21816,5.49813 -1.09242,2.62177 8.20874,-3.31353 16.77729,-4.87059 22.57249,-4.10183 9.99259,1.32556 21.62567,9.29432 30.65653,20.99998 2.35685,3.05493 4.4489,5.55441 4.64899,5.55441 0.20009,0 -0.5582,-2.3625 -1.68509,-5.25 z m -8.46898,-10 -3.95295,-4.25 4.25,3.95295 c 2.3375,2.17412 4.25,4.08662 4.25,4.25 0,0.75658 -0.87085,-4.9e-4 -4.54705,-3.95295 z m -39.64045,-13.43311 c 0.72187,-0.28887 1.58438,-0.25335 1.91667,0.0789 0.33229,0.3323 -0.25834,0.56864 -1.3125,0.52522 -1.16495,-0.048 -1.4019,-0.28494 -0.60417,-0.60416 z m 17,0 c 0.72187,-0.28887 1.58438,-0.25335 1.91667,0.0789 0.33229,0.3323 -0.25834,0.56864 -1.3125,0.52522 -1.16495,-0.048 -1.4019,-0.28494 -0.60417,-0.60416 z m -12.0625,-0.97917 c 0.6875,-0.27741 1.8125,-0.27741 2.5,0 0.6875,0.27741 0.125,0.50439 -1.25,0.50439 -1.375,0 -1.9375,-0.22698 -1.25,-0.50439 z m 5.51903,-0.0307 c 0.97297,-0.25354 2.32297,-0.23687 3,0.037 0.67703,0.27393 -0.11903,0.48137 -1.76903,0.46099 -1.65,-0.0204 -2.20394,-0.2445 -1.23097,-0.49804 z m -54.04652,21.13628 c -1.22238,-0.85619 -2.22251,-2.05963 -2.22251,-2.67432 0,-0.61468 1.13096,-0.0551 2.51324,1.24346 1.93128,1.81434 2.78653,2.08779 3.69341,1.18091 0.90689,-0.90689 0.50387,-1.93426 -1.74043,-4.43676 l -2.9206,-3.25659 3.36851,3.16055 c 4.97013,4.66329 2.75567,8.59818 -2.69162,4.78275 z m 1.58677,-25.1933 c -3.16119,-3.38932 -4.83329,-6.54552 -4.7332,-8.93426 0.0443,-1.05689 0.56922,-0.45623 1.25604,1.43722 1.38679,3.82315 6.22742,9.24704 8.25265,9.24704 2.4382,0 1.55088,-3.48063 -1.92981,-7.57 -4.39411,-5.16251 -5.66933,-7.6991 -5.58747,-11.11426 0.0526,-2.19514 0.34687,-1.77781 1.33506,1.89349 0.79188,2.94196 2.80492,6.37705 5.36413,9.15348 2.96291,3.21437 3.94484,5.02442 3.54831,6.54077 -0.77927,2.97992 -4.41185,2.66365 -7.50571,-0.65348 z m 79.626,1.78738 c -1.13559,-0.45972 -5.56028,-3.11778 -9.83264,-5.90681 -4.27236,-2.78902 -9.41824,-5.34622 -11.43528,-5.68265 -5.47991,-0.91403 -6.0571,-1.28127 -2.15162,-1.36897 2.55388,-0.0573 6.38413,1.55804 14,5.90444 10.85105,6.19273 14.96426,7.21416 18.53537,4.60289 1.86017,-1.36018 1.79136,-1.55164 -1.81726,-5.05629 -2.06285,-2.00341 -4.67303,-5.45061 -5.80041,-7.66045 -1.7783,-3.48577 -2.25982,-3.84356 -3.63585,-2.70156 -1.38808,1.15201 -1.49724,1.03643 -0.87445,-0.92582 0.89492,-2.81964 -1.77406,-3.093 -4.80515,-0.49216 -2.03455,1.74576 -2.03515,1.74312 -0.24884,-1.08676 0.98486,-1.56022 1.54413,-3.0833 1.24282,-3.38461 -0.8731,-0.8731 -6.56576,1.82343 -7.60526,3.60251 -0.52024,0.89037 -0.95958,1.08897 -0.9763,0.44134 -0.0167,-0.64764 1.41837,-2.31136 3.18909,-3.69717 3.81426,-2.9851 2.90285,-4.806 -1.22092,-2.43928 -2.28562,1.31176 -2.76122,1.35899 -2.32845,0.23122 0.29911,-0.77949 0.85969,-1.41725 1.24573,-1.41725 0.38603,0 1.57539,-0.70669 2.64301,-1.57041 1.82653,-1.4777 1.70497,-1.5423 -2.05887,-1.09423 -3.75853,0.44745 -3.83851,0.40525 -1.32484,-0.69906 2.61767,-1.15 2.63956,-1.23395 1.01839,-3.90578 -1.80089,-2.96802 -4.83122,-3.52613 -8.50929,-1.56718 -4.88557,2.60207 -5.77873,6.48315 -3.18426,13.83666 0.825,2.3383 1.4478,5.20738 1.384,6.37573 -0.10939,2.00323 -0.14042,2.01031 -0.54458,0.12427 -0.23571,-1.1 -1.10112,-3.86114 -1.92312,-6.13587 -1.48488,-4.10913 -1.51852,-4.13029 -5.20542,-3.27385 -5.13364,1.1925 -6.21088,1.11762 -6.21088,-0.43175 0,-1.02653 -1.06796,-1.17938 -4.54901,-0.65109 -3.69774,0.56117 -4.44744,0.4257 -4.00629,-0.72393 0.53453,-1.39295 -0.43249,-1.29687 -5.4447,0.54095 -1.26175,0.46264 -1.29219,0.29428 -0.19163,-1.06003 1.12467,-1.38397 0.98427,-1.67195 -1,-2.05105 -2.05116,-0.39188 -2.00195,-0.45619 0.44163,-0.5772 1.5125,-0.0749 2.75,0.28553 2.75,0.80095 0,0.52011 1.62665,0.67316 3.65548,0.34393 2.83804,-0.46055 3.47657,-0.30374 2.85544,0.70128 -0.62278,1.00767 -0.0182,1.14782 2.7285,0.63252 2.50866,-0.47063 3.67658,-0.27613 4.04077,0.67291 0.3377,0.88004 1.70674,1.19541 4.01805,0.92558 3.19273,-0.37274 3.5448,-0.73544 3.94228,-4.06132 0.24005,-2.00862 -0.04,-4.42488 -0.62224,-5.36947 -0.98003,-1.58981 -1.2413,-1.55266 -3.51606,0.5 l -2.45737,2.21744 2.17758,-3.15437 c 3.59289,-5.20456 2.37957,-6.15976 -1.86344,-1.46702 -4.49133,4.96737 -5.27115,4.70827 -1.3403,-0.44533 2.79232,-3.66093 1.91479,-4.78523 -1.11869,-1.43328 -0.99549,1.1 -2.28023,2 -2.85499,2 -0.64058,0 -0.58059,-0.46442 0.15499,-1.2 0.66,-0.66 1.2,-1.56 1.2,-2 0,-1.48611 -1.83034,-0.81316 -5.17328,1.90201 l -3.32672,2.70201 2.42431,-2.70201 c 2.25956,-2.51838 2.29167,-2.70201 0.47251,-2.70201 -1.07349,0 -2.99911,0.73356 -4.27914,1.63013 -2.24054,1.56933 -2.28688,1.55455 -1.24273,-0.39648 0.86216,-1.61095 2.50772,-2.16952 8.02321,-2.72342 3.81622,-0.38325 7.87532,-0.39951 9.02022,-0.0361 1.68057,0.5334 2.08162,0.23452 2.08162,-1.55131 0,-2.11488 -0.28145,-2.18571 -6.41065,-1.61335 -5.00606,0.46747 -6.52929,0.28946 -6.95214,-0.81245 -0.42855,-1.1168 -0.0375,-1.21946 1.87525,-0.49224 1.4673,0.55786 2.63965,0.55815 2.98416,7.2e-4 0.31209,-0.50496 1.34052,-0.64071 2.2854,-0.30166 1.41434,0.5075 1.3466,0.19048 -0.38325,-1.79367 -3.88262,-4.45339 -3.85672,-5.44453 0.0434,-1.66013 2.12555,2.0625 4.14985,3.75 4.49844,3.75 1.13177,0 0.9979,-4.36465 -0.18262,-5.95391 -0.76359,-1.02798 -0.51272,-0.96383 0.7486,0.19144 1.37804,1.26216 2.00958,3.50487 2.30838,8.19741 0.551,8.65326 2.0793,9.97545 8.00633,6.92654 l 4.32129,-2.2229 -2.82129,-1.57248 -2.82129,-1.57248 2.89915,0.64904 c 3.36527,0.75337 2.84743,-1.13538 -0.75148,-2.74095 -2.13051,-0.95047 -2.12969,-0.95465 0.10233,-0.52354 2.29355,0.443 3.07369,-0.75106 1.23369,-1.88825 -0.55897,-0.34547 -0.76926,-1.02786 -0.46731,-1.51643 0.30196,-0.48857 -0.8157,-1.59404 -2.48368,-2.45658 -4.18044,-2.16179 -3.81315,-2.74095 0.57539,-0.9073 4.64938,1.94263 5.23728,1.2552 1.71761,-2.00842 -1.5429,-1.43066 -2.27392,-2.60119 -1.6245,-2.60119 0.64942,0 1.45888,0.45 1.7988,1 1.10022,1.78019 2.25379,1.06471 2.82152,-1.75 0.37687,-1.86848 0.0324,-3.15069 -1.07455,-4 -2.81515,-2.15988 -6.09562,-1.37837 -10.49409,2.5 -2.33908,2.0625 -3.64147,2.96996 -2.89419,2.01657 1.20312,-1.53494 1.03136,-1.85848 -1.5,-2.82556 -1.57228,-0.60067 -4.32119,-0.92349 -6.10869,-0.71737 -3.70539,0.42727 -4.40772,-0.71625 -0.96985,-1.57911 2.52614,-0.63402 6.56064,0.12935 8.439,1.59675 0.82329,0.64315 2.08473,0.27155 3.88486,-1.14444 2.76671,-2.17629 7.8318,-2.73947 10.34399,-1.15014 1.1118,0.70338 2.24499,-0.40305 4.88057,-4.76531 1.88791,-3.12477 4.0171,-7.25639 4.73154,-9.18139 0.71443,-1.925 1.33067,-2.72351 1.36943,-1.77447 0.0387,0.94904 -1.95454,5.59682 -4.42954,10.32839 -6.29061,12.02604 -5.79553,16.82188 2.14834,20.81123 3.08793,1.55073 3.16044,1.53285 3.7791,-0.93205 0.39182,-1.56115 -0.12217,-4.21523 -1.35689,-7.00651 -1.0932,-2.47136 -1.63444,-4.27509 -1.20275,-4.0083 0.43168,0.2668 1.60084,2.29457 2.59813,4.50615 0.99728,2.21158 2.14178,3.81801 2.54332,3.56984 0.71728,-0.4433 -0.0952,-6.06182 -1.44532,-9.99428 -0.37765,-1.1 0.17391,-0.47197 1.2257,1.39562 1.10397,1.96026 2.19358,2.94056 2.57767,2.3191 0.36593,-0.59209 0.20798,-1.35918 -0.35099,-1.70464 -0.55897,-0.34546 -1.01631,-1.05156 -1.01631,-1.5691 0,-0.51754 0.81467,-0.15348 1.81038,0.80902 1.34416,1.29933 1.5528,2.17976 0.81016,3.4188 -2.15057,3.58809 5.03333,6.77733 8.17946,3.6312 0.72744,-0.72744 1.2,-0.79065 1.2,-0.16052 0,1.86604 -4.78892,3.39127 -7.45968,2.37585 -2.2712,-0.86351 -2.54966,-0.64277 -3.49839,2.77324 -1.42341,5.12516 -1.35287,5.57069 1.27252,8.03712 3.06241,2.87698 3.4859,2.76201 3.96215,-1.07569 l 0.40333,-3.25 0.16003,3.62755 c 0.088,1.99516 0.83504,4.18776 1.66004,4.87245 1.29218,1.07241 1.51728,0.63909 1.62476,-3.12755 l 0.12475,-4.37245 0.7537,5.14882 c 0.7933,5.41939 1.56865,7.35118 2.9505,7.35118 0.45962,0 0.51552,-1.4625 0.12423,-3.25 -0.39128,-1.7875 -0.38875,-4.375 0.006,-5.75 0.55812,-1.94585 0.73915,-1.4602 0.81674,2.19098 0.12663,5.95917 1.66977,7.05093 2.38881,1.69008 0.62463,-4.65695 3.51698,-8.20707 8.96087,-10.9987 4.43734,-2.27548 4.99788,-5.35666 1.28249,-7.04951 -2.19304,-0.99922 -2.91639,-0.71874 -6.50288,2.52144 -4.50959,4.07414 -6.14978,4.45531 -8.15717,1.89571 -1.2357,-1.57565 -1.20271,-1.6171 0.33117,-0.41606 1.44061,1.12802 2.17388,1.05614 4.75,-0.46561 1.67515,-0.98975 3.04603,-2.17424 3.04603,-2.63221 0,-0.45797 1.4625,-1.44841 3.25,-2.20098 l 3.25,-1.36831 -2.65686,-0.66845 c -1.46127,-0.36764 -3.58864,-0.16977 -4.72749,0.43973 -1.69374,0.90646 -1.96811,0.84098 -1.50735,-0.35974 0.4437,-1.15627 -0.5637,-1.5327 -4.74524,-1.77314 l -5.30853,-0.30523 -0.87702,-4.5 c -0.48236,-2.475 -0.99272,-4.62309 -1.13414,-4.77354 -0.77318,-0.82256 -3.79614,1.36476 -5.03352,3.64211 -1.04685,1.92667 -1.4405,2.16274 -1.46981,0.88143 -0.0534,-2.33582 3.47172,-5.75 5.93691,-5.75 1.08732,0 2.69959,-1.1029 3.58283,-2.45089 1.80972,-2.76199 9.43239,-6.82338 11.55126,-6.15457 5.2295,1.65066 6.76582,1.56881 7.38867,-0.39362 0.91605,-2.88623 3.90455,-4.15405 11.92797,-5.06024 3.88977,-0.43933 7.97232,-1.12194 9.07232,-1.51691 1.56382,-0.56151 1.74941,-0.44634 0.85098,0.52807 -0.63197,0.68542 -4.55524,1.6282 -8.71838,2.09507 -4.16314,0.46688 -8.47827,1.33531 -9.58917,1.92985 -2.85363,1.52721 -3.61376,5.50385 -1.63061,8.53052 2.3296,3.55543 6.10886,3.31837 8.08718,-0.50728 1.91207,-3.69755 2.80396,-3.92967 1.45375,-0.37836 -0.71781,1.88799 -0.64989,3.03956 0.2427,4.11507 1.05478,1.27093 1.50837,0.9176 3.04451,-2.37164 0.99279,-2.12579 1.56875,-3.03823 1.2799,-2.02765 -0.28885,1.01058 -0.80672,3.59808 -1.15083,5.75 -0.50711,3.1713 -0.32454,3.91258 0.96362,3.91258 1.03169,0 1.97252,-1.49104 2.68167,-4.25 1.56144,-6.07475 2.06932,-6.86103 1.45334,-2.25 l -0.53436,4 2.01061,-2.5 c 1.10584,-1.375 2.01501,-2.05 2.02039,-1.5 0.005,0.55 -1.67212,2.80534 -3.72777,5.01186 -2.78025,2.98432 -3.65649,4.71317 -3.42111,6.75 0.32777,2.83633 1.71534,3.67342 2.46673,1.48814 0.23639,-0.6875 0.32425,-0.575 0.19523,0.25 -0.12901,0.825 -0.40193,1.95 -0.60647,2.5 -0.20455,0.55 0.0781,1.15616 0.62809,1.34702 0.55,0.19086 1.57192,-1.15914 2.27094,-3 l 1.27095,-3.34702 -0.37952,3 c -0.20873,1.65 -0.74463,3.86132 -1.19088,4.91404 -1.4012,3.30549 1.42588,0.77529 3.06216,-2.74059 1.33981,-2.87884 1.43041,-2.92677 0.9759,-0.51635 -0.27556,1.4614 -0.76561,3.4864 -1.08899,4.5 -0.46206,1.44825 -0.14175,1.33735 1.49574,-0.51788 2.5215,-2.8568 2.57685,-2.43357 0.40421,3.09054 -2.483,6.31321 -5.73559,10.14731 -13.47652,15.8859 -7.03739,5.21703 -12.66422,11.39744 -11.46677,12.59489 0.36086,0.36086 1.18861,0.12362 1.83945,-0.52722 0.65083,-0.65083 1.64346,-1.18333 2.20584,-1.18333 0.56237,0 0.0224,0.70052 -1.2,1.5567 -2.74405,1.92201 -2.94812,6.47665 -0.39377,8.78831 2.49654,2.25934 3.4688,2.07946 2.14365,-0.3966 -0.60388,-1.12837 -0.906,-3.04087 -0.67136,-4.25 0.3748,-1.93147 0.44314,-1.88331 0.56279,0.3966 0.14033,2.67405 1.96312,4.78264 5.89036,6.81391 4.45394,2.30369 15.03526,-2.90994 18.30481,-9.01915 1.9674,-3.67611 2.87452,-11.5467 1.78543,-15.49107 l -1.05925,-3.83629 -1.41135,2.69365 c -1.66102,3.17018 -4.25129,4.74394 -7.80808,4.74394 -2.17317,0 -2.56574,0.45034 -2.56574,2.9433 0,3.22763 -3.02523,6.05779 -6.47251,6.05515 -1.47649,-10e-4 -1.07632,-0.47672 1.47251,-1.75 2.76765,-1.3826 3.56557,-2.42849 3.81336,-4.99845 0.26914,-2.79141 0.69634,-3.25 3.02749,-3.25 4.0791,0 7.15915,-2.60575 7.15915,-6.0567 0,-1.61882 0.45,-2.9433 1,-2.9433 3.99227,0 6.73057,-9.31886 3.52101,-11.98256 -1.07441,-0.89169 -1.21119,-1.72784 -0.5,-3.0567 1.63099,-3.04753 1.11855,-5.96348 -1.81283,-10.31572 -3.78241,-5.61577 -4.39217,-6.64502 -3.93672,-6.64502 0.21423,0 1.8581,2.04498 3.65305,4.54441 2.63448,3.66846 3.53455,4.31949 4.66952,3.37755 2.72531,-2.26181 1.98109,-4.13215 -6.08047,-15.28115 -1.93246,-2.67256 -3.51188,-5.37256 -3.50982,-6 0.002,-0.62745 0.94793,0.43419 2.10196,2.35919 4.08697,6.81741 6.74705,8.89815 10.58036,8.27609 3.184,-0.51669 3.94463,-0.0894 9.3339,5.24366 5.36341,5.30745 6.96719,6.1463 12.23004,6.39692 2.36564,0.11265 2.20368,1.31891 -0.39499,2.9418 -1.91088,1.19337 -2.07263,1.15102 -1.48204,-0.38804 0.56422,-1.47033 0.21483,-1.63799 -2.34608,-1.12581 -1.65497,0.331 -2.92577,0.27636 -2.82401,-0.12141 0.29552,-1.15511 -11.19106,-12.22321 -12.68537,-12.22321 -3.72818,0 -4.37075,0.98692 -2.75341,4.22895 1.3999,2.80615 1.39411,3.50814 -0.0612,7.43489 -1.82161,4.91495 -1.12119,5.47481 2.29714,1.83616 1.29175,-1.375 2.75223,-2.5 3.24552,-2.5 0.49328,0 -0.71016,1.51563 -2.67432,3.36808 -1.96416,1.85244 -3.5712,4.32744 -3.5712,5.5 0,2.64933 1.65381,2.79804 2.47134,0.22222 0.33336,-1.05033 1.36842,-2.51283 2.30012,-3.25 1.43454,-1.135 1.40512,-0.88862 -0.19209,1.60858 -1.32719,2.07504 -1.53195,3.06692 -0.691,3.34724 0.89977,0.29993 0.91297,0.73832 0.0534,1.77402 -0.89847,1.08259 -0.39467,2.08016 2.36493,4.6828 2.96766,2.79886 3.94361,3.18687 6.34994,2.52452 2.6715,-0.73534 4.38517,-0.6494 15.95012,0.79983 3.33676,0.41813 4.41065,0.25994 3.89536,-0.57383 -0.45232,-0.73187 0.0551,-0.67241 1.39322,0.16326 1.15755,0.72291 2.10464,1.74613 2.10464,2.27383 0,0.5277 -0.50483,0.45461 -1.12186,-0.16241 -1.39723,-1.39723 -4.1089,-0.48503 -3.2005,1.07664 0.36638,0.62987 -0.27772,0.31828 -1.43134,-0.69243 -1.15362,-1.01071 -2.84891,-1.68571 -3.7673,-1.5 -1.45972,0.29517 -1.37764,0.71509 0.65246,3.33765 l 2.32227,3 -3.76166,-3.25 c -3.68357,-3.18251 -5.69209,-4.04703 -5.69209,-2.45 0,0.44 0.5625,1.41283 1.25,2.16184 0.6875,0.74901 -0.16947,0.38901 -1.90437,-0.8 -4.38565,-3.00569 -4.86369,-2.70761 -1.89652,1.18255 3.90022,5.11346 3.03479,5.45607 -1.34941,0.53422 -4.63463,-5.20298 -6.4582,-4.63474 -2.58564,0.80571 1.49382,2.09862 1.75302,2.73943 0.57599,1.42402 -2.7319,-3.05309 -3.68502,-2.15956 -1.72972,1.62156 2.06831,3.99967 3.4401,4.92851 8.51623,5.76631 3.40787,0.56247 4.20346,0.44228 3.59452,-0.543 -0.59852,-0.96843 0.0758,-1.12616 2.87344,-0.67215 2.01052,0.32626 3.65548,0.17539 3.65548,-0.33527 0,-0.51065 2.24677,-0.81986 4.99283,-0.68713 3.02865,0.1464 4.99564,0.70563 5,1.42153 0.005,0.85577 -0.88443,0.92449 -3.23623,0.25 -4.45264,-1.277 -5.06678,-1.18088 -4.35225,0.68115 0.40252,1.04894 0.17809,1.44586 -0.64301,1.13723 -4.53056,-1.70295 -5.97787,-1.90794 -5.25905,-0.74487 0.56137,0.90832 -0.42735,1.12411 -3.88903,0.8488 -3.63262,-0.28892 -4.52684,-0.0697 -4.11311,1.00849 0.39021,1.01686 -0.14314,1.24925 -2.03646,0.88732 -2.2945,-0.43862 -2.88389,0.14113 -5.58675,5.49546 -3.3187,6.57432 -6.54237,10.03144 -11.87694,12.73702 -5.75996,2.92135 -9.38905,3.30836 -13.64641,1.4553 -5.1898,-2.25892 -12.04734,-1.82538 -17.88655,1.1308 -5.29951,2.68296 -8.05623,2.95253 -13.82177,1.35161 -3.38714,-0.94051 -4.12278,-0.81853 -6.06445,1.00558 -2.2809,2.14279 -6.46763,2.60221 -10.14554,1.1133 z m 28.92915,-4.67412 3.43229,-1.63675 -3.89836,-3.70842 c -2.92371,-2.78126 -3.89836,-4.49717 -3.89836,-6.86325 0,-2.61552 -0.38464,-3.14878 -2.25,-3.11941 -1.2375,0.0195 -3.375,0.67855 -4.75,1.46457 -4.20334,2.40284 -9.53827,1.90245 -11.91373,-1.11746 -2.52916,-3.21529 -3.76544,-1.29909 -2.05847,3.19058 4.04805,10.64717 16.03564,16.22547 25.33663,11.79014 z m 31.13557,-2.74655 c 5.83043,-2.75634 9.11061,-6.09855 13.10791,-13.35577 2.18575,-3.96829 3.31094,-5.10408 4.63889,-4.68261 2.51423,0.79799 2.16831,-0.9157 -0.42212,-2.0912 -1.24248,-0.56382 -3.92269,-4.4005 -6.25,-8.94679 -3.23353,-6.31652 -4.64659,-8.10609 -6.84511,-8.66898 -2.4895,-0.63739 -2.92047,-0.35024 -4.25,2.83178 -2.22879,5.33425 -1.64995,6.8515 1.5439,4.04686 0.7829,-0.6875 0.6479,-0.31457 -0.3,0.82874 -2.86252,3.4526 -1.86334,6.02728 1.2307,3.17126 0.7448,-0.6875 0.6098,-0.13737 -0.3,1.22251 -0.90979,1.35987 -1.65417,3.45525 -1.65417,4.65638 0,1.74303 0.45419,2.08512 2.25,1.6947 2.16121,-0.46988 2.15446,-0.43658 -0.17103,0.84361 -3.04561,1.67663 -3.82726,3.8201 -1.4123,3.87284 1.39261,0.0304 1.17224,0.39868 -0.91667,1.53193 -1.5125,0.82055 -2.75,2.15303 -2.75,2.96108 0,0.80804 -1.8,3.21601 -4,5.35104 -4.18186,4.05836 -4.8427,5.6092 -2.75,6.45363 2.41084,0.97279 4.29232,0.62273 9.25,-1.72101 z m -40.501,-13.36299 4.49899,-1.94484 -2.99899,-1.51523 c -1.64945,-0.83338 -6.149,-2.28007 -9.999,-3.21485 -7.21418,-1.75162 -8.92673,-2.6553 -11.5,-6.06829 -0.97311,-1.29066 -0.33145,-1.02721 1.82672,0.75 6.80998,5.60787 5.82926,2.47391 -1.61942,-5.17499 -5.77013,-5.92523 -8.77713,-8.22758 -11.96375,-9.16022 -2.34104,-0.68516 -4.46221,-1.03998 -4.71369,-0.78849 -0.25149,0.25148 0.44608,3.46828 1.55015,7.14843 2.00898,6.69642 3.7959,8.71476 7.71558,8.71476 1.52342,0 1.82556,0.531 1.44246,2.53504 -0.30933,1.61814 0.19197,3.28265 1.38599,4.60203 1.53398,1.69502 2.63588,1.96209 6.12328,1.48409 3.62979,-0.49752 4.25268,-0.32206 4.25268,1.19797 0,4.65612 5.29205,5.19844 13.999,1.43459 z m 6.86936,-7.00372 c 0.13158,2.74881 1.46593,3.63615 2.63162,1.75003 0.33991,-0.54999 4.19147,-3.72021 8.55902,-7.04494 7.24754,-5.51709 7.941,-6.34949 7.941,-9.53215 0,-7.4594 -5.02807,-13.84859 -5.77995,-7.34461 -0.58009,5.01784 -1.25259,6.72018 -2.90535,7.3544 -1.5505,0.59499 -1.54394,0.47806 0.0735,-1.30918 0.97683,-1.07938 1.63802,-3.01586 1.46931,-4.30329 -0.16871,-1.28742 0.46934,-3.44878 1.41788,-4.80302 2.28721,-3.26544 2.18492,-6.70053 -0.23813,-7.99731 -1.07952,-0.57774 -1.72864,-1.66055 -1.44249,-2.40625 0.72901,-1.89983 -2.27511,-4.61368 -5.10718,-4.61368 -3.30639,0 -3.71815,1.20395 -1.89999,5.55542 1.01015,2.41763 1.34328,4.9995 0.92958,7.20467 -0.50388,2.68595 -0.35772,3.2641 0.66904,2.64639 1.04556,-0.62903 1.03915,-0.45167 -0.0314,0.86873 -0.73986,0.91253 -4.17179,3.23986 -7.62651,5.17185 -4.43909,2.48247 -6.75746,4.51611 -7.9048,6.93395 -2.1761,4.58578 -2.03998,6.71837 0.23963,3.75421 1.59513,-2.07416 2.33404,-2.27771 6.01235,-1.65626 4.59743,0.77673 7.12451,-0.46748 7.12451,-3.50779 0,-1.36584 0.52732,-1.63958 2.25,-1.16799 1.82957,0.50085 1.923,0.68391 0.5,0.9797 -0.9625,0.20007 -1.75,0.98994 -1.75,1.75526 0,2.2056 -3.86103,3.71051 -7.6811,2.99386 -4.24871,-0.79706 -6.3189,0.68752 -6.3189,4.53143 0,4.03822 1.7937,4.59446 2.27519,0.70555 l 0.40474,-3.26898 0.16003,3.69098 c 0.20459,4.71839 2.11963,6.07979 2.27604,1.61804 0.0671,-1.91334 0.29439,-2.46546 0.53894,-1.30902 0.23261,1.1 0.70948,3.125 1.05971,4.5 0.59933,2.35302 0.67749,2.29423 1.32942,-1 0.61622,-3.1138 0.70717,-3.19656 0.82429,-0.75 z m 5.09437,-29.25 c -0.004,-0.825 -0.90177,-3.47281 -1.99581,-5.88403 l -1.98915,-4.38403 -2.44114,2.63403 c -1.34262,1.44872 -2.74898,2.63403 -3.12524,2.63403 -0.37627,0 0.50225,-1.18636 1.95225,-2.63636 7.68442,-7.68443 -3.04296,-16.43649 -12.39627,-10.11364 -4.19666,2.83695 -5.98401,7.12446 -4.79405,11.5 1.39883,5.14356 3.35163,4.06524 3.17314,-1.7522 -0.13087,-4.26555 0.22122,-5.29918 2.38486,-7.0011 1.39612,-1.09818 3.04021,-1.99502 3.65354,-1.99296 0.61333,0.002 -0.39811,0.9263 -2.24764,2.05389 -3.52903,2.1515 -3.77705,3.89035 -0.28861,2.02339 1.11095,-0.59456 2.81449,-1.08102 3.78565,-1.08102 2.49336,0 0.44756,1.74944 -2.53213,2.16532 -3.09445,0.4319 -4.56738,2.84482 -3.7426,6.13101 0.5889,2.34637 1.26539,2.67506 6.7929,3.30042 4.03075,0.45603 6.80427,1.35995 8.07655,2.63223 2.6672,2.6672 3.23832,1.61599 1.29635,-2.38605 -1.47818,-3.04625 -1.47922,-3.16543 -0.0117,-1.34293 0.88578,1.1 1.87107,3.2738 2.18955,4.83066 0.41483,2.02796 0.81825,2.45332 1.42259,1.5 0.46395,-0.73186 0.84056,-2.00566 0.83691,-2.83066 z m -17.40509,-7.90674 c -0.30822,-0.49871 0.34022,-0.67123 1.44098,-0.38337 2.33499,0.61061 2.63015,1.29011 0.5604,1.29011 -0.79254,0 -1.69316,-0.40803 -2.00138,-0.90674 z m 5.32813,-2.34326 c 0.44608,-2.68779 0.60247,-2.85068 0.90401,-0.94163 0.29542,1.87029 0.63464,2.08428 1.78742,1.12756 1.92422,-1.59696 1.81178,-0.46777 -0.14863,1.49264 -2.39192,2.39192 -3.13675,1.90023 -2.5428,-1.67857 z m 3.93873,-4.07582 c -0.37205,-1.82482 -0.23268,-2.48236 0.39346,-1.85622 0.53328,0.53328 0.79255,1.8049 0.57615,2.82582 -0.29142,1.37482 -0.54288,1.12336 -0.96961,-0.9696 z m -5.0745,-3.33646 c 0.6875,-0.27741 1.8125,-0.27741 2.5,0 0.6875,0.27741 0.125,0.50438 -1.25,0.50438 -1.375,0 -1.9375,-0.22697 -1.25,-0.50438 z m -75.35123,70.49849 c -1.05938,-1.71411 4.2514,-5.84825 7.40699,-5.76593 1.48183,0.0387 3.59424,0.46879 4.69424,0.95585 1.35844,0.6015 0.64173,0.69915 -2.2343,0.30442 -5.92824,-0.81363 -12.64782,3.63896 -7.5157,4.98012 1.57771,0.4123 1.58352,0.46875 0.059,0.57333 -0.93004,0.0638 -2.01465,-0.4077 -2.41024,-1.04779 z m 157.85123,0.47446 c 4.88485,-1.27654 -1.56813,-5.8425 -7.01937,-4.96671 -2.56268,0.41172 -3.26103,0.29995 -2.23063,-0.35699 2.60319,-1.6597 6.79019,-1.07151 9.60448,1.34924 2.8182,2.42411 2.60627,4.75494 -0.4135,4.54779 -1.5245,-0.10458 -1.51869,-0.16103 0.059,-0.57333 z m -151.75,-1.31067 c 1.1,-0.47269 2.675,-0.85943 3.5,-0.85943 0.94548,0 0.76064,0.31771 -0.5,0.85943 -1.1,0.47269 -2.675,0.85943 -3.5,0.85943 -0.94548,0 -0.76064,-0.31771 0.5,-0.85943 z m 10.06638,0.10222 c -1.17034,-0.45831 -1.51113,-1.01833 -0.86331,-1.41871 0.58867,-0.36382 1.6264,0.009 2.30607,0.8275 1.36965,1.65033 1.31696,1.67192 -1.44276,0.59121 z m 126.08248,-0.34684 c 0.25439,-0.40954 1.39177,-1.24194 2.52751,-1.84977 1.32324,-0.70818 1.83452,-0.73224 1.42337,-0.067 -0.38899,0.6294 0.84311,1.1719 3.12932,1.37785 3.19569,0.28788 2.908,0.41169 -1.88589,0.81162 -3.11126,0.25955 -5.44869,0.13683 -5.19431,-0.27271 z m -117.64886,-2.45586 c 0,-1.73188 -7.89591,-6.37908 -12.3273,-7.25533 -3.21377,-0.63547 -3.53334,-0.85027 -1.39058,-0.93465 1.53016,-0.0603 4.41176,0.57134 6.40354,1.40356 1.99178,0.83222 3.77658,1.35796 3.96622,1.16832 0.68697,-0.68697 -8.34209,-6.54853 -11.70423,-7.59825 l -3.44765,-1.07642 3.38235,0.49808 c 1.8603,0.27394 5.44778,1.98168 7.97219,3.79496 4.52929,3.25339 8.96999,9.20898 7.76502,10.41395 -0.34076,0.34076 -0.61956,0.15436 -0.61956,-0.41422 z m 111,-1.89614 c 0,-0.39305 1.11537,-2.17695 2.47859,-3.96423 5.21206,-6.83335 15.06323,-10.49311 21.26728,-7.90089 1.78977,0.74781 3.25413,1.62345 3.25413,1.94587 0,0.32241 -0.87042,0.12037 -1.93426,-0.44898 -4.93644,-2.6419 -14.95677,-0.1328 -19.49071,4.88049 l -1.92497,2.12849 3.64285,-1.52208 c 2.00357,-0.83714 4.66981,-1.47688 5.92497,-1.42163 1.44439,0.0636 0.86736,0.43286 -1.57192,1.00599 -2.11972,0.49805 -5.04472,1.72906 -6.5,2.73558 -4.03001,2.78731 -5.14596,3.34277 -5.14596,2.56139 z m -136.25,-5.48351 c -4.01928,-2.34101 -0.4148,-7.58262 4.55158,-6.61887 1.90767,0.37018 1.85091,0.44462 -0.42913,0.56279 -6.1819,0.3204 -5.80766,5.63425 0.45202,6.41834 l 3.17553,0.39777 -3,0.12962 c -1.65,0.0713 -3.7875,-0.32904 -4.75,-0.88965 z m 161.25,-0.29745 c 0,-0.20766 0.7875,-0.99516 1.75,-1.75 1.58606,-1.24388 1.62143,-1.20851 0.37756,0.37755 -1.30637,1.66575 -2.12756,2.19548 -2.12756,1.37245 z M 259.90458,380.72309 c 1.07643,-1.82441 3.10808,-4.39836 4.51479,-5.7199 2.3201,-2.17962 2.39066,-2.46137 0.75972,-3.03347 -1.55361,-0.54498 -1.25973,-1.1606 2.16255,-4.53011 2.17827,-2.14468 3.84915,-4.44725 3.71307,-5.11682 -0.26157,-1.28702 7.35171,-7.28925 9.22532,-7.27314 0.60498,0.005 -0.81254,1.15571 -3.15004,2.55668 -4.45964,2.67286 -5.45028,4.4313 -2.5,4.4376 1.2219,0.003 0.84468,0.56601 -1.25,1.86696 -1.65,1.02478 -4.09094,3.04809 -5.42431,4.49626 -2.11265,2.29454 -2.19411,2.63304 -0.63364,2.63304 1.41056,0 1.00652,0.86797 -1.90343,4.08893 -2.03175,2.24891 -3.52751,4.25551 -3.3239,4.45912 0.20361,0.20361 2.60109,-0.72233 5.32774,-2.05765 5.9385,-2.90826 7.92061,-3.13954 7.03066,-0.82035 -0.35247,0.91853 -0.13758,1.9811 0.47754,2.36126 0.68736,0.42481 0.29916,0.90545 -1.00721,1.24708 -1.77177,0.46332 -2.01911,0.22028 -1.48581,-1.45999 0.55359,-1.7442 0.32331,-1.91787 -1.70892,-1.28881 -3.54371,1.09693 -9.63095,4.30902 -10.33989,5.45612 -0.34477,0.55786 -1.03513,1.01429 -1.53412,1.01429 -0.49899,0 -0.0265,-1.4927 1.04988,-3.3171 z m 186.46366,2.29808 c -1.00597,-1.62769 -10.40324,-6.07989 -12.17116,-5.7664 -0.88528,0.15698 -1.80629,-0.27708 -2.04668,-0.96458 -0.67343,-1.92596 1.90975,-1.49346 7.26106,1.21572 2.67873,1.35615 5.03998,2.29617 5.24721,2.08893 0.20724,-0.20724 -1.28555,-2.21681 -3.3173,-4.46572 -2.64276,-2.92521 -3.23167,-4.08893 -2.06927,-4.08893 2.50294,0 0.0837,-3.24462 -4.76202,-6.38662 -2.38431,-1.54602 -3.33604,-2.61338 -2.33026,-2.61338 2.01461,0 2.17272,-1.06188 0.45017,-3.02347 -0.6875,-0.7829 -0.22655,-0.56825 1.02433,0.47701 1.25088,1.04526 2.13599,2.31549 1.96691,2.82273 -0.16908,0.50724 1.50747,2.76795 3.72567,5.0238 3.33953,3.39622 3.72535,4.16692 2.24356,4.48167 -1.56711,0.33289 -1.44282,0.73508 1,3.23597 3.47493,3.55754 6.73927,8.98229 5.40508,8.98229 -0.54863,0 -1.28092,-0.45856 -1.6273,-1.01902 z m -168.0272,-15.93795 c 2.17821,-2.40688 2.67736,-2.5673 1.93025,-0.62035 -0.30027,0.78248 -1.27341,1.70184 -2.16255,2.04304 -1.32812,0.50964 -1.28666,0.25575 0.2323,-1.42269 z m 4.53895,-3.04303 c 0.825,-0.53316 2.175,-0.94464 3,-0.9144 0.98905,0.0362 0.81874,0.34772 -0.5,0.9144 -2.74908,1.18132 -4.32797,1.18132 -2.5,0 z m 121.56923,-1.46532 c 0.88844,-1.35592 2.46227,-5.06842 3.4974,-8.25 l 1.88206,-5.78468 -0.53033,4.5 -0.53033,4.5 2.14276,-2.5 c 1.17852,-1.375 1.81177,-1.825 1.40722,-1 -0.40455,0.825 -1.64537,2.51073 -2.75739,3.74606 -3.603,4.00255 -0.82467,3.68556 3.00094,-0.3424 3.74604,-3.94417 3.74215,-2.81563 -0.005,1.34634 -3.025,3.36021 -0.29522,2.71465 4.03828,-0.955 l 3.7848,-3.205 -2.75,3.00972 c -3.39595,3.71667 -3.47522,4.62651 -0.29787,3.41848 1.95982,-0.74512 2.34185,-0.64488 1.9028,0.49926 -0.42645,1.11129 -1.82034,1.29871 -6.23067,0.83774 -4.5252,-0.47298 -5.95482,-0.26429 -7.02524,1.02549 -2.11821,2.55229 -3.32071,1.88728 -1.52979,-0.84601 z m 17.98432,1.56304 c -1.90308,-0.74474 -1.90122,-0.77354 0.0833,-1.29251 1.30643,-0.34164 2.02979,-0.0451 2.02979,0.83199 0,0.74954 -0.0375,1.33117 -0.0833,1.29251 -0.0458,-0.0387 -0.95923,-0.41305 -2.02978,-0.83199 z m -133.62924,-6.84772 -2.42431,-2.75 2.75,2.42431 c 2.57029,2.26589 3.20859,3.07569 2.42431,3.07569 -0.17912,0 -1.41662,-1.2375 -2.75,-2.75 z m 7.88278,0 c -1.76189,-2.0516 -3.08309,-4.25 -2.55417,-4.25 0.20403,0 1.36906,1.35 2.58896,3 2.41033,3.26015 2.38777,4.07089 -0.0348,1.25 z m 26.65396,-0.29303 c -1.51896,-1.67845 -1.56042,-1.93233 -0.2323,-1.42269 0.88914,0.3412 1.86228,1.26056 2.16255,2.04304 0.74711,1.94695 0.24796,1.78653 -1.93025,-0.62035 z m 104.65385,-0.34989 c -1.73765,-0.96318 -2.0403,-1.53515 -1.1149,-2.10708 0.9254,-0.57193 0.62275,-1.1439 -1.1149,-2.10708 -1.31181,-0.72713 -2.01802,-1.338 -1.56936,-1.35749 1.76901,-0.0768 4.70452,2.12278 4.11213,3.08128 -0.34548,0.559 0.20442,1.64711 1.22199,2.41802 2.32947,1.7648 1.58194,1.80003 -1.53496,0.0723 z m -148.6458,-4.16259 c 1.08301,-0.81697 3.69865,-1.95112 5.81255,-2.52033 2.11389,-0.56921 4.4903,-1.28315 5.2809,-1.58654 0.7906,-0.30338 1.43745,-0.0534 1.43745,0.55539 0,0.60884 -0.89517,1.10699 -1.98927,1.10699 -1.0941,0 -4.3566,0.88423 -7.25,1.96495 -3.66178,1.36772 -4.66224,1.51347 -3.29163,0.47954 z m 141.3434,-2.1276 c 0.72187,-0.28888 1.58437,-0.25335 1.91667,0.079 0.33229,0.33229 -0.25834,0.56864 -1.3125,0.52522 -1.16495,-0.048 -1.4019,-0.28495 -0.60417,-0.60417 z m -126.13697,-8.03473 c 4.56665,-0.57202 5.99297,-2.64778 4.54355,-6.61233 -1.05153,-2.87621 -1.02272,-2.99003 0.31102,-1.2287 3.16461,4.17914 0.56947,8.67177 -4.85153,8.39883 l -3.17857,-0.16003 3.17553,-0.39777 z m 116.35965,-1.21642 c -1.35807,-2.53757 -1.28608,-4.10167 0.0806,-1.75192 0.58025,0.9976 2.02907,2.20657 3.21959,2.68661 l 2.1646,0.8728 -2.21482,0.0634 c -1.21815,0.0349 -2.68065,-0.80703 -3.25,-1.87088 z m -122.47848,-1.28825 c -2.28386,-3.26067 -1.91003,-6.07273 1.1933,-8.97624 4.24438,-3.97109 8.68574,-5.80125 14.07822,-5.80125 4.88488,0 11.47292,2.06021 12.64322,3.95378 0.33451,0.54125 -1.32222,0.10795 -3.68162,-0.96288 -8.42606,-3.82425 -20.13447,-1.19193 -23.78982,5.34848 -1.35107,2.41743 -1.33087,2.98061 0.20349,5.67226 1.99471,3.49923 1.59732,3.96977 -0.64679,0.76585 z m 132.6933,0.64377 c 7.34957,-8.73021 -10.22999,-18.24471 -23,-12.44819 -5.36009,2.43303 -5.57053,1.74126 -0.28984,-0.95275 4.7143,-2.40505 12.57216,-2.6604 17.57271,-0.57103 7.67182,3.20549 10.78162,10.28115 6.21713,14.14572 -2.24773,1.90307 -2.24823,1.90289 -0.5,-0.17375 z m -10.23469,-5.12157 c -0.008,-0.66017 0.76844,-1.63892 1.72636,-2.175 2.62797,-1.47068 0.95222,-2.35082 -5.9757,-3.13856 -6.06917,-0.69011 -6.11577,-0.71678 -1.48385,-0.84931 2.63016,-0.0752 6.45516,0.58098 8.5,1.45829 3.7014,1.58804 3.70692,1.59934 1.24611,2.54981 -1.35947,0.52509 -2.81508,1.49479 -3.23469,2.15489 -0.59342,0.93355 -0.76632,0.93352 -0.77823,-1.2e-4 z m -117.01531,-2.85072 c 0,-1.28754 7.27302,-3.43864 11.21788,-3.31785 3.88915,0.11908 3.73485,0.20079 -1.68133,0.89034 -3.27989,0.41758 -6.1299,1.25858 -6.33333,1.86889 -0.36933,1.10797 -3.20322,1.60218 -3.20322,0.55862 z m 103.8125,-2.13208 c 0.72187,-0.28888 1.58437,-0.25335 1.91667,0.079 0.33229,0.33229 -0.25834,0.56864 -1.3125,0.52522 -1.16495,-0.048 -1.4019,-0.28495 -0.60417,-0.60417 z m -71.3125,-3.31689 c -1.64131,-0.70529 -1.37673,-0.87204 1.47524,-0.92972 1.91138,-0.0387 6.48765,-1.25216 10.16948,-2.69668 7.66711,-3.00808 12.39638,-2.73415 15.46799,0.89596 l 1.88729,2.23044 -2.32987,-1.97727 c -3.20248,-2.71782 -8.30619,-2.47509 -16.34068,0.77714 -7.25962,2.93857 -7.39542,2.96092 -10.32945,1.70013 z m -8.83333,-6.66667 c -1.44892,-1.44892 -0.53832,-4.37132 1.84959,-5.93594 3.68131,-2.41209 11.88325,-1.45243 15.10275,1.76707 l 2.44093,2.44094 -3.77997,-0.47378 c -3.22389,-0.40408 -3.42697,-0.56209 -1.38046,-1.07406 l 2.39951,-0.60029 -2.69656,-1.22863 c -3.29063,-1.49932 -9.04977,-1.5948 -11.6682,-0.19346 -2.96123,1.58481 -2.46914,4.75095 0.81574,5.24857 l 2.75,0.41659 -2.58333,0.14983 c -1.42084,0.0824 -2.88334,-0.15017 -3.25,-0.51684 z m 72.33333,-0.0542 c 3.8548,-0.69154 4.40276,-1.87638 1.98565,-4.29349 -1.88572,-1.88572 -3.02006,-2.14753 -7.64346,-1.76412 -3.02741,0.25106 -4.85692,0.0872 -4.13565,-0.37034 0.7114,-0.45131 3.22641,-0.82746 5.58891,-0.83588 3.28019,-0.0117 4.8963,0.58553 6.83753,2.52676 2.05702,2.05702 2.3112,2.82026 1.3321,4 -0.66548,0.80186 -2.39237,1.39665 -3.83752,1.32175 l -2.62756,-0.13618 2.5,-0.4485 z m -15,-2.65669 c 0,-0.20766 0.76138,-0.99516 1.69196,-1.75 0.95705,-0.77633 1.38496,-0.86057 0.98517,-0.19394 -0.44032,0.73418 0.14709,1.34262 1.55804,1.61381 1.6558,0.31826 1.39089,0.47194 -0.98517,0.5715 -1.7875,0.0749 -3.25,-0.0337 -3.25,-0.24137 z m -29.5,-1.62245 c -1.63041,-0.70061 -1.68751,-0.87242 -0.30902,-0.92972 0.93004,-0.0387 1.9691,0.37972 2.30902,0.92972 0.71066,1.14988 0.67591,1.14988 -2,0 z m 18.98467,-1.97036 c 0.84482,-1.63369 2.45363,-3.46143 3.57513,-4.06165 2.56953,-1.37516 7.2047,-0.87893 7.53808,0.80701 0.13867,0.70125 0.0234,0.81375 -0.25621,0.25 -0.96809,-1.95203 -5.94966,-1.07118 -8.34167,1.475 -1.63415,1.73947 -1.91534,2.50466 -0.92431,2.51531 1.18177,0.0127 1.16888,0.18039 -0.0757,0.98469 -2.6249,1.69634 -3.09521,1.0848 -1.51533,-1.97036 z m -27.92764,-0.96663 c -0.96413,-1.06534 -1.45731,-2.41534 -1.09597,-3 1.10816,-1.79304 6.18494,-1.1813 8.67816,1.04569 l 2.36078,2.10871 -2.80914,-1.67051 c -2.9328,-1.74404 -7.2723,-1.77279 -7.07866,-0.0469 0.0617,0.55 1.18671,1.55587 2.5,2.23526 1.56223,0.80817 1.83633,1.24035 0.79279,1.25 -0.87726,0.008 -2.38384,-0.8569 -3.34796,-1.92225 z m 17.44297,-5.06301 c 0,-0.55 0.47656,-1 1.05902,-1 0.58246,0 0.7809,0.45 0.44098,1 -0.33992,0.55 -0.81648,1 -1.05902,1 -0.24254,0 -0.44098,-0.45 -0.44098,-1 z M 319.11468,577.6279 c 0.40407,-0.59825 0.74157,-3.22522 0.75,-5.83772 0.0137,-4.25979 -0.21689,-4.75141 -2.23469,-4.76365 -1.2375,-0.008 -3.2625,-0.285 -4.5,-0.61664 -2.13532,-0.57224 -2.25,-0.32034 -2.25,4.94223 0,6.31542 1.66367,8.83896 5.23241,7.93676 1.24717,-0.3153 2.5982,-1.06274 3.00228,-1.66098 z m 24.76531,-16.66818 c 0,-5.38949 -0.24022,-6.07187 -2.5,-7.10149 -3.3726,-1.53667 -6.70765,0.0617 -8.69631,4.16785 l -1.54349,3.18696 -0.65769,-2.62044 c -0.36173,-1.44124 -1.78689,-3.13494 -3.16704,-3.76377 -3.4185,-1.55758 -5.50271,0.6283 -6.1601,6.4606 -0.49169,4.36228 -0.43451,4.46892 2.73622,5.10307 5.62196,1.12439 6.97802,0.81941 7.12459,-1.60232 l 0.13618,-2.25 0.42681,2.19992 c 0.36446,1.87856 1.18453,2.24377 5.61382,2.5 2.85286,0.16505 5.52451,0.16102 5.93701,-0.009 0.4125,-0.16996 0.75,-2.9921 0.75,-6.27144 z m 43.75,5.45017 c 1.84356,-0.49405 2.25,-1.30447 2.25,-4.48634 0,-3.76745 -2.61051,-7.88337 -5,-7.88337 -2.57739,0 -5,4.11844 -5,8.5 0,4.24573 0.15538,4.49923 2.75,4.48635 1.5125,-0.008 3.7625,-0.285 5,-0.61664 z m -82.36512,-42.5651 c 3.58131,-1.81753 6.53055,-3.52961 6.55387,-3.80461 0.092,-1.08571 -14.60435,-9.03424 -17.8188,-9.63728 -3.95653,-0.74225 -12.14804,0.66636 -12.42896,2.13728 -0.10505,0.55 1.15901,1.45 2.80901,2 2.9412,0.9804 3.95144,3.31841 2.02896,4.69563 -1.53093,1.09671 0.11065,2.05353 2.32007,1.35229 1.09987,-0.34909 3.72128,-1.7511 5.82536,-3.11559 l 3.82561,-2.4809 -3.5,3.1257 c -3.16357,2.82524 -3.25969,3.05612 -1,2.40189 1.375,-0.39809 2.96847,-1.09578 3.54104,-1.55043 0.64254,-0.51021 1.09733,-0.0792 1.18811,1.12591 0.11987,1.59123 -0.30408,1.83931 -2.29103,1.34061 -2.2345,-0.56082 -3.50758,0.84012 -1.68812,1.85766 0.4125,0.23069 0.075,0.21032 -0.75,-0.0453 -0.825,-0.25559 -2.625,-0.66201 -4,-0.90317 l -2.5,-0.43847 2.36078,2.06706 c 2.68384,2.34993 1.53576,2.83424 -1.41965,0.59887 -3.15476,-2.38614 -3.98243,-1.73846 -1.36544,1.0685 2.1359,2.29096 2.98186,2.53538 7.11102,2.05461 2.57768,-0.30013 7.61686,-2.03276 11.19817,-3.8503 z m -14.88488,-7.80461 c 0.99549,-1.1 2.03498,-2 2.30997,-2 0.275,0 -0.31448,0.9 -1.30997,2 -0.99549,1.1 -2.03498,2 -2.30998,2 -0.275,0 0.31449,-0.9 1.30998,-2 z m -5.5,9.55902 c 0,-0.24254 -0.45,-0.7191 -1,-1.05902 -0.55,-0.33992 -1,-0.14148 -1,0.44098 0,0.58246 0.45,1.05902 1,1.05902 0.55,0 1,-0.19844 1,-0.44098 z m 144,-0.55902 c 0,-0.55 -0.42344,-1 -0.94098,-1 -0.51754,0 -1.2191,0.45 -1.55902,1 -0.33992,0.55 0.0835,1 0.94098,1 0.85746,0 1.55902,-0.45 1.55902,-1 z m -151.65335,-1.94034 c 3.42826,-0.79555 8.65335,-4.42245 8.65335,-6.00657 0,-0.32906 -1.59817,-1.45895 -3.55148,-2.51088 -3.36295,-1.81107 -3.70294,-1.82314 -6.4043,-0.22741 -1.56904,0.92686 -3.79587,1.6852 -4.94851,1.6852 -1.71869,0 -2.09571,0.61466 -2.09571,3.41667 0,4.51561 1.59196,5.21044 8.34665,3.64299 z m 164.10121,-0.30966 c 1.81031,-5.8762 1.65415,-6.75 -1.2063,-6.75 -1.5381,0 -3.83387,-0.72657 -5.10171,-1.6146 -2.13136,-1.49286 -2.60054,-1.48141 -6.22251,0.15187 -2.15454,0.97157 -3.91734,2.06969 -3.91734,2.44029 0,0.3706 1.0956,1.70308 2.43467,2.96106 3.61273,3.39399 13.23875,5.3252 14.01319,2.81138 z m -174.04251,-3.5 c -1.01441,-5.55116 -2.02457,-7.8103 -4.59409,-10.27427 -3.17921,-3.04862 -9.67707,-5.92735 -13.43882,-5.95377 -3.86749,-0.0272 -5.74067,-2.14586 -5.59224,-6.32524 0.1788,-5.03448 -0.76832,-9.69672 -1.96985,-9.69672 -1.43079,0 -0.41433,13.23711 1.36522,17.77891 1.17005,2.98621 1.55429,3.21461 4.30458,2.55868 5.44623,-1.29892 7.84941,-0.64567 11.2415,3.05574 2.4159,2.6362 3.27835,4.5104 3.27835,7.12421 0,2.74364 0.50956,3.75173 2.25,4.4513 3.61659,1.45369 3.87686,1.22942 3.15535,-2.71884 z m 193.35207,-4.74599 c 2.60842,-2.36905 4.51758,-4.53648 4.24258,-4.8165 -0.275,-0.28003 -2.1106,-0.80993 -4.07911,-1.17756 -2.96408,-0.55355 -4.1072,-0.22406 -6.65223,1.91744 -1.71287,1.44129 -3.51327,4.24277 -4.06753,6.32923 -0.78389,2.95084 -1.01552,3.21408 -1.09404,1.24338 -0.12444,-3.12296 3.07234,-8.49048 5.98521,-10.0494 1.24399,-0.66576 4.30991,-0.97424 7.05823,-0.71016 l 4.85891,0.46688 1.49528,-5.03516 c 1.6507,-5.55851 2.02159,-15.67216 0.57474,-15.67216 -1.29041,0 -2.36383,5.52867 -1.56319,8.05125 0.36591,1.1529 0.11985,3.41301 -0.54681,5.02247 -1.0219,2.4671 -1.7815,2.92973 -4.84078,2.94824 -4.51739,0.0273 -10.86718,2.88731 -14.02596,6.31735 -2.24552,2.43835 -5.34138,11.33675 -4.46716,12.83995 0.95446,1.64118 12.62358,-3.58976 17.12186,-7.67525 z m -200.81628,-0.6461 c -1.61074,-3.88867 -6.17736,-6.22377 -10.56262,-5.40109 -1.85819,0.3486 -3.37852,0.97515 -3.37852,1.39234 0,1.40157 6.46271,6.91133 10.5,8.95173 l 4,2.02156 0.33199,-2.00616 c 0.1826,-1.1034 -0.21829,-3.33467 -0.89085,-4.95838 z"
       id="path4738"
       inkscape:connector-curvature="0" />
  </g>
</svg>
