<svg xmlns="http://www.w3.org/2000/svg" version="1.1" width="128.7mm" height="76.7mm" viewBox = " 0 0 456.02399699999995 271.771877" >
<!-- Front--> 
<g transform="translate(22.5000185, 22.5000185) " > 
<polygon style="stroke:#000000; fill:none; stroke-width:0.90000074" points="0, 0 23.740177, 0 23.740177, 10.62993 46.06303, 10.62993 46.06303, 0 60.944931999999994, 0 60.944931999999994, 10.62993 74.40951, 10.62993 74.40951, 0 89.29141200000001, 0 89.29141200000001, 10.62993 102.75599, 10.62993 102.75599, 0 117.637892, 0 117.637892, 10.62993 139.96074499999997, 10.62993 139.96074499999997, 0 163.70092200000002, 0 163.70092200000002, 18.425212 153.07099200000002, 18.425212 153.07099200000002, 35.433099999999996 163.70092200000002, 35.433099999999996 163.70092200000002, 50.31500199999999 153.07099200000002, 50.31500199999999 153.07099200000002, 63.779579999999996 163.70092200000002, 63.779579999999996 163.70092200000002, 78.661482 153.07099200000002, 78.661482 153.07099200000002, 95.66936999999999 163.70092200000002, 95.66936999999999 163.700922, 114.094582 139.96074499999997, 114.094582 139.96074499999997, 103.464652 117.637892, 103.464652 117.637892, 114.094582 102.75599, 114.094582 102.75599, 103.464652 89.29141200000001, 103.464652 89.29141200000001, 114.094582 74.40951, 114.094582 74.40951, 103.464652 60.944931999999994, 103.464652 60.944931999999994, 114.094582 46.06303, 114.094582 46.06303, 103.464652 23.740177, 103.464652 23.740177, 114.094582 0, 114.094582 0, 95.66936999999999 10.62993, 95.66936999999999 10.62993, 78.661482 0, 78.661482 0, 63.779579999999996 10.62993, 63.779579999999996 10.62993, 50.31500199999999 0, 50.31500199999999 0, 35.433099999999996 10.62993, 35.433099999999996 10.62993, 18.425212 0, 18.425212 "/> 
</g>
<!-- Back--> 
<g transform="translate(186.2009405, 22.5000185) " > 
<polygon style="stroke:#000000; fill:none; stroke-width:0.90000074" points="0, 0 23.740177, 0 23.740177, 10.62993 46.06303, 10.62993 46.06303, 0 60.944931999999994, 0 60.944931999999994, 10.62993 74.40951, 10.62993 74.40951, 0 89.29141200000001, 0 89.29141200000001, 10.62993 102.75599, 10.62993 102.75599, 0 117.637892, 0 117.637892, 10.62993 139.96074499999997, 10.62993 139.96074499999997, 0 163.70092200000002, 0 163.70092200000002, 18.425212 153.07099200000002, 18.425212 153.07099200000002, 35.433099999999996 163.70092200000002, 35.433099999999996 163.70092200000002, 50.31500199999999 153.07099200000002, 50.31500199999999 153.07099200000002, 63.779579999999996 163.70092200000002, 63.779579999999996 163.70092200000002, 78.661482 153.07099200000002, 78.661482 153.07099200000002, 95.66936999999999 163.70092200000002, 95.66936999999999 163.700922, 114.094582 139.96074499999997, 114.094582 139.96074499999997, 103.464652 117.637892, 103.464652 117.637892, 114.094582 102.75599, 114.094582 102.75599, 103.464652 89.29141200000001, 103.464652 89.29141200000001, 114.094582 74.40951, 114.094582 74.40951, 103.464652 60.944931999999994, 103.464652 60.944931999999994, 114.094582 46.06303, 114.094582 46.06303, 103.464652 23.740177, 103.464652 23.740177, 114.094582 0, 114.094582 0, 95.66936999999999 10.62993, 95.66936999999999 10.62993, 78.661482 0, 78.661482 0, 63.779579999999996 10.62993, 63.779579999999996 10.62993, 50.31500199999999 0, 50.31500199999999 0, 35.433099999999996 10.62993, 35.433099999999996 10.62993, 18.425212 0, 18.425212 "/> 
</g>
<!-- Left--> 
<g transform="translate(349.9018625, 22.5000185) " > 
<polygon style="stroke:#000000; fill:none; stroke-width:0.90000074" points="10.62993, 0 18.425212, 0 18.425212, 10.62993 35.433099999999996, 10.62993 35.433099999999996, 0 50.31500199999999, 0 50.31500199999999, 10.62993 67.32289, 10.62993 67.32289, 0 75.118172, 0 75.118172, 17.716549999999998 85.748102, 17.716549999999998 85.748102, 36.14176199999999 75.118172, 36.14176199999999 75.118172, 49.606339999999996 85.748102, 49.606339999999996 85.748102, 64.488242 75.118172, 64.488242 75.118172, 77.95282 85.748102, 77.95282 85.748102, 96.37803199999999 75.118172, 96.37803199999999 75.11817199999999, 114.094582 67.32289, 114.094582 67.32289, 103.464652 50.31500199999999, 103.464652 50.31500199999999, 114.094582 35.433099999999996, 114.094582 35.433099999999996, 103.464652 18.425212, 103.464652 18.425212, 114.094582 10.62993, 114.094582 10.62993, 96.37803199999999 0, 96.37803199999999 0, 77.95282 10.62993, 77.95282 10.62993, 64.488242 0, 64.488242 0, 49.606339999999996 10.62993, 49.606339999999996 10.62993, 36.14176199999999 0, 36.14176199999999 0, 17.716549999999998 10.62993, 17.716549999999998 "/> 
</g>
<!-- Right--> 
<g transform="translate(349.9018625, 136.5946005) " > 
<polygon style="stroke:#000000; fill:none; stroke-width:0.90000074" points="10.62993, 0 18.425212, 0 18.425212, 10.62993 35.433099999999996, 10.62993 35.433099999999996, 0 50.31500199999999, 0 50.31500199999999, 10.62993 67.32289, 10.62993 67.32289, 0 75.118172, 0 75.118172, 17.716549999999998 85.748102, 17.716549999999998 85.748102, 36.14176199999999 75.118172, 36.14176199999999 75.118172, 49.606339999999996 85.748102, 49.606339999999996 85.748102, 64.488242 75.118172, 64.488242 75.118172, 77.95282 85.748102, 77.95282 85.748102, 96.37803199999999 75.118172, 96.37803199999999 75.11817199999999, 114.094582 67.32289, 114.094582 67.32289, 103.464652 50.31500199999999, 103.464652 50.31500199999999, 114.094582 35.433099999999996, 114.094582 35.433099999999996, 103.464652 18.425212, 103.464652 18.425212, 114.094582 10.62993, 114.094582 10.62993, 96.37803199999999 0, 96.37803199999999 0, 77.95282 10.62993, 77.95282 10.62993, 64.488242 0, 64.488242 0, 49.606339999999996 10.62993, 49.606339999999996 10.62993, 36.14176199999999 0, 36.14176199999999 0, 17.716549999999998 10.62993, 17.716549999999998 "/> 
</g>
<!-- Top--> 
<g transform="translate(22.5000185, 136.5946005) " > 
<polygon style="stroke:#000000; fill:none; stroke-width:0.90000074" points="10.62993, 10.62993 23.031515, 10.62993 23.031515, 0 46.771691999999994, 0 46.771691999999994, 10.62993 60.23627, 10.62993 60.23627, 0 75.118172, 0 75.118172, 10.62993 88.58275, 10.62993 88.58275, 0 103.464652, 0 103.464652, 10.62993 116.92922999999999, 10.62993 116.92922999999999, 0 140.66940699999998, 0 140.66940699999998, 10.62993 153.07099200000002, 10.62993 153.07099200000002, 17.716549999999998 163.70092200000002, 17.716549999999998 163.70092200000002, 36.14176199999999 153.07099200000002, 36.14176199999999 153.07099200000002, 49.606339999999996 163.70092200000002, 49.606339999999996 163.70092200000002, 68.031552 153.07099200000002, 68.031552 153.070992, 75.118172 140.66940699999998, 75.118172 140.66940699999998, 85.748102 116.92922999999999, 85.748102 116.92922999999999, 75.118172 103.464652, 75.118172 103.464652, 85.748102 88.58275, 85.748102 88.58275, 75.118172 75.118172, 75.118172 75.118172, 85.748102 60.23627, 85.748102 60.23627, 75.118172 46.771691999999994, 75.118172 46.771691999999994, 85.748102 23.031515, 85.748102 23.031515, 75.118172 10.62993, 75.11817199999999 10.62993, 68.031552 0, 68.031552 0, 49.606339999999996 10.62993, 49.606339999999996 10.62993, 36.14176199999999 0, 36.14176199999999 0, 17.716549999999998 10.62993, 17.716549999999998 "/> 
</g>
<!-- Bottom--> 
<g transform="translate(186.2009405, 136.5946005) " > 
<polygon style="stroke:#000000; fill:none; stroke-width:0.90000074" points="10.62993, 10.62993 23.031515, 10.62993 23.031515, 0 46.771691999999994, 0 46.771691999999994, 10.62993 60.23627, 10.62993 60.23627, 0 75.118172, 0 75.118172, 10.62993 88.58275, 10.62993 88.58275, 0 103.464652, 0 103.464652, 10.62993 116.92922999999999, 10.62993 116.92922999999999, 0 140.66940699999998, 0 140.66940699999998, 10.62993 153.07099200000002, 10.62993 153.07099200000002, 17.716549999999998 163.70092200000002, 17.716549999999998 163.70092200000002, 36.14176199999999 153.07099200000002, 36.14176199999999 153.07099200000002, 49.606339999999996 163.70092200000002, 49.606339999999996 163.70092200000002, 68.031552 153.07099200000002, 68.031552 153.070992, 75.118172 140.66940699999998, 75.118172 140.66940699999998, 85.748102 116.92922999999999, 85.748102 116.92922999999999, 75.118172 103.464652, 75.118172 103.464652, 85.748102 88.58275, 85.748102 88.58275, 75.118172 75.118172, 75.118172 75.118172, 85.748102 60.23627, 85.748102 60.23627, 75.118172 46.771691999999994, 75.118172 46.771691999999994, 85.748102 23.031515, 85.748102 23.031515, 75.118172 10.62993, 75.11817199999999 10.62993, 68.031552 0, 68.031552 0, 49.606339999999996 10.62993, 49.606339999999996 10.62993, 36.14176199999999 0, 36.14176199999999 0, 17.716549999999998 10.62993, 17.716549999999998 "/> 
</g></svg>