<?xml version="1.0" encoding="UTF-8" standalone="no"?>
<svg
   xmlns:dc="http://purl.org/dc/elements/1.1/"
   xmlns:cc="http://creativecommons.org/ns#"
   xmlns:rdf="http://www.w3.org/1999/02/22-rdf-syntax-ns#"
   xmlns:svg="http://www.w3.org/2000/svg"
   xmlns="http://www.w3.org/2000/svg"
   xmlns:sodipodi="http://sodipodi.sourceforge.net/DTD/sodipodi-0.dtd"
   xmlns:inkscape="http://www.inkscape.org/namespaces/inkscape"
   version="1.1"
   width="110.7mm"
   height="64.7mm"
   viewBox=" 0 0 392.244417 229.252157"
   id="svg4133"
   inkscape:version="0.91 r13725"
   sodipodi:docname="caseplans.svg">
  <metadata
     id="metadata4163">
    <rdf:RDF>
      <cc:Work
         rdf:about="">
        <dc:format>image/svg+xml</dc:format>
        <dc:type
           rdf:resource="http://purl.org/dc/dcmitype/StillImage" />
        <dc:title></dc:title>
      </cc:Work>
    </rdf:RDF>
  </metadata>
  <defs
     id="defs4161" />
  <sodipodi:namedview
     pagecolor="#ffffff"
     bordercolor="#666666"
     borderopacity="1"
     objecttolerance="10"
     gridtolerance="10"
     guidetolerance="10"
     inkscape:pageopacity="0"
     inkscape:pageshadow="2"
     inkscape:window-width="1440"
     inkscape:window-height="837"
     id="namedview4159"
     showgrid="false"
     inkscape:zoom="2.4449062"
     inkscape:cx="196.12204"
     inkscape:cy="114.62598"
     inkscape:window-x="-4"
     inkscape:window-y="-4"
     inkscape:window-maximized="1"
     inkscape:current-layer="svg4133" />
  <!-- Front-->
  <path
     inkscape:connector-curvature="0"
     id="polygon4137"
     d="m 22.5,22.5 0,15.767578 10.630859,0 0,14.34961 -10.630859,0 0,11.339843 10.630859,0 0,9.921875 -10.630859,0 0,11.337891 10.630859,0 0,14.349609 -10.630859,0 0,15.767574 17.539062,0 0,-10.6289 16.123047,0 0,10.6289 11.337891,0 0,-10.6289 9.921875,0 0,10.6289 11.337891,0 0,-10.6289 9.921875,0 0,10.6289 11.337889,0 0,-10.6289 9.92188,0 0,10.6289 11.33789,0 0,-10.6289 16.12304,0 0,10.6289 17.53907,0 0,-15.767574 -10.63086,0 0,-14.349609 10.63086,0 0,-11.337891 -10.63086,0 0,-9.921875 10.63086,0 0,-11.339843 -10.63086,0 0,-14.34961 10.63086,0 0,-15.767578 -17.53907,0 0,10.630859 -16.12304,0 0,-10.630859 -11.33789,0 0,10.630859 -9.92188,0 0,-10.630859 -11.337889,0 0,10.630859 -9.921875,0 0,-10.630859 -11.337891,0 0,10.630859 -9.921875,0 0,-10.630859 -11.337891,0 0,10.630859 -16.123047,0 0,-10.630859 L 22.5,22.5 Z"
     style="fill:none;stroke:#000000;stroke-width:0.90000075" />
  <!-- Back-->
  <path
     inkscape:connector-curvature="0"
     id="polygon4141"
     d="m 164.94141,22.5 0,15.767578 10.6289,0 0,14.34961 -10.6289,0 0,11.339843 10.6289,0 0,9.921875 -10.6289,0 0,11.337891 10.6289,0 0,14.349609 -10.6289,0 0,15.767574 17.53906,0 0,-10.6289 16.12109,0 0,10.6289 11.33985,0 0,-10.6289 9.91992,0 0,10.6289 11.33984,0 0,-10.6289 9.91992,0 0,10.6289 11.33985,0 0,-10.6289 9.92187,0 0,10.6289 11.33789,0 0,-10.6289 16.1211,0 0,10.6289 17.54101,0 0,-15.767574 -10.63086,0 0,-14.349609 10.63086,0 0,-11.337891 -10.63086,0 0,-9.921875 10.63086,0 0,-11.339843 -10.63086,0 0,-14.34961 10.63086,0 0,-15.767578 -17.54101,0 0,10.630859 -16.1211,0 0,-10.630859 -11.33789,0 0,10.630859 -9.92187,0 0,-10.630859 -11.33985,0 0,10.630859 -9.91992,0 0,-10.630859 -11.33984,0 0,10.630859 -9.91992,0 0,-10.630859 -11.33985,0 0,10.630859 -16.12109,0 0,-10.630859 -17.53906,0 z"
     style="fill:none;stroke:#000000;stroke-width:0.90000075" />
  <!-- Left-->
  <path
     inkscape:connector-curvature="0"
     id="polygon4145"
     d="m 318.01172,22.5 0,15.058594 -10.62891,0 0,15.767578 10.62891,0 0,9.921875 -10.62891,0 0,11.337891 10.62891,0 0,9.921874 -10.62891,0 0,15.767578 10.62891,0 0,15.05859 3.36719,0 0,-10.6289 12.57812,0 0,10.6289 11.33789,0 0,-10.6289 12.57813,0 0,10.6289 3.36718,0 0,-15.05859 10.62891,0 0,-15.767578 -10.62891,0 0,-9.921874 10.62891,0 0,-11.337891 -10.62891,0 0,-9.921875 10.62891,0 0,-15.767578 -10.62891,0 0,-15.058594 -3.36718,0 0,10.630859 -12.57813,0 0,-10.630859 -11.33789,0 0,10.630859 -12.57812,0 0,-10.630859 -3.36719,0 z"
     style="fill:none;stroke:#000000;stroke-width:0.90000075" />
  <!-- Right-->
  <path
     inkscape:connector-curvature="0"
     id="polygon4149"
     d="m 318.01172,115.33398 0,15.06055 -10.62891,0 0,15.76758 10.62891,0 0,9.91992 -10.62891,0 0,11.33985 10.62891,0 0,9.91992 -10.62891,0 0,15.76758 10.62891,0 0,15.06054 3.36719,0 0,-10.63086 12.57812,0 0,10.63086 11.33789,0 0,-10.63086 12.57813,0 0,10.63086 3.36718,0 0,-15.06054 10.62891,0 0,-15.76758 -10.62891,0 0,-9.91992 10.62891,0 0,-11.33985 -10.62891,0 0,-9.91992 10.62891,0 0,-15.76758 -10.62891,0 0,-15.06055 -3.36718,0 0,10.63086 -12.57813,0 0,-10.63086 -11.33789,0 0,10.63086 -12.57812,0 0,-10.63086 -3.36719,0 z"
     style="fill:none;stroke:#000000;stroke-width:0.90000075" />
  <!-- Top-->
  <path
     inkscape:connector-curvature="0"
     id="polygon4153"
     d="m 39.330078,115.33398 0,10.63086 -6.199219,0 0,2.65625 -10.630859,0 0,13.9961 10.630859,0 0,9.92187 -10.630859,0 0,13.9961 10.630859,0 0,2.6582 6.199219,0 0,10.62891 17.539063,0 0,-10.62891 9.921875,0 0,10.62891 11.339843,0 0,-10.62891 9.919922,0 0,10.62891 11.339844,0 0,-10.62891 9.919925,0 0,10.62891 11.33984,0 0,-10.62891 9.91992,0 0,10.62891 17.53907,0 0,-10.62891 6.20117,0 0,-2.6582 10.63086,0 0,-13.9961 -10.63086,0 0,-9.92187 10.63086,0 0,-13.9961 -10.63086,0 0,-2.65625 -6.20117,0 0,-10.63086 -17.53907,0 0,10.63086 -9.91992,0 0,-10.63086 -11.33984,0 0,10.63086 -9.919925,0 0,-10.63086 -11.339844,0 0,10.63086 -9.919922,0 0,-10.63086 -11.339843,0 0,10.63086 -9.921875,0 0,-10.63086 -17.539063,0 z"
     style="fill:none;stroke:#000000;stroke-width:0.90000075" />
  <!-- Bottom-->
  <path
     inkscape:connector-curvature="0"
     id="polygon4157"
     d="m 181.77148,115.33398 0,10.63086 -6.20117,0 0,2.65625 -10.6289,0 0,13.9961 10.6289,0 0,9.92187 -10.6289,0 0,13.9961 10.6289,0 0,2.6582 6.20117,0 0,10.62891 17.53907,0 0,-10.62891 9.92187,0 0,10.62891 11.33789,0 0,-10.62891 9.92188,0 0,10.62891 11.33789,0 0,-10.62891 9.92187,0 0,10.62891 11.33789,0 0,-10.62891 9.92188,0 0,10.62891 17.53906,0 0,-10.62891 6.20117,0 0,-2.6582 10.63086,0 0,-13.9961 -10.63086,0 0,-9.92187 10.63086,0 0,-13.9961 -10.63086,0 0,-2.65625 -6.20117,0 0,-10.63086 -17.53906,0 0,10.63086 -9.92188,0 0,-10.63086 -11.33789,0 0,10.63086 -9.92187,0 0,-10.63086 -11.33789,0 0,10.63086 -9.92188,0 0,-10.63086 -11.33789,0 0,10.63086 -9.92187,0 0,-10.63086 -17.53907,0 z"
     style="fill:none;stroke:#000000;stroke-width:0.90000075" />
</svg>
