  0
SECTION
  2
HEADER
  9
$ACADVER
  1
AC1014
  9
$HANDSEED
  5
FFFF
  9
$MEASUREMENT
 70
     1
  0
ENDSEC
  0
SECTION
  2
TABLES
  0
TABLE
  2
VPORT
  5
8
330
0
100
AcDbSymbolTable
 70
     4
  0
VPORT
  5
2E
330
8
100
AcDbSymbolTableRecord
100
AcDbViewportTableRecord
  2
*ACTIVE
 70
     0
 10
0.0
 20
0.0
 11
1.0
 21
1.0
 12
210.0
 22
148.5
 13
0.0
 23
0.0
 14
10.0
 24
10.0
 15
10.0
 25
10.0
 16
0.0
 26
0.0
 36
1.0
 17
0.0
 27
0.0
 37
0.0
 40
341.0
 41
1.24
 42
50.0
 43
0.0
 44
0.0
 50
0.0
 51
0.0
 71
     0
 72
   100
 73
     1
 74
     3
 75
     0
 76
     0
 77
     0
 78
     0
  0
ENDTAB
  0
TABLE
  2
LTYPE
  5
5
330
0
100
AcDbSymbolTable
 70
     1
  0
LTYPE
  5
14
330
5
100
AcDbSymbolTableRecord
100
AcDbLinetypeTableRecord
  2
BYBLOCK
 70
     0
  3

 72
    65
 73
     0
 40
0.0
  0
LTYPE
  5
15
330
5
100
AcDbSymbolTableRecord
100
AcDbLinetypeTableRecord
  2
BYLAYER
 70
     0
  3

 72
    65
 73
     0
 40
0.0
  0
LTYPE
  5
16
330
5
100
AcDbSymbolTableRecord
100
AcDbLinetypeTableRecord
  2
CONTINUOUS
 70
     0
  3
Solid line
 72
    65
 73
     0
 40
0.0
  0
ENDTAB
  0
TABLE
  2
LAYER
  5
2
100
AcDbSymbolTable
 70
2
  0
LAYER
  5
50
100
AcDbSymbolTableRecord
100
AcDbLayerTableRecord
  2
0
 70
0
  6
CONTINUOUS
  0
LAYER
  5
51
100
AcDbSymbolTableRecord
100
AcDbLayerTableRecord
  2
Layer_1
 70
0
  6
CONTINUOUS
  0
ENDTAB
  0
TABLE
  2
STYLE
  5
3
330
0
100
AcDbSymbolTable
 70
     1
  0
STYLE
  5
11
330
3
100
AcDbSymbolTableRecord
100
AcDbTextStyleTableRecord
  2
STANDARD
 70
     0
 40
0.0
 41
1.0
 50
0.0
 71
     0
 42
2.5
  3
txt
  4

  0
ENDTAB
  0
TABLE
  2
VIEW
  5
6
330
0
100
AcDbSymbolTable
 70
     0
  0
ENDTAB
  0
TABLE
  2
UCS
  5
7
330
0
100
AcDbSymbolTable
 70
     0
  0
ENDTAB
  0
TABLE
  2
APPID
  5
9
330
0
100
AcDbSymbolTable
 70
     2
  0
APPID
  5
12
330
9
100
AcDbSymbolTableRecord
100
AcDbRegAppTableRecord
  2
ACAD
 70
     0
  0
ENDTAB
  0
TABLE
  2
DIMSTYLE
  5
A
330
0
100
AcDbSymbolTable
 70
     1
  0
DIMSTYLE
105
27
330
A
100
AcDbSymbolTableRecord
100
AcDbDimStyleTableRecord
  2
ISO-25
 70
     0
  3

  4

  5

  6

  7

 40
1.0
 41
2.5
 42
0.625
 43
3.75
 44
1.25
 45
0.0
 46
0.0
 47
0.0
 48
0.0
140
2.5
141
2.5
142
0.0
143
0.03937007874016
144
1.0
145
0.0
146
1.0
147
0.625
 71
     0
 72
     0
 73
     0
 74
     0
 75
     0
 76
     0
 77
     1
 78
     8
170
     0
171
     3
172
     1
173
     0
174
     0
175
     0
176
     0
177
     0
178
     0
270
     2
271
     2
272
     2
273
     2
274
     3
340
11
275
     0
280
     0
281
     0
282
     0
283
     0
284
     8
285
     0
286
     0
287
     3
288
     0
  0
ENDTAB
  0
TABLE
  2
BLOCK_RECORD
  5
1
330
0
100
AcDbSymbolTable
 70
     1
  0
BLOCK_RECORD
  5
1F
330
1
100
AcDbSymbolTableRecord
100
AcDbBlockTableRecord
  2
*MODEL_SPACE
  0
BLOCK_RECORD
  5
1B
330
1
100
AcDbSymbolTableRecord
100
AcDbBlockTableRecord
  2
*PAPER_SPACE
  0
ENDTAB
  0
ENDSEC
  0
SECTION
  2
BLOCKS
  0
BLOCK
  5
20
330
1F
100
AcDbEntity
  8
0
100
AcDbBlockBegin
  2
*MODEL_SPACE
 70
     0
 10
0.0
 20
0.0
 30
0.0
  3
*MODEL_SPACE
  1

  0
ENDBLK
  5
21
330
1F
100
AcDbEntity
  8
0
100
AcDbBlockEnd
  0
BLOCK
  5
1C
330
1B
100
AcDbEntity
 67
     1
  8
0
100
AcDbBlockBegin
  2
*PAPER_SPACE
  1

  0
ENDBLK
  5
1D
330
1B
100
AcDbEntity
 67
     1
  8
0
100
AcDbBlockEnd
  0
ENDSEC
  0
SECTION
  2
ENTITIES
  0
LWPOLYLINE
  5
100
100
AcDbEntity
  8
Layer_1
 62
1
100
AcDbPolyline
 90
142
 70
0
 10
76.254556
 20
231.252529
 30
0.0
 10
72.931770
 20
231.165849
 30
0.0
 10
69.695447
 20
230.905812
 30
0.0
 10
66.631891
 20
230.472418
 30
0.0
 10
63.827406
 20
229.865672
 30
0.0
 10
60.557084
 20
228.891264
 30
0.0
 10
57.388030
 20
227.712119
 30
0.0
 10
54.327546
 20
226.335539
 30
0.0
 10
51.382936
 20
224.768825
 30
0.0
 10
48.561504
 20
223.019277
 30
0.0
 10
45.870553
 20
221.094195
 30
0.0
 10
43.317388
 20
219.000882
 30
0.0
 10
40.909310
 20
216.746637
 30
0.0
 10
38.653625
 20
214.338762
 30
0.0
 10
36.557636
 20
211.784556
 30
0.0
 10
34.628645
 20
209.091322
 30
0.0
 10
32.873957
 20
206.266360
 30
0.0
 10
31.300876
 20
203.316970
 30
0.0
 10
29.916705
 20
200.250454
 30
0.0
 10
28.728747
 20
197.074112
 30
0.0
 10
27.744306
 20
193.795245
 30
0.0
 10
27.138176
 20
191.014045
 30
0.0
 10
26.704848
 20
187.965761
 30
0.0
 10
26.444352
 20
184.739983
 30
0.0
 10
26.356722
 20
181.426297
 30
0.0
 10
26.441987
 20
178.114294
 30
0.0
 10
26.700179
 20
174.893562
 30
0.0
 10
27.131331
 20
171.853689
 30
0.0
 10
27.735472
 20
169.084265
 30
0.0
 10
28.336445
 20
167.021330
 30
0.0
 10
29.040243
 20
164.971106
 30
0.0
 10
29.842963
 20
162.939191
 30
0.0
 10
30.740701
 20
160.931180
 30
0.0
 10
31.729555
 20
158.952672
 30
0.0
 10
32.805622
 20
157.009262
 30
0.0
 10
33.964997
 20
155.106549
 30
0.0
 10
35.203779
 20
153.250127
 30
0.0
 10
36.518063
 20
151.445596
 30
0.0
 10
37.903947
 20
149.698550
 30
0.0
 10
39.357528
 20
148.014588
 30
0.0
 10
40.874901
 20
146.399306
 30
0.0
 10
42.452165
 20
144.858301
 30
0.0
 10
44.085416
 20
143.397170
 30
0.0
 10
45.770750
 20
142.021510
 30
0.0
 10
47.504265
 20
140.736917
 30
0.0
 10
52.246388
 20
137.232574
 30
0.0
 10
54.196031
 20
135.649024
 30
0.0
 10
55.886285
 20
134.157941
 30
0.0
 10
57.333321
 20
132.744366
 30
0.0
 10
58.553306
 20
131.393339
 30
0.0
 10
59.562409
 20
130.089900
 30
0.0
 10
60.376799
 20
128.819090
 30
0.0
 10
62.221717
 20
125.602750
 30
0.0
 10
62.227785
 20
74.458792
 30
0.0
 10
62.233852
 20
23.314280
 30
0.0
 10
62.312677
 20
23.314280
 30
0.0
 10
62.455622
 20
21.946646
 30
0.0
 10
62.725872
 20
20.622853
 30
0.0
 10
63.116958
 20
19.349020
 30
0.0
 10
63.622414
 20
18.131268
 30
0.0
 10
64.235772
 20
16.975718
 30
0.0
 10
64.950564
 20
15.888490
 30
0.0
 10
65.760324
 20
14.875704
 30
0.0
 10
66.658583
 20
13.943481
 30
0.0
 10
67.638875
 20
13.097941
 30
0.0
 10
68.694732
 20
12.345205
 30
0.0
 10
69.819686
 20
11.691393
 30
0.0
 10
71.007271
 20
11.142625
 30
0.0
 10
72.251019
 20
10.705022
 30
0.0
 10
73.544462
 20
10.384704
 30
0.0
 10
74.881133
 20
10.187792
 30
0.0
 10
76.254565
 20
10.120406
 30
0.0
 10
77.627133
 20
10.188852
 30
0.0
 10
78.962897
 20
10.386649
 30
0.0
 10
80.255404
 20
10.707683
 30
0.0
 10
81.498199
 20
11.145841
 30
0.0
 10
82.684828
 20
11.695010
 30
0.0
 10
83.808837
 20
12.349078
 30
0.0
 10
84.863771
 20
13.101930
 30
0.0
 10
85.843176
 20
13.947455
 30
0.0
 10
86.740599
 20
14.879538
 30
0.0
 10
87.549584
 20
15.892068
 30
0.0
 10
88.263678
 20
16.978930
 30
0.0
 10
88.876426
 20
18.134012
 30
0.0
 10
89.381374
 20
19.351202
 30
0.0
 10
89.772068
 20
20.624385
 30
0.0
 10
90.042053
 20
21.947449
 30
0.0
 10
90.184876
 20
23.314280
 30
0.0
 10
90.275828
 20
23.314280
 30
0.0
 10
90.275828
 20
75.478540
 30
0.0
 10
90.275828
 20
127.642246
 30
0.0
 10
92.101453
 20
130.127675
 30
0.0
 10
93.848276
 20
132.322181
 30
0.0
 10
94.748782
 20
133.270813
 30
0.0
 10
95.752135
 20
134.193458
 30
0.0
 10
98.321733
 20
136.180068
 30
0.0
 10
102.065771
 20
138.720569
 30
0.0
 10
104.252669
 20
140.219785
 30
0.0
 10
106.334424
 20
141.768492
 30
0.0
 10
108.311642
 20
143.367498
 30
0.0
 10
110.184928
 20
145.017613
 30
0.0
 10
111.954889
 20
146.719648
 30
0.0
 10
113.622128
 20
148.474411
 30
0.0
 10
115.187251
 20
150.282712
 30
0.0
 10
116.650865
 20
152.145361
 30
0.0
 10
118.013573
 20
154.063169
 30
0.0
 10
119.275982
 20
156.036943
 30
0.0
 10
120.438697
 20
158.067495
 30
0.0
 10
121.502323
 20
160.155634
 30
0.0
 10
122.467465
 20
162.302169
 30
0.0
 10
123.334729
 20
164.507910
 30
0.0
 10
124.104721
 20
166.773667
 30
0.0
 10
124.778045
 20
169.100250
 30
0.0
 10
125.380748
 20
171.864553
 30
0.0
 10
125.810701
 20
174.901110
 30
0.0
 10
126.067953
 20
178.119877
 30
0.0
 10
126.152552
 20
181.430808
 30
0.0
 10
126.064546
 20
184.743856
 30
0.0
 10
125.803982
 20
187.968975
 30
0.0
 10
125.370908
 20
191.016120
 30
0.0
 10
124.765373
 20
193.795245
 30
0.0
 10
123.780930
 20
197.074112
 30
0.0
 10
122.592970
 20
200.250454
 30
0.0
 10
121.208798
 20
203.316970
 30
0.0
 10
119.635716
 20
206.266360
 30
0.0
 10
117.881028
 20
209.091322
 30
0.0
 10
115.952037
 20
211.784556
 30
0.0
 10
113.856047
 20
214.338762
 30
0.0
 10
111.600362
 20
216.746637
 30
0.0
 10
109.192285
 20
219.000882
 30
0.0
 10
106.639120
 20
221.094195
 30
0.0
 10
103.948170
 20
223.019277
 30
0.0
 10
101.126738
 20
224.768825
 30
0.0
 10
98.182129
 20
226.335539
 30
0.0
 10
95.121645
 20
227.712119
 30
0.0
 10
91.952590
 20
228.891264
 30
0.0
 10
88.682268
 20
229.865672
 30
0.0
 10
85.877697
 20
230.472418
 30
0.0
 10
82.813954
 20
230.905812
 30
0.0
 10
79.577443
 20
231.165849
 30
0.0
 10
76.254570
 20
231.252529
 30
0.0
 10
76.254556
 20
231.252529
 30
0.0
  0
LWPOLYLINE
  5
101
100
AcDbEntity
  8
Layer_1
 62
1
100
AcDbPolyline
 90
28
 70
0
 10
97.055765
 20
210.667395
 30
0.0
 10
97.690183
 20
210.579406
 30
0.0
 10
98.280336
 20
210.345840
 30
0.0
 10
98.793710
 20
209.958584
 30
0.0
 10
99.197789
 20
209.409522
 30
0.0
 10
99.470415
 20
208.756479
 30
0.0
 10
99.561291
 20
208.134838
 30
0.0
 10
99.470415
 20
207.513196
 30
0.0
 10
99.197789
 20
206.860153
 30
0.0
 10
98.942139
 20
206.475746
 30
0.0
 10
98.633079
 20
206.164478
 30
0.0
 10
97.893306
 20
205.751704
 30
0.0
 10
97.055637
 20
205.602528
 30
0.0
 10
96.197236
 20
205.697652
 30
0.0
 10
95.395267
 20
206.017773
 30
0.0
 10
94.726895
 20
206.543591
 30
0.0
 10
94.269285
 20
207.255805
 30
0.0
 10
94.143629
 20
207.675779
 30
0.0
 10
94.099600
 20
208.135114
 30
0.0
 10
94.167769
 20
208.703217
 30
0.0
 10
94.359716
 20
209.208861
 30
0.0
 10
94.656603
 20
209.647337
 30
0.0
 10
95.039590
 20
210.013937
 30
0.0
 10
95.489839
 20
210.303951
 30
0.0
 10
95.988510
 20
210.512671
 30
0.0
 10
96.516765
 20
210.635389
 30
0.0
 10
97.055765
 20
210.667395
 30
0.0
 10
97.055765
 20
210.667395
 30
0.0
  0
LWPOLYLINE
  5
102
100
AcDbEntity
  8
Layer_1
 62
1
100
AcDbPolyline
 90
27
 70
0
 10
79.221748
 20
210.581405
 30
0.0
 10
79.856700
 20
210.529165
 30
0.0
 10
80.423790
 20
210.357673
 30
0.0
 10
80.913714
 20
210.076732
 30
0.0
 10
81.317170
 20
209.696142
 30
0.0
 10
81.624855
 20
209.225706
 30
0.0
 10
81.827467
 20
208.675224
 30
0.0
 10
81.915702
 20
208.054500
 30
0.0
 10
81.880258
 20
207.373334
 30
0.0
 10
81.681451
 20
206.654098
 30
0.0
 10
81.280781
 20
206.170040
 30
0.0
 10
80.608790
 20
205.870359
 30
0.0
 10
79.596022
 20
205.704252
 30
0.0
 10
78.820450
 20
205.673890
 30
0.0
 10
78.185768
 20
205.751142
 30
0.0
 10
77.685986
 20
205.943345
 30
0.0
 10
77.315113
 20
206.257832
 30
0.0
 10
77.067158
 20
206.701938
 30
0.0
 10
76.936132
 20
207.282998
 30
0.0
 10
76.916043
 20
208.008346
 30
0.0
 10
77.000902
 20
208.885317
 30
0.0
 10
77.189690
 20
209.569790
 30
0.0
 10
77.547728
 20
210.063539
 30
0.0
 10
78.096750
 20
210.386136
 30
0.0
 10
78.858497
 20
210.557154
 30
0.0
 10
79.221748
 20
210.581397
 30
0.0
 10
79.221748
 20
210.581405
 30
0.0
  0
LWPOLYLINE
  5
103
100
AcDbEntity
  8
Layer_1
 62
7
100
AcDbPolyline
 90
66
 70
0
 10
188.104179
 20
203.858759
 30
0.0
 10
186.470842
 20
203.787174
 30
0.0
 10
185.899338
 20
203.697611
 30
0.0
 10
185.622057
 20
203.572128
 30
0.0
 10
185.103113
 20
203.223214
 30
0.0
 10
184.134879
 20
202.796017
 30
0.0
 10
183.071992
 20
202.211735
 30
0.0
 10
181.871782
 20
201.312736
 30
0.0
 10
180.890446
 20
200.395527
 30
0.0
 10
180.593166
 20
200.022753
 30
0.0
 10
180.484179
 20
199.756616
 30
0.0
 10
180.339099
 20
199.457413
 30
0.0
 10
179.990290
 20
199.044446
 30
0.0
 10
179.835071
 20
198.675754
 30
0.0
 10
179.716226
 20
197.585801
 30
0.0
 10
179.568329
 20
191.238671
 30
0.0
 10
179.496401
 20
147.851429
 30
0.0
 10
179.568329
 20
104.464186
 30
0.0
 10
179.716226
 20
98.117056
 30
0.0
 10
179.835071
 20
97.027103
 30
0.0
 10
179.990290
 20
96.658412
 30
0.0
 10
180.339099
 20
96.245444
 30
0.0
 10
180.484179
 20
95.946241
 30
0.0
 10
180.593166
 20
95.680081
 30
0.0
 10
180.890446
 20
95.307245
 30
0.0
 10
181.871782
 20
94.389847
 30
0.0
 10
183.071992
 20
93.490658
 30
0.0
 10
184.134879
 20
92.906290
 30
0.0
 10
185.086129
 20
92.507393
 30
0.0
 10
185.564179
 20
92.226089
 30
0.0
 10
185.871096
 20
92.043181
 30
0.0
 10
186.410846
 20
91.881030
 30
0.0
 10
187.439810
 20
91.807841
 30
0.0
 10
188.799029
 20
91.860085
 30
0.0
 10
190.018493
 20
92.002314
 30
0.0
 10
190.628194
 20
92.199080
 30
0.0
 10
191.117493
 20
92.499469
 30
0.0
 10
192.073479
 20
92.906290
 30
0.0
 10
193.136366
 20
93.490658
 30
0.0
 10
194.336576
 20
94.389847
 30
0.0
 10
195.317912
 20
95.307245
 30
0.0
 10
195.615191
 20
95.680081
 30
0.0
 10
195.724179
 20
95.946241
 30
0.0
 10
195.869259
 20
96.245444
 30
0.0
 10
196.218068
 20
96.658412
 30
0.0
 10
196.373287
 20
97.027103
 30
0.0
 10
196.492132
 20
98.117056
 30
0.0
 10
196.640029
 20
104.464186
 30
0.0
 10
196.711957
 20
147.851429
 30
0.0
 10
196.640029
 20
191.238671
 30
0.0
 10
196.492132
 20
197.585801
 30
0.0
 10
196.373287
 20
198.675754
 30
0.0
 10
196.218068
 20
199.044446
 30
0.0
 10
195.869259
 20
199.457413
 30
0.0
 10
195.724179
 20
199.756616
 30
0.0
 10
195.615191
 20
200.022753
 30
0.0
 10
195.317912
 20
200.395527
 30
0.0
 10
194.336576
 20
201.312736
 30
0.0
 10
193.136366
 20
202.211735
 30
0.0
 10
192.073479
 20
202.796017
 30
0.0
 10
191.105244
 20
203.223214
 30
0.0
 10
190.586301
 20
203.572128
 30
0.0
 10
190.309018
 20
203.697611
 30
0.0
 10
189.737513
 20
203.787174
 30
0.0
 10
188.104179
 20
203.858759
 30
0.0
 10
188.104179
 20
203.858759
 30
0.0
  0
LWPOLYLINE
  5
104
100
AcDbEntity
  8
Layer_1
 62
7
100
AcDbPolyline
 90
18
 70
0
 10
186.848510
 20
196.330811
 30
0.0
 10
187.143265
 20
196.237516
 30
0.0
 10
187.366722
 20
196.014895
 30
0.0
 10
187.492442
 20
195.675728
 30
0.0
 10
187.493983
 20
195.232792
 30
0.0
 10
187.405492
 20
194.935070
 30
0.0
 10
187.246180
 20
194.705452
 30
0.0
 10
186.791032
 20
194.463933
 30
0.0
 10
186.280426
 20
194.535048
 30
0.0
 10
186.051789
 20
194.696221
 30
0.0
 10
185.866244
 20
194.945608
 30
0.0
 10
185.743078
 20
195.236957
 30
0.0
 10
185.723015
 20
195.482349
 30
0.0
 10
185.810119
 20
195.710587
 30
0.0
 10
186.008459
 20
195.950474
 30
0.0
 10
186.438009
 20
196.253958
 30
0.0
 10
186.848510
 20
196.330811
 30
0.0
 10
186.848510
 20
196.330811
 30
0.0
  0
LWPOLYLINE
  5
105
100
AcDbEntity
  8
Layer_1
 62
7
100
AcDbPolyline
 90
17
 70
0
 10
181.732129
 20
196.305468
 30
0.0
 10
182.074400
 20
196.233379
 30
0.0
 10
182.406267
 20
196.003402
 30
0.0
 10
182.616076
 20
195.755281
 30
0.0
 10
182.709463
 20
195.531663
 30
0.0
 10
182.691078
 20
195.304963
 30
0.0
 10
182.565568
 20
195.047595
 30
0.0
 10
182.218471
 20
194.662464
 30
0.0
 10
181.823735
 20
194.492851
 30
0.0
 10
181.423986
 20
194.545075
 30
0.0
 10
181.061851
 20
194.825455
 30
0.0
 10
180.898814
 20
195.086925
 30
0.0
 10
180.830400
 20
195.347693
 30
0.0
 10
180.929237
 20
195.824830
 30
0.0
 10
181.261951
 20
196.172283
 30
0.0
 10
181.732129
 20
196.305468
 30
0.0
 10
181.732129
 20
196.305468
 30
0.0
  0
LWPOLYLINE
  5
106
100
AcDbEntity
  8
Layer_1
 62
7
100
AcDbPolyline
 90
72
 70
0
 10
132.466577
 20
45.359505
 30
0.0
 10
130.938415
 20
45.260984
 30
0.0
 10
129.228740
 20
44.965387
 30
0.0
 10
128.044464
 20
44.669340
 30
0.0
 10
126.897856
 20
44.292519
 30
0.0
 10
125.791996
 20
43.838003
 30
0.0
 10
124.729961
 20
43.308874
 30
0.0
 10
123.714829
 20
42.708210
 30
0.0
 10
122.749678
 20
42.039091
 30
0.0
 10
120.981633
 20
40.507808
 30
0.0
 10
119.450451
 20
38.739662
 30
0.0
 10
118.781378
 20
37.774465
 30
0.0
 10
118.180756
 20
36.759291
 30
0.0
 10
117.651662
 20
35.697220
 30
0.0
 10
117.197174
 20
34.591333
 30
0.0
 10
116.820370
 20
33.444708
 30
0.0
 10
116.524329
 20
32.260426
 30
0.0
 10
116.228712
 20
30.550908
 30
0.0
 10
116.130174
 20
29.022863
 30
0.0
 10
116.228712
 20
27.494817
 30
0.0
 10
116.524329
 20
25.785300
 30
0.0
 10
116.817916
 20
24.611992
 30
0.0
 10
117.192416
 20
23.473956
 30
0.0
 10
117.644558
 20
22.374490
 30
0.0
 10
118.171075
 20
21.316895
 30
0.0
 10
119.434150
 20
19.340509
 30
0.0
 10
120.955485
 20
17.571192
 30
0.0
 10
122.708925
 20
16.035336
 30
0.0
 10
124.668312
 20
14.759333
 30
0.0
 10
125.717063
 20
14.227025
 30
0.0
 10
126.807491
 20
13.769577
 30
0.0
 10
127.936329
 20
13.390289
 30
0.0
 10
129.100306
 20
13.092460
 30
0.0
 10
130.800512
 20
12.800837
 30
0.0
 10
132.395868
 20
12.701688
 30
0.0
 10
133.994333
 20
12.794891
 30
0.0
 10
135.703866
 20
13.080324
 30
0.0
 10
136.888148
 20
13.376372
 30
0.0
 10
138.034773
 20
13.753194
 30
0.0
 10
139.140660
 20
14.207710
 30
0.0
 10
140.202731
 20
14.736840
 30
0.0
 10
141.217904
 20
15.337505
 30
0.0
 10
142.183101
 20
16.006624
 30
0.0
 10
143.951247
 20
17.537908
 30
0.0
 10
145.482530
 20
19.306055
 30
0.0
 10
146.151648
 20
20.271252
 30
0.0
 10
146.752312
 20
21.286426
 30
0.0
 10
147.281441
 20
22.348496
 30
0.0
 10
147.735956
 20
23.454384
 30
0.0
 10
148.112777
 20
24.601009
 30
0.0
 10
148.408825
 20
25.785291
 30
0.0
 10
148.704441
 20
27.494809
 30
0.0
 10
148.802981
 20
29.022854
 30
0.0
 10
148.704442
 20
30.550899
 30
0.0
 10
148.408825
 20
32.260417
 30
0.0
 10
148.112777
 20
33.444700
 30
0.0
 10
147.735956
 20
34.591324
 30
0.0
 10
147.281441
 20
35.697212
 30
0.0
 10
146.752312
 20
36.759282
 30
0.0
 10
146.151648
 20
37.774455
 30
0.0
 10
145.482530
 20
38.739653
 30
0.0
 10
143.951247
 20
40.507798
 30
0.0
 10
142.183101
 20
42.039081
 30
0.0
 10
141.217904
 20
42.708200
 30
0.0
 10
140.202731
 20
43.308864
 30
0.0
 10
139.140660
 20
43.837994
 30
0.0
 10
138.034773
 20
44.292509
 30
0.0
 10
136.888148
 20
44.669331
 30
0.0
 10
135.703866
 20
44.965379
 30
0.0
 10
133.994466
 20
45.260976
 30
0.0
 10
132.466577
 20
45.359496
 30
0.0
 10
132.466577
 20
45.359505
 30
0.0
  0
LWPOLYLINE
  5
107
100
AcDbEntity
  8
Layer_1
 62
7
100
AcDbPolyline
 90
19
 70
0
 10
127.780697
 20
37.768167
 30
0.0
 10
128.335852
 20
37.678848
 30
0.0
 10
128.804303
 20
37.339872
 30
0.0
 10
128.960407
 20
37.099195
 30
0.0
 10
129.018517
 20
36.851558
 30
0.0
 10
128.845093
 20
36.210984
 30
0.0
 10
128.597993
 20
35.854217
 30
0.0
 10
128.267366
 20
35.628239
 30
0.0
 10
127.889113
 20
35.526331
 30
0.0
 10
127.499131
 20
35.541770
 30
0.0
 10
127.133321
 20
35.667837
 30
0.0
 10
126.827581
 20
35.897809
 30
0.0
 10
126.617811
 20
36.224965
 30
0.0
 10
126.539910
 20
36.642586
 30
0.0
 10
126.645278
 20
37.093141
 30
0.0
 10
126.924289
 20
37.442390
 30
0.0
 10
127.321308
 20
37.673133
 30
0.0
 10
127.780697
 20
37.768167
 30
0.0
 10
127.780697
 20
37.768167
 30
0.0
  0
LWPOLYLINE
  5
108
100
AcDbEntity
  8
Layer_1
 62
7
100
AcDbPolyline
 90
21
 70
0
 10
133.877688
 20
37.630364
 30
0.0
 10
134.406027
 20
37.605092
 30
0.0
 10
134.716920
 20
37.494988
 30
0.0
 10
134.878430
 20
37.248623
 30
0.0
 10
134.958622
 20
36.814567
 30
0.0
 10
134.917306
 20
36.164475
 30
0.0
 10
134.817885
 20
35.917158
 30
0.0
 10
134.676399
 20
35.760642
 30
0.0
 10
134.306693
 20
35.586728
 30
0.0
 10
133.945034
 20
35.525809
 30
0.0
 10
133.606657
 20
35.568005
 30
0.0
 10
133.306801
 20
35.703436
 30
0.0
 10
133.060701
 20
35.922223
 30
0.0
 10
132.883594
 20
36.214487
 30
0.0
 10
132.790717
 20
36.570349
 30
0.0
 10
132.797307
 20
36.979929
 30
0.0
 10
132.883453
 20
37.308424
 30
0.0
 10
133.059886
 20
37.506803
 30
0.0
 10
133.375125
 20
37.604355
 30
0.0
 10
133.877688
 20
37.630364
 30
0.0
 10
133.877688
 20
37.630364
 30
0.0
  0
LWPOLYLINE
  5
109
100
AcDbEntity
  8
Layer_1
 62
7
100
AcDbPolyline
 90
134
 70
0
 10
187.669280
 20
86.132203
 30
0.0
 10
186.775598
 20
86.046078
 30
0.0
 10
185.892681
 20
85.856055
 30
0.0
 10
185.096734
 20
85.599605
 30
0.0
 10
184.463964
 20
85.314199
 30
0.0
 10
183.938118
 20
84.941601
 30
0.0
 10
183.562417
 20
84.548872
 30
0.0
 10
183.261762
 20
84.111997
 30
0.0
 10
182.653025
 20
83.438632
 30
0.0
 10
182.084632
 20
82.674674
 30
0.0
 10
181.065924
 20
80.861941
 30
0.0
 10
180.199729
 20
78.647725
 30
0.0
 10
179.480141
 20
76.005951
 30
0.0
 10
178.901251
 20
72.910546
 30
0.0
 10
178.457153
 20
69.335436
 30
0.0
 10
178.141939
 20
65.254547
 30
0.0
 10
177.949702
 20
60.641804
 30
0.0
 10
177.778825
 20
54.357949
 30
0.0
 10
175.876579
 20
54.357949
 30
0.0
 10
173.974337
 20
54.357949
 30
0.0
 10
173.811176
 20
61.303260
 30
0.0
 10
173.573922
 20
67.102182
 30
0.0
 10
173.233503
 20
71.291282
 30
0.0
 10
172.873170
 20
73.580412
 30
0.0
 10
172.439770
 20
75.694212
 30
0.0
 10
171.936436
 20
77.624168
 30
0.0
 10
171.366300
 20
79.361770
 30
0.0
 10
170.732494
 20
80.898505
 30
0.0
 10
170.038150
 20
82.225860
 30
0.0
 10
169.286399
 20
83.335323
 30
0.0
 10
168.480373
 20
84.218383
 30
0.0
 10
168.162028
 20
84.628245
 30
0.0
 10
167.787991
 20
84.987676
 30
0.0
 10
167.291952
 20
85.314199
 30
0.0
 10
166.627169
 20
85.570465
 30
0.0
 10
165.798994
 20
85.771873
 30
0.0
 10
164.901499
 20
85.895615
 30
0.0
 10
164.028758
 20
85.918882
 30
0.0
 10
163.017368
 20
85.780635
 30
0.0
 10
161.960837
 20
85.507382
 30
0.0
 10
160.445309
 20
84.940474
 30
0.0
 10
159.416649
 20
84.189123
 30
0.0
 10
158.335363
 20
83.048498
 30
0.0
 10
157.368539
 20
81.720150
 30
0.0
 10
156.683264
 20
80.405626
 30
0.0
 10
156.353444
 20
79.449203
 30
0.0
 10
156.168082
 20
78.457003
 30
0.0
 10
156.088865
 20
77.086570
 30
0.0
 10
156.077480
 20
74.995449
 30
0.0
 10
156.215402
 20
71.388597
 30
0.0
 10
156.397753
 20
69.891819
 30
0.0
 10
156.675548
 20
68.380865
 30
0.0
 10
157.477277
 20
65.249343
 30
0.0
 10
158.667709
 20
61.427773
 30
0.0
 10
160.068809
 20
57.451757
 30
0.0
 10
161.502539
 20
53.856894
 30
0.0
 10
162.915854
 20
50.578265
 30
0.0
 10
160.255689
 20
47.903769
 30
0.0
 10
158.868341
 20
46.462032
 30
0.0
 10
157.870539
 20
45.283853
 30
0.0
 10
157.093519
 20
44.149215
 30
0.0
 10
156.368519
 20
42.838100
 30
0.0
 10
155.203153
 20
40.326405
 30
0.0
 10
154.798466
 20
39.190161
 30
0.0
 10
154.495633
 20
38.058191
 30
0.0
 10
154.282044
 20
36.873896
 30
0.0
 10
154.145091
 20
35.580677
 30
0.0
 10
154.050659
 20
32.441079
 30
0.0
 10
154.118720
 20
29.511165
 30
0.0
 10
154.375242
 20
27.279278
 30
0.0
 10
154.898731
 20
25.323798
 30
0.0
 10
155.767696
 20
23.223106
 30
0.0
 10
157.375891
 20
20.074180
 30
0.0
 10
158.150469
 20
18.825102
 30
0.0
 10
158.935457
 20
17.736337
 30
0.0
 10
159.753424
 20
16.765425
 30
0.0
 10
160.626937
 20
15.869906
 30
0.0
 10
162.630877
 20
14.135214
 30
0.0
 10
164.079090
 20
13.156793
 30
0.0
 10
165.658205
 20
12.379333
 30
0.0
 10
167.315841
 20
11.752210
 30
0.0
 10
168.999617
 20
11.224798
 30
0.0
 10
170.757601
 20
10.771432
 30
0.0
 10
172.547620
 20
10.440703
 30
0.0
 10
174.356052
 20
10.242123
 30
0.0
 10
176.169275
 20
10.185204
 30
0.0
 10
177.987310
 20
10.273701
 30
0.0
 10
179.798474
 20
10.502213
 30
0.0
 10
181.587453
 20
10.866706
 30
0.0
 10
183.338933
 20
11.363143
 30
0.0
 10
184.631472
 20
11.891350
 30
0.0
 10
185.826567
 20
12.611666
 30
0.0
 10
188.672503
 20
14.712959
 30
0.0
 10
190.067226
 20
15.825647
 30
0.0
 10
191.408130
 20
16.995234
 30
0.0
 10
192.668976
 20
18.233375
 30
0.0
 10
193.823523
 20
19.551722
 30
0.0
 10
194.845530
 20
20.961932
 30
0.0
 10
195.708755
 20
22.475657
 30
0.0
 10
196.693350
 20
24.661931
 30
0.0
 10
197.329407
 20
26.642718
 30
0.0
 10
197.701117
 20
28.760683
 30
0.0
 10
197.892670
 20
31.358491
 30
0.0
 10
197.897207
 20
33.904496
 30
0.0
 10
197.674765
 20
36.294149
 30
0.0
 10
197.217587
 20
38.547087
 30
0.0
 10
196.517917
 20
40.682947
 30
0.0
 10
195.567998
 20
42.721369
 30
0.0
 10
194.360073
 20
44.681988
 30
0.0
 10
192.886386
 20
46.584443
 30
0.0
 10
191.139180
 20
48.448371
 30
0.0
 10
188.937076
 20
50.609134
 30
0.0
 10
189.752873
 20
52.467830
 30
0.0
 10
192.003095
 20
58.040619
 30
0.0
 10
193.007226
 20
60.837668
 30
0.0
 10
193.823048
 20
63.353782
 30
0.0
 10
194.782170
 20
66.740825
 30
0.0
 10
195.355998
 20
69.436846
 30
0.0
 10
195.635191
 20
72.001751
 30
0.0
 10
195.710409
 20
74.995449
 30
0.0
 10
195.693901
 20
77.211801
 30
0.0
 10
195.615154
 20
78.650444
 30
0.0
 10
195.438651
 20
79.650652
 30
0.0
 10
195.128876
 20
80.551699
 30
0.0
 10
194.513518
 20
81.812857
 30
0.0
 10
193.744634
 20
82.942878
 30
0.0
 10
192.849868
 20
83.907118
 30
0.0
 10
191.856862
 20
84.670930
 30
0.0
 10
191.070648
 20
85.131221
 30
0.0
 10
190.151641
 20
85.577417
 30
0.0
 10
189.159892
 20
85.932794
 30
0.0
 10
188.155450
 20
86.120626
 30
0.0
 10
187.669280
 20
86.132197
 30
0.0
 10
187.669280
 20
86.132203
 30
0.0
  0
LWPOLYLINE
  5
10a
100
AcDbEntity
  8
Layer_1
 62
7
100
AcDbPolyline
 90
23
 70
0
 10
187.842912
 20
76.523970
 30
0.0
 10
187.985989
 20
76.395965
 30
0.0
 10
188.183012
 20
76.051578
 30
0.0
 10
188.334169
 20
75.582911
 30
0.0
 10
188.407274
 20
74.896969
 30
0.0
 10
188.324014
 20
72.920542
 30
0.0
 10
187.942601
 20
70.216852
 30
0.0
 10
187.272405
 20
66.880456
 30
0.0
 10
186.381512
 20
63.145385
 30
0.0
 10
185.557575
 20
60.046490
 30
0.0
 10
185.019158
 20
58.377738
 30
0.0
 10
184.866207
 20
58.121665
 30
0.0
 10
184.786600
 20
58.287624
 30
0.0
 10
184.834936
 20
59.995130
 30
0.0
 10
185.139200
 20
63.719237
 30
0.0
 10
185.631847
 20
68.407602
 30
0.0
 10
186.189738
 20
72.066413
 30
0.0
 10
186.807062
 20
74.664900
 30
0.0
 10
187.136195
 20
75.556906
 30
0.0
 10
187.478007
 20
76.172293
 30
0.0
 10
187.693778
 20
76.446040
 30
0.0
 10
187.842912
 20
76.523970
 30
0.0
 10
187.842912
 20
76.523970
 30
0.0
  0
LWPOLYLINE
  5
10b
100
AcDbEntity
  8
Layer_1
 62
7
100
AcDbPolyline
 90
24
 70
0
 10
163.991826
 20
76.450657
 30
0.0
 10
164.159300
 20
76.392828
 30
0.0
 10
164.331480
 20
76.222589
 30
0.0
 10
164.685568
 20
75.564384
 30
0.0
 10
165.045313
 20
74.515035
 30
0.0
 10
165.401937
 20
73.113539
 30
0.0
 10
166.070712
 20
69.410089
 30
0.0
 10
166.621674
 20
64.765997
 30
0.0
 10
166.897533
 20
61.184542
 30
0.0
 10
166.964532
 20
58.950675
 30
0.0
 10
166.890028
 20
58.373010
 30
0.0
 10
166.823211
 20
58.347943
 30
0.0
 10
166.722625
 20
58.533515
 30
0.0
 10
165.771700
 20
61.904085
 30
0.0
 10
164.945974
 20
65.219184
 30
0.0
 10
164.265322
 20
68.310501
 30
0.0
 10
163.757568
 20
71.041503
 30
0.0
 10
163.450535
 20
73.275657
 30
0.0
 10
163.403509
 20
74.455434
 30
0.0
 10
163.493898
 20
75.470875
 30
0.0
 10
163.697929
 20
76.182458
 30
0.0
 10
163.835130
 20
76.380700
 30
0.0
 10
163.991826
 20
76.450657
 30
0.0
 10
163.991826
 20
76.450657
 30
0.0
  0
LWPOLYLINE
  5
10c
100
AcDbEntity
  8
Layer_1
 62
7
100
AcDbPolyline
 90
19
 70
0
 10
164.708408
 20
34.483332
 30
0.0
 10
165.319154
 20
34.371434
 30
0.0
 10
165.878105
 20
34.043746
 30
0.0
 10
166.212168
 20
33.568122
 30
0.0
 10
166.301607
 20
32.993651
 30
0.0
 10
166.126685
 20
32.369420
 30
0.0
 10
165.778758
 20
31.923745
 30
0.0
 10
165.322923
 20
31.683274
 30
0.0
 10
164.815248
 20
31.626948
 30
0.0
 10
164.311797
 20
31.733708
 30
0.0
 10
163.868637
 20
31.982495
 30
0.0
 10
163.541833
 20
32.352250
 30
0.0
 10
163.387452
 20
32.821914
 30
0.0
 10
163.461559
 20
33.370428
 30
0.0
 10
163.686431
 20
33.849862
 30
0.0
 10
163.970608
 20
34.195890
 30
0.0
 10
164.311974
 20
34.407414
 30
0.0
 10
164.708408
 20
34.483332
 30
0.0
 10
164.708408
 20
34.483332
 30
0.0
  0
LWPOLYLINE
  5
10d
100
AcDbEntity
  8
Layer_1
 62
7
100
AcDbPolyline
 90
22
 70
0
 10
186.962071
 20
34.467358
 30
0.0
 10
187.372632
 20
34.407119
 30
0.0
 10
187.746841
 20
34.232888
 30
0.0
 10
188.063309
 20
33.966553
 30
0.0
 10
188.300645
 20
33.630002
 30
0.0
 10
188.437460
 20
33.245125
 30
0.0
 10
188.452364
 20
32.833808
 30
0.0
 10
188.323966
 20
32.417942
 30
0.0
 10
188.030877
 20
32.019413
 30
0.0
 10
187.553958
 20
31.725850
 30
0.0
 10
186.991284
 20
31.603796
 30
0.0
 10
186.533391
 20
31.674116
 30
0.0
 10
186.150294
 20
31.866968
 30
0.0
 10
185.852663
 20
32.155185
 30
0.0
 10
185.651172
 20
32.511604
 30
0.0
 10
185.556492
 20
32.909060
 30
0.0
 10
185.579296
 20
33.320387
 30
0.0
 10
185.730256
 20
33.718421
 30
0.0
 10
186.020044
 20
34.075998
 30
0.0
 10
186.485404
 20
34.372260
 30
0.0
 10
186.962071
 20
34.467358
 30
0.0
 10
186.962071
 20
34.467358
 30
0.0
  0
LWPOLYLINE
  5
10e
100
AcDbEntity
  8
Layer_1
 62
7
100
AcDbPolyline
 90
21
 70
0
 10
175.850674
 20
26.724439
 30
0.0
 10
176.412114
 20
26.694402
 30
0.0
 10
176.940424
 20
26.575609
 30
0.0
 10
177.415065
 20
26.373078
 30
0.0
 10
177.752676
 20
26.126677
 30
0.0
 10
177.953308
 20
25.840413
 30
0.0
 10
178.017009
 20
25.518288
 30
0.0
 10
177.943828
 20
25.164308
 30
0.0
 10
177.733816
 20
24.782476
 30
0.0
 10
176.903493
 20
23.951276
 30
0.0
 10
176.290230
 20
23.547889
 30
0.0
 10
175.780764
 20
23.443983
 30
0.0
 10
175.273867
 20
23.649670
 30
0.0
 10
174.668315
 20
24.175067
 30
0.0
 10
174.176977
 20
24.782125
 30
0.0
 10
173.934113
 20
25.353271
 30
0.0
 10
173.947556
 20
25.852355
 30
0.0
 10
174.225139
 20
26.243228
 30
0.0
 10
174.943760
 20
26.589956
 30
0.0
 10
175.850674
 20
26.724439
 30
0.0
 10
175.850674
 20
26.724439
 30
0.0
  0
ENDSEC
  0
SECTION
  2
OBJECTS
  0
DICTIONARY
  5
C
330
0
100
AcDbDictionary
  3
ACAD_GROUP
350
D
  3
ACAD_MLINESTYLE
350
17
  0
DICTIONARY
  5
D
330
C
100
AcDbDictionary
  0
DICTIONARY
  5
1A
330
C
100
AcDbDictionary
  0
DICTIONARY
  5
17
330
C
100
AcDbDictionary
  3
STANDARD
350
18
  0
DICTIONARY
  5
19
330
C
100
AcDbDictionary
  0
ENDSEC
  0
EOF
