<?xml version="1.0" encoding="UTF-8" standalone="no"?>
<!-- Created with Inkscape (http://www.inkscape.org/) -->

<svg
   xmlns:dc="http://purl.org/dc/elements/1.1/"
   xmlns:cc="http://creativecommons.org/ns#"
   xmlns:rdf="http://www.w3.org/1999/02/22-rdf-syntax-ns#"
   xmlns:svg="http://www.w3.org/2000/svg"
   xmlns="http://www.w3.org/2000/svg"
   xmlns:sodipodi="http://sodipodi.sourceforge.net/DTD/sodipodi-0.dtd"
   xmlns:inkscape="http://www.inkscape.org/namespaces/inkscape"
   width="210mm"
   height="297mm"
   viewBox="0 0 744.09448819 1052.3622047"
   id="svg2"
   version="1.1"
   inkscape:version="0.91 r13725"
   sodipodi:docname="characters.svg">
  <sodipodi:namedview
     id="base"
     pagecolor="#ffffff"
     bordercolor="#666666"
     borderopacity="1.0"
     inkscape:pageopacity="0.0"
     inkscape:pageshadow="2"
     inkscape:zoom="0.49497475"
     inkscape:cx="167.80014"
     inkscape:cy="487.82895"
     inkscape:document-units="mm"
     inkscape:current-layer="layer1"
     showgrid="false"
     inkscape:window-width="1440"
     inkscape:window-height="837"
     inkscape:window-x="-4"
     inkscape:window-y="-4"
     inkscape:window-maximized="1" />
  <defs
     id="defs4" />
  <metadata
     id="metadata7">
    <rdf:RDF>
      <cc:Work
         rdf:about="">
        <dc:format>image/svg+xml</dc:format>
        <dc:type
           rdf:resource="http://purl.org/dc/dcmitype/StillImage" />
        <dc:title></dc:title>
      </cc:Work>
    </rdf:RDF>
  </metadata>
  <g
     id="layer1"
     inkscape:groupmode="layer"
     inkscape:label="Layer 1">
    <path
       inkscape:connector-curvature="0"
       id="path4146"
       d="M270.19331 232.96348L258.419656406 233.270612969L246.95237125 234.19200625L236.097252969 235.727651406L226.1601 237.87754L214.572346337 241.330167759L203.343412883 245.508238789L192.49917844 250.385884097L182.065521812 255.937234688L172.068321802 262.136421567L162.533457211 268.957575742L153.486806843 276.374828218L144.9542495 284.36231L136.961663985 292.894152095L129.534929102 301.944485508L122.699923651 311.487441245L116.482526438 321.497150313L110.908616263 331.947743716L106.00407193 342.813352461L101.794772241 354.068107554L98.306596 365.68614L96.1588911172 375.540784844L94.6234756875 386.34179L93.7004610391 397.771715156L93.3899585 409.51312L93.6920793984 421.248564219L94.6069350625 432.6606075L96.1346368203 443.431809531L98.275296 453.24473L100.404727222 460.554342295L102.898499273 467.818914453L105.742781985 475.01861501L108.923745188 482.1336125L112.42755871 489.144075459L116.240392383 496.030172422L120.348416036 502.772071924L124.7377995 509.3499425L129.394712604 515.743952686L134.30532518 521.934271016L139.455807056 527.901066025L144.832328062 533.62450625L150.42105803 539.084760225L156.208166789 544.261996484L162.179824169 549.136383564L168.3222 553.68809L185.124997031 566.105052187L192.033179355 571.716057852L198.02227125 576.9994225L203.149562988 582.008153086L207.472344844 586.795256563L211.04790709 591.413739883L213.93354 595.91661L220.47065 607.31309L220.49215 788.53184L220.51365 969.75255L220.79295 969.75255L221.299449309 974.598496997L222.257026447 979.289104169L223.642765453 983.802685046L225.433750365 988.11755316L227.607065222 992.21202204L230.139794063 996.064405217L233.009020925 999.653016222L236.191829847 1002.95616858L239.665304867 1005.95217583L243.406530025 1008.6193515L247.392589358 1010.93600912L251.600566904 1012.88046222L256.007546704 1014.43102432L260.590612794 1015.56600897L265.326849213 1016.26372968L270.19334 1016.5025L275.056769167 1016.25997269L279.789792814 1015.55911785L284.369541594 1014.42159581L288.773146159 1012.86906692L292.977737164 1010.92319151L296.960445261 1008.60562994L300.698401103 1005.93804253L304.168735344 1002.94208964L307.348578637 999.639431606L310.215061634 996.051728767L312.74531499 992.200641467L314.916469357 988.107830047L316.705655388 983.794954848L318.090003737 979.283676213L319.046645056 974.595654483L319.55271 969.75255L319.87498 969.75255L319.87498 784.91856L319.87498 600.08653L326.34373 591.27989L332.533260625 583.504082812L335.724031328 580.142787617L339.27922 576.8735725L348.384094375 569.834405937L361.65037 560.83263L369.399219246 555.520445469L376.775516934 550.032902969L383.781407991 544.367133516L390.419037344 538.520268125L396.690549919 532.489437812L402.598090645 526.271773594L408.143804446 519.864406484L413.32983625 513.2644675L418.158330984 506.469087656L422.631433574 499.475397969L426.751288948 492.280529453L430.520042031 484.881613125L433.939837751 477.27578L437.012821035 469.460161094L439.741136809 461.431887422L442.12693 453.18809L444.262491445 443.393317187L445.785949063 432.633860625L446.697472773 421.228780625L446.9972325 409.4971375L446.685398164 397.757991562L445.762139688 386.330403125L444.227626992 375.5334325L442.08203 365.68614L438.593846108 354.068107554L434.384540586 342.813352461L429.479992036 331.947743716L423.906079063 321.497150312L417.688680269 311.487441245L410.853674258 301.944485508L403.426939634 292.894152095L395.434355 284.36231L386.90179896 276.374828218L377.855150117 268.957575742L368.320287075 262.136421567L358.323088438 255.937234687L347.889432808 250.385884097L337.045198789 245.508238789L325.816264985 241.330167759L314.22851 237.87754L304.291053906 235.727651406L293.43526875 234.19200625L281.967316719 233.270612969L270.19336 232.96348L270.19331 232.96348M343.89838 305.90293L346.146317969 306.214704844L348.23741125 307.04229875L350.056451406 308.414465781L351.48823 310.35996L352.454228125 312.673892187L352.7762275 314.87656L352.454228125 317.079227812L351.48823 319.39316L350.582383821 320.755229023L349.487286348 321.858148906L346.866046406 323.320735625L343.897927949 323.849308906L340.85634875 323.5122575L338.014726582 322.377970156L335.646479219 320.514835625L334.025024434 317.991242656L333.579787312 316.503145742L333.42378 314.87558L333.665323086 312.862615195L334.345450938 311.070963437L335.397411445 309.517308711L336.7544525 308.218335L338.349821992 307.190726289L340.116767812 306.451166563L341.988537852 306.016339805L343.89838 305.90293L343.89838 305.90293M280.70698 306.20762L282.956810801 306.392722051L284.966183281 307.000369531L286.702135059 307.995831934L288.13170375 309.34437875L289.221926973 311.011279473L289.939842344 312.961803594L290.25248748 315.161220605L290.1269 317.5748L289.422463594 320.123275L288.00276625 321.83844L285.621698281 322.9003025L282.03315 323.48887L279.28505998 323.596454492L277.036186719 323.322724688L275.26530416 322.641691914L273.95118625 321.5273675L273.072606934 319.953762773L272.608340156 317.894889062L272.537159863 315.324757695L272.83784 312.21738L273.506777187 309.792083437L274.7754125 308.04258L276.720769062 306.899519062L279.41987 306.29355L280.70698 306.20765L280.70698 306.20762"
       style="fill:#000000;stroke:#ff0000;stroke-width:1.00984251;stroke-linejoin:round;stroke-miterlimit:4;stroke-dasharray:none" />
    <path
       inkscape:connector-curvature="0"
       id="path4162"
       d="M666.51087 330.02802L660.7234575 330.28166625L658.6984425 330.599015156L657.71595 331.04364L655.87717125 332.27995L652.44642 333.79364L648.680285156 335.863930313L644.42757375 339.04936L640.950397969 342.299312187L639.897045996 343.620166445L639.51087 344.56317L638.9968075 345.62333875L637.76087 347.08661L637.210881914 348.39299793L636.789777812 352.255035938L636.2657325 374.7448675L636.01087 528.47919L636.2657325 682.2135125L636.789777812 704.703344063L637.210881914 708.56538207L637.76087 709.87177L638.9968075 711.33504125L639.51087 712.39521L639.897045996 713.338294473L640.950397969 714.659368281L644.42757375 717.90999125L648.680285156 721.096093594L652.44642 723.16669L655.81699125 724.580105L657.51087 725.57685L658.59837 726.2249475L660.51087 726.7995L664.156807031 727.058832656L668.97293625 726.87371625L673.293872344 726.369754219L675.45423 725.67255L677.1879675 724.60818125L680.57532 723.16669L684.341454844 721.096093594L688.59416625 717.90999125L692.071342031 714.659368281L693.124694004 713.338294473L693.51087 712.39521L694.0249325 711.33504125L695.26087 709.87177L695.810858086 708.56538207L696.231962187 704.703344063L696.7560075 682.2135125L697.01087 528.47919L696.7560075 374.7448675L696.231962187 352.255035938L695.810858086 348.39299793L695.26087 347.08661L694.0249325 345.62333875L693.51087 344.56317L693.124694004 343.620166445L692.071342031 342.299312187L688.59416625 339.04936L684.341454844 335.863930313L680.57532 333.79364L677.144565 332.27995L675.30579 331.04364L674.323291875 330.599015156L672.298275 330.28166625L666.51087 330.02802L666.51087 330.02802M662.06165 356.70185L663.106055469 357.032424375L663.89783375 357.8212375L664.343297656 359.023011875L664.34876 360.59247L664.035208809 361.647388848L663.470715469 362.460995781L661.85798875 363.31677125L660.048752656 363.064791094L659.238622598 362.493703496L658.58118 361.61005L658.144765781 360.577711094L658.07367375 359.70821125L658.382312344 358.899493281L659.08509 358.0495L660.60712 356.97416625L662.06165 356.70185L662.06165 356.70185M643.93274 356.79165L645.14551125 357.04708125L646.32142 357.86196L647.064835 358.741129531L647.395735 359.53347625L647.33059 360.336744844L646.88587 361.24868L645.656001094 362.613315781L644.25732875 363.21430625L642.840894531 363.029261094L641.55774 362.03579L640.980048262 361.10932123L640.737637344 360.185340469L641.08784875 358.49469625L642.266755781 357.263563906L643.93274 356.79165L643.93274 356.79165"
       style="fill:#000000" />
    <path
       inkscape:connector-curvature="0"
       id="path4177"
       d="M469.36976 891.63955L463.9550125 891.98863875L457.89711 893.03603L453.700855635 894.085016812L449.638073672 895.420209805L445.719670811 897.030696567L441.95655375 898.905564687L438.359629189 901.033901753L434.939803828 903.404795352L428.6750775 908.8306025L423.249628359 915.095686836L420.878899482 918.515676919L418.75071 922.112749063L416.875966611 925.875990854L415.265576016 929.794489883L413.930444912 933.857333735L412.88148 938.05361L411.834020625 944.11095625L411.4848675 949.52529L411.834020625 954.93962375L412.88148 960.99697L413.921749421 965.154359888L415.248716934 969.186771445L416.850797659 973.082515015L418.716406719 976.829900937L423.191870332 983.832841211L428.58242875 990.102075L434.795402949 995.544085039L441.738113906 1000.06535406L445.454158474 1001.95148655L449.317882598 1003.5723648L453.317701399 1004.91629917L457.44203 1005.9716L463.466382031 1007.00490937L469.11921875 1007.356225L474.783071094 1007.02597812L480.84047 1006.0146L485.036746152 1004.96560967L489.099589688 1003.63041359L493.018088223 1002.01992416L496.781329375 1000.14505375L500.378400762 998.016714746L503.79839 995.645819531L510.0634725 990.22001L515.489277812 983.954924219L517.860170566 980.534933691L519.988506875 976.93786125L521.863374355 973.174619277L523.473860625 969.256120156L524.809053301 965.19327627L525.85804 960.997L526.905500781 954.93965375L527.25465625 949.52532L526.905503594 944.11098625L525.85804 938.05364L524.809053301 933.857363845L523.473860625 929.794520293L521.863374355 925.876021711L519.988506875 922.112780469L517.860170566 918.515708933L515.489277812 915.095719473L510.0634725 908.83063625L503.79839 903.404829746L500.378400762 901.033936184L496.781329375 898.905598906L493.018088223 897.030730281L489.099589687 895.420242676L485.036746152 894.085048459L480.84047 893.03606L474.78354125 891.98866875L469.36976 891.63958L469.36976 891.63955M452.76625 918.53799L454.7333325 918.854475L456.3932 920.05557L456.946324375 920.908365625L457.152225 921.7858175L456.53773 924.05557L455.662179258 925.319705039L454.490668438 926.120411562L453.150399648 926.48150418L451.768575 926.4267975L450.472396602 925.980106133L449.389066562 925.165244687L448.645786992 924.006027773L448.36976 922.52627L448.743109375 920.929815937L449.7317325 919.6923175L451.138491875 918.874725313L452.76625 918.53799L452.76625 918.53799M474.36976 919.02627L476.241828125 919.115817188L477.3434175 919.5059475L477.915698125 920.378894063L478.19984 921.91689L478.05344625 924.2203625L477.701168281 925.096682813L477.19984 925.65127L475.889858066 926.267497813L474.608387031 926.483353125L473.409415293 926.33384125L472.34693125 925.8539675L471.474923301 925.078737188L470.847379844 924.043155625L470.518289277 922.782228125L470.54164 921.33096L470.846881563 920.167003125L471.4720375 919.4640825L472.589024688 919.118428125L474.36976 919.02627L474.36976 919.02627"
       style="fill:#000000" />
    <path
       inkscape:connector-curvature="0"
       id="path4192"
       d="M664.96989 747.16936L661.803299687 747.474525937L658.6748525 748.147835L655.854569062 749.056516562L653.61247 750.0678L651.749236875 751.388029375L650.4180125 752.7795875L649.3527 754.32757L647.195758567 756.713508965L645.181767441 759.420447344L641.572170156 765.84351625L638.50297623 773.689164531L635.95325375 783.04978L633.902070801 794.017750469L632.328495469 806.68546375L631.21159584 821.145307656L630.53044 837.48967L629.92497 859.7553L623.18473 859.7553L616.4445 859.7553L615.86637 835.14593L615.02570625 814.5985675L613.8195 799.7553L612.542727051 791.644208906L611.007058906 784.154368125L609.223592871 777.315938906L607.20342625 771.1590825L604.957656348 765.713960156L602.497380469 761.010733125L599.833695918 757.079562656L596.9777 753.95061L595.849705 752.49834375L594.52437875 751.224770156L592.76676 750.0678L590.411227656 749.159771094L587.47674875 748.44611875L584.296650469 748.007662031L581.20426 747.92522L577.620595469 748.415071719L573.87698125 749.38329125L568.507 751.39202L564.862140625 754.054289375L561.0308125 758.0958725L557.605058125 762.802619375L555.17692 767.46038L554.008266094 770.849279531L553.35147125 774.36494875L553.070780781 779.220813594L553.03044 786.6303L553.51914 799.41048375L554.165266875 804.714026719L555.14958 810.0678L557.990349844 821.163746563L562.20841875 834.70474L567.172945781 848.792985938L572.25309 861.53069L577.2609 873.14788L567.83512 882.62444L562.919318281 887.732957813L559.38379875 891.9076075L556.630579844 895.927978438L554.06168 900.57366L549.932430312 909.473369844L548.498501914 913.499427832L547.42547 917.51034625L546.668658711 921.706668887L546.183392187 926.288939531L545.84879 937.4135L546.089951875 947.795083438L546.9988875 955.703345L548.853771875 962.632211563L551.93278 970.07561L557.631110312 981.233222188L560.375676133 985.659085742L563.15713 989.516915L566.055437617 992.957155508L569.150564687 996.130252813L576.25114 1002.2768L581.382602187 1005.74364688L586.9778925 1008.498425L592.851406562 1010.72051563L598.81754 1012.5893L605.046617187 1014.19571406L611.389205 1015.3675875L617.797035312 1016.07121719L624.22184 1016.2729L630.663698281 1015.95932656L637.08120875 1015.1496375L643.420109844 1013.85812969L649.62614 1012.0991L654.20600375 1010.2275L658.44059 1007.6752L668.524616875 1000.22967141L673.466547734 996.287077246L678.217785 992.14287125L682.685349766 987.755759473L686.776263125 983.084447969L690.397546172 978.087642793L693.45622 972.72405L696.944941875 964.977408438L699.1986875 957.9588725L700.515769375 950.454272812L701.1945 941.24944L701.210575703 932.22816334L700.422395 923.760890469L698.802473672 915.778039551L696.3233275 908.21002875L692.957472266 900.98727623L688.67742375 894.040200156L683.455697734 887.299218691L677.26481 880.69475L669.46208 873.0385L672.3527 866.45257L680.32592875 846.7064675L683.883872656 836.795665938L686.77458 827.8803L690.173044062 815.878965469L692.2062925 806.32613625L693.195559687 797.237888906L693.46208 786.6303L693.403587031 778.777081406L693.12456125 773.67952875L692.499157344 770.135486719L691.40153 766.9428L689.2211275 762.474129219L686.496735 758.47011625L683.3263025 755.053520156L679.80778 752.3471L677.021980625 750.716144375L673.7656575 749.135135L670.251585625 747.875928125L666.69254 747.21038L664.96989 747.16938L664.96989 747.16936M665.58512 781.21428L666.0920875 781.66784L666.7902 782.88811L667.325794922 784.548741328L667.58482875 786.9792425L667.2898125 793.9823325L665.93835 803.56233625L663.56364 815.38421L660.40693125 828.618715L657.48747 839.59905L655.579692969 845.511951094L655.037740488 846.419297285L654.75566875 845.83125375L654.926937656 839.781037031L656.00504 826.58538L657.750637812 809.973062187L659.7274175 797.0087725L661.914785937 787.801536562L663.081005586 784.640884258L664.29215 782.46038L665.0566925 781.49041L665.58512 781.21428L665.58512 781.21428M581.0734 781.47405L581.666812173 781.678957017L582.276898164 782.282163633L583.531540938 784.614389063L584.806226992 788.332553086L586.069855 793.2984825L588.439531563 806.420944688L590.39176 822.87639L591.3692125 835.566585L591.60661 843.48186L591.342620469 845.528706094L591.105867051 845.617523613L590.74945875 844.95998625L587.38004 833.01702L584.454237812 821.270607187L582.04248 810.3171225L580.243352187 800.640344062L579.15544 792.72405L578.988812969 788.543738438L579.30908875 784.9457175L580.032030156 782.424362813L580.518176348 781.721927695L581.0734 781.47405L581.0734 781.47405M583.61247 930.17717L585.77653 930.57366L587.75706375 931.734757656L588.9407525 933.42003875L589.2576625 935.455567969L588.63786 937.66741L587.405046641 939.246573945L585.789885625 940.098636563L583.991035547 940.298216523L582.207155 939.9199325L580.636902578 939.038403164L579.478936875 937.728247187L578.931916484 936.064083242L579.1945 934.12053L579.991290469 932.421748906L580.99821875 931.19566375L582.207780156 930.446171719L583.61247 930.17717L583.61247 930.17717M662.46403 930.23377L663.91877459 930.447214863L665.244713594 931.064569531L666.366056113 932.008276621L667.20701125 933.20077875L667.691788105 934.564518535L667.744595781 936.021938594L667.289643379 937.495481543L666.25114 938.90759L664.5612675 939.947775L662.56754 940.38025L660.945086719 940.131083281L659.587654375 939.447751875L658.533057969 938.426508906L657.8191125 937.1636075L657.483632969 935.755300781L657.564434375 934.297841875L658.099331719 932.887483906L659.12614 931.62048L660.7750525 930.5707325L662.46403 930.23377L662.46403 930.23377M623.09294 957.66931L625.082295 957.77574L626.95426 958.19666L628.636057246 958.914291973L629.832317969 959.787363906L630.543216895 960.801687324L630.76892875 961.94307375L630.509628262 963.197334707L629.765490156 964.550281719L626.8234 967.49548L624.650422969 968.924802812L622.84522625 969.292975L621.049136406 968.564159687L618.90348 966.70252L617.162515938 964.551524687L616.301975 962.52778L616.349609063 960.759372812L617.33317 959.37439L619.87946625 958.14582625L623.09294 957.66931L623.09294 957.66931"
       style="fill:#000000" />
  </g>
</svg>
