<?xml version="1.0" encoding="UTF-8" standalone="no"?>
<!-- Created with Inkscape (http://www.inkscape.org/) -->

<svg
   xmlns:dc="http://purl.org/dc/elements/1.1/"
   xmlns:cc="http://creativecommons.org/ns#"
   xmlns:rdf="http://www.w3.org/1999/02/22-rdf-syntax-ns#"
   xmlns:svg="http://www.w3.org/2000/svg"
   xmlns="http://www.w3.org/2000/svg"
   xmlns:sodipodi="http://sodipodi.sourceforge.net/DTD/sodipodi-0.dtd"
   xmlns:inkscape="http://www.inkscape.org/namespaces/inkscape"
   width="210mm"
   height="297mm"
   viewBox="0 0 744.09448819 1052.3622047"
   id="svg2"
   version="1.1"
   inkscape:version="0.91 r13725"
   sodipodi:docname="globe.svg">
  <defs
     id="defs4">
    <marker
       orient="auto"
       id="DistanceX"
       style="overflow:visible"
       refX="0.0"
       refY="0.0">
      <path
         id="path4140"
         d="M 3,-3 L -3,3 M 0,-5 L  0,5"
         style="stroke:#000000; stroke-width:0.5" />
    </marker>
    <pattern
       id="Hatch"
       x="0"
       y="0"
       patternUnits="userSpaceOnUse"
       width="8"
       height="8">
      <path
         id="path4143"
         d="M8 4 l-4,4"
         stroke-width="0.25"
         stroke="#000000"
         linecap="square" />
      <path
         id="path4145"
         d="M6 2 l-4,4"
         stroke-width="0.25"
         stroke="#000000"
         linecap="square" />
      <path
         id="path4147"
         d="M4 0 l-4,4"
         stroke-width="0.25"
         stroke="#000000"
         linecap="square" />
    </pattern>
    <symbol
       id="*MODEL_SPACE" />
    <symbol
       id="*PAPER_SPACE" />
  </defs>
  <sodipodi:namedview
     id="base"
     pagecolor="#ffffff"
     bordercolor="#666666"
     borderopacity="1.0"
     inkscape:pageopacity="0.0"
     inkscape:pageshadow="2"
     inkscape:zoom="0.7"
     inkscape:cx="297.57951"
     inkscape:cy="486.64206"
     inkscape:document-units="mm"
     inkscape:current-layer="layer1"
     showgrid="false"
     inkscape:window-width="1440"
     inkscape:window-height="837"
     inkscape:window-x="-4"
     inkscape:window-y="-4"
     inkscape:window-maximized="1" />
  <metadata
     id="metadata7">
    <rdf:RDF>
      <cc:Work
         rdf:about="">
        <dc:format>image/svg+xml</dc:format>
        <dc:type
           rdf:resource="http://purl.org/dc/dcmitype/StillImage" />
        <dc:title />
      </cc:Work>
    </rdf:RDF>
  </metadata>
  <g
     inkscape:label="Layer 1"
     inkscape:groupmode="layer"
     id="layer1">
    <path
       style="fill:#c87137;stroke:#aa4400;stroke-width:0.98395097;stroke-linejoin:round;stroke-miterlimit:4;stroke-dasharray:none"
       d="m 212.61942,147.50474 a 22.5,22.5 0 0 0 -22.5,22.5 22.5,22.5 0 0 0 0.54297,4.78321 A 158.95685,158.95685 0 0 0 53.662387,332.03013 158.95685,158.95685 0 0 0 212.61942,490.98716 158.95685,158.95685 0 0 0 371.57645,332.03013 158.95685,158.95685 0 0 0 234.59403,174.77427 a 22.5,22.5 0 0 0 0.52539,-4.76953 22.5,22.5 0 0 0 -22.5,-22.5 z m 0,13.83594 a 8.6638432,8.6638432 0 0 1 8.66406,8.66406 8.6638432,8.6638432 0 0 1 -8.66406,8.66406 8.6638432,8.6638432 0 0 1 -8.66406,-8.66406 8.6638432,8.6638432 0 0 1 8.66406,-8.66406 z m -7.88672,29.70703 a 22.5,22.5 0 0 0 1.54493,0.53125 l 0,15.12891 c -9.25751,0.48217 -18.76337,2.62164 -26.60352,6.74804 -13.26102,6.97949 -24.33597,18.55085 -30.17187,31.51954 -6.58563,14.63471 -6.55977,37.44004 0.0586,51.02539 6.06123,12.44174 13.63696,18.19133 34.43359,26.13281 19.16586,7.31874 29.18921,16.15913 31.00391,27.3418 1.85876,11.45417 -6.40271,26.53545 -29.89063,54.5664 -11.48316,13.70423 -20.8789,26.14983 -20.8789,27.6582 0,1.50838 3.78201,8.07301 8.40234,14.58594 2.15187,3.03334 4.39966,5.77996 6.36719,7.88086 l 0,14.92383 A 141.29497,141.29497 0 0 1 71.324497,332.03013 141.29497,141.29497 0 0 1 204.7327,191.04771 Z m 15.3418,0.16016 a 141.29497,141.29497 0 0 1 133.83984,140.82226 141.29497,141.29497 0 0 1 -141.29492,141.29492 141.29497,141.29497 0 0 1 -24.05273,-2.20898 l 0,-14.23047 c 8.66015,-3.34167 25.907,-12.91599 39.02148,-21.95508 21.79737,-15.02369 47.3161,-42.71312 57.58594,-62.48633 12.57971,-24.22055 15.73275,-43.95919 15.64648,-66.84179 -0.0569,-15.08624 -2.01906,-26.57545 -10.64843,-43.99024 -11.23928,-22.68181 -25.90377,-38.02777 -44.97461,-47.06054 -10.88634,-5.15624 -19.51518,-7.21889 -28.99805,-7.7793 l 0,-14.56445 a 22.5,22.5 0 0 0 3.875,-1 z m -9.27148,33.54882 c 6.80863,0.005 14.01335,1.17534 21.38867,3.66797 14.13476,4.77711 33.78171,23.67708 41.82617,40.23438 26.44485,54.42943 -2.62333,119.76577 -71.85547,161.51172 -6.52074,3.9319 -10.18774,6.91977 -12.30859,7.63086 -2.32864,0.78076 -4.3992,-3.51575 -5.17188,-5.5293 -0.57953,-1.51025 5.23461,-5.71425 10.97852,-12.41602 28.76351,-33.56018 36.53125,-47.92578 36.53125,-67.55859 0,-10.58062 -1.0337,-14.44163 -5.9336,-22.16797 -7.52454,-11.86498 -15.2395,-17.31828 -34.85156,-24.63476 -20.27648,-7.56435 -26.86989,-14.06249 -28.53515,-28.12305 -3.64711,-30.79416 18.42753,-52.63708 47.93164,-52.61524 z"
       id="path4292"
       inkscape:connector-curvature="0" />
    <g
       id="layer1-7"
       inkscape:label="Layer 1"
       transform="matrix(0.4940087,0,0,0.4940087,111.98141,215.35624)" />
    <path
       style="fill:#c87137;stroke:#aa4400;stroke-width:0.98395097;stroke-linejoin:round;stroke-miterlimit:4;stroke-dasharray:none"
       d="M 538.08203 143.93359 A 22.5 22.5 0 0 0 515.58203 166.43359 A 22.5 22.5 0 0 0 516.125 171.2168 A 158.95685 158.95685 0 0 0 379.125 328.45898 A 158.95685 158.95685 0 0 0 538.08203 487.41602 A 158.95685 158.95685 0 0 0 697.03906 328.45898 A 158.95685 158.95685 0 0 0 560.05664 171.20312 A 22.5 22.5 0 0 0 560.58203 166.43359 A 22.5 22.5 0 0 0 538.08203 143.93359 z M 538.08203 157.76953 A 8.6638432 8.6638432 0 0 1 546.74609 166.43359 A 8.6638432 8.6638432 0 0 1 538.08203 175.09766 A 8.6638432 8.6638432 0 0 1 529.41797 166.43359 A 8.6638432 8.6638432 0 0 1 538.08203 157.76953 z "
       id="path4169" />
    <path
       id="path4177"
       d="m 216.65346,529.64788 a 22.5,22.5 0 0 0 -22.5,22.5 22.5,22.5 0 0 0 0.54297,4.78321 A 158.95685,158.95685 0 0 0 57.696427,714.17327 158.95685,158.95685 0 0 0 216.65346,873.13031 158.95685,158.95685 0 0 0 375.61049,714.17327 158.95685,158.95685 0 0 0 238.62807,556.91741 a 22.5,22.5 0 0 0 0.52539,-4.76953 22.5,22.5 0 0 0 -22.5,-22.5 z m 0,13.83594 a 8.6638432,8.6638432 0 0 1 8.66406,8.66406 8.6638432,8.6638432 0 0 1 -8.66406,8.66407 8.6638432,8.6638432 0 0 1 -8.66406,-8.66407 8.6638432,8.6638432 0 0 1 8.66406,-8.66406 z"
       style="fill:#c87137;stroke:#aa4400;stroke-width:0.98395097;stroke-linejoin:round;stroke-miterlimit:4;stroke-dasharray:none"
       inkscape:connector-curvature="0" />
    <path
       style="fill:#000000"
       d="M 212.00781 584.95312 C 200.85768 584.90323 188.92177 587.13574 179.3457 592.17578 C 165.38112 599.52556 153.71584 611.70851 147.57031 625.36523 C 140.63528 640.77638 140.66329 664.79351 147.63281 679.09961 C 154.01562 692.20145 161.99455 698.25632 183.89453 706.61914 C 204.07722 714.32617 214.632 723.63421 216.54297 735.41016 C 218.50035 747.47203 209.80046 763.35298 185.06641 792.87109 C 172.97402 807.30238 163.08008 820.40965 163.08008 821.99805 C 163.08008 823.58645 167.06226 830.497 171.92773 837.35547 C 176.7932 844.21397 182.18715 849.82617 183.91602 849.82617 C 188.95148 849.82617 212.71467 837.17494 229.80078 825.39844 C 252.75459 809.57768 279.62671 780.41992 290.44141 759.59766 C 303.68852 734.0921 307.00881 713.3056 306.91797 689.20898 C 306.85807 673.32235 304.79228 661.22544 295.70508 642.88672 C 283.86951 619.00154 268.42638 602.84209 248.34375 593.33008 C 234.70469 586.87004 224.43714 585.0088 212.00781 584.95312 z M 212.12305 604.07422 C 219.29291 604.07922 226.88182 605.31263 234.64844 607.9375 C 249.53311 612.96806 270.22211 632.86896 278.69336 650.30469 C 306.54122 707.62184 275.93059 776.42597 203.02539 820.38672 C 196.1587 824.52723 192.29587 827.67501 190.0625 828.42383 C 187.61031 829.24601 185.43281 824.71999 184.61914 822.59961 C 184.00886 821.00924 190.12908 816.58271 196.17773 809.52539 C 226.46727 774.1847 234.64844 759.05722 234.64844 738.38281 C 234.64844 727.24083 233.5583 723.17337 228.39844 715.03711 C 220.47468 702.54265 212.34983 696.80035 191.69727 689.0957 C 170.34504 681.13003 163.40401 674.28896 161.65039 659.48242 C 157.80979 627.0545 181.05363 604.05121 212.12305 604.07422 z "
       id="path4804" />
    <path
       id="path4177-2"
       d="m 547.14286,532.04956 a 22.5,22.5 0 0 0 -22.5,22.5 22.5,22.5 0 0 0 0.54297,4.78321 158.95685,158.95685 0 0 0 -137,157.24218 158.95685,158.95685 0 0 0 158.95703,158.95704 158.95685,158.95685 0 0 0 158.95703,-158.95704 158.95685,158.95685 0 0 0 -136.98242,-157.25586 22.5,22.5 0 0 0 0.52539,-4.76953 22.5,22.5 0 0 0 -22.5,-22.5 z m 0,13.83594 a 8.6638432,8.6638432 0 0 1 8.66406,8.66406 8.6638432,8.6638432 0 0 1 -8.66406,8.66407 8.6638432,8.6638432 0 0 1 -8.66406,-8.66407 8.6638432,8.6638432 0 0 1 8.66406,-8.66406 z"
       style="fill:#c87137;stroke:#aa4400;stroke-width:0.98395097;stroke-linejoin:round;stroke-miterlimit:4;stroke-dasharray:none"
       inkscape:connector-curvature="0" />
    <path
       style="fill:#ff0000"
       d="m 569.09184,592.40607 c -0.68081,0.006 -1.33477,0.081 -1.85668,0.23275 -2.81937,0.81961 -6.42976,4.28315 -7.4938,7.18874 -0.52664,1.43807 -0.5609,4.02398 -0.0711,5.45302 0.19046,0.55558 4.6857,8.22308 9.98824,17.03759 5.30254,8.81454 9.67949,16.12643 9.72655,16.24862 0.0341,0.0885 -1.02066,2.0929 -2.4129,4.67723 6.34003,5.33639 11.79442,12.12954 16.47874,20.50242 0.47266,-0.78743 0.79423,-1.33382 1.30047,-2.17357 l 6.31168,-10.46819 3.2755,0.0315 c 1.80194,0.0177 9.61298,0.12656 17.35711,0.24196 7.74415,0.11552 15.11588,0.17522 16.38144,0.1328 2.10706,-0.0702 2.40746,-0.12562 3.5661,-0.66798 2.41312,-1.12957 4.02959,-3.18934 5.03487,-6.41425 0.3603,-1.15583 0.43919,-1.81857 0.43919,-3.74493 6.7e-4,-2.14361 -0.0422,-2.42848 -0.49835,-3.40173 -0.5513,-1.17602 -1.73886,-2.56524 -2.70087,-3.15978 -0.89167,-0.55105 -4.54335,-1.4309 -6.93365,-1.66997 -6.71509,-0.6717 -25.1573,-2.92063 -25.1573,-3.06774 0,-0.0966 0.94845,-1.95331 2.10653,-4.12626 2.20076,-4.12932 3.47454,-7.06922 4.10127,-9.46094 0.75133,-2.86714 0.40252,-6.87228 -0.80474,-9.23872 -0.56331,-1.10417 -2.32628,-2.78904 -3.5306,-3.37412 -1.90903,-0.92743 -3.64388,-1.08164 -5.84224,-0.5194 -3.01053,0.76997 -5.43966,2.38156 -7.81728,5.18741 -1.73728,2.05016 -2.52557,3.1975 -5.22949,7.60426 -1.05825,1.72472 -1.95513,3.13611 -1.99344,3.13611 -0.0787,0 -13.4228,-17.79681 -15.15591,-20.21314 -1.64824,-2.29799 -4.28688,-4.94611 -5.42937,-5.44908 -0.79571,-0.35031 -2.00536,-0.53422 -3.14005,-0.52466 z m -42.87733,0.0131 c -1.02191,0.0324 -2.05935,0.23662 -2.80607,0.58384 -1.41973,0.66015 -4.12386,3.46323 -5.99346,6.21304 -0.70947,1.04347 -2.53442,3.50863 -11.2006,15.13094 l -3.32547,4.45894 -0.5102,-0.80868 c -0.28093,-0.44467 -1.42879,-2.27361 -2.55097,-4.06446 -3.97075,-6.33679 -6.68459,-9.11186 -10.34195,-10.576 -2.84963,-1.14081 -5.3889,-1.07441 -7.82385,0.20512 -2.88931,1.51829 -4.44388,4.63014 -4.44052,8.89026 0.002,3.62807 1.14981,6.77849 5.07696,13.9475 0.91386,1.66827 1.66207,3.10335 1.66207,3.18871 0,0.13391 -18.90481,2.49041 -24.52613,3.05722 -6.69058,0.67466 -9.17419,1.97352 -10.53788,5.51089 -0.30828,0.79974 -0.34733,1.26409 -0.26692,3.18345 0.23603,5.63378 3.01767,9.55167 7.36493,10.37613 0.64032,0.12146 7.1762,0.0671 19.7503,-0.16437 17.45662,-0.32106 18.814,-0.32346 19.09283,-0.0368 0.0949,0.0975 0.93806,1.45197 2.04603,3.25841 4.30167,-8.51919 11.76554,-16.0422 20.59974,-20.69179 0.71182,-0.37464 1.4456,-0.7229 2.19331,-1.05194 11.42845,-19.09048 15.88538,-26.63481 16.21181,-27.44791 0.52296,-1.30269 0.54682,-4.28693 0.0447,-5.61608 -1.20779,-3.19714 -5.09556,-6.8169 -7.96192,-7.41228 -0.53637,-0.11141 -1.1436,-0.15352 -1.75675,-0.13413 z m 21.77265,32.91935 c -0.0514,-0.002 -0.89426,1.44257 -1.87246,3.20843 -0.18461,0.33327 -0.33378,0.6036 -0.53254,0.96254 1.75401,0.1715 3.48291,0.43278 5.22685,0.7929 -1.53091,-2.74766 -2.78216,-4.96283 -2.82185,-4.96387 z m -8.43528,16.75487 c -0.32751,-2.4e-4 -0.64951,0.015 -0.97437,0.0223 -0.1987,0.35663 -0.25465,0.45815 -0.45366,0.81526 -2.26662,4.06722 -5.37547,9.64807 -6.90866,12.40245 -1.53318,2.75438 -2.83749,5.00858 -2.89942,5.00858 -0.0858,0 -4.134,-7.23896 -7.52667,-13.37813 -8.01692,4.70377 -13.59858,12.55211 -15.09281,22.38673 0.0354,0.0584 0.18201,0.30128 0.21301,0.35241 l 1.64631,2.71402 -0.9862,0.05 c -0.0515,0.002 -0.99822,-0.0129 -1.19659,-0.0131 -0.1384,2.23113 -0.0865,4.54541 0.19724,6.94153 0.37704,3.1835 1.11315,5.81876 2.405,8.10788 4.13958,-0.29668 7.99296,-0.55426 8.34984,-0.5286 0.62848,0.0452 0.66355,0.0999 6.23673,9.78047 0.52273,0.908 0.49558,0.86345 0.98093,1.70679 0.72819,0.28934 1.47271,0.57893 2.25775,0.87179 13.90424,5.18713 19.37295,9.0531 24.70758,17.46495 3.47386,5.47769 4.20779,8.21479 4.20779,15.71607 0,5.23937 -0.78194,9.94991 -2.84288,15.05599 3.3892,5.81753 7.72129,13.34704 7.72129,13.50172 0,0.10961 -1.11565,1.83495 -2.47997,3.83435 -1.36433,1.99934 -3.95484,5.82524 -5.75678,8.50107 -1.18106,1.75374 -2.05768,3.02395 -2.66142,3.88032 11.95229,-9.25409 21.57231,-19.60821 28.6182,-30.52615 -0.90222,-1.56753 -2.31689,-4.02714 -4.42343,-7.69761 -2.6002,-4.53055 -4.89386,-8.51146 -5.09669,-8.84687 l -0.36818,-0.61013 11.73183,0.0486 6.89551,0.029 c 2.92825,-7.62676 4.63917,-15.38196 5.06118,-23.10469 l -0.2288,0.47075 -11.72131,0.0486 c -11.13433,0.0458 -11.71162,0.0325 -11.53854,-0.28008 0.10022,-0.18096 2.70282,-4.71017 5.78439,-10.06449 5.57781,-9.69165 5.6052,-9.73601 6.23673,-9.78179 0.39974,-0.029 5.09985,0.28922 9.83439,0.63643 -1.13552,-4.88242 -2.83024,-9.6946 -5.11247,-14.39194 -2.98095,-6.13548 -8.21396,-12.71211 -13.95669,-18.08822 -1.61214,2.85766 -2.92056,5.1334 -2.97833,5.07564 -0.089,-0.089 -3.06179,-5.42857 -7.20057,-12.89424 -1.9144,-1.13251 -3.7755,-2.0293 -5.51746,-2.61802 -5.22884,-1.76719 -10.33673,-2.59626 -15.1638,-2.59963 z m 8.43528,16.38932 c 0.0515,-3.3e-4 0.72468,0.94514 1.4964,2.09996 0.77173,1.15474 3.36224,4.9826 5.75678,8.5063 2.39454,3.52377 4.35375,6.49655 4.35375,6.60623 0,0.10973 -1.81947,3.3346 -4.04343,7.16638 -2.22395,3.83177 -4.81102,8.29287 -5.7502,9.91459 -0.93918,1.62178 -1.75438,2.94939 -1.81066,2.94939 -0.1981,0 -11.63127,-19.87485 -11.57404,-20.11978 0.07,-0.2998 11.43818,-17.12307 11.5714,-17.12307 z m 109.81795,10.69699 c -2.38087,0.0827 -4.54377,1.10019 -6.07236,2.88496 -0.72081,0.84163 -2.63773,4.23745 -14.69306,26.02515 l -4.26038,7.70025 -3.03355,0.11309 c -1.66885,0.0625 -5.9833,0.15849 -9.58718,0.21302 -3.60388,0.0543 -7.79488,0.14845 -9.31367,0.21039 -1.88901,0.0768 -2.76136,0.0501 -2.76136,-0.0855 0,-0.17667 6.78246,-11.53735 17.00734,-28.48671 1.9563,-3.24289 3.5418,-5.90961 3.52402,-5.92509 -0.0244,-0.0215 -18.32683,0.25136 -30.88777,0.45496 4.50458,10.16805 5.60796,17.64802 5.64369,27.12445 0.0525,13.90553 -1.59585,26.17948 -7.68053,40.2146 2.28733,4.73337 4.11438,8.62613 4.06315,8.67724 -0.0501,0.0501 -3.95006,0.37344 -8.70355,0.72979 -4.99497,8.69204 -13.59128,19.09967 -22.93111,28.14747 1.97729,3.37592 11.5083,20.55574 11.5083,20.78383 0,0.10456 -4.31218,7.41008 -9.58192,16.23411 -5.26975,8.82407 -9.75084,16.46489 -9.95799,16.9797 -0.54979,1.36647 -0.54233,4.27637 0.0144,5.76344 1.15006,3.07157 5.07077,6.67578 7.90143,7.26371 1.43163,0.29736 3.36964,0.10656 4.56413,-0.44974 1.42784,-0.66503 4.14703,-3.48537 5.98821,-6.21177 0.41722,-0.6178 2.92609,-4.0308 5.57532,-7.58315 2.64922,-3.55243 5.74082,-7.70257 6.87052,-9.223 1.5299,-2.05906 2.10182,-2.70375 2.24328,-2.5273 0.10445,0.13046 1.17902,1.83331 2.3866,3.78439 2.6762,4.32393 3.98331,6.08006 6.07368,8.15389 1.80602,1.79173 3.1119,2.6332 5.26893,3.39648 2.75994,0.97666 4.95816,0.89118 7.194,-0.27877 2.9818,-1.56027 4.57783,-4.69873 4.58255,-9.01519 0.004,-3.31573 -1.1257,-6.52822 -4.51549,-12.84955 -1.22133,-2.27759 -2.21961,-4.19567 -2.21961,-4.263 0,-0.11572 20.40793,-2.62888 24.47354,-3.01378 2.13999,-0.20265 4.20419,-0.58942 6.07762,-1.13879 2.12894,-0.62423 3.83168,-2.3116 4.56676,-4.52469 0.25048,-0.7541 0.29469,-1.38526 0.21565,-3.11638 -0.25459,-5.57582 -3.03431,-9.4725 -7.34916,-10.30248 -0.81492,-0.1568 -19.90465,0.0793 -34.84835,0.43128 -3.36775,0.0793 -3.8043,0.0551 -4.04342,-0.22486 -0.14742,-0.17242 -2.32138,-3.7246 -4.83106,-7.89482 -2.5097,-4.17022 -5.30648,-8.8042 -6.21438,-10.29725 l -1.65024,-2.71402 1.0835,-0.05 c 0.59575,-0.027 9.63435,0.11134 20.0856,0.30638 10.45125,0.19497 19.01527,0.3422 19.03103,0.32873 0.0297,-0.0257 -0.40675,-0.75779 -12.88109,-21.60303 -4.20607,-7.02856 -7.64764,-12.87122 -7.64764,-12.98366 0,-0.13795 0.40864,-0.16832 1.26365,-0.0947 0.69504,0.0598 5.93953,0.16218 11.65424,0.22749 5.71473,0.0654 10.72412,0.17435 11.13223,0.24194 l 0.74162,0.12229 4.74954,8.51419 c 2.61184,4.68284 6.65139,11.9272 8.97705,16.09741 2.32567,4.17023 4.52482,7.99351 4.8876,8.4971 0.89435,1.24154 2.6024,2.46078 4.09076,2.92047 2.47822,0.76541 5.72095,0.36116 8.76271,-1.09271 2.56849,-1.22774 4.21987,-3.36787 4.50759,-5.84225 0.1865,-1.60408 -0.96941,-5.71387 -2.37082,-8.43398 -0.23334,-0.45289 -2.50947,-5.66779 -5.05854,-11.58851 l -4.63515,-10.76404 3.40305,-0.13807 c 9.49101,-0.38294 12.78622,-1.06647 15.99352,-3.31888 1.6777,-1.17819 2.95929,-2.61425 3.67919,-4.12495 0.54467,-1.14304 0.57989,-1.34937 0.57989,-3.38069 0,-2.1214 -0.013,-2.18857 -0.70086,-3.58056 -1.17019,-2.36768 -3.95135,-4.6166 -6.9823,-5.64633 -2.64117,-0.8973 -6.85757,-1.41883 -11.6937,-1.44642 -1.49303,-0.008 -3.06782,-0.0725 -3.49903,-0.14201 l -0.7837,-0.12623 0.92046,-2.15256 c 3.04257,-7.12159 8.65534,-20.16653 9.22424,-21.43735 0.89151,-1.99132 1.6409,-4.58582 1.75807,-6.08419 0.11407,-1.45839 -0.38823,-3.16609 -1.31099,-4.45105 -1.47767,-2.05757 -4.91602,-3.63273 -8.53655,-3.91193 -0.34781,-0.0268 -0.69209,-0.0342 -1.03221,-0.0223 z m -219.70032,0.34977 c -0.28899,0.002 -0.61991,0.0163 -1.01907,0.0382 -4.3185,0.23584 -7.95839,2.21739 -9.30578,5.06643 -0.78517,1.66029 -0.85878,3.01259 -0.28272,5.20582 0.51075,1.9446 1.28897,4.02502 2.14598,5.73574 0.71247,1.42223 9.38468,21.64773 9.38468,21.88706 0,0.19787 -3.36521,0.4313 -6.21438,0.4313 -3.36012,0 -7.9767,0.73498 -10.19731,1.62394 -2.83767,1.13596 -5.41834,3.38939 -6.50497,5.67788 -0.54172,1.14096 -0.57857,1.35182 -0.57857,3.37411 0,2.0724 0.0257,2.20815 0.63774,3.46355 0.45274,0.92861 1.02607,1.68527 1.9816,2.61671 3.3612,3.27628 7.01291,4.30504 16.2368,4.57334 2.54977,0.0742 4.67172,0.17057 4.71535,0.21433 0.0935,0.094 -8.73988,20.90434 -9.57009,22.54584 -1.35872,2.68645 -2.38238,6.36609 -2.24853,8.08684 0.1173,1.508 0.94066,3.26543 2.04604,4.37084 2.11746,2.11742 6.70327,3.53004 9.86857,3.04012 1.8909,-0.29272 3.21725,-0.97184 4.57333,-2.34189 1.04965,-1.06044 1.74627,-2.22949 7.17034,-12.03295 3.30426,-5.97217 7.41432,-13.3977 9.1322,-16.5011 l 3.12297,-5.64238 2.75084,-0.11176 c 1.51336,-0.0616 5.82753,-0.15654 9.58586,-0.2104 3.75834,-0.0539 8.07497,-0.14845 9.59375,-0.21039 1.87868,-0.0765 2.76136,-0.0498 2.76136,0.0842 0,0.18319 -4.39853,7.55497 -15.88308,26.61555 -2.5743,4.27256 -4.66605,7.78012 -4.64828,7.79493 0.0178,0.0148 7.27766,-0.0848 16.13292,-0.22222 8.85524,-0.13748 17.88963,-0.27669 20.0777,-0.30901 2.59888,-0.0383 3.97581,0.007 3.9711,0.13018 -0.004,0.10409 -2.84705,4.89779 -6.31825,10.65226 l -6.31036,10.46292 -3.37018,-0.025 c -1.85342,-0.0135 -9.62768,-0.12011 -17.27559,-0.23537 -7.64792,-0.11499 -14.97777,-0.17518 -16.28807,-0.13411 -2.20287,0.0694 -2.47766,0.11957 -3.64762,0.66799 -2.41477,1.13186 -4.0339,3.19604 -5.03357,6.41556 -0.35755,1.15159 -0.43586,1.82531 -0.43787,3.74621 -0.002,2.26972 0.0162,2.3802 0.61013,3.58847 0.85141,1.73199 2.27719,3.01432 3.91456,3.52007 1.93849,0.59871 4.632,1.08641 7.17427,1.29787 1.28709,0.10706 6.96717,0.74307 12.62335,1.41483 5.6562,0.67176 10.43742,1.22161 10.62467,1.22161 0.18724,0 0.33799,0.10536 0.3353,0.23401 -0.002,0.1288 -0.97159,2.04526 -2.15386,4.25909 -3.40564,6.37709 -4.41436,9.29869 -4.42869,12.82589 -0.0223,5.50185 2.55753,9.07867 7.10984,9.85931 1.09648,0.18806 1.55002,0.17528 2.85341,-0.0813 3.0923,-0.60925 5.96304,-2.40057 8.28801,-5.17162 1.85501,-2.21093 2.71227,-3.44603 5.17821,-7.46222 1.15381,-1.87921 2.13212,-3.41757 2.17359,-3.41757 0.10739,0 13.28132,17.55773 14.3801,19.16514 1.46405,2.14172 4.12052,5.1727 5.2216,5.95798 0.285,0.20333 0.95897,0.53265 1.49771,0.73241 1.44362,0.53539 3.9633,0.42136 5.40964,-0.24458 2.76154,-1.27145 5.62198,-4.25878 6.55625,-6.8455 0.52225,-1.44591 0.56174,-4.04309 0.0815,-5.43986 -0.18858,-0.54841 -4.68262,-8.21472 -9.98691,-17.0363 -2.3458,-3.90132 -2.61347,-4.36977 -4.30247,-7.19006 -0.59796,0.17073 -1.11041,0.28141 -1.45957,0.28141 -1.16396,0 -4.79541,-3.7771 -8.07106,-8.39456 -3.27565,-4.61739 -5.95665,-9.2712 -5.95665,-10.34058 0,-1.06939 6.66105,-9.89247 14.80221,-19.60831 16.65209,-19.87294 22.50925,-30.56605 21.19146,-38.68665 -1.28656,-7.9281 -8.39252,-14.1947 -21.98043,-19.38342 -3.64325,-1.39123 -6.71077,-2.68775 -9.33471,-3.98425 l -6.10785,0 -0.81396,-1.73177 c -0.20101,-0.42799 -1.32349,-2.73992 -2.0171,-4.17754 -2.55489,-2.39654 -4.43734,-5.14004 -6.13942,-8.63386 -2.64801,-5.43553 -3.80581,-12.95322 -3.47405,-20.33675 -2.12638,-0.037 -3.81849,-0.0625 -6.17098,-0.1065 -10.50274,-0.19652 -19.10975,-0.34487 -19.12571,-0.33006 -0.0159,0.0146 1.76258,3.01659 3.95138,6.67198 12.52449,20.91626 16.57735,27.74355 16.57735,27.92129 0,0.13142 -0.42939,0.16262 -1.26364,0.0907 -0.69503,-0.0598 -5.93822,-0.16219 -11.65293,-0.22749 -5.71473,-0.0654 -10.72376,-0.17448 -11.13091,-0.24195 l -0.74032,-0.12229 -3.76333,-6.73639 c -2.06947,-3.7048 -6.10749,-10.94904 -8.97442,-16.09741 -2.86692,-5.14839 -5.51157,-9.77262 -5.87644,-10.2762 -0.9323,-1.28685 -2.61432,-2.46864 -4.19726,-2.94941 -0.82946,-0.25215 -1.31977,-0.34089 -2.18674,-0.33267 z m 67.01425,60.08192 11.71474,0 11.71341,0 -0.36686,0.6075 c -0.20164,0.33461 -2.03474,3.51539 -4.07366,7.06776 -2.03893,3.55239 -4.48147,7.80687 -5.42804,9.45437 l -1.72125,2.99542 -1.1006,0.0263 c -0.60534,0.0141 -4.723,-0.25433 -9.15062,-0.59567 -4.42763,-0.3414 -8.51329,-0.627 -9.07961,-0.63642 -0.56632,-0.009 -1.13614,-0.0844 -1.26629,-0.167 -0.24181,-0.1535 0.16733,-1.04748 5.28867,-11.54512 1.10514,-2.26526 2.33874,-4.81391 2.74032,-5.66341 l 0.72979,-1.54374 z m 34.93908,37.06927 c -2.83829,3.69393 -6.17742,7.77649 -10.0908,12.3722 0.9451,1.68385 2.66877,4.78926 4.47736,8.04744 4.71614,-2.88951 9.16431,-5.93459 13.33472,-9.11252 -0.29358,-0.37089 -1.37191,-1.91821 -2.78764,-4.01712 -1.36795,-2.02804 -3.37311,-4.98944 -4.93364,-7.29 z m 26.00543,12.46557 c -4.85978,4.54919 -9.85959,8.67747 -14.61153,11.95274 -3.40305,2.34552 -7.19844,4.73803 -10.94551,6.95072 1.17847,2.13137 1.85928,3.35216 3.1782,5.74104 2.31525,4.19345 4.25095,7.62659 4.30245,7.62659 0.0515,0 0.56642,-0.86027 1.144,-1.91457 0.57757,-1.05437 3.68105,-6.6349 6.89682,-12.40112 3.21576,-5.76621 7.12413,-12.77874 8.68513,-15.58456 0.51548,-0.92652 0.92109,-1.62367 1.35044,-2.37084 z m -43.3678,7.60424 c -1.14285,1.16283 -1.83943,2.00204 -1.66208,2.46422 0.0373,0.0971 0.0885,0.21685 0.13412,0.3274 0.54155,-0.9892 0.97046,-1.78256 1.52796,-2.79162 z"
       id="path4219"
       inkscape:connector-curvature="0" />
    <path
       style="fill:#00ff00"
       d="m 562.81756,195.34503 c -0.71827,0.006 -1.40853,0.087 -1.95915,0.24709 -2.97447,0.86473 -6.78306,4.51928 -7.90564,7.58473 -0.55564,1.5172 -0.59064,4.24469 -0.0738,5.75232 0.20093,0.58615 4.94283,8.67475 10.5371,17.97419 5.59427,9.29949 10.21149,17.01419 10.26111,17.14304 0.12473,0.32394 -12.41295,23.0252 -12.60856,22.82957 -0.14725,-0.14723 -6.09395,-10.84563 -16.1386,-29.03437 -2.35331,-4.26139 -4.32291,-7.74999 -4.37722,-7.74999 -0.0543,-0.002 -0.94318,1.52099 -1.9752,3.384 -1.032,1.86301 -2.37294,4.28397 -2.97966,5.38007 -0.60673,1.09605 -3.06095,5.50319 -5.45227,9.79418 -2.39131,4.29099 -5.67033,10.18082 -7.28787,13.08674 -1.61753,2.90592 -2.99449,5.28218 -3.05989,5.28218 -0.15305,0 -12.62622,-22.46404 -12.62622,-22.73971 0,-0.11427 1.49818,-2.71117 3.32945,-5.76998 12.24617,-20.45495 16.93905,-28.39837 17.28584,-29.26223 0.55177,-1.37434 0.57787,-4.52336 0.0482,-5.92561 -1.27426,-3.37302 -5.37578,-7.19088 -8.39984,-7.81898 -1.50902,-0.31348 -3.55477,-0.11277 -4.81525,0.47334 -1.49784,0.69645 -4.34946,3.65352 -6.32195,6.5546 -0.74848,1.10089 -2.67455,3.70197 -11.81752,15.96369 l -3.50755,4.70455 -0.53913,-0.85362 c -0.29639,-0.46914 -1.50692,-2.39801 -2.69084,-4.28737 -4.18921,-6.6854 -7.05238,-9.6134 -10.91095,-11.15805 -3.00642,-1.20359 -5.68651,-1.13333 -8.25542,0.21661 -3.04828,1.6018 -4.68698,4.88411 -4.6837,9.37861 0.002,3.8277 1.2128,7.15192 5.356,14.71535 0.96415,1.76005 1.75378,3.27467 1.75378,3.36475 0,0.14128 -19.94443,2.6271 -25.87501,3.22514 -7.05866,0.71175 -9.67924,2.08295 -11.11794,5.8149 -0.3253,0.84374 -0.36723,1.33179 -0.28241,3.35673 0.24902,5.94378 3.18442,10.07806 7.77085,10.94786 0.67554,0.12811 7.57083,0.0708 20.83672,-0.17328 18.41701,-0.33874 19.84937,-0.3409 20.14354,-0.0386 0.17419,0.1791 2.48221,3.92478 5.12976,8.32441 2.64755,4.39964 5.59602,9.28765 6.55138,10.86283 l 1.73775,2.86413 -1.04137,0.053 c -0.57243,0.0289 -10.10756,-0.11674 -21.18811,-0.32413 -11.08056,-0.20741 -20.1588,-0.36498 -20.17564,-0.34979 -0.0168,0.0155 1.85779,3.18429 4.16702,7.04078 13.21355,22.06697 17.49123,29.2705 17.49123,29.45798 0,0.13835 -0.45325,0.1705 -1.33339,0.0947 -0.73328,-0.0631 -6.26656,-0.17176 -12.29568,-0.24068 -6.02913,-0.069 -11.31417,-0.18391 -11.74373,-0.25513 l -0.7798,-0.12837 -3.96966,-7.10655 c -2.18333,-3.90862 -6.44542,-11.55096 -9.47008,-16.98258 -3.02466,-5.43167 -5.81345,-10.31066 -6.19838,-10.84197 -0.9836,-1.35763 -2.75854,-2.60397 -4.42858,-3.11123 -1.16678,-0.35466 -1.69789,-0.4033 -3.38238,-0.31127 -4.55609,0.24882 -8.39676,2.33895 -9.81826,5.34476 -0.82838,1.75155 -0.9046,3.17852 -0.29684,5.49238 0.53886,2.05159 1.35987,4.24592 2.26402,6.05077 0.75168,1.50048 9.9017,22.83861 9.9017,23.09112 0,0.2088 -3.55189,0.45569 -6.55782,0.45569 -3.54498,0 -8.41573,0.77575 -10.75852,1.71366 -2.99377,1.19847 -5.71623,3.57535 -6.86266,5.98979 -0.57156,1.20372 -0.60974,1.42533 -0.60974,3.5589 0,2.18644 0.0267,2.32914 0.67231,3.65357 0.47763,0.97972 1.08263,1.7788 2.09073,2.76142 3.54613,3.45661 7.39886,4.54186 17.1302,4.8249 2.69007,0.0782 4.92972,0.17999 4.97572,0.22623 0.0986,0.0991 -9.22155,22.0541 -10.09745,23.78589 -1.43347,2.83428 -2.51274,6.71602 -2.37153,8.53144 0.12377,1.59106 0.99032,3.44689 2.15652,4.61306 2.23396,2.23399 7.07249,3.72441 10.41194,3.2075 1.99493,-0.30882 3.39581,-1.0256 4.8265,-2.47101 1.1074,-1.11875 1.84138,-2.35228 7.56385,-12.69519 3.48605,-6.30073 7.82134,-14.13527 9.63374,-17.40939 l 3.29575,-5.95292 2.90264,-0.11875 c 1.59662,-0.0651 6.14679,-0.16449 10.11189,-0.22143 3.9651,-0.0569 8.52079,-0.15611 10.12312,-0.22142 1.98204,-0.0808 2.91387,-0.0532 2.91387,0.0882 0,0.19328 -4.64158,7.97198 -16.75795,28.08124 -2.71595,4.50758 -4.92393,8.20775 -4.90512,8.22336 0.0188,0.0156 7.67866,-0.0909 17.0211,-0.23586 9.34242,-0.14499 18.87485,-0.29123 21.1833,-0.32573 2.74187,-0.0404 4.19442,0.007 4.18949,0.13801 -0.004,0.10984 -3.00314,5.16735 -6.66532,11.2383 l -6.65888,11.03768 -3.5557,-0.0256 c -1.95539,-0.0144 -10.15745,-0.12545 -18.22612,-0.24711 -8.06868,-0.12135 -15.80075,-0.18641 -17.18314,-0.14288 -2.32404,0.0733 -2.6134,0.12586 -3.84772,0.70447 -2.54761,1.19417 -4.2564,3.37132 -5.31107,6.76802 -0.37723,1.21496 -0.45964,1.92698 -0.46211,3.95361 -0.002,2.3946 0.0167,2.51191 0.64342,3.78668 0.89826,1.82725 2.40268,3.17941 4.13013,3.713 2.04514,0.63167 4.88653,1.14563 7.56867,1.36867 1.35791,0.11296 7.35042,0.78505 13.31778,1.49379 5.96738,0.70873 11.01187,1.28849 11.20941,1.28849 0.19755,0 0.35707,0.11132 0.35461,0.24711 -0.002,0.1358 -1.02634,2.15718 -2.27366,4.49271 -3.593,6.72792 -4.65734,9.8099 -4.67245,13.53119 -0.0236,5.80452 2.69852,9.57881 7.50128,10.4023 1.15681,0.1984 1.63504,0.18436 3.01014,-0.0866 3.26242,-0.64269 6.29193,-2.53196 8.74481,-5.45555 1.95705,-2.33249 2.86029,-3.63634 5.4619,-7.87347 1.21729,-1.98252 2.2492,-3.60389 2.2929,-3.60389 0.11331,0 14.01182,18.52158 15.17105,20.21738 1.54459,2.25962 4.34836,5.45826 5.51003,6.28669 0.30068,0.21442 1.0105,0.56093 1.57888,0.77174 1.52304,0.56488 4.18147,0.44585 5.70739,-0.25673 2.91348,-1.34148 5.93316,-4.49303 6.91883,-7.22207 0.55098,-1.52551 0.59168,-4.26588 0.0851,-5.73947 -0.19893,-0.57868 -4.94097,-8.66731 -10.5371,-17.97418 -5.5961,-9.30696 -10.21502,-17.02476 -10.26432,-17.15111 -0.12523,-0.32097 12.40731,-23.034 12.60217,-22.83922 0.1515,0.15158 6.41849,11.42487 15.97973,28.74242 2.44263,4.4241 4.48658,8.04681 4.54089,8.04681 0.0543,0.002 0.59726,-0.90788 1.20661,-2.02015 0.60936,-1.11234 3.88236,-7.0001 7.27505,-13.08353 3.39267,-6.08344 7.51672,-13.48165 9.1636,-16.44188 1.64688,-2.96014 3.05869,-5.36056 3.1369,-5.33346 0.18307,0.0634 12.59734,22.41572 12.59734,22.68189 0,0.11034 -4.54903,7.81753 -10.10868,17.12704 -5.55968,9.3095 -10.28806,17.37159 -10.50661,17.91479 -0.58,1.44154 -0.57137,4.51078 0.016,6.07966 1.21333,3.24053 5.34926,7.04462 8.33565,7.66497 1.5104,0.31373 3.55503,0.11205 4.81526,-0.47493 1.50638,-0.70159 4.37465,-3.67817 6.31712,-6.55459 0.44019,-0.65172 3.08731,-4.25092 5.88229,-7.99875 2.79498,-3.74783 6.05752,-8.12757 7.24937,-9.73161 1.61406,-2.17237 2.21749,-2.8531 2.36672,-2.66677 0.1102,0.13753 1.24352,1.93536 2.51754,3.99379 2.82343,4.56188 4.20322,6.4141 6.40859,8.60201 1.90538,1.89026 3.28246,2.77767 5.55816,3.58293 2.91178,1.03036 5.2307,0.94066 7.58953,-0.29361 3.14585,-1.6461 4.82959,-4.95793 4.83453,-9.51185 0.004,-3.49816 -1.18605,-6.88607 -4.76233,-13.55525 -1.28852,-2.40282 -2.34264,-4.42691 -2.34264,-4.49757 0,-0.12207 21.53118,-2.77414 25.82046,-3.18022 2.25773,-0.21384 4.43531,-0.62223 6.4118,-1.20182 2.24607,-0.65862 4.04133,-2.43863 4.81686,-4.77351 0.26429,-0.79564 0.31124,-1.46141 0.22784,-3.28776 -0.2686,-5.88257 -3.20096,-9.99343 -7.75319,-10.86918 -0.85976,-0.16537 -21.00085,0.0842 -36.76671,0.4557 -3.55303,0.0836 -4.01262,0.0575 -4.26491,-0.2375 -0.15552,-0.18197 -2.4483,-3.92963 -5.09606,-8.32925 -2.64776,-4.39963 -5.59835,-9.28922 -6.55619,-10.86443 l -1.74095,-2.8641 1.14244,-0.0513 c 0.62853,-0.0285 10.16348,0.11682 21.18972,0.32253 11.02625,0.20579 20.06118,0.36213 20.07777,0.34816 0.0313,-0.0271 -0.42833,-0.79909 -13.58895,-22.79106 -4.43747,-7.41523 -8.0693,-13.57943 -8.0693,-13.69807 0,-0.1459 0.43132,-0.17879 1.33339,-0.10104 0.73326,0.0632 6.26655,0.17175 12.29568,0.24068 6.02912,0.069 11.31476,0.18373 11.74532,0.25512 l 0.78302,0.12836 5.00942,8.98394 c 2.75554,4.94044 7.01807,12.58133 9.47167,16.98096 2.45362,4.39962 4.77429,8.43482 5.15704,8.96619 0.94353,1.30976 2.7444,2.59578 4.31463,3.08073 2.61456,0.80765 6.03632,0.38021 9.24544,-1.15367 2.70979,-1.29523 4.45074,-3.55247 4.75429,-6.16305 0.19676,-1.69227 -1.02138,-6.02756 -2.4999,-8.89725 -0.24618,-0.47789 -2.64742,-5.98025 -5.33674,-12.22669 l -4.88907,-11.35702 3.58938,-0.14442 c 10.01319,-0.40397 13.48972,-1.12481 16.87347,-3.50112 1.76999,-1.24306 3.12192,-2.75932 3.88142,-4.35315 0.57465,-1.20589 0.61134,-1.42222 0.61134,-3.56533 0,-2.23805 -0.0139,-2.31014 -0.7397,-3.77872 -1.23456,-2.49793 -4.1672,-4.86976 -7.36491,-5.9561 -2.78646,-0.94666 -7.2352,-1.49693 -12.33739,-1.52592 -1.57518,-0.009 -3.23715,-0.0774 -3.69208,-0.15083 l -0.82634,-0.13317 0.97075,-2.27206 c 3.20997,-7.51339 9.1314,-21.27387 9.73161,-22.61456 0.94055,-2.10087 1.73124,-4.83905 1.85486,-6.4198 0.12035,-1.53867 -0.40959,-3.33933 -1.38312,-4.69493 -1.55896,-2.17083 -5.18665,-3.83396 -9.00636,-4.12852 -2.93565,-0.22635 -5.65179,0.86939 -7.49486,3.02138 -0.76047,0.88793 -2.78301,4.46908 -15.50158,27.4555 l -4.49435,8.12384 -3.20109,0.12035 c -1.76067,0.0658 -6.31294,0.16737 -10.11509,0.22463 -3.80215,0.0573 -8.22395,0.15628 -9.82628,0.22142 -1.99295,0.081 -2.91387,0.0532 -2.91387,-0.0899 0,-0.18643 7.15628,-12.17304 17.94371,-30.05488 2.06392,-3.42129 3.73808,-6.23313 3.71936,-6.24973 -0.0293,-0.0258 -25.91672,0.35902 -38.30228,0.56961 -2.77724,0.0472 -4.09653,0.002 -4.09161,-0.13799 0.004,-0.11402 3.00474,-5.17788 6.66691,-11.25272 l 6.6573,-11.04414 3.45781,0.0336 c 1.90107,0.0187 10.14097,0.13336 18.31114,0.25512 8.17021,0.12147 15.94746,0.18429 17.28265,0.1396 2.22297,-0.0741 2.54029,-0.1322 3.76267,-0.7044 2.54588,-1.1917 4.25047,-3.36564 5.31107,-6.768 0.38011,-1.21938 0.46372,-1.9181 0.46372,-3.95041 7.1e-4,-2.26155 -0.0434,-2.56259 -0.5247,-3.58939 -0.58162,-1.24069 -1.83474,-2.70697 -2.84968,-3.33425 -0.94073,-0.58142 -4.79496,-1.50798 -7.31677,-1.7602 -7.08452,-0.70865 -26.54089,-3.08124 -26.54089,-3.23638 0,-0.10198 1.00051,-2.06065 2.2223,-4.35315 2.32185,-4.35653 3.66626,-7.45861 4.32748,-9.98192 0.79266,-3.02487 0.42487,-7.24941 -0.8488,-9.74605 -0.5943,-1.16495 -2.4552,-2.94321 -3.72578,-3.5605 -2.01405,-0.97844 -3.84377,-1.14036 -6.16308,-0.54716 -3.17616,0.81232 -5.73898,2.51132 -8.2474,5.47153 -1.83286,2.16295 -2.66538,3.37357 -5.51805,8.02276 -1.11649,1.81962 -2.06156,3.30858 -2.10198,3.30858 -0.083,0 -14.1625,-18.77527 -15.99096,-21.3245 -1.73892,-2.42444 -4.52132,-5.21845 -5.72665,-5.7491 -0.83949,-0.36958 -2.11629,-0.56526 -3.31341,-0.55518 z m -22.26477,69.71459 c 0.0543,-3.7e-4 0.7647,0.99596 1.57889,2.21428 0.81417,1.21832 3.54696,5.25667 6.07322,8.97426 2.52628,3.71761 4.59383,6.85283 4.59383,6.96857 0,0.11568 -1.92021,3.51812 -4.2665,7.56066 -2.34631,4.04259 -5.07758,8.75069 -6.06842,10.46168 -0.99085,1.71094 -1.85002,3.11122 -1.90942,3.11122 -0.20898,0 -12.27103,-20.96821 -12.21064,-21.22662 0.0739,-0.31629 12.06849,-18.06405 12.20904,-18.06405 z m -33.40518,30.05808 c 0.66306,0.0478 0.70049,0.10571 6.58027,10.31888 3.25213,5.6489 5.99969,10.42561 6.10533,10.61572 0.18201,0.32763 -0.45624,0.34658 -12.16733,0.34658 l -12.35826,0 -0.85683,-1.82758 c -0.47197,-1.00487 -2.60368,-5.41775 -4.73664,-9.80703 -2.13296,-4.38926 -3.83096,-8.02989 -3.7723,-8.08854 0.13801,-0.13802 20.32655,-1.62129 21.20576,-1.55803 z m 66.80715,0 c 0.87421,-0.0632 21.07422,1.42651 21.21218,1.56444 0.0581,0.0582 -2.02371,4.49571 -4.62592,9.86158 l -4.73183,9.75567 -12.36468,0.0513 c -11.7469,0.0484 -12.35635,0.0329 -12.17374,-0.29684 0.10572,-0.19092 2.85261,-4.96842 6.10372,-10.61733 5.88468,-10.22482 5.91399,-10.27065 6.58027,-10.31887 z m -12.89579,44.97881 12.37752,0.0513 12.37752,0.0513 4.72701,9.75731 c 2.6004,5.36664 4.68133,9.80323 4.62431,9.85992 -0.0571,0.0571 -4.65778,0.44092 -10.2242,0.85201 -5.56643,0.41118 -10.44901,0.7476 -10.85158,0.75581 -0.69826,0.007 -0.76871,-0.0536 -1.50507,-1.32538 -0.42456,-0.73321 -3.0155,-5.24382 -5.75875,-10.02366 -2.74323,-4.77983 -5.16287,-8.9814 -5.37686,-9.33528 l -0.3899,-0.64342 z m -65.73369,0.003 12.35826,0 12.35987,0 -0.38671,0.64181 c -0.21272,0.35304 -2.1475,3.70857 -4.2986,7.4564 -2.15109,3.74781 -4.72799,8.23576 -5.72664,9.97387 l 0,0.002 -1.81636,3.15937 -1.16008,0.0273 c -0.63865,0.0149 -4.98337,-0.26724 -9.6546,-0.62732 -4.67121,-0.36024 -8.9817,-0.66249 -9.57918,-0.67234 -0.59748,-0.009 -1.19929,-0.0893 -1.33659,-0.17647 -0.25512,-0.16192 0.17754,-1.10504 5.58064,-12.18018 1.16595,-2.38991 2.46614,-5.07755 2.88979,-5.97376 l 0.7702,-1.63021 z m 45.23554,12.04861 c 0.15136,0 12.23791,20.88316 12.23791,21.14474 0,0.11566 -1.17764,1.93576 -2.61702,4.04512 -1.43939,2.10937 -4.17377,6.14498 -6.07484,8.96783 -1.90108,2.82296 -3.49977,5.13285 -3.55408,5.13293 -0.0543,1.7e-4 -1.47716,-2.04298 -3.16096,-4.53928 -1.68382,-2.49631 -4.41658,-6.53348 -6.07324,-8.9726 -1.65666,-2.43913 -3.01175,-4.5323 -3.01175,-4.65159 0,-0.11953 1.29685,-2.45531 2.88339,-5.19076 7.41306,-12.78162 9.26861,-15.93639 9.37059,-15.93639 z"
       id="path4258"
       inkscape:connector-curvature="0" />
    <path
       id="path4804-7"
       style="fill:#000000"
       d="m 528.89009,217.83768 c -9.79476,-0.0438 -20.27806,1.9173 -28.69011,6.34469 -12.26708,6.45637 -22.51438,17.1584 -27.91288,29.15506 -6.09203,13.53782 -6.06743,34.63551 0.0549,47.20261 5.60694,11.50923 12.61597,16.82809 31.85387,24.17435 17.72935,6.77019 27.00112,14.94678 28.67981,25.29129 1.71944,10.59567 -5.9229,24.54618 -27.65038,50.47617 -10.62248,12.67708 -19.31374,24.19107 -19.31374,25.58639 0,1.39532 3.49641,7.46585 7.77044,13.49063 4.27404,6.0248 9.01404,10.9548 10.53275,10.9548 4.42338,0 25.29799,-11.11339 40.30717,-21.45838 20.16362,-13.89764 43.76926,-39.51281 53.26936,-57.80399 11.63685,-22.40519 14.55353,-40.66323 14.47373,-61.83075 -0.0526,-13.9555 -1.86731,-24.58196 -9.84989,-40.69148 -10.39688,-20.98178 -23.9645,-35.17866 -41.60596,-43.53443 -11.98114,-5.67477 -21.00062,-7.30804 -31.91907,-7.35696 z m 0.10294,16.7968 c 6.29833,0.004 12.96303,1.08787 19.78557,3.39367 13.07534,4.41907 31.25117,21.90088 38.69268,37.21718 24.46278,50.34988 -2.42694,110.79042 -66.47003,149.40745 -6.03201,3.6372 -9.42527,6.40235 -11.38716,7.06014 -2.1541,0.72224 -4.06864,-3.25361 -4.7834,-5.11624 -0.5361,-1.39705 4.84189,-5.28722 10.15528,-11.48668 26.60765,-31.0448 33.79263,-44.33172 33.79263,-62.49302 0,-9.7876 -0.95591,-13.36063 -5.48856,-20.50788 -6.96057,-10.97567 -14.09779,-16.01996 -32.2399,-22.78806 -18.75673,-6.99739 -24.85404,-13.00688 -26.39449,-26.01359 -3.37374,-28.48609 17.04466,-48.69318 44.33738,-48.67297 z"
       inkscape:connector-curvature="0" />
  </g>
</svg>
