  0
SECTION
  2
HEADER
  9
$ACADVER
  1
AC1014
  9
$HANDSEED
  5
FFFF
  9
$MEASUREMENT
 70
     1
  0
ENDSEC
  0
SECTION
  2
TABLES
  0
TABLE
  2
VPORT
  5
8
330
0
100
AcDbSymbolTable
 70
     4
  0
VPORT
  5
2E
330
8
100
AcDbSymbolTableRecord
100
AcDbViewportTableRecord
  2
*ACTIVE
 70
     0
 10
0.0
 20
0.0
 11
1.0
 21
1.0
 12
210.0
 22
148.5
 13
0.0
 23
0.0
 14
10.0
 24
10.0
 15
10.0
 25
10.0
 16
0.0
 26
0.0
 36
1.0
 17
0.0
 27
0.0
 37
0.0
 40
341.0
 41
1.24
 42
50.0
 43
0.0
 44
0.0
 50
0.0
 51
0.0
 71
     0
 72
   100
 73
     1
 74
     3
 75
     0
 76
     0
 77
     0
 78
     0
  0
ENDTAB
  0
TABLE
  2
LTYPE
  5
5
330
0
100
AcDbSymbolTable
 70
     1
  0
LTYPE
  5
14
330
5
100
AcDbSymbolTableRecord
100
AcDbLinetypeTableRecord
  2
BYBLOCK
 70
     0
  3

 72
    65
 73
     0
 40
0.0
  0
LTYPE
  5
15
330
5
100
AcDbSymbolTableRecord
100
AcDbLinetypeTableRecord
  2
BYLAYER
 70
     0
  3

 72
    65
 73
     0
 40
0.0
  0
LTYPE
  5
16
330
5
100
AcDbSymbolTableRecord
100
AcDbLinetypeTableRecord
  2
CONTINUOUS
 70
     0
  3
Solid line
 72
    65
 73
     0
 40
0.0
  0
ENDTAB
  0
TABLE
  2
LAYER
  5
2
100
AcDbSymbolTable
 70
2
  0
LAYER
  5
50
100
AcDbSymbolTableRecord
100
AcDbLayerTableRecord
  2
0
 70
0
  6
CONTINUOUS
  0
LAYER
  5
51
100
AcDbSymbolTableRecord
100
AcDbLayerTableRecord
  2
Layer_1
 70
0
  6
CONTINUOUS
  0
ENDTAB
  0
TABLE
  2
STYLE
  5
3
330
0
100
AcDbSymbolTable
 70
     1
  0
STYLE
  5
11
330
3
100
AcDbSymbolTableRecord
100
AcDbTextStyleTableRecord
  2
STANDARD
 70
     0
 40
0.0
 41
1.0
 50
0.0
 71
     0
 42
2.5
  3
txt
  4

  0
ENDTAB
  0
TABLE
  2
VIEW
  5
6
330
0
100
AcDbSymbolTable
 70
     0
  0
ENDTAB
  0
TABLE
  2
UCS
  5
7
330
0
100
AcDbSymbolTable
 70
     0
  0
ENDTAB
  0
TABLE
  2
APPID
  5
9
330
0
100
AcDbSymbolTable
 70
     2
  0
APPID
  5
12
330
9
100
AcDbSymbolTableRecord
100
AcDbRegAppTableRecord
  2
ACAD
 70
     0
  0
ENDTAB
  0
TABLE
  2
DIMSTYLE
  5
A
330
0
100
AcDbSymbolTable
 70
     1
  0
DIMSTYLE
105
27
330
A
100
AcDbSymbolTableRecord
100
AcDbDimStyleTableRecord
  2
ISO-25
 70
     0
  3

  4

  5

  6

  7

 40
1.0
 41
2.5
 42
0.625
 43
3.75
 44
1.25
 45
0.0
 46
0.0
 47
0.0
 48
0.0
140
2.5
141
2.5
142
0.0
143
0.03937007874016
144
1.0
145
0.0
146
1.0
147
0.625
 71
     0
 72
     0
 73
     0
 74
     0
 75
     0
 76
     0
 77
     1
 78
     8
170
     0
171
     3
172
     1
173
     0
174
     0
175
     0
176
     0
177
     0
178
     0
270
     2
271
     2
272
     2
273
     2
274
     3
340
11
275
     0
280
     0
281
     0
282
     0
283
     0
284
     8
285
     0
286
     0
287
     3
288
     0
  0
ENDTAB
  0
TABLE
  2
BLOCK_RECORD
  5
1
330
0
100
AcDbSymbolTable
 70
     1
  0
BLOCK_RECORD
  5
1F
330
1
100
AcDbSymbolTableRecord
100
AcDbBlockTableRecord
  2
*MODEL_SPACE
  0
BLOCK_RECORD
  5
1B
330
1
100
AcDbSymbolTableRecord
100
AcDbBlockTableRecord
  2
*PAPER_SPACE
  0
ENDTAB
  0
ENDSEC
  0
SECTION
  2
BLOCKS
  0
BLOCK
  5
20
330
1F
100
AcDbEntity
  8
0
100
AcDbBlockBegin
  2
*MODEL_SPACE
 70
     0
 10
0.0
 20
0.0
 30
0.0
  3
*MODEL_SPACE
  1

  0
ENDBLK
  5
21
330
1F
100
AcDbEntity
  8
0
100
AcDbBlockEnd
  0
BLOCK
  5
1C
330
1B
100
AcDbEntity
 67
     1
  8
0
100
AcDbBlockBegin
  2
*PAPER_SPACE
  1

  0
ENDBLK
  5
1D
330
1B
100
AcDbEntity
 67
     1
  8
0
100
AcDbBlockEnd
  0
ENDSEC
  0
SECTION
  2
ENTITIES
  0
SPLINE
  5
100
100
AcDbEntity
  8
Layer_1
 62
1
100
AcDbSpline
 70
8
 71
3
 72
8
 73
4
 74
0
 40
0
 40
0
 40
0
 40
0
 40
1
 40
1
 40
1
 40
1
 10
60.005925
 20
255.370884
 30
0.0
 10
58.321800
 20
255.370884
 30
0.0
 10
56.706653
 20
254.701869
 30
0.0
 10
55.515797
 20
253.511013
 30
0.0
  0
SPLINE
  5
101
100
AcDbEntity
  8
Layer_1
 62
1
100
AcDbSpline
 70
8
 71
3
 72
8
 73
4
 74
0
 40
0
 40
0
 40
0
 40
0
 40
1
 40
1
 40
1
 40
1
 10
55.515797
 20
253.511013
 30
0.0
 10
54.324941
 20
252.320157
 30
0.0
 10
53.655925
 20
250.705009
 30
0.0
 10
53.655925
 20
249.020884
 30
0.0
  0
SPLINE
  5
102
100
AcDbEntity
  8
Layer_1
 62
1
100
AcDbSpline
 70
8
 71
3
 72
8
 73
4
 74
0
 40
0
 40
0
 40
0
 40
0
 40
1
 40
1
 40
1
 40
1
 10
53.655925
 20
249.020884
 30
0.0
 10
53.658582
 20
248.566723
 30
0.0
 10
53.709956
 20
248.114158
 30
0.0
 10
53.809163
 20
247.670956
 30
0.0
  0
SPLINE
  5
103
100
AcDbEntity
  8
Layer_1
 62
1
100
AcDbSpline
 70
8
 71
3
 72
8
 73
4
 74
0
 40
0
 40
0
 40
0
 40
0
 40
1
 40
1
 40
1
 40
1
 10
53.809163
 20
247.670956
 30
0.0
 10
31.662174
 20
244.582181
 30
0.0
 10
15.171576
 20
225.655046
 30
0.0
 10
15.144718
 20
203.293719
 30
0.0
  0
SPLINE
  5
104
100
AcDbEntity
  8
Layer_1
 62
1
100
AcDbSpline
 70
8
 71
3
 72
8
 73
4
 74
0
 40
0
 40
0
 40
0
 40
0
 40
1
 40
1
 40
1
 40
1
 10
15.144718
 20
203.293719
 30
0.0
 10
15.144705
 20
191.395783
 30
0.0
 10
19.871135
 20
179.985152
 30
0.0
 10
28.284247
 20
171.572041
 30
0.0
  0
SPLINE
  5
105
100
AcDbEntity
  8
Layer_1
 62
1
100
AcDbSpline
 70
8
 71
3
 72
8
 73
4
 74
0
 40
0
 40
0
 40
0
 40
0
 40
1
 40
1
 40
1
 40
1
 10
28.284247
 20
171.572041
 30
0.0
 10
36.697358
 20
163.158929
 30
0.0
 10
48.107989
 20
158.432499
 30
0.0
 10
60.005925
 20
158.432513
 30
0.0
  0
SPLINE
  5
106
100
AcDbEntity
  8
Layer_1
 62
1
100
AcDbSpline
 70
8
 71
3
 72
8
 73
4
 74
0
 40
0
 40
0
 40
0
 40
0
 40
1
 40
1
 40
1
 40
1
 10
60.005925
 20
158.432513
 30
0.0
 10
71.903861
 20
158.432499
 30
0.0
 10
83.314492
 20
163.158930
 30
0.0
 10
91.727603
 20
171.572041
 30
0.0
  0
SPLINE
  5
107
100
AcDbEntity
  8
Layer_1
 62
1
100
AcDbSpline
 70
8
 71
3
 72
8
 73
4
 74
0
 40
0
 40
0
 40
0
 40
0
 40
1
 40
1
 40
1
 40
1
 10
91.727603
 20
171.572041
 30
0.0
 10
100.140714
 20
179.985152
 30
0.0
 10
104.867145
 20
191.395783
 30
0.0
 10
104.867131
 20
203.293719
 30
0.0
  0
SPLINE
  5
108
100
AcDbEntity
  8
Layer_1
 62
1
100
AcDbSpline
 70
8
 71
3
 72
8
 73
4
 74
0
 40
0
 40
0
 40
0
 40
0
 40
1
 40
1
 40
1
 40
1
 10
104.867131
 20
203.293719
 30
0.0
 10
104.842543
 20
225.654873
 30
0.0
 10
88.354118
 20
244.583590
 30
0.0
 10
66.207648
 20
247.674817
 30
0.0
  0
SPLINE
  5
109
100
AcDbEntity
  8
Layer_1
 62
1
100
AcDbSpline
 70
8
 71
3
 72
8
 73
4
 74
0
 40
0
 40
0
 40
0
 40
0
 40
1
 40
1
 40
1
 40
1
 10
66.207648
 20
247.674817
 30
0.0
 10
66.304914
 20
248.116938
 30
0.0
 10
66.354622
 20
248.568193
 30
0.0
 10
66.355925
 20
249.020884
 30
0.0
  0
SPLINE
  5
10a
100
AcDbEntity
  8
Layer_1
 62
1
100
AcDbSpline
 70
8
 71
3
 72
8
 73
4
 74
0
 40
0
 40
0
 40
0
 40
0
 40
1
 40
1
 40
1
 40
1
 10
66.355925
 20
249.020884
 30
0.0
 10
66.355925
 20
250.705009
 30
0.0
 10
65.686909
 20
252.320157
 30
0.0
 10
64.496053
 20
253.511013
 30
0.0
  0
SPLINE
  5
10b
100
AcDbEntity
  8
Layer_1
 62
1
100
AcDbSpline
 70
8
 71
3
 72
8
 73
4
 74
0
 40
0
 40
0
 40
0
 40
0
 40
1
 40
1
 40
1
 40
1
 10
64.496053
 20
253.511013
 30
0.0
 10
63.305197
 20
254.701869
 30
0.0
 10
61.690050
 20
255.370884
 30
0.0
 10
60.005925
 20
255.370884
 30
0.0
  0
SPLINE
  5
10c
100
AcDbEntity
  8
Layer_1
 62
1
100
AcDbSpline
 70
8
 71
3
 72
8
 73
4
 74
0
 40
0
 40
0
 40
0
 40
0
 40
1
 40
1
 40
1
 40
1
 10
60.005925
 20
251.466075
 30
0.0
 10
60.654435
 20
251.466091
 30
0.0
 10
61.276388
 20
251.208479
 30
0.0
 10
61.734954
 20
250.749913
 30
0.0
  0
SPLINE
  5
10d
100
AcDbEntity
  8
Layer_1
 62
1
100
AcDbSpline
 70
8
 71
3
 72
8
 73
4
 74
0
 40
0
 40
0
 40
0
 40
0
 40
1
 40
1
 40
1
 40
1
 10
61.734954
 20
250.749913
 30
0.0
 10
62.193519
 20
250.291347
 30
0.0
 10
62.451132
 20
249.669394
 30
0.0
 10
62.451115
 20
249.020884
 30
0.0
  0
SPLINE
  5
10e
100
AcDbEntity
  8
Layer_1
 62
1
100
AcDbSpline
 70
8
 71
3
 72
8
 73
4
 74
0
 40
0
 40
0
 40
0
 40
0
 40
1
 40
1
 40
1
 40
1
 10
62.451115
 20
249.020884
 30
0.0
 10
62.451132
 20
248.372375
 30
0.0
 10
62.193519
 20
247.750422
 30
0.0
 10
61.734954
 20
247.291856
 30
0.0
  0
SPLINE
  5
10f
100
AcDbEntity
  8
Layer_1
 62
1
100
AcDbSpline
 70
8
 71
3
 72
8
 73
4
 74
0
 40
0
 40
0
 40
0
 40
0
 40
1
 40
1
 40
1
 40
1
 10
61.734954
 20
247.291856
 30
0.0
 10
61.276388
 20
246.833290
 30
0.0
 10
60.654435
 20
246.575678
 30
0.0
 10
60.005925
 20
246.575694
 30
0.0
  0
SPLINE
  5
110
100
AcDbEntity
  8
Layer_1
 62
1
100
AcDbSpline
 70
8
 71
3
 72
8
 73
4
 74
0
 40
0
 40
0
 40
0
 40
0
 40
1
 40
1
 40
1
 40
1
 10
60.005925
 20
246.575694
 30
0.0
 10
59.357415
 20
246.575678
 30
0.0
 10
58.735462
 20
246.833290
 30
0.0
 10
58.276897
 20
247.291856
 30
0.0
  0
SPLINE
  5
111
100
AcDbEntity
  8
Layer_1
 62
1
100
AcDbSpline
 70
8
 71
3
 72
8
 73
4
 74
0
 40
0
 40
0
 40
0
 40
0
 40
1
 40
1
 40
1
 40
1
 10
58.276897
 20
247.291856
 30
0.0
 10
57.818331
 20
247.750422
 30
0.0
 10
57.560719
 20
248.372375
 30
0.0
 10
57.560735
 20
249.020884
 30
0.0
  0
SPLINE
  5
112
100
AcDbEntity
  8
Layer_1
 62
1
100
AcDbSpline
 70
8
 71
3
 72
8
 73
4
 74
0
 40
0
 40
0
 40
0
 40
0
 40
1
 40
1
 40
1
 40
1
 10
57.560735
 20
249.020884
 30
0.0
 10
57.560719
 20
249.669394
 30
0.0
 10
57.818331
 20
250.291347
 30
0.0
 10
58.276897
 20
250.749913
 30
0.0
  0
SPLINE
  5
113
100
AcDbEntity
  8
Layer_1
 62
1
100
AcDbSpline
 70
8
 71
3
 72
8
 73
4
 74
0
 40
0
 40
0
 40
0
 40
0
 40
1
 40
1
 40
1
 40
1
 10
58.276897
 20
250.749913
 30
0.0
 10
58.735462
 20
251.208479
 30
0.0
 10
59.357415
 20
251.466091
 30
0.0
 10
60.005925
 20
251.466075
 30
0.0
  0
LWPOLYLINE
  5
114
100
AcDbEntity
  8
Layer_1
 62
1
100
AcDbPolyline
 90
2
 70
1
 10
60.005925
 20
255.370884
 30
0.0
 10
60.005925
 20
255.370884
 30
0.0
  0
SPLINE
  5
115
100
AcDbEntity
  8
Layer_1
 62
1
100
AcDbSpline
 70
8
 71
3
 72
8
 73
4
 74
0
 40
0
 40
0
 40
0
 40
0
 40
1
 40
1
 40
1
 40
1
 10
57.780118
 20
243.082091
 30
0.0
 10
57.923592
 20
243.026852
 30
0.0
 10
58.069026
 20
242.976842
 30
0.0
 10
58.216131
 20
242.932160
 30
0.0
  0
LWPOLYLINE
  5
116
100
AcDbEntity
  8
Layer_1
 62
1
100
AcDbPolyline
 90
2
 70
1
 10
60.005925
 20
251.466075
 30
0.0
 10
60.005925
 20
251.466075
 30
0.0
  0
SPLINE
  5
117
100
AcDbEntity
  8
Layer_1
 62
1
100
AcDbSpline
 70
8
 71
3
 72
8
 73
4
 74
0
 40
0
 40
0
 40
0
 40
0
 40
1
 40
1
 40
1
 40
1
 10
58.216131
 20
238.662446
 30
0.0
 10
55.603456
 20
238.526366
 30
0.0
 10
52.920691
 20
237.922561
 30
0.0
 10
50.708027
 20
236.757999
 30
0.0
  0
SPLINE
  5
118
100
AcDbEntity
  8
Layer_1
 62
1
100
AcDbSpline
 70
8
 71
3
 72
8
 73
4
 74
0
 40
0
 40
0
 40
0
 40
0
 40
1
 40
1
 40
1
 40
1
 10
50.708027
 20
236.757999
 30
0.0
 10
46.965472
 20
234.788232
 30
0.0
 10
43.839875
 20
231.522537
 30
0.0
 10
42.192854
 20
227.862484
 30
0.0
  0
SPLINE
  5
119
100
AcDbEntity
  8
Layer_1
 62
1
100
AcDbSpline
 70
8
 71
3
 72
8
 73
4
 74
0
 40
0
 40
0
 40
0
 40
0
 40
1
 40
1
 40
1
 40
1
 10
42.192854
 20
227.862484
 30
0.0
 10
40.334243
 20
223.732244
 30
0.0
 10
40.341542
 20
217.296073
 30
0.0
 10
42.209393
 20
213.461985
 30
0.0
  0
SPLINE
  5
11a
100
AcDbEntity
  8
Layer_1
 62
1
100
AcDbSpline
 70
8
 71
3
 72
8
 73
4
 74
0
 40
0
 40
0
 40
0
 40
0
 40
1
 40
1
 40
1
 40
1
 10
42.209393
 20
213.461985
 30
0.0
 10
43.920006
 20
209.950650
 30
0.0
 10
46.058046
 20
208.327988
 30
0.0
 10
51.927317
 20
206.086725
 30
0.0
  0
SPLINE
  5
11b
100
AcDbEntity
  8
Layer_1
 62
1
100
AcDbSpline
 70
8
 71
3
 72
8
 73
4
 74
0
 40
0
 40
0
 40
0
 40
0
 40
1
 40
1
 40
1
 40
1
 10
51.927317
 20
206.086725
 30
0.0
 10
57.336349
 20
204.021214
 30
0.0
 10
60.165161
 20
201.526260
 30
0.0
 10
60.677309
 20
198.370262
 30
0.0
  0
SPLINE
  5
11c
100
AcDbEntity
  8
Layer_1
 62
1
100
AcDbSpline
 70
8
 71
3
 72
8
 73
4
 74
0
 40
0
 40
0
 40
0
 40
0
 40
1
 40
1
 40
1
 40
1
 10
60.677309
 20
198.370262
 30
0.0
 10
61.201893
 20
195.137641
 30
0.0
 10
58.870322
 20
190.881368
 30
0.0
 10
52.241509
 20
182.970411
 30
0.0
  0
SPLINE
  5
11d
100
AcDbEntity
  8
Layer_1
 62
1
100
AcDbSpline
 70
8
 71
3
 72
8
 73
4
 74
0
 40
0
 40
0
 40
0
 40
0
 40
1
 40
1
 40
1
 40
1
 10
52.241509
 20
182.970411
 30
0.0
 10
49.000706
 20
179.102773
 30
0.0
 10
46.349020
 20
175.590348
 30
0.0
 10
46.349020
 20
175.164653
 30
0.0
  0
SPLINE
  5
11e
100
AcDbEntity
  8
Layer_1
 62
1
100
AcDbSpline
 70
8
 71
3
 72
8
 73
4
 74
0
 40
0
 40
0
 40
0
 40
0
 40
1
 40
1
 40
1
 40
1
 10
46.349020
 20
175.164653
 30
0.0
 10
46.349020
 20
174.738954
 30
0.0
 10
47.416387
 20
172.886270
 30
0.0
 10
48.720347
 20
171.048176
 30
0.0
  0
SPLINE
  5
11f
100
AcDbEntity
  8
Layer_1
 62
1
100
AcDbSpline
 70
8
 71
3
 72
8
 73
4
 74
0
 40
0
 40
0
 40
0
 40
0
 40
1
 40
1
 40
1
 40
1
 10
48.720347
 20
171.048176
 30
0.0
 10
49.327652
 20
170.192100
 30
0.0
 10
49.962029
 20
169.416943
 30
0.0
 10
50.517309
 20
168.824022
 30
0.0
  0
SPLINE
  5
120
100
AcDbEntity
  8
Layer_1
 62
1
100
AcDbSpline
 70
8
 71
3
 72
8
 73
4
 74
0
 40
0
 40
0
 40
0
 40
0
 40
1
 40
1
 40
1
 40
1
 10
50.517309
 20
168.824022
 30
0.0
 10
50.517309
 20
168.824022
 30
0.0
 10
50.517309
 20
164.612186
 30
0.0
 10
50.517309
 20
164.612186
 30
0.0
  0
SPLINE
  5
121
100
AcDbEntity
  8
Layer_1
 62
1
100
AcDbSpline
 70
8
 71
3
 72
8
 73
4
 74
0
 40
0
 40
0
 40
0
 40
0
 40
1
 40
1
 40
1
 40
1
 10
50.517309
 20
164.612186
 30
0.0
 10
32.694557
 20
168.978506
 30
0.0
 10
20.152227
 20
184.943931
 30
0.0
 10
20.129358
 20
203.293719
 30
0.0
  0
SPLINE
  5
122
100
AcDbEntity
  8
Layer_1
 62
1
100
AcDbSpline
 70
8
 71
3
 72
8
 73
4
 74
0
 40
0
 40
0
 40
0
 40
0
 40
1
 40
1
 40
1
 40
1
 10
20.129358
 20
203.293719
 30
0.0
 10
20.143169
 20
224.442146
 30
0.0
 10
36.664656
 20
241.901637
 30
0.0
 10
57.780118
 20
243.082091
 30
0.0
  0
LWPOLYLINE
  5
123
100
AcDbEntity
  8
Layer_1
 62
1
100
AcDbPolyline
 90
2
 70
1
 10
58.216131
 20
242.932160
 30
0.0
 10
58.216131
 20
238.662446
 30
0.0
  0
SPLINE
  5
124
100
AcDbEntity
  8
Layer_1
 62
1
100
AcDbSpline
 70
8
 71
3
 72
8
 73
4
 74
0
 40
0
 40
0
 40
0
 40
0
 40
1
 40
1
 40
1
 40
1
 10
62.109914
 20
243.036890
 30
0.0
 10
83.255974
 20
241.919647
 30
0.0
 10
99.841141
 20
224.469232
 30
0.0
 10
99.882492
 20
203.293719
 30
0.0
  0
SPLINE
  5
125
100
AcDbEntity
  8
Layer_1
 62
1
100
AcDbSpline
 70
8
 71
3
 72
8
 73
4
 74
0
 40
0
 40
0
 40
0
 40
0
 40
1
 40
1
 40
1
 40
1
 10
99.882492
 20
203.293719
 30
0.0
 10
99.882484
 20
181.270503
 30
0.0
 10
82.029141
 20
163.417160
 30
0.0
 10
60.005925
 20
163.417153
 30
0.0
  0
SPLINE
  5
126
100
AcDbEntity
  8
Layer_1
 62
1
100
AcDbSpline
 70
8
 71
3
 72
8
 73
4
 74
0
 40
0
 40
0
 40
0
 40
0
 40
1
 40
1
 40
1
 40
1
 10
60.005925
 20
163.417153
 30
0.0
 10
57.729540
 20
163.430821
 30
0.0
 10
55.458506
 20
163.639390
 30
0.0
 10
53.217710
 20
164.040576
 30
0.0
  0
LWPOLYLINE
  5
127
100
AcDbEntity
  8
Layer_1
 62
1
100
AcDbPolyline
 90
2
 70
1
 10
57.780118
 20
243.082091
 30
0.0
 10
57.780118
 20
243.082091
 30
0.0
  0
SPLINE
  5
128
100
AcDbEntity
  8
Layer_1
 62
1
100
AcDbSpline
 70
8
 71
3
 72
8
 73
4
 74
0
 40
0
 40
0
 40
0
 40
0
 40
1
 40
1
 40
1
 40
1
 10
53.217710
 20
168.056731
 30
0.0
 10
55.661797
 20
168.999824
 30
0.0
 10
60.529241
 20
171.701910
 30
0.0
 10
64.230439
 20
174.252942
 30
0.0
  0
SPLINE
  5
129
100
AcDbEntity
  8
Layer_1
 62
1
100
AcDbSpline
 70
8
 71
3
 72
8
 73
4
 74
0
 40
0
 40
0
 40
0
 40
0
 40
1
 40
1
 40
1
 40
1
 10
64.230439
 20
174.252942
 30
0.0
 10
70.382141
 20
178.492961
 30
0.0
 10
77.584094
 20
186.307534
 30
0.0
 10
80.482471
 20
191.887973
 30
0.0
  0
SPLINE
  5
12a
100
AcDbEntity
  8
Layer_1
 62
1
100
AcDbSpline
 70
8
 71
3
 72
8
 73
4
 74
0
 40
0
 40
0
 40
0
 40
0
 40
1
 40
1
 40
1
 40
1
 10
80.482471
 20
191.887973
 30
0.0
 10
84.032745
 20
198.723550
 30
0.0
 10
84.922603
 20
204.294233
 30
0.0
 10
84.898255
 20
210.752212
 30
0.0
  0
SPLINE
  5
12b
100
AcDbEntity
  8
Layer_1
 62
1
100
AcDbSpline
 70
8
 71
3
 72
8
 73
4
 74
0
 40
0
 40
0
 40
0
 40
0
 40
1
 40
1
 40
1
 40
1
 10
84.898255
 20
210.752212
 30
0.0
 10
84.882197
 20
215.009884
 30
0.0
 10
84.328432
 20
218.252394
 30
0.0
 10
81.893032
 20
223.167235
 30
0.0
  0
SPLINE
  5
12c
100
AcDbEntity
  8
Layer_1
 62
1
100
AcDbSpline
 70
8
 71
3
 72
8
 73
4
 74
0
 40
0
 40
0
 40
0
 40
0
 40
1
 40
1
 40
1
 40
1
 10
81.893032
 20
223.167235
 30
0.0
 10
78.721057
 20
229.568546
 30
0.0
 10
74.582412
 20
233.899517
 30
0.0
 10
69.200197
 20
236.448765
 30
0.0
  0
SPLINE
  5
12d
100
AcDbEntity
  8
Layer_1
 62
1
100
AcDbSpline
 70
8
 71
3
 72
8
 73
4
 74
0
 40
0
 40
0
 40
0
 40
0
 40
1
 40
1
 40
1
 40
1
 10
69.200197
 20
236.448765
 30
0.0
 10
66.127830
 20
237.903971
 30
0.0
 10
63.692580
 20
238.486096
 30
0.0
 10
61.016303
 20
238.644256
 30
0.0
  0
LWPOLYLINE
  5
12e
100
AcDbEntity
  8
Layer_1
 62
1
100
AcDbPolyline
 90
2
 70
1
 10
53.217710
 20
164.040576
 30
0.0
 10
53.217710
 20
168.056731
 30
0.0
  0
SPLINE
  5
12f
100
AcDbEntity
  8
Layer_1
 62
1
100
AcDbSpline
 70
8
 71
3
 72
8
 73
4
 74
0
 40
0
 40
0
 40
0
 40
0
 40
1
 40
1
 40
1
 40
1
 10
61.016303
 20
242.754668
 30
0.0
 10
61.388500
 20
242.816072
 30
0.0
 10
61.754484
 20
242.910519
 30
0.0
 10
62.109914
 20
243.036890
 30
0.0
  0
LWPOLYLINE
  5
130
100
AcDbEntity
  8
Layer_1
 62
1
100
AcDbPolyline
 90
2
 70
1
 10
61.016303
 20
238.644256
 30
0.0
 10
61.016303
 20
242.754668
 30
0.0
  0
SPLINE
  5
131
100
AcDbEntity
  8
Layer_1
 62
1
100
AcDbSpline
 70
8
 71
3
 72
8
 73
4
 74
0
 40
0
 40
0
 40
0
 40
0
 40
1
 40
1
 40
1
 40
1
 10
59.493297
 20
233.568667
 30
0.0
 10
61.414843
 20
233.567256
 30
0.0
 10
63.448176
 20
233.236960
 30
0.0
 10
65.529655
 20
232.533485
 30
0.0
  0
SPLINE
  5
132
100
AcDbEntity
  8
Layer_1
 62
1
100
AcDbSpline
 70
8
 71
3
 72
8
 73
4
 74
0
 40
0
 40
0
 40
0
 40
0
 40
1
 40
1
 40
1
 40
1
 10
65.529655
 20
232.533485
 30
0.0
 10
69.518798
 20
231.185278
 30
0.0
 10
75.063604
 20
225.851287
 30
0.0
 10
77.333929
 20
221.178449
 30
0.0
  0
SPLINE
  5
133
100
AcDbEntity
  8
Layer_1
 62
1
100
AcDbSpline
 70
8
 71
3
 72
8
 73
4
 74
0
 40
0
 40
0
 40
0
 40
0
 40
1
 40
1
 40
1
 40
1
 10
77.333929
 20
221.178449
 30
0.0
 10
84.797254
 20
205.817254
 30
0.0
 10
76.593567
 20
187.377887
 30
0.0
 10
57.054719
 20
175.596252
 30
0.0
  0
SPLINE
  5
134
100
AcDbEntity
  8
Layer_1
 62
1
100
AcDbSpline
 70
8
 71
3
 72
8
 73
4
 74
0
 40
0
 40
0
 40
0
 40
0
 40
1
 40
1
 40
1
 40
1
 10
57.054719
 20
175.596252
 30
0.0
 10
55.214421
 20
174.486583
 30
0.0
 10
54.179512
 20
173.643339
 30
0.0
 10
53.580961
 20
173.442654
 30
0.0
  0
SPLINE
  5
135
100
AcDbEntity
  8
Layer_1
 62
1
100
AcDbSpline
 70
8
 71
3
 72
8
 73
4
 74
0
 40
0
 40
0
 40
0
 40
0
 40
1
 40
1
 40
1
 40
1
 10
53.580961
 20
173.442654
 30
0.0
 10
52.923767
 20
173.222306
 30
0.0
 10
52.339409
 20
174.434877
 30
0.0
 10
52.121342
 20
175.003145
 30
0.0
  0
SPLINE
  5
136
100
AcDbEntity
  8
Layer_1
 62
1
100
AcDbSpline
 70
8
 71
3
 72
8
 73
4
 74
0
 40
0
 40
0
 40
0
 40
0
 40
1
 40
1
 40
1
 40
1
 10
52.121342
 20
175.003145
 30
0.0
 10
51.957786
 20
175.429371
 30
0.0
 10
53.598665
 20
176.615834
 30
0.0
 10
55.219724
 20
178.507222
 30
0.0
  0
SPLINE
  5
137
100
AcDbEntity
  8
Layer_1
 62
1
100
AcDbSpline
 70
8
 71
3
 72
8
 73
4
 74
0
 40
0
 40
0
 40
0
 40
0
 40
1
 40
1
 40
1
 40
1
 10
55.219724
 20
178.507222
 30
0.0
 10
63.337426
 20
187.978651
 30
0.0
 10
65.529655
 20
192.032942
 30
0.0
 10
65.529655
 20
197.573757
 30
0.0
  0
SPLINE
  5
138
100
AcDbEntity
  8
Layer_1
 62
1
100
AcDbSpline
 70
8
 71
3
 72
8
 73
4
 74
0
 40
0
 40
0
 40
0
 40
0
 40
1
 40
1
 40
1
 40
1
 10
65.529655
 20
197.573757
 30
0.0
 10
65.529655
 20
200.559843
 30
0.0
 10
65.237922
 20
201.649506
 30
0.0
 10
63.855061
 20
203.830051
 30
0.0
  0
SPLINE
  5
139
100
AcDbEntity
  8
Layer_1
 62
1
100
AcDbSpline
 70
8
 71
3
 72
8
 73
4
 74
0
 40
0
 40
0
 40
0
 40
0
 40
1
 40
1
 40
1
 40
1
 10
63.855061
 20
203.830051
 30
0.0
 10
61.731469
 20
207.178612
 30
0.0
 10
59.554135
 20
208.717655
 30
0.0
 10
54.019176
 20
210.782528
 30
0.0
  0
SPLINE
  5
13a
100
AcDbEntity
  8
Layer_1
 62
1
100
AcDbSpline
 70
8
 71
3
 72
8
 73
4
 74
0
 40
0
 40
0
 40
0
 40
0
 40
1
 40
1
 40
1
 40
1
 10
54.019176
 20
210.782528
 30
0.0
 10
48.296703
 20
212.917356
 30
0.0
 10
46.435896
 20
214.751275
 30
0.0
 10
45.965923
 20
218.719478
 30
0.0
  0
SPLINE
  5
13b
100
AcDbEntity
  8
Layer_1
 62
1
100
AcDbSpline
 70
8
 71
3
 72
8
 73
4
 74
0
 40
0
 40
0
 40
0
 40
0
 40
1
 40
1
 40
1
 40
1
 10
45.965923
 20
218.719478
 30
0.0
 10
44.936627
 20
227.410274
 30
0.0
 10
51.166581
 20
233.574831
 30
0.0
 10
59.493297
 20
233.568667
 30
0.0
  0
LWPOLYLINE
  5
13c
100
AcDbEntity
  8
Layer_1
 62
1
100
AcDbPolyline
 90
2
 70
1
 10
62.109914
 20
243.036890
 30
0.0
 10
62.109914
 20
243.036890
 30
0.0
  0
SPLINE
  5
13d
100
AcDbEntity
  8
Layer_1
 62
1
100
AcDbSpline
 70
8
 71
3
 72
8
 73
4
 74
0
 40
0
 40
0
 40
0
 40
0
 40
1
 40
1
 40
1
 40
1
 10
151.858706
 20
256.378742
 30
0.0
 10
150.174582
 20
256.378742
 30
0.0
 10
148.559434
 20
255.709726
 30
0.0
 10
147.368578
 20
254.518870
 30
0.0
  0
SPLINE
  5
13e
100
AcDbEntity
  8
Layer_1
 62
1
100
AcDbSpline
 70
8
 71
3
 72
8
 73
4
 74
0
 40
0
 40
0
 40
0
 40
0
 40
1
 40
1
 40
1
 40
1
 10
147.368578
 20
254.518870
 30
0.0
 10
146.177722
 20
253.328014
 30
0.0
 10
145.508706
 20
251.712867
 30
0.0
 10
145.508706
 20
250.028742
 30
0.0
  0
SPLINE
  5
13f
100
AcDbEntity
  8
Layer_1
 62
1
100
AcDbSpline
 70
8
 71
3
 72
8
 73
4
 74
0
 40
0
 40
0
 40
0
 40
0
 40
1
 40
1
 40
1
 40
1
 10
145.508706
 20
250.028742
 30
0.0
 10
145.511363
 20
249.574581
 30
0.0
 10
145.562737
 20
249.122015
 30
0.0
 10
145.661944
 20
248.678814
 30
0.0
  0
SPLINE
  5
140
100
AcDbEntity
  8
Layer_1
 62
1
100
AcDbSpline
 70
8
 71
3
 72
8
 73
4
 74
0
 40
0
 40
0
 40
0
 40
0
 40
1
 40
1
 40
1
 40
1
 10
145.661944
 20
248.678814
 30
0.0
 10
123.514956
 20
245.590038
 30
0.0
 10
107.024358
 20
226.662903
 30
0.0
 10
106.997500
 20
204.301577
 30
0.0
  0
SPLINE
  5
141
100
AcDbEntity
  8
Layer_1
 62
1
100
AcDbSpline
 70
8
 71
3
 72
8
 73
4
 74
0
 40
0
 40
0
 40
0
 40
0
 40
1
 40
1
 40
1
 40
1
 10
106.997500
 20
204.301577
 30
0.0
 10
106.997486
 20
192.403640
 30
0.0
 10
111.723916
 20
180.993009
 30
0.0
 10
120.137027
 20
172.579897
 30
0.0
  0
SPLINE
  5
142
100
AcDbEntity
  8
Layer_1
 62
1
100
AcDbSpline
 70
8
 71
3
 72
8
 73
4
 74
0
 40
0
 40
0
 40
0
 40
0
 40
1
 40
1
 40
1
 40
1
 10
120.137027
 20
172.579897
 30
0.0
 10
128.550138
 20
164.166785
 30
0.0
 10
139.960770
 20
159.440354
 30
0.0
 10
151.858706
 20
159.440368
 30
0.0
  0
SPLINE
  5
143
100
AcDbEntity
  8
Layer_1
 62
1
100
AcDbSpline
 70
8
 71
3
 72
8
 73
4
 74
0
 40
0
 40
0
 40
0
 40
0
 40
1
 40
1
 40
1
 40
1
 10
151.858706
 20
159.440368
 30
0.0
 10
163.756643
 20
159.440354
 30
0.0
 10
175.167274
 20
164.166785
 30
0.0
 10
183.580385
 20
172.579897
 30
0.0
  0
SPLINE
  5
144
100
AcDbEntity
  8
Layer_1
 62
1
100
AcDbSpline
 70
8
 71
3
 72
8
 73
4
 74
0
 40
0
 40
0
 40
0
 40
0
 40
1
 40
1
 40
1
 40
1
 10
183.580385
 20
172.579897
 30
0.0
 10
191.993496
 20
180.993009
 30
0.0
 10
196.719927
 20
192.403640
 30
0.0
 10
196.719912
 20
204.301577
 30
0.0
  0
SPLINE
  5
145
100
AcDbEntity
  8
Layer_1
 62
1
100
AcDbSpline
 70
8
 71
3
 72
8
 73
4
 74
0
 40
0
 40
0
 40
0
 40
0
 40
1
 40
1
 40
1
 40
1
 10
196.719912
 20
204.301577
 30
0.0
 10
196.695324
 20
226.662731
 30
0.0
 10
180.206899
 20
245.591448
 30
0.0
 10
158.060430
 20
248.682675
 30
0.0
  0
SPLINE
  5
146
100
AcDbEntity
  8
Layer_1
 62
1
100
AcDbSpline
 70
8
 71
3
 72
8
 73
4
 74
0
 40
0
 40
0
 40
0
 40
0
 40
1
 40
1
 40
1
 40
1
 10
158.060430
 20
248.682675
 30
0.0
 10
158.157695
 20
249.124796
 30
0.0
 10
158.207403
 20
249.576051
 30
0.0
 10
158.208706
 20
250.028742
 30
0.0
  0
SPLINE
  5
147
100
AcDbEntity
  8
Layer_1
 62
1
100
AcDbSpline
 70
8
 71
3
 72
8
 73
4
 74
0
 40
0
 40
0
 40
0
 40
0
 40
1
 40
1
 40
1
 40
1
 10
158.208706
 20
250.028742
 30
0.0
 10
158.208706
 20
251.712867
 30
0.0
 10
157.539690
 20
253.328014
 30
0.0
 10
156.348834
 20
254.518870
 30
0.0
  0
SPLINE
  5
148
100
AcDbEntity
  8
Layer_1
 62
1
100
AcDbSpline
 70
8
 71
3
 72
8
 73
4
 74
0
 40
0
 40
0
 40
0
 40
0
 40
1
 40
1
 40
1
 40
1
 10
156.348834
 20
254.518870
 30
0.0
 10
155.157978
 20
255.709726
 30
0.0
 10
153.542831
 20
256.378742
 30
0.0
 10
151.858706
 20
256.378742
 30
0.0
  0
LWPOLYLINE
  5
149
100
AcDbEntity
  8
Layer_1
 62
1
100
AcDbPolyline
 90
2
 70
1
 10
59.493297
 20
233.568667
 30
0.0
 10
59.493297
 20
233.568667
 30
0.0
  0
SPLINE
  5
14a
100
AcDbEntity
  8
Layer_1
 62
1
100
AcDbSpline
 70
8
 71
3
 72
8
 73
4
 74
0
 40
0
 40
0
 40
0
 40
0
 40
1
 40
1
 40
1
 40
1
 10
151.858706
 20
252.473933
 30
0.0
 10
152.507216
 20
252.473949
 30
0.0
 10
153.129169
 20
252.216337
 30
0.0
 10
153.587735
 20
251.757771
 30
0.0
  0
SPLINE
  5
14b
100
AcDbEntity
  8
Layer_1
 62
1
100
AcDbSpline
 70
8
 71
3
 72
8
 73
4
 74
0
 40
0
 40
0
 40
0
 40
0
 40
1
 40
1
 40
1
 40
1
 10
153.587735
 20
251.757771
 30
0.0
 10
154.046300
 20
251.299205
 30
0.0
 10
154.303913
 20
250.677252
 30
0.0
 10
154.303897
 20
250.028742
 30
0.0
  0
SPLINE
  5
14c
100
AcDbEntity
  8
Layer_1
 62
1
100
AcDbSpline
 70
8
 71
3
 72
8
 73
4
 74
0
 40
0
 40
0
 40
0
 40
0
 40
1
 40
1
 40
1
 40
1
 10
154.303897
 20
250.028742
 30
0.0
 10
154.303913
 20
249.380232
 30
0.0
 10
154.046302
 20
248.758278
 30
0.0
 10
153.587736
 20
248.299712
 30
0.0
  0
SPLINE
  5
14d
100
AcDbEntity
  8
Layer_1
 62
1
100
AcDbSpline
 70
8
 71
3
 72
8
 73
4
 74
0
 40
0
 40
0
 40
0
 40
0
 40
1
 40
1
 40
1
 40
1
 10
153.587736
 20
248.299712
 30
0.0
 10
153.129170
 20
247.841146
 30
0.0
 10
152.507216
 20
247.583533
 30
0.0
 10
151.858706
 20
247.583549
 30
0.0
  0
SPLINE
  5
14e
100
AcDbEntity
  8
Layer_1
 62
1
100
AcDbSpline
 70
8
 71
3
 72
8
 73
4
 74
0
 40
0
 40
0
 40
0
 40
0
 40
1
 40
1
 40
1
 40
1
 10
151.858706
 20
247.583549
 30
0.0
 10
151.210196
 20
247.583533
 30
0.0
 10
150.588242
 20
247.841146
 30
0.0
 10
150.129677
 20
248.299712
 30
0.0
  0
SPLINE
  5
14f
100
AcDbEntity
  8
Layer_1
 62
1
100
AcDbSpline
 70
8
 71
3
 72
8
 73
4
 74
0
 40
0
 40
0
 40
0
 40
0
 40
1
 40
1
 40
1
 40
1
 10
150.129677
 20
248.299712
 30
0.0
 10
149.671111
 20
248.758278
 30
0.0
 10
149.413499
 20
249.380232
 30
0.0
 10
149.413516
 20
250.028742
 30
0.0
  0
SPLINE
  5
150
100
AcDbEntity
  8
Layer_1
 62
1
100
AcDbSpline
 70
8
 71
3
 72
8
 73
4
 74
0
 40
0
 40
0
 40
0
 40
0
 40
1
 40
1
 40
1
 40
1
 10
149.413516
 20
250.028742
 30
0.0
 10
149.413500
 20
250.677252
 30
0.0
 10
149.671112
 20
251.299205
 30
0.0
 10
150.129678
 20
251.757771
 30
0.0
  0
SPLINE
  5
151
100
AcDbEntity
  8
Layer_1
 62
1
100
AcDbSpline
 70
8
 71
3
 72
8
 73
4
 74
0
 40
0
 40
0
 40
0
 40
0
 40
1
 40
1
 40
1
 40
1
 10
150.129678
 20
251.757771
 30
0.0
 10
150.588243
 20
252.216337
 30
0.0
 10
151.210196
 20
252.473949
 30
0.0
 10
151.858706
 20
252.473933
 30
0.0
  0
LWPOLYLINE
  5
152
100
AcDbEntity
  8
Layer_1
 62
1
100
AcDbPolyline
 90
2
 70
0
 10
151.858706
 20
256.378742
 30
0.0
 10
151.858706
 20
256.378742
 30
0.0
  0
SPLINE
  5
153
100
AcDbEntity
  8
Layer_1
 62
1
100
AcDbSpline
 70
8
 71
3
 72
8
 73
4
 74
0
 40
0
 40
0
 40
0
 40
0
 40
1
 40
1
 40
1
 40
1
 10
61.144421
 20
147.521598
 30
0.0
 10
59.460296
 20
147.521598
 30
0.0
 10
57.845149
 20
146.852582
 30
0.0
 10
56.654293
 20
145.661726
 30
0.0
  0
SPLINE
  5
154
100
AcDbEntity
  8
Layer_1
 62
1
100
AcDbSpline
 70
8
 71
3
 72
8
 73
4
 74
0
 40
0
 40
0
 40
0
 40
0
 40
1
 40
1
 40
1
 40
1
 10
56.654293
 20
145.661726
 30
0.0
 10
55.463437
 20
144.470870
 30
0.0
 10
54.794421
 20
142.855723
 30
0.0
 10
54.794421
 20
141.171598
 30
0.0
  0
SPLINE
  5
155
100
AcDbEntity
  8
Layer_1
 62
1
100
AcDbSpline
 70
8
 71
3
 72
8
 73
4
 74
0
 40
0
 40
0
 40
0
 40
0
 40
1
 40
1
 40
1
 40
1
 10
54.794421
 20
141.171598
 30
0.0
 10
54.797078
 20
140.717437
 30
0.0
 10
54.848451
 20
140.264871
 30
0.0
 10
54.947659
 20
139.821670
 30
0.0
  0
SPLINE
  5
156
100
AcDbEntity
  8
Layer_1
 62
1
100
AcDbSpline
 70
8
 71
3
 72
8
 73
4
 74
0
 40
0
 40
0
 40
0
 40
0
 40
1
 40
1
 40
1
 40
1
 10
54.947659
 20
139.821670
 30
0.0
 10
32.800670
 20
136.732895
 30
0.0
 10
16.310072
 20
117.805760
 30
0.0
 10
16.283214
 20
95.444433
 30
0.0
  0
SPLINE
  5
157
100
AcDbEntity
  8
Layer_1
 62
1
100
AcDbSpline
 70
8
 71
3
 72
8
 73
4
 74
0
 40
0
 40
0
 40
0
 40
0
 40
1
 40
1
 40
1
 40
1
 10
16.283214
 20
95.444433
 30
0.0
 10
16.283200
 20
83.546496
 30
0.0
 10
21.009630
 20
72.135864
 30
0.0
 10
29.422741
 20
63.722753
 30
0.0
  0
SPLINE
  5
158
100
AcDbEntity
  8
Layer_1
 62
1
100
AcDbSpline
 70
8
 71
3
 72
8
 73
4
 74
0
 40
0
 40
0
 40
0
 40
0
 40
1
 40
1
 40
1
 40
1
 10
29.422741
 20
63.722753
 30
0.0
 10
37.835853
 20
55.309641
 30
0.0
 10
49.246485
 20
50.583210
 30
0.0
 10
61.144421
 20
50.583224
 30
0.0
  0
SPLINE
  5
159
100
AcDbEntity
  8
Layer_1
 62
1
100
AcDbSpline
 70
8
 71
3
 72
8
 73
4
 74
0
 40
0
 40
0
 40
0
 40
0
 40
1
 40
1
 40
1
 40
1
 10
61.144421
 20
50.583224
 30
0.0
 10
73.042357
 20
50.583210
 30
0.0
 10
84.452989
 20
55.309641
 30
0.0
 10
92.866100
 20
63.722753
 30
0.0
  0
SPLINE
  5
15a
100
AcDbEntity
  8
Layer_1
 62
1
100
AcDbSpline
 70
8
 71
3
 72
8
 73
4
 74
0
 40
0
 40
0
 40
0
 40
0
 40
1
 40
1
 40
1
 40
1
 10
92.866100
 20
63.722753
 30
0.0
 10
101.279211
 20
72.135865
 30
0.0
 10
106.005641
 20
83.546496
 30
0.0
 10
106.005627
 20
95.444433
 30
0.0
  0
SPLINE
  5
15b
100
AcDbEntity
  8
Layer_1
 62
1
100
AcDbSpline
 70
8
 71
3
 72
8
 73
4
 74
0
 40
0
 40
0
 40
0
 40
0
 40
1
 40
1
 40
1
 40
1
 10
106.005627
 20
95.444433
 30
0.0
 10
105.981039
 20
117.805587
 30
0.0
 10
89.492614
 20
136.734304
 30
0.0
 10
67.346144
 20
139.825531
 30
0.0
  0
SPLINE
  5
15c
100
AcDbEntity
  8
Layer_1
 62
1
100
AcDbSpline
 70
8
 71
3
 72
8
 73
4
 74
0
 40
0
 40
0
 40
0
 40
0
 40
1
 40
1
 40
1
 40
1
 10
67.346144
 20
139.825531
 30
0.0
 10
67.443409
 20
140.267652
 30
0.0
 10
67.493117
 20
140.718907
 30
0.0
 10
67.494421
 20
141.171598
 30
0.0
  0
SPLINE
  5
15d
100
AcDbEntity
  8
Layer_1
 62
1
100
AcDbSpline
 70
8
 71
3
 72
8
 73
4
 74
0
 40
0
 40
0
 40
0
 40
0
 40
1
 40
1
 40
1
 40
1
 10
67.494421
 20
141.171598
 30
0.0
 10
67.494421
 20
142.855723
 30
0.0
 10
66.825405
 20
144.470870
 30
0.0
 10
65.634549
 20
145.661726
 30
0.0
  0
SPLINE
  5
15e
100
AcDbEntity
  8
Layer_1
 62
1
100
AcDbSpline
 70
8
 71
3
 72
8
 73
4
 74
0
 40
0
 40
0
 40
0
 40
0
 40
1
 40
1
 40
1
 40
1
 10
65.634549
 20
145.661726
 30
0.0
 10
64.443693
 20
146.852582
 30
0.0
 10
62.828546
 20
147.521598
 30
0.0
 10
61.144421
 20
147.521598
 30
0.0
  0
LWPOLYLINE
  5
15f
100
AcDbEntity
  8
Layer_1
 62
1
100
AcDbPolyline
 90
2
 70
0
 10
151.858706
 20
252.473933
 30
0.0
 10
151.858706
 20
252.473933
 30
0.0
  0
SPLINE
  5
160
100
AcDbEntity
  8
Layer_1
 62
1
100
AcDbSpline
 70
8
 71
3
 72
8
 73
4
 74
0
 40
0
 40
0
 40
0
 40
0
 40
1
 40
1
 40
1
 40
1
 10
61.144421
 20
143.616789
 30
0.0
 10
61.792931
 20
143.616805
 30
0.0
 10
62.414884
 20
143.359192
 30
0.0
 10
62.873449
 20
142.900627
 30
0.0
  0
SPLINE
  5
161
100
AcDbEntity
  8
Layer_1
 62
1
100
AcDbSpline
 70
8
 71
3
 72
8
 73
4
 74
0
 40
0
 40
0
 40
0
 40
0
 40
1
 40
1
 40
1
 40
1
 10
62.873449
 20
142.900627
 30
0.0
 10
63.332015
 20
142.442061
 30
0.0
 10
63.589627
 20
141.820108
 30
0.0
 10
63.589611
 20
141.171598
 30
0.0
  0
SPLINE
  5
162
100
AcDbEntity
  8
Layer_1
 62
1
100
AcDbSpline
 70
8
 71
3
 72
8
 73
4
 74
0
 40
0
 40
0
 40
0
 40
0
 40
1
 40
1
 40
1
 40
1
 10
63.589611
 20
141.171598
 30
0.0
 10
63.589628
 20
140.523088
 30
0.0
 10
63.332016
 20
139.901134
 30
0.0
 10
62.873450
 20
139.442568
 30
0.0
  0
SPLINE
  5
163
100
AcDbEntity
  8
Layer_1
 62
1
100
AcDbSpline
 70
8
 71
3
 72
8
 73
4
 74
0
 40
0
 40
0
 40
0
 40
0
 40
1
 40
1
 40
1
 40
1
 10
62.873450
 20
139.442568
 30
0.0
 10
62.414885
 20
138.984002
 30
0.0
 10
61.792931
 20
138.726389
 30
0.0
 10
61.144421
 20
138.726405
 30
0.0
  0
SPLINE
  5
164
100
AcDbEntity
  8
Layer_1
 62
1
100
AcDbSpline
 70
8
 71
3
 72
8
 73
4
 74
0
 40
0
 40
0
 40
0
 40
0
 40
1
 40
1
 40
1
 40
1
 10
61.144421
 20
138.726405
 30
0.0
 10
60.495911
 20
138.726389
 30
0.0
 10
59.873957
 20
138.984002
 30
0.0
 10
59.415391
 20
139.442568
 30
0.0
  0
SPLINE
  5
165
100
AcDbEntity
  8
Layer_1
 62
1
100
AcDbSpline
 70
8
 71
3
 72
8
 73
4
 74
0
 40
0
 40
0
 40
0
 40
0
 40
1
 40
1
 40
1
 40
1
 10
59.415391
 20
139.442568
 30
0.0
 10
58.956826
 20
139.901134
 30
0.0
 10
58.699214
 20
140.523088
 30
0.0
 10
58.699231
 20
141.171598
 30
0.0
  0
SPLINE
  5
166
100
AcDbEntity
  8
Layer_1
 62
1
100
AcDbSpline
 70
8
 71
3
 72
8
 73
4
 74
0
 40
0
 40
0
 40
0
 40
0
 40
1
 40
1
 40
1
 40
1
 10
58.699231
 20
141.171598
 30
0.0
 10
58.699214
 20
141.820108
 30
0.0
 10
58.956827
 20
142.442061
 30
0.0
 10
59.415392
 20
142.900627
 30
0.0
  0
SPLINE
  5
167
100
AcDbEntity
  8
Layer_1
 62
1
100
AcDbSpline
 70
8
 71
3
 72
8
 73
4
 74
0
 40
0
 40
0
 40
0
 40
0
 40
1
 40
1
 40
1
 40
1
 10
59.415392
 20
142.900627
 30
0.0
 10
59.873958
 20
143.359192
 30
0.0
 10
60.495911
 20
143.616805
 30
0.0
 10
61.144421
 20
143.616789
 30
0.0
  0
LWPOLYLINE
  5
168
100
AcDbEntity
  8
Layer_1
 62
1
100
AcDbPolyline
 90
2
 70
1
 10
61.144421
 20
147.521598
 30
0.0
 10
61.144421
 20
147.521598
 30
0.0
  0
SPLINE
  5
169
100
AcDbEntity
  8
Layer_1
 62
7
100
AcDbSpline
 70
8
 71
3
 72
8
 73
4
 74
0
 40
0
 40
0
 40
0
 40
0
 40
1
 40
1
 40
1
 40
1
 10
59.833315
 20
131.913231
 30
0.0
 10
56.686501
 20
131.927311
 30
0.0
 10
53.317922
 20
131.297247
 30
0.0
 10
50.615342
 20
129.874835
 30
0.0
  0
SPLINE
  5
16a
100
AcDbEntity
  8
Layer_1
 62
7
100
AcDbSpline
 70
8
 71
3
 72
8
 73
4
 74
0
 40
0
 40
0
 40
0
 40
0
 40
1
 40
1
 40
1
 40
1
 10
50.615342
 20
129.874835
 30
0.0
 10
46.674227
 20
127.800564
 30
0.0
 10
43.382026
 20
124.362265
 30
0.0
 10
41.647621
 20
120.508035
 30
0.0
  0
SPLINE
  5
16b
100
AcDbEntity
  8
Layer_1
 62
7
100
AcDbSpline
 70
8
 71
3
 72
8
 73
4
 74
0
 40
0
 40
0
 40
0
 40
0
 40
1
 40
1
 40
1
 40
1
 10
41.647621
 20
120.508035
 30
0.0
 10
39.690401
 20
116.158666
 30
0.0
 10
39.698306
 20
109.380498
 30
0.0
 10
41.665260
 20
105.342999
 30
0.0
  0
SPLINE
  5
16c
100
AcDbEntity
  8
Layer_1
 62
7
100
AcDbSpline
 70
8
 71
3
 72
8
 73
4
 74
0
 40
0
 40
0
 40
0
 40
0
 40
1
 40
1
 40
1
 40
1
 10
41.665260
 20
105.342999
 30
0.0
 10
43.466631
 20
101.645369
 30
0.0
 10
45.718462
 20
99.936550
 30
0.0
 10
51.899123
 20
97.576376
 30
0.0
  0
SPLINE
  5
16d
100
AcDbEntity
  8
Layer_1
 62
7
100
AcDbSpline
 70
8
 71
3
 72
8
 73
4
 74
0
 40
0
 40
0
 40
0
 40
0
 40
1
 40
1
 40
1
 40
1
 10
51.899123
 20
97.576376
 30
0.0
 10
57.595127
 20
95.401281
 30
0.0
 10
60.573920
 20
92.774345
 30
0.0
 10
61.113238
 20
89.450910
 30
0.0
  0
SPLINE
  5
16e
100
AcDbEntity
  8
Layer_1
 62
7
100
AcDbSpline
 70
8
 71
3
 72
8
 73
4
 74
0
 40
0
 40
0
 40
0
 40
0
 40
1
 40
1
 40
1
 40
1
 10
61.113238
 20
89.450910
 30
0.0
 10
61.665654
 20
86.046783
 30
0.0
 10
59.210352
 20
81.564826
 30
0.0
 10
52.229853
 20
73.234159
 30
0.0
  0
SPLINE
  5
16f
100
AcDbEntity
  8
Layer_1
 62
7
100
AcDbSpline
 70
8
 71
3
 72
8
 73
4
 74
0
 40
0
 40
0
 40
0
 40
0
 40
1
 40
1
 40
1
 40
1
 10
52.229853
 20
73.234159
 30
0.0
 10
48.817112
 20
69.161328
 30
0.0
 10
46.024823
 20
65.462165
 30
0.0
 10
46.024823
 20
65.013884
 30
0.0
  0
SPLINE
  5
170
100
AcDbEntity
  8
Layer_1
 62
7
100
AcDbSpline
 70
8
 71
3
 72
8
 73
4
 74
0
 40
0
 40
0
 40
0
 40
0
 40
1
 40
1
 40
1
 40
1
 10
46.024823
 20
65.013884
 30
0.0
 10
46.024823
 20
64.565602
 30
0.0
 10
47.148682
 20
62.615291
 30
0.0
 10
48.521826
 20
60.679678
 30
0.0
  0
SPLINE
  5
171
100
AcDbEntity
  8
Layer_1
 62
7
100
AcDbSpline
 70
8
 71
3
 72
8
 73
4
 74
0
 40
0
 40
0
 40
0
 40
0
 40
1
 40
1
 40
1
 40
1
 10
48.521826
 20
60.679678
 30
0.0
 10
49.894970
 20
58.744057
 30
0.0
 10
51.417262
 20
57.160170
 30
0.0
 10
51.905188
 20
57.160170
 30
0.0
  0
SPLINE
  5
172
100
AcDbEntity
  8
Layer_1
 62
7
100
AcDbSpline
 70
8
 71
3
 72
8
 73
4
 74
0
 40
0
 40
0
 40
0
 40
0
 40
1
 40
1
 40
1
 40
1
 10
51.905188
 20
57.160170
 30
0.0
 10
53.326307
 20
57.160170
 30
0.0
 10
60.032807
 20
60.730628
 30
0.0
 10
64.854887
 20
64.054218
 30
0.0
  0
SPLINE
  5
173
100
AcDbEntity
  8
Layer_1
 62
7
100
AcDbSpline
 70
8
 71
3
 72
8
 73
4
 74
0
 40
0
 40
0
 40
0
 40
0
 40
1
 40
1
 40
1
 40
1
 10
64.854887
 20
64.054218
 30
0.0
 10
71.332962
 20
68.519188
 30
0.0
 10
78.916871
 20
76.748156
 30
0.0
 10
81.969020
 20
82.624660
 30
0.0
  0
SPLINE
  5
174
100
AcDbEntity
  8
Layer_1
 62
7
100
AcDbSpline
 70
8
 71
3
 72
8
 73
4
 74
0
 40
0
 40
0
 40
0
 40
0
 40
1
 40
1
 40
1
 40
1
 10
81.969020
 20
82.624660
 30
0.0
 10
85.707649
 20
89.822896
 30
0.0
 10
86.644709
 20
95.689308
 30
0.0
 10
86.619072
 20
102.489910
 30
0.0
  0
SPLINE
  5
175
100
AcDbEntity
  8
Layer_1
 62
7
100
AcDbSpline
 70
8
 71
3
 72
8
 73
4
 74
0
 40
0
 40
0
 40
0
 40
0
 40
1
 40
1
 40
1
 40
1
 10
86.619072
 20
102.489910
 30
0.0
 10
86.602166
 20
106.973470
 30
0.0
 10
86.019155
 20
110.387487
 30
0.0
 10
83.454545
 20
115.563081
 30
0.0
  0
SPLINE
  5
176
100
AcDbEntity
  8
Layer_1
 62
7
100
AcDbSpline
 70
8
 71
3
 72
8
 73
4
 74
0
 40
0
 40
0
 40
0
 40
0
 40
1
 40
1
 40
1
 40
1
 10
83.454545
 20
115.563081
 30
0.0
 10
80.114284
 20
122.304010
 30
0.0
 10
75.755889
 20
126.864566
 30
0.0
 10
70.088125
 20
129.549066
 30
0.0
  0
SPLINE
  5
177
100
AcDbEntity
  8
Layer_1
 62
7
100
AcDbSpline
 70
8
 71
3
 72
8
 73
4
 74
0
 40
0
 40
0
 40
0
 40
0
 40
1
 40
1
 40
1
 40
1
 10
70.088125
 20
129.549066
 30
0.0
 10
66.238879
 20
131.372233
 30
0.0
 10
63.341148
 20
131.897516
 30
0.0
 10
59.833315
 20
131.913231
 30
0.0
  0
LWPOLYLINE
  5
178
100
AcDbEntity
  8
Layer_1
 62
1
100
AcDbPolyline
 90
2
 70
1
 10
61.144421
 20
143.616789
 30
0.0
 10
61.144421
 20
143.616789
 30
0.0
  0
SPLINE
  5
179
100
AcDbEntity
  8
Layer_1
 62
7
100
AcDbSpline
 70
8
 71
3
 72
8
 73
4
 74
0
 40
0
 40
0
 40
0
 40
0
 40
1
 40
1
 40
1
 40
1
 10
59.865839
 20
126.516831
 30
0.0
 10
61.889332
 20
126.515420
 30
0.0
 10
64.031091
 20
126.167324
 30
0.0
 10
66.223004
 20
125.426528
 30
0.0
  0
SPLINE
  5
17a
100
AcDbEntity
  8
Layer_1
 62
7
100
AcDbSpline
 70
8
 71
3
 72
8
 73
4
 74
0
 40
0
 40
0
 40
0
 40
0
 40
1
 40
1
 40
1
 40
1
 10
66.223004
 20
125.426528
 30
0.0
 10
70.423789
 20
124.006792
 30
0.0
 10
76.262684
 20
118.390316
 30
0.0
 10
78.653459
 20
113.469565
 30
0.0
  0
SPLINE
  5
17b
100
AcDbEntity
  8
Layer_1
 62
7
100
AcDbSpline
 70
8
 71
3
 72
8
 73
4
 74
0
 40
0
 40
0
 40
0
 40
0
 40
1
 40
1
 40
1
 40
1
 10
78.653459
 20
113.469565
 30
0.0
 10
86.512744
 20
97.293392
 30
0.0
 10
77.873744
 20
77.875337
 30
0.0
 10
57.298277
 20
65.468637
 30
0.0
  0
SPLINE
  5
17c
100
AcDbEntity
  8
Layer_1
 62
7
100
AcDbSpline
 70
8
 71
3
 72
8
 73
4
 74
0
 40
0
 40
0
 40
0
 40
0
 40
1
 40
1
 40
1
 40
1
 10
57.298277
 20
65.468637
 30
0.0
 10
55.360344
 20
64.300093
 30
0.0
 10
54.270168
 20
63.411719
 30
0.0
 10
53.639861
 20
63.200386
 30
0.0
  0
SPLINE
  5
17d
100
AcDbEntity
  8
Layer_1
 62
7
100
AcDbSpline
 70
8
 71
3
 72
8
 73
4
 74
0
 40
0
 40
0
 40
0
 40
0
 40
1
 40
1
 40
1
 40
1
 10
53.639861
 20
63.200386
 30
0.0
 10
52.947799
 20
62.968348
 30
0.0
 10
52.333260
 20
64.245692
 30
0.0
 10
52.103624
 20
64.844110
 30
0.0
  0
SPLINE
  5
17e
100
AcDbEntity
  8
Layer_1
 62
7
100
AcDbSpline
 70
8
 71
3
 72
8
 73
4
 74
0
 40
0
 40
0
 40
0
 40
0
 40
1
 40
1
 40
1
 40
1
 10
52.103624
 20
64.844110
 30
0.0
 10
51.931389
 20
65.292948
 30
0.0
 10
53.658651
 20
66.542213
 30
0.0
 10
55.365715
 20
68.533945
 30
0.0
  0
SPLINE
  5
17f
100
AcDbEntity
  8
Layer_1
 62
7
100
AcDbSpline
 70
8
 71
3
 72
8
 73
4
 74
0
 40
0
 40
0
 40
0
 40
0
 40
1
 40
1
 40
1
 40
1
 10
55.365715
 20
68.533945
 30
0.0
 10
63.914096
 20
78.507874
 30
0.0
 10
66.223004
 20
82.777185
 30
0.0
 10
66.223004
 20
88.611963
 30
0.0
  0
SPLINE
  5
180
100
AcDbEntity
  8
Layer_1
 62
7
100
AcDbSpline
 70
8
 71
3
 72
8
 73
4
 74
0
 40
0
 40
0
 40
0
 40
0
 40
1
 40
1
 40
1
 40
1
 10
66.223004
 20
88.611963
 30
0.0
 10
66.223004
 20
91.756477
 30
0.0
 10
65.915342
 20
92.904404
 30
0.0
 10
64.459115
 20
95.200638
 30
0.0
  0
SPLINE
  5
181
100
AcDbEntity
  8
Layer_1
 62
7
100
AcDbSpline
 70
8
 71
3
 72
8
 73
4
 74
0
 40
0
 40
0
 40
0
 40
0
 40
1
 40
1
 40
1
 40
1
 10
64.459115
 20
95.200638
 30
0.0
 10
62.222854
 20
98.726852
 30
0.0
 10
59.929841
 20
100.347457
 30
0.0
 10
54.101230
 20
102.521880
 30
0.0
  0
SPLINE
  5
182
100
AcDbEntity
  8
Layer_1
 62
7
100
AcDbSpline
 70
8
 71
3
 72
8
 73
4
 74
0
 40
0
 40
0
 40
0
 40
0
 40
1
 40
1
 40
1
 40
1
 10
54.101230
 20
102.521880
 30
0.0
 10
48.075156
 20
104.769969
 30
0.0
 10
46.116243
 20
106.700671
 30
0.0
 10
45.621332
 20
110.879406
 30
0.0
  0
SPLINE
  5
183
100
AcDbEntity
  8
Layer_1
 62
7
100
AcDbSpline
 70
8
 71
3
 72
8
 73
4
 74
0
 40
0
 40
0
 40
0
 40
0
 40
1
 40
1
 40
1
 40
1
 10
45.621332
 20
110.879406
 30
0.0
 10
44.537430
 20
120.031286
 30
0.0
 10
51.097358
 20
126.523325
 30
0.0
 10
59.865839
 20
126.516831
 30
0.0
  0
LWPOLYLINE
  5
184
100
AcDbEntity
  8
Layer_1
 62
7
100
AcDbPolyline
 90
2
 70
0
 10
59.833315
 20
131.913231
 30
0.0
 10
59.833315
 20
131.913231
 30
0.0
  0
SPLINE
  5
185
100
AcDbEntity
  8
Layer_1
 62
1
100
AcDbSpline
 70
8
 71
3
 72
8
 73
4
 74
0
 40
0
 40
0
 40
0
 40
0
 40
1
 40
1
 40
1
 40
1
 10
154.415874
 20
146.843791
 30
0.0
 10
152.731749
 20
146.843791
 30
0.0
 10
151.116602
 20
146.174775
 30
0.0
 10
149.925746
 20
144.983919
 30
0.0
  0
SPLINE
  5
186
100
AcDbEntity
  8
Layer_1
 62
1
100
AcDbSpline
 70
8
 71
3
 72
8
 73
4
 74
0
 40
0
 40
0
 40
0
 40
0
 40
1
 40
1
 40
1
 40
1
 10
149.925746
 20
144.983919
 30
0.0
 10
148.734890
 20
143.793063
 30
0.0
 10
148.065874
 20
142.177916
 30
0.0
 10
148.065874
 20
140.493791
 30
0.0
  0
SPLINE
  5
187
100
AcDbEntity
  8
Layer_1
 62
1
100
AcDbSpline
 70
8
 71
3
 72
8
 73
4
 74
0
 40
0
 40
0
 40
0
 40
0
 40
1
 40
1
 40
1
 40
1
 10
148.065874
 20
140.493791
 30
0.0
 10
148.068531
 20
140.039630
 30
0.0
 10
148.119904
 20
139.587064
 30
0.0
 10
148.219112
 20
139.143863
 30
0.0
  0
SPLINE
  5
188
100
AcDbEntity
  8
Layer_1
 62
1
100
AcDbSpline
 70
8
 71
3
 72
8
 73
4
 74
0
 40
0
 40
0
 40
0
 40
0
 40
1
 40
1
 40
1
 40
1
 10
148.219112
 20
139.143863
 30
0.0
 10
126.072123
 20
136.055087
 30
0.0
 10
109.581526
 20
117.127952
 30
0.0
 10
109.554668
 20
94.766625
 30
0.0
  0
SPLINE
  5
189
100
AcDbEntity
  8
Layer_1
 62
1
100
AcDbSpline
 70
8
 71
3
 72
8
 73
4
 74
0
 40
0
 40
0
 40
0
 40
0
 40
1
 40
1
 40
1
 40
1
 10
109.554668
 20
94.766625
 30
0.0
 10
109.554653
 20
82.868689
 30
0.0
 10
114.281084
 20
71.458057
 30
0.0
 10
122.694195
 20
63.044945
 30
0.0
  0
SPLINE
  5
18a
100
AcDbEntity
  8
Layer_1
 62
1
100
AcDbSpline
 70
8
 71
3
 72
8
 73
4
 74
0
 40
0
 40
0
 40
0
 40
0
 40
1
 40
1
 40
1
 40
1
 10
122.694195
 20
63.044945
 30
0.0
 10
131.107306
 20
54.631834
 30
0.0
 10
142.517938
 20
49.905403
 30
0.0
 10
154.415874
 20
49.905416
 30
0.0
  0
SPLINE
  5
18b
100
AcDbEntity
  8
Layer_1
 62
1
100
AcDbSpline
 70
8
 71
3
 72
8
 73
4
 74
0
 40
0
 40
0
 40
0
 40
0
 40
1
 40
1
 40
1
 40
1
 10
154.415874
 20
49.905416
 30
0.0
 10
166.313810
 20
49.905403
 30
0.0
 10
177.724442
 20
54.631834
 30
0.0
 10
186.137553
 20
63.044945
 30
0.0
  0
SPLINE
  5
18c
100
AcDbEntity
  8
Layer_1
 62
1
100
AcDbSpline
 70
8
 71
3
 72
8
 73
4
 74
0
 40
0
 40
0
 40
0
 40
0
 40
1
 40
1
 40
1
 40
1
 10
186.137553
 20
63.044945
 30
0.0
 10
194.550664
 20
71.458057
 30
0.0
 10
199.277094
 20
82.868689
 30
0.0
 10
199.277080
 20
94.766625
 30
0.0
  0
SPLINE
  5
18d
100
AcDbEntity
  8
Layer_1
 62
1
100
AcDbSpline
 70
8
 71
3
 72
8
 73
4
 74
0
 40
0
 40
0
 40
0
 40
0
 40
1
 40
1
 40
1
 40
1
 10
199.277080
 20
94.766625
 30
0.0
 10
199.252492
 20
117.127779
 30
0.0
 10
182.764067
 20
136.056496
 30
0.0
 10
160.617597
 20
139.147723
 30
0.0
  0
SPLINE
  5
18e
100
AcDbEntity
  8
Layer_1
 62
1
100
AcDbSpline
 70
8
 71
3
 72
8
 73
4
 74
0
 40
0
 40
0
 40
0
 40
0
 40
1
 40
1
 40
1
 40
1
 10
160.617597
 20
139.147723
 30
0.0
 10
160.714862
 20
139.589845
 30
0.0
 10
160.764570
 20
140.041099
 30
0.0
 10
160.765874
 20
140.493791
 30
0.0
  0
SPLINE
  5
18f
100
AcDbEntity
  8
Layer_1
 62
1
100
AcDbSpline
 70
8
 71
3
 72
8
 73
4
 74
0
 40
0
 40
0
 40
0
 40
0
 40
1
 40
1
 40
1
 40
1
 10
160.765874
 20
140.493791
 30
0.0
 10
160.765874
 20
142.177916
 30
0.0
 10
160.096858
 20
143.793063
 30
0.0
 10
158.906002
 20
144.983919
 30
0.0
  0
SPLINE
  5
190
100
AcDbEntity
  8
Layer_1
 62
1
100
AcDbSpline
 70
8
 71
3
 72
8
 73
4
 74
0
 40
0
 40
0
 40
0
 40
0
 40
1
 40
1
 40
1
 40
1
 10
158.906002
 20
144.983919
 30
0.0
 10
157.715146
 20
146.174775
 30
0.0
 10
156.099999
 20
146.843791
 30
0.0
 10
154.415874
 20
146.843791
 30
0.0
  0
LWPOLYLINE
  5
191
100
AcDbEntity
  8
Layer_1
 62
7
100
AcDbPolyline
 90
2
 70
0
 10
59.865839
 20
126.516831
 30
0.0
 10
59.865839
 20
126.516831
 30
0.0
  0
SPLINE
  5
192
100
AcDbEntity
  8
Layer_1
 62
1
100
AcDbSpline
 70
8
 71
3
 72
8
 73
4
 74
0
 40
0
 40
0
 40
0
 40
0
 40
1
 40
1
 40
1
 40
1
 10
154.415874
 20
142.938981
 30
0.0
 10
155.064384
 20
142.938997
 30
0.0
 10
155.686337
 20
142.681385
 30
0.0
 10
156.144902
 20
142.222819
 30
0.0
  0
SPLINE
  5
193
100
AcDbEntity
  8
Layer_1
 62
1
100
AcDbSpline
 70
8
 71
3
 72
8
 73
4
 74
0
 40
0
 40
0
 40
0
 40
0
 40
1
 40
1
 40
1
 40
1
 10
156.144902
 20
142.222819
 30
0.0
 10
156.603468
 20
141.764254
 30
0.0
 10
156.861080
 20
141.142301
 30
0.0
 10
156.861064
 20
140.493791
 30
0.0
  0
SPLINE
  5
194
100
AcDbEntity
  8
Layer_1
 62
1
100
AcDbSpline
 70
8
 71
3
 72
8
 73
4
 74
0
 40
0
 40
0
 40
0
 40
0
 40
1
 40
1
 40
1
 40
1
 10
156.861064
 20
140.493791
 30
0.0
 10
156.861081
 20
139.845281
 30
0.0
 10
156.603469
 20
139.223327
 30
0.0
 10
156.144903
 20
138.764760
 30
0.0
  0
SPLINE
  5
195
100
AcDbEntity
  8
Layer_1
 62
1
100
AcDbSpline
 70
8
 71
3
 72
8
 73
4
 74
0
 40
0
 40
0
 40
0
 40
0
 40
1
 40
1
 40
1
 40
1
 10
156.144903
 20
138.764760
 30
0.0
 10
155.686338
 20
138.306194
 30
0.0
 10
155.064384
 20
138.048582
 30
0.0
 10
154.415874
 20
138.048598
 30
0.0
  0
SPLINE
  5
196
100
AcDbEntity
  8
Layer_1
 62
1
100
AcDbSpline
 70
8
 71
3
 72
8
 73
4
 74
0
 40
0
 40
0
 40
0
 40
0
 40
1
 40
1
 40
1
 40
1
 10
154.415874
 20
138.048598
 30
0.0
 10
153.767364
 20
138.048582
 30
0.0
 10
153.145410
 20
138.306194
 30
0.0
 10
152.686844
 20
138.764760
 30
0.0
  0
SPLINE
  5
197
100
AcDbEntity
  8
Layer_1
 62
1
100
AcDbSpline
 70
8
 71
3
 72
8
 73
4
 74
0
 40
0
 40
0
 40
0
 40
0
 40
1
 40
1
 40
1
 40
1
 10
152.686844
 20
138.764760
 30
0.0
 10
152.228279
 20
139.223327
 30
0.0
 10
151.970667
 20
139.845281
 30
0.0
 10
151.970684
 20
140.493791
 30
0.0
  0
SPLINE
  5
198
100
AcDbEntity
  8
Layer_1
 62
1
100
AcDbSpline
 70
8
 71
3
 72
8
 73
4
 74
0
 40
0
 40
0
 40
0
 40
0
 40
1
 40
1
 40
1
 40
1
 10
151.970684
 20
140.493791
 30
0.0
 10
151.970667
 20
141.142301
 30
0.0
 10
152.228280
 20
141.764254
 30
0.0
 10
152.686845
 20
142.222819
 30
0.0
  0
SPLINE
  5
199
100
AcDbEntity
  8
Layer_1
 62
1
100
AcDbSpline
 70
8
 71
3
 72
8
 73
4
 74
0
 40
0
 40
0
 40
0
 40
0
 40
1
 40
1
 40
1
 40
1
 10
152.686845
 20
142.222819
 30
0.0
 10
153.145411
 20
142.681385
 30
0.0
 10
153.767364
 20
142.938997
 30
0.0
 10
154.415874
 20
142.938981
 30
0.0
  0
LWPOLYLINE
  5
19a
100
AcDbEntity
  8
Layer_1
 62
1
100
AcDbPolyline
 90
2
 70
1
 10
154.415874
 20
146.843791
 30
0.0
 10
154.415874
 20
146.843791
 30
0.0
  0
LWPOLYLINE
  5
19b
100
AcDbEntity
  8
Layer_1
 62
1
100
AcDbPolyline
 90
2
 70
1
 10
154.415874
 20
142.938981
 30
0.0
 10
154.415874
 20
142.938981
 30
0.0
  0
LWPOLYLINE
  5
19c
100
AcDbEntity
  8
Layer_1
 62
7
100
AcDbPolyline
 90
76
 70
0
 10
160.610352
 20
129.809792
 30
0.0
 10
160.086147
 20
129.744198
 30
0.0
 10
159.779158
 20
129.624235
 30
0.0
 10
159.462309
 20
129.444894
 30
0.0
 10
158.843143
 20
128.950453
 30
0.0
 10
158.316863
 20
128.345628
 30
0.0
 10
158.116122
 20
128.028308
 30
0.0
 10
157.971685
 20
127.715175
 30
0.0
 10
157.886356
 20
127.360201
 30
0.0
 10
157.853913
 20
126.944721
 30
0.0
 10
157.875258
 20
126.529720
 30
0.0
 10
157.951289
 20
126.176181
 30
0.0
 10
158.819717
 20
124.646125
 30
0.0
 10
160.770203
 20
121.367930
 30
0.0
 10
163.515257
 20
116.782369
 30
0.0
 10
162.834506
 20
115.462209
 30
0.0
 10
163.493837
 20
114.878108
 30
0.0
 10
164.130114
 20
114.255065
 30
0.0
 10
164.743719
 20
113.592672
 30
0.0
 10
165.335036
 20
112.890518
 30
0.0
 10
166.452345
 20
111.365291
 30
0.0
 10
167.485108
 20
109.676103
 30
0.0
 10
167.852217
 20
110.289604
 30
0.0
 10
169.633194
 20
113.243567
 30
0.0
 10
170.557582
 20
113.234748
 30
0.0
 10
175.456232
 20
113.166397
 30
0.0
 10
180.079275
 20
113.128915
 30
0.0
 10
180.682909
 20
113.173202
 30
0.0
 10
181.085795
 20
113.317431
 30
0.0
 10
181.555246
 20
113.606860
 30
0.0
 10
181.945307
 20
114.001045
 30
0.0
 10
182.260869
 20
114.506109
 30
0.0
 10
182.506826
 20
115.128174
 30
0.0
 10
182.606970
 20
115.574966
 30
0.0
 10
182.630851
 20
116.184853
 30
0.0
 10
182.608918
 20
116.788825
 30
0.0
 10
182.490291
 20
117.145069
 30
0.0
 10
182.152592
 20
117.652267
 30
0.0
 10
181.939734
 20
117.873002
 30
0.0
 10
181.727960
 20
118.036384
 30
0.0
 10
181.410909
 20
118.166144
 30
0.0
 10
180.908158
 20
118.305046
 30
0.0
 10
179.771147
 20
118.507675
 30
0.0
 10
175.510363
 20
118.996171
 30
0.0
 10
172.670941
 20
119.373632
 30
0.0
 10
173.265702
 20
120.538351
 30
0.0
 10
174.011064
 20
122.057290
 30
0.0
 10
174.255111
 20
122.670354
 30
0.0
 10
174.423256
 20
123.208436
 30
0.0
 10
174.525140
 20
123.863270
 30
0.0
 10
174.516990
 20
124.565052
 30
0.0
 10
174.405197
 20
125.240339
 30
0.0
 10
174.196155
 20
125.815687
 30
0.0
 10
174.021164
 20
126.072760
 30
0.0
 10
173.765696
 20
126.346874
 30
0.0
 10
173.476309
 20
126.593519
 30
0.0
 10
173.199558
 20
126.768187
 30
0.0
 10
172.801904
 20
126.923746
 30
0.0
 10
172.405836
 20
126.998878
 30
0.0
 10
171.994457
 20
126.995182
 30
0.0
 10
171.550872
 20
126.914257
 30
0.0
 10
170.942024
 20
126.705271
 30
0.0
 10
170.380631
 20
126.397983
 30
0.0
 10
169.852730
 20
125.982963
 30
0.0
 10
169.344357
 20
125.450782
 30
0.0
 10
168.708859
 20
124.626972
 30
0.0
 10
167.868755
 20
123.304349
 30
0.0
 10
167.305965
 20
122.419097
 30
0.0
 10
163.029084
 20
128.124174
 30
0.0
 10
162.638749
 20
128.618027
 30
0.0
 10
162.209370
 20
129.082818
 30
0.0
 10
161.806753
 20
129.452622
 30
0.0
 10
161.496705
 20
129.661515
 30
0.0
 10
161.089404
 20
129.773740
 30
0.0
 10
160.610352
 20
129.809792
 30
0.0
 10
160.610352
 20
129.809792
 30
0.0
  0
LWPOLYLINE
  5
19d
100
AcDbEntity
  8
Layer_1
 62
7
100
AcDbPolyline
 90
83
 70
0
 10
148.509522
 20
129.805934
 30
0.0
 10
148.084349
 20
129.756845
 30
0.0
 10
147.717425
 20
129.641119
 30
0.0
 10
147.358264
 20
129.397682
 30
0.0
 10
146.919197
 20
128.985567
 30
0.0
 10
146.456324
 20
128.462874
 30
0.0
 10
146.025746
 20
127.887703
 30
0.0
 10
142.865077
 20
123.617438
 30
0.0
 10
141.926358
 20
122.359015
 30
0.0
 10
141.782492
 20
122.587217
 30
0.0
 10
141.062603
 20
123.734298
 30
0.0
 10
140.278943
 20
124.897044
 30
0.0
 10
139.570094
 20
125.742402
 30
0.0
 10
139.225528
 20
126.064668
 30
0.0
 10
138.877829
 20
126.329916
 30
0.0
 10
138.519719
 20
126.545588
 30
0.0
 10
138.143920
 20
126.719128
 30
0.0
 10
137.556246
 20
126.896694
 30
0.0
 10
136.995948
 20
126.946342
 30
0.0
 10
136.457594
 20
126.867913
 30
0.0
 10
135.935751
 20
126.661250
 30
0.0
 10
135.647735
 20
126.479724
 30
0.0
 10
135.395755
 20
126.257500
 30
0.0
 10
135.180555
 20
125.996054
 30
0.0
 10
135.002878
 20
125.696861
 30
0.0
 10
134.863468
 20
125.361395
 30
0.0
 10
134.763071
 20
124.991133
 30
0.0
 10
134.702429
 20
124.587550
 30
0.0
 10
134.682286
 20
124.152119
 30
0.0
 10
134.750597
 20
123.389637
 30
0.0
 10
134.983455
 20
122.558754
 30
0.0
 10
135.424019
 20
121.540497
 30
0.0
 10
136.115448
 20
120.215890
 30
0.0
 10
136.584532
 20
119.316307
 30
0.0
 10
133.718373
 20
118.930521
 30
0.0
 10
129.662369
 20
118.453105
 30
0.0
 10
128.455236
 20
118.270202
 30
0.0
 10
127.993127
 20
118.140656
 30
0.0
 10
127.611703
 20
117.978585
 30
0.0
 10
127.300749
 20
117.778643
 30
0.0
 10
127.050051
 20
117.535483
 30
0.0
 10
126.849394
 20
117.243759
 30
0.0
 10
126.688562
 20
116.898125
 30
0.0
 10
126.609669
 20
116.567378
 30
0.0
 10
126.613048
 20
115.999645
 30
0.0
 10
126.671168
 20
115.426852
 30
0.0
 10
126.793405
 20
114.903999
 30
0.0
 10
126.976516
 20
114.435646
 30
0.0
 10
127.217259
 20
114.026354
 30
0.0
 10
127.512389
 20
113.680686
 30
0.0
 10
127.858665
 20
113.403203
 30
0.0
 10
128.252843
 20
113.198466
 30
0.0
 10
128.691680
 20
113.071036
 30
0.0
 10
130.215632
 20
113.057112
 30
0.0
 10
134.265568
 20
113.117891
 30
0.0
 10
138.777891
 20
113.187168
 30
0.0
 10
139.471879
 20
113.173135
 30
0.0
 10
139.654249
 20
113.127814
 30
0.0
 10
140.231371
 20
112.208385
 30
0.0
 10
140.727475
 20
113.095781
 30
0.0
 10
141.301317
 20
113.950604
 30
0.0
 10
141.946971
 20
114.766647
 30
0.0
 10
142.658512
 20
115.537705
 30
0.0
 10
143.430015
 20
116.257572
 30
0.0
 10
144.255554
 20
116.920040
 30
0.0
 10
145.129203
 20
117.518905
 30
0.0
 10
146.045039
 20
118.047960
 30
0.0
 10
146.664053
 20
118.345064
 30
0.0
 10
150.126836
 20
124.152535
 30
0.0
 10
151.239691
 20
126.091294
 30
0.0
 10
151.323865
 20
126.441347
 30
0.0
 10
151.354518
 20
126.881141
 30
0.0
 10
151.330927
 20
127.322336
 30
0.0
 10
151.252369
 20
127.676590
 30
0.0
 10
151.091119
 20
128.018642
 30
0.0
 10
150.871184
 20
128.360473
 30
0.0
 10
150.304248
 20
128.997874
 30
0.0
 10
149.981745
 20
129.270645
 30
0.0
 10
149.649547
 20
129.497597
 30
0.0
 10
149.319905
 20
129.667333
 30
0.0
 10
149.005064
 20
129.768452
 30
0.0
 10
148.509522
 20
129.805934
 30
0.0
 10
148.509522
 20
129.805934
 30
0.0
  0
LWPOLYLINE
  5
19e
100
AcDbEntity
  8
Layer_1
 62
7
100
AcDbPolyline
 90
6
 70
0
 10
154.653920
 20
120.515751
 30
0.0
 10
154.125854
 20
119.610103
 30
0.0
 10
153.975373
 20
119.338354
 30
0.0
 10
155.450424
 20
119.114563
 30
0.0
 10
154.653920
 20
120.515751
 30
0.0
 10
154.653920
 20
120.515751
 30
0.0
  0
LWPOLYLINE
  5
19f
100
AcDbEntity
  8
Layer_1
 62
7
100
AcDbPolyline
 90
98
 70
0
 10
152.273770
 20
115.786875
 30
0.0
 10
151.998714
 20
115.780813
 30
0.0
 10
151.870283
 20
115.550404
 30
0.0
 10
149.920633
 20
112.050188
 30
0.0
 10
149.102631
 20
110.636870
 30
0.0
 10
146.978246
 20
114.412695
 30
0.0
 10
146.162928
 20
113.873918
 30
0.0
 10
145.417528
 20
113.255772
 30
0.0
 10
144.747502
 20
112.562088
 30
0.0
 10
144.158309
 20
111.796696
 30
0.0
 10
143.655405
 20
110.963427
 30
0.0
 10
143.244249
 20
110.066111
 30
0.0
 10
142.930297
 20
109.108581
 30
0.0
 10
142.719007
 20
108.094666
 30
0.0
 10
142.779090
 20
107.994897
 30
0.0
 10
143.243213
 20
107.228706
 30
0.0
 10
142.965399
 20
107.214925
 30
0.0
 10
142.627505
 20
107.218786
 30
0.0
 10
142.610664
 20
106.256736
 30
0.0
 10
142.683176
 20
105.259766
 30
0.0
 10
142.782820
 20
104.613979
 30
0.0
 10
142.925632
 20
104.020787
 30
0.0
 10
143.116853
 20
103.474923
 30
0.0
 10
143.361723
 20
102.971119
 30
0.0
 10
145.718169
 20
103.120499
 30
0.0
 10
145.846902
 20
103.067989
 30
0.0
 10
146.075145
 20
102.759999
 30
0.0
 10
147.478750
 20
100.360013
 30
0.0
 10
147.755460
 20
99.878251
 30
0.0
 10
148.392665
 20
99.632410
 30
0.0
 10
149.757171
 20
99.097684
 30
0.0
 10
150.925931
 20
98.578511
 30
0.0
 10
151.926405
 20
98.055488
 30
0.0
 10
152.786051
 20
97.509209
 30
0.0
 10
153.532329
 20
96.920269
 30
0.0
 10
154.192696
 20
96.269264
 30
0.0
 10
154.794613
 20
95.536790
 30
0.0
 10
155.365537
 20
94.703441
 30
0.0
 10
155.964662
 20
93.655894
 30
0.0
 10
156.172052
 20
93.178820
 30
0.0
 10
156.326846
 20
92.699791
 30
0.0
 10
156.435684
 20
92.193992
 30
0.0
 10
156.505205
 20
91.636606
 30
0.0
 10
156.552855
 20
90.267814
 30
0.0
 10
156.509333
 20
89.182778
 30
0.0
 10
156.369963
 20
88.129322
 30
0.0
 10
156.121534
 20
87.082921
 30
0.0
 10
155.750839
 20
86.019046
 30
0.0
 10
157.929792
 20
82.208493
 30
0.0
 10
157.229748
 20
81.126458
 30
0.0
 10
155.605316
 20
78.727019
 30
0.0
 10
154.854010
 20
77.631754
 30
0.0
 10
156.087984
 20
78.625417
 30
0.0
 10
157.259470
 20
79.646434
 30
0.0
 10
158.367660
 20
80.693026
 30
0.0
 10
159.411749
 20
81.763410
 30
0.0
 10
160.390930
 20
82.855806
 30
0.0
 10
161.304398
 20
83.968431
 30
0.0
 10
162.151345
 20
85.099506
 30
0.0
 10
162.930967
 20
86.247248
 30
0.0
 10
161.682464
 20
88.419589
 30
0.0
 10
160.244344
 20
90.916592
 30
0.0
 10
160.140165
 20
91.088573
 30
0.0
 10
163.451314
 20
91.074792
 30
0.0
 10
165.397104
 20
91.066523
 30
0.0
 10
165.952242
 20
92.686975
 30
0.0
 10
166.376723
 20
94.316804
 30
0.0
 10
166.668581
 20
95.951712
 30
0.0
 10
166.825854
 20
97.587400
 30
0.0
 10
166.760813
 20
97.454558
 30
0.0
 10
163.452968
 20
97.440777
 30
0.0
 10
160.627978
 20
97.442261
 30
0.0
 10
160.242728
 20
97.468251
 30
0.0
 10
160.193410
 20
97.490356
 30
0.0
 10
160.196389
 20
97.519601
 30
0.0
 10
161.829090
 20
100.360013
 30
0.0
 10
163.232585
 20
102.761386
 30
0.0
 10
163.460291
 20
103.068824
 30
0.0
 10
163.589118
 20
103.121049
 30
0.0
 10
166.364488
 20
102.941353
 30
0.0
 10
166.094471
 20
103.970828
 30
0.0
 10
165.764583
 20
104.991619
 30
0.0
 10
165.374015
 20
106.002616
 30
0.0
 10
164.921957
 20
107.002708
 30
0.0
 10
164.577637
 20
107.656997
 30
0.0
 10
164.179486
 20
108.317561
 30
0.0
 10
163.244754
 20
109.635752
 30
0.0
 10
162.163877
 20
110.913760
 30
0.0
 10
160.982973
 20
112.108063
 30
0.0
 10
160.142369
 20
110.675455
 30
0.0
 10
158.110039
 20
114.314578
 30
0.0
 10
157.313197
 20
114.741444
 30
0.0
 10
156.552855
 20
115.053207
 30
0.0
 10
155.453263
 20
115.378115
 30
0.0
 10
154.370792
 20
115.606712
 30
0.0
 10
153.309581
 20
115.741974
 30
0.0
 10
152.273770
 20
115.786875
 30
0.0
 10
152.273770
 20
115.786875
 30
0.0
  0
LWPOLYLINE
  5
1a0
100
AcDbEntity
  8
Layer_1
 62
7
100
AcDbPolyline
 90
12
 70
0
 10
154.653920
 20
111.161628
 30
0.0
 10
155.076703
 20
110.569072
 30
0.0
 10
156.701132
 20
108.167978
 30
0.0
 10
157.929792
 20
106.303768
 30
0.0
 10
156.788776
 20
104.281358
 30
0.0
 10
155.165998
 20
101.483390
 30
0.0
 10
154.655020
 20
100.651055
 30
0.0
 10
152.994748
 20
103.464167
 30
0.0
 10
151.388521
 20
106.329123
 30
0.0
 10
153.014530
 20
108.777104
 30
0.0
 10
154.653920
 20
111.161628
 30
0.0
 10
154.653920
 20
111.161628
 30
0.0
  0
LWPOLYLINE
  5
1a1
100
AcDbEntity
  8
Layer_1
 62
7
100
AcDbPolyline
 90
189
 70
0
 10
185.647101
 20
108.142621
 30
0.0
 10
185.156525
 20
108.076398
 30
0.0
 10
184.700037
 20
107.915685
 30
0.0
 10
184.288649
 20
107.664904
 30
0.0
 10
183.933372
 20
107.328477
 30
0.0
 10
183.678060
 20
106.945323
 30
0.0
 10
183.059546
 20
105.872798
 30
0.0
 10
179.786579
 20
99.983534
 30
0.0
 10
178.584380
 20
97.810090
 30
0.0
 10
177.728341
 20
97.778673
 30
0.0
 10
175.022425
 20
97.718591
 30
0.0
 10
172.394231
 20
97.659059
 30
0.0
 10
171.804601
 20
97.648707
 30
0.0
 10
171.614812
 20
97.683313
 30
0.0
 10
176.414797
 20
105.722785
 30
0.0
 10
177.409187
 20
107.394622
 30
0.0
 10
168.691718
 20
107.266188
 30
0.0
 10
169.124754
 20
106.223066
 30
0.0
 10
169.475535
 20
105.235600
 30
0.0
 10
169.751772
 20
104.288289
 30
0.0
 10
169.961177
 20
103.365629
 30
0.0
 10
170.111464
 20
102.452120
 30
0.0
 10
170.210343
 20
101.532257
 30
0.0
 10
170.284730
 20
99.611464
 30
0.0
 10
170.266264
 20
98.159506
 30
0.0
 10
170.193727
 20
96.739492
 30
0.0
 10
170.058080
 20
95.340202
 30
0.0
 10
169.850283
 20
93.950416
 30
0.0
 10
169.561296
 20
92.558917
 30
0.0
 10
169.182080
 20
91.154483
 30
0.0
 10
168.703595
 20
89.725897
 30
0.0
 10
168.116800
 20
88.261939
 30
0.0
 10
169.263881
 20
85.812891
 30
0.0
 10
166.807665
 20
85.606736
 30
0.0
 10
166.232956
 20
84.665840
 30
0.0
 10
165.572404
 20
83.689743
 30
0.0
 10
164.835462
 20
82.688610
 30
0.0
 10
164.031586
 20
81.672606
 30
0.0
 10
162.260853
 20
79.636644
 30
0.0
 10
160.335846
 20
77.663174
 30
0.0
 10
162.168989
 20
74.397287
 30
0.0
 10
163.583606
 20
71.797690
 30
0.0
 10
160.879344
 20
67.215990
 30
0.0
 10
158.069249
 20
62.423724
 30
0.0
 10
157.982297
 20
62.065885
 30
0.0
 10
157.954071
 20
61.623170
 30
0.0
 10
157.984399
 20
61.174073
 30
0.0
 10
158.073107
 20
60.797089
 30
0.0
 10
158.229358
 20
60.466924
 30
0.0
 10
158.446166
 20
60.134406
 30
0.0
 10
159.010353
 20
59.509252
 30
0.0
 10
159.663472
 20
59.015525
 30
0.0
 10
159.991444
 20
58.847288
 30
0.0
 10
160.303326
 20
58.747119
 30
0.0
 10
160.627566
 20
58.709531
 30
0.0
 10
160.972242
 20
58.720438
 30
0.0
 10
161.304370
 20
58.776518
 30
0.0
 10
161.590965
 20
58.874450
 30
0.0
 10
161.951961
 20
59.119311
 30
0.0
 10
162.392232
 20
59.532719
 30
0.0
 10
162.854376
 20
60.055209
 30
0.0
 10
163.280990
 20
60.627312
 30
0.0
 10
164.854709
 20
62.767683
 30
0.0
 10
166.793884
 20
65.370519
 30
0.0
 10
167.257225
 20
65.963749
 30
0.0
 10
167.371680
 20
66.075073
 30
0.0
 10
167.426680
 20
66.083794
 30
0.0
 10
168.100265
 20
65.015537
 30
0.0
 10
169.019405
 20
63.626741
 30
0.0
 10
169.404016
 20
63.149107
 30
0.0
 10
169.814545
 20
62.714216
 30
0.0
 10
170.176339
 20
62.381405
 30
0.0
 10
170.520985
 20
62.126089
 30
0.0
 10
170.884207
 20
61.925195
 30
0.0
 10
171.301723
 20
61.755651
 30
0.0
 10
171.858801
 20
61.605251
 30
0.0
 10
172.372254
 20
61.567880
 30
0.0
 10
172.857973
 20
61.644101
 30
0.0
 10
173.331849
 20
61.834475
 30
0.0
 10
173.628971
 20
62.020267
 30
0.0
 10
173.888737
 20
62.246499
 30
0.0
 10
174.110472
 20
62.511847
 30
0.0
 10
174.293499
 20
62.814983
 30
0.0
 10
174.437142
 20
63.154581
 30
0.0
 10
174.540723
 20
63.529315
 30
0.0
 10
174.603568
 20
63.937858
 30
0.0
 10
174.625000
 20
64.378884
 30
0.0
 10
174.560882
 20
65.089417
 30
0.0
 10
174.346971
 20
65.874014
 30
0.0
 10
173.953472
 20
66.817657
 30
0.0
 10
173.350592
 20
68.005329
 30
0.0
 10
172.724408
 20
69.208081
 30
0.0
 10
175.747495
 20
69.605132
 30
0.0
 10
179.631137
 20
70.059159
 30
0.0
 10
180.517039
 20
70.183143
 30
0.0
 10
181.346520
 20
70.380517
 30
0.0
 10
181.772189
 20
70.566479
 30
0.0
 10
182.138407
 20
70.850670
 30
0.0
 10
182.430866
 20
71.218939
 30
0.0
 10
182.635260
 20
71.657132
 30
0.0
 10
182.700727
 20
71.993600
 30
0.0
 10
182.696445
 20
72.536870
 30
0.0
 10
182.636636
 20
73.104002
 30
0.0
 10
182.513282
 20
73.622123
 30
0.0
 10
182.329659
 20
74.086642
 30
0.0
 10
182.089045
 20
74.492969
 30
0.0
 10
181.794717
 20
74.836512
 30
0.0
 10
181.449952
 20
75.112681
 30
0.0
 10
181.058028
 20
75.316884
 30
0.0
 10
180.622222
 20
75.444532
 30
0.0
 10
177.199851
 20
75.437469
 30
0.0
 10
170.786888
 20
75.322714
 30
0.0
 10
169.885267
 20
75.316387
 30
0.0
 10
169.718968
 20
75.339719
 30
0.0
 10
169.645872
 20
75.386103
 30
0.0
 10
168.282716
 20
77.614115
 30
0.0
 10
166.528750
 20
80.520121
 30
0.0
 10
166.062973
 20
81.286312
 30
0.0
 10
166.368897
 20
81.300090
 30
0.0
 10
172.037595
 20
81.214102
 30
0.0
 10
177.408086
 20
81.120947
 30
0.0
 10
173.772822
 20
87.217937
 30
0.0
 10
171.614812
 20
90.882418
 30
0.0
 10
171.702643
 20
90.918038
 30
0.0
 10
171.971451
 20
90.908876
 30
0.0
 10
175.260550
 20
90.844936
 30
0.0
 10
178.401926
 20
90.776584
 30
0.0
 10
178.611389
 20
90.741857
 30
0.0
 10
179.951944
 20
88.339110
 30
0.0
 10
182.485329
 20
83.795993
 30
0.0
 10
183.865020
 20
81.398207
 30
0.0
 10
184.092786
 20
81.139784
 30
0.0
 10
184.379278
 20
80.903153
 30
0.0
 10
184.697203
 20
80.707895
 30
0.0
 10
185.019267
 20
80.573591
 30
0.0
 10
185.580064
 20
80.472990
 30
0.0
 10
186.196277
 20
80.493057
 30
0.0
 10
186.842311
 20
80.630561
 30
0.0
 10
187.492569
 20
80.882271
 30
0.0
 10
187.985657
 20
81.187854
 30
0.0
 10
188.369778
 20
81.574677
 30
0.0
 10
188.633208
 20
82.027468
 30
0.0
 10
188.764223
 20
82.530954
 30
0.0
 10
188.737574
 20
82.985884
 30
0.0
 10
188.597965
 20
83.602916
 30
0.0
 10
188.374329
 20
84.279004
 30
0.0
 10
188.095599
 20
84.911103
 30
0.0
 10
186.667953
 20
88.182014
 30
0.0
 10
185.359367
 20
91.219761
 30
0.0
 10
186.320134
 20
91.258346
 30
0.0
 10
188.028078
 20
91.360964
 30
0.0
 10
189.241835
 20
91.529027
 30
0.0
 10
189.713917
 20
91.648063
 30
0.0
 10
190.123079
 20
91.796015
 30
0.0
 10
190.489532
 20
91.977070
 30
0.0
 10
190.833485
 20
92.195411
 30
0.0
 10
191.166929
 20
92.457635
 30
0.0
 10
191.454097
 20
92.742304
 30
0.0
 10
191.690582
 20
93.044569
 30
0.0
 10
191.871975
 20
93.359578
 30
0.0
 10
192.011475
 20
93.742645
 30
0.0
 10
192.035687
 20
94.313732
 30
0.0
 10
192.009541
 20
94.896117
 30
0.0
 10
191.837798
 20
95.324110
 30
0.0
 10
191.510858
 20
95.814139
 30
0.0
 10
191.049432
 20
96.262491
 30
0.0
 10
190.489540
 20
96.640044
 30
0.0
 10
189.867204
 20
96.917675
 30
0.0
 10
189.229029
 20
97.087148
 30
0.0
 10
188.449441
 20
97.213668
 30
0.0
 10
187.553703
 20
97.294166
 30
0.0
 10
186.567078
 20
97.325574
 30
0.0
 10
185.579853
 20
97.365813
 30
0.0
 10
185.358264
 20
97.401641
 30
0.0
 10
185.618436
 20
98.009079
 30
0.0
 10
188.221276
 20
104.059218
 30
0.0
 10
188.551550
 20
104.969907
 30
0.0
 10
188.717922
 20
105.776255
 30
0.0
 10
188.710248
 20
106.095182
 30
0.0
 10
188.642445
 20
106.422719
 30
0.0
 10
188.519776
 20
106.741079
 30
0.0
 10
188.347505
 20
107.032474
 30
0.0
 10
188.166178
 20
107.243406
 30
0.0
 10
187.938883
 20
107.438886
 30
0.0
 10
187.369885
 20
107.772727
 30
0.0
 10
186.687495
 20
108.012463
 30
0.0
 10
185.938693
 20
108.136559
 30
0.0
 10
185.647101
 20
108.142621
 30
0.0
 10
185.647101
 20
108.142621
 30
0.0
  0
LWPOLYLINE
  5
1a2
100
AcDbEntity
  8
Layer_1
 62
7
100
AcDbPolyline
 90
212
 70
0
 10
123.643099
 20
108.043953
 30
0.0
 10
123.355365
 20
108.032930
 30
0.0
 10
122.908181
 20
107.985360
 30
0.0
 10
122.484271
 20
107.894506
 30
0.0
 10
122.088981
 20
107.763274
 30
0.0
 10
121.727653
 20
107.594566
 30
0.0
 10
121.405629
 20
107.391289
 30
0.0
 10
121.128255
 20
107.156345
 30
0.0
 10
120.900872
 20
106.892639
 30
0.0
 10
120.728825
 20
106.603076
 30
0.0
 10
120.600076
 20
106.262912
 30
0.0
 10
120.545074
 20
105.924986
 30
0.0
 10
120.562103
 20
105.558857
 30
0.0
 10
120.649450
 20
105.134090
 30
0.0
 10
120.915421
 20
104.299877
 30
0.0
 10
121.254684
 20
103.515170
 30
0.0
 10
123.903272
 20
97.338251
 30
0.0
 10
123.328101
 20
97.256401
 30
0.0
 10
122.149856
 20
97.216433
 30
0.0
 10
121.388165
 20
97.180141
 30
0.0
 10
120.590034
 20
97.081484
 30
0.0
 10
119.852203
 20
96.935786
 30
0.0
 10
119.271409
 20
96.758372
 30
0.0
 10
118.689871
 20
96.463574
 30
0.0
 10
118.168318
 20
96.079157
 30
0.0
 10
117.739425
 20
95.633752
 30
0.0
 10
117.435864
 20
95.155990
 30
0.0
 10
117.296952
 20
94.773014
 30
0.0
 10
117.272703
 20
94.203490
 30
0.0
 10
117.297777
 20
93.628372
 30
0.0
 10
117.452400
 20
93.226186
 30
0.0
 10
117.678929
 20
92.857171
 30
0.0
 10
118.011883
 20
92.487557
 30
0.0
 10
118.374358
 20
92.169743
 30
0.0
 10
118.761979
 20
91.906498
 30
0.0
 10
119.192217
 20
91.692897
 30
0.0
 10
119.682541
 20
91.524014
 30
0.0
 10
120.250424
 20
91.394924
 30
0.0
 10
120.913337
 20
91.300702
 30
0.0
 10
122.594136
 20
91.197160
 30
0.0
 10
123.924771
 20
91.136528
 30
0.0
 10
122.672052
 20
88.118690
 30
0.0
 10
121.223814
 20
84.773297
 30
0.0
 10
120.957597
 20
84.165167
 30
0.0
 10
120.748627
 20
83.530079
 30
0.0
 10
120.618639
 20
82.946093
 30
0.0
 10
120.589367
 20
82.491268
 30
0.0
 10
120.649725
 20
82.162839
 30
0.0
 10
120.773632
 20
81.831850
 30
0.0
 10
120.949824
 20
81.522164
 30
0.0
 10
121.167040
 20
81.257647
 30
0.0
 10
121.421631
 20
81.043526
 30
0.0
 10
121.728642
 20
80.851997
 30
0.0
 10
122.448513
 20
80.552583
 30
0.0
 10
123.223832
 20
80.391140
 30
0.0
 10
123.600154
 20
80.372076
 30
0.0
 10
123.951780
 20
80.399406
 30
0.0
 10
124.324806
 20
80.483237
 30
0.0
 10
124.653855
 20
80.616118
 30
0.0
 10
124.954603
 20
80.806007
 30
0.0
 10
125.242726
 20
81.060864
 30
0.0
 10
125.468606
 20
81.328593
 30
0.0
 10
125.791522
 20
81.833304
 30
0.0
 10
127.266237
 20
84.456350
 30
0.0
 10
129.843719
 20
89.113567
 30
0.0
 10
130.725113
 20
90.706029
 30
0.0
 10
131.501224
 20
90.737449
 30
0.0
 10
134.206590
 20
90.796981
 30
0.0
 10
136.914159
 20
90.856510
 30
0.0
 10
137.502694
 20
90.866662
 30
0.0
 10
137.693575
 20
90.832258
 30
0.0
 10
133.211093
 20
83.320846
 30
0.0
 10
131.899203
 20
81.120947
 30
0.0
 10
136.452240
 20
81.183786
 30
0.0
 10
142.118732
 20
81.270877
 30
0.0
 10
142.954590
 20
81.269776
 30
0.0
 10
143.239355
 20
81.234496
 30
0.0
 10
141.456173
 20
78.228169
 30
0.0
 10
139.675195
 20
75.275309
 30
0.0
 10
138.724349
 20
75.281924
 30
0.0
 10
133.848850
 20
75.348619
 30
0.0
 10
129.251716
 20
75.386654
 30
0.0
 10
128.627839
 20
75.343092
 30
0.0
 10
128.222595
 20
75.198138
 30
0.0
 10
127.752724
 20
74.908222
 30
0.0
 10
127.362314
 20
74.513711
 30
0.0
 10
127.046786
 20
74.008728
 30
0.0
 10
126.801564
 20
73.387397
 30
0.0
 10
126.702198
 20
72.940198
 30
0.0
 10
126.678092
 20
72.330165
 30
0.0
 10
126.701285
 20
71.711261
 30
0.0
 10
126.850620
 20
71.317032
 30
0.0
 10
127.059607
 20
70.975687
 30
0.0
 10
127.319758
 20
70.690610
 30
0.0
 10
127.621499
 20
70.470421
 30
0.0
 10
127.955257
 20
70.323742
 30
0.0
 10
128.903663
 20
70.099754
 30
0.0
 10
129.979869
 20
69.957734
 30
0.0
 10
133.542374
 20
69.558105
 30
0.0
 10
136.540985
 20
69.213593
 30
0.0
 10
136.608491
 20
69.194136
 30
0.0
 10
136.635795
 20
69.147449
 30
0.0
 10
136.027803
 20
67.945247
 30
0.0
 10
135.427551
 20
66.760362
 30
0.0
 10
135.043811
 20
65.833718
 30
0.0
 10
134.839528
 20
65.057882
 30
0.0
 10
134.777647
 20
64.325417
 30
0.0
 10
134.809381
 20
63.769107
 30
0.0
 10
134.907912
 20
63.266649
 30
0.0
 10
135.071144
 20
62.820912
 30
0.0
 10
135.296988
 20
62.434764
 30
0.0
 10
135.583350
 20
62.111073
 30
0.0
 10
135.928138
 20
61.852709
 30
0.0
 10
136.329259
 20
61.662539
 30
0.0
 10
136.784622
 20
61.543434
 30
0.0
 10
137.165387
 20
61.507676
 30
0.0
 10
137.589949
 20
61.566034
 30
0.0
 10
138.231292
 20
61.756662
 30
0.0
 10
138.840561
 20
62.067052
 30
0.0
 10
139.409226
 20
62.491837
 30
0.0
 10
139.928755
 20
63.025651
 30
0.0
 10
140.594734
 20
63.887691
 30
0.0
 10
141.390026
 20
65.131844
 30
0.0
 10
142.003529
 20
66.095921
 30
0.0
 10
146.062127
 20
60.687397
 30
0.0
 10
146.837240
 20
59.702961
 30
0.0
 10
147.232313
 20
59.276911
 30
0.0
 10
147.535525
 20
59.005638
 30
0.0
 10
147.958308
 20
58.798933
 30
0.0
 10
148.311360
 20
58.719610
 30
0.0
 10
148.721452
 20
58.706518
 30
0.0
 10
149.131690
 20
58.756996
 30
0.0
 10
149.485175
 20
58.868385
 30
0.0
 10
150.066020
 20
59.218983
 30
0.0
 10
150.603775
 20
59.695191
 30
0.0
 10
151.044837
 20
60.240999
 30
0.0
 10
151.335605
 20
60.800396
 30
0.0
 10
151.420375
 20
61.156980
 30
0.0
 10
151.453000
 20
61.573164
 30
0.0
 10
151.432577
 20
61.986747
 30
0.0
 10
151.358202
 20
62.335530
 30
0.0
 10
150.490434
 20
63.863803
 30
0.0
 10
148.539841
 20
67.143231
 30
0.0
 10
147.325512
 20
69.172803
 30
0.0
 10
146.913755
 20
69.093428
 30
0.0
 10
146.759468
 20
69.141777
 30
0.0
 10
146.549209
 20
69.280348
 30
0.0
 10
145.998155
 20
69.789309
 30
0.0
 10
145.335358
 20
70.542610
 30
0.0
 10
144.635581
 20
71.462551
 30
0.0
 10
143.982972
 20
72.425827
 30
0.0
 10
143.448580
 20
73.297117
 30
0.0
 10
143.087525
 20
73.980658
 30
0.0
 10
142.954925
 20
74.380687
 30
0.0
 10
143.040172
 20
74.592646
 30
0.0
 10
143.284496
 20
74.987046
 30
0.0
 10
144.181874
 20
76.232429
 30
0.0
 10
145.510054
 20
77.935353
 30
0.0
 10
147.132034
 20
79.914336
 30
0.0
 10
148.753567
 20
81.899767
 30
0.0
 10
150.101456
 20
83.664183
 30
0.0
 10
151.187673
 20
85.229433
 30
0.0
 10
152.024190
 20
86.617362
 30
0.0
 10
152.622981
 20
87.849817
 30
0.0
 10
152.836970
 20
88.414569
 30
0.0
 10
152.996018
 20
88.948646
 30
0.0
 10
153.101620
 20
89.454777
 30
0.0
 10
153.155274
 20
89.935694
 30
0.0
 10
153.158475
 20
90.394128
 30
0.0
 10
153.112721
 20
90.832809
 30
0.0
 10
152.899209
 20
91.650200
 30
0.0
 10
152.529533
 20
92.425549
 30
0.0
 10
152.001502
 20
93.160790
 30
0.0
 10
151.312926
 20
93.857856
 30
0.0
 10
150.461613
 20
94.518683
 30
0.0
 10
149.445372
 20
95.145205
 30
0.0
 10
148.262013
 20
95.739355
 30
0.0
 10
146.909344
 20
96.303068
 30
0.0
 10
145.484339
 20
96.875334
 30
0.0
 10
144.275088
 20
97.427549
 30
0.0
 10
142.551438
 20
97.427549
 30
0.0
 10
142.321579
 20
97.916476
 30
0.0
 10
141.752173
 20
99.095525
 30
0.0
 10
141.244835
 20
99.622885
 30
0.0
 10
140.795683
 20
100.197581
 30
0.0
 10
140.391659
 20
100.830342
 30
0.0
 10
140.019704
 20
101.531895
 30
0.0
 10
139.759164
 20
102.133493
 30
0.0
 10
139.538038
 20
102.782874
 30
0.0
 10
139.356329
 20
103.472700
 30
0.0
 10
139.214039
 20
104.195635
 30
0.0
 10
139.047720
 20
105.711478
 30
0.0
 10
139.039092
 20
107.271703
 30
0.0
 10
137.297803
 20
107.301466
 30
0.0
 10
131.899753
 20
107.394622
 30
0.0
 10
133.014861
 20
105.511672
 30
0.0
 10
137.693575
 20
97.632047
 30
0.0
 10
137.603549
 20
97.597574
 30
0.0
 10
137.336939
 20
97.606142
 30
0.0
 10
134.048390
 20
97.670633
 30
0.0
 10
130.907014
 20
97.738434
 30
0.0
 10
130.698105
 20
97.773158
 30
0.0
 10
129.635910
 20
99.674300
 30
0.0
 10
127.103076
 20
104.217418
 30
0.0
 10
125.444470
 20
107.117361
 30
0.0
 10
125.211204
 20
107.381549
 30
0.0
 10
124.921050
 20
107.618839
 30
0.0
 10
124.596466
 20
107.813474
 30
0.0
 10
124.259910
 20
107.949697
 30
0.0
 10
123.955475
 20
108.024381
 30
0.0
 10
123.643099
 20
108.043953
 30
0.0
 10
123.643099
 20
108.043953
 30
0.0
  0
LWPOLYLINE
  5
1a3
100
AcDbEntity
  8
Layer_1
 62
7
100
AcDbPolyline
 90
17
 70
0
 10
142.555846
 20
91.087469
 30
0.0
 10
145.862034
 20
91.087469
 30
0.0
 10
149.167675
 20
91.087469
 30
0.0
 10
149.064046
 20
90.916042
 30
0.0
 10
147.914761
 20
88.921193
 30
0.0
 10
146.382382
 20
86.253313
 30
0.0
 10
145.896762
 20
85.407747
 30
0.0
 10
145.586427
 20
85.400031
 30
0.0
 10
143.003984
 20
85.568151
 30
0.0
 10
140.441384
 20
85.747847
 30
0.0
 10
140.083647
 20
85.795252
 30
0.0
 10
140.084836
 20
85.906002
 30
0.0
 10
140.262392
 20
86.329614
 30
0.0
 10
141.576338
 20
89.053485
 30
0.0
 10
142.349691
 20
90.652009
 30
0.0
 10
142.555846
 20
91.087469
 30
0.0
 10
142.555846
 20
91.087469
 30
0.0
  0
LWPOLYLINE
  5
1a4
100
AcDbEntity
  8
Layer_1
 62
7
100
AcDbPolyline
 90
9
 70
0
 10
152.416535
 20
80.625954
 30
0.0
 10
151.106252
 20
78.975419
 30
0.0
 10
149.568408
 20
77.134007
 30
0.0
 10
150.832343
 20
74.862999
 30
0.0
 10
152.771674
 20
76.118184
 30
0.0
 10
154.595491
 20
77.434419
 30
0.0
 10
153.808907
 20
78.568269
 30
0.0
 10
152.416535
 20
80.625954
 30
0.0
 10
152.416535
 20
80.625954
 30
0.0
  0
LWPOLYLINE
  5
1a5
100
AcDbEntity
  8
Layer_1
 62
7
100
AcDbPolyline
 90
14
 70
0
 10
159.755967
 20
77.107549
 30
0.0
 10
158.721537
 20
76.168798
 30
0.0
 10
157.682458
 20
75.286006
 30
0.0
 10
156.649085
 20
74.470626
 30
0.0
 10
155.631775
 20
73.734110
 30
0.0
 10
154.123679
 20
72.739440
 30
0.0
 10
152.542765
 20
71.772886
 30
0.0
 10
153.440144
 20
70.152312
 30
0.0
 10
154.653920
 20
67.999817
 30
0.0
 10
154.976932
 20
68.540561
 30
0.0
 10
156.923272
 20
72.040226
 30
0.0
 10
159.374527
 20
76.438372
 30
0.0
 10
159.755967
 20
77.107549
 30
0.0
 10
159.755967
 20
77.107549
 30
0.0
  0
LWPOLYLINE
  5
1a6
100
AcDbEntity
  8
Layer_1
 62
7
100
AcDbPolyline
 90
7
 70
0
 10
147.516232
 20
74.961667
 30
0.0
 10
147.141969
 20
74.539698
 30
0.0
 10
147.053969
 20
74.383605
 30
0.0
 10
147.047148
 20
74.266034
 30
0.0
 10
147.085183
 20
74.173428
 30
0.0
 10
147.516232
 20
74.961667
 30
0.0
 10
147.516232
 20
74.961667
 30
0.0
  0
LWPOLYLINE
  5
1a7
100
AcDbEntity
  8
Layer_1
 62
7
100
AcDbPolyline
 90
499
 70
0
 10
158.839848
 20
241.869102
 30
0.0
 10
158.286981
 20
241.799648
 30
0.0
 10
157.963081
 20
241.673071
 30
0.0
 10
157.628741
 20
241.483832
 30
0.0
 10
156.975328
 20
240.962098
 30
0.0
 10
156.419910
 20
240.323909
 30
0.0
 10
156.208066
 20
239.989102
 30
0.0
 10
156.055658
 20
239.658730
 30
0.0
 10
155.965718
 20
239.284277
 30
0.0
 10
155.931682
 20
238.846051
 30
0.0
 10
155.954399
 20
238.408332
 30
0.0
 10
156.034715
 20
238.035399
 30
0.0
 10
156.950823
 20
236.421138
 30
0.0
 10
159.008521
 20
232.962564
 30
0.0
 10
161.904604
 20
228.124547
 30
0.0
 10
161.371180
 20
227.071559
 30
0.0
 10
160.159184
 20
224.848259
 30
0.0
 10
158.930238
 20
222.652453
 30
0.0
 10
158.345959
 20
221.681944
 30
0.0
 10
153.791268
 20
229.875759
 30
0.0
 10
152.555993
 20
232.062981
 30
0.0
 10
151.998714
 20
231.107726
 30
0.0
 10
151.157562
 20
229.589678
 30
0.0
 10
149.619118
 20
226.825334
 30
0.0
 10
147.561983
 20
223.132191
 30
0.0
 10
146.698781
 20
221.641155
 30
0.0
 10
144.900779
 20
224.820879
 30
0.0
 10
143.135175
 20
228.058953
 30
0.0
 10
144.074995
 20
229.687243
 30
0.0
 10
147.773474
 20
235.890063
 30
0.0
 10
148.953251
 20
237.946103
 30
0.0
 10
149.042121
 20
238.315394
 30
0.0
 10
149.074594
 20
238.779343
 30
0.0
 10
149.049841
 20
239.244769
 30
0.0
 10
148.967032
 20
239.618490
 30
0.0
 10
148.796916
 20
239.979342
 30
0.0
 10
148.564899
 20
240.339931
 30
0.0
 10
148.283898
 20
240.688239
 30
0.0
 10
147.966831
 20
241.012252
 30
0.0
 10
147.626615
 20
241.299951
 30
0.0
 10
147.276169
 20
241.539321
 30
0.0
 10
146.928410
 20
241.718344
 30
0.0
 10
146.596255
 20
241.825005
 30
0.0
 10
146.254223
 20
241.864661
 30
0.0
 10
145.890302
 20
241.853239
 30
0.0
 10
145.539534
 20
241.794214
 30
0.0
 10
145.236957
 20
241.691060
 30
0.0
 10
144.858196
 20
241.434318
 30
0.0
 10
144.395325
 20
240.999719
 30
0.0
 10
143.907338
 20
240.448458
 30
0.0
 10
143.453225
 20
239.841731
 30
0.0
 10
140.117822
 20
235.336098
 30
0.0
 10
139.127840
 20
234.008220
 30
0.0
 10
138.975702
 20
234.249102
 30
0.0
 10
138.216129
 20
235.459570
 30
0.0
 10
137.389381
 20
236.686293
 30
0.0
 10
136.641592
 20
237.578179
 30
0.0
 10
136.278100
 20
237.918185
 30
0.0
 10
135.911299
 20
238.198034
 30
0.0
 10
135.533507
 20
238.425576
 30
0.0
 10
135.137040
 20
238.608662
 30
0.0
 10
134.516981
 20
238.795981
 30
0.0
 10
133.925743
 20
238.848320
 30
0.0
 10
133.357656
 20
238.765534
 30
0.0
 10
132.807052
 20
238.547480
 30
0.0
 10
132.503220
 20
238.355978
 30
0.0
 10
132.237453
 20
238.121557
 30
0.0
 10
132.010520
 20
237.845765
 30
0.0
 10
131.823189
 20
237.530155
 30
0.0
 10
131.676227
 20
237.176277
 30
0.0
 10
131.570403
 20
236.785682
 30
0.0
 10
131.506485
 20
236.359920
 30
0.0
 10
131.485239
 20
235.900543
 30
0.0
 10
131.557291
 20
235.096011
 30
0.0
 10
131.802954
 20
234.219203
 30
0.0
 10
132.267755
 20
233.144714
 30
0.0
 10
132.997222
 20
231.747135
 30
0.0
 10
133.491661
 20
230.797942
 30
0.0
 10
130.468064
 20
230.390979
 30
0.0
 10
126.189161
 20
229.887335
 30
0.0
 10
124.915601
 20
229.694303
 30
0.0
 10
124.428052
 20
229.557559
 30
0.0
 10
124.025625
 20
229.386490
 30
0.0
 10
123.697545
 20
229.175466
 30
0.0
 10
123.433038
 20
228.918857
 30
0.0
 10
123.221330
 20
228.611035
 30
0.0
 10
123.051646
 20
228.246368
 30
0.0
 10
122.968278
 20
227.897885
 30
0.0
 10
122.971718
 20
227.299380
 30
0.0
 10
123.033048
 20
226.695054
 30
0.0
 10
123.162044
 20
226.143389
 30
0.0
 10
123.355277
 20
225.649206
 30
0.0
 10
123.609319
 20
225.217327
 30
0.0
 10
123.920741
 20
224.852573
 30
0.0
 10
124.286115
 20
224.559764
 30
0.0
 10
124.702013
 20
224.343722
 30
0.0
 10
125.165005
 20
224.209267
 30
0.0
 10
126.772984
 20
224.194406
 30
0.0
 10
131.045921
 20
224.258326
 30
0.0
 10
135.806263
 20
224.331681
 30
0.0
 10
136.538273
 20
224.317063
 30
0.0
 10
136.730605
 20
224.269349
 30
0.0
 10
138.178094
 20
221.920069
 30
0.0
 10
140.027423
 20
218.854210
 30
0.0
 10
140.517451
 20
218.045576
 30
0.0
 10
140.223655
 20
218.030694
 30
0.0
 10
134.244072
 20
218.122197
 30
0.0
 10
128.550018
 20
218.220864
 30
0.0
 10
129.726312
 20
216.234285
 30
0.0
 10
134.662443
 20
207.920303
 30
0.0
 10
134.567352
 20
207.884410
 30
0.0
 10
134.285965
 20
207.893845
 30
0.0
 10
130.816062
 20
207.961646
 30
0.0
 10
127.501605
 20
208.033302
 30
0.0
 10
127.281672
 20
208.069684
 30
0.0
 10
126.161049
 20
210.075556
 30
0.0
 10
123.488758
 20
214.868372
 30
0.0
 10
121.739203
 20
217.928169
 30
0.0
 10
121.493120
 20
218.206881
 30
0.0
 10
121.187047
 20
218.457209
 30
0.0
 10
120.844649
 20
218.662540
 30
0.0
 10
120.489596
 20
218.806255
 30
0.0
 10
120.067035
 20
218.897351
 30
0.0
 10
119.534892
 20
218.893897
 30
0.0
 10
119.063108
 20
218.843727
 30
0.0
 10
118.615886
 20
218.747920
 30
0.0
 10
118.198861
 20
218.609531
 30
0.0
 10
117.817668
 20
218.431615
 30
0.0
 10
117.477944
 20
218.217227
 30
0.0
 10
117.185323
 20
217.969420
 30
0.0
 10
116.945440
 20
217.691250
 30
0.0
 10
116.763933
 20
217.385772
 30
0.0
 10
116.628092
 20
217.026869
 30
0.0
 10
116.570048
 20
216.670275
 30
0.0
 10
116.588000
 20
216.283925
 30
0.0
 10
116.680147
 20
215.835756
 30
0.0
 10
116.960917
 20
214.955811
 30
0.0
 10
117.319007
 20
214.128092
 30
0.0
 10
120.113668
 20
207.611073
 30
0.0
 10
119.943750
 20
207.566145
 30
0.0
 10
119.506305
 20
207.524758
 30
0.0
 10
118.262688
 20
207.482639
 30
0.0
 10
117.459203
 20
207.444243
 30
0.0
 10
116.617408
 20
207.339918
 30
0.0
 10
115.839229
 20
207.185963
 30
0.0
 10
115.226592
 20
206.998673
 30
0.0
 10
114.612994
 20
206.687650
 30
0.0
 10
114.062597
 20
206.282074
 30
0.0
 10
113.609955
 20
205.812152
 30
0.0
 10
113.289622
 20
205.308094
 30
0.0
 10
113.143143
 20
204.904347
 30
0.0
 10
113.117644
 20
204.303781
 30
0.0
 10
113.144125
 20
203.697164
 30
0.0
 10
113.307261
 20
203.273007
 30
0.0
 10
113.546296
 20
202.883606
 30
0.0
 10
113.897613
 20
202.493591
 30
0.0
 10
114.280024
 20
202.158257
 30
0.0
 10
114.688949
 20
201.880450
 30
0.0
 10
115.142825
 20
201.654989
 30
0.0
 10
115.660090
 20
201.476694
 30
0.0
 10
116.259180
 20
201.340381
 30
0.0
 10
116.958532
 20
201.240872
 30
0.0
 10
118.731769
 20
201.131535
 30
0.0
 10
120.136268
 20
201.068145
 30
0.0
 10
118.814511
 20
197.884313
 30
0.0
 10
117.286484
 20
194.354897
 30
0.0
 10
117.005649
 20
193.713285
 30
0.0
 10
116.785243
 20
193.043212
 30
0.0
 10
116.648165
 20
192.427054
 30
0.0
 10
116.617310
 20
191.947186
 30
0.0
 10
116.680847
 20
191.600600
 30
0.0
 10
116.811257
 20
191.251233
 30
0.0
 10
116.996828
 20
190.924351
 30
0.0
 10
117.225851
 20
190.645216
 30
0.0
 10
117.494475
 20
190.419324
 30
0.0
 10
117.818443
 20
190.217296
 30
0.0
 10
118.578118
 20
189.901531
 30
0.0
 10
119.396292
 20
189.731336
 30
0.0
 10
119.793383
 20
189.711268
 30
0.0
 10
120.164380
 20
189.740121
 30
0.0
 10
120.557942
 20
189.828476
 30
0.0
 10
120.905122
 20
189.968476
 30
0.0
 10
121.222444
 20
190.168621
 30
0.0
 10
121.526433
 20
190.437410
 30
0.0
 10
121.764743
 20
190.719955
 30
0.0
 10
122.105432
 20
191.252636
 30
0.0
 10
123.661289
 20
194.020309
 30
0.0
 10
126.379882
 20
198.933840
 30
0.0
 10
127.310334
 20
200.613945
 30
0.0
 10
128.129439
 20
200.647019
 30
0.0
 10
130.983081
 20
200.709856
 30
0.0
 10
133.840031
 20
200.772145
 30
0.0
 10
134.461003
 20
200.783259
 30
0.0
 10
134.662443
 20
200.747341
 30
0.0
 10
129.933017
 20
192.821965
 30
0.0
 10
128.548915
 20
190.501350
 30
0.0
 10
133.352204
 20
190.568048
 30
0.0
 10
139.330687
 20
190.660100
 30
0.0
 10
140.212568
 20
190.658673
 30
0.0
 10
140.513043
 20
190.620965
 30
0.0
 10
138.632297
 20
187.449269
 30
0.0
 10
136.752652
 20
184.334355
 30
0.0
 10
135.749439
 20
184.341520
 30
0.0
 10
130.605499
 20
184.410972
 30
0.0
 10
125.755908
 20
184.451211
 30
0.0
 10
125.097632
 20
184.405471
 30
0.0
 10
124.670013
 20
184.252773
 30
0.0
 10
124.174365
 20
183.946881
 30
0.0
 10
123.762632
 20
183.530618
 30
0.0
 10
123.429902
 20
182.997804
 30
0.0
 10
123.171258
 20
182.342261
 30
0.0
 10
123.066277
 20
181.870333
 30
0.0
 10
123.040620
 20
181.226602
 30
0.0
 10
123.065031
 20
180.573684
 30
0.0
 10
123.222520
 20
180.157796
 30
0.0
 10
123.442985
 20
179.797688
 30
0.0
 10
123.717400
 20
179.496953
 30
0.0
 10
124.035692
 20
179.264675
 30
0.0
 10
124.387791
 20
179.109936
 30
0.0
 10
125.388630
 20
178.873763
 30
0.0
 10
126.524300
 20
178.724084
 30
0.0
 10
130.282487
 20
178.302405
 30
0.0
 10
133.445910
 20
177.938603
 30
0.0
 10
133.517239
 20
177.918247
 30
0.0
 10
133.546232
 20
177.869149
 30
0.0
 10
132.904619
 20
176.600802
 30
0.0
 10
132.271409
 20
175.350758
 30
0.0
 10
131.866704
 20
174.373191
 30
0.0
 10
131.651329
 20
173.554725
 30
0.0
 10
131.586111
 20
172.781983
 30
0.0
 10
131.619555
 20
172.195036
 30
0.0
 10
131.723421
 20
171.664850
 30
0.0
 10
131.895518
 20
171.194469
 30
0.0
 10
132.133655
 20
170.786938
 30
0.0
 10
132.435640
 20
170.445302
 30
0.0
 10
132.799283
 20
170.172606
 30
0.0
 10
133.222393
 20
169.971894
 30
0.0
 10
133.702778
 20
169.846211
 30
0.0
 10
134.104387
 20
169.808940
 30
0.0
 10
134.552202
 20
169.871016
 30
0.0
 10
135.228963
 20
170.072060
 30
0.0
 10
135.872049
 20
170.399393
 30
0.0
 10
136.472296
 20
170.847424
 30
0.0
 10
137.020543
 20
171.410561
 30
0.0
 10
137.722926
 20
172.319960
 30
0.0
 10
138.561741
 20
173.632508
 30
0.0
 10
139.208868
 20
174.649501
 30
0.0
 10
143.490707
 20
168.943871
 30
0.0
 10
144.308723
 20
167.905222
 30
0.0
 10
144.725711
 20
167.455709
 30
0.0
 10
145.045687
 20
167.169509
 30
0.0
 10
145.491067
 20
166.951780
 30
0.0
 10
145.863595
 20
166.868009
 30
0.0
 10
146.296364
 20
166.854020
 30
0.0
 10
146.729286
 20
166.907101
 30
0.0
 10
147.102271
 20
167.024540
 30
0.0
 10
147.715101
 20
167.394364
 30
0.0
 10
148.282499
 20
167.896610
 30
0.0
 10
148.747883
 20
168.472282
 30
0.0
 10
149.054673
 20
169.062382
 30
0.0
 10
149.144169
 20
169.438658
 30
0.0
 10
149.178725
 20
169.877888
 30
0.0
 10
149.157319
 20
170.314371
 30
0.0
 10
149.078927
 20
170.682405
 30
0.0
 10
148.163228
 20
172.295089
 30
0.0
 10
146.105121
 20
175.755239
 30
0.0
 10
143.207935
 20
180.595460
 30
0.0
 10
143.741071
 20
181.648580
 30
0.0
 10
144.952554
 20
183.872999
 30
0.0
 10
146.180975
 20
186.070127
 30
0.0
 10
146.764925
 20
187.041371
 30
0.0
 10
151.274419
 20
178.929686
 30
0.0
 10
152.555993
 20
176.658681
 30
0.0
 10
152.896646
 20
177.228637
 30
0.0
 10
154.949923
 20
180.921230
 30
0.0
 10
157.535674
 20
185.561358
 30
0.0
 10
158.421476
 20
187.066728
 30
0.0
 10
160.218245
 20
183.887557
 30
0.0
 10
161.976263
 20
180.665466
 30
0.0
 10
159.123724
 20
175.831857
 30
0.0
 10
156.158187
 20
170.775561
 30
0.0
 10
156.066594
 20
170.398078
 30
0.0
 10
156.037119
 20
169.931071
 30
0.0
 10
156.069418
 20
169.457325
 30
0.0
 10
156.163145
 20
169.059627
 30
0.0
 10
156.327955
 20
168.711292
 30
0.0
 10
156.556591
 20
168.360458
 30
0.0
 10
156.835597
 20
168.019512
 30
0.0
 10
157.151515
 20
167.700841
 30
0.0
 10
157.490890
 20
167.416833
 30
0.0
 10
157.840264
 20
167.179875
 30
0.0
 10
158.186180
 20
167.002354
 30
0.0
 10
158.515183
 20
166.896659
 30
0.0
 10
158.857389
 20
166.856939
 30
0.0
 10
159.221307
 20
166.868307
 30
0.0
 10
159.571987
 20
166.927337
 30
0.0
 10
159.874481
 20
167.030605
 30
0.0
 10
160.255278
 20
167.289023
 30
0.0
 10
160.719642
 20
167.725373
 30
0.0
 10
161.207082
 20
168.276808
 30
0.0
 10
161.657109
 20
168.880481
 30
0.0
 10
163.317369
 20
171.137708
 30
0.0
 10
165.363480
 20
173.884414
 30
0.0
 10
165.852269
 20
174.510248
 30
0.0
 10
165.972993
 20
174.627660
 30
0.0
 10
166.031003
 20
174.636824
 30
0.0
 10
166.741520
 20
173.510139
 30
0.0
 10
167.711475
 20
172.044841
 30
0.0
 10
168.117415
 20
171.540874
 30
0.0
 10
168.550607
 20
171.082034
 30
0.0
 10
168.932182
 20
170.730976
 30
0.0
 10
169.295518
 20
170.461741
 30
0.0
 10
169.678451
 20
170.249920
 30
0.0
 10
170.118814
 20
170.071106
 30
0.0
 10
170.706573
 20
169.912363
 30
0.0
 10
171.248347
 20
169.872774
 30
0.0
 10
171.760860
 20
169.953022
 30
0.0
 10
172.260839
 20
170.153789
 30
0.0
 10
172.574306
 20
170.349802
 30
0.0
 10
172.848360
 20
170.588484
 30
0.0
 10
173.082289
 20
170.868435
 30
0.0
 10
173.275380
 20
171.188254
 30
0.0
 10
173.426919
 20
171.546541
 30
0.0
 10
173.536193
 20
171.941895
 30
0.0
 10
173.602489
 20
172.372918
 30
0.0
 10
173.625095
 20
172.838207
 30
0.0
 10
173.557526
 20
173.587834
 30
0.0
 10
173.332077
 20
174.415600
 30
0.0
 10
172.917170
 20
175.411166
 30
0.0
 10
172.281232
 20
176.664192
 30
0.0
 10
171.620327
 20
177.933092
 30
0.0
 10
174.809911
 20
178.351999
 30
0.0
 10
178.907392
 20
178.831021
 30
0.0
 10
179.841977
 20
178.961811
 30
0.0
 10
180.717032
 20
179.170018
 30
0.0
 10
181.166066
 20
179.366265
 30
0.0
 10
181.552312
 20
179.666199
 30
0.0
 10
181.860742
 20
180.054835
 30
0.0
 10
182.076327
 20
180.517186
 30
0.0
 10
182.145371
 20
180.871950
 30
0.0
 10
182.140820
 20
181.444882
 30
0.0
 10
182.077721
 20
182.043208
 30
0.0
 10
181.947581
 20
182.589818
 30
0.0
 10
181.753858
 20
183.079871
 30
0.0
 10
181.500008
 20
183.508528
 30
0.0
 10
181.189490
 20
183.870949
 30
0.0
 10
180.825760
 20
184.162293
 30
0.0
 10
180.412276
 20
184.377723
 30
0.0
 10
179.952495
 20
184.512397
 30
0.0
 10
176.341744
 20
184.504998
 30
0.0
 10
169.575869
 20
184.383964
 30
0.0
 10
168.624887
 20
184.377519
 30
0.0
 10
168.449608
 20
184.402263
 30
0.0
 10
168.372564
 20
184.451211
 30
0.0
 10
166.933894
 20
186.801592
 30
0.0
 10
165.084015
 20
189.868004
 30
0.0
 10
164.592330
 20
190.676085
 30
0.0
 10
164.914792
 20
190.690417
 30
0.0
 10
170.894925
 20
190.599465
 30
0.0
 10
176.561420
 20
190.501350
 30
0.0
 10
172.726615
 20
196.933480
 30
0.0
 10
170.448992
 20
200.799154
 30
0.0
 10
170.541763
 20
200.837155
 30
0.0
 10
170.825473
 20
200.827816
 30
0.0
 10
174.295373
 20
200.760018
 30
0.0
 10
177.610381
 20
200.687809
 30
0.0
 10
177.831420
 20
200.651981
 30
0.0
 10
179.245285
 20
198.116389
 30
0.0
 10
181.918130
 20
193.324123
 30
0.0
 10
183.373889
 20
190.793493
 30
0.0
 10
183.614165
 20
190.520973
 30
0.0
 10
183.916380
 20
190.271568
 30
0.0
 10
184.251758
 20
190.065809
 30
0.0
 10
184.591523
 20
189.924228
 30
0.0
 10
185.183098
 20
189.818007
 30
0.0
 10
185.833049
 20
189.839025
 30
0.0
 10
186.514463
 20
189.983948
 30
0.0
 10
187.200424
 20
190.249444
 30
0.0
 10
187.720646
 20
190.571868
 30
0.0
 10
188.125914
 20
190.980054
 30
0.0
 10
188.403852
 20
191.457843
 30
0.0
 10
188.542083
 20
191.989079
 30
0.0
 10
188.514032
 20
192.468985
 30
0.0
 10
188.366881
 20
193.119862
 30
0.0
 10
188.131080
 20
193.833045
 30
0.0
 10
187.837078
 20
194.499866
 30
0.0
 10
186.330607
 20
197.950473
 30
0.0
 10
184.950916
 20
201.155790
 30
0.0
 10
185.964048
 20
201.196579
 30
0.0
 10
187.766006
 20
201.304707
 30
0.0
 10
189.046639
 20
201.481729
 30
0.0
 10
189.544745
 20
201.607161
 30
0.0
 10
189.976464
 20
201.763120
 30
0.0
 10
190.363110
 20
201.954040
 30
0.0
 10
190.725998
 20
202.184357
 30
0.0
 10
191.077730
 20
202.461082
 30
0.0
 10
191.380574
 20
202.761564
 30
0.0
 10
191.629946
 20
203.080607
 30
0.0
 10
191.821263
 20
203.413017
 30
0.0
 10
191.968345
 20
203.817087
 30
0.0
 10
191.993794
 20
204.419534
 30
0.0
 10
191.966152
 20
205.033996
 30
0.0
 10
191.784882
 20
205.485586
 30
0.0
 10
191.440101
 20
206.002571
 30
0.0
 10
190.953608
 20
206.475583
 30
0.0
 10
190.363231
 20
206.873898
 30
0.0
 10
189.706800
 20
207.166793
 30
0.0
 10
189.033464
 20
207.345619
 30
0.0
 10
188.210868
 20
207.479162
 30
0.0
 10
187.265732
 20
207.564145
 30
0.0
 10
186.224774
 20
207.597292
 30
0.0
 10
185.182978
 20
207.639735
 30
0.0
 10
184.949262
 20
207.677770
 30
0.0
 10
185.223215
 20
208.318832
 30
0.0
 10
187.969923
 20
214.701353
 30
0.0
 10
188.318207
 20
215.662322
 30
0.0
 10
188.493575
 20
216.513200
 30
0.0
 10
188.485564
 20
216.849561
 30
0.0
 10
188.414215
 20
217.194860
 30
0.0
 10
188.284981
 20
217.530471
 30
0.0
 10
188.103315
 20
217.837770
 30
0.0
 10
187.911975
 20
218.060330
 30
0.0
 10
187.672077
 20
218.266617
 30
0.0
 10
187.071476
 20
218.618976
 30
0.0
 10
186.351244
 20
218.872048
 30
0.0
 10
185.561111
 20
219.003037
 30
0.0
 10
184.954261
 20
218.982156
 30
0.0
 10
184.387973
 20
218.828381
 30
0.0
 10
183.879501
 20
218.548752
 30
0.0
 10
183.446098
 20
218.150309
 30
0.0
 10
183.176730
 20
217.746170
 30
0.0
 10
182.524166
 20
216.614849
 30
0.0
 10
179.071103
 20
210.401875
 30
0.0
 10
177.802757
 20
208.109370
 30
0.0
 10
176.899313
 20
208.075195
 30
0.0
 10
174.044570
 20
208.011806
 30
0.0
 10
171.271407
 20
207.949519
 30
0.0
 10
170.649279
 20
207.938479
 30
0.0
 10
170.448992
 20
207.974874
 30
0.0
 10
175.513007
 20
216.456975
 30
0.0
 10
176.563074
 20
218.220864
 30
0.0
 10
165.753189
 20
218.059910
 30
0.0
 10
164.881347
 20
218.059667
 30
0.0
 10
164.598395
 20
218.099046
 30
0.0
 10
166.480242
 20
221.274596
 30
0.0
 10
168.358786
 20
224.391718
 30
0.0
 10
169.334437
 20
224.381798
 30
0.0
 10
174.502631
 20
224.310139
 30
0.0
 10
179.379784
 20
224.270453
 30
0.0
 10
180.016775
 20
224.317229
 30
0.0
 10
180.441975
 20
224.469439
 30
0.0
 10
180.937182
 20
224.774726
 30
0.0
 10
181.348544
 20
225.190458
 30
0.0
 10
181.681311
 20
225.723171
 30
0.0
 10
181.940731
 20
226.379401
 30
0.0
 10
182.046552
 20
226.850920
 30
0.0
 10
182.071919
 20
227.494509
 30
0.0
 10
182.048793
 20
228.131754
 30
0.0
 10
181.923642
 20
228.507644
 30
0.0
 10
181.769013
 20
228.777488
 30
0.0
 10
181.567390
 20
229.043025
 30
0.0
 10
181.342837
 20
229.276102
 30
0.0
 10
181.119419
 20
229.448567
 30
0.0
 10
180.784864
 20
229.585384
 30
0.0
 10
180.254323
 20
229.731731
 30
0.0
 10
179.054565
 20
229.945214
 30
0.0
 10
174.559555
 20
230.460475
 30
0.0
 10
171.564102
 20
230.858575
 30
0.0
 10
172.191384
 20
232.087235
 30
0.0
 10
172.977605
 20
233.689606
 30
0.0
 10
173.234976
 20
234.336303
 30
0.0
 10
173.412325
 20
234.903945
 30
0.0
 10
173.519871
 20
235.594784
 30
0.0
 10
173.511399
 20
236.335131
 30
0.0
 10
173.393583
 20
237.047526
 30
0.0
 10
173.173099
 20
237.654509
 30
0.0
 10
172.988436
 20
237.925722
 30
0.0
 10
172.718813
 20
238.214903
 30
0.0
 10
172.413404
 20
238.475102
 30
0.0
 10
172.121381
 20
238.659375
 30
0.0
 10
171.701899
 20
238.823615
 30
0.0
 10
171.284146
 20
238.903153
 30
0.0
 10
170.850239
 20
238.899525
 30
0.0
 10
170.382297
 20
238.814267
 30
0.0
 10
169.739972
 20
238.593704
 30
0.0
 10
169.147736
 20
238.269332
 30
0.0
 10
168.590835
 20
237.831301
 30
0.0
 10
168.054514
 20
237.269761
 30
0.0
 10
167.383852
 20
236.400691
 30
0.0
 10
166.497330
 20
235.005368
 30
0.0
 10
165.904223
 20
234.071610
 30
0.0
 10
161.390872
 20
240.090329
 30
0.0
 10
160.979143
 20
240.611402
 30
0.0
 10
160.526319
 20
241.101869
 30
0.0
 10
160.101731
 20
241.492123
 30
0.0
 10
159.774709
 20
241.712557
 30
0.0
 10
159.345128
 20
241.831010
 30
0.0
 10
158.839848
 20
241.869102
 30
0.0
 10
158.839848
 20
241.869102
 30
0.0
  0
LWPOLYLINE
  5
1a8
100
AcDbEntity
  8
Layer_1
 62
7
100
AcDbPolyline
 90
12
 70
0
 10
152.555993
 20
222.194023
 30
0.0
 10
153.001376
 20
221.569496
 30
0.0
 10
154.715656
 20
219.036661
 30
0.0
 10
156.012114
 20
217.069925
 30
0.0
 10
154.808259
 20
214.936173
 30
0.0
 10
153.095082
 20
211.983863
 30
0.0
 10
152.556546
 20
211.105777
 30
0.0
 10
150.804938
 20
214.073732
 30
0.0
 10
149.110347
 20
217.096384
 30
0.0
 10
150.826116
 20
219.678677
 30
0.0
 10
152.555993
 20
222.194023
 30
0.0
 10
152.555993
 20
222.194023
 30
0.0
  0
LWPOLYLINE
  5
1a9
100
AcDbEntity
  8
Layer_1
 62
7
100
AcDbPolyline
 90
16
 70
0
 10
143.128560
 20
213.711371
 30
0.0
 10
143.264315
 20
213.655918
 30
0.0
 10
143.504979
 20
213.330895
 30
0.0
 10
144.985605
 20
210.798750
 30
0.0
 10
146.708701
 20
207.802896
 30
0.0
 10
146.711453
 20
207.772156
 30
0.0
 10
146.658582
 20
207.748643
 30
0.0
 10
146.250353
 20
207.719439
 30
0.0
 10
143.274632
 20
207.705329
 30
0.0
 10
139.787091
 20
207.705329
 30
0.0
 10
139.545108
 20
208.220715
 30
0.0
 10
138.208410
 20
210.988920
 30
0.0
 10
137.143465
 20
213.271502
 30
0.0
 10
140.057569
 20
213.512739
 30
0.0
 10
143.128560
 20
213.711371
 30
0.0
 10
143.128560
 20
213.711371
 30
0.0
  0
LWPOLYLINE
  5
1aa
100
AcDbEntity
  8
Layer_1
 62
7
100
AcDbPolyline
 90
15
 70
0
 10
161.982878
 20
213.711371
 30
0.0
 10
165.053897
 20
213.511896
 30
0.0
 10
167.969077
 20
213.269848
 30
0.0
 10
166.663799
 20
210.486762
 30
0.0
 10
165.328202
 20
207.733441
 30
0.0
 10
161.839010
 20
207.718560
 30
0.0
 10
158.858607
 20
207.720432
 30
0.0
 10
158.452169
 20
207.748071
 30
0.0
 10
158.400140
 20
207.771464
 30
0.0
 10
158.403284
 20
207.802343
 30
0.0
 10
160.125833
 20
210.799300
 30
0.0
 10
161.606636
 20
213.332359
 30
0.0
 10
161.846934
 20
213.656416
 30
0.0
 10
161.982878
 20
213.711371
 30
0.0
 10
161.982878
 20
213.711371
 30
0.0
  0
LWPOLYLINE
  5
1ab
100
AcDbEntity
  8
Layer_1
 62
7
100
AcDbPolyline
 90
14
 70
0
 10
158.343202
 20
201.017436
 30
0.0
 10
161.836255
 20
201.002551
 30
0.0
 10
165.329856
 20
200.988220
 30
0.0
 10
166.663799
 20
198.234349
 30
0.0
 10
167.969077
 20
195.451813
 30
0.0
 10
165.083465
 20
195.211484
 30
0.0
 10
162.020910
 20
194.998164
 30
0.0
 10
161.900594
 20
195.005251
 30
0.0
 10
161.812449
 20
195.049688
 30
0.0
 10
161.595923
 20
195.371888
 30
0.0
 10
159.970941
 20
198.201276
 30
0.0
 10
158.453447
 20
200.835535
 30
0.0
 10
158.343202
 20
201.017436
 30
0.0
 10
158.343202
 20
201.017436
 30
0.0
  0
LWPOLYLINE
  5
1ac
100
AcDbEntity
  8
Layer_1
 62
7
100
AcDbPolyline
 90
18
 70
0
 10
139.792052
 20
201.016332
 30
0.0
 10
143.279591
 20
201.016332
 30
0.0
 10
146.767683
 20
201.016332
 30
0.0
 10
146.658542
 20
200.834982
 30
0.0
 10
145.445316
 20
198.730993
 30
0.0
 10
143.829154
 20
195.915936
 30
0.0
 10
143.829154
 20
195.915386
 30
0.0
 10
143.316523
 20
195.024072
 30
0.0
 10
142.989102
 20
195.016353
 30
0.0
 10
140.264444
 20
195.193295
 30
0.0
 10
137.561286
 20
195.382911
 30
0.0
 10
137.183701
 20
195.432520
 30
0.0
 10
137.185043
 20
195.549431
 30
0.0
 10
137.372561
 20
195.996503
 30
0.0
 10
138.759077
 20
198.870453
 30
0.0
 10
139.574324
 20
200.556067
 30
0.0
 10
139.792052
 20
201.016332
 30
0.0
 10
139.792052
 20
201.016332
 30
0.0
  0
SPLINE
  5
1ad
100
AcDbEntity
  8
Layer_1
 62
7
100
AcDbSpline
 70
8
 71
3
 72
8
 73
4
 74
0
 40
0
 40
0
 40
0
 40
0
 40
1
 40
1
 40
1
 40
1
 10
149.264537
 20
235.521366
 30
0.0
 10
146.500238
 20
235.533727
 30
0.0
 10
143.541617
 20
234.980261
 30
0.0
 10
141.167550
 20
233.730753
 30
0.0
  0
SPLINE
  5
1ae
100
AcDbEntity
  8
Layer_1
 62
7
100
AcDbSpline
 70
8
 71
3
 72
8
 73
4
 74
0
 40
0
 40
0
 40
0
 40
0
 40
1
 40
1
 40
1
 40
1
 10
141.167550
 20
233.730753
 30
0.0
 10
137.705507
 20
231.908622
 30
0.0
 10
134.813492
 20
228.888272
 30
0.0
 10
133.289915
 20
225.502548
 30
0.0
  0
SPLINE
  5
1af
100
AcDbEntity
  8
Layer_1
 62
7
100
AcDbSpline
 70
8
 71
3
 72
8
 73
4
 74
0
 40
0
 40
0
 40
0
 40
0
 40
1
 40
1
 40
1
 40
1
 10
133.289915
 20
225.502548
 30
0.0
 10
131.570609
 20
221.681874
 30
0.0
 10
131.577551
 20
215.727637
 30
0.0
 10
133.305409
 20
212.180922
 30
0.0
  0
SPLINE
  5
1b0
100
AcDbEntity
  8
Layer_1
 62
7
100
AcDbSpline
 70
8
 71
3
 72
8
 73
4
 74
0
 40
0
 40
0
 40
0
 40
0
 40
1
 40
1
 40
1
 40
1
 10
133.305409
 20
212.180922
 30
0.0
 10
134.887812
 20
208.932762
 30
0.0
 10
136.865916
 20
207.431661
 30
0.0
 10
142.295279
 20
205.358383
 30
0.0
  0
SPLINE
  5
1b1
100
AcDbEntity
  8
Layer_1
 62
7
100
AcDbSpline
 70
8
 71
3
 72
8
 73
4
 74
0
 40
0
 40
0
 40
0
 40
0
 40
1
 40
1
 40
1
 40
1
 10
142.295279
 20
205.358383
 30
0.0
 10
147.298895
 20
203.447685
 30
0.0
 10
149.915595
 20
201.140070
 30
0.0
 10
150.389359
 20
198.220619
 30
0.0
  0
SPLINE
  5
1b2
100
AcDbEntity
  8
Layer_1
 62
7
100
AcDbSpline
 70
8
 71
3
 72
8
 73
4
 74
0
 40
0
 40
0
 40
0
 40
0
 40
1
 40
1
 40
1
 40
1
 10
150.389359
 20
198.220619
 30
0.0
 10
150.874623
 20
195.230286
 30
0.0
 10
148.717785
 20
191.293142
 30
0.0
 10
142.585807
 20
183.975122
 30
0.0
  0
SPLINE
  5
1b3
100
AcDbEntity
  8
Layer_1
 62
7
100
AcDbSpline
 70
8
 71
3
 72
8
 73
4
 74
0
 40
0
 40
0
 40
0
 40
0
 40
1
 40
1
 40
1
 40
1
 10
142.585807
 20
183.975122
 30
0.0
 10
139.587907
 20
180.397369
 30
0.0
 10
137.135040
 20
177.147865
 30
0.0
 10
137.135040
 20
176.754074
 30
0.0
  0
SPLINE
  5
1b4
100
AcDbEntity
  8
Layer_1
 62
7
100
AcDbSpline
 70
8
 71
3
 72
8
 73
4
 74
0
 40
0
 40
0
 40
0
 40
0
 40
1
 40
1
 40
1
 40
1
 10
137.135040
 20
176.754074
 30
0.0
 10
137.135040
 20
176.360284
 30
0.0
 10
138.121805
 20
174.647046
 30
0.0
 10
139.328031
 20
172.946719
 30
0.0
  0
SPLINE
  5
1b5
100
AcDbEntity
  8
Layer_1
 62
7
100
AcDbSpline
 70
8
 71
3
 72
8
 73
4
 74
0
 40
0
 40
0
 40
0
 40
0
 40
1
 40
1
 40
1
 40
1
 10
139.328031
 20
172.946719
 30
0.0
 10
140.534260
 20
171.246386
 30
0.0
 10
141.871994
 20
169.855031
 30
0.0
 10
142.300607
 20
169.855031
 30
0.0
  0
SPLINE
  5
1b6
100
AcDbEntity
  8
Layer_1
 62
7
100
AcDbSpline
 70
8
 71
3
 72
8
 73
4
 74
0
 40
0
 40
0
 40
0
 40
0
 40
1
 40
1
 40
1
 40
1
 10
142.300607
 20
169.855031
 30
0.0
 10
143.548983
 20
169.855031
 30
0.0
 10
149.440262
 20
172.991477
 30
0.0
 10
153.676186
 20
175.911063
 30
0.0
  0
SPLINE
  5
1b7
100
AcDbEntity
  8
Layer_1
 62
7
100
AcDbSpline
 70
8
 71
3
 72
8
 73
4
 74
0
 40
0
 40
0
 40
0
 40
0
 40
1
 40
1
 40
1
 40
1
 10
153.676186
 20
175.911063
 30
0.0
 10
159.366808
 20
179.833285
 30
0.0
 10
166.028844
 20
187.062456
 30
0.0
 10
168.709983
 20
192.224633
 30
0.0
  0
SPLINE
  5
1b8
100
AcDbEntity
  8
Layer_1
 62
7
100
AcDbSpline
 70
8
 71
3
 72
8
 73
4
 74
0
 40
0
 40
0
 40
0
 40
0
 40
1
 40
1
 40
1
 40
1
 10
168.709983
 20
192.224633
 30
0.0
 10
171.994161
 20
198.547876
 30
0.0
 10
172.817313
 20
203.700700
 30
0.0
 10
172.794792
 20
209.674645
 30
0.0
  0
SPLINE
  5
1b9
100
AcDbEntity
  8
Layer_1
 62
7
100
AcDbSpline
 70
8
 71
3
 72
8
 73
4
 74
0
 40
0
 40
0
 40
0
 40
0
 40
1
 40
1
 40
1
 40
1
 10
172.794792
 20
209.674645
 30
0.0
 10
172.779947
 20
213.613197
 30
0.0
 10
172.267795
 20
216.612220
 30
0.0
 10
170.014934
 20
221.158685
 30
0.0
  0
SPLINE
  5
1ba
100
AcDbEntity
  8
Layer_1
 62
7
100
AcDbSpline
 70
8
 71
3
 72
8
 73
4
 74
0
 40
0
 40
0
 40
0
 40
0
 40
1
 40
1
 40
1
 40
1
 10
170.014934
 20
221.158685
 30
0.0
 10
167.080703
 20
227.080209
 30
0.0
 10
163.251619
 20
231.086884
 30
0.0
 10
158.272807
 20
233.445068
 30
0.0
  0
SPLINE
  5
1bb
100
AcDbEntity
  8
Layer_1
 62
7
100
AcDbSpline
 70
8
 71
3
 72
8
 73
4
 74
0
 40
0
 40
0
 40
0
 40
0
 40
1
 40
1
 40
1
 40
1
 10
158.272807
 20
233.445068
 30
0.0
 10
154.891463
 20
235.046614
 30
0.0
 10
152.345966
 20
235.507560
 30
0.0
 10
149.264537
 20
235.521366
 30
0.0
  0
LWPOLYLINE
  5
1bc
100
AcDbEntity
  8
Layer_1
 62
7
100
AcDbPolyline
 90
12
 70
0
 10
152.558200
 20
197.615885
 30
0.0
 10
154.301176
 20
194.659840
 30
0.0
 10
156.012114
 20
191.648428
 30
0.0
 10
155.273485
 20
190.506862
 30
0.0
 10
153.559205
 20
187.975682
 30
0.0
 10
152.555993
 20
186.527089
 30
0.0
 10
151.664128
 20
187.808112
 30
0.0
 10
149.949848
 20
190.340396
 30
0.0
 10
149.099874
 20
191.653390
 30
0.0
 10
149.913467
 20
193.118521
 30
0.0
 10
152.558200
 20
197.615885
 30
0.0
 10
152.558200
 20
197.615885
 30
0.0
  0
SPLINE
  5
1bd
100
AcDbEntity
  8
Layer_1
 62
7
100
AcDbSpline
 70
8
 71
3
 72
8
 73
4
 74
0
 40
0
 40
0
 40
0
 40
0
 40
1
 40
1
 40
1
 40
1
 10
149.293588
 20
230.780936
 30
0.0
 10
151.071117
 20
230.779807
 30
0.0
 10
152.952044
 20
230.473915
 30
0.0
 10
154.877516
 20
229.823167
 30
0.0
  0
SPLINE
  5
1be
100
AcDbEntity
  8
Layer_1
 62
7
100
AcDbSpline
 70
8
 71
3
 72
8
 73
4
 74
0
 40
0
 40
0
 40
0
 40
0
 40
1
 40
1
 40
1
 40
1
 10
154.877516
 20
229.823167
 30
0.0
 10
158.567668
 20
228.576007
 30
0.0
 10
163.697291
 20
223.642252
 30
0.0
 10
165.797450
 20
219.319651
 30
0.0
  0
SPLINE
  5
1bf
100
AcDbEntity
  8
Layer_1
 62
7
100
AcDbSpline
 70
8
 71
3
 72
8
 73
4
 74
0
 40
0
 40
0
 40
0
 40
0
 40
1
 40
1
 40
1
 40
1
 10
165.797450
 20
219.319651
 30
0.0
 10
172.701390
 20
205.109796
 30
0.0
 10
165.112514
 20
188.052133
 30
0.0
 10
147.038131
 20
177.153549
 30
0.0
  0
SPLINE
  5
1c0
100
AcDbEntity
  8
Layer_1
 62
7
100
AcDbSpline
 70
8
 71
3
 72
8
 73
4
 74
0
 40
0
 40
0
 40
0
 40
0
 40
1
 40
1
 40
1
 40
1
 10
147.038131
 20
177.153549
 30
0.0
 10
145.335763
 20
176.127050
 30
0.0
 10
144.378110
 20
175.346663
 30
0.0
 10
143.824421
 20
175.161020
 30
0.0
  0
SPLINE
  5
1c1
100
AcDbEntity
  8
Layer_1
 62
7
100
AcDbSpline
 70
8
 71
3
 72
8
 73
4
 74
0
 40
0
 40
0
 40
0
 40
0
 40
1
 40
1
 40
1
 40
1
 10
143.824421
 20
175.161020
 30
0.0
 10
143.216486
 20
174.957188
 30
0.0
 10
142.676160
 20
176.079261
 30
0.0
 10
142.474439
 20
176.604937
 30
0.0
  0
SPLINE
  5
1c2
100
AcDbEntity
  8
Layer_1
 62
7
100
AcDbSpline
 70
8
 71
3
 72
8
 73
4
 74
0
 40
0
 40
0
 40
0
 40
0
 40
1
 40
1
 40
1
 40
1
 10
142.474439
 20
176.604937
 30
0.0
 10
142.323140
 20
176.999216
 30
0.0
 10
143.840928
 20
178.097108
 30
0.0
 10
145.340485
 20
179.846733
 30
0.0
  0
SPLINE
  5
1c3
100
AcDbEntity
  8
Layer_1
 62
7
100
AcDbSpline
 70
8
 71
3
 72
8
 73
4
 74
0
 40
0
 40
0
 40
0
 40
0
 40
1
 40
1
 40
1
 40
1
 10
145.340485
 20
179.846733
 30
0.0
 10
152.849755
 20
188.608266
 30
0.0
 10
154.877516
 20
192.358130
 30
0.0
 10
154.877516
 20
197.483652
 30
0.0
  0
SPLINE
  5
1c4
100
AcDbEntity
  8
Layer_1
 62
7
100
AcDbSpline
 70
8
 71
3
 72
8
 73
4
 74
0
 40
0
 40
0
 40
0
 40
0
 40
1
 40
1
 40
1
 40
1
 10
154.877516
 20
197.483652
 30
0.0
 10
154.877516
 20
200.245931
 30
0.0
 10
154.607737
 20
201.254319
 30
0.0
 10
153.328522
 20
203.271432
 30
0.0
  0
SPLINE
  5
1c5
100
AcDbEntity
  8
Layer_1
 62
7
100
AcDbSpline
 70
8
 71
3
 72
8
 73
4
 74
0
 40
0
 40
0
 40
0
 40
0
 40
1
 40
1
 40
1
 40
1
 10
153.328522
 20
203.271432
 30
0.0
 10
151.364095
 20
206.369010
 30
0.0
 10
149.349813
 20
207.792620
 30
0.0
 10
144.229706
 20
209.702729
 30
0.0
  0
SPLINE
  5
1c6
100
AcDbEntity
  8
Layer_1
 62
7
100
AcDbSpline
 70
8
 71
3
 72
8
 73
4
 74
0
 40
0
 40
0
 40
0
 40
0
 40
1
 40
1
 40
1
 40
1
 10
144.229706
 20
209.702729
 30
0.0
 10
138.936140
 20
211.677548
 30
0.0
 10
137.215344
 20
213.373559
 30
0.0
 10
136.780595
 20
217.044342
 30
0.0
  0
SPLINE
  5
1c7
100
AcDbEntity
  8
Layer_1
 62
7
100
AcDbSpline
 70
8
 71
3
 72
8
 73
4
 74
0
 40
0
 40
0
 40
0
 40
0
 40
1
 40
1
 40
1
 40
1
 10
136.780595
 20
217.044342
 30
0.0
 10
135.828450
 20
225.083750
 30
0.0
 10
141.590976
 20
230.786639
 30
0.0
 10
149.293588
 20
230.780936
 30
0.0
  0
LWPOLYLINE
  5
1c8
100
AcDbEntity
  8
Layer_1
 62
7
100
AcDbPolyline
 90
2
 70
1
 10
149.264537
 20
235.521366
 30
0.0
 10
149.264537
 20
235.521366
 30
0.0
  0
LWPOLYLINE
  5
1c9
100
AcDbEntity
  8
Layer_1
 62
7
100
AcDbPolyline
 90
2
 70
1
 10
149.293588
 20
230.780936
 30
0.0
 10
149.293588
 20
230.780936
 30
0.0
  0
ENDSEC
  0
SECTION
  2
OBJECTS
  0
DICTIONARY
  5
C
330
0
100
AcDbDictionary
  3
ACAD_GROUP
350
D
  3
ACAD_MLINESTYLE
350
17
  0
DICTIONARY
  5
D
330
C
100
AcDbDictionary
  0
DICTIONARY
  5
1A
330
C
100
AcDbDictionary
  0
DICTIONARY
  5
17
330
C
100
AcDbDictionary
  3
STANDARD
350
18
  0
DICTIONARY
  5
19
330
C
100
AcDbDictionary
  0
ENDSEC
  0
EOF
