<?xml version="1.0" encoding="UTF-8" standalone="no"?>
<svg
   xmlns:dc="http://purl.org/dc/elements/1.1/"
   xmlns:cc="http://creativecommons.org/ns#"
   xmlns:rdf="http://www.w3.org/1999/02/22-rdf-syntax-ns#"
   xmlns:svg="http://www.w3.org/2000/svg"
   xmlns="http://www.w3.org/2000/svg"
   xmlns:sodipodi="http://sodipodi.sourceforge.net/DTD/sodipodi-0.dtd"
   xmlns:inkscape="http://www.inkscape.org/namespaces/inkscape"
   version="1.1"
   width="896.7mm"
   height="188.7mm"
   viewBox=" 0 0 3177.286077 668.6225969999999"
   id="svg4137"
   inkscape:version="0.91 r13725"
   sodipodi:docname="caseplans.svg">
  <metadata
     id="metadata4167">
    <rdf:RDF>
      <cc:Work
         rdf:about="">
        <dc:format>image/svg+xml</dc:format>
        <dc:type
           rdf:resource="http://purl.org/dc/dcmitype/StillImage" />
        <dc:title></dc:title>
      </cc:Work>
    </rdf:RDF>
  </metadata>
  <defs
     id="defs4165" />
  <sodipodi:namedview
     pagecolor="#ffffff"
     bordercolor="#666666"
     borderopacity="1"
     objecttolerance="10"
     gridtolerance="10"
     guidetolerance="10"
     inkscape:pageopacity="0"
     inkscape:pageshadow="2"
     inkscape:window-width="1440"
     inkscape:window-height="837"
     id="namedview4163"
     showgrid="false"
     inkscape:zoom="0.2732923"
     inkscape:cx="1370.2049"
     inkscape:cy="654.52424"
     inkscape:window-x="-4"
     inkscape:window-y="-4"
     inkscape:window-maximized="1"
     inkscape:current-layer="svg4137" />
  <!-- Front-->
  <path
     inkscape:connector-curvature="0"
     id="polygon4141"
     d="m 36.673705,22.5 0,48.189453 -14.173828,0 0,48.189457 14.173828,0 0,18.60156 10.984375,0 0,-4.42969 8.857422,0 0,4.42969 8.859375,0 0,10.98437 -8.859375,0 0,4.42969 -8.857422,0 0,-4.42969 -10.984375,0 0,18.60157 -14.173828,0 0,48.18945 14.173828,0 0,48.18945 64.664065,0 0,-14.17383 33.92773,0 0,-10.98437 -4.42968,0 0,-8.85742 4.42968,0 0,-8.85938 10.98438,0 0,8.85938 4.42969,0 0,8.85742 -4.42969,0 0,10.98437 33.92773,0 0,14.17383 46.0625,0 0,-14.17383 46.0625,0 0,14.17383 46.06446,0 0,-14.17383 46.0625,0 0,14.17383 46.0625,0 0,-14.17383 46.0625,0 0,14.17383 46.06445,0 0,-14.17383 46.0625,0 0,14.17383 46.0625,0 0,-14.17383 46.0625,0 0,14.17383 46.06445,0 0,-14.17383 46.0625,0 0,14.17383 46.0625,0 0,-14.17383 46.0625,0 0,14.17383 46.06446,0 0,-14.17383 46.0625,0 0,14.17383 46.0625,0 0,-14.17383 46.06247,0 0,14.17383 46.0645,0 0,-14.17383 46.0625,0 0,14.17383 46.0625,0 0,-14.17383 46.0625,0 0,14.17383 46.0645,0 0,-14.17383 33.9257,0 0,-10.98437 -4.4297,0 0,-8.85742 4.4297,0 0,-8.85938 10.9844,0 0,8.85938 4.4297,0 0,8.85742 -4.4297,0 0,10.98437 33.9277,0 0,14.17383 64.6661,0 0,-48.18945 14.1718,0 0,-48.18945 -14.1718,0 0,-18.60157 -10.9844,0 0,4.42969 -8.8594,0 0,-4.42969 -8.8574,0 0,-10.98437 8.8574,0 0,-4.42969 8.8594,0 0,4.42969 10.9844,0 0,-18.60156 14.1718,0 0,-48.189457 -14.1718,0 0,-48.189453 -64.6661,0 0,14.173828 -33.9277,0 0,10.984375 4.4297,0 0,8.857422 -4.4297,0 0,8.857422 -10.9844,0 0,-8.857422 -4.4297,0 0,-8.857422 4.4297,0 0,-10.984375 -33.9257,0 0,-14.173828 -46.0645,0 0,14.173828 -46.0625,0 0,-14.173828 -46.0625,0 0,14.173828 -46.0625,0 0,-14.173828 -46.0645,0 0,14.173828 -46.06247,0 0,-14.173828 -46.0625,0 0,14.173828 -46.0625,0 0,-14.173828 -46.06446,0 0,14.173828 -46.0625,0 0,-14.173828 -46.0625,0 0,14.173828 -46.0625,0 0,-14.173828 -46.06445,0 0,14.173828 -46.0625,0 0,-14.173828 -46.0625,0 0,14.173828 -46.0625,0 0,-14.173828 -46.06445,0 0,14.173828 -46.0625,0 0,-14.173828 -46.0625,0 0,14.173828 -46.0625,0 0,-14.173828 -46.06446,0 0,14.173828 -46.0625,0 0,-14.173828 -46.0625,0 0,14.173828 -33.92773,0 0,10.984375 4.42969,0 0,8.857422 -4.42969,0 0,8.857422 -10.98438,0 0,-8.857422 -4.42968,0 0,-8.857422 4.42968,0 0,-10.984375 -33.92773,0 0,-14.173828 -64.664064,0 z"
     style="fill:none;stroke:#000000;stroke-width:0.90000075" />
  <!-- Back-->
  <path
     inkscape:connector-curvature="0"
     id="polygon4145"
     d="m 1411.4765,22.5 0,48.189453 -14.1739,0 0,48.189457 14.1739,0 0,18.60156 10.9843,0 0,-4.42969 8.8575,0 0,4.42969 8.8593,0 0,10.98437 -8.8593,0 0,4.42969 -8.8575,0 0,-4.42969 -10.9843,0 0,18.60157 -14.1739,0 0,48.18945 14.1739,0 0,48.18945 64.666,0 0,-14.17383 33.9258,0 0,-10.98437 -4.4278,0 0,-8.85742 4.4278,0 0,-8.85938 10.9843,0 0,8.85938 4.4297,0 0,8.85742 -4.4297,0 0,10.98437 33.9278,0 0,14.17383 46.0625,0 0,-14.17383 46.0625,0 0,14.17383 46.0644,0 0,-14.17383 46.0625,0 0,14.17383 46.0625,0 0,-14.17383 46.0625,0 0,14.17383 46.0645,0 0,-14.17383 46.0625,0 0,14.17383 46.0625,0 0,-14.17383 46.0625,0 0,14.17383 46.0644,0 0,-14.17383 46.0625,0 0,14.17383 46.0625,0 0,-14.17383 46.0625,0 0,14.17383 46.0645,0 0,-14.17383 46.0625,0 0,14.17383 46.0625,0 0,-14.17383 46.0625,0 0,14.17383 46.0644,0 0,-14.17383 46.0625,0 0,14.17383 46.0625,0 0,-14.17383 46.0625,0 0,14.17383 46.0645,0 0,-14.17383 33.9258,0 0,-10.98437 -4.4278,0 0,-8.85742 4.4278,0 0,-8.85938 10.9843,0 0,8.85938 4.4297,0 0,8.85742 -4.4297,0 0,10.98437 33.9278,0 0,14.17383 64.666,0 0,-48.18945 14.1719,0 0,-48.18945 -14.1719,0 0,-18.60157 -10.9844,0 0,4.42969 -8.8594,0 0,-4.42969 -8.8574,0 0,-10.98437 8.8574,0 0,-4.42969 8.8594,0 0,4.42969 10.9844,0 0,-18.60156 14.1719,0 0,-48.189457 -14.1719,0 0,-48.189453 -64.666,0 0,14.173828 -33.9278,0 0,10.984375 4.4297,0 0,8.857422 -4.4297,0 0,8.857422 -10.9843,0 0,-8.857422 -4.4278,0 0,-8.857422 4.4278,0 0,-10.984375 -33.9258,0 0,-14.173828 -46.0645,0 0,14.173828 -46.0625,0 0,-14.173828 -46.0625,0 0,14.173828 -46.0625,0 0,-14.173828 -46.0644,0 0,14.173828 -46.0625,0 0,-14.173828 -46.0625,0 0,14.173828 -46.0625,0 0,-14.173828 -46.0645,0 0,14.173828 -46.0625,0 0,-14.173828 -46.0625,0 0,14.173828 -46.0625,0 0,-14.173828 -46.0644,0 0,14.173828 -46.0625,0 0,-14.173828 -46.0625,0 0,14.173828 -46.0625,0 0,-14.173828 -46.0645,0 0,14.173828 -46.0625,0 0,-14.173828 -46.0625,0 0,14.173828 -46.0625,0 0,-14.173828 -46.0644,0 0,14.173828 -46.0625,0 0,-14.173828 -46.0625,0 0,14.173828 -33.9278,0 0,10.984375 4.4297,0 0,8.857422 -4.4297,0 0,8.857422 -10.9843,0 0,-8.857422 -4.4278,0 0,-8.857422 4.4278,0 0,-10.984375 -33.9258,0 0,-14.173828 -64.666,0 z"
     style="fill:none;stroke:#000000;stroke-width:0.90000075" />
  <!-- Left-->
  <path
     inkscape:connector-curvature="0"
     id="polygon4149"
     d="m 2833.2284,22.5 0,14.173828 -61.123,0 0,34.015625 14.1738,0 0,48.189457 -14.1738,0 0,17.53906 13.1113,0 0,13.10937 -13.1113,0 0,17.53907 14.1738,0 0,48.18945 -14.1738,0 0,34.01562 61.123,0 0,14.17383 24.0059,0 0,-13.11133 13.1094,0 0,13.11133 24.0058,0 0,-14.17383 46.0645,0 0,14.17383 46.0625,0 0,-14.17383 46.0625,0 0,14.17383 24.0058,0 0,-13.11133 13.1113,0 0,13.11133 24.0059,0 0,-14.17383 61.1211,0 0,-34.01562 -14.1738,0 0,-48.18945 14.1738,0 0,-17.53907 -13.1094,0 0,-13.10937 13.1094,0 0,-17.53906 -14.1738,0 0,-48.189457 14.1738,0 0,-34.015625 -61.1211,0 0,-14.173828 -24.0059,0 0,13.109375 -13.1113,0 0,-13.109375 -24.0058,0 0,14.173828 -46.0625,0 0,-14.173828 -46.0625,0 0,14.173828 -46.0645,0 0,-14.173828 -24.0058,0 0,13.109375 -13.1094,0 0,-13.109375 -24.0059,0 z"
     style="fill:none;stroke:#000000;stroke-width:0.90000075" />
  <!-- Right-->
  <path
     inkscape:connector-curvature="0"
     id="polygon4153"
     d="m 2833.2284,263.44531 0,14.17188 -61.123,0 0,34.01758 14.1738,0 0,48.1875 -14.1738,0 0,17.53906 13.1113,0 0,13.11133 -13.1113,0 0,17.53906 14.1738,0 0,48.18945 -14.1738,0 0,34.01563 61.123,0 0,14.17382 24.0059,0 0,-13.11132 13.1094,0 0,13.11132 24.0058,0 0,-14.17382 46.0645,0 0,14.17382 46.0625,0 0,-14.17382 46.0625,0 0,14.17382 24.0058,0 0,-13.11132 13.1113,0 0,13.11132 24.0059,0 0,-14.17382 61.1211,0 0,-34.01563 -14.1738,0 0,-48.18945 14.1738,0 0,-17.53906 -13.1094,0 0,-13.11133 13.1094,0 0,-17.53906 -14.1738,0 0,-48.1875 14.1738,0 0,-34.01758 -61.1211,0 0,-14.17188 -24.0059,0 0,13.10938 -13.1113,0 0,-13.10938 -24.0058,0 0,14.17188 -46.0625,0 0,-14.17188 -46.0625,0 0,14.17188 -46.0645,0 0,-14.17188 -24.0058,0 0,13.10938 -13.1094,0 0,-13.10938 -24.0059,0 z"
     style="fill:none;stroke:#000000;stroke-width:0.90000075" />
  <!-- Top-->
  <path
     inkscape:connector-curvature="0"
     id="polygon4157"
     d="m 101.33777,263.44531 0,14.17188 -78.837893,0 0,46.94922 14.173828,0 0,25.07031 10.984375,0 0,-4.42969 8.857422,0 0,4.42969 8.859375,0 0,10.98242 -8.859375,0 0,4.42969 -8.857422,0 0,-4.42969 -10.984375,0 0,25.07031 -14.173828,0 0,46.0625 14.173828,0 0,46.0625 -14.173828,0 0,46.0625 14.173828,0 0,25.07032 10.984375,0 0,-4.42969 8.857422,0 0,4.42969 8.859375,0 0,10.98437 -8.859375,0 0,4.42774 -8.857422,0 0,-4.42774 -10.984375,0 0,25.06836 -14.173828,0 0,46.94922 78.837893,0 0,14.17187 32.86523,0 0,-13.10937 13.10938,0 0,13.10937 32.86523,0 0,-14.17187 46.0625,0 0,14.17187 46.0625,0 0,-14.17187 46.06446,0 0,14.17187 46.0625,0 0,-14.17187 46.0625,0 0,14.17187 46.0625,0 0,-14.17187 46.06445,0 0,14.17187 46.0625,0 0,-14.17187 46.0625,0 0,14.17187 46.0625,0 0,-14.17187 46.06445,0 0,14.17187 46.0625,0 0,-14.17187 46.0625,0 0,14.17187 46.0625,0 0,-14.17187 46.06446,0 0,14.17187 46.0625,0 0,-14.17187 46.0625,0 0,14.17187 46.06247,0 0,-14.17187 46.0645,0 0,14.17187 46.0625,0 0,-14.17187 46.0625,0 0,14.17187 46.0625,0 0,-14.17187 46.0645,0 0,14.17187 32.8632,0 0,-13.10937 13.1094,0 0,13.10937 32.8652,0 0,-14.17187 78.8379,0 0,-46.94922 -14.1718,0 0,-25.06836 -10.9844,0 0,4.42774 -8.8594,0 0,-4.42774 -8.8574,0 0,-10.98437 8.8574,0 0,-4.42969 8.8594,0 0,4.42969 10.9844,0 0,-25.07032 14.1718,0 0,-46.0625 -14.1718,0 0,-46.0625 14.1718,0 0,-46.0625 -14.1718,0 0,-25.07031 -10.9844,0 0,4.42969 -8.8594,0 0,-4.42969 -8.8574,0 0,-10.98242 8.8574,0 0,-4.42969 8.8594,0 0,4.42969 10.9844,0 0,-25.07031 14.1718,0 0,-46.94922 -78.8379,0 0,-14.17188 -32.8652,0 0,13.10938 -13.1094,0 0,-13.10938 -32.8632,0 0,14.17188 -46.0645,0 0,-14.17188 -46.0625,0 0,14.17188 -46.0625,0 0,-14.17188 -46.0625,0 0,14.17188 -46.0645,0 0,-14.17188 -46.06247,0 0,14.17188 -46.0625,0 0,-14.17188 -46.0625,0 0,14.17188 -46.06446,0 0,-14.17188 -46.0625,0 0,14.17188 -46.0625,0 0,-14.17188 -46.0625,0 0,14.17188 -46.06445,0 0,-14.17188 -46.0625,0 0,14.17188 -46.0625,0 0,-14.17188 -46.0625,0 0,14.17188 -46.06445,0 0,-14.17188 -46.0625,0 0,14.17188 -46.0625,0 0,-14.17188 -46.0625,0 0,14.17188 -46.06446,0 0,-14.17188 -46.0625,0 0,14.17188 -46.0625,0 0,-14.17188 -32.86523,0 0,13.10938 -13.10938,0 0,-13.10938 -32.86523,0 z"
     style="fill:none;stroke:#000000;stroke-width:0.90000075" />
  <!-- Bottom-->
  <path
     inkscape:connector-curvature="0"
     id="polygon4161"
     d="m 1476.1425,263.44531 0,14.17188 -78.8399,0 0,46.94922 14.1739,0 0,25.07031 10.9843,0 0,-4.42969 8.8575,0 0,4.42969 8.8593,0 0,10.98242 -8.8593,0 0,4.42969 -8.8575,0 0,-4.42969 -10.9843,0 0,25.07031 -14.1739,0 0,46.0625 14.1739,0 0,46.0625 -14.1739,0 0,46.0625 14.1739,0 0,25.07032 10.9843,0 0,-4.42969 8.8575,0 0,4.42969 8.8593,0 0,10.98437 -8.8593,0 0,4.42774 -8.8575,0 0,-4.42774 -10.9843,0 0,25.06836 -14.1739,0 0,46.94922 78.8399,0 0,14.17187 32.8633,0 0,-13.10937 13.1093,0 0,13.10937 32.8653,0 0,-14.17187 46.0625,0 0,14.17187 46.0625,0 0,-14.17187 46.0644,0 0,14.17187 46.0625,0 0,-14.17187 46.0625,0 0,14.17187 46.0625,0 0,-14.17187 46.0645,0 0,14.17187 46.0625,0 0,-14.17187 46.0625,0 0,14.17187 46.0625,0 0,-14.17187 46.0644,0 0,14.17187 46.0625,0 0,-14.17187 46.0625,0 0,14.17187 46.0625,0 0,-14.17187 46.0645,0 0,14.17187 46.0625,0 0,-14.17187 46.0625,0 0,14.17187 46.0625,0 0,-14.17187 46.0644,0 0,14.17187 46.0625,0 0,-14.17187 46.0625,0 0,14.17187 46.0625,0 0,-14.17187 46.0645,0 0,14.17187 32.8633,0 0,-13.10937 13.1113,0 0,13.10937 32.8633,0 0,-14.17187 78.8379,0 0,-46.94922 -14.1719,0 0,-25.06836 -10.9844,0 0,4.42774 -8.8594,0 0,-4.42774 -8.8574,0 0,-10.98437 8.8574,0 0,-4.42969 8.8594,0 0,4.42969 10.9844,0 0,-25.07032 14.1719,0 0,-46.0625 -14.1719,0 0,-46.0625 14.1719,0 0,-46.0625 -14.1719,0 0,-25.07031 -10.9844,0 0,4.42969 -8.8594,0 0,-4.42969 -8.8574,0 0,-10.98242 8.8574,0 0,-4.42969 8.8594,0 0,4.42969 10.9844,0 0,-25.07031 14.1719,0 0,-46.94922 -78.8379,0 0,-14.17188 -32.8633,0 0,13.10938 -13.1113,0 0,-13.10938 -32.8633,0 0,14.17188 -46.0645,0 0,-14.17188 -46.0625,0 0,14.17188 -46.0625,0 0,-14.17188 -46.0625,0 0,14.17188 -46.0644,0 0,-14.17188 -46.0625,0 0,14.17188 -46.0625,0 0,-14.17188 -46.0625,0 0,14.17188 -46.0645,0 0,-14.17188 -46.0625,0 0,14.17188 -46.0625,0 0,-14.17188 -46.0625,0 0,14.17188 -46.0644,0 0,-14.17188 -46.0625,0 0,14.17188 -46.0625,0 0,-14.17188 -46.0625,0 0,14.17188 -46.0645,0 0,-14.17188 -46.0625,0 0,14.17188 -46.0625,0 0,-14.17188 -46.0625,0 0,14.17188 -46.0644,0 0,-14.17188 -46.0625,0 0,14.17188 -46.0625,0 0,-14.17188 -32.8653,0 0,13.10938 -13.1093,0 0,-13.10938 -32.8633,0 z"
     style="fill:none;stroke:#000000;stroke-width:0.90000075" />
  <path
     style="fill:none;stroke:#ff0000;stroke-width:1.02216446;stroke-linejoin:round;stroke-miterlimit:4;stroke-dasharray:none"
     d="M 107.55664 313.5625 C 98.01444 313.5625 90.333984 321.46385 90.333984 331.2793 L 90.333984 578.28711 C 90.333984 588.10257 98.01444 596.00391 107.55664 596.00391 L 1312.2441 596.00391 C 1321.7863 596.00391 1329.4688 588.10257 1329.4688 578.28711 L 1329.4688 331.2793 C 1329.4688 321.46385 1321.7863 313.5625 1312.2441 313.5625 L 107.55664 313.5625 z "
     transform="translate(-1.2207042e-4,0)"
     id="rect4729" />
</svg>
